<?xml version="1.0" encoding="UTF-8"?>
<svg id="Layer_2" data-name="Layer 2" xmlns="http://www.w3.org/2000/svg" viewBox="0 0 78.4072704 62.3099262">
  <g id="Layer_1-2" data-name="Layer 1">
    <g>
      <path d="m20.0216086,13.9454023c-4.58303-.35912-17.1301624-3.0368232-17.2337907-8.7371071C2.8620124,2.136999,8.7744812-.5266341,11.496329.0892958c2.3674713.3995068,4.5100183,1.5639484,6.7843215,2.2964309,5.8777987,1.6250338,12.1588496,3.4009453,16.7828455,7.4497801-4.8918205-2.4806234-10.4200476-3.5236336-15.8396197-4.1823405-4.6119711-.459508-8.6130883-4.0613525-12.7081252-.1901803,7.2206791,6.0027539,17.5546183,4.4441279,26.1569753,6.7380455-4.1058297.8724688-8.3816957,1.9465514-12.6511179,1.7443709Z" fill="#423b30" stroke-width="0"/>
      <path d="m7.0905427,23.6309222C-.6190659,21.7655141-1.4372133,14.8851414,1.7536787,8.5830224c1.0543081-2.2120104,3.1772407-4.8092603,5.9075282-3.7628004-.2069363.049233-.5770585-.0502926-.8296671-.0286084-3.4584824.2159057-4.2717508,4.8805964-4.7627379,7.6284284-1.2674539,6.4676582,4.0757799,9.2204431,9.7789476,8.2225262,6.4254226-1.2466938,13.0612443-2.7959068,19.4468598-3.890614,1.6228531-.2303946,2.9771547-.7777975,4.4693605-1.3467122-3.9602745,5.2404556-11.0665572,6.472759-17.2054657,7.5034485-3.7737165.6246529-7.6667207,1.7334302-11.4679613.7222318Z" fill="#423b30" stroke-width="0"/>
      <path d="m36.4400979,18.896226c-4.8036175-.4140204-4.1773753-6.2878519-1.9963265-9.190578-.1308321.0102261-.291825.1047741-.3914861.0753526.8837914-.9439035,1.8222861-1.8815234,2.9965103-2.4539371,3.129708-1.5276274,8.1048648,3.0988942,8.0744576,6.1821907-.4045459,3.2628071-5.6718234,5.7239887-8.6831554,5.3869718Zm-.0505883-2.7502221c2.0177766-.1545739,3.667353-1.4558231,5.0465052-2.8290738-.9576779-1.3990253-1.8455843-3.1074694-3.3433467-3.9775233-.9871117-.3570255-1.9469826.0504897-2.925433.2039301-.6909252,1.4168655-.7668938,3.0813005-.6017612,4.6104803.1025071.6015395.1926321,1.0457699.5119073,1.4653839.1310046.1620894.3076816.3105523.4998455.393864l.0079591.0193187c.1491282.0418653.2983056.0748844.4492326.0975789.1800405.0172734.3617566.0209696.541144.0128134,0,0-.1860899.0031541-.1860529.003228Z" fill="#423b30" stroke-width="0"/>
      <path d="m54.3866212,13.6335194c-3.1716595-.6040529-6.4248443-1.3972265-9.1208313-3.2521621-.779892.2676274-1.6223972.6378359-2.369418.8518934.6230266-.415351,1.2489977-.8235315,1.8767923-1.2285086-.5870012-.3748164-1.9230561-1.9661411-.3155051-1.7614964-.1068809.0829914-.4043241.0166821-.5362158.1584425-.0130968.0407318-.0248629.0814882-.0362594.1222693.2004803.5993218.8477661.8788016,1.3619281,1.1760723,7.3926373-5.4873105,14.7402922-4.9286466,23.3644444-3.6585684,1.9742234.5016197,5.7547531-.0612579,6.4341463,2.356235.333025,1.6798604-1.3888978,2.5040572-2.6430578,3.1162909-5.4503242,3.0440677-11.9984358,2.9990976-18.0160236,2.1195322Zm1.362581-2.0721719c4.1828456-.0127888,8.4810734-.3722537,12.403302-1.9212449-7.905518-1.2066766-14.3488308-3.0149172-22.0695402.4422592,3.1007547,1.1796452,6.386207,1.4374408,9.6662382,1.4789858Z" fill="#423b30" stroke-width="0"/>
      <path d="m69.0428379,24.5089107c-3.7173499-.0664818-25.3308812-3.8949755-24.5983987-8.2826752.0930696-.0637466.4931554.0726421.5109463.1419576-.1559168-.0182344-.302162-.0924782-.4557132-.0462021-.0179387.0223988-.0356927.0456107-.0525719.0684531,1.4335598,3.7735193,20.1696222,4.5629229,24.4929346,4.8278151,1.557973-.0663832,3.2918344.0279677,4.6221109-.9184492,1.8137849-1.7744577,1.4790474-4.8327926.8723826-7.0895513-.3877283-1.4467798-1.217839-2.7089729-2.1838702-3.8283212,1.5293769.319842,3.0001449,1.2067258,4.0402597,2.4255258,3.1927154,3.3460202,2.8479489,9.7719364-1.5453813,11.9191652-1.772548.876781-3.7756385.864214-5.7026987.7822822Z" fill="#423b30" stroke-width="0"/>
      <path d="m10.9697479,50.1675313c-.2301729-3.9838807,2.2380437-7.3933765,4.3778433-10.5250928,2.1952298-3.2423796,4.5292384-6.3932913,6.828306-9.5602197,3.2541334-4.0992259,5.8686568-9.1794156,10.4149592-11.9788214.5006217-.2420253,1.1340468-.3463558,1.5833533.0630074.0094622.0094622,0,.0220785-.0126163.0157703-.1175875-.0774964-.2611837-.1303023-.3976341-.1737447-3.4221613.2396844-8.4601654,11.0722-10.6667424,14.0800699-2.7709453,4.3594117-5.5277097,8.7704219-8.4440993,13.0280411-1.241322,1.6659381-2.6560807,3.2859451-3.6833697,5.0509899Z" fill="#423b30" stroke-width="0"/>
      <path d="m25.3863049,61.5277369c-2.1527361-3.6279149-4.3016406-7.4194962-5.7385023-11.4130855-1.689532.6606782-8.3566603,3.6052943-8.747826.5597974-.0220785-.5235749.4037204-1.0913068.7033567-1.4761521.31431-.4049032.8401897-1.0587312,1.3594023-1.0597168-.485492.2559721-.751333.824049-.9558667,1.3072617-1.8498472,4.0097047,6.88227-2.0031274,7.8284775-2.5088622,1.2367388-.4808965,2.1491878.6111988,2.4599618,1.7014706,1.1591068,2.5785473,2.8199442,4.8845636,4.1513789,7.3711995,1.2611951-12.3822215,2.251929-25.4137863,9.48398-35.9990034-1.1991857,3.8936942-2.2869071,8.0023084-2.8955679,12.0894848-1.1317429,7.3284471-1.9400831,14.7007309-2.7215891,21.9681912-.494868,2.4037431-.0092527,6.8912394-2.5045869,8.1058504-.868095.3216161-1.7890083.0582024-2.4226182-.6464356Z" fill="#423b30" stroke-width="0"/>
      <path d="m58.182182,61.3577131c-8.8460333-10.1656032-10.4123473-30.0034448-15.3617664-42.7011221-.020292-.0573646-.1331114-.1466887-.0706092-.1912645.3968579.4569946.5996791,1.1312993.9209256,1.6685501,5.1983686,10.5797715,7.8899817,22.2047215,13.1365607,32.7631538-.1673503-2.6117143,1.9553606-4.5917776,4.3843609-2.9889208,2.1620012,1.5713161,4.06925,3.4684374,6.38686,4.8321766-2.4166058.2687855-4.9526471-.3033324-7.1422587-1.3958219-.1549928,2.290246.6626741,4.5075049.6133549,6.7671466-.218838,1.263844-1.7939119,1.9509868-2.8674277,1.2461024Z" fill="#423b30" stroke-width="0"/>
      <path d="m66.2623564,53.3847769c-5.2916353-8.7232095-8.1957043-18.6232305-12.6730732-27.7606083-.8464231-1.8567344-1.9974353-3.5578108-3.0057754-5.3115453.0544446-.1617937.336832-.0158935.4700297-.0093636-.0450317.0751555-.267689-.0371096-.3645533.019023,6.1428141,7.0034798,10.0287956,15.6389669,14.1856572,23.8982084,1.1716245,2.3018273,2.660553,4.4203739,3.7469685,6.7686251.5163427.9799288.366808,2.4080306-.6875494,2.9648218-.5954285.317575-1.4721479.1502617-1.6717041-.569161Z" fill="#423b30" stroke-width="0"/>
    </g>
  </g>
</svg>