<?xml version="1.0" encoding="UTF-8"?>
<svg id="Layer_2" data-name="Layer 2" xmlns="http://www.w3.org/2000/svg" viewBox="0 0 116.1582751 226.974548">
  <g id="Layer_1-2" data-name="Layer 1">
    <g>
      <path d="m39.6837497,4.8574308c-.7483458.0663217-1.4590771.1629723-2.1721724.1855901-1.5463146.0490368-3.0987471.1519092-4.6398895.0690827-4.0465118-.2174555-8.0526954.0790111-12.0206216.8393561-2.9196104.5594746-5.858255.4984102-8.7983558.4380125-.7392117-.0151857-.9206271.1789853-1.0009526.9118901-.5482082,5.0016945-1.0718697,10.0089677-1.7761239,14.9900348-1.2245684,8.6610461-2.6034525,17.3001646-3.8608792,25.9567145-.8982551,6.1839348-1.7285811,12.3909886-1.4365633,18.6564025.373667,8.0172652.7837382,16.037717,1.4516639,24.0339624.2660621,3.185143,1.1846279,6.3286152,1.9542583,9.454585.5568979,2.2619346,1.9395642,4.0904142,3.6532244,5.6467046,2.235752,2.0304043,4.4927696,4.0373966,6.7434992,6.0512536.1126731.1008158.2424136.1965161.381241.251926,1.1929016.4761186,2.406388.9045053,3.5813995,1.4207346,1.6595173.7290847,3.3747376,1.1054466,5.1879843,1.0589155,2.0897572-.0536228,4.1800156-.0875874,6.2700093-.1327001.8415498-.0181642,1.5167375.3654028,1.7984392,1.0770135.3154204.7968058.2209588,1.6180922-.438107,2.1268138-.6512555.5027173-1.4439671.9566908-2.238182,1.11685-3.7939145.765016-7.4959298.2803874-11.0999567-1.073184-.2337239-.0877859-.4660106-.1793636-.8534922-.3287718.1147439.3940911.1962797.6504045.2640292.9103205,1.1580198,4.4427116,2.6452936,8.8317058,3.3835502,13.3432258.8392426,5.1286692,1.1472498,10.359251,1.4350693,15.5594236.3779315,6.8286187.5264887,13.670305.7419538,20.5073581.1048628,3.3278094.0907739,6.6596279.2173468,9.9863404.1098743,2.8875937.4668805,5.7694952.4909072,8.6557651.0358652,4.3065223-.1045602,8.6152005-.2160892,12.9217796-.0281494,1.08715-.3420285,1.4607413-1.354082,2.1164694.6642948.8855184.6069276,1.7504614-.3235712,2.5494231.7191279.5374194,1.4596256.8865774,2.2950859.8515349,1.6447003-.0689693,3.2933153-.1542022,4.926527-.348534,1.0518711-.1251356,1.964215-.0810535,2.6086058.8684983.5632616.8300139.5466481,1.9654443-.231256,2.8861187-1.9193576,2.2715793-4.4560913,3.4368894-7.3867648,3.1836491-2.7869954-.2408345-4.6578268-2.0635179-5.8956047-4.490434-.2922542-.5730103-.3195336-1.2811792-.4964576-2.0473677-.3909897.0687045-.8561304.1539752-1.3225191.2318139-3.8938982.6498466-7.3024963,2.3786547-10.3396117,4.8260328-.9001462.7253592-1.7063415,1.6787311-2.2682793,2.6876453-.9755737,1.7515582-.6208841,3.3719104.7833978,4.8051737,1.9526697,1.9929601,4.4016269,3.1204288,7.0007676,3.9743087,3.3793141,1.1102595,6.8788185,1.3070119,10.3986337,1.3514722,6.1338011.0774604,12.0178795-.9623736,17.5355243-3.7767431,2.6361216-1.3446264,4.9795069-3.0441598,6.8443528-5.3448624,1.9664844-2.4260462,1.7450244-3.6683817-1.0812875-5.0289314-3.4389601-1.6554514-6.9118943-3.2630384-10.6344094-4.2238613-.6239761-.161048-1.2517533-.3271265-1.8512299-.5594131-1.2333432-.4779057-1.549435-1.5976208-.7725711-2.682161.6425469-.8970164,1.5963538-1.1953033,2.636358-1.2411252,2.036664-.0897527,3.9994228.3416692,5.9479416.8820577,3.7235931,1.0326856,7.0559128,2.7585435,9.8324219,5.4830657,2.4246941,2.3792787,2.9230901,5.0043657,1.5530281,8.1234896-.9162586,2.0859655-2.383373,3.7398851-4.1382975,5.1379735-4.5659561,3.637443-9.6941336,5.9447077-15.5525399,6.5410734-4.6773054.476147-9.3522279.9555467-14.0616446.6046677-3.4013457-.2534483-6.7920633-.6125537-10.0550166-1.6810572-2.8278815-.9260263-5.2754676-2.4788086-7.260277-4.7045848-2.7246924-3.0555066-2.8491661-7.0493695-.3200537-10.2676639,1.6868818-2.1465382,3.9030039-3.6558436,6.2183816-5.0453085,4.1300522-2.4784303,8.5692935-3.9256501,13.3964326-4.1300427.0992461-.0041983.1974427-.0333972.2740143-.0469944-.7637395-3.0456727-.5577489-6.1294894-.4295024-9.1726091.2084963-4.9477644.7533951-9.8808158.993927-14.827975.185245-3.8098377.2875169-7.6389271.1243224-11.4465144-.1909278-4.4546162-.5652662-8.9132037-1.1178523-13.3378834-1.0229652-8.191154-2.0351889-16.3998009-4.3792644-24.3514063-1.1450751-3.8842913-2.4820329-7.7125675-3.7721004-11.5527766-.1243792-.3702346-.4761375-.734777-.8179769-.9502421-3.1705341-1.9985011-6.2122922-4.1442545-8.0098426-7.5685206-2.4687383-4.7028545-4.4367829-9.5705014-5.3258566-14.871329-1.0259154-6.1167432-1.0496206-12.2282007-.506925-18.3698217.6883215-7.7895267,1.3614195-15.5806041,2.0994114-23.3654787.4675802-4.9324841,1.0866015-9.8506098,1.5554771-14.7829851.5080219-5.3439405.9022738-10.69858,1.3801038-16.0455226.4318947-4.8327321.8776797-9.6647833,1.3937672-14.4889628.1047777-.9794458.504807-1.9394319.8518942-2.8776275.3940628-1.0651893,1.3396338-1.4947626,2.363781-1.6473195,1.7087905-.2545334,3.4278498-.512752,5.1504833-.5876311,4.4318281-.1926416,8.8684314-.2727661,13.3022357-.4240702,2.0872421-.0712292,4.1714489-.2507724,6.2588233-.2929421,1.9578798-.0395576,3.9200997-.0068293,5.8764666.0814743.9850198.0444627,2.07425.4058988,2.2542282,1.4443406.1905968,1.0996952.9523412,1.7209693,1.4008684,2.5775015.6074382,1.1600149,1.0315037,2.4909117,1.2020641,3.792047.7951416,6.0655032,1.6221109,12.1330725,2.1602961,18.2244179.6631034,7.5051491,1.0710565,15.0333178,1.5540304,22.5537945.6534209,10.1751029,1.2604147,20.3531843,1.9150647,30.5282021.2120895,3.2963411.6938153,6.5849475.7318174,9.8807874.0727421,6.3089853-.8756467,12.4988961-2.7895012,18.5275602-1.1586628,3.649792-3.4999961,6.5833684-5.773041,9.5557317-.4998711.6536667-1.0345673,1.3145386-1.6742964,1.8183622-.7134451.5619189-1.5710316.9386211-2.3524815,1.4178034-.2177817.1335511-.4827375.3080829-.566259.5252689-1.694522,4.4063074-3.5029463,8.7716626-4.3949702,13.4463299-2.2041891,11.5511125-3.5358235,23.1843375-2.8326093,34.9523239.4323486,7.2350021,1.3359083,14.4409755,1.8298129,21.6735003.236589,3.4645565.0475334,6.9611675-.0216817,10.4418174-.0221261,1.1125477-.7556455,1.7942031-1.6509032,1.8247069-.8568584.0291989-1.629647-.5528509-1.7584892-1.6339304-.3508033-2.9434764-.6878866-5.8950658-.8465045-8.8533118-.1849991-3.4501461-.1846114-6.91058-.2469712-10.3668722-.0544833-3.0194807-.0149493-6.0423275-.1410305-9.0584798-.2036172-4.8710037-.4566873-9.7413076-.7863006-14.6052952-.3302941-4.8742753-.1042954-9.7095935.9001179-14.4831098,1.126126-5.351973,2.4892097-10.6554765,3.5474255-16.0198931.7331506-3.7166054,1.7226335-7.326958,3.1914972-10.8105297.1795432-.4258147.3801536-.8539934.6424902-1.2313954.6248554-.8988886,1.5227891-1.1612063,2.5840023-.9052901.2500727.060289.6336019-.0472592.8316309-.2199282,1.2206632-1.0642674,2.3294571-2.2712294,3.6201108-3.2375461,2.0703354-1.5500874,2.7503076-3.7693772,3.1331844-6.104432.716017-4.3666506.915852-8.754113.5961104-13.1919738-.9218847-12.7953391-1.6945314-25.6013536-2.5742346-38.3998508-.4724498-6.8736936-.9823155-13.7460256-1.5876641-20.6090627-.6984296-7.9182035-1.5087191-15.8266865-2.2991329-23.7365218-.1613506-1.6145227-.4500873-3.2163135-.6992428-4.9577117Z" stroke-width="0"/>
      <path d="m83.9799333,115.5575995c1.4220868,3.4188291,2.4524274,6.9186645,2.9691579,10.5127535.6383675,4.4402058,1.1024491,8.9157189,1.4005091,13.3920452.3942992,5.9216549.5547231,11.8588927.7847972,17.0879049.0674942-1.7179719.2383382-4.1408978.2426311-6.5641262.0099662-5.618697.5789673-11.1772185,1.4496404-16.7230505.8684227-5.5316675,1.583097-11.0874847,2.3674781-16.6323901.0324895-.2297147.0811481-.4577936.1341374-.683849.2837063-1.2104417.7219363-1.5507021,1.9377204-1.5115558.603968-2.4621194,2.6105442-3.788487,4.4349863-5.1432498,1.7888512-1.3283249,2.9177004-2.9459916,3.6933446-4.9985505,2.346411-6.2091624,3.694536-12.6330996,4.1416164-19.2276351.2247411-3.3152618.0427583-6.6577273.0550695-9.9878533.0182304-4.9300445.0228637-9.8602971.0749452-14.7900107.0681372-6.4514247.3218502-12.9047689.2174981-19.3527849-.0704632-4.352226-.6286472-8.6961217-.9551117-13.0447641-.3960201-5.2749334-.7842299-10.5504767-1.1583886-15.8269986-.0528191-.7447101-.0456895-1.4989184.0027421-2.2442431.0615939-.9479255.6976921-1.6828774,1.5054475-1.8438781.8586077-.1711325,1.7429158.1756286,2.1216889,1.0550718.3827255.8886719.6289876,1.8522464.815736,2.8063605.7784997,3.9769232.678743,8.0210002.7726184,12.0410788.1488125,6.3729431.1005888,12.7503067.2251571,19.1240488.1432337,7.3289484.3700172,14.656417.5877043,21.9837154.1149236,3.869115.2532403,7.7382016.4432225,11.6042436.233062,4.7426153-.4283016,9.4262843-.834042,14.127484-.3017854,3.4964976-.6479177,6.981932-1.4562972,10.4144434-1.0162328,4.3152309-2.906278,8.1354415-6.2737442,11.0610279-1.4247911,1.2378725-3.0842138,2.2403096-4.7426721,3.1589604-.75053.4157161-1.7588391.366008-2.5992164.518215-1.8668222,11.4473087-3.9082707,23.0477038-4.0585204,34.8590726-.0893177,7.0212296-.2176683,14.043991-.1526325,21.0644452.0485073,5.2366523.375161,10.4708462.5893685,15.7056641.0187599.4582759.1227339.9130721.1961851,1.4338306.7030628-.1569443,1.3400498-.3571953,1.9916931-.435658,6.5783664-.792078,12.571884.6951012,17.8446189,4.7547185,2.4302067,1.8710583,3.6569026,4.4042556,3.3675608,7.4992299-.0957854,1.024724-.4485933,2.0824102-.919483,3.004711-1.6001927,3.1341395-4.0065335,5.5139666-7.2331488,6.9469652-7.5448437,3.3508622-15.352686,5.4787917-23.7195253,4.8717412-5.3004588-.3846166-10.2336237-1.9492563-14.7609157-4.7030719-2.8154474-1.7125822-4.7579145-4.18324-5.5970626-7.4176468-.6922645-2.6682424-.0793326-5.0567309,1.6959025-7.1561423,2.0963478-2.47913,4.796796-4.0137954,7.9079772-4.7281482,2.8090932-.6450054,5.675998-1.0367893,8.5125125-1.5664362.2384139-.0445359.6091308-.2656272.6327131-.4427119.3639656-2.7335996.7989428-5.4656295.9810769-8.2137151.2901361-4.3772125.3995376-8.7662634.5943989-13.1499058.304868-6.8585741.7297088-13.7108885.6223497-20.5849131-.1037281-6.6414542-.4335967-13.2654345-1.4069578-19.8356312-.4985379-3.3652536-1.2870417-6.6874369-1.9391387-10.0301199-.1825879-.9358885-.4562145-1.8896291.4945287-2.709658-.3208669-.1057421-.5065752-.1820584-.6995075-.2283248-5.7451375-1.3781276-9.4835475-5.038283-11.6231832-10.4032574-1.4683436-3.6817709-2.1086023-7.5950625-2.9343423-11.4558471-1.8573477-8.6841414-1.6016678-17.4320137-1.0285819-26.2132737.8448025-12.9447378,3.0518189-25.7312359,4.3619511-38.6214999.6453269-6.3495216,1.1025815-12.7032556,1.1846752-19.0844771.01129-.8767814.0531216-1.7549764.1257975-2.6287699.1271024-1.5277816.9247025-2.1974094,2.4413832-2.1144222.1660973.0090916.3782246-.0067513.4985379-.1009907,1.6620892-1.3020194,3.6842293-1.5925857,5.6569355-1.9182158,1.9567451-.3229944,3.9492135-.4302967,5.9262504-.6296754,2.9244517-.2949254,5.8546146-.5422394,8.7722772-.8934422,3.2185592-.3874249,6.4307264-.5124353,9.6475079-.0641564.4479692.0624307.9030491.2428722,1.3002984.4658498.8774055.4924957,1.3777399,1.261372,1.2893299,2.2920861-.0886937,1.0342151-.7066938,1.7334436-1.6758944,2.0136986-.887523.2566301-1.8102965.4320271-2.7296093.5298549-2.2309012.2374116-4.4653199.4991147-6.7047501.5867919-3.8419868.1504152-7.689231.162386-11.5336385.2575095-2.9436088.0728319-5.8795585.0661042-8.7524204-.5375423-.4470426,3.4588642-.9428194,6.8750505-1.3205713,10.3042477-.8139394,7.3895022-1.5404333,14.7886349-2.353446,22.1782458-.7113081,6.4654663-1.6421189,12.9102343-2.2056547,19.3876619-.7788023,8.9512815-1.289954,17.9301072-.7503787,26.9188423.2267268,3.7771402.4702278,7.578241,1.7051312,11.217802,1.191521,3.5118346,2.7167308,6.820884,5.6195102,9.2860103.7829817.6649094,1.6189716,1.279307,2.4846521,1.8322997,1.6964698,1.0836797,3.4330693,2.1043473,5.1476182,3.1599533.3067213.1888381.6803505.3605237.8619739.6435303.5219878.8132491,1.2606605.8102517,2.0867409.7641934.6117972-.0341159,1.2600743-.0191193,1.8377745.154656.3827444.1151032.895201.5174207.9424034.8491143.0601566.4226093-.1619369,1.0894098-.492751,1.3189544-.5915433.4104588-1.3364.657449-2.0518875.8177689-.9762923.2187557-1.985093.2923393-3.0360091.4357904Zm5.1365552,46.1492479l-.0722787-.0031771c-.1147344,1.8692428-.2312465,3.7383533-.3437684,5.6077285-.1938212,3.2204881-.359408,6.4429052-.5844894,9.6611807-.2484179,3.5519075-.5644246,7.0990493-.8216741,10.6503894-.0926461,1.2791746-.0158287,2.574802-.1704091,3.8441427-.151687,1.2453613-.5157849,2.4637552-.7453862,3.7016655-.0411319.2219233.0395245.5912975.1982086.7047081.8805069.6291956,1.7841801,1.2312914,2.7155393,1.782497.8929316.5285122,1.3925285,1.4069578,1.2029245,2.2988493-.1997972.9398882-1.0212632,1.5874088-2.0849443,1.6435184-1.9537382.1030473-4.5173069-1.3714047-5.1599105-3.2042245-.4532455-1.2927907-.6198345-2.6949639-.8233383-4.0618488-.0763257-.51257-.1752315-.7127454-.7255483-.6963683-2.3723383.0706713-4.6776931.4994645-6.8770882,1.3697972-2.1432666.8481498-3.9659689,2.1819211-5.4840491,3.9359378-1.0033354,1.1592585-1.1810442,2.4200324-.6516054,3.8212034.4760524,1.259923,1.1838998,2.4039012,2.279938,3.1620903,1.3495244.9335151,2.7667699,1.8107126,4.2545921,2.4952046,5.2225824,2.4027287,10.7854723,2.8523054,16.4364319,2.6016937,4.8975739-.2171577,9.625325-1.2074821,14.0563211-3.3757493,2.3507039-1.1502756,4.4399032-2.6500119,5.884362-4.8896501,1.4728067-2.2836825,1.030889-4.7891369-1.1165758-6.4666199-1.1777726-.9200503-2.5212075-1.5108183-3.9805494-1.8201682-.9588183-.2032768-1.9324631-.3375655-2.8897496-.5471776-3.1584215-.6916972-6.3399146-1.1810442-9.5800515-1.2653883-.6211394-.0161691-.9187643.0955206-.8447836.7827359.052195.4846949.0278941.9809634.0018911,1.4701402-.0682695,1.2846021-.5822012,2.037288-1.4143332,2.1106069-.7894872.0695555-1.5219948-.552208-1.7659686-1.7442207-.2209399-1.0793018-.3288474-2.1966908-.3481936-3.2997073-.0787464-4.4894507-.0753423-8.9803575-.1567363-13.4697325-.1015344-5.6005233-.2567578-11.2000822-.3887771-16.8000571Z" stroke-width="0"/>
      <path d="m103.9734922,65.8753459c-.1688395,5.137236-.2981545,10.9680886-.5773032,16.791755-.1470537,3.0678272-.6155606,6.1127057-1.6625053,9.0311436-.1561311.435242-.3081018.9000139-.5855674,1.254382-.2034281.259812-.622709.5127969-.9203529.4860565-.2442007-.0219276-.6182271-.4434211-.646159-.7172557-.140813-1.3799431-.3252354-2.7783152-.2380357-4.1539654.1892825-2.9856012.5469506-5.9602149.8130506-8.9413436.5354526-5.9990208.6659968-12.0106932.4467589-18.0271974-.2001565-5.4931832-.4356769-10.9854681-.7150147-16.4751243-.0757962-1.4893162-.3838413-2.9657633-.5512057-4.4519544-.0747939-.6641246-.1204456-1.3410474-.0804673-2.0062216.0521761-.8683139.6124402-1.4648262,1.3482006-1.5755514.7816579-.1176279,1.5222596.2937434,1.8097292,1.1349906.2058488.6023274.3387191,1.2528549.3691283,1.8883385.3998402,8.3512754.7756442,16.7036949,1.1897434,25.7619478Z" stroke-width="0"/>
      <path d="m33.0189401,90.7790074c.4746624-7.7595997.7906597-15.5235395,1.801569-23.2357098.068818-.5250703.2488907-1.0567501.4887135-1.5287083.1088814-.2142548.5079935-.4217488.7433059-.3904791.2243818.0298136.5404168.3497443.5833358.5846596.1381938.7565816.1639793,1.5332754.2418936,2.3013266.5519999,5.4412246,1.3907509,10.8728422,1.5702279,16.3262078.1452193,4.4123212-.4733481,8.8529525-.8121807,13.276507-.1417397,1.8505018-.3702252,3.7009942-.6940233,5.5276111-.1280479.722305-.5085514,1.473497-.9777674,2.0440393-.6647581.8082849-1.6053839.7416512-2.1192209-.1657664-.4432793-.7827926-.8407366-1.7136223-.8644513-2.5896756-.0809495-2.9896955.0144104-5.9840809.0373024-8.9767171.008094-1.0577146.0012954-2.1155238.0012954-3.1732952Z" stroke-width="0"/>
      <path d="m35.4577325,43.0844991c-.2130161-1.2876279-.4441114-2.5725752-.6356254-3.8633896-.5564441-3.750499-1.1131624-7.5011304-1.6278315-11.2574541-.085526-.6241652-.0935728-1.3244292.111217-1.9012548.1518383-.4276728.6521444-.8648295,1.0953196-1.0231402.5934439-.2119949,1.1245942.1976791,1.3630837.7583498.2492122.585903.4695848,1.2171552.5296847,1.8451216.4339749,4.5350409.4228362,9.0716184-.1124084,13.5994257-.0750492.634973-.2717828,1.2555639-.4121987,1.8828164-.103747-.0134932-.207494-.0269863-.311241-.0404748Z" stroke-width="0"/>
    </g>
  </g>
</svg>