<?xml version="1.0" encoding="UTF-8"?>
<svg id="Layer_2" data-name="Layer 2" xmlns="http://www.w3.org/2000/svg" viewBox="0 0 137.3414773 270.7714668">
  <g id="Layer_1-2" data-name="Layer 1">
    <g>
      <path d="m130.176782,236.6700935c-2.9528163,1.8001639-6.2439723,2.2411027-9.5276429,2.6790808-2.4919772.3323665-4.9172427-.0014845-7.2082742-1.0467161-2.1235109-.9688233-4.2026078-2.0346068-6.3200233-3.0172489-1.3130632-.6093637-2.6330709-1.225528-4.0000783-1.6916604-1.9966025-.6808062-3.9699075-.482078-5.8633044.4808707-3.4467139,1.7529256-6.1864747,4.3151944-8.5287054,7.3520107-1.5893757,2.0607565-3.0871142,4.2145782-4.8630526,6.1037654-2.6442584,2.8128996-5.9040212,4.7033619-9.7244288,5.5418546-2.6213779.5753058-5.178288.3833898-7.6874844-.5486604-.2441615-.0906847-.4914965-.1728438-.9153353-.3212949.2618721.8808428.4945736,1.5928386.6848889,2.3159762.8191447,3.1124249,1.7177023,6.2082749,2.3969751,9.3512967.3226307,1.4928515.2245332,3.0776507.3015779,4.6215751.0132984.2666822-.0410293.5387224-.0814044.805691-.0957013.633134-.2841173,1.2213101-.9855144,1.4215805-.7113174.2031057-1.2414669-.2044094-1.5654356-.7206177-.9897881-1.5771145-2.1121777-3.11766-2.8054541-4.8256646-2.2558554-5.5576915-3.1573654-11.4347614-3.8885782-17.3596877-1.4800117-11.9923208-.0810886-23.6962766,3.2481537-35.2302935,1.2476354-4.3223627,2.4810464-8.650714,3.8387035-12.9390619,3.0881366-9.7542451,4.3425014-19.704149,4.1352776-29.9513237-.20512-10.1426699-1.8025738-20.0037211-4.4346287-29.7493959-.5381493-1.9926405-.9700073-4.0138185-1.4742072-6.0159634-.0659285-.2618287-.2112349-.5852868-.4218222-.7168655-3.4230416-2.1386543-4.9072763-5.4117718-5.3017866-9.2458162-.2937752-2.855061.0885108-5.6426883,1.4418457-8.2399102.0822104-.157778.0404299-.4818387-.0736151-.6249443-1.6522905-2.0730509-1.6149475-4.3516631-.5943609-6.5969915.3842685-.8454436.8480787-1.5882014.9668819-2.5582493.1252295-1.0225101.8850328-1.7580575,1.7599872-2.256164,1.1296247-.6430937,2.3053552-1.2081011,3.4792563-1.769008.3917444-.187184.546666-.3646202.4661951-.8346052-.9743324-5.6903654-1.9229996-11.3851297-2.8808408-17.0783133-.1794584-1.0667227-.3757296-2.1306096-.5525248-3.1977516-.0802054-.4841396-.2152055-.9807248-.1711354-1.4574138.03818-.4128303.2941539-.8055106.4538554-1.2071025.3378595.2846515.833598.5023425.9874437.8650577.8723846,2.0564859,1.8265002,4.1000819,2.448342,6.2366589,1.4287938,4.9091125,2.6602484,9.8737839,3.1488361,14.9870297.01378.1442646.0517775.2862096.0891586.4864266.223467.0084997.4372751.027076.6506852.0230965,1.6469185-.0307735,3.2936856-.0682499,4.9406131-.0990804,1.8957965-.0354834,3.712522.3419537,5.4676715,1.047606,1.6574733.6663832,2.7667354,1.8299674,3.26385,3.5580638.0203661.0708254.0466492.1400298.0651919.2112934.3486765,1.3388632.8423226,2.3963824,2.2864231,3.1152536,1.2515971.6230371,2.2325061,1.8901427,3.1754904,3.0057569,1.0236942,1.2110937,1.3073364,2.7306673,1.1946159,4.3051237-.1719439,2.4016677-.2399458,4.8219926-1.2527135,7.0784016-.0806233.179656-.0647684.4386308-.0100983.637793,1.6836226,6.1342482,2.5397989,12.4238726,3.4501053,18.6978275,1.0782034,7.4311737,2.9862949,14.6421548,5.595997,21.664187,1.6700887,4.4937348,4.068853,8.6201531,6.8895655,12.4950509,1.9674341,2.7027402,3.8630617,5.4646945,5.9537453,8.0693617,4.6101406,5.7436043,8.6395816,11.8524568,12.0325643,18.3861398,3.157914,6.0810255,5.7343284,12.4089704,7.8783092,18.9067231,1.6091664,4.8768135,3.2106374,9.7669482,4.508247,14.7314638.7013012,2.6831255.7837034,5.531956,1.0835172,8.3127083.0578849.536903-.0818534,1.1401407-.284532,1.6517424-.6283646,1.5862984-2.6021226,1.9989525-3.7357722.7295932-.5352435-.5993317-.955491-1.3992283-1.1595937-2.1785222-.6839597-2.6113327-1.2470677-5.254299-1.856231-7.8852139-.0373903-.161446-.0728433-.3233122-.1153919-.5125195Zm-.4179759-3.4679007c-1.551506-7.5823183-4.0017914-14.9768197-7.2360528-22.1194611-3.2221601-7.115956-6.7868356-14.0344998-11.4800444-20.4057761-.8135602,1.1359976-1.5115973,2.1745327-2.276674,3.161083-.7677241.989925-1.5520157,1.9767518-2.4225113,2.8742988-.783834.8082228-1.1556344,1.6580649-1.0857697,2.8081216.0915563,1.5072107-.385006,3.0136147-.0547108,4.5417338.0777767.3598256-.0297698.7927811-.153518,1.157689-.7553281,2.2275502-2.2265281,3.7747669-4.4437563,4.6064744-.2796767.1049171-.6079428.269538-.7563506.5054627-1.2665946,2.0134033-3.1399034,3.1822178-5.3780066,3.7253586-2.3960587.5814541-4.5002443-.0712807-6.0842207-2.0081721-.4270518-.5222118-.7817125-.6578958-1.4163005-.4957483-.5861009.1497256-1.2178701.1789811-1.8277315.1673691-2.6007228-.0495674-4.5317321-1.510696-5.3396718-3.986432-.5043207-1.545366-.4662544-3.1119924-.0834638-4.6583985.1627205-.6574045-.0390199-.9405583-.6013017-1.1605569-2.2895801-.8958469-4.5726822-1.8082598-6.8596448-2.7108435-.0858391-.0338682-.1869043-.0291851-.2808655-.0424614l-.2801478-.0523857c-.111548.6531123-.1574479,1.3257096-.3446553,1.9563573-2.0846841,7.0223574-4.3214739,14.0025146-6.2573845,21.0652816-2.1873714,7.9801095-2.5973444,16.0920917-.9608922,24.2517148.0662503.3303663.2264214.8010467.4742566.9114872,2.770704,1.2348279,5.6405044,2.0819204,8.6323321.9399517,1.6155619-.6166401,3.184917-1.4305603,4.6460633-2.3586355,2.5572854-1.6242962,4.3463452-4.0354482,6.0698106-6.4682097,2.6412247-3.7282391,6.040808-6.5677887,10.0378754-8.7284721,3.3029582-1.7854777,6.7342011-2.0838303,10.2500594-.7623681,1.6072816.6040592,3.1563543,1.3650163,4.7239129,2.0723381,7.5119862,3.3895362,8.8875002,3.5227622,15.5480859,1.9366702.5971818-.1422146,1.1998199-.2772571,1.8076701-.3555672,1.1100619-.1430489,2.2259194-.2411619,3.4336084-.3679037Zm-54.1902475-50.4784183c.7946367.1105451,1.5268563.1041136,2.1849825.3217624,3.9365223,1.3017755,7.5832822,3.1243253,10.5836864,6.073078.1678946.165004.5076298.2433352.7554431.2221919.7313695-.0624577,1.4579143-.1878599,2.1836154-.3055047.1849797-.0299809.4236627-.0693244.5286322-.1952666.5648216-.6775801,1.1982361-1.3269265,1.6199295-2.0899471,1.9659338-3.5572155,4.0992626-6.9928004,6.8769745-9.9856489.2886995-.3110822.3282474-.5259401.0764083-.876892-3.6450366-5.0793975-6.2514561-10.6877297-8.2727081-16.5708605-3.515013-10.2308896-5.0852058-20.8450444-6.0682887-31.5676039-.0260169-.2838218-.0539931-.5674805-.0819614-.8605448-1.6414184.359158-14.6279448,6.1274755-16.0341078,7.1180252,5.9200131,15.7594776,7.9724821,32.0036242,5.6473942,48.7172111Zm9.0882045-57.6454189c-.022781-.0623695-.045542-.12474-.068323-.1871095.8638224-.3653788,1.4798699-.8859166,1.5859563-1.9199349.043267-.4216173.3216061-.9534492.6625502-1.1802942.587109-.3906271.6258894-.8882342.6152415-1.4612461-.0081817-.4419404-.0344157-.8835104-.0470831-1.325392-.0270608-.944763-.4815148-1.6018059-1.1717404-2.2606768-1.2915896-1.2329829-2.4644647-2.5950161-3.6315183-3.9508732-.3387433-.3935624-.5605383-.5112897-1.0914609-.3579921-4.7175281,1.3621388-9.4089989,2.9475437-14.4490254,2.1360956-.4079566-.0656893-.6215487.0995205-.8987666.4255451-.3622614.4260977-.8807196.8024906-1.4065808.9833249-.5400079.1856745-.7302713.4533657-.7964193.9733513-.2985644,2.3468791-.023393,4.6664139.3594872,6.9708451.1923474,1.1576169.4630637,2.3231042.8751319,3.4185305.6578014,1.7486553,2.011207,2.5058416,3.8562244,2.2540005.7473472-.102018,1.4879239-.3260203,2.2035049-.5751625,2.4838793-.8648633,4.9755655-1.6523125,7.5732467-2.1601397,1.9835592-.3877672,3.8892491-1.1739278,5.8295748-1.7828721Zm16.2356356,72.1985335c.0434903-.0459553.0869894-.091895.1304875-.1378548-.2650019-.3189458-.5066871-.6614852-.8004322-.9513188-.4465294-.4405849-.8854992-.7504-1.4633712-.07784-.220649.2568075-.6959338.3716229-1.0684465.4055932-.8409905.0766614-1.4598127-.363874-1.8921808-1.0538528-.4520884-.7214841-.9544645-1.212038-1.9195151-.8940511-.3456603.1139202-.7742273-.0197499-1.1645358-.0463678-.5126541-.0349922-1.0321975-.1426975-1.5344388-.0878302-.278043.0303725-.6327808.2692053-.7711189.5159952-.7335677,1.3087748-1.7563541,1.7987098-3.1992829,1.3482402-.6816909-.2128198-1.1434608-.029379-1.5415273.4920162-.745476.9764765-1.4808197,1.9608181-2.2359847,2.9297158-.2842771.3647199-.3181444.7056142-.1744188,1.1542621.1354145.4226837.2758053.9655861.1235712,1.3363452-.5060758,1.2325047-.5779093,2.486092-.3792503,3.7593418.2276384,1.4588729,1.0082635,2.0580168,2.471466,1.8872718.8487326-.0990476,1.6814099-.3422236,2.5185063-.5328589,1.1392718-.2593909,2.0557145.0530635,2.8345375.9439776,1.246774,1.4262157,2.5716253,1.4790708,3.95196.1788447.4258407-.4011319.7535579-.9045261,1.1460907-1.3433076.9282977-1.0376289,2.2385033-1.2953619,3.2221709-.5117573.6154927.4903202,1.0041261.3179903,1.4397277-.1404276.2532571-.266501.5150849-.5292221.7349385-.8222482.6004697-.8004113,1.1116711-1.591773.636094-2.6974762-.2527923-.5877295.0680205-1.1466427.6191081-1.5161984.6330782-.4245414.70568-2.086747.1251945-2.5763326-.608995-.5136348-1.2067103-1.0406853-1.8093497-1.5618816Zm2.1138967-17.8816596c-.6229515.8452544-1.1381281,1.5908912-1.7008253,2.2987291-1.4814156,1.8635593-2.9887085,3.7065237-4.4748191,5.5663742-.6039704.7558463-1.0637536,1.6563988-2.0825775,1.9740242-.0153641.0047774-.0061142.0885417.0001796-.043491,1.0996533.7057381,2.1149864,1.3693622,3.1461382,2.0073853.1730466.1070697.4137142.1396901.6246872.1450188,1.559117.0393304,2.843776.6898025,3.9349787,1.7595313.3104511.3043583.5713444.6592292.8473406.9820245.0867493-.0430004.1433552-.0531261.1701264-.086898,1.6466375-2.0763142,3.282276-4.1614506,4.9435427-6.2259743.2859872-.3553917.1885772-.60195-.0289544-.9069702-.997853-1.3991911-1.9800859-2.8095661-2.9825879-4.2054025-.7697168-1.0717114-1.5612798-2.1277779-2.3972292-3.2643514Zm-22.4623667-70.4881703c-.0184006-.0517751-.0367901-.103567-.0551907-.1553421.3628928-.2068507.7230387-.4186658,1.0891665-.6195866,1.0053727-.5517257,1.1013797-1.0030526.3295518-1.887423-.2515301-.2882011-.5799747-.5865942-.9307153-.6959254-.9283595-.2893366-1.8795705-.6190906-2.8371585-.6770109-1.9735342-.1193725-3.8423711.3538985-5.5770306,1.3555162-2.6744719,1.5442705-5.6316833,2.3010526-8.6195268,2.9133911-1.27433.2611547-1.4418177.3216412-1.3941611,1.6163259.009875.2681775.0393184.5408627.1031244.8008227.1677535.6833739,1.8568449,1.5485015,2.5246824,1.3952425.9432854-.2164609,1.9040377-.372965,2.865166-.4915499,1.3361147-.1648176,2.7496357-.0491615,4.0055967-.4467203,2.8722847-.9091571,5.6690506-2.0568898,8.4964952-3.1077402Zm-5.450837,77.661893c-.7477017,3.1253253-1.4703779,6.146043-2.1901178,9.1544732,1.8799382.6563407,3.7226597,1.2996694,5.6263037,1.9642853,1.172516-2.7817359,2.812171-5.1290994,5.8715439-6.1969205-3.135876-1.6317137-5.9667785-3.6891789-9.3077298-4.9218379Z" stroke-width="0"/>
      <path d="m63.7775108,46.5353586c.0557912.2555367.0758444.4472118.1393609.6231977.9655779,2.6757175.6582961,5.2657934-.4946644,7.8091625-.4665694,1.0292484-.8845603,2.0805129-1.3505314,3.1100473-.2383741.5266621-.0882602.8738473.4313752,1.0259565,2.0017026.5859393,3.9914618,1.3353146,6.1131612,1.188878.9034229-.062345,1.8309567-.3728676,2.6611172-.7572234,1.2003758-.5557752,2.3126705-1.2990636,3.4828944-1.9242479.3937686-.2103638.444541-.4484994.3220646-.8312461-.3668412-1.1464451-.7029606-2.3027471-1.0725169-3.448282-.968725-3.0027016-.3702768-5.8816385.711167-8.7084237.1770551-.4627963.5241191-.9009721.8931445-1.2416294.811788-.749398,1.6698115-.4762782,1.7918979.6149375.1079655.964901.0604332,1.9615163-.0391042,2.9317407-.127729,1.2449928-.3503848,2.4823801-.5785681,3.7144342-.3592469,1.9397412-.0320246,3.7572194.8424521,5.5067507.849025,1.6986606.6391078,2.8456167-.8755593,3.7171836-1.6150387.9293285-3.1613564,1.9932577-4.8295418,2.810981-1.8064095.8854521-3.8019136.9552042-5.6917843.3400828-1.6926533-.5509502-3.3337817-1.316967-4.9091016-2.154612-1.3724933-.7297738-1.6867196-1.8455578-1.1690841-3.334421.2736966-.7872109.6562237-1.5358775.954201-2.3154778.8842676-2.3134587,1.4493626-4.6604637.5125526-7.101177-.2366863-.6166453-.5386095-1.2134668-.8667673-1.7872497-.1344654-.2351383-.3980206-.4170364-.6382044-.5662609-.3530261-.2193556-.756427-.3585549-1.1058068-.5826787-1.7643735-1.1318188-2.0983637-2.438116-1.0921814-4.1891335-2.4509957.1752132-3.9360493-1.0702955-3.8734967-3.5189103.0815851-3.1932967.8738739-6.2460186,2.6853742-8.9205346,1.9401942-2.8645063,4.7891086-4.2442142,8.1860172-4.1693053,3.2620666.0719421,6.5208671.4207391,9.7728074.7341157.8343928.0804054,1.6750873.4042986,2.447021.7594719,1.5797524.7268594,2.586764,2.0004075,2.8041766,3.7259073.3900709,3.0961183.2859208,6.1777448-.6756457,9.1843622-.4727792,1.4782726-1.4672928,2.4063351-2.9699652,2.7920748-.3565811.0915425-.7098265.19712-1.0686219.278668-.8871022.2016113-1.5417231.6795352-2.0008813,1.4847709-.9122422,1.5998157-2.3686079,2.5069284-4.1298423,2.8081241-1.4692634.25127-2.9767652.281107-4.4680661.3995566-.2633932.0209233-.5304827-.0046436-.8508498-.0095905Zm-5.0758931-5.8018739c.6086475-.0406881,1.4120164.1146168,1.6308728.9302683.244775.9122566.881273,1.1953395,1.6175806,1.3927255,2.4469423.6559376,4.9293666.8944207,7.4497706.5029649.9741735-.1513066,1.8906996-.506344,2.5271446-1.2557884.942765-1.1101342,2.1176787-1.7091246,3.5126844-1.9837825,1.1128577-.2191007,1.8393201-.9073622,2.1656784-1.9843107.691009-2.2801995.6820716-4.5606663-.1568197-6.7990442-.3414581-.9110508-1.0017696-1.5847962-1.9770964-1.8426969-3.221147-.8517632-6.508285-1.2496564-9.8318163-1.3653852-1.6464732-.0573303-2.6462663.7570919-3.1875391,2.3028275-.7959193,2.2729725-1.6758406,4.5164817-2.5131604,6.7750488-.1191914.3214769-.1803368.6647042-.3028662.984653-.2986297.7798012-.6174989,1.5518443-.9344335,2.3425199Z" stroke-width="0"/>
      <path d="m85.3067278,62.3721296c-.086901-.6374694-.2616482-1.1756729-.2098432-1.69109.1151006-1.1447671.2556614-2.3007299.5407952-3.4123961,1.5262146-5.9505621,4.1575277-11.4493424,7.0946106-16.8006887,3.4469309-6.2802648,7.6420636-12.0812224,11.7583811-17.9281107.2773109-.3939073.6430902-.7509155,1.0339563-1.0334716.5676822-.4103797,1.2020579-.4225879,1.7851086.0079621.5848431.4318761.7430885,1.0493625.533621,1.708858-.161727.5091811-.4141206,1.0002644-.6907076,1.4606507-3.7329799,6.2137258-7.4214663,12.4551752-11.2354641,18.6189239-3.3667609,5.4409584-6.1042264,11.1614919-8.1861857,17.204384-.1920029.5572801-.3746475,1.1265047-.6503853,1.6427883-.1521575.2848815-.4748162.6354187-.7463905.6589736-.3182999.0275927-.6646252-.2680194-1.0274966-.4367834Z" stroke-width="0"/>
      <path d="m50.3501145,88.2983161c-2.4151186-4.0211458-4.7579591-8.0881859-7.271749-12.0466778-1.5772562-2.4837428-3.3676502-4.8373929-5.143781-7.1879321-1.4578548-1.9293116-3.5097614-3.1945185-5.4764401-4.5359445-1.9279639-1.3150208-3.9026197-2.564936-5.7873231-3.938717-1.0249329-.7470749-1.9261287-1.6708874-2.8426939-2.5568182-.4898591-.473486-.7221811-1.0968221-.3281682-1.7395993.4000493-.6526082,1.0629855-.6611535,1.7080515-.4696539,1.8339056.5444326,3.3984147,1.5682672,4.6961067,2.9421378,2.0557489,2.1764006,3.9902804,4.4682229,6.0668311,6.6238005,2.1938979,2.2773818,4.4904676,4.4560492,6.7486179,6.671293,3.070494,3.0121625,5.4722278,6.55009,7.9445533,10.0367461,3.4777089,4.9045137,5.7552934,10.382446,7.7394471,16.0048837.1136073.3219263.1998011.6630958.2331253,1.0017613.0659423.6702188-.1448427,1.2387542-.8278703,1.4771977-.67569.2358779-1.2310935-.0300617-1.5729368-.6219256-.5896446-1.0209075-1.1410476-2.0646287-1.6860092-3.1104874-1.4649384-2.8114233-2.9180173-5.6290262-4.3758022-8.4441747.0586792-.0352924.1173617-.0705971.1760408-.1058895Z" stroke-width="0"/>
      <path d="m118.8035455,10.4950541c.3352409-.4971777.5984967-.8706819.8441773-1.2554169.5497678-.8608846.9251676-1.0216444,1.9028703-.7940531.9108218.212017,2.014697-.4667585,2.2220924-1.3663584.1329086-.5764688-.4392041-1.3055099-1.0364345-1.2188612-.8645298.12545-1.2462666-.2781116-1.5066939-1.0347118-.3333076-.9683983-1.1642811-1.1647126-1.9600994-.5273902-1.0071631.8065841-2.111769.4410603-2.423238-.8022685-.0289542-.115569-.053884-.2321517-.1110085-.4796988-.3675082.1093229-.772937.1193873-1.0199235.3223153-1.1412824.9377038-2.1379695,2.0133925-2.8580537,3.3129269.0608383.0613085.0870956.1046458.1254172.1237603.3071175.1531079.6164738.3016695.9251517.4516231-.2607438.2622224-.505875.5430339-.7877979.7800657-.1847602.1553469-.4204073.2517874-.637281.3670522-1.4751521.7840327-2.782359.0902391-2.9740213-1.5774289-.0084147-.0730615-.0107056-.1469084-.014022-.2204816-.1773861-3.9183564,4.4619893-7.5536462,8.1789162-6.3376261,1.3276819.4343642,2.6211578,1.0360955,3.8409031,1.7206509,1.3252945.7438193,2.2723006,1.9979985,3.419855,2.9832729,1.5220835,1.3067994.3901661,4.5531787-1.7406038,5.1999556-.9687599.2940588-1.542329.7237149-1.8915695,1.6369024-.1497948.3916227-.4882998.7373445-.8066824,1.0333386-1.030898.9584258-2.3359734,1.1651506-3.3879604.583206-1.0756587-.5950332-1.8280809-2.172296-1.6074238-3.4040249.11743-.655413.4548362-1.1427912,1.1502017-1.2784328.6928273-.1351484,1.1906387.1845567,1.5560443.7414926.1848494.2817429.3375039.5846148.5971844,1.0401905Z" stroke-width="0"/>
      <path d="m72.1247444,96.9218434c-.1690156-.5876474-.2944208-.9597846-.38273-1.3405249-1.0059339-4.3368833-1.4292202-8.7228993-.977851-13.1631392.3226208-3.1737596.7083174-6.3416389,1.1134561-9.5060683.08278-.646665.3518704-1.2757884.5831643-1.8950284.1671471-.4474831.4644435-.9487845.9998951-.7596175.3351965.1184299.6968614.5662072.7764833.9259967.2163236.9774857.4110789,1.988597.396543,2.983201-.0551742,3.7801062-.1834977,7.55939-.3093768,11.3381615-.1113482,3.3422726-.1604618,6.6749115.5126213,9.980007.2513297,1.2341992-.4285647,2.1756364-1.4449067,2.0417707-.4789942-.0630615-.9180023-.4296973-1.2672984-.6047586Z" stroke-width="0"/>
      <path d="m37.5703776,46.6085586c-.8537285-.7634357-1.8122429-1.4938746-2.6157458-2.3669689-1.4301758-1.5540162-1.1202607-3.8399761.6603652-5.0642302,1.5406028-1.0592258,3.2146759-1.4122296,5.0285382-.6899853.2512719.1000494.5808298.1168652.8451184.0526338,1.8388367-.446837,4.5493582.7203591,4.6487889,3.3946719.0097568.2628239.1246793.5217939.1912189.7824399.3466791,1.3579076.1261207,2.6475267-.5796155,3.8285765-.5992977,1.0029316-1.569623,1.4649951-2.7216049,1.4845304-.4167825.0070572-.6534079.1180017-.7147609.5360388-.0069647.0474259-.0328319.092276-.0512298.1377919-.5082071,1.2565332-1.4439448,1.9323519-2.4850679,1.7949803-1.1358278-.1498611-2.3480854-1.3772121-2.4257863-2.5503632-.0290475-.4384685.1401815-.8900821.2197816-1.3401159Zm2.5185545.7298193c.1157463-.2295073.1782986-.3309968.2203681-.4403804.5232632-1.3604645.7129601-1.4386685,2.1950937-1.3265849.3314143.0250552.8866427-.2293664.987852-.4909235.1392974-.360032.017719-.875804-.1275446-1.275652-.1429872-.3935996-.5662205-.6971011-.6679207-1.091369-.1709902-.6627214-.4326646-.5740827-.9509672-.3862432-.4994906.181019-1.0760597.1945549-1.619284.1978529-.627779.0038149-1.2612507-.158088-1.8830604-.1150696-.9872038.0682927-1.2076587.4189083-.9337912,1.3615466.2496926.8594572.5518862,1.7036604.8377944,2.5754824.8605209-.2531545,1.4319572.1945884,1.94146.9913406Z" stroke-width="0"/>
      <path d="m7.0006287,52.9039155c-.3891841-.5995069-.6960361-1.15906-1.0941495-1.6436322-.1641668-.1998154-.5698932-.3910646-.788116-.325955-1.4878941.4439253-2.9166478-.1585731-4.3728106-.1933992-.1558172-.0037236-.3527714-.2422212-.4501158-.4167271-.6017402-1.0787875-.271224-2.296753.8724005-3.0721621,1.2168896-.8250818,2.5459868-.9495306,3.9413495-.5028077.5568269.1782605,1.1191693.3449579,1.6879243.4790813,1.1364862.267996,2.260034.6752612,2.7095984,1.81043.434364,1.0967909.7153565,2.293217.8267788,3.4683382.1171156,1.235189-.5273132,2.1926214-1.6392015,2.83099-.2924897.167923-.5480479.5178174-.6714979.8410791-.4178906,1.0941917-1.0481203,1.9907044-2.077513,2.5811742-1.0723306.6151001-2.1573492.6474263-3.2122528-.0039713-1.1233955-.6936924-1.7477865-1.712713-1.7220802-3.0546982.0138022-.7210894.2672309-1.356468.9935206-1.6717986.7528874-.3268765,1.3387017.1107221,1.2095571.918171-.1104961.6908172.2437028,1.1815588.7602634,1.4552368.2842499.1505948.8291242.0762721,1.1186083-.1104348.4755154-.306692.9333987-.7067988.7129939-1.4524293-.2459656-.8321341.0036976-1.2935663.7591935-1.6895313.190217-.0996946.3739088-.2118187.4355488-.2469538Z" stroke-width="0"/>
      <path d="m100.836221,66.8866532c-.9975673-.0143704-1.5037007-.5476846-1.5741321-1.5443869-.0099151-.140321-.1835808-.3481086-.3212043-.3881778-1.3826469-.4025208-2.7710947-.6244285-4.1960706-.1494779-.8456741.2818561-1.5517944.0355612-1.877096-.5686338-.3229027-.5997683-.1765302-1.3658824.4808555-1.9222038,1.6019794-1.3556773,3.4407058-1.560347,5.4029873-.9805763.4448185.1314135.8733823.3179582,1.3088162.4807688.0919404.0343707.1919088.0608589.2700389.1164622,1.1524873.8204135,1.8038258,2.0471868,2.4374417,3.2377401.5019426.9431474.3387696,2.0105967-.0638068,3.009111-.6574717,1.6308652-1.7509297,2.2839832-3.4790774,2.0039363-.421969-.0683783-.6477988.0098986-.913527.3559711-.3544833.4616737-.7913986.8776176-1.252564,1.2365797-1.4892999,1.1592314-3.527323.5212832-4.1227954-1.268663-.3543273-1.0650284-.2068201-2.0932612.3076447-3.0653962.3187338-.602257.8467491-.9127126,1.5341074-.727046.6619889.1788372.9182537.6969028.9111408,1.3524806-.0042462.392897-.0320842.7856112-.0522867,1.1782644-.032039.6228316.335152.7590227.7937439.5311646.3309923-.164475.6401991-.4655107.8402479-.7810073.3833956-.6045778.8224497-.7572425,1.4895151-.485815,1.3566963.5520392,2.1723069-.0812555,2.0760208-1.6210947Z" stroke-width="0"/>
      <path d="m95.4967992,77.6696567c-.0157456.2591799.0413593.7371973-.0910284,1.155176-.1831703.578231-.4611515,1.1408404-.7814725,1.6588833-2.1293747,3.4437584-4.2675206,6.8822756-6.4358545,10.3015458-.4566385.7200437-1.0071637,1.3937556-1.5919412,2.0159591-.7332.7801282-1.7223554.5625943-1.9543503-.4787533-.1699221-.7628617-.1979023-1.6315178-.0082855-2.3820647.2545948-1.007803.6341568-2.0469113,1.2158937-2.8976438,1.8814382-2.7514106,3.8384052-5.4544728,5.8601443-8.1045274.5599207-.7339302,1.4007344-1.2908957,2.1976714-1.7945646.6101952-.3856576,1.1895422-.1694159,1.589223.5259896Z" stroke-width="0"/>
      <path d="m61.612123,74.5899093c-.5107672-.7634746-1.0597331-1.5044605-1.5248247-2.2947996-1.1963296-2.033014-2.3312156-4.1022898-3.5349307-6.1308038-2.0455439-3.4471672-4.2327179-6.7980671-6.8628819-9.8403849-.399991-.4626446-.7603072-.9682095-1.0788543-1.4905813-.4642515-.761298-.3910517-1.5273299.1275778-2.036168.4852739-.476107,1.3175648-.6371313,1.9664382-.1104521.8797949.7140617,1.7790626,1.5112017,2.3605831,2.4619398,1.0090136,1.649694,1.7836564,3.4430555,2.651538,5.1786889,1.5156659,3.0311636,3.0888489,6.0357976,4.5141657,9.1089558.676843,1.4593619,1.0725294,3.0496304,1.5828947,4.5848344.0479426.1441538.0045634.3186672.0035914.4790936-.0684354.0298872-.1368662.0597821-.2052971.0896771Z" stroke-width="0"/>
      <path d="m79.4477062,95.4265646c-.3397091-.8256437-.7807561-1.4674216-.8446502-2.1447576-.1229018-1.3034754-.2714871-2.6810679.0112037-3.9329299,1.2108351-5.3619504,2.5728463-10.689805,3.8855835-16.0286394.1640388-.6671114.3544621-1.3281586.5501368-1.98683.0696849-.2345237.1912304-.4536753.2890821-.6798442l.2109716-.0047662c.1368429.3218663.3563626.6341387.3950551.9674018.1174984,1.0118839.3830145,2.0721437.2038199,3.0420575-1.01244,5.4797587-2.1172237,10.9429144-3.2405301,16.4014329-.2662409,1.2936686-.7209878,2.5488139-1.0989836,3.8187014-.0364206.1223489-.1438598.2235372-.3616888.5481736Z" stroke-width="0"/>
      <path d="m68.3562315,54.4639701c-.579385-1.0047451-.4868428-2.4234114.2177608-3.3381564.8490614-1.1022828,2.3780705-.9840091,2.9309433.2897221.2862523.6594871.4525868,1.4077992.4965771,2.1267726.060909.9961805-.5727206,1.8135548-1.3832509,2.0324669-.8700981.2350069-1.7292575-.1868897-2.2620303-1.1108053Z" stroke-width="0"/>
      <path d="m62.659426,38.5405132c-.4220147-1.038957-.4015376-2.0597612.1894112-2.7560225.6525945-.7689008,1.5345711-.9403715,2.4043854-.5803026.7525973.3115396,1.4136256.8482688,2.1065838,1.2985949.4928516.3203141.938292.7463866,1.4767187.0162811.234614-.3181379.5394432-.1871198.7676848.1514009,1.0942063,1.6229109.3930907,3.3690169-1.548074,3.4798748-1.242864.0709965-2.5339874-.1730678-3.7549048-.4733713-.6039007-.1485388-1.0980234-.7434843-1.6418051-1.1364554Z" stroke-width="0"/>
      <path d="m74.5708355,36.3017401c-.5854551-1.2392072-1.193968-2.4682047-1.7485475-3.7210723-.3928667-.8875884-.1843844-1.7925188.4586467-2.357294.6201548-.5446821,1.4875794-.651197,2.1915836-.2691405.7483965.4061841,1.1837108,1.2566622,1.0049187,2.1908044-.2624888,1.3713883-.5828058,2.7325008-.9152701,4.0889593-.0608154.2480839-.2972514.4531191-.4526082.6780167-.2122382-.174135-.4244563-.3482712-.6366923-.5224023.0326616-.0292934.0653231-.0585868.097969-.0878712Z" stroke-width="0"/>
    </g>
  </g>
</svg>