<?xml version="1.0" encoding="UTF-8"?>
<svg id="Layer_2" data-name="Layer 2" xmlns="http://www.w3.org/2000/svg" viewBox="0 0 249.9879187 359.6254698">
  <g id="Layer_1-2" data-name="Layer 1">
    <path d="m10.7506951,350.5242944c9.661377,7.1884766,23.2768555,10.0722656,36.4199219,7.7060547,3.7080078-.3261719,7.3007812-1.5341797,10.7753906-2.7011719,4.3554688-1.4648438,8.8530273-2.9804688,13.6074219-2.7900391,5.6342773.2568359,11.4108887,1.6230469,16.9970703,2.9433594,10.4328613,2.46875,21.2207031,5.0195312,31.451416.4130859l.8220215-.3701172-.3171387.84375c-.5107422,1.359375-.3508301,2.3925781.4387207,2.8349609.9050293.5078125,2.5754395.1650391,3.6960449-1.2714844l.2885742-.3701172.2971191.3632812c1.1530762,1.4072266,2.8212891,1.7431641,3.7058105,1.2460938.7792969-.4375.9545898-1.4628906.4812012-2.8125l-.2941895-.8378906.8059082.3740234c10.026123,4.6542969,20.4892578,2.1445312,30.6083984-.28125,7.7553711-1.8613281,15.7746582-3.7890625,23.6489258-2.5498047,1.5603027.4462891,3.0739746.9033203,4.5891113,1.3603516,7.7580566,2.3398438,15.7770996,4.7548828,24.0783691,4.4521484,15.7958984-.4707031,33.861084-8.4658203,36.2036133-24.9052734,2.6010742-10.3398438-.7268066-20.3515625-3.9450684-30.0332031-2.0822754-6.2636719-4.2353516-12.7412109-4.7043457-19.1552734-1.2182617-5.4638672.4067383-10.7617188,1.9782715-15.8837891.5957031-1.9423828,1.2116699-3.9501953,1.6564941-5.9287109,2.2724609-9.9130859,2.5263672-18.7255859.7556152-26.1914062-.6484375-3.2958984-2.6672363-6.1455078-4.6196289-8.9003906-1.197998-1.6914062-2.4367676-3.4394531-3.3618164-5.2851562-3.5078125-7.2871094-4.1008301-15.6748047-1.588623-22.4423828.8398438-2.3183594,2.4780273-4.2314453,4.0622559-6.0810547,2.3325195-2.7246094,4.5358887-5.296875,4.3779297-9.0546875l-.0339355-.8076172.6386719.4960938c1.8493652,1.4355469,3.5175781,1.0908203,4.3503418.1123047.8449707-.9941406.9714355-2.7910156-.7475586-4.3886719-.6193848-.6337891-.512207-.9970703-.0422363-1.5761719.7451172-.6787109,1.4406738-1.8798828,1.4060059-2.9443359-.0183105-.5625-.2424316-1.0175781-.6662598-1.3535156l-.0895996-.0703125-.034668-.109375c-.1223145-.3798828-.3288574-.6230469-.6315918-.7441406-.4765625-.1875-1.4638672-.1855469-3.4616699.9111328l-.503418.2753906-.0505371-.5712891c-.3359375-3.7958984-2.546875-6.6474609-4.8874512-9.6660156-2.5427246-3.2802734-5.1721191-6.671875-5.0634766-11.3183594-1.067627-9.6865234,2.5825195-15.6816406,6.1123047-21.4804688,3.4853516-5.7255859,6.7773438-11.1328125,5.8007812-19.8964844.7592773-6.3955078-1.0078125-12.5195312-2.7167969-18.4423828-1.7485352-6.0595703-3.5566406-12.3251953-2.6655273-18.7978516-.3430176-3.9785156,1.0280762-7.9853516,2.3540039-11.8613281.3525391-1.03125.703125-2.0556641,1.0183105-3.0722656,4.4450684-11.4052734,9.5493164-28.1572266,2.6896973-42.1767578-3.9821777-7.9570312-15.0290527-16.6259766-34.0908203-17.0908203-7.1196289-.4140625-13.9680176,1.5966797-20.5915527,3.5449219-3.3317871.9794922-6.7766113,1.9921875-10.2216797,2.6875-6.8344727.2978516-13.762207-1.3496094-20.4614258-2.9355469-10.3210449-2.4433594-20.9931641-4.96875-31.1208496-.3691406l-.7575684.34375.2438965-.7958984c.4387207-1.4296875.2434082-2.4951172-.5354004-2.9228516-.8364258-.4570312-2.4069824-.1494141-3.6696777,1.3271484l-.2900391.3398438-.2841797-.34375c-1.1755371-1.4238281-2.798584-1.7558594-3.6889648-1.2568359-.7788086.4375-.9562988,1.4658203-.4865723,2.8203125l.2849121.8212891-.7929688-.3564453c-10.2143555-4.5898438-20.9589844-2.0527344-31.3498535.4033203-6.2102051,1.4667969-12.6315918,2.984375-18.9155273,2.9912109-4.3857422-.5957031-8.6652832-1.8466797-12.8041992-3.0576172-6.369873-1.8632812-12.9562988-3.7802734-19.8256836-3.3164062C22.9059686,1.1883569,6.2301873,6.9969507,1.9167108,21.4373803c-4.3430176,12.0986328-.4604492,24.0214844,3.2941895,35.5527344,1.7470703,5.3652344,3.5537109,10.9140625,4.4868164,16.3720703-.0666504,1.3789062-.0388184,2.7060547-.0095215,4.1113281.072998,3.4814453.1484375,7.0810547-1.3361816,10.3740234-3.2255859,9.0556641-4.6608887,18.5478516-4.2546387,28.1865234.1083984,6.8427734,2.9650879,11.4902344,5.9892578,16.4121094,3.7514648,6.1044922,7.6308594,12.4169922,5.7819824,23.1513672-.4326172,3.7089844-2.717041,6.5048828-4.9262695,9.2089844-2.4133301,2.9541016-4.6928711,5.7431641-4.7258301,9.640625l-.0063477.7529297-.597168-.4589844c-1.8425293-1.4130859-3.4980469-1.0927734-4.3225098-.1445312-.8378906.9638672-.9782715,2.7490234.6945801,4.390625.6115723.7021484.6774902.9814453.0161133,1.6513672-1.6401367,1.4765625-1.5793457,3.3076172-.6796875,4.3613281.8334961.9755859,2.4482422,1.3349609,4.1767578-.0644531l.5800781-.4697266.0307617.7451172c.1547852,3.7617188,2.3063965,6.4003906,4.5842285,9.1943359,1.8273926,2.2412109,3.717041,4.5595703,4.4831543,7.5068359,1.7336426,5.7578125,1.175293,12.9394531-1.5361328,19.6875-1.005127,2.3759766-2.5112305,4.5410156-3.9677734,6.6337891-1.9736328,2.8369141-4.0146484,5.7705078-4.7563477,9.1894531-1.6542969,8.4707031-1.154541,18.1826172,1.4091797,27.3398438.3762207,1.4765625.8210449,2.9609375,1.2512207,4.3955078,1.4599609,4.8710938,2.9694824,9.9082031,2.0019531,15.2460938-.0078125.1464844-.0437012.3339844-.0803223.5205078-.1013184.5146484-.144043.8203125.1547852,1.1308594l.1391602.1435547-.0427246.1962891c-.9377441,4.2949219-2.3483887,8.8544922-3.842041,13.6826172-5.4711914,17.6835938-11.6723633,37.7275391,4.8432617,50.4462891Zm117.4145508,7.7509766l-.1101074.9541016-.5654297-.7763672c-.9382324-1.2871094-1.776123-1.9130859-2.560791-1.9130859h-.0131836c-.7624512.0068359-1.5490723.6025391-2.4047852,1.8222656l-.487793.6943359-.1850586-.828125c-.3120117-1.3964844.5695801-2.6123047,1.4223633-3.7890625.4824219-.6650391.9812012-1.3525391,1.255127-2.0595703l.276123-.7119141.3945312.6542969c.3271484.5419922.730957,1.0742188,1.1213379,1.5888672,1.0075684,1.3291016,2.0495605,2.703125,1.857666,4.3642578Zm118.9223633-182.9765625l.5375977-.0742188-.1206055.5283203c-.3359375,1.4707031-.9611816,2.5302734-1.9118652,3.2392578l-.1384277.0644531c-.3208008.0751953-.4355469.1972656-.4414062.7353516-.0065918.5927734.1191406.7314453.4765625.8232422l.1394043.0693359c.8903809.7060547,1.5332031,1.7900391,1.8588867,3.1347656l.1140137.4707031-.4846191-.0078125c-2.4348145-.0390625-3.7250977-1.9042969-4.8635254-3.5498047-.1584473-.2285156-.3161621-.4560547-.4758301-.6787109l-.1557617-.2158203.1533203-.21875c.142334-.2021484.2819824-.4082031.4216309-.6132812,1.1174316-1.6455078,2.2727051-3.3466797,4.890625-3.7070312ZM121.7409295,1.5330835l.1159668-.7285156.5202637.5224609c1.1357422,1.1416016,1.9934082,1.9482422,2.7424316,1.8886719.5959473-.0449219,1.2802734-.6386719,2.2189941-1.9238281l.1662598-.2285156.7529297.2753906.0075684.2539062c.0495605,1.6513672-1.7121582,3.8867188-2.8779297,5.3652344l-.4382324.5576172-.2973633-.3466797c-1.598877-1.8613281-3.1191406-4.3261719-2.9108887-5.6357422ZM2.9621209,184.2674585l-.2971191.0292969-.0947266-.2832031c-.3657227-1.0898438.5234375-1.9853516,1.3081055-2.7763672.973877-.9814453,1.3461914-1.4697266.8217773-2.0322266-.4938965-.3320312-2.295166-1.7246094-2.1748047-3.5263672l.0263672-.390625.3891602.0429688c2.4211426.2685547,3.5427246,1.8984375,4.6271973,3.4755859.1645508.2382812.3286133.4765625.4970703.7099609l.1311035.1816406-.0974121.2011719c-1.2841797,2.6552734-3.0605469,4.1660156-5.1367188,4.3681641Zm4.1977539,116.2001953c1.5593262-5.1835938,3.0322266-10.0791016,3.9746094-14.6630859,1.2019043-5.734375-.5551758-11.3066406-2.2546387-16.6953125-.7385254-2.3417969-1.5024414-4.7636719-2.0178223-7.1757812-1.7834473-9.0908203-1.9858398-17.4091797-.6025391-24.7304688.9614258-3.1533203,2.8261719-5.8056641,4.6293945-8.3701172,1.3200684-1.8779297,2.6853027-3.8203125,3.6665039-5.9140625,5.512207-12.2460938,3.3813477-24.8632812-5.5632324-32.9228516l-.097168-.1386719c-2.3039551-5.7617188-.5957031-7.2519531.6513672-8.3398438.9038086-.7890625,1.4541016-1.2685547.1911621-3.3300781-1.0546875-.59375-1.7336426-1.390625-1.9660645-2.3085938l-.0134277-.0527344.0021973-.0537109c.2026367-5.0654297,2.4204102-7.8134766,4.7685547-10.7246094,2.9880371-3.703125,6.0778809-7.5332031,4.9116211-16.7949219-.0776367-7.015625-3.0200195-11.6787109-6.1352539-16.6142578-1.8935547-3-3.8515625-6.1025391-5.1008301-9.7626953-1.722168-9.0507812-.9260254-19.4052734,2.3527832-30.8261719.2397461-.7890625.4924316-1.5761719.7463379-2.3662109,1.4387207-4.4794922,2.9265137-9.1123047,1.920166-13.7871094-.796875-5.8613281-2.7744141-12.1025391-4.6867676-18.1376953C1.6552362,41.353396-3.3921271,25.4237085,8.8412713,12.0438257,19.3810662,2.634646,33.5448846,1.2830835,43.5754022,1.8114038c4.0458984.6074219,8.0300293,1.8447266,11.8830566,3.0410156,7.043457,2.1884766,14.3269043,4.4501953,21.842041,2.7988281,3.5332031-.6220703,7.1120605-1.5195312,10.5727539-2.3876953,9.4299316-2.3652344,19.1804199-4.8095703,29.1049805-2.0625,2.2929688.5097656,4.0275879,2.0761719,5.7050781,3.5908203.4599609.4150391.9172363.828125,1.3833008,1.2158203,1.5097656.5683594,2.9311523-.7070312,4.5761719-2.1806641,1.6755371-1.5019531,3.5698242-3.2001953,5.8828125-2.9101562,9.144043-2.03125,18.1662598.1035156,26.8918457,2.1708984,10.9692383,2.5986328,21.3305664,5.0517578,32.1166992.09375,14.2272949-6.0136719,32.8562012-4.0791016,44.3061523,4.5976562,5.7854004,4.3837891,12.322998,12.4375,10.6206055,25.9140625-.3256836,7.4775391-2.7695312,14.5644531-5.1330566,21.4189453-2.237793,6.4892578-4.5515137,13.1992188-5.0422363,20.1972656.1176758,4.59375,1.5075684,9.1015625,2.8518066,13.4609375,1.3283691,4.3085938,2.7021484,8.7636719,2.8823242,13.3935547,2.510498,14.4257812-1.4399414,20.8007812-5.2600098,26.9667969-2.9892578,4.8242188-6.0800781,9.8134766-6.2412109,18.7666016-.8144531,6.3369141,1.6262207,12.7714844,6.692627,17.6962891,1.7409668,1.5517578,3.3215332,5.0341797,2.8813477,7.7275391-.2399902,1.46875-1.0449219,2.546875-2.3300781,3.1240234-.2268066.2763672-.3344727.9082031-.2624512,1.5761719.0715332.6640625.3066406,1.2275391.5849609,1.4023438,1.2805176.8242188,1.9958496,1.9443359,2.130127,3.3310547.4216309,4.3574219-5.0749512,9.7734375-5.703125,10.3769531-3.2717285,4.0136719-4.6430664,9.5-4.0449219,16.2734375,1.4052734,10.1376953,4.4914551,14.7460938,7.2145996,18.8125,4.9262695,7.3564453,8.817627,13.1669922-.7995605,46.9042969-1.2553711,9.1513672,1.8154297,18.2109375,4.7849121,26.9716797,3.6315918,10.7138672,7.3867188,21.7929688,3.329834,33.3076172-4.6538086,15.5107422-23.3310547,21.4111328-39.7751465,20.3818359-4.6359863-.3496094-9.1796875-1.7890625-13.5734863-3.1816406-6.4968262-2.0595703-13.2145996-4.1865234-20.1594238-2.7001953-4.1645508.5654297-8.3391113,1.6416016-12.3764648,2.6816406-8.0302734,2.0693359-16.3347168,4.2109375-24.888916,2.4736328-5.1733398-.3857422-7.1962891-2.5019531-8.6733398-4.0478516-1.793457-1.8759766-2.5354004-2.6542969-8.0168457,2.3115234l-.104248.0664062c-10.1289062,4.3300781-20.4909668,1.7216797-30.5114746-.8007812-6.9655762-1.7539062-14.1669922-3.5703125-21.2246094-3.0273438-3.6428223.6191406-7.2619629,1.7626953-10.762207,2.8691406-3.5651855,1.1269531-7.251709,2.2919922-11.0297852,2.921875-2.5151367.2949219-5.4545898.5546875-8.5891113.5546875-5.6083984,0-11.8442383-.8330078-17.4111328-3.7949219-25.9147949-9.8554688-18.9157715-33.1181641-12.7407227-53.6416016Z" stroke-width="0"/>
  </g>
</svg>