<?xml version="1.0" encoding="UTF-8"?>
<svg id="Layer_2" data-name="Layer 2" xmlns="http://www.w3.org/2000/svg" viewBox="0 0 427.7726258 637.5907362">
  <g id="Layer_1-2" data-name="Layer 1">
    <path d="m21.2370306,14.1794646c.7941391.2617829,1.6184727.0933613,2.4272004-.1287425,3.0696179-.8430367,6.1527631-1.6390716,9.195222-2.5828842,3.0661545-.9511645,6.1941076-1.4597579,9.3580277-1.7307117,4.7180357-.4040438,9.4477039-.5457455,14.1818089-.528306,3.0007196.0110541,5.9781357.3118139,8.9521461.7007802,2.4358823.3185862,4.8827719.5481047,7.3131204.906735,4.0884436.6032992,8.1589585,1.2774617,12.1417608,2.5200166,5.8919258,1.8381679,10.9151926,5.1418384,15.2131858,9.7556292,1.4762365,1.5847121,2.9613797,3.1641716,4.3653641,4.8201164,2.5341635,2.9889529,5.3110356,5.7073169,8.0986461,8.4155378.7067582.6866356,1.4663316,1.3129934,2.2154626,1.94856,1.3113741,1.1125803,2.6626311,2.1738784,3.9459578,3.3215713,5.3723845,4.8045601,11.5755195,7.5406731,18.4770215,8.7026844,5.2431491.8827859,10.5155742,1.0762822,15.7653705.5953911,8.9496123-.8197957,17.600114-2.9765644,25.580329-7.6033013,4.0725497-2.3611848,7.858263-5.1312602,11.1320365-8.6519366.4186824-.4502368.8179498-.9209292,1.3035862-1.4695463-.3773077-.22679-.6594274-.4395769-.9709438-.5767516-2.397579-1.0557798-4.5926284-2.4673053-6.5959417-4.2191748-1.6433145-1.4370497-2.9342646-3.1727965-3.8981005-5.191757-.5223383-1.0941363-.8222057-2.2559403-.9849182-3.4601796-.1502957-1.1122649.1150636-2.1561848.5863308-3.1348313.4035014-.8378571,1.081203-1.3826756,1.9313136-1.5858712.6945279-.1660012,1.4219185-.2853977,2.1295652-.2602676,2.6417902.0938138,5.2367872.5369586,7.7751408,1.3431863,2.5433774.807816,4.6666684,2.3621688,6.4024067,4.4230537,2.0666916,2.4538249,2.742704,5.3224324,1.5661594,8.5128991-.2385733.6469273-.4916693,1.2877932-.7189446,1.8815318.1289941.4365579.4285105.4797553.7225205.5475134,2.7464114.6329155,5.4856712.3648201,8.214313-.112538,3.2665779-.571461,6.4064652-1.6097517,9.3799984-3.1610621,2.5248838-1.3172591,5.0412778-2.6584775,7.5130941-4.0840906,3.4733195-2.0032436,6.9022369-4.0937462,10.3495601-6.1480792,5.3539787-3.1905601,10.9940918-5.6366507,16.9306939-7.280826,4.6008989-1.2742427,9.2830335-1.966855,14.0433322-1.6811186,2.6868065.1612756,5.3664613.5013043,8.0413995.8333841,5.6804128.705189,11.0977039,2.5638024,16.5128671,4.4025163,1.4201855.4822224,2.8027257,1.115208,4.1593794,1.7789996,2.4633923,1.2053167,4.7918234,2.6360394,6.4563517,5.0860599.4983165-.0434514.9692765-.0668764,1.4358929-.1279338,4.6088404-.6030992,9.2041014-.5297731,13.7667628.4115854,4.6395752.9572215,9.2699366,1.9659762,13.8987623,2.9809119,2.9972479.657193,6.032492,1.0182759,9.0730012,1.2826866,3.9985975.3477222,8.0049828.6024043,12.0222274.5884013,3.785823-.0131943,7.5375547-.3829604,11.2314146-1.2573579,1.8663339-.4417959,3.7280609-.957058,5.5374443-1.610178,5.0978991-1.8401446,10.2158055-3.6247618,15.1868166-5.8445792,2.4578201-1.0975524,4.7363208-2.4518162,6.4264505-4.5966432,1.0438869-.3596522,2.1026476-.3618566,2.9947251-1.0574835.2879113-1.2691434.5623528-2.5714564.8811086-3.8613474.4305946-1.74243,1.1368153-3.3563424,2.1320003-4.8164536.8617595-1.2643726,1.9278035-2.2665579,3.3410786-2.7835032.3374468-.1234388.6834054-.2674311,1.0334006-.2974357,1.9183703-.1644844,3.8287991-.1746305,5.6902628.4765713,1.047002.3662785,1.9690465.9220709,2.6558743,1.8666616.9135765,1.2565054,1.1702484,2.6112348.6268937,4.1294589-.3289349.9191949-.8783883,1.6516396-1.5050188,2.3487789-2.3106615,2.5707367-5.059508,4.4665839-8.0628766,5.9736779-.4327883.2171928-.8803627.4008846-1.3188549.6056073-.0515538.0240761-.0886286.0833758-.2239846.2161621-.7038076,1.9174328-1.07381,4.0472116-1.4567996,6.1679801-.1721237.9530054-.4075599,1.8492629-.9198507,2.6653885-.2285477.3640902-.4065508.7861896-.5170733,1.2087795-1.1557256,4.4179354-2.3429539,8.8276313-3.4176853,13.2680778-.7024035,2.9019479-1.0131301,5.8871547-1.3324563,8.8641104-.4554281,4.2457765-.7873905,8.5042304-.8502202,12.7745618-.0354953,2.4162276.0707274,4.8493837.3094103,7.2528171.64089,6.453185,2.4801527,12.5722013,4.7477723,18.566691,2.7608684,7.2980729,6.1257276,14.2548177,10.2416921,20.7911099,2.2728408,3.6093573,4.1581289,7.4515221,6.0651793,11.280735,1.3045076,2.6192538,2.0139751,5.459029,2.4392607,8.3638791.6830983,4.6658204,1.0830239,9.3697257,1.0584536,14.0923757-.0232979,4.4713781-.5969267,8.8889281-1.47571,13.265777-.7905056,3.9370443-1.8734417,7.7727974-3.2584609,11.5155864-.0866981.2344192-.1486942.4791976-.2428072.786575.13325.3197103.2650083.6702997.4220827,1.007505,1.9363154,4.1551364,3.0546152,8.5603885,3.605692,13.1491163.3647374,3.0375576.6961732,6.0720903.6247,9.144416-.0475611,2.0447913-.2446061,4.0651971-.5913107,6.0763998-.9721065,5.6390011-2.8387475,10.9137835-5.5779853,15.8486394-.8828198,1.5904114-1.6804332,3.2341488-2.5335493,4.8435735-1.2060948,2.2754266-2.4124966,4.5509232-3.6449167,6.8102562-5.5040989,10.0903031-10.9017557,20.2326709-15.0568573,31.0707283-2.0435472,5.3303974-3.5529975,10.8195346-4.8579877,16.3874111-1.1472138,4.8947038-1.8690981,9.8574956-2.2885921,14.8851522-.4104118,4.9191361-.2468438,9.7965083.3618855,14.6834339.4172564,3.3498868.8127067,6.6993532,1.5368286,9.9928075,1.1061463,5.031604,2.4997651,9.9702439,4.2408343,14.7967194.7106521,1.9699528,1.5689894,3.8603489,2.6011615,5.6596728,3.3483181,5.8369821,7.1541703,11.3169163,11.3625367,16.4824074.1566796.192305.2644818.4297841.3539001.5779896.7729993-.0901846,1.096713-.5897152,1.5008068-.9266986,1.3250852-1.1051291,2.6772417-2.1304679,4.3366585-2.6297415,3.4746357-1.0453331,6.7627566-.5822874,9.8626952,1.3379366,1.4378892.8906575,2.0134047,2.2538439,1.7649375,4.0474218-.3349898,2.4187035-1.4807556,4.1211624-3.6348692,5.0303427-1.2370709.5221877-2.4978784.8695654-3.8463493.7897283-.6552812-.0388207-1.3142918-.0067037-2.00871-.0067037-2.0739091,1.8014027-4.390406,1.0140569-6.6548227.591724-.5487514.2214322-.6341771.774499-.8065641,1.222292-1.2548405,3.2589782-2.1248925,6.6314287-2.4964305,10.136248-.1676923,1.5823763-.2722916,3.1724841-.3985654,4.7596955-.3103317,3.9023229.4682398,7.5942151,1.8490469,11.1872103,1.2061825,3.1387787,2.6872892,6.0949927,4.4752613,8.9152173,2.2762192,3.5902856,4.4035687,7.2912407,6.5044174,11.0026601,1.731636,3.0591285,3.2143222,6.2675603,4.439415,9.5961916,1.7123307,4.6524597,2.8037787,9.4677235,3.2488083,14.4513505.4765761,5.3374048.6367219,10.6879366.7080635,16.0445882.060636,4.5566459-.5004005,9.0123392-1.6696398,13.4045459-.8990976,3.3774958-1.7971422,6.7406966-3.2848301,9.8932565-1.8632626,3.9483612-4.1566372,7.6028342-6.7255501,11.0572707-1.4560537,1.9579469-3.2918064,3.5215202-5.0939503,5.1070031-.4070334.3580756-.8042387.7289045-1.1639304,1.0556339.6392666,1.8979173,1.2486102,3.6889024,1.8458879,5.4844657.92573,2.782712,1.3563246,5.6803444,1.6620933,8.5948413.5254974,5.0088068.8088895,10.0356925.8143739,15.0781813.000702.637482.0062303,1.2776734.0582228,1.9120254.2254325,2.7507117-.0774403,5.4742349-.3378417,8.2012618-.1694473,1.7739339-.2743538,3.5565102-.4946529,5.3230163-.4409492,3.5355816-.8965528,7.0704625-1.4303426,10.5911418-.4575341,3.0176917-1.0609106,6.0100636-1.5449017,9.0236444-.2718529,1.6928822-.5016729,3.4001529-.631018,5.1111608-.5820529,7.702105-.4334026,15.4226159-.3993552,23.1371939.0177696,4.0304873.7722534,7.9752982,1.5285361,11.9151571.9161652,4.772519,2.4402699,9.320429,4.2492584,13.7754216,1.2880543,3.1721337,2.8837638,6.159507,4.7480356,8.9838893.3689056.5588595.6590984,1.2453929,1.5546859,1.4066086.545022-.2194235,1.21272-.4815451,1.8758549-.7562799,3.3219927-1.3762435,6.6755759-1.2569317,10.0398646-.2185826,1.4166974.4372586,2.6165618,1.2263796,3.4675279,2.561233.8328455,1.3065437.8400411,2.611172.0899449,3.9466794-.5353694.9532331-1.2734437,1.7020385-2.1681537,2.2447344-2.1413897,1.2986955-4.3825523,1.8709623-6.8908731,1.3856333-2.7419142-.5305031-5.2628273-1.6288818-7.8170419-2.9660242-.6443123.2133504-1.3302625.4184322-2.0019093.6671931-1.7521697.6491142-3.5062261,1.1774216-5.3820371,1.3886231-1.8291274.2059226-3.6120101.862231-5.4200334,1.2981349-4.1026702.9891575-7.9842516,2.678209-11.8860158,4.2896191-3.6964705,1.5265745-7.4691528,2.7187582-11.3891691,3.3676855-.3548215.0587216-.7083706.144585-1.0653859.1678494-4.8069604.3134621-9.5892189.1355689-14.2626222-1.1997984-2.6010079-.7432462-5.1884802-1.5301716-7.8425556-2.0256379-1.7676139-.3299527-3.5450999-.6004364-5.3188125-.8930166-5.6420875-.9306227-11.105075-2.5523103-16.3699864-4.8979972-1.764411-.7861312-3.4554402-1.7571163-5.2062279-2.5803397-1.5846529-.7451616-3.199909-1.4179605-4.811677-2.0956647-.9451011-.3973634-1.910363-.7402564-2.8654677-1.1108985-2.9776355-1.1556521-5.9610627-2.2947201-8.9303619-3.4742906-3.4239595-1.3601266-6.955787-2.3457336-10.4590954-3.4238377-2.7622286-.8499448-5.6064825-1.2883246-8.46357-1.6618163-4.0833869-.5337265-8.1271762-.1037555-12.1807058.3218709-3.5292608.3706888-6.9805109,1.0898764-10.3156663,2.4056231-1.6334645.6443959-3.2032216,1.4114204-4.6854691,2.3902537-1.526123,1.0077503-3.0814012,1.9655616-4.605813,2.9761615-.5981991.396616-1.2528661.7443207-1.6097936,1.3550813.5118521,1.5107846,1.0350679,2.9310809,1.4737356,4.380341.5867696,1.9385599.4816438,3.8818848-.0463545,5.8323105-1.0593311,3.9131376-3.3091153,6.9192439-6.3577634,9.230221-2.1534554,1.6323854-4.6251841,2.3462475-7.307252,2.0053633-1.6256327-.2067168-2.5780391-1.1545309-2.9638586-2.8508234-.3889567-1.7101203-.438207-3.3737118.0462668-5.0864949,1.162285-4.1092032,3.0415841-7.7442892,5.9582985-10.7445093.8599825-.8847012,1.6732815-1.8207897,2.5866606-2.8192903-.2129719-.2368484-.4083497-.5498901-.6799612-.7385279-.8512294-.5912802-1.709435-1.1788231-2.6037501-1.6910136-4.3499967-2.4913464-8.9703764-4.1979163-13.7808029-5.3598283-3.5608073-.8600354-7.1316402-1.6478483-10.7498367-2.1925063-3.5231182-.5304096-7.0392163-.591467-10.5577934-.0024759-7.0136369,1.1738245-13.8048029,3.1359758-20.1741494,6.5514047-4.2751231,2.2924311-8.553822,4.5794898-12.7877239,6.9561025-3.0254489,1.6982545-6.1383747,3.1543818-9.3484409,4.3996345-6.499953,2.5212911-12.8270803,1.8732047-19.0084311-1.1710215-2.0670206-1.0178876-4.014634-2.2776689-5.7700724-3.8460072-.1337765-.1195921-.299999-.1980277-.4972305-.3253746-2.9227911,1.0524105-5.854478,2.1464913-8.809397,3.1641921-6.9556444,2.3954858-14.0326595,4.2948046-21.2622409,5.4557355-3.608138.5794144-7.258243.8982021-10.9183078.8498981-5.8092423-.0767071-11.4350081-1.1438797-16.7370163-3.7610314-1.4612968-.7213366-2.9072976-1.5219029-4.2474869-2.4674279-2.2948499-1.6191182-4.5282959-3.3416649-6.5701649-5.3249784-2.0098672-1.9520607-4.2679988-3.4804571-6.8030837-4.5566459-1.4606716-.6201037-2.9470817-1.0439549-4.52387-1.1006678-2.7575723-.0990839-5.5005834.07624-8.2524957.2882356-4.3810002.3375207-8.6448692,1.3007042-12.8949283,2.3833397-1.1015339.280621-2.1803566.6623347-3.3540548,1.0235869-.3097942.5943167-.6330199,1.1966684-.9408726,1.8078028-2.1240972,4.217023-4.4245302,8.3226758-6.9377487,12.2888824-.6323069.9978933-1.3935722,1.9060925-2.1257892,2.8283532-.5908088.7441338-1.3318091,1.2759916-2.2701534,1.5525017-.4875066.0507799-1.0246557.0888065-1.5569455.1651866-3.0000038.4303914-5.9936786-1.5672638-6.7746002-4.6369501-.2992614-1.1763471-.1117483-2.4054363.196524-3.5801016.8794935-3.3511949,2.7508484-5.8929942,5.5630704-7.6566973,2.7384425-1.7175014,5.5924231-3.1837192,8.5363869-4.4545254.440749-.1902729.8831625-.3761545,1.3908793-.5922145.9777582-2.0947304,1.9732641-4.1978229,2.9443943-6.3135286,3.0229206-6.5856473,5.8484232-13.2672486,8.6765912-19.9502046,2.7065615-6.3955145,5.2383173-12.8596544,7.5970335-19.4055934,1.6576618-4.6003717,2.7469544-9.3501869,3.5039446-14.2065604.4119968-2.6430788.6973579-5.297603.9410975-7.9576864.1275462-1.3920334.0919193-2.803407.0904659-4.2059981-.0039653-3.826807.0644587-7.6572579-.0688298-11.4794401-.1732152-4.9672766-.2299298-9.94427-.7078002-14.8951026-.2079591-2.1545264-.4956236-4.3001302-.7252682-6.4524609-.2228603-2.0886106-.4163679-4.1807249-.6252539-6.271064-.3418179-3.4207078-.6127823-6.8516463-1.0464646-10.2591335-.5864021-4.6073791-1.2688203-9.2018179-1.964467-13.7924261-.762365-5.0308099-1.5431741-10.0593306-2.393334-15.0739769-1.6118832-9.5077121-3.9973744-18.7587683-8.1773698-27.4046231-1.0734864-2.2204422-2.2416124-4.3621218-3.8053586-6.2355601-.2311912-.2769305-.5030386-.5153205-.7883338-.8042102-.5529415.4970079-1.052215.9501966-1.5558843,1.3977794-2.6864363,2.3875442-5.5954039,4.352732-8.9385419,5.5627611-1.9244141.6965306-3.8051749,1.5103641-5.8001327,1.993264-2.0841979.5044357-4.1668876.4444061-6.2501559.1737823-.7568613-.0983365-1.5240471-.3832086-2.2136993-.7417513-2.4750851-1.2868764-3.4261162-4.1739511-2.1745157-6.7776487.8742394-1.8185941,1.9952183-3.4538759,3.5400514-4.7590648,4.2986979-3.6318159,9.1741316-5.7066454,14.6165936-6.2427543,2.175736-.2143315,4.2931449.2352134,6.3166904,1.1271555.4905587.2162468.9692244.4630924,1.5478907.7413309.2606975-.3944671.5224233-.7247001.7170991-1.094875,3.2930678-6.2614406,5.6866047-12.9114621,7.5488417-19.7934268.895966-3.3110661,1.5427518-6.6818816,2.1180259-10.0653103.6497748-3.8214815,1.3048531-7.6494564,1.7406305-11.5024476.3930865-3.475552.5336527-6.9878458.5306911-10.4952111-.0024241-2.8694629.0175557-5.7443916-.1337217-8.6072209-.322732-6.1076993-.7717214-12.2036731-1.9392167-18.2155352-.8721361-4.490987-1.6936233-8.99405-2.4700778-13.5049145-.6794786-3.9474035-1.2942901-7.9083079-1.8770066-11.8733466-.2308896-1.5710011-.3158216-3.1677191-.4362435-4.755421-.3087412-4.070873-.3993442-8.1498746-.3164523-12.2319127.0244277-1.2029283.1419483-2.4036844.2124783-3.535932-.1147126-.1742261-.1607435-.3123176-.2521363-.3730947-3.9169506-2.6052859-7.0655636-6.0908583-9.9009766-9.9093734-5.2874031-7.1206584-8.7275307-15.1686929-10.6186406-24.0124586-1.5670671-7.3284264-2.1086146-14.7315277-1.7674165-22.2222676.1246532-2.7367204.1892599-5.4801912.4232948-8.2067276.2992915-3.4868572.7216786-6.9624558,1.1304232-10.4376575.2749379-2.3375584.5471691-4.6798818.9456742-6.9956707.8085933-4.6988717,1.6472167-9.3935857,3.0821443-13.9391133,2.0207484-6.4012839,3.9820235-12.8241505,6.0398494-19.2118168,1.3680147-4.2464539,2.2124845-8.6130954,2.6154813-13.0536295.3887675-4.2837446-.0634002-8.5314248-1.323034-12.6487682-.5674533-1.8547987-1.0596821-2.7716637-2.1038679-4.0417458-.2241711.1791195-.4790661.3361426-.6801998.5503923-3.9614897,4.219896-8.8639151,6.4068781-14.2760865,7.4733967-1.4114323.2781334-2.837881.4757523-4.2618905.6740837-1.4988091.2087373-3.0190486.1885327-4.4617408-.2537595-2.911921-.892748-5.1799546-2.6028567-6.0132225-5.9361244-.2847934-1.1392315-.3138075-2.2574294-.0122927-3.3932974.6925473-2.6089881,2.0549117-4.7334997,4.0952189-6.343485,1.8926181-1.4934297,3.9520386-2.6150261,6.2788601-3.169868,2.462257-.5871458,4.945891-.9654376,7.4642181-1.0486966,3.3042862-.1092563,6.4180347.6503988,9.2892638,2.4400058.5137415.3202008,1.0442105.6099781,1.6771234.9778406.412282-.8423769.8295631-1.6090159,1.1729578-2.4114859,1.4956953-3.495266,2.5217193-7.1543404,3.2625057-10.9054798.6908533-3.4982908.9934986-7.038544,1.2065664-10.6095361.255767-4.2867344-.011287-8.5466891-.2347972-12.8040044-.2804333-5.3415391-.900115-10.6546284-1.5662225-15.9643891-1.0147672-8.0890333-2.2977813-16.1265042-3.7540187-24.1320741-.8756105-4.8136054-2.0173343-9.571625-2.9750496-14.3691952-1.3589325-6.8074416-3.3842713-13.4091766-5.3555884-20.0283979-1.0127078-3.4004332-2.0596687-6.7893626-3.1042165-10.1789286-.2030615-.658939-.4665369-1.2967743-.684187-1.8949888-1.0534901-.4995948-2.0836577-.4704355-3.0828326-.623295-1.0643754-.1628362-2.1479463-.2705976-3.1798086-.5710786-3.2696753-.952147-5.6905439-3.1764579-7.6089526-6.0594567-.6264344-.9414097-.9754013-2.0171313-.9865621-3.2221458-.0237929-2.5688754.9671719-4.4058813,3.2186645-5.4315485,1.1641292-.5303206,2.3397524-.9836333,3.6321928-.9428929,1.0763616.0339316,2.1536268.0468456,3.2289972.1020474,1.4611625.0750078,2.6568011.7402929,3.5367882,1.9800653.5034472.7092825,1.0066695,1.4372439,1.3861188,2.2244831,1.36482,2.8315911,2.6769428,5.6919766,4.1057991,8.748603Zm1.3608931,4.0433371c.1487326.5091248.26282.9307425.3946468,1.3459746,1.0346237,3.2588526,2.0863972,6.5116088,3.1067092,9.7755213,2.0031817,6.4080402,4.0139182,12.8106935,5.4143899,19.4138533,1.0142928,4.7823584,2.243403,9.5127691,3.0772934,14.3396592.9094056,5.2640086,1.8946775,10.5147208,2.708832,15.7953602.7463613,4.840899,1.3540211,9.7078362,1.9354818,14.5751178.3547941,2.9699016.5935757,5.958361.7976409,8.9452205.3605089,5.2767561.6671495,10.5472991.3546186,15.8553664-.2635988,4.4769957-.8626535,8.8717017-1.9223355,13.1986583-1.138137,4.6473443-2.7013814,9.114845-5.1716375,13.1749851-.0895939.1472595-.1026962.3472726-.1598962.5530784.3127147.4037635.6109367.7984875.9187237,1.1845691,1.533771,1.9239145,2.6319127,4.1044382,3.3112926,6.5140439,1.2175847,4.3185361,1.7417712,8.7436424,1.3571747,13.2307053-.3920938,4.5746431-1.1687676,9.0875047-2.5360502,13.4669931-1.6987705,5.4412887-3.3445228,10.9014389-5.0638819,16.3352648-1.7821011,5.6321105-3.0474196,11.3939271-3.9426753,17.2514641-.3171077,2.0748061-.5699872,4.1618518-.8081409,6.2489675-.3247997,2.8464321-.6472492,5.6943591-.8955656,8.5490599-.198663,2.2838587-.2762953,4.5794198-.4232125,6.8686508-.4383523,6.8302272-.2998263,13.6246701.8263931,20.3913873,1.0840056,6.5130979,2.8857382,12.7488682,5.7917991,18.6125016,2.482352,5.00869,5.6606386,9.4514898,9.4715749,13.3889662.3291324.34002.7224163.6096628,1.1620656.9753763.1745369-.7663471.3120099-1.3837413.4559601-1.9993837.3901852-1.6687302.7498275-3.3466167,1.1823636-5.0028739.7482919-2.8653987,2.0403827-5.4278463,3.8492067-7.7053517,1.0598137-1.3344329,2.3973925-2.1426606,3.9840088-2.3713805,1.6614516-.2394645,3.3503089-.2564924,5.0080859.0991306,4.7537613,1.0197329,7.8438993,4.117869,9.6117326,8.8284663,1.1450803,3.0512336.8222441,5.9936664-.6476688,8.8277422-.3468526.6687814-.7525917,1.3031334-1.1361133,1.950052-2.1610733,3.64527-5.4225068,5.4393617-9.2694869,6.2607866-2.103728.4491945-4.1701892.145239-6.2337162-.2938415-.6975443-.1484157-1.3943044-.3009657-2.1625048-.4669931-.0650674.3768319-.1551549.6786385-.1641165.9831545-.1465992,4.9779511-.0018483,9.9487313.4820551,14.9008486.4834646,4.9476793,1.3964817,9.8270837,2.2429725,14.7138925.661868,3.8209909,1.439721,7.6190211,2.1233349,11.4359478.437121,2.4406132.8657577,4.8870891,1.1766049,7.3483506.6868387,5.4383807.9964026,10.9113309,1.1467202,16.3946287.1364749,4.9781379-.0029232,9.9528189-.4472837,14.9054735-.3812455,4.2492101-1.0442927,8.4644112-1.8388075,12.6519566-.6990087,3.6841841-1.3774616,7.3711245-2.3715388,10.9856555-2.1460624,7.8032444-4.9730348,15.2899434-8.9577457,22.2518854-.1169941.204381-.1778605.4452003-.2697688.6815348.2737669.3307936.499726.6266906.747727.8999306,2.5648709,2.8258772,4.5030455,6.0884525,6.1360438,9.6043201,4.0716283,8.7661944,6.455178,18.0808773,8.0818802,27.6480117.5968774,3.5104953,1.0659179,7.0457032,1.6705009,10.5545167,1.0153678,5.892854,1.9099023,11.8060293,2.6578432,17.7423289.4295854,3.409496.713877,6.8398739,1.0555139,10.2617496.1581713,1.584315.2932422,3.1711994.4459784,4.7561218.1161166,1.2049838.1926685,2.4175356.374752,3.6114946.8372715,5.4902117,1.0569179,11.0336793,1.2328095,16.5755118.1334913,4.2059047.0749559,8.4183028.155292,12.6266834.101336,5.3079739-.2587999,10.5670365-1.1391626,15.7979762-.740652,4.4008024-1.6698483,8.7390526-3.1251671,12.9397251-1.9475804,5.6216229-4.0013506,11.1993797-6.3030561,16.6670277-3.5496794,8.4323642-7.0157539,16.9064922-10.8914395,25.1793225-.1820012.3884407-.33703.7912699-.5869451,1.3819428.6510363-.0840415,1.1195502-.0958605,1.565046-.2097066,3.7312144-.953747,7.4981271-1.6419622,11.3302443-1.9504724,3.4039248-.2740808,6.7976486-.5734348,10.2195733-.3001014,2.7174042.217041,5.3006535.8623244,7.7980822,2.038765,2.4403521,1.1495791,4.5638351,2.7634184,6.6062854,4.5562254,1.8000928,1.5800639,3.6300319,3.1327057,5.5357112,4.5631393,4.5031004,3.3800652,9.5583525,5.1690415,15.025563,5.7723276,2.2812868.2517974,4.5424238.1082402,6.8138825-.0075212,3.3560621-.1710728,6.6812577-.6215052,9.970267-1.3293409,7.9903613-1.719697,15.7835678-4.188106,23.4497657-7.122784.3148399-.1205264.5969706-.3378477.8817887-.5028474-.7804581-1.2484294-1.5499803-2.3876843-2.227989-3.5857542-.9791705-1.7301613-1.0933017-3.5891645-.623274-5.5344981.359571-1.4882676,1.3138531-2.2175459,2.6207629-2.5573556.2870448-.0745582.5950072-.0726896.8938325-.078856,4.1125313-.0846488,8.1252018.3995124,11.8921803,2.3309715.7669774.3932992,1.4635564.8551769,1.9979605,1.5766069.750524,1.0131226.8771489,2.1206576.2636481,3.2053953-.4251869.7517485-.9774264,1.4552396-1.5858156,2.0491826-1.1496379,1.122157-2.4400285,2.0543213-3.8503859,2.7860288-.5282835.2740341-1.0418576.5802085-1.547271.8634456.0330163.1354287.0316233.2115285.0661424.2562821.1120581.145239.2186318.3072489.3601963.412873,2.2144863,1.6530338,4.5294586,3.1043026,7.1307298,3.970084,2.4960466.8307914,5.0257348,1.2070393,7.6088854.5287279.9854666-.2587581,1.9655694-.5623164,2.9204657-.9274461,2.8754494-1.0994532,5.6719887-2.388058,8.3496471-3.9695701,1.9361509-1.143506,3.9091901-2.2167517,5.8738052-3.3048062,3.9830216-2.2060071,8.0080541-4.3253099,12.1745633-6.1095213,5.5220879-2.3647936,11.2783834-3.8208742,17.1530332-4.7631758,3.331404-.5343338,6.685053-.6351929,10.0355648-.3032781,6.3339609.6276249,12.5476589,1.9913019,18.6716753,3.779998,4.9873108,1.4566878,9.7117633,3.6082712,14.0603121,6.6331571.0866542.0602632.2231729.0393346.3688178.0611508,1.6682578-1.0719843,3.3867311-2.110894,5.0416946-3.2540263,2.8950398-1.9998041,6.059651-3.3118603,9.3516329-4.3190033,4.5174257-1.3821296,9.169681-1.826162,13.8288686-2.1774638,5.9640023-.4498251,11.8502133.221152,17.6386038,1.7289467,4.4142085,1.1497659,8.7713569,2.5312415,13.0572733,4.1628795,2.9846556,1.1362651,6.0119364,2.1436417,8.9317878,3.4715344.7684582.3494799,1.5769528.6012773,2.372197.8813844,1.7625902.6208979,3.4831915,1.3374695,5.1584693,2.2032976,2.9044292,1.5011611,5.8580429,2.8716586,8.8981791,4.0634686,3.6790519,1.442206,7.4727286,2.2898617,11.3076484,2.9518227,3.7226422.642574,7.4477415,1.2399739,11.098011,2.2722032,1.3868181.392178,2.7711792.7976232,4.1683958,1.1432724,1.8796282.4651479,3.8079582.4041839,5.7192646.5295688,1.6262469.1066519,3.2222636-.0855364,4.8220097-.3720435,3.2657443-.5849268,6.3788894-1.6927421,9.4379361-3.0062931,5.0551644-2.1706433,10.1769318-4.1118193,15.5390933-5.2673313,1.8746264-.4039036,3.7232346-.9468798,5.5796965-1.4432804.7980522-.2134439,1.5989564-.440809,2.2065887-.9967721,0-.1678961.0223765-.2454908-.0038172-.2922065-.1220618-.2177417-.2448255-.4374922-.3900974-.6377622-2.7262506-3.7584153-4.8396477-7.8771485-6.5674665-12.2530515-1.6534936-4.187779-2.911537-8.4850128-3.8252891-12.9196373-.9787756-4.7501889-1.6004042-9.5406466-1.6200166-14.3989823-.01834-4.5272617.1010892-9.0551774.1613742-13.5828129.0440949-3.3151304.1525114-6.6341382.5639323-9.9169413.3950992-3.1524197,1.0135689-6.2732597,1.5385397-9.4070865.4830258-2.8836178,1.0396748-5.75551,1.4402585-8.6519278.4179145-3.0211487.717409-6.0621983,1.0125597-9.1007252.2028366-2.088377.4113771-4.1860038.4342801-6.2818086.029265-2.6744718-.1566796-5.3507187-.1945003-8.0271058-.0558974-3.9559291-.346529-7.8902757-.759354-11.8204645-.3549093-3.378944-1.1030311-6.6456769-2.232212-9.8180442-.12057-.3387353-.3389824-.6379958-.5319909-.9922407-.4014173.1756042-.7300451.318741-1.0582342.4629989-2.601337,1.143506-5.2452771,2.1549469-7.9682809,2.922859-1.8199136.5132183-3.6479441.6281855-5.514629.2776312-2.9713833-.5580653-4.2498727-1.8316745-4.8868139-4.9950724-.0246581-.122722-.0128994-.2537595-.0293527-.6522908.1430781-.5445645.2507487-1.3894173.5808683-2.1203306.679325-1.5038707,1.5973768-2.8727798,2.8425208-3.8990762,3.0893207-2.5464708,6.5046806-3.9261713,10.5203895-3.4327604,2.4295642.2984664,4.5076854,1.1759734,6.2135225,3.0444598.4069895.4457609.8526334.851393,1.355491,1.3498491.7904179-.7387615,1.5075636-1.4032451,2.21883-2.0748762,1.8112262-1.7103072,3.1813716-3.8021879,4.5172941-5.9242469,1.7687547-2.809807,3.4487492-5.6688524,4.6863027-8.803053,1.1185192-2.8328379,1.8041623-5.8035804,2.5493445-8.7552162.7647507-3.0293707,1.1230822-6.1215739,1.1265484-9.2602592.0066252-6.0589282-.1400069-12.1092607-.7393906-18.1414208-.443845-4.4666248-1.4597393-8.7825448-3.0020523-12.9493018-1.1423436-3.08599-2.5110411-6.0730363-4.1260559-8.9099852-2.1717515-3.814988-4.336834-7.6425425-6.6965922-11.3253719-2.1131777-3.297939-3.7480681-6.8196461-5.0379213-10.5334946-1.1494076-3.3097114-1.8570762-6.7312367-1.6086967-10.2936331.1592243-2.2837186.346178-4.569446.6338261-6.8380053.5731462-4.5206281,1.8081988-8.8289802,3.8773255-12.8456631.1946319-.3778129.3503462-.778353.534097-1.1906655-.4456439-.5508244-.8279753-1.0355928-1.2223287-1.5089159-4.3802708-5.2573808-8.397647-10.8061039-11.925065-16.7528444-1.2495315-2.1065261-2.4161822-4.2571284-3.2835578-6.5752531-2.2645922-6.0523646-4.0649811-12.2594983-5.2113174-18.6600581-.5709963-3.1883441-.9604356-6.4160461-1.3563246-9.6364838-.2093741-1.7029261-.3054615-3.4264538-.3667556-5.1441888-.1206139-3.379271-.0278171-6.7556456.3510921-10.1165573.2423685-2.1494344.443845-4.3083988.7932259-6.4390068.8859349-5.4032271,2.1755687-10.7073703,3.6729532-15.9525117,1.7458955-6.1156176,4.2339459-11.9118169,6.7685043-17.6879285,2.4869096-5.6674743,5.4181028-11.0825672,8.3207332-16.5088251,3.0809405-5.7595275,6.1556507-11.5225587,9.2301854-17.2858468,2.4819077-4.6523195,4.2443444-9.5537037,5.1723559-14.7945004.2537761-1.4329563.34688-2.9045931.4305946-4.363897.161111-2.8082888-.0099597-5.6085425-.3611835-8.3934501-.3744339-2.9688388-.7826958-5.933555-1.7246598-8.77632-.0911295-.274945-.2579004-.521487-.3960645-.7941313-.1955533.1446434-.3087083.1992423-.385315.2891933-2.5985289,3.0514088-5.9085436,4.7431698-9.6293212,5.5379434-1.8970468.405235-3.8085286.2350265-5.6529686-.5284826-1.5336257-.6348425-2.6432381-1.7155043-3.3176052-3.3028091-.5972339-1.4058028-.9372254-2.8918164-1.0778027-4.4200843-.163568-1.7779515.2366208-3.4272947,1.2160106-4.8845198,1.208815-1.7985764,2.7114646-3.2121807,4.6948584-4.001582,2.0340701-.8095825,4.1379462-1.2748588,6.2890762-1.4888516,2.3166725-.2304484,4.5455938.0654486,6.5468011,1.4757712.1355315.0954635.3198088.1124563.5606855.1921766.1541348-.3563938.3453444-.6818735.4400717-1.0365622.5563419-2.081685,1.1501973-4.1549846,1.619885-6.2593384,1.2233817-5.4806583,1.8848055-11.033796,1.54692-16.6768614-.1826978-3.0506029-.4046202-6.1031212-.7468056-9.1371284-.4099731-3.6352495-1.4453481-7.0637471-3.1279312-10.2989586-1.9736973-3.7949703-4.0061002-7.5436337-6.2397162-11.1733124-4.5166798-7.3396615-8.012332-15.2212831-10.8655584-23.4394618-2.9881437-8.6066078-4.3704427-17.465305-3.724858-26.6447753.1919555-2.7293627.3655271-5.4618728.6385208-8.1825931.2539078-2.5312182.5900822-5.0551487.9597775-7.5706704.6028938-4.1017696,1.7243526-8.0705164,2.8346232-12.0396485.9734666-3.4800717,1.956191-6.9572354,2.9194785-10.4404925.107539-.3889926.3524961-.8245081-.099422-1.2554747-2.1994809,1.683761-4.663268,2.8519621-7.1827332,3.852635-4.4266472,1.7581586-8.8741354,3.4635256-13.3529067,5.0640802-3.0608016,1.0938268-6.17987,2.0291825-9.3934024,2.4870018-2.075006.2956226-4.1678912.4461959-6.247197.7112197-2.4506684.3123614-4.9057243.2517215-7.3572701.124652-3.0493501-.1580595-6.0953218-.3947736-9.1414032-.6182731-3.4067383-.2499609-6.796453-.6689508-10.1461312-1.3811982-4.0476942-.8606777-8.0855602-1.7739339-12.126695-2.6695141-3.59299-.7962685-7.2119324-1.2132671-10.886509-.9008853-.9482821.0806196-1.8823704.2207228-2.7662651.4098891-.0357147.1756159-.062391.2341301-.0558974.2881189.0228153.1894846.0545592.3778976.0872685.5658639.5213511,2.998115-.1778934,5.6834627-1.8404254,8.1191532-.4224776.6189563-.8510539,1.2336877-1.2919153,1.8378877-4.6870047,6.4236812-10.7609591,10.3865184-18.327384,11.6954855-.590828.102208-1.1815464.2147344-1.7764768.2781217-1.0874114.115849-2.1886875.0241812-3.1834338-.412511-1.5366311-.6745508-2.2037368-2.078958-2.3262593-3.7858316-.1035463-1.4430994.2601161-2.8055209.9118873-4.0383181.6730069-1.2729493,1.3957029-2.5412445,2.26253-3.6667738,1.1743508-1.5248606,2.4959479-2.9226195,3.7736695-4.3553948,1.9504872-2.1871807,4.1860996-3.9970915,6.5833714-5.5923059,1.9401545-1.2910428,3.9852812-2.3244225,6.1958187-2.9758345.5050075-.1488127.9979931-.3438652,1.5210334-.526179-.1004969-.7331235-.6316981-.9805589-1.0540221-1.2902195-1.7853616-1.3089671-3.7200316-2.3350533-5.7651803-3.0702761-5.2723702-1.8954063-10.5638263-3.7488357-16.1151134-4.5022601-2.4928108-.3383265-4.9981262-.6392396-7.5062934-.7658362-3.4292026-.1730845-6.8145955.3839473-10.1383433,1.2401783-5.5520987,1.4302818-10.8369296,3.6287122-15.8392459,6.5729903-3.4051369,2.0042159-6.7980544,4.0321749-10.1873522,6.066645-3.4953889,2.0981494-7.0371761,4.0990309-10.7448349,5.7418223-4.4642924,1.9780463-9.1229097,3.0465241-13.9543965,3.2586073-2.5832164.1133935-5.134974-.1683808-7.7049838-.7652756-.3891761.4187329-.7699938.8157898-1.1377147,1.2261431-2.449396,2.733278-5.1421257,5.155456-8.1048874,7.2382856-6.1018154,4.2895899-12.6804812,7.3752822-19.8148416,9.1625125-5.0833215,1.2734281-10.2014253,2.2378438-15.4172619,2.5036034-6.4275694.3274943-12.8136544-.1448419-19.1117799-1.570277-5.7455241-1.3003597-11.1135869-3.6003529-15.7688037-7.495067-3.7175856-3.110253-7.5665345-6.0588932-10.9206332-9.6386065-1.6915337-1.805321-3.4049175-3.5881951-5.0686561-5.4221207-2.8704915-3.1641366-5.6294294-6.4462653-8.9569614-9.1044479-1.3955493-1.1148314-2.8466122-2.1122283-4.4332834-2.8847244-3.5578896-1.732211-7.2665355-2.9018515-11.1310384-3.5848199-4.3734975-.7729194-8.7760735-1.2840968-13.1764174-1.8111692-2.8547072-.3419382-5.7236905-.576445-8.6059187-.4492032-3.230589.1426229-6.4637338.2277418-9.6926336.4031095-3.2336.1756188-6.4298399.6335987-9.5609384,1.5715529-3.7422628,1.1210358-7.4733401,2.2965888-11.3136703,3.0073617-.3214021.0594866-.6111397.3129366-.9575535.4987861Zm24.6454126,273.4828344c1.5407774.8114277,3.0397523,1.2271738,4.5625078,1.5340256,1.4501744.2921598,2.8271753.0470193,4.1824579-.6359637,1.5619857-.7871356,2.8393782-1.8630207,3.7539584-3.4262436.3477027-.59434.7314437-1.1650419,1.0715888-1.7640302,1.0874498-1.9149919,1.342619-3.9189771.5276034-6.0260637-.1365133-.3529368-.2493502-.7183935-.4101047-1.0582266-1.1758316-2.4855536-2.9007656-4.3418239-5.4117464-5.2710919-.8571416-.3172227-1.7280163-.5472506-2.6903275.0257637-1.4243701,1.539141-2.5667356,3.3956682-3.2523019,5.5336573-1.1400292,3.5552956-1.954606,7.194329-2.3336358,11.0881731ZM9.1024133,154.3797096c1.5507755-.2805042,3.1496167-.5220475,4.729202-.8643332,4.7921826-1.0384425,8.8437269-3.457146,12.0197429-7.4570112.2165258-.2727027.3665171-.6052949.5354461-.8898049-1.4097102-1.3619368-4.1459727-3.0394496-5.6744265-3.4016361-.8104525-.1920598-1.6558437-.2944255-2.4856289-.2955116-.8936625-.0011562-1.7948031.115376-2.6795259.2673888-1.2386531.2128132-2.5100827.365118-3.6882849.7914451-3.3507463,1.2124817-5.9072356,3.3250224-6.6314083,7.0844304.144585,2.6767959,1.6723601,3.8672628,3.8748835,4.7650328ZM296.8015029,25.6025977c-.5281299.1133935-.9428415.1711136-1.3402003.2930736-1.9113283.5866553-3.6525072,1.5560375-5.3200849,2.6952281-3.5664453,2.4363445-6.4558691,5.6463121-9.1357213,9.0870434-.5681224.7294242-1.0516748,1.5535177-1.462635,2.3957136-.3536149.7246767-.5889853,1.5251964-.7968895,2.3159524-.115634.4398455.0068226.8900911.4767078,1.1028576,3.2149145-.5272505,5.0389743-1.2436352,7.7235212-2.8785316,3.8245432-2.3291729,6.7972647-5.5864168,9.1811545-9.4784535.4478376-.7311731.7649481-1.5907851.9771083-2.4380467.2430266-.9707077.3340245-1.9973603-.3029606-3.0948368ZM33.4148982,423.989284c-.6581523-.8266337-1.5127464-1.1444871-2.2951104-1.5761398-1.0464152-.5773589-2.1526245-.6895699-3.3096034-.4974284-2.6911255.4471156-5.183089,1.4979845-7.5395785,2.8991274-1.0367598.6165066-1.9788637,1.4209036-2.9354986,2.1806405-1.0798566.8575594-1.7597246,2.077539-2.4011356,3.2952295-.5803802,1.1018357-.1620625,2.1553673.9451614,2.6288306.6808963.291132,1.3659361.3129015,2.1045452.165934,1.8947022-.3768553,3.6486489-1.1867647,5.4520406-1.8518089,3.2791894-1.2093284,6.0783859-3.2232874,8.5979608-5.7161754.4772123-.4721552.9061314-.9996685,1.3812185-1.5282095ZM398.8951928,163.6712683c-.6474714.0811801-1.2488734.1052737-1.8273285.2405623-.9869803.2307871-1.999891.4251709-2.9293066.8258162-1.6790731.7238008-2.9575625,2.0130597-3.3795136,3.9145157-.3983022,1.7948625.1195608,3.5369597.959251,5.1155754.5486636,1.0315169,1.5621886,1.437114,2.6163424,1.1312899,4.0723961-1.1814158,6.8724893-3.8813009,8.4602574-8.0786566-1.0085671-1.5275438-2.3096085-2.5645381-3.899702-3.1491029ZM183.8027227,18.5284418c-.2408109.8618952-.1031514,1.5846012.1544419,2.3041917.407516,1.1383585.9441139,2.2046436,1.6812449,3.1342765,2.0461797,2.5805674,4.6439189,4.3135492,7.52018,5.6001658.8951707-1.330684.9394192-1.4540484,1.2280545-3.2852324-.2058202-2.2241182-1.3136118-3.7309786-2.9167802-4.8964147-.2959186-.2151198-.5757349-.4554339-.8723774-.6693683-2.0345966-1.4673361-4.342472-1.9318562-6.7947638-2.1876186Zm209.7335992,464.5527937c-.7192517-1.2368439-1.6835045-2.162982-2.7237497-3.0041909-1.0719672-.866996-2.2652503-1.0441418-3.5585258-.6503755-1.4035786.4274016-2.6833842,1.1437396-3.7291139,2.1856391-.7695331.7666975-1.4380209,1.7208649-1.9277158,2.7162823-.7208313,1.4653302.3857538,3.0474029,1.9342971,2.9158049.2937029-.0249462.5904332-.1014197.8705346-.2021854,2.2000513-.7913166,4.4078685-1.5611441,6.5883952-2.4101545.8791781-.3422857,1.7476506-.773518,2.5458783-1.5508199Zm-142.4408479,136.9870978c-.6455847.6926064-1.2612902,1.2916881-1.8105242,1.9533221-2.1380332,2.5754346-3.5322443,5.5743933-4.3269839,8.889477-.2046355.8534485-.284138,1.7450169.2846864,2.496999.1915167-.0256469.3111215-.0251797.4204154-.0607304.1126724-.0367185.2232388-.0960007.3211251-.1667282,2.9813211-2.1546666,5.0787475-4.9975483,5.8655675-8.7925887.3029606-1.4611725.048285-2.8875886-.7542864-4.3197507ZM15.2572989,13.6073583c-.3536506-1.9375322-1.2419712-3.4505897-2.0099715-4.9987454-.6859982-1.3828537-1.2270988-2.9048355-2.5281251-3.8374203-1.2435617-.3075862-2.2116138.2018263-3.1250203,1.0913903-.1124708.5296739-.2291249,1.0790457-.3229171,1.520754,1.212879,3.4805797,4.3856771,5.9966708,7.9860341,6.2240213Zm7.8751057,615.650787c.325902-.1711195.5714707-.2294206.716164-.3904495.3281315-.3652698.6211844-.7696873.9028627-1.1782158,1.9437112-2.8192903,3.5939306-5.8371222,5.2533941-8.8480402.0757923-.1375309.07571-.3225249.119325-.5239629-1.9922951.6876546-4.3398038,2.18975-5.4461338,3.5198384-1.7667529,2.1240211-1.9537175,4.6214872-1.5456119,7.4208299Zm126.5327996-19.7475053c-1.419626-.8197665-2.8069707-1.4890151-4.3277737-1.836019-1.5959948-.3641486-2.2401425-.4123125-3.2990019-.1890583-.1908476,1.4981246-.2098567,1.6769055.2448146,2.5655308.6200491,1.2118043,1.2313671,2.4476672,2.4514581,3.293501.9019166-.5299892,1.8114346-1.005835,2.6605251-1.5825398.6499394-.441463,1.2340983-.9970991,1.8243669-1.530919.1685698-.1525266.2563758-.4062861.445611-.7204957Zm257.1244269-257.6724143c.3521012.0775947.6965681.1795984,1.0474408.223441.3532859.0441697.7143377.0579975,1.0695979.0376061,1.8046888-.1035219,2.5754943-1.0392367,2.5440355-3.1315145-.5754277-.507519-1.2913449-.8002393-2.0073938-1.1113189-.7055187-.3065482-1.365012-.2867641-2.0749621-.0008175-1.0846911.4368382-1.9625968,1.1750157-2.7926782,1.9981691-.0569505.0564559-.0303619.2083051-.0464203.3492229.4539364.1402871.9055034.2798035,1.3652313.4218658.3018198.4091124.5923637.8029255.8951488,1.2133459Zm8.3959797,264.3441585c1.6199289,2.4711652,6.1749998,2.4444906,7.2231426-.1861619-.2822952-.793232-.9683332-1.0289125-1.5439364-1.2781406-2.4191218-.0523683-3.4420801.2099869-5.6792062,1.4643025ZM398.0118904,10.3138456c1.6105395-.812965,2.4971764-1.5290256,4.1761179-3.3481452.4593769-.4977612.9450353-.9779092,1.046651-1.7912129-.3723717-1.0117051-1.1766543-1.2637346-2.1508668-1.2632514-1.0683256.7006313-1.6712632,1.7964114-2.1718393,2.9512008-.4659144,1.0749683-.9460005,2.1647805-.9000629,3.4514087Z" stroke-width="0"/>
  </g>
</svg>