<?xml version="1.0" encoding="UTF-8"?>
<svg id="Layer_2" data-name="Layer 2" xmlns="http://www.w3.org/2000/svg" viewBox="0 0 34.8369424 162.4084052">
  <g id="Layer_1-2" data-name="Layer 1">
    <g>
      <path d="m.6082501,138.2961006c.1240234,1.4667969.2275391,3.1982422.0488281,4.9072266-.1220703,1.171875-.1123047,2.3457031-.1015625,3.4804688.0107422,1.2744141.0214844,2.4775391-.1386719,3.6835938-.0478516.3632812.0214844.6972656.0830078.9921875.0253906.1220703.0527344.2451172.0634766.3662109.0517578.5458984.0878906,1.0957031.1142578,1.6445312.0332031.7216797.0625,1.4443359.0927734,2.1669922.0595703,1.453125.1191406,2.9052734.2099609,4.3554688.0683594,1.0888672.3808594,1.8105469.9570312,2.2089844.2958984.2041016.6396484.3066406,1.0273438.3066406.2568359,0,.5332031-.0449219.828125-.1357422,1.5605469-.4804688,2.8017578-.9609375,3.9052734-1.5097656,2.3886719-1.1894531,4.5976562-1.6259766,6.7626953-1.3154297.96875.1357422,1.9453125.1923828,2.890625.2470703l.9521484.0576172c.7128906.0478516,1.4267578.0830078,2.140625.1181641,3.1650391.1552734,6.1542969.3017578,9.0712891,1.5224609.6035156.2548828,1.2236328.1455078,1.7675781.0488281.1279297-.0224609.2558594-.0449219.3789062-.0605469.3847656-.0488281.7275391-.3291016.9414062-.7685547.2265625-.4658203.2363281-.9511719.0302734-1.2958984-.1894531-.3203125-.4697266-.5097656-.6738281-.6474609l-.1298828-.0898438c-.3369141-.2480469-.7685547-.1816406-1.046875-.0029297-.3994141.2597656-.7666016.2207031-1.5654297-.1669922-.5722656-.2773438-1.1865234-.4638672-1.7763672-.5390625-2.0234375-.2568359-3.8525391-.4570312-5.59375-.6103516-2.8212891-.2490234-5.1074219-.421875-7.1972656-.5439453-2.1650391-.1289062-4.7119141-.0976562-7.2412109,1.0664062-1.0957031.5039062-2.2734375,1.0107422-3.7070312,1.5966797-.3740234-1.7539062-.4296875-3.5439453-.484375-5.28125-.0410156-1.2949219-.0830078-2.6337891-.2548828-3.9414062-.0019531-.0400391.0058594-.0810547.0097656-.1220703.0087891-.0888672.0166016-.1777344.0175781-.2675781.0029297-.9550781.0166016-1.9111328.03125-2.8671875.0332031-2.2382812.0683594-4.5537109-.0537109-6.8310547-.1269531-2.3867188.1210938-4.6328125.7587891-6.8671875.3681641-1.2929688.4541016-2.5195312.2558594-3.6464844-.2099609-1.1933594-.171875-2.3740234-.1318359-3.6230469.0117188-.3457031.0224609-.6914062.0283203-1.0390625.0195312-1.2246094.0546875-2.4492188.0898438-3.6738281.046875-1.6757812.0947266-3.3505859.1044922-5.0273438.0126953-2.1943359.0019531-4.3886719-.0087891-6.5830078-.0107422-2.3183594-.0224609-4.6357422-.0058594-6.9521484.0097656-1.3017578.0664062-2.6308594.1210938-3.9169922.0537109-1.2636719.1074219-2.5273438.1210938-3.7919922.0244141-2.2753906.0087891-4.5517578-.0078125-6.828125-.0078125-1.0976562-.015625-2.1953125-.0185547-3.2919922l-.0039062-3.1533203c0-1.6064453,0-3.2128906-.0107422-4.8203125-.0117188-1.8564453-.0332031-3.7119141-.0537109-5.5683594l-.0410156-3.8515625c-.0087891-.9609375-.0048828-1.9228516.0097656-2.8828125l.2304688-14.1962891c.0214844-1.5380859.0429688-3.0761719.078125-4.6142578.0283203-1.2675781.0654297-2.5351562.1035156-3.8017578.0664062-2.2304688.1347656-4.5361328.1494141-6.8085938.0117188-1.8808594-.0322266-3.7890625-.0751953-5.6328125-.0292969-1.2636719-.0585938-2.5273438-.0703125-3.7910156-.0224609-2.3554688-.0195312-4.7119141-.0166016-7.0673828l.0019531-2.0908203c0-.671875.0039062-1.3447266.0078125-2.0166016.0058594-1.1015625.0126953-2.2021484.0019531-3.3232422-.0029297-.3173828-.0078125-.9082031-.4785156-1.2460938-.0634766-.0449219-.1625977-.0942383-.2797852-.1328125.1757812-.0566406.3344727-.1577148.4282227-.3212891.6425781-1.1191406.625-2.3154297.6103516-3.3710938-.0097656-.6591797-.0185547-1.2880859.1230469-1.859375l.484375-.0732422c.6699219-.1035156,1.3330078-.2060547,1.9980469-.2841797.7285156-.0859375,1.4609375-.1484375,2.1923828-.2109375,1.5195312-.1289062,3.0908203-.2626953,4.6279297-.6113281,2.3994141-.5439453,4.8417969-.6435547,7.4755859-.3037109,2.2470703.2890625,7.2253419.6858805,10.11792.3675211,2.3300781-.2568359,3.078125-3.2587891,1.5556641-2.9697266-2.6650391.5048828-7.6520997.4859945-10.0974122.2232992-1.7216797-.1884766-3.5712891-.3681641-5.4267578-.4101562-1.4072266-.0361328-2.5498047.1201172-3.6074219.4746094l-.4355469.1503906c-.6572266.2294922-1.3125.4160156-1.8427734.4404297-2.2099609-.0175781-4.3515625.3007812-6.4404297.6230469l-.4335938.0664062h-.0009766c-.0224609.0029297-2.1962891.4003906-2.4111328,1.4111328-.0292969.1396484-.0224609.2792969.015625.4091797l-.0585938.8662109c-.0488281.7011719-.0898438,1.2998047-.1191406,1.9003906-.0097656.1914062-.0449219.3867188-.0791016.5849609-.1259766.734375-.2988281,1.7412109.5371094,2.6972656.0664062.0761719.1494141.1333008.2382812.1767578-.0639648.0112305-.1230469.0146484-.1933594.0380859-.2363281.078125-.4189453.2685547-.4873047.5087891l-.0371094.1123047c-.046875.1357422-.1054688.3037109-.1162109.5117188-.2138672,4.0537109-.2060547,8.1699219-.1972656,12.1503906.0019531,1.1074219.0039062,2.2148438.0019531,3.3212891-.0029297,1.4003906.0019531,2.7998047.0058594,4.1992188.0078125,2.3017578.015625,4.6025391-.0107422,6.9023438-.0166016,1.5205078-.0732422,3.0390625-.1289062,4.5585938-.0449219,1.2128906-.0898438,2.4257812-.1152344,3.6386719-.1376953,6.765625-.2685547,13.5302734-.3652344,20.296875-.0605469,4.2685547-.0664062,8.6074219-.0722656,12.8027344-.0029297,1.8212891.0058594,3.6425781.0146484,5.4638672.0126953,2.8789062.0263672,5.8554688-.0058594,8.7792969-.0205078,1.8164062-.09375,3.6679688-.1660156,5.4580078-.0654297,1.6416016-.1298828,3.2832031-.1582031,4.9257812-.0244141,1.4863281.0048828,2.9921875.0332031,4.4482422.0214844,1.0986328.0429688,2.1972656.0419922,3.2958984-.0029297,3.0644531-.046875,6.0888672-.0966797,9.1767578-.0126953.8291016-.0410156,1.6582031-.0693359,2.4863281-.0302734.8632812-.0595703,1.7255859-.0722656,2.5888672-.0166016,1.1435547-.3710938,1.2861328-.5234375,1.3466797-.2626953.1064453-.4443359.3515625-.4667969.6347656-.2460938,2.9873047.0351562,5.8574219.3066406,8.6337891.0722656.7373047.1445312,1.4736328.2070312,2.2109375Z" stroke-width="0"/>
      <path d="m31.4725079,137.5500068c-.0136719,1.2597656-.0283203,2.5195312-.0732422,3.7773438-.0517578,1.3847656-.1191406,2.7675781-.1865234,4.1513672-.078125,1.5908203-.1552734,3.1806641-.2089844,4.7714844-.0214844.6416016.1806641,1.2578125.3818359,1.8681641.1816406.5517578.3974609,1.0859375.6132812,1.6201172l.3300781.8408203c.1064453.2900391.2265625.6191406.4101562.9150391.2148438.3496094.6015625.4726562.9667969.4726562.109375,0,.2167969-.0107422.3173828-.0302734.5507812-.1025391.8476562-.7617188.8105469-1.1728516-.03125-.3251953-.0566406-.6513672-.0830078-.9785156-.0771484-.9511719-.1552734-1.9355469-.3417969-2.8955078-.5136719-2.6503906-.4365234-5.4023438-.2919922-7.7451172.2128906-3.4902344.1816406-7.0175781.1503906-10.4296875-.0107422-1.2304688-.1484375-2.4609375-.28125-3.6503906l-.203125-1.8642578c-.1464844-1.2949219-.2841797-2.5175781-.1904297-3.7734375.0527344-.7109375-.0126953-1.4150391-.0751953-2.0947266l-.0390625-.4306641c-.2011719-2.3984375-.2646484-4.359375-.1992188-6.1708984.1015625-2.7744141.0869141-5.2451172-.0429688-7.5537109-.1923828-3.3789062-.4492188-6.8056641-.6982422-10.1201172-.1142578-1.5166016-.2275391-3.0332031-.3359375-4.5517578-.0185547-.25-.0146484-.5029297-.0117188-.7548828l.015625-2.4765625c.0117188-2.1132812.0224609-4.2265625.0556641-6.3398438.0136719-.9033203.0507812-1.8056641.0869141-2.7080078.0351562-.8613281.0703125-1.7236328.0859375-2.5859375.0117188-.6689453-.0019531-1.3378906-.015625-2.0078125-.0126953-.6181641-.0253906-1.2363281-.0166016-1.8535156.0605469-4.1289062.2949219-8.3232422.5214844-12.3789062.0957031-1.7197266.1914062-3.4384766.2753906-5.1591797.1445312-2.9501953.1777344-5.9501953.2099609-8.8515625.0126953-1.0810547.0244141-2.1630859.0419922-3.2451172.0048828-.3164062-.0732422-.59375-.1425781-.8378906-.0234375-.0810547-.046875-.1621094-.0644531-.2441406-.0185547-.0834961-.0507812-.1611328-.09375-.230957.0439453-.0683594.0791016-.1425781.0996094-.2241211.0732422-.2910156.1455078-.5400391.2089844-.7617188.1308594-.4521484.2441406-.8417969.2705078-1.2626953l.0322266-.5253906c.0908203-1.4248047.1845703-2.8984375.140625-4.359375-.0576172-1.8847656-.1464844-3.7685547-.2353516-5.6513672-.1025391-2.1708984-.2089844-4.4160156-.2617188-6.6220703-.0507812-2.1367188-.0322266-4.3173828-.0146484-6.4257812.0117188-1.2958984.0224609-2.5927734.0185547-3.8876953-.0009766-.4042969.0136719-.8105469.0283203-1.2167969.0556641-1.5566406.1132812-3.1660156-.6484375-4.8076172-.1425781-.3066406-.4599609-.4765625-.8037109-.4248047-.3320312.0556641-.5869141.3251953-.6230469.6611328l-.03125.2490234c-.03125.2275391-.0595703.4541016-.0595703.6806641,0,.7158203.0068359,1.4306641.0126953,2.1455078.0097656,1.1289062.0185547,2.2568359.0058594,3.3857422-.0175781,1.5185547-.046875,3.0371094-.0761719,4.5556641-.0371094,1.9355469-.0742188,3.8701172-.0888672,5.8056641-.0117188,1.6259766-.0107422,3.5136719.1464844,5.3544922.3330078,3.8925781.3642578,7.1240234.0986328,10.171875l-.0175781.2021484c-.0449219.5087891-.0917969,1.0351562-.0693359,1.5732422.0136719.3388672.1650391.5976562.3251953.8720703.0410156.0703125.0878906.1523438.1376953.2421875-.1870117.1069336-.3349609.2817383-.3759766.5058594-.0224609.1230469-.0498047.2460938-.0771484.3691406-.0683594.3056641-.1455078.6523438-.1552734,1.0166016-.0341797,1.2802734-.0332031,2.4013672.0029297,3.4267578.0136719.3867188.0029297.7705078-.0087891,1.1552734-.0185547.6386719-.0371094,1.2998047.046875,1.9970703.0722656.6015625-.0595703,1.2832031-.1992188,2.0048828-.0712891.3662109-.1416016.7333984-.1894531,1.0976562-.0341797.2666016-.0458984.5371094-.0576172.8076172l-.0878906,1.9189453c-.0537109,1.1923828-.1074219,2.3837891-.1865234,3.5732422-.0410156.6142578-.1064453,1.2275391-.1708984,1.8398438-.0947266.8964844-.1933594,1.8232422-.2148438,2.7529297-.0761719,3.2724609-.1123047,6.5449219-.1484375,9.8183594l-.0400391,3.4443359c-.0048828.3544922.0039062.7109375.0136719,1.0683594.0175781.6943359.0341797,1.3496094-.0517578,1.9716797-.3251953,2.3515625-.2822266,4.7207031-.2412109,7.0117188.015625.8232422.0302734,1.6455078.0283203,2.4677734-.0048828,2.234375.1083984,4.4960938.2167969,6.6835938l.0976562,2.0166016c.0458984,1.0273438.1328125,2.0517578.2197266,3.0761719l.0478516.5585938c.0429688.5166016.0996094,1.0322266.1552734,1.5478516.1113281,1.0185547.2158203,1.9804688.2275391,2.9541016.0224609,1.828125-.0292969,3.6953125-.0791016,5.5019531l-.0566406,2.21875c-.0458984,2.0029297-.0927734,4.0732422.2617188,6.1259766.0820312.4794922.1103516,1.0019531.0791016,1.5107422-.1025391,1.6894531-.0097656,3.3662109.2753906,4.984375.4511719,2.5664062.46875,5.1376953.4257812,7.3144531-.0146484.7490234-.0234375,1.4990234-.03125,2.2480469Z" stroke-width="0"/>
    </g>
  </g>
</svg>