<?xml version="1.0" encoding="UTF-8"?>
<svg id="Layer_2" data-name="Layer 2" xmlns="http://www.w3.org/2000/svg" viewBox="0 0 400.5218627 58.294238">
  <g id="Layer_1-2" data-name="Layer 1">
    <path d="m399.7168294,38.2606026c-.4996427-.2827417-1.1272312-.3406442-1.6203365-.6303903-3.450803-2.0263545-7.1397534-3.3814601-11.0724547-4.0935676-.6472007-.1172059-1.2701196-.3700624-2.13212-.6280555.4408062-.3637585.6135799-.5094487.7891552-.6511698,3.2798972-2.6411017,6.3730121-5.4589462,8.8488115-8.9130179,1.4606376-2.0377949,2.3161005-4.3001955,2.7933293-6.7278984.2157336-1.0950112-.0504312-1.5159718-1.118826-1.7970792-.78075-.2054605-1.5867156-.3156621-2.2236433-.438238-.6574737.5148187-1.1403059,1.0308048-1.7324058,1.3252204-1.0917425.5430695-2.2180398,1.0532187-3.3807596,1.4055368-4.1222854,1.2479392-8.2567116,2.4564207-12.4032786,3.6165723-3.4564065.9665984-6.9837902,1.2537762-10.5447947.7370897-3.2163912-.4667223-6.4299807-.9663649-9.6286276-1.5411875-1.7641588-.3172964-3.5684758-.6324916-5.2271027-1.2785248-3.0333445-1.181398-5.9462145-2.6691191-8.9580791-3.9114548-2.1956259-.9056607-4.4192692-1.8278983-6.7176254-2.3789061-4.4762378-1.0730643-9.022519-.749464-13.518369-.0065374-2.2862154.3775337-4.5313386,1.0109592-6.7895366,1.55076-3.6674705.8762425-7.4339355,1.2708201-11.0201557,2.5584506-7.6263213,2.7391624-15.4749135,4.5880737-23.4934777,5.7820796-4.5490829.6773193-9.0617433,1.3399295-13.6743322.7303188-2.4178969-.3196312-4.8712824-.3845381-7.281708-.7450279-2.8064041-.4197932-5.6314863-.8003622-8.2277603-2.1388908-1.7492162-.901925-3.5628724-1.7062563-5.4092154-2.3831087-3.956983-1.4498976-7.7253159-3.3578788-11.1555729-5.7122697-4.3735076-3.0020585-9.2223761-4.6422406-14.1730409-6.141869-2.521561-.7639396-5.1551915-.7466622-7.7766811-.8295469-2.6140183-.0826512-5.2196314-.1877162-7.8056323.2626626-2.6896651.4688236-5.3830659.9360128-8.0465815,1.5337162-2.9492925.6619098-5.9032546,1.3520704-8.789975,2.2416211-5.4475058,1.6789394-10.848316,3.5112738-16.2696722,5.276133-4.8152477,1.5675705-9.6743892,3.0039263-14.1991904,5.3583172-1.6474199.8568638-3.3583458,1.6268738-5.1094298,2.2381189-3.96819,1.3859247-8.0447137,2.2180398-12.251985,2.6383-4.6415402.4636871-9.0617433-.0726116-13.3371901-1.8299996-5.23364-2.1505647-10.1861727-4.8694146-15.0210326-7.7946589-5.581989-3.3772575-11.1023399-6.8462717-17.1708968-9.3374806-4.5827037-1.8808978-9.1588701-3.7270073-14.1011297-4.4255731-1.4942584-.2112975-2.9913185-.4366036-4.494916-.5547434-3.472283-.2724687-6.922152-.8683042-10.4373949-.5199552-2.9399534.2916139-5.9004529.3607233-8.8460097.6075094-1.9042455.1594654-3.8374424.2932482-5.687521.7368562-3.3340641.7998952-6.6317056,1.7685949-9.9134706,2.769748-3.2855007,1.0023205-6.521504,2.1720447-9.5053512,3.9142566-2.564521,1.4968267-5.1028924,3.039415-7.6132465,4.6237958-1.5260114.9628628-3.0716349,1.9322629-4.4454187,3.0926479-4.1325584,3.4907277-8.3416975,6.8925003-12.0343836,10.8908089-2.4393768,2.6411017-5.1374472,5.0417212-6.5457857,8.4750134-.0989946.2416496-.3875733.4326345-.6285224.5820603-.5099157.3158956-.7714109.6957641-.5117835,1.3039739.3231334.7569353.9049602.6114786,1.467175.3976128,1.4634393-.5568447,2.9352838-1.0987469,4.3679041-1.7277363,1.392462-.6110116,2.7811884-1.139372,4.4771717-1.0231-.7200458,1.3161148-1.3541717,2.4078573-1.9219899,3.5327537-.4464097.8841807-.80223,1.8138896-1.2159528,2.7155812-2.2329824,4.875018-4.3006625,9.8058373-5.2952782,15.1197937-.2783056,1.4851528.6135799,2.5271645,2.0433984,2.0660457,1.9817602-.6392624,3.978463-1.3247535,5.5315578-2.8577692,1.5558966-1.5358175,3.0622958-3.1409778,4.7470722-4.5224664,2.9147378-2.3891791,5.4801927-5.1605615,8.6172014-7.3216327,4.1587079-2.86454,7.9793398-6.2231193,12.1427173-9.0785537,3.6534618-2.5054511,7.7262498-4.2887551,11.9998289-5.5394961.928308-.2715348,1.8024492-.1073998,2.7372946.1151046,2.0200506.4807309,4.0877306.7613713,6.1255255,1.1741602,1.8071188.3658598,3.6487922.6539715,5.3868015,1.2414019,2.0882261.7060371,4.0223568,1.9040121,6.1320629,2.5089532,3.2892363.9434841,6.6709298,1.5629009,10.0115313,2.3298757.622919.1431219,1.2617144.2689665,1.8472769.5131844,3.8131607,1.5897508,7.6179161,3.1986469,11.4133324,4.8308907.6882928.2962834,1.3270882.7158432,1.9752228,1.1006147,2.5421071,1.5082671,4.685434,3.6588318,7.5217232,4.6994427.3754324.1375185.7312527.369829,1.0478487.6191833,1.9145186,1.5042979,4.1652453,2.3644304,6.415972,3.107824,3.1893078,1.0529852,6.4720067,1.815524,9.7005387,2.7520037,3.8495832,1.1169582,7.7411924,1.2785248,11.6963076.7471292,1.9565446-.2626626,3.9298996-.5127174,5.898585-.5405013,3.6637348-.0513651,7.3330731-.0221804,10.9930723.1356506,3.3807596.1459237,6.6027543-.4022824,9.7444326-1.6072617,4.8498024-1.8603517,9.4623913-4.2142756,13.9479682-6.8138183,3.2780294-1.9000429,6.5616622-3.7758042,10.0955833-5.160328,1.023567-.401115,2.1134417-.6303903,3.1351409-1.0359413,1.3961977-.5542765,2.7204842-1.3051413,4.1372279-1.788674,3.4704151-1.1834993,6.9688476-2.2869158,10.4728836-3.3632488.7648735-.2348787,1.6025921-.2825082,2.4104256-.3130938,3.0548245-.115805,5.6464289,1.107619,8.0531189,2.8619718.5127174.3737981,1.0824034.686425,1.6604946.9495545,1.5362844.6985658,3.0847097,1.3700482,4.6406062,2.0235527,1.6053939.6742841,3.2145234,1.3443656,4.843265,1.9595798,1.0291705.3887407,2.1349217.5848621,3.1407444,1.0195979,5.5063422,2.3814743,10.9874688,4.8224855,16.4910093,7.2111976,1.0609235.4601849,2.1554677.9397484,3.281765,1.1293325,2.5794636.4342688,5.1897462.6847906,7.7841523,1.0350074.5099157.068876,1.0095583.2381474,1.5063992.3843046,3.1080575.9121981,6.3179113,1.0889408,9.508153,1.0408444,2.0107115-.0301186,4.0139516-.591166,6.0181257-.9250393,7.0211467-1.1692572,13.939563-2.7279555,20.5152339-5.5465004,4.601382-1.9726546,9.1579362-4.0541098,13.7845337-5.9648927,2.3599944-.9745366,4.7975034-1.7963788,7.4012486-1.9054129,3.7197695-.1554963,7.4404729-.3177634,11.1583746-.5082813,2.3030258-.1181398,4.5238673.2563587,6.6830707,1.0207653,2.8979274,1.0259018,5.7762426,2.1078383,8.6797735,3.1183305,2.4132273.8398199,4.8441989,1.6334112,7.2798401,2.4073904,3.9373709,1.2514414,7.9027591,2.3445848,12.1053609,2.1449612,1.4494306-.0686425,2.9110021-.0441273,4.3594989.0569686,5.1757375.3614238,10.3365325.4585505,15.4721118-.4776957,1.4886549-.2713013,2.9913185-.4597179,4.4827752-.7107067,3.503102-.5892982,6.9697815-1.2918331,10.288903-2.6429695,2.205899-.8977224,4.4893126-1.6077286,6.7475106-2.3716683,1.3214848-.4471101,2.680326-.7886883,3.9831325-1.2813266.3418116-.1293467.7443275-.6448659.7433936-.9827084,0-.3081908-.4585505-.7055701-.8050317-.9021585Zm-7.4572833,1.6929481c-1.6166008.6289894-3.2472103,1.2731549-4.9301188,1.6667985-3.5582028.8325821-7.1500264,1.5250775-10.7343788,2.2453567-2.0490018.411388-4.094268.9047268-6.1666176,1.1141564-3.9812647.4020489-7.977472.5675847-11.9708776.0326869-2.1806834-.2918473-4.3716397-.4987087-6.553257-.7767809-.7461953-.0950255-1.4970601-.2341783-2.216172-.448978-2.9492925-.8797446-5.7575644-2.12675-8.6087962-3.2752276-2.8400249-1.1442751-5.8612286-1.8374709-8.8049176-2.722819-.3343403-.100629-.706971-.1066994-1.0151618-.2554248-2.6289609-1.2719875-5.5119457-1.3847573-8.3183497-1.8173918-.9675323-.1491924-1.9798924-.1174394-2.9614334-.0394578-3.5871541.28531-7.2238054.3443799-10.7390483,1.0256683-3.2845667.6364607-6.4542624,1.9070473-9.6435701,2.9924859-1.7053224.5806595-3.3518084,1.3413304-5.0095013,2.0562396-.9012246.3885072-1.7482823.9098633-2.658846,1.2710536-4.2156765,1.6717016-8.4080052,3.4150809-12.6862538,4.9091058-1.9584124.6836232-4.0914663.8783438-6.1535429,1.2463049-2.4029543.4288989-4.812446.8169391-7.2228715,1.2012437-3.8757327.6180159-7.6253874-.0772812-11.3722403-1.0228666-1.6175347-.4081193-3.3013771-.680588-4.9656074-.7433936-3.5283176-.1328489-6.648516-1.4977606-9.7995334-2.8729452-4.7508078-2.0732835-9.5202938-4.1085102-14.3159294-6.0746273-1.5465574-.6338924-3.2406729-.8991233-4.7984373-1.5101349-2.7064755-1.0616239-5.3830659-2.210335-8.0269693-3.4218517-1.6287417-.7466622-3.1575548-1.7083576-4.7601469-2.5161911-1.2682518-.6397294-2.6308287-.7980274-4.062515-.8108687-3.0296089-.0273169-5.9256685.5045457-8.8207941,1.392462-6.7951401,2.08379-13.5529237,4.2714777-20.0790972,7.0951591-2.7158146,1.1746272-5.2990138,2.6667843-7.9055608,4.0828276-3.2191929,1.7489828-6.3888886,3.5911232-9.602478,5.3522468-3.1407444,1.7216658-6.5476535,1.8843999-10.0180687,1.5969887-4.2978607-.3558203-8.5873162-.4041502-12.8795735.1538619-2.1881546.2843761-4.4024588.5542765-6.5999526.5178539-1.9593463-.0322199-3.9495117-.3427455-5.8602947-.8033974-2.8129414-.6780197-5.5324917-1.7699958-8.3585079-2.36373-2.374003-.4987087-4.6228619-1.2698862-6.6970794-2.4260686-2.6298948-1.467175-5.3569164-2.7821224-7.7645402-4.6497119-1.8342022-1.4230476-3.7739364-2.6810264-5.9546197-3.5799163-3.4909612-1.4396246-6.9146807-3.0426837-10.3794924-4.5472151-.633192-.2752704-1.318683-.4548149-1.9957689-.6028399-2.8867204-.6308572-5.8182686-1.0980464-8.6582935-1.8930386-1.9481394-.5451708-3.8150285-1.4470959-5.6426933-2.3443513-1.9266594-.9455854-3.9513796-1.3576738-6.047077-1.5778435-2.6495069-.2780721-5.3036834-.421661-7.8775435-1.3102778-.9040263-.3121599-2.1087722-.1057655-3.0781723.1886501-5.0113691,1.5220423-9.8901228,3.3644162-14.5736889,5.7743748-3.4022396,1.7503836-6.2665462,4.1825226-9.2924194,6.4250776-1.7230667,1.276657-3.5040359,2.4823368-5.1561254,3.8449136-2.4972793,2.0597418-5.3317007,3.682413-7.4965076,6.1878641-1.3989994,1.6198695-3.1416783,2.9422882-4.7424026,4.384481-.1559632.1400867-.3959785.1853814-.6322581.2904465.0457617-2.7947302,1.3653786-5.0944872,2.3478535-7.4967411.9507219-2.3228714,1.9257255-4.6364036,2.9483586-6.9282225.3987802-.8942203.9525897-1.7188641,1.4391576-2.5729262.1727736-.3028208.3576881-.5988707.537933-.897489.4249297-.7044027.5575452-1.4611045.0401582-2.1330539-.5285939-.6873589-1.3214848-.9899462-2.1797494-.8328156-1.5437557.2825082-3.0735027.6350598-4.6069854.9677658-.4949731.1073998-.9824749.2449183-1.6511555.1190737.8423882-.9925144,1.5988565-2.0758518,2.5421071-2.9595655,2.2927527-2.1479964,4.5630916-4.3433889,7.0398249-6.2639779,4.041969-3.1346739,7.7281177-6.7409732,12.1763381-9.3428506,3.4666795-2.026588,6.8819938-4.1437653,10.4000385-6.0736934,1.3074761-.7174775,2.8260162-1.0760995,4.2782486-1.4963597,3.640387-1.0536856,7.3433461-1.7020537,11.1509033-1.8227618,2.3151666-.0733121,4.6181924-.4655549,6.9314911-.6556059,1.1001477-.0903559,2.2152381-.1146376,3.3163197-.0445943,3.4797542.2211035,6.9557728.4900701,10.4327254.760204,5.2196314.4055511,10.1086581,2.0221519,14.9696674,3.8906753,7.0034023,2.6924669,13.369877,6.5555918,19.8325446,10.2788634,4.7881643,2.7587746,9.6715875,5.3732598,14.8538624,7.3480157,3.6431888,1.3882594,7.4021825,1.825797,11.302197,1.5278792,9.3746036-.7160766,18.1272222-3.5432602,26.5090779-7.6587747,4.2689095-2.0959309,8.8544149-3.2096203,13.3661414-4.5644925,1.7277363-.5185544,3.4760186-.9908801,5.1551915-1.6390147,6.3300521-2.443346,12.8580935-4.1187832,19.5626442-5.0613334,5.1579932-.7249488,10.3925672-.9607615,15.448764.3523181,4.2502312,1.1038834,8.5536954,2.2803784,12.3080196,4.7956355,5.3886694,3.6107353,11.1975989,6.4176063,17.1970463,8.8355032,1.9378664.7809835,3.8682614,1.6149665,5.8696338,2.1918903,1.5502931.4471101,3.1995808.5829943,4.8152477.7665079,2.7709154.3144947,5.5474343.5862629,8.325821.8244104,3.7291086.3196312,7.4049843-.01074,11.0958025-.6887597,6.6970794-1.2304284,13.3633396-2.574794,19.9408783-4.3447898.6733502-.1811788,1.3354934-.4116215,1.9901654-.6523372,4.2726451-1.5694383,8.6265405-2.8005671,13.1392009-3.4753182,2.585067-.3866394,5.1374472-.9887788,7.7131751-1.4473293,5.8817746-1.0471483,11.7149858-.1295802,17.5229815.6359937,2.0947635.2762043,4.1064089,1.2173536,6.1432698,1.8960738,3.9102874,1.3037405,7.8000288,2.6728547,11.723391,3.9390052,1.435422.4634536,2.944623.6950636,4.4136657,1.0609235,3.1846382.7931243,6.4150381.9838758,9.6902657.9948492,4.7405348.01611,9.3671323-.7254158,13.9965316-1.6161338,3.2369373-.6231524,6.2450662-1.7181637,8.8964409-3.7183686.422128-.3184638.8507934-.3651594,1.1879354.1354172.0074713.1281794.0653738.2764378.0140087.3474151-2.7064755,3.8054559-5.9107259,7.1670703-9.2765429,10.3785585-1.0515843,1.0027875-2.1610712,1.9544433-3.7225712,1.7541193-.3595559,1.7384763-.380102,1.7961453.9040263,2.253295,1.1468433.4081193,2.3459857.6670463,3.5208464.9962501,2.9642351.8309478,5.9331398,1.6495212,8.8889696,2.5098872.5267261.1536284,1.002087.4849335,1.815524.8909516-.7107067.5729547-1.1197599,1.0889408-1.6492877,1.2948683Z" stroke-width="0"/>
  </g>
</svg>