<?xml version="1.0" encoding="UTF-8"?>
<svg id="Layer_2" data-name="Layer 2" xmlns="http://www.w3.org/2000/svg" viewBox="0 0 430.8667979 656.2067049">
  <g id="Layer_1-2" data-name="Layer 1">
    <path d="m9.6314739,443.8672203c-.2515055-.7174775-.4921799-1.5045135-.798527-2.2614247-1.7611903-4.3514556-3.1326982-8.8343099-3.9117103-13.5019833-.29267-1.7535584-.4933784-3.539066-.5594342-5.3174634-.0899392-2.4214514-.1772712-4.8663853.0310323-7.2721194.4177644-4.824987,1.1405194-9.6111016,2.3525492-14.2958021,1.0292037-3.9780754,2.8784633-7.5562476,4.817864-11.085958.7264139-1.3220334,1.5125694-2.6067382,2.2563454-3.9181998.2157915-.3805372.4096737-.7825921.5570247-1.197511.1248981-.3516987.1682195-.7362588.2737043-1.2277294-.2576273-.3653344-.4796821-.8378367-.8284033-1.1498444-2.7677792-2.4763452-4.288464-5.8074839-5.4973868-9.2950008-1.6422933-4.7376763-2.8223353-9.6291579-3.507332-14.6264274-.6597555-4.8130586-.7234758-9.6480093-.2590168-14.5102548.4383158-4.5885487,1.3981125-9.0553817,2.3725679-13.5245068.4750581-2.1787216,1.2446492-4.262952,2.2273875-6.2491597.166528-.3365661.3227385-.6789326.5046598-1.0628144-2.0918191-.9813509-3.2658654-2.7888908-4.1051766-4.896136-.633895-1.5915202-1.021757-3.2591712-1.3680769-4.9481061-.972381-4.7421435-1.7238604-9.525662-2.294127-14.3357035-.4811038-4.0580186-.5325646-8.1330643-.2200942-12.2304698.2821643-3.6999815.7721585-7.3536531,1.5671969-10.9540681.8832792-4.0000376,2.2981881-7.7875169,4.5004167-11.1981078.440253-.6818094.9444817-1.3167943,1.4903197-2.071694-.1354724-.339209-.2910129-.7360015-.451883-1.1302913-.811497-1.9889909-1.638504-3.9709184-2.4335589-5.9673236-1.3231121-3.3222978-1.8772632-6.8480087-2.368677-10.38649-.4934375-3.5530525-.5670965-7.1272019-.3105977-10.7008834.1641007-2.2863806.4180156-4.5688085.7189548-6.8398694.4011876-3.0275978.8803659-6.0436181,1.338596-9.0624451.4748096-3.1280531,1.5986507-6.0026174,3.0508606-8.7457596.8325509-1.5726453,1.939262-2.9125479,3.1295336-4.1818394.3770076-.402055.7502548-.808086,1.1582082-1.2478439-.1798331-.4515225-.3256189-.8631435-.5038965-1.2581116-1.6641215-3.6867434-3.1854996-7.4341342-4.1252722-11.4145953-1.1717645-4.9630282-1.9729577-9.9986438-2.1839069-15.111548-.0863558-2.093013.0765792-4.2141043.2995731-6.3014221.3584648-3.3553814.859717-6.6937356,1.668379-9.9682499.8915196-3.6100162,2.2841609-6.9803314,4.2418599-10.0838612.6647598-1.0538565,1.3913549-2.0723606,1.8353161-3.1841162-.164573-.7609925-.6385574-1.1737362-1.0418251-1.6417127-1.3376885-1.5523204-2.7069324-3.0759193-3.9977998-4.671322-1.4938509-1.8462602-2.6758698-3.9317186-3.7193163-6.0897293-1.7976608-3.7178623-2.9252239-7.6560597-3.4524355-11.818381-.4157627-3.2824431-.167452-6.483376.4633388-9.6899105.8868461-4.5081845,2.990471-8.1654462,6.5784447-10.8044377.4439008-.3264972.8972378-.6420483,1.3164095-1.0020033.3662905-.3145571.6906038-.6845225,1.0644715-1.061259-.3373616-.3942899-.5971252-.7468072-.902492-1.0466995-1.739969-1.708757-3.0764658-3.73793-4.2189595-5.9286384-2.3948862-4.5921623-3.8005168-9.4505077-3.9629494-14.7544523-.1842141-6.0152357.6325138-11.8208661,2.5436252-17.4693582,1.1011987-3.2547215,1.9010698-4.7772678,4.3703455-8.2098033-.2967641-.3472431-.6205336-.70238-.9192761-1.0799643-1.0029616-1.2676426-2.0276484-2.517837-2.9842351-3.8243344-.6971691-.9521908-1.2043304-2.0499365-2.0299933-2.9150213-.3283771-.3440622-.5451983-.8440464-.7208453-1.3121692-.8672805-2.3114009-1.725315-4.6304324-2.1026817-7.1049737-.1245672-.8168335-.1849747-1.6452445-.2614969-2.4697524-.0648036-.6982401-.0766609-1.4037308-.1713086-2.0968225-.2449236-1.7935417-.2032724-3.5757368.2603409-5.315604,1.0153269-3.8103625,2.1512284-7.5737922,4.1346012-10.9748521.4130511-.7082973.8222704-1.3974377,1.4658006-1.9140968.3254253-.2612699.5810564-.6353182.8290046-.9895151,2.0020254-2.859917,4.4763095-5.1047122,7.4290469-6.8157745,3.961479-2.2956119,8.2160317-3.4668016,12.6392211-4.1358956,2.3860679-.3609402,4.7790307-.4191281,7.1780261-.4317325,4.0375338-.0212115,7.8408706.9968745,11.3871458,3.0383004,2.4276127,1.3974611,4.7838826,2.9239266,6.9047501,4.8262456.1794363.1609477.3882862.2847115.6570233.4788991.2429535-.3156783.4617654-.598678.6792593-.8828208.8082157-1.0559293,1.8088172-1.8545224,2.9275401-2.4997925,1.9603721-1.1307284,4.0383054-1.9583624,6.1828861-2.5640893,2.9866034-.8435524,5.9470718-.6382527,8.8194915.5874689,3.1404539,1.3400962,6.0566865,3.0775864,8.493366,5.6293768.1687165.1766855.3613109.327516.5288467.4778525.1384187-.058193.272757-.0697003.3339622-.1469217,2.0582564-2.5967438,4.6752455-4.3729134,7.5468195-5.7419782,4.2038751-2.0042631,8.5900641-3.1807351,13.2300254-3.1505495,4.1382601.0269228,8.2768826-.0159044,12.40763.3435199,3.4419435.2994888,6.73214,1.1500542,9.8190331,2.8445184.7929048.4352394,1.6526658.7324084,2.4384094,1.074177.490553-.068949.9058584-.1168743,1.3178359-.1869006,3.0208498-.513465,6.0501788-.9339563,9.1165549-.9476504,3.778366-.0168729,7.5567759-.0484252,11.335109-.0398459,4.8544676.0110227,9.5154291,1.0788256,14.0209532,2.9768147.9458271.3984326,1.911073.7472662,2.8776149,1.0857808.3350056.1173245.7010504.1341572,1.1549077.2150769.6460893-.3180099,1.3496879-.6638058,2.0528691-1.010549,2.1236243-1.0471848,4.2866243-1.9694363,6.5767244-2.5370934,3.009416-.7459564,6.0648087-.9141583,9.1202453-.6650535,3.285188.2678342,6.5466298.7582173,9.7234553,1.7933582,2.5949014.8455243,5.0465788,2.0038268,7.409554,3.4022863.6797645.4023064,1.3662289.7917328,2.153697,1.2472548,1.7475517-.7037117,3.5354784-1.4242589,5.3238006-2.1436792,3.8156877-1.5350156,7.69062-2.866194,11.6964968-3.7144476,3.9131547-.8286193,7.8588862-.9357806,11.8117569-.3898518,3.7440098.5170888,7.4839338,1.0706044,11.2192887,1.6543924,1.539833.2406512,3.0695613.5694726,4.5920625.9169233,1.9701638.4496016,3.9133963.4610417,5.8734554-.0887067,2.8379208-.7959691,5.6778185-1.5992341,8.5900971-2.0378211,2.4912397-.3751789,4.9844565-.7418597,7.4837801-1.0477139,1.7261999-.2112433,3.4624166-.3461533,5.1974033-.4569487,6.9679323-.4449641,13.5917756.9762258,19.8793063,4.2013165.5877893.301512,1.2075623.5323881,1.8532782.8138382.8154758-.3109552,1.6119063-.581129,2.3841513-.9147525,3.8890351-1.6801758,7.7927659-3.3350192,11.9301583-4.1801071,2.8215554-.5763197,5.674853-.9850975,8.5215385-1.4112708,3.3966918-.5085124,6.8224457-.392198,10.2395228-.4389772,6.5910029-.0902321,12.8276584,1.5384033,18.8082022,4.4036362.5461181.2616369,1.083779.5433224,1.6999495.8532017,1.0773208-.5822912,2.190162-1.1831268,3.302454-1.7850632,3.256016-1.7620076,6.720168-2.7155411,10.3583635-2.8707724,2.9004165-.1237535,5.7539117.2517792,8.4440175,1.5011799,1.2612932.5858141,2.4779498,1.2809925,3.7116966,1.933389.4241801.2243023.8387826.4692001,1.2036961.6743235.8320168-.1251846,1.3837365-.6505911,2.0057502-1.0190158,5.142574-3.0461269,10.6128496-4.9980757,16.4873155-5.6001904.357928-.0366847.7256533-.1182133,1.0752339-.06915,2.96434.4159991,5.9953715-.3202567,8.9291776.5895856,2.0692783.6417202,4.1493204,1.247401,6.2033098,1.9403165,1.2623916.4258444,2.4065136,1.1337383,3.4650087,1.9940663,1.9141483,1.5557944,3.7135418,3.232972,5.1426179,5.3200851.2112333.308571.4460591.6036277.6990295.8741786,1.0729054,1.1475099,1.8591873,2.4996171,2.4900316,3.9573952.9271333,2.1427582,1.8322119,4.2963484,2.7698015,6.4996985.1900133.1487445.4281341.3351247.6738115.5274486.0452517.1822433.1112841.3635949.1334706.5508317.239966,2.0261208.4763294,4.0518673.4748357,6.1005496-.0011862,1.5971715-.0150693,3.1853968-.2887324,4.7693887-.2049947,1.1866147-.1651908,2.4266525-.4199625,3.5971231-1.2739022,5.8529782-3.3622917,11.3050564-7.1463032,15.8855418-.2341667.2834031-.4371845.5960073-.6857175.9377482,2.7478786,3.2102241,3.6620515,7.1643083,4.0835516,11.2622635.2735753,2.6593164.3668026,5.3520555.358587,8.0291826-.0155965,5.0617527-.6977554,10.0516255-1.8406912,14.9606838-.6360724,2.7321962-1.6197924,5.3326018-3.0620926,7.7419963.1560526.2564474.2678639.4765486.4110878.6703021,2.4902073,3.3682102,4.1033657,7.1879311,5.0512358,11.3265946.3107432,1.3567075.5149472,2.758497.6059778,4.151656.3096009,4.736577.0034268,9.4437892-.840496,14.1045044-.4649066,2.567211-.9382046,5.1361293-1.5214687,7.6746538-.6401583,2.7859906-1.4175655,5.5360442-2.1219988,8.3055691-.2809562,1.1045753-.5266335,2.2193364-.792784,3.3480139,1.0565182,1.766855,1.850752,3.6134543,2.4690313,5.5573398,1.2880049,4.0492361,1.6908332,8.221334,1.540536,12.4581256-.104079,2.932674-.300287,5.8642605-.5424057,8.7881637-.3896482,4.705996-1.0522566,9.3701844-1.9720969,13.9966465-.6218818,3.1279011-1.4441014,6.1856004-2.4199134,9.2047548-.4284417,1.3255885-.7883906,2.6773492-1.1459672,4.0272622-.1264413.477297-.1532408.9844616-.2549035,1.6788075.397029.3444715.8057884.7152789,1.2301442,1.064592,2.3212382,1.9107551,3.6883238,4.4959287,4.5760486,7.402606.8394416,2.7487087,1.1925809,5.6033691,1.3743786,8.4682271.3456705,5.4474822-.1616322,10.8293118-1.1989952,16.1747249-.8741493,4.5043955-1.8741687,8.9626915-3.3498145,13.2931907-.3874954,1.1371677-.6693303,2.3170668-.9616652,3.4881016-.119983.4805481-.1390942.9896306-.1986244,1.4441.2967723.3749005.4988674.6983454.7613714.9506413,1.5589003,1.4983622,2.4808494,3.4188003,3.2322479,5.4558554.9713307,2.6329805,1.4607963,5.3813618,1.793067,8.1775266.5858123,4.9285296.2249407,9.8189353-.4847208,14.6903258-.5884483,4.0392841-1.4469571,8.0136875-2.7216941,11.8822093-1.1750513,3.5659398-2.7514372,6.9315772-4.3670999,10.282082-.3809493.7900298-.7287286,1.5982328-1.1364336,2.4965298.5101144.2403676.9247609.4799867,1.3655919.6351486,1.3220975.4652985,2.3133741,1.3617711,2.9494904,2.6508496.5552783,1.1253095,1.0618781,2.2868016,1.4869368,3.4741384.8357512,2.3343044,1.2500462,4.7943475,1.6990488,7.2333406.5894588,3.2024064.870986,6.4493685.7648861,9.7147378-.2426899,7.4693813-1.6235707,14.6817889-4.3854202,21.5766455-1.2221922,3.0512206-2.4417045,6.1073529-3.2980167,9.3044499-.2404493.8977122-.664849,1.795214-.3288878,2.8880597.3405303.1668797.6987659.379742,1.080506.5203326.5080935.1871111,1.038725.3036579,1.5523102.4754961,1.871269.6259802,3.2149819,1.8878106,4.1115813,3.7527469,1.0787047,2.2437661,1.7058146,4.6299471,2.0725294,7.0971939.62443,4.2000359.5189012,8.4082112-.145816,12.585326-.4499252,2.8270615-.9950109,5.6438787-1.6505021,8.4244431-.4061233,1.7226383-1.0932028,3.3708531-1.665791,5.0479766-.1618958.4742798-.3646499.9327956-.5862516,1.4938014.4027844.2293046.7427874.4627725,1.1105566.6246236,1.0328379.4544928,1.8210528,1.1982594,2.4497883,2.1721259,3.3086486,5.1246454,5.2245982,10.7163201,5.2627766,17.0057788.0290402,4.7744202-.6101955,9.3989644-2.1262604,13.9017929-1.374774,4.0832318-2.7998082,8.1372276-4.8232198,11.8780461,4.2944774,5.1288554,6.7549855,11.0372156,7.6388881,17.7289164.5049742,3.8231942.3974684,7.6396056.0585637,11.4609755-.5930174,6.6874908-2.6599672,12.9383111-5.0483801,19.0857057-.9389954,2.4168204-1.9843544,4.7866292-2.9684698,7.183803-.644991,1.5710783-1.2619522,3.1547866-1.6500188,4.7260052.9003338,1.178145,1.8180214,2.2006136,2.5392813,3.361404,1.3584307,2.1863931,2.4422756,4.537444,3.3028054,7.0002938,2.3869191,6.8312389,2.9486118,13.8639497,2.3837998,21.1025762-.7582082,9.7172872-3.6783509,18.6929595-7.8329873,27.2664834-1.8400761,3.7972325-3.9126494,7.4666214-5.8784638,11.1947164-.3156638.5986152-.7062346,1.162568-.8671199,1.9206954.2449744.1487533.4320003.3088269.6454303.3848875,2.5031678.8925199,4.3240887,2.6769984,5.7529891,4.9721966,1.0310366,1.6561671,1.8609885,3.4263316,2.5252664,5.2799008,1.4153688,3.9492603,2.4922283,7.9938537,2.8754182,12.217372.0978843,1.0786955.1243324,2.1675417.1317572,3.2521311.0139709,2.0433467.0348834,4.0886581-.0292599,6.1301804-.0804426,2.5621122-.4604693,5.0787096-1.3028985,7.4963721-1.4707692,4.2209924-3.5878474,8.0650494-6.0444454,11.7090848-.2091245.310277-.4435549.6057722-.6945043.8786737-2.0539894,2.2340597-4.1049473,4.4713938-6.1776525,6.6856665-.9317464.995431-1.9361591,1.885191-3.1346271,2.5365715-.9029259.4906988-1.7185993,1.1631761-2.5741207,1.7530906-4.2670628,2.9423687-8.8989072,4.9723837-13.8210218,6.2851084-4.003109,1.0676559-8.0497123,1.2364769-12.1419189.7860069-3.2399802-.3566337-6.3597578-1.2303958-9.4328777-2.3305154-2.6379564-.9443029-5.0845815-2.2609101-7.1851406-4.2413875-.2213381-.2085821-.464643-.3907815-.7674343-.6433815-.3585431.2209314-.7406786.3947576-1.055288.6596134-4.1536039,3.4959837-8.9843583,5.2921566-14.0993859,6.3535911-1.4100528.292595-2.8393047.5237239-4.2700942.647264-1.4301745.1235401-2.8769119.1602139-4.3100519.0895794-4.4529683-.2194813-8.7600327-1.2306297-13.0498532-2.5297888-6.5748353-1.9912363-13.0659988-4.2255766-19.4754895-6.7430628-.1657619-.0650211-.337433-.1129683-.5799251-.1932858-.3162789.2236913-.6500873.4883132-1.0082789.7078413-1.0893586.6674253-2.1388034,1.4451525-3.2924371,1.9504928-3.5987869,1.5765981-7.1916428,3.1902909-10.9487229,4.3066893-2.8259049.8397078-5.6515681,1.7127214-8.5212529,2.3448762-3.7629233.8289957-7.5619382,1.2555154-11.4346518.7312302-2.5571623-.3462023-5.1173341-.6133034-7.6340334-1.237085-2.47248-.6126953-4.7868866-1.6314684-6.9894598-2.9587877-1.8026226-1.0862267-3.3188193-2.5074758-4.4932775-4.3330251-.3034942-.4717538-.6246497-.9306438-.9886845-1.4712077-.3793457.2683173-.737779.4765252-1.0471822.7481637-1.8158686,1.5941397-3.8199273,2.8540991-5.9371153,3.9391095-2.8104402,1.4401941-5.6404529,2.813917-8.6479358,3.7376376-4.0125547,1.2323137-8.1017738,1.7175863-12.2678549,1.490527-2.4538741-.1337377-4.9141845-.2017993-7.3587886-.4451841-4.0084908-.3992951-7.9534316-1.1657021-11.7099186-2.7960478-2.1261945-.9228319-4.1274853-2.0527958-5.7475633-3.8359645-.1200709-.1321004-.2931038-.209658-.5256011-.370901-.3963481.1703179-.8402764.333853-1.2622598.5466451-5.2191285,2.632045-10.6335643,4.6736141-16.2942048,5.8963851-2.5207412.5445401-5.0874811.8563139-7.6397008,1.2233323-1.3731485.1974958-2.75024-.0151092-4.1279137-.0896262-5.0620215-.2741645-9.9592476-1.4836974-14.8285099-2.8613496-2.5628078-.7251023-4.9602161-1.8891204-7.2694824-3.2625626-1.5351102-.9130086-2.8626774-2.094428-3.9708726-3.5517428-.299639-.3940092-.6048246-.783247-.9260899-1.198774-.1907383.0452809-.3883192.0346623-.5146286.13051-4.0477346,3.0728787-8.5691956,5.0799258-13.2574071,6.7208434-3.2516995,1.1381968-6.5634565,2.0170576-9.9488902,2.5405009-2.4475367.3784322-4.9081656.2047463-7.3594806-.0497716-3.4823076-.3615454-6.8101443-1.4340194-10.1288098-2.5360102-3.2695366-1.0856186-6.4617609-2.3662537-9.3694703-4.4972619-1.7207631,1.6724925-3.5859143,3.044391-5.5257419,4.3105718-1.3861748.9048692-2.8294086,1.660611-4.3628767,2.2374745-3.2250537,1.2132751-6.4859848,2.2732127-9.8828359,2.796656-3.7533073.5783136-7.5082237.7202842-11.2976994.3642117-4.2009974-.3947576-8.294846-1.2861081-12.3276047-2.5559375-.2827959-.0891117-.5674974-.1713938-.8916239-.2689722-2.3417003,2.101164-5.0446896,3.4470541-7.9300259,4.3864921-4.2528008,1.3846689-8.5919753,1.7837768-12.9758056.9232997-3.0854076-.6056318-5.992384-1.8280286-8.7079328-3.4971531-4.4657517-2.7450133-7.9920246-6.5130565-10.3981249-11.3807516-1.9581892-3.9615161-3.5560875-8.087035-4.4823572-12.4794679-.6231147-2.9548116-.7788749-5.9123363-.4370101-8.9362855.2973228-2.62994.908699-5.1295571,1.9342206-7.5318764.8107049-1.8991776,1.9695941-3.4955627,3.5228337-4.7678245.2346679-.1921631.4607961-.396161.7487295-.6446445-.2596263-.7368435-.49038-1.4498771-.7596058-2.1460707-1.4557329-3.7644413-2.0716658-7.7278753-2.3119325-11.7503428-.0980312-1.6411982.0888683-3.3184152.2882739-4.9596602.4222909-3.4756821.8959912-6.9476688,1.7127987-10.3500033,1.2829883-5.3441267,3.5401766-10.1502155,7.0218211-14.2721793.3188764-.3775434.5988743-.7923687.8411413-1.1154628.3312356-1.2388158.0052061-2.2499173-.5337041-3.2038097-.6489395-1.148675-1.2853579-2.3089977-1.9975277-3.4128596-3.3349649-5.1693649-5.0646205-10.9949285-5.9053389-17.1038718-.520178-3.7797376-.6695829-7.6254319-.2269877-11.4602738.1823593-1.5800596.2383569-3.1762108.3902056-4.7608547.3777229-3.941542,1.1698136-7.8009421,2.0499434-11.6442508.739815-3.2306601,1.6097261-6.4076194,3.0668511-9.3702897.0821547-.1670434.1133078-.3625277.1623159-.5252676.0021733-1.0283626-.4267022-1.8611473-.9386385-2.6615617-.8099841-1.2664614-1.6016972-2.546582-2.4289362-3.8001327-2.5440412-3.855237-3.7780502-8.2089379-4.3982049-12.8167357-.4797233-3.5644195-.4456541-7.1448839-.1815341-10.7047192.3537461-4.7678245,1.1851986-9.4685698,2.112634-14.1528024.782417-3.9517395,1.8287961-7.7907914,3.4564774-11.4431531.1271085-.2852041.2006124-.5974457.3310777-.9947293ZM82.7761046,16.9140114c-.7167457.1801514-1.347288.0493199-1.9453248-.31217-.7443361-.4499159-1.3275068-1.0717723-1.8174942-1.8179188-.4794926-.7301645-.9593642-1.4716214-1.5243464-2.1244564-1.9259226-2.2253736-4.4098364-3.4925236-7.0591442-4.3853607-1.1945085-.4025607-2.4534348-.478734-3.7350913-.2303776-2.2625757.4384378-4.3796155,1.2857733-6.4515353,2.3090064-1.5927347.7865873-2.7915981,1.9639897-3.4049019,3.7461644-.1931326.5612353-.4723205,1.0283567-.9950988,1.284544-1.4020075.0647302-1.6923874.0117076-2.6896389-.7462531-.780175-.5929667-1.5566651-1.2042923-2.2641738-1.8900632-1.428829-1.3849349-3.0425695-2.477633-4.6651243-3.5725486-3.3908212-2.2881552-7.0848783-3.3216794-11.0889319-3.2952018-2.7707049.0183223-5.4995712.3688369-8.223602.8447817-3.5880286.6269026-6.9458034,1.9427394-10.1048769,3.8379336-2.4398867,1.4637394-4.4705418,3.4198192-6.0644421,5.8802161-.9856654,1.5215055-1.9819793,3.0352898-2.9554091,4.5655955-.1988454.3126042-.353536.670384-.4665967,1.0294618-1.2217625,3.8802748-2.4382063,7.7622218-1.8404015,11.9627606.0986394.6930975.1171712,1.3989829.2118429,2.0929077.0508711.3728832.1614523.7422112.2857257,1.097009.3977732,1.1356328.8226466,2.2604803,1.2224531,3.3953267,1.3021104,3.6960259,3.230021,6.9697391,5.7985841,9.8188037.455914.5057087.9066575,1.0276667,1.2847401,1.5984725.3012673.454832.4881833.9955363.6315061,1.2986036-.065324,1.0167383-.4792895,1.5485723-.9992423,2.0118126-1.1265142,1.0036347-1.9055181,2.2910525-2.571136,3.6557824-.4412566.9047114-.867599,1.8285373-1.1909251,2.7858035-1.9066906,5.6451183-2.8419283,11.4477315-2.5502002,17.4695921.2109601,4.354654,1.3358158,8.4106846,3.2176674,12.2509409,1.1154607,2.2763,2.4365354,4.3936725,4.2287759,6.1516982.8931341.8760775,1.656985,1.8616384,1.6831695,3.236788-.0896083.898601-.5080221,1.5861173-1.1131487,2.1464449-.6325522.5857162-1.285314,1.1472015-1.9386743,1.7067923-.6537667.5599183-1.3322888,1.0876417-1.9769818,1.6588802-1.7579928,1.5576531-2.906051,3.5471001-3.5697563,5.8599686-.5442468,1.8965814-.9236804,3.8272872-1.0151189,5.8169214-.2649945,5.7660388,1.0446409,11.1399747,3.5874877,16.1932723.9057788,1.8000438,1.8878801,3.561262,3.1731804,5.0982744,1.2759122,1.5257857,2.5689173,3.0353629,3.8479186,4.5582484.2794075.3326952.5494104.6778567.7925259,1.0409809.915587,1.3675599,1.0931314,2.8026201.3019427,4.3089112-.2047229.3897407-.4046708.783364-.6294247,1.1599017-.4180651.7003685-.8569382,1.3866218-1.2797976,2.0838095-1.6728232,2.7580994-2.9211285,5.7254708-3.6251307,8.9169896-.5198046,2.3564654-.9144351,4.7475932-1.2844216,7.1373877-.5482352,3.5411008-.7380138,7.1179633-.4079136,10.6897854.3698711,4.0021426,1.0076501,7.9658689,1.916691,11.8755669.9123524,3.9239535,2.399616,7.6146029,3.9894923,11.2656782.2518391.578337.492184,1.1643456.7011026,1.7613937.2974752.8501393.1193624,1.644917-.3765861,2.3481974-.2497385.3541311-.5595646.6660921-.8690612.9657037-3.1820316,3.0803164-5.0473435,6.9433184-5.8419865,11.3908556-.5369895,3.0055187-.9558605,6.0366483-1.3633307,9.0661172-.297165,2.209361-.5590497,4.4292002-.7130525,6.6540681-.256205,3.7013849-.1946003,7.4028165.3329998,11.0827304.4528057,3.158178.9674439,6.3039364,2.1411566,9.2693432.8606397,2.174418,1.7191279,4.3540517,2.6916009,6.4725703.698634,1.5219616.5748316,2.7471417-.5137005,4.0071244-.8042658.9309245-1.5389983,1.9793079-2.0953406,3.0938585-1.3246058,2.6535627-2.3630947,5.4418455-2.97904,8.3904122-1.3235665,6.3359324-1.7515277,12.7460311-1.3973821,19.2197942.0313316.5727237.0919505,1.1449328.1649794,1.7135868.3085342,2.4023193.5916747,4.8091995.9505788,7.2031456.4533795,3.0240895.934171,6.0448344,1.4794928,9.0513354.2260925,1.2464873.5838325,2.4790349,1.0075993,3.6670266.2707992.7591331.7363402,1.4518417,1.1802959,2.1252078.4420254.6704424.9661424,1.2795358,1.5011178,1.9765948.8863738.1991798,1.8738254.4210701,2.6722028.6004863.6019716.5859852.695696,1.1340336.6990734,1.7288129.0033829.595598-.095792,1.1418221-.5221825,1.5399009-.6242982.8247155-1.6082488.3635802-2.4571691.7952221-.2845697.7047305-.6051211,1.4554436-.8931177,2.2200263-.807311,2.1433342-1.1971802,4.4078462-1.6757393,6.6460457-.812362,3.7994311-1.4646968,7.6268119-1.6540538,11.5259264-.1736714,3.5761374-.0948557,7.1398085.2982331,10.7072218.4072299,3.6957481,1.323373,7.2599806,2.1830268,10.8434387.6695376,2.7909257,1.6018592,5.4733971,2.8392278,8.0455431.6672983,1.3871013,1.5058338,2.6019201,2.5413791,3.681785.3426364.357312.7053339.6956089,1.0237271,1.0759356.8967587,1.071211,1.1575822,2.3364328.9815068,3.7385966-.1215481.9679257-.449788,1.8546919-.8946334,2.6907043-.5613933,1.0550259-1.1831406,2.0737055-1.7439711,3.1290588-1.0916487,2.0543395-2.2000855,4.1005864-3.2248121,6.1927691-1.0000963,2.0418498-1.7312097,4.2012989-2.2331662,6.4496258-.8325536,3.7291241-1.4196853,7.5014708-1.822795,11.3075911-.5419389,5.1169271-.3421586,10.2008758.753013,15.2199438.828126,3.7952679,1.8796109,7.5254678,3.3937455,11.0836192.8703874,2.0453114.9408956,3.9859341-.0300809,6.0612768-1.1501162,2.4582655-1.9620224,5.0842762-2.4671448,7.7799389-.749729,4.0009965-1.5732172,7.9856208-2.0530544,12.0456976-.5716189,4.8367282-.841906,9.6644751-.1993493,14.5035422.5253471,3.9564173,1.5975537,7.7215135,3.7797801,11.0502666.7891993,1.203826,1.55584,2.4262228,2.2868505,3.6707454.4426048.7535431.8667382,1.5360885,1.1757186,2.3582079.5347448,1.4227928.5348519,2.8718746-.1566677,4.2591163-.7631562,1.5308962-1.3142498,3.1485651-1.7415986,4.8130586-.4262065,1.6600028-.8134082,3.331513-1.2059477,5.0011053-1.2854485,5.4675265-2.0506202,11.0146219-2.1196813,16.6539632-.036719,2.9983617-.0887145,6.0057515.3615718,8.9830165.8768059,5.7974033,2.5313842,11.286354,5.6874373,16.1796833.5083983.7882523.9540208,1.6234226,1.4105086,2.4482551.2735094.4942072.5479277.9939809.7597816,1.5196695,1.0149596,2.5185153.8048713,4.8024401-1.0090038,6.9022943-3.2793613,3.7963905-5.3183061,8.3022128-6.4409926,13.2960207-.67036,2.9817556-1.06479,6.013236-1.4637481,9.0463536-.4024604,3.0598277-.4617009,6.1034235.097677,9.1444466.241851,1.3148297.5117606,2.6238121.7535732,3.9386417.4322996,2.3505363,2.0299137,4.1620056,2.624153,6.4426092.0886692.3402615.4589097.5865933.6431705.9121198.2421105.4277827.4289661.891023.6365008,1.3324649-.152936.3537335-.2723699.6300031-.4285542.9912678-.5954063-.3133643-1.1109026-.5846286-1.5278309-.8040164-1.0389131.7531689-1.962875,1.4502981-2.9128854,2.1044852-1.0684173.7357676-2.0756267,1.5580273-2.7600002,2.7045973-2.0378918,3.4143564-2.8854625,7.1150864-2.2157273,11.1501839.590056,3.5551108,1.911673,6.833531,3.3172994,10.0861299,2.0755924,4.8027208,5.334228,8.4425929,9.5911338,11.0883905,2.6082243,1.6212708,5.4068326,2.7834178,8.3933536,3.2756604,3.0464961.5022062,6.1079818.2885721,9.1194765-.3718833,2.8966382-.6352422,5.6364549-1.7382621,8.0913395-3.5462698.1480566-.1089454.2914069-.2251882.350322-.2708901.1287368-.6381424.2283071-1.1316947.3285583-1.628615.2136607-.1725164.3897251-.3483073.5944672-.4688536.151143-.0890181.339745-.1058581.4859399-.1475371.6489835.0714297,1.1680878.346062,1.6301772.7902169.7794666.749146.6186692,1.8899156,1.0132709,2.8040468,3.8575016,1.3888321,7.7921069,2.2893978,11.8138603,2.4169608,2.8035701.0889245,5.6269872-.2478754,8.4305573-.5218528,2.8170907-.2753808,5.5039234-1.2076618,8.2028872-2.0762315,3.269954-1.052266,6.1188692-2.8954974,8.8186403-5.050643.9199831-.7345046,1.7094611-1.6025597,2.294208-2.8175188,0-.2722934-.0382443-.6586778.0071063-1.0336017.1420377-1.1744963.8242515-1.7906532,1.9440672-1.8255494.8200559-.0255407,1.5136485.3461087,2.1917436.7627584.670802.4122057,1.055288,1.0259301,1.0684901,1.8690527.0068866.4401788.0012192.8805448.0012192,1.4021638.5175392.4516394.9961752.9289598,1.529278,1.3227819,1.3364309.9871513,2.7819821,1.7678256,4.3278011,2.3034779,2.1638127.7497542,4.3374336,1.4695705,6.5191054,2.1582797,3.9416237,1.2443355,7.9437991,1.1804371,11.9362871.4035519,4.0772691-.7933978,8.0222757-2.1249739,11.864752-3.7678561,2.5603914-1.0946935,5.0461614-2.3761238,7.3036957-4.0918857,1.2677295-.9634818,2.5090878-1.9681748,3.7346849-2.9918128.5795078-.4840564,1.1519422-.9587105,1.9248901-.8930345,1.3594302.1155411,2.5844232.5241449,3.2734248,1.898663.030523.3728656.0779274.6901593.0787182,1.0075465.0032072,1.2752557.4722216,2.3397307,1.2133396,3.3178539.918731,1.2125267,2.0082654,2.192521,3.2975004,2.9160796,1.4872883.8348429,3.0155009,1.5763642,4.6614997,1.9827227,2.3333639.5759279,4.6803802,1.0902028,7.0093288,1.6851225,3.3719681.8613191,6.7859149.8605707,10.1932166.492149,6.8564504-.7414277,13.3710965-2.8711262,19.6830764-5.7546952.1049137-.0479004.184961-.1575475.2747835-.2367891.1440147-.4786302.2873265-.9549215.3937121-1.3085614,1.0156159-1.1613518,2.2985684-.2804328,3.4809786-.8231017.070294-.8075715.2013043-1.7028981.9604131-2.3632131.7466316-.5468322,1.6066782-.5806525,2.5018497-.1940342.9006413.389004,1.7929352.7877377,2.0537697,2.0861016-.0698546.376795-.1609073.8681019-.2675344,1.443375.3507009.4836354.6982826.9978635,1.0792539,1.4822941,1.6049648,2.0406804,3.7268318,3.163113,6.0923112,3.8332514,3.022728.8563139,6.110368,1.2782494,9.2209634,1.555361,2.3988911.2136809,4.7947727.023155,7.1917966-.0078587,2.4090617-.0312008,4.7749805-.4268004,7.1129355-1.0221879,2.9297422-.7460587,5.6608821-2.0469954,8.4029394-3.3425526,3.3359315-1.5761771,6.2600502-3.7443736,8.8419691-6.4698338.4641598-.4899504.9818308-.9224109,1.4189714-1.3295179.341365-.0532331.5763885-.1059984.8136086-.1223707.2382965-.0164658.4807887-.0165126.7180088.0103847,1.7222019.1952036,2.6609997,1.086367,3.0790071,2.9120099.2710271,1.1836648.6576439,2.3029166,1.2835017,3.3464351,1.5978036,2.6640877,3.8880026,4.3064086,6.6729613,5.2000979,2.7705045.8889648,5.6393545,1.3273661,8.5123783,1.3623559,2.6282251.0320896,5.2779997-.1884676,7.8685077-.764723,4.8716347-1.083841,9.6831461-2.4041904,14.322657-4.3601562.8909979-.3756255,1.7832258-.7524673,2.6911162-1.0773857,2.3461047-.8397546,4.5735664-1.9186839,6.506057-3.5961817.7645346-.663683,1.6182547-.8262358,2.534822-.5675547.8091054.2283223,1.6080621.511094,2.3919495.8251599,7.2952165,2.9227221,14.7216411,5.4042829,22.2404144,7.5862322,2.4418582.7085897,4.9196762,1.265713,7.4349258,1.2739459,3.2352354.0105718,6.4727992-.2696739,9.6407062-1.0643347,4.2441074-1.0646621,8.2386712-2.725507,11.6617672-5.7003862.6956905-.6046027,1.3996845-1.2012064,2.0619414-1.8457106.7198101-.7004504,1.5450611-.9922033,2.4834415-.7836213,1.261469.2802924,2.4102479.80135,3.1083108,2.0612158,1.5190524,2.7415517,3.8632679,4.2927963,6.6412411,5.2072549,1.0870521.35785,2.1763887.720097,3.2837382.9928115,1.8699071.4605272,3.758486.8345155,5.6933271.7424568.957843-.0456083,1.9173555-.1015545,2.8697947-.2140083,1.4277142-.1686807,2.8763847-.2687851,4.2700063-.6110113,8.6413238-2.1218866,16.0639262-6.5436959,22.0441844-13.3383078.5678434-.3795549,1.0438652-.6349147,1.4509112-.9820526,1.0352982-.8831644,1.9599712-1.8937046,2.6471825-3.1078217,1.0822194-1.9119947,2.1495892-3.8349354,3.1646778-5.7878139.4623146-.8894794.8162007-1.8483769,1.1638043-2.7988077.7190632-1.9658359,1.1678462-3.972275,1.3705564-6.1059495.228675-2.4069503.4178097-4.8257354.4889384-7.2262772.1831158-6.178689-1.3616818-11.9983585-3.8272862-17.5483074-.4833588-1.088051-1.1060754-2.1261434-1.7860376-3.0900929-.9523952-1.3501001-2.1418568-2.4022258-3.7783001-2.737716-.4663125-.095567-.9205433-.2883382-1.362209-.4831208-.8786744-.3875539-1.5395694-.9884143-1.6411881-2.2393923.0903277-.2858122.1844338-.7263653.3641666-1.1229472.4166235-.9189961.8473936-1.8331742,1.3210431-2.7198936,1.3336081-2.4965298,2.7201125-4.9613442,4.0343019-7.4692409,2.839085-5.4180824,5.2640507-11.0325378,7.0090103-16.9664387,1.4759973-5.0193486,2.3151754-10.1589161,2.557338-15.4044821.1176984-2.5501839.0409902-5.095269-.2250285-7.64709-.5778163-5.5431194-2.1510829-10.7115955-4.8038889-15.5121645-.7050044-1.2759105-1.5265211-2.4433902-2.7457258-3.2336539-.5930174-.3843262-.9625439-.9485129-1.0443485-1.8419684.6639703-2.5223043,1.5489712-5.0891411,2.6015354-7.5989089,1.5636012-3.7284692,3.0762832-7.4795788,4.3779954-11.3254602,2.3653037-6.9884122,3.5469451-14.1564511,3.0512409-21.6003853-.3774785-5.6680628-2.0273655-10.8645588-5.0785625-15.5340097-.5091918-.7792709-1.1375759-1.4739209-1.7404783-2.1789555-.440787-.5155378-.9932536-.9313922-1.231594-1.7323213-.0800912-.8512151.1846974-1.7002785.7586036-2.3828598.5755318-.6844524.9132063-1.4872525,1.2832162-2.2883219,1.4057912-3.0433619,2.3967603-6.2562465,3.4510817-9.4452276,1.3492046-4.0808929,1.8965749-8.2763914,1.8645472-12.5976286-.0375633-5.0664071-1.3891404-9.6770583-3.9193713-13.9282223-.3488777-.5862191-.7332099-1.1485347-1.0712359-1.6753459-.4662686,0-.8238452-.0295636-1.1756664.0057537-.9272212.0931345-1.7926277-.1263935-2.603073-.5771909-.9847304-.5476742-1.3171769-1.4572212-.9316146-2.5785312.1846095-.5367749.4556366-1.0406183.6975357-1.5540512,1.3222293-2.8066196,2.369741-5.7160568,2.9282265-8.8104065.3954035-2.1909306.848448-4.3719442,1.1790054-6.5738676.5804523-3.8670951.6865962-7.7546789.0879114-11.6322289-.2819227-1.8260172-.6818514-3.6319199-1.447704-5.3147269-.3400909-.7473217-.6769308-1.5033675-1.4706813-2.0420135-.4105606-.1179969-.937282-.2446711-1.448407-.4223799-.681412-.2368826-1.3818474-.4467745-2.0192378-.785352-1.9188053-1.0193111-2.7281963-2.8141275-2.3299371-5.0631326.110713-.6249978.2659748-1.2420434.4215001-1.8568203.7971774-3.151442,2.0066728-6.1436056,3.13801-9.1655667,1.8920057-5.0538238,3.400558-10.1992854,3.8907265-15.6640519.4122301-4.5964776.5970154-9.1705018-.1513956-13.7359657-.442808-2.7012761-.9122837-5.4025755-1.7812488-7.9987653-.3825749-1.1430383-.7975289-2.2702891-1.594882-3.1917644-.7817127-.3369871-1.5666765-.6488077-2.330684-1.0107741-1.2402929-.587599-2.0450708-1.5346384-2.1032391-3.0551265.2794185-1.3921299.8666805-2.6477623,1.4479676-3.9089846,1.029411-2.233779,2.1506875-4.4286857,3.0403014-6.7247025,3.3877293-8.7433272,4.8834529-17.8595901,4.411385-27.3103609-.1271881-2.5457166-.4944301-5.0724414-1.2544835-7.5184512-.6672654-2.1473103-1.5105292-4.1478319-3.1341439-5.7126186-1.3202523-1.2723788-1.660475-2.9089226-1.1920976-4.7278997.31685-1.2301853.5905132-2.479526,1.0006345-3.6747449,1.4843447-4.3261488,2.5379633-8.7691953,3.3449818-13.2876007.5152108-2.8847853.991672-5.7761428,1.166001-8.7081503.2434807-4.0940609.0585197-8.1717495-.6795668-12.2042977-.5993878-3.2745845-1.7753617-6.2276887-4.3602462-8.3361968-.1898815-.1548578-.3630683-.3342038-.5362111-.5108133-1.2708268-1.2964226-1.8192954-2.8120458-1.2801408-4.6773096.5460083-1.8888865,1.0737841-3.7838307,1.6044156-5.6777458.4961435-1.770796,1.0580558-3.5251028,1.464311-5.3192175,1.2090121-5.3393203,2.0155034-10.7534733,2.4699099-16.2250344.1635652-1.9702564.268479-3.9463016.4486072-5.9146869.2862721-3.1287664.2635145-6.2479435-.1573706-9.3598582-.378489-2.7985855-1.0219862-5.5394005-2.3415356-7.9979116-1.5221277-2.8357154-1.5607894-2.7507202-.7413816-6.3138183.0142345-.0618636.0387056-.120979.0546096-.1824801.666826-2.5814782,1.4230572-5.1412866,1.9811912-7.7491474,1.2106376-5.6565321,2.4139384-11.3136722,2.6883484-17.1486966.123937-2.6359743.0562352-5.2426072-.4140753-7.8129991-.7671267-4.1927503-2.3433808-8.0297205-4.8339835-11.4108531-.4836663-.6565962-.9546358-1.3183614-.9888163-2.4398936.2080701-.4402256.4536157-1.0927873.8036356-1.6740713.8810469-1.4633257,1.5311342-3.0340999,2.0211709-4.6820166,1.1634968-3.9126976,1.8045776-7.9442868,2.0521881-12.0200459.1853564-3.0519573.109395-6.1282099.0296113-9.19009-.0615951-2.3610087-.3947445-4.70485-1.0153962-6.9832433-.4171507-1.5316505-.9331523-3.0238965-1.8932359-4.1892712-.7899723-.2273985-1.4886063-.4065632-2.1736648-.6323887-.595258-.1962094-1.0959267-.5566087-1.2739901-1.2356641-.1774044-.6766171.0241635-1.2567375.6362482-1.8494645,1.0007223-.2833739,1.7682444-1.1646087,2.5269798-2.0863121,1.1909993-1.4468131,2.2541514-2.9873397,3.1441168-4.6579962.5585294-1.0483718,1.1788296-2.074489,1.256153-3.3422719.0181007-.2971266.2147041-.5854852.3435617-.870511.1813145-.4011866.4316488-.7768209.5558055-1.1958592.6684516-2.2562206,1.1945579-4.538362,1.1559841-6.9356732-.0348394-2.1708337-.0215275-4.3429245-.0038222-6.5142201.0152889-1.8774639-.2868433-3.6957745-.9656632-5.416948-.8112362-2.0569239-1.6716781-4.094726-2.5913867-6.09887-.3627168-.7903587-.9277045-1.4797418-1.4297351-2.1918208-.3230447-.4582263-.7301345-.8500735-1.0455787-1.3133518-.9599079-1.4096438-2.1588592-2.5640389-3.3917712-3.6850112-1.3348383-1.2136742-2.7876386-2.2046408-4.4946394-2.729391-1.4374235-.4418767-2.8519576-.9820401-4.3058562-1.3462833-2.6419544-.6618872-5.2368997-.547395-7.6992091.8387832-.4224667.2378526-.8711178.4253335-1.3146288.6179117-1.0100802.4385957-2.0625565.7210984-3.1534747.6380518-1.0530474-.0801581-2.020424.1742311-2.9720724.5967894-2.3224684,1.0312496-4.6611922,2.0160533-6.7877601,3.4915193-.8954571.6212965-1.834145,1.2288112-2.8382503,1.2508903-1.0623613-.0729192-1.8322119-.5597019-2.6220085-1.0303769-1.4102285-.8403934-2.8307376-1.6660211-4.2809458-2.4239555-1.0251495-.5357868-2.1380785-.8347757-3.279916-.9536921-5.5375381-.5766954-10.5730676.8559309-15.0864009,4.3237178-.7403491.5688499-1.5128797.7539174-2.3694555.4270168-.5064679-.1932901-1.0117277-.405382-1.4891115-.6676665-6.2013767-3.4070913-12.7950595-4.9683316-19.7632774-4.8501768-3.60072.0610523-7.1863488.2546012-10.7662222.7132806-4.665322.5977527-9.2065531,1.682041-13.5852954,3.5081254-1.6175737.6745735-3.2444395,1.3261279-4.8452525,2.0433365-1.7658501.7911466-3.5015396.7249912-5.2421937-.0463612-.3316776-.1469714-.6660133-.2925014-.9826436-.4717392-2.4527977-1.3885368-5.0707423-2.2888014-7.7637916-2.9525151-3.6513756-.8998947-7.3491891-1.1405854-11.0793379-.7692298-2.0889826.2079696-4.1794809.4111474-6.2611265.6865471-1.9611574.2594588-3.9266643.5302144-5.8629333.9418032-2.5238605.536487-5.0208995,1.216225-7.5292515,1.8352338-1.5814163.390267-3.1695105.7423355-4.8046138.4901784-1.0072904-.1553446-2.0089353-.3551135-3.0099213-.5531516-1.3546963-.2680089-2.698563-.6107847-4.06075-.8205669-3.8549425-.593667-7.716475-1.1390417-11.5761404-1.6975201-3.4205258-.4949308-6.8250598-.3102828-10.1963359.4098756-3.7663721.8045543-7.4225365,2.0258606-11.0093075,3.4895064-1.7892008.7301133-3.5878474,1.4360031-5.3962473,2.1101322-1.3157491.4904752-2.593847.3326002-3.8089878-.4153515-.9857629-.6067647-1.9800709-1.1982214-2.9774543-1.7831526-2.3785498-1.3949512-4.8943924-2.4194093-7.5591044-2.9663029-1.7625331-.3617384-3.5469012-.614888-5.328809-.8552746-4.114437-.5550519-8.1434669-.106665-12.0441444,1.3888219-1.4621912.5605834-2.8888729,1.2497296-4.2800562,1.9903197-1.4895069.7929227-2.980903.8701221-4.5308958.3443458-.969749-.3289471-1.9546552-.6253311-2.8926402-1.0393378-4.3759635-1.9314455-8.924279-2.9149964-13.6601255-2.9134849-2.6990243.000861-5.3985648.0502744-8.0969411.0086422-3.9700379-.0612526-7.9044564.2630197-11.808385,1.0324556-.8977636.1769428-1.7766578.1076693-2.6582099-.2087984-1.1934925-.4284552-2.3596363-.9024953-3.5049445-1.4713875-1.1873528-.5897786-2.4346751-1.0821351-3.6994391-1.4440927-1.1496027-.3289998-2.3528595-.546398-3.5412118-.60241-3.8335797-.1806923-7.6711903-.2651554-11.5072853-.3848378-1.7442896-.0544201-3.4804514.0709093-5.1955251.397845-4.0530836.7726153-7.8727253,2.209016-11.3181726,4.6600719-1.6219122,1.1538132-2.9863069,2.5625142-3.8060992,4.4902847-.2518501.592211-.5642628,1.1280197-1.2643576,1.490967Z" stroke-width="0"/>
  </g>
</svg>