<?xml version="1.0" encoding="UTF-8"?>
<svg id="Layer_2" data-name="Layer 2" xmlns="http://www.w3.org/2000/svg" viewBox="0 0 277.6381717 334.0880667">
  <g id="Layer_1-2" data-name="Layer 1">
    <g>
      <path d="m275.6390595,274.2223398l-.1313477-.0449219c-2.5195312-.8623047-5.125-1.7539062-7.4541016-3.0820312-2.8481445-1.625-5.4082031-3.9785156-7.6103516-6.9960938-7.9428711-10.8828125-10.1455078-21.7353516-6.7333984-33.1757812,1.4404297-4.8291016,3.4521484-9.7558594,6.5229492-15.9726562.9545898-1.9326172,1.9365234-3.8525391,2.9179688-5.7734375,2.0585938-4.0273438,4.1870117-8.1923828,6.015625-12.3974609,4.9760742-11.4462891,7.152832-21.8408203,6.6538086-31.7783203-.621582-12.3886719-4.8588867-22.4160156-12.9541016-30.6533203-5.8295898-5.9326172-13.3500977-10.2939453-22.9916992-13.3359375-2.6323242-.8310547-5.4443359-1.2841797-8.1323242-1.3125-10.9467773-.0712891-21.0571289,3.2294922-30.9155273,10.2099609-6.4819336,4.5908203-10.5556641,10.7480469-12.1069336,18.3017578-.0488281.2392578-.1176758.4755859-.1938477.7333984l-.2216797.7890625-3.0424805-1.2617188c-1.9179688-.7919922-3.8027344-1.5712891-5.6772461-2.375-3.9306641-1.6855469-7.6015625-2.6435547-11.2226562-2.9306641-3.1791992-.2519531-6.4667969-.5126953-9.7817383-.8330078-1.0664062-.1035156-2.1391602-.2695312-3.1767578-.4306641-.4760742-.0742188-.9521484-.1484375-1.4287109-.2158203l-.3476562-.0498047.0810547-.8535156,2.0717773-.6923828c1.4443359-.4824219,2.8886719-.9638672,4.331543-1.4501953.7338867-.2470703,1.4648438-.5058594,2.1958008-.765625,1.5043945-.5332031,3.0595703-1.0849609,4.6254883-1.5224609,5.8652344-1.6376953,10.8681641-3.9824219,15.2939453-7.1669922,1.605957-1.1552734,3.5683594-2.8056641,4.4990234-5.3310547.7666016-2.0810547.7900391-4.0019531.0708008-5.875l-.125-.3261719,3.5375977-1.5771484c2.7797852-1.2373047,5.5302734-2.4619141,8.2666016-3.7167969,1.1049805-.5058594,2.1674805-1.0185547,3.0209961-1.7207031,1.7768555-1.4599609,2.4384766-3.3310547,1.9663086-5.5615234-.2651367-1.25-.703125-2.5302734-2.1035156-3.4179688l-.5703125-.3623047,1.8549805-.859375c1.1660156-.5400391,2.2197266-1.0283203,3.2719727-1.5195312,4.0048828-1.8691406,6.8955078-3.8955078,9.097168-6.3779297.8569336-.9658203,1.4926758-1.9345703,1.890625-2.8798828.4555664-1.0820312.4731445-2.1601562.0507812-3.1191406-.4345703-.9873047-1.3164062-1.7607422-2.4824219-2.1777344-.4194336-.1494141-.8510742-.2558594-1.3076172-.3681641-.2089844-.0517578-.4179688-.1025391-.6254883-.1582031l-.3457031-.09375.0996094-.4404297c.0146484-.0927734.034668-.2197266.1352539-.3310547.2255859-.2490234.4541016-.4970703.6982422-.7275391,5.84375-5.5058594,11.9038086-11.6171875,16.6401367-18.9921875,1.6567383-2.5791016,2.9526367-4.890625,3.9614258-7.0673828.5478516-1.1806641.8115234-2.6875.7060547-4.03125-.2006836-2.5703125-2.6220703-4.4833984-5.8881836-4.6542969-.6455078-.0351562-1.2998047-.0263672-1.9902344-.0166016-.3330078.0048828-.6743164.0087891-1.0283203.0087891h-.6967773l1.0390625-1.5253906c.9335938-1.3457031,1.8759766-2.6845703,2.8188477-4.0234375,2.1157227-3.0068359,4.3041992-6.1162109,6.347168-9.2412109,3.0112305-4.6064453,4.7436523-8.9970703,5.2963867-13.421875.3183594-2.5449219-.4628906-4.71875-2.1430664-5.9658203-1.6552734-1.2294922-3.921875-1.3457031-6.2172852-.3251953-1.8725586.8320312-3.640625,2.0722656-5.2910156,3.2714844-4.8442383,3.5205078-9.0307617,7.9189453-13.0795898,12.1728516-.7353516.7724609-1.4707031,1.5449219-2.2094727,2.3125-4.206543,4.3671875-8.3833008,8.9072266-12.4223633,13.296875-2.0913086,2.2734375-4.1831055,4.546875-6.2880859,6.8076172-.2104492.2265625-.8759766.7861328-1.4067383.6191406-2.0498047-.6132812-4.090332-.2714844-6.6181641,1.1054688-.4614258.2519531-.9160156.515625-1.4091797.8017578l-1.4101562.8115234.1230469-1.0488281c.0185547-.1953125.034668-.34375.0712891-.4863281,1.4155273-5.5546875,2.8320312-11.1103516,4.2563477-16.6630859.5483398-2.1376953,1.1152344-4.3486328.7719727-6.6201172-.2348633-1.5527344-1.121582-2.5791016-2.6362305-3.0517578-1.7607422-.5488281-3.6108398-.3496094-5.6557617.6132812-.2216797.1035156-.4453125.203125-.7270508.328125l-1.2070312.5410156,1.8496094-7.4892578c1.1513672-4.6679688,2.3417969-9.4951172,2.2265625-14.4052734-.0307617-1.3222656-.246582-2.5683594-.6240234-3.6035156-.3852539-1.0556641-1.0317383-1.7871094-1.8701172-2.1152344-.8198242-.3203125-1.7626953-.2285156-2.7285156.2675781-1.1821289.6064453-2.3574219,1.5166016-3.3984375,2.6308594-3.7617188,4.0273438-6.3598633,8.1875-7.9423828,12.71875-.3671875,1.0517578-.7827148,2.1015625-1.184082,3.1171875-.3398438.8583984-.6791992,1.7167969-.9936523,2.5839844-2.1181641,5.8339844-4.3691406,12.0478516-6.5625,18.2314453-.4960938,1.3994141-.9667969,2.8085938-1.4370117,4.2177734-.7358398,2.2021484-1.4960938,4.4794922-2.3481445,6.6835938-.4873047,1.2607422-1.5102539,2.3535156-2.4125977,3.3173828-.3115234.3330078-.7163086.6923828-1.1801758.6279297-.480957-.0644531-.7939453-.5390625-1.0600586-1.0419922-.1777344-.3359375-.3447266-.6787109-.5117188-1.0224609-.3334961-.6835938-.6782227-1.3916016-1.1030273-2.0126953-1.3173828-1.9248047-3.3232422-2.4072266-5.2363281-1.2587891-1.3041992.7851562-2.5258789,1.8212891-3.5332031,2.9970703-4.5961914,5.3681641-7.5170898,12-8.6816406,19.7089844-.6391602,4.2333984-1.0698242,8.5751953-1.4858398,12.7753906-.1894531,1.9101562-.3789062,3.8212891-.5878906,5.7285156-.0263672.2412109-.0605469.4804688-.0981445.7441406l-.1767578,1.2900391-.5380859-.6826172c-.5615234-.7128906-1.1088867-1.4169922-1.6494141-2.1113281-1.2885742-1.65625-2.5053711-3.2197266-3.7910156-4.7568359-1.090332-1.3037109-1.5605469-2.7011719-1.4384766-4.2724609l.0844727-1.0849609c.2011719-2.6005859.4091797-5.2900391.7167969-7.9267578.3510742-3,.5834961-6.1855469-.7285156-9.2558594-1.6005859-3.7441406-4.2988281-5.6230469-8.2485352-5.7431641-.1401367-.0039062-.2797852-.0244141-.4423828-.0498047l-1.0102539-.1376953.5810547-.5332031c.2724609-.25.5410156-.4873047.8027344-.71875.5634766-.4980469,1.0957031-.96875,1.5683594-1.4804688.5288086-.5732422.5991211-1.4287109.1538086-1.8671875-.4980469-.4912109-1.0053711-.4765625-1.8095703.0439453-.7368164.4775391-1.4824219.9423828-2.2280273,1.40625-.5195312.3242188-1.0395508.6474609-1.5561523.9765625-2.074707,1.3164062-4.2421875,1.2880859-6.4428711-.0869141-2.5400391-1.5859375-4.3491211-3.7470703-5.3774414-6.4238281-.4770508-1.2421875-.8730469-2.5332031-1.2553711-3.78125-.1767578-.5761719-.3530273-1.1523438-.5375977-1.7246094-.9467773-2.9365234-2.1108398-6.0185547-4.1992188-8.6621094-3.2861328-4.1591797-8.5112305-5.7275391-13.637207-4.0917969-.1850586.0566406-.3325195-.0263672-.4199219-.0751953l-.2055664-.0927734-.0878906-.265625-.0136719-.3046875c-.0107422-.2421875-.0214844-.4912109-.0400391-.7402344l-.0673828-.9853516c-.1630859-2.4560547-.331543-4.9970703-1.5004883-7.2636719-.5825195-1.1308594-1.3442383-1.7998047-2.1450195-1.8857422-.7617188-.0761719-1.565918.3554688-2.3149414,1.2666016-1.1171875,1.3574219-2.1083984,2.8710938-3.0668945,4.3339844-.3930664.5996094-.7861328,1.2001953-1.1889648,1.7919922-.1542969.2275391-.2788086.4755859-.3999023.7158203-.059082.1171875-.1176758.2324219-.1777344.3427734l-.1347656.25-.4160156-.0947266c-.0966797-.0166016-.2060547-.0361328-.3100586-.1181641-.1479492-.1181641-.2866211-.2451172-.4248047-.3720703l-.0834961-.0761719c-2.8432617-2.59375-5.9394531-3.9316406-9.4643555-4.0908203-6.3149414-.2724609-11.1362305,2.2753906-14.7124023,7.8261719-.2788086.4316406-.543457.8730469-.8081055,1.3144531-.4594727.7666016-.9345703,1.5595703-1.4794922,2.2929688-1.7880859,2.4101562-3.9956055,3.9130859-6.5620117,4.4667969-.8227539.1787109-1.7348633.0390625-2.5966797-.1386719-.8173828-.1699219-1.1962891-.8027344-1.0390625-1.7373047.1308594-.7802734.1069336-1.6875-.0668945-2.5537109-.2529297-1.2597656-1.0991211-2.0185547-2.1503906-1.9140625-1.0170898.0927734-2.0039062.9609375-1.8955078,2.2539062.1040039,1.2373047.4819336,2.6230469,1.0932617,4.0078125.3037109.6875.8154297,1.3222656,1.3100586,1.9365234.2319336.2871094.4633789.5751953.6767578.8681641l.1748047.2412109-.1982422.2216797c-2.3242188,2.5976562-2.8598633,5.2705078-1.6367188,8.1699219,1.3037109,3.0917969,4.1967773,3.6279297,7.2592773,4.1943359l.5947266.1103516-.2250977.4404297c-.7070312,1.3818359-1.628418,2.8867188-3.6230469,3.2568359-.4589844.0849609-.9047852.2294922-1.3764648.3818359-.4682617.1513672-.9521484.3085938-1.4511719.4023438l-.5195312.0996094c-1.2529297.2402344-2.5483398.4892578-3.840332.4892578-1.5322266,0-3.0864258-.0654297-4.5898438-.1279297-1.7739258-.0742188-3.609375-.1455078-5.4052734-.1210938-3.4428711.0576172-6.418457,2.7294922-6.7744141,6.0820312-.1254883,1.1806641-.4345703,2.4365234-.8945312,3.6308594-.8964844,2.3291016-1.7055664,4.859375-1.5537109,7.5791016.1484375,2.6757812,2.0390625,4.7070312,4.7045898,5.0566406.3964844.0517578.8510742.3115234,1.1049805.6328125,2.5083008,3.1679688,5.574707,4.3251953,9.1162109,3.4423828,1.9038086-.4755859,3.7807617-1.2529297,5.5957031-2.0048828.5976562-.2480469,1.1948242-.4951172,1.7944336-.7333984.8735352-.3447266,1.4208984-.0605469,1.9970703.3183594,1.0717773.7050781,2.3486328,1.4990234,3.6904297,2.0478516,1.0625.4326172,2.2358398.6914062,3.3701172.9414062l.5605469.125c2.4931641.5625,4.5839844.7958984,6.6845703.1035156.5668945-.1855469,1.2885742-.1474609,1.7583008.0927734,3.59375,1.8398438,6.9921875,2.6816406,10.3935547,2.5722656.8408203-.0302734,1.3642578.2958984,1.6865234,1.0458984,2.3227539,5.4189453,1.8334961,10.171875-1.4951172,14.53125-1.6635742,2.1777344-3.3769531,4.5185547-4.4482422,7.0898438-1.7587891,4.2216797-1.5356445,8.2626953.6293945,11.3769531,2.0917969,3.0107422,5.8198242,4.7832031,9.7573242,4.6337891.8964844-.0410156,1.2060547.4042969,1.3916016,1.0771484.777832,2.8115234.4438477,5.671875-1.0825195,9.2724609-1.9492188,4.5996094-2.5605469,9.2792969-1.8691406,14.3066406.5966797,4.3427734,2.6201172,6.9375,6.3671875,8.1630859.8793945.2871094,1.1777344.7480469,1.0996094,1.7011719-.5209961,6.40625.4916992,12.6923828,3.0107422,18.6826172,1.1762695,2.796875.8291016,5.0966797-1.0610352,7.0292969-.1259766.1289062-.2495117.2597656-.3725586.390625-.2294922.2431641-.4589844.4863281-.703125.7148438-4.7705078,4.4501953-9.5981445,7.5742188-14.7597656,9.5527344-3.3066406,1.2675781-6.2270508,3.3261719-8.6796875,6.1181641-2.503418,2.8505859-3.6235352,5.9111328-3.3286133,9.0947266.2822266,3.0556641.8051758,5.6318359,1.5986328,7.875,1.3740234,3.8837891,2.3710938,7.8818359,2.9628906,11.8857422.3164062,2.140625.5859375,4.3222656.8461914,6.4326172.3388672,2.7441406.6889648,5.5820312,1.1464844,8.3496094.7211914,4.3642578,1.0097656,8.5009766.8818359,12.6494141-.0629883,2.0576172.3295898,4.1835938.7089844,6.2402344l.1835938,1.0029297c.2734375,1.5273438,1.0483398,2.8066406,2.2407227,3.6982422.793457.5917969.7568359,1.2509766.5986328,1.875-.6328125,2.4980469-1.1103516,4.5498047-1.503418,6.4570312-.4663086,2.2607422-.4321289,4.2128906.1044922,5.96875.5014648,1.6416016,1.4301758,2.765625,2.6157227,3.1650391,1.1655273.3925781,2.5512695.0712891,3.9038086-.9023438.6630859-.4785156,1.1611328-.4941406,1.8378906-.0615234,1.3300781.8515625,2.6894531,1.1572266,3.9316406.8818359,1.1879883-.2626953,2.230957-1.0556641,3.0166016-2.2919922.8657227-1.3632812,1.4897461-2.9140625,1.7573242-4.3671875.4824219-2.6259766.8012695-5.3330078,1.109375-7.9521484.0888672-.7558594.1782227-1.5117188.2709961-2.2666016l.0722656-.5761719c.2763672-2.1767578.5375977-4.2333984-.3330078-6.2988281-.2783203-.6621094-.2998047-1.6259766-.0581055-2.5791016.7197266-2.8330078.7836914-5.4580078.1967773-8.0253906l-.2392578-1.0517578c-.402832-1.7763672-.8193359-3.6142578-1.3081055-5.3945312-.6816406-2.4833984-1.3837891-4.9619141-2.0854492-7.4394531-1.2573242-4.4375-2.5571289-9.0263672-3.7138672-13.5732422-.6411133-2.5214844-1.0395508-5.140625-1.4248047-7.6728516-.1611328-1.0595703-.3222656-2.1191406-.5004883-3.1738281-.1035156-.6113281-.0063477-1.0771484.2890625-1.3857422.296875-.3115234.7636719-.4326172,1.3920898-.3496094.5732422.0712891,1.1489258.1279297,1.7246094.1855469.9306641.0917969,1.8930664.1875,2.8354492.3447266,8.953125,1.4814453,16.1914062-1.4199219,21.5063477-8.6376953.1489258-.2021484.3242188-.3847656.3945312-.4589844l.1723633-.1787109.2587891.0634766,8.734375,3.5185547-.1577148.3496094c-.1137695.2529297-.2373047.5166016-.3652344.7890625-.2919922.6210938-.5942383,1.2626953-.8476562,1.9287109-1.3798828,3.6308594-3.7495117,6.4921875-7.2446289,8.7490234-1.3569336.8769531-2.5888672,2.0302734-3.7802734,3.1464844l-.5712891.5341797c-4.3046875,3.9951172-5.9008789,8.6103516-4.8798828,14.1074219.3569336,1.921875.4936523,3.3828125.4428711,4.7353516-.1054688,2.8271484-.2734375,5.6972656-.4360352,8.4726562-.1171875,2.0029297-.2348633,4.0048828-.3305664,6.0087891-.4594727,9.6171875-.8139648,17.5742188-1.1142578,25.0390625-.0957031,2.3886719.3452148,4.203125,1.3881836,5.7119141.3017578.4365234.0405273,1.1894531-.0463867,1.4091797-1.1142578,2.8164062-1.1791992,5.6699219-.1933594,8.4833984.4018555,1.1455078,1.1777344,1.9707031,2.1855469,2.3242188,1.046875.3681641,2.222168.1943359,3.3110352-.4863281.3232422-.2021484.6162109-.4609375.9262695-.7363281.1508789-.1328125.3017578-.2666016.4570312-.3945312l.1728516-.1416016.2060547.0878906c2.7294922,1.1650391,4.3051758.8623047,6.2426758-1.2138672,1.324707-1.4199219,2.2749023-2.8261719,2.8232422-4.1806641l.2348633-.5771484c1.2978516-3.1904297,2.6396484-6.4902344,2.6694336-10.046875.0014648-.2167969.0566406-.421875.1054688-.6025391l.0327148-.1230469c.9604492-3.7802734.6293945-7.4238281-1.0112305-11.1425781l-.2216797-.5019531c-.9287109-2.0996094-1.8886719-4.2705078-2.6293945-6.4833984-1.4326172-4.2802734-2.7592773-9.3759766-1.7348633-14.7226562.4760742-2.4853516.9331055-5.1865234,1.3979492-8.2587891.2192383-1.4511719.9179688-2.5908203,2.1357422-3.4824219,1.5795898-1.1591797,2.7753906-2.7138672,3.5537109-4.6220703.6459961-1.5810547,1.1591797-2.9736328,1.5698242-4.2587891.2675781-.8359375.7304688-1.2929688,1.5478516-1.5253906,3.2143555-.9140625,6.5380859-1.859375,9.8134766-2.8857422,1.6469727-.5166016,3.2084961-1.1826172,4.519043-1.7666016.7167969-.3203125,1.3032227-.3310547,2.0209961-.0361328,2.2041016.9013672,4.5551758,1.8105469,7.3984375,2.8603516.5996094.2216797,1.0234375.53125,1.1411133,1.3222656.1879883,1.2675781.4311523,2.4746094.7236328,3.5869141,1.487793,5.6650391,4.046875,11.015625,6.5214844,16.1894531l.8427734,1.765625c3.378418,7.1074219,8.8261719,12.3291016,16.1923828,15.5195312.6967773.3017578,1.378418.6386719,2.0595703.9765625.590332.2919922,1.1801758.5839844,1.78125.8525391,1.4853516.6630859,2.2705078,1.8300781,2.3330078,3.46875.0283203.7412109.0629883,1.4833984.097168,2.2246094.0673828,1.4501953.137207,2.9492188.1577148,4.4277344.0117188.8837891-.0219727,1.9101562-.3623047,2.8232422-1.4941406,4.0058594-3.3564453,8.5957031-6.5556641,12.3730469-2.0678711,2.4414062-4.2583008,4.8447266-6.3769531,7.1689453-.7851562.8613281-1.5698242,1.7216797-2.3505859,2.5869141-3.4882812,3.8642578-6.3652344,8.1367188-8.5498047,12.6992188-.409668.8554688-.9365234,1.6591797-1.4458008,2.4365234-.1591797.2431641-.3183594.4863281-.4741211.7314453-.40625.6376953-.8305664,1.265625-1.2553711,1.8935547-.8564453,1.2666016-1.7416992,2.5761719-2.440918,3.9384766-.7963867,1.5527344-.515625,3.2333984.6821289,4.0878906,1.1049805.7871094,2.5893555.5673828,4.0732422-.6005859.2504883-.1982422.480957-.4208984.7119141-.6435547.1293945-.125.2587891-.2490234.3911133-.3701172.140625-.1279297.2841797-.2509766.4438477-.3876953l.6025391-.5214844.203125.4521484c.6748047,1.5029297,1.9140625,2.2568359,3.7890625,2.3037109,3.0268555.0732422,6.0151367-.015625,8.793457-.1259766,1.6020508-.0644531,3.1342773-.671875,4.6845703-1.8583984.6235352-.4765625,1.2509766-.9492188,1.878418-1.421875,1.550293-1.1669922,3.1538086-2.3740234,4.6625977-3.6347656.8725586-.7285156,1.7270508-1.6826172,2.6889648-3.0019531.4462891-.6123047.6264648-1.1210938.5512695-1.5566406-.0805664-.4628906-.4663086-.9238281-1.1801758-1.4101562l-.2026367-.1376953.0488281-.2402344c.144043-.7080078.2832031-1.4199219.4223633-2.1337891.3056641-1.5673828.6220703-3.1884766.9985352-4.7763672.1992188-.8408203.3857422-1.6855469.5727539-2.5302734.7919922-3.5820312,1.6113281-7.2861328,3.4160156-10.6572266.7519531-1.4052734,1.5297852-2.859375,2.1542969-4.3642578,1.8208008-4.3896484,4.4116211-8.2802734,7.7001953-11.5634766,1.4291992-1.4277344,2.605957-3.2080078,3.815918-5.7724609,1.8999023-4.0273438,1.5351562-8.0029297-1.0849609-11.8173828-1.2744141-1.8544922-2.8857422-3.6425781-4.6606445-5.171875-4.3134766-3.7177734-6.4243164-8.6972656-6.4526367-15.2216797-.0131836-3.1367188,1.1318359-5.6367188,3.5009766-7.6416016,1.4941406-1.2646484,2.9101562-2.6845703,4.2792969-4.0585938.4760742-.4775391.9516602-.9541016,1.4321289-1.4267578.4379883-.4306641.8466797-.8896484,1.2788086-1.3759766.2041016-.2294922.4111328-.4619141.6254883-.6962891l.3017578-.3291016.5019531.671875c.1386719.1816406.2543945.3349609.362793.4941406,2.3095703,3.3867188,5.1289062,6.2871094,8.3779297,8.6201172.9174805.6582031,1.5371094,1.4570312,1.9492188,2.5136719,1.9604492,5.0136719,3.9819336,8.9960938,6.3603516,12.5322266,1.1577148,1.7216797,2.1289062,3.5976562,3.0678711,5.4111328l.5649414,1.0869141c.3032227.5791016.6865234,1.4833984.7910156,2.5058594.3823242,3.7236328.6523438,7.3701172-.2338867,11.0517578-1.1591797,4.8134766.1923828,8.5830078,4.0170898,11.2050781.6069336.4160156,1.0117188,1.3496094,1.0522461,2.0117188.0834961,1.3583984.1733398,2.7167969.2626953,4.0751953.3188477,4.8369141.6484375,9.8398438.6850586,14.7666016.03125,4.2216797-.6435547,8.5195312-2.0063477,12.7734375-.1499023.4677734-.3095703.9326172-.4692383,1.3974609-.3515625,1.0234375-.7148438,2.0810547-.9545898,3.1376953l-.0463867.2041016c-.2495117,1.0908203-.5322266,2.3271484-.2060547,3.2060547.6132812,1.6533203.2246094,2.9902344-.1870117,4.4052734l-.027832.0957031c-.3266602,1.1230469-.5517578,2.1503906-.6884766,3.1396484-.1342773.9667969-.1474609,1.78125-.0405273,2.4873047.1401367.9277344.5805664,1.671875,1.2392578,2.0986328.6430664.4150391,1.4760742.5097656,2.34375.2675781.5957031-.1669922,1.15625-.4648438,1.7495117-.7802734.3432617-.1826172.6870117-.3652344,1.0385742-.5224609.4262695-.1923828.8681641-.3916016,1.3432617-.3642578.8759766.0263672,1.7514648.0751953,2.6269531.1240234,1.2041016.0673828,2.4492188.1376953,3.6699219.1435547h.0366211c2.421875,0,4.1806641-1.1210938,5.0878906-3.2421875.7763672-1.8154297,1.7373047-4.21875,2.284668-6.7089844.1875-.8535156.1655273-1.7509766.1425781-2.7001953-.0224609-.9208984-.0458984-1.8740234.1401367-2.7890625.6674805-3.2841797-.0083008-6.3417969-.8378906-9.1572266-2.1816406-7.4033203-3.2807617-14.8828125-4.0683594-21.2236328-.5019531-4.0380859.1821289-7.9746094.84375-11.78125.0942383-.5429688.1884766-1.0849609.2797852-1.6279297,1.3608398-8.1240234.0942383-14.8945312-3.8725586-20.6992188-.5356445-.7841797-.8989258-1.7978516-.972168-2.7109375-.2919922-3.6328125-1.2089844-7.3046875-2.9731445-11.9082031-.9604492-2.5058594-1.1845703-5.0898438-.684082-7.9003906,1.1142578-6.2646484.5180664-11.8144531-1.8227539-16.9667969-.2290039-.5039062-.4116211-1.0292969-.5883789-1.5371094-.1201172-.3447266-.2397461-.6904297-.3745117-1.0292969-.625-1.5771484-.7426758-3.2236328-.359375-5.03125,1.2480469-5.8876953,1.5180664-11.3769531.8251953-16.7792969-.1367188-1.0693359-.2548828-2.1416016-.3720703-3.2128906-.4501953-4.0986328-.9155273-8.3369141-2.5200195-12.28125-.9672852-2.3769531-1.8168945-4.8417969-2.6386719-7.2255859l-.4472656-1.2958984c-1.0888672-3.1435547-2.5283203-5.7392578-4.4008789-7.9365234-.1704102-.2011719-.324707-.4150391-.5112305-.6748047l-.6855469-.9335938.6337891-.0732422c.2299805-.0263672.4379883-.0537109.6313477-.0800781.3955078-.0517578.7333984-.0957031,1.0717773-.109375,3.4492188-.1435547,6.7460938.5585938,9.7875977,2.0439453,4.0297852,1.96875,7.934082,4.6787109,11.605957,8.0527344,6.8774414,6.3183594,11.0952148,13.328125,12.8945312,21.4287109,1.1606445,5.2236328.9204102,10.8056641-.7558594,17.5673828-1.2675781,5.1132812-2.9667969,10.4570312-5.1938477,16.3369141-3.7260742,9.8388672-4.8149414,19.4443359-3.3271484,29.3652344,1.2973633,8.65625,4.2973633,15.7597656,9.1704102,21.7167969,7.4995117,9.1660156,17.3999023,13.2294922,30.2700195,12.3847656,5.0239258-.3251953,9.8876953-1.953125,13.109375-3.1494141,1.1552734-.4287109,2.0927734-1.2128906,2.9511719-2.46875.3618164-.5302734.4228516-1.2392578.1708984-1.9970703-.3120117-.9375-1.0366211-1.7226562-1.8461914-2Zm-79.4970703-132.0234375c1.0048828-2.0234375,2.4868164-3.8701172,4.5297852-5.6445312,5.6455078-4.9023438,12.4458008-7.9589844,20.7895508-9.3427734,5.5761719-.9257812,11.0117188-1.5859375,16.2319336.4707031,4.1982422,1.6523438,8.5400391,3.3613281,12.5605469,5.6132812,11.7260742,6.5664062,18.7045898,16.6933594,20.7416992,30.0986328.9780273,6.4365234.2729492,13.2041016-2.1557617,20.6884766-2.5395508,7.8251953-6.2290039,15.2763672-9.7963867,22.4814453l-.2543945.5136719c-3.2412109,6.546875-5.7407227,11.9423828-7.8666992,16.9794922-1.8432617,4.3662109-2.9848633,9.2412109-3.4907227,14.9052734-.512207,5.7402344,1.2402344,11.1787109,3.0219727,15.7421875.2724609.6972656.5541992,1.390625.8354492,2.0849609l.5166016,1.2783203-.746582.4941406-1.3208008-1.4736328c-.8056641-.8964844-1.6113281-1.7929688-2.4033203-2.7011719-3.9379883-4.515625-6.1982422-9.7109375-6.7177734-15.4414062-.4770508-5.2636719-.0439453-10.6542969,1.2875977-16.0224609,1.4794922-5.9609375,3.921875-11.8720703,7.9189453-19.1669922,2.484375-4.5351562,4.6884766-9.2021484,6.3310547-12.7607422,3.6713867-7.9550781,4.4326172-16.5654297,2.3266602-26.3212891-1.0546875-4.8867188-2.5517578-10.5595703-5.6567383-15.5839844-5.9887695-9.6904297-14.9282227-14.9052734-26.5688477-15.4970703-6.8217773-.3515625-13.3227539,1.7021484-18.8803711,3.6494141-4.0639648,1.4248047-7.5605469,3.1972656-10.6899414,5.4208984l-1.1962891.8496094.652832-1.3144531Zm-68.8286133-43.2451172c1.8681641-3.9873047,2.3486328-8.3955078,2.8129883-12.6572266l.2651367-2.4667969c.5498047-5.1845703,1.1181641-10.5458984,2.5976562-15.6845703,1.4423828-5.0126953,3.777832-9.6425781,6.9418945-13.7617188.362793-.4726562.7827148-.8974609,1.2265625-1.3476562.2148438-.2177734.4379883-.4443359.668457-.6884766l.3349609-.3564453.5322266.8925781c.2236328.3730469.4057617.6777344.5825195.9853516.0703125.1210938.1318359.2480469.1928711.375l.1098633.2207031c1.1166992,2.1464844,2.4838867,3.3779297,3.9536133,3.5625,1.4482422.1865234,3.0449219-.6523438,4.6166992-2.4101562.8837891-.9892578,1.6992188-2.2392578,2.4921875-3.8203125,2.2041016-4.3964844,3.5146484-9.2138672,4.7817383-13.8730469l.1538086-.5644531c.6054688-2.2255859,1.3349609-4.453125,2.0400391-6.6064453.3007812-.9189453.6020508-1.8369141.8945312-2.7578125.0439453-.1396484.1108398-.2519531.203125-.4091797.0478516-.0800781.1049805-.1767578.1733398-.3017578l.6230469-1.1337891.0922852,1.7851562c.0131836.2724609.0224609.4794922.0405273.6845703.0488281.5625.2763672.78125.9355469.9013672.581543.1054688,1.1279297.3369141,1.65625.5605469.3188477.1357422.6376953.2714844.9633789.3769531.5385742.1767578.8164062.1591797.9550781.1113281,1.1958008-.4033203,1.8842773-1.6835938,1.6733398-3.1132812-.2026367-1.3769531-1.4282227-2.5292969-2.8510742-2.6816406-1.1191406-.1191406-2.0493164.2822266-2.8417969,1.2285156l-.2910156.3476562-.28125-.3554688c-.1118164-.1230469-.2612305-.2841797-.190918-.5087891.3339844-1.0566406.6518555-2.1191406.9702148-3.1826172,1.4145508-4.7275391,2.8779297-9.6171875,5.7807617-13.8544922,1.1699219-1.7070312,2.6308594-3.4697266,4.4667969-5.3876953.4604492-.4814453,1.1469727-.6845703,1.8115234-.8808594.2758789-.0810547.5517578-.1621094.8061523-.2636719l.3725586-.1494141.1171875.3837891c.0805664.2646484.1918945.5332031.3027344.8017578.2641602.6416016.5375977,1.3046875.4555664,1.9677734l-.1118164.9082031c-.3886719,3.1572266-.7900391,6.421875-1.5810547,9.546875-1.2939453,5.1103516-2.7734375,10.2626953-4.2041016,15.2451172-.4897461,1.7060547-.9794922,3.4121094-1.4633789,5.1191406-.1333008.4716797-.3232422.9228516-.5068359,1.359375-.1254883.296875-.2504883.5947266-.3574219.8974609-.340332.9658203-.1264648,1.7763672.5585938,2.1171875.7431641.3691406,1.534668.0351562,2.0634766-.8779297.402832-.6972656.7460938-1.4052734,1.0200195-2.1044922,1.0498047-2.6787109,2.8637695-5.0498047,5.5449219-7.2509766.6352539-.5205078,1.4277344-.9365234,2.2314453-1.1708984,1.0688477-.3144531,2.0117188-.2011719,2.6494141.3193359.4370117.3554688.9345703,1.0634766.8261719,2.4160156-.1484375,1.8515625-.4433594,3.8828125-.9277344,6.3925781-1.0317383,5.3427734-2.8759766,10.5185547-4.6601562,15.5244141-.3466797.9736328-.6938477,1.9462891-1.0351562,2.921875-.203125.5791016-.4047852,1.1591797-.5947266,1.7441406-.2597656.7998047-.1381836,1.3632812.3823242,1.7724609.512207.4023438,1.074707.3837891,1.8251953-.0576172.2749023-.1630859.5454102-.3339844.815918-.5058594.4316406-.2734375.8779297-.5566406,1.3427734-.8017578.8701172-.4589844,1.7548828-.890625,2.6396484-1.3222656l1.4052734-.6894531.496582.7871094-11.3481445,12.0966797-.4804688-1.1582031c-.1479492-.3613281-.2719727-.6640625-.4067383-.9619141-1.1420898-2.5136719-3.4208984-3.7021484-6.0917969-3.1826172-2.9306641.5703125-5.5932617,2.1064453-8.3808594,4.8369141-4.6577148,4.5605469-8.0356445,10.0058594-11.0961914,15.1933594l-1.4931641,2.5371094c-1.6289062,2.7734375-3.3134766,5.640625-5.0302734,8.4267578-2.9042969,4.7109375-5.1240234,9.7070312-7.090332,14.4033203-.0981445.2353516-.2016602.4697266-.3198242.7363281l-.4765625,1.0859375-.3691406-.5986328c-.2299805-.3720703-.4458008-.7373047-.65625-1.0947266-.4433594-.7509766-.8618164-1.4609375-1.34375-2.1142578-1.5214844-2.0664062-2.9785156-3.9443359-4.4545898-5.7431641-.6640625-.8085938-.996582-1.5800781-.4624023-2.7207031Zm-30.9873047-42.7617188c3.5805664,1.9345703,6.5019531,2.3505859,9.4765625,1.34375l.4785156-.1611328.0083008.5048828c.0141602.8564453.1269531,1.3242188.3779297,1.5644531.2421875.2333984.6923828.3242188,1.5112305.3017578l.1147461-.0029297c.6933594-.0175781,1.4106445-.0371094,2.1152344.0546875,2.2260742.2871094,3.7592773,1.5126953,4.5566406,3.640625.8691406,2.3173828.9833984,4.7626953.3701172,7.9287109-.1386719.7158203-.2485352,1.4365234-.3583984,2.1582031-.0976562.6425781-.1958008,1.2851562-.3134766,1.9238281-.5786133,3.1445312.2285156,6.2666016,2.5405273,9.8232422,1.3974609,2.1513672,3.0615234,4.1923828,4.6713867,6.1660156.4047852.4970703.8095703.9941406,1.2109375,1.4921875.9819336,1.2207031,1.3701172,2.6269531,1.1235352,4.0673828-.5029297,2.9365234.3286133,5.2802734,2.8701172,8.0888672,4.2006836,4.6396484,6.2504883,9.0166016,6.4516602,13.7724609.0600586,1.4199219-.1464844,2.859375-.3457031,4.2509766-.0683594.4755859-.1367188.9501953-.1943359,1.4238281-.2456055,2.0175781.434082,2.4667969.9667969,2.6298828.949707.2929688,1.8862305-.3583984,2.4482422-1.6972656.8393555-1.9980469.9628906-3.8808594.3676758-5.5966797-.7490234-2.1582031-.527832-4.1601562.7158203-6.4931641,1.0087891-1.8916016,1.9511719-3.8662109,2.8618164-5.7763672,1.152832-2.4150391,2.3442383-4.9130859,3.6875-7.2802734,2.7304688-4.8125,5.8149414-9.8251953,10-16.2529297,2.1333008-3.2753906,4.5253906-6.3642578,6.9936523-9.5019531,1.8847656-2.3955078,4.2368164-4.2060547,6.9912109-5.3789062.7231445-.3095703,1.2270508-.4921875,1.6245117-.2734375.3964844.2207031.5004883.7207031.6254883,1.5185547.1484375.9521484.2900391,1.9052734.4399414,2.9140625l.2602539,1.7470703-.5678711.2080078c-.2207031.0810547-.4848633.1787109-.75.2734375-1.5791016.5585938-3.5571289,1.4414062-4.8510742,3.3193359-.1982422.2880859-.4228516.6132812-.5039062.9316406-.0708008.2783203-.0454102.5839844.0063477.6542969.0600586.0410156.3662109.0683594.6474609.0039062.9360352-.2158203,1.8691406-.4472656,2.8022461-.6787109.9677734-.2392578,1.9355469-.4794922,2.9067383-.7021484.4140625-.0947266.8266602-.1201172,1.3046875-.1494141.2270508-.0136719.4692383-.0283203.7324219-.0527344l.5854492-.0537109-.40625,1.0869141c-.112793.3066406-.2021484.5478516-.2993164.7861328-.1079102.265625-.2236328.5292969-.3398438.7929688-.2143555.4882812-.4365234.9931641-.597168,1.4980469-.3579102,1.1269531-.1982422,2.1962891.4379883,2.9326172.6401367.7412109,1.6826172,1.0517578,2.8540039.8652344.2060547-.0341797.4082031-.0878906.6113281-.140625.1806641-.046875.3613281-.09375.5444336-.1298828l.6191406-.1259766c.644043-.1318359,1.3100586-.2685547,1.9790039-.3496094.7255859-.0859375,1.4433594-.1044922,1.7861328.3476562.3413086.4511719.1293945,1.1328125-.1508789,1.8017578-.0942383.2255859-.1933594.4492188-.2924805.6728516-.1918945.4355469-.3847656.8701172-.5419922,1.3164062-.340332.9677734-.2749023,1.8935547.1850586,2.6074219.4614258.7158203,1.2827148,1.1601562,2.3120117,1.2509766.4355469.0380859.8740234.0419922,1.3125.0458984.4335938.0039062.8671875.0087891,1.2983398.0429688,1.3500977.1074219,1.9160156.6484375,2.1523438,1.0830078.2397461.4404297.387207,1.2216797-.2714844,2.4462891-.2114258.3916016-.4741211.7470703-.703125,1.0429688-.9379883,1.2070312-1.8813477,2.4101562-2.8388672,3.6005859-.4375.5458984-.7329102.7304688-1.0214844.6347656-.5991211-.2021484-.8037109.0722656-1.1733398.6523438-.0581055.0917969-.1157227.1826172-.1757812.2695312-.6298828.9140625-1.2734375,1.8476562-1.8227539,2.8066406-.5893555,1.0263672-.5708008,2.0019531.0546875,2.9023438.625.8994141,1.5297852,1.2880859,2.7011719,1.1640625.6704102-.0742188,1.277832-.2382812,1.7568359-.4755859,5.3515625-2.6533203,8.0810547-6.4091797,8.3442383-11.484375.0527344-1.0048828.0810547-1.8466797.0483398-2.6894531-.1235352-3.1894531-1.8862305-5.4501953-4.9633789-6.3671875-.125-.0380859-.2436523-.0908203-.3881836-.15625l-.5273438-.2285156.0947266-.3154297c.8300781-2.7705078.5161133-4.6992188-1.0180664-6.2548828-1.5327148-1.5527344-3.5561523-2.2568359-6.1850586-2.1552734l-.3232422.0126953-.0546875-.3183594c-.0522461-.3046875-.0908203-.6064453-.1289062-.9023438-.0805664-.6269531-.15625-1.21875-.3544922-1.7451172-.1860352-.4960938-.5019531-.9501953-.8676758-1.4755859-.1743164-.2509766-.3554688-.5117188-.5327148-.7919922l-.152832-.2421875.1958008-.2080078c.3588867-.3808594.7211914-.7773438,1.0893555-1.1796875.8139648-.8896484,1.6557617-1.8105469,2.5556641-2.6787109,8.1201172-7.8339844,16.1079102-16.8056641,25.8989258-29.0898438,5.6044922-7.0322266,11.2714844-13.0742188,17.3251953-18.4736328,2.8422852-2.5351562,6.0014648-4.5839844,9.3891602-6.0908203.4311523-.1914062.8989258-.2470703,1.3505859-.3017578.1933594-.0234375.3867188-.046875.5751953-.0810547l.4213867-.0771484.0136719.4277344c.0058594.1904297.019043.3818359.0327148.5732422.03125.4541016.0639648.9238281.003418,1.3925781-.0888672.6796875-.2929688,1.3388672-.4902344,1.9755859l-.0600586.1933594c-2.0957031,6.8056641-5.3681641,13.4179688-9.7260742,19.6542969-2.8125,4.0234375-6.0019531,8.2197266-10.2563477,11.65625-.3735352.3017578-.7509766.6708984-1.1206055,1.0966797-.8891602,1.0205078-.9736328,2.2275391-.2163086,3.0732422.7202148.8056641,1.8774414.875,3.0200195.1835938.3666992-.2216797.7265625-.4658203,1.0874023-.7109375.8901367-.6035156,1.8100586-1.2285156,2.8388672-1.5205078,1.9003906-.5410156,3.8818359-.8808594,5.7983398-1.2109375.7055664-.1210938,1.4106445-.2421875,2.112793-.3730469.2231445-.0410156.4331055-.0175781.7241211.015625.1508789.0175781.3310547.0380859.5546875.0546875l.5322266.0371094-.2231445.484375c-.2387695.5175781-.4570312,1.0166016-.668457,1.5-.4394531,1.0058594-.8549805,1.9550781-1.359375,2.8574219-4.8637695,8.6992188-11.3720703,15.9785156-19.3432617,21.6357422-1.6533203,1.1728516-3.2973633,2.4228516-4.8876953,3.6308594l-.8710938.6621094c-.5029297.3818359-.9013672.7490234-1.21875,1.1240234-.8085938.9541016-.9794922,1.9882812-.5078125,3.0742188.4780273,1.0986328,1.3413086,1.6972656,2.4824219,1.6542969,1.1445312-.0332031,2.3139648-.1728516,3.4443359-.3085938.5390625-.0644531,1.0786133-.1289062,1.6181641-.1835938.2524414-.0253906.5063477-.0371094.8540039-.0546875l1.487793-.0800781-.5737305.6591797c-.1713867.1972656-.3139648.3662109-.4394531.5146484-.2402344.2851562-.4213867.4980469-.6201172.6933594-3.1728516,3.1191406-6.1137695,5.3525391-9.2543945,7.0283203-1.3178711.7021484-2.6162109,1.5058594-3.7299805,2.2041016-.8413086.5263672-1.1508789,1.1210938-.9746094,1.8720703.1757812.7509766.6982422,1.140625,1.6943359,1.2666016l.4814453.0566406c.6015625.0703125,1.2231445.1425781,1.824707.3017578.9677734.2578125,1.6831055.8710938,1.9624023,1.6835938.2734375.7939453.0947266,1.6914062-.4897461,2.4638672-.3227539.4248047-.9916992,1.1953125-1.8525391,1.5869141-2.4726562,1.1240234-5.0141602,2.2011719-7.472168,3.2421875l-1.6176758.6855469c-.6357422.2705078-1.2773438.5283203-1.9189453.7851562-1.0893555.4375-2.2158203.8896484-3.2871094,1.3984375-.8984375.4267578-1.3925781.8857422-1.46875,1.3642578-.0776367.4882812.2631836,1.0966797,1.0136719,1.8085938.3051758.2890625.4223633.8554688.3803711,1.265625-.1899414,1.8642578-1.3300781,3.0966797-2.4204102,4.0566406-6.5791016,5.7929688-13.6186523,8.9414062-21.5200195,9.6240234-4.4555664.3847656-8.5854492,1.8085938-13.1367188,3.4921875-1.4008789.5185547-2.2729492,1.1894531-1.9726562,2.7792969l.0688477.3662109-.3666992.0654297c-.2060547.0361328-.4047852.0751953-.5991211.1132812-.4863281.0947266-.9458008.1845703-1.4194336.2207031-.0214844.0019531-.0429688.0029297-.0644531.0029297-.3637695,0-.7573242-.2382812-.9550781-.4785156-1.2783203-1.5458984-2.5488281-3.0986328-3.8193359-4.6513672-1.3974609-1.7080078-2.7949219-3.4150391-4.2026367-5.1142578-3.5961914-4.3388672-6.3027344-9.3007812-8.6918945-14.0166016-3.0981445-6.1142578-5.5874023-12.5830078-7.9951172-18.8388672-1.0424805-2.7089844-2.1201172-5.5107422-3.2324219-8.2431641-4.2084961-10.3408203-8.6572266-18.9960938-13.6010742-26.4589844-.8808594-1.3300781-1.8569336-2.6357422-2.8012695-3.8974609-.4746094-.6347656-.949707-1.2705078-1.4155273-1.9111328-.0800781-.1103516-.1289062-.2197266-.2099609-.4003906-.0458984-.1025391-.1049805-.234375-.1894531-.4101562l-.4912109-1.0234375.9990234.5400391Zm-22.753418-20.0185547c.0483398-.1982422.0776367-.4287109.1079102-.6601562.0844727-.6396484.1713867-1.3007812.6259766-1.5605469,1.3974609-.796875,2.6162109-1.1923828,3.6342773-1.1435547,3.5361328.1347656,6.2148438,1.6445312,7.746582,4.3662109.9858398,1.7519531,1.7705078,3.6435547,2.5292969,5.4736328l.3251953.7822266c.6738281,1.6152344,1.3071289,3.2753906,1.9194336,4.8818359.2553711.6699219.5107422,1.3398438.7695312,2.0078125.0444336.1152344.0810547.2333984.1171875.3515625l.125.3935547-.6245117.4794922-.2280273-.1982422c-.2875977-.2509766-.5722656-.5048828-.8569336-.7587891-.605957-.5400391-1.2329102-1.0996094-1.8745117-1.6083984-.6323242-.5019531-1.2592773-1.0126953-1.8867188-1.5244141-1.7529297-1.4277344-3.565918-2.9052734-5.4711914-4.1523438-2.6298828-1.7226562-5.1420898-2.3671875-7.6806641-1.9609375l-.550293.0869141,1.2724609-5.2558594Zm-46.1660156,12.2646484c-1.5253906-.6269531-2.2875977-1.9511719-2.331543-4.0478516l-.0004883-.0273438.0151367-.1259766c.0161133-.140625.0415039-.3642578.0761719-.5869141.2978516-1.9189453.4633789-2.0751953,2.1767578-2.0351562l.309082.0058594c3.6210938.0644531,6.8706055-1.3720703,9.7265625-4.2529297,1.7905273-1.8056641,3.1918945-4.0498047,4.1640625-6.6689453,1.3530273-3.6464844,4.4858398-4.5146484,6.7241211-4.8505859,4.2290039-.6347656,8.3217773.6347656,12.5141602,3.8818359.3984375.3085938.5146484,1.0419922.4448242,1.4521484-.1943359,1.15625-.4462891,2.3183594-.6904297,3.4414062l-.2314453,1.0791016c-.0512695.2558594-.109375.5458984-.2568359.8007812-2.9584961,5.1347656-7.137207,8.0058594-12.4199219,8.5351562-5.9946289.6005859-10.199707,2.109375-13.6347656,4.8916016-.2563477.2089844-.6669922.3837891-1.0361328.3837891-.1015625,0-.1992188-.0136719-.2900391-.0419922-1.7294922-.5488281-3.5180664-1.1171875-5.2592773-1.8339844Zm38.4277344,104.7880859c-.4233398.6162109-.796875,1.2900391-1.1582031,1.9414062-.1708984.3085938-.3413086.6162109-.5170898.9189453l-.1464844.2519531-.2792969-.0849609c-3.6025391-1.0908203-4.9780273-2.8466797-5.0751953-6.4775391-.0864258-3.2519531.8686523-6.2871094,1.8144531-8.8271484.7490234-2.0126953,1.6884766-4.6738281,2.3022461-7.4111328.5-2.2285156.1391602-4.6044922-1.0722656-7.0615234-.3242188-.65625-.4018555-1.234375.2700195-1.921875,1.965332-2.0107422,2.9550781-4.5898438,3.0249023-7.8837891.0273438-1.2705078-.4106445-2.4169922-1.2661133-3.3164062-.8212891-.8632812-2.0366211-1.0693359-2.8896484-.4882812-.6567383.4462891-1.034668,1.6982422-.5581055,2.7041016.0380859.0634766.2929688.1738281.4794922.2548828.1889648.0820312.4033203.1748047.6303711.2978516l.230957.1259766-.043457.2587891c-.0415039.2509766-.078125.5263672-.1162109.8173828-.0966797.7294922-.2060547,1.5566406-.4448242,2.359375-.5766602,1.9394531-2.0200195,2.7890625-3.9594727,2.3222656-1.3212891-.3164062-2.6137695-.8056641-3.7373047-1.4160156-1.9418945-1.0566406-2.7636719-3.046875-2.2548828-5.4599609.4555664-2.1591797,1.2602539-3.9121094,2.4599609-5.359375.7045898-.8496094,1.4584961-1.7939453,2.3046875-2.8867188,4.0048828-5.171875,4.6987305-10.984375,2.1210938-17.7714844-.0825195-.2177734-.175293-.4306641-.2758789-.6621094l-.3125-.7304688.3789062-.1259766c.2866211-.0957031.565918-.1933594.8417969-.2900391.7304688-.2578125,1.4208984-.5,2.1489258-.65625.4667969-.1005859,1.1567383.3125,1.4169922.7216797l.1762695.2783203c1.0727539,1.6933594,2.1826172,3.4453125,3.1391602,5.2480469,3.3833008,6.3759766,4.609375,13.3808594,5.4296875,20.0009766.7919922,6.3886719,1.824707,13.1904297,3.9960938,19.6523438,1.2470703,3.7089844.6420898,6.9511719-1.9609375,10.5117188-2.1381836,2.9228516-4.2216797,5.9658203-6.2368164,8.9082031l-.8613281,1.2568359Zm-14.21875,130.8037109l-.1040039.1650391-.9067383.0332031v-.3818359c0-.4960938-.0107422-.9941406-.0209961-1.4912109-.0244141-1.1386719-.0493164-2.3144531.0561523-3.4707031.0766602-.8369141.2631836-1.6640625.4438477-2.4638672.1499023-.6660156.3051758-1.3544922.3916016-2.0302734.2246094-1.7519531,1.1533203-2.6416016,2.8388672-2.7207031l.3500977-.0166016.0336914.3486328c.1865234,1.9082031-1.9453125,10.2265625-3.0825195,12.0283203Zm12.2314453-14.5126953l.6914062-.5576172-.0932617.8837891c-.5273438,4.9921875-1.527832,10.1894531-5.2451172,14.3779297-.4331055.4892578-.996582.9902344-1.7431641.9902344-.2700195,0-.5639648-.0654297-.8842773-.2207031-1.1342773-.5517578-1.3730469-1.2119141-.8515625-2.3535156,1.3842773-3.0302734,2.2138672-6.1611328,2.4663086-9.3046875.0649414-.8076172.3271484-1.3691406,1.3945312-1.4873047,1.3740234-.1513672,1.972168-.4785156,4.2651367-2.328125Zm15.5273438,27.2001953c-.0566406.0087891-.1191406.0136719-.1850586.0136719-.3896484,0-.9042969-.1611328-1.078125-.4990234-.300293-.5820312-.5014648-1.2226562-.5830078-1.8525391-.1025391-.8007812-.152832-1.5996094-.2055664-2.4453125-.0224609-.3574219-.0454102-.7226562-.0732422-1.0976562l-.0322266-.4394531,2.3793945.2509766.1865234,1.4365234c.1630859,1.2431641.3173828,2.4169922.4316406,3.6171875.0400391.4189453-.4589844.9541016-.840332,1.015625Zm10.8339844-10.1005859c-.0053711,2.8496094-.2050781,6.1123047-2.5224609,8.7675781-.1132812.1376953-.2133789.2607422-.375.3251953-.2387695.0947266-.4863281.2216797-.7348633.3486328-.5566406.2841797-1.1289062.5761719-1.671875.5761719-.1162109,0-.2314453-.0126953-.3447266-.0429688-.8701172-.2304688-1.3706055-1.8125-1.465332-2.4990234-.2158203-1.5673828-.371582-3.2285156-.050293-4.7646484.2094727-1.0009766,1.2641602-2.1943359,2.2568359-2.5556641.9658203-.3496094,2.0048828-.3935547,3.1049805-.4404297.4589844-.0195312.9267578-.0390625,1.3999023-.0830078l.4033203-.0371094-.0004883.4052734Zm37.8168945,37.4638672l-.8510742-.6054688.050293-.2353516c.362793-1.7089844.9155273-3.6806641,2.2617188-5.3447266.0644531-.0791016.3945312-.4648438.8081055-.4580078.7285156.0146484,1.4570312.0576172,2.2900391.1064453l1.7485352.0986328-6.3076172,6.4384766Zm26.9414062-8.7021484c-.1699219.1582031-.3432617.3134766-.5161133.4677734-.3647461.3261719-.7412109.6621094-1.0703125,1.0195312-1.8110352,1.9648438-3.3212891,3.6210938-4.8051758,5.3173828-1.2558594,1.4365234-2.7954102,2.1630859-4.5800781,2.1630859-.1040039,0-.2084961-.0029297-.3134766-.0078125-2.5708008-.1181641-5.1420898-.2392578-7.7124023-.375-.2548828-.0136719-.5-.0673828-.8105469-.1347656-.1689453-.0361328-.362793-.0791016-.597168-.1230469l-.4819336-.0917969.8046875-1.5947266c.5058594-1.0107422.9838867-1.9648438,1.5024414-2.8867188.2568359-.4560547.9624023-.5976562,1.1728516-.6308594,2.3793945-.3701172,4.6098633-1.2255859,6.8188477-2.6152344.4970703-.3125.9145508-.4326172,1.2436523-.3544922,3.0610352.7275391,5.8266602.4804688,8.4545898-.7548828.2407227-.1113281.4848633-.1171875.7666016-.0136719l.5625.2070312-.4389648.4082031Zm16.1420898-96.0615234c-1.1816406,2.4482422-2.2978516,4.7617188-4.3422852,6.5419922-.1533203.1328125-.3046875.2695312-.4560547.4052734-.3408203.3066406-.6821289.6132812-1.0449219.8925781-3.4331055,2.640625-5.4228516,6.1933594-5.9145508,10.5615234-.6870117,6.1025391.3320312,11.3115234,3.1152344,15.9248047.4589844.7607422,1.0761719,1.4619141,1.6733398,2.140625.3012695.3427734.6020508.6845703.887207,1.0361328.5488281.6777344,1.1015625,1.3525391,1.6542969,2.0283203,1.331543,1.6259766,2.7080078,3.3076172,4.0146484,5.0019531,1.8149414,2.3525391,2.0283203,5.0839844.6162109,7.8984375-1.2358398,2.4619141-2.6259766,4.8916016-3.9702148,7.2421875-.4033203.7050781-.8061523,1.4091797-1.2060547,2.1162109-.6621094,1.1699219-1.3393555,2.3320312-2.0161133,3.4941406-.8984375,1.5410156-1.8271484,3.1347656-2.7021484,4.7207031-2.8657227,5.1933594-4.5063477,10.8876953-5.0151367,17.4091797l-.0991211,1.3388672c-.0888672,1.2392578-.1806641,2.5214844-.3344727,3.7792969-.0654297.5341797-.4970703,1.1582031-.9619141,1.390625-2.0498047,1.0244141-3.9829102,1.53125-5.8603516,1.53125-.5830078,0-1.1606445-.0488281-1.7348633-.1464844-.4921875-.0830078-1.1591797-.2705078-1.5410156-.6943359-.7021484-.7783203-1.5742188-1.0664062-2.7460938-.921875-.7958984.1015625-1.5883789.2353516-2.3803711.3681641-.9462891.1591797-1.9248047.3232422-2.8989258.4296875-.4765625.0556641-.9521484-.0332031-1.4111328-.1162109-.2856445-.0517578-.5722656-.1054688-.8574219-.1191406-.6499023-.0292969-1.3017578-.0234375-2.0483398-.0175781-.3549805.0039062-.730957.0068359-1.1381836.0068359h-.5595703l.2211914-.5136719c.2597656-.6044922.5053711-1.2148438.7509766-1.8251953.5390625-1.3378906,1.0966797-2.7216797,1.796875-4.0107422,1.5429688-2.8398438,3.7924805-5.15625,5.9677734-7.3955078.5927734-.6103516,1.1855469-1.2207031,1.7641602-1.8408203.7231445-.7753906,1.4516602-1.5458984,2.1801758-2.3164062,3.3735352-3.5654297,6.8623047-7.2529297,9.6958008-11.3808594.1992188-.2890625.4443359-.6220703.7553711-.9013672,2.6479492-2.3779297,3.7822266-5.4277344,3.4667969-9.3242188-.059082-.7285156-.1098633-1.4580078-.1601562-2.1884766-.1176758-1.6972656-.2392578-3.453125-.4726562-5.1582031-.2792969-2.0410156-1.4824219-3.6103516-3.6787109-4.7978516-2.6459961-1.4296875-5.6450195-3.0498047-8.3701172-4.9550781-4.9238281-3.4414062-8.8081055-8.2675781-11.8740234-14.7539062-2.0825195-4.4052734-4.2353516-8.9599609-5.5727539-13.8955078-.0683594-.2548828-.1230469-.5126953-.1894531-.8300781l-.2294922-1.0546875,2.0629883.2431641c1.2021484.1425781,2.3388672.2763672,3.4760742.4033203,4.5771484.5097656,9.4116211.0810547,15.2124023-1.3515625,7.2783203-1.7988281,14.8046875-3.6582031,21.6899414-7.1445312.0766602-.0380859.1586914-.0634766.296875-.1015625l1.0517578-.3144531-.5634766,1.1650391Zm44.8696289,102.9746094c-.1508789,2.1269531-.3803711,4.1923828-1.5205078,6.0673828-.6630859,1.0908203-1.6699219,1.6113281-3.168457,1.6367188-.5209961.0097656-1.0429688.0068359-1.5366211.0048828l-1.1210938-.0029297.4819336-1.6416016c.4633789-1.5771484.9111328-3.1005859,1.3540039-4.6259766l.0375977-.1230469c.027832-.0878906.0742188-.234375.0683594-.2861328-.0366211-.0830078-.0795898-.1972656-.1235352-.3144531-.0961914-.2558594-.2753906-.7314453-.3896484-.8154297-.2519531-.0185547-.8803711.2714844-1.0229492.5361328-.6933594,1.2783203-1.3476562,2.6992188-2.1210938,4.609375-.4545898,1.1201172-1.144043,2.3056641-2.8134766,2.5986328-.2866211.0498047-.5874023.1972656-.9682617.3828125-.21875.1074219-.4614258.2255859-.7436523.3476562l-.7451172.3232422.5351562-1.6845703c.1816406-.578125.3339844-1.0644531.5029297-1.5439453.0878906-.2490234.1972656-.4931641.3071289-.7363281.1767578-.3916016.3432617-.7607422.4052734-1.1347656.4624023-2.7832031,2.4414062-4.0742188,4.7871094-5.3613281.9047852-.4960938,1.6181641-.2324219,2.3300781.1064453.9584961.4560547,2.0400391.7382812,3.0859375,1.0117188.3134766.0820312.6264648.1640625.9370117.25.1606445.0449219.371582.0332031.6152344.0175781.144043-.0078125.2963867-.0166016.4589844-.0166016h.3955078l-.027832.3945312Zm-21.2016602-156.2099609c1.2553711,3.1728516,2.6020508,6.2255859,4.105957,9.6005859,1.4394531,3.2314453,1.9790039,6.6103516,2.3173828,9.4892578.6357422,5.4208984,1.1572266,10.7363281.5664062,16.1699219l-.1069336,1.0185547c-.1054688,1.0205078-.2143555,2.0761719-.3710938,3.1103516-.4086914,2.703125-.0698242,5.4453125,1.0073242,8.1503906,1.6704102,4.1972656,2.4404297,8.6230469,2.2885742,13.15625-.1723633,5.1630859,1.0097656,10.2226562,2.1533203,15.1162109.1694336.7255859.3388672,1.4511719.5043945,2.1777344.5463867,2.3984375.6777344,4.8701172.7382812,7.1845703.0522461,2.0283203.4794922,3.8720703,1.3051758,5.6367188,1.3852539,2.9628906,2.6713867,5.8896484,3.1855469,9.1171875.5400391,3.3876953.940918,7.0224609.2226562,10.6435547-.7670898,3.8701172-.3691406,7.6386719.1870117,11.8115234.7504883,5.6259766,1.6396484,11.5283203,2.6430664,17.5429688.1606445.9648438.4677734,1.9355469.7651367,2.8740234.2978516.9394531.6054688,1.9121094.777832,2.9033203.3037109,1.75.324707,3.4287109.0610352,4.8544922-.2338867,1.2685547-1.1201172,2.3173828-2.3701172,2.8046875-1.3286133.5224609-2.8505859.3212891-3.96875-.5185547-.7729492-.5800781-1.5449219-.7119141-2.4267578-.4150391l-.1826172.0585938c-.2060547.0654297-.3999023.1259766-.5551758.2197266-.9824219.5927734-2.1337891,1.2861328-3.5107422,1.2861328-.5878906,0-1.2163086-.1259766-1.890625-.4404297l-.2172852-.1015625.0043945-.2392578c.0268555-1.3759766.4785156-2.7890625,1.2714844-3.9785156,2.3979492-3.5986328,2.8666992-7.6201172,3.0166016-11.4296875.2539062-6.4814453-.296875-13.0322266-.8291016-19.3681641-.1083984-1.2900391-.2167969-2.5810547-.3188477-3.8720703-.105957-1.3349609-.6049805-2.3730469-1.4833984-3.0859375-2.4033203-1.9501953-3.2983398-4.5957031-2.7363281-8.0869141.1166992-.7265625.2573242-1.4492188.3974609-2.1708984.3876953-1.9921875.7880859-4.0517578.6435547-6.1484375-.2504883-3.6367188-1.012207-6.4296875-2.3955078-8.7919922-.7504883-1.28125-1.5273438-2.5478516-2.3037109-3.8144531-1.2177734-1.9853516-2.4760742-4.0380859-3.6098633-6.1201172-.9311523-1.7099609-1.7558594-3.5078125-2.5532227-5.2460938-.5424805-1.1835938-1.1035156-2.40625-1.6918945-3.5878906-.5288086-1.0625-1.0673828-2.0683594-1.8334961-2.7119141-4.0566406-3.4042969-7.3359375-7.8623047-10.0258789-13.6269531-.4736328-1.0166016-.9350586-1.8847656-1.4106445-2.65625-.6533203-1.0576172-1.4301758-1.2324219-2.6806641-.6044922-.4365234.2197266-.9150391.3134766-1.3779297.4033203-.3964844.0771484-.7714844.1494141-1.1010742.2949219l-.6777344.2988281c-1.8994141.8339844-3.8632812,1.6972656-5.6875,2.71875-10.003418,5.6025391-21.2080078,7.2353516-34.2548828,4.9931641-.8549805-.1474609-1.7021484-.3730469-2.5219727-.5917969-.456543-.1220703-.9130859-.2441406-1.3720703-.3535156-.2172852-.0507812-.4956055-.1044922-.7177734-.0693359-1.940918.3095703-3.6269531-.2871094-5.2553711-.8652344-.7651367-.2714844-1.487793-.5283203-2.2163086-.6845703l-.5073242-.1083984.2695312-.4433594c.4189453-.6884766.840332-1.3662109,1.2583008-2.0380859,1.0161133-1.6337891,1.9760742-3.1767578,2.8540039-4.7978516.4306641-.7949219.6899414-1.7246094.940918-2.6240234.09375-.3349609.1875-.6708984.2895508-1,.1020508-.3300781.1762695-.6689453.2504883-1.0068359.0737305-.3339844.1479492-.6689453.2456055-.9960938.3203125-1.078125.6508789-2.1542969.980957-3.2294922.5859375-1.9091797,1.1918945-3.8828125,1.7304688-5.8369141.8725586-3.1660156,2.1201172-6.1806641,3.8144531-9.2148438.8847656-1.5839844,1.59375-3.3144531,2.2792969-4.9873047.1806641-.4423828.3618164-.8837891.5458984-1.3232422.1943359-.4648438.309082-1.0351562.3608398-1.7939453.0874023-1.2851562-.5009766-2.28125-1.5742188-2.6660156-1.0615234-.3789062-2.1630859.0429688-2.8735352,1.1054688-2.1181641,3.1630859-3.3232422,5.7304688-3.9072266,8.3222656-.5219727,2.3173828-.9052734,4.7128906-1.2758789,7.0292969-.1616211,1.0107422-.3232422,2.0214844-.496582,3.0292969-.0703125.4091797-.1450195.8173828-.2202148,1.2255859-.1767578.9648438-.3598633,1.9628906-.4736328,2.9453125-.4169922,3.5917969-2.1982422,6.6386719-5.6054688,9.5908203-3.3081055,2.8681641-6.6933594,5.5136719-9.859375,7.9453125-.8212891.6318359-1.7768555,1.0849609-2.7001953,1.5224609-.3330078.1582031-.6650391.3154297-.9907227.4804688-.5234375.2666016-1.0551758.5185547-1.5864258.7695312-.7675781.3632812-1.5615234.7382812-2.3100586,1.1533203-2.1137695,1.1728516-4.2783203,2.5771484-5.7866211,4.8916016-.9199219,1.4121094-2.1699219,2.6152344-3.3789062,3.7792969l-.0839844.0810547c-2.2504883,2.1669922-3.5610352,4.6279297-4.0073242,7.5224609-.1225586.796875-.2504883,1.5927734-.3779297,2.3886719-.6870117,4.2832031-1.3979492,8.7119141-1.2905273,13.1289062.0375977,1.5390625.2929688,3.0019531.7392578,4.2304688.9960938,2.7382812,2.0693359,5.5029297,3.1069336,8.1767578.8100586,2.0869141,1.6201172,4.1728516,2.4033203,6.2695312.4990234,1.3359375.7768555,2.5830078.8251953,3.7080078.0356445.8291016-.1870117,1.6533203-.4023438,2.4501953-.0693359.2568359-.1386719.5126953-.1982422.7666016-.0634766.2705078-.1616211.5332031-.2602539.7949219-.109375.2900391-.2128906.5634766-.2597656.8378906-.1914062,1.1142578-.8227539,1.8339844-1.8759766,2.1376953-.5063477.1455078-1.0146484.2851562-1.5229492.4248047-.9365234.2578125-1.9047852.5244141-2.840332.8251953-.6655273.2148438-1.3632812.5253906-2.1962891.9785156-1.0112305.5488281-1.6879883.7011719-2.262207.5087891-.5727539-.1933594-1.015625-.7167969-1.4804688-1.75-1.1728516-2.6054688-1.3466797-5.3583984-1.3603516-7.9453125-.0288086-5.6386719.0805664-11.2158203.3256836-16.5761719.1928711-4.2246094.4116211-9.0126953,1.1669922-13.6123047.6582031-4.0097656.7548828-7.9628906.7612305-11.6386719.0097656-5.296875,2.0517578-9.1757812,6.0703125-11.5302734,1.1206055-.65625,2.2114258-1.4199219,3.2661133-2.1582031.6220703-.4355469,1.2441406-.8710938,1.8769531-1.2900391,2.019043-1.3349609,3.605957-3.1025391,4.8515625-5.4052734.4116211-.7597656.8100586-1.5302734,1.2089844-2.3007812,1.0786133-2.0839844,2.1938477-4.2392578,3.5683594-6.1777344,1.565918-2.2089844,3.4326172-4.2441406,5.237793-6.2128906.5302734-.578125,1.0600586-1.1552734,1.5825195-1.7373047.3374023-.3759766.7734375-.6308594,1.1948242-.8779297.2480469-.1455078.4970703-.2910156.7211914-.4619141.3183594-.2431641.4980469-.4638672.519043-.5371094-.043457-.1777344-.3237305-.5195312-.440918-.5537109-.7675781-.0722656-1.7338867-.1611328-2.4711914.1132812-2.7700195,1.0244141-5.2709961,2.6806641-7.4335938,4.9208984-.3676758.3808594-.6992188.7880859-1.050293,1.21875-.1591797.1953125-.3188477.390625-.4819336.5839844l-.2275391.2695312-.2792969-.2148438c-2.3515625-1.8125-4.8100586-2.6376953-7.3325195-3.3896484-3.0385742-.90625-5.2441406-2.6279297-6.7421875-5.2666016-.4365234-.7685547-.9033203-1.4980469-1.3876953-2.1699219-.5263672-.7294922-1.2905273-1.1025391-2.0429688-.9794922-.6953125.1064453-1.2407227.609375-1.4956055,1.3798828-.3149414.9482422-.3579102,2.1455078-.1152344,3.2041016.2763672,1.2080078.8955078,2.3828125,1.4941406,3.5195312l.0893555.1689453c.3427734.6523438.4213867,1.2109375-.3085938,1.8222656-1.0922852.9179688-2.2490234,1.9013672-3.3256836,2.9453125-2.8916016,2.8037109-6.5263672,4.0664062-11.7851562,4.09375l-1.1035156.0019531c-1.949707-.0136719-3.9716797-.0048828-5.8793945.3359375-3.6293945.6464844-5.2880859,2.828125-5.0693359,6.6699219.3105469,5.4658203,1.4863281,10.7226562,3.15625,16.9335938.9897461,3.6816406,2.1445312,7.3886719,3.2612305,10.9736328.6884766,2.2119141,1.3774414,4.4228516,2.0341797,6.6435547.859375,2.9072266,1.5249023,5.5009766,2.0351562,7.9287109.1708984.8154297.0576172,1.6708984-.0522461,2.4980469-.0327148.2490234-.065918.4970703-.090332.7421875-.0795898.796875-.203125,1.5986328-.3227539,2.3730469l-.1147461.7539062c-.0297852.1992188-.0537109.4003906-.0776367.6005859-.0629883.5283203-.128418,1.0742188-.2939453,1.5976562-.2407227.7587891-.734375,1.3603516-1.390625,1.6933594-.6816406.3457031-1.4975586.3886719-2.2993164.1210938l-.1635742-.0546875c-.3793945-.125-.7719727-.2539062-1.1240234-.4775391-1.3530273-.8583984-2.7905273-1.0292969-4.3964844-.5273438-1.1088867.3496094-1.9946289-.0166016-2.7084961-1.1123047-1.0869141-1.6728516-1.6630859-3.5722656-1.7114258-5.6474609l-.0576172-2.3066406c-.0629883-2.4257812-.1274414-4.9335938-.1333008-7.4023438-.0141602-6.8388672-.5327148-13.8359375-1.5410156-20.796875-.1035156-.7128906-.1225586-1.4570312-.0556641-2.1513672.2700195-2.8027344-.105957-5.6650391-1.1484375-8.7490234-.3759766-1.1123047-.7426758-2.3505859-1.1210938-3.7851562-1.0717773-4.0605469.1123047-7.5839844,3.4238281-10.1904297,1.5429688-1.2128906,3.2041016-2.3154297,4.8110352-3.3818359.9731445-.6464844,1.9462891-1.2919922,2.8994141-1.9648438.7089844-.5009766,1.4228516-.9970703,2.1367188-1.4931641,2.2875977-1.5878906,4.652832-3.2314453,6.8256836-5.0205078,3.1132812-2.5654297,5.15625-5.7041016,6.2456055-9.5947266.7006836-2.5029297.6464844-4.8720703-.1704102-7.4550781-.5439453-1.7197266-1.1962891-3.4433594-1.8271484-5.1103516-.2705078-.7138672-.5410156-1.4277344-.8037109-2.1445312-1.0576172-2.8759766-1.4375-5.2666016-1.1953125-7.5234375.065918-.609375.4824219-1.2060547.8657227-1.5273438.7890625-.6601562.8691406-1.0664062.3901367-1.9785156-.2192383-.4189453-.1430664-1.0556641.0527344-1.40625.6293945-1.1269531,1.3911133-2.4550781,2.2700195-3.7539062.8793945-1.3017578,1.7817383-2.5878906,2.6835938-3.8740234.7675781-1.09375,1.5351562-2.1884766,2.2890625-3.2919922,2.6757812-3.9169922,3.8041992-7.5029297,3.5512695-11.2832031-.3500977-5.2324219-.6879883-10.8183594-1.0332031-17.0751953-.1054688-1.9140625-.1635742-3.8603516-.2197266-5.7421875-.0229492-.7753906-.0458984-1.5517578-.0722656-2.3271484-.2768555-8.1162109-2.8730469-15.7929688-7.7158203-22.8173828-.4189453-.6074219-.8964844-1.1816406-1.4199219-1.7050781-.1157227-.1162109-.2333984-.2275391-.3500977-.3378906-.7163086-.6777344-1.4570312-1.3789062-1.3925781-2.7675781.0107422-.234375-.0634766-.4355469-.2275391-.6152344-.2832031-.3105469-.8125-.5195312-1.3813477-.5449219-.84375-.0361328-1.5512695.0478516-2.0961914.2568359l-.7714844.2949219c-1.8417969.7041016-3.746582,1.4306641-5.4853516,2.3710938-3.8530273,2.0810547-7.7001953,2.4052734-11.4350586.9589844-1.5693359-.6074219-3.0844727-1.4033203-4.5493164-2.171875-.6396484-.3359375-1.2797852-.671875-1.925293-.9931641-.1220703-.0615234-.2338867-.1425781-.3447266-.2265625-.0473633-.0351562-.0947266-.0712891-.144043-.1044922-.6630859-.4355469-1.1376953-.5996094-1.4033203-.4892578-.2675781.1132812-.4780273.5664062-.6259766,1.3476562l-.0527344.2783203-.2827148.0205078c-.4814453.0361328-.965332.0878906-1.4487305.1396484-1.1381836.1220703-2.3164062.2519531-3.4726562.1552734-.9658203-.0800781-1.8769531-.5488281-2.7578125-1.0019531-.184082-.0947266-.3676758-.1894531-.5498047-.2783203-.3959961-.1953125-.7285156-.4794922-1.050293-.7539062-.1835938-.15625-.3676758-.3144531-.5625-.4511719-1.2451172-.8769531-2.425293-.9863281-3.8237305-.3574219-2.5932617,1.1660156-5.4155273,2.2246094-8.4731445,1.9892578-1.46875-.1074219-2.9072266-.6259766-4.1762695-1.0830078l-.8974609-.3232422.8818359-.3642578c3.8886719-1.6054688,7.5620117-3.1220703,7.9428711-8.0625l.0288086-.3701172.3701172.03125c.0415039.0039062.1025391.0136719.1762695.0283203.1621094.03125.4067383.0800781.5922852.03125.4013672-.1035156.7075195-.2998047.7607422-.421875.065918-.1523438-.0107422-.59375-.1000977-.6884766-1.1796875-.7041016-2.1694336-1.1855469-3.09375-1.5019531-.1220703-.0400391-.2158203-.0263672-.296875.0400391-.1303711.1113281-.1967773.3378906-.1606445.5527344.0566406.3398438.2285156.6757812.4101562,1.03125.0844727.1650391.168457.3291016.2402344.4921875l.0957031.2167969-.1586914.1777344c-.3530273.3945312-.6982422.8183594-1.0488281,1.2480469-.8256836,1.0136719-1.6801758,2.0615234-2.7412109,2.8740234-1.652832,1.2636719-3.9160156,2.9980469-6.8422852,2.3857422-2.2758789-.4736328-3.3364258-1.9570312-2.9863281-4.1777344.1376953-.8701172.387207-1.7246094.6279297-2.5517578l.2163086-.7519531c.1845703-.6630859.3793945-1.3222656.5742188-1.9814453.3320312-1.125.6757812-2.2880859.9570312-3.4404297.6835938-2.8017578,2.3198242-4.2392578,5.0029297-4.3935547,5.7885742-.3310547,11.4199219-1.2128906,17.6542969-2.2460938.534668-.0908203,1.1499023-.1689453,1.6791992.0175781,2.0478516.7197266,3.7753906.1650391,5.2797852-1.703125,1.5493164-1.9238281,3.5083008-3.6210938,5.9892578-5.1894531,4.9692383-3.140625,10.3066406-5.1679688,14.4013672-6.5839844,1.4262695-.4931641,2.7661133-1.2060547,4.1845703-1.9599609.652832-.3476562,1.3134766-.6992188,1.9926758-1.0341797l.2602539-.1279297.1860352.2226562c.1210938.1513672.2734375.3417969.434082.5244141.7773438.8876953,1.8613281,1.2070312,2.8291016.8369141,1.0068359-.3867188,1.4692383-1.2285156,1.3364258-2.4345703-.612793-5.5507812,1.4819336-10.4560547,3.871582-15.4091797.0610352-.1259766.1484375-.2148438.2587891-.3271484.0546875-.0556641.1225586-.1240234.2055664-.2158203l.5327148-.5869141.1054688.7861328c.3266602,2.4267578.578125,5.2949219-.0332031,8.1660156-.3696289,1.7363281-.8139648,3.484375-1.2436523,5.1738281-.2260742.8886719-.4516602,1.7763672-.668457,2.6669922-.0332031.1367188-.0727539.2763672-.112793.4160156-.112793.3974609-.2299805.8085938-.1699219,1.1289062.1015625.5449219.3574219,1.2568359.7714844,1.6220703.4921875.4355469,1.152832.0097656,1.5024414-.2822266.097168-.0820312.2006836-.1542969.3295898-.2441406l.4995117-.3564453.2099609.3251953c.0786133.1220703.1503906.2421875.2202148.3603516.1425781.2392578.265625.4462891.418457.6132812l.1513672.1699219c.2001953.2275391.4746094.5380859.6567383.5634766,3.7143555.5097656,4.6186523,3.3701172,4.9912109,5.8056641.4331055,2.8300781-.324707,5.5498047-1.2084961,8.0673828l-.3261719.9228516c-.6767578,1.9101562-1.3764648,3.8847656-1.8183594,5.8701172-.2602539,1.1660156-.2451172,2.6083984.0424805,4.171875.815918,4.421875,4.394043,7.2480469,8.8891602,7.0488281,1.5595703-.0722656,3.1166992-.3251953,4.6289062-.7529297.7128906-.2021484,1.5097656-.7558594,2.0786133-1.4443359.3217773-.3896484.4301758-.8505859.3051758-1.2988281-.1323242-.4736328-.5146484-.8613281-1.0229492-1.0390625-.222168-.0751953-.4492188-.0761719-.543457-.0351562-2.8383789,1.3193359-5.6098633.6904297-8.1806641-.1875-1.6860352-.5751953-2.2739258-2.3691406-2.2651367-3.7314453.0117188-1.7402344.2348633-3.6054688.6640625-5.5439453.2719727-1.2265625.6293945-2.4501953.9750977-3.6328125.3549805-1.2148438.722168-2.4707031.9921875-3.7197266.1977539-.9140625.2128906-1.8945312.2285156-2.9326172.0078125-.5029297.015625-1.0224609.0439453-1.5615234l.0405273-.7705078,5.21875,4.6914062-.1557617.2607422c-2.4208984,4.0439453-1.4121094,7.7880859.847168,12.1660156.5297852,1.0253906,1.3735352,1.9414062,2.1894531,2.8271484l.4560547.4980469c.5419922.5976562,1.4287109,1.2558594,2.5644531.9824219.3671875-.0878906.8095703-.4257812.9101562-.6953125.0117188-.1474609-.3237305-.6298828-.4672852-.8359375-.2246094-.3242188-.4360352-.5615234-.6601562-.8134766-.4067383-.4560547-.8271484-.9277344-1.0249023-1.5087891-.7519531-2.2080078-1.3945312-4.4892578-2.0161133-6.6953125l-.3828125-1.3554688c-.1035156-.3632812-.1274414-.7353516-.1503906-1.09375-.0102539-.1542969-.0200195-.3095703-.0366211-.4619141l-.0214844-.1953125.9389648-.7900391.215332.3984375c.0673828.1240234.128418.2548828.1889648.3857422.1157227.2490234.2246094.484375.3754883.6523438,4.859375,5.4414062,8.8637695,11.5966797,11.9013672,18.2949219.9467773,2.0869141,2.1054688,4.1279297,3.2255859,6.1015625.765625,1.3476562,1.5571289,2.7421875,2.2783203,4.1455078,1.7612305,3.4267578,3.4882812,6.9423828,5.1577148,10.3408203l1.7294922,3.5136719c.9272461,1.8779297,1.8481445,3.7578125,2.769043,5.6386719.7216797,1.4736328,1.4438477,2.9482422,2.1689453,4.4208984.2285156.4648438.4697266.9238281.7104492,1.3828125.4458008.8505859.9072266,1.7304688,1.2836914,2.6367188,2.4345703,5.8662109,5.7358398,11.3242188,9.1889648,16.8642578,2.2241211,3.5693359,4.1689453,6.8222656,5.4467773,10.4921875.5463867,1.5703125,1.5131836,3.0527344,2.5400391,4.5605469,1.2944336,1.8984375,2.3808594,2.1289062,4.4697266.9433594.3139648-.1777344.7661133-.2304688,1.1000977-.1279297,4.2143555,1.2841797,8.6425781,1.4697266,12.9243164,1.6484375,1.390625.0585938,2.7807617.1162109,4.1674805.2099609,3.3330078.2265625,6.6655273.4658203,9.9970703.7207031.6298828.046875,1.1523438.1552734,1.5976562.3300781,1.1953125.4677734,2.4023438.9130859,3.609375,1.3583984,2.9492188,1.0888672,5.9985352,2.2148438,8.8310547,3.6708984,4.0219727,2.0693359,7.0742188,5.5039062,8.8266602,9.9326172Zm71.1103516,110.5410156c-1.2045898.3154297-2.3657227.6191406-3.5288086.9179688-1.8662109.4785156-3.7285156.7001953-5.5585938.7001953-9.3847656,0-17.9628906-5.8212891-22.3081055-12.6464844-3.5253906-5.5390625-5.7817383-12.0107422-7.1015625-20.3662109-.8188477-5.1904297-.3530273-10.5830078,1.4658203-16.9707031.8930664-3.1376953,1.8681641-6.3066406,2.8115234-9.3710938,1.0849609-3.5244141,2.206543-7.1689453,3.2075195-10.7802734,2.2553711-8.1367188,2.6816406-15.5634766,1.3032227-22.7060547-1.4775391-7.6572266-5.1733398-14.6748047-11.2993164-21.453125-4.6166992-5.1083984-10.1464844-9.1191406-16.4365234-11.9208984-4.9057617-2.1875-9.8349609-2.6523438-14.6523438-1.3857422-.1142578.0292969-.230957.0449219-.4375.0703125l-1.0996094.1464844,2.7124023-6.9472656.3989258.5c.9194336,1.1513672.9663086,1.1279297,2.1918945.4990234,7.9140625-4.0605469,15.4013672-6.2421875,22.8896484-6.6689453,6.4331055-.3710938,11.9106445.7685547,16.7407227,3.4716797,5.7827148,3.2353516,10.0610352,8.5234375,12.7158203,15.7177734,2.1425781,5.8066406,3.3813477,11.6357422,3.6811523,17.3232422.2993164,5.6835938-.9487305,11.3984375-3.8144531,17.4707031-1.6635742,3.5244141-3.5576172,7.2304688-5.9599609,11.6630859-3.8115234,7.0302734-6.2275391,15.0263672-7.3852539,24.4443359-.5693359,4.6298828-1.0180664,10.7167969.5776367,16.7490234,2.0273438,7.6640625,6.1479492,14.3476562,12.5966797,20.4335938,1.8276367,1.7236328,3.8979492,3.5087891,6.3295898,5.4560547.8115234.6503906,1.8540039,1.2021484,2.9355469,1.5546875.684082.2246094,1.5839844.1992188,2.1416016-.0605469,1.0063477-.4697266,1.5996094-.1699219,2.2709961.2714844.9819336.6455078,2.0092773,1.2460938,3.097168,1.8828125.4667969.2734375.9477539.5546875,1.4453125.8515625l.7563477.4511719-2.6875.7021484Z" stroke-width="0"/>
      <path d="m144.841208,182.826832c.7094727.6806641,1.4394531,1.3398438,2.1694336,1.9990234.7246094.6552734,1.4492188,1.3095703,2.1542969,1.984375,1.5292969,1.4648438,2.3608398,3.0722656,2.4707031,4.7792969.0429688.6621094-.0917969,1.3212891-.2216797,1.9580078-.0727539.3535156-.1455078.7080078-.1860352,1.0615234-.0205078.1767578-.0820312.7128906.0766602,1.0039062.0498047.0175781.3706055.0654297.4682617.0263672.3100586-.1640625.6323242-.3251953.9555664-.4863281,1.0141602-.5068359,2.0629883-1.0302734,2.8681641-1.7558594,5.0146484-4.5244141,8.2958984-9.8359375,9.7529297-15.7900391.6533203-2.6699219.5976562-5.5927734.4990234-7.5585938-.0722656-1.4326172-.6362305-2.6201172-1.6313477-3.4335938-1.078125-.8818359-2.5634766-1.234375-4.1782227-.9873047-2.1074219.3183594-3.8115234,1.4785156-5.0654297,3.4511719-.487793.7666016-.8852539,1.6035156-1.3056641,2.4902344-.199707.4208984-.4042969.8525391-.6264648,1.2929688l-.2954102.5859375-.9951172-1.6005859c-1.4467773-2.2958984-3.3422852-3.6357422-5.7954102-4.0976562-.425293-.0800781-.8349609-.1191406-1.2265625-.1191406-2.2739258,0-3.9311523,1.3232422-4.4448242,3.6445312-.3105469,1.4013672-.3251953,2.9824219-.0424805,4.4541016.5244141,2.7304688,2.2177734,4.8115234,4.5996094,7.0976562Zm-2.5449219-10.9091797c.3935547-1.2636719,1.2329102-1.9072266,2.5668945-1.9667969,2.605957-.1005859,4.8803711,1.4052734,5.9492188,3.9697266.1381836.3320312.2568359.6748047.375,1.0175781.2050781.5947266.3984375,1.15625.6938477,1.6552734.2890625.4873047.8598633.9443359,1.1977539.9580078h.019043c.3710938,0,.9995117-.4091797,1.2602539-.8251953.3227539-.515625.5302734-1.1054688.75-1.7304688.1210938-.3447266.2421875-.6884766.3833008-1.0214844.7084961-1.6748047,1.7041016-3.5283203,3.7192383-4.578125.6025391-.3134766,1.4819336-.6923828,2.1601562-.3300781.5039062.2666016.7944336.859375.9140625,1.8671875.434082,3.6630859-.2509766,7.2753906-1.9804688,10.4453125-1.1621094,2.1289062-2.640625,4.1162109-4.0703125,6.0380859-.6328125.8505859-1.2651367,1.7011719-1.8730469,2.5644531l-.1362305.1943359-.7919922-.1533203-.0737305-.1884766c-.890625-2.2802734-2.5751953-3.875-4.3583984-5.5634766l-.3193359-.3017578c-2.5253906-2.3984375-4.4013672-4.8095703-5.7348633-7.3691406-.9003906-1.7275391-1.1069336-3.2158203-.6503906-4.6816406Z" stroke-width="0"/>
      <path d="m173.9681611,208.0875742c.7871094.4453125,1.6879883.1464844,2.3520508-.7919922.8852539-1.2529297,1.5419922-2.4013672,2.0083008-3.5097656,2.3061523-5.484375,3.5209961-11.5986328,3.8232422-19.2431641-.0283203-.3320312-.0522461-.7011719-.0776367-1.0976562-.0664062-1.0302734-.1416016-2.1982422-.3354492-3.3574219-.2700195-1.6132812-.6875-3.3417969-1.2402344-5.1357422-.2866211-.9296875-.7436523-1.7958984-1.2866211-2.4404297-.4394531-.5205078-.9873047-.8007812-1.5429688-.8007812-.1157227,0-.2319336.0117188-.3476562.0361328-.6738281.1445312-1.2133789.7089844-1.4423828,1.5097656-.230957.8056641-.3134766,1.7109375-.2324219,2.5498047l.0786133.8203125c.2001953,2.1103516.4072266,4.2929688.8608398,6.3740234,1.0014648,4.5849609.9047852,9.2929688-.2866211,13.9931641-.5092773,2.0078125-1.2070312,3.9951172-1.8813477,5.9179688-.3256836.9277344-.6513672,1.8554688-.9575195,2.7880859-.362793,1.1044922-.1728516,1.9970703.5078125,2.3876953Z" stroke-width="0"/>
      <path d="m39.5184541,60.3053476c.5883789.2158203,1.2182617.3583984,1.8276367.4970703.2446289.0556641.4868164.1103516.7231445.1689453,4.0009766-.6474609,6.8203125-2.0878906,8.8691406-4.5273438.0644531-.0771484.2612305-.3115234.2788086-.4648438.0117188-.1015625.027832-.2119141.0444336-.3261719.0366211-.2470703.1123047-.7636719.0371094-.8818359-.2084961-.203125-.8481445-.3066406-1.152832-.1855469-.8261719.3349609-1.6113281.8662109-2.3701172,1.3798828l-.1723633.1162109c-2.0102539,1.3574219-4.4677734,2.671875-7.4804688,2.1552734-.0805664-.0136719-.1743164-.0244141-.2739258-.0244141-.3696289,0-.8222656.1435547-1.0019531.7832031-.1723633.6123047.0722656,1.0898438.6713867,1.3095703Z" stroke-width="0"/>
      <path d="m7.4681611,65.6647226c.6079102.0126953,1.2275391-.2324219,1.6279297-.6357422.2651367-.2666016.40625-.5771484.3984375-.8740234-.0063477-.2451172-.0888672-.4375-.253418-.5878906-.3125-.2880859-.9228516-.4199219-1.7114258-.3710938-.1005859.0048828-.1479492.0068359-.1953125.0126953-.8730469.0986328-1.4082031.5771484-1.3989258,1.2480469.0087891.6601562.6821289,1.1914062,1.5327148,1.2080078Z" stroke-width="0"/>
      <path d="m142.8177705,112.8912851c.0375977-.015625.0756836-.03125.1137695-.0458984.3305664-.1357422.6425781-.2626953.878418-.453125.5874023-.4765625,1.1547852-.9765625,1.7226562-1.4775391.5737305-.5058594,1.1474609-1.0117188,1.7412109-1.4921875.324707-.2636719.7104492-.4296875,1.0830078-.5898438.1611328-.0693359.3242188-.1396484.484375-.21875l.4116211-.2041016.1098633.4462891c.3330078,1.3505859.71875,2.0830078,1.2509766,2.3740234.5224609.2871094,1.2929688.2216797,2.5761719-.2158203,1.355957-.4628906,2.8706055-.8164062,4.5014648-1.0527344.5566406-.0820312,1.1171875.0703125,1.6572266.2158203.2231445.0605469.4462891.1210938.6669922.1621094l.2207031.0419922.265625.8955078-3.7382812,4.2705078c-.7172852.8144531-1.3374023,1.5175781-.8505859,2.5322266.4047852.8447266,1.0131836.8476562,2.0507812.7773438.2304688-.015625.4663086-.0302734.6928711-.0302734.8779297,0,1.8808594.2099609,2.902832.6074219.4067383.1591797.668457.4394531.737793.7880859.0771484.3925781-.1015625.8203125-.5039062,1.2041016-1.5102539,1.4404297-3.0561523,2.9638672-4.7260742,4.6591797-.4936523.5-1.0532227,1.1025391-1.4638672,1.7783203-.3237305.5322266-.3876953,1.0820312-.1796875,1.5488281.2124023.4785156.699707.8203125,1.3359375.9404297.4116211.078125.8144531.0751953,1.1308594-.0068359,3.2236328-.8222656,5.7368164-2.7207031,7.4697266-5.6416016.699707-1.1787109.6987305-2.5449219-.0043945-4.0585938-.8666992-1.8671875-2.284668-3.1904297-4.3354492-4.0449219l-.4633789-.1923828.815918-.9638672c.3061523-.3574219.5839844-.6816406.8461914-1.0175781,1.1601562-1.4873047,1.5737305-3.0361328,1.1645508-4.359375-.4116211-1.3300781-1.6376953-2.3808594-3.4521484-2.9580078-1.8447266-.5869141-3.5400391-.6904297-5.1816406-.3154297-.5556641.1279297-1.1962891.1982422-1.7773438-.5664062-.71875-.9423828-1.8032227-1.328125-3.050293-1.0830078-3.2836914.6396484-5.6821289,2.484375-7.1298828,5.4814453-.222168.4609375-.328125.8632812-.3051758,1.1650391.0234375.3154297.1513672.6425781.2871094.9882812.0141602.0371094.0288086.0742188.043457.1113281Z" stroke-width="0"/>
      <path d="m199.4085908,62.4410898c.3754883-.0800781.7436523-.1943359,1.1123047-.3085938.3217773-.1005859.6435547-.2001953.9702148-.2792969.2001953-.0478516.4248047-.0917969.6445312-.0917969.2407227,0,.4755859.0517578.6660156.2050781.3642578.2939453.4023438.8105469.3920898,1.2783203-.0068359.3115234-.0541992.6298828-.140625.9472656-.1362305.5009766.0112305.7724609.5629883,1.0390625,1.5297852.7382812,3.4428711.2617188,4.5478516-1.1347656,1.2329102-1.5585938,1.4345703-3.2529297.6000977-5.0361328-.8579102-1.8349609-2.309082-2.7441406-4.5639648-2.8603516-2.8129883.5429688-4.9873047,1.8251953-6.4643555,3.8105469-.2836914.3808594-.2641602,1.2978516-.0581055,1.8632812.2744141.7539062,1.2016602.6787109,1.730957.5673828Z" stroke-width="0"/>
      <path d="m160.4290986,54.6188242c.2285156.1298828.4931641.109375.7651367-.0576172.8173828-.5058594,1.5981445-.7099609,2.3466797-.7099609,1.2573242,0,2.4243164.5751953,3.5244141,1.2548828,1.3857422.8564453,2.003418.6210938,2.4628906.2382812.71875-.5986328.8828125-1.6416016.4169922-2.6582031-.7055664-1.5390625-1.7416992-2.6767578-3.0800781-3.3808594-1.3496094-.7109375-3.0307617-.6171875-4.4995117.2451172-1.4946289.8779297-2.4091797,2.3320312-2.4467773,3.8916016-.0131836.5380859.1826172.9892578.5102539,1.1767578Z" stroke-width="0"/>
      <path d="m139.4476533,80.2496836c.2861328-.1318359.4643555-.4414062.4648438-.8076172.0014648-2.0400391,1.2504883-3.3261719,2.6000977-4.4121094.7744141-.6210938,1.6025391-.5722656,2.3334961.1367188.6450195.6269531,1.3310547,1.234375,1.9169922,1.7470703.5639648.4931641,1.4086914.9697266,2.2319336.4345703.6977539-.4521484.8774414-1.2636719.4799805-2.171875-.7666016-1.7539062-1.8305664-2.921875-3.2524414-3.5722656-.2514648-.1152344-.550293-.1748047-.8393555-.2314453-.1162109-.0234375-.2299805-.0458984-.3398438-.0712891l-.3129883.0517578c-.2490234.0390625-.4804688.0751953-.7055664.1357422-2.2045898.5878906-5.934082,4.9746094-6.0463867,7.1123047-.0244141.4589844.3154297,1.1689453.7275391,1.5205078.2280273.1933594.4990234.2402344.7416992.1279297Z" stroke-width="0"/>
    </g>
  </g>
</svg>