<?xml version="1.0" encoding="UTF-8"?>
<svg id="Layer_2" data-name="Layer 2" xmlns="http://www.w3.org/2000/svg" viewBox="0 0 426.0651366 644.6834718">
  <g id="Layer_1-2" data-name="Layer 1">
    <g>
      <path d="m11.9256117,64.5889695C.694844,59.1752805-1.0128455,44.1726743.4443322,32.5604549c.817622-6.8679277,2.6605673-13.8117981,6.9106626-19.1967717,3.1583563-3.7737762,7.5224111-7.0592609,12.4202689-7.1599035,8.8134771-.2790602,16.6512735,5.0056368,23.5384706,10.3028187,3.0582391,2.259866,5.8851916,5.0836095,9.2843551,6.7348646.6939847.1454074,1.7047501.5620288,1.3364659,1.5042022.0363248.0557484.0683981.1127836.09531.1695304,1.1310839-2.2412561,5.249633-.7823085,6.8653738.2519052.4960705-.0191757.8887242-.0190462,1.350026-.0713374,5.0704508-10.1576461,13.1429169-22.1743716,24.3934299-24.5222068,6.5340847-.9984119,13.6536174-1.0347314,19.4662011,2.7223263,3.4516464,2.0562845,6.2371301,5.1474834,8.9415864,8.170963,2.9800703,3.5361715,6.0925812,7.164997,7.4625028,11.7867859,1.3314503,4.8504733,2.3043626,12.5570274-.0998115,17.0842211-4.0045626,6.6222289-15.237667,8.7397897-22.1693861,9.5143962-8.8214902,1.3139949-17.6689128-1.8958021-24.6093293-7.6706931-3.8901628-3.3807436-7.8987545-6.9753036-10.4425453-11.6506021-.5726381-1.1396835-.6686706-3.0025549.7362351-3.4909833,1.5550745-.5036957,3.0552624.92346,3.7584794,2.2599621,1.4028703,1.7141916,3.0209383,3.2101686,4.5805768,4.7620734,9.7975633,9.0255611,18.5107877,11.1614693,31.1665538,8.721324,7.5664338-2.0202183,15.2835922-3.0884498,14.0444231-13.5332112.0623266-5.021187-2.433309-9.5219282-5.8396485-12.7626333-3.2611445-3.2782208-6.616821-6.8889225-11.1144114-8.0558055-4.8695635-.9010878-9.4927102-.280212-14.2482907.4824476-6.4799067,1.770968-12.0526037,6.117679-17.1974617,10.5153427-2.3882035,2.0721139-4.4200225,4.5519009-6.4590871,6.9970565-.3666031.4737379-.8830764,1.0094547-1.5173951.9260853,1.3559447,1.8575802,1.5047103,4.2202925,1.1189201,6.4609533-.3536126,3.2020025-3.3166841,6.6624586-6.5016466,5.0056534-3.1265434-1.6286-4.4622799-5.4564922-4.9531195-8.915179-1.3125272,7.7947303-6.9430216,13.5977673-11.8597156,19.1229088-7.7807771,8.2747301-16.4848387,21.1337149-28.9767134,15.5620208Zm5.5523508-8.9018695c3.5694641-.3066183,7.0233821-2.8883884,9.7249068-4.8645167,3.583705-2.6897395,7.0574561-5.5470608,10.5767505-8.326755,4.4074384-3.5994038,9.1693196-7.0915482,12.2878569-12.0815072,1.0284242-1.8088904,1.4617652-3.9194037,2.5456248-5.6890331-9.6200623-4.9979477-21.7183551-16.651286-32.7289919-9.1532016-5.8041043,4.3125417-8.2658327,11.8929657-9.0782637,19.0960939-.4547336,5.5321299-.8731165,11.3039815.4584015,16.7290739.8397041,3.7255579,2.8317962,4.4831185,6.2137151,4.2898459Zm40.9432802-19.2074004c2.6681593-.3646481,3.4537235-4.0296027,3.4232063-6.4530775-.1370116-1.2272755-.820986-2.1042348-1.6742676-2.7696886-1.958249-.2174548-4.7277412.5691503-6.0260066-1.4089562-.0048141,3.438999.438301,9.7586122,4.2770679,10.6317223Z" stroke-width="0"/>
      <path d="m88.7064498,109.6981316c-3.0009454-.9938657-2.4009231-4.6739212-3.2606721-7.1782787-4.4294841-1.2295496-9.0824882-1.6697985-13.2532389-3.828543-10.2746205-4.935599-13.9179359-17.681815-11.5742058-28.7987581,2.4468483-12.3888743,12.1552287-22.7101642,4.4339786-35.4904571-.1237919.1919711-.3567109.2826728-.6102619.1831338-1.2998701-.6315618-2.9322069-.8333758-3.9372621-1.9802253-.9948642-1.6174758,1.3686156-2.3173135,2.5041316-1.9389473,3.398566,1.0128065,4.9908892,5.0394216,6.4692225,8.1180506,3.5573072,8.2760686,1.034718,16.4529828-1.6645699,24.4868524-2.7167868,8.7730532-4.4637387,20.3937918,2.6047489,27.3798997,5.3570547,4.8435292,15.4530592,3.2013,19.1844531,9.5739716,1.1833307,1.9291395,3.175428,10.8093929-.896324,9.4733013Z" stroke-width="0"/>
      <path d="m20.079106,644.6667976c-10.1842801.5467097-15.0394228-12.4696664-12.2534885-21.5217022,4.3907071-13.5267016,24.7906311-19.7018411,37.0066998-19.5799096,2.8589043-8.3749345,2.8249901-17.2882962,2.6451272-26.0760583-.2947212-9.80581-.5721484-19.6288952-1.5658907-29.392464-.8462584-9.0339324-3.2111137-17.8115188-4.0547115-26.8450371-.6658571-7.323993-.335096-14.6945459-.4410311-22.0412568-.1567544-7.6231126-.8465884-15.2079478-1.2554662-22.8153234-.3278296-6.7832882-.7419141-13.6403209-2.4210305-20.2195025-2.6575897-9.3779554-6.7789314-18.3918025-7.9287751-28.1848337-1.25217-13.2002791,3.2115375-25.6049568,7.3979741-37.6360308,2.4817872-8.7520287,5.9618912-17.5470382,6.0211821-26.8034762.0074886-9.2774403-1.4624529-18.5571584-4.6164674-27.2199127-2.7320593-7.3759366-6.6511521-14.2197468-8.6396197-21.9076114-2.5481638-9.4130677-3.5202947-19.2147956-4.7478417-28.8972838-1.4976697-9.8291492-2.3464567-19.7326937-2.052524-29.6961094.052945-6.497539.0534-13.0386651,1.2196173-19.4390909,2.4186374-12.333699,6.365882-24.2655891,8.9387139-36.5719999,1.1716428-5.9473092,3.5087109-11.9260479,3.6705364-18.0116024-1.5671897-12.7105713-4.4672434-25.1894077-6.8898439-37.738232-1.8041136-9.1236357-4.3460461-18.3010491-4.1078406-27.6969304.1260114-20.2639771,5.1399952-40.4323864,14.4155278-58.1239039,3.779681-7.9841223,7.8536177-15.8210808,12.6441753-23.1687087.6204251-.7879473,1.0834706-1.948574,1.9812117-2.3132517.6615571-.1817436,1.2875465.5793076,1.2839898,1.2381279-.0035568,1.0147348-.0995892,2.033256-.1706897,3.0443672-.1463898,1.1300994-1.4166249.4467493-1.6462303-.2525892-5.3372841,8.9214002-9.2943515,18.6583834-13.2423255,28.3356211-4.1982774,9.8686689-6.4531684,20.475708-8.2519017,31.0932334-1.6017049,11.2030375-3.355937,22.7690519-1.2366856,34.0154029,2.373115,12.6704895,5.0642821,25.276863,7.3295586,37.9739455,1.1519416,7.345927,3.1698984,14.9576215,1.0066772,22.301537-1.6365326,6.2093643-3.2425445,12.4343767-4.7733747,18.6740907-2.6636161,11.1441868-6.7460383,21.9450014-8.1814578,33.3897277-.986601,13.8138558-.8019483,27.8110378,1.6548409,41.4470399,1.6287244,11.0626329,2.649785,22.195727,5.8260987,32.8030545,2.1985977,7.343605,6.1287949,13.9336723,8.3868779,21.2580498,3.2769658,10.0279608,4.6566234,20.8544513,3.7417411,31.4378776-1.3107558,8.0500206-4.0199741,15.7501316-6.494481,23.4563363-4.3753269,12.1196385-9.3163103,24.9361973-7.3878838,38.1548164,1.6686789,8.5917312,5.1177029,16.627908,7.5369864,24.98962,1.7165631,6.4515411,2.2244884,13.1830335,2.5786325,19.8555126.3627894,6.5314089.9638815,13.0438861,1.2945802,19.5790813.5130172,8.7114441-.1143651,17.4658984.6366875,26.1634987.8924754,9.1737897,3.3649713,18.0872105,4.3321352,27.2539601.790955,7.0462898,1.2063871,14.1266565,1.4407094,21.2185596.2781357,11.2181089,1.5181454,22.7385321-1.469886,33.670241,7.30777,1.7477435,14.2446818,5.061901,21.3341905,7.6121086,4.768439,1.9178914,9.1781803,4.6968757,13.9196032,6.6768865,6.8899759,2.4185736,14.1590661,3.4140218,21.275695,4.8330651,5.0373285.5851054,10.147654.642196,15.1826692-.0183992,7.7743375-1.2471205,15.1394254-4.4088785,22.5427207-7.0994758,9.1031341-3.461765,18.3327414-6.5425904,27.3229901-10.3253055,4.2455747-1.7531863,8.4095384-3.8088644,12.8719086-4.8695085,5.4113439-1.0891006,11.1888672-1.6814237,16.5958763-.276165,5.9064141,1.6886413,10.9268619,5.6268916,16.6510199,7.8253259,12.4614642,5.1611737,25.1991329,10.5017837,38.7793366,9.791138,6.1801733-.7848931,12.3720729-1.493764,18.543132-2.342078,8.6241943-1.6199551,16.8452245-5.1105908,25.5623669-6.3121571,7.7844103-1.3238527,15.6914732-1.1644129,23.5458238-1.4854222,4.3677827-.1896712,8.7599347-.5154725,12.9501017-1.9258782,4.5860787-1.4777904,8.9249349-3.6802478,13.4480756-5.3614348,4.6091698-1.8610374,9.5174686-2.4792731,14.4226552-2.4535971,5.7836504-.0139029,11.6880082-.3962033,17.2798715,1.4679696,2.9023148-12.7623966,6.1131507-25.5828305,11.2986265-37.5365511,3.5878244-8.2570852,8.067645-16.1826896,10.1869728-25.0693103,1.3952496-6.3868778,2.2255582-13.10216.5666361-19.4399339-2.2853284-7.2401022-6.5930908-13.4453548-9.9814311-20.1120656-9.3390194-16.0436605-8.8546056-34.5551463-9.148316-52.7358317.0249529-6.3880906-.1815058-12.8227116.7292744-19.1587698,1.2610098-9.4911902,3.8399097-18.686485,7.0422427-27.6288357,2.4070084-6.8925887,4.830189-13.822804,6.1925108-21.0481455,1.9826149-11.2802874,2.9270454-22.7778447,3.3862563-34.2359711.001306-11.1803344,2.3817777-22.3462334,1.1876516-33.5056542-1.0450201-5.77302-3.2380951-11.1942669-5.3211328-16.6100709-3.4136822-9.3575152-7.12641-18.7426883-8.7137524-28.6852497-3.4700068-24.5624014,5.9400644-48.1520429,8.10538-72.3377346,1.2591203-12.4137738-.8404787-24.5322587-.0996726-36.8827003,1.2144107-9.3873029,5.0906382-18.121317,7.7183324-27.1251955,3.8360751-11.1036539,6.466409-22.0275314,10.4319445-32.9334386,2.8526036-7.3486632,6.2350808-14.5723408,6.9050018-22.6137239,1.1744805-13.5799468,1.2094646-27.599085-2.046053-40.8636798-4.163408-13.3163591-17.9839985-18.5480383-29.3576504-22.7820822-9.5782114-3.9003186-17.5327348-6.1040368-26.4796771,1.0360606-9.519247,7.628304-18.7314735,15.7830623-29.0697197,22.1701342-12.9520746,7.5447978-39.2090931,14.4449665-52.5192332,5.7512265-4.117837-2.7623674-7.3485963-6.8839567-9.8201265-11.3023269-2.1520611-4.0491518-3.1270297-9.0069548-5.8366405-12.6349225-.4801624-.5641327-.9994491-1.0828591-1.3622385-1.3781933-.2027352-.1590247-.4054705-.3218366-.4018859-.3333916-14.4062886-9.0391386-33.183333,4.2508919-46.4904582,10.5296968-7.2484096,3.5855046-14.9896247,6.1642686-23.0548522,6.027898-7.7624723.3341505-15.5001863-.3455501-23.1875082-1.4533901-10.5237256-.9596076-21.0386426-1.9832018-31.5201039-3.3721024-2.2050929-.2228348-4.8446106-.3398152-6.8421055.005698-.5655246.1098034-1.1132654.2839743-1.6432224.5187264-1.2839898.4846495-2.7173634-.6512477-3.4003583-1.7115626-.8415763-1.1515823-1.045687-3.3409243.4838303-3.8923669,5.9739369-1.5371921,12.1428565.1332572,18.1252268.8483769,5.5402903.6510333,11.1000872,1.2224243,16.6563134,1.6883936,12.5642629,1.1551357,25.1887128,3.106224,37.8083555,1.6128927,20.700042-2.9887851,39.9820489-24.1167373,61.5529826-15.049976,7.2102439,3.2410564,8.6847148,11.8404933,12.0907277,18.4423448,5.6573021,9.8448768,13.5216005,12.2462715,23.8415905,11.7852348,11.9054151-1.0420156,24.1646164-3.7612322,34.4739639-10.4330031,7.1592822-4.7348203,13.8876687-10.175864,20.5509777-15.6564571,5.9909427-4.9074623,12.5784482-10.3661952,20.5225236-10.1172648,7.1916265.1121809,13.8021676,3.6061057,20.5402796,5.9068928,11.0002756,4.1631723,22.8015166,11.1053936,26.6938607,23.5962953,4.0163027,14.7809048,5.5369836,38.9989429,1.1378292,53.7393906-1.8739949,5.7480613-4.4589246,11.2138419-6.3026592,16.9816187-1.5760608,4.8141704-2.866386,9.7377228-4.3783974,14.573561-3.3816992,11.0259307-7.450464,21.7957892-10.9383658,32.7823407-2.7554318,8.968707-1.3218081,18.5214841-.9483485,27.7495987.280456,9.1459395-.4332854,18.320454-2.1590913,27.2880222-1.9715834,12.1102467-5.4220003,23.8983008-7.2094659,36.0382317-1.5506633,11.2409599-1.444294,23.0352112,2.1016552,33.8367949,3.5274985,12.1410549,9.9176039,23.2388889,12.4207838,35.7028758,1.0544955,7.7146351-.3452834,15.5199054-.9355386,23.2139524-.4883596,6.9552997-.5262057,13.9392039-.8997765,20.9042947-.7675651,10.6676424-1.4662459,21.474521-4.4282198,31.7521425-2.9881216,10.5575432-7.4947846,20.5975433-9.7417389,31.3961689-2.8960349,11.9209157-2.4912314,24.2880851-2.277159,36.4941584.3572319,10.3235307.3393926,20.9090868,3.2783031,30.8096732,3.1465363,10.7073101,10.0022159,19.5009292,14.4315471,29.5125023,4.0979414,8.8509464,3.0496147,19.3739691.7004313,28.6131912-2.335651,8.6155436-6.7217732,16.3520092-10.2791151,24.4255169-4.7530518,10.9692764-7.9663329,22.5903921-10.9426728,34.1503351,7.6495036,3.0743176,23.8639036,11.7616239,28.0221988,19.0665669,2.9852873,5.6190231,1.1097642,13.1669417-3.9726768,16.6185309-4.9916603,3.2292611-12.8078591,3.7150938-17.9973641.7683871-10.8914888-6.8567369-11.9622398-22.5322366-10.0556228-34.5718594-4.4077406-1.3766837-8.8757238-1.1477886-13.383276-1.1483802-3.6749372.0131338-7.3629622.0601079-10.9727107.8740492-6.2004024,1.5171919-11.8592606,4.78757-17.9081951,6.8044975-5.1675809,1.7744252-10.6200081,2.0268666-16.0089139,2.1585005-9.7324302.1626936-19.5036513.4328833-29.0076431,2.9023357-8.1931596,2.1241278-16.1873076,5.2070237-24.6638686,5.8514088-5.4706278.605516-10.8782899,2.070291-16.4073542,1.6623146-13.5201278-.4430591-26.1276136-6.4616577-38.5196655-11.6657825-4.5824525-2.0845488-8.7604765-5.1940674-13.6067821-6.5988528-9.6098332-2.2891287-19.277158.7853664-27.9788369,5.0767505-8.8859773,3.9157098-17.9007342,7.5243723-26.9033065,11.1318517-7.8514191,2.9794228-15.7057836,6.3554631-24.0330164,7.4324357-6.9218478.7618202-13.9181027.2533879-20.7181523-1.2720274-5.438096-1.2124519-11.0268402-1.8771884-16.2651881-3.9109769-7.1602409-3.1735311-13.9413814-7.2931699-21.4150338-9.6860675-4.9293371-1.6621371-9.7124616-4.2956437-14.9207716-4.7201853-2.7568108,8.8741377-7.4403321,16.8430481-12.683251,24.2805717-4.0306131,5.384271-8.1457443,12.7848779-15.414765,12.763639Zm-1.2832777-3.9790124c5.9640239-.224813,9.0803729-6.2870727,12.4014682-10.658857,4.7963269-6.9945828,9.3726002-14.2937872,12.2754881-22.4276985-12.4800851.7266192-36.1505457,7.7559297-32.8241083,25.163081.5691456,4.5889655,3.7060467,8.3826847,8.1471519,7.9234746Zm379.8648792-4.9367749c3.5392247-.2430347,7.2727373-1.0614131,9.7420168-3.9962875,2.476782-2.8428785,3.4148771-6.9387937,2.0210168-10.3905013-2.8569106-6.0116767-19.9193196-15.1312747-26.1880229-17.5030517-2.7240323,11.807533-.9435413,33.3057482,14.4249893,31.8898405Z" stroke-width="0"/>
    </g>
  </g>
</svg>