<?xml version="1.0" encoding="UTF-8"?>
<svg id="b" data-name="Layer 2" xmlns="http://www.w3.org/2000/svg" width="210.235" height="207.391" viewBox="0 0 210.235 207.391">
  <g id="c" data-name="Layer 1">
    <path d="m20.115,160.582c-.836.986-1.785,1.875-2.632,2.853-.85.977-1.814,1.9-2.018,3.224.124,1.095.783,1.596,1.616,1.965.556.244,1.088.542,1.633.811.855.421,1.646.935,2.294,1.642.416.453.844.902,1.208,1.395,1.267,1.714,2.457,3.486,3.475,5.358,1.136,2.088,2.527,3.989,4.115,5.733,1.169,1.284,2.39,2.51,3.407,3.932.955,1.333,2.062,2.561,2.983,3.917,1.356,1.998,2.964,3.774,4.587,5.542.589.642,1.183,1.279,1.75,1.939.325.377.626.781.892,1.203.943,1.496,1.865,3.005,2.796,4.509.407.658.798,1.326,1.227,1.97.543.816,1.538,1.047,2.402.575.217-.119.432-.267.598-.446.514-.556,1.049-1.1,1.494-1.709,1.552-2.128,3.16-4.217,4.499-6.493.828-1.407,1.703-2.788,2.483-4.219.764-1.405,1.438-2.86,2.148-4.293.659-1.33,1.239-2.693,1.704-4.103.6-1.814,1.246-3.614,1.75-5.454.553-2.018,1.227-3.982,2.148-5.856.696-1.416,1.433-2.812,2.164-4.21.243-.465.523-.909.757-1.314.992-.268,1.91-.546,2.842-.765,1.841-.433,3.659-.939,5.456-1.525,1.171-.381,2.357-.714,3.538-1.061.711-.209,1.408-.46,2.165-.488.409-.016.815-.126,1.221-.205.753-.147,1.503-.319,2.258-.456.759-.137,1.536-.191,2.282-.375,1.039-.256,2.093-.437,3.14-.647.672-.135,1.346-.261,2.017-.405,1.18-.253,2.353-.537,3.536-.77,1.053-.207,2.129-.304,3.17-.553,1.979-.474,3.968-.87,5.978-1.184.439-.068.907-.021,1.31-.175.561-.216,1.147-.119,1.715-.275.607-.167,1.269-.114,1.9-.207.98-.142,1.953-.333,2.931-.491.789-.128,1.597-.174,2.37-.365,1.833-.451,3.652-.96,5.473-1.458,1.497-.409,2.995-.775,4.569-.737.663.016,1.336-.068,1.993-.175,1.166-.189,2.316-.482,3.486-.637,1.26-.167,2.473-.507,3.698-.811,1.834-.453,3.601-1.149,5.473-1.47.972-.167,1.921-.474,2.896-.603,1.285-.174,2.534-.512,3.81-.721.552-.089,1.074-.354,1.652-.554,1.051.94,2.185,1.905,3.26,2.932,1.38,1.319,2.73,2.668,4.072,4.028,1.244,1.258,2.457,2.542,3.578,3.916.972,1.191,1.978,2.356,2.999,3.505,1.154,1.302,2.342,2.574,3.514,3.861.528.581,1.072,1.149,1.571,1.756.885,1.074,1.716,2.193,2.617,3.253.514.603.972,1.303,1.797,1.556.974.002,1.446-.256,1.883-1.109.301-.586.551-1.2.815-1.805.307-.705.532-1.458.921-2.112.775-1.307,1.813-2.414,2.92-3.451.45-.421.927-.814,1.368-1.246.869-.847,1.719-1.716,2.582-2.57.998-.988,1.932-2.033,2.801-3.135.327-.414.602-.874.95-1.267.89-1.011,1.573-2.151,2.171-3.342.928-1.851,1.754-3.753,2.74-5.57.829-1.53,1.748-3.01,2.475-4.596.264-.574.509-1.158.754-1.74.68-1.614,1.144-3.296,1.556-4.94.347-.081.639-.165.936-.218.761-.13,1.538-.193,2.285-.379,1.778-.446,3.55-.918,5.291-1.496.728-.242,1.44-.526,2.19-.711.591-.146,1.111-.472,1.541-.844.062-.625.23-1.218.146-1.772-.09-.589-.058-1.168-.078-1.753-.021-.614-.137-1.2-.323-1.784-.536-1.682-.887-3.4-1.07-5.161-.057-.551-.05-1.119-.173-1.653-.09-.388-.111-.767-.142-1.153-.032-.414-.142-.823-.154-1.235-.036-1.253-.184-2.495-.331-3.739-.125-1.053-.123-2.121-.192-3.181-.045-.693-.071-1.393-.186-2.077-.148-.875-.315-1.744-.323-2.635,0-.112-.008-.225-.027-.333-.099-.57-.226-1.135-.299-1.707-.085-.661-.116-1.33-.187-1.993-.049-.467-.118-.932-.191-1.396-.154-.979-.324-1.956-.476-2.937-.127-.818-.221-1.642-.36-2.458-.143-.839-.343-1.668-.482-2.507-.141-.844-.218-1.698-.36-2.542-.14-.839-.345-1.668-.486-2.507-.142-.844-.2-1.703-.364-2.542-.309-1.588-.643-3.17-1.012-4.746-.356-1.518-.786-3.017-1.153-4.531-.311-1.279-.578-2.568-.865-3.854-.214-.963-.439-1.925-.64-2.889-.304-1.453-.605-2.905-.881-4.363-.149-.786-.187-1.596-.373-2.372-.268-1.125-.429-2.267-.656-3.398-.146-.73-.261-1.465-.367-2.203-.159-1.112-.424-2.21-.649-3.312-.142-.7-.297-1.396-.441-2.095-.194-.942-.382-1.884-.575-2.825-.144-.7-.311-1.395-.438-2.096-.153-.84-.281-1.686-.406-2.532-.078-.521-.11-1.049-.199-1.567-.144-.84-.334-1.672-.473-2.512-.139-.846-.198-1.705-.368-2.544-.204-1-.413-1.996-.497-3.017-.036-.437-.143-.868-.216-1.303-.095-.57-.194-1.14-.281-1.712-.075-.491-.13-.986-.204-1.479-.097-.654-.22-1.303-.3-1.96-.081-.663-.057-1.344-.2-1.989-.223-1-.268-2.021-.476-3.021-.175-.837-.218-1.705-.384-2.539-.217-1.088-.244-2.191-.448-3.279-.152-.811-.236-1.64-.332-2.461-.121-1.046-.234-2.093-.347-3.14-.101-.937-.202-1.87-.343-2.802-.128-.846-.226-1.698-.33-2.547-.111-.907-.266-1.81-.336-2.714-.065-.835-.257-1.642-.4-2.453-.233-1.325-.644-2.617-.668-3.986-.238-.254-.468-.502-.653-.7-.313-.028-.54-.023-.756-.072-.786-.182-2.072-.175-2.896.004-.431.093-.87.174-1.308.195-1.314.061-2.628-.025-3.949.142-1.154.146-2.277.412-3.417.605-1.028.175-2.041.44-3.071.603-.897.142-1.787.307-2.675.498-.968.209-1.951.342-2.922.535-.995.198-1.982.437-2.976.637-.701.142-1.409.253-2.114.375-.434.077-.869.149-1.303.221-.569.096-1.137.207-1.71.284-.577.077-1.18.046-1.733.2-.872.242-1.771.089-2.644.295-.477.112-.99.098-1.484.151-1.322.139-2.601.484-3.887.76-1.444.311-2.9.586-4.332.963-1.165.309-2.34.577-3.518.828-1.209.258-2.425.477-3.64.703-.703.132-1.413.23-2.114.37-1.318.261-2.632.549-3.95.814-.943.191-1.895.34-2.832.554-1.307.3-2.603.649-3.906.97-2.021.496-4.042.995-6.067,1.477-.854.204-1.713.388-2.576.549-1.325.249-2.667.419-3.981.712-1.478.332-2.962.605-4.458.83-.46.07-.911.204-1.369.284-.788.14-1.577.263-2.367.388s-1.589.207-2.371.374c-.917.195-1.842.332-2.767.475-.436.068-.876.119-1.31.204-1.079.207-2.155.428-3.233.642-.781.156-1.563.312-2.344.468-.619.125-1.238.254-1.858.377-.782.153-1.565.298-2.347.451-.971.188-1.94.391-2.914.563-.788.14-1.599.179-2.37.381-.886.23-1.797.265-2.687.454-.621.132-1.285.068-1.9.214-.416.1-.825.096-1.236.154-1.036.147-2.063.361-3.101.486-1.014.119-2.018.27-3.014.498-.457.104-.931.132-1.398.189-.522.065-1.062.063-1.564.2-.826.226-1.67.328-2.507.475-.733.13-1.485.179-2.202.363-1.204.311-2.449.358-3.654.647-.401.096-.818.133-1.23.175-.664.068-1.349.044-1.987.205-.446.114-.894.051-1.318.165-.882.239-1.795.265-2.682.467-.777.177-1.583.225-2.37.367-1.107.204-2.202.465-3.31.656-.898.153-1.811.218-2.712.358-1.304.204-2.602.447-3.904.663-1.087.181-2.192.281-3.26.535-1.782.423-3.561.875-5.303,1.453-1.091.361-2.178.742-3.283,1.056-1.421.404-2.854.767-4.291,1.111-.96.23-1.931.423-2.905.582-.657.109-1.346.053-1.989.207-.943.225-1.906.286-2.854.458-1.244.223-2.486.467-3.709.77-1.832.453-3.646.982-5.425,1.625-1.598.577-3.243,1.014-4.759,1.828-.734.393-1.366.854-1.864,1.453-.052.228-.111.414-.133.605-.035.304-.114.623-.053.911.189.888.361,1.775.485,2.674.075.544.219,1.077.311,1.618.079.463.132.932.19,1.398.064.521.079,1.054.191,1.565.201.914.383,1.828.494,2.758.048.409.131.816.201,1.223.099.568.226,1.133.295,1.707.086.718.018,1.47.211,2.154.217.767.047,1.546.268,2.312.172.598.094,1.265.172,1.905.121.989.21,1.981.363,2.968.148.956.232,1.923.355,2.884.049.381.117.763.196,1.139.149.696.332,1.386.467,2.086.245,1.268.447,2.546.702,3.812.254,1.261.553,2.516.829,3.772.205.937.38,1.882.613,2.812.279,1.114.622,2.212.909,3.326.375,1.458.724,2.925,1.082,4.386.489,1.995.979,3.989,1.462,5.986.232.958.466,1.918.671,2.881.246,1.156.444,2.321.696,3.474.147.674.281,1.346.377,2.03.107.758.312,1.502.46,2.256.143.728.254,1.463.405,2.189.189.912.453,1.81.597,2.73.162,1.035.38,2.06.565,3.088.287,1.596.586,3.189.813,4.796.058.409.127.818.201,1.225.154.837.313,1.674.471,2.51.147.782.292,1.565.446,2.347.186.942.37,1.886.575,2.825.21.963.432,1.925.671,2.882.331,1.328.688,2.651,1.021,3.979.286,1.142.574,2.284.825,3.435.206.94.342,1.895.539,2.839.191.912.431,1.814.629,2.725.141.644.262,1.295.371,1.947.136.816.242,1.639.378,2.456.149.896.389,1.782.458,2.684.084,1.109.215,2.209.341,3.31.088.774.321,1.503.472,2.258.108.535.326,1.058.375,1.595.045.502.189.967.288,1.447.154.746.41,1.475.415,2.175-.208.295-.362.526-.53.747-.739.977-1.442,1.984-2.233,2.917Zm128.125-10.666c-.694.081-1.381.154-2.067.239-.411.049-.822.102-1.23.172-1.219.216-2.433.463-3.657.647-.518.079-1.05.047-1.571.184-.425.112-.882.098-1.31.202-.673.163-1.348.267-2.039.333-.79.079-1.57.275-2.354.418-.163.03-.327.054-.491.074-1.178.142-2.356.274-3.529.475-.868.151-1.728.309-2.584.519-.478.118-.989.091-1.487.163-1.745.249-3.474.542-5.184.988-.85.221-1.745.267-2.618.402-.598.091-1.193.207-1.791.304-.79.128-1.582.239-2.371.374-.704.121-1.402.286-2.108.395-1.061.163-2.045.609-3.096.805-.727.137-1.442.333-2.166.486-.646.135-1.299.233-1.945.368-.992.207-1.981.437-2.971.653-.776.168-1.55.353-2.333.488-.843.147-1.696.232-2.541.367-.514.082-1.016.246-1.532.304-.496.058-.99.082-1.485.188-.968.204-1.96.265-2.93.489-.45.104-.93.105-1.397.186-1.223.212-2.465.318-3.686.54-1.002.186-2.01.33-3.01.511-1.455.265-2.867.725-4.255,1.233-1.569.574-3.123,1.193-4.682,1.796-.307.119-.604.265-.914.379-.176.063-.368.084-.553.125.082-.512.443-.877.702-1.289,1.211-1.923,2.496-3.8,3.648-5.754.697-1.182,1.197-2.481,1.791-3.724.603-1.263,1.143-2.553,1.509-3.907.285-1.053.541-2.114.817-3.17.429-1.639.867-3.274,1.294-4.914.254-.977.49-1.958.74-2.937.196-.768.418-1.528.596-2.3.27-1.175.508-2.356.764-3.535.116-.535.245-1.068.361-1.605.222-1.018.448-2.037.656-3.058.459-2.26.864-4.53,1.52-6.745.429-1.449.996-2.847,1.543-4.254.767-1.968,1.456-3.961,2.034-5.996.592-2.084,1.262-4.146,1.88-6.223.931-3.13,2.278-6.082,3.84-8.937.782-1.43,1.667-2.802,2.507-4.2.186-.309.395-.603.566-.919.547-1.012,1.325-1.851,2.018-2.756.706-.921,1.232-1.958,1.583-3.035,1.29.386,2.347,1.333,3.723,1.314.497.589.96,1.184,1.474,1.733,1.019,1.086,2.156,2.042,3.288,3.009.999.854,1.842,1.893,2.753,2.849,1.273,1.339,2.249,2.895,3.229,4.444.738,1.165,1.409,2.374,2.119,3.558.796,1.328,1.55,2.679,2.19,4.088.774,1.702,1.599,3.379,2.261,5.133.475,1.258,1.068,2.475,1.653,3.689.683,1.418,1.381,2.832,2.134,4.212s1.581,2.719,2.379,4.075c.644,1.095,1.29,2.188,1.94,3.279.693,1.163,1.376,2.333,2.093,3.481s1.449,2.296,2.223,3.41c.649.935,1.368,1.821,2.056,2.728.907,1.196,1.827,2.386,2.72,3.593,1.039,1.403,2.051,2.828,3.08,4.239.752,1.032,1.489,2.077,2.277,3.079.536.684,1.149,1.307,1.732,1.953.151.168.318.321.193.589Zm47.14-12.789c-.218.488-.297.986-.361,1.514-.071.591-.268,1.184-.506,1.735-.729,1.691-1.475,3.377-2.269,5.038-.916,1.919-1.904,3.802-2.832,5.716-.467.963-.848,1.967-1.305,2.935-.553,1.17-1.116,2.339-1.731,3.477-.433.802-.943,1.563-1.449,2.323-.307.463-.657.896-1.01,1.326-.834,1.014-1.642,2.053-2.536,3.012-.703.754-1.275,1.63-2.151,2.235-.504.347-.86.905-1.354,1.274-1.215.907-2.041,2.126-2.823,3.381-.42.674-.756,1.398-1.127,2.096-.068-.012-.143-.004-.17-.037-.85-.998-1.694-2.003-2.544-3.002-.164-.195-.35-.368-.529-.549-1.317-1.319-2.632-2.64-3.953-3.954-1.194-1.186-2.263-2.479-3.308-3.796-.607-.765-1.252-1.5-1.886-2.244-.961-1.13-1.89-2.288-2.898-3.372-1.057-1.137-2.182-2.21-3.289-3.3-2.043-2.009-4.131-3.974-6.127-6.028-1.377-1.418-2.514-3.047-3.649-4.667-.988-1.407-1.954-2.828-3.021-4.181-1.031-1.309-1.968-2.691-3.02-3.982-1.863-2.288-3.341-4.819-4.78-7.375-1.218-2.165-2.365-4.37-3.613-6.517-.931-1.602-1.813-3.224-2.571-4.91-.867-1.928-1.671-3.884-2.491-5.835-.478-1.137-.912-2.295-1.403-3.426-.7-1.614-1.46-3.203-2.149-4.821-.967-2.27-2.196-4.391-3.578-6.426-.687-1.012-1.398-2.012-2.253-2.9-.427-.444-.788-.954-1.237-1.372-.903-.837-1.845-1.632-2.774-2.44-1.078-.94-2.158-1.874-3.271-2.84.66-.672,1.262-1.286,1.958-1.995.316.025.786-.121,1.244.116.091.047.22.023.332.028,2.134.088,4.264.265,6.403.196,1.535-.049,3.024.244,4.494.66,1.577.447,3.147.916,4.767,1.205.733.132,1.456.279,2.203.337.711.054,1.42.191,2.115.354,1.521.358,3.019.788,4.5,1.303,2.152.747,4.166,1.742,6.078,2.972,1.397.896,2.82,1.756,4.228,2.635.163.102.347.205.454.356.739,1.04,1.688,1.847,2.719,2.586.747.537,1.44,1.151,2.138,1.753.615.532,1.231,1.068,1.8,1.647,1.858,1.888,3.705,3.788,5.533,5.703.617.647,1.163,1.36,1.743,2.039.092.109.197.204.292.307.489.542.952,1.109,1.472,1.619.681.668,1.398,1.302,2.117,1.93.546.477,1.136.902,1.676,1.384,1.297,1.16,2.581,2.337,3.863,3.514.807.74,1.611,1.484,2.401,2.246,1.889,1.818,3.743,3.67,5.66,5.458,1.036.965,2.23,1.744,3.42,2.514,1.442.935,2.885,1.868,4.296,2.849,1.618,1.125,3.201,2.298,4.797,3.454.855.619,1.675,1.293,2.568,1.851.629.391.778.956.871,1.586.066.446.008.898-.174,1.305Zm-29.58-69.876c.815.798,1.309,1.782,1.596,2.858.149.558.155,1.154.199,1.735.07.919.139,1.839.168,2.76.029.903.008,1.807.008,2.71,0,1.121.004,2.242-.185,3.351-.153.895-.345,1.782-.479,2.679-.082.547-.064,1.103-.158,1.66-.221,1.303-.491,2.591-.884,3.853-.258.83-.828,1.465-1.406,2.039-.762.756-1.574,1.507-2.634,1.861-.831.277-1.66.57-2.51.779-1.09.27-2.193.509-3.304.67-.799.116-1.629.088-2.411-.158-1.152-.36-2.357-.568-3.428-1.168-.266-.147-.532-.296-.789-.461-1.097-.7-2.199-1.395-3.284-2.114-1.224-.811-2.422-1.661-3.651-2.465-1.182-.77-2.431-1.412-3.741-1.956-1.042-.432-2.075-.882-3.154-1.203-1.364-.407-2.746-.753-4.119-1.133-.816-.226-1.64-.432-2.438-.711-1.679-.588-3.342-1.223-5.016-1.826-.669-.242-1.353-.442-2.023-.679-.671-.239-1.334-.496-1.997-.756-.066-.025-.103-.125-.166-.205.894-.211,1.773-.425,2.655-.623.722-.161,1.447-.312,2.173-.456.861-.172,1.722-.351,2.589-.489.603-.096,1.222-.089,1.821-.2,1.057-.195,2.135-.042,3.18-.195,1.603-.232,3.206-.172,4.795-.081,1.063.06,2.137-.011,3.183.146.879.132,1.766.144,2.646.261,1.096.146,2.177.361,3.253.581,1.361.277,2.716.618,4.012,1.153,1.443.595,2.922,1.103,4.354,1.719,1.114.479,2.218,1.005,3.259,1.621,1.146.681,1.977,1.691,2.619,2.874.553,1.019,1.189,1.993,1.826,2.965.174.263.446.516.732.644.826.375,1.182.24,1.956-.619v-.989c-.136-.361-.279-.719-.405-1.081-.64-1.846-1.577-3.514-2.813-5.031-.862-1.06-1.909-1.874-3.078-2.517-2.366-1.303-4.846-2.363-7.42-3.182-1.303-.412-2.613-.811-3.984-.979-.843-.104-1.667-.353-2.508-.475-.743-.107-1.506-.084-2.247-.196-1.257-.191-2.529-.046-3.776-.191-2.165-.251-4.328-.061-6.491-.126-.966.342-1.987.144-2.982.275-1.012.135-2.032.279-3.044.423-1.355.191-2.698.503-4.024.851-1.825.477-3.644.996-5.412,1.665-1.207.458-2.4.953-3.634,1.446-.035-.411-.093-.86.059-1.318.06-.179.066-.382.067-.577.006-1.525.035-3.051-.007-4.574-.019-.681-.185-1.354-.294-2.102.466.028.931-.123,1.383.119.047.025.106.033.16.037.833.06,1.667.116,2.5.174.638.044,1.28-.075,1.916.144.278.096.641.091.921-.002.553-.182,1.111-.095,1.665-.144.687-.061,1.371-.14,2.047-.3.456-.109.93-.147,1.398-.193,1.538-.154,3.031-.547,4.546-.816,1.626-.288,3.214-.719,4.824-1.067,3.484-.749,6.797-1.965,9.92-3.705,2.124-1.184,3.974-2.693,5.596-4.484,1.614-1.782,2.853-3.816,3.825-6.01.446-1.005.828-2.039,1.305-3.028.641-1.328,1.595-2.409,2.778-3.296.381-.286.701-.653,1.099-1.032.409.165.832.354,1.268.505.415.146.836.296,1.267.365,1.341.212,2.387.854,3.112,2.007.78,1.24,1.593,2.461,2.325,3.728.804,1.391,1.017,2.928.848,4.51-.059.547-.34,1.039-.624,1.516-.564.951-1.127,1.902-1.657,2.872-.236.432-.434.895-.572,1.367-.435,1.489-.256,2.863.901,3.996Zm23.614-38.88c.063-.179.007-.396.054-.582.029-.121.146-.219.215-.314.318,1.575.643,3.135.946,4.698.141.732.225,1.474.361,2.205.222,1.189.359,2.391.643,3.572.206.856.241,1.753.377,2.626.131.844.295,1.681.441,2.521.08.463.169.923.226,1.389.12.984.268,1.961.489,2.932.111.482.116.989.197,1.482.162.977.273,1.961.482,2.933.162.754.225,1.528.366,2.288.192,1.025.425,2.042.625,3.067.143.728.251,1.465.389,2.195.137.73.298,1.453.439,2.181.141.73.264,1.461.407,2.189.216,1.105.456,2.205.661,3.31.246,1.326.454,2.66.703,3.986.195,1.04.261,2.089.363,3.139.07.723.089,1.446.147,2.168.081,1.021.189,2.042.341,3.056.132.875.237,1.753.347,2.632.12.961.245,1.919.341,2.886.089.907.202,1.818.346,2.714.154.949.199,1.916.446,2.856.146.556.131,1.154.203,1.733.041.328.125.649.162.977.037.33.028.649.138.984.134.409.094.87.177,1.312.191,1.033.225,2.093.378,3.135.146.988.247,1.977.354,2.97.089.821.248,1.635.332,2.463.105,1.04.385,2.063.462,3.103.108,1.468.488,2.882.736,4.319.2,1.161.438,2.319.658,3.477.24,1.265.559,2.514.814,3.774.104.514.119,1.046.195,1.567.088.598.21,1.191.296,1.791.083.575.151,1.154.205,1.733.069.747.018,1.525.205,2.24.164.626.101,1.258.264,1.884.193.744.225,1.551.196,2.325-.054,1.437.242,2.812.555,4.193.066.289.167.572.254.87-2.622,1.047-5.356,1.596-8.195,1.739-.259-1.025-.325-2.072-.717-3.053-.21-.525-.436-1.011-.843-1.409-.786-.772-1.522-1.598-2.355-2.316-1.225-1.053-2.485-2.072-3.787-3.028-1.497-1.098-3.063-2.102-4.586-3.165-1.413-.989-2.825-1.981-4.13-3.112-.55-.479-1.087-.972-1.629-1.458-.481-.43-.975-.846-1.438-1.293-1.458-1.407-2.795-2.925-4.146-4.431-.653-.732-1.419-1.361-2.134-2.037-.103-.096-.205-.193-.307-.289-1.246-1.182-2.489-2.367-3.741-3.542-.326-.305-.711-.553-1.013-.877-.933-1.009-1.837-2.042-2.757-3.063-.582-.646-1.156-1.302-1.76-1.928-.804-.833-1.615-1.66-2.457-2.454-.589-.553-1.237-1.042-1.854-1.565-.172-.146-.329-.309-.496-.461-.849-.77-1.699-1.539-2.599-2.354.644-.044,1.276-.028,1.905-.018,1.007.019,2.004-.075,2.969-.349,1.605-.456,3.114-1.121,4.39-2.237.294-.256.612-.484.901-.747,1.618-1.468,2.57-3.31,3.029-5.426.216-1,.392-2.003.539-3.016.149-1.03.413-2.046.62-3.067.028-.137.021-.281.028-.419.032-.611.065-1.218.138-1.83.147-1.247.252-2.521.166-3.77-.085-1.233-.013-2.474-.158-3.691-.195-1.64-.608-3.242-1.613-4.623-.288-.396-.519-.835-.741-1.195.33-1.361.95-2.496,1.521-3.654.567-1.151.953-2.354.87-3.668-.029-.449-.014-.903-.007-1.354.023-1.6-.528-3.026-1.324-4.377-.836-1.416-1.892-2.668-2.9-3.961-.688-.884-1.468-1.595-2.477-2.06-.132-.06-.279-.088-.421-.279.327-.089.65-.193.98-.265,1.125-.249,2.256-.479,3.381-.73.882-.198,1.752-.461,2.64-.618,1.038-.181,2.008-.551,2.971-.94,2.315-.933,4.641-1.847,6.912-2.881,1.843-.839,3.649-1.796,5.05-3.316,1.189-1.289,2.269-2.672,3.072-4.244.675-1.323,1.072-2.756,1.566-4.149ZM6.071,50.84c-.061-.239-.203-.454-.25-.689-.726-4.051-1.452-8.1-2.169-12.1,1.369-.288,2.765-.584,4.162-.872.458-.095.923-.154,1.382-.246,1.187-.233,2.397-.321,3.575-.625.929-.24,1.886-.367,2.826-.563,1.266-.263,2.54-.474,3.812-.698,2.32-.407,4.632-.881,6.881-1.602,2.528-.809,5.032-1.689,7.565-2.482,1.408-.442,2.848-.786,4.281-1.14,1.222-.304,2.452-.579,3.686-.832.755-.154,1.527-.226,2.286-.365,1.079-.195,2.154-.419,3.231-.632.943-.184,1.888-.361,2.829-.553.698-.142,1.388-.326,2.089-.453.84-.153,1.689-.258,2.532-.396.515-.084,1.025-.198,1.539-.284.49-.082.983-.146,1.475-.216,1.23-.174,2.467-.307,3.689-.532,1.271-.233,2.544-.451,3.817-.674,1.539-.27,3.059-.644,4.589-.961,1.479-.305,2.964-.586,4.443-.896,1.53-.319,3.051-.681,4.583-.988.784-.158,1.585-.228,2.374-.365,1.03-.177,2.056-.375,3.081-.579.969-.191,1.936-.398,2.902-.605.832-.179,1.66-.374,2.49-.556.965-.212,1.93-.425,2.897-.626,1.049-.219,2.099-.432,3.151-.635.433-.086.871-.144,1.308-.212,1.007-.156,2.015-.302,3.019-.484.979-.179,1.995-.177,2.964-.393.654-.144,1.319-.072,1.969-.27.519-.16,1.095-.075,1.653-.182,1.031-.198,2.093-.228,3.134-.379.841-.123,1.668-.34,2.508-.479.435-.07.876-.054,1.32-.16.616-.146,1.28-.081,1.901-.214,1.156-.247,2.335-.342,3.491-.609.689-.158,1.405-.267,2.11-.391.919-.165,1.836-.34,2.75-.532.697-.144,1.388-.325,2.083-.477,1.125-.247,2.253-.484,3.379-.726.991-.212,1.984-.423,2.975-.639.989-.216,1.975-.456,2.968-.654.998-.198,2.008-.339,3.005-.539.832-.168,1.651-.4,2.48-.584,1.178-.263,2.36-.507,3.539-.763.831-.181,1.66-.365,2.491-.549.695-.154,1.389-.318,2.086-.463.832-.174,1.674-.307,2.509-.467.754-.144,1.525-.242,2.283-.388,1.024-.195,2.043-.416,3.064-.625.646-.132,1.291-.268,1.939-.386,1.512-.274,3.016-.579,4.509-.953,1.41-.353,2.843-.616,4.266-.918.537-.116,1.095-.175,1.604-.367.389-.146.768-.104,1.151-.154.774-.102,1.547-.202,2.33-.156.47.028.934.025,1.41.128.435.095.932-.058,1.394-.139.457-.081.901-.267,1.36-.305.748-.061,1.48-.277,2.245-.202.861.086,1.735-.091,2.594.158.222.065.492-.035.739-.065.164-.021.328-.079.49-.074.731.025,1.426-.149,2.121-.34.047-.012.107.019.233.044.57,2.391,1.222,4.796,1.705,7.235.481,2.43.793,4.891,1.177,7.317-.047.34-.122.665-.129.993-.019.818-.009,1.637-.007,2.456,0,.654-.147,1.295-.04,1.967.076.474-.059.991-.151,1.479-.112.593-.271,1.175-.421,1.76-.358,1.393-.95,2.696-1.596,3.972-.565,1.118-1.251,2.16-2.089,3.098-.26.289-.491.607-.747.902-.909,1.047-2.078,1.76-3.23,2.496-1.958,1.254-4.058,2.214-6.217,3.054-.663.258-1.339.489-2.021.688-.684.198-1.381.354-2.078.5-1.344.282-2.692.546-4.039.814-.351.07-.702.139-1.053.205-.513.096-.996.251-1.465.505-.823.442-1.723.595-2.668.5-.793-.319-1.442-.819-1.851-1.689,0-.97-.086-2.023.027-3.054.091-.837.095-1.67.155-2.505.054-.746-.124-1.444-.379-2.109-.394-1.026-.849-2.033-1.336-3.019-.594-1.202-1.352-2.302-2.314-3.244-.682-.665-1.353-1.358-2.115-1.925-1.133-.839-2.426-1.309-3.872-1.261-.649.021-1.302-.032-1.948.018-1.073.082-2.114.356-3.108.758-2.024.821-3.934,1.858-5.792,3.01-1.538.954-2.987,2.028-4.399,3.14-1.167.919-2.208,2.003-3.274,3.046-1.486,1.451-2.853,3.012-4.147,4.639-.836,1.047-1.734,2.046-2.556,3.105-1.104,1.425-2.148,2.898-3.059,4.456-1.061,1.812-2.114,3.632-3.123,5.474-.543.991-.945,2.06-1.481,3.054-1.023,1.9-2.216,3.688-3.867,5.107-.838.719-1.659,1.475-2.717,1.902-.321.13-.577.419-.815.6-.12.789.114,1.288.8,1.509,1.989.191,3.556-.675,5.021-1.861,1.904-1.54,3.155-3.567,4.284-5.682.571-1.07,1.074-2.179,1.602-3.274.989-2.049,2.196-3.968,3.484-5.837,1.197-1.737,2.4-3.472,3.668-5.156.89-1.182,1.892-2.279,2.846-3.412.306-.363.582-.763.934-1.075,1.106-.986,2.257-1.921,3.361-2.909,1.165-1.044,2.432-1.949,3.717-2.828.822-.563,1.637-1.147,2.512-1.618,2.058-1.102,4.126-2.214,6.433-2.714.752-.163,1.537-.367,2.315-.216.501.098,1.023.26,1.453.526,1.171.73,2.176,1.66,2.996,2.781.656.896,1.299,1.803,1.985,2.677.453.575.612,1.261.645,1.926.038.761-.155,1.535-.247,2.303-.019.167-.045.332-.049.498-.009.367.003.733-.01,1.102-.057,1.761.122,2.309.703,3.947-.114.177-.218.411-.384.588-.979,1.04-1.745,2.239-2.503,3.437-.693,1.095-1.214,2.282-1.746,3.467-.714,1.589-1.573,3.1-2.669,4.484-1.061,1.339-2.367,2.381-3.686,3.416-1.461,1.146-3.082,2.046-4.778,2.798-1.279.568-2.564,1.13-3.877,1.61-2.006.732-4.032,1.41-6.061,2.075-2.081.681-4.163,1.361-6.269,1.956-.92.26-1.876.423-2.825.593-2.427.437-4.865.3-7.301.302-.63,0-1.26-.147-1.905-.228-.823-2.086-2.102-3.414-4.757-3.321-.251-.204-.583-.418-.846-.698-1.226-1.309-2.811-1.923-4.495-2.332-.508-.123-1.045-.146-1.571-.177-.644-.04-1.269.119-1.861.344-.512.195-.896.554-.967,1.156-.016.132-.099.254-.184.46.176.374.373.793.547,1.163.259.132.449.256.657.326.179.06.432.144.561.067.505-.309.982-.121,1.445.033,1.271.421,2.511.928,3.83,1.219.461.104.885.449,1.285.74.546.396,1.103.675,1.797.77.532.072.999.367,1.311.914.598,1.046.871,2.184,1.138,3.335.218.94.339,1.9.463,2.849.118.903.294,1.814.318,2.712.02.74-.141,1.533-.464,2.24-.297.651-.689,1.263-.961,1.925-.358.87-1.093,1.305-1.834,1.751-.117.07-.252.109-.411.177-.867,0-1.773.04-2.673-.014-.571-.035-1.151-.156-1.696-.337-.721-.239-1.468-.226-2.16-.107-.76.133-1.506.081-2.256.132-.274.019-.546.042-.823.16-.125-.053-.248-.137-.378-.153-.432-.047-.617-.296-.704-.703-.139-.642-.336-1.27-.484-1.91-.289-1.244-.48-2.496-.556-3.781-.078-1.303-.144-2.619-.345-3.907-.194-1.24-.187-2.475-.087-3.693.075-.919-.014-1.9.5-2.737-.334-.644-.868-.795-1.528-.728-.278-.426-.582-.826-.814-1.263-.99-1.874-2.308-3.524-3.588-5.193-.814-1.061-1.739-2.042-2.799-2.9-.779-.628-1.406-1.447-2.09-2.193-.455-.495-.898-1.002-1.336-1.51-.984-1.146-1.969-2.291-2.94-3.447-1.148-1.368-2.309-2.726-3.417-4.128-1.442-1.826-3.167-3.326-5.203-4.417-1.201-.644-2.508-1.116-3.808-1.542-1.294-.425-2.637-.705-3.961-1.035-.531-.133-1.083-.189-1.602-.358-1.085-.349-2.202-.4-3.31-.305-1.376.119-2.607.646-3.646,1.602-1.103,1.012-1.925,2.242-2.753,3.465-.848,1.253-1.951,2.188-3.288,2.863-.836.423-1.7.798-2.517,1.253-1.957,1.091-3.247,2.714-3.791,4.909-.211.849-.492,1.677-.704,2.526-.201.803-.275,1.625-.483,2.419-.282,1.079-.209,2.181-.142,3.263.052.84.25,1.693.523,2.491.41,1.198.646,2.433.943,3.656.063.258-.11.574-.173.853-.212,0-.354.004-.494,0-1.032-.025-2.043.128-3.056.318-.84.158-1.697.228-2.54.368-.839.14-1.667.342-2.506.479-.602.096-1.215.126-1.822.191-.496.053-.99.123-1.486.167-.497.044-1,.086-1.491.119-1.026.07-2.075.189-3.102-.082-.132-.035-.279-.025-.418-.026-2.042-.035-3.96-.605-5.839-1.342-.664-.261-1.321-.537-1.981-.807-1.344-.547-2.491-1.428-3.702-2.198-.677-.432-1.344-.879-2.021-1.309-1.091-.695-1.868-1.698-2.522-2.767-.819-1.337-1.593-2.717-2.223-4.149-.784-1.782-1.746-3.496-2.234-5.402Zm79.747,28.822c-.686.011-1.371.132-2.044.293-.457.109-.932.098-1.4.17-1.336.205-2.653.493-3.927.905-2.11.684-4.184,1.482-6.265,2.253-1.414.525-2.83,1.047-4.217,1.635-2.284.967-4.582,1.918-6.609,3.382-.789.57-1.51,1.235-2.289,1.819-1.133.854-2.055,1.923-3.043,2.923-1.027,1.04-1.996,2.137-2.985,3.205-.774-.586-1.47-1.175-2.228-1.668-.761-.495-1.585-.895-2.423-1.358-.401-.635-.548-1.37-.636-2.154-.115-1.033-.423-2.032-.774-3.019-.357-1.005-.918-1.893-1.497-2.756-.992-1.481-1.699-3.081-2.266-4.753-.281-.828-.496-1.681-.73-2.525-.065-.237-.094-.484-.137-.728-.043-.242-.082-.486-.143-.847.295-1.389,1.124-2.609,2.096-3.763.839-.998,1.652-2.021,2.207-3.219.363-.782.564-1.593.608-2.468.075-1.502-.369-2.891-.781-4.296-.331-1.13-.643-2.265-.912-3.409-.088-.374-.063-.793-.009-1.181.225-1.63.464-3.26,1.117-4.791.053-.123.061-.267.101-.396.425-1.377,1.412-2.091,2.767-2.432,1.55-.389,3.071-.868,4.391-1.826.837-.607,1.682-1.202,2.255-2.093.075-.116.163-.225.315-.435.121,1.667.69,3.033,1.337,4.37.831,1.716,1.767,3.372,2.754,5.002.329.542.6,1.118.896,1.679.734,1.391,1.455,2.791,2.207,4.174.65,1.195,1.335,2.375,2.279,3.368.949.998,2.088,1.749,3.308,2.372,1.155.588,2.339,1.121,3.499,1.703,1.26.63,2.496,1.309,3.762,1.926,1.07.521,2.225.763,3.393.982,1.007.189,2.023.028,3.011.177,1.095.167,2.189.182,3.27.104,1.317-.096,2.64-.04,3.945-.182.753-.082,1.497-.088,2.331-.149,0,.526.001.947,0,1.367-.004.921.144,1.821.32,2.719.069.353.075.718.133,1.072.124.76.265,1.518.391,2.277.022.139.003.282.003.44-.368.274-.752.393-1.219.196-.196-.082-.438-.075-.659-.075-1.835-.005-3.671-.021-5.506.011Zm2.738,2.526c-1.23.965-2.338,1.835-3.446,2.703-.985.774-1.968,1.549-2.954,2.319-2.181,1.705-4.06,3.728-5.999,5.689-1.287,1.3-2.507,2.668-3.817,3.946-1.257,1.225-2.639,2.316-4.21,3.119-1.125.575-2.313,1.019-3.532,1.346-.582.156-1.211.167-1.82.196-1.235.06-2.48.058-3.687-.189-1.017-.207-2.036-.503-2.784-1.339-.58-.646-1.196-1.26-1.813-1.907.703-.591,1.344-1.128,1.981-1.67.171-.146.334-.302.494-.461.842-.835,1.677-1.677,2.523-2.509,1.375-1.354,2.883-2.516,4.567-3.484,1.635-.94,3.375-1.616,5.104-2.325,1.852-.76,3.729-1.456,5.61-2.144,2.313-.846,4.621-1.726,7.033-2.251,1.098-.24,2.197-.493,3.305-.684.71-.125,1.44-.126,2.16-.195.378-.035.753-.093,1.284-.161Zm-28.246-39.024c-.003-.375.055-.718.339-1.046.753-.349,1.571-.339,2.404-.167.162.033.332.07.495.058,1.041-.081,2.048.191,3.047.379,1.616.305,3.146.916,4.638,1.619.739.349,1.361.853,1.988,1.353.503.402.995.826,1.44,1.289.561.584,1.092,1.2,1.595,1.835,1.071,1.351,2.115,2.723,3.17,4.086.631.814,1.261,1.628,1.892,2.444.323.416.631.847.974,1.247.511.596,1.034,1.181,1.572,1.753,1.137,1.211,2.322,2.379,3.419,3.623.714.811,1.319,1.718,1.95,2.598,1.115,1.554,2.213,3.119,3.317,4.681.061.086.107.182.207.356-.821.137-1.588.209-2.324.402-.78.205-1.559.119-2.339.154-1.174.053-2.353.186-3.522.123-1.316-.068-2.638-.049-3.946-.165-1.443-.13-2.765-.723-3.977-1.518-1.854-1.212-3.696-2.444-5.538-3.672-.9-.6-1.774-1.24-2.693-1.805-.75-.461-1.196-1.163-1.625-1.872-.399-.66-.69-1.384-1.054-2.065-1.118-2.093-2.286-4.161-3.36-6.277-.644-1.272-1.43-2.488-1.776-3.895-.124-.505-.261-1.023-.276-1.539-.039-1.326-.006-2.654-.018-3.981Zm-37.626,99.658c-.123-.702-.322-1.391-.46-2.089-.144-.73-.244-1.468-.382-2.2-.137-.728-.304-1.451-.447-2.177-.139-.702-.261-1.407-.395-2.109-.186-.974-.286-1.961-.491-2.933-.12-.567-.082-1.167-.2-1.733-.2-.974-.235-1.967-.449-2.94-.164-.747-.246-1.523-.384-2.282-.139-.758-.241-1.523-.389-2.279-.195-.995-.42-1.982-.631-2.975-.165-.777-.346-1.553-.487-2.335-.093-.518-.118-1.046-.196-1.567-.078-.516-.186-1.026-.278-1.54-.077-.433-.164-.865-.223-1.302-.121-.898-.356-1.782-.472-2.675-.136-1.042-.396-2.054-.555-3.089-.143-.923-.335-1.837-.518-2.754-.214-1.075-.445-2.147-.661-3.223-.282-1.398-.568-2.795-.835-4.196-.242-1.27-.44-2.547-.7-3.814-.231-1.126-.533-2.239-.781-3.361-.207-.937-.375-1.884-.568-2.825-.143-.698-.311-1.389-.446-2.089-.146-.756-.266-1.518-.398-2.275-.156-.893-.26-1.795-.475-2.677-.097-.402-.142-.816-.197-1.226-.21-1.553-.479-3.093-.832-4.621-.234-1.018-.332-2.065-.538-3.089-.297-1.477-.641-2.944-.956-4.417-.252-1.181-.482-2.365-.735-3.544-.196-.911-.424-1.814-.613-2.725-.098-.474-.141-.96-.237-1.63.63,1.237,1.184,2.281,1.698,3.344.632,1.305,1.437,2.493,2.34,3.619.088.109.189.212.297.3,1.974,1.63,3.896,3.337,6.16,4.563,1.01.546,2.11.928,3.178,1.365,1.09.446,2.235.744,3.38.981.969.2,1.946.414,2.958.416.919,0,1.837.251,2.759.135,1.187-.149,2.39-.063,3.57-.309.568-.119,1.162-.102,1.736-.193.947-.153,1.892-.323,2.814-.602,1.038-.316,2.082-.612,3.258-.956-.118.235-.159.354-.23.453-.9,1.246-1.539,2.628-1.828,4.121-.183.947-.07,1.94.175,2.907.405,1.596,1.143,3.028,2.043,4.391.992,1.5,2.008,2.988,2.939,4.528.625,1.033,1.008,2.175,1.27,3.374.156.711.116,1.425.284,2.133.307,1.3.939,2.281,2.154,2.872.546.265,1.096.535,1.605.861,1.142.735,2.074,1.668,2.719,2.889.516.975.875,2.025,1.476,2.96.818,1.277,1.818,2.281,3.285,2.816.835.304,1.675.5,2.539.675.785.158,1.56.116,2.339.133.33.005.651.005.988-.123.292-.111.659-.023,1.023-.023-.381.663-.745,1.274-1.089,1.896-1.126,2.037-2.457,3.944-3.697,5.909-1.149,1.823-2.191,3.714-3.332,5.542-.762,1.221-1.593,2.402-2.434,3.57-1.338,1.86-3.045,3.381-4.653,4.991-.635.635-1.326,1.214-1.971,1.839-.3.291-.536.646-.825.947-1.596,1.67-3.246,3.293-4.787,5.01-1.653,1.844-3.331,3.66-5.081,5.41-.694.695-1.351,1.428-2.004,2.163-1.153,1.296-2.307,2.595-3.429,3.917-1.064,1.256-2.109,2.528-3.119,3.826-.663.853-1.249,1.765-1.871,2.647-.064.091-.143.172-.22.265-.197-.775-.39-1.528-.578-2.284-.027-.107-.032-.223-.03-.333.023-1.544-.429-2.995-.917-4.428-.426-1.251-.736-2.525-.963-3.824Zm3.424,13.628c1.039-1.437,2.015-2.921,3.018-4.384,1.023-1.495,2.085-2.954,3.3-4.303.954-1.058,1.85-2.168,2.782-3.247.258-.3.55-.57.829-.849,1.178-1.179,2.348-2.365,3.537-3.533,2.676-2.628,5.338-5.272,8.053-7.859,1.27-1.211,2.645-2.305,4.075-3.335,1.345-.967,2.604-2.056,3.693-3.307,1.389-1.595,2.624-3.307,3.735-5.11,1.379-2.239,2.805-4.447,4.166-6.696.829-1.372,1.617-2.772,2.345-4.198.723-1.416,1.279-2.909,1.618-4.47.023-.107.003-.223.003-.398.193-.119.389-.275.611-.368,1.546-.651,2.959-1.507,4.178-2.667,1.265-1.203,2.55-2.386,3.774-3.628.903-.918,1.724-1.916,2.582-2.879.019-.021.038-.042.057-.061,1.286-1.344,2.532-2.726,3.871-4.014,1.189-1.146,2.489-2.172,3.721-3.272,1.145-1.021,2.356-1.951,3.627-2.81,1.378-.932,2.83-1.707,4.451-2.205.082.107.181.207.245.325.171.318.317.647.493.963.759,1.358,1.804,1.807,3.328,1.475.506-.111,1.029-.147,1.605-.226-.332.488-.599.926-.914,1.33-.385.491-.535,1.082-.787,1.632-.543,1.186-1.287,2.256-1.972,3.358-1.297,2.089-2.541,4.205-3.481,6.486-.231.561-.555,1.082-.794,1.642-.756,1.768-1.317,3.605-1.874,5.444-.653,2.154-1.366,4.291-1.96,6.46-.417,1.519-1.042,2.953-1.622,4.402-.58,1.453-1.156,2.907-1.599,4.402-.327,1.103-.507,2.249-.759,3.375-.425,1.902-.759,3.824-1.254,5.712-.556,2.116-1.062,4.246-1.629,6.36-.29,1.081-.672,2.137-1.001,3.209-.602,1.958-1.138,3.939-1.868,5.854-.312.821-.65,1.633-.988,2.444-.57,1.367-1.15,2.732-1.727,4.096-.054.128-.107.254-.167.379-.966,2.012-1.883,4.049-2.914,6.026-.817,1.568-1.772,3.063-2.668,4.591-.979,1.668-2.046,3.284-2.908,5.023-.957,1.932-1.98,3.83-2.935,5.761-.925,1.87-1.607,3.833-2.15,5.854-.489,1.819-1.088,3.61-1.795,5.363-.543,1.346-1.003,2.726-1.588,4.054-.611,1.386-1.314,2.733-2.001,4.086-.313.614-.694,1.196-1.033,1.798-.938,1.667-1.915,3.307-3.042,4.854-.687.944-1.408,1.863-2.123,2.786-.32.412-.662.807-1.013,1.233-.852-1.223-1.669-2.375-2.466-3.542-.959-1.407-1.986-2.754-3.166-3.989-1.066-1.114-2.1-2.261-3.098-3.439-.736-.868-1.38-1.812-2.082-2.709-.533-.682-1.097-1.34-1.641-2.012-.647-.802-1.285-1.612-1.932-2.412-.142-.175-.306-.333-.466-.493-1.218-1.219-2.417-2.456-3.661-3.647-1.1-1.054-1.911-2.314-2.717-3.584-1.201-1.895-2.39-3.798-3.753-5.581-1.16-1.518-2.526-2.846-4.168-3.856-.589-.363-1.194-.698-1.79-1.047-.119-.07-.229-.154-.359-.242,1.701-1.67,3.086-3.56,4.471-5.454,1.215-1.663,2.493-3.277,3.699-4.946Z" stroke-width="0"/>
  </g>
</svg>