<?xml version="1.0" encoding="UTF-8"?>
<svg id="Layer_2" data-name="Layer 2" xmlns="http://www.w3.org/2000/svg" viewBox="0 0 72.5867578 108.2211008">
  <g id="Layer_1-2" data-name="Layer 1">
    <g>
      <path d="m33.9708107,58.749706c-2.5713135-.9508063-2.9073895-4.5028074-1.6779566-6.6344378.2166056-.380967.7056688-.8847368,1.1915098-.7049803.3382517.1050943.4648827.4891183.5957824.7755389-.012228.0403192-.0760667-.0446155-.0986774-.0706963-1.9303097-1.9221026-1.2923629,5.4813469,1.1820358,4.3570083-.0000275.0000826.0199944.0108509.0199944.0108509,1.3421284-.6172915,2.2416544-1.9623943,2.2596383-3.4264718.0006059.0803355.00168.1269064.0035803.1938296-.0942159-1.7260147-1.5599733-2.8529146-2.4606285-4.1984855.7018682.0339023,1.4683188.3049278,2.1643208.5395173,6.1624772,1.9113343,2.2124891,10.4962139-3.1795993,9.1583267Z" fill="#423b30" stroke-width="0"/>
      <path d="m16.2052692,57.655717c-3.349992-.2892022-8.6633973-1.1186653-8.9960859-5.2808525-.1025882-2.4884168,2.3730223-3.9668153,4.4029458-4.8013183,4.1920135-1.6110609,8.6780764.1337915,12.6130825,1.6850345,2.8216837,1.1191335,5.6511613,2.2320703,8.3969436,3.5358349-.724176-.1243176-1.6369764-.4094989-2.4039502-.5804975-5.7089412-.8188049-12.7782426-4.4591008-18.2038477-1.4625353-1.0266527.6756772-2.2775121,1.4924717-.5350282,2.265532,6.1154657,2.2411036,12.9482222,1.6330106,19.2780351,2.2803212-4.7134092,1.4030479-9.595366,2.6257334-14.552095,2.358481Z" fill="#423b30" stroke-width="0"/>
      <path d="m47.7940754,55.2076469c-2.4735725-.1557687-5.0678823-.3318348-7.4592465-.6908796,5.5795562-1.4028,11.4655273-1.7661411,16.8045453-3.9461325.612169-.3400143,1.3343345-.6093048,1.7313851-1.2140378-6.4107268-2.4758583-14.2353799-1.2623162-20.1176882,2.0814792.4996663-.0274854,1.1184725-.1807755,1.5641044-.171632-.6063304.1974099-1.2091356.4053953-1.8260416.5710786-.1128057.0282014-.2150358-.0564028-.2291916-.1657108-.0962814-.5170167.4942408-.8129664.8284716-1.1104031,4.0539533-3.3066158,9.2606394-4.8506433,14.4321839-5.0517436,2.9795455.0397133,7.6991238-.1820699,8.6368208,3.402071.0935273,5.906654-10.0181944,6.5863246-14.3653432,6.2959106Z" fill="#423b30" stroke-width="0"/>
      <path d="m15.6514033,73.7215449c-2.7618383-.663229-4.7196058-2.9125672-6.7400829-4.7590988.7268741.1953719,1.5609373.5904671,2.3230364.8634204,9.7631974,5.4455719,15.1675964-3.6380375,19.4765191-11.0547341.6961673-.9724255,1.0432595-2.281533,1.9883099-3.0350946.0387769-.0211511.0951798.0176259.1304315.0352518.0141007.0070504.0070504.0246762-.0070504.0211511-.0027265-.0039383-.0266591-.0052327-.0176259-.0070504-.0288624-.0031947-.0577248-.0064169-.0867524-.0096942-2.2756393,4.7549127-3.7154262,10.2200108-7.418349,14.223207-2.3127638,2.642781-6.0874295,4.5613033-9.6484364,3.7226418Z" fill="#423b30" stroke-width="0"/>
      <path d="m51.5086753,68.2702997c-5.7903783-.6788995-10.3388202-5.8750927-10.9667974-11.5555295-.090195-.2465145-.0065822-2.2030427.2819591-1.3218587-.0301292.0338472-.0806109-.1356367-.1203517-.169897.5068543,5.36766,5.3636391,10.2260421,10.7185203,10.7716183,5.3538072.5112333,9.5418549-3.5171074,14.1661432-5.5326823-3.558005,4.0264679-8.1234669,8.7805819-14.0794734,7.8083492Z" fill="#423b30" stroke-width="0"/>
      <path d="m28.285334,100.6430446c2.451485-4.3121725,4.3932791-8.9693717,4.8018691-13.9416611.8439218-9.0899988.4671961-18.2653179,1.7904318-27.3169254.0379783,1.247885-.0147892,2.6572672.0000826,3.9621059.1491866,6.9130094.7302073,13.8156635.6164928,20.7315646-.0028642,6.5440776-1.3005974,12.8974101-7.2088764,16.5649159Z" fill="#423b30" stroke-width="0"/>
      <path d="m45.1007577,100.0667883c-6.3006751-1.1413586-6.7752245-8.4576083-7.053686-13.6493743-.8939353-9.5472528.7982047-19.0755302.8941556-28.5934525-.0023409.0009088-.0043238.0018177-.0060038.0026163.9500627,4.632936.5830863,10.299878.8952021,15.2903441.1882389,5.9516826.6699488,11.8946625,1.5021384,17.7877942.4427953,2.1426121.8214764,4.433316,2.0843434,6.2691758,1.0807145,1.3452612,2.5740951,2.2524158,3.8304901,3.4218382-.6763107-.0876612-1.4459284-.3460181-2.1466399-.5289418Z" fill="#423b30" stroke-width="0"/>
      <path d="m24.5140558,106.6226257c-3.1357549-.1985391-6.6344653-.1469833-9.3414981-1.8825821-1.6950868-1.3759481-1.2554587-3.6098912.444007-4.7662524,3.9770328-2.7220768,9.5157465-2.9710149,13.9949518-1.9105701,0-.0034081-.0035252-.0034081-.0035803-.0036078-4.4612765.2490482-9.753751.938716-12.9185611,4.3635905.1004675.2141545.3031927.3400419.5135191.4308496,0,0,.0001377-.0170888.0001102-.01702,4.0374841.900125,7.9872244,1.9140264,11.7563544,3.6444751-1.4120812.1633699-2.9802616.1565674-4.445303.1411172Z" fill="#423b30" stroke-width="0"/>
      <path d="m52.6164346,106.9737388c1.3889472-1.5578252,3.1615052-2.8654179,4.7543343-4.1626003-3.8581407-1.9790219-9.7984216-2.9387581-13.412196-4.7457417,4.9255257.5768621,9.9128522.7300145,14.4602201,2.5101118,1.200901.4705904,1.9111691,1.9649349,1.3784818,3.1693336-1.3961628,2.3671287-4.7071025,2.9083741-7.1808402,3.2288967Z" fill="#423b30" stroke-width="0"/>
      <path d="m35.7718455,108.0685747c-5.0693419-.0552599-9.9893595-1.2730226-14.6487895-3.1393214.0067749.0160492.0710819.0547366.0227209.0551015-.026549-.0218671-.1042406-.0551429-.0669233-.0883497,2.1091023.1697042,4.200138.9368157,6.3596668,1.0727278,9.5711028.7208987,19.1520651-1.0664761,28.7193123-.0009915-6.4404154,2.4172798-13.5546352,2.4328884-20.3859872,2.1008332Z" fill="#423b30" stroke-width="0"/>
      <path d="m8.5792102,36.9054799C1.792997,30.6055484-1.256212,21.776991.4779546,12.6418534c.5070333-2.5404131,1.2215564-5.092586,2.506442-7.3570439.2424798-.4093612.617443-.910432,1.0857682-.9940723.1092805.1480574.1022301.119856.1128057.3102156.0035252.0141007-.0176259.0176259-.0211648.0035252-.0190993-.0826213-.0447119-.1768372-.1283109-.2294394-.7809368.5857026-.8912776,1.7373889-1.16189,2.5948331-.5675672,2.627496-.8215039,5.3655669-.7753186,7.9492186.0792063,7.807523,3.7005543,14.9355957,6.482924,21.9863899Z" fill="#423b30" stroke-width="0"/>
      <path d="m24.8808945,47.143447c-7.4234164-1.1996893-13.7068512-6.3013086-18.2289232-12.091439-1.762671-2.3558095-4.8923119-6.3701046-3.7575768-9.4122771.0070504-.0105755.0246762-.0035252.0176397.0105755-.0598041.1092805-.0794129.2286408-.1022439.3454673,0,0,.0035252-.0035252.003415-.0034701.1481814,3.1884673,2.8642337,5.5335085,4.8953689,7.7120953,4.4991721,4.4392166,9.9975391,8.2026457,16.0901461,9.8889746,3.4700133.9683771,7.1743406,1.2650978,10.6178049,2.1011155-3.0616987.9859203-6.2946989,1.828713-9.5356307,1.4489578Z" fill="#423b30" stroke-width="0"/>
      <path d="m63.265911,36.3113775c3.9657688-8.9623764,7.9939167-18.4660327,7.3378483-28.474643-.0331587-.7367619-.372457-3.9803652.0914618-3.7874995-.0168823.0286421-.0348662.0556317-.0512528.082401.1040203,1.5979241.8037678,3.1144386,1.1705515,4.6692894,1.262812,4.851855.805558,9.9489853-.1483328,14.8126276-.9007653,5.4307276-3.7403227,9.8145879-8.4002759,12.6978245Z" fill="#423b30" stroke-width="0"/>
      <path d="m39.3354688,45.8098286c6.7630241-3.2416755,15.0853881-3.5344028,21.0663463-8.3725427,2.2772642-2.0058256,4.127982-4.4452479,6.3770723-6.482745-.0936926.2398773-.3605044.5308971-.5111506.7860869-1.3766642,2.1116911-2.6066204,4.3210405-4.1278718,6.3349079-4.8928077,5.9741281-15.2796034,9.5602519-22.8043961,7.7342929Z" fill="#423b30" stroke-width="0"/>
      <path d="m22.3245079,10.3631846c-5.2065759-.4145388-10.371676-1.6995208-14.8869592-4.3956751-.8818175-.5941024-2.1910764-1.1273956-2.5380034-2.1962402.0221012-.1692911.2748536-.2931956.4547753-.29964-.0177774.0768654-.2838043.1004951-.3190698.2905792.7826306,1.0331247,2.3174457,1.2462051,3.4545906,1.7590357,4.4886517,1.5616258,9.3094411,2.0929911,14.0214733,2.2934029,4.6651308.1654354,9.2785682.9637503,13.7869664,2.1539381-4.5458256.6147302-9.3523491.8483834-13.9737732.3945995Z" fill="#423b30" stroke-width="0"/>
      <path d="m45.9393367,11.2293866c-4.4730362.0321122-8.875266-.8470063-13.2158051-1.7178903-.0012669.0033599-.0025613.0065279-.0038281.0098044.0621588.0795093-.0508121.0315063-.0280086-.0261359.3769736-.173312.8786779-.0553838,1.2831643-.0422746,4.2925637.2911851,8.613439.11578,12.8880188-.3350295,6.7014161-.6118385,13.2560417-2.1812307,19.910226-3.1020729,1.7550148-.2038819,3.6007202-.4151446,5.3264595-.4196062-7.7414535,5.0240654-17.1659034,5.7109792-26.1602267,5.633205Z" fill="#423b30" stroke-width="0"/>
      <path d="m4.322573,3.9210617C18.0400411.585556,33.2499396-1.4220873,47.4389964,1.210008c-9.409826,1.4726426-18.9337796,1.271322-28.4235004,1.657136-4.9122788.1486358-9.7858357.9858377-14.6929231,1.0539177Z" fill="#423b30" stroke-width="0"/>
      <path d="m60.3472574,3.2472573c-5.8532531-.2843826-11.6759363-1.1625097-17.4849044-1.9249944,1.529128-.3944067,3.6774479-.3162469,5.4146991-.4687108,4.0685497-.1550527,8.1675041-.2821794,12.2217879.158688,2.0234515.2855393,3.9763994.8883445,5.823592,1.7626435-1.9111415.3206258-3.9954849.4716576-5.9751746.4723737Z" fill="#423b30" stroke-width="0"/>
      <path d="m39.4295745,28.331589c-9.7950617-.3318623-19.5637672-1.4904888-29.1963403-3.2792406-.202918-.0248966-.4410602-.0974656-.6548291-.1331856-.0728445-.0172403-.0409802-.1262179.0302394-.1005502,8.1073282.5368459,16.2677545.8071829,24.3866497.8142608,10.6963503-.0849623,21.2833925-.6308139,31.9259563.4776615-8.3668969,3.349992-17.6406731,2.3766026-26.491676,2.2210542Z" fill="#423b30" stroke-width="0"/>
    </g>
  </g>
</svg>