<?xml version="1.0" encoding="UTF-8"?>
<svg id="Layer_2" data-name="Layer 2" xmlns="http://www.w3.org/2000/svg" viewBox="0 0 35.4242614 29.6356672">
  <g id="Layer_1-2" data-name="Layer 1">
    <g>
      <path d="m14.5210844,29.1355363c1.7563508-.3788092,3.4103128-1.0300669,5.0214657-1.8127677,1.1518743-.5594608,2.1619341-1.2931738,2.9723652-2.2863895,1.7837134-2.1863545,2.2525541-4.6348596,1.4296187-7.3304367-.3352646-1.0978848-1.1561405-1.6881652-2.18709-2.0432161-.2177234-.0749527-.4483924-.0871629-.6752366-.014711-.2995167.095916-.4648688.3553451-.4235308.6654538.0167706.1261472.0536953.1649843.1781507.1435062.2983398-.0515622.558431.0375131.8095484.187198.4820807.2873066.8879583.6639091,1.2708866,1.0683156.2664169.281275.4383889.6136709.5334222.9871106.2542067.9975555.2539125,1.9953316-.0806165,2.9698643-.2218425.6468443-.4954678,1.2775801-.7767428,1.9014752-.1265149.2798775-.3018705.5485011-.5013522.7827008-1.0194749,1.19689-2.2515244,2.1190515-3.7313077,2.6572548-1.1980669.4356674-2.4243791.7949109-3.6418646,1.1763682-.6228653.1952155-1.2669146.3014292-1.9186136.3159195-1.1810021.0262592-2.3628869.05193-3.5435948.031261-.7505572-.0131664-1.5031739-.0927531-2.2291636-.3116533-.5456324-.164543-1.0716991-.376529-1.5133245-.7513663-.4166166-.3536534-.521065-.7557796-.3393836-1.2719163.1622627-.4603084.4603084-.8199933.8324976-1.1253208.4798741-.3941087,1.0450721-.6083014,1.6348376-.7657831.1068021-.0285394.225226-.0276568.3370299-.0211103.385135.0222872.7692402.0608301,1.1545223.0778214.2247847.0100035.4489809-.0225814.6549354-.1263678.1362242-.0688477.2244904-.1762382.2200771-.3356323-.0047075-.1611594-.1020946-.2631805-.2444975-.3162873-.1060666-.0395727-.2189002-.0792189-.3301157-.0835587-.3846936-.0150788-.7732122-.0464869-1.154228-.0105184-.3362943.0315552-.649051.0003678-.960925-.1116568-.0814992-.029275-.1690298-.0454571-.2456743-.0837794-.2806866-.1401962-.5760842-.2614887-.8324976-.4380212-.3632155-.2497934-.4219126-.5281998-.2609738-.9404031.1357829-.3484309.3714537-.6187463.6680282-.8391176.4816394-.3577724,1.0256536-.5905746,1.6005609-.7376114.7243715-.1852855,1.4584523-.3324695,2.185766-.5062068.2556778-.0609773.5088548-.13924.7545291-.2325815.1978635-.075247.3879301-.2013206.4482453-.4108057.0539895-.1883748.1649107-.2560456.3314397-.2876008.0192715-.0036042.0378074-.0113275.0563433-.018021.359832-.1309282.7164275-.2696533,1.0143261-.5200352.285247-.2401577.2946621-.517755.0325114-.7810826-.4845816-.4867882-1.0496326-.8512542-1.6817659-1.1169356-.7293733-.306578-1.4969952-.3932996-2.2716785-.3274677-.8741299.0743643-1.743258.2070579-2.6141514.3194502-.8120493.1048161-1.6211564.2369948-2.4357066.318494-.6659687.0665674-1.3317903.020669-1.9683369-.2201507-.4282383-.1620421-.8292612-.3727041-1.120834-.7392297-.4548653-.5717445-.3177584-1.1961545.3289388-1.5357588.3674817-.1930824.7593838-.2137514,1.162172-.1733696.1656463.0165499.3124624.0614186.4405956.1744729.0819405.0723048.1749142.1390193.2740666.1830053.1165114.0518564.2436148.1012855.3686586.1075377.2418495.0119159.3974922-.2240491.2873066-.439198-.0578144-.1129808-.1584379-.2196358-.2658285-.2883363-.1677058-.1072435-.3499756-.2091174-.5400422-.2603854-.2914257-.0786305-.4976744-.2595027-.6937726-.4664135-.0595797-.0628897-.1201892-.1251909-.1756498-.1915377-.2874537-.3435027-.5335693-.7127498-.6865641-1.1370161-.1456393-.4039651-.1047426-.7811561.2074256-1.0937657.1321051-.1321051.2856884-.2500876.4475098-.3432085.4454502-.2564134.9410651-.2887041,1.4416817-.2934117.2156638-.001986.4001402.0508266.5828513.1768267.1647636.1134957.3607147.1918319.5535764.2507496.1654992.050606.3164344-.0364098.3802803-.1664554.0635517-.1290158.0304518-.2937059-.0916498-.4094082-.0594326-.0563433-.1251909-.1138634-.1987461-.1459335-.1941857-.0843678-.3895483-.2002172-.5927077-.2208862-.3262908-.0331734-.554459-.1898459-.7526167-.4247812-.0354536-.0420736-.0764974-.0794396-.1137163-.1201156-.3152575-.3435763-.6193347-.6947288-.7843925-1.1412823-.1847706-.5000282.0363363-.901566.5575483-1.0134434.2743609-.0588442.5484275-.0384694.8220528.0069877.8383821.1391664,1.5764348.5089284,2.2652056.9902.872953.6102139,1.5400986,1.4095381,2.1225086,2.2914648.3033416.4593522.6225711.9105397.9623961,1.3434855.6893592.8778076,1.5829077,1.4519794,2.6676996,1.7270023.6514048.1650578,1.310165.2867917,1.9821653.2950299.5272436.0064729,1.0546343-.0228021,1.582025-.0392049.098564-.0030893.1912435-.0332469.2191945-.1446095.025303-.1004028-.0357478-.1582172-.1123923-.2118389-.3736604-.2613416-.7548234-.5135623-1.1150967-.7924101-.4881122-.377853-.8779547-.8468409-1.1721755-1.3907815-.2081612-.3852085-.3493872-.7931456-.3604204-1.2363156-.002648-.1059195.0161821-.2125009.0273625-.3443118.067965.0388371.1032715.0629632.1415202.0803958.30393.1383573.6015343.2946621.9148795.4074222.3003994.1081261.6185991.1277654.9256185.0017653.3914607-.1604974.5434257-.5625501.3442383-.9352542-.0670823-.1256323-.1590263-.251191-.2699475-.3379125-.490466-.383149-1.0469846-.5205501-1.655286-.3661577-.1674116.0425149-.3276148.1343118-.4739896.2295657-.0912084.0592855-.13593.0494291-.2081612-.0165499-.6199231-.5657865-1.1020039-1.2299899-1.4424173-1.9969498-.1784449-.4015378-.3293801-.8115344-.3486516-1.2562491-.0300105-.6980388.3421787-1.136869,1.0349215-1.2269741.0428091-.0055902.086648-.0048546.12931-.0116217.0885604-.014049.1397549.0286865.1977164.0941506.1632925.1850649.3309984.3677759.5125326.5345256.1206305.1108477.2783328.1628512.4480982.1524064.2303749-.0141226.3710124-.197275.3030474-.4174257-.0323643-.1056988-.0935622-.2095587-.1647636-.2949563-.1691769-.2028652-.4019056-.3094467-.6475799-.3940352-.0559019-.0192715-.1223958-.0665674-.1441682-.1178354-.1627041-.3821192-.1974221-.7765957-.0738494-1.1771773.1587321-.515107.5054713-.8744241.9687219-1.1255415.5712296-.3094467,1.1926238-.4183084,1.8347607-.4276499,1.3039864-.0189772,2.5180884.3367357,3.661136.9334154,2.3149289,1.2086589,4.1470416,2.9452969,5.5551822,5.1397424.6469914,1.0080739,1.0943541,2.0911005,1.2832438,3.2762217.0739965.4632506.1437268.9297376.0775272,1.3990197-.0865009.6108023-.3533591,1.098841-.9722525,1.324067-.0361892.0132399-.0757618.0329527-.0990053.0615657-.0270683.0330998-.0557548.0822347-.0500175.1190859.0044133.0282452.0582557.0598739.0953275.0693625.0760561.0194186.1556428.0231699.2333171.0363363.3423259.0578144.6383119-.0450158.8695695-.2923083.131958-.141226.2484694-.3087847.3289388-.4842874.2271384-.4948058.2817164-1.024256.2297864-1.5607676-.1147461-1.1879899-.4160282-2.3266242-.9785782-3.3836123-1.4068166-2.6434264-3.4176683-4.712019-6.0007795-6.2175466C18.3621364.4588687,17.0690361.0182731,15.6558938.0006934c-.8482384-.0105184-1.6749988.0966515-2.4532127.4568513-1.0500739.4859791-1.5427466,1.4458008-1.3287009,2.584288.0282452.149979.0750263.2964274.1170999.4592786-.0329527.0078704-.0585499.0158144-.0850298.0200806-.9518042.1548337-1.5015556.8305116-1.4596292,1.7949673.0230963.5338636.1918319,1.0271982.4180877,1.5045714.3698355.7796115.8894294,1.4472719,1.5240635,2.0268133.0862067.0787776.1188652.1422557.0760561.261268-.0431033.1199685-.0601681.2532505-.0669352.3817514-.020007.3919756.0567846.7722559.2053661,1.1310582.4472156,1.0774364,1.1971843,1.8843369,2.2225436,2.4372512.0394256.021331.0782627.0442067.121219.0685534-.0167706.0165499-.0216252.025303-.0273625.0261856-.0310403.0047811-.0623748.0096357-.0937093.0105919-.7714468.0250823-1.5415697-.0212574-2.2853597-.2220631-1.3225223-.3571104-2.3678887-1.1200984-3.1087365-2.2785927-.4695763-.7340808-.9535695-1.4583052-1.5108236-2.1278781-.8682455-1.0432333-1.9224384-1.8110759-3.2739415-2.1117695-.3883714-.0864273-.7745361-.1874186-1.1777657-.164543-.3502698.0199335-.6806797.1091559-.9494504.3434292-.4432436.3861647-.5254783.8816325-.3717479,1.4217483.1541717.5421017.5001753.9669565.8917831,1.3579759.0288336.0289072.0559019.0595797.0995937.105993-.1669703.0302312-.309226.0552399-.4511875.0820876-.4747252.0895167-.918263.2530299-1.3016326.5561508-.4633977.3662313-.6577305.8331596-.5228303,1.4184383.0320701.1376218.0738494.2742137.1256323.4055833.1853591.4700912.4604555.8861929.7832157,1.2724312.0436918.0523713.0860596.1060666.1418144.1749142-.0585499.0108862-.0916498.0187566-.1250438.0230963-.4622208.0601681-.8707463.2444239-1.224841.5441613-.5666692.4798741-.7164275,1.1749706-.4048478,1.8477064.2306691.4981893.6331631.8147708,1.1153909,1.0427919.5323925.2517794,1.1030336.3413696,1.6844138.3786621.7352577.0472224,1.4640425-.0280981,2.1892967-.1371069.8451491-.1269563,1.6867676-.2785535,2.533535-.3918285,1.2218988-.1635867,2.4284981-.1234256,3.5924355.3491665.4923784.1998495.9615134.4358881,1.3675381.7828479.1515237.1296042.1484344.183888-.0170648.2983398-.2848057.1969808-.6009459.3259966-.9362105.410438-.0632575.0158879-.1001822-.0013975-.1382838-.0541366-.2689178-.3715273-.6428724-.5732156-1.0874399-.6464766-.2756849-.0453836-.5443084-.018683-.7776255.1560841-.2559721.1916848-.2889248.5268023-.0622277.7515134.086648.0857654.2016883.1522592.3155518.1991875.3195237.1315902.6589074.143874.9993208.1373275.0445744-.0008091.0891489-.0002942.1338704-.0004413.0022067.0097093.0045604.0194186.0069142.0291279-.0397198.021331-.0770858.050606-.1194536.0628161-.249205.0717163-.4963504.1563048-.75041.2049983-.5724065.1097443-1.1501089.1906551-1.721927.3026796-.6828864.1337969-1.3485609.3259966-1.9474472.6969354-.5593137.3465185-.9912297.8024136-1.1890932,1.4453595-.1662347.5407778-.0528126,1.0268305.313198,1.4555101.2056603.2408932.4654572.4102908.7443785.5532821.0356007.0183152.0694361.0401611.1210718.0702452-.1552015.0867951-.2920141.1551279-.4205886.2367006-.67303.4273557-1.2258708.9652648-1.5230338,1.7226625-.2862768.7288584-.2237549,1.4221896.2593556,2.0545436.2577374.3370299.5893242.5907217.9644556.7847603,1.0029986.5189319,2.0660182.8292612,3.1958259.8956815,1.8607992.109303,3.6962954-.0767916,5.5157566-.4692086Zm-.8853103-20.3668436c.2942208-.0709808.5860878-.0503117.870305.0514886.1624099.058035.2842173.1666025.3614502.3212891.0503117.1006971.0301576.1550543-.0772329.1899931-.0663468.0215517-.1376953.0342767-.2077199.0369247-.3073136.0119159-.9668094-.2501612-1.2213104-.4951.1023888-.0397934.1859475-.0831174.274508-.1045955Zm-3.466509,9.8221187c-.0965044-.029275-.2143398-.0688477-.2074256-.1927146.0070613-.1220281.1329878-.1303398.2247847-.1540981.3183469-.0828231.7939547.1016533.9573944.3839581-.3395308.0212574-.6596429.0585499-.9747534-.0371454Z" stroke-width="0"/>
      <path d="m23.6136827,12.5000739c-.1197478-.0948126-.2450859-.1874186-.3804274-.2565605-.1487286-.0759825-.2568547.0072084-.251853.173958.0089737.2841437.1120981.5276114.3117269.731727.2061016.2108827.4461858.3726306.7067183.5078986.7058356.3668197,1.4708096.5159161,2.2515244.5738776.6381648.047296,1.2416116.2064694,1.8256398.4513346.4820807.2019826.8441194.5521053,1.1668795.9921124-.0682592.0058109-.1097443.0108126-.1518179.012725-.6478741.030599-1.2338148.230522-1.7497309.6295589-.1273976.0986375-.2574432.1976428-.3979336.2753906-.6291911.3481367-1.2907465.5594608-2.0243859.4603084-.1388722-.0188301-.2831875-.0147846-.4230895-.0022802-.1070964.0094886-.2147812.0531804-.242585.1748407-.0289807.1263678.0592855.2080141.1557899.2503819.1384309.0609037.2877479.1269563.4348583.1323258.3290859.0122102.6634678.0169912.9890231-.0267741.6527288-.087972,1.2164557-.3931525,1.7248692-.8013838.281275-.2258144.5779967-.4222068.912967-.5595343.3460036-.141888.6981859-.1896988,1.0606658-.0751734.1285745.0406025.2527356.0950333.3889598.1469633-.0210368.029275-.0447216.0639195-.0697303.0974606-.3661577.4903925-.7908654.9281194-1.2145433,1.368053-.3661577.3802068-.8141088.5661543-1.3251703.6283084-.0832645.0100771-.1629983.0415587-.1537303.1269563.00662.0596533.0656112.1408582.1204834.1614536.0795867.0300105.1797689.0309667.2656813.0150053.4269143-.079366.8132262-.250529,1.1265713-.5573277.2336113-.2284624.4657515-.4600142.6790615-.7069389.3395308-.3930789.654347-.8077095.9953488-1.1993174.4254432-.4882594.8819267-.9479057,1.460659-1.2570582.4335343-.2317724.879573-.4410369,1.3203157-.6597165.0158879-.007944.0358949-.0083117.0670823-.0150788-.0448687.1856533.0517829.3095938.1577023.4296359.0550193.062007.1081261.1254852.1653521.1850649.3186411.3319546.7087778.4248548,1.1471667.3237164.518417-.1196743.6975974-.5952086.3876359-1.0277131-.0634046-.0884133-.0433976-.1263678.0295692-.1883748.1987461-.1688827.3352646-.3773381.3430614-.6480212.0094151-.3383539-.2347882-.5781438-.5696114-.5365116-.1685885.0209632-.3307041.0926795-.4948793.1443153-.0491349.0155201-.0953275.0408967-.1618214.0701717.0559019-.1751349.1181296-.3212155.1462277-.4735483.0260385-.1401226.0438389-.2930439.0148581-.4297094-.0672294-.3170229-.3461507-.4186026-.6147743-.2397164-.0647286.0431033-.1250438.0968722-.1760911.1555692-.1737374.199923-.2502348.4430229-.2896603.6992156-.0201541.1308547-.0317758.2630334-.0497233.4179406-.0787041-.0748792-.141226-.1376218-.2071314-.1966866-.2187531-.195951-.4604555-.3459301-.764974-.3562278-.2902488-.0097828-.5256254.1391664-.6072716.3784415-.0795867.2336848.0075026.4867882.2384659.665748.3031945.2347882.6483154.3104765,1.024918.2542067.0311874-.0045604.0623748-.0133135.093268-.0118424.0145639.0007356.0366305.0191243.0397198.0329527.0032364.0137548-.0095622.03869-.0225079.0464133-.0267741.0158144-.058697.022655-.0876778.0344974-1.0599303.4272085-2.0140882,1.0054259-2.7337522,1.9175838-.0198599.0250088-.0458984.0449422-.0585499.0569317-.09724-.1340176-.1827111-.2588407-.2759791-.3777795-.062669-.0803958-.1401962-.149317-.2044834-.2288302-.7190755-.8888409-1.6414576-1.4501406-2.7577312-1.6797063-.5634328-.115923-1.1253944-.2308162-1.6761757-.4000667-.5854993-.1799895-1.1323086-.4287532-1.6149777-.8111666Zm9.2461816,1.1365012c-.2365535-.0472224-.4719301-.1009177-.6615554-.2634011-.0784098-.067303-.1790333-.1327671-.1413731-.2614887.0244203-.0837058.1453451-.1190123.3027532-.1001822.1868302.0223608.3445325.1048897.4822278.2300806.0873836.079366.1724134.1617479.2642102.235965.0676708.0547986.1499055.0804694.2290509.0247881.0742907-.0521506.0495762-.127324.03869-.2040421-.0575202-.4113206-.0450158-.811608.246557-1.1464312.057373-.0661261.1376953-.1184974.2171349-.1580701.133282-.0665674.2371419-.0303783.2800982.1124659.0316287.1045219.040014.2264029.020007.3333521-.0285394.1533626-.0920911.3002523-.141226.4497164-.0233906.0709808-.0535482.1401962-.0709072.2126481-.0363363.1528477.0582557.2350088.2090438.1882277.1613801-.0500911.321142-.1088617.4860527-.1418144.0963573-.0192715.2053661-.0111804.3018705.012725.1325465.0327321.1621156.1298249.0887076.2450859-.1003293.1576288-.2475868.2603118-.4107322.3454887-.0829703.0433976-.1665289.0903258-.2378775.149979-.0778214.065317-.126662.1538039-.0915027.2624449.0351594.1087146.1213661.146669.227874.1553486.1229843.0100035.2297864.0533275.3012821.1608652.0766445.1154816.0541366.1971279-.0695832.2556043-.2624449.1242347-.397198.0990788-.6068303-.0964309-.1404904-.1311489-.2902488-.2522207-.4489809-.3889598.0350123-.0316287.0638459-.0567846.0917969-.0832645.1429913-.1360771.1862417-.3435763.1063608-.5082664-.1009177-.2077199-.313198-.2415552-.4707532-.0744379-.029275.0311138-.0557548.0648021-.0907671.1054046-.0207426-.0315552-.0357478-.0575202-.0536953-.0812049-.0469282-.0621541-.1178354-.0745114-.162557-.0204483-.0717899.0870158-.1512295.0650228-.2353766.0482522Z" stroke-width="0"/>
      <path d="m27.8837086,15.438236c.105331-.0770123.1388722-.2489843.0681121-.3476954-.0988582-.1376953-.3670404-.2039685-.4844345-.1196743-.1285745.0923118-.1590263.2811279-.0656112.408452.091944.1252645.3486516.1566726.4819336.0589177Z" stroke-width="0"/>
    </g>
  </g>
</svg>