<?xml version="1.0" encoding="UTF-8"?>
<svg id="Layer_2" data-name="Layer 2" xmlns="http://www.w3.org/2000/svg" viewBox="0 0 285.7113931 339.9922517">
  <g id="Layer_1-2" data-name="Layer 1">
    <g>
      <path d="m106.2437654,47.7291789c-.2898688-1.3874898-.4745097-2.7890537-.6618621-4.1942195-.1637182-1.227872-.2445807-2.4754135-.5671245-3.686218-.1319103-.4951895-.1020051-1.0250352-.2068707-1.545004-.2937453-1.45654-.3893242-2.9535581-.6928998-4.4074962-.4840035-2.3180902-.9574389-4.6355882-1.6259796-6.9194558-.7362271-2.5150971-1.7516967-4.9211093-2.5627159-7.5092953.1121267-.2782721.2613809-.648678.4236883-1.0514699.6829789.1891236,1.0979823.5442191,1.3757881,1.1096595.2126434.4327961.4930572.8322806.7732705,1.2961618.2145719-.0867181.3941584-.1593022.5738032-.2317537.0618878.0261677.1419607.0356076.1829129.080639,1.4692055,1.6152015,3.4322641,2.3069707,5.4469726,2.8746715,1.1530426.3248972,2.3262765.5883605,3.5027462.8156515.6448677.1245862,1.3103798.0718236,1.9741316.1909763,1.0613661.1905297,2.1610957.154482,3.2381877.2726751,2.5251613.2770908,5.0565353.2221568,7.5884917.2092105,1.3289144-.006796,2.6396436-.2195371,3.9283177-.4724619,1.5106754-.2964917,3.011954-.6678232,4.4690705-1.2116523,2.1383157-.7980807,4.2092881-1.7204483,6.1792261-2.8764514,1.6105061-.9450726,3.240414-1.8572203,4.8669955-2.7746349,1.7946615-1.0122232,3.4823478-2.187708,4.9946928-3.5767075,1.3936044-1.2799437,2.5539728-2.7833516,3.1394443-4.6155943.6035013-1.8887091.5898075-3.7791613-.5472632-5.4965065-.7070726-1.0678983-1.7067256-1.7283606-3.0592225-1.6884856-.1764413.0052017-.3531545.0007136-.5587568.0007136-.8775989.4698784-1.6350075,1.0428671-1.6880745,2.0629149.4104539.7615824.7697305,1.4281992,1.074827,1.9942998-.1205398,1.1003166-.7325318,1.6011646-1.7759587,1.8416737-1.132437-.1699007-1.5912207-1.1540954-1.8957607-2.2333902-2.3782433-.3585922-4.2945319.5184632-6.0937106,1.9421428-1.0412912.8239701-1.8313425,1.8104374-2.5223138,2.9031498-.2629535.4158361-.6307985.6724493-1.0589457.7995071-.4515744.1340164-.885093-.043537-1.2799115-.3104129-.6033201-.4077983-1.2223403-.7923535-1.6759985-1.084563-.6100376-.0708754-1.0212811-.1186543-1.6737464-.1944592-.2787959.0953449-.8289196.2130106-1.3095126.4638836-.7767198.4054553-1.4891768.941762-2.029619,1.6332189-.7710119.9864268-1.5074266,2.005043-2.1855454,3.0570388-.4201225.6517831-.838174,1.2881118-1.4240208,1.799309-.7300597.6370358-1.5743558.997772-2.5502969,1.0310561-1.4006972.0477692-2.7682988-.1541729-4.1536325-.3701341-1.9247275-.3000483-3.8653104-.657681-5.8364391-.4771187-.3765557.0344928-.7497074.1743569-1.1221731.1658749-.371948-.0084707-.7410484-.1421004-1.0962609-.2176391-.2820447.5353731-.6817234.7355983-1.3627284.6624009-.4099426-.3471588-.921541-.7636673-1.4144558-1.2012319-1.1036255-.9796851-2.3612748-1.5615263-3.8613562-1.5452694-.2472987.0026796-.4948628.003186-.7419997-.0048381-2.5934818-.0842133-4.9052749.7192281-6.9929116,2.2228156-1.3807453.9944663-2.5379232,2.1849346-3.3036478,3.7303513-.3635155.733676-.5672604,1.4901639-.5416006,2.3108654.0325844,1.0418277-.0891396,2.0887442.3667383,3.0957782.2316504.5117231.4340687,1.0291613.8485609,1.4094828.6970158.6395617,1.3668767,1.3321415,2.1482302,1.8519518,2.3070106,1.5347713,4.1988624,3.4665433,5.8540871,5.6731279,1.32342,1.7642548,2.3941699,3.6406171,2.9708659,5.7761774.1520111.5629194.2754437,1.1423206.3265821,1.7216926.0785068.8894395-.2251853,1.6359826-.9877518,2.1226642-.3666154.043999-.5610995-.1391198-.6820664-.4192624-.2868337-.6642537-.6169881-1.3152034-.8392612-2.0008352-.521118-1.6074525-1.3787456-3.0092979-2.4091646-4.3344623-1.197127-1.5395705-2.6403167-2.8360559-4.0250744-4.1888636-.6729285-.6573994-1.4457395-1.2123999-2.1720586-1.8152957-2.0093952-1.6679333-3.5451157-3.689671-4.0856161-6.2683265-.5822163-2.77763-.2515829-5.4785061,1.4411252-7.8625786,1.0040019-1.414062,2.3097157-2.5285046,3.7953784-3.4263468,1.4245968-.8609434,2.9231185-1.5478915,4.5508196-1.9297535.5681341-.1332866,1.13621-.3732594,1.7050365-.375426,1.2531386-.0047742,2.5037144-.1473769,3.7654602.1560111,1.6379909.3938544,3.0528803,1.1242627,4.2604913,2.2795781.229133.2192151.4346641.4631093.6826682.7295337.5445387-1.1715367,1.5741552-1.6004753,2.6535511-1.9002015.5953342-.1653134,1.2350505-.173022,1.8555721-.2447898.5862999-.0678108,1.1749812-.1890888,1.7602845-.1766619,1.400516.029734,2.8047338.0724466,4.1977558.2089726,1.1290589.1106545,2.2439967.3655387,3.4928706.5781892.4187634-.2995353.8580029-.7293355,1.2091642-1.26444.7524772-1.1466538,1.6045652-2.2117002,2.6241766-3.1378185,1.6445854-1.4937641,3.5299916-2.3292776,5.7915651-2.1242046.737282.0668537,1.3851784.4022822,2.0097253.7767867.2648691.1588306.518853.3358136.8539258.5541615.8095437-2.1190356,2.2405538-3.6028618,4.2375948-4.5329833,1.9622239-.9139082,3.9962047-1.3368427,6.0945648-.8346196.4948693-.6744322.9267441-1.342599,1.4400186-1.9408932.5510685-.642338,1.2456121-1.1075445,2.0967423-1.2949736.0378588-.0083369.0556298-.1078872.0827586-.1649481.6361828.0000012,1.2723657.0000012,1.9085485.0000027.0957407.0713739.1811915.1737774.2887751.2094667,1.6269439.5397138,2.864376,1.5343866,3.571565,3.1140861.4967331,1.1096251.7597513,2.2754128.8117829,3.5028228.0837553,1.976106-.3573481,3.8441699-1.1708783,5.6083219-.4177409.9058866-1.0185242,1.7480237-1.6434594,2.5339802-2.3370193,2.9391927-5.3002941,5.1355106-8.5019691,7.0421456-2.5927376,1.5440202-5.376607,2.6495002-8.2432998,3.5340547-1.6061701.4956053-3.268656.8129477-4.9124778,1.1806546-1.0428962.2332828-2.0921474.4541937-3.1495658.6018408-.9663632.134929-1.9469768.2191472-2.9222837.2290337-2.8266466.0286434-5.6545228.0462514-8.4804317-.008317-1.3844406-.0267308-2.7550061-.275175-4.1205368-.5466026-1.0838225-.2154337-2.139623-.4915795-3.1803059-.8549387-1.186533-.4142819-2.2949864-.9739117-3.3384261-1.6701614-.0768824-.0512933-.1829971-.0587673-.3697606-.114978.9735337,2.0894254,1.7368638,4.1674321,2.3592816,6.2993129.3381339,1.1581681.6165675,2.3256531.8072592,3.5163383.1966133,1.2276584.4486816,2.4478543.6022653,3.6805644.1337742,1.0736846.1183847,2.16588.2503663,3.239885.2280458,1.8557284.1945359,3.7167998.2262855,5.5780265.0081413.4770993-.0826033.8980769-.3995687,1.3170351-.2670565.1391943-.5686583.2963881-.8209984.4279095.4051407.5585149.8123135,1.1198356,1.1876526,1.6372641v1.3514971c-.383558.5070242-.8362972.8562073-1.5777534.7274691-.2682861-.3918973-.5487841-.8277516-.8556667-1.2441597-.5446422-.7390416-1.3961154-.9914146-2.3076771-.6905346-.3558402.1174504-.702083.2640005-1.0214493.3854153-.2082621.3990557-.3846776.7370805-.55655,1.0664064-.2769321,2.1799056.718359,3.9178276,1.9447247,5.5511113.5420148.7218543,1.1092364,1.4354175,1.8956183,1.9472118.5577537.3630015,1.0656826.6502119,1.7370191.3038767.1714712-.0884576.4074123-.0519082.5991395-.0713188.1966197.2820907.3757791.5391335.5633775.808299v.7196861c-.8698912,1.3235754-2.1149792,1.7215988-3.7652985.8630615-1.3834958-.7197378-2.6668178-1.6691792-3.5708273-3.0213106-.4251379-.6358756-.9458224-1.208154-1.3666567-1.8465345-.9666997-1.4664006-1.4388537-3.0765974-1.2560379-4.8450398.148607-1.4375696.8818184-2.5518616,1.9902847-3.4277966,1.3399614-1.0588758,2.8927862-1.3074981,4.5446069-1.1040463.2330677.0287081.4587772.1171559.6878973.1779507.0322026.0576362.0643923.1152725.0230518.041258.0761447.038025.016975.0084788-.0421947-.0210707Z" stroke-width="0"/>
      <path d="m169.2239121,187.6854709c-.1057716.5031343-.1857216,1.0133623-.3220003,1.5080955-.4531017,1.6447526-.7804345,3.3006894-.7246753,5.0226054.0377035,1.1649576.0085684,2.332776-.0173956,3.4987173-.0084131.377286-.1048138.7522549-.154425,1.1291526-.0182499.1386765-.0493264.2866732-.0207867.4187996.2923345,1.3536394.1741763,2.7486889.5718941,4.1103411.446656,1.529286,1.0539108,2.9819264,1.6487143,4.4466701.0905893.2231018.2520683.4163401.3652046.6315715.3198387.6084264.7065808,1.1706662.8183062,1.8924752.0705921.4561321.3871562.8792164.616108,1.3049156.8865426,1.6483124,1.7902738,3.2873952,2.6727005,4.9378823,1.7975608,3.3621897,3.5876663,6.7283792,5.3765293,10.0951902,1.0735068,2.0204594,2.1318959,4.0489962,3.2094798,6.067255,1.6833373,3.1528352,3.3786729,6.2992756,5.0660615,9.449962.999886,1.8669871,1.9741963,3.7479803,2.9963834,5.6026441,1.2071321,2.1902161,2.4582839,4.3560961,3.6805854,6.5380017.4915429.8774171.9489417,1.7739406,1.4360839,2.6538949,1.5299607,2.7634588,3.0630148,5.5252348,4.6017381,8.2838264,1.6227503,2.9092419,3.253383,5.8140827,4.8805858,8.7208392,1.3403044,2.3942762,2.6734512,4.7925652,4.0227382,7.1817671,1.6896536,2.9918809,3.3857787,5.9801372,5.0922326,8.962439,1.034056,1.8072085,2.0608897,3.6198279,3.1484786,5.3947782,1.5062488,2.4581971,3.0683604,4.8821425,4.6032654,7.3228383,1.2203082,1.9404353,2.4904218,3.8521851,3.6404227,5.8335774,1.7411674,2.9999066,3.3985666,6.0484852,5.088039,9.0783457.2795725.5013997.4696819,1.0296985.9493817,1.4359547.2955444.2503245.3518213.7832057.5386172,1.2464444.5138181.0306013,1.0894786.0783413,1.6675984.186533.8526704.1596081,1.7076187-.0486979,2.5497274-.3550211,1.4079584-.5120661,2.620889-1.3908036,3.9884129-1.9770688,1.8732395-.8030628,3.7581279-1.5302956,5.7747519-1.9048633,1.061832-.1972253,2.110928-.4127545,3.1977144-.4160165.4093149-.0012427.8229528-.1901316,1.2266245-.164993,2.2736754.1416667,4.5014544.5158719,6.6037881,1.4518508.6758666.3008864,1.2845064.6916608,1.8137268,1.2143675.453477.4478605.7021671.9510207.5558316,1.6203648-.1559911.0965156-.3283165.2031799-.5364169.3319537-.7698082-.9887415-1.8142446-1.5536479-2.9878279-1.9837482-2.0378249-.7468311-4.1498142-.9665543-6.2550213-.7155308-3.1899226.3804186-6.2762481,1.2273122-9.2311228,2.5476967-1.286862.575055-2.5254978,1.2504832-3.8794572,1.70435-1.4906911.4997428-2.9191256.4765977-4.3494756.1265732-.3218449-.3075918-.598104-.5716376-.9285432-.8874622-.5921761.5120403-1.181867,1.0000552-1.7472766,1.5148138-1.7687622,1.6104492-3.5203101,3.2399788-5.2987279,4.8396321-.3309828.297702-.7556224.4912511-1.0931286.7050715-.6907254.0496558-1.3247079.1059653-1.9708311-.4494138-.1529624-.3454162-.3605968-.8142988-.5682571-1.2831815.0382341-.0250609.0764683-.0501477.1147024-.0752346-.8012342-.7403846-1.6646733-1.4248482-2.3905264-2.2329594-1.4243444-1.5857766-3.0948292-2.9346912-4.3845387-4.650795-.5674287-.7550639-1.2715114-1.4057418-1.8793099-2.1324568-.8277806-.9897512-1.6251707-2.0050552-2.4312327-3.012903-.8921729-1.11547-1.7898726-2.2267978-2.6661383-3.3547206-1.0250216-1.3193748-2.0237169-2.6592023-3.0456192-3.9810366-.4488175-.5805436-.9149141-1.1488156-1.3937856-1.7048936-1.5129663-1.7568019-3.0445838-3.49763-4.5521398-5.2590402-1.5492072-1.8100563-3.0772264-3.6382352-4.6170757-5.4563173-1.5839079-1.8700938-3.1735754-3.7352945-4.7556453-5.6069417-1.1062789-1.3087861-2.1858819-2.6405619-3.3104883-3.9332448-1.222638-1.4053535-2.4712918-2.7886751-3.7307402-4.1612785-1.7847471-1.9450695-3.593905-3.8676928-5.3849036-5.8070925-1.5989219-1.7313526-3.1850948-3.4744849-4.7810528-5.2085817-1.6436665-1.7859792-3.3074078-3.5537064-4.9344941-5.3545979-1.528977-1.6923114-3.0163806-3.4220848-4.5323368-5.1262794-.7713613-.8671132-1.5598336-1.7192105-2.350312-2.5690813-1.1995086-1.2896279-2.4304949-2.5508034-3.6057609-3.862049-1.2862149-1.4350486-2.5224044-2.9148599-3.7841308-4.3719145-.5282627-.6100316-1.0758107-1.2035716-1.5980418-1.8186257-3.0159535-3.5520754-6.3347901-6.8142155-9.6454208-10.0838636-1.0007402-.9883531-1.8984399-2.0547887-2.6765317-3.2912657-.1244874.1926688-.2637819.3787876-.3726081.5812685-1.2641597,2.35218-2.5651298,4.6822506-3.9015383,6.9954671-1.5463856,2.6765999-3.1609947,5.3031039-4.9100703,7.8499203-1.0681742,1.5554342-2.24256,3.0251487-3.4548176,4.4700353-1.3801046,1.6449338-2.8995296,3.1640453-4.3004339,4.783012-1.4150124,1.6353289-3.0840216,2.9830526-4.6169334,4.4802098-1.5531549,1.5169626-3.2583791,2.8783041-4.898978,4.3055341-1.6138066,1.4039554-3.2196272,2.8173087-4.8482214,4.2039442-1.6252354,1.3837358-3.2809131,2.7316666-4.9111317,4.109655-1.5524365,1.3122552-3.0862931,2.6465165-4.633643,3.9648298-1.8665285,1.5902555-3.7215699,3.1946465-5.6128523,4.7549997-2.1830279,1.8010727-4.3967894,3.5650201-6.6034774,5.337252-2.0965416,1.6838197-4.1785287,3.3869529-6.3088779,5.0270713-1.985418,1.5285611-4.0258575,2.9856415-6.0423909,4.4737116-1.9857028,1.4653133-4.0248673,2.8520523-6.1347987,4.132127-1.1251436.6825995-2.2404632,1.388603-3.4062095,1.9957091-3.5044612,1.825124-7.0303368,3.6091615-10.5505627,5.4039172-.9243561.4712904-1.8550253.930568-2.789215,1.382053-.6984201.3375717-1.4223868.5684273-2.2315551.3942177-.247687-.4011301-.5014444-.8120723-.7316355-1.1848795.1209572-.6914537.6616906-.9585804,1.1188014-1.2356486,1.4810679-.8976626,2.9926331-1.7454105,4.4993511-2.6002262,2.1086047-1.1962967,4.2257712-2.3774999,6.3348225-3.5730199,1.9270896-1.0923249,3.8872296-2.1329746,5.7616017-3.3098284,2.0567996-1.2914402,4.0645252-2.6677975,6.0336025-4.0902639,1.8639528-1.3465328,3.6611512-2.786811,5.4660314-4.2132902.9887743-.781497,1.9269084-1.6267336,2.8982482-2.4306767,1.2931201-1.0702931,2.5953974-2.1295313,3.8956362-3.1912032.5953083-.4860473,1.1959621-.9655446,1.7927783-1.4497538,1.438226-1.1667569,2.8777657-2.3318828,4.3121022-3.5034033.5158437-.421298,1.0223877-.8542202,1.5261942-1.2899386,1.6711643-1.4453267,3.3184807-2.9191058,5.0141658-4.3349704,1.7158506-1.4326927,3.4877321-2.798047,5.2174577-4.2144035,1.4086314-1.1534498,2.7891502-2.3412029,4.1859904-3.5091508,1.6373826-1.3690307,3.2812173-2.7303204,4.9174674-4.1007232.5646718-.4728955,1.119701-.9576225,1.6707954-1.4463623,1.3663072-1.2117009,2.6980562-2.4644364,4.0979639-3.6357757,2.3540655-1.9697421,4.5654842-4.0887105,6.6857313-6.3011138,2.0105666-2.0978945,3.7580762-4.4185672,5.3220127-6.8602468,2.4494955-3.8241469,4.7836544-7.7196449,6.656415-11.8703864,1.0490442-2.325048,2.0941407-4.6508985,2.9416726-7.0609413.6045109-1.7190293,1.3058238-3.4056709,1.8630144-5.1392241.5352908-1.6653864.9808854-3.3627981,1.2866549-5.0902543.0985881-.5569972.3375191-.9883661.9706085-1.1730998.2256901.0753252.5110612.1705593.8092331.2700651.2573362.5065776.5086279,1.0012849.6754524,1.3296659.116851.687169.210236,1.1990021.2897718,1.71301.1091368.7052268-.0136939,1.4005898-.2013699,2.0686395-.6041614,2.15045-1.2002463,4.3043173-2.0905813,6.3629894-.4645564,1.0742023-.8771588,2.1708767-1.3445627,3.3355107.9786204.2435156,1.4265706,1.040106,1.9609813,1.7639732.6618492.8965235,1.3902133,1.7438831,2.0542239,2.6388791,1.0291505,1.3872309,2.3307807,2.5122541,3.5218244,3.7442005,1.7156435,1.7745361,3.4318953,3.548891,5.1221572,5.3475042,1.6138454,1.7172947,3.1963425,3.4640773,4.7896341,5.2006337,1.5215865,1.6583963,3.0425776,3.3173363,4.5578219,4.9815318,1.3010089,1.4289387,2.5972806,2.862175,3.8887116,4.2997608,1.1969458,1.332449,2.3925585,2.6662701,3.5744902,4.0120262,1.4111683,1.6067729,2.8017569,3.2315907,4.2111519,4.8399428,1.595725,1.8210075,3.2013903,3.6333421,4.8046482,5.4477738,1.6506687,1.8680486,3.3104365,3.7281491,4.9535465,5.6028253,1.3874693,1.5829805,2.7668103,3.1732878,4.1314867,4.7759184,1.4969038,1.757941,2.9679084,3.5379915,4.4596479,5.3003855,1.2446026,1.4703876,2.5093318,2.9237141,3.7535202,4.3944642,1.7650217,2.0864255,3.5141232,4.1863135,5.2811382,6.2710562.6136488.7239708,1.2641468,1.4166154,1.891127,2.1294278,1.576802,1.7926328,3.1605934,3.5793369,4.7205952,5.3865195,1.073908,1.2440367,2.1300709,2.5043837,3.1629491,3.7826462,1.3355801,1.652856,2.6388671,3.3317567,3.9582423,4.9977386,1.3434884,1.6964019,2.6875722,3.392312,4.0377781,5.0833548.1305966.1635691.2832484.3672409.4651.422463.8774177.2665571,1.3262869.9738551,1.8165743,1.654487.4683875.650186.9600987,1.2835698,1.4461666,1.9304679,2.2203237-1.5814272,4.410205-3.1411849,6.6518849-4.7378092-.6027636-.999382-1.1740234-1.9472442-1.7460082-2.8946403-.9695731-1.6059185-1.9354444-3.2140636-2.9105313-4.8166165-1.4437851-2.3728398-2.8752223-4.7534723-4.3468352-7.1089661-1.729881-2.7688697-3.5244001-5.4975591-5.2365489-8.277147-.8551684-1.3883441-1.5834419-2.8545118-2.3796024-4.2796447-1.2526532-2.2422019-2.5150009-4.4789671-3.7716018-6.7189685-.9677352-1.7250874-1.9456825-3.4446085-2.8962938-5.1790937-1.467497-2.6775319-2.88669-5.3819371-4.3800862-8.0448156-1.4258588-2.542467-2.9215977-5.0456857-4.3843834-7.5674671-1.3583989-2.3418243-2.7098474-4.6876873-4.0716892-7.0274922-1.396193-2.3988327-2.8171981-4.7833745-4.1965262-7.1918122-.844775-1.4750736-1.6164858-2.9918032-2.4481494-4.4746177-1.1374202-2.0280191-2.3009208-4.0413588-3.4526691-6.0613522-.9281032-1.6277692-1.8578501-3.2545804-2.7824716-4.8843431-1.5063135-2.6551117-3.0230981-5.3044243-4.5090132-7.9709532-1.2994946-2.3320122-2.5758726-4.677228-3.8381167-7.0296411-1.3432296-2.5033482-2.7192442-4.9921724-3.9614652-7.5454871-.7196663-1.4792418-1.4858245-2.9625482-1.8007966-4.6153912-.0623602-.3272548-.2708359-.6428075-.4670544-.9254808-.6799049-.979499-1.0904106-2.0781021-1.4641447-3.194776-.0972938-.2907119-.1689472-.5899932-.2766733-.9713568-.4381782.1908824-.8815983.3455327-1.2880787.5677542-1.8001106.984172-3.7399298,1.5738157-5.7247395,2.0197603-1.1164004.2508293-2.2405538.4965972-3.4022036.4626045-.2313722-.0067701-.4637151.1401522-.6999668.1577311-.8420052.062717-1.6637025-.0594809-2.4475799-.3753055-.9705179-.3910074-1.9647607-.6506261-3.0193057-.6433771-.3837651.0026278-.7439865-.0649047-1.1201281-.1976007-1.5867812-.5598321-3.2002642-1.0436011-4.7898024-1.5960158-.8164683-.2837606-1.6420098-.2514506-2.3153654.1806561-2.2686276,1.455786-4.8135402,2.2150051-7.3245028,3.066507-1.5940812.5405704-3.2176469.9971167-4.7997298,1.5695051-2.2169196.8020143-4.5000436.9101413-6.8095327.7584166-.6452301-.0424068-1.2929194-.2224286-1.9141529-.4192786-1.4091362-.4464495-2.8362375-.8528481-4.168996-1.5093641-1.6390975-.8074511-3.0674932-1.9186623-4.5132974-3.1922-.1566124.405143-.3468511.764177-.4351106,1.1467315-.665072,2.8824723-1.4547609,5.7300587-2.3113401,8.5610111-.677025,2.237503-1.2838139,4.4964036-1.9714265,6.730554-.6875996,2.2340727-1.4730172,4.4382431-2.1492333,6.6756037-.7281635,2.4092144-1.5575426,4.7847207-2.5401495,7.0943904-.8242989,1.9375874-1.7939108,3.8230595-2.8286204,5.6586169-1.0041249,1.7812932-2.1004181,3.5214741-3.2877407,5.1859026-1.538652,2.1569223-3.1830239,4.2402929-4.8286578,6.3183043-1.1519877,1.4546469-2.3672999,2.8602592-3.5819002,4.263904-1.1488101,1.3276335-2.3175722,2.6388532-3.5062279,3.9308888-1.9543415,2.1243794-3.9308158,4.2284096-5.8999642,6.3391453-1.0570042,1.1329971-2.1380504,2.2441954-3.1738472,3.3961695-3.4734881,3.8630845-7.2681935,7.4084287-10.9365217,11.0783266-2.3193907,2.3204397-4.6906124,4.5892818-7.0514018,6.8679877-1.3690641,1.3214201-2.7807566,2.5988541-4.143045,3.9270831-3.0574428,2.9809555-6.1138404,5.9635162-9.1316901,8.9843414-.9393961.9403025-1.7536252,2.0057024-2.6632261,3.0578988.0370531.1058099.1273608.2326679.1155437.349196-.26318,2.594194.6812089,4.7898727,2.1736085,6.8332442.9105716,1.2467292,1.8031264,2.5027009,2.9427275,3.5543277.6792545.6268338,1.3848839,1.2250857,2.0911929,1.8472076-.875803.0934866-1.7469077.0714547-2.5966885-.3796419-.8657365-.4596142-1.717682-.9373511-2.4087083-1.632481-.8413807-.8464017-1.6476692-1.7295145-2.4388594-2.6235008-.8418337-.9512796-1.28704-2.1336477-1.7815857-3.2768971-.5879113-1.359115-1.1222896-2.7414269-1.6980116-4.1583271v-1.007822c.2098444-.1975101.4658248-.4384367.7177993-.6756094h1.2173572c1.2965921-1.7046348,2.6591328-3.3369346,4.0863247-4.9218568,1.9562506-2.1724559,3.9392353-4.3162782,5.9915566-6.3978365,1.162216-1.1787696,2.2626446-2.4192077,3.4404539-3.5816669,2.1591801-2.1309811,4.3651854-4.2144035,6.5333222-6.336401,3.4562349-3.3826811,6.9095705-6.7684948,10.3385989-10.1786964,1.248259-1.241396,2.4252141-2.554635,3.6314984-3.8381013.988386-1.0516009,1.9764031-2.1036161,2.9568161-3.1626472,1.7211184-1.8591685,3.4555036-3.7065573,5.1479335-5.5915634,1.3582566-1.5128203,2.6813983-3.0583389,3.9849959-4.6186921,1.0745616-1.2862364,2.0930987-2.6191773,3.1448416-3.9246754.9655089-1.1984455,1.9690967-2.3672218,2.9068684-3.5868189,1.0616702-1.3807068,2.1603515-2.7465013,3.0766181-4.2220926,1.1689497-1.8825725,2.2352601-3.8364961,3.2304801-5.8175777,1.4712052-2.9286072,2.5833991-6.011308,3.6111841-9.119484,1.0473939-3.1674368,2.0740723-6.3424074,3.0549318-9.5309957.666787-2.1675758,1.2388558-4.3642901,1.8535918-6.5478914.5218234-1.8535764,1.0632946-3.7018843,1.5607266-5.5619977.4883653-1.8262243.9233854-3.6666488,1.397798-5.4966918.5518581-2.1288064,1.1186396-4.2537812,1.6859001-6.3785489.0709156-.265638.1429703-.5456188.2855523-.7747269.4309947-.6924893.6075655-1.4790735.759143-2.2467067.3481584-1.763326.5796212-3.5493311.8910469-5.3203851.2447683-1.3920981.5952306-2.7674069.797183-4.1648383.3212884-2.223238.8633614-4.4002116,1.2693887-6.6043432.2326535-1.2628842.3115033-2.5538713.4672874-3.8312665.054426-.4462165.1401616-.8885884.1965291-1.3346237.0563546-.4460223-.08769-.9199275.1977458-1.3354133.0335875-.048905.0057468-.1385212.0104063-.209005.0760153-1.1509644.0759247-2.3137084.2509811-3.4494498.1723513-1.1182272.0516433-2.2509914.2294307-3.3458664.1825246-1.1240394.0837294-2.2396259.1747328-3.3541251.4284708-5.2475323.077659-10.5053039.2244087-15.7561371.0213821-.7649795.1228437-1.5275902.1795218-2.2918578.0153118-.2065714.0023039-.4152528.0023039-.7485527-.7116804.6445421-1.1344044,1.3518531-1.4885555,2.0761345-.7232904,1.4792547-1.6621493,2.8162732-2.6601327,4.1052927-1.4720141,1.9012646-2.7696837,3.9180995-4.1034065,5.9123588-.8301557,1.2413054-1.6594183,2.4832062-2.4918585,3.7229841-1.4710628,2.1908892-3.3967869,3.8975563-5.6761767,5.1933717-1.7173131.9762887-3.5614758,1.6109281-5.5187683,1.9767451-1.3440903.2512047-2.6751274.4372329-4.0406709.4041721-.269561-.0065241-.5400733.1135508-.812786.129188-.3776624.0216824-.7588582.0157796-1.1365983-.0085176-.3090247-.019883-.6169946-.1320359-.9223305-.1206057-1.7922217.0671182-3.5436207-.2499879-5.2600084-.6754023-1.7341781-.4298415-3.4462363-.9597195-5.0286298-1.8545084-1.709709-.9667873-3.3297477-2.0396563-4.6936152-3.4614755-.3065396-.3195656-.5267742-.7219384-.8049618-1.1117161-.6654927.1442168-1.4037259.1933678-2.1310158-.1148971-.7981084-.3383095-1.4509232-.8895593-1.9263195-1.5782298-.9624349-1.3941822-1.2304104-2.9092678-.5040525-4.5179306.3547788-.785704.6872178-1.5815048,1.0460996-2.41047-1.2662953-1.092079-2.5531509-2.2118078-3.8510987-3.3185402-1.3585737-1.1584335-2.7221628-2.3111454-4.0945081-3.4532038-.8203124-.6826513-1.73887-1.0458664-2.8422043-.8755402-.483777.0746779-.9885607.0013333-1.4822716.0259541-1.2575328.06273-2.5133798.1723715-3.7714562.2075681-1.2712429.0355591-2.5454562.0348989-3.8161942-.0106017-.6520156-.0233522-1.2999088-.1751546-1.9485041-.2763433-.5583167-.0870919-.9414055-.430644-1.2611569-.8993325v-.5819545c.1962379-.2091733.4337225-.4623197.7144729-.761588,1.2485923,0,2.5160655-.0043106,3.7834966.0010356,1.7831615.0075338,3.5520144-.1581194,5.3168322-.3994344.3822054-.0522577.7777229.0015663,1.164892-.0253198.4842235-.0336433.9870528.1013181,1.4502437-.1756077.1048462-.0626782.2774757-.0216694.4180257-.0134107,1.6520342.0968781,3.1821891.4600932,4.53046,1.5460623,2.1182603,1.7061493,4.0337916,3.6175626,5.9428773,5.541571.394592.3976739.7905884.7939498,1.2473142,1.2525155,1.334234-1.6172192,2.5775164-3.2374417,3.8395405-4.9140123-.5183611-.4164178-1.0199156-.8532753-1.5559247-1.2427164-1.0402105-.755737-2.1060808-1.4760703-3.1488345-2.228377-.5788834-.4176476-1.1049652-.8866985-1.0082796-1.8662881.1136022-.104619.3172436-.2921617.4793634-.4414528h1.1875102c.8580677.6277658,1.841024,1.2887218,2.7562422,2.0329898.8982368.7304431,1.7168407,1.5580491,2.5930159,2.3168799.3097884.2682917.6863441.4594719,1.0789817.7163075.519992.5929187.4276165,1.1951317-.0696149,1.8360363-1.1103883,1.4312429-2.1882505,2.887702-3.2826346,4.3313976-.7165341.9452344-1.467374,1.8660292-2.1489356,2.8356643-.4972896.7074792-.9268671,1.4648084-.9432337,2.3813962-.0035205.1972253-.1204233.3924442-.1837089.5843881.0938186.371435.1863882.737964.2868984,1.1359097.2926257.3512024.6100053.7207864,1.1083498.9964177.4364697-.3297143.9014791-.5908216,1.2513071-.9608586,1.5212888-1.6091418,2.9969723-3.2613246,4.5135239-4.8750359.8949622-.9523281,1.8329086-1.8644111,2.7592062-2.7868887.0911782-.0907941.2362194-.1274793.3952068-.2093416.1792435.1261849.3552319.2313346.5080066.3633316.1323504.1143275.2383744.2591398.3768211.4136606v.8364472c-2.0533114,2.9557911-4.3566591,5.8493958-6.9554282,8.5435358,1.5971164,1.0247925,3.0597532,2.2562728,4.7777134,3.1271658,1.825408.9253384,3.7152084,1.5930515,5.7078875,2.0718239,2.9371036.7057317,5.9086814.7107154,8.873367.5669387,2.1761033-.1055122,4.3257961-.5975141,6.1840927-1.8558547,1.179932-.7989852,2.2972967-1.6530502,3.2520822-2.7660477,1.6715525-1.9485645,2.9345668-4.1336286,4.1722706-6.3523489,1.2194669-2.186009,2.5266756-4.3151132,4.1137287-6.2633671,1.3672909-1.6784865,2.6510466-3.4272109,4.0612959-5.0678729,1.353157-1.5742299,2.8214564-3.0494718,4.3440654-4.6805807.1516163.9983206.9995754,1.7819793.1247592,2.6861531.1804408.4172333.3571539.8000467.4340364,1.260127.2987025,1.7872737.16012,3.5794404.1735421,5.3680086.0262617,3.4990668.0273619,6.9986774-.0061221,10.4976536-.0147423,1.5413634-.073789,3.0884741-.2326276,4.6205562-.1616602,1.5594212-.2575691,3.123373-.4177539,4.6810855-.141223,1.3735095-.4110493,2.7333106-.5970686,4.1028332-.1681836,1.2381339-.2716901,2.4854327-.4561562,3.7208483-.1578161,1.0568306-.4030634,2.1002893-.5854456,3.1538578-.1711605.9889098-.2917521,1.9866737-.4688923,2.9743926-.2190503,1.2214353-.4778619,2.4356863-.7108779,3.654662-.123219.6446586-.2258713,1.2932136-.3417257,1.9393091-.3168748,1.7669505-.6125615,3.5381598-.9613153,5.2988321-.2808798,1.4180263-.6287405,2.8227326-.9398685,4.2349079-.0212139.0962697.0162437.205497.0285915.3307757.5646718.1438544,1.1561489.2204999,1.6841527.4459058.8553108.3650792,1.6958275.782649,2.4948872,1.2582112,1.9699768,1.1724526,4.0200201,2.1742941,6.2375869,2.7499446,1.0917178.2833723,2.2043647.5881162,3.365898.5435994.3748731-.0143557.7534739.0985609,1.1319581.1377186.2438105.0252292.4936267.0521412.7354699.027145,2.4414707-.2523438,4.8467135-.6734476,7.1603963-1.5314866,1.48752-.551651,2.9938465-1.0723771,4.3873215-1.829085,1.734657-.9419723,3.4040933-2.0032947,5.1225972-2.9761142.7170647-.4059456,1.4828864-.7280354,2.2356484-1.0680536,1.0458731-.4724036,1.9687472-.0202455,2.8562347.4579314,1.0375247.5590295,2.0383556,1.1857727,3.0632349,1.7688534.6767079.3849881,1.4072983.534331,2.1930524.5613984,1.7953605.0618756,3.532619-.2128496,5.2348663-.7540024,1.208064-.3840431,2.4130863-.7779242,3.6158436-1.1783424.3914533-.1303401.7714261-.2952296,1.1954185-.4593165.2137953-.9684183.3390852-1.9600853.523849-2.9383416.2146366-1.1363498-.0182369-2.3042459.3596519-3.413839.0650783-.1910637.0194277-.4210391.0190006-.6330213-.0051902-2.5800714.0798723-5.1649064-.0545296-7.7382594-.0712781-1.3645-.020282-2.7441324-.2076344-4.0925422-.2099771-1.5112022-.1679506-3.0188964-.1399934-4.523225.0262099-1.4105313-.0661008-2.8147457-.2751848-4.1886565-.2384391-1.5667479-.3425411-3.1589321-.7715814-4.7018877-.2393193-.860602-.3184797-1.7671188-.4509143-2.6557719-.2696192-1.809189-.7029826-3.5831297-1.1690403-5.3477372-.7022836-2.6590599-1.5390727-5.2777452-2.4383255-7.8770654-.9108629-2.6328339-1.794338-5.2751692-2.7036217-7.9085598-.1215235-.3519532-.30885-.6844377-.4916335-1.0114335-1.1350257-2.0303491-1.912548-4.202119-2.5382857-6.4316998-.464181-1.6539433-.9012072-3.3155241-1.3439803-4.975409-.1240344-.4650122-.2599119-.9311894-.326621-1.4058065-.0535718-.3811435-.0108464-.7758142-.0108464-1.1737211.2266738-.6339793.6177906-1.1149911,1.3600816-1.0444296.6964721.066225,1.1413549.5526219,1.3422718,1.1762324.3366519,1.0449344.6161598,2.1101402.8760716,3.177443.3257149,1.3375362.5782104,2.6932209.9168167,4.0272232.295635,1.1646728.6644119,2.3108865,1.0079884,3.4631324.0382988.1284243.1231543.2429589.1915978.3738427.9471296.0973182,1.8779638.1865977,2.8070895.2909578.5152418.0578757,1.0291893.131544,1.5410012.2148042.7827513.127311,1.5594453.2994496,2.3457042.3952791.6545233.079804,1.3164501.1299777,1.970158.1895103,1.8484663.1683198,3.7187936.3115658,5.5659397.207128,1.3276201-.0750663,2.663239-.0522189,3.9818248-.1898857,1.4528841-.1516988,2.921313-.2066232,4.357811-.433466,2.8246016-.4460741,5.6065554-1.1080139,8.2612649-2.2172446,1.114679-.465763,2.2734942-.8422205,3.3457714-1.3895351,1.9482841-.9944889,3.8275939-2.1149427,5.6261384-3.3703578,2.1948903-1.5320691,4.2580062-3.2192026,6.0274027-5.227015,1.1299778-1.2822106,2.1556078-2.6589045,3.1909581-4.021424,1.3471125-1.7727497,2.5668512-3.6368372,3.5021637-5.6588629.9271583-2.0044532,1.7475613-4.0582193,2.6188828-6.0886008.612238-1.4266604,1.2192598-2.8557674,1.8513009-4.2736643.4927725-1.1054314,1.0228731-2.1941771,1.5279675-3.2941912.0411593-.0896161.0175251-.2089856.0297693-.4084439-1.0146412-.2351274-2.037812-.4899631-3.0690722-.7063271-1.078684-.226325-2.1623641-.432165-3.2492541-.614957-.6499155-.1093115-1.3127484-.1397638-1.9651749-.236739-1.0217988-.1518801-2.0396887-.3300638-3.1676474-.5148687-.0736337.0796746-.2753401.2302602-.3880752.4308641-.7807063,1.3890561-1.5213406,2.8009078-2.3160773,4.1817052-1.1748518,2.0412356-2.3631775,4.0753904-3.5865662,6.0877464-.6849398,1.1266607-1.4206815,2.2258269-2.188587,3.2979452-1.814594,2.5334446-4.0206414,4.6533256-6.7250656,6.234947-1.7693965,1.0347858-3.6597857,1.7667434-5.6437153,2.2476517-.7036427.1705463-1.438569.2652109-2.1625065.2875663-1.4121908.0436495-2.8362246.1104182-4.2368571-.0244007-.8850671-.0852149-1.7855107-.1609672-2.6750821-.3265816-.8796569-.1637762-1.7763211-.25558-2.6526386-.4728955-1.2679521-.3144395-2.5494686-.575301-3.8133435-.904601-1.7598703-.4585528-3.5195205-.9238239-5.2593936-1.4517214-1.8063492-.5480783-3.6022662-1.137489-5.3783284-1.7766331-1.7573852-.6324259-3.4474012-1.4312299-5.099636-2.3046083-1.4769325-.7807009-2.8572184-1.7117673-4.1929279-2.7116024-.4170679-.3122001-.8391836-.6176495-1.3473973-.9911557-.1628898-.6143422-.617933-1.0377695-1.3475785-1.2940485-.4650223-.1633491-.8316377-.6069507-1.1945513-.88787v-.7728952c.2596142-.1632326.5219852-.3282062.7704294-.4844163h1.2556949c.7000703.4375241,1.5140406.9641725,2.3457689,1.4610998.8623907.5152505,1.7347476,1.0149221,2.6158282,1.4974938,1.1841968.6485873,2.3645365,1.3076793,3.5760046,1.9021449,1.9814445.9722953,4.0851501,1.6388563,6.1726121,2.3347177,3.8781759,1.2928317,7.8201616,2.3711764,11.7869852,3.3517627,1.0369294.2563179,2.1200529.3249894,3.1814578.4832513.8883547.1324371,1.7752468.373765,2.6641062.3801338,1.2550218.0089836,2.5069891.0579922,3.7769214-.1136803,1.5738251-.212759,3.0303204-.7062495,4.4277818-1.3661311,1.3157124-.6212805,2.5178354-1.4524721,3.6573912-2.386354.933604-.7651025,1.7108674-1.6571536,2.4954955-2.5495672.9197678-1.0461318,1.6976783-2.2017109,2.383317-3.4134701,1.1946419-2.1113829,2.3374076-4.2526745,3.5594243-6.3478765,1.4489753-2.4843648,2.9574244-4.9340637,4.4427441-7.3971927.7161199-1.1875655,1.4468526-2.3663868,2.1544041-3.5590008.4171067-.7030327.9363221-1.3103977,1.5905736-1.8555634h.9197419c.1244616.2829386.2736446.6220637.4246914.9654022-.4739402,1.7827495-1.4036224,3.3631735-2.3157666,5.0379772.5035153.1112208.9845095.2439621,1.4742533.3211772,2.4851669.3918488,4.9314266.9508071,7.3273244,1.7164791.6925374.2213154,1.3571952.5305382,1.9944394,1.1023894.8988516-2.0766976,1.841011-4.093992,2.3681606-6.3446274-3.0143097-1.1489191-6.1794979-1.8310915-9.3139461-2.8516122-.1634076.1180232-.3556913.2568874-.5908429.4267088h-.7904396c-.4475361-.4942413-.4306453-1.1258581-.3061708-1.6869394.4235783-1.909381.849344-3.8203671,1.4554857-5.6851341.5096763-1.5679776.9829175-3.1477738,1.4799612-4.7199131.0932038-.2947636.2145978-.5815468.3370661-.8659481.2542945-.5904333.6899358-.9844568,1.3433072-1.0072136.6932622-.0241548,1.0606024.4321068,1.2763133,1.036598.0969314.8377028-.2978095,1.5350334-.586274,2.2826088-.6931587,1.7964385-1.3056814,3.6241773-1.9405311,5.4428483-.3170819.908355-.611772,1.8245285-.947945,2.8310495.715175.1321977,1.364081.2018013,1.9832565.3766776,1.4552915.4110393,2.8897446.8958827,4.3449973,1.3071291,1.639227.4632388,3.1859361,1.1328871,4.6788535,1.9430695.7726557.4193045,1.5234115.8505245,1.8217516,1.8074998-.1610907.1703068-.3272552.3459663-.4404303.4655947-.7907761.3632863-1.3536747-.3239668-2.04805-.331643-.1476298,1.9398722-.8659242,3.664034-1.5206675,5.3986746-.8278195,2.193038-1.6963323,4.371798-2.6005682,6.5344289-.4931608,1.1794815-1.1154168,2.3042847-1.6457762,3.4690675-.9164673,2.0126731-1.7984798,4.0410223-2.7100804,6.0559478-1.1818411,2.6122195-2.8063776,4.9539661-4.5014285,7.2467171-.9537436,1.2900551-1.8929649,2.6029705-2.9680249,3.788303-1.5340249,1.6913923-3.1134414,3.3555749-5.0478245,4.6197665-2.2096456,1.4440581-4.3840986,2.9461861-6.6410644,4.3119547-1.2364225.7482162-2.5848164,1.3340023-3.930997,1.8722685-1.5962815.6383028-3.2378512,1.1669252-4.8722633,1.7051525-1.4067288.4632517-2.8526365.7790245-4.3129241,1.0313166-1.0943453.1890831-2.1994075.2988671-3.2947494.4554849-1.2282295.1756206-2.4653768.0179413-3.6638887.2119823-1.1953279.1935102-2.3768325.1433884-3.5641615.1518801-.6200298.00444-1.2406161-.1243208-1.8616295-.1859376-.6212594-.0616556-1.2366943.0229898-1.8712463-.1671289-.6877873-.2060924-1.4478751-.1582489-2.1700394-.2646025-1.8065563-.2660523-3.6252663-.4737499-5.3790792-1.0215563-.0566523-.0176954-.1309073.0209316-.1969045.0334103.0859038.4649992.4470831.8064284.530683,1.2902881.0869652.5032896.2975894.9884049.4822497,1.4706983.184945.4829794.4068686.9516808.6084715,1.428395.1881161.4447926.3820954.8876176.5528417,1.3391155.1825117.482604.3367684.9757968.5109059,1.4616758.1740598.4855684.360998.9665155.5357956,1.4518379.1747587.4852188.3422563.9730655.511566,1.4602519.9823998,2.8267195,1.782482,5.7078456,2.4958191,8.6111718.3043458,1.2386647.4582013,2.5137557.7011705,3.7682647.1831847.9458687.4236559,1.881045.5914771,2.8293214.0964525.545088.1352691,1.1047777.2004639,1.6527007.1557452,1.3092521.3952457,2.606828.502454,3.9270054.1353079,1.6659172.2594071,3.3364168.4344117,4.9956545.1369517,1.2983915-.025731,2.6118894.2187137,3.8745276.2547475,1.3158927.0524328,2.643345.3192434,3.9572442.1481476.7294852-.0456117,1.5287552-.0881818,2.2964143-.0096168.1733553-.0077141.3523545-.0520186.5178006-.1167604.4359384.2703182.8233342.0320473,1.3141969-.1681448.346387.0080248.8430749-.0671233,1.2548455-.1745646.9565092-.1025746,1.9417556-.3637161,2.8864463-.0457541.1655626-.0397485.3476556-.0429325.5223831-.018444,1.0101261-.1902129,1.9974178-.4003453,2.9829102-.0643793.301922-.0099921.6291768-.0099921,1.0121455.1394239.0187051.2806339.0376561.4218439.0566071l-.0241261-.0230933Zm-21.1031964,3.1874752c-.6645154.3236691-1.3824085.6607748-2.0884198,1.0212197-.5538384.282725-1.0899187.6000124-1.6391234.8920964-2.4725473,1.3149995-5.0167221,2.4763844-7.6262987,3.4896302-2.4444347.9491178-4.9598498,1.6946673-7.5658023,1.9777289-1.7711826.192397-3.5832786.1572392-5.3417122-.2005521-1.7549648-.3570664-3.4552836-.9499851-5.0513062-1.7674812-1.8227094-.933623-3.6192736-1.9228823-5.2939519-3.1149202-.234608-.1669995-.5099222-.2767834-.77395-.417065-.6083421,2.5093933-1.1913285,4.9141936-1.789782,7.3827852.8177367.7435043,1.6604797,1.5391239,2.5380527,2.2943043.3921005.3374034.8455387.6071578,1.2858913.8841484,1.7073469,1.0739435,3.5779849,1.7645557,5.5035795,2.3246337,1.2981614.3775837,2.6285384.435809,3.9389311.1972901,1.5865871-.288822,3.1022715-.8665048,4.6358951-1.3625583.9143963-.2957603,1.8231624-.6173324,2.7528317-.8555277,1.7362102-.4448573,3.4287242-1.0191745,5.0564965-1.7543812,1.4781233-.6675966,2.9332207-1.3701957,4.5909046-1.6392123,1.8776661.5505248,3.7747987,1.1613072,5.701623,1.6565064,1.9640618.5047653,3.9430082.9665284,5.9519181,1.2670653.3357977.0502513.6932622-.031365,1.0392203-.0665616.2401865-.0244266.4770336-.0801406.71678-.1108195,1.2052553-.1541842,2.4302878-.217199,3.6118183-.4779698,1.6086423-.3550211,3.1872434-.8598253,4.7080145-1.5014678.4945975-.2086814,1.0708405-.3778815,1.3434108-.8913974.1113242-1.2523731-.010924-2.4706758.1983541-3.7021561.2022112-1.1899667.3669519-2.3832344.6631952-3.5564248.0527952-.2090956-.0195054-.4497892-.035542-.6992593-2.909923,1.1129199-5.7622488,2.1212467-8.9499841,2.2591207-.1780463-.0256693-.4847736-.1108842-.7900125-.105797-.7465881.0124528-1.4319032-.2187006-2.121852-.4526759-1.2027573-.4079002-2.1974272-1.176556-3.2053768-1.9028051-.5674158-.4088193-1.107612-.8310104-1.9638029-1.067497Z" stroke-width="0"/>
      <path d="m71.2566474,103.4898522c.1330429-.0261289.2766862-.0286337.397213-.0826842.4104798-.1841253.803221-.4108969,1.2209942-.5748285.4141298-.1625077.8503535-.2686541,1.2407261-.3884184.8487356.250195,1.6850911.445511,2.0078421,1.5399977v.77551c-.3990898,1.2244902-.7287589,2.2359755-1.0823017,3.3207213.6011198.1342688,1.1410248.112347,1.6805869-.0014692.8409956-.1774005,1.6758238-.3867809,2.52056-.5432175,1.5278057-.2829257,3.082449-.3135334,4.6167133-.1907142,1.9243198.1540354,3.8519595.3848975,5.6966528,1.0254397,1.0821658.375765,2.1500358.8210754,3.0203218,1.5606833.9220975.7836587,1.4618278,1.8476477,1.5833901,3.0704163.1193102,1.2001154-.190174,2.3314168-.6127881,3.4487897-.5780033,1.5282374-1.4927814,2.8030955-2.606412,3.9927256-.7297685.7795812-1.5514981,1.332449-2.4812839,1.812943-2.7672374,1.4300261-5.5226642,2.8839868-8.2607601,4.3690667-3.735458,2.0259997-7.6104045,3.7182205-11.6819126,4.9373646-1.1150349.3338824-2.2721999.5284023-3.4121116.7773676-.9737473.2126813-1.9462779.4355501-2.9273121.6087371-.6835354.1206575-1.3812436.1593362-2.0713089.2452113-.4803535.0597786-.957523.1451229-1.43787.2049015-.4458276.055468-.9197613-.0972923-1.3355413.1915685-.0490417.0340575-.1382331.009372-.2087087.0136567-1.2572739.0763349-2.524087.0815516-3.7692397.2484604-1.3997297.1875945-2.8134543.0601281-4.1953516.2444087-1.0185468.1358416-2.0256357.0931371-3.0358924.1597504-4.753157.3134169-9.5121417.2146877-14.2694923.193562-1.0820298-.0048154-2.162746-.1486051-3.2455265-.1857693-1.0944132-.0375784-2.2072721.094794-3.2821088-.0579793-1.5441222-.2194773-3.1012393-.2681493-4.6461218-.5440784-2.1706542-.3876806-4.3254078-.8266998-6.4811483-1.2850843-1.5456753-.3286657-3.0455432-.7598276-4.5380269-1.2665864-2.3112697-.7848108-4.4251552-1.9411084-6.4010705-3.3398342-.6423321-.4547082-1.1130328-1.1568801-1.6441893-1.7617079-.2757565-.3140123-.5279109-.6518818-.7634314-.9975698-.8035883-1.1794427-1.0670577-2.4290586-.6679195-3.8497127.4421208-1.5736345,1.3248019-2.7841962,2.5736749-3.8060891,2.1154417-1.7309643,4.5051652-2.9244131,7.030278-3.9318338,1.2892452-.5143574,2.5994179-.9289758,3.9412682-1.1704979.8833473-.1589997,1.8910979-.330711,2.762908.4141784.0209971.2007204.045602.4359643.0633245.6053715-.492999.9029052-1.3871069,1.0180353-2.1645192,1.2166199-.9433793.2409654-1.8293792.5982648-2.7053707.9890781-1.5498932.6914796-3.0317093,1.5153316-4.4493629,2.4499901-.2907538.1916979-.5550049.4235762-.8488149.6503284.6379035.8067521,1.1815426,1.6575937,1.882015,2.3496688,2.1445195,2.1188261,4.4787512,3.9520405,7.5216257,4.6501995.9616551.2206423,1.8848285.6046595,2.8332751.8882907,1.4805582.4427603,2.9793227.7939756,4.514205,1.0175046,1.2739528.1855104,2.5500753.3153974,3.8261217.4614912,1.1239107.1286961,2.2374896.1460679,3.3556114.1497183,3.9576664.0129059,7.9178372.0765679,11.8720801-.0432353,1.8223405-.0552221,3.6515797-.0733317,5.4702444-.1993612,1.596521-.1106512,3.1897576-.2915015,4.7872461-.420107,1.5849886-.1276088,3.1613829-.3808976,4.7355834-.6185621,1.7069651-.257677,3.4216702-.4934387,5.1071237-.8582849,3.6573071-.7916715,7.2613271-1.7561158,10.7821161-3.0708046,2.7206291-1.0158995,5.3356548-2.2257363,7.8871554-3.5815893,1.9284875-1.0248054,3.8673748-2.0505428,5.5568666-3.4532815.3795068-.5279104.7604438-1.0578014,1.1008169-1.5312665.8512013-.0139285.9969803.5751715,1.2409785,1.0356272v.9484058c-.1886726.2636834-.3679356.6148729-.6373801.8712814-.7116674.6772663-1.4177822,1.3741697-2.2064098,1.9540272-1.9844473,1.4590998-4.0944951,2.7215051-6.3119389,3.8007947-1.9217376.9353446-3.9620282,1.5519262-5.9916925,2.1816208-1.702655.5282341-3.4419327.9411568-5.1718913,1.3778072-1.3662037.3448337-2.740471.6589237-4.1155278.9671497-1.6123375.3613899-3.224002.7298865-4.8463576,1.041051-1.0533607.2020278-2.12822.2891068-3.1881235.460598-1.122309.1815881-2.2356678.4186184-3.3581515.5989768-.5812552.0934089-1.1683511.076296-1.7605369.1960733-.951265.1923711-1.9436989.1789474-2.9181613.2594893-.7632557.0630665-1.5244566.1594786-2.2887413.1992318-.7404563.0385234-1.505524-.0849172-2.2203075.0589631-.9460068.1904164-1.8836588.151207-2.8250449.1552457-3.4275108.0147052-6.8551251.0042976-10.2827005.0062523-1.5028804.0008543-2.9865919-.1872968-4.4709651-.4021916-.8607323-.1246056-1.73876-.1286444-2.6002268-.2495089-1.2979754-.1821059-2.6001686-.3647297-3.8790269-.6453188-1.8689942-.4101008-3.765381-.7706623-5.5423929-1.487384-2.4028596-.9691562-4.782991-2.0324979-6.7921137-3.7137934-1.1498262-.9622049-2.23283-2.026867-2.6241325-3.575324-.0313771-.1241655-.1656888-.2222992-.2897038-.3803927-.8254027.6117273-1.3205212,1.4387378-1.7645494,2.3937196v1.2483732c.1221599.3954474.4076616.6865865.7809431.9893499,1.6831051,1.3651602,3.5082414,2.5171731,5.3890818,3.5643987,1.5234996.8482657,3.1874901,1.4161623,4.8884706,1.8307031,1.2685814.309171,2.5475465.5758964,3.8227354.8576894.7367173.1628183,1.475868.3146078,2.2124785.4778922.5024572.1113632.9970854.2725893,1.5047167.3428013.7925639.1096157,1.5920491.1766433,2.3905782.2344413,4.5404408.3286787,9.0888951.2091474,13.6341556.2038012,2.2116356-.0026019,4.4353827-.02598,6.6308911-.2566026,1.8661499-.1960085,3.722421-.0723608,5.5799831-.1673749,1.7409312-.0890465,3.4861077-.1297576,5.2143514-.3940364.173212-.0264848.3530186-.0070807.5294146-.0159608,2.563376-.128955,5.0976493-.4072659,7.5552019-1.2240501,1.6897506-.5615925,3.41316-1.0211809,5.1165075-1.5427355,1.8009778-.5514309,3.6098315-1.0824481,5.3884694-1.6995604,1.067993-.3705289,2.0976094-.861534,3.1220163-1.3459114,2.307936-1.0913411,4.5964637-2.2237169,6.9035584-3.3168703,1.4345307-.6797129,2.8885797-1.3182357,4.3562578-1.985431.5900016-.7929789,1.2097984-1.588728,1.7891477-2.4129295,1.0116837-1.4392427,1.5476152-3.0250193,1.3942839-4.7290586-.754244-1.2824566-2.0009628-1.7009973-3.2434427-2.0233719-1.6430646-.4263076-3.317167-.7515041-5.0329981-.7245403-.1016816.0015922-.2030137.0256823-.3863019.0503031.2458297,1.4711772-.8034216,2.2554444-1.7539164,2.9908323-1.2576493.9730266-2.6030727,1.8327225-4.0669067,2.5063902-1.2572739.5785889-2.5416379,1.0650893-3.8746359,1.3998002-.5674481.1424693-1.1933217.0691117-1.7924094.0644128-.757195-.0059416-1.5141571-.041902-2.2730283-.0649694.1322598.318064.2649144.6994665.4468566,1.0556914.1562306.3058442.1418831.5802717.0486081.9021803-.3021778,1.0428374-.8751656,1.8332791-1.7823526,2.4768245-1.2449844.8831905-2.6297098,1.3885771-4.0723299,1.7309513-.6688644.1587408-1.4066187.0270932-2.1109797.0270932-1.0166086-.4525723-1.7052501-1.2045554-2.0893323-2.3491639-.1459796-1.2644375-.3044558-2.6371445-.462932-4.0098644.0612277-.0291773.1224618-.0583417.037011-.0176307.0463107-.0829108.0134027-.0239865-.0195118.0349248-1.1676878.5011538-2.2615412,1.1407769-3.4936924,1.5317325-3.1186349.9896088-6.0712736-.210869-7.788289-2.6741793-.5201246-.7462097-1.0123826-1.4829828-1.2443793-2.3773316-.3795974-1.4633716-.317784-2.8970869.2866525-4.2811463.7831105-1.7932218,1.9457375-3.2892593,3.5427859-4.4501069.6493946-.4720282,1.2645318-1.0058414,1.8286082-1.5773367.9430428-.9554348,1.9700286-1.7692935,3.2858574-2.2761559.265458.129201.575324.2800131.8851901.4308447.4336998.4760411.4163042.9731367.1414624,1.534179-.7063866,1.441974-1.6734876,2.7164566-2.547142,4.0508926-.7784898,1.1890865-1.5685281,2.3706327-2.4462662,3.6955737.3475598-.0224979.539698.0066277.6996853-.0520118,1.0696076-.392043,2.1724113-.6038181,3.293015-.8115545,1.2299121-.2280078,2.4427068-.1309097,3.6619537-.1646047,1.0796677-.0298505,1.6960604.2537807,2.5221132,1.0183978.1540108-.1122564.308287-.2247069.5608665-.4087934-.0417158.2677092-.0654083.4293366-.092356.5904204-.0392049.2343507-.1809067.5090371-.1049627.6957772.4740696,1.1658249-.1958173,2.0780503-.6469192,3.0223138-.2184937.4573489-.5901569.8415215-.9719223,1.3685129.7932159-.0026278,1.3915335-.3108797,2.0749395-.4432263.3538987-1.861861,1.0299853-3.5837899,2.0228367-5.1440913.1995643-2.3076956.7942708-4.466482,2.19302-6.3041105.9376941-1.2319334,2.1017383-2.2749261,3.4709189-3.0248121.470685-.2577871,1.03326-.4581709,1.7011665-.358568.2230368.2711395.4460735.5422791.7041927.8560649.1122626.581372-.082681,1.1078585-.5275249,1.5641525-.1158285.1187999-.1933386.2749647-.2884516.4139648l-.2116985.2137428c-.070728.0706262-.1414624.1412525-.2121904.2118723-.348592.3315459-.7611298.6178502-1.0336289,1.0032201-.7788619,1.1014703-1.4906264,2.2471339-2.0844204,3.4652424-.6332836,1.2991164-1.0615214,2.6319407-.8962565,4.0932929.1791853.3432544.355303.6806449.5642188,1.0808559.4074058.1677503.8367114.3977516,1.2946603.5232633,1.4795988.4055572,2.9622652.2930937,4.4357678-.0643222.4663166-.1131107.9341735-.2227523,1.394368-.3577007,1.6923652-.4962089,3.3576014-1.0544358,4.8260821-2.2447132-.1274708-.1013569-.2318122-.1843195-.3096201-.2461822-.5461307.0795581-1.0773121.0841534-1.558371.241781-1.0842496.3552541-2.1886776.3901919-3.3049486.3409114-.2326794-.0102781-.4734483-.0914672-.689224-.1876851-1.1373296-.5071213-1.7081688-1.8605795-1.5557888-2.9371766.0664567-.4695687.234019-.9321602.4080659-1.3774318.2589929-.662587.5644518-1.3070191.8669855-1.9976508-1.8557145.3058637-2.1138984.2242992-2.5371531-.7125665.062522-.2460462.1125344-.4428315.1625404-.6396167.0703656-.0709499.1407311-.1418997.2110967-.212856.0713234-.0704774.1426467-.1409483.2139701-.2114257Zm-23.1198042,9.9894579c.0094065-.4179323.0213174-.8358258.027336-1.25381.00398-.2763433-.0938639-.4898401-.4258886-.6595191.0075491.7228316.104432,1.3293163.4242643,1.8884235.028462.1320747.022492.2861942.0907122.3928196.6689291,1.0453227,1.4652513,1.9511405,2.7445739,2.3770727,1.0618094-.0220448,2.1868494.1547667,3.278962-.2124483.681361-.2291211,1.4018815-.3837583,2.0336055-.7098351,1.3371204-.6901722,2.5656346-1.5351628,3.1439291-3.0305725.1229796-.3180123.2359023-.6399338.3607974-.9800427-.4982669-.7331485-1.2895995-.8462334-2.0230891-.7648889-.9088114.1008003-1.823596.2482663-2.714837.5253603-2.0334275.6322058-4.0347333,1.3291092-5.8789995,2.4274405h-1.0613661Zm12.2270046,7.4654241c1.988492.9775961,4.7545128.1702486,6.2305911-1.7536434v-1.0919495c-.2997639-.6662763-.9508702-.6066142-1.4457977-.7899369-.5584461-.2068432-1.07561.1348319-1.5830018.4534396-.5235125-.4256733-1.052623-.2720198-1.5798955-.0530085-.7222679.2999803-1.5323358.4000298-2.1426517.8878635-.142692.8853005.1579067,1.6109411.5207556,2.3472352Zm4.6516664-5.4057424c.0404086-.056633.0808172-.1132531.1212322-.1698732-.1169998-.0539017-.2339996-.1078034-.350993-.1617051-.0164055.0307307-.0328109.0614614-.0492099.0921921.0929902.0797911.1859805.1595822.2789707.2393862Z" stroke-width="0"/>
      <path d="m212.092167,50.894551v1.6759072c.6089504-.0284395,1.1700758.0266758,1.76972-.1031595,1.0514257-.2276486,1.9831012.0722799,2.6700472.9381536-.1234002,1.0511479-.8932731,1.4257284-1.6847093,1.7059033-.4806965.1701645-1.0208281.2028822-1.5379466.2323378-.7091953.0404004-1.3796775.1456602-1.8916059.7057317-.2401347-.0605812-.4357707-.117486-.6347591-.1580159-.2001791-.0407823-.4388512-.1497571-.5997866-.0826972-.8215291.3423159-1.669967.1234212-2.4540256.1947594-.7150068-.2093869-1.1457685-.5986338-1.1885975-1.3354392-.0496241-.8542105.3918028-1.4674039,1.2547888-1.6394582.6771998-.1350164,1.3658542-.2125713,2.130291-.3278535.0975915-.6130024-.2239428-1.214895-.3224792-1.8451008-.0976045-.6242578-.1743445-1.2424348.1247075-1.8924978-.8683316-1.3692087-1.7577347-2.7716657-2.6171225-4.1267776-1.3980439.3936287-2.7710298.8277807-4.1681677,1.1604108-1.4464772.3443838-2.8341278.8522915-4.1998008,1.4114504-1.4982888.6134619-2.9695522,1.2991714-4.4244554,2.0109353-2.1251007,1.0396433-4.0785103,2.3664257-5.9983194,3.7398575-1.3202425.9444901-1.839872,2.2974046-1.9003037,3.8677446-.0081413.211691-.0011261.423971-.0011261.7586561.2369636.3104073.5387855.6846642.8178662,1.0751926.9519315,1.3320865,2.4627364,1.7015086,3.872442,2.2135748,1.2522779.4548765,2.5305198.8541037,3.8217566,1.1813262,1.2349729.3129574,2.4974888.5247584,3.7551251.7384559,1.3637445.2317294,2.7358114.4143855,4.1043449.6177919.0347265.0051585.070618.0021229.105901.0040646,1.3642234.0750792,2.7277608.1676661,4.0928384.2213866,2.0001991.0787361,4.0082418.2592628,6.0003903.1553493,1.9318592-.100768,3.8659446-.057332,5.7912157-.1894715,1.5977829-.109661,3.2004843-.2416515,4.7879903-.432767,1.3682487-.1647147,2.748664-.2731071,4.1107-.5550296,1.2869656-.2663888,2.6217691-.2926536,3.9278647-.4784811,1.12515-.1600935,2.2369168-.4122237,3.3595818-.5926857.6857293-.1102111,1.3827709-.1481779,2.0712701-.2435803.7522313-.1042177,1.5053428-.2134321,2.2488245-.3656164.5438462-.1113049,1.0934651-.0528273,1.6488826-.2219497.6861435-.2089144,1.4459336-.1658992,2.1693017-.2652367.7175177-.0985221,1.4282015-.2455738,2.1439331-.3584903.6159138-.0971823,1.2329925-.1914196,1.8525305-.2603372,1.5459326-.1719573,3.0572033-.523205,4.5810549-.8184605,1.624187-.3147178,3.233127-.6773181,4.8308581-1.098519,1.593434-.4200682,3.1929255-.8194508,4.7765486-1.2740166,2.6381811-.7572839,5.2728416-1.5285675,7.8958533-2.3366011,2.426819-.7476078,4.8384687-1.5449037,7.2522669-2.3341934.6521547-.2132541,1.2878457-.4769181,1.9984518-.7426305,2.4621539-2.3114528,3.4516336-4.3630895,3.4026307-7.10584-.3620982-1.0218443-1.1388698-1.6929748-1.9871653-2.2359917-1.5464244-.9898483-3.2074477-1.7104566-5.0507626-2.0192911-1.5903018-.2664406-3.1756852-.4382167-4.7871878-.4093435-1.2012818.021527-2.4032625.0056827-3.6049325.0063558-.1767261.0000971-.3534522.0013689-.5301524-.0010712-1.2615452-.017443-1.5661239-.2259561-2.0239757-1.3834866.0860721-1.1455147.8988516-1.5241728,1.848544-1.8016164,2.2815708-.6665384,4.6258383-.7839047,6.9579651-.5932423,2.1947221.1794231,4.3383186.6897903,6.3765318,1.6215428,1.1768192.5379685,2.2774548,1.1643977,3.3325305,1.901818,1.6381656,1.1449289,2.7494665,2.6645484,3.2170774,4.598.2397593.9913952.1094992,2.0218962-.2001273,2.9967448-.4390065,1.3822601-.9319343,2.7501193-1.8492947,3.9057761-1.0100334,1.2724341-2.1189786,2.4119133-3.7784228,2.8419198-.3619429.0937875-.6671429.1635238-.9270677-.0198216-1.6529467.6921333-3.2655884,1.3858199-4.8927006,2.0437792-1.7841129.7214401-3.5691317,1.4438186-5.3759728,2.1051176-2.9639607,1.0848235-5.9327622,2.1599125-8.9257674,3.1605955-1.4957648.5000923-3.0373485.8831516-4.5804854,1.2159079-1.6156445.3484129-3.2185271.7642287-4.8664777.9713956-.9528246.1197902-1.8864157.3884832-2.8316297.5751197-.5434579.1073115-1.0970892.1025543-1.6506687.2088691-1.2924794.248208-2.6198018.30954-3.928926.478054-1.4412741.1855363-2.8752482.4292201-4.3176872.603734-.9694695.1172983-1.9487759.1507021-2.9224131.2364154-.6229549.0548531-1.2425187.1487151-1.8655513.2028886-.5884225.0511704-1.196208-.0858557-1.7607634.1960085-.057623.0287696-.1395274.0092231-.2101454.0116826-.9425995.0328407-1.8801512.0831891-2.8228284.1769928-1.8486734.183957-3.7208775.1230911-5.5729938.2831522-1.5770221.1362817-3.162975.0726844-4.7278046.2257037-3.4158198.3340248-6.8318209.1592585-10.2443014.1157967-1.1432058-.0145693-2.3059298-.0967875-3.4570568-.1799442-1.3871069-.1002049-2.776453-.2199433-4.151911-.4200617-2.4877296-.361953-4.9980321-.7057382-7.375706-1.5227942-1.8803453-.6461602-3.7888291-1.3083201-5.4528294-2.4684169-.1414948-.0986515-.3266727-.1570903-.4301146-.2842266-.6594158-.810383-1.3598098-1.5971161-1.9249734-2.4704363-.2844262-.4394852-.3747049-1.0365333-.4451545-1.5763787-.1789005-1.3708882-.0015661-2.7686043.4768135-4.0120391.6916443-1.7977459,1.8014049-3.3624227,3.5375116-4.4078749,3.2416306-1.9520596,6.762562-3.245079,10.3313054-4.4034089,1.7287808-.5611168,3.5390906-.8717441,5.3144409-1.2874241.1690249-.0395719.3527274-.0119253.5284309-.0282518.5839442-.0542706,1.1673448-.1143793,1.8412181-.1811998-1.6304644-2.750951-3.3036025-5.3578114-5.0326551-7.9298926-.2318381-.3448595-.4501506-.7031233-.6332577-1.075568-.4766841-.9695154-.3055236-1.4816365.6567237-2.0710796.0598622-.0366691.118896-.0746779.2355399-.1480776.3975884-1.0333036,1.2868361-1.5153575,2.3593851-1.7359383,1.3833404-.284492,2.7692177-.5566282,4.1544608-.8318195.0683529-.0135757.1416501-.0000971.2115432-.0084626,2.0991756-.2513212,4.2063371-.2577677,6.2902656-.2145647.2162286.0879559.4100009.1628798.6006927.2449427,2.1058542.9062094,2.9236298,2.6335135,3.0464605,4.7976201.0200101.3523772-.0120113.7076863.0076624,1.0600991.082914,1.4845815-.2623322,2.8911744-.7420062,4.2784571-.7747136,2.2405806-1.5396681,4.4845495-2.3045967,6.7284925-.4210414,1.2351146-.6979088,2.5149919-1.1879374,3.7308901-.1582432.3926772-.3931101.6207239-.7434688.8202954-.3126553.1780801-.5788446.2280402-.9540025-.0465265Zm-.645709-3.0494588c.3037374-1.6018086.5475221-3.0164369.8449174-4.4196966.2991038-1.4111624.632274-2.8158881.9860368-4.2144456.3505788-1.3860529.7454879-2.7608893,1.1437882-4.2245165-1.0431291.5925401-2.0567349.8812585-3.1521156.8786145-.2388015-.0005793-.4772277.0933183-.716767.0982955-1.0868512.022595-2.1878751.1385179-3.2562823.0032912-.7340979-.0929105-1.4445617-.0491025-2.2148616-.1548606,2.120027,4.0078094,4.1886826,7.918524,6.3652842,12.033318Zm3.0917357-15.0428619c-.1694391-.7050844-.6561024-.9869389-1.3456111-.9967478-.1761566-.0025048-.3860819.0512707-.5220629-.0250059-.4103762-.2301793-.7737429-.1964033-1.19006-.0013074-.2034408.0953344-.4858608.0201678-.7324412.0258279-.281747.0064691-.5680629-.012346-.8442185.0314135-.7463292.1182595-1.4896298.2570719-2.2316619.4005153-.7776647.1503299-1.552443.3155236-2.5652592.5226355,3.3147078.5118008,6.3733996.4154211,9.4313148.0426689Z" stroke-width="0"/>
      <path d="m147.197518,108.8175251v-2.0061102c.134829-.2149725.3160852-.5039692.4768135-.7602547.7554153-.0462255.9555427.5066941,1.1606273.9636158.2083333.4641449.3286919.9781333.4184528,1.4826009.1211999.6810203.1663715,1.3752053.2625005,2.0611834.1103794.7875939.2404971,1.5724565.3630172,2.3583417.0105875.0679596.0365386.13412.0421171.2021961.076753.9390468.1620226,1.8775888.2235415,2.8176582.0822409,1.2568131.1592787,2.5142605.213187,3.7725235.052847,1.2332408-.0136939,2.4659251.1632005,3.7014701.1100817.7687982.0558239,1.5712785.0474108,2.3591702-.0090473.848188.0005307,1.6965573-.0010225,2.5448488-.0014755.8129267.0650653,1.6337885-.0235436,2.4373432-.3071415,2.7857884-.1325769,5.5783857-.1802337,8.3672809-.0245403,1.4356829-.3598073,2.8540717-.2190114,4.2969647-.3242006.8086679-.0273748,1.7004148-.2496091,2.4801642-.2914544,1.0225919.0728442,2.0946583-.3795456,3.0726298.1423361.8468288-.1651031,1.6541246-.2374813,2.4821318-.0674986.772125-.0877159,1.595511-.6781187,2.2839745-.197008.0141485-.4016137.0288278-.6528148.0468598-.1606895-.2056135-.3271516-.4186184-.5095857-.652063-.9024627.1076998-1.4576213-.3968195-1.9716077-1.0926615-1.2812576-1.7346276-2.3552045-3.5974077-3.4408908-5.4512559-1.118329-1.9095881-2.1507023-3.8693368-3.2517522-5.7892936-1.1024865-1.9224033-2.2538853-3.8166908-3.3637236-5.7349518-.7275358-1.2574604-1.4155431-2.5377293-2.1280906-3.8039402-.8984762-1.5965854-1.8006283-3.1911126-2.7073623-4.783025-.7706883-1.3530828-1.5525983-2.6997709-2.3250987-4.0518311-1.3064062-2.2865375-2.6682481-4.5390434-4.163767-6.7074736-1.5580603-2.2591077-3.1040835-4.5275226-4.7130235-6.7501134-.778493-1.0753933-1.6889805-2.0552159-2.5446278-3.0842477-2.4542586.9789035-4.5259558,2.4372461-6.3594727,4.2906024-1.4122943,1.4275666-2.663582,2.9823018-3.857648,4.581269-.9139886,1.2239077-1.4489041,2.6711761-2.0435329,4.0711575-.8355012,1.9670754-1.6349298,3.9494256-2.4650208,5.9188441-1.0180841,2.4154278-2.0044898,4.8458844-3.0934442,7.2292482-.9211397,2.0160452-1.8054691,4.0798046-3.0014571,5.9316593-1.538445,2.3820823-3.6417947,4.2317753-6.4422249,5.1052702-1.0263742.3201481-2.0701893.6207109-3.1550602.542292-1.6917115-.1222756-3.36362-.3759915-4.9203084-1.1139037-1.4409246-.6830396-2.869825-1.3904023-4.1834988-2.3019417-.2869048-.1990894-.5300553-.4670963-.7728563-.7228316-.7390487-.7783902-.7774123-1.2202832-.1898246-2.2885828.2644679-.1357639.5724312-.2938575.914351-.4693745.8637756.1436343,1.4710822.803011,2.1902696,1.2404899,1.7177791,1.0449603,3.4679938,1.9951395,5.4245938,2.5298071.6613379.1807079,1.2917804.3985024,1.9939411.2230112.2663576-.0665875.5630798-.0213587.8454934-.0123751,1.42217.0452029,2.6383752-.5472628,3.7777692-1.2914402,1.34233-.8766922,2.3055933-2.1016744,3.0885905-3.5016169,1.2204053-2.1819832,1.993954-4.551082,2.9655786-6.8367652.5928167-1.3945576,1.1095535-2.821464,1.7009077-4.2166947,1.2901302-3.0439185,2.5914239-6.0805362,3.644448-9.2204785.4610423-1.3747263,1.1538968-2.6649756,1.9337553-3.8944625.2237616-.3527558.5082331-.6735641.7993315-.9758097.9207579-.9560432,1.673261-2.0552676,2.7322003-2.9020706.9533553-.7623582,1.8554297-1.578547,2.8952843-2.2361762.9413699-.5953458,1.9041996-1.1231721,2.9604531-1.4788017.0943946-.0317792.1680153-.1252205.2983013-.2265968,0-1.5492855.0748763-3.1362465-.0358914-4.7101464-.0459871-.6535387-.1733738-1.3156921-.1473969-1.9748876.0947181-2.4030268-.4373886-4.7031627-1.3384017-6.8843369-1.1320099-2.7403849-2.0392487-5.5519527-2.887363-8.3799602-1.4209015-4.7380357-3.1017926-9.3882676-4.6075172-14.0966988-.4421388-1.3825902-.9238707-2.7762741-.6636741-4.366756.2454284-.1865524.5473668-.4160554.8098737-.6155913.7214266.2098723,1.0256106.6982885,1.265564,1.3174008,1.0698892,2.7604621,1.7965965,5.6303328,2.7335787,8.432891,1.2300286,3.6791016,2.3810002,7.3847981,3.6270265,11.05834.7393658,2.1797503,1.5690361,4.3302973,2.4090222,6.474016.6534231,1.6675417,1.1990167,3.3706361,1.5671982,5.1137683.2065342.9778421.3273199,1.9976702.2652056,3.0237572-.0846872,1.3988617.115466,2.8095484-.191559,4.2025332-.0661137.2999738-.0096427.6269826-.0096427.9257267,1.7165883,1.391315,3.2026328,2.9628459,4.5196266,4.7119198,1.1766897,1.562735,2.4804685,3.0298217,3.6556698,4.5936182,1.0635276,1.4152044,2.0800067,2.8718447,3.0260621,4.3678758,1.4612066,2.3107182,2.8414536,4.672555,4.2624975,7.0087872.7562437,1.2433118,1.5399011,2.4700932,2.2861656,3.7193078.9049996,1.5149303,1.7943638,3.0395044,2.671225,4.5709262,1.5994008,2.7932834,3.1943104,5.5892722,4.7693651,8.3963287.4219474.752009.7653039,1.5481205,1.1535473,2.3419537.2479783-.2158916.1384531-.4597825.0837941-.7019389-.2645455-1.1722454-.5328575-2.3437531-.7848611-3.5187169-.3319406-1.5477969-.6539797-3.0977814-.9726147-4.6483872-.2494279-1.2138497-.4790398-2.4318028-.73226-3.644837-.2813587-1.347879-.5593522-2.6970137-.875528-4.0369447-.3946373-1.6723636-.7764092-3.3505136-1.2555525-4.9994861-.585122-2.0137281-1.2537146-4.003651-1.9111242-5.9956579-.2372354-.7188447-.5788316-1.4034377-.8116405-2.1234473-.1565865-.4842998-.2058223-1.0033302-.3016406-1.499306.3213143-.3064526.5742239-.547664.8183321-.7804743.615422.1664946,1.0102405.51116,1.2729093,1.0495945,1.0166345,2.0838754,1.8043948,4.2524868,2.4356592,6.4800871.3561702,1.2569037.7231998,2.5113998,1.0439316,3.7774813.3124482,1.2334091.5953601,2.4754394.8498229,3.7221557.4477302,2.1937111.8207654,4.4034996,1.308283,6.5879682.330724,1.4818178.5308901,2.982949.8214255,4.469401.3431365,1.7556239.7824019,3.4980313,1.0145118,5.2678943.1711993,1.3055111.5280685,2.5690554.6906736,3.8719905.0718605.5758187.2549676,1.1377608.4100656,1.802406-.0577395.1688506-.1457272.4261393-.2370413.6931624.3288472.638018.6505498,1.2621852.9812737,1.9038406.054426-.0663286.0956112-.0929947.0965949-.1210717.0790698-2.2461371.0780344-4.4986172.2592129-6.7363532.113421-1.4007193.0224046-2.8185126.2282658-4.1906888.1955843-1.3037635.0583349-2.5920581.1718983-3.8797444.4409739-4.9998227.118443-10.008642.1876631-15.0126458.0203078-1.4684718-.0470743-2.9500307-.2350869-4.404807-.1036878-.8023638-.0611177-1.6123003-.1996096-2.394082-.2417267-1.3646812-.1853721-2.7685072-.581032-4.1113249-.077206-.2620394-.0062904-.5646345-.0427254-.8434244-.0133574-.1021854-.139851-.1896009-.2147402-.2837606l.0300799.0328795Zm-3.3019329,34.5773703c-.020502.0228733-.0404604.0451252-.0604317.0673642l.1202938.010058c-.0186123-.0240771-.0372246-.0481543-.0598622-.0774222Z" stroke-width="0"/>
      <path d="m147.167438,108.7846456v1.5146196c-.2212506.6832338-.7133242,1.1463172-1.56703,1.4892869-2.4578697-.0374619-4.8862549-.8581037-7.421939-1.8735759-.1270243.0643222-.4028304.2039825-.708794.3589304-.3191657,0-.6718413,0-1.0245298.0003236-.7345639-.1668571-1.1373684-.7839047-1.6669254-1.2428199-.1424267.2798772-.2794302.5491138-.3855254.7575881-1.5137947,1.0425655-2.9755837,2.0415204-4.426151,3.0565396-.2230756.1560871-.5364427.3679529-.5641411.5851389-.0980963.7689536-.6827265.8874104-1.2878198,1.1435988-.6462397-.4893741-1.2482914-1.0343327-1.6854212-1.7099939-1.4482763-2.2386163-2.8432398-4.5120084-4.001602-6.9177795-.2497903-.5187521-.5529194-1.052287-.4421129-1.743074.2625911-.2515866.5619408-.5383892.910837-.87266-.143721-.1698926-.3529215-.4172139-.5372452-.6351184.0381565-.6945669.6110084-.8857276.9202078-1.2492016,1.5283816-.2875987,2.9410772.1068067,4.2923833.6367235,1.9322086.7577305,3.8258725,1.6189085,5.60939,2.6966254.2362517.1427541.4613206.3040255.714049.4716269.3324972-.1927659.6473787-.3753119.9687188-.561599.5251434.6395972.754807,1.2827155.8979715,2.0168478.1561076.8004674.4667567,1.5954463,1.1987449,2.1068005.7084057-.2353863.3063778-.9705801.680565-1.2812074-.3206153-1.3431413-.3263362-2.7448508-1.2981485-3.7539737-.3529086-.0732993-.6447642-.1339128-.9538083-.1980991q.254644-.6425486.8585854-.9195715c1.6999175.6880557,3.0265021,3.0760019,3.1108269,5.6615295.8892348.1590191,1.7896914.339947,2.6968136.4766689.9092838.1370455,1.8251945.2299625,2.8107524.3511377-.6221654-2.7379384-.6934564-5.5466712-1.5816946-8.3346408-1.3036752,1.2043289-2.0002509,2.865696-3.7250452,3.5268915h-.8402708c-.4966166-.1763067-1.0651325-1.1096126-.7842269-1.6653929.3298309-.6526455.8375398-1.1084346,1.4079842-1.5241857.2154391-.1570126.4141686-.3369698.6626775-.541127-1.6595995-.234752-2.906053-1.1007519-4.071521-2.1021468-.8292044-.7124629-1.6133018-1.5041021-1.7712215-2.6384778-.1140164-.8189783-.077439-1.6645321-.0446928-2.4957367.0140433-.3564256.188815-.7065148.3082934-1.1210427-.1779816-.0691635-.3562091-.1666111-.546642-.2080277-1.7575405-.3822309-3.525798-.7315628-5.0926079-1.685742-.8161835-.4970438-1.4499978-1.1125316-1.3082312-2.2088046.559844-.7841895,1.2700489-.938076,2.1836298-.5780517,1.3768689.5426027,2.7681176,1.0557756,4.1767619,1.5082961,1.0421325.3347821,2.1095689.6436295,3.1892625.7883318.6190979.082982,1.2964788-.1408965,1.9279892-.3030741,1.7336733-.4452197,3.2520628-1.3447464,4.6883538-2.3765225.8207007-.5895595,1.6011223-1.2404963,2.3624397-1.9063907,1.8006542-1.5749613,2.6652711-3.6937421,3.2847055-5.920268.2958939-1.0635359.3476019-2.1812713.4829098-3.2807352.3439648-2.7947979.4782502-5.5948255.3364707-8.395921-.0591244-1.1681679-.1972669-2.350892-.3290155-3.5228527-.1596152-1.4199292-.6285981-2.7753809-.7193686-4.1992841-.0101992-.1601258-.1349067-.3129574-.2333784-.5277681.2378696-.3703671.4762699-.7415626.7366219-1.1469256.597418.2021702.9603575-.20806,1.355875-.451006,1.5136135-.9296943,3.0297638-1.8641069,4.2714283-3.1640258.146219-.153058.3328466-.2864272.4259598-.467407.2047998-.3980461.3272422-.7675426.1199314-1.2734309-.5011467-1.2228495-1.3751604-2.1071144-2.3871353-2.8651135-1.2582447-.9424739-2.7369245-1.4713617-4.2242763-1.8969767-1.3880776-.3972046-1.913674-1.360636-2.1589083-2.6332449-.2542816-1.3195399-.1018239-2.6644966-.244626-3.9821336-.3010582-2.777876-.0731936-5.5592373-.1943806-8.3355081-.0302741-.6937093-.14121-1.3835352-.1889186-2.0769468-.0453399-.6593282-.0782544-1.31443-.1630452-1.9748326-.1294447-1.0080356-.033937-2.0449669-.033937-3.1170868.1477593-.2188349.3213272-.47591.5246386-.7770149h.6235503c.390159.4443088.6733556.9599266.7579652,1.620601.1578938,1.2328379.4288203,2.4510953.590364,3.6835918.126856.9677776.1557711,1.9481859.2352033,2.9224132.3355259,4.1151274.1607154,8.2398468.2066636,12.4029505,1.6149456.5279299,3.1327785,1.2471855,4.6405029,2.0006184,2.1515954,1.0751797,3.6975151,2.7002369,4.6944371,4.8711719.0579078.1261137.108412.2556285.2009169.474999-.00774.6656484.1673293,1.4464561-.1955584,2.1774235-.1827317.3681017-.3535816.7621252-.6198097,1.0653935-1.4076607,1.6035755-3.2230313,2.6286657-5.1271791,3.5143222-.4037752.1878016-.8276512.3323614-1.1845074.4739311.3356294,1.4608991.7105931,2.8539875.9616519,4.2690754.169905.957726.2125657,1.9455678.2291459,2.9213582.0330439,1.9430372.0356455,3.8875435-.0012167,5.8304642-.0238672,1.2587742-.0380659,2.532176-.2369377,3.7700446-.3594319,2.2371276-.8595691,4.4531619-1.8076565,6.5321442-.9653795,2.1169815-2.4296407,3.8038949-4.4021155,5.0563781-1.6709119,1.0610182-3.4031744,1.9858129-5.300773,2.5729453-.4595085.142178-.9248027.3535907-1.3919994.366393-1.3602757.0372613-2.6427112.7153496-4.0320573.4670445-.0513715-.0091843-.116605.059209-.1705781.08882.1424137.6326136.2158662,1.2894143.4419835,1.8885853.3710031.9831559.9140857,1.897077,1.7106345,2.5944335.8346276.7307149,1.6922422,1.4547051,2.7827822,1.8069367.5137663.165951,1.0223165.3480375,1.5069477.5138201.5815885-.2739291,1.1696357-.5508937,1.6788978-.7907589,1.2549701.6037858,1.3932937,1.6998193,1.5944307,2.7620737.1538814.8126807.2548252,1.6401896.4754027,2.4344047.4143369,1.4917593.8768741,2.9713959,1.3724682,4.4381331.0902398.2670814-.1419348.6733505.2950785.8121824l-.0300799-.0328795Zm-19.0355763,2.1788377c.8379151-.4790054,1.5453372-.9204582,2.2858808-1.2967346.800147-.406554,1.6186473-.7844225,2.4540515-1.1110688.4295839-.1679574.9133997-.1972447,1.3692324-.2885048-.1242545-.8859995-.6200039-1.3868814-1.4209662-1.6539951-.4891872-.1631355-.9574194-.3931562-1.4268424-.6108536-2.0643196-.9573247-4.2119156-1.6804152-6.4076731-2.2608876-.337998-.0893443-.7178284-.0934413-1.0550757.0347371.3557431.4563004.7201193.8429001.9899327,1.2869678.5211957.8578253.9984493,1.7429769,1.4765442,2.6262127.576243,1.0645327,1.1344432,2.1388645,1.7349159,3.2741269Z" stroke-width="0"/>
      <path d="m27.4371307,104.7781338h1.05438c.1663618.1480938.3485014.310239.5175295.4607081.2191312.7066637-.2010107,1.1453334-.5888076,1.5627739v.8907437c-.6375516,1.389082-1.2233822,2.7920925-.2608146,4.3281356.9940842.6608654,2.1085044.7764744,3.2628542.458268.9924469-.2735731,1.9632625-.6247367,2.9479047-.927759,1.1293469-.3475391,2.2637707-.3382319,3.3948972-.0003495.4922127.1470388.9820147.3021421,1.5351897.4728049,1.4088385-1.4587115,2.8919708-2.8450363,4.496468-4.0641544,1.175211.5014385,1.4086185,1.0152004.9972456,2.2159501-.5124526,1.495798-1.0550304,2.9813309-1.5630596,4.4785917-.2091293.6163486-.3621467,1.2517388-.5379862,1.8689806.1205268.309184.2408919.6179667.3797656.9742175.5972207,0,1.1571876.0046471,1.7170575-.0008673,1.8018871-.0177342,3.3716933.6820041,4.8364755,1.6324422.6593899.427848,1.0502608,1.1359874,1.2398427,1.8856792.1961182.7755554-.2244184,1.415295-.6973264,1.993405-.9237834,1.1292561-2.2008345,1.7012044-3.5450801,2.0918105-.8541556.2481756-1.7754183.4756916-2.6449018.4127674-1.3956785-.1010204-2.7950717-.3212355-4.0636677-1.0556914-1.6787231-.9718875-2.7915706-2.3842182-3.5092437-4.1954783-.3723654-.0117149-.7161393.0324782-1.1010919.1400616-.8595658.2402017-1.7593008.3371186-2.6430833.4900084-1.1902315.2059242-2.3747551.5147716-3.5730503.5843364-1.1788577.0684256-2.3646578.0945998-3.5671805-.094095-1.1773612-.1847337-2.3134466-.4349287-3.374633-.9342702-1.4805065-.6966575-2.728395-1.6716387-3.3227099-3.2903855-.5049277-1.37527-.3199099-2.6956157.2340918-4.0132947.4801529-1.1420196,1.2342998-2.0900889,2.0143751-3.026249.0451134-.0541476.0979992-.10181.1472723-.1524885,1.8606847-1.913808,3.6831061-3.8726571,6.2172871-5.1866017Zm10.1520425,9.606761c-.6578788.1026126-1.2360698.1430777-1.785954.2897022-.9263623.2470106-1.8293007.5808025-2.7525081.8411332-.6934175.1955425-1.3963516.4255179-2.1070288.4780475-1.6850329.1245279-3.1953005-.3332223-4.5567541-1.4093922-.8417204-.6653442-1.3917228-1.422557-1.5664265-2.4623912-.1123856-.668917-.2062414-1.3409536-.3162422-2.0630603-.7586139.9950456-1.4979005,1.9446682-2.03832,3.047776-.4402038.8985429-.6905361,1.8023931-.6006474,2.6834088.4816964,1.3375751,1.5024775,1.9304808,2.6299605,2.3238959,1.1745832.4098548,2.3989443.660244,3.6567295.6616032,1.4465517.0015663,2.893113-.0036633,4.3396679-.0068219.1763346-.0003754.3617293.0284395.527499-.0150806,1.0388029-.2726411,2.1173543-.2668678,3.2284577-.4832124.1140876-1.3615486.6980544-2.6002133,1.3415664-3.8856083Zm11.3808188,7.186479v-.7933931c-.3059054-.3467754-.5853-.6635061-.7420871-.8412497-.5684221-.1409289-.9315137-.2938704-1.3005365-.3098959-.8801487-.038161-1.7763372-.1061076-2.6412001.0151841-.8679206.1217319-1.8023789.2719809-2.2375543,1.262923-.1086935.2475025-.3546656.4347087-.5024637.6084005h-1.2486926c-.2735896-.4268771-.565073-.8816759-.7917533-1.2353638.0788077-.3034754.1169642-.4711868.1666563-.6354032.0421883-.1394273.0976789-.2748158.1884882-.5259428-.6589046.2367843-1.2433083.2824532-1.6933683.6456036.7986261,2.6579725,2.7759385,3.6912308,5.0222165,3.8820485,1.3425824.1140427,2.6113531-.2534959,3.837489-.7321906.7029373-.2744275,1.4435747-.5514439,1.9428059-1.3407206Zm-9.2358308-4.0606594v-2.9671435c-.7032641,1.1679866-1.2744528,2.1668509-1.5354583,3.3264364.5252663-.1229099.9788469-.2290434,1.5354583-.3592929Z" stroke-width="0"/>
      <path d="m241.9827424,28.8351189c.0840789.2583728.1368093.5324605.2571032.772714,1.3175632,2.6312935,2.6330556,5.2637617,3.9763498,7.8819455.6300219,1.2280435,1.3190388,2.4258224,1.9659385,3.6092262.6663922-2.3517108,1.3480832-4.6907779,1.9893139-7.0408771.552337-2.0242198,1.2037669-4.0144533,1.9915919-5.9567688.3634443-.8959992.7853917-1.7757432,1.2671366-2.6131612.2487678-.4323673.6864541-.756038,1.0736621-1.0879124.3460228-.4908692.6910619-.9824358,1.0445658-1.4678553.0075847-.0104156.1123209.0499536.2244864.1015754-.2704347.4731706-.5395491.9440063-.8009235,1.4013228.3419327.3045401.6663922.593519.9435832.8404018.2272562,1.3875934-.0149623,2.6608592-.4175985,3.8814887-.6671947,2.0224755-1.4430085,4.0089227-2.1614581,6.0147157-.7069302,1.9735931-1.4177952,3.9461247-2.0909178,5.9313325-.3744719,1.1043926-.6678677,2.2360888-1.0160132,3.3497887-.0702555.2247943-.2224931.4239484-.2633677.4993383.0244108.7061427.0529376,1.2958284.0629815,1.8858313.0102251.6002292.0022521,1.2007691.0022521,1.8246029.3273846.2246292.6906477.131997,1.0189642.0925546.6845903-.0822441,1.3591108-.2471854,2.0433387-.3344197.4143886-.0528305.8472342-.0789173,1.2575587-.0191743.7066196.1028844.9069281.2362212,1.7600386.8623042-.1725066.6349728-.60996,1.0546559-1.1884163,1.3100482-.6279251.2772171-1.2671884.5612074-1.9308625.7178641-1.1732727.2769614-2.3823722.405088-3.5514514.6961202-1.3695689.340947-2.747292.4460191-4.1467855.4107707-.3175737-.0079998-.6355098-.001178-.9005083-.001178-.9387942-.2993104-1.6025978-.7916618-1.6947791-1.9161025.0819044-.4445822.3672237-.9012969.8609281-1.1855461,1.0418478-.4783129,2.1076922-.2952425,3.2709728-.0147731-.1735938-1.603239-.3326137-3.0720473-.5181411-4.7857887-.4211191-.5835597-1.0028629-1.3626748-1.5562612-2.1614529-1.9378519-2.7971182-3.7895281-5.6467369-5.1797802-8.7672201-.6598688-1.481109-1.1715384-3.0103691-1.4251987-4.618019-.0108723-.0687493-.0136421-.1391166-.0288633-.2067753-.3122411-1.387904-.1707981-1.7433879,1.0459896-2.5455042.0737761-1.3564468,1.0466109-1.8902649,2.2072511-2.2265793,1.4560811-.4219209,2.9602331-.5648627,4.4487756-.398038,1.5637165.1752517,3.1696536.2498908,4.617244,1.0186923.9189135.4880392,1.4023928.928505,1.8976245,1.865115-.1369129.6838325-.611099,1.0479311-1.2062261,1.328339-1.6787813.7909725-3.4160916,1.3226304-5.294612,1.2709358-1.0120526-.0278473-2.0310945.0982567-3.0317571-.1931186-.2593812-.0755161-.5599217-.0094852-.8415651-.0084723-.0291221-.0581832-.0582702-.1163695-.0196736-.0393195-.0753293-.0422191-.0189229-.0105952.0375093.0210287Zm8.1833988-2.109815c-.2371966-.1946445-.333209-.3373096-.4539947-.3627993-1.3434496-.2835341-2.6603657-.71739-4.0567528-.7117024-.2681049.0010938-.5346825-.122473-.8052983-.1417557-.8147469-.0580602-1.6486755-.2457695-2.4605231.2835648,2.5483037.5928944,5.0675629.921743,7.776569.9326926Z" stroke-width="0"/>
      <path d="m226.9487551,48.2472935c-.5160961-.1519739-.937034-.2759291-1.3519921-.3981172-.6972487-1.4699054-1.3991829-2.8609-2.0221378-4.2863954-.7032285-1.6091159-1.3117129-3.2594379-2.0040174-4.8735569-1.0866311-2.533587-1.9068659-5.1550004-2.647526-7.8041479-.1826541-.6533089.0235566-1.5787865.5091844-2.4869861.7294772-.6073067,1.645362-.6856092,2.5253943-.8122471,1.5142736-.2179012,3.0282883-.4729279,4.5677752-.4463492,1.0666987-.4360468,2.2263811.0035533,3.3156009-.3595226.3224144-.1074846.7423945.1170864,1.1191962.1260166,1.0450836.0247761,2.0848863-.0229412,3.0878528.4155861.3248736.1420389.7641649.0222908,1.1451084.0222908.6881885.4406147.9510126,1.1153762.8032015,1.8183215-.2054599.9770816-.3187386,1.9680722-.5613713,2.9438075-.5489717,2.2073516-1.252485,4.3568825-2.0619769,6.4762134-.8716968,2.2822075-1.7901444,4.5473733-2.6112334,6.8474736-.1970986.5520976-.618839.7150616-.9399332.9711529-.6615773,1.2877445-.4705879,2.6768103-.7630777,4.0955971,1.2699324-.1411781,2.5115192.1162692,3.771097-.1768795.5047579-.1174698,1.0892457.1078196,1.7095343.1861997.2749389.3586877.565772.7380999.8054019,1.0507174-.3658776,1.3130966-1.2856713,1.714764-2.4353874,1.9046756-1.7663289.2917637-3.5167636.6787905-5.2756891,1.0164464-.813582.1561907-1.626698.3414292-2.4488483.415447-.4315772.0388535-.8821808-.1338416-1.4680923-.2361371-.2083074-.2221309-.4975097-.5305576-.7955133-.8483692v-1.2556384c.7078621-1.2516935,1.9284292-1.4981766,3.1974815-1.6601341.4029469-.0514228.8011824-.1398124,1.3213168-.232655-.6185801-.8108102.00774-1.7538537-.4913487-2.4128097Zm.0851402-2.8188071c.464194-.6384355.5985959-1.4102369,1.3194012-1.6237337.2687262-.9768874.4921771-1.9146753.7849258-2.8303052.9740773-3.0469443,1.9575773-6.0915198,3.3801355-8.9706135.0808431-.1636144.0749151-.3701114.1169286-.5977438-1.1127246.5376966-2.2201942.7800763-3.3217618,1.0709306-1.1557736.3051614-2.3107706.2109402-3.452229.1494885-1.1141224-.0599825-2.2148358-.3696066-3.3192249-.5692364.4057685,1.0775906.8367761,2.1198066,1.1918333,3.187281.6603866,1.9853048,1.2709678,3.9871271,1.9129233,5.9786356.4428895,1.3739496.9037441,2.7421162,1.3870681,4.2052969Zm-2.5790567-15.6656343c2.0839544.4223627,4.1686336.5757249,6.2495852-.0116858-2.0824789-.0771504-4.1650613-.0765128-6.2495852.0116858Z" stroke-width="0"/>
      <path d="m189.9414925,57.0160831c-.2208105-.3071193-.3636514-.505788-.5103752-.7098805-.1386473-.503322-.0097203-.9569364.2916744-1.3743639.4463065-.4283463.9902822-.4799504,1.7006423-.38537.4906627.2861295,1.0718889.6745091,1.6942355.9787288,1.8850178.9214679,3.8017723,1.7622516,5.8798376,2.1711615,1.6829361.3311641,3.3554529.7165405,5.0414565,1.0302228.7490473.1393496,1.5199686.1608896,2.2808589.2367066,4.7850005.4767854,9.582271.1039912,14.3727982.204675,1.5489354.0325559,3.0805528-.1741191,4.6115749-.3988713.8956676-.1314728,1.8070482-.1525791,2.7093426-.2433861.4114117-.0414101.8164554-.1424046,1.2270387-.1961703.4109199-.0538111.8467683.0787037,1.2304298-.1923322.0726889-.0513386.2072979-.0121098.3129659-.0200125,1.0106806-.0755646,2.030758-.0897326,3.0299191-.2416968,2.0754378-.3156757,4.154189-.5936048,6.1807793-1.2127041,1.9678541-.6011645,3.9829509-1.0573742,5.992715-1.5085227,1.5468127-.3472284,3.1277954-.5421043,4.6751-.8874428,1.9756459-.4409286,3.9101067-1.0484521,5.8192506-1.7174209,1.9754129-.6921851,3.916863-1.4806204,5.8834746-2.1987337,2.5159199-.9187075,5.0420648-1.8093832,7.5640421-2.7115409.2266091-.0810597.4522604-.1662713.6827524-.2348232.8671149-.2578842,1.4117119.1205442,1.4862904,1.0354103.0112606.1383626-.0199325.2801782-.0312189.417188-.4496458.6771142-1.1405524,1.0518113-1.8318732,1.3689077-1.376843.6315424-2.7988835,1.1637408-4.1864952,1.772863-2.5501934,1.1194894-5.1208111,2.1827599-7.7239938,3.1774754-2.1808211.833334-4.3580958,1.6694381-6.5754166,2.4002049-1.3093055.4315243-2.6522632.7200873-4.0069993.9640883-1.162737.2094128-2.3327998.3342643-3.5080399.4573166-1.4191413.1485986-2.8568948.1887789-4.2532302.4348575-.8911375.157045-1.7952699.0574615-2.6819031.3259215-.7195628.2178656-1.5213147.1474271-2.2757463.2711913-.9217869.1512134-1.85719.1678862-2.7764142.3759268-.6708447.1518154-1.379121.1055381-2.0748424.2082866-1.241768.1833875-2.5112862.2328815-3.769725.2401499-5.1950013.0300123-10.3902098.0206533-15.5853017.0350801-.378549.001055-.756412.0818428-1.1354657.1157644-.3894989.0348601-.7493838-.1700156-1.1789677-.034297-.332989.105195-.7490473-.0714353-1.1298872-.0937843-.3875704-.0227503-.7858577.0410217-1.1642514-.0229509-.9195477-.1554722-1.8571253-.1427152-2.7716381-.3770724-.6332447-.1622876-1.3070534-.1650319-1.9622239-.2433408-1.2047117-.1439968-2.4300031-.1963063-3.6091779-.4567923-2.436863-.538318-4.8986156-1.0720406-7.9239917-2.7606175Z" stroke-width="0"/>
      <path d="m231.3643445,337.4304098c-1.2020842-.3032683-1.707541-1.0244688-2.1755144-1.8334086-1.0578455-1.8286967-2.1688357-3.6265591-3.2503414-5.4416639-.1768037-.2967182-.3134578-.6173583-.5015997-.9926508v-1.0310706c.1223389-.117253.3215343-.3081613.4663425-.4469284h.8251014c1.2696476.6801918,1.7929401,1.9366036,2.4705152,3.0546108.5003313.8255866.906048,1.7084405,1.3560821,2.5646542.0324874.061798.088609.1108583.1237108.1716466.8386917,1.4523686,1.1050622,1.5881066,2.6492863,1.1791579.6269155-.1660286,1.2276858-.430877,1.9192914-.6791044-.175147-.2837477-.3132766-.5074837-.4688276-.7594651-.0604446-1.3292387.0329533-1.4668925,1.2570668-1.8154931.1502185-.2329268.2798832-.4830959.456661-.693732.1557323-.1855751.3641173-.3269829.5518192-.4901637.6329212.0541347,1.2469194-.0721278,1.8775626.170611.5666521.2180922,1.1796667-.0747168,1.7175591-.2632433,2.526145-.8853911,4.9068345-2.0510347,7.0103849-3.7497667,1.135634-.9171315,2.2059309-1.9151672,3.4680714-2.6821661,1.7753892-1.078966,3.5778037-2.0768723,5.5954113-2.6311123.1318133-.0362192.2512788-.1452912.38128-.1548185.3160205-.0230933.6348367-.0075079.9808336-.0075079.6612667.197303,1.1157792.6263678,1.2847652,1.3784285-.0922848.5318197-.4053543.9339078-.9486051,1.1005577-1.6721544.5131017-3.1105033,1.481287-4.6037313,2.3399603-1.2877163.7404623-2.5479413,1.5230207-3.8664623,2.2163902-1.6219608.8529776-3.1825191,1.8280495-4.7377449,2.8013091-1.5648555.9792919-3.2067229,1.8044901-5.0124767,2.1517185-.8817407.1695496-1.8264888.5345899-2.7375587.0447886-.3028961.8317742-.5893544,1.6184231-.8616529,2.3661862-1.7011989,1.1523883-3.4128041,2.0950467-5.2272298,2.1322756Z" stroke-width="0"/>
      <path d="m44.7476248,338.6924137v.5939025c-.2236936.2268687-.4703225.4770119-.6714789.6810462-.8769194,0-1.6602079.0648788-2.4284952-.0148605-1.2314038-.12779-2.450518-.3246788-3.619458-.8021567-1.0929862-.4464883-1.8403251-1.1920767-2.41595-2.1968178-.656358-1.1456829-1.0543573-2.3876485-1.4401545-3.6306496-.4843756-1.5605603-.8537964-3.1567186-1.335221-4.7182886-.7762927-2.5180016-1.4878889-5.0517697-2.0807154-7.6193236-.2160572-.93572-.4059335-1.8846954-.7264162-2.7853612-.1201029-.3375199.1007594-.5204802.066117-.8169654-.0736531-.078885-.1675526-.1794911-.2865424-.3069445-.4238177.1340035-.8438366.2668419-1.264218.3997839-.0864183-.152825-.1364534-.344044-.2602063-.4438476-.9303294-.7504556-1.1477165-1.8741326-1.53087-2.905022-.1906529-.5129723-.2778187-1.0634324-.4436645-1.5868381-.2815156-.8884719-.2116678-1.7966456-.2099366-2.6314488.612691-1.4135086,1.8383286-1.9289922,3.0955507-2.3776552,1.7304796-.6175395,3.3960427-1.365665,4.9955632-2.343067h1.0706043c.1859481.1716207.3895086.3595259.5920046.5464214v.9456616c-.3227898.5196776-.7749239.8137034-1.2850532,1.0798203-1.7210149.8977921-3.5527748,1.5000568-5.3872981,2.0990595-.4726976.1543784-.9185252.3336365-1.1772528.8309716.2854876,1.1467962.5496513,2.3196371.8739586,3.4755981.2626461.9361602.7401553,1.7693323,1.4456748,2.4943904.264895-.1369807.5377565-.2780779.8126759-.4202365,1.3215627.3484711,1.5567822,1.4528605,1.7232702,2.5632044.2693054,1.7959984.5533109,3.5849031.9971776,5.3504038.3658129,1.455087.5975636,2.94339.9405545,4.404794.2875196,1.2251375.6834319,2.4248515.9693984,3.6502738.2677392,1.1472881.6865544,2.2267201,1.2031229,3.2795637.4008404.8169654,1.0843273,1.2959708,1.9136578,1.4853776,1.173153.2679034,2.3271922.6481925,3.5505356.6931365.3650719.0134107.7214816.21017,1.0862008.3064526.1992925.052659.4076776.070911.6119662.1046449l-.0279508-.0288926c.0776914.0777199.155386.1554399.2330839.2331339l-.0102736-.0097862c.0723944.0724126.144792.1447993.2171864.2172119,0,0-.00022-.0002071-.0002168-.0002071.0751416.0747944.1502832.1496148.2254215.2244351l-.0223529-.0209186Z" stroke-width="0"/>
      <path d="m44.132727,338.0774373c-.0364512-1.4293788-.1767164-2.8493857-.4404529-4.2537812-.0621175-.3308146-.2647235-.6326848-.3719609-.9580108-.5891635-1.7874031-1.5683793-3.3779175-2.4703275-5.0123661-1.0693973-1.9378722-1.8560348-3.9862662-2.2686017-6.1803398-.1377995-.732799-.2073205-1.4529899-.1787096-2.1837437.0695016-1.7751574.7317293-3.294476,1.9954457-4.5190439h1.0767231c.4680348.3740239.3453141.8120464.1971472,1.2512857-.322628.9564056-.5460401,1.9181704-.5568606,2.9469628-.014574,1.3856516.3581408,2.6582185.8313982,3.9322092.5355464,1.4417281,1.3623596,2.7227866,2.1650045,4.0111718,1.0293576,1.6523123,1.919932,3.366319,2.4339993,5.2408917.3578917,1.3050062.5746931,2.6483546.1377218,4.0043888-.1258626.3905673-.1339521.8176127-.2375331,1.2171894-.1158026.4466696-.3432076.8363048-.79341,1.1181625h-.9046857l.0223464.0209186c-.0751416-.0748203-.1502832-.1496148-.2254183-.2244351,0,0,.00022.0002071.0002265.0002071-.0723944-.0724126-.1447888-.1448252-.2171864-.2172119,0,0,.0102704.0097862.0102769.0097862-.0776882-.0777199-.1553828-.1554399-.2330839-.2331598-.0000065.0000259.0279411.0289184.0279411.0289184Z" stroke-width="0"/>
      <path d="m36.9236838,104.996116c-.730901.3806516-.9685668,1.1282335-1.3171458,1.7884063-.3701456.7010263-.8475902,1.2788903-1.6203752,1.5614082-.6626452-.161252-1.0885888-.5806536-1.3196794-1.2551497-.0953556-1.3201709.6002364-2.3621475,1.3690738-3.3584163,1.1259525-1.4590545,2.6284057-2.4500354,4.1985032-3.3759046,1.7949172-1.0584487,3.7982809-1.6599432,5.6104707-2.6671179.4910219-.2728935.8938782-.1093632,1.2525982.1715172.3760218.2944141.3947797.8085125.094689,1.3372903-.2047804.3608398-.4458923.7036023-.6951131,1.0361967-.9193309,1.2268397-1.8802742,2.4239519-2.7617948,3.6771081-.4751795.6755123-.8089515,1.4491324-1.2297794,2.1647992-.2301652.3914281-.2478974.7781702-.1404658,1.2049308.0920195.3655387.1369226.7429477.2017032,1.1096838-.2826368.2952814-.5242891.5477547-.7422683.7754777-1.8591962.1902352-2.2308821-.0299799-3.1747888-1.9542926.0726371-.6548332.1605018-1.4469707.2483633-2.2391082.0664276-.1043925.1328552-.2087785.1992828-.3131709-.0440715-.0183685-.0881462-.0367435-.1322177-.0551185-.0136874.130489-.0273716.2609715-.0410557.3914604Z" stroke-width="0"/>
      <path d="m221.1170532,82.3722047c-.5604653-.7838464-.697197-1.5512143-.4875434-2.3558499.3811247-1.4625755.8089224-2.9129376,1.2088147-4.3706977.2180925-.7950112.3927476-1.602883.6365452-2.3895773.172636-.5569454.392204-1.1071984.6638036-1.6219182.1172393-.2221374.4124989-.4809665.6375807-.4913482.7108391-.0327824,1.2053718-.4997169,1.7792721-.7849273,1.3646505-.6781918,2.8100923-1.1436571,4.2496061-1.5908444,2.327985-.7231941,4.6947477-1.3265073,7.0601643-1.9204681.5315761-.1334727,1.1252018-.0196047,1.7298033-.0196047.4579036.1718343.9228741.3932662,1.0502091.9298561-.136887.7245274-.7699117.8067844-1.2125941.9050476-2.9722702.6598363-5.7915781,1.7785231-8.6105235,2.8722719-1.6003716.6209375-3.184383,1.3286626-4.6228096,2.33031-.574418.4000039-.8626625.868796-1.0222777,1.4720186-.5226453,1.9752824-1.2568339,3.871039-2.1457451,5.7052955-.2222343.4585528-.57988.8514695-.9143057,1.3304361Z" stroke-width="0"/>
      <path d="m138.9492868,75.6957725c.4000864-.0786002.7639837-.1501002,1.1765862-.2311663.2090064.3853376.3853571.7104565.5517545,1.0172328-.6387844,1.0501511-1.5158915,1.4865491-2.6034416,1.3174072-.6305655-.098069-1.2571445-.3663672-1.8288703-.666095-.9847943-.5162796-1.9322216-1.1091595-2.7603646-1.8639127-.9079377-.8274636-1.8611247-1.6153358-2.6922447-2.5150178-2.087682-2.2598714-3.7662304-4.7916526-4.809256-7.7109526-.0340147-.0952082-.043049-.1993353-.0511773-.2386613-.5057804.1304501-.9945793.2565314-1.4831194.3825415-.2337278-.2618129-.4164336-.466462-.6206381-.6952076.1729337-.2879094.2800385-.6038699.4958271-.8005904.7489308-.6827484,1.5163574-1.3487399,2.3146665-1.9725705.539342-.4214598,1.1424033-.7613356,1.7175073-1.1380456.3769181.1991541.6737439.3559985.9404121.496895.1014227,1.2861717.012762,1.4202528-1.6342827,2.4831544.4672227.861877.8950204,1.7585429,1.4201379,2.5940452.7560755,1.2029956,1.5713141,2.3695648,2.3825534,3.5369107.9434538,1.3575811,2.0399735,2.574421,3.3666746,3.5760942.3905861.294906.7277687.6607942,1.1197268.9536031.9165708.6847483,1.8711557,1.3044496,2.9975483,1.4743357Z" stroke-width="0"/>
      <path d="m68.4324535,96.9711057c.1056875.3413774.1869447.6038311.3078922.9945019-.2286735.5690616-.4175209,1.2818417-.7792567,1.8921127-.952624,1.6071159-2.0040756,3.1545568-2.8406835,4.8317812-.3714238.744624-.8552266,1.1336314-1.7801134,1.5675764-.6136423-.0903475-1.0261218-.5008172-1.3900644-1.0120419-.0161725-.3326786-.0331151-.6811432-.054219-1.1151852-.3511224.3095982-.6498638.5730098-.9538018.8410037h-.908902c-.1489047-.1700544-.3785943-.4323527-.6142118-.701434v-1.2253834c.0452105-.1012534.1218988-.2557742.1845049-.4158029.9126425-2.3326853,2.7095238-3.8250466,4.7865472-5.0565075.3838233-.2275612.7817676-.4533878,1.108641-.750941,1.1502792-1.0471091,1.8284109-1.0285594,2.9336672.1503202Z" stroke-width="0"/>
      <path d="m62.9255476,86.4839632c-1.1944672-.6286913-1.7286255-1.6902661-2.1423928-2.8598191-.551981-1.5602108-.8617629-3.1755078-1.1983048-4.7884553-.2802391-1.3431089-.6787788-2.6623219-.937254-4.0089518-.2853581-1.4866461-.7570462-2.9465485-.7549688-4.5270372.2433252-.2314123.4961701-.4718793.7422327-.7058935h.5801518c.7916627.4465077,1.0407929,1.1925492,1.2075333,1.9311992.4010766,1.7767108.7473194,3.5663857,1.0858999,5.3564619.3073486,1.6249019.5490947,3.2624508.8706031,4.8843496.1929698.9734862.5178564,1.9206299.7157639,2.8933976.1021475.5020923.0655701,1.0342356.0676799,1.5528971.0003171.0775063-.1313603.1555434-.2369442.2718515Z" stroke-width="0"/>
      <path d="m75.9389891,94.7634273c-.1906465-.200578-.4088295-.4301392-.6204116-.6527491v-.642238c.3501711-.5530102.979274-.8842908,1.589454-1.1929375,2.6531693-1.3420475,5.3024362-2.6954409,7.9961434-3.9525065,2.0881739-.9744764,4.1394209-2.0454879,6.3420965-2.7592906.1748429-.0566589.375352-.0340704.6341702-.0536104-.6390109,1.2474153-1.5950908,2.0189772-2.6367638,2.731932-1.3797811.9443606-2.8910971,1.6367269-4.3621017,2.4094474-2.2986299,1.2074938-4.5796894,2.4485339-6.8823187,3.6482415-.5799189.3021485-1.1948814.5750615-2.0602684.4637112Z" stroke-width="0"/>
      <path d="m175.4262288,24.9263202c.7548329-.5138833,1.510753-.2434168,2.2595544-.007728,2.9773181.9371278,5.9577814,1.8680146,8.8367831,3.0845066,1.369996.5788737,2.5757691,1.3858944,3.3494731,2.7086219.0957018.1636144.1181065.3701114.2044245.6559237-.6623669-.0409505-1.2247477-.1372461-1.7551201-.3286884-1.4850867-.5360753-2.9603237-1.099904-4.434357-1.666024-1.8598175-.7142881-3.7143153-1.4423721-5.5717771-2.162838-.3527403-.1368189-.6999409-.2999771-1.0646278-.3914459-.7448796-.1868324-1.329924-.5884673-1.8243532-1.2691996v-.6231284Z" stroke-width="0"/>
      <path d="m135.0900727,45.8206296v.9540432c-.3031291.2362924-.6500061.5066973-.9403862.7330547h-1.1369801c-.8927683.2790649-1.3145993,1.0052071-1.7435619,1.7259547-.248263.4171136-.4738754.8521362-.7624953,1.2397585-.439136.5897375-.9932203.9944048-1.8095591.8186968-1.2179267-.9664248-1.4814497-1.7925681-1.0317909-3.2690235.6138559-2.0155663,2.740691-3.6978585,4.6892469-3.6977129,1.1370189.0000841,2.111834.3296495,2.7355267,1.4952285Z" stroke-width="0"/>
      <path d="m80.348754,72.6050071c-.0194601.3538432.0073129.5531785-.0461101.7279901-.368298,1.2051056-1.0858157,2.2290437-1.7773436,3.2547487-.8939138,1.3258925-1.8615777,2.6018443-2.7874288,3.9064493-1.6693846,2.3522965-3.3183836,4.7192271-5.0061022,7.0582424-.3837586.5318586-.8533887,1.0296467-1.7328902,1.1310554-.065376-.104865-.1727266-.2770617-.2945737-.4725136.1694909-.7543584.6227931-1.368953,1.0690414-1.9820266.9824321-1.3497107,1.9754518-2.6917387,2.9682708-4.0338639,1.2218614-1.6517492,2.4291812-3.3147474,3.677932-4.9459728,1.0593275-1.3837682,2.1644415-2.732644,3.2608124-4.0876426.1438957-.1778536.3561767-.3003686.6683919-.5564664Z" stroke-width="0"/>
      <path d="m204.7283299,20.8905648c-.2229332-1.0062087.2145719-1.6831563.4364438-2.386299.587866-1.8629095,1.0059693-3.7611888,1.4240338-5.6660787.2690756-1.2260541.5564658-2.4594697.767103-3.6874283.2196068-1.2802552.502894-2.5509142.7081339-3.834872.14464-.9047045.3752485-1.8072227.6821052-2.6699292.1740986-.4895044.5792458-.8968127.9783615-1.4857902.1508139.5204956.2611673.9013138.369217,1.2742027-.1879608.7846864-.3819919,1.5749967-.5661344,2.3676087-.4322631,1.8606045-.8357666,3.7293578-1.2271552,5.5970698-.4130037,1.970848-.8666231,3.9321153-1.3557456,5.8818773-.314312,1.2529605-.7375149,2.5001541-1.4491047,3.6090336-.203855.3176611-.4592497.602247-.7672584,1.0006053Z" stroke-width="0"/>
      <path d="m145.316849,46.3666529c-.2629923.2455964-.5198237.4854357-.8041723.7509831-.6290253-.031776-1.252032-.0632478-1.8750516-.0947228-1.3798846.1161171-1.9728502,1.3844122-3.000344,2.1647247h-.8792297c-.2102101-.2891165-.4530887-.6231737-.6624057-.9110766-.3420492-2.1932516,1.982467-4.2830848,3.9981332-4.1916144,1.7625754.079982,2.6537905.5839059,3.2230701,2.2817059Z" stroke-width="0"/>
      <path d="m192.8260728,9.3361138c.6555588.3989044.8866721,1.0491155.9627132,1.6250678.2647267,2.0051369,1.0461837,3.8504182,1.6113603,5.7619932.4947916,1.6735562,1.0293964,3.3367566,1.339929,5.0587615.0080377.0445702-.083587.1071206-.1892421.2339154-.7379421-.2914578-1.2477995-.8351123-1.6678055-1.5212327-.5122778-.8368145-.717013-1.786573-1.0095804-2.6943568-.4634433-1.4379838-.802645-2.9169068-1.1702311-4.3845631-.2085922-.8328526-.4159159-1.6711824-.535019-2.5195153-.0814773-.5803761.3363284-1.0283895.6578756-1.5600701Z" stroke-width="0"/>
      <path d="m145.2838569,181.150809v-2.077416c.365554-.2931843.7897406-.6333579,1.1385074-.9130798h1.3749792c1.0027723.388056,1.561788,1.1514951,1.8964467,2.0737915.2042433,1.4116834-.334141,2.4005803-1.6150103,2.9900815-1.5713918.2336388-2.1922629-.8713331-2.7949229-2.0733773Z" stroke-width="0"/>
      <path d="m146.9287659,165.1796864c-.7985291-.3791889-1.2750837-1.0477046-1.6449867-1.8573433v-1.3138604c.1823952-.3605873.3892271-.7969141.6204698-1.2198949.3047341-.5574373.7632589-.9262963,1.4204226-.882375.2915579.0194947.7507299.1293304.8266546.3203035.3050965.7672837,1.057742,1.2032221,1.3558103,2.0429961v1.2035457c-.2071555.7354527-.8187851,1.1700449-1.3418705,1.7066282h-1.2365001Zm.7264226-1.2473247c.5632481-.0048931.6550152-.458967.7699117-.7699244.1400451-.3790076-.018897-.7703128-.345285-1.0823446-.4893037.5449586-.5777703,1.1553526-.4246267,1.852269Z" stroke-width="0"/>
      <path d="m149.5042891,170.3059917v1.3528498c-.3454145.4228384-.6771092.9197074-1.0976846,1.3241644-.7919539.7616528-1.7960982.6758294-2.4178365-.2088238-.5192154-.7388183-.8470918-1.2503408-.6902594-2.5414314.4131461-.5008819.870286-.9399918,1.5028448-1.2298623.6656156-.3049899,1.2267798-.2174838,1.7307093.2234772.3855642.3373646.6930551.7639828.9722264,1.0796262Zm-2.1972978,1.7252945c.4156571-.7728111.4146734-.7811604-.0985234-1.236011-.3889553.4165731-.3055624.8001762.0985234,1.236011Z" stroke-width="0"/>
      <path d="m169.2480381,187.7085642c.0304294-.0566201.0608588-.1132531.025511-.0474552.0671104-.0329313.0087366-.0042847-.0496371.024349,0,.0000129.0241261.0231063.0241261.0231063Z" stroke-width="0"/>
    </g>
  </g>
</svg>