<?xml version="1.0" encoding="UTF-8"?>
<svg id="b" data-name="Layer 2" xmlns="http://www.w3.org/2000/svg" width="180.994" height="246.336" viewBox="0 0 180.994 246.336">
  <g id="c" data-name="Layer 1">
    <g>
      <path d="m100.223,71.269c-.053.042-.106.084-.158.127-.003.008-.01.009-.014.017.01.002.016-.005.026-.003.052-.043.104-.085.156-.128.05-.044.101-.089.151-.133t0-.001s0,0-.001,0c-.054.04-.108.081-.162.122Z" stroke-width="0"/>
      <path d="m68.614,75.811h0c.014-.023.023-.037,0,0Z" stroke-width="0"/>
      <path d="m61.427,75.556c-.005,0-.012-.002-.018-.002-.003.007-.009.009-.012.016.009.002.014-.005.024-.002.001-.006.004-.007.005-.012Z" stroke-width="0"/>
      <path d="m61.743,75.425h0c.014-.022.022-.035,0,0Z" stroke-width="0"/>
      <path d="m33.364,211.142c.844,1.122,1.667,2.257,2.534,3.363.626.798,1.299,1.563,1.966,2.331.529.61,1.069,1.213,1.624,1.801,1.679,1.781,3.197,3.694,4.995,5.378.98.918,1.978,1.81,3.097,2.578.797.546,1.638,1.037,2.348,1.697.412.383.856.737,1.298,1.091,1.268,1.02,2.69,1.828,4.095,2.657.712.42,1.433.83,2.167,1.215.823.432,1.423.344,1.976-.317.214-.256.39-.587.445-.906.165-.972.264-1.954.385-2.933.028-.23-.022-.493.081-.684.198-.37.141-.762.209-1.142.071-.402.158-.802.236-1.203.09-.469.161-.942.271-1.407.104-.437.269-.861.368-1.299.114-.51.121-1.051.295-1.54.15-.424.122-.862.246-1.273.179-.587.351-1.172.406-1.785.012-.138-.018-.312.058-.407.215-.268.125-.578.188-.865.067-.31.167-.615.21-.927.141-1.023.263-2.048.393-3.073.009-.069-.009-.154.027-.204.22-.307.148-.665.208-1,.064-.357.157-.708.223-1.065.1-.538.121-1.099.302-1.609.136-.381.098-.775.226-1.136.206-.584.243-1.197.408-1.786.123-.44.141-.914.287-1.331.174-.501.153-1.025.347-1.522.18-.46.19-.98.287-1.472.079-.4.162-.801.265-1.196.102-.391.25-.772.345-1.165.173-.728.288-1.47.489-2.191.206-.739.441-1.469.592-2.222.066-.331.165-.657.254-.984.184-.675.383-1.346.552-2.023.106-.418.154-.85.257-1.269.108-.437.259-.863.377-1.298.088-.328.159-.66.227-.992.092-.445.115-.913.274-1.335.281-.749.351-1.54.576-2.299.232-.781.295-1.608.514-2.394.099-.355.114-.725.234-1.062.184-.517.197-1.071.398-1.574.167-.417.103-.876.261-1.266.227-.562.209-1.156.37-1.726.204-.722.238-1.488.345-2.235.007-.046,0-.095.017-.138.309-.799.299-1.655.454-2.48.219-1.172.246-2.379.468-3.55.115-.61.194-1.218.261-1.831.007-.069.003-.143.03-.205.258-.594.247-1.241.404-1.857.147-.573.114-1.199.324-1.744.219-.568.056-1.195.389-1.723.084-.955.304-1.886.495-2.824.135-.667.292-1.327.441-1.99.167-.752.307-1.511.477-2.264.145-.645.21-1.307.309-1.962.014-.092-.006-.198.036-.274.296-.538.25-1.151.378-1.722.183-.817.336-1.646.494-2.471.182-.945.33-1.908.349-2.866.013-.685-.018-1.375.05-2.058.197-1.972.202-3.959.569-5.918.237-1.264.14-2.568.441-3.837.179-.753.172-1.542.314-2.314.211-1.15.169-2.334.427-3.488.184-.825.244-1.676.359-2.515.003-.023,0-.05.009-.068.33-.578.198-1.246.391-1.863.209-.667.189-1.398.313-2.1.24-1.357.375-2.734.48-4.109.103-1.351.315-2.693.19-4.064-.084-.922-.139-1.846-.225-2.769-.088-.945-.219-1.878-.382-2.813-.364-2.097-.983-4.128-1.764-6.113-.686-1.744-1.477-3.452-2.412-5.092-.72-1.263-1.372-2.553-1.958-3.874-.259-.583-.477-1.183-.695-1.781-.295-.81-.585-1.622-.854-2.44-.41-1.246-.819-2.494-1.192-3.75-.25-.842-.433-1.702-.654-2.552-.196-.751-.167-1.529-.298-2.279-.146-.839.088-1.569.359-2.311.343-.935.864-1.792,1.338-2.67.173-.319.364-.508.684-.628.732-.274,1.463-.548,2.173-.814.269.096.548.167.798.291.427.213.918.115,1.336.266.755.273,1.549.294,2.297.237.668-.05,1.334.1,2.006-.06.475-.113,1.004-.008,1.502-.057.947-.092,1.894-.158,2.844-.21.407-.022.829.021,1.213-.057.322-.066.621-.028.93-.04.309-.012.619-.077.925-.06.917.052,1.839.088,2.728.346,1.065.309,2.144.596,3.126,1.107.994.518,1.947,1.104,2.654,1.977.325.402.67.793.957,1.217.689,1.019,1.215,2.115,1.556,3.279.209.712.381,1.437.517,2.164.2,1.072.327,2.159.242,3.245-.091,1.167-.141,2.336-.37,3.497-.205,1.039-.227,2.116-.267,3.18-.062,1.661-.414,3.29-.539,4.943-.005.069.003.146-.024.206-.35.745-.201,1.571-.427,2.349-.241.829-.262,1.718-.379,2.58-.007.046.002.098-.018.137-.35.672-.228,1.43-.403,2.141-.235.95-.204,1.956-.382,2.933-.134.736-.154,1.495-.09,2.263.07.84-.099,1.687-.026,2.542.054.634-.073,1.269-.012,1.919.081.863-.009,1.739-.022,2.61-.012.778-.019,1.556-.028,2.333,0,.023-.008.048,0,.069.226.693.049,1.404.093,2.106.072,1.142-.115,2.287-.121,3.441-.008,1.863-.02,3.733-.238,5.59-.089.758-.137,1.522-.175,2.284-.037.754-.135,1.499-.06,2.267.075.769-.11,1.547-.012,2.332.07.563.009,1.139.042,1.708.023.402.112.802.158,1.203.068.606.166,1.213.177,1.82.016.91.049,1.818.077,2.727.023.726.045,1.447.139,2.171.113.873.147,1.755.268,2.626.133.956.375,1.9.479,2.857.12,1.099.369,2.176.555,3.263.303,1.771.68,3.532,1.012,5.299.29,1.547.561,3.098.963,4.626.172.653.314,1.314.445,1.976.149.749.303,1.5.396,2.256.089.719.064,1.45.163,2.167.07.507-.051,1.021.049,1.499.15.709-.011,1.404.07,2.111.106.928-.011,1.876-.032,2.816-.001.069-.03.147-.007.207.164.407.045.817.046,1.227,0,.409.064.819.04,1.225-.049.844.011,1.678.094,2.519.083.835.101,1.682.094,2.518-.009,1.21-.009,2.418.026,3.629.023.795.063,1.586.113,2.38.056.88.144,1.756.261,2.63.186,1.381.454,2.749.812,4.101.347,1.308.724,2.609,1.068,3.917.391,1.483.747,2.974,1.139,4.457.647,2.447,1.378,4.872,2.3,7.241.758,1.949,1.307,3.955,1.942,5.938.372,1.164.759,2.325,1.143,3.486.384,1.161.781,2.319,1.156,3.482.278.86.513,1.733.802,2.59.645,1.919.941,3.897,1.192,5.883.079.627.063,1.268.186,1.886.25,1.256.573,2.498.851,3.749.21.944.399,1.892.63,2.995.072.065.238.241.431.384.361.268.71.47,1.238.344.708-.168,1.079-.585,1.332-1.18.932-2.191,2.123-4.256,3.339-6.31.718-1.214,1.456-2.424,2.08-3.682,1.124-2.268,2.148-4.58,3.253-6.857.967-1.994,1.987-3.964,2.984-5.945,1.164-2.313,2.455-4.568,3.468-7.014,1.078,1.148,2.116,2.255,3.155,3.362.049.052.096.106.144.158,1.116,1.235,2.483,2.136,4.051,2.78,1.703.7,3.381,1.445,4.997,2.317.682.368,1.39.696,2.105,1.002.887.379,1.811.66,2.739.942.837.254,1.679.501,2.527.69.745.166,1.445.46,2.112.585.964-.052,1.63-.413,1.953-1.246.172-1.19.083-2.378-.129-3.584-.234-1.333-.54-2.646-.915-3.945-.489-1.694-.879-3.422-1.788-4.987-.578-.996-1.053-2.05-1.695-3.006-.743-1.108-1.312-2.287-1.733-3.514-.771-2.246-1.557-4.489-2.134-6.791-.29-1.158-.707-2.288-1.058-3.434-.318-1.037-.599-2.085-.941-3.114-.642-1.934-1.261-3.87-1.761-5.843-.498-1.966-1.084-3.912-1.602-5.874-.393-1.488-.829-2.96-1.4-4.398-.378-.95-.698-1.92-1.041-2.882-.512-1.432-1.013-2.866-1.536-4.294-.36-.982-.763-1.951-1.124-2.933-.47-1.278-.877-2.579-1.387-3.842-.554-1.373-.997-2.774-1.406-4.187-.515-1.776-.98-3.564-1.354-5.37-.26-1.255-.523-2.511-.73-3.774-.167-1.023-.202-2.066-.387-3.086-.236-1.303-.565-2.591-.851-3.885-.15-.681-.294-1.364-.439-2.046-.284-1.341-.569-2.682-.85-4.023-.259-1.233-.51-2.466-.77-3.699-.209-.989-.437-1.975-.636-2.966-.292-1.456-.699-2.89-.869-4.369-.089-.779-.277-1.549-.391-2.326-.112-.758-.179-1.522-.28-2.282-.072-.557-.171-1.111-.248-1.668-.081-.581-.159-1.162-.22-1.744-.069-.652-.101-1.307-.179-1.957-.104-.871-.242-1.738-.357-2.608-.133-1.005-.209-2.019-.396-3.015-.287-1.523-.614-3.042-.987-4.549-.428-1.729-.944-3.438-1.489-5.14-.414-1.291-.857-2.583-1.122-3.903-.54-2.688-1.654-5.139-3.165-7.452-.049-.076-.055-.177-.07-.272-.009-.01-.018-.02-.027-.031-.045-.05-.091-.099-.136-.149-.007-.015-.012-.027-.017-.038-.018-.01-.027-.015,0,0-.012-.028-.008-.018,0,0,.011.006.022.013.037.021.045.05.09.1.135.15.003.015.005.032.007.048.378.43.762.856,1.135,1.29.818.951,1.619,1.915,2.449,2.856.891,1.009,1.791,2.011,2.692,3.011.825.915,1.611,1.862,2.414,2.795.03.036.064.07.093.107.888,1.125,1.774,2.251,2.665,3.374.395.498.804.986,1.197,1.485.261.331.523.665.757,1.014.705,1.05,1.47,2.055,2.321,3.006,1.043,1.166,2.262,2.127,3.628,2.921,1.263.734,2.513,1.497,3.929,1.946.743.236,1.487.488,2.25.634.558.107,1.137.094,1.726.043,1.193-.103,2.3-.399,3.29-1.003.667-.407,1.273-.908,1.881-1.396.976-.784,1.741-1.743,2.431-2.758.831-1.22,1.315-2.58,1.688-3.975.263-.984.439-1.989.682-2.978.134-.544.336-1.073.494-1.612.171-.584.282-1.188.506-1.752.167-.421.104-.872.265-1.266.109-.269.118-.53.173-.796.055-.265.175-.522.194-.788.051-.71.308-1.373.525-2.035.313-.958.684-1.902,1.166-2.805.521-.977,1.143-1.878,1.971-2.641,1.097-1.011,2.385-1.793,3.609-2.651.733-.513,1.502-.979,2.252-1.471.672-.441,1.339-.889,2.009-1.334.786-.523,1.602-1.011,2.351-1.578,1.095-.829,2.151-1.7,3.063-2.723.958-1.073,1.84-2.196,2.579-3.412.577-.95,1.087-1.935,1.462-2.982.283-.79.55-1.587.672-2.407.154-1.037.21-2.087-.03-3.137-.278-1.218-.629-2.405-1.224-3.527-.403-.759-.858-1.48-1.393-2.162-.634-.811-1.196-1.677-1.872-2.455-.822-.945-1.674-1.881-2.616-2.716-1.158-1.025-2.432-1.933-3.641-2.908-.886-.714-1.77-1.424-2.531-2.273-.789-.882-1.449-1.845-2.097-2.814-1.092-1.636-1.615-3.427-1.445-5.369.047-.546.06-1.093.262-1.62.193-.504.288-1.044.506-1.536.651-1.461,1.625-2.745,2.556-4.048.868-1.214,1.814-2.382,2.615-3.634.98-1.532,1.839-3.131,2.469-4.836.261-.707.395-1.437.572-2.158.092-.372-.001-.769-.016-1.154-.038-.958-.449-1.756-1.014-2.504-.693-.917-1.653-1.536-2.69-2.038-.829-.401-1.726-.667-2.641-.794-1.459-.203-2.919-.195-4.378.065-1.465.261-2.912.571-4.318,1.04-.939.314-1.885.608-2.822.927-.693.236-1.391.464-2.059.753-1.257.544-2.489,1.137-3.74,1.695-1.225.547-2.479,1.041-3.686,1.622-1.322.636-2.708,1.126-4.108,1.545-1.663.499-3.358.919-5.078,1.246-1.851.351-3.685.781-5.523,1.192-1.542.345-3.075.728-4.557,1.264-2.695.975-5.317,2.097-7.792,3.505-1.238.705-2.439,1.461-3.55,2.339-.835.661-1.602,1.388-2.338,2.147-.682.704-1.404,1.374-2.068,2.092-1.164,1.258-2.21,2.601-3.099,4.051-.464.759-.914,1.525-1.383,2.281-.569.916-1.15,1.826-1.729,2.736-.084.132-.183.254-.273.377-.765-.495-1.561-.855-2.405-1.098-.706-.203-1.431-.35-2.154-.496-.564-.114-1.164-.115-1.698-.3-.597-.207-1.228-.167-1.823-.374-.466-.163-1.007-.13-1.476-.287-.911-.305-1.865-.397-2.796-.588-1.085-.223-2.206-.294-3.313-.411-.704-.074-1.411-.131-2.118-.16-.575-.024-1.165-.064-1.726.026-1.163.187-2.33.374-3.449.751-.163.055-.358.029-.566.043-.143-.348-.267-.641-.383-.937-.324-.832-.616-1.676-1.097-2.446-.489-.784-1.005-1.556-1.441-2.367-.52-.968-1.015-1.95-1.441-2.963-.576-1.367-1.188-2.723-1.845-4.058-.7-1.422-1.493-2.802-2.38-4.131-.554-.831-1.08-1.685-1.712-2.461-.64-.784-1.389-1.49-2.103-2.218-1.062-1.083-2.145-2.147-3.204-3.233-.79-.811-1.651-1.545-2.557-2.234-1.014-.77-2.037-1.53-3.051-2.3-2.773-2.106-5.659-4.058-8.734-5.747-.867-.476-1.733-.965-2.644-1.355-1.856-.796-3.583-1.807-5.305-2.822-1.707-1.006-3.386-2.053-5.126-3.009-1.794-.986-3.68-1.784-5.621-2.461-1.101-.384-2.221-.725-3.415-.75-.746-.015-1.485-.134-2.24-.026-1.146.163-2.214.518-3.22,1.032-1.148.586-2.196,1.295-3.086,2.218-.605.626-1.105,1.294-1.454,2.075-.315.705-.577,1.418-.733,2.175-.141.681-.378,1.343-.578,2.012-.225.755-.438,1.514-.686,2.262-.376,1.133-.771,2.259-1.074,3.414-.188.718-.395,1.434-.652,2.131-.662,1.796-1.449,3.545-2.313,5.258-1.009,2.001-2.072,3.979-3.134,5.955-.655,1.22-1.37,2.412-2.03,3.63-.904,1.672-2.001,3.224-3.143,4.752-.728.973-1.388,1.987-1.877,3.09-.383.866-.72,1.749-.982,2.657-.15.52-.318,1.034-.439,1.564-.081.354-.108.727-.229,1.062-.221.608-.296,1.242-.387,1.862-.157,1.074-.207,2.165-.266,3.251-.032.591-.036,1.19.026,1.778.085.803.285,1.596.366,2.4.146,1.437.466,2.843.82,4.242.468,1.847,1.178,3.623,1.895,5.394.28.692.429,1.397.362,2.125-.061.682-.179,1.36-.303,2.034-.066.352-.2.692-.305,1.037-.403,1.336-1.038,2.593-1.467,3.919-.263.816-.506,1.644-.674,2.482-.127.632-.108,1.29-.175,1.935-.068.642.041,1.266.162,1.893.29,1.498.923,2.873,1.873,4.083.681.868,1.485,1.662,2.315,2.409,1.057.954,2.097,1.919,3.063,2.957.419.449.857.885,1.317,1.296,1.32,1.177,2.64,2.355,3.992,3.499.754.638,1.389,1.36,1.919,2.162.53.802.736,1.705.493,2.619-.165.617-.278,1.241-.385,1.862-.137.795-.179,1.611-.193,2.42-.014.793.168,1.567.542,2.289.829,1.604,2.34,2.139,4.063,2.322.255.027.523-.08.779-.057.819.073,1.629-.047,2.425-.149,1.697-.218,3.325-.679,4.906-1.319,1.275-.517,2.319-1.312,3.275-2.211.743-.699,1.366-1.512,2.055-2.264.309-.338.651-.649.978-.973-.123.565-.301,1.092-.526,1.598-.617,1.387-.995,2.848-1.418,4.292-.312,1.065-.521,2.164-.697,3.26-.195,1.225-.298,2.464-.444,3.696-.127,1.072-.11,2.154-.364,3.219-.169.707-.165,1.449-.315,2.173-.158.754-.312,1.51-.472,2.264-.23,1.085-.603,2.121-.998,3.153-.516,1.347-1.054,2.683-1.753,3.958-.502.914-.963,1.849-1.397,2.794-.612,1.331-1.228,2.664-1.758,4.026-.506,1.302-.957,2.628-1.21,4.005-.061.333-.115.675-.241.988-.299.742-.37,1.535-.592,2.293-.129.438-.18.893-.277,1.335-.16.732-.383,1.45-.435,2.201-.006.092.009.197-.032.274-.312.583-.182,1.25-.403,1.86-.183.508-.131,1.095-.317,1.603-.138.379-.131.762-.233,1.135-.196.718-.401,1.434-.571,2.157-.12.509-.102,1.062-.295,1.539-.274.675-.074,1.422-.424,2.068-.123,1.258-.161,2.523-.419,3.77-.181.874-.083,1.783-.348,2.66-.183.607-.214,1.258-.312,1.889-.007.046-.008.093-.02.137-.127.456-.276.907-.378,1.368-.114.511-.119,1.052-.293,1.54-.151.423-.108.867-.255,1.269-.181.495-.245,1.009-.367,1.513-.135.552-.143,1.136-.301,1.68-.24.826-.341,1.682-.613,2.5-.185.555-.353,1.115-.523,1.675-.221.733-.45,1.464-.651,2.202-.173.633-.268,1.288-.48,1.907-.228.665-.352,1.352-.54,2.024-.171.613-.213,1.259-.313,1.89-.011.068-.009.143-.04.202-.261.497-.187,1.064-.37,1.584-.165.468-.132,1-.296,1.469-.285.819-.385,1.674-.586,2.508-.17.702-.338,1.412-.46,2.124-.148.852-.343,1.694-.489,2.543-.154.897-.431,1.764-.699,2.621-.435,1.391-1.047,2.73-1.572,4.095-.389,1.008-.754,2.025-1.14,3.034-.217.567-.441,1.132-.69,1.686-.418.933-.964,1.802-1.496,2.679-.448.739-.942,1.49-.78,2.491.072.157.179.387.274.593.465.437.963.749,1.62.688.305-.028.615-.064.907-.148.959-.275,1.863-.679,2.768-1.078.907-.399,1.796-.837,2.718-1.2,1.248-.493,2.512-.956,3.787-1.385,1.135-.381,2.287-.716,3.451-1.02,1.527-.399,3.061-.787,4.526-1.381.649-.263,1.35-.41,2.028-.606.679-.197,1.327-.086,1.936.234.291.153.573.335.824.541.675.553,1.404,1.067,1.978,1.705.737.818,1.345,1.741,2.006,2.62Zm112.748-99.761c-.592-.144-1.165-.376-1.733-.602-1.048-.417-1.953-1.055-2.81-1.751-.733-.593-1.475-1.181-2.16-1.821-.538-.504-1.026-1.064-1.483-1.637-.524-.657-.986-1.358-1.481-2.037-.563-.774-1.126-1.548-1.703-2.313-.353-.469-.745-.912-1.098-1.381-.576-.765-1.125-1.548-1.703-2.311-.596-.785-1.21-1.558-1.823-2.331-.657-.829-1.317-1.656-1.984-2.479-.474-.587-.961-1.163-1.437-1.748-.728-.895-1.451-1.793-2.179-2.688-.104-.129-.219-.25-.33-.374-.797-.882-1.575-1.78-2.397-2.641-.767-.803-1.593-1.555-2.368-2.351-.905-.929-1.87-1.797-2.91-2.586-.917-.695-1.835-1.393-2.788-2.043-2.219-1.513-4.456-3.001-6.689-4.494-1.369-.915-2.831-1.672-4.376-2.279-.394-.155-.798-.296-1.208-.398-.199-.05-.425.003-.639.011-.142.005-.284.013-.427.02t0,.001c-.05.044-.101.089-.151.133-.052.043-.104.085-.156.128-.011-.003-.016.005-.026.003-.08.174-.215.255-.416.223-.004.008-.012.01-.015.018-.052.043-.104.087-.156.13-.053.042-.106.084-.158.126-.009.002-.017.002-.026.003-.272.398-.137.751.14,1.102.737.93,1.644,1.676,2.679,2.295,1.417.848,2.845,1.681,4.231,2.572.693.446,1.336.962,1.932,1.543.852.832,1.597,1.747,2.331,2.659,1.085,1.349,2.299,2.588,3.446,3.883.406.459.877.866,1.295,1.316,2.275,2.451,3.974,5.222,5.09,8.305.292.808.501,1.642.747,2.464.429,1.428.87,2.854,1.28,4.287.472,1.648.945,3.296,1.364,4.956.307,1.223.533,2.462.751,3.704.246,1.397.367,2.808.649,4.199.081.398.018.819.083,1.22.124.759.108,1.526.219,2.289.09.621.118,1.259.192,1.888.092.782.207,1.562.309,2.343.084.648.166,1.296.244,1.944.064.537.102,1.078.184,1.613.117.754.255,1.506.402,2.256.181.926.389,1.848.567,2.775.14.728.25,1.461.38,2.191.181,1.018.345,2.039.56,3.051.412,1.934.892,3.856,1.28,5.796.202,1.012.424,2.023.647,3.033.175.795.302,1.591.395,2.396.105.916.276,1.828.347,2.745.047.609.125,1.216.166,1.824.056.812.198,1.611.343,2.407.347,1.902.885,3.767,1.421,5.628.331,1.151.754,2.279,1.159,3.41.538,1.497,1.081,2.992,1.655,4.476.444,1.148.957,2.272,1.407,3.418.523,1.334,1.01,2.681,1.514,4.022.72,1.915,1.481,3.817,2.147,5.749.396,1.15.618,2.352.961,3.519.739,2.514,1.393,5.05,2.282,7.524.658,1.833,1.173,3.706,1.709,5.573.267.932.592,1.854.789,2.799.188.904.373,1.809.629,2.696.383,1.324.821,2.634,1.259,3.944.238.71.52,1.406.791,2.106.368.949.965,1.775,1.542,2.619.783,1.146,1.625,2.275,2.122,3.567.382.993.668,2.019.973,3.036.227.756.429,1.52.622,2.285.215.851.395,1.71.469,2.583.001.017-.024.037-.037.055-.371-.053-.745-.09-1.112-.162-.678-.134-1.364-.246-2.023-.443-1.106-.33-2.204-.687-3.243-1.195-.888-.434-1.809-.804-2.69-1.248-1.201-.605-2.393-1.229-3.56-1.892-.806-.459-1.531-1.015-2.038-1.807-.34-.529-.775-1.006-1.187-1.49-1-1.17-1.997-2.342-3.026-3.488-.468-.522-1-.995-1.678-1.335-.36-.028-.749-.057-1.123-.086-.942.234-1.435.917-1.607,1.698-.461,2.095-1.462,3.971-2.414,5.871-.669,1.336-1.361,2.662-2.056,3.985-.78,1.486-1.59,2.957-2.357,4.448-.611,1.187-1.17,2.398-1.764,3.592-.685,1.378-1.351,2.765-2.083,4.12-.896,1.66-1.848,3.292-2.785,4.932-.153.268-.167.627-.54.782-.151-.916-.3-1.825-.45-2.734-.129-.776-.251-1.553-.39-2.328-.206-1.154-.499-2.286-.9-3.398-.416-1.152-.79-2.318-1.156-3.485-.443-1.411-1.041-2.767-1.584-4.144-.71-1.798-1.345-3.622-2-5.439-.385-1.067-.72-2.15-1.123-3.21-.653-1.72-1.254-3.454-1.696-5.232-.276-1.114-.496-2.242-.677-3.373-.175-1.091-.467-2.157-.712-3.233-.489-2.15-1.024-4.291-1.37-6.468-.172-1.086-.418-2.162-.589-3.248-.102-.647-.071-1.313-.198-1.954-.094-.472,0-.944-.136-1.416-.104-.364.012-.758-.07-1.153-.1-.484.047-1.017-.077-1.492-.177-.686.087-1.358-.085-2.043-.097-.388.047-.826.06-1.242.027-.894.105-1.792.032-2.68-.043-.532-.005-1.049-.003-1.574.002-.431-.035-.863-.041-1.295-.006-.432.15-.866-.037-1.295-.018-.039,0-.091.001-.138.01-.801.104-1.611.002-2.4-.076-.588.055-1.173-.104-1.763-.091-.337-.058-.722-.07-1.081-.027-.861-.186-1.706-.282-2.558-.087-.78-.274-1.55-.393-2.328-.196-1.289-.444-2.568-.733-3.843-.263-1.164-.483-2.337-.634-3.521-.104-.823-.306-1.634-.449-2.453-.236-1.353-.515-2.697-.682-4.062-.148-1.206-.291-2.414-.44-3.62-.108-.87-.266-1.735-.368-2.605-.079-.674-.077-1.356-.164-2.029-.126-.98-.307-1.955-.45-2.933-.085-.58-.121-1.166-.217-1.743-.127-.759-.06-1.533-.249-2.285-.005-.022-.002-.046-.002-.069.002-.685.005-1.37.005-2.055,0-4.164.594-8.291.775-12.442.035-.796.103-1.608.028-2.4-.062-.651.025-1.281.031-1.92.006-.64-.014-1.28.009-1.919.024-.647.176-1.301.11-1.938-.095-.93.069-1.835.088-2.752.014-.662-.081-1.342.041-1.985.198-1.045.186-2.11.385-3.144.127-.657.104-1.338.294-1.964.207-.684.083-1.418.412-2.07.02-.039.01-.091.017-.137.108-.747.12-1.522.349-2.234.235-.729.077-1.512.424-2.208.02-.039.012-.091.016-.137.125-1.583.445-3.144.527-4.734.098-1.91.513-3.791.565-5.708.02-.749.004-1.497-.104-2.243-.049-.335-.041-.681-.058-1.016-.074-1.36-.364-2.677-.76-3.977-.527-1.732-1.272-3.372-2.353-4.875-.98-1.364-2.14-2.553-3.59-3.517.9-.263,1.727-.627,2.531-1.041.089-.046.203-.047.309-.063.005-.007.005-.013.009-.02.052-.043.104-.086.155-.129.053-.042.107-.084.16-.126.012.003.018-.005.03-.003.083-.168.211-.26.416-.223.003-.007.01-.009.014-.017.052-.042.105-.084.158-.127.054-.041.108-.081.162-.122,0,0,.001,0,.001,0,.181-.419.624-.31.932-.328.794-.046,1.569.154,2.332.379.566.167,1.139.317,1.712.461.988.248,1.935.601,2.864,1.005,1.524.661,2.778,1.687,4.057,2.682.946.737,1.9,1.458,2.925,2.102,1.437.904,2.971,1.679,4.257,2.794.712.616,1.451,1.203,2.164,1.817.858.738,1.716,1.478,2.55,2.243.56.514,1.095,1.053,1.607,1.611.861.941,1.802,1.799,2.771,2.641,1.054.915,2.114,1.83,3.06,2.857.703.763,1.481,1.462,2.223,2.194.186.184.358.382.533.576,1.949,2.149,3.883,4.311,5.852,6.443.833.901,1.759,1.725,2.609,2.612.839.877,1.642,1.786,2.449,2.691.234.262.412.569.643.833.437.5.674,1.102.98,1.667.406.747.797,1.502,1.183,2.258.082.161.118.343.183.538-.709.205-1.435.336-2.162.159Zm-41.707-46.841c.321-.988.571-1.994.835-2.997.243-.92.431-1.85.665-2.769.191-.748.246-1.497.274-2.247.025-.674.043-1.36-.11-2.033-.01-.044,0-.092,0-.139.004-.709.029-1.418.004-2.126-.016-.424-.11-.847-.179-1.341,1.032-1.138,2.108-2.321,3.179-3.506.747-.825,1.48-1.663,2.24-2.477.747-.8,1.507-1.588,2.284-2.362.812-.81,1.649-1.597,2.479-2.391.373-.357.75-.711,1.133-1.059.576-.523,1.158-1.04,1.739-1.559.475-.424.928-.874,1.433-1.263,1.087-.838,2.2-1.645,3.305-2.462,1.193-.882,2.467-1.646,3.805-2.316,1.452-.728,2.948-1.351,4.502-1.871,2.3-.77,4.671-1.296,7.015-1.919,1.366-.363,2.724-.754,4.072-1.177,1.969-.618,3.833-1.467,5.729-2.24,2.338-.952,4.745-1.681,7.215-2.241,1.674-.38,3.355-.732,5.04-1.066.9-.178,1.812-.314,2.724-.423.496-.059,1.011-.07,1.509-.019,1.273.13,2.46.525,3.514,1.236.601.405.836,1.266.657,1.965-.563,2.196-1.735,4.118-2.952,6.014-.582.904-1.253,1.758-1.91,2.616-1.299,1.7-2.403,3.506-3.155,5.482-.255.668-.483,1.37-.53,2.107-.025.4-.17.793-.286,1.302-.332-1.3-1.005-2.274-2.07-3.018.047-.618.114-1.213.134-1.811.053-1.671-.82-3.077-2.599-3.6-1.057-.311-2.187-.271-3.162.442-.651.475-1.247.976-1.619,1.685-.041.078-.129.132-.195.197-1.191-.946-2.489-.825-3.621-.042-1.007.697-1.559,1.689-1.974,2.767-.304.789-.326,1.627-.314,2.446.013.852.387,1.631.946,2.312.464.566,1.025,1.035,1.701,1.448-.503.534-1.457.535-1.735,1.356-.017.23-.039.507-.059.781.4.698,1.037,1.152,1.73,1.535.595.329,1.173.706,1.852.866.687.162,1.34.428,2.101.289.452-.082.955,0,1.431-.072.911-.138,1.77-.377,2.401-1.178,2.729-.307,4.492-1.75,5.175-4.371.045,1.106.372,2.148.749,3.159.301.806.768,1.567,1.231,2.309.465.748,1.009,1.453,1.531,2.169.276.378.573.744.873,1.105.909,1.093,2.073,1.908,3.247,2.718,1.125.777,2.347,1.425,3.381,2.319.41.354.835.697,1.213,1.081.517.526,1.032,1.062,1.485,1.638.766.975,1.484,1.983,2.218,2.98.567.77,1.037,1.59,1.358,2.477.287.792.543,1.594.476,2.451-.014.175.046.356.075.557-.051.172-.156.366-.158.561-.006.699-.305,1.322-.524,1.963-.669,1.955-1.808,3.669-3.16,5.241-.692.805-1.471,1.547-2.389,2.168-1.426.965-2.887,1.875-4.368,2.76-1.661.991-3.342,1.955-4.962,3.004-.996.645-1.961,1.363-2.818,2.164-1.175,1.098-2.038,2.428-2.645,3.895-.364.88-.622,1.787-.829,2.716-.11.495-.115,1.003-.25,1.481-.196.695-.147,1.418-.307,2.105-.285,1.228-.544,2.463-.974,3.66-.228.636-.285,1.327-.474,1.979-.246.848-.342,1.731-.634,2.564-.245.698-.468,1.402-.839,2.064-.457.82-.928,1.622-1.548,2.34-.492.569-1.051,1.073-1.663,1.523-.104.077-.25.102-.445.178-.231-.679-.462-1.312-.66-1.955-.318-1.037-.829-1.986-1.481-2.861-.506-.679-1.101-1.297-1.619-1.967-.944-1.22-1.917-2.418-2.751-3.716-.679-1.058-1.409-2.093-2.284-3.028-.894-.956-1.741-1.952-2.642-2.902-.666-.701-1.387-1.355-2.083-2.031-.085-.083-.162-.174-.246-.258-1.021-1.023-2.017-2.072-3.073-3.061-.718-.673-1.514-1.272-2.29-1.888-1.001-.794-1.968-1.621-2.897-2.493-.995-.933-2.053-1.806-3.08-2.709-.55-.484-1.09-.979-1.636-1.466-1.229-1.096-2.505-2.14-3.878-3.072-1.422-.965-2.944-1.795-4.285-2.873-.972-.781-1.973-1.53-2.961-2.293-1.242-.958-2.68-1.554-4.183-2.014-1.106-.338-2.221-.651-3.342-.94-.553-.143-1.128-.207-1.761-.319.193-.38.351-.742.554-1.082.596-.999,1.042-2.058,1.397-3.152Zm46.535-20.919c-.134-.209-.324-.435-.546-.535-1.116-.501-1.871-1.371-2.6-2.259-.211-.256-.384-.576-.382-.941,0-.154-.064-.308-.091-.429.274-.99.543-1.886,1.309-2.527.167-.139.414-.191.636-.288.407.425.656.885.774,1.353.16.638.525,1.057,1.081,1.356.267.02.51.039.74.056.506-.134.854-.428,1.094-.889.012-1.018.562-1.861,1.171-2.675.214-.286.546-.434.952-.454.588.358.869.991.608,1.613-.262.625-.384,1.262-.389,1.944.204.788.798,1.233,1.597,1.388.905.176,1.348.953,1.384,1.674.038.753-.243,1.414-.729,2.009-.434.532-1.02.732-1.69.711-.501-.016-1.001-.047-1.498-.217-.377-.129-.82-.082-1.268-.116-.701.226-1.219.643-1.317,1.391-.961-.271-1.89-.533-2.827-.798.008-.098.015-.187.021-.273.416.054.829.108,1.246.162.141-.047.286-.073.406-.141.448-.254.588-.696.319-1.115Zm-70.447,3.995c.418-.073.837-.178,1.231-.325.674-.251,1.401-.216,2.096-.335.881-.151,1.801-.273,2.715-.121.425.071.847.163,1.273.23.401.063.802.121,1.202.196.705.134,1.401.299,2.086.487.779.213,1.577.334,2.353.558.428.124.892.157,1.339.251.728.154,1.497.152,2.209.348.602.166,1.227.153,1.825.359.414.143.889.155,1.333.266.696.173,1.36.402,1.962.781.639.402,1.013.941,1.061,1.689.048.747.112,1.491.131,2.24.018.694.196,1.384.242,2.078.045.683.116,1.389-.015,2.049-.156.791-.273,1.597-.565,2.37-.239.631-.299,1.323-.48,1.977-.156.562-.367,1.111-.559,1.664-.458,1.32-1.235,2.477-2.075,3.593-.567.753-1.365,1.264-2.211,1.721-1.149.62-2.383,1.003-3.671,1.228-.511.089-1.053.058-1.579.035-.756-.033-1.51-.105-2.263-.167-.841-.069-1.672,0-2.509.064-.449.035-.906.018-1.361.051-.993.073-1.987.112-2.971.284-.58.101-1.175.133-1.762.201-.657.077-1.31.194-1.969.232-.791.046-1.586.028-2.38.037-.86-.04-1.649-.269-2.418-.636-.617-.294-1.06-.776-1.591-1.161-.616-.447-.796-1.087-.918-1.763-.091-.508-.181-1.019-.326-1.514-.23-.787.049-1.481.396-2.146.9-1.727,1.64-3.516,2.334-5.324.202-.527.341-1.081.454-1.634.204-1.001.492-1.976.823-2.943.329-.963.661-1.925.949-2.899.201-.681.597-1.273.869-1.92.018-.042.029-.087.047-.13.476-1.174,1.431-1.752,2.694-1.971Zm-61.662,52.986c.376-.837.431-1.727.464-2.615.012-.331-.059-.674-.145-.999-.221-.843-.577-1.632-1.145-2.328-.297-.364-.576-.741-.874-1.104-.824-1.006-1.864-1.803-2.865-2.636-.965-.804-1.93-1.606-2.769-2.533-1.198-1.322-2.414-2.629-3.584-3.973-.83-.953-1.558-1.978-2.05-3.134-.38-.894-.615-1.81-.506-2.782.037-.322.053-.646.078-.969.057-.752.278-1.466.557-2.163.368-.919.772-1.825,1.137-2.745.374-.943.68-1.908.982-2.876.303-.975.426-1.96.506-2.962.123-1.536-.288-2.962-1.02-4.318-.872-1.618-1.727-3.244-2.386-4.951-.531-1.376-.919-2.793-1.148-4.24-.13-.823-.217-1.654-.29-2.487-.118-1.349.02-2.681.218-3.99.323-2.145.944-4.228,2.202-6.074.502-.738,1.067-1.438,1.6-2.158,1.174-1.585,2.286-3.203,3.235-4.926,1.182-2.146,2.194-4.365,3.275-6.554,1.19-2.411,2.327-4.842,3.362-7.317.418-.999.746-2.024,1.079-3.051.374-1.154.697-2.323,1.109-3.468.359-.996.538-2.049.863-3.058.283-.881.455-1.787.744-2.668.292-.89.737-1.627,1.414-2.304.795-.795,1.712-1.377,2.757-1.801.437-.178.911-.208,1.381-.281,1.154-.179,2.173.217,3.197.563,1.202.407,2.399.855,3.539,1.4,1.127.539,2.251,1.103,3.269,1.834.456.327.961.594,1.443.889.825.505,1.645,1.015,2.474,1.513.99.595,1.972,1.206,2.987,1.76,1.136.62,2.309,1.178,3.46,1.774,1.85.958,3.578,2.097,5.315,3.229,1.602,1.044,3.118,2.193,4.675,3.289,1.002.705,1.992,1.429,2.951,2.185.814.642,1.6,1.322,2.358,2.025,1.06.982,2.097,1.986,3.112,3.008.449.452.801.989,1.236,1.455.888.953,1.548,2.052,2.247,3.123.795,1.219,1.569,2.454,2.265,3.725.827,1.509,1.531,3.078,2.347,4.594.425.79.969,1.524,1.468,2.277.858,1.295,1.725,2.586,2.592,3.884-.901.516-1.646,1.065-2.313,1.742-.823.834-1.543,1.734-2.116,2.723-.853,1.471-1.574,3.004-2.164,4.596-.383,1.033-.819,2.05-1.141,3.103-.186.603-.422,1.188-.545,1.814-.134.682-.397,1.34-.561,2.018-.129.531-.199,1.076-.284,1.617-.103.655-.267,1.311-.271,1.968-.005.851-.089,1.732.365,2.532.147.26.29.534.492.753.464.503.965.974,1.447,1.462.094.095.171.205.308.37-.372.078-.666.132-.955.202-1.853.449-3.711.882-5.555,1.36-.981.254-1.948.563-2.904.892-1.585.546-3.172,1.089-4.726,1.706-1.314.523-2.604,1.111-3.864,1.74-1.433.715-2.879,1.405-4.338,2.071-1.973.9-4.002,1.695-5.872,2.787-.347.202-.701.396-1.023.63-.749.544-1.483,1.106-2.218,1.668-1.075.821-2.106,1.7-3.228,2.459-1.382.935-2.704,1.934-3.964,3.006-.644.548-1.204,1.184-1.852,1.727-.814.684-1.674,1.319-2.525,1.964-.395.299-.818.565-1.218.858-.689.505-1.39.998-2.047,1.538-1.001.823-1.929,1.718-2.821,2.648-.678.707-1.39,1.384-2.061,2.098-.411.437-.772.915-1.182,1.408.005-.185-.041-.377.024-.523Zm43.319-25.331c-.017.011-.033.022-.049.034-.014-.008-.027-.016-.041-.024.017-.018.034-.036.051-.054.013.015.026.03.039.045Zm-31.264,24.293c-.555.65-1.097,1.31-1.634,1.972-.852,1.048-1.942,1.818-3.189,2.376-.962.431-1.93.869-2.987,1.078-.881.174-1.762.344-2.673.325-.376-.007-.753.053-1.217.089.392-.767.884-1.358,1.322-1.982.638-.908,1.402-1.715,2.173-2.518.324-.337.674-.651,1.018-.971.791-.736,1.594-1.462,2.377-2.207.712-.677,1.401-1.374,2.102-2.062.067-.066.14-.127.213-.189,1.116-.954,2.231-1.908,3.347-2.86,1.208-1.029,2.387-2.09,3.635-3.073.866-.683,1.825-1.26,2.745-1.881.646-.437,1.288-.878,1.944-1.301,1.05-.678,2.098-1.359,3.168-2.008,1.548-.938,3.206-1.683,4.863-2.429,2.364-1.063,4.769-2.051,7.008-3.349.894-.518,1.806-1.009,2.736-1.466.95-.467,1.931-.879,2.9-1.309.059-.026.144,0,.215,0,.091-.179.232-.268.443-.232.003-.007.009-.009.012-.016.005,0,.012.002.018.002.042-.155.165-.117.278-.105.001-.006.005-.007.006-.014.014-.005.022-.008.033-.012h0c.022-.035.014-.022,0,0,.041-.015.025-.009,0,0-.006.009-.011.017-.018.029-.007,0-.014-.002-.021-.003-.036.164-.166.114-.278.105-.001.005-.004.006-.005.012-.01-.002-.015.004-.024.002-.079.186-.211.287-.438.237-.116.109-.214.244-.349.322-.898.516-1.814,1.003-2.703,1.533-.71.424-1.397.883-2.077,1.35-1.151.79-2.277,1.612-3.433,2.396-1.053.714-2.132,1.394-3.2,2.09-1.78,1.159-3.434,2.466-5.031,3.839-.983.846-1.922,1.737-2.889,2.6-.687.613-1.395,1.205-2.079,1.821-.751.677-1.483,1.374-2.231,2.053-.628.571-1.244,1.158-1.91,1.687-1.539,1.221-2.91,2.592-4.17,4.066Zm-2.997,103.089c-1.228-.132-2.375.103-3.498.51-.822.298-1.628.635-2.45.931-.931.334-1.864.666-2.813.953-1.315.399-2.582.903-3.829,1.457-.862.383-1.735.742-2.589,1.139-.983.457-1.949.947-2.926,1.416-.42.202-.85.388-1.343.613.081-.253.127-.468.216-.665.391-.866.668-1.765.941-2.67.384-1.268.851-2.513,1.259-3.775.242-.75.432-1.517.659-2.272.24-.796.521-1.582.741-2.383.192-.699.274-1.428.5-2.115.171-.522.158-1.069.363-1.587.165-.416.135-.889.26-1.337.232-.825.353-1.677.63-2.495.138-.406.171-.844.267-1.265.112-.483.243-.962.364-1.443.022-.088.04-.178.055-.267.165-1.005.372-2.001.653-2.984.112-.391.123-.801.236-1.203.282-.997.499-2.011.816-3.003.275-.86.433-1.753.667-2.626.169-.629.391-1.246.562-1.874.089-.327.087-.665.213-.998.166-.442.179-.935.286-1.4.096-.416.227-.825.352-1.234.106-.347.083-.709.229-1.064.179-.434.181-.934.287-1.399.106-.461.257-.912.365-1.372.109-.464.164-.941.29-1.401.136-.5.18-1.018.377-1.509.142-.355.095-.753.226-1.135.191-.555.18-1.171.32-1.745.2-.82.168-1.678.463-2.479.016-.042.012-.091.017-.137.118-.886.206-1.777.362-2.656.131-.735.225-1.477.426-2.204.131-.478.116-.991.28-1.476.253-.749.303-1.547.595-2.291.132-.335.1-.707.225-1.064.179-.51.199-1.072.301-1.609.054-.288.146-.569.206-.857.061-.287.061-.573.181-.866.16-.391.129-.841.254-1.266.229-.782.302-1.606.51-2.395.242-.919.42-1.852.655-2.771.39-1.525.798-3.051,1.38-4.518.59-1.485,1.246-2.951,1.957-4.387.815-1.644,1.758-3.231,2.579-4.873.524-1.048.94-2.145,1.38-3.23.228-.563.398-1.147.601-1.719.242-.682.401-1.386.61-2.073.152-.502.116-1.03.347-1.523.168-.358.135-.795.241-1.198.185-.705.196-1.451.349-2.166.186-.869.223-1.759.462-2.623.169-.614.171-1.269.324-1.889.153-.616.179-1.253.399-1.861.129-.357.147-.753.235-1.131.297-1.275.648-2.532,1.016-3.789.468-1.601,1.022-3.167,1.714-4.687.586-1.285,1.395-2.455,2.187-3.632.472-.7,1.093-1.258,1.733-1.816,1.082-.943,2.107-1.944,3.157-2.92.07-.064.145-.123.216-.186.585-.515,1.146-1.058,1.76-1.538.818-.639,1.676-1.232,2.522-1.839.422-.304.846-.608,1.283-.892,1.226-.796,2.471-1.566,3.688-2.375,2.018-1.343,4.17-2.479,6.28-3.681,1.988-1.132,3.945-2.313,5.918-3.469.324-.19.658-.368.994-.54.049-.025.127,0,.196.009l.006-.01c.012-.005.018-.008.028-.012h0c.023-.037.014-.023,0,0,.041-.018.026-.011,0,0-.005.008-.009.015-.016.025-.006,0-.012-.002-.018-.003-.308.449-.638.885-.917,1.349-.356.591-.565,1.238-.635,1.919-.058.552-.127,1.108-.118,1.661.014.879.142,1.751.299,2.619.209,1.16.672,2.251,1.037,3.368.324.991.705,1.965,1.052,2.95.135.384.225.784.378,1.162.704,1.737,1.382,3.487,2.42,5.081.482.74,1.04,1.436,1.529,2.172.422.636.835,1.282,1.183,1.956.525,1.02,1.026,2.054,1.473,3.106.686,1.613,1.156,3.288,1.46,5.002.137.775.269,1.55.399,2.325.012.067-.005.138-.005.208-.005.709.008,1.418-.02,2.126-.028.693-.098,1.385-.151,2.077-.053.692-.085,1.387-.169,2.076-.099.819-.235,1.633-.354,2.448-.135.92-.332,1.835-.504,2.751-.099.525-.149,1.069-.358,1.587-.177.437-.13.954-.296,1.396-.194.518-.097,1.092-.385,1.582-.022.037-.015.09-.021.136-.121.909-.237,1.818-.365,2.726-.079.565-.192,1.126-.261,1.693-.067.551-.024,1.124-.163,1.655-.166.631-.135,1.28-.282,1.899-.242,1.016-.186,2.065-.397,3.073-.19.909-.237,1.822-.302,2.736-.062.868-.133,1.748-.047,2.611.199,1.985.007,3.95-.206,5.91-.064.591-.158,1.206-.377,1.791-.174.463-.167.986-.29,1.471-.162.637-.155,1.308-.42,1.924-.035.082-.02.183-.034.275-.1.655-.169,1.316-.309,1.962-.177.822-.334,1.646-.491,2.472-.173.916-.343,1.833-.515,2.749-.106.564-.083,1.158-.271,1.685-.276.77-.071,1.606-.435,2.348-.01.02-.005.046-.009.069-.122.932-.235,1.865-.368,2.795-.143.999-.277,2-.411,3-.072.538-.074,1.115-.261,1.615-.246.658-.059,1.378-.406,2.002-.031.057-.019.136-.024.206-.06.773-.242,1.521-.452,2.267-.104.369-.124.756-.224,1.135-.201.763-.424,1.521-.613,2.285-.19.768-.407,1.527-.647,2.279-.397,1.241-.863,2.463-1.239,3.709-.175.581-.385,1.153-.514,1.753-.185.854-.504,1.681-.743,2.524-.228.803-.419,1.616-.645,2.419-.249.889-.529,1.77-.775,2.66-.168.611-.266,1.24-.455,1.844-.215.69-.295,1.41-.569,2.087-.127.311-.09.662-.214.998-.179.486-.202,1.024-.297,1.54-.077.425-.172.847-.238,1.274-.063.405-.018.828-.231,1.207-.021.038-.011.091-.016.137-.135,1.094-.213,2.198-.425,3.277-.165.838-.159,1.697-.353,2.517-.134.566-.157,1.132-.243,1.695-.079.518-.188,1.033-.254,1.553-.064.505-.015,1.033-.15,1.517-.163.584-.117,1.193-.275,1.759-.242.874-.309,1.777-.577,2.653-.202.662-.33,1.365-.507,2.043-.23.885-.393,1.774-.518,2.679-.074.539-.121,1.061-.127,1.607-.015,1.248-.158,2.493-.254,3.739-.003.038-.051.072-.091.126-.276-.169-.566-.322-.829-.51-1.283-.921-2.573-1.833-3.83-2.784-.716-.541-1.365-1.162-2.062-1.726-.714-.577-1.453-1.125-2.173-1.694-.149-.118-.263-.275-.4-.408-.712-.692-1.426-1.384-2.14-2.074-.341-.329-.698-.642-1.023-.984-1.292-1.36-2.611-2.7-3.848-4.104-.902-1.023-1.672-2.149-2.536-3.202-.67-.817-1.307-1.652-1.877-2.534-.642-.993-1.324-1.963-1.953-2.964-.563-.898-1.25-1.683-2.053-2.4-.669-.598-1.366-1.156-2.089-1.691-.852-.631-1.802-.991-2.883-1.107Z" stroke-width="0"/>
      <path d="m61.743,75.425c-.011.004-.02.007-.033.012-.001.007-.005.008-.006.014.007,0,.014.002.021.003.007-.012.012-.019.018-.029Z" stroke-width="0"/>
      <path d="m68.614,75.811c-.009.004-.016.007-.028.012l-.006.01c.006,0,.012.003.018.003.007-.01.01-.016.016-.025Z" stroke-width="0"/>
      <path d="m120.195,88.941c-.015-.008-.026-.015-.037-.021.005.011.01.023.017.038.045.05.091.1.136.149.009.01.018.02.027.031-.003-.016-.004-.032-.007-.048-.045-.05-.09-.1-.135-.15Z" stroke-width="0"/>
      <path d="m99.447,71.764c-.051.043-.103.086-.155.129-.005.007-.005.013-.009.02.009-.001.017-.002.026-.003.052-.042.105-.084.158-.126.051-.043.104-.087.156-.13.003-.008.011-.01.015-.018-.012-.002-.018.005-.03.003-.053.042-.106.084-.16.126Z" stroke-width="0"/>
      <path d="m44.537,111.662c.161,1.025.508,1.928,1.241,2.706.98,1.041,2.257,1.395,3.642,1.334,1.074-.047,2.087-.414,3.017-.94.611-.345,1.218-.697,1.814-1.039.37.221.705.447,1.064.627.61.306,1.247.62,1.921.695.955.107,1.911.223,2.895.128,1.43-.139,2.674-.624,3.776-1.454.874-.658,1.54-1.491,2.047-2.43.192-.356.386-.738.441-1.127.075-.528.176-1.055.173-1.601-.003-.531-.049-1.043-.213-1.542-.416-1.275-1.185-2.272-2.53-2.78.059-.266.081-.541.181-.786.402-.986.141-1.932-.267-2.831-.434-.955-1.276-1.581-2.33-1.777-1.106-.205-2.244-.275-3.349.115-.46.162-.956.235-1.437.349-.411-.789-.944-1.46-1.672-1.985-.616-.444-1.297-.793-2.043-.943-.68-.137-1.389-.184-2.086-.036-1.086.23-2.124.573-2.929,1.333-.754.711-1.195,1.548-.993,2.613.166.876.762,1.382,1.761,1.419.163-.139.341-.291.506-.432.029-.378.055-.724.083-1.089.464-.471,1.064-.459,1.664-.344.391.074.77.221,1.148.353.414.144.69.441.786.835.156.634.113,1.251-.311,1.805-.477.624-.766,1.31-.679,2.042.18.755.628,1.235,1.378,1.523.353.027.766.058,1.147.087.603-.237,1.026-.621,1.425-1.064.386-.427.549-.942.786-1.428.154-.316.345-.601.644-.795.61-.397,1.259-.729,1.997-.866.176-.033.362-.022.544-.032.005.753-.342,1.725-.795,2.317-.265.346-.517.701-.735.997-.027.356-.049.633-.063.825.156.744.596,1.162,1.106,1.354,1.319.342,2.108-.318,2.885-.976.259.02.498.038.732.056.685.572.821,1.331.642,2.076-.274,1.14-.913,2.122-1.824,2.922-.911.8-1.994,1.142-3.242,1.246-.807.067-1.49-.171-2.229-.32-.556-.112-1.013-.396-1.508-.607-.376-.159-.69-.156-1.032-.02-.175.07-.339.167-.505.257-.987.53-2.053.808-3.187.834-.505.012-.996-.106-1.491-.228-.542-.134-.879-.411-1.111-.879-.242-.49-.271-1.008-.277-1.522-.009-.71.244-1.377.422-2.059.215-.815.513-1.589.948-2.311.293-.486.662-.931.787-1.631-.127-.202-.321-.507-.47-.744-.743-.186-1.295.025-1.804.34-.594.368-1.074.871-1.395,1.457-.537.981-.93,2.018-1.009,3.145-.025.359-.251.735-.18,1.064.127.592,0,1.173.093,1.766Z" stroke-width="0"/>
      <path d="m27.696,144.945c1.418.339,2.535-.084,3.56-.776.669-.451,1.294-.958,1.942-1.436.123-.091.262-.164.398-.248.198.492.334.955.562,1.373.67,1.228,1.517,2.232,3.064,2.596.843.199,1.546.084,2.262-.246.898-.415,1.54-1.104,1.969-1.929.552-1.06.665-2.162-.071-3.228-.115-.167-.25-.323-.374-.482.424-.255.79-.508,1.185-.708,1.102-.56,1.967-1.372,2.747-2.274.492-.57.839-1.242.85-1.969.016-.964-.459-1.759-1.346-2.285-1.057-.627-2.215-.704-3.39-.467-.641.129-1.257.37-1.908.569-.047-.1-.116-.24-.18-.382-.253-.565-.642-.998-1.218-1.309-.663-.357-1.382-.512-2.111-.608-.445-.059-.91-.013-1.362.023-.949.077-1.847.345-2.537.971-.938.85-1.521,1.9-1.611,3.161-.024.323-.049.646-.072.951.136.24.261.459.401.704-.166.099-.336.184-.488.292-.733.524-1.449,1.061-2.065,1.718-.758.809-1.265,1.739-1.576,2.768-.218.72-.136,1.424.196,2.123.269.568.775.85,1.174,1.098Zm.512-2.815c.315-.784.798-1.487,1.349-2.134.709-.834,1.466-1.627,2.334-2.322.434-.347.903-.585,1.492-.668.207-.16.431-.333.647-.5-.43-.71-.838-.852-1.555-.56-.197.081-.379.194-.605.311-.089-.37.009-.674.165-.985.226-.451.522-.85.831-1.252.438-.569,1.038-.862,1.731-.982.625-.108,1.273-.261,1.888.083.179.101.351.215.479.295.057.32.1.564.145.816-.271.479-.168,1.024-.272,1.6.17.255.36.541.548.823.379.029.716.055,1.132.086.263-.254.546-.567.873-.833.746-.608,1.537-1.145,2.564-1.259.424-.047.812-.135,1.252.077.747.361.999.806.661,1.51-.146.304-.341.598-.569.851-.564.626-1.227,1.153-1.984,1.56-.723.39-1.466.749-2.143,1.093-1.001-.097-1.926-.199-2.653.583-.016.203-.033.43-.055.714.131.146.289.322.4.446.543.117,1.007.141,1.443-.011.658-.228,1.119-.007,1.486.506.027.039.052.078.095.142-.078,1.278-.714,2.221-1.795,2.693-.236-.018-.479-.036-.726-.055-1.135-.52-1.535-1.492-1.732-2.573-.073-.4-.068-.813-.108-1.349-.141-.245-.348-.603-.56-.97.545-.271,1.122-.594,1.731-.851.587-.247.75-.733.867-1.242.104-.459-.221-.773-.521-1.069-.21-.082-.408-.159-.593-.231-1.19.234-1.237.365-1.787,1.215-.016.199-.031.406-.047.618.086.136.172.272.263.417-.141.337-.28.669-.436,1.04-.215-.016-.452-.034-.703-.053-.236.183-.464.352-.682.53-.718.587-1.439,1.17-2.143,1.77-.487.415-1.032.739-1.603,1.036-.33.171-.655.27-1.055.159-.32-.337-.189-.726-.047-1.078Z" stroke-width="0"/>
      <path d="m54.55,196.342c-.487-.034-.972-.079-1.46-.107-.189-.01-.382.003-.57.026-1.011.123-1.973.388-2.821.957-.42-.599-.892-1.076-1.623-1.368-.269-.02-.609-.052-.95-.07-.191-.01-.392-.03-.573.013-.551.13-1.096.271-1.618.501-1.072.472-1.949,1.125-2.474,2.154-.48.939-.513,1.863.09,2.763-.305.255-.609.521-.925.771-.829.655-1.464,1.423-1.64,2.47-.357.49-.149,1.025-.079,1.529.076.548.671.974,1.279,1.051.683.087,1.328.025,1.96-.265.898-.412,1.82-.779,2.732-1.165.577,1.106,1.459,1.94,2.659,2.477.502.224,1.001.429,1.564.458.162.008.32.094.483.115.309.04.619.071.93.081.188.006.378-.058.566-.048.461.024.911-.052,1.328-.201,1.158-.41,2.121-1.049,2.597-2.201.031-.407.063-.822.095-1.236-.133-.63-.65-1.018-1.038-1.482.459-.526.926-1.03,1.226-1.658.285-.595.505-1.2.698-1.83.2-.652.134-1.264-.012-1.871-.246-1.024-1.362-1.791-2.422-1.864Zm-.616,5.809c-.435.598-1.03.784-1.706.827-.812.051-1.477.34-2.045.913-.021.281-.044.579-.072.956.184.163.408.361.595.526.406.031.746.057,1.139.087.51-.362,1.028-.231,1.586.149-.355.613-.966.826-1.554.948-1.104.229-2.193.118-3.161-.534-.544-.366-.992-.815-1.236-1.408-.135-.327-.28-.633-.598-.877-.167-.066-.364-.144-.571-.226-.833.15-1.521.615-2.269.946-.496.22-.965.492-1.461.709-.315.138-.659.218-1.008.33-.099-.484.09-.873.299-1.256.279-.511.667-.936,1.134-1.303.243-.191.46-.411.712-.64.216.066.41.089.561.179.397.236.855.304,1.288.388.353.069.745-.047,1.137-.083.123.333.412.599.836.807.215.016.482.037.761.058.616-.214,1.078-.551,1.114-1.259.037-.705-.052-.887-.836-1.375-.366.004-.794.009-1.38.015.043.028-.053-.034-.172-.11-.291.114-.596.234-.875.343-.619-.222-1.026-.638-1.4-1.145.015-.198.032-.425.051-.677.499-.941,1.338-1.456,2.451-1.597.098.088.174.146.237.214.064.069.114.149.11.143.06.47.108.851.152,1.198.198.236.366.435.523.62.313.024.577.044.967.074.308-.182.715-.415,1.112-.66.741-.457,1.504-.848,2.378-1.058.622-.15,1.229-.157,1.9-.067.137.144.299.314.47.494.003,1.25-.427,2.335-1.168,3.351Z" stroke-width="0"/>
      <path d="m60.06,149.687c-.644-.448-1.364-.763-2.112-.952-.572-.145-1.208-.152-1.802-.096-.859.081-1.531.494-1.855,1.367-.011.146-.026.352-.043.559.135.847.888,1.088,1.501,1.428.376.029.716.054,1.049.08.424-.229.705-.551.816-1.042.467.198.939.351,1.36.586.995.556,1.672,1.376,2.045,2.411.508,1.412.557,2.34.075,3.705-.09.253-.187.503-.276.745-.542.002-.747.327-.938.746.111,1.066-.419,1.925-1.255,2.7-.336.126-.71.266-1.053.394-.688-.24-1.162-.632-1.441-1.231-.106-.228-.244-.444-.336-.676-.207-.529-.524-.981-.992-1.366-.247-.019-.514-.039-.86-.065-.183.116-.433.25-.655.418-.341.259-.662.543-.995.811-.183.148-.398.219-.628.299-.451.157-.866-.023-1.355.017-.25-.229-.522-.477-.75-.686.024-.321.042-.552.06-.784.712-1.238,1.749-2.208,2.826-3.153.608-.533,1.29-.836,2.095-.804.358-.396.328-.771.03-1.141-.199-.246-.462-.391-.793-.432-.847-.106-1.6.171-2.338.498-1.068.473-1.949,1.206-2.749,1.994-1.012.996-1.638,2.182-1.473,3.65.072.638.312,1.2.743,1.665,1.085,1.173,2.468,1.492,4.037,1.184.845-.166,1.557-.567,2.189-1.136.619.873,1.248,1.657,2.233,2.143.644.317,1.246.366,1.92.118.807-.297,1.345-.853,1.8-1.507.262-.377.516-.76.74-1.158.121-.214.268-.38.503-.463.361-.129.575-.4.771-.689.611-.904.938-1.923,1.124-2.963.261-1.463.026-2.887-.649-4.252-.59-1.193-1.456-2.146-2.571-2.921Z" stroke-width="0"/>
      <path d="m30.764,177.272c-.205-1.102-.825-1.972-1.714-2.624-1.037-.759-2.233-1.208-3.576-1.283-.785-.044-1.506.13-2.106.525-.886.583-1.744,1.235-2.217,2.273-.024.312-.052.681-.075.988.1.603.53.861.998,1.067.436.192.777-.107,1.126-.221.297-.294.454-.598.262-.987.569-.488,1.23-.745,1.984-.879,1.07-.19,2.197.329,2.682,1.254.332.633.196,1.242.07,1.87-.058.289-.2.607-.123.865.098.331.066.637.037.95-.066.705-.074,1.412-.28,2.109-.175.59-.375,1.152-.705,1.678-.247.393-.59.583-1.069.543-1.082-.089-1.941-.488-2.336-1.538-.22-.123-.445-.249-.6-.335-.779.05-1.126.612-1.71.994-.037-.357-.158-.672-.081-.932.185-.624.396-1.25.846-1.768.253-.292.476-.609.687-.882-.362-.856-.584-.956-1.444-.774-1.081.23-1.707.964-2.164,1.821-.424.797-.568,1.664-.37,2.576.253,1.158,1.117,2.399,2.772,2.267.223-.116.529-.247.802-.426.29-.191.547-.427.783-.615.299.192.556.361.816.524,1.022.641,2.126.855,3.331.641.941-.167,1.67-.653,2.344-1.257.95-.851,1.518-1.923,1.762-3.104.282-1.367.044-2.712-.691-3.927.009-.483.047-.929-.039-1.392Z" stroke-width="0"/>
      <path d="m55.989,110.108c.026-.344.052-.688.068-.89-.191-.839-.709-1.257-1.342-1.566-.274-.021-.539-.041-.67-.051-.667.132-1.084.426-1.502.894-.064.357-.143.8-.211,1.179.422.801.875,1.382,1.86,1.429.874.042,1.392-.348,1.797-.996Z" stroke-width="0"/>
      <path d="m55.061,158.496c.325.025.616.047.902.069.372-.09.655-.273.777-.617.116-.608.022-1.108-.688-1.329-.211-.016-.429-.032-.663-.05-.601.173-.886.66-1.185,1.055.315.321.592.604.856.873Z" stroke-width="0"/>
      <path d="m22.004,77.74c.837.581,1.778.937,2.818.841.766-.071,1.517-.273,2.322-.426-.081.647-.087,1.295.077,1.952.169.678.501,1.23,1.068,1.69.37.028.756.058,1.164.089.263-.134.557-.247.806-.416.956-.65,1.661-1.496,2.114-2.531.051-.116.168-.205.244-.295.493.14.941.337,1.405.382.789.076,1.575.162,2.386.082,1.934-.19,3.496-.937,4.691-2.399.827-1.012,1.346-2.106,1.408-3.411.038-.794-.075-1.527-.42-2.252-.552-1.162-1.514-1.796-2.793-2.025-.299-.053-.618.009-.928.013-.211.003-.422-.001-.659-.003.081-.471.144-.85.211-1.228.016-.089.054-.174.07-.262.053-.314.15-.63.142-.943-.014-.517-.102-1.032-.152-1.549-.104-1.093-.506-2.062-1.277-2.903-.909-.99-2.015-1.303-3.338-1.011-.681.151-1.296.42-1.892.769-1.814,1.064-2.985,2.56-3.471,4.517-.561.058-1.104.097-1.64.174-.888.127-1.665.521-2.409.969-.858.516-1.69,1.075-2.298,1.859-.661.853-1.297,1.731-1.414,2.837-.409.739-.246,1.546-.123,2.285.209,1.25.751,2.405,1.89,3.195Zm1.099-4.925c.145-.461.329-.892.58-1.295.607-.974,1.519-1.637,2.587-2.098.402-.173.846-.319,1.399-.159.067.233.207.507.213.782.02.86.533,1.273,1.342,1.442-.144.191-.284.375-.403.531-.278,1.053-.131,1.914,1.223,2.408.196-.013.575-.038.921-.06,1.035-.754.766-.504,1.125-1.329.283-.146.528-.273.75-.388.056-.537-.124-.896-.575-1.144-.473-.261-.882-.636-1.519-.657.064-.179.117-.298.15-.421.1-.377.125-.742.041-1.143-.329-1.583.047-2.994,1.141-4.248.51-.585,1.163-.935,1.841-1.299.515-.084.838.153,1.081.585.369.657.54,1.353.523,2.086-.012.508-.022,1.025-.123,1.521-.152.747-.383,1.48-.575,2.201-.85.375-1.314,1.037-1.764,1.727-.02.266-.041.542-.07.911.15.221.343.505.533.787.403.031.764.058,1.15.088.706-.217,1.14-.768,1.537-1.332.174-.246.379-.388.647-.502.803-.34,1.621-.63,2.564-.701.2.108.449.243.704.38.599.952.573,1.935.263,2.961-.146.484-.337.941-.624,1.352-.633.906-1.584,1.332-2.682,1.535-.752.14-1.502.059-2.238-.054-.614-.094-1.151-.43-1.634-.808-.298-.233-.564-.503-.844-.756-.301-.023-.592-.045-.884-.067-.638.087-.881.569-1.141,1.031-.422.752-.739,1.548-1.066,2.341-.065.159-.158.307-.256.492-.224-.774-.069-1.49.144-2.17.213-.68.399-1.413,1.129-1.857q-.122-.403-.475-.775c-.734-.187-1.206.204-1.592.735-.27.37-.504.763-.77,1.169-.726-.485-1.577-.602-2.419-.761-.582-.11-1.158-.25-1.69-.366-.601-.9-.532-1.762-.245-2.676Z" stroke-width="0"/>
      <path d="m46.341,58.228c1.372,1.772,3.294,2.715,5.51,3.062,1.184.186,2.401.328,3.623.176.76-.094,1.506-.2,2.187-.541.519-.26.992-.574.987-1.221-.326-.442-.679-.633-1.294-.496-.661.147-1.356.204-2.06.167-1.261-.066-2.465-.369-3.653-.723-1.08-.322-2.046-.85-2.82-1.687-.544-.588-.86-1.26-1.121-2.006.024-.32.049-.666.077-1.011.07-.88.55-1.526,1.271-2.041.338-.241.724-.27,1.102-.174.339.087.661.245.98.395.363.171.711.371,1.069.554.699.356,1.327.23,1.929-.215.485-.359.793-.848,1.12-1.319.391-.564.894-1.014,1.442-1.427.255-.192.54-.292.879-.209.61.473.986,1.065,1.184,1.807.126.474.113.943.191,1.406.091.543.028,1.038-.141,1.516.028.223.063.424.078.627.05.687.664,1.282,1.368,1.395.687.11,1.329-.11,1.986-.183.681-.076,1.177.158,1.735.544-.714,1.021-1.394,1.995-2.044,2.926-.02.259-.036.464-.047.616.186.515.37.967,1.046,1.16.992.135,1.127.088,1.881-.312.782-.415,1.473-.956,2.028-1.633.76-.927.867-2.323.307-3.271-.347-.588-.852-1.015-1.359-1.419-.633-.504-1.339-.919-2.179-1.136-.492-.127-.997-.112-1.47-.25-.079-.509-.149-.998-.234-1.485-.253-1.454-.848-2.774-1.992-3.786-1.223-1.083-2.521-1.339-4.025-.72-.932.383-1.673,1.044-2.307,1.803-.321.385-.664.752-.959,1.084-.493-.18-.908-.35-1.334-.484-.697-.22-1.366-.433-2.153-.329-.849.112-1.582.389-2.198.895-1.475,1.213-2.092,2.821-1.973,4.635.079,1.21.62,2.323,1.385,3.312Z" stroke-width="0"/>
      <path d="m23.846,35.423c.381.349.738.733,1.154,1.044,1.166.871,2.445,1.087,3.83.536.886-.353,1.607-.907,2.193-1.619.808-.983,1.322-2.082,1.378-3.346.011-.245-.06-.492-.079-.739-.091-1.123-.705-1.969-1.611-2.64-.895-.662-1.946-.958-3.057-1.06-.443-.041-.891-.027-1.357-.039.095-.254.239-.497.271-.753.081-.634.222-1.287.135-1.908-.141-.998-.789-1.737-1.704-2.264-.435-.251-.904-.38-1.38-.534-.819-.265-1.598-.178-2.401-.05-1.089.173-2.093.574-3.096.982-.5.204-.9.513-1.098.973-.02.269-.038.499-.061.796.175.198.378.428.54.612.48.037.885.144,1.255.081.935-.159,1.863-.132,2.799-.05.192.017.397.046.577,0,.51-.13.997.021,1.603.019-.326.7-.612,1.306-.889,1.916-.3.658-.773,1.267-.628,2.058.156.437.498.747,1.008,1.052.481-.031,1.06-.022,1.619-.114,1.045-.17,2.091-.276,3.143-.114.705.109,1.361.336,1.551,1.12.021.086.078.165.1.209.043.892-.237,1.648-.745,2.336-.389.527-.8,1.013-1.498,1.208-.275.077-.479.057-.743-.065-.533-.246-.898-.657-1.179-1.1-.303-.477-.683-.819-1.204-1.057-.255-.019-.521-.04-.842-.064-.225.149-.514.286-.725.494-.38.374-.714.789-1.065,1.19-.565.645-1.096,1.319-1.699,1.929-.648.655-1.465,1.09-2.374,1.36-.7-.069-.921-.231-1.101-.862-.093-.324-.144-.659-.209-.969.362-1.164.827-2.263,1.504-3.182.327-.158.578-.279.798-.385.082-.819.053-.858-.844-1.245-.976.253-.924.266-1.678,1.07-.159.169-.322.338-.456.524-.666.922-1.191,1.886-1.24,3.051-.043,1.024.253,1.944.881,2.744.852,1.085,2.033,1.362,3.388,1.071,1.026-.22,1.921-.692,2.716-1.313,1.041-.812,1.808-1.852,2.521-2.903Z" stroke-width="0"/>
      <path d="m49.688,36.274c.934.905,2.022,1.532,3.394,1.605.439.024.876.07,1.314.092.139.007.281-.029.434-.047.046.168.152.365.144.557-.03.693.246,1.304.629,1.848.666.945,1.554,1.622,2.811,1.722.389.031.778.06,1.11.085.169-.054.283-.085.394-.126.935-.345,1.637-.919,2.007-1.826.039-.095.157-.16.227-.229,1.358.493,2.28.265,3.105-.618,1.304-1.396,1.666-3.078,1.257-4.892-.318-1.408-1.223-2.468-2.507-3.2-1.466-.836-3.042-1.414-4.769-1.531-.842-.057-1.684-.189-2.529-.047-.37.062-.737.135-1.089.2-.615-.626-1.278-.909-2.2-.751-2.15.367-3.658,1.482-4.566,3.324-.351.711-.368,1.496-.191,2.277.144.637.568,1.113,1.026,1.556Zm2.713-4.641c-.028.369-.049.641-.07.925.144.169.259.354.421.485.287.23.613.307,1.006.238.575-.101,1.008-.403,1.468-.813.782-.115,1.616-.298,2.46-.344.699-.038,1.408.097,2.114.132.849.042,1.636.278,2.409.601,1.215.509,1.986,1.604,1.781,2.898-.146.914-.559,1.758-1.233,2.447-.255-.282-.485-.535-.678-.747-.331-.025-.574-.044-.801-.061-.577.085-.846.503-1.135.89-.165.221-.323.45-.443.694-.214.43-.539.749-.977,1.007-.744-.085-1.113-.64-1.552-1.175.003-.109.007-.245.011-.376.202-.175.399-.345.609-.525.018-.223.035-.451.053-.697-.311-.424-.634-.845-1.276-.899-.2-.017-.389-.167-.594-.261-1.65.35-4.374-.745-5.06-2.055.016-1.068.732-1.666,1.485-2.362Z" stroke-width="0"/>
      <path d="m54.324,54.528c-.578-.043-.974.183-1.321.574-.024.313-.048.632-.077,1.011.299.259.615.532.868.751.304.023.498.038.591.045.921-.184,1.454-.594,1.353-1.446.326-.441.619-.853.576-1.477-.4.136-.708.255-1.026.343-.317.088-.649.221-.965.198Z" stroke-width="0"/>
      <path d="m124.162,171.277c-.512-.025-.987.098-1.464.241-.573.172-1.068.478-1.567.831-.388-.783-.908-1.407-1.587-1.906-.697-.512-1.507-.768-2.292-.904-.395.024-.728.043-1.222.073-.368.18-.931.36-1.372.688-1.661,1.235-1.95,2.982-1.846,4.85.017.292.065.582.109.872.121.798.491,1.509.894,2.208-1.25.267-2.527.886-3.425,1.761-.894.872-1.179,1.967-.938,3.148.362,1.779,1.608,2.905,3.244,3.699.754.365,1.548.605,2.416.597.17.904.725,1.545,1.44,2.087,1.576,1.195,3.38,1.417,5.291,1.134,1.216-.18,2.234-.727,3.151-1.503,1.35-1.142,2.025-2.59,2.266-4.253.085-.587-.043-1.174-.115-1.758-.043-.358-.081-.716-.121-1.073.889-.546,1.728-.997,2.412-1.706.972-1.007,1.623-2.109,1.689-3.493.02-.413.11-.842.029-1.239-.249-1.219-.874-2.235-1.945-3.003-1.271-.911-2.731-1.267-4.269-1.411-.256-.024-.521.072-.779.06Zm3.873,4.011c.194.284.344.594.483.839,0,.597-.06,1.108-.326,1.589-.406.733-1.03,1.243-1.799,1.586-.944.422-1.911.797-2.948.976-.718.124-1.234.46-1.426,1.16-.005.021-.026.038-.064.091.095.296.197.615.29.906.271.162.495.296.762.455.437.033.92.07,1.378.105.372.548.238,1.167.386,1.768-.15.428-.235.922-.53,1.342-.745,1.057-1.739,1.779-3.047,2.129-.583.156-1.102-.013-1.61-.184-.622-.211-1.263-.449-1.614-1.118.997-.741,1.678-1.618,1.209-2.979-.237-.217-.514-.471-.761-.698-.329-.025-.595-.045-.865-.066-1.197.312-1.759,1.237-2.286,2.174-1.248.014-2.281-.405-3.075-1.297-.211-.237-.371-.541-.46-.839-.058-.193-.001-.464.106-.643.223-.369.502-.709.78-1.045.374-.452.874-.773,1.359-1.106.387-.266.786-.516,1.177-.771.482.312.973.63,1.546,1.001.179.486.357,1.099,1.135,1.401.213.016.528.04.854.065,1.449-.406,1.844-1.449,1.776-2.846-.221-.613-.674-1.054-1.549-1.001-.592.131-.921.671-1.442.982-1.018.015-1.626-.612-2.111-1.344-.315-.476-.548-1.012-.741-1.546-.247-.687-.233-1.388.081-2.066.279-.603.569-1.197,1.123-1.627.544-.422.848-.423,1.405-.008.344.256.624.551.865.91.39.582.86,1.119,1.324,1.654.602.695,1.023.778,1.892.428.066-.026.134-.046.196-.067.246-.289.522-.55.718-.857.233-.367.598-.493.983-.617,1.099-.354,2.173-.171,3.239.16.626.194,1.213.455,1.586,1.004Z" stroke-width="0"/>
      <path d="m115.319,134.973c-.515-.025-1.041.068-1.555.149-1.253.199-2.353.66-3.219,1.592-1.254,1.349-1.849,2.993-1.714,4.778.068.902.397,1.673,1.027,2.345.225.24.435.495.697.794-.818.405-1.353,1.029-1.839,1.669-.898,1.183-1.268,2.49-.851,3.966.198.7.531,1.32.992,1.872.473.565,1.116.964,1.854,1.107,1.423.277,2.707-.053,3.833-.931.456-.356.946-.67,1.443-1.018.103.193.194.353.274.518.608,1.257,1.667,2.017,2.986,2.528.54.209,1.089.195,1.638.252.83.086,1.627-.088,2.352-.432.835-.397,1.628-.88,2.328-1.477.285-.244.551-.509.81-.779.672-.702,1.265-1.42,1.569-2.379.387-1.219.018-2.207-.791-3.079-.585-.631-1.323-1.125-2.315-1.169.04-.158.051-.269.095-.365.42-.894.713-1.817.754-2.808.024-.578.16-1.161.102-1.729-.083-.823-.228-1.641-.498-2.445-.368-1.096-.965-1.975-2.026-2.509-.16-.012-.284-.011-.403-.032-.88-.162-1.606.128-2.245.671-.443.376-.883.754-1.325,1.133-.021-.005-.056-.003-.064-.016-.869-1.432-2.212-2.123-3.907-2.205Zm4.137,6.796c.524-.228.75-.693.889-1.173.224-.772.626-1.451,1.065-2.117.062-.095.144-.184.232-.259.268-.226.544-.444.848-.691.48.506.743,1.074.901,1.653.316,1.157.422,2.353.174,3.521-.204.962-.444,1.94-.994,2.597-.533.411-.923.713-1.312,1.012-.021.279-.035.463-.052.686.133.16.282.339.403.485.45.207.847.07,1.238-.014.744-.16,1.427-.076,2.011.426.149.129.258.3.362.424-.615,1.148-1.326,2.164-2.21,3.051-.676.679-1.438,1.243-2.472,1.436-.913.17-2.102-.221-2.657-.975-.438-.596-.663-1.104-.579-2.107-.156-.15-.376-.364-.615-.594-.617-.047-1.158.165-1.674.461-.773.444-1.542.898-2.445,1.083-.276.056-.554.108-.832.163-.738-.33-.894-.581-.878-1.31.014-.64.23-1.181.659-1.683.453-.53.893-1.064,1.426-1.525.319-.276.605-.585.917-.868.313-.285.319-.649.318-1.04-.255-.244-.378-.638-.833-.703-.079-.011-.158-.105-.211-.179-.542-.748-1.191-1.437-1.375-2.375-.204-1.034.039-1.94.804-2.695.506-.499,1.085-.912,1.846-.978.477-.041.959-.023,1.308-.028.658.212.958.595,1.121,1.064.238.682.492,1.361.599,2.081.051.343.053.467.655,1.04.433.257.884.339,1.362.129Z" stroke-width="0"/>
      <path d="m106.831,115.632c1.518.278,2.612-.38,3.574-1.37,1.103,1.266,2.533,1.788,4.307,1.651.726-.226,1.444-.595,2.013-1.217.705-.772,1.199-1.614,1.27-2.663.059-.866-.341-1.49-1.062-1.968-.172-.114-.359-.21-.552-.322.481-.559.953-1.092,1.408-1.639.573-.689.948-1.456.977-2.355.009-.3.043-.6.061-.834-.496-1.531-1.671-2.109-3.141-2.257-.062-.388-.119-.741-.169-1.052-.125-.151-.214-.261-.306-.37-.403-.473-.876-.803-1.518-.988-.481-.138-.953-.162-1.427-.19-.965-.055-1.911.048-2.734.587-.395.259-.788.528-1.142.834-.442.382-.864.793-.89,1.423-.003.081-.087.157-.139.246.089.277.138.501.233.707.203.437.746.751,1.169.634.444-.124.819-.376,1.038-.788.096-.18.133-.408.102-.65,1.177-.421,2.294-1.096,3.65-.809.065.083.137.135.145.195.018.134.005.272.004.365-.279.198-.526.374-.768.547-.02.256-.037.483-.053.695.154.205.295.394.394.526.346.026.611.112.827.05.487-.139.961-.037,1.438-.007.867.054,1.057.215,1.275.959-.138.498-.29.941-.563,1.347-.464.69-1.004,1.32-1.599,1.906-.33.324-.699.576-1.217.676-.521.101-1.07.32-1.211,1.042.161.24.364.542.512.762.698.237,1.185-.062,1.664-.242.699.068,1.411.005,1.879.691-.202,1.155-.71,2.109-2.033,2.539-.311-.053-.657-.069-.97-.175-.685-.233-1.168-.711-1.523-1.302-.253-.419-.469-.86-.909-1.171-.247-.019-.515-.039-.755-.058-1.029.252-1.594,1.097-2.441,1.614-.052-.376.105-.688.159-1.015.174-1.049.706-1.947,1.171-2.879.265-.531.739-.665,1.299-.643.366.014.73.053,1.088.08.907.911,1.478.842,2.173-.238.02-.271.04-.522.058-.761-.335-.416-.783-.544-1.24-.395-.719.234-1.408.549-2.098.826-.091-.701-.103-.719-.721-1.093-.741-.07-.889-.084-1.179.146-.461.366-.932.736-1.314,1.172-1.242,1.414-1.767,3.085-1.775,4.913,0,.285.091.576.172.857.204.714.72,1.169,1.391,1.46Z" stroke-width="0"/>
      <path d="m130.579,197.46c.081.588.47.848.848.937.768-.035,1.387-.096,2.003-.083.682.014,1.365.077,2.044.152.67.074,1.339.168,2.001.294.415.079.85.167,1.19.431.476.371.726.838.831,1.443.153.894-.114,1.552-.854,2.076-.16.114-.297.258-.429.374.258.534.51.767.846.635.46-.181.777.043,1.129.171.132.785-.151,1.411-.718,1.93-.261.24-.53.482-.833.671-.751.468-1.573.754-2.497.663-.84-.083-1.274-.436-1.514-1.218-.09-.292-.221-.556-.489-.741-.293-.201-.626-.219-.978-.193-.976.448-1.747,1.31-2.967,1.413.024-.116.02-.188.053-.238.32-.474.62-.964.98-1.41.435-.54.884-1.078,1.397-1.547.422-.385.828-.75.961-1.27-.033-.167-.049-.302-.087-.432-.155-.528-.874-1.009-1.433-.929-.666.095-1.299.295-1.841.682-1.172.836-2.024,1.926-2.653,3.168-.278.547-.469,1.14-.443,1.77.039.953.45,1.728,1.317,2.23.692.4,1.497.412,2.252.319.705-.087,1.378-.363,1.915-.859.296-.273.625-.512.982-.801.458.511,1.049.824,1.674.926.942.155,1.884.186,2.845-.134,1.588-.528,2.72-1.433,3.367-2.917.265-.609.086-1.096-.239-1.594-.276-.424-.762-.605-1.177-.86.46-.899.676-1.415.437-2.502-.315-1.433-1.135-2.525-2.56-3.201-.685-.325-1.417-.395-2.135-.543-.567-.117-1.154-.009-1.727-.027-.703-.022-1.388.055-2.064.165-.645.105-1.236.379-1.435,1.045Z" stroke-width="0"/>
      <polygon points="134.63 59.415 134.627 59.409 134.623 59.409 134.624 59.411 134.63 59.415" stroke-width="0"/>
      <path d="m125.156,70.525c.247.019.54.032.831.065.542.062,1.053-.079,1.521-.287.969-.432,1.772-1.083,2.491-1.836.459-.48.971-.914,1.496-1.403.092.197.156.318.207.443.391.94.976,1.731,1.908,2.263.619.353,1.255.663,1.991.708.504.031.999.06,1.512,0,.939-.11,1.82-.368,2.636-.782,1.055-.536,1.886-1.312,2.5-2.307.969-1.573,1.166-2.438,1.001-3.991-.115-1.081-.519-2.109-1.069-3.076-.599-1.053-1.238-2.079-2.095-2.907-.091-.639.385-1.187.115-1.79.104-.567-.11-1.087-.342-1.579-.54-1.142-1.359-2.072-2.598-2.572-.981-.397-2.03-.609-3.093-.572-.831.029-1.663.205-2.362.655-.437.281-.791.679-1.158,1.004-1.185-.112-2.183.075-3.184.304-1.931.443-3.773,2.082-3.831,4.305-.035,1.334.434,2.448,1.546,3.3.183.14.361.285.563.445-.077.099-.134.168-.188.24-.704.939-1.264,1.939-1.615,3.057-.156.499-.247,1.011-.404,1.501-.289.903-.258,1.802-.097,2.701.169.955.723,1.677,1.718,2.107Zm.982-3.631c.285-.993.64-1.964,1.143-2.883.77-1.403,1.621-2.755,2.667-3.991.407-.481.615-.982.068-1.639-.06-.047-.225-.18-.458-.365-.34.036-.739.078-1.208.127-.249.239-.522.5-.82.785-.464-.358-.888-.685-1.261-.973-.175-1.076.487-1.702,1.111-2.321.572-.568,1.312-.881,2.177-1.047-.02.259-.039.508-.058.758-.087,1.164.034,1.464.973,2.36.127.01.295.023.464.035.243.018.486.037.695.053.951-.379,1.439-1.089,1.63-1.96.199-.91-.139-1.712-.84-2.385.093-.276.341-.352.573-.472.823-.425,1.686-.266,2.547-.179,1.352.598,2.076,1.625,2.328,3.009-.097.028-.177.079-.221.059-.469-.213-.916-.099-1.376.031-.537.151-.927.463-1.223.897-.104.152-.188.316-.289.469-.38.575-.425,1.183-.203,1.824.036.103.045.215.066.322.001,0,.003,0,.004,0,.001.003.001.004.003.006h0s0,0,0,0c.069.043.037.023,0,0,.035.069.019.037,0,0-.003-.002-.003-.002-.006-.004,0,0,0-.002,0-.003-.339-.026-.678-.051-1.018-.078.003.017.005.034.007.05-.301.057-.605.1-.902.173-.633.155-1.158.446-1.403,1.073-.026.345-.053.69-.081,1.053.098.216.202.446.3.664,1.328,1.395,3.13.387,3.252-.882.152-.145.305-.291.475-.454,0-.31.001-.625.002-.979.169.081.372.178.624.299,1.355.281,2.424-.243,3.286-1.323.159.153.302.272.421.409.662.763,1.236,1.585,1.607,2.508.387.96.634,1.958.503,2.992-.15,1.178-.59,2.265-1.558,3.036-.888.707-1.942,1.142-3.151,1.123-.121-.002-.251-.038-.363-.01-.68.17-1.259-.137-1.825-.394-.512-.232-.844-.673-1.104-1.153-.247-.456-.322-.942-.318-1.444.001-.249-.055-.512-.045-.738.025-.615-.305-.979-.783-1.329-.286-.022-.601-.046-.948-.072-.485.189-.948.46-1.37.809-1.007.833-2.022,1.659-3.047,2.472-.307.243-.659.435-1.042.683-.147-.385-.088-.717-.007-1.001Zm11.106-9.479c-.063.525-.068.533-.743,1.031-.093-.02-.203-.044-.339-.073.093-.223.17-.407.257-.617.241-.148.401-.515.825-.341Z" stroke-width="0"/>
      <path d="m134.63,59.415h0c.037.023.069.043,0,0Z" stroke-width="0"/>
      <path d="m151.267,70.393c1.428-.093,2.082-1.036,2.59-2.104.905-.346,1.828-.386,2.85-.215.167.148.39.344.576.508-.023.311-.041.541-.056.738-.207.363-.399.697-.62,1.084-.798.074-1.538.311-2.224.682-1.105.598-1.969,1.433-2.621,2.47-.393.625-.748,1.261-.724,2.004.043.124.077.233.118.339.255.642.734.981,1.463,1.039.611.048,1.179-.045,1.749-.248.954-.341,1.801-.837,2.573-1.458.343-.275.69-.544,1.124-.69.053.065.091.098.112.139.329.645.862,1.093,1.533,1.393.702.313,1.479.362,2.203.26,1.413-.199,2.267-1.123,2.72-2.339.271-.728.44-1.484.376-2.308-.084-1.08-.624-1.86-1.422-2.521-.33-.274-.76-.498-1.221-.527-.743-.048-1.486-.235-2.235-.044-.083.021-.186-.023-.28-.038-.113-.771-.485-1.358-1.12-1.85-.724-.562-1.572-.782-2.437-.886-.905-.109-1.816-.19-2.747-.114-1.196.097-2.179.469-2.892,1.39-.253.325-.469.676-.672.971-.033.431-.061.8-.095,1.252.215.281.468.611.653.853.326.1.53.162.726.222Zm8.822.74c.415-.154.858-.263,1.321-.218.586.056,1.013.468,1.058,1.024.018.223.037.446.058.694-.045.167-.116.36-.148.559-.121.759-.215.884-.944,1.204-.72.04-1.216-.242-1.483-.877-.062-.147-.152-.284-.237-.422-.271-.44-.617-.803-1.15-.962-.111-.033-.225-.059-.503-.131.777-.338,1.391-.633,2.028-.871Zm-2.074.954c-.686.157-1.225.56-1.802.888-.961.546-1.865,1.183-2.914,1.584-.034.013-.077.005-.177.01.298-.533.652-.982,1.138-1.306.485-.324,1.002-.613,1.531-.868.341-.165.697-.345,1.135-.196.146.05.354-.091.539-.12.177-.028.361-.023.549.009Z" stroke-width="0"/>
      <path d="m76.401,62.122c-.051.483-.086.967-.111,1.452-.028.543.125,1.043.533,1.437.25.242.548.439.825.656,1.115.24,2.036-.035,2.952-.428.96-.412,1.849-.936,2.734-1.468.313-.188.632-.369.955-.557.895,2.07,1.282,2.616,2.476,3.632.883.752,1.932.904,3.031.764,1.208-.155,2.179-.764,2.954-1.638.428-.482.803-1.002.951-1.639.075-.324.169-.645.243-.92.437-.148.813-.232,1.144-.396,1.615-.799,2.899-1.922,3.707-3.495.424-.825.683-1.661.474-2.612-.297-1.346-1.105-2.273-2.44-2.732-1.15-.395-2.353-.441-3.554-.198-.523.106-1.041.23-1.582.35-.069-.148-.138-.267-.181-.394-.19-.556-.546-1.035-.946-1.448-.65-.672-1.451-1.18-2.328-1.571-1.011-.451-2.06-.691-3.175-.564-.278.032-.552.116-.821.199-1.703.528-2.789,1.675-3.539,3.167-.283.562-.209,1.164-.28,1.715.104.22.192.405.291.615-.344.277-.692.528-1.004.813-.379.347-.733.718-1.089,1.087-.681.705-1.168,1.534-1.588,2.393-.277.566-.567,1.139-.634,1.776Zm2.187.381c.506-1.394,1.171-2.709,2.298-3.758.533-.496,1.082-.979,1.635-1.456.431-.372.95-.628,1.509-.743.489-.101.842-.3,1.063-.787-.393-.86-.663-.995-1.619-.831-.28.048-.563.076-.862.116-.06-.057-.128-.121-.23-.217.739-1.059,1.61-1.953,2.991-2.368.506.059,1.089-.013,1.639.249.768.366,1.44.809,1.846,1.562.18.335.274.665.257,1.04-.035.783.212,1.438,1.022,1.819.28.021.572.043.879.067.814-.387,1.721-.413,2.615-.497.236-.022.471-.082.705-.075.479.015.97.008,1.5.431.205.232.186.594-.024,1.003-.46.894-1.072,1.632-1.981,2.17-1.162.688-1.076.556-2.126-.04-.327-.025-.667-.051-1.024-.078-.51.111-.88.408-1.118.873-.017.221-.034.452-.052.687.175.626.636,1.045,1.225,1.445-.184.953-.937,1.438-1.733,1.856-.66.072-1.02-.295-1.307-.744-.412-.644-.608-1.372-.877-2.072-.13-.338-.263-.685-.461-.989-.336-.515-.808-.852-1.496-.821-.193.009-.389-.026-.685-.049-.734.415-1.534.862-2.328,1.318-1.034.595-2.048,1.227-3.225,1.63-.178-.262-.113-.531-.036-.744Z" stroke-width="0"/>
      <path d="m153.231,42.995c.285.022.575.044.852.065.527-.145.887-.448,1.088-.896.019-.251.037-.481.06-.792-.269-.296-.577-.633-.838-.92-.464-.035-.825-.063-1.103-.084-.504.123-.783.385-.923.685-.25.911-.007,1.557.864,1.942Z" stroke-width="0"/>
      <path d="m116.883,144.671c-.127.256-.255.514-.349.703.035.276.06.475.085.67.206.216.401.42.571.598,1.39.151,1.542.063,2.074-1.204-.227-.678-.669-1.118-1.6-1.086-.236.096-.498.203-.783.32Z" stroke-width="0"/>
      <path d="m88.093,61.411c.551-.18.953-.516,1.206-1.014.021-.273.042-.548.064-.84-.11-.237-.224-.485-.324-.701-.222-.166-.41-.307-.599-.448-.317-.024-.631-.048-.907-.069-.583.193-.98.532-1.203.975-.116.614-.108,1.128.341,1.597.384.402.833.516,1.422.5Z" stroke-width="0"/>
    </g>
  </g>
</svg>