<?xml version="1.0" encoding="UTF-8"?>
<svg id="Layer_2" data-name="Layer 2" xmlns="http://www.w3.org/2000/svg" viewBox="0 0 195.1528766 116.4271248">
  <g id="Layer_1-2" data-name="Layer 1">
    <g>
      <path d="m162.3969291,45.3819568c1.3471294.2459349,2.600082.4714192,3.8515517.7037106,6.0144597,1.1163879,12.039029,2.1899075,18.036873,3.3770138,2.034575.4026823,4.009879,1.0697176,5.9942561,1.6663782.675534.2031179,1.3541615.4869565,1.9261585.867075.6759964.4492356,1.3495372.9700231,1.828075,1.5875731,1.3013007,1.6792394,1.0763832,3.0071609-.589394,4.3078684.0094241.0180013.0140324.0469628.0289419.0524392,2.0397096.7510463,2.2478201,3.0338557.4801005,4.4764971-2.4367318,1.9885956-4.8018184,4.0438517-7.449515,5.819488-2.2433872,1.5044761-4.3029814,3.2402054-6.435608,4.8826671-4.134353,3.1840811-8.2736174,6.3579551-12.999533,8.8119963-1.3050799.6776738-2.5881544,1.4071141-3.8013698,2.2139263-2.2453485,1.4932015-4.6692278,2.7000931-7.0581696,3.9768988-6.8014239,3.6350934-14.0385708,6.4659483-21.0321753,9.7435601-4.593357,2.1527131-9.3314235,4.1053062-13.6808395,6.6188204-4.036429,2.3326238-8.3093841,4.1782619-12.5027531,6.1973325-2.3116996,1.1130684-4.5879833,2.2947348-6.9459261,3.3182061-1.9429895.8433559-3.9802195,1.5050318-5.9821133,2.2323517-.2984523.1084465-.6612863.2395884-.942206.1735788-.3544863-.0832505-.7657881-.2942211-.952842-.5657908-.2609235-.3788024-.0108831-.7645216.3648352-1.0367347.0846331-.0613009.1794796-.1174106.2792693-.1534278,3.0209593-1.090373,5.6664554-2.7896756,8.409708-4.3343951,2.8561739-1.6083163,5.7516067-3.15792,8.6158811-4.754289,1.0591616-.5903141,2.1331688-1.1767091,3.1062382-1.8752064,3.6726222-2.636277,7.6707171-4.7609865,11.8782461-6.5847773,1.2949064-.5612868,2.498028-1.2978633,3.7710565-1.905038,2.0838002-.9938445,4.1997473-1.9309359,6.2856683-2.9211538,6.5521569-3.110438,13.1200844-6.19413,19.6296975-9.3779479,1.9310699-.9444762,3.6848687-2.1923277,5.529671-3.2872924.8036597-.476998,1.6125975-.951744,2.4528691-1.3706289,2.4193188-1.2060727,4.6352151-2.6753797,6.8047885-4.2235649,4.5673651-3.2592742,9.1876389-6.4561433,13.760649-9.7088443,1.1319707-.8051525,2.184722-1.707594,3.2357671-2.6029212.3927008-.3345522.7442451-.743274.9968289-1.175956.6101875-1.0453405,1.1833326-2.0993527,2.5560712-2.5549567-.9425967-.5198224-1.7836975-.9836667-2.6914044-1.4842521-.248374,1.6700925-1.5524175,2.4966462-2.9339423,3.2596909-6.339151,3.5012608-12.6582739,7.0335742-19.0274511,10.488311-3.5201471,1.9093811-7.1629664,3.62882-10.679111,5.5440797-2.784162,1.516555-5.514937,3.1282785-8.1700166,4.8283122-3.7285606,2.3873443-7.2974863,4.9868582-11.0584332,7.3285046-4.4102976,2.7459519-8.9566141,5.307957-13.4366433,7.9600857-1.2250313.7252142-2.3937255,1.5335911-3.6418625,2.2221008-1.8802023,1.0372611-3.783319,2.0445737-5.7215645,2.9870026-2.0182304.9813416-4.1041195,1.8450093-6.1347559,2.8057174-3.4609558,1.6374167-7.1447082,2.7326154-10.8355966,3.8140536-.3071109.0899626-.6386032.1387022-.9611099.1499475-.7493877.0261319-1.3297802-.3398605-1.5153352-.913387-.1788338-.5527468.0660322-1.1093395.7112609-1.4695995,1.4684621-.8199148,2.9370677-1.6410725,4.430828-2.4211534,4.2745019-2.2322494,8.6000468-4.3848601,12.8281939-6.6881349,2.2780058-1.2409201,4.3480606-2.7994586,6.6005529-4.084,3.2692058-1.8643413,6.5759004-3.6813177,9.945183-5.3880343,3.7268703-1.8878556,7.2068336-4.0925985,10.6651902-6.3575017,5.4713408-3.5832684,10.9735848-7.1235881,16.9472547-10.0161679,3.4588828-1.6748816,6.8071804-3.5681917,10.0687481-5.5519324,3.1598485-1.9218621,6.351541-3.7767495,9.6614568-5.4717894,1.5743272-.8062347,3.0864493-1.7223489,4.5782722-2.6539566,1.2008413-.7499056,2.3288255-1.5979337,3.5607774-2.452089-.2334327-.0969818-.4667538-.2130471-.7138362-.293702-4.1099876-1.3416528-8.3397293-2.2698678-12.5925447-3.1389608-3.4615617-.7074103-6.899348-1.5223677-10.1681392-2.8287418-.3002143-.119977-.5524632-.2004199-.7496667.1650241-2.5130331,4.6567368-6.5818483,7.976749-11.1246886,10.8957312-2.6658112,1.7128949-5.4640854,3.2006566-8.4627203,4.3684162-.7410559.2885839-1.4889207.5725833-2.1961074.9225046-3.7501355,1.8556112-7.7432393,3.0645647-11.907475,3.8373997-1.108578.2057354-2.2030599.4753894-3.3117177.6807008-.8868656.1642491-1.4401899-.0522637-1.7392561-.6067799-.2917948-.5410554-.154293-1.2762134.4280211-1.7433407.3853975-.3091589.8494883-.5567609,1.3170713-.7551773,1.9158415-.8129979,3.8817373-1.5328015,5.7632154-2.4064204,2.5795915-1.1977667,5.1106913-2.4851377,7.6405952-3.7704907,1.6553804-.8410381,3.2610414-1.7639888,4.9079227-2.6195479,3.6353725-1.8885868,7.0437545-4.0609902,9.9514019-6.8286285,2.5858104-2.4612651,4.3169341-5.4193355,5.4123408-8.6540644,1.4470307-4.2731307.4818546-8.242791-2.1597826-11.9253882-.2153181-.3001655-.4521632-.5879524-.6558886-.8944206-1.3697886-2.0605789-3.3264995-3.1166603-5.997828-3.1217711-.8234008-.0015793-1.7037604-.1861695-2.4571745-.4943339-1.5917083-.6510374-1.9277691-2.3342251-.7987802-3.5553817.8316767-.8995753,1.960538-1.2464404,3.1900341-1.304356,3.4639376-.1631816,6.5703991.7443707,8.9266995,3.1031849,4.4729652,4.4777621,6.9880872,9.6907845,6.4841794,15.902404-.1496686,1.8448046-.6522051,3.6197828-1.3580842,5.3486903-.0753286.1844805-.1453632.3707669-.26904.6871862Z" stroke-width="0"/>
      <path d="m2.070948,90.2308369c.1543607,2.1620428.3041051,4.2594798.4538535,6.3569168-.056353.0073263-.112702.0146672-.1690509.0220081.0522868.0296853.1039237.084318.156952.0854733,3.006899.0656879,5.8967148.760003,8.7965208,1.3886448,8.0770916,1.7510252,16.3106926,2.7309483,24.4457357,4.1924027,5.9799128,1.0742874,11.9482249,2.2100073,17.8975055,3.4185367,5.3308331,1.0829151,10.6278289,2.3057461,15.9413925,3.4605056,1.9693162.4279806,3.9519473.806666,5.9133225,1.2627527,3.5172529.817926,7.1142435.8404898,10.7014513.9514076,1.5664977.0484324,3.0758452.2995879,4.5054869.8736262.569047.2284893,1.116854.5422765,1.5977996.9030483.483792.362863.6502677.8943913.4494205,1.4669965-.2000259.5702801-.6650496.9604302-1.290011.9514954-1.0789903-.0153984-2.1594318-.1323556-3.2326417-.2553231-1.4632956-.1676271-2.9185863-.5326397-4.3804627-.5472191-5.2550261-.0523953-10.3915179-.7455552-15.4999449-1.8645314-3.6355798-.796342-7.3577939-1.2562161-11.0343229-1.8999783-10.1757374-1.7817927-20.347281-3.5837802-30.5215275-5.3727676-6.9669668-1.2250245-13.7134848-3.1521437-20.3791211-5.3439889-1.3720569-.4511586-2.7729201-.8281769-4.1526948-1.2603398-.5128056-.1605933-1.0138033-.3614738-1.5009679-.5800192-.5158553-.231414-.7252515-.5938383-.5019943-1.1340675.0783584-.1895913.0491813-.4240469.0369826-.6364653-.1063535-1.8510195-.2654521-3.7008983-.3043024-5.5529561-.0119415-.569315.3039875-1.1431924.4585994-1.7175086.0382304-.142007.0888149-.3127635.0385932-.4382901-.4288044-1.0718745-.1212051-2.0504669.6114911-2.8613445.6724724-.7441952,1.4344294-1.4823803,2.3146257-1.995995,3.8003054-2.2175529,7.6544802-4.3577046,11.5014394-6.5073907.4197571-.2345726.9059569-.3977688,1.3848854-.5081603.7839784-.180715,1.4718028.0465314,1.9894281.6171625.5273244.5813061.6123243,1.275124.220365,1.9050526-.3597684.5781767-.8221171,1.1455907-1.3726269,1.5734543-2.1412693,1.6642066-4.3152757,3.2945895-6.5180486,4.890008-1.2584659.9114567-2.595944,1.731196-3.9472513,2.6248854.1452795.0483739.2682865.105361.3986008.1303815,4.0004748.7684114,8.0217671,1.4557658,11.9978247,2.3185123,5.3782045,1.16697,10.725422,2.455138,16.0787309,3.7170132,2.928999.6904399,5.8094426,1.5980361,8.7729567,2.1097352,3.3290987.5748426,6.7312458.7862811,10.0944211,1.2044495,7.4830254.9303793,14.9661544,1.8619723,22.4395564,2.8544423,2.79479.3711544,5.5680768.8879717,8.338932,1.3946404.6906189.1263016,1.3670937.4150536,1.9912419.727861,1.0539712.5282235,1.518923,1.4426049,1.2975774,2.3330333-.2174788.8748838-1.0249097,1.4787098-2.2116228,1.5772564-2.5516063.2119065-5.0187071-.2293375-7.4863262-.7821574-4.1213331-.9233162-8.2315041-1.9404849-12.4066229-2.5948345-3.9384252-.6172356-7.9518601-.8432682-11.9371664-1.1949297-5.2425244-.462594-10.4975585-.7925838-15.568369-2.282846-3.9368067-1.1569968-7.9011639-2.2417545-11.8820492-3.2644069-5.4756302-1.4066754-10.8318054-3.1309692-16.1768742-4.895404-2.7081796-.8939819-5.5118196-1.4497118-8.3516927-1.8207785Z" stroke-width="0"/>
      <path d="m101.9050298,6.4706042c.3656884.8743501.679967,1.7072576,1.0651572,2.5115986.1863124.3890607.4605827.7629643.7760254,1.0748431.4343675.4294356.7061502.8985663.5085959,1.4598457-.2945057.8368047-.8438913,1.5385704-1.6881015,1.9833678-.8312781.4379976-1.8167853.2429957-2.3492842-.4061919-.5266228-.6419929-.4512224-1.5667641.2053519-2.1929492.2349954-.2241096.5217513-.4025653.8509394-.6518855-1.1541914-.6667428-2.5907377-1.0851964-2.4306723-2.7093058-.1768166.0200486-.3049503.0101632-.4107117.0500775-4.1454115,1.5645926-8.3691974,2.9789159-12.4105696,4.7443378-4.3303366,1.8916504-8.7979519,3.4630428-13.1844741,5.2187402-3.5904448,1.4370699-7.2264153,2.7953348-10.7292291,4.3964199-9.070221,4.1458274-17.2670666,9.3661176-23.5688722,16.7934174-3.1271433,3.6856535-6.3480488,7.3134134-9.2753018,11.1294411-1.8943982,2.4695785-3.3271693,5.2361638-4.9814056,7.8619194-.575832.9140085-1.1465972,1.8364839-1.8095498,2.6968541-.6091231.7905219-1.2753447,1.0035251-1.8691518.7698299-.6158842-.2423815-.8646051-.8678939-.6966943-1.8265108.3705439-2.1154895,1.3333361-4.0373297,2.3203622-5.9527283.5761549-1.1180769,1.071711-2.2726024,1.6834692-3.3733726.9372827-1.6864925,1.8461099-3.396865,2.941704-4.9964877,2.001834-2.922777,4.0214956-5.8451446,6.2307983-8.6365018,4.5660656-5.7690375,10.3220893-10.4349871,16.7756365-14.3383672,5.1297228-3.1026731,10.6088133-5.6349709,16.3278823-7.7459491,4.4050195-1.6259374,8.8487557-3.1333747,13.3382409-4.5465648,2.67266-.8412941,5.2603281-1.9072169,7.9024675-2.8331361,3.0892-1.0825934,6.2373361-2.0326009,9.2842634-3.2054092,3.3674806-1.2961962,6.9000097-1.9258982,10.4437568-2.5737404C110.2107463.6136915,113.2659097.0445702,116.3921122.0041039c7.9019174-.1022901,15.2046978,1.7035177,21.7331431,5.8782774,1.9627545,1.2551266,3.9253973,2.5145744,5.8248145,3.8478481,2.6126474,1.8339394,3.8699692,4.3056456,3.8113679,7.3285485-.0057884.2981036-.0178914.6025318-.0869373.8920223-.2712884,1.1377453-1.4518624,1.7595872-2.5921409,1.2547537-.636897-.2819522-1.2379156-.7568736-1.6685199-1.2751971-.5747238-.6918072-1.0087724-1.4919439-1.4309413-2.2782104-.8462832-1.5761377-2.0668177-2.8529799-3.5719714-3.9138211-3.8223228-2.6939733-7.8934182-4.9389742-12.5651655-6.2221812-3.7144644-1.0202652-7.4930155-1.3749026-11.3001258-.9628467-4.0142163.4344697-7.9919323,1.1532533-11.9845258,1.753811-.2700127.0406199-.5310319.1316318-.65608.163496Z" stroke-width="0"/>
      <path d="m59.4330211,93.6079457c-8.1174747-.1862279-16.1272425-1.0977432-23.8900634-3.2860641-5.5491889-1.5642709-10.4968329-4.1286011-14.2348973-8.3934038-2.1529378-2.4562786-3.4267676-5.191687-3.5331191-8.3249374-.074344-2.1902658.054874-4.3867027.1121757-6.5799736.007658-.2930659.0913264-.5957174.2023022-.8728877.2270503-.5670776.7863304-.8955831,1.3564936-.8443869.614469.0551665,1.0902482.4811218,1.1907196,1.1021448.2105861,1.3015995.3704921,2.6110298.6197232,3.9061585.2077278,1.0794786.4988211,2.1463081.7782458,3.2131668.6741667,2.5740255,2.2991462,4.534676,4.5239364,6.1919365,4.9479231,3.6857486,10.6405418,5.7064717,16.8402774,6.8136176,9.3375229,1.6675115,18.7154527,2.112265,28.1265183.8574382,5.4853812-.7313852,11.0237109-1.4486004,16.2847884-3.0865582,6.3375564-1.9731388,12.3916497-4.5933886,17.9646539-8.0436141,2.6899693-1.6653618,5.6204035-2.8731016,8.5672619-4.0665398,1.306244-.5290131,2.6854566-.6438062,4.0913468-.5789371.1590767.0073263.4198727.0601165.4471721.1432793.0455895.1388923-.0007335.3723243-.1100589.4738832-.8521035.7915602-1.6210169,1.712873-2.6188026,2.3073108-2.4240547,1.4441696-4.9563346,2.7358179-7.448048,4.0841609-2.9234817,1.5819797-5.8839102,3.1090488-8.7685077,4.7484104-6.0767605,3.4535011-12.6471914,5.7667782-19.559942,7.3374833-4.821982,1.095652-9.6655947,2.0789239-14.6230774,2.4901316-2.1017872.1743392-4.2109175.2742749-6.319099.4081807Z" stroke-width="0"/>
      <path d="m36.0430465,73.8667601c-1.4329106-.0137605-2.5408149-.1679927-3.3162583-1.0144049-.2391653-.2610262-.3894877-.7626791-.2829728-1.06642.0945475-.2696247.5955691-.5831633.9273245-.593151,2.6515675-.0797117,5.048243-.9943709,7.4646517-1.8388383,4.3695557-1.5270326,8.1040322-3.9977297,11.7170166-6.6552471,2.9879273-2.197753,6.019666-4.3453406,9.0266646-6.5213414,3.3603767-2.4317333,7.0940878-4.096247,11.3566941-4.6907214.3420007-.0477013.6739554-.1537642,1.0124081-.2254111.4422688-.0936112.7447793-.2884449.9915109-.6816221.2251488-.3587685.6255993-.6757435,1.0274929-.8824368,3.0538877-1.5705443,6.0885286-3.1784438,9.2024607-4.6437002,6.2142942-2.924115,12.4523719-5.8075992,18.7231466-8.6283859,7.4265209-3.3406822,15.0294519-6.3205998,22.7008387-9.1576842,3.3281579-1.2308373,6.5978899-2.5939279,9.90948-3.8633415.8165121-.3129902,1.6777367-.5687593,2.5455788-.7177709,1.0670548-.1832229,1.9967353.311462,2.3749891,1.1075627.3821924.8043994.1508167,1.7538987-.7455846,2.3390215-.6979381.4555894-1.4856199.9198213-2.3028815,1.0775484-5.9158978,1.1417594-11.3128188,3.5549065-16.7846858,5.7524254-7.0342028,2.8249324-13.9941614,5.8063489-20.9677377,8.7568737-5.9064897,2.4990372-11.7815419,5.0604939-17.6823947,7.5708276-1.5384169.6544739-3.1089012,1.2500596-4.6885782,1.8166181-.8437797.3026222-1.7415125.4770784-2.6083978.7282412-.2409273.0698044-.49206.1710343-.6815217.3191539-1.1089049.8669214-2.2483224,1.7074989-3.2891063,2.6398963-2.4844659,2.2257493-5.1814036,4.1975281-8.0532444,5.985119-4.1945888,2.6109567-8.3217662,5.314033-12.5442444,7.8859674-4.0814763,2.4860516-8.5136915,4.258617-13.3794851,5.0178012-.6417206.1001259-1.2937982.1444637-1.653164.1834203Z" stroke-width="0"/>
      <path d="m93.6430848,94.4939286c.1415442-.2087771.3290525-.6535745.6694746-.9513345.6421193-.5616524,1.3418353-1.078806,2.0711311-1.5438713,3.1195291-1.9893122,6.026443-4.2643786,9.467562-5.8228148,1.9961772-.9040573,4.0177244-1.7188101,6.2008678-2.1504173.2545132-.0503335.6345051-.0746813.7771416.0548521.1329573.120774.0839076.4767348.0169984.7050194-.4093484,1.3965268-1.2706207,2.4775701-2.551415,3.3582155-3.3920374,2.3323021-6.9251007,4.4078772-10.9575671,5.7051117-1.5159172.487673-2.9910925,1.082491-4.4810896,1.6369487-.6686294.2488011-1.2200641-.0877107-1.2131037-.9917095Z" stroke-width="0"/>
      <path d="m140.7765397,73.0798794c.0811011-.1845316.1784032-.4920161.3426624-.7657208,1.1187356-1.8641366,2.5600577-3.4601693,4.5615927-4.5915973,2.2783088-1.2878755,4.5293341-2.6344198,7.1829626-3.1980902.8629786-.1833179,1.7587261-.245233,2.6434071-.3270432.1710043-.0158151.3602189.1341251.54103.2076072-.0779916.1526455-.1136308.3494753-.2401619.4514876-3.7971601,3.0613695-7.7090193,5.9718483-12.3772904,7.8865962-.6507381.2669048-1.2534948.6317565-1.9025745.9026681-.4195538.1751142-.72334.0375527-.7516281-.5659077Z" stroke-width="0"/>
      <path d="m114.0225129,17.1695348c-.2240246.0644011-.4434248.1340446-.6668275.190359-.5161543.1301037-.7907594-.0760486-.6551073-.5400464.4275108-1.4622147.8555478-2.9253946,1.3419629-4.371626.2844597-.8458127.9159351-1.4470796,1.8763594-1.6869166,1.8217285-.4548802,3.4206922,1.0673998,2.9356485,2.8116471-.109453.3936012-.1649608.6603524.2378497.9795648.5390208.4271544.420064,1.153012-.0919284,1.7216251-.4749978.5275142-.9295051,1.0785281-1.3193197,1.6607043-.6098846.9108279-1.6189121,1.3082824-2.5315942.9267527-.6015767-.2514772-.8098148-.5577991-1.1270434-1.692064Z" stroke-width="0"/>
      <path d="m94.0043322,30.0220559c2.1018191.0130221,3.2733358,1.7799428,2.4083799,3.5896076-.2459742.5146165-.4111821,1.0670708-.5591446,1.6145166-.2599349.9617171-.9476037,1.5042348-1.9557622,1.7140136-.6331736.1317415-1.2844937.1969834-1.9309503.2662687-.5877755.0629826-1.0918906-.1027434-1.3639763-.6157294-.2826817-.532976-.139838-1.0351261.3338044-1.404884.3763163-.2937678.3518951-.534804.1643309-.9219197-.9498282-1.960475.636897-4.255919,2.9033181-4.2418733Z" stroke-width="0"/>
      <path d="m89.7317438,16.5426112c-1.2438874.8379673-2.4877747,1.6759345-3.7263042,2.5102898.1973072.0856049.5893223.1601619.7847239.3810105.0967122.1093093-.1686523.4880459-.3147969.8576795.2099603.2501465.5388294.6190489.8405905,1.0057479.9504341,1.2179834.8723309,3.0355301-.187333,4.1753153-.1085999.1168257-.3182013.1546928-.4809297.2291986-.0693091-.166874-.2051127-.3371991-.1950986-.4999639.0268928-.436623.1197222-.8695902.1799659-1.3047582.1237565-.8940404-.168748-1.3574606-1.0780256-1.6700925-.2834073-.0974498-.5860693-.1482439-.880575-.2180117-1.8471623-.4376028-2.4695007-1.7940617-1.4992617-3.2690425-.7830974-1.1804015-.756675-1.9700898.0893132-2.6690259.9986945-.8251134,2.2984565-.8414622,3.4011505-.0820368.2190494.1508688.5383112.2351722.8162331.2461251.4974178.0196026.9985032-.0578206,1.4981056-.0584567.2357847-.0002998.471689.0832505.7075375.1288022.0149015.0790756.029803.1581439.0447045.2372195Z" stroke-width="0"/>
      <path d="m152.1187788,45.5262158c-.0483322.5957978-.4742802.9349418-1.0098408,1.1508039-1.5132383.6099239-3.011599,1.2654361-4.5679073,1.7671328-1.8234188.5877915-3.701883,1.0318432-5.5559659,1.5397987-.206803.0566507-.4446208.0815323-.6081465.1942635-.3298897.227378-.7012548.2968899-.9213567-.0018498-.1914311-.2598052-.3322178-.6889118-.2297811-.9582733.1304697-.3431361.4679338-.7005008.8202435-.8797314,3.1660196-1.6106414,6.422915-3.0350037,9.9807265-3.7742489.3915208-.0813495.8269408-.0858389,1.2229424-.0237556.5430232.0851296.8830386.5284355.8690859.9858602Z" stroke-width="0"/>
      <path d="m47.40462,38.8922895c-1.3920411,1.0490329-2.9806559.6399895-4.52522.408729-.4855381-.0726852-.8188163-.4515607-.8416031-.9543762-.0225874-.4985381.28025-.8094445.7347493-1.0383871.6243316-.3144744,1.2481051-.6318224,1.8535327-.9754776,1.0272458-.5830975,1.9747379-.4695474,2.8726381.2746332.2401459-.2531369.4366558-.4887771.6644596-.6954045.940149-.8527441,2.2675851-.9239304,3.1034716-.1769056.8129562.726523.7949213,2.0146325-.0541524,2.8739571-.3631211.3674986-.7453773.7198255-1.1315322,1.0672609-.4549219.409292-.9977139.4166476-1.4965907.1307983-.4150969-.2378483-.7582217-.581328-1.1797528-.9148274Z" stroke-width="0"/>
      <path d="m113.9786934,22.648665c1.0644716.0618932,1.7801894.744261,1.717761,1.7037407-.0165678.2545042-.0697954.5221694-.1805719.7538832-.7099613,1.4850271-1.8627256,2.5910836-3.4899295,3.2347509-1.0152305.4015855-1.9746661.1870834-2.5474604-.4806757-.5693978-.6638035-.5527183-1.5652799.1210297-2.3821164.8771545-1.0634369,1.9824318-1.9013602,3.270912-2.5179524.3368103-.1611709.7371173-.2107805,1.1082591-.3116302Z" stroke-width="0"/>
      <path d="m48.8138828,55.9459581c-.0325776,1.6830853-2.0304929,3.4639275-3.8697699,3.4493115-1.2172497-.0096733-1.9930996-.8482694-1.6455896-1.9128542.4653904-1.4257076,1.4718984-2.5573111,2.8147543-3.3418667,1.2585337-.735275,2.7297784.2981329,2.7006053,1.8054094Z" stroke-width="0"/>
      <path d="m35.0913685,52.3515102c.3594535-.9302769.6038809-1.9171461,1.1067682-2.7768729.6653047-1.1373943,2.2232395-1.3657739,3.2564251-.6194803,1.023929.7395962,1.0917232,2.1380459.1420226,3.0756345-.146623.1447489-.3075813.2906384-.4922673.3871085-.5585147.2917132-1.0834233.5382258-1.1871597,1.2553972-.0688307.4758135-.7700696.6534575-1.3592563.4809536-.7629258-.2233639-1.3023133-.9445127-1.4665326-1.8027406Z" stroke-width="0"/>
      <path d="m94.0815903,64.3497664c.5305933.0397535,1.0848425.0822781,1.2225756.6789167.1269776.5500414-.2579257.8819396-.7513968,1.0511167-2.2536723.7726741-4.5152379,1.5263965-6.7821134,2.2659122-.4163167.1358067-.9733963.1825429-1.1350882-.2641117-.1116376-.3083619.0858849-.7415045.2341742-1.0867757.0875672-.2038856.327434-.3715346.5346675-.5105,1.9868408-1.3324109,4.2357373-1.9835652,6.6771811-2.1345583Z" stroke-width="0"/>
      <path d="m96.8828145,19.625148c-.0109868-.1468839-.0176282-.2799122-.0313896-.412319-.0704651-.6781198.1803885-1.2258434.8285035-1.571641.596187-.3181083,1.2173214-.300341,1.7858422.0629607.6311565.4033257.8706008.987593.7431209,1.6734266-.0719082.3868379-.2697416.7559304.0313497,1.1424905.0223084.0286471-.2852171.3955754-.4252704.38792-.7391105-.0403969-1.4737003-.1505324-2.2605689-.2423961.0959707.3910202.3602109,1.0051703-.3267244,1.3287989-.5222377.24603-1.1117912.5247139-1.669389.521175-.9898605-.0062515-1.6685199-.9531697-1.4658469-1.8265254.2462293-1.0610679,1.2176084-1.4420419,2.790373-1.0638902Z" stroke-width="0"/>
      <path d="m127.5860062,17.1417212c-1.0613621.0094978-1.6907964-.3747591-1.9152515-.9601524-.2335921-.609222-.0166954-1.3132616.6181127-1.6884155.4889824-.2889933,1.0492272-.4758281,1.5747099-.7138153.7408167-.335532,1.4601064-.7180926,2.2222907-1.0053165,1.1869364-.4472615,2.3313769.1610758,2.3474345,1.1981103.0092168.5942331-.3854773,1.0454794-.9650486,1.2965033-.8533472.3696043-1.6703377.8096126-2.5051718,1.2155194-.5458297.2653693-1.0958532.5234782-1.3770759.6575667Z" stroke-width="0"/>
      <path d="m103.5062897,25.209493c1.0712805.044316,1.5944191.3568528,1.7314426,1.0343803.1426205.7052241-.3045038,1.2986383-1.1837791,1.7311668-.4511108.2219015-.8037394.6088637-1.2490937.8446794-.6281267.3325781-1.272917.6889264-1.9622602.8605018-.7459114.1856503-1.433373-.222545-1.7111434-.8073826-.2721016-.5729196-.1083128-1.1928898.4557112-1.6793125.1415442-.1220755.3082511-.2194375.4619062-.3298947.8484279-.6099166,1.7105454-1.20472,2.5395432-1.836111.5570556-.424259.6749121-.4206617.9176732.1819726Z" stroke-width="0"/>
      <path d="m63.265039,36.6323802c.4785856.236693,1.1380222.3687635,1.3906857.7361305.327434.4760621.1702309,1.0728177-.2805769,1.5972903-.3332065.3876788-.5033497.9147104-.6621155,1.4026466-.3614467,1.1107579-1.1453334,1.6714232-2.1428161,1.4679471-1.028649-.20983-1.6370825-1.1454152-1.4345849-2.2306481.098825-.5296127.2125116-1.0576607.3444404-1.5811242.1683732-.6680297.6526117-.9944002,1.3885251-1.0472342.4460559-.0320397.884992-.147403,1.3271252-.2253307l.069317-.1196772Z" stroke-width="0"/>
      <path d="m70.8882213,26.4369669c-.2261853.0552835-.4523625.1105669-.6785478.1658504-1.0810235.2642287-2.1186819-.2349163-2.3846364-1.1470969-.2727713-.9355633.3729996-1.9119402,1.4838898-2.1047633.5414605-.0939914,1.1225387-.0420567,1.6806627-.0000512,1.295321.0975083,2.5889996.2181653,3.8798876.3565603.2484378.0266291.4810812.1771249.7210119.2704729-.1810343.1698279-.3329194.3873644-.5496806.498699-.3573088.183508-.7536133.305386-1.1387717.440564-.6523885.2290011-1.2406424.5053965-1.71155,1.0282093-.2843561.3157028-.7862786.4665935-1.1904525.6915367-.0372657-.0666604-.0745393-.1333208-.111813-.1999812Z" stroke-width="0"/>
      <path d="m123.7497785,48.8044711c.4137175-.3208941.6508019-.5463491.9292181-.7141004,2.241681-1.3506315,4.6092073-2.4616526,7.1719599-3.2202372.7071389-.2093035,1.3564259-.5786812,2.0437918-.8500461.4213557-.1663402.9044381-.332176,1.2449478.0907304.358433.445185.0312859.8067099-.3461227,1.0651332-.3975802.2722277-.8254259.5336195-1.2828832.701656-2.5362823.9316223-5.0822438,1.8414558-7.6338501,2.7372875-.4201438.1475127-.881731.2058817-1.330131.2708385-.1877954.0271994-.3911221-.0358052-.7969305-.0812618Z" stroke-width="0"/>
      <path d="m75.7724802,40.5583387c-.6101716.1297673-1.2256452.2418039-1.829255.3935281-.8769552.2204392-1.7569641-.4774147-1.5149844-1.3308023.1345359-.4745047.5501829-.9162605.9375498-1.2860842.3528598-.3368627.8519759-.5407556,1.2631022-.8312551.8915777-.6300164,1.8545852-.7150802,2.6429607-.2085431.6989905.4490821.9943493,1.2514708.7390467,2.0076571-.2789743.8262467-1.1736534,1.3961027-2.1982043,1.4000949-.0134026-.0481985-.0268131-.0963969-.0402157-.1445954Z" stroke-width="0"/>
      <path d="m128.1349772,22.2893848c-.0289259.0994093-.0851035.3104384-.1519808.5185867-.15222.4738247-.2998954.9492068-.4683802,1.4182278-.1210457.3369066-.2161632.6980294-.4215789.9899108-.5660013.8042605-1.6803837,1.0068593-2.5111196.5015359-.7966754-.4846094-1.0275886-1.4864967-.4861759-2.2735968.1807792-.2628322.4754284-.457432.6935848-.7015902.3062259-.3427047.639847-.6772204.8703775-1.0613677.3049662-.5082261.8491694-.822642,1.4313559-.7133839.6251129.1173009,1.0462613.6026781,1.0439172,1.3216773Z" stroke-width="0"/>
      <path d="m92.0778548,28.5428123c-.0087304,1.2279419-.9237167,2.1563178-2.1185224,2.1495179-1.0979262-.0062515-1.9730396-.8254278-1.9722503-1.8461938.0008531-1.1041116,1.0998397-2.1181509,2.2968619-2.1193354,1.0611787-.0010456,1.8015011.7483994,1.7939108,1.8160113Z" stroke-width="0"/>
      <path d="m50.4272138,43.3565616c-.6917112.000658-1.2140525-.2806361-1.5443568-.8298879-.3423515-.5692711-.3130907-1.1513888.0538255-1.7026806.5527423-.8304801,1.7365852-1.1077528,2.721343-.7422357.2481428.092105.6213337-.1018441.937781-.1611124.3553713-.0665653.7115559-.1294602,1.0673976-.1939491-.1163655.3153226-.179934.6590363-.3598123.9401842-.4053619.6336137-.8547266,1.244883-1.3120084,1.848804-.374044.493983-.8704493.8305386-1.5641696.8408773Z" stroke-width="0"/>
      <path d="m81.0149408,32.80616c-.6824546-.2928612-.7924337.1835299-.9353174.6938618-.2068747.7389016-.7665694,1.1694779-1.4465683,1.1837648-.8935948.018791-1.5599918-.7433983-1.3871697-1.5865641.2026889-.9888872,1.8832321-2.2970526,2.972675-2.3139718.75343-.0116987,1.4695145.4690502,1.6695484,1.1208699.1803885.5877769-.1246813.9378738-.8731681.9020393Z" stroke-width="0"/>
      <path d="m62.2436853,32.2610905c-.9108244.0139287-1.6578521-.4647875-1.8925445-1.1787563-.2757293-.8388373.0810612-1.8298961.8062589-2.2234315.1106649-.0600507.2329703-.1115686.357253-.1393529.5278188-.1179955,1.0834871-.0569798,1.3366051.3796359.4104566.7080318,1.6805671,1.0794786,1.0887652,2.1992592-.3531389.6681759-.9879868.9131092-1.6963376.9626457Z" stroke-width="0"/>
      <path d="m38.8092374,64.8787795c-.4125375-.0048769-.9775582-.2558569-1.3663522-.7984916-.367554-.512986-.3238701-1.141986.0906926-1.5486312.4613082-.4525039,1.0942825-.5301757,1.7113667-.2100055.5433979.2819449.9694576.149092,1.2302695-.3834965.0267015-.0545157.0431896-.1168915.0830545-.1616461.140133-.1572884.2883824-.3084862.4335384-.4619945.1102263.1734472.282594.3368262.3183369.5223449.0864509.4487384.1808031.9129191.1427322,1.3616502-.0797855.9403158-1.1699221,1.6867338-2.6436384,1.6802703Z" stroke-width="0"/>
      <path d="m56.9797135,47.4210614c-.020945,1.1074311-1.3704822,2.0830623-2.5474445,1.8416386-.5702509-.1169646-1.0795245-.9379103-1.0533891-1.6980084.0320912-.9330481,1.1050939-1.860276,2.1196546-1.8316875.7984852.022498,1.4976113.8192787,1.481179,1.6880572Z" stroke-width="0"/>
      <path d="m79.180312,28.5446329c-.9918936-.0074798-1.7299915-.6661506-1.7655111-1.5069475-.0323862-.7666932.4479854-1.3658398,1.3638567-1.7010354.8497594-.3110087,1.2229743-.2163447,1.8588507.4690941.241318.2601269.6618205.5083796.6800069.7801101.0197491.2950766-.342782.6067726-.5225167.9190243-.3615982.6281885-.8968478,1.0094037-1.6146864,1.0397544Z" stroke-width="0"/>
      <path d="m87.3079841,37.8735854c-.0045207.88629-.7985729,1.6039-1.7519013,1.5832592-1.0086608-.0218326-1.8428808-.8652544-1.8197592-1.8397961.0207377-.8740357.7218889-1.5060189,1.6642225-1.5000526,1.0446109.0066097,1.9122856.8056717,1.907438,1.7565894Z" stroke-width="0"/>
      <path d="m102.3765833,51.9198006c.2610032-.1623188.5249246-.3208283.7825313-.4875487,2.0262991-1.3113825,4.0490103-2.6274737,6.0790726-3.9339282.3753675-.2415699.8172616-.6898989,1.2440229-.2287452.4509513.4873001-.0648203.8792489-.4672321,1.1142383-1.7939188,1.0474975-3.6113579,2.0616391-5.4339794,3.0669775-.4754602.2622619-.9910245.4703517-1.5070832.6600527-.1869822.0687369-.4292329.0110479-.6462573.0110479-.0170303-.0673623-.0340446-.1347319-.0510749-.2020942Z" stroke-width="0"/>
      <path d="m116.1865211,8.8158844c-.9077229.0028954-1.6277621-.6460728-1.629835-1.468978-.0022324-.8891269.8568394-1.6510456,1.8639694-1.6531843.8892256-.0018937,1.5784094.6131301,1.5989318,1.4268665.0220692.875286-.8612245,1.6921956-1.8330661,1.6952958Z" stroke-width="0"/>
      <path d="m118.4273888,26.9322806c.1740659-.6131776.2975354-1.2029799.5140654-1.7625045.1770797-.4575563.5617278-.7716871,1.1390507-.7505125.6142059.0225272.9809148.4035451,1.2362253.8563341.059893.1062311-.090844.4553335-.1749589.4647436-.8432694.0942327-1.1732867.7755915-1.7171072,1.2065991-.09853.0780958-.1712435.1931301-.2815097.246805-.1388573.0675963-.3344343.156762-.4495959.1129505-.1213486-.0461731-.1767289-.2381407-.2661697-.3744154Z" stroke-width="0"/>
    </g>
  </g>
</svg>