<?xml version="1.0" encoding="UTF-8"?>
<svg id="Layer_2" data-name="Layer 2" xmlns="http://www.w3.org/2000/svg" viewBox="0 0 434.2653277 650.4393733">
  <g id="Layer_1-2" data-name="Layer 1">
    <path d="m430.9669216,107.8016863c-1.2147684-3.4893505-2.9460525-6.3684472-5.2914164-8.8018101-2.2535389-2.3377118-4.530034-4.258385-6.9614838-5.87154-3.760043-2.4950578-7.8299954-3.8580853-12.0969889-4.0513004l-1.0205968-.0463908c-2.0354544-.0932598-4.0709089-.1865196-6.1063633-.2419972-2.9862259-.0822599-5.6405427.1549547-8.1083399.7216872l-.9545975.2190409c-3.6911742.8474683-7.5076513,1.7241103-11.2064776,2.7413592-7.9849501,2.1966265-16.3152004,4.2373417-24.7611886,6.0657116l-.134868.0291736c-4.846639,1.0492921-9.8577977,2.1344533-14.6652197,3.5936101-1.0588572.3209093-2.1110188.5600369-3.1258765.7097308l-1.4596351.2171279c-2.9699653.4428644-6.0413206.9005547-9.0858937,1.2310291-3.1517023.3419525-5.7677586.3113442-8.2307733-.0975641-.8742506-.1453896-1.7532838-.2587361-2.6332735-.3720826-1.0110317-.1305637-2.0555412-.2659099-3.0828335-.4490817-1.6614588-.2965183-3.3363088-.6642966-4.9566377-1.0196402l-1.4921565-.3256918c-.2946052-.0631297-1.0875525-.2329103-.9852059-1.1655081.0210432-.1936934.1549547-.3558219.3405178-.4141691l.5232113-.1616503c.3701696-.1138248.7470347-.2295625,1.1210304-.3515176,3.0914421-1.0057708,6.6840957-2.2989731,9.8912756-4.2598197,4.1397777-2.5318834,6.9509622-6.0752768,8.3551196-10.5321377.1214768-.3849955.2582578-.7642519.3931258-1.1344215l.1654763-.4624729c.0640862-.1803022.226693-.3070399.4170386-.3247353l1.3266801-.116216c.9153806-.0784339,1.7991963-.1535199,2.677273-.2606491,5.0035067-.6073842,8.8496356-2.5309269,11.7574277-5.8796703,4.3607316-5.0216804,6.4736634-10.5192248,6.4612288-16.8063686-.0047826-2.4276238-.3022573-5.0556365-.9354673-8.2699902-.359648-1.8197613-.8704246-3.6605659-1.5629382-5.6276298-1.8011094-5.1149402-5.034115-9.3278909-9.8836235-12.8789363-.1310419-.0966076-.275475-.179824-.4199081-.2644752-.4361688-.2558666-.9794668-.5739063-1.2549418-1.2329421-.0554776-.1334332-.048782-.2845619.0172172-.4127343l.5040811-.9756408c.3606045-.6953832.721209-1.3926794,1.0760744-2.0928451.9134676-1.8025441,1.5562427-3.5405238,1.9637162-5.3138944.4820813-2.0938016.3586915-4.011127-.3768652-5.8624532-1.3410278-3.3788735-3.3229176-6.1049286-5.8892355-8.1016444-5.6596729-4.4013833-11.426475-6.7395733-17.6323155-7.1484816-5.9160177-.389778-12.8889796-.6049929-19.76916.7546868-8.160948,1.6126768-14.1525301,3.6122621-19.4248162,6.4832285-5.16707,2.8135758-10.5885718,5.9777127-17.5797074,10.2590539-5.4396755,3.3320045-10.4833556,7.2642194-14.9913898,11.6876024-2.3616245,2.3171468-4.6945538,4.6615542-7.0284395,7.0059615-1.2080728,1.2138119-2.4161456,2.4276238-3.6280445,3.6376096-.1157378.1157378-.228606.2353016-.3414743.3548654-.4332993.4610381-.8809462.9373803-1.5112867,1.2095076-.091825.0392169-.1932151.0502168-.2879097.0310866-.8331207-.163085-1.2807676-.6824703-1.6088507-1.1683776-2.6122303-3.8709982-5.8739313-7.6425193-10.2652712-11.8679046-3.0637033-2.9479655-6.3072306-5.8232362-9.4436287-8.6033341l-1.9857159-1.7623707c-3.0684858-2.7289246-6.6458353-5.0288542-10.6344843-6.8361809-5.9007136-2.6739252-12.1036845-4.8308565-18.9637781-6.5951402-7.1374817-1.8355437-14.2931371-3.6443052-21.2680121-5.375111-3.857607-.9579453-7.2197416-1.3453321-10.29301-1.180334-4.9040296.2616056-10.0347522,1.0440313-15.2506042,2.3247989-4.7988134,1.1793775-9.2169357,3.6471747-13.9057504,7.7673439-2.0727584,1.8207178-3.7036088,4.0412571-4.9862895,6.7873989-1.9445859,4.1612991-2.4132761,8.5253785-1.3936359,12.9717178.59208,2.5830567,1.4672872,5.0695059,2.5988392,8.0083846.1157378.3013008.1960847.614558.275475.9321195.0334779.132955.0669557.2663882.1042596.3998214.0583471.2070845-.0267823.4280385-.2075628.5437762l-.267823.1750414c-.1788675.1181291-.3319092.2185627-.4926029.3056051-4.5711639,2.4854927-7.9371245,6.2464921-10.2882275,11.4972568-1.4558091,3.2535706-2.1177144,6.3804036-2.0220633,9.5584099.1903456,6.4043164,2.855184,11.242825,8.1466003,14.7924356,2.5127532,1.6848933,5.399502,2.9943563,8.5789431,3.8915632,2.1760615.614558,4.4181222,1.1482909,6.5855751,1.6638501l.9383368.2238235c1.2004207.2869532,2.4075371.5437762,3.6041317.7986863l1.5878075.3405178c.1262594.0277388.2353016.1033031.3060834.2113888l.1731284.2625621c.1128682.1707371.2133019.3223441.3079964.4768205,3.5658713,5.7983669,8.9070262,9.2771958,15.8723361,10.3384443,4.5348165.6910789,9.4053682.698731,14.4739176.022478,6.3636647-.8479466,12.7751549-2.2535389,19.0575162-4.1775598.3692131-.1128682.7451217-.1649981,1.1076392-.2152149.0679122-.0095651.1358245-.018652.2037367-.0286953.0076521-.0062173.0162607-.0119564.0239128-.0176954.0813034-.1243464.2027802-.2439102.3902563-.2931705.2429537-.065521.4906899.0167389.7355566.2386494.138694.1253029.1941716.3180398.1425201.4978637-.0506951.179824-.1999107.314692-.3835607.3476916l-.2793011.0506951c-.0296518.0248693-.0612167.046869-.093738.063608-.3787782.434734-.8790332.6418186-1.3285932.8273816-.1549547.0640862-.3099094.1276942-.4562555.2013455-2.3759722,1.1932469-4.7615095,2.3692766-7.1480033,3.5453064l-3.1679629,1.5691556c-.6877311.3462568-1.3754622.6925136-2.0775409,1.0115099-8.1427743,3.7036088-16.0005085,5.4105019-23.9644153,5.2397648-6.5205324-.1453896-11.7909055-.9942927-16.5868494-2.6710557l-1.9197167-.6662096c-2.036411-.7035135-4.1426472-1.431418-6.1886233-2.2305826-5.2971554-2.0698888-10.9845671-4.23782-16.6891961-6.0690594-4.5902941-1.4735045-9.2714568-2.9293136-13.7986212-4.3372971l-3.1593543-.9828146c-6.1828842-1.9264122-11.7593407-2.9986606-17.0459745-3.2789182-7.3555661-.3892998-13.8177514.4801683-19.7595949,2.6571863-2.0880625.7642519-4.3186451,1.6648066-7.0217439,2.8336625-7.5506943,3.2650488-14.4193965,8.0318191-20.4138481,14.1678343-4.7079449,4.8184219-8.3685108,10.3661831-10.881264,16.4888071-2.4362324,5.935148-3.4587421,12.4724193-3.2177015,20.5726289.04113,1.4204182.1233899,2.585448.2563448,3.6663049l.1138248.9239892c.2419972,1.9866724.4935594,4.0407788.8790332,6.0312773.8933809,4.6194677,2.7844022,9.0701113,5.7801932,13.6063626,1.7331971,2.6227519,3.4482205,5.2560255,5.1642005,7.8897773,2.489797,3.8231727,5.0656799,7.7764308,7.6520844,11.6282987,3.5888276,5.3464157,6.6592264,11.1084353,9.386238,17.6160548,2.3444074,5.5941519,3.5591758,11.3207806,3.6098708,17.0211052.0296518,3.3162221-.7900777,6.5214889-2.4371889,9.5268451-1.6011987,2.9211832-3.3391783,5.3655459-5.3124596,7.4722604-3.0560512,3.261701-6.3139261,6.7261822-9.5985834,10.0739691-3.7495214,3.8222162-6.9260929,8.0189062-9.4407591,12.4733758-4.0297789,7.1370035-7.2436544,15.3099078-9.8252764,24.9850121-1.7408492,6.5210107-2.1167578,13.2180193-1.1191173,19.9054628.6666879,4.4745563,1.9426729,9.0275466,3.7916078,13.5331895,1.5342429,3.7428258,3.8011729,7.4043482,6.9289624,11.1930864.9383368,1.1377693,1.905369,2.2530606,2.8724012,3.3688302,1.1133783,1.2850719,2.265017,2.6136651,3.355439,3.9580407,1.946499,2.399885,3.8700417,4.8174654,5.7926279,7.235524,2.1052797,2.6457082,4.2096029,5.2909381,6.3445345,7.9132118,4.0364745,4.9580724,7.4799125,10.4307475,10.2337064,16.2664184,2.3424943,4.9642897,4.9049861,10.793265,5.665412,17.1497559.4820813,4.0249964.3462568,7.3431315-.4266037,10.4436604-.8675551,3.4850462-2.4237977,6.9122235-4.7557705,10.4771383-1.9005865,2.9063573-3.8327378,5.7926279-5.7639326,8.6788985-1.3945924,2.0837582-2.7891848,4.1675165-4.172299,6.2589268l-.6705139,1.0129447c-1.5591122,2.3520594-3.171789,4.7839875-4.6438587,7.2379153-4.4066441,7.346001-7.4588693,14.2113555-9.3307604,20.9877545-2.2640605,8.1925129-3.4463075,15.0736497-3.7217825,21.6553988-.1406071,3.3721779-.0966076,6.2909699.1339115,8.9218521.2821706,3.2119624,1.1468561,6.5544885,2.7193595,10.519703,1.7437187,4.397079,3.7801297,8.7310283,6.0527988,12.8813276,3.5649148,6.5138368,7.7372138,12.5384185,10.973089,17.0593656l1.543808,2.1502357c3.4357859,4.7815962,6.9892226,9.7257993,10.1141425,14.8388264l.087999.1439548c1.0942481,1.7905877,2.2258,3.6423922,3.3927429,5.4258061,4.1177779,6.2971872,7.252263,13.1692372,9.5832792,21.0087977,1.9847594,6.6750089,2.9030095,11.8937304,2.9766608,16.9216281.0612167,4.2038639-.1721719,7.6879535-.7355566,10.9640022-.4792118,2.7820109-1.2740721,5.712281-2.5022316,9.2221965-2.5892741,7.4038699-5.7371503,12.9717178-9.9075363,17.5223167-2.9154442,3.1832671-5.7438458,5.3196334-8.8993741,6.7242692-1.1889426.5289503-2.3884068,1.0368574-3.5907406,1.5375907-1.2071163.5026463-2.4161456,1.0014665-3.625175,1.5002868-2.5127532,1.0368574-5.0245499,2.0737149-7.5229555,3.1421372-1.1411171.4873421-2.2401477,1.1377693-3.1803976,1.7092844-.4170386.252997-.8139905.6241231-1.1162478,1.0445095-.44956.6241231-.5892105,1.3400713-.3940823,2.015846.2190409.7551651.8331207,1.384549,1.6853716,1.7269798.8025124.3218658,1.5696338.177911,2.4190152-.0277388,6.0623639-1.4687219,12.0357722-3.243049,17.7547488-5.2746774,4.1780381-1.4845044,7.7630396-3.9723883,10.6555275-7.3938265,5.1422007-6.0838853,8.9012872-12.4059418,11.4924742-19.3277304,3.220571-8.6047689,4.6715975-16.4873723,4.4353394-24.0973703-.0133911-.4227777-.0200867-.8455553-.0267823-1.2688112-.0153042-.9244674-.0306083-1.8804997-.1176508-2.8073585-.3759086-4.0297789-1.1267694-8.230295-2.2324956-12.4848539-2.126323-8.1901216-4.57499-14.6025683-7.705649-20.1799813-4.9738549-8.8582442-9.3785859-15.8718578-13.8617509-22.0710027-3.5601323-4.9222033-6.939484-9.9171014-10.6708317-15.4677321-4.0010836-5.9514086-7.3833049-12.5747659-10.337966-20.2483718-1.3658971-3.5472194-2.1081493-6.7204431-2.270756-9.70093-.22478-4.1053433-.1128682-8.1327309.3299961-11.9702513.6886876-5.9552347,2.0555412-12.168249,4.1789946-18.9948647,1.4692002-4.7242056,3.7839557-9.5617577,7.2866974-15.2247784,2.1205839-3.4300468,4.3387319-6.8768326,6.4832285-10.2102719,1.2635504-1.9641944,2.5271009-3.9283888,3.7791732-5.8997571l1.0129447-1.5897205c1.4672872-2.2999296,2.9852694-4.6782931,4.3636011-7.0772216,4.0699524-7.0834389,5.618543-13.9798799,4.7337707-21.082449-.404604-3.2497446-.859903-5.7314112-1.4758958-8.0471232-.955554-3.5936101-2.3989285-6.9500056-4.0489092-10.6517015-3.1641369-7.094917-6.9260929-13.6900572-11.1835213-19.6032054-5.028376-6.9858748-9.7181472-13.0195433-14.3371366-18.4453494-1.7226755-2.0244546-3.5228284-4.2574285-5.6644555-7.0284395-1.809718-2.3410596-3.2588314-5.0475062-4.5596858-8.5177264-.9134676-2.4371889-1.6385026-5.0561148-2.2803211-8.2432079-.6992092-3.4702203-.9412064-6.1517976-.7833821-8.6937244.230519-3.7337389.6360795-6.5463582,1.3142455-9.1208063,2.2439737-8.5234655,5.1871567-16.0105518,8.9969382-22.8888192,2.6944902-4.8633779,5.6194995-8.9338085,8.9424171-12.4442022,2.263104-2.3917546,4.4114267-4.8705517,6.396186-7.1929593.4380818-.5126897.8799897-1.0220315,1.3228541-1.5313734,1.6719804-1.9230645,3.400395-3.9121281,4.8294218-6.0647551,4.5166428-6.802703,6.1561019-14.2156598,4.8743778-22.0332205-.8924243-5.4435015-2.5242313-10.8592643-4.850465-16.0966378-2.5825785-5.8170189-5.7495849-11.4456052-9.4130203-16.7293695-4.764379-6.8691805-9.1356323-14.034401-13.150107-20.7538876-.7556433-1.2654635-1.4758958-2.6705775-2.1999743-4.2956889-1.6117203-3.6122621-2.0775409-7.3675225-2.3415378-10.8874813-.2563448-3.4195252-.2745185-7.0566566-.0554776-10.8114387.2219104-3.8159988.902946-7.1480033,2.0823235-10.1863591,1.9694552-5.0709407,4.7031624-9.5990616,8.1255571-13.4576252,2.671534-3.0120517,5.8347143-5.8691487,9.6722347-8.7358108,9.6856258-7.2374371,19.450642-11.195956,29.8536507-12.1022497,3.4816984-.3041704,6.5549668-.297953,9.3900641.0172172,4.6342936.5155592,9.2265008,1.6399373,13.6675792,2.7274898l.8369467.2046933c2.1224969.518907,4.260298,1.1200739,6.3273173,1.7016323,1.7762401.4997768,3.6127403,1.0162925,5.4262843,1.4768523,5.352633,1.3592015,10.7330049,3.12492,15.9947694,5.2478951,3.3898734,1.3687666,6.8859194,2.6452299,10.2671842,3.880085,3.8509115,1.4055923,7.1250471,2.2664517,10.3102272,2.7107509,1.5820684.2209539,3.2808312.4089083,5.5075877.6097755,4.1550818.3735174,8.164774.2764315,11.919078-.2898227,6.4401855-.972293,12.6020265-2.8480102,18.315264-5.5755l2.4945795-1.1980295c1.9168471-.9230327,3.8336943-1.8460654,5.7677586-2.7365767,6.0183644-2.7729241,11.9286431-6.1809712,18.0675278-10.4187912,5.0350715-3.4740463,9.4904977-7.6779102,13.6226232-12.8516757,3.6529138-4.5735552,6.7797468-9.5215843,9.0954588-13.3208442.3386047-.5547761.7068613-1.1377693,1.1612038-1.6437634,1.5629382-1.7398927,3.2310926-3.5548715,5.1001142-5.5482394.2410407-.2587361.5327764-.4376036.7900777-.5959061.093738-.0578689.185563-.1133465.267823-.1707371.1511287-.1061727.3519959-.1171725.5174722-.0258258.0631297.0349126.1119117.0583471.1501722.0769991.1061727.0502168.2496493.1190856.3424308.2850401l.1664328.3003443c.2687795.4839943.5385154.9684669.7862517,1.4625046,2.5194488,5.0054197,5.2675036,9.2322398,8.4039017,12.9210228.8857288,1.0421182,1.7762401,2.0808887,2.6657949,3.1201374.8914678,1.039727,1.7819792,2.0794539,2.6686644,3.1230069,4.9269858,5.7974104,10.9319591,10.5120509,18.358307,14.4136575,4.2574285,2.2367999,8.9338085,4.4171657,14.2979197,6.665922,4.2201245,1.7690663,8.6841593,2.9302701,12.8956752,3.9676058.6915571.1707371,1.363984.3496046,1.9857159.6619053,1.7571099.8838157,3.6041317,1.4739828,5.3449809,2.0029331l1.0913785.3295179c1.6557198.498342,3.3669171,1.0129447,5.0245499,1.6188941,3.3812648,1.2362899,7.4053047,2.5868828,11.6158641,3.2320491l1.495026.2314756c2.2124089.3438655,4.5013386.6996875,6.7529645.9450324,3.2196145.3505611,6.4401855-.003826,9.5555404-.3472133,5.8634097-.6446881,10.2796189-1.5151127,14.3180064-2.8217061,3.810738-1.2329421,7.9275594-2.2784081,12.9559354-3.2903963,4.7471619-.9541193,9.0036338-1.8819345,13.0123695-2.8360538,4.3014279-1.0234663,8.65929-2.1229752,12.8736755-3.1866149l4.7997699-1.2075946c3.537176-.8857288,7.1336557-1.3305062,10.7368309-1.3305062,1.4376354,0,2.8771837.0707818,4.3138626.2128236.5614717.0554776,1.1210304.1296072,1.680589.2037367.5586022.0741296,1.1162478.1477809,1.6758065.2027802,3.0311819.2955618,5.9160177,1.3615928,8.5741606,3.1679629,1.772414,1.204725,3.4721333,2.5849698,5.1967218,4.2201245,1.8412828,1.7446752,3.2808312,3.8298682,4.2784717,6.1972318,1.219551,2.8996617,2.1521487,6.1159285,2.9345744,10.1232294.9364238,4.7992917,1.0942481,9.5019758.4677337,13.9774887-.6399056,4.5678161-1.6796325,9.0366334-3.0914421,13.2825837-2.5481441,7.6630843-5.7266287,14.0042709-9.7152776,19.3865558-2.3625811,3.1866149-4.846639,6.439229-7.3842614,9.6679304-4.037431,5.1364616-7.9313855,10.1959242-11.2045646,15.6135999-3.1918757,5.2842425-5.6099344,11.0993484-7.1872203,17.2836674-.7183394,2.8164453-.9909449,5.1551136-.859903,7.3608269.1511287,2.5409703.588254,4.968594,1.2989413,7.2154373,2.0038896,6.3368824,5.0350715,12.041033,9.0074598,16.9541495l1.0225098,1.2621157c2.769098,3.4161774,5.6328906,6.9490491,8.1494699,10.656484,2.0727584,3.0555729,4.2105594,6.3914035,5.8079321,10.0749256,2.5184923,5.8093668,4.0871696,12.2026833,5.0848101,20.7294966.3806912,3.261701.4562555,6.5439669.4792118,9.0390247.0459125,5.028376-.0162607,10.4269215-.7824256,15.8379017-.9220762,6.4975762-2.5510136,12.8311108-4.8428129,18.8255624-3.6567398,9.5665403-8.7166806,18.8021279-15.0411284,27.4499397-4.3549925,5.9571477-8.3168592,11.9506428-11.7746449,17.8140525-3.1507457,5.3440244-5.4597622,10.2805754-7.0580913,15.0918234-1.5131997,4.5553815-1.997194,8.9385911-1.4806783,13.4007128.6619053,5.7127593,2.2439737,11.1816083,4.7031624,16.2539838,1.1946817,2.4677972,2.5117967,5.0962882,4.2679501,8.5229872,1.8862388,3.6806526,4.215342,7.3287838,6.9203538,10.8425253,3.3334393,4.3306015,7.0666999,8.8778527,11.4140404,13.9014461,2.0201503,2.334364,3.6414357,4.9274641,4.8189001,7.7061272,1.9407599,4.5802508,3.1545718,9.5703663,3.6089143,14.8321308.3711261,4.3019062.6150363,8.6511597.726948,12.9262836.1023466,3.8810416.1759979,8.9916774-.1568677,14.1047046-.2142584,3.2746139-.5385154,7.1489598-1.3228541,11.0577402-.9459889,4.7108145-2.3893634,10.8669163-5.1881132,16.7030655l-1.0502486,2.1947135c-1.7590229,3.6787396-3.5773495,7.4823038-5.4788924,11.1677389-3.8317813,7.4234784-7.0561783,14.2634853-9.8587542,20.9107554-1.1678994,2.7710111-2.0354544,5.3181987-2.6524038,7.7874306-1.3276366,5.3052858-1.8585,10.6947444-2.2028438,15.2673431-.404604,5.3588504-.3357352,9.478063.2238235,13.3567133.7279045,5.052767,1.7111974,9.4163681,3.0063127,13.3394961,1.3965054,4.2277766,3.2253536,8.6965939,5.755324,14.0626181,1.2444202,2.6394909,2.7499678,5.0465497,4.4735998,7.1551772,3.3650041,4.1149084,6.4956631,7.6229108,9.5718011,10.7248745,2.4324063,2.4534496,4.4018615,4.2057769,6.3856644,5.6831074.9163371.681992,1.9369339,1.2860284,2.8226626,1.7991963.6131233.3553437,1.2912892.5059941,2.0201503.453386.6666879-.0502168,1.1870296-.3563002,1.4290268-.8388598.2429537-.4839943.1759979-1.0880307-.1846065-1.6566763-.2400841-.3778217-.5184287-.7073396-.8053819-.9526845-2.8245757-2.4099283-5.2397648-5.2431126-7.3718268-7.7429529-4.0948217-4.8031177-9.1413713-11.355215-11.829166-19.4549463-.0153042-.0459125-.0382604-.087999-.0602602-.1310419-.0344344-.069347-.0688688-.1396505-.0966076-.2113888-2.5711004-6.7630078-5.1775916-14.006184-6.3167957-21.6592249-.541385-3.6323488-.6972962-6.9839618-.4782553-10.246141.2324321-3.4596987.5279938-7.4832603,1.0990306-11.4518225.4476469-3.1072245,1.0693788-6.7591818,2.2822342-10.2844014,1.1545082-3.3597433,2.6064912-6.8275723,4.5682944-10.9133071,1.1506822-2.3946242,2.3664071-4.8031177,3.5419586-7.1322209,1.0942481-2.1669746,2.1875396-4.3339493,3.2454403-6.5186194,2.0985841-4.3329928,4.0517787-8.6310729,5.5190659-11.8913391,2.1464097-4.7710746,3.3143091-9.8314937,4.5137733-15.4758624,1.3065934-6.145102,1.9417164-12.9473268,1.9426729-20.7950176,0-3.0225733-.0669557-6.1011025-.1310419-9.0777634-.0392169-1.7953703-.0774774-3.5907406-.1033031-5.3856326-.0755643-5.4205453-.6035582-10.289184-1.6155463-14.8833041-1.7896312-8.1274701-5.16707-14.8187397-10.3255314-20.4564129-2.2038003-2.4089718-4.2650805-5.0063762-6.2584485-7.5191294l-1.2807676-1.611242c-2.218148-2.7772284-3.9666492-5.330155-5.3478505-7.8036913-2.0555412-3.6811308-4.0412571-7.3952613-5.8806269-10.8602208-1.7025888-3.2086146-3.0397905-6.7510515-4.0890826-10.8305689-1.6098073-6.2584485-1.407027-11.9382082.6179058-17.3640143,1.5170257-4.0627786,3.4300468-8.1389483,5.8481055-12.4604629,2.9173572-5.2134607,6.3531431-10.5173117,11.1404784-17.1980597,5.4540232-7.6128675,10.2375324-16.1076376,14.2194858-25.2485307,4.7328142-10.8693076,7.2924364-22.4583894,7.6080849-34.4449014.1654763-6.2909699.0621732-11.4910395-.3252136-16.3658955-.3539089-4.4520784-1.1449431-9.1093282-2.4161456-14.2381378-2.133975-8.6133775-5.9236698-16.273114-11.2619552-22.7663858-.8465118-1.0292054-1.6872846-2.0631933-2.5280574-3.0976594-1.6968497-2.087106-3.4510901-4.2459503-5.2254171-6.3244478-3.6175229-4.2363852-6.2287967-9.0672418-7.983037-14.7685229-1.0674658-3.4702203-1.2616374-6.7099215-.5949496-9.9037102,1.3094629-6.2684919,3.2808312-11.6354726,6.026973-16.407982,2.1062362-3.6600876,4.4487306-7.1106994,7.3192187-11.1658259,1.9426729-2.7437505,3.8977805-5.4788924,5.852888-8.2145126,1.7465883-2.4434062,3.4931765-4.8868124,5.2301997-7.3364359,1.9063255-2.6863599,3.5945666-5.4999357,5.0197674-8.3627717,2.3817113-4.7882918,4.219168-9.2614134,5.6166299-13.6747531,1.7877182-5.6510643,2.763359-11.0304797,2.9814434-16.4443294.1406071-3.4530031-.0200867-6.549706-.4878204-9.4665849-.7546868-4.6974233-1.6059812-8.2719032-2.761446-11.5890818ZM129.9415736,59.8221606c-2.0545847,3.7026523-3.2023973,7.6640408-3.4109166,11.7727318-.0353909.7082961-.1023466,1.4146791-.1673893,2.1028884l-.0870425.9464672c-.0095651.1176508-.0621732.2276495-.1463461.3099094-.2668664.2592144-.5385154.3414743-.7843387.3414743-.2917357,0-.545211-.1157378-.7049483-.1889108-.0516516-.0239128-.1023466-.0478255-.1520852-.065521-2.2162349-.7929472-4.7299447-1.6915889-7.1365252-2.6394909-1.6222419-.638949-3.1784846-1.538069-4.623772-2.671534-3.8709982-3.0378775-5.0647234-6.5454017-3.8709982-11.3724322,1.1210304-4.5271644,3.3477869-8.3101637,6.6200095-11.2433032.8484249-.7609041,1.6547632-1.609329,2.4352759-2.430015l.6657313-.6972962c.9880754-1.0287271,1.3764187-2.2128872,1.1229434-3.426699-.3768652-.8661203-.9545975-1.2118989-1.6222419-1.611242-.2190409-.1315202-.4361688-.2620839-.6437316-.40843-.0927815-.0659992-.1597373-.1621285-.1893891-.271649-.8809462-3.2516576-1.6939802-6.4397073-1.9618031-9.6942344l-.0325214-.4490817c-.0200867-.2984313-.0401734-.5968626-.0793904-.8938591-.5834714-4.4406002.725035-8.3374242,3.8891719-11.5828645,4.1091693-4.213429,8.8850265-6.8242245,14.1946165-7.7592136l1.4749393-.2625621c2.5051011-.4476469,5.0953317-.910598,7.6769537-1.1961164,3.7734341-.4175169,7.480869-.1037814,11.0103929.9349891,5.028376,1.4782871,10.1868373,2.7968368,15.1769529,4.0713872,2.0727584.5299068,4.1455167,1.0593354,6.2154055,1.6011987,4.5089907,1.1812905,9.1643276,2.7217508,14.6518286,4.848552,5.0656799,1.9632379,9.3613687,4.5482077,13.1309768,7.9036467,2.1502357,1.9130211,4.3846444,3.8073902,6.5463582,5.6391079,1.1181608.9474237,2.2363217,1.8948474,3.3477869,2.8494449.3787782.3247353.7412957.6681226,1.1200739,1.0258576l.5499936.5174722c.1157378.1066509.1721719.2625621.1530417.4184734-.0191302.155433-.1109552.2931705-.2486927.3692131-.7422522.4117778-1.3247671.0970858-1.7111974-.1109552-.0793904-.043043-.1568677-.0856077-.2333886-.1176508-5.2493299-2.1870614-10.7607437-3.9389104-16.8470203-5.3545461-4.7289882-1.0995089-9.4531938-1.5548079-14.0559225-1.3534624-12.8028937.5633847-24.7257977,4.6773366-35.4368028,12.2270743-6.4220118,4.5266862-11.7497756,10.5560504-15.8359887,17.9211816Zm80.3746249,3.0699206c-3.8078685,6.3378389-7.9409506,10.9520458-13.0047174,14.5207866-7.477043,5.2694166-16.003378,8.9993295-25.3417905,11.0864355-4.8246392,1.0779874-9.2934565,1.7618924-13.6627967,2.0899755-.8139905.0612167-1.6346765.091825-2.4620582.091825-3.5343065,0-7.1766986-.5581239-10.8640468-1.6667196-1.9254557-.5796454-3.7533474-1.5595905-5.4339364-2.9130529-.18365-.1482591-.3424308-.3276049-.498342-.5083854l-.1061727-.1219551c-.1243464-.1410853-.1444331-.2993878-.1539982-.3754304-.0315648-.134868-.0047826-.2874314.0736513-.4012562.365387-.5265591.9163371-.4997768,1.2472898-.4825596.0707818.0028695.1434766.0076521.2104323.0052608.8665986-.0286953,1.7331971-.0516516,2.5997957-.0746078,1.5686773-.04113,3.1363981-.0827382,4.7012493-.159259,4.7146405-.2309973,9.4637154-.8938591,14.1171392-1.97089,5.1106359-1.182247,10.105534-2.3506247,15.0181721-3.6500443,5.3086335-1.4036792,10.5943108-3.5673061,15.7125988-6.4310987,1.3687666-.7652084,2.7461418-1.515591,4.1225605-2.2659735,1.5782424-.859903,3.1555283-1.7193277,4.719423-2.6017087,1.8575435-1.0473791,3.6959568-2.126323,5.6367167-3.2645705l2.7021423-1.5820684c.1941716-.11239.4390383-.0803469.5949496.0793904.1578242.159259.1865196.404604.0717383.5959061Zm6.6467918-15.1822137l-.494516.3998214c-.3137355.2549101-.5825149.4725162-.8560769.681992l-2.5883175,1.9732813c-3.4482205,2.6289692-6.8954845,5.2574602-10.3523137,7.8754296l-.1023466.0779556c-.9412064.7126004-1.9139776,1.4495917-2.9575306,2.064628l-2.5098837,1.4888087c-3.1191809,1.854674-6.3445345,3.7724776-9.6081485,5.5109355-4.9078556,2.6141433-10.062491,4.6376414-15.319473,6.0154948l-1.0100751.2644752c-5.0226369,1.3185498-10.2164892,2.6815773-15.4725146,3.4807419-4.2067334.6399056-8.114079.9574671-11.8215139.9574671-1.7178929,0-3.3917864-.0683905-5.034115-.2037367-.9679887-.0798686-1.9216297-.2353016-2.8427494-.3849955-.4055605-.065521-.8034689-.1305637-1.1918121-.1869978-.1224334-.0176954-.2343451-.0817817-.3118224-.1788675-.5538196-.6944267-.5576457-1.3673318-.5605152-1.9087168l-.0028695-.2046933c-.1052162-4.1861684.773817-8.042819,2.6122303-11.4618659,2.0325849-3.7767819,4.8265522-7.3995656,8.5416392-11.0759139,4.3894269-4.3425579,9.9496227-7.9318637,16.998149-10.9726108,5.1230705-2.2100176,10.6842228-3.5850015,17.000062-4.2038639,3.3793518-.3314309,6.804616-.3008226,10.1839678.0908685,3.1258765.361561,6.1828842,1.1702907,9.020851,1.9900202,6.4985327,1.8766737,12.6651562,4.4162092,17.8398783,6.6530091.132955.0573906.2582578.1324767.4438209.2482145l.3386047.206128c.1377375.0817817.2276495.2262147.2391276.3864303s-.0564341.3161267-.181737.4165603Zm27.6221116-12.5742877c.1539982-.1826935.2745185-.3295179.3749521-.4524295.185563-.2281278.3108659-.3797347.4505165-.5165157,4.1761251-4.0981694,8.2814683-7.409609,12.5503749-10.1227511,3.9628232-2.5189705,8.0786881-4.9322466,12.0587285-7.2661324,1.2549418-.7350784,2.5089272-1.470635,3.7609995-2.2104959,6.5100108-3.8470854,13.9440108-6.4205771,22.7286037-7.8663428,1.7303276-.2845619,3.4826549-.3998214,5.2053304-.3529524,4.5109037.1319985,7.9447766.3931258,11.1337828.8474683,2.2621474.3223441,4.0728219.8264251,5.6960203,1.586851,2.4199717,1.1320302,4.531947,2.2009308,6.4574027,3.2679183,2.583535,1.4328528,4.443948,3.7404345,5.8538446,7.2623063.4352123,1.0861177.4906899,2.2544954.1693024,3.5725669-.3873868,1.5935466-.8120775,3.177528-1.2405942,4.7753789l-.5356459,2.0062809c-.0392169.1496939-.1473026.2721273-.2917357.3299961-.1530417.0612167-.3032138.1171725-.44956.1716936-.2812141.1047379-.5461675.202302-.7939038.3309526-.4792118.2482145-.7948603.6078625-.9134676,1.0402052-.1214768.4395166-.0296518.9230327.2649534,1.3979402.3395612.5466458.7996428,1.0373357,1.2042468,1.4452874.4677337.4710814.9632061.9144241,1.4577221,1.358245l.7862517.7111656c.3252136.2974748.6504272.5954278.9842494.8828592,3.8451724,3.3114395,6.39236,7.5832156,7.5679115,12.6971993.726948,3.1574413,1.3448538,6.0116688,1.5552862,8.9687212.3826042,5.3870674-1.1038132,10.248054-4.4190787,14.4476136-.5643412.7140351-1.2951153,1.3725926-2.1138883,1.9044125-2.1942352,1.4218529-4.7270751,2.1612356-7.527738,2.197583h-.0066956c-.179824,0-.3453003-.0989988-.4313863-.2577796-.4208646-.7819474-.4820813-1.5595905-.541385-2.311886-.0143477-.1812587-.0277388-.3620392-.0478255-.5423415-.6322535-5.7361938-2.4151891-10.6579188-5.4511536-15.0459109-1.8011094-2.6036217-4.0565612-5.032202-6.7041824-7.2192634-5.1087228-4.2186898-9.9209274-7.5765201-14.7130453-10.264793-5.4348929-3.0479209-11.3489977-5.3511983-18.0809189-7.0408742-3.1603109-.7929472-6.3445345-1.0717701-8.7664192-1.2262465-3.5974362-.230519-6.6238356-.3773434-9.6703217-.3515176-4.3272537.0363474-8.6152905.5777324-12.7445466,1.6088507-.4734727.1176508-.9450324.2410407-1.4165921.3639523-.4744292.1243464-.949815.2482145-1.4261572.3673001-.2410407.0602602-.4868639.1066509-.8331207.1721719l-.6714704.1296072c-.2075628.0435212-.412256-.0526081-.5174722-.2314756-.1061727-.1793457-.0860859-.4060387.0478255-.5648195Zm-5.2301997,12.2524219c.1434766-.0956511.2630404-.1831718.3692131-.2606491.2152149-.1559112.3998214-.2907792.6226884-.3883433,7.3115666-3.1952235,14.3390496-5.0044632,21.4841834-5.5310223,2.5825785-.1903456,5.165157-.3806912,7.7209532-.4026909,4.1732555-.0349126,8.5445087.5992539,13.6618402,1.9986288,8.6114645,2.3554072,16.7972818,6.4798807,24.3298023,12.2595957,1.8068484,1.3869403,3.3898734,2.8001846,4.8380304,4.3205582,3.6031752,3.7815645,5.7419328,8.3828585,6.5406191,14.0674006.0353909.2501275.0813034.5016898.1272159.7546868.1578242.8670768.320431,1.7642837.0994771,2.6868381-.0267823.1095205-.089912.2066063-.1788675.2749968-.365387.2783446-.7422522.3577349-1.090422.3577349-.2649534,0-.5146027-.0459125-.728861-.0860859-.0994771-.0181737-.1979977-.0368257-.2946052-.0497385-4.0756914-.5528631-8.2881639-1.5251561-12.8794145-2.9723565-4.6132504-1.4548525-9.2121531-3.1813541-13.6599272-4.850465-1.4701567-.5519066-2.9403134-1.1033349-4.4123832-1.6466329-3.5964797-1.3271584-7.1814812-2.5524484-10.5455288-3.6935655-1.7427622-.59208-3.49222-1.1626386-5.2407213-1.7331971-1.8585-.6059494-3.7160435-1.2118989-5.5659349-1.8431958-4.3942095-1.4978955-8.2164256-3.2808312-11.6866459-5.4511536-3.8193466-2.3874503-8.3187722-5.0905491-13.4054953-6.9442666-.1731284-.0631297-.2965183-.2180844-.318518-.4012562s.0602602-.3629958.2133019-.4658206Zm59.7226057,48.3157391c-1.2750286.2185627-2.583535.3280831-3.9350844.3280831-2.3951024,0-4.9250728-.3438655-7.6473018-1.0349444-3.9982141-1.0158142-7.795561-2.5381007-10.9826541-3.8939544-2.9441395-1.2511158-5.9963646-2.6170129-9.3317169-4.1746903-5.7620195-2.6925772-11.0046539-6.0609291-15.5825134-10.0122742-1.2492028-1.0789439-2.3750157-2.1736702-3.3468304-3.2540489-5.4913271-6.1144937-9.4120638-11.6067773-12.3370731-17.2841456-.0736513-.1434766-.1396505-.290301-.2515623-.543298l-.2764315-.6202971c-.0851294-.1879543-.0439995-.4093865.1042596-.5533414.1492156-.1429983.3701696-.1788675.5566891-.0884772l1.0875525.5299068c.5777324.2802576,1.0339879.5026463,1.4892869.7293393,1.2071163.6021234,2.4132761,1.2085511,3.6184794,1.8149788,2.5491006,1.2817241,5.0982012,2.5634483,7.664519,3.8064337,4.2086464,2.0368892,9.0112859,3.7686516,15.1166927,5.4497189,2.1798875.6002104,3.9063891,1.0650745,5.352633,1.4543743,7.1929593,1.9369339,7.4732169,2.0129765,21.7988754,7.4550432,4.7758572,1.8140223,10.4431822,3.8571288,16.2683314,5.2560255,1.8326742.4404731,3.7227391.7919907,5.5496742,1.131552.8771202.163085,1.7542403.3261701,2.6294475.4992985.2113888.0416082.4218212.0932598.6733834.155433l.4141691.1009119c.1482591.0349126.271649.1372593.3338222.2759533.0621732.1391723.0564341.2993878-.0162607.4332993-.1147813.2128236-.2190409.4175169-.318518.6150363-.2161714.4251689-.4199081.8264251-.6791225,1.2037685-1.2118989,1.7690663-2.495536,3.1383111-3.9236063,4.1852119-4.2909063,3.1459632-9.0112859,5.1766351-14.0291402,6.0351033Z" stroke-width="0"/>
  </g>
</svg>