<?xml version="1.0" encoding="UTF-8"?>
<svg id="Layer_2" data-name="Layer 2" xmlns="http://www.w3.org/2000/svg" viewBox="0 0 241.890819 118.5113701">
  <g id="Layer_1-2" data-name="Layer 1">
    <g>
      <path d="m119.3923525,112.6024853c-1.1767578-.0595703-2.5097656-.1289062-3.7695312.0146484-5.6181641.6328125-11.3642578,1.3222656-17.5664062,2.1054688-4.234375.5361328-8.4931641.3867188-12.6123047.2431641l-1.3730469-.0478516c-1.4960938-.0498047-3.0048828-.1796875-4.4638672-.3046875-.4638672-.0400391-.9267578-.0800781-1.390625-.1171875-1.7167969-.1386719-3.4316406-.2822266-5.1464844-.4248047-3.0673828-.2568359-6.2382812-.5214844-9.3613281-.7539062-3.8349609-.2851562-6.7558594-.9492188-9.1914062-2.0888672l-1.2753906-.5957031c-4.0253906-1.8789062-8.1875-3.8222656-12.1386719-5.8955078-3.1269531-1.6416016-5.9482422-3.8369141-8.8779297-6.9111328-.2490234-.2617188-.2597656-.7333984-.1640625-1.0605469.2246094-.7724609.5185547-1.59375.9228516-2.5839844.1171875-.2880859.3310547-.6855469.6806641-.9423828.9384766-.6914062,1.8271484-1.2851562,2.7158203-1.8173828,3.2558594-1.9511719,6.2333984-3.7089844,9.1005859-5.3740234.5341797-.3095703,1.1201172-.5722656,1.6865234-.8271484.2490234-.1113281.4990234-.2236328.7441406-.3398438.4609375-.2158203.8212891-.1728516,1.2070312.1455078,1.1083984.9150391,2.2294922,1.8212891,3.3505859,2.7275391.8574219.6923828,1.7148438,1.3857422,2.5664062,2.0820312.1621094.1308594.3564453.4355469.2587891.671875-.3427734.8339844-.0185547,1.4960938,1.0195312,2.0839844,1.59375.9042969,3.2373047,1.7392578,4.4912109,2.3662109,5.9501953,2.9697266,12.6044922,4.7929688,19.7773438,5.4189453l1.0976562.09375c1.4150391.1210938,2.8769531.2451172,4.3056641.4150391,6.3935547.7548828,12.6542969.0273438,18.4697266-.8740234,8.0488281-1.2460938,14.4580078-2.6083984,20.171875-4.2871094,3.3349609-.9804688,6.6513672-.8798828,10.0380859-.6748047,2.7216797.1640625,4.796875.2089844,6.7333984.1474609,8.0996094-.2607422,15.3828125-2.9414062,20.8222656-5.2470703.0996094-.0419922.1953125-.0878906.2919922-.1328125.0810547-.0380859.1621094-.0761719.2441406-.1123047h.0009766c.0458984-.0195312.0908203-.0292969.1474609-.0400391l.1806641-.0419922.0585938.0556641c1.7451172,1.6367188,9.0644531,12.0449219,9.6699219,13.75l.0498047.140625-.1416016.0507812c-.0625.0214844-.125.0458984-.1875.0703125-.1386719.0537109-.2822266.109375-.4355469.1484375l-3.1787109.7988281c-3.1699219.7978516-6.4472656,1.6230469-9.6767578,2.4160156-3.8115234.9355469-7.7441406,1.0722656-11.4453125,1.1318359-5.5361328.0878906-10.3945312,1.0742188-14.8515625,3.0166016-1.4277344.6210938-2.8916016,1.2070312-4.3505859,1.7412109-.3515625.1289062-.7451172.171875-1.1269531.2138672-.1943359.0205078-.3886719.0419922-.578125.0742188-.1162109.0205078-.2304688.0585938-.3525391.0996094-.0107422.0039062-.0214844.0068359-.0332031.0107422.0029297.0097656.0048828.0185547.0078125.0283203.0205078.0751953.0478516.1777344.0810547.1943359.15625.0742188.3134766.1513672.4697266.2294922.5634766.2802734,1.1455078.5693359,1.7695312.7050781.7080078.1533203,1.5751953.1748047,2.4404297.0625,3.6777344-.4785156,7.3935547-.453125,10.9931641-.4238281.5957031.0039062,1.1914062.0087891,1.7880859.0107422.1220703.0009766.2460938.0009766.3701172.0009766,2.7353516,0,5.7441406-.1103516,9.1835938-.3369141,4.1523438-.2744141,8.1826172-1.1064453,11.9775391-2.4736328,2.7246094-.9824219,5.5371094-1.8994141,8.2578125-2.7861328l1.6728516-.5458984c1.1953125-.390625,2.3740234-.7099609,3.7910156-1.0869141.8994141-.2402344,1.6162109-.6796875,2.2539062-1.3818359,1.9091797-2.1015625,4.3759766-4.4042969,8.1982422-5.5605469.4482422-.1357422.9023438-.2597656,1.3564453-.3837891.6455078-.1777344,1.3134766-.3603516,1.9521484-.5742188.5029297-.1679688.9970703-.3779297,1.4755859-.5800781.359375-.1523438.7304688-.3095703,1.1044922-.4501953.3417969-.1279297.7216797-.1865234,1.0224609-.1601562.4873047.0458984.9775391.1132812,1.4511719.1777344.8066406.1103516,1.6396484.2246094,2.4638672.234375,1.2958984.0205078,2.765625.0341797,3.9785156-.3564453,3.8056641-1.2255859,8.7421875-2.9580078,13.1796875-5.4951172,3.5585938-2.0351562,6.2529297-4.7070312,8.9257812-7.4951172,2.7792969-2.9003906,5.3710938-6.2285156,8.1582031-10.4736328.3085938-.4716797.6201172-.9414062.9306641-1.4121094,1.203125-1.8183594,2.4462891-3.6982422,3.5458984-5.5839844,2.3681641-4.0605469,3.1142578-8.2910156,2.2158203-12.5712891-.5693359-2.7138672-1.3242188-5.4462891-2.0546875-8.0888672-.1699219-.6123047-.3388672-1.2246094-.5058594-1.8369141-.3027344-1.1103516-.6494141-2.2333984-.9833984-3.3183594-.2705078-.8789062-.5498047-1.7871094-.8066406-2.6855469-.1054688-.3671875.0634766-.7841797.1728516-1.0009766.2919922-.5732422.1533203-1.0292969-.4365234-1.4365234-.2714844-.1875-.7539062-.5722656-.9287109-1.0410156-1.671875-4.4941406-4.1894531-8.3398438-7.6953125-11.7568359-2.4140625-2.3530273-5.5009766-3.9296875-7.9199219-5.0410156-2.8691406-1.3173828-5.8935547-2.7905273-8.5761719-4.6347656-3.7431641-2.5717773-8.3974609-3.9550781-12.0341797-4.8725586-3.3261719-.8398438-7.2001953-1.7998047-11.0722656-2.5654297-1.6513672-.3266602-3.4052734-.4814453-5.1005859-.6318359-.5908203-.0522461-1.1816406-.1044922-1.7695312-.1635742-1.0820312-.109375-2.1669922-.2075195-3.2509766-.3061523-1.6289062-.1479492-3.3134766-.300293-4.9609375-.4892578-.5136719-.059082-1.0830078-.296875-1.7382812-.7275391-1.5878906-1.0405273-3.5703125-1.75-6.2392578-2.2329102-5.2207031-.9438477-11.4570312-1.9150391-18.1289062-1.9594727-1.0654297-.0073242-2.1298828-.0170898-3.1943359-.0268555-5.9804688-.0551758-12.1582031-.1118164-18.2509766.3325195-2.3310547.1704102-4.6992188.4130859-6.9902344.6479492-1.9443359.1992188-3.9560547.4052734-5.9375.5664062-2.2490234.1831055-4.5380859.3125-6.7529297.4375-1.4277344.0810547-2.8554688.1616211-4.2832031.2563477-.4296875.0288086-.8603516.0561523-1.2910156.0834961-1.8847656.1196289-3.8330078.2431641-5.7304688.4833984-7.2763672.9213867-14.8242188,2.2475586-22.4326172,3.9418945-6.9287109,1.5424805-13.7705078,3.8447266-20.3349609,6.8427734-3.5664062,1.6289062-7.6074219,3.4746094-11.2822266,5.5297852-2.9697266,1.6606445-5.7128906,3.6640625-8.3671875,5.6015625-2.640625,1.9277344-4.5849609,4.2822266-5.7900391,7.0029297-.2783203.6328125-.6621094.7285156-1.4130859.7011719-.6943359-.0234375-1.3994141-.046875-2.1054688-.046875-.7939453,0-1.5888672.0302734-2.3701172.125-1.6777344.2041016-2.9228516.9111328-3.4150391,1.9423828-.3740234.7822266-.2744141,1.703125.28125,2.5927734.0341797.0546875.0498047.109375.0664062.1728516.0078125.0283203.0166016.0615234.0292969.0996094l.0429688.1308594-.1269531.0527344c-.3212891.1357422-.6416016.2734375-.9619141.4111328-.6972656.3007812-1.4189453.6103516-2.1425781.8955078-2.1279297.8398438-3.9277344,2.0761719-5.5019531,3.7792969-1.1796875,1.2744141-2.4550781,2.5253906-3.6884766,3.734375-.7890625.7734375-1.6044922,1.5732422-2.3857422,2.3701172C1.0818056,50.8476025.0486025,53.2450634.0036806,56.0536572c-.0761719,4.6591797,1.0292969,8.8310547,3.3779297,12.7548828,2.9072266,4.8583984,5.671875,9.8730469,8.3457031,14.7226562l.2041016.3710938c1.9931641,3.6142578,4.2109375,6.7529297,6.7822266,9.5957031.7353516.8134766,1.4609375,1.6328125,2.1865234,2.4511719,2.4599609,2.7783203,5.0039062,5.6503906,7.9003906,8.2412109,2.6923828,2.40625,5.5712891,4.2255859,8.8017578,5.5595703,3.7412109,1.5478516,7.0664062,2.8613281,10.1640625,4.015625,4.1435547,1.5458984,8.6748047,2.1103516,13.7402344,2.6386719,6.5527344.6826172,12.4599609,1.2470703,18.0595703,1.7246094,5.5478516.4726562,11.1367188.5078125,16.6152344.1025391,2.0546875-.1523438,4.1376953-.5234375,6.1513672-.8828125.6689453-.1191406,1.3369141-.2382812,2.0048828-.3496094,4.2587891-.7128906,8.0712891-1.3779297,11.6542969-2.0332031.8691406-.1591797,1.6962891-.4482422,2.6103516-.7822266.46875-.1708984.9091797-.4296875,1.2089844-.7089844.1992188-.1855469.2783203-.3837891.2197266-.546875-.0673828-.1855469-.3066406-.3076172-.6386719-.3251953Zm-65.0712891-27.6269531l-.4619141.0332031-1.2441406-1.5068359,1.8173828-.3554688-.1113281,1.8291016Zm106.0869141-1.2070312c-.0791016.2988281-.4394531.4804688-1.1826172.8320312-4.5732422,2.1601562-9.4335938,3.65625-14.4472656,4.4453125-.9960938.1572266-1.9863281.2138672-3.0341797.2734375-.4677734.0273438-.9394531.0537109-1.4140625.0908203l-.2392578.0185547.1474609-.3720703c.5322266-1.3417969.5429688-1.3671875.1953125-2.9072266-.5625-2.5-1.1679688-5.0361328-1.7529297-7.4892578l-.3935547-1.65625c-.0458984-.2011719-.0927734-.4091797-.2226562-.5039062-.3544922-.2558594-.7763672-.5263672-1.2080078-.5830078-.6591797-.0869141-1.0087891.3955078-1.1611328.6884766-.0927734.1806641-.1845703.3623047-.2763672.5449219l-.0400391.078125.046875.1142578c.0556641.1367188.1132812.2773438.140625.4287109.4941406,2.7548828.9804688,5.5097656,1.4667969,8.2646484.0244141.1386719.0429688.2773438.0634766.4277344l.0605469.4287109-.1835938-.0107422c-.3984375-.0224609-.7832031-.0488281-1.1572266-.0751953-.7714844-.0527344-1.5009766-.1035156-2.2314453-.1123047-1.7617188-.0214844-3.5234375-.0322266-5.2861328-.0429688-2.4726562-.015625-5.0292969-.03125-7.5410156-.0751953-2.2822266-.0410156-2.8388672-.4013672-3.3085938-2.1425781-.3896484-1.4453125-.6142578-2.9111328-.8486328-4.5400391-.0751953-.5205078-.0556641-1.0595703-.0361328-1.5810547.0087891-.2402344.0175781-.4814453.0175781-.7246094l.0009766-.1582031.1582031.0087891c.8564453.0478516,1.6953125.0917969,2.5224609.1357422,1.8691406.0986328,3.6347656.1914062,5.4150391.3203125,1.3339844.0957031,2.6855469.2158203,3.9921875.3310547,1.4453125.1289062,2.9394531.2607422,4.4130859.3613281.7080078.0478516,1.2353516-.0761719,1.5644531-.3681641.25-.2226562.390625-.5507812.4169922-.9746094l-.0126953-.0341797.0117188-.0224609c-.1240234-.9638672-1.0498047-1.3916016-1.8085938-1.5761719-1.4560547-.3525391-2.7324219-.5615234-3.9013672-.6367188-.9599609-.0615234-1.9609375-.0224609-2.9287109.015625-.4667969.0185547-.9335938.0380859-1.3984375.0458984-2.921875.0458984-5.7861328-.1435547-8.5302734-.5751953-1.2011719-.1884766-2.28125.046875-2.8935547.6318359-.3916016.3740234-.5654297.8652344-.5039062,1.4208984.3417969,3.0898438.6816406,5.8730469,1.3808594,8.6601562.6728516,2.6845703,2.3857422,3.7685547,6.109375,3.8652344,2.5527344.0654297,5.1542969.0810547,7.6699219.0957031,1.6328125.0097656,3.265625.0195312,4.8964844.0419922.6259766.0087891,1.2548828.0722656,1.8623047.1337891.2773438.0283203.5546875.0556641.8330078.0791016l.1464844.0117188-.0283203.4482422-.3134766.0712891c-.1445312.0351562-.2890625.0693359-.4355469.09375l-1.0302734.1708984c-2.6103516.4296875-5.3085938.8730469-7.8037109,1.8154297-.2041016.0771484-.4365234.0859375-.6611328.09375-.0791016.0029297-.1572266.0058594-.2333984.0117188-.5791016.0458984-1.1611328.0751953-1.7431641.1054688-1.2255859.0625-2.4912109.1269531-3.6972656.34375-5.3427734.9628906-10.8222656,1.5673828-16.1220703,2.1523438-1.6289062.1806641-3.2587891.3603516-4.8867188.5507812-2.1103516.2460938-4.1113281.3691406-6.0439453.3691406-1.2275391,0-2.4277344-.0498047-3.6113281-.1484375-10.6152344-.8857422-20.8457031-2.8427734-28.5732422-4.4492188l-.1425781-.0283203c-.3056641-.0605469-.6220703-.1240234-.8564453-.2763672-1.3828125-.9082031-2.4589844-2.0283203-3.4990234-3.1123047-.3720703-.3867188-.7558594-.7861328-1.1445312-1.1660156l-.2324219-.2275391.3232422-.0292969c1.0761719-.0976562,2.1474609-.1845703,3.2128906-.2714844,2.4667969-.2001953,4.7978516-.3896484,7.1630859-.7050781,2.375-.3164062,4.78125-.7626953,7.109375-1.1943359,1.0517578-.1943359,2.1074219-.390625,3.1689453-.5761719l.1347656-.0234375.0361328.1308594c.0224609.0820312.0429688.1640625.0634766.2451172.0458984.1806641.0888672.3515625.1494141.5175781.1279297.3535156.3515625.5966797.6484375.703125.3720703.1308594.8398438.0488281,1.3222656-.2363281.6572266-.3886719,1.1044922-.7480469,1.3662109-1.1005859.5820312-.7832031,1.3808594-.9707031,2.1582031-1.0566406,2.3193359-.2568359,4.0351562-.8535156,5.4003906-1.8759766,2.8144531-2.1074219,4.3916016-4.0722656,4.9619141-6.1835938.5869141-2.171875,2.1972656-3.4248047,3.8496094-4.4541016,3.1015625-1.9335938,6.5410156-3.8417969,10.8222656-6.0048828,1.3857422-.7001953,2.8535156-1.3398438,4.2734375-1.9580078,3.3291016-1.4501953,6.7714844-2.9492188,9.4169922-5.3457031l.1220703-.1103516.0986328.1318359c.5966797.7919922,1.3662109,1.0859375,2.3671875.8837891.34375-.0673828.6855469-.1835938,1.0166016-.296875.1748047-.0585938.3496094-.1181641.5263672-.171875.5048828-.1523438,1.0117188-.3027344,1.546875-.4609375l.8720703-.2587891.0273438.1689453c.6943359,4.3554688,4.015625,7.2226562,7.5009766,9.6728516l.5957031.4189453c1.515625,1.0664062,3.0820312,2.1689453,4.6484375,3.2304688,3.2978516,2.2353516,7.0263672,4.1142578,10.6328125,5.9306641.7480469.3769531,1.4960938.7539062,2.2412109,1.1337891,2.3759766,1.2128906,5.3408203,2.9433594,7.1894531,5.5859375.3857422.5517578.5771484.8261719.5019531,1.109375Zm-84.8369141-11.1757812c-.0927734-.2128906-.1083984-.3818359-.0488281-.5302734.0869141-.2138672.3193359-.3330078.5341797-.4208984.3662109-.1503906.7285156-.3105469,1.0898438-.4697266.5322266-.2353516,1.0830078-.4785156,1.6435547-.6884766,2.5048828-.9316406,4.9609375-1.15625,7.5078125-.6835938l.3173828.0585938-.25.2050781c-.0449219.0361328-.0820312.0703125-.1142578.0996094-.0693359.0625-.1289062.1162109-.2080078.1552734-2.7011719,1.3271484-5.2001953,3.0283203-7.8662109,5.3535156-2.7626953,2.4091797-6.4804688,3.3681641-9.7480469,4.078125l-.1083984.0234375-.0546875-.0966797c-.3203125-.5712891-.6806641-.9052734-1.0996094-1.0214844-.4599609-.1279297-1.0166016,0-1.7021484.3886719-.9667969.5498047-1.9414062,1.0917969-2.9150391,1.6328125-.6914062.3847656-1.3828125.7685547-2.0722656,1.15625-.1777344.1005859-.3408203.2158203-.5136719.3369141-.0478516.0332031-.0947266.0664062-.1425781.0996094,1.8505859.2421875,3.4960938.0742188,5.03125-.5205078l.125-.0488281.7646484,1.4726562-.2138672.0263672-8.7070312,1.1064453.0439453-.2070312c.5029297-2.3583984,1.9443359-4.1445312,4.4082031-5.4580078.6914062-.3691406,1.4082031-.7275391,2.1015625-1.0732422.828125-.4130859,1.6835938-.8398438,2.5-1.2880859.8867188-.4863281,1.9003906-.796875,3.0996094-.9482422.4882812-.0625.9873047-.0927734,1.4697266-.1210938.5439453-.0322266,1.1054688-.0664062,1.6474609-.1464844,1.0273438-.1513672,1.8554688-.3574219,2.5341797-.6298828.4980469-.2011719.8398438-.4990234.9892578-.8642578.1210938-.2988281.1074219-.6367188-.0429688-.9765625Zm6.0976562,2.1298828l-.3320312-.1025391,7.5742188-4.2988281.0761719.1230469c.0458984.0742188.0800781.1259766.1044922.1630859.0488281.0742188.0791016.1191406.0820312.1855469.0078125.1044922.0009766.2089844-.0175781.3056641-.6953125,3.4794922-2.4619141,6.1347656-5.4003906,8.1191406-.2470703.1679688-.5371094.2890625-.8720703.4287109-.1650391.0693359-.34375.1435547-.5341797.2314453l-.2949219.1347656.3349609-1.1865234c.1855469-.6542969.3525391-1.2431641.5097656-1.8330078.2636719-.9902344.3408203-1.7861328-1.2304688-2.2705078Zm-1.1796875,1.5371094l-.5009766,1.0673828c-.4365234.9355469-.8886719,1.9023438-1.3662109,2.8457031-.1328125.2617188-.5537109.4501953-.8046875.5126953-2.3691406.5908203-4.7832031,1.171875-7.1181641,1.734375l-.8574219.2060547c-.1445312.0341797-.2910156.0488281-.4335938.0625-.0595703.0058594-.1201172.0117188-.1787109.0185547l-.6513672.0800781.5517578-.3544922c1.3144531-.8466797,2.7890625-1.53125,4.2148438-2.1933594,2.3925781-1.1103516,4.8662109-2.2597656,6.5527344-4.1826172l.0810547-.0927734.5107422.2958984Zm82.8730469,5.6923828l-.4033203.2597656-.0830078-.1171875c-.0478516-.0664062-.0898438-.1240234-.1279297-.1738281-.0761719-.1015625-.1337891-.1796875-.1796875-.2626953-2.1240234-3.8671875-5.453125-7.2646484-9.8945312-10.0976562-2.46875-1.5751953-5.0078125-3.1523438-7.4619141-4.6767578-1.8759766-1.1650391-3.7519531-2.3300781-5.6162109-3.5058594-.4365234-.2753906-.8769531-.546875-1.3183594-.8183594-2.0371094-1.2539062-4.1445312-2.5517578-5.7705078-4.2158203-.4316406-.4423828-.8232422-.9179688-1.2011719-1.3779297-.1757812-.2138672-.3505859-.4267578-.5302734-.6367188l-.0732422-.0869141.2695312-.4033203.0732422-.0048828c.1621094-.0117188.3291016-.0341797.4960938-.0566406.3828125-.0517578.7802734-.1044922,1.1347656-.0341797,1.0419922.2080078,2.2216797.4433594,3.2285156.8789062,2.6669922,1.1542969,4.6884766,2.8310547,6.4746094,4.4707031.2998047.2753906.5908203.5576172.8818359.8398438.6171875.5996094,1.2568359,1.2207031,1.9726562,1.7529297,5.7666016,4.2890625,13.2148438,6.7050781,22.1367188,7.1787109,2.1201172.1113281,4.3134766-.015625,6.4365234-.1386719.7402344-.0429688,1.4794922-.0859375,2.2167969-.1191406.4277344-.0195312.9736328-.2265625,1.1699219-.4443359.3955078-.4394531.6318359-1.0029297.8212891-1.4970703.1103516-.2890625.1855469-.5966797.2568359-.8935547.0839844-.3466797.1708984-.7041016.3183594-1.0498047,1.7978516-4.2353516.484375-7.8535156-3.9033203-10.7548828-4.7294922-3.1269531-9.7011719-4.7841797-15.1992188-5.0673828-.1162109-.0048828-.2285156-.0273438-.3701172-.0556641-.0761719-.0146484-.1621094-.03125-.265625-.0498047l-.5195312-.0888672.4892578-.1972656c.1015625-.0410156.1875-.078125.2636719-.1103516.1533203-.0654297.2705078-.1142578.3935547-.1503906.6259766-.1855469,1.2529297-.3691406,1.8798828-.5537109,1.3349609-.3916016,2.7167969-.7958984,4.0664062-1.2128906.2441406-.0751953.4658203-.21875.6992188-.3710938.1152344-.0742188.2304688-.1494141.3515625-.2177734l.1386719-.0800781.0703125.1445312c.6513672,1.3349609,1.6552734,2.0947266,3.1601562,2.3916016,1.0097656.1992188,2.0107422.4589844,2.9804688.7099609l.6943359.1787109c.2910156.0742188.5820312.1503906.8730469.2255859,2.0712891.5390625,4.2138672,1.0957031,6.5,1.1191406.0566406.0009766.1142578.0009766.1708984.0009766,2.640625,0,4.6738281-.6591797,6.2109375-2.0146484,1.0458984-.921875,1.7392578-1.9365234,2.0625-3.0175781.4101562-1.3701172.8359375-2.8300781,1.1318359-4.2822266.1523438-.7490234.5595703-1.0664062,1.5029297-1.1728516,1.7949219-.2011719,3.5888672-.4179688,5.3818359-.6347656,1.9785156-.2402344,4.0253906-.4873047,6.0400391-.7089844,3.0429688-.3349609,3.1425781-.3105469,5.3886719,1.234375l.0654297.0449219c1.8417969,1.2675781,2.8173828,2.4619141,3.1611328,3.8730469.2695312,1.1035156.5019531,2.1025391.6132812,3.1416016.1875,1.7724609-.1689453,3.2578125-1.0898438,4.5429688-.4667969.6523438-.9189453,1.3095703-1.3710938,1.9677734-.7246094,1.0556641-1.4746094,2.1474609-2.2763672,3.1953125-1.7148438,2.2431641-3.6572266,3.7763672-6.1123047,4.8251953-1.6494141.7060547-3.2382812,1.5673828-4.7744141,2.3994141-.7402344.4013672-1.5058594.8164062-2.2695312,1.2099609-.3115234.1601562-.6806641.2910156-1.0654297.3789062-.8037109.1826172-1.6103516.3564453-2.4169922.5302734-1.2910156.2773438-2.6259766.5654297-3.9248047.8847656-6.5097656,1.6035156-11.8798828,4.0644531-16.4179688,7.5253906-1.6025391,1.2226562-3.28125,2.4238281-4.9052734,3.5849609-.6972656.4980469-1.3935547.9970703-2.0869141,1.4980469-.171875.1240234-.3535156.2402344-.5488281.3642578Zm-14.4013672-26.0214844c2.8457031,1.203125,5.7119141,2.4628906,8.4833984,3.6816406,1.0283203.4511719,2.0556641.9033203,3.0859375,1.3535156.0908203.0410156.1191406.125.1416016.1923828.0097656.0253906.0195312.0566406.0351562.0888672l.0966797.2060547-.6347656.0214844c-.2949219.0087891-.5712891.0175781-.8476562.0351562-2.0146484.1376953-3.5771484.6542969-4.7753906,1.5810547-.9296875.7177734-1.2070312,1.3222656-.9003906,1.9589844.3544922.7304688,1.2734375.6835938,2.1640625.6396484l.0419922-.0019531c.3017578-.015625.6005859-.0771484.9160156-.1435547l.140625-.0292969-.8349609-.8027344.2255859-.0820312c.0527344-.0195312.1025391-.0419922.1513672-.0634766.1162109-.0517578.2363281-.1044922.3691406-.1142578,2.6806641-.2021484,4.8574219-.3554688,6.8515625-.484375.1992188-.0195312.4472656.1201172.5732422.2558594.3837891.4130859.7246094.4384766,1.1757812.0878906.1816406-.1425781.3300781-.3134766.5029297-.5117188.0849609-.0986328.1748047-.2011719.2753906-.3085938l.0791016-.0839844,1.0986328.5976562c.7695312.4199219,1.5429688.8427734,2.3251953,1.2539062.3720703.1953125.7421875.3916016,1.1123047.5878906,1.2421875.6582031,2.5273438,1.3398438,3.8349609,1.9521484l.2001953.0927734c.5039062.2333984.7568359.3505859.8378906.5869141.0830078.2451172-.0634766.5273438-.3300781,1.0400391l-.0410156.0791016-.4443359.0097656c-.2753906.0078125-.5615234.015625-.84375.0136719-6.1845703,0-12.3300781-.9658203-18.7841797-2.9501953-3.0576172-.9404297-5.7724609-2.3242188-8.2988281-4.2324219-.140625-.1064453-.2607422-.2255859-.3671875-.3320312-.0449219-.0439453-.0869141-.0859375-.1279297-.1240234l-.0732422-.0673828-.0419922.2285156-.2050781-.2949219c-1.6738281-2.4072266-4.0556641-4.0097656-6.5771484-5.7070312-.34375-.2304688-.6884766-.4628906-1.0322266-.6972656l-.3261719-.2226562.3925781-.0498047c.1826172-.0234375.3505859-.0380859.5048828-.0507812.3027344-.0253906.5419922-.0449219.7431641-.1210938.1201172-.0458984.2275391-.1025391.3339844-.1582031.2568359-.1347656.5214844-.2744141.9414062-.2851562,2.8857422-.0546875,5.5322266.3935547,7.8515625,1.3740234Zm-1.9355469-2.5136719l.4199219-.1162109c1.4160156-.3916016,2.7041016-.2617188,3.9492188-.1337891.9980469.1005859,1.9414062.1972656,2.9384766.0410156l.2636719-.0410156-1.1914062,2.8896484-6.3798828-2.6396484Zm17.3779297,2.3876953c.0683594.1601562.0644531.3271484.0615234.4882812-.0019531.0712891-.0029297.1435547.0029297.2128906.0185547.2050781.03125.4121094.0439453.6181641.0292969.4746094.0595703.9648438.1660156,1.4277344.1220703.5380859.3154297,1.0771484.5019531,1.5986328.0839844.2353516.1689453.4716797.2480469.7089844l.0322266.0966797-.078125.0654297c-.0546875.0449219-.109375.0898438-.1650391.1347656l-.0703125.0566406-.0830078-.0361328-10.0917969-4.3476562.9619141-.8378906c.9697266-.8466797,1.8837891-1.6445312,2.8085938-2.4355469.1210938-.1035156.4179688-.2841797.65625-.2685547,2.2333984.2255859,4.2226562.8603516,5.875,1.4501953l.6279297.2246094-.6640625.0664062c-.4931641.0488281-.9589844.0947266-1.0146484.1894531-.0390625.0664062.0722656.3310547.1806641.5869141Zm3.0888672.0751953l-.0830078-.296875.2851562.1171875c1.9189453.7929688,4.1152344,1.8125,5.8515625,3.3583984,2.2890625,2.0390625,2.9042969,4.4580078,1.8818359,7.3945312l-.0585938.1699219-9.3349609-5.2373047.140625-.140625c1.5058594-1.4990234,1.9248047-3.2041016,1.3173828-5.3652344Zm1.8183594-14.1152344c.1357422-.3261719.7070312-.640625,1.1347656-.7197266,1.5107422-.2773438,3.0527344-.5214844,4.5449219-.7578125.5439453-.0859375,1.0888672-.1728516,1.6337891-.2607422l.1513672-.0244141.0068359.0498047,1.2578125-.1601562c.625-.0791016,1.2490234-.1582031,1.8730469-.2382812,1.7050781-.2207031,3.2314453.1708984,4.5.5830078.4121094.1337891.8095703.3505859.6396484.9433594-.1738281.6083984-.3330078,1.2304688-.4863281,1.8330078-.2001953.7841797-.4072266,1.5957031-.6503906,2.390625-.2177734.7109375-.5732422,1.3955078-.9501953,2.09375-.4101562.7617188-1.1181641,1.1455078-2.1103516,1.1455078-.1640625,0-.3369141-.0107422-.5166016-.0322266-2.2041016-.2568359-4.0195312-.4462891-5.7138672-.5957031-.9404297-.0830078-2.1640625-.1787109-3.4208984-.1474609-.5253906.0009766-1.0917969-.0576172-1.2988281-.6611328-.0966797-.2802734-.2001953-.5605469-.3037109-.8398438-.2958984-.8037109-.6025391-1.6347656-.7470703-2.4814453-.1142578-.6679688.1503906-1.3837891.4560547-2.1201172Zm63.9619141-1.1835938c.4814453,2.8564453.9257812,5.765625,1.3554688,8.5791016.2402344,1.5761719.4814453,3.1523438.7294922,4.7275391.5712891,3.6376953-.2919922,7.2529297-2.640625,11.0507812-1.1220703,1.8144531-2.3505859,3.6269531-3.5380859,5.3798828-.6914062,1.0214844-1.4072266,2.0771484-2.09375,3.1210938-2.1689453,3.3007812-4.8212891,6.5146484-8.1064453,9.8261719-2.8505859,2.8740234-5.6425781,4.8056641-8.7851562,6.0791016-1.2197266.4941406-2.4472656.9765625-3.6748047,1.4580078-1.125.4414062-2.25.8828125-3.3691406,1.3339844-3.0429688,1.2275391-5.9433594,1.8671875-8.8642578,1.9570312-.6708984.0205078-1.3623047.1884766-2.03125.3496094l-.1591797.0380859c-.6923828.1669922-1.1923828.2871094-1.2617188.4453125-.0546875.1269531.1044922.421875.3535156.8652344l.0878906-.0234375-.0195312.1660156c.0126953.0654297-.0009766.1357422-.0410156.1796875l-.0732422.0810547-.1015625-.0439453-.0117188-.0058594c-.5849609.15625-1.1689453.2998047-1.7470703.4423828-1.4091797.3457031-2.7402344.6728516-4,1.1591797-1.2890625.4980469-2.4863281,1.1533203-3.6435547,1.7871094-.4931641.2695312-.9775391.5351562-1.4560547.78125l-.0810547.0410156-.0751953-.0527344c-.4248047-.3056641-.8466797-.6328125-1.2539062-.9482422-.8964844-.6953125-1.8222656-1.4130859-2.8681641-1.96875-4.0644531-2.1582031-6.9111328-5.2333984-9.6630859-8.2070312l-.3027344-.3261719c-.1191406-.1279297-.2744141-.3251953-.25-.5576172.0205078-.1972656.1582031-.375.4462891-.578125,3.5351562-2.4931641,6.9453125-4.9384766,9.8144531-7.0019531,3.7880859-2.7236328,8.2871094-5.7958984,13.7617188-7.7714844,1.3574219-.4912109,2.6542969-1.1630859,3.8671875-1.8095703,1.1904297-.6337891,2.4873047-1.2792969,4.1005859-1.6044922,2.5996094-.5224609,4.765625-1.8183594,6.8603516-3.0712891l.6923828-.4130859c2.7197266-1.6132812,4.9375-3.6796875,6.5917969-6.1445312,1.0449219-1.5566406,2.1376953-3.1123047,3.2470703-4.6230469,1.0771484-1.4658203,1.6425781-2.7353516,1.7792969-3.9980469.5117188-4.7246094-.3974609-8.2783203-2.8623047-11.1835938-.0517578-.0605469-.0791016-.125-.1142578-.2060547-.0175781-.0400391-.0380859-.0869141-.0654297-.1425781l-.0927734-.1884766.2089844-.0263672c.1660156-.0214844.3212891-.0449219.4677734-.0664062.3076172-.0458984.5732422-.0849609.8466797-.0947266.9394531-.0351562,1.8789062-.0634766,2.8173828-.0917969,1.0292969-.0302734,2.0585938-.0615234,3.0878906-.1005859,1.1201172-.0449219,2.2412109-.0966797,3.3623047-.1484375,2.0029297-.0927734,4.0732422-.1894531,6.109375-.2363281,2.1494141-.0458984,2.3583984-.0019531,2.6591797,1.7861328ZM80.6462588,11.4003368c.1230469-.2163086.3828125-.3481445.8183594-.4145508,1.8310547-.2792969,3.6914062-.5825195,5.4902344-.8764648,3.7519531-.6123047,7.6308594-1.2456055,11.4697266-1.6938477,2.8583984-.3334961,5.7724609-.5996094,8.5908203-.8564453,4.7470703-.4331055,9.65625-.8813477,14.4443359-1.6655273,1.5537109-.2548828,3.0966797-.4614258,4.5849609-.6147461,8.1884766-.8442383,16.3330078-.9599609,23.2285156-.9599609h.0791016c4.4658203.0009766,8.3691406.5332031,11.9335938,1.6264648.3925781.1206055.5849609.246582.6640625.4350586.0898438.2172852-.0097656.4619141-.1201172.6728516-.65625,1.2563477-1.6689453,2.3515625-3.09375,3.3486328l-.1806641.1259766c-.8769531.6132812-1.7841797,1.2470703-2.5673828,1.9389648-.5654297.4975586-1.0527344.6015625-1.8623047.4003906l-.3105469-.0776367c-4.1933594-1.0454102-8.5292969-2.1264648-13.0380859-2.5522461-3.9091797-.3696289-7.34375-.2397461-10.5039062.3964844l-.7890625.1586914c-2.5322266.5092773-5.1513672,1.0356445-7.6904297,1.6567383-.6513672.159668-1.3037109.3173828-1.9560547.4755859-4.4287109,1.0722656-9.0078125,2.1816406-13.3369141,3.7416992-1.859375.6699219-3.8134766,1.2265625-5.703125,1.7646484-1.0214844.2910156-2.0771484.5917969-3.1054688.9067383-1.8144531.5551758-3.3105469,1.0517578-4.7080078,1.5620117-.2558594.0932617-.4619141.2915039-.6806641.5014648-.0380859.0361328-.0761719.0732422-.1142578.1083984.0605469.0195312.1210938.0400391.1816406.0595703.3125.1044922.6074219.1982422.8759766.1708984l.9375-.1132812c2.1865234-.2626953,4.4462891-.5341797,6.6308594-.949707,1.6855469-.3203125,3.3867188-.7016602,5.0332031-1.0708008,2.2158203-.496582,4.5068359-1.0097656,6.7900391-1.3828125,5.0830078-.8305664,10.2773438-1.5366211,15.3007812-2.2197266,1.2246094-.1665039,2.4492188-.3330078,3.6738281-.5014648,3.1650391-.4345703,6.3779297-.2661133,9.5556641.5,1.4462891.3491211,2.8925781.6967773,4.3398438,1.0439453,1.6621094.3994141,3.3242188.7988281,4.9853516,1.199707.1396484.0336914.2744141.0810547.4453125.1411133.0878906.03125.1865234.065918.3017578.1044922l.1855469.0615234-3.6640625,5.5649414-.1240234-.0771484c-.296875-.1845703-.5820312-.3701172-.8632812-.5527344-.6132812-.3974609-1.1914062-.7734375-1.8193359-1.0996094-2.1601562-1.1225586-4.703125-1.8032227-7.5576172-2.0229492-1.9775391-.1523438-3.9931641-.3081055-5.9199219-.0771484-2.2216797.2661133-4.5517578,1.675293-5.9365234,3.590332-.9238281,1.2763672-1.3027344,2.6201172-1.0673828,3.7822266.3261719,1.6152344.7431641,3.0166016,2.5410156,3.8115234,1.8984375.8378906,4.1484375,1.8095703,6.4394531,2.6572266,1.3837891.5126953,2.9501953.5478516,4.6572266.1015625.2607422-.0673828.5263672-.1230469.8310547-.1875.1591797-.0332031.3291016-.0693359.515625-.1103516l.3144531-.0693359-.1494141.2851562c-.1757812.3359375-.3417969.6601562-.5039062.9755859-.3369141.6572266-.6552734,1.2773438-.9970703,1.890625-1.0908203,1.9511719-2.4853516,3.5009766-4.2646484,4.7373047-3.03125,2.1064453-5.5410156,3.8027344-7.8964844,5.3369141-.9140625.5947266-1.9033203,1.1347656-2.859375,1.6572266-.4345703.2363281-.8671875.4736328-1.2929688.7148438l-.0820312.0458984-2.8798828-1.9912109c-2.2880859-1.5810547-4.5292969-3.1298828-6.7597656-4.6875l-.1972656-.1376953c-.9746094-.6787109-1.9814453-1.3808594-2.8681641-2.1503906-1.7558594-1.5224609-3.4765625-3.1162109-5.1416016-4.65625l-.3291016-.3046875c-.7490234-.6943359-1.3730469-1.3339844-1.9072266-1.9580078-1.6728516-1.9580078-3.6611328-3.7373047-6.0771484-5.4423828-1.7919922-1.2646484-3.2460938-2.3583984-4.5136719-3.5878906-2.0166016-1.9541016-3.9619141-4.0063477-5.84375-5.9916992-.4902344-.5175781-.9814453-1.0351562-1.4736328-1.5517578-1.2685547-1.3300781-2.2431641-2.8959961-3.0664062-4.9272461-.1220703-.2993164-.1298828-.5351562-.0234375-.7207031Zm65.46875,14.9443359l-.1210938.1591797c-.0800781.1064453-.15625.2138672-.2314453.3212891-.4355469.6181641-.8857422,1.2578125-2.1132812,1.3134766-.4931641.0234375-1.0595703.3769531-1.4980469.6835938-.5625.3935547-1.0644531.8613281-1.5507812,1.3134766l-.1738281.1621094c-1.4804688,1.375-3.3330078,2.0917969-5.2958984,2.0917969-.7958984,0-1.609375-.1181641-2.4238281-.3574219-1.0917969-.3203125-2.0410156-.640625-2.9023438-.9785156-2.9121094-1.140625-3.3251953-1.7578125-2.9433594-4.4003906.3017578-2.0869141,3.2978516-4.2099609,5.8916016-4.2099609.0488281,0,.0966797.0009766.1445312.0029297,2.4179688.0742188,4.4355469.4570312,6.1660156,1.1689453,1.5439453.6347656,3.0878906,1.2207031,4.7226562,1.8408203.7070312.2685547,1.421875.5390625,2.1425781.8173828l.1865234.0712891Zm-49.9277344,9.3359375c-.8662109-.2382812-1.9443359-.5351562-2.9921875-.7851562-5.1787109-1.2363281-10.6513672-2.7021484-15.5878906-5.0371094-.3984375-.1884766-.8759766-.3398438-1.3779297-.4375-.8935547-.1748047-1.7539062.0537109-2.1953125.5810547-.421875.5078125-.3476562,1.1689453.1894531,1.6855469.3291016.3164062.6708984.5625,1.0146484.7304688,1.0048828.4921875,1.8466797.859375,2.6484375,1.1552734.5224609.1943359.6894531.4472656.6171875.9335938-.1220703.8154297-.1826172,1.5615234-.1835938,2.2783203-.0009766.5546875.0449219,1.1123047.09375,1.7021484.0224609.2705078.0458984.5488281.0654297.8378906l.0205078.2929688-.25-.15625c-1.8427734-1.1542969-3.0634766-2.5029297-4.0146484-3.6708984l-.4326172-.5302734c-1.03125-1.2597656-2.0976562-2.5625-2.8925781-3.9472656-.5449219-.9492188-.5917969-1.9560547-.1269531-2.7617188.6005859-1.0419922,1.9628906-1.6181641,3.8349609-1.625,3.3066406-.0126953,6.5615234.4443359,9.6396484,1.3486328,1.2832031.3769531,2.4423828.7060547,3.640625.9101562.7138672.1210938,1.5751953.109375,2.4277344-.03125.5615234-.09375.9023438-.0820312,1.3076172.234375,2.8017578,2.1894531,5.2753906,4.1972656,7.1865234,6.6152344.2236328.28125.4853516.5439453.7900391.8486328.1533203.1542969.3164062.3164062.4873047.4960938l.2675781.2792969-2.7910156-.1914062.0410156-.1728516c.1884766-.7939453-.2246094-1.2529297-1.4277344-1.5830078Zm-64.9804688-2.6972656c.9941406-1.6513672,3.7607422-4.3154297,5.8056641-5.5888672,4.4189453-2.7529297,10.3554688-6.2226562,17.0947266-8.6474609.4619141-.1655273,1.1015625-.2177734,1.6328125-.1308594.9248047.1513672,1.8564453.3276367,2.7578125.4980469,1.3388672.253418,2.7226562.515625,4.1025391.6992188,1.2041016.1591797,2.5.0869141,3.7529297.0166016l.1835938-.0107422c.6855469-.0380859,1.2431641-.4125977,1.4541016-.9770508.2070312-.5498047.0390625-1.0292969-.4736328-1.3505859-.5175781-.3237305-1.1376953-.6176758-1.84375-.8730469-.5683594-.2060547-1.1513672-.3706055-1.8251953-.5615234-.3046875-.0864258-.6230469-.1762695-.9589844-.2758789l-.4423828-.1308594.4355469-.1542969c.1699219-.0600586.3173828-.1147461.4501953-.1640625.2587891-.0957031.4628906-.171875.6777344-.2299805.6533203-.1782227,1.3076172-.3583984,1.9609375-.5385742,1.8417969-.5078125,3.7470703-1.0332031,5.6376953-1.5073242,2.9208984-.7329102,3.0957031-.7763672,4.9316406,1.1430664,2.0302734,2.121582,4.0341797,4.3144531,5.9716797,6.4350586.8671875.9487305,1.7333984,1.8969727,2.6054688,2.8422852.3330078.3603516.6699219.71875,1.0390625,1.1113281l.8535156.9082031-.8359375-.0654297c-.2314453-.0175781-.4091797-.0322266-.5859375-.046875-.8642578-.0751953-1.7275391-.1533203-2.5908203-.2304688-2.015625-.1816406-4.0996094-.3691406-6.1552734-.5253906-1.7998047-.1357422-3.5537109.0068359-5.2128906.4296875-1.1787109.2998047-2.6269531.9707031-2.8339844,2.4628906-.1181641.8554688-.0244141,1.7753906.2666016,2.5888672,1.0175781,2.8496094,3.1005859,5.1123047,5.7177734,7.7753906.9179688.9335938,2.0039062,1.7929688,3.0556641,2.6240234.546875.4326172,1.1123047.8789062,1.6484375,1.3330078l.0722656.0615234c.3828125.328125.7109375.6083984,1.2880859.3652344.5185547-.2216797.4541016-.5214844.3056641-.9941406l-.03125-.0996094c-.1015625-.3330078-.2148438-.6640625-.3271484-.9941406-.1708984-.5029297-.3486328-1.0224609-.4853516-1.5439453-.3007812-1.1552734-.3554688-2.3857422-.1699219-3.8710938l.0302734-.25.2050781.1464844c.1650391.1181641.3105469.2207031.4433594.3134766.2460938.1728516.4472656.3144531.640625.4619141,3.125,2.3964844,6.9023438,3.6748047,11.5488281,3.90625,1.7529297.0869141,3.5175781.2880859,5.2226562.4814453.8232422.09375,1.6464844.1875,2.4707031.2685547l.4365234.0458984c.5537109.0595703,1.1328125.1308594,1.6914062.1113281h.0498047c.5898438,0,1.0117188.1542969,1.4472656.5244141,3.984375,3.3935547,8.8310547,6.0625,13.046875,8.2255859.5585938.2871094,1.1367188.5605469,1.6972656.8251953.2617188.1240234.5224609.2470703.7802734.3710938l.1337891.0644531-.0634766.1347656c-.2441406.5126953-.3125.8349609-.2080078.9853516.1630859.2304688.84375.1962891,1.34375.1484375,1.9892578-.1875,3.9140625-.7285156,5.7207031-1.6074219,2.0097656-.9785156,4.015625-2.0263672,5.9550781-3.0400391.9619141-.5029297,1.9248047-1.0058594,2.8916016-1.5029297,3.5029297-1.7998047,6.1015625-4.1044922,7.7246094-6.8515625,1.2548828-2.1240234,2.9306641-4.1552734,4.9804688-6.0361328,3.1376953-2.8808594,5.7548828-6.2558594,8.2373047-10.6210938.1738281-.3076172.3349609-.6206055.4960938-.934082.5283203-1.0258789,1.0732422-2.0864258,2.1113281-2.9541016.0771484-.0649414.1220703-.1616211.1748047-.2734375.0400391-.0854492.0820312-.1738281.1425781-.2573242.1494141-.2070312.2890625-.4213867.4287109-.6357422.328125-.5043945.6679688-1.0263672,1.1503906-1.4506836,1.3974609-1.2299805,2.859375-2.4516602,4.2734375-3.6333008.9375-.7836914,1.875-1.5673828,2.8017578-2.3588867.4833984-.4121094.8720703-.4609375,1.4853516-.1904297,3.7177734,1.6420898,7.3525391,2.449707,11.1142578,2.46875,2.3027344.0117188,4.71875.3369141,7.3876953.9941406,1.1064453.2724609,2.2421875.5273438,3.3398438.7734375l1.0927734.2456055c3.7949219.8598633,8.2207031,1.9868164,12.2753906,3.8261719,3.5673828,1.6176758,7.609375,3.4516602,12.0537109,4.3916016,2.7734375.5859375,5.2382812,1.7861328,7.3261719,3.5673828,3.0410156,2.5957031,5.1416016,5.2011719,6.4208984,7.9667969.28125.6064453.5566406,1.2148438.8476562,1.8574219l.4736328,1.0449219-.6201172.0800781c-.2900391.0390625-.5253906.0703125-.7607422.0947266l-2.2265625.2314453c-2.6103516.2714844-5.2216797.5429688-7.8330078.8027344-.5722656.0566406-1.1552734.0820312-1.71875.1064453-.2685547.0117188-.5380859.0234375-.8056641.0380859l-1.4667969.0839844c-1.3583984.0771484-2.7167969.1552734-4.0751953.2197266-.3837891.0205078-.8125.015625-1.0498047-.1455078-1.4765625-1.0078125-2.7617188-1.9541016-3.5380859-3.3251953-1.2021484-2.1230469-2.2490234-3.859375-3.2949219-5.4648438-2.9716797-4.5683594-7.0498047-7.4472656-12.4658203-8.8017578l-.6376953-.1601562c-1.5800781-.3979492-3.2138672-.8100586-4.8652344-1.0566406-5.1669922-.7729492-10.4863281-1.5097656-16.2626953-2.2529297-2.6347656-.3408203-5.3095703.0634766-7.8183594.5039062-.9541016.1674805-1.4550781.4985352-1.5742188,1.0429688-.1269531.5805664.2275391,1.015625,1.0556641,1.2939453.2783203.09375.5566406.1899414.8349609.2866211,1.0800781.3754883,2.1962891.7631836,3.3505859.9716797,2.4003906.434082,4.8623047.8178711,7.2431641,1.1889648,1.4560547.2275391,2.9130859.4541016,4.3652344.6933594.9277344.1533203,1.8564453.3017578,2.7861328.4511719,2.8671875.4580078,5.8320312.9326172,8.6933594,1.5361328,4.2773438.9023438,7.4277344,3.0546875,9.3632812,6.3964844.3095703.5351562.6044922,1.0761719.9003906,1.6181641,1.0527344,1.9316406,2.1416016,3.9287109,3.9316406,5.6191406l.1728516.1640625-.2216797.0849609c-.0888672.0341797-.1542969.0625-.2050781.0849609-.0917969.0400391-.1523438.0664062-.2255859.0722656l-1.1132812.1015625c-3.3046875.3037109-6.7207031.6171875-10.0830078.8964844-.2792969.0205078-.7128906-.2119141-.8427734-.4589844-.3544922-.6816406-.8896484-1.109375-1.6855469-1.3466797-.5537109-.1640625-1.0673828-.3896484-1.4853516-.6523438-2.03125-1.2744141-4.2431641-1.6259766-6.7587891-1.0722656-1.1884766.2617188-2.4902344.4824219-3.8701172.65625-.8671875.1103516-1.7519531.1972656-2.6074219.28125-1.3056641.1279297-2.65625.2607422-3.9638672.4765625-2.75.4550781-4.3105469,1.4882812-4.7724609,3.1582031-.2919922,1.0537109-.3085938,2.1689453-.3242188,3.2480469l-.0019531.1591797c-.0097656.5898438-.2861328.7480469-.8642578.8632812-1.4814453.2929688-2.6855469.5683594-3.7910156.8662109-1.2919922.3486328-2.5966797.7314453-3.8583984,1.1025391-3.0263672.8886719-6.1552734,1.8076172-9.3769531,2.3232422-.8652344.1376953-1.7304688.2900391-2.5957031.4414062-2.2490234.3945312-4.5742188.8017578-6.875.9628906-4.5117188.3164062-8.4179688,1.0507812-11.9433594,2.2460938l-4.3027344,1.4570312-.0605469-.1103516c-.53125-.9667969-.6962891-1.0273438-2.2197266-.8007812-.2333984.0351562-.4853516.0380859-.7294922.0087891-.7275391-.0869141-1.4589844-.1640625-2.1904297-.2412109-1.6933594-.1787109-3.4443359-.3623047-5.1181641-.6835938-2.3603516-.453125-4.7382812-.9716797-7.0371094-1.4736328-2.2949219-.5-4.6679688-1.0185547-7.0224609-1.4697266-4.8779297-.9365234-9.6152344-2.3222656-14.1962891-3.6621094-1.5703125-.4589844-3.1933594-.9345703-4.7978516-1.3837891-6.1328125-1.7177734-11.3466797-2.9980469-16.8583984-3.6611328l-.1171875-.0136719c-2.1181641-.2548828-4.3085938-.5185547-6.2783203-1.2880859-1.6962891-.6630859-3.4345703-1.3183594-5.1152344-1.9521484l-1.7636719-.6650391c-.0791016-.0302734-.1738281-.0478516-.25-.0615234-.0341797-.0058594-.0654297-.0117188-.0908203-.0175781l-.1708984-.0390625.0644531-.1621094c.578125-1.4638672,1.7285156-2.4267578,3.0605469-3.4453125,4.9814453-3.8095703,9.4033203-6.0361328,14.3369141-7.21875,2.2255859-.5341797,4.4707031-1.1337891,6.6416016-1.7148438l1.3847656-.3691406c.2626953-.0703125.5068359-.1875.765625-.3115234.0224609-.0107422.0439453-.0214844.0664062-.0322266l-.8984375-.4208984c-.0107422-.0048828-.0371094-.0107422-.046875-.0126953-6.0556641-1.25-11.5957031-.4267578-16.4638672,2.4550781-2.0800781,1.2304688-4.0332031,2.6591797-5.9208984,4.0400391l-.6162109.4492188c-2.2421875,1.6289062-4.5615234,3.3134766-5.3867188,5.9169922l-.0410156.1318359-.1347656-.0302734-13.5693359-3.0878906.1064453-.1777344Zm-3.0087891,58.9101562l-.6738281.1962891c-.0322266.0097656-.0683594.0136719-.1064453.0136719-.2548828,0-.609375-.1923828-.7617188-.3564453-3.8066406-4.0810547-6.2548828-7.4433594-7.9404297-10.9033203-.0488281-.1005859-.0820312-.2021484-.1259766-.3417969-.0244141-.0742188-.0517578-.1611328-.0878906-.265625l-.1210938-.3505859.3300781.1679688c.2080078.1054688.3935547.203125.5664062.2939453.34375.1806641.640625.3369141.9482422.4658203.0859375.0361328.1728516.0761719.2607422.1152344.5625.2558594,1.09375.4980469,1.6230469.0664062.1669922-.1367188.2558594-.2763672.2695312-.4267578.0292969-.3115234-.2578125-.6523438-.5107422-.953125-2.140625-2.5390625-4.5253906-4.8183594-7.09375-6.78125-.5478516-.4189453-.9863281-.8886719-1.2695312-1.359375-.5566406-.9199219-1.0966797-1.8642578-1.6191406-2.7783203-.5820312-1.0185547-1.1826172-2.0703125-1.8085938-3.0908203-1.6201172-2.6425781-2.4023438-5.5878906-2.4628906-9.2666016-.03125-1.8857422.6826172-3.4990234,2.1816406-4.9316406l.7011719-.6699219c1.4550781-1.3867188,2.9599609-2.8212891,4.3320312-4.2890625,1.8378906-1.9677734,3.921875-4.1982422,5.6992188-6.5253906,1.0351562-1.3564453,2.2910156-1.7197266,4.1083984-1.8896484,3.2382812-.3007812,5.9130859-.3125,8.421875-.0351562,2.2958984.2539062,4.6376953.484375,6.9023438.7060547,1.0615234.1044922,2.1230469.2089844,3.1835938.3154297.1679688.0175781.3330078.0410156.5361328.0693359l.5556641.0761719-.1005859.1904297c-.0761719.1435547-.1503906.2802734-.2226562.4130859-.15625.2880859-.3037109.5595703-.4306641.8320312-.0986328.2119141-.1826172.515625-.0205078.7558594.1650391.2451172.5585938.3691406,1.0820312.3447266.9130859-.046875,1.6152344-.4365234,2.0898438-1.15625.1113281-.1699219.2001953-.3544922.2939453-.5507812.0478516-.0986328.0966797-.2001953.1503906-.3056641l.0527344-.1025391,1.0380859.2275391c.9150391.1972656,1.8271484.4003906,2.7392578.6035156,2.1210938.4716797,4.3134766.9589844,6.4960938,1.3642578,1.5410156.2861328,3.1552734.453125,4.7177734.6142578.4619141.0478516.9248047.0957031,1.3857422.1464844,5.8427734.6435547,11.2978516,1.9921875,17.3134766,3.5566406,3.7304688.9707031,7.4833984,2.0361328,11.1132812,3.0673828,2.4677734.7011719,5.0195312,1.4257812,7.5400391,2.1142578,5.1279297,1.3984375,10.6142578,2.8115234,16.3447266,3.375.0966797.0097656.1875.0351562.3125.0693359.0693359.0195312.1523438.0429688.2568359.0693359l.4091797.1025391-.8027344.3779297c-.2460938.1171875-.4560547.2167969-.6699219.3095703-1.3525391.5830078-2.7080078,1.1630859-4.0634766,1.7431641-2.90625,1.2431641-5.9101562,2.5283203-8.8398438,3.8291016-3.1582031,1.4033203-6.4589844,2.9580078-9.0605469,5.1787109-1.5625,1.3330078-2.9550781,1.6386719-4.96875,1.0869141-4.2001953-1.1484375-8.4931641-.7304688-13.5136719,1.3134766-5.4082031,2.2011719-10.7851562,4.765625-15.9824219,7.6210938-2.0371094,1.1181641-3.4550781,2.6328125-4.2167969,4.5029297-.3769531.9238281-1.1884766,1.0332031-1.9033203,1.1308594-.2792969.0371094-.5429688.0732422-.7832031.1494141-.7226562.2265625-.9902344-.2636719-1.1679688-.5917969-.0458984-.0839844-.0888672-.1650391-.1386719-.2314453-1.7802734-2.4150391-4.2128906-4.5517578-7.4365234-6.53125-3.2734375-2.0097656-6.4208984-4.2255859-9.4648438-6.3671875-.8046875-.5664062-1.6083984-1.1318359-2.4150391-1.6943359-1.2080078-.8417969-2.0693359-2.0205078-2.6347656-3.6025391-.5400391-1.515625-.1816406-2.8662109,1.0664062-4.0126953,1.1582031-1.0634766,2.4306641-2.0791016,3.6621094-3.0615234l.3046875-.2441406c.5976562-.4775391,1.2226562-.9492188,1.8261719-1.40625.9492188-.71875,1.9316406-1.4609375,2.8271484-2.2373047,1.6201172-1.4042969,2.7666016-3.1230469,3.4101562-5.1083984.3818359-1.1816406.2070312-2.203125-.5205078-3.0351562-.6894531-.7900391-1.7558594-.8808594-2.6542969-.2226562-1.2724609.9287109-2.5039062,1.9267578-3.6943359,2.8925781l-.4677734.3789062c-3.0332031,2.4599609-6.1699219,5.0048828-9.2236328,7.5302734-2.5058594,2.0732422-3.8779297,4.1611328-4.1953125,6.3847656-.3134766,2.1875.34375,4.3583984,2.0664062,6.8300781,1.5058594,2.1630859,3.8320312,4.0302734,7.3193359,5.8769531,2.7871094,1.4765625,5.8037109,2.9580078,8.9658203,4.4042969,2.9306641,1.3408203,5.1875,3.1572266,7.6259766,5.2207031l.1679688.1416016-.1933594.1044922c-.5117188.2753906-1.0185547.5439453-1.5195312.8095703-1.0917969.578125-2.1230469,1.1240234-3.1425781,1.7089844-3.0869141,1.7724609-6.0351562,3.1484375-9.0107422,4.2070312-1.6865234.6005859-3.4511719,1.1142578-5.1572266,1.6103516Z" stroke-width="0"/>
      <path d="m153.7068056,60.7733837c.625-.0253906,1.0673828-.3085938,1.1816406-.7587891.1513672-.5947266-.2890625-.8916016-.6845703-1.0361328-.28125-.1025391-.5996094-.2089844-.8798828-.2089844-.0390625,0-.0761719.0019531-.1132812.0068359l-.4960938.0556641c-1.1953125.1347656-2.4316406.2744141-3.5996094.5458984-1.5966797.3691406-2.4853516,1.1582031-2.7158203,2.4121094l-.0058594.0292969.0507812-.0517578c.734375-.7470703,1.6318359-.9033203,2.7519531-.9082031,1.6806641-.0058594,3.15625-.0341797,4.5107422-.0859375Z" stroke-width="0"/>
      <path d="m49.1550478,102.8778759c.0009766.0117188.0039062.0292969.0078125.0527344.0146484.1044922.0439453.3007812.0058594.4960938-.2636719,1.375.3535156,2.5224609,1.9404297,3.609375,2.4970703,1.7109375,5.1904297,2.7382812,8.2333984,3.1425781.9580078.1269531,1.9140625.2548828,2.8710938.3837891,1.7822266.2392578,3.5644531.4794922,5.3496094.7080078.5185547.0664062,1.1210938.1308594,1.6767578.0605469.3505859-.0449219.8085938-.2753906.890625-.4492188.1025391-.2148438-.0302734-.5791016-.2070312-.8125-.1347656-.1787109-.4404297-.3535156-.8603516-.4931641-.5830078-.1933594-1.1640625-.390625-1.7451172-.5869141-1.7539062-.5947266-3.5673828-1.2089844-5.3994141-1.7128906-3.5498047-.9794922-5.9462891-2.1669922-7.7705078-3.8505859-.9658203-.8916016-2.3369141-1.421875-4.3144531-1.6669922-.1210938-.0146484-.2236328-.0224609-.3105469-.0224609-.1728516,0-.28125.0302734-.3408203.0908203-.1162109.1210938-.125.4306641-.0283203,1.0341797l.0009766.0166016Z" stroke-width="0"/>
      <path d="m151.9987978,45.145454c1.1210938.1171875,2.2519531-.4160156,2.5527344-1.2070312.3251953-.8535156.90625-1,1.7382812-1.0078125.0087891.0009766.0175781.0009766.0253906.0009766.4960938,0,1.0957031-.1835938,1.1728516-.3212891.0820312-.1445312.09375-.2880859.0351562-.4277344-.0957031-.2275391-.3720703-.4277344-.7207031-.5224609-.6142578-.1669922-1.2753906-.2714844-1.9150391-.3730469-.2314453-.0371094-.4638672-.0742188-.6953125-.1132812l-.0371094.1728516-.1103516.0087891c-1.3847656.1152344-2.5361328.6669922-3.7324219,1.7910156-.0693359.0644531-.1054688.2060547-.1015625.3974609.0107422.8515625.7304688,1.4951172,1.7880859,1.6015625Z" stroke-width="0"/>
      <path d="m161.6042666,29.848579c.2744141.0615234.5078125.1992188.7324219.3320312.15625.0917969.3037109.1787109.4638672.2421875l.0800781.0322266c.2880859.1152344.6445312.2548828.8701172.2011719.2792969-.0742188.5976562-.4267578.5869141-.5253906l-.0410156-.3398438c-.1376953-1.1591797-.2792969-2.3583984-1.171875-3.3134766-.328125-.3515625-.8369141-.5390625-1.3798828-.5390625-.2851562,0-.5791016.0517578-.8613281.1591797-.8613281.3261719-1.3398438,1.109375-1.2197266,1.9951172.125.9160156.7587891,1.4902344,1.9404297,1.7558594Z" stroke-width="0"/>
      <path d="m52.4499697,62.4833447c.3486328,1.015625.7099609,2.0644531,1.125,3.078125.3056641.7480469.8271484,1.4462891,1.3789062,2.1552734.8378906,1.0732422,2.1005859,1.4931641,3.7451172,1.2451172.3828125-.0576172.7666016-.1035156,1.1503906-.1503906l.6259766-.0771484.0263672.0996094,1.5585938-.3310547c2.0634766-.4384766,4.1279297-.8779297,6.1923828-1.3134766.6904297-.1455078,1.3818359-.2880859,2.0732422-.4306641,1.1796875-.2441406,2.359375-.4873047,3.5341797-.7441406,1.0195312-.2226562,1.7460938-.6318359,2.1005859-1.1855469.2451172-.3828125.3125-.8349609.2011719-1.3417969-.5351562-2.4365234-1.2050781-4.9863281-2.0478516-7.7978516-.125-.4179688-.3554688-.6992188-.6826172-.8349609-.4667969-.1972656-1.1328125-.0830078-1.8759766.3125-.1347656.0732422-.4277344.1835938-.6503906.140625-.8525391-.1757812-1.7109375-.2451172-2.5693359-.2451172-1.6630859,0-3.3271484.2607422-4.9550781.5146484l-.515625.0810547c-2.5009766.3867188-5.0507812.7431641-7.515625,1.0878906l-.6738281.09375c-1.5039062.2099609-2.4902344.6894531-2.9287109,1.4257812-.3388672.5683594-.3466797,1.2958984-.0244141,2.1611328.2539062.6835938.4951172,1.3818359.7275391,2.0566406Zm2.3925781-3.5644531c1.3291016-.1679688,2.6582031-.3378906,3.9873047-.5068359l.0966797-.0126953-.0126953-.1689453.1533203-.0078125c.5527344-.0292969,1.1054688-.0644531,1.6591797-.1005859,1.2197266-.078125,2.4824219-.1601562,3.7207031-.1650391,1.8007812-.0048828,3.6474609.0859375,5.421875.1748047l.7099609.0361328c.296875.0146484.7353516.2607422.8027344.515625.2177734.8193359.4101562,1.65625.5976562,2.4648438.1347656.5859375.2705078,1.171875.4150391,1.7558594.1582031.6386719-.2685547.8427734-.7539062.9697266-.9365234.2421875-1.8808594.5068359-2.7949219.7626953-.7568359.2128906-1.5146484.4248047-2.2744141.6269531-1.2431641.3300781-2.4873047.6533203-3.7324219.9755859-1.3994141.3632812-2.7988281.7265625-4.1943359,1.0986328-.2470703.0664062-.4736328.0986328-.6806641.0986328-.5791016.0009766-1.0019531-.2587891-1.2841797-.78125-.1484375-.2744141-.2998047-.5478516-.4511719-.8212891-.40625-.7314453-.8261719-1.4882812-1.1669922-2.2587891-.0957031-.2148438-.1962891-.4287109-.2978516-.6425781-.4599609-.9707031-.9355469-1.9746094-.8222656-3.1181641.0566406-.5634766.3173828-.8222656.9013672-.8955078Z" stroke-width="0"/>
      <path d="m43.3806338,60.7489697c1.1103516.5556641,2.3056641.5449219,3.4589844-.0283203,1.2431641-.6220703,1.7705078-1.5244141,1.6582031-2.8408203-.0810547-.1962891-.1621094-.4033203-.2441406-.6162109-.2080078-.5371094-.4228516-1.0917969-.7138672-1.6259766-.1738281-.3183594-.4912109-.4619141-.7265625-.5263672-.15625-.0419922-.3222656-.0625-.4921875-.0625-.3945312,0-.8085938.1113281-1.1582031.3212891-.1533203.0917969-.3125.1806641-.4716797.2695312-.4111328.2304688-.8359375.4677734-1.1464844.7597656-.5380859.5048828-1.1240234,1.1035156-1.3876953,1.7255859-.4111328.9765625.0917969,2.0556641,1.2236328,2.6240234Z" stroke-width="0"/>
      <path d="m57.2800478,48.0849072c.3398438.3144531.7539062.6679688,1.25.9121094.9443359.4638672,2.1816406.3564453,3.0771484-.2734375.8037109-.5644531,1.0654297-1.4667969.6513672-2.2470703-.6044922-1.1425781-3.8476562-2.5410156-5.9677734-2.3027344-.0732422.0380859-.1601562.0820312-.2578125.1308594-.3789062.1894531-.8984375.4492188-1.3710938.7587891-.0126953.0097656-.0439453.0634766-.0537109.1660156-.0126953.1367188.0195312.2597656.0576172.3007812.7519531.7919922,1.5830078,1.6035156,2.6142578,2.5546875Z" stroke-width="0"/>
      <path d="m93.3366884,58.2899853c.1523438-.0722656.3105469-.1416016.46875-.2109375.3583984-.1572266.7294922-.3203125,1.0283203-.5292969.3808594-.265625.9697266-.8291016.6435547-1.6191406-.265625-.6455078-.921875-1.0029297-1.7285156-.9501953-1.2128906.0878906-2.1835938-.2822266-3.1181641-.6425781l-.2587891-.0986328c-.3808594-.1455078-.6630859-.2470703-.8310547-.2470703-.0410156,0-.0751953.0068359-.1025391.0195312-.1259766.0615234-.2128906.3447266-.34375.7724609-.2568359.8378906.1269531,1.5380859.4951172,1.9775391.8535156,1.0205078,2.4658203,1.6757812,3.7470703,1.5283203Z" stroke-width="0"/>
      <path d="m38.3952822,61.5907665c-.1044922,0-.2119141.0058594-.3212891.0195312-.9960938.1240234-2.0019531.7050781-2.6240234,1.515625-.4150391.5400391-.6044922,1.1181641-.5341797,1.6279297.0576172.4160156.2861328.7558594.6630859.9853516.5283203.3212891,1.2705078.3652344,1.9882812.1113281.8134766-.2880859,1.3857422-.7861328,1.6992188-1.4794922.2480469-.5449219.4238281-1.1123047.5234375-1.6865234.0439453-.2568359-.0273438-.4921875-.2080078-.6806641-.2519531-.2646484-.6894531-.4130859-1.1865234-.4130859Z" stroke-width="0"/>
      <path d="m214.4353213,81.0927197c-.0097656,0-.0195312.0009766-.0292969.0009766l-.6513672.0019531c-3.9638672.015625-8.0634766.03125-12.09375.4873047-.0761719.0078125-.1542969.0195312-.2333984.0322266-.4453125.0644531-.9960938.1494141-1.3193359-.359375-.0283203-.0058594-.0751953-.0087891-.1279297-.0087891-.0869141,0-.1914062.0087891-.2626953.0292969-.9921875.2792969-1.8369141,1.0419922-1.8447266,1.6660156-.0097656.7373047.6386719,1.2753906,1.7792969,1.4765625,2.8554688.5029297,5.8652344.6171875,9.203125.3486328.4394531-.1123047.8808594-.2207031,1.3232422-.3291016,1.0693359-.2617188,2.1757812-.5322266,3.2314453-.8642578.6025391-.1894531,1.2490234-.5654297,1.7744141-1.0332031.2851562-.2529297.4101562-.7236328.3662109-1.0332031-.0488281-.3417969-.4804688-.4150391-1.1152344-.4150391Z" stroke-width="0"/>
      <path d="m228.4431338,50.4345165c-.3925781-.4277344-.9863281-.5244141-1.5957031-.2558594-.3447266.1533203-.7529297.3652344-.8388672.6435547-.0419922.1337891-.0097656.2832031.0966797.4570312.0576172.0927734.0654297.2158203.0253906.3769531-.4609375,1.8818359-.9267578,3.7626953-1.3955078,5.6435547-.0185547.0771484-.0703125.1347656-.1113281.1796875-.0107422.0126953-.0224609.0253906-.03125.0371094l-.0419922.0566406-.1376953.0087891c-.0488281.0039062-.0996094.0107422-.1552734.0009766-.2597656-.046875-.5166016-.0966797-.7724609-.1464844l-.1142578-.0224609c.0029297.0390625.0058594.0771484.0087891.1162109.0166016.2285156.0322266.4433594.1132812.6337891.1640625.3798828.4023438.7558594.6894531,1.0849609.6142578.7050781,1.6542969.7539062,2.4726562.1171875.2763672-.2167969.6552734-.5595703.8847656-.9667969,1.2197266-2.1513672,2.2470703-4.4824219,1.5146484-6.9560547-.0976562-.3291016-.3085938-.6777344-.6113281-1.0087891Z" stroke-width="0"/>
      <path d="m101.9245791,69.9501415c-.8193359.125-1.4423828.4570312-1.8037109.9599609-.3398438.4716797-.4501953,1.0839844-.328125,1.8183594l.2724609.4423828c.4052734.6621094.9609375,1.5693359,1.5283203,2.4482422.0332031.0498047.2548828.1269531.4111328.1230469.0283203-.0185547.1337891-.1630859.1464844-.2373047.0380859-.2216797.0595703-.4453125.0810547-.6679688.0244141-.2470703.0498047-.5019531.0966797-.7548828.03125-.1728516.2509766-.515625.4697266-.5263672.1298828-.0058594.2607422-.0136719.3925781-.0214844.5947266-.0351562,1.2119141-.0703125,1.7705078.0458984.5664062.1132812,1.0947266.0458984,1.4511719-.1943359.2333984-.1582031.3769531-.3779297.4267578-.6533203.0371094-.2070312.0107422-.4423828-.0722656-.6474609-.4951172-1.2148438-3.1669922-2.3974609-4.8427734-2.1347656Z" stroke-width="0"/>
      <path d="m98.9411806,88.699165c-.6796875.1796875-1.3554688.4121094-2.0078125.6376953-.2216797.0761719-.4433594.1523438-.6660156.2275391-.0654297.0214844-.1308594.0800781-.1416016.1035156-.1748047.5195312-.3388672,1.0439453-.4628906,1.4394531l-.0771484.2460938c.0947266.6191406.4365234,1.1074219.9658203,1.375.6425781.3261719,1.4638672.2851562,2.1953125-.1074219.8378906-.4521484,1.2910156-1.1005859,1.3476562-1.9277344.0166016-.2460938.0273438-.4912109.0380859-.7373047.0078125-.1826172.015625-.3652344.0263672-.5478516.0126953-.2265625-.0732422-.4287109-.2431641-.5664062-.2333984-.1923828-.5869141-.2412109-.9746094-.1425781Z" stroke-width="0"/>
      <path d="m138.4919619,9.1620556c1.4248047-.184082,2.8515625-.3579102,4.2773438-.5322266l.9511719-.1162109c.3544922-.043457.7080078-.0844727,1.0625-.1254883.7255859-.0844727,1.4755859-.1713867,2.2089844-.2788086.3867188-.0566406.8007812-.175293,1.1962891-.3432617.7041016-.2993164,1.0175781-.715332.9316406-1.2353516-.0908203-.5532227-.5585938-.8876953-1.2841797-.9174805-.6708984-.0292969-1.3603516.0068359-2.1591797.046875-.3789062.019043-.7861328.0395508-1.2324219.0556641-.3564453.1025391-.7412109.2089844-1.1455078.3208008-1.0302734.2851562-2.1972656.6079102-3.3300781.9848633-.8798828.293457-1.4716797.8886719-1.8613281,1.8740234-.0556641.1386719-.0546875.2143555-.0361328.2373047.0087891.012207.0751953.0732422.4208984.0292969Z" stroke-width="0"/>
      <path d="m119.8708681,35.9208447c.8212891.9873047,1.6699219,2.0087891,2.5917969,2.9550781.8574219.8808594,1.9765625,1.2451172,3.4306641,1.1289062.0634766-.0253906.1396484-.0527344.2246094-.0839844.2548828-.0927734.5712891-.2080078.8466797-.3691406.6455078-.3789062.9121094-1.0166016.6640625-1.5878906-.2617188-.6025391-.9804688-.9169922-1.8095703-.796875-1.2060547.1669922-2.1113281-.1728516-2.9082031-.5712891-.8740234-.4365234-1.9091797-.9472656-2.9492188-1.4287109-.1044922-.0478516-.2636719-.0556641-.4179688-.0634766-.0273438-.0009766-.0546875-.0019531-.0820312-.0039062-.0019531.0185547-.0029297.0380859-.0048828.0566406-.0126953.1162109-.0253906.2373047.0166016.2861328l.3974609.4785156Z" stroke-width="0"/>
      <path d="m110.6218447,26.3358837c.1611328.4111328.3623047.9228516.6572266,1.4033203.1259766.2060547.2636719.3203125.421875.3515625.2011719.0390625.4658203-.0595703.7939453-.2998047.2919922-.2177734.6621094-.3574219.921875-.4375.7509766-.2285156,1.3076172-.6787109,1.5292969-1.2333984.1621094-.4082031.1279297-.8349609-.0996094-1.2353516-.5761719-1.0136719-2.2373047-1.4892578-3.4140625-.96875-.7851562.34375-1.0986328,1.0136719-.9609375,2.0488281.0458984.1044922.0947266.2304688.1503906.3710938Z" stroke-width="0"/>
      <path d="m191.4099306,57.3388134c.6748047-.0683594,1.2617188-.3603516,1.6103516-.8017578.2421875-.3056641.3457031-.6552734.2988281-1.0097656-.1269531-.9628906-1.1953125-1.5859375-2.4355469-1.4384766-1.1181641.1425781-1.9111328.9433594-1.8056641,1.8242188.1103516.9052734,1.1464844,1.5478516,2.3320312,1.4257812Z" stroke-width="0"/>
    </g>
  </g>
</svg>