<?xml version="1.0" encoding="UTF-8"?>
<svg id="Layer_2" data-name="Layer 2" xmlns="http://www.w3.org/2000/svg" viewBox="0 0 176.7049499 133.8676365">
  <g id="Layer_1-2" data-name="Layer 1">
    <g>
      <path d="m74.4141137,55.0125598c-6.9425441-6.7082724-10.9041447-9.7897128-9.7945378-20.1291245.0142058-2.0055051-.6630347-3.9833441-1.8940122-5.5650769-1.9986093-2.42789-4.5666938-4.4857248-5.7767146-7.4760285-1.8490548-4.1434184-.5611919-9.0860693,2.205277-12.5084908.6743-.764215,1.5730353-1.9223203,2.7169763-1.6272701-.3966653-.0691647-.855331.1003312-1.1793934.4036233-2.8039714,2.8337912-4.044806,7.36876-3.0621404,11.2208971.8961054,3.1793073,3.4275778,5.3295834,5.7497111,7.4918495,1.3607557,1.2933299,2.4763265,2.8524286,3.1039295,4.6306614.9113052,2.421367.5710904,5.0118577.572395,7.5317542.1041415,6.1612863,4.7311634,10.8596842,7.3585095,16.0272053Z" fill="#423b30" stroke-width="0"/>
      <path d="m70.0680243,10.6738666c-3.0352819-1.0216598-6.0182963-3.1923541-9.364056-2.7329637.0007455.0031684.0013046.0063988.0016359.0097536.0054255.002837.0108511.0052392.0162766.0088631h-.0026506c.1368397.0453923-.1041415.0388071-.0530337-.0451646.8232333-.4826043,1.9066028-.4365493,2.8467753-.4926892,2.5223815-.1411263,4.866714,1.0296318,7.314401,1.2582709-.0300062.0032719-.059329.006813-.0891073.0111617h-.1109131c.2584589.0147235.7198787-.1357629.8853786-.2570093,2.2393057-1.9024405,3.897985-4.2678125,7.2547201-3.7321124,2.1584558.2113063,3.8321122,1.7139753,5.8314049,2.3690167,1.4584155.3204799,2.9420122-.1142057,4.3974872-.2671356,1.4623501-.2052803,2.8010516.4398005,4.217678.6493259,1.4840108.1517082,2.979639.1457442,4.4525917.4029192,1.1700333.2276658,2.3134566.627396,3.4140346,1.0868485-1.4139136.2281007-2.8513725.3982599-4.2516394.7156128-1.6016126.3559116-3.2228774.8155506-4.8771923.5937866-1.01642-.1225925-1.9770728-.602629-3.0116538-.3661829-2.5534386.5454122-5.2447834.5653749-7.5114136-.8875943-1.0200284-.5441283-2.0386848-1.1596999-3.1944036-1.3586435-3.1919445-.4804921-4.8251164,4.0722444-8.1663204,3.0339365Z" fill="#423b30" stroke-width="0"/>
      <path d="m87.8867777,52.6207227c3.3797212-2.8261913,5.2056035-6.9846232,6.4371815-11.0771408,1.851809-6.2066373-3.1679385-9.8561654.7009929-16.113165,2.1075965-3.7108865,4.6567744-7.3149809,5.74149-11.4773059.4679636-2.0882136,1.0091514-4.5677499-.0875956-6.4649098.0079519-.0371091.0556636-.0583143.0874921-.0344791.5446875.4620825.7372322,1.2236882.9092137,1.8899327.7980728,3.7466081-.2491195,7.64772-1.6860192,11.1114543-1.385999,3.8521785-4.7857036,7.6133652-3.4746889,11.9237123.5193821,1.6533831,1.1143076,3.2946519,1.2352227,5.0379707.5072263,6.3653241-3.8244295,13.1640706-9.863289,15.2039306Z" fill="#423b30" stroke-width="0"/>
      <path d="m78.7753823,63.9129388c-2.3629906-1.9649999-2.2046506-6.4305549-.1780697-8.5948297-.1544831-.0293228-.3630767.0048871-.4817346-.0463449.564588-.2809687,1.1530371-.4824179,1.7547031-.6625585,1.0960481-.4329254,2.3927534-.3668663,3.1781321.6043892,2.5347443,2.7254253.0262528,10.6182681-4.273031,8.6993439Zm1.0383706-1.1975545c2.4102674-.6637388,2.6969515-4.3641263,1.9537761-6.3528785-.4212718-1.1349951-1.8885453-.8239581-2.8304365-1.0163993-1.4359471,1.9717715-1.1901824,5.026312.1804304,6.9870046.2345616.248229.3947809.3542964.69623.3822731Z" fill="#423b30" stroke-width="0"/>
      <path d="m74.5144656,60.5023417c-1.9054794-.5940144-1.8583735-3.4135998-.6361141-4.6492159.4081377-.5078269,1.3492471-.6860208,1.0999827.2544415-.072256-.0693517-.0521691-.2904116-.1898578-.3419543h-.0499896c-.722752.6601977-.60836,2.5181984.0490007,3.1834697.7013138.4914467,1.5678531.6933722,2.2053598,1.216606-.7651727.3434246-1.6480197.5332151-2.4783818.336653Z" fill="#423b30" stroke-width="0"/>
      <path d="m85.0623621,60.7153254c1.6404198-3.062948,4.7339797-3.8323193-.6279292-5.0708139.0382894.0312901.1467382.0535721.137668.0902463-.1696415-.0212052-.3366323-.0132532-.4718153-.1192792-.0503623-.0397597-.0397649-.1219298.0159091-.1484777.6967011-.2788357,1.4907617-.1361563,2.2264718-.1193413,4.6560134.4470484,1.8913668,5.0875254-1.2803044,5.3676658Z" fill="#423b30" stroke-width="0"/>
      <path d="m62.7960129,79.2380537c-1.5542116.0490163-4.0497553-.614122-3.3796797-2.6532572.498094-1.2050716,2.1548319-1.678585,3.1013203-2.3749185,2.0177437-1.2091097,3.8961212-2.67103,5.2767154-4.5205145,2.0133535-2.7281795,3.379162-6.1018124,6.3331643-7.993174.8792127-.5865387,2.4193997-1.0868485,3.1462778-.1088215-1.9398239-1.3120293-4.0156696,1.8452859-4.8721809,3.273426-1.2935576,2.3385756-2.1197522,4.9194163-3.670842,7.1146136-1.1554703,1.6367441-2.6588226,3.0115865-4.2744132,4.1802376,7.5894265-.0886569,9.3774335-6.6634029,13.9599069-11.1805834.0209204.0657278-.0723078.1917785-.0930212.2728718-2.853319,8.9531021-4.9790352,14.0558273-15.5272475,13.9901202Z" fill="#423b30" stroke-width="0"/>
      <path d="m175.6897518,133.860744c-.3994609-.0308966-.9001849-.0084696-1.2458046-.0928762.7504647-.0407951,1.5324059-.2472558,2.2610027-.023773-.2816314.1696001-.6804296.1145163-1.0151982.1166492Z" fill="#423b30" stroke-width="0"/>
      <path d="m90.5207556,78.5628632c-5.4122091-1.2648975-7.7608282-6.717032-7.3107357-11.8747788.033159-.9550616.03348-1.9916099.1219764-2.9051102.3366271.8720632.6414516,1.7573796.9305742,2.6452018,1.2599793,4.973941,4.3041605,10.67505,10.3082717,9.7624194-.0560364.0168565-.104742.0322478-.1563882.0477324,2.4534439-.1674671-5.7528587-8.3933597-6.2953926-9.6219351-.9003713-1.1268153-4.3633394-6.3508284-3.399104-6.7150647-.0209981.0414164-.0435286.0827085-.064418.124042.151351,1.0154053.9640024,1.8679821,1.5260433,2.6680636,3.1023971,4.1056467,7.3484246,6.9631902,10.3558954,11.0902905,2.9123167,4.4846272-2.5411845,5.8908167-6.0167225,4.7791391Z" fill="#423b30" stroke-width="0"/>
      <path d="m58.75276,120.8408853c-1.977342-2.5453676-.8502161-7.4002986-.0184096-10.2925076,1.5203744-5.1348436,5.5233913-9.1261397,6.8228301-14.3585395,1.5792478-5.5608317,2.271771-11.3743448,4.6121897-16.6990462.1833503-.5585982,1.9159215-4.1284619,2.202088-3.6994504-1.2576962,1.4641051-1.4715859,3.6792237-2.0960206,5.486655-1.4959388,6.0301414-1.3759762,12.3751715-3.2416597,18.3206371-1.6122981,4.7500855-4.860895,8.6951402-5.9826989,13.6269193-.4923579,1.4670923-1.0711724,3.0006785-1.6459075,4.4186716-.4859797,1.0564696-.7438588,2.0884414-.6524114,3.1966608Z" fill="#423b30" stroke-width="0"/>
      <path d="m59.2230843,119.7179424c.1299853-.3770754.5857104-.5685847.8747967-.8295907-.1230688.1928139-.3958991.4202312-.5551451.6382678,4.4272655-4.0915858,9.569502-8.5549043,15.9155882-8.7863183,2.8653298-.0151791,4.8877069,2.225364,7.1707898,3.6034938,4.5065365,2.2033097,8.9343611-3.2941549,15.1477493,1.236403,1.3107661,1.0677141,2.6590969,2.0798061,4.2886863,2.5817104-2.8149053.866969-5.456421-.9649601-8.2309661-1.2540878-3.5923943-.6516867-6.9784314,1.7381417-10.5434909.8485387-2.9609188-.5856483-4.6001996-3.5330446-7.3719698-4.4542897-4.4371641-.5774478-8.7607437,1.8044286-12.4787538,3.9535865-1.4013231.7832458-2.603599,2.0426349-4.1059159,2.5842576-.0654586.0054463-.1222611-.0554979-.1113686-.1219712Z" fill="#423b30" stroke-width="0"/>
      <path d="m99.9596511,116.5180718c.2390553-.5606535.6477107-1.2151979.5539647-1.823708-.93396-2.4749805-2.308673-4.8079234-3.0536293-7.3608081-1.3217208-4.7294601-1.5787301-9.6918666-2.913145-14.4221344-1.0173104-4.0307245-2.8640459-7.7644728-4.3177606-11.6337614-.0079519-.0371039-.0238558-.1033701-.0079519-.1510818.0026506-.0079519.0185545-.0053013.0158418.005322.3294051,1.0345603,1.0245169,1.9518347,1.5397987,2.913145,4.156858,6.5777487,5.7917694,14.1792688,7.5060967,21.6582585.5409186,3.2449109,5.996035,9.2897343.676785,10.8147681Z" fill="#423b30" stroke-width="0"/>
      <path d="m86.9059137,123.2823185c-6.1254405-.6346438-10.30632-3.8782915-11.6842221-9.9794827-.1036652-.3269202-.2917835-.9841359.2889413-.6175803-.0419962.0438599-.202262-.0515634-.283143-.030441-.0026092.0096086-.0049907.0192586-.0071288.0288258,2.7980541,6.6054355,7.7819091,8.4320219,14.6102527,7.793485,2.0222788-.3145781,3.6724935-1.13748,5.6817882-1.2024416,1.8511049-.0375647,3.6641274.6508376,5.5160399.4903906.1156138.0103541.2453713-.0340236.3312896.0026714-.2491609.2597635-.5115751.5062738-.7898724.7369216-1.8397361,1.4547916-4.3193759,1.4617081-6.4994303,2.0594293-2.3234586.7042026-4.7474348,1.0886915-7.1645152.7182221Z" fill="#423b30" stroke-width="0"/>
      <path d="m49.969258,78.6817489c-8.8609713-6.9867923-7.3852748-14.43224-7.2360723-24.5686286.1398838-7.865301,3.459955-13.7841565,9.4201649-18.7746019,1.7948822-1.5657046,3.7364197-2.974669,5.5424636-4.5008417.045061-.0265065.098074.0318078.0689997.074301-2.2623488,2.4173289-4.7799053,4.6193133-6.8729232,7.204482-5.9993794,6.7223954-5.932699,13.5071638-5.6326891,21.918022.1230895,8.0833582.1030646,11.7398443,4.7100565,18.6472673Z" fill="#423b30" stroke-width="0"/>
      <path d="m97.5712722,94.4854714c3.4304148-1.788297,6.3767136-4.2744598,9.1500369-6.9393344,3.2599243-3.0353854,6.7533955-6.0118146,8.6835229-10.1200913,5.9359605-14.7348073,7.043538-25.2924211-1.5350565-39.0830594,7.6907724,9.8275881,9.8466396,19.8493776,6.6614305,31.9050424-1.046861,4.3915025-2.2701765,8.8753221-5.0439968,12.5218683-4.4574788,5.6067832-10.798098,10.4254128-17.915937,11.7155743Z" fill="#423b30" stroke-width="0"/>
      <path d="m32.6441256,69.537531c-2.2573581-6.5346757-3.4966189-13.6371284-2.973644-20.5504326.3677567-3.0316994,2.5481218-5.4142178,4.1344-7.8129507.8925747-1.3723523.1929278-3.0016725.3026502-4.5152753.0291571-2.0728067.7183256-4.1244083,1.7360295-5.9137614,3.3023864-5.4798006,8.4846207-10.1644482,14.5893116-12.2431775.8110983-.2438596,1.6858121-.3896453,2.45713.0291364-1.3261937-.4395313-2.760712.520666-3.9178441,1.1449143-5.1913148,3.4325892-9.9052542,8.3979363-11.8229255,14.4159426-.7512309,2.2775486.3048763,4.5942149-.1100433,6.8769199-.7167725,2.9771747-3.5664055,4.9006133-4.2313143,7.9079805-.6070398,4.0360879.1226442,8.1691729-.1979289,12.2448755-.1069474,2.7911324.0214123,5.6625089.0341789,8.4158281Z" fill="#423b30" stroke-width="0"/>
      <path d="m56.2967482,103.6565272c-1.4949448-.4941595-2.9799496-1.0777783-4.3550354-1.8474602-2.2729307-1.3860404-4.2509664-3.4915661-6.5549593-4.7924958-2.6694925-1.4674443-5.8130367-3.1028734-6.5021224-6.3509112-.2467277-1.0804083-.3379059-2.2063331-.8012205-3.2302288-1.1224873-2.573862-3.7016299-4.0317184-5.2316026-6.3173795-2.2007316-3.1697246-1.7243708-7.4385311-.1325531-10.7669581.3419336-.7395308.752784-1.5108745,1.2643487-2.1444157.1995648-.2581276.6093488-.7808643.94098-.7394894-.3517389.1420996-.5847992.5297361-.7661098.850858-1.5850772,3.2532821-2.2568508,7.3773125-.4910325,10.6489577,1.2910209,2.1637364,3.6186108,3.3396508,5.2808363,5.1595071.9966437,1.0761631,1.7361744,2.3749806,2.1736763,3.7717893.4096494,1.6398607.7059939,3.4402305,2.2719263,4.4046936,1.9230555,1.276432,4.0366677,2.3143056,5.6668266,3.9871337,2.3921684,2.6363801,4.352364,5.3049199,7.2360413,7.3663993Z" fill="#423b30" stroke-width="0"/>
      <path d="m126.0196419,39.0868246c-1.5674234-2.2064367-2.8412876-4.6464203-4.7888719-6.5519877-1.4948826-1.718179-3.9148207-2.3017565-5.3128512-4.0797407-1.2482688-1.9281808-.8096901-4.4700694-2.0521814-6.4160799-1.0828725-1.902689-3.2280958-2.7799292-5.2445763-3.2816058-1.0740923-.1849241-2.1979463-.6484148-3.2732604-.4108504-.0045972.0100435-.0108511.016608-.011286.0254504,0,.0106026-.0159039.0106026-.0159246.0026299.0782148-.2179744.456367-.2088421.6361762-.2492023,1.8824364-.1734932,3.8376206-.0306067,5.6562758.4985082,3.8435017,1.0382464,4.9714974,4.6696963,5.9058923,8.0763795.1840337.4139774.7448114.8280376,1.0759353,1.0100833,5.0419674,2.2119451,6.845402,6.1626531,7.4246721,11.3764156Z" fill="#423b30" stroke-width="0"/>
      <path d="m127.9928008,77.4402517c1.0886087-4.9653471,4.709953-10.0908513,2.8373323-15.2446222-.7017384-1.4683347-1.7894566-2.8705897-1.6873238-4.5796364.0751293-1.2372935.7709451-2.3412884,1.2021724-3.4729494,1.9373338-4.4353417,1.3106212-8.0583841-1.791631-11.7175415-.3620412-.4505273-.8451218-.897907-1.1758316-1.3071215,1.2178071.8537364,2.3411641,1.8491997,3.281233,3.0058555,3.6652664,4.0317806,2.3051526,8.8202176.8271678,13.4308542.0843237,1.4303973,1.2813812,2.4879645,1.8026063,3.7744813,2.6171007,5.8656562-2.0916512,11.5791694-5.2957255,16.11068Z" fill="#423b30" stroke-width="0"/>
      <path d="m107.1159865,103.985456c2.0495722-1.2740091,4.1132052-2.6907805,5.9030552-4.370815,1.4604449-1.236051,2.9926851-2.4593251,3.9547047-4.1471666.962558-1.389333.1919235-3.1130411.7819205-4.5868014.9515619-1.7862468,3.0538157-2.483885,4.5272654-3.7660738,3.2979445-2.6097027,4.7204314-6.6551818,6.3351937-10.3750298.0715675-.1192792.1855454-.2677154.3260297-.3207336.0177262-.0003935.0087596.0196987-.002837.0237989-.7272715,1.3483101-.5230267,3.1224634-.9911767,4.609539-.4834533,2.0249501-1.2441065,3.9852027-2.3511662,5.7544947-1.2535701,2.0774247-3.2464433,3.4813984-5.0367489,5.0444109-.199482,1.1387018.1919856,2.4454092-.2750669,3.6100376-.4356174,1.4188422-1.3192772,2.6803228-2.3167699,3.7636924-2.7203932,3.1132896-6.6181089,5.3066594-10.8544036,4.7606467Z" fill="#423b30" stroke-width="0"/>
      <path d="m20.5251766,51.901196c.1218987-10.9656273,3.0475101-19.4226854,10.620867-27.4899533,4.5786735-4.9228746,9.2138388-10.1065895,15.3897037-13.0280385.8804397-.4067709,2.0072757-1.1079916,2.9475102-.7579818-.6834323-.1550008-1.3409587.3202935-1.9146894.6269818-4.992889,3.0383674-8.5808931,7.5247341-12.1893983,11.9874728-2.4987327,3.093182-5.0479624,6.1798616-6.9861866,9.6675966-3.3917319,5.9826575-4.9758358,12.8377717-7.8678067,18.9939224Z" fill="#423b30" stroke-width="0"/>
      <path d="m26.4099568,91.863877c-5.3150152-5.802372-5.9125396-10.3554191-6.8284834-17.8387317-.4642154-4.7080944-.7712557-9.1797376-.2860836-13.8204839.4715772-3.2863272,1.5112318-6.4596085,2.7645948-9.5237783.2956404-.7352649.5825731-1.4949241.9781409-2.1840925-.1642056.5764538-.3674875,1.2771775-.5010242,1.9031239-.6833081,3.0078849-1.3128163,6.0477848-1.4685832,9.1367837-.1070924,4.2080901.5950705,8.3982262,1.0978135,12.5647756.8425851,4.2665648,1.276463,8.6024244,2.1069442,12.8655465.5372636,2.3379078,1.4948205,4.6286475,2.1366811,6.8968567Z" fill="#423b30" stroke-width="0"/>
      <path d="m48.3354234,115.5437516c-3.1572428-1.0001019-4.5429932-4.2757644-6.8872222-6.3503314-3.6922698-3.1652879-7.6677863-6.2239907-10.2465147-10.4282912-2.4548521-4.1348866-4.1773902-8.6471593-6.3827397-12.9086351.2852553.3372173.5928236.7875117.8825726,1.1716071,2.7404801,3.9210953,5.0092277,8.1868784,8.0897777,11.8616705,1.9147204,2.0601126,4.1175953,3.8403127,6.3340237,5.5653461,1.4008778,1.0264841,2.8422402,2.0229828,4.0776803,3.2534012,1.6071935,1.4607348,2.7158995,3.3898061,4.3932006,4.7666313,2.2790603,1.5828924,4.8722845,2.803433,7.1159959,4.3886241-2.4942598-.1325324-5.0176767-.4718153-7.3767741-1.3200227Z" fill="#423b30" stroke-width="0"/>
      <path d="m47.9794083,11.1739273c-.0106026,0-.0159039-.0106026-.0132947-.018596.1371503-.2860422.6056938-.4767432.8720839-.6679633,2.7257773-1.6097303,5.5781024-3.4861192,8.8505758-3.5014025-2.8075125,2.0958964-6.4854523,2.7623066-9.6781371,4.1483677-.0019466.004825-.0038724.0096707-.005819.0145164.0045558.0019466.0091323.0039138.0143508.0065231h-.0026506c.0860011.0171464.0060675.0348933-.0371091.0185545Z" fill="#423b30" stroke-width="0"/>
      <path d="m58.4759122,5.4053096c.0090288-.1242284.0137709-.0712776.1563675-.2147439,2.4626591-1.7850044,5.3685148-2.8943627,8.2594192-3.7823505,4.6315932-1.3841145,9.9710493-2.3795985,14.3559303.1564711-7.5891366.9429887-15.5953775.6156751-22.726656,3.7876725-.000497.0009526-.0010975.0019466-.0016152.0029613-.0012218.0007662-.0024643.0015117-.0036861.0022779.001139,0,.0022365-.0005591.0031684-.0013253-.0054463.0103748-.0117415.0207703-.0176227.0311451.0720852.0222199.0190515.0411679-.0253054.0178919Z" fill="#423b30" stroke-width="0"/>
      <path d="m96.5130632,4.1457341c-3.6621808-1.406438-7.474993-2.6129177-11.4129448-2.7708383.1922134.1077447.4986946.1849241.6407113.303085-.3472349-.0556636-.7448269-.0689168-1.0655605-.2147025-.0636156-.0291571-.098074-.1060259-.0768688-.1722921.0874662-.2597635.3790427-.2809687.6175958-.3446257,1.1689202-.2553527,2.3813639-.2842406,3.57575-.3154685,3.1572117.0270863,6.37193.6608397,9.2428096,1.9853975,1.3963324.7469029,2.7451809,1.727974,3.8381176,2.8282621-1.823915-.2176223-3.6529036-.6380193-5.3706063-1.302897l.010996.0040795Z" fill="#423b30" stroke-width="0"/>
      <path d="m131.1701823,27.6162075c-3.2005332-2.5829322-5.7389428-5.8720965-8.622413-8.7870431-1.4856261-1.4720208-2.2099985-3.5711269-3.9235389-4.8188574-3.7074075-2.4935557-7.5773536-4.3366258-11.3627896-6.5788876-.5837845-.3167731-1.1695156-.6795806-1.7732835-.9330281-.0371091-.0159039-.0159039-.0662662.0185545-.0609649.3657894.0477117.7342295.1722921,1.084115.2782973,2.5785007.7849438,5.1156885,1.6883385,7.6471402,2.6161482,2.6410601,1.0466332,5.5234327,1.9171847,7.5995735,3.949362,1.6671541,2.1124008,3.4588886,4.1048184,5.327699,6.0462731,1.9706325,2.379143,2.955369,5.4696329,4.0049428,8.2887006Z" fill="#423b30" stroke-width="0"/>
      <path d="m138.727304,75.1423055c.1825013-3.8361296.431103-7.6396853.0638433-11.4693539.1692687-3.2255694.8930199-6.313243.4564085-9.5095311-1.4805319-5.1751003-2.0709844-10.5221821-3.3008023-15.7515172-.6896655-2.9969303-2.9217182-6.0078801-4.0493825-8.4071928,1.971523,2.3889172,4.2070754,4.6128937,5.4466882,7.5036532,2.0524299,4.6105744,2.8018799,9.6627302,4.4847308,14.4063133,1.0354508,3.2907174.5344576,6.7596494.1558084,10.1161567-.2620207,1.6692663.001139,3.339568-.1132945,5.0137628-.2980737,2.9003887-1.7137268,5.6416144-3.1439999,8.0977089Z" fill="#423b30" stroke-width="0"/>
      <path d="m104.8662697,115.0703003c3.4125229-2.3848584,7.0285866-4.1053982,10.2465147-6.6550316,3.1564041-2.8453878,6.0330198-5.7244264,9.4502849-8.315994,5.3757834-4.3469178,9.4369489-9.9954487,12.1400921-16.3278882.6292804-1.4184487,1.1739679-2.8764915,1.8846314-4.2542693.053013-.0874662.1192792-.1775934.1563882-.1643454.0158418.0096966-.0057362.0184406-.0159453.0225564.0000414-.000352.0000414-.0007662.0000414-.0013512-.000352.0006264-.0007248.0012528-.0012425.0017861-3.2460498,11.4780099-6.324032,17.7436655-15.7064562,25.5425553-1.9459898,1.622735-3.5055441,3.6408307-5.4391504,5.2694882-3.5782091,2.9375599-8.3230347,3.9707328-12.7151585,4.8824936Z" fill="#423b30" stroke-width="0"/>
      <path d="m56.5875533,41.092661c.0163595.0151791.0331952.0298819.0502381.0443155-.210975.3201693-.418119.6430721-.6216184.9679214.187844-.3385996.3780901-.6764329.5713803-1.0122369Z" fill="#423b30" stroke-width="0"/>
      <path d="m5.128225,55.3595254c-1.8490858-1.3107661-3.9904263-2.6635285-4.6892759-4.9487598-.8652502-3.3377457-.1975147-6.8790735-.1217745-10.2792544.5104361-4.6983771.6166795-9.5166961,1.966874-14.0723317.1309896-.308407.2893348-.9766602.6467995-1.0389919.0079519,0,.0132532.0106026.0159039.0159039.006813.0114516-.0113791.0187202-.0155518.0066473.0038517-.0014703-.0226444-.0092359-.0304514-.006668-.8106531,1.367403-.5591935,3.2655362-.7306366,4.7897417-.0397597,2.9846297.0185545,5.97191-.0026403,8.9591903-.0240111,2.1835127.0227479,4.3669012.0768999,6.5497512.0297162,1.6199187-.0938081,3.4325892.6016143,4.9196441.7469029,1.7639441,1.8548841,3.2696571,2.282239,5.1051274Z" fill="#423b30" stroke-width="0"/>
      <path d="m14.6893815,55.8252112c2.4007105-8.7955127-.2656239-17.9468336-.0981879-26.8855641.0367777-1.3081776.1832778-2.7136423.4559425-3.9441435-.0291571,1.22725.0238558,2.4385962.1077033,3.6569624.3021635,6.1120008,6.5825219,24.305179-.4654579,27.1727453Z" fill="#423b30" stroke-width="0"/>
      <path d="m5.8518622,47.8999186c-1.241518-3.0397134-1.1134792-6.3618451-1.0866-9.5821132-.17691-4.5555113.0433319-9.2843088-1.031568-13.7220734-.000994.0005798-.0018844.001139-.0027542.0016981-.0018948.2485811-.080151.0060882-.0021329-.0444812.9072775,1.4424288,1.087418,3.3754139,1.5079081,5.038944,1.2210376,6.0178821,1.5572453,12.2631609.6151471,18.3080258Z" fill="#423b30" stroke-width="0"/>
      <path d="m8.6677719,48.5754818c-.4055491-.3737414-.5380815-.9701372-.6864868-1.4843629-.5968824-2.0562195-.8579402-4.1948161-.818915-6.3323981-.2032619-5.1048374.7340218-10.2380451.4239581-15.3102257.9333594-1.4151147,1.1189566,4.6552213,1.2113979,5.134388.2444809,4.0286329.3946974,8.0671851.5272305,12.1028381.0993889,1.9758717-.5827698,3.9996415-.6571847,5.8897606Z" fill="#423b30" stroke-width="0"/>
      <path d="m12.1625374,46.3779289c-1.0770225-2.9535881-1.2043157-6.1231626-1.0921187-9.2348577.0662662-3.260297.196148-6.5391486.7103633-9.7385222.0478566-.2214741.1855971-1.3321577.5062841-1.0761217.0742181.2279557.0397597.4903699.0370677.7289489-.0706874-.1109545-.0666493-.3852137-.12135-.5435692-.2536132,6.6007141,1.2391883,13.327686-.0402464,19.8641218Z" fill="#423b30" stroke-width="0"/>
      <path d="m6.3516543,111.8396367c-3.5085986-8.0777877-2.0661594-16.9414096-.7873667-25.3481055.9909489-6.9831943.5048138-14.0614806.8524629-21.0893839.0935492-3.4378076.1406707-7.1794458-1.2069974-10.3141891,1.7004114,2.58316,2.1686546,5.7402268,2.5358936,8.7537857.3260297,3.3424671.5937452,6.6955369.832231,10.0459559.3955057,4.9259187.5811442,9.8973281-.2571025,14.7879445-.9747965,7.6777469-2.097522,15.449509-1.9691208,23.1639922Z" fill="#423b30" stroke-width="0"/>
      <path d="m10.418908,117.3740655c-4.7662172-1.0086544-5.9051364-5.5975059-5.1583888-9.8550265.1817454-.9762047.2912917-2.1014255.9993461-2.8547065.1369122-.1431764.3059013.1065643.233257.1113065l-.0026506-.0026506c.000849,0,.0013667.0000414.0017602.0001242-.0023193-.0065231-.0044108-.0113274-.0044108-.0160281-.0131808-.0304825-.0435493-.0665768-.0890245-.0751293-.0278525.0128598-.0557154.0257196-.0836611.0385586-.7081682,1.4314742-.33335,3.1940516-.248198,4.7380126.2304511,2.9151744,1.9125047,5.8334757,5.1073431,5.9781638,2.007752-.1822735,2.9126066-2.5357383,4.1719854-3.8462559.4663587-.5484978.9455669-1.1787929,1.4286682-1.6672369-.7527219,3.179825-2.1248878,8.2853873-6.3560261,7.450868Z" fill="#423b30" stroke-width="0"/>
      <path d="m14.6063417,116.1287372c.6860933-4.2359219,1.2985587-8.5837922.6577438-12.8503829-1.0292694-6.347805-2.7513209-12.5790643-3.2789241-19.0130567-.7723015-6.5149459-2.340108-13.0705938-1.0525247-19.6254185.4430517-2.1748981.7312061-4.4856833,1.8979468-6.4145268.0677468-.1316834.3181813-.286125.3392726-.045061-.0178712.0333195-.0349554-.0570718-.0397597-.0636363-.0114309-.009153-.0209774-.0182853-.0318595-.0274176-.02193.0046801-.0453509.0105819-.0691136.0151998-1.1183146,2.0170189-1.0075569,4.5804647-1.2401512,6.803178-.1749117,3.7788715.2309584,7.5358337,1.0918495,11.2149124,1.1971817,4.7456332,1.9427076,9.5787585,2.8523768,14.3823747,1.0631687,5.7186488,3.2022313,11.4440692,2.6770613,17.3273481-.4052592,3.0528424-2.0402845,5.8692181-3.803918,8.2964868Z" fill="#423b30" stroke-width="0"/>
      <path d="m146.712961,71.9677196c-.6066878-.5662654-1.1283684-1.2450642-1.245846-2.0860134-.3809271-1.7010792-.6464475-3.7524116-.7794148-5.3728894-.3234619-3.8996209-.7432169-7.856355-.7299843-11.7626233.3772618-6.5210083.8221979-13.0612337,1.5410619-19.5522565.4347063-3.1237473,2.6534436-13.5884228,5.5559239-14.7480813.2785251-.055208.3756051.4376468.3339609.5566361-.0325326-.1484156-.0559949-.2916127-.1689995-.4037061l-.1630149-.0567197c-.4038511.0721887-.6408356.4955676-.8407317.7951944-1.0750034,1.9330472-1.4776327,4.1111343-1.9893735,6.2361878-1.3128784,5.7988516-1.1524935,11.6910144-1.158416,17.5843989-.0398426,3.8759515-.4149092,7.7514888-.137813,11.6283928.1854832,3.2507506.7910113,6.5007971.4691233,9.7623366-.1895627,1.8844865-.5415191,3.751371-.9238751,5.6029522-.1417683.6572986.1246633,1.2357145.2373987,1.8161909Z" fill="#423b30" stroke-width="0"/>
      <path d="m153.7280459,24.4295901c-.5697858-1.2950279-.908054-2.7347025-.9834732-4.1244083-.0898735-.7187398-.2823354-2.5356761-1.3492005-1.7069759-.3945531.298757-1.2467986,1.122011-.5857104,1.5002461.0306481.0214123.1427208.0232967.1246219.0609442-.7966854.0974113-.7490359-.9113673-.4718153-1.3861854.3886306-1.0276024,1.6719376-1.8929561,2.6082998-.9755627,1.5437333,1.7660564,1.3859783,4.5418439.6649192,6.637906-.0030441.0000207-.0063574-.0019673-.0076413-.005964Z" fill="#423b30" stroke-width="0"/>
      <path d="m153.8835022,69.6261206c-1.8612105-9.6478825-2.1293194-19.469693-1.7282432-29.2657632.0984881-7.1501851.5047207-14.2834724,1.0866414-21.4066126.2477113,1.2798281.1869328,3.2602349.2648577,4.7896795.3233376,8.291082.9525766,16.5662601,1.2352848,24.8604069.1792708,7.0006099,1.8350975,14.3267732-.8585407,21.0222893Z" fill="#423b30" stroke-width="0"/>
      <path d="m148.0141185,72.0943709c-1.1755003-.6026652-1.9157766-1.8251575-2.056965-3.1224634-.0802028-.6632625-.025119-1.6729523.726319-1.9110965.1272311-.0318078.2942219.045061.4188231.0795609-.0432594.0503209-.2150752.0190515-.2909915.0444398-.6807817.3539029-.1973283,1.4279538.0471318,1.9302309.4152199.7991082,1.1769291,1.5518095,2.0622249,1.6542114,2.0973459.0940359,3.9161046-1.3713221,6.0009843-1.5428842-1.3674859,2.1747117-4.3118795,4.1369523-6.9075266,2.8680011Z" fill="#423b30" stroke-width="0"/>
      <path d="m147.0197113,113.9289479c-5.1812299-2.1969109-2.1224236-12.5276044-2.1040554-17.0357147.2314761-8.2167603.8456603-16.4331065,2.9631138-24.4072083.0050942-.0384137.0104783-.0758334.0159039-.1139779.0132532-.1404843.2359077-.135183.2336091.005322-.9012824,8.3278597-.6090692,16.6828472-.432387,25.0380004-.0835782,3.2559069-.5126519,6.4950195-.6010551,9.7526038.0727479,1.5882766-.4247871,3.5735291.7848817,4.8298327.0000828-.0000207-.0009526.0173328-.000994.0174363,1.6994381.8020281,3.605399.8571533,5.4232879,1.1849639-1.9351387.5493261-4.2452406,1.2532802-6.282305.7287418Z" fill="#423b30" stroke-width="0"/>
      <path d="m153.0786992,115.6112603c-.4108504-.2253051-.7925438-.5751906-1.1291761-.8986318.5586862.0030234,1.1225908.1302338,1.6843833.050383,3.1666753-1.520685,3.9186725-10.1702879,4.0407472-13.4390339.0018223-9.4104424-3.1657642-18.4145487-4.1055846-27.7201818-.0318078-.3286855-.0742181-.6494139.0159039-.9701423.0159039-.0477065.0874714-.0689117.1166285-.0185545.1192792.2094012.1563882.4612128.2199624.6945888-.0919444-.060033-.1483949-.3627609-.2323666-.4859124,2.3122555,10.071572,7.3043369,19.7763605,6.9095767,30.3401868-.3802644,4.5363356-.6672799,11.0886339-5.7626951,12.7892317-.604327.1506106-1.2294658-.0460136-1.7573796-.3419336Z" fill="#423b30" stroke-width="0"/>
      <path d="m82.7279126,54.3788064c-2.4961235-3.33027,2.4640258-15.5349717,4.1882723-19.2278421.134976-.2916334.2789186-.5800156.4135011-.8694125.0636156-.1563882.3127765-.0848207.2678604.0795609-1.586097,5.3136588-2.5559443,10.7802683-3.9843795,16.1302285-.2682332,1.3114702-1.2193964,2.6113853-.8852543,3.8874652Z" fill="#423b30" stroke-width="0"/>
      <path d="m78.7087433,53.1998893c-1.3703022-2.9747933-1.1550406-6.3787223-2.053341-9.4906245-.0446934-.0700351-.1891538-.4074543-.0138797-.3247872,1.5091506,2.9669449,2.6527861,6.475181,2.0773677,9.8213342-.0033961.0000207-.0073721-.0019673-.010147-.0059225Z" fill="#423b30" stroke-width="0"/>
      <path d="m86.3488842,85.0043106c-2.4594493-.6739117-3.5942114-3.1045145-4.1298753-5.4019171-1.0186565-4.1369316-1.5433812-8.4794851-1.0150946-12.7257404.0998135-.7428648.4357003-1.2804287.6360986-.1749221-.0991922-.0844687-.1526038-.3575269-.2610733-.4852964-.005177-.0021122-.0103955-.0042245-.0157538-.006316-.2167578,4.0153383.9736938,8.1669157,1.8699804,12.0562861.705119,2.3497373.9149343,5.1083785,2.915718,6.7379058Z" fill="#423b30" stroke-width="0"/>
      <path d="m78.4894643,82.7707048c-.2348516-2.9966249.1451023-5.974602.4768474-8.9486084.3087591-2.0198352.1743629-5.2182562.3931294-6.6483222.7794096,5.1385141,1.0298596,10.7138312-.8699768,15.5969306Z" fill="#423b30" stroke-width="0"/>
      <path d="m72.1121502,121.216304c-2.3847963-.5619581-4.4902598-2.0356355-6.9606224-2.2741732-1.8244742-.1781732,2.1478739-.9208931,2.5048831-.7767641,2.119074.0337958,4.1858495.6147433,6.2979397.7820033.8826658.0954233,1.9614795.5910945,2.3537754,1.4392605-.9670724,1.2817333-2.7975519,1.259327-4.1959758.8296735Z" fill="#423b30" stroke-width="0"/>
      <path d="m116.4380256,42.4678089c-2.0746498-1.95974-4.4060604-3.6366269-6.2555086-5.7970086-1.262164-1.5111386-2.1796403-3.280881-3.4794725-4.7659687-2.2530715-2.46912-5.4264149-3.7628226-8.3980191-5.1388817-.0104369.018099.0565541.09942.0131704.0841374-.112052-.163574-.6609846-.488444-.2756467-.5326353.883287.3417472,1.8713782.2874296,2.7963094.4798708,5.4467296.8313716,8.7502446,3.3928916,11.4588756,8.1108172,1.5606104,2.3970348,3.2712931,4.8422576,4.1402915,7.5596688Z" fill="#423b30" stroke-width="0"/>
      <path d="m66.2048705,93.4203458c-7.1968407-2.0184063-11.3784243-3.6316984-15.4402938-10.2393083-.3016769-.599647-4.8922058-6.4840804-2.6929134-5.8525894-.0752328.0715882-.3433003-.0108925-.4135839.1368604,1.0145148,1.7407924,2.9341017,2.8959779,4.2993925,4.3904257,1.6294859,1.5274566,3.1253004,3.2095413,4.9167243,4.552695,3.3484104,1.992459,6.9232234,3.8777324,9.3306744,7.0119166Z" fill="#423b30" stroke-width="0"/>
      <path d="m57.3143279,30.9525864c.3356176-.5851513.9252004-1.0051133,1.434042-1.4472124.53862-.4134597,1.1541915-.9635934,1.8767416-.779187-.4868702,1.3277054-2.219048,1.4997905-3.2768843,2.2210981.0051356.0176227-.0396355.0297991-.0338993.0053013Z" fill="#423b30" stroke-width="0"/>
    </g>
  </g>
</svg>