<?xml version="1.0" encoding="UTF-8"?>
<svg id="b" data-name="Layer 2" xmlns="http://www.w3.org/2000/svg" width="301.043" height="179.308" viewBox="0 0 301.043 179.308">
  <g id="c" data-name="Layer 1">
    <g>
      <path d="m.283,133.491c.02.36.04.702.126,1.017l.052.188c.323,1.185.656,2.403,1.124,3.558.699,1.727,1.918,3.053,3.725,4.053,1.47.815,3.022,1.286,4.665,1.786l.243.074c2.3.701,4.677,1.07,6.777,1.399.838.129,1.704.221,2.468.301l.687.073c1.075.116,2.234.179,3.65.198,2.508.032,4.728.034,6.782.003.609-.009,1.218-.004,1.828,0l.266.003c1.434.019,3.055.039,4.628-.152.667-.081,1.349-.086,1.986-.074h.217c.637-.003,1.298-.005,1.937-.104.576-.089,1.158-.093,1.721-.097.558-.004,1.13-.008,1.678-.094.506-.079,1.017-.083,1.51-.087.506-.004,1.022-.008,1.517-.093.524-.089,1.056-.073,1.564-.056l.083.003c.265.005.541.015.811.004.402-.017.812-.052,1.209-.087.39-.034.779-.067,1.169-.085,1.089-.05,2.18-.089,3.271-.128l1.903-.069c.024-.005.065,0,.101.003.407-.187.822-.195,1.239-.179.151.003.309.005.465-.008.262-.02.522-.051.781-.083.292-.036.573-.071.857-.091.253-.019.507-.028.761-.036l.074-.003c.444-.013.947-.03,1.421-.11.531-.09,1.066-.1,1.584-.109.49-.009.98-.019,1.451-.091.53-.081,1.062-.086,1.577-.091.485-.005.98-.011,1.458-.078.847-.12,1.713-.139,2.553-.156.426-.008.839-.016,1.251-.036,2.437-.124,4.894-.078,7.267-.036l.112.003c.806.013,1.637.001,2.374-.007,1.646-.022,3.357-.048,5.067.161.687.085,1.403.09,2.094.095.646.005,1.3.011,1.953.075.806.077,1.634.074,2.45.069h.106c1.018-.009,2.165-.022,3.284.153,2.396.038,4.89.03,7.301.019h.487c3.736-.017,7.597-.036,11.399.13,3.64.159,6.572.125,9.223-.108,1.126-.098,2.266-.089,3.362-.083h.066c1.154.004,2.347.011,3.507-.106.952-.1,1.939-.101,2.808-.09h.316c.797-.003,1.621-.005,2.422-.086.995-.1,1.996-.098,3.101-.093.98.008,2.103.017,3.183-.104,1.704-.186,3.404-.015,5.085-.175,2.164-.206,4.336-.023,6.481-.188,1.439-.112,2.912-.098,4.207-.083,1.495.016,3.014.024,4.497-.11,1.174-.108,2.34-.106,3.619-.108h.136c.929,0,1.888-.001,2.824-.059,1.501-.093,3.025-.093,4.498-.093h.05c1.669-.001,3.394-.003,5.082-.141.476-.039.953-.043,1.416-.047h.054c.597-.004,1.274-.008,1.918-.1.624-.089,1.272-.093,1.844-.097.602-.004,1.284-.008,1.92-.113.401-.066.812-.083,1.177-.1.276-.012.619-.027.935-.066,1.267-.164,2.633-.35,4.039-.585,1.088-.183,2.524-.41,3.986-.551.959-.093,1.935-.243,2.776-.378,1.201-.192,2.462-.487,4.094-.955.939-.269,1.747-.574,2.468-.935,1.343-.668,2.413-1.532,3.272-2.643,1.042-1.345,1.793-2.52,2.36-3.7.375-.784.632-1.625.881-2.437l.027-.089c.085-.28.169-.558.262-.834.428-1.309.806-2.597.726-3.963-.008-.14-.011-.258.022-.382.28-1.048.397-2.175.347-3.349-.009-.221-.058-.455-.104-.652-.199-.857-.718-1.534-1.543-2.017l-.295-.172.175-.293c.126-.214.237-.397.35-.581.554-.898.936-1.934,1.239-3.357.108-.506.198-1.015.286-1.514l.152-.847.573-.218c1.538-.588,2.972-1.135,4.527-1.444.288-.056.58-.102.869-.148.397-.059.845-.128,1.249-.234.412-.109.828-.125,1.196-.14.403-.017.78-.034,1.143-.145.461-.143.948-.156,1.42-.168.203-.004.385-.008.563-.02.351-.024.699-.054,1.052-.083l.043-.004c.745-.062,1.49-.124,2.227-.139,2.352-.051,4.747-.043,7.058-.038h.277c3.117.013,6.649.024,10.023-.116,2.723-.112,5.451-.098,8.471-.071h.25c3.174.028,6.446.048,9.659-.144,1.586-.093,3.189-.125,4.739-.156.706-.013,1.412-.028,2.118-.047.011-.008.062-.004.101.001.03.003.051.004.067.005.441-.196.873-.186,1.284-.188h.073c.191.007.374.012.554-.004.265-.02.527-.048.789-.077l.112-.012c.32-.034.619-.066.919-.091.32-.026.639-.046.956-.065.554-.034,1.127-.067,1.684-.14.529-.07,1.06-.169,1.573-.265.527-.097,1.04-.192,1.549-.261,1.148-.155,2.371-.325,3.571-.555,1.489-.285,2.711-.624,3.848-1.065,2.145-.838,3.877-2.207,5.296-4.186.506-.705.834-1.512,1.115-2.278.52-1.432.905-2.649,1.081-3.932.122-.896.312-1.775.562-2.617.644-2.164,1.274-4.482,1.28-6.939,0-.198.047-.405.134-.582.446-.932.442-1.93.438-2.987v-.289c0-.529-.102-1.072-.332-1.763-.693-2.068-2.153-3.49-3.49-4.607-.96-.803-2.09-1.392-3.182-1.962l-.098-.051c-.188-.098-.377-.196-.563-.296-2.86-1.524-5.964-2.667-9.224-3.4-.719-.161-1.442-.363-2.078-.541-.605-.168-1.231-.342-1.855-.488l-.36-.083c-1.552-.363-3.156-.74-4.766-.94-.225-.03-.449-.05-.672-.071-.32-.028-.65-.061-.972-.109-1.198-.186-2.279-.338-3.382-.338h-.206c-.325.008-.654.005-.982.003h-.126c-.877-.015-1.861-.022-2.803.141-.581.101-1.169.106-1.738.112-.438.004-.884.008-1.315.055-.703.078-1.421.114-2.117.149-.491.024-.984.05-1.475.089-.693.054-1.385.095-2.078.137l-.979.061c-.496.208-1.022.226-1.487.242-.299.011-.6.022-.877.078-.71.145-1.443.169-2.152.195-.316.009-.616.02-.916.039-.019.003-.044.004-.074,0h-.044c-.535.238-1.123.241-1.693.243-.351.003-.711.005-1.048.071-.725.143-1.47.218-2.191.29-.332.034-.664.067-.997.108-.561.067-1.122.148-1.681.229l-.289.04c-.745.106-1.514.215-2.275.297-.884.095-1.777.128-2.639.159l-.23.008c-.309.012-.617.024-.925.039-.262.013-.527.015-.791.016-.539.003-1.096.005-1.629.124-.42.093-.847.077-1.26.062-.273-.012-.514-.023-.745-.009-.26.013-.527.046-.787.078l-.102.011c-.373.044-.767.094-1.142.079-.703-.013-1.416,0-2.148.015h-.074c-1.467.028-2.988.056-4.484-.183-.311-.048-.644-.065-.939-.078-.448-.02-.912-.042-1.369-.159-1.993-.511-4.074-1.177-5.791-2.582-.122-.101-.25-.195-.378-.29l-.044-.034c-.202-.151-.41-.307-.601-.488-.266-.251-.539-.498-.814-.744-.742-.667-1.501-1.349-2.13-2.141-.698-.878-1.356-1.838-1.938-2.686-.655-.953-1.331-1.941-2.078-2.856-.257-.316-.508-.636-.76-.956l-.136-.172c-.53-.678-1.069-1.365-1.635-2.001-1.119-1.256-2.339-2.54-3.624-3.817-.628-.625-1.352-1.226-2.149-1.786-1.395-.978-2.834-1.626-4.396-1.982-.399-.09-.812-.152-1.21-.212-.363-.054-.693-.102-1.019-.167-.221-.044-.453-.061-.678-.077-.199-.012-.386-.027-.572-.052-.11-.016-.221-.035-.331-.054l-.081-.013c-.266-.047-.541-.095-.81-.101-.963-.015-1.926-.012-2.87-.009h-.997s-.784.407-.784.407l-.027.046c-.243.405-.473.787-.407,1.099.208.6.586.968,1.26,1.21,1.334.48,2.538.816,3.677,1.029l.366.065c.363.063.776.134,1.171.243.5.137,1.002.303,1.513.475l.477.157c1.83.596,3.433,1.65,4.899,3.222.21.223.407.46.604.697.121.144.241.288.364.429l.518.582c.3.334.6.67.89,1.015,1.202,1.438,2.483,2.972,3.756,4.535,1.092,1.339,2.024,2.38,2.933,3.275.246.242.491.49.734.736.364.37.73.74,1.107,1.099.12.113.238.227.358.342l.087.085c.546.527,1.111,1.073,1.719,1.532,1.259.949,2.778,2.015,4.517,2.715,1.752.71,3.405,1.148,5.054,1.342.208.026.42.036.629.047.387.022.823.044,1.235.157.321.086.646.098.988.112.169.005.334.012.496.026.207.017.416.048.624.079.332.051.615.079.889.086.561-.015,1.136-.007,1.693-.003h.074c1.183.012,2.38.026,3.549-.126,1.037-.136,2.095-.16,3.12-.183l.169-.004c.451-.011.901-.022,1.349-.042.819-.039,1.637-.085,2.456-.13l1.157-.063c.541-.231,1.104-.241,1.649-.25.305-.005.617-.011.909-.059.958-.161,1.945-.246,2.899-.329l.756-.066c.46-.043.919-.082,1.378-.12.92-.077,1.872-.157,2.812-.261.448-.05.897-.061,1.331-.071.541-.013,1.077-.027,1.594-.105.709-.108,1.455-.122,2.114-.137.317-.007.633-.015.949-.03,1.611-.079,3.308-.126,4.672-.165l1.806-.054c1.906-.062,4.422-.1,6.985.159.792.078,1.606.116,2.394.152.351.016.703.032,1.053.052h.056c.059-.005.203-.02.338.077.133.095.288.109.531.094.128,0,.264-.001.389.013.299.036.593.091.886.145l.601.108c.467.082.935.165,1.401.261.963.195,1.904.389,2.844.604l.754.169c.894.2,1.908.426,2.869.697,3.108.88,5.846,2.059,8.372,3.61,1.256.771,2.48,1.651,3.743,2.692.316.26.598.679.753,1.123.391,1.099.155,2.169-.724,3.273-.705.888-1.642,1.56-2.865,2.058-1.023.416-2.113.745-3.333,1.009l-.644.14c-.799.176-1.595.351-2.399.467-.627.089-1.296.187-1.955.307-.379.07-.773.086-1.12.101-.434.019-.841.036-1.221.134-.516.132-1.027.152-1.521.173-.459.017-.881.034-1.304.129-.499.113-1.013.129-1.51.144-.331.008-.621.019-.904.047-1.384.144-2.852.208-4.761.208-.027,0-.054,0-.081-.001h-.487c-1.555.015-2.982.003-4.429-.12-.966-.081-1.962-.082-2.925-.083h-.134c-1.198.005-2.45.004-3.701-.143-.421-.048-.862-.063-1.252-.075-.621-.02-1.263-.042-1.892-.173-.453-.094-.931-.12-1.353-.143-.422-.024-.9-.05-1.365-.14-.754-.145-1.552-.167-2.325-.188-.343-.009-.686-.019-1.027-.039-.03-.004-.065.001-.097.003-.163.013-.323.019-.48-.05-.338-.148-.693-.145-1.095-.132l-.062-.171.004.171c-.212.005-.437.012-.66-.009l-.654-.063c-.416-.042-.834-.085-1.251-.11-.877-.052-1.756-.097-2.635-.14l-1.229-.063c-.034.008-.102.011-.186-.022-.542-.195-1.109-.199-1.709-.203-.487-.004-.955-.008-1.427-.098-.449-.086-.914-.087-1.409-.081h-.063c-.612.009-1.208.009-1.803-.13-.979.024-1.992.008-2.944-.007-2.234-.028-4.52-.062-6.742.339-.839.151-1.575.323-2.247.526-1.629.49-3.197,1.299-4.794,2.474-1.426,1.049-2.469,2.146-3.19,3.357-.82,1.377-1.664,2.859-2.172,4.496-.065.208-.134.418-.206.627-.18.542-.386,1.158-.476,1.748-.222,1.446-.321,2.885-.385,3.978-.046.816-.043,1.651-.04,2.388.004,1.127.008,2.293-.128,3.455l-.023.188c-.147,1.265-.299,2.574-.803,3.799-.725,1.764-1.918,2.811-3.646,3.197-.594.133-1.196.215-1.725.288l-.071.009c-.36.05-.719.1-1.079.165-.955.171-1.972.238-3.182.217-1.104-.011-2.324-.009-3.834.005h-.134c-2.503.016-5.094.032-7.647-.139-1.865-.125-3.507-.093-5.018.097-.814.104-1.649.034-2.457-.032-.338-.028-.671-.055-1.003-.071-1.502-.067-3.037-.054-4.519-.04h-.051c-1.861.02-4.185.048-6.388-.164-.662-.063-1.343-.077-2.002-.09-.604-.012-1.189-.026-1.767-.067-1.066-.079-2.146-.075-3.084-.071h-.186c-1.236-.001-2.515-.003-3.778-.152-1.477.032-3.027.017-4.528.007h-.097c-2.421-.024-5.166-.051-7.838.133-1.364.094-2.731.075-4.061.055-.869-.011-1.717-.022-2.561-.007-.788.017-1.592.013-2.37.011h-.52c-1.664-.009-3.376-.016-5.055.114-1.115.086-2.249.105-3.345.124h-.091c-.974.016-2.078.034-3.133.105-1.639.109-3.264-.023-4.884.144-.874.091-1.762.097-2.621.102-.857.005-1.82.011-2.73.116-.863.098-1.736.132-2.579.164-.375.013-.748.028-1.123.047-.499.212-1.053.218-1.541.223-.356.004-.694.008-1.017.087-.477.117-.967.128-1.44.137-.359.007-.718.013-1.058.066-.539.082-1.099.095-1.594.109-.453.012-.91.024-1.353.079-.635.078-1.276.082-1.895.086-.654.004-1.323.008-1.969.098-.621.087-1.251.091-1.86.095-.624.003-1.236.005-1.826.085-.749.104-1.544.082-2.176.065-.451-.012-.828-.019-1.205-.008-.508.015-1.018.043-1.526.071-.6.032-1.197.066-1.789.075-.286.012-.549-.023-.81-.056l-.12-.016c-.268-.034-.5-.063-.722-.069-1.974-.039-4.009-.036-5.733-.028-2.725.008-5.802.019-8.756-.136-2.171-.113-4.498-.173-6.789.113-.596.073-1.197.074-1.779.077h-.328c-.64.003-1.302.004-1.938.102-.545.085-1.096.091-1.63.098-.531.007-1.069.013-1.586.094-.492.078-.998.085-1.444.091-.465.008-.941.016-1.399.089-.51.083-1.037.091-1.502.1-.449.008-.958.016-1.435.093-.477.077-.96.09-1.426.102-.424.011-.842.022-1.243.075-.605.082-1.218.093-1.813.104-.531.009-1.123.019-1.686.087-.753.093-1.517.102-2.257.112-.609.008-1.218.016-1.811.067-1.057.09-2.118.089-3.207.079h-.065c-1.143-.009-2.324-.009-3.474.113-.664.077-1.346.012-2.005-.048l-.043-.004c-.195-.017-.389-.036-.581-.05-.827-.061-1.677-.073-2.499-.085-1.025-.015-2.043-.031-3.051-.126-.676-.065-1.387-.051-2.072-.034-.434.008-.9.016-1.345.009-1.13-.023-2.266-.009-3.523.003-2.122.026-4.328.054-6.513-.165-.725-.073-1.483-.066-2.156-.069h-.094c-.775-.001-1.575-.003-2.372-.098-.212-.027-.425-.05-.637-.073l-.14-.015c-.768-.081-1.557-.165-2.329-.346-1.118-.262-1.99-.678-2.667-1.272-1.083-.951-1.697-2.21-1.828-3.741-.013-.164-.052-.332-.089-.477-.022-.09-.032-.134-.04-.173l-.007-.085.055-.387c.035-.231.065-.43.085-.629.007-.074.004-.151.001-.227-.005-.14-.012-.301.03-.468l.102-.422c.203-.849.433-1.81.706-2.731.288-.975.48-1.993.666-2.977.055-.293.11-.585.168-.878.083-.422.14-.858.195-1.304.061-.476.12-.941.212-1.396.237-1.17.52-2.345.796-3.482l.152-.632c.284-1.186.607-2.531.956-3.809.208-.763.432-1.521.656-2.281.242-.816.515-1.742.757-2.652.44-1.651.882-3.432,1.434-5.773.163-.686.297-1.393.428-2.078l.017-.093c.058-.309.117-.619.18-.928l.196-1.005c.137-.705.274-1.411.424-2.114.104-.484.215-.966.328-1.446.19-.811.379-1.626.52-2.429.261-1.479.628-2.955,1.12-4.511.76-2.407,1.655-4.789,2.433-6.801.968-2.515,2.176-4.984,3.693-7.549.563-.953,1.158-1.976,1.69-2.994.405-.776.771-1.594,1.124-2.386l.134-.301c.481-1.068,1.115-2.047,1.937-2.991.797-.914,1.629-1.509,2.616-1.868,1.126-.409,2.29-.518,3.416-.621.379-.035.758-.07,1.134-.117.373-.046.744-.059,1.072-.073.381-.016.756-.032,1.119-.082.637-.087,1.287-.159,1.915-.226.498-.055.971-.106,1.443-.165,1.033-.126,2.068-.191,3.078-.191h.184c.982.008,1.981.044,2.947.079,1.003.036,1.889.067,2.782.078,3.139.03,5.846.027,8.273-.007h.147c1.092-.001,2.167.171,3.285.523.802.254,1.654.367,2.479.476.289.038.578.075.866.121.307.044.641-.008.994-.066.199-.034.377-.063.555-.081.541-.055,1.089-.077,1.621-.098.694-.027,1.377-.052,2.04-.144.838-.116,1.676-.134,2.485-.152l.494-.011c.028-.001.061,0,.09.001.031.001.052.004.069.004.425-.229.857-.208,1.245-.188.214.011.389.019.563-.004l.281-.038.085.273c.031.095.061.188.093.28.074.219.143.424.184.648.066.352.121.707.176,1.062.101.64.204,1.302.367,1.942.134.535.18,1.085.206,1.504l.035.639c.028.538.058,1.093.112,1.637.052.522.074,1.056.093,1.526.026.632.052,1.257.132,1.863.019.136.031.272.044.407l.005.067c.024.261.05.516.1.764.179.863.368,1.727.559,2.589l.061.274c.172.78.343,1.56.507,2.343.183.874.621,1.341,1.514,1.61.867.262,1.777.507,2.578.722.773.207,1.53.412,2.282.633,1.795.527,3.657.916,5.456,1.292l.49.102c1.416.297,2.863.67,4.139.998l1.046.268c.772.196,1.567.373,2.336.542l.047.011c.377.082.754.165,1.131.251.764.173,1.526.347,2.288.526.436.104.87.21,1.304.317.845.208,1.802.444,2.725.623,1.275.246,2.609.577,4.324,1.072,1.182.342,2.367.671,3.554.995.697.188,1.395.374,2.093.559,1.326.352,2.83.75,4.267,1.174.777.229,1.59.37,2.376.506.334.058.646.112.958.171.325.063.666.108,1.013.152.414.054.827.109,1.239.196.609.132,1.264.164,1.896.196l.143.008c.619.031,1.205-.065,1.65-.147.791-.141,1.45-.589,1.906-1.294.339-.526.549-1.181.75-1.813.066-.214.133-.421.203-.627.289-.834.354-1.74.416-2.618.027-.373.052-.732.091-1.087.093-.822.254-1.662.383-2.337l.089-.468c.042-.226.086-.452.13-.679.202-1.017.409-2.068.364-3.119-.015-.315-.015-.631-.015-.947,0-.637,0-1.296-.129-1.945-.086-.434-.097-.875-.106-1.302-.009-.397-.019-.795-.087-1.173-.077-.432-.089-.869-.1-1.291-.009-.375-.019-.793-.083-1.185-.071-.432-.085-.867-.097-1.288-.012-.432-.024-.861-.095-1.271-.125-.736-.152-1.482-.178-2.203-.012-.317-.024-.635-.043-.951-.003-.051-.003-.104-.003-.155,0-.054,0-.145-.011-.172-.211-.43-.188-.855-.168-1.229.008-.155.016-.315.008-.48l-.019-.354h.733c.286,0,.546.001.799-.001h1.2c1.108-.005,2.253-.008,3.355-.194.732-.124,1.463-.256,2.206-.389l1.992-.359-.071.467c-.013.089-.027.173-.04.256l-.011.061c-.032.196-.061.366-.077.537-.008.098-.023.199-.038.303-.039.261-.073.491-.019.652.141.441.187.9.148,1.49-.046.699.024,1.405.091,2.087.051.51.102,1.036.109,1.567.001.07.009.137.024.204.172.728.346,1.459.523,2.189.032.133.059.266.086.399.063.313.121.598.233.849.565,1.27,1.091,2.405,1.785,3.416l.43.276c.276.176.55.355.823.533l.316.206c.826.539,1.678,1.099,2.54,1.608.68.402,1.407.797,2.048,1.144.773.421,1.649.897,2.468,1.4,2.359,1.447,4.683,2.955,6.843,4.369l.172.113c1.604,1.05,3.242,2.123,4.913,3.068.659.371,1.376.734,1.953,1.026.732.37,1.489.753,2.223,1.179,1.064.619,2.226,1.046,3.35,1.462l.671.249c2.235.845,3.874,1.677,5.317,2.702,1.052.748,2.039,1.045,3.103.992.03-.019.061-.038.093-.058h.001l.036-.022c.13-.078.295-.175.377-.285l.212-.282c.687-.91,1.333-1.766,1.619-2.881.393-1.509.671-3,.87-4.13.124-.695.187-1.423.247-2.126.036-.429.07-.82.113-1.212.063-.559.079-1.14.095-1.703.015-.566.03-1.186.097-1.791.114-1.044.143-2.113.171-3.147.012-.451.026-.9.044-1.348-.004-.091-.009-.191.032-.296.165-.41.16-.853.153-1.321-.005-.496-.011-1.009.179-1.518.017-.576.039-1.148.059-1.723.046-1.306.097-2.749.124-4.133.03-1.631.051-3.229-.009-4.819-.043-1.072.143-2.105.321-3.104.042-.229.083-.457.121-.687.043-.253.087-.503.132-.753.19-1.058.385-2.15.373-3.249l-.003-.082c-.004-.097-.009-.233.022-.367l.086-.374c.176-.75.377-1.6.494-2.435.163-1.154.187-2.881-.124-4.138-.251-1.021-.732-1.977-1.196-2.902l-.056-.114c-.086-.169-.173-.339-.262-.507l-.075-.145c-.251-.484-.504-.971-.721-1.471l-.106-.239c-.542-1.24-1.103-2.522-1.911-3.631-.21-.286-.43-.566-.651-.843-.223-.282-.436-.55-.639-.826-.944-1.279-1.88-2.566-2.816-3.852l-.37-.51c-.133-.183-.264-.367-.391-.553-.167-.238-.334-.477-.508-.71-.828-1.107-1.658-2.212-2.489-3.318-.893-1.189-1.786-2.379-2.678-3.569-.812-1.087-1.708-2.235-2.749-3.269-.332-.331-.66-.667-.983-1.007-.285-.303-.569-.608-.851-.912-.494-.531-.988-1.062-1.491-1.583-.768-.796-1.664-1.198-2.664-1.198-.055,0-.112.001-.167.004-.676.038-1.358.231-2.024.578-.545.282-1.146.445-1.949.524-.153.016-.308.026-.463.034l-.074.005c-.43.024-.836.048-1.2.167-.57.183-1.153.335-1.716.483l-.043.011c-.98.256-1.994.519-2.936.945-1.451.656-2.96,1.403-4.074,2.641-.374.413-.75.862-1.054,1.224l-.151.179c-.802.953-1.63,1.939-2.185,3.068-.062.428-.139.882-.272,1.323-.109.36-.229.718-.351,1.073-.191.569-.377,1.118-.51,1.661-.151.617-.273,1.256-.391,1.873-.126.668-.268,1.405-.446,2.111-.147.577-.219,1.182-.289,1.767l-.012.097c-.044.381-.093.773-.161,1.163-.05.273-.067.569-.083.831-.026.39-.05.793-.156,1.192-.051.191-.063.402-.077.607-.016.253-.032.502-.104.753-.211.73-.329,1.514-.434,2.207-.086.561-.175,1.131-.301,1.688-.061.27-.081.558-.101.835-.019.276-.038.529-.082.783-.235,1.306-.348,2.476-.346,3.58.004,1.451.003,2.904.001,4.355v2.905c0,.485.001.987-.335,1.388l-.114.14-.182-.02c-.266-.027-.53-.061-.793-.093l-.128-.016c-.697-.087-1.333-.167-1.974-.175-1.362.005-2.511.052-3.536.192-.21.028-.425.042-.637.052-.335.016-.651.032-.932.124-.609.202-1.139.133-1.75.159l-.393.019.042-.391c.022-.2.046-.393.07-.58.051-.381.098-.736.093-1.077-.009-.566-.044-1.144-.077-1.705-.031-.51-.061-1.01-.074-1.512-.02-.749-.02-1.508-.019-2.285v-1.07c-.003-.412-.015-.784-.141-1.158-.198-.577-.273-1.22-.237-2.023.023-.557.017-1.12.012-1.666-.003-.191-.004-.381-.004-.57-.153-.14-.301-.281-.449-.422-.386-.367-.749-.713-1.154-.986-1.444-.966-2.867-1.898-4.394-2.663-.647-.323-1.288-.654-1.931-.986-1.065-.551-2.027-1.046-3.008-1.517-2.908-1.385-5.898-2.92-8.891-4.563-1.448-.795-2.964-1.521-4.429-2.224-.496-.237-.991-.473-1.485-.714-1.192-.58-2.386-1.151-3.58-1.724l-2.468-1.182c-.467-.222-.929-.449-1.392-.676-.998-.488-2.008-.983-3.016-1.43-1.189-.524-2.411-1.036-3.592-1.529l-.282-.117c-.815-.342-1.629-.682-2.441-1.031-.35-.152-.697-.336-1.003-.5-.292-.156-.623-.332-.943-.472-.881-.383-1.641-.713-2.667-.081l-.814.781c-.559.53-1.167,1.105-1.781,1.674-.937.869-1.584,1.977-2.118,2.948-.826,1.497-1.528,3.068-2.206,4.586-.383.855-.779,1.739-1.196,2.608-.106.227-.195.417-.231.594-.013.074-.003.176.011.305.011.091.022.182.027.278l.005.093-.043.083c-1.034,1.935-1.552,4.024-1.541,6.209.003.273,0,.543-.003.815-.004.492-.008,1.001.011,1.499.013.331.047.674.081,1.005.043.425.086.858.089,1.292.013,1.475.013,2.949.013,4.425v.368c0,1.101,0,2.203.004,3.304v.094c.001.34.001.66.11.975.16.464.141.991-.052,1.411l-.09.196h-4.254c-.075,0-.151-.003-.227-.005-.18-.007-.323-.011-.442.016-1.501.335-3.026.301-4.529-.113-1.089-.296-2.23-.409-3.333-.519l-.188-.019c-.281-.028-.561-.056-.841-.089-.542-.063-1.081-.065-1.649-.065h-.042c-.685,0-1.392,0-2.099-.116-.615-.1-1.265-.113-1.895-.126h-.089c-.366-.009-.74-.017-1.109-.043-1.103-.079-2.261-.097-3.283-.112-.975-.015-1.949-.031-2.906-.086-2.263-.13-4.227-.083-6.04.145-.632.079-1.296.118-1.83.149-.281.017-.562.035-.843.055-.063.02-.101.031-.141.038l-.588.097c-.464.077-.928.155-1.392.222-.237.034-.476.061-.714.087-.336.038-.67.074-.991.133-.702.125-1.625.299-2.544.527l-.425.104c-.713.173-1.45.352-2.113.639-1.793.779-3.328,2.082-4.696,3.985-.851,1.182-1.407,2.507-1.945,3.787-.488,1.158-1.093,2.312-1.967,3.751-.266.44-.535.877-.806,1.314-.767,1.243-1.56,2.528-2.25,3.838-.722,1.376-1.335,2.827-1.927,4.231l-.55,1.298c-.616,1.447-1.241,2.914-1.738,4.388l-.222.658c-.928,2.749-1.883,5.58-2.52,8.452-.195.869-.375,1.743-.555,2.616-.23,1.122-.438,2.132-.671,3.142-.159.683-.284,1.392-.405,2.078l-.023.125c-.151.855-.308,1.742-.529,2.606l-.187.726c-.387,1.51-.826,3.222-1.224,4.871-.184.771-.356,1.545-.527,2.321-.16.725-.32,1.451-.492,2.175-.241,1.002-.467,1.984-.598,2.988-.054.416-.149.823-.241,1.217-.1.429-.196.85-.242,1.259-.109.995-.286,2.059-.558,3.346-.1.473-.145.974-.188,1.458l-.013.133c-.024.272-.038.545-.051.818-.028.566-.056,1.136-.183,1.69-.051.226-.062.476-.07.697-.013.316-.026.64-.13.962-.11.335-.122.691-.136,1.069-.013.424-.028.85-.173,1.279-.005.03.017.137.032.2.013.061.027.122.036.182.011.073.024.147.038.221l.012.066c.02.114.04.227.058.342.073.498.143.994.211,1.489l.038.269-.007.031c-.043.196-.083.359-.124.519l-.03.12c-.097.387-.208.824-.257,1.244-.073.615-.109,1.249-.144,1.864l-.003.052c-.016.304-.034.607-.055.912-.007.091-.023.186-.04.28l-.118.724c-.075.465-.148.906-.208,1.35-.027.194-.043.39-.059.586l-.005.07c-.035.402-.067.8-.163,1.19-.156.648-.198,1.334-.239,1.996l-.007.101c-.017.282-.036.566-.065.849-.081.828-.032,1.689.144,2.557.065.317.082.635.1.941l-.171.023H.11l.172-.009v.003Zm216.554-24.492c.008-.054.017-.106.03-.16.013-.07.023-.122.027-.173.016-.268.03-.538.044-.81l.013-.272c.038-.76.077-1.545.149-2.325.063-.707.192-1.413.317-2.097l.05-.268c.226-1.233.502-2.536,1.169-3.713.418-.738.874-1.384,1.356-1.919.149-.164.296-.331.442-.498.741-.841,1.506-1.711,2.503-2.374.998-.663,2.144-1.144,3.506-1.47.601-.145,1.19-.187,1.888-.204.27-.008.545-.036.849-.069.34-.038.686-.075,1.037-.075l.056.003c.476.001.971.039,1.45.075.37.028.74.056,1.111.07.307.003.628,0,.941-.007.52-.016,1.114-.035,1.701.061.495.081,1.013.085,1.513.089.545.004,1.079.008,1.607.091.863.132,1.751.124,2.625.116h.208c.67-.003,1.358-.007,2.04.065.828.087,1.699.097,2.465.106h.063c.742.011,1.509.023,2.265.093.418.039.847.055,1.263.07.511.019,1.058.039,1.59.101.925.108,1.872.176,2.788.241l.331.023c.512.036,1.023.073,1.534.116.674.058,1.35.105,2.025.151.917.065,1.935.134,2.92.235,1.584.159,3.189.005,4.797.164,2.586.253,5.209.199,7.74.148l.39-.007c.52-.011,1.041-.02,1.56-.027h.069c1.252-.017,2.671-.038,4.045-.179.346-.036.694-.048,1.03-.061.481-.016.96-.032,1.415-.114.597-.105,1.214-.172,1.758-.23.605-.066,1.232-.133,1.842-.249.449-.086.923-.153,1.303-.207.43-.062.92-.132,1.385-.223l.054-.011c2.257-.448,4.587-.909,6.798-1.978l.629-.304-.206.931c-.028.132-.052.242-.079.352l-.215.886c-.191.788-.383,1.577-.589,2.362l-.139.538c-.191.748-.387,1.521-.67,2.261-.524,1.381-1.532,2.473-3.08,3.338-1.498.836-2.952,1.407-4.446,1.743-.596.133-1.206.215-1.797.295-.36.048-.685.093-1.006.143-.57.093-1.142.191-1.713.29l-1.495.257c-.389.066-.777.133-1.169.194-.221.036-.442.066-.666.094l-.095.013c-.196.026-.391.051-.586.083-.453.073-.905.152-1.357.231l-.693.12c-.036.005-.067.008-.098.009l-.983.059c-.787.048-1.572.097-2.359.137-.433.023-.866.035-1.3.047-.913.026-1.834.052-2.717.179-.733.105-1.462.118-2.167.13-.246.004-.483.008-.719.015-.627.02-1.264.062-1.881.102-1.177.075-2.357.151-3.537.095-.424.117-.846.122-1.255.128l-.245.003c-.378.003-.703.004-1.019.078-.48.112-.953.114-1.412.117-.551.004-1.062.008-1.543.188-.139.051-.276.047-.39.038-.031-.004-.062-.005-.086-.004-.847.02-1.693.031-2.539.04-1.894.023-3.813.047-5.686.186-2.051.151-4.188.141-6.081.129-1.407-.008-2.784-.012-4.127.03-.312.011-.635.047-.947.083-.292.034-.58.067-.866.082-.243.013-.487.008-.721,0-.407-.012-.763-.023-1.099.034-.527.087-1.06.14-1.575.191-.518.051-.968.098-1.416.167l-.422.065c-2.183.334-4.425.676-6.568,1.248-1.358.362-2.967.866-4.599,1.868l-.616.378.282-1.946ZM145.604,9.581c.277-.233.553-.467.826-.701l.046-.038c.641-.547,1.284-1.095,1.938-1.606.64-.499,1.295-.967,2.023-1.482l.799-.572c1.194-.859,2.573-1.224,3.904-1.577l.046-.012c1.175-.313,2.372-.499,3.53-.679l.502-.079c.218-.035.433-.097.662-.163.192-.055.412-.118.637-.161.186-.036.367-.03.531-.022l.094.004c.039.001.078.004.113.004h.151l.346.39c.147.171.288.334.438.485.319.324.641.643.966.963l.039.039c.539.531,1.096,1.083,1.625,1.647,1.174,1.253,2.302,2.535,3.154,3.511,1.13,1.292,2.258,2.614,3.353,3.931.8.959,1.588,1.934,2.461,3.016l1.541,1.906c.742.912,1.509,1.856,2.239,2.804.43.557.835,1.14,1.226,1.705l.093.132c.215.311.43.621.651.928.359.5.741.992,1.099,1.451.703.898,1.31,1.943,1.912,3.289.073.16.169.316.272.481.187.297.385.612.473.987l.036.069c.034.066.102.204-.001.364l-.102.164-.394-.016-.071-.116-.083-.04-.008-.065c-.76-.502-1.6-.945-2.345-1.339l-.077-.04c-.346-.184-.691-.367-1.033-.557-.807-.449-1.61-.908-2.413-1.366l-.44-.251c-.524-.3-1.049-.598-1.576-.894-1.333-.75-2.441-1.365-3.487-1.931-.71-.386-1.423-.767-2.136-1.147l-.079-.043c-1.087-.58-2.21-1.179-3.304-1.789-.919-.512-1.824-1.056-2.698-1.582-.433-.261-.867-.52-1.302-.779l-1.439-.846c-.434-.256-.869-.511-1.3-.769-.547-.327-1.093-.655-1.639-.983l-.315-.19c-.44-.265-.88-.531-1.321-.793l-.239-.143c-.456-.272-.927-.553-1.4-.802l-.853-.448c-1.587-.835-3.228-1.697-4.855-2.512-.608-.303-1.274-.573-1.861-.811-.29-.118-.58-.237-.867-.358l-.508-.217.424-.355Zm-2.973,26.782v-.007c.004-.047.008-.094.008-.14l-.004-1.705c-.005-1.329-.011-2.704.019-4.069.016-.8.085-1.625.144-2.352l.02-.242c.019-.242.039-.485.055-.728.013-.186.019-.374.024-.563.013-.471.028-.952.156-1.409.132-.473.14-.955.149-1.465.009-.472.019-1.006.148-1.528.125-.511.091-1.097.058-1.665-.009-.157-.019-.313-.024-.467-.079-1.939.254-3.879,1.017-5.925l.506-1.38,4.42,2.583c.202.118.402.239.601.362.316.192.674.41,1.031.602.691.374,1.387.741,2.083,1.108.936.494,2.102,1.108,3.201,1.716,1.634.904,3.245,1.852,4.887,2.824.765.452,1.522.917,2.281,1.381.689.424,1.378.845,2.072,1.259,1.733,1.031,3.528,2.084,5.487,3.218.221.128.469.242.705.347l.05.023c.18.083.36.165.535.258.347.182.694.367,1.04.554l.171.091c.557.301,1.112.6,1.676.888.363.184.733.356,1.103.529l.04.019c.407.188.87.402,1.313.635.604.313,1.201.639,1.798.967.624.34,1.245.68,1.876,1.006.346.18.713.324,1.101.476.194.075.378.147.563.225l.208.085.004,1.006c.005.633.011,1.288-.016,1.935-.013.343-.104.671-.19.987l-.062.233c-.272,1.033-.428,1.892-.491,2.704-.059.765-.19,1.565-.389,2.379-.225.931-.391,1.863-.558,2.816-.233,1.342-.34,2.762-.348,4.609-.003.92-.054,1.841-.104,2.731-.067,1.232-.137,2.489-.085,3.724v.027s-.005.051-.005.051c-.13.485-.129.987-.128,1.474.001.446.003.908-.087,1.365-.091.461-.113.943-.134,1.409-.022.526-.044,1.056-.157,1.594-.104.499-.082,1.029-.058,1.59.012.293.027.625.017.951l-.03,1.045c-.036,1.326-.074,2.696-.183,4.045-.038.459-.089.917-.139,1.374l-.012.11c-.09.82-.179,1.627-.206,2.418-.011.354-.083.69-.159,1.046l-.019.09c-.027.132-.055.266-.079.406l-.069.389-.374-.126c-.109-.036-.219-.078-.328-.121-.222-.083-.449-.171-.667-.21-2.776-.496-5.153-1.863-7.114-3.133-2.485-1.612-4.989-3.163-7.549-4.742-1.134-.701-2.308-1.389-3.441-2.055l-.422-.247c-.796-.467-1.592-.933-2.383-1.409-1.05-.633-2.109-1.291-3.138-1.93l-1.588-.987c-2.037-1.263-4.075-2.526-6.108-3.794-.52-.327-1.033-.66-1.553-.999l-.838-.543-.008-.173c-.019-.381-.03-.765-.04-1.151l-.004-.141c-.026-.968-.052-1.945-.182-2.886-.156-1.123-.145-2.254-.134-3.346v-.044c.008-.715.016-1.454-.023-2.181-.015-.266-.027-.53-.038-.796-.032-.749-.066-1.49-.169-2.197-.07-.492-.12-.979-.172-1.521-.063-.621-.124-1.236-.223-1.824-.074-.428-.078-.853-.082-1.265-.007-.589-.012-1.143-.208-1.668-.067-.184-.055-.374-.046-.527Zm-17.612-5.015c.26.02.512.09.736.153l.07.019c.093.024.19.05.29.075l.273.062-.013.282c-.016.34-.036.683-.058,1.029-.044.738-.098,1.615-.102,2.454,0,.249-.004.499-.009.749-.016.92-.032,1.861.144,2.776.159.822.21,1.651.264,2.53.024.393.05.796.085,1.214l.003.038-.035.133c-.067.13-.079.198-.081.229-.047.651-.081,1.304-.113,1.955l-.026.483.307.196v.184c0,.253.013.507.027.76.03.613.059,1.225-.07,1.817-.077.354-.081.737-.085,1.105-.005.586-.011,1.159-.235,1.725.003.058.004.09,0,.121-.169,2.415-.343,4.898-.144,7.348.113,1.388.116,2.788.118,4.142.001.632.003,1.26.013,1.891.008.385-.039.765-.085,1.134-.039.303-.07.553-.082.802-.026.534-.028,1.118-.007,1.833.013.433.005.865-.004,1.304-.019.949-.038,1.931.188,2.878l.052.214-.175.134c-.348.266-.729.397-1.162.397-.186,0-.362-.023-.494-.043-.139-.022-.274-.051-.412-.081l-.055-.012c-.11-.023-.221-.047-.332-.065-.363-.059-.793-.128-1.245-.18-.113-.013-.227-.019-.34-.026-.289-.016-.585-.032-.905-.141-.256-.087-.55-.109-.862-.13-.172-.011-.346-.024-.514-.047-1.405-.188-2.777-.562-4.103-.923l-.168-.047c-.601-.163-1.206-.32-1.81-.477-1.245-.324-2.526-.658-3.77-1.048-.886-.278-1.774-.541-2.663-.804l-.058-.017c-1.403-.416-2.851-.846-4.264-1.33-1.584-.545-3.269-.917-4.899-1.276l-.48-.106c-2.24-.498-4.024-.955-5.615-1.439-.885-.268-1.813-.475-2.711-.674l-.12-.026c-.366-.081-.732-.163-1.096-.247-1.982-.465-4.108-.98-6.219-1.604-.909-.268-1.853-.491-2.765-.706l-.044-.009c-.401-.093-.802-.188-1.201-.286-.231-.058-.464-.11-.722-.169l-.67-.155.003-.538c.005-.203.009-.399-.007-.588-.026-.331-.061-.662-.095-.991-.031-.288-.061-.555-.083-.824-.019-.207-.026-.412-.031-.617-.012-.374-.023-.719-.105-1.068-.155-.659-.184-1.356-.21-1.972-.008-.182-.016-.363-.027-.545-.028-.463-.044-.927-.061-1.389-.03-.812-.059-1.646-.151-2.461-.048-.441-.093-.882-.137-1.323-.071-.722-.143-1.426-.234-2.118-.027-.202-.051-.402-.075-.605-.109-.905-.219-1.832-.59-2.655l-.047-.106.028-.112c.016-.073.038-.148.061-.221.036-.124.069-.233.069-.319.008-3.248.009-6.497.009-9.746v-2.165c-.253-1.424-.219-2.917-.187-4.36v-.004c.011-.456.022-.91.023-1.365.001-.71.065-1.404.13-2.137l.013-.147c.027-.307.055-.617.078-.935l.023-.313h.315c.024,0,.05-.003.075-.004.143-.011.278-.02.426.017.654.165,1.306.334,1.957.503l.073.019c1.135.295,2.31.6,3.47.871.724.171,1.443.355,2.162.541l.062.016c1.19.305,2.419.62,3.642.855.882.169,1.767.386,2.622.596l.106.027c.558.139,1.116.274,1.676.402.424.095.858.175,1.282.253l.087.016c.312.056.623.113.932.176.577.114,1.151.235,1.727.356l.387.081c.387.082.775.163,1.162.242.329.067.662.132.994.196l2.479.496c.702.147,1.405.29,2.109.425.543.102,1.092.191,1.641.278l2.318.391c.555.097,1.109.194,1.665.285.529.087,1.038.159,1.516.212.407.046.816.085,1.225.122l.054.004c.777.074,1.58.151,2.368.277.414.065.842.105,1.255.144.581.054,1.17.11,1.747.233.616.132,1.255.229,1.873.321l.02.178.026-.171c.927.14,1.887.285,2.819.551.499.143.983.204,1.42.186.538-.04.984.102,1.43.227.336.094.633.179.935.2Zm-50.254-12.694c.031-.067.066-.141.108-.207.229-.363.459-.728.69-1.093l.109-.171c.438-.693.889-1.405,1.317-2.115.385-.635.746-1.3,1.096-1.946.713-1.313,1.442-2.653,2.391-3.853.208-.262.422-.52.643-.788l.675-.819.851.494c.444.258.882.52,1.322.783,1.251.75,2.535,1.52,3.877,2.111,1.052.464,2.11.916,3.167,1.368l.246.105c.632.27,1.263.541,1.894.815.75.325,1.428.632,2.071.939,2.807,1.341,5.613,2.682,8.416,4.033.547.264,1.092.537,1.635.811.648.324,1.296.65,1.95.959.628.3,1.278.586,1.85.839l.161.071c.428.19.854.378,1.279.574.806.373,1.608.752,2.413,1.132l1.518.717c.176.082.352.16.53.238l.069.03c.35.153.713.311,1.062.498.706.378,1.404.771,2.103,1.163l.136.075c.391.221.783.441,1.175.659.535.296,1.07.589,1.645.901l2.015,1.1-1.341-.008c-.186.001-.385.005-.568.013-.176.005-.334.011-.491.011-.286,0-.664-.016-1.057-.14-.241-.075-.507-.087-.788-.101-.304-.013-.604-.026-.914-.108-.432-.113-.889-.139-1.374-.164-.253-.013-.506-.027-.756-.054-.179-.019-.358-.05-.537-.079l-.094-.016c-.178-.031-.354-.061-.533-.078l-.217-.02c-.307-.026-.655-.055-1.007-.144-.381-.095-.78-.124-1.204-.152-.253-.017-.503-.036-.753-.069-.457-.056-.914-.132-1.373-.207l-.611-.1c-.179-.028-.36-.058-.542-.089l-.109-.017c-.288-.048-.576-.095-.863-.133-.866-.11-1.732-.269-2.571-.421-.553-.102-1.092-.2-1.634-.288-.787-.125-1.603-.288-2.259-.418l-.069-.015c-.668-.132-1.36-.269-2.04-.381-.658-.108-1.31-.27-1.941-.428l-.003-.177s0,0,0,0l-.042.166c-.647-.16-1.317-.327-1.978-.428-1.144-.176-2.263-.409-3.224-.613-.504-.108-1.011-.212-1.518-.316-1.388-.285-2.823-.58-4.225-.943-.991-.26-2.019-.449-3.012-.632-.586-.108-1.173-.217-1.755-.339-.577-.12-1.157-.262-1.717-.401l-.101-.024c-.304-.075-.608-.149-.912-.221-.706-.165-1.409-.329-2.119-.494l-1.836-.426-.426-.758.1-.212ZM3.068,129.432c.034-1.001.147-1.963.336-2.859.081-.385.114-.795.145-1.192.02-.23.039-.459.065-.686.05-.406.106-.811.165-1.231l.163-1.175,1.821,1.265c1.354.941,2.961,1.369,4.515,1.783l.588.159c.861.237,1.638.446,2.44.621.519.116,1.053.212,1.571.307l.066.012c.313.056.628.113.939.173.577.112,1.192.169,1.735.221.753.071,1.512.144,2.255.329l.022-.004,1.334.081c.601.038,1.201.074,1.802.117.281.02.559.051.839.081l.073.007c.328.034.664.069.995.086.218.012.453.003.682-.005.43-.022.881-.038,1.321.056.543.116,1.112.12,1.661.124h.163c.401-.003.754.001,1.07.023,3.743.245,7.596.207,10.998.178l.542-.004c.537-.004,1.073-.009,1.611-.011.937-.005,1.898-.066,2.826-.124.52-.034,1.006-.065,1.491-.087.183-.009.37-.013.557-.017.534-.012,1.08-.024,1.557-.153.417-.112.838-.114,1.209-.117.455-.004.884-.008,1.27-.183.079-.034.156-.042.233-.032l.875-.061c.678-.043,1.357-.087,2.032-.141.242-.019.483-.05.725-.082l.074-.009c.245-.032.491-.063.738-.086.155-.016.327-.015.538-.008.347.009.627.013.877-.121.104-.056.198-.052.27-.052l.052.003c.436-.022.87-.035,1.304-.048.878-.027,1.873-.056,2.821-.168,1.026-.121,2.064-.122,3.068-.125h.237c.892.008,1.911.008,2.895-.086,1.026-.098,2.058-.102,3.055-.106h.046c.721-.003,1.46-.005,2.184-.042,4.247-.212,8.583-.19,12.406-.173h.106c2.846.011,5.784.022,8.673-.043l.784-.016c1.097-.019,2.23-.038,3.327-.176.663-.083,1.341-.095,1.939-.108h.083c.377-.011.75-.019,1.126-.043.284-.019.565-.048.847-.081.319-.035.65-.071.978-.089.208-.012.414-.004.612.001l.102.004c.383.02.697.028.995-.038.436-.094.877-.097,1.264-.1.402-.004.767-.008,1.108-.087.629-.148,1.276-.156,1.846-.164.555-.008,1.105-.016,1.629-.129.51-.112,1.045-.087,1.522-.067.335.017.689.03,1.023-.001,1.426-.132,2.914-.132,4.228-.132,1.2-.001,2.44-.003,3.646-.089.971-.07,1.958-.074,2.912-.078l.752-.004c1.048-.003,2.129-.005,3.182-.087.818-.063,1.655-.073,2.394-.082.866-.011,1.846-.022,2.769-.118.827-.087,1.658-.098,2.461-.109.516-.005,1.019-.012,1.524-.036.42-.02.839-.044,1.259-.069.763-.044,1.508-.086,2.243-.108.459-.013.913-.003,1.307.009.652.02,1.396.04,2.099-.051.734-.097,1.473-.098,2.187-.101.65-.001,1.321-.003,1.967-.078.589-.067,1.181-.081,1.752-.093.582-.011,1.228-.024,1.83-.104.461-.062.927-.071,1.337-.081.469-.011.896-.02,1.318-.083.937-.14,1.888-.136,2.71-.134.706.009,1.454.003,2.193-.075,1.493-.155,2.618-.187,3.655-.112,2.765.204,5.59.176,8.321.151l.417-.004c1.236-.011,2.511-.022,3.767-.007,2.714.03,5.483.024,8.162.017h.476c1.276-.005,2.551-.008,3.826-.008h4.642c2.64,0,5.28,0,7.918-.012,1.228-.007,2.253-.042,3.261-.19,2.021-.299,3.895-.806,5.569-1.504.459-.192.931-.417,1.346-.616.26-.126.522-.251.785-.371.102-.048.2-.058.273-.065l.41-.062.038.352c.027.254.058.504.089.752.071.582.144,1.166.163,1.747.026.698-.086,1.382-.194,2.045-.051.315-.1.607-.136.9-.095.76-.243,1.657-.613,2.54l-.055.132c-.257.611-.516,1.225-.866,1.789-.562.908-1.205,1.855-1.966,2.89-.771,1.048-1.837,1.697-2.68,2.146-.917.49-2.02,1.029-3.25,1.323-.806.192-1.615.363-2.513.55l-.498.105c-1.12.235-2.242.465-3.366.691l-.202.042c-.385.078-.776.157-1.175.192-.464.043-.931.073-1.396.101-.483.03-.963.059-1.443.104-.589.056-1.193.083-1.725.108h-.043c-.598.03-1.216.058-1.811.121-.453.05-.906.059-1.345.069-.508.011-1.011.022-1.491.087-1.186.163-2.364.161-3.669.137h-.165c-.936-.011-1.904-.02-2.839.067-1.428.136-2.913.12-4.209.109h-.124c-1.193-.004-2.433-.016-3.636.075-1.151.089-2.314.09-3.439.091h-.052c-1.196,0-2.43,0-3.632.106-1.24.106-2.489.097-3.692.094h-.169c-1.073-.008-2.188-.008-3.269.078-.806.063-1.63.073-2.357.082-.901.011-1.821.022-2.71.117-.824.087-1.65.097-2.448.106h-.106c-.5.008-1.018.013-1.522.042-4.063.222-8.19.192-12.171.169h-.148c-3.56-.031-6.767-.046-9.981.063-2.597.089-5.297.097-7.68.105-1.182.004-2.366.009-3.55.02-3.491.038-7.048.017-10.491-.005l-.775-.005c-.581-.003-1.189-.046-1.677-.081l-.085-.007c-.395-.027-.791-.055-1.186-.067-.311-.008-.632-.003-.949.001l-.141.003c-.594.013-1.208.028-1.821-.046-2.737-.324-5.506-.243-8.091-.108-2.444.13-4.929.116-7.327.102h-.048c-2.103-.012-4.493-.027-6.826.077-.746.034-1.502.042-2.234.05h-.083c-1.148.013-2.336.027-3.487.141-.663.066-1.327.07-1.972.074h-.044c-.664.003-1.417.005-2.126.09-.828.1-1.662.104-2.468.108-.745.004-1.508.008-2.242.087-1.673.182-3.365.159-4.999.147h-.081c-1.052-.015-2.082-.026-3.099.009-.581.02-1.163.034-1.744.047-1.331.03-2.709.061-4.057.176-.373.031-.741.043-1.147.055-.553.016-1.124.032-1.67.121-.543.089-1.084.094-1.606.1-.514.005-.975.011-1.43.081-.795.124-1.575.125-2.333.116h-.109c-.612-.013-1.278-.001-1.898.081-1.041.132-2.083.122-3.092.114h-.05c-.792-.008-1.778-.017-2.694.071-1.091.108-2.211.161-3.33.161-.515,0-1.058-.012-1.615-.038-.598-.027-1.201-.047-1.801-.066l-.104-.004c-.951-.032-1.934-.066-2.899-.128-.253-.016-.507-.03-.76-.042-.566-.028-1.15-.058-1.732-.13-.834-.105-1.669-.184-2.596-.269l-1.127-.106c-1.21-.121-2.458-.331-3.71-.624-1.107-.26-2.278-.617-3.483-1.066-1.041-.386-1.916-.912-2.602-1.561-.807-.767-1.368-1.809-1.666-3.096-.137-.588-.222-1.192-.304-1.775l-.007-.044c-.039-.285-.077-.546-.117-.804-.173-1.079-.165-2.123-.136-3.003Z" stroke-width="0"/>
      <path d="m187.729,85.4c-.382.581-.775,1.179-.986,1.842-.081.251-.237.498-.429.676l-.481.453c-.648.611-1.381,1.303-2.133,1.924-.703.578-1.442,1.134-2.156,1.669l-.066.05c-.329.246-.659.492-.984.742l-.346.262-.171-.398c-.052-.098-.11-.203-.1-.338.1-1.335-.424-2.534-.968-3.647-.086-.176-.176-.352-.268-.527-.169-.334-.346-.676-.5-1.031-.251-.578-.451-1.218-.206-1.99.095-.301.036-.699-.02-1.084l-.03-.208c-.055-.398-.171-.78-.295-1.186-.149-.481-.311-1.007-.358-1.559-.024-.293-.227-.57-.605-.824l-.611-.191c-.1.058-.229.128-.383.147-.42.048-.654.288-.896.658-.389.597-.652,1.276-.908,1.934l-.184.472c-.167.42-.219.912-.156,1.463.023.21.095.434.164.625.052.149.121.295.195.452.039.083.081.171.121.264l.323.724-.746-.269c-.858-.307-1.303-.382-1.544-.268-.176.083-.321.313-.487.769.075.586.401.979.865,1.384l.074.065c.975.851,1.982,1.731,3.186,2.247.855.368,1.635.912,2.383,1.661l.093.09.005.133c.059,1.186-.398,1.939-1.439,2.368-.666.277-1.329.605-1.97.923-.539.268-1.175.585-1.797.853-1.865.81-3.821,1.346-5.713,1.864l-.061.017c-1.46.401-2.994.763-4.347,1.084l-.559.133c-.834.196-1.595.35-2.329.467-.581.093-1.159.16-1.771.231-.278.032-.553.065-.834.1l-.811.098.503-.643c.1-.129.2-.254.299-.375l.042-.052c.223-.278.434-.541.625-.814.937-1.349,1.669-2.846,2.172-4.446.399-1.275,1.054-2.321,2.005-3.198.78-.721,1.548-1.451,2.316-2.184.403-.386.792-.757,1.182-1.126.383-.362.516-.69.436-1.089l-.382-.442h-.789c-2.002.849-4.244,2.001-5.748,4.106l-.29.41-.269-.426c-.212-.335-.453-1.169-.498-1.536-.024-.206-.046-.41-.067-.615l-.023-.217c-.079-.757-.156-1.504-.307-2.211-.108-.514-.367-.906-.711-1.08-.282-.139-.612-.128-.952.027-.264.122-.413.274-.499.506-.289.777-.586,1.6-.882,2.45-.387,1.109-.152,2.165.695,3.138.655.748,1.399,1.672,1.951,2.854l.044.091-.017.102c-.207,1.403-.816,2.733-1.384,3.848-.725,1.428-1.934,2.402-3.111,3.276l-.108.051c-.206.039-.36.066-.506.091l-.164.028c-.371.065-.689.121-1.007.163-.34.044-.682.083-1.025.122l-.149.016c-.65.073-1.321.147-1.981.257-.529.089-1.068.202-1.588.312l-.1.02c-.6.129-1.28.274-1.953.378-1.272.195-2.748.43-4.16.764-1.977.465-3.679,1.05-5.203,1.789-.526.257-1.041.546-1.584.853l-.14.078c-.225.126-.453.256-.693.386l-.811.444.335-.862c.121-.313.164-.647.207-.971.061-.469.121-.935.379-1.372.339-1.721,1.323-3.077,2.925-4.028.456-.273.908-.551,1.361-.832.32-.198.64-.395.962-.592.768-.467,1.549-1.041,2.391-1.756.533-.452,1.14-.987,1.604-1.645.19-.269.262-.542.211-.789-.051-.234-.217-.442-.479-.598-.071-.043-.164-.075-.27-.114l-.101-.036c-2.711,1.075-5.032,2.817-7.18,4.511l-.395.313-.339-1.2c-.16-.574-.316-1.128-.481-1.682-.059-.198-.133-.395-.207-.592-.141-.378-.286-.765-.339-1.179-.112-.863-.409-1.651-.82-2.569-.3-.672-.467-1.307-.508-1.938-.036-.53-.233-.8-.656-.902-.141-.034-.265-.086-.401-.145l-.023-.009-.923.358c-.04.079-.085.161-.128.242-.143.268-.281.524-.356.781-.276.917-.35,1.72-.235,2.523.148,1.031.467,1.865,1.001,2.621.229.323.455.65.675.98.619.919.695,1.946.771,2.938.07.912.031,1.75-.118,2.562-.14.775-.112,1.384.09,1.916.136.366.05.734-.026,1.06-.035.145-.07.295-.078.425-.083,1.372-.585,2.609-1.048,3.661-.611,1.38-1.444,2.523-2.551,3.494-.636.558-1.122,1.239-1.444,2.025-.043.562.023.845.261,1.07h.222c.055-.039.109-.079.161-.118l.086-.063c.262-.191.479-.348.715-.487,1.041-.607,2.172-.948,3.265-1.279.473-.143.933-.282,1.374-.437.816-.284,1.736-.484,2.897-.628.284-.035.566-.085.849-.137.519-.094,1.056-.191,1.618-.191h.036c.295,0,.553-.004.811-.008.52-.005,1.057-.012,1.591.007l.242.009c.75.028,1.525.058,2.278.218.939.199,1.953.386,3.193.588.524.083,1.054.011,1.563-.061l.069-.009c.207-.028.414-.056.623-.074.733-.062,1.483-.363,2.208-.655l.339-.136c.698-.276,1.417-.561,1.982-1.073.647-.588.765-1.127.412-1.857-.035-.071-.074-.139-.11-.2l-.051-.087c-.398-.313-.877-.379-1.51-.204-1.135.316-2.292.438-3.408.557l-.157.017c-.292.031-.584.063-.874.1-.389.047-.78.12-1.158.191-.261.047-.481.089-.706.125-.295.048-.586.106-.88.164l-.145.03c-.647.129-1.314.261-2.002.261-.061,0-.122,0-.186-.003-1.783-.035-3.528-.026-5.223.359-.767.173-1.586.343-2.577.53-.3.058-.601.097-.948.143l-1.841.257.995-.779c.157-.124.297-.238.428-.346.282-.231.51-.417.764-.573,2.145-1.327,4.536-2.328,7.309-3.062,1.271-.336,2.781-.718,4.336-.992.437-.077.873-.169,1.309-.262l.1-.02c.729-.156,1.483-.316,2.245-.414.433-.054.924-.114,1.377-.242.289-.079.551-.118.803-.118.311,0,.613.059.923.182.643.256,1.304.477,1.946.693l.116.039c.328.11.656.221.983.336l.203.071c.325.112.695.239,1.025.444,1.435.897,2.756,1.887,3.926,2.945,1.486,1.346,2.815,2.893,3.95,4.598.284.426.598.873,1.053,1.225.904.701,1.927,1.089,2.984,1.458.203.073.459.104.668.089.409-.031.683-.246.888-.698.13-.285.071-.496-.25-.9-.173-.219-.352-.389-.529-.506-.909-.615-1.611-1.409-2.128-2.047l-.067-.007-.059-.116c-.128-.109-.16-.262-.082-.409.012-.028.032-.058.056-.083l.079-.125.194.005c.083.004.153.031.211.083h.016c.132.009.269.017.412.048.226.048.452.102.678.157.75.178,1.521.354,2.27.32.422-.023.843-.055,1.264-.089.865-.069,1.842-.148,2.82-.101.221-.005.398-.09.494-.284.077-.153.186-.276.265-.364.04-.601-.191-.971-.767-1.228-.182-.082-.389-.16-.637-.237-.23-.071-.463-.136-.697-.2l-.11-.031c-.578-.16-1.158-.321-1.709-.55-.581-.241-1.209-.324-1.816-.406-.164-.022-.327-.044-.49-.069-.819-.126-1.642-.311-2.592-.582-.73-.207-1.412-.511-2.072-.804l-.1-.044c-.316-.139-.631-.278-.952-.405-1.006-.399-1.915-.897-2.877-1.424-.761-.417-1.544-.845-2.375-1.218l-1.021-.463,1.758-.286c2.355-.381,4.568-.74,6.716-1.401l.094-.031.097.028c.265.073.535.149.803.226l.058.016c.563.16,1.146.325,1.72.46,2.181.516,4.18,1.317,5.94,2.379,1.811,1.095,3.762,1.966,5.648,2.809l.07.031c.085.039.19.058.3.078.042.007.074.012.102.017l.461-.134.237-.644c-.03-.046-.058-.09-.085-.134l-.036-.056c-.113-.183-.218-.354-.346-.457-.679-.547-1.413-1.103-2.002-1.549-.323-.243-.644-.487-.964-.734-.132-.1-.26-.21-.386-.319l-.047-.042-1.163-.102.652-.534c.104-.087.356-.295.623-.194.066.024.149.073.217.172.133.007.269.016.407.059.952.312,1.768.846,2.557,1.364l.124.081c.109.071.218.143.328.212,1.143.733,2.275,1.417,3.552,1.727l.182.044c.315.078.619.153.902.163.339.012.671.082.964.145.55.116.974.207,1.296-.009.572-.329.709-.697.785-1.019-.124-.721-.496-1.228-1.205-1.639-.077-.043-.128-.102-.156-.134-.206-.141-.412-.288-.616-.434l-.062-.044c-.619-.445-1.253-.901-1.955-1.15-1.986-.706-3.993-1.365-5.963-1.959-.713-.215-1.534-.362-2.512-.446-.604-.054-1.256-.133-1.931-.348l-1.001-.324,1.001-.32c2.219-.719,4.156-1.61,5.919-2.721l.191-.121.184.129c.49.348.959.262,1.555.008.492-.208.884-.167,1.354-.034,1.779.506,3.482,1.415,5.519,2.945,1.33.999,2.641,1.747,4.008,2.285.687.269,1.26.37,1.83-.016l.211-.398c.086-.452-.009-.839-.307-1.249-.563-.78-1.196-1.653-2.012-2.259-1.518-1.127-3.217-1.961-4.679-2.629l-1.63-.74,1.789.095c.397.019.804.011,1.196.003h.093c.702-.019,1.499-.044,2.316.116,1.655.327,3.074.822,4.336,1.514.94.515,1.829,1.142,2.688,1.748l.085.059c1.171.824,2.466,1.337,3.852,1.524.561.075,1.154.063,1.729.055h.046c.394-.011.784-.017,1.165-.001.031.001.062.001.093.001.777,0,1.279-.335,1.53-1.022.125-.882-.165-1.45-1.013-1.923-.266-.151-.518-.317-.761-.479-.136-.091-.27-.182-.406-.268-1.51-.962-2.737-1.561-3.977-1.945l-.881-.269c-.682-.206-1.374-.414-2.048-.643-2.192-.737-4.751-1.525-7.398-1.559-.141-.001-.269-.036-.381-.066-.069-.019-.129-.036-.19-.044-.048-.007-.101-.015-.155-.024-.108-.019-.262-.046-.323-.027-.586.204-1.171.187-1.676.176l-.387-.004c-.063.048-.129.065-.186.065l-.136.075-.12-.173-.212-.134.066-.109-.082-.151.324-.204.963-1.115.126-.016c.726-.102,1.272-.368,1.669-.811.343-.386.674-.802.994-1.202l.273-.344c.117-.148.231-.296.344-.445.374-.495.761-1.006,1.294-1.411.269-.206.543-.403.82-.602l2.994-2.189,1.157.824c.13.004.258.007.383.009.563.009,1.136.019,1.707.179.566.16,1.154.288,1.723.413l.122.027c.406.09.814.179,1.216.281.313.079.624.169.935.258.732.208,1.455.414,2.171.483,1.095.106,2.165.102,3.181-.012.701-.075,1.124-.238,1.221-.841l-.004-.584-.892-1.105,1.118-.004c.273-.005.539-.009.807.009.176.013.347.046.52.079.145.03.264.052.382.065.746.077,1.522-.093,2.266-.261.29-.066.584-.133.877-.186.537-.094,1.077-.281,1.582-.468.405-.148.675-.429.741-.771.067-.34-.074-.699-.387-.987-.265-.241-.602-.359-1.03-.36-.043.004-.089.004-.14.003h-.07c-.221.003-.455.007-.691-.036-1.068-.207-2.636-.152-3.716-.004-.823.114-1.662.106-2.419-.024-.222-.039-.46-.059-.651-.075-.171-.016-.34-.031-.51-.054-.217-.028-.433-.063-.65-.1-.173-.03-.346-.056-.52-.082-.413-.058-.827-.112-1.241-.165l-2.269-.297,1.82-.422c1.144-.265,2.177-.488,3.23-.512,1.474-.039,2.707-.121,3.938-.399.612-.14,1.222-.29,1.833-.441l.346-.086c1.436-.358,1.646-.826,1.512-2.036l-.346-.481c-.674-.446-1.409-.623-2.23-.553-.2.019-.399.046-.6.074-.375.052-.713.095-1.061.1-1.023.013-2.054.217-2.977.588-1.984.797-3.973,1.689-5.896,2.551l-1.467.659c-2.309,1.031-4.408,2.583-6.259,3.952l-.621.461.082-.768c.004-.039.005-.073.007-.102.003-.097.007-.204.065-.319.651-1.275,1.374-2.69,2.22-4.001.628-.975,1.167-2.023,1.688-3.037.219-.429.43-.841.646-1.243-.001-.144.001-.286.007-.425.015-.52.026-.933-.29-1.276l-.709-.366h-.78c-.106.086-.217.173-.329.262-.346.274-.714.568-1.068.874-.348.299-.685.611-1.021.924l-.352.339-.016.082-.086.043-.087.173-.297-.074-.328-.155.091-.225c.011-.075.043-.139.098-.19l.011-.055c.032-.172.058-.309.093-.442.071-.268.156-.534.245-.797.329-.992.589-2.062.818-3.366.14-.797-.017-1.286-.543-1.674l-.617-.12-.664.148c-.066.082-.134.165-.204.251-.223.269-.44.534-.637.812-1.393,1.953-2.162,3.947-2.351,6.099l-.016.195c-.036.433-.073.882-.199,1.307-.074.258-.091.524-.106.76-.009.122-.017.238-.03.352-.017.165-.05.328-.081.491-.051.253-.087.445-.083.636.009.334-.001.675-.012.978-.026.717-.048,1.395.14,2.064.087.309.083.659-.007.936-.124.367-.129.748-.136,1.151-.001.101-.003.202-.007.303-.005.159-.05.3-.09.424l-.032.1c-.221.717-.558,1.42-1.096,2.277-.112.179-.229.356-.344.533Z" stroke-width="0"/>
      <path d="m180.337,161.333c.317-.028.647-.058.952-.124,1.248-.268,2.536-.573,3.671-.843l1.934-.455c.936-.218,1.997-.464,3.018-.729.434-.112.875-.256,1.302-.393l.11-.036c.243-.079.487-.159.732-.233.101-.031.208-.051.316-.069.122-.022.239-.042.313-.083.504-.285,1.034-.488,1.545-.683.405-.153.816-.309,1.198-.5.225-.112.455-.217.685-.321.414-.187.842-.381,1.231-.624.643-.399,1.087-.94,1.284-1.564.305-.956-.034-1.829-.842-2.175-.301-.129-.651-.245-1.066-.355-1.108-.292-1.942-.373-2.7-.257l-.452.067c-.862.129-1.75.264-2.651.264-.077,0-.152-.001-.227-.004-.979-.024-1.958-.066-2.937-.108l-.375-.016c-1.369-.059-2.768-.061-4.119-.062h-.093c-1.863,0-3.788,0-5.714-.149-.882-.07-1.848-.028-2.957.126-.558.077-1.135.074-1.603.074h-.098c-.557.003-1.132.005-1.684.109-.425.081-.863.09-1.249.1-.379.009-.767.019-1.131.085-.464.082-.943.095-1.365.109-.348.011-.744.024-1.119.075-.584.082-1.173.069-1.743.058-.328-.008-.658-.012-.987-.003-.389.015-.777.044-1.166.074-.495.036-.998.074-1.498.079-.905.013-1.809.009-2.717.007h-.565c-.851,0-1.72-.001-2.578.013-1.283.02-2.61-.04-3.924.134-.635.085-1.299.102-1.885.118-.573.016-1.147.032-1.704.098-.495.059-.998.082-1.485.105l-.066-.169h0s.008.172.008.172c-.549.026-1.116.054-1.658.13-.273.039-.546.065-.819.09-.242.023-.484.046-.725.078-.73.101-1.473.222-2.191.34l-1.212.194c-.278.044-.559.083-.839.121-.57.078-1.124.153-1.651.272-.481.108-.893.18-1.335.182-.13,0-.257.015-.378.043l-.276.066c-.553.134-1.115.272-1.713.272-.046-.001-.066.001-.094-.003-.071.001-.182.028-.299.055l-.122.03c-.282.066-.563.137-.846.208-.554.141-1.183.301-1.811.413-1.781.316-3.421.888-4.793,1.407-1.251.473-2.045,1.185-2.497,2.239l-.136,1.61-.094.089c-.056.066-.147.172-.3.198-1.093.21-2.195.418-3.294.617l-.165.03c-.351.063-.749.136-1.147.144-.769.019-1.54.023-2.309.027-1.701.009-3.45.019-5.157.187-.258.026-.52.036-.781.048l-.063.003c-.518.022-1.007.04-1.477.157-.569.141-1.135.157-1.682.172-.477.011-1.01.024-1.505.14-.448.105-.92.122-1.337.139-.359.013-.767.03-1.13.104-.274.058-.543.07-.803.082-.342.015-.629.027-.884.108-.315.1-.615.114-.878.128-.118.007-.239.012-.36.027-.183.022-.366.051-.547.081-.239.039-.479.077-.719.1-.3.03-.602.047-.905.065-.526.03-1.044.059-1.532.149-.717.132-1.442.172-2.142.211-.549.03-1.084.058-1.608.124-.52.066-1.046.074-1.563.02-.161-.004-.303.019-.477.051-.304.061-.646.124-.997-.008-.455.164-.921.148-1.327.134l-.089-.003c-.128-.004-.257-.008-.383-.003l-.359.016c-.432.022-.85.039-1.268-.008-.143-.015-.311.011-.515.048-.285.052-.602.108-.941.004-.465.173-.939.155-1.326.139-.235-.011-.446-.019-.651.004l-.468.051c-.503.056-.995.112-1.49.12-.979.019-2.121.05-3.288.175-.403.044-.795.003-1.178-.038-.149-.016-.261-.028-.373-.036l-.211-.017c-.364-.031-.741-.062-1.109-.161-1.276-.346-2.663-.562-4.24-.66-.04-.003-.085-.003-.128,0h-.05c-.116,0-.227.001-.356-.036-.695-.202-1.443-.245-2.165-.286l-.378-.023c-.184-.012-.37-.017-.553-.017-.698,0-1.376.075-1.947.149-1.436.186-2.777.629-3.983,1.319-.924.53-1.739,1.288-2.421,2.255-.888,1.255-.971,2.739-.265,4.672.303.828.815,1.608,1.228,2.195.74,1.053,1.713,1.822,2.894,2.289,1.98.781,4.005,1.58,6.106,2.149,1.036.281,2.259.577,3.491.632,2.82.121,5.683.069,8.752-.161.032-.004.074-.001.112.001.455-.226.931-.23,1.392-.234.299-.001.598-.003.875-.071.526-.129,1.066-.147,1.59-.163.313-.009.623-.019.919-.051.625-.067,1.247-.147,1.869-.226.508-.065.995-.126,1.482-.183.147-.017.289-.044.434-.073.188-.038.37-.074.553-.091.282-.03.568-.04.855-.051.559-.023,1.07-.043,1.537-.184.607-.182,1.212-.243,1.795-.303.488-.05.984-.101,1.45-.219l.145-.039c.203-.054.395-.105.6-.132.539-.066,1.079-.129,1.618-.191l.321-.038c.472-.056.943-.112,1.415-.171.074-.009.151-.035.231-.061.153-.05.323-.105.51-.106,1.057-.012,2.076-.183,3.203-.389.299-.055.602-.081.913-.104.331-.026.619-.048.894-.105.812-.167,1.556-.285,2.274-.363.358-.039.725-.112,1.081-.182.534-.106,1.138-.227,1.75-.227.028-.015.059-.027.09-.034.192-.046.382-.093.573-.141.453-.114.923-.233,1.399-.303.516-.074,1.04-.113,1.545-.149l.052-.004c.265-.019.53-.038.795-.061.1-.009.199-.031.299-.052l.672-.134c.32-.065.641-.128.963-.183.278-.046.555-.086.832-.126.531-.077,1.021-.151,1.486-.25l.425-.094c.659-.148,1.36-.299,2.084-.277.121,0,.212,0,.284-.016l.428-.101c.629-.147,1.196-.281,1.752-.433.297-.082.597-.155.897-.226,1.062-.254,2.04-.488,2.91-1.091.582-.402,1.062-.901,1.495-1.38l.102-.11h.149c.108,0,.215.007.327.013l.051.003c.199.012.386.022.538-.019.651-.168,1.304-.328,1.958-.487,1.054-.257,2.005-.49,2.941-.754.87-.246,1.764-.461,2.631-.67l.188-.044c.438-.105.877-.21,1.313-.321,1.984-.503,4.01-.855,5.971-1.196l.272-.047c.308-.052.62-.091.933-.129.515-.062,1.049-.126,1.541-.27.984-.284,1.994-.426,2.971-.563.728-.104,1.446-.204,2.137-.356.37-.079.745-.108,1.076-.133.226-.015.451-.031.674-.063.413-.058.834-.137,1.24-.214.647-.121,1.278-.239,1.912-.29.851-.067,1.705-.198,2.532-.324l.52-.078c.144-.02.285-.051.426-.081.187-.039.374-.078.562-.101.413-.05.826-.093,1.24-.134l.062-.007c.672-.07,1.369-.143,2.043-.249,1.22-.192,2.534-.371,3.874-.374.036,0,.074.001.109.004l.073.003c1.154-.217,2.27-.343,3.35-.375.051.003.062,0,.087.001.59-.29,1.249-.335,1.885-.378.406-.027.808-.054,1.178-.148.534-.134,1.097-.206,1.594-.269.323-.04.637-.081.947-.134.251-.044.506-.106.753-.167.273-.067.553-.137.841-.184.266-.044.534-.067.793-.09l.069.166h0l-.016-.17Zm-54.904,7.386l-.019.175-.176.095-.601.242c-.241.095-.475.19-.711.278-.605.227-1.232.339-1.838.446-.227.04-.455.082-.682.128-.467.098-.943.159-1.403.219-.823.106-1.631.212-2.379.487-.304.112-.612.125-.91.14-.147.007-.286.012-.425.031-.387.052-.78.134-1.161.212l-.062.013c-.358.073-.728.148-1.1.2-.071.012-.141.005-.215-.003l-1.256.335c-.51.137-1.036.278-1.559.402-1.299.304-2.582.589-3.811.845-.389.082-.8.141-1.131.188l-.098.015c-.192.028-.385.056-.576.089-.126.022-.249.05-.371.077l-.051.012c-.12.028-.243.056-.367.081-1.443.285-2.743.55-4.037.904-.36.101-.729.13-1.084.159-.235.017-.455.036-.671.07-.664.108-1.38.233-2.113.407-.763.186-1.403.299-2.013.358-.502.05-1.018.169-1.517.285-.222.051-.444.102-.667.148-.038.008-.073.019-.108.031-.078.024-.173.054-.282.063-.342.028-.683.054-1.025.079-.511.036-1.021.074-1.53.122-.321.031-.641.071-.962.113l-.071.009c-.35.044-.699.089-1.05.122-.26.026-.523.036-.784.046-.355.013-.71.027-1.044.079-.685.109-1.392.122-2.017.136-.499.009-1.064.022-1.596.083-1.1.126-2.191.133-3.245.14-.348.001-.697.004-1.045.009l-.784.017c-.547.012-1.103.024-1.661.024-.764,0-1.387-.023-1.958-.071-1.872-.16-3.723-.484-5.5-.962-.257-.069-.514-.136-.771-.203-.772-.202-1.647-.429-2.47-.71-.962-.329-1.91-.734-2.827-1.124l-.475-.202c-.842-.359-1.275-1.089-1.557-1.685-.055-.121-.117-.237-.186-.364l-.212-.487.042-1.473c.488-.898,1.27-1.629,2.323-2.168,1.517-.777,3.24-1.072,5.237-.916.925.077,1.837.308,2.719.531l.26.066c.889.225,1.95.463,3.066.527.394.02.783.003,1.185-.019.344-.02.748-.039,1.147-.023.527.022,1.066.016,1.59.011l.893-.008c.251-.003.522,0,.787.003l.484.003c.351,0,.706-.003,1.056-.016.441-.017.882-.047,1.322-.077.596-.04,1.21-.082,1.826-.089.128-.003.268-.038.403-.073.277-.069.62-.151,1.015-.028.19.059.457.011.694-.032.152-.026.3-.05.444-.062.13-.009.26-.027.39-.044.348-.043.703-.089,1.061-.031.328.051.65.007.997-.044l.047-.007c.235-.036.53-.082.83-.082.13.011.241.008.35.005l.139-.003c.802,0,1.85-.022,2.877-.194.545-.091,1.099-.136,1.588-.176.733-.061,1.481-.121,2.192-.308.527-.14,1.077-.165,1.608-.19.28-.013.546-.027.81-.052.156-.016.312-.046.467-.077.217-.04.414-.078.621-.091.582-.04,1.174-.126,1.748-.21.533-.077,1.075-.153,1.618-.2l.151-.012c1.088-.09,2.201-.183,3.26-.374.42-.078.847-.137,1.26-.194l.101-.015c.502-.069,1.018-.139,1.521-.238.818-.16,1.709-.297,2.723-.416.787-.091,1.555-.187,2.3-.356.742-.171,1.563-.192,2.161-.207.619-.017,1.267-.124,1.981-.324.29-.082.574-.105.85-.126.225-.017.422-.034.613-.073,1.001-.207,1.98-.425,2.943-.82l.203-.085.754.715-.062.612c-.028.27-.052.522-.071.773-.055.758.172,1.465.693,2.157.329.44.545.936.734,1.374l.02.046c.061.137.121.274.184.41.073.157.036.309.013.391Zm53.974-9.679c-.566.178-1.122.35-1.678.496-1.194.313-2.41.541-3.587.761l-.6.112c-1.235.231-2.512.43-3.795.59-.519.063-1.048.18-1.56.295l-.048.011c-.254.056-.51.113-.765.164l-.051.011c-.12.024-.239.047-.364.05-.472.019-.873.051-1.284.155-.802.199-1.631.295-2.363.378l-.104.012c-.358.043-.714.086-1.069.139-.281.042-.563.089-.846.137-.854.144-1.736.292-2.639.312-.036.001-.097.02-.156.038-.086.027-.157.048-.231.061l-.348.067c-.445.086-.906.176-1.389.214-.578.046-1.169.164-1.739.278-.243.051-.487.1-.732.144-.182.032-.36.067-.541.104l-.078.015c-.327.063-.664.128-1.001.175-.851.122-1.697.305-2.516.545-1.011.295-2.027.469-2.975.616-.321.05-.646.105-.97.16l-.14.023c-.607.104-1.235.21-1.85.284-.508.061-1.022.179-1.52.295-.714.163-1.435.328-2.189.351-.363.011-.732.117-1.123.229l-.044.013c-.233.066-.472.133-.714.182-.522.106-1.048.199-1.573.292-.34.059-.679.12-1.018.183-.175.034-.35.082-.524.13l-.148.04c-.473.129-.953.191-1.417.25-.512.065-1.029.13-1.517.281-.499.155-1.026.242-1.491.319-.48.082-.975.165-1.432.308-.292.091-.592.139-.89.139-.485,0-.916-.12-1.271-.237l-.105-.034-.065-.093c-.609-.85-.702-1.68-.792-2.484l-.036-.323c-.077-.623-.323-1.185-.539-1.681-.106-.242-.196-.451-.265-.644l-.502-2.766.375-.765.101-.052c.231-.113.461-.237.69-.362.543-.293,1.099-.594,1.7-.78.265-.082.527-.168.789-.256l.052-.017c.674-.222,1.348-.445,2.048-.589.68-.14,1.388-.319,2.012-.476.779-.196,1.584-.399,2.399-.553.28-.052.557-.108.835-.163l.239-.048c.89-.179,1.794-.36,2.71-.463.2-.022.401-.043.601-.063.858-.09,1.74-.183,2.578-.412.382-.104.789-.122,1.148-.14.243-.012.483-.024.709-.056.609-.087,1.228-.113,1.826-.139.511-.022,1.061-.044,1.579-.105.757-.089,1.541-.105,2.231-.118.598-.012,1.276-.027,1.92-.089.842-.082,1.69-.105,2.511-.125.362-.009.694-.017,1.025-.03l.598-.023c1.559-.056,3.171-.116,4.747-.214.529-.032,1.061-.04,1.576-.048.769-.012,1.536-.024,2.273-.109.597-.069,1.21-.087,1.751-.104.487-.015,1.038-.032,1.563-.086,1.122-.114,2.368-.231,3.924-.366,2.752-.235,5.539-.195,8.237-.16h.079c1.669.024,3.174.042,4.693.019,2.456-.044,5.022-.019,6.894.001.869.009,1.746.078,2.593.143l.459.036c.192.015.36.087.524.157l.059.026c.059.024.124.051.194.075l.767.274-.893.426c-.43.204-.8.382-1.259.485-.504.114-1.002.312-1.483.503-.23.091-.46.182-.691.265l-.101.036c-.335.12-.68.243-1.03.346l-.29.086c-.929.274-1.889.559-2.842.819-.531.144-1.069.309-1.591.471l-.071.022c-1.076.334-2.188.678-3.335.877-.966.168-1.912.464-2.828.749Z" stroke-width="0"/>
      <path d="m114.529,166.11c-.184.069-.374.058-.53.05-.048-.003-.1-.005-.149-.005-.044,0-.089.001-.13.009-1.268.219-2.207.832-2.793,1.822-.222.378-.281.862-.159,1.298.081.282.28.674.765.927l.242.13c.387.208.752.403,1.157.477l.421-.136c.444-.145.554-.385.621-.662-.124-.227-.34-.371-.611-.55-.126-.081-.251-.164-.374-.257l-.325-.25.307-.272c.498-.445,1.073-.69,1.81-.771l.105-.011c.561-.062,1.143-.125,1.603-.347.351-.389.363-.706.043-1.154-.594-.309-1.239-.574-2.002-.3Z" stroke-width="0"/>
      <path d="m124.422,98.703l-.012-.71c-.013-1.354-.027-2.739-.179-4.092-.077-.695-.132-1.197-.694-1.598l-.168-.12.097-.686c.063-.445.122-.866.172-1.288.011-.085-.005-.191-.023-.304l-.009-.063c-.013-.091-.031-.183-.047-.274-.035-.171-.073-.364-.082-.565-.055-1.226-.428-2.409-1.109-3.514-.707-1.146-1.571-2.177-2.405-3.175-1.19-1.421-2.462-2.725-3.783-3.873-1.668-1.45-3.74-2.55-6.159-3.271l-.261-.077c-2.08-.62-4.231-1.26-6.409-1.746-.861-.194-1.703-.367-2.534-.382h-.094c-2.856-.047-5.81-.094-8.7.323-.959.137-1.82.268-2.652.457-1.742.398-3.491.955-5.348,1.705-2.918,1.178-5.59,2.982-8.166,5.512-.611.6-1.17,1.255-1.59,1.758-.615.738-.979,1.478-1.115,2.261-.012.067-.023.133-.034.2-.047.312-.1.667-.284.963-.74,1.178-.888,2.555-.935,3.747l-.02.507c-.067,1.681-.137,3.392.13,5.059.086.526.094,1.06.102,1.576.008.49.016.983.087,1.456.069.46.078.924.087,1.372.011.51.022.995.104,1.462.212,1.213.446,2.39.98,3.45.851,1.69,2.134,3.061,3.394,4.29.884.861,1.813,1.635,2.686,2.344.65.531,1.391,1.073,2.263,1.66.758.51,1.509.963,2.228,1.348l.58.311c.953.515,1.938,1.048,2.959,1.451,1.907.752,3.92,1.075,5.81,1.311l.445.054c.362.04.738.082,1.112.153,1.021.191,2.071.311,3.121.355.242.008.485.004.726-.005l.098-.003c.133-.003.265-.007.399-.007.371,0,.861.022,1.349.191.035.012.086.013.104.009.359-.214.73-.199,1.072-.187.108.004.218.012.325.001.401-.022.799-.038,1.198-.052l.169-.007c.875-.031,1.781-.062,2.661-.168.222-.026.445-.039.67-.051.374-.022.705-.04,1.015-.116,1.165-.282,2.534-.635,3.86-1.104,1.557-.553,2.715-1.173,3.646-1.95,1.173-.98,2.402-2.087,3.76-3.385.73-.697,1.462-1.486,2.235-2.411.98-1.174,1.766-2.445,2.333-3.778.389-.912.655-1.816.791-2.684.067-.437.052-.91.038-1.369l-.003-.118c-.004-.105-.007-.208-.008-.313-.004-.253.038-.496.074-.711.063-.381.118-.71-.031-1.023l-.03-.105Zm-48.405-9.482c1.213-2.47,2.881-4.664,4.956-6.516.698-.624,1.479-1.135,2.438-1.712,1.786-1.072,3.534-1.864,5.344-2.421.845-.26,1.701-.581,2.458-.865.666-.25,1.493-.561,2.297-.816.647-.206,1.311-.356,1.955-.503l.07-.016c.515-.117,1.048-.239,1.557-.389,1.3-.382,2.625-.377,3.892-.379.256.004.508,0,.76-.001.028-.001.063-.001.098-.001,1.259,0,2.462.305,3.626.6,1.431.36,2.821.81,4.168,1.243l.717.23c1.451.465,2.878,1.231,4.24,2.274,1.528,1.171,2.856,2.571,4.141,3.927.347.366.685.719,1.025,1.07.919.947,1.509,2.082,1.707,3.284.133.81.105,1.625.055,2.383-.023.355-.104.698-.182,1.029-.056.241-.12.511-.151.767-.152,1.272-.656,2.441-1.118,3.437-.436.943-.971,1.85-1.489,2.727l-.148.251c-.598,1.021-1.497,1.805-2.298,2.437-1.356,1.072-2.621,1.942-3.868,2.661-.889.512-1.82.789-2.694,1.013-1.097.278-2.228.446-3.322.608-1.05.156-2.162.307-3.276.307h-.147c-.916-.012-2.125-.058-3.334-.316-.313-.067-.639-.091-.953-.114-.217-.017-.433-.034-.65-.062-2.152-.277-4.313-.729-6.422-1.342-2.635-.768-4.883-1.818-6.873-3.213-.901-.628-1.602-1.166-2.207-1.69-1.397-1.212-2.995-2.703-4.239-4.579-.875-1.322-1.399-2.761-1.756-3.866-.066-.208-.136-.414-.21-.636l-.23-.686.061-.124Zm44.569,16.4h0c-1.161,1.495-2.497,2.784-3.975,3.83-.787.557-1.552,1.181-2.292,1.786l-.432.351c-1.146.932-2.496,1.591-4.248,2.076-.117.032-.231.036-.324.039-.94.019-1.779.07-2.571.156-.752.081-1.537.102-2.231.12-.767.02-1.536.04-2.278.128-.89.104-1.828.155-2.866.155-.16,0-.323-.001-.488-.004-1.116-.015-2.266-.133-3.417-.351-.325-.062-.674-.09-1.009-.118-.316-.027-.601-.05-.884-.09-.806-.116-1.67-.246-2.524-.428-1.076-.226-2.167-.547-3.245-.958-1.563-.596-2.987-1.404-4.173-2.115-1.183-.713-2.137-1.338-2.999-1.969-2.093-1.536-3.458-2.932-4.426-4.529-.277-.456-.503-1.019-.671-1.673-.165-.655-.226-1.339-.261-1.863-.042-.619-.07-1.239-.097-1.859l-.005-.116c-.031-.652-.062-1.323-.109-1.981-.008-.105-.032-.212-.066-.354-.07-.289-.156-.647-.013-1.049l.231-.655.373.586c.235.368.442.746.641,1.114.394.715.758,1.381,1.286,1.935l.686.728c.646.687,1.314,1.399,1.997,2.062.329.323.71.617,1.076.902l.044.034c.214.167.428.334.633.507,1.752,1.473,3.736,2.651,6.063,3.6.495.202.986.416,1.477.631l.172.074c.336.147.672.292,1.01.433,1.214.507,2.477.807,3.661,1.057l.473.101c1.07.226,2.16.457,3.234.621.397.062.823.081,1.2.097.49.023.98.044,1.462.137.948.18,1.928.161,2.793.148.475-.008.94-.013,1.399.003.803.031,1.59-.117,2.345-.251l2.713-.456c2.204-.374,4.049-1.435,5.716-2.527,1.378-.902,2.668-2.017,3.831-3.312.835-.927,1.498-1.978,1.97-3.127.129-.315.276-.617.444-.967.1-.203.191-.395.29-.607l.592-1.256.052,1.387c.124,3.186-.594,5.671-2.259,7.818Z" stroke-width="0"/>
      <path d="m27.365,81.313c0,.148,0,.261.012.371.03.277.07.551.11.824l.019.14c.019.128.036.256.052.383.023.164.038.332.051.502l.007.065c.035.405.066.761.167,1.088.186.598.328,1.21.465,1.803l.02.086c.112.472.226.96.362,1.432.656,2.298,1.61,3.952,3.003,5.203.498.446,1.105.834,1.912,1.216.299.143.617.266.927.385.311.12.659.253.994.412,2.032.967,4.285,1.485,6.888,1.582,1.165.04,2.407.055,3.626-.113.58-.081,1.17-.089,1.74-.097.637-.008,1.29-.016,1.923-.126.364-.063.742-.089,1.075-.113.367-.024.697-.048,1.017-.105.607-.106,1.224-.238,1.821-.366l.219-.047c.498-.106.994-.211,1.494-.304,1.736-.324,3.468-1.046,5.451-2.271,1.033-.637,2.017-1.494,3.097-2.694.967-1.07,1.739-2.204,2.357-3.463.784-1.591,1.323-3.281,1.85-5.018.588-1.939.818-3.454.746-4.909-.011-.231-.017-.463-.023-.695l-.003-.117c-.015-.691-.03-1.397-.172-2.067-.04-.194-.067-.387-.094-.582-.034-.246-.069-.5-.136-.736-.414-1.458-.806-2.766-1.42-4.02-.183-.375-.325-.769-.463-1.148l-.113-.309c-.594-1.612-1.357-3.218-2.265-4.77-.055-.095-.109-.192-.161-.29-.226-.416-.42-.771-.828-.923-.168-.066-.225-.214-.249-.277-.122-.169-.254-.358-.382-.541l-.113-.161c-.364-.52-.742-1.06-1.17-1.54-.802-.896-1.678-1.838-2.656-2.659-1.224-1.019-2.661-1.826-4.396-2.465-1.53-.563-2.812-.832-4.035-.846-.329-.003-.656-.003-.988,0h-.818v-.042s-3.709.229-3.709.229c-.028.004-.059.004-.091,0l-.089-.003c-.394.187-.82.219-1.233.249-.277.02-.527.039-.764.101-.391.104-.799.168-1.158.226-.364.058-.819.13-1.225.249-2.144.617-4.262,1.603-6.292,2.928-1.346.878-3.051,2.101-4.302,3.783-1.162,1.561-1.694,2.987-1.677,4.484.003.186.012.374.022.563.026.547.052,1.108-.071,1.649-.157.676-.207,1.382-.257,2.064l-.023.32c-.077,1.009-.063,2.039-.05,3.034.008.582.016,1.243.003,1.876-.02,1.087-.065,2.195-.112,3.328-.024.576-.046,1.116-.066,1.657-.001.055-.005.112-.011.168l-.003.046c-.012.13-.027.299.004.359.183.355.183.705.183,1.013Zm3.467-14.558c.611-2.015,1.846-3.763,3.779-5.347,1.427-1.174,2.855-2.084,4.365-2.781,1.031-.476,2.411-1.052,3.942-1.274.32-.047.641-.089.962-.13.568-.073,1.154-.149,1.724-.253,1.346-.242,2.682-.19,3.971-.139l.253.011c1.712.066,3.037.389,4.166,1.018.265.147.535.286.806.425.644.331,1.313.672,1.918,1.14.121.094.243.187.364.28.678.512,1.446,1.093,1.994,1.9.195.286.44.558.675.82.147.163.292.327.429.495.882,1.075,1.213,2.144,1.038,3.359l.023.031-.03.125-.124.23c-.578,1.752-1.973,2.709-3.474,3.61-1.042.624-2.279,1.109-3.782,1.486-.601.151-1.22.242-1.817.331l-.046.007c-.222.032-.444.065-.664.098-.777.126-1.557.242-2.339.352-.16.023-.321.017-.459.015l-.149-.003c-.239,0-.481.005-.722.012l-.122.003c-.284.007-.572.013-.861.013-.436,0-.791-.016-1.116-.05-.749-.078-1.548-.087-2.189-.094-.709-.009-1.431-.019-2.141-.089-1.381-.134-2.816-.541-4.262-1.206-1.72-.793-2.921-1.579-3.893-2.546-.309-.308-.675-.616-1.085-.913-.165-.121-.356-.221-.577-.335-.143-.071-.268-.136-.399-.208l-.238-.132.079-.262Zm-.167,5.557l-.013-.118c-.065-.551.004-1.126.07-1.681.031-.262.063-.539.085-.832l.05-.658.507.426c.134.114.262.218.381.316.233.191.438.36.633.541,2.098,1.947,4.312,3.272,6.77,4.048.939.297,1.988.53,3.299.733.464.071.948.081,1.416.09h.07c.473.009.962.02,1.446.091,1.171.176,2.357.168,3.666.149h.079c.605-.008,1.232-.013,1.85.004.429-.004.924-.062,1.551-.183.272-.051.546-.104.82-.14.927-.125,1.844-.348,2.699-.572,1.93-.5,3.575-1.315,5.031-2.488.495-.398.976-.851,1.4-1.249l.363-.339c.058-.055.116-.139.182-.234l.044-.065c.031-.044.063-.091.1-.14l.351-.469.231.538c.026.058.054.117.083.178.078.157.159.323.194.508.056.296.1.598.143.9.071.507.141,1.009.28,1.467.516,1.712.682,3.528.492,5.397-.257,2.532-.875,4.879-1.84,6.974-.867,1.884-2.265,3.333-4.275,4.426-1.415.771-2.951,1.366-4.695,1.82-.452.117-.908.264-1.35.406l-.046.015c-.39.125-.781.251-1.175.362-.58.163-1.205.316-1.86.338-.242.009-.477.043-.76.086-.25.038-.46.069-.671.085-.105.008-.21.011-.316.013l-.062.003c-.312.008-.607.015-.88.124-.125.051-.256.067-.382.067-.074,0-.147-.005-.218-.011-.056-.004-.11-.008-.164-.008-.375.009-.744.003-1.111.001l-.779-.005c-.999,0-2.032-.005-3.038.019l-.172.003c-.951,0-1.924-.188-2.975-.577-.569-.21-1.131-.437-1.693-.663-.386-.157-.773-.313-1.162-.464-1.252-.483-1.951-1.493-2.421-2.318-.816-1.432-1.231-2.992-1.529-4.329-.289-1.306-.496-2.648-.617-3.99-.015-.157-.032-.312-.05-.468l-.012-.118c-.079-.706-.161-1.434-.044-2.153.155-.945.143-1.915.13-2.852-.007-.485-.012-.962.003-1.439.015-.512-.048-1.046-.109-1.563Z" stroke-width="0"/>
      <path d="m273.701,76.486c-.643.251-.906.784-1.209,1.397l-.097.191c-.632,1.26-.711,2.606-.225,3.792,1.036,2.515,3.255,3.592,5.935,2.889,1.717-.455,2.951-1.51,3.666-3.136l.032-.074c.235-.533.476-1.081.542-1.618.121-.97.153-1.783-.079-2.6-.239-.841-.796-1.389-1.447-1.962-.077-.019-.153-.039-.231-.059-.225-.058-.417-.108-.601-.12-1.352-.085-2.329.702-3.1,1.478-.732.734-1.295,1.674-1.721,2.869l.339-.164c.689-.335,1.352-.656,2.016-.972.147-.069.299-.105.46-.144.079-.02.169-.043.27-.071l.785-.222-.397.711c-.658,1.179-1.465,2.337-2.909,2.828l-.086.028-.043-.008c-.994-.182-1.352-.878-1.537-1.388l-.017-.087-.003-1.077.916-1.247v-.792l-.593-.442h-.666Z" stroke-width="0"/>
      <path d="m105.164,39.761l2.376.207.898.49c.487.561.471,1.161.457,1.689-.005.192-.009.377.007.551l.012.129-.765,1.036v.802l.421.391.789.169c.048-.017.098-.035.148-.052l.058-.02c.21-.073.426-.147.586-.262.607-.432,1.025-.98,1.178-1.545.048-.178.11-.356.173-.538.21-.605.39-1.124.109-1.673l-.027-.077c-.289-1.9-2.195-3.413-4.347-3.471-.403-.009-.806-.005-1.19-.004h-.407s-.768.399-.768.399c-.3.344-.301.694-.26,1.259l.55.52Z" stroke-width="0"/>
      <path d="m113.693,59.436c-.152.156-.299.312-.445.468l-.066.07c-.698.744-1.357,1.447-2.222,1.953l-.144.082-.195-.075c-.059-.017-.173-.054-.246-.175-.161-.25-.303-.468-.434-.693-.19-.313-.433-.512-.705-.573-.264-.056-.55.008-.838.202-.075.05-.147.106-.198.149l-.208.874c.044.113.086.226.128.336l.022.061c.122.332.239.646.398.927.272.476.574.966.952,1.322.756.718,2.006.812,2.972.227.923-.559,1.491-1.417,1.885-2.105.3-.522.568-1.083.803-1.579.108-.225.211-.438.315-.648v-.997c-.477-.933-.914-1.076-1.428-.998-.28.039-.557.102-.734.278l.611.663-.222.23Z" stroke-width="0"/>
      <path d="m91.62,55.105c1.185.538,2.366.485,3.415-.147,1.202-.726,2.511-1.685,3.116-3.287v-.619c-.49-.863-1.2-1.229-2.409-1.177.055.133.153.261.261.402.19.25.405.533.445.928l.02.18-.397.328c-.68.563-1.382,1.146-2.223,1.565-.55.276-.943.378-1.303.311-.96-.313-1.295-1.013-1.564-1.575l-.026-.055c-.217-.448-.432-.742-.715-.971-.414-.024-.691.165-.885.641.044,1.306,1.116,2.953,2.265,3.474Z" stroke-width="0"/>
      <path d="m83.902,40.628c.851.685,1.797.998,2.803.92.932-.074,1.603-.475,2.052-1.225.49-.815.693-1.751.639-2.941l-.773-1.147c-.604-.256-1.122-.164-1.625.293-.438.401-.827.871-.695,1.594l.027.145-.803,1.072-.277-.272c-.534-.529-1.025-1.011-1.477-1.456h-.678c-.446.383-.469.615-.429.791.223,1.009.627,1.738,1.236,2.227Z" stroke-width="0"/>
      <path d="m118.335,47.875h.768c.061-.036.121-.07.183-.105l.038-.022c.208-.118.416-.237.588-.373,1.201-.948,1.744-1.942,1.709-3.128-.012-.425-.026-.832-.001-1.24.046-.846-.219-1.452-.808-1.852l-.767-.176c-.769.293-1.217.633-1.296.988-.065.285.105.652.49,1.065.104.007.186.013.266.031.083.016.167.047.274.091.042.016.087.035.14.054l.413.155-1.376,1.972-.159.015c-.438.04-.806.26-1.119.667l-.184.768c.311.803.328.827.842,1.089Z" stroke-width="0"/>
      <polygon points="151.737 24.071 151.709 24.044 151.734 24.085 151.737 24.071" stroke-width="0"/>
      <path d="m150.362,27.206c.18,1.29.656,2.59,1.498,4.092.036.067.073.134.109.206.132.247.247.468.433.624l.02-.058c.106-.327.202-.616.264-.906.062-.289.106-.592.148-.885.066-.445.133-.905.264-1.358.315-1.08.354-2.2.351-3.155-.001-.363-.121-.666-.366-.924-.141-.147-.289-.285-.409-.395l-.039-.038-.854-.207c-.083.054-.186.116-.315.14-.604.112-.929.44-1.123,1.132-.151.542-.081,1.03,0,1.596l.019.136Z" stroke-width="0"/>
      <path d="m159.538,57.688l.004.046c.031.457.063.925.235,1.339.617-.585,1.058-1.459,1.194-2.383.143-.952-.052-1.85-.547-2.534-.239-.155-.504-.28-.857-.186l-.394.413c-.003.085-.007.168-.012.251l-.003.061c-.017.286-.032.557.026.784.184.742.3,1.463.354,2.208Z" stroke-width="0"/>
      <path d="m166.962,38.862c.003.251.005.507.005.764.725-1.673,1.257-3.35,1.689-4.801.043-.144.042-.324.04-.498-.001-.062-.001-.117-.001-.168l-.367-.495-.753.206-.373.719c-.27,1.381-.257,2.729-.242,4.157v.116Z" stroke-width="0"/>
      <path d="m172.36,55.263c1.054-.713,1.396-1.516,1.104-2.596l-.576-.565c-.301.073-.519.215-.71.463v.081c-.016.615-.032,1.245-.313,1.885-.196.453-.554.717-.869.951-.082.061-.16.117-.231.175.49.133,1.006.005,1.595-.394Z" stroke-width="0"/>
      <path d="m149.492,41.147l-.569.623c-.001,1.081.141,1.783.538,2.558.274-.943.55-1.969.633-2.925-.23-.305-.377-.334-.602-.256Z" stroke-width="0"/>
      <path d="m94.791,169.392c-.183-.019-.352-.04-.514-.061-.348-.043-.644-.079-.931-.079-.363.003-.71.046-1.076.09l-.062.008c-.137.016-.278.034-.424.048-1.582.806-1.621.843-2.032,2.133l.188.795c1.075,1.105,2.386,1.333,4.127.722l.359-1.314.19-.05c.834-.221,1.127-.51,1.116-1.103-.012-.655-.456-.962-.943-1.19Z" stroke-width="0"/>
      <path d="m71.512,168.565h-.001c-.077-.036-.149-.078-.25-.136l-.11-.063c-2.273.182-3.931,1.022-5.067,2.567v1.151c.223.641.733.958,1.431,1.226l.089.004c.437.013.843.032,1.335-.445.062-.054.039-.331.024-.512-.02-.238-.043-.502-.004-.768l.026-.171.151-.079c.082-.043.161-.087.239-.132l.039-.022c.218-.122.422-.238.655-.329.334-.13.678-.217,1.011-.3l.067-.016c.555-.137.923-.483.956-.9.043-.534-.144-.875-.59-1.076Z" stroke-width="0"/>
    </g>
  </g>
</svg>