<?xml version="1.0" encoding="UTF-8"?>
<svg id="Layer_2" data-name="Layer 2" xmlns="http://www.w3.org/2000/svg" viewBox="0 0 232.5191021 165.4223186">
  <g id="Layer_1-2" data-name="Layer 1">
    <g>
      <path d="m142.5156586,93.8450671c-.0361417-.0858809-.0180491-.2318527.0377564-.3111604,1.470285-1.491297,3.6601717-2.1823897,5.586393-2.9155731,1.9883679-.8362886,5.5621056-1.3201673,5.566078,1.7589277-.0837239,2.3377142-2.2851512,3.8807106-4.4203565,4.2529769.3186989-1.5505779,1.4315657-2.8619468,1.9381544-4.350905-2.7842837.007924-5.7976416.4992199-8.4039673,1.4559712-.0073244.0188571-.0147594.037503-.0221447.0561118.1213564.1609853.4384144.2144933.52326.3492265-.2182036-.0438168-.6769479-.0192561-.8051734-.2955755Z" fill="#423b30" stroke-width="0"/>
      <path d="m144.252913,102.6574296c3.0248293-1.126097,6.6047236-1.0422696,9.5203045-2.5111302,1.2960121-.6620727,4.3080016-2.9883246,1.5458523-3.6690687-1.3130857-.3158134-2.708497-.9364222-4.0221112-.7361644-.0001131.008954-.0003882.0181057-.0005915.0278531.0005836.0228228.1075489.0928865.053344.0944508-.5233833-.4011184.885649-.548366,1.1409964-.6048478,13.3317293-2.063287,2.3312518,14.3459334-8.2377943,7.3989071Z" fill="#423b30" stroke-width="0"/>
      <path d="m113.0255544,88.1417828c-3.8817686-3.2503364-6.9330043-7.6660138-11.7002863-9.7206127-1.3378074-.487308-3.0090193-1.3986646-4.3954534-.8436919.0003297.0212962.0013624.0435381.0029927.065212.0102238.0507201.2088135.164823.162297.1924903-1.0137589-.5764338,1.1517336-.8741677,1.5210075-.7981845,7.6065311.0014574,12.3700799,6.6630886,18.246301,10.4092385,2.1827897,1.3810834,4.6169914,2.5140892,6.7284076,3.9349488-3.7575527-.0246539-7.656482-.6865671-10.5652661-3.2394005Z" fill="#423b30" stroke-width="0"/>
      <path d="m118.1165868,89.7475064c-.1063736-.2760887.5121611-.0934856.6942402-.1065189-.0535898.0127818-.1075507.025314-.0046603-.022242.0127066-.0015326.0173731.0207125-.0761792.0411694,7.4733884.5367006,16.6582395.0729259,21.5727791,6.8936395-3.7842898-.8275042-7.1235283-2.4342668-10.7410698-3.6860109-3.7655302-1.1789735-7.7973002-1.6054685-11.4451099-3.1200371Z" fill="#423b30" stroke-width="0"/>
      <path d="m138.8432853,95.3689767c.4926455-1.9623162,2.5133138-2.7077671,4.2683013-3.2123209,1.3593002-.3544077,3.0912584-.6582795,4.3581966-.2509128-1.704995.7059726-3.2155969,1.834563-4.821434,2.7413854-1.0858665.7079383-2.5519637,1.4474611-3.8050639.7218483Z" fill="#423b30" stroke-width="0"/>
      <path d="m107.814187,103.2707188c-5.1176833-2.9852045-8.8321945-7.9793839-12.1051955-12.7364533,6.8978404,4.300222,13.1616274,10.057747,21.2621197,11.9630919,4.6023244,1.2545317,9.4652273,1.1251266,14.1306153.3007722,4.2803234-.8286397,9.1171455-2.1729473,13.1308678.2329132.3772279.2079226,1.2126538.8511359,1.1378985,1.1794316-1.8046118-1.8392798-5.0290489-1.5359905-7.3675645-1.1302164-3.4110769.8046975-6.5975741,2.3395721-10.0538187,2.9887603-6.7616425,1.4857942-14.0209501.4252377-20.1349227-2.7982995Z" fill="#423b30" stroke-width="0"/>
      <path d="m70.3567216,104.0389989c1.5487268-2.8208483,3.5745366-5.0734085,4.539236-8.0979189,1.2900009-4.5186788.9734802-9.4544624,3.2223591-13.7047145,1.6698963-3.1732274,4.141758-6.242193,7.5355841-7.6303336.6506239-.2350186,1.665414-.5726324,2.2049091.0207049.1575134.2864297-.0832017.5187529-.265075.713224.0085908-.1491816.2980558-.3985894.1287911-.606005-.653152-.376694-1.5053236.2283339-2.0684841.5404013-3.4894365,2.5411511-5.556727,6.7483696-6.3642914,10.9140893-1.0239897,8.8527808.0482394,13.1801808-8.9330291,17.8505525Z" fill="#423b30" stroke-width="0"/>
      <path d="m45.8414694,117.1702836c-2.124987-9.1230156,6.8190664-15.515364,15.1580509-15.3004508,6.1991666.4001819,8.3173591,1.6361024,13.9166352-2.3447259.598935-.296286,1.7061941-1.2049878,2.2556196-1.0474629l-.0047695.0016289s.0008501-.001559.0024515-.0018994c-.0103246-.0015204-.0206739-.0030534-.0262662-.0061905-1.2376924.6381647-2.1025492,1.8603525-3.1536261,2.7691727-2.4056771,2.4298118-5.7011817,3.8074255-9.1307957,3.6026419-8.1848436-.5693886-16.4053011,4.5113244-19.0172996,12.327286Z" fill="#423b30" stroke-width="0"/>
      <path d="m33.0227283,131.9693231c.7594276-6.7478454,9.2428116-14.6090063,14.700147-18.2718562-5.4008126,5.5951915-8.9801628,12.9214384-14.6939239,18.2840126-.0040096-.0020265-.0067688-.006404-.0062231-.0121563Z" fill="#423b30" stroke-width="0"/>
      <path d="m8.2768326,142.2958599c1.1019294-6.7763433,9.3263795-9.0210656,15.0258299-10.6374836,3.3031907-.9458863,6.7830878-.7966341,10.126418-1.0226584.0423623-.151324-.057215-.424506.0448869-.5149372.0584366.4144654.2889847.6756616-.2545565.8817117-2.0635172.5785289-4.2292435,1.0453677-6.2454978,1.7623494-4.2130569,1.4127513-8.3297965,3.5119844-12.3083071,5.4060844-2.4274699,1.1000015-4.7730713,2.0245842-6.3887734,4.1249337Z" fill="#423b30" stroke-width="0"/>
      <path d="m39.7028425,144.3279022c11.5749064-2.1764889,21.1068875-6.7087895,26.5560479-17.6889648.3305806-.410008,1.5402815-2.9330638,1.9951539-2.1296242.0047007.0143078-.0143763.0205754-.0206782.0094357-.0411412-.0539789-.0602865-.1180948-.1322776-.1363642-1.5168105,1.9979796-1.895835,4.8300907-3.0569035,7.0996543-1.2268172,2.8680769-3.195172,5.409103-5.4807959,7.5231735-5.1407933,4.8414335-13.0303637,9.168161-19.8605467,5.3226897Z" fill="#423b30" stroke-width="0"/>
      <path d="m16.2255791,149.3282823c5.7681648-5.5825428,12.046083-3.0497993,18.948125-2.9824261,3.1787436-.2989535,6.0019909-1.4608085,9.0242432-2.3375429.8329166-.2472293,1.7169679-.5720254,2.59035-.6317552.0523933-.0013613.0981421.0655111.0534778.1065437-3.585571,1.6507136-6.7874108,4.1741244-10.6555428,5.2182976-3.7345107.9439438-7.6298012.2205432-11.4319427.3918273-2.8281102.1565504-5.7347904.2127988-8.5287106.2350555Z" fill="#423b30" stroke-width="0"/>
      <path d="m7.0029499,161.68678c-2.2020135-1.406895-.8669793-4.3167285.9298615-5.4523184.2831103.9562328.2210162,1.8745932.4625835,2.7320234.0442163.0914844.1032396.2378697.2237252.1811221,2.7987302-2.251295,3.930235-6.0673836,6.4725212-8.625869,1.4433249-1.6125594,3.1068793-3.124875,5.0265279-4.1455109.343692-.1547982.9857347-.5251261,1.2823795-.3023647-.1374592-.0421288-.3100696.07155-.4387926.1202192-2.8641104,2.1237276-4.6744047,5.3646052-6.2493752,8.4929552-1.5066436,2.8922069-3.4356847,8.9818965-7.709431,6.999743Z" fill="#423b30" stroke-width="0"/>
      <path d="m3.6007378,158.1968667c.184028-.6814208,1.0849859-.6504635,1.6568617-.6514365.0576701-.0055615.1149662-.0135804.1128888-.0092547.8045316-.2165507,1.489401-.710748,2.3198604-.8599413.2430952-.0481631.7020657-.0906318.7578233.2319021-.1987586-.0749743-.3796317.2490868-.4731996.3852202-.6693704,1.1846402-1.618367,2.5912595-3.1725298,2.3818965-.6716123-.0945524-1.3863686-.7789538-1.2017048-1.4783862Z" fill="#423b30" stroke-width="0"/>
      <path d="m2.059066,156.8952965c-.0807967-.4837173.0432665-1.1623832.4792057-1.4202993.6589328.2104781.8084263,1.0245429.9376103,1.6074769.2984623.876273,1.3824907-.0264581,1.9101193-.0887594-.9156324,1.7911675-2.8029749,2.1083584-3.3269353-.0984183Z" fill="#423b30" stroke-width="0"/>
      <path d="m.5803856,157.5158204c-2.3662013-4.7872087,3.0813714-9.8717617,5.9488722-13.2262203,1.8310245-2.0211674,2.8049796-4.523574,3.7352384-7.0282094.1217853-.2888889.3085857-.8368176.599263-.9181376-.1590532.1938006-.2075453.4751429-.2688007.7222864-.343612,2.4922044-.6243962,5.0510572-1.8786909,7.2885119-1.3761571,2.6361473-3.4358014,4.9320131-4.7573877,7.5823796-.728891,1.578672-1.1790416,3.2670243-1.9128046,4.8423329-.2126468.5048182.3397135.8702747.5802131,1.2538939-.6530493.1389272-1.6065359.1205734-2.0459028-.5168374Z" fill="#423b30" stroke-width="0"/>
      <path d="m68.3282362,131.5883647c6.4181746-.5152191,13.2859382-1.8689819,18.8113877-5.3092601,8.5824662-5.8815812,13.7921017-15.3508344,18.2979547-24.4710823-.0001052-.0000532.0030629.001548.0014617.0047161.0130663-.0489545.0278189-.0970801.0418165-.1455717-.1320476,1.5543354-1.3223416,4.1814437-2.0435305,6.0186509-2.1644197,5.0167894-4.3694972,10.1175903-7.7351004,14.4618219-6.0775939,8.1777225-17.4984522,14.3610194-27.3739898,9.4407252Z" fill="#423b30" stroke-width="0"/>
      <path d="m84.8799959,121.8912274c-.3507871-1.6808771,1.7870689-2.1615531,3.0629208-1.9918015.1878587.0085004.602363.1909917.3760211.420698-.0316864.0125725-.0167246-.0473871-.0383057-.0643846-.0040117-.0015304-.0080357-.0030981-.0121772-.0047562-.0180571.0041419-.0357254.008729-.0534584.0139358-.0140813.0082643-.0278032.0165859-.0412946.0246512.4406791.1940733.5509809.7970456.4336721,1.2383723-.3941848,1.5015202-3.1792729,1.9399877-3.7273781.3632849Z" fill="#423b30" stroke-width="0"/>
      <path d="m59.9630822,158.5185623c3.8360777-1.5252865,7.6323787-3.2008718,11.1775536-5.3295504,4.8061721-3.4522786,9.2535465-7.6950806,12.3254602-12.7570627,2.2543285-3.8613626,3.5901006-8.8283153,5.6259809-12.4613576.0001238.0000625.004893-.0015044.004732-.0015547-1.9419704,6.4847101-2.7415714,13.6008182-7.1671783,19.0442476-5.0897604,6.7842685-12.8151778,14.1402305-21.9665485,11.5052778Z" fill="#423b30" stroke-width="0"/>
      <path d="m41.524956,152.6283154c-1.2690665-.9457859-2.5336767-2.0849547-2.9972684-3.646785.3072132.1160849.6323226.39602.9668398.5479663,6.4802956,1.7607905,12.0769013,5.4520343,18.241196,7.9861105,2.6512739.9217637,5.572534.7503326,8.2347328-.0097339-.6254846.4721016-1.5596455.7834728-2.3335379,1.0835274-4.5023477,1.7934758-9.193947.033945-13.4262522-1.6706328-2.9696492-1.2533254-6.0544449-2.3938525-8.68571-4.2904525Z" fill="#423b30" stroke-width="0"/>
      <path d="m53.8569317,141.2220531c2.3304564-.4242574,6.1320226-.7581882,6.7974128,2.2344031-.6594348.1184234-8.0921939-1.288634-6.7974128-2.2344031Z" fill="#423b30" stroke-width="0"/>
      <path d="m53.4182644,141.6005515c.0724063-.7961901,1.2176207-.9186433,1.8398153-1.0667327,1.7362332-.3144822,3.805807.2925914,4.7050621,1.9046094-1.9785701,1.0000541-3.9216225-.6741282-5.9297122-.7337578.064861.0898.2115027.1624534.2199909.2503606-.2533835-.0336003-.759724.0044099-.8351561-.3544796Z" fill="#423b30" stroke-width="0"/>
      <path d="m57.1148295,140.707033c-.1740048-2.1030831,1.7831143-3.5295476,3.3037359-4.5945948-.0183788-.0233337-.09882-.0205184-.0705528-.0555446.6664036-.2876356-.0651367,1.4824426-.1245515,1.6393485-.2529697.784199-.5494502,1.5088402-.7211635,2.3111128-.1410713.673954-.1356966,1.4112959-.3771234,2.0498173-.8556153.5466105-1.9309265-.4580439-2.0103448-1.3501393Z" fill="#423b30" stroke-width="0"/>
      <path d="m109.1129391,70.9832865c-.3264469-.5030619-.5313291-1.2151426-.4811136-1.8181506.0265217-.0874584.1141177-.0296079.1316798.0306317.8254275,1.1802346,2.4426277,1.8616669,3.7257524,1.1194691.8208267-.3885689,1.6494941-.7532884,2.5470963-.9002416.0393628.2432774-.0002494.5375905-.0511366.7933922-.5236724,2.8104616-4.5104088,3.116432-5.8722782.7748992Z" fill="#423b30" stroke-width="0"/>
      <path d="m111.0337211,67.0137526c.0199125-.6623847,1.1480459-1.0771974,1.662126-1.3911386.1088702-.0724062.1914501-.1684158.2434442-.2884599.0783835-.7400035-.0154587-1.435302-.166518-2.1466543-.0299769-.0429919-.0043238-.1016186.0465899-.1078604.8240077.3225574,1.716796,1.4315616,1.8343946,2.3352165.3119594,1.9385168-2.4694064,3.349179-3.6200367,1.5988967Z" fill="#423b30" stroke-width="0"/>
      <path d="m100.0846019,65.4919625c-.322416-.6998912.2290983-1.5865098.5887333-2.1564321,1.1911111-1.8280597,3.6200714-3.1871394,5.7531822-2.215163.8608407.3632349,1.488443,1.2637614,1.8055041,2.0779046-.7358026.0165311-1.4381936-.0932975-2.1659698-.071498-1.469656.1072861-3.251827.401565-4.110295,1.7239292-.2943281.7000938-1.3360583,1.6300756-1.8711549.6412593Z" fill="#423b30" stroke-width="0"/>
      <path d="m115.0857674,62.4011801c-.3434838-2.0626142,3.3001787-4.3465976,5.140803-3.3798215.5677917.2168036,1.1195183.7692784,1.3978328,1.2792731-1.0960539.4217973-2.2901547.5118058-3.4038781.8925123-.5838719.2458859-1.2913944.4083037-1.6967063.9205564-.3036321.4650171-1.1024433.985431-1.4380513.2874796Z" fill="#423b30" stroke-width="0"/>
      <path d="m120.4976687,58.957705c-2.2707317-2.2839188-.3670899-5.589729.9689823-7.8666111.4189986-.617291.8047237-1.2967962,1.471009-1.6906366.2812445-.1773796.2894702.0431694.230127.0168436.0010385-.0021163.0013148-.0029089.0010117-.0045225-.0035219-.0087092-.0104746-.0156101-.0158978-.023447-.0063692-.0012925-.0126527-.0023242-.0187162-.0026233-.0222079.0161512-.0471099.0329605-.0681743.0427914-1.4307611,2.988727-1.7173129,6.4024323-2.5683417,9.5282055Z" fill="#423b30" stroke-width="0"/>
      <path d="m113.2595085,76.9799171c1.0499597-1.6153612,2.3438334-3.0059935,3.7523667-4.3032528,2.9136343-3.2172601,3.1006234-7.710575,3.9082876-11.7514555.0016416-.0111023.0191175-.0142019.0206563-.0014921.5017425,3.2882882.917358,6.6682765.0047518,9.9218349-.920268,3.3592179-3.957605,6.6932485-7.6860625,6.1343656Z" fill="#423b30" stroke-width="0"/>
      <path d="m98.2603733,74.8080383c3.1239202-.3437517,6.3719772,1.60481,9.4268905,1.7696778,2.6890289.0880186,5.2990256-.5426007,7.965866-.3294485-3.0079373,3.0654113-7.9463638,3.4174099-11.6453203,1.3374493-1.8777985-.9865664-3.7526517-2.1296653-5.7474363-2.7776786Z" fill="#423b30" stroke-width="0"/>
      <path d="m121.9595721,56.8596372c5.4239837-2.9585041,5.8739124-3.2278381,5.4318005-9.3777571.0668599-.1089263.5004874.2778395.0892422.0887922-.0000315.0001084-.0000565.0001579-.0001373.0002102,1.0033893,2.0290713,2.0258495,4.3794112,1.0740962,6.6200011-.9914239,2.5441022-4.1439724,3.9747329-6.5950015,2.6687536Z" fill="#423b30" stroke-width="0"/>
      <path d="m124.3434864,50.2472894c1.8762237-1.189154,3.780256-2.6661887,3.752433-5.1086911.098965-2.1793698-.0453896-7.5296249-2.9436051-7.6400304-.1731846.1102502-.2126265.2961429-.2111814.4785254-.1054213-.1390108-.0793667-.4759721.102775-.6284911,4.5877186-1.6755362,8.5872407,14.6295058-.7004215,12.8986872Z" fill="#423b30" stroke-width="0"/>
      <path d="m87.9021542,64.4564521c-1.4198279-3.0319636,1.7897183-8.2801463,5.2905613-6.4698707,1.0911691.7241573,1.4118807,2.6808316.5571832,3.65839-.1276912.0481031-.1610565-.2241481-.0774639-.0749468.0072147.0036774.0133896.0068915.0194255.0106878.0082132-.003524.0167728-.0068729.0250975-.0103716.3374966-1.0468008-.4834668-2.8962956-1.7937729-2.5056601-1.276206.5213793-1.8492303,1.9979833-2.0053426,3.2688586-.0343082.7851181.1283519,1.4365211.4833573,2.0338741.6707169,1.0087618,1.7222931,1.8345589,2.4742849,2.7221038-1.8382359-.1380976-4.17786-.7188657-4.9733302-2.6330651Z" fill="#423b30" stroke-width="0"/>
      <path d="m91.8104647,57.4230553c-.6882606-1.2858808-.5582844-3.3515734.6610968-4.2039807-1.2237489,1.5941472-.1986106,4.2894448,1.701653,4.8174419,1.6287761.4361517,3.1120041-.8356301,4.1136644-1.8982542,1.1955338-1.5080108,2.4408268-3.5018046,2.3680945-5.4256213,5.0983962,3.6441844-5.5283852,13.2754805-8.8445086,6.7104143Z" fill="#423b30" stroke-width="0"/>
      <path d="m114.1862401,51.2331131c-.7239816-.9865559-.6775538-2.4819033-.4227057-3.5863224.7563159.8569174,1.2005704,2.060088,2.2289531,2.6361756,2.0144207.796678,4.2907774-.378734,5.654117-1.877193.8725976-.9611472,1.4800769-2.116258,2.2761613-3.1298098.0496949.0189637-.0646987.1642098-.0661058.2172237-.6098627,1.9313501-1.2498845,3.9969493-2.8551996,5.3502735-1.8041889,1.5291431-5.082998,2.5184251-6.8152204.3896524Z" fill="#423b30" stroke-width="0"/>
      <path d="m104.6139284,51.5846484c-1.0227972-.7926082-2.0569726-1.7535405-2.7916207-2.7629503,2.5796187.3429847,4.7410891,2.0314176,7.2959935,2.3362453,3.1281779.2357657,5.0787203-2.6609122,6.0172359-5.2768415.0715082-.2749611.2293531-.657177.0890333-.9531567-.0097279-.0018403-.0201028-.0031998-.0311965-.0046739-.0101574.0057108-.0205375.0113091-.0335412.0155814-.0004018.0097713-.0470728.0502247-.0413344.0108969.2956816-.3298287.3621038.4958209.354142.6681046.0014459,5.909709-5.8693119,9.9251927-10.8587119,5.9667944Z" fill="#423b30" stroke-width="0"/>
      <path d="m80.269309,69.8929077c.9551506.5378948,1.8250265,1.563354,2.9421135,1.7416166,2.2212552.231212,5.3916171-.0165436,6.5310023-2.1961103.3149745-.8745428.4059917-2.2068427-.326233-2.8381445-.0825017.0118106.0396481-.0742056.1289542-.0217675,1.0435183.7502569,1.2906763,2.2921278.9772127,3.4810452-1.0482725,2.8614372-4.9156801,4.0050058-7.6692958,3.3068237-1.4928096-.4590672-2.1938446-2.0667321-2.5837539-3.4734633Z" fill="#423b30" stroke-width="0"/>
      <path d="m75.3109207,68.9068006c-1.6724384-2.3223755.5572981-9.7884431,4.02572-7.7135301-.1739924-.0143564-.4566613-.1764225-.6954813-.1705329-2.9847221.3134584-3.5614154,7.983958-.1076316,7.8186363,1.6401664-.1740808,1.9768454-.4626188,2.1284556-2.0466229,3.4317257,3.6747053-3.7605762,5.6835568-5.3510627,2.1120495Z" fill="#423b30" stroke-width="0"/>
      <path d="m73.9816155,59.588956c-.963566-2.2171327-.3489523-4.8497274.8313467-6.8622937.6039642-1.0533524,2.0015028-2.4569068,3.1534664-1.2898727-2.5514535-1.1329786-3.154364,4.4341209-2.8005522,6.057861.1492195.6706802.4642327,2.079891,1.359306,1.7559735.4659913-.6460848.3087017-1.5963361.5620931-2.351797.773488.8150097,1.7246162,2.3508285.9074195,3.4614397-.9986201,1.5966569-3.4406521.8123089-4.0130795-.7713108Z" fill="#423b30" stroke-width="0"/>
      <path d="m73.5897907,50.7537148c-4.4262919-3.7411963.377564-12.8943789,5.9360816-9.29783-.8761875.2499075-1.9464882.3111933-2.7397885.6754856-1.1636246.5833437-2.1473201,1.5439617-2.7841739,2.6774524-1.7797299,3.2109587.0753848,6.9032536,3.8398103,6.9044719-1.4014439.3545482-3.1137273.0625976-4.2519295-.9595799Z" fill="#423b30" stroke-width="0"/>
      <path d="m76.5538383,42.0392851c-2.0600252-4.0746132,1.5100601-9.7861162,5.8603727-10.4774948,4.4461879-.7529516,6.4107905,4.9332555,2.5457223,7.1610214-.7208093.3874132-1.482461.6746376-2.2770674.8616825-.0122363-.0758187.1260718-.1872271.163167-.2676325.966572-1.4097929,2.8669727-3.8469823,1.0165077-5.269258-.000025.0000495.0000778-.0237625.0000533-.0238371-2.6049827-.8110219-4.934313,1.515808-6.0800415,3.6133679-.9907246,1.6063648-1.6223576,5.7797149,1.4683562,4.480468.1514494-.0441435.3564706-.236214.4692973-.2282235-.8196842.8938945-2.3814502,1.3167201-3.1663676.1499061Z" fill="#423b30" stroke-width="0"/>
      <path d="m85.8348423,32.5315855c-2.4922373-4.9243025,8.1318832-9.0434301,11.3513666-6.0120323.3558443.3110983.4335731.6924336.4570551,1.1338844-.0824195.0042703-.1880506-.1651427-.2621981-.2010327-.5054476-.3469668-1.1864899-.2135802-1.753222-.2175893-2.2727125.068324-4.5956862.1526038-6.6730207,1.1422352-1.6315249.7034249-3.9383854,2.6028929-2.4550109,4.4087384.2515701.2554454.5322914.480817.8185434.7063737-.4582022-.1355015-1.1800161-.5008399-1.4835134-.9605775Z" fill="#423b30" stroke-width="0"/>
      <path d="m98.9272692,28.4052659c-1.0079809-1.5759253.4817352-3.5405231,1.8571489-4.3351689,3.8543022-2.7189076,12.0844463-.9559833,10.1275205,4.9393281-.267889.7208207-.7211471,1.4913558-1.1900308,2.0633614-.1818707-1.424387-.1127456-3.0550203-.8735203-4.3155909-1.6441764-2.6664555-5.9586418-2.4242959-8.3317654-.9851041-.8252516.5430953-1.7421506,1.7398816-1.0227422,2.6768333.2887332.3316818.8497292.4003443,1.1594726.593992-.6148166-.0699491-1.3394405-.0773807-1.7260832-.6376508Z" fill="#423b30" stroke-width="0"/>
      <path d="m117.7505696,34.8971756c-.9088849-.5160654-1.0859421-1.8057422-.3429791-2.5386756.1483876-.5070614.2033947-1.0449736.1129232-1.568693-.3691875-2.7938551-5.9778574-3.802365-7.6016032-1.9589832.1402983.2923333.615461.239591.8236005.3766671-.5162358.069209-1.3705752.1306085-1.2594109-.6485099.6120267-1.536252,2.6185406-1.9677493,4.0835158-2.2950978,3.251813-.6310454,6.9344447,1.6112936,7.0553482,5.086441,1.1421412.29641,2.0535558,1.1257568,2.699092,2.0865865-.7723286.3673098-1.6742161.4769848-2.5115973.678207-1.060491.2941324-1.8859375,1.5345604-3.0588893.7820581Z" fill="#423b30" stroke-width="0"/>
      <path d="m126.6787461,38.793834c-1.5527769-1.1481517-.6205791-3.7600651-2.4396656-4.6624483.2412781.4187521-.3732565-.0842728-.0871755-.1983672,2.2127437-.1709394,3.535587,3.1551455,2.5268411,4.8608155Z" fill="#423b30" stroke-width="0"/>
      <path d="m92.1724996,36.1999089c-1.0866711-1.9327949-.2462477-4.5080339,1.5406526-5.7082456,1.1671095-.864874,2.6138794-.2788692,2.6569026,1.2353686-.101584-.0927615-.1594584-.4018542-.2737145-.5441805-1.5008506-2.0267817-3.4659338,1.7876185-2.844537,3.2436684.2579456,1.148813,1.3435468,1.8498035,2.4624973,1.7033872,2.4179582-.4422723,4.5477754-2.2239631,6.0440718-4.1097281,1.2517222,4.8487875-6.9588515,8.7545956-9.5858728,4.17973Z" fill="#423b30" stroke-width="0"/>
      <path d="m108.56323,37.3538582c-2.1550173-.051669-4.2292092-2.2177978-3.4357891-4.402653.2990049-1.2720817,2.5991353-2.9197494,3.0029829-.983949-.6167341-1.1111457-1.7363238.1257306-1.7881878,1.0071887-.1870524,1.0775011.7463199,2.0290933,1.7589428,2.0642223.3845451-1.4361674,2.2792854-2.4212912,3.5624031-1.4926095,1.7263827,1.4014498.2523891,3.513418-1.5985095,3.7516766-.1470028.4103788-.3249068.8712009-.5643693,1.2126948-.3703467-.3475122-.6866967-.731651-.9374732-1.1565709Z" fill="#423b30" stroke-width="0"/>
      <path d="m121.0031666,43.8113758c-.4221499-1.5013606.1568306-3.1912838-.4358694-4.6152117-.5380549-.8781382-1.6841311-1.6190772-2.6964275-1.4511662.0001716.0004596.0003313.00082.0005032.0012176.1474017.1896231.4703078.3306672.5488653.5200179-.3028092-.0933821-1.0551873-.1156799-1.0660959-.550776.0891787-1.256914,2.2068972-1.0058401,3.0669492-.7328356,3.2541161,1.1913634,2.8749919,4.8251982.6008045,6.8383754-.0062837.0047478-.018956-.0016569-.0187294-.0096213Z" fill="#423b30" stroke-width="0"/>
      <path d="m106.228503,45.9242972c-1.9129412-1.9180186-.012209-5.4720492,2.5317959-5.4579173-.1958153.1137275-.5642385.1796802-.7876098.3561686-1.5863201,1.025597-2.2656022,4.0093203.0538152,4.519035,1.8179008.2720295,3.7779617-.5257728,5.3440419-1.2326304-.5699051,3.0036424-5.1111924,3.8739932-7.1420432,1.815344Z" fill="#423b30" stroke-width="0"/>
      <path d="m88.5994244,48.6662682c-2.3262986-3.5528058,2.4881299-7.397868,5.7390652-7.7508817-2.015424,1.0015941-3.8788583,2.9084085-4.3542397,5.0976752-.2067089,1.045629.4849201,1.5425623,1.419,1.1666118.083318-.0342677.1666982-.0685971.250066-.1029017.1233303-.0606855.2440866-.122672.3640642-.1881593-.5785977-2.6164631,2.7630005-4.0271782,3.6888223-1.3523391.5106241,3.3425248-4.9320906,5.6496271-7.1067781,3.1299948Z" fill="#423b30" stroke-width="0"/>
      <path d="m83.0742425,52.9079274c-.4990712-.818538-.2132882-1.9697168.4407676-2.6204964-1.9748552-3.2392708-.7732008-7.4408188,2.5410836-9.2442725-.8699435,1.1680048-1.8317319,2.5987658-1.9249019,4.1539512-.201014,1.6197204.5700735,2.9908404,1.3602161,4.3176794.7323399.8258453.7168143,1.8165883-.3808551,2.2822209-.4871383.5285062-1.1395004,1.2696317-1.9037821,1.2323377-.0431404-.0218035-.0853401-.0604081-.1325281-.1214204Z" fill="#423b30" stroke-width="0"/>
      <path d="m81.2441882,62.4760431c1.9228176-.7779085,4.2716584-2.2719118,4.4185396-4.5561101.0564701-.9141803-.3375189-1.7263115-.7050293-2.5240038-.0149034-.1015278.1444817.0041335.1377269.0462103,1.7360889,1.3020126,2.2203398,3.7609805.9857966,5.5687361-.9615852,1.6508909-3.1490729,2.7228449-4.8370337,1.4651675Z" fill="#423b30" stroke-width="0"/>
      <path d="m127.6611421,67.6035368c1.4043743-3.828913,3.038266-7.7209924,6.0020975-10.6248056.8918224-.7861541,2.284203-2.3193104,3.5061099-1.6882016-1.0686922-.1849308-1.7939983,1.1177924-2.381095,1.8234189-1.521849,2.2084378-2.5540755,4.6847805-3.6344909,7.1280056-.6444207,1.5389275-1.8807604,2.9210397-3.4926215,3.3615827Z" fill="#423b30" stroke-width="0"/>
      <path d="m117.7346961,73.669221c1.6368206-2.4904543,4.419698-3.5028369,6.9112065-4.8813261,2.7399862-1.7297514,4.5222573-4.3930709,6.5345793-6.8337584-1.3947169,6.4802729-6.1562529,11.8848002-13.4457858,11.7150845Z" fill="#423b30" stroke-width="0"/>
      <path d="m114.3544715,85.214634c2.8748206-1.5995835,6.1877037-2.03834,9.1650244-3.4011422,2.2085292-1.1339368,4.642854-2.2446119,6.283601-4.064455-.0006025-.0012056-.0008398-.0022577-.0001768-.0035695l-.0031743-.0016043c-.0015669-.0047693-.004735-.0063704-.0079031-.0079716.4207461.023694-1.4786578,2.3305392-1.7048503,2.5629623-3.3376964,3.5710107-8.8064976,7.0851226-13.732521,4.9157803Z" fill="#423b30" stroke-width="0"/>
      <path d="m131.7420473,72.4451864c-.7113923-11.2164147,5.9510393-21.9812199,16.0410683-26.781842,1.3172752-.6547132,2.6519577-1.2966512,4.1073266-1.5792935.0715046-.0155663,1.0514459-.1208736.8849923.1927326-.0182547.0197649-.029356-.0115741-.01894-.0254817l-.0016012.0031681c.0000172-.0068584-.0021428-.0150037-.0017184-.0242664-.008279-.0128225-.015971-.0237326-.02425-.0365551-1.3071546-.0952123-2.4566239,1.0042908-3.5477931,1.6075057-2.4494322,1.7286926-4.7144582,3.5459556-6.7164009,5.752814-5.5012546,5.8469842-7.4570688,13.8378235-10.7226837,20.8912184Z" fill="#423b30" stroke-width="0"/>
      <path d="m134.8019453,91.1920242c-7.0065578-6.7814806-4.4227733-20.4818389-.875157-28.5186036.6968454-1.5475441,1.4363082-3.242306,2.4928291-4.5072357-.2524708.5307098-.4643823,1.06632-.6621051,1.6205051-2.4225602,8.1739294-3.4639913,17.0520132-1.0114219,25.3390497.5617025,2.7924661,1.6850467,5.3833383,2.8562519,7.9626349-.9483167-.483357-1.9287143-1.2089833-2.8003969-1.8963503Z" fill="#423b30" stroke-width="0"/>
      <path d="m149.4498032,45.5053399c10.8344602-9.2725303,29.0870439-4.0422685,37.6404459,6.0618766,1.1409682,1.3683138,2.1898458,2.9787205,2.9904529,4.4944427-.7500048-.9398618-1.5207563-1.8544132-2.298043-2.7246172-5.4187361-5.7042058-13.1945789-8.7810069-20.9152496-9.5723532-5.8374924-.2846308-11.7563584.6134333-17.4176063,1.7406512Z" fill="#423b30" stroke-width="0"/>
      <path d="m189.7518533,92.2053532c7.0250571-14.9350625,5.5067533-21.0064447-.1154592-35.7513914-.5336597-1.5443726-1.1963719-3.1332438-1.6480633-4.6391255,6.3067248,6.3692694,9.0791849,15.8894989,8.3213349,24.7168876-.8571701,5.6157725-3.4794807,11.0168188-6.5578123,15.6736293Z" fill="#423b30" stroke-width="0"/>
      <path d="m149.3649662,104.1175972c3.7974974,1.4447075,7.9812847,3.0573358,12.1593691,2.9197593,7.6308876-.3199556,14.7595377-3.5606708,21.3846947-7.1299641,1.1264187-.675542,2.3059342-1.43782,3.4365257-2.0054809-.7390481.9350215-1.5112755,1.8333873-2.3134596,2.7128218-4.3349456,4.4665169-10.7037151,6.4799651-16.7011851,7.4996793-6.3199535,1.2807183-12.5714556-.7375616-17.9659449-3.9968155Z" fill="#423b30" stroke-width="0"/>
      <path d="m184.1434914,49.9454546c.0050183-.4270155.3844532-.8000273.6509242-1.1147892-.0032023.0063362-.011174.0142393-.0143763.0205754.1731665-.1965488.3566436-.494653.5487482-.6135807-.0714453.3695788-.1682353.7263482-.3126896,1.0749991-.0690099.305308-.6604401,1.2563332-.8726065.6327954Z" fill="#423b30" stroke-width="0"/>
      <path d="m173.7947823,105.0004197c.3188902-.2732607.8135095-.5925941,1.1556465-.7204611-.1671338.1522737-.3342307.3045972-.5003559.45881,7.7656972-4.5367749,13.274225-11.755463,17.7117959-19.4216738.6068419-1.0390649,1.2205027-2.1925118,1.8592991-3.1496453-.0057658,9.1102706-7.0357238,16.2884584-14.4543196,20.6275997-.5750605.3393632-6.0639234,3.3300813-5.7720659,2.2053705Z" fill="#423b30" stroke-width="0"/>
      <path d="m76.187858,57.1287286c-8.6636945-13.2232252-8.2396358-14.601855-22.232446-22.8387571-8.600748-5.909415-13.8978634-16.6394392-12.3992235-27.0840136.5024329-2.4368245.813584-6.0285119,3.328525-7.1911334.2987937-.0796726.6135899.1788611.8000958.3685785.0110712.0095728-.001704.0269801-.0127875.0174011-.0674088-.0627181-.1417327-.1037-.2199469-.1628681q-.0016012.0031681.0015054.004645c-2.4167832-.680357-2.958337,5.3746175-3.089241,7.0030493-.578567,8.7653696,3.6550963,17.312203,10.312021,22.8752573,2.7308227,2.24907,5.6815101,3.6457217,8.6535601,5.4346522,9.0116325,4.5860241,12.1910209,12.4323186,14.8579376,21.5731888Z" fill="#423b30" stroke-width="0"/>
      <path d="m39.8234118,33.764122c-8.2330781-7.2000519-8.6572613-26.8666948,1.3431947-32.7267451,1.1769948-.5892019,2.5356082-.2184977,2.5773766,1.258875-.1179111-.1977433-.1978021-.6413228-.4106767-.8422231-1.9419553-1.4169345-4.1193058,2.1851889-4.9942477,3.6118351-2.4861496,4.5630627-2.9773082,9.9360705-2.0773427,14.9892432,1.0534647,5.1547717,2.1510034,10.250128,5.0775425,14.6149012.8433792.8945189-1.3101338-.6519907-1.5158467-.9058863Z" fill="#423b30" stroke-width="0"/>
      <path d="m39.9668411,49.575596c-6.7909231-3.7435344-11.4295465-14.6292799-9.7482611-22.1367266.5692563-2.9797645,4.464737-5.759644,6.7537718-2.7395553.6149114.8524437.81592,1.9059533.6254248,2.9332717-.0262612-1.328806-.7295168-2.8961109-2.1893663-3.2505214-1.4996921-.4333993-2.79089.9033688-3.2434088,2.1634583-1.6944359,6.0431083,2.3817203,13.0436334,5.1632085,18.2227874,1.4282231,2.2967337,3.1832489,4.1564742,4.9443052,6.1555871-.7471287-.3240115-1.560798-.8895853-2.305674-1.3483012Z" fill="#423b30" stroke-width="0"/>
      <path d="m36.888522,64.055489c-4.652073-3.2592984-8.1448128-9.6273223-6.1996005-15.3000748.688227-2.0362643,2.6448033-3.7593143,4.8947688-3.4366165.7717333.098141,1.6366443.282682,2.3626021.2835089-2.1520135.3176669-4.1751362-.238679-5.4039621,2.0718981-1.6135769,3.0244441-.4634523,6.6581023,1.2103056,9.3873296,2.691232,4.6192269,7.5507167,6.9832405,12.0939505,9.2820664-3.0249165-.0862563-6.3391518-.5840369-8.9580644-2.2881117Z" fill="#423b30" stroke-width="0"/>
      <path d="m42.0942282,83.0868005c-5.2920418-2.9326984-9.0638203-9.1315497-7.7128456-15.2492711.7415376-4.9673443,5.872021-4.4151341,9.5517109-3.2783952-2.7410422-.1143686-7.5923728-.6668125-7.7997547,3.2117113-.947354,9.5685217,9.3132075,15.0218559,17.3513395,16.7414919-3.7231294,1.0339347-7.9734324.4790624-11.3904501-1.425537Z" fill="#423b30" stroke-width="0"/>
      <path d="m49.7105933,94.1182973c-2.7656485-2.0192066-4.7396792-6.0988003-2.6303121-9.2282975.5023277-.754684,1.4221234-1.1744889,2.3170601-.9409965.4783223.1375603.9168763.3455678,1.4194236.3157391-.6775622.3385486-1.7214455-.1748997-2.3717403.414827-1.9004149,2.1675317-.0344773,5.4040193,1.9250773,6.8323345,3.6821558,2.593906,8.3331664,2.5682929,12.6364524,2.827189-4.0371393,2.1734575-9.4676476,2.7963631-13.295961-.2207957Z" fill="#423b30" stroke-width="0"/>
      <path d="m63.5286958,100.5097593c-1.6596315-.9422009-3.2364631-2.6777938-3.0991615-4.6964995.0661805-.988726.8684968-2.2377991,1.9216497-2.3777278.0393778.0200261-.0809554.0644527-.1115027.078906-.8315196.538467-1.1811393,1.8136168-.8548149,2.7458578.399327,1.0178594,1.2505261,1.6839052,2.1348328,2.2136187,2.7746758,1.5886242,6.0106981,1.6707068,9.0919844,1.8256301-2.671112,1.8092438-6.3152901,2.0794115-9.0829877.2102146Z" fill="#423b30" stroke-width="0"/>
      <path d="m55.5719442,55.1257267c-3.6074456-1.9636565-5.916846-6.4351295-4.8123111-10.482266.4891076-2.8091319,4.4022725-5.5886498,6.4515235-2.5979913.2632845.4234112.8901359,1.5754662.2107516,1.9281332-.2641161.1369723-.5793828-.3803257-.7025267-.5380817.0627424-.025619.1784513.1277888.2612002.1678707-.0007587-.0023721-.0011504-.0035644-.0017423-.0043607.1088075.0656502.2110289.1687703.345092.1586892.0119654-.0108252.0239184-.0216566.035921-.0324941-.0656585-1.3013937-1.7939859-2.2666928-2.9176269-1.5996902-3.2754178,2.4877775-1.3764396,7.3042729.8840704,9.8386624,1.7017112,1.9797076,3.8359766,3.5145317,5.7147884,5.3172039-1.8304418-.4525314-3.7563423-1.2531618-5.4691403-2.1556753Z" fill="#423b30" stroke-width="0"/>
      <path d="m58.497251,66.3898323c-2.2993494-2.4607694-3.1774754-8.3497961.9674797-9.3429294.3713669-.0497364.8916683.024561,1.172387.190916-1.6981715-.136352-2.6991624,1.6446429-2.5032835,3.1559749.186956,3.9562213,4.1705853,5.5214211,6.5300994,8.0229066-2.234521.8738407-4.7373048-.1642919-6.1666826-2.0268682Z" fill="#423b30" stroke-width="0"/>
      <path d="m65.5302653,76.8512243c-1.1232533-1.2637415-2.0280336-3.1250145-1.7982873-4.8623276.1574848-1.1772504.7620747-2.2239711,1.780796-2.854573l.0016788-.0031988c-2.4482926,3.9010779,2.3362892,6.5363792,4.8964024,8.651288,1.884104,1.8810716,1.7287318,1.8571093-.8468472,1.6643219-1.6411746-.2524461-2.9676351-1.4009913-4.0337427-2.5955105Z" fill="#423b30" stroke-width="0"/>
      <path d="m71.7115415,86.7053056c-1.6387734-1.665601-1.8790033-4.7319492-.5173077-6.6332215.3668685-.4032347.7713739-.6999383,1.3325362-.5117786.0305499.0309145-.0334236.0199599-.0319973.0235317-1.7764201.3949797-1.0711258,3.3833776-.6951058,4.6289052.449297,1.3853826,3.096984,5.1750713-.0881255,2.4925631Z" fill="#423b30" stroke-width="0"/>
      <path d="m46.1743941,55.8298707c-4.260166-2.9323431-4.5203602-9.2841681-3.0358749-13.808655.6919482-1.783532,1.7614953-3.9486166,3.7973037-4.3887682-.2192743.1467715-.6288548.2601591-.8723393.4818229-3.4712389,3.6055607-3.1102536,9.7073309-1.2441307,14.0307103,1.0322068,2.1459977,2.9594628,3.6525749,4.3797869,5.4440716-1.0673974-.4798341-2.0543397-1.1057614-3.0247457-1.7591816Z" fill="#423b30" stroke-width="0"/>
      <path d="m51.8933989,73.7492592c-4.2289258-2.3811291-5.3175775-10.0839819-2.0192822-13.5611561.1321406-.0883233.3449162-.1001048.4975134-.1343153-.0841869.1522473-.3865975.1999745-.4611383.4010108-1.4175044,4.1066872.5361112,8.723747,3.0700133,11.9545666.699677.8477123,1.5060226,1.6503684,2.0990023,2.4887524-1.0746793-.2460009-2.2236911-.5676421-3.1861085-1.1488585Z" fill="#423b30" stroke-width="0"/>
      <path d="m62.7602982,91.5626233c-2.5573186-1.5872146-4.287924-4.5129047-4.4632122-7.5138975-.0891927-.8228334.1692231-1.7050493-.1096985-2.4909986-1.425893-1.2017278-3.9811901-3.199761-2.27967-5.1837471-.392528.9122832.0785669,1.9771347.9161981,2.4994782.8641601.6436598,2.0743724.8055688,2.83477,1.5838917.6876785.7261424.7913834,1.7612672.9340965,2.7094959.2655218,1.5743946,1.0057801,3.0252649,2.0052446,4.2583778,1.7912912,2.1640643,4.093918,3.9518042,5.9534724,5.9863975-2.0357108-.2719899-4.0259835-.7929962-5.7912009-1.8489978Z" fill="#423b30" stroke-width="0"/>
      <path d="m140.5300781,92.5042745c-3.984249-8.0821761-3.8329273-17.4256644-1.8306013-26.0378212,1.8589178-9.0158113,7.5286685-16.3290441,15.8353761-20.3074498,1.5726379-.7923185,3.4096133-1.485592,5.1228954-1.4795977-1.1922737.1752948-2.3200449.5809066-3.3814737,1.1267527-5.3307146,3.0237585-10.1926512,7.3330582-12.7308318,13.0058803-4.5223161,10.5105807-4.0279939,22.5971394-3.0153648,33.6922356Z" fill="#423b30" stroke-width="0"/>
      <path d="m146.2142318,90.0068836c-3.5660034-10.6309974-1.4133454-22.780705,4.6929245-32.0678414,3.0291347-4.2639309,7.0163361-7.7949402,11.3097194-10.738233,1.2732577-.8252864,2.7025623-1.6263472,4.0636333-2.1223447-.9296857.5000549-1.8311307,1.0301213-2.6943381,1.6331916-15.4493559,11.366959-17.6646384,25.3077522-17.3719392,43.2952274Z" fill="#423b30" stroke-width="0"/>
      <path d="m153.51814,90.9951782c-.3305374-15.6318525,6.5610974-31.5557213,19.1746463-41.0319572.7346895-.4984906,1.5402164-1.1122403,2.2843657-1.4505386-.9124316.5942879-1.7377147,1.30412-2.5651837,2.0089321-13.5518512,12.7639137-14.3673264,23.8849397-18.8938283,40.4735637Z" fill="#423b30" stroke-width="0"/>
      <path d="m154.9691179,94.0713169c13.474462-15.0196122,19.2255031-19.7238957,23.8133027-40.5846234.1794213-.7232737.2512464-1.6189579.5161287-2.2408705-.1615995.979062-.2100726,2.0173498-.3419783,3.013035-1.5552339,15.9614277-9.4695634,32.0659123-23.9874531,39.8124589Z" fill="#423b30" stroke-width="0"/>
      <path d="m160.1567431,98.3862822c5.4322203-4.5677706,11.1822818-9.0508751,15.9139445-14.3284664,5.2031223-6.1503548,7.5580491-14.1166262,8.5726015-21.9784144.3449966-2.3705067.277257-4.8906681.2901142-7.2154921,1.3388735,11.5473914-1.152751,24.3661183-9.478351,32.9107089-4.2605202,4.5644445-9.4554932,8.4649519-15.2983093,10.611664Z" fill="#423b30" stroke-width="0"/>
      <path d="m160.0085536,103.8265463c7.55227-3.3138835,14.7398185-7.4940569,20.9895755-12.8776958,6.1196672-5.3028163,9.2709617-13.0998929,9.4594209-21.0913045.1093211-2.1937738-.1243893-4.4633183-.5912551-6.5279782.4389407,1.2877688.773129,2.5703228.9766671,3.914151,1.3810636,9.4721794-1.715987,19.5255614-9.0205729,25.8913518-6.0301274,5.5223273-13.443349,10.2599292-21.8125867,10.7124907-.0083162-.0042031-.0098672-.0184105-.0012487-.0210149Z" fill="#423b30" stroke-width="0"/>
      <path d="m165.3359388,46.87755c8.1973802.8629315,15.2094414,6.2603478,21.7032918,10.8226235-6.8589389-4.3465753-14.2447531-7.8514709-21.7032918-10.8226235Z" fill="#423b30" stroke-width="0"/>
      <path d="m147.7488991,51.1850754c15.6031284-4.0022731,29.9998912,6.6690161,40.6382232,16.9473355,1.0400511,1.0908968,2.2292997,2.2053696,3.1765782,3.299872-1.1686375-1.0480313-2.3564206-2.0739204-3.5297991-3.1125712-7.5854149-6.4360194-16.1554773-12.2856158-25.7281213-15.1984878-4.8140021-1.2816268-9.7059606-1.670808-14.556881-1.9361485Z" fill="#423b30" stroke-width="0"/>
      <path d="m138.2992359,56.5597908c17.6821938-2.20233,35.9139133,8.8496461,48.777854,20.1226406,1.0067836.9109194,2.1184057,1.919166,2.9943026,2.865698-.9996075-.8552143-1.9911748-1.7342065-3.0275571-2.5401438-13.9437892-11.1863003-30.862556-19.0903907-48.7445994-20.4481947Z" fill="#423b30" stroke-width="0"/>
      <path d="m135.5562504,65.8869664c13.4501424-2.4989907,26.9541113,2.8655911,38.0770428,10.1321732,3.1547806,2.0573741,13.4536083,9.6126474,13.1385238,13.1789178-.5478149-3.889281-9.6452977-9.3225505-12.9672911-11.5340384-11.5248633-7.0317178-24.8785182-10.8845132-38.2482755-11.7770526Z" fill="#423b30" stroke-width="0"/>
      <path d="m136.6356163,74.1176224c14.7166337,1.0372844,37.0593247,9.5592694,46.2750141,21.3995739-.3852932-.3614673-.7924587-.9655443-1.2146099-1.3590323-12.4951654-11.3400743-29.702768-14.5213005-45.0604041-20.0405417Z" fill="#423b30" stroke-width="0"/>
      <path d="m137.0406298,83.3769316c5.3813542-.9668361,10.6669107.4945765,15.5104232,2.8035663,6.2294697,2.7551315,12.0923255,6.3810481,16.9921919,11.1413048.9642446.9566616,1.9396289,1.9070213,2.8783077,2.8905972-1.0720548-.8712284-2.2319888-1.9386939-3.3498409-2.8626811-9.1471228-7.2678262-20.4250878-12.6228237-32.0310818-13.9727873Z" fill="#423b30" stroke-width="0"/>
      <path d="m204.6692082,58.0856162c8.7841607-5.5989544,18.0726384-10.8993036,27.8498938-14.4259315-7.0790918,5.8081627-15.4687001,9.5259475-23.8134722,13.1212048-1.2652939.5548755-2.5348899,1.1022167-3.7792413,1.7013597-.2260541.1026705-.4501603-.2200259-.2571804-.396633Z" fill="#423b30" stroke-width="0"/>
      <path d="m202.9983714,73.3734827c6.9574451-2.5763047,14.258399-5.3842037,21.7681295-5.2418768-5.9499919,2.9097619-12.5248976,3.9528547-18.9459536,5.3079475-.4803226.0126606-3.4368192.9644525-2.8221759-.0660707Z" fill="#423b30" stroke-width="0"/>
      <path d="m193.6779293,52.4533867c-.1413793-.2746399.4715342-.5438656.6430049-.7210741-.0464698.1576067-.2969398.3526684-.4062645.5332581,4.4301918-3.2963052,8.1631021-7.9536015,13.6180605-9.5186317-2.9061064,3.267612-6.6348979,5.6146689-10.2564061,8.0012191-1.056367.6129894-2.0751711,1.336038-3.2207296,1.7608586-.2029336.0604287-.2476323.0562794-.3776652-.05563Z" fill="#423b30" stroke-width="0"/>
      <path d="m200.372148,101.8640982c-.8767877-.6338606-5.1761885-3.3270328-4.2556875-4.4618416.207022-.1499187.4305947-.0886287.6397477.009062.8545555.4717654,1.5404537,1.2504922,2.2841898,1.8784454-.7176714-.3538608-1.5065873-.9535333-2.2892961-1.3161209,5.8468051,4.7267653,13.6632527,5.4879656,20.0157255,9.3126472-5.690847-.6093358-11.478877-2.3539419-16.3946794-5.4221922Z" fill="#423b30" stroke-width="0"/>
      <path d="m200.1726431,126.4924488c-5.1505015-3.0688542-9.2595923-7.5252136-12.9189068-12.2127333-.8738882-1.3055585-2.089634-2.7490928-1.9969892-4.398104.0114138-.0698007.1069703-.1408256.1752726-.1500558.187431-.0245909.3481468.2555026.4301836.3686188-.0756424.0202489-.2312316-.2465024-.3996203-.2345045-.0160872.0175667-.0318804.0359656-.0475882.0546873.0640535.9577863.8541104,1.7183716,1.3892414,2.4406619,4.3482069,4.7754867,9.899343,8.6540823,13.3684069,14.1314296Z" fill="#423b30" stroke-width="0"/>
      <path d="m168.7061138,165.4223186c-4.7486005-7.6464826-5.9141665-16.6519745-6.9089666-25.418592-.6404763-5.5433586-1.5792057-11.128678-1.3294716-16.7206123.0547918-.5433268.2165268-4.0411595,1.026162-2.3607636-.1094727-.0171475-.2172076-.2968139-.3534367-.3595749-.0109109-.0007292-.0218096-.0014212-.032857-.0021262-.5530574,2.9305909.448806,6.1851209.8835934,9.0965791,1.1070342,5.4347251,2.2993574,10.8045388,3.1985847,16.2729384,1.0534942,6.5011753,1.9300849,13.148071,3.5163918,19.4921516Z" fill="#423b30" stroke-width="0"/>
      <path d="m178.5473844,131.2856429c-4.1768521-4.4094052-5.9430137-10.3421078-7.8289671-15.9643204-.0565708-.1197903-.0175011-.3185799.1185242-.2344506.0724653.1181598.2747116.2930872.2760442.3981035-.0654972-.0566327-.1310473-.1132223-.1971273-.1684561,2.759689,5.169597,6.1767865,10.2843547,7.631526,15.9691236Z" fill="#423b30" stroke-width="0"/>
      <path d="m120.3139272,145.6966021c1.206587-4.4334379,3.0474078-8.6895132,5.2221647-12.7251094,3.9082056-7.0952849,7.925757-14.1777823,12.7196191-20.720633.6932293-.8894299,2.1339636-2.8305817,1.9731966-.3550009-.1207635-.2444814-.077443-.7032614-.2107248-1.0034523-.0393645-.0173472-.0787197-.0347129-.1182914-.0522036-3.3006536,3.9868441-5.2421353,9.2378342-7.8237442,13.7632157-3.5791377,7.1965938-7.6479367,14.2678567-11.76222,21.0931834Z" fill="#423b30" stroke-width="0"/>
      <path d="m145.7308726,133.8739602c-.9069628-5.9317842,2.208293-11.3024066,4.1996689-16.6732669.0021135-.2913589.1820622-1.2689774.509653-.797459.1048066,1.1627309-.289372,2.3403115-.4722832,3.4920646-1.0544705,4.7260579-2.3681705,9.5632504-4.2370387,13.9786614Z" fill="#423b30" stroke-width="0"/>
      <path d="m112.0220608,125.1340778c3.1461749-4.6573858,8.3290692-7.374465,12.0841246-11.4206833-.0027168.0008874-.0038349.0013167-.0046568.0020821.052427-.0809842.1062923-.1647527.1587568-.2458111.0099242-.0443513.0172339-.0878333.0260932-.1318606-.008245-.0005937-.0164149-.0013359-.0244848-.0022761-.2520123.1601797-.0937219-.0429632.0559379-.0560837-.1888063,1.3006425-1.5891488,2.3452861-2.3880985,3.3948326-3.0439409,3.0538333-6.0603184,6.491427-9.9076725,8.4598001Z" fill="#423b30" stroke-width="0"/>
      <path d="m175.9944153,38.5619434c4.9592393-6.5431724,8.0430262-14.6458362,13.7919944-20.5923588-2.4824927,6.7369843-6.5764398,12.7414511-11.1040192,18.2639889-.3592054.3094999-2.5450292,3.272941-2.6879752,2.3283699Z" fill="#423b30" stroke-width="0"/>
      <path d="m163.1174072,36.6958023c-1.1511687-2.6498042-1.0816889-5.7675626-1.3451728-8.6228242-.1446226-3.8731538-.0977985-7.9081998,1.0042686-11.6034556.9188134,6.1486653-.3619664,12.3452337.0797883,18.5247555.0976872.5573361-.0339853,1.3036238.3971971,1.7252917.0104656-.0009718.0205574-.002987.0310714-.0036858.008336-.0046893.0478688-.0550582.0490082-.0144604-.0464245.0997252-.153914.0375844-.2161608-.0056212Z" fill="#423b30" stroke-width="0"/>
      <path d="m147.2469807,44.7713858c-6.36185-5.9490899-8.3495291-11.9925373-10.2747978-20.2228296-.8164359-3.6439039-2.0903773-7.1666678-2.8741777-10.8074077-.0235725-.2911969.000427-.5140873.2823304-.6688546.7520594-.0877371,1.4560293.5699589,2.1649639.8159313-.6029514-.0934871-1.3342849-.4988424-2.0059306-.5238861-.0199666.0184026-.0398162.0370041-.0594429.0556717,1.1926872,3.9825304,3.2512198,7.7435318,4.350454,11.7967831,1.9914951,6.8473676,4.9199418,13.4206792,8.4166006,19.5545918Z" fill="#423b30" stroke-width="0"/>
    </g>
  </g>
</svg>