<?xml version="1.0" encoding="UTF-8"?>
<svg id="b" data-name="Layer 2" xmlns="http://www.w3.org/2000/svg" width="128.962" height="326.868" viewBox="0 0 12.896 32.687">
  <g id="c" data-name="Layer 1">
    <g>
      <path d="m12.131,27.405c-.148-.479-.315-.963-.477-1.433-.35-1.017-.711-2.068-.916-3.136-.486-2.534-1.167-4.954-2.08-7.397-.431-1.15-.855-2.007-1.376-2.778-.922-1.362-1.462-2.576-1.7-3.818-.342-1.786-.792-3.344-1.374-4.763l-.041-.101.099-.043c.511-.222.701-.634.6-1.297-.033-.216-.063-.433-.093-.648-.053-.381-.107-.774-.178-1.157-.13-.709-.276-.833-.973-.834h-.027c-.891,0-1.615.055-2.277.173C.725.278.344.483.152.8c-.203.334-.203.809,0,1.45.104.328.165.672.225,1.004.029.162.058.324.092.485.013.06.031.118.051.186l.02.064.711.314.008.062c.086.633.177,1.264.267,1.892.22,1.534.447,3.119.607,4.68.083.814.021,1.73-.182,2.649-.45,2.041-.902,4.424-.561,6.878.096.695.181,1.404.262,2.089.256,2.148.521,4.37,1.195,6.479.078.242.152.486.228.729.198.646.403,1.314.658,1.948.113.283.488.631.602.631.003,0,.006,0,.009,0,.158-.038.311-.054.459-.054.356,0,.688.09,1.012.178.208.056.422.113.634.144,1.361.197,2.43.028,3.368-.525.503-.297,1.001-.603,1.533-.928l.783-.478.054.025c.248.121.49.226.57.18.077-.044.107-.275.127-.496.016-.179.025-.384-.024-.56-.227-.801-.474-1.602-.728-2.421Zm-.25,2.687c-1.91,1.217-3.622,1.807-5.321,1.807-.765,0-1.528-.119-2.305-.355l-.057-.018-.017-.057c-.151-.516-.323-1.021-.504-1.557-.431-1.269-.876-2.579-1.014-3.99-.068-.694-.195-1.397-.318-2.077-.143-.789-.291-1.604-.347-2.417-.133-1.896-.22-3.912.28-5.877.081-.316.146-.644.209-.96.074-.369.15-.751.251-1.121.262-.957.256-1.996-.018-3.268-.212-.985-.432-1.969-.652-2.952-.165-.735-.329-1.471-.491-2.207-.057-.26-.1-.525-.146-.806-.018-.111-.037-.227-.057-.347l-.766-.124-.013-.078c-.032-.182-.065-.361-.098-.541-.076-.413-.155-.84-.208-1.263-.063-.504.194-.829.705-.893.607-.075,1.214-.154,1.837-.235l.924-.121.006.119c.012.237.019.464.027.683.016.46.03.894.08,1.317.175,1.494.381,2.966.56,4.209.042.292.1.588.156.874.079.403.161.82.2,1.237.071.764.346,1.504.889,2.402.303.5.645.989.975,1.464.202.289.404.579.599.873.063.095.129.189.195.284.226.325.459.661.604,1.031.116.296.233.591.351.887.661,1.658,1.343,3.372,1.641,5.201.214,1.313.515,2.638.806,3.919.116.512.233,1.022.344,1.535.168.778.345,1.555.518,2.315l.24,1.063-.065.041Z" fill="#728e0c" stroke-width="0"/>
      <path d="m7.633,29.337c-.513.071-1.034.166-1.538.258-.183.033-.366.066-.55.099.066.296.292.433.735.454,1.098.054,2.092-.185,2.96-.701.229-.136.452-.398.581-.686.006-.014.012-.027.018-.04-.614.497-1.217.538-1.75.574-.154.011-.306.021-.456.042Z" fill="#728e0c" stroke-width="0"/>
      <path d="m9.906,23.553c-.031-.305-.061-.604-.093-.893-.838-.403-1.465-.209-2.138.065l-.254.104c-1.198.497-2.436,1.008-3.825.452-.038-.019-.173.054-.253.095-.028.016-.057.03-.084.044.012.033.024.066.035.1.048.139.093.27.173.336.136.113.369.19.593.198.114.004.229.01.344.015.484.024.986.047,1.446-.053.737-.16,1.462-.385,2.163-.603.287-.089.57-.177.847-.258l.119-.035.94,5.412c.332-.836.423-1.681.279-2.576-.131-.812-.212-1.621-.291-2.404Z" fill="#728e0c" stroke-width="0"/>
    </g>
  </g>
</svg>