<?xml version="1.0" encoding="UTF-8"?>
<svg id="Layer_2" data-name="Layer 2" xmlns="http://www.w3.org/2000/svg" viewBox="0 0 409.7430729 647.2141325">
  <g id="Layer_1-2" data-name="Layer 1">
    <g>
      <path d="m115.0191957,76.900334c-.3898553-.4397643-.6573312-.9777077-1.0645307-1.1581141-1.4274779-.632449-2.2815704-1.9313929-3.2442204-3.0669443-1.2967942-1.529686-2.7495751-2.9112548-3.874911-4.6100896-.9141954-1.3800852-1.5515851-2.8074855-1.8233747-4.5304556-.3047281-1.9316659-.2458513-3.8583349-.3801243-5.7832296-.0530025-.7597364.1101515-1.5369022.1782466-2.3058014.1024492-1.1566542.2858902-2.312175.2968697-3.469666.0289814-3.0528323.7987826-5.8583653,2.3596083-8.5980352.9319743-.7869814,1.9750031-1.6677444,3.1688354-2.6758541.1343844-.3765657-.2555378-.8814959-.2292985-1.2582367-.9652472-1.3986184-1.8762769-2.6134685-2.6756949-3.906558-.8013686-1.2962259-1.1693764-2.8166987-1.662216-4.2609587-.8331813-2.4416373-1.2571008-4.9791749-1.3105492-7.5842967-.0105559-.513906-.0322919-1.0579084-.1948218-1.5312171-.2836831-.8261367-.2640538-1.6599703-.1887022-2.4903619.1042215-1.1485359.274175-2.2916641.4500363-3.4311486.2326313-1.5073192,1.0730468-2.7404325,1.8057853-3.9749226.803676-1.3539856,1.6843867-2.674912,2.5779942-3.963165,1.0728238-1.5466362,2.4173704-2.7955158,4.1548823-3.6398444,1.7621683-.8563199,3.5105704-1.7379278,5.3470871-2.3780055,2.073863-.7227984,4.1834289-1.3109418,6.4040381-1.2852606.8387212.0097002,1.7046068.0541201,2.501004-.3554243,1.156045.2012403,2.2811802-.1562259,3.4229017-.218202,1.8194957-.0987662,3.645044-.15495,5.4537163-.3673076,1.2276513-.1441397,2.4238801.0140661,3.621101.1435989,1.3255526.1434183,2.6361799.4479408,3.9509537.696438.3565267.0673835.7394599.1176922,1.0481451.2970474.4463801.2593524.9109405.2862535,1.3879629.3805355,1.1304522.223435,2.2564457.5082828,3.3544277.8707364.8640799.2852394,1.7036593.6223182,2.5976012.8324494.8109659.190627,1.5536918.6923459,2.3421638,1.0132831,1.6943407.6896539,3.412134,1.3157264,5.0953615,2.0341192,1.7363637.7410697,3.449821,1.5447342,5.1600792,2.3527212.8845786.4179093,1.7551124.8758107,2.6063402,1.3661423,1.6989554.9786453,3.4801957,1.787998,5.104669,2.9247986.7530477.5269825,1.6069507.9106339,2.4488375,1.2697302,2.2597006.9638968,4.2324632,2.4586053,6.3102053,3.7622122,1.8266296,1.146045,3.5035369,2.4917209,5.1093729,3.9605524.7767679.7104807,1.7040829,1.2316119,2.5036346,1.917269,1.1238757.9637974,2.1134561,2.1022745,3.3516521,2.9205451.151528.1001582.2727594.2545154.402217.3900368,1.2968722,1.3575641,2.5468838,2.7708701,3.9014066,4.0596572,1.3518031,1.2862204,2.5808589,2.7034996,3.736614,4.1616046,1.5573925,1.9648215,3.2787528,3.7722769,4.7763099,5.7885587,1.0472311,1.4099591,2.1223288,2.794133,2.9161512,4.4023225.560812,1.1361923,1.2693845,2.1893503,1.8367062,3.3223084.7061648,1.4101549,1.3347932,2.8643254,2.0430759,4.3996135.758309.1670718,1.5971193.0673379,2.5175234.0521161,1.3062131-1.1721371,2.6361687-2.3838984,3.987459-3.568118.4649728-.4074989,1.0067017-.7155072,1.4727669-1.1218014,1.8790636-1.6380901,3.7516621-3.2849156,5.6084323-4.9515739,1.5726858-1.4116622,3.1604642-2.814049,4.6859772-4.2729017,1.7712305-1.6938024,3.6508292-3.1909233,5.6214739-4.5864884,2.4240696-1.7166855,4.9750553-3.184971,7.5795229-4.5669048,2.8737269-1.524802,5.729463-3.0899046,8.4864841-4.8538133,1.6037627-1.0260762,3.2820522-1.9191205,4.9079523-2.9072372,1.0007717-.608201,1.9801863-1.2596461,2.9445306-1.9317875,3.4140067-2.3795663,7.0278066-4.2993574,10.8827092-5.7583065,3.3751493-1.2773782,6.8113825-2.2985318,10.2777563-3.2184471,2.6402707-.7006815,5.2985098-1.3279854,7.9588892-1.9378822,1.1847589-.2716125,2.3898047-.4607588,3.5937581-.6158045,2.28808-.2946559,4.5817334-.5403275,6.8737594-.7993858.3018745-.0341214.6091663-.0533163.9116428-.0354077,1.8077248.1070169,3.6265517.0889436,5.4044925.5439935.3521907.0901424.7165089.1696146,1.0763908.1754423,2.1927536.0355071,4.34636.4513186,6.4788323.9016047,2.5713173.5429416,5.0158076,1.5058548,7.0379723,3.397628.0454785.0425498.0968647.0784708.1476267.114018,2.1635939,1.5152253,3.656135,3.5472378,4.2573872,6.2659354,1.4650757,3.4274025,2.2060627,7.0791721,2.8933896,10.7414961.5794716,3.0875397.2590713,6.0386382-1.331962,8.7751688-1.0830119,1.8627346-2.1114274,3.7614585-3.2205448,5.744736.0098537.3701358.4820495.3696729.7291047.6131978.3109925.3065484.6563168.5734015.970475.8765911.269995.2605804.5163367.5488983.7744494.8235493.2143953.2281073.4839668.4197119.6366318.687289.532009.9324399,1.1875232,1.793649,1.6842418,2.725359,1.0122973,1.8986586,1.8909682,3.8813842,2.3223449,6.0628595.3508754,1.7742791.5700415,3.5679697.7721309,5.3579453.1425438,1.2624115-.0067549,2.5633909-.0412427,3.8466738-.0137773.5135529-.0706477,1.0257172-.1046674,1.5387538-.0212679.3206783.0221819.6609699-.0638036.9596967-.6905148,2.3986514-1.1762205,4.8871439-2.6509715,6.9499546-.2566413.3589612-.451307.7681455-.6745305,1.1541558-1.1672363,2.0182847-2.7578459,3.5642369-4.633677,4.8207496-1.4327949.9597501-2.7579128,2.1186298-4.2408455,2.9724327-1.8121166,1.0432949-3.263036,2.6568046-5.1603578,3.5382501-1.5548957,1.4884358-3.5827006,2.144308-5.2780891,3.3927084-.5796945.4268629-1.2779897.6711118-1.9755493,1.0259783.069154.5947299.0700904,1.1146504.1976084,1.5966144.2961451,1.119576.466355,2.2419471.3894206,3.409212-.0248571.3772749.0498926.76376.0949029,1.1439071.0379433.3203994.1627862.6431251.1394004.955513-.1810222,2.4199975-.0137327,4.8716017-.6345362,7.2530492-.3903123,1.4973968-.9823128,2.9037477-1.6446934,4.2705279-.2965464.6119337-.8371606,1.0869129-1.2509256,1.6377459-1.7864792,2.378231-3.7066518,4.613941-6.1413776,6.2622501-1.3724022.9291167-2.6689623,2.0318389-4.3221717,2.3984555-.176073.0390485-.3472415.1246703-.508757.2133424-3.0463221,1.6724029-6.3931366,1.9878055-9.7058868,2.1774696-2.2641593.1296315-4.5688701.3084831-6.8473417-.1519093-.6491829-.1311863-1.3151305-.0755214-1.9429787-.4217474-.3618214-.1995271-.8236731-.1977468-1.2423649-.2749298-.4180007-.0770525-.8512946-.091853-1.2556518-.2160367-2.9163741-.8956584-5.8285124-1.8070786-8.737708-2.728801-.3468403-.1098936-.6673297-.313468-1.00095-.4713592-2.7627505-1.3074835-5.4861309-2.7045292-8.2147502-4.0897299-1.9773105-1.0037717-6.0430415-3.5451637-7.6716168-4.7523554-2.7337914-2.0264148-5.4802231-4.0335072-8.2259414-6.0416558-.945551-.6915855-1.9078443-1.3577836-2.6589748-2.3028401-.0783166-.098547-.1551841-.2068976-.2537208-.2774935-2.2757295-1.6307076-3.6839794-4.0324865-5.1391123-6.4181949-1.2531103-2.0544728-2.6671565-3.9742757-4.4098069-5.6279911-2.3560525-2.2357871-4.8748689-4.2443453-7.3394679-6.3310954-.9905167-.8386524-1.9484405-1.7279253-2.7268804-2.8331222-.6496511-.9223633-1.5114013-1.671756-2.2061742-2.5623761-1.5880459-2.0357378-2.8618222-4.2800349-3.7664203-6.7541068-.2845972-.7783408-.5935164-1.5465991-.9291431-2.4176712-.1517287.3359891-.2895463.5542868-.3530824.7948267-.9487835,3.5924017-3.1401103,6.2127511-5.8352227,8.4254178-1.0100457.8292285-1.997263,1.6664863-2.8645866,2.6758541-.7755418.9025779-1.6227344,1.7466425-2.506778,2.5287814-.7602262.6725895-1.3711091,1.4567935-1.9353766,2.3027808-1.2327342,1.8482279-2.7447151,3.4338458-4.189437,5.0866117-1.7013854,1.9464188-3.6490903,3.5534363-5.6342034,5.1487332-.9028815.7255898-1.8165084,1.4682707-2.7042081,2.2307963-.6997889.6011094-1.5030636,1.0665697-2.2654523,1.5837901-1.0669607.7238332-2.2013142,1.3542586-3.1940603,2.178609-1.5981894,1.3270671-3.4912309,2.0801569-5.2026929,3.1838524-.872674.562773-1.7863009,1.0766345-2.6447294,1.679631-.9086332.6382826-1.8091962,1.2741676-2.8067576,1.7700953-.9285412.4616149-1.7681095,1.1248457-2.6511833,1.6916897-1.8696223,1.2000942-3.7367032,2.4049241-5.6187541,3.5825624-.3042153.1903644-.6848969.237448-1.0220284.373738-1.3624816.5507736-2.6945773,1.2082956-4.0876232,1.6475139-3.3537812,1.0573951-6.6843661,2.2254909-10.2535569,2.2643258-1.5120701.0164383-3.0079998.1476247-4.5339587.0054359-1.4237215-.1326462-2.8806267.0982621-4.3201876.2093308-1.6515151.1274358-3.2615758-.1931179-4.8788817-.4463753-.2376808-.0372088-.4694092-.2192769-.6976933-.2066959-1.8735683.1031877-3.5703835-.6820311-5.3171917-1.1916554-1.0421482-.3040322-2.1043827-.6303661-3.056187-1.1551588-.8441385-.4654485-1.6342378-1.1309701-2.2950133-1.8646069-1.1272197-1.2515219-2.278505-2.5278734-2.5901552-4.3513904-.0315897-.1848572-.1398686-.3581304-.2269465-.5284364-1.0943592-2.1401302-1.4408317-4.5041898-1.8105783-6.8602855-.2084207-1.3280403-.366425-2.666181-.6115071-3.9862336-.2009413-1.0823078.0907117-2.1584082-.0797434-3.2432203-.169764-1.0804029-.1443607-2.1739267.1074875-3.2618663.1291901-.558156.1447843-1.157491.1394785-1.7374619-.0160624-1.7583511.3093428-3.4571384.6912059-5.1541217.1682815-.7478142.2380932-1.5202325.3673947-2.2786218.2945623-1.7277057.9610337-3.3228662,1.6408143-5.0985221Zm205.2440898-57.9001548c-.7702582-.8383126-1.4484894-1.7901878-2.3134053-2.4745689-1.9770875-1.5643994-4.2637185-2.4108362-6.6874537-2.8299428-2.6978545-.4665093-5.4001453-.9044369-8.0960157-1.3834826-1.759638-.3126802-3.5184734-.1879757-5.2718247-.0200079-1.2641678.1211037-2.5116157.4737344-3.7759396.5532705-3.2956512.2073249-6.454109,1.1787095-9.6583351,1.8804607-2.0774077.4549653-4.1081999,1.1462141-6.1698016,1.6889391-3.179369.8369833-6.2425449,2.0332068-9.2765834,3.3245575-2.3797058,1.0128573-4.5019009,2.5240546-6.6751255,3.9349839-2.0153875,1.3084656-4.0101537,2.653692-6.041102,3.9340136-1.6185878,1.0203851-3.2649309,1.9933571-4.9222869,2.9410515-2.6745133,1.5293329-5.3743742,3.008336-8.0513621,4.5328264-1.4398396.819956-2.9057179,1.6063617-4.2707186,2.5535398-4.2869259,2.9746908-8.0505372,6.6574885-11.9264625,10.183757-1.7062454,1.5523021-3.3233618,3.2169427-5.2823026,4.4276892-.1783247.1102081-.2814984.3581838-.5168941.6718595.5243847-.035025.8850468-.0493922,1.2438809-.0846901,2.0509678-.2017703,4.0992603-.4398059,6.1527695-.6050439,2.1724666-.1748162,4.3496148-.2840926,6.5249573-.4173738.6617341-.040544,1.3376468.0111983,1.9833297-.1159942.9697616-.1910468,1.9244975-.1606329,2.891673-.0537421,1.6852673.1862696,3.3736557.3416268,5.0576077.5400442.9029484.1063923,1.814279.2081379,2.6959372.4291476,2.4704844.6193102,4.92115,1.3285388,7.3920802,1.945766,1.7147837.4283406,3.4558959.7359335,5.1746479,1.1476517,1.5971862.3825921,3.2123632.7283493,4.762867,1.2733724,3.0489528,1.0717267,6.0514684,2.292265,9.087491,3.4070044,1.4261515.5236296,2.7279728,1.4158519,4.258591,1.6252598,1.9090036.9865975,3.8182301,1.9727024,5.7266094,2.9606588.1636779.0847435.3502511.1498975.4776132.278627.7105789.7181836,1.5925046,1.1616332,2.3852791,1.7425121,1.897032,1.3900431,3.6146247,3.0330884,5.257334,4.7512872,1.0355716,1.0831446,1.9303383,2.3279309,3.0179873,3.3425388.788249.7352747,1.3684339,1.61891,2.0442574,2.4348335.7183816.8672681,1.5077898,1.6679936,2.223028,2.5379738.6362974.7739553,1.3491725,1.5278048,1.786992,2.4241219.7585096,1.5528184,1.8170434,2.8846508,2.627296,4.391691.1438591.2676364.3760892.4814062.6340903.803034.4147904-.124789.8372498-.1773502,1.1891061-.3735065.6982729-.3892921,1.3610548-.8518149,2.0322413-1.2948313,1.1332835-.7479863,2.2590095-1.5089096,3.3931847-2.2553351.6185296-.4070835,1.262964-.7711543,1.8696781-1.196759,2.1268544-1.4920321,4.1607677-3.1338312,6.3885442-4.4634619.9586149-.5721256,1.7916959-1.3135247,2.6053593-2.1064405,1.0978147-1.069798,1.8355469-2.4010251,2.6156365-3.7029125,1.743074-2.9089997,2.1692118-6.1280907,1.8166867-9.4928895-.2149304-2.0512385-.5030053-4.0937831-.7057189-5.7194583-.3259068-1.0704805-.4929956-1.759894-.7461145-2.4114282-.2543451-.6547387-.6481797-1.2497297-.8861392-1.9096492-.6159212-1.7079797-1.8140784-2.8562961-3.1800155-3.8346803-.8318771-.5958277-1.8346775-.6100347-2.8622458-.7047303-.3262635-.3339892-.6706069-.6864938-1.0454699-1.0702194-.0296502-.6531839-.0585424-1.2895556-.0875907-1.9292921.4037998-.4905096.7654429-.9219657,1.1188374-1.3609496.5108972-.6346655,1.0980376-1.2205234,1.5070541-1.9232835,1.0216829-1.7554818,1.9319212-3.5842863,2.9455115-5.3454088.5607006-.9741827.8574476-2.0107925.8182336-3.1201434-.0455676-1.2890779-.1270945-2.5909949-.3533053-3.8548129-.2602974-1.4541557-.6664157-2.8820693-1.0626358-4.3045055-.5680797-2.0394171-1.1845136-4.063562-1.8415438-6.3029291Zm-209.6688333,28.1047689c-.2634408,2.6657953-.4187475,5.3639153-.5352638,8.0736609-.1176756,2.7367591.6360298,5.3339287.5384295,7.8323614,1.5744916,3.0846586,4.0789956,5.0221817,6.0224425,7.4741835.3366745.4247799.8487755.6919179,1.332954,1.0737385.3188732-.286769.6176601-.4984973.849578-.7740324.9314059-1.1066211,1.7985511-2.2781826,2.7708876-3.3412867,1.3957433-1.5260363,3.086205-2.6933191,4.6105364-4.0675886,2.1181042-1.9095957,4.4783591-3.5148625,6.7380708-5.2458085.1961148-.1502121.4011023-.3270163.6265217-.3872744.9670864-.2584796,1.7483241-.8654878,2.5460143-1.4522003.2473004-.1819019.5087236-.3930367.791136-.4604636.904665-.2159892,1.6707097-.7584427,2.5089516-1.1158195,1.574068-.671094,3.1790792-1.3055904,4.8219333-1.735824,1.8146803-.4752225,3.6057408-1.0798984,5.461898-1.3686021,1.3789676-.21447,2.7579685-.4390997,4.1435015-.5918101,1.0183834-.1122377,2.0545013-.2186715,3.0697079-.1392393,1.0993195.0860254,2.156237-.0257673,3.2434401-.1554225,1.9791497-.2360119,3.9796898-.2635654,5.9698858-.4009117,3.465549-.2391453,6.9128842.1556005,10.3637865.3528073,1.6193681.0925473,3.2398063.0828089,4.8659516.3360306,1.472321.2292585,3.0034743.1162968,4.5121558.2133721,2.0562513.1323138,4.081381.4334916,6.1015393.7972716,1.2507918.2252291,2.4670289.6836393,3.7206966.8719267,2.6675578.4006268,5.1720619,1.36535,7.6867094,2.3154211.3240564.122439.660129.2088382.9482262.2987091.3855861-.6690288.7022857-1.2185324.9963799-1.7288096.444619-.2907273.8459442-.5531592,1.2609353-.8245225-1.1744816-1.4362248-2.27729-2.7942517-3.3919585-4.1411516-.2765047-.3341257-.6181506-.6087648-.8835085-.9514538-.6914512-.892893-1.3099361-1.8547261-2.0447925-2.7033958-.9760037-1.1271542-1.7465295-2.4258043-2.8794563-3.4374717-.9531753-.8511532-1.5757177-2.1074493-2.4538089-3.0716473-1.8524453-2.0340999-3.7525761-4.0176949-5.3959765-6.2552179-.0741923-.1010246-.1540026-.2202412-.2571763-.2707223-1.1335287-.5545805-1.8605378-1.5962999-2.7493299-2.4602062-1.0149503-.9865322-2.1864-1.793471-3.150187-2.8709304-.4101757-.4585527-.985523-.7483661-1.4814836-1.1213771-1.677643-1.2617024-3.3057947-2.6065994-5.040531-3.7716627-2.85694-1.9187259-5.7395842-3.8062203-8.7645493-5.413263-1.0320716-.5482989-1.9638453-1.2704037-3.0016685-1.7846851-2.1398068-1.0603727-4.3180474-2.0332884-6.4525373-3.1052807-3.353614-1.6842717-6.8537845-2.943768-10.3782772-4.1308361-1.2116558-.4080879-2.4609986-.6960957-3.7022823-.9960421-1.8955161-.4580416-3.8186759-.8442552-5.7571402-.8527562-1.877882-.0082362-3.758874.2282304-5.6346827.4035058-1.924464.1798211-3.8446477.4123176-5.766013.6287037-.7818508.0880535-1.574525.1315439-2.340057.3058623-1.4799788.3370024-2.9459574.7449872-4.4145331,1.1371745-2.1503404.5742546-4.0610606,1.7009801-5.9121014,2.9545449-.2499756.1692838-.4502592.4243971-.6658138.6482257-1.3576774,1.4098493-2.2914575,3.1625894-3.3397809,4.8121789-.5691943.8956169-1.1051827,1.9488594-1.2404477,2.9921187-.2036388,1.5705133-.5401907,3.1503007-.2313049,4.7963132.3425265,1.8253151.2864921,3.7162293.5930259,5.5614128.2358639,1.4197954.6406892,2.7517316,1.3589593,3.9761065.70709,1.2053462,1.3599513,2.4494856,2.1138351,3.6202163.7865658,1.2214759.969717,2.6259367,1.2116447,4.0115795.0731557.419068-.0222822.9134112-.166264,1.3231741-.1885908.5367951-.5018683,1.0239131-.7481544,1.5062361-1.1668238.7754864-2.4239247,1.3704121-3.0006542,2.81088Zm15.0955543,64.03992c.9819895.2137222,1.6861813.3688243,2.39112.5200096,1.1895185.2551089,2.418173.0349063,3.5919412.2347182,2.113222.3597446,4.2363757-.1619741,6.3373252.2271696.1592192.0294941.3407319-.1162553.516961-.1440165.3578532-.056377.7383787-.1845842,1.075042-.1089441.6756452.1518025,1.3152308.0810048,1.9839427-.0324019.8356335-.141714,1.6875412-.1975213,2.534589-.2354422,2.0027806-.0896572,3.9544537-.5312731,5.8811471-1.0491463,2.7531755-.7400342,5.4170883-1.7725284,7.9372312-3.191579.2653245-.149405.560656-.2378753.8279535-.3839214,1.933883-1.0566118,3.8985196-2.0563599,5.7871136-3.1984036,2.5226063-1.5254429,5.0788533-2.9756848,7.692528-4.3124368.9746216-.4984676,1.9971739-.8993259,2.9425242-1.4520341,1.37938-.8064997,2.7375813-1.6631808,4.0534028-2.5819122,2.5875692-1.806687,4.9749662-3.9021606,7.3887139-5.9571438.4258925-.362605.8939641-.694802,1.240849-1.132424,1.5630551-1.97183,3.331655-3.7443406,4.7845808-5.8284796,1.8102216-2.5966711,4.1629525-4.6592384,6.319078-6.9145023,1.6909744-1.7687482,3.1226323-3.7019629,4.096429-6.0782416.785819-1.9175538,1.1782715-3.9262781,1.7836034-5.8808212.0671476-.2168675.0612399-.4594013.1053585-.8229439-.9905167.5732176-1.8480312,1.047449-2.6855262,1.5588596-1.5730871.9606166-3.102769,2.0077807-4.7089617,2.8995046-2.0377255,1.1312965-4.1480828,2.1133482-6.2000091,3.2169131-1.6226675.8727041-3.2630806,1.7092141-4.9825236,2.3198957-2.2917361.8139414-4.6489479,1.4214718-6.9324801,2.2584863-2.5229184.9247608-5.1420327,1.4563069-7.6845915,2.3105193-2.2454105.7543895-4.6140365,1.09369-6.9289355,1.6127916-.7126967.1598199-1.4216371.3638571-2.1426158.4518765-2.7003402.3297164-5.4010036.6394279-8.0754055,1.1809557-2.0229338.4096115-4.0520095.8136269-6.0945949,1.0776552-3.0698862.3968051-6.1312118,1.0884855-9.2359203.8908812-1.8763549-.1194243-3.7388211.3626821-5.6040293-.002896-1.81283.5853594-3.6134432-.0662993-5.3994431-.1875514-1.7176707-.1166054-3.4098378-.8036215-5.0920287-1.318474-1.1458123-.3506827-2.255175-.8364151-3.4423193-1.284998-.1466569.215461-.3401968.3969593-.4124385.6225029-.4877678,1.5227843-1.0384363,3.0321627-1.3913069,4.5914139-.2664949,1.1775671-.3959191,2.4019094-.5456637,3.6148278-.3824762,3.0977558-.3152283,6.1668959.0932755,9.2414481.1267935.954338.2564629,1.9159159.4878012,2.8451157.4182236,1.6799159.8955693,3.3440462,1.3818211,5.0036188.650253,2.219236,1.8449993,3.9051813,4.0670687,4.5397845.2331887.0665961.4613279.1557904.6878731.2457325.5605222.222517,1.1187705.4515145,1.5695201.6340335Zm175.3317376-17.5883831c-2.359664.34514-4.5758703.7030093-6.8006817.9837549-1.686159.2127668-3.3809679.4122405-5.0760666.463953-2.1231537.0647683-4.2511004-.0723762-6.3759484-.0414816-2.9755853.0432857-5.910552-.4948179-8.8756594-.624758-2.0483817-.089764-4.0351892-.8173181-6.1082051-.9141501-1.3175828-.0615459-2.6192703-.4527666-3.9378563-.5596871-2.3049338-.1869105-4.5712555-.5331246-6.7579007-1.3586263-.22873-.0863577-.4485203-.2558922-.6791675-.2710665-1.556211-.102351-2.9161066-.8878072-4.2873718-1.5209387-1.0484572-.4840885-2.0999909-.9782655-3.1487602-1.4724307-.6058223-.2854634-1.2151001-.6074058-1.7435645-1.0263165-2.1723329-1.7220087-4.308439-3.4956943-6.4704723-5.2325866-.770392-.6189067-1.6162916-1.1366671-2.3549824-1.7933761-.7057412-.6274344-1.4602603-1.1444768-2.2601019-1.6149399-2.1700589-1.2764643-4.2476673-2.7124695-6.1877924-4.3549035-.89927-.7613031-1.6406137-1.7395509-2.559212-2.4684758-2.3706101-1.8811521-4.7014042-3.8375941-7.3991918-5.1965468-.272581-.1373166-.5173399-.3391462-.770013-.518971-1.589651-1.1312786-5.3686448-3.2791058-7.4026919-4.1995107-.2382047.0861084-.5084672.1838128-.8284662.2994924.115123.3284109.1819808.5750632.2847086.8034138.8875436,1.9729042,1.5668672,4.0370916,2.2791181,6.0818022,1.0111381,2.9027329,2.6365923,5.3715173,4.5350065,7.6542872,1.7188188,2.0668164,3.8047203,3.7165794,5.8055726,5.4458281,1.9795175,1.710757,4.039202,3.3146767,5.6649237,5.4312532,1.0309346,1.3421583,2.1047171,2.6660979,2.9782382,4.1214019,1.0826998,1.8037257,2.2385888,3.5180196,3.6031436,5.0955786,1.4020746,1.6209396,3.0803864,2.8926148,4.5923005,4.3710452,2.9419669,1.6664566,5.5170963,3.9626858,8.4819585,5.5938207.7521337.4137716,1.3905935,1.1300562,2.1742947,1.3925356.8955916.2999612,1.6199031.8524914,2.418095,1.297573.5893029.3286364,1.1815263.6533679,1.7854537.9497803.9358534.4592767,1.9479947.7818718,2.8130666,1.3577955,2.8164106,1.8750752,5.9671103,2.8009161,9.0919274,3.8191203,1.4492474.4722256,2.9329604.7782281,4.4102305,1.1247508,1.8904555.4434674,3.7532226,1.0133142,5.7180265.9839745.8409282-.0125454,1.6836845.0779783,2.5249471.1329192,2.127813.1389604,4.251368.0071213,6.3284858-.4455563,1.651961-.3600294,3.264708-.9430151,4.8745791-1.4941922.6850976-.2345402,1.3634402-.5663455,1.9670109-.9820517,1.9467908-1.3407518,3.7245087-2.9268564,5.1796193-4.8435675,1.0980822-1.4463845,2.1488579-2.981726,2.630038-4.8206369.3435631-1.3128957.3591462-2.676222.4216345-4.036332.1157026-2.5189243.076823-5.0120457-.5382734-7.6129777Zm-2.0129353-4.7083102c-.4062744-.8317328-.6263545-1.5295495-1.0328741-2.067659-1.1740357-1.5540053-2.2235184-3.2135423-3.5312921-4.6572207-.752-.8301661-1.482955-1.7047277-2.0906722-2.6554753-1.2063834-1.8872467-2.8313918-3.3655406-4.2765372-5.0055534-1.2685373-1.439554-2.8073818-2.662656-4.3746726-3.7367802-2.0294992-1.3908799-4.1171619-2.7114666-6.3649801-3.7016366-.7808253-.3439472-1.5130064-.8190688-2.3030166-1.1324121-2.4414361-.9683195-4.9216627-1.8289529-7.3452864-2.843905-2.0399548-.8542896-4.1293341-1.515663-6.2476278-2.071279-1.4665248-.3846514-3.0152898-.4601313-4.444161-.9491869-1.7351822-.593905-3.5170244-.9192596-5.2724043-1.3858475-3.0515388-.8111344-6.1153389-1.5526225-9.2439459-1.9754263-.9762936-.13194-1.9163827-.2770366-2.8831124.0150556-.3435408.103799-.7208338.141352-1.0783972.1213945-1.5250449-.0851233-3.0227135.1590603-4.5272484.3542553-.8988687.1166173-1.8047598.1946727-2.7095585.2307422-.966373.0385263-1.938676-.0492142-2.9022847.0177261-2.2988254.1596893-4.5941285.3769663-6.8906355.5740484-.2533642.0217437-.5932489-.2001324-.7358819.3408613.9295444.5660429,1.9115896,1.0636797,2.7902605,1.7185786,2.3297018,1.7364353,4.69728,3.4233656,6.8406314,5.4277044,1.0864451,1.0159847,2.2170311,1.99174,3.2548766,3.0495802,1.0904356,1.1114636,2.1137236,2.1979374,3.4636763,3.0231542,1.9302046,1.1799587,3.6855622,2.6909275,5.4852168,4.1043938,1.7035925,1.3380101,3.2552556,2.8672629,4.7964409,4.4128235.9200697.9226719,1.9000193,1.7970317,3.0416405,2.4231309,1.5069649.8264393,2.9871109,1.7144423,4.525242,2.4685648,1.422317.6973419,2.8227865,1.4553099,4.4082018,1.7496038,1.3681441.2539695,2.7020233.7169789,4.0134754,1.0772457.6285393.0414579,1.2297692.0474101,1.8222601.1269551,1.3790233.185148,2.7532089.4111011,4.1306494.6101653.9581245.1384678,1.9364021.1766143,2.8740836.4059975,1.9463673.4761364,3.9156967.9136397,5.8945677.9741767,3.0892592.0945057,6.1677952.4573005,9.2595067.4025555,1.2707444-.0224974,2.5418678-.1244151,3.8091344-.2371632,1.5698545-.1396725,3.1329765-.3863664,4.7045922-.4750148,1.0511324-.0592849,2.0085212-.3995646,3.1401326-.7341531Zm-100.2771391-29.2024127c-.6726133-.1814568-1.0737379-.2887571-1.4743943-.3979089-2.5228515-.6873128-5.0699582-1.2470236-7.6627886-1.5240008-1.9878329-.2123514-3.9815736-.3619403-5.9728174-.5380443-2.047111-.1810473-4.112993.1320705-6.1538842-.2706986-.2904157-.0573146-.6051758.0352979-.9090345.0431729-.4779921.012397-.9642105.0740734-1.4331293.0063676-2.7108738-.3914225-5.4376428-.4306431-8.1648576-.4537102-.8963049-.0075723-1.8220371-.0841323-2.6840995.1160773-2.269231.5270478-4.5869835.2308252-6.8672832.5999699-1.4253378.2307422-2.9010585.2061915-4.3483441.1434706-.6983956-.0302655-1.3167468.1678729-1.966108.2953502-.7708824.1513455-1.5311644.4208335-2.3065055.4778396-1.7131117.1259581-3.3244096.6124738-4.8945094,1.3120233-.7809145.3479292-1.5506822.7415949-2.3573232,1.0032732-2.0422845.662495-3.9475205,1.6354492-5.7826438,2.7737483-.6277256.3893633-1.2049344.8698971-1.8167648,1.2897099-1.2604003.8648232-2.6350318,1.5615479-3.6086835,2.8428784-.1093378.1438919-.2959779.2233063-.4509391.3254674-2.0747994,1.3678959-3.8390744,3.1503407-5.6273259,4.8866692-.5941963.5769325-1.3485928,1.1032088-1.5743578,2.1593637.4873888.2994449.9752792.7079705,1.5294701.9204999,2.1716195.8328307,4.4489541,1.2115476,6.7080639,1.6616082,1.4544418-.2222856,2.8858545.1549596,4.3314123.1980198,2.5977461.0773908,5.1918918.1815873,7.7852573-.0911171.8451528-.0888798,1.6946082-.1306225,2.5402849-.2146005,1.8684296-.1855397,3.7396459-.3496027,5.6020898-.5895906,1.2595643-.1623005,2.4991871-.5313502,3.7604345-.6385556,1.2580818-.1069383,2.4760577-.6711355,3.7732421-.3724977.2167584.0498966.4707802-.0833311.7075024-.1323138,1.7210147-.3560237,3.4305484-.8053009,5.1655968-1.0469802,2.7828368-.3876186,5.4183144-1.3962268,8.1387744-2.0418562,1.9505361-.4628967,3.8524504-1.1621673,5.7696802-1.7784925.9867714-.3172245,2.0021453-.5860597,2.9309317-1.0456093,3.1290305-1.5482192,6.3137722-2.9640652,9.399509-4.6183503,2.7182083-1.4572386,5.2580028-3.1827367,7.9135445-5.3011825Z" stroke-width="0"/>
      <path d="m21.5701954,472.3417796c1.42864-2.0297618,2.7478446-3.8744172,4.0304769-5.7474154.3151558-.4602737.5137451-1.0116526.7603377-1.5241967.110341-.229306.1799799-.4854831.3140746-.6963687.8492436-1.3353396,1.6449888-2.7171577,2.5815667-3.9800974,2.8738551-3.8752243,5.0442205-8.1895483,7.0470457-12.6086504.3373043-.7442713.4491668-1.6043825.7276723-2.6442355.5884502-.6327517.9195625-1.6514306,1.1636749-2.73197.6378746-2.823455,1.1023626-5.6702679,1.4938843-8.5489368.4054161-2.9808833.3768973-5.922552.0223101-8.858856-.3307667-2.7389489-.7488232-5.4751442-1.4027156-8.1610156-.2427915-.997315-.3200213-2.039067-.5307661-3.0467791-.2225882-1.0643503-.3991516-2.1651616-.8007946-3.1558775-.7504896-1.8512545-1.0472924-3.8249954-1.5676085-5.7364961-.5722095-2.1020668-1.1817827-4.1954931-1.749266-6.2935245-.7066608-2.612522-1.7794958-5.0737637-2.4838437-7.6817043-.3467232-1.2838051-1.0176645-2.4777394-1.6082437-3.6752581-.9568426-1.9401996-1.957213-3.8564478-2.963636-5.7682571-.2941722-.5587851-.6702948-1.0687655-1.0105083-1.5999436-.4040227-.6308052-.7655822-1.2998755-1.2243965-1.8818998-.8568903-1.086901-1.7211234-2.1774814-2.6768625-3.1625004-.7347867-.7573033-1.6057329-1.3678128-2.4320032-2.0208127-1.1634715-.9195266-2.3807731-1.7665584-3.504894-2.736765-1.9755521-1.7050541-3.9608352-3.4078768-5.8224876-5.2486867-1.4606114-1.4442956-2.7840964-3.0559656-4.0837748-4.6705791-.7036763-.8741639-1.4008067-1.8389821-1.7882292-2.8931726-.3855861-1.0492056-1.0485129-1.8696274-1.5373313-2.8214611-.3809045-.7417314-.670487-1.4913437-.8826419-2.3072316-.6666136-2.5635274-.9024133-5.1979592-1.1447813-7.8233945-.1703158-1.8449877-.2241905-3.7190541-.1286773-5.5683383.0537465-1.04066-.1488361-2.0376902-.1279389-3.0659117.0273038-1.3431968-.1469607-2.6910225-.2398376-4.1188679.0608581-.8107368.2732359-1.7305721.1689475-2.6077032-.3163164-2.6603771.1820727-5.2888508.1581882-7.9358162-.0103051-1.1421624.2718676-2.2878854.4271103-3.4310685.3027663-2.2295144.7454847-4.4269355,1.3240785-6.5943047.4325527-1.6202868.9043083-3.2188061,1.7657436-4.656835.1923695-.3210996.2990238-.7023268.4316582-1.0615255.1104023-.2989049.1478273-.6437897.3098528-.9029103.6019321-.9627292,1.0067352-2.0452151,1.5641419-3.0170833,1.1659042-2.032824,2.4730593-3.9782933,3.7954992-5.9025174.4953531-.7207948,1.1909759-1.2867249,1.8015328-1.9163907,1.3030586-1.3437903,2.5887925-2.71025,3.8716924-4.0715349,1.5427848-1.6370219,3.3680823-2.9590447,4.7087583-4.8135987,2.2023119-1.8020937,3.5928775-4.3658822,5.3854428-6.551933.4580674-.5586189.9482764-1.1920115,1.013713-2.017893.8519244-.9708,1.1213119-2.2749721,1.7067135-3.3989277.2928513-.5622508.554659-1.1568797.7354639-1.7686948.5474026-1.8522989,1.3162897-3.5995348,2.1247588-5.3313888.080819-.1731189.2191605-.3775004.189332-.5374686-.2019278-1.0830555.586912-1.9509053.5450618-2.9937966-.0102995-.2566044.0041689-.5213745.0526012-.7724954.4861794-2.5206097.9755077-5.0406021,1.477259-7.5577698.2885598-1.4476189.6123041-2.8873331.8961545-4.335949.0732226-.3737261.0568425-.7675343.0794369-1.1522509.0340531-.5800303.0428144-1.1630041.1036419-1.7397586.1684766-1.5976173.5436684-3.1989852.495721-4.7872024-.0697615-2.3108872.4635851-4.5950933.08982-6.920959-.1909984-1.1885221-.0227448-2.4396404-.0491011-3.6616564-.0416329-1.9300636-.2884929-3.8433209-.4396754-5.7641267-.1369537-1.7399485-.4523548-3.4284811-.7530756-5.1364074-.1992136-1.1314567-.3557186-2.2775595-.591549-3.411746-.3445496-1.6570565-1.0363798-3.1530528-1.7109994-4.6660215-.9595401-2.1519397-2.0493403-4.2283223-3.1319287-6.3109005-.4974208-.9568898-.9159231-1.9675928-1.2919119-2.9866753-.3751918-1.0169461-1.1107783-1.8527025-1.2595475-2.9888592-.0363048-.2772561-.3552727-.5084612-.5330233-.7695045-.5677285-.8338573-1.1647617-1.6465644-1.4740766-2.6484371-.0923949-.299261-.2385836-.6019877-.4290582-.8408125-.8744073-1.0963249-1.3915967-2.4120572-2.026615-3.6552234-.8965279-1.7551406-1.7445231-3.536535-2.8119408-5.1909329-.5061013-.7844117-.8569042-1.6808416-1.2996979-2.5134765-.834987-1.5701053-1.6689458-3.1413263-2.5340093-4.6926908-1.0815238-1.9395468-2.2392854-3.832271-3.2809933-5.795235-1.1623791-2.1903354-2.0662554-4.5020772-2.6507514-6.9557703-.6248971-2.6233107-1.2894903-5.2373282-2.0058543-7.8337916-.3042042-1.1025917-.7768933-2.1533877-1.1860881-3.2220345-.7742181-2.0219877-1.5635121-4.0374239-2.3362644-6.0600288-1.0333841-2.7047666-1.1462805-5.5569324-.9568482-8.3978702.1577256-2.3654364.180685-4.7396558.4191572-7.0987542.0065013-.0643291-.0005852-.1307353.0100682-.1939962.6521145-3.8722452,1.133055-7.8003333,2.8849794-11.3475266.9255817-1.8740426,1.8982916-3.7224248,3.1578001-5.3862584.4887208-.6455938.7942905-1.444711,1.2230421-2.1463495.6252649-1.0232366,1.3195111-1.9563649,2.2247697-2.7649772,1.1054112-.9873927,2.0231038-2.2152481,3.0078772-3.3529359,1.0121079-1.1692589,1.995421-2.3668963,3.0130632-3.530565,1.0336906-1.1820298,2.0563906-2.379774,3.1547571-3.4912554.830938-.8408718,1.7713894-1.5594234,2.6672317-2.3269695.2839841-.2433231.6190757-.430922.8663148-.7089971,1.6009259-1.8005626,3.6199919-3.023445,5.4520331-4.5035014.5298131-.4280201,1.0839538-.8294065,1.6578576-1.1867239,2.5570384-1.592039,5.1799816-3.0724336,7.6743143-4.767963,2.5732624-1.7491884,5.4490124-2.8003583,8.1352242-4.2817855,1.0626692-.5860478,2.2596671-.922666,3.4231191-1.2671116,1.1039454-.3268323,2.2457171-.5070903,3.3669677-.7705667.2906164-.0682874.5612189-.2292051.8503917-.3090468,1.0516173-.2903831,2.1027274-.5855434,3.1622588-.8400173,1.9449795-.4671457,3.8960339-.9056223,5.8439227-1.3590951.2369562-.0551604.4756681-.2023519.7040581-.1825487,1.6610567.1440581,3.2435293-.3785923,4.8595255-.6110851.1789935-.0257435.3659457-.0788803.538775-.0495821,2.6513394.4495442,5.3290741.0279096,7.9858307.2829176,1.8646175.1789703,3.748842.1017397,5.5882345.6179987.812794.2281251,1.6782226.2364985,2.5152718.3753403,1.6124126.2674525,3.2145479.6227285,4.8340386.8194723,1.8168874.2207308,3.6083491.0699965,5.4029097-.4602737,3.7882455-1.1193683,7.5379903-2.3918268,11.3747239-3.3242074.3534056-.0858829.7161745-.1927263,1.0327181-.3731445.7953717-.4533245,1.6306931-.4365953,2.5824751-.3530802.3026102.400698.6370776.8435957.9578346,1.2683282-.0856846.158817-.1394562.3475909-.1949667.3481665-1.0720101.0111092-1.7687671.7918891-2.5332402,1.407342-1.0632934.8560105-2.0581239,1.8123187-3.1477235,2.6263432-1.1400829.8517437-2.3468119,1.6052549-3.5443449,2.3661189-1.2553508.797598-2.6213994,1.3363841-4.0370061,1.6911972-2.0569201.5155706-4.0960612,1.1512064-6.2123039,1.3374879-.594475.0523357-1.203385-.1131872-1.8072455-.1443429-2.6187242-.135103-5.1759075-.7296667-7.7607791-1.1225966-3.8326204-.5825999-7.688883-1.0120205-11.5746286-.9292532-.1215992.0025874-.2437223.0174294-.3646415.0096316-3.1768833-.2048621-6.288982.4123414-9.4110068.8687873-.709559.1037337-1.3898523.4245188-2.0883314.6269597-.6410737.1858127-1.280325.4247265-1.9348137.5025683-1.3965793.1660985-2.7562129.4146973-4.0285513,1.1007698-.4258424.2296324-.9176564.3213133-1.3802494.4727953-1.910174.625488-3.7349643,1.5065358-5.6094745,2.2092662-2.030547.7612141-3.8080699,1.9684296-5.6062587,3.1008773-1.6691548,1.0511877-3.4267251,1.9398435-5.046082,3.0639771-1.8256765,1.2673787-3.7245478,2.4316646-5.384657,3.9614633-.5494313.5063011-1.1107449,1.0250881-1.7393232,1.3999655-.7637932.4555261-1.3389454,1.0879811-1.9142202,1.7588674-.5694451.6640854-1.2072975,1.2611119-1.8041244,1.8992283-1.2802023,1.3687504-2.676032,2.6411377-3.7982608,4.1444808-1.4031419,1.8796566-3.1527033,3.3825131-4.6002899,5.1983509-.3903067.4895897-.7299602,1.0245422-1.1083985,1.5253598-1.5953581,2.1113245-3.1722212,4.2238122-4.4823579,6.5696175-1.5771277,2.8238704-2.5876082,5.8164683-3.0489137,9.050882-.3084371,2.1626098-.6823443,4.3143002-.8016835,6.5030215-.0278249.5103127-.082282,1.0189282-.1158726,1.5289561-.0717819,1.0899751-.1379319,2.1803893-.2351867,3.2587804-.066816,2.305748.8832048,4.3751162,1.3665139,6.5619028.0417053.1886908.0797183.388396.1677883.5538239,1.0261137,1.9273693,1.5659225,4.0605563,2.2836325,6.1173435.3157326.904833.6883942,1.8206922.8050916,2.7638141.2549247,2.0602766,1.1245556,3.9335597,1.4516941,5.9682471.2476598,1.5403501,1.0330051,2.8836063,1.6861786,4.2498405,1.0425244,2.1806148,2.1925975,4.306633,3.3709526,6.4088541,1.0846421,1.9350247,2.2969751,3.788558,3.3961636,5.7147998.9123506,1.5988161,1.732415,3.2570475,2.6110134,4.8780939.7850387,1.4484378,1.6124181,2.8710372,2.3887569,4.3246261,1.3789508,2.5819241,2.7532646,5.1671596,4.0894902,7.7742456.6375179,1.2438784,1.1686853,2.5490237,1.775522,3.8114174.4116359.8563132.8711357,1.6865387,1.3091503,2.5284668,1.3805615,2.6536594,2.5615751,5.4094857,3.6607664,8.2044081.3263638.8298457.6209372,1.6879629.5293616,2.6300166-.0244447.2514533.0029539.5292317.0799775.7680802.8753157,2.7142142.8705951,5.5887052,1.3711482,8.3664177.4622586,2.5652128.2693987,5.139066.4107386,7.7057743.0738802,1.3417013.2468322,2.6936099-.0836614,4.0387769-.0883431.3595547.0022461.7701691.0178124,1.1570459.0129915.322785.0618864.6461397.0504778.967453-.0363549,1.0233315-.0827418,2.0465206-.1455701,3.0683804-.0592056.9629666-.1346631,1.9251261-.2199129,2.8859326-.1420979,1.601534-.2634686,3.2064151-.4567577,4.8012076-.2164408,1.7858809-.4785941,3.5665869-.7660838,5.3412636-.2983076,1.8414508-.6373117,3.6758278-.9826137,5.5081633-.5370083,2.849519-1.2580483,5.6412605-2.2972593,8.3371254-.8730975,2.2648836-1.6570049,4.5697414-2.5674215,6.8169167-.4539989,1.1205848-1.0244918,2.2098122-1.6796828,3.211305-1.4201936,2.1707637-2.9070945,4.2936247-4.4148675,6.3969496-.4366658.6091564-1.043653,1.0781418-1.5603297,1.6245121-.5106018.5399848-.9823072,1.1237894-1.5120032,1.6408199-1.6951433,1.6546827-3.45472,3.2374877-5.1035014,4.9422332-1.6905759,1.7479718-3.272232,3.6058016-4.7382329,5.586284-1.1655531,1.574568-2.2742721,3.1874487-3.1962033,4.9174748-.8603764,1.614566-1.8300209,3.1754374-2.4332405,4.9468145-.5971474,1.7535739-1.3955176,3.42333-1.6914091,5.2958772-.1998155,1.2644827-.5002883,2.5064383-.6125939,3.793353-.1382523,1.5842055-.3828608,3.1578952-.473514,4.7486286-.0649601,1.1399548-.1427584,2.2793636-.1895968,3.4201492-.1293211,3.149682-.098559,6.2974413.140504,9.4412838-.2997817,1.1895191.0809221,2.3847352-.0705,3.6107153-.1613817,1.3065933.2030452,2.6862275.3331243,4.0344804.0742648.7698131.1463615,1.5399822.2065648,2.3111483.1657401,2.1230509.3771146,4.2354911,1.2693315,6.1878681.2091815.45771.4311064.9111235.6789195,1.3460453.6568658,1.1527969,1.3147682,2.3057599,2.0068325,3.4346054.2581795.4211302.6057359.7818481.9243054,1.15885.362061.4284652.7321254.8496192,1.1076963,1.2647438,1.5104037,1.6695662,2.9609859,3.4094672,4.5662284,4.9686295.7015528.6814139,1.5220464,1.2602811,2.2722267,1.9147528,1.1706193,1.0212426,2.4862653,1.8578535,3.6313587,2.9076051,2.1531494,1.9738121,4.3914093,3.8713788,5.921264,6.5026773.4460792.7672019,1.0106644,1.4556422,1.5114013,2.1875937.4989423.7292691,1.0108984,1.441542,1.175613,2.3752401.0640934.363329.3064168.7027304.5070794,1.0251831,1.8174503,2.9204709,3.0950109,6.1208092,4.365811,9.3341556.7526911,1.90324,1.1549359,3.9428292,2.0634075,5.7785118.6506153,3.0158252,1.9094773,5.8370489,2.4562724,8.893513.2814427,1.5731912.8049579,3.0972929,1.3539154,5.146947-.0376145.6516469.2703796,1.7456692.7591004,2.8114912.2358917.5144431.3600992,1.1002416.4625596,1.6685218.5707326,3.1655625,1.1153373,6.3323594,1.4063104,9.5496701.1629924,1.8022599.4873888,3.5860518.3680357,5.4086786-.0379879.5801015-.0693937,1.1609626-.1219837,1.7396399-.0288198.3170405-.1858264.6498903-.1298143.9417689.2637752,1.3749341-.1210419,2.6843997-.267147,4.0205464-.0618474.5655266.1155298,1.1706951.0081371,1.7187507-.3696575,1.8864337-.6647214,3.8148356-1.2817629,5.6130126-.5180701,1.5098116-.8512779,3.0830978-1.4643289,4.5583474-.6853539,1.6492942-1.275465,3.3434052-1.9608245,4.9926995-1.0359339,2.492884-2.5288986,4.6957885-3.9534115,6.9435573-1.0499341,1.6566529-2.0201973,3.3703712-3.039701,5.0491952-.5897878.9712036-1.2075371,1.9231322-1.8113363,2.8846982-.9751622,1.5529667-1.9853082,3.0830029-2.90744,4.6709114-.4175047.718967-.8819424,1.3798715-1.3623033,2.047755-.8434306,1.172689-1.6407586,2.3978858-2.3273554,3.6801005-1.078949,2.0148071-2.0374106,4.1023465-3.0713464,6.1450691-.6315377,1.2477476-1.3088856,2.4692413-2.0351506,3.8330187-.3740632,1.2628922-.7661646,2.6901442-1.2216126,4.0941807-.4297326,1.3247052-.4835822,2.7278396-1.0393782,4.0564852-.5508051,1.3168243-.5986912,2.8722122-.8664318,4.3231069-.2566775,1.3910283-.5124326,2.7821989-.7123317,3.8677707-.0682707,1.2665004-.1650936,2.2283038-.1605596,3.189585.0056848,1.2052097-.1169092,2.4002596-.0049854,3.6196644.1647006,1.794284.0903717,3.6119734.1692986,5.4171293.0840878,1.9231796.2819443,3.8358197.7425587,5.7055896.0607689.246682.1672226.4811628.2581823.7187771,1.2357466,3.2287997,2.7691264,6.2756738,4.6712357,9.1273292,1.1943144,1.7905809,2.3965429,3.5656374,3.7419756,5.2302662.5113542.6327042.9367618,1.3619259,1.5151522,1.9113108.8993703.8542718,1.9240572,1.5413353,2.5622718,2.7009211.2277491.4137953.7490126.6401104,1.1255532.9660288,2.3056472,1.9958644,4.6065515,3.9979481,6.9139989,5.9913913.2814204.2432163.6003493.4365835.8886305.6715865.6703895.5464889,1.4177469.9989292,1.8682067,1.8125146.1187289.2144462.3329849.3766696.5221776.5378959,1.0339609.880858,1.9580323,1.9188119,2.9861356,2.7736534,2.3502005,1.9540386,4.4166287,4.2267319,6.6283651,6.3314574,1.2541135,1.1935307,2.4952802,2.4314509,3.5400144,3.8724233.6627652.9141382,1.5006002,1.6838563,2.256011,2.5223662.4588812.5093157.9611898.9856361,1.3559998,1.5469848,1.4146258,2.0112464,2.7785119,4.0586691,3.6553324,6.4218979.5833005,1.5720993.9912691,3.2029256,1.0841545,4.8753404.0663897,1.1954772.2961674,2.3798927.1111715,3.6188573-.13682.916417.1425438,1.8982551.1268883,2.8643313-.0154995.9564387.0894354,1.91283-.1680641,2.8559282-.0836837.306501-.1371265.64557-.1083736.9598095.1917286,2.0952304-.3385527,4.1018242-.6495452,6.1324881-.2440009,1.5932258-.8620512,3.0677158-1.3629665,4.5827972-1.0859212,3.2847257-2.0735175,6.6061973-3.1013255,9.9126667-.8184565,1.2519254-.9250745,2.7823414-1.4346007,4.1548067-.4899135,1.3195303-1.0433241,2.6148483-1.481021,3.9533688-.5597419,1.7116769-1.2560809,3.342883-2.1092036,4.9109944-.391505.7195841-.5923627,1.5561476-.9777872,2.2804318-.6253625,1.1753002-1.2869015,2.3350759-2.0138326,3.4412994-1.1103157,1.6896958-2.1568222,3.4616189-3.4781559,4.949212-1.2104297,1.3627329-2.172422,2.9430929-3.4505288,4.2239783-1.58653,1.590045-3.1832982,3.1735384-4.8496217,4.6662589-.9736852.8722174-2.141529,1.4477138-3.3767545,1.8462221-1.031765.3328973-2.0215294.3769544-3.0342949-.292021-.0302521-.1928924-.0687862-.4386249-.1038648-.6622814.4076566-.860491.9410812-1.5387241,1.6198307-2.119158,2.330705-1.9933482,4.3400064-4.306633,6.0088881-6.953622.269878-.4279904.5770695-.8414534.9234973-1.19975.4872383-.5039985.814505-1.1002416,1.1535147-1.7184184.6700217-1.221826,1.3542386-2.4538593,2.1823537-3.5538161,1.2212754-1.6220909,2.2460682-3.3777299,3.2452069-5.1440984.679357-1.2010318,1.1381156-2.5463888,1.6649525-3.8413269.3118229-.7664898.5541742-1.5646931.8455541-2.3410578.4450035-1.1857448.9428145-2.3506953,1.3480857-3.5512999.3647753-1.0806343.5849836-2.2002934,1.1514581-3.2202541.3555124-.6400629.4190763-1.4650423.6077507-2.208744.6331874-2.49578,1.6003184-4.8642786,2.429838-7.2857597.6836262-1.9955321,1.4225399-3.9876934,1.885328-6.0455132.4064137-1.8071973.5299914-3.6983786.655609-5.5618342.1164327-1.7271538-.2102934-3.4770959.2275819-5.1973183.0759814-.2985251.0380604-.6529287-.0233746-.9645096-.4478627-2.2718387-.8517238-4.5563534-1.6215863-6.7411223-.4942384-1.4026597-1.1930576-2.6678782-2.123672-3.7974122-.4758185-.5775378-.8426671-1.2605185-1.3389175-1.8144136-.8774057-.9794643-1.8125011-1.9005814-2.7301854-2.8386946-.9182249-.9387779-1.8432716-1.8700072-2.7683405-2.8010941-.4383545-.4411411-.8954299-.8618203-1.3237692-1.3135485-1.200693-1.2662155-2.6572917-2.2323867-3.6312277-3.7788018-.4568748-.7254236-1.2338934-1.2327929-1.8967757-1.7977972-.8035478-.6850221-1.673541-1.2599013-2.3250926-2.1613161-.3468291-.4797386-1.0335652-.6614268-1.4780504-1.0837202-3.1151641-2.9591396-6.426833-5.674066-9.4943617-8.6932144-.7073073-.6961788-1.5386661-1.2495042-2.05167-1.6596439-.9869275-1.2370182-1.759259-2.2248381-2.5526048-3.1930508-.595481-.7267529-1.2672332-1.3879424-1.8187544-2.1492099-1.4076926-1.9430243-2.8630734-3.8596524-4.1116833-5.9160954-.8150568-1.3424135-1.6305399-2.7189617-2.179294-4.2424463-.3248283-.9018421-.7916181-1.7457167-1.1293877-2.4748909-.2492873-.9477033-.4804221-1.7452894-.6672489-2.5544596-.3324053-1.4396905-.7925126-2.8733991-.9014268-4.3347384-.0747831-1.0033444-.4267759-1.9551306-.3144647-3.0118373.1133813-1.0667715-.1155967-2.1716657-.1604398-3.2614628-.0424633-1.0320195-.0808497-2.0674098-.0493742-3.0989071.0548779-1.7980346.0867686-3.6032854.270296-5.3889289.2623094-2.5522757.6069147-5.0975726.998612-7.6314753.6017844-3.8928851,1.6722006-7.6514625,3.0435327-11.3140921.0450716-.1203975.0664203-.25537.1300874-.3625219.8447794-1.4209852,1.2251349-3.0703744,1.9438704-4.5422532,1.0301906-2.1098528,2.1788202-4.1575128,3.3459785-6.186705.5643399-.9810785,1.3168164-1.8374866,1.9223434-2.79459.2603253-.4115165.3637303-.9355021.5243624-1.370329Z" stroke-width="0"/>
      <path d="m378.6228474,480.0583308c-3.7051581-2.190371-7.0212077-5.1691179-9.9815889-8.6328732-2.926629-3.4242083-5.2031834-7.2659625-6.6561761-11.622492-.1855254-.8087904-.2994891-1.6468255-.576997-2.4180629-.2680109-.7447936-.4153255-1.468698-.3790319-2.2640528.0201532-.4422805-.0409752-.9082512-.15806-1.3347699-.5642452-2.0547339-.9153212-4.1607886-.9543346-6.284979-.0397714-2.1663959-.3925417-4.3790329-.0152041-6.4937282.4593772-2.5744467.6346477-5.2121781,1.4392154-7.7267584.4468929-1.3966778.6370553-2.8862649.9490734-4.3324596.0679502-.315094.1272951-.6402528.2496412-.932796.8145106-1.9477244,1.3830361-3.9796701,1.8786623-6.0395313.0742369-.3084949.2542336-.5864632.3652992-.8869348.3083619-.8341897.6061567-1.6727471.8418422-2.5390301.6005834-.9571509,1.1779817-1.9068481,1.3884311-3.1026577.1061164-.6027947.5394996-1.1444412.8421989-1.7030838.9029707-1.666243,1.4866557-3.5271349,2.6917015-5.009126.510429-1.5494535,1.6188999-2.7107485,2.3723267-4.1077112.6229213-1.1551232,1.4683305-2.1832972,2.275841-3.213845.7719302-.9851613,1.6221994-1.9007713,2.43778-2.8471452.1639454-.1902813.3492033-.3650381.4864859-.5751641,1.1404842-1.7460016,2.4731373-3.3297323,3.7004319-5.001886,1.1208215-1.5270214,2.1971454-3.0918333,3.2688769-4.658734,1.2448172-1.8200157,2.4642645-3.6596861,3.692763-5.4923777.8800085-1.3128601,1.9120132-2.4721373,3.0038087-3.5917251,1.2211862-1.252234,2.3430332-2.6148957,3.4988998-3.9386039.9476466-1.0851919,1.8862866-2.179333,2.8189966-3.2790761.2826799-.3333008.5747231-.6712542.7903446-1.0532173,1.7844059-3.1610761,3.3996498-6.4116907,4.4632219-9.9388731.2028251-.6727497.3344451-1.3712548.4765431-2.0630658.2579343-1.2558659.4873331-2.5184258.7496814-3.773176.591666-2.8300541.3286489-5.6420438-.1163714-8.4556002-.0897977-.567568-.1127599-1.1477645-.1543147-1.7231422-.0326375-.4509448.0266629-.9241792-.0806128-1.3517424-.5482386-2.1857422-.3872358-4.4997865-1.0822985-6.6555242.0003121-2.2133253-.7117381-4.2944793-1.0677187-6.441529-.2624376-1.5830186-.6106154-3.143985-.8048352-4.7472993-.1527988-1.261468-.6444122-2.478048-1.0011952-3.7094166-.767204-2.6477962-1.550281-5.2903226-2.3157015-7.9386647-.6399089-2.2139663-1.2593525-4.4346028-1.896497-6.6494711-.4581288-1.5924425-.8714478-3.2035903-1.4155844-4.7625626-.4208542-1.2057794-.9228563-2.4027046-1.5522428-3.4969881-.8204406-1.4264923-1.8042024-2.7463313-2.713549-4.1151648-.1747354-.2629898-.3576748-.5259796-.4904541-.8132768-.7783953-1.6844735-1.8367508-3.157468-2.9734451-4.5793315-1.1785613-1.4742763-2.2991598-3.0017013-3.4944858-4.4600021-.990762-1.2086991-2.1264308-2.2885738-3.0633766-3.5397396-.936812-1.2509522-2.3705432-2.0366695-2.9467822-3.61119-1.2761171-.9912857-1.9375614-2.56818-3.2011496-3.629017-1.4076926-1.1817568-2.5113036-2.7651078-3.5807165-4.3274272-.4276314-.6248233-.7925739-1.3341528-1.3278823-1.8321456-1.1100315-1.0326604-2.0000274-2.2413121-2.8371434-3.511017-.378586-.5742858-.8861615-1.0580835-1.0419921-1.7872339-.0377204-.1767033-.1709456-.3487066-.2977948-.4825871-1.3722907-1.4486871-1.9767531-3.3874861-2.8243471-5.1525728-1.2640341-2.6324141-2.3503454-5.3615593-3.5184288-8.0464812-.0980462-.2253893-.2611445-.4184004-.3619552-.6427927-.1783915-.3972976-.476231-.8106419-.4677149-1.2110491.0211787-.9946327-.3091645-1.8864574-.48011-2.8250454-.1169956-.6425554-.2430869-1.2718413-.5088239-1.8373679-.6405777-1.3632789-.7318468-2.8647586-.9266462-4.3123063-.2377365-1.7664872-.4041788-3.5824437.2408576-5.3388899.1268939-.3455732.1368813-.7774803.0864983-1.1521322-.1502127-1.1169292.0846702-2.1794517.287852-3.2564304.6597946-3.4977477,1.6823023-6.8516687,3.4853009-9.8862467.6147174-1.0346307,1.3175382-2.0101782,1.9857151-3.0084428.3158971-.4719764.6757566-.9134973.9624494-1.4041077.9969595-1.7060748,2.1294181-3.2961198,3.3547955-4.8269155.93757-1.1711698,1.7159653-2.4853355,2.5908017-3.7152086,1.1712937-1.6466356,2.3579252-3.2811413,3.5549454-4.9066504,2.0150531-2.7363852,3.973704-5.516329,6.2109329-8.0670143,1.3110285-1.4946788,2.4633282-3.1619544,3.5696144-4.8393778.5813665-.8815226.9127352-1.9506204,1.3520037-2.9375502.3087186-.6936151.6074943-1.392227.9143849-2.0867916.0513193-.1161722.1570345-.2160485.1774106-.3351642.3897327-2.2722423,1.6107406-4.3130303,1.64155-6.6842824.554882-1.4426814.5935387-3.0200743,1.0078833-4.4897336.5601878-1.9867017.7529363-4.0333885,1.0940248-6.0561833.0536378-.3178832.0500263-.6485254.1208301-.9609489.1848566-.815971.5329899-1.6174501.5734301-2.4382755.1679583-3.4060134.5668312-6.80576.3812612-10.2239033-.0450772-.8305341-.1993027-1.666421-.398873-2.4730275-.5196139-2.0998473-.9487612-4.2102698-1.6879202-6.2671638-.7855292-2.1859914-1.7548895-4.2044541-2.8508316-6.2195342-.9142957-1.6812333-2.060487-3.1926116-2.9036223-4.9155164-1.4546424-2.9726226-3.1355179-5.8027479-4.8517507-8.6114856-.4035992-.6604892-.8383645-1.2504062-1.3698384-1.7929666-.5675446-.5793419-1.0596931-1.2423829-1.4257948-1.6792275-1.2812-1.0464876-2.4576657-1.8574144-3.4605552-2.86445-1.2603334-1.2655627-2.7230014-2.1632151-4.237613-2.9636973-3.0483508-1.6111478-6.2211879-2.8992613-9.4985808-3.8934192-1.2822255-.3889538-2.6152352-.5664167-3.8825687-.9456618-2.300542-.6884166-4.6554576-.7963162-6.9908442-1.126994-.7194962-.101894-1.4330624-.2506581-2.1503293-.3712218-3.402325-.5719476-6.8108475-1.1243235-10.0841607-2.3176287-1.0892764-.3971196-2.2217573-.5981065-3.3212886-.9734824-1.9212649-.6559078-3.7151232-1.5956471-5.4224164-2.6419804-1.3870489-.8500464-2.8097672-1.6996063-4.0372847-2.8968045-2.7255874-2.6582763-5.3740398-5.3836532-7.8671074-8.37961.085718-.3806694.1648149-.7320524.229644-1.020032.6766484-.2970178,1.1631789-.0673023,1.6339926.268942,2.5714288,1.8364896,5.2923346,3.3986784,8.0186131,4.9509864.213838.1217565.4259817.2473289.6350266.3781591,1.3487935.8441002,2.6585736,1.7712941,4.0554761,2.5123845,1.3506661.7165576,2.790528,1.2426203,4.1918447,1.850661.1125146.0488165.2434659.0620384.343251.1296196,1.2810662.867731,2.7396991.9875707,4.1911759,1.1685231.6589697.082168,1.3626822.1423549,1.9480616.43491,1.6310498.8151046,3.4338255.7802102,5.1285452,1.2781793.7692327.2259946,1.670353.0567687,2.5122176.1621877,1.3209936.165416,2.6484524.2721051,3.9727454.4083.1811559.0186222.3696464.0355947.5382288.1013718,1.6642001.6491307,3.4475359.6791351,5.1455773,1.1252968,1.8211454.478528,3.6072456,1.1074816,5.4100213,1.6657919,2.0330662.6296064,3.8882758,1.7409098,5.8963289,2.4512838.9080535.3212302,1.7389275.9134617,2.575553,1.4358094,2.2420888,1.3997637,4.5019677,2.7996343,6.3627953,4.7537085,1.8000559,1.890208,3.8064146,3.569566,5.3243256,5.7566968.2887437.4160266.6090549.8098704.8706899,1.2441039,1.4694898,2.4387503,2.9406739,4.8766103,4.3817173,7.3343982,1.5039107,2.565011,2.9743368,5.1522523,4.459432,7.7297612.0317903.0551901.0718738.1067958.094301.1660095.700636,1.8500794,1.4028772,3.6994586,2.0944621,5.5533836.0885493.2373768.0655425.5347863.1867293.7435117,1.05247,1.8128944,1.3351053,3.878785,1.5893389,5.9114428.3180818,2.5429824.5653153,5.1116371.24059,7.6883864-.0320133.2541-.0679502.5122355-.0592558.766834.0753516,2.201231-.3250373,4.3629269-.5052569,6.5411204-.1212759,1.4657901-.4731991,2.9119254-.7508407,4.3605887-.4335169,2.2620707-.9911632,4.4951102-1.2907415,6.7893929-.1155688.885202-.4865751,1.7290885-.6751324,2.6078931-.2282395,1.0635788-.4314213,2.1380531-.5612579,3.2192928-.1174415.97804-.3929875,1.8799889-.7888732,2.762378-.2602082.5801252-.4349436,1.2031207-.6652787,1.7993164-.1601556.4144956-.3392159.8218342-.5304039,1.221197-.1091483.227953-.3318591.41681-.3797453.6518487-.3039924,1.4913081-1.0447565,2.7385572-1.8751399,3.9404198-.4662881.6748861-.9159008,1.3646319-1.4116162,2.0142967-1.5999952,2.0969276-3.137346,4.2572942-4.8524195,6.2428802-1.6094921,1.8634082-2.945623,3.9333104-4.3973227,5.9168312-1.1873449,1.622257-2.2118144,3.3801274-3.5980608,4.8397813-.3377891.3557092-.5407926.8560046-.8087143,1.2877456-1.2678685,2.0427226-2.7649575,3.9067954-4.038979,5.9487347-1.6390086,2.6267646-3.3838661,5.1782095-4.3757873,8.1952216-.1590855.4838927-.4058285.9351223-.5216203,1.1969727-.2996675,2.1874987-.5866723,4.1616669-.8367148,6.1411523-.2441124,1.9333156-.1786591,3.8644237.2719345,5.7564832.2049207.8603486.3949048,1.7081162.5270153,2.5905171.1786145,1.1931034.603749,2.3565585,1.0145713,3.4953739.6725018,1.8643339,1.3960108,3.7089418,2.1419916,5.5416097.4573262,1.1234571.9873288,2.2140612,1.5016368,3.3103861.7292607,1.5543198,1.4618209,3.1071678,2.2175215,4.6470076.3921404.7991529.7769685,1.6003471,1.4250368,2.2339771.3460377.3383569.5657611.8232941.9868383,1.4605322,1.1317006.4838927,1.4828658,1.9727914,2.274548,3.1521032,1.6089125,1.251332,2.689918,3.0709916,3.9398181,4.7240839,1.2882893,1.7038434,2.5498711,3.4126481,4.0274756,4.9565707,1.0601389,1.1078139,2.0162124,2.3615672,2.9620755,3.6087213.9047095,1.1928898,1.7020096,2.4795435,2.7095808,3.6002944,1.4222278,1.5819504,2.6373057,3.3617307,3.8260328,5.1537834.4871101.7343015,1.1468155,1.3744593,1.4914265,2.1731612.8384091,1.9431193,2.4817871,3.339441,3.1200017,5.4128802.203806.6621152.6130231,1.2546553.942742,1.8701971.6601513,1.2323893,1.1377644,2.533428,1.6035175,3.8687202.7803125,2.237063,1.3669849,4.529696,2.0413147,6.7954816.6754445,2.2694887,1.2379954,4.5769577,1.8618085,6.864131.2183859.8007908.4758743,1.5893566.7077253,2.3861119.5016454,1.7241154,1.0641517,3.4321604,1.4784963,5.1799186.4133637,1.743699.9385509,3.4569901,1.1181463,5.2715223.1451298,1.4660631.4841228,2.9196639.8409505,4.349432.2348384.9408431.3912932,1.8708143.5081997,2.8373653.1457541,1.2048536.3417128,2.4135052.535888,3.6152967.2775079,1.7175163.6000929,3.4143097.6317049,5.1713256.0185035,1.0247558.2407684,2.0483722.4041342,3.0665289.3372095,2.1018294.3446109,4.2035877.3280246,6.3375342-.0193061,2.4800657-.4329372,4.8762899-.7601593,7.2962518-.1015686.7516775-.4405616,1.4712141-.7003239,2.1934569-.4329372,1.2037854-.5781563,2.4877804-1.0730691,3.6891209-.991832,2.4073572-2.0057345,4.7977894-3.2802911,7.0492849-.3393051.599424-.9212066,1.0409686-1.2737986,1.6344582-1.5633003,2.6316308-3.7925927,4.6522536-5.6272479,7.0333807-.5352192.6945884-1.149357,1.3215718-1.7414689,1.9647443-1.4067117,1.5280422-2.5528138,3.2682517-3.6680619,5.0367566-.2355963.3735837-.550022.6898883-.8161157,1.0428439-.3001133.3979623-.6416924.7753202-.869709,1.2175295-1.0542981,2.0444792-2.3634539,3.8861674-3.7741338,5.6634552-1.604766,2.021691-3.1295433,4.1150699-4.719774,6.1501015-.8814799,1.1279672-1.8574836,2.1726152-2.7308932,3.3071815-.6515014.8462484-1.3165127,1.716282-1.7832467,2.6811713-1.10749,2.2894046-2.6500129,4.3265251-3.4595298,6.7850845-.882327,1.0130294-1.0062336,2.4854304-1.8799553,3.5123226-.1923918.2261726-.2723358.5749742-.3652546.8807155-.6704508,2.2061803-1.5908995,4.3105259-2.2079354,6.5471854-.5262127,1.9073229-.9943735,3.8188236-1.4515659,5.7438073-.4470712,1.8822084-.7459362,3.7862555-1.1130634,5.6790034-.379344,1.9559376-.788249,3.916243-.6425841,5.940023.0139111.193747.0810587.4053922.0312999.5786298-.447963,1.5593284.0725872,3.0552772.2374244,4.5742991.0486441.4485473.0841798.8988986.1154351,1.3492499.0493129.7097567.0007134,1.4423491.1503465,2.1263742.5193018,2.3742431.8172749,4.8187972,1.7863677,7.0599669.5812327,1.344265,1.1209998,2.7314952,1.8771463,3.9616769.9908511,1.6120261,2.1885401,3.0786826,3.2742273,4.6262846.6586799.9388254,1.477337,1.6978141,2.2963063,2.4614553.4103318.382604.8215107.764211,1.1780263,1.2091501.8599445.4438947,1.616849,1.0256104,2.3618934,1.7279609,1.4008708,1.3206223,2.9814707,2.4228104,4.4609033,3.6519002,1.0509986.8731669,2.0588373,1.8052983,3.0855362,2.7116031.3263304.2880805.6309024.6103908.9806853.8612032,1.4111703,1.0113677,2.7627728,2.1201549,3.962914,3.3873674,1.6649135,1.7578704,3.3123935,3.5599879,4.3645068,5.8505794.1860605.4050124.3294514.8690366.6143607,1.1788134.7865993.8554112,1.2783464,1.9222301,1.708876,2.9632225,1.0713302,2.5906358,2.2044576,5.1651775,2.7052113,7.9909113.3581653,2.0210738.8792951,4.0090099,1.3006398,6.0181199.1312634.6260102.2239592,1.2708206.2485711,1.9107886.0770459,1.9988079.6622469,3.9331917.5781117,5.9607222-.0422236,1.0166375.2654249,2.0442418.2959668,3.0708966.0613514,2.0635168.1539134,4.1340125-.2316727,6.182812-.0586316.3112485-.0286693.6415346-.0386121.9629903-.0399051,1.2891461.0288476,2.5878348-.3400185,3.8462643-.0711604.2430264-.0999189.5113097-.0949252.7667747.0507843,2.5929146-.3298527,5.1432439-.6467753,7.7007419-.0634915.5123067-.0613959,1.0336812-.0936322,1.550593-.071963,1.1540312-.1172631,2.3102938-.467269,3.4242558-.0945685.3009464-.1330022.6313274-.1454865.9504568-.1179765,3.019196-.923213,5.8473036-2.0805511,8.5795109-.0997851.2354303-.2466538.4599888-.2947184.7066234-.4560332,2.3385891-1.715564,4.2489504-2.8955521,6.2009001-1.2457981,2.0609057-2.4822776,4.1255619-3.179748,6.4904524-.036472.1236733-.0509626.2660045-.1192695.3659401-.9797936,1.4341834-1.3802271,3.1430117-1.9870527,4.7523792-.3834906,1.0173022-.71477,2.0568228-1.0763239,3.08362-.1488751.4226257-.3113938.8399817-.4757851,1.2561982-.1643467.4161216-.3770701.8150096-.5027601,1.2433799-.8823716,3.0079443-1.7811511,6.0099067-2.5817952,9.0453867-.3945927,1.4962811-.6361636,3.015208-.7921726,4.5422532-.1303716,1.2761853-.4742246,2.5150076-.4468037,3.825755.0218475,1.0468793.0104779,2.063137.4293257,3.0377588.0963074.2240363.1088362.4969721.1266263.7500158.2082201,2.9643144.537181,5.9096387,1.1458792,8.8157484.2229337,1.0641603.2615904,2.1293177.2057678,3.2377251-.0708929,1.4077396.127741,2.8368905.2732275,4.2494251.1716144,1.6664803.4076566,3.325507.6216729,4.9869075.1214097.9429083.5826595,1.7701191.7364838,2.7278871.2635076,1.6400365.7123623,3.2562405,1.1951476,4.8440066.6522148,2.1450795,1.4597253,4.2298178,2.338842,6.2863083.7849496,1.8361573,1.9803201,3.3941089,2.8947495,5.1402529.7531592,1.4381238,2.1026661,2.3093443,3.1379702,3.4835525.3582545.4063417.899047.6259152,1.4848276.6420094.7154388.0196548,1.2494988.4416633,1.7483353,1.1083599v1.6027684c-.5304039.8076984-1.1843576,1.3636824-2.023703,1.6360486-1.2103516.3927637-2.3959131.3318053-3.5332762-.307403-.6446797-.362332-1.2926588-.7181124-1.9471921-1.081299-.4837215-.4580898-.9653475-.9449972-1.4768912-1.3931646-2.0287858-1.7776202-3.7924589-3.8061951-4.9351725-6.3419019-.812415-1.8026872-1.8888281-3.4651796-2.4931122-5.3767752-.8879003-2.8085478-1.8738469-5.587186-2.238076-8.5508358-.0315674-.2565569-.0371408-.5215169-.1035304-.7676292-.9634749-3.5709547-1.2775439-7.217775-1.2474478-10.9231324.0156499-1.9230847-.1984556-3.8380986-.5370919-5.7391547-.5279962-2.9645043-1.0710627-5.9289137-1.3121878-8.9430298-.0407969-.5105976-.1866847-1.0109879-.2391633-1.5213007-.0654979-.6372618-.2122329-1.3076615-.0962182-1.9143967.2208381-1.1548858.1933281-2.3088695.2637306-3.4666038.0659438-1.085097.3365407-2.1569958.5318752-3.2316482.0572048-.3145718.2122775-.6137141.2419722-.9285707.1630983-1.7256821.9830484-3.2887136,1.0851521-5.0289232.0107454-.1842044.1138299-.3635664.1801304-.542596.9549588-2.5777225,1.8884268-5.1582461,2.6650832-7.8110272.554659-1.8945045,1.4497824-3.6763975,2.2003556-5.5051011.2180737-.5313918.5717804-1.0289336.669024-1.5807873.1720156-.9755713.532767-1.8580434.976628-2.6971231.9089899-1.7184184,1.6164031-3.5314552,2.7499764-5.1508399,1.5122485-2.1602241,2.7133707-4.5904407,3.6239211-7.1118574.5558183-1.5391039,1.25962-3.077828,1.2829389-4.8121507.0075797-.5654791.2474118-1.1260208.3695349-1.6916423.1083904-.5024318.2803614-1.0077121.2860239-1.5135147.019529-1.7541199.337477-3.4638502.5796722-5.1865414.0807466-.5744519.0988042-1.1600131.1277856-1.7414439.0932309-1.8720012.3919174-3.7155172.6333101-5.5685757.1408049-1.0806818.1013011-2.1880922.1407158-3.2836338.0116817-.3235446-.0522557-.6699249.0342872-.9676429.7020628-2.412888.301451-4.872207.2667179-7.3086428-.0303636-2.1293652-.1920797-4.2582081-.348267-6.3829681-.0465486-.6336062-.3587003-1.2464658-.3961086-1.8791225-.1029954-1.7390702-.3941914-3.4380711-.7631021-5.1294285-.3977137-1.823244-.7327385-3.6632468-1.453929-5.3884067-.222042-.5310595-.4814476-1.0679584-.5761944-1.6303516-.166264-.9863482-.6331763-1.8369644-1.1086939-2.6279989-1.0417246-1.7330883-1.8989493-3.5992025-3.1413588-5.1899122-1.1597903-1.4849345-2.2532801-3.0495327-3.7078333-4.232429-1.4366739-1.1684637-2.9498141-2.2302503-4.3880486-3.3966726-1.105662-.8967147-2.1471191-1.883063-3.4820906-3.0639178Z" stroke-width="0"/>
    </g>
  </g>
</svg>