<?xml version="1.0" encoding="UTF-8"?>
<svg id="Layer_2" data-name="Layer 2" xmlns="http://www.w3.org/2000/svg" viewBox="0 0 96.0724064 152.6464844">
  <g id="Layer_1-2" data-name="Layer 1">
    <g>
      <path d="m41.2348651,1.9560547c-.9365234-.0380859-1.8740234-.0771484-2.8095703-.1318359-1.3955078-.0810547-2.8789062-.1757812-4.3242188-.3603516-.6875-.0878906-1.3730469-.2138672-2.0576172-.3398438-.9443359-.1748047-1.9199219-.3544922-2.9052734-.4335938-2.1923828-.1777344-4.7910156-.3486328-7.4560547-.296875-2.3339844.0488281-4.6962891.2119141-6.9814453.3701172-.8720703.0595703-1.7441406.1201172-2.6171875.1738281-.6142578.0390625-1.1650391.1054688-1.6845703.203125-2.8603516.5439453-5.3896484.4111328-7.7236328-.4023438-.2949219-.1035156-.5820312-.1259766-.8349609-.1464844-.0966797-.0078125-.1943359-.0146484-.2949219-.0283203-.3310547-.0429688-.6552734.1386719-.7880859.4462891C.2290057,2.2353516.2075213,3.421875.1860369,4.5683594l-.0068359.3349609c-.0410156,1.7724609-.078125,3.5449219-.1142578,5.3173828l-.0097656.2490234c-.0117188.25-.0253906.5332031.0136719.8261719.21875,1.6416016.1591797,3.2714844.0966797,4.9960938l-.015625.4189453c-.0810547,2.2851562-.1171875,4.5908203-.1474609,6.7558594-.0126953.9052734.0263672,1.8144531.0644531,2.6933594.0634766,1.4560547.1230469,2.8310547-.0283203,4.2207031-.0410156.3740234-.0126953.7275391.0136719,1.0693359l.0205078.2636719c.0332031.5224609.0742188,1.0449219.1152344,1.5673828.0839844,1.0576172.1699219,2.1513672.1865234,3.2158203.0185547,1.1953125.2236328,2.3339844.421875,3.4355469.0976562.5439453.1962891,1.0888672.2705078,1.6376953.0898438.6650391.4541016,1.2353516.8212891,1.7636719.2519531.3623047.6064453.5683594.9970703.5800781.0126953.0009766.0244141.0009766.0371094.0009766.2958984,0,.7207031-.1142578,1.1289062-.6279297.1376953-.1728516.1914062-.3964844.1484375-.6123047l-.0898438-.4423828c-.0683594-.3310547-.1425781-.6884766-.2041016-1.0478516-.0634766-.3740234-.1318359-.7490234-.1992188-1.1230469-.1699219-.9355469-.3457031-1.9033203-.4453125-2.8515625-.1669922-1.5820312-.1816406-3.2197266-.1943359-4.8037109-.0126953-1.4882812-.0253906-3.0273438-.1630859-4.5546875-.1533203-1.6953125-.1113281-3.4677734-.0703125-5.1816406.015625-.6591797.03125-1.3173828.0361328-1.9746094.0068359-.8486328.0292969-1.6972656.0507812-2.5458984.03125-1.2246094.0644531-2.4902344.0507812-3.7412109-.0185547-1.7558594-.0664062-3.5117188-.1142578-5.2666016-.0380859-1.3886719-.0761719-2.7773438-.0996094-4.1650391-.0078125-.4833984.0419922-.9863281.0986328-1.5673828.0048828-.0439453.0087891-.0878906.0136719-.1328125.1210938.0244141.2285156.0498047.3349609.0830078,1.6337891.5107422,3.3388672.6582031,5.0683594.4345703,1.5224609-.1972656,3.1123047-.3085938,4.515625-.4072266.4033203-.0263672.8037109-.0126953,1.2050781-.0019531.2451172.0078125.4912109.015625.7363281.015625l.6630859.0029297c.7197266.0039062,1.4414062.0078125,2.1630859-.0292969.6142578-.03125,1.2294922-.0800781,1.84375-.1289062.9541016-.0761719,1.9404297-.1552734,2.8955078-.1572266.703125-.0117188,1.4970703.1005859,2.2929688.2070312.4013672.0537109.8027344.1074219,1.203125.1484375.5107422.0517578,1.0214844.0986328,1.5322266.1455078.8125.0742188,1.625.1484375,2.4355469.2441406.8710938.1025391,1.7412109.2197266,2.6123047.3359375,1.4248047.1914062,2.8984375.3886719,4.359375.5224609,1.2832031.1181641,2.5703125.1933594,3.8574219.2695312,1.6083984.0947266,3.2724609.1923828,4.8916016.3769531,3.7285156.4257812,7.5849609.1982422,10.6826172.0146484.6484375-.0380859,1.2578125-.2529297,1.7783203-.4511719,1.0751953-.4101562,1.9882812-.6035156,2.8720703-.6074219.3769531-.0009766.734375-.0527344,1.0791016-.1025391.1914062-.0273438.3828125-.0556641.5751953-.0722656.7285156-.0654297,1.4570312-.1396484,2.1845703-.2138672,1.8134766-.1835938,3.6884766-.375,5.5205078-.4140625,1.4072266-.03125,2.7373047-.1416016,4.0673828-.3378906l.4384766-.0664062c.84375-.1289062,1.640625-.25,2.4316406-.25,1.3496094,0,2.7275391.0449219,4.0595703.0888672.8339844.0263672,1.6669922.0537109,2.5.0712891.3525391.0039062.7158203-.0126953,1.0742188-.03125.5039062-.0273438.9804688-.0546875,1.4697266.0087891,1.4560547.1865234,2.9599609.3769531,4.5117188.1425781.1728516-.0283203.5244141-.0800781.6982422.6240234l.0878906.3564453c.2285156.9248047.4648438,1.8818359.5908203,2.8212891.2099609,1.5849609.3818359,3.2753906.5537109,5.4794922l.0527344.6425781c.1025391,1.2177734.1982422,2.3671875.0576172,3.5400391-.1132812.9345703-.0986328,1.9707031.0439453,3.0791016.3134766,2.4404297.3974609,4.6767578.2568359,6.8359375-.0996094,1.5205078-.1552734,3.0449219-.2109375,4.5693359-.0986328,2.6835938-.2001953,5.4589844-.5517578,8.1503906-.1035156.7900391-.0917969,1.6650391.0351562,2.6005859.0830078.6181641.46875,1.1494141.796875,1.5429688.3652344.4414062.9482422.6103516,1.4794922.4355469.5371094-.1767578.90625-.6640625.9423828-1.2421875.0205078-.3388672.1025391-.6982422.1894531-1.078125.2148438-.9423828.4833984-2.1162109-.2021484-3.2167969-.0107422-.0517578-.0039062-.203125.0029297-.375.0498047-1.2841797.1113281-2.5683594.1728516-3.8515625.0390625-.8027344.0898438-1.6064453.140625-2.4101562.1103516-1.75.2255859-3.5605469.2089844-5.3525391-.0195312-2.1542969-.125-4.3359375-.2275391-6.4443359-.1132812-2.3183594-.2294922-4.7148438-.2294922-7.0693359,0-.5791016-.0800781-1.140625-.1582031-1.6835938-.0273438-.1875-.0537109-.3740234-.0771484-.5615234-.0273438-.2197266-.0634766-.4384766-.0996094-.65625-.0537109-.3183594-.1083984-.6347656-.1240234-.9560547-.0830078-1.6630859-.421875-3.2548828-.75-4.7949219l-.2089844-.9902344c-.2578125-1.2587891-.8623047-2.0507812-1.8457031-2.4208984l-.3378906-.1308594c-.6826172-.2685547-1.4912109-.5556641-2.2607422-.5605469-.7265625.0087891-1.4521484.0078125-2.1816406.0068359-2.6367188-.0029297-5.3828125-.0078125-8.0908203.4765625-.1005859.0175781-.2041016.0410156-.3085938.0654297-.1357422.03125-.3632812.0839844-.4042969.0839844-1.0693359-.5371094-2.1269531-.4667969-3.0615234-.4033203l-.4521484.0283203c-.6787109.0341797-1.359375-.0039062-2.0800781-.0439453-.4814453-.0273438-.9628906-.0546875-1.4443359-.0595703l-.2998047-.0029297c-.9716797-.0146484-1.9775391-.0234375-2.9794922.0869141-2.8662109.3134766-5.7421875.6708984-8.5449219,1.0615234-1.6582031.2314453-3.3339844.5107422-4.9550781.7802734l-1.7861328.2958984c-1.6796875.2734375-3.1914062.4775391-4.7060547.1875-1.3222656-.2529297-2.6376953-.3623047-3.8623047-.4414062-1.1191406-.0732422-2.2392578-.1191406-3.359375-.1660156Z" stroke-width="0"/>
      <path d="m64.5795916,147.6318359c-.2070312-.1865234-.421875-.3798828-.7324219-.4667969-.4619141-.1328125-.921875-.2744141-1.3808594-.4150391-2.3339844-.7197266-4.7480469-1.4580078-7.3955078-.9443359-.9677734.1894531-1.9677734.3320312-2.9355469.4707031-2.3828125.3408203-4.8476562.6923828-7.2197266,1.7675781-.6582031.2988281-1.15625.4472656-1.6865234.3164062-.0273438-.1943359-.0556641-.390625-.0849609-.5888672-.1132812-.7675781-.2294922-1.5615234-.2617188-2.3417969-.0332031-.8261719-.0947266-1.6513672-.15625-2.4765625-.1513672-2.0087891-.2929688-3.90625-.0429688-5.8349609.0380859-.2988281.0048828-.5761719-.0234375-.8212891-.0117188-.09375-.0234375-.1875-.0283203-.2822266l-.0917969-1.4404297c-.1523438-2.3466797-.3105469-4.7724609-.1689453-7.1533203.0498047-.8476562-.0029297-1.6962891-.0537109-2.5175781l-.0283203-.4628906c-.0654297-1.1181641-.1669922-2.2324219-.2695312-3.3476562-.2285156-2.4941406-.4638672-5.0722656-.2421875-7.609375.0322266-.375-.0048828-.7265625-.0400391-1.0664062-.0175781-.1591797-.0341797-.3183594-.0419922-.4775391-.0498047-1.0527344-.1054688-2.1044922-.1621094-3.15625-.1298828-2.4384766-.2646484-4.9609375-.3154297-7.4375-.0625-3.0625-.0673828-6.1806641-.0722656-9.1972656-.0029297-1.6035156-.0048828-3.2070312-.015625-4.8105469-.0029297-.5224609-.0253906-1.0449219-.046875-1.5683594-.0361328-.8574219-.0703125-1.6679688-.0244141-2.4765625.1767578-3.1464844.0761719-6.2001953-.0449219-8.7724609-.0751953-1.6123047-.0986328-3.2617188-.1210938-4.8574219-.0146484-1.03125-.0302734-2.0634766-.0576172-3.0957031-.0742188-2.6669922-.1679688-5.3330078-.2617188-7.9990234l-.0644531-1.8417969c-.0537109-1.5546875-.1064453-3.1103516-.1982422-4.6611328-.0605469-1.0087891-.1464844-2.0146484-.2314453-3.0205078-.0644531-.7587891-.1289062-1.5175781-.1826172-2.2763672-.0566406-.8183594-.1054688-1.6367188-.1542969-2.4550781-.0712891-1.1875-2.4294062-1.6502767-2.6201172.4775391-.0694131.7744607.2294922,1.40625.0996094,2.1054688-.1152344.6181641-.0722656,1.2373047-.03125,1.8369141.0117188.1679688.0234375.3339844.03125.5.0585938,1.25.1269531,2.4990234.1953125,3.7480469.1367188,2.484375.2773438,5.0527344.3310547,7.5742188.0371094,1.7197266.0791016,3.4394531.1220703,5.1591797.1259766,5.1162109.2568359,10.40625.2226562,15.609375-.0273438,4.0908203.0507812,8.2470703.125,12.2666016l.0898438,5.1621094c.0478516,3.1630859.0986328,6.4345703.2451172,9.6503906l.0595703,1.2402344c.0888672,1.7851562.1806641,3.6308594.109375,5.4414062-.0429688,1.0771484.0253906,2.1357422.1054688,3.2148438.0664063.8994141.1513672,1.7949219.2363281,2.6914062.1826172,1.9355469.3730469,3.9375.3554688,5.9111328-.0048828.5644531-.0136719,1.1279297-.0234375,1.6923828-.0371094,2.3144531-.0751953,4.7070312.1806641,7.0810547.109375,1.0117188.1279297,2.0214844.0546875,3.0009766-.2236328,2.9951172.125,5.9033203.453125,8.1035156.0927734.6181641.0869141,1.2988281.0810547,2.0449219-.0009766.1201172-.0009766.2080078-.25.2998047-.3222656.1171875.6601562,2.7744141,1.3105469,3.2119141.3037109.2041016.6347656.3095703.9609375.3095703.1386719,0,.2753906-.0185547.4101562-.0566406.3349609-.0947266.8007812-.3515625,1.1123047-1.0351562.1591797-.3486328.3466797-.3974609.9726562-.5097656.59375-.1074219,1.1660156-.2802734,1.7197266-.4472656l.4951172-.1474609c.3681641-.1064453.7353516-.2226562,1.1015625-.3378906.7353516-.2324219,1.4287109-.4511719,2.1347656-.5976562.7099609-.1474609,1.421875-.2353516,2.1757812-.328125.5195312-.0634766,1.0390625-.1279297,1.5556641-.2119141,2.5400391-.4121094,5.2441406-.6259766,7.8300781.6025391,1.125.5322266,2.2626953.3222656,3.2041016-.5986328.1542969-.1513672.2363281-.3623047.2246094-.578125-.0126953-.2158203-.1171875-.4160156-.2880859-.5498047-.0966797-.0751953-.1796875-.1503906-.2548828-.21875Z" stroke-width="0"/>
      <path d="m89.2817401,48.6884766c.8193359-.1054688,1.3896484-.0771484,1.890625.3720703.3925781.3525391.8662109.1923828,1.1494141.0957031.3769531-.0732422.6376953-.4179688.6044922-.8007812-.1435547-1.6601562-1.1269531-2.6386719-2.6992188-2.6845703-1.5214844-.0390625-2.8173828.0908203-3.9628906.4082031l-.4365234.1230469c-.8066406.2275391-1.5673828.4433594-2.3564453.53125-2.3505859.2617188-4.4677734.515625-6.5830078.9755859-1.7314453.3769531-3.4697266.4404297-5.3984375.4794922-.9941406.0087891-1.7832031-.1738281-2.5830078-.6220703-.015625-.328125-2.7324219,1.1347656-2.5166016,2.5771484.0380859.2539062.0761719.5087891.1054688.7617188.0195312.1660156.097168.3095703.2050781.4238281-.0317383.015625-.0688477.0175781-.0986328.0380859-.1914062.1289062-.3125.3398438-.328125.5703125-.0380859.5488281-.0800781,1.0830078-.1230469,1.6083984-.0917969,1.1503906-.1787109,2.2373047-.2021484,3.3466797-.0263672,1.2861328-.0214844,2.5732422-.015625,3.8613281.0117188,2.7558594.0234375,5.6064453-.3017578,8.3769531-.0429688.3681641-.0205078.71875.0009766,1.0566406.0107422.1611328.0214844.3222656.0224609.4814453l.0263672,2.9355469c.0234375,2.3974609.046875,4.7949219.0283203,7.1923828-.0107422,1.3876953-.0546875,2.7753906-.0986328,4.1630859-.0498047,1.5654297-.1005859,3.1845703-.1015625,4.7832031-.0009766,2.2119141.0390625,4.4228516.0791016,6.6337891.03125,1.7363281.0625,3.4716797.0742188,5.2080078.0136719,1.9873047.0087891,3.9746094.0048828,5.9619141-.0058594,2.7978516-.0117188,5.6914062.0332031,8.5390625.0410156,2.5722656.1308594,5.1826172.2177734,7.7070312.078125,2.2626953.15625,4.5253906.2011719,6.7880859.0898438,4.4541016.1054688,8.9863281.1210938,13.3701172l.0019531.6445312c.0019531.6660156-.0566406,1.3427734-.1191406,2.0595703-.03125.3515625-.0615234.7089844-.0869141,1.0771484-.0234375.3417969.1884766.6572266.5146484.7636719l1.2177734.3994141c.0761719.0253906.1552734.0380859.234375.0380859.1376953,0,.2744141-.0380859.3945312-.1123047.1884766-.1162109.3154297-.3105469.3476562-.5292969.046875-.3232422.1025391-.6308594.15625-.9277344.1171875-.6533203.2275391-1.2705078.2353516-1.9150391.0449219-3.671875.0878906-7.9394531.0361328-12.1103516-.0283203-2.2099609-.1103516-4.4521484-.1894531-6.6201172-.0458984-1.2558594-.0917969-2.5117188-.1279297-3.7675781-.0146484-.5048828-.0078125-1.0107422,0-1.5166016.0058594-.4580078.0117188-.9160156.0039062-1.3730469-.0371094-2.0898438-.0791016-4.1806641-.1210938-6.2705078-.0703125-3.5429688-.1416016-7.0849609-.1904297-10.6289062-.0742188-5.3710938-.1181641-10.8183594-.1318359-16.1914062-.0039062-1.5214844.0205078-3.0429688.0458984-4.5644531.0302734-1.9130859.0625-3.8916016.0351562-5.8417969l-.0292969-2.0205078c-.0712891-4.7050781-.1435547-9.5703125-.0019531-14.3486328.0439453-1.4931641.0771484-3.0820312-.03125-4.6582031l-.0361328-.4394531c-.0517578-.5996094-.0976562-1.1171875.0585938-1.6386719.246582-.8212891-.0410156-1.5454102-.7280273-1.9614258.5249023-.1679688.7783203-.6123047.9272461-.8823242.0302734-.0556641.0585938-.1044922.0839844-.1474609.1201172.0351562.2431641.0693359.3671875.0996094,2.2197266.5429688,4.8632812,1.0009766,7.6669922.2998047,1.8310547-.4589844,3.7548828-.6972656,5.6240234-.9296875l.34375-.0419922c1.2128906-.1484375,2.4667969-.3027344,3.7148438-.6865234.8740234-.2705078,1.828125-.3925781,2.8242188-.5205078Z" stroke-width="0"/>
      <path d="m29.8725604,43.8125c-.7646484-.0146484-1.5283203-.0488281-2.2929688-.0820312s-1.5302734-.0664062-2.296875-.0820312c-.7451172-.0126953-1.515625.0244141-2.2910156.1142578-1.3007812.1533203-2.2529297.1640625-3.1806641.0390625-1.2763672-.1728516-2.5410156-.0908203-3.7646484-.0126953-.8554688.0537109-1.6591797.1074219-2.4736328.0791016-1.0830078-.0371094-2.1591797.1152344-3.1962891.2617188-.7001953.0986328-1.3613281.1914062-2.0283203.2314453-1.7119141.1044922-3.3339844.6103516-5.0498047,1.1455078l-1.0107422.3115234c-.2617188.0791016-.4599609.2949219-.515625.5634766-.0566406.2675781.0371094.5449219.2441406.7226562.15625.1347656.265625.2402344.3457031.3183594.1728516.1669922.4033203.390625.7548828.390625.0322266,0,.0654297-.0019531.0986328-.0058594.5332031-.0605469,1.0654297-.1328125,1.5966797-.2050781.7822266-.1064453,1.5634766-.2119141,2.3476562-.28125l1.2167969-.1083984c2.3310547-.2080078,4.7402344-.4238281,7.1044922-.5195312,1.3066406-.0527344,2.6494141-.0205078,3.9492188.0126953.9316406.0234375,1.8632812.0488281,2.7949219.0400391.5117188-.0039062,1.0087891-.0664062,1.4892578-.1269531.5136719-.0654297,1.0068359-.1171875,1.4667969-.1132812l.5498047.0136719c2.4277344.0585938,4.7216797.1152344,6.9804688.8105469.3525391.1132812.6513672-.0292969.8339844-.1152344.2548828-.0830078.4462891-.2958984.5009766-.5576172.2470703-1.1660156-.6035156-1.6865234-.9238281-1.8818359-1.0068359-.6162109-2.1005859-.9394531-3.25-.9628906Z" stroke-width="0"/>
    </g>
  </g>
</svg>