<?xml version="1.0" encoding="UTF-8"?>
<svg id="Layer_2" data-name="Layer 2" xmlns="http://www.w3.org/2000/svg" viewBox="0 0 213.4264487 303.7239975">
  <g id="Layer_1-2" data-name="Layer 1">
    <g>
      <path d="m94.1327309,100.1417539c-.0039793-.1288618-.0623086-.2623992-.1614254-.3312404-.4554597-.1929942-1.0233336-.2136201-1.4825073-.0327626.1112535.0411854-.1318462.1487249-.1733964.0809117-.3277254-.5377973.342714-1.1583632.7089056-1.519415,2.5646345-2.1487021,5.6987677,2.4599799,2.5128378,3.7689914-1.1439052.3673522-1.3981469-1.0339118-1.4044143-1.9664851Z" fill="#423b30" stroke-width="0"/>
      <path d="m100.2142705,102.4418006c-1.742121-1.1131654-.4622245-4.1365094,1.3455875-4.3761273.4669001,0,.5730138.3056073.4923674.6876497-.0730195.0071627-.1150007-.1476638-.1918999-.1730647-.0027855.0000995-.0056041.0002321-.0084559.0003316-.4670659.6944144-.6223234,1.8138472-.2095413,2.5734552.1704119.3359161.4771135.6638404.4990658,1.0458496-.4291966.587737-1.3166715.563364-1.9271235.241906Z" fill="#423b30" stroke-width="0"/>
      <path d="m97.8973782,105.6200041c-1.7843675-.1560202-4.6969222-.861046-4.6900911-3.0773624.0169782-.0848909.14007-.4456774.3056073-.3989874.021687.0118383.0050404.0266942-.0085223.0308724,0-.0003979.0000332-.0006632.0000332-.0011606-.0003979.00063-.0007959.0012269-.0012601.001857-.189015.4147718.356774.8030151.6803875.9616882,2.5156233.7421324,5.0162911-.1803601,7.4957694-.1444472-.119809,1.9002303-2.0412952,2.871104-3.781924,2.62754Z" fill="#423b30" stroke-width="0"/>
      <path d="m103.2917656,98.0647779c-.8805112-1.0809334-1.3323565-2.5875816-2.3302891-3.485071-2.645712-1.2672292-6.065722-.8870107-8.790356-.0705987.0465574.0190673.2072532-.0110093.1866606.0497076-.7892535.3163513-.4586763-.297682-.0510009-.5643257,4.1743787-3.5690998,14.150157-3.7471717,10.9849855,4.0702878Z" fill="#423b30" stroke-width="0"/>
      <path d="m76.5639566,90.0486205c.2111993.1422255.4453126.2512241.6905346.3233814-.2851473.2092429-.5843547.4016734-.9010044.5740417.0538858-.3043804.1245177-.6036872.2104698-.8974231Z" fill="#423b30" stroke-width="0"/>
      <path d="m76.3447324,111.7514586c-4.1384327-1.188473-6.1206359-6.5281206-4.2530355-10.2972778-1.9377349-4.0516185.6084955-9.4675601,4.5899132-11.32886.2510251.1480617.5293745.2513567.8171415.3050768-1.8275757,2.232764-3.3286528,5.6020385-2.1811994,8.4685664.2843846.8489093,1.0696257,1.1842284,1.4473903,1.9737141.4032319.9380447.0339564,2.0755832-.8191974,2.6188851-.4711446,1.693574-.411721,3.7224672.2928737,5.3311502.7725074,1.3158094,1.7742204,2.4873125,2.6613306,3.7267117-.8276865-.1315809-1.7275304-.505101-2.5552169-.7979664Z" fill="#423b30" stroke-width="0"/>
      <path d="m77.4653921,110.0725996c-.5118326-.695973-.4307883-1.6676756.2165382-2.2624427-.7651458,1.4220142.9433836,2.4855384,2.1983103,2.671544,3.3762382.7573199,5.9817596-2.0066756,8.9646477-2.8921609-1.0687303,4.7558235-8.4718824,6.4382805-11.3794962,2.4830596Z" fill="#423b30" stroke-width="0"/>
      <path d="m99.3732866,111.4101954c-.2842851-.1412721-.5310657-.3223202-.7486982-.5324916-3.1336027,1.0809003-7.8857703.5446615-9.1962739-2.9395473-.1018691-.4032319.0764018-.7130838.4500214-.8107084-.4148049.3531595.0160829.8805444.4168277,1.1349851,1.7176154,1.059976,3.9016334,1.0370703,5.7661168.4110495,1.6880694-.518987,3.4257137-2.3107161,4.7293531-.1687787,1.1832668.524359,2.5490822.8338129,3.4723705,1.7806535-1.2047216,1.3150467-3.2333827,2.0384102-4.8897174,1.1248379Z" fill="#423b30" stroke-width="0"/>
      <path d="m108.9596609,113.1179207c-2.1689632-.2419309-4.2827473-1.1120629-5.8022617-2.7165677-.4350992-.3839325-1.2937576-1.8998656-.6410591-2.2537878-.2801401.9707079.93768,1.7353563,1.651228,2.1477736,2.4074205,1.2236895,5.4094422,1.5357631,7.8778366.3861874,1.6777316-.8443,3.0088279-2.2425795,4.5839194-3.1029292-.5942365,3.6476902-4.0379812,6.0428081-7.6696632,5.5393237Z" fill="#423b30" stroke-width="0"/>
      <path d="m111.7711423,110.8282615c2.1395167-1.3707564,4.8977423-2.1993714,6.3634455-4.4804171,3.1812129-5.5707018,2.3049793-13.3589801-2.2497505-17.8844624-.0042031-.0002984-.0084559-.0007627-.0127668-.0014259.0316103.0639998-.0391957.0205595-.0473201-.0151212-.0084891-.0084891,0-.0254673.0127336-.0297118.1528037-.0127336.0763935,0,.3268632.1273032,1.8184234,1.1969289,3.2201931,3.0104113,4.2913027,4.8895516,3.7775385,7.1746761,1.7812255,19.5635867-8.6845077,17.3942836Z" fill="#423b30" stroke-width="0"/>
      <path d="m86.540597,77.4148609c1.095093,1.4007003.9210666,3.2980125.4032319,4.893962-.9550229-1.4176785-1.9991813-3.0730516-3.6842662-3.7012444-3.1027634-1.2012066-7.007746,1.5153031-7.2114843,4.7496474-.0307066.4630535.0529242,1.535133.3508051,2.2404904-.0583957.0743459-.1134421.1507809-.1640451.2298356-.0412848.0673822-.0797842.1356265-.1154318.2046004-5.4525841-5.9044956,5.4056288-15.0777893,10.4211903-8.6172913Z" fill="#423b30" stroke-width="0"/>
      <path d="m114.9263324,87.7813696c.9494851-3.3527937.9450416-7.5069777-2.7842898-8.9984715-.2800406-.1061137-.5686697-.18676-.7257097-.2122273-.1400783-.0212227-.2843929-.0382009-.2887038-.0510009-2.0801925-.1372182-4.5261786,1.0808339-5.1306286,3.1144691.0169782.0460931.03389.0935458.0508019.1413965.0296787.0127668.0605179.0249367.091523.0358465.0432413-.0045762.084294-.0117388.1283644-.0191005l-.0042445.0042445c.5170388-.2058937-.1484928.2983452-.3482186.123125-.917021-1.2682903,1.264908-3.6548529,2.3175223-4.36346,6.6361741-4.3806703,14.3223595,6.086381,6.6935833,10.2251785Z" fill="#423b30" stroke-width="0"/>
      <path d="m109.5300798,85.4593706c-1.8294575-.9792301-3.5463434-3.3853573-2.741836-5.4966875.3310746-.5305683.7385511-.3692755,1.1545166-.0763687-.1300556.0699355-.4482307-.1076722-.5876707.0730526-.1788678,1.3795439,1.5013093,2.6641492,2.5486511,3.275795,1.3920122.7734359,2.9218396.098951,4.316571-.0637345-.3560776,2.1569922-2.7848618,3.4167272-4.690232,2.2879431Z" fill="#423b30" stroke-width="0"/>
      <path d="m78.0111148,85.4466369c-3.5357734-1.731576-1.1579653-1.0531781.9302189-1.2846385,1.9979212-.2385899,3.4563208-1.9062656,5.4704576-1.860703-.3096529,2.9939969-3.8519921,4.3097068-6.4006764,3.1453415Z" fill="#423b30" stroke-width="0"/>
      <path d="m76.1187435,90.9805969c-.3024239-.6068706.2471122-1.3651191.4840441-1.9397245.4715757-.8785879,1.2431215-2.0307833,2.3940236-1.7954763.8332907,1.1861186-1.4781964,2.5985909-2.2360138,3.3484828-.0932142.1666648-.4006785.6224561-.642054.386718Z" fill="#423b30" stroke-width="0"/>
      <path d="m91.9904619,121.0717446c-2.8201695-1.7744857-4.6496021-4.9422437-4.7624142-8.2768322-.0084891-.2419391.0382009-2.517016.7046279-1.918535.0016912.0665863-.1240203-.0460931-.1616244-.0439708-.0093181.0020228-.0179398.0040373-.0263295.0061347-.4835467,3.999457,3.9873202,8.9089712,8.0957095,8.6162965,2.8622502-.8283829,4.0690941-4.052348,6.0100455-6.0360102.2168035-.2294045.3336943-.547248.517901-.7300288.632769,1.6007577.4243552,3.4395416-.2080823,5.012544-1.6318623,3.8914863-6.5343796,6.0003627-10.1698336,3.3704019Z" fill="#423b30" stroke-width="0"/>
      <path d="m84.4849102,124.64489c-4.8017094-1.3718838-9.0617749-5.7706597-6.2312593-10.8574252.1952491-.39049.7555293-1.2945784,1.3243316-1.0313502-.3029213.0329947-.5503651.3705688-.6518695.6619503-1.8473393,7.4755746,4.346316,6.1492202,5.5587972,11.2268251Z" fill="#423b30" stroke-width="0"/>
      <path d="m95.2243752,131.4995339c-.4900793-.1810316-.8950687-.4505851-1.2516438-.7791727-2.7419106,1.2376583-6.1768761.8816387-8.3834765-1.2455422-1.0482703-.8966273-2.1802709-3.314228-.5263237-4.1596223.4018392-.0789884.85133.0287833,1.1334265.2675391-1.1695383-.2486707-1.3304663.7952887-.6835046,1.5364263.7231646.8289135,1.7922265,1.2229268,2.8509093,1.3934713,1.4978938.2123848,2.9758249-.222648,4.2599992-.9799348.5914178-.4034806,1.2152998-.8740698,1.9766653-.7573448.8306378.0626071,1.2414635.6969015,1.7722971,1.2299568,1.2103258.7039315,2.8197052,1.0342434,3.9111837,2.0172289-1.2960789,1.1451902-3.2988747,2.0606858-5.0595324,1.4769944Z" fill="#423b30" stroke-width="0"/>
      <path d="m102.18374,129.8728447c-.5911526-.3184405-.9183806-1.3796682-.2080159-1.663829-.4198453.4901456.1031292,1.1203032.6709368,1.1240006,1.3759294-.0158673,2.4309644-1.070977,3.39252-1.9149536,1.9397245-1.8795631,3.410236-4.3165627,5.5714645-5.9239525.1683642,2.9568571-1.7015988,5.4404805-4.0279087,7.0631324-1.4523644,1.0429232-3.6460985,2.2869069-5.3989967,1.3156021Z" fill="#423b30" stroke-width="0"/>
      <path d="m68.150503,126.9637055c-.4719737-.191303-1.0178621-.4103614-1.4006008-.7087398,1.7077667-1.026517,4.0317553-.7975768,5.504016-2.2021237,2.4774223-2.5922572,2.5039839-6.3906288,3.5071228-9.6318374.0654257.0195647-.0037803.2240988.0168787.301396.0659894,2.9843803.4534701,6.134298-.8658875,8.9304344-1.0336134,2.6132312-4.0184248,4.5384397-6.7615292,3.3108705Z" fill="#423b30" stroke-width="0"/>
      <path d="m53.021116,133.6345987c-2.6615295-2.0380123-5.0020984-4.6757906-3.9050987-8.2302086,1.6184654,1.116954,3.0446496,2.475242,4.5203424,3.7735095.7080102.7120558,1.2577287,1.6853502,2.2708489,1.9864477-.0560744-.0164808-.1122152-.0329947-.1702793-.0494672-.0440703-.0200704-.0881407-.0410693-.132211-.0611563.0437056.0209906.0877096.0412931.0817738.0470631,2.4367675.557818,4.9955326.0937365,7.4645653-.0555522,2.5293185-.2474687,4.1597218-.9470893,5.1160711-3.3445284.0734174,3.8255881-3.8550429,5.2160418-6.952368,6.0316579-2.6619606.6444747-5.835157,1.582022-8.2936446-.0977655Z" fill="#423b30" stroke-width="0"/>
      <path d="m47.6924859,123.6935147c-4.0584164-2.7572225-4.8466419-8.5271942-4.8978086-13.0909768-3.5413112-1.3906527-4.5193973-6.2029734-2.4491033-9.1761787.7766857,2.06915,1.6855823,4.1186027,3.4120184,5.5725256,2.5016461-2.6069142,5.1062059,1.4646006,2.2587619,3.3011959-.7206278,4.1806875-.8614771,9.0375926,1.3848496,12.7513468.2675888.3270539.6130551.694746,1.0556319.6758777-.1403187.1344659-.5533993.0704329-.76435-.0337906Z" fill="#423b30" stroke-width="0"/>
      <path d="m38.496527,99.1463414c-7.460868-4.4091552,4.0550837-14.852762,9.4047873-15.5765898-.2434977-4.7621821,2.9774166-8.7264557,6.3594247-11.70752-.511816,3.9669265-2.7304039,7.6863429-3.04712,11.7169376.2475599,1.882191-.3225192,3.3556787-2.4621353,3.0413501-4.532562.3230498-15.8836065,7.7936172-10.2549567,12.5258221Z" fill="#423b30" stroke-width="0"/>
      <path d="m55.3332165,73.9576447c-1.9800477-2.0649055,1.0064052-7.3882298,2.1522337-9.5206501,2.2917898-4.014545,6.6666901-9.2109641,11.7617706-7.0627925-.1065447,2.3041918-3.1099924,2.30837-4.661142,3.2469453-2.0536309.398921-13.0303926,13.469272-7.9961948,13.2048501-.40552.1639456-.8397901.3760734-1.2566676.1316473Z" fill="#423b30" stroke-width="0"/>
      <path d="m70.7372888,57.8155023c-1.2082698-.0690402-2.0720018-1.222761-2.220163-2.3389108-.5175362-8.4153769,11.1791735-13.8157,18.2110604-10.7372764,3.1076711-2.2681795,7.2684209-.9855969,10.4440711.4783736-2.6027028.7728059-5.6949211.8313342-8.0327708,2.4347116.8419124,4.4402266-5.5790583,4.4953725-4.5776438-.0119046-5.439353-1.6852507-12.7066133.8244036-14.9704819,6.2827245-.6989906,1.8174617.0967956,4.0695583,2.3301565,3.7098993-.253678.1299561-.8209218.2156429-1.1842284.1823829Z" fill="#423b30" stroke-width="0"/>
      <path d="m110.6148764,51.0635896c-2.3058581-1.8264482-2.1772948-5.7134247-6.0271315-5.5646003-1.6629668.1004764-2.8693797.8954998-3.7522121,2.2494769-.2886292.2376946-.3480528.2843846-.6918942.3651968-2.3170249-.6363835,1.7949789-4.2823494,2.9033029-4.5968769,4.1603186-2.2131993,9.352203,1.7046828,9.2210117,6.175815.2854789.2179309.6149038.4324463.8300658.7044621-.6803875.539588-1.6177027,1.1275239-2.4831425.6665264Z" fill="#423b30" stroke-width="0"/>
      <path d="m131.5881002,68.0674745c-6.2811411-.6907336-10.3770868-1.5700179-9.0563034-8.988258.0517967-2.150327-.4154433-4.5588418-2.2078936-5.945482-1.5981712-1.1561746-4.3351741-2.1705217-6.0773614-.9205028.0037803.0359128.0075274.0719915.0112829.1085012.2338728.2301008.7215314.0616786.9206355.1767787-1.124581.4823861-1.8749703-.2125258-.8065965-1.0949935,3.98257-2.414351,9.4985901.1842398,10.7515271,4.5501205.8101695,2.174501.6560145,4.404977.6727938,6.466069.0034404.3793232.2943245.6334322.5793474.8388616,2.07492,1.1585954,4.169902,2.6413348,5.2125682,4.8089052Z" fill="#423b30" stroke-width="0"/>
      <path d="m139.0909991,86.1720233c-6.6819854-.6701078-2.638085-4.6086157-3.3500082-8.9120551-.1303208-2.4427364-1.8614657-4.0402776-3.9039215-5.0312465-.3727242-.2060595-.7727396-.6521348-.3268301-.9593006.7599396-.2751328,1.6181338.0084228,2.41518.0426113-.3290518.1445135-.8670149.1731974-1.2653391.290254,5.3601077.8628367,6.5996064,6.9932549,5.5437755,11.5391641,1.5336077.8570668,2.8848656,1.9473183,4.0578195,3.2556997-1.0282745.0606506-2.1787124-.0809117-3.2329847-.2323889,0,0,.0623086.0073616.0623086.0072622Z" fill="#423b30" stroke-width="0"/>
      <path d="m127.8729533,139.0127457c-3.8952252-.8014566-7.9556312-4.317143-7.3772123-8.5976934-7.178788-2.6476021-7.6450912-14.981259-1.3834485-18.7754524.3203306-.1375498.8736719-.2102708,1.1417747-.1314815-.4727695.1024328-.9381857.2957835-1.3117969.6323711-3.5469817,3.9759545-2.4466245,14.0890421,3.752809,14.7862172,2.4390888-1.2505826,4.4610845,2.096466,2.2281133,3.6555741-.01183.0472537-.0235688.09435-.0352496.1410897-.016373.1646917-.0228061.3305192-.0200538.4963881.0042777-.102267.0042445-.2033071.0084228-.305483.8944387,4.5186927,11.138784,5.0689915,14.111525,2.5465703.4720731-.4045583.6936186-.9859949.9909026-1.4302795.5306015,5.7898265-7.5353962,7.9999088-12.1057861,6.9821793Z" fill="#423b30" stroke-width="0"/>
      <path d="m141.4456612,129.8076511c3.5841546-3.7445189,9.4604638-8.4157748,7.2877866-14.2277526-.1316473-.2546728-.2759618-.4966119-.2759618-.5093124-.2079165-.3224529-.4944565-.5926116-.7470402-.870132-.184472-.1230255-.3788921-.233591-.5793474-.3319036-.092551-.0365429-.1845714-.0709967-.168356-.0789552-.6406612-.2221092-1.3148146-.1814212-1.9729514-.0815832-1.8476046.1528783-2.8057778-2.3457005-1.3755646-3.5016098,4.3945977-5.3817532,5.4722482-12.6749781.2058605-17.6621875,6.2956239,3.2155423,7.4001676,11.3488227,4.4126702,17.2716146,5.192274,1.4473737,6.5773888,8.2656074,3.8411155,12.4663073-2.2619121,3.8749973-6.6606549,5.9721762-10.6282115,7.5255144Z" fill="#423b30" stroke-width="0"/>
      <path d="m73.4182503,140.2924764c-1.9389287-1.7537603-4.1468886-4.9756695-3.4547955-7.6529834.1436845-.1193779.4093998.369574.1136079.1036266-.0057699.0006632-.0115399.0011606-.0173761.0014922.7533738,2.8967122,3.6296509,4.8395787,5.689118,6.8177031.7671354.7956866,1.5027684,1.6862455,1.9906591,2.6189183-1.6086831-.23345-3.068807-.8404202-4.3212135-1.8887568Z" fill="#423b30" stroke-width="0"/>
      <path d="m77.3118258,149.0173073c-3.2969182-.2998706-6.2467785-2.141042-8.2006294-4.7791934-.8485445-1.2578116-2.0677904-2.6367918-1.9693369-4.2361236.0594236-.4286992.5305683-.1103582.6876497.0042777-.0678464.0638672-.2915473-.103494-.4005459-.0350507-.008058.0184704-.0164808.0365761-.0253015.0543833,2.1604741,4.0346071,7.2798613,5.4013842,9.908164,8.9917067Z" fill="#423b30" stroke-width="0"/>
      <path d="m77.1887339,159.4107423c-5.7307676-4.352716-2.2540199-18.5802033,2.0419252-23.0308422.2308967-.0093844.2094087.2533795.1867269.4414909-.0742464.006143-.0462258-.2136781-.1090649-.2785069-.007859-.0025202-.0155854-.0051067-.023345-.0077513-1.710519,3.5610998-1.773524,7.8376461-2.0659666,11.7487634-.0728537,3.7285024.8037446,7.4866834-.0302756,11.1268462Z" fill="#423b30" stroke-width="0"/>
      <path d="m78.0618504,160.9516453c-1.1529912-1.0279098.9311142-1.1237768,1.6075225-1.0351719,2.6122862-.925079,5.034662-2.1367312,7.5852033-3.1768772,2.0426879-.8282503,3.9625162-1.2373847,6.091952-1.4672203-1.0825251,1.3251938-2.514529,2.5348232-4.015374,3.4381157-2.3625875,1.3589512-5.1039675,1.9793845-7.7802535,2.3557232-1.1261312.0654257-2.4401831.3852589-3.4890503-.1145696Z" fill="#423b30" stroke-width="0"/>
      <path d="m95.3493903,148.8098551c-6.6588642-1.7024942-9.1539611-8.8413238-15.0080859-11.5177092,4.8575517-.5295984,12.849933,7.2146677,15.0080859,11.5177092Z" fill="#423b30" stroke-width="0"/>
      <path d="m93.687352,156.6328525c-3.7266122-1.9842923-2.8506771-9.6522311.8575973-11.1206452.3248736-.0680785.7501241.1876554.887077.3905646-.2658479-.0929489-.5190948-.1885507-.79761-.0760371-1.8259508,1.5093673-1.6168737,5.5168823-.518531,7.3848143,1.5025363,2.105096,3.1941206-1.4896036,3.5061943-2.7883354.5539133-1.5812262.0804806-3.2707877-.8149529-4.5374201,7.9531524.6004375,3.3788579,13.3787107-3.1197747,10.7470587Z" fill="#423b30" stroke-width="0"/>
      <path d="m99.6976959,145.1882954c.4766825-.8884366,1.723319-1.27028,2.5213932-1.8972127,3.2483381-1.8551984,6.7194817-4.4262992,10.6624248-3.6797564-2.7853426,3.7267449-7.8691154,4.3755304-12.0983084,5.5575371.0627397.014259.1254462.0290155.1880201.0450651.0127336.0042445.0127336.0254673-.0042777.0255668-.3676507-.0107108-1.1517311.4857021-1.269252-.0511998Z" fill="#423b30" stroke-width="0"/>
      <path d="m114.7567164,157.9071449c-2.6056541-5.2228148-1.3827936-11.2880063-1.2603981-16.893394.0559667-.4355634.115067-3.0227802.7554961-1.7698432-.0453387.0402237-.1751207-.1438835-.2439205-.1696824,1.258309,6.1370172,3.5917152,12.8090461.7617468,18.8424698-.0052974,0-.0106031-.0031834-.0129243-.0095502Z" fill="#423b30" stroke-width="0"/>
      <path d="m109.7669205,157.7495661c-2.4880669-.4612628-11.4922419-2.4247634-10.4626078-5.9001184.3013628-.5008565.870132-.5433019,1.3923438-.5601475-.8024845.2208822-1.485127.9366188-.6029245,1.6724176,2.7373676,1.8203135,6.2064221,1.7108838,9.2701556,2.6611316,1.6511285.4414328,3.2173661,1.2224294,4.6435337,2.1605404-1.3474445.1845383-2.8494834.1215665-4.2405008-.0338237Z" fill="#423b30" stroke-width="0"/>
      <path d="m115.5078353,143.1615908c-.9492198-.6241804,1.171072-1.3514569,1.571278-1.674772,1.0914121-.630912,2.4219365-1.1134307,3.6313752-.5129932.4248526.1475311.4390121.4024361.2377609.7682297-.9039557,1.9851213-3.6501109,2.0388413-5.4404141,1.4195355Z" fill="#423b30" stroke-width="0"/>
      <path d="m116.6965072,148.0201042c-.3634393.0272911-2.775038-.2623992-2.1348742-.8062648,2.4766182-.4027677,4.6485658-2.6753906,7.2369101-1.5664034-.8592802,1.8715465-3.2067796,2.3729004-5.1020359,2.3726683Z" fill="#423b30" stroke-width="0"/>
      <path d="m121.697843,144.2839086c-.7464764-.5764293-.6942735-1.6054333-.7172952-2.4575923.0042445-.3565419.0127419-.7555293.3183493-.9932238.4668918-.3692755.9847348.1188473,1.3073452.4499219.0050404.0481159-.0840951.0677801-.1184162.1037261.6555752.7732038,1.1304172,1.7793603.542846,2.7273863-.3074063.5032109-.9073464.4818555-1.332829.1697819Z" fill="#423b30" stroke-width="0"/>
      <path d="m56.9382022,159.1359079c-1.0487677-3.5026461-.6134033-7.3053949,1.3070882-10.4247717,1.918966-3.4580783,5.1296006-7.2665307,9.185132-7.7124071-6.6820434,3.2771877-8.5142616,11.6729999-10.4922202,18.1371787Z" fill="#423b30" stroke-width="0"/>
      <path d="m51.314112,192.6712729c-2.4887964-7.3810672-3.888535-10.9426395.5165082-17.9348996.9929254-2.0997572.3306104-4.4625436.671716-6.6878134.2268843-2.3386787.9975181-4.5860334,1.9950197-6.7021719.3589626-.9712716,3.0007948-4.9932777,3.9006055-3.0518952-.9780363-.999458-1.808442,1.446097-2.0510775,2.1741694-1.2840582,4.1556099-.7422982,8.368289-.1646088,12.5672396.1182504,3.4666669-2.2428448,6.2865379-3.283339,9.4377157-.6909823,3.3526942-.669428,6.9219929-1.5848241,10.1976553Z" fill="#423b30" stroke-width="0"/>
      <path d="m46.9335909,216.2897527c-.5322926-6.7564556-2.6534881-14.818872,2.5596273-20.2846207.2439288-.3382704,1.6237877-1.1599218,1.1756564-.4330101-.0578485.0161492.0145077-.1077054.0169782-.1273364.0000166-.0128663.0000166-.0241409.0000166-.0348185-.0017907-.0012601-.003515-.0025534-.0054549-.0038466-3.2524997,3.79164-2.0641925,9.4194111-1.692231,13.973544-.0065658,2.401949-.9468157,4.8589444-2.0545926,6.9100883Z" fill="#423b30" stroke-width="0"/>
      <path d="m30.828953,253.4726088c-1.9781244-4.5412004-1.665885-10.0350361,1.7535116-13.8041601-2.8968366-3.4613944-.5569143-8.1057571,1.7354557-11.2129309,2.1710523-3.3517326,5.7309666-5.2932146,8.83693-7.5344346.1268556-.1645757.3464114-.4471696.5134575-.4116878-.3820755.4913394-.4725705,1.171329-.9592509,1.6300384-2.0875873,2.1477073-10.2611577,13.5874893-5.288655,15.1742201,1.2643111.6584684,1.7154765,2.4161085.8490917,3.5740407-1.333285,1.494014-2.7979519,2.1971496-3.9657327,3.7799012-2.1793756,2.4400173-2.8663123,5.7516919-3.4748078,8.805013Z" fill="#423b30" stroke-width="0"/>
      <path d="m33.0267161,273.5375412c-4.1980387-4.9296095-5.866875-12.3248694-2.7802773-18.2345049.4456774-.8319311,1.1375384-1.7657313,2.0331543-2.1520513.5351776-.2224408,1.2228107-.3429792,1.7147802-.1866937-.465325.0265947-.9194583.1241198-1.3116146.3692424-1.5017072,1.0230683-1.8657434,2.9748964-2.1763746,4.6243006-.8426585,5.4218443,1.7615199,10.4311717,2.520332,15.5797069Z" fill="#423b30" stroke-width="0"/>
      <path d="m51.964025,250.4813974c-1.3543419-4.7335645.095436-9.6656942.8658709-14.3805231.9079847-4.7252081,1.7195055-10.4001997,1.4584493-14.7662131,2.2646313,9.5911494.6430488,19.8878883-2.311371,29.1562532-.0054217.0000332-.0107274-.0031502-.0129492-.0095171Z" fill="#423b30" stroke-width="0"/>
      <path d="m60.5291216,298.3066246c-9.6671699-3.2385557-12.9263514-10.966084-9.5196719-20.4006826-3.1008898-3.8333559.3256197-15.5931369,1.4165179-20.3424859.3719781-1.0106331.8888511-4.2522396,2.3132943-2.3259119-.2144325.0083896-.4967777-.307398-.7608184-.322685-.8980863,3.2069537-.143784,6.8497362-.3045462,10.1996781.0593407,2.7886338.1187147,5.5731225.3514849,8.3532009-.0212227,1.1438389.7464433,1.5039953,1.3930402,2.2539204.2674064.4159655.4753892.9210666.4925332,1.4219562-.107838,2.4812026-1.2112045,4.8212078-1.4940472,7.2902737-1.142612,6.0626049,2.1570254,9.9446737,6.1122131,13.8727361Z" fill="#423b30" stroke-width="0"/>
      <path d="m65.2147028,303.7097332c-2.6848082.0380351-7.4563747-2.4636939-5.3734631-5.5814458.4423945-.3947428,1.1728544-.633598,1.6978185-.428666-.2660468.0368082-.5302035.120638-.7814939.2367661-1.3638258.7824556-.3216902,2.5047798.7987042,2.9390168,3.5370667,1.4907643,7.2569142-.5691008,10.5214014-1.8911444.5843215-1.1331612,1.9895648-1.7474267,3.2052294-1.3185949.7666712.2721815,1.238877,1.06369,1.1762368,1.8522802,1.3158757.3968319,2.416208.8529217,3.5012533,1.5562231-1.9048728,1.2044232-4.6049349,2.3305876-6.7670338,1.182272-2.5735878.8647932-5.2492106,1.5782417-7.9786529,1.4532929Z" fill="#423b30" stroke-width="0"/>
      <path d="m80.3681976,297.744388c-1.0901852-.5498677-.5318947-1.911107.4117542-2.2453982-.9848342,1.090152-.3065027,2.131127.8743766.9210997,2.427781-3.3010965,2.4183635-7.941911,1.2442821-11.7305002-2.8658315-1.5527081-1.1305084-6.0640309,2.0423563-4.6981491-.0000663,0-.0014591-.0020228-.0014591-.0020228,1.638627-2.9962518,1.9889016-6.4583426,2.0331045-9.8175363,3.8541144,3.5015518,4.9419121,10.9556716.3161524,14.309228.5519237,3.9536291-.4247862,8.1543705-2.9137816,11.3108207-.9182479,1.1421477-2.4456877,2.5317393-4.0067854,1.9524582Z" fill="#423b30" stroke-width="0"/>
      <path d="m83.4606149,259.7104671c-.299539-.0345201.4628214-.8060659.1488244-.321027,2.4440297-5.5032533.5395548-12.1775372-3.0772961-16.6529471-2.5562117-2.2625422-1.2325102-4.8804988,1.3410777-6.37952.2788136,1.0484693.1601321,2.1739704.165471,3.264653,2.2019911,2.665144,3.837501,5.8299508,4.3168363,9.2780146.4616607,3.532789-.2235682,7.3177306-2.24122,10.2845027-.1486254.2037051-.3690102.5304025-.6536933.5263237Z" fill="#423b30" stroke-width="0"/>
      <path d="m82.5918425,230.2646231c.3604217-2.825044,1.0351387-6.0074922,1.0657127-8.8625796.00703-3.6469938-.6822113-7.1630368-.3696403-10.7811809,3.8042078,5.9548333,2.3051866,13.5561858-.6671233,19.5849006.1317799-.1217323.0399916.0852557-.0289491.0588599Z" fill="#423b30" stroke-width="0"/>
      <path d="m93.0988191,286.4200047c-.7384516-4.6356084-.8164451-9.4332722.3225855-14.0027585.4205085-2.1222732,1.3256249-4.1456949,1.4662255-6.3203285.010744-2.1877652-1.85616-3.8557393-1.9502364-6.0695355-.4946555-3.820357,1.1124359-7.9059318,4.0396475-10.4044774-1.1024546-6.3566061-.1422918-12.8963246,1.9959979-18.9383037,1.3644227-3.2822281,3.7217708-9.0956318,7.9544788-8.828358-2.0929261.0937779-3.3444373,2.2922208-4.172588,4.0280082-2.8730605,7.1943734-3.2268169,15.3505677-1.5035311,22.863879.4668338,1.2718385,1.2752541,2.4223096.1242525,3.6560466-.4048568.4401396-.8935102.6266012-1.4348888.7429946-1.5439869,1.5493257-2.3676942,3.9036562-2.1800388,6.0790857.2289402,1.8071488,1.6426726,3.1908046,1.8450181,5.0159927.558191,3.3007317-1.14427,6.4293603-2.4850493,9.3327626-1.8805993,4.0730733-3.0409853,8.5429122-4.0218735,12.8449921Z" fill="#423b30" stroke-width="0"/>
      <path d="m103.796535,302.0019665c-3.8233083-.3711325-8.4515219-2.7847872-8.6843419-7.0587469-.0796516-1.8590118.9497504-4.0264828,2.8821465-4.4609187-.4196464.2923763-1.0053606.7175605-1.2393744,1.2731318-2.2402583,4.7998192,3.6679844,7.5182854,7.5934603,7.4704679.4126495-.0264289.8042089-.1543622,1.1544503-.3734538-.0532226.0286838-.0992826.0515646-.1612928.0849241,1.1022888-.6549202,1.5608656-2.0395377,2.3937583-2.916136,1.435552,3.1592358-.2245299,6.4386784-3.9388064,5.9807316Z" fill="#423b30" stroke-width="0"/>
      <path d="m116.8109193,298.6082859c-1.437981-.233019-3.5567723-1.3367668-2.7505821-3.0856526.0057119,2.56805,4.009115,1.7633106,5.4585612.865788,2.3844402-1.5722397,2.0276662-4.5337061,1.8183819-6.9765752-.4509084-1.2868271-.1842316-2.9341422,1.2758924-3.4013075.6703067-.2504282,1.4257033-.0161823,2.0980411-.2575246,1.283768-.6055111,1.9598032-2.0145678,2.3733563-3.3056063.4832482-1.6189628.8460658-3.3787915,1.3136539-4.951396,2.0797199,4.1178732,2.5958717,11.2267588-3.1529684,12.36632.2329526,4.9192303-2.9657773,10.0035336-8.4343364,8.7459541Z" fill="#423b30" stroke-width="0"/>
      <path d="m110.1279723,300.7541362c-1.4260018-.3460963-5.3849034-3.8377331-2.3514124-4.4268961-.2056615.1858647-.7068828.24562-.7903478.6306136.3558124,2.0651044,3.1586057,2.9151412,4.9838933,3.0323636,1.8542699.0486465,3.3346881-.9923617,4.6112354-2.1957901,1.8363217-1.8675672,3.7923612-3.5706915,5.8856604-5.1471094-2.053863,4.3939013-6.8205881,10.3727097-12.3390289,8.1068183Z" fill="#423b30" stroke-width="0"/>
      <path d="m124.6782772,274.7877259c-.1273447-.18676.0297201-.6112147.0722236-.8022524.0814422.1427892-.0020228.4911404.1080453.6919274.0263543.024174.0527501.0483812.079179.0726215.701975-.3355513.8007934-1.3303337,1.0781811-1.9934777.7638194-2.9136158,1.0532112-5.9322178.941452-8.9409711.0015668-4.0834194-1.923194-8.1828222-.9548157-12.2370603.2864406-.810841.7270775-1.5815909,1.3196892-2.1646192,1.0749977,4.0700226,2.1815973,8.1122566,2.1185924,12.3855531-.0441698,4.2493546-.99717,8.660201-3.2684665,12.2879949-.3007327.4225976-1.0185916,1.3980806-1.4940803.7002838Z" fill="#423b30" stroke-width="0"/>
      <path d="m130.414508,204.2304659c.1651145-.354287.3413958-.7057222.5297144-1.0532444.0084808.6068375.0093844,1.2141392.0029181,1.8216068-.1304203-.2897566-.3114104-.5501662-.5326325-.7683624Z" fill="#423b30" stroke-width="0"/>
      <path d="m145.7376603,263.1990532c-2.7736452-3.4995953-.6425845-8.4346763-2.320971-12.2759245-.4885871-.7188869-1.505786-.6396332-2.1488016-1.1792212-2.3221316-1.7461666-.7349697-4.9554747-1.2617246-7.3946298-.1035271-2.6309887-2.0967645-4.275253-3.8315984-5.9672353-2.2362542-2.5937163-1.311026-6.257224-1.184187-9.3719584.3668134-4.4214909.7015771-8.9510187.7002507-13.2939192,1.9059505,6.2015807,1.7108092,12.794555,2.8955682,19.1115342.7417345,1.4247085,2.4892606,1.9653908,3.4840762,3.2062905,2.5023259,2.6608663,3.0992484,6.4753871,2.8524678,10.0000849,3.2296355,1.3951293,4.3356715,5.4619685,3.8241373,8.7055978-.4100298,3.0425107-2.4699944,5.5143289-3.0092176,8.4593809Z" fill="#423b30" stroke-width="0"/>
      <path d="m133.1721533,285.2482777c-2.2413609-1.9844249-3.4603416-6.308457-.5432439-8.2215868-.0841614.2329858-.3415451.5516252-.4015407.8621403-.8858501,3.1261084,2.2767432,5.3200083,4.9091826,5.9927357.43878.0384662.7080351-.0218196.8999765-.3223534,1.0895883-3.6549523,4.4526286-1.5106274,7.0547013-2.4511924,1.471697-.6853284,2.1389529-2.2762375,3.114867-3.4829819,1.5149383,4.6954631-1.5285009,8.8242792-6.593339,8.0627148-2.2624427,3.1122805-6.1596658,2.0332372-8.4406038-.4394764Z" fill="#423b30" stroke-width="0"/>
      <path d="m148.5725862,282.15722c.4407033-5.9295318,2.6472705-16.7540867-2.8816491-20.611484-.0014259.0000663-.0026528.0000663-.0038798.0000332.066321.1301219.354088.2308304.3638372.3310746-.2362355-.0641324-.7644826-.2557339-.483812-.5306678,1.557649-.0005969,2.7633655,1.5095994,3.6292529,2.6572187,3.3732206,5.3149347,3.543732,13.270541-.6237494,18.1538253Z" fill="#423b30" stroke-width="0"/>
      <path d="m31.8773559,279.1685951c-4.9068117-.7469407-6.244308-6.7539354-1.9824187-9.3590921.6791274-.4541665,1.7232858-.9295557,2.5552003-.7045947-1.2445308.4595385-2.199703,1.8282389-2.7164931,3.0306061-1.0338621,2.6377866,1.5036305,4.6933408,2.1437115,7.0330807Z" fill="#423b30" stroke-width="0"/>
      <path d="m34.8353571,282.785446c-1.636256-1.3934381-3.2917783-3.5036741-2.9201484-5.781039.2418562-1.216162,1.7470619-.9182148,2.521244-.5519237-4.4997331-.1593363,1.0838184,4.4524628,2.746835,4.943968,1.2774095.5589205,2.6837802,1.0558972,4.0684474,1.1836979,1.3289907-.0133637,2.634255-.3688776,3.9660643-.384861-.0796847,5.8126078-7.7583178,3.1187799-10.3824423.5901577Z" fill="#423b30" stroke-width="0"/>
      <path d="m127.2967312,172.7390158c-1.486984-3.8645268-2.1391519-7.9603151-2.3554248-12.0785199-.1975372-1.7841354-.3502746-3.6279928-.7818587-5.3502507-.3142622-.9345297-.4592815-2.0787997-1.362831-2.5762407-.0364102.0115067-.0725884.022516-.1089655.0332932-.0118632.0217201-.0237429.0436724-.0356061.0658236-.0355564.3785273.4987922.5567983.6165121.7757572-.3820009-.1485591-.9720011-.3225855-.9762457-.8319311-.0084891-.5899919.7385511-.6536601,1.1294141-.3991532,4.518444,4.0250901,4.9990062,14.7269179,3.8877723,20.3707386-.00543.0000663-.010744-.0031171-.0127668-.0095171Z" fill="#423b30" stroke-width="0"/>
      <path d="m135.3691952,213.7776113c-1.2310842-2.8178482-2.0687521-5.587481-3.5036409-8.2659224-1.7023615-2.551105-2.9271038-5.3893138-2.4700939-8.52159-.0305077-1.6442975.1418939-3.4702483-.698659-4.9488758-.7654111-.6688477-1.9217515-.8769299-2.4491944-1.8462782-.8161881-1.2660686-.2456614-2.7429054.0767251-3.8456585.6323379-2.9029049,2.9886912-8.9898166.5522221-11.25531-.0325222.0107772-.0652682.021488-.098752.032232-.2358044.1906067.0066238.5295403-.059092.603422-.8187332-1.1265623.6113142-1.3915812,1.2991296-.6623482,3.0011596,3.2867711,2.4871135,8.3793646,2.1749901,12.508446,4.8769175,1.9080562,4.0004849,7.9433038,4.0634651,12.172132.1917341,1.5315849.9024303,2.9296323,1.2317806,4.4286204.662713,3.1430203.4193479,6.5091445-.1188805,9.6011307Z" fill="#423b30" stroke-width="0"/>
      <path d="m126.9343448,250.8001695c-1.3557595-3.3495108-1.5548801-7.053176-2.7757592-10.4214888-.6435876-1.2586406-2.0717117-1.8503238-2.1611373-3.3817428.0463916-2.5793246,1.3498652-5.0187118,1.6156551-7.5947204.4284836-3.1710077.3557046-6.4769788-.5629081-9.4428887,3.1556793,4.9554416,2.7484764,11.0828753,1.8476709,16.6176643,4.3567947,3.3308414,3.6384384,9.6126043,2.0489884,14.232793-.0053057,0-.0106197-.0031834-.0125098-.0096166Z" fill="#423b30" stroke-width="0"/>
      <path d="m144.1165089,88.6765709c-.444152-.2849152-.6070365-.8097467-.7826877-1.2886177-.2171682-.2952944.3986558-.2768572.5747049-.2309299.5008565.0679127.9125775.411721,1.0908484.870132.2145154.5409144-.465839.9236531-.8828656.6494156Z" fill="#423b30" stroke-width="0"/>
      <path d="m89.2791916,149.7935287c-1.526445-.6796248-3.4653737-1.4470587-4.0873987-3.111352.0237761-.0994152.2335164-.0594568.0827355-.0185367-.0020891.0068642-.0041782.0142259-.0063005.0215212,1.155014,1.1554451,2.9606042,1.3721159,4.4355509,1.9706965.6219918.2277464,1.1322327.6329017,1.4600908,1.1842616-.6460664.1870253-1.2486262.2034729-1.8846781-.0465905Z" fill="#423b30" stroke-width="0"/>
      <path d="m86.9604424,152.0984832c-.3959698-.0470879-2.503387-.4131801-1.5873609-.980457.0600537.0103792-.0883065.1201074-.089036.1790005.0066321.0137285.0135627.0277554.0208248.0416165.0722568.0211233.1469343.0451646.2006211.0596558,1.5594065.1310504,3.5310978-.9279639,4.8464429.2630956-.8014234.9860612-2.2904633.5045373-3.391492.4370888Z" fill="#423b30" stroke-width="0"/>
      <path d="m99.8849202,149.4445474c-.0036477-.0109098.0112746-.0184372.0183378-.0125347,2.0596993-.3471575,4.3980464-2.0379128,6.4673954-1.0781148-1.3847501,1.2833784-3.5167061.8493072-5.2421142,1.1288835-.1087002-.0096829-1.0991054.1526379-1.2436189-.0382341Z" fill="#423b30" stroke-width="0"/>
      <path d="m101.9326817,151.2358786c-.2461837-.1273364-.8531538-.4626556-.8361756-.8022193-.0003979-.0369077.0705324-.0457615.0765345-.0112414.6400975.065691,1.5207082-.2281444,1.9396914.4101625.2699929.7046279-.7665054.7198485-1.1800502.4032982Z" fill="#423b30" stroke-width="0"/>
      <path d="m67.9248789,92.2196728c-4.7100537-2.6132478-6.5500646-8.6621243-4.0836515-13.4509343.6130385-1.1858533,1.1749435-2.8244472,2.4152464-3.4549613.1054173.0309056-.0001658.3477212.0000995.1136743.0002321.002885.001028.005173.0041451.005173-.0066321-.0113409-.0142922-.0251025-.0214549-.0382341-.0293802.0111419-.0574009.0222507-.0853552.0333595-1.4632079,2.7313324-2.0681884,6.2279101-1.3559999,9.2695918.7379873,2.6158343,2.4092111,4.9326271,3.1318452,7.5235911-.0018901-.0000332-.0036808-.0003648-.0048746-.0012601Z" fill="#423b30" stroke-width="0"/>
      <path d="m123.6223136,91.8452243c2.3735636-7.1145561,5.9871648-8.7575271,4.6011297-17.0544546,2.6889533,6.0922505.4034557,12.9664923-4.6011297,17.0544546Z" fill="#423b30" stroke-width="0"/>
      <path d="m168.1431946,90.3320766c-13.9496353-1.8565911-19.5287931-15.8205186-24.2365255-27.2963792-6.6628103-14.4392504-4.9029485-32.567111,5.0295222-45.0942761,2.9949254-3.4857674,8.7034423-10.804443,13.5657691-10.5855339-1.8950905.0185036-3.5987453,1.4713654-4.9915865,2.7461718-2.1902522,2.1375436-4.0969821,4.5157497-5.8871526,6.9908176-6.8978521,9.3996971-9.2036024,21.7818016-7.2797949,33.1584791,2.258165,9.6727906,7.2208355,18.328946,11.531106,27.168048,2.1750647,3.9567462,4.9682747,7.569021,8.8920925,9.8756998,2.2935804,1.3808371,4.8480678,2.5871173,7.2006739,3.7207428-1.2860975-.1570482-2.5594615-.4032319-3.8241041-.6837699Z" fill="#423b30" stroke-width="0"/>
      <path d="m200.4345759,9.3940656c-11.9235276-4.9680426-28.2488819-11.6786869-39.0723425-1.3150798.0033161.0251523.0065658.0498071.0097492.074263.3258021.1175872.8128638-.1756844,1.0783137-.1218152-.8541818.5118492-1.921022.5915339-1.0569584-.7172952,7.1548129-8.6968268,20.4262493-8.8435455,30.0642877-4.5757205,3.2738053,1.7194724,6.3155202,4.1940595,8.9769503,6.6556477Z" fill="#423b30" stroke-width="0"/>
      <path d="m184.9075611,90.0195388c4.8413031-3.5509278,9.1573435-7.6566642,12.271282-12.8352429,5.1126556-7.1982532,9.5666769-15.1353228,11.2888021-23.8777619,1.8637206-14.6206384-.5073228-34.1264346-11.1787092-44.8583888,13.0100652,9.5201361,17.7374287,31.2736518,15.6713626,46.5839958-1.4316722,7.5352967-4.9067288,14.6542632-9.1219944,21.0185625-4.7794587,7.0743324-10.5823836,11.928568-18.9307431,13.9688352Z" fill="#423b30" stroke-width="0"/>
      <path d="m173.9300036,98.5119475c-1.8535735-.8598854-3.264222-3.3612828-1.8082431-5.1656129.6822113-.7473386,1.9509991-1.3371979,2.8990252-.8148534.0424455.04669.0424455.1188473.0170445.1698482-.2152781.1773425-.3657274.2625981-.5306346.5050679-.2466479.4107593-.5712894.9167557-.1114857,1.231648,0,0-.041318.0077264-.0414175.0076932,1.6717875.8665175,4.2477629-.036145,3.6332985-2.1942647,1.9837617.348086,2.9174956,2.5725267,1.9355795,4.2995265-1.0331823,2.1522171-3.8818035,3.0947385-5.9931668,1.9609473Z" fill="#423b30" stroke-width="0"/>
      <path d="m174.3860933,115.8851162c-1.5169942-.0095254-2.5830717-.6430902-3.6726932-1.2388521-.6016313-.0191999-1.1539529.3914268-1.705147.6063981-.5888976.3048861-1.1982885.4967197-1.8676004.4542079-1.1248048-.0297118-1.9779586-1.0696257-2.0502485-2.1308369-.0079254-1.7104776,1.3798423-3.015145,2.092495-4.482299,2.0986297-3.2546386,3.821385-6.8100099,6.0359771-9.9533617.1810233-.0866153.2918457.5087487.0684765.1313488-.6558156,3.5241009-1.1722243,7.1042763-2.3502849,10.5188481,1.3369658-.0369159,2.5206637.7247895,3.5664801,1.4705032,2.2014937,1.0046311,4.7489842.8123995,7.055862,1.5086378-1.994572,1.6025152-4.4956378,3.1378223-7.1733165,3.1154058Z" fill="#423b30" stroke-width="0"/>
      <path d="m180.6006398,112.9139918c-2.4935715-3.4961798-2.2633049-8.0584702-3.3530921-12.0588225-.020659-.1689197-.2513567-.5692666.05949-.5433019.1666316.1591373.2861421.3960692.4750907.561706-.0113409.0430424-.0856868-.0270258-.1207043-.0356476,1.9826342,3.6042499,3.7426288,7.9542799,2.9392157,12.076066Z" fill="#423b30" stroke-width="0"/>
      <path d="m156.6149072,235.8475612c-2.3811905-.5560356-4.7666256-1.1290493-7.0968815-1.880334,4.3149793.1517094,8.619911.5279818,12.9184095.0808453,7.218249-.8621403,14.6220643-3.46607,19.113955-9.4759166,6.1436824-7.8573848,10.6817657-20.3273647,3.393548-28.8053154-5.4363022,4.5903442-13.0805644,8.2310044-20.251626,6.1285612-4.3964547-1.3753657-8.3361233-6.2282086-6.549534-10.9342167,4.0848121-8.9500903,19.760983-6.5806054,26.4438886-1.9200935,5.0472962-6.4267074,6.1974025-15.443384-.9830436-20.7867373-8.3147016-6.7175583-23.6115161-8.8693112-24.1919246-21.8353061.0561076-9.6611513,7.4680804-17.1992915,13.1245684-24.3382288.347058-.4767156,2.4102723-2.7196268,2.5763733-1.58305-.0069969.0229802-.0358797.0109098-.0297118-.0084559.0083233-.0985862-.0303419-.1977362-.1304535-.2359371-.5416771.0451646-.8682419.614597-1.2108232.9574768-1.6945688,2.1234587-3.0767655,4.5176564-4.5137766,6.8195269-1.6923471,2.8326627-3.3882755,5.706461-4.7050796,8.5879359-5.9162344,13.0333853,1.624998,18.0287853,12.7883208,22.6027482,15.7132775,6.2405443,21.6312362,18.5839504,11.0074351,32.9940195,10.5234574,11.6209379,3.6863222,30.3224092-6.9918622,39.4432429-6.9160241,5.2715939-16.4360441,6.0879064-24.7117821,4.1892346Zm12.0236724-38.1967722c4.5701827-.09915,8.9392136-2.215819,12.4512773-5.0436485-4.6052996-2.7201242-14.1126192-4.5910406-18.1845983-.3045794.0245719-.0393615.0490444-.0797842.07355-.1202732.0175088-.0217201.035117-.0435398.0920536-.1511788-.2774541.4176899-.5282139.9273339-.4855363,1.4282235-.0045762-.0389968-.0091523-.0778277-.0137616-.1162276.0122362-.0793863.0244393-.1587394.0365761-.2381257.0255004,2.9133505,3.4485944,4.5481309,6.0304392,4.5458097Z" fill="#423b30" stroke-width="0"/>
      <path d="m17.9447485,275.0136153c-8.4924917.3182415-13.668318-7.6260902-16.8336056-14.4905497-3.0749915-6.326629.6389866-9.6888734,6.1613238-12.2367619-3.7020071-7.0397459,9.469699-14.3079015,14.4618493-17.3064414-2.440581-5.0660982-.0810775-10.7541551,4.1221343-14.0608225,4.4992026-3.9978984,11.2728685-5.0674246,15.3101285.1398379-1.6786849-1.1171779-3.5430356-2.5090906-5.7051346-2.4654514-5.7597665.2543412-12.5066056,6.8470502-11.0047491,12.8277486.2773712.8171083.5595008,1.6653212,1.0667076,2.3698828.6803212.5122637,1.175159,1.2756188.9740073,2.1745342-.1194773.9245153-.8208886,1.5718749-1.6139059,1.9709286-2.8866066,1.7680525-5.6602021,3.7182558-8.2252345,5.9280064-1.8522968,1.8934988-4.7240309,3.4684576-5.1450037,5.998771.468127.8813403,1.5484138.9884819,1.944881,1.9979876,1.2243858,2.5505081-1.8320357,3.8079881-3.6799388,4.6352104-1.3643066.6962051-2.7252143,1.4044474-3.9681203,2.3021358-1.9229121,1.2238553-.205446,3.6834041.272795,5.3132436,1.9478986,4.1370068,3.8879216,8.8135021,7.7794742,11.4779829,3.6897543,1.8269124,7.9702798,2.5928209,11.8541227,3.4791353-2.5865536.271651-5.1833538.118781-7.7717312-.0553781Z" fill="#423b30" stroke-width="0"/>
      <path d="m89.3412018,198.3988239c3.5459537-4.0005181,7.2962426-7.9002946,9.3384994-12.8664138,1.5990002-3.4174567,2.603366-11.0376775-2.3246187-4.4885083,1.7867219,6.9557835-7.1962304,6.8268886-5.2345205-.1202732-1.1935465-1.9139588-4.0137492-3.8994448-6.274368-2.758723.0706982-.0556102.1428555-.1205716.2318583-.1472327.0055378-.0032829.0111088-.0065326-.0323647-.0054383-.392919.260907-.6621824.6262696-.7790069,1.0709853.0097492-.0360786.0194984-.0720578.0292476-.1075396.0196973-.0483149.0399916-.0971603.061977-.1441819-1.1401913,3.3939791,3.0053709,14.8141632,6.1603953,16.3988712.0363439-.0248704.07292-.0496413.1103582-.0744122.1437177-.3424818-.0871458-.840387-.0226155-1.1332939.1697819.4711446.6876165,1.6086831-.2548054,1.5876593-2.3906413-.7130838-3.8427404-3.2242304-5.2888374-5.1233001-2.3499201-3.8760667-5.3277679-8.5080937-4.0873655-13.2089951,1.9684747-5.3611937,9.3520621-4.0900515,12.6647315-.7358651,11.201391-10.6289741,19.3706257,9.2823586-4.2985648,21.8566614Z" fill="#423b30" stroke-width="0"/>
      <path d="m80.3717458,84.725263c-.9120137-2.160242.1120494-4.4711653.0953365-6.6899688-.1018028-.2137859-.2554023-.789983.1508804-.7379542.5305683.1952491.7725074,1.010202.9636115,1.4772016.6351897,1.7843675,1.2374179,5.3178529-1.2098284,5.9507214Z" fill="#423b30" stroke-width="0"/>
      <path d="m110.138451,84.9505887c-.7088061-2.6175918,1.5620925-4.9460571,1.0330165-7.4937798-.0610154-.1484596-.0885717-.3313067-.2221423-.4314183-.000058.000199-.0001409.0004311-.000199.0006632-.0068559.0133637.0272579.123125-.016945.1060805-.1572555-.1495539-.0340559-.3350539.1614586-.2420055,2.4403489,1.8213746,1.6113691,6.6963688-.9551887,8.0604599Z" fill="#423b30" stroke-width="0"/>
      <path d="m78.4019115,85.8076223c-.6239483-.3140964-.9550229-.8786211-1.1205602-1.5280367-.1717052-.668085.0570693-1.4379396.2850147-2.0930919-.8470191-1.3326218-1.0243616-3.2452873-.0940101-4.5877246,1.1330949-1.7189418,3.9402323-1.2341682,4.4905974.7300951,1.087665,2.5782303.312571,8.591194-3.5610418,7.478758Z" fill="#423b30" stroke-width="0"/>
      <path d="m110.1923037,84.9082428c-.5093456-.0297118-1.0569003-.3692755-1.2903421-.8276865-.3904319-.7777136-.1327747-1.688401.1888823-2.5100854-.3322352-1.3482072-.4613623-3.0734827.5114347-4.2088988,1.6895284-2.054692,4.4544193-.5780873,4.2065776,1.9058345-.3199741,2.0922629-1.172158,5.308369-3.6165525,5.6408363Z" fill="#423b30" stroke-width="0"/>
    </g>
  </g>
</svg>