<?xml version="1.0" encoding="UTF-8"?>
<svg id="Layer_2" data-name="Layer 2" xmlns="http://www.w3.org/2000/svg" viewBox="0 0 401.309414 325.2740518">
  <g id="Layer_1-2" data-name="Layer 1">
    <g>
      <path d="m394.946641.0689737c-.7880859-.0844727-1.6079102-.0917969-2.4355469-.0195312-2.6328125.2294922-5.2587891,1.0717773-8.2646484,2.6499023-3.6713867,1.9277344-7.4013672,3.2241211-11.0869141,3.8525391-5.2207031.8901367-10.5361328,1.7543945-15.6767578,2.5898438-5.6298828.9155273-11.4511719,1.8618164-17.168457,2.8452148-2.1245117.3657227-4.2539062.7060547-6.3837891,1.046875-6.2939453,1.0063477-12.8017578,2.046875-19.0830078,3.7519531-5.7895508,1.5717773-11.0297852,2.9179688-16.5361328,3.4770508-7.7631836.7880859-14.6948242,2.5048828-21.190918,5.2480469-1.8417969.777832-3.6928711,1.5297852-5.5439453,2.28125-5.3759766,2.1831055-10.9345703,4.440918-16.1430664,7.3188477-6.0996094,3.3701172-10.6494141,8.0727539-13.9091797,14.3759766-.1635742.315918-.3686523.6201172-.6064453.9726562-.0444336.0654297-.0893555.1323242-.1357422.2011719-1.5463867-3.7246094-4.3696289-5.4584961-8.5834961-5.2866211-3.7773438.1503906-6.6533203,1.9555664-8.5561523,5.3681641-.078125-.1450195-.1542969-.2866211-.2290039-.4257812-.2958984-.5517578-.5756836-1.0727539-.8808594-1.5761719-1.6767578-2.7626953-4.2226562-4.0239258-7.3544922-3.6435547-1.394043.1679688-2.9013672.6201172-4.6088867,1.3813477-2.0869141.9301758-3.9985352,2.3935547-5.6855469,4.3505859l-.9873047-.4882812c-1.7626953-.8623047-3.5869141-1.1220703-5.4208984-.7719727-5.3994141,1.03125-9.5488281,4.2207031-12.6860352,9.7514648-1.1748047,2.0717773-1.2729492,4.515625-.2851562,7.0673828.1977539.5107422.5073242.8725586.8730469,1.019043.2792969.112793.5878906.0961914.8916016-.0463867.4506836-.2124023.6079102-1.0976562.5693359-1.5336914-.2617188-2.9448242.6147461-5.4267578,2.6054688-7.3774414,1.0703125-1.0488281,2.2211914-2.1474609,3.4941406-3.0400391,3.4272461-2.4003906,6.7060547-2.7631836,10.0234375-1.1069336.6816406.340332,1.3056641.4199219,1.8549805.2358398.5698242-.190918,1.043457-.659668,1.4082031-1.3935547.9790039-1.9677734,2.5678711-3.3359375,4.8569336-4.1826172,3.0776367-1.1367188,4.8535156-.671875,7.0371094,1.8442383.1210938.1396484.2382812.2827148.355957.4257812.1699219.2075195.3408203.4150391.5219727.6132812.1635742.1787109.3120117.3818359.4697266.597168.5537109.7568359,1.1811523,1.6108398,2.5341797,1.2753906.0014648.0019531.003418.0043945.0068359.0073242.8251953.8413086,1.5268555.1943359,1.9453125-.1928711.2768555-.2553711.5507812-.5146484.824707-.7734375.7446289-.7036133,1.5146484-1.4311523,2.3242188-2.0708008,1.5507812-1.2241211,3.6977539-1.6630859,5.8881836-1.2075195,2.2993164.4790039,4.3232422,1.8891602,5.2817383,3.6801758,1.4609375,2.7304688,1.887207,5.4785156,1.2666016,8.168457-.4643555,2.0126953-1.0795898,4.0307617-1.6743164,5.9824219-.2333984.7651367-.4667969,1.5302734-.6918945,2.2973633-.328125,1.1162109-.5522461,2.4628906.6367188,2.9677734.6000977.2558594,1.7548828.3920898,2.7216797-1.5791016,1.1660156-2.3779297,2.3798828-5.2490234,2.5366211-8.5112305.0219727-.4580078.0766602-.9223633.1298828-1.371582.0170898-.1455078.0336914-.2905273.0498047-.4345703l.3203125-.0478516c.3354492-.0483398.6386719-.0927734.9379883-.1533203,1.7260742-.3540039,2.4731445.027832,3.2084961,1.6245117.8222656,1.7856445,1.1113281,3.737793.8833008,5.9682617l-.0317383.3017578c-.0844727.7998047-.171875,1.6264648-.1054688,2.4384766.0625.7714844.3837891,1.3579102.9047852,1.6513672.5419922.3061523,1.246582.2714844,1.9824219-.0957031.1538086-.0761719.3066406-.15625.4589844-.2368164.4057617-.2128906.7885742-.4140625,1.1953125-.5522461.9042969-.309082,1.6733398-.2958984,2.2861328.0371094.609375.3310547,1.034668.9633789,1.265625,1.8793945.5170898,2.0546875.3110352,3.7822266-.6499023,5.4208984-.7543945-.1137695-1.0703125.4755859-1.3041992.9121094-.0839844.1557617-.1625977.3027344-.2543945.4208984-2.1337891,2.7553711-4.8979492,4.5283203-8.4506836,5.4204102-1.3491211.3393555-2.9213867.7875977-4.3544922,1.5375977-4.909668,2.5732422-6.5712891,6.7993164-4.8046875,12.2216797.3198242.9799805.8344727,1.6425781,1.5302734,1.96875.690918.3242188,1.5229492.2978516,2.4716797-.0791016.3022461-.1206055.5200195-.3745117.7304688-.6201172.0849609-.0991211.1699219-.1982422.2592773-.2851562l.2363281-.2290039-.6074219-.3540039c-.2431641-.140625-.4868164-.28125-.7250977-.4287109-.1376953-.0854492-.300293-.1645508-.4633789-.2431641-.2773438-.1342773-.6225586-.3007812-.6743164-.4604492-.934082-2.8964844-.5131836-5.2539062,1.2519531-7.0073242,1.1503906-1.1425781,2.6025391-2.0004883,3.7392578-2.6206055,1.0014648-.5463867,2.1259766-.9321289,3.2128906-1.3056641l.7084961-.2451172c3.6884766-1.2978516,6.4311523-3.3989258,8.1533203-6.2470703.2470703-.034668.4799805-.0605469.7021484-.0849609.5527344-.0610352,1.0302734-.1137695,1.4916992-.2724609.9711914-.3325195,1.6689453-.1479492,2.3339844.6176758,1.3017578,1.4975586,1.0913086,3.1655273.8881836,4.7788086-.0180664.1430664-.0361328.2851562-.0527344.425293-.3100586.0751953-.6098633.1391602-.8999023.2006836-.7182617.1533203-1.3974609.2983398-2.0258789.5673828-2.5180664,1.0771484-4.8066406,2.1357422-6.9960938,3.2363281-1.1254883.565918-2.1914062,1.2661133-3.1669922,2.0820312-3.5166016,2.9399414-4.4946289,8.7480469-2.09375,12.4296875.28125.4306641.2641602.6831055.0751953,1.1777344-.7919922,2.0708008-1.9379883,3.8364258-3.3110352,5.4174805.0053711-.0361328.0102539-.0732422.0141602-.1103516.0410156-.4189453-.0615234-.7919922-.2973633-1.078125-.2646484-.3212891-.6879883-.5244141-1.1923828-.5722656-2.2915039-.2148438-4.9711914-.2138672-7.4536133,1.4521484-4.2192383,2.8300781-5.4580078,7.1621094-6.168457,11.421875-.1762695,1.0546875-.4663086,1.9433594-.8623047,2.6416016-.2397461.4238281-.6035156.6601562-1.0244141.6679688-.4697266.0263672-1.0009766-.3076172-1.3173828-.8251953-.2832031-.4619141-.9594727-.7802734-1.480957-.8544922-.574707-.0830078-1.1630859-.0722656-1.7304688-.0634766-.2978516.0048828-.5957031.0097656-.8920898.0029297-.3183594-.0078125-.5302734-.0732422-.6298828-.1943359-.0874023-.1054688-.1113281-.2832031-.0708008-.5283203.0869141-.5224609-.0019531-.9921875-.2436523-1.2880859-.1811523-.2216797-.4433594-.3447266-.7578125-.3554688-.6000977.0097656-1.4013672.3369141-1.7602539.796875-.4931641.6289062-.6298828,1.4072266-.3759766,2.1337891.2631836.7529297.9145508,1.3193359,1.7426758,1.5166016.8798828.2099609,1.7905273.3222656,2.6713867.4316406.5126953.0634766,1.0253906.1269531,1.534668.2099609.2631836.0419922.5585938.1621094.8095703.328125.9345703.6220703,1.9770508.8535156,2.9345703.6591797.9082031-.1865234,1.6850586-.7373047,2.2460938-1.5947266.5878906-.8955078.9414062-1.9462891,1.2832031-2.9628906l.0751953-.2226562c.4165039-1.2324219.796875-2.5058594,1.1650391-3.7382812.1293945-.4326172.2587891-.8671875.3911133-1.3037109,1.9916992,1.3457031,2.512207,2.4951172,2.1352539,4.5810547-1.1206055,6.2050781-5.5776367,9.5888672-9.7900391,12.0800781-.1704102.1005859-.3828125.1552734-.6074219.2138672-.1088867.0283203-.2177734.0566406-.3237305.0898438-.2075195.0654297-.4174805.125-.6279297.1845703-.4536133.1279297-.921875.2607422-1.3632812.4570312-6.1791992,2.7509766-12.3496094,2.0097656-18.3393555-2.203125-2.4677734-1.7373047-4.5688477-4.109375-6.6000977-6.4033203l-.5341797-.6025391c-1.9101562-2.1503906-3.1201172-4.9013672-3.9248047-8.9189453-.1044922-.5224609-.3212891-1.6044922-1.4648438-1.6044922h-.0273438c-1.2231445.0175781-1.3916016,1.2119141-1.4550781,1.6611328-.0585938.4140625-.0878906.8320312-.1142578,1.2011719l-.0063477.0849609-7.0307617-2.9013672c.1235352-.1357422.2519531-.2744141.3828125-.4150391.5112305-.5507812,1.0908203-1.1748047,1.5830078-1.8486328.6650391-.9130859,1.2871094-1.9414062,1.9018555-3.1445312.1105957-.2163696.1938477-.4120483.2644043-.5997925.0861816.213562.2258301.4105835.4333496.5822144.277832.2304688.5893555.34375.9116211.34375.4013672,0,.8198242-.1757812,1.2114258-.5253906,2.8164062-2.5112305,3.8671875-5.0810547,3.3066406-8.0883789-.1293945-.6962891-.3618164-1.3759766-.5864258-2.0332031-.1206055-.3535156-.2416992-.7075195-.347168-1.0649414-.1582031-.5356445-.3022461-1.0756836-.4604492-1.6669922l-.215332-.7998047c.0625-.1679688.1206055-.34375.1796875-.5234375.1640625-.4980469.3339844-1.0126953.6240234-1.4248047.0727539-.1040039.4985352-.128418.7529297-.1430664.1660156-.0097656.3305664-.0195312.4750977-.0405273.3808594-.0561523.6245117-.1918945.7456055-.4155273.1230469-.2270508.1015625-.5151367-.0668945-.8803711-.3393555-.7373047-.9790039-1.2172852-1.7548828-1.3178711-.9194336-.1181641-1.862793.3022461-2.5390625,1.1235352-1.3261719,1.6098633-1.6503906,3.5473633-.9916992,5.9228516.1967773.7119141.4311523,1.4228516.6577148,2.1108398.1484375.4511719.296875.9023438.4365234,1.355957.3945312,1.2861328-.1347656,2.4077148-.765625,3.4277344-.2861328.4619141-.6162109.9135742-.9355469,1.3500977-.262207.3579102-.5244141.7163086-.7680664,1.0864258-.067627.1022339-.125.2029419-.175293.3024292-.095459-.3392334-.3024902-.6644897-.6323242-1.0197144.0629883-.0791016.1313477-.1591797.1987305-.2387695.3027344-.3564453.5883789-.6933594.4956055-1.0268555-.1025391-.3696289-.328125-.6508789-.6513672-.8129883-.3955078-.1972656-.9213867-.2041016-1.4057617-.0161133-.7348633.2851562-1.472168.7915039-2.0229492,1.3886719-1.0537109,1.1425781-2.3339844,1.5668945-3.9150391,1.2978516-2.0932617-.3574219-3.8730469-1.2329102-5.2895508-2.6025391-1.0322266-.9985352-1.5083008-2.1186523-1.4160156-3.3291016.0849609-1.1083984.3193359-2.1958008.5371094-3.1132812.2451172-1.0317383-.0356445-1.6103516-.96875-1.996582-.5888672-.2436523-1.1416016-.7143555-1.375-1.1708984-.4814453-.9394531-.8212891-1.9619141-.9833984-2.956543-.4077148-2.5087891-.5454102-5.6791992,2.0302734-7.9482422,1.2353516-1.0874023,2.7382812-1.9086914,4.1918945-2.703125,1.5146484-.8286133,1.7270508-1.4204102,1.081543-3.0146484-1.7382812-4.2939453-1.5429688-7.7470703.6147461-10.8666992,1.0063477-1.4545898,1.5556641-1.6811523,3.2651367-1.3378906.215332.0429688.4311523.0839844.6469727.1245117.3623047.0683594.7241211.1367188,1.0839844.2163086.6162109.1362305,1.9018555.4189453,2.3935547-.8964844.4453125-1.1958008-.4223633-1.9082031-1.1137695-2.340332-1.5307617-.9560547-3.2026367-1.2705078-4.7060547-.8847656-1.4638672.375-2.6806641,1.362793-3.519043,2.8564453-1.9624023,3.4980469-2.527832,7.0322266-1.6801758,10.5048828.1606445.6572266.3325195,1.3125.5058594,1.9731445l.1972656.753418c-.0039062.0024414-.0073242.0043945-.0107422.0063477-.0791016.0454102-.1420898.0834961-.2094727.1083984-3.4121094,1.2348633-5.7915039,3.4189453-6.8803711,6.3154297-1.284668,3.4165039-.7368164,7.8388672,1.465332,11.8300781.1079102.1962891.2641602.347168.4155273.4936523.1289062.1245117.2509766.2426758.3232422.371582.1616211.2885742.2431641.6015625.1928711.7446289-1.4711914,4.2290039-.0620117,8.0761719,3.7700195,10.2915039,2.8779297,1.6630859,5.5600586,2.1943359,8.1748047,1.6152344l-.0048828.0048828c-1.40625,1.3779297-2.8120117,2.7548828-4.2338867,4.1142578-.0458984.0361328-.2446289.0410156-.340332.0439453l-.0932617.0029297c-5.6660156.2246094-10.2558594,1.4667969-14.4160156,3.9052734-.3520508-.6943359-.7177734-1.3837891-1.0834961-2.0722656-.8740234-1.6464844-1.777832-3.3486328-2.4638672-5.09375-3.2641602-8.3012695-3.6269531-14.8325195-1.1762695-21.1767578,2.2470703-5.8188477,3.1728516-12.0239258,3.8642578-17.3828125,1.5283203-11.8447266-2.7553711-21.5473633-12.7319336-28.8388672-3.6157227-2.6425781-7.6616211-4.546875-12.1938477-6.5878906-5.2236328-2.3520508-10.8808594-4.6137695-16.815918-6.722168-3.2290039-1.1469727-6.8120117-2.0898438-11.2763672-2.9667969-2.2280273-.4379883-4.5151367-.7543945-6.7265625-1.0600586-2.5195312-.3486328-5.125-.7089844-7.6435547-1.2495117-2.7773438-.5961914-5.5854492-1.2768555-8.3012695-1.9350586-4.9677734-1.2041016-10.1049805-2.4492188-15.2719727-3.2314453-7.1333008-1.0805664-14.3706055-2.2905273-21.3691406-3.4604492-5.3105469-.8876953-10.8022461-1.8056641-16.2114258-2.6611328-5.7480469-.9091797-11.8520508-2.1816406-17.5429688-5.3120117-.6137695-.3383789-1.2705078-.597168-1.8383789-.8134766-2.3032227-.8774414-5.0615234-1.7246094-8.0385742-1.3598633C2.6077738,8.2135049.3065043,10.5631143.0379496,14.0596963c-.1040039,1.3457031.0068359,2.8310547.3193359,4.2954102.75,3.5073242,2.9023438,6.309082,5.0429688,8.878418l1.2421875,1.5c-2.7695312,1.5683594-3.3608398,3.1855469-2.3554688,6.2749023.215332.6611328.4858398,1.2841797.8032227,1.8525391,2.3120117,4.1376953,5.7026367,6.9990234,10.078125,8.5039062,1.2070312.4150391,2.1889648.7231445,3.0893555.9702148.4707031.1289062.5688477.2841797.4775391.7548828-.3134766,1.6210938-.0541992,3.2504883.7509766,4.7114258.9838867,1.7866211,2.0991211,3.8120117,3.5615234,5.5161133,3.0371094,3.5400391,6.7783203,6.4350586,11.1201172,8.6054688l.3168945.1542969c.5410156.2602539,1.1005859.5288086,1.390625.9331055.0917969.1274414-.0419922.5820312-.1303711.8828125-.0610352.2070312-.1210938.4145508-.1542969.6025391-.0087891.0537109-.0126953.1079102-.0161133.1625977l-.0048828.0629883c-.6132812,6.3813477,1.628418,11.7021484,6.6625977,15.8154297,2.0419922,1.668457,4.449707,3.2841797,7.3608398,4.9399414,2.5532227,1.4521484,5.2319336,2.7758789,7.8227539,4.0556641.8188477.4042969,1.6381836.809082,2.4545898,1.2182617.4838867.2421875.6323242.4770508.6616211,1.0458984.2700195,5.34375,1.5209961,9.1303711,4.0556641,12.2773438,3.230957,4.0117188,6.7158203,6.7851562,10.6542969,8.4775391,1.5893555.6835938,3.2412109,1.2841797,4.8393555,1.8652344.9511719.3457031,1.9023438.6923828,2.8461914,1.0566406.4238281.1630859.8212891.4638672,1.1201172.7080078.296875.2421875.5864258.5175781.8662109.7841797.5200195.4941406,1.0576172,1.0048828,1.6889648,1.3574219,3.6875,2.0625,7.2426758,3.2587891,10.8691406,3.6582031.4472656.0488281.8925781.1152344,1.3618164.1845703l.3779297.0546875-.0668945.1376953c-.1108398.2275391-.2050781.421875-.2973633.6171875-2.2578125,4.7880859-1.3530273,8.8916016,2.6889648,12.1982422,1.2954102,1.0595703,2.4897461,1.8691406,3.6523438,2.4746094,1.4013672.7304688,2.2421875,1.2783203,2.1035156,2.7294922-.0200195.2119141.0649414.4101562.1396484.5849609l.0507812.1240234c1.8095703,4.7236328,4.8735352,7.453125,9.3676758,8.34375.5102539.1005859,1.019043.2080078,1.5273438.3144531l.3115234.0654297-.262207.2705078c-.4199219.4326172-.8398438.8662109-1.2685547,1.2910156-2.7558594,2.7285156-4.2368164,6.3232422-4.4023438,10.6855469-.0776367,2.0498047.4829102,3.7509766,1.6210938,4.9189453,1.1416016,1.171875,2.8398438,1.7890625,4.9179688,1.7890625.0419922,0,.0839844,0,.1254883-.0009766.4873047-.0048828,1.0048828-.0195312,1.5014648-.1328125,1.0888672-.2480469,2.1723633-.5195312,3.2885742-.7998047l1.0146484-.2529297.0024414.1015625c.0791016,3.2246094.1606445,6.5585938,3.1220703,8.7363281,2.6689453,1.9638672,5.8876953,2.3398438,9.5673828,1.1230469l.0800781.4853516c.0878906.5283203.171875,1.0292969.2382812,1.5332031,1.2114258,9.1894531,3.125,18.6669922,5.6875,28.1699219.671875,2.4912109,1.6191406,4.6572266,2.8955078,6.6201172.5541992.8525391,1.1269531,1.7333984,1.6162109,2.6445312,1.7973633,3.3505859,3.996582,5.8671875,6.7226562,7.6933594.418457.2792969.7973633.8740234.8276367,1.2988281.2431641,3.3769531,1.5917969,6.5751953,4.1225586,9.7802734,3.7695312,4.7705078,7.1865234,9.0556641,10.8408203,13.1904297,1.4331055,1.6191406,3.3388672,3.1230469,5.6655273,4.4677734,6.8256836,3.9443359,13.0888672,4.2197266,19.1459961.8408203.4169922-.2324219.9023438-.4716797,1.3442383-.4882812,2.4072266-.0878906,4.7216797-.7138672,6.9604492-1.3193359,1.0273438-.2773438,2.0893555-.5644531,3.1425781-.7949219,3.2827148-.7158203,6.2280273-2.2148438,9.003418-4.5830078l4.1689453-3.5498047.3574219.5292969c.3681641.5478516.7260742,1.0800781,1.0961914,1.6044922,3.1708984,4.4931641,7.0629883,8.4980469,11.8984375,12.2412109,1.3833008,1.0712891,2.7758789,2.1298828,4.1689453,3.1894531,2.4829102,1.8876953,5.050293,3.8388672,7.5170898,5.828125,2.347168,1.8925781,3.1826172,3.8476562,2.6289062,6.1533203-.0698242.2910156-.0693359.5878906-.0688477.875.0004883.1386719.0009766.2763672-.0073242.4130859-.0175781.2958984-.0048828.6142578.0078125.921875.0263672.6503906.0537109,1.3232422-.2216797,1.6787109-.3227539.4179688-1.0395508.6103516-1.7329102.796875-.2641602.0703125-.5258789.1416016-.7680664.2236328-2.5249023.8535156-4.1611328,2.5458984-4.8647461,5.0292969-.5424805,1.9160156-.0834961,3.7304688.3608398,5.4853516.0737305.2919922.1479492.5839844.2172852.8769531.7822266,3.2978516,2.862793,5.8300781,4.875,8.2792969.3491211.4248047.6982422.8496094,1.0405273,1.2783203,1.0620117,1.3291016,2.4321289,2.4189453,4.4418945,3.5322266,1.543457.8544922,3.1679688,1.8027344,4.59375,2.9433594,1.1967773.9580078,2.3671875,1.9941406,3.4990234,2.9970703,1.2163086,1.0771484,2.4736328,2.1904297,3.7714844,3.2138672,1.6054688,1.265625,2.9042969,2.7792969,4.0888672,4.7626953.8823242,1.4775391,2.1816406,2.7539062,3.4370117,3.9345703.5869141.5527344,1.3881836.9570312,2.1889648.9570312.4462891,0,.8920898-.1259766,1.3007812-.4199219,1.3193359-.9511719,2.800293-2.0869141,3.6743164-3.5234375,1.3359375-2.1953125,1.2851562-4.7539062-.1459961-7.3994141-1.3398438-2.4775391-2.7250977-5.0390625-3.3925781-7.9345703-.4194336-1.8193359-.9335938-3.6464844-1.4306641-5.4140625-.2915039-1.0351562-.5830078-2.0703125-.8574219-3.109375-.1713867-.6494141-.300293-1.3115234-.4248047-1.9521484-.0317383-.1621094-.0629883-.3232422-.0947266-.4814453l1.6450195.3359375c1.4702148.3017578,2.9165039.5976562,4.3662109.8730469,1.6015625.3046875,3.5014648.5273438,5.4541016-.1181641,1.0009766-.3320312,2.0615234-.5615234,3.0869141-.7832031.6738281-.1455078,1.3701172-.2958984,2.0493164-.4755859.3837891-.1005859.7880859-.3564453,1.2353516-.78125.3642578-.3466797.7480469-.7617188.8305664-1.2207031.097168-.5439453.3823242-.6621094.9204102-.8417969.1704102-.0566406.3422852-.1103516.5146484-.1650391,1.2407227-.3896484,2.5239258-.7919922,3.2226562-2.1855469.0742188-.0839844.4785156-.1416016.6430664-.1660156,1.8305664-.265625,3.4121094-.9902344,4.699707-2.1533203.4047852-.3652344.6992188-.8378906.984375-1.2939453.1367188-.2197266.2734375-.4394531.4223633-.6455078.0712891-.0986328.1396484-.2050781.2080078-.3115234.1704102-.2646484.3310547-.515625.5385742-.6416016,1.5371094-.9306641,1.9658203-2.4179688,1.1181641-3.8808594-.3886719-.671875-.9238281-1.2724609-1.5063477-1.6914062-2.7827148-1.9960938-5.4433594-3.15625-8.1352539-3.546875-2.6118164-.3789062-4.6171875-1.1484375-6.3125-2.4208984-1.6577148-1.2441406-3.5957031-2.0371094-5.9243164-2.4248047-1.0595703-.1767578-2.1337891-.3857422-3.1723633-.5869141-.387207-.0751953-.7739258-.1503906-1.1611328-.2236328.0224609-.1660156.0478516-.3291016.0727539-.4882812.0791016-.5068359.1538086-.9863281.1176758-1.4716797-.2587891-3.4541016.7255859-6.7685547,1.7563477-9.8681641,1.4599609-4.3916016,2.6801758-8.3759766,2.8286133-12.6845703.2099609-6.1162109-.2070312-12.2333984-1.2402344-18.1835938-.9619141-5.5449219-1.1318359-11.0605469-.5048828-16.3945312.5185547-4.4150391.5185547-9.0097656,0-13.65625-.5292969-4.7421875-2.3579102-6.90625-6.3115234-7.4707031-2.2607422-.3232422-3.6542969-1.2714844-4.5175781-3.0742188-.1064453-.2226562-.253418-.4150391-.3959961-.6005859l-.097168-.1279297c-2.7124023-3.6357422-5.9853516-5.1210938-10.012207-4.5332031-.0600586.0078125-.1206055.0146484-.1816406.0205078.0703125-.0439453.1420898-.0859375.2148438-.1289062.1230469-.0722656.2446289-.1445312.3618164-.2226562.2441406-.1630859.4960938-.3193359.7485352-.4755859.6992188-.4335938,1.421875-.8818359,1.9858398-1.4824219l1.3330078-1.4179688c3.8867188-4.1357422,7.90625-8.4111328,11.6933594-12.7646484,1.9550781-2.2460938,4.1982422-4.2714844,6.8535156-6.1875l2.65625,2.0878906c2.3061523,1.8115234,4.6293945,3.6376953,6.9560547,5.4599609,1.1962891.9355469,2.3857422,1.8798828,3.5751953,2.8251953,2.9433594,2.3369141,5.9868164,4.7539062,9.081543,6.9951172,1.9150391,1.3876953,4.015625,2.5742188,6.0473633,3.7216797.7744141.4375,1.5493164.875,2.3149414,1.3242188.3120117.1826172.9326172.4931641,1.5834961.5126953.4794922.0107422,1.0332031-.1884766,1.4545898-.5117188.3623047-.2783203.6386719-.6513672.90625-1.0117188.0717773-.0976562.1435547-.1943359.2167969-.2880859,1.9335938-2.4931641,1.8188477-4.3623047-.3969727-6.4501953-3.4145508-3.2167969-6.5239258-6.0253906-9.5063477-8.5869141-5.9921875-5.1455078-12.2519531-9.6396484-18.6054688-13.3544922-.0307617-.0185547-.0620117-.0361328-.0917969-.0527344.3212891-1.5654297.769043-2.7041016,1.9038086-3.5068359.4526367-.3203125.8554688-.9501953,1.0771484-1.6865234.4804688-1.5917969.3813477-3.0449219-.2719727-3.9863281-.5043945-.7285156-1.3032227-1.1503906-2.3754883-1.2548828-.2495117-.8496094-.0268555-1.3476562.7631836-1.7480469.4785156-.2412109.8852539-.6044922,1.2792969-.9560547.1821289-.1621094.3642578-.3251953.5532227-.4746094.3466797-.2753906.6899414-.5546875,1.0332031-.8330078.8139648-.6621094,1.6557617-1.3457031,2.5224609-1.9560547.7470703-.5253906,1.5336914-1.0283203,2.2949219-1.5146484,1.1645508-.7441406,2.3686523-1.5146484,3.46875-2.3896484,2.7143555-2.1591797,3.7050781-5.1845703,2.8647461-8.7470703-.2114258-.8945312-.5009766-1.7490234-.8076172-2.6533203-.1064453-.3144531-.2138672-.6308594-.3183594-.9521484l.0151367-.0019531c.2260742-.0341797.4545898-.0693359.684082-.0888672,3.7485352-.3310547,7.5043945-1.4814453,11.1630859-3.4208984,1.2333984-.6533203,2.1494141-1.3330078,2.800293-2.0751953.5678711-.6484375,1.1928711-1.0498047,2.0893555-1.3427734,3.4111328-1.1142578,7.2773438-2.3779297,10.6254883-4.6088867,7.5024414-4.9995117,11.1811523-11.2392578,11.2460938-19.0761719.0019531-.2167969.2905273-.6137695.5419922-.7451172,1.6630859-.8696289,3.3359375-1.7211914,5.0083008-2.5727539,1.8178711-.9248047,3.6357422-1.8500977,5.440918-2.7988281,3.8588867-2.0268555,6.7099609-4.0869141,8.9726562-6.4824219,4.2026367-4.4492188,5.793457-9.5957031,4.7280273-15.2973633-.1293945-.6914062-.0249023-.9326172.5087891-1.1723633.3076172-.1381836.6030273-.3041992.8886719-.4648438.1953125-.1103516.390625-.2202148.590332-.3212891,4.1806641-2.1186523,7.8222656-4.9726562,10.8232422-8.4829102,1.2895508-1.5078125,2.4560547-3.3461914,3.4682617-5.4638672.6738281-1.4106445.7895508-3.0795898.7680664-4.2314453-.0170898-.918457.1948242-1.1220703.9868164-1.3925781l.8862305-.2993164c1.6674805-.559082,3.3916016-1.137207,4.934082-2.003418,4.0058594-2.2504883,6.6293945-5.4316406,7.7983398-9.4545898.8081055-2.7817383.1113281-4.3198242-2.5371094-5.6601562.1020508-.1171875.2055664-.2348633.3095703-.3525391.328125-.3706055.6674805-.7543945.9667969-1.1679688.2924805-.4038086.5898438-.8056641.887207-1.2080078.9282227-1.2543945,1.8876953-2.5517578,2.7001953-3.9130859,1.4399414-2.4121094,2.0522461-5.046875,1.8203125-7.8305664-.3056641-3.6713867-2.6665039-6.0976562-6.3149414-6.4897461Zm-3.2128906,19.7055664c-.3417969.4360352-.6953125.8867188-.9707031,1.3818359-.3583984.6459961-.3857422,1.331543-.0722656,1.8334961.2973633.4750977.8540039.7358398,1.5297852.6904297.71875-.0366211,1.6396484.0263672,1.9619141.5478516.2797852.4526367.1074219,1.2553711-.4975586,2.3217773-2.6352539,4.6430664-6.1254883,7.5585938-10.6699219,8.9135742-.706543.2104492-1.2944336.3886719-1.894043.6035156-1.4667969.5239258-1.9887695,1.2998047-1.8027344,2.6777344.2529297,1.8798828-.2714844,3.6030273-1.6513672,5.4228516-3.918457,5.168457-8.230957,8.8291016-13.1835938,11.1918945-.8251953.3930664-1.5004883.7480469-2.1157227,1.199707-.5927734.4355469-.9482422.9702148-1.0288086,1.5458984-.0786133.5605469.1064453,1.1494141.5351562,1.703125.6782227.8769531.9243164,1.8461914.796875,3.1420898-.4321289,4.4150391-2.3945312,7.9833984-5.9980469,10.9082031-4.7705078,3.8725586-10.2006836,6.4819336-15.3579102,8.7246094-.2890625.1259766-.5820312.2431641-.8745117.3608398-.2861328.1147461-.5722656.2294922-.8554688.3520508-1.9604492.8481445-2.953125,2.1699219-3.034668,4.0424805-.0253906.5834961-.1508789,1.1826172-.2714844,1.762207-.0537109.2558594-.1069336.5117188-.152832.7675781-1.1425781,6.3720703-4.8579102,11.1123047-11.3569336,14.4916992-1.9594727,1.019043-4.1362305,1.7246094-6.2412109,2.4072266-.7319336.2373047-1.4633789.4741211-2.1870117.7241211-1.1376953.3925781-2.284668.8964844-2.7211914,2.3422852-.0629883.2070312-.3076172.46875-.5449219.5820312-3.3510742,1.5966797-7.1489258,3.4072266-11.3168945,3.6386719-.0786133.0048828-.1586914.0029297-.246582.0048828,3.9418945-5.0195312,1.5371094-9.2446289-1.4956055-12.7456055l.6025391-.2529297c.6210938-.2592773,1.2001953-.5009766,1.7734375-.7553711,5.6894531-2.5268555,7.2841797-6.1293945,5.331543-12.0463867-.1860352-.5639648-.4057617-1.1240234-.6186523-1.6660156-.0751953-.1914062-.1499023-.3823242-.2236328-.5737305.3564453-.2275391.7148438-.4516602,1.0727539-.675293.9189453-.5742188,1.8696289-1.1674805,2.7651367-1.8110352,2.0097656-1.4433594,3.2114258-3.2636719,3.5722656-5.409668.2338867-1.3964844.2368164-2.6054688.0087891-3.5927734-.9931641-4.3037109-3.265625-7.3657227-6.9399414-9.3461914.0488281-.0224609.0976562-.0449219.1459961-.0673828.4248047-.1953125.8256836-.3803711,1.1831055-.6455078.3134766-.2329102.6376953-.4584961.9628906-.6850586.9897461-.6894531,2.0136719-1.402832,2.7602539-2.3354492,1.7988281-2.2460938,2.0112305-4.8188477.6049805-7.262207,3.8354492-1.3300781,7.0043945-3.7143555,9.9228516-6.043457,3.4267578-2.7348633,7.6181641-4.4765625,13.5908203-5.6474609,3.4887695-.684082,7.0703125-1.2236328,10.5341797-1.7451172l2.3798828-.3603516c6.5927734-1.0073242,12.2705078-2.9829102,17.3569336-6.0400391l.9863281-.5922852c4.2460938-2.5473633,8.6362305-5.1811523,12.534668-8.418457.7158203-.5942383,1.3598633-1.2011719,1.9140625-1.8032227.7026367-.762207.7314453-1.5620117.0786133-2.1943359-.2602539-.2529297-.5869141-.3701172-.9501953-.3535156-.484375.0292969-.9853516.3212891-1.3740234.8007812-.1044922.1289062-.2587891.2353516-.4228516.3476562-.0600586.0410156-.1201172.0825195-.1777344.125l-2.6772461,1.9580078c-2.2983398,1.6816406-4.5966797,3.3632812-6.902832,5.0341797-6.8369141,4.9526367-14.331543,8.0214844-22.2763672,9.1225586-1.4033203.1943359-2.8071289.3833008-4.2109375.5722656-3.0112305.4052734-6.125.8242188-9.1796875,1.2944336-4.4135742.6787109-8.6074219,2.4296875-12.4638672,5.203125-2.5898438,1.862793-5.3110352,3.6396484-7.9428711,5.3579102l-.4023438.2626953c-1.4716797.9619141-2.690918,1.0302734-4.4179688.2250977.1572266-.2407227.3193359-.4790039.4814453-.7172852.4755859-.7001953.9677734-1.4243164,1.3417969-2.2011719,1.1894531-2.4692383.7944336-4.1103516-1.3637695-5.6645508-1.0268555-.7397461-2.1586914-1.3574219-3.253418-1.9545898-.4624023-.2524414-.9248047-.5048828-1.3808594-.7666016.7163086-1.546875.640625-3.2109375-.2241211-4.7246094-1.1577148-2.0273438-3.4926758-3.3891602-5.9492188-3.46875-1.6704102-.0551758-3.3969727.1860352-4.9902344.6938477-3.6674805,1.168457-6.6132812,2.6816406-9.0068359,4.6269531-1.1098633.9013672-1.9707031,2.1132812-2.8037109,3.284668l-.15625.2202148c-.2382812.3344727-.2177734.7958984-.1977539,1.2426758.0078125.1787109.0166016.3579102.0053711.5234375l-.0283203.4277344.3862305-.1860352c.1489258-.0717773.3105469-.1313477.472168-.1914062.3857422-.144043.784668-.2924805,1.0561523-.5932617,3.4677734-3.8388672,8.0727539-5.5117188,11.6972656-6.5395508,1.2431641-.3530273,2.6298828-.3476562,3.9633789-.3432617l.0805664.0004883c.9692383.003418,1.8374023.5141602,2.5820312,1.5180664.8178711,1.1040039.8208008,2.0151367.0112305,3.144043-.043457.0610352-.1000977.1171875-.1557617.1738281-.1318359.1352539-.28125.2885742-.3222656.4980469-.0219727.1137695-.0493164.2329102-.0771484.3540039-.1181641.5136719-.2519531,1.0961914-.0336914,1.5327148.2446289.4887695,1.1621094.9291992,1.7260742.8212891,2.1313477-.4008789,3.6411133.722168,5.2802734,1.9433594.5014648.3740234.9897461,1,.4667969,1.8583984-.6826172,1.1206055-1.4858398,2.2001953-2.262207,3.2446289l-.0854492.1147461c-.1337891.1796875-.3129883.3344727-.5024414.4985352-.1811523.15625-.3676758.3178711-.5253906.5117188-.3828125.4702148-.5,1.0161133-.3222656,1.4975586.1796875.4848633.628418.8261719,1.2314453.9360352.2729492.0493164.5483398.0566406.8144531.0634766.184082.0048828.3686523.0092773.5512695.0288086,1.7070312.1855469,2.8071289.8969727,3.3623047,2.1748047.5415039,1.2451172.2749023,2.5961914-.7304688,3.706543-.7709961.8500977-1.8212891,1.6494141-3.0385742,2.3105469-1.1030273.6000977-2.2910156,1.1020508-3.4399414,1.5874023-.5219727.2202148-1.0444336.440918-1.5610352.6708984-1.0073242.4482422-1.4301758,1.1352539-1.2563477,2.0419922.1699219.8852539.8286133,1.3823242,1.8554688,1.3999023l.2441406.0039062c1.4892578.0224609,2.8955078.043457,4.0351562,1.1870117,1.6938477,1.699707,2.7705078,3.5488281,3.2924805,5.6538086.6201172,2.5019531-.0683594,4.5332031-2.046875,6.0366211-1.0737305.815918-2.2631836,1.5288086-3.4130859,2.2182617l-.5820312.3500977c-1.5170898.9150391-1.8027344,1.7646484-1.175293,3.4970703.6362305,1.7568359,1.0493164,3.2001953,1.2998047,4.5429688.4331055,2.3232422-.3378906,3.9609375-2.4257812,5.152832-1.0341797.5908203-2.1489258,1.0927734-3.2270508,1.578125l-.4916992.222168c-1.0761719.4868164-1.7338867,1.1201172-1.9550781,1.8813477-.2172852.7495117-.0087891,1.6152344.6196289,2.5722656.4790039.7294922,1.0473633,1.5668945,1.7265625,2.2705078,1.3198242,1.3652344,1.7753906,2.9853516,1.2827148,4.5605469-.5615234,1.7958984-2.3056641,3.2294922-4.4428711,3.6542969l-.402832.0771484c-.6230469.1171875-1.2675781.2382812-1.8491211.5058594-1.2890625.59375-1.9008789,1.8691406-1.4550781,3.0322266.4257812,1.109375,1.6313477,1.6347656,3.0009766,1.3027344.5014648-.1220703.9716797-.3125,1.4267578-.4960938.125-.0498047.2480469-.0996094.3686523-.1464844.1191406.1855469.2358398.3710938.3525391.5556641.3212891.5097656.6533203,1.0371094,1.0102539,1.5332031,2.0488281,2.8554688,1.7265625,5.9267578-.840332,8.015625-1.5761719,1.2832031-3.4135742,2.3144531-5.190918,3.3115234l-.4658203.2617188c-1.3549805.7617188-1.9135742,1.3583984-1.8637695,3.0820312.0083008.28125-.2192383.6611328-.4477539.8925781-.1943359.1953125-.4545898.3398438-.7294922.4931641-.1518555.0839844-.3032227.1689453-.4467773.2626953-.6318359.4150391-1.1157227.4736328-1.8496094.2246094-.7055664-.2373047-1.5009766-.1835938-2.2700195-.1308594-.2514648.0166016-.5039062.0341797-.7548828.0410156-.0043945-.0927734-.0083008-.1855469-.012207-.2783203-.0146484-.3730469-.0302734-.7587891-.0917969-1.1367188-.4160156-2.5654297-2.3789062-4.1005859-5.003418-3.8847656-3.1074219.2431641-5.5795898,1.3662109-7.5585938,3.4326172-.7558594.7890625-1.5131836,1.5761719-2.2866211,2.3789062l-.9907227,1.0302734c-.2368164-.1816406-.4829102-.3603516-.7304688-.5400391-.6645508-.4814453-1.3520508-.9794922-1.8911133-1.5830078-2.1035156-2.3583984-4.6079102-4.2998047-7.0302734-6.1777344-1.0869141-.8427734-2.2109375-1.7138672-3.2807617-2.609375-1.4741211-1.234375-3.0615234-2.375-4.5966797-3.4785156l-.7368164-.53125c-.7749023-.5585938-1.4902344-.9541016-2.1865234-1.2080078-.4326172-.1552734-1.1000977.0703125-1.46875.3730469-1.237793,1.015625-2.3959961,2.0703125-3.6728516,3.2431641-.1850586.1699219-.5683594.7255859-.3725586,1.03125.2470703.3847656.3217773.8417969.4013672,1.3271484.1196289.7304688.2553711,1.5595703,1.0610352,2.15625,2.6508789,1.9628906,5.2524414,4.0517578,7.6899414,6.0244141,2.0654297,1.6708984,4.128418,3.3837891,6.1230469,5.0400391.8032227.6669922,1.6005859,1.3291016,2.3925781,1.9833984l-.6928711.7871094c-.8603516.9785156-1.6733398,1.9033203-2.4941406,2.7871094-.0498047.0410156-.2929688.0673828-.5141602.0205078-3.8168945-.8251953-7.7597656-.5751953-11.7167969.7441406-.5517578.1816406-.8393555.1298828-1.1015625-.2060547-.140625-.1816406-.2885742-.359375-.4370117-.5380859-.3935547-.4736328-.800293-.9628906-1.0444336-1.4970703-1.2070312-2.6337891-2.8803711-5.1337891-5.1157227-7.640625-.7158203-.8027344-1.6040039-1.4326172-2.4628906-2.0410156-.2871094-.2041016-.5712891-.4052734-.84375-.6103516,4.4150391-4.1191406,6.7617188-8.6162109,7.1669922-13.7314453,1.9301758-.9013672,3.7539062-2.3662109,5.5712891-4.4755859.6005859-.6962891,1.3115234-1.3300781,1.9990234-1.9433594.0356445-.0322266.0712891-.0634766.1069336-.0957031-.6040039,2.0615234.0063477,4.0410156,1.7553711,5.5546875,2.8105469,2.4316406,5.6479492,3.2304688,8.6669922,2.4492188,1.9165039-.4960938,3.3530273-1.5488281,4.1552734-3.0439453.7421875-1.3828125.8549805-3.0009766.3183594-4.5566406-.0395508-.1142578-.0419922-.3564453.1704102-.8613281.1831055-.4355469.387207-.8632812.5913086-1.2910156.3447266-.7216797.7006836-1.4677734.9487305-2.2441406.6655273-2.0839844.2988281-3.90625-1.0888672-5.4189453.1547852-.1635742.3105469-.3256836.465332-.487793.4506836-.4707031.9169922-.9575195,1.3554688-1.4560547,1.6650391-1.8935547,2.4755859-3.7163086,2.5507812-5.7353516.0932617-2.5146484-.6953125-4.1860352-2.4765625-5.2338867,2.3413086-3.3769531,2.1123047-7.2382812,1.0942383-9.7617188-.8681641-2.152832-2.4130859-3.6425781-4.1582031-4.0244141-.0581055-.4794922-.1044922-.9575195-.1503906-1.4326172-.1118164-1.1523438-.2275391-2.3442383-.512207-3.4736328-.4257812-1.6889648-1.324707-2.9770508-2.5991211-3.7255859-1.3178711-.7734375-2.9570312-.9291992-4.7363281-.4521484-.0527344.0141602-.1054688.0258789-.1552734.0356445-.0419922-.5009766-.0776367-1.0009766-.112793-1.4985352-.097168-1.3657227-.1977539-2.777832-.4335938-4.1420898-.1816406-1.050293-.612793-2.1806641-1.3178711-3.4550781-1.4638672-2.6464844-4.1083984-3.46875-6.9023438-2.1484375-.1025391.0488281-.2060547.0957031-.3212891.1474609-.3730469-1.8833008-.6679688-3.6738281.2978516-5.5102539,3.324707-6.3208008,7.3823242-10.6450195,12.769043-13.6088867,7.125-3.9204102,14.784668-6.8808594,22.1923828-9.7436523,1.3378906-.5170898,2.6757812-1.0341797,4.012207-1.5571289,3.5927734-1.40625,7.4145508-1.9189453,11.0097656-2.2636719,6.8999023-.6621094,13.5991211-1.9916992,19.9106445-3.9521484,5.1796875-1.609375,10.6030273-2.5678711,15.8481445-3.4951172,1.6933594-.2993164,3.3867188-.5986328,5.074707-.9189453,1.4194336-.2695312,2.8369141-.5488281,4.2548828-.828125,3.8901367-.7661133,7.9121094-1.5581055,11.8955078-2.1225586,2.8271484-.4003906,5.734375-.6083984,8.5454102-.8095703,1.7817383-.1274414,3.6245117-.2592773,5.4321289-.4384766,2.5239258-.2514648,5.2138672-.6186523,8.4648438-1.1567383,3.0288086-.5014648,6.0668945-1.5610352,9.5610352-3.3334961,1.894043-.9609375,3.9697266-1.8779297,6.7299805-2.9736328,1.0883789-.4321289,2.3168945-.7436523,3.5517578-.9008789,1.1904297-.1508789,2.1303711.0532227,2.7895508.6098633.6831055.5771484,1.0561523,1.5195312,1.1088867,2.8017578.0864258,2.0957031-.3217773,3.9018555-1.2128906,5.3676758-.9433594,1.5527344-2.0073242,3.0727539-3.0366211,4.5419922-.3613281.5166016-.7231445,1.0327148-1.0805664,1.5517578-.1943359.2822266-.4067383.5532227-.6191406.8242188Zm-114.2661133,192.152832c-.5444336,3.7490234-.4575195,7.8535156.2744141,12.9179688.1357422.9365234.2763672,1.8730469.4174805,2.8095703.7573242,5.0332031,1.5405273,10.2382812,1.4169922,15.4365234-.0146484.6054688.0229492,1.1318359.1157227,1.6083984.6479492,3.3242188-.2070312,6.4716797-1.0244141,8.8408203-.2182617.6328125-.4423828,1.2636719-.6669922,1.8945312-1.0688477,3.0058594-2.1743164,6.1152344-2.5893555,9.3964844-.128418,1.0166016-.4321289,2.0273438-.753418,3.0976562-.1342773.4482422-.2724609.9091797-.4038086,1.3876953-.1987305-.0341797-.4008789-.0625-.6040039-.0908203-.5844727-.0820312-1.1884766-.1669922-1.6914062-.4033203-2.0009766-.9423828-4.1601562-2.0585938-6.7958984-3.5107422-.237793-.1318359-.4121094-.4951172-.5805664-.8457031-.0463867-.0966797-.0917969-.1914062-.1381836-.28125-.3115234-.5996094-.5991211-1.2363281-.8774414-1.8515625-.5869141-1.2988281-1.1938477-2.6416016-2.0722656-3.7617188-2.3330078-2.9775391-3.7163086-6.0595703-4.3525391-9.6992188-1.4521484-8.3085938-3.4941406-15.3652344-6.2416992-21.5742188-.6865234-1.5507812-.5585938-2.4404297.5063477-3.5214844.90625-.921875,1.8012695-2.0068359,2.7353516-3.3183594.3164062-.4443359.5634766-1.4082031.2558594-1.828125-.1884766-.2578125-.4394531-.40625-.7250977-.4306641-.027832-.0019531-.0551758-.0029297-.0825195-.0029297-.5288086,0-1.0068359.4091797-1.1943359.5917969-.9179688.8955078-1.7895508,1.7978516-2.7124023,2.7519531-.2700195.2802734-.5415039.5605469-.8149414.8417969l-.1064453-.2705078c-.1914062-.4921875-.3916016-1.0048828-.6123047-1.5097656-.2680664-.6123047-.5341797-1.2246094-.800293-1.8378906-.8110352-1.8681641-1.6489258-3.8007812-2.5332031-5.6738281-1.5224609-3.2294922-1.9140625-6.3828125-1.1982422-9.640625.7270508-3.3056641.7607422-6.8554688.1040039-10.8544922-.0620117-.3759766.0478516-.9033203.2177734-1.0458984,3.9672852-3.3193359,7.8598633-5.3935547,11.8989258-6.3408203,1.3554688-.3183594,2.7988281-.4130859,4.1943359-.5048828.3779297-.0253906.7558594-.0498047,1.1318359-.0791016,1.0126953-.0722656,1.9194336.2714844,2.6298828,1.0087891.2641602.2753906.5307617.5488281.7978516.8222656.9960938,1.0205078,2.0258789,2.0761719,2.9140625,3.2041016,1.371582,1.7441406,2.9916992,2.7109375,5.0976562,3.0429688,3.3081055.5214844,4.1860352,1.4384766,4.6972656,4.9091797.7612305,5.1611328.8154297,9.84375.1660156,14.3154297Zm-27.1865234-28.3876953c-.0986328.1328125-.2548828.2636719-.4770508.4003906-1.9838867,1.2255859-3.9702148,2.4462891-6.0253906,3.7089844l-1.5131836.9296875c-.4921875-.6943359-.9238281-1.4521484-1.3789062-2.25-1.0273438-1.8017578-2.0869141-3.6611328-3.9829102-5.0166016.097168-.0273438.1914062-.0527344.2827148-.078125.4765625-.1318359.8828125-.2441406,1.2807617-.3798828,3.2587891-1.1123047,6.0825195-3.0654297,8.3935547-5.8037109,1.3515625-1.6005859,2.9765625-2.9277344,4.9677734-4.0566406,1.9760742-1.1201172,3.8950195-2.4208984,5.7041016-3.8652344,3.4956055-2.7939453,7.1015625-4.0878906,11.0195312-3.9902344,1.3325195.0380859,2.6381836-.0810547,4.0195312-.2080078.4267578-.0390625.8569336-.078125,1.2905273-.1132812-.1821289.2177734-.3637695.4375-.5449219.6572266-.6586914.796875-1.3393555,1.6210938-2.0810547,2.3544922-3.1611328,3.1220703-6.534668,6.4345703-9.9633789,9.5859375-1.1816406,1.0859375-2.6166992,1.9199219-3.9858398,2.6806641-2.6484375,1.4736328-5.1772461,2.9990234-7.0058594,5.4443359Zm4.1494141-18.0244141c-.8637695.6611328-1.8325195,1.2285156-2.7695312,1.7763672-.8608398.5039062-1.7514648,1.0253906-2.5708008,1.6240234-1.1738281.8583984-2.2597656,1.8642578-3.3105469,2.8378906-.331543.3076172-.6635742.6142578-.9980469.9169922-.5507812.4990234-1.0898438,1.0126953-1.628418,1.5263672-.8964844.8554688-1.8237305,1.7392578-2.7924805,2.5332031-1.440918,1.1787109-3.1962891,1.59375-5.3891602,1.8554688-1.921875.2285156-3.671875-.1757812-5.1313477-.6005859-6.8735352-2.0039062-13.012207-1.6806641-18.7680664.9892578-.1391602.0644531-.2866211.1113281-.4257812.1552734l-.015625.0048828c-2.046875-2.8642578-5.0458984-4.2021484-7.4433594-5.0488281-6.6152344-2.3388672-11.6547852-4.9306641-15.859375-8.1582031-1.9995117-1.5351562-3.8857422-3.296875-5.7099609-5.0009766-.5009766-.4677734-1.0019531-.9355469-1.5053711-1.3994141-.590332-.5449219-1.1230469-1.2314453-1.5405273-1.9853516-2.4243164-4.3798828-4.847168-8.8564453-7.190918-13.1845703l-.4194336-.7753906c-.0654297-.1210938-.0957031-.3222656-.0800781-.5361328.0415039-.5820312-.2983398-1.2695312-.8867188-1.7929688-.5219727-.4638672-1.1015625-.6777344-1.5981445-.5810547-.8725586.1660156-1.3237305.8154297-1.206543,1.7363281.0620117.4902344.2290039,1.0097656.4707031,1.4619141.7988281,1.4990234,1.5864258,3.0410156,2.3481445,4.5322266,1.8334961,3.5888672,3.7294922,7.2998047,5.9414062,10.734375,3.7416992,5.8076172,8.6386719,10.1552734,14.5546875,12.9228516,2.5053711,1.171875,5.0751953,2.3115234,7.5610352,3.4140625,1.3994141.6201172,2.7993164,1.2412109,4.1953125,1.8701172,1.5463867.6972656,3.440918,1.7714844,4.4960938,3.9394531-.0317383.0224609-.0625.0429688-.09375.0615234-6.1323242,3.6611328-11.1704102,8.7441406-16.0424805,13.6591797-.5268555.5322266-1.0537109,1.0634766-1.5820312,1.5927734-3.4433594,3.4541016-6.4536133,7.6835938-8.9462891,12.5712891-2.2426758,4.3984375-3.0019531,9.4267578-2.2558594,14.9453125.1967773,1.4570312.887207,2.7568359,1.9975586,3.7597656.793457.7167969,1.5615234.8369141,2.2841797.3613281.9951172-.6572266.4858398-1.6611328.2680664-2.0898438-1.5019531-2.9580078-1.2109375-6.0244141-.6723633-8.8984375.5605469-2.9902344,1.706543-5.8505859,3.5043945-8.7470703,3.0380859-4.8945312,7.0234375-9.6611328,12.5424805-15.0009766,3.315918-3.2080078,6.7446289-6.5244141,10.8081055-8.9853516,7.6479492-4.6308594,15.7490234-4.7636719,24.7641602-.4052734.6425781.3105469,1.3066406.8603516,1.8510742,1.5439453,1.3686523,1.7197266,2.7841797,3.4990234,3.9428711,5.3847656.5078125.8271484.6625977,1.9238281.8125,2.984375l.027832.1962891c.4868164,3.4013672.487793,6.7958984.0019531,10.0888672-.543457,3.6855469.6738281,7.0976562,1.6362305,9.3447266.9477539,2.2109375,1.9448242,4.4443359,2.9086914,6.6035156,1.2573242,2.8183594,2.5581055,5.7314453,3.7626953,8.6259766,2.6733398,6.4257812,4.2382812,11.5146484,5.0732422,16.5019531.2929688,1.7490234.6635742,3.5126953,1.0219727,5.21875l.3779297,1.8251953c.121582.6240234.2475586,1.2705078.5185547,1.8525391.8496094,1.8251953,1.7246094,3.6386719,2.5996094,5.4521484.7041016,1.4599609,1.4086914,2.9199219,2.0996094,4.3857422,1.0820312,2.296875,3.0039062,3.6054688,5.2197266,4.9609375,3.0869141,1.8876953,6.4604492,3.0810547,10.3134766,3.6494141,2.3994141.3535156,4.8188477.9521484,7.0761719,1.5458984.9604492.2519531,1.9345703.7089844,2.8178711,1.3203125,2.3237305,1.6044922,5.0205078,2.5761719,8.2436523,2.9677734,1.5483398.1884766,3.081543.7285156,4.6713867,1.6474609l-3.0541992.9726562.0532227.9013672,3.7509766.8046875c-.4077148.5058594-.671875,1.15625-.1835938,1.984375-.0214844.0517578-.0732422.1347656-.1552734.2470703-.1367188-.1210938-.2675781-.2441406-.3945312-.3632812-.4179688-.3925781-.8129883-.7626953-1.2963867-.9628906-.9140625-.3779297-1.9301758-.4775391-2.7128906-.5224609-.3447266-.0234375-.6650391.1748047-.9726562.3623047-.1201172.0732422-.2397461.1474609-.3588867.2041016l-.2373047.1132812.1245117.2314453c.0629883.1162109.1162109.2480469.1699219.3808594.1396484.34375.2841797.6992188.5878906.8730469.5859375.3349609,1.2299805.5683594,1.8530273.7939453.2177734.0791016.4355469.1582031.6503906.2412109l.0131836.0039062-.2910156.0644531c-.9375.2060547-1.90625.4189453-2.8383789.5839844-.0498047-.0126953-.1757812-.125-.2514648-.1923828-.0849609-.0761719-.1708984-.1513672-.2529297-.2070312-.3359375-.2275391-.6708984-.4570312-1.0058594-.6865234-.8583984-.5888672-1.7456055-1.1962891-2.6420898-1.7607422-.3710938-.2333984-.7998047-.2958984-1.1474609-.1699219-.2954102.1083984-.5151367.3466797-.6181641.6728516-.1503906.4775391.0791016,1.28125.4555664,1.5927734.8920898.7392578,1.8320312,1.4130859,2.8266602,2.1259766.2353516.1689453.4741211.3398438.715332.5136719l-.2944336.0761719c-.597168.1542969-1.1787109.3046875-1.7587891.4609375-1.4414062.3886719-1.8422852.8808594-1.8798828,2.4296875l-.6318359.078125c-.6362305.0800781-1.2827148.1611328-1.9316406.2197266-.2773438.0253906-.5712891.0009766-.8823242-.0253906-.8847656-.0712891-1.8813477-.1542969-2.5302734,1.0087891-.0537109.0097656-.1860352.0195312-.4770508-.0068359-3.1708984-.2783203-6.5356445-.7158203-9.659668-2.0185547-2.7626953-1.1533203-5.7265625-1.5703125-8.5927734-1.9746094l-.9907227-.140625c-2.9267578-.4228516-5.1289062-1.2392578-6.9301758-2.5693359-1.8144531-1.3408203-2.7836914-2.9130859-2.9624023-4.8066406-.1655273-1.7480469-.1967773-3.4296875-.09375-4.9980469.2431641-3.6894531-.7734375-6.421875-3.152832-8.3896484-3.7182617-3.0742188-7.5625-6.2539062-11.4897461-9.1914062-5.6611328-4.2353516-10.1044922-8.7578125-13.5844727-13.8261719-.8168945-1.1904297-1.484375-2.6591797-1.9291992-4.2480469-2.3540039-8.4160156-4.8383789-18.2333984-4.5083008-28.2509766.0014648-.0537109.0068359-.109375.0117188-.1669922.0200195-.234375.0429688-.5009766-.0996094-.7011719l-.1328125-.1923828c-.293457-.4306641-.6264648-.9179688-1.0737305-.9902344-.0390625-.0058594-.0800781-.0087891-.121582-.0087891-.515625,0-1.2006836.4570312-1.409668.8710938-.3530273.703125-.4814453,1.5507812-.5605469,2.2871094-.5766602,5.3710938.2802734,10.7050781,1.2915039,15.6689453.2885742,1.4160156.5913086,2.8291016.9125977,4.3330078l.4213867,1.9746094c-.3408203.0244141-.6782227.0556641-1.0126953.0859375-.9365234.0849609-1.8222656.1660156-2.6943359.0908203-1.762207-.1533203-3.5458984-.453125-5.2709961-.7421875l-1.0927734-.1826172c-.2167969-.0351562-.4335938-.1376953-.6630859-.2470703-.1889648-.0888672-.3842773-.1816406-.5942383-.2431641-.2475586-.0722656-.640625-.1044922-.9335938.0439453-.6381836.3261719-1.0390625.8730469-1.0991211,1.5009766-.0610352.6386719.2368164,1.265625.8173828,1.71875l.0498047.0390625c.1293945.1025391.2758789.21875.4536133.2832031,3.1494141,1.1328125,6.5551758,2.0136719,10.1118164.8193359.6533203-.2197266,1.2333984-.5996094,1.8476562-1.0029297.1948242-.1279297.3935547-.2578125.5981445-.3847656l.2045898.6982422c.2211914.7539062.4550781,1.5507812.6845703,2.3486328.0883789.3066406.2109375.6210938.3291016.9267578.2607422.6699219.5302734,1.3623047.3969727,1.8935547-.1303711.5166016-.7314453.9814453-1.3134766,1.4316406-.2363281.1826172-.4711914.3642578-.6787109.5498047l-.3188477.2871094c-1.0615234.9521484-2.1582031,1.9365234-3.2832031,2.8427734-1.6289062,1.3134766-3.456543,2.2392578-5.4335938,2.7519531-.9140625.2382812-1.8222656.4951172-2.730957.7529297-2.7001953.7646484-5.4921875,1.5566406-8.3671875,1.7773438-1.0498047.0800781-2.0810547.4316406-3.078125.7724609-.3286133.1113281-.6567383.2236328-.984375.3261719-2.6464844.8232422-4.9814453.9189453-7.1367188.2919922-4.5605469-1.3242188-7.6459961-3.0097656-10.0053711-5.4658203-2.9941406-3.1181641-5.9453125-6.3789062-8.7993164-9.5332031l-1.7617188-1.9453125c-.4682617-.5166016-.8833008-1.1083984-1.2841797-1.6816406-.1879883-.2675781-.3754883-.5361328-.5693359-.7978516-1.4560547-1.9707031-2.2705078-3.953125-2.4907227-6.0595703-.1879883-1.7988281-1.0219727-3.1689453-2.7026367-4.4414062-1.4692383-1.1123047-2.6904297-2.6621094-3.590332-3.8886719-1.3647461-1.8583984-2.5932617-3.7998047-3.6508789-5.7695312-1.019043-1.8984375-1.7255859-3.5996094-2.1591797-5.2021484-2.0317383-7.5078125-3.3330078-15.0537109-4.7050781-23.4306641-.2490234-1.5214844-.6088867-3.0458984-.9570312-4.5195312-.2319336-.9824219-.4716797-1.9980469-.6757812-3.0009766-.0498047-.2441406-.012207-.5205078.027832-.8115234.0390625-.2871094.0795898-.5830078.0410156-.8798828-.4448242-3.390625.0703125-6.8388672,1.6694336-11.1796875,1.0991211-2.9824219,2.1660156-6.03125,3.1972656-8.9794922l.8017578-2.2890625c1.0166016-2.8964844,2.5893555-5.4394531,3.9936523-7.5449219,1.5991211-2.3984375,3.109375-4.9111328,4.5693359-7.3408203.5683594-.9453125,1.1362305-1.890625,1.7104492-2.8320312.2026367-.3320312.3891602-.6748047.5751953-1.0175781.2553711-.4707031.5200195-.9570312.8222656-1.3994141,1.9306641-2.8251953,3.1445312-6.0439453,3.7104492-9.8417969.0610352-.4101562.2661133-.8691406.5634766-1.2597656,1.7211914-2.2695312,4.1083984-3.7138672,7.512207-4.546875,7.1782227-1.7578125,13.7612305-.4404297,20.1230469,4.0195312.2124023.1484375.4658203.3447266.5375977.5419922,1.0478516,2.8632812,3.0649414,4.9619141,5.1176758,6.7929688-.8564453,1.1650391-.4960938,2.3886719-.1762695,3.4736328.6083984,2.0654297,1.0722656,3.8984375,1.418457,5.6044922.4370117,2.1552734,1.1674805,2.8925781,3.2578125,3.2841797,4.0429688.7558594,7.4702148,2.7978516,9.9106445,5.9042969.8530273,1.0859375,1.3408203,2.5166016,1.8129883,3.8994141.1850586.5429688.3696289,1.0839844.5742188,1.6025391,0,.0019531.0244141.1582031-.3349609.6494141-1.6030273,2.1904297-2.0751953,4.6152344-1.4023438,7.2060547.1831055.7070312.6015625,1.3818359,1.0922852,1.7607422.4458008.3427734,1.3046875.1816406,1.7416992-.0009766.1279297-.0537109.2265625-.1767578.3012695-.3779297.1035156-.2753906.1811523-.8027344.0302734-1.1113281-1.0942383-2.2324219-.8251953-4.3613281.7998047-6.3261719,2.465332-2.9804688,5.7597656-4.2265625,9.7939453-3.7089844,2.8530273.3662109,5.03125.5546875,7.0625.6103516,2.453125.0537109,4.7817383-.8457031,6.8232422-1.6513672,2.2368164-.8837891,4.5493164-1.7978516,6.9057617-2.4628906,2.9072266-.8193359,5.9472656-.5839844,8.2705078-.2861328,1.9506836.2470703,2.3032227-.1367188,2.9511719-1.9003906.3515625-.9580078,1.0048828-1.8515625,1.7050781-2.3330078,1.2832031-.8818359,2.7758789-1.671875,4.6977539-2.4882812l.2265625-.0966797c1.1757812-.4970703,2.2856445-.9667969,3.184082-1.984375,1.4785156-1.6748047,3.0703125-3.3164062,4.4750977-4.765625,1.7871094-1.8427734,3.9716797-2.5820312,6.4956055-2.1962891,1.0151367.15625,1.5102539.4970703,1.7094727,1.1757812.3383789,1.1542969.2265625,2.0185547-.3515625,2.7207031-1.0844727,1.3154297-2.3740234,2.3056641-3.8330078,2.9404297l-.1293945.0566406c-.6430664.2792969-1.3081055.5683594-1.8393555,1.0253906-.2910156.2509766-.4091797.6474609-.5234375,1.03125-.0454102.1513672-.090332.3027344-.1464844.4404297l-.1040039.2558594.2641602.078125c.137207.0410156.2783203.1005859.4194336.1601562.3554688.1484375.7226562.3027344,1.081543.2246094,2.3696289-.5097656,4.4438477-1.765625,6.1645508-3.7353516.5742188-.6582031,3.1040039-1.3125,3.9233398-1.0107422.3901367.1416016.7211914.6318359.8642578,1.2792969.1767578.7998047.0180664,1.6123047-.394043,2.0244141-.5180664.5166016-1.0986328.9970703-1.6606445,1.4609375-.4360352.3603516-.8867188.7333984-1.3110352,1.125-.7255859.6689453-1.3818359,1.4169922-1.9282227,2.0605469-.1928711.2275391-.3168945.7861328-.1064453,1.0439453.2104492.2597656.7172852.3447266,1.012207.2470703l.2568359-.0849609c.5961914-.1953125,1.2124023-.3974609,1.7055664-.7802734,1.5-1.1640625,2.6474609-2.1669922,3.6113281-3.1542969.3149414-.3222656.8046875-.6455078,1.3476562-.3515625.1894531.1025391.4199219.6982422.3442383,1.0009766-.1489258.5986328-.4692383,1.1835938-.7792969,1.7490234l-.1806641.3320312c-.5908203,1.1015625-1.2163086,2.2148438-1.8598633,3.3095703l-.1645508.2880859c-.2446289.4306641-.4980469.8769531-.8393555,1.1708984-.5131836.4414062-1.0244141.8847656-1.5356445,1.3291016-1.9882812,1.7275391-4.0449219,3.5136719-6.1884766,5.0986328-2.0522461,1.5166016-4.6635742,2.3115234-8.2167969,2.5019531-5.4628906.2939453-10.1357422,1.9814453-14.2851562,5.1582031Zm19.234375,148.4003906c-.0283203-.0761719-.0522461-.1582031-.0761719-.2402344-.0708008-.2402344-.1508789-.5126953-.3432617-.7011719-.2392578-.2333984-.7514648-.5996094-1.1606445-.4980469-.3793945.0957031-.8056641.6572266-.7993164,1.0537109.0131836.8261719.1616211,1.640625.3129883,2.4052734.3701172,1.8681641.5141602,3.5175781.0288086,5.3818359-.09375-.0996094-.1850586-.1953125-.2749023-.2900391-.3959961-.4160156-.7373047-.7753906-1.0253906-1.1767578-.4277344-.5966797-.8325195-1.2890625-1.2373047-2.1162109-.8183594-1.671875-1.9150391-2.9550781-3.3535156-3.9228516-.3388672-.2285156-.6723633-.5605469-.9648438-.9609375-2.762207-3.7832031-6.4697266-6.8691406-11.3339844-9.4335938-1.6547852-.8710938-3.046875-1.9951172-4.2558594-3.4365234-2.1240234-2.53125-4.4047852-5.6572266-5.21875-9.6484375-.5742188-2.8134766.1469727-4.2216797,2.659668-5.1972656.5097656-.1982422,1.0102539-.4199219,1.5126953-.6425781.1894531-.0839844.3793945-.1689453.5703125-.2519531,1.5908203,4.0488281,4.8515625,6.5195312,10.2509766,7.7705078,1.659668.3857422,3.3725586.6425781,5.0292969.890625.8208008.1230469,1.6420898.2460938,2.4594727.3837891.2197266.0380859.4355469.0957031.6513672.1523438.2192383.0585938.4384766.1162109.6611328.15625.5507812.0976562.8251953.3642578,1.0493164,1.0166016.5649414,1.6474609,1.2416992,3.40625,2.1308594,5.5351562.8378906,2.0068359,1.2075195,3.6171875,1.1977539,5.2216797-.0117188,1.9375.5952148,3.7421875,1.1821289,5.4863281.2543945.7578125.5175781,1.5400391.7241211,2.3183594.2363281.8896484.5117188,1.7822266.7783203,2.6455078.1274414.4130859.2548828.8251953.3789062,1.2402344l.0410156.1347656c.0551758.1796875.1108398.3603516.1479492.5439453.2724609,1.3388672-.0834961,2.2539062-1.1865234,2.9814453.2128906-2.3085938.2866211-4.5693359-.5366211-6.8017578Zm-143.4038086-142.4482422c-.043457-.5800781.0224609-1.1611328.0922852-1.7773438.0444336-.3935547.090332-.7988281.1049805-1.203125.0444336-1.2421875-.3671875-2.2353516-1.1586914-2.7949219-.4536133-.3212891-1.0004883-.4824219-1.6069336-.4824219-.5009766,0-1.0424805.1103516-1.6044922.3320312-1.3710938.5390625-2.8051758.9951172-4.1928711,1.4355469-.5932617.1884766-1.1870117.3779297-1.7783203.5732422-.0737305.0244141-.1665039.0322266-.2641602.0410156l-.0952148.0087891c-.9633789.1064453-1.4926758.0361328-1.7729492-.2236328-.2758789-.2568359-.3798828-.7685547-.3466797-1.7109375.0961914-2.7597656,1.0673828-5.1025391,2.887207-6.9658203l.9555664-.9736328c.8842773-.8974609,1.7978516-1.8271484,2.6748047-2.7626953.5117188-.5458984,1.0927734-1.1884766,1.5126953-1.9140625.5327148-.9189453.5883789-1.9091797.152832-2.7167969-.4384766-.8125-1.3056641-1.3134766-2.3789062-1.375-.5473633-.0292969-1.1010742.0068359-1.6357422.0419922-.4228516.0283203-.8588867.0634766-1.284668.0517578-3.8745117-.0517578-6.581543-1.5351562-8.2758789-4.5351562-.512207-.9072266-.6713867-1.7138672-.5166016-2.6171875.2978516-1.7412109-.3540039-2.4589844-1.7446289-3.2451172l-.5029297-.2832031c-1.7939453-1.0087891-3.6484375-2.0527344-5.2382812-3.3486328-2.4921875-2.0322266-2.8173828-5.1484375-.8286133-7.9384766.3544922-.4980469.6791992-1.0039062,1.0229492-1.5400391.1235352-.1933594.2485352-.3876953.3769531-.5859375.1069336.0419922.2172852.0878906.3305664.1337891.425293.1738281.9072266.3701172,1.4067383.4941406,1.4262695.3496094,2.6591797-.1904297,3.0688477-1.3515625.4018555-1.1386719-.2373047-2.4013672-1.5200195-3.0019531-.3227539-.1503906-.6713867-.2226562-1.0083008-.2929688-.2817383-.0585938-.5478516-.1132812-.7929688-.2099609-.2817383-.1113281-.5703125-.2158203-.8598633-.3193359-.8618164-.3105469-1.7529297-.6318359-2.4492188-1.1542969-.9448242-.7080078-1.5263672-1.6601562-1.6816406-2.7539062-.1660156-1.1669922.1791992-2.390625.9716797-3.4433594.253418-.3369141.5151367-.6679688.7768555-.9990234.4853516-.6142578.9873047-1.2490234,1.4296875-1.9140625.6098633-.9194336.8115234-1.7626953.5986328-2.5073242-.2177734-.7631836-.862793-1.3945312-1.9169922-1.8764648l-.6572266-.2978516c-1.0234375-.4628906-2.081543-.940918-3.0654297-1.4990234-2.1552734-1.2226562-2.9125977-2.8359375-2.4570312-5.2319336.3173828-1.6708984.8701172-3.3037109,1.3168945-4.5395508.6015625-1.6669922.309082-2.5302734-1.159668-3.4213867l-.7060547-.425293c-1.109375-.6660156-2.2558594-1.3544922-3.2949219-2.1381836-2.0126953-1.5175781-2.7099609-3.5776367-2.0712891-6.1220703.5014648-1.9990234,1.5219727-3.796875,3.0332031-5.3432617,1.0625-1.0878906,2.1538086-1.5366211,3.4150391-1.4174805.4038086.0375977.8413086.0239258,1.3046875-.0415039.9897461-.1401367,1.5546875-.6289062,1.6787109-1.453125.128418-.8520508-.2646484-1.5112305-1.137207-1.9052734-.5078125-.2299805-1.019043-.453125-1.5302734-.6762695-.8706055-.3793945-1.7709961-.7724609-2.637207-1.1933594-1.0517578-.5102539-2.0454102-1.0683594-2.953125-1.6586914-.3974609-.2587891-.7875977-.6591797-1.1586914-1.1894531-.8789062-1.2548828-1.0844727-2.625-.5634766-3.7587891.5253906-1.1435547,1.7119141-1.8867188,3.2548828-2.0390625.1425781-.0146484.2895508-.0112305.4355469-.0097656.2856445.0048828.5820312.0078125.8618164-.0917969.7392578-.262207,1.1533203-.5610352,1.2661133-.9125977.1625977-.5073242-.0654297-1.2363281-.3691406-1.6201172-.2915039-.3691406-.6401367-.6918945-.9775391-1.003418-.3828125-.3544922-.7446289-.6889648-1.0258789-1.0830078-1.1655273-1.6342773-1.5717773-2.5126953-1.4492188-3.1337891.1328125-.6708984.9321289-1.1723633,2.2553711-2.0029297l.0722656-.0454102c1.1484375-.7216797,2.2236328-.984375,3.3837891-.8222656.6630859.0927734,1.6391602-.3261719,1.9731445-.8422852.3354492-.5195312.0620117-1.5610352-.2739258-2.0493164-.7680664-1.1181641-.9492188-2.3364258-.496582-3.3413086.4418945-.9814453,1.4467773-1.637207,2.7563477-1.7988281,2.0981445-.2583008,4.2480469.1171875,6.7626953,1.1831055,3.6293945,1.5390625,6.8237305,3.0458984,9.1567383,5.909668.1665039.2045898.3930664.3896484.637207.5205078.5073242.2724609.8100586.1943359.9736328.0810547.1601562-.1098633.3359375-.3544922.2661133-.8950195-.0507812-.3896484-.1518555-.9570312-.4482422-1.3818359-.1181641-.168457-.234375-.3408203-.3510742-.5131836-.5141602-.7602539-1.0458984-1.5463867-1.7558594-2.1176758-4.1396484-3.3305664-8.3608398-5.269043-12.9052734-5.9257812-2.5869141-.3701172-4.8256836.3100586-6.6474609,2.0336914-1.8413086,1.7421875-2.2797852,3.7451172-1.340332,6.1230469-.4750977.2749023-.9487305.5380859-1.4174805.7978516-1.1938477.6621094-2.3212891,1.2875977-3.3793945,2.0556641-1.9868164,1.4418945-2.3857422,3.0341797-1.3339844,5.324707.3793945.8266602.8920898,1.605957,1.3881836,2.3588867.1767578.2685547.3540039.5380859.527832.8125-1.6000977.7211914-2.940918.6796875-4.1987305-.1308594-.6987305-.4492188-1.4262695-.8823242-2.1293945-1.3012695-1.4638672-.871582-2.9770508-1.7729492-4.2890625-2.8583984-5.1142578-4.2294922-11.2504883-6.6069336-19.3115234-7.4819336-5.0375977-.546875-10.3452148-1.4897461-16.2270508-2.8833008-5.5463867-1.3139648-10.4580078-4.4155273-14.5317383-7.2758789-2.565918-1.8017578-5.1303711-3.7011719-7.6103516-5.5375977l-1.8818359-1.3920898c-.1430664-.105957-.2700195-.2612305-.4042969-.4257812-.2026367-.2475586-.4116211-.5039062-.7124023-.6269531-.5244141-.2148438-1.2954102-.3618164-1.8837891-.1313477-.4423828.1728516-.6088867,1.2363281-.4472656,1.7094727s.5634766.9619141,1.1933594,1.4516602c.5424805.4228516,1.0820312.8510742,1.6210938,1.2792969,1.6928711,1.3447266,3.4438477,2.7353516,5.284668,3.9296875,2.8466797,1.847168,5.8388672,3.5683594,8.7329102,5.2324219l1.5532227.894043c4.7192383,2.7250977,9.8217773,3.8945312,16.03125,4.8125.6987305.1030273,1.3974609.2036133,2.0957031.3046875,4.6982422.6782227,9.5561523,1.3798828,14.1914062,2.796875,3.7075195,1.1328125,6.7768555,2.7099609,9.3833008,4.8212891,2.7124023,2.1967773,5.734375,4.3964844,9.46875,5.6572266-1.269043,2.2265625-1.1948242,4.5273438.2211914,6.84375,1.2333984,2.0170898,3.1264648,3.081543,5.4716797,4.1674805-2.5620117,1.2270508-4.4853516,3.2485352-5.8691406,6.1625977-.6914062,1.4550781-1.1342773,2.9511719-1.2807617,4.3276367-.3222656,3.0234375.9047852,5.6918945,3.5478516,7.7172852.9155273.7016602,1.9018555,1.3173828,2.8564453,1.9125977.3725586.2329102.7431641.4638672,1.1064453.6982422-.1259766.3969727-.2578125.7939453-.3901367,1.1914062-.331543,1.0004883-.675293,2.0351562-.9267578,3.0810547-.9355469,3.8955078.4082031,7.0126953,3.8852539,9.0151367.9916992.5708008,2.0185547,1.0336914,3.1054688,1.5234375.3974609.1791992.7993164.3603516,1.2036133.5488281l-.2011719.2636719c-.2954102.3876953-.5859375.7685547-.8813477,1.1455078-3.0830078,3.9306641-3.1972656,7.3242188-.3510742,11.2734375-.1181641.0117188-.2290039.0195312-.3408203.0117188-4.1328125-.2412109-7.8959961-2.0371094-11.2158203-3.6220703-.2480469-.1181641-.515625-.4199219-.5961914-.671875-.4365234-1.3613281-1.496582-1.8720703-2.5771484-2.2226562l-.628418-.203125c-2.0292969-.65625-4.1274414-1.3359375-6.1538086-2.0957031-4.105957-1.5390625-7.5063477-4.355957-10.7006836-8.8637695-1.4926758-2.105957-2.3569336-4.7553711-2.6425781-8.0996094-.234375-2.75-1.5253906-4.3500977-4.4550781-5.5229492-6.5292969-2.6142578-11.5410156-5.4135742-15.7714844-8.8100586-3.75-3.0102539-5.7490234-6.6977539-6.1123047-11.2744141-.0849609-1.074707.1552734-1.9492188.7563477-2.7524414.4897461-.6547852.684082-1.2939453.5776367-1.8999023-.1054688-.6000977-.5004883-1.1289062-1.1733398-1.5703125-.6894531-.4521484-1.4375-.8271484-2.1611328-1.1899414-.2631836-.1318359-.5263672-.2641602-.7871094-.3994141-4.7568359-2.4741211-8.8354492-6.1035156-12.4677734-11.0947266-1.1396484-1.5664062-1.578125-3.0878906-1.3789062-4.7890625.1938477-1.6547852-.3056641-2.4047852-1.9785156-2.9726562-.4277344-.1450195-.8579102-.2827148-1.2880859-.4208984-.4272461-.137207-.8549805-.2744141-1.2802734-.418457-4.1689453-1.4125977-7.4223633-4.3129883-9.9462891-8.8657227-.1264648-.2285156-.2402344-.4960938-.347168-.8173828-.1831055-.5517578-.1811523-.9736328.0058594-1.2539062.1845703-.2763672.5634766-.4375,1.1269531-.4790039.1484375-.0112305.3022461-.0126953.4560547-.0141602.6855469-.0078125,1.5385742-.0166016,1.9399414-.9467773.4438477-1.0283203-.1313477-1.8012695-.6391602-2.4833984-.0722656-.0966797-.144043-.1928711-.2124023-.2895508-.5097656-.7182617-1.0288086-1.4301758-1.5478516-2.1425781-1.112793-1.5263672-2.2631836-3.1049805-3.2915039-4.71875-1.0341797-1.6230469-1.4863281-3.5888672-1.3432617-5.8422852.0756836-1.1914062.4511719-2.0751953,1.1157227-2.6269531.644043-.5356445,1.5375977-.737793,2.6606445-.6015625,1.206543.1469727,2.472168.4609375,3.675293.9145508,1.9418945.7314453,3.9492188,1.4887695,5.7670898,2.4995117,4.7373047,2.6357422,10.1396484,4.1538086,17.0019531,4.7783203,1.7114258.1552734,3.4550781.2734375,5.1416016.387207,2.8408203.1914062,5.7783203.3901367,8.6381836.7744141,4.6123047.6206055,9.2729492,1.4975586,13.7797852,2.3461914l3.9614258.7412109c5.4838867,1.0219727,11.1547852,2.078125,16.6884766,3.3051758,2.3579102.5229492,4.7338867,1.1694336,7.0307617,1.7944336,2.4736328.6728516,5.0317383,1.3686523,7.5805664,1.9145508,3.0917969.6621094,6.2949219,1.0322266,9.3925781,1.3901367.6176758.0717773,1.2353516.1430664,1.8515625.2163086,4.9282227.5883789,9.3676758,1.7416992,13.5722656,3.5263672,2.53125,1.074707,5.1171875,2.1357422,7.6181641,3.1616211,3.109375,1.2758789,6.3251953,2.5952148,9.4614258,3.9511719,1.4584961.6303711,2.8764648,1.4394531,4.2480469,2.2216797.6538086.3730469,1.3076172.7460938,1.96875,1.1025391,9.8574219,5.3173828,15.2055664,15.9487305,13.625,27.0844727-.9941406,7.0078125-2.1025391,12.8261719-4.2807617,18.4448242-2.1049805,5.4287109-1.9511719,11.1318359.4829102,17.9467773,1.1918945,3.3378906,2.9506836,7.6416016,5.9975586,11.3232422.3544922.4287109.3881836.7373047.1425781,1.3193359-.5024414,1.1923828-.9990234,2.4775391-1.2250977,3.7949219-.5195312,3.0273438-1.7124023,5.9462891-3.8676758,9.4648438-.4433594.7246094-.8828125,1.4501953-1.3222656,2.1767578-2.0834961,3.4443359-4.2387695,7.0068359-6.8007812,10.2216797-2.0073242,2.5185547-3.0644531,5.640625-3.9970703,8.3945312-.5302734,1.5654297-1.1455078,3.1337891-1.7407227,4.6513672-.2666016.6796875-.5332031,1.359375-.793457,2.0410156-1.5839844,4.1474609-2.5166016,7.9189453-2.8520508,11.53125-.0522461.5644531-.2255859.8193359-.7724609,1.1376953-1.6342773.9472656-3.015625,1.1875-4.4760742.7792969-1.1191406-.3125-1.734375-.8271484-1.9365234-1.6181641-.331543-1.2988281-.5517578-2.6523438-.6538086-4.0234375Zm96.9853516-34.3818359c.5107422-.2109375.9907227-.4072266,1.4179688-.3564453,1.8525391.2294922,3.2856445.890625,4.3808594,2.0205078,2.0307617,2.0957031,4.0717773,4.4453125,5.246582,7.4179688.2197266.5576172.5375977,1.0703125.8740234,1.6132812.1132812.1835938.2294922.3710938.3457031.5673828-.3901367.1660156-.7783203.3369141-1.1655273.5078125-2.6166992,1.1533203-5.0917969,2.2451172-8.0307617,1.8554688l-.3984375-.0527344c-3.2866211-.4335938-6.684082-.8828125-10.0180664.1826172-.9082031.2910156-1.7729492.6552734-2.6879883,1.0410156-.3266602.1376953-.6567383.2773438-.9926758.4140625-.9726562-3.5390625-3.4755859-6.0966797-6.0458984-8.3349609-2.4433594-2.1269531-5.0097656-3.4785156-7.8461914-4.1298828-.2080078-.0488281-.4790039-.2626953-.5058594-.3730469-.3408203-1.4003906-.6425781-2.8027344-.934082-4.1591797l-.1279297-.5927734c.1938477.1386719.3896484.2822266.5883789.4277344.8798828.6435547,1.7895508,1.3095703,2.8081055,1.8017578,6.8286133,3.3027344,12.6274414,3.7548828,18.2480469,1.4267578.6064453-.2509766,1.2617188-.3710938,1.9550781-.4970703.3374023-.0615234.6743164-.1230469,1.0048828-.2001953.3740234-.0859375.7470703-.1806641,1.1147461-.2919922.2543945-.0761719.5117188-.1816406.769043-.2880859Zm33.8168945,2.4960938c-.6108398-.7070312-1.4663086-1.1875-2.2939453-1.6513672-.5141602-.2890625-1.0458984-.5869141-1.5058594-.9335938-3.0878906-2.3291016-6.2041016-4.7294922-9.2177734-7.0498047l-3.0795898-2.3701172c-.3139648-.2412109-.6230469-.4882812-.9277344-.7314453l-.2006836-.1601562,2.1245117-2.0214844c7.2358398,4.9335938,13.2539062,9.9384766,18.3828125,15.2900391-.0039062.0019531-.0078125.0039062-.0117188.0068359-1.2617188.7480469-2.1557617.9082031-3.2700195-.3789062Zm.1479492-49.3364258l-.1279297.2104492c-.2724609.4462891-.5546875.9082031-.6782227,1.4199219-.1884766.7841797.03125,1.234375.2490234,1.4741211.2246094.2470703.6704102.515625,1.5126953.3984375.7924805-.112793,1.2719727-.0620117,1.550293.1645508.2797852.2275391.4287109.6899414.4819336,1.5.1313477,1.9833984-.4331055,3.5571289-1.7260742,4.8115234-.9267578.8984375-2.1347656,2.09375-3.2636719,3.3759766-.5864258.6655273-.7993164,1.2285156-.6508789,1.7207031.1508789.5024414.6601562.8647461,1.5561523,1.1069336.2304688.0625.5395508.4272461.5405273.5561523.0063477.7392578-.1040039,1.4428711-.3178711,2.0356445-.2299805.6352539-.5410156,1.2612305-.8417969,1.8657227-.1552734.3125-.3105469.6259766-.4570312.9423828-.4941406,1.0693359-.8291016,2.2421875.0625,3.5693359.331543.4931641.3115234,1.0449219.2363281,1.421875-.1450195.7255859-.6293945,1.4365234-1.2631836,1.8554688-1.2861328.8505859-2.8613281,1.1337891-4.3212891.78125-1.4360352-.3476562-2.6298828-1.2578125-3.3623047-2.5615234-.4750977-.8476562-.7358398-1.8535156-.987793-2.8261719l-.0581055-.2246094c-.1503906-.578125-.309082-.9697266-.6357422-1.1435547-.1054688-.0556641-.2172852-.0820312-.3320312-.0878906.1186523-.1650391.237793-.3291016.3574219-.4931641.5556641-.7626953,1.1303711-1.5517578,1.5917969-2.3945312.7832031-1.4301758,1.4013672-2.8793945,2.1279297-4.6254883.1606445-.3862305.1943359-.8969727.1035156-1.5625-.1259766-.9243164-.6601562-1.5092773-1.5039062-1.6474609-.8149414-.1362305-1.4550781.2231445-1.8549805,1.0307617-.0024414.0043945-.0048828.0092773-.0068359.0136719-.7993164-2.1206055-.2895508-5.2416992,1.2226562-7.09375,1.1899414-1.4584961,2.796875-2.6245117,4.9116211-3.5644531,1.6245117-.7216797,3.2290039-1.402832,4.9282227-2.1240234.472168-.2001953.9467773-.4018555,1.4243164-.6049805-.1630859.2265625-.3232422.4589844-.4672852.6992188Zm22.875,66.3276367l2.7563477-3.1132812c3.5981445,2.0224609,25.5874023,20.0351562,28.0717773,22.9882812l-1.0917969,1.0576172c-6.2587891-3.4892578-12.0043945-7.8681641-17.5625-12.1035156-3.9189453-2.9863281-7.9692383-6.0732422-12.1738281-8.8291016Zm-47.8618164-40.1777344c-.4418945-.2548828-.9272461-.4326172-1.3964844-.6044922-.1030273-.0371094-.2060547-.0751953-.309082-.1142578,1.8862305-2.3984375,4.2382812-3.2958984,7.1777344-2.7382812.3959961.0751953.7299805.1269531,1.0727539.1328125.246582-.0039062.4643555-.0195312.659668-.0683594-1.6674805,1.6865234-3.5825195,3.1757812-5.5634766,4.640625-.1328125-.1074219-.2626953-.2148438-.3911133-.3212891-.4125977-.34375-.8027344-.6679688-1.25-.9267578Z" stroke-width="0"/>
      <path d="m200.6531839,89.9469034c-1.5258789.2270508-3.0107422-.1015625-4.0693359-.9082031-.4013672-.3061523-.7836914-.7924805-1.1362305-1.4453125-.050293-.09375-.0854492-.206543-.1210938-.3173828-.0859375-.2646484-.1835938-.5649414-.4526367-.6899414-.1630859-.074707-.3569336-.0693359-.5756836.0205078-.4936523.2021484-.8959961.9814453-.8999023,1.4912109-.0136719,1.7514648.9052734,3.1123047,2.7314453,4.0439453.96875.4936523,2.1323242.7275391,3.3344727.7275391,2.2729492-.0004883,4.6821289-.8354492,6.1586914-2.3261719.1416016-.1430664.5195312-.2412109.8129883-.2070312.3686523.0405273.7470703.1225586,1.1132812.2021484.5073242.1098633,1.0317383.2236328,1.5620117.237793,1.1884766.0351562,1.7119141-.3994141,1.9589844-.7666016.3789062-.5610352.3588867-1.3647461-.0581055-2.3242188l-.0878906-.1337891-.1411133-.0175781c-.0473633-.0058594-.144043-.0175781-.2553711.0527344-.0776367.046875-.2075195.125-.2412109.2749023-.2104492.9511719-.6972656.9541016-1.7578125.7329102-.7617188-.1586914-1.1796875-.5703125-1.6445312-1.2270508-2.6762695-3.7851562-2.7412109-6.2666016-.2573242-9.8334961,1.1430664-1.6416016,2.5424805-3.1552734,3.8959961-4.6191406.6196289-.6708984,1.2397461-1.3413086,1.8388672-2.0263672l1.1171875-1.2612305-.2631836-.1538086c-.9897461-.5791016-2.3129883-1.1171875-3.7592773-.1157227-3.277832,2.2661133-5.4941406,4.9321289-6.7753906,8.1499023-.8266602,2.0761719-1.0742188,3.9511719-.7563477,5.7319336.2875977,1.6142578,1.0673828,3.0976562,2.449707,4.652832-.8461914,1.0800781-2.1899414,1.824707-3.7211914,2.0546875Z" stroke-width="0"/>
      <path d="m196.0550394,69.6729776c-.6723633.0375977-1.3916016.253418-1.9726562.5913086l-.765625.4423828c-1.4150391.8149414-2.878418,1.6577148-4.1835938,2.6723633-2.9975586,2.3291016-4.6811523,5.5605469-4.8696289,9.3452148l-.0004883.0161133c.0561523,3.409668.9790039,5.8549805,2.9052734,7.6958008.637207.6098633,1.5175781,1.0014648,2.2949219,1.3046875.0766602.0297852.1557617.0424805.2363281.0424805.2397461,0,.4936523-.112793.7412109-.2226562.1225586-.0541992.2446289-.109375.3598633-.1450195l.3076172-.0961914-.1699219-.2739258c-.0595703-.097168-.1123047-.2041016-.1650391-.3110352-.1347656-.2714844-.2739258-.5522461-.5253906-.7275391-1.2900391-.8950195-2.1088867-2.15625-2.5039062-3.855957-.7246094-3.1176758.1904297-5.9545898,2.7978516-8.6733398,1.0219727-1.0654297,2.2045898-2.0229492,3.3486328-2.9482422.5053711-.409668,1.0112305-.8188477,1.5058594-1.2387695.1835938-.1552734.3745117-.3032227.565918-.4506836.3862305-.2988281.7861328-.6079102,1.1201172-.9804688.2944336-.3286133.5927734-1.0776367.3720703-1.4580078-.2373047-.4086914-.9013672-.7578125-1.3994141-.7285156Z" stroke-width="0"/>
      <path d="m224.7010355,132.5914346c.5063477.3310547,1.0786133.375,1.5688477.1191406.4829102-.2519531.7822266-.7421875.7998047-1.3105469.0292969-.9765625-.5214844-1.7617188-1.4038086-2.0009766-1.059082-.2871094-2.137207-.40625-3.1176758-.3369141-.8618164.0546875-1.4746094.0556641-2.1308594-.4599609-.5253906-.4140625-1.3388672-.6816406-2.0727539-.6816406-2.1674805-.0019531-3.5341797-.7333984-4.4306641-2.3710938-.1733398-.3154297-.543457-.46875-.9008789-.6162109-.1401367-.0576172-.2807617-.1152344-.4033203-.1826172l-.2797852-.1552734-.0825195.3095703c-.0410156.1552734-.1030273.3154297-.1640625.4755859-.1513672.3964844-.3081055.8066406-.2143555,1.1972656.5292969,2.2138672,1.5981445,3.5224609,3.1796875,3.8955078-.0424805.1767578-.0917969.3486328-.1401367.5175781-.1547852.5439453-.3012695,1.0585938-.1928711,1.5478516.2373047,1.0693359,1.2504883,2.0654297,2.7099609,2.6630859.7822266.3203125,1.5708008.4804688,2.2895508.4804688.7236328,0,1.3764648-.1630859,1.878418-.4882812.5913086-.3828125.9379883-.9814453.9277344-1.6005859-.0102539-.5917969-.340332-1.1259766-.9057617-1.4658203-.1083984-.0644531-.2211914-.1201172-.3369141-.1689453,1.2661133-.1435547,2.3398438-.0742188,3.4223633.6328125Zm-6.7905273-1.6611328l-.5981445-.1962891.0532227-.1484375.4428711.1933594c.3701172.1621094.7402344.3242188,1.112793.4804688-.3369141-.1083984-.6738281-.21875-1.0107422-.3291016Z" stroke-width="0"/>
      <path d="m232.7317972,58.4005166c-.9223633-.4516602-1.5234375.1669922-2.0058594.6630859l-.0693359.0712891c-.2939453.300293-.5668945.6376953-.8120117,1.003418-.2910156.434082-.5732422.8745117-.8554688,1.3144531-.4023438.6274414-.8183594,1.2758789-1.2529297,1.8930664-2.2368164,3.1787109-5.4423828,4.9428711-9.5273438,5.2446289-.0717773-.0078125-.1445312-.0200195-.2172852-.0317383-.2119141-.034668-.4316406-.0703125-.6552734-.0283203-.3383789.0639648-.7744141.2041016-.9316406.5073242-.1640625.3134766-.1152344.8525391.1025391,1.1313477.1264648.1625977.5830078.699707,1.1293945.7958984l.4418945.0800781c.7163086.1323242,1.4516602.2675781,2.1767578.2675781.2075195,0,.4140625-.0112305.6191406-.0366211,4.1162109-.5107422,7.496582-2.4741211,10.046875-5.8359375.9506836-1.2539062,1.5957031-2.7529297,2.2197266-4.2026367l.2626953-.6083984c.3154297-.7231445.3286133-1.7407227-.671875-2.2285156Z" stroke-width="0"/>
      <path d="m218.3226175,81.027958c.1342773-.2612305.2729492-.53125.3549805-.8242188.0898438-.3193359-.0214844-.9633789-.3535156-1.1650391-.8530273-.5170898-1.6401367-.2626953-2.340332.7573242-1.0922852,1.5908203-1.6386719,3.4536133-1.6240234,5.5361328v.0019531c.0585938,3.953125,2.7089844,7.4633789,6.7524414,8.9433594,1.2553711.4594727,2.5957031.9384766,3.9614258,1.3017578.0825195.0219727.1660156.03125.2504883.03125.2670898,0,.5405273-.0952148.8066406-.1879883.1381836-.0483398.2763672-.097168.4101562-.1289062l.2949219-.0693359-.1240234-.2763672c-.0566406-.1264648-.1025391-.2700195-.1484375-.4130859-.1201172-.371582-.2436523-.7558594-.5488281-.9487305-.519043-.3291016-1.090332-.5737305-1.6430664-.8105469-.3344727-.1430664-.6694336-.2861328-.9936523-.4482422-3.1523438-1.5771484-6.6474609-4.6762695-5.3935547-10.480957.0585938-.2734375.1943359-.5380859.3383789-.8183594Z" stroke-width="0"/>
      <path d="m178.7254496,93.5704385c.4248047-.3383789.9013672-.6025391,1.4057617-.8823242.4692383-.2602539.9541016-.5292969,1.3901367-.8623047.4726562-.3608398.6860352-1.0820312.8271484-1.559082.0761719-.2578125-.1630859-.3833008-.6870117-.6586914-.1308594-.0683594-.2612305-.1367188-.3623047-.1967773l-.0732422-.0429688-.0844727.0102539c-3.3149414.4023438-5.9389648,2.3256836-6.847168,5.019043-1.4907227,4.4208984,1.1357422,9.8417969,5.5102539,11.3730469.3461914.1210938.7158203.1547852,1.0898438.1547852.2353516,0,.4726562-.0131836.706543-.0263672.1386719-.0078125.2768555-.015625.4125977-.0200195.1147461-.0039062.2285156-.0664062.3374023-.1865234.1352539-.1489258.2749023-.4018555.2617188-.605957-.0185547-.2900391-.3999023-.6132812-.6816406-.6523438-2.0493164-.2885742-3.5097656-1.4936523-4.7348633-3.9067383-1.2792969-2.519043-.6933594-5.1845703,1.5292969-6.9570312Z" stroke-width="0"/>
      <path d="m232.2044535,89.0245401c.3549805.2143555.7602539.3291016,1.0859375.4213867.1235352.0351562.2373047.0673828.3344727.1015625l.0473633.0166016.050293-.0029297c.9521484-.0546875,1.9448242-.2719727,2.0834961-1.4648438.1083984-.9350586-.375-1.6347656-1.3603516-1.9702148-.0751953-.0258789-.1557617-.0463867-.2363281-.065918-.1298828-.0322266-.2646484-.0654297-.3291016-.1220703-2.3500977-2.0805664-3.6616211-3.9921875-4.2543945-6.2036133-.1733398-.6459961-.4086914-1.5327148-1.5126953-1.3979492-1.1757812.1420898-1.2255859,1.2236328-1.246582,1.6855469l-.003418.0673828c-.0205078.4423828-.0419922.8999023.0561523,1.3413086.7504883,3.3779297,2.5283203,5.9331055,5.2851562,7.59375Z" stroke-width="0"/>
      <path d="m227.8709574,108.1734659c.0834961.0268555.1567383.0507812.2148438.0722656l.0834961.0151367h.0249023c.6113281,0,1.081543-.2226562,1.2919922-.6132812.1884766-.3500977.1391602-.7851562-.1352539-1.1933594-.3291016-.4907227-.8061523-.9570312-1.4584961-1.4262695-2.3613281-1.6962891-5.2646484-2.7397461-8.6293945-3.1015625-1.1010742-.1201172-2.2353516.1303711-3.3334961.3706055-.2973633.0649414-.59375.1298828-.8876953.1870117-.3061523.0595703-.5151367.331543-.7177734.5942383-.0751953.0976562-.1499023.1962891-.2285156.2768555l-.2548828.262207.3364258.1425781c.1098633.0463867.2207031.1083984.3320312.1699219.2856445.1577148.5849609.3251953.9003906.2949219,2.5717773-.2148438,5.1333008.3681641,8.0625,1.8442383l.9960938.5043945c.8427734.4277344,1.6855469.8549805,2.5356445,1.2680664.3061523.1484375.6303711.2543945.8671875.3320312Z" stroke-width="0"/>
      <path d="m210.2908793,80.6568643c-.1552734.2495117-.25.5249023-.3598633.84375-.0546875.159668-.1142578.3330078-.1889648.5239258l-.0595703.1518555.1157227.1157227c.0805664.0805664.1591797.1699219.2392578.2602539.2216797.2504883.4511719.5102539.7607422.6665039.0664062.0336914.1420898.0463867.2192383.0463867.1630859,0,.3339844-.0581055.440918-.1025391.1586914-.0664062.4355469-.2104492.5083008-.434082.5463867-1.6796875,1.8520508-2.8046875,3.1152344-3.8930664l.1586914-.1367188c.9233398-.7973633,1.9135742-1.5532227,2.8710938-2.284668.7446289-.5688477,1.5146484-1.1567383,2.2519531-1.7626953.2817383-.2319336.4228516-.5859375.559082-.9287109.0551758-.1391602.1103516-.2788086.175293-.4057617l.1186523-.2319336-.2368164-.1088867c-.1337891-.0615234-.2670898-.137207-.4003906-.2128906-.340332-.1923828-.6918945-.3911133-1.0766602-.3984375h-.0268555c-.4526367,0-.902832.2314453-1.3007812.4365234l-.2246094.1142578c-3.6147461,1.7851562-5.9003906,4.9150391-7.659668,7.7412109Z" stroke-width="0"/>
      <path d="m221.6292582,114.3931924l.0307617-.0048828c.2880859-.046875.578125-.0878906.8681641-.1279297.730957-.1005859,1.4863281-.2060547,2.2055664-.4208984.4360352-.1289062,1.1308594-.9160156.9985352-1.3701172-.1430664-.4941406-.7333984-.9199219-1.2548828-1.1230469-.4624023-.1826172-1.0449219-.0605469-1.4716797.0273438-2.4360352.5058594-4.5424805-.0556641-6.4379883-1.7109375l-.0639648-.0566406c-.1879883-.1679688-.4013672-.3579102-.6645508-.3950195l-.1030273-.0151367c-.5004883-.0732422-1.0688477-.1572266-1.3256836.1376953-.2988281.3457031-.4418945,1.1826172-.1791992,1.5654297.5854492.8544922,1.2158203,1.5263672,1.8745117,1.9951172,1.6274414,1.1611328,3.5688477,1.3291016,5.4462891,1.4921875l.0678711-.2451172-.0214844.2490234.0307617.0029297Z" stroke-width="0"/>
      <path d="m162.4822855,192.1939737c-.5942383.6611328-.972168,1.5351562-1.2348633,2.2216797-.1113281.2910156.0615234.6123047.2290039.9228516.0605469.1123047.1220703.2246094.1635742.3300781l.1035156.2617188.2475586-.1337891c.090332-.0478516.1835938-.0927734.2773438-.1376953.2265625-.1083984.4609375-.2207031.6645508-.3886719.1904297-.1591797.3583984-.34375.5205078-.5224609.2348633-.2578125.456543-.5019531.7197266-.6416016.3911133-.2080078.78125-.421875,1.1713867-.6357422,1.4331055-.7841797,2.9145508-1.5947266,4.4506836-2.1328125,4.1943359-1.4697266,8.6845703-1.6972656,13.0268555-1.9169922l1.0688477-.0546875c.4663086-.0283203.9848633.0439453,1.4208984-.1650391.3842773-.1835938.9848633-.640625,1.065918-1.1455078.0791016-.4902344-.1625977-1.1757812-.550293-1.5625-.4746094-.4755859-1.2363281-.6289062-1.5424805-.6728516-1.0634766-.1523438-2.1416016-.2597656-3.390625-.3847656-.5317383-.0537109-1.0976562-.1103516-1.7124023-.1757812l-.034668-.0029297-.0341797.0058594c-.5805664.0996094-1.2070312.1943359-1.8632812.2929688-1.5776367.2382812-3.3657227.5078125-5.1010742.9443359-3.8945312.9775391-7.1469727,2.8935547-9.6665039,5.6943359Z" stroke-width="0"/>
      <path d="m184.1180277,199.8433877c-.0854492-.0488281-.1679688-.0957031-.2348633-.1445312l-.090332-.0664062-.109375.0234375c-6.4663086,1.3662109-10.9545898,3.8808594-14.125,7.9140625-.4902344.6220703-.8583984,1.5273438-1.0102539,2.4833984-.0727539.4570312.1767578.921875.4174805,1.3720703.0722656.1337891.144043.2675781.2041016.3974609.0800781.171875.3300781.2529297.5444336.2529297.0883789,0,.1713867-.0136719.2333984-.0410156.2236328-.0957031.4375-.484375.340332-.7207031-.3291016-.7910156.125-1.2744141.6503906-1.8339844l.1572266-.1679688c1.6582031-1.8105469,3.7617188-3.2041016,6.4301758-4.2597656,1.9692383-.7792969,3.8779297-1.5615234,5.6728516-2.3242188.6347656-.2695312,1.0834961-.5664062,1.3730469-.90625.2910156-.3417969.3408203-.9980469.203125-1.3720703-.105957-.2890625-.3984375-.4580078-.6567383-.6064453Z" stroke-width="0"/>
      <path d="m91.7420511,46.8214151c-.2729492-.2167969-.5439453-.4370117-.8149414-.6567383-.8232422-.668457-1.6748047-1.359375-2.5727539-1.9580078-5.2451172-3.4990234-11.2128906-4.9975586-16.3588867-6.0019531-2.1508789-.4194336-4.3066406-.8178711-6.4624023-1.2158203-3.6176758-.6679688-7.3588867-1.3588867-11.0131836-2.1464844-7.9990234-1.7231445-15.3896484-4.4370117-21.9667969-8.065918-1.5698242-.8666992-3.2324219-1.6166992-4.8408203-2.3417969l-1.0839844-.4907227c-.5878906-.2680664-1.1904297-.4760742-1.8286133-.6962891-.2900391-.1000977-.5854492-.2021484-.8862305-.3125l-.1142578-.0419922-.1035156.0644531c-.065918.0410156-.1425781.0771484-.2182617.1137695-.2275391.109375-.4628906.222168-.5249023.456543-.0712891.269043-.1318359.8623047.1499023,1.1845703.4946289.5664062.9970703.984375,1.4941406,1.2421875.7158203.3720703,1.4272461.7558594,2.1391602,1.1401367,1.9814453,1.0688477,4.0302734,2.1738281,6.1542969,3.0039062,8.293457,3.2412109,17.4663086,5.7070312,28.0424805,7.5375977,7.1079102,1.2299805,13.4770508,2.7949219,19.4711914,4.7841797,3.3154297,1.1010742,6.3588867,3.0170898,9.8676758,6.2128906.3178711.2890625.746582.6796875,1.2246094.6796875.0253906,0,.0512695-.0014648.0771484-.003418.2763672-.0249023.5263672-.1801758.7431641-.4624023.3413086-.4443359.5185547-1.1567383-.5742188-2.0258789Z" stroke-width="0"/>
      <path d="m132.4627543,137.621708c-.784668,3.6943359.3017578,6.7597656,3.2304688,9.1162109.6254883.5019531,1.6157227,1.1728516,2.7802734,1.5107422.2319336.0673828.4628906.1005859.6884766.1005859.4775391,0,.9321289-.1484375,1.3232422-.4394531.6103516-.4541016.9648438-1.1835938.972168-2.0029297.0063477-.7021484-.0893555-1.4072266-.1816406-2.0898438l-.0561523-.4208984c-.027832-.2138672-.2124023-.4990234-.3530273-.6005859l-.1352539-.0820312-.1054688.0195312c-.2495117.0458984-.578125.2119141-.7094727.4677734-.2011719.3886719-.3666992.7890625-.5581055,1.2509766-.0332031.0810547-.0673828.1630859-.1025391.2470703-1.8286133-1.9931641-3.1694336-3.6240234-3.7871094-5.8017578-.1025391-.3603516.003418-.9248047.2983398-1.5898438.2641602-.5947266.3066406-1.0712891.1303711-1.4570312-.1679688-.3681641-.5205078-.6298828-1.0771484-.7998047-.2216797-.0673828-.4458008-.1289062-.6699219-.1904297-.4638672-.1279297-.9438477-.2597656-1.3828125-.4462891-1.0292969-.4355469-1.6625977-1.1015625-1.7827148-1.875-.1230469-.7910156.2939453-1.6425781,1.1738281-2.3984375.3959961-.3388672.578125-.7685547.5004883-1.1787109-.078125-.4111328-.409668-.7470703-.9091797-.9208984-.8637695-.2978516-1.6982422-.0986328-2.5522461.6103516-1.2905273,1.0703125-1.953125,2.6875-1.7714844,4.3261719.1806641,1.6328125,1.1328125,3.0019531,2.6113281,3.7558594.5541992.2822266,1.1396484.4707031,1.7602539.6699219.2182617.0703125.4404297.1416016.6650391.21875Z" stroke-width="0"/>
      <path d="m117.5037699,63.4068643c.4946289,4.5400391,2.9345703,8.0024414,7.9101562,11.2260742.3413086.2211914.7856445.2978516,1.0898438.3359375.1386719.0175781.2709961.0263672.3974609.0263672.7675781,0,1.3110352-.3212891,1.6176758-.9584961.4516602-.9360352-.121582-1.5849609-.5820312-2.1064453l-.5585938-.6308594c-1.5512695-1.7509766-3.1552734-3.5615234-4.6181641-5.4277344-.5498047-.7011719-1.0043945-1.6459961-1.3891602-2.8886719-.5097656-1.6459961-.0942383-3.2075195,1.2016602-4.515625.1855469-.1870117.5664062-.3310547.9067383-.3432617.5341797-.0195312.8789062-.1611328,1.0541992-.4321289.1679688-.2597656.1611328-.6025391-.0205078-1.0483398-.3208008-.7890625-.9941406-1.1591797-1.9492188-1.065918-1.3041992.125-2.4223633.7675781-3.3242188,1.9101562-1.1772461,1.4912109-1.7583008,3.1870117-1.7768555,5.1845703l.0063477.1665039c.0053711.1577148.012207.3642578.034668.5678711Z" stroke-width="0"/>
      <path d="m137.462266,108.9019815c-.125.9082031-.2895508,1.8291016-.4487305,2.71875-.0625.3505859-.1254883.7011719-.1860352,1.0517578l-.0039062.0234375.0004883.0224609c.0419922,3.1630859,1.0390625,6.1298828,2.9638672,8.8203125.4335938.6064453,1.125,1.1757812,1.8959961,1.5644531.121582.0605469.2807617.0888672.453125.0888672.4560547,0,1.0073242-.1943359,1.21875-.4804688.3535156-.4804688.2763672-1.2871094.1987305-1.7265625-.0439453-.2470703-.2636719-.4013672-.4580078-.5371094-.1201172-.0839844-.2563477-.1796875-.2924805-.2607422-1.2587891-2.8056641-2.4458008-5.8691406-2.6054688-9.2519531-.0390625-.8300781.1772461-1.3681641.7226562-1.7978516.4257812-.3349609.6201172-.8618164.5063477-1.3740234-.112793-.5092773-.5083008-.9018555-1.0322266-1.0249023-.6201172-.1455078-.8476562-.4804688-.8110352-1.1943359.1289062-2.5039062.6186523-5.0170898,3.3100586-6.4389648.25-.1323242.734375-.6396484.5957031-.9780273-.1230469-.3017578-.5224609-.7456055-.9238281-.7587891-.472168-.0087891-1.1601562.0234375-1.7192383.2939453-1.8081055.878418-3.3989258,2.7817383-4.0527344,4.8486328-.5864258,1.8540039-.4052734,3.7216797.5249023,5.4003906.1357422.2446289.1918945.6337891.1430664.9907227Z" stroke-width="0"/>
      <path d="m130.439805,123.4703409c.5517578,0,1.0043945-.2783203,1.2734375-.8066406.4072266-.7998047-.1157227-1.3261719-.5361328-1.7490234l-.1171875-.1181641c-.1850586-.1904297-.3725586-.3798828-.5605469-.5703125-.8930664-.9013672-1.8164062-1.8339844-2.4726562-2.8896484-.4448242-.7167969-.6201172-1.6474609-.7900391-2.546875-.050293-.2666016-.1000977-.53125-.1567383-.7910156-.0263672-.1210938.1357422-.4541016.3168945-.5927734.7626953-.5830078,1.1171875-1.109375,1.1166992-1.6552734-.0009766-.5605469-.3813477-1.1103516-1.1977539-1.7314453-.7758789-.5888672-1.4584961-1.2802734-1.9741211-1.9985352-.8496094-1.1845703-.7290039-3.5976562-.0039062-4.4033203.1499023-.1669922.6665039-.8725586.4492188-1.2783203-.1704102-.3164062-.5302734-.480957-.7685547-.5898438-.0532227-.0244141-.0986328-.0439453-.1274414-.0620117l-.0605469-.0375977h-.0717773c-1.4902344.0014648-2.1870117.7788086-2.7177734,1.6191406-1.7519531,2.7744141-1.0981445,6.1069336,1.6274414,8.293457.6743164.5400391.7783203.8691406.5292969,1.6748047-1.3901367,4.5009766.6103516,8.1748047,5.4882812,10.0800781.2646484.1025391.5180664.1533203.7539062.1533203Z" stroke-width="0"/>
      <path d="m142.4261332,133.0133096c-.8945312.1826172-1.5795898.7363281-1.8803711,1.5205078-.3393555.8847656-.1503906,1.9091797.5180664,2.8115234,1.1889648,1.6054688,2.9394531,2.6113281,5.3515625,3.0732422.1416016.0273438.2797852.0410156.4140625.0410156.7988281,0,1.4628906-.46875,1.7861328-1.2890625.4155273-1.0537109-.3041992-2.9990234-1.375-3.7167969l-.2177734-.1455078-.6635742,1.0966797-.3193359-.2480469c-.5576172-.4316406-1.1113281-.8603516-1.6523438-1.3056641-.0766602-.0625-.1533203-.21875-.1518555-.3076172.0112305-.6455078-.1328125-1.0839844-.440918-1.3398438-.3051758-.2539062-.7524414-.3173828-1.3686523-.1904297Z" stroke-width="0"/>
      <path d="m122.040391,92.3048135c.5170898-.1420898.8022461-.9731445,1.0332031-1.8500977.0170898-.0650024.015625-.1113281.0244141-.1680908.0651855.9163818.2946777,1.8758545.6943359,2.8873291.625,1.5834961,1.8007812,2.9770508,3.59375,4.2602539.5732422.4106445,1.1420898.6181641,1.6699219.6181641.3720703,0,.7236328-.1030273,1.0424805-.3100586.5717773-.3706055.8227539-1.2226562.9042969-1.5722656.0756836-.324707-.0449219-.6674805-.1616211-.9990234-.0488281-.1386719-.1000977-.2822266-.137207-.4282227l-.0688477-.2700195-1.0688477.3994141c-.1914062-.2841797-.3852539-.5634766-.5776367-.8408203-.5014648-.7226562-.9750977-1.4052734-1.3828125-2.1357422-1.2490234-2.2358398-.9614258-3.8686523.9921875-5.6362305.3623047-.3271484.5859375-1.0415039.4697266-1.4995117-.1074219-.4223633-.8388672-.7475586-1.2758789-.7773438-1.5234375-.1020508-2.7714844.628418-3.699707,2.1728516-.6894531,1.1486206-1.0146484,2.3673096-1.0026855,3.6717529-.0478516-.147522-.1320801-.234375-.1999512-.2816162-.1430664-.1005859-.3891602-.1625977-.7866211.0375977-.5336914-1.5966797-.6723633-3.1757812-.4238281-4.8173828.034668-.2285156.2182617-.4755859.3955078-.7143555.0493164-.0664062.0981445-.1323242.144043-.1972656.1655273-.2358398.3520508-.456543.5385742-.6777344.0844727-.1000977.1689453-.2006836.2519531-.3022461l.1826172-.2241211-.2485352-.1484375c-.1323242-.0791016-.2626953-.175293-.3930664-.2709961-.3212891-.2358398-.6538086-.4794922-1.0405273-.5229492-1.4487305-.1606445-3.0756836,1.2719727-3.4199219,3.0073242-.5107422,2.5732422.1171875,4.9487305,1.8149414,6.8706055.3950195.4467773,1.171875.7626953,1.7797852.7626953.1279297,0,.2480469-.0141602.355957-.043457Z" stroke-width="0"/>
      <path d="m110.7025004,89.465458c-.5805664-.6254883-.9013672-1.4287109-.9086914-2.2875977-.0073242-.9155273.3603516-1.7983398,1.0092773-2.4213867.2250977-.2163086.503418-.6953125.3852539-1.0366211-.1103516-.3203125-.6162109-.6547852-.9716797-.6123047-.5585938.0444336-1.1953125.1313477-1.6806641.4389648-1.4648438.9306641-2.0947266,2.2705078-1.8217773,3.8754883.3007812,1.7685547.8891602,3.684082,2.9785156,4.4824219.1694336.0649414.387207.0976562.6176758.0976562.4663086,0,.9858398-.1342773,1.2646484-.4111328.9599609-.9536133,1.1674805-2.2929688,1.3510742-3.4741211l.0244141-.1591797-.6015625-.3964844-1.6464844,1.9042969Z" stroke-width="0"/>
      <path d="m118.8143168,79.3570596l-.3950195-.1308594c-.7871094-.2607422-.8393555-.7900391-.6586914-1.7382812.1318359-.6923828.2866211-1.3803711.440918-2.0683594.168457-.7509766.3427734-1.5273438.4848633-2.2988281.0693359-.3764648.0859375-1.2294922-.3051758-1.4658203-.4130859-.25-1.1743164-.3452148-1.6479492-.0898438-.515625.2768555-.9882812.8691406-1.1230469,1.4086914-.3120117,1.2475586-.6040039,2.5859375-.628418,3.9199219-.0180664,1.0112305.4833984,2.0371094.7841797,2.559082.2861328.4960938.6772461.7924805,1.1318359.8579102.0644531.0092773.1289062.0141602.1943359.0141602.4638672,0,.9511719-.2324219,1.4208984-.6801758l.3012695-.2875977Z" stroke-width="0"/>
      <path d="m377.8362894,15.3931924c-.0634766-.0351562-.125-.0683594-.1723633-.1025391l-.1015625-.0727539-.1191406.0371094c-.2275391.0712891-.4467773.1323242-.6582031.190918-.4438477.1235352-.862793.2402344-1.2578125.4228516-.6635742.3071289-1.3300781.6083984-1.996582.9101562-1.9580078.8862305-3.9824219,1.8022461-5.9013672,2.8461914-8.7167969,4.7436523-18.2573242,7.0742188-25.5957031,8.5742188-2.4985352.5112305-5.0532227.9672852-7.5244141,1.4082031-2.7104492.4838867-5.5136719.9838867-8.2553711,1.559082-5.347168,1.121582-9.7333984,2.878418-13.4091797,5.3710938-1.0664062.7231445-2.0791016,1.5537109-3.0585938,2.3569336l-.4052734.3325195c-.2973633.2431641-.6616211.6347656-.7060547,1.1191406-.027832.3032227.0717773.5917969.2963867.8574219.2451172.2895508.5053711.3935547.7553711.3935547.4697266,0,.9038086-.3662109,1.1352539-.5615234.2543945-.2148438.503418-.4360352.7524414-.6572266.1669922-.1484375.3334961-.2963867.5019531-.4423828,3.168457-2.7509766,5.8476562-4.3476562,8.6870117-5.1777344l.190918-.0556641c4.8305664-1.4116211,9.8256836-2.8710938,14.8212891-3.8691406l1.4399414-.2871094c6.9199219-1.3793945,14.0756836-2.8056641,21.0053711-4.7451172,7.0742188-1.9799805,12.6806641-4.2416992,17.6435547-7.1171875.7753906-.4492188,1.4936523-.9663086,2.1352539-1.5366211.3574219-.3178711.309082-1.0385742.2856445-1.2519531-.0273438-.246582-.2724609-.3823242-.4887695-.5024414Z" stroke-width="0"/>
      <path d="m278.6907816,47.8736612c-.5859375-.0551758-1.1152344.0869141-1.4951172.4086914-.3305664.2792969-.5302734.6831055-.5615234,1.1357422-.0283203.4106445.0683594.7197266.2807617.8930664.1269531.1035156.355957.2050781.7216797.1035156.637207-.1757812.9375.1518555,1.3779297.703125,1.0424805,1.3037109,1.3344727,2.7026367.8676758,4.1572266-.2612305.8125-.6889648,1.9970703-1.3901367,2.8911133-1.4726562,1.878418-3.0874023,3.7006836-4.6489258,5.4628906l-.5273438.5957031c-.4614258.5209961-1.0351562,1.1689453-.5869141,2.1049805.3022461.6313477.8583984.9765625,1.5371094.9765625.1591797,0,.3251953-.0185547.4960938-.0576172.6166992-.1391602,1.3891602-.359375,1.8969727-.8251953l.6103516-.5595703c1.4897461-1.3623047,3.0302734-2.7714844,4.3320312-4.3452148,1.3227539-1.5981445,2.0566406-3.703125,2.1816406-6.2563477l.0004883-.0107422c.0112305-2.1357422-.5297852-3.8452148-1.7026367-5.3798828-.9130859-1.1933594-2.0537109-1.8657227-3.3901367-1.9980469Z" stroke-width="0"/>
      <path d="m278.4075785,94.6607705c-.6967773-.5737305-1.8139648-.6230469-2.1396484-.6245117h-.0043945c-.3867188,0-.6962891.1762695-.8510742.4833984-.1708984.340332-.112793.7709961.1518555,1.1240234,1.3115234,1.7475586,1.2641602,3.7382812-.1264648,5.3261719-.4145508.4726562-.9370117.8818359-1.4423828,1.2773438l-.4008789.3168945c-.59375.4760742-.9179688,1.1176758-.8676758,1.7158203.0415039.4980469.3330078.921875.8203125,1.1938477.5874023.3276367.7895508.7504883.6362305,1.3300781l-.0976562.3754883c-.2470703.9560547-.5024414,1.9443359-1.0224609,2.7050781-.4946289.7236328-1.1342773,1.3798828-1.7524414,2.0146484-.425293.4365234-.8647461.8876953-1.262207,1.3642578-.3320312.3984375-.6865234,1.2216797-.4584961,1.6679688.1958008.3837891.7143555.5283203,1.215332.6679688.1035156.0292969.2050781.0576172.2988281.0869141.0507812.0166016.1025391.0234375.1542969.0234375.1796875,0,.3608398-.0830078.5131836-.1533203l.0961914-.0429688c4.7807617-2.0595703,6.6293945-5.8447266,5.0717773-10.3852539-.1694336-.4951172-.1132812-.6713867.3178711-.9916992,1.9135742-1.4243164,2.8686523-3.1923828,2.9199219-5.40625l-.0004883-.0200195c-.1040039-1.8310547-.6826172-3.1557617-1.7695312-4.0493164Z" stroke-width="0"/>
      <path d="m281.1819925,74.3790323c-.5864258-.3183594-1.3608398-.3110352-2.1088867-.2553711-.3989258.0302734-.7983398.6411133-.862793,1.0219727-.0473633.2783203.1879883.5166016.4155273.7470703.0673828.0683594.1342773.1357422.1879883.2001953.09375.1132812.2094727.2226562.3251953.3310547.1845703.1728516.375.3515625.4023438.5053711.2944336,1.6674805.1630859,3.3276367-.3896484,4.9384766l-.9399414-.3017578-.0288086.5195312c-.0070801.121521-.0141602.2435303-.0192871.3650513.0437012-1.2689819-.2363281-2.526062-.8601074-3.7380981-.8535156-1.6601562-2.1337891-2.5014648-3.7646484-2.434082-.4169922.0175781-1.2729492.3491211-1.362793.8164062-.090332.4663086.1757812,1.2758789.6147461,1.5551758,1.4760742.9404297,1.9643555,2.3789062,1.375,4.050293-.3984375,1.1293945-.9990234,2.1728516-1.6347656,3.277832-.2412109.4189453-.4838867.840332-.7163086,1.269043-.5273438-.2275391-.8388672-.3271484-1.0932617-.2084961-.2568359.1201172-.340332.4130859-.4287109.7231445-.2207031.7734375-.0791016,1.5014648.3886719,1.9980469.3398438.3608398.8129883.5507812,1.3447266.5507812.1713867,0,.3496094-.0200195.5307617-.0600586.6982422-.15625,1.3422852-.472168,1.765625-.8666992l.1147461-.1069336c.8847656-.8232422,1.7998047-1.6743164,2.4243164-2.7026367.7836914-1.2922363,1.2145996-2.6085815,1.2973633-3.9138794-.0153809.7828369.0939941,1.5197144.859375,1.9285278.2685547.1435547.5219727.2036133.7597656.2036133.8115234-.0004883,1.4389648-.6982422,1.8510742-1.1567383.1259766-.1401367.2397461-.2919922.3378906-.4516602.9648438-1.5717773,1.4248047-3.3134766,1.3676758-5.1777344-.0498047-1.6118164-.8144531-2.8999023-2.152832-3.6274414Z" stroke-width="0"/>
      <path d="m269.9329691,120.2906534c-.4936523-.0683594-1.0893555.5859375-1.2705078.9550781-.1948242.3994141.3452148,1.0742188.5927734,1.2753906.7138672.5810547,1.078125,1.3642578.9990234,2.1494141-.0771484.7675781-.5766602,1.4472656-1.3701172,1.8623047-.3007812.1582031-.6123047.2939453-.9541016.4433594-.1699219.0742188-.3476562.1523438-.534668.2373047l-.2739258.1240234.1728516.2470703c.1206055.171875.2338867.3417969.3447266.5078125.2749023.4111328.5341797.7998047.8510742,1.1494141.1972656.2177734.5947266.4101562.9355469.4101562.0649414,0,.1274414-.0068359.1865234-.0224609,2.2177734-.5625,3.4882812-1.6123047,3.9990234-3.3037109.5922852-1.9589844.0922852-3.7998047-1.4086914-5.1826172-.4638672-.4277344-1.2060547-.7070312-2.2695312-.8525391Z" stroke-width="0"/>
      <path d="m288.4505472,81.1446573c.1386719.4868164.2827148.9897461.4570312,1.4775391.3344727.9370117.8989258,1.5463867,1.5893555,1.7158203.1357422.0336914.2739258.050293.4135742.050293.5722656,0,1.1723633-.2783203,1.7573242-.8193359,1.3388672-1.2392578,1.9941406-2.894043,1.8945312-4.7861328-.0927734-1.7626953-1.7172852-3.4194336-3.2993164-3.4052734-.2895508.0083008-.5463867.1484375-.7944336.2841797-.0976562.0532227-.1948242.1064453-.2929688.1489258l-.2416992.1049805.1176758.2358398c.0458984.0922852.0844727.1923828.1230469.2919922.0996094.2548828.2021484.5180664.4111328.7050781.5800781.5200195.9067383,1.3969727.8740234,2.3457031-.0307617.8950195-.3754883,1.7167969-.934082,2.2485352l-1.5922852-1.8554688-.7329102.4033203.0581055.1933594c.065918.2197266.1289062.4404297.1918945.6606445Z" stroke-width="0"/>
      <path d="m282.5325785,65.3668252c.1669922.8676758.3544922,1.7319336.5415039,2.5957031.1503906.6914062.300293,1.3828125.4394531,2.0761719.1518555.7539062.081543,1.2314453-.7270508,1.440918l-.3505859.0908203.2089844.2958984c.0625.0878906.105957.1586914.140625.2148438.0722656.1166992.1293945.2089844.2412109.2646484.3486328.1757812.6933594.2641602,1.0200195.2641602.2109375,0,.4145508-.0371094.6069336-.1108398.5219727-.2006836.9379883-.6660156,1.2021484-1.3452148.8071289-2.0732422.6269531-4.2685547-.5361328-6.5244141-.2216797-.4301758-.7255859-.8349609-1.171875-.9418945-.4335938-.105957-1.0732422.0649414-1.4238281.3769531-.3496094.3125-.2348633,1.0756836-.1914062,1.3022461Z" stroke-width="0"/>
    </g>
  </g>
</svg>