<?xml version="1.0" encoding="UTF-8"?>
<svg id="Layer_2" data-name="Layer 2" xmlns="http://www.w3.org/2000/svg" viewBox="0 0 261.6465755 376.8141446">
  <g id="Layer_1-2" data-name="Layer 1">
    <path d="m260.905622,344.0609806c-1.1352539-5.7734375-4.4609375-11.1464844-7.6767578-16.3427734-5.1799316-8.3681641-10.536377-17.0224609-6.5881348-27.3427734,1.1445312-2.4267578,2.5473633-4.8652344,3.9038086-7.2236328,3.6628418-6.3671875,7.4504395-12.9511719,6.9975586-20.4326172l-.0002441-.0048828c-.1625977-6.6806641-3.6191406-10.2783203-7.2788086-14.0869141-4.5322266-4.7158203-9.21875-9.59375-8.109375-20.765625.3532715-3.2177734,1.5209961-6.3847656,2.6503906-9.4472656,2.2849121-6.1962891,4.4428711-12.0488281.4604492-18.3339844l-.0146484-.0322266c-1.9975586-7.0507812,1.5913086-14.5185547,5.0622559-21.7412109,1.9648438-4.0878906,3.8205566-7.9492188,4.7316895-11.734375,3.3754883-11.6386719-2.1206055-21.8505859-7.4355469-31.7265625-2.9348145-5.453125-5.9697266-11.0917969-7.4887695-16.9169922-4.0957031-11.6806641-.5625-19.8496094,2.8544922-27.75,3.7207031-8.6015625,7.2348633-16.7275391,1.2431641-28.8740234-1.0180664-1.8027344-2.9626465-2.9033203-4.8432617-3.9667969-2.5568848-1.4472656-5.2009277-2.9433594-5.5266113-6.2353516-.7470703-3.7626953.5219727-7.6787109,1.6413574-11.1337891,1.2036133-3.8056641,3.939209-6.6210938,6.5849609-9.34375,2.651123-2.7294922,5.3928223-5.5507812,6.5275879-9.3222656,2.895752-8.2519531,1.980957-14.8066406-2.717041-19.4902344-6.3596191-6.3388672-22.8942871-9.7509766-38.5161133-4.2119141-4.5187988,1.0068359-9.0883789,2.7871094-13.5075684,4.5087891-4.5778809,1.7832031-9.3115234,3.6269531-13.8215332,4.5214844l-.1469727.0283203-.0024414-.1494141c-.1135254-7.2626953-2.5454102-12.1552734-7.2280273-14.5410156-5.625-2.8662109-13.3151855-1.5185547-18.7763672.1152344-6.2553711,1.8720703-13.1115723,5.1845703-18.340332,8.8603516l-.1037598.0722656-.0712891-.1044922c-.7746582-1.1396484-1.6894531-1.5957031-2.6459961-1.3183594-1.4536133.421875-2.7839355,2.4970703-2.8466797,4.4414062.4863281,2.8417969-.4650879,4.8056641-2.9101562,5.9775391l-.1911621.0917969.0124512-.2119141c.1501465-2.5556641.4992676-5.4306641,1.9487305-7.3740234l.052002-.0693359.0834961.0244141c.0861816.0253906.1508789.0410156.1992188.0507812-.1513672-.1523438-.4645996-.3925781-.6181641-.5107422-.0939941-.0722656-.1762695-.1357422-.2312012-.1806641-.8845215-.3359375-1.2897949.2753906-1.7185059.9208984-.3745117.5625-.7990723,1.1982422-1.5637207.7119141l-.0415039-.0439453c-.5129395-.9130859-.9865723-1.8828125-1.4443359-2.8212891-1.2595215-2.5791016-2.5617676-5.2470703-4.8586426-7.1230469-2.0400391-2.5585938-6.0490723-3.7734375-11.3122559-3.4169922-4.8588867.3222656-10.0488281,1.9726562-13.8828125,4.4150391-5.3039551,3.3789062-7.1660156,7.6835938-5.1091309,11.8115234l.0905762.1816406-.2028809-.0009766c-7.6523438-.0244141-13.6762695-3.1777344-19.5021973-6.2265625-9.6745605-5.0654297-18.8125-9.8496094-33.4938965,1.8740234-3.7561035,4.5322266-9.0522461,4.7207031-14.2526855,4.7207031-.472168,0-.9411621-.0019531-1.4191895-.0019531-.5847168,0-1.1767578.0029297-1.7609863.0126953C7.1216864,17.4271916,1.2049384,23.6312931.1688056,35.2865666c-1.1872559,9.2822266,4.1000977,16.6748047,9.213623,23.8251953,5.4165039,7.5732422,11.0175781,15.4052734,9.1179199,25.5634766-.8452148,6.4677734-4.2617188,12.7001953-7.565918,18.7285156-5.8347168,10.6445312-11.3457031,20.6982422-4.0217285,32.0537109.6791992,1.0175781,1.4101562,2.0390625,2.1838379,3.1210938,4.3005371,6.0107422,9.1748047,12.8232422,5.2719727,20.28125-9.598877,14.1630859-8.2490234,20.1601562-6.6860352,27.1035156,1.0090332,4.4833984,2.1525879,9.5644531.2915039,17.5292969-.5969238,2.2080078-1.4985352,4.3574219-2.3703613,6.4365234-1.3950195,3.3251953-2.8376465,6.7646484-3.0246582,10.4541016-1.9306641,7.8310547,1.1186523,15.0371094,4.067627,22.0048828,2.8088379,6.6376953,5.7133789,13.5009766,4.3193359,20.8759766-.8151855,3.3486328-2.3244629,6.4921875-3.7839355,9.5322266-1.5871582,3.3066406-3.2282715,6.7246094-3.9440918,10.3632812-4.1884766,13.9765625.3310547,17.6474609,5.1159668,21.5351562,4.3334961,3.5205078,8.8144531,7.1601562,6.3068848,18.9736328-1.1928711,3.0185547-2.9589844,5.9814453-4.666748,8.8466797-3.763916,6.3164062-7.65625,12.8466797-5.8254395,20.3847656,1.0927734,6.4423828,5.1096191,12.7724609,10.2355957,16.1357422,3.7263184,2.4453125,7.8205566,3.2109375,11.8447266,2.2226562,3.2316895-.3720703,6.1689453-2.1689453,9.0092773-3.90625,3.104248-1.8994141,6.3103027-3.8613281,9.8205566-3.8613281.1364746,0,.2736816.0029297.4111328.0087891l.0524902.0146484c2.7106934,1.4150391,4.9865723,3.6279297,7.1875,5.7675781,3.4931641,3.3964844,7.1052246,6.9091797,12.5014648,7.2128906,8.0463867,1.3339844,15.5812988-1.7529297,22.8679199-4.7363281,5.1416016-2.1044922,10.458252-4.28125,15.9321289-4.9111328,4.1120605-.2890625,8.1542969,1.2158203,12.0644531,2.6738281,2.338623.8710938,4.7570801,1.7724609,7.1523438,2.2734375,6.3342285,1.8115234,12.9956055,1.5800781,19.2526855,1.0566406,6.5002441-1.296875,10.8525391-3.0078125,14.6923828-4.5166016,7.8701172-3.09375,13.0681152-5.1367188,28.8491211.3300781,4.7612305.859375,8.1943359-1.0146484,11.8276367-2.9960938,4.0466309-2.2060547,8.230957-4.4892578,14.3857422-2.5800781,4.6938477.5654297,9.0791016,2.5195312,13.3200684,4.4101562,4.1245117,1.8388672,8.3896484,3.7392578,12.9885254,4.3925781,6.2922363.9277344,12.5302734-1.5576172,17.1193848-6.8056641,5.1467285-5.8847656,7.1965332-14.1376953,5.2219238-21.0244141ZM132.3934149,18.6273869c.7895508-.3544922,1.3498535-1.7294922,1.8442383-2.9414062.4924316-1.2070312.9174805-2.25,1.5407715-2.3945312.2414551-.0546875.4912109.0292969.7426758.2548828l.0383301.0341797.0031738.0507812c.092041,1.5273438-.1462402,4.3681641-1.6230469,5.3291016-.3193359.2070312-.6750488.3115234-1.0644531.3115234-.4519043,0-.9489746-.1396484-1.4880371-.4189453l-.2294922-.1191406.2358398-.1064453Zm120.9680176,347.6728516c-4.3537598,3.9111328-9.800293,5.5205078-14.9455566,4.4150391-4.5019531-.7197266-8.34375-3.2919922-12.0588379-5.7802734-3.885498-2.6025391-7.9033203-5.2929688-12.7055664-5.8916016-8.3432617-2.3476562-12.6062012,1.0380859-16.7282715,4.3095703-4.427002,3.5146484-8.6081543,6.8320312-17.2824707,1.3789062-3.362793-1.5576172-6.8779297-2.4306641-10.1513672-2.515625-7.2324219-1.4414062-14.1467285,1.5087891-20.8322754,4.3632812-6.875,2.9355469-13.9831543,5.9707031-21.5305176,4.3554688-4.2468262-.1523438-8.3125-1.5712891-12.2443848-2.9433594-2.2556152-.7871094-4.5878906-1.6015625-6.9306641-2.1669922-8.4401855-2.0175781-16.5651855.8691406-24.4223633,3.6630859-5.4291992,1.9306641-11.0429688,3.9267578-16.7568359,4.3222656-.3754883.0332031-.7475586.0488281-1.1135254.0488281-6.4272461.0009766-11.4140625-4.9492188-15.9824219-10.0605469-4.2468262-4-9.189209-1.7900391-14.421875.5507812-6.4150391,2.8701172-13.6853027,6.1210938-20.6064453-2.3701172-5.2539062-6.9150391-7.0129395-16.9775391-4.59375-26.2636719,8.5878906-17.7177734,9.9016113-21.9697266-4.5080566-36.4824219l-.0227051-.0224609-.0090332-.03125c-2.2587891-7.9570312,1.4240723-15.2919922,4.9853516-22.3847656,3.6228027-7.2158203,7.3688965-14.6767578,5.0737305-22.9423828-1.0776367-3.84375-2.6018066-7.8427734-4.0759277-11.7099609-4.5705566-11.9912109-9.296875-24.3916016-3.0737305-36.4853516,2.6501465-6.6621094,3.4785156-14.4482422,2.4567871-23.1318359-1.2868652-6.8125-.5800781-12.2724609,2.1616211-16.6835938,6.6477051-12.3486328,3.0773926-18.2382812-.7023926-24.4736328-2.9182129-4.8134766-5.935791-9.7910156-4.8193359-18.0625,2.0373535-8.0507812,5.2712402-14.2675781,8.1247559-19.7529297,6.5407715-12.5742188,11.2668457-21.6591797-2.7709961-41.7695312-.8447266-1.1826172-1.7614746-2.3994141-2.6481934-3.5751953C4.9261298,51.1723088-.5545831,43.8988713,1.4800848,34.8617619c1.2407227-16.6357422,11.3823242-16.8095703,23.1252441-17.0107422,2.1108398-.0361328,4.2937012-.0732422,6.4726562-.2099609,3.7182617-.6542969,6.9482422-2.8857422,10.0720215-5.0439453,3.9519043-2.7314453,8.0373535-5.5478516,13.1982422-5.2451172,6.088623.0664062,11.5708008,2.7832031,16.8725586,5.4101562,5.7646484,2.8564453,11.7255859,5.8144531,18.4245605,5.2841797l.0698242-.0048828.0410156.0566406c6.078125,8.3623047,16.1264648,10.1455078,25.003418,4.4345703.4890137-.3955078,1.0461426-.8291016,1.6293945-1.2832031,2.2624512-1.7597656,5.0568848-3.9335938,6.2016602-5.7900391-2.4672852.4130859-4.6547852,1.78125-6.7724609,3.1054688-1.5693359.9814453-3.1923828,1.9960938-4.9328613,2.6318359-.5749512.0908203-1.1469727.1855469-1.7351074.2822266-6.1223145,1.0058594-13.7412109,2.2617188-17.4418945-3.6240234l-.0859375-.1367188.1535645-.0488281c2.9089355-.9316406,5.380127-1.9931641,7.7700195-3.0195312,6.7055664-2.8798828,12.0563965-5.1777344,20.9538574-1.3691406-8.484375-5.8134766-18.3112793-1.6757812-27.0180664,1.9892578-.6672363.28125-1.328125.5595703-1.9821777.8300781l-.2021484.0839844.0305176-.2167969c1.4794922-10.5253906,16.0754395-13.3320312,24.4978027-13.3320312h.0744629l.0302734.0185547c1.9941406,1.2431641,3.0769043,3.3691406,4.1240234,5.4257812.4899902.9619141.996582,1.9560547,1.5844727,2.8261719l.0180664.0419922c.2133789.9082031,1.1132812,1.5205078,1.9836426,2.1123047,1.0795898.7353516,2.0991211,1.4287109,1.5925293,2.5996094-.7543945,1.6591797-.5864258,3.6953125.416748,5.0683594.7841797,1.0722656,1.9702148,1.5732422,3.3405762,1.4121094l.1691895-.0205078-.0317383.1679688c-.5126953,2.7148438-5.9523926,11.4736328-9.1376953,11.4853516h-.0065918c-.9960938,0-1.6640625-.8154297-1.9855957-2.4238281-2.2868652-3.0820312-5.4074707-4.2265625-8.3549805-3.0644531-2.2058105.8710938-3.6481934,2.8652344-3.4296875,4.7412109.2602539,2.234375,2.7416992,3.8554688,6.8093262,4.4492188,2.4543457-.3027344,3.065918-.1337891,3.2263184.2099609.2150879.4599609-.517334,1.1445312-1.7304688,2.2792969-.2890625.2705078-.6000977.5605469-.9211426.8710938-2.6540527,2.4990234-5.9553223,2.3583984-8.2573242,1.8017578-2.4626465-.3818359-4.6911621-1.5898438-6.8461914-2.7578125-2.3256836-1.2607422-4.7307129-2.5644531-7.4294434-2.8144531-5.1608887.171875-11.5505371,4.1455078-12.6413574,9.2744141,11.7609863-10.4921875,15.3442383-8.4677734,20.286377-5.6728516,3.1618652,1.7880859,6.7468262,3.8125,13.3999023,2.9628906,2.7319336-1.2695312,4.7961426-3.3486328,6.135498-6.1806641l.0385742-.046875c.7883301-.5839844,1.6264648-1.1376953,2.513916-1.7236328,3.1516113-2.0830078,6.4104004-4.2363281,7.8464355-7.9941406.1210938-.2880859.2487793-.5791016.3786621-.8759766.7712402-1.7597656,1.6452637-3.7548828,1.3276367-5.5410156l-.0075684-.0419922.0205078-.0390625c.5090332-.9462891,1.220459-1.8144531,1.6652832-1.6552734.3273926.1259766.3549805.7216797.0844727,1.8203125-.4433594,5.4091797,1.098877,10.9570312,4.5874023,16.4677734l.0134277.0283203c2.3105469,7.3115234,5.1982422,11.6582031,8.8283691,13.2900391,4.7077637,2.1162109,10.2011719-.3369141,16.5617676-3.1757812,7.0227051-3.1357422,14.9621582-6.6777344,23.5895996-4.6025391-3.4650879-2.7441406-8.9841309-2.4492188-13.0900879-1.6875-3.6274414.796875-6.9953613,2.7060547-10.2521973,4.5527344-3.9926758,2.2636719-8.1210938,4.6044922-12.763916,4.9101562-3.8588867.2460938-6.4111328-1.9697266-7.876709-3.8867188-1.765625-2.3095703-2.9462891-5.53125-3.1584473-8.6191406l-.0114746-.1679688.1635742.0371094c4.0734863.9189453,9.4360352-.0371094,11.5991211-4.2988281.614502-3.1044922-.0256348-5.5263672-1.8034668-6.8222656-1.9033203-1.3857422-4.9438477-1.3378906-7.5654297.1201172-2.9897461,1.6630859-4.6245117,4.6630859-4.3730469,8.0224609l.0324707.4365234-.2580566-.3525391c-2.6320801-3.6025391-2.8557129-8.8662109-3.0532227-13.5097656-.0222168-.5205078-.0439453-1.03125-.0686035-1.5292969l-.0065918-.1328125.1333008.0019531c.4150391.0068359.8134766.0439453,1.1989746.0800781,1.6674805.1533203,2.8718262.2695312,3.5715332-2.1162109.0603027-.5253906.0761719-1.0986328.0917969-1.6533203.0166016-.5888672.0322266-1.1455078.1010742-1.6650391-.407959-.6103516-.5375977-.9736328-.4467773-1.2480469.1035156-.3125.4665527-.4394531.9692383-.6152344.2104492-.0732422.4489746-.1572266.7062988-.2666016,3.3037109-1.171875,6.5791016-2.6152344,9.7468262-4.0097656,5.1430664-2.265625,10.4614258-4.6083984,15.9790039-5.8242188,3.1049805-.9667969,6.2807617-.6132812,8.7043457.9726562,2.2165527,1.4501953,3.6130371,3.8310547,3.932373,6.703125.8977051,3.5029297,1.1601562,5.2617188.3334961,6.3798828-.8393555,1.1357422-2.8652344,1.4511719-5.8618164,1.5927734-5.4931641.6054688-10.8718262-1.1708984-16.0722656-2.8876953-3.802002-1.2558594-7.7333984-2.5546875-11.6706543-2.9042969-.1437988,0-.3012695-.0019531-.4611816-.0039062-1.6171875-.0224609-3.439209-.0449219-4.5620117,1.1005859,1.1677246.421875,2.5908203.390625,4.0925293.3544922,1.3039551-.0283203,2.6523438-.0605469,3.8518066.2275391,4.1289062.1279297,8.1828613,1.46875,12.1035156,2.765625,4.7229004,1.5615234,9.6086426,3.1767578,14.6386719,2.6464844.8752441-.0966797,1.6030273-.2373047,2.1877441-.3505859,1.0622559-.203125,1.7036133-.3271484,2.0859375.0214844.4558105.4179688.434082,1.4453125.2124023,3.5888672-.4951172,4.7929688-2.3894043,8.7626953-5.0673828,10.6171875-1.7158203,1.1894531-3.7026367,1.4970703-5.9042969.921875-4.4973145-1.7070312-7.6662598-5.546875-10.730957-9.2587891-3.890625-4.7138672-7.9138184-9.5869141-14.6374512-9.9765625-1.9145508-.1914062-2.1357422-.0253906-2.1606445.0097656.0212402.2109375,1.3161621.8613281,2.1733398,1.2910156,1.0756836.5400391,2.1879883,1.0986328,2.6484375,1.5507812,1.7661133,1.6396484,3.4990234,3.5185547,5.1748047,5.3349609,5.1811523,5.6162109,10.5385742,11.4238281,18.4206543,12.2617188h.095459c8.7236328,0,10.0778809-5.3359375,10.8527832-11.78125l.0541992-.4482422c.1811523-1.4921875.3244629-2.671875.3491211-4.3359375.0058594-.3710938.6140137-.5898438.8752441-.6669922,4.0805664-1.1875,8.1818848-2.9228516,12.1479492-4.6015625,5.9973145-2.5380859,12.1989746-5.1621094,18.578125-6.0205078l.4914551-.1171875c4.8276367-1.1455078,9.8200684-2.3291016,14.7590332-1.2246094,7.1166992.5585938,12.7856445,3.3134766,15.9453125,7.7558594,2.824707,3.9707031,3.5185547,9.1259766,2.0065918,14.9072266-1.1479492,3.4511719-3.2495117,6.4443359-5.2819824,9.3378906-2.1726074,3.09375-4.4191895,6.2929688-5.4846191,10.0351562-1.6191406,5.2138672-3.0554199,11.1533203.4155273,15.6953125,1.4816895,1.3681641,2.9331055,2.4326172,4.213623,3.3720703,4.0827637,2.9970703,6.7802734,4.9765625,5.7329102,12.921875.3105469,6.4863281-2.4863281,12.3349609-5.1911621,17.9902344-2.2807617,4.7685547-4.638916,9.7001953-5.0917969,14.9726562.041748,8.9765625,4.1728516,17.3613281,8.1677246,25.4697266,5.0275879,10.2050781,10.2263184,20.7578125,7.201416,32.515625-.7475586,3.7373047-2.1318359,7.6875-3.4707031,11.5068359-3.4399414,9.8144531-6.9973145,19.9628906-1.2331543,29.1962891,2.6616211,5.5898438.3337402,11.3212891-2.1308594,17.3896484-2.1096191,5.1943359-4.2910156,10.5644531-3.0620117,15.8369141,1.3937988,5.7832031,5.1845703,9.3466797,8.8505859,12.7919922,4.6174316,4.3398438,8.9790039,8.4384766,8.1999512,16.4707031-.3173828,5.8388672-3.7124023,10.4912109-6.9958496,14.9902344-2.0822754,2.8525391-4.2353516,5.8027344-5.6088867,9.0478516-5.3066406,8.7060547-1.9228516,18.6669922,1.848877,25.4931641,1.5673828,3.4072266,3.8857422,6.5341797,6.1279297,9.5576172,3.5646973,4.8085938,7.2509766,9.7802734,7.9941406,15.9697266.6037598,5.7451172-1.9580078,11.9511719-6.6855469,16.1982422ZM117.6004462,34.2934025c-.8891602,1.3554688-3.1350098,1.9628906-5.3059082,1.9628906-.4929199,0-.9819336-.03125-1.4504395-.0917969-1.8068848-.2353516-3.048584-.8652344-3.3217773-1.6855469-.4458008-1.6552734.3166504-3.1679688,2.0895996-4.1552734,2.2773438-1.2714844,5.979248-1.4423828,7.6486816.3359375l.0161133.0214844c.8525391,1.4248047.9614258,2.6396484.3237305,3.6123047Zm25.8757324-5.71875c2.0415039-1.5917969,4.1777344-1.2158203,5.3793945-.1318359,1.0878906.9833984,1.8325195,2.9697266.3508301,5.3349609l-.0063477.0087891c-1.4377441,1.8945312-4.0148926,3.171875-7.0708008,3.5058594-.4758301.0878906-.8879395.1269531-1.2441406.1269531-1.423584,0-1.9609375-.6181641-2.1489258-1.2050781-.7097168-2.2138672,2.5673828-6.6201172,4.7399902-7.6396484Z" stroke-width="0"/>
  </g>
</svg>