<?xml version="1.0" encoding="UTF-8"?>
<svg id="Layer_2" data-name="Layer 2" xmlns="http://www.w3.org/2000/svg" viewBox="0 0 235.6671798 153.3758701">
  <g id="Layer_1-2" data-name="Layer 1">
    <g>
      <path d="m123.7803916,50.3605836c.129037-.1118658.1065225-.2317835.0511677-.3736426-.478644-1.2267617-.8704726-2.4789497-1.0252394-3.8005659-.0160423-.1369671-.1202073-.2655409-.1217196-.4000507-.0167659-1.4806733-.3748575-2.9372447-.2399837-4.4262911.1628057-1.7976359.2859023-3.5999787.6210621-5.3814109.347627-1.8475549.415269-3.7086586.2731031-5.5626638-.0641431-.836702-.2852518-1.6724299-.5438944-2.4712154-.2277491-.7033421-.5278961-1.4100764-.942895-2.0123615-.3679131-.5339936-.6893123-1.1161678-1.1285211-1.5918344-.610837-.6615126-1.2169122-1.368422-1.9590924-1.8548008-.6514585-.4269341-1.2752046-.9413359-2.0294425-1.2088698-.616909-.2188086-1.230796-.4840535-1.8718242-.5901699-.821741-.1360375-1.6572705-.3927004-2.5108453-.0818275-2.191477.0846578-4.1185819,1.0596536-6.043432,1.9867051-.6290204.3029561-1.3949649.3993203-1.8609263,1.0221778-.6220764.234879-1.1625789.640256-1.7618029.9039541-.3716417.1635515-.6003013.5013906-.9469969.6250973-.3339101.1191384-.6180396.2750656-.8332421.5387919-.2301549.282067-.5849787.3152138-.855691.5015887-1.0518956.7241428-2.0485205,1.5334385-3.2034502,2.0967835-.4045247.5721505-1.1007147.7453041-1.6032437,1.1924897-.5322095.4736044-1.225391.7456894-1.6901997,1.3139758-.721055.0851702-.9847859.9146153-1.6792723,1.0567411-.1235644.025287-.2284082.1667739-.3361742.2611933-.3585011.3140504-.6754965.6485591-1.1541524.8379031-.4214382.1667383-.6361165.7188167-1.1609865.8172811-.1214232.0227849-.2215545.1750815-.3309548.2684397-.4339664.3702986-.7498672.899369-1.3656499,1.0270343-.0399855.0082983-.0718167.0626678-.1065355.0965236-.3125934.3048049-.6070971.6316983-.9425129.9085287-.3268213.2697177-.7188225.4607914-1.0397872.736246-.4038039.3465456-.7596773.7488526-1.1455106,1.1173221-.2748184.2624606-.4884671.6146162-.9128145.6730279-.6103558.6042018-1.3299587,1.1018074-1.7207327,1.9151127-.1627146.33865-.4461182.6212331-.72916,1.0028085-.0071152.2463134-.0166979.5777859-.0241781.836846.0466788.1156004.051988.1721931.0831143.1994966.9040743.7933147,1.2550198,2.1281941,2.5214101,2.5730841.1671091.0587358.296749.2265735.4354864.3529102.4563159.4154636.8495535.9458909,1.3796671,1.2215596.5155531.2681151.9077627.6577286,1.3749185.9603888.3478186.2253345.7456941.3631798,1.0741219.6450508.2753952.2364014.6373167.3719346.959054.5553179.3626016.2067063.7037869.4637395,1.0885261.616071.8232363.3259199,1.5723234.7952,2.3664943,1.1745551.7460635.3563692,1.5769563.602444,2.2013184,1.1918373,1.0903617.3035541,1.9317301,1.1109053,3.0095919,1.4397688,1.0940082.8159379,2.3948447,1.2260659,3.6294827,1.7572112.8589462.3695192,1.8058175.5041766,2.7294337.6570067,1.3005165.215178,2.6159768.3502658,3.9254967.5165358,1.4042893.1783175,2.8185411.3060096,4.2085163.5554116.4733111.0849545.9505596.0448211,1.4086936.1521257,1.5958465.3737939,3.2347145.5933097,4.7609161,1.2205552.1718467.0706326.4133351.0660888.518873.1873146.2969925.3411216.7499946.3778424,1.0938276.621469.3840069.272041.4611236.7031627.5928915,1.0939718.0877144.2601245.0434569.5673133.0584318.8563162l-.6452107.667289c-.1035556.0087458-.2503547.0452056-.3882032.0260083-.1354729-.0188777-.2596165-.1009002-.3925987-.1438654-2.3290939-.7524727-4.7099593-1.2468914-7.1583849-1.5237079-2.1023474-.2376716-4.2053966-.5761474-6.2546778-1.0735873-2.1297914-.5170054-4.2301621-1.172497-6.1955843-2.1858734-.8220632-.4238731-1.6761174-.8149107-2.4580364-1.2901821-.6773098-.411692-1.3975812-.7464346-2.0527411-1.1678273-.8262478-.5314061-1.7343825-.8906256-2.5716236-1.3920772-.8296579-.4968875-1.7691889-.8111046-2.6440629-1.2381411-.7077089-.3454088-1.4296674-.6837845-2.0749928-1.1262916-.7721457-.5294905-1.6981022-.7671851-2.4370795-1.3414722-.4201268-.0224324-.5829246-.4992765-.95903-.5565058-.4174085-.063527-.6057745-.479847-.9578222-.5644336-.4029118-.0967922-.6468792-.3697866-.9534827-.5827541-.3028472-.2103489-.6526608-.3536266-.9581915-.5607124-.2698745-.1828914-.4761254-.4362736-.8281797-.521954-.2088803-.0508293-.3854509-.2578907-.5552499-.4173507-.4843267-.4548563-.9577431-.921309-1.4627752-1.4096313-.0377436-.1021164-.0602235-.2515861-.1384148-.3603595-.5824972-.8103621-.6652333-1.736719-.6245153-2.7057709.0224441-.5343645.1744209-1.0186443.396616-1.5024055.4189775-.9121868.8423917-1.8160301,1.6108006-2.505401.3615989-.8717925,1.0847419-1.4549288,1.7156113-2.1076609.3285701-.339951.6522037-.6627024,1.1060798-.8987206.4913901-.2555053.8395234-.7873946,1.2675737-1.1796273.3497942-.3205414.6105098-.7489396,1.120389-.8853791.1658342-.0443774.3028132-.2257527.4413355-.3568459.4221351-.3994599.7793408-.9292258,1.2737561-1.173427.5037891-.2488305.7959326-.717974,1.2499651-.9465496.6203956-.3123336,1.0326599-.8620721,1.5861345-1.2158298.5297852-.3386003,1.0060735-.7161492,1.4721087-1.1291191.2430247-.2153462.5737571-.3276212.8374324-.5238651.2668983-.1986392.4603166-.4902258.8238083-.5608401.1253968-.0243556.2639989-.1358457.3415354-.2458016.4059326-.5757078,1.0954317-.755924,1.6049856-1.1921401.5007074-.4286302,1.0777301-.7671327,1.6576345-1.0861159.5410162-.2975871.8998492-.8680195,1.5278697-1.032617,1.5952527-1.2881567,3.4134467-2.206445,5.197027-3.1761951,1.9691533-1.0706488,4.0689979-1.8172993,6.2011634-2.4646298.5418737-.1645261,1.0978334-.3228965,1.6557104-.3798313,2.48611-.2537117,4.941787-.2627959,7.2094551.9497447.6976897.3730426,1.4584024.6603321,1.9974342,1.2575068.2753458.3050648.7019948.273051.9675919.5574437.2264487.2424861.4897624.4504728.7155064.6935628.3175026.3419216.7527652.5814891.9161252,1.0598654.1612729.4722554.6720858.6812631.8713131,1.095455.2062741.4288159.5236664.7710016.7396754,1.1797191.4983227.9428917,1.0913473,1.8366423,1.4077837,2.8755691.3157651,1.0367947.5075677,2.1008889.6945083,3.1665847.3149798,1.7953431.2408535,3.617428.2137182,5.4337123-.0106251.7111936-.1222477,1.4224842-.1625065,2.1346345-.0376296.6655073-.091702,1.3287345-.1498334,1.9927579-.1464665,1.6723788.1712946,3.3051337.4820638,4.9386912.3030574,1.5929069,1.0598911,2.986131,1.6971828,4.4330497.7866966,1.7861444,1.7445186,3.4868823,2.5895035,5.2444861.0804237.1672602.2046604.3126959.3282643.4977823.0224882.3504701.046991.7323748.0736058,1.1474145.3728397.0108924.7463009.0218173,1.0942937.0319923.3959326.198474.7684562.3852135,1.1893183.5961756.179563.5008402.367846,1.025955.5647481,1.5750986-.0955528.3600643-.1924671.7252136-.3034309,1.1433391-.2082401.2153658-.4661859.4418164-.6755738.7063203-.608663.7689164-1.4704301,1.2186826-2.2143577,1.8164235-.5256633.0322734-.7589519.6019981-1.2213586.7071754-.4954685.1127059-.6886625.7100516-1.226249.7123332-.4494444.433782-1.0120751.7079734-1.5013429,1.0784098-.4556175.3449396-1.0242313.5017768-1.4081564.9753309-.2625336.3238456-.7722989.3462556-1.052502.7162404-.2639643.3485378-.7145124.4791212-1.0330845.7400823-.6302431.5163108-1.1585882,1.158262-1.7836294,1.8046915.006476.0979342.0158485.2396982.0197951.299101.0555026.1208449.0629358.1814193.0934723.1963382.2089209.1023278.4133476.2324412.6366786.2838964.6864079.1582251,1.372825.357488,2.095687.2398823.3268355-.0531649.6525768-.1251589.9722383-.2142278.227665-.0634371.4442874-.1696332.7819438-.3024013.4352943-.4808062,1.0226779-.9654477,1.9124874-1.3476635.1355715-.008289.467761-.0285702.8300512-.0506913l.9928146.9599656c.1951759.4724113-.1397814.852999-.187747,1.3111777l-1.3101585,1.3549906c-.0210336.1798392-.0426587.3646924-.0653716.5588251.1059877.0197557.1928629.066682.2477901.0413673.4725214-.2176685.9392979-.4483808,1.5320386-.7353524.7807273-.8074429,1.6570523-1.7137547,2.4708188-2.5553674,1.1596978-2.134939,1.9863391-4.2948502,2.4223901-6.6264679.1609723-.1664806.3242535-.3417026.4946242-.5097237.1707537-.1683922.3486093-.3295715.5415921-.5110482.3360468-.0257213.6692861-.0512405.9290754-.0711345l1.0026393.9694653c.5385236,1.3501086.3129594,2.7090523-.0272454,4.0622418-.2427056.9652983-.5681116,1.9084686-1.0873193,2.7692687-.161547.2678546-.2168734.507098-.104022.8144151.4979944-.3970462.9938474-.177194,1.6264465.0229737.2102343.18484.5242242.4609318.8521813.749293.2267025-.4843956-.044138-.7623652-.3599034-1.1879028-.0034709-.3436988-.0082982-.8207679-.0123518-1.2203697l.987374-1.0211608c.595613-.2388895,1.1370481-.0588504,1.7853376.1611847.2937807.2840605.6669047.6460995,1.0413994,1.0066958,1.2652025,1.2182249,2.5206497,2.4468891,3.8020539,3.6478577.4393864.4117984.7961891.9478275,1.4597714,1.0796321.1213369.0241173.2259169.1701466.3174545.2777364.712364.8373389,1.7822617,1.2101834,2.5657433,1.971845.3489779.3392604.9084821.4693202,1.2631426.8590092.6802469.0360521.9488062.7578205,1.5574188.9140833.5608177.1439846.7978039.83127,1.4394667.8408156.5725288.714439,1.5165824.9370065,2.1339219,1.596922.2221563.2374954.4598418.453352.8122968.5405815.2089415.0517041.3739053.2702816.5570241.4158285.6206939.4934078,1.0732095,1.1931163,1.884091,1.459462.2062536.0677412.3543789.3072353.5252715.4719052.7178071.6917586,1.417983,1.4028023,2.1558033,2.0725123.6677595.6061443.9624423,1.5069069,1.6724096,2.0721506.6213644,1.4019578,1.4917564,2.7113311,1.5265922,4.3313769.4248016,1.7184581.0570232,3.3902723-.4510858,5.039278-.2495623.8099015-.4748614,1.6393087-.9405681,2.3733884-.0746074.1176324-.0805574.282372-.1647506.3889067-.2964398.3751458-.5809036.7371304-.7768722,1.1946182-.1800474.4203354-.666512.679664-.7632656,1.1985307-.0299961.160743-.2415639.2934036-.3745263.4346678-.4321797.459225-.8942083.8938152-1.2942184,1.3792022-.8433635,1.0234044-1.9534537,1.7085794-3.0888353,2.2812111-2.2888655,1.1543547-4.6802966,2.0547643-7.1437736,2.7777984-1.3657822.4008687-2.7393027.7670424-4.1114048,1.1376772-.9605471.2594676-1.9398292.4533402-2.9181716.629782-1.5904691.2868062-3.1828446.5561484-4.7827905.7897964-2.0560711.3002615-4.1060548.2487648-6.1593126.3252468-.9100852.0338849-1.7712443-.2650587-2.6604917-.3793184-.3547786-.0455802-.7258865-.2283308-1.0111237-.449038-1.1001219-.8511876-1.9526257-1.8727699-2.1794747-3.3300015-.1894222-1.2168376-.3668225-2.4329014-.414476-3.6670387-.0221892-.5749259-.0071344-1.1521007-.028777-1.7270666-.1062338-2.820171.2792127-5.5946464.8957724-8.3546558.3725133-1.6676562.777339-3.3289088,1.3161-4.949908.8564481-2.5768975,1.4770687-5.2001553,1.9592744-7.8604596.2717987-1.4996106.5829933-2.9928646.5906217-4.5194282.0011209-.2220791.296461-.4277463.0292886-.6783425-.3335168-.1768538-.6503781.0875658-.8840976.2254766-1.1684854.689588-2.3782382.9182823-3.6801149.6252181-.0924482-.0208265-.1897731-.0217264-.3076611-.0343524-.2568326-.1653377-.5089707-.40812-.8100682-.5003884-.3499276-.1072528-.5870824-.3257846-.7742392-.5855445-.1853019-.2571259-.2795605-.5808704-.5042138-1.0739734-.0199637-.489505-.0488972-1.1989327-.0802777-1.9684636-.2316391-.0130465-.4118978-.035608-.5920436-.0309714-.4797011.0123784-.9598689.0256898-1.4389406.0581285-1.0583801.0716666-2.0923.0066004-3.1990354-.5351082l-.909654-.8795566c-.1595309-.3242756-.32349-.6575289-.5760021-1.1708214.0163296-.3389382.0417711-.8666724.078216-1.622279.2118224-.5350422.5077882-1.2826752.8250074-2.0839561.603538-.6241903,1.2370808-1.2932948,1.8872892-1.9457167.3015093-.3025216.556426-.6635891,1.0218784-.7748429.1634488-.0390713.2871905-.2446895.4371607-.363972.4470535-.3555682.7357547-.8902015,1.3314944-1.0850231.4985356-.1630286.7038255-.8137812,1.2936551-.8662916.4611099-.5758173,1.2112869-.7621445,1.7093679-1.2840229.2101006-.2201166.4682338-.3133385.735106-.4290058.2090353-.0906201.3571851-.3190303.5471244-.4670427.2092733-.1630805.4354049-.3042747.6465483-.4497286-.1432899-.3931757-.4869325-.4323631-.8478039-.5221694-.279906-.2706449-.585405-.5691255-.8943993-.8639662-.3025447-.288654-.5751512-.612598-.9611131-.9060798q.1094324,1.2178202-.3516997,2.6798664c-.1509525.0193937-.325673.041832-.5233913.0672439-.3793537-.3668022-.8255776-.6771029-1.1013643-1.1006388-.251492-.386278-.5391673-.765401-.7324447-1.1779922-.145858-.3113517-.2983851-.5990721-.5544409-.7987064-.4277584-.3334752-.5109071-.8880539-.8716204-1.2653797-.3524217-.3685917-.7511333-.684807-.9649758-1.2030482-.152179-.3687992-.5557195-.6300432-.8497225-.9367362-.4258602-.4442224-.8541052-.8861286-1.2813493-1.3290197-.095955-.7011458-.9433191-.9417921-.9979674-1.6682487-.4481138-.4331389-.6273312-1.0300383-.9183809-1.5578791-.3581524-.6495706-.6787033-1.3206199-1.0410287-1.9676756-.3395889-.6064355-.8075137-1.1334224-1.0694685-1.7919081-.0659998-.1659189-.220402-.3203287-.3738428-.4199275-.5056719-.3281865-.5667106-.9656893-.976754-1.3647114-.3651804-.3553964-.8195514-.6627491-.9022074-1.2346965-.809059-.7349089-1.271408-1.7179568-1.8475933-2.6200179-.8404797-1.3157208-1.3918773-2.7467661-1.5925551-4.3060801-.0722668-.5615807-.2540691-1.1033659-.2054437-1.6902963.0784957-.9475269.1625536-1.8918014.3986464-2.8188561.1047531-.4113771.2005544-.8265656.3371114-1.2282493.1213033-.3568172.280921-.7031577.4457177-1.0437984.2880522-.5953954.6095889-1.175419,1.0230151-1.6950172.2102286-.2642102.4496663-.5151805.7133949-.7243241.2186813-.1734107.485413-.2928472.7432085-.4072066.34475-.152924.7014176-.277839,1.0776597-.4243865.3552437.129645.7054034.2497274,1.0478862.3880425.081983.0331006.1384053.1269301.3309946.3131473-.0123585.2142782-.0315082.5460901-.046255.8015843-.666621.8891029-1.050719,1.7766353-1.2558171,2.7786428-.231458,1.1307245-.3819376,2.2501763-.360713,3.3997862.0168813.9136213.175663,1.7924723.4553943,2.6451887.2329465.7100234.4952149,1.4147351.8104215,2.0898608.2936803.6290515.7075812,1.1994292,1.0085882,1.8254808.4030121.8382034.9688496,1.5746457,1.3499182,2.4342178.3738757.8433733.8539435,1.6450575,1.2648946,2.4787522.3503785.7108393.6624664,1.4359658.9574808,2.1697201.3306265.8223167.6372105,1.65374,1.1395805,2.3921871.1022943.1503443.095116.4027262.2220653.5050596.4565977.368009.5769316.968701.9770239,1.3641321.7423035.7336604,1.4969225,1.4548092,2.2464276,2.1811717q-.0637199.3423754.3479549.4342444c-.1642661-.1829294-.2758245-.3071836-.3873704-.4314257Zm7.6977898,55.581984c.5244435.1982125,1.0168131.3176358,1.5549013.284944,1.7636259-.1071935,3.5277798-.0449408,5.2929758-.3177721,1.4611527-.2258542,2.9478709-.2600553,4.4232872-.3783197.1435556-.0114936.2914403.002677.4305414-.0284479,1.3457122-.300994,2.7156081-.4377466,4.071778-.6649351,1.7368151-.2909551,3.4304745-.7432894,5.101275-1.2754139,1.3481758-.4294102,2.6685827-.9596216,3.9653964-1.553205.8211979-.3758915,1.5545016-.8922817,2.3509111-1.3027941.3282052-.1691686.5671451-.5210917.840047-.7964782.2729266-.2754121.5533264-.5459463.8013319-.8428102.2407376-.2881966.6054057-.4884223.7069545-.9660231-.5088296-.399061-.7966771-1.0003765-.9785597-1.6148557-.2054238-.6940888-.6417849-1.2422133-.9812637-1.8406332-.3607678-.6359598-1.1001532-1.0040631-1.4165027-1.7102993-.6332053-.1726762-.9283078-.7860241-1.6420457-1.1899327-1.1266595-.3862544-2.448554-.8472433-3.7766317-1.2906563-.4887161-.1631234-.9923404-.2838639-1.488793-.4252286-.7673477-.2184687-1.4297037-.6753173-2.1718828-.9390264-.6394718-.2272534-.9259761-.9365159-1.6423644-1.062359-.2380745-.0418102-.4283948-.3567801-.6278118-.5594361-.4249038-.4318293-.838621-.8487886-1.1498919-1.4039424-.3341703-.5960058-1.0169472-.9701013-1.2527451-1.6727482-.8014252-.7426788-1.0715672-1.8581748-1.8193194-2.6385035-.1819413-.7968924-.7703006-1.3716673-1.108694-2.0858219-.3571345-.7537293-.796791-1.4664867-1.1785873-2.2086929-.4454814-.8660197-.7954923-1.7918808-1.319544-2.6044817-.5288182-.8199531-.8332432-1.776701-1.5114458-2.4999642-.2278539-.7063104-.7722062-1.2975074-.725498-2.1033249.0084844-.1461493-.0393702-.1871312-.2748997-.0609559-.1098679.177312-.279815.4515529-.4497744.7258066-.4682488.608164-1.0094646,1.1634721-1.5431189,1.7259432-.0603777.0636194-.0782236.1675724-.1194825.2611958.5282685.1270702.8635535.4978765,1.1596453.9045397.2857537,1.1014262.6553471,2.182705.3014545,3.3478911-.0406457.1338364-.0170668.2862966-.0210164.4301572-.0418027,1.5246871-.3750814,3.0220207-.6750505,4.5054411-.383582,1.897072-.8923741,3.776959-1.3752354,5.658043-.199671.7778636-.3948682,1.55988-.5549704,2.3501748-.4424984,2.1844022-.8711014,4.3690416-1.1821151,6.5745701-.1661844,1.1782672-.3553301,2.3510656-.3728175,3.5421879-.0118613.807924.0565181,1.6173573-.1417827,2.4248707-.0650646.2650233.0198243.5659906.0474157.8491742.0274204.2816095.102166.5613749.0973325.8421986-.00923.534981.0918697,1.0385517.3565972,1.6099242Zm9.2889681-34.4953824c.4419103.5658482.8095852.8583069.9273194,1.2340389.1369021.4368272.4885452.6772291.6760281,1.0601687.9377785,1.9152474,1.917065,3.8097286,2.9027526,5.7002161.2352772.4512488.4869402.9014848.7150412,1.3518009.2506498.4948825.5563491.9682759.754201,1.4870964.1867408.4895646.6024556.8415239.7585359,1.3245274.1808966.5597186.8556972.7761483.8915909,1.4108659.4808664.4508184.8979805,1.0098687,1.4553449,1.3308439,1.3244807.7627044,2.6758723,1.4888973,4.2060514,1.8272495.7282433.1610582,1.4253677.4530286,2.1338407.6933906.7497164.254363,1.5355056.5204954,2.1256644,1.0075376.9330966.7700905,1.9472126,1.5097682,2.4542278,2.6885778.6711409.6957477.8850962,1.627922,1.2236113,2.4913569.1144113.2917712.1089681.6327827.1512365.9055897.3064408.1192098.4435614-.0353598.5369542-.1912556.1448391-.2417202.2585034-.5032771.369532-.7629336.3154977-.7379171.7086268-1.4576435.9159504-2.2234858.4441583-1.6405228.5102707-3.2897054-.1518468-4.8856187-.0896889-.2162098-.1783859-.4328199-.3025106-.7341561-.128975-.1397598-.3954031-.3157349-.5006264-.5631543-.3471939-.8163384-1.0278724-1.3321548-1.6185439-1.9299271-.3664909-.3709001-.7651792-.7102272-1.1258978-1.0863717-.3954709-.4123422-.8850564-.673095-1.3715226-.9546583-.3993341-.2311507-.655369-.6414459-1.1538126-.7874051-.4803424-.1406667-.7228068-.7526988-1.3080428-.7778787-1.72839-1.2623966-3.7689347-1.9968956-5.5337296-3.1977286-.5372542.0287775-.7575076-.5120494-1.2278217-.6549082-.4756678-.1445008-.933004-.4468608-1.3197931-.7477416-.3822569-.2973637-.8529015-.370768-1.2225467-.6809749-.4584373-.3846916-1.0867531-.5460657-1.4959233-1.0194057-.4709035-.0356163-.7243895-.410352-1.0637382-.6563901-.3743722-.2714746-.8301235-.4500308-1.1554658-.7666601-.709373-.6903759-1.5166506-1.2311957-2.6460607-1.8926063Z" stroke-width="0"/>
      <path d="m82.5268189,76.4190692c.4884046-.0116744,1.0144839-.0242422,1.5384881-.0367649l.8355432.8078979c.0702273.2203535.1827937.5735402.3053146.9579541-.0846835.1721272-.1682877.3377101-.2480786.5050524-.2661907.558228-.4744464,1.1702002-1.2104375,1.2868513-.7233477.7890471-1.7060277,1.2024511-2.5786778,1.767154-.86958.5627034-1.7068607,1.1920064-2.65932,1.6194802-.3462995.4228596-.8669359.578854-1.3054678.8589479-.4764029.3043027-1.0058465.5274871-1.4669454.8514813-.4282418.3009187-.9128032.5231348-1.306385.8489655-.4110926.3403137-.9817516.412794-1.3045129.8669401-.7256591.3461709-1.4043954.7728834-2.0887484,1.1955245-.5218176.3222306-1.0111095.7343895-1.5773472.9415478-.5516053.2018055-.9300829.6428111-1.4728013.8593636-.559307.223153-1.0967395.5547792-1.6172215.8696753-.6076685.3676707-1.2326322.7006248-1.8368242,1.0656756-.607622.3671224-1.2259215.7109939-1.8326148,1.0734037-.6086004.3635317-1.2462136.6905329-1.8277241,1.0786763-1.1415448.7620049-2.3200152,1.4630954-3.4638891,2.2200801-.9843273.6513858-1.9908908,1.2751415-3.0176485,1.8532461-.6183608.3481623-1.1937332.7714801-1.828404,1.0792794-.6417962.3112164-1.2365806.6908258-1.8477774,1.0482631-.6494516.3798167-1.3163898.7344949-1.9534854,1.1439309-.4757357.3057387-1.0304039.4608349-1.4750706.8435508-.4299166.3700373-.9111985.6814121-1.3794736,1.0044735-.3105372.2142554-.6537853.3824728-.9532563.6101718-.3035162.2308071-.5315498.5715007-.9531674.6125811-.513733.6581312-1.3779392.8619851-1.911047,1.501333-.3408042.4086966-.920582.4837541-1.2718468.9117239-.3015072.3673296-.6496359.7170152-1.1498516.8255759-.6094152.7636661-1.596727,1.0633211-2.2136905,1.8220118-.1168912.1437534-.2802198.292335-.4491369.3438403-.4986506.1520916-.7647517.5506652-1.040172.8496428-.0940368.2144932-.0513954.2606917.0934502.192634.0854228-.0401197.1620438-.1265164.2473297-.1354777.3320401-.0348847.6659803-.0470962,1.065711-.0718943.0503678.1911657.1675773.3793133.1280591.5292179-.2034743.7715415-.1531924,1.6178765-.6915848,2.2941819-.3971743,1.4651373-.9318384,2.887919-1.3186995,4.3611005-.8937,3.4033267-1.4193215,6.8692953-2.1470271,10.2997553-.29312,1.3818106-.5837814,2.7778375-1.3772667,4.0040451-.0497845.0769269-.0564684.1812423-.0857446.2815334-.3640763.2036157-.7331071.4099792-1.1315547.6328086-.1686449-.0318712-.3529505-.0599275-.5334419-.1027095-.1830922-.0433689-.3624315-.1013249-.3596929-.1005553-.8256939-.384674-1.0643247-1.0560257-1.2954271-1.638411-.656945-1.6557673-1.1033795-3.3778164-1.3574537-5.1650857-.3089767-2.1736785-.4777086-4.3493231-.4072907-6.5485796.0193862-.6051921.1070159-1.2096742.1655447-1.8383892-.7310971.3595242-1.395475.7391945-1.8789351,1.3504709-.3714031.469621-.9683966.5939754-1.3809141,1.010891-.3981265.4023574-.7213543.9084014-1.325936,1.0897302-.2065534.0619516-.3702923.2957535-.5408855.4639797-.552593.5449252-1.0976776,1.0975059-1.6488201,1.6439325-.4069187.403446-.9851311.5647197-1.3596537,1.0363913-.3596777.4530044-.8074708.8366273-1.2163502,1.250931-.4429605.4488256-.8869211.8966843-1.3281379,1.3471959-.4073042.4158763-.8124585.8338314-1.2168877,1.2524875-.404423.4186621-.8067901.8392627-1.2100257,1.259073-2.2177771,2.3089251-4.4358351,4.617628-6.6528121,6.9273267-.2014996.2099205-.5094544.3998559-.5719837.6451354-.1677384.6583414-.8037916.9666824-1.0524357,1.5278623-.2496557.5634643-.5693994,1.0941578-.7959299,1.6603575-.155065.3875945-.3120004.8011614-.2775425,1.2497121.0365368.4761669.0225731.9572866.0296353,1.3757889.5170562.9209156,1.0671493,1.7323981,1.8207144,2.3853491.5056364,1.0541671,1.4501678,1.7205318,2.2351209,2.5246453.7951818.8146464,1.6322479,1.5883265,2.5089526,2.436024.3315539-.0392846.7147232-.0446283,1.0787962-.1344289,2.0228458-.4989007,4.0780889-.8732465,6.0291526-1.6551026,1.9133414-.3605855,3.7539963-1.0223517,5.6421852-1.4930229,1.2817616-.3195011,2.5659935-.6769011,3.8264998-1.0948598,1.261486-.4182967,2.5104869-.8774351,3.7595512-1.3342878,1.1143839-.4075876,2.2119607-.86593,3.3346216-1.2464334.8557374-.2900469,1.6653071-.6798512,2.4916811-1.0359823.8263368-.3561176,1.7098102-.6007843,2.4858479-1.0430066.5904689-.3364752,1.2276053-.5041222,1.8220362-.7973193.6347389-.3130475,1.2675501-.6304799,1.9079557-.9310782.5995714-.2814793,1.2182519-.5220887,1.8106046-.817839,1.8999599-.9485477,3.7916518-1.9143336,5.6865278-2.8734571.4880868-.4765482,1.1377329-.6761932,1.6968718-1.0251908.6029686-.3763673,1.242688-.6961416,1.8226438-1.0865793.5486775-.3693701,1.1338244-.6917867,1.6755134-1.0805936.5249587-.3768071,1.1727869-.5853528,1.7097368-.9977239.5227855-.401499,1.1521674-.6543517,1.734133-.9538924.7982218-.410861,1.5276633-.9371894,2.3487447-1.3138608.766637-.351656,1.5395533-.7401727,2.2431989-1.2014516.7958935-.5217895,1.6323101-.95882,2.461229-1.4048055.7918303-.4260377,1.4511722-1.0723471,2.3095423-1.3751972.5136263-.6593466,1.3644463-.8718184,1.9244725-1.4882282.2774205-.3053235.705326-.4691452,1.042846-.726615.3395737-.2590185.5717322-.6643359,1.0458581-.7383099.081374-.0126697.1661604-.0989567.2241122-.1713232.5812463-.7255284,1.5371115-.9844562,2.1108808-1.7175851.845071-.1721325,1.1688052-1.1309581,2.0015533-1.3479773.2023769-.052742.3470105-.3267674.5294384-.4860468.3935625-.3436204.6833202-.8262425,1.2526765-.9399487.0802974-.0160587.1458579-.1211579.2157628-.1876516.5539241-.5270289,1.0395447-1.1396518,1.7791106-1.4337693.5280762-.7139624,1.3935417-1.0065162,2.0015847-1.619257.341859-.3445021.8902165-.370255,1.178272-.7925099,2.0188858-1.0242425,3.9186872-2.2758409,6.0109295-3.1654108,1.3876549-.5900302,2.7073357-1.3456884,4.0888999-1.9525571,1.3403015-.5887323,2.6229599-1.3591051,4.1095747-1.5436809.6585964-.3489276,1.3012718-.1387698,1.9404238.0245795.2243604.0573443.4348182.1652116.693928.2665857.0828391.2324739.1761562.494333.2687024.7540379-.0378263.7615127-.691205,1.2328134-.9263182,1.9027284-.0392735.1118311-.2056446.1921704-.3269861.2629344-.1223197.0713504-.3095646.0754997-.3859574.1730417-.5768069.7363955-1.4903549,1.0351034-2.1325529,1.6970255-.3545219.3654026-.9213406.4857394-1.2819656.8842183-.5859853.1052152-.92777.634716-1.471951.8519306-.5127029.2046203-.9258415.6558841-1.4126473.9475329-.6479102.388203-1.3873914.6195489-1.9401518,1.170788-1.1231815.3931985-2.0352596,1.187356-3.1131685,1.6823383-.682483.3134238-1.3630433.6532746-2.0498269.9603403-1.8980593.8486039-3.7347045,1.8194681-5.5820495,2.771657-.8396855.4327822-1.6522439.9172022-2.4639097,1.3929449-.8122231.4760689-1.6194833.9777969-2.4048322,1.511018-.5770894.3918004-1.2220763.7076925-1.8308434,1.0724472-.5594077.3352179-1.1583265.6323062-1.7365146.9525535-.4949017.2740826-.983556.5600141-1.4816389.8279066-.4986402.2681938-1.0681776.4451715-1.4917327.8004252-.4467278.374717-.976708.5850492-1.4307561.9409726-.5906697.4629765-1.3714519.643686-1.9231725,1.1942249-.51656.045821-.7821725.5282102-1.2188056.7184676-.3888248.1694287-.8263906.3013685-1.1299847.5752795-.3685504.3324854-.8015747.5277152-1.2125864.7443281-1.4620856.7704891-2.8641661,1.6499875-4.3245186,2.4193595-1.4197305.7479962-2.8481312,1.4779945-4.2483455,2.2642634-1.1935802.670242-2.3777293,1.3548182-3.5244257,2.105317-.275991.1806282-.5748659.3250909-.8586813.4940506-1.4602651.8692359-2.9361968,1.7122013-4.4307613,2.517056-1.5800762.8508945-3.1928042,1.6406817-4.8173474,2.4019163-.8551877.4007387-1.6987055.8265034-2.5597598,1.2167005-1.0334163.4683277-2.0848402.8950217-3.117183,1.3662163-.8601326.3926207-1.7741873.648129-2.6341705,1.0636826-.6345535.3066275-1.3562675.4208696-2.0294429.6510024-1.0331849.353176-2.0476842.7678211-3.0886809,1.0927315-1.9484235.6081328-3.8634267,1.3227782-5.8094651,1.9328217-2.4443288.7662649-4.9307149,1.380295-7.4322797,1.9082681-.697594.1472033-1.4327509.131045-2.1492871.1301726-.3706896-.0004841-.7383945-.1315993-1.1899146-.21978-.4277151-.4135634-.8870735-.8920788-1.3832172-1.3289982-.6656268-.5861629-1.1671297-1.3729075-2.0718977-1.6761518-.165754-.0555223-.2780726-.2529054-.4248378-.3729655-.6140241-.5023569-1.0729615-1.2077557-1.8959256-1.437192-1.0603788-1.0196097-2.1281817-2.0317163-3.1730329-3.0670098-.1541062-.1527148-.1891881-.4207976-.2968314-.6260677-.7323057-1.3959292-.8989403-2.1664542-.974157-3.4898241-.0867441-1.5252265.356352-2.9120013,1.0493099-4.2383021.3267954-.6254589.7642333-1.1956919,1.1639222-1.7826519.1078189-.1583338.2586495-.2885741.3935742-.4279657,3.9810313-4.1126302,7.960019-8.2272364,11.9482564-12.3328989.3624357-.3730994.6771997-.802328,1.2321924-.9727805.2451853-.075291.4178859-.388887.6341549-.5823025.5323809-.476108.9332306-1.1162967,1.6661592-1.3461187.0822462-.0257909.1415554-.1288773.2122373-.1953117.4522053-.4251311.8874404-.8461812,1.4585168-1.1482426.4889852-.2586462.7890549-.8425948,1.3873469-.9867271.5249049-.6436462,1.3722731-.8701577,1.9091659-1.5073043.3088751-.3665575.8406086-.4218054,1.1669919-.8105599.3039129-.3619633.6708597-.6508675,1.1399451-.8497866.4178834-.1772196.6449823-.7013464,1.1660885-.8109638.161013-.0338632.2895862-.2441279.4309319-.3758525.3155345-.2940767.6279966-.5615882,1.0509626-.73157.3817747-.1534325.5686731-.6511541,1.034134-.7547376.1280129-.0284994.2481487-.1377506.3531994-.2311127.3924255-.3487979.7566301-.7045663,1.2608332-.9340392.413995-.1884189.6582424-.7065432,1.1796576-.7800479.4398548-.6024988,1.1914423-.7846692,1.7113853-1.2905993.2647871-.2576515.645119-.3915197.9449573-.6191108.303661-.2304941.5275672-.5776748.9525985-.614194.4855701-.6200372,1.2929224-.8142309,1.8129846-1.39066.2930126-.324776.7857564-.3205145,1.0727386-.6988237.2574141-.3393247.5924717-.6365959,1.0459153-.7214723.4555666-.6559933,1.2861718-.8416681,1.7858961-1.4212764.277286-.3215933.6870415-.3283689.9712506-.5936627.277486-.2590161.5426216-.5113875.9122316-.685307.5487452-.2582298.994243-.709842,1.5217771-1.038335,1.1626135-.7238871,2.3072468-1.4744033,3.5109897-2.1305924.7864087-.42866,1.5086881-.9660412,2.2943058-1.4043638,1.1126994-.6208121,2.211778-1.274938,3.2316627-2.0506706.6237743-.1348172.9749679-.7722271,1.6048115-.8958618.3993795-.50357,1.1000534-.5845958,1.50021-1.0870684.7200491-.0704975.9855791-.9326574,1.7047742-1.004648.4318512-.5370528,1.1967968-.6186139,1.6033754-1.1902121.8406867-.4336926,1.5985703-1.0044195,2.4072364-1.4913425.3237759-.1949792.6101893-.4906681.955504-.6021408.3973474-.1282908.5784039-.5398896.9443604-.6326887.4094488-.1038362.6237168-.4376221.9388764-.6457521.7099386-.4688128,1.4590799-.8720873,2.1453041-1.3850365.2967103-.2217672.7282116-.2767466.9440271-.617761.2340359-.3698387.7209866-.2879096.9639172-.5980099.341018-.4353071.8963181-.5200182,1.3099912-.8631508.391785-.3249729.8335149-.654299,1.2783386-.8859952.4295236-.2237017.7473917-.619083,1.196976-.7549731.5190653-.1568709.7839792-.733264,1.3518849-.7757071,1.0691218-.873555,2.2886219-1.5215771,3.4524626-2.2397297,1.2410908-.7658286,2.4907385-1.540932,3.8176677-2.1629851.2132296-.0999856.412215-.2315398.7900181-.4464755Zm-52.5266349,50.8812679l-.0886995.2300347c.0546542-.002395.1093207-.0048027.1639748-.0071977-.0329521-.0739289-.0659043-.1478578-.0988687-.2217739l.251222-.2598185c.1017705-.9228967.1390555-1.7853796.3002943-2.6267019.5170179-2.6972582,1.1098865-5.3769105,2.0213539-7.9865969.6404883-1.8337658,1.3620011-3.6180812,2.5694136-5.2467913-.6773922.2066287-.9145813.8993269-1.5467175,1.0864159-.5546513.1641586-.7761175.8405709-1.3590843,1.0328883-.6031216.1989792-.860413.8801-1.4911624,1.0954459-.5830136.1990444-.8195325.9477303-1.5179568,1.0766069.0606701,1.9481701-.4442084,3.9006512-.0157563,5.8410565.02985,1.9523298.3151274,3.8723176.5711301,5.7535443l.2408569.2328878Z" stroke-width="0"/>
      <path d="m160.412746,75.6548483l-.8696924-.8409172c-.074265-.2513219-.1409698-.4769943-.2347044-.7941519.129935-.4086551.2874748-.9040911.4515163-1.4199588.3952609-.4087862.7851135-.842896,1.2085485-1.2411238.4144753-.3898121.7298286-.9106871,1.3477937-1.0526785.1203316-.0276466.2091994-.1941709.3180604-.2904232.4993193-.4415148.905553-.9730849,1.5585635-1.2585541.3727078-.1629656.6312099-.5895248.9540734-.8830895.316832-.2880271.7699029-.3500059,1.064571-.7076109.4914835-.5964744,1.3014129-.7950968,1.809548-1.38553.4194802-.0514518.6406463-.3996508.9446077-.6287421.2620955-.1975242.5732739-.3273716.8475732-.5103524,1.5723443-1.0487598,3.09338-2.1810043,4.8051157-3.0012731.4568027-.5084285,1.1157966-.7170407,1.6537958-1.1149887.5194093-.3841749,1.1447526-.6453074,1.714451-.9866407.9303569-.557448,1.8852942-1.076633,2.8060988-1.654143.5730632-.0205873.7915121-.7267219,1.3722823-.7324175.3592851-.4043222.8957024-.522183,1.324903-.8331982.6426808-.4657397,1.3862728-.7973641,2.0717224-1.2194885.8439627-.5197506,1.6889191-1.0416794,2.5230637-1.5750137,1.1550011-.7385265,2.3671242-1.3909257,3.4478998-2.2462919.7078628-.0987664,1.0027978-.8462838,1.6860801-1.0571532.5133704-.1584352.9125614-.6737917,1.4079598-.9448111.4667227-.25532.9055843-.5259996,1.2751451-.9088066.6051805-.0665855.881046-.7526834,1.4883758-.8152134.5200858-.6525447,1.3671832-.8682205,1.9301608-1.4815294.2795504-.3045247.7059579-.4694735,1.0432815-.7275657.3392597-.2595692.5702838-.6696416,1.0440228-.738688.0422601-.0061608.0899032-.0400758.1184784-.0746816.6510635-.7879793,1.6991355-1.104924,2.3030482-1.9377649.3313136-.4568878.9236402-.4804634,1.2836358-.9041806.3022721-.355789.6067188-.7584011,1.1192292-.8798272.1256689-.0297648.2431704-.1514621.3393533-.2543131.3967468-.4242306.8843584-.7141364,1.3635839-1.0306632.4317846-.2851722.7269728-.774086,1.2764821-.900309.6051275-.7699375,1.5953791-1.0622022,2.2178309-1.8175141.3681534-.446737.9951448-.5402322,1.3775083-1.0141223.3237671-.4012571.681589-.8029654,1.235652-.9615879.2025133-.0579859.3513049-.3214534.5224666-.4933193.5819844-.5843647,1.1549466-1.1780587,1.7475229-1.7514158.3404334-.3293453.5980522-.7602188,1.1237147-.8768371.1594443-.03538.2877563-.2456748.4219418-.3839767,2.5675348-2.6459628,5.1356009-5.2913995,7.6976233-7.9426922.2636709-.2728685.5757872-.5171474.6434705-.9386876.0199489-.1242878.1467287-.2436995.2452369-.3452784.4694385-.4839763.7848932-1.0824983,1.1912661-1.6001296.3896421-.4963759.5640168-1.1006476.9996148-1.5680604.2419213-.2596047.2556452-.7278196.5915342-.956688.3597271-.2451177.3486418-.67034.5498506-.9938966.8660581-1.3926633,2.0910529-3.8540492,2.4057178-5.1201421.3332174-1.3407103.6777838-2.6809763.5986021-4.0777625-.0610436-1.0770613-.7402365-2.5700436-1.4364405-3.2829439-.2864385-.2933048-.6548004-.3539777-.9724663-.5433477-1.0241591-.6105265-2.1634745-.8229047-3.3394124-.9758205-1.1406693-.148319-2.2796538-.1197585-3.4236995-.1203322-1.7320287-.0008758-3.3884404.3842958-5.0170605.9764776-1.8744232.6815816-3.7432912,1.3860336-5.6415125,1.9902474-3.3464051,1.0651651-6.6502103,2.252763-9.9271364,3.5201454-1.3657977.5282288-2.7199711,1.0884095-4.0597389,1.6905474-1.0340095.464714-2.0990451.8783456-3.1594255,1.2827854-1.6827152.6418496-3.314403,1.4022438-4.9734843,2.0976182-.5188708.2174778-.9874437.5572561-1.4984308.7983976-1.3239799.624806-2.6585221,1.2310697-3.916695,1.9843484-1.1336106.6787085-2.3034751,1.2945321-3.3998048,2.0395159-.7816207.5311164-1.5941139,1.0170949-2.3927158,1.5213494-.2822193.1781898-.5493516.3667905-.8187577.5616949-.2662383.1926287-.6329422.280973-.8361671.5172411-.3644265.4236471-.9106461.5045701-1.3210878.8529403-.3845626.3263581-.8456063.6356624-1.3107814.8255472-.4975566.2031133-.7727174.7586369-1.3487741.7836458-.402471.5009391-1.0313862.6738659-1.525604,1.0540492-.5125385.3943033-1.1403679.6574067-1.7127122.9874939-.5293753.3053084-.9640599.7924629-1.5902104.9237344-.3419583.5066928-.9668137.5937016-1.4095663.9681593-.3932246.33259-.8597725.5859534-1.2874015.8844123-.7328173.5114848-1.4994273.9872301-2.2688717,1.4461713-.8515706.5079331-1.6827271,1.0494832-2.5264315,1.5687914-1.246414.7672067-2.4917455,1.5408729-3.7108977,2.3510485-.788938.5242513-1.5876121,1.0237029-2.4009807,1.5066846-1.0967468.6512891-2.1639842,1.3535783-3.2438855,2.0339708-.5770529.0121818-.7946751.7214885-1.3732746.7306672-.3614143.4025972-.9831119.3962412-1.3106665.8520428-.8319361.4464543-1.6618332.9024062-2.5011499,1.3272279-.5511566.2789585-1.0159213.6872127-1.5975377.9204064-.6074904.2435943-1.1598312.6300603-1.7401282.9467856-.5387756.2940441-1.0824024.5790227-1.6243708.8670137-.5420551.2880307-1.10399.5434926-1.6226158.869551-.7675322.4825774-1.6517027.7000249-2.425276,1.1761432-.3044963.1874216-.735407.1644733-1.1581193.2469578-.1734778-.0461835-.4004914-.1066369-.6950687-.1850624l-.733858-.7095771c-.1035682-.5194278-.0665997-.9732619.1217782-1.4428099.1162425-.2897122.2843936-.5982903.5148741-.660587.6855356-.1852596.992809-.9164969,1.670043-1.0872176.1261229-.0317851.2531712-.1478476.3374837-.2573072.4527246-.5877562,1.2287112-.74327,1.6979575-1.3092923.4346246-.5242375,1.1682649-.6620202,1.5834808-1.2169374.4858857-.1066723.7776638-.5693721,1.2152399-.7183068.391973-.1334133.6256314-.4322982.9169804-.6413918.6959051-.0627867,1.300096-.2460876,1.8559215-.6982663.5457646-.4439997,1.2559235-.6368404,1.8314635-1.0747394.5235066-.3983178,1.1987128-.5579614,1.7208459-.981273.6117462-.044085.8876342-.7513676,1.503826-.7866681.3592732-.4032092.9724637-.4197973,1.3002136-.8709983,1.0070178-.4219656,1.8804158-1.085045,2.8290406-1.6124344.4119566-.2290214.8547288-.4192995,1.2232626-.7056927.4545242-.3531891.9461243-.6712829,1.4498223-.8865009.579356-.2475151,1.0028451-.7073823,1.5862188-.9459705.5120716-.2093953.9160299-.6787796,1.4123918-.9486944,1.4524814-.7898721,2.7757107-1.7949836,4.2490653-2.5524138.7943531-.4083608,1.5048863-.9741908,2.2970442-1.4015678.9552088-.5153385,1.8844907-1.0800792,2.8215624-1.6295888.8952382-.5250047,1.8678514-.9166663,2.7531146-1.4565433,1.4145032-.8626301,2.9289798-1.5338447,4.3408211-2.3875184.72725-.4397161,1.5075295-.799128,2.1867753-1.3090123.6498871-.4878505,1.406622-.767332,2.0740852-1.232738.7667922-.5346657,1.6376611-.9378648,2.4768233-1.3646278,2.3158363-1.1777459,4.6405785-2.3375378,7.0183278-3.3875113.913773-.4034973,1.8790119-.6815998,2.7576143-1.1309678.8988347-.4597118,1.8506915-.7312031,2.7700987-1.1079349,1.5791384-.6470396,3.1978662-1.1991995,4.7525765-1.9006183,1.6489919-.7439468,3.3599092-1.2998511,5.0444086-1.9342661,1.6889449-.6360609,3.38994-1.2458134,5.108941-1.7882662,1.9008325-.5998105,3.7709148-1.2835564,5.6413694-1.9715643.490227-.1803247.9464734-.461605,1.4318024-.6094491,1.497965-.4563055,2.980801-1.0116517,4.5787438-.9977198,1.0545263.0092108,2.1122742-.0767599,3.1660308-.0570228,1.229479.0230271,2.4425217.1857196,3.6402819.466448.9245634.2167106,1.6959832.7640487,2.5810583,1.0566429.8303153.7711567,1.7816651,1.4415005,2.3708625,2.4273322.7730047,1.2933547,1.3114416,2.6830244,1.2962055,4.2497736-.011134,1.1453553.0998756,2.3016369-.2181477,3.4232477-.3472696,1.2248225-.4419683,2.5267651-1.1372321,3.6502145-.4355093,1.661219-1.3284492,3.1290597-2.0536919,4.6677224-.3219125.6829679-.7101656,1.3368936-1.0776115,1.991412-.3427727.610591-.5978493,1.3077562-1.1586359,1.7907046-.2074854.6680814-.7187934,1.12167-1.1637249,1.6212479-.2875742.3229285-.3060895.7951983-.6751476,1.0874615-.3001137.2376438-.6203954.5223849-.777751.8562929-.5314625,1.1277623-1.541749,1.8366372-2.3039117,2.7591282-.4237499.5129156-1.0545624.8715794-1.2078539,1.5881442-.6031973.5470714-1.0415172,1.2691609-1.7905687,1.6645883-.2055295.108506-.3870744.2772528-.5552396.4431181-.6216108.6132405-1.2281237,1.2418333-1.8505223,1.8542627-.2708608.266522-.4998202.5822839-.9153245.6793258-.1643539.0383815-.302058.2252718-.4408291.3563098-.4224491.3989092-.7802152.9295048-1.275088,1.1709899-.5069977.2473963-.7894911.7425665-1.248984.9454098-.6450859.2847775-1.0059794.9491784-1.6026875,1.1805458-.6526575.2530368-.9506547.9945162-1.6743344,1.0719953-.5209964.6498846-1.3724605.863748-1.9223548,1.4942675-.2378661.2727201-.6368398.399216-.9387918.6245532-.2669324.1991748-.4999191.4160209-.8211004.5637427-.5090902.234152-.8212589.8054626-1.4114984.9463946-.580715.7260545-1.5312676.9891182-2.1163869,1.7112231-.2493943.3077804-.7210636.2396879-.9635273.6050356-.1839787.2771964-.4616476.4900264-.821957.5493452-.0818103.0134712-.1665929.0983284-.2247384.1705201-.5833473.7243744-1.5398253.9805593-2.1171289,1.7107898-.5050155.1871146-.8451537.6500523-1.291656.8712029-.4945663.2449451-.8119773.749038-1.275301.8931093-.5376325.1671687-.8201911.6399941-1.3406665.81981-.5175235.1788391-.8240773.7944699-1.4141875.9351932-.4143569.5593317-1.091752.7571586-1.6133879,1.1784052-.50664.4091393-1.1425932.6874233-1.6555942,1.0771271-.5692098.4324278-1.2272348.7366154-1.7428343,1.2415177-.1342203.1314342-.2908642.2558929-.4593512.3336179-.9518553.4391307-1.6772056,1.2382783-2.6277983,1.6765536-.4121761.5634547-1.1435386.6924782-1.6013028,1.1938967-.7555278.2132228-1.172331.9766439-1.9170601,1.207414-.4473006.5928524-1.2311838.7246407-1.7152112,1.2888155-.2379072.27729-.6734325.3014873-.9596831.6015602-.2863681.3001694-.7071144.4672677-1.0438136.7258648-.3023458.232223-.5239761.5744737-.9484078.6271192-.0790112.0098009-.1590843.1060212-.2202699.1779302-.5987999.703736-1.5307019.9922851-2.1121928,1.7163906-.6954992.1681243-1.0109303.9182291-1.6201834,1.1424099-.610952.2247872-.8709504.9426511-1.5576557.9883441-.4268823.618836-1.1905353.7856822-1.7090201,1.2933435-.2637459.2582381-.6444952.3919251-.9442281.6194698-.3035803.2304732-.5265866.5785242-.9511018.6171736-.4302721.4602538-1.0152209.7056237-1.4952846,1.0877526-.4493403.3576331-1.0633599.4694298-1.3977976.9827024-1.306318.758297-2.5599705,1.6077055-3.8963389,2.3138861-.7586996.4009282-1.5406213.7361494-2.571858.8309965-.0986421-.0237507-.3729383-.0897832-.6974641-.1679021Z" stroke-width="0"/>
      <path d="m34.7493287,70.7666806l-1.6686302-1.6134208c-.059376-.3530671-.1214322-.7220726-.203106-1.2076758.0456029-.2962486.1103524-.7169182.1627741-1.0574891.2129553-.3465234.3791731-.6354925.5640743-.9122048.1576491-.2359333.297531-.5096593.5141385-.6755348.5261451-.4028725,1.0551893-.8124328,1.6098901-1.1679215,1.5432235-.9890014,3.623902-2.0262109,5.0762287-2.5020027,1.4893379-.4879052,2.9798969-.9908683,4.5632052-1.0805657.6127343-.0347138,1.221448-.1848594,1.8664269-.2879277.028878-.0359195.0870719-.1083238.1842838-.2292608-.107931-.1307322-.2134306-.2808883-.3409386-.4091208-.5689828-.5723522-1.1496528-1.1331425-1.7148547-1.7091549-.2603631-.2653177-.5612686-.4897312-.6726242-.892984-.0571863-.2071014-.2891259-.3598381-.4330077-.5443136-.3157909-.40485-.7715956-.6724117-.9860499-1.1900828-.1741542-.4203247-.5541933-.7468842-.7745498-1.1531815-.2436286-.4491902-.5494336-.8560508-.7895303-1.3110699-.3541492-.6711577-.5643181-1.3877539-.7943717-2.0951037-.1092378-.3358553-.0391472-.7538568.0244542-1.1233369.0637758-.3704484.2205994-.7268312.356888-1.1526505l.6954921-.7192911c.6943976-.4210604,1.5051032-.3941628,2.195289-.3679769,1.297083.3237485,2.4747396.6353113,3.6620459.9083539.9149567.2104247,1.8025574.4691899,2.6754756.8257724.9900911.4044793,2.0462084.6538885,2.9592369,1.2382593.4226666.014878.6345692.4216765.9705003.5346251.3787428.1273537.6569504.3467014.961475.567397.3363778.2438329.7232387.4184584,1.0625164.6588668.3419484.2422739.611832.5556017,1.0544205.6870256.2908032.0863434.4997905.4201783.7558608.6305534.3231227.2654708.5618319.6515493,1.0354143.7091335.0828706.0100581.1611399.0913236.2302414.1524294.4258729.3766851.7910338.8837215,1.2882065,1.1008704.5074711.221669.841497.5928645,1.2467086.9049838.112633.0867606.2081652.260745.322937.2687021.6370908.0440777.8797672.7040666,1.432539.8648395.0909223.0264694.2138265.0196498.2698392.0782086.7010959.7329421,1.6756234,1.0036112,2.5409359,1.4464647,1.1602801.5938524,2.3962075,1.016381,3.6520351,1.4000434,1.97695.6039759,3.968827,1.1115325,6.0183847,1.4379562,2.2663626.3609654,3.9467477.3855484,6.5228786.0511546,2.5973032-.3371552,5.1091189-1.0588043,7.6584085-1.6111965.6940207-.1503864,1.3764465-.3590192,2.0667423-.5296414,1.6338248-.4038846,3.2886944-.5865023,4.9629538-.5835866.9528121.0016694,1.9090505-.0679665,2.8444763.1582213.9112692.2203543,1.8349436.3995634,2.7340074.6591552,1.8475748.5334547,3.6832397,1.1056912,5.521926,1.6677742.7123146.2177538,1.4727162.2720884,2.1463182.6269071.3685538.1941469.7930516.2482159,1.1549392.4997345.3347824.2326509.7598262.3427359,1.1533358.485134.4002599.1448469.6043228.6278778,1.095027.6079719l1.2138344,1.1736727c.0199426.3570549.0461769.8269676.0727291,1.3022297l-.6356138.6573638c-.342349.067058-.7156434.1401813-1.196707.2344125-.4872735-.0985045-1.1031556-.1673306-1.680575-.3505761-1.5149863-.4807338-3.0049172-1.0360567-4.5200618-1.5162515-2.2345793-.7081944-4.4788328-1.3882238-6.7258127-2.0586547-1.4513335-.4330281-2.9421409-.6921093-4.4711718-.5992145-1.4691151.0892354-2.9264901.3108825-4.3521327.7267595-.4087851.1192335-.8185732.237003-1.2321388.3361171-1.5224594.3648497-3.0450564.7295416-4.5707768,1.0789788-1.2977274.2972171-2.606.5309498-3.9271788.6783264-.6139057.0684804-1.225401.1846953-1.8400908.2196931-1.9111056.1087879-3.78553-.1720265-5.6467884-.508105-1.1075201-.1999744-2.2082483-.4539612-3.2891883-.7593051-.8519874-.2406924-1.6514796-.6370812-2.5142012-.8699614-.8096701-.2185595-1.5886946-.5349491-2.3364454-.9230789-.7822071-.4059985-1.6979564-.5338216-2.4051112-1.1015363-.7836509-.1942663-1.4032105-.716212-2.1143454-1.0568018-.660983-.3165416-1.3684425-.6202106-1.8859266-1.1864664-.6065072-.0836621-.8996005-.6893577-1.4224512-.8664302-.5805689-.1966222-.9000982-.6738723-1.3473686-1.0095551-.3355556-.2518121-.7832706-.3001043-1.0746071-.6493015-.2369619-.2839917-.5123457-.5631906-.9360175-.5975777-.0802397-.0065256-.167435-.0914291-.2237267-.1623688-.4231-.533399-1.0982223-.7100995-1.6015591-1.1237461-.5094373-.418606-1.1116351-.6753414-1.6782455-.990081-.5658746-.3143-1.1863874-.5310073-1.7660108-.8231086-1.4229319-.7170898-2.9468003-1.1681263-4.4685718-1.6498596-.1884565.2048106-.1412472.4756969-.0196544.6247799.4784908.5866852.5870966,1.378216,1.0923096,1.9477578.1157152.1304484.0849736.4076751.2100767.5109174.5234424.4320242.6432917,1.1585228,1.1612716,1.5779491.5242988.4245475.6423068,1.1372043,1.1783164,1.5665995.5533044.4432507,1.0279832.9836887,1.5386428,1.4799733.476478.4630362.9550309.9239264,1.4338886,1.3869403.074392.222675.1486135.4448885.2381144.7128206-.05425.2280496-.1192954.5014702-.1920207.8071842l-.4901299.5069016c-.474578.1979336-.9772146.2923639-1.501993.3635312-1.5040276.2039978-3.0138885.3531454-4.5047372.6932696-1.259969.2874575-2.4215495.848351-3.6501765,1.2116903-.5187027.5283853-1.3110433.5093338-1.8725904,1.0189077-.4783737.4340852-1.1292763.6740633-1.6926228,1.0187453-.1555018.0951497-.2979338.246808-.1975113.4728031.0735807.0463805.1456673.1266111.2292981.1391097.8392133.1255214,1.6759292.3010264,2.5218946.3440237,1.5175758.0770756,3.0156299.3416066,4.5407873.3398026.3744746-.0004287.7460904.0988767,1.120668.1396013,1.6414066.1784945,3.2879693.323516,4.9134301.6088635,2.1300237.3739252,4.2467366.794472,6.2940866,1.4990205,1.8621724.640799,3.7880596,1.0828685,5.6970261,1.5653751,1.5896821.4017936,3.1718522.8514904,4.8104008,1.0737127.9839351.1334454,1.9583513.312705,2.9603798.2817088.8635748-.0267051,1.7279085-.0699037,2.5906394-.0631434,1.0097426.0079512,2.0022117-.1856771,2.9824312-.3682625,2.1459487-.3997181,4.2905922-.8015632,6.441066-1.1760701,1.5863192-.2762609,3.1808292-.5565153,4.742301-.9625128.7931192-.2062257,1.6246882-.0528751,2.3837266-.4075283,1.6540411-.1715303,3.2674679-.5948909,4.9015839-.8897424.7963017-.1436812,1.610129-.1870736,2.4003597-.3567686,1.0757833-.2309919,2.181238-.1509852,3.2499357-.4363576.273552-.0730487.5730221-.0451332.8607037-.0558782.911501-.0340484,1.8232613-.0558833,2.7345402-.0979814,1.869359-.086374,3.699635.0666053,5.561509.8092681l1.0328761.9987017c.0749699.2153987.1522029.4372616.252108.7242998-.0733271.2528324-.1642253.56621-.2600544.8966688-.7262535.4193-1.4604214.726645-2.2934497.7304381-.4316691.0019491-.8636346.025016-1.295425.0316181-1.8137862.0276739-3.6126786.2267958-5.4050313.5407702-.7503186.1314438-1.5118489.1107442-2.2731154.2506091-1.1711346.2151439-2.3718179.2562617-3.5611793.3494547-1.4289629.1119441-2.8586249.2191833-4.2890462.2950404-1.4385091.0762673-2.8786964.0983899-4.3173079.1720866-.4706087.0241113-.9382936.1381743-1.4079191.2061932-.4225039.0612076-.8430474.0553524-1.2726501.1597711-.7843517.1906295-1.6002166.2341031-2.3986509.3682085-1.0759098.1807204-2.1451797.4077776-3.2219501.5817339-2.2540688.364183-4.4847044.8834783-6.7836765.9269769-2.1039697.0398309-4.1691298-.1638612-6.2173545-.5490071-1.5230583-.2863846-3.0055982-.7403674-4.5140731-1.0839822-1.6488791-.3755899-3.2337355-.9753165-4.9080079-1.2569699-.3196393-.0537941-.6183809-.2124462-.9311327-.3094581-1.9383651-.6012704-3.9400958-.8850828-5.9597261-1.1009562-1.7495764-.1869885-3.5028305-.2449305-5.263523-.2925656-1.2863398-.034784-2.5747268-.0222386-3.858898-.0746988-1.2297813-.0502169-2.4650124-.1358323-3.6756097-.3291442-.8755124-.1398083-1.7146305-.4812328-2.7041613-.7722172Z" stroke-width="0"/>
      <path d="m114.1543657,142.2698254l-.7717604.7981691c-.7977194.4762022-1.6461909.4786075-2.5788943.3772985-.1331961-.1161838-.3071086-.2725278-.4859573-.4230661-.7506674-.6318098-1.1008456-1.4983407-1.3309366-2.4167787-.2970693-1.1857005-.6506066-2.3605766-.7212489-3.5985284-.018728-.3284949-.1235716-.6516979-.1286131-.9795397-.0235171-1.5352495-.0350701-3.0710912-.0300831-4.6071045.0013429-.419891.0748814-.8411332.117303-1.2829223-.111017.0619872-.2545429.1054924-.3462674.1995052-.4741354.4861575-.9484003.9735245-1.3968576,1.4830523-.4721941.5365032-.7117831,1.245591-1.2786735,1.7178178-.5654312.4710178-.6801951,1.268027-1.25427,1.7358527-.0313796.5676188-.6054011.846837-.738694,1.371526-.1311315.5162002-.6537044.7869335-.8551765,1.3112713-.1776712.4623521-.6590134.8135357-.9454323,1.1436739-.9871295.5214619-1.900893.6011237-2.9241293.1382236l-.5217754-.5045116c-.8049496-1.3469137-.6782861-2.6377159-.3121121-3.9666605.3663077-1.3294332.9191078-2.5934751,1.4286217-3.8660287.7003596-1.7492313,1.5241575-3.4533561,2.4159021-5.1232708.1575567-.2950698.3133378-.5794735.5011607-.8570187.2106741-.3113088.2619916-.6993892.5519668-.993834.2222338-.2256862.3145077-.5750304.4842546-.857819.3415854-.5690912.6472968-1.1624391,1.0986315-1.6604599.0694717-.6608686.8828616-.9125968.9029332-1.6006424.6006784-.4497398.7788225-1.192683,1.2294628-1.7548959.4106241-.5122727.7774042-1.0848085,1.0861348-1.6616433.4667712-.8720298.9189493-1.7612347,1.2061872-2.7195104.4764389-1.5895373.5433888-3.1942364.3415643-4.8123221-.0639593-.5127662-.2068064-1.0148337-.2571135-1.5285372-.1625431-1.6599869-.7163937-3.2082852-1.2133608-4.7747916-.3684697-1.1615088-.7621612-2.3178442-1.0539568-3.5007193-.1910039-.7745127-.2756425-1.5887673-.3090232-2.3914736-.051794-1.2448883-.046703-2.4952542-.013672-3.7430491.0263496-.9954267.2246711-1.9741294.4395884-2.954062.3365724-1.5346834.8954332-3.00105,1.3474223-4.4999403.2193225-.7273491.5461292-1.4216071.8555727-2.1037358.2908363-.6410731.3909226-1.380004.8885776-1.9294821-.0274007-.4966465.4966659-.7170466.5980068-1.1192167.1164914-.462238.4603631-.7236505.7170738-1.0652619.1997735-.2658417.2062075-.6219855.4803103-.869023.4311355-.3885823.816043-.8287588,1.2439973-1.2713572.496823-.1064777,1.0082863-.1608601,1.5865513-.0211873.1367302.5723284.1117629,1.1419702.1004025,1.6927118-.2103422.8991348-.6196438,1.7012978-.9986579,2.5183119-.3580699.7719156-.7120513,1.5521345-.9814092,2.3560196-.6491766,1.9374778-1.2267603,3.8975402-1.8736211,5.8357496-.4887687,1.4644892-.6616491,2.9654529-.7482564,4.4832989-.0136672.2396322.0048473.4804252-.0091182.7200408-.1291929,2.2191455.3653413,4.339242.9099783,6.4460671.4463374,1.7266019.9721543,3.4271351,1.261237,5.1999096.2531934,1.5525773.4782799,3.1079089.3497244,4.6789188-.1075118,1.3138433-.2081623,2.6611627-.7689697,3.8933392-.5264613,1.1567335-.9673121,2.3588246-1.7792513,3.3814216-.3197507.4026813-.5375467.8864202-.8446395,1.3151817-.2689603.3755416-.5893033.7872401-.7166716,1.2094994-.1590763.5273666-.7329535.8037091-.7295009,1.3813788-.467834.4966747-.6600696,1.146258-.9861701,1.7216216-.3495034.6166265-.7379549,1.2103245-.9972726,1.8747057-.2402111.615405-.5718219,1.1961922-.8653571,1.7828505-.2984355.5964038-.4551782,1.2148077-.7671522,1.9933545.5095484-.4142734.8411221-.7226494,1.0677595-1.1680316.2938881-.5775181,1.6085435-1.9931148,2.162863-2.2793217.2702342-.1395303.478385-.3136815.6778821-.5176539.678359-.6936173,1.3503176-1.3934973,1.9404793-2.0038536.4447181-.238966.7774391-.4177576,1.2907231-.6935671.0917772.0062872.3784222.0258801.8079547.0552814.0380616.0263967.1799996.1497233.3434235.2312432.1646826.0821191.3507035.1227092.5156833.1776065.0532179.094142.1041694.1708922.1422952.2537782.3559008.7739654.3140663,1.5572581.0172224,2.3534251-.1989437.5336042-.4075308,1.0672515-.5542187,1.6151238-.234054.8741561-.428067,1.7545018-.438562,2.668346-.0092429.8072921-.1065807,1.6151695-.149609,2.4232846-.0176105.3304826.0053624.6622415.009944.9984131.3168673-.0326.4686679-.2344694.5302348-.4609064.1383227-.5086044.4395394-.9619803.5811867-1.4424808.1571158-.5330933.7253515-.8010248.7450163-1.3803909.0038373-.1127526.1697874-.2240236.2621561-.3350115.3654891-.4392289.8223994-.8028151.9939629-1.3950494.0601024-.2074128.2930237-.3832191.4756417-.5397936.7428977-.6369975,1.0012134-1.6416027,1.7538167-2.2682519.4389142-.9418231,1.0934011-1.7932755,1.4250597-2.7652994.4583619-1.3433433,1.045627-2.6629154,1.1079015-4.1204269.0320858-.7509483.2703164-1.4960265.3247012-2.248375.058782-.8130017-.0091922-1.6315589.0162429-2.4473177.0300402-.9622234-.2131192-1.8860062-.2952661-2.8323079-.0567653-.6544043-.2744636-1.2917246-.3265812-1.946158-.0760707-.954762-.3752464-1.8462256-.6487708-2.7396048-.3830986-1.2512112-.7097652-2.5296436-1.3367071-3.690005-.3390245-1.6597904-1.0821998-3.1963606-1.3713938-4.8733931-.2397857-1.3906484-.5338286-2.7707076-.7809882-4.1600082-.0664968-.3738429-.0332015-.766472-.0758492-1.14642-.0420051-.3743093-.1453053-.7407811-.1812852-1.1154435-.0954155-.9934622-.0995592-2.0028267-.2670027-2.9814536-.2761021-1.6136807-.1788345-3.2400797-.1955428-4.8629146-.0125897-1.2227501.3609762-3.5106559.7387637-4.9196484.1597969-.5960237.2719694-1.2049021.4530692-1.7943172.1800514-.5860045.3914131-1.1669454.6410095-1.727847.2306992-.5184953.3810018-1.062477.642513-1.5781699.2480247-.4891131.5129551-.9047359,1.0934138-1.3586528.3180178-.00645.794094-.016105,1.1799452-.0239224l.801319.774806c.0909991.2877943.175842.5561164.2845876.9000723-.0385219.1606556-.1188198.3866288-.1439606.617441-.2010407,1.8461841-.8020989,3.6088791-1.2154048,5.4107487-.3609343,1.5735114-.6784953,3.151417-.8414533,4.7655358-.2809911,2.783209-.185997,5.5567477-.085564,8.3254118.0892711,2.4605845.4833749,4.898139,1.0894036,7.2752778.2510925.9848158.5897518,1.9617881,1.0662187,2.8887376.313638.6102118.5156926,1.3123876.859387,1.9050219.3309491.5706466.3851181,1.2668072.845438,1.7606371.2904672,1.1373486.6850634,2.2579293.8467194,3.4160108.2356354,1.6880747.5034004,3.3852184.4570668,5.1041443-.0473576,1.7576053-.2234683,3.5123708-.6117097,5.2370154-.1530811.6800275-1.0331664,2.9720282-1.7658772,4.0138906-.2188028.311111-.2145838.7321535-.5526614.991976-.3129281.240491-.225676.724765-.5693293.9790479-.318314.2355305-.4818187.5896055-.5831445.9672717-.7290367.5857422-.9593454,1.5479998-1.6511563,2.1637795-.1438533.1280395-.356393.2810659-.3709466.4347677-.0605782.639314-.6892794.9083468-.8932444,1.4563992-.2294178.616449-.5664414,1.1940045-.8173605,1.8039249-.2165965.5263973-.3975648,1.0692011-.5570659,1.6148918-.106318.3637188-.1949729.7446893-.2075001,1.1189162-.025626.7671798-.1284906,1.5693919.0428958,2.2949059.2876809,1.2180224.1360989,2.3463937-.3542553,3.516487Z" stroke-width="0"/>
      <path d="m69.734761,94.5614226c.095931.2687861.1589499.4453919.2233085.62574-.1287922.2962878-.2372879.6096302-.3973025.8947603-.1390985.2478147-.4070414.4421814-.4905467.6991617-.1077036.3315085-.3176699.582403-.472183.8731244-.3979028.7485764-.7477713,1.5245168-1.0762324,2.3058571-.920392,2.1893833-1.6019996,4.4582635-2.3277508,6.71239-.3778161,1.1733943-.7711317,2.3422322-1.1702509,3.508993-.2140397.6256583-.406314,1.266677-.7047212,1.8532712-.1493757.2936126-.2530794.6248116-.4471049.8813567-.2896816.3830645-.6608915.7051682-1.0243852,1.0811002-.2789657.0987836-.5902985.20903-.948012.3357019-.3302843-.0788919-.6925777-.1654265-1.0288107-.2457203l-1.2804329-1.2380677c-.2755056-1.2123795-.6627407-2.4196161-.72906-3.7056876-.0316151-.6133287-.1366435-1.2211201-.2034763-1.8320694-.0616788-.5637011.0624426-1.1445403-.153424-1.6978585-.0640256-.1641336-.0646743-.4015919.0054018-.5641898.2027273-.4702808.079014-.948138.1252831-1.4198704.1249509-1.2737727.2358407-2.5547149.6341785-3.7815255.2311465-.7118876.4719755-1.4359904.9807601-2.0362752.176086-.2077504.2508126-.5009012.3695091-.750128.3937728-.2127917.7661648-.4140268,1.1877351-.6418348.1412357.0120422.3309771.0139155.5141001.0478725.1844667.0342182.3623632.1002949.6142798.1729388l1.0803125,1.0445686c.0817983.2558624.1669908.5223722.2521708.7888699-.0709934.2253552-.1419744.4507225-.2210535.7017995-.3628754.0261031-.7444709.0535571-1.1383769.0818863-.0584085.0604072-.1579118.1171403-.1828669.1960281-.3899513,1.2326951-.6448202,2.4792437-.6631265,3.7786964-.0092438.6574367-.1917212,1.3199403-.1204948,1.9860781.0125449.1173716.1163491.2230059.2127557.3966987.3119435-.6069221.4488706-1.1889237.6313444-1.7563721.666109-2.0716029,1.5625454-4.0481338,2.5775923-5.9763912.2217974-.4213912.3807608-.8740757.7603658-1.1971575.1095502-.093238.2595932-.2044915.2815151-.3251167.1731355-.953005,1.0594309-1.2078944,1.6970441-1.624319.6732403-.4396886,1.5122632-.577876,2.3208596-.2364274.0857048.0361802.1863799.0382678.3110954.0621176Z" stroke-width="0"/>
      <path d="m87.0660846,96.2587392c-.3643916-.3523351-.6589671-.6633386-.9813876-.9423176-.4099527-.3547418-.4553683-.9171028-.7721851-1.3210169-.1576713-1.0257535-.5601571-2.0004749-.4960993-3.0764477.0305597-.513492-.1408422-1.0316022-.1492242-1.5503446-.0114822-.7109922-.0555411-1.4185344.1124768-2.1382478.1615836-.6921477-.0946752-1.433091.2019501-2.1286024.0409057-1.1965318.3115727-2.3511104.7396518-3.525535l.5973006-.6177396c.3499776-.0029086.8256528-.0068711,1.2355029-.0102926.6380166.59093.8211121,1.2919024.8634869,1.9817507.0520814.8480008.0536696,1.7021727-.0650711,2.5698809-.135805.9922393-.1338317,2.0272863-.0057128,3.0156416.1290842.9959867.090303,1.9990425.2051221,2.9869949.2384562.037063.3877692-.1194104.4483996-.2738153.3477586-.885694.9665659-1.6207528,1.3706227-2.479125.3812433-.8099896.7516023-1.6341613,1.2056162-2.4054248.6719542-1.14144,1.2911732-2.3128862,1.9018324-3.4818081.5897349-1.1288215,1.37686-2.1570474,1.798488-3.3712002.4251037-.4018047.634186-.9482458.9648588-1.4094235.3072187-.4284915.7280699-.7766214,1.0870307-1.1478655.4653167-.1651428.9126021-.3238939,1.3544433-.4807165.2327944.0649555.4589167.1280568.7372593.205738-.0292924.2098672-.0359474.4437732-.0967451.6637615-.4808886,1.7391429-1.2913449,3.3508519-2.0649307,4.9726549-.4687073.9826661-.8556135,1.9991713-1.3285588,2.9755647-.4742829.9792276-1.0082748,1.9260311-1.3717479,2.9583231-.2022785.5744735-.5177595,1.1114142-.7853273,1.6638124-.2676168.552499-.5178521,1.1146367-.8148668,1.6514394-.2975188.5376994-.6979764,1.02515-.9524975,1.5792633-.246265.5360947-.5917343.9731038-.9678707,1.4107625-.1799413.2093613-.2125711.5802657-.4179348.7258704-.7258827.5146184-1.3970977,1.1933683-2.3663827,1.1885245-.3720277-.0018768-.7410907-.1148783-1.1875-.1900597Z" stroke-width="0"/>
      <path d="m154.9765846,55.8289189l-1.7330735,1.7923773c-.8127378.5230264-1.6307721.5258203-2.5259238.143118l-.9620278-.9301975c-.7420834-1.5763703-.9920772-3.2465186-1.0045937-4.9685154-.0073281-1.0077722-.0373162-2.016347.0011788-3.0236093.0452423-1.1841576.2426563-2.3542011.5066393-3.5167751.1594361-.7021334.5005604-1.3223757.8126907-2.0352735.3601186-.1016445.7625497-.2152322,1.1897134-.3357885l.865755.83711c.0117267.0813227.0536931.2225205.0487296.3630774-.0252185.712679.0541412,1.4255102-.1462947,2.1377788-.0886026.3148557-.0381959.6684942-.0364632,1.0041354.0057149,1.1038168.0119397,2.2077065.0344279,3.3108851.0034139.1678123.0942083.331951.1667961.5708997.1787398-.1421579.3459108-.2071907.3775772-.3109543.2635926-.8640084.779294-1.6169757,1.0874446-2.4665589.3033941-.8365596.7862277-1.6098389,1.1624855-2.423302.3174346-.6862411.71937-1.3298289,1.0736596-1.9940035.3285487-.6159162.5929806-1.3072734,1.146588-1.795804.3723606-.9872791,1.215683-1.5923391,1.8773799-2.3145241.8648361-.408266,1.6467948-1.0460647,2.7277431-.7226946.1848055.8134658.0359553,1.5640833-.3196009,2.3303225-.496857,1.0707861-1.0627263,2.107889-1.5591865,3.1795655-.2982269.6437889-.5557687,1.3058832-.835212,1.9537335-.8056881,1.8678443-1.4893116,3.7859178-2.2784277,5.6610363-.4198523.9976499-.9615154,1.9459587-1.4414729,2.9197489-.0838015.1699893-.1340775.3559834-.236532.6342123Z" stroke-width="0"/>
      <path d="m185.7992318,37.4173385c-.7142487.2664582-1.2048116.9836965-2.1219606.9720332-.2317033-.0622569-.5472279-.1470335-.8845355-.2376721l-1.0468758-1.0122382c-.7355256-1.8722844-1.012261-3.892406-.8938233-5.9305111.1147727-1.9755577.4555737-3.9473744,1.2917512-5.923593l.8380489-.8667259c.3197484-.0163192.6514981-.033244.9928948-.0506658.1497803.1317249.2880419.2533257.4559623.4010087-.0095138.3232344.0477315.6722518-.0395998.9835664-.7240263,2.581196-.5720414,5.189161-.4978407,7.7772674.3370789.1417777.5122007.1199499.6094897-.0764701.2508666-.50641.431064-1.058647.7491353-1.5177481.3568954-.5151372.58238-1.0795924.8562622-1.6276152.2528637-.5059991.5148307-1.0078056.7831385-1.5060394.6028702-1.119544,1.1552296-2.2712194,1.8395641-3.3404922.4862078-.7597347.7173857-1.6566302,1.3441516-2.3305573.076868-.5919264.5617471-.9772095.8071189-1.4912188.2362034-.494772.7711667-.8517595,1.182064-1.2767173q.9348525-.3427784,1.800068-.2550674c.0059864.1189517.0432444.2531375.0140005.3723553-.2825961,1.1516826-.8049709,2.22177-1.2412441,3.3185223-.3995549,1.0044481-.8567557,1.9910475-1.3217368,2.9702601-.4445033.9361223-.9588339,1.8404797-1.3954261,2.7799014-.377391.8120337-.6995802,1.644669-1.1169938,2.4442406-.413236.7915741-.7494769,1.6248593-1.2012616,2.4010712.0134033.5365117-.5458493.7801947-.6596864,1.247792-.1227164.5040202-.5740154.7595226-.8445773,1.1498778-.1060796.153058-.1641236.3389065-.298088.6254354Z" stroke-width="0"/>
      <path d="m219.3832114,9.0765726c-.1954666.9188692-.2300714,1.7598701-.6493708,2.5433323-.5108489.9545859-.9022875,1.9717014-1.4202267,2.9220639-.4966664.9113776-1.026294,1.8034653-1.4155165,2.7671861-.4898911.4730364-.5755243,1.20675-1.0915205,1.6629609-.1145638.6693579-.7680785.9827385-1.0422259,1.5207049-.4725125.9271693-1.2282543,1.5849045-1.9110254,2.3065226-.7907713.4878265-1.6363694.500042-2.5748837.39959l-.8959293-.866286c-.7630826-1.3949408-.8350931-2.8597265-.8090577-4.344369.0092407-.5269627.0070967-1.0541076-.0012579-1.5807326-.0267982-1.6891665.3600821-3.2776553,1.2440975-4.7790144.3542782-.1878543.7277767-.3859063,1.1634578-.6169268.3562711.0790556.7620444.1690988,1.2027666.266896.1529738.3531191.2978388.6875348.451657,1.0426071-.2638238.3158999-.5079545.6081811-.721052.8633394-.4062866,1.5998044-.268454,3.1747874-.2379782,4.7463137.0024727.1278135.0979795.2518094.1649636.4129582.1458095-.0668784.3009011-.0913532.3800075-.1819213.5005038-.5729104,1.1659664-1.0247661,1.3784006-1.8140287.6667112-.5153308.8774553-1.3576251,1.426357-1.9639555.2475925-.2734492.3722718-.6538564.5858469-.9632128.1885822-.2731777.4891591-.4738802.5208482-.8431112.0038635-.0449429.0204519-.1014703.0516396-.1304234.8830677-.8198846,1.2151733-2.0903575,2.2909795-2.7364984.2890443-.1590842.5780887-.3181684,1.1489744-.6323893.030857-.0000706.3624179-.0007664.7600486-.0016059Z" stroke-width="0"/>
    </g>
  </g>
</svg>