<?xml version="1.0" encoding="UTF-8"?>
<svg id="Layer_2" data-name="Layer 2" xmlns="http://www.w3.org/2000/svg" viewBox="0 0 330.1430664 384.2049771">
  <g id="Layer_1-2" data-name="Layer 1">
    <path d="m52.4682617,271.7010754c1.824707-1.0859375,3.7114258-2.2099609,5.3632812-3.6748047,3.0102539-2.6708984,6.0205078-5.7236328,7.6494141-9.9355469.4829102-1.25.9824219-2.5410156.6855469-4.2910156-.1005859-.1630859-.203125-.3525391-.3115234-.5537109-.2861328-.53125-.6103516-1.1318359-1.0541992-1.5-1.421875-1.1757812-3.1328125-1.8681641-5.0849609-2.0566406-3.4384766-.3349609-6.8398438.6728516-10.7041016,3.1640625-2.8920898,1.8662109-5.5927734,4.3349609-8.7573242,8.0058594-2.1855469,2.5341797-4.0712891,5.3828125-5.6049805,8.4648438-.5791016,1.1630859-1.1298828,2.3701172-1.6625977,3.5380859-.2421875.5302734-.484375,1.0615234-.7294922,1.5898438l-.137207.2949219-.3251953-.0058594c-2.0527344-.0361328-3.7368164-.1464844-5.3007812-.3476562-4.5771484-.5878906-8.1635742-2.9472656-10.9638672-7.2109375-2.3305664-3.5498047-3.675293-7.8662109-4.2314453-13.5849609-.3427734-3.5224609-.1098633-7.3076172.7124023-11.5703125,1.2724609-6.6035156,4.0571289-12.6640625,8.2763672-18.0146484,2.7988281-3.5498047,5.7983398-6.6367188,8.9150391-9.1767578,4.878418-3.9746094,10.3398438-7.8701172,17.1870117-12.2587891l.1948242-.125c3.8515625-2.4667969,7.8339844-5.0185547,11.6689453-7.6611328,5.0385742-3.4707031,9.0766602-7.0380859,12.3457031-10.90625.1069336-.1269531.2182617-.2480469.3300781-.3681641.0888672-.0966797.1777344-.1933594.2636719-.2919922,1.7119141-1.9667969,3.2192383-4.3408203,4.609375-7.2607422,1.6572266-3.4814453,2.7006836-7.3525391,3.1015625-11.5048828.3354492-3.4794922.2114258-7.0830078-.3691406-10.7119141-.1044922-.6542969-.2675781-1.3046875-.4399414-1.9941406-.0825195-.3291016-.1665039-.6660156-.2470703-1.0136719l-.1054688-.4541016.4448242-.1367188c.6962891-.2148438,1.3935547-.4160156,2.0888672-.6162109,1.5380859-.4423828,2.9907227-.8603516,4.4233398-1.421875,4.5063477-1.7666016,8.6489258-3.4921875,12.6640625-5.2773438,3.456543-1.5361328,7.0522461-3.4169922,11.3164062-5.9208984,4.6894531-2.7529297,8.8554688-5.46875,12.7363281-8.3017578,5.2084961-3.7998047,9.6381836-7.5566406,13.5424805-11.4824219l.0751953-.0751953c4.2172852-4.2402344,8.578125-8.6240234,12.2880859-13.5244141.9086914-1.2011719,1.8378906-2.3837891,2.7675781-3.5673828,1.2568359-1.5996094,2.5561523-3.2539062,3.7773438-4.9228516,2.2485352-3.0732422,4.3974609-6.2607422,6.2026367-8.9746094.7324219-1.0996094,1.3911133-2.2431641,2.0888672-3.4541016.3203125-.5556641.6455078-1.1191406.9829102-1.6884766l.5253906-.8847656.3710938.9589844c.3735352.9648438.4731445,1.8935547.5693359,2.7910156.046875.4355469.0927734.8652344.171875,1.2871094.6743164,3.5976562,1.40625,6.7441406,2.2373047,9.6191406,1.3208008,4.5664062,3.0429688,9.1875,5.1196289,13.7353516,1.2231445,2.6796875,2.6738281,5.5576172,4.4355469,8.8007812,1.6650391,3.0673828,3.7719727,6.0908203,6.4399414,9.2441406,3.0048828,3.5527344,5.6933594,6.1933594,8.4599609,8.3095703,2.7993164,2.1416016,5.8012695,4.3876953,9.0200195,6.2412109,5.8066406,3.3457031,12.1621094,6.0107422,18.890625,7.9189453,3.09375.8789062,6.2929688,1.7871094,9.6220703,2.0908203l.7382812.0605469c1.015625.0791016,2.065918.1611328,3.0668945.4667969.8125.2480469,1.6235352.2871094,2.4824219.3291016.309082.0146484.6181641.0292969.9282227.0546875.5161133.0410156,1.0302734.109375,1.5449219.1777344.7402344.0986328,1.4394531.1923828,2.1474609.2070312,3.1489258.0634766,5.9819336.0644531,8.6586914.0009766.8608398-.0205078,1.722168-.1494141,2.6342773-.2851562.4267578-.0634766.8588867-.1279297,1.2988281-.1826172l.4067383-.0507812.1293945.3886719c.0683594.2060547.1416016.3994141.2128906.5869141.1577148.4160156.3071289.8085938.375,1.2402344.7182617,4.5898438,2.6049805,8.6835938,5.6079102,12.1660156,4.3115234,4.9980469,9.9599609,7.7021484,14.3994141,9.4990234,2.4477539.9912109,4.9848633,1.8720703,7.4384766,2.7246094,3.5307617,1.2255859,7.1816406,2.4931641,10.6625977,4.1201172,2.7636719,1.2929688,5.4951172,2.8496094,8.1191406,4.6279297,3.2241211,2.1865234,5.9794922,5.0078125,8.2495117,7.4794922,4.0683594,4.4296875,6.9321289,9.0175781,8.7553711,14.0263672,1.0224609,2.8076172,2.1806641,5.9902344,2.3706055,9.2998047.2045898,3.5585938.3374023,7.0400391-.2749023,10.5097656-.769043,4.3623047-2.2412109,8.3798828-4.4995117,12.28125-2.15625,3.7285156-5.0454102,6.7734375-7.8398438,9.7177734l-.2231445.2353516c-.2714844.2861328-.5634766.5498047-.8623047.8183594l-.7558594.6953125-.3413086-.3320312c-.1577148-.1533203-.3012695-.3017578-.4370117-.4423828-.253418-.2617188-.472168-.4873047-.7045898-.6630859-4.1103516-3.0947266-9.6723633-6.8681641-16.2583008-8.5898438-.5415039-.1416016-1.0830078-.2929688-1.625-.4443359-1.6811523-.4707031-3.4194336-.9580078-5.1313477-1.1162109-2.0410156-.1894531-4.4638672-.3046875-6.9501953.2705078-2.0854492.4833984-4.5151367,1.1845703-6.7265625,2.7158203-2.7700195,1.9179688-4.3779297,4.1142578-5.0595703,6.9101562-.1791992.7324219-.3227539,1.4746094-.4648438,2.2050781l-.1699219.8603516c.0317383.1005859.0664062.1982422.1000977.2949219.1113281.3193359.2265625.6484375.2485352,1.0087891.1240234,2.046875,1.1137695,3.6992188,2.1645508,5.1796875,1.6787109,2.3662109,4.0410156,4.1074219,7.434082,5.4765625,3.1362305,1.2666016,6.4238281,1.8701172,9.7675781,1.7744141.6381836-.0166016,1.2700195-.1015625,1.9389648-.1914062.6464844-.0869141,1.3154297-.1767578,1.9873047-.1992188.9248047-.0302734,1.8115234-.234375,2.75-.4501953.4863281-.1123047.972168-.2236328,1.4628906-.3105469,2.2763672-.4033203,4.46875-1.3066406,6.5893555-2.1806641l.7592773-.3115234c1.5761719-.6425781,3.1391602-1.4609375,4.6503906-2.2519531.6899414-.3603516,1.3813477-.7226562,2.0800781-1.0722656l.4975586-.2490234.1948242.5214844c.4858398,1.3046875.9819336,2.8652344.9750977,4.5517578-.003418.8925781-.0014648,1.7851562.0004883,2.6777344.0019531.7802734.0039062,1.5605469.0019531,2.3398438-.0039062,1.7792969-.4267578,3.484375-.8227539,4.9423828-1.2646484,4.6533203-3.1274414,9.109375-4.9291992,13.4189453-.4614258,1.1044922-.9228516,2.2080078-1.375,3.3154297-1.3007812,3.1884766-2.9731445,7.4013672-4.3681641,11.7236328-1.4443359,4.4736328-2.6088867,9.0605469-3.4614258,13.6318359l-.0966797.515625c-.4379883,2.3398438-.8916016,4.7587891-.9682617,7.1005859l-.0380859,1.1494141c-.1958008,5.8291016-.3979492,11.8564453.7841797,17.6826172l.2265625,1.1201172c.5263672,2.6113281,1.0708008,5.3105469,1.7670898,7.90625,1.5336914,5.7138672,3.7539062,11.1474609,6.5986328,16.1503906,2.8857422,5.0722656,5.9086914,8.6240234,9.5146484,11.1796875,3.1367188,2.2226562,6.8037109,3.5576172,11.2099609,4.0820312,2.5507812.3027344,5.2841797-.3066406,8.3515625-1.8652344,1.28125-.6503906,2.3491211-1.2333984,3.2402344-2.1669922-1.4628906-2.3818359-3.6064453-2.2929688-5.6816406-2.2148438l-.2583008.0097656c-.5581055.2197266-1.0991211.453125-1.6318359.6835938-2.1923828.9453125-4.2680664,1.8378906-6.8476562,1.5273438l-.1469727-.0175781-.1132812-.0947266c-.2436523-.2021484-.5097656-.4082031-.7856445-.6210938-.6552734-.5068359-1.3979492-1.0800781-2.0351562-1.7685547-1.9628906-2.1230469-3.6513672-4.7226562-5.3129883-8.1816406-2.5292969-5.2646484-4.21875-10.1259766-5.1645508-14.8613281l-.1621094-.8076172c-.4189453-2.0888672-.8525391-4.2480469-1.1396484-6.4238281l-.1630859-1.2050781c-.2871094-2.0908203-.5834961-4.2519531-.5795898-6.4169922l.0004883-1.0625c.0004883-2.7695312.0004883-5.6337891.2924805-8.4794922.3642578-3.5517578.7875977-6.8164062,1.2944336-9.9824219.9038086-5.6464844,2.4780273-11.0136719,3.7485352-15.0585938,1.15625-3.6826172,2.7084961-8.53125,4.4633789-13.3886719,1.6547852-4.5791016,2.7280273-9.3300781,3.6416016-13.7822266.3256836-1.5869141.375-3.2900391.4228516-4.9365234l.0249023-.8007812c.0126953-.3955078-.0683594-.8105469-.1542969-1.2509766-.0859375-.4414062-.175293-.8984375-.1743164-1.3710938.0063477-3.0019531-.9790039-5.7138672-1.8383789-7.7412109-.5380859-1.2705078-1.2231445-2.5078125-1.8857422-3.7041016-.3037109-.5478516-.6069336-1.0957031-.8984375-1.6474609l-.1845703-.3505859.2988281-.2597656c3.2480469-2.828125,6.3745117-5.6533203,8.9135742-9.1074219,2.6381836-3.5888672,4.4614258-6.7382812,5.737793-9.9130859,1.7436523-4.3388672,2.2167969-8.96875,2.4677734-13.3251953.0258789-.4541016-.0620117-.9316406-.1547852-1.4375-.0825195-.4482422-.1679688-.9121094-.1767578-1.3896484-.043457-2.3671875-.578125-4.5966797-1.1499023-6.6533203-1.9799805-7.1308594-5.5649414-13.7861328-10.9589844-20.3447266-2.7978516-3.4023438-6.1538086-6.0556641-9.3510742-8.4824219-3.840332-2.9150391-8.2270508-4.9853516-12.0371094-6.6982422-2.2612305-1.0175781-4.6401367-1.8720703-6.9404297-2.6982422-1.3706055-.4921875-2.7412109-.9853516-4.0986328-1.5136719l-.453125-.1757812c-2.0297852-.7890625-4.128418-1.6035156-6.1079102-2.6269531-4.2011719-2.1728516-7.0927734-5.7539062-8.5942383-10.6455078-.1508789-.4921875-.2133789-1.0039062-.2734375-1.4980469-.0664062-.5458984-.1289062-1.0615234-.3022461-1.5097656-.3652344-.9443359-.3496094-1.8603516-.3349609-2.7460938.0068359-.3994141.0146484-.7988281-.0175781-1.1972656-.0166016-.2089844-.0390625-.4189453-.0610352-.6298828-.1118164-1.0537109-.2270508-2.1425781.2880859-3.1992188l.0991211-.2041016.2182617-.0595703c3.4316406-.9375,6.5244141-2.0957031,9.4545898-3.5400391,3.9047852-1.9257812,7.4326172-4.640625,10.484375-8.0693359,4.6650391-5.2431641,7.3759766-10.421875,8.53125-16.2978516.6513672-3.3125-.8476562-7.3945312-3.4125977-9.2929688-3.706543-2.7451172-8.046875-3.6484375-14.0756836-2.9277344-2.5429688.3027344-5.2587891,1.5302734-8.0717773,3.6484375-3.3076172,2.4892578-6.2563477,5.8515625-8.765625,9.9931641-2.0087891,3.3154297-3.5336914,6.7089844-4.5322266,10.0869141-1.512207,5.1171875-2.4794922,9.4707031-2.2851562,14.0800781.0107422.2597656.0078125.5185547.0048828.7607422l-.0024414.7412109-.4448242.0498047c-.640625.0712891-1.2651367.1552734-1.8789062.2382812-1.3408203.1806641-2.6074219.3515625-3.9033203.3769531-5.1450195.0976562-11.1289062.1308594-17.0595703-.7763672l-.1665039-.0253906c-3.1435547-.4814453-6.394043-.9785156-9.4423828-2.0146484-6.3798828-2.1689453-13.7749023-5.0947266-20.2456055-10.3544922-4.487793-3.6474609-7.9208984-7.0791016-10.8037109-10.8007812-3.2358398-4.1777344-6.0483398-8.8769531-8.5981445-14.3662109-1.8569336-3.9990234-3.2587891-7.2919922-4.4130859-10.3642578-1.09375-2.9111328-2.453125-6.7714844-3.2597656-10.8203125-.1855469-.9306641-.4125977-1.8535156-.6396484-2.7763672-.3662109-1.4902344-.7446289-3.0302734-.940918-4.5878906-.0551758-.4375-.1547852-.8779297-.2597656-1.3447266-.2714844-1.2021484-.5795898-2.5654297-.0415039-3.9931641l.1132812-.3017578.3212891-.0214844c1.2285156-.0800781,2.0600586.5595703,2.7861328,1.2626953l.6616211.6464844c.8955078.8789062,1.8208008,1.7880859,2.8046875,2.5429688,1.1381836.8730469,2.265625,1.7597656,3.3930664,2.6474609,2.4594727,1.9355469,5.0029297,3.9375,7.6108398,5.7421875,3.7509766,2.5966797,7.4936523,5.3496094,11.1132812,8.0126953,1.980957,1.4570312,3.9619141,2.9140625,5.9536133,4.3535156,3.6049805,2.6054688,6.6455078,4.7060547,10.2060547,6.0478516,5.0561523,1.9052734,9.0576172,2.6640625,12.9960938,2.4697266.3007812-.0146484.6035156-.0097656.9042969-.0048828.3295898.0078125.6586914.0117188.9858398-.0126953.4858398-.0400391.9755859-.0664062,1.4648438-.09375,1.21875-.0664062,2.4790039-.1357422,3.6518555-.4140625,4.9975586-1.1865234,8.8588867-2.7441406,12.152832-4.9023438,4.6738281-3.0615234,8.1240234-7.03125,10.2543945-11.7988281,1.5283203-3.4199219,2.2397461-6.3457031,2.2392578-9.2089844,0-.3378906.0722656-.6513672.1420898-.953125.046875-.203125.0957031-.40625.1123047-.6113281.0356445-.4248047.0288086-.9023438-.0200195-1.4599609-.0224609-.2548828-.0654297-.5068359-.1079102-.7597656-.0571289-.3378906-.112793-.6757812-.1308594-1.015625-.0664062-1.3066406-.1430664-2.4863281-.4013672-3.703125-.8950195-4.2236328-2.3701172-7.9716797-4.5092773-11.4580078-.4658203-.7597656-.9111328-1.5341797-1.3515625-2.3007812l-.7539062-1.3027344.1625977-.2568359c.1679688-.265625.3227539-.5185547.4711914-.7626953.3066406-.5019531.5961914-.9765625.9228516-1.4228516,5.2216797-7.1289062,8.3032227-15.4228516,9.1586914-24.6503906.3901367-4.2041016.1679688-7.9648438-.6791992-11.4970703-1.1542969-4.8134766-3.2280273-8.9306641-6.3398438-12.5869141-2.5341797-2.9785156-5.5385742-5.2050781-9.184082-6.8066406-3.574707-1.5712891-7.1479492-2.4873047-10.6201172-2.7216797-2.784668-.1884766-6.0698242-.3027344-9.3208008.2734375-2.1464844.3798828-4.6337891.8486328-6.9892578,1.609375-5.4804688,1.7724609-10.7519531,4.4384766-16.1152344,8.1503906-4.1557617,2.8769531-8.1313477,6.0556641-11.8168945,9.4482422-3.4604492,3.1845703-6.4672852,6.7753906-9.4975586,10.4814453-1.2041016,1.4716797-2.3149414,3.0898438-3.3896484,4.6542969-.640625.9326172-1.2807617,1.8652344-1.9448242,2.7763672-2.5390625,3.4814453-4.9868164,7.4199219-7.7036133,12.3955078-.9428711,1.7255859-1.8911133,3.4482422-2.8383789,5.1679688l-1.7919922,3.2578125-.4619141-.6455078c-.5913086-.8251953-1.1826172-1.6347656-1.7685547-2.4375-1.3212891-1.8105469-2.5693359-3.5195312-3.7675781-5.3271484-2.8491211-4.2988281-6.2651367-8.2001953-9.5688477-11.9726562l-.0957031-.109375c-4.1235352-4.7080078-8.543457-9.0576172-13.1367188-12.9267578-2.824707-2.3798828-6.6118164-5.3984375-10.859375-7.6337891-.9672852-.5087891-1.9448242-.9941406-2.921875-1.4804688-.8378906-.4169922-1.675293-.8330078-2.5068359-1.2636719-3.4228516-1.7724609-7.2866211-3.1884766-12.159668-4.4541016l-1.1831055-.3115234c-2.4833984-.6542969-5.0512695-1.3320312-7.6464844-1.6347656-.7441406-.0878906-1.4853516-.2167969-2.2265625-.3457031-1.3393555-.2324219-2.7294922-.4765625-4.0834961-.4375-.847168.0214844-1.6953125.0019531-2.543457-.0185547-1.9780273-.0488281-3.8486328-.09375-5.7329102.3789062-.7006836.1748047-1.4194336.2236328-2.1147461.2705078-.7753906.0527344-1.5078125.1025391-2.1884766.3164062-3.8774414,1.2138672-8.0004883,2.6826172-11.8803711,5.1933594-4.0410156,2.6142578-7.2578125,5.8496094-9.8339844,9.8916016-2.503418,3.9287109-3.7202148,8.2919922-3.6166992,12.96875.0083008.3896484.0888672.7880859.1743164,1.2109375.0766602.3779297.1557617.7695312.1845703,1.1748047.2070312,2.8964844,1.1660156,5.7529297,2.8500977,8.4912109,2.5209961,4.0986328,5.3027344,7.4648438,8.5039062,10.2910156,3.972168,3.5068359,7.2983398,6.1875,10.4677734,8.4335938l1.7880859,1.2451172-1.8925781,1.2158203c-.7749023.4941406-1.4438477.921875-2.1035156,1.3652344-3.9677734,2.6699219-6.7988281,5.359375-8.9086914,8.4638672-.0825195.1220703-.1787109.2363281-.2753906.3496094-.1098633.1289062-.2133789.25-.2685547.3662109-.2124023.4492188-.4106445.9082031-.6088867,1.3662109-.3193359.7402344-.6499023,1.5048828-1.0405273,2.2294922-.8271484,1.5351562-.9916992,3.2158203-1.1660156,4.9951172l-.0854492.8417969c-.2900391,2.6894531.6381836,5.1416016,1.6137695,7.4238281.4560547,1.0673828,1.0966797,2.4179688,2.0068359,3.3935547,1.2910156,1.3847656,2.793457,2.6884766,4.4663086,3.8730469.762207.5410156,1.5810547.96875,2.4477539,1.421875.8183594.4277344,1.6650391.8710938,2.4506836,1.4140625,1.7827148,1.2324219,3.9467773,1.8818359,6.8110352,2.0449219.4633789.0263672.9277344.0585938,1.3935547.0908203,2.4545898.1728516,4.9931641.3486328,7.4179688-.390625.6582031-.2001953,1.3354492-.2792969,1.9902344-.3554688.3735352-.0429688.7470703-.0869141,1.1157227-.1533203.8310547-.1513672,1.659668-.3203125,2.4882812-.4892578l1.3417969-.2705078c1.7001953-.3359375,3.2431641-1.0615234,4.8759766-1.8291016.5839844-.2744141,1.168457-.5498047,1.7602539-.8056641,2.921875-1.2646484,5.6386719-3.0537109,8.2666016-4.7841797.5366211-.3535156,1.0737305-.7070312,1.612793-1.0576172.7963867-.5166016,1.5776367-1.1123047,2.3334961-1.6894531.7924805-.6044922,1.6123047-1.2294922,2.4663086-1.7792969,1.3525391-.8691406,2.7480469-1.7070312,4.0976562-2.5185547,1.6210938-.9746094,3.2973633-1.9824219,4.8999023-3.0429688,3.2329102-2.140625,6.3178711-3.7236328,9.4306641-4.8398438,1.3164062-.4707031,2.6665039-.8935547,3.972168-1.3017578.7148438-.2226562,1.4296875-.4462891,2.1416016-.6787109.9213867-.2998047,1.840332-.6103516,2.7587891-.9208984l.9794922-.3857422.0551758-.1171875.3334961-.1035156.034668.0126953.2363281-.0205078.1181641.1699219.1665039.0976562-.0019531.2880859c-.0014648.1660156-.0620117.2705078-.1572266.3554688,0,0-.0004883,0-.0004883.0009766l-.0908203.1933594-.1772461.0595703c-.050293.0693359-.1005859.1396484-.1503906.2099609-.2397461.3369141-.4873047.6855469-.7895508.9912109-.4482422.4560547-.9116211.8964844-1.3745117,1.3359375-.6225586.5917969-1.2661133,1.203125-1.8549805,1.8398438-.5463867.5917969-1.0664062,1.2431641-1.5693359,1.8740234-.3999023.5009766-.800293,1.0019531-1.21875,1.4833984-1.9355469,2.2246094-3.8828125,4.4384766-5.8300781,6.6513672l-2.2666016,2.5722656c-.0532227.0585938-.1064453.1152344-.15625.1767578-.6064453.7412109-1.2026367,1.4921875-1.7993164,2.2441406-1.2954102,1.6328125-2.6352539,3.3212891-4.0649414,4.8759766-.9926758,1.0791016-1.9736328,2.1708984-2.9545898,3.2636719-2.9912109,3.3310547-6.0839844,6.7753906-9.4902344,9.78125-.7519531.6640625-1.4882812,1.3496094-2.2241211,2.0351562-1.2026367,1.1210938-2.4462891,2.2802734-3.746582,3.3251953-2.0488281,1.6474609-4.2060547,3.2021484-6.2924805,4.7060547l-1.5883789,1.1474609c-3.5639648,2.5849609-7.4243164,4.7705078-10.8305664,6.6992188-4.3666992,2.4716797-9.1123047,4.6689453-14.5073242,6.7177734l-.5131836.1943359-.1464844-.5283203c-.840332-3.0351562-2.0439453-5.9111328-3.5766602-8.5488281-1.3491211-2.3203125-2.8745117-4.7578125-4.8842773-6.8554688-1.5786133-1.6484375-3.4873047-3.5585938-5.6728516-5.2333984-3.3686523-2.5791016-6.3823242-4.3701172-9.4829102-5.6367188-5.0498047-2.0625-9.3706055-2.8486328-13.6040039-2.4746094-.3632812.0322266-.7299805.0556641-1.0976562.0800781-1.1269531.0722656-2.2919922.1474609-3.3251953.4902344-5.3808594,1.7851562-9.0517578,4.6503906-11.5522461,9.0166016-1.7709961,3.0927734-2.3745117,6.6220703-1.7929688,10.4912109.699707,4.6552734,3.1665039,8.5800781,7.5415039,11.9960938,2.9145508,2.2773438,6.2158203,3.9179688,10.0922852,5.0166016,5.1791992,1.4677734,9.1738281,2.1035156,12.9589844,2.0527344.875-.0097656,1.7485352.0097656,2.6230469.0302734,2.2109375.0498047,4.5009766.1044922,6.7158203-.3964844,1.0239258-.2324219,2.0756836-.3037109,3.0927734-.3730469.6455078-.0439453,1.2910156-.0878906,1.9296875-.1728516.8535156-.1132812,1.7060547-.2861328,2.6088867-.46875.4238281-.0859375.8569336-.1728516,1.3051758-.2578125l.5927734-.1123047v.6035156c0,.6376953-.0039062,1.2734375-.0083008,1.9072266-.0087891,1.3886719-.0180664,2.8232422.019043,4.2265625.0683594,2.6015625-.5478516,5.1474609-1.0917969,7.3925781-1.3398438,5.5322266-3.9545898,10.5292969-7.7719727,14.8554688-2.234375,2.53125-4.6977539,4.8535156-7.3222656,6.9033203-4.0297852,3.1455078-8.4008789,5.8759766-12.628418,8.515625l-1.3222656.8261719c-4.7680664,2.9853516-9.0625,5.6923828-13.328125,8.6035156-4.8959961,3.3408203-11.1474609,7.9863281-16.0756836,14.3085938-1.5737305,2.0185547-2.9331055,4.1669922-4.0400391,6.3847656-2.6289062,5.2646484-3.9213867,10.9677734-3.8408203,16.9521484l.0107422,1.0185547c.0214844,2.3222656.043457,4.7236328.5341797,6.9775391.8798828,4.0458984,2.0507812,7.4736328,3.5791016,10.4794922,2.1118164,4.1533203,4.6967773,7.3408203,7.9008789,9.7441406,3.5302734,2.6484375,7.5087891,4.2802734,11.8242188,4.8505859.9233398.1230469,1.8422852.2802734,2.8144531.4472656.4677734.0800781.9482422.1621094,1.4472656.2441406l.4956055.0810547-.0830078.4951172c-.0546875.3271484-.1220703.6542969-.1889648.9804688-.1416016.6875-.2753906,1.3378906-.2919922,1.9853516l-.0053711.2011719c-.1108398,4.265625-.2260742,8.6777344.7895508,12.9169922.5415039,2.2607422,1.043457,4.5322266,1.5454102,6.8037109.340332,1.5400391.6806641,3.0791016,1.0332031,4.6152344.1489258.6494141.3242188,1.2919922.4995117,1.9345703.265625.9746094.5405273,1.9833984.7197266,3.0068359.1430664.8193359.3154297,1.6347656.487793,2.4492188.3979492,1.8828125.8095703,3.8271484.8540039,5.8320312.4536133.7832031.4194336,1.6181641.3886719,2.359375-.0151367.3671875-.0292969.7148438.0107422,1.0429688.0375977.3134766.0805664.6269531.1235352.9394531.1083984.7890625.2202148,1.6054688.2519531,2.4238281.112793,2.8720703-.3613281,5.7089844-.8198242,8.4521484l-.0556641.3320312c-.4052734,2.4287109-1.1958008,4.7890625-2.3491211,7.0146484-2.1069336,4.0664062-4.9765625,7.5175781-7.5053711,10.3574219-2.3896484,2.6845703-4.9423828,5.2773438-7.4111328,7.7851562-1.0776367,1.0947266-2.1552734,2.1894531-3.2231445,3.2949219-.2001953.2089844-.3422852.3564453-.4941406.4902344-.7397461.6572266-1.4824219,1.3115234-2.2250977,1.9658203-1.5209961,1.3398438-3.0424805,2.6806641-4.5410156,4.0478516-2.4130859,2.203125-5.3095703,4.7548828-8.4990234,6.9824219-.1552734.1083984-.3027344.2929688-.4731445.5058594-.0029297.0029297-.0058594.0068359-.0087891.0107422.0507812.0537109.1005859.1074219.1499023.1601562.5146484.5478516.9213867.9814453,1.5732422,1.2177734,1.7670898.6416016,3.5620117.5771484,5.3344727-.1884766,1.4067383-.6083984,2.8925781-1.4589844,4.6762695-2.6767578,5.3388672-3.6464844,10.3129883-7.8154297,14.8930664-11.7763672,2.3925781-2.0693359,4.6796875-4.3447266,6.8911133-6.5458984.7207031-.7177734,1.4414062-1.4345703,2.1665039-2.1455078,2.3808594-2.3369141,4.4257812-5.0166016,6.6616211-8.0234375,1.5908203-2.1416016,2.7705078-4.4482422,3.5073242-6.8544922l.1743164-.5683594c.7275391-2.3632812,1.4799805-4.8076172,1.5551758-7.2734375.1347656-4.4238281.1953125-9.1367188-.6572266-13.8496094-.7451172-4.1181641-1.4394531-7.8212891-2.394043-11.4433594-1.8759766-7.1181641-2.9760742-12.6210938-3.5668945-17.8398438-.5395508-4.7636719-.0454102-9.0507812,1.4692383-12.7431641l.0908203-.2216797.8295898-.2421875c.4135742-.1181641.8154297-.2324219,1.2114258-.3662109,2.699707-.9130859,5.1181641-1.7783203,7.371582-3.1240234l.5307617-.3164062Zm247.8745117-15.9296875c-.6914062.3955078-1.3544922.7861328-2.0004883,1.1669922-1.4047852.8271484-2.7319336,1.6083984-4.1083984,2.2978516-2.9516602,1.4775391-5.4160156,2.4902344-7.7543945,3.1884766-1.8652344.5556641-4.1865234,1.2480469-6.5463867,1.46875-.3725586.0341797-.7446289.0947266-1.1166992.1542969-.6054688.0976562-1.2265625.1982422-1.8642578.1982422-.2075195,0-.4160156-.0107422-.6269531-.0351562-.4750977-.0556641-.9389648-.1630859-1.3876953-.2675781-.3525391-.0820312-.7060547-.1650391-1.0629883-.2197266l-.1083984-.0292969c-1.9428711-.7724609-3.2543945-1.8525391-4.1274414-3.3994141-1.8383789-3.2558594-1.7314453-6.5751953.3276367-10.1474609,1.9091797-3.3125,4.9077148-4.6494141,7.8637695-5.6015625,3.0092773-.9716797,5.8842773-.0742188,8.4208984.7167969,3.0512695.9511719,5.9824219,2.4345703,8.7114258,4.4091797,1.9833984,1.4335938,3.737793,3.1347656,5.5219727,5.3525391l.3671875.4570312-.5087891.2900391Zm-34.5307617-112.2099609c.65625-3.6962891,1.7143555-7.3554688,3.1445312-10.8740234,1.5161133-3.7304688,3.3583984-7.0507812,5.4765625-9.8671875,2.0917969-2.78125,4.6240234-5.8955078,8.2124023-7.6386719.5224609-.2539062,1.0581055-.4775391,1.5991211-.7041016l1.0092773-.4287109.2358398.1972656c1.5839844,1.3232422,2.3588867,3.1279297,2.5136719,5.8525391.237793,4.1962891-1.0039062,8.1083984-3.9077148,12.3125-2.5234375,3.6533203-5.2524414,6.4111328-8.3427734,8.4326172-1.6455078,1.0761719-3.402832,1.9960938-5.1025391,2.8847656-.5805664.3046875-1.1616211.6083984-1.7387695.9189453-.4775391.2568359-.9780273.4560547-1.5078125.6679688-.2504883.0996094-.5131836.2041016-.7895508.3212891l-.6342773.2695312-.059082-.6865234c-.0151367-.1738281-.0400391-.3408203-.0644531-.5029297-.0556641-.3769531-.1137695-.7666016-.0444336-1.1552734Zm-81.7368164-95.0439453c.3671875-.5166016.7182617-1.0195312,1.0615234-1.5107422.7319336-1.0478516,1.4228516-2.0371094,2.1591797-2.9990234,3.3901367-4.4296875,6.4731445-8.3955078,9.875-12.0839844.5439453-.5898438,1.0654297-1.2382812,1.5698242-1.8652344.7211914-.8974609,1.4667969-1.8242188,2.3125-2.6279297.7724609-.734375,1.534668-1.4804688,2.2973633-2.2275391,2.3032227-2.2568359,4.6850586-4.5898438,7.3359375-6.5273438.8422852-.6162109,1.6660156-1.3134766,2.4628906-1.9873047.9829102-.8310547,1.9990234-1.6904297,3.0795898-2.4257812,4.4282227-3.0146484,9.2954102-6.0703125,14.878418-8.0019531,4.8134766-1.6650391,9.5522461.1474609,12.3813477,2.4023438,3.690918,2.9404297,6.4726562,6.5976562,8.269043,10.8701172,1.0234375,2.4326172,1.6674805,5.0732422,1.9145508,7.8466797.0419922.4697266.0927734.9404297.1435547,1.4101562.1083984,1.0058594.2211914,2.046875.2431641,3.0830078.0654297,3.0566406-.4516602,6.0693359-.9516602,8.9824219l-.1831055,1.0751953c-.6328125,3.75-2.0463867,7.109375-3.5429688,10.6650391-.2509766.5966797-.5048828,1.2001953-.7583008,1.8125l-.2255859.5458984-.5014648-.3134766c-1.0058594-.6279297-1.9736328-1.2714844-2.9257812-1.9033203-2.2763672-1.5126953-4.4267578-2.9414062-6.7983398-3.9765625-3.2172852-1.4042969-6.6435547-2.6318359-10.4746094-3.7529297-3.159668-.9238281-6.5566406-1.5390625-10.6889648-1.9365234-3.1616211-.3046875-6.5942383-.3173828-11.1303711-.0410156-3.3833008.2060547-6.9125977.9335938-10.7895508,2.2255859-2.3710938.7890625-4.6772461,1.7177734-7.1186523,2.7011719-1.0830078.4365234-2.1811523.8789062-3.3056641,1.3164062l-1.5585938.6074219.9697266-1.3632812Zm-6.3461914,18.0986328c1.4833984-1.4638672,2.9672852-2.9287109,4.4580078-4.3837891,1.3676758-1.3349609,2.6044922-2.5136719,3.7822266-3.6025391,4.6103516-4.2626953,9.5664062-7.3388672,15.1508789-9.4033203,4.4150391-1.6318359,9.1308594-2.1943359,14.4145508-1.7226562,6.2470703.5595703,12.184082,2.5039062,17.6464844,5.7792969,3.6318359,2.1787109,6.8222656,4.8818359,9.7543945,8.2626953l.2661133.3066406-.2460938.3232422c-.1494141.1962891-.293457.4023438-.4375.609375-.3408203.4882812-.6928711.9921875-1.1381836,1.4130859-.484375.4560547-1.0063477.8720703-1.5107422,1.2744141-.7319336.5830078-1.4233398,1.1337891-2.0097656,1.7988281-1.4946289,1.6962891-3.3666992,2.4619141-5.0043945,3.0458984-2.425293.8671875-5.0507812,1.4677734-8.5141602,1.9462891l-.762207.1103516c-.9755859.1455078-1.9726562.2929688-2.9575195.2929688-.5556641,0-1.1074219-.046875-1.6494141-.1679688-.8369141-.1875-1.6733398-.2324219-2.559082-.2802734-1.0541992-.0566406-2.1445312-.1152344-3.2358398-.4345703-1.2670898-.3701172-2.6303711-.5322266-3.9487305-.6894531-.7802734-.0927734-1.5615234-.1865234-2.3334961-.3193359-2.2871094-.3964844-4.6010742-.8564453-6.8388672-1.3017578l-.4951172-.0986328c-1.1943359-.2363281-2.3823242-.5087891-3.5703125-.78125-.9624023-.2207031-1.9248047-.4414062-2.8911133-.6435547-2.3681641-.4941406-4.902832-.5683594-8.2211914-.2392578l-.2607422.0263672c-2.7475586.2714844-5.5888672.5527344-8.0458984,2.1425781l-.4257812.2753906-.7661133-1.2226562,2.3496094-2.3164062Zm-1.7602539,6.8251953c1.980957-.9003906,3.6420898-.9277344,5.2480469-.9541016,4.0126953-.0644531,7.5644531.3798828,10.8745117,1.3583984,1.0097656.2988281,2.065918.5292969,3.0878906.7529297,1.8476562.4033203,3.7583008.8203125,5.5454102,1.6630859,1.8735352.8828125,3.8969727,1.34375,5.8535156,1.7880859.4638672.1064453.9277344.2119141,1.3901367.3222656,1.2861328.3085938,2.6689453.3818359,4.0058594.4521484.4384766.0234375.8764648.046875,1.3120117.0771484,2.4863281.1757812,5.0859375.3330078,7.9472656.4794922,4.0214844.1943359,7.8095703-1.0449219,11.2993164-2.4267578.3481445-.1376953.7001953-.2666016,1.0527344-.3955078.7661133-.2802734,1.4902344-.5458984,2.1811523-.9013672,2.3662109-1.2177734,4.8452148-2.6201172,6.9487305-4.6132812.7597656-.7197266,1.5800781-1.3525391,2.4492188-2.0224609.40625-.3125.824707-.6357422,1.2543945-.9804688l.5292969-.4257812.2490234.6328125c.1459961.3710938.2939453.7363281.4404297,1.0986328.3188477.7880859.6318359,1.5625.909668,2.3505859,1.4418945,4.09375,2.0136719,8.2324219,1.7001953,12.3027344-.1933594,2.5039062-.6826172,4.8017578-1.4545898,6.8291016-.7602539,1.9980469-1.7280273,4.3203125-3.1401367,6.3994141-3.4213867,5.0380859-7.8286133,8.2578125-13.0991211,9.5712891-1.7099609.4257812-3.4194336.6386719-5.1225586.6386719-3.5722656,0-7.1191406-.9355469-10.5947266-2.8007812-3.8618164-2.0712891-7.7368164-4.6728516-12.5639648-8.4355469-1.1489258-.8964844-2.3544922-1.7607422-3.5200195-2.5976562-1.0634766-.7626953-2.1269531-1.5263672-3.1674805-2.3242188-2.9829102-2.2851562-6.0957031-4.7304688-9.2519531-7.2675781-1.4750977-1.1855469-2.9355469-2.3925781-4.3955078-3.5996094-1.5146484-1.2519531-3.0288086-2.5039062-4.5600586-3.7324219-.6650391-.5332031-1.3759766-.9941406-2.1992188-1.5263672-.4057617-.2626953-.8320312-.5390625-1.2822266-.84375l-.7402344-.5.8129883-.3691406Zm-96.1899414-12.4355469c-2.6577148-2.4990234-4.7685547-4.6259766-6.6416016-6.6933594-2.4233398-2.6748047-4.1835938-5.3427734-5.3813477-8.1582031-.9438477-2.2158203-1.9116211-4.8867188-1.9384766-7.8876953-.0039062-.4013672-.0849609-.8164062-.1708984-1.2558594-.0424805-.2177734-.0849609-.4375-.1196289-.6582031l-.012207-.078125.0126953-.0791016c.0322266-.1982422.0722656-.3994141.1132812-.6044922.0830078-.4150391.1689453-.8447266.1782227-1.2539062.0854492-3.6748047,1.3129883-7.1083984,3.9814453-11.1347656,3.2851562-4.9560547,7.9477539-8.3408203,14.6733398-10.6523438,1.137207-.3916016,2.4487305-.6181641,4.0097656-.6923828,2.2915039-.1103516,4.3564453-.1845703,6.4248047.0439453,2.2216797.2441406,4.5004883.7080078,6.7724609,1.3789062,3.3720703.9951172,6.7895508,2.0048828,10.0405273,3.5009766,4.7753906,2.1972656,8.300293,4.1982422,11.4291992,6.4892578,3.1567383,2.3115234,6.2631836,5.046875,9.7753906,8.609375,1.0820312,1.0957031,2.1245117,2.2587891,3.1333008,3.3818359.6206055.6923828,1.2416992,1.3847656,1.8740234,2.0644531,4.331543,4.6591797,8.2304688,10.0537109,11.5883789,16.0341797,1.2304688,2.1923828,2.6542969,4.3203125,4.03125,6.3779297.6650391.9931641,1.3300781,1.9873047,1.9780273,2.9931641.1054688.1640625.1625977.3378906.2285156.5390625.0327148.0996094.0708008.2158203.1220703.3525391l.3452148.9277344-.9516602-.2724609c-.6801758-.1943359-1.3486328-.3759766-2.0068359-.5546875-1.4570312-.3955078-2.8330078-.7685547-4.2055664-1.2460938-3.6523438-1.2724609-7.5195312-2.3271484-11.4951172-3.1337891-.831543-.1689453-1.6577148-.3740234-2.4838867-.578125-1.0273438-.2548828-2.0898438-.5175781-3.137207-.7001953-1.4575195-.2529297-3.0209961-.4101562-4.9208984-.4941406-1.0600586-.0458984-2.1298828-.1445312-3.1645508-.2392578-1.9677734-.1796875-4.0019531-.3671875-5.9956055-.1972656-.8149414.0693359-1.628418.1523438-2.4418945.2363281-.5664062.0576172-1.1323242.1152344-1.6987305.1689453-.4780273.0449219-.9555664.0537109-1.4335938.0625-.9067383.0166016-1.7631836.0322266-2.6235352.296875-.7485352.2304688-1.5307617.2851562-2.2871094.3378906-.4912109.0351562-.9990234.0703125-1.4804688.1542969-4.3955078.7685547-7.956543,1.6035156-11.2070312,2.6289062-2.6459961.8359375-5.7709961,1.8808594-8.8867188,3.2988281-.1679688.0761719-.3383789.1435547-.5698242.2353516l-.7294922.2919922-.2290039-.1835938c-.4208984-.3378906-.8618164-.6787109-1.3120117-1.0253906-1.0615234-.8193359-2.1591797-1.6650391-3.1870117-2.6318359Zm47.0366211,22.2753906c-4.1000977,1.4140625-7.6137695,3.1855469-11.7802734,5.3535156-1.0854492.5644531-2.1640625,1.1455078-3.2426758,1.7275391-2.2749023,1.2265625-4.6274414,2.4941406-7.0146484,3.5791016-2.8325195,1.2871094-5.8139648,2.1699219-8.0952148,2.7958984-2.7646484.7568359-5.534668,1.2714844-8.2329102,1.5302734-.3979492.0380859-.7958984.0830078-1.1943359.1269531-.9726562.109375-1.9785156.2226562-2.9873047.2382812-.0810547.0009766-.1621094.0019531-.2426758.0019531-2.7041016,0-5.3808594-.7041016-8.1748047-2.1474609-.2963867-.1533203-.5986328-.296875-.9018555-.4414062-1.1821289-.5634766-2.4047852-1.1455078-3.3525391-2.265625-.4575195-.5410156-.8930664-1.1035156-1.3081055-1.640625l-.6479492-.8300781.0166016-.1972656c.0424805-.5136719.0332031-1.0146484.0244141-1.5-.0166016-.9150391-.0341797-1.8623047.3129883-2.8300781.8574219-2.390625,2.3066406-4.4990234,4.4306641-6.4453125,3.4311523-3.1464844,7.4013672-5.5810547,10.8530273-7.6152344,1.3359375-.7880859,2.6137695-.8115234,4.0209961-.0712891,5.0869141,2.6767578,10.7265625,4.7871094,16.7631836,6.2734375,3.0546875.7529297,6.3154297,1.5439453,9.6411133,2.2128906,1.078125.2167969,2.2133789.3037109,3.3115234.3876953.5405273.0419922,1.0810547.0830078,1.6191406.1396484,1.34375.140625,2.6865234.2841797,4.1245117.4384766l4.1782227.4472656-2.1210938.7314453Zm22.1723633-8.3242188c-.449707.0498047-.8740234.0957031-1.2587891.2265625-3.1552734,1.0722656-6.300293,2.1816406-9.4453125,3.2910156l-2.8681641,1.0097656c-.0009766.0214844-.1264648.1191406-.3115234.1328125-.7958984.0625-1.612793.2021484-2.402832.3378906-1.112793.1904297-2.2495117.3857422-3.4106445.3857422-.7138672,0-1.4370117-.0742188-2.1699219-.2675781-.40625-.1083984-.875-.1132812-1.328125-.1191406-4.7729492-.0585938-9.7299805-.8623047-16.0742188-2.6074219-3.9204102-1.078125-7.0507812-2.1591797-9.8505859-3.4023438l-.3886719-.1728516c-2.2509766-.9970703-4.578125-2.0292969-7.0688477-3.5615234l-.8666992-.5332031.9521484-.3603516c.6977539-.2636719,1.3569336-.5244141,1.9912109-.7763672,1.3427734-.53125,2.6113281-1.0341797,3.8999023-1.4228516,2.4199219-.7294922,4.8588867-1.3447266,7.25-1.8291016.8374023-.1689453,1.6918945-.2294922,2.5185547-.2871094.8510742-.0605469,1.6552734-.1171875,2.4467773-.2822266,2.5888672-.5419922,5.203125-.4775391,7.7299805-.4199219.953125.0224609,1.9042969.0429688,2.8579102.0371094,1.1337891.0214844,2.2543945.2119141,3.3330078.4277344.6079102.1210938,1.2363281.2460938,1.8481445.3242188,2.7944336.3554688,5.527832,1.1064453,8.171875,1.8320312.7167969.1972656,1.434082.3945312,2.152832.5839844.8603516.2265625,1.7192383.4599609,2.5776367.6933594,1.8964844.515625,3.8579102,1.0478516,5.796875,1.4970703,1.4379883.3330078,2.9321289.5605469,4.3769531.78125.5029297.0771484,1.0058594.1542969,1.5073242.2353516,1.5830078.2558594,3.1674805.5,4.7729492.7480469l4.597168.7148438-4.5361328,1.1679688c-1.9042969.4931641-3.7773438.9775391-5.6552734,1.4375-.3847656.0947266-.7714844.1367188-1.1455078.1777344Zm-80.0581055,70.9804688l-.0610352.3066406-.3017578.0791016c-.7285156.1923828-1.4541016.3876953-2.1777344.5830078-1.7119141.4619141-3.4824219.9394531-5.2353516,1.3486328-.9091797.2109375-1.8398438.3173828-2.7397461.4199219-.4038086.0458984-.8076172.0917969-1.2094727.1474609-.3344727.046875-.6689453.0966797-1.003418.1464844-.7529297.1132812-1.53125.2304688-2.3076172.2998047-.5673828.0507812-1.1347656.1162109-1.7001953.1806641-.5336914.0605469-1.065918.1220703-1.59375.1708984l-.4238281.0400391c-.7338867.0722656-1.4794922.1445312-2.230957.1445312-.9160156,0-1.8422852-.1074219-2.7700195-.4560547-.2602539-.0976562-.5981445-.0859375-.9570312-.0683594-.2709961.0087891-.5429688.0205078-.8046875-.0078125-2.96875-.2998047-6.4047852-.921875-9.3779297-3.2519531-3.9892578-3.125-6.1557617-6.6865234-6.8188477-11.2080078-.6206055-4.2333984.3837891-7.9492188,3.1611328-11.6933594,1.0952148-1.4775391,2.2143555-2.6103516,3.4208984-3.4638672,4.2373047-2.9970703,8.9169922-3.6875,13.90625-2.0498047,5.3764648,1.7626953,9.9619141,5.1083984,14.0185547,10.2265625,2.9233398,3.6865234,5.0839844,8.171875,6.421875,13.3310547.0913086.3515625.2016602.6982422.3125,1.0449219.3676758,1.1552734.7480469,2.3505859.472168,3.7294922Zm-25.0097656,125.2714844l.7348633-1.2402344c.3271484-.5517578.6459961-1.1103516.965332-1.6689453.7172852-1.2578125,1.4594727-2.5576172,2.2915039-3.7675781,1.1806641-1.7177734,2.6503906-3.8554688,4.3491211-5.5859375,2.0366211-2.0732422,4.3447266-4.4228516,7.6015625-5.5869141l.7167969-.2558594-.0493164.7587891c-.0136719.2109375-.0107422.4248047-.0078125.6367188.0063477.5146484.0126953,1.0478516-.1918945,1.5253906-.8764648,2.0458984-1.8701172,4.3642578-3.5014648,6.2412109-3.4892578,4.0136719-7.2714844,6.7695312-11.5639648,8.4248047l-1.3447266.5185547Z" stroke-width="0"/>
  </g>
</svg>