<?xml version="1.0" encoding="UTF-8"?>
<svg id="Layer_2" data-name="Layer 2" xmlns="http://www.w3.org/2000/svg" viewBox="0 0 16.8219202 32.8702172">
  <g id="Layer_1-2" data-name="Layer 1">
    <g>
      <path d="m5.7469592.7034481c-.1083747.0096046-.211302.0236015-.3145717.026877-.2239357.0071015-.4487573.0219993-.671944.0100045-.5860116-.0314917-1.1661829.0114423-1.7408139.1215547-.4228149.0810225-.8483864.0721792-1.2741687.0634325-.1070519-.0021992-.1333243.0259205-.1449569.132059-.0793909.7243402-.155227,1.4494883-.2572164,2.1708412-.1773407,1.2542837-.3770293,2.5053918-.5591285,3.7590243-.1300844.895551-.2503313,1.79445-.2080416,2.7018007.0541141,1.161052.1135001,2.3225654.2102285,3.4805733.0385308.4612691.1715566.9165034.2830136,1.3692031.0806494.327571.2808857.5923695.5290561.8177499.3237793.294041.6506382.5846916.9765865.8763362.0163172.0146.0351061.0284593.0552109.0364837.1727548.068951.3484906.1309895.5186545.2057493.2403296.1055853.488726.1600896.7513185.153351.3026365-.0077656.6053455-.0126843.9080162-.0192175.1218724-.0026305.2196523.0529173.2604481.155972.0456789.1153926.031999.2343304-.0634462.308003-.0943141.072803-.2091138.138547-.3241312.1617411-.5494307.1107888-1.0855527.0406054-1.6074841-.1554174-.0338477-.0127131-.0674872-.0259752-.1236019-.0476124.0166171.0570719.028425.0941909.0382364.1318317.1677032.6433889.3830887,1.2789984.4900022,1.932352.1215382.7427285.1661435,1.5002159.2078252,2.2532995.0547316.9889134.0762455,1.9797193.107449,2.9698542.0151861.4819299.0131458.9644404.0314759,1.4462114.0159119.4181783.0676131.8355323.0710927,1.2535189.005194.6236661-.0151423,1.2476443-.0312938,1.8713186-.0040766.1574399-.0495322.211543-.1960967.3065049.0962025.1282399.0878946.2535-.0468592.3692048.1041434.0778285.2113815.1283932.332372.1233184.2381838-.0099881.4769345-.0223314.7134545-.0504743.1523309-.018122.2844556-.0117381.3777756.125775.081571.1202018.079165.2846336-.0334903.4179647-.2779594.3289677-.6453265.4977267-1.0697436.4610527-.4036098-.0348774-.6745416-.2988365-.8537953-.6503-.0423239-.0829828-.0462745-.185539-.0718965-.2964977-.0566227.0099497-.1239839.0222985-.1915258.033571-.5639103.0941101-1.0575399.3444743-1.4973718.698901-.1303582.1050458-.2471106.2431121-.3284898.389222-.1412816.2536588-.0899158.4883165.1134508.6958802.2827836.2886184.637439.4518972,1.0138439.5755552.4893887.1607866.9961833.1892801,1.5059193.1957188.8882907.0112177,1.7404168-.1393699,2.5394763-.546944.3817604-.1947274.721127-.440852.991192-.7740374.2847842-.3513375.2527126-.5312512-.1565909-.7282846-.4980266-.2397407-1.0009733-.4725498-1.5400641-.6116952-.0903636-.0233228-.1812776-.0473741-.2680932-.0810136-.1786115-.0692098-.2243876-.2313658-.1118829-.3884278.093053-.129905.2311823-.1731026.3817946-.1797385.2949475-.0129979.5791922.0494802.8613747.1277387.5392469.1495525,1.0218299.3994894,1.4239211.7940518.3511417.3445647.4233189.724727.2249079,1.1764353-.1326916.3020874-.3451576.5416063-.5993039.744076-.661237.5267707-1.4038943.8609064-2.2523026.9472714-.6773625.0689551-1.3543799.1383813-2.0363927.0875673-.4925793-.0367041-.9836195-.0887094-1.456157-.2434489-.4095308-.1341062-.7639877-.3589785-1.0514257-.6813131-.3945871-.4424953-.4126133-1.0208823-.0463498-1.4869524.2442925-.3108594.565229-.5294355.9005395-.7306563.5981098-.3589237,1.2409961-.5685086,1.9400574-.5981085.0143727-.000608.0285934-.0048366.0396825-.0068057-.110604-.4410711-.0807726-.8876663-.0622001-1.3283677.0301942-.7165301.1091059-1.4309294.1439395-2.1473719.026827-.5517367.0416379-1.1062615.0180042-1.6576723-.02765-.6451129-.0818613-1.2908009-.1618862-1.9315784-.1481448-1.1862344-.2947339-2.375002-.6342005-3.5265452-.1658286-.562519-.3594454-1.116926-.5462716-1.6730611-.0180125-.053617-.0689537-.1064096-.1184586-.1376131-.4591534-.2894208-.8996577-.6001666-1.159977-1.0960653-.3575201-.6810625-.6425303-1.38599-.771285-2.1536503-.148572-.8858204-.152005-1.7708753-.0734124-2.6602984.099682-1.1280711.1971594-2.2563668.3040346-3.3837642.0677145-.7143172.1573605-1.426555.2252626-2.1408565.0735712-.7739039.1306663-1.5493572.1998652-2.3236958.0625465-.6998712.1271047-1.3996438.2018439-2.0982765.0151738-.1418423.0731056-.2808665.1233704-.416735.0570678-.1542596.1940044-.21647.3423203-.2385631.2474653-.0368613.4964176-.0742562.7458876-.0851001.6418127-.0278982,1.284317-.0395017,1.9264159-.0614134.3022722-.0103153.6041049-.0363166.9063963-.0424236.2835381-.0057287.5677047-.000989.8510238.011799.1426495.006439.3003907.0587818.326455.2091679.027602.1592567.1379171.249229.2028723.3732711.0879686.1679922.1493813.3607312.1740817.5491603.1151516.8783998.2349124,1.7570989.3128518,2.6392412.0960299,1.0868879.1551093,2.1771094.2250531,3.266217.0946277,1.4735478.1825319,2.9475269.2773377,4.4210624.0307146.4773727.1004776.9536252.105981,1.4309253.0105344.9136607-.1268102,1.8100771-.4039726,2.6831419-.1677963.5285591-.5068658.9533965-.8360458,1.3838511-.0723908.0946633-.149825.1903701-.2424699.2633333-.1033204.0813765-.2275152.1359301-.3406839.2053248-.0315389.0193407-.0699095.0446162-.082005.0760689-.2453989.6381168-.507293,1.270303-.636475,1.9472835-.3192084,1.67282-.5120543,3.3575316-.4102155,5.0617591.0626123,1.0477655.1934648,2.091327.2649916,3.1387337.0342626.5017335.0068837,1.008109-.0031399,1.5121731-.0032043.161118-.1094318.2598346-.2390821.2642521-.1240893.0042286-.2360038-.0800633-.2546626-.2366241-.050803-.4262712-.099619-.8537173-.1225899-1.2821274-.0267914-.4996466-.0267352-1.000783-.0357661-1.5013196-.0078902-.437278-.0021649-.8750436-.0204239-1.3118396-.0294876-.7054137-.066137-1.410726-.1138712-2.1151236-.0478328-.7058875-.015104-1.4061332.1303541-2.0974288.1630844-.7750671.3604848-1.543115.5137345-2.3199842.1061741-.5382349.24947-1.0610824.4621893-1.5655696.0260013-.061666.0550534-.1236744.0930448-.1783294.0904909-.1301761.2205287-.1681647.3742125-.1311032.0362153.008731.0917576-.006844.1204359-.0318498.1767752-.1541261.3373495-.3289171.5242607-.468858.2998238-.224482.3982967-.5458773.4537445-.8840375.1036928-.6323738.1326327-1.2677615.0863281-1.9104479-.1335064-1.8530077-.2454003-3.7075613-.372798-5.5610263-.0684197-.9954411-.1422579-1.9906851-.2299239-2.984583-.1011458-1.146706-.2184911-2.2920042-.332958-3.4374983-.0233666-.2338135-.0651812-.4657832-.1012636-.7179706Z" stroke-width="0"/>
      <path d="m12.1618863,16.734931c.2059451.4951113.355158,1.0019538.4299903,1.522446.0924477.643026.1596555,1.2911651.2028203,1.939422.057102.8575679.0803344,1.7173925.1136535,2.4746526.0097744-.2487949.0345159-.5996805.0351376-.9506099.0014433-.8136938.0838454-1.6186731.2099354-2.4218147.1257641-.8010903.2292625-1.605678.3428557-2.4086854.0047051-.033267.0117518-.0662972.0194256-.0990343.041086-.1752949.1045501-.2245711.2806186-.2189019.087466-.3565616.3780563-.5486447.6422701-.7448401.2590596-.1923666.4225383-.4266354.5348663-.7238849.3398048-.8992044.5350388-1.8295123.5997846-2.784526.0325468-.4801127.0061922-.9641651.0079751-1.4464305.0026401-.7139639.0033111-1.4279579.0108535-2.1418739.0098676-.9342886.04661-1.8688552.0314978-2.8026501-.0102044-.6302848-.09104-1.2593633-.1383183-1.8891291-.0573512-.7639103-.1135713-1.527909-.1677566-2.2920494-.0076492-.1078481-.0066167-.2170718.0003971-.3250089.00892-.1372776.101039-.2437125.2180173-.2670285.1243427-.0247832.2524072.0254344.3072608.1527944.0554259.1286965.0910893.2682404.118134.4064142.1127415.5759339.0982949,1.1615929.1118898,1.7437765.0215509.922923.0145672,1.8464861.032607,2.7695248.0207429,1.0613707.0535855,2.122527.0851107,3.1836587.0166431.5603212.036674,1.1206383.064187,1.6805144.0337518.6868206-.0620262,1.3651047-.1207851,2.0459275-.0437043.5063591-.0938308,1.0111161-.2108994,1.5082088-.1471698.6249272-.4208842,1.1781661-.9085571,1.6018465-.2063368.1792674-.4466526.3244393-.6868288.4574774-.108691.0602036-.2547132.0530049-.3764158.0750474-.2703512,1.6577873-.5659917,3.3377444-.5877507,5.0482545-.0129349,1.0168071-.0315225,2.0338361-.0221041,3.050531.0070248.7583665.0543304,1.516377.0853517,2.2744779.0027168.066367.0177742.1322301.0284113.2076459.1018168-.0227285.1940646-.0517287.2884349-.0630915.9526722-.1147079,1.8206471.1006638,2.5842391.6885734.35194.2709647.5295888.6378197.4876866,1.0860306-.0138715.1483995-.0649648.3015725-.1331586.4351391-.2317382.4538828-.580222.7985269-1.0474971,1.0060522-1.0926364.4852684-2.22336.7934329-3.4350369.7055205-.7676069-.0556998-1.4820227-.2822893-2.1376604-.681094-.4077302-.2480144-.6890362-.6058125-.8105608-1.0742159-.100253-.3864121-.0114889-.7323105.2455988-1.0363451.3035909-.359025.694667-.5812737,1.145225-.6847255.4068099-.093409.8219921-.1501468,1.2327732-.2268497.0345269-.0064496.0882137-.0384678.0916288-.0641131.0527091-.395877.1157021-.7915268.1420785-1.1895016.0420172-.6339033.0578606-1.2695211.0860802-1.9043556.0441507-.9932515.1056757-1.9855966.090128-2.9810856-.0150218-.9618085-.062793-1.9210864-.2037542-2.8725754-.0721977-.4873525-.186388-.9684676-.280824-1.4525515-.0264422-.1355344-.0660685-.2736541.0716171-.3924098-.0464676-.0153135-.0733617-.0263655-.101302-.0330658-.8320048-.199579-1.3733975-.7296389-1.6832573-1.5065889-.212644-.5331902-.3053656-1.099909-.4249484-1.6590238-.2689792-1.2576283-.2319519-2.524486-.1489582-3.7961789.1223434-1.8746434.4419612-3.7263707.6316932-5.5931253.0934556-.9195311.1596747-1.8396722.1715634-2.7637941.001635-.1269746.007693-.2541539.0182179-.3806957.0184068-.2212517.1339144-.3182265.3535586-.3062084.024054.0013166.0547741-.0009777.0721977-.0146254.240702-.1885571.5335462-.2306366.8192315-.277794.2833738-.0467757.571921-.0623151.8582334-.0911889.423516-.0427108.8478592-.0785265,1.270392-.1293874.4661084-.0561065.9312911-.0742103,1.397142-.0092911.0648744.0090411.1307786.0351725.1883079.0674639.1270649.0713227.1995229.1826706.1867194.3319375-.0128445.1497739-.1023427.2510355-.2427013.2916217-.1285302.0371649-.2621653.0625657-.3952992.076733-.3230768.0343817-.646663.0722813-.9709749.0849786-.5563925.021783-1.1135464.0235166-1.6702895.0372923-.4262904.0105474-.8514715.0095731-1.2675164-.0778463-.0647402.5009091-.1365381.9956376-.1912438,1.4922504-.1178739,1.07014-.2230839,2.1416747-.3408236,3.2118304-.1030109.9363221-.23781,1.8696467-.3194206,2.807701-.1127853,1.2963152-.1868098,2.5966194-.1086691,3.8983587.0328343.5470015.0680979,1.0974729.2469353,1.6245504.1725548.5085802.3934341.9877933.8138116,1.3447903.1133906.0962915.2344578.1852679.3598247.2653517.245681.1569374.4971735.3047494.7454727.4576211.0444191.0273473.0985276.0522107.1248302.0931954.0755937.1177739.1825675.1173398.3021996.1106697.0885998-.0049406.1824826-.0027688.2661446.0223971.0554286.0166691.1296421.0749323.1364779.1229678.0087118.0612018-.0234515.1577672-.0713597.1910096-.0856667.0594422-.1935361.0952111-.2971522.1184284-.1413856.03168-.2874791.0423363-.4396717.0631107Zm.7438706,6.6832859l-.0104673-.0004601c-.0166157.2707018-.0334889.5413844-.0497842.8121054-.028069.4663877-.0520491.9330548-.0846451,1.3991221-.0359756.5143835-.0817394,1.0280769-.118994,1.5423783-.0134169.1852487-.0022923.3728801-.0246785.5567047-.0219672.1803519-.0746954.3567985-.107946.5360713-.0059567.0321387.0057239.0856311.0287044.1020551.1275141.0911194.2583831.1783143.3932616.2581394.1293134.0765386.2016645.2037542.1742063.332917-.0289344.1361136-.1478983.2298869-.3019395.2380126-.2829383.0149232-.6541917-.1986054-.7472529-.4640324-.0656385-.1872206-.0897638-.3902819-.119235-.5882327-.0110534-.0742299-.0253768-.103219-.1050731-.1008473-.3435596.0102345-.6774186.0723319-.9959327.1983726-.3103856.1228282-.5743475.3159835-.7941943.5699984-.145302.1678826-.1710376.3504666-.0943648.5533827.0689414.1824607.1714511.3481305.3301782.4579306.1954367.1351907.4006807.2622255.6161456.3613529.7563289.3479607,1.5619408.4130679,2.3803069.3767746.7092615-.0314485,1.3939295-.1748663,2.0356217-.4888725.3404265-.1665817.6429822-.383772.8521672-.708114.2132903-.3307205.1492923-.6935578-.1617013-.9364891-.1705638-.1332407-.3651186-.2187951-.576459-.2635949-.1388551-.0294383-.2798573-.0488859-.4184905-.0792417-.4573993-.1001709-.9181398-.1710376-1.3873731-.1832522-.0899528-.0023416-.1330545.0138332-.1223407.113355.0075588.070193.0040396.1420621.0002739.2129042-.0098867.1860347-.0843138.2950379-.2048223.3056559-.1143327.010073-.2204137-.0799702-.2557457-.2525962-.0319963-.1563034-.0476233-.3181225-.050425-.4778602-.011404-.6501576-.010911-1.300526-.0226984-1.9506726-.0147041-.8110619-.0371834-1.6219842-.0563023-2.4329667Z" stroke-width="0"/>
      <path d="m15.0573326,9.5399988c-.0244512.7439692-.0431784,1.5883872-.0836044,2.4317644-.0212962.4442795-.0891448.8852357-.2407623,1.3078808-.0226107.0630313-.044619.1303391-.0848013.1816583-.0294602.0376257-.0901801.0742627-.1332845.0703902-.0353649-.0031755-.089531-.0642158-.0935761-.1038722-.0203924-.1998419-.0471002-.4023527-.0344721-.6015729.0274117-.4323716.0792088-.8631521.1177451-1.2948761.0775437-.8687719.096449-1.7393761.0646992-2.6106799-.0289865-.7955171-.0630943-1.590904-.1035477-2.3859103-.0109767-.2156812-.0555875-.4294987-.079825-.6447274-.0108316-.0961778-.0174428-.1942091-.0116532-.2905389.0075561-.1257483.088693-.2121346.195245-.2281697.1131989-.0170347.220452.0425396.2620831.1643682.0298108.0872284.0490529.1814371.0534568.2734672.0579044,1.209423.112328,2.4190117.1722974,3.7308184Z" stroke-width="0"/>
      <path d="m4.7817684,13.1465211c.0687401-1.1237371.1145025-2.2481028.2609013-3.3649712.0099661-.0760401.0360441-.1530375.070775-.2213859.0157681-.0310282.0735671-.0610772.1076448-.0565488.0324947.0043176.0782626.0506496.0844781.0846698.0200131.1095674.0237473.2220473.0350308.3332757.0799401.7879925.2014071,1.5745937.2273988,2.3643444.0210305.6389878-.0685498,1.2820753-.1176192,1.9226899-.0205266.2679877-.0536156.5359741-.1005077.8005029-.0185438.1046035-.0736479.2133903-.1415993.2960156-.0962696.117055-.23249.1074052-.3069034-.0240061-.0641952-.1133632-.1217546-.248165-.1251889-.3750341-.011723-.4329646.0020869-.8666084.0054021-1.2999988.0011722-.1531771.0001876-.3063679.0001876-.4595533Z" stroke-width="0"/>
      <path d="m5.1349518,6.2394522c-.0308488-.1864729-.0643157-.3725577-.0920506-.5594921-.0805836-.5431434-.161207-1.0863059-.2357409-1.6302928-.0123858-.090391-.0135511-.1918025.0161063-.2753377.0219891-.0619351.0944429-.1252437.158623-.1481701.0859419-.0307009.1628626.0286277.1974004.1098234.0360907.0848499.0680048.1762671.0767084.2672086.0628478.6567599.0612347,1.3137423-.0162789,1.9694546-.0108685.0919561-.0393593.1818295-.0596942.2726675-.0150245-.0019541-.0300491-.0039081-.0450736-.0058615Z" stroke-width="0"/>
    </g>
  </g>
</svg>