<?xml version="1.0" encoding="UTF-8"?>
<svg id="Layer_2" data-name="Layer 2" xmlns="http://www.w3.org/2000/svg" viewBox="0 0 51.6110475 182.941286">
  <g id="Layer_1-2" data-name="Layer 1">
    <g>
      <path d="m34.7327034,159.6003511c.0566406-1.5095215.1884766-2.9836426.6757812-4.423584,1.8779297-5.5549316,4.6611328-10.7182617,8.0664062-15.5720215,1.9824219-2.8256836,3.8759766-5.6784668,5.4707031-8.7103271,1.5605469-2.9674072,2.4716797-6.0795898,2.6318359-9.3797607.1914062-3.9071045-.4003906-7.6328125-2.6591797-11.050293-1.4609375-2.2092285-3.3955078-3.7469482-6.1396484-4.2437744-1.7695312-.3201904-3.5722656-.4801025-5.3632812-.6888428-1.3222656-.1540527-2.6054688-.3759766-3.7851562-1.0227051-.8066406-.4428711-1.2109375-.9056396-.9736328-1.8691406.1494141-.6052246.3574219-.7805176.96875-.8345947,2.8457031-.2515869,5.5693359-.9321289,8.1044922-2.1846924.5087891-.2513428,1.0136719-.5540771,1.4238281-.9255371,1.7255859-1.5628662,1.5029297-3.8151855-.5087891-5.0258789-.7207031-.4335938-1.5068359-.7911377-2.3027344-1.0914307-2.5078125-.9456787-4.4462891-2.5811768-6.2597656-4.3782959-.0351562-.0344238-.0341797-.0993652-.0615234-.1860352.2138672-.0268555.4101562-.0405273.6015625-.0775146,1.84375-.3577881,3.7001953-.6721191,5.5253906-1.1033936.7402344-.1750488,1.4726562-.5258789,2.1025391-.9372559,2.0908203-1.3649902,2.5214844-3.6230469,1.1855469-5.6411133-.8896484-1.3449707-2.0849609-2.3273926-3.7080078-2.796875-1.4873047-.4299316-2.9951172-.7980957-4.5234375-1.201416.0078125-.0216064.0419922-.1445312.0966797-.2587891.7792969-1.6256104,1.4824219-3.270752,1.8408203-5.0351562.1005859-.4973145.4111328-.9655762.6728516-1.4239502.2119141-.3713379.5654297-.5501709,1.0498047-.5140381.3974609.0297852.8046875.0202637,1.2021484-.0214844.6816406-.0717773,1.1787109-.4875488,1.3330078-1.059082.1552734-.5758057-.0517578-1.1818848-.6396484-1.5136719-.4375-.246582-.9394531-.4399414-1.4394531-.5354004-2.0585938-.3925781-4.1416016-.454834-6.2353516-.2939453-.265625.0203857-.5351562.0026855-.8349609.0026855.4267578-2.3845215.5039062-4.7111816.2070312-7.0490723-.0751953-.5925293-.0947266-1.1958008-.078125-1.7927246.0732422-2.65625.1962891-5.3115234.2490234-7.9681396.15625-7.8579102.2890625-15.7161865.421875-23.574585.0078125-.465332-.0419922-.9362793-.1181641-1.3968506-.1201172-.7283936-.5253906-1.2416992-1.3554688-1.3890381-.1201172-.0212402-.3105469-.1021729-.3242188-.1773682-.203125-1.1695557-1.1972656-1.2757568-2.1621094-1.4205322-.5283203-.0791016-1.0585938-.145752-1.5996094-.2197266,0-.5076904-.0019531-.9542236,0-1.4006348.0039062-.994873-.1826172-2.0177002.5107422-2.9102783.0664062-.0861816.0839844-.2098389.109375-.3189697.3896484-1.6577148.5078125-3.328125.3105469-5.0197754-.3291016-2.8267822-.6416016-5.6553955-.9580078-8.4833984-.0664062-.59375-.0478516-1.2055664-.2011719-1.7783203-.2011719-.7537842-1.1269531-.9372559-1.7099609-.3776855-.2070312.1987305-.3925781.4348145-.5195312.6838379-.6308594,1.2318115-1.2666016,2.4624023-1.8496094,3.7139893-1.9677734,4.2271729-1.2832031,8.2528076,1.0927734,12.1485596.109375.1791992.1103516.4553223.0664062.6691895-.1708984.8227539-.4091797,1.6337891-.5605469,2.4589844-.0566406.3068848-.1503906.4221191-.4775391.4187012-.6376953-.0068359-1.2324219.1137695-1.7236328.5429688-.0996094.0866699-.2949219.0925293-.4492188.1074219-.7705078.0744629-1.2246094.4250488-1.3486328,1.1365967-.0664062.3831787-.0546875.7825928-.0390625,1.1733398.0957031,2.2996826.1875,4.5997314.3095703,6.8983154.2138672,4.036377.5136719,8.0699463.65625,12.1083984.1328125,3.756958.2236328,7.5216064.1201172,11.277832-.1103516,4.0206299-.0966797,8.0043945,1.1689453,11.8962402.0087891.0286865-.0185547.0678711-.046875.1582031-.2529297.0150146-.5263672.0290527-.7998047.0478516-2.1601562.1489258-4.3271484.2438965-6.4775391.4713135-1.0996094.116333-2.0263672.4914551-2.1855469,1.8261719-.1494141,1.2474365-.1025391,1.5164795,1.1464844,1.973877,2.5146484.9202881,4.6669922,2.2542725,5.8662109,4.6348877.3837891.7617188.8203125,1.5,1.2089844,2.2595215.0986328.1917725.1669922.4310303.1416016.6369629-.0751953.6126709.1689453,1.1142578.7021484,1.3894043.6748047.3479004,1.4003906.6992188,2.1464844.8215332,1.8349609.3005371,3.6865234.2150879,5.4941406-.2287598.5507812-.135498,1.0957031-.3845215,1.5693359-.6831055.8095703-.5109863.7958984-1.298584-.0458984-1.7687988-.5400391-.3016357-1.1640625-.5924072-1.7744141-.642334-1.7949219-.1469727-3.6015625-.2027588-5.4042969-.2233887-.5019531-.0058594-.7050781-.107666-.8193359-.5544434-.7373047-2.8752441-2.4453125-5.1342773-5.0439453-6.8175049-.0722656-.0465088-.1230469-.12146-.2783203-.2800293.3173828,0,.5087891-.0023193.6992188.0003662,2.9111328.0415039,5.8222656.0969238,8.7333984.1210938,1.9667969.0164795,3.9355469-.0279541,5.9033203-.0087891.6787109.0067139,1.3564453.1234131,2.0351562.1898193.015625.0487061.03125.09729.046875.145874-1.6621094,1.3459473-2.4208984,3.105835-2.7324219,5.0629883-.1650391,1.036499-.3623047,2.0875244.4199219,2.8565674-.265625.6087646-.5117188,1.1126709-.6972656,1.6356201-.0585938.1663818-.0234375.4609375.0966797.5546875.1152344.0895996.3955078-.010498.6035156-.0187988.3457031-.0136719.7431641-.130127,1.0283203-.0130615,1.9833984.8150635,3.9648438,1.6453857,5.7148438,2.868042.1875.1308594.3613281.2780762.6035156.4658203-.2431641.1535645-.4052734.2993164-.5996094.3710938-.8740234.3239746-1.7324219.7658691-2.6425781.9067383-1.6162109.2503662-3.2636719.3618164-4.9033203.4450684-3.5273438.1789551-7.0576172.3183594-10.5878906.4438477-2.1025391.0748291-4.2080078.1276855-6.3125.1166992-.7294922-.0039062-1.4580078-.2297363-2.1865234-.354248-.0097656-.074707-.0195312-.149292-.0302734-.223877.4541016-.3577881.8857422-.7456055,1.3671875-1.0678711,1.6416016-1.0979004,3.5136719-1.703125,5.4501953-2.1679688.4443359-.1064453.9150391-.2119141,1.2900391-.4379883.2578125-.1556396.5244141-.5266113.5087891-.786499-.0166016-.2628174-.3330078-.6661377-.59375-.7271729-.5644531-.1320801-1.1992188-.1922607-1.7666016-.0927734-2.453125.4299316-4.7275391,1.3227539-6.8320312,2.5595703-.7216797.4245605-1.3886719.9655762-1.9785156,1.5439453-1.1240234,1.100708-.9560547,2.6573486.4013672,3.4941406.6376953.3927002,1.4013672.6489258,2.1445312.84021,1.9345703.4974365,3.9238281.5484619,5.9179688.4989014.3115234-.0075684.6240234-.0009766,1.0283203-.0009766-.3867188.9682617-.8945312,1.7424316-1.7197266,2.2277832-1.1142578.6557617-2.2841797,1.2407227-3.4716797,1.7763672-1.2265625.5535889-2.5205078.9777832-3.7539062,1.5202637-1.4375.6323242-2.8339844,1.3493652-3.9033203,2.4854736-1.5087891,1.604126-1.2353516,3.6958008.6171875,4.9350586.9414062.6297607,2.0146484.9827881,3.140625,1.0441895,2.2226562.1209717,4.4521484.1367188,6.6787109.1936035.2939453.0074463.5888672.0010986.8662109.0010986v2.1455078c-.203125.017334-.3789062.0391846-.5556641.0463867-4.5732422.1893311-8.5732422,1.6657715-11.9179688,4.6086426-3.1220703,2.7463379-5.1464844,6.0118408-5.4306641,10.0825195-.2441406,3.505127.0742188,6.9758301,1.1669922,10.3342285,1.9345703,5.9471436,5.1845703,11.2540283,9.3476562,16.0908203.9667969,1.1228027,1.9765625,2.223877,2.8232422,3.4228516,1.7353516,2.4578857,3.3916016,4.9732666,3.9560547,7.9389648.5390625,2.8369141,1.0322266,5.6813965,1.5234375,8.5258789.0234375.1345215-.1396484.3896484-.2773438.4394531-.5791016.2091064-1.1748047.3818359-1.7753906.5307617-2.3076172.5727539-4.6474609,1.0466309-6.921875,1.7172852-2.65625.7836914-4.9462891,2.1608887-6.6025391,4.3040771-1.5507812,2.0062256-1.3779297,4.2293701.4160156,6.0523682,1.2851562,1.307373,2.9287109,2.0646973,4.6972656,2.6342773,3.9638672,1.2769775,8.0546875,1.940918,12.2324219,2.0202637,4.2744141.0810547,8.5537109.0861816,12.8271484-.019165,3.6162109-.0892334,7.1337891-.78479,10.4824219-2.114502,2.2197266-.8817139,3.7792969-2.4039307,4.6650391-4.4656982.8046875-1.8754883.7275391-3.7424316-.7929688-5.3149414-1.1533203-1.1931152-2.6210938-1.979248-4.3574219-2.2199707-3.1884766-.4417725-6.3808594-.8581543-9.5996094-1.2888184.0878906-.3282471.2353516-.6813965.2695312-1.0439453.2158203-2.2697754.4902344-4.5388184.5751953-6.8134766ZM25.851844,5.0571382c0,1.3792725.0039062,2.758667-.0068359,4.1379395-.0009766.1383057-.0615234.2995605-.1513672.4104004q-.8671875,1.0710449-1.1503906,2.0871582c-.8662109-1.2680664-.2216797-4.9000244,1.3085938-6.635498Zm3.5742188,52.7568359c-.2060547,1.9025879-.4677734,3.7906494-.3291016,5.7042236.0498047.6854248.140625,1.3684082.2158203,2.0803223h-5.3515625c.1894531-.8792725.4384766-1.7104492.5380859-2.5570068.3759766-3.2109375.2744141-6.4223633,0-9.6396484-.2919922-3.4123535-.5029297-6.831543-.6992188-10.2502441-.3730469-6.4648438-.7099609-12.9313965-1.0615234-19.3972168-.0048828-.090332-.0009766-.1811523-.0009766-.3659668,2.3935547.5087891,4.7636719.3173828,7.1757812.1948242,0,.4702148-.0048828.9130859.0009766,1.3557129.0820312,5.8381348.1796875,11.6762695.2451172,17.5146484.0566406,5.1318359-.1806641,10.2563477-.7333984,15.3603516Zm-17.796875,40.8508301c-.6191406-.0141602-1.2392578-.2773438-1.8427734-.4680176-.4042969-.1273193-.4472656-.3583984-.1298828-.6672363,1.0429688-1.0145264,2.2763672-1.7751465,3.6308594-2.3654785,1.4179688-.6176758,2.8632812-1.1809082,4.2753906-1.80896,1.5683594-.6977539,2.7265625-1.8258057,3.6298828-3.1903076.4658203-.7026367.7128906-1.4578857.4824219-2.4404297,3.5292969.1120605,6.9658203.2211914,10.4375.3314209.0830078,1.0134277.7763672,1.6829834,1.453125,2.3435059,1.7441406,1.7030029,3.7138672,3.1270752,5.9638672,4.225708.7080078.3457031,1.3261719.8735352,1.9287109,1.3771973.3642578.3050537.2333984.6369629-.1376953.9476318-1.4492188,1.2142334-3.2226562,1.737793-5.0810547,1.8050537-2.8427734.1027832-5.6943359.0014648-8.5419922-.0085449-2.5888672-.0090332-5.1777344-.0084229-7.765625-.0180664-2.7675781-.0102539-5.5361328.0002441-8.3027344-.0634766Zm19.2099609,67.9786377c.0742188,1.1723633.7744141,1.6060791,2.1855469,1.5655518.3105469.9758301,1.1601562,1.4060059,2.1181641,1.7080078,1.3447266.423584,2.7148438.6685791,4.1445312.4956055,2.3330078-.2822266,4.2626953.6436768,6.1054688,1.8026123.4482422.2818604.6328125.6956787.6035156,1.2113037-.0830078,1.4541016-.8964844,2.420166-2.2392578,3.0910645-2.9199219,1.4581299-6.0576172,2.2473145-9.3320312,2.4230957-6.5654297.352417-13.1318359.3144531-19.6474609-.6445312-1.8564453-.2731934-3.6923828-.734375-5.4921875-1.2478027-.8349609-.2382812-1.6103516-.7473145-2.3232422-1.2452393-.6689453-.4671631-.6748047-.8173828-.2050781-1.4477539.9628906-1.2943115,2.1269531-2.3826904,3.6923828-3.0548096,1.9140625-.8217773,3.9296875-1.246582,6.0029297-1.5765381,1.4238281-.2265625,2.8330078-.6911621,4.1552734-1.2432861.7011719-.2927246,1.2753906-.9462891,1.7744141-1.5344238.4365234-.513916.3935547-1.1392822-.0244141-1.7312012-.1611328-.2272949-.2158203-.5500488-.2294922-.8330078-.2753906-6.072998-1.6337891-11.894043-4.5966797-17.348877-1.0263672-1.8900146-2.4511719-3.5021973-3.9628906-5.0627441-3.5673828-3.682373-6.2734375-7.8703613-8.1386719-12.5026855-1.4638672-3.6376953-1.5419922-7.4179688-.6230469-11.171875.7890625-3.2250977,2.9228516-5.6809082,5.7871094-7.5507812,2.0556641-1.3422852,4.2177734-2.5397949,6.7001953-3.119873.5390625-.1257324,1.0498047-.3571777,1.6025391-.5501709.09375.1697998.1738281.3170166.2568359.4622803.3720703.6484375.9638672.967041,1.6601562.8962402.6708984-.0682373,1.1875-.5133057,1.3359375-1.2647705.3164062-1.5992432.2851562-3.2001953-.0966797-4.7911377-.0244141-.1048584-.0527344-.2092285-.0957031-.380127.2333984-.0234375.4228516-.0588379.6132812-.05896,1.6660156-.0010986,3.3330078.0157471,4.9990234-.0001221.4697266-.0043945.5996094.1635742.6484375.5837402.0800781.703125.1738281,1.425293.4267578,2.0845947.2001953.5238037.6083984.9956055.9980469,1.4346924.3417969.3864746.7958984.5551758,1.3320312.2172852.0957031-.0601807.359375-.0134277.4560547.0720215,1.7490234,1.5444336,3.9316406,2.1898193,6.2109375,2.6638184,1.1142578.2316895,2.2226562.5068359,3.3085938.8334961,2.4121094.7253418,3.9433594,2.269165,4.734375,4.5036621,1.296875,3.6621094,1.7333984,7.4052734.859375,11.1757812-.3847656,1.6578369-1.1357422,3.2834473-1.9794922,4.7988281-1.9306641,3.4692383-3.9550781,6.8977051-6.0654297,10.2751465-2.1621094,3.4595947-3.6591797,7.1472168-4.7939453,10.9855957-.7304688,2.4692383-1.46875,4.9367676-2.2460938,7.3933105-.7988281,2.5241699-.7822266,5.1025391-.6201172,7.6829834Z" stroke-width="0"/>
      <path d="m30.3879768,168.5820405c-.4667969-.1688232-.9238281-.3840332-1.4072266-.4853516-1.0712891-.2242432-2.1503906-.4685059-3.2392578-.5551758-.9257812-.0737305-1.6123047.5863037-1.6679688,1.3723145-.0527344.7529297.5263672,1.401001,1.4150391,1.5714111.1953125.0373535.3974609.0413818.7724609.0780029.6650391-.104248,1.5175781-.161499,2.3154297-.387207.6777344-.1914062,1.3144531-.5412598,1.9248047-.8894043.4482422-.2554932.3798828-.5266113-.1132812-.7045898Z" stroke-width="0"/>
    </g>
  </g>
</svg>