<?xml version="1.0" encoding="UTF-8"?>
<svg id="b" data-name="Layer 2" xmlns="http://www.w3.org/2000/svg" width="65.563" height="76.028" viewBox="0 0 65.563 76.028">
  <g id="c" data-name="Layer 1">
    <path d="m55.934,56.095c-.176.722-.352,1.444-.518,2.171-.129.555-.183.994-.168,1.38.03.818.59,1.52,1.395,1.748.784.219,1.622-.069,2.076-.724.23-.334.42-.752.549-1.208,1.444-5.106,2.353-10.782,2.78-17.348.328-5.043.714-10.564,1.178-16.878.034-.463.206-.909.373-1.341l.081-.21c.186-.491.385-.976.584-1.462.354-.863.721-1.758.994-2.657.581-1.923.335-3.883-.734-5.822-1.497-2.715-3.62-4.918-6.492-6.738-2.637-1.674-5.66-3.06-9.801-4.493C40.946-.005,33.243-.634,25.34.641c-7.801,1.259-13.856,5.136-17.995,11.524-.682,1.053-1.263,2.203-1.743,3.189-.401.819-.459,1.643-.175,2.448.299.847,1.062,1.43,1.9,1.45.764.009,1.626-.562,1.935-1.294.022-.051.023-.128.024-.208,0-.055.001-.112.008-.167.008-.078.011-.161.013-.245.008-.208.015-.425.105-.62.699-1.53,1.66-3.027,2.852-4.449,3.372-4.021,7.931-6.59,13.551-7.633,3.934-.73,7.935-.569,11.672-.288,5.847.444,11.703,2.341,17.898,5.799,2.405,1.342,4.282,3.202,5.581,5.529.617,1.105.667,2.306.151,3.67-.098.26-.399.432-.524.494-.679.335-1.066.866-1.187,1.626-.035.222-.069.481-.051.728.04.605-.161,1.116-.602,1.52-.203.187-.403.377-.605.566-.506.476-1.027.967-1.58,1.409-3.663,2.934-7.571,4.251-11.925,4.014-3.06-.164-6.181-.183-9.199-.202-1.478-.009-2.955-.019-4.431-.044-3.12-.051-6.746-.163-10.297-.839-3.172-.602-6.011-1.217-8.637-2.636-2.103-1.138-4.217-2.336-6.263-3.494l-1.771-1.002c-.172-.097-.297-.269-.407-.441-.512-.793-1.274-1.148-2.115-.958-.851.194-1.443.905-1.508,1.81-.032.455-.011.941.067,1.45.609,4.013,1.26,8.282,1.926,12.479.143.889.28,1.781.417,2.671.417,2.699.847,5.49,1.393,8.208l.329,1.63c.999,4.936,2.032,10.039,2.462,15.162.031.363.117.733.251,1.07.42,1.056,1.516,1.534,2.596,1.146l.678-.254-.05.295c-.237,1.399.476,2.327,1.28,3.12.338.332.73.66,1.239,1.031,1.377,1.007,2.791,1.755,4.197,2.223,2.406.8,4.988,1.639,7.581,2.359,4.018,1.111,7.764,1.621,11.427,1.534,6.107-.129,12.195-1.469,18.615-4.096,2.184-.896,3.856-1.872,5.258-3.072.771-.66,1.259-1.319,1.537-2.076.535-1.466-.125-2.957-1.571-3.546-.468-.192-.792-.126-1.048.21l-.122.161c-.273.356-.555.724-.738,1.12-.303.659-.736,1.166-1.322,1.551-.414.272-.885.58-1.362.845-2.452,1.368-5.149,2.227-7.701,2.991-.101.027-.199.016-.246.011h-.163l-.011-.163c-.03-.487-.055-.971-.079-1.452-.056-1.109-.11-2.158-.225-3.222-.316-2.955-.19-5.908.375-8.78.792-4.028,1.922-7.106,3.553-9.687.457-.725,1.041-1.38,1.606-2.012.211-.238.422-.475.628-.715.202-.237.409-.261.55-.273.2.011.39.13.533.339l.137.196c.311.448.632.91.869,1.411.802,1.699,1.075,3.544,1.249,5.284.034.327.11.659.183.982.05.217.1.433.137.652l.027.144c.05.265.101.539.042.803-.186.827-.386,1.65-.586,2.473Zm-28.656,14.916c-.129-.022-.257-.043-.383-.07h-.001c-3.448-.76-6.83-1.928-10.101-3.058l-.693-.239c-.215-.075-.441-.316-.492-.526-.139-.572-.26-1.146-.382-1.72-.211-.991-.429-2.016-.725-2.995-.592-1.95-1.216-4.274-1.361-6.726-.211-3.561.459-7.155,1.99-10.682.104-.242.239-.469.371-.689.066-.112.133-.222.195-.335.13-.237.292-.37.479-.393.191-.026.378.062.561.258.151.16.304.317.457.476.457.471.929.958,1.337,1.487,1.405,1.816,2.356,3.922,3.174,5.928,1.502,3.688,3.041,7.632,3.881,11.72.165.806.262,1.634.355,2.434.056.48.112.96.183,1.438.207,1.403.446,2.544,1.466,3.42l.479.41-.789-.14Zm15.85.098c-2.635.582-5.191.873-7.707.873-2.111,0-4.196-.204-6.28-.613l-.421-.083.362-.231c.05-.032.087-.058.117-.078.051-.035.089-.062.137-.081,1.252-.535,1.744-1.442,1.506-2.772-.149-.839-.313-1.572-.5-2.239-.394-1.415-.586-2.925-.586-4.621.003-3.26.005-6.955.668-10.548.227-1.222.561-2.383.994-3.45.418-1.025.905-1.623,1.532-1.883.644-.266,1.443-.178,2.524.278,1.208.51,2.146,1.372,2.87,2.632.824,1.438,1.502,3.105,2.133,5.249,1.326,4.517,1.951,8.373,1.967,12.136.004.941.083,1.939.242,3.049.067.477.21.949.362,1.45.07.233.143.471.21.718l.047.175-.176.039Zm10.522-31.458c-1.276-.101-2.543.456-3.799,1.612-1.799,1.654-3.241,3.842-4.54,6.887-.203.476-.391.97-.573,1.446-.089.235-.179.469-.27.703-.035.089-.071.176-.122.295l-.274.658-.254-.608c-.069-.164-.118-.282-.164-.403-.659-1.756-1.405-3.607-2.64-5.225-1.604-2.105-3.76-3.372-6.407-3.764-2.401-.351-4.394.527-5.927,2.624-.806,1.101-1.37,2.413-1.83,4.251-.13.52-.243,1.057-.352,1.575-.054.258-.108.515-.164.772-.022.102-.046.203-.082.351l-.176.744-.352-.773c-.058-.126-.105-.226-.148-.327-.941-2.228-1.988-4.581-3.501-6.703-.715-1.002-1.707-2.278-3.033-3.264-.442-.329-.874-.589-1.287-.772-1.586-.707-3.039-.479-4.321.686-1.115,1.014-1.764,2.34-2.207,3.382-.854,2.016-1.458,4.152-1.848,6.529-.034.214-.083.405-.153.584l-.194.503-.133-.522c-1.345-5.246-2.161-10.685-2.952-15.944-.437-2.91-.889-5.919-1.427-8.883l-.067-.371.324.192c.077.044.139.078.188.105.094.05.161.086.222.145,2.612,2.528,5.939,4.278,10.472,5.507,4.146,1.124,8.506,1.731,12.955,1.805l6.361.104c.998.016,1.997.024,2.995.031,2.227.016,4.529.034,6.791.151,4.731.247,8.942-.995,12.842-3.792.16-.114.324-.221.519-.348l.637-.418-.781,13.007-.344.095-.183-.211c-.075-.085-.149-.171-.222-.258-1.101-1.342-2.305-2.067-3.579-2.156Z" stroke-width="0"/>
  </g>
</svg>