<?xml version="1.0" encoding="UTF-8"?>
<svg id="Layer_2" data-name="Layer 2" xmlns="http://www.w3.org/2000/svg" viewBox="0 0 152.6569258 280.8282293">
  <g id="Layer_1-2" data-name="Layer 1">
    <g>
      <path d="m86.898792,138.7887357c.0560449.2607308.1766634.4568881.3496717.568978.1462042.092596.324086.1206185.5129331.0791939.3996248-.0865042.6920332-.6116209.6761944-1.0063722l-.0060918-.1486409c-.023149-.5665413-.0475164-1.1513581.0962511-1.6959687.4934392-1.8616668,1.1964377-3.238423,2.2113385-4.3325177.1839736-.198594.4325208-.5896903.0268041-.9783498-.0974695-.0913776-.3923146-.3752574-.952764.0523898-.1547328.1194001-.3045921.2631676-.4337391.4179003-1.3572623,1.6484523-2.1686956,3.6648519-2.5524816,6.3452622.0097469.1023429.0170572.1937206.023149.2790063.0121837.1644797.0219306.2948451.0487347.4191187Z" stroke-width="0"/>
      <path d="m90.4783582,139.5234118c.0097469.1364573.0170572.2327083.0304592.3277411.0804123.5933454.3533268.674976.5811617.6810679h.0182755c.3119023,0,.3728207-.198594.4617616-.5738515l.023149-.0962511c.0292408-.1194001.0560449-.2400186.082849-.3618554.0950327-.4264289.1937206-.8662599.3996248-1.2524826.3021553-.5665413.6432985-1.1208989.9722579-1.6581993.2802247-.4556698.568978-.9271783.8321456-1.4011236.1364573-.2436737.2205247-.6408617.129147-.8077782-.105998-.1973757-.2863166-.2716961-.8041231.0085286-.1303654.069447-.2424553.1474226-.3326146.2302716-1.5570747,1.4328011-2.1223976,3.3553863-2.4111509,4.6858445l.0170572.2180879Z" stroke-width="0"/>
      <path d="m152.5956484,205.9537259c-.4337391-6.0175211-2.6146184-10.5145186-6.6681298-13.7505048-2.6304572-2.1016853-5.8311108-3.5186477-9.7847159-4.3312994-4.7053384-.9673844-9.3863095-1.101405-14.5777769-1.1684152-5.1695368-.0670103-9.506928-1.4352379-13.2595024-4.1802217-3.4772232-2.5418209-6.3227224-5.3233558-8.7162069-8.451821-.0073102-1.8199377.0621368-3.390719.2253981-4.8515426.2808339-2.5022239.6835046-5.0144994,1.0892213-7.4789539,4.9258631,2.5244592,10.2428224,3.592359,15.8899596,3.1366892,8.5273598-.6944699,16.533258-3.5539804,23.7935148-8.4993374,3.6758172-2.5025285,6.1966213-5.7750658,7.7037429-10.0052406,1.0161192-2.8485451,1.8628852-5.6751596,2.8631655-9.0756256.2607308-.8881905.3265227-1.905528.3667289-2.7888451.0755388-1.6021543-.3277411-3.01668-1.1964377-4.2045891-.2473288-.3362697-.4666351-.6993434-.6774128-1.0490151-.3545452-.5884719-.6725393-1.1172437-1.0806927-1.5327073-4.8515426-4.945357-10.0856529-7.4076794-16.0020495-7.5282978-.81387-.023149-1.4803175.0523898-2.0821915.4751636-.2570757.1815369-.5616678.2059042-.8065598.2266165l-.0791939.0073102c-.7687904.0755388-1.554638.1303654-2.3136814.1827552l-.1218368.0085286c-1.670383.1120899-3.3980292.2290532-5.0574469.5701964-5.8140536,1.1952193-11.4648459,3.8037459-17.2752444,7.9778757-.876616.6298964-1.6959687,1.2780684-2.4885173,1.9353781-.1114807-1.0200789-.4325208-2.0425945-1.3724919-2.8308788l-.1011246-.0840674.0657919-.1133083c.5433923-.9417987.5982188-1.9420791.5141514-3.1519188-.0402062-.5848168-.0865042-1.1684152-.1315838-1.753232-.1437675-1.8494831-.2936268-3.7623214-.2924084-5.6459188.0036551-5.2499491.0353327-10.588839.0670103-15.7510656.0328959-5.1610082.0645735-10.4986798.0682286-15.7486289.0024367-4.3361728-.0986878-8.7454478-.1961573-13.0085185l-.0548266-2.4464836c-.1778818-8.127735.1401124-16.3785253.4483595-24.3576194l.082849-2.0882833c.0901593-2.2174303.1827552-4.5116179.162043-6.7643809-.0134021-1.3414235-.092596-2.705996-.1681348-4.0267073-.0877225-1.5034665-.1766634-3.0593228-.1705716-4.5920302.0268041-6.4232378-.2059042-12.1373852-.7115271-17.4677465-.0548266-.5726331-.1035613-1.1452662-.152296-1.7191177-.1230552-1.4376746-.2497655-2.9253023-.4690718-4.3715055-.185192-1.2256785-.6006556-2.437955-1.022211-3.5661641-.2863166-.7663537-.8918456-1.33655-1.660636-1.5643849-1.7410483-.5190249-3.2213658-.6469536-4.6566037-.4142452-3.9487317.6457352-6.1905294,2.2442344-7.267567,5.1841572-.2010308.5494841-.406935,1.0977499-.6128393,1.647234-.8126517,2.1686956-1.6533258,4.4117117-2.2003732,6.6803135-1.0660723,4.4251137-2.1431099,9.1938073-2.798592,14.0709357-.7712271,5.736078-1.1525764,11.6049582-1.4498583,16.6563132-.2241798,3.8086194-.2936268,7.6927775-.3618554,11.4477887-.0207123,1.1635417-.0414245,2.3258651-.0670103,3.4881885-.0621368,2.8631655-.1096531,5.7251127-.1571695,8.5882783-.0438613,2.6085266-.0865042,5.2170531-.1413307,7.8267981-.0743205,3.5015905-.1669165,7.5721591-.3228676,11.5623153-.0791939,2.0224914-.1827552,4.0766604-.2826614,6.0650375-.1437675,2.8631655-.2924084,5.8250189-.370384,8.7381376-.0548266,2.0322384.0353327,4.1034645.1218368,6.106462.0316776.7273659.0621368,1.4535134.0877225,2.1808793.0243674.7200557.046298,1.4413297.0670103,2.1613854.0718837,2.3892203.1449858,4.8576345.3350513,7.2760956.1181817,1.5144318.4264289,3.1543556.9722579,5.1610082.3862228,1.4242726,1.4401113,2.2283956,2.9655085,2.2637283.5117147.0109653,1.0246478.0073102,1.5339257.0012184.3508901-.0036551.7029985-.0036551,1.0599804-.0109653.1486409-.0036551.2972819-.0073102.4447044-.0073102.0938144,0,.1864104.0012184.2790063.0048735.7066536.0268041.9308334.5677596,1.0477968,1.0368314.1267103.5031861-.2375818.6043107-.4325208.6579189-.0779756.0207123-.1583879.0426429-.1998124.0767572-.1340205.1120899-.2753512.2193063-.4179003.3253043-.3423615.2582941-.6969067.5251167-.9137762.8552946-.5153698.7834108-1.0246478,1.6289584-1.2512643,2.507402-.3582003,1.3831526-.5336453,2.7650869-.5482657,4.1397109-.7535608-.8160022-1.4693522-1.6828712-2.1016853-2.6581751-2.2929692-3.5320497-4.6346731-6.5877175-7.1603506-9.3412299-3.6867825-4.0193971-8.0473227-6.7899666-12.9634389-8.2337331-3.5357049-1.0404865-7.4028059-.9101211-12.1641893.3996248-4.3337361,1.1940009-7.7281102,3.876848-10.3780613,8.2032739-1.0149008,1.6545442-1.4705706,3.0483575-1.4790991,4.5189281,0,.23149-.0414245.4264289-.1230552.578725-.6506087,1.2147132-.5178065,2.5537-.3094656,3.9341113.4447044,2.9447962,1.7337381,5.5545412,3.0617596,7.9376696,4.1363604,7.4283916,9.9662528,11.9753422,17.3276342,13.5117046,5.7104923,1.1927826,11.8011155,1.3219296,18.1012981.3825677l2.391657-.3533268-1.1330825.9686028c-.2619492.2253981-.5129331.4337391-.75417.6347699l-.0536082.0450796c-.4678534.3898779-.9089028.7590435-1.3170561,1.147703-3.0215534,2.868039-5.4156472,6.7107727-7.3199568,11.7462889-2.1504201,5.6861249-3.0008412,11.8303563-2.5256775,18.2609043.3313962,4.5043077.268041,7.9693472-.2022491,11.2345742-.5080596,3.5223028-1.4900645,6.1564151-3.0910004,8.2873413-3.3371108,4.4433892-6.9751586,7.4795631-11.121266,9.2815298-4.0206154,1.7483585-8.1118962,3.3663517-12.1593158,4.8101181-5.7604454,2.0517322-13.2619391,5.0342979-20.2042018,9.9309201-4.7187405,3.3285822-8.206929,7.4247365-10.6655962,12.5236079-2.4586673,5.097653-3.9657889,10.6802167-5.1865939,15.511047-.2095594.8284905-.185192,1.7690708-.1608246,2.6791919l.0024367.1084348c.0073102.2461104.0134021.4910024.0134021.7346761.0012184.4715085.2034675.8029047.5872535.9564191.268041.1084348.5507025.0938144,1.0100273-.3399248.2692594-.254639.5470474-.4873473.8686966-.7578251l.0962511-.0804123c.1425491-.1194001.2936268-.2473288.4556698-.3850044l.7785374-.6676658-.105998,1.4790991c-.0182755.244892-.0316776.4337391-.0402062.6238046-.0255857.684723.1583879,1.1221172.5811617,1.3755378.4264289.2570757.8552946.1949389,1.2707582-.1778818.4337391-.3850044.9271783-.8406741,1.2780684-1.3779746l.2046859-.3155574c1.1684152-1.7946565,2.3758182-3.6502315,3.4528558-5.5594146l.0584817-.1035613c1.4888461-2.6426409,3.0288636-5.3766594,4.8941855-7.8402001,3.7233336-4.9112427,8.5992436-8.7698151,14.4949279-11.4660642,3.8585725-1.7666341,8.0924024-3.5612906,12.9427266-5.4863125,8.0716901-3.2043087,14.6923035-7.5282978,20.2395345-13.2180779,3.3322373-3.4199599,5.5338289-6.3586642,7.1372016-9.5312953,2.239361-4.4324239,3.622209-9.4801239,4.2289564-15.428198.2388002-2.3417039.4544514-4.7260507.6652291-7.0324219.2205247-2.437955.4715085-5.2012143.7505149-7.8621307.5580127-5.3462002,2.1784425-9.9918386,4.8174283-13.8089865.7249291-1.0465784,1.4809267-2.0754904,2.2424069-3.0925234-.2589033,3.1799413-.400234,6.5511664-.0286317,9.8629961.5933454,5.2791899.2400186,10.542541-1.0490151,15.6450675-1.0709457,4.2484503-1.4925012,7.7268919-1.3268031,10.9470393.1949389,3.7537928-.2132145,7.3613814-1.2147132,10.7216412-1.2281153,4.1180849-1.8994362,7.5648489-2.1102139,10.8459147-.2205247,3.4163048-.2716961,7.4235181,1.0197743,11.250413.7614802,2.252763,1.9591363,3.899997,3.6611968,5.0367346.2022491.1340205.3265227.4288656.3618554.661574.0414245.2838798.0657919.5726331.0889409.8516395.0304592.3667289.0609184.7456414.1340205,1.1038417.5409555,2.6438592,1.8263341,4.6882813,3.8232398,6.0784395,1.7276463,1.2013112,3.843952,1.8421729,6.1198641,1.8519198h.1194001c1.4315828,0,3.053231-.1254919,4.3715055-.9564191,3.3931558-2.1418915,5.223145-4.8600712,5.5935289-8.3092719.0316776-.3021553.0609184-.6055291.0901593-.9089028.0584817-.5970005.1181817-1.2147132.2022491-1.8214606.036551-.268041.2351451-.5775066.4520146-.7029985,1.6594176-.9576375,2.6767552-2.4818163,3.2018719-4.7967161.5044045-2.2174303.5762882-4.4165851.2119961-6.536546-.0889409-.52268-.1717899-1.0465784-.254639-1.5704768-.1425491-.9101211-.29119-1.8519198-.4751636-2.7681328-.1267103-.6372066-.2473288-1.2756316-.3679472-1.9140566-.4873473-2.5719755-.9917518-5.2316735-1.8799423-7.7524776-.6579189-1.868977-1.4120889-4.0462012-2.0468588-6.2538846-.7809741-2.7190935-1.1976561-5.707751-1.2872061-9.0448618.8619956.4410493,1.7593238.8376282,2.6932032,1.1863861,4.6273629,1.730083,9.6994302,2.401404,16.4601559,2.1808793.4727269-.0158388.9466722-.036551,1.4206175-.0560449l.2972819-.0134021c1.147703-.0487347,2.4489203-.1047797,3.7245519-.1047797,1.4742257,0,2.6962491.0718837,3.8463888.2241798,2.4221162.3204309,4.2898748,1.0343947,5.8798455,2.2466712.9637293.7358945,1.6119013,1.6898769,1.9810669,2.9155554.6688842,2.2344875.5616678,4.5420771-.3192125,6.8594136-2.2515446,5.9200516-4.6626955,10.5474145-7.5892162,14.5607197-6.2331723,8.5553823-10.0649407,17.2959566-11.7109563,26.7224723-.9600742,5.4936227-.5628862,10.1953061,1.2147132,14.3718727.7882843,1.8531382,1.7849096,3.6465764,2.7498573,5.3803145l.3984064.7188373c.7005618,1.2634479,1.1830356,2.5524816,1.4730073,3.9389848.2302716,1.1026233.5299902,2.2783488.9137762,3.5941865.1644797.5628862.3971881.9113395.6944699,1.0343947.2741329.1133083.6359883.0499531,1.0770376-.1900655.6798495-.3679472,1.4193991-.7115271,2.2649467-.6493903.2692594.0316776.5446106-.1206185.7505149-.221743.7432047-.3655105,1.4998114-.4459228,2.3148998-.2363635.4897841.1242736,1.0587621.2582941,1.6033727.2863166.0706654.0036551.1413307.0048735.2119961.0048735,1.2744133,0,2.2637283-.5531392,2.9411411-1.6460156,1.2939072-2.0919384,1.4717889-4.2715993.5299902-6.4780643-.3131207-.7346761-.7395496-1.114807-1.3414235-1.1927826-.2534206-.0328959-.5056229-.1596062-.674976-.3387064-.2887533-.3033737-.5860352-.6018739-.8857538-.9003742-.7383312-.7419863-1.4876277-1.4937196-2.1199609-2.3538876-3.4211782-4.6590404-4.4348607-9.8748752-3.0118065-15.5049552,1.0209926-4.0437644,2.6950307-7.7890286,4.9770346-11.1310129,1.928677-2.8241778,4.1412339-5.1451694,6.8350463-7.8864981,3.1945617-3.2493883,6.4853745-6.8728157,8.9099275-11.3369172,2.9033717-5.3547287,4.0900624-10.1343877,3.7342989-15.044412Zm-52.0718435-64.4931084c.1571695-.4227738.3460166-.8382374.5299902-1.2415173.1486409-.3265227.2985002-.6542638.4313024-.9868783.5732423-1.4267093.7913302-2.9155554.8711333-4.3376958.3082472-.2485471.615276-.4998356.9259599-.7380266,3.6356111-2.7870175,7.4667702-4.8753008,11.5866827-6.3014009,2.9277391-1.0136824,5.9748782-1.5522012,8.9221112-2.0736629l.3971881-.069447c.5153698-.0913776,1.0307396-.1827552,1.5461094-.277788,2.0895017-.3874411,4.1899686-.7505149,6.2209886-1.1026233l1.6801299-.29119c.3033737-.0511715.5409555-.0523898.7517333-.0060918,3.6039335.7712271,7.4186447,1.8080586,10.8909944,4.1473257.9344885.6262413,1.5509829,1.2573561,1.998124,2.0468588l.208341.3716023-.4203371.244892c-.0450796.0316776-.2107777.1510777-.4361759.0791939-.8163068-.2704778-1.4925012.2436737-2.2259589.8979374-1.5107767,1.3377684-3.1153678,2.7949369-4.6103057,4.3909994-7.244418,7.730547-16.1177945,12.3664384-27.1281889,14.1708419-2.1991548.3618554-4.399528.545829-6.5402011.545829-.9113395,0-1.8141504-.0383786-2.7139154-.1026475-.6183219-.0441659-1.2348163-.109044-1.8507015-.1839736-.1084348-.5991326-.23149-1.192478-.400234-1.7712029-.0572633-.198594-.046298-.416682-.0255857-.6238046.1839736-1.8957811-.0255857-3.7720683-.6420801-5.736078-.0999062-.3179941-.0865042-.731021.0328959-1.0514519Zm-.4203371,12.5906182c.4611524.145595.9223048.2933222,1.3840664.4203371.1145266.031373.2296624.0511715.344189.0804123,3.6313468.922914,7.3802661.7203603,10.896477.347235,9.2620359-.9820049,17.9660592-4.806463,26.6128191-11.6938991,2.4135876-1.9213668,4.7650385-4.3507933,7.4003692-7.6428244.129147-.1644797.2290532-.2875349.3326146-.4057166.1352389-.152296.3082472-.1583879.3813493-.1608246l.5762882-.0706654-.036551.5202433c-.0316776.4605432-.0548266.9210864-.0779756,1.3804113l-.0073102.1608246c-.0572633,1.1550132-.1145266,2.3270835-.2875349,3.469913-.3253043,2.1589487-.9832232,4.4251137-2.0724445,7.128673-.8711333,2.1626038-2.3173365,3.9414215-4.422677,5.4400145-2.6389858,1.8775056-5.5581963,3.1714127-8.3811556,4.4238954l-.324086.1449858c-4.0486379,1.7983116-8.6638171,2.7778798-14.5205136,3.0812535-.939362.0487347-1.8592301.0731021-2.7328001.0731021-3.6587601,0-6.8557585-.4373942-9.7761874-1.33655-1.376147-.4230784-2.6438592-.939362-3.8628367-1.5034665-.5695872-.2637767-1.1361285-.5327315-1.6746473-.8290996-1.4315828-.7870659-2.7681328-1.6758656-4.0011215-2.7041685-.254639-.2107777-.416682-.5104963-.5738515-.7992496-.0706654-.1315838-.1462042-.2704778-.2339267-.4105901l-.6432985-1.0124641,1.1391744.3752574c.684723.2253981,1.3438603.4520146,1.9883771.6737577.8814895.3024599,1.7294738.5835984,2.5731939.8492027Zm-.823617,6.8173799c-.2820523,1.7227728-.5781158,3.4364078-.8711333,5.1201928l-.1437675.8284905c-.2771788,1.59789-.4319116,3.1104943-.5257259,4.5871567-2.1948905-3.6365248-3.2926404-7.482609-3.3170077-11.6975542-.0012184-.3167758.0097469-.6347699.023149-.9832232l.046298-1.3682276.6725393.5446106c.2485471.2022491.4836922.3996248.7090904.5896903.4373942.3691656.8504211.7176189,1.2756316,1.0149008.7005618.4891749,1.4120889.9399712,2.1309262,1.3639633Zm-3.668507-17.6754783c.7663537.0073102,1.5363624.0938144,2.2807855.1766634.3313962.036551.661574.0731021.9893151.1035613l.1206185.0109653.1608246,1.008809c.1194001.7432047.2290532,1.4267093.3338329,2.1089956.0670103.4313024.1425491.9198681-.2424553,1.4315828-.1206185.1608246-.1413307.4227738-.162043.6993434-.0109653.1364573-.0219306.2729145-.0438613.4008432l-.0219306.129147h-.1315838c-.0194939.0024367-.0450796.0073102-.0731021.0073102-.0450796,0-.0962511-.0109653-.138894-.0499531-1.0532794-.9396666-2.2795671-1.3414235-3.529613-1.529966.0688378-1.3478199-.0347235-2.7264037-.8955007-3.891773-.1279287-.1727037-.1334113-.4294748-.0810215-.6691888.476382.0322868.9539824.0593955,1.4346287.0636597Zm-.1273195-1.730083c.585426-.6262413,1.2214142-1.2969531,1.9731475-2.0785363.7072628-.7355899,1.4218358-1.4352379,2.1425007-2.1089956-.155342,1.323148-.4727269,2.5366428-1.0021079,3.6356111-.2046859.4264289-.4349575.5494841-.9101211.5360821-.7322394-.0402062-1.4736165-.0158388-2.2034191.0158388Zm2.1266619,8.4780159c-.476382-.1096531-.9521548-.2074272-1.4315828-.3356605-.4611524-.1245782-.7407679-.3268273-.8985466-.6250229l.0408153.0012184c.9369252.0258903,1.6508891.4224692,2.2893141.959465Zm-13.8589396-24.5592593c-.8150884.1352389-1.6106829.2180879-2.3648529.2473288-1.1416111.0523898-1.6228666-.337488-1.8360811-1.3986868-.2582941-1.2975623-.5153698-2.6791919-.568978-4.06204-.1279287-3.2676638-.1998124-6.6949339-.2193063-10.4755308-.0170572-3.0605412.0158388-6.3830316.0986878-10.1611918.0353327-1.5875339.105998-3.1994352.1742267-4.7589466.0499531-1.137956.1011246-2.2746936.1376756-3.4126497.1218368-3.7586663.2388002-7.5173325.3557635-11.2759988.129147-4.1607278.2582941-8.3214556.3947513-12.480965.0377694-1.1282091.0718837-2.2551998.1072164-3.3834088.1230552-3.9158358.2485471-7.9644737.4568881-11.9436646.4873473-9.3071156,1.1586683-16.8305399,2.1126507-23.6777699.2144328-1.5375808.52268-3.0861269.8199619-4.5835016.2534206-1.27685.5153698-2.5963429.7188373-3.9024337.7054353-4.5493873,2.0760996-8.7783437,3.6611968-13.4398209.5896903-1.7386116,1.683785-2.8607288,3.3468578-3.4321435,1.3402051-.4605432,2.78519-.8820987,4.3142422-.8820987.0962511,0,.1925022.0012184.2899717.0048735.5373004.0194939,1.1732887.1510777,1.3219296,1.0149008.0913776.5238984.1949389,1.0465784.2997186,1.5704768.2022491,1.0075906.4105901,2.0505139.5117147,3.089782.453233,4.6529486.6932516,9.7493833.7358945,15.5792757.0073102,1.0721641.0402062,2.1626038.0718837,3.2177107.0438613,1.4790991.0889409,3.0093697.0670103,4.5140546-.0475164,3.2603536-.1498593,6.5743154-.2473288,9.7786241-.0402062,1.2963439-.0791939,2.5926878-.115745,3.8890317-.023149.823617-.0511715,1.6484523-.0791939,2.4732877-.0584817,1.6789115-.1181817,3.413868-.129147,5.1220204-.0097469,1.4559501-.036551,2.9387044-.0633552,4.3715055-.069447,3.8061826-.1425491,7.7402939.1145266,11.5842459.4788187,7.1822812.4544514,14.4778707.4313024,21.5322232l-.0048735,1.3426419c-.0109653,3.4272701-.0877225,6.9105851-.162043,10.2793735-.0560449,2.5561367-.1145266,5.199996-.1437675,7.7987756-.0414245,3.8159296.023149,7.7268919.0791939,11.1785293.0109653.7127455.0877225,1.438893.162043,2.1418915.0475164.4495779.0950327.8991558.1279287,1.3499521.0560449.7943761.0938144,1.5753502.1340205,2.4026223.0182755.3545452.0353327.7127455.0548266,1.0758192l.0109653.2022491-4.399528-.9113395.0194939-.1437675c.0219306-.1583879.0450796-.3179941.069447-.4788187.0511715-.3460166.1047797-.7042169.1352389-1.0587621l.0194939-.2059042c.0475164-.5117147.0974695-1.0417049.0560449-1.5497645-.0109653-.1437675-.1315838-.300937-.2570757-.4678534-.0328959-.0414245-.0645735-.0840674-.0950327-.1254919-.046298.0292408-.0938144.0584817-.1413307.0877225-.175445.1047797-.3557635.2132145-.4032799.3350513-.2095594.5446106-.3521084,1.1318642-.4897841,1.6984054l-.105998.4288656c-.0377694.1510777-.0633552.3070288-.0889409.4617616-.0328959.1998124-.0670103.406935-.1267103.6079658-.046298.1486409-.1583879.2643859-.2558573.3655105-.0389878.0402062-.0779756.0804123-.1120899.1218368l-.0779756.0962511-.3996248-.1925022.0024367-.4605432c.0024367-.2522022.0048735-.5031861-.0036551-.75417l-.0121837-.3582003c-.0767572-2.1199609-.1547328-4.3118055-.2522022-6.4658807-.0036551-.0791939-.0974695-.244892-.1571695-.3106839-.2193063.0475164-.3959697.1498593-.4252105.2193063-.1425491.347235-.2010308.7492965-.2570757,1.1367376l-.0085286.0621368c-.3106839,2.137018-.5714147,4.4506995-.3813493,6.8886545l.0109653.1462042-1.554638.2241798-.1547328-.5409555c-.0865042-.2948451-.1717899-.5848168-.2436737-.8772252-.9174313-3.6892193-1.4998114-7.6184571-1.7800361-12.0131116-.152296-2.3989672-.2022491-4.8442324-.2497655-7.2090853-.0182755-.8528578-.0353327-1.7057156-.0572633-2.5585735-.0012184-.0377694-.0036551-.0791939-.0073102-.1206185-.0182755-.2473288-.0523898-.7017801.4849106-.7968129.0194939-.0450796.0426429-.129147.046298-.1912838.0134021-.2168696.0292408-.4337391.0438613-.6506087.0511715-.7237108.1035613-1.4717889.0889409-2.2028099-.0060918-.2704778-.2168696-.6530454-.4252105-.7736639-.1778818-.1035613-.3435799-.0816307-.4495779-.046298-.1730083.0597-.3216492.2034675-.3971881.3862228-.0657919.1608246-.1364573.324086-.2071226.4885657-.2887533.6701026-.5884719,1.3621358-.6079658,2.0346751-.0755388,2.4732877-.0255857,4.677316.152296,6.7400135.3265227,3.8220214.7492965,7.8950267,1.3682276,13.2046758.1267103,1.0904396.3594187,2.1857528.5848168,3.2445148.0974695.4617616.1949389.9210864.2838798,1.3804113l.0207123.0048735.0097469.2424553-.2327083.0657919-.1023429-.1206185c-.777319-1.3377684-1.9810669-1.8507015-3.6538866-1.577787Zm-.0036551,12.758753c.0134021-1.9213668.0280225-3.9085256,1.1940009-5.6702861.2290532-.3447982.6177127-.5860352.9028109-.7285843.7371128-.3642921,1.5046849-.6944699,2.2478895-1.0124641l.2022491-.0877225c1.1038417-.4739453,2.2966243-.7054353,3.6404845-.7054353.0731021,0,.1462042.0012184.2193063.0024367,2.3892203.0426429,4.6651323.578725,6.3805949,1.0404865.7663537.2059042,1.1440478.6871597,1.1550132,1.4730073.0073102.4885657.0060918.9783498.0036551,1.4681338v.036551c-2.3246467,2.3112447-4.1881411,4.80494-5.6562749,7.5106315-2.1284894-.0639643-4.1875319-.6079658-6.5420287-1.4248817-.8784436-.3045921-1.6411421-.5111055-2.437955-.3850044-.4550606-.2975865-.8906272-.6228908-1.3176653-.9628156.0024367-.1845828.006701-.368861.0079194-.554053Zm5.3498553,7.8633491l.9369252-.0304592c.509278-.0182755,1.0343947-.0341143,1.5497645-.0280225.3313962.0073102.6554822.254639.8065598.4958759.2138236.3444936.3624646.699648.4800371,1.0572391.155342.4718131.2278349.9481951.2113869,1.4230542-.006701.1809277-.0103561.36216-.0420337.5412601-.2241798,1.2549194-.5421739,2.4135876-.9454538,3.4455456-.4154636,1.0672906-1.114807,1.6082462-2.0785363,1.6082462-.2290532,0-.4776004-.0304592-.7395496-.0913776-.2656043-.0633552-.731021-.3131207-.8540762-.7188373l-.1181817-.3752574c-.2071226-.6530454-.4215554-1.3255847-.430084-2.0249281-.0103561-.8830124.1401124-1.7148534.3502809-2.5201949.1382848-.5302948.3003278-1.0481013.4702902-1.5579885.036551-.109044.0712745-.2202201.1078256-.3286549l.2948451-.8955007Zm-.0523898-3.7885163c.3508901.1038659.7054353.1967665,1.061808.2841844-.0194939.014925-.0420337.0197985-.0615276.0356373l-.2473288.2010308-.2643859-.1778818c-.1681348-.1136128-.3259135-.2284441-.4885657-.3429707Zm-2.4026223,32.7424301c-.4008432.6082704-.78402,1.2323796-1.1184621,1.8890801-.0304592.0597-.0755388.1023429-.1120899.1352389l-.0865042.0889409-.4568881-.0523898-.0012184-1.8092769c-.0024367-1.8592301-.0048735-3.7830336.0182755-5.6751596.0036551-.2534206.1328021-.4885657.2582941-.7151822.0402062-.0731021.0804123-.1462042.115745-.2180879.0487347-.1023429.1084348-.198594.1681348-.2948451.0767572-.1218368.1486409-.2363635.1925022-.3569819.2394094-.6652291.5153698-1.3194929.8144792-1.9676648-.353936,3.1312066-.2869257,6.0991518.2077318,8.9763286Zm-.9259599-10.1532724c-.0609184.1206185-.1535144.2570757-.3825677.3569819l-.2363635.1011246.0182755-.2558573c.0243674-.324086.0438613-.6493903.0633552-.9734763.0402062-.6713209.0816307-1.3657909.1608246-2.0468588.0731021-.6311148.1364573-1.27685.1949389-1.9308092.3173849-.4188141.6365974-.8361053.9503273-1.2576607.0109653-.0158388.0353327-.0804123.0487347-.1181817.0219306-.0584817.0402062-.1072164.0597-.152296l.254639-.5994372.7371128.7736639-.0194939.2838798c-.0036551.082849-.0085286.1681348-.023149.2534206-.0974695.5628862-.1998124,1.1257723-.3021553,1.6874401l-.0511715.2814431c-.0901593.4910024-.185192,1.022211-.2783972,1.5512875-.4276473.6536546-.8376282,1.3280215-1.1946101,2.0453358Zm-46.321145-37.1066254c.0243674-.0426429.0450796-.0840674.0633552-.1218368.0536082-.1084348.105998-.2156512.2010308-.3131207,5.385188-5.5484493,10.5839656-7.7195817,16.3797436-6.7972768,3.8122745.5982188,7.4320467,2.3587611,10.760629,5.2316735,3.5405783,3.0568861,6.4780643,6.8387014,9.1255787,10.4694389,1.2634479,1.72856,2.5756306,3.475091,4.1887503,4.7906242.1992032.1626522.3850044.3444936.5945637.4922208.5592311.3947513,1.1684152.7663537,1.7057156,1.0940947l.0779756.0487347c.0286317.0176663.0572633.0356373.085895.052999-.0012184.0127929-.0006092.0271087-.0018276.039597l-.0036551.0597c-.0280225.4081534-.0572633.8150884-.0877225,1.2232418-.0054827.0758434-.0103561.1516869-.0158388.2272257-.6347699.1236644-1.2695398.2488517-1.9043097.3795217l-.0389878.0073102c-.0310684.0063964-.062746.0121837-.0932052.0185801-1.8507015.3810447-3.7422183.7684858-5.6258157.984137-1.9579179.2229614-3.9536052.3362697-5.9334537.3362697-4.7979344,0-9.7006485-.6579189-14.5716851-1.9554811-2.8875329-.7700088-5.6520106-2.2357059-8.2191127-4.3544484-1.2841602-1.0611988-2.2661651-2.5244592-3.0910004-4.6066506-.3179941-.800468-.5933454-1.6326135-.860168-2.4367366l-.023149-.0682286c-.1315838-.4044983-.2656043-.8102149-.4057166-1.2110581-.1815369-.5275535-.360637-1.0429233-.5567943-1.5570747-.3435799-.9076844-.7578251-1.3121827-1.4303644-1.3974685l-.6323332-.0804123.3119023-.555576Zm24.9326892,24.8924831c-.7224924.0487347-1.4510767.0743205-2.1674772.0743205-4.8344855,0-9.2912768-1.1257723-13.2497554-3.3468578-3.8987786-2.1881895-7.0969954-5.5813453-9.7786241-10.3719695-1.2451724-2.2271773-2.1260527-4.3836892-2.692594-6.5938093-.1547328-.5957821-.0536082-1.0746009.3179941-1.5071216.3569819-.4179003.7017801-.8650415,1.0063722-1.2610112l.8881905-1.1403927.2607308.7371128c.1937206.5470474.3801309,1.0880029.5628862,1.6253033.4105901,1.1940009.7882843,2.2929692,1.2232418,3.3834088,1.6204299,4.0717869,4.4433892,7.231016,8.6309212,9.6580056,3.5430151,2.0553873,7.3077732,3.1421719,10.8483515,4.0108685,5.9188333,1.4498583,12.3311057,1.7020605,20.7926737.8223986.7535608-.0798031,1.5028573-.2089502,2.2655559-.3484533.2716961-.0499531.5385188-.0962511.816916-.1486409l.0816307-.0158388c.4617616-.0877225.9271783-.1766634,1.3962501-.2570757l.6079658-.1035613-.8077782,4.3398279.5360821,1.8720229.7992496,2.7906726-.8638231-.8290996-1.9908138-1.9097923,1.369446-1.8835974-.8760068-.883317c-.1108715-.1123945-.2229614-.2211338-.3338329-.3326146-.1925022-.1943297-.3843952-.3898779-.5799433-.578725-.0621368-.0597-.1096531-.1011246-.1462042-.1303654-.0414245.0731021-.082849.1596062-.115745.2302716-.1242736.2753512-.4471412.5117147-.7346761.5385188-1.4169624.1267103-2.8327063.2582941-4.2472319.3898779l-.7700088.0706654c-4.2752544.3971881-8.696713.8077782-13.049943,1.0989682Zm15.0651242,11.2650334c-.9612926,1.8653219-1.9262403,3.728207-2.8984982,5.5862187-1.7873463,3.4175231-2.8241778,7.2894976-3.2627904,12.1836832l-.1084348,1.2329887c-.3898779,4.3520116-.7919394,8.8526642-1.1525764,13.2765595-.6554822,7.9961513-3.1896883,14.4206074-7.7500409,19.6400973-4.0035583,4.5810649-7.9924962,7.9924962-12.1946485,10.4292328-4.3130238,2.4988734-9.0232357,4.5944669-14.8238873,6.592591-6.1320477,2.1126507-10.9957741,4.515273-15.3075795,7.5611938-5.431486,3.8342051-9.5605362,8.9830296-12.2750608,15.3014877-.2351451.5470474-.4690718,1.0977499-.7017802,1.6484523-.5165882,1.2183683-1.101405,2.599998-1.706934,3.9280195-.2948451.6481719-.6469536,1.2683214-.98566,1.8677586l-.0328959.0560449c-.1583879.2790063-.3179941.5580127-.4715085.8394558l-.1839736.3338329-.837019-.3362697.0328959-.5190249c.0097469-.1766634.0219306-.3533268.0414245-.5287718.0182755-.1571695.0414245-.3119023.0670103-.4654167.0341143-.2205247.0682286-.4495779.0816307-.674976.0182755-.3179941-.0292408-.5433923-.1340205-.638425-.1230552-.1120899-.4081534-.1364573-.8016864-.0731021l-.2643859.0426429-.1547328-.2156512c-.0414245-.046298-.1778818-.2010308-.1364573-.4264289l.0877225-.4459228c.707872-3.6234274,1.438893-7.3699099,2.8229594-10.8922127,2.3477957-5.9797517,6.1539784-10.6777799,11.6354174-14.359689,4.1716931-2.8046839,8.8282968-5.097653,15.0943651-7.4357018l1.8909076-.7029985c4.154636-1.5473278,8.4506026-3.1470454,12.6210774-4.87591,4.3032769-1.786128,7.8609124-4.0644767,10.8751556-6.9629749,4.1509809-3.9950297,6.5511664-9.0342011,7.3382324-15.4074857.5714147-4.6261445.2388002-9.2693461-.1145266-12.7977408-.5848168-5.828674.5470474-11.5647521,3.4577293-17.5359752,1.8531382-3.8000908,3.7172417-6.6510726,5.8640067-8.9720643,1.9871587-2.1528568,4.0998094-3.36757,6.4573521-3.7160234.3910962-.0572633.7809741-.1791001,1.1940009-.3082472.2619492-.0816307.5178065-.162043.777319-.2266165.0621368-.0158388.1230552-.0213214.185192-.0344189.20164-.0426429.4038891-.0819353.5994372-.1117853l.7224924-.115745.1973757.8163068-.4751636.4958759c-.2241798.2363635-.4556698.4812555-.6969067.7090904-.1900655.1803185-.3642921.3810447-.5482657.5692826-1.5424543,1.5802237-2.8723033,3.4306206-4.0242705,5.6687632Zm2.9642901,31.7969763c.0950327-.5287718.1912838-1.0502335.2875349-1.5656033.2071226-1.1221172.4032799-2.1808793.578725-3.261572.2010308-1.2427357.3923146-2.4879081.5848168-3.7318622.3387064-2.1894079.6871597-4.4519178,1.0819111-6.6705665.1510777-.8492027.486129-1.7495769,1.0526702-2.8339247.2783972-.5330361.5896903-1.0417049.9107303-1.5424543.1760542.8345823.3783034,1.6649003.6280689,2.4879081.7870659,2.5945153,1.7983116,4.9307366,3.0172891,7.0205428-.0938144.0734067-.178491.1324976-.2808339.2177833-2.798592,2.3392672-5.097653,5.3596022-7.0263301,9.2364502-.105998.2119961-.2180879.4191187-.3326146.6262413-.0328959.0597-.0852858.0852858-.1449858.1145266-.0304592.0158388-.0718837.0353327-.1279287.0670103l-.2875349.1608246.0584817-.3253043Zm19.4500318,44.1524494c-1.1440478,2.7778798-2.752294,4.677316-4.9173345,5.8079618-1.2561377.6567005-2.5805041.98566-3.9609154.98566-.8869721,0-1.7970933-.1364573-2.7267083-.4081534-.6286781-.1839736-1.2415173-.370384-1.8275525-.6262413-.4739453-.2059042-1.0124641-.4581065-1.405997-.8382374-1.7775994-1.7191177-2.752294-3.7562295-2.8960615-6.0516354l-.0085286-.138894,2.7437654-.4812555v.185192c.0048735,1.4888461.8967191,2.4428285,1.8348627,3.2810659-.0389878-.1145266-.0791939-.2290532-.1194001-.3435799-.129147-.3655105-.2619492-.7419863-.3582003-1.1269907-.115745-.4593249-.1669165-.9369252-.2156512-1.3986868l-.0060918-.0572633c-.0414245-.3874411.0328959-.6871597.221743-.8918456.1827552-.1961573.46298-.2960635.837019-.2960635.0207123,0,.0414245.0012184.0633552.0012184l.0877225.0024367.0438613.0779756c.1937206.347235.3082472.7590435.4191187,1.1562315.2704778.9698212.5275535,1.8896893,1.8726321,2.0151812l-.0036551-.0767572c-.0085286-.1425491-.0146204-.2595125-.0280225-.3752574-.0280225-.254639-.0584817-.5068412-.0889409-.7590435-.0584817-.4788187-.1181817-.9734763-.1559511-1.4632603-.0633552-.8248353-.0134021-1.6850034.7748822-2.3806917.2607308-.2290532.439831-.5653229.6311148-.9210864.0913776-.1717899.185192-.3447982.2887533-.5129331l.1096531-.175445.138894.1535144c.0572633.0633552.1145266.1242736.1717899.185192.3874411.4130269.7882843.8406741.7809741,1.6521074-.0182755,2.1394548.2461104,3.7196785.8540762,5.1256755.0499531.1145266.1559511.2180879.2668227.3277411.0134021.0134021.0280225.0268041.0414245.0402062.0109653-.0121837.023149-.0243674.0341143-.0377694.0974695-.1047797.1888471-.2046859.2168696-.3033737.2643859-.9478905.5019677-1.9006546.707872-2.8302696.0584817-.2668227.0779756-.5446106.0986878-.837019.0097469-.138894.0194939-.2790063.0341143-.4191187l.0134021-.1401124h.1486409c.3923146,0,.674976.0913776.8613864.2814431.1888471.1912838.2741329.4715085.268041.8820987-.0073102.4983126.0036551,1.0063722.0146204,1.4973747.0109653.476382.0207123.952764.0158388,1.4279277-.0024367.2229614.0523898.2765696.069447.2875349.0426429.0268041.1413307.0134021.2607308-.0414245.7651353-.3301778,1.1903458-.7809741,1.3377684-1.415744.1583879-.6761944.3216492-1.3950317.4264289-2.1114323.0572633-.3825677.1791001-.6250229.6274597-.7273659.3496717-.0791939.7005618-.2071226,1.0392682-.3301778.1498593-.0548266.2997186-.1084348.4507963-.1596062l.1462042-.0499531.0511715.1462042c.4252105,1.2208051.0402062,2.414806-.2863166,3.2067454Zm-11.0237965-7.1445118c-.2059042-.1559511-.416682-.3070288-.6274597-.4581065-.4678534-.3350513-.9515457-.6822863-1.3816297-1.0806927-.3910962-.3630738-.5677596-.777319-.4970943-1.1684152.0743205-.4081534.406935-.7517333.9369252-.9686028.744423-.3033737,1.2281153-.3435799,1.5631665-.1303654.3326146.2119961.499531.6567005.5397372,1.4413297.0243674.4983126-.0134021,1.0027171-.0499531,1.4900645-.0170572.2205247-.0328959.4422677-.0438613.661574l-.0048735.0913776-.3569819.1815369-.0779756-.0597Zm9.7761874-26.5141313c1.5826604,4.1692564,2.5488265,7.4588508,3.1336433,10.6655962.1998124,1.0940947.4544514,2.1991548.7005618,3.2676638.2656043,1.1537948.5397372,2.3477957.7480781,3.5344865.3959697,2.2698202.3119023,4.5700996-.2595125,7.0299852-.3338329,1.4315828-1.3268031,2.7133062-2.7961553,3.608807-1.3109643.7968129-2.8509819,1.1964377-4.1351421,1.0477968-1.2049663-.1328021-2.3197733-.767572-3.0605412-1.7422667-.7346761-.9649477-1.0356131-2.137018-.8479843-3.3005598.1108715-.6895965.4922208-1.1879091,1.1988744-1.5704768.2266165-.1230552.4593249-.1474226.6420801-.0633552.1096531.0499531.2522022.1596062.3082472.4032799.1474226.651827.1998124,1.1793805.1656981,1.6594176-.0182755.2643859-.1449858.4081534-.2485471.4812555-.1888471.1364573-.4641983.1656981-.777319.0840674-.175445-.0475164-.4179003-.0804123-.5799433.0194939-.0962511.0584817-.1596062.1596062-.1925022.3106839-.0706654.3204309.0840674.4849106.5896903.6311148.7383312.2132145,1.3389868.1778818,1.7812545-.1011246.4471412-.2790063.7419863-.8077782.8772252-1.5729135.1486409-.8443292.0012184-1.6825666-.4373942-2.4915632-.592127-1.0867845-1.8202423-1.4474216-2.9204289-.8565129-.3058104.1632614-.5957821.3789125-.9015926.6067474-.1486409.1096531-.3021553.2229614-.4654167.3387064l-.1474226.1023429-.0816307-.1596062c-.4118085-.8065598-.9686028-1.2573561-1.7044973-1.3779746-1.5656033-.2570757-2.947233.208341-4.0900624,1.3913766-.5031861.5190249-.6895965,1.2415173-.5726331,2.2089018.2266165,1.8762872,1.7191177,3.3237088,3.6295192,3.5186477.0572633.0048735.115745.0182755.1730083.0328959l.1437675.0328959.185192.3752574-.1230552.0743205c-.1401124.0840674-.277788.1778818-.4154636.2704778-.3082472.2107777-.6286781.4276473-.98566.545829-1.4839726.4873473-2.9508881.916213-4.3593218,1.2719765-.2790063.0706654-.5446106.105998-.7980312.105998-.6238046,0-1.170852-.2156512-1.6569809-.651827-1.8007484-1.6119013-2.4866897-3.761103-2.9216472-5.6507922-.8857538-3.853699-.5007494-7.6208938-.0657919-10.4718757.3460166-2.2673834.7468598-4.2971851,1.2281153-6.2088049.1925022-.7602618.5714147-1.4778808.9381436-2.1711323.1303654-.2473288.2607308-.4934392.3825677-.7407679.1072164-.2180879.2400186-.4239922.3679472-.6213678.1401124-.2156512.2716961-.4203371.3740391-.6396434,2.0602608-4.4299872,5.1317673-8.0741268,7.5770326-10.7533188l.0804123-.0865042c.1254919-.1352389.2558573-.2753512.324086-.4239922s.0950327-.360637.0743205-.4105901c-.0840674-.0670103-.3423615-.1218368-.430084-.0755388-.3423615.1681348-.6810679.4032799-1.0075906.698125-1.8677586,1.6862217-3.5734743,3.6940927-5.2158348,6.1393579-.3728207.555576-.7237108,1.137956-1.0965315,1.753232-.1815369.2997186-.3691656.6116209-.5701964.9369252l-.3253043.5275535.036551-.6189311c.0194939-.3204309.0389878-.6225862.0584817-.9125579.036551-.5701964.0718837-1.091658.0913776-1.6131197.0170572-.4386126.0243674-.8772252.0328959-1.3158378.0146204-.7639169.0292408-1.5522012.0901593-2.3270835.0523898-.6420801.1230552-1.5193053.4824739-2.1954997,1.1574499-2.1881895,2.4477019-4.4884689,4.0608216-7.2395445,1.1208989-1.9134474,2.6219286-3.5618998,4.1071196-5.1485199,2.0992486,3.3492945,4.7772222,6.0086879,8.0260013,7.9471119,0,.1367618.0006092.2756558.0006092.4118085-.0012184,3.4626028.4203371,6.9605382,1.253701,10.3999919.1035613.4264289.2071226.7700088.3265227,1.0794743Zm45.6486057,15.0322283c-2.2149936,3.4418905-4.9636325,6.3160213-7.6038367,8.9099275-4.2362666,4.1631645-7.4417937,8.322674-9.8005547,12.7161101-2.7120879,5.0489183-3.8488255,9.9772181-3.4772232,15.0651242.2656043,3.6587601,1.5387992,7.068973,3.784252,10.1343877.7127455.9734763,1.5412359,1.8835974,2.3417039,2.7644777l.036551.0402062c.4666351.5104963.9235232,1.0124641,1.3633541,1.5290522.2473288.2887533.4337391.6920332.4970943,1.0770376.0779756.4690718.1328021.9491089.185192,1.4145256.046298.4081534.0938144.8175251.1559511,1.2232418.0633552.4130269.0852858.837019-.1961573,1.1343009-.2753512.2936268-.7029985.2887533-1.0027171.2558573-.2802247-.0268041-.5616678-.0572633-.8431109-.0877225l-.2107777-.023149c-.509278-.0572633-1.0173375-.1120899-1.5278339-.1559511-.0657919-.0060918-.129147-.0085286-.1900655-.0085286-.6201495,0-1.0307396.2729145-1.3146194.8650415-.1169634.2436737-.3996248.5117147-.7139638.5567943-.4702902.0670103-.9332701.1096531-1.4888461.1596062l-.9698212.0901593-.0791939-.5665413c-.0182755-.1242736-.0414245-.2802247-.0536082-.4361759-.1571695-2.3733815-.8577313-4.5956853-2.0785363-6.6084297-.5811617-.9576375-1.1403927-1.9091832-1.7568871-2.9642901l-.6530454-1.114807c-2.1991548-3.737954-2.9594166-8.0193003-2.32221-13.0889308,1.1172437-8.9160193,4.2399217-17.1424422,9.5446974-25.147122l1.753232-2.6389858c1.624085-2.4428285,3.3029965-4.9697244,4.945357-7.4966202,1.9457342-2.993531,3.3700068-6.1612886,4.2326115-9.414332.5117147-1.9189301.5019677-3.9158358-.0268041-6.1040253-.6225862-2.5792857-2.1735691-4.3654137-4.8807835-5.6215514-2.7364552-1.2695398-5.7385148-1.382848-8.3372944-1.3889399-.9332701-.0036551-1.8641035,0-2.7912818.0085286l-.5982188.0036551c-2.5792857.0146204-5.246294.0280225-7.8657858-.0962511-4.5359852-.2168696-8.5395435-1.1988744-12.2421648-3.0032779-.5835984-.284489-1.1373468-.6012648-1.6831758-.9265691-.476382-.2838798-.929615-.5930408-1.3773654-.9082936-3.9499501-2.7818395-6.8192075-6.7783921-8.683311-12.1678444-.6536546-1.8902984-1.1020141-3.8658827-1.3676184-5.9072588-.0499531-.3850044-.1041705-.7684858-.1407215-1.1586683-.2266165-2.4327769-.1839736-4.960282.1303654-7.5666764.1133083-.9430171.2509839-1.8969995.3825677-2.8193043l.0207123-.1449858c.0225398-.1571695.0469072-.3332237.0706654-.4955713.0852858-.5948683.168744-1.2083168.2509839-1.8418683.0523898-.408458.1078256-.8172205.152296-1.223851.1474226-1.346297.8077782-1.974975,2.0760996-1.974975h.0523898l.4788187.0134021-.2046859,1.5180869c-.8881905,6.6681298.6640107,12.7343856,4.6127424,18.028196.3399248.4556698.6895965.8973283,1.0417049,1.3359409.631724.7873705,1.2841602,1.544891,1.9542628,2.2765212,2.6182735,2.8582921,5.521036,5.2962471,8.6784375,7.2614752,2.8485451,1.776381,6.0552905,2.7717879,9.5276402,2.9618534,1.6923136.0938144,3.3895007.1498593,5.2743164.208341,1.56804.0511715,3.3456394.1084348,5.0647571.198594,3.7988724.2010308,7.5075856.4958759,11.121266,1.8872525,3.3115251,1.2744133,5.8323291,3.1117127,7.7086163,5.6142412,2.0760996,2.7717879,3.1933434,6.235609,3.3200537,10.297649.1401124,4.4957791-1.2195867,8.8027111-4.2764728,13.5519108Z" stroke-width="0"/>
    </g>
  </g>
</svg>