<?xml version="1.0" encoding="UTF-8"?>
<svg id="Layer_2" data-name="Layer 2" xmlns="http://www.w3.org/2000/svg" viewBox="0 0 243.8419388 248.5706925">
  <g id="Layer_1-2" data-name="Layer 1">
    <g>
      <path d="m202.8334112,180.3320688c-1.174622,1.9449887-2.9510286,3.2375458-4.894594,4.2280611-4.2794306,2.1809904-8.8009063,3.6304368-13.6602687,3.5623164-1.6813316-.0235608-3.3867275-.3319527-5.0268496-.7325293-1.6797112-.410255-3.184556-.2510666-4.6460894.6223237-1.7957414,1.0730436-3.5943074,2.1413575-5.3926544,3.2100656-4.0636175,2.41489-8.5304174,3.5629514-13.1728282,4.0731426-2.6393741.2900863-5.0305939-.5387881-7.1386686-2.1200959-.6765178-.507454-1.250231-.5654363-2.04891-.2594968-1.6994619.6509864-3.4528553,1.1612651-5.1843301,1.7285625-.3322811.1088262-.6656133.2144554-1.0967138.3531705,1.794975,2.9354601.6242506,5.5161076-.8722078,8.1460442,3.5932345-.4156196,6.5155347,1.0557015,9.3451248,2.684087,3.8072958,2.191019,5.2070368,5.9548938,3.7800783,10.1289141-.5260224,1.5386532-1.3570208,2.9730347-2.0558075,4.4697778,2.587501,1.5659145,3.6298456,5.209971,2.1793044,8.547234-1.8238128,4.1961358-4.494302,7.7111775-8.4632824,10.1761013-5.9533829,3.6973748-12.4808075,5.76805-19.2892314,7.1578062-6.726629,1.373071-13.5281664,2.0622013-20.371165,2.2481692-6.9115241.1878511-13.5362353-1.4069451-19.9113033-3.9591707-5.1049767-2.0437643-9.8592573-4.7425002-13.9192618-8.5211114-2.7093448-2.5216579-4.9338218-5.3983476-5.8830401-9.0503963-1.6183678-6.226587,2.1864098-12.2430103,8.6019099-13.6645604.6400818-.1418244,1.0051641-.4267431,1.3467951-.9969091,3.2038579-5.3470876,7.5235344-9.1671929,13.9681789-10.0040815.0867106-.0112549.1710892-.0471434.2536285-.0791125.0218528-.008474.0327354-.0452384.110337-.1610496-1.3700821-1.4472786-2.1210813-3.1798921-1.8117697-5.2394.3043848-2.0267069,1.3520065-3.589096,3.0743613-4.7813886-.6907287.0508658-1.3973215.2223382-2.0697446.1339197-6.5364788-.8592888-12.5551356-2.9079361-17.4469378-7.5901549-3.0220722-2.8925647-5.5791917-6.1472994-7.8619138-9.6351235-.5236575-.8001242-1.0934293-1.5708193-1.5984857-2.3821327-.6867983-1.103239-1.6356771-1.5180923-2.9377264-1.4663944-3.0162696.1197526-6.0364697.1411675-9.055115.2003321-.7173221.0140576-1.4380054-.0207142-2.1517146.0356258-6.4708656.5107823-11.9647919-1.9721405-16.9061134-5.7839688-2.4203313-1.8671024-4.5048398-4.1721371-6.719447-6.3017362-.7093737-.6821671-1.3585371-1.4284038-2.0162567-2.1623345-.4375874-.4882945-.946722-.9521962-1.2417023-1.5214206-1.0948636-2.1127387-2.653919-3.9127061-3.8887347-5.926691-.8090963-1.3196214-1.9404999-2.2402864-3.2889263-2.9566123-2.2415619-1.1907379-4.5097392-2.3414269-6.6835639-3.6473848-3.9590667-2.3784103-6.3406301-5.8255067-6.7290267-10.5177323-.2128077-2.5709691.1656369-5.0849851.9235828-7.5215637,1.1466381-3.6861089,2.5778556-7.263753,4.4457244-10.656721,1.6747188-3.0421186,3.8477224-5.6834196,6.346263-8.0763692.3846195-.3683777.7134027-.8017226,1.031139-1.232232,2.9675113-4.0206783,5.9044276-8.0794238,10.0348845-11.0272555,2.0657157-1.4742662,4.196311-2.8673945,6.3662984-4.1839504,6.3366394-3.8444872,12.7441143-7.5733711,19.0468797-11.4719648,2.3809393-1.4727444,4.5608568-3.2731935,6.8093107-4.9551491.4466143-.3340876.8526542-.7650677,1.1663451-1.2268235,1.3434558-1.9776037,2.6462497-3.9828519,3.960167-5.9804581.0759046-.1153952.1190519-.2523475.124526-.2642483-2.2322175-.22663-4.4599134-.3466563-6.6507682-.6970568-4.7273477-.7560901-9.2979485-2.0449248-13.3112804-4.7826257-5.2538628-3.5839284-8.8813873-8.3620762-10.4764462-14.5924842-.5570937-2.1760637-.1135449-4.0130911,1.4626939-5.6838137,2.2217728-2.3549535,4.6254299-4.333986,7.9300341-4.8934171.3523165-.0596519.7111692-.0980421,1.0681716-.1094393,1.0575079-.0337755,2.0046898.134593,2.2104304,1.3073757,1.2726422,0,2.4649129-.0782366,3.6433011.0163458,2.4245245.1946116,4.5567512,1.160121,6.4363018,2.6919698,2.3169246,1.8883312,4.6481586,3.7595666,6.9427924,5.67465,3.1256322,2.6085984,5.2994953,5.9770641,7.3909504,9.403961.240173.3935369.441808.8105798.6608179,1.2158095.2190318-.118384.2579859-.1257304.2688138-.1472328,1.914213-3.8003764,4.4089928-7.4620597,4.1039949-11.9477728-.1745379-2.5669292-.8801344-5.1069638-1.4580189-7.6336306-.3250552-1.4212709-.9010019-2.7835688-1.313567-4.1872349-.1553346-.5285022-.4413263-.6290897-.9497876-.7011624-2.9235155-.4144427-5.857651-.7957668-8.7474786-1.3871998-1.2867436-.2633451-2.5057172-.9365456-3.7014037-1.5322047-.5804793-.2891722-.9923327-.4019507-1.5148516.0617758-.3021076.2681131-.7011953.4833787-1.0924002.5857892-3.2880723.8607395-6.5726192,1.7408301-9.8830698,2.5078576-1.7687538.409817-3.5770529.7264311-5.4021138.1337883-.3417076-.1109611-.76648.0634071-1.150054.0453424-.7047863-.0332062-1.485335.0649563-2.0962943-.2045253-1.776965-.7837948-2.124738-2.5694199-.7610825-4.148653,1.6658069-1.9291301,3.6093832-3.5398012,5.8837517-4.7685462,2.414693-1.3045456,4.7522113-2.753346,7.1084622-4.1641613,1.8422388-1.103042,2.456625-2.8996428,2.7227564-4.9014367.1011952-.7612522.2126161-1.562099.5309163-2.2465215,1.4786236-3.1795089,3.5652177-5.9011924,6.6106317-7.7123325,3.1167313-1.8535539,6.4805658-2.7290627,10.1643647-3.0865413,6.0473632-.5868347,11.0548891,1.5617432,15.8680934,4.7170727,2.6829484,1.7588237,4.296072,4.4539302,6.0377287,7.0219323,2.7811876,4.1007049,4.1011812,8.7127779,4.7454672,13.5792512.9144902,6.907194.8584568,13.7681314-.6826817,20.5875857-.0585406.259037-.0681861.5291317-.1119683.88678.2682445-.0197179.4955642-.0089448.7100634-.0562634,3.7635682-.8302211,7.5777286-.9853805,11.4140154-.8881595,1.8073466.0457968,3.5741078.4742588,5.0366374,1.4293344,2.1465689,1.4017446,3.3894208,3.657709,3.55797,6.1455038.0903673,1.3338323-.7026733,2.8287251-1.384928,4.0959588-2.7876908,5.1779581-7.2567789,8.0161645-12.9906812,8.9735611-2.6202803.4375163-5.2389512.8871632-7.8655267,1.2837985-2.6744416.4038721-5.355682.4492419-8.0400208.0259037-.3328942-.0524971-.7022354.1260041-1.0546833.1974746.1427331.2992172.2387607.6340493.4355127.8920681,1.6532053,2.1679838,2.2486947,4.7204174,2.70167,7.3272094.0766819.4412825.1388355.8850612.2145321,1.3265188.0090324.0527052.0612229.0979983.1113552.1738701,1.5422005-.2421437,3.0889007-.6174517,4.6519905-.7070964,6.2034751-.3557324,12.2100669.2053136,17.3442208,4.2503409,2.167086,1.7073885,3.8830142,3.8082045,5.1911618,6.22362.9112276,1.682514.6734413,2.5651665-.7930735,3.7793776-.1763334.1459957-.3073847.3631444-.4179516.5695309-.8747479,1.6327211-1.8060875,3.2397355-2.5884645,4.9160527-.7850703,1.6821308-2.0010769,2.8741168-3.6107189,3.7190633-.317479.1666442-.6439794.3167674-.956674.4917651-1.4143352.7915298-1.4462057,1.620864-.0798241,2.521647,1.0797111.7117932,2.2752444,1.067449,3.571513.956258,1.3825413-.1185921,2.53138.1531887,3.2782735,1.4838022.235947.4203493.6980203.7335256,1.1008413,1.0370565,1.6936922,1.2761566,3.3379528,2.6339876,5.1222313,3.7704875,3.6861089,2.3478426,7.7703093,2.6834301,11.9239876,1.7584514,4.0543772-.9028631,7.827339-2.5729945,11.2388754-4.9790164.7037572-.4963306,1.33346-1.1042791,1.9634475-1.6967906.672248-.632221,1.2859225-1.2405527.9418829-2.3773154-.1365911-.4513659.2231484-1.1567325.5417441-1.6191123.5565681-.8077771,1.2770106-1.500575,1.8876415-2.2740291.3462512-.4385892.6170247-.9378539.9102861-1.4168314.3083919-.5037097.1213291-.8315677-.3819864-1.0581211-1.0835321-.4876814-2.1946101-.9283946-3.2283931-1.5064323-.5407807-.3023813-1.1352738-.7690967-1.3738155-1.3083227-1.3313361-3.0094926-3.7713634-4.8381008-6.6047853-6.1397012-3.6594498-1.6810797-7.4642931-1.7722244-11.2589546-.3742569-1.6808498.6192253-3.3214537,1.3469374-4.9884758,2.0048102-.8038028.3172163-1.6095107.6660512-2.4475598.8449137-.4286372.091495-1.1191688-.0105323-1.3469921-.298002-.2348959-.2963707-.2451435-1.068084-.0138934-1.379421.6272614-.8443991,1.3108956-1.7756622,2.1966027-2.2721241,1.7614294-.9873402,3.6725221-1.7081111,5.5242969-2.5333179.2141927-.0954473.4445232-.1546558.4880098-.1694907-.4410197-1.2157876-1.0162219-2.3624695-1.2570846-3.5755201-.3083043-1.5527546.1109501-3.0758393.7043046-4.5453978,2.8498882-7.0580124,12.2740597-14.9765399,20.9977366-15.5150105,3.8562566-.2380271,7.2647493.8140504,10.3334066,3.0736497,1.160017.8541979,1.9808334,2.0078539,2.3638709,3.404409.2823568,1.0293489.926402,1.5186725,1.927121,1.7374197,1.602657.3503677,3.2236415.6678248,4.777491,1.1795706,2.9357667.966856,4.2713507,3.077602,4.079624,6.1706302-.0216339.349043-.0429393.6981079-.0816744,1.3288508.4094886-.3921246.6338194-.5966609.8467859-.8124082,6.0399403-6.1186039,16.8000462-7.0494837,23.2256515-1.7834902,3.9199538,3.2125399,5.9385808,7.5895856,6.2520966,12.6584876.0949875,1.5361679-.1368538,3.09709-.2774082,4.6413597-.0691714.7600096.0155247,1.2647047.84591,1.6095982,1.8998598.789143,3.0910794,3.0259698,2.8159046,5.0367469-.2809555,2.0529171-1.7036004,3.4303893-4.0038617,3.700703-.7717243.0906848-1.2546541.4029743-1.7941429.9276063-1.4629128,1.4225793-3.3389053,2.0402609-5.309929,2.3957743-2.1028195.3792822-4.1030752.064376-6.0115185-.8835065-.2361988-.1173111-.4834554-.2124081-.8954402-.3917633.9340877,6.0956453-1.8082224,10.5156521-6.1285778,14.2212162,1.4773427,1.5977303,1.4329583,2.627331-.1826616,4.1511054-.5151398.485864-1.0725619.9268727-1.7184244,1.480868.7901174.1374998,1.4533002.2325968,2.107571.3701404,3.4251998.7201578,6.3988039,2.453658,9.3369792,4.239513,1.081014.6570408,1.4203677,1.4618946,1.1283982,2.107166-.296721.6557598-1.1207344.9447623-2.3142313.5284529-2.4791785-.8647192-4.944387-1.7835449-7.361182-2.8079014-1.5849645-.6717772-3.0487094-1.6251667-4.6176895-2.3407043-.9212125-.4201084-1.9004948-.5646808-2.9223003-.023506-2.5693707,1.3608089-5.2719822,2.3929715-8.1003679,3.1012394-.7101291.1778334-1.3496197.7299893-2.0565738.8133935-5.4459508.6424248-10.7933449,2.0425709-16.3149267,2.1054909-2.3608054.0269109-4.7221582.0996624-7.0807302.2071529-4.8399182.2205974-9.6121102-.2479901-14.3375967-1.2869516-.4004453-.0880353-.8293124-.0469135-1.3833624-.0720727.1379706.3117859.1684726.4242469.2307027.5149755,1.4158351,2.0638545,2.8995059,4.0846164,4.2363599,6.1982747,1.4443883,2.2837512,1.7140232,4.8792664,1.5969858,7.5165604-.0425889.95986-.3711257,1.7808079-1.3787422,2.2281119-.3859059.171341-.6348266.6512053-1.0762405,1.1322082,1.3816107.1834936,2.5942014.2978596,3.7885304.5134099,2.1444012.3870008,4.2949772.7655056,6.4085479,1.2870173,1.0260973.2532343,2.0641063.6874223,2.9407591,1.2731349,2.4679236,1.6488589,5.2358309,2.3069616,8.1002584,2.6310972,4.8706829.5512254,9.6536043-.1587286,14.4213512-1.1127422,4.0127736-.8029489,8.1229871-1.2950753,11.8503821-3.0804814,3.8770146-1.8570519,7.6899378-3.8625628,11.4415942-5.962689,3.9069035-2.1870558,7.9855421-3.9480691,12.2208947-5.3445476,1.2238675-.4035108,2.5643782-.5645166,3.8590812-.6081347,1.1051002-.0372461,2.1321391.4453333,2.629652,1.5551414.5032937,1.1226832.0590114,2.1065638-.6377827,2.989282-.5131472.6501324-1.0794374,1.2583327-1.7412188,2.0228968,1.6775653.3063117,3.417317.890382,5.1549667.8841634,3.3078121-.0118023,6.6153395-.3473241,9.9213123-.5728811,5.4955247-.3748481,10.99094-.487769,16.4747938.1239348,2.8409982.3168878,4.8303713,2.0360129,6.5242934,4.200559.277452.3545281.7440251.5999891,1.1707244.7879278.4302904.1895371.9188038.2487893,1.3834938.3579659,2.6673361.6265497,3.8233898,2.485638,3.0690952,5.1592803-.2531687.8973452-.7318724,1.7728594-1.2779959,2.5363943-.9329053,1.3043813-2.0003871,2.5125051-3.0543807,3.8142151.1481306.1796617.3573746.4258673.5584513.6785542,1.3985587,1.7579478,1.4670732,3.9183554.1158112,5.7056665-.3631772.4803679-.365564.8385746-.1262559,1.3677939,1.9224352,4.2510744.6293087,7.7647147-3.5630609,9.8417181-.2541321.1258617-.5654363.4216412-.5959821.6696642-.3088517,2.5072281-2.7341208,4.566736-5.665333,4.7767903-1.5210483.1090013-3.1488427.0301735-4.5991649-.3997665-6.6191057-1.9622432-13.5048684-2.5328909-20.2074221-4.0363124-.7824317-.1755452-1.5687173-.3340548-2.3666518-.5032937ZM48.2849815,20.4742082c-.1821141.1145905-.3642283.2291809-.5463424.3437768-2.371053,1.4418702-4.6988055,2.9625244-7.1285414,4.2975993-1.5886432.872914-2.8441951,2.0619057-4.0205688,3.378467-.1473533.1649089-.1513385.457913-.221758.6915663.2688466-.009952.5451053.015875.8048977-.0378483.4421474-.0914457.8679928-.2684799,1.31187-.3427696.3952996-.0661606.8257761.0328066,1.2062954-.0693685,2.9095565-.7812712,5.5082029-2.261767,8.1762178-3.6053159,1.6419286-.8268381,3.403993-1.4267944,5.1416973-2.0455598.6288598-.2239257,1.4453736-.3621317,1.7945808.4764703.3661223.8791764-.2975859,1.3138899-.9618635,1.6551158-1.3011297.6683777-2.609748,1.322676-3.9248149,1.9631684-.4182363.2037042-.8667556.3452001-1.3014253.5151617,1.9646628-.2281463,3.9066626-.5474318,5.761284-1.1401458,1.0101784-.3228382,1.822302-.2689233,2.7376023.1362845,2.6920136,1.191778,5.4907184,1.7851653,8.459987,1.504812,1.0647995-.1005328,2.1512986-.0463935,3.2219336.0256793.4522089.0304418.953291.200354,1.3189535.4639236.6805687.4905389,1.2592196,1.1195575,1.9134138,1.6500906,4.4615009,3.6181419,5.8635192,8.4323808,5.3243808,13.9277961-.2708173,2.760342-1.3759066,5.3053088-2.5222163,7.8126792-.4293926.9392443-.8230609,1.8948126-1.2736713,2.9369382.5530428.1591117,1.0281774.4722662,1.3798699.3682025,2.1999967-.6509426,4.3647836-1.4513405,5.9914612-3.158083,1.841133-1.9317412,4.1506347-2.9616923,6.6091318-3.7951431.4103973-.1391311.850366-.5584951,1.0279913-.9587323,1.4289293-3.2197822,1.6751239-6.6468049,1.5328397-10.1014174-.1352225-3.2830306-.3687828-6.5636635-.6331516-9.8393697-.4782549-5.9258699-1.9155377-11.5008684-5.5587622-16.4036791-2.0271557-2.7280171-4.3779434-4.8988201-7.5750681-6.0442539-1.6540265-.5925936-3.3730859-1.0076986-5.0734128-1.4632577-.2881923-.0772129-.6379688.014085-.9461637.0847563-.8078865.1852289-1.5980916.4804774-2.4143426.5889916-1.4204334.1888528-2.8568623.2536285-4.2834705.4006862-2.0327284.2095397-3.9612618.7787695-5.4897221,2.1818991-1.2723904,1.1680421-2.5046114,2.4113428-3.559229,3.7726827-.5875628.7584495-.8671497,1.8022556-1.1177565,2.7613054-.2318961.8873986-.5901028,1.5213713-1.5014947,1.8229643-.2709925.0896831-.5857673.3970404-.6622193.6665658-.4211376,1.4845905-1.2383411,2.7017466-2.3279167,3.7655882-.2496761.243786-.4483441.5398063-.6704962.8117732Zm23.7967918,47.0133179c-.9044178-.2008576-1.6468553-.4566648-2.4014674-.4999435-.4688284-.0269-1.1425872.1208693-1.3999601.4465924-.7538129.953937-1.3883767,2.0116858-1.9920774,3.0729052-1.9048522,3.3483865-3.9887749,6.5647693-7.2812593,8.721126-3.0201563,1.9779869-6.1358693,3.8098358-9.2014611,5.7189468-.5018923.3125632-1.032294.626079-1.4304292,1.0507857-2.268971,2.4204518-4.5207641,4.8576983-6.7415844,7.322414-2.1388613,2.3737463-4.2827917,4.7461788-6.3310448,7.1972858-1.6269732,1.9469922-3.0405639,4.0728251-4.6757045,6.0123615-3.9903733,4.7332707-7.1528685,9.8939087-9.0975014,15.8249461-2.1975661,6.7024661-2.9770418,13.4478825-1.4776,20.394036.1819663.8429759.467,1.4863203,1.3625606,1.8006681.5203566.1826397.9720893.5732534,1.438405.8939731.4995439.3435579.6842528.7574258.3728063,1.3705967-.2951718.5811362-.5442787,1.2019709-.7001552,1.8333816-.1873693.7589148-.5648779,1.5777825.4954219,2.1282634.4695346.2437969.838613.723486,1.1879899,1.1496161,3.1086295,3.7915302,6.5553866,7.1900162,10.8090667,9.7204984,4.5519449,2.7079324,9.3747509,4.2670152,14.7388521,3.9997013,3.3719363-.1680565,6.7536057-.1326059,10.1279068-.264949,1.9674546-.0771637,3.5478099.5909677,4.8659861,2.0231815,2.6301119,2.8576396,5.4047085,5.5925924,7.8945835,8.5666344,3.9666812,4.7379895,9.1196663,7.7422707,14.5018432,10.4693188.3131873.1586629.6664563.2658687,1.0133644.3256246,1.6745764.2884222,3.362477.505987,5.0290502.8332757,6.5948333,1.2950315,13.1593508,2.7616667,19.7803834,3.9017578,8.5566058,1.4734232,17.0947089,1.0835102,25.5360728-.9913692,2.5520066-.6272723,5.0756791-1.3692829,7.6246202-2.0097808,1.589322-.3993942,3.0443739-.1024762,4.4158027.8773536.6809628.4865428,1.5349746.7961171,2.3565137,1.0087989,2.7881397.7218657,5.5552587.2035071,8.2358861-.5145923,3.892167-1.042673,7.7484893-2.2491546,11.2977992-4.2328565,2.0538806-1.1478424,4.188691-1.7330076,6.5355482-1.0699343.1703119.0481069.3546157.0556393.5332483.0641133,5.3960046.2557525,10.3680689-.893141,14.7474356-4.2450967,1.3428318-1.0277833,2.8683908-1.8257397,4.3476604-2.662913.8764996-.4960459,1.8403886-.6828021,2.8563915-.3576593.1864935.0596902.513388.0217652.6337318-.1052789,1.2481946-1.3180448,2.8612306-1.3772971,4.4930977-1.3188112,3.6020807.1290805,7.1101592.7649801,10.5766779,1.7839172,3.4331483,1.0091712,6.9193083,1.8474612,10.4065412,2.6559718.8020292.1859461,1.7097534-.0077952,2.5559699-.1221174.3977739-.0537343.635812-.3398574.4596099-.8663615-.7015456-2.0963381-.1423499-3.1812059,1.9390109-3.9281213.7017427-.251833,1.4231267-.4814409,2.0732591-.8355748.6744814-.3674471,1.0532929-.9695164.805467-1.8005367-.2201486-.7380692-.5215117-1.2366989-1.4852912-1.1865775-1.397639.0726968-2.4990168-.8919586-2.7812642-2.1972815-.2842181-1.3145852.4051969-2.6307469,1.7026589-3.2197439.3657173-.166042.7502437-.2906338,1.2275461-.4729669-1.4523805-.5976681-2.7867821-1.1074432-4.0862805-1.6944914-.970874-.4385892-1.0740727-1.2550483-.1915735-1.8451839.706757-.4726165,1.5519007-.7363394,2.3294057-1.1058228.4776528-.2269584.9879096-.4188384,1.4068137-.7298361,1.4382572-1.0677227,2.862632-2.1565319,4.2521036-3.2867037.758236-.6166963,1.490831-1.2850685,2.128767-2.0220867.3878985-.448158.7828916-1.0568839.1631736-1.6735145-.6433663-.6401256-1.8449212-.8701715-2.4296265-.4728574-1.414171.9609548-3.0345423.6344325-3.7556635-.945671-.9973689-2.1853478-2.8373633-3.1840962-4.9555761-3.7636558-1.342569-.3673376-2.7572874-.578837-4.1489267-.6365784-2.9192129-.1210445-5.8548482-.260942-8.7644046-.080689-2.7911834.1729395-5.5475073.8572744-8.3379243,1.1067863-3.8400969.3433608-7.6563046.276817-11.1470629-1.7814648-.2951226-.1740343-.8728866-.0680766-1.2321006.0973086-2.969597,1.3671151-6.0491368,2.3861617-9.2062564,3.2357503-5.8843867,1.5834975-11.7927064,3.11256-17.5872951,4.9853555-5.5305593,1.7874863-11.1380415,2.9729034-16.9192951,3.3391023-4.4733032.2833422-8.9381981-.0114081-12.8568819-2.3764177-2.50598-1.512443-5.0298932-2.2012448-7.9191296-2.3090199-5.5461278-.2067916-10.9422638-1.4963271-16.3267399-2.7577691-8.7032912-2.0389909-17.3771205-4.2062083-25.6909147-7.5450917-3.4601249-1.389603-6.8062123-3.0702557-10.171919-4.6857003-2.7621703-1.3257743-4.7463211-3.5958839-6.6989298-5.8623916-.2602303-.3020857-.3546266-.9951902-.1920114-1.3572945.2674453-.5955113.911578-.4681496,1.4168752-.2107768.5030747.2562342.9922889.5549587,1.444881.8923418,2.0284476,1.5120707,4.2248423,2.7213222,6.6030774,3.5672541,4.5599809,1.6219698,9.1480443,3.1651118,13.7067224,4.7906946,7.8866022,2.8122698,15.8389052,5.3974936,24.0399209,7.1472302,1.2973525.276817,2.6062664.4994837,3.8582492.7373904-.6321115-1.2882654-1.2703102-2.4912435-1.8228056-3.7324093-2.0495779-4.6043106-5.2486076-7.9184508-10.2159312-9.3403841-1.4320386-.4099375-2.8259442-.9571229-4.227448-1.4684527-1.4006607-.5110451-2.7600464-1.1562836-4.1879465-1.5676881-4.6699348-1.3454922-9.2295106-2.9106075-13.2374122-5.7726264-.8240243-.5884277-1.7421384-1.0431766-2.5950554-1.5933838-2.2290425-1.4379397-4.323169-3.0111567-5.4284226-5.554131-1.0463845-2.4074999-2.0966446-4.813489-3.1797607-7.2044898-.102925-.2272102-.4488806-.4821525-.6875756-.487769-1.6125214-.0379249-3.2300572-.0762878-4.8389766.0125358-1.3814465.0762659-2.7535759.3214533-4.1739655.4973925.2465449.8790834.4961773,1.5863002.6347391,2.3146583.1386384.7288288.2253381,1.478547.2280094,2.2194956.0035035.972352-.4852728,1.3394269-1.4310532,1.1258801-.4014416-.0906301-.8002446-.2563656-1.1592068-.460223-1.3318725-.75632-2.3127642-1.8693249-3.1210559-3.1528497-2.4940572-3.9603969-2.9009292-8.380557-2.6429104-12.8740926.3637028-6.3339571,2.3344857-12.2799499,5.2196383-17.8580358,2.2052081-4.263457,4.8698399-8.2901349,7.3586091-12.4049029.2802876-.4633981.3638013-.770509.0536467-1.2713393-.5151945-.8319509-.9031806-1.7426859-1.2585627-2.4489612Zm56.3212348,153.0176701c3.9042759-7.478307,9.6516336-11.2045196,18.4894576-9.1555001-.3150047-.3415653-.4228236-.5287376-.5847272-.6234404-2.3952488-1.4014271-4.7926215-2.799526-7.2028257-4.1750056-.4790541-.2733573-1.0139446-.4489025-1.601606-.7036039-.2792037.1731584-.6674964.4579677-1.0923345.6693357-1.4131418.7030346-2.7780673.3880956-3.7770565-.8147949-.3731621-.4493185-.3672281-.7695346.1782822-1.06619.3324344-.1807784.7472658-.3748262.9088847-.6781382,1.0492201-1.969272,2.0854336-3.9488793,3.0173973-5.9749949.2476069-.5383283.1155265-1.2513039.1653851-1.9979785-.4946883.0697845-.7848185.0974399-1.0695401.1528165-8.1311764,1.5813078-16.3116093,1.8327247-24.5379156.9332994-4.5575723-.4982794-9.0271421-1.4325641-13.4481233-2.6280536-.308797-.0834918-.7193804-.1035272-.9873074.0333923-.8112805.4147438-1.5569259.9566631-2.3633454,1.3823552-.873456.4610989-.9644692.6331625-.2942796,1.3754358,1.0808059,1.1970003,2.1714654,2.3908038,3.3331684,3.5077501,1.695214,1.6298964.5499335,3.837951-1.3383211,4.2413742-.2538037.0542379-.6380783.1039432-.7178258.2717589-.7085416,1.4911157-2.0326737,1.3926466-3.3712904,1.4730072-4.9393179.2964583-8.7574306,2.5600646-11.3826704,6.7601856-.3927486.628389-.5692901,1.3919021-.9083263,2.2512347.3648961-.0783242.4878894-.0777111.5827346-.1290805,2.0364508-1.1029325,4.0875177-.9077023,6.1362416-.0571283,1.9621118.8145979,3.6366445,2.0590263,5.1135273,3.5660826,1.5007064,1.5313835,2.9648564,3.098568,4.3870415,4.5893114,1.485532-.8204443,2.9732866-1.7842456,4.5723635-2.498973,5.0939189-2.2768319,9.7793346-1.0940862,13.3061676,3.2467424.1582687.1948142.3391348.3713009.5539625.6046312,3.8106678-4.3033636,8.0876022-6.9501387,13.9328815-4.5558315Zm37.8843839-96.1551729l-.0742952-.367469c-.408985.0605879-.8161963.1454592-1.2274147.174954-.4141745.0297028-.8411366.0581465-1.2468151-.0083755-.7859571-.1288944-1.2928199-.8153642-1.1990148-1.530442.1056293-.8054998.7940369-1.3539443,1.580848-1.2853313.16902.0147364.3583162-.0324508.5173732-.1002099,2.2524172-.9595753,4.5551527-1.8204298,6.7384423-2.9184355,3.4126969-1.7162676,6.0548081-4.2436186,7.463899-7.8937624.7382882-1.9124613,1.1925553-3.8213862.1520282-5.7971944-.228097-.4331588-.2874588-.9728447-.3485284-1.4727663-.1449118-1.1859206-.2232798-2.3799321-.3663961-3.5661045-.2665475-2.2091057-.6399943-4.358116-2.2404835-6.1106992-4.7831841-5.2376593-12.3334433-6.1904795-18.1383672-2.1522292-4.4459981,3.0929078-7.4152228,7.2327255-7.9982202,12.715375-.3206978,3.0157879.6332501,5.9134216,1.7524955,8.7044298.1681222.4191997.5327008.8069012.8983305,1.0907032,1.0633653.8253819,1.7205703,1.8795069,2.0549535,3.1705969.2544825.9826215.5222124,1.9645862.8478807,2.9251906.3181797.9384998.7632284,1.2007118,1.7145049.9662648.5372115-.1324198,1.0310021-.4481252,1.5377336-.6949.5074759-.2471142.9820632-.5968798,1.5146983-.7498934,1.0988816-.3157163,2.1059945.5636955,1.8844008,1.6826016-.1092203.5514772-.4008832,1.2037335-.8255462,1.5287778-1.053468.8063209-2.1545612,1.6486509-3.3743997,2.1188478-2.5389344.9786473-4.8913971-.0969582-5.9576528-2.6079634-.5816836-1.3698194-1.007945-2.8097955-1.4388922-4.2378817-.2548109-.8444539-.7785998-1.3646737-1.293017-1.6058649-.7701915.2405453-1.3344673.5910991-1.8666207.5477219-1.2135104-.0989399-2.4053869-.4383921-3.6173864-.5885591-.8715728-.1079832-1.796245-.2370527-2.6369436-.0639491-3.121231.6426766-5.1668347,2.8505889-7.0947878,5.1692323-.1407295.1692608-.0904111.5458498-.0456763.8120688.1525099.9077351.3845921,1.8037008.503009,2.715005.0785869.6047626.0148897,1.2280278.0148897,1.874186.2609201.0260789.4644053.0628652.6681533.0644417,8.2272588.0641023,16.4644367.2844589,24.6222614-1.1093482,2.1905811-.3742679,4.3505289-.9277705,6.5245561-1.3990185Zm-92.3009965,92.7877144c-1.9768811.9955515-3.5688854,2.2114267-4.6659824,3.9947089-1.0429905,1.6953673-1.2701241,3.5070275-.7088701,5.426222.5302156,1.8130178,1.4703358,3.401026,2.6719453,4.8288166,2.9465179,3.5011592,6.6059021,6.0340282,10.8296933,7.7461026,1.8541615.7515575,3.7577328,1.3808005,5.6359149,2.0736313,7.2175511,2.6624313,14.739509,3.8786787,22.3610527,4.3407192,7.3868448.4477639,14.5600772-.9524808,21.5769349-3.2634714,4.5974132-1.514129,9.0274706-3.3507732,12.9063245-6.2873939,3.5486748-2.6866489,5.5031886-6.233791,5.3429491-10.7903889-.0363046-1.0328633-.0897323-2.0651135-.1472328-3.3691007-.5295039.3257121-.8757551.467011-1.1301062.7061001-2.9882967,2.8087006-6.3019771,5.1466898-10.076822,6.7610177-11.4264199,4.8865361-23.247789,7.0645704-35.7079152,5.503517-7.0171752-.8791491-13.6449411-2.7261723-19.6951289-6.4192115-4.3230158-2.638761-8.1229433-5.7555251-9.1927572-11.2512688Zm74.5962479-122.0316176c.5248181-.6882982.999887-1.3332849,1.4975095-1.9604039,2.9639914-3.7352778,6.4852955-6.740194,11.2244893-7.8782705,1.3945735-.3348868,1.9778993-.9533567,2.2209736-2.2632998.351375-1.8937068,1.1032609-3.7348946.4407132-5.7155091-.1133588-.3388939-.0053428-.7713849.0645512-1.1487511.3523822-1.9026406-.0925351-2.8368378-1.9352666-3.4479066-1.2937615-.4290204-2.6540011-.6980969-4.0050441-.9044178-2.0075692-.3065745-3.7368981-.8983634-5.0646651-2.6443666-1.4087844-1.8525631-3.214423-3.3748157-5.7326432-3.430893-1.6028541-.0356915-3.243655-.0239221-4.8104673.2701057-6.1898226,1.1615388-10.828489,4.8091863-14.7143279,9.5463108-1.3523787,1.6486618-2.0047664,3.5718305-1.8115945,5.7485292.1129427,1.2726531.8830248,2.3013013,2.4949441,2.3430691,3.5746223.0926446,6.9800933.9846141,10.1042804,2.7476419,2.8942945,1.6332685,5.0237403,3.9195269,5.7128486,7.3061996.0272394.1338321.1206066.2542087.1954273.4056676,1.5920809-.5694653,2.8963528-.0191595,4.1182715,1.0262943Zm-62.8067274-15.3452789c-.0911556.2510885-.1365911.3314819-.1489189.4166597-.5644181,3.8984404-1.050293,7.8100845-1.7063046,11.6929893-.8933709,5.2878353-.8694927,10.5214437.4490558,15.7380494.161608.6393811.4505009,1.0355128,1.0884698,1.1066111,1.4744085.1643012,2.9610901.4770068,4.4270028.405591,3.0982286-.1508896,6.1856184-.5179973,9.2793254-.7739249.5316389-.0439684,1.0812877-.0322756,1.6070911.0513366.9123881.145087,1.6446547.5934202,1.880317,1.5566741.2338449.955842-.1966316,1.6892143-.916439,2.2713906-.2526212.2043173-.5392808.3898583-.8403045.5073336-2.7794358,1.0847145-5.6104929,1.8401258-8.6485606,1.5101438-1.7920737-.19465-3.5969788-.2712115-5.5121552-.4092587,2.3136839,3.356335,5.7946872,4.7425111,9.2911715,6.191432.099126-.1974965.1627904-.2965459.2010766-.4045947,1.1677027-3.2950901,3.2371517-5.7988695,6.5680757-7.008329,1.8413301-.6685803,3.780768-1.0873859,5.6988458-1.5166362,1.1784867-.2637338,2.4001755-.3345365,3.719983-.5073336-.7869862-.8175758-1.4865283-1.6155213-2.270241-2.3198149-.273861-.2461179-.7542617-.3609109-1.1418866-.3643925-1.4522163-.0130613-2.9320443.2366586-4.3522478.0371257-3.2481985-.4563145-4.9781734-2.9183479-4.5202495-6.1664918.2885207-2.0466656,1.6352611-3.1635462,3.5178991-3.5959387,1.5202382-.3491744,2.4317614-1.2293197,3.089689-2.5725128.7875446-1.6078246,1.6760654-3.1660753,2.5118592-4.7505472.076671-.1453278.1761254-.3763371.1154827-.4807183-.432907-.7452403-.8323779-1.5280881-1.3793334-2.1850413-1.0885573-1.3074797-2.1887199-2.6233239-3.4275647-3.7823446-1.1410764-1.0675913-2.3676152-2.1294348-3.737555-2.8492532-2.9930263-1.5726805-6.283978-2.0297505-9.6417035-1.9737718-1.7541487.0292429-3.507334.1165447-5.2018802.1755671Zm80.6420236,4.6859741c2.1447296.5109575,4.3463685.845056,6.4127958,1.5665385,4.6318347,1.6171964,8.0138544,4.6148867,9.2491519,9.5349794.4030729,1.6053284.399876,3.3105492.6309509,4.9633056.037706.2695145.279773.6568875.5094685.729212,1.421572.4476872,2.8481365.9263691,4.3101953,1.1827237,1.0250462.1797384,2.1328835.1586519,3.1607982-.019915,1.2053648-.2093973,2.2146236-.8608654,3.1562218-1.7363687.7448352-.6925571,1.842841-1.0198458,2.8075401-1.4574168,1.021915-.4635185,1.2762004-1.0712371.5784429-1.9436858-.409817-.5124136-1.0087332-.9156179-1.5945334-1.2366223-1.2798133-.7012719-1.6830395-1.5868148-1.4567599-3.021908.2220755-1.408226.4105396-2.8391698.4170867-4.2610593.0365454-7.9524672-6.2261272-14.2446346-14.1838824-14.2815523-4.7658857-.0221046-8.6993717,2.0310752-12.2322153,5.0291268-.1518968.1289163-.2953634.3116326-.3557543.4975458-.494754,1.5233146-.9688376,3.0533515-1.409507,4.4550961ZM41.0714594,37.5309813c-.345868.1481415-.7228948.2488003-1.0326662.4519899-2.3425765,1.5366059-4.6655336,3.1031663-7.0098399,4.6371172-.6101273.39923-.6524753.8349343-.4608362,1.5139757,1.6540265,5.8609902,5.3011813,10.1370377,10.407658,13.289132,2.9173407,1.8007995,6.0209231,3.090532,9.4746651,3.263351,2.8007631.1401493,5.6098141.1173111,8.4153179.1589475,1.816576.0269547,3.5856692.0064376,5.3122391.9216176.7872599.4172947,1.3582032.59261,1.0625442,1.7615936.2654417-.2326187.4094229-.2967867.4180392-.3757131.1127676-1.0330056.2566612-2.0668981.2816452-3.103243.0109702-.4552635-1.0919404-.9203257-1.5129028-.6612559-2.275748,1.4005513-4.6865872,1.2296372-7.1110132.5899714-4.847374-1.2789594-8.782119-4.0963311-12.375244-7.4667784-1.981994-1.8591759-3.9732392-3.7087391-5.9361832-5.5878518-1.3244824-1.2679125-2.4924259-2.6677521-3.1500798-4.410958-.2583582-.6848221-.2359579-1.4014326.4395088-1.8538605.7034725-.4711878,1.3442441-.1468715,1.8369946.2032444,0,.5093262-.1548638.9981243.0240534,1.2462513,1.7108372,2.3726131,3.2997979,4.8677324,5.265238,7.0151224,4.4881381,4.9035826,10.3090466,7.4235983,16.7432135,8.6334519.844016.1587067,1.7436384.0217762,2.6247253.0217762-.0130942-.1934018.0049596-.2671715-.0239549-.3052169-1.7144173-2.2559863-3.3335625-4.5937346-5.1715315-6.7444857-3.697528-4.326782-8.3313443-7.4888283-13.3062333-10.1606587-.7665457-.4116783-1.7026589-.5255023-2.5731369-.7198129-.6241849-.1393336-1.1058009.0692261-1.3203659.7505667-.0629309.1998449-.3114903.5148606-.4140869.4928873-.221747-.0475047-.458756-.2420944-.593245-.4414576-.6315203-.9361569-.774111-1.9269568-.314523-3.1197037Zm39.7395527,181.0344159c1.473883,2.6754597,3.6067337,4.5179504,6.1603826,5.8545416,7.7236038,4.0425968,15.9824156,6.2450896,24.6755468,6.4255615,7.8077415.1620787,15.2943145-1.6521434,22.4589306-4.7369822,3.7409709-1.6107369,7.0330612-3.9336611,10.0570932-6.6387032,1.3141691-1.1755635,2.3631921-2.5601303,3.140303-4.3658565-2.6749123-.1302849-5.1822718-.4581867-7.6652384-.3264785-3.9944023.2118935-8.3669592,4.298612-8.350471,8.2654903.0063719,1.5298508-1.3801217,2.3058011-2.8050877,1.7097971-.5210737-.2179589-1.00477-.5258034-1.50375-.7958981-2.6174775-1.4168204-5.2058982-1.1890519-7.4974556.5516414-1.5223293,1.156404-2.8095546,2.6543514-4.0682268,4.1147242-.8727772,1.0126308-1.9335477,1.3906321-3.03059.6017628-.5651626-.4064012-1.0020219-1.0072224-1.4472786-1.5601119-.4858749-.6033174-.8607888-1.3012282-1.3774175-1.8736276-1.950638-2.1613053-4.319151-2.8871343-7.1305668-1.948098-1.9480871.6506579-3.7196983,1.6018687-5.2746755,2.9639914-1.1494737,1.006872-2.0622013.9495686-3.1423284-.1171031-.2755579-.2721092-.5206686-.5754649-.7748227-.8687482-1.5641409-1.804916-3.0978454-3.6373342-4.7004039-5.4074128-1.0521761-1.1621628-2.29713-2.0969512-3.8413669-2.5373578-1.3657904-.3895189-2.64152-.223017-3.8825763.6888675Zm-43.8977526-126.3771869c-.0467164-.0600077-.0934438-.1200044-.1401602-.1800011-.2803314.1468715-.5629291.2896265-.8406548.4412715-3.3863114,1.8486983-6.2500273,4.4037595-9.1648663,6.8745845-2.535201,2.1490323-4.5568607,4.7153703-5.834134,7.837729-.8521779,2.0831782-2.2127569,3.8039346-4.0015899,5.200654-1.2711204.9924969-2.4747609,2.072208-3.6968,3.1265738-1.7402937,1.5014837-3.0151748,3.3344274-3.6245521,5.5534303-.6480686,2.3598857-1.2201013,4.7430147-1.7443555,7.1337528-.3960769,1.806197-.3071383,3.6331848.1827382,5.4193464.4818624,1.7569734,1.2854408,3.331756,2.7797588,4.466986.8787933.667584,1.7600882,1.3319054,2.6378906,2.0008032.6756036.5148113,1.3475122,1.0344837,2.021063,1.5520101.1305805-.4575955.0617485-.7693594.0217707-1.0847802-.1651333-1.3028705-.4018302-2.602763-.468489-3.9110638-.5524406-10.8429846,2.6123099-20.5636801,9.209634-29.1059435,3.8870542-5.0329807,8.0935033-9.819285,12.1563654-14.7164847.1685492-.2031677.3375801-.4059304.5063811-.6088682Zm93.6615207,34.5974284c-.3727461-1.7034581-.6103024-3.1807679-1.0408118-4.5995153-.2331989-.7685383-.6616281-1.5770599-1.2341808-2.1249022-1.7637723-1.6876597-3.8660225-2.9070164-6.1473651-3.7553789-1.0513659-.3909531-2.1881944-.6456107-3.3047247-.7372152-.8458224-.0693904-1.5188149-.1784684-1.7743046-.85503-1.8415053,0-3.5725312.097637-5.2879229-.0244366-2.197599-.1564075-4.3536272-.0778096-6.4839051.4911192-3.0709126.8201158-5.2123577,2.5378176-5.6845363,5.9761554,2.1191106.5895007,4.215788,1.2926995,6.3658823,1.7380438,2.2716205.4705473,4.6017268.6504608,6.8927477,1.0374507,4.0029092.6761456,7.9908191,1.4413447,11.9944399,2.1130233,1.8450306.3095305,3.7123082.4864004,5.7046812.7406858Zm-25.8760725-76.1298977c-1.7486965,0-3.3567182-.0601609-4.9589263.0109155-5.488693.2434794-10.7676274,1.3896686-15.708916,3.8618183-1.8520376.9265771-3.5865122,2.0005732-4.7723452,3.8088395-.2470048.3766656-.9387845.4675146-1.4323232.6740325-.2251629.0942211-.4666825.1493897-.7007793.2222725.2142693.1519406.4135833.3357955.6476362.4455414.1820047.085353.4070581.1059687.6134775.1081693,3.6357467.0387023,7.2738692.1641042,10.9067256.0757075,3.3642178-.0818824,6.7061886-.626068,10.0963429-.3455395,1.7468024.1445286,3.3401753-.5695309,4.7245559-1.6422899.880014-.6819372,1.1650532-1.6588437.7395691-2.4183497-.8649601-1.543985-1.2317174-3.1015788-.1550171-4.8011174Zm-31.8856421,43.6203663c-1.315045-.6186998-2.1345258-1.7294275-2.1353469-3.315454-.0007335-1.4311189.0584202-2.8655224.1677171-4.2926123.1373137-1.7930809,1.6573219-3.017452,3.4361153-2.931048.3892233.0189077.8223383-.1926245,1.1804136-.3950149.3576812-.2021605.6448006-.5281026.9659692-.7960624,2.2861379-1.9074798,2.3158845-1.912932,1.7407042-4.8568333-.1944748-.9953216-.5798552-1.9533422-.9317776-3.1043378-.3612503.3824572-.5413391.5350219-.6753354.7208256-1.4681352,2.0356407-3.0531873,4.0000845-4.3654624,6.1322017-2.5362958,4.1208443-5.0199522,8.2912626-6.2963606,13.0260442-1.298305,4.816029-1.2383411,9.5684921.7396895,14.2244459.248658.5852965.4838495.843162,1.1856907.6485558,1.0035328-.2782293,2.0515376-.3927377,3.0760693-.5994089,1.6304657-.3288762,3.2572418-.6761018,5.0367907-1.0470961-3.5735822-3.9469852-4.7556491-8.2776648-3.1248768-13.4142055Zm7.6622057,1.6295023c.067989-.0576866-.0000766-.0286298-.0140029.0169699-.0520592.1704104-.1039761.3441491-.1247122.5203293-.4218821,3.584432-.9578674,7.1595799-.1526413,10.7723899.2498404,1.1209205.0978012,2.3379453.3915334,3.4412938.8340311,3.1329019,2.2863131,5.9890087,4.5462737,8.3355266,1.4040547,1.4578438,3.0391297,2.6901633,4.5072977,4.089992,1.9587507,1.8675842,4.2344002,3.170378,6.7243846,4.1922601,3.148131,1.2920097,6.2821387,2.6293236,9.3569818,4.0849667,1.844954.8734122,3.68589,1.661121,5.6816569,2.1340878,1.3880373.3289419,2.7716297.788946,4.0622928,1.3931502,2.7013634,1.2645952,5.0143028,3.0165981,6.3534998,5.8037962.1004398.209047.2376659.4004453.3577907.6000329-.4986516-3.3385768-1.6473699-6.3743563-4.6343199-8.2127961-3.2789304-2.0181124-6.6197188-3.9658601-10.0732857-5.6592895-2.2049781-1.0812001-4.623711-1.8062627-7.018927-2.3986537-2.7343616-.6762769-5.2789672-1.5981244-7.5762615-3.2825434-2.8778502-2.1100673-5.7565543-4.1966504-7.6644939-7.2973862-.6992246-1.1363796-1.3714507-2.3178223-1.8431147-3.5595903-.8658688-2.279558-1.8392499-4.5702395-2.2767224-6.94669-.4880646-2.6512311-.4294364-5.4030991-.6032298-8.0278463Zm-60.3918429,52.8806636c.0316953-.4046932.0062734-.8244732.1083061-1.2105762.1576611-.596639-.04087-.8252396-.6169426-1.0133315-1.1615114-.3792056-2.3399872-.7666005-3.4180889-1.329453-2.7782589-1.4504317-5.6267512-2.8506546-7.7333916-5.258472-.8277358-.9460432-1.3594896-2.1491527-2.0397299-3.2265537-1.2911448-2.0449248-1.9882181-4.3045131-1.5602706-6.6667199.5784593-3.1930957,1.2913638-6.3858958,2.2763337-9.473636.7825522-2.4532091,1.8113372-4.9015353,3.8745019-6.6649791,1.134595-.9697792,2.2341882-2.0131528,3.4883059-2.8030842,2.0615827-1.2985459,3.4319987-3.076332,4.4425439-5.2501841.6127658-1.3181652,1.3435051-2.6111713,2.2082736-3.7767171,2.2432096-3.0234517,4.9259664-5.6742449,8.0741631-7.703656,5.5698747-3.5905083,11.2704722-6.9800276,16.9480563-10.4010671,4.1436934-2.4967943,8.5238046-4.5921252,12.4254748-7.5025575,2.870044-2.1408977,5.0433706-4.8131496,6.6193028-7.9985486.1711439-.3459337.2423079-.7413427.359849-1.1137932-.0726858-.0443516-.1453826-.0886922-.2180684-.1330329-.2495557.2235644-.5237561.4253636-.744047.6747661-.6725764.7614657-1.281576,1.5832238-1.9910701,2.307301-5.7447082,5.8628295-12.1958231,10.8195552-19.282531,14.9542053-4.3365588,2.53011-8.7543869,4.9319497-12.9911191,7.6193431-5.6124034,3.5599954-9.9817415,8.5112579-14.367064,13.4249786-1.7069561,1.9126364-3.4472333,3.8220979-5.3722961,5.504152-1.2704197,1.1100379-2.3791493,2.2739196-3.0383797,3.7877421-.8914714,2.0471364-1.7486472,4.1220815-2.4216451,6.2480566-.7457987,2.3559881-1.4065728,4.7570286-1.8588255,7.1842026-1.0748227,5.7684332.8268162,10.2261022,6.1321414,13.0391822,1.7687045.9378101,3.5345625,1.8810287,5.3024075,2.8205029,1.958477,1.040768,3.9052284,2.0965789,5.3938095,3.9619296Zm56.2487625-86.0509582c.0427312.1584986.0443844.2501688.0735069.2599457.5349562.1794537,1.0802585.3297959,1.6095763.5239312,3.9587984,1.4519755,8.0576914,1.8850905,12.2495136,1.8107624,2.4765181-.0439137,4.9559812.0925351,7.4343714.1319928.8019416.0127767,1.638885.1185811,2.4015331-.0629856,4.9145638-1.1699909,8.3925563-4.1167497,10.5210496-8.6879964.4421255-.9495467.3494262-1.8204079-.1153952-2.7397811-.3729212-.7376094-.6715582-1.5260955-.8965678-2.322136-.364502-1.289415-.8841196-1.5820851-2.2712263-1.1018814.0775469.1013047.1367225.1994234.2152875.2781965,1.6939112,1.6981153,1.9597798,3.4605519.705706,5.5041411-1.7054397,2.7791074-4.3704438,4.0433194-7.4852154,4.496437-1.4455816.2102951-2.9589005.1459519-4.343511.5456198-3.1465216.9082935-6.3173266,1.5381605-9.589064,1.7156764-3.0714819.1666442-6.1397122.5241612-9.2027201-.0761126-.4214332-.082594-.8405344-.177067-1.3068447-.2758098Zm.5218292,39.6638232c.4124008-6.5486424,1.6345494-13.0071693,1.7652832-19.5833796-1.0223639.7760489-2.0729087,1.4470159-2.3616594,2.7496893-.1982301.8942577-.811609,1.4035183-1.6390382,1.59842-.7482402.1762459-1.1351424.552364-1.1959931,1.3172127-.0256628.3227342-.1989526.6341479-.2216375.9565865-.080908,1.1499774-.0180319,2.1917416,1.0301481,3.0476256.9053265.7391859,1.4761493,1.6488479,1.155769,3.087554-.536894,2.4109267.1627356,4.7057139,1.4671279,6.8262915Zm3.9237091-10.474574c.0934985.0011605.1869971.002332.2804956.0035035.285707-1.6126419.571206-3.2253166.8571649-4.8378928.5908582-3.3319859,1.0448846-6.6591437.6083536-10.0675707-.4667263-3.6442426-1.9219316-6.6859013-4.8898096-8.9351544-.6612997-.5011916-1.3291355-.9457476-2.4808426-.9083263.530336.896108.7895591,1.8023541,1.3903255,2.2668251,2.380578,1.8404761,3.4365861,4.3784142,4.1093596,7.1589449.9347555,3.8631978.7412223,7.7742945.4506214,11.6860042-.0900936,1.2126017-.2161086,2.422521-.3256683,3.6336666Zm64.7367607,15.954596c-4.5223297,4.9080605-10.0843545,7.4849854-16.6328655,8.3398731,1.1202308.9748811,2.0763027,1.8068867,3.0775254,2.6781749,3.828645-4.8892622,8.9250601-6.6559687,14.9863934-6.2103397-.4423554-1.4861232-.9216504-3.0963674-1.4310532-4.8077083Zm-74.1670852-44.7667198c.4361696-.2872179.6985786-.5520246,1.0132658-.6515119,1.4402498-.4553182,1.4323999-1.7320222,1.6721678-2.8663435.0322866-.1527617-.006996-.4274767-.1059468-.4844079-.8496105-.4888638-1.7206031-.94058-2.5794869-1.4003432v5.4026065Z" stroke-width="0"/>
      <path d="m181.1926366,121.6415326c1.5482001.4127293,3.3751223.7563638,5.0981888,1.3847419,6.3310339,2.3088338,12.0498165,5.6631433,16.9465564,10.3345123.6854735.6539205,1.3267159,1.3851689,1.8456875,2.1744652.5893693.8963598.4774557,1.9116839-.137664,2.5853114-.6803716.7451199-1.5432953.9119502-2.4576541.560422-.6350018-.2441473-1.267179-.5517509-1.8198714-.9445981-3.1897893-2.267274-6.3957165-4.5151476-9.5180423-6.8730736-3.0795837-2.3256723-6.387549-4.2015334-10.0073441-5.5191512-.8054889-.2931957-1.6612743-.4848348-2.5106001-.6093061-.6754668-.0989946-1.1513897-.337821-1.2677045-1.0296774-.1221174-.726464.2421766-1.2689088.8988779-1.466044.84845-.2547124,1.7406495-.3637685,2.92957-.5976024Z" stroke-width="0"/>
      <path d="m187.0071731,113.5135969c3.5782353.2337573,6.5318696,1.4733247,9.0518196,3.5025496,4.7719073,3.8426588,8.8545968,8.354708,12.134425,13.5506323.3977301.6301079.612098,1.4208494.7362737,2.1663197.1274602.7652757-.2611171,1.5085892-.9917853,1.7278838-.5899386.1770779-1.3305916.0912651-1.93496-.0987209-.4390271-.1380144-.8230718-.5905626-1.1315514-.9818004-2.0869882-2.6465562-4.2784452-5.2242366-6.1810639-7.9990851-2.0933601-3.0529902-4.6224191-5.5475949-7.8854088-7.2617714-1.7903329-.9405253-3.6627343-1.7241613-5.4869632-2.6017338-.2341624-.1126471-.5911867-.404529-.5620861-.5454447.0767695-.3720125.2515045-.8873822.5374524-1.0187509.6017628-.2764776,1.2996736-.343744,1.713848-.4400782Z" stroke-width="0"/>
      <path d="m177.1423322,136.9176729c-1.9839209-.3900882-4.002526-.6602486-5.9375736-1.2194334-1.0103755-.2919804-1.9495213-1.0040693-2.7681043-1.7048157-.3506086-.300115-.5515757-1.149408-.3827528-1.5759212.1666989-.4212142.8557854-.790205,1.3698303-.8833532.777505-.1408719,1.6221888-.1351131,2.4028031.0055398,2.7861252.5020018,5.5574922,1.0862363,8.3336982,1.6429577.2035728.0408262.4033356.1043155.6014343.1679689.3589293.1153623,1.0084267.2158021,1.0199881.3629911.0415817.530128.0509753,1.2610917-.2657373,1.5767643-.5395983.5378028-1.2981408.9296755-2.0339765,1.1759029-.7191943.2406438-1.5249897.2225572-2.2927726.3180483l-.0468369.1333504Z" stroke-width="0"/>
      <path d="m161.4464667,144.0719976c-1.8720949-.3474993-3.7730495-.5890408-5.6039568-1.0877143-.9014617-.2455267-1.8040621-.8351807-2.4748868-1.5018231-1.1569295-1.149638-.6163021-2.9109797.9785159-3.2555011.8443773-.1823769,1.8230245-.2136234,2.637929.0307866,2.0226122.6066238,3.9975554,1.381326,5.9659078,2.1541233.5694653.2235863,1.1027354.6124702,1.5631555,1.0253528.9144683.8200939.7427551,1.6107369-.4052625,2.0815798-.3012317.1235626-.6215135.2240243-.9424303.2710363-.5590206.0818714-1.1253546.1139719-1.6886231.1669398l-.0303487.11522Z" stroke-width="0"/>
      <path d="m48.2849815,20.4742137c.770717-.2022371,1.541445-.4044797,2.3121621-.6067223.0427969.1009489.0855829.2018923.1283799.3028411-.389913,1.1859535-1.1901357,2.0699253-2.2653581,2.6777589-.2442129.1380582-.8410928.0248308-1.0192436-.1876868-.2198092-.262212-.2529387-.7582305-.2105688-1.1356789.0282247-.2514279.3293032-.4722279.5082861-.7067406.1821141-.1145959.3642283-.2291864.5463424-.3437714Z" stroke-width="0"/>
      <path d="m43.3530319,153.0307128c-2.5950116-.0262978-4.8366556-.9790414-6.7633497-2.6706863-2.1003999-1.8441767-4.0928605-3.797289-4.8356922-6.6240982-.8133935-3.095393-.2109958-5.9931472,1.469657-8.6617862,1.623634-2.5781293,3.7091332-4.7495399,6.1747796-6.5383948.4974144-.3608672,1.0866633-.6337537,1.673602-.8231047.7816872-.2521833,1.5045492-.0478332,1.9351462.7021478.4120724.7177272.2087404,1.3963362-.3391348,1.9617396-.8927578.9213767-1.8831964,1.7585281-2.6983746,2.7422882-1.311859,1.58318-2.6306155,3.1822022-3.7395914,4.9075021-2.4282908,3.777801-1.9013487,6.9342199,1.4118171,10.1939032,1.7480724,1.7198258,3.9910193,2.5620353,6.3008603,3.2483628.5207562.1547434,1.4373704.038757,1.3700383.8286336-.0738901.8667337-.9949384.6210318-1.6019782.7305149-.1156689.0208675-.2383446.0029779-.3577797.0029779Z" stroke-width="0"/>
      <path d="m110.9808683,165.8204597c-.301801,3.5148008-1.6019235,7.1197718-4.1243478,10.2236607-.4614164.5678011-1.2011607,1.0227909-1.9034837,1.2583327-1.5694946.5264165-2.9103885-.7261793-2.5843041-2.350514.1336788-.6659198.4293598-1.299148.6494974-1.9479009,1.0165394-2.9958948,2.0356407-5.9909137,3.0436623-8.9896989.103998-.3093554.1564404-.6389651.2056858-.9632978.1978907-1.3032865-.0791782-2.4056497-1.2139045-3.2419471-.9065636-.6681533-1.0736567-1.5171288-.5746657-2.2501399.4747843-.6974291,1.470927-.9509481,2.3194974-.3684981.8450341.5799975,1.6640113,1.2867983,2.273416,2.1030385,1.3250627,1.7748082,1.8429505,3.8593221,1.9089469,6.5269648Z" stroke-width="0"/>
      <path d="m137.7758979,166.5950743c-.2132073,2.1828078-.6960496,4.3291797-2.0654858,6.1485256-.4507199.5988067-1.0703941,1.1742279-1.7408903,1.4680585-.46342.2030692-1.2146928.0417787-1.7136728-.2058501-.5725527-.2841305-.1825959-.8252177-.0700035-1.3192053.5953033-2.6121347,1.1179317-5.2409328,1.647348-7.8676726.0432458-.2144992-.0132912-.4702955-.0886156-.6839189-.3778918-1.0714451.2426802-1.8196087,1.386844-1.6521872,1.1819793.1729614,2.2430454,1.3407516,2.5273292,2.8208314.078149.4068391.0775359.8288088.1171469,1.2914185Z" stroke-width="0"/>
      <path d="m77.1917535,32.8768668c-1.2662484.0276007-2.3282232-.4284839-3.1930081-1.3509226-.1423937-.1518913-.2676533-.3244914-.4277285-.4543712-.845494-.6860319-.7706513-1.5273655.2543401-1.9388522.5055709-.2029652,1.1048703-.2467694,1.6595882-.2371184,1.0817803.0188256,1.9875229-.3230791,2.7471931-1.0810468.7392188-.7375382,1.4794338-1.4740801,2.2191124-2.2111585.8728429-.8697883,1.8426877-1.097305,2.6557966-.6228601.8428116.4917706,1.1382079,1.5155249.7778882,2.6959221-.8285241,2.7142058-3.9541563,5.1422174-6.693182,5.2004076Z" stroke-width="0"/>
      <path d="m67.8381219,12.3019647c.5929494-.4077095,1.0570153-.7827985,1.5748702-1.0558985.2132183-.1124501.5421383-.0055179.8184407.0016258-.0099082.2795431.0768462.6133242-.0448114.8301609-1.1086365,1.9758301-4.7887568,3.8392539-6.9699223,3.566849-1.073164-.1340237-1.3995769-.5446892-1.2890209-1.586667.0208894-.196763-.0148678-.4046768-.053373-.6018011-.3279018-1.6785507.696181-3.4015351,2.3679765-3.7730002.7384524-.1640768,1.552678-.1705473,2.3028341-.0553492,1.1135304.1710016,1.4854116.8915042,1.2282577,1.994382-.0403555.1730544.0317391.37233.0647483.6796983Z" stroke-width="0"/>
      <path d="m58.0728558,20.0523316c.0528146.8113298.1296499,1.6220465.1506159,2.4342028.0159079.6164171-1.1341133,1.1041642-1.6997138.6669052-.3462183-.2676368-.7225883-.7345165-.7484044-1.1337191-.0777987-1.2023486-.0492564-2.4205886.0574348-3.6220121.0524533-.5906995.4870136-1.0252871,1.1782021-.9852327.694681.0402515.9702937.5181943,1.059194,1.1225683.0733537.4986352.0869624,1.0060619.1270442,1.5095909-.0414612.0025619-.0829115.0051293-.1243728.0076967Z" stroke-width="0"/>
    </g>
  </g>
</svg>