<?xml version="1.0" encoding="UTF-8"?>
<svg id="b" data-name="Layer 2" xmlns="http://www.w3.org/2000/svg" width="128.998" height="241.967" viewBox="0 0 128.998 241.967">
  <g id="c" data-name="Layer 1">
    <g>
      <path d="m64.501,96.715c.098.37.279.746.504,1.058.258.357.604.426.954.185.286-.196.343-.485.187-.938-.095-.274-.168-.558-.24-.832-.049-.188-.098-.377-.155-.562l-.088-.292c-.263-.87-.535-1.77-.828-2.644-.026-.079-.119-.156-.215-.237-.012-.01-.024-.02-.036-.03-.011.011-.022.023-.032.034-.09.095-.176.184-.203.276-.109.367-.191.748-.277,1.15-.032.148-.064.297-.098.45.046.214.09.43.134.647.118.571.238,1.162.393,1.734Z" stroke-width="0"/>
      <path d="m63.832,167.171h-.001c-.083,0-.351.243-.465.346l-.091.083c-.037.032-.064.154-.082.243-.007.036-.016.072-.024.106-.764,3.047-1.133,5.856-1.13,8.589,0,.091-.001.182-.002.275-.004.192-.007.385.005.576l.029.517c.034.607.067,1.237.149,1.844.03.235.125.423.259.513.1.07.225.083.37.046.164-.042.277-.12.337-.229.065-.121.064-.289-.004-.485-.035-.1-.028-.203-.022-.294.002-.029.005-.059.005-.086.029-3.138.327-6.178.886-9.036.139-.71.204-1.495.2-2.4-.001-.197-.237-.537-.42-.606Z" stroke-width="0"/>
      <path d="m128.833,147.666c-.034-.086-.02-.173-.011-.243.005-.031.01-.061.008-.082-.011-.185-.011-.375-.011-.563,0-.413,0-.802-.11-1.16-1.026-3.33-2.404-5.53-4.464-7.134-.563-.438-1.118-.903-1.653-1.352-.294-.246-.587-.492-.884-.735-.288-.235-.334-.495-.15-.839,1.169-2.203,1.919-4.644,2.36-7.68.365-2.503.839-5.084,1.449-7.889.594-2.735,1.208-5.562.517-8.45-.108-.447-.202-.896-.295-1.346-.293-1.394-.594-2.837-1.304-4.143-.694-1.28-1.337-2.584-1.931-3.801l-.066-.134c-.771-1.581-1.568-3.218-1.882-4.998-.046-.252-.083-.505-.12-.76-.073-.492-.149-1.002-.281-1.485-.185-.68-.397-1.366-.604-2.03-.251-.807-.51-1.642-.723-2.474-.273-1.067-.849-2.017-1.406-2.937l-.091-.15c-.473-.783-1.234-1.394-2.263-1.818-.977-.401-2.019-.58-3.219-.541-2.381.073-4.763.598-7.079,1.56-.437.182-.872.372-1.305.563-.886.388-1.801.789-2.734,1.109-3.166,1.087-5.735,2.963-7.854,5.739-2.57,3.365-4.825,5.702-7.309,7.574-1.008.761-1.946,1.677-2.711,2.652-2.428,3.09-4.858,6.261-7.207,9.327-.928,1.211-1.857,2.423-2.788,3.632-.038.049-.086.074-.132.097-.018.01-.038.02-.06.034l-.088.052-.082-.06c-.199-.145-.409-.242-.621-.337-.024-.261-.05-.522-.061-.785-.006-.158-.008-.692.24-.914.633-.565.884-1.299.748-2.179-.068-.439-.217-.869-.375-1.324-.074-.213-.149-.43-.219-.654l-.03-.097.077-.066c.126-.106.257-.211.393-.321.321-.258.652-.526.952-.83l.1-.101c.354-.358.722-.728.884-1.156.783-2.069.605-4.118-.529-6.093-.064-.112-.131-.217-.197-.322-.27-.426-.549-.866-.498-1.507.022-.262-.139-.582-.28-.864l-.023-.044c-.384-.773-.777-1.542-1.169-2.309-.708-1.384-1.439-2.815-2.107-4.251-1.147-2.465-.951-4.89.567-7.013.816-1.143,1.801-2.174,2.752-3.171l.535-.563c.712-.752,1.412-1.599,1.706-2.712.403-1.519-.173-2.827-1.467-3.334-.27-.106-.577-.132-.903-.16-.16-.013-.323-.028-.489-.05l-.279-.04.184-.213c.246-.287.498-.569.752-.852.562-.628,1.143-1.279,1.648-1.97l.341-.463c.716-.964,1.454-1.962,1.882-3.061,1.537-3.94,1.834-8.148,1.923-11.374.035-1.281-.018-2.59-.068-3.855-.044-1.105-.09-2.247-.078-3.371.03-2.811.094-5.667.156-8.429.049-2.234.1-4.467.133-6.7.036-2.39.056-4.782.077-7.172.03-3.437.061-6.991.139-10.486.097-4.273-.502-8.494-1.78-12.544-.558-1.77-1.323-3.22-2.336-4.433-.279-.333-.568-.597-.86-.786-.407-.263-.837-.353-1.235-.258-.401.096-.746.371-.998.797-.246.415-.45.918-.624,1.537-.499,1.772-.412,3.631-.328,5.428l.01.192c.096,2.039.214,4.111.328,6.115.223,3.925.454,7.984.533,11.979.083,4.112-.032,8.294-.144,12.337-.036,1.287-.071,2.573-.101,3.859-.048,2.094-.427,4.256-1.196,6.802-.056.187-.127.37-.216.6-.044.114-.094.241-.148.387l-.142.378-.298-.764c-.08-.206-.143-.363-.198-.52-.522-1.445-.758-3.063-.723-4.944.026-1.364.072-2.749.116-4.089.083-2.486.168-5.058.132-7.583-.088-6.139-.268-12.685-.583-21.227-.076-2.018-.445-4.124-.742-5.817-.206-1.179-.717-2.214-1.474-2.995-.947-.975-2.084-1.031-3.118-.149-.876.743-1.409,1.718-1.543,2.82l-.115.952c-.304,2.49-.617,5.066-.72,7.606-.131,3.185.184,6.407.487,9.523.137,1.406.279,2.86.378,4.292.421,6.116.752,11.636.51,17.258-.048,1.084-.127,2.364-.358,3.64-.119.659-.358,1.046-.71,1.15-.367.108-.791-.102-1.273-.621l-.047-.05c-.152-.163-.325-.349-.403-.575-.096-.28-.206-.559-.317-.839-.287-.729-.583-1.482-.642-2.252-.152-2.021-.222-4.081-.289-6.074-.035-1.024-.07-2.049-.115-3.072-.054-1.232-.125-2.464-.194-3.694-.198-3.455-.402-7.029-.237-10.566.079-1.678.052-3.394.025-5.052-.014-.906-.029-1.844-.026-2.765.002-1.162.018-2.324.034-3.486.016-1.161.031-2.322.034-3.483.005-1.742-.483-3.464-1.49-5.265-.519-.926-1.282-1.256-2.283-.966-1.527.439-2.423,1.567-2.662,3.351-.484,3.611-.897,7.131-1.231,10.462-.324,3.264-.587,6.554-.78,9.777-.164,2.741-.279,5.661-.371,9.468-.076,3.121-.154,6.752-.115,10.345.018,1.689.134,3.408.247,5.07.046.67.091,1.34.131,2.009.012.205.022.411.031.617.03.644.06,1.309.17,1.943.186,1.069.397,2.151.601,3.198.253,1.294.515,2.632.73,3.956.258,1.584.784,3.103,1.292,4.573.244.705.496,1.433.717,2.161.652,2.162,1.54,4.065,2.714,5.817.341.509.658,1.026.993,1.574.155.253.313.511.477.773l.126.203-.408.054c-.086.012-.151.02-.216.028-1.088.114-2,.723-2.504,1.671-.552,1.037-.527,2.326.068,3.446.605,1.137,1.444,1.968,2.495,2.47,1.994.954,3.287,2.716,3.953,5.385.018.071.035.142.05.211.115.495.214.922.692,1.066l.161.049-.225.556c-.092.229-.18.448-.27.666-.146.357-.287.718-.427,1.078-.316.808-.642,1.645-1.034,2.43-.352.706-.748,1.4-1.131,2.071-.455.798-.927,1.623-1.322,2.468-.716,1.527-.532,2.376.726,3.364l.066.052-.008.083c-.03.343-.066.678-.101,1.014-.387-.572-.81-1.151-1.278-1.742-.867-1.094-1.971-2.063-3.284-2.879-1.958-1.221-4.188-2.145-6.813-2.827-2.001-.52-3.857-1.311-5.518-2.353-1.742-1.091-3.43-1.854-5.162-2.332-.158-.043-.321-.103-.484-.179l-1.468-.676c-1.309-.601-2.663-1.222-3.983-1.857-2.606-1.251-5.299-1.707-8.011-1.36-2.339.3-4.357,1.45-6.19,2.648-.738.483-1.467,1.168-2.231,2.096-1.672,2.039-2.119,4.476-2.321,6.373-.359,3.366-.766,6.482-1.244,9.525-.179,1.141-.45,2.281-.713,3.384-.337,1.42-.688,2.89-.842,4.369-.184,1.768-.227,3.839.842,5.789.369.672.675,1.385.97,2.075.098.228.197.456.297.683.746,1.694,1.485,3.39,2.225,5.087l.534,1.225c.034.077.053.16.067.223l.058.213-.166.031c-.253.047-.505.089-.756.13-.564.092-1.096.18-1.617.327-1.059.298-1.994.621-2.861.986-1.026.432-1.944.833-2.764,1.382-2.976,1.992-4.496,4.429-4.645,7.452-.079,1.585.487,2.913,1.683,3.946l.07.058c.084.07.172.14.235.237.971,1.447,1.864,2.885,2.118,4.569.28,1.869.468,3.778.616,5.398.169,1.848.497,4.258,1.557,6.537.762,1.635,1.985,2.823,3.632,3.528,1.764.756,3.506,1.088,5.171.952,2.201-.162,4.43-.456,6.586-.741.776-.102,1.55-.204,2.326-.3,2.946-.367,5.314-1.346,7.236-2.989.126-.109.269-.196.406-.279.064-.04.127-.078.188-.119l.222-.146.017.265c.014.252-.053.435-.124.6-.81,1.873-1.833,4.36-2.562,7.004-.468,1.701-1.017,3.496-1.675,5.488-1.127,3.41-3.154,6.17-6.023,8.205-1.908,1.355-3.807,2.66-5.644,3.878-1.819,1.205-3.5,2.593-4.994,4.124-.448.457-.798,1.024-1.138,1.572l-.158.255c-.032.052-.309.514.03.73.185.119.533.162.846.113.561-.095,1.126-.225,1.674-.349.291-.067.581-.133.872-.196,2.199-.471,4.399-.936,6.601-1.401.226-.048.45-.098.676-.149.601-.136,1.223-.276,1.849-.347,1.259-.145,2.543-.293,3.734.269,2.66,1.253,4.505,2.489,5.98,4.006l.532.549c.82.849,1.669,1.728,2.572,2.514,1.503,1.311,3.135,2.968,3.843,5.328.104.353.321.533.66.551.018.001.036.001.054.001.31,0,.549-.154.708-.459.176-.341.375-.737.487-1.137.569-2.017,1.159-4.161,1.803-6.558.113-.415.229-.828.346-1.243.322-1.147.656-2.333.879-3.514.235-1.247.421-2.527.6-3.765.162-1.118.329-2.273.533-3.405.601-3.326.926-6.299.992-9.09.08-3.454.193-6.483.345-9.26.046-.842.164-1.69.279-2.512.084-.595.169-1.211.227-1.818.194-2.071.668-4.204,1.406-6.343,1.131-3.276,2.733-6.376,4.28-9.374.879-1.701,2.039-3.266,3.16-4.778.51-.689,1.038-1.401,1.532-2.117,1.443-2.089,2.926-4.339,3.787-6.862.134-.394.231-.54.466-.582-.143,1.654-.338,3.305-.534,4.919-.084.689-.168,1.379-.247,2.07-.185,1.597-.39,3.219-.588,4.787-.264,2.075-.535,4.22-.762,6.335-.239,2.225-.335,4.596.568,6.859.157.393.31.788.462,1.183l.264.681-.541.455c-.387.328-.762.645-1.145.953-1.322,1.065-2.132,2.484-2.474,4.338-.81,4.381-.182,8.765,1.867,13.03.674,1.402,1.45,2.784,2.202,4.122.347.617.695,1.237,1.035,1.862l.047.084-.056.078c-.09.128-.19.261-.292.399-.235.317-.479.645-.692.999-.936,1.561-.86,3.328.211,4.847.166.237.27.688.162.984-.327.904-.717,1.95-1.208,2.916-.974,1.916-2.632,3.126-4.927,3.596-.316.065-.64.078-.952.091-.244.01-.495.02-.735.055-.729.104-1.001.376-1.119,1.12-.251,1.596-.373,3.015.674,4.219l.088.101-.089.101c-1.22,1.391-1.591,3.066-1.809,4.668-.032.238-.074.474-.118.71-.058.323-.118.658-.149.986-.358,3.728-.318,8.468,3.201,12.063l.078.079-.05.098c-.125.246-.262.491-.399.738-.297.532-.604,1.081-.791,1.66-.839,2.585-.819,5.201.061,7.774,1.263,3.691,4.837,6.208,8.537,5.967h.023c.245,0,.551.24.651.449.534,1.118,1.282,1.856,2.287,2.257,2.579,1.026,5.572.018,7.122-2.395.156-.244.309-.49.462-.74l.291-.471.396.155c.2.079.387.154.576.219.974.331,2.028.61,3.113.388,4.248-.861,7.596-4.697,7.789-8.923.061-1.347-.088-2.735-.232-4.077l-.061-.585c-.151-1.451-1.007-2.576-1.834-3.665l-.13-.172c-.199-.264-.354-.538-.053-.974,2.045-2.959,2.3-6.213.761-9.672-.497-1.117-1.079-2.219-1.641-3.285-.263-.497-.526-.995-.783-1.498l-.054-.104.088-.079c.08-.072.168-.146.261-.223.208-.175.424-.357.61-.569.996-1.137,1.243-3.973.462-5.325-.357-.617-.892-.894-1.543-.813-1.333.154-2.671-.192-4.215-1.084-.749-.435-1.363-.915-1.822-1.427-1.354-1.512-1.534-3.458-1.531-5.162,0-.174.101-.33.19-.468.035-.053.068-.106.096-.158.092-.18.196-.355.299-.531.221-.375.429-.729.528-1.114.485-1.888.025-3.399-1.367-4.487l-.113-.089.706-1.044c.493-.731.98-1.454,1.478-2.165,1.044-1.491,2.175-3.321,2.646-5.585.42-2.024.527-3.935.337-5.752.576,1.363,1.073,2.622,1.483,3.794,1.357,3.881,2.622,7.099,4.389,10.184,1.555,2.717,2.627,4.844,3.474,6.897.601,1.456,1.243,3.195,1.432,5.042.253,2.471.863,5.082,1.864,7.98.383,1.111.665,2.268.938,3.388.096.396.193.792.294,1.187.05.196.07.394.09.586.018.182.036.355.077.522.061.246.158.402.275.439.109.034.274-.032.456-.191,1.064-.922,2.294-1.999,3.444-3.125.511-.498.981-1.055,1.436-1.594.211-.251.423-.502.64-.748l.168-.192.091.238c.01.026.023.056.036.089.037.086.083.191.112.3.098.382.194.762.289,1.143.16.635.318,1.269.491,1.901.243.884.492,1.796.812,2.677.133.37.479.575.892.502.383-.056.579-.279.677-.767.071-.359.149-.716.226-1.073.065-.299.131-.598.192-.898.097-.479.214-.966.327-1.436.256-1.071.521-2.177.573-3.266.114-2.353.005-4.71-.138-7.326-.072-1.333-.215-2.687-.353-3.997-.08-.762-.161-1.526-.228-2.289l-.053-.623c-.11-1.345-.225-2.734-.69-4.042-1.699-4.77-3.393-8.968-5.177-12.834l-.299-.646c-1.235-2.664-2.513-5.418-2.927-8.409-.014-.112-.031-.222-.049-.331l-.046-.306.346-.102.064.074c.073.084.148.166.222.249.16.179.319.357.467.544,1.085,1.381,2.419,2.965,4.084,4.256,2.348,1.819,4.991,3.326,7.853,4.477,1.998.804,4.417,1.605,7.111,1.381,1.606-.127,2.674-.544,3.46-1.349.598-.61,1.168-1.324,1.852-2.317.765-1.112,1.506-2.265,2.223-3.382l.632-.982c.394-.609.792-1.215,1.192-1.821.944-1.433,1.92-2.915,2.803-4.412,1.149-1.946,1.995-4.068,2.813-6.118.388-.972.789-1.979,1.219-2.955.412-.938.473-1.66.202-2.345Zm-5.928-29.798c-.061.285-.121.561-.174.839-.104.543-.213,1.085-.322,1.628-.268,1.334-.544,2.712-.738,4.075-.118.814-.154,1.657-.188,2.471-.025.564-.05,1.148-.102,1.72-.21,2.324-.977,4.508-2.279,6.491-1.032,1.572-2.464,2.527-4.256,2.839-.735.128-1.472.25-2.209.372-1.253.206-2.55.421-3.817.666-1.107.213-2.406.489-3.651.912-2.537.867-5.392,1.423-8.728,1.701-.894.07-1.803-.026-2.686-.125-.411-.044-.82-.09-1.228-.118l-.641-.047c-.677-.05-1.378-.102-2.066-.13-.732-.036-1.283.179-1.688.639-.115.133-.317.206-.553.206-.044,0-.09-.002-.136-.007-.291-.032-.522-.161-.621-.345-.891-1.672-2.035-3.236-3.142-4.746-.654-.893-1.33-1.816-1.95-2.757-.834-1.265-1.938-2.44-3.37-3.587-.75-.603-1.543-1.258-2.57-2.125-.122-.106-.211-.298-.219-.467-.01-.199.004-.402.019-.636.007-.107.014-.222.02-.349l.019-.389.408.484c.064.078.11.134.161.188.164.179.322.365.479.551.33.39.671.795,1.069,1.112,3.424,2.728,6.933,4.19,10.728,4.469,4.476.33,9.283.585,14.102.2,1.516-.12,3.047-.438,4.526-.747.363-.074.724-.15,1.085-.223,1.391-.28,3.043-.46,4.724.328.441.206.934.343,1.412.475.161.046.322.09.481.137.501.151,1.156.203,1.468-.365.258-.472.085-1.016-.45-1.419-1.556-1.169-3.293-1.542-5.17-1.099-1.149.269-2.294.585-3.279.86-2.692.753-5.502,1.016-8.363.791-2.429-.192-5.058-.346-8.039-.469-1.813-.077-3.395-.341-4.838-.808-.263-.085-.527-.169-.79-.252-1.952-.619-3.97-1.259-5.682-2.473-.666-.472-1.297-1.007-1.905-1.525-.264-.226-.529-.45-.797-.671-.408-.335-.813-.671-1.215-1.012-.074-.062-.167-.162-.18-.281-.06-.525-.114-1.049-.168-1.57l-.084-.806.239.098c.276.113.55.229.822.346.599.256,1.166.497,1.759.705,2.759.966,5.802,1.389,9.327,1.317,2.642-.06,5.327-.154,7.924-.244l1.465-.052c3.332-.115,6.742-1.018,10.427-2.76,1.711-.808,3.398-1.736,5.028-2.634.391-.216.782-.431,1.174-.645,1.346-.737,2.797-1.023,4.598-.902,1.005.067,2.049.002,3.055-.061.257-.016.514-.032.771-.047.164-.008.339-.089.539-.18.109-.05.225-.103.351-.151l.263-.098-.15.699Zm-32.936,26.844l-1.537.384-.435-.941.15-.061c.468-.185.978-.046,1.575.425l.246.193Zm-8.936-31.89c1.115-1.664,1.86-3.524,2.578-5.323.251-.628.502-1.257.768-1.878.611-1.423,1.321-2.471,2.233-3.3,1.674-1.518,3.121-3.269,4.521-4.963.461-.558.922-1.117,1.393-1.668.215-.253.426-.509.639-.765.443-.535.902-1.089,1.389-1.605,1.592-1.681,3.365-2.644,5.422-2.943.281-.041.564-.078.848-.116.796-.107,1.618-.217,2.407-.396.808-.182,1.623-.406,2.411-.622.72-.197,1.466-.401,2.208-.575,1.514-.353,3.07-.644,4.575-.924.396-.072.8-.04,1.189-.008,1.004.082,1.777.534,2.295,1.345,1.391,2.179,1.145,4.808-.64,6.86-1.756,2.018-3.886,3.639-6.331,4.817-3.502,1.689-7.7,3.599-12.284,4.968-.42.125-.842.247-1.263.371-1.443.421-2.937.856-4.357,1.391-3.21,1.208-6.036,3.095-8.434,4.77-.341.239-.684.475-1.028.711l-.345.238-.263-.282.068-.101Zm-6.159,6.896c.12-.04.24-.078.363-.104,1.887-.402,3.701-1.209,5.549-2.467l.445-.301c1.026-.695,2.087-1.413,3.059-2.197,3.591-2.893,7.696-5.016,12.551-6.487,4.236-1.285,8.192-2.969,11.756-5.006,3.135-1.792,5.603-3.747,7.549-5.976.334-.384.641-.79.966-1.22.154-.204.311-.412.475-.623l.219-.28.101.639c.032.2.062.385.085.57.235,1.843.812,3.706,1.87,6.04.507,1.119,1.112,2.434,1.753,3.71.564,1.125.912,2.376,1.129,4.058.06.469.137.939.213,1.408.228,1.396.462,2.841.264,4.303-.012.091-.023.182-.037.305l-.08.684-.231-.325c-.46-.647-1.076-.803-1.729-.97l-.119-.03c-1.931-.497-3.778-.109-5.805,1.217-2.829,1.854-5.997,3.486-9.686,4.993-2.269.926-4.812,1.438-7.555,1.521-1.33.04-2.683.108-3.991.174-2.07.104-4.186.211-6.304.211-1.085,0-2.172-.028-3.252-.098-3.665-.239-6.548-1.012-9.07-2.43-.489-.275-.712-.609-.746-1.113l-.007-.122.265-.083Zm-2.376,1.658c.547,2.106.557,4.224.496,6.021-.043,1.276-.875,2.213-2.545,2.863-.277.108-.555.188-.833.259-.718.184-1.436.252-2.15.188-.313-.028-.627-.078-.938-.154-.917-.221-1.836-.175-2.79.114-.151.046-.301.082-.454.14-.032.013-.229.086-.421.086-.091,0-.181-.017-.252-.065-.166-.112-.164-.382-.151-.627.055-.952.114-1.904.172-2.856.103-1.692.206-3.383.294-5.075.04-.764.02-1.544.001-2.3l-.008-.353c-.006-.256.053-.462.163-.623.125-.183.319-.307.588-.355.418-.076.839-.136,1.261-.196.343-.049.686-.097,1.028-.155.999-.17,2.033-.346,3.04-.557.557-.119.928-.097,1.263.069.231.114.446.285.684.57l.09.107-.098.1c-.055.055-.109.108-.162.16-.101.098-.197.192-.283.293-.306.36-.365.702-.181,1.044.163.306.456.45.921.45.008,0,.016,0,.025,0,.013,0,.027,0,.04,0,.92-.026.986.022,1.203.852Zm-3.812-4.413c-.054.023-.107.047-.16.071-.144.066-.293.134-.455.173-.181.043-.36.088-.54.132-.561.14-1.141.285-1.724.352-.198.023-.397.043-.595.064-1.171.121-2.274.263-3.236.881-.178-.165-.273-.401-.264-.731.016-.581.012-1.166.008-1.785-.001-.273-.002-.552-.002-.844v-.116l.112-.031c.281-.079.562-.173.845-.265.663-.219,1.347-.444,2.047-.509.656-.068,1.336.108,1.991.273.163.041.325.082.486.118.347.079.693.188,1.026.293.409.127.831.261,1.251.336.454.082.651.301.681.759.01.158.022.316.033.474-.475.034-.969.131-1.504.358Zm-7.979-4.619c.201-.148.477-.241.85-.291.444-.059.893-.204,1.327-.343.205-.066.411-.133.617-.191.073-.02.148-.048.222-.076.196-.071.395-.142.611-.125,1.712.16,3.474.324,5.201.564.55.077,1.229.423,1.348,1.639l.02.203-.202-.037c-.271-.052-.543-.085-.808-.119-.583-.074-1.136-.144-1.639-.375-1.884-.86-3.753-.772-5.891.273-.397.193-.833.3-1.256.403-.014.004-.029.008-.044.011-.103-.517-.22-1.03-.357-1.537Zm11.476-34.264c.477-.479.941-.539,1.382-.17.491.409.618.939.369,1.532l-.09.219c-.156.385-.317.784-.579,1.096-1.034,1.238-2.081,2.446-3.19,3.724-.409.473-.825.953-1.249,1.444l-.312.361.043-.477c.023-.262.043-.522.064-.78.134-1.752.262-3.407,1.477-4.748.824-.906,1.466-1.585,2.085-2.201Zm-12.527,6.458l-.065-.086c-.684-.914-1.549-1.498-2.723-2.147-.686-.378-1.222-1.048-1.742-1.696l-.054-.067c-.363-.454-.367-1.073-.012-1.794.294-.595.842-.605,1.325-.613h.054c1.126,0,1.958.609,2.347,1.72.351,1.004.646,2.045.932,3.052.126.444.252.89.383,1.333l.042.144-.487.155Zm-1.319,16.497c.038-.092.076-.187.112-.282.084-.219.169-.443.289-.65l.222-.383c.487-.84.99-1.708,1.532-2.531,1.289-1.961,1.941-4.201,1.992-6.847.012-.635-.106-1.292-.221-1.926-.029-.157-.056-.315-.083-.472l-.025-.151c-.305-1.812-.619-3.685-.976-5.515-.48-2.476-1.442-4.705-2.859-6.627-.938-1.27-1.783-2.527-2.514-3.735-2.145-3.546-3.556-7.663-4.191-12.234-.13-.94-.27-1.879-.411-2.818-.166-1.117-.339-2.271-.491-3.411-.101-.755-.157-1.562-.172-2.465-.017-1.085-.052-2.189-.085-3.256-.079-2.497-.161-5.08-.019-7.632.142-2.551.191-5.152.239-7.667.029-1.531.059-3.113.109-4.669.072-2.174.187-4.147.354-6.032.384-4.327.833-9.049,1.376-14.434.101-1.007.334-1.987.549-2.813.088-.333.261-.634.429-.926.074-.128.149-.257.215-.388l.064-.125.418.166.026.048c.662,1.185,1.001,2.508,1.037,4.045.024,1.005.044,2.01.066,3.015.043,2.101.088,4.273.161,6.407.042,1.238.118,2.495.191,3.712.058.945.114,1.89.157,2.836.046,1.036.078,2.072.112,3.108.038,1.239.079,2.521.143,3.781l.053,1.037c.243,4.805.495,9.771.816,14.652.122,1.845.707,3.298,1.737,4.32.438.433,1.063.792,1.76,1.011,1.011.312,1.801-.112,2.175-1.169.367-1.031.565-1.916.607-2.708.291-5.417.279-10.249-.037-14.773-.102-1.466-.216-2.932-.33-4.396-.203-2.592-.412-5.272-.546-7.914-.3-5.873-.118-10.333.591-14.458.088-.511.325-1.049.65-1.473.309-.399.556-.574.792-.522.238.038.417.267.576.737l.059.169c.345,1.008.701,2.051.782,3.111.31,4.09.653,8.942.854,13.91.204,5.063.281,10.214.355,15.197.022,1.412-.01,2.843-.04,4.228-.022.959-.042,1.92-.047,2.879-.008,2.201.299,4.269.914,6.149.223.681.541,1.304.921,1.802.323.426.743.659,1.187.659h.026c.477-.01.922-.28,1.256-.761.235-.341.432-.753.567-1.192.782-2.543,1.184-4.847,1.232-7.043.024-1.143.064-2.287.102-3.43.074-2.203.151-4.479.119-6.716-.042-2.871-.18-5.787-.313-8.608-.065-1.348-.128-2.698-.182-4.047-.043-1.088-.076-2.175-.109-3.263l-.137-4.276c-.079-2.42-.162-4.924-.222-7.386-.034-1.359.217-2.579.79-3.839l.128-.282.148.273c.12.225.246.43.365.627.249.411.484.797.603,1.221l.071.25c.444,1.57.904,3.195,1.156,4.831.371,2.414.57,4.512.607,6.41.074,3.826.112,7.717.149,11.48.032,3.395.066,6.907.127,10.36.03,1.728.119,3.485.205,5.185.086,1.711.175,3.479.205,5.222.074,4.24.048,7.722-.08,10.955-.071,1.784-.342,3.743-.83,5.991-.401,1.851-.968,3.807-1.78,6.157-.309.887-.953,1.672-1.48,2.258-1.87,2.075-3.222,3.95-4.255,5.901-1.227,2.32-1.778,4.797-1.638,7.368.077,1.418.233,2.857.384,4.249.058.539.116,1.078.17,1.617.026.253.064.516.161.722.225.473.443.95.66,1.427.843,1.845,1.714,3.754,3.009,5.351l.14.172c.197.243.401.492.586.754.161.229.204.448.12.616-.055.109-.186.243-.497.252-.059.001-.116.002-.174.002-1.391,0-2.412-.471-3.115-1.437-.312-.426-.511-.594-.862-.508-.371.097-.537.371-.555.914-.026.796-.4,1.435-1.081,1.848-.167.102-.337.154-.495.154-.113,0-.219-.026-.313-.08-.229-.131-.359-.409-.354-.764.007-.573.12-1.151.219-1.663.116-.587.106-.951-.281-1.196-.382-.24-.729-.156-1.159.279-1.069,1.082-2.402,1.584-3.692,2.069-.311.116-.622.234-.929.359l-.096.038-.289-.3.038-.094Zm.43,3.661l.048-.522c.046-.503.311-.824.862-1.04.771-.304,1.512-.653,2.297-1.022.313-.149.63-.298.952-.444l.176-.082.038.191c.217,1.097.876,1.876,1.722,2.034.976.176,2.011-.473,2.843-1.794l.089-.143.134.102c.968.742,2.075.814,3.248.89.161.011.321.02.481.032.277.023.754.298.815.597l.074.352c.197.935.401,1.902.396,2.861-.007,1.381-1.3,2.706-2.456,3.031-.184.055-.379.005-.551-.037l-.07-.016c-2.085-.485-3.958-.645-5.722-.49-.926.08-1.891.229-2.622,1.072-.126.144-.357.204-.622.204-.241,0-.509-.05-.756-.131-.048-.169-.098-.338-.144-.508-.321-1.166-.776-2.303-1.377-3.447.043-.569.094-1.135.144-1.692Zm-34.998-11.222c.172-.592.544-1.06,1.046-1.318.519-.265,1.144-.291,1.759-.074l.198.071c1.399.495,2.845,1.006,4.347,1.259.774.128,1.59.305,2.566.556,1.952.501,3.625,1.476,5.142,2.453,2.156,1.391,4.613,2.621,7.512,3.759,4.807,1.886,8.296,5.106,10.368,9.572,1.171,2.518,1.895,4.501,2.351,6.43.036.156.062.315.09.487.016.091.031.188.05.291l.053.288-.268-.12c-2.479-1.124-4.248-2.413-5.566-4.059l-.427-.533c-1.184-1.476-2.408-3.003-3.549-4.547-1.785-2.418-4.064-3.985-6.968-4.79-2.215-.615-4.449-1.288-6.612-1.94-.815-.246-1.632-.492-2.448-.735-.453-.136-.909-.267-1.364-.399-1.241-.358-2.526-.728-3.753-1.183-.933-.346-1.892-.866-2.933-1.588-.966-.67-1.549-1.657-1.682-2.853-.038-.335-.007-.7.088-1.028Zm-11.874,29.37c-.987-1.587-1.945-3.31-1.863-5.391.07-1.761.33-3.344.794-4.836.158-.513.322-1.023.485-1.534.726-2.283,1.479-4.644,1.878-7.04.313-1.878.547-3.62.718-5.326.273-2.731,1.615-4.725,4.105-6.094,1.25-.687,2.604-1.361,4.215-1.42.134-.005.27-.007.411-.01l.486-.01-.116.229c-.088.172-.179.336-.269.498-.187.336-.365.654-.473.987-.313.958-.186,1.991.389,3.154.824,1.664,2.221,2.839,4.273,3.595.795.292,1.611.571,2.401.842,1.007.346,2.049.702,3.061,1.089,1.976.758,3.975,1.55,5.909,2.315,1.407.557,2.814,1.114,4.224,1.664,2.148.837,3.607,2.392,4.638,3.653,1.646,2.013,3.38,4.069,5.301,6.284.372.431.849.804,1.31,1.165l.304.239c.909.723,1.826,1.437,2.754,2.159l1.295,1.008-1.312,2.376-.114-.029c-.497-.125-.99-.251-1.482-.377-1.13-.289-2.297-.588-3.447-.854-.491-.113-1.001-.199-1.494-.283-.545-.092-1.109-.187-1.656-.321-.762-.186-1.626-.396-2.348-.812-2.51-1.448-5.477-2.335-9.336-2.795-2.957-.352-5.644-1.19-7.986-2.49-.803-.447-1.646-.86-2.46-1.261-.532-.261-1.063-.521-1.587-.792-2.452-1.269-4.459-3.035-5.968-5.25-.384-.564-.851-1.099-1.301-1.614-.139-.16-.277-.318-.414-.478-.286-.333-.599-.421-.968-.277-.361.145-.547.507-.471.92.061.333.155.583.286.768.092.132.184.265.276.399.395.573.803,1.166,1.295,1.659,4.009,4.033,8.977,6.709,12.857,8.589,2.017.978,4.213,1.407,6.289,1.761l.463.078c.893.149,1.816.304,2.694.563,1.209.359,2.458.729,3.55,1.336,2.994,1.668,6.376,2.654,10.341,3.018l.065.006c.08.007.16.014.24.028.062.008.1.046.134.078.013.013.03.03.055.05l.206.175-.256.088c-.054.019-.104.038-.154.058-.11.042-.214.082-.327.103-.837.158-1.671.33-2.506.503-1.907.393-3.878.8-5.842,1.032-3.509.417-6.984,1.147-10.619,2.232-.449.133-.902.258-1.354.382-.45.124-.9.246-1.347.381-1.914.571-3.803.684-5.776.336-1.179-.206-2.431-.164-3.641-.122-.45.017-.98.203-1.436.501-.311.203-.478.489-.46.783.018.312.234.592.593.768.405.198.868.313,1.268.4,2.359.502,4.723.301,6.927.011,2.741-.361,5.16-.922,7.397-1.713,3.8-1.343,7.726-2.04,11.402-2.593l.45-.068c.718-.113,1.461-.228,2.228-.265l.796-.038-1.016.466c-.229.107-.459.214-.693.313-2.467,1.053-4.82,2.688-7.405,5.148-.774.737-1.391,1.658-1.885,2.817-.167.391-.395.511-.804.401-.861-.229-1.78-.2-2.896.09-1.293.339-2.706.675-4.321,1.028-1.227.268-2.406.402-3.527.402-1.256,0-2.441-.168-3.545-.504-3.598-1.094-6.537-2.83-8.735-5.156-1.061-1.123-1.708-2.466-2.154-3.512-.765-1.797-1.747-3.649-3-5.661Zm-7.661,22.812l-.034-.026c-1.62-1.213-1.973-2.911-.968-4.661.935-1.628,2.462-2.575,3.689-3.218,1.736-.909,3.633-1.788,5.75-2.055.279-.036.559-.058.84-.079l.346-.028c.122-.011.251-.012.378-.013.258-.004.502-.006.695-.089.724-.316,1.177.005,1.659.343l.052.036c2.525,1.758,5.326,3.462,8.695,4.038,3.643.623,7.135.504,10.375-.352.531-.14,1.076-.251,1.604-.359.206-.042.412-.084.617-.127.054-.012.11-.016.204-.018.05-.002.113-.005.194-.01l.489-.029-.384.303c-.483.382-.944.768-1.399,1.149-1.001.839-1.949,1.632-3.011,2.291-2.985,1.85-5.77,3.161-8.512,4.008-2.926.904-6.006,1.423-9.158,1.543l-.307.012c-.699.028-1.406.055-2.114.055-1.299,0-2.602-.094-3.863-.453-1.295-.367-2.574-.857-3.809-1.33-.441-.168-.881-.337-1.322-.501-.263-.096-.487-.267-.706-.43Zm27.254,16.177l-.156.077c-1.331.653-2.708,1.328-4.092,1.933-2.243.982-4.681,1.395-7.039,1.795l-.786.134c-1.192.204-2.424.417-3.649.533-.256.025-.511.037-.766.037-1.738,0-3.422-.573-5.015-1.708-1.179-.839-1.527-2.153-1.726-3.447-.17-1.101-.258-2.228-.341-3.32l-.056-.716c-.222-2.826-.453-5.747-1.819-8.496l-.15-.303.327.085c.2.053.39.1.573.144.369.091.716.178,1.053.282,2.639.815,5.495,1.058,8.49.724,3.62-.403,6.59-.777,9.348-1.173,1.645-.235,3.32-.857,5.118-1.902,1.333-.773,2.748-1.654,4.452-2.772,1.143-.748,2.222-1.292,3.398-1.713l.255-.09-1.037,5.271-.176-.078c-1.063-.471-1.467-.405-2.277.372-.353.339-.664.71-.926,1.106-.777,1.173-1.772,2.06-3.045,2.712-1.496.767-3.12,1.263-4.692,1.743-.522.16-1.044.319-1.563.49-1.584.517-3.013.963-4.484,1.185-2.306.345-4.663-.029-6.996-1.126-.054-.025-.108-.053-.161-.08-.148-.076-.288-.148-.426-.168-.173-.025-.382.012-.419.053-.058.08-.053.297.01.433.067.149.233.285.411.421,2.271,1.749,4.92,2.332,7.859,1.735.814-.166,1.618-.454,2.398-.732l.25-.09c.683-.243,1.361-.498,2.04-.754,1.078-.407,2.191-.827,3.309-1.186,1.605-.515,3.214-1.199,5.063-2.151.209-.107.418-.209.628-.312.412-.202.837-.409,1.233-.641.319-.187.622-.414.942-.654.156-.118.317-.238.489-.361l.33-.237-.09.395c-.074.327-.137.652-.198.974-.137.712-.265,1.384-.51,2.037-.659,1.748-1.391,3.503-2.101,5.201-.223.537-.448,1.073-.67,1.61-.065.158-.187.292-.295.408l-.223.247c-.437.483-.887.982-1.347,1.461-.222.231-.454.473-.74.612Zm-2.61,16.654l.46-1.359c.683-2.021,1.391-4.111,2.031-6.181,1.067-3.448,2.438-6.702,4.049-9.726-.131,1.084-.228,2.182-.272,3.285-.067,1.694-.393,3.452-.994,5.373-1.084,3.473-3.028,6.603-4.967,9.469-.156.231-.347.438-.532.639-.086.094-.173.187-.256.285l-1.208,1.401c.732-1,1.309-2.061,1.688-3.185Zm30.846-45.468c-.054.128-.113.255-.172.381-.122.263-.239.511-.304.767h0c-.657,2.578-2.358,4.646-4.044,6.544-2.326,2.618-4.302,5.47-5.876,8.472-.322.616-.653,1.227-.984,1.839-.73,1.349-1.485,2.745-2.124,4.156-1.189,2.627-1.728,5.443-2.178,8.103-.585,3.464-.926,6.307-1.07,8.95l-.005.082c-.118,2.166-.239,4.405-.606,6.596-.269,1.609-.149,3.266-.032,4.867.02.281.041.562.06.843.184,2.815.267,6.129-.513,9.36-.14.585-.323,1.169-.499,1.735-.204.656-.417,1.333-.562,2.009-.202.944-.343,1.919-.48,2.861-.073.508-.146,1.017-.231,1.524-.066.408-.196.788-.42,1.228l-.187.369-.115-.477c-.008-.044-.017-.085-.03-.116-.929-2.077-2.462-3.821-3.944-5.508l-.262-.299c-.215-.243-.433-.484-.653-.724-.211-.232-.423-.463-.63-.699-1.506-1.712-3.328-2.947-5.416-3.673-.294-.102-.591-.198-.887-.294-.328-.107-.654-.213-.978-.327-1.172-.413-2.339-.349-3.747-.223-2.046.184-4.068.654-6.023,1.108-.629.145-1.257.292-1.887.429-.318.07-.639.133-.958.197l-.58.116-.169-.358.64-.463c.405-.293.81-.586,1.217-.876.81-.58,1.624-1.156,2.438-1.734,1.961-1.39,3.99-2.829,5.951-4.28.741-.549,1.401-1.228,2.04-1.886l.112-.115c-.633.735-1.267,1.468-1.896,2.205-.167.197-.317.433-.46.726-.172.354-.118.674.161.951.293.292.663.361,1.061.203.245-.095.473-.238.642-.402.737-.713,1.4-1.381,2.024-2.042,1.388-1.463,2.362-2.979,2.979-4.631.328-.879.767-1.734,1.191-2.56.162-.315.323-.629.479-.946.231-.466.467-.93.704-1.394.359-.702.729-1.429,1.069-2.151,1.303-2.778,2.03-5.135,2.292-7.418.295-2.584.699-5.239,1.192-7.925,1.608-3.164,2.825-6.617,3.652-10.535.309-1.462.651-2.927.998-4.382,1.148-1.594,2.293-3.19,3.434-4.789.628-.88,1.256-1.759,1.885-2.638l.256-.363c.295-.42.601-.855.945-1.255.257-.3.634-.501.905-.616.198-.083.33-.216.34-.339.007-.106-.086-.186-.167-.234-.285-.172-.651-.276-.953-.276-.046,0-.09.002-.132.007-.088.01-.169.041-.255.056,2.246-1.666,4.21-2.971,6.097-4.033.124-.07.255-.13.401-.198.071-.032.146-.067.226-.106l.18-.086.038.194c.459,2.353,2.401,3.251,4.28,4.12.08.037.164.066.263.1.058.02.121.042.19.067l.151.055-.062.149Zm.695-11.267c-.078.463-.16.944-.163,1.409-.007,1.217.023,2.456.053,3.656.012.492.024.983.034,1.476l.007.483c.004.336.008.672.023,1.008.005.109-.001.267-.109.379-.11.118-.279.132-.413.132-1.289,0-2.213-.699-2.872-1.307-.415-.383-.265-.885-.144-1.288.609-2.023,1.385-3.775,2.382-5.379.202-.322.415-.636.63-.951.095-.139.191-.28.286-.42l.07-.106.31.136.011.125c-.03.216-.066.431-.103.647Zm.929,29.619c.198-1.648.453-3.317.7-4.931.321-2.1.653-4.272.862-6.418.084-.864.175-1.729.268-2.592.021-.197.04-.399.061-.597.163.27.318.544.457.824.324.656.642,1.342.959,2.054.112,4.967-.122,9.165-.727,13.015-.134.862-.232,1.804-.295,2.88-.034.534.104.81.445.893.401.097.706-.098.918-.582.221-.502.442-1.037.499-1.578.268-2.494.51-5.018.724-7.247l.204-2.115c-.02-.388-.038-.761-.055-1.135.384.971.782,2.009,1.161,3.059.334.923.642,1.87.94,2.788.303.93.615,1.893.953,2.827.629,1.734,1.295,3.488,1.939,5.184.204.537.406,1.076.609,1.614-.148.234-.423.463-.654.473-.843.042-1.58.001-2.249-.121-.235-.043-.406-.262-.571-.472-.077-.1-.157-.202-.237-.275-.059-.054-.12-.116-.181-.18-.156-.161-.333-.342-.465-.348-.204-.001-.528.222-.623.426-.545,1.16-1.448,1.359-2.352,1.359-.245,0-.489-.014-.726-.029l-.107-.006c-1.132-.064-1.594-.986-1.939-1.843-.914-2.276-.79-4.674-.52-6.927Zm.719,34.151c.662-.659,1.587-1.394,2.812-1.295.253.02.46.354.499.421.247.423.561.663.882.674h.022c.297,0,.593-.197.839-.559.116-.17.295-.394.526-.394h.018c.233.012.385.239.492.436.058.103.108.21.158.318.043.09.086.18.133.269.581,1.089,1.311,1.402,2.372,1.023.263-.095.454-.098.603-.018.199.107.28.339.336.574.18.737,0,1.512-.483,2.07-.455.523-1.113.792-1.809.72-.754-.072-1.6-.34-2.588-.819-.76-.369-.976-.391-1.52.2-.592.645-1.495,1.02-2.289,1.02-.331,0-.644-.065-.906-.204-.73-.385-1.064-1.012-1.022-1.914.01-1.042.337-1.938.924-2.522Zm-7.632,14.591l.122-.013c4.332-.487,6.858-2.881,7.948-7.531.029-.12.052-.24.078-.372l.074-.372h1.226l.013.14c.002.029.006.055.011.082.011.071.023.145.005.225-.856,3.843-2.071,6.721-3.824,9.056-.75,1-1.646,1.629-2.737,1.923-.243.065-.507.119-.785.119-.324,0-.668-.073-1.018-.288-.245-.15-.616-.154-.875-.146-.023.001-.047.001-.07.001-.75,0-1.18-.414-1.245-1.203-.005-.05-.005-.104-.005-.158v-.049c-.028-1.216.032-1.295,1.082-1.412Zm8.326,35.2c-.385.894-1.04,1.366-1.872,1.366-.157,0-.322-.017-.492-.052-3.591-.725-5.332-2.454-6.006-5.966-.298-1.554-.253-3.035.134-4.405.155-.551.433-1.131.804-1.676.478-.698,1.119-.972,1.98-.858,2.294.299,4.177-.222,5.748-1.591.064-.055.131-.103.228-.172l.406-.295.028.265c.034.309.068.605.103.892.071.597.138,1.16.173,1.726.019.315.041.628.064.942.157,2.264.319,4.605-.273,6.886-.24.928-.575,1.887-1.025,2.935Zm18.895-9.926c.157,1.299.334,2.771.253,4.178-.186,3.225-2.543,6.092-5.603,6.819-.246.058-.507.085-.774.086-1.569,0-3.408-.958-4.257-2.315-.921-1.476-1.411-2.997-1.497-4.65-.116-2.226.095-4.395.342-6.607l.022-.192.182.064c.389.138.773.28,1.156.421.84.31,1.635.603,2.459.846,2.46.726,4.288.307,5.757-1.316l.098-.108.113.092c.782.635,1.602,1.45,1.749,2.68Zm-.617-13.026c.756,1.866.66,3.775-.271,5.374-.665,1.141-1.489,2.196-2.286,3.216l-.411.527c-.454.587-1.155.884-2.083.884h-.013c-1.919-.008-3.687-.659-5.26-1.933-1.107-.896-1.524-2.22-1.174-3.727.393-1.696,1.261-2.956,2.58-3.741.747-.442,1.49-.376,2.219.203.564.448.735,1.058.507,1.814-.052.167-.104.334-.157.499-.144.449-.293.914-.384,1.377-.041.2.06.568.132.621.229.095.607.07.767-.054,1.022-.802,1.668-1.884,1.771-2.967.09-.952-.232-1.857-.958-2.694-1.375-1.584-3.296-1.815-5.012-.61-2.448,1.714-3.77,5.179-3.076,8.057.103.427.241.914.493,1.291.377.562.379,1.095.265,1.723-.574,3.178-.749,6.015-.537,8.674.152,1.911.808,3.689,1.95,5.287.3.419.268.726.101,1.147-.698,1.762-2.143,2.456-3.605,2.456-.623,0-1.25-.126-1.821-.349-.387-.151-.692-.486-.987-.81-.127-.14-.253-.279-.384-.4l-.104-.097.089-.112c1.806-2.251,2.674-4.924,2.814-8.666.11-2.916-.407-5.813-.909-8.615l-.053-.295c-.06-.329-.006-.729.136-1.017,1.215-2.46.965-4.945-.704-6.999-.983-1.211-2.354-1.606-4.069-1.184-1.342.333-2.165,1.305-2.442,2.887-.161.91-.265,1.726.089,2.514.162.361.375.576.611.619.215.041.479-.07.74-.328.098-.097.181-.279.168-.366-.149-.996.217-1.862.639-2.734.17-.352.533-.583.996-.635.639-.088,1.329.204,1.712.686,1.177,1.479,1.257,3.354.21,4.892-1.459,2.139-3.364,3.077-5.843,2.842-2.154-.198-3.58-1.322-4.36-3.437-.944-2.555-1.222-5.123-.83-7.631.04-.256.074-.513.109-.771.094-.68.19-1.382.376-2.049.243-.869.645-1.693,1.034-2.488.122-.253.581-.478.837-.389,3.734,1.159,6.115-1.414,7.459-3.784,1.267-2.233,2.235-4.725,2.88-7.408.046-.193.098-.384.121-.468l.118-.432.181.379c.231.553.457,1.12.688,1.693.52,1.297,1.058,2.638,1.67,3.931,1.861,3.928,4.867,6.37,8.937,7.259.938.205,1.513.64,1.922,1.456.243.48.493.958.744,1.436.583,1.111,1.186,2.261,1.669,3.446Zm-7.696-13.936c1.843,1.626,4.046,2.387,6.572,2.223l.163-.01v.163c0,.237.005.467.01.693.011.514.02.999-.025,1.486-.072.788-.822,1.494-1.566,1.494-.023,0-.046,0-.067-.001-.855-.05-1.761-.134-2.603-.407-2.491-.808-4.477-2.389-5.903-4.701-1.501-2.434-2.408-4.635-2.859-6.929-.036-.188-.054-.378-.068-.543-.007-.08.017-.154.026-.185l.028-.138.139.02,3.621.403-.004.142c-.074,2.549.826,4.783,2.536,6.289Zm-.206-19.74c-.66,1.079-1.343,2.115-2.067,3.21-.313.475-.63.956-.948,1.444l-.11.17-.133-.154c-1.163-1.33-1.97-1.539-3.455-.902-.07.031-.319.12-.528.04-1.03-.413-1.808-.18-2.447.728l-.136.191-.121-.199c-.083-.136-.162-.263-.239-.388-.167-.269-.323-.52-.467-.779-1.807-3.221-3.556-6.76-4.11-10.809-.286-2.105-.104-4.287.539-6.49.343-1.173,1.159-1.956,1.946-2.712.233-.223.466-.447.686-.68l.08-.085.103.055c1.83.969,3.633.814,5.675-.484l.109-.068.086.094c.77.836,1.774,1.156,3.347,1.066.01,0,.019-.001.03-.001.243,0,.519.162.672.329,1.277,1.397,1.985,2.648,2.291,4.058.102.469.225.945.343,1.406.245.956.498,1.943.593,2.937.283,2.977-.301,5.676-1.74,8.023Zm23.23,2.36c.493.885.92,1.819,1.331,2.723l.139.306c.899,1.957,1.431,4.06,1.629,6.43.138,1.67.335,3.365.526,5.005.164,1.408.334,2.863.465,4.299l.005.053c.18,1.965.365,3.996.097,6.009l-.094.714-.336.05-.583-1.753c-.365-1.102-.731-2.204-1.097-3.304-.146-.442-.424-.668-.849-.69-.023-.001-.044-.002-.066-.002-.37,0-.648.192-.831.569-.293.613-.582,1.228-.872,1.844-.306.651-.612,1.3-.923,1.949-.712,1.483-1.403,2.788-2.657,3.752l-.413.321-.089-.146c-.01-.016-.019-.028-.029-.04-.031-.042-.073-.098-.068-.178.13-1.907-.383-3.728-.9-5.259-.6-1.774-.945-3.713-1.12-6.29-.293-4.312-1.482-8.356-3.534-12.015-2.006-3.578-3.733-7.542-5.277-12.119-1.209-3.577-2.452-6.437-3.91-9.003-.834-1.465-1.319-3.129-1.789-4.74l-.103-.352c-.273-.932-.539-1.874-.803-2.813-.334-1.192-.664-2.382-.986-3.55-.564-2.052-1.149-4.174-1.756-6.253-.892-3.051-1.778-5.311-2.873-7.331-.16-.295-.321-.591-.485-.886-.648-1.168-1.358-2.32-2.277-3.337-.435-.481-.922-.929-1.472-1.334-.148-.109-.289-.223-.448-.326l-.331-.215-.143-.092.149.007.416.019c.043.002.088.006.132.01.064.005.125.005.185.005.021,0,.046.003.066.002l.4-.041c.229-.023.462-.058.694-.084.283-.032.565-.058.844-.102.402-.065.8-.149,1.201-.227.305-.059.614-.112.913-.173l.197-.04c.332-.068.665-.13.999-.193.005,0,.011-.002.016-.003.87-.162,1.77-.33,2.617-.591.492-.152.939-.433,1.412-.731.216-.136.433-.273.657-.399l.084-.047.078.054c2.181,1.496,4.635,3.315,6.165,5.999.567.993,1.25,2.018,2.151,3.226.968,1.3,1.784,2.789,2.494,4.551l.228.565c1.044,2.588,2.125,5.266,2.684,8.051.156.778.255,1.578.348,2.351.084.69.17,1.403.299,2.096.466,2.507.968,5.472,1.157,8.452.086,1.373.478,2.818,1.197,4.418.295.657.588,1.315.881,1.973,1.307,2.94,2.659,5.98,4.257,8.854Zm23.559-18.255c-.083.196-.168.399-.258.599h-.001l-.51,1.12c-.683,1.501-1.369,3.004-2.063,4.501-.204.441-.453.863-.689,1.259-1.019,1.701-2.642,2.562-4.83,2.562-.088,0-.175-.001-.265-.004-1.439-.043-2.85-.409-4.311-1.12-2.346-1.141-4.478-2.582-6.072-3.712-.353-.25-.708-.496-1.065-.743-.644-.447-1.309-.908-1.947-1.382-1.592-1.179-2.994-2.672-4.412-4.701-.331-.473-.682-.947-1.072-1.45-.79-1.02-1.204-2.135-1.268-3.408-.024-.485-.078-.959-.136-1.462-.025-.225-.05-.449-.073-.676l-.016-.151.15-.017c1.105-.137,2.12.138,2.935.77,1.143.884,2.202,1.82,3.147,2.783.879.897,1.652,1.881,2.501,2.981,2.1,2.719,4.737,4.882,8.064,6.612,1.839.957,3.742,1.946,5.902,2.344.397.072.724.091,1.048.102.461-.006.789-.22.975-.634.101-.223.13-.371.092-.466-.048-.124-.239-.225-.529-.347-1.86-.783-3.848-1.3-5.77-1.801-.387-.101-.773-.202-1.16-.304-.589-.158-1.121-.498-1.636-.827l-.05-.032c-2.983-1.899-5.513-4.266-7.522-7.033-1.019-1.406-2.238-2.576-3.625-3.478-.762-.497-1.633-.88-2.474-1.25l-.108-.048c-.613-.27-1.217-.298-1.792-.086l-.182.067-.023-.193c-.293-2.454-1.108-4.695-1.973-7.068l-.125-.346.196-.019c.018-.002.037-.006.054-.008.06-.011.126-.022.194-.001,1.615.497,3.314,1.168,5.345,2.111,4.38,2.031,8.19,4.789,12.363,7.921,3.865,2.903,7.109,4.667,10.517,5.72.567.175,1.102.396,1.67.63.259.108.521.216.789.321l.146.058-.131.31Zm7.254-12.834c-.061.121-.116.231-.178.336l-1.495,2.599c-1.588,2.761-3.177,5.523-4.755,8.289-.172.301-.349.436-.607.436-.097,0-.206-.019-.331-.055-.277-.08-.565-.116-.872-.154-.219-.026-.447-.054-.668-.101-2.031-.424-4.042-1.227-6.149-2.455-2.18-1.273-4.314-2.945-6.523-5.114-.993-.977-2.097-2.03-3.375-3.219-2.097-1.952-4.681-3.449-7.679-4.448-.151-.05-.299-.104-.447-.16l-.311-.114.085-.337.11-.006c.197-.01.393-.023.589-.037.433-.03.88-.058,1.321-.053.142.002.283.004.424.004,3.542,0,7.076-.742,10.792-2.264.519-.214.863-.169,1.315.166,2.334,1.724,4.479,3.248,6.558,4.657,2.197,1.49,4.656,2.406,7.305,2.723,1.463.174,2.89-.126,4.363-.921.089-.047.176-.091.265-.136.04-.017.067-.019.108-.022l.365-.026-.211.413Zm-.581-1.683c-1.205.681-2.317,1.018-3.39,1.018-.714,0-1.411-.149-2.107-.445-1.597-.682-3.141-1.53-4.719-2.594-.797-.537-1.594-1.102-2.365-1.648-.496-.351-.992-.702-1.491-1.049-.468-.325-.944-.641-1.456-.981l-.99-.659.341-.082c.31-.074.612-.149.909-.222.683-.167,1.329-.325,1.986-.467l.16-.035c1.287-.276,2.618-.563,3.747-1.239.622-.371,1.21-.825,1.779-1.262.235-.182.471-.364.71-.54.074-.055.143-.126.216-.2.038-.04.078-.08.119-.12l.114-.109.106.116c.198.215.391.431.582.645.409.455.795.886,1.208,1.304.225.228.451.454.678.681,1.333,1.33,2.711,2.706,3.725,4.336.315.507.593.966.816,1.463.412.917.191,1.602-.676,2.09Z" stroke-width="0"/>
      <path d="m83.976,162.505c-.743-3.831-1.585-7.375-2.573-10.833-.852-2.982-1.731-5.964-2.611-8.863-.221-.724-.453-1.419-.861-1.974-1.085-1.472-2.244-2.901-3.444-4.246-.359-.402-.911-.684-1.444-.957l-.246-.126c-.095-.05-.192-.074-.286-.074-.196,0-.379.104-.507.299-.155.239-.103.45.181.728,1.219,1.192,2.293,2.585,3.195,4.14.31.535.625,1.069.941,1.603.758,1.282,1.542,2.61,2.245,3.949.539,1.029,1.012,2.204,1.444,3.595.443,1.418.82,2.878,1.185,4.288.103.397.205.795.31,1.192.271,1.029.457,1.819.603,2.563.168.858.324,1.722.479,2.584.277,1.537.563,3.125.923,4.669.77,3.305,2.107,6.694,4.09,10.359,1.7,3.139,3.028,6.477,4.059,10.201.52,1.872,1.011,4.107.711,6.485-.17,1.341-.246,2.538-.232,3.659.013.923.128,1.915.365,3.121.122.629.64.858,1.061.81.573-.067.737-.574.776-.988.048-.528.07-1.069.09-1.592.011-.246.02-.491.032-.737.071-1.574-.07-3.279-.441-5.364-.975-5.482-2.597-10.299-4.958-14.725-2.555-4.785-4.219-9.288-5.088-13.766Z" stroke-width="0"/>
    </g>
  </g>
</svg>