<?xml version="1.0" encoding="UTF-8"?>
<svg id="Layer_2" data-name="Layer 2" xmlns="http://www.w3.org/2000/svg" viewBox="0 0 33.0795078 161.0409438">
  <g id="Layer_1-2" data-name="Layer 1">
    <path d="m22.3369049,61.2118071c-.3180892.5591573-.4258829,1.1321598-.5332168,1.7128017-.1378377.7457103-.3312416,1.4811888-.5030474,2.220526-.0142216.0611809-.0623635.1168308-.067566.1773905-.0385345.4487354-.0675689.8982712-.1048551,1.3471261-.0278817.3356437-.0665356.6703854-.0949997,1.0059873-.0270873.3193793.0488736.6449526-.0845799.9597627-.0412611.0973411-.0106259.2256937-.0107185.3398486-.0006003.7502497-.0242651,1.5014551.0061103,2.2504624.0281565.6942055.0650693,1.3890323.1066947,2.0820313.0422078.7026632.1269012,1.4053265.1955662,2.1070997.0473177.4835517.0078425.9759374.0985894,1.4442223.1007337.5197896.0713707,1.0320771.0704867,1.546724-.0007705.4494522-.0371995.90207-.1009965,1.3471141-.046583.3249222-.2100834.6047069-.5668982.7453399.6573226.5017453,1.1208172,1.1496127,1.4443477,1.8830426.2736565.6203501.5077899,1.2580516.6143771,1.9416492.0788847.5059443.143721,1.0110763.2078465,1.5181554.0572925.4530837.0542762.9012696.0695251,1.3519045.0229182.6775709-.0538999,1.3427897-.1738963,2.0124525-.0979921.5468948-.1936847,1.0943272-.3154611,1.6360613-.1667109.7416128-.3772393,1.4738003-.6965947,2.1640458-.1867979.4037472-.4445125.774691-.6617486,1.1457423,0,.9623012-.0480971,1.9114738.0171304,2.8527861.0425453.6140068.0145501,1.2322544.0939246,1.8383889.0549033.4192649.0239635.8421733.0952506,1.2512245.0786936.4515905.0036853.9150791.1009308,1.347819.1179836.5250338-.0213115,1.0672458.1679652,1.5768814.0107155.0288493.0023772.0647348.0030522.0973471.0244055,1.184208.0815665,2.3680577.1286214,3.5507486.0451853,1.1357077.0076036,2.2741152.096266,3.4045668.0456452.5820277-.0160075,1.1746872.0963376,1.7390349.1046699.5257864.0128777,1.0557658.1525669,1.5791392.1060257.3972486.0680438.8309203.1205699,1.2450246.0559605.4412215.1345286.8801254.2185859,1.3170822.1135756.5903898.2407694,1.1781754.3640749,1.7666658.0974008.4648504.186762.9317555.2993043,1.3929625.18325.7510381.4072473,1.492866.5687438,2.2482763.2025008.9471777.5593663,1.8428805.852172,2.7599665.4480485,1.4032718,1.0171806,2.7602771,1.567486,4.1249995.3842993.9530192.7816077,1.903052,1.0559928,2.8964483.2186516.7916064.4495119,1.5807997.6339684,2.3805292.1106906.4799022.1392353.978464.2108868,1.4677318.0923059.6303368.2157667,1.257293.2784169,1.8903893.0463859.4688045.0327855.9455769.0179248,1.4179174-.021849.6946535-.0329826,1.3926758-.113259,2.0817386-.1174938,1.0085437-.349919,1.9986072-.6075023,2.9810372-.1805382.6885731-.3927809,1.3690826-.6598133,2.0276237-.3928227.968752-.8611494,1.8993249-1.6459884,2.6240342-.2126249.1963307-.4484009.3676587-.6743515.5494751-.1366968.1099978-.2749048.218132-.3790849.3006661-.0974785.8426631-.2183231,1.6268272-.4062678,2.401339-.0934408.3850997-.1661195.7780597-.209949,1.1717246-.0741422.6659356-.256753,1.3089231-.422341,1.9510984-.2373887.9206339-.5586376,1.8179375-1.0309901,2.6539229-.3248625.5749438-.6930468,1.111362-1.1283998,1.6122651-.5452672.6273982-1.1852653,1.1251834-1.8804802,1.5642665-.5553615.3507313-1.1636999.6204456-1.7920568.7480039-.5912081.1200204-1.2293187.1054225-1.8236775-.0906693-.6780935-.2236987-1.3726037-.4299684-1.9251131-.9154852-.4011669-.3525232-.8290478-.6894451-1.163455-1.0998103-.5549404-.6809516-1.051761-1.4155402-1.4281133-2.2116263-.4808071-1.0170731-.8312607-2.0858838-1.1061864-3.1779413-.1504884-.5977604-.3091776-1.1935617-.4505512-1.7934723-.0907529-.3850877-.1515366-.7771399-.2350593-1.1640553-.1104965-.5118695-.1598898-1.0336301-.2777151-1.5456787-.0855774-.3719114-.0771466-.7652657-.1131395-1.1488243-.0314476-.3351181-.0502265-.6727328-.1077908-1.0034667-.0229122-.1316318-.1230934-.2568964-.2088978-.3691638-.2343246-.3065435-.4762199-.6074844-.7214631-.9054268-.4938998-.5999584-.7956919-1.2936324-1.0550162-2.0201695-.2351548-.6588278-.3852251-1.3368287-.5345786-2.0140651-.0892089-.4045237-.0788578-.8309083-.1143759-1.2473779-.0286433-.3358229-.1012175-.674238-.0797358-1.0066802.0444507-.6879758.076167-1.3765727.1594597-2.0639751.0903139-.7453877.2492809-1.4728088.4178344-2.1989995.1928037-.8306455.4762498-1.6350698.7677206-2.4373439.566492-1.5592732,1.1463127-3.1156196,1.6432169-4.6974944.2610058-.8309083.5625708-1.6446385.8435799-2.4669338.2246604-.6573943.4407167-1.3179901.6454663-1.9818351.1861259-.6034705.3436803-1.2157213.5283817-1.8196458.3369368-1.1017336.705357-2.1943047,1.0198804-3.3022502.1811176-.63803.2824337-1.2987333.4194292-1.9492706.1272058-.6040439.2657602-1.2060332.3764628-1.8130875.0602521-.3304114.0822564-.6688265.1055419-1.0047449.1135965-1.6387611.0991957-3.2804609.1046072-4.921659.0005913-.1794034-.0046947-.3592488.0062268-.5380668.0087145-.142622.0413178-.2836074.0570834-.4260143.012373-.1118135.0382448-.2288833.0186595-.3364202-.1526356-.8380759-.0074065-1.6882529-.0970424-2.5243458-.1339134-1.249122-.0498831-2.4992355-.0909232-3.7480708-.1871055-.5595933.0132092-1.1606388-.1831992-1.7196467-.0102914-.0292913-.0021084-.0648303-.0039123-.0973829-.0339472-.6127644-.0631072-1.2258634-.1050163-1.8380783-.0140812-.205768-.067327-.4085614-.0906036-.6140904-.0233244-.2059113-.0183101-.4071279-.077714-.6178176-.0807005-.2861877-.0424408-.5989789-.10421-.9040052-.08478-.4186437-.0975262-.8527215-.2042508-1.2715803-.0234946-.0922103-.0081023-.1948614-.0071616-.2926743.0022189-.2307588-.0727266-.4349379-.1916658-.6309939-.5890399-.9709261-.9938025-2.019835-1.2707142-3.1164438-.1548844-.6133378-.2786857-1.2355993-.3889642-1.8587208-.0640748-.362056-.0437249-.7395701-.1137547-1.0999537-.1660658-.8546209-.0841349-1.7142352-.0893553-2.5716754-.0045185-.7420727.2104328-1.4393543.4738696-2.1266492.2581119-.6734137.6597118-1.2430535,1.1765686-1.7375238.3154342-.3017711.669158-.5498634,1.0593227-.7460865.1413886-.0711019.2815139-.1447185.4332655-.2228804-.2671698-.7115689-.3666074-1.4321569-.5059234-2.1446755-.0952356-.4870877-.1507064-.9767557-.2146019-1.4672181-.0482047-.3700299-.0188536-.7448263-.0903079-1.1035613-.1252676-.6288854-.0305486-1.2624058-.0949041-1.8881316-.1719551-1.6719349-.0586006-3.3469816-.0800614-5.0202365-.0215444-1.679628-.0706151-3.3632758.0177277-5.0385495.0711288-1.348918.067766-2.6947479.0670911-4.0416172-.0004539-.9109578-.1803322-1.8058483-.4966952-2.6606723-.114134-.3083951-.3271442-.5838733-.5166627-.8595068-.1456831-.2118723-.3183639-.406662-.4911314-.5981427-.4021644-.4457251-.8083127-.8879739-1.2189347-1.3259221-.5890817-.6282822-1.2057166-1.2321887-1.7709932-1.8809999-1.0564139-1.2125198-2.13465-2.4085543-3.0079662-3.7696212-.5367378-.836499-.9624416-1.7297171-1.3906121-2.6213046-.5835776-1.2152076-1.063683-2.4757678-1.4340593-3.7696272-.212613-.7427477-.4045416-1.4961809-.5389627-2.2627547-.122759-.700077-.3252896-1.3857949-.4700977-2.082527-.0906066-.4359473-.1352573-.8812603-.2081034-1.3211259-.0908754-.5486986-.1994098-1.0946557-.2806119-1.6447102-.0396365-.2684719-.0387584-.5392853-.0878083-.8118756-.0851264-.4730841-.0579854-.9653653-.1252019-1.4429411-.0759281-.5394436-.0329169-1.0912511-.1795258-1.6219951-.0084517-.0305904-.0027595-.0649647-.0046022-.0975203-.0356674-.6290019-.0406787-1.2617309-.1163709-1.8858828-.0685157-.5650107-.0875216-1.1279758-.0765642-1.6932553.0152848-.7883989.0797747-1.5730886.1734394-2.3571033.0436682-.3655024.0444238-.7361834.1083373-1.1027759.068223-.3912787.1017103-.7870221.1842922-1.1783068.1019014-.482829.1383394-.9791001.2171554-1.4672898.0631788-.3913414.1436553-.7800457.2231313-1.1685559.1174221-.5739761.2294417-1.1494276.3646304-1.7192973.1495088-.6302204.3124567-1.2576902.4875237-1.8813135.3201528-1.1404353.6610258-2.2751157,1.0743208-3.3858207.2320609-.6236501.4752762-1.2438927.737596-1.8553162.2256131-.52587.4682908-1.0460508.7337883-1.5528403.5277306-1.0073476,1.1514823-1.9540012,1.8238418-2.8725132.6827435-.9326993,1.4486841-1.787265,2.2929868-2.5705017.7196742-.6676215,1.5094439-1.2489309,2.3475735-1.7621831.8446222-.5172287,1.7380076-.9289169,2.6818912-1.229259.4081194-.1298638.8248906-.2151171,1.2468463-.2963656.6970666-.1342195,1.3950769-.110822,2.0832229-.0614541.8048812.0577434,1.6073852.1968683,2.39361.410195.6749129.183123,1.3368496.4037532,1.9583137.7169714.5688424.2866969,1.117756.6185761,1.6526691.9656505.7946884.5156294,1.5726227,1.0632962,2.2758773,1.6969436.5410592.4875058,1.0123306,1.052297,1.5165069,1.5809326.6581409.6900753,1.1681707,1.489887,1.6835164,2.2842603.6348106.9785327,1.1565712,2.0185687,1.567916,3.1085566.3457618.916199.6723087,1.8413903.9610588,2.7768909.2981754.9660343.551697,1.9464365.8030744,2.9261189.1533494.5976469.2726948,1.2044026.3944712,1.8096501.1064677.5291462.2061861,1.0601948.2875256,1.5936564.0555544.3643795.0286283.7465047.122087,1.0985232.099796.3758506.0570118.7597049.1589281,1.1369501.1031767.381925.064908.7996907.1226903,1.196796.0902213.6200007.0374145,1.2532463.1846417,1.8667962.0037271.0155356.0011946.0325197.0020726.0488019.0348282.6454603.0583557,1.2917718.1067425,1.9362138.1463312,1.948969.100011,3.9006587.087205,5.851536-.0044558.6783922-.0250087,1.3613746-.1118195,2.0327396-.0500234.3868258-.0098972.782414-.0942232,1.1524798-.1191961.5231165-.0201766,1.056823-.1609649,1.5783448-.0948324.3512749-.0889849.7317933-.1108698,1.1002523-.0412193.6939308-.0332394,1.3929804-.1151584,2.0816371-.0689099.5792502-.1801679,1.1569356-.3450451,1.7230453-.2870597.9856016-.5330495,1.983191-.8220027,2.9682073-.2265598.7723317-.4800396,1.5374182-.7447964,2.2976367-.1509602.4334805-.3349867.8569802-.5278531,1.2739993-.3984313.8615077-.9262425,1.6403977-1.535459,2.3681413-.7654867.9144221-1.5359428,1.8257621-2.2690323,2.7658857-.5375949.6894212-1.1190552,1.3367033-1.6954145,1.9916666-.5505741.6256481-1.1038241,1.2531-1.5263503,1.9837763-.2986831.5164925-.4888437,1.0626228-.6024731,1.6418432-.0427185.2177616-.0478732.4521878-.1365893.6490799-.0939604.2085095-.0500174.3688652.0725773.5587511Zm-2.8748442,75.9988219c.0271261-.0132719.0542552-.0265438.0269888-.0132002.0137318-.0272486.0002658-.0005256-.0132032.0261973-.0275711.0143112-.0551422.0286224-.0273143.0141798-.0140334.0281804-.0002509.0005017.0135287-.0271769Zm.407334-57.369654c-.0425184-.4019732-.0569431-.703159-.1088778-.9977327-.1430998-.8116396-.1962889-1.628858-.1915195-2.4513743.00066-.1140773.0315162-.2466886-.0150877-.3384987-.1028123-.2025306-.0639195-.41064-.0846396-.6170052-.0206186-.2054096-.0645586-.4083762-.0945995-.6129615-.0347267-.236445-.0717888-.4728243-.0964302-.7104101-.0397081-.3829315-.0486705-.7702172-.1089316-1.1495829-.1188556-.7482308-.1858303-1.4988329-.1876819-2.2560172-.0015948-.6522814-.0110738-1.3045569-.0091237-1.9568145.0030432-1.0162548.0086219-2.028012.1858094-3.0393869.1066678-.6088581.2310096-1.2169398.3148668-1.8307555.0235663-.1724987.0817786-.3418675.0909918-.5144378.0361871-.6777859.0180861-1.3551537.0741033-2.0358843.0619633-.7529913.203104-1.4891866.3432144-2.2219654.2152649-1.1258345.7439452-2.1254785,1.4861195-3.0050186.3852131-.4565002.7785256-.9062451,1.1588947-1.3667114.5537697-.6703795,1.0847107-1.3601352,1.652027-2.0186763.6131945-.7117899,1.2621191-1.3926937,1.8848823-2.0964201.2335541-.2639146.4479948-.5465663.6528011-.8337634.6923002-.9708186,1.0556225-2.0966351,1.446719-3.201397.3683336-1.0404393.6603987-2.1080674.9785476-3.1659835.1454412-.4836174.2723305-.9727957.4087824-1.4591308.1461699-.5209722.2356566-1.0501393.3164586-1.5862111.0641554-.425638.0882323-.8564785.1544066-1.2821464.0836869-.5382579.0423243-1.0923621.0915234-1.6420462.0908784-1.0155201.11216-2.0397667.1114193-3.06034-.000884-1.2162798.0821041-2.4344589-.0761431-3.6497144-.066443-.5102329-.0400426-1.0292579-.0836869-1.545831-.0676794-.800969-.1239864-1.6023799-.2076853-2.403104-.0616169-.5894759-.142186-1.177363-.1930814-1.7663611-.0524962-.6075441-.1198352-1.2105756-.2056067-1.8140014-.0941575-.6624384-.1797916-1.3254115-.2875197-1.9864343-.1226723-.7527942-.2467304-1.5040085-.3909651-2.2534429-.1409197-.7322054-.3277534-1.4515063-.5255236-2.1671517-.1892707-.6849057-.426743-1.3576683-.6682232-2.026677-.3275145-.907377-.6538344-1.8166713-1.0271136-2.7056366-.3964303-.9440837-.9533119-1.804146-1.5084255-2.6630824-.6498325-1.0054975-1.3555957-1.9647898-2.2436711-2.7745913-.4049537-.3692579-.8270737-.7209494-1.2556146-1.0627975-.7769816-.6197976-1.6011465-1.1670075-2.5307159-1.5361877-.9043845-.3591786-1.8529181-.5612314-2.81131-.6780024-.9583053-.1167651-1.8680535.1344794-2.7397869.5387626-.7269104.3371175-1.4242637.725232-2.0542422,1.217673-.5209483.407216-1.0370705.8294047-1.4998782,1.2995471-.4039503.4103578-.7367926.8920504-1.0901521,1.3506247-1.1783187,1.5291501-2.0444077,3.2250424-2.6704231,5.0465727-.3746799,1.0902118-.7040848,2.1934327-1.0161831,3.3040869-.3081233,1.0965222-.5869195,2.2005554-.8223879,3.3112425-.1905817.8989372-.3947012,1.797737-.5339156,2.7107644-.1146477.7519072-.2606772,1.5011385-.3822954,2.2539327-.0518452.3209114-.0235603.6499281-.1034574.9541272-.0722487.275075-.0552766.5426361-.0794372.8135121-.0241635.2708641-.0881816.541328-.0834629.8110692.0204245,1.1674898-.0766568,2.3354574.0690234,3.5035026.0756354.6064809.0320628,1.2239908.0955492,1.8387323.0724757.701839.1190169,1.4066405.1984302,2.1095546.0592725.5246097.116777,1.0469378.2029428,1.5686507.0880173.5329062.198254,1.0610101.2905778,1.5921841.1710801.9842757.3603627,1.9636296.5987071,2.9336598.1962979.7988993.4184795,1.5896157.7218633,2.3558371.2854261.7208688.5406292,1.4550632.8575327,2.1616925.2731488.6090791.5905361,1.2018342.9322991,1.7756371.3428321.5756127.7252738,1.1294959,1.1176545,1.6732011.3666015.5079751.76055.9970518,1.1580734,1.4816368.3993929.4868667.8248279.9523144,1.2266339,1.4372638.565184.6821342,1.1317268,1.3638324,1.6731563,2.0646739.3316328.4292756.6435251.8786441.9181014,1.3461107.5317414.9052954.7318291,1.9244292.8735522,2.9444409.0952326.6853895.0869989,1.3860936.1086628,2.0804485.0152489.4887422-.0102167.9787746.0056534,1.467469.0341862,1.0527614-.0770809,2.1069385.0821728,3.1601539.0741422.490325.0398336.9952121.0934557,1.4954045.0657024.6129138.0097001,1.2380064.0262003,1.8572992.016348.6134155.0653918,1.2258992.0860731,1.8392669.0497994,1.4768286-.0554737,2.9546248.0821758,4.4329705.0838512.9005887.0039451,1.811875.1062796,2.7183829.083221.7371988.0838034,1.4837035.1225768,2.2260091.0006511.0124775.0209202.0239276.0310713.0348282,1.7111592-.3372683,3.3692547-.3105334,4.9578132.7727617Zm3.1866648,66.9693714c-.1844565,0-.2642192-.0048859-.3432233.0008004-.5455449.0392661-1.0379844-.1253841-1.5151928-.37221-1.1406414-.5899358-2.047427-1.4426574-2.8042619-2.467113-.5459869-.7390444-.8871078-1.5769889-1.1701925-2.441728-.330274-1.0088902-.5066162-2.0437268-.4855258-3.1068513.0043961-.2215365.0678138-.4412453.0878262-.6632597.0653649-.7251633.2619913-1.4048367.6879011-2.0039948.3551722-.4996608.8076885-.8417433,1.4240576-.9969323.454126-.1143341.902294-.0924731,1.348258-.0673509.290536.0163778.5866.1194589.8533248.2760456.6083146.3570985.7800069,1.0802907.3659862,1.6579582-.1682101.2347129-.3708393.4041653-.5966912.5460705-.4963428.3118594-1.0378649.4431447-1.6175512.2795458-.2875734.555902-.4032126,1.1413462-.4161978,1.7571688-.0126238.5987041.0824714,1.1827268.2033877,1.7624011.1440764.6907114.4351858,1.3220278.8131806,1.9198001.4305.6807963,1.0021288,1.2338432,1.5932771,1.7595699.4002411.3559517.836941.7003875,1.3924249.7869116.4232548-.1057211.7097471-.367372.915981-.7329998.1100276-.1950644.2459599-.3762239.347267-.575326.1148717-.2257893.2741164-.3958032.5064998-.4918242.0474849-.019639.1100216-.0028431.2119022-.0028431.09141-.387011.228716-.797209.2786021-1.2177641.0845769-.7130621.2686571-1.4072259.3236261-2.1284351.059837-.7849644.1804188-1.565485.1716087-2.3561477-.0035897-.3218342-.0255164-.6391051-.0775647-.9599717-.0640061-.3946086-.0369964-.7986544-.0928972-1.2021866-.0766209-.5530828-.1505779-1.110478-.2005297-1.6663083-.0574239-.638902-.1768529-1.2633735-.3166437-1.8826365-.2330822-1.0324833-.5339036-2.0469163-.9181611-3.0366334-.3604314-.9283151-.7035413-1.8639411-1.0290429-2.8050862-.4020807-1.1625621-.7924724-2.3296278-1.1600953-3.5034668-.2261417-.7220932-.4204774-1.455762-.5927372-2.1927279-.2233195-.9554084-.3710274-1.9298347-.6243101-2.8765345-.2495078-.9325798-.4395998-1.8771414-.6421663-2.8182147-.1573005-.7307779-.2298539-1.4821027-.3032942-2.2279085-.0644182-.6542047-.1102516-1.3096041-.1919615-1.962889-.0537416-.4296817-.0408609-.8659098-.0908515-1.3009911-.0697969-.6074485-.0341772-1.2239759-.0973471-1.8384964-.0859387-.8359973.027162-1.6821725-.1021135-2.5238919-.080351-.5231822-.0342399-1.0599827-.0908246-1.5937968-.07947-.7497241-.1522145-1.5034739-.2015331-2.2559814-.0558261-.8516942-.1071367-1.7021221-.2006491-2.5511524-.0510269-.4632616-.0550795-.9323887-.088752-1.3986965-.0793476-1.0989024-.0821818-2.2033597-.1140265-3.3056309-.003757-.1300549-.0159089-.2649121.0111754-.38989.083663-.3860314.1927678-.7665319.2763652-1.1525753.0950744-.4390354.2704759-.8199779.7122379-1.0803146h.5687289c.0563697-.1747086.1128707-.3356915.1602989-.4993143.1916509-.6611453.309306-1.3320145.3269053-2.024028.0279564-1.0990936-.1007516-2.1777836-.2778883-3.2614192-.1060228-.6485663-.2769774-1.2649623-.4821361-1.8825708-.1251272-.3767077-.3286882-.6862436-.5941408-.9720132-.409983-.4413469-.8877917-.7904775-1.39792-1.1049769-.4309092-.2656527-.8833717-.4230876-1.3956891-.4270238-.5659545-.0043483-1.1192045.098906-1.66308.2162803-.5612149.1211134-1.0811718.3746351-1.5078162.7841581-.6872232.6596341-.9505882,1.5119674-.9957497,2.4162594-.0393766.7883929-.0815516,1.5844193.0716843,2.3762884.0849651.4390712.0689875.8969811.1129454,1.3449758.0247877.2526556.0588275.507784.1238759.7524477.1418574.5335154.2927968,1.065442.4641247,1.5901413.3758087,1.1509507.9747787,2.1800772,1.7474866,3.1343388.0462127.3752204.0498024.7562226-.3799749.9681308,0,.0595264-.0113337.1115866.0016575.1566226.3351509,1.1616781.5792054,2.3389934.7026214,3.5448474.0256299.2504098.0157686.5216292.0974904.7573217.1290126.3720906.0700626.7594958.1594299,1.1360542.0800195.3371728.0500831.6999814.0943755,1.0534961.0719202.5739761.0296437,1.1589783.1019552,1.7403251.0755548.6074007.0152489,1.22308.0919326,1.8393446.0995899.8004105.0866854,1.6150963.1152659,2.4238928.0103601.2931521.0055996.5871166-.0006272.8805316-.0272008,1.2817701-.0792819,2.5635164-.0777946,3.8452148.0007914.6823612-.0706301,1.3575071-.1338358,2.0315898-.0249878.2664411-.039302.5434544-.0929749.8086531-.1476004.7292488-.3127763,1.4549497-.4727706,2.1816779-.1461639.6639406-.2754573,1.3323849-.4468808,1.9897911-.222982.8551585-.4786658,1.7018354-.7231206,2.5513435-.3491634,1.2134277-.6910936,2.4290534-1.0542935,3.6382762-.3638927,1.2115283-.8339754,2.3856182-1.27055,3.5721318-.5561977,1.5116449-1.1150622,3.0239229-1.6184352,4.5564731-.4061394,1.2365191-.7446172,2.4801938-.9715921,3.7605782-.0450838.254328-.0344131.5135897-.1007785.7585043-.1097051.4048821-.1356247.8201331-.161834,1.2317169-.02649.4159678.0022518.8323538.0612526,1.2531836.0619335.4417829.1244523.8806749.2045316,1.3209288.1406867.7734725.4451427,1.4838946.7511636,2.1946153.1116105.2592258.3023624.484382.4479888.7110552.2072433,0,.3699493.0060446.5317922-.0031418.0600848-.0034046.1167352-.0475327.1773397-.0646034,1.1099882-.3127195,1.7436878-1.1267005,2.2183608-2.1073267.2020259-.4173655.2648822-.8769478.3776365-1.3198417.0458901-.1802515.0223358-.390977-.0170259-.5778466-.1427892-.6779293-.483707-1.2456099-1.0242765-1.7255958-.1588953.0363633-.3279326.0750321-.5593992.1280002-.1869114-.1311898-.4244853-.2667398-.622799-.4457609-.2042508-.1844087-.2776553-.4452233-.1672425-.706683.150572-.3565012.4175537-.5995642.7989919-.7130263.4592627-.1366132.9160318-.1244881,1.3714001.0032015.8057174.2259446,1.4534893.6498923,1.8301193,1.4335904.3329529.6928139.4221021,1.4310938.4461043,2.1826814.0049456.154986-.0799807.3121342-.0793476.4680878.0024011.590115-.199801,1.1270828-.4324502,1.6491899-.2552598.5728413-.6284703,1.072287-1.0174046,1.5674203-.3470281.4418068-.765642.7860157-1.2107667,1.1002643-.5479132.3868318-1.1520736.6689699-1.882523.7238373.0454392.3659265.1183539.6978072.1216211,1.0303808.0077559.7901251.098022,1.5696302.1914478,2.3528745.0812321.6809635.1843938,1.3557032.2985338,2.031327.1321962.7825036.3329081,1.5448425.5642641,2.3010652.2488269.8133479.634058,1.5651744,1.1033672,2.267772.3116802.4665945.6527981.923919,1.0423058,1.3257071.5838882.6023237,1.3243124.9255437,2.1673339.999202.109057.0095328.215686.0468876.4093229.0908485.3052951-.1382259.6750204-.3164705,1.0531795-.4745505.7407049-.3096375,1.2559551-.8619438,1.707659-1.5039159.482169-.685264.8109348-1.4386794,1.0677207-2.2268573.4066441-1.2481424.6840157-2.5306054.9767796-3.8082662.1767872-.7715014.3333262-1.5477693.4902653-2.3236548.128263-.634064.4023316-1.1731939,1.0413053-1.5997339Z" stroke-width="0"/>
  </g>
</svg>