<?xml version="1.0" encoding="UTF-8"?>
<svg id="Layer_2" data-name="Layer 2" xmlns="http://www.w3.org/2000/svg" viewBox="0 0 105.5135278 260.7245595">
  <g id="Layer_1-2" data-name="Layer 1">
    <g>
      <path d="m63.9084922,66.4767673l-.0342694-.7715643c-.1171545-.0532418-.2420431-.1587638-.3671166-.15903-.9126164-.0018887-1.7977396-.2212798-2.6301243-.5242633-1.3399816-.4877026-2.3803564-1.351534-2.8699487-2.7814395-.1482749-.4330531-.3106828-.8422108-.3210927-1.3060524-.0040905-.1820791-.0891368-.3623428-.1357876-.5376894.0272129-.2825309.0883876-.565778.0752846-.8455569-.0448534-.9577522.0347819-1.9029553.1533142-2.8535979.088497-.709813-.0280404-1.4489814.0924809-2.1500249.1421027-.8267879.0280919-1.6337265.0039867-2.4473953-.0110727-.3735497-.083773-.7678479-.2305654-1.1088039-.1647865-.382749-.3922801-.7199648-.8071491-.961907-.805632-.4698185-1.6335138-.8581998-2.5080193-1.1800301-.8222558-.3025967-1.6109263-.6981582-2.4082348-1.0661519-.4748484-.2191659-.9358595-.4680844-1.4065529-.6965097-.950029-.4610418-1.8468878-1.0003679-2.6397051-1.7069354-.3590912-.3200352-.776653-.5777108-1.1173543-.9145805-1.6373207-1.6188824-3.3160051-3.2002873-4.5886517-5.1482127-1.0647916-1.6298071-2.0745887-3.2870025-2.6836213-5.1488785-.1900518-.5810358-.262953-1.1993014-.4209856-1.7921247-.3409723-1.2790711-.2624309-2.5926015-.2906141-3.8896822-.0177495-.8166705.1573486-1.6456938.313168-2.4562499.3107326-1.6164655.9653886-3.0816431,2.1001511-4.2980514.8777561-.9408993,1.9682262-1.5673098,3.1684725-1.9937619.7102159-.2523432,1.4343002-.4706099,2.1936819-.5533081.2997485-.0326469.5895328-.1567649.8845237-.2394121.3595713-1.1758182.6780785-2.3851681,1.1006882-3.5569745.5334278-1.4790709,1.1688033-2.9089867,2.2072138-4.136341.6318726-.7468363,1.1662765-1.5784577,1.7193883-2.3890932,1.0003886-1.4661491,2.1996818-2.7176949,3.7671054-3.583371.6512233-.3596594,1.3312409-.6089188,2.0938699-.6287253.8381665-.0217662,1.6709902-.0363634,2.5612598.1642223.5189672-.5797575,1.0416086-1.2226853,1.626612-1.8026832.7797507-.7730315,1.5766735-1.5386076,2.5628315-2.0569777.7572579-.3980577,1.5430467-.7128881,2.4105549-.7882877.3779633-.0328474.753126-.1768465,1.1267804-.1668235,1.3995461.0375362,2.6422976.5201755,3.7156805,1.4261477.6659026.5620414,1.2024892,1.242333,1.74944,1.9130784.1333025.1634935.2628593.3300306.4202869.5280573.3922943-.1995846.7609443-.3599508,1.1020769-.565895.9562846-.5773109,1.93733-1.0837288,3.0398937-1.3328431.5314793-.1200882,1.0441677-.3137379,1.6009718-.3181717.4366093-.0034769.8749832-.0225358,1.3090656-.0680743,1.1921362-.1250668,2.2597974.1506658,3.2368005.8634992.6558003.4784828,1.364912.88066,1.9779145,1.4236547.7273412.6442655,1.0807366,1.4671417,1.3227625,2.3870673.1373112.5218911.1431087,1.0412095.2083455,1.5620671.0411156.3280899.1287393.6503511.2106531,1.0488754.3898107-.0166171.798226-.0047512,1.1982359-.0570745.8791014-.114993,1.701094.1375885,2.5169372.3803803.4505343.1340823.8731284.3741948,1.2937324.5943503,1.0430604.5459284,1.5752455,1.5082962,1.9552285,2.5526193.2256905.6202782.3723524,1.2757414.3949648,1.9479832.0290661.8648396.1282713,1.7316331-.0354389,2.5917944-.0834298.4383152-.2053921.8692315-.3069691,1.3041914-.0262059.1122108-.0412583.2270327-.0697121.3872317.7626253.0550639,1.4782067.221328,2.1281344.5579708.6348944.3288455,1.2068198.7390141,1.6888551,1.3057683.5027323.5910432.9324367,1.1956553,1.1902127,1.9278873.329647.9363086.4387738,1.8705642.2981394,2.8735038-.1108417.7903154-.3560305,1.511859-.6793353,2.2975516.1510942.0822876.300391.1906422.4671618.2499182.8874841.3154324,1.6921479.7967186,2.387944,1.4061307,1.1291398.9889383,1.9486364,2.2250366,2.334176,3.68345.1879551.7109884.2614329,1.474705.2450905,2.2114082-.0192939.8694531-.2469598,1.7205809-.5393879,2.550129-.4712101,1.3367434-1.1727033,2.5462227-2.0007224,3.683454-.6921949.9506736-1.4731439,1.8398165-2.1238494,2.8167661-.6609039.992232-1.4428492,1.8705686-2.2518831,2.7310153-1.6968602,1.8046862-3.4996841,3.4950521-5.5178576,4.9398524-1.6953383,1.2136818-2.9045287,2.81576-3.786812,4.6784098-.4474627.944726-.8453718,1.9129132-1.2665921,2.8701014-.4543992,1.0326485-1.0902447,1.9477603-1.7483063,2.8612952-.4901748.6804952-1.1185191,1.1777011-1.7396913,1.7013097-.7405197.6242057-1.6423383.924745-2.5363825,1.229977-.3573401.1220093-.7395006.1713835-1.1504351.262723-.0798245.4605683-.1418057.972959-.2606613,1.4718181-.2452696,1.0295552-.5194882,2.0522426-.7843174,3.0771033-.3586251,1.3877091-.7520348,2.7674301-1.0701254,4.1643229-.2922608,1.2834303-.503539,2.5852854-.7524549,3.8786469-.1334194.6932226-.2751692,1.3848658-.404981,2.0787471-.0693143.3705377-.135494.7427074-.1781523,1.1169835-.1067972.9374905-.2451465,1.8684248-.4370436,2.7933881-.0862778.4158772-.0685294.8523511-.1171621,1.2772911-.050962.4450444-.1284809.886978-.1877236,1.3311619-.0500807.3755048-.1166661.7513688-.1299401,1.1286835-.0284574.8098394-.1989841,1.6031039-.2191309,2.418084-.0174395.7067905-.0959751,1.4240386-.1912779,2.1269173-.1047567.7726032-.0971239,1.5568954-.2868872,2.3238835-.1127744.4558098-.0370041.9552995-.1187812,1.4224079-.134687.7692951-.1222875,1.5526902-.2883949,2.3203989-.1344419.6213019-.1563194,1.2662481-.2453515,1.8982796-.1118042.7938964-.2354259,1.5862614-.3648296,2.3775125-.0987275.603729-.2246017,1.2030917-.3199254,1.8073015-.1138078.7215296-.2009466,1.4466903-.3219241,2.1679242-.1174037.6998903-.1488965,1.4141322-.2198421,2.1219017-.0330607.3298334-.0486372.663323-.1095502.988136-.1960123,1.0451431-.2733379,2.1074812-.4492779,3.1532281-.2729373,1.622295-.5136872,3.2510201-.9014119,4.854131-.3205653,1.325544-.5986181,2.6627207-.8491708,4.0034024-.194919,1.0429048-.3095348,2.1005616-.4765964,3.1490029-.136965.8594941-.3140685,1.7127065-.4444249,2.573091-.0992193.6547814-.1466152,1.3171948-.2288696,1.9747654-.0702879.5618497-.157887,1.121531-.2368568,1.6823065-.1052917.7477303-.1853872,1.5000028-.3212097,2.2421284-.1406339.7684733-.1192615,1.5534815-.2950489,2.3196886-.0999727.4358099-.0745764.8993776-.1205329,1.3488996-.0528482.5172101-.1129044,1.0340638-.1873078,1.5485462-.0578019.3996673-.0058855.7981821-.100603,1.2080164-.1216624.5262481-.0674829,1.0919514-.1032351,1.6397521-.0184554.2827027-.0822374.5625585-.0986989.8452616-.0151962.2610882.0559309.5277777-.0977007.7751471-.0327798.0527802-.0042335.1427673-.0064127.2155513-.0201702.6701587-.0073925,1.3434293-.0695539,2.0096851-.0864837.9270907-.1130644,1.8573422-.1860231,2.782319-.049446.6270777.0227123,1.2528666-.0528196,1.8657929-.1012812.8215923.0393901,1.6423898-.0465385,2.4485064-.0904913.8488848.0506872,1.6899188-.0279371,2.5234116-.0821216.870588.0479247,1.73955-.0382324,2.5946333-.0806575.8005418.0866657,1.6037417-.0418928,2.3747406-.1315952.7892032.1153881,1.5854647-.1449256,2.3536637-.007382.0217797-.0007413.0482418-.0010515.0725202-.0112739.8888932.0059844,1.7792784-.0397806,2.6663923-.0986124,1.9121725.0973175,3.8179743.0843235,5.7254896-.0048787.7174392.0323335,1.4462361-.0452939,2.1562784-.0632905.5791099.0479103,1.1716723-.076049,1.7159494-.1410477.619272.0030919,1.2315741-.141467,1.8499518-.139119.5949573-.0486618,1.2399434-.1069442,1.858459-.0577188.6123665-.0810875,1.2269459-.1645456,1.8397791-.0667099.489698-.0663478.9972635-.107252,1.4972088-.0348963.4263861-.0209099.85231-.0697548,1.2844961-.0912494.8073677-.0553211,1.6295061-.0653615,2.4455684-.0118177.9616223.0508579,1.9302435-.0476273,2.8825235-.0651097.6295358.0593754,1.2650707-.0585612,1.8639828-.1790252.908948.1245416,1.8248207-.1335852,2.7184115-.0257683.0891951.0009957.1931651.0010541.2902745.0009386,1.1313889.0013975,2.2627991.00198,3.3941861-.2709262.640689.0731721,1.3412218-.1916481,1.9835088-.0170827.041455-.0008896.096208-.0019566.1447313-.0164807.7428066.0449775,1.4984407-.073934,2.2245052-.1006743.6148085.0617824,1.2459152-.171424,1.8408323-.0164857.0420694-.0014048.0962309-.002186.1447771-.0137446.840082.0296808,1.6859206-.0537481,2.5190571-.1626166,1.6242846.0539386,3.2349147.0875338,4.8514457.022963,1.1045972.1872097,2.1932526.4183478,3.2752696.1742296.815604.220399,1.6622999.4382493,2.4639855.3902673,1.4361952.3859992,2.9012719.4763369,4.3640336.08177,1.3243727-.1463887,2.6081069-.4274997,3.886449-.4347809,1.9769681-1.3887268,3.7248067-2.4929841,5.3895439-.5837221.8799958-1.2642851,1.6865319-2.1794812,2.2744796-1.1128672.714953-2.2555784.6397374-3.2286775-.1589523-1.0357705-.85015-1.6003086-1.9882124-1.9585817-3.2467722-.1890199-.6640185-.282441-1.348679-.4159336-2.0232817-.2373846-1.1996092-.248119-2.4074515-.2368118-3.605627.0083945-.8891925-.0496514-1.7830357.0135306-2.6664014.0611221-.8547903.0588343-1.7161462.1701317-2.5641392.1296604-.9878809.2007885-1.979927.309964-2.9684825.0772221-.6993251.2676508-1.3853953.3824176-2.0815279.1190324-.7219397.203908-1.4533642.3213249-2.1709952.1090815-.666613-.105482-1.3468008.1614971-1.9877774.0086148-.0206773.001006-.0480933.0011919-.0723662.0074267-.9372338.0143374-1.8744625.0224224-2.8117077.0080837-.9368713-.0616786-1.8834766.0522462-2.807389.084052-.6816302.0459594-1.3448752.0203839-2.0140881-.0843893-2.2080202-.1912064-4.4151688-.2912349-6.6225833-.0589712-1.3012631-.35349-2.5839819-.3089846-3.8934548.1203251-3.5410227-.2801451-7.0667113-.30444-10.6017735-.006258-.9110618-.0450988-1.8316426.0242854-2.738498.0441588-.5771742-.0526145-1.1723713.0731995-1.7155736.1546667-.6677654-.1021396-1.3467001.1593216-1.989461.0170128-.0418257.0027397-.0962368.0035912-.1448039.0141819-.8156053.0211081-1.6314402.0459592-2.4467183.0115621-.3793839.0688027-.7572184.0854541-1.1366503.0156408-.3564932-.0903718-.7212197.0888432-1.0655557.0199609-.0383784.0032601-.0957436.0039258-.1442847.0118749-.8641389.0165837-1.7284937.0387961-2.5923619.0110247-.4281564.0674627-.8551254.0793507-1.2832845.0119222-.4291932-.0933528-.8634885.0801005-1.2844393.025577-.062038.0012777-.1441849.0020501-.2169775.0096027-.9126919-.0740984-1.8396474.0617463-2.7331833.0937212-.6164401-.0112896-1.2291627.1407282-1.846946.1399528-.5687715.0686913-1.1887966.0969553-1.7859512.0280427-.5925162.0801321-1.181721.1783622-1.7687916.0744054-.4446971.0695911-.9062059.0891968-1.3519939.0514391-1.1691955.2547841-2.3193956.3373885-3.4835308.0718854-1.0128729.2863253-2.0148804.4074981-3.0253138.0654054-.5455217.0527071-1.0999649.1023916-1.6479216.0448298-.4945297.134174-.9848592.1897638-1.4786207.0479827-.4261484.0827376-.8541126.1113243-1.2820699.0350736-.5250013.0320451-1.0537223.09101-1.575708.1157208-1.024362.1275636-2.0513557.1675632-3.0792974.0389421-1.0010487.0839451-2.0053219.1609353-3.0028622.0633326-.8206545.087533-1.6539909.2749451-2.4666979.079281-.3437427.0918751-.7036966.1245243-1.0572245.0911815-.9872578.2103206-1.9663221.4256191-2.9395812.1881666-.8506329.2217506-1.7342327.3608726-2.5972674.1460825-.9063277.3289101-1.8070241.509221-2.7074663.2586717-1.2917565.525784-2.5818584.796475-3.871149.2370142-1.1288463.4795792-2.2565683.7274859-3.3830677.3185781-1.4476424.6597829-2.8904773.9637892-4.3411397.3092519-1.4756497.5825117-2.9588156.8765055-4.437704.2206164-1.109648.4500879-2.2175262.6738834-3.326541.2100428-1.0406837.4214324-2.0811067.6253692-3.1229878.1541518-.7875792.3105671-1.5750988.4426864-2.3665328.1946197-1.1658793.3692405-2.3351162.5507859-3.5031653.0585143-.3764134.0688973-.765109.0881741-1.137136.0507062-.9790779.173091-1.9536044.2359069-2.9305854.0503025-.7825484-.1039926-1.5826151.1343161-2.3532458.0067858-.0219758-.0010757-.0482679-.000818-.0725262.0106656-.9619093-.0074802-1.9251827.0376868-2.8854823.1368465-2.9095225-.1594303-5.8048191-.2648106-8.7060931-.0231514-.6378815-.205281-1.2630052-.3197609-1.8929227-.1362454-.7496064-.3093083-1.4812261-.5749959-2.1927809-.1235775-.3309229-.234088-.6682565-.3812971-.9885343-.616185-1.3405226-1.3217305-2.6271672-2.267429-3.7722978-.3019682-.3656363-.5549938-.7716682-.8321787-1.1616997Zm8.5988342-2.4871161c1.1279269-.5706837,2.2132065-.9544263,3.4318245-.9121342,1.0054808.0349177,1.9887745-.1342982,2.9793838-.3608601.7165134-.1638646,1.4281403-.3207117,2.1135909-.5795164,1.3212466-.4988567,2.4422219-1.2392801,3.2408276-2.4623744.6029177-.9233782,1.0862388-1.8956617,1.5301543-2.8953998.6379938-1.4367013,1.323363-2.841264,2.201792-4.1578058.7172232-1.0749688,1.537249-2.0450635,2.5357092-2.8403776,1.3762128-1.0962405,2.8065895-2.1253416,4.2275733-3.1643109,1.2608885-.9218977,2.4646158-1.9074725,3.5175867-3.0639258.4048562-.4446294.7702648-.9256795,1.1458547-1.3963446.5999962-.7518738,1.2277847-1.4848476,1.7796397-2.2708689.5041692-.7181324.9662368-1.4719134,1.2836566-2.3007246.2499556-.6526999.4394525-1.3234765.2906873-2.0206819-.1322641-.6198882-.3060823-1.2358434-.5212655-1.8319853-.3555652-.9851599-.9878138-1.7911288-1.7710021-2.4762983-.4167473-.3645928-.8515895-.7089195-1.2849172-1.0540166-.3003203-.2391523-.6092353-.4677978-.9194023-.6941669-.3069098-.2239813-.6202312-.4392039-.9249429-.654177.0024987-.4451617-.0806977-.855728.0243487-1.2105711.2277733-.7693484.4742453-1.5341464.5253645-2.3347827.0367831-.5758942.0978862-1.1962352-.0672831-1.7300916-.4323359-1.3973512-1.34351-2.3912484-2.8182655-2.7553224-.762613-.1882574-1.4579483-.472654-1.9653335-1.2017215-.0569406-.2543104-.1503328-.5741791-.1977354-.900728-.1640582-1.1297027.0656193-2.2618013-.004064-3.3930076-.0029492-.0479622-.0103195-.1008728.0051762-.1439886.2794756-.7772703-.0409524-1.5180397-.2036284-2.2426637-.2230445-.9935827-1.0033638-1.531191-1.9319096-1.8368152-.7560287-.2488376-1.5299994-.0519077-2.2962138-.0386758-.3819568.3188999-.7879664.0525689-1.171921.017862-.3005717-.0271704-.5803778-.2196971-.7436864-.5136578-.1040618-.1873345-.2060908-.3757962-.3196184-.5830584-.0206614-.4651844-.0234478-.9519803-.0690474-1.434734-.0447886-.4741132-.1107151-.9487741-.2078379-1.4147638-.1263625-.606458-.2636979-1.2194784-.8352727-1.5993073-.3573751-.2375083-.720811-.4667787-1.0688835-.7172932-.8510267-.6124778-1.7806888-.8245922-2.8344854-.7605123-1.0122512.0615559-1.9754035.2694053-2.9217473.596367-.745692.2576462-1.4164083.68145-2.0450128,1.1339188-.7953518.572484-1.6191527.9128757-2.6281501.7835524-.6879515-.2343883-1.2702493-.6868998-1.8274255-1.1906586-.6081074-.5498213-1.2390556-1.0752001-1.8740101-1.5941835-.4205389-.3437447-.9200335-.5011588-1.462327-.4469865-.4252104.0424763-.8632128.0783175-1.26465.2107349-.7385534.2436124-1.4834963.5016904-2.0769721,1.0416399-.6037582.5493341-1.1856111,1.1237067-1.8049858,1.6545189-.3591305.3077588-.7540376.5863975-1.1682295.8136227-.3996282.2192393-.8579634.3147471-1.31901.2361767-.3700107-.0630623-.7290555-.1882569-1.097635-.262783-.3917707-.0792173-.7874444-.1709566-1.1842562-.1869139-.8501048-.0341883-1.5701652.3808898-2.2318382.830339-1.3510821.9177369-2.4002261,2.1453209-3.2767183,3.5124845-1.0157424,1.5844069-1.841203,3.2690392-2.4613229,5.0462384-.333247.9550477-.5847425,1.9326071-.7070811,2.9470534-.0631975.5240875-.083612,1.0803263-.4619713,1.5405442-.4748927.5776575-1.055702.8799255-1.7981689.8905338-.7912948.0112995-1.5546127.1196077-2.3202021.3743747-1.1692909.3891119-2.1357401.9774578-2.8491262,2.013763-.3584743.5207352-.6061145,1.0806708-.861446,1.6415934-.4589781,1.0083158-.5999623,2.0871491-.5933328,3.1853375.0032238.5337192.0462302,1.067109.0667042,1.600823.0303271.7906233.1936548,1.5677955.4324372,2.3072756.5709797,1.7682789,1.486456,3.3734837,2.5427585,4.8965331.6952852,1.0025292,1.4306105,1.9714493,2.3100064,2.8280463.9497416.9251271,1.8368599,1.9165146,2.8126206,2.8122025.540199.4958854,1.1743772.9132183,1.821525,1.2638303,1.3568905.7351302,2.7601108,1.3842644,4.125428,2.1045025.9278547.489469,1.84342,1.0008513,2.641069,1.7067813,1.203056,1.0647068,1.530149,2.4353111,1.4875226,3.956233-.25133.6409935-.0573132,1.3197174-.1762797,1.9824167-.1505114.838279-.0840715,1.715291-.2317697,2.5543797-.0771927.4384565.0264026.8750162-.0805564,1.2789853-.1222043.4615427-.0862359.907417-.0540088,1.3572405.0322019.4496555.1295784.8945024.1949019,1.3419569.1423579.9750069.5441731,1.7445151,1.5217272,2.1495029.6483108.268576,1.3262726.368635,2.001281.4170291.7875578.0564711,1.5833349.0098128,2.3766162.0251999,1.9548561.037942,3.9066843-.2111339,5.8689953-.0959313.7179016.0421452,1.3745532.118539,1.8981866.6715269Zm-11.1989357,166.1632804c.4404306-.0236565.8224608-.2908015,1.1673075-.6367796.7862522-.7887816,1.3353834-1.7565734,2.0028245-2.6348934,1.2209578-1.6066865,1.6932914-3.4752682,1.9288603-5.419444.0918248-.7579383.0419238-1.5331342.0545358-2.3005144.0178749-1.0889825-.1300396-2.1658482-.3102211-3.2328958-.0839875-.4973178-.1358644-.9955455-.2099543-1.4920745-.0731789-.4904455-.2414129-.9666463-.3153195-1.4570416-.0819761-.5438179-.1241995-1.0932468-.2000339-1.6394739-.1386312-.9985202-.2101585-2.0117171-.2861064-3.017027-.125205-1.657787-.2871838-3.3206522-.123056-4.9942809.0744962-.7596965-.0411902-1.5294071.0362336-2.3041521.083057-.8310905-.0622463-1.6732053.0410603-2.5205408.0893078-.7324403-.0161252-1.4793207.0344599-2.229054.0775318-1.1482794-.0319541-2.30666.0017666-3.4661495.056881-1.9547182-.2698209-3.9057155-.1104696-5.8700586.0716909-.8837792-.0886236-1.7708725.01802-2.6689329.0926415-.7800317-.043148-1.5766923.0436885-2.3751942.0824598-.758359.0140919-1.5332867.0327532-2.3019502.0331115-1.3655962.0616129-2.729973.1221666-4.0957734.0486739-1.0981835.0609697-2.196941.1507106-3.2947945.0525202-.6424353-.0126372-1.2885628.0491483-1.9404355.076606-.8083908-.0106225-1.6279836.0347288-2.4486584.0730164-1.3216877-.1596451-2.6456249-.0217706-3.9780442.0837358-.8089923-.0530691-1.6249055.0249821-2.4500591.101585-1.0740793.0276879-2.1646825.0305323-3.248173.0029012-1.1078645-.1065587-2.2087445-.0372963-3.3251642.0788213-1.2703542-.0829542-2.5514741.0048189-3.8319104.0590479-.8614097-.0321324-1.7367087.0727099-2.5899516.0559391-.4552348.0286279-.9054013.0811998-1.354683.0660566-.564528.137912-1.1287617.1856119-1.6949489.0440385-.5227648-.0107805-1.0651898.1120622-1.5660685.0829456-.3381909.0480584-.6635288.0974653-.9912754.1126189-.7470945.2069218-1.4969359.3107752-2.2453857.0647998-.4669685.1412545-.9324608.198645-1.4003108.0835845-.6817341.1480861-1.3658429.233623-2.0473076.0557311-.4438855.1415224-.8839434.2010632-1.3274284.0849444-.6326777.1627575-1.2663917.2352072-1.9006151.0779744-.6825887.0958644-1.3764301.2309279-2.0470633.1914315-.950676.2858369-1.9122457.428399-2.8681747.0973501-.6527757.2020303-1.3044529.3034665-1.9566179.1631729-1.0490163.3225629-2.0986301.4909357-3.1468092.1007663-.6271674.2112113-1.2528599.3252161-1.8777669.1606218-.8803945.3140297-1.7624803.4965509-2.6384088.3355478-1.6102821.6889568-3.2168357,1.0371193-4.8244737.174272-.8047354.4159731-1.6007962.5151685-2.4144361.1401324-1.1493152.3608261-2.2856791.4813597-3.4397672.107426-1.0287468.216955-2.0650551.4109459-3.0867694.1449239-.7632697.2026319-1.5470282.3976628-2.2960206.3865924-1.4847103.5886814-3.0030793.892417-4.5023213.2480327-1.2242669.3673372-2.4745668.6144522-3.699051.2534147-1.2558025.4288618-2.5158594.5489709-3.7905309.0451428-.4790645-.0016695-.9650733.0841453-1.4274475.1361776-.7337298.0783533-1.472079.1499424-2.2062424.0813008-.8337541.0433968-1.6791347.0573443-2.5194571.0007911-.0483241-.0170696-.1101596.0060632-.1428575.1891135-.2673709.0714057-.5643383.0947171-.8475326.0232664-.2826048.0819934-.5624409.102141-.8451208.0372941-.5235067.0032006-1.0582358.0970821-1.5702632.1762925-.9612547.1092808-1.941326.2865275-2.900736.124113-.6718825.1862113-1.3551902.308886-2.0273916.1517908-.831918.3850377-1.6511826.4985231-2.4873898.2126374-1.5670552.615186-3.0909274.9913748-4.6194858.2356933-.9577779.6045382-1.8821176.7876257-2.8567232.0630224-.3354367.1922531-.662029.1911419-1.0253352-.686501-.0790824-1.2695402.1695749-1.8743742.2658148-.3303393.0525468-.6760877.1505598-.9954016.1014282-.7471445-.1149488-1.4836707-.2237023-2.231647-.0299119-.0655599.0169758-.1412555-.0050662-.259218-.0115675-.2409266-.2518665-.5016039-.5243521-.7409812-.7746051-.7012549.1631068-1.3830029.3726036-2.0804138.4695462-.6945278.0965208-1.4055921.1181338-2.1078442.1024688-.6969784-.0155699-1.3920165-.1185199-2.1442979-.1883964.1444457.2111651.2167003.3737762.3371461.4834834.6970719.6349285,1.247273,1.3884731,1.7395212,2.1811578.6491456,1.0453104,1.2100968,2.1382873,1.5737694,3.3208137.258076.8391888.4497343,1.6900685.5859141,2.5616509.062231.3982703.120662.7991661.1716027,1.2009643.0539091.4253435.1732526.8473179.1823467,1.2725156.0313946,1.4711922.1996302,2.933832.0980966,4.4158952-.090279,1.317808.1400576,2.6455158.0164862,3.9769081-.0797088.8587758.0055447,1.732905-.0750975,2.5915086-.0426898.4545306-.0406983.9065961-.0753007,1.3580348-.0762777.9949452-.1936267,1.9866587-.2833511,2.9806701-.0750419.8311796-.088762,1.6706106-.2121438,2.4940302-.1714817,1.1445213-.3897654,2.2826385-.5827731,3.4242883-.2052289,1.2139986-.3716451,2.4316852-.5452673,3.6494605-.1200721.8422232-.2717466,1.6799664-.4111155,2.519406-.1276416.7687952-.264857,1.5360752-.3849519,2.3060395-.1638726,1.0504983-.2944734,2.1065863-.4779985,3.1535069-.2072416,1.1823107-.4578855,2.3570071-.68872,3.535203-.1765711.901273-.3442499,1.8043497-.5292297,2.7038866-.2560424,1.2451399-.528003,2.4870079-.7868478,3.731578-.2394264,1.1510907-.4883745,2.3006371-.6998859,3.456959-.182415.9973628-.3131076,2.0040889-.4760604,3.0051536-.0982572.6034945-.2211185,1.2029548-.3206479,1.8062655-.0922194.5590675-.1620584,1.1218053-.2525734,1.6811709-.1279214.7905533-.2721594,1.5784844-.3974639,2.3694377-.1033598.6525442-.192051,1.3074811-.2823247,1.962061-.0904056.6556183-.1714948,1.3125675-.2625803,1.9681092-.0910886.6554706-.2117163,1.3076246-.279026,1.965386-.0873889.8538029-.0899265,1.7185419-.2189314,2.5648647-.0624501.4096473-.0272967.814728-.0846872,1.2132377-.1460572,1.0143158-.2429773,2.0310957-.2908901,3.0542261-.0200262.4277017-.0686395.8544833-.115438,1.2804367-.0543513.4947924-.1378772.9868573-.1778103,1.4826115-.0461047.5722404-.039202,1.1489091-.0898616,1.7206041-.0837565.9450034-.2540658,1.8860537-.2785255,2.8315922-.0247532.9567671-.1103087,1.9053575-.1733515,2.8577902-.0602286.9097778-.0330487,1.8253401-.043713,2.7383818-.0008435.0727958.0257988.1547852.0008975.2170068-.1784399.4457574-.0635847.9041589-.0756957,1.3573581-.012747.476958-.0671248.9529167-.075468,1.4298215-.0121638.6949045.0278277,1.3850714-.0229913,2.0862502-.0673612.9293568.018364,1.8708203-.0429248,2.8108381-.0624549.9578541-.027685,1.9220536-.0353638,2.8834742-.0003887.0485644.0180209.106726-.002275.1441758-.1995646.3681515-.0631531.7581602-.0840379,1.1376733-.0209012.3797453-.0762128.7579213-.0893234,1.1377123-.0264628.7667669-.0345695,1.5341784-.0501209,2.3013152-.0004887.0242686.0072952.0510181-.0003594.0724717-.2731116.7662394-.0140663,1.5631223-.1491465,2.3526228-.1272161.7435058.1040229,1.5327938-.068752,2.2978879.1168915,1.8341507.0247905,3.674682.1120182,5.5059133.1832015,3.8461506.2029105,7.7002216.6112965,11.5374031.1991196,1.8709989.2242563,3.7616351.1396296,5.6494025-.0452082,1.00827-.017951,2.0197658-.02323,3.029805-.0002555.0485585.0182625.1057539-.0010566.1443531-.2215836.4427602-.0490925.9053845-.0748826,1.3574288-.0257984.4522583-.0722974.903994-.0803634,1.3564795-.0175506.9856609.0371469,1.9762663-.0467719,2.9554931-.0388481.4532474.0377018.9326124-.0921778,1.3484057-.1546598.4951709-.0075807.9914845-.1686722,1.4853389-.1359122.4166486-.0723256.8961444-.1149683,1.3461245-.0333608.3521353-.1007119.7009381-.141216,1.0525718-.0623287.5410413-.1358286,1.0820803-.165965,1.6252522-.0398211.717923-.0419155,1.4379267-.0618368,2.1569776-.0012928.0466463-.0170745.0927433-.024609.1393463-.1427967.883911-.289,1.767279-.4266332,2.6520109-.0798167.5130494-.1527906,1.0274504-.2130168,1.5430833-.0148449.1271097.0321189.2614078.0639351.4861384.2972245-1.1039357.3826489-1.2197781,1.1095298-1.56186.0705481.061062.1434207.124157.2314281.200341.0061056.1374659.0046023.2819812.0213853.4243669.0129573.1099595.0488305.21721.0745126.3256786.0840699-1.166212.0845469-2.318635.0828064-3.4710841-.0002222-.145489-.0120864-.2909594-.0217526-.5085915.1421223-.2046844.3149215-.4535817.4609923-.6639602l.9519294-.0422804c.15228.2344409.3432213.4769738.4785471.7473453.2878237.5750509.4131739,1.2058119.5124281,1.8328185.2060277,1.3014608-.0790857,2.5666467-.4291992,3.801892-.2311603.8155402-.501253,1.6766035-1.8336848,2.0212276-.4442059.094375-.9316043-.3169665-1.290593-.9523399-.2546147-.4506274-.3612961-.950658-.4356433-1.4623966-.0411269.0738729-.066016.1429835-.0633319.2110296.0437424,1.1070924.0338259,2.219541.290213,3.3074863.2557045,1.0850027.5733642,2.1356009,1.7685375,2.7917637Z" stroke-width="0"/>
      <path d="m27.6958967,260.6675996c-.2620504.0116391-.6025648.0144618-.9407416.0440622-1.0809064.0946157-1.9708299-.3388673-2.7196591-1.0526847-.798916-.7615107-1.423378-1.6645192-1.7615414-2.7272381-.1853863-.5826093-.2622368-1.1996091-.4451307-1.7832193-.1763887-.5628033-.1774915-1.1347449-.2127366-1.708428-.0367897-.5988404.0785455-1.1811698.1735559-1.7675812.098155-.6057954.1739832-1.2154592.2488394-1.8247594.1293271-1.0527024.313819-2.0950907.5195044-3.1356787.1324302-.6699999.1576555-1.3608203.2816149-2.0329542.1725754-.9357212.102522-1.8896838.2834912-2.8284125.1474629-.7648244.0919546-1.5676677.2236406-2.3369897.1317502-.7696809.1456105-1.5492399.296282-2.3187821.1496647-.7643526.1341217-1.5598027.2165772-2.3389013.0894962-.8456362.2255794-1.6865055.3064757-2.5327744.0338483-.3541864.0461386-.7077536.090734-1.0642689.1121042-.8963624.1039282-1.8073212.2040131-2.7057489.0923841-.8293151.1335041-1.6588811.1884857-2.4897928.0758709-1.1469951.1669462-2.2903573.12341-3.440505.2696409-.6916713-.0808405-1.4357145.178726-2.1305522.0316225-.0846485.0028679-.1925534-.0008901-.2895875-.0324113-.836946.0725276-1.663365.1644978-2.4929821.0657112-.5927472.0089183-1.201256.099119-1.7885397.0904396-.5887185.0196708-1.1846255.1625091-1.7705976.1063853-.4363262-.00164-.8942656.0961087-1.3542948.1175452-.5532139.0027075-1.1555129.1179149-1.7096554.1025324-.4932117.0167064-.9916406.165792-1.4818463.1226939-.4034218.0077247-.8437489.097085-1.280209.1183446-.5781015.0254347-1.1965421.1098756-1.7852433.084314-.5877521-.0087072-1.1908599.178269-1.7668826.0285467-.0879655.0101878-.1926827.0063746-.2893583-.0302053-.7650333.0806722-1.5172665.17546-2.2736273.0710809-.5672435.0458265-1.1458565.0922532-1.7170608.0420822-.517711.1279446-1.0317232.1854114-1.5483551.0472463-.4246915.0851566-.8505527.1200823-1.2764772.0660424-.8055361.0722168-1.6206611.204838-2.4148233.1448201-.8672132.1143904-1.7467237.2809043-2.6124971.1071518-.5571494.0593965-1.1431479.0953662-1.715312.017778-.2829218.0787023-.562989.1003728-.8458523.0217064-.2832565-.0033271-.5568889.0761111-.850596.1094917-.4048649.0100106-.8441887.0977272-1.28038.1117258-.5555723.0559706-1.1429246.1014833-1.7142663.0393629-.4941623.1068732-.9870825.1851976-1.4768156.0638566-.3992241.0190202-.7978576.1026693-1.2069866.1511001-.7390479.0998108-1.5180454.2324065-2.2626803.1456273-.8177762.1149474-1.6492091.2878463-2.4654195.1123604-.5304636.0649275-1.0939742.0994855-1.6420067.0224052-.3551024.0670299-.7087527.0954479-1.0635525.0284099-.3547816-.1273968-.7231357.0822597-1.0660822.0218576-.0357567.0054763-.0951477.0061475-.1435644.0119075-.8644074-.0356376-1.7348618.0518012-2.5915509.0923518-.9047957-.0659227-1.8185053.1404577-2.7137855.0106278-.0460996.0009257-.0967971.0012167-.1453571.0058248-1.0099744-.0180933-2.0212447.0259649-3.0295526.0441865-1.0112332-.0371527-2.0283024.0344448-3.0284161.1165474-1.6276147-.0841985-3.2354221-.1061861-4.8523441-.0105517-.776463.0078144-1.5649987-.1197412-2.3257794-.253189-1.5101463-.1459711-3.0445962-.3596277-4.5464757-.1571798-1.1049024-.0970385-2.2232669-.2860522-3.3100033-.2169745-1.247514-.1216863-2.5114609-.3117495-3.7472812-.162253-1.0549906-.0918338-2.1313351-.2981179-3.1606038-.1456378-.726598-.0159894-1.4926963-.3431272-2.1837283-.0193224-.040835-.0088525-.0958999-.0116909-.1443744-.0516581-.8828936-.1954835-1.7514571-.4036379-2.6102028-.0112698-.0465155-.0057972-.0968545-.0111959-.145055-.082682-.7384735-.0753781-1.502716-.2764968-2.2074631-.1726005-.6047715-.0284652-1.2523263-.3331839-1.8197729-.0105289-.0196134-.0046004-.0478621-.0071765-.0719945-.0865725-.8112371-.1213317-1.6323058-.2726233-2.4312865-.2034251-1.07432-.1356431-2.1695603-.3088999-3.2352154-.1127002-.6932573-.0684898-1.4031417-.2317-2.0716534-.1865375-.7640446-.1379353-1.5321687-.2291673-2.2941978-.0765002-.6389746.0953704-1.2310339.3158075-1.8088276.3593195-.9417991.8328804-1.8229993,1.5421277-2.6121971-.3025725-.0850439-.5824384-.0183874-.8569025-.0116801-.5096462.0124354-1.019172.0364015-1.5282531.0645669-1.5044144.0832332-2.767242-.5027029-3.962372-1.3532875-1.3732755-.9773739-2.0550839-2.403157-2.6249956-3.8998857-.3527401-.9263639-.6180649-1.8826642-.736173-2.8784465-.0665433-.5610952-.2218964-1.1134304-.3612392-1.6636282-.1299815-.5131841-.3716166-.9910294-.7419788-1.3600101-.4951694-.4933146-1.0360556-.943947-1.5811508-1.3833282-1.3635489-1.0990757-3.0278148-1.7077355-4.4544935-2.7062633-.7632282-.5341838-1.5356641-1.0554258-2.292989-1.597785-.8384221-.6004425-1.6823274-1.1956746-2.4895154-1.8364025-.5609521-.4452816-1.0827962-.9449597-1.5868593-1.4551387-.4026682-.4075389-.7451398-.8738467-1.1266704-1.3030909-.9477778-1.0662894-1.551429-2.3214187-1.9939185-3.6587878-.1624981-.4911514-.219502-1.0168342-.3763798-1.5103092-.2538695-.7985904-.1996845-1.6213843-.2443452-2.4355155-.0603641-1.10015.1012923-2.1913262.3150459-3.2600888.2588017-1.294041.6234814-2.5644699,1.2146053-3.7638042.5812026-1.1792132,1.3729054-2.1050037,2.6321574-2.5839721.4623238-.1758513.9119758-.3896997,1.3536326-.6134115.2499568-.1266038.4719981-.308348.5775722-.3789593.2768044-1.0390203.4900581-1.9324606.7541219-2.8106223.4914979-1.6345037,1.0819965-3.2335006,1.9854302-4.6921033.5277217-.8520066,1.1062267-1.6727023,1.6669081-2.5040978.2939694-.4359169.6210296-.8510772.8925893-1.3001427.2920497-.4829456.6915089-.8470777,1.1082048-1.2147259.530549-.4680991,1.0685413-.8750304,1.8117619-.9103553.1350839-.0064271.2664523-.090895.3591631-.1246538.8453645.0294698,1.6132222.2610567,2.37598.5066847.7314208-.8803695,1.5343295-1.6021618,2.4411876-2.2008745,1.1269664-.7440185,2.2539731-1.486125,3.5441602-1.940565.4752587-.1674.9794045-.2116888,1.4397664-.3615683.6833617-.2224663,1.3374323-.0280261,1.9847714-.0041808.7599446.0279764,1.5079337.3483184,2.2234175.6606866.3471758.1515664.6914019.3098685,1.0864695.4873642.3558184-.1622819.7331147-.3566452,1.1266911-.5089258.6843044-.264771,1.3961929-.4165293,2.1176112-.5641535.8080315-.165357,1.6399534-.2267143,2.4294989-.499649.2430192-.0839972.5473499.0121752.7927429-.068278.7546224-.2473681,1.5249466-.0919159,2.2692384-.0564259,1.2452974.0593813,2.409584.4904963,3.3958766,1.3014533.7471613.6143406,1.4197192,1.2927543,1.8003848,2.2255863.4776837-.0212166.9361567-.0601122,1.3944745-.0584115,1.3070518.0048246,2.4807012.3878134,3.4667184,1.2739354,1.0848765.9749622,1.885538,2.1377057,2.3548984,3.5257396.2470804.7307088.4457972,1.4601387.1539253,2.2571194.2837934.1063418.5370067.2149854.7985857.2969454,1.3701512.4292615,2.4604333,1.2495657,3.3456162,2.3647167.1782226.224521.3676658.4417431.5674823.6472178.5360608.5512165.7733292,1.2644252.9279922,1.970568.2187206.9986392.4144053,2.0065085.4650996,3.0408542.0467848.9545421-.1226628,1.8426454-.4988709,2.7060185-.0464638.106626-.0906134.214253-.1490647.3527971.922847.5478697,1.3156434,1.3942931,1.4696921,2.3970331.0823493.5359861.2593347,1.0579153.3336541,1.5944806.0446798.3225619.0453262.6505511-.041793.9965823-.1202926.4777292-.1383064.9974332-.1074838,1.4933916.0529149.85147-.1664162,1.6561772-.3976501,2.4438065-.365825,1.246046-.840529,2.4578339-1.3789669,3.6449389-.6124658,1.3503119-1.4307452,2.5781698-2.2117181,3.8267039-.6632397,1.0602875-1.4473464,2.0384624-2.2938384,2.9611944-.2921707.3184926-.6419275.5843821-.9319676.9045514-1.1804414,1.3030297-2.2239994,2.7134966-3.2275806,4.1550599-.3281595.4713757-.7047102.910186-1.0165675,1.3914746-.2931729.4524466-.6997968.8298215-.8031682,1.4155716-.0562668.3187941-.0908858.6199548-.0051684.9143286.1238869.4254665.1569149.8374066.0518925,1.2705479-.0442814.1826165-.0268575.3829205-.0205856.5746318.0375321,1.1472366-.3146564,2.1974827-.8312176,3.1945459-.7945596,1.5336374-1.9068788,2.8322885-3.1304013,4.0327227-.4711689.4622929-.9587373.9337257-1.623371,1.1397564-.1066192.0330502-.1964081.1203712-.3098795.1927397.004955.1115611.0051093.2062184.0139501.3000538.0838155.8902508-.0884764,1.7475844-.3176312,2.6006608-.1950358.7260364-.3202954,1.4745113-.5642111,2.1828335-.3461566,1.0052853-.7754815,1.9818108-1.1644411,2.9725299-.448782,1.1430854-.84478,2.2973918-.9679418,3.5343955-.0603695.6063958-.2409872,1.1999207-.3261413,1.8050319-.0595203.4229045.0853152.865697-.1035193,1.2814384.1364944.9385855-.0354768,1.874084-.0346605,2.8119308.0008335.9851292-.0207199,1.9720538-.0431799,2.9556006-.0130437.571484.0500148,1.1631405-.0537868,1.7175598-.128758.687746.0664691,1.3897105-.1648742,2.0600448-.0150085.0434635-.0028732.0964385-.0027556.1449804.002663,1.1802333-.0298894,2.361817.0151598,3.5404169.1085455,2.8386649.2046869,5.6794295.4066702,8.5121285.0856267,1.2007774.2266661,2.4002153.2575378,3.6051159.0264954,1.0344236.0588445,2.0745865-.0216719,3.1035623-.0451709.5774328.0473467,1.1700061-.0713223,1.7167542-.1552434.7153055.0980738,1.4421412-.1584949,2.1353326-.0078927.021304-.0002632.0481849-.000663.0724496-.0136731.8404882-.0200735,1.6811875-.0447179,2.5213619-.0104304.3557633-.0591142.7104128-.0905068,1.0655761-.0313372.354609.1268536.7221272-.0804995,1.0672323-.032217.0536275-.0037781.1428005-.0060791.2154474-.0212154.6702764-.0006544,1.3452307-.0746108,2.0096605-.1113839,1.0007592-.0220452,2.0141619-.1658685,3.0034196-.1530958,1.053046-.1394123,2.1246759-.3986505,3.1663964-.1020659.4101251-.0631888.8533511-.1166605,1.2779631-.1034125.8209037-.1179053,1.6513522-.2959427,2.4651026-.0806448.3685486-.0916859.7532501-.1221545,1.1316223-.0417804.5186945-.1017942,1.0320927-.1972189,1.546049-.0773741.4167368-.0374384.8515309-.0888981,1.282765-.0905392.7588247-.0038119,1.5382776-.0872985,2.2985693-.0779852.7102007.0327753,1.4329359-.1628518,2.1322327-.0188799.0675263-.0040541.1450025-.0019702.2177751.0240087.8367495-.0656477,1.6639495-.1720291,2.4929606-.0697056.5430958-.0391747,1.0984203-.0946568,1.6441066-.0788313.7753237-.1897449,1.5475863-.2983122,2.3195665-.0563175.4004203.0014137.7985878-.0959837,1.2104104-.1242312.5253296.0122772,1.1147207-.1246661,1.6340103-.1433053.5433917.0030181,1.0878231-.1641824,1.6297126-.1061491.3440459-.0664236.7502588-.1075811,1.1300671-.102507.9461033-.1005301,1.9032675-.1945702,2.8506147-.0871645.8780932-.1319317,1.7562081-.1837733,2.6359725-.058949,1.0005132-.117672,1.9995031-.1582826,3.0014626-.0405387,1.0003719-.1132793,2.0008034-.1679263,3.0011789-.0273467.5007674.0387263,1.0232167-.0729944,1.4975387-.1850623.7856498.0190783,1.569056-.1312048,2.3573624-.13731.7202592.0048608,1.4906449-.1000029,2.2211591-.0915141.6374735.0073013,1.2810558-.1626544,1.9154265-.1089258.4065844-.0645296.8520221-.1152938,1.2768698-.0981028.8210061-.1373824,1.6475174-.2967963,2.4635205-.122143.6252507-.1325495,1.2717437-.2424853,1.9000839-.1302739.744603-.1436743,1.5020488-.3053662,2.2447182-.0950059.4364082-.0097951.8965359-.0844185,1.3559653-.1065679.6560691.0276131,1.3559918-.1106176,2.0008098-.1271547.5931798.0801273,1.2022145-.1739084,1.7694661-.0182133.0406507-.0033985.0960346-.0043412.1445524-.0150053.7670058.0344553,1.5425061-.0649456,2.2984132-.0839848.6386523.0077946,1.2819418-.1506136,1.9185768-.1078862.4335979-.0855367.9009148-.1095639,1.3537709-.0330101.6221641-.0483257,1.2453048-.0839965,1.8672844-.0190016.3313274-.0174206.6749501-.1088429.9886297-.1751168.6007398-.0658632,1.1973586-.0512288,1.7949934.0172209.7037645.0554874,1.4071996.0963475,2.11011.0151139.25992-.0322114.5295206.1426854.7717514.0602752.0834864.0725751.2533979.0301057.3501531-.1660538.3783237-.0597719.7629413-.0617898,1.1435747-.0041757.7871755-.1118904,1.5655268-.169301,2.3471625-.0471246.6414657-.0905714,1.2789584-.2443052,1.8997908-.1635822.6606309-.3485319,1.3197542-.5819952,1.9583876-.3178343.869379-.9451912,1.4856122-1.7528257,1.9226427-.1044813.0565345-.2145677.1027078-.4583812.2183218Zm27.0477279-176.8222267c-.8207105-.496471-.853928-1.1505596-.6287565-1.8754778.0419908-.1351871.1200853-.2587417.1698252-.3920121.3329947-.8921896.4658716-1.8278922.5424964-2.7673271.0364908-.4474014-.053163-.8941313-.1740848-1.343825-.2835246-1.0544287-.559349-2.0839912-1.2840207-2.9585423-.991538-1.1965996-1.7737754-1.7353066-3.2729982-1.946622-.6257914-.0882233-1.0398523-.415181-1.2406771-.946172-.1809271-.4784053-.3532653-.9728582-.3964568-1.5048066-.0319218-.3930474-.1743613-.7804919-.2932617-1.1624305-.2878622-.9246258-.871141-1.6815968-1.4552947-2.4266014-.2607076-.3324872-.5809352-.6526998-1.0521617-.703745-.2125424-.0230403-.4293479-.0671116-.6388759-.0467323-.7626259.0741859-1.5229836.1715834-2.3547614.26845-.2336347-.1758715-.532384-.3435815-.7550292-.5822584-.3075551-.3296944-.5598356-.7113345-.8320549-1.0735388-.5148264-.6849744-1.1211647-1.2887553-1.9518682-1.5296387-.8155633-.2364911-1.6740645-.3434853-2.5259958-.3394353-.8632422.0041074-1.7221174.0794796-2.5835931.2219576-.8559179.1415547-1.6550052.3890463-2.4210691.7647971-.4471567.2193275-.8684366.4913846-1.3265518.7541739-.2683223.0119177-.5595584.0197794-.850062.038922-.4606769.0303593-.8945008-.0371232-1.3216369-.234602-.4498377-.2079798-.9254232-.3601715-1.389476-.5374873-1.122714-.4290182-1.8520058-.3899238-3.0266822-.0270715-1.1321257.3496934-2.0980713.9754287-3.0516125,1.6343485-.3134911.2166396-.6089464.4796189-.8532408.7711863-.3211077.3832433-.6172067.7966635-.8626117,1.2317675-.3089317.5477573-.732745.9339245-1.2937397,1.1574448l-1.1269643.0500547c-.7635277-.3034427-1.4191646-.5640116-2.0316341-.8074225-.6996677.4471446-1.2625849.9221822-1.7631171,1.4827133-.898658,1.0063881-1.6137588,2.1419688-2.3409476,3.2677253-.3862269.5979217-.7716459,1.2130313-1.0347934,1.8695304-.3138385.7829845-.5968175,1.5901983-.7363071,2.4307293-.0772969.46577-.1340287.9374272-.1591732,1.408616-.0193107.3618456.0252534.7270938.0412427,1.0870867-.0442419.0919205-.0919882.1752823-.1258442.2639555-.278161.728509-.7596738,1.1753549-1.5722699,1.2696072-.4884474.0566407-.9666694.213838-1.4451259.342108-1.2777367.3425597-2.0573152,1.1856004-2.5131811,2.4114877-.5670017,1.5247943-.790516,3.1157072-.9182403,4.7127264-.1033722,1.2925672.0965922,2.5921877.6082773,3.7914256.3136212.7350167.7880609,1.4061188,1.2277206,2.0815606.6801567,1.0448943,1.4134122,2.0515852,2.3774436,2.8631571.5908339.4973972,1.1998865.9745093,1.7717686,1.4927225.8407598.7618953,1.749413,1.4359022,2.6323496,2.1441549,1.0879258.8726678,2.2833579,1.5659193,3.4523018,2.3069093,1.3386985.8486051,2.6267096,1.7582449,3.7010656,2.9414461.5376553.5921268.9013489,1.2747079,1.1146395,2.0364605.2858638,1.0209186.4881356,2.0652661.8703527,3.0590825.2025458.5266509.3679807,1.0694946.5999624,1.58251.6187843,1.3683836,1.6589032,2.3224488,3.0153633,2.9370626.6047946.2740247,1.2515093.4521554,1.9084785.4827918,1.056535.0492775,2.1167733.0274214,3.1753395.0200238.3451878-.0024161.6609935.0651278.9460687.2542383.738924.4902055,1.5391183.8063327,2.4145517.9765033,1.1448132.2225437,2.2905471.5263412,3.4555157.3383212.7642343-.1233474,1.5260332-.176472,2.292348-.2303313.070598-.0049515.1420183-.0210482.2095641-.042812.6734336-.2171297,1.3554777-.2051246,2.052986-.079426.1255064-.1398934.2784948-.2692757.3804915-.4308497.6100512-.9663852,1.2390466-1.9228948,1.8002645-2.9173662.3999384-.7086651.6276938-1.4832244.5394964-2.3270388-.0553966-.530178-.0814351-1.0675258-.0645706-1.5998808.0141454-.4462754.069478-.8999345.1770125-1.3328313.2420675-.9745905.8330511-1.7746645,1.4816006-2.4983418,2.0998554-2.3431227,4.2400227-4.6502059,6.3715602-6.96481.9147785-.9933517,1.7286127-2.0623663,2.4896036-3.1762012.4051634-.5930304.8665295-1.1475671,1.2747524-1.7386505.3379954-.4894102.7032509-.9779127.9342385-1.518977.3223655-.7551376.5540614-1.5522049.7819498-2.3436111.2428322-.8433408.5064511-1.7044637.3501769-2.5895735-.1216521-.6889877-.1523133-1.3815183-.2396107-2.069593-.0638086-.5029317-.267123-.9881668-.4031802-1.4635892-.3394471-.0871802-.6123376-.157271-.8492754-.218126Zm-27.8692279,173.5307361c.2893591-.4391124.5814694-.8469435.8341362-1.2778749.1791667-.3055425.2718138-.6633908.4605594-.9614901.8129927-1.2843594,1.030287-2.7447626,1.1878696-4.1996119.1107402-1.0224673.045268-2.0658767.0300672-3.0995202-.0124748-.8494208-.0668202-1.6982281-.1024767-2.5473136-.0061174-.1455476-.0586285-.3101483-.0088733-.4332542.1724151-.4266905.057258-.8588201.0729789-1.2878615.0157043-.4286134.0737887-.8569908.0676038-1.2848278-.0451277-3.1223143-.404043-6.2350709-.2679469-9.3640991.0315437-.7251214-.051806-1.4551803-.0812051-2.1830246-.0068555-.1697795-.0641566-.3628649-.0040934-.5056018.2419892-.5751371-.0029832-1.1814296.1686316-1.7748395.141928-.4908313.0289192-1.0499518.1191268-1.5629286.0715485-.4068113.0166498-.8217677.1000925-1.2078869.1918721-.888049.1512615-1.7933658.2812063-2.6848594.0857131-.5881169.0073645-1.2011692.1038095-1.7863447.0553071-.3355925.0116033-.6792669.0933034-.9899868.1288631-.489984.0253188-.9913288.1742749-1.4812439.115124-.3786607.0975903-.7994781.1249875-1.2025126.0356036-.5236897.0201955-1.0535698.0936268-1.5713025.1105741-.7797066.2002962-1.5573299.1749693-2.3455984-.0023416-.0727612-.0262662-.1580935.0025407-.2165542.2551336-.517881.0365734-1.0796301.1737092-1.6264507.1479883-.590064.012512-1.2464023.1169863-1.8538135.0789141-.4588188-.0076684-.9215737.0945732-1.352393.0752363-.3169663.0568139-.6151035.0760778-.92289.0207249-.3312082.0834824-.6603845.0938945-.9915085.0256306-.8153661.0317759-1.6313443.0456148-2.447059.0004088-.024265-.0081478-.051176-.0004143-.0724551.2608531-.7175751-.0085939-1.4690806.1596278-2.207625.1189246-.5221566.0051143-1.0887006.0716866-1.6444215.0820208-.6846733-.0167703-1.3844231.0568518-2.0846387.0773616-.735666-.046774-1.4801669.0407965-2.2310801.0854944-.7331254-.025435-1.4807052.0508826-2.2298547.0823616-.8084684-.0235429-1.6278904.0272561-2.4499643.0725986-1.1749775-.1336438-2.3574198.0107768-3.5410527.0516152-.4231231.0172423-.8511146.0754052-1.2843376.1234185-.9191891.1364423-1.8530576.1982908-2.7806742.0285105-.427669.0244378-.8628633.1071894-1.280373.1567787-.7909627.2145525-1.5918767.3132287-2.3887504.0521884-.4214395.1262164-.840164.1779672-1.2616375.0548726-.4469806.1025002-.8951525.1395613-1.3439411.0392439-.4751975.0021767-.965253.1056303-1.4246989.1835527-.8150279.1591471-1.6474872.2887598-2.4670979.133292-.8429884.1014922-1.7112581.2161741-2.5584046.0516187-.3813589.0242059-.7700848.1002068-1.1351692.207736-.9978288.2554522-2.0143636.4006245-3.018742.1429298-.9889332.0943846-2.0007475.155125-3.0022125.0566267-.9337579-.0638799-1.8719141.0262675-2.8143174.0728255-.7614382-.0268583-1.5301861.0304202-2.3043745.0778196-1.0520169-.056004-2.1130412.0199372-3.1766886.0735285-1.029787-.1182467-2.0622636-.0033726-3.10569.0967796-.8790543-.0887877-1.7699573.0386241-2.6663765.1038211-.7305391.0520829-1.4831691.0689359-2.2260101.0011034-.0485071-.0083808-.0983064-.0005501-.1454567.1572299-.9465399.1158868-1.9040208.1514564-2.8567465.0322513-.8639046.0287867-1.7291069.0409957-2.5937413.0003377-.0242618-.0082777-.052096.0006774-.0723256.1854736-.4182624.0687984-.8543124.082354-1.2832042.0135453-.4283217.0772404-.8556309.0794528-1.2835917.0055723-1.083398-.0753243-2.1620476-.0332524-3.251553.0517012-1.3386502-.0043132-2.6783553.1271527-4.0211892.0646589-.6605276.1412341-1.3201068.2416697-1.9733579.1720363-1.1190084.4642978-2.2112323.8933979-3.2641645.2226528-.5463463.4574861-1.0918095.6234599-1.6563069.3111141-1.0581596.6278695-2.1195695.8429736-3.1994118.1545889-.7761339.1478859-1.5843849.2175156-2.4316044-1.3413394.326443-2.6515872.3640944-3.9390254.2956363-1.2455745-.0662229-2.4462569-.5127405-3.6716243-.9446763.0673481.6611801-.0179869,1.2121177-.2013561,1.7691453-.234907.7135476-.4143982,1.4488719-.5662767,2.1854264-.2348729,1.1389786-.4557577,2.2820625-.3689159,3.4592957.1993358,2.702147.1092551,5.4202552.4940158,8.1140775.1803389,1.262582.0554703,2.5521429.3082799,3.8206744.1680353.8430812.1058732,1.7187465.2512252,2.5815989.1790978,1.0630902.1269912,2.1571358.2983063,3.2351874.1886777,1.1871924.1447491,2.3998303.2869844,3.6025441.1665777,1.4084785.2328283,2.8351565.3752347,4.2513488.0889626.8846903.0623866,1.7715572.2307269,2.6599853.1822986.9622043.1630507,1.960153.2868228,2.9421717.1543551,1.2246777.1446352,2.4708135.1900279,3.7082528.0539364,1.4706806.1468992,2.938435.0633728,4.414687-.0665611,1.1764362.0867378,2.353486.0386631,3.5413135-.0583253,1.4410233.0632383,2.8917701.0083474,4.3399754-.0318295.8395322-.0288501,1.6803846-.0414481,2.5206292-.0003724.0242812.0070697.0511527-.0008318.072457-.2570086.6929083-.0329768,1.4195315-.1612859,2.1338188-.1298385.7227401-.0595099,1.4814873-.0764551,2.224457-.0010945.0485067.0067073.0977042.0012841.1455487-.066647.5879109-.158284,1.174119-.1968488,1.7638091-.0452937.6927087-.0453262,1.3883917-.0636981,2.0828065-.0025637.0969944.0273132.2021079-.000417.2900194-.2046991.6485535-.0741931,1.3248554-.175488,1.9852121-.0900479.5871167-.0233259,1.1971249-.0967113,1.7882369-.0939327.7565721-.2060133,1.5085739-.1768377,2.2736707.0036681.096415.0118063.1958715-.0060725.2893448-.1161087.6071981-.2002052,1.2148792-.195607,1.83726.0033472.451124.0019313.9162564-.0998719,1.3511329-.1792807.7659172-.1578066,1.5502088-.293212,2.3207642-.1392219.7922479-.1052733,1.6139046-.2238751,2.4112717-.0568364.3821247.0011292.7863702-.1083463,1.1304749-.1570267.4935848-.0607665.9900549-.1663585,1.4837229-.1281161.5989904-.0091787,1.2483015-.1143554,1.8555303-.0794916.4588445.0325171.9335192-.0954502,1.3508831-.1665445.5432312-.0218903,1.0859564-.1595912,1.6302742-.1376733.5441385-.0126776,1.1506862-.1166501,1.7086735-.0855372.4590062-.0004897.9200668-.0962645,1.3533938-.0642439.2907002-.061551.5659657-.0810579.8502461-.0194101.2828519-.0831793.5627962-.1006399.8456505-.0353269.5722067.0127148,1.1584418-.0973374,1.7144204-.0911602.4604665.001051.9178799-.0836041,1.3564632-.18089.9371052-.1269965,1.8907708-.271386,2.8310081-.1009827.6575657-.0573206,1.3373866-.0781269,2.0072531-.0022345.0723413.0240051.1626979-.0096738.2140761-.1940621.2960389-.0584223.6155666-.0850164.9224503-.0265769.3066694-.0808561.6112935-.0998188.9182477-.0353494.5721009.0140292,1.1595761-.1026118,1.7131059-.0816237.3873914-.011917.7675985-.0914675,1.1369352-.1205924.5597581-.1360735,1.1274694-.1884406,1.6923863-.0417378.4503137.0049749.9210525-.1111379,1.3491944-.1527024.5630891-.0648153,1.1345764-.1788266,1.697211-.0984319.4857306-.0051812,1.0130434-.1216935,1.4915126-.0888337.3647465-.024682.7190843-.0896422,1.0666059-.1433593.7668319-.2518235,1.5367247-.3165804,2.3134884-.0335952.4029715-.0133347.8202497-.1144721,1.2055882-.1875745.7146587-.2189246,1.4493492-.2945276,2.1713004-.0764758.7303571-.1781641,1.4632226-.259524,2.1912332-.1229808,1.1005938-.280422,2.200297-.4142529,3.3021026-.0462469.3806574-.0161414.7738923-.1039585,1.1340719-.1748199.7170474-.1448221,1.4555643-.3067715,2.171595-.103617.4581714-.1438645.9308143-.2095191,1.3973757-.0822935.5847428-.1411162,1.1736592-.2477968,1.7538418-.1072206.5830549-.1808437,1.1666115-.2416161,1.7565224-.0706539.6858774-.1752382,1.3689715-.1503219,2.0586152.0109943.3044487.154192.6047524.1610045.9086392.0244282,1.088688.4617305,2.0282973,1.0318229,2.9126426.3069002.4760769.7560251.7888553,1.4667912.8320741Z" stroke-width="0"/>
      <path d="m81.64793,55.403506l.063119,1.4211025c-.3381622.9630234-1.0473891,1.6733201-1.7820253,2.3177639-.7653586.6713993-1.613303,1.2658308-2.4860355,1.7931624-1.0308123.6228484-2.1734278,1.0227476-3.3329417,1.3544219-.2725627.0779748-.5520682.1595604-.8320293.1755733-.2511047.0143841-.5072168-.0591223-.7240502-.0887903-.1090612-.2077076-.1855666-.3533956-.2676542-.5097308.0709108-.1606383.1374218-.3113167.2248636-.5093978.6976158-.3159834,1.4435433-.6184286,2.1564455-.9850444,1.0723826-.5514646,2.2209129-.9737104,3.1695374-1.7431249.5349693-.4339101,1.1225514-.8187704,1.4531148-1.4698968.1683015-.3315231.3125838-.6418894.1690664-1.0465899-.4792196-.3554582-1.0236616-.6478652-1.6330116-.772744-.5763106-.1181037-1.1659019-.1712797-1.7268725-.2498314-.2980786.0530098-.580379.0913084-.8568532.1549659-.5048911.1162881-1.0179006.213728-1.5064998.3805811-.7195726.2456956-1.4647561.3660874-2.1941873.5489423-.606169.1519584-1.2274013.0898267-1.8284278.303055-.5288889.1876289-1.1334214.1499726-1.6953241.2592597-.9249265.1798863-1.8550232.3604028-2.6732409.8721927-.0597407.0373681-.1024054.1020699-.1819149.1837449-.1305329.5890661.2138982,1.0149201.5850846,1.4247028.9491604,1.0479182,2.1957075,1.5835468,3.5094957,1.9769209.403643.1208594.8451861.115036,1.294256.0798692.3457985.1917007.6915966.3833926,1.0440206.5787689-.4846336.674588-1.1114574.8857754-1.842379.9396827-1.4760029.1088618-2.8967038-.0895274-4.2484045-.695585-1.2904875-.5786102-2.2911717-1.498751-2.9124447-2.7642419-.5822811-1.1860262-.4043952-2.3494888.3672702-3.4123756.7957553-1.0960812,1.9346029-1.656168,3.2007191-2.0170644.7353461-.2096076,1.4889282-.2932188,2.239151-.4171901.9575747-.1582734,1.9206629-.146316,2.8742695-.2628624.6051647-.073966,1.1941937-.2767455,1.7920614-.4147965.483556-.1116554.950309-.2950023,1.4587892-.3032291.2094897-.0034031.4174726-.0824172.6267432-.1240234.0933859-.0185588.1891162-.0464612.2823285-.0416734,1.6708672.08592,3.2978886.359858,4.7428005,1.2680833.5551971.3489771.9591231.8694073,1.2906207,1.4369463.0599218.1025862.1074901.2124149.1805395.3584522Z" stroke-width="0"/>
      <path d="m74.5556875,42.4186389c-.6675217.6167754-1.2154273.5666391-1.7684187.1639121-.2508044-.2105268-.2814875-.5125567-.3585335-.8203203-.261553-1.0449323-.2136242-2.1101884-.2642694-3.1670785-.1986567-4.146823-.3659767-8.2951491-.567333-12.4418299-.0501319-1.0325059-.1312776-2.069469-.2958547-3.0886047-.1366335-.8461226-.2084642-1.7046255-.393941-2.5393794-.2723172-1.2255579-.4505305-2.4703429-.7503689-3.6878556-.254179-1.0320193-.49093-2.0668555-.7115334-3.1060829-.1820142-.857401-.3695321-1.7136607-.5617366-2.5688221-.0199223-.0886122-.0883878-.166314-.1396089-.258583.0936989-.2191344.1870282-.4373711.3016924-.7055365.2044484-.0732182.4441019-.159042.6533516-.2339845.4244986.2793846.6500079.6017857.8155774,1.034429.6822765,1.7828248,1.290995,3.5881277,1.829258,5.418824.1722321.585855.4139802,1.1528229.5613839,1.7440221.1711278.6864475.3615158,1.3680429.495741,2.0669534.1065316.5547751.0626156,1.1472352.332177,1.6702464.0102867.0199713.0047085.0478929.0074531.072009.0814508.7143614.1438889,1.4315345.2489334,2.1424135.176451,1.1942867.1714696,2.4084259.343677,3.5949479.1360129.9371649.1750907,1.8702948.2217222,2.8059554.1510885,3.0309504.2832456,6.0629375.4019271,9.0953406.0252201.6443765.0011978,1.2967482-.0748494,1.9365523-.0401216.3375973-.2414045.6560408-.3264468.8724719Z" stroke-width="0"/>
      <path d="m87.0425379,17.2520842c.1926323.1601618.3597931.2991619.4492239.3735247.1325904.4284313.0592425.7249878-.0798192,1.0098028-.5516451,1.1298384-1.1176406,2.2528238-1.655958,3.388933-.4059904.8567828-.7721969,1.7323068-1.1661799,2.5948939-.9060921,1.9839401-1.8251024,3.9620096-2.7262712,5.9481745-.986655,2.1745681-1.8174817,4.4049372-2.3299834,6.7435413-.2826705,1.2897248-.5653395,2.5778829-.7243694,3.8933282-.0828034.6848905-.1665209,1.3640313-.2053237,2.0543778-.0253755.4515586-.0584469.9025955-.0661833,1.3564905-.0080781.47546-.3168911.7753805-.6335878,1.0312744-.5122969.0333197-.6759242-.356397-.9379497-.6480138-.0368284-.8291793-.1158677-1.677228-.0993142-2.5234075.0138499-.7086472.1098518-1.419835.2224456-2.1214032.1604685-1.000082.3490738-1.996754.5618505-2.9871071.4298093-2.0007227.910382-3.9872195,1.5391598-5.9392421.4951868-1.5372218,1.1024411-3.0267126,1.8028077-4.4731851.6928316-1.4309434,1.4754413-2.8197885,2.2518051-4.2085698.9273006-1.6587469,1.8870576-3.2993972,2.8389164-4.9443209.2576383-.4452561.3430639-.4843169.9587307-.5490916Z" stroke-width="0"/>
      <path d="m46.9825095,26.5482374c-.0199857-.9832549.1478121-1.1379379,1.1595842-1.1475519,1.0407018.8058612,2.089043,1.6494489,3.1706,2.4480658,1.8671436,1.3786635,3.6647669,2.8402495,5.3168223,4.4696263.7843192.7735615,1.5191511,1.6029106,2.2228773,2.4513858,1.1714099,1.4123598,2.1510427,2.9607783,3.0198517,4.5740374.9410655,1.7474575,1.8402118,3.5182822,2.6103114,5.348891.1707156.4058157.2143294.8651027.3234791,1.3297215-.1889675.1816771-.3459571.3325999-.532723.5121408-.5143728.0819768-.8615421-.142593-1.1546368-.5966296-.6087472-.9429963-.9748327-1.9926676-1.4160332-3.0108259-.4123412-.9515863-.8058367-1.9149537-1.2835994-2.8336239-.5387443-1.0358963-1.2319687-1.9745932-2.0215745-2.843532-1.0405487-1.1451102-2.1385795-2.229458-3.28981-3.2618365-2.3641184-2.1200454-4.7294253-4.2387918-7.0858233-6.3673869-.3736193-.3374994-.7033933-.7235439-1.0393256-1.0724818Z" stroke-width="0"/>
      <path d="m59.0225654,18.0646001c.0867087-.0626792.1775053-.1283127.249863-.180621.0722538.0587832.1381679.0878598.1376004.1155633-.0107951.5209055.2391398.9695778.4288581,1.4228607.6191845,1.4793993,1.2645673,2.9482264,1.9233156,4.4105451.6206887,1.3777921,1.2442406,2.755515,1.9154593,4.1090101.7889929,1.5910352,1.3750295,3.2568158,1.9511445,4.9300867.6139722,1.7833039,1.1817096,3.5805889,1.695024,5.395085.34657,1.225135.6910019,2.4510325,1.0175533,3.6815829.1033554.3894741.1650465.7928243.2124954,1.1937628.1213433,1.0257335.2239856,2.0536818.3244558,2.9906407-.142554.3132047-.2412832.5301102-.364973.8018876-.2035155.0637593-.4454309.1395407-.6434155.2015723-.5354682-.3460837-.7992528-.7606768-.8062008-1.3507888-.0035641-.3026959-.1202101-.6026123-.1670586-.9066657-.0469755-.3049068.0234264-.630515-.175576-.9080454-.0241975-.0337601-.0092341-.0948727-.0143848-.143102-.0867075-.8110708-.1778638-1.6216993-.2593075-2.4332977-.0642625-.6404082-.1763058-1.2679728-.3497984-1.8906272-.1007061-.3614907-.1224671-.7476193-.1926873-1.1221513-.4053217-2.1623268-1.0333954-4.2571069-1.7238432-6.3421469-.705072-2.1293193-1.5791863-4.1870864-2.4392488-6.2539427-.8505163-2.0439191-1.6605628-4.1049591-2.464056-6.1679591-.1797794-.4615841-.3507851-.9456773-.2552191-1.5532492Z" stroke-width="0"/>
      <path d="m96.1855972,33.6021829c.0819787.1266278.1573237.2429846.2338552.3612024-.0308091.0390338-.0536742.0877776-.0919777.1135922-.9367421.6313188-1.747543,1.4050885-2.5654782,2.1801587-1.4383163,1.3629859-2.8176194,2.7796419-4.1471001,4.2474566-.969067,1.0699055-1.8206364,2.228433-2.5883347,3.4463716-.746908,1.1850065-1.4863526,2.3769225-2.1710451,3.5983175-.6938469,1.2377392-1.2813756,2.529642-1.6375848,3.9140261-.033232.129177-.1104041.2470428-.1697738.375734-.4895668-.6778048-.1490007-1.3025294.0636614-1.9138869.4760566-1.3687137,1.1217795-2.6614566,1.8852391-3.8910588.8284535-1.3342741,1.6789575-2.6550676,2.5347402-3.97205.2348538-.3614274.5100471-.6992248.7894041-1.0286485.7497145-.8841373,1.4596344-1.8105012,2.2811275-2.6233058,1.2103853-1.1976077,2.3798112-2.4412222,3.7115805-3.5156168.5187753-.4185395.984304-.9028081,1.580865-1.2185801.0800447-.0423689.1801437-.0468638.2908214-.0737121Z" stroke-width="0"/>
      <path d="m35.3827265,67.5167294c.7881442.4839159,1.1647799,1.1917445,1.4013699,2.0311666.2888533,1.0248982.5408636,2.052581.7302193,3.1015255.1350818.7482606.2554353,1.4987955.3907381,2.2458179.3472883,1.9172821.3069876,3.8559093.3502824,5.7844147.021486.9573125.055787,1.9281909-.0139394,2.8838579-.0456838.6262074.0601247,1.2671114-.0644537,1.8617789-.1499357.7157641.0431186,1.4255246-.1379821,2.1394418-.138016.544038-.0447531,1.1425688-.1060393,1.711291-.080795.7497488-.2478489,1.4909384-.3129976,2.2414432-.0865268.9966644-.3656354,1.9459294-.6261145,2.9001885-.1933258.7082204-.3069475.8214966-.9542156,1.2174996-.1663898-.100599-.3468934-.2097393-.5718961-.3457787-.0534551-.1311437-.1760892-.3017446-.1863777-.4788753-.0577392-.9933543-.1469986-1.9909431-.1018206-2.9814539.0205062-.4497623.0067162-.9097421.0653677-1.3542112.1498262-1.1354772-.0649637-2.2686723.0159083-3.3932537.0575104-.7996295.0836131-1.5979529-.0249482-2.3757863-.2750729-1.9707902-.1637807-3.9660311-.4141139-5.9293305-.1563158-1.2259346-.1097098-2.4634635-.3057974-3.6735945-.1553668-.9588698-.1409686-1.9215146-.2537264-2.876598-.1287178-1.0901622-.2901003-2.1770577-.4637478-3.2611297-.1357257-.847329.2609756-1.3819745,1.1054643-1.4269332.1695407-.0090256.3392223-.0152804.4788202-.0214807Z" stroke-width="0"/>
      <path d="m28.2727032,100.7356323c-.1866433-.0810336-.3617689-.1570689-.5418141-.2352446-.2989333-.2780677-.2619264-.6477133-.2559132-1.0830885.2242239-.2059544.4857449-.4461526.7130567-.6549323.9631672-.0427796,1.8609598-.1249362,2.7575365-.1132202,1.6014348.0209187,3.1656369.2354542,4.5940204,1.0559269,1.7905656,1.0285272,3.2165651,2.3712942,3.9870402,4.3410254.4374532,1.1183652.5633647,2.2802176.5167315,3.4532052-.0359236.9038739-.3515192,1.7649376-.8087891,2.5481776-.7341194,1.2574994-1.6502914,2.3637713-2.8797214,3.17448-.6142527.4050401-1.281627.6800343-1.9978601.883479-.7859929.2232595-1.5783816.2225554-2.365954.2070394-.7289421-.0143549-1.4546462-.1778596-2.1824078-.2706509-.6819014-.0869506-1.3674454-.1492967-2.0462311-.2554788-.7200627-.1126446-1.4598752-.0975878-2.140143-.4597914-.7348963-.3913052-1.1176512-.9906057-1.2689717-1.7754055-.0629514-.3265125-.1195956-.654311-.1733277-.9824791-.0155879-.0952358-.0358321-.2003143-.0119952-.2897084.17835-.6690309-.0066505-1.3463661.0518303-2.0137224.0908151-1.0361892.1005696-2.0815424.4160247-3.0952731.1282607-.4121608.3111164-.7426659.6128429-1.0091459.3226312-.1146641.5964463-.0195485.7977637.1994783.1835282.1996824.233967.4811588.1859544.7473096-.1361577.75462-.1232768,1.5211972-.2008778,2.2767235-.1171679,1.1406847.0121862,2.2656134.0382602,3.3967671.0064202.2784201.100943.5548052.1513649.8136555.4530228.2203712.8851884.2873933,1.3422151.3333725.9632021.0968875,1.9174103.2798662,2.8779924.4073478.4715425.0625672.9494996.0755635,1.4237233.1197375.2587153.024096.5158816.096888.7734753.0955319,1.2996011-.0068076,2.4079883-.5216141,3.3526233-1.3754395.8852889-.8001589,1.5405454-1.7844673,1.9115447-2.9162203.2423671-.7393809.3268817-1.494965.1034504-2.3068705-.2298117-.8351124-.4741392-1.6319012-1.0131279-2.318179-.0435319-.0554258-.0629431-.1351372-.1147358-.1779481-1.1618538-.9603277-2.3517771-1.8856732-3.8927621-2.1402271-1.0705053-.1768342-2.1353985-.398664-3.2246982-.4599537-.347597-.0195608-.6873601-.1543394-1.0352031-.2060938-.1291459-.0192051-.2712137.0484253-.4529175.0858163Z" stroke-width="0"/>
      <path d="m23.6206857,99.0989951c-.1301854.1363538-.2805634.2938459-.3827236.4008361-.4508928.1803015-.77092.0379526-1.0859964-.1624739-.6072385-.9455023-.9398077-2.0123328-1.383046-3.0270715-.7125185-1.6312205-1.5317841-3.2022098-2.4674018-4.7183892-.937678-1.5194793-2.0184838-2.9400825-2.9906627-4.432305-1.1130588-1.7084772-2.2152255-3.429446-3.1693392-5.2370034-.2842212-.5384312-.4772089-1.0951832-.3479283-1.8763794.1129604-.1137364.3335989-.335883.5446864-.5484105l.6958932-.0309085c.6981838.2296879,1.0720037.8384467,1.4870662,1.3875604.7460735.9870551,1.4269868,2.0253379,2.2036848,2.9868394,1.2770879,1.5809723,2.3504085,3.2907784,3.3151313,5.0690514,1.2051969,2.221562,2.2915335,4.5029853,3.1053042,6.900187.346035,1.0192964.5428378,2.0793927.4753319,3.288467Z" stroke-width="0"/>
      <path d="m20.8767356,71.3432594c-.3758935.5654362-.645905.9716005-.915908,1.3777554-.0354719-.011438-.0709353-.0228854-.1064072-.0343234.0413105-.4428978.0826126-.8857864.1263082-1.3543455.2002503-.4865856.3975616-1.0118855,1.0121229-1.2324176.204906.0919987.4404736.1977588.6518186.2926403.6455917.9278212,1.0726713,1.9336732,1.511437,2.9288767.5516342,1.2511555,1.0737636,2.5161989,1.5743817,3.7887222.5870006,1.4920888,1.069523,3.0201413,1.5037315,4.5644659.3507898,1.2475966.7557321,2.479908,1.1105072,3.7264465.2841935.998544.5264824,2.008963.7923867,3.0127788.187193.7066562.3871604,1.4099323.5733763,2.1168366.1621684.6155959.3342883,1.2297884.4625045,1.8527314.1099864.5343581-.1052083.8472064-.7811136,1.2509792-.5735416-.1814163-.980616-.5206208-1.1102735-1.1605812-.0743873-.3671459-.2399504-.7158756-.3138506-1.0830787-.2146582-1.0667001-.4281572-2.1313511-.7102543-3.1847038-.251239-.9381711-.3666446-1.9121854-.6042962-2.8546718-.2881633-1.142834-.636432-2.2707415-.9682626-3.4023075-.4841039-1.6508365-1.0601603-3.2706807-1.6638139-4.8809853-.6940483-1.8514642-1.3872124-3.7032614-2.1443946-5.7248182Z" stroke-width="0"/>
      <path d="m43.3459251,100.8383434l-.5541632.0246135c-.5192095-.3110987-.6847488-.8502794-.736546-1.4326893-.0871401-.9799339.0209263-1.948368.1259817-2.926878.2011518-1.8735472.7558154-3.6478725,1.3032025-5.4313099.2696846-.8786695.4979674-1.770018.765006-2.6495402.6211407-2.0458091,1.4274655-4.0129765,2.4138186-5.9145717.5587696-1.0772506,1.0781031-2.1742281,1.724583-3.2030265.1330085-.2116765.3203172-.3892165.4691158-.5664346.1707518.0795675.2779153.1295146.3851189.1793619.0694718.1228039.1389023.2456809.2142548.3790386-.9363222,2.1079546-1.843184,4.2284777-2.816816,6.3178837-.8629794,1.8519655-1.5163638,3.7730412-2.0326728,5.7413468-.3644295,1.3892932-.6830213,2.7925371-.9630134,4.2012854-.1428666.7188059-.1139524,1.4708029-.2411357,2.1940036-.0931423.5296723-.0773186,1.0478645-.0580697,1.573435.004436.1211173-.028541.274472.0319248.3574425.2922613.4010046.0618805.7681482-.0305894,1.1560392Z" stroke-width="0"/>
      <path d="m24.6349167,252.2382217c.1815482-.6715763.5849708-.965111,1.2021209-1.1133291-.0322645.1110779-.0563977.194201-.0852647.2935921.0739536.1249103.1537962.2597598.2828329.4777155.0267561-1.0721977-.0615229-2.0366909-.3908011-3.0172014.1377506-.2137297.2907064-.4510642.477371-.7407039.3114836.0511974.6070067.0997747.8495817.1396483.4513764.6632786.5963379,1.356011.7886996,2.0409591.1595092.5679502.1559877,1.1369818.2094103,1.7082909.0546009.5838074-.0894882,1.1424194-.263007,1.6771303-.1132009.3488097-.4060004.6393182-.5557864.8626438-.1480482.0870958-.1860675.1187103-.2297944.133844-.8066602.2785994-1.3008496.090926-1.7900687-.6774506-.4105938-.6449021-.469248-.8610349-.495294-1.7851392Z" stroke-width="0"/>
    </g>
  </g>
</svg>