<?xml version="1.0" encoding="UTF-8"?>
<svg id="Layer_2" data-name="Layer 2" xmlns="http://www.w3.org/2000/svg" viewBox="0 0 164.1754819 171.3837457">
  <g id="Layer_1-2" data-name="Layer 1">
    <path d="m148.2536853,140.6920503c-.0839844-.0205078-.1499023-.0375977-.2143555-.0898438-3.1772461-2.5932617-6.9609375-4.0131836-10.2587891-5.140625-1.434082-.4902344-2.9208984-.9521484-4.418457-1.3730469-2.8500977-.7993164-5.6645508-2.0578613-8.3652344-3.7419434-.8188477-.5100098-1.6650391-1.0375977-2.5444336-1.4396973-.0488281-.0214844-.112793-.0317383-.1835938-.0317383-.2080078,0-.4770508.0881348-.6030273.2165527-.1928711.1958008-.3364258.6745605-.2841797.9484863.0703125.3615723.3276367.7851562.6264648,1.0288086.7910156.6467285,1.6376953,1.3186035,2.5327148,1.7929688,4.175293,2.215332,8.5605469,3.7412109,12.6772461,5.0588379,3.3168945,1.0617676,5.7529297,2.1647949,7.8984375,3.5744629,2.9404297,1.9333496,5.4345703,4.6943359,8.0878906,8.9545898,1.8955078,3.0422363,3.4716797,6.3513184,4.9960938,9.5517578l.6826172,1.4291992c1.0307617,2.1508789,1.637207,4.472168,2.2246094,6.7167969.1010742.3852539.2021484.7722168.3056641,1.1574707.1186523.4460449.2314453.8444824.3964844,1.2116699.3037109.6757812.9038086,1.0009766,1.4902344.8154297.59375-.189209.9194336-.7646484.8706055-1.5415039-.0268555-.4255371-.1005859-.857666-.2133789-1.2512207-.2382812-.8293457-.4726562-1.6606445-.7070312-2.4919434-.6313477-2.2426758-1.284668-4.5612793-2.0087891-6.8076172-2.7602539-8.5705566-7.2529297-16.0849609-13.3520508-22.3330078-4.2519531-4.3562012-9.1787109-8.1806641-15.0620117-11.6904297l-.2324219-.1386719c-1.6748047-.998291-3.40625-2.0300293-4.8793945-3.46875-1.3759766-1.3447266-1.3955078-1.4609375-.53125-3.1186523l.0415039-.0788574c.3295898-.6325684.6616211-1.2651367.9936523-1.8967285,1.2119141-2.3066406,2.465332-4.692627,3.5961914-7.09375,1.8037109-3.8300781,2.7231445-8.2282715,2.8105469-13.4438477.0844727-5.0727539-.3671875-9.1486816-1.4199219-12.8251953-.019043-.0673828-.0297852-.1367188-.0439453-.2399902l-.0859375-.5529785.6088867.1865234c.1835938.0554199.347168.1049805.5087891.1594238,3.2143555,1.0852051,6.0620117,1.1779785,8.7080078.282959,2.644043-.894043,4.277832-2.34375,5.1411133-4.5612793.0908203-.2324219.3847656-.4562988.6420898-.4890137,3.550293-.4423828,5.9331055-2.7890625,7.4995117-7.3859863,1.4624023-4.2885742,1.2138672-8.5537109-.7382812-12.6765137-.3012695-.6362305-.59375-1.2773438-.8867188-1.9191895-.9199219-2.0148926-1.8710938-4.0983887-3.0810547-5.9699707-.0410156-.0627441-.0644531-.128418-.0898438-.1984863l-.1123047-.2878418.6811523-.4301758c2.3989258-1.4899902,4.3105469-3.3981934,5.6826172-5.671875,1.9438477-3.2229004,2.4243164-6.8217773,1.4277344-10.6958008-.8720703-3.3925781-2.1166992-5.7646484-3.9165039-7.4648438-.7592773-.7167969-1.6533203-1.3054199-2.5185547-1.8742676l-.5498047-.3635254c-.3452148-.2307129-.675293-.5268555-.7514648-1.1201172-.0625-.4938965-.1328125-.9887695-.2182617-1.4787598-.5371094-3.0881348-2.1445312-5.6765137-5.0600586-8.1450195-2.5332031-2.1442871-5.5263672-3.3796387-9.1503906-3.7758789-.3642578-.0393066-.7285156-.0825195-1.09375-.1257324-1.4980469-.175293-3.0429688-.3598633-4.559082-.3271484-7.2324219.1435547-13.5522461,1.6401367-19.3208008,4.576416-2.722168,1.3850098-5.0253906,3.4985352-7.109375,5.5751953l-.3579102.3562012c-1.7211914,1.7150879-3.5009766,3.4882812-5.1904297,5.2978516-2.1035156,2.2529297-4.7495117,3.5761719-8.3266602,4.1640625-.8554688.1403809-1.7138672.0297852-2.5507812-.3271484-.2758789-.1171875-.5952148-.1865234-.9243164-.2006836h-.0039062c-.0810547,0-.2412109.09375-.2749023.1621094-.309082.6335449-.7954102,1-1.53125,1.152832-.465332.0957031-.7504883.4404297-.9243164,1.1181641-.4990234,1.9445801-.5454102,3.8769531-.1362305,5.7456055.4121094,1.8828125.9863281,3.8696289,2.3901367,5.6523438l.3452148.4394531-.5546875-.0664062c-.1293945-.0161133-.2426758-.0234375-.3452148-.0302734-.2080078-.013916-.387207-.0251465-.5605469-.0944824-1.8310547-.7348633-3.3212891-1.9616699-4.4287109-3.645752-.3349609-.5097656-.3388672-.9567871-.012207-1.4506836.1821289-.2773438.3276367-.6586914.409668-1.0739746.1948242-.9887695-.1357422-1.4846191-1.1401367-1.7111816l-.4516602-.1032715.3530273-.2988281c.0639648-.0544434.1259766-.114502.1879883-.1743164.1572266-.1518555.3198242-.3083496.5253906-.4020996.2612305-.1191406.5327148-.2099609.7949219-.2980957.2397461-.0805664.4790039-.1601562.7104492-.2624512.6518555-.2885742.9072266-.6108398.8823242-1.1123047-.0263672-.5493164-.3417969-.9458008-.9345703-1.1789551-1.0043945-.3984375-2.1347656-.456543-3.559082-.1940918-6.0629883,1.1237793-11.8408203-.189209-17.1743164-3.8977051-2.2617188-1.5725098-4.512207-3.2519531-6.6884766-4.8771973-.8896484-.6633301-1.7788086-1.3278809-2.671875-1.9868164l-.3710938-.2734375c-2.4682617-1.8237305-5.0205078-3.7094727-7.8427734-4.9204102-4.3349609-1.8603516-8.4282227-2.5236816-12.5068359-2.0297852-.3378906.0402832-.6767578.0759277-1.0161133.1105957-1.4047852.1452637-2.8574219.295166-4.2324219.8864746l-.2919922.1254883-.0292969-.3166504c-.0039062-.0393066-.0092773-.0739746-.0141602-.1040039-.0131836-.0805664-.0263672-.1640625.0019531-.2558594.1123047-.3720703.2207031-.7468262.3300781-1.1218262.277832-.953125.5644531-1.9399414.9047852-2.8884277.434082-1.2106934,1.2573242-2.1826172,2.4467773-2.8884277,2.5249023-1.4985352,5.3525391-1.8574219,8.6430664-1.1010742,3.5200195.8095703,7.0620117,2.3964844,11.1450195,4.9924316,3.1660156,2.0119629,6.0102539,4.578125,8.7612305,7.0588379l.6982422.6296387c.4604492.4143066.9204102.8312988,1.3793945,1.248291,2.5263672,2.2924805,5.1386719,4.6635742,7.953125,6.6259766,3.296875,2.296875,6.4453125,3.5847168,9.6254883,3.9353027.7856445.0852051,1.625-.079834,2.4375-.2409668l.4101562-.0795898c.2641602-.0498047.5800781-.2502441.9145508-.5800781.2978516-.2944336.4350586-.6804199.3769531-1.0610352-.0561523-.364502-.2871094-.6757812-.6337891-.8547363-.3085938-.1582031-.6635742-.2678223-1.0273438-.317627-1.6474609-.2211914-3.3007812-.8303223-5.2036133-1.9174805-2.7231445-1.5556641-5.1298828-3.4619141-7.769043-5.6108398-.7578125-.6166992-1.5131836-1.2363281-2.269043-1.8557129-4.0688477-3.3361816-8.2753906-6.7868652-12.7207031-9.673584-3.6757812-2.3879395-6.8110352-4.0043945-9.8671875-5.0869141C39.7488024.1944917,37.0866931-.1961333,34.5378649.0904878c-2.65625.2963867-5.0214844,1.2324219-7.0302734,2.7817383-2.3793945,1.8339844-3.7460938,4.2351074-4.0629883,7.1367188-.0957031.8798828-.0317383,1.8085938.0307617,2.7072754.0209961.3112793.0424805.6213379.0581055.9306641.1118164,2.2736816-.4365234,4.2810059-1.6298828,5.9650879-.5717773.8061523-1.3256836,1.3833008-2.2407227,1.717041-.5014648.1818848-1.0419922.3701172-1.5961914.5192871-3.78125,1.0205078-6.0297852,3.8395996-6.684082,8.378418-.4287109,2.9782715.2089844,5.8974609,1.9506836,8.9255371.2519531.4387207.5253906.8547363.8144531,1.295166.1298828.1967773.2607422.3955078.390625.598877l.0766602.119873-.1035156.1811523c-.0332031.0654297-.074707.1459961-.1420898.215332-2.2358398,2.315918-2.5390625,6.6269531-.6616211,9.4121094.5844727.8669434,1.3305664,1.6381836,2.0522461,2.3833008.2495117.2578125.4990234.5153809.7421875.7768555.1992188.2148438.4243164.3994141.6625977.5942383.1933594.1591797.387207.3186035.5678711.4938965,1.0244141.9953613,1.0805664,2.329834.1401367,3.3212891-2.9707031,3.1293945-3.4956055,7.2248535-3.621582,10.4431152-.1806641,4.6137695,2.8818359,10.1186523,8.3173828,11.3417969,3.0166016.6801758,6.2241211.8583984,9.8085938.5415039,5.3857422-.4731445,9.9985352-1.954834,14.1020508-4.5273438.875-.5493164,1.7177734-1.2099609,2.5332031-1.8481445.375-.2944336.7495117-.5876465,1.1293945-.8725586.1044922-.0786133.2055664-.1630859.3164062-.2539062l.4946289-.4030762.0620117.3964844c.0063477.036377.0131836.0666504.019043.0917969.015625.0693359.0336914.1472168.0058594.2351074-.3027344.9523926-.6118164,1.9016113-.9208984,2.8510742-.6425781,1.9716797-1.3066406,4.0112305-1.8930664,6.0380859-1.1230469,3.880127-3.3413086,7.1274414-6.9814453,10.2172852-4.0786133,3.4619141-8.8657227,5.4580078-14.2280273,5.9350586-2.2436523.1987305-4.7861328.4245605-7.2011719,1.2016602-2.2055664.7094727-4.0263672,1.7841797-5.5668945,3.2856445-2.5981445,2.5322266-4.9047852,4.8432617-7.0527344,7.0654297-1.8232422,1.8857422-3.3242188,4.1977539-4.5893555,7.0673828l-.706543,1.5959473c-.5341797,1.2043457-1.0688477,2.4084473-1.5878906,3.6203613-.1894531.4414062-.2939453.838623-.3095703,1.1816406-.0288086.611084.2241211,1.1442871.6767578,1.4272461.3881836.2438965.8549805.2495117,1.2807617.0161133.3496094-.1904297.6699219-.5070801.9370117-.7919922.6020508-.6391602,1.2299805-1.3391113,2.0361328-2.270752,1.2475586-1.4377441,2.7294922-2.5087891,4.4047852-3.1845703.9223633-.3720703,1.8417969-.7563477,2.7612305-1.1413574,2.1923828-.9174805,4.4599609-1.8659668,6.7421875-2.6269531,2.0527344-.684082,4.1796875-1.2175293,6.2363281-1.7329102,1.1191406-.2802734,2.2763672-.5698242,3.40625-.8808594.7226562-.1987305,1.4492188-.3833008,2.1757812-.5671387,2.21875-.5632324,4.5131836-1.1452637,6.6469727-2.1489258l.1796875-.0842285c.6801758-.3205566,1.3842773-.6513672,2.0170898-1.0673828.6894531-.4536133,1.3798828-.904541,2.0712891-1.3552246,2.4736328-1.6149902,5.03125-3.2839355,7.4726562-5.0449219,3.1655273-2.2839355,5.5869141-5.4543457,7.1962891-9.425293,1.1547852-2.848877,2.4506836-5.6848145,3.703125-8.427002.3291016-.7207031.6582031-1.4414062.9853516-2.1630859.9199219-2.0280762,2.3076172-3.6220703,4.1245117-4.7382812.6669922-.409668,1.3232422-.8398438,1.9804688-1.269043.5366211-.3515625,1.0742188-.7028809,1.6166992-1.0439453,2.4384766-1.5305176,4.5229492-3.5734863,6.1962891-6.0710449.9702148-1.4489746,1.9311523-2.904541,2.8920898-4.3588867,1.0605469-1.6054688,2.1210938-3.2106934,3.1933594-4.8078613,1.9013672-2.8291016,2.7143555-6.2087402,3.3271484-9.1533203.1152344-.5546875.2104492-1.1142578.3061523-1.6748047l.1083984-.6289062c.1640625-.9333496.0625-1.9221191-.3110352-3.0251465-.1279297-.3757324-.3671875-.376709-.815918-.3513184l-.0683594.0036621c-.1762695.0102539-.3613281.0712891-.5566406.1359863-.0957031.0307617-.1904297.0627441-.2861328.0888672l-.25.0683594-.0400391-.2565918c-.2592773-1.6879883-.8867188-2.260498-2.46875-2.223877-.347168.0102539-.6938477.0297852-1.0546875.0505371l-.9716797.0515137,1.4663086-2.5649414.2041016.130127c.3061523.1950684.6088867.3908691.9106445.5856934.7280273.470459,1.4160156.9147949,2.1308594,1.3430176.4726562.282959,1.0043945.5427246,1.722168.8444824,1.4726562.6176758,2.8754883.4470215,4.2851562-.5314941.2583008-.1789551.5224609-.329834.7773438-.4750977.1079102-.060791.2124023-.1208496.3110352-.1799316l.3173828-.1894531.3925781,4.6523438-.4584961.1330566-.1943359-.1564941c-.0698242-.0637207-.1391602-.1274414-.2011719-.199707-.5874023-.6748047-1.4008789-.6982422-1.972168-.0375977-.2636719.3027344-.5141602.7001953-.7451172,1.1818848-1.0336914,2.1489258-2.1000977,4.4572754-2.7841797,6.9660645-.3452148,1.2634277-.75,2.5266113-1.1416016,3.7487793-.4223633,1.317627-.8588867,2.6804199-1.21875,4.0393066-.4462891,1.6850586-.7998047,3.4338379-1.1411133,5.1254883-.1479492.7319336-.2963867,1.4645996-.4516602,2.1938477-.034668.1650391-.059082.3325195-.0849609.5097656l-.0751953.4912109-.2197266-.0244141c-.0629883-.0065918-.1264648-.0168457-.1894531-.0263672-.3984375-.0627441-.5043945-.0644531-.5786133.2783203-.0405273.1914062-.2329102.2399902-.3876953.2802734-.0375977.0092773-.0756836.0187988-.1064453.0300293-2.4262695.8930664-4.2460938,2.2810059-5.5639648,4.2434082-.3833008.5698242-.7641602,1.1435547-1.1455078,1.7160645-1.1669922,1.7543945-2.3740234,3.5688477-3.6333008,5.2932129-2.2021484,3.0178223-4.0810547,6.2773438-5.4716797,8.7805176-2.012207,3.6223145-4.6713867,6.7485352-7.2431641,9.7729492l-.6206055.730957c-1.6967773,2-3.6601562,3.6484375-6.0029297,5.0393066-3.5078125,2.083252-6.9296875,4.1647949-10.1713867,6.1862793-1.6235352,1.0129395-3.1542969,2.4216309-4.6811523,4.3071289-2.2856445,2.8220215-3.4672852,6.2895508-3.6123047,10.5996094-.1962891,5.8039551,1.2246094,11.3015137,4.3432617,16.807373.6621094,1.1696777,1.34375,2.3251953,2.0253906,3.4807129l.6416016,1.0881348c.1269531.215332.2509766.3916016.3779297.5368652.4414062.505127.8779297.6486816,1.3740234.4526367.5483398-.2172852.8251953-.6794434.8237305-1.3737793-.0009766-.2568359.0004883-.5136719.0019531-.7705078.0053711-.8537598.0102539-1.7365723-.0712891-2.5883789-.5117188-5.3569336.4707031-10.6013184,3.0932617-16.5046387,1.3896484-3.1264648,3.4155273-5.8649902,6.3774414-8.6184082,2.8808594-2.6765137,5.7919922-4.8293457,8.9003906-6.5791016,3.4365234-1.934082,6.4145508-4.7128906,8.8520508-8.2602539,2.5273438-3.6765137,5.1313477-7.6875,8.4433594-13.005127,1.706543-2.7404785,2.434082-5.9436035,2.965332-8.9960938.2578125-1.4816895.5297852-2.7075195.855957-3.8574219l.2441406-.8583984.2036133.8688965c.0092773.0400391.0209961.0795898.0322266.119873.027832.0974121.0595703.2070312.0664062.3259277.3212891,5.2390137,1.9418945,10.2949219,5.1015625,15.9106445.2324219.4133301.2563477.7910156.2646484,1.2792969.012207.6774902.1762695,1.3242188.4394531,1.7299805,1.0029297,1.5500488,2.1074219,3.1208496,3.3764648,4.7993164,1.6948242,2.2436523,3.8212891,4.2172852,6.5,6.0344238.887207.6018066,1.7670898,1.2165527,2.6469727,1.8312988.7568359.529541,1.5126953,1.0581055,2.2744141,1.578125l.3173828.2185059c1.0268555.7104492,1.9975586,1.3803711,3.2436523,1.5246582l.3662109.0422363-.3017578.4790039c-.0546875.0908203-.0961914.1564941-.1425781.2182617-3.2963867,4.3269043-5.715332,9.5817871-7.3959961,16.0651855-.5136719,1.9812012-.6503906,4.2116699-.4189453,6.8178711.6982422,7.8649902,3.5141602,14.3325195,8.3710938,19.2226562,4.1591797,4.1882324,7.7700195,7.1899414,11.3623047,9.4477539,1.0029297.6306152,1.9794922,1.34375,2.9243164,2.0336914.3823242.2792969.7641602.5585938,1.1494141.8330078.4174805.2990723.6118164.3139648.8320312.0712891.2993164-.329834-.0649414-.7666016-.2358398-.9399414-.8183594-.8286133-1.6425781-1.6513672-2.4663086-2.4741211-1.7470703-1.7441406-3.5527344-3.5483398-5.277832-5.3842773-1.4267578-1.5200195-2.6757812-3.1975098-3.7089844-4.6379395-3.0527344-4.2539062-2.7094727-11.2724609-.3632812-14.7072754,1.0332031-1.5117188,1.9238281-3.2661133,2.8891602-5.6877441.6928711-1.7402344,1.7207031-3.2285156,3.0537109-4.4243164l.9956055-.8942871c1.4716797-1.3212891,2.9926758-2.6877441,4.5146484-3.9970703,2.0302734-1.7458496,3.5390625-3.3344727,4.7480469-4.9987793.0581055-.0795898.1108398-.1640625.1694336-.2578125l.2758789-.4299316.2001953.2556152c.137207.1762695.2670898.3469238.3925781.5126953.2563477.3364258.4980469.6550293.7539062.9494629,1.5966797,1.8359375,3.5537109,3.0842285,5.2583008,4.0634766,3.6044922,2.0722656,7.074707,4.4067383,10.3144531,6.9418945,2.0366211,1.5922852,4.015625,3.4975586,6.4179688,6.1757812l.546875.6103516-.784668-.234375c-.0776367-.0224609-.1337891-.0366211-.1762695-.0478516ZM46.8923571,71.6329683c-3.878418,2.8781738-8.3305664,4.6279297-13.6108398,5.3476562-.4765625.0656738-.9550781.1115723-1.4150391.1564941l-.8911133.0900879.4975586-2.4489746c.3266602-1.6015625.6479492-3.1750488.9511719-4.7524414.4165039-2.1696777,1.0493164-4.4645996,1.9345703-7.015625,1.5976562-4.6025391,4.5292969-7.8068848,8.7148438-9.5256348,2.8374023-1.1647949,5.8442383-1.5163574,8.7524414-1.8564453l.1162109-.0141602c2.1572266-.2529297,4.3544922-.4619141,6.4794922-.6645508,1.28125-.121582,2.5629883-.2443848,3.8432617-.3757324.5981445-.0617676,1.2070312-.1601562,1.7949219-.2548828.2832031-.0458984.5654297-.0908203.8486328-.1330566l.1669922-.0244141.2080078.4245605-.4892578.5153809c-.3105469.3291016-.6279297.6503906-.9458008.9729004-.6782227.6870117-1.3793945,1.3981934-1.9902344,2.1657715-2.5097656,3.1508789-5.0336914,6.4506836-7.2597656,9.3625488-2.0229492,2.6437988-4.5200195,5.6662598-7.7060547,8.0305176Zm31.9536133-20.8681641c.4785156-.8554688.96875-1.7026367,1.4589844-2.5500488l.7714844-1.3371582.4287109.3034668-.0141602.1350098c-.0053711.0917969-.0083008.1555176-.0317383.222168-1.5092773,4.2988281-2.9287109,8.1469727-5.0151367,11.7080078l-3.5981445,6.140625c-1.6088867,2.7495117-3.4179688,4.767334-5.53125,6.1674805-.7592773.5024414-1.5170898,1.0429688-2.25,1.565918-.5581055.3994141-1.1162109.7976074-1.6811523,1.1845703-2.4243164,1.6599121-4.2817383,3.8884277-5.5209961,6.6223145-.5019531,1.1066895-1.0058594,2.2126465-1.5107422,3.3186035-1.0444336,2.2902832-2.1240234,4.6577148-3.1625977,6.9987793-1.5610352,3.5209961-3.5488281,6.0905762-6.0776367,7.8554688-2.6293945,1.8369141-5.3945312,3.7504883-8.2182617,5.685791-1.6210938,1.1125488-3.3549805,1.9663086-5.1533203,2.5361328-.4282227.1357422-.8564453.2753906-1.284668.4160156-1.7109375.5576172-3.4804688,1.1357422-5.2641602,1.4602051-6.800293,1.236084-13.0693359,4.0241699-19.4267578,7.0166016-.1933594.0910645-.3803711.1967773-.5678711.3017578-.1191406.0666504-.2387695.1330566-.359375.1967773-.0795898.0432129-.1630859.0805664-.2827148.1350098l-.8720703.4047852.3427734-.6203613c.0620117-.1125488.1123047-.2099609.1567383-.295166.0869141-.1677246.1547852-.2998047.246582-.4226074.2631836-.3505859.5195312-.7094727.7763672-1.0686035.6088867-.8498535,1.2382812-1.7299805,1.9536133-2.4975586,1.4516602-1.5593262,2.9775391-3.0869141,4.4521484-4.5629883.6113281-.6120605,1.2226562-1.2231445,1.8305664-1.8388672,1.730957-1.753418,3.7280273-2.8891602,5.9360352-3.3764648,1.0595703-.2333984,2.1967773-.4238281,3.3798828-.5634766l.2963867-.034668c2.7524414-.3251953,5.5986328-.6616211,8.3222656-1.4572754,3.7182617-1.0861816,7.3041992-3.2753906,11.2836914-6.8891602,2.7412109-2.4882812,4.6533203-5.1948242,5.8452148-8.2744141.5209961-1.3447266,1.0576172-2.7927246,1.4604492-4.2697754,1.1679688-4.2895508,2.7299805-7.9182129,4.7734375-11.0952148,2.2011719-3.4206543,5.1503906-5.791748,8.7651367-7.0476074,1.0527344-.3654785,2.2905273-.8154297,3.4848633-1.3730469,3.5239258-1.6447754,6.2358398-4.1608887,8.0600586-7.4794922.2670898-.4865723.5288086-.9765625.7910156-1.4667969.331543-.6203613.6640625-1.2416992,1.0063477-1.8547363Zm-.8012695-2.7148438l-.3305664.5097656c-.3789062.5830078-.7451172,1.166748-1.109375,1.7460938-.8237305,1.3120117-1.6020508,2.5507812-2.4833984,3.7438965-1.8481445,2.4995117-4.4858398,4.2080078-8.3017578,5.378418-.6806641.2089844-1.3720703.3776855-2.1044922.5568848-.3486328.0852051-.7089844.1733398-1.0839844.2697754l-.6240234.1604004.3798828-.5202637c4.7641602-6.5246582,9.4125977-10.1271973,15.0717773-11.6838379l.5859375-.1611328Zm-.3022461-7.9089355c-.1362305.1611328-.2685547.3271484-.4013672.4929199-.293457.3664551-.5966797.7451172-.9394531,1.0732422-1.4775391,1.4140625-3.2299805,2.4936523-5.3564453,3.3015137-3.7817383,1.4348145-7.9213867,2.1359863-13.027832,2.2053223-2.3422852.0317383-5.1044922.081543-7.8305664.2070312-2.8139648.1303711-5.6503906.8696289-8.6723633,2.262207-5.6743164,2.6157227-9.7402344,7.248291-12.0834961,13.769043-1.6591797,4.6186523-2.4360352,8.9802246-2.3759766,13.3352051l.0039062.2587891-.7075195-.0703125c-.2915039-.0280762-.605957-.059082-.9199219-.0927734-3.1367188-.3347168-5.2958984-1.7414551-6.6005859-4.2988281-.8618164-1.6887207-1.2138672-3.3364258-1.0776367-5.036377l.0400391-.5070801c.1665039-2.1601562.3388672-4.3935547,1.5185547-6.3120117.9516602-1.5490723,1.2539062-3.2883301.9243164-5.3203125-.1000977-.6184082-.3012695-1.1706543-.565918-1.5529785-.8740234-1.262207-1.6923828-2.3203125-2.5039062-3.2341309-.9628906-1.0861816-1.546875-2.3747559-1.7866211-3.940918-.2285156-1.496582.2006836-2.6699219,1.2768555-3.486084.2392578-.1818848.421875-.340332.5766602-.4995117.5610352-.5766602.6445312-1.2185059.2553711-1.9626465l-.0283203-.0524902c-.0839844-.1582031-.1796875-.3374023-.1850586-.5388184-.0390625-1.4057617-.5292969-2.7131348-1.0039062-3.9763184l-.0839844-.2250977c-.597168-1.5979004-.7275391-3.3120117-.4106445-5.3942871.2880859-1.894043,1.2143555-3.0861816,2.8305664-3.6418457.9780273-.3364258,1.7294922-.6879883,2.3632812-1.1069336,2.7011719-1.7814941,4.4570312-4.4506836,5.2197266-7.9331055.1289062-.5878906.3754883-.8012695.9433594-.8183594,1.5341797-.0439453,2.7973633-.1235352,3.9746094-.2519531,7.722168-.845459,14.1899414.9765625,19.769043,5.5563965,3.0214844,2.4807129,6.3037109,5.0683594,9.8305664,7.1948242,4.7128906,2.8405762,9.2495117,4.0205078,13.847168,3.5969238.4150391-.0375977.828125-.0917969,1.21875-.1442871l.7216797-.092041.1542969,1.0507812c.1279297.8620605.2490234,1.6765137.3452148,2.5048828.0302734.2680664-.2788086.6318359-.5195312.6860352-.5698242.1303711-1.1401367.2719727-1.7099609.4125977-1.4814453.3681641-3.0136719.7478027-4.546875.9267578-4.6459961.5407715-9.2148438.1416016-13.5771484-1.1884766-1.9418945-.5922852-3.8774414-1.3325195-5.7490234-2.0476074-1.203125-.4602051-2.4477539-.9353027-3.6796875-1.3664551l-1.4501953-.5117188c-2.3623047-.8359375-4.8046875-1.7009277-7.2490234-2.3288574-4.5488281-1.1696777-8.8618164.1647949-12.8154297,3.967041-.6645508.6381836-1.0625,1.3186035-1.215332,2.0805664-.1235352.6137695.0048828,1.175293.3452148,1.5014648.2832031.2717285.6884766.3608398,1.1396484.248291.6289062-.1538086,1.2475586-.4189453,1.8266602-.6767578,1.4682617-.6520996,3.2045898-1.4309082,4.9575195-2.262207,2.5048828-1.1865234,5.1430664-1.3430176,7.8432617-.4667969,2.3554688.765625,4.8300781,1.657959,7.5639648,2.7272949l.3154297.1235352c3.0185547,1.1828613,6.140625,2.4067383,9.3554688,3.0402832,7.0986328,1.3981934,13.3764648.8847656,19.1899414-1.5705566.090332-.0385742.1835938-.0639648.2773438-.0891113l.2495117-.0722656.3178711.4040527-.1220703.1433105Zm1.8378906,35.2211914l-.2202148.0056152c-.7773438.0185547-.8237305.0205078-1.0410156.8725586l-.2006836.7851562c-.4892578,1.9128418-.9946289,3.8903809-1.4541016,5.8442383-.953125,4.0581055-2.2373047,7.1723633-4.0415039,9.8012695-.7246094,1.0541992-1.4428711,2.1149902-2.1606445,3.1750488-1.4438477,2.1320801-2.9360352,4.3371582-4.4604492,6.4589844-3.0615234,4.2585449-6.4326172,7.2922363-10.3051758,9.2734375-3.5908203,1.8369141-6.6040039,4.517334-9.324707,7.1394043-1.6821289,1.6223145-3.5629883,3.6401367-4.7553711,6.2998047-1.1806641,2.6342773-2.2397461,5.2407227-3.1469727,7.746582-1.1635742,3.213623-1.6108398,6.236084-1.3681641,9.2387695.0297852.3730469.0419922.7480469.0541992,1.1228027l.0258789.6833496-.4819336.1479492-.1459961-.1948242c-.0473633-.059082-.09375-.1191406-.1298828-.1865234-.8662109-1.6083984-1.9448242-3.7629395-2.5976562-6.1677246-.7392578-2.7233887-.9692383-5.6999512-.7456055-9.6501465.1821289-3.2331543,1.3256836-6.0578613,3.3979492-8.3969727,1.5551758-1.7543945,3.1254883-3.0974121,4.800293-4.1049805,1.362793-.8210449,2.7280273-1.6391602,4.0927734-2.4562988,1.765625-1.0581055,3.53125-2.1162109,5.2944336-3.1809082,2.2109375-1.3364258,3.9555664-2.7666016,5.3325195-4.3737793,3.8325195-4.472168,7.8339844-9.3259277,10.9321289-15.137207,1.4799805-2.776123,3.2631836-5.411377,4.987793-7.9597168.8076172-1.1918945,1.6420898-2.425293,2.434082-3.6557617,1.2451172-1.9343262,2.9277344-3.3430176,4.5444336-4.6193848.0791016-.0617676.1640625-.0947266.2539062-.128418.0410156-.0158691.0869141-.0336914.1386719-.0561523l.3339844-.1491699-.0429688,1.822998Zm13.8051758-44.8112793c.1240234-.0310059.222168-.0554199.3208008-.0683594,2.6738281-.3815918,5.1108398-1.4594727,7.2407227-3.2023926,2.0517578-1.6784668,4.0332031-3.541748,5.8901367-5.5378418,2.8549805-3.0703125,5.9272461-5.2998047,9.3920898-6.8171387,2.78125-1.2182617,5.6728516-2.1228027,8.8398438-2.7626953,4.7431641-.9577637,8.9985352-1.119873,13.0102539-.4978027,5.9824219.9306641,10.3012695,5.8134766,10.7475586,12.1486816.0600586.8566895.4921875,1.4387207,1.3217773,1.7797852,1.862793.7646484,3.3095703,2.0195312,4.300293,3.7272949.7905273,1.3625488,1.3657227,2.8564453,1.7094727,4.4384766.6425781,2.9624023.3632812,5.2470703-.878418,7.190918-1.8476562,2.8901367-4.2470703,5.0476074-7.1328125,6.4121094-.8510742.4030762-1.2553711.940918-1.3110352,1.7451172-.0566406.8134766.2744141,1.4038086,1.1064453,1.9765625.5273438.3615723,1.0556641.861084,1.5263672,1.4431152.3876953.4790039.6992188,1.0327148,1.0004883,1.5688477l.1411133.2492676c1.2397461,2.1826172,2.5126953,4.5332031,3.2626953,7.1525879,1.1577148,4.0419922.6054688,9.3447266-4.4145508,12.1057129-1.1542969.6342773-2.3041992,1.3391113-3.4165039,2.0205078-.4306641.2631836-.8613281.5275879-1.293457.7880859l-.1308594.0769043c-.1826172.1057129-.3720703.2145996-.4560547.3552246-.2275391.3793945-.3374023.7075195-.3085938.9238281.0761719.5783691-.1542969.7817383-.5507812.9213867-1.0991211.388916-2.2290039.5847168-3.3652344.5847168-.1503906,0-.300293-.0026855-.4511719-.0102539-2.7236328-.1228027-5.4594727-1.0495605-8.3647461-2.8312988-.6108398-.3747559-1.081543-.8742676-1.4394531-1.5292969-2.4853516-4.5473633-5.4829102-8.7880859-8.9091797-12.604248-1.3833008-1.541748-2.9946289-3.3823242-4.4570312-5.3493652-4.5351562-6.0964355-9.3955078-10.6313477-14.8579102-13.8647461l-1.4243164-.8349609.1074219-.248291c.019043-.0524902.0449219-.1237793.1166992-.1772461.1166992-.0852051.2148438-.1564941.328125-.2060547,4-1.7197266,7.3408203-2.3093262,10.5151367-1.8464355,3.5561523.5175781,6.9980469,2.1088867,10.5224609,4.8659668,3.2075195,2.5097656,5.8969727,5.6464844,7.8823242,8.0991211,3.3813477,4.177002,7.480957,7.6306152,12.184082,10.263916.3491211.1958008.8759766.4733887,1.4189453.6186523.9077148.2390137,1.7631836-.2314453,2.043457-1.1254883.2509766-.7976074.074707-1.5380859-.5087891-2.1416016-.8476562-.8781738-1.6186523-1.6005859-2.3574219-2.2106934-.9975586-.8220215-2.0063477-1.6279297-3.0151367-2.4328613-1.6875-1.3476562-3.4316406-2.7404785-5.0917969-4.1940918-1.7021484-1.4919434-3.3793945-3.0786133-5.0009766-4.6135254-1.1333008-1.0722656-2.3041992-2.1809082-3.4731445-3.246582-5.9394531-5.4111328-12.1943359-7.510498-19.1279297-6.4064941-2.1269531.3374023-4.5917969.8986816-6.7456055,2.5041504-.4892578.3635254-1.0209961.6635742-1.5351562.9541016-.1645508.0927734-.3295898.1855469-.4926758.2802734l-.0009766.0007324c-.1254883.0722656-.2602539.0656738-.3686523.059082-.0322266-.001709-.0644531-.0026855-.09375-.0026855l-.2133789.012207-.0727539-.5400391.1582031-.0703125c.1621094-.072998.324707-.1450195.4858398-.2202148l.1098633-.0505371c.1298828-.0598145.2602539-.119873.3876953-.1835938,1.8032227-.9108887,3.0507812-2.5305176,3.9360352-3.8395996,2.0917969-3.0917969,4.4863281-5.7573242,7.1181641-7.9221191,2.5356445-2.0881348,5.277832-3.1459961,8.1533203-3.1459961h.0874023c1.5615234.012207,3.1425781.4348145,5.1259766,1.3728027,2.4785156,1.1733398,5.2006836,2.2080078,8.5664062,3.2568359,2.9848633.9296875,6.0273438.9785156,8.34375.9108887.3105469-.0085449.597168-.0554199.8520508-.1396484.6206055-.2062988.9760742-.6391602,1.0551758-1.2858887.0825195-.6672363-.1538086-1.1928711-.7021484-1.5639648-.277832-.1875-.5849609-.3383789-.8881836-.435791-1.7641602-.5690918-4.1035156-1.2380371-6.5537109-1.364502-2.1757812-.1115723-4.1733398-.5876465-6.105957-1.456543-1.3618164-.6118164-3.1611328-1.4094238-4.9970703-2.1442871-2.0717773-.8293457-4.1552734-1.1245117-6.1953125-.8771973-3.1103516.3769531-6.0517578,1.670166-8.7431641,3.8442383-3.144043,2.5400391-5.6030273,5.3496094-7.515625,8.5883789-.6230469,1.0561523-1.3745117,2.0065918-1.9589844,2.717041-.2666016.3242188-.5991211.564209-.9516602.8190918-.1582031.1142578-.3217773.2324219-.4853516.3635254l-.2910156.2324219-.0791016-.364502c-.4921875-2.2670898-1.4243164-4.364502-2.934082-6.5996094l-.1884766-.2792969.5415039-.1264648Zm-3.4418945,9.4250488l-.2768555.185791-2.2670898-9.5612793.3642578.0852051c.1171875.0273438.230957.045166.3398438.0629883.2578125.0410156.5019531.0795898.7158203.2182617.5283203.3439941.9375.6953125,1.2514648,1.0739746,1.3662109,1.645752,2.3271484,3.5800781,2.8569336,5.7478027.1630859.6672363.199707,1.3803711.2324219,2.0092773.0141602.2746582,0,.6091309-.2431641.751709-.0688477.0402832-.1416016.0571289-.215332.0571289-.1831055,0-.371582-.1013184-.5126953-.1901855-.8774414-.5529785-1.5517578-.9052734-2.2456055-.4406738Zm10.6352539,22.5646973c2.8769531,2.3476562,5.7646484,4.6801758,8.6518555,7.0117188,2.2260742,1.798584,3.75,3.611084,4.7958984,5.7055664,4.2167969,8.4414062,4.4111328,17.296875.5776367,26.3198242v.0009766c-.2353516.552002-.5361328,1.0778809-.8271484,1.5856934-.1367188.2390137-.2739258.4780273-.4057617.7226562l-.1318359.2456055-.2167969-.175293c-.1914062-.1555176-.3710938-.3027344-.5419922-.4443359-.3383789-.2783203-.6464844-.5322266-.9643555-.7712402-1.6601562-1.2397461-3.59375-2.0253906-5.2993164-2.71875-2.5004883-1.0168457-4.6850586-2.6352539-6.4926758-4.8095703-2.5786133-3.1020508-4.4560547-6.9680176-5.581543-11.4916992-1.9296875-7.7590332-2.7700195-14.192627-2.6455078-20.2497559.0732422-3.5397949.1469727-7.0803223.2265625-10.6210938.0043945-.1931152.0302734-.3859863.0625-.6203613.015625-.1152344.0332031-.2416992.0498047-.3852539l.078125-.6728516.4819336.7966309c.0634766.1022949.1035156.166748.137207.236084,2.0351562,4.1621094,4.7421875,7.6401367,8.0454102,10.3354492Zm3.3388672,49.9421387l-.4228516-.3308105c-2.1591797-1.6923828-4.3920898-3.4421387-6.6313477-5.0898438-1.9033203-1.3999023-3.4233398-2.838623-4.6464844-4.3979492-.3115234-.3974609-.6293945-.7893066-.9477539-1.1818848-1.3227539-1.6335449-2.6904297-3.3232422-3.5898438-5.3691406-.8613281-1.9587402-1.7753906-4.072998-2.6274414-6.2539062-1.71875-4.3999023-2.4760742-9.1984863-2.2495117-14.2609863.2802734-6.2687988,1.8232422-12.3586426,4.5864258-18.098877.0302734-.0646973.0693359-.1237793.1098633-.1855469l.2026367-.3232422.2060547.2145996c.0615234.059082.1254883.1181641.1293945.2211914l.0009766.0627441c.0014648.105957.0029297.213623-.0043945.3195801-.5493164,7.7075195-.0458984,14.6818848,1.5380859,21.3217773,1.4433594,6.0512695,3.1181641,10.4157715,5.4296875,14.1523438,2.4316406,3.9287109,5.3056641,6.5883789,8.7880859,8.130127,1.6191406.7177734,3.2436523,1.5041504,4.8139648,2.2641602l.6850586.3308105c.6088867.2944336,1.1977539.6074219,1.8212891.9389648.2792969.1481934.5615234.2980957.8505859.4489746l.2363281.1237793-.1552734.2165527c-1.8115234,2.5292969-3.9980469,5.4685059-6.4726562,8.0869141l-.1660156.1750488-.168457-.1723633c-.1542969-.1591797-.3007812-.3203125-.4438477-.4787598-.2910156-.3205566-.565918-.6242676-.8725586-.8642578Zm20.7094727,3.8405762c-1.5107422,2.8012695-3.3413086,5.9924316-5.9584961,8.3981934-2.3515625,2.1601562-4.3032227,3.9287109-6.1425781,5.565918-1.5117188,1.3457031-2.5297852,2.6306152-3.2045898,4.0429688-1.6196289,3.390625-2.7988281,6.0241699-3.8237305,8.5395508-.9804688,2.4057617-1.2416992,5.1340332-.7773438,8.109375.1191406.763916.2973633,1.5239258.4863281,2.3278809.0908203.3862305.184082.7836914.2749023,1.1987305l.2705078,1.234375-.6899414-1.0581055c-.1298828-.1987305-.2539062-.3833008-.3725586-.5605469-.2470703-.3671875-.4804688-.7148438-.6850586-1.0766602-.2368164-.4179688-.4614258-.8461914-.6855469-1.2736816-.3359375-.6418457-.6835938-1.3054199-1.0698242-1.9194336-2.3120117-3.6652832-3.2817383-8.0446777-3.0537109-13.7819824.0512695-1.2961426.2202148-2.4929199.5024414-3.5576172,1.3886719-5.2407227,3.6713867-10.0429688,6.7836914-14.2751465,1.4697266-1.9980469,3.0791016-3.9230957,4.6352539-5.7844238.625-.7468262,1.2495117-1.4936523,1.8676758-2.2473145l.2666016-.3251953c1.3427734-1.6342773,2.7304688-3.3249512,3.6757812-5.3081055,4.3818359-9.1918945,4.7626953-18.6489258,1.1318359-28.1098633-1.7094727-4.4523926-4.1484375-7.8581543-7.4570312-10.4118652-2.0458984-1.5800781-4.0791016-3.2578125-6.0449219-4.8808594-1.1323242-.9345703-2.2646484-1.8688965-3.4047852-2.7900391-2.6313477-2.1254883-4.7299805-4.7280273-6.2382812-7.7355957-.6806641-1.3569336-1.0947266-2.7768555-1.3037109-4.4665527l-.0541992-.4394531.8828125.4665527c.34375.1809082.6469727.340332.9487305.5041504.6577148.3571777,1.3212891.703125,1.9853516,1.0498047,1.4624023.7619629,2.9750977,1.5510254,4.4038086,2.4506836,4.6611328,2.9370117,9.2109375,6.9538574,13.9111328,12.2827148l.4013672.4545898c2.0698242,2.3410645,4.2099609,4.7617188,5.7304688,7.708252,1.1376953,2.2033691,2.5605469,4.3269043,4.2290039,6.3110352.3007812.3579102.578125.7907715.8476562,1.3242188,2.2636719,4.472168,3.5991211,9.2648926,3.9702148,14.2431641.5068359,6.7983398-.7900391,13.2695312-3.8549805,19.2336426-.7905273,1.5371094-1.5678711,3.0422363-2.3842773,4.5566406Z" stroke-width="0"/>
  </g>
</svg>