<?xml version="1.0" encoding="UTF-8"?>
<svg id="Layer_2" data-name="Layer 2" xmlns="http://www.w3.org/2000/svg" viewBox="0 0 142.9797301 134.989433">
  <g id="Layer_1-2" data-name="Layer 1">
    <g>
      <path d="m72.409775,47.7108356c-2.0643002-1.3038008-3.6097311-3.5706975-2.8222779-6.075953.5808528-2.7990554,3.8275424-8.4441565,7.223006-7.2881245.418721.2355306.6716983.7589319.9115565,1.1428447-.2167208-.0837578-.4593732-.4285518-.7016508-.5846863-2.1475128-1.1007613-3.7551317,2.6281492-4.5624509,4.0913727-1.4285175,2.81059-1.1863422,5.911453-.0481829,8.7145464Z" fill="#423b30" stroke-width="0"/>
      <path d="m74.8299949,51.0021131c-1.3800279-1.0094898-1.8579383-3.1615858-.9813434-4.6451183.2473548-.4398138.8423149-.7469543,1.1471212-.1744841-.0339052.0548788-.1998534-.0861602-.2680387-.0878299-.2556693-.0286065-.2989453.2819586-.3570783.4674151-.0900277.7985448.2725026,1.616683.7167463,2.2155107.7404288,1.0426113,2.0759881.3906087,2.7086017-.3357469,1.138023-1.2138923,2.2768979-2.4307151,3.6725665-3.354164.0535669.4895813-.0556795,1.081679-.1398122,1.6007697-.257782,2.9190186-3.6134112,6.1720803-6.4987631,4.3136479Z" fill="#423b30" stroke-width="0"/>
      <path d="m81.5158671,43.5453484c-.4981172-1.5163474.2206395-3.1554351-.0218765-4.6321526-.4611792-1.6236685-2.2651759-2.2542717-3.7074258-2.6126107.01714.0384373.1610413.1137273.1133014.1439524-.1831905-.0348934-.3184025-.0348934-.3664831-.2182543.6749355-.7737548,2.3568733-.5139964,3.3322875-.4053464,3.8668315.4857307,4.7116339,6.9380147.6501966,7.7244115Z" fill="#423b30" stroke-width="0"/>
      <path d="m83.3529512,37.2881643c3.1862395-.7925645,5.7440225-3.0493237,8.0516566-5.2645788,3.637639-3.8251911,7.126981-7.816126,10.9434828-11.4710754,4.4597811-4.3189637,9.4608532-9.3513002,16.164513-8.9500088-3.4907731,1.2551238-6.44506,3.5793356-9.159693,6.1235226-3.0950531,2.6661776-6.1500334,5.3858368-9.163714,8.1435074-5.07045,4.3148576-9.938934,10.5067188-16.8362454,11.4186331Z" fill="#423b30" stroke-width="0"/>
      <path d="m142.3458996,20.5886303c-1.5109805-2.3656307-2.5040118-5.0145831-4.4420959-7.0623055-4.8980616-5.0180758-12.8775119-4.6876106-19.0935498-2.7121456-.9511864.3500076-1.7765998.8656737-2.4905519,1.5745315.5463683-.9002605,1.6028142-1.6925523,2.603717-2.1850471,9.8720095-4.7705506,23.2625978-2.6922454,23.4224806,10.3849666Z" fill="#423b30" stroke-width="0"/>
      <path d="m117.4667892,49.2182893c5.4070148-3.2961844,11.6775395-5.5309137,16.0422156-10.2761973,2.0207515-2.2596386,3.4235761-4.9832335,4.8413257-7.64171,2.2885176-4.3545897,4.3044645-9.1031616,3.0532764-14.035861-.244731-.8325863-.4571924-1.7269176-1.1383978-2.2811573.653059.2405397,1.0932476,1.1064349,1.4263367,1.7490497,3.058013,6.3718144.0599049,13.5277938-2.6565342,19.4788937-3.6979187,8.6292722-12.4568145,13.2455796-21.5682224,13.0069822Z" fill="#423b30" stroke-width="0"/>
      <path d="m105.6009138,49.7602788c-6.7278193-.200586-15.3006623-.7809447-19.4574432-6.7341915,7.519089,7.5934419,21.7941778,4.6645926,31.4018628,3.7064206,2.0401746-.2383759,4.0691725-.5693693,6.0214661-.7759015-5.4536302,3.0945079-11.8014384,3.7893777-17.9658858,3.8036724Z" fill="#423b30" stroke-width="0"/>
      <path d="m88.5524796,38.523405c-.6865212-.0528683-1.975908-.2845824-2.1720131-.9072289.5107592.5771726,1.4451805.5203004,2.1788623.5536604,3.7140706-.1706336,7.1706659-1.8922013,10.1087668-4.0984775,6.5880412-4.7100324,11.8542556-11.1710908,18.8896754-15.2278427,2.2548509-1.2419025,4.8628615-2.1219731,7.3930092-2.246298-1.2077757.6772186-2.3727866,1.4141547-3.5247806,2.1770563-4.1452292,3.3121488-8.3653225,6.5484113-12.4563375,9.9310966-5.9905595,4.5023416-12.3975571,10.4211038-20.4171826,9.8180337Z" fill="#423b30" stroke-width="0"/>
      <path d="m125.2804277,40.2998515c2.7692563-2.7779285,5.9166496-5.0971142,6.765064-9.0886113,1.1609559-4.7408708,2.0070531-12.4462681-4.1303041-13.7594397-1.02312-.2033802-2.1332351-.6557339-3.1608191-.3794319-.0330533.0293391.0669245.1283798.0027601.1150222-.2529091-.37904.7893955-.4344299,1.037977-.4750821,8.6736045-1.2935611,10.6338719,7.5969006,9.368781,14.371182-.6707101,5.6701125-4.7019224,8.2282193-9.8834589,9.2163608Z" fill="#423b30" stroke-width="0"/>
      <path d="m103.061736,40.7528867c-3.6982936-.0430205-7.5927604-.5176766-11.0175973-1.7404626,8.0474653,1.682483,16.2431254-.1766479,24.2160333-1.1514828,3.5561642-.4752014,7.0249927-.9425824,10.4767152-1.177687-3.3967585,1.9532478-7.1951663,2.9870505-11.1004351,3.2059352-4.1815197.4107644-8.3677078.9066326-12.5747161.8636973Z" fill="#423b30" stroke-width="0"/>
      <path d="m75.6211282,35.5995477c-13.6107167-4.4667666-7.7534269-25.461667-22.586606-31.8205157-1.128107-.4169491-2.3290676-.9881585-3.5395694-.8529976.3215033-.1886255.9049458-.1242908,1.3302435-.1089567,7.0138159.6992314,12.1122761,6.5824358,14.716402,12.7447023,3.0963821,6.7868212,4.4923915,14.7676176,10.0795299,20.0377677Z" fill="#423b30" stroke-width="0"/>
      <path d="m26.0628629,15.5326624C25.5798753,5.7535089,32.4788223-.3756361,42.0351554.017886c3.5729976.1592183,9.5602518,1.2934759,10.2368911,5.434599-1.7741805-3.9352213-7.3971324-3.6231739-11.0815913-3.3175157-8.0427288.7177345-11.973418,6.8130424-15.1275923,13.3976931Z" fill="#423b30" stroke-width="0"/>
      <path d="m41.4768948,40.3904585c-5.1728472-.5648883-9.3298325-3.9872036-12.5875626-7.824679-5.0985624-5.6975775-10.0271898-14.2312846-3.0317066-20.5348456.9414749-.8747549,2.0487276-1.6779169,3.1666119-2.1502388-.9222222.6528204-1.7933991,1.420169-2.477058,2.285502-3.9430927,4.7245486-2.8719261,9.5247109.7047176,14.0542619,3.5793016,4.6310622,7.7092308,8.5462129,12.5785667,11.7215311,1.6340275.9797588,3.4351618,1.8846876,5.0004928,2.8673429-1.1253128-.0872335-2.2419022-.2355306-3.3540618-.4188744Z" fill="#423b30" stroke-width="0"/>
      <path d="m55.603448,45.7605183c-5.8003154-.9383229-11.9899787-2.8058705-16.1642404-7.1533896,2.9583759,2.3035961,6.7896666,3.5601511,10.437426,4.4097922,6.3041233,1.6344194,13.1074882.2985364,19.0213095,3.4413465-4.3665503.1605302-8.9133605-.1564241-13.2944951-.6977491Z" fill="#423b30" stroke-width="0"/>
      <path d="m70.4219746,37.5616892c-3.706131-2.965617-7.0938254-6.3949859-10.5026808-9.7136772-4.1003516-4.1669354-8.4468995-8.7358266-9.5476438-14.6465811,4.3581336,2.7945404,6.5214234,7.7470207,9.8613098,11.545718,3.5549716,4.1773114,6.7749459,8.8068742,10.4158221,12.8232295.0001704-.0001533-.0041913-.004515-.0041913-.004515.0461384.0086552.0884262.026136.1352461.0174126.0886647.0900618-.355136.015334-.357862-.0215869Z" fill="#423b30" stroke-width="0"/>
      <path d="m36.6829001,26.868185c-6.634384-10.2718186,2.124171-19.1565215,12.5788733-13.1724022.5469816.3881893,1.1672599.8821663,1.4567662,1.4175793-.4273081-.3463445-.8888622-.6483054-1.4001325-.8463188-3.8026331-1.1929017-9.6009381-1.5032283-11.5559237,2.7474649-1.2087639,3.1608531-.5454482,6.629426-1.0795833,9.8536768Z" fill="#423b30" stroke-width="0"/>
      <path d="m68.5135022,40.1782527c-6.4317364-.2350535-13.1618729-.4589473-18.8733191-3.7681997-4.4622686-2.8414795-15.5820927-8.0756458-13.2199377-14.585722.2185609-.4815905.8325693-1.0304804,1.2866949-1.0598365-.4709249.2135689-.8402703.6875435-1.0121818,1.1778744-1.4221795,5.9208238,10.503669,10.0123499,14.6482848,12.3896174,5.625235,2.4551814,11.9353896,2.6111966,17.1704589,5.8462664Z" fill="#423b30" stroke-width="0"/>
      <path d="m25.3257735,83.279293c2.1406636-14.2522241,12.2112657-18.7448541,24.5975437-22.7550076,6.8810233-2.9753796,12.8988433-7.6702824,18.9577585-12.0124005,1.0779818-.6602149,2.2449009-1.9134134,3.5024611-1.9102614-.7634299.1919479-1.3609115.8290935-1.9539293,1.3392054-5.6665346,5.6299033-11.4142714,11.4788276-18.4409338,15.3970111-11.6337183,4.9829439-19.8626021,8.7073735-26.6629002,19.9414531Z" fill="#423b30" stroke-width="0"/>
      <path d="m0,104.4664139c1.5652629-2.5278988,3.7762586-4.6613043,6.4682654-5.9539027,3.5159891-1.4671848,7.2352051-2.6839565,9.9248948-5.5376862,4.1955589-3.8731355,6.7854412-8.9904736,10.0865495-13.5619546.7953246-1.0290151,1.7008498-2.1600526,2.5952322-2.9964043-.3392908.5176425-.6699605,1.0396808-1.0021635,1.5537113-3.4747576,6.0102552-5.5309137,12.939291-10.6564981,17.8734386-4.6811363,4.6491733-11.5899993,6.0964069-17.4162803,8.6227978Z" fill="#423b30" stroke-width="0"/>
      <path d="m15.9395118,109.941614c-3.0357275-.2486156-5.9144346-1.3390435-8.6971167-2.4993093-.6497877-.2024006-4.7532062-2.3191942-3.9691606-2.7188329-.0000341.0288706-.0000341.0575963-.0000682.0864243.5653484.7736185,1.7003386.9419434,2.5516154,1.2716334,3.4232353.91585,6.712792,1.7277013,10.1973975,1.7610614,4.8993564.0164244,9.5043678-2.2950261,14.4373228-1.8963671-4.0886978,3.0673752-9.4111029,4.3684159-14.5199902,3.9953903Z" fill="#423b30" stroke-width="0"/>
      <path d="m36.1628041,130.5046061c-3.8766453-3.6388316-3.5834588-9.5870693-5.0390323-14.377043-.7262874-3.0565051-2.0609267-5.8977717-3.0951554-8.831579-.0261701-.1482885-.135212-.6062732.1134036-.6978684.0440938.0111086-.002249.0329852-.0145503.0418704-.0086552.0161604-.0233418.0387866-.0379261.0589252.390302,1.8105391,2.0113467,3.2277861,2.7566483,4.9500695,1.4614346,2.6506647,2.4692887,5.5102894,3.3408746,8.4050462,1.2923855,3.6044153,1.6325963,8.4322811,5.1644987,10.6161526.5663025.3650179,1.2232461.6678137,1.7228285,1.0206666-1.7030647.0520675-3.5490765-.0619835-4.9115896-1.18624Z" fill="#423b30" stroke-width="0"/>
      <path d="m46.8141909,104.1370732c.1415501-14.2793738,9.6812202-20.9727172,20.1949756-28.4114899,4.8214255-5.1754711,6.4313275-12.4623007,7.9548478-19.1398244.4961749-1.9798608.6817506-4.1450588,1.8625385-5.8619412-.0714225.2662668-.2805104.603922-.3579983.928884-1.231322,8.5231948-1.0934862,17.882605-6.2978533,25.2193554-2.8449723,3.6451697-7.1245957,5.7459308-10.3509762,9.0151443-5.4090934,5.2053213-9.8124453,11.5470981-13.005534,18.2498719Z" fill="#423b30" stroke-width="0"/>
      <path d="m39.1928069,130.5125116c2.2855871-6.927775,2.901197-14.2464568,4.8671891-21.2634247,1.6151496-5.5816182,2.2637447-12.3608832,6.7871109-16.4390516.2247968-.1165386.5090895-.3412587.6978684-.3575553-.4111222.3075323-.786022.6334314-1.0918846,1.0448603-2.2358708,3.4676017-2.650162,7.9838461-3.2872396,11.939845-.5834084,4.3906077-1.2952138,8.7556756-1.9704219,13.1286918-.4219241,4.8723686-1.3764841,9.4175772-5.9903892,11.9650695-.0077011.0001022-.0159133-.0077011-.0122331-.0184349Z" fill="#423b30" stroke-width="0"/>
      <path d="m91.509731,106.088072c-9.1858972-8.4268375-9.4103532-21.5498216-8.0304956-33.083085.683727-6.3804526,1.3870475-13.2984138-2.1937534-18.9515397-.7907585-1.2737802-1.6226122-2.5670346-2.6387808-3.611503.7201198.3486957,1.3109567,1.1216667,1.8970571,1.7012076,7.3667029,7.1475626,5.7611626,18.1159207,5.783891,27.3999215.0475355,9.0560351,1.7533262,18.2299036,5.1820817,26.5449987Z" fill="#423b30" stroke-width="0"/>
      <path d="m97.0812628,134.979619c-1.5219869-5.0259473-.9388511-10.3090973-1.6009742-15.4525714-.6489017-6.9967099-4.5291591-12.8919259-7.5194979-19.0482633-.2489564-.6754807-.6778319-1.4686245-.7108853-2.1284986.1303733.332612.3146201.677653.4879627.9831408,2.0939119,3.4502317,4.8914168,6.4299389,6.9006167,9.9384654,4.5077596,7.7065133,5.548633,17.3356915,2.4556585,25.7175407-.0053839.0000341-.010836-.0032372-.0128806-.0098138Z" fill="#423b30" stroke-width="0"/>
      <path d="m111.4356796,96.4005819c-14.3406844-10.1309841-5.9142302-24.6883212-14.2595844-37.0291764-4.3464457-5.5309648-10.5109271-9.2386803-15.4352609-14.0979297.0105634-.0314688.0655955-.0169356.0351319.0111257,13.2886,8.0222664,22.4179999,10.8023928,24.5430568,28.1738637.8494026,5.0492891.7917467,10.2294967,2.0953771,15.2026949.74094,2.773175,2.0933667,5.1592255,3.0212795,7.7394218Z" fill="#423b30" stroke-width="0"/>
      <path d="m127.1417054,123.8815011c-1.7357091-7.4696453-2.8457901-15.7003351-8.3566333-21.4278991-3.6942045-3.5464186-8.2198879-6.4416524-10.9305682-10.9009224-.5914844-1.0670776-1.0870459-2.4087449-.9115565-3.5634479.1379721,1.0360262.5587036,2.031545,1.1923054,2.8492573,3.9002256,4.8140567,10.0708066,6.907943,14.2957727,11.3610453,5.1016633,5.8139201,8.2621416,14.3571429,4.7106798,21.6819668Z" fill="#423b30" stroke-width="0"/>
      <path d="m97.2727677,130.8356847c-.4536145-.418721.0828719-1.0337176.3184706-1.4000985-.0042935.2770006-.31278.66795-.2617006,1.0011072.0453887.0553388.0907774.1123473.1362343.1698669,1.5571189.0010904,2.4981167-1.908302,3.2872736-2.989964,3.828735-5.9253048,3.8404229-13.6618983,8.5578497-19.0036583-.5603733,5.8924218-2.7387927,11.6449973-5.6787678,16.814437-1.0265617,1.6777124-4.0909127,6.3702981-6.3593598,5.4083097Z" fill="#423b30" stroke-width="0"/>
      <path d="m128.5240504,124.1894082c-5.424223-6.296797-12.3141059-11.5144196-19.5667577-15.5009928-.2368255-.2341335.1513298-.3506039.3838617-.2706285,3.6114349.898233,6.9756171,2.680319,10.24541,4.4403921,4.2506251,2.4433657,9.0615894,5.9462953,8.937486,11.3312291Z" fill="#423b30" stroke-width="0"/>
    </g>
  </g>
</svg>