<?xml version="1.0" encoding="UTF-8"?>
<svg id="b" data-name="Layer 2" xmlns="http://www.w3.org/2000/svg" width="119.032" height="146.468" viewBox="0 0 119.032 146.468">
  <g id="c" data-name="Layer 1">
    <g>
      <path d="m104.033,138.061c1.28.389,2.553.8,3.898.939.274.028.549.063.826.082.276.019.55.081.826.089.64.021,1.268-.096,1.901-.179.571-.074,1.096-.265,1.614-.491.734-.321,1.337-.805,1.836-1.435.74-.933,1.147-1.989,1.212-3.174.02-.36-.027-.716-.076-1.077-.072-.521-.219-1.011-.419-1.486-.459-1.091-1.092-2.081-1.829-3.003-.342-.426-.692-.847-1.071-1.312.806.025,1.55-.068,2.295-.188.733-.116,1.417-.354,2.046-.728.5-.296.903-.716,1.255-1.181.482-.637.601-1.389.682-2.149.02-.188-.074-.384-.079-.577-.014-.563-.193-1.091-.422-1.584-.755-1.635-1.757-3.107-3.043-4.374-.589-.581-1.177-1.17-1.817-1.691-.644-.526-1.332-1.003-2.039-1.444-.741-.461-1.526-.846-2.355-1.146-1.307-.472-2.657-.772-4.005-1.086-.534-.125-1.068-.244-1.601-.37-.737-.174-1.476-.342-2.21-.53-.658-.168-1.321-.305-1.992-.416-.587-.096-1.164-.258-1.748-.377-.712-.146-1.435-.246-2.139-.421-.857-.214-1.709-.458-2.547-.737-1.272-.423-2.528-.893-3.728-1.498-.259-.132-.538-.223-.8-.351-1.025-.498-2.04-1.025-2.981-1.668-1.007-.689-1.903-1.521-2.775-2.374-.271-.263-.515-.556-.761-.846-.254-.3-.504-.603-.743-.918-.317-.416-.622-.842-.932-1.265-.281-.386-.56-.772-.868-1.196.125,0,.191-.011.254.002.61.128,1.236.1,1.853.175.728.088,1.464.133,2.196.205.584.058,1.167.119,1.748.202.293.042.598,0,.896.018.293.016.585.091.876.084,1.207-.026,2.413.074,3.621-.072.75-.089,1.513-.035,2.272-.095.882-.07,1.767-.098,2.647-.209.484-.061.966-.137,1.449-.198.616-.077,1.204-.246,1.792-.418,1.221-.36,2.377-.854,3.386-1.66.873-.696,1.618-1.498,2.139-2.488.454-.861.799-1.754.936-2.742.142-1.025.049-1.977-.399-2.898-.154-.314-.351-.609-.549-.947.128-.014.229-.009.317-.039,1.102-.368,2.21-.725,3.26-1.225.807-.384,1.618-.765,2.38-1.24.57-.354,1.123-.733,1.628-1.168.91-.782,1.57-1.758,1.975-2.886.157-.437.282-.903.316-1.363.066-.886.065-1.782-.193-2.642-.256-.851-.552-1.688-1.041-2.449-.546-.851-1.191-1.61-1.923-2.305-.49-.465-1.032-.858-1.632-1.165-.578-.295-1.168-.565-1.738-.84.116-.102.247-.2.36-.318.446-.467.879-.946,1.331-1.405.764-.777,1.476-1.598,2.145-2.458.573-.737,1.08-1.519,1.495-2.349.462-.925.813-1.893,1.041-2.914.128-.575.173-1.156.251-1.732.07-.518-.098-1.033-.164-1.551-.111-.872-.465-1.646-.877-2.402-.368-.675-.865-1.254-1.456-1.726-.996-.796-2.117-1.374-3.393-1.705.12-.163.225-.305.326-.449.731-1.04,1.389-2.123,1.902-3.291.215-.489.487-.956.672-1.456.401-1.086.806-2.172,1.126-3.288.28-.979.501-1.968.694-2.967.086-.447.153-.895.211-1.347.076-.6.184-1.193.182-1.8-.002-.6-.005-1.198,0-1.796.005-.542-.105-1.067-.184-1.6-.126-.846-.405-1.626-.804-2.377-.389-.735-.953-1.314-1.603-1.791-1.13-.828-2.452-1.081-3.825-1.1-.225-.004-.451.081-.677.084-.527.005-1.026.137-1.526.281-.83.235-1.607.582-2.357,1.012-1.043.598-2.01,1.289-2.871,2.132-.224.218-.479.404-.699.626-.266.27-.513.56-.763.844-.466.535-.957,1.049-1.386,1.612-.871,1.14-1.733,2.291-2.459,3.535-.534.912-1.09,1.814-1.578,2.751-.887,1.702-1.726,3.432-2.593,5.144-.558,1.102-1.097,2.216-1.709,3.286-.776,1.36-1.635,2.667-2.539,3.949-.809,1.146-1.721,2.2-2.671,3.221-.517.556-1.1,1.053-1.654,1.574-.888.837-1.923,1.458-2.982,2.04-.568.314-1.154.595-1.739.875-.554.268-1.109.537-1.677.77-1.385.57-2.792,1.081-4.237,1.486-1.162.326-2.307.712-3.463,1.061-1.128.34-2.239.737-3.308,1.225-1.409.644-2.736,1.432-3.957,2.402-.672.533-1.315,1.1-1.93,1.689-.63.605-1.182,1.289-1.769,1.937-.796.879-1.414,1.872-1.853,2.972-.327.818-.555,1.66-.517,2.558.022.516.15.989.396,1.44.159.291.375.488.761.54.117-.105.249-.226.38-.347-.052-.275-.113-.496-.132-.721-.075-.86.036-1.695.409-2.481.418-.879.996-1.654,1.656-2.36.768-.821,1.578-1.6,2.468-2.293.812-.633,1.653-1.219,2.546-1.73.761-.433,1.539-.832,2.344-1.181.638-.277,1.278-.546,1.937-.761,1.253-.412,2.513-.809,3.774-1.198.969-.298,1.949-.561,2.917-.863,1.74-.542,3.459-1.14,5.127-1.889,1.054-.474,2.072-1.007,3.047-1.616.594-.372,1.144-.819,1.689-1.263.688-.561,1.371-1.132,2.019-1.739.784-.735,1.537-1.503,2.186-2.365.393-.523.799-1.037,1.181-1.567.599-.835,1.128-1.714,1.625-2.612.693-1.254,1.41-2.493,2.114-3.739.464-.821.91-1.654,1.39-2.465.598-1.009,1.233-1.995,1.838-3,.919-1.525,1.913-2.996,3.021-4.395.862-1.088,1.79-2.114,2.753-3.107.596-.616,1.247-1.181,1.91-1.725.882-.725,1.823-1.354,2.975-1.595.547-.116,1.063-.074,1.578.13.621.242.909.761,1.138,1.335.308.768.326,1.588.385,2.395.046.637-.085,1.268-.168,1.9-.049.372-.111.737-.188,1.103-.193.918-.491,1.8-.815,2.679-.408,1.109-.868,2.193-1.372,3.258-.34.721-.725,1.421-1.102,2.123-.315.588-.625,1.179-.976,1.744-.498.803-1.036,1.582-1.55,2.375-.317.489-.681.953-.846,1.53-.16.558.052,1.423.479,1.763.581.463,1.232.574,1.931.307.257-.096.499-.233.753-.339.62-.258,1.253-.296,1.917-.163.554.111,1.04.356,1.518.628,1.131.646,1.714,1.625,1.723,2.928.002.356-.019.726-.106,1.072-.245.977-.629,1.9-1.189,2.747-.722,1.089-1.607,2.042-2.509,2.975-.665.688-1.413,1.293-2.11,1.949-.612.575-1.283,1.075-1.974,1.542-.728.493-1.515.895-2.199,1.454-.715.586-1.231,1.27-1.18,2.261.039.77.399,1.339,1.045,1.73.702.425,1.437.418,2.18.112.195-.081.388-.17.569-.275.384-.226.799-.277,1.231-.239.111.011.217.077.327.084.898.056,1.684.458,2.469.832.437.209.845.502,1.22.811.507.421.956.9,1.26,1.503.243.481.4.979.511,1.507.167.796-.01,1.516-.356,2.212-.285.574-.766.967-1.28,1.332-.935.667-1.981,1.1-3.047,1.486-1.439.521-2.906.956-4.369,1.403-.724.223-1.43.502-2.152.732-.611.196-1.09.516-1.286,1.177v.6c.319.789.85,1.116,1.711,1.079.365-.014.731-.005,1.097-.007.794-.004,1.361.386,1.775,1.035.422.663.39,1.368.126,2.063-.389,1.023-1.05,1.828-1.985,2.419-.976.619-2.06.925-3.167,1.161-.634.135-1.279.223-1.924.296-.554.063-1.114.086-1.672.107-.448.016-.898.016-1.346-.002-.458-.018-.921-.033-1.372-.109-.309-.051-.617-.065-.925-.1-.32-.035-.633-.126-.951-.182-.256-.044-.514-.074-.773-.102-.357-.039-.723-.037-1.071-.114-.596-.135-1.203-.123-1.803-.17-.988-.079-1.98.019-2.97.077-.922.054-1.847.075-2.771.109-.05.002-.109-.014-.147.009-.232.132-.484.067-.727.089-.26.026-.517.089-.776.091-.575.007-1.13.158-1.696.223-.264.03-.527.16-.766.288-.495.268-.944.6-1.312,1.077,0,.372.004.77,0,1.168-.004.439.161.83.35,1.207.175.349.393.675.594,1.012.53.886,1.114,1.737,1.81,2.5.771.842,1.568,1.665,2.374,2.475.641.646,1.311,1.265,1.973,1.889.634.598,1.315,1.14,2.037,1.628.796.539,1.58,1.095,2.435,1.542,1.365.711,2.775,1.316,4.214,1.865,1.132.43,2.281.786,3.453,1.077.656.163,1.307.346,1.968.484.618.13,1.246.209,1.869.314.239.039.478.082.717.128.461.088.919.184,1.38.265.463.081.931.137,1.393.223.634.116,1.265.256,1.899.375.429.082.865.133,1.292.225.519.112,1.032.251,1.549.375.737.175,1.459.396,2.157.693,1.723.732,3.204,1.823,4.559,3.093.433.405.811.868,1.225,1.298.436.451.829.937,1.15,1.474.342.572.707,1.147.562,1.939-.14.079-.311.223-.505.275-.375.096-.762.193-1.146.196-.707.004-1.414-.058-2.122-.091-.033-.004-.068.002-.099-.007-.489-.151-1.003-.098-1.503-.179-.308-.049-.63-.012-.946-.011-.818.004-1.499.284-1.968.982-.356.53-.456,1.109-.301,1.726.168.67.593,1.16,1.121,1.572.375.293.782.551,1.121.877.728.7,1.475,1.381,2.108,2.177.5.63.971,1.272,1.31,2.007.346.749.479,1.518.256,2.321-.143.518-.409.975-.858,1.281-.418.284-.909.467-1.403.5-.81.054-1.632.07-2.44-.002-.637-.058-1.272-.202-1.901-.361-1.143-.291-2.246-.682-3.337-1.116-.704-.279-1.391-.603-2.095-.886-1.003-.405-2.003-.816-2.978-1.288-.494-.24-1.011-.43-1.514-.653-.499-.219-.965-.182-1.441.089-.531.305-.716.789-.713,1.342.004.581.246,1.096.565,1.584.704,1.079,1.576,2.018,2.414,2.986.433.498.887.982,1.353,1.451.525.528,1.007,1.091,1.461,1.679.466.603.918,1.218,1.209,1.975-.565-.089-1.095-.198-1.614-.375-1.237-.418-2.372-1.049-3.485-1.714-.95-.568-1.868-1.191-2.789-1.809-.8-.537-1.595-1.082-2.369-1.654-1.531-1.13-3.019-2.316-4.461-3.56-.65-.558-1.285-1.137-1.918-1.716-.574-.526-1.141-1.06-1.699-1.602-1.056-1.028-2.087-2.081-3.033-3.212-.57-.681-1.175-1.337-1.708-2.046-.676-.898-1.344-1.807-1.92-2.777-.598-1.007-1.223-2-1.817-3.01-.76-1.291-1.499-2.593-2.369-3.819-.889-1.253-1.782-2.5-2.733-3.707-.819-1.042-1.698-2.023-2.655-2.935-.371-.353-.739-.714-1.146-1.021-.756-.567-1.528-1.111-2.343-1.595-1.061-.63-2.142-1.212-3.316-1.602-.933-.309-1.87-.603-2.849-.749-.366-.054-.728-.144-1.096-.202-.466-.074-.928-.151-1.398-.198-.308-.03-.633-.028-.92-.111-.368-.105-.743-.098-1.108-.151-.579-.082-1.164-.144-1.746-.207-.616-.067-1.232-.128-1.847-.207-.549-.072-1.099-.132-1.649-.195-.727-.082-1.447-.2-2.171-.3-.725-.098-1.422-.282-2.116-.502-1.473-.461-2.857-1.116-4.192-1.889-1.287-.746-2.475-1.609-3.484-2.705-.39-.425-.781-.851-1.136-1.305-.544-.695-.987-1.456-1.428-2.223-.601-1.047-1.063-2.147-1.475-3.275-.398-1.089-.733-2.196-1.023-3.321-.289-1.121-.678-2.216-.95-3.34-.375-1.553-.78-3.098-1.03-4.681-.117-.739-.284-1.47-.287-2.223,0-.067.02-.149-.01-.198-.152-.249-.058-.519-.089-.777-.03-.26-.076-.518-.095-.777-.042-.607-.072-1.214-.107-1.821,0-.018.004-.035-.002-.049-.2-.519-.032-1.074-.175-1.607-.095-.354-.048-.746-.097-1.121-.075-.565-.136-1.133-.208-1.698-.086-.677-.231-1.339-.417-1.991-.268-.946-.737-1.772-1.474-2.444-.719-.656-1.505-1.203-2.395-1.6-.786-.349-1.575-.686-2.437-.654-.157-.091-.193-.214-.162-.354.047-.221.121-.437.156-.66.063-.402.107-.807.15-1.147-.09-.184-.148-.302-.226-.461.036-.4.023-.854.128-1.279.224-.909.54-1.789.993-2.614.079-.144.193-.268.268-.412.404-.77.914-1.472,1.47-2.132.468-.554.982-1.081,1.585-1.496.456-.314.912-.644,1.41-.875.801-.374,1.666-.546,2.554-.532.841.014,1.679-.026,2.523.075.833.102,1.625.305,2.383.635,1.05.456,2.012,1.067,2.904,1.786.957.77,1.988,1.418,3.15,1.832.718.256,1.46.423,2.227.454.248.011.486-.065.726-.088,1.117-.104,2.044-.598,2.875-1.314.848-.732,1.464-1.64,1.938-2.639.373-.786.682-1.605.994-2.419.346-.905.583-1.837.724-2.803.068-.467.027-.947.173-1.403-.043-1.205.054-2.41-.075-3.619-.11-1.032-.087-2.077-.122-3.119-.005-.165.025-.337-.011-.496-.153-.693-.075-1.403-.186-2.102-.059-.37-.038-.756-.119-1.121-.119-.537-.176-1.086-.284-1.625-.076-.379-.128-.767-.233-1.139-.38-1.332-.772-2.658-1.231-3.967-.586-1.67-1.143-3.353-1.729-5.024-.667-1.9-1.224-3.835-1.787-5.767-.325-1.112-.609-2.237-.897-3.36-.12-.468-.242-.944-.29-1.423-.057-.567-.251-1.118-.217-1.695-.204-.465-.066-.968-.172-1.454-.133-.614.001-1.256.102-1.867.118-.712.324-1.418.688-2.056.377-.66.805-1.284,1.477-1.681.457-.27.967-.432,1.493-.351.564.088,1.077.347,1.545.677.75.53,1.345,1.223,1.908,1.933.443.561.815,1.179,1.215,1.774.79,1.177,1.47,2.416,2.124,3.672.562,1.079,1.125,2.158,1.702,3.232.346.644.737,1.263,1.07,1.912.187.365.39.714.621,1.049.35.507.866.767,1.457.774.621.005,1.146-.27,1.448-.847.211-.4.367-.828.582-1.226.216-.4.466-.768.859-1.049.719-.512,1.535-.667,2.376-.742.39-.037.783-.009,1.175.084.538.126,1.069.27,1.541.554.603.36,1.089.874,1.507,1.426.932,1.23,1.472,2.647,1.819,4.144.124.535.253,1.068.322,1.616.063.496.192.984.268,1.481.057.37.06.749.112,1.121.085.611.212,1.214.283,1.826.087.744.175,1.486.304,2.223.087.498.208.981.477,1.418.372.605.909.914,1.615.96.589.037,1.078-.205,1.552-.511.396-.253.766-.551,1.211-.723.396-.154.793-.351,1.224-.256,1.096.244,2.094.712,2.925,1.474.485.446.921.947,1.357,1.444.725.828,1.283,1.772,1.789,2.739.397.758.744,1.549.994,2.368.235.77.523,1.525.636,2.333.06.432.132.865.201,1.296.096.6.13,1.202.172,1.803.029.407-.046.818-.068,1.226-.037.739-.167,1.456-.323,2.172-.162.742-.382,1.465-.693,2.161-.689,1.542-1.635,2.902-2.83,4.093-.729.728-1.593,1.237-2.544,1.614-.721.286-1.449.556-2.151.882-1.46.677-2.894,1.403-4.24,2.295-.447.295-.84.642-1.177,1.047-.15.179-.252.419-.314.647-.081.296-.1.609-.145.916.144.184.271.347.392.503.273-.021.512-.004.729-.067.821-.232,1.637-.482,2.451-.737.739-.23,1.471-.481,2.209-.709,1.45-.453,2.802-1.098,4.057-1.956.946-.649,1.87-1.319,2.751-2.054.93-.777,1.741-1.653,2.443-2.639.74-1.042,1.325-2.163,1.798-3.342.246-.611.439-1.244.56-1.898.073-.398.145-.798.219-1.196.075-.4.144-.809.155-1.205.039-1.382.054-2.765-.167-4.144-.115-.721-.249-1.433-.405-2.146-.355-1.619-.959-3.147-1.664-4.639-.277-.586-.608-1.149-.944-1.707-.431-.714-.913-1.4-1.478-2.012-.561-.605-1.132-1.207-1.789-1.719-.789-.616-1.637-1.111-2.568-1.481-.761-.304-1.55-.468-2.354-.553-.867-.089-1.713.079-2.557.356-.046-.309-.082-.616-.137-.918-.085-.461-.188-.918-.274-1.379-.113-.603-.181-1.219-.333-1.812-.313-1.218-.616-2.437-1.062-3.616-.345-.912-.747-1.795-1.245-2.635-.351-.593-.751-1.144-1.182-1.681-.805-1.003-1.76-1.796-2.956-2.291-.896-.372-1.839-.516-2.793-.586-.686-.051-1.365.042-2.049.172-1.257.235-2.355.725-3.243,1.656-.063.067-.146.111-.2.149-.405-.977-.764-1.947-1.205-2.879-.458-.967-.95-1.926-1.512-2.837-.865-1.405-1.839-2.742-2.895-4.012-.549-.661-1.163-1.268-1.763-1.886-.882-.907-1.946-1.528-3.142-1.923C47.125.113,46.528-.007,45.927,0c-.4.005-.802.102-1.203.168-.818.135-1.507.526-2.121,1.039-.931.775-1.643,1.725-2.138,2.846-.5,1.133-.743,2.317-.778,3.54-.02.689.018,1.386.109,2.07.041.309.018.628.1.923.135.486.16.989.269,1.479.134.6.177,1.221.331,1.814.323,1.246.668,2.486,1.068,3.71.484,1.484.925,2.982,1.384,4.475.596,1.94,1.28,3.851,1.852,5.798.441,1.5.863,3,1.174,4.535.176.872.356,1.742.484,2.621.035.24.078.479.12.719.092.526.194,1.051.274,1.579.052.339.035.689.114,1.019.153.637.173,1.288.271,1.93.101.658.125,1.332.203,1.996.05.426.004.863.02,1.295.016.444.069.884.079,1.326.004.225-.061.451-.078.677-.036.491.009.981-.089,1.475-.084.43-.181.849-.304,1.267-.286.974-.75,1.863-1.266,2.726-.362.605-.739,1.203-1.27,1.684-.613.554-1.343.846-2.157.907-.426.033-.835-.114-1.215-.296-.892-.425-1.678-1.009-2.411-1.665-.444-.396-.87-.812-1.317-1.205-.22-.195-.474-.349-.704-.532-.618-.493-1.332-.818-2.025-1.181-1.311-.689-2.729-.923-4.183-.984-.557-.025-1.115.014-1.675.067-.75.068-1.475.205-2.193.419-1.159.344-2.178.942-3.084,1.721-.499.428-.96.907-1.37,1.433-.484.621-.934,1.261-1.269,1.97-.543,1.153-.952,2.36-1.401,3.553-.423,1.125-.646,2.281-.588,3.484.012.254.067.509.104.777-.359.314-.704.619-1.053.921-.211.184-.417.375-.643.537-.371.265-.775.488-1.009.909-.06.107-.179.184-.249.253-.653-.511-1.276-.996-1.902-1.486.005-.007.022-.035.053-.089-.164-.154-.337-.309-.501-.474-.421-.423-.708-.919-.912-1.482-.246-.681-.467-1.367-.682-2.058-.28-.898-.839-1.572-1.661-1.979h-.557c-.646.498-.515.823-.205,1.311.017.028.022.063.042.089.323.428.576.912,1.062,1.207.476.288.764.733.978,1.246.143.34.356.653.532.981.02.035.009.088.01.135-.046-.002-.1.009-.136-.011-.495-.279-.989-.558-1.478-.844-.811-.475-1.618-.956-2.402-1.419-.259-.637-.511-1.246-.753-1.86-.086-.218-.213-.4-.376-.567-.482-.489-1.11-.656-1.75-.765-.343-.058-.644.116-.836.414-.075.116-.093.27-.11.323.043.498.348.765.595,1.079-.225.039-.431-.004-.76-.096-.59-.168-1.068-.53-1.557-.875-.741-.528-1.492-1.037-2.487-1.153-.089.093-.201.212-.296.312v.372c.159.112.32.254.504.354.226.123.467.221.708.312.751.288,1.42.709,2.032,1.223-.382-.072-.771-.123-1.144-.23-.311-.088-.575-.058-.826.107-.294.528-.256.689.236,1.012.095.061.19.128.295.172.997.421,2.027.677,3.121.658.567-.009,1.092-.144,1.582-.375.385.219.758.454,1.148.654.863.442,1.731.877,2.604,1.3.864.421,1.691.902,2.503,1.477-.551.339-1.081.419-1.668.246-.418-.125-.839-.27-1.29-.232-.092.009-.188-.047-.283-.056-.13-.014-.263-.025-.393-.014-.178.016-.354.049-.529.084-.187.037-.372.084-.56.126-.094.23-.174.425-.253.616.025.046.067.086.07.132.024.291.186.477.439.6.555.268,1.108.525,1.751.532.644.007,1.268-.091,1.885-.249.652-.168,1.257-.435,1.744-.923.032-.03.088-.035.169-.067.42.344.839.711,1.283,1.042.721.54,1.284,1.225,1.832,1.926.355.454.733.889,1.104,1.33.185.221.378.432.6.686-1.147.116-2.275-.086-3.394.161-.068.074-.146.158-.21.226v.44c.149.096.288.24.451.279.392.098.794.163,1.196.211.678.082,1.362-.011,2.017-.128.626-.112,1.205-.005,1.792.089.632.102.958-.019,1.189-.596-.221-.458-.609-.698-1.074-.854-.675-.225-1.281-.575-1.758-1.109-.428-.477-.83-.977-1.232-1.477-.15-.186-.268-.4-.4-.602.07-.014.142-.046.208-.037.29.037.577.116.867.125.589.018,1.167.111,1.749.193.7.096,1.343.34,1.978.619.422.186.766.495,1.139.76.519.37.858.868,1.118,1.41.427.888.524,1.867.612,2.833.061.672.075,1.347.109,2.023.002.032-.008.07.004.098.201.518.064,1.068.171,1.605.121.605.089,1.244.124,1.867.003.051-.014.107.006.149.135.282.071.582.094.875s.068.582.096.875c.039.407.05.818.11,1.223.078.526.195,1.049.287,1.574.108.623.162,1.26.32,1.868.324,1.244.699,2.475,1.059,3.71.233.803.468,1.605.72,2.403.315.996.633,1.993.979,2.981.366,1.042.837,2.04,1.39,2.998.179.309.35.626.543.928.585.909,1.164,1.825,1.909,2.617.544.577,1.058,1.191,1.652,1.714.908.798,1.908,1.489,2.974,2.058,1.541.821,3.099,1.626,4.792,2.103.791.223,1.595.398,2.411.519.293.044.589.042.874.1.629.125,1.268.114,1.901.181.456.049.914.019,1.376.082.649.088,1.313.018,1.971.112.551.081,1.114.079,1.671.114.033.002.075-.009.098.007.195.135.417.067.626.089.225.026.449.074.675.096.44.04.885.051,1.322.111.544.077,1.079.214,1.624.284.772.1,1.523.304,2.253.539.841.274,1.657.64,2.453,1.03.847.416,1.646.918,2.419,1.47,1.002.716,1.873,1.558,2.655,2.496.618.742,1.212,1.507,1.792,2.279.784,1.046,1.565,2.093,2.306,3.168.507.737.958,1.512,1.406,2.288.724,1.253,1.426,2.519,2.133,3.782.678,1.209,1.418,2.377,2.199,3.524.821,1.209,1.708,2.361,2.638,3.481.632.761,1.298,1.5,1.996,2.202,1.533,1.54,3.029,3.117,4.643,4.577.6.542,1.205,1.077,1.81,1.612.85.753,1.743,1.449,2.661,2.11,1.692,1.219,3.5,2.256,5.344,3.23.573.302,1.168.563,1.761.823.753.33,1.51.651,2.274.956.541.218,1.12.311,1.69.407.368.063.748.007,1.123-.075.838-.184,1.493-.6,1.93-1.356.415-.718.353-1.502.275-2.261-.051-.503-.279-.993-.516-1.453-.607-1.182-1.358-2.268-2.183-3.309-.229-.288-.525-.533-.655-.895.083.005.174-.009.245.023.841.374,1.707.679,2.585.946Z" stroke-width="0"/>
      <path d="m86.292,79.179c-1.074.719-2.235,1.246-3.447,1.674-.789.279-1.603.482-2.405.721-1.097.325-2.206.6-3.316.865-1.114.267-2.242.474-3.365.702-.223.046-.449.074-.674.104-.307.039-.618.056-.922.111-.685.119-1.363.286-2.051.377-.614.081-1.205.24-1.786.426-.359.114-.768.189-1.017.53.051.089.089.182.15.256.459.556,1.043.96,1.685,1.256.805.37,1.679.509,2.559.519.84.009,1.681.06,2.523-.072.615-.095,1.246-.082,1.871-.119.066-.004.139.012.198-.011.388-.146.804-.096,1.203-.181.318-.067.652-.056.971-.118.585-.114,1.165-.256,1.747-.388,1.152-.26,2.271-.616,3.335-1.139,1.38-.675,2.724-1.409,3.905-2.407.402-.34.796-.689,1.215-1.007.772-.586,1.392-1.319,1.929-2.105.625-.914,1.089-1.919,1.127-3.067.24-.553.032-1.114-.037-1.649-.085-.646-.317-1.281-.685-1.849-.407-.63-.911-1.161-1.487-1.639-.535-.442-1.154-.73-1.764-1.028.515-.428,1.057-.83,1.541-1.293,1.064-1.014,2.103-2.054,2.977-3.247.578-.793,1.137-1.595,1.531-2.493.293-.668.54-1.363.504-2.11-.042-.854-.391-1.535-1.186-1.933-.101-.053-.205-.098-.323-.154-.274.037-.553-.044-.847-.007-.725.091-1.244.456-1.564,1.095-.304.607-.14,1.284.37,1.672.084.063.176.116.285.188-.332.428-.616.854-.961,1.223-.948,1.018-1.939,1.995-3.042,2.847-1.228.947-2.564,1.73-3.9,2.512-.661.386-1.326.761-1.941,1.223-.712.535-.99,1.254-.734,2.096.121.398.361.725.746.937.566.312,1.141.326,1.74.13.7-.228,1.417-.382,2.155-.342.435.023.868.112,1.3.188.749.132,1.385.526,1.894,1.046.604.619.918,1.379.749,2.305-.116.635-.38,1.177-.786,1.646-.573.661-1.24,1.219-1.972,1.71Z" stroke-width="0"/>
      <path d="m68.468,42.11c-.367,1.267-.948,2.442-1.647,3.556-.752,1.198-1.534,2.379-2.314,3.56-.7,1.061-1.402,2.121-2.155,3.147-.34.463-.76.905-.832,1.57.074.182.164.405.239.589.13.079.212.132.298.179.264.146.535.154.793,0,.168-.102.333-.216.472-.351.663-.646,1.305-1.309,1.862-2.053.345-.461.743-.881,1.095-1.335.469-.607.92-1.228,1.374-1.847.481-.658.956-1.323,1.321-2.053.354-.709.696-1.428.975-2.168.254-.677.494-1.361.647-2.075.079-.365.141-.728.204-1.096.077-.447.186-.891.179-1.349-.018-1.089.095-2.182-.096-3.267-.056-.321-.035-.66-.121-.97-.208-.76-.386-1.532-.686-2.263-.379-.923-.856-1.795-1.511-2.551-1.042-1.203-2.409-1.744-3.967-1.828-.83-.044-1.662-.03-2.479.314-.078-.339-.143-.637-.215-.933-.205-.847-.482-1.672-.843-2.465-.293-.642-.663-1.232-1.127-1.768-.601-.696-1.278-1.225-2.198-1.451-1.033-.254-1.839.135-2.525.812-.498.493-.865,1.111-1.154,1.751-.305.677-.571,1.372-.815,2.072-.213.607-.417,1.219-.523,1.861-.061.367-.132.733-.204,1.098-.084.432-.12.87-.167,1.303-.067.623.039,1.247.202,1.842.213.777.495,1.539,1.421,1.828.49.053.979-.014,1.298-.514.301-.467.093-.833-.279-1.174.048-.575.032-1.163.159-1.718.182-.796.453-1.577.768-2.337.247-.596.478-1.2.742-1.789.204-.458.448-.898.687-1.37.454.546.712,1.144.927,1.753.29.825.549,1.661.55,2.551,0,.084-.018.175.01.249.219.589-.045,1.161-.057,1.744-.002.107-.061.216-.108.318-.142.307-.161.63-.152.96.014.495.244.884.617,1.179.298.235.679.372,1.047.335.67-.068,1.2-.416,1.515-1.032.361-.707.468-1.479.528-2.289.174-.365.521-.588.9-.737.36-.14.742-.247,1.143-.209.341.033.694.023,1.02.112.337.093.678.191.985.395.638.421,1.057,1.018,1.418,1.667.435.781.689,1.633.893,2.495.108.456.195.93.198,1.396.007,1.039.111,2.082-.085,3.116-.079.414-.111.839-.227,1.24Z" stroke-width="0"/>
      <path d="m86.304,121.563c-.312-.304-.689-.503-1.157-.43-.08.012-.164.002-.222.002-.067.042-.106.077-.152.091-.782.235-1.066,1.409-.472,2.121.339.407.694.784,1.115,1.111.557.428,1.131.826,1.745,1.168,1.151.64,2.378,1.088,3.627,1.493.546.177,1.086.33,1.669.3.681-.033,1.334-.505,1.56-1.154.188-.539.102-1.056-.077-1.577-.229-.667-.657-1.221-1.018-1.872.153.023.279.03.398.061.757.195,1.525.318,2.307.347.266.009.533-.014.797.005.614.044,1.214-.091,1.792-.232.767-.186,1.497-.505,2.164-.958.957-.649,1.836-1.361,2.456-2.367.263-.426.381-.854.358-1.344-.011-.226-.069-.428-.246-.567-.203-.16-.425-.295-.578-.398-.845-.111-1.718.37-1.95,1.223.127.053.257.109.414.175-.595.598-1.279.979-1.945,1.395-.58.361-1.211.581-1.859.658-.797.096-1.621.089-2.414-.091-.992-.226-1.954-.556-2.865-1.021-.433-.223-.855-.47-1.295-.679-.525-.251-1.054-.296-1.596,0-.334.182-.468.489-.625.803v.793c.533,1.177,1.192,2.233,1.868,3.289-.241-.074-.455-.179-.671-.277-1.15-.53-2.215-1.182-3.13-2.07Z" stroke-width="0"/>
      <path d="m27.988,55.431c-.371.168-.721.335-1.076.491-.328.144-.578.358-.686.689-.086.589.225.9.678,1.098h.525c.703-.37,1.372-.768,1.554-1.56-.069-.349-.206-.582-.477-.719h-.519Z" stroke-width="0"/>
    </g>
  </g>
</svg>