<?xml version="1.0" encoding="UTF-8"?>
<svg id="Layer_2" data-name="Layer 2" xmlns="http://www.w3.org/2000/svg" viewBox="0 0 123.551458 103.3515044">
  <g id="Layer_1-2" data-name="Layer 1">
    <g>
      <path d="m60.857906,53.1763639c-.1747907-3.8847279-.4684356-7.7932472.13767-11.6481443.3664947-4.3720403,1.5397627-8.6260691,2.0401452-12.9805251.3507253-2.4614517.1139701-4.929751.1665972-7.3997279.7413316-6.44923,2.5869095-12.729007,3.8970697-19.0783435-.0005338-.1863967-.0030197-.379275.0599818-.5521288.033186-.0956537.1717863-.0780847.183499.0214733.0488029.3962797-.0097606.80232-.0409945,1.2005519-.5660529,5.8541851-1.4752056,11.6725458-2.0654769,17.5222013-.1313714,2.9054667.472336,5.8082798.0040567,8.7103456-.4424137,4.0275984-1.5238713,7.9525277-1.9224386,11.9862113-.4556363,4.1228556-.8617643,8.373941-2.4601096,12.2180862Z" fill="#423b30" stroke-width="0"/>
      <path d="m97.8685326,12.1269446c-1.1149028-1.1820678-2.7536897-1.0964492-4.1014281-1.8427221-1.6549224-.9874661-3.0860833-2.3305378-4.8070116-3.2341544-2.3722796-1.3583836-4.9246572-2.346048-7.4420644-3.3957836-2.2890248-.9959761-4.7463435-1.2653073-7.2157104-1.219768-2.132581.1649996-4.6440404.2630783-6.2977884,1.7638596-.225805.3624837.0113314.4736171.3343915.4421087-.238143.1202687-.5959142.0199329-.5408736-.3007328.898355-1.8733917,4.0381673-2.5167057,5.9189405-2.929853,5.0977855-1.1136369,10.0596092.8031588,14.6720801,2.8187806,2.3056178,1.0812593,4.5133248,2.6362881,6.4591278,4.1678611,1.2815495.9871001,2.9916344,1.919907,3.0203366,3.7304039Z" fill="#423b30" stroke-width="0"/>
      <path d="m64.3194516,49.9724367c.8200111-4.859002,5.1611226-7.8128751,8.2886731-11.2158419,3.3966529-3.4483383,6.3945249-7.2876947,10.0261182-10.4975086,2.0044733-1.7482579,4.0574292-3.4438697,5.9418473-5.3237583,1.7598486-1.7718664,3.1558867-3.8664268,4.254105-6.1039798,1.0501321-2.0872705,2.6431358-6.4664177,4.9271126-5.9637019.0019369.0000305.0019369.0019826.0018759.0019064-2.6761845.1930308-3.2401328,4.4679991-4.1852776,6.4635353-.6298475,1.6044266-1.3877721,3.1676452-2.3542377,4.5972506-2.2714405,3.3449066-5.4200831,5.9400935-8.2559294,8.7833365-5.9433267,6.6705055-12.0021942,13.3035547-18.6442872,19.2587618Z" fill="#423b30" stroke-width="0"/>
      <path d="m115.5002355,36.5219395c-.192253-3.2071908-1.7011326-6.0205725-3.0119639-8.8821624-.8124009-1.7984334-1.4560504-3.7114165-2.6798447-5.284777-2.9383172-3.5589074-9.063206-9.5214197-13.6864136-10.1503216-.017264.0278177-.0353059.0555286-.0525089.0832242-.0062834.1027149.1509535.2196437.149825.2873882-.0683241-.066372-.3611416-.3377162-.138585-.4394093,1.6042893-.300077,3.3219387.7192636,4.7924927,1.2885192,4.199705,1.9672763,7.9775545,4.9119684,10.9688991,8.448823,1.3171604,1.7291333,2.0656447,3.7916363,3.047041,5.7138767,1.6453905,2.9772375,2.7536592,5.8639609.6110583,8.9348391Z" fill="#423b30" stroke-width="0"/>
      <path d="m63.929928,51.5633053c-.234559-.0819432-.1515521-.4288404.1522499-.5076114.9529381-.3822184,1.9433324-.6713605,2.9164779-.9994343-.8517178.4128537-1.8521624.7703046-2.7287849,1.2167903,7.3255932-1.6186862,13.5998494-6.0041778,20.3856213-8.9962392,8.9588592-3.5345822,18.4688712-6.0580135,28.0890711-6.7892491,1.1628821-.0334453,2.3666977-.0521276,3.506002-.0565809-1.0248614.5914914-2.1160947,1.0541431-3.2229603,1.4640114-3.331501,1.3124326-6.9073216,1.6129823-10.3911335,2.2956742-5.273171,1.1179377-10.5018246,2.5045812-15.6364106,4.1387166-7.6856215,2.6004332-14.8585073,7.5270272-23.0701328,8.2339223Z" fill="#423b30" stroke-width="0"/>
      <path d="m110.6621883,64.5620094c-3.0276418-.5313418-5.8822315-1.6350161-8.9210065-2.0265414-4.8351648-.4243262-9.6557192-.9930632-14.3852867-2.125657-2.9909481-.6397301-5.8336726-1.778592-8.5210208-3.2268035-2.3927158-1.181168-4.8234216-1.9512171-7.2579554-2.9478757-1.4369716-.4191447-5.8562592-3.0755945-6.9329279-2.2349336.0028367.1072749.1050025.174745.0829345.1854054-.0448987-.0370902-.1425045-.1190791-.1191249-.1914295.5158621-.7754594,2.82209.1294498,3.5997951.3260035,3.4880821,1.2256549,7.0897836,2.082436,10.566824,3.3322025,3.4615608,1.5299869,7.0543404,2.6963462,10.8205382,3.1761514,4.0062014.7314071,8.0580488,1.0535522,12.1050617,1.4407881,2.3786697.2711879,4.6738864.955912,6.9846743,1.5538889,2.6529269.7086108,5.1301632,1.9931075,7.4980658,3.361572-1.8302011-.0256368-3.6992463-.3006718-5.5205713-.622771Z" fill="#423b30" stroke-width="0"/>
      <path d="m115.5663939,67.0306138c1.2632636-2.0708758,2.9035756-3.9224243,3.8441757-6.1818471.9566135-3.0033509,1.9268461-6.0881379,2.442815-9.195542.6623167-5.1068903-1.6618158-11.8771063-5.1475798-15.5817361-.0531952.0296325-.0250725.1702002-.0599208.1624985.0025774-.0828125-.0108892-.1561846.0566266-.2010375.1229834.0156169.1425045.0058564.2518688.0975753,1.0739693.9681737,1.9458945,2.1478166,2.8148153,3.2990928,3.0501979,4.5606331,4.7041442,10.2709716,3.2444183,15.687139-1.4120973,5.8474899-1.4822515,9.0510777-7.4472192,11.9138571Z" fill="#423b30" stroke-width="0"/>
      <path d="m103.3540879,92.7355706c1.3179839-3.3053457,4.1598391-5.7043754,5.8741333-8.8000057,2.4344575-3.6659535,6.1413903-6.3132376,8.3278832-10.1549579.8249677-1.4909598,1.2814885-3.2040339,1.264499-4.8955127-.004499-1.3917526-.2890963-2.7586157-.4370454-4.1388996-.0127193-.4996809-.1651521-1.1404633.1952727-1.544094.1093185-.1015101.2518231.0722283.300626.1366482.0058564.0058564-.0039042.0136648-.0078085.0078047-.0503585-.0521086-.1010678-.088543-.1667992-.1156439-.0299375.0065998-.0609884.0132225-.0910937.0198262-.3681265,1.1019852.4334767,2.4991824.6168842,3.6291073,1.6972436,5.4305452-1.4456493,10.0635439-4.8857978,13.9773248-2.2473288,2.424758-3.7954795,5.3422729-5.7433414,7.9839599-1.3178772,1.7986927-3.3255989,2.9088219-5.2474122,3.8944427Z" fill="#423b30" stroke-width="0"/>
      <path d="m102.7636488,91.098446c-2.2577452.0870065-3.552258-1.1928654-4.7610301-2.9086694-.7607003-.8368939-1.5737265-1.6167646-2.4181086-2.3683143-2.4673233-1.8152247-4.2849881-4.1088706-6.371008-6.2357934-1.8496765-1.540693-4.0079858-2.6622147-5.8424419-4.2268211-3.415381-3.1276115-6.1424883-6.9499022-9.1201987-10.4849114-3.0216482-4.0329363-5.7929374-8.5802248-10.6313964-10.5421328-.004499.0073548-.0091048.0147934-.0138936.0223235.0609274.199684.2971945.4115192.3537907.5815059-1.6083918-1.6394122,1.7329308.0947349,2.221509.3240972,3.6226867,1.716475,6.0817287,4.9752749,8.6474813,7.9289079,2.6114596,2.8791856,5.2947358,5.691759,7.9163068,8.5624842,2.158416,2.4239954,4.8973123,3.7820282,7.4199201,5.702225,1.2500716.967945,2.3773124,2.3855326,3.3791449,3.5215731,1.4769747,1.6264794,3.2415664,2.7967887,4.7845165,4.3181893,1.3851489,1.1813357,2.2674143,2.8006015,3.522961,4.0855977.7139258.5861536,1.5068817,1.06793,2.1870877,1.694529-.400611.0367852-.8536699.0229069-1.2746408.0252098Z" fill="#423b30" stroke-width="0"/>
      <path d="m71.3410483,103.2911089c-2.4210215-.1252405-4.8409449-.3585795-7.2364974-.7340265-.5153627-.0878453-1.0717122-.2244934-1.4094589-.6617676-.5608218-.7999714-.5019876-1.8516134-.5074894-2.7856708.0234521-2.9061988.5780439-5.7678802.7633082-8.6606581-.1806013-5.644973-1.3260517-11.2550825-.8082527-16.9179296.1943424-3.1957831.4162737-6.3915053.4472483-9.5946851-.0909221-2.446643.3576339-5.2565895-.543493-7.5418206-.0063177.0057-.0124486.0113772-.0188234.0170505.0002097.0221748.0019788.04589.0038127.0696624l-.0019521-.0019483c-.0009608.0191094.0402472.1100811.0117127.1054181-.033186-.0937016-.0722283-.1522689-.0097301-.2284167.1593873.0612324.2195521.2642221.300626.4216687.4966498,1.2943488.6063458,2.7016879.78074,4.0662633.6114701,5.2544124.5088353,10.5466928.6325316,15.8238596.2129943,4.1409127,1.0631259,8.223567,1.3841271,12.3549479.2629562,3.7870153-.9451448,7.5295742-.6486366,11.3188313,4.5082615.6568873,9.1143271,1.0414849,13.6555458.5324399,2.4939971-.2886388,4.8540759-1.1830133,7.2953811-1.72012,6.6987044-1.2844777,6.4770171-1.3912493,11.359048-5.8462546,1.0580474-.8667399,2.1922273-1.6397782,3.3615758-2.3464293-.5441831,1.0571476-1.2344699,2.1275329-1.9034665,3.1407578-3.1879747,5.1340674-6.566662,6.2504343-12.2494268,7.2268893-2.3882168.5066353-4.6923552,1.4062867-7.1252114,1.7159108-2.4951867.3542787-5.0188315.3475988-7.5332191.2460277Z" fill="#423b30" stroke-width="0"/>
      <path d="m54.5954578,102.5823075c-1.8651295-.1113622-3.7133724-.5468062-5.4776438-1.1556532-1.2651319-.4639633-2.4211892-1.1852705-3.7084273-1.5978077-2.6556415-.7324404-5.427861-.9079174-8.086263-1.6270589-3.4042555-.8885792-6.7587777-1.9128305-9.9968135-3.2073891-1.8078509-.7075509-4.4120663-2.1686189-3.6876098-4.4821214.7228552-1.506775,2.103467-2.5856703,3.0883252-3.9217419,1.4625321-1.7627158,2.7541929-3.6582518,4.2341797-5.4034291,1.3960534-1.6504081,3.0885311-3.0012272,4.608948-4.5289112,2.5886748-2.6254447,4.6880774-5.3967034,7.2013592-8.0427216,2.6635491-2.883902,5.6940657-5.4979542,8.6322266-8.0779093,2.3370881-2.0400346,4.5983906-4.1950306,7.1545733-5.9637896.5058575-.2973318,1.6465954-1.1499341,1.9657055-.5096245-.9959456-1.2181972-7.2971884,6.1850079-8.4389556,7.1410838-2.6542232,2.7091112-5.3802019,5.3507257-7.8262807,8.252639-2.4057477,2.7582954-4.4940857,5.7808587-6.9824934,8.4672308-1.3617007,1.4691357-2.8906429,2.768605-4.2301458,4.257506-1.2158791,1.4336774-2.3169874,2.9583112-3.4709554,4.4430791-.8842175,1.1457554-1.8244363,2.2427078-2.7720289,3.3342004-.3492993.4269951-.7730764.8158171-1.0415077,1.2990728.0000458.0870522.0552083.1674398.0928018.2411627-.0247827-.0509838-.0418943-.0848713-.0644809-.1287482,1.494559,1.6676721,3.9821431,2.0407247,5.9913823,2.8541322,4.2039524,1.4681444,8.4333128,2.3764736,12.8075416,3.0744316,2.06688.3362826,3.8381745,1.4834258,5.779204,2.1848458,1.4246793.4206202,2.8357624.7323794,4.1746706.8485608,2.2898102.1603786,4.6331779.2717103,6.9007218.3123997-2.0401414,1.2750374-4.4277405,2.0463675-6.8480337,1.936561Z" fill="#423b30" stroke-width="0"/>
      <path d="m4.6556293,69.6908458c2.8449664-4.6067671,5.4385519-4.2803061,10.0303427-5.7258791,1.859216-.6616304,3.5961196-1.6273945,5.4849605-2.2117179,2.2873091-.6207922,4.719906-.2637798,7.0270718-.8444164,7.8148044-1.8193539,15.6906886-3.403207,23.4610747-5.4023882,2.5357122-.5814411,4.9751453-1.6643894,7.5137285-2.1374155.0884782.1179315-.1022574.200336-.210821.2557426-.0078047.0039004-.0136648-.0058564-.0078161-.0097606.0715573-.0524326.1473925-.1018914.2053002-.1698342-.0016623-.0103096-.0030959-.0202532-.0045905-.0300443-1.3874938.3127657-2.6595839,1.0696991-4.001466,1.5507624-3.4287103,1.3819463-6.9465394,2.5376414-10.4965021,3.5607947-5.9480011,1.6503471-11.847306,3.59371-17.9068141,4.796153-1.4257774.2621327-2.8830403.1783594-4.3092294.4142758-2.3866383.6051257-4.5016883,1.9593153-6.8724809,2.6291354-1.9596814.6288104-4.0113715.9335847-5.9579142,1.6169781-1.3334636.4814408-2.6500292,1.2027023-3.954844,1.7076143Z" fill="#423b30" stroke-width="0"/>
      <path d="m22.359019,90.6395918c-3.9120423-.4204524-6.8802818-3.3123306-8.9995106-6.4242337-2.5651274-3.952869-9.6764986-10.7258911-7.6950618-15.6345653.1334989-.1790762.3255536-.2548428.4489945.0038737.0039042.0058564-.0039042.0136648-.0097606.0078085-.0504653-.0479031-.0940448-.1091355-.1654877-.1267656-1.8310628,3.7350707,4.9645688,9.4948983,7.1736636,12.261048,2.4230727,2.8225933,4.6391067,5.9633054,7.9977696,7.7557909,1.6795373,1.0313583,3.6936492,1.3665428,5.5303243,1.9033902-1.4138283.2019983-2.8530036.3731288-4.2809314.2536532Z" fill="#423b30" stroke-width="0"/>
      <path d="m5.0891365,69.3329679c-1.9513696-3.0598212-3.2567639-6.3853401-3.9120575-9.9382119-1.3670385-5.2241241-1.7647518-10.8467545.0136419-16.0230518.473396-1.5372006,2.4201522-5.8139532,3.3052008-5.681987-1.3038387,1.1054624-1.6316037,3.0650828-2.1846933,4.622079-1.1111815,3.9639564-1.0723375,8.149783-.3274829,12.1776141.5297252,2.3241896,1.1802682,4.6191623,1.7699219,6.9277693.8289405,2.5551533,1.4651552,5.2379872,1.3354691,7.9157883Z" fill="#423b30" stroke-width="0"/>
      <path d="m60.4047404,51.6414929c-2.5400854-.2666241-5.1817914.1107979-7.6243281-.834469-2.1375299-.7592172-4.1893496-1.7501147-6.3703904-2.389067-1.3345845-.425653-2.6729361-.847783-4.0497275-1.1201338-2.3419531-.3684926-4.746069-.3415442-7.0318453-1.0293451-3.8328748-1.3089859-7.6338141-2.7027058-11.5115647-3.882974-2.5976042-.8363143-5.1589874-1.8470839-7.8299485-2.4284029-1.9096584-.4506187-3.870636-.6548285-5.8134728-.9173729-1.2067743-.2583505-3.9643834-.2079767-4.4039452-1.5286905.001792-.6651228,1.1128973-.8455716,1.5753507-.7476608-.4821042-.0046058-1.108383.1395764-1.3658108.5911254.0244548,1.2609455,4.2617076.9559425,5.2505692,1.1072926,1.3344473.049901,2.6661113.1417267,3.996029.2672418,5.3057775.7640098,10.4270189,2.5031629,15.6071289,3.8419491,2.2339233.6797027,4.4076207,1.5926224,6.723937,1.962884,1.2219108.1587468,2.4482977.2323019,3.6749897.3445181,2.427953.2226633,4.7378716,1.0323191,7.0432302,1.7862175,1.7960924.5583054,3.4781614,1.4186705,5.2568221,2.0253213,1.3089935.3803578,2.6307749.7131175,3.9259511,1.1409818,1.2745493.4202084,2.6012873.926554,3.5391269,1.9248025-.1915324-.0096538-.3847805-.0844481-.5921015-.1142179Z" fill="#423b30" stroke-width="0"/>
      <path d="m7.6594644,37.5878869c-2.7747588-2.0534135-.5110195-8.7520416.8823492-11.2736581,2.5081728-4.328377,5.9276182-8.2005228,9.9266975-11.2088265,1.8838081-1.5269367,4.0248228-2.9024318,6.5453946-2.8365936.7786354-.0102639,1.6125858.0261096,2.348389.2010833-1.4138435.693032-2.7958279,1.3768982-4.1639797,2.145285-6.0781295,3.724456-13.5938634,10.378399-15.7999157,17.3047995-.4059564,1.3733142-1.1811451,4.9080794.3768577,5.6304237.0022876-.0043008.0037441-.0085558.0051624-.0128108-.0002059-.0016471-.0006558-.0033552.0001906-.0025011-.0019521-.0019521-.0019521-.0039042-.0019521-.0058564v.0039042c-.0040343-.0073052-.0005262-.0155407.0078085-.0117127.0758199.0533629-.1345131.0673785-.127002.0664635Z" fill="#423b30" stroke-width="0"/>
      <path d="m61.1942535,52.1216259c-2.4606548-1.3164436-3.6098645-4.0819527-5.6628891-5.8916871-2.5613451-2.3597891-4.3982833-5.3249784-6.5821645-8.0048384-1.6559213-1.7671691-3.4642602-3.3819358-5.0487996-5.2166206-4.8224074-5.8826128-6.2982078-13.1723663-12.9697274-17.7214392-.9144905-.7358718-2.0003555-1.2757846-2.830539-2.1083168-.083941-.1112707-.201068-.2518231-.1366482-.4060403.050755-.1229834.2108286-.1776426.3163192-.2361299-.0214428.0902702-.225561.1256065-.2591054.25042-.0111942.288044.3190415.4365116.5127891.5830882,1.1875352.7166862,2.4413738,1.3217662,3.6034934,2.0810634,5.5961015,3.2850925,8.2767926,9.3652808,11.9217228,14.4377041,1.7598639,2.3768396,4.0876718,4.2329672,6.1198865,6.3599969,1.6928361,1.7731627,2.9447531,3.9019157,4.5132447,5.7782965,1.6412613,2.0691372,3.9795848,3.6293971,4.9136117,6.1940059.5202925,1.331054.8436271,2.7207324,1.5888058,3.9004973Z" fill="#423b30" stroke-width="0"/>
      <path d="m27.494726,11.8260136c4.8164062-5.506571,11.7113517-8.6612377,18.611452-10.7426518,6.0667676-1.2791704,12.6528058-1.7242683,18.5861431.3456314,1.2778435.4164872,2.5967273,1.0000329,3.6758209,1.749112-2.0943927-.5288102-4.2592598-.6187296-6.4024097-.7823566-6.3981585-.2824317-13.0303346-.5454642-19.1585862,1.6003393-3.2227849,1.0263712-6.4789692,2.0421125-9.3740882,3.8339118-2.0489373,1.2187157-4.0051186,2.5133353-5.7704576,4.1053018-.0719996.0599971-.1956616-.0143664-.1678744-.109288Z" fill="#423b30" stroke-width="0"/>
      <path d="m34.5485708,15.6492193c4.4450083-3.1873799,8.9648834-6.4911395,14.1118988-8.444873,4.1047604-1.3543421,8.6244448-1.8217521,12.8820537-.9662064.7606812.1675313,1.5787097.3655949,2.2761492.6559418-1.5070342.2401104-3.00626.5114546-4.519143.70476-2.7113455.3323327-5.4577376.2680653-8.145467.8085272-3.1062831.6180585-5.9776183,2.0002335-8.7844879,3.4213289-2.5910844,1.3140949-5.1400763,2.7000064-7.6550053,4.1524729-.189912.1025014-.3585337-.2030964-.1659986-.3319514Z" fill="#423b30" stroke-width="0"/>
      <path d="m11.4294597,37.7972514c.2144965-2.7725703,2.2016447-4.7218658,3.8174027-6.787846,1.0706294-1.8802088,1.7873918-3.9732899,3.2685834-5.6004099,2.5012642-3.1870749,6.1472848-5.3647223,9.971436-6.5825382.2504505-.0501145.6982097-.142657.882334.0449292-.208053-.0813026-.452731-.0175843-.6578939.0448224-3.5810669,1.7683281-6.8497037,4.3779577-9.0414353,7.7476012-1.2411422,1.6842499-1.7127767,3.7601889-2.7960338,5.5250399-1.4795674,2.1699914-3.9729544,3.4528678-5.444393,5.6084014Z" fill="#423b30" stroke-width="0"/>
      <path d="m12.2768233,65.16439c-3.830183-2.7763716-5.12176-7.8138169-5.2550525-12.3276335.0558179-2.2744145.8466311-4.4378938,1.6360565-6.5454175.5356502-1.7568595,1.5414861-3.5194838,1.4182892-5.3603147-.0173555.0042855-.0346119.0086015-.0518607.0129175-.0639852.049413-.1209931.2096696-.1777494.2269488.0511668-.1145191.1191783-.3595098.2812192-.2967218.3455857.9017255.016532,1.9634026-.1075342,2.8988936-.4887994,2.7104228-1.4863769,5.3110085-1.6393817,8.0434499-.0393397,4.7049106,2.1715242,9.1056378,3.8960136,13.3478776Z" fill="#423b30" stroke-width="0"/>
      <path d="m27.6197835,83.3218071c-1.0009479-.822192-2.1447664-1.4042888-3.3555593-1.8507746-2.4701752-1.0046844-4.5643162-2.7577159-5.7549626-5.1651793-1.0111127-1.8007211-1.9346927-3.6546984-3.0762312-5.3794546-.6741514-1.0778583-1.5441626-2.0478621-2.196406-3.1259339-.0156169-.0370902,0-.083941.03905-.0976516.2716645-.0665092.5583436.2208485.8042645.326095-.180853-.0134971-.4416512-.1647709-.6546912-.1992532,1.1490267,1.1505136,2.3210441,2.2824059,3.319285,3.5705438,1.8217216,2.1420823,2.9191849,4.6992944,4.9511709,6.6187744,2.0528263,1.670585,5.3613747,2.3235529,5.92408,5.3028341Z" fill="#423b30" stroke-width="0"/>
      <path d="m56.5643012,94.7400591c-1.6551969-.5899053-3.4160711-.684888-5.1262895-1.0111508-3.2010142-.8748534-6.4068782-1.8630668-9.4111098-3.2816305-2.4298899-1.1688452-4.5958246-2.797048-6.9319519-4.1327077-.7733433-.3838502-1.5348062-.9924074-2.4058468-.9826773.0003508.0023334.0007168.0046668.0010828.0070307.0255834.0311881.162346.041147.1520059.0679886-.0800368-.0078085-.1717863.0019521-.201068-.0819889-.0039042-.0117127,0-.0253775.0136648-.0312949.6633156-.1833617,1.3666496.1727471,1.9950787.3689653,3.3956692,1.2852402,6.5014491,3.2355118,10.0018387,4.2266991,2.4794172.6704606,4.9389396,1.4384966,7.4457246,2.0001573,1.9400687.2396071,3.7758554.9612803,5.2789893,2.2258403.5069099.3935803,1.0588023.7995749,1.5070114,1.2259447-.7788946-.1815469-1.5519329-.3787107-2.3191301-.6011758Z" fill="#423b30" stroke-width="0"/>
      <path d="m68.1275131,94.3608147c-.8373209-.0908192-1.7317412-.1022269-2.5065181-.4490479-.1526616-.2268116.3112101-.124844.4314483-.1346503-.0763918.0515481-.263307.0148086-.3696059.0657162,2.9065191.3605773,5.8291278-.4121864,8.7109862-.7626219,2.3692446-.3626972,4.7972205-.4698044,7.0947096-1.2051577,2.5023088-1.0015732,4.72182-2.7841152,7.4661304-3.1149075,1.0053402-.1444567,1.9931114.0448987,2.9418402.3728848-.3876325.0860152-.846685.1352451-1.247418.2278791-3.0830941.9198741-5.5254669,3.3128034-8.6341978,4.2131563-2.4108644.6598155-4.9466642.6481028-7.4278048.7281549-2.1525139.0497637-4.3096336.2441824-6.4595701.058594Z" fill="#423b30" stroke-width="0"/>
      <path d="m98.8908623,82.9286233c-.5474163-.2880593.2846888-.7882282.5582597-.8492166-.2097306.1611717-.6312506.3564291-.571284.6547675,2.3736674-.3488646,6.5196282-5.3559225,8.0928514-7.3036471.8716354-1.1296656,1.6253356-2.3401001,2.3640136-3.5606612.8484846-1.3899835,1.6171153-2.9947913,3.1331476-3.7675551,1.0312668-.56375,2.2695189-.6454644,3.3752101-.2635358-.1623002.0855576-.4160602.1337505-.5951211.2082207-2.8483826.9997584-3.9763859,4.057048-5.6672394,6.2943569-1.7327783,2.5236601-7.6520847,8.475512-10.6898379,8.5872707Z" fill="#423b30" stroke-width="0"/>
      <path d="m111.4417692,61.9025704c.1063446-3.4739903,1.9303081-6.6012511,2.1609477-10.0384866-.020055-2.8228678-.1240662-5.6487858-.4547822-8.4540235-.3092885-1.5972281-.3486054-3.4962109-1.3096722-4.8143168-.0116517.0133598-.0231814.0270094-.0347111.0400641-.0251335.0582585.0062681.1798388-.0262011.2103101-.1205585-.6050647.3844603-.1814096.5076419.0916885,1.7071415,3.0659063,2.2603836,6.6329882,2.6780146,10.0748753.985087,5.0229531-.9231835,8.7909924-3.5212376,12.8898889Z" fill="#423b30" stroke-width="0"/>
      <path d="m108.9868907,35.5518442c-.6004132-1.5368955-.2541107-3.3421004-.9566288-4.8080487-.0238372-.0224646-.0468051-.0449597-.0699712-.0674395-.0173098-.0143359-.0344518-.0288547-.0359006-.0346958-2.6757422-.8891282-5.2092087-.8157714-6.1586238-4.0714296-.868753-2.8116279-2.2736519-5.6659125-4.804907-7.3151768-.9003529-.5094568-2.1979616-1.3135917-3.2184307-.8904551.007778.0215648.0151137.0423213.0231966.0629863.0409792.0476896.1824009.0831632.1917345.1233189-.0488029-.0136648-.3533332-.0761326-.2869612-.2108286.0527072-.1093185.1366482-.1776426.2615837-.2128112,1.3877416-.3193389,2.8294257.2250577,4.040821.8804657,2.8170724,1.5565845,4.4666722,4.4482644,5.6479165,7.3354148.9944358,2.4077379,4.3025419,1.22262,5.8267792,2.9482913,1.4384814,1.8787143-.0147324,4.2731534-.4548737,6.2648464-.0025011,0-.0049413-.0014641-.0057343-.004438Z" fill="#423b30" stroke-width="0"/>
      <path d="m88.5826633,14.9412719c-6.5445024-1.7009649.0432211-7.4250291-17.2038995-6.3328655-.8137887-.0123532-1.6666808.124905-2.4401461-.1854816-.3968593-.1531039-.3195524-.7353228-.0136648-.9428725.2615837-.1698342.5583054-.2381583.8647878-.278985,1.223474-.2608364,2.4570899-.1104014,3.6680277-.0138478,3.2929924-.42152,6.7995892-.7193093,9.9304187.6071236,1.3137747.5719703,2.3815826,1.587071,3.1389735,2.7915577.6082369.8889757,1.0085581,1.9983424,1.9362407,2.6147386,1.2574073.7145815,2.7964837.8509247,4.129017,1.293369-1.3005521.2942511-2.6648683.5776741-4.0097549.4472635Z" fill="#423b30" stroke-width="0"/>
      <path d="m47.322934,22.8566942c-3.0647473-2.0601849-1.5296056-5.8031555,1.7607103-6.4088608.3289393-.0663872.8962733-.1154494,1.1361244.1229986-.2226252-.1099896-.5068641-.0899651-.7496281-.0429466-1.7753131.3843535-3.7797253,2.3223633-2.8125353,4.2106094,1.3412034,2.4788377,5.5399019,2.0199835,6.8643979-.2245697-.0036221.0114382-.0072175.0229374-.0108053.0344366-.0099017.0205582-.0201198.0414215-.0294495.0614002.1478805-.3189576.1413264-.6894328-.0156169-1.0033881.0098216.0196279.0196661.0402929.0302044.0612172.0030731.0090895.0063063.0182096.0127803.0246302-.8924301-1.6832433-3.1755375-1.5302919-4.8100542-1.8506221,1.1989429-.3947851,2.5631371-.6644823,3.8475271-.4742882,2.8700351.4860314,3.412308,3.8967304.8824674,5.3019495-1.7958141,1.1408598-4.2733288,1.3785148-6.1061225.1874337Z" fill="#423b30" stroke-width="0"/>
      <path d="m72.1293528,23.797279c-1.3715756-.960899-1.6084681-2.9396135-.8461054-4.3613952-.3666625.0256673-.7845527.1072139-1.1255479.1155562.4856653-.2519603.9840194-.4756912,1.4890382-.6856963.5085112-.7257452,1.4880316-1.398707,2.3683448-1.1239313-.7075509-.0982159-1.3769745.3574052-1.795368.8918429,1.9591171-.7772933,4.3749837-1.5861407,6.2597526-.2222821,1.7263729,1.2845997.8692563,3.4651905-.6850863,4.4645676-1.5617698,1.1299707-3.8827148,2.1524224-5.665028.9213382Zm1.5071105-.4429933c1.570173-.0197804,4.0953582-1.4269365,4.4644609-3.0277943-.000061-.000061-.0118957.0148544-.0118652.0148086-.3557123-2.1708455-4.7818781-1.0207284-6.3163182-.9565373-.8015728,1.5770664-.0937626,3.9726341,1.8982659,3.9722681-.0000305.0000153-.0346348-.0028672-.0345433-.0027452Z" fill="#423b30" stroke-width="0"/>
      <path d="m55.090918,33.6004593c-3.4206464-.7125532-1.7209207-6.1894612,1.4456455-5.397771-.3102913-.1415132-.6901839-.2486204-.9713917-.3825082,7.3942947-.9025185,5.978949,6.3909867-.4742538,5.7802791Zm.2381392-1.1867956c1.293876-.0582432,2.9242826-.4885173,3.6328591-1.6437434.0477392-.1055363.1049225-.3812881.0917152-.454889-.0207031-1.0512912-1.0804929-1.4921951-1.8997148-1.8485937.2104169.136999.4880178.3119879.6210744.4763165-.8386515-.5522508-2.0036383-.7336452-2.7758759.0058258-1.1239923.8620274-1.3985164,3.389973.4079734,3.4689117-.0000114-.0000305-.0780961-.0039347-.0780313-.003828Z" fill="#423b30" stroke-width="0"/>
      <path d="m31.1502479,39.167607c-2.4599342-1.1970442-1.9966038-4.7211947.0760029-6.0731424.4905609-.3233956,1.3316945-.9506504,1.8525818-.4137725.0131005.0183621.078771.0886078.0507322.0937169-.2902706-.3942971-.791774-.1247982-1.1111358.088196-1.381016.9533041-2.3340379,2.918369-1.4207598,4.4700122,1.1939254,1.7238107,3.8544929,1.047082,5.1457725-.1952269.0894237-.0991614.1711-.2021814.2488949-.3109966.0531876-.0831785.1006408-.1704442.0966374-.1692394.2456388-.4818679.050816-.9678382-.3142908-1.302062.0165854.0140308.0331707.0280617.0497561.0421078l.0263765.0223121c-.0897974-.083941-.1854511-.1600736-.2677755-.216441-.0827591-.0531799-.1672186-.1017998-.1675313-.1057193-1.4545406-.5356426-3.1426566-.4322261-4.6304518-.7067121,1.5656511-.4588847,3.2493138-.9588554,4.8880702-.6910341,3.1737151,1.0013292,2.3039097,4.4299175-.4118509,5.4406413-1.2417675.5524948-2.8749039.7026401-4.1110286.0273601Z" fill="#423b30" stroke-width="0"/>
      <path d="m21.6135392,55.6796183c-2.1964747-1.3823085-1.14847-4.5530382.3904234-6.0476277.4915217-.5325771,1.2896782-.9595722,1.9657665-.4899966-.0855576.01246-.2306853-.0792285-.3416205-.0898279.0010066.0009761.0014946.0014641.0019826.0016623-1.8523988-.1357026-3.379061,4.3746482-1.8759462,5.4876904,1.6161393,1.4300209,5.1060363-.9889455,4.8685567-2.9028131.0104087.0289615.0196432.0563064.029236.083941-.0726172-.2747605-.2427793-.4751003-.5062083-.5906984.0220986.0113467.0453867.021702.0687892.0333232.022823.0143664.0456536.0299223.0684842.0438921-1.2457709-.5610201-2.6916794-.0776691-3.9862608-.0117013.9807024-.6431996,2.1676886-1.2421068,3.3771089-1.3683234,1.8169557-.1941289,2.9560921,1.6104049,2.1356998,3.2034238-1.0299399,2.1583703-3.9020453,3.9087061-6.1960114,2.6470553Z" fill="#423b30" stroke-width="0"/>
      <path d="m29.4048342,69.5220182c-3.3026615-1.7939344-.2497566-6.4219613,2.885183-5.0970382-.7063842-.0867624-1.5621968-.0597836-2.1919375.3703837-.8774232.5661292-1.5367735,1.6814742-1.251612,2.7275953.496219,1.4545711,2.3620843,1.3726432,3.557184.9499336,1.8058225-.6656414,3.2126201-1.9813377.3556818-2.3967878-.8923462-.1510298-1.8401752-.280266-2.7084021-.4311586,1.382358-.4313568,2.9005788-.8502842,4.343422-.5035394.9997965.2304108,1.7021239,1.2751441,1.4037017,2.2840835-.8440313,2.1587058-4.4081697,3.1048724-6.393221,2.0965278Z" fill="#423b30" stroke-width="0"/>
      <path d="m49.3883347,80.2034681c-1.4072399-.4068181-2.3076309-2.0095213-2.0770219-3.4298846.0990699-.5761795.5497039-1.3039988,1.2200807-1.0951376.5655725.2468665.8776824.8186843,1.2805429,1.2611133-.3062231-.200763-.6379762-.5258362-.9545089-.7379307-.9447178-.6961432-1.1026944.7922697-.8082298,1.386003.3012894.8073986.9673349,1.5528175,1.875054,1.5611445.864742.0081592,1.6710502-.5094263,2.0448005-1.2566143.3165136-.6368629.1302619-1.3281868-.2674286-1.8467483-.7777279-.855683-2.0217221-.9394868-3.0609422-1.2982035.9530829-.2413457,2.104016-.4533029,3.0901477-.1541867,3.7449151,1.5220716,1.1589627,6.5884708-2.3424945,5.610445Z" fill="#423b30" stroke-width="0"/>
      <path d="m73.2978625,82.9844569c-1.6677941-1.4584296-.8447633-3.8751351.939197-4.8105956-.0591735-.0147324-.1386613.0166387-.1701849-.0170505,1.2146742-.5294965,2.5831082-.9677925,3.9119965-.6851168,1.9499055.3059333,3.716251,2.6045052,2.4617109,4.4470291-1.5366515,2.0338618-5.1289126,2.7939216-7.1427195,1.0657338Zm2.6430748-.2972861c1.2281865-.1607141,2.5881715-.6020146,3.2756522-1.6782563-.0144426.0287937-.0272534.057618-.0414062.0864422-.0156322.0234559-.0310966.046744-.0455545.0689951.3677148-.4984761.1329727-1.0914011-.2315851-1.4756479-1.0310837-1.1798107-2.5645173-1.3816107-4.0362305-1.4704321-.9398833.6000777-1.8567224,1.6548308-1.6655827,2.825735.2232886,1.2413023,1.614965,1.7471751,2.7447069,1.6431639Z" fill="#423b30" stroke-width="0"/>
      <path d="m89.5465515,72.5030837c-2.1643029-1.0650323-1.3862623-4.1718416.1829347-5.4378046-.3102646-.0464543-.6750359-.0464695-.9540819-.0907429,1.5274095-.4390128,3.0532023-1.1689368,4.6733984-1.0617991-.4858788.0812416-1.081732.1572979-1.5773257.3573289,1.7080108-.1940831,3.4461726,1.1928502,3.2054675,2.9866931-.3395463,2.3437756-3.302997,4.1830205-5.5303929,3.2463247Zm.9311445-.8589467c1.1670304.0064816,2.195857-.7174335,2.8775728-1.6016204.479809-.638266.509594-1.5779357-.1403084-2.0942402-.7814873-.697287-1.8509728-.6853913-2.8285411-.8123856-.9407221.8503299-1.5328083,2.2250777-1.2420344,3.4618811.050328.171161.1569929.363963.2502065.504729.2395918.321596.7021063.5403551,1.0831046.5416362Z" fill="#423b30" stroke-width="0"/>
      <path d="m96.7370216,53.8612366c-3.1716257-1.3508039-1.7593454-5.3602995.4353221-6.9688743-.0689646-.0325454-.1894163-.0375477-.2246155-.0822024.1176303-.0092573.2353521-.0163642.3530891-.021702.776485-.5595255,1.8865227-1.2924539,2.8347025-.9797797-.8499944-.1408727-1.6408153.4671965-2.2737129.9681585,1.4471897.0405522,2.9988176.0495655,4.2316099.9078106,2.663206,1.9129221,1.2718499,5.0136157-1.4093369,6.0184374-1.2340124.5475993-2.6796312.662595-3.9470584.158152Zm1.7707835-.8367109c1.4796436-.176068,3.845716-1.2459539,3.6111112-3.0168289-.5611574-1.9706163-2.8835969-2.3067006-4.5315649-2.9748126-1.2660393,1.2410278-2.6303708,3.4627656-1.4634471,5.155373.5721228.7202549,1.5146597.9001852,2.3839008.8362686Z" fill="#423b30" stroke-width="0"/>
      <path d="m96.6992604,34.7986168c-2.2397186-.6367409-1.5981432-4.3426976.4005652-4.8344175-.7113636-.2103711-1.4884281-.4214895-2.1652332-.6355361,1.6532448-.1908499,3.7058957-.5854521,5.092951.5584274,2.3818724,2.2039705-.6514885,5.6313997-3.3282831,4.9115261Zm.4587932-.8451904c.9002919-.029724,1.7832283-.5978663,2.2702662-1.3411196.7246166-1.3144457-.5567803-2.2620612-1.719815-2.4675215-1.7265711-.638449-2.6210677,3.4124529-.8510925,3.7734267.1128415.0222206.2274216.033796.3006413.0352144Z" fill="#423b30" stroke-width="0"/>
      <path d="m82.4559444,38.2355931c-.5652293-1.0803137.3554073-2.4031169,1.4696085-2.6246517-.4929095-.1738757,1.1575291-.2143973,1.3433157-.2195826,1.6128756-.0045905,1.9099939,1.8283557.8707051,2.8071746-.9021525.9509859-2.9400558,1.3716214-3.6836293.0370597Zm1.499241-.2322867c.689387-.0953335,1.5441092-.5864129,1.5752821-1.3425074-.1052313-.5079622-.7976075-.5684168-1.1731308-.831068-1.110419.1399576-2.0142644,2.3190996-.3318599,2.1677343-.0000305-.0000305-.0703067.0058258-.0702915.0058411Z" fill="#423b30" stroke-width="0"/>
      <path d="m83.8340779,52.1289464c-.9624241-.1919785-1.6315122-1.8380706-.5778724-2.3229734.5079012-.0797013.4229688.5169106.2522959.8127212.0738754.130075.1462105.222202.2612481.2954864-.0122465-.0082202-.0252708-.0171573-.0385848-.0256825-.0147629-.0127193-.0309289-.0255453-.0454477-.0400794.1225716.1185873.3829657.2191404.5329279.1913227.129709-.025408.2663877-.050267.380312-.1206805l-.0055056.0113467c.1204517-.0848866.1582435-.2456007.2439841-.3513658.6050952.1865492.5995897,1.0507879.1171575,1.3801352-.3504965.2375177-.7271788.2753362-1.1205151.1697694Z" fill="#423b30" stroke-width="0"/>
      <path d="m69.0471584,71.5145195c-1.1076433-1.1838216.4071841-4.0180056,1.8036798-2.338514-.646349-.4219623-1.2326551-.329252-1.440647.5113784-.2315089,1.0108.5077639,1.6983112,1.4387102,1.1595117.5149166-.2613854.9612498-.7902261.8121416-1.3762729-.2574049-.8705984-1.203053-1.2439102-1.8545721-1.7803306.7248302-.0758885,1.5755261-.0081745,2.2429213.3572831,2.7623522,1.7660253-.9355215,5.5538031-3.0022338,3.4669444Z" fill="#423b30" stroke-width="0"/>
      <path d="m53.2613194,68.947196c-.7713645-1.4533358,1.3691431-3.2959054,2.5786892-2.0204257-.1574123-.0105384-.4003937-.1475068-.5875834-.1347266-.6357153.0029434-1.1619633.6107686-1.2493548,1.194665-.0920774.9407831,1.0740837.6262025,1.4816491.2108286.1266588-.1225258.193557-.2720763.2889209-.3884408.1854511.2303498.300626.5212152.238143.8217955-.2220609,1.2984933-2.2033376,1.4389389-2.7504641.3163039Z" fill="#423b30" stroke-width="0"/>
      <path d="m37.9457727,52.1089524c-.4690037-1.036982,1.1729249-2.5022631,2.0145923-1.5382186.292238.4511792.0835293,1.0392354.0214428,1.5304597-.1824238-.3098566-.23173-.7822537-.4971111-1.0644108-.2220685.0918257-.381799.3158769-.4657248.535063.0377918.017447.0703753.0191856.1064437.0223578.1794041-.0196889.3041566.1450362.3312803.3078282.0669896.8918086-1.2563092.9808129-1.5109232.2069206Z" fill="#423b30" stroke-width="0"/>
      <path d="m40.4476393,63.0242446c-.167028-.1682176-.2332017-.3852533-.2471563-.6128122-.0014793-.3162849.4153434-.4794735.6393488-.2149769.6510081.3838502.2538057,1.27824-.3921925.8277891Z" fill="#423b30" stroke-width="0"/>
      <path d="m43.4080093,40.2040895c-.6207732-.0488029-1.1107545-.53488-1.0092292-1.1771265.019422-.1924513.2774599-.5979578.4919182-.4314483-.2653964.1435111-.0165167.5669832.1952117.6481181.0794496.0138326.1151901.0269331.1928478.0177673-.0134666.0012506-.0269331.0016776-.0404073.0025011-.0136877-.0008693-.0269102-.0012658-.0411698-.0026842.2310971.0157084.4427416-.1155714.6136891-.2577404.1148165-.3384483.5443813-.1311121.6395547.1191096.2646796.6375797-.4504052,1.1580781-1.0424152,1.0815033Z" fill="#423b30" stroke-width="0"/>
      <path d="m23.0488179,31.2389927c-1.7449485-.9094882.0487495-3.5244098,1.3157802-3.5372358-1.3329222.5175855-2.2509204,3.6597769.0950513,2.5883393.6246317-.3547362,1.4052725-.7914004,1.32413-1.5791863,1.6341125,1.4470524-1.3639502,3.2495578-2.7349615,2.5280829Z" fill="#423b30" stroke-width="0"/>
      <path d="m57.5002039,13.5832696c-.0096081-.2563526.1565163-.6493534.425592-.6988273.0100618.0040872.0052044.025835-.0047202.0231356-.0543771.2167002.0374982.5931538.2760492.5839727.2921617-.1144276.3103485-.4954717.5387728-.663735.5132428-.124844.7886476.5677.5876215.9662826-.3302051.830946-1.7677181.784263-1.8233153-.2108286Z" fill="#423b30" stroke-width="0"/>
      <path d="m68.079732,34.6226975c-.8180437-.7612798.1540952-2.3739572,1.1399753-1.6260371-.0701542.0079762-.199787-.054766-.2973471-.0274516-.664589.096584-.7452969,1.1240533-.0169285,1.189007.6422312.0090895,1.2511544-.241605,1.8545263-.4002297.2175543,1.3572398-1.9493412,1.7586286-2.680226.8647115Z" fill="#423b30" stroke-width="0"/>
      <path d="m87.2892486,29.7486277c-.1239747-.9654286,1.3290866-1.8575765,1.3723077-.4607148-.1230139-.0615832-.2016476-.3566579-.3862141-.3229076-.2355504.1292972-.2492914.5285662-.0998477.713331.0778407.1265368.2986281.2525246.4197051.2791527.3319666.083148.6602578.2064516.9975165.2420625.0708252.4976831-.4564903.8334929-.9062093.8336759-.6686763,0-1.3682357-.6029296-1.3972582-1.2845997Z" fill="#423b30" stroke-width="0"/>
      <path d="m108.7202895,51.5939748c-1.1007652-.0482043-1.5991803-1.6439874-.568127-2.162854.5632162-.1944034.5955177.4647716.5114699.8530751-.0985514-.1059824-.1409947-.3312651-.259174-.4506492-.1461648.2497032-.0417875.6745174.2919025.6824784-.0000153,0,.0063291.0063139.0063444.0063406.4240364-.0860418.9751586-.1233303,1.1985845-.4841517.5778266.1932596.3396683,1.0053402-.0566114,1.2727802-.3163039.2145041-.734545.3533027-1.1243888.2829807Z" fill="#423b30" stroke-width="0"/>
      <path d="m100.3231366,68.3021587c-.4587017-.4229688-.3445029-1.5307342.4391958-1.4016199.2163952.058533.4067571.2740894.4958224.450939-.1736927-.0082965-.3290385-.0749582-.4854671-.0137868-.0001525.0002593-.0002898.0005033-.0004575.0007473.0062376.409426.5669985.3619652.7514277.6494296.217539.3146263-.2114539.6553927-.5153741.6442138-.2668605.0040262-.5076877-.1385698-.6851473-.329923Z" fill="#423b30" stroke-width="0"/>
      <path d="m99.1129461,80.0670487c1.1996216-2.354924,3.4865875-3.8855209,4.8139203-6.1229824.3301823-.6876789.4364506-1.4492485.5795652-2.191236.3882272-1.7752826,1.8056624-3.0693378,2.9809435-4.3688529.2051248-.1640693,1.3216441-1.4975177,1.1399905-.655835-.0413757-.0143511-.0113162-.1489709-.0410555-.1971943-.0030654,0-.0061614,0-.0093946-.0000458-1.0452671,1.5421266-2.1102841,3.1961339-2.643334,4.9953756.1472476,4.5410814-3.0289381,6.9230606-6.8206354,8.5407707Z" fill="#423b30" stroke-width="0"/>
      <path d="m68.0645421,89.78763c-.2657472-.0291292-.5477823-.1373955-.8131634-.0677293.0018301.0093488.0036755.0189111.0055361.0287937.0348331.050267.1614309.1016778.1633678.1404609-1.0818998-.5460284,2.396681-.166357,2.6334057-.2149311,4.2020384.2979723,8.3823137-.8900738,11.6288366-3.6111875,1.2627146-1.0658863,2.9897433-.8237781,4.5269438-.8941153,1.1217962-.0356871,2.3012103-.0924968,3.3966987-.0760868-.797577.4974085-1.6407543.9431775-2.5299893,1.2550587-1.3530153.5500852-2.6438831.375996-3.9433219.7026553-4.8585444,3.5892872-9.2781219,4.0533572-15.0683141,2.7370814Z" fill="#423b30" stroke-width="0"/>
      <path d="m59.2000479,89.8297226c-2.7525916-.6577719-6.168087.0726706-8.20673-2.3230344-.6572953-.7535171-1.2523897-1.6139431-2.1988767-2.0286307-2.7221889-1.1167634-5.704993-1.5218276-8.6021938-1.8306129-1.1644377-.1924208-2.4843585-.02158-3.548918-.5759965-.0390423-.0273296-.0351381-.0819889-.0000153-.1113317.2062381-.1639016.5459979.0272229.7906455.0274211-.1460732.0409182-.4255386-.0031874-.6011758.025774,1.2880311.1983381,2.6120925-.0721216,3.9119431-.0609426,2.166194-.0656552,4.3385951.0577247,6.4732196.4411784,1.1263715.1893553,2.3034979.4919335,3.2619797,1.1380994.8265919.5409804,1.3994467,1.3580328,2.1105434,2.0292713,1.3297881,1.0583676,3.1487646,1.1395482,4.6262349,1.9256871.7043406.355392,1.4216787.8253489,1.9833431,1.3431174Z" fill="#423b30" stroke-width="0"/>
      <path d="m29.4314394,79.3132723c-.8338589-.6377627-1.4823888-1.5179997-2.4395056-1.9843573-1.5234366-.6683713-3.3835219-.8253184-4.4887403-2.2028572-1.644506-2.4243157-.7794437-5.8200383-2.5448894-8.2273187-.3576339-.472519-1.1366734-1.5302766-1.7637757-1.0285063-.1408651.2384328.0838724.4811816.1723429.6469132-.655774-.4520981-.2697124-1.1897237.4704678-1.0171292,3.0939833,1.1274238,3.4276656,4.9866826,4.3489504,7.7101145.2050028.5824781.6220161,1.1561565,1.1911802,1.3933844,2.974012,1.0691653,4.6111594,1.0214299,5.0539697,4.7097565Z" fill="#423b30" stroke-width="0"/>
      <path d="m15.7157593,60.4468441c-2.6294023-2.6387778-.6518393-5.6675635-1.0380382-8.7395702-.8835007-2.5430288-2.4000133-3.2677522-.9846218-6.27023.3463254-.7217647.6743039-1.5730097,1.3801924-2.0086978.0546593-.0273296.1971638-.1132228.263551-.0605156.0514871.0287175.1456615.1941746.1151596.2303498-.0391262-.0631083-.0639776-.1395306-.137609-.1682176-1.005752.6440918-1.403206,3.2776195-1.2192648,4.4076359.2803804,1.0425524,1.147677,1.7211723,1.6262659,2.6574144.5114546.9311559.6110126,2.0028681.5506418,3.0452795-.1699562,2.327705-1.3027711,4.6007316-.5562771,6.9065515Z" fill="#423b30" stroke-width="0"/>
      <path d="m25.3771367,26.919629c.0060851-1.8708295.9168087-3.2342917,2.5805537-4.0527167,1.0058587-.5876787,2.0192667-1.1815798,3.1038811-1.6124181.1464088-.050755.1854511-.0546593.3123616-.0253928.1608514.1121095-.010607.3531959-.0742338.4880445-.0272915-.0761173.047926-.2376245.0185451-.342749-1.3055697.9203469-2.4751546,2.0638146-3.753509,3.0389732-.8475161.7200261-1.4139045,1.7438352-2.1875986,2.5062588Z" fill="#423b30" stroke-width="0"/>
      <path d="m18.8643028,37.0138272c.2483611-.897684.7273161-1.7171461,1.3723534-2.3871492.2645576-.2695446,2.8649527-3.4410026,2.1765493-1.5756481-.0375783-.0344518-.0177749-.1622087-.0409868-.2147481-.7390288,1.6703563-1.6902511,3.5366868-3.5079159,4.1775454Z" fill="#423b30" stroke-width="0"/>
      <path d="m40.2168319,18.2332578c-.353051-.9969675,1.1567513-2.4396581,1.8507517-3.0744774,2.6998844-2.3410762,6.3440063-2.8589515,9.7775359-3.1374026,1.5909219-.4064368,3.0360908-1.2631569,4.6642097-1.5536563,1.2572319-.2443349,2.55693-.2734794,3.8339538-.2420167-1.3363117.6629114-2.8019931,1.2478602-4.1618294,1.9284627-1.4679195.7606546-2.8772869,1.5133329-4.5309434,1.657576-.9269658.0538662-1.8573477.0433431-2.7835509.1035079-2.7784876.217661-7.4777515,1.315864-8.5263205,4.1992932.0150374.0079762.0300062.0159067.0449749.0238219.2191632.0091963.4675625-.1386918.6512369-.1490777-.2404001.1149004-.5492693.3958222-.8200187.2439689Z" fill="#423b30" stroke-width="0"/>
      <path d="m85.784929,15.7203648c-3.9060029-.902366-7.6305199-2.3968335-11.5757787-3.1438995-1.0453891-.0992834-2.2681921-.4884715-3.2433965-.0380053.0102791.0602106.1282602.104667.1099896.128611-.0796555-.0388898-.1388291-.0591278-.1619952-.1386003.0683241-.1932596.3220993-.2635358.4977898-.312354,1.2138507-.350954,2.5057098-.3193846,3.7519687-.2206197,2.3796915.2048808,4.7513915.6245554,7.047142,1.2845387,1.4081321.3941294,2.7145406,1.2915541,3.5742803,2.4403291Z" fill="#423b30" stroke-width="0"/>
      <path d="m100.6232593,27.854571c-5.6047869-2.0638298-3.390278-6.3431751-7.5079026-7.6327618.6784064-.1239899,1.6760754.4194001,2.2839158.8610208,1.043376.7776136,1.4904718,2.0600781,2.1466423,3.1261627.9020915,1.3053867,2.2669873,2.295964,3.0773445,3.6455783Z" fill="#423b30" stroke-width="0"/>
      <path d="m111.337941,50.9030322c-.5134067-.8628357-.9428725-1.8232772-1.089144-2.8248199-.3861684-1.3565992.0714048-6.700931-1.8428899-6.571222-.0180113.0230441-.0365564.0454325-.0543238.0685834-.0405979.1030199.0597073.2286722.0308526.2403544-.1522651-.1776426-.1522651-.3884713.0859236-.4959444,1.7759841-.2802355,2.371029,2.9402083,2.6333447,4.228392.300016,1.7547853.7556675,3.6157628.2362366,5.3546567Z" fill="#423b30" stroke-width="0"/>
      <path d="m109.9320203,60.2450402c-.3821879-.8877862-.0538052-1.8442167.0956232-2.7486225.1070614-.4317305.2652591-1.5462329.53488-1.7022307q.0000305.0000267.0019826.0000267c-.0062834,0-.012643-.0008388-.0194144-.0019216-.3199337,1.449809.163505,3.1392632-.6130715,4.4527481Z" fill="#423b30" stroke-width="0"/>
      <path d="m93.9858484,56.0459605c.4472483-.6144135,1.3270582-.3204484,1.6417456.2791337-.1722133-.0050442-.4160602-.0816801-.5973478-.0488144-.1289617.0258045-.1930461.0412232-.2772311.1188199.296859.3492307.4590525.9790362-.187815,1.0070788-.5725498.0000763-.9147803-.9161071-.5793517-1.356218Z" fill="#423b30" stroke-width="0"/>
      <path d="m103.619957,46.6953357c-.2854513-.304637-.6981716-.8046687-.4450369-1.2298184.1277111-.1776579.3674098-.2077632.5528914-.1190334.5086942.0490927.6133002.7304577.0915817.8582299-.0504958.1641913-.100778.3558038-.1994362.4906219Z" fill="#423b30" stroke-width="0"/>
      <path d="m81.5001392,65.568646c-.8042722-.5075504-.884309-1.6319697-.2362061-2.2995975.2244934-.2322981,1.019005-.8686882,1.2122646-.28499-.0072442.0263536-.0876165-.1084187-.1600736-.1156477-.4526929.0466373-.7105401.5683443-.839395.9413436-.1644048.5040312.2061008,1.054513.7203311,1.1068846.3816084.0657924,1.0040286-.055071.9350487-.5407364-.0719081-.3796867-.2607449-.7623436-.3045302-1.1322278.4872819.2079615,1.0215519.5185463,1.2181362,1.0384652.4350323,1.4268602-1.586766,2.0251535-2.5455757,1.286506Z" fill="#423b30" stroke-width="0"/>
      <path d="m67.2814229,63.2099397c-.6037837-.3840523.4628195-.9520993.8452666-.8804352.618333.1600278.2276656.8755092-.2662657.8741175.0026232.0123837.0239134.032839.0086168.0394999-.1888063.0213703-.4075959.0391643-.5876177-.0331822Z" fill="#423b30" stroke-width="0"/>
      <path d="m66.7883762,79.800112c-.0468508-.1425045-.1737384-.5602576.0683698-.6071694.439089.234071,1.0201793.3951054,1.3195548.8296954.2400646.3268576-.1181488.6376559-.450512.617784-.4431305.0000153-.8114553-.455133-.9374126-.8403101Z" fill="#423b30" stroke-width="0"/>
      <path d="m35.0110166,29.0267867c-.5802591-.0829345-.8595872-.7211699-.7321506-1.2522372-.2794577-.1690259.0462255-.3763315.2076183-.4855891.4569936-.7385102,1.5836548-1.2047459,2.1916096-.3957917-.1813867-.0033247-.4277805-.1441059-.6383346-.0761631-.2375559.0687816-.4097692.2429623-.5444424.4345443.8511763.4619807.5434434,1.8932484-.4843004,1.7752368Z" fill="#423b30" stroke-width="0"/>
      <path d="m57.6212886,22.1631284c.1601956-.4883952.831373-.4293132.8843547.0858474-.0499658.337884.1948075.6122174.1541639.9409203-.0289157.2068786-.1867284.3481173-.4001535.3439386-.6119391.0000915-.813987-.9075971-.6383651-1.3707063Z" fill="#423b30" stroke-width="0"/>
      <path d="m84.0129101,22.3925784c-.0780694-.2951357-.1116367-.5976833-.1693766-.8968147-.0757665-.2406899-.2151141-.4954869-.0590363-.7332029.1581825-.2848871.6274683-.1535309.6969362.1386156.175416.5586105-.0841698,1.1099157-.4685233,1.4914021Z" fill="#423b30" stroke-width="0"/>
      <path d="m72.0805498,30.5892275c-.0161812-.2912467-.0288242-.5831492-.0369377-.8753567-.3124912.1431146-.6708114-.0522039-.8415454-.3290995-.3567341-.6881822.1621172-1.4556082.6305795-1.9481669.3579999-.4480566,1.052862-.5455862,1.2084671.1190639-.0898126,1.0361623-.5876787,2.0924101-.9605635,3.0335592Z" fill="#423b30" stroke-width="0"/>
      <path d="m30.8401129,50.6805977c-.15925-.0989441-.3156558-.1973316-.483454-.2808608-.0527834-.0228459-.1060701-.0420925-.109105-.040007-.3725417-.1237726-.4132692.4104478-.5465775.6071732-.6492619-1.5149952.9178457-1.6840058,1.9767776-1.2003994,1.7222856-.6940843.993475,2.312679-.8376412.914094Z" fill="#423b30" stroke-width="0"/>
      <path d="m30.4119435,56.7269442c-.7447173-.2627084-.5139253-1.185484.0682707-1.5069885.7567198-.5178753,1.8135395-.262655,2.2956742.4587322-.6540659-.4272391-1.6563254-.4231061-2.0695032.3098071.3557962.0504805.7410037.0759953,1.050521.2523378-.3142908.3981594-.8500402.6380105-1.3449628.4861114Z" fill="#423b30" stroke-width="0"/>
      <path d="m45.6797243,54.2234916c-.1483609-.0331898-.2264456-.1542172-.2869612-.2850091-.1327439-.2967218.4021361-.4255577.4138488-.0858931.0054141.1274214-.0098521.300443-.1268876.3709022Z" fill="#423b30" stroke-width="0"/>
      <path d="m66.7812082,77.7457529c-1.5689377-.3929703-.7362226-2.2223478.3786802-2.5474363-.5075199.4223435-1.2391367,1.8875598-.0612172,1.8120373.3411324-.0479336.7042719-.1309443,1.0088174-.292482.0379595-.0321337.0053226-.0913987.0284125-.1218853.3086937-.0192772.3972558.3527841.2908959.579794-.2619344.5941146-1.0764857.6868554-1.6455888.5699724Z" fill="#423b30" stroke-width="0"/>
      <path d="m69.1054017,85.6836093c.1753855-.2858784.6124919-.271085.8843242-.179549-.2147939.176087-.4454944.3815321-.7100825.4649088-.1360992.0000305-.2587775-.1465613-.1742417-.2853598Z" fill="#423b30" stroke-width="0"/>
      <path d="m83.2229128,82.1572169c-.1425045-.2264456.2869612-.384567.3240362-.113238.0347568.3228008-.1379445.3835605-.3240362.113238Z" fill="#423b30" stroke-width="0"/>
      <path d="m94.3695613,76.741099c-1.1672897-.9575286.497073-2.7583717,1.3839899-2.8304933-.4515643.2675773-1.710878,2.0911595-.6668462,2.1573637.5028684-.1249965,1.0338747-.2508928,1.4244353-.5703689.7640555,1.10258-1.369715,1.9026734-2.141579,1.2434985Z" fill="#423b30" stroke-width="0"/>
      <path d="m47.5075692,28.0217362c-.4344451-.380373-.6336297-.9757992-.3943657-1.5187317.0878453-.249871.384567-.4919335.6090833-.2576794-.361378-.0641606-.2649389.4576799-.1874108.6637502.2328509.4888528,1.0570637.8084509,1.5011626.5211847.3336595.0876165.2802889.5597085.0722283.7554692-.4688665.4512135-1.1774163.2451279-1.6006977-.1639931Z" fill="#423b30" stroke-width="0"/>
      <path d="m56.1991676,40.0176471c-.9140902-.8702629.6837023-1.8686487,1.4836432-1.2825713-.2387835.0600581-.5326915.1472323-.7118669.3568561.2818674-.0893093.6205597.0807383.567395.4102801-.0504881.5941756-.8885068.8547069-1.3391713.5154351Z" fill="#423b30" stroke-width="0"/>
    </g>
  </g>
</svg>