<?xml version="1.0" encoding="UTF-8"?>
<svg id="Layer_2" data-name="Layer 2" xmlns="http://www.w3.org/2000/svg" viewBox="0 0 80.3697222 110.5840684">
  <g id="Layer_1-2" data-name="Layer 1">
    <g>
      <path d="m43.794053,25.5534884c-.0792876.020999-.135309.035903-.1913727.0506698-1.2333499.3249542-2.4580325.6763537-3.6110347,1.2349595-.4564671.2211443-.9095474.4498163-1.358428.6859809-1.367529.7194949-2.630877,1.6026506-3.8831835,2.5007815-.4675492.335316-.9085875.7075596-1.3623973,1.0620849-.2725192.2129004-.5485639.4213397-.8191536.6366497-.6202012.4934913-1.2368499.9914535-1.8573402,1.4845803-.2908079.2311179-.5912474.4502049-.8800933.6836856-.4962471.4011355-.9856384.8107354-1.4803,1.2138485-.2380847.1940169-.4758263.3892914-.7237499.5702509-.7688997.5612228-1.5290782,1.1360012-2.3190047,1.6662412-.5607339.3763904-1.1611226.6945006-1.7494292,1.0287301-.4536645.25774-.9120226.5079313-1.3755089.7475186-.7307986.3777585-1.4848293.7022138-2.2626924.9733147-.845718.2947601-1.716097.4807013-2.6005831.5950914-.6444811.0833465-1.291607.1319791-1.9465875.1029651-.4686499-.0207575-.936129-.0181774-1.4007809-.0994093-.1854409-.0324204-.3793501-.0140446-.5663293-.0405271-.2900149-.0410744-.5730909-.1081387-.8502668-.2144921-.2711976-.1040589-.5878407-.0616172-.8413529-.2393027-.8381722-.193229-1.6106541-.5673932-2.3823755-.9233255-.8485995-.3913896-1.6822513-.8207482-2.4708253-1.3343654-.5383126-.3506117-1.0683897-.7091193-1.5684391-1.1109584-.6419441-.515858-1.2255028-1.0910922-1.7720054-1.7090357-.5976738-.675817-1.1313843-1.3985725-1.6077542-2.1593098-.5478788-.874927-1.1434066-1.7243141-1.5471405-2.6845534C.1587916,29.7829238-.0051349,29.2757643.000123,28.7443215c.0059269-.598983.2114039-1.1433072.6376802-1.5872496.4952704-.5158007,1.122892-.7624023,1.8046554-.9134768.9187861-.2035951,1.8555769-.2612789,2.7874517-.3508818,1.1313439-.1087894,2.2607985-.2275519,3.3816298-.4162992.7525093-.1267202,1.5034849-.2634546,2.2528965-.4074051.6516628-.1251732,1.3047964-.2479095,1.9489189-.405819.8183509-.2006244,1.6302097-.4287685,2.4413902-.6573814,1.3764605-.3879244,2.6992114-.9237214,3.9998967-1.5104929.7287257-.3287398,1.4418849-.6954841,2.1449568-1.0766415.7553267-.4094861,1.4926126-.8523896,2.1850793-1.3652737.6197249-.4590125,1.2554501-.8973588,1.8615669-1.373526.5810775-.456491,1.1291717-.9547181,1.6992649-1.425521.4437481-.3664614.9023393-.7149007,1.3482417-1.0788157.4544981-.3709389.8919433-.7633303,1.3544049-1.1238132.5267941-.4106333,1.0703902-.7999654,1.6113421-1.1921344.8922351-.6468354,1.8519151-1.1756964,2.8743063-1.5843069.7491838-.2994109,1.5221711-.5219201,2.3176605-.672579.7750021-.1467817,1.5526793-.2576149,2.340024-.299786.312104-.0167125.6245223-.0396281.9367541-.0390012.4904529.0009789.9808776.0194683,1.4713029.0308118.0127839.0002938.0254941.0037715.0382523.0056353.7098935.1035842,1.4277247.1710166,2.1266669.324476.4095933.0899304.8298579.16378,1.2266751.2960749.4279945.1426858.8577751.2875127,1.2833815.4394435.9110798.3252287,1.7793984.7339073,2.6323304,1.1825637.5525424.290645,1.1067593.5781469,1.657419.8723149.154074.0823116.2958872.187295.447827.2739865.0747871.0426678.1598514.0673255.2329373.0971451,1.1194426-.730508,2.2943085-1.3104176,3.520454-1.8538332-.1465552-.4255394-.2692293-.8357469-.428357-1.2312874-.2455718-.6104113-.5118374-1.2126599-.7773953-1.8148136-.2095057-.4750488-.4405446-.9407212-.6447788-1.4179411-.2037428-.476065-.3918276-.9591038-.5763524-1.4430569-.2831642-.7426544-.565906-1.4856785-.8327088-2.2342886-.2071998-.5813603-.3855154-1.1729498-.5848443-1.7572074-.1301577-.3815056-.2474022-.7649911-.3533599-1.1546955-.1096309-.4031672-.0885271-.7768677.0125986-1.1693169.0787838-.1070908.1607554-.2198706.244122-.3316075.3244518-.4348628,1.1707183-.5678994,1.5878565-.0042507.3967552.5361025.7421091,1.1105396,1.1037979,1.6721559.1662185.2580979.3236183.5223849.4740795.7900142.2368601.4213162.4703968.8447297.6946272,1.2728659.3360091.641572.6618338,1.2884731.9936868,1.9322338.3310763.6422468.6000384,1.3112011.8389932,1.9914939.1711114.4871816.3369505.9782049.4666045,1.4775204.2208384.8504536.4113375,1.7087841.6146939,2.5637755.0115688.0486328.0241317.0970259.0341546.1371929.5766244-.0444909,1.1468023-.1231422,1.716724-.1212764.4397549.001441.8843649.0328482,1.3248381.0489033.4928949.0179726.96298.1303246,1.4423101.2040039.5036073.0774101.9786176.261409,1.4641601.4089011,1.0268771.3119276,1.9727313.7924692,2.8977219,1.3222179,1.076322.6164066,2.0661232,1.352091,2.9470824,2.2237612.3247773.3213555.6087007.6866801.8951102,1.0476694.3444542.4341476.6240944.9077917.9140798,1.3724153.3630018.5816312.6775316,1.1960365.9788729,1.8129598.3385795.6931518.662549,1.3954384.9506957,2.1107398.4377435,1.086669.8152756,2.1936603,1.0819062,3.3394088.1707944.7339444.2994043,1.4717271.3782292,2.2183011.0616214.5836934.0958174,1.1706341.1289587,1.7568792.0324729.5743188.0570168,1.1494217.0681035,1.7245022.007033.3646536-.0205781.7298474-.0259738,1.0948957-.0061313.4141848-.0034241.8284995-.0073264,1.2427287-.0018948.2014599-.003776.403268-.0166676.604216-.0316038.4926538-.08313.984405-.1008725,1.4774472-.0150069.4170101-.0314551.8324385-.0660151,1.2489443-.0365407.4403853-.0470188.8832338-.0814347,1.3250848-.0323146.4148729-.0493527.832441-.0689854,1.2484869-.0273577.5795783-.0499175,1.1592255-.0825732,1.7388986-.0353077.6266712-.0371725,1.2560358-.0309673,1.8839988.0058073.587507.0636411,1.1749298.0581196,1.7620086-.0070715.7526149.0386903,1.5023925.0790189,2.2521635.0301469.5605747.0970756,1.1199409.1670269,1.677412.0917426.7310497.1885889,1.4620173.3084587,2.1888623.1812514,1.0989888.3662627,2.1971524.5956172,3.2882064.4353449,2.0709561,1.0550896,4.0909373,1.6610268,6.114414.3543844,1.1834434.7420806,2.3575498,1.1418077,3.5266286.3999774,1.1698155.6954895,2.3683177,1.0133693,3.560173.2553127.9572582.4709964,1.9261252.6715546,2.8965971.1591869.770292.2659992,1.5501009.3425308,2.3352936.0715741.7345191.1360201,1.4672071.1434731,2.2055494.0061873.6131398.0397333,1.2259921.0466769,1.8391444.0028693.2524057-.0345526.5050951-.0491092.7579201-.0101372.1760854-.0087571.3528302-.0194977.5288541-.0099895.1635247-.0934645.322846-.0189107.4918606.0132607.0300489-.0082358.0754422-.0136877.1137421-.0992431.6973591-.1937481,1.395434-.2996913,2.091779-.0562317.3696307-.1227835.7383009-.2017551,1.1037189-.1052233.4869139-.1988455.9792645-.3501573,1.4524289-.1350046.4221343-.219812.8613561-.3851909,1.2701824-.291321.7201143-.5335051,1.4577092-.8379566,2.1744135-.47494,1.1180265-.9685059,2.2244063-1.5629078,3.2829066-.4049143.7210574-.8245633,1.4352164-1.3212079,2.0993794-.4831886.6462015-.9471117,1.3086208-1.4608823,1.9296957-.6115056.7392395-1.2451947,1.4610404-1.9399913,2.1274613-.6055076.5807802-1.2116045,1.1584577-1.8602954,1.6924393-.4746956.3907592-.9470942.7824057-1.4489209,1.1385444-.3766093.2672719-.730623.5678611-1.1165847.8201091-.6094568.3982981-1.2390221.7642293-1.8729698,1.1244686-1.294012.7352978-2.6539486,1.3261999-4.0241914,1.8933119-.7680986.3179036-1.5625007.5730798-2.3485259.8465402-.4169468.1450515-.836752.2861183-1.2632576.3987106-1.0067808.2657791-2.0150326.5220451-3.0440514.6990944-.9608125.1653165-1.9238465.3091162-2.8909859.4246915-1.313842.1570225-2.6273382.3288076-3.9459037.4302157-.8587682.0660517-1.7217583.1289658-2.5874187.1044732-.4871049-.0137943-.9756551.033925-1.4635562.0338316-.2780376-.0000631-.5557587-.0468471-.8341951-.0613272-.3888863-.0202252-.7783282-.0299801-1.1640622-.0440837-.0168578.2279909-.0324297.4385773-.0501797.6787346.3366011-.1438843.6617472-.02886.9560519.0298722.4927533.2420477.711454.6695454.9088504,1.1295765.2648012-.0714982.3965564-.2947611.5686508-.4491492.4591228-.4118758.9960233-.5984251,1.5941819-.5842777.3560689.008423.6726763.1957429.9850089.3632858.1641436.0880658.3353601.1629744.5138668.2488745.4901818-.4072097,1.0333426-.6376251,1.6446086-.6740706.1245843-.0074364.2933198-.0150514.3878089.1816225-.2141986.3534582-.4440472.721148-.6609573,1.0963224-.087847.1519318-.1594646.3128958-.177777.4962544-.0632717.6333635-.4002335,1.0285106-1.0788302,1.1546198l-.6060979-.1099801c-.2343335-.1644023-.4406084-.3499349-.606769-.6022927-.136655-.2075417-.3838628-.3286156-.7080307-.3240489-.1392275.1266028-.3112305.2763604-.475522.4341519-.1913058.1837487-.3655497.3864935-.5658102.5594287-.2938023.2537045-.6292558.436347-1.0735475.4864708-.5771958.0065262-.9977479-.3273163-1.2888898-.8946215-.1047976.0740125-.2020524.115875-.2609002.1887391-.3044075.3769161-.7040979.6358231-1.1093179.8778459-.6814295.4069759-1.6378105.1156727-1.8247998-.8110507-.0829813-.4112143.0264084-.8190721.1626843-1.2016481.1715513-.4816281.3705638-.9555367.6177442-1.4065716.143845-.2624803.2787145-.5299979.4129436-.7975836.0425389-.0847913.0700031-.1771475.1154161-.2946575-.1259528-.0228549-.212204-.0383521-.2984072-.054167-.5708831-.1047232-1.1414098-.2114364-1.7127336-.3137048-.5142914-.0920539-1.0091216-.2495822-1.5014792-.4208433-.2751919-.0957247-.5635263-.1531239-.8408351-.2434526-.3225506-.1050671-.6437443-.2168971-.9578581-.3446482-.3934128-.1599991-.7814332-.3339213-1.1674298-.5112976-.5559467-.255454-1.1173348-.5014778-1.6594283-.7840675-.785721-.40961-1.5625008-.8374343-2.3315538-1.2776538-.7490681-.4287871-1.486741-.8778299-2.2235828-1.327538-.6205467-.3787356-1.2469569-.7505564-1.8447879-1.1630959-.6634219-.4578161-1.312092-.9375064-1.9233941-1.4678041-.4202861-.3645957-.8512024-.7166701-1.2315014-1.1232367-.3814494-.4077931-.7476826-.8297813-1.1230746-1.2432826-.4778038-.5263519-.8451243-1.1331545-1.2488862-1.7131085-.4458084-.6403725-.7977214-1.3352861-1.1354907-2.0360249-.3900534-.8091885-.7124516-1.6487407-.9718336-2.5065843-.2214544-.7324217-.3848343-1.4838395-.5439581-2.2332081-.1167303-.5497425-.2027648-1.1076068-.2706394-1.6657285-.0979159-.8051843-.1885056-1.6124861-.2404368-2.4215777-.0321014-.5002241.0235175-1.0054812.0210382-1.5083858-.0023837-.4832714.0618568-.960032.0954622-1.4397206.0875778-1.2501492.4150919-2.4574134.6059853-3.6884024.230395-.4070527.1870736-.8902346.3775126-1.3155985.1436307-.3208002.1613484-.6963441.2907428-1.0256517.1108352-.2820851.1500805-.5833439.2868269-.8599879.0921811-.1864788.1218193-.40831.19913-.6111788.1563876-.4103907.2859906-.8302983.4533881-1.2379998.1481517-.3607957.2403909-.7441421.3762909-1.1104926.1697978-.4577313.3603267-.9077451.5394696-1.3620524.1609775-.4082232.310686-.8210932.4800761-1.2257544.1640244-.3918375.343591-.7773118.5220909-1.1629125.2780628-.6006966.5682168-1.1955889.8578155-1.7907549.4049155-.8321558.8498495-1.6412652,1.2904767-2.4534412.3885331-.7161566.8280175-1.4018678,1.2857085-2.0749714.6713098-.987253,1.3598774-1.9627811,2.032138-2.9494007.8438937-1.2384983,1.7340104-2.4434054,2.6541161-3.6252616.6352679-.8159833,1.3095708-1.6015423,1.9653829-2.4015558.8646462-1.054777,1.7951558-2.0509108,2.7108004-3.060606.6609555-.7288551,1.3020112-1.4758817,1.946388-2.2196221.9908184-1.1436147,1.9093315-2.3443148,2.7878244-3.5754067.8670329-1.2150294,1.6801723-2.4650324,2.3706753-3.7903751.3521487-.675918.6774601-1.365376.9616673-2.0731662.22454-.5591895.4535822-1.1156754.6336402-1.6930228.1086138-.3482342.2135446-.7040834.3527523-1.0366223.1236734-.2954251.1322247-.6148171.2838073-.9035888.1327204-.2528428.1626148-.5584724.2482735-.8376127.0578065-.1883764.0577128-.3833753.0115045-.5613701-.0996499-.3838022-.0620862-.7731284-.0871118-1.1590832-.033983-.5240363-.0438576-1.0497613-.0580443-1.5749246-.0098082-.3629584.0159656-.7288744-.0219738-1.0884257-.0282351-.2675989.0787013-.5268486.0085702-.7919875-.0152032-.0574679.0151295-.126212.0207685-.1900948.0310804-.3524328.0610269-.7049658.0940819-1.0891284Zm12.1618367-6.1991885c.0078911.0235009.0157923.0469988.0050574.0150415.0273887.0198665.0072797.0052816-.0128293-.0093034.0106224-.0501797.0361328-.1024538.0294026-.1501846-.0382901-.2714494-.0777641-.5430415-.1289157-.8122928-.1260912-.663668-.2547959-1.3269028-.3908395-1.9885841-.0495943-.2412444-.1229194-.477616-.1861505-.7189777-.6964415.3249341-1.3875756.5802461-1.9927917,1.0200719.0456839.0551352.0741415.0991658.1116454.1332393.4008776.3641416.8160222.7136566,1.201801,1.093066.4673373.4596331.9101763.944163,1.3636202,1.417924Zm-9.35067,5.9410011c.0752568.1435253.136972.2415117.1802633.3470573.2424978.5911859.2962286,1.21302.2979721,1.844326.0010062.3659603-.0086366.7303388-.0251854,1.0961861-.0236046.5219352-.0837553,1.0399176-.1585817,1.5517086-.0998025.6826106-.2797338,1.3538162-.4326084,2.0282511-.0958731.4229508-.2052105.8428488-.3088107,1.2640422-.0060613.0246465-.0100647.0516299-.0231221.0724481-.1790964.2856275-.1672898.6316995-.3036949.9357504-.1232907.2748226-.159212.5874478-.2549023.8763664-.1461605.4413101-.3107029.8765339-.4672659,1.3144009-.1650207.4615122-.3033218.9348051-.5007471,1.3820024-.3277113.7423155-.6720758,1.4789927-1.0474476,2.1982048-.7879444,1.5096715-1.6504411,2.976281-2.6309024,4.3710917-.7902654,1.1242361-1.6524875,2.1932215-2.519023,3.2579869-.5574879.6850043-1.1466839,1.3442887-1.7248295,2.0123617-.5282518.6104251-1.0481106,1.2288061-1.5942999,1.8228655-.854408.9292761-1.7384817,1.8309417-2.5296159,2.8175751-.6314083.7874376-1.2962825,1.5485242-1.9135125,2.346667-.4922244.6364967-.9518741,1.3000755-1.395765,1.9716026-.6702408,1.0139566-1.3026827,2.0528997-1.9726188,3.0670556-.6355927.962174-1.1898865,1.9714764-1.7580499,2.9721555-.4500139.7926044-.8578269,1.6089009-1.2546319,2.4312563-.3530075.7315804-.695266,1.466705-1.0115546,2.2142233-.1610425.3806168-.2962382.7724526-.4642052,1.1498253-.2251397.5057973-.3820836,1.035875-.5829733,1.5495484-.0936712.239535-.113044.5049857-.2250176.7237633-.1237484.2417873-.1709757.5037487-.2520846.7502487-.1578813.4798167-.3025546.9682518-.4272929,1.4584992-.1290612.5072449-.2580751,1.0178013-.3583847,1.5302057-.2631717,1.3442675-.5434318,2.6862216-.6070842,4.0643503-.0220959.478407-.0224982.9615282-.0829159,1.4397889-.0218831.1731668-.017646.3525806-.001921.527022.0582778.6463556.0928674,1.2941738.1581045,1.9406977.1008985,1.0000305.2938828,1.9791712.5081579,2.9566736.2058355.9390341.5102711,1.8498247.8876205,2.7308505.4179037.9757005.9424826,1.8978634,1.5690893,2.7579452.1276992.1752783.2715228.3388691.4087413.5071662.1778411.2180685.3433775.4480183.5373495.6507134.5065314.5292891,1.0369332,1.0313208,1.5979716,1.5067468.7327233.6209328,1.5181322,1.1657901,2.3032765,1.7105707.6785998.4708438,1.3904644.894618,2.0959174,1.32563.6512639.3979051,1.3085139.7866325,1.9723285,1.163205.7707144.4372277,1.5404202.8787178,2.3316699,1.2763786.5348636.2688054,1.0837323.5155916,1.6532032.7137113.3329924.1158336.6642727.2359172.9974616.3505095.1932406.0664519.3876968.1137966.5826647.1673695.1949413.0535873.3831877.1370589.5805955.1751745.7344659.1418282,1.4714587.2705769,2.2076077.4036851.0888278.0160607.1812524.0508729.2669077.0392818.4231646-.0572988.82603.1166959,1.2498361.0912079.3007318-.0180655.6094882.0840473.908805.0599161.2095753-.0169013.4034635.036034.6055491.0315709.5007325-.0110395,1.001629-.0146753,1.5023573-.0258499.5630656-.0125755,1.1264868-.0206027,1.6888965-.0481891.5735641-.0281548,1.1461315-.0767976,1.7190354-.1180342.959507-.0690682,1.9224355-.1086822,2.8774492-.2174901,1.0172604-.1158996,2.040059-.2048032,3.0447994-.4165314.6499733-.1369487,1.2998687-.2745261,1.9484743-.4178007,1.0587703-.2338587,2.0952071-.5512125,3.113283-.9173898,1.0578401-.3804883,2.1057661-.7944413,3.1121417-1.2999084.7270488-.3651889,1.4509595-.7392236,2.1564042-1.143935.534087-.3063966,1.0413694-.6607484,1.5515911-1.0070105.2645065-.1795106.5099901-.3871584.7632483-.5831507.2937988-.2273875.5982478-.4427225.8774242-.6868871.4969641-.4346394.9748401-.8910236,1.467105-1.3311436.9557368-.8544807,1.7740228-1.833806,2.5723452-2.8302631.5116224-.6386033.9747749-1.3130202,1.4161994-2.002412.4655533-.7270679.8664586-1.4902159,1.2436473-2.2644172.3122334-.640852.5879608-1.2989475.8551785-1.9615251.2391844-.5931186.4565155-1.1942257.6866085-1.7902614.1635426-.423629.2869066-.8653215.3956955-1.3069607.1653586-.6713247.3149145-1.3472068.4467086-2.025899.0702072-.3615643.0879347-.7332467.1313295-1.1001276.0403585-.3411526.1116258-.6746419.1226384-1.0243455.013858-.4404686.0627911-.8813128.0718383-1.324901.0086931-.4270324.0046737-.8529534.0022055-1.2796971-.0044161-.7648674-.0646461-1.5228007-.1307878-2.2838711-.1000389-1.1512322-.2961052-2.2831346-.5799869-3.3996901-.2296545-.9032508-.4918244-1.798326-.7456195-2.6953189-.1135831-.4014144-.2400493-.7992424-.3641109-1.197623-.1985893-.637702-.3956004-1.2759529-.6013181-1.9113574-.314804-.9722299-.6506778-1.9378751-.951541-2.9143349-.3668859-1.190743-.6652462-2.4007461-.9551775-3.6124362-.0964237-.4029574-.2063393-.8033127-.2856195-1.2096307-.2012657-1.0315504-.3892805-2.0656987-.5815089-3.0990081-.1990434-1.0699899-.3591985-2.1458661-.5144134-3.2231454-.144394-1.0021958-.2583355-2.0066477-.3355699-3.0152838-.0391482-.5112867-.0451781-1.0250755-.0676121-1.5376739-.0192286-.4391464-.0175607-.8781544-.0178068-1.3175145-.0002341-.4266743.0273124-.8534205.0118267-1.2791178-.0088972-.2445845.0543834-.4836331.0429483-.7196816-.0258185-.5329436.0776429-1.0561827.0759569-1.5872437-.0012155-.3797284.0737238-.7596994.114787-1.1395525.0041371-.0383033.0250428-.0841974.0109661-.1135063-.0816622-.1699491.015458-.3282203.0226794-.491676.0077813-.1764361.0050617-.353736.0213962-.5293162.0353864-.3804223.079969-.7599872.1209358-1.1398914.0027609-.025639.0177114-.0562289.0085314-.075907-.0784007-.1679747.0090126-.3277288.0185916-.4911071.0103282-.1761852.0066377-.3533732.0214765-.5290711.0288951-.3421621.0956988-.6841233.0895114-1.0251286-.0037439-.2067366.0312994-.4038282.0400461-.6054802.0114132-.2627521-.00807-.5267274-.0011726-.7898332.0062879-.2400624.031261-.4796004.04572-.7195051.0136818-.2272086.0352319-.4546553.033911-.6818882-.0020308-.3502606-.027345-.700363-.0305055-1.0506414-.0042197-.4648721.0388464-.9329642-.001632-1.3941132-.0796112-.9070133-.1733979-1.8117309-.3446413-2.7106189-.259795-1.3636426-.7245562-2.6484774-1.337971-3.8845595-.333207-.671433-.6812361-1.3360021-1.0406235-1.9937989-.3058555-.5598215-.6273929-1.1117974-.9623834-1.6546639-.1536977-.2490785-.3690158-.4593292-.534258-.7022501-.4788767-.7039434-1.1128636-1.2536525-1.7856543-1.7514833-.7546883-.5584331-1.5752328-1.0176023-2.3947241-1.478395-.884322-.4972421-1.8332261-.7776303-2.816419-.964774-.3492034-.0664712-.7083029-.0809986-1.0628773-.1192462-.0128256-.0013863-.0256839-.004286-.0384625-.0039212-.4876976.0139712-.9754737.0259935-1.4629769.0449784-.0708999.002766-.1404978.0390469-.2321081.0661536.4974742,2.5968736.6932421,5.2111511.8814199,7.8119102-.0413662.081874-.0955308.1460728-.1055529.2165437-.0380731.267972-.1292805.5190101-.2315123.765561-.1545529.3727113-.3216738.7316108-.624726,1.0242271-.3759597.3630108-.8069447.6368584-1.2799343.8276212-.5030388.2028617-1.030267.3480123-1.5516107.5026416-.7889078.2339986-1.5910822.2730227-2.4013574.1241354-.4140914-.0760948-.8397018-.1175732-1.2221848-.3053969-.2112615-.1037351-.4419397-.1211813-.6531803-.201221-.465199-.1762657-.9481298-.2808718-1.4280141-.3989337-.2602719-.0640257-.5263249-.0756346-.7952082-.084795-.255371-.0087008-.5074381-.0895813-.7630781-.1220658-.2512223-.0319085-.5048743-.0470665-.7579256-.0612225-.1240401-.006939-.249134.005052-.4075859.0094107Zm8.9047239-2.4750836c.0273655-.0195325.0438273-.0249563.0472832-.0349005.0123429-.0355325.0323056-.0740606.0280804-.1088741-.0779598-.6433981-.3204408-1.2227711-.7104235-1.7362982-.199881-.2632053-.4223997-.5099423-.6438112-.7559023-.3308486-.3675313-.6609162-.7365099-1.0078533-1.0885833-.3097071-.3142954-.6569005-.5923064-.9591275-.9131129-.2278543-.2418579-.458504-.4721732-.7307329-.6642583-.536857-.3788064-1.0669263-.7672403-1.5994106-1.1522335-.2841327-.2054308-.5558447-.430816-.8534543-.6142806-.7132023-.4396577-1.4806622-.7753689-2.2465187-1.1098098-.3217953-.1405275-.6643213-.2334537-.9969951-.3492439-.1780741-.061986-.3553847-.1261954-.5327819-.1901132-.2599198-.09364-.5126533-.2245546-.7806324-.2754998-1.0799909-.205342-2.1531756-.4484309-3.2651843-.4562378-.439679-.0030762-.8786279-.0038261-1.3179452.0099419-1.234357.0386859-2.4386233.2470412-3.6137369.6290435-1.0588165.3442-2.0404082.8453405-2.9634679,1.4608459-.3621792.2415083-.7030546.5158068-1.0465951.7841825-.4129972.322637-.8247089.6474755-1.22584.9846179-.6824949.5735986-1.3561024,1.1577728-2.033792,1.7370873-.571344.4884106-1.1406896.9791954-1.7154347,1.4635707-.7508325.6327773-1.4783106,1.2978383-2.2661602,1.8810281-1.1148693.8252595-2.2390351,1.6443146-3.4724155,2.2935578-.6863967.3613029-1.3606642.7487048-2.0627386,1.0765054-1.3282953.6201913-2.7021867,1.1307654-4.103251,1.5606244-.6604049.2026118-1.3357787.3602225-2.0102141.5122906-.7449718.1679773-1.4953012.3133214-2.245727.4557437-1.0316091.1957822-2.0787965.271979-3.122495.3619532-.6474993.0558235-1.3013751.0346768-1.9520265.0581858-.314873.0113757-.6321402-.0115571-.9420926.0067508-.3908834.0230847-.7773124-.0186725-1.1661748-.006474-.3897247.0122148-.7823426-.0526479-1.171156-.0331531-.1879164.0094249-.4131851-.0106883-.5771633.164942-.0788525.2750994-.0072044.5392461.0941357.802338.2572064.667743.6530382,1.2633295.98536,1.8917409.2325741.4398038.5214899.8505035.7433637,1.2951059.2729966.547018.6710004.9949775,1.0669555,1.4441735.2664716.3022975.5685747.5745509.8661227.8478452.8552052.7854901,1.7950414,1.4572356,2.8092694,2.0200612.6557441.3638887,1.3344035.6793675,2.0428168.9371108.4977043.1810838.9805627.3999055,1.5048528.4991362.0374331.0070805.0756493.0157721.1102821.0310098.5136336.2260047,1.0700111.2688595,1.6131709.3403478.4708884.06197.9539847.0289882,1.4315204.0432928.4259526.012765.8499744-.0108163,1.2726218-.0585979.9246047-.1045418,1.8390836-.2622026,2.7088461-.6061327.5748948-.2273263,1.1482437-.4620335,1.7067782-.7262169.4710872-.2228217.9221743-.4886866,1.3778671-.7431061.5233214-.2921764,1.0617208-.5632875,1.5581104-.8963948.7899008-.5300718,1.5560166-1.0963509,2.321329-1.6620125.4626218-.341947.9042431-.7122701,1.3561907-1.0687032.4923385-.3882731.9862518-.7745369,1.4783904-1.1630576.2207825-.174305.4418693-.3484347.6576026-.5288839.4103651-.3432393.8122852-.6967147,1.2266754-1.0349653.3176457-.2592771.6495753-.5010224.9742053-.7518022.2736651-.2114107.5464137-.424015.8187748-.6371025.4535194-.3548036.895005-.7262315,1.3618031-1.0625672,1.1668717-.840768,2.3558747-1.6495222,3.6296615-2.3234159.594432-.3144911,1.197174-.613293,1.7968332-.9178582.7680961-.3901168,1.5824569-.6688243,2.3917753-.9522058.6144574-.2151547,1.2435607-.4008301,1.8744113-.4894872.0657898-.064557.1189577-.1167284.1587271-.1557527.4140741-.0069899.8040732-.0265241,1.1933403-.0168106.4675115.01166.9376074-.0152363,1.4017949.0715185.2535311.0473874.5073641.1170281.7627468.1254527.4746822.0156639.9330713.0828358,1.3794305.2505125.1130564.0424685.2499107.0206432.3756537.0306325.0886543.0070423.1780052.0123099.26533.027949.9140511.1637382,1.8278476.32888,2.7414096.4953139.1003081.0182735.2031778.0357637.2971801.0729937.340759.1349672.4924644.1615445.9231671.1501692.0633322-.0016716.1412315-.0009976.1883903.0324371.175387.124364.3904705.1138822.5770873.1876295.3412668.1348673.6807657.2689482,1.0424048.3404891.0692656.0137016.1337772.0514853.2384169.0933243.0033666-.233329.0065599-.45475.0097847-.6779848-.0579758-.0452822-.1247243-.0738078-.1541212-.1241442-.2158826-.3697423-.5886326-.5475762-.9330249-.7495633-.5292624-.3104148-1.0761107-.5908235-1.6153029-.8843221-.50886-.2769961-1.0308378-.5223112-1.5894472-.6851237-.1809793-.0527485-.3613818-.1148401-.5320406-.1941986-.4497723-.2091359-.9220522-.3479925-1.4018703-.4613664-.3009367-.0711021-.6110462-.104061-.9110456-.178344-.6258901-.1549635-1.2718692-.1446104-1.9041069-.2467078-.1702523-.0274944-.3523036-.0082199-.5256756.014497-.698125.0914713-1.4012857.157569-2.0772919.3735619-.0592238.0189268-.1219593.0269669-.1831562.0395972-.625491.1290197-1.2562748.2369927-1.8750422.3927195-.6348507.1597791-1.2577992.3667776-1.8862838.5519796-.2535327.0747191-.5136183.1310241-.7610013.2221206-1.2151154.4474412-2.382252,1.0026661-3.5156069,1.6254943-.6716634.3691084-1.3252952.7718437-1.9788458,1.1728079-.4925237.3021719-.9737891.6228868-1.4569231.9401421-.6879358.451748-1.372979.9078998-2.0592983,1.3621158-.7615827.5040199-1.5218204,1.0100987-2.2852918,1.5112459-.5154113.3383258-1.0314224.6760674-1.5546483,1.0020583-.3901514.2430864-.8004407.4542328-1.1870553.7025121-.5164315.3316453-1.0540361.6223196-1.5951695.9104286-1.2567494.6691073-2.5960583,1.1299272-3.9415102,1.5702326-.75241.2462334-1.527533.4227577-2.2913336.6346152-.6169816.1711252-1.2400661.3147149-1.8739476.4043343-.637083.0900658-1.2762533.196661-1.9162158-.0064726-.0932036-.099413-.2034273-.1917801-.2808054-.3063386-.0836605-.123855-.1366375-.2684359-.2243103-.4475121.3191933-.3737387.502846-.844592,1.0154022-1.0791878.6681201-.3057959,1.304701-.6775304,2.024286-.8655198.3045152-.0795534.6039182-.1832123.8988732-.2939481.9694019-.3639582,1.9298784-.7524643,2.9046961-1.1010279,1.1792063-.4216482,2.3245139-.9229804,3.466559-1.4315201,1.1637088-.5181851,2.2637134-1.1607518,3.364163-1.7991044.5647241-.3275822,1.1174509-.6764339,1.6686512-1.0266091.5966802-.3790803,1.1845137-.7720559,1.777624-1.1567816.484852-.3145.9717677-.625822,1.4578392-.9384444.0325174-.0209116.0650765-.0418685.0985691-.0611438.3427115-.1972687.6866875-.3923781,1.0281489-.5917796.2651637-.15485.5203868-.3281239.7921691-.4699487.5511031-.2875721,1.1138532-.5527908,1.6656365-.8391113,1.0014575-.5196623,2.0479759-.9330546,3.118061-1.278796,1.3297326-.4296341,2.6692807-.8336467,4.049232-1.0764066.543277-.0955705,1.0890669-.2308912,1.6451879-.0676469.0490297.0143936.1021231.024383.1527703.0223491.5313866-.0212859,1.060899-.0030082,1.5898804.0539919.213472.0230038.432383.051512.6434298.0283535.3445465-.0378201.6812671-.0290194,1.0185415.0436645.0752823.0162336.1536785.0386683.2285634.0325929.3676317-.0297954.7321065-.0140958,1.0950761.0500342.2540051.044881.5075954.0935033.763017.1283821.1233389.0168357.2782174-.0392367.3699233.0171828.1749345.1076234.3656773.109873.5483857.1609237.2685828.0750536.5443178.1329414.8021662.2354565.2304312.091616.4771483.195419.652435.361608.3713576.3520784.8061368.5921709,1.2423223.8425568.6834901.3923558,1.3772489.7693403,2.0159833,1.2356867.1089446.0795474.2300908.1423844.338178.2084014Z" stroke-width="0"/>
      <path d="m52.9516278,28.0867406c.0427562-.049452.0826123-.0749849.091137-.1084978.1218769-.478976.4823-.6187105.9178431-.6412046.1753622-.0090529.3534884.0256071.5279607.0112991.1982038-.0162475.4057085-.0343839.5881391-.1055672.4941692-.1928198.9882812-.3920973,1.4618525-.6297729.5965971-.2994368,1.1517785-.6723989,1.6876191-1.0717987.0206088-.0153673.0496939-.0278668.0589163-.0487424.1350598-.3055528.40959-.3968025.7272032-.4598026l.3071111.0557272c.0613529.0394236.1170481.0702882.1673472.1082965.4300914.3249782.536485.8242184.3112489,1.3234308-.300264.6655298-.7732466,1.2013564-1.2633821,1.7237682-.3307669.3525413-.6809366.6875052-1.0861011.9573199-.573076.3816256-1.2012618.5367668-1.8925491.5574053-.5984161.0178556-1.1094075-.1973913-1.6329781-.415012-.0690232-.0286888-.1374953-.0589866-.2047218-.0916508-.4345738-.2111692-.7714759-.490654-.7286282-1.0383147.0027348-.0349668-.020797-.0719874-.0380176-.1268833Z" stroke-width="0"/>
    </g>
  </g>
</svg>