<?xml version="1.0" encoding="UTF-8"?>
<svg id="Layer_2" data-name="Layer 2" xmlns="http://www.w3.org/2000/svg" viewBox="0 0 249.8272537 105.8264113">
  <g id="Layer_1-2" data-name="Layer 1">
    <g>
      <path d="m7.9905468,48.296265l-1.1496451-.6761519c-1.5334827-.9021585-2.8839187-1.3214848-4.0139516-1.2355649-.7032354.0504312-1.3588412.4249297-2.0536714.8218421-.2568257.1466241-.5127174.2923143-.7732787.4230619l.0233478.4837662c.0270834.5603469.053233,1.1206938.095259,1.6819746.0130748.1811788.0466956.3632916.0793825.5463382.0410921.2306761.0812503.4613523.0924572.6892267.0616382,1.234631.4847001,2.4729976,1.2589127,3.6805452.6294564.9834088,1.3579073,1.9444037,2.0620766,2.8745796.3978463.5257922.7966265,1.0515843,1.181398,1.5848478.1765093.2446848.3567542.4884357.537933.7321866.5995712.8068995,1.2187545,1.6408825,1.6950494,2.5290323l.095259.1765093c1.1449755,2.1349217,2.2273789,4.1503027,3.9261639,5.8845764.3259351.3315386.6303903.6817554.9357793,1.0329061l.348349.3978463c1.7604232,1.9901654,3.8869397,3.8607901,6.8941347,6.0648213,1.5428218,1.1309668,3.1575548,2.2208415,4.7199887,3.2742937l1.6539573,1.1216277c.5622147.3857054,1.1421738.7854196,1.7426789,1.0506504,1.7650927.7779483,3.8215659,1.6698338,5.8995189,2.4141612,1.7594893.6303903,3.5694097,1.2075476,5.3195599,1.7650927.791957.2521561,1.5839139.5043122,2.374003.7630057,3.4881594,1.1375042,7.1257447,1.9350646,11.1191503,2.4356412,2.4533855.3072569,4.9562683.4137228,7.3769669.5164531l1.1701911.0504312c3.8028876.169038,7.7374568.3418116,11.5319392-.0971268,1.6642303-.1933197,3.3471388-.3464812,4.9749466-.4931053.7312527-.0663077,1.455968-.1326154,2.1694764-.200791l.1765093-.0168104.1102016.1391528c.2390813.3035212.4613523.5977034.675218.8825464.4408062.5846286.8573308,1.1365703,1.3233526,1.6240721,1.0646591,1.1150903,2.1797494,2.2236433,3.2584172,3.2948398.5369991.5341974,1.0749321,1.0683948,1.6081956,1.6053939,1.2682518,1.276657,2.859637,2.2199076,4.8675467,2.8848526,3.9345691,1.3046744,7.4526138,2.4225664,10.7567926,3.4181161,2.3786726.717244,4.7704199,1.3102778,6.796074,1.7959118.5183209.1242102,1.0627913.1942536,1.5895174.2614952.6845571.0887216,1.392462.179311,2.0779531.390375,3.39757,1.045047,6.5159005,1.2327632,9.5389721.5724877,1.3971316-.3044551,2.8745796-.50618,4.390318-.5995712.7536666-.0476295,1.5372183-.0046696,2.2918188.0364225.5463382.0298852,1.0814695.0607042,1.6334112.0551008l.443608-.0018678c1.1683233-.0046696,2.3768048-.0093391,3.5040359-.1849145,1.2719875-.1979892,2.5477106-.4818983,3.7814077-.7564683.6826893-.1522276,1.3653786-.3044551,2.0527375-.443608,2.4627246-.5005766,4.5294708-1.2430362,6.3179113-2.2703389,1.0609235-.6089103,2.1339878-1.2000763,3.2070521-1.7912423,1.2430362-.6845571,2.4860724-1.3691143,3.7085626-2.0816887,1.2682518-.7405918,2.5906705-1.6016582,4.0429029-2.6336304.4622862-.3287368.8984229-.7200458,1.3196169-1.097346.3446133-.3091247.6892267-.6182494,1.0543861-.9030924.706971-.5510078,1.4251489-1.0898747,2.1433269-1.6287417.9367132-.7023014,1.9042455-1.4288846,2.8288179-2.1713442.8246439-.6630772,1.5988565-1.3644447,2.4197647-2.1069043.3670272-.3324725.7396579-.6696145,1.1216277-1.0076905l.2344118-.2082623.2166675.2269405c1.3102778,1.3728499,2.9987898,2.0013723,4.7853625,2.6672512l.2596274.0961929c.4267976.1596989.8797446.2876447,1.3177491.4109211.6640111.1867823,1.350436.3791681,1.9920332.6929623,2.3235718,1.1337686,4.9441275,2.0060419,8.0101589,2.6663173,2.7774528.5995712,5.6174777,1.0926765,8.3641114,1.5699052,2.5056846.4342688,4.5518846.7443275,6.4757423.9824749,1.6558251.2045266,3.5787489.4258636,5.4437701.4501453.9479202.0084052,1.9014438-.0607042,2.8288179-.1307476.886282-.0681755,1.7856388-.137285,2.7186164-.1344833,2.9035309.0130748,5.7360844.0028017,8.6134658-.1568971,6.0293326-.3352742,11.5412783-2.1890886,16.8505652-5.6679089,1.867823-1.224358,3.6235766-2.5374375,5.6865871-4.1334923,2.2320485-1.7249345,4.4510222-3.5404585,6.5971508-5.2962121l.400648-.3278029c.25309-.2063944.4380045-.5416687.5855625-.8423882.1755754-.358622.1709058-.7265831-.0140087-1.0366418-.2091962-.3530185-.6126459-.5668843-1.1066851-.5874303-3.6002288-.1494258-6.5831422-.2446848-9.3895462-.2979178-1.455968-.0345547-2.9166056.0457617-4.2791825.1307476-.7256492.0448278-1.4307524.1335493-2.2469911.2362796-.3838376.0485634-.7844857.0989946-1.213151.147558l-.5239244.0597703.1811788-.4949731c.1718397-.4716253.3408777-.9189689.5043122-1.3513699.3446133-.9161672.6714824-1.7809692.9469863-2.6495069.52766-1.6707677.9423167-3.0791062,1.2495736-4.5248012.169038-.7938248-.0382904-1.4186116-.633192-1.9061134-.0504312.0065374-.1027303.0130748-.1550293.0186782-.2185353.0261495-.4557488.053233-.6789537.1130033-2.6140183.6948302-4.9740126,1.9602802-7.2564923,3.1855721l-.7891552.422128c-.3716968.1979892-.7415257.400648-1.1113547.6042407-1.1244294.6163816-2.2871493,1.2542431-3.5068377,1.7576214-1.0403774.4305332-2.1302521.7994282-3.1837043,1.1552485-1.1552485.390375-2.3497213.7947587-3.4694812,1.2775909-4.7582791,2.0527375-9.4409113,2.7998667-14.329938,2.2806119-1.4027351-.1494258-2.8194788-.5005766-4.1904609-.8395864-.6191833-.1531615-1.2383666-.306323-1.85755-.4417401-3.2892363-.7191119-6.4636015-2.0424644-9.5343025-3.3228571l-.6238529-.2596274c-.4604184-.1923858-.8778768-.475361-1.3196169-.7751465-.2063944-.1400867-.4211941-.284843-.6500024-.4277315l-.3278029-.2045266.2558918-.2876447c.3007195-.3390099.5874303-.6677467.865736-.9862105.5995712-.686425,1.1655216-1.3345595,1.7604232-1.9584124,2.1078383-2.2087007,3.4218517-4.1110784,4.2595703-6.1684855l.0504312-.1242102c1.3663125-3.3499405,2.7783867-6.8147522,3.3947683-10.5242487.1933197-1.1673894.4277315-2.3413161.653738-3.4769525.2913804-1.4662411.5939677-2.9810455.8097013-4.4883787.453881-3.16596.8218421-6.4103685,1.1776624-9.5483112l.2260066-1.9864298c.3829037-3.3434032-.0915233-6.2740175-1.4494306-8.9599469-.3744985-.7405918-.738724-1.4606376-1.1300329-2.1498643-2.0742174-3.6599992-4.5621577-7.4087199-8.6909804-10.0376808-1.1972745-.7620718-2.279678-1.7361415-3.3256588-2.6784582-.4090532-.3679611-.8181065-.7359223-1.2336971-1.0917425-.3306047-.2829752-.6574737-.5715538-.9834088-.8601325-1.8566161-1.6399486-3.6095679-3.1883739-6.0340022-3.725373-.7863535-.1737075-1.5717731-.368895-2.3562587-.5631486-1.3280222-.3296708-2.7008721-.6705485-4.0513081-.896555-1.0067566-.1681041-2.0490018-.2026588-3.0566923-.2362796-.6126459-.0205461-1.2262258-.042026-1.8379378-.0896555-3.1295374-.2493544-6.1554107-.3539525-8.832001,1.0571878-.1316815.0700434-.2689665.0961929-.3894411.1195407-.0597703.0112069-.1204746.02148-.1765093.0410921-.8993568.3156621-1.8267309.5977034-2.7242198.8694716-1.7454806.5285939-3.5507315,1.075866-5.1990853,1.8986421-4.4295422,2.2105685-8.0531189,5.2513844-11.0780582,9.2961551-.579959.7751465-1.1337686,1.5699052-1.6875781,2.36373-.3847715.5519417-.7695431,1.1038834-1.1627198,1.6492877-1.5680374,2.174146-2.8036023,4.4967839-3.6712061,6.9034738-.0961929.2661648-.2194692.5229904-.3427455.7779483-.1634345.338076-.3175299.6565398-.4015819.9936818-.7097727,2.8624387-1.1048173,5.4643162-1.2075476,7.9522564-.1064659,2.6158861.1494258,4.6303332.8302473,6.5299092.2400153.6705485.4903035,1.3392291.7396579,2.0079097.601439,1.6063278,1.2215562,3.2686902,1.6950494,4.9310527,1.013294,3.5525993,2.2927527,7.1089343,3.9130892,10.8707299,1.3663125,3.1687617,3.5572689,5.5894603,6.6989472,7.3984469,2.0023063,1.1515129,3.503102,1.2150189,4.8638111.1970553.2773717-.2073284.5752895-.3642255.8909516-.5313956.0700434-.0364225.1410206-.073779.2129318-.1120694-.1653023-.5127174-.4417401-.7405918-.8685377-.9535236-.6714824-.3362081-1.3308239-.812503-1.8566161-1.340163-1.0413113-1.0459809-1.9117168-2.0228523-2.6607139-2.9847812-.7723448-.9946157-1.5484253-1.9929671-2.0144471-3.0893792-.9946157-2.3385144-1.8958403-4.7461382-2.7671798-7.0743796l-.5248583-1.4008672c-.2222709-.5892982-.4137228-1.1851337-.6061086-1.7809692-.1821127-.5678182-.3651594-1.1347025-.5743556-1.6950494-.5257922-1.4111403-1.0674608-2.817611-1.6091295-4.2250156-.3567542-.9264402-.7135084-1.8528804-1.065593-2.7802545-.1260781-.3334064-.2157336-.6742841-.2661648-1.0142279-.8031639-5.4288275-.400648-10.1142615,1.2318293-14.3234007,1.0002192-2.5775957,2.395483-4.8694146,4.1829896-7.5189215,1.9005099-2.8166771,3.936437-5.1729358,6.2217184-7.2041933,1.4400915-1.2803927,3.2229286-2.670053,5.52969-3.2686902,1.2439701-.3240673,2.6532426-.6910945,3.9429743-1.2196884,2.226445-.9124315,4.5537525-.8732073,6.5383144-.7135084l.7340544.0597703c1.1832659.0961929,2.4066899.1961214,3.6030306.2437509,2.8876544.1139372,5.7202079.9619288,8.4593704,1.7828371l.706971.211064c.8937533.2661648,1.7268024.896555,2.3525231,1.4167437,1.0310383.8573308,2.0592749,1.8173918,3.1435461,2.9362178,1.6072617,1.656759,3.4050413,3.0576262,5.6100064,4.6499454,1.1636537.8405203,2.6112166,1.8855673,3.5759471,3.1696956,1.2187545,1.6222043,2.2843475,3.3732883,3.3153858,5.0674038.3371421.5528756.6733502,1.1057512,1.0151618,1.6548912,1.2570449,2.0200506,1.7492162,4.2913233,1.5484253,7.1490925-.2129318,3.0398819-.4314671,6.0797639-.6490685,9.117778l-.1120694,1.6212704c-.02148.3997141-.0438938.812503-.1186068,1.2140849-.5341974,2.8306858-1.0861391,5.655768-1.6446182,8.4780486l-.0868538.4501453c-.1298137.6780197-.263363,1.3803212-.4987087,2.0387288-.3576881,1.0039549-.7415257,1.9967028-1.1244294,2.9894507-.4267976,1.1038834-.8676038,2.2451232-1.2635823,3.3816935-1.0291705,2.9595655-2.7653119,5.656702-5.308353,8.2464385-.52766.537933-1.1496451.949788-1.8071188,1.3859247-.2250727.1494258-.4529471.2997856-.6789537.4585505l.3716968.9759375-.1335493.1484919c-.1718397.189584-.3352742.3857054-.4987087.580893-.368895.4417401-.7499309.897489-1.2103493,1.2719875-.844256.685491-1.5699052,1.5176062-2.2712728,2.3226379-.4249297.4875018-.864802.991814-1.3308239,1.4653071-.5864964.5958355-1.0954782,1.3028065-1.5867156,1.9864298-.2783056.3857054-.5556773.7714109-.8489256,1.1431077l-.4090532.5183209c-.75927.9665984-1.5456235,1.9658837-2.3786726,2.9035309-.3296708.369829-.6556059.7433936-.9824749,1.1160242-1.2252919,1.4018012-2.4926098,2.8502979-3.9000144,4.1241532-2.7951971,2.5290323-5.7659696,4.8796876-8.040978,6.6447803-.7667413.5949016-1.6306095,1.0833373-2.4655264,1.5549626-.5668843.3203316-1.1524468.6509363-1.6950494,1.0086244-4.0130177,2.6457713-8.7115265,3.2855007-13.1914999,3.5834184-1.8622195.1242102-3.756192-.0224139-5.2000192-.1625006-2.0377949-.1979892-3.967256.1531615-5.7715731.5285939-2.2609997.4734931-4.6209941.3744985-7.2172681-.3016534l-.5874303-.1540954c-1.2953352-.3436794-2.5196932-.6677467-3.8131607-.7424596-1.3644447-.0784486-2.7774528-.4071854-3.9793969-.717244-3.9803308-1.0291705-8.0736649-2.1479964-11.6841668-3.1360748-.3941107-.1073998-.791023-.2101301-1.1879354-.3137943-1.2701196-.3287368-2.5841331-.6696145-3.8299711-1.1776624-2.61682-1.0665269-4.6480775-2.8559014-6.7979418-4.7498739-.8825464-.7770144-1.794044-1.5801783-2.7522372-2.3329109l-.4847001-.380102,1.150579-.3679611c.3390099-.1092676.611712-.1979892.8890837-.2773717.1998571-.0579025.4081193-.1036642.6154477-.1484919.3716968-.0803164.7219136-.1559632,1.0114262-.3044551.8012961-.411855,1.6063278-.8190404,2.4113595-1.2262258,2.5019489-1.2645162,5.0888838-2.5729262,7.5170537-4.0139516,2.8736457-1.7053224,5.7108688-3.8038215,9.2008961-6.8044792.1961214-.169038.3950446-.3362081.5930338-.5024444.6509363-.5463382,1.3242865-1.1113547,1.8930386-1.7342737,1.1664555-1.276657,2.3086292-2.6177539,3.4134465-3.9140231l1.1617859-1.3579073c.179311-.2091962.3660933-.4137228.5538095-.6182494.4622862-.5052461.8993568-.9824749,1.2290275-1.5316149,1.4811836-2.4627246,3.3219232-5.7650357,4.4276744-9.4754661,1.3224187-4.4398153,2.0770192-9.0449329,2.3086292-14.076848.2101301-4.5658933-.6817554-8.7843716-2.7251538-12.8963839-.9339115-1.878096-1.825797-3.2911041-2.8054701-4.4482205-2.3506552-2.7727832-4.8077764-4.9329205-7.513318-6.6018204-2.6523087-1.635279-4.9310527-2.6980703-7.1696386-3.3443371-.8535951-.2465526-1.709058-.485634-2.5654549-.7247153-2.026588-.5659504-4.1213514-1.150579-6.162882-1.8285987-3.2051843-1.0646591-6.6447803-1.5624339-10.8240343-1.5652357h-.0168104c-5.065536,0-9.2896177,2.2441893-12.4060804,4.2007339-2.237652,1.4055368-4.189527,3.3938344-5.9667606,6.0797639-1.2925335,1.9537429-2.628027,4.0905324-4.3314815,6.9277555-.6798876,1.1328346-1.3280222,2.3151666-1.9556107,3.4582743-.3184638.5818269-.6378616,1.1636537-.9619288,1.7417449-1.0123601,1.8061848-1.5755087,3.8607901-2.1199791,5.8481538-.2194692.8003622-.4389384,1.6016582-.686425,2.3898795-1.4718445,4.6826323-.7770144,9.5230956.2063944,14.9089632l.0354886.211064c.0392243.2409492.0756468.4669557.1653023.6584076l.2876447.6257207c.368895.8059656.7499309,1.6399486,1.2318293,2.3917473.3091247.4837662.8293134.9983514,1.5586983.7163101.8003622-.3156621,1.6119312-.7331205,2.4132273-1.2411684.0579025-.0560347.1214085-.3530185.0765807-.5902321-.0205461-.1083337-.063506-.147558-.0933911-.1681041-.0821842-.0541669-.2306761-.063506-.4137228-.0261495-.1718397.0326869-.3128604-.0242817-.4548149-.0803164-.0494973-.0196121-.1027303-.0410921-.1625006-.0597703l-.1765093-.0551008-.0438938-.179311c-.0597703-.2474865-.1232763-.4940392-.1858484-.7405918-.1438224-.559413-.2923143-1.1384381-.3950446-1.7155954-.1064659-.5977034-.1914519-1.1972745-.27457-1.7959118-.1251441-.8881498-.2540239-1.8061848-.4585505-2.6952686-.7723448-3.3546101-.8732073-6.4047651-.3081908-9.3260402.1139372-.5864964.2680326-1.1655216.4183924-1.7249345.1625006-.6070425.3306047-1.2355649.4417401-1.8622195.3847715-2.1704103,1.1384381-4.2745129,2.2404537-6.2525375,1.0730643-1.9229238,2.226445-3.8365084,3.3424693-5.687521.4314671-.7163101.8629342-1.4326202,1.2915996-2.1507982,1.9649498-3.2967076,4.0830611-6.0227953,6.4757423-8.3342262,1.4727784-1.4232811,3.2593511-2.2890171,5.4615144-2.6457713,3.4536047-.5584791,7.2228715-.2839091,11.8681473.8629342,4.2511651,1.0506504,8.3510366,2.3263735,11.8009057,3.4358604,1.5857817.5099157,3.2967076,1.2607805,5.3830659,2.3646639,3.0314767,1.603526,5.6016012,3.914957,8.1848004,6.342193.5995712.5631486,1.1552485,1.2514414,1.6081956,1.9901654,2.5990757,4.2399582,3.8084911,8.600391,3.5946254,12.9598899-.2026588,4.1250871-.5949016,7.5179876-1.2336971,10.6764763-1.0375757,5.1271741-3.1052557,9.9545627-6.1442038,14.3458145-2.0928957,3.0230715-4.3987232,6.1694194-7.5404014,8.4985946-.9992853.7396579-1.9780246,1.5428218-2.9250108,2.3189023-1.1384381.9329776-2.3151666,1.8977082-3.5423263,2.7681137-1.2411684.8797446-2.5803975,1.667032-3.8747988,2.4291038-.8068995.474427-1.6137991.9488541-2.4020204,1.4475628-2.7886597,1.7632249-6.0237292,2.1956259-8.5312815,2.3758709-2.0695479.1484919-4.1437653.2764378-6.2207845.3894411-.4940392.0270834-.9880784.0569686-1.4821175.0868538-1.593253.0961929-3.2406729.1961214-4.8778198.1961214h-.0168104c-2.5449088-.0018678-5.0982229-.0924572-7.5908327-.2680326-1.8183257-.1288798-3.6674705-.3408777-5.4549771-.5463382-.7107067-.0812503-1.4204794-.1625006-2.1302521-.2390813l-.264297-.0280173c-.5687521-.0588364-1.1571163-.1204746-1.7370754-.2381474-.3913089-.0793825-.7826178-.1550293-1.1748607-.2316101-1.3177491-.2558918-2.680326-.5211226-4.0064803-.9030924-2.944623-.8479916-5.9051224-1.815524-8.6853769-2.733559-2.5617192-.8461238-4.706914-1.58298-6.8521087-2.4300377-1.0011531-.3950446-1.9490733-.9768714-2.8661744-1.5390862l-.3857054-.2362796c-.791957-.4818983-1.5689713-.991814-2.3450518-1.5017297-.4940392-.3231334-.9880784-.6472007-1.4858532-.9647306-.3259351-.2073284-.6602754-.4015819-.9946157-.5967694-.591166-.3436794-1.2010102-.6994997-1.7594893-1.1216277l-.4146567-.3147282c-2.2553963-1.7062563-4.5883072-3.471349-6.542984-5.6482967-1.7333397-1.9303951-3.261219-3.703893-4.4052605-5.8593607-.5892982-1.1104208-1.4148759-2.162939-2.2133703-3.1809026l-.0775147-.0999285c-.4968409-.633192-1.03384-1.2598466-1.5530948-1.8650213-.6061086-.7060371-1.2327632-1.4363559-1.804317-2.1890886-1.392462-1.83607-1.5755087-3.8589223-1.5801783-5.4157528l-.0009339-.3502168.3502168.0242817c1.5288131.1083337,2.6560443.8395864,3.7468529,1.5465574.2082623.1354172.4146567.2689665.6219851.3969124l.4417401.2736361c2.2189737,1.3728499,4.5135943,2.7914615,6.9613763,3.7842094.6668128.2699004,1.3747177.6705485,2.2283128,1.2598466q1.1113547.7676753,2.0816887.1559632c.3035212-.1914519.5967694-.3978463.9339115-.633192l.2502883-.1746415c-2.469262-2.427236-3.7907468-4.6350028-4.3968553-7.3190644l-.2605613-1.1561824,1.318683,1.3896603c.211064.221337.369829.3875733.5257922.5566113l.3651594.3987802c1.2803927,1.4008672,2.6056131,2.8502979,4.2810503,3.6571974,1.2570449.6051747,2.0191167,1.5316149,2.7550389,2.427236.1830467.221337.3660933.4445419.5575452.6630772.1204746.137285.2241388.2857769.3278029.4352028.0663077.095259.1326154.1905179.2035927.2820413,1.3121457,1.6698338,2.7951971,3.0641636,4.4089962,4.1428314,3.8028876,2.5458427,7.9410495,4.2595703,12.3005484,5.0944872.7517988.1428885,1.5269453.2297422,2.2778101.3128604.4090532.0457617.8190404.0915233,1.2280936.1456902,4.9142423.6556059,8.8861679.9936818,12.4985376,1.0618574,2.4206986.0457617,4.7349313-.2680326,6.6755994-.5818269,2.7942632-.453881,6.0171918-1.0497165,8.8983088-2.3926813,4.326812-2.0163149,8.1950734-4.611655,12.441569-7.5478727,1.2934674-.8946872,2.4982133-1.9593463,3.6628009-2.9894507l.1288798-.1139372c.3446133-.3053891.6481346-.6490685.9684662-1.013294.3390099-.3857054.6901606-.7835517,1.0936104-1.1300329,1.3775195-1.1804641,2.5206271-2.7419642,3.4956307-4.7741556.2895126-.6033068.3240673-1.4251489.3212656-2.0732835-.0028017-.833983-.0803164-1.6978511-.1559632-2.532768-.0298852-.3306047-.0588364-.6602754-.0849859-.9899462-.2204031-2.8446944-2.2301807-5.1897462-5.117835-5.9742319-1.709992-.464154-3.4209178-1.0674608-5.0748751-1.6511555-.5566113-.1961214-1.1122886-.3922428-1.6688998-.5836947-1.0179635-.3492829-2.1041026-.6051747-3.1472818-.1186068-.7686092.358622-1.551227.6929623-2.3338448,1.0282366-1.0768.4604184-2.1900225.9367132-3.2406729,1.467175-1.5689713.791957-2.6831277,1.9444037-3.3116502,3.4265213-1.3009387,3.0725688-2.1648069,5.9695623-2.6392339,8.8581506-.0924572.5612808-.4258636,1.0609235-.7312527,1.4849193-.5883642.8171726-.8246439,1.5652357-.7424596,2.353457.1298137,1.2495736.3044551,2.3543909.5332635,3.3779579.3791681,1.6950494.8115691,3.0837758,1.6913137,4.3529615.7984943,1.1543146,1.7650927,1.4942584,2.9558299,1.0422452.5892982-.2241388,1.1907372-.5257922,1.8398057-.9227046.2222709-.137285.3773002-.368895.3735646-.4576166-.0046696-.0905894-.0149426-.3296708-.6415972-.4295993-.3315386-.052299-1.0291705-.2670987-1.3018726-.6985658-.7461953-1.1879354-1.4251489-2.4786011-1.3326917-3.8701293.0765807-1.1496451.2727022-2.2852814.4716253-3.3415353.3959785-2.0863583.8386525-4.1820557,1.2215562-5.983571.5117835-2.4066899,1.1683233-4.9534666,2.4972793-7.2695671,1.1328346-1.9761567,3.0230715-2.5084863,5.4587127-1.5437557,1.256111.4968409,2.5701244.9049602,3.841178,1.2990709l.2418831.0756468c.4977748.1540954,1.0011531.2857769,1.5045314.4174584.6472007.1699719,1.3177491.3455473,1.9705533.5687521.9227046.3147282,2.2301807.8872159,2.9296804,2.216172.6247868,1.1879354.5920999,2.3693335.5603469,3.5115072-.0112069.4043837-.0224139.8068995-.0037356,1.2103493.0149426.3212656-.1447563.7742126-.4688236.9824749-.7237814.4622862-.9413828.9964836-.7265831,1.7856388.0616382.2269405-.0354886.4818983-.2885787.760204-.6061086.6686806-1.1935389,1.3579073-1.7819031,2.0462001-1.3653786,1.5979226-2.7765189,3.250012-4.4080623,4.632201-2.2124363,1.8734265-4.7078479,3.4993664-7.1210752,5.0720734-.5668843.369829-1.1337686.738724-1.6969172,1.1113547-.9852766.6509363-2.1115739,1.1449755-3.2574833,1.4279507-1.455968.3604898-2.965169.6359937-4.4248727.9021585-.7546005.1382189-1.509201.2755039-2.2591319.4249297-2.4898081.4968409-5.0870159.3156621-7.5964361.1400867-.6976319-.0485634-1.393396-.0971268-2.0872922-.1316815-1.8799638-.0933911-3.7935485-.3119264-5.6445611-.5239244-1.3859247-.157831-2.8185449-.3212656-4.22128-.4305332-3.6656026-.2857769-7.4021825-1.3354934-11.4236055-3.207986-1.3551056-.6313242-2.6177539-1.3410969-3.7543242-2.1115739-2.1414591-1.4522324-3.96819-3.2939059-5.7342166-5.0739412-.4239958-.4286654-.8489256-.8573308-1.2785248-1.2803927-.1662362-.1634345-.2820413-.3520846-.3941107-.5351313-.0448278-.0728451-.0896555-.1466241-.137285-.2166675l-.115805-.1681041.1765093-.3081908c.0448278-.0756468.0849859-.1438224.1195407-.2138657.0616382-.127012.1214085-.2558918.1811788-.3857054-.1783771-.0597703-.3744985-.1195407-.4772288-.0989946-.316596.0728451-.6210511.2194692-1.0076905.4053176-.1867823.0896555-.3894411.1877162-.6182494.2885787l-.2119979.0933911-.5995712-.6387955c-.3399438-.358622-.6892267-.7275171-1.0226331-1.1085529-.4604184-.5257922-.9124315-1.0571878-1.3653786-1.5895174-.8265117-.971268-1.6810407-1.9752228-2.5682566-2.9184734-1.3952638-1.4849193-1.5736409-1.4074046-3.281765-.6770858-1.2551771.5360652-1.3541717,1.2551771-1.0992138,2.5654549.1326154.6808215.3754324,1.3765855.6107781,2.0499357.115805.3315386.2316101.6621433.3362081.9946157.1363511.432401.2670987.8666699.4174584,1.3635108l.4239958,1.3961977-.6780197-.3390099c-.221337-.1111355-.4230619-.2082623-.6107781-.2988517-.368895-.1783771-.6845571-.3306047-.9880784-.50618-1.1851337-.685491-2.3646639-1.3803212-3.5441941-2.0760853Zm170.5910762,24.5273177l2.775585,1.8220613c2.3385144,1.5437557,5.0375186,2.7681137,8.2529759,3.7440512.517387.1568971,1.0310383.3324725,1.5456235.5080479.8433221.2876447,1.7155954.5846286,2.5775957.7872874,1.1879354.2783056,2.4421786.4454758,3.7281747.4968409,2.4347073.0943251,4.9263832.1933197,7.1929864-.4585505,1.181398-.3399438,2.353457-.7023014,3.5255159-1.0646591.8834803-.2727022,1.7660266-.5454043,2.6532426-.8087674,4.305332-1.2813266,8.1623865-2.4916759,11.7532762-4.3305476,1.603526-.8209082,3.1416783-1.7053224,4.7704199-2.6411017.7405918-.4258636,1.4905228-.8563968,2.2591319-1.2887979l.5678182-.3193977-.0849859.6462668c-.0158765.115805-.0233478.2288083-.031753.3371421-.0186782.2577596-.0354886.5005766-.1326154.7340544-.411855,1.0002192-.833983,1.994835-1.256111,2.9903846-.3604898.8489256-.7209797,1.6969172-1.0749321,2.5495784-.2147996.5155191-.338076.9161672-.400648,1.3000048-.0989946.6126459.0046696,1.1150903.3007195,1.4541002.3156621.3614238.833983.5295278,1.5530948.5248583.4893696-.0130748.9740697-.052299,1.4587698-.0915233.4781627-.0382904.9563254-.0775147,1.4382237-.0924572,2.6551104-.0831181,5.7893174-.1755754,8.9123174-.2278744.7882213-.0093391,1.5540287.02148,2.4440464.0597703.4258636.0186782.8732073.0382904,1.3532378.0541669l.6724163.02148-.4342688.5136513c-.1354172.1606328-.2437509.2988517-.338076.4193263-.1802449.2297422-.3221995.411855-.5089818.5622147l-.0999285.0803164c-1.266384,1.0207653-2.5757279,2.0760853-3.9000144,3.0744367-.8115691.6126459-1.635279,1.2122171-2.4580551,1.8108544-1.1683233.8498595-2.3758709,1.7277363-3.5255159,2.6308287-1.5596322,1.2252919-3.4648117,2.0107115-5.9966457,2.4729976-3.7421834.6826893-7.1266787,1.0254348-10.3477394,1.0459809-1.2859961.0084052-2.5869349.0168104-3.8981466.0168104-2.5467767,0-5.1309098-.0326869-7.7187785-.1596989-1.8967743-.0933911-3.830905-.3716968-5.7024636-.6406633-.7798161-.1120694-1.5596322-.2241388-2.3385144-.3240673-.5575452-.0719112-1.1160242-.137285-1.6745033-.2017249-1.4886549-.1737075-3.0277411-.3530185-4.537876-.6602754-1.1421738-.2334779-2.2815458-.6098442-3.3826275-.9740697-.5351313-.1774432-1.0711965-.3548864-1.6081956-.5164531-3.3947683-1.0226331-6.680269-2.4337734-10.0283417-3.9102874-1.1375042-.5024444-2.2451232-1.1421738-3.3153858-1.7594893-.4940392-.2857769-.9899462-.5715538-1.4942584-.8479916l-.3287368-.1811788,6.8829277-9.1579362Z" stroke-width="0"/>
      <path d="m98.4641572,82.7463924l.358622.1484919c.6658789.2755039,1.3551056.5603469,1.9929671.9376471,1.287864.75927,2.6952686,1.4130081,4.3043981,1.9957689,2.7951971,1.013294,5.7314149,1.0254348,8.9786252.0410921,2.036861-.6163816,4.0344977-1.4316863,5.9667606-2.2208415.6285224-.2558918,1.2570449-.5127174,1.8874351-.7630057.4380045-.1737075.8778768-.3436794,1.3177491-.5136513,1.5260114-.5892982,3.1033879-1.1991424,4.5388099-1.9584124,2.5906705-1.3728499,5.1000907-2.9455569,7.4479442-4.4388814,2.1265165-1.3523039,4.3753754-2.8082719,6.4533285-4.4239388,1.3747177-1.0693287,2.690599-2.2600658,3.9635204-3.4115787.664945-.601439,1.32989-1.2038119,2.0069758-1.7921762.2913804-.2540239.6042407-.4884357.9171011-.7219136.5005766-.3754324.9740697-.7303188,1.3579073-1.1627198,1.5764426-1.7744318,3.1482157-3.6077001,4.6686236-5.3802641.9553915-1.1141564,1.9117168-2.2292467,2.8745796-3.3377997.3306047-.380102.6584076-.7639396.9852766-1.1468433,1.0898747-1.2757231,2.2171059-2.5944061,3.4461334-3.7851433,2.4739316-2.395483,4.1876592-4.8890267,5.2411113-7.6235196,1.0058227-2.6093487,1.7762997-5.3868015,2.521561-8.072731l.4716253-1.6903798c.4249297-1.5054653.6976319-3.0398819.9852766-4.7452043.2232048-1.3205509.3847715-2.6887312.4809644-4.0671846.0803164-1.1692572-.1410206-2.205899-.6789537-3.1696956-.7667413-1.3756516-1.867823-2.4739316-3.4638778-3.4545386-1.3485682-.8293134-2.8512318-1.2336971-4.3043981-1.6240721l-.2222709-.0597703c-3.0249393-.8171726-5.2327061-.7891552-7.1631012.0868538l-.6387955.2913804c-1.8108544.822776-3.6842809,1.6745033-5.4960692,2.5579836-.3184638.1559632-.5920999.4165245-.8806785.6920284-.1176728.1130033-.2344118.2241388-.3548864.3296708-.0971268.084052-.1830467.1783771-.2699004.2717682-.1512937.1625006-.306323.3296708-.5080479.4632201-1.3681803.9086959-2.4851385,2.216172-3.3181876,3.8878736-1.2159528,2.4384429-1.7809692,5.339172-1.678239,8.621871.0859199,2.7634441.4155906,5.593196.7181779,8.0297711.3670272,2.9567638,1.0459809,5.2140279,2.1367895,7.1033309,1.0142279,1.7566875,2.2936866,3.4414639,3.5311194,5.0702055l.6275885.8293134c.4809644.6369276,1.0441131,1.2187545,1.6399486,1.8342022.27457.2829752.5519417.569686.8255778.8676038l.1905179.2054605-.6677467.8377186c-.3287368.4155906-.6359937.8040978-.9591271,1.1785963-.4604184.5313956-.9152333,1.0683948-1.3700482,1.6053939-1.1767285,1.3887264-2.3926813,2.8241484-3.6926861,4.1484349-.960061.9787393-2.0172488,1.8883691-3.038948,2.7690476-.7275171.6266546-1.4802497,1.2747892-2.1872207,1.9388003-2.2516606,2.1134417-4.843265,4.0401011-7.7019681,5.7239436-.4931053.2904465-.9974175.5650165-1.5007958.8395864-.5407348.2941821-1.0805356.5874303-1.6063278.9012246-.3819698.2288083-.7564683.4697575-1.1300329.7097727-1.3168152.8479916-2.6775243,1.7240006-4.3931197,2.0359271-.1288798.0233478-.264297.0896555-.4062515.1596989-.0896555.0438938-.179311.0877877-.2699004.1242102-.6135799.2502883-1.224358.5089818-1.8351361.7686092-1.3756516.5836947-2.7979989,1.1870015-4.2511651,1.6801068-3.1117931,1.0562539-6.1199221,1.2271597-9.1924909.5229904-1.5306809-.3511507-2.9810455-.960061-4.3837806-1.5493592-.3203316-.1335493-.6406633-.2680326-.9619288-.3997141-1.0768-.4417401-2.2152381-.8311812-3.2696242-.3212656-.4548149.2204031-.8984229.4594845-1.3653786.7097727l-.3950446.2101301c.2689665.517387.3231334.5398008.7191119.7051032Zm52.04502-34.3744806c-1.3046744-1.9798924-2.1162435-4.2464956-2.554248-7.133216-.2176014-1.4419594-.326869-2.9044648-.4333349-4.3193407-.0691095-.9311098-.1391528-1.8631534-.2390813-2.7942632-.2446848-2.279678.1438224-4.4454187.4865679-6.3571356.3278029-1.8304665,1.0310383-3.5105733,2.1507982-5.1365132.7938248-1.1533807,1.8827656-1.9901654,2.9362178-2.7989328l.54914-.4239958c.3726307-.2923143.9058942-.4875018,1.4270168-.5229904,3.8187641-.2624291,7.1360178.3782342,10.1329398,1.9481394.6257207.3278029,1.2112832.7648735,1.7510841,1.1879354.3128604.2446848.6191833.5659504.9628628,1.0114262.664945.8610664.9441845,1.7361415.8059656,2.5290323-.105532.6126459-.4566827,1.1403059-1.0160957,1.5344166l-.4370706,1.7492162c-.3418116,1.3784534-.6714824,2.7046077-1.023567,4.0223568-.4987087,1.8640874-.9385811,3.3891648-1.3840568,4.7993712-.2764378.8769429-.4800305,1.8052509-.6770858,2.7027399-.3632916,1.6539573-.738724,3.3630153-1.5895174,4.8908945-1.2084815,2.1676086-2.4449803,4.2549008-4.284786,5.9546197-.7517988.6948302-1.4522324,1.4363559-2.1937581,2.2217755-.3436794.3642255-.6938962.7349883-1.0581217,1.1104208l-.2736361.2829752-.4557488-.643465c-.1596989-.2204031-.306323-.4230619-.4352028-.6350598-.3520846-.5790251-.6957641-1.1617859-1.0403774-1.7445467-.6724163-1.1375042-1.3672464-2.3142327-2.1069043-3.4358604Z" stroke-width="0"/>
    </g>
  </g>
</svg>