<?xml version="1.0" encoding="UTF-8"?>
<svg id="Layer_2" data-name="Layer 2" xmlns="http://www.w3.org/2000/svg" viewBox="0 0 113.2891364 166.6726464">
  <g id="Layer_1-2" data-name="Layer 1">
    <path d="m32.7003286,95.7548989c.3355468-1.0194962.6695414-2.0342764.9686915-2.9431883-2.590795-3.188958-4.2889279-6.6654102-4.5426857-10.8222098-.3719519-6.0931211,3.2470614-11.3675219,8.5646601-13.5107431,2.9034427-1.1702155,5.9309004-1.898203,8.9629987-2.6122438,2.1818734-.5138128,4.2849224-1.216412,6.2276048-2.3530457.1894459-.1108426.3721744-.2331488.599477-.3762226-.1170743-.1316056-.179613-.2224759-.2612184-.2904512-.7902764-.6582969-1.3241981-1.5123485-1.4197192-2.5090664-.4126603-4.3059285-.2581806-8.5596675,2.023837-12.4053032.8305736-1.3996813,1.9221176-2.6586522,2.9903527-3.8993784,1.1959219-1.3890033,2.7858023-2.1613501,4.5725176-2.5451267,1.5842637-.3402727,3.1644881-.6997032,4.7435236-1.0635725.2483993-.0572312.4810446-.1828513.7068746-.2713304-.0121094-.0997229-.0030726-.1472853-.0227309-.1697274-1.1520202-1.3153459-1.2271071-2.7619743-.4433776-4.2581418.4802327-.9167746,1.0156006-1.8134806,1.6128163-2.6579595.7821329-1.1059907,1.8396605-1.8875193,3.1565861-2.280146,1.5655081-.466738,2.9118195-1.2269203,4.0273158-2.484414.8040846-.9064467,1.8253746-1.6300738,2.7957061-2.3754668.57055-.4382966,1.2401813-.7065317,2.0059515-.6540308.1688023.0115767.4058057-.127307.5051805-.2705829.0577789-.0832943-.068606-.3302486-.1593067-.4737503-.2518573-.3984753-.5569059-.7650637-.7901169-1.1732793-.8639966-1.5122996-.7193068-3.2247638.5389216-4.421088.6935275-.6594115,1.5706599-1.1727967,2.4446615-1.5818474.8454456-.3956998,1.7889319-.5880513,2.6980218-.8382456.3098556-.0852768.361361-.2150029.4081306-.5333435.1048542-.7137706.2179924-1.470383.542096-2.0990485.7604511-1.4750301,1.9506239-2.5823826,3.3945151-3.4011591.3986387-.2260547.5774954-.4797698.5562907-.9829254-.0628652-1.4915919.6984246-2.6401577,1.7414161-3.6023553.5399511-.4981218.9267274-1.0603004,1.2555489-1.7109088.7589332-1.5016934,1.8736792-2.5898245,3.6311063-2.8532062.1773418-.0265783.3316098-.2136804.4944197-.3293259.3809037-.2705533.7323893-.6007815,1.1466793-.8021731.7878804-.3829934,1.5040882-.2076871,2.0894797.4577563.8609701.9787078,1.4974206,2.0748922,1.7472158,3.3778637.0335015.1747811.2176399.3879977.3848459.4589022,1.0853754.4602613,1.7416774,1.2718491,1.9213985,2.4133507.236403,1.5014986.096999,2.9369715-.9711171,4.1565453-.1264769.1444238-.153157.4503869-.1090012.6563654.1381785.6445995.3912746,1.2679276.493311,1.9162578.246841,1.5683889-.1729185,2.9223589-1.4679181,3.9240202-.5076221.3926413-1.0818771.620612-1.7415707.5188473-.8182496-.126225-1.2614896-.6498164-1.1183714-1.4611992.1864203-1.056814.4603116-2.0982663.6997278-3.1456092.0663788-.2903746.1439698-.5781873.2291249-.9179128-.5782908-.0428394-1.0976332-.0634162-1.6121682-.1244336-.518626-.0615049-1.0324643-.1631694-1.3871745-.2209666-.1791126.8642102-.291231,1.6758517-.524498,2.4510338-.2132332.7085624-.7576753,1.1317669-1.5244015,1.1406517-.6589085.0076368-1.1716918-.2995729-1.4437233-.9129683-.3101203-.6993016-.1390025-1.3436053.3592018-1.8848013.3306491-.3591987.7336773-.6508561,1.0813205-.9959078.1016303-.100871.1243514-.2812493.1832411-.4251831-.1526189-.0255564-.3162044-.099941-.4560043-.0684958-.7355704.1654896-1.4560744.4496312-2.1985465.5229103-2.0020758.1976077-2.6997855,1.8086771-3.5721952,3.2101241-.2866255.4604276-.0530609.7203926.4912192.6458469,2.7522339-.3769398,5.4056398.2221983,8.0631438.7907922.1289193.0275803.2553161.0686644.3810264.1092241.9618618.3103533,1.4352403.8241685,1.4625902,1.5849349.027632.7680044-.5024137,1.4715478-1.4076244,1.7826372-.4763621.163714-.9808909.2455265-1.6788577.4141253.1488702.1619154.291208.2670601.3681049.4079332.8878711,1.6268837.3213508,3.6047682-1.2844991,4.5159672-.6300689.3575164-1.2081707.3507307-1.6365822-.0192018-.4202711-.3629036-.4982495-.8640739-.237992-1.5593104.0926603-.2475129.1929719-.4921727.2909031-.737696.3437363-.8618128.228722-1.6382374-.3309762-2.3966091-.4194728-.5683767-.8606948-1.0484656-1.5198222-1.3610141-.6385584-.3028048-1.2147308-.7371854-1.8154343-1.1119846-1.1578553,1.5966285-1.4857634,3.7460402-1.0260493,6.694745.4294115-.0224571.628419.1493426.3941896.591071-.1485647.2801449-.3029062.5572273-.4582291.8422457.5106874.1680825.9928192.3132625,1.4651394.4853335.7410488.2699669,1.0884254.64922,1.0458873,1.1058618-.0459571.4929968-.4752623.8471953-1.2335853.9838737-.5845072.1053525-1.1738881.1837088-1.8593193.2891822,2.0118318,1.6728595,2.3079841,3.8718976,2.2253646,6.1681277-.0897112,2.4930435-.5086347,4.9207137-1.792276,7.1221199-.0251282.0431253-.0192634.1043136-.0329636.1884948.4793605.145549.8775979.2771524,1.3121169-.205028.6190976-.6870135,1.6414061-.7538084,2.42836-.1609953.715531.5389997,1.4829866.2954778,2.2328881.2986945.1371179.0005915.3023017-.2939503.4088298-.4786237.5086814-.8816697.9566083-1.8022777,1.5176388-2.6483579.319671-.4820886.8148861-.8477831,1.2052922-1.2399946-.0881676-.3693079-.2822911-.8346836-.2972329-1.305752-.0625192-1.9711984-.5392793-3.8439607-1.2598825-5.6617449-.083655-.2110256-.3131235-.4025041-.5218883-.5189561-.8213865-.4582031-1.6824582-.8481628-2.4863681-1.3336753-.4375661-.2642611-.9927207-.6322003-.7792852-1.2391459.2101589-.5976538.8725991-.5345364,1.3841201-.5115181.6938452.0312233,1.3890818.1321832,2.0731915.2597396,1.8236823.3400285,3.498573-1.0359642,3.4146329-2.8737773-.0497866-1.0901096-.1582151-2.1793039-.2849862-3.2636847-.1555681-1.3306541.4459732-2.4614163,1.5878859-2.8833337,1.1137173-.4114981,2.4170347.0464693,3.0659996,1.1794355.3024104.5279515.5128861,1.1454528.6100475,1.747371.3353152,2.0772178.1737727,4.1043831-.8348786,6.0044443-.0425072.0800471-.0592588.1737653-.1022491.304383.1474259.0652223.2745933.1328075.4090771.1792687,1.8362621.6343801,2.9613085,2.0704768,3.0717287,4.0064637.0902291,1.5817722-.1374144,3.1240121-.7090068,4.6111923-.4536133,1.1801704-.8981285,2.3641507-1.3185194,3.5563621-.0491323.1393704.0253273.4354885.136214.5014899,2.4619376,1.465455,3.2357022,3.8966611,3.6352194,6.4854095.3156445,2.0451476.2369415,4.1064355-.2908976,6.1271533-.4182129,1.6009348-1.3481512,2.8613643-2.6796818,3.8099438-.4301138.3064023-.7018545.6464026-.8300564,1.149432-.1068661.4193155-.2596368.8296885-.4246429,1.2306109-.1466666.356349-.0461994.5193902.300719.6881849,1.7721067.862261,3.2999119,2.0409616,4.5290608,3.5956113.6472188.8186153.9148636,1.6770518.4298081,2.6789712-.0935721.1932618-.1044308.438768-.1078339.66087-.0066338.4337268-.0153166.8720862.0367325,1.3012785.3564491,2.9389737-.6442,5.5897971-1.7628907,8.2029051-.8433769,1.9700223-1.0006871,4.0563462-1.181277,6.1415163-.369694,4.2681381-1.4745073,8.3148264-3.5969252,12.0537517-.3592892.6329404-.8421748,1.1957181-1.3035793,1.8407158.1815123.0848129.3240631.1630777.4746721.2200003,1.4821195.5601717,2.7348947,1.4477408,3.7324579,2.6745479,2.0057991,2.4667509,3.7585242,5.1086715,5.3198535,7.8748356.9014865,1.597106,1.1680254,3.3742086,1.3313546,5.1717369.2786528,3.0666531-.0013444,6.0323843-1.0862651,8.9649087-.9648747,2.6080426-1.9191154,5.2004975-3.2763803,7.6370968-1.4592118,2.6195628-2.4694684,5.4345879-3.3114109,8.2976866-1.2375401,4.2083758-3.9959121,7.2172618-7.4623428,9.6600659-2.9988651,2.1132972-6.2424151,3.8269855-9.4888415,5.527162-.5672625.2971012-1.1387965.6095693-1.6433262.9991408-3.2885745,2.5392116-7.0840555,3.8914014-11.0674862,4.8505417-3.6538833.8797696-7.3374631,1.2466401-11.0625038.6780608-.9485496-.1447887-1.6614755-.112642-2.5132713.4504791-1.4515176.9595958-3.1875035,1.3768053-4.8866396.945199-2.5724658-.653381-4.8945785.060472-7.2269245.9164958-1.5947654.5853358-3.1550815,1.2652914-4.7537129,1.8391047-2.0414748.7328094-4.1040781,1.4071671-6.1624827,2.091992-.3557453.1183585-.7322093.1992933-1.1051993.2367606-1.9691968.1977969-3.9371225.4633072-5.9117385.5362764-1.917695.0708687-3.8461461-.0117094-5.7632902-.1319592-.7543197-.0473453-1.5276525-.2943596-2.2283736-.5980048-2.0253054-.8776607-4.047413-1.7724249-6.0159419-2.7687987-2.2485122-1.1380859-4.1209782-2.7993786-5.7805548-4.6720275-1.1172147-1.2606262-2.2822034-2.4400669-3.5763981-3.528215-1.1424015-.9604833-2.2298616-2.0715723-3.0522092-3.3085444-1.4277111-2.1475441-2.7813603-4.3718294-3.8969143-6.6932822-1.9116237-3.9780933-2.2339183-8.2753985-1.6597768-12.5768034.6462127-4.8413629,1.3801941-9.6883305,2.4350841-14.453366,1.2794135-5.7792283,4.1740789-10.6932223,8.9663959-14.3537359,1.3348784-1.0196209,2.6276238-2.0945023,3.9648473-3.1109636,3.2051539-2.4363585,6.852233-3.9700016,10.6915896-5.0487626,1.9699794-.5534949,3.9677161-.3711066,5.9136774.2735171.0894767.0296387.1780907.0624733.2689713.0869395.0337142.0090871.0727546-.001592.2033182-.0075402Zm23.3207117,60.9747248c1.5593018-.4397195,2.9840538-.0900202,4.4157449.2811962.7765559.2013675,1.5356452.5034031,2.3614075-.0720137.32286-.2249849.9453468.0035392,1.4295505-.0172712,3.3757824-.1452272,6.7628466-.2204217,10.0223028-1.2644282.2595453-.0831335.5209013-.3475218.6568138-.5958611.4705297-.8597565.8708925-1.7575452,1.3260992-2.6261305.6131314-1.1698695,1.3777842-2.2774931,1.8508602-3.499545.7065842-1.8253101,1.2505448-3.7170008,1.7936481-5.6006455.25956-.90019.4540559-1.8409551.5108461-2.7735364.14435-2.3702304.2162476-4.7456707.2754094-7.1200612.0478164-1.9196687.164728-3.8510007.0156847-5.7587759-.1834097-2.3476947-.6068461-4.6769122-.9345306-7.0130088-.2735039-1.9497872-.7276102-3.8446206-1.4601545-5.6873482-1.1008145-2.7691462-2.1415505-5.564673-3.1110091-8.3822975-.3699271-1.0751962-.4605322-2.2450416-.7114462-3.3643485-.0339427-.1514106-.2578127-.3669772-.3996034-.3715527-2.2960319-.074197-4.5928164-.140401-6.8898682-.1616888-1.1682441-.0108294-2.3358205.0946017-3.4717093-.3103238-.1598722-.0570012-.4358709.0479-.5893896.1667017-.5214609.4035671-1.001165.8606402-1.5168578,1.2721627-.9739503.7772015-2.0738696.9381114-3.2610871.6163027-.1901506-.0515334-.3832557-.0921877-.6038054-.1447431.009127.1332696-.0016418.1946761.0187876.2428661,1.0742398,2.534302,1.2040858,5.1838654,1.0787513,7.8935241-.1288109,2.7848073-.6483428,5.5040455-1.149107,8.2305382-.0243711.1327274-.1858351.2402801-.2834727.3595656-.0904477-.1243634-.2353768-.2381796-.2618489-.3749303-.1109894-.5734189-.1999496-1.1519923-.2729381-1.7317151-.6149581-4.8845536-.8156531-9.8178-1.7915497-14.6630164-.1746907-.8673211-.4813867-1.3235934-1.2392511-1.7675907-1.4263435-.8356726-2.7279001-1.882055-4.1029449-2.8087601-.5303372-.3574343-1.1195225-.6275292-1.7180022-.9573059-.0716042.2175561-.0988109.2869473-.1173759.3585713-.4049595,1.5621929-1.2946496,1.9675069-2.73433,1.2553663-.1214851-.0600768-.3080988-.1119166-.4135277-.0613694-.8065258.3866481-1.6004262.7996551-2.4260684,1.2185946.0131469.0462735.0303318.1379629.0645668.2227717.9137733,2.2638056.9936051,4.5705375.4861398,6.9481-.8468187,3.9675361-1.6884737,7.938184-2.4137386,11.9290708-.7534973,4.1462503-1.0487497,8.3391482.0093723,12.4721294,1.0853227,4.2392509,2.2778131,8.4551856,3.5706623,12.635779.9192922,2.9726557,2.114474,5.8589234,3.1249799,8.8048465.5804434,1.692132.7044846,3.4350013.1525193,5.1797271-.0197027.0622516.0011193.1373169.0035856.2249773,1.9884158-.6469571,3.9424725-1.282728,5.896525-1.9184858-1.2860177-.8113849-1.4962722-1.9619496-1.3032235-3.205101.1494296-.9622079.3744653-1.9329461.7234518-2.8392433.562336-1.4603393,1.2405928-2.8770949,1.8949622-4.3007224,1.0432557-2.2696046,1.930974-4.58912,2.502474-7.0292813.5269549-2.2500984.3142562-4.498541.1467074-6.7600344-.1350401-1.8224765-.2058218-3.6519621-.2263532-5.4792064-.0055774-.4979721.2035525-1.0356546.4406069-1.4889747.2581564-.4936792.763495-.4722698,1.0027102.0351298.2210464.4688642.360043.993175.441917,1.5079013.3171302,1.9940079.4754735,4.021278.9170078,5.9858057.8299413,3.69265.4240657,7.245435-.6458365,10.8268926-1.1219293,3.7555902-2.0436967,7.5709591-3.0850649,11.4807966Zm-20.4503407,7.5175217c-.1262034-.1995974-.2048235-.3459843-.3037351-.4770355-1.3284057-1.760098-2.3469513-3.6914829-3.1982494-5.7195482-.6648826-1.5839941-1.3356342-3.1662362-2.0440493-4.7310126-.6457486-1.4263193-1.0704736-2.9076253-1.1966702-4.463282-.2654128-3.2717513-.610732-6.5422115-.7225667-9.8200528-.1657495-4.8577404.3460084-9.6870832,1.0458159-14.4890105.25809-1.7709072.8226929-3.5004373,1.0326073-5.2742715.25892-2.1879733.309679-4.4016676.4214685-6.6057289.154394-3.0438197.684288-5.9993584,1.9841285-8.7809805.4873667-1.0429377,1.0099275-2.0694291,1.495774-3.1130565.4173844-.8965543.4035494-.9016757-.314636-1.539332-.1551771-.1377765-.2803787-.3292256-.458357-.4162824-.2107325-.1030641-.4849562-.2084614-.6945129-.1581452-.7698232.1848023-1.5189003.4540797-2.2853736.6550247-3.6435784.9551153-6.431505,2.9972648-8.3735772,6.2699712-1.646459,2.7745534-2.8752119,5.7304257-4.121863,8.6851827-.92925,2.2024431-1.5447843,4.4819756-1.8640671,6.8619981-.5070505,3.7796526-.4682444,7.5761854-.3513222,11.3612286.1011771,3.2750762.3889271,6.5589403,1.6122245,9.6735124.3990066,1.0158851.6381094,2.0934202.9945725,3.1275091.4174427,1.2109816.8147788,2.4364717,1.3444909,3.5993467.72724,1.596408,1.5907545,3.130101,2.3596176,4.7083372,1.1651941,2.391749,2.9495529,3.9865955,5.5646787,4.6894992.8885503.2388106,1.7353474.7408628,2.5127053,1.2561539.8341408.5529368,1.0837754,1.4701416.7954823,2.2295462-.294035.7745059-1.1215688,1.2696398-2.1317902,1.1450582-.6655526-.0820611-1.3662316-.2170038-1.9564344-.5155483-3.010125-1.5227194-5.2751784-3.8029545-6.6979458-6.8806487-.395892-.8563631-.6787556-1.7688674-1.1171749-2.6009938-1.5684775-2.9768662-2.5260506-6.1418317-3.3893107-9.3916512-1.4676902-5.5252165-2.4235474-11.0815577-2.4846538-16.8046465-.0828343-7.7571106,2.1899604-14.8811031,5.6720407-21.6902631.6734221-1.3168657,1.5044397-2.5531356,2.262757-3.8265974-.0188293-.0558604-.0376563-.1117055-.0564855-.1675659-.171791.1429991-.3281113.311896-.5176814.425151-2.9458874,1.7600584-5.6045455,3.9161839-8.1778113,6.1563384-3.691138,3.2133233-5.5044822,7.5386083-6.4872917,12.1881769-.9440385,4.4661228-1.7002512,8.9779471-2.3657691,13.4952052-.6368803,4.3228186-.1563929,8.5287477,2.183914,12.348091,1.0937762,1.7850253,2.2521935,3.5342083,3.4613406,5.2430139.516166.7294587,1.1747085,1.3930129,1.8779641,1.9478318,1.3766062,1.08608,2.5080272,2.3817098,3.6344181,3.7106273,1.5780367,1.8617837,3.3383128,3.5552371,5.493741,4.7551113,1.7134626.9538462,3.4742176,1.8223298,5.2013285,2.7522039,1.1494388.6188265,2.3416257.877451,3.653557.7342552.8573661-.0935719,1.7349582-.0725557,2.5986416-.0212468,1.3772301.0817533,2.7015892-.1495879,4.1080598-.5314738Zm41.0151819-61.0747068c.1443239.4932612.2216058.8809569.3685577,1.2401582,1.2432957,3.0391684,2.4477559,6.0957809,3.7681546,9.1013449,1.0179049,2.3170206,1.6615242,4.6919898,1.6555894,7.2263511-.0038567,1.6408757-.0507222,3.2816169-.0595077,4.9225156-.0101904,1.9015646.1131275,3.811414-.0238074,5.7030324-.2246807,3.1035164-.5428664,6.1882401-.1914155,9.3109428.1258247,1.1180007.0080384,2.3127025-.2468857,3.414949-.7355041,3.1800794-1.5977344,6.3308252-2.4090701,9.4934008-.0426281.1661898-.0749598.3350259-.1292592.5800734,1.8122635-.5163423,3.3514534-1.3309106,4.8603614-2.2413915,1.467752-.8856327,2.9788312-1.7043717,4.5024732-2.4913416,2.5807429-1.333012,5.2601976-2.4953488,7.4592099-4.4612452.1606387-.1435976.3734951-.3971441.3422992-.5565466-.1094588-.5590252.0732692-1.0122881.3806897-1.4304368,1.3025871-1.7718765,2.2936021-3.7170899,3.2869784-5.6716015,1.5009999-2.9532473,2.3683813-6.0164391,2.1891469-9.3620647-.0631516-1.1786744.0054607-2.3824266.1739921-3.5516617.31969-2.2176497.3371858-4.4316489.1942914-6.6569712-.0728926-1.1351876-.1970565-2.2546072-.7254504-3.2905682-.6431036-1.2608804-1.2244522-2.5558014-1.9178856-3.7879371-1.5697788-2.7892851-3.8551071-4.6087686-7.0759615-5.2199874-1.0352473-.1964734-2.0383529-.6465829-3.002888-1.0951941-.4666444-.2170524-.9369817-.6319927-1.1735706-1.0799106-.235545-.4459582-.1804233-1.045453-.2601194-1.6317806-3.8147925.8734297-7.6779636,2.319629-11.9659225,1.5358708Zm-2.0489301-2.1412397c-.0532625-.3829497-.1696924-.6821364-.1207321-.9512175.5095712-2.8006731,1.0305072-5.599513,1.5790473-8.3928201.4879775-2.4848606.6826562-4.9765086.1364167-7.4684094-.5331421-2.4321176-.5844635-4.8947039-.6694736-7.3654372-.0542168-1.5759071-.256335-3.1502985-.4635194-4.7159325-.1078301-.8148855-.5083977-1.5252832-1.1228666-2.1113607-.917955-.8755749-1.8650696-1.7522661-1.5221248-3.3241321-.8709429.198767-1.6320567.4117843-2.4071817.5402791-1.2056611.1998665-2.429409.5242932-3.6300777.4678558-1.9704106-.0926464-3.9314549-.4275701-5.8892633-.7101059-.4030368-.0581641-.5815855.0015207-.7161052.3745345-1.1396813,3.1603271-2.3642913,6.3012845-2.7299836,9.6734326-.3537017,3.2615315-.6329525,6.5311364-.944523,9.7972382-.2226451,2.3338908-.2615786,4.6681878.0209391,6.9996251.1267593,1.046063.4346694,2.0405267,1.1120659,2.8669196,1.2327396,1.5038825,2.1469195,3.1857542,2.9129696,4.9623578.088365.2049211.3418168.400857.5615211.4761531.9395163.322021,1.7621415-.1417653,2.6138731-.4372129.4863615-.1687256.9946948-.3225029,1.5034655-.3683217,1.1617365-.1046306,2.3294074-.1481519,3.4954415-.1989094,1.2977705-.056509,2.5961299-.1064907,3.8947568-.1343263.8054627-.0172689,1.6119101.0118386,2.3853542.01979Zm29.3542015-18.872034c-.0546574-.0116778-.1092995-.0233578-.1639437-.0350312-.8795332,1.0315937-2.0852587.8934647-2.614074-.3732389-.2215605-.5306938-.3007358-1.1856226-.2340152-1.7595769.19242-1.6550776-.1223633-3.1940285-.8291494-4.6728251-.4965117-1.0388699-1.0051061-2.0722601-1.5260372-3.0990893-.4359243-.8592816-1.1137999-1.4582786-2.015008-1.8151631-.6664031-.2639005-1.3619505-.4913628-1.9679863-.8606444-.6801614-.4144407-1.3061312-.9361132-1.8891239-1.4821947-.2153549-.2017132-.3470264-.303522-.6483537-.2788385-.7113508.0582829-1.4447768.1609434-2.1369739.0478729-.6468888-.1056783-1.2735471-.4246443-1.8674472-.7306009-.3409747-.1756616-.5957035-.5846114-.3648907-.9561509.1599429-.2574287.5281732-.4494195.8398436-.5306993.3135164-.081757.6724819.0271221,1.0110028.0214358.6865426-.0115288,1.3727369-.0439854,1.9039638-.0624372.0477372-.7132197.0288399-1.2921962.1368678-1.8464254.1694706-.869331.465626-1.7138919.6366565-2.583008.9552614-4.8538957.3141568-9.5358082-1.5493217-14.0847459-.2560944-.6251448-.4295364-1.2840332-.6449082-1.9260738-.0406309-.1211365-.0653712-.2948449-.1538549-.3452174-.6866081-.3908282-1.382651-.7658633-2.084817-1.1282666-.431773-.2228503-.879458-.414917-1.3864636-.6518708-.4092638.9788905-1.4583045,1.1369923-2.4869662,1.3282855-.9037549.1680718-1.8087531.3294809-2.7656931.5033653.784359,2.663244.2997443,5.2779192-.2995965,7.8809692-.3671379,1.5945661-.5858551,3.1908157-.2811244,4.8180386.2458188,1.3126644.2750553,2.6312769.0616325,3.9430108-.1904674,1.1706783-.4707949,2.32653-.684104,3.4939273-.030894.1691127.0366266.4760507.1509897.5326842.8278459.4099562,1.6690233.7988716,2.5303021,1.1315343.2353328.0908937.6075708.0569498.8242146-.0736238.890116-.5364877,1.8101743-.6349198,2.7730033-.3007415,1.2881321.4470837,2.1383016,1.3903055,2.5326636,2.6451809.3711523,1.1810044.6071961,2.413882.7982693,3.6401992.4909361,3.1507831.8959369,6.3149377,1.3861169,9.4658505.9582311,6.1594211.9564451,12.2547691-1.07757,18.2343508-.0446193.1311881-.054377.2742142-.0677113.3447206,2.2270122-.3075471,4.4262458-.6112497,6.6596486-.9196783-.2426653-.3941105-.3683266-.7807963.1114948-1.0291176.9881758-.5114058,1.9640008-1.0655763,2.9990609-1.4600701.5747742-.219064.8710052-.5223504,1.0021654-1.0751103.0522012-.2199602.139656-.4313967.1954678-.6506926.8612544-3.3835636,1.7338268-6.7643557,2.5709019-10.1539046.2559156-1.036205.4126912-2.0969084.6148683-3.1463888Zm-58.9783752,78.6997454c-.9160713-.6351858-1.0991745-1.5019852-1.1756399-2.3998025-.0591206-.6940967-.136966-1.3997142-.0757452-2.0886075.223383-2.513766-.05473-4.9783579-.6668263-7.4077864-1.1105377-4.4078231-2.2573685-8.8064797-3.3861915-13.209707-.7186695-2.8033528-1.2710088-5.6499918-1.317294-8.5391505-.0933534-5.8263019.3898944-11.6087007,1.8478499-17.2761535.683108-2.6553979.9756295-5.3056624.0741753-7.9749487-.0918023-.2718477-.1693269-.4367143-.5023647-.4965474-.962879-.173048-1.9191023-.3907147-2.8678291-.6307822-.3312896-.0838345-.4705838-.02338-.5806883.2995837-.267751.7853989-.5168154,1.5844028-.870238,2.3321409-1.8392624,3.8913928-2.5264665,8.0419032-2.8249231,12.2836862-.1004992,1.4282362.0001367,2.8989398-.3088246,4.2791232-1.1086831,4.9526952-1.7164017,9.9768286-2.0158011,15.0186918-.2955618,4.9771853.2193842,9.9475854,1.0340396,14.86911.1261092.7618475.5016231,1.4981127.8468784,2.2046176.6539582,1.3381834,1.366142,2.6480513,2.0609919,3.9660604.3870298.7341004.7621008,1.4763785,1.1883737,2.1875054.6893193,1.1499025,1.6341218,2.007917,2.9238133,2.4677586.850308.3032011,1.5861795.7809307,2.0985684,1.5621873.073102.1114619.333508.2105352.4502256.1659893,1.3194482-.5036951,2.6277737-1.0365451,4.0674496-1.6129686Zm42.4546383-59.7623871c.0363666-.5872788.0414288-1.0728095.1003486-1.5517084.2833007-2.3025707.594928-4.6017149.8698368-6.9052421.2588374-2.1687889-.1940299-4.2860944-.5223395-6.4102546-.4984441-3.2249389-1.143042-6.4281022-1.2876218-9.7033988-.0437736-.9918145-.268471-1.9806062-.4695721-2.9585886-.1130538-.5497837-.2920172-1.101874-.5397749-1.6043758-.3707386-.7519685-.8510375-1.3802111-1.7962791-1.560354-.4078058-.0777149-.7530694-.5035552-1.1163828-.7846651-.1421748-.1100195-.2380546-.3430026-.3853137-.3734305-1.3234239-.2734125-2.4646707-.9203802-3.5769867-1.6480379-.1599629-.104634-.4417337-.1414931-.6187091-.0769445-.365031.1331233-.6973812.3558437-.9993659.5181549.0363661.7934903.105886,1.5636189.0993125,2.3330977-.0112969,1.3196277-.0979893,2.6387406-.1035202,3.9582786-.0135398,3.2214639-.1266439,6.444934.4136788,9.6481817.1933728,1.1464279.240816,2.3242128.271859,3.4898952.0641423,2.4095209-.4214367,4.7632746-.8039095,7.1269547-.3102309,1.9172952-.5196306,3.8547023-1.2551279,5.677616-.0312391.0774405-.0183528.1726799-.0377313.3920937,3.9343071.9028785,7.8612508.7716185,11.7575987.4327279Zm-32.2502877-.8913645c-.061447-.2483309-.0833516-.3731245-.1230664-.4919575-.5242555-1.5685178-.8220607-3.1748904-.8115118-4.8328696.0096047-1.5077573-.0108292-3.0165925.039696-4.5230244.0985236-2.9375919.1863075-5.8771023.3747831-8.8096359.1678899-2.6121306.3537408-5.2325382.7380565-7.8186227.3742258-2.5180701,1.507308-4.8140631,2.6105407-7.091802.2014803-.4159696.2221031-.663096-.2232856-.9006921-.3289536-.1754688-.6265932-.4218598-.9080299-.6707438-.274758-.2429658-.4512635-.2079134-.6984329.0574095-1.3163364,1.4129972-2.8752364,2.5014472-4.641346,3.2686361-.622054.2702154-1.0217856.6632232-1.3847823,1.2329773-2.4973725,3.9198725-4.1645282,8.1257121-4.859719,12.7488079-.3816679,2.5380936-.9016822,5.0364188-.6088573,7.6268003.1345906,1.1905685.331346,2.3409853.8132142,3.4487878.488625,1.1233484.9008849,2.2800055,1.3412425,3.424129.045388.1179193.0544748.2498071.0965304.4532307.4806389-.4377505.8480889-1.0753139,1.2449851-.1605125.0100373.023163.0684516.0239126.1031445.0379664,1.3082517.5295472,2.6255166,1.0381683,3.9214625,1.5962791.9656443.4158675,1.9037011.8958031,2.9753756,1.4048363Zm-11.8684398-2.872113c-.1203396-1.0040566-.2172065-1.845152-.3225538-2.6852094-.3357366-2.6768959-.2842806-5.3450748.2227975-7.99573.428802-2.2414762.8959418-4.4736247.6165196-6.7810242-.0444465-.3670026.0219832-.7539022.0776881-1.1255351.4416493-2.9462761,1.3889574-5.7103856,2.9933235-8.235197.1003992-.1580007.1832845-.3271311.2743151-.4910835-.036666-.039047-.0733233-.0780984-.1099827-.1171433-2.0948101.6833621-4.2142796,1.3009735-6.2754573,2.0740275-1.2977853.486736-2.5808211,1.0935738-3.7441618,1.8427003-3.3356101,2.1479376-4.783615,5.2108774-3.9644133,9.1591117.3049497,1.4696934.8809256,2.8812456,1.284904,4.3327772.4713185,1.6935031,1.3956563,3.3264633.7800181,5.1865694-.0101244.0306064.0139487.0726575.0224384.1092594.1818657.7837221.3619378,1.5678731.5489966,2.3503488.0160577.0671347.0645014.1495149.1218093.180301.665051.3572345.7039833.9143336.4315536,1.5914555.7139114.2349697,1.3642525.6072367,2.0298096.636797,1.6456993.0730741,3.2983637-.0107988,5.0123955-.0324254Zm27.9486383-32.472528c.0249576.0607967.0499087.1215912.0748598.1823857.336757-.0280191.7044939.0215406,1.0045818-.0982908.9811131-.3917856,1.9767893-.4875476,2.9984187-.2671721.4838557.1043759.7738898.013609.9294205-.5046166.1177619-.3923465.3186839-.7698366.5366332-1.1203416,1.271603-2.0450807,2.0140878-4.2735992,2.5602693-6.6140532.5087922-2.1802276.7110624-4.3568603.4855547-6.5623598-.1739893-1.7016815-.4861128-3.3905373-.7836063-5.0768419-.0422668-.239543-.3105083-.5534901-.540255-.6273158-1.6154303-.5191798-3.2473023-.9875196-4.8770952-1.4611592-.1319909-.0383536-.3369664-.0526742-.4235324.0210507-.2981412.2539045-.600816.5220923-.8251945.8390469-.5119559.7232089-1.0033857,1.4636128-1.4592978,2.2233505-2.1272226,3.5447918-2.3671355,7.2430599-.8682506,11.077075.4465166,1.1421322.9087372,2.2799473,1.301632,3.4407647.5126189,1.514537.7616711,3.0463699-.1141381,4.5484776Zm32.7183841,64.6294357c.0626053.0091614.1252237.018327.187829.0274884.3930886-.8680788.857701-1.7116705,1.1648761-2.6091326.7202436-2.1044083,1.3410297-4.2427012,2.048722-6.3516191.4965042-1.4796042.8151883-2.9825581.8628562-4.5419085.0934266-3.0558781-.4405909-5.9390303-2.3306898-8.4481868-.862908-1.145521-1.7546525-2.2709331-2.5774056-3.4446748-.863946-1.232522-1.9726708-2.0592994-3.4514605-2.3788535-1.0589776-.2288169-1.9792256-.7116123-2.7510214-1.4851818-.1157185-.1159954-.3626581-.1779499-.5314699-.1519184-1.3352926.2059467-2.6662457.4398932-3.9987762.6638129-.3182397.0534635-.6373785.1016516-.9560925.1522655,1.184021.4223834,2.2672953.9369815,2.9505699,1.9730032.9576252,1.4520192,2.2116491,2.553794,3.6648579,3.4712528,1.3453907.8493444,2.3208574,2.0202204,2.9455266,3.4911432.5162694,1.2157285,1.1372715,2.3916296,1.5816907,3.6318153.3845749,1.0732032.6891695,2.1974237.8482802,3.3246181.3907185,2.7678779.4438792,5.5509463.2527283,8.3481697-.0979914,1.43391.0513853,2.8847222.0889789,4.3279064Zm-9.1720156-84.5021395c-.0293299.1306075-.0798485.2318994-.0688602.3260045.1049009.8982803.2120822,1.7964449.3341602,2.6925237.2952143,2.1670293.6773774,4.3256143.8790783,6.501082.2532361,2.7311021.0548029,5.4380899-1.0258044,8.0106914-.3260985.7763286-.7081324,1.5291586-1.0999561,2.3686216,2.0204968-.5702244,3.9830313-1.1240804,5.9438509-1.6774597-.2535218-1.2501105.0843167-2.028843,1.2393376-2.5520768.5883466-.2665387,1.2654153-.3343504,1.8980035-.5079311.1849393-.0507456.4364713-.1076301.5183231-.2447562.527186-.8832158.8412071-1.8379738.8435264-2.8877293-1.2451926.2246451-1.6689171-.2062423-1.6712573-1.4798798-.0019648-1.0711997-.102917-2.145685-.2190087-3.2123041-.1377888-1.2659411-.6279756-2.3859599-1.4419352-3.3892107-.6401134-.7889773-1.229328-1.6313873-1.7431741-2.5075286-.6180336-1.0538019-.3327222-1.7702175,1.0401369-2.1485189.2761407-.0760918.5956378.0020779.8949379.0142985.1400478.0057126.2795714.0237231.5548948.0482319-.1942292-.2623608-.2782537-.4736792-.4335376-.5692167-.8073309-.4967502-2.0449261-.2239671-2.6323694.5310339-.2421325.3111767-.5080557.6115602-.8018369.8734735-1.1624667,1.0364441-2.0199185.9867276-3.0085099-.189349Zm-24.0462092-3.2304581c-.3727494-.3273778-.6732557-.3174206-1.06492-.0241705-1.5043948,1.1263579-3.1016585,2.1149177-4.9530947,2.5417903-.734575.1693662-1.1483427.5116801-1.5080257,1.1595747-1.4055369,2.531773-2.7229246,5.0821774-3.3675469,7.9447233-.5550908,2.4649992-.3669197,4.7915698.8530504,7.0225323.2892061.5288762.4910467,1.1057275.7832392,1.6326965.1797753.3242143.4592161.5922789.68423.8927993.0758274.101279.1876827.2359351.1708016.3364829-.1085013.646309.3107589.6958573.7684098.718475,1.2057561.0596041,2.4114134.1214325,3.6173414.1773514.1445999.0067012.2906477-.0176937.4843444-.0309922-.066533-.1876456-.1193995-.3246026-.1639446-.4642151-.5443592-1.7062374-1.2524894-3.3805472-1.5943849-5.1265428-.5925679-3.0260857-.5173937-6.0888594.1859782-9.1092023.7135645-3.064118,2.1395585-5.6754752,4.8533946-7.4417526.089727-.0584015.1606438-.1457144.2511273-.2295502Zm15.4353767.8017825c.1484853-1.1843721.209428-2.1989774.4166581-3.1827684.232627-1.104351.6137989-2.1765624.9005315-3.2705675.3453123-1.3174641.6695697-2.6439473.192471-4.002223-.1434404-.4083566-.2931516-.7848094-.7832849-.9571924-.4506083-.1584786-.5240871-.6049741-.4847318-1.0434738.0144748-.1613839.0722536-.3188854.1239206-.5352759-.3200774-.0246936-.5962069-.0484122-.8726924-.0668245-.5703073-.037966-1.269486-.2903375-1.6758069-.0496344-.4247125.2515937-.586708.9699039-.8302107,1.4995274-.602516,1.3104502-1.1528962,2.6451942-.9063816,4.1340415.1752619,1.0585251.431824,2.103318.6272491,3.1588409.2220106,1.1991176.4123207,2.4040867.6297272,3.6040987.0190019.1049034.1239073.2596358.2112018.2766173.8393761.1633388,1.6835527.3020501,2.4513491.434834Zm11.7597031,23.1568629c3.5617494,3.3053985,5.7851891,7.2181154,6.3866299,11.9522372.3351537-.6048634.6584607-1.2897222,1.0713253-1.9154832,1.6061277-2.4344128,1.6769717-5.0989696,1.2140458-7.8431631-.0459155-.2722074-.2095703-.6148555-.4274964-.7529737-1.3365285-.8471629-2.6988165-1.6545021-4.0684874-2.4475495-.1858364-.1075952-.4795471-.1301626-.6914934-.0733603-.7989725.2141338-1.5852345.4759553-2.3753626.7227601-.3679361.1149212-.7338709.236325-1.1091612.3575325Zm1.6744801-23.2624274c.6556428-.2174395,1.3461914-.2849786,1.8084532-.6453504.4596346-.3583173.7742107-.9766145,1.0039771-1.541298.567684-1.3952808,1.0574345-2.8226473,1.5615613-4.2431309.1060218-.298726.1513891-.6212554.2035176-.9363253.0922286-.5574964-.0629107-1.0432009-.4594088-1.4505093-.9117836-.9366382-1.9745202-1.7603896-2.2735878-3.1550573-.5455606.1867945-1.0307327.3349856-1.4985097.5258327-.1154571.0471083-.2412047.2287757-.2491233.3556415-.1111447,1.7822496-.1775462,3.567636-.3132939,5.3477975-.0449183.5891524-.2562236,1.1656049-.397271,1.7729126,1.1768921,1.0348277.5838246,2.4681704.6136853,3.969487Zm-20.4161095-1.5068168c-.1017745-.2986147-.1481115-.4378924-.1966214-.5764074-1.5471608-4.4182202-1.0691276-8.5314421,1.8373091-12.2858527.1177958-.1521767.151081-.3697834.2237408-.5569045-.2117621.0364466-.4331036.0464812-.6319306.1185868-.133082.0482597-.245239.1742795-.3478771.2832779-.9424781,1.0009033-1.8875979,1.9994593-2.818213,3.0113431-.7334139.7974534-1.509255,1.5226021-2.5365491,1.9456336-.1785552.0735288-.3753062.3894865-.3669426.5850607.0683134,1.5981276.1652731,3.1957465.2964398,4.7899843.034159.4151798.2192941.8179314.3316351,1.2141887q.7291852-.1196134.7832553.7911948c1.0936646.2170544,2.1959514.4358254,3.4257537.6798948Zm4.0060644-15.5086915c1.2246349.1473193,2.4225284.2914172,3.7415094.4500856-.7050864-1.2554992-1.1525726-2.447792-.9154028-3.8145789.2327508-1.3412621,1.0280284-2.3931869,1.7399995-3.5058394-.1071155-.0483295-.1562726-.0875348-.2069949-.0896693-.0919649-.0038753-.19929-.0128826-.2752319.0273684-1.3459038.7133578-2.6941393,1.4227851-4.0272321,2.1595491-.3971132.2194735-.4472972.5774065-.3200201,1.0272637.3391491,1.1987242.6148139,2.4131206.263373,3.7458208Zm-26.4414624,35.3566014c.2564002-5.1393479.3707878-10.162892,3.0352248-14.6613148-5.119635,3.6946241-5.2143068,11.1152509-3.0352248,14.6613148ZM98.2161412,3.8679893c-.5463581.2100532-1.0413945.3377408-1.4679255.584066-.3446537.1990554-.7791567.49349-.8718085.8290082-.2404538.8706943-.7480216,1.5299416-1.3107277,2.186227-.3456421.4031155-.6420074.8484786-1.035515,1.3753038.9083754.3803623,1.6576991.8689331,2.4608823.9850633.9498246.1373315,1.9482862-.0211724,2.9213865-.1025762.482635-.0403744.9606152-.1772428,1.4310048-.3058681.2370827-.0648287.4008349-.2192132.2080045-.5059961-.3328593-.4950694-.65278-.9988384-.9945853-1.5242354-.3947196.3211346-.813229.6640755-1.2345035,1.003562-.3311465.2668393-.7461195.4465506-1.0839452.1649735-.2859572-.2383346-.5769786-.6480948-.5901669-.9925319-.0175612-.4585976.1801264-.9510309.3783124-1.3866302.34901-.7670224.7684157-1.5020158,1.189587-2.310366Zm-26.7523044,29.9802424c-1.7987699,1.355593-1.5117563,3.4289615-2.3106632,4.9333757.9866152.3247246,1.8739895.6167862,2.9210924.9614191-.7608674-1.9665108-.7678302-3.8405103-.6104293-5.8947948Zm32.5887841,12.4998056c2.3186017,3.039436,1.7645509,6.3343675.9430494,9.6696094.1679077-.1758135.308329-.3532264.4031494-.55236,1.2169828-2.5555543,1.0392542-5.1595664.2223519-7.7692767-.2215223-.7076689-.7785914-1.1342005-1.5685507-1.3479727Zm-5.4625617-43.1207186c.4273503-.8487998.9233005-1.3781928,1.9467583-1.0979903-.152231-.3600161-.226664-.6108721-.3565689-.8286408-.330811-.5545541-.6997075-.5856606-1.1022362-.0794235-.4211418.5296562-.658702,1.1280173-.4879532,2.0060546Z" stroke-width="0"/>
  </g>
</svg>