<?xml version="1.0" encoding="UTF-8"?>
<svg id="Layer_2" data-name="Layer 2" xmlns="http://www.w3.org/2000/svg" viewBox="0 0 118.9099081 158.4313978">
  <g id="Layer_1-2" data-name="Layer 1">
    <g>
      <path d="m117.5333132,17.3200697c-.8212891-.5917969-1.6552734-1.1542969-2.4892578-1.7158203-.5302734-.3564453-1.0595703-.7138672-1.5869141-1.0791016-.546875-.3779297-1.0898438-.7666016-1.6318359-1.1552734-.4501953-.3222656-.9003906-.6445312-1.3525391-.9609375-.2695312-.1884766-.5351562-.3994141-.8017578-.6113281-.6943359-.5507812-1.4121094-1.1201172-2.25-1.3789062-1.1337891-.3496094-2.1376953-1.1337891-3.2021484-1.9648438-.9785156-.7636719-1.9892578-1.5537109-3.15625-2.0224609-.0253906-.0292969-.0498047-.0634766-.0751953-.0957031-.0644531-.0820312-.1298828-.1640625-.1953125-.2324219-2.4824219-2.6044922-5.2587891-4.5791016-8.4882812-6.0361328-.328125-.1494141-.7177734-.0429688-.9238281.2548828-.0791016.1132812-.1601562.2226562-.2402344.3310547-.1992188.2675781-.4042969.5439453-.5810547.8730469-.1923828.3564453-.3681641.7314453-.5439453,1.1054688-.2792969.5947266-.5439453,1.15625-.8662109,1.6269531-1.0078125,1.4716797-1.7792969,3.1523438-2.3583984,5.1376953-.1142578.3916016-.2744141.7695312-.4433594,1.1699219l-.6660156,1.5927734c-.7304688,1.7460938-1.4599609,3.4921875-2.2099609,5.2236328-.359375.8310547-.7451172,1.6416016-1.1308594,2.453125l-.6933594,1.4697266c-.1552734.3310547-.3115234.6630859-.4609375.9990234-.1884766.4208984-.3691406.8496094-.5507812,1.2783203-.3583984.8476562-.7285156,1.7255859-1.1484375,2.5136719-.859375,1.6142578-1.7734375,3.2246094-2.6572266,4.7822266-.4072266.7177734-.8154297,1.4355469-1.21875,2.15625l-1.984375,3.5556641-1.0478516,1.890625c-.1162109.2207031-.2314453.4414062-.3662109.6396484-.8613281,1.2626953-1.4208984,2.703125-1.9648438,4.1904297-.3916016,1.0703125-.8740234,2.1503906-1.4755859,3.3007812-.3115234.5966797-.6552734,1.1699219-.9990234,1.7421875-.5644531.9414062-1.1474609,1.9140625-1.5947266,2.9970703-.5097656,1.2353516-1.1425781,2.3271484-1.8125,3.4833984-.5214844.9023438-1.0605469,1.8330078-1.5302734,2.8300781-.1875-.5039062-.3671875-1.0136719-.546875-1.5224609-.671875-1.8994141-1.3652344-3.8632812-2.4277344-5.5751953-.1103516-.1767578-.1972656-.4394531-.2890625-.7177734l-.1025391-.3037109c-.7089844-2.0039062-1.4521484-3.9863281-2.1962891-5.9677734-1.3261719-3.5361328-2.6982422-7.1933594-3.8330078-10.9121094-.4101562-1.3417969-.8662109-2.6806641-1.3066406-3.9746094-.65625-1.9267578-1.3349609-3.9189453-1.8613281-5.9296875-.8720703-3.3378906-1.7470703-6.4023438-2.6738281-9.3662109-.6015625-1.9248047-.5947266-2.0322266-.4716797-3.8251953l.0351562-.5341797c.0185547-.28125-.1220703-.5498047-.3652344-.6933594l-.8730469-.5185547c-.2988281-.1767578-.6806641-.1259766-.9228516.125l-.7080078.7363281-1.3085938-.3837891c-1.59375-.4677734-3.2050781-.9404297-4.8193359-1.4003906-.7246094-.2050781-1.3935547-.3544922-2.0488281-.4541016-.453125-.0693359-.9091797-.1181641-1.3652344-.1660156-.6757812-.0712891-1.3154297-.1396484-1.9462891-.2744141l-.1455078-.03125c-1.3486328-.2880859-2.7353516-.5927734-4.1875-.5595703-.1611328-.0175781-.3623047-.0361328-.5712891-.0761719-.1728516-.0341797-.3466797-.0673828-.5214844-.0859375-.2675781-.0292969-.5351562-.0625-.8027344-.0957031-.7285156-.0898438-1.4814453-.1826172-2.2412109-.2001953-.4306641-.0087891-.8603516-.0068359-1.2871094-.0019531-1.3515625.0126953-2.6152344.0253906-3.8486328-.3945312-.5146484-.171875-.9609375-.2177734-1.3710938-.1435547-.8603516.1640625-1.7490234.0224609-2.6894531-.1279297-.7548828-.1210938-1.5380859-.234375-2.3457031-.2177734-.3457031.0117188-.6943359.0371094-1.0439453.0634766-.828125.0615234-1.6113281.1201172-2.3515625-.0185547-.9072266-.1679688-1.7216797-.0195312-2.5087891.1259766-.2324219.0429688-.4658203.0859375-.6992188.1191406-.7216797.1015625-1.9140625.6259766-1.7919922,2.9941406.0185547.3554688.2851562.6503906.6386719.703125.3603516.0478516.6953125-.1513672.8154297-.4863281.3369141-.9296875.7470703-.9453125,1.5654297-.9755859.2138672-.0087891.4248047-.0175781.6298828-.0429688,1.2412109-.1523438,2.5126953-.0849609,3.59375.0009766,1.9023438.1552734,3.8037109.3544922,5.7050781.5527344l2.4238281.25c.3544922.0361328.7099609.0800781,1.0644531.125.8291016.1035156,1.6855469.2099609,2.5537109.2099609h.0429688c2.1064453.015625,4.1455078.2294922,6.0634766.4902344,1.2216797.1660156,2.2353516.3164062,3.2373047.6191406.9501953.2871094,2.0898438.5859375,3.3339844.6220703.9052734.0253906,1.8251953.2685547,2.7998047.5273438l.3779297.0996094c.4257812.1113281.8476562.2646484,1.2685547.4169922.6025391.2177734,1.2265625.4423828,1.8808594.5664062,1.3544922.2558594,2.0283203.6679688,2.1953125,2.3222656.0390625.3779297.1738281.7011719.2919922.9863281.0507812.1210938.1025391.2421875.1416016.3652344.1503906.4765625.3066406.9511719.4628906,1.4248047.3642578,1.1064453.7421875,2.25,1.0292969,3.3964844.1201172.4794922.2314453.9619141.34375,1.4433594.3935547,1.6992188.8007812,3.4560547,1.5615234,5.0537109.03125.0664062.0566406.2333984.0771484.3671875.0273438.1796875.0566406.3603516.1064453.5273438.3857422,1.3046875.7783203,2.6064453,1.1835938,3.9003906.0878906.2783203.1914062.5478516.2958984.8183594.0771484.1992188.1542969.3984375.2226562.6035156.3515625,1.0390625.6992188,2.0810547,1.046875,3.1230469.671875,2.0126953,1.3447266,4.0253906,2.0380859,6.0244141.4824219,1.3876953,1.0117188,2.7685547,1.5234375,4.1035156l.7783203,2.0429688c.5341797,1.4101562,1.0693359,2.8203125,1.6289062,4.2128906.2050781.5097656.4316406,1.0048828.6572266,1.5.25.5488281.5009766,1.0976562.7197266,1.6669922.5478516,1.4296875,1.0712891,2.8769531,1.5810547,4.2871094l.5380859,1.4853516-.1240234.4375c-.1601562.5527344-.3115234,1.0742188-.4228516,1.6337891-.1708984.8554688.2392578,1.6728516.9511719,1.9003906.4775391.1552734,1.2011719.1738281,1.6640625-.2880859.3945312-.390625.9023438-1.0117188,1.0810547-1.7568359.2207031-.9257812.6376953-1.7001953,1.0791016-2.5205078.2070312-.3828125.4121094-.7666016.5996094-1.1650391,1.0078125-2.1494141,1.9462891-3.9697266,2.8691406-5.5664062.5234375-.9052734,1.0078125-1.8583984,1.4765625-2.7792969.7246094-1.4238281,1.4726562-2.8955078,2.3564453-4.1669922.1875-.2705078.2949219-.5791016.3896484-.8515625l.0830078-.2314453c.1142578-.3007812.2246094-.6044922.3349609-.9082031.2041016-.5605469.4082031-1.1210938.6367188-1.6640625.265625-.6328125.5791016-1.2587891.8818359-1.8642578l.1601562-.3212891c.4003906-.8017578.8085938-1.5947266,1.2255859-2.3808594.4150391-.7841797.8388672-1.5625,1.2714844-2.3291016.1162109-.2060547.2597656-.4042969.4013672-.6035156.3564453-.5.7607422-1.0673828.8476562-1.7695312.0712891-.5712891.296875-.8613281.6083984-1.2626953.1484375-.1904297.2958984-.3828125.4296875-.5996094.3320312-.5380859.6289062-1.1083984.9160156-1.6591797.53125-1.0185547,1.0332031-1.9814453,1.7226562-2.7275391.4189453-.453125.640625-1.1083984.8369141-1.6875l.0478516-.1396484c.4921875-1.4394531,1.1298828-2.8232422,1.7470703-4.1611328.4638672-1.0087891.9443359-2.0517578,1.3691406-3.1279297.4101562-1.0371094.8496094-2.0537109,1.2890625-3.0703125.9326172-2.15625,1.8974609-4.3867188,2.5615234-6.8056641.0439453-.1621094.1494141-.3417969.2597656-.53125l.1025391-.1777344c.5917969-1.0517578,1.1845703-2.1035156,1.7880859-3.1416016.1806641-.3095703.3740234-.6064453.5517578-.8789062,1.0644531.1074219,1.6708984.2558594,2.1582031,1.1035156.1972656.3427734.5185547.4541016.6982422.4970703.3769531.3242188.7675781.59375,1.1455078.8554688.7041016.4863281,1.3691406.9453125,1.859375,1.7001953.2949219.4550781.7109375.8261719,1.1386719,1.015625,1.2695312.5673828,2.3896484,1.5263672,3.5742188,2.5410156l.2666016.2275391c.3632812.3095703.7607422.5136719,1.1113281.6943359.1503906.078125.3017578.1552734.4492188.2421875.2763672.1621094.5556641.3183594.8339844.4755859.6445312.3623047,1.2529297.7050781,1.8398438,1.1113281.5283203.3662109,1.0527344.7392578,1.5771484,1.1132812,1.3925781.9902344,2.8310547,2.0136719,4.3251953,2.8789062l.3896484.2216797c.7236328.4052734,1.4101562.7900391,1.8779297,1.5068359-.1357422,2.4697266-.3310547,3.2978516-1.1953125,5.2412109-1.4804688,3.3300781-2.9599609,6.6611328-4.4375,9.9931641l-.6152344,1.4023438c-.3574219.8203125-.7148438,1.6396484-1.0869141,2.4472656-.3203125.6972656-.6494141,1.3876953-.9794922,2.078125-.4521484.9462891-.9042969,1.8925781-1.3330078,2.8574219-.1445312.3251953-.2822266.6542969-.4199219.9833984-.4355469,1.0429688-.8476562,2.0263672-1.4482422,2.8378906-.3222656.4345703-.5087891.9892578-.703125,1.5664062-.5751953,1.7109375-1.3535156,3.265625-2.3125,4.6191406-.4550781.640625-.7949219,1.2412109-1.0380859,1.8369141-1.1699219,2.8652344-2.3535156,5.0498047-3.7255859,6.8798828-.1230469.1640625-.2285156.3544922-.3310547.5449219l-.0859375.1591797c-.2958984.5214844-.5878906,1.0458984-.8798828,1.5703125-1.6679688,2.9902344-3.3925781,6.0820312-5.5791016,8.5175781-.4091797.4541016-.7138672,1.0058594-1.0078125,1.5390625-.1132812.203125-.2255859.4072266-.34375.6035156-.109375.1816406-.2128906.3701172-.3173828.5585938-.125.2275391-.25.4560547-.3886719.6708984-.84375,1.3085938-1.6933594,2.6113281-2.5400391,3.9130859l-.9306641,1.4287109c-.1386719.2138672-.1601562.4824219-.0556641.7148438l2.4902344,5.5712891c.0244141.0537109.0458984.1123047.0683594.1699219.0820312.2158203.1845703.4853516.390625.7021484.6142578.6494141,1.0361328,1.5429688,1.4824219,2.4892578.3554688.7548828.7236328,1.5351562,1.2128906,2.2255859.5351562.7578125.9228516,1.7763672,1.1679688,2.4775391.8945312,2.546875,2.0800781,4.8779297,3.2265625,7.1318359.5439453,1.0693359,1.0878906,2.1396484,1.6025391,3.2333984,1.0166016,2.1591797,2.0371094,4.3144531,3.0634766,6.4658203.7421875,1.5595703,1.4951172,3.1123047,2.2480469,4.6630859.1152344.2373047.2480469.4677734.3828125.6972656.2265625.3896484.4414062.7578125.5195312,1.125.2675781,1.2666016.796875,2.328125,1.3085938,3.3554688.5498047,1.1025391,1.0683594,2.1445312,1.2509766,3.3896484.0400391.2763672.1816406.5488281.4228516.8144531.3671875.3984375.6982422.8525391,1.0498047,1.3320312.5332031.7294922,1.0849609,1.4833984,1.8017578,2.0898438.9072266.7675781,1.4091797,1.6923828,1.5302734,2.8203125-1.0585938,1.5449219-2.1474609,2.5888672-3.4121094,3.2744141-1.2246094.6630859-2.3769531,1.5498047-3.453125,2.3994141-.2177734.171875-.4335938.3476562-.6484375.5234375-.9462891.7705078-1.8398438,1.4990234-2.8554688,1.8496094-.6162109.2138672-1.1386719.6162109-1.6435547,1.0058594l-.34375.2617188c-.8779297.6494141-1.7539062,1.3056641-2.6289062,1.9619141-1.2617188.9462891-2.5234375,1.8916016-3.7949219,2.8183594-.7314453.5332031-1.4863281.9980469-2.2451172,1.3798828-.8056641.40625-1.8261719,1.0429688-2.5751953,2.3740234-.0507812.0898438-.1191406.1748047-.1972656.2578125-.1210938-.1796875-.2226562-.4130859-.3447266-.7050781-.0605469-.1464844-.1210938-.2910156-.1865234-.4306641l-.3330078-.71875c-.5146484-1.1152344-1.0458984-2.2695312-1.6972656-3.2988281-.8994141-1.4238281-1.6318359-2.9785156-2.3046875-4.4482422-.4472656-.9794922-.8691406-2.0117188-1.2783203-3.0097656-.3388672-.828125-.6777344-1.65625-1.0351562-2.4697266l-.4462891-1.0292969c-.6064453-1.4052734-1.2333984-2.859375-1.9941406-4.1748047-1.5488281-2.6748047-3.1113281-5.7070312-4.7773438-9.2675781-.8349609-1.7871094-1.8886719-3.8339844-3.375-5.4707031-.3339844-.3691406-.625-.9433594-.8720703-1.4541016l-.2070312-.4277344c-.9482422-1.9541016-1.9277344-3.9755859-2.8251953-6.0068359-.4326172-.9794922-1.2382812-2.2333984-3.1845703-1.8701172-.2763672.0527344-.5.2548828-.5800781.5253906l-.1845703.625c-.1386719.4667969-.2724609.9160156-.4013672,1.3652344-.1357422.4707031-.2646484.9462891-.3935547,1.421875-.2675781.9853516-.5439453,2.0048828-.8798828,2.9501953-.4472656,1.2539062-.953125,2.5048828-1.4433594,3.7138672-.2841797.7021484-.5683594,1.4033203-.84375,2.1113281-.1113281.2871094-.2275391.5732422-.34375.859375-.359375.8867188-.7314453,1.8037109-.9804688,2.7841797-.609375,2.4042969-1.5214844,4.8251953-2.8720703,7.6191406-.5634766,1.1640625-1.1230469,2.4501953-1.7109375,3.9316406-.2421875.6113281-.4765625,1.2285156-.7099609,1.8457031-.6982422,1.8398438-1.4199219,3.7431641-2.3662109,5.4023438-.2216797.3867188-.3730469.8046875-.5185547,1.2089844l-.1054688.2880859c-.1572266.4179688-.3007812.8466797-.4453125,1.2763672-.2900391.8652344-.5644531,1.6826172-.9394531,2.3994141-.9970703,1.9101562-1.3935547,4.0478516-1.7773438,6.1152344l-.1337891.7138672c-.1455078.7675781-.2490234,1.5498047-.3505859,2.3222656-.0439453.3330078-.0878906.6640625-.1347656.9912109-.046875.3232422.1210938.6396484.4150391.78125.4599609.2226562.9375.4287109,1.3945312.4287109.2001953,0,.3964844-.0390625.5859375-.1337891.5576172-.2783203.7441406-.8876953.8535156-1.4472656.0898438-.4628906.1425781-.9384766.1943359-1.4140625.0253906-.2363281.0507812-.4736328.0820312-.7080078l.0322266-.2421875c.1962891-1.4892578.3994141-3.0302734.9394531-4.3408203.5810547-1.4082031,1.1806641-2.8027344,1.7802734-4.1982422,1.0556641-2.4589844,2.1484375-5.0009766,3.1210938-7.5791016.921875-2.4443359,1.9726562-4.9931641,3.40625-8.2636719.5498047-1.2529297.9951172-2.5927734,1.4257812-3.8876953.3076172-.9267578.6259766-1.8857422.9765625-2.7910156.40625-1.0488281.8232422-2.0908203,1.2392578-3.1328125,1.0810547-2.7050781,2.1972656-5.4980469,3.1191406-8.3867188l1.0419922,2.1279297c.9667969,1.9902344,1.9677734,4.0488281,3.4980469,5.5957031.2236328.2255859.4335938.6630859.6015625,1.0136719.6015625,1.2568359,1.1953125,2.5195312,1.7900391,3.7822266l1.375,2.9160156c.1904297.4101562.3876953.8339844.6708984,1.2041016.9199219,1.1992188,1.6308594,2.5898438,2.3837891,4.0634766.4023438.7890625.8056641,1.5771484,1.2412109,2.3339844.09375.1621094.2080078.3193359.3242188.4755859.1210938.1630859.2714844.3662109.2832031.4648438.1982422,1.6767578.8369141,3.0234375,1.4550781,4.3261719.3144531.6621094.6113281,1.2880859.8525391,1.9550781.8027344,2.2148438,1.8652344,4.1152344,2.8945312,5.8388672.4384766.7333984.8183594,1.578125,1.1865234,2.3955078l.2851562.6308594c.5751953,1.2519531,1.1396484,2.5126953,1.6982422,3.7607422l.6933594,1.5449219c.1044922.2324219.3193359.3955078.5712891.4335938,1.0019531.1513672,1.6865234-.2246094,2.0498047-1.1181641l.1972656-.5c.2080078-.5322266.4042969-1.0351562.6494141-1.4716797.5488281-.9804688,1.15625-1.9550781,2.0039062-2.1826172,1.2470703-.3330078,2.2548828-1.1279297,3.2285156-1.8964844.4375-.3447266.8496094-.6708984,1.2773438-.9511719.9384766-.6171875,1.8642578-1.2949219,2.7597656-1.9511719,1.1572266-.8476562,2.3544922-1.7236328,3.5615234-2.4511719,1.4960938-.9033203,2.8632812-2.0205078,4.2480469-3.1806641.6503906-.5449219,1.2421875-1.0175781,1.9082031-1.2871094,1.8779297-.7636719,3.4755859-2.1953125,4.7470703-4.2548828.8837891-1.4306641.9648438-2.4863281.3076172-4.03125-.5449219-1.2822266-1.390625-2.4091797-2.4453125-3.2597656-1.296875-1.046875-2.0927734-2.3691406-2.5039062-4.1601562-.1328125-.5761719-.3583984-1.1875-.6708984-1.8164062-.3896484-.78125-.7353516-1.6357422-1.0693359-2.4628906-.6318359-1.5625-1.2851562-3.1787109-2.3027344-4.5273438-.1269531-.1679688-.2392578-.4580078-.3476562-.7382812-.0595703-.15625-.1201172-.3125-.1855469-.4609375-.2587891-.5839844-.5107422-1.1728516-.7636719-1.7617188-.5595703-1.3027344-1.1376953-2.6503906-1.7705078-3.9345703-.3261719-.6611328-.6621094-1.3134766-.9980469-1.9658203-.8349609-1.6210938-1.6982422-3.2978516-2.3740234-5.078125-.3330078-.8798828-.7324219-1.7128906-1.1191406-2.5175781-.5048828-1.0537109-.9824219-2.0498047-1.3330078-3.1552734-.2363281-.7480469-.5966797-1.4023438-.9443359-2.0351562l-.1767578-.3222656c-.5136719-.9472656-1.0478516-1.875-1.5820312-2.8027344l-.3291016-.5722656c-.0849609-.1464844-.1660156-.2978516-.2470703-.4492188-.2421875-.4521484-.4931641-.9199219-.8369141-1.3125-.7275391-.8300781-1.1455078-1.9433594-1.5878906-3.1210938-.2353516-.625-.4765625-1.2675781-.7724609-1.8808594l.0800781-.1816406c.7099609-1.6035156,1.3808594-3.1181641,2.4648438-4.2333984.2285156-.234375.5410156-.5556641.6796875-1.0078125.296875-.9726562.8671875-1.6660156,1.4707031-2.3994141.2001953-.2431641.3994141-.4863281.6435547-.8085938,1.0634766-1.4072266,2.1640625-2.8623047,3.0517578-4.578125,1.2871094-2.4892578,2.8613281-5.3720703,4.7763672-7.8808594.5712891-.7480469.9453125-1.7412109,1.2753906-2.6171875.5517578-1.4609375,1.1904297-2.9726562,2.1152344-4.1279297.8974609-1.1240234,1.4580078-2.4775391,2-3.8818359l.1679688-.4423828c.3154297-.8349609.6425781-1.6982422,1.0732422-2.3544922.7148438-1.0878906,1.3027344-2.3505859,1.8515625-3.9765625.3916016-1.1640625.890625-2.5136719,1.6220703-3.6904297.2832031-.4580078.5087891-.9550781.7265625-1.4365234l.0869141-.1914062c.4521484-.9921875.8691406-2.0234375,1.2734375-3.0214844.7285156-1.7988281,1.4814453-3.6601562,2.46875-5.3349609.1396484-.2333984.3300781-.5527344.3671875-.9423828.0576172-.625.328125-1.1005859.6425781-1.6523438.1542969-.2714844.3076172-.5429688.4404297-.8320312l.1943359-.4238281c.4238281-.9179688.8613281-1.8681641,1.15625-2.9003906.2167969-.7539062.2958984-1.5507812.3730469-2.3222656.0283203-.2929688.0576172-.5849609.0947266-.8740234.2109375-1.6572266.0673828-2.7412109-1.2978516-3.7255859Z" stroke-width="0"/>
      <path d="m41.1788211,155.8991713c-.0537109-.3359375-.1152344-.7167969-.390625-1.0019531l-.1914062-.2021484c-.4560547-.484375-.9726562-1.0341797-1.6386719-1.2167969-.6103516-.1679688-1.2158203-.3681641-1.8212891-.5673828-1.6689453-.5498047-3.4199219-1.1279297-5.2382812-1.0576172-.6279297.0244141-1.3056641-.0527344-1.9902344-.2158203-.7089844-.1689453-1.4335938-.1738281-2.2841797-.0166016l-.5029297.0947266c-1.796875.3408203-3.4912109.6621094-5.2167969.4130859-.3847656-.0556641-.7490234-.0195312-1.0722656.015625l-.2871094.0263672c-2.1230469.1582031-4.0351562.2470703-5.921875-.265625-.8632812-.234375-1.7919922-.4511719-2.7441406-.4511719-.0224609-.0009766-.046875-.0009766-.0693359,0-1.8505859,0-3.6201172-.6044922-5.4912109-1.2431641-.6181641-.2119141-1.2363281-.421875-1.8574219-.6113281-.1054688-.0322266-.1699219-.0888672-.2099609-.1855469-.0625-.1533203-.0625-.4394531.1259766-.7841797.6103516-1.1181641,1.2060547-2.3427734,1.21875-3.9394531,0-.0429688.0039062-.0800781.0078125-.1064453.6445312-.859375.9707031-1.8867188,1.2861328-2.8818359.1787109-.5595703.3466797-1.0878906.5644531-1.5732422.3994141-.8916016.8144531-1.7714844,1.2294922-2.6523438,1.1210938-2.3808594,2.2802734-4.8427734,3.1347656-7.5039062.0585938-.1835938.1328125-.3398438.2041016-.4316406.6962891-.8935547,1.0556641-1.9736328,1.4033203-3.0175781.0908203-.2734375.1826172-.5488281.2792969-.8183594.2724609-.7519531.5986328-1.5.9140625-2.2236328l.2167969-.5c.171875-.3994141.3583984-.7900391.5449219-1.1816406.3857422-.8066406.7841797-1.6425781,1.0595703-2.5546875,1.0107422-3.3388672,2.4091797-6.3388672,3.7548828-9.125,1.2333984-2.5546875,2.4013672-5.15625,3.53125-7.6728516.2089844-.4658203.3642578-.9570312.5146484-1.4306641.0820312-.2587891.1640625-.5166016.2539062-.7675781.125-.3476562.2431641-.7001953.3623047-1.0537109.2900391-.8613281.5634766-1.6748047.9248047-2.4121094.5908203-1.2089844,1.2373047-2.4082031,1.8623047-3.5683594.4824219-.8955078.9648438-1.7919922,1.4306641-2.703125.1396484-.2734375.2851562-.5458984.4306641-.8193359.5605469-1.0537109,1.140625-2.1425781,1.4570312-3.3740234.4472656-1.7470703,1.2255859-3.1738281,2.0498047-4.6835938.21875-.3994141.4355469-.7978516.6474609-1.2021484.4931641-.9453125,1.0742188-1.8535156,1.6367188-2.7324219.4121094-.6435547.8232422-1.2871094,1.2109375-1.9541016.46875-.8066406.8535156-1.6904297,1.2255859-2.5439453l.0898438-.2080078c.90625-2.0820312.7236328-4.1689453-.5283203-6.0361328-.2558594-.3798828-.5654297-.6767578-.8398438-.9375l-.1728516-.1669922c-1.0800781-1.0546875-1.7900391-2.0742188-2.2363281-3.2089844-.4267578-1.0800781-1.0097656-1.9052734-1.7548828-2.8125-.0927734-.1132812-.1894531-.2226562-.2861328-.3320312-.1953125-.2207031-.3798828-.4296875-.5117188-.6552734-.5283203-.9042969-1.0654297-1.8027344-1.6015625-2.7001953-1.3720703-2.2978516-2.7910156-4.6738281-4.046875-7.1191406-.8085938-1.5742188-1.5996094-3.1650391-2.3916016-4.7558594-1.1923828-2.3974609-2.4257812-4.8769531-3.7050781-7.2646484-.1533203-.2861328-.2890625-.5908203-.4257812-.8945312-.2041016-.4541016-.4150391-.9248047-.6845703-1.3574219-1.4951172-2.3955078-2.765625-5.0068359-4.1533203-7.9257812l-.5898438-1.2509766c-.4716797-1.0078125-.9443359-2.0166016-1.4443359-2.9990234-.8789062-1.7285156-1.7783203-3.4394531-2.6767578-5.1503906l-.9384766-1.7871094c-.7441406-1.421875-1.5302734-2.4228516-3.3505859-3.3291016-.2871094-.1464844-.6357422-.0878906-.8642578.1396484-.2275391.2275391-.2851562.5751953-.1416016.8642578.0458984.0917969.0869141.1904297.1289062.2890625.1191406.28125.2548828.6015625.4873047.8642578.8085938.9199219,1.5351562,2.0849609,2.2861328,3.6660156.7841797,1.6523438,1.5888672,3.2861328,2.3935547,4.9199219.8271484,1.6787109,1.6542969,3.3574219,2.4580078,5.0556641.9619141,2.0322266,2.2568359,4.6875,3.7441406,7.2080078.5664062.9609375,1.0703125,2.0380859,1.5566406,3.0791016.1943359.4160156.3886719.8310547.5878906,1.2421875.140625.2890625.2705078.5869141.4013672.8847656.1708984.3886719.3427734.7773438.53125,1.1494141.3398438.6679688.6884766,1.3291016,1.0361328,1.9902344.3701172.7011719.7392578,1.4023438,1.0986328,2.1132812.4121094.8173828.8125,1.6474609,1.2128906,2.4765625.7705078,1.5966797,1.5673828,3.2470703,2.4501953,4.7910156,1.4921875,2.609375,3.2460938,5.6269531,5.1728516,8.4091797.4960938.7167969.9736328,1.4960938,1.4345703,2.2490234.9912109,1.6201172,2.0166016,3.2949219,3.3759766,4.6054688.4707031.4541016.5976562,1.1572266.3896484,2.1484375-.3046875,1.4365234-.9101562,2.8339844-1.8525391,4.2714844-2.3808594,3.6318359-4.0361328,6.8583984-5.2089844,10.15625-.3046875.8583984-.6962891,1.6640625-1.0742188,2.4082031-.7060547,1.3867188-1.4238281,2.7626953-2.1416016,4.1386719l-1.2382812,2.3818359c-.7060547,1.3642578-1.4277344,2.8417969-1.8232422,4.5898438-.2158203.9501953-.6015625,1.8554688-.9853516,2.6933594-.9042969,1.9726562-1.8330078,3.9267578-2.7626953,5.8798828l-1.1523438,2.4287109c-1.2939453,2.7275391-2.6318359,5.5478516-3.4169922,8.7314453-.0849609.3388672-.2216797.6884766-.3857422.9833984-1.2939453,2.3251953-2.2900391,4.8935547-3.2519531,7.3759766-.5039062,1.3007812-1.0253906,2.6455078-1.5800781,3.9277344-1.0283203,2.3769531-2.1455078,4.9248047-3.3515625,7.4550781-1.0390625,2.1796875-1.7871094,4.4892578-2.4628906,6.6679688-.5351562,1.7216797-1.0712891,3.2138672-2.2226562,4.0371094-.2783203.1992188-.3867188.5615234-.2626953.8808594.0332031.0869141.0585938.1757812.0839844.2587891.0849609.2861328.1806641.6113281.4755859.8310547,1.2714844.9462891,2.7705078,1.9931641,4.46875,2.4287109.7197266.1845703,1.4335938.3955078,2.1484375.6054688,1.9384766.5703125,3.9423828,1.1601562,6.0439453,1.2382812.5029297.0195312,1.0234375.1201172,1.5742188.2255859.7158203.1376953,1.4658203.28125,2.2333984.2587891,1.4853516-.0410156,2.9697266-.0742188,4.4550781-.1074219,1.4414062-.0322266,2.8828125-.0644531,4.3242188-.1035156.4814453-.0136719.9501953-.0927734,1.3916016-.2353516,1.1748047-.3769531,2.3994141-.2851562,3.4414062-.1425781l.3046875.0429688c.4443359.0634766.9023438.1279297,1.3789062.1328125,2.1318359.0185547,4.1933594.6650391,6.1298828,1.9228516.2519531.1621094.7255859.4697266,1.3378906.4697266.3134766,0,.6630859-.0810547,1.0380859-.3027344.2861328-.1689453.4267578-.5058594.3457031-.828125-.0205078-.0800781-.0332031-.1708984-.0478516-.2597656Z" stroke-width="0"/>
    </g>
  </g>
</svg>