<?xml version="1.0" encoding="UTF-8"?>
<svg id="Layer_2" data-name="Layer 2" xmlns="http://www.w3.org/2000/svg" viewBox="0 0 103.5660402 149.2197691">
  <g id="Layer_1-2" data-name="Layer 1">
    <g>
      <path d="m90.3911735,141.5420347c-.296875-.1699219-.5527344-.1523438-.7128906-.1064453-.65625.1816406-1.3056641.3935547-1.9550781.6064453l-.7646484.2480469c-.2246094.0712891-.4482422.1542969-.671875.2373047-.4580078.1699219-.890625.3300781-1.2919922.3671875-.4726562.0439453-.9472656.0566406-1.421875.0703125-.9990234.0273438-2.0332031.0556641-3.0800781.3515625-.0703125.0185547-.296875-.046875-.4326172-.0830078-.1357422-.0371094-.2724609-.0722656-.4052734-.0966797-.4042969-.0751953-.8076172-.1650391-1.2109375-.2558594-.9121094-.2041016-1.8544922-.4160156-2.8212891-.4521484-1.65625-.0654297-3.5800781-.0664062-5.4453125.6708984-.3867188.1533203-.8427734.2421875-1.3193359.2558594-1.4697266.0439453-2.8320312.5029297-4.1503906.9462891l-.5380859.1806641c-.90625.2998047-1.8642578.5244141-2.7900391.7412109l-.6494141.1533203c-.2167969.0517578-.4384766.0800781-.6601562.109375-.3173828.0419922-.6347656.0859375-.9453125.171875-1.7714844.4882812-3.6298828.6660156-5.6826172.5380859-.7441406-.0458984-1.4892578-.0488281-2.2089844-.0410156-1.3896484.0009766-2.7246094.0078125-4.0332031-.3125-.3984375-.0976562-.7832031-.0830078-1.1210938-.0654297l-.2685547.0097656c-5.0878906.0947266-9.7529297-.0761719-14.2783203-.5205078-1.2529297-.1240234-2.53125-.296875-3.7666016-.4638672l-1.140625-.1523438c-.4326172-.0576172-.8632812-.1230469-1.2949219-.1894531-.6962891-.1064453-1.3935547-.2128906-2.0927734-.2841797-.5673828-.0585938-1.1376953-.0888672-1.7080078-.1191406-.9746094-.0527344-1.8945312-.1015625-2.7949219-.2861328-1.2021484-.2470703-2.2978516-.3505859-3.3476562-.3066406-.5371094.0214844-1.0751953-.0058594-1.6455078-.0341797l-.2900391-.0136719c-3.515625-.1660156-6.6552734.0078125-9.5585938.5175781-.0117188-.1533203-.0195312-.3046875-.0107422-.4541016l.0888672-1.5107422c.2128906-3.5917969.4257812-7.1835938.6699219-10.7734375.1210938-1.7773438.2363281-3.8466797.0585938-5.9052734-.078125-.9179688-.1308594-1.8408203-.1826172-2.7636719-.0742188-1.3125-.1513672-2.6689453-.3056641-4.0009766-.2158203-1.8662109-.5537109-3.7304688-.8798828-5.5341797l-.2070312-1.1503906c-.1777344-1.0009766-.1455078-1.7578125.1054688-2.4560547.1875-.5234375.4003906-1.1162109.4931641-1.7392578.1611328-1.0791016.6611328-1.7158203,1.5722656-2.0058594.9990234-.3173828,1.6816406-.8535156,2.0859375-1.6376953,1.0527344-2.0429688,2.4755859-3.6367188,3.5976562-4.7958984.3183594-.3291016.5517578-.7119141.7783203-1.0820312.1035156-.1689453.2060547-.3388672.3173828-.4980469l.7539062-1.09375c1.3193359-1.9238281,2.6835938-3.9121094,4.2939453-5.5263672.546875-.5478516,1.0361328-1.1660156,1.5087891-1.7636719.3076172-.3896484.6162109-.7802734.9453125-1.1542969.3193359-.3632812.6816406-.7753906.9941406-.9042969.8798828-.3642578,1.5029297-1.0068359,2.1054688-1.6289062l.2734375-.2792969c.5888672-.5927734,1.1630859-1.2099609,1.7363281-1.8271484.9931641-1.0693359,2.0214844-2.1748047,3.0996094-3.1064453,1.5322266-1.3242188,2.9140625-2.8662109,4.2519531-4.3583984,1.1591797-1.2929688,2.3574219-2.6308594,3.6259766-3.7890625.5195312-.4746094,1.0048828-.9990234,1.4746094-1.5068359.6708984-.7246094,1.3046875-1.4101562,2.0087891-1.9365234.9013672-.6748047,1.6865234-1.4941406,2.4453125-2.2851562.7470703-.7802734,1.453125-1.5166016,2.2509766-2.1142578.6494141-.4863281,1.2216797-1.0800781,1.7753906-1.6542969.3583984-.3710938.7158203-.7431641,1.09375-1.0810547.9453125-.8476562,1.9013672-1.6787109,2.8574219-2.5107422,1.4511719-1.2626953,2.9511719-2.5683594,4.3955078-3.9140625,1.8720703-1.7451172,3.7324219-3.5771484,5.53125-5.3496094.8037109-.7919922,1.6074219-1.5839844,2.4150391-2.3701172l.7109375-.6855469c.4980469-.4765625.9951172-.9541016,1.4794922-1.4511719.828125-.8496094,1.390625-2.2138672.8632812-3.1757812-.6025391-1.1005859-1.5380859-1.6816406-2.5771484-1.5771484-.5683594.0546875-1.1591797.3671875-1.5419922.8144531-.3681641.4277344-.6865234.4755859-1.3662109.1982422-.2060547-.0839844-.4111328-.1806641-.6171875-.2763672-.5810547-.2714844-1.1816406-.5527344-1.8505859-.6367188l-1.6894531-.21875c-2.5917969-.3388672-5.2714844-.6904297-7.9316406-.7255859-.8798828-.0117188-1.7607422-.0205078-2.6425781-.0283203-1.3740234-.0136719-2.7480469-.0263672-4.1210938-.0527344l-1.1806641-.0253906c-1.2539062-.0292969-2.5507812-.0585938-3.8320312-.0380859l-.8339844.0136719c-2.6806641.0449219-5.453125.0898438-8.1826172.2539062-.7167969.0429688-1.4335938.1191406-2.1494141.1962891-1.5400391.1660156-2.9921875.3222656-4.4619141.1464844-.4980469-.0576172-1.0517578-.0146484-1.6513672.1279297-1.75.4160156-3.6425781.6357422-5.7871094.6699219-.8291016.0126953-1.6494141.1181641-2.4433594.2197266l-.6132812.0761719c-.0849609.0107422-.1455078.0078125-.1865234.0107422-.0087891-.0673828-.015625-.1904297.0058594-.3964844.1621094-1.5742188.390625-3.171875.6113281-4.7158203.3486328-2.4375.7089844-4.9580078.8271484-7.4941406.0019531-.0429688.0283203-.1347656.0517578-.2158203.0400391-.1376953.0771484-.2763672.0966797-.4208984.0693359-.5214844.1542969-1.0429688.2402344-1.5654297.2001953-1.2255859.4082031-2.4941406.4013672-3.7714844-.0097656-2.0830078.1816406-4.1875.3662109-6.2236328.09375-1.0302734.1875-2.0605469.2568359-3.0947266.1103516-1.6337891.1259766-3.2919922.140625-4.8955078.0048828-.5537109.0107422-1.1083984.0195312-1.6630859.0175781-1.203125-.65625-1.5683594-1.2246094-1.6630859-.1982422-.0341797-.3984375.015625-.5605469.1318359s-.2714844.2919922-.3027344.4892578c-.0371094.2275391-.0771484.4550781-.1171875.6826172-.0957031.5419922-.1943359,1.1025391-.2480469,1.6757812-.0810547.8417969-.1132812,1.6943359-.1445312,2.5185547l-.015625.4121094c-.0097656.2285156-.0019531.4609375.0058594.6933594.0107422.3212891.0214844.6259766-.0244141.8818359-.4638672,2.5898438-.8701172,5.1376953-.7470703,7.8232422.0117188.2675781-.0322266.5673828-.0800781.8857422-.0214844.1435547-.0419922.2880859-.0595703.4316406-.3378906,2.8632812-.6777344,5.7255859-1.0195312,8.5908203-.0126953.1132812-.0380859.2246094-.0761719.4003906-.5664062,2.6318359-.8203125,5.2509766-.9794922,7.2392578-.0263672.3300781-.0439453.6650391-.0625,1.0029297-.0820312,1.5097656-.1591797,2.9355469-.9833984,4.0927734-.1162109.1640625-.1621094.3681641-.1269531.5664062s.1494141.3740234.3164062.4882812l1.8798828,1.2822266c.1992188.1367188.4541016.1689453.6796875.0849609.2275391-.0820312.4003906-.2695312.4658203-.5029297.0351562-.125.0625-.2480469.0878906-.3652344.0273438-.1220703.0644531-.2900391.1025391-.3535156.0683594-.1142578.203125-.3378906.2890625-.4316406l.4042969-.09375c.8642578-.2041016,1.6796875-.3964844,2.4521484-.3486328,1.890625.1123047,3.7802734-.0654297,5.6064453-.2392578,1.7607422-.1660156,3.5839844-.3408203,5.3574219-.234375.6455078.0332031,1.2587891-.0595703,1.8544922-.1542969.3398438-.0527344.6796875-.1074219,1.0195312-.1318359l1.1142578-.0810547c1.5849609-.1181641,3.2236328-.2392578,4.8251953-.265625,1.5195312-.0253906,3.0732422.0097656,4.5771484.0449219.7910156.0185547,1.5830078.0371094,2.375.046875.3105469-.0009766.6376953-.0078125.9570312-.0185547.4023438-.0126953.8017578-.0283203,1.2050781-.0068359l1.328125.0732422c2.8271484.1542969,5.75.3144531,8.6181641.5341797.4873047.0371094.9755859.0654297,1.4638672.09375,2.3544922.1376953,4.578125.2666016,6.6708984,1.3632812.5009766.2617188.9472656.3847656,1.3466797.40625-.1621094.1552734-.3212891.3046875-.4794922.4492188-.3994141.3642578-.8134766.7099609-1.2275391,1.0556641-.7373047.6152344-1.4990234,1.2519531-2.1884766,2-1.4892578,1.6171875-3.1298828,3.0820312-4.7167969,4.4990234l-2.6357422,2.3496094c-2.4394531,2.1689453-4.9628906,4.4121094-7.3652344,6.7519531-.3603516.3505859-.7480469.6679688-1.1357422.9873047-1.0380859.8515625-2.109375,1.7314453-2.7871094,3.2060547-.7578125.0449219-1.2548828.5498047-1.6230469.9257812l-.1494141.1494141c-2.3056641,2.2587891-4.3720703,4.3154297-6.3183594,6.2880859-.9697266.9824219-1.9316406,1.9785156-2.8925781,2.9736328-1.2607422,1.3046875-2.5205078,2.6083984-3.7988281,3.8847656-1.7441406,1.7402344-3.2363281,3.1689453-4.8486328,4.4892578-1.1513672.9414062-2.1533203,2.1240234-3.1230469,3.2675781-.4658203.5478516-.9306641,1.0966797-1.4121094,1.6181641-1.5019531,1.6298828-2.8310547,3.4257812-3.9492188,5.3378906-.4824219.8232422-1.0292969,1.7568359-1.6787109,2.3486328-1.2519531,1.1386719-2.1591797,2.5537109-2.953125,3.9130859-.4443359.7607422-.8623047,1.1484375-1.4404297,1.3378906-1.703125.5605469-2.4521484,2.1113281-2.9140625,3.3994141-1.0419922,2.9091797-1.1894531,5.3554688-.4638672,7.7011719.0292969.0917969.0478516.1962891.0546875.2958984.0917969,1.4033203.2910156,2.8007812.484375,4.1523438.2822266,1.9824219.5751953,4.0322266.5136719,6.0683594-.0078125.296875-.0107422.5888672.046875.8857422.3330078,1.7314453.3134766,3.5742188-.0644531,5.9736328-.1035156.6621094-.1210938,1.3310547-.1367188,1.9775391l-.015625.5175781c-.0136719.4169922-.0175781.8349609-.0214844,1.2529297-.0058594.6191406-.0117188,1.2392578-.0527344,1.8544922-.0703125,1.046875-.1572266,2.0927734-.2431641,3.1376953-.0869141,1.0380859-.1728516,2.0761719-.2421875,3.1152344-.0712891,1.0507812-.1064453,2.2617188.3710938,3.3320312.0595703.1337891.1582031.2480469.2822266.3271484,1.1689453.7441406,2.25.5107422,3.0605469.2207031.4912109-.1748047,1.1318359-.3798828,1.7392578-.4150391.5107422-.0302734,1.0214844-.0693359,1.5322266-.1074219,2.0869141-.1591797,4.0585938-.3085938,6.0341797.1083984.265625.0556641.5439453.0664062.8349609.0351562,1.8320312-.1992188,3.6357422.015625,5.5478516.2441406,1.2041016.1435547,2.4501953.2929688,3.6972656.3261719.6123047.0166016,1.2392578.1513672,1.9023438.2949219.5117188.1103516,1.0410156.2246094,1.5830078.2861328,1.9296875.21875,3.8623047.3955078,5.7949219.5712891l2.0351562.1875c.8388672.0791016,1.7070312.1611328,2.5722656.1884766,1.1230469.0341797,2.2451172.0537109,3.3671875.0742188,1.265625.0224609,2.5302734.0449219,3.7958984.0888672,1.7207031.0576172,3.4414062.1308594,5.1621094.2041016,1.5371094.0654297,3.0732422.1308594,4.609375.1855469.0839844.0039062.1660156.0048828.2490234.0048828.5595703,0,1.1074219-.0634766,1.6601562-.1279297,1.2070312-.1396484,2.2958984-.2695312,3.4052734-.4501953.3613281-.0585938.7255859-.1064453,1.0917969-.1533203,1.0556641-.1376953,2.1464844-.2792969,3.1943359-.6914062,2.0693359-.8164062,4.2519531-1.3212891,6.3623047-1.8095703.6318359-.1455078,1.2636719-.2919922,1.8945312-.4462891,1.0498047-.2548828,2.1513672-.2705078,3.4658203-.0458984,1.5693359.2685547,3.1044922.5166016,4.6435547.6044922.6123047.0351562,1.2021484-.0361328,1.7744141-.1044922.5576172-.0664062,1.0820312-.1318359,1.5849609-.0908203,1.7255859.1318359,3.2001953-.5175781,4.6289062-1.1474609.484375-.2128906.9677734-.4257812,1.4570312-.6044922.3173828-.1142578.6015625-.3808594.7402344-.6962891.1474609-.3378906.2832031-.7363281.1748047-1.1318359-.0976562-.3662109-.4013672-.6503906-.6318359-.7822266Z" stroke-width="0"/>
      <path d="m103.2778923,26.0762144c.1865234-3.4970703-.1484375-7.1621094-1.0244141-11.2060547l-.0273438-.1230469c-.4482422-2.0693359-.8720703-4.0234375-.8017578-6.0820312.0234375-.7207031-.1289062-1.3457031-.4824219-1.96875-.9179688-1.6132812-2.3066406-2.4902344-4.0166016-2.5361328-1.3857422-.0292969-2.7753906.0585938-4.1220703.1484375l-.1357422.0097656c-.4082031.0273438-.8193359.0458984-1.2304688.0654297-1.2587891.0585938-2.5605469.1181641-3.8349609.4238281-1.96875.4716797-4.0214844.4833984-6.0068359.4941406-.5224609.0029297-1.0449219.0058594-1.5664062.0166016-2.5527344.0585938-5.2910156-.2861328-8.1171875-1.0117188-2.8476562-.7314453-5.6572266-1.03125-8.3544922-.8955078l-.7998047.0439453c-1.8564453.1054688-3.609375.2060547-5.3369141-.2646484-1.8271484-.4960938-3.3662109-.6425781-4.8457031-.4589844-.609375.0742188-1.3027344.0478516-2.1826172-.0859375-2.3310547-.3554688-4.6142578-.2607422-6.734375-.1064453-1.0585938.078125-1.9130859.09375-2.6914062.0439453l-.7460938-.0449219c-4.7119141-.2851562-9.5839844-.5800781-14.3701172-.9394531-1.1035156-.0830078-2.2333984-.2324219-3.3261719-.3769531-1.0517578-.1396484-2.1386719-.2841797-3.2197266-.3710938-.3291016-.0273438-.6582031-.0458984-.9882812-.0654297-1.2919922-.0732422-2.5126953-.1425781-3.6435547-.6962891-.4189453-.2109375-.8007812.0068359-.96875.1054688-.3271484.1289062-.5146484.5449219-.4599609.8916016.0117188.1953125.0332031.5605469.34375.8095703,1.3164062,1.0419922,2.6103516,1.5605469,3.8642578,1.4921875,1.1767578-.0449219,2.3447266.1269531,3.5732422.3115234.4863281.0742188.9726562.1474609,1.4599609.2060547l1.6708984.2099609c1.4101562.1796875,2.8691406.3652344,4.3144531.4931641,1.5947266.140625,3.1904297.2578125,4.7861328.3740234,1.8554688.1357422,3.7099609.2714844,5.5634766.4453125l.3095703.0283203c1.9794922.1875,4.0253906.3808594,6.0996094-.1025391.4160156-.0976562.8701172-.1083984,1.2792969-.0283203,1.8945312.3583984,3.796875.3476562,5.6328125.3417969l.8837891-.0029297c1.6328125.0009766,2.8671875.1210938,4.0019531.3896484,1.6630859.3955078,3.1630859.5605469,4.5654297.5019531,2.5664062-.1044922,4.5078125-.0859375,6.2988281.0595703,2.7675781.2265625,5.5136719.8476562,8.1699219,1.4472656,1.8183594.4101562,3.4648438.5019531,5.0371094.2832031.6962891-.0986328,1.3027344-.1337891,1.8574219-.1113281,1.8300781.0742188,3.7197266.1542969,5.6142578-.5615234.0361328-.0078125.1484375-.0019531.2216797.0019531.1240234.0078125.2460938.0087891.3642578.0039062.6875-.0419922,1.3740234-.0585938,2.0615234-.0761719,1.5693359-.0400391,3.1923828-.0820312,4.8144531-.4072266.7539062-.1523438,1.5107422-.0019531,2.0664062.3974609l.3378906,1.4189453c.2744141,1.1523438.5341797,2.2382812.7763672,3.3291016.6542969,2.9345703,1.0859375,6.0126953,1.3183594,9.4111328.1435547,2.1152344.1503906,3.8398438.0224609,5.4257812-.1337891,1.6328125-.1025391,3.1796875.0966797,4.7304688.3515625,2.7197266.1923828,5.0908203-.4853516,7.2490234-.5917969,1.8857422-.4765625,3.8144531-.2939453,5.7900391.0400391.4267578.2363281.7939453.5537109,1.0322266.2324219.1738281.5087891.2646484.7998047.2646484.0908203,0,.1826172-.0087891.2744141-.0263672.7529297-.1445312,1.2363281-.7460938,1.2294922-1.53125-.0019531-.2382812-.0439453-.4765625-.0898438-.7138672-.0205078-.1044922-.0419922-.2080078-.0546875-.3144531-.0947266-.7792969-.1894531-1.5585938-.2734375-2.3398438.1972656.0380859.4013672-.015625.5654297-.1328125.1640625-.1191406.2734375-.3007812.3017578-.5019531.0361328-.2626953.0771484-.5117188.1162109-.7529297.0869141-.5341797.1689453-1.0390625.1943359-1.5644531.0537109-1.1230469.0742188-2.3291016.0673828-3.9091797-.0009766-.2578125.0019531-.5185547.0048828-.7792969.0117188-.9003906.0234375-1.8310547-.1484375-2.7353516-.3066406-1.609375-.21875-3.265625-.1337891-4.8662109Z" stroke-width="0"/>
      <path d="m99.7798454,46.4092222c-.0546875.0234375-.1074219.0478516-.1591797.0664062-.2421875.0859375-.4306641.2373047-.5996094.3886719-.3955078.3574219-.7871094.7197266-1.1787109,1.0830078-.8037109.7421875-1.6347656,1.5107422-2.4736328,2.2089844-.7617188.6328125-1.4541016,1.359375-2.1230469,2.0615234-.8369141.8779297-1.6259766,1.7060547-2.5283203,2.3574219-1.4296875,1.0322266-2.5234375,2.1845703-3.3417969,3.5244141-.171875.28125-.4384766.53125-.7207031.7949219-.1220703.1132812-.2441406.2275391-.3613281.3457031-.8886719.8945312-1.7880859,1.7763672-2.6865234,2.6572266-1.9726562,1.9335938-4.0117188,3.9335938-5.9121094,6.0585938-2.7275391,3.0488281-5.78125,5.8505859-9.0751953,8.3271484-1.8154297,1.3632812-3.3671875,3.0585938-4.8681641,4.6982422-.3105469.3388672-.6220703.6787109-.9345703,1.015625-.9248047.9931641-1.7919922,2.0771484-2.6308594,3.125-.4863281.6074219-.9726562,1.2148438-1.4707031,1.8066406-.8095703.9609375-1.6630859,1.8955078-2.4648438,2.7636719-.6298828.6816406-1.2460938,1.3818359-1.8623047,2.0830078-1.9287109,2.1933594-3.9238281,4.4619141-6.2871094,6.0087891-.5419922.3554688-1.0039062.8310547-1.4121094,1.2509766-.4599609.4736328-.9140625.9580078-1.3681641,1.4423828-.7763672.828125-1.5791016,1.6845703-2.3974609,2.4619141-1.1230469,1.0673828-1.5771484,2.2294922-1.4716797,3.7695312.0166016.2470703.1552734.4697266.3691406.5957031l.9023438.5263672c.0424805.0244141.0898438.0209961.1342773.0366211l-1.1479492.0678711c-1.1533203.0664062-2.3066406.1337891-3.4599609.2138672l-.1298828.0087891c-.5927734.0449219-.8486328.0507812-1.1630859-.2578125-.359375-.3535156-.8310547-.5048828-1.2861328-.4082031-.3222656.0664062-.921875.3183594-1.3154297,1.2695312-.1123047.2714844-.0556641.5830078.1455078.7978516.0703125.0761719.1396484.1611328.2099609.2480469.2119141.2578125.4511719.5507812.7861328.7558594.9189453.5605469,1.9912109.7871094,3.1816406.6796875l.9296875-.0898438c.9189453-.0908203,1.8701172-.1845703,2.7939453-.2177734,1.7099609-.0615234,3.3056641-.2617188,4.8789062-.6132812,1.0195312-.2275391,2.1171875-.2792969,3.2382812-.3320312,1.0068359-.0478516,2.0146484-.0742188,3.0224609-.1005859,1.5654297-.0410156,3.1845703-.0839844,4.7832031-.2080078,5.7197266-.4472656,10.1220703-.5625,14.296875-.3769531,1.5439453.0683594,3.140625.1416016,4.7167969-.1142578,2.1396484-.3466797,4.3486328-.3515625,6.484375-.3564453.7285156-.0009766,1.4560547-.0029297,2.1835938-.0166016.2529297-.0048828.5068359-.0146484.7607422-.0234375,1.2246094-.046875,2.3847656-.0878906,3.4814453.3828125,2.09375.8994141,4.2373047,1.7460938,6.3095703,2.5644531l.3369141.1328125c.3808594.1503906.8242188.4560547.8662109,1.4873047.0429688,1.0859375.0878906,2.2089844.0039062,3.2851562-.1494141,1.9375-.3681641,3.90625-.5800781,5.8105469l-.0693359.625c-.2753906,2.4736328-.5712891,4.9433594-.8681641,7.4130859-.0478516.3886719-.1074219.7753906-.1679688,1.1630859-.1123047.7226562-.2285156,1.4707031-.2607422,2.2333984-.0751953,1.75-.34375,3.4248047-.6279297,5.1972656l-.1064453.6669922c-.2148438,1.3496094-.2958984,2.734375-.3740234,4.0732422-.0292969.5048828-.0595703,1.0097656-.0957031,1.5126953-.0244141.3476562.0322266.7265625.1552734,1.0380859.1601562.4023438.5888672,1.0849609,1.6621094,1.125.0195312.0009766.0390625.0019531.0576172.0019531.7304688,0,1.2958984-.5292969,1.4160156-1.3339844l.0693359-.4365234c.1376953-.8408203.2802734-1.7119141.0507812-2.6962891-.2128906-.9169922-.1708984-1.9423828.1318359-3.2265625.2451172-1.0371094.46875-2.1494141.4443359-3.2626953-.0253906-1.1474609.1503906-2.2373047.3369141-3.390625l.0830078-.5195312c.1015625-.6484375.2109375-1.2958984.3212891-1.9433594.4638672-2.7324219.9433594-5.5576172.7978516-8.4726562-.0107422-.2255859.0205078-.4765625.0830078-.6708984.4570312-1.4208984.5019531-2.8759766.5449219-4.2832031.0117188-.3876953.0244141-.7753906.0449219-1.1611328.0712891-1.3222656-.0859375-2.6826172-.4697266-4.0410156-.2460938-.8789062-.6542969-1.84375-1.8144531-2.34375-2.4111328-1.0400391-4.8613281-2.1367188-7.28125-3.2597656-1.6083984-.7460938-3.2128906-1.015625-4.9013672-.8212891l-.4921875.0595703c-.8046875.1005859-1.5644531.1943359-2.2578125.0673828-1.3222656-.2441406-2.7099609-.2285156-4.2431641.0439453-2.3935547.4306641-4.8740234.4042969-7.2734375.3720703-1.0576172-.0117188-2.1132812-.0244141-3.1708984-.0009766-.7832031.0175781-1.5683594.0205078-2.3535156.0224609-1.3203125.0048828-2.6865234.0097656-4.0390625.0859375-2.5410156.1445312-5.0820312.3076172-7.6230469.4697266l-2.5341797.1621094c-.6318359.0400391-1.265625.0556641-1.8994141.0712891-1.8378906.046875-3.7382812.0947266-5.6220703.7236328-.2167969.0722656-.4990234.0791016-.796875.0859375-.1357422.0029297-.2705078.0068359-.4033203.0146484l-.1669922.0097656c.1035156-.059082.1972656-.1401367.2646484-.2480469.1826172-.2900391.34375-.5625.4941406-.8183594.28125-.4765625.5244141-.8886719.796875-1.2197266.3320312-.4052734.6572266-.8203125.9824219-1.2363281,1.1289062-1.4433594,2.1943359-2.8066406,3.5712891-3.7402344.5097656-.3457031.9658203-.7646484,1.40625-1.1689453.2011719-.1835938.4013672-.3681641.6064453-.5439453.1455078-.1259766.3007812-.2412109.4550781-.3574219.3652344-.2734375.7783203-.5830078,1.1054688-1.0205078.7910156-1.0566406,1.6884766-1.9541016,2.6396484-2.9052734,1.1445312-1.1455078,2.328125-2.3291016,3.296875-3.8056641,1.4160156-1.2587891,2.6064453-2.7958984,3.7578125-4.2822266.9267578-1.1972656,1.8847656-2.4355469,2.9355469-3.4863281.3701172-.3691406.734375-.7460938,1.0986328-1.1240234.9169922-.9482422,1.8652344-1.9287109,2.8691406-2.7480469.5546875-.4521484,1.1103516-.9003906,1.6660156-1.3486328,1.2148438-.9804688,2.4296875-1.9599609,3.6240234-2.9755859,1.0605469-.9033203,2.1816406-1.9384766,3.5283203-3.2587891.6640625-.6503906,1.3095703-1.3261719,1.9560547-2.0019531.5117188-.5361328,1.0244141-1.0712891,1.5458984-1.5947266.2099609-.2099609.4267578-.4111328.6425781-.6123047.7060547-.6542969,1.4355469-1.3310547,1.9736328-2.3232422.0429688-.0791016.1279297-.1728516.2539062-.2792969,2.2021484-1.8769531,4.3164062-3.7705078,5.9824219-6.3037109.0820312-.125.2392578-.25.40625-.3828125.0810547-.0644531.1630859-.1289062.2392578-.1953125.296875-.2548828.5957031-.5058594.8945312-.7568359l.7314453-.6162109c.9550781-.8144531,1.8701172-1.7060547,2.7548828-2.5683594,1.2412109-1.2099609,2.5244141-2.4609375,3.8955078-3.4667969.4169922-.3056641.7568359-.6894531,1.0849609-1.0595703l.2460938-.2753906c.6630859-.7255859.9755859-1.8554688.3535156-2.4873047-.6669922-.6816406-1.4267578-.3496094-1.7509766-.2099609Z" stroke-width="0"/>
    </g>
  </g>
</svg>