<?xml version="1.0" encoding="UTF-8"?>
<svg id="b" data-name="Layer 2" xmlns="http://www.w3.org/2000/svg" width="168.456" height="343.233" viewBox="0 0 168.456 343.233">
  <g id="c" data-name="Layer 1">
    <g>
      <path d="m69.363,37.435l-.003-.051c-.022-.336-.044-.685-.095-1.014-.069-.445-.159-.894-.251-1.353-.125-.611-.253-1.241-.324-1.881-.155-1.419-.424-2.793-.639-3.831-.206-.994-.444-2.001-.675-2.973-.163-.687-.323-1.364-.475-2.041l-.019-.086c-.339-1.522-.724-3.249-1.057-4.968-.102-.52-.173-1.062-.238-1.541-.102-.763-.208-1.551-.418-2.288-.754-2.639-1.758-4.805-3.068-6.622l-.853-1.177c-.719-.99-1.42-1.958-2.087-2.921-.66-.953-1.517-1.736-2.546-2.327-.709-.406-1.485-.581-2.306-.767-.221-.048-.428-.095-.632-.147-.972-.238-1.856-.038-2.683.184-2.675.715-4.653,2.616-5.88,5.644-.753,1.861-1.198,3.877-1.627,5.826l-.027.121c-.073.328-.145.658-.219.986-.217.96-.418,1.924-.62,2.887l-.03.143c-.217,1.034-.44,2.102-.682,3.148-.368,1.588-.648,3.174-.955,5.065-.042.261-.065.535-.083.795-.03.35-.056.687-.125,1.021-.187.912-.359,1.891-.348,2.885.005.549-.003,1.099-.011,1.649-.022,1.36-.043,2.766.161,4.145.048.329.082.66.114.994.062.605.122,1.218.284,1.799.223.806.371,1.707.44,2.676.09,1.255.331,2.474.57,3.616.082.389.128.792.169,1.147l.011.086c.017.151.036.305.058.464l.112.819-.652-.506c-.118-.09-.227-.171-.332-.247-.229-.169-.417-.308-.594-.477-1.146-1.085-2.5-1.887-4.026-2.382l-.23-.075c-.343-.116-.697-.234-1.029-.256-1.906-.125-3.534.016-4.985.424-1.322.368-2.704.836-3.866,1.767-.889.713-1.912,1.588-2.765,2.683-1.107,1.421-2.519,3.324-3.622,5.447-.172.328-.334.664-.495.998-.276.577-.562,1.171-.9,1.735-.671,1.119-1.249,2.396-1.875,4.143-.986,2.756-1.518,5.636-2.064,8.846-.091.541-.207,1.084-.319,1.61l-.015.071c-.073.338-.144.676-.21,1.014-.065.327-.128.656-.19.984l-.07.367c-.137.726-.276,1.451-.426,2.173-.187.905-.315,1.83-.428,2.7-.036.292-.079.582-.124.875-.132.894-.266,1.793-.245,2.679.026,1.036.016,2.086.008,3.103v.083c-.02,1.861-.039,3.786.155,5.678.149,1.458.175,2.936.199,4.367l.004.217c.011.57.022,1.14.04,1.711.003.042,0,.091-.003.143-.004.062-.004.083-.003.091.256.709.261,1.438.266,2.142.004.469.008.953.09,1.409.133.754.139,1.528.144,2.277.004.539.008,1.148.07,1.728.091.851.083,1.731.075,2.507-.008.997-.016,2.009.145,2.984.071.436.085.874.097,1.299.009.402.022.847.091,1.268.11.654.133,1.326.155,1.976.012.363.024.711.048,1.056.117,1.63.152,3.318.184,4.806.019.859.038,1.713.069,2.566.024.685.077,1.384.128,2.059l.023.307c.019.245.038.491.054.737.2.814.282,1.603.36,2.368.059.57.118,1.139.225,1.685.098.515.153,1.041.206,1.551.061.607.122,1.222.26,1.805.061.261.087.516.113.764.027.276.051.491.101.705.229.964.429,1.834.553,2.713.081.576.188,1.158.292,1.723l.016.09c.116.625.261,1.405.356,2.162.165,1.329.476,2.655.777,3.938.069.292.137.586.203.88.104.451.2.905.296,1.36.254,1.193.516,2.427.908,3.608l.198.6c.442,1.353.897,2.741,1.561,4.044l.235.463-.519.028c-.464.022-.929.017-1.377.015l-.238-.003c-.958-.007-1.872-.016-2.777.207-.222.055-.444.097-.668.139-.338.063-.651.122-.952.225-1.105.373-2.144.986-3.148,1.579-.245.144-.487.288-.729.428-.375.215-.745.444-1.114.671-.948.582-1.924,1.183-2.999,1.59-.605.227-1.222.558-1.72.824-.257.137-.514.273-.773.402-.804.405-1.352,1.011-1.674,1.853-.125.325-.262.647-.398.968l-.082.192c-.124.293-.249.585-.363.881-.108.282-.219.562-.331.843l-.07.173c-.625,1.564-1.264,3.163-1.487,4.898-.203,1.586-.157,3.154.139,4.793.32,1.781.897,3.494,1.473,5.081.641,1.77.994,3.623,1.3,5.369.069.39.12.783.172,1.177l.011.081c.063.49.134,1.044.239,1.563.308,1.514.909,2.476,1.888,3.023,1.026.574,2.228.802,3.484.652.641-.074,1.279-.114,1.82-.144.28-.016.562-.003.814.005.417.016.803.031,1.166-.05.888-.203,1.768-.191,2.621-.172h.054c.518.011,1.054.023,1.569-.016l.323-.024.039.32c.032.245.066.483.1.715l.007.05c.071.496.137.967.168,1.447.032.499.034,1.003.035,1.491v.061c.001.827.003,1.682.149,2.508.066.377-.062.748-.187,1.105-.059.173-.108.313-.139.449l-.081.351c-.215.91-.437,1.853-.375,2.807.023.354.016.709.009,1.052l-.005.284c-.009.691.156,1.354.488,1.969.163.3.374.582.58.855.098.132.198.265.293.402l.055.077.005.094c.023.303.043.609.062.916.044.683.09,1.381.163,2.059.043.395.109.797.172,1.187.089.535.16.986.203,1.443.04.425.059.87.075,1.228.023.526.046,1.042.11,1.549.106.861.13,1.742.152,2.596.012.452.023.878.044,1.303.089,1.746.083,3.554.078,5.151v.046c-.005,1.961-.011,3.989.132,5.975.09,1.259.077,2.538.063,3.775v.047c-.017,1.553-.035,3.159.155,4.723.058.479.067.964.077,1.432v.046c.012.568.023,1.154.12,1.728.086.507.098,1.021.11,1.517v.044c.012.444.023.901.085,1.342.212,1.501.239,3.042.238,4.352-.001,1.935.007,3.869.016,5.803v.1c.026,5.806.052,11.809-.239,17.713-.02.405-.051.807-.082,1.21l-.004.062c-.046.6-.093,1.221-.1,1.828.003.058.007.14-.028.229-.203.503-.203,1.044-.203,1.616,0,.496,0,1.009-.133,1.526-.122.471-.136.983-.151,1.526-.009.354-.019.666-.05.98-.187,1.885-.222,3.802-.231,5.261-.019,3.221-.016,6.501-.013,9.672l.003,4.722c-.001,2.328-.003,4.711.374,7.028.113.694.208,1.396.304,2.095l.117.855c.295,2.103.836,4.164,1.329,5.901.839,2.968,1.58,5.42,2.332,7.715.523,1.598,1.136,2.804,1.93,3.795,1.189,1.483,2.73,2.542,4.583,3.147.862.28,1.721.572,2.579.862l.217.073c1.003.339,2.033.687,3.054,1.011.925.295,1.872.577,2.787.847l.069.02c.966.288,1.965.584,2.941.897,1.736.559,3.525.956,5.065,1.286.913.196,1.825.406,2.735.615l.754.173c.512.117,1.023.241,1.534.364l.16.038c1.087.261,2.212.53,3.323.746.695.137,1.424.215,2.068.285.394.043.787.086,1.179.14,1.204.165,2.429.204,3.79.235,1.38.027,2.765.017,4.302.005l.74-.007c.347-.001.675-.003,1.006-.137.502-.207,1.046-.238,1.572-.268l.112-.007c.399-.024.804-.026,1.196-.027.756-.003,1.534-.005,2.278-.171.329-.073.654-.061.968-.047h.05c.191.011.377.013.568.012.114,0,.229.005.343.011.35.012.625.023.824-.073.432-.21.8-.108,1.096-.023l.065.019c.12.035.227.07.315.054.082-.005.153,0,.222.008.019.003.044.005.066.007.42-.265.866-.241,1.228-.223.13.009.208,0,.327.012.66-.009,1.346-.008,2.025-.007h.406c1.228.004,2.293.003,3.259-.011.223-.004.448-.007.671-.008.894-.008,1.813-.016,2.715-.143.515-.073,1.04-.126,1.548-.18.785-.081,1.561-.161,2.313-.297.424-.078.866-.113,1.221-.141.35-.028.672-.055.979-.102.484-.074.968-.165,1.451-.257.71-.134,1.513-.286,2.297-.367.841-.086,1.681-.28,2.495-.467.429-.1.853-.196,1.279-.281.75-.147,1.501-.347,2.226-.541.605-.161,1.208-.323,1.809-.456,1.43-.316,2.945-.611,4.507-.875,1.583-.269,3.043-.904,4.139-1.427,2.224-1.058,4.359-2.407,6.424-3.713l.445-.28c.377-.238.754-.476,1.132-.711,1.463-.909,3.39-2.766,4.209-4.057,1.647-2.602,2.823-5.461,3.494-8.498.07-.313.139-.628.206-.944.32-1.494.651-3.035,1.213-4.494.128-.334.242-.672.356-1.013l.026-.075c.098-.297.196-.594.305-.889.192-.52.284-1.06.379-1.631l.044-.265c.3-1.764.784-3.651,1.521-5.94.394-1.221.67-2.586.82-4.06.082-.814.125-1.65.167-2.458.017-.363.036-.718.058-1.075v-.046c-.003-.069-.005-.164.03-.264.18-.485.179-1.003.178-1.551-.001-.549-.003-1.115.179-1.674-.007-1.135.101-2.255.206-3.338l.004-.051c.061-.633.122-1.29.16-1.933.11-1.93.192-3.432.258-4.949l.026-.631c.036-.948.077-2.024.214-3.051l.081-.605c.13-.956.261-1.914.296-2.863.004-.134.005-.27.005-.407,0-.449,0-.912.167-1.397.097-.28.093-.685-.008-.943-.241-.613-.178-1.204-.117-1.775.05-.453.097-.878-.017-1.282l-.039-.143.074-.124c.161-.266.145-.584.129-.921-.008-.175-.015-.346-.004-.516.058-.919.106-1.836.155-2.754l.07-1.335c-.001-.054-.003-.121.023-.196.175-.52.178-1.07.18-1.653.001-.594.003-1.198.186-1.794.001-1.844.132-3.77.401-5.89.085-.659.125-1.343.164-2.005l.003-.059c.017-.305.036-.611.058-.917.003-.024,0-.047-.003-.069-.007-.117-.015-.278.083-.421.118-.176.114-.397.109-.654-.003-.141-.005-.299.013-.456.023-.183.054-.364.085-.545l.019-.11c.034-.199.067-.397.089-.598.027-.26.042-.523.058-.785l.004-.079c.032-.569.067-1.157.194-1.729.061-.265.077-.551.091-.804.016-.276.034-.589.105-.894.161-.68.239-1.392.315-2.079l.055-.504c.02-.172.035-.346.048-.518l.005-.078c.036-.446.073-.909.188-1.356.249-.963.373-1.976.491-2.953.079-.658.157-1.304.268-1.939.12-.689.149-1.413.179-2.114.012-.319.026-.639.047-.958.004-.047,0-.097-.004-.147-.008-.168-.016-.358.079-.531.136-.237.128-.503.118-.811-.005-.169-.011-.358.009-.546.024-.219.055-.437.085-.655.046-.329.086-.625.114-.924.027-.296.04-.594.052-.893.027-.612.052-1.232.203-1.822.137-.535.136-1.109.134-1.665-.001-.666-.003-1.354.219-2.035.012-.508.02-1.018.028-1.528l.004-.262c.017-1.309.035-2.661.137-4.018.175-2.333.059-4.581-.342-6.676-.13-.685-.206-1.38-.278-2.051l-.012-.112c-.046-.41-.091-.822-.151-1.229-.036-.247-.094-.496-.16-.773-.086-.356-.173-.724-.204-1.107-.038-.445-.145-.892-.249-1.322-.067-.276-.13-.543-.182-.815-.098-.526-.178-1.06-.258-1.607-.109-.737-.222-1.501-.39-2.242-.394-1.728-.576-3.156-.572-4.496.001-.5-.079-.979-.165-1.487-.067-.39-.133-.784-.163-1.189l-.027-.362h.364c.091,0,.183-.003.273-.004l.087-.003c.282-.007.541-.013.799.012,1.214.094,2.46-.078,3.659-.249l.192-.027c.701-.1,1.412-.262,2.101-.418l.101-.023c.581-.133,1.182-.27,1.782-.371.354-.059.706-.112,1.06-.165.878-.132,1.777-.266,2.632-.5,1.572-.429,3.099-.88,4.497-1.666.761-.425,1.525-.845,2.29-1.263.892-.488,1.783-.978,2.668-1.477.251-.143.514-.363.78-.658.476-.529,1.061-.917,1.899-1.259l.25-.102c.999-.409,2.015-.823,2.717-1.45,1.007-1.391.987-2.94.966-4.579-.004-.241-.007-.481-.007-.722-.569-.949-1.341-1.805-2.297-2.542-1.209-.928-2.629-1.577-4.223-1.927l-.538-.124c-.589-.137-1.178-.276-1.766-.324-.383-.034-.757-.125-1.088-.207-.332-.079-.655-.157-.963-.187-.82-.077-1.602-.243-2.32-.495-1.282-.448-2.262-1.374-2.838-2.68-.338-.768-.436-1.676-.484-2.382-.085-1.237-.526-2.339-1.349-3.369-.889-1.112-1.783-1.935-2.737-2.519-.601-.367-1.138-.709-1.639-1.042-.148-.1-.3-.194-.452-.288-.594-.37-1.209-.752-1.641-1.4-.382-.572-.725-1.182-1.027-1.721l-.085-.153c-.144-.253-.286-.507-.433-.756l-.266-.453c-.311-.535-.629-1.081-.976-1.586-.231-.339-.484-.668-.767-1.033-.295-.379-.627-.808-.919-1.255-.698-1.068-1.65-1.937-2.995-2.734-2.04-1.205-3.717-2.145-5.28-2.957-.658-.343-1.307-.652-2.023-.671-.234-.004-.429-.134-.585-.241-.061-.042-.104-.071-.148-.094l-.226-.122.052-.247c.039-.176.071-.339.101-.498.067-.339.128-.65.222-.953.672-2.189.919-4.504,1.097-6.501.104-1.163.23-2.515.421-3.841.066-.452.112-.906.161-1.409.071-.725.145-1.473.296-2.204.051-.249.065-.518.077-.757.02-.358.04-.719.151-1.072.117-.373.149-.758.183-1.167.031-.373.062-.745.155-1.122.161-.66.273-1.354.371-1.966l.023-.14c.054-.332.109-.664.171-.995.285-1.522.578-3.046.881-4.564.105-.519.218-1.036.331-1.551.083-.377.165-.753.245-1.13.141-.678.28-1.358.418-2.037l.43-2.094c.087-.428.18-.855.274-1.283l.055-.25c.237-1.08.483-2.195.658-3.303.082-.52.19-1.053.286-1.522.153-.754.312-1.536.386-2.317.011-.13.022-.264.031-.395.035-.461.07-.92.192-1.353.198-.706.276-1.473.346-2.149.047-.46.1-.98.191-1.49.125-.689.155-1.416.184-2.118.013-.319.027-.636.048-.951.003-.022.001-.042,0-.061-.007-.114-.015-.249.048-.385.151-.316.148-.656.145-1.049-.001-.176-.003-.354.009-.529.02-.288.056-.577.093-.865.039-.308.078-.625.095-.935.019-.344.035-.689.05-1.033l.005-.097c.03-.654.062-1.327.114-1.994.113-1.432.137-2.92.159-4.231l.005-.27c.009-.549.02-1.097.036-1.646.062-2.142-.004-4.31-.069-6.407-.028-.939-.056-1.865-.074-2.793l-.007-.195c-.008-.249-.017-.491.026-.738.157-.917.214-1.859.268-2.77.031-.526.062-1.053.113-1.577.019-.207.035-.416.051-.623.042-.55.083-1.103.184-1.643.187-.999.312-2.051.374-3.125.003-.048,0-.1-.004-.152-.007-.156-.016-.343.067-.515.169-.354.175-.752.182-1.174.005-.395.011-.796.137-1.204.11-.362.126-.769.144-1.201.015-.382.031-.81.125-1.212.067-.288.082-.596.097-.893.016-.346.031-.686.116-1.025.175-.713.262-1.465.346-2.192.059-.502.116-.982.194-1.452.184-1.089.278-2.21.368-3.294l.024-.284c.085-.984.141-1.997.195-2.976l.031-.559c.034-.598.026-1.217.017-1.814v-.043c-.011-.659-.016-1.252.015-1.845.054-1.045-.043-2.101-.136-3.121-.046-.492-.09-.983-.12-1.475-.039-.658-.105-1.249-.195-1.762-.222-1.279-.487-2.516-.788-3.678-.535-2.07-1.091-3.755-2.056-5.245-1.228-1.892-2.835-3.202-4.777-3.895-.254-.09-.51-.184-.764-.277-.802-.292-1.711-.624-2.6-.869-1.218-.336-2.318-.621-3.437-.699-1.022-.073-2.232-.114-3.432.13-1.213.246-2.201.578-3.112,1.049-.607.312-1.19.648-1.809,1.005l-.295.171c-.212.122-.428.247-.646.37l-.445.253-.058-.51c-.022-.195-.047-.389-.071-.58l-.013-.095c-.065-.491-.13-.988-.143-1.483-.012-.488-.012-.979-.011-1.469.004-1.205.008-2.45-.208-3.657l-.054-.309c-.161-.929-.328-1.888-.812-2.688-1.076-1.782-2.495-3.33-4.338-4.731-.924-.702-2.028-1.286-3.378-1.785-1.358-.502-2.82-.964-4.324-.964-.036,0-.073.001-.109.001l-.282.007c-.672.012-1.307.023-1.958.163-.173.036-.347.071-.52.105l-.172.035c-.477.091-1.018.196-1.516.343-1.642.48-3.205,1.387-4.645,2.695-1.247,1.134-2.266,2.583-3.115,4.429-.792,1.727-1.643,3.65-2.679,6.056-.488,1.135-.885,2.084-1.197,3.094-.855,2.776-1.725,5.764-2.289,8.805-.183.994-.416,1.993-.641,2.96l-.02.09c-.221.937-.495,2.105-.694,3.222-.121.671-.25,1.341-.381,2.011l-.032.168c-.242,1.259-.494,2.559-.674,3.85-.153,1.099-.389,2.208-.596,3.187-.218,1.037-.465,2.211-.616,3.353-.13,1.001-.324,2.024-.495,2.926-.1.522-.198,1.042-.288,1.567-.085.492-.153,1.015-.203,1.555-.031.347-.054.697-.077,1.044l-.004.056c-.036.557-.074,1.132-.153,1.697l-.1.683c-.133.906-.27,1.845-.289,2.773-.001.145-.02.292-.04.437-.039.295-.078.559-.116.824l-.007.046c-.093.632-.175,1.201-.231,1.779-.038.409-.059.831-.079,1.239-.03.619-.063,1.321-.175,1.997-.046.276-.062.568-.077.823-.02.346-.042.738-.129,1.109-.106.448-.159.928-.206,1.35l-.005.048c-.042.362-.085.737-.156,1.108-.097.496-.187.995-.284,1.536l-.49,2.717-.371-1.596c-.058-.25-.114-.485-.168-.71l-.031-.13c-.139-.577-.25-1.041-.343-1.52-.077-.391-.139-.785-.2-1.181l-.011-.062c-.065-.414-.132-.842-.218-1.253-.089-.418-.145-.845-.2-1.257l-.009-.069c-.066-.503-.128-.955-.225-1.388-.284-1.255-.496-2.542-.703-3.786-.139-.836-.29-1.762-.467-2.663-.371-1.914-.753-3.581-1.167-5.097-.461-1.684-.966-3.384-1.455-5.028l-.069-.234c-.237-.795-.472-1.59-.705-2.386-.301-1.04-.465-2.117-.623-3.159-.082-.543-.167-1.103-.27-1.646-.082-.429-.112-.866-.14-1.288Zm-48.035,103.189c-.12-.683-.26-1.373-.391-2.02h0s-.032-.157-.032-.157c-.117-.584-.235-1.167-.34-1.752-.097-.549-.18-1.101-.262-1.653-.113-.763-.238-1.603-.409-2.41-.108-.51-.171-1.026-.233-1.525l.164-.071-.171.022c-.075-.616-.155-1.253-.317-1.855-.105-.393-.122-.8-.139-1.158l-.003-.044c-.012-.246-.024-.5-.063-.74-.104-.639-.126-1.295-.147-1.872-.022-.569-.043-1.135-.121-1.672-.102-.701-.112-1.427-.121-2.066-.011-.64-.022-1.294-.109-1.916-.094-.662-.109-1.318-.124-1.954-.009-.425-.017-.807-.042-1.19-.026-.387-.066-.775-.109-1.161-.032-.297-.063-.576-.087-.854-.019-.242-.012-.477-.005-.706.015-.43.027-.835-.147-1.2-.058-.122-.051-.245-.047-.311l-.052-1.249c-.054-1.213-.108-2.427-.159-3.642l-.059-1.353c-.051-1.122-.109-2.394-.133-3.619-.013-.615-.001-1.233.012-1.867v-.047c.02-1.014.042-2.062-.065-3.068-.118-1.122-.11-2.249-.102-3.338.008-1.073.016-2.184-.1-3.26-.176-1.631-.163-3.269-.149-4.854v-.087c.007-.841.013-1.711-.009-2.563-.03-1.033.085-2.062.196-3.058l.011-.091c.058-.519.118-1.056.155-1.58.061-.862.208-1.711.352-2.532.139-.784.273-1.555.336-2.32.067-.804.237-1.599.401-2.368.136-.643.27-1.282.347-1.907.179-1.442.394-2.75.658-4.002.55-2.605,1.478-5.112,2.758-7.45l.056-.108c.738-1.348,1.486-2.713,2.312-4.005,1.061-1.662,2.422-3.027,3.49-4.029.75-.703,1.701-.992,2.622-1.272l.316-.098c.841-.262,1.693-.476,2.536-.637.585-.113,1.205-.058,1.951.175,1.169.36,2.043.862,2.752,1.575,1.426,1.428,2.548,3.236,3.534,5.689.939,2.341,1.813,4.802,2.671,7.524.506,1.61.877,3.279,1.235,4.894l.141.633c.483,2.165.882,4.42,1.251,6.545l.159.902c.161.906.327,1.834.456,2.758.083.588.169,1.175.257,1.764l.075.507c.09.605.18,1.213.268,1.818.066.455.171.925.265,1.342.113.508.229,1.03.296,1.559.086.699.225,1.751.437,2.807.079.386.14.783.199,1.166.066.442.134.897.227,1.33.278,1.311.585,2.618.928,4.069l.078.332c.328,1.397.683,2.894,1.054,4.383.163.656.331,1.311.498,1.966l.095.374c.27,1.053.539,2.103.795,3.16l.178.728c.359,1.467.73,2.984,1.022,4.511.26,1.356.609,2.715.948,4.03l.015.059c.292,1.131.593,2.3.834,3.467.083.402.172.804.262,1.206l.009.043c.256,1.153.519,2.344.641,3.558.058.566.186,1.143.309,1.701.085.375.175.777.242,1.17.073.424.118.849.167,1.322.024.235.05.471.079.706.015.117.026.234.036.352l.007.077c.032.35.062.678.16.968.132.383.149.773.165,1.116.02.385.038.737.179,1.048.063.133.061.274.059.367v.075c.023.329.036.662.05.995.03.74.059,1.481.18,2.18.087.506.147,1.017.2,1.469.081.682.173,1.454.348,2.176.116.476.148.966.18,1.439.017.277.035.554.07.826.067.508.149,1.015.23,1.522l.032.192c.031.192.063.386.093.58.023.152.04.305.048.459.061,1.027.151,2.129.391,3.224.016.075.016.144.016.198l-.172.081h0l.172-.011c.019.323.031.647.042.971l.005.137c.03.85.061,1.703.184,2.512.086.568.098,1.15.11,1.664.013.55.026,1.054.104,1.552.102.668.126,1.322.149,1.954.009.254.019.506.032.758.017.303.055.613.093.912.036.297.074.593.093.89.009.144.011.288.012.433v.052c.001.391.003.761.153,1.092.051.109.046.219.043.292l-.003.058c.022.619.047,1.243.074,1.868l.004.082c.054,1.31.11,2.665.117,4,.026,4.728.027,9.897.004,15.8-.003,1.077-.125,2.208-.373,3.458-.03.151-.027.323-.024.506v.991c-.004.893-.007,1.785.007,2.676.004.147.032.301.069.487.026.143.052.284.067.424.023.214.032.428.044.725l.059,1.201-2.477-1.686c-1.65-1.122-3.21-2.18-4.774-3.277-.647-.455-1.216-.98-1.84-1.572-.327-.311-.627-.636-.958-.999l-.054-.059c-.172-.188-.346-.377-.523-.559-2.344-2.422-4.16-5.147-5.394-8.101-.136-.324-.301-.651-.448-.939-.194-.381-.386-.761-.541-1.163-.651-1.701-1.77-3.049-2.777-4.141-1.167-1.267-2.285-2.528-3.132-4.039-.044-.081-.09-.159-.139-.238l-.03-.05c-.087-.151-.178-.305-.253-.473-.477-1.061-1.292-1.797-2.489-2.246-.964-.362-2.035-.733-3.373-1.167-2.234-.725-4.464-1.733-6.629-3-.551-.323-1.122-.601-1.725-.896-.304-.148-.596-.292-.892-.441l-.28-.143.452-1.076c0-.264.007-.531.013-.797.015-.648.03-1.299-.032-1.92-.023-.226-.042-.455-.062-.682-.061-.718-.121-1.434-.282-2.122-.085-.366-.12-.754-.147-1.068-.022-.219-.04-.434-.073-.647-.219-1.474-.518-2.952-.806-4.34-.169-.819-.289-1.657-.394-2.395l-.016-.112c-.075-.529-.152-1.057-.245-1.583Zm-1.994,48.967c-.456.009-.92,0-1.38-.009h-.051c-.831-.015-1.692-.028-2.516.058-.843.087-1.682.112-2.493.134-.64.017-1.365.038-2.062.095-.215.017-.434.044-.652.073-.377.047-.765.097-1.166.1-.247.004-.494.005-.753.003h-1.317s-.077-.233-.077-.233c-.04-.118-.085-.239-.129-.362-.116-.317-.222-.612-.288-.927-.499-2.387-1.231-4.835-2.235-7.481-.387-1.018-.674-2.102-.875-3.312-.227-1.361-.182-2.731-.141-3.939.024-.803.235-1.587.487-2.454.282-.964.611-1.928.928-2.862l.285-.835c.078-.231.167-.46.257-.687.148-.378.301-.769.391-1.162.145-.636.494-1.077,1.097-1.387.455-.234.908-.472,1.361-.713.572-.304,1.221-.648,1.868-.97.549-.272,1.044-.676,1.522-1.068.297-.242.596-.488.913-.709,1.247-.873,2.636-1.216,3.95-1.458.839-.153,1.67-.173,2.474-.192l.49-.012c1.899-.054,3.723.422,5.44,1.42.226.132.449.265.674.399l.095.058c.628.378,1.278.767,1.935,1.089,1.237.608,2.593,1.155,4.03,1.629l.608.198c1.162.379,2.339.761,3.45,1.323.648.328,1.101.749,1.469,1.361.885,1.482,1.927,2.905,3.187,4.348,1.095,1.252,1.98,2.734,2.632,4.403,1.134,2.902,2.3,5.152,3.669,7.083.625.88,1.288,1.736,1.972,2.55.893,1.062,1.881,2.192,3.111,3.553.898.998,1.973,1.802,3.012,2.581.352.264.67.503.984.748.878.682,1.798,1.342,2.688,1.981.383.273.737.526,1.087.78l.148-.032.091.182c.073.056.114.132.125.225l.023.196-.152.132-.054.083-.196-.011c-.066-.003-.122-.022-.172-.056-.512.044-.936-.139-1.348-.313l-.078-.034c-.118-.05-.235-.1-.355-.14-1.052-.363-2.078-.542-2.943-.67-.963-.143-1.961-.153-2.916-.141-.515.007-.974,0-1.392-.015-1.114-.043-2.231.178-3.186.391-.356.079-.773.086-1.241.017-1.662-.251-3.425-.597-5.065-1.411-1.392-.694-2.921-1.07-4.271-1.403-2.033-.503-3.829-.924-5.488-1.287-.394-.087-.814-.125-1.22-.163-.268-.026-.506-.047-.742-.078-.234-.03-.468-.065-.702-.101-.276-.042-.526-.079-.777-.11-.122-.017-.246-.015-.402-.009-.332.009-.714.016-1.081-.21h-.02c-.067.005-.125.007-.171.005-2.356-.196-4.441-.28-6.346-.243Zm1.694,17.04l-.069-.836c-.015-.168-.027-.323-.035-.477-.022-.399-.027-.803-.034-1.208v-.091c-.016-.955-.031-1.934-.221-2.838-.169-.804-.001-1.485.163-2.142.09-.368.173-.702.199-1.046.024-.289.091-.565.152-.81.058-.245.106-.448.128-.65.047-.434-.163-.796-.407-1.214l-.12-.173c-.062-.048-.125-.128-.125-.261v-.195l.12-.085.052-.083.195.005c.077.001.144.026.2.073.219-.003.44-.012.66-.022.66-.027,1.322-.055,1.972.056.523.087,1.066.097,1.592.106.508.008,1.079.016,1.627.105,1.272.202,2.577.18,3.841.164h.167c.802-.013,1.631-.024,2.446.026,2.417.141,4.363.57,6.126,1.352,1.194.529,2.48,1.042,3.778,1.217,1.373.183,2.643.105,3.764-.234.9-.27,1.868-.305,2.874-.093.269.055.543.074.834.093.477.03.984.061,1.486.25.168.063.343.114.519.167l-.007.178.048-.165c.358.106.728.215,1.073.414,1.187.685,2.305,1.167,3.413,1.477.129.035.257.075.385.116l.047.016c.266.083.518.164.769.202.429.066.87.108,1.296.148l.126.012c.254.024.507.048.761.078.233.028.461.066.693.105.238.039.464.077.69.104.126.016.264.013.352.009.313.001.693-.009,1.048.227.02-.001.043-.004.063-.005l.067.167-.015-.172c.043-.003.085-.007.125-.007l.074.003c.668.011,1.241.071,1.797.188.499.104.998.187,1.552.277.963.159,1.927.319,2.866.613.276.086.581.108.904.129.299.02.635.042.959.128.472.124.943.141,1.442.161.27.011.539.022.806.05.565.058,1.111.276,1.524.46.363.164.732.167,1.158.171l.296.003c.375.003.748.003,1.122.001h1.151l.079.046c.881.534,1.942.796,3.246.806,1.166.008,2.384-.009,3.56-.225,2.756-.508,5.067-1.264,7.068-2.308.66-.347,1.36-.683,1.923-.953.971-.469,1.973-.953,2.913-1.501,1.44-.838,2.891-1.766,4.172-2.583l.188-.12c.725-.463,1.45-.925,2.18-1.377.277-.172.554-.346.83-.52l.161-.101c1.46-.923,2.967-1.875,4.597-2.543.468-.194.929-.409,1.399-.631l.093-.043c.352-.164.703-.328,1.058-.481,1.158-.496,2.37-.761,3.416-.971,1.713-.346,3.548-.49,5.79-.46.268,0,.52-.042.787-.086.35-.056.741-.12,1.139-.079.495.056,1.006.075,1.501.093.913.034,1.833.067,2.739.303l.028-.004,1.103.067c.811.05,1.623.1,2.434.161.771.059,1.537.133,2.314.207l1.24.116.999,2.68c.019.311.04.628.063.955.052.793.114,1.692.144,2.586l.003.058c.017.531.036,1.077-.157,1.66-.086.258-.055.604-.026.937.009.124.019.235.024.344.004.054.031.133.059.217.036.104.082.234.095.382.019.235.015.469.011.717l-.004.956-1.771-1.093h-.921c-.884.391-1.735,1.021-2.756,2.036-1.143,1.138-1.998,2.173-2.691,3.26-.16.25-.351.453-.535.651-.077.082-.151.16-.215.238l-.104.117h-1.778l-.089-.062c-.149-.109-.304-.215-.463-.324l-.074-.051c-.409-.278-.874-.594-1.303-.972-.808-.713-1.777-1.022-2.727-.867-.963.155-1.829.779-2.378,1.712-.355.602-.73,1.179-1.127,1.79-.184.282-.371.573-.563.873l-.208.325-.293-.247c-.179-.151-.352-.293-.523-.434-.405-.336-.787-.654-1.159-.987-.239-.211-.452-.452-.656-.683l-.167-.188c-.691-.767-1.403-1.485-2.485-1.832-.074-.001-.152-.004-.233-.008-.511-.019-1.097-.047-1.614.286-.91.621-1.335,1.669-1.661,2.601-.663,1.894-1.895,3.281-3.662,4.126-.011.007-.028.022-.042.034-.02.017-.04.032-.056.043l-.086.042c-1.212.258-2.196-.152-3.078-.633l-1.396-.763c-.689-.379-1.377-.756-2.068-1.127-.893-.477-1.607-.694-2.314-.702-.19-.001-.354-.067-.514-.13-.036-.015-.071-.028-.108-.042l-.015.007c-.167.071-.366.156-.586.164-1.108.04-1.93.714-2.587,1.366l-.568.565c-.679.674-1.358,1.346-2.044,2.011-.944.914-2.113,1.36-3.233,1.704-.273.087-.612.067-.913-.044-1.17-.421-2.495-1.038-3.433-2.429-.335-.496-.73-.96-1.112-1.409-.129-.149-.256-.299-.381-.449-.841-1.01-1.785-1.431-2.91-1.298-.114.011-.225.009-.327.007h-.035c-.753.323-1.621.749-2.372,1.438-.063.059-.133.118-.202.176l-.034.03c-.178.147-.346.285-.442.448-.585.971-1.396,1.66-2.245,2.336-.807.641-1.92,1.377-3.256,1.225l-.082-.02c-1.689-.769-2.748-2.184-3.643-3.601-.136-.212-.277-.421-.418-.629l-.137-.203c-.106-.156-.212-.312-.315-.471-.401-.621-.925-1.015-1.518-1.142-.624-.128-1.304.026-1.962.457-.621.406-1.19.937-1.74,1.451l-.342.32c-.484.445-.919.933-1.279,1.352-1.013,1.175-2.273,2.117-3.85,2.877-.207.061-.383.086-.554.086-.753,0-1.318-.464-1.817-.966-1.428-1.442-2.329-3.162-3.021-4.656-.627-1.348-.916-1.526-1.752-2.012-1.003-.171-1.869.323-2.505.775-.433.308-.858.631-1.28.953l-.036.027c-.481.366-.979.744-1.486,1.095-.515.355-1.052.671-1.571.978l-.05.03c-.235.137-.467.274-.695.412l-.079.05-1.421-.034c-1.041-.508-1.775-1.364-2.243-2.614-.286-.767-.451-1.571-.593-2.279l-.009-.043c-.047-.226-.094-.455-.144-.68-.117-.53-.019-1.097.105-1.631.094-.403.074-.845.05-1.356l-.003-.065c-.008-.178-.016-.36-.017-.549l-.812-.756c-.651-.118-1.335.125-2.169.522-.717.342-1.463.617-2.185.884l-.07.026c-.726.269-1.477.547-2.184.889-.963.465-1.958,1.025-3.129,1.762-.367.231-.732.467-1.115.713l-1.05.675Zm9.765,22.241c.024,1.204.05,2.448-.056,3.675-.085.959-.108,1.937-.129,2.882l-.003.093c-.011.51-.023,1.019-.043,1.53-.009.264-.073.524-.136.776-.03.122-.062.253-.091.393l-.065.32-.323-.055c-1.818-.312-3.587-.776-5.296-1.224l-.336-.089c-.418-.109-.835-.219-1.252-.324l-.25-.063-.005-.257-.304-11.003.157-.188c.046-.056.078-.094.128-.132.157-.121.293-.114.383-.089,1.462.453,2.975.791,4.437,1.118l.067.015c.878.195,1.875.416,2.843.664l.253.066v.262c0,.547.011,1.091.022,1.63Zm.672,56.786l.019.143.065.52-.343.035c-.217.022-.436.043-.658.063l-.081.008c-.5.047-1.018.095-1.526.173-.305.046-.613.075-.923.105-.561.055-1.142.11-1.69.277-.218.065-.425.071-.608.077-.231.008-.426.015-.601.116-.292.167-.612.238-.921.307-.126.028-.254.056-.383.091l-.428.121v-.446c0-.338-.008-.676-.017-1.017l-.003-.132c-.024-.905-.05-1.841.059-2.769.052-.442.066-.897.079-1.338.013-.495.028-.976.086-1.454.238-1.941.219-3.931.2-5.855-.009-.873-.019-1.845-.001-2.778.003-.112.039-.199.069-.269.012-.03.027-.063.043-.109l.106-.295.303.086c1.292.364,2.618.227,4.017.081l.078-.008c.459-.046.931-.094,1.409-.124l.273-.019.074.266c.027.093.054.179.081.261.063.192.12.367.132.562.032.468.054.94.074,1.412.035.767.07,1.56.155,2.333l.036.336c.165,1.481.335,3.012.362,4.54.208.53.208,1.068.208,1.588-.001.475-.003.913.145,1.326.105.29.086.597.067.893-.009.161-.017.281-.012.398.008.152.028.308.055.494Zm-7.871-29.537l6.57,1.885v.254c0,.432.009.866.019,1.302.022.98.046,2.086-.056,3.154-.089.92-.133,1.899-.141,3.084,0,.168-.004.339-.008.511-.017.765-.035,1.552.223,2.343l.169.519-.541-.079c-1.148-.167-2.335-.159-3.38-.149-.722.004-1.534.011-2.356-.039l-.316-.02v-2.181c-.001-1.247-.055-2.501-.108-3.713-.074-1.723-.151-3.503-.077-5.287.009-.225.007-.449.004-.697l-.003-.886Zm-.814-16.256h0s-.16-1.454-.16-1.454l.539.247c1.489.674,3.042,1.036,4.544,1.384l.047.011c.781.183,1.591.371,2.391.604l.251.074-.008.262c-.015.506-.032,1.013-.05,1.52l-.017.512c-.052,1.498-.112,3.194-.137,4.829-.023,1.577-.017,3.148-.012,4.81v.052c.003.746.004,1.508.004,2.289v.433l-6.494-1.63-.066-.339c-.017-.085-.03-.144-.032-.203-.019-.453-.031-.904-.043-1.354l-.007-.225c-.03-1.147-.062-2.445-.194-3.678-.051-.472-.063-.949-.075-1.37-.017-.601-.034-1.161-.128-1.709-.126-.729-.136-1.451-.145-2.15-.005-.41-.011-.816-.038-1.21-.039-.555-.104-1.114-.171-1.705Zm.208,59.375v-.003l.172-.007-.172.003c-.017-.399-.035-.812.149-1.249.043-.102.032-.29.024-.456-.007-.095-.011-.184-.011-.27v-8.093s1.237.662,1.237.662c.161.001.324.008.485.015l.067.003c.418.019.85.039,1.256-.032.931-.171,1.865-.18,2.769-.19h.114c.367-.007.733-.011,1.097-.027.235-.011.48-.073.74-.139.14-.035.286-.073.44-.105l.389-.082.032.631c.013.251.024.467.034.683.02.448.031.901.04,1.353l.003.137c.02,1.042.043,2.222.203,3.322.117.802.122,1.627.128,2.355v.058c.005.541.011,1.099.056,1.658l.027.339-.594.046c-.165.013-.317.026-.471.034-.456.024-.912.04-1.366.056-1.038.036-2.111.074-3.151.204-.736.093-1.474.139-2.188.182l-.237.015c-.069.004-.16.04-.292.094-.101.04-.186.074-.281.105l-.296.101-.124-.289c-.017-.043-.039-.083-.062-.125-.1-.182-.211-.389-.208-.623.001-.121-.004-.243-.011-.364Zm9.383-71.428l.032-.3.3-.003h.007c.531,0,.953.155,1.362.305l.19.07c.931.331,1.863.671,2.793,1.011l.176.065c1.354.494,2.753,1.003,4.137,1.474,1.155.391,2.312.728,3.534,1.084l.242.07c.504.147,1.014.295,1.529.449l.249.074-.293,10.375-.206-.051-14.313-3.505.008-.274c.036-1.278.031-2.567.026-3.814-.009-2.313-.019-4.675.227-7.031Zm.383,43.664c.89-.225,11.786-.241,13.366-.086l.208.022.074.194c.043.09.089.187.091.305.023,1.061.067,2.133.11,3.171.069,1.705.14,3.452.121,5.178-.011,1.036.043,2.095.094,3.119l.003.044c.026.485.051.974.069,1.459.004.104.004.21.003.307l-.003.329-.208.086c-.789.324-1.552.339-2.328.319h-.325s-1.169.003-1.169.003c-1.955.005-3.908.011-5.862.02-.445.003-.92.017-1.4.156-.195.056-.406.082-.666.082-.157,0-.32-.009-.484-.019-.169-.011-.332-.022-.496-.022h-.316l-.102-1.521c-.054-.823-.108-1.637-.169-2.448-.02-.265-.051-.529-.081-.793l-.011-.101c-.04-.338-.081-.678-.104-1.018-.013-.199-.012-.397-.009-.596.004-.429.008-.832-.163-1.193-.043-.095-.039-.18-.038-.226l-.058-1.194c-.044-.929-.09-1.859-.152-2.789-.038-.566-.105-1.146-.164-1.657-.03-.257-.059-.512-.086-.768l-.031-.292.285-.071Zm-.422-11.395c-.008-.241-.058-.506-.104-.74-.027-.145-.054-.288-.077-.437l-.052-.324.324-.061c.643-.122,1.337-.12,2.111.008.102.016.19.054.262.089.017.008.069.032.086.036.367.027.738.047,1.107.066.732.038,1.487.077,2.23.191.687.106,1.387.121,2.064.136.574.013,1.224.027,1.852.104.58.07,1.163.104,1.728.137.262.016.512.031.763.048.356.027.695.1,1.056.178.168.038.334.073.504.105l.274.052v10.028l-.421-.108c-1.005-.254-2.011-.238-2.986-.219-.379.007-.757.013-1.135.004-.434-.001-.878.003-1.309.013-.812.019-1.607.038-2.394-.059-1.033-.132-2.052-.139-3.132-.145-.728-.004-1.446-.008-2.169-.048l-.292-.016-.047-.518c-.019-.168-.035-.339-.039-.511l-.067-2.671c-.043-1.781-.086-3.56-.139-5.339Zm.019-18.882c.136.024.265.046.39.066l.101.016c.332.052.647.104.958.19.812.225,1.623.456,2.433.687,1.118.32,2.211.632,3.298.923.861.23,1.772.426,2.575.598l.793.172c.442.098.885.192,1.329.286.627.133,1.253.266,1.879.409.187.043.307.182.393.284.031.036.047.058.066.074l.108.105v12.266l-.29.042c-.225.031-.523.067-.835.067-.347,0-.664-.043-.968-.13-.391-.114-.87-.062-1.333-.086-.448-.022-.898-.038-1.348-.052-1.019-.035-2.072-.071-3.109-.192-1.592-.187-3.16-.403-4.661-.647-.418-.067-.824-.192-1.217-.312-.18-.055-.356-.109-.533-.159l-.246-.069v-.257c0-.781.001-1.555.004-2.321v-.308c.004-1.668.008-3.242-.011-4.854-.015-1.153-.056-2.298-.106-3.568-.023-.607-.046-1.216-.065-1.824-.007-.187-.005-.377-.004-.586l.004-.894.397.074Zm-8.741,71.678c-.375-3.401-.519-6.752-.428-9.959l.003-.165.134-.098c.027-.019.044-.034.059-.047.051-.043.134-.112.265-.117.483-.026.97-.043,1.455-.061,1.07-.038,2.177-.077,3.249-.211.815-.105,1.627-.136,2.413-.165.309-.012.62-.024.929-.04h-.001c-.022,0,.003-.015.026-.028.069-.042.132-.079.211-.12l.488-.25.003.549c.001.251.001.496,0,.741-.003.566-.004,1.038.016,1.528.019.463.048.927.078,1.391l.009.155c.042.641.081,1.271.1,1.891.02.671.02,1.352.02,2.009v.116c-.001.455-.001.906.003,1.361.001.063.026.149.055.257.023.082.044.163.065.253l.09.399-.41.011c-3.03.101-5.788.394-8.432.897l-.359.069-.04-.363Zm2.133,12.503c-.733-2.877-1.315-5.947-1.778-9.386l-.038-.277.266-.089c.093-.031.18-.066.262-.098.223-.09.429-.172.656-.187.896-.055,1.619-.117,2.278-.195,1.131-.134,2.282-.171,3.396-.206.453-.015.908-.03,1.36-.05.097-.005.187-.004.3-.001h.507s.023.315.023.315c.007.093.011.184.015.276.009.199.017.366.044.526.091.55.118,1.099.144,1.63.034.68.067,1.384.239,2.044.017.061.017.12.017.156l.266,7.06-7.904-1.304-.055-.214Zm7.546,9.16c-.083-.02-.171-.04-.264-.058-.247-.054-.511-.109-.763-.227-1.543-.737-2.899-1.657-4.036-2.735-.738-.701-1.232-1.638-1.654-3.136l-.14-.496,6.65.916.015.132.67,5.732-.479-.126Zm1.303-36.346c-.019-.438-.031-.88-.043-1.319-.031-1.116-.063-2.269-.195-3.386-.074-.623-.108-1.245-.141-1.849l-.042-.734c-.015-.246-.071-.503-.136-.799l.157-.083-.168.036c-.034-.153-.07-.317-.104-.495l-.074-.382.39-.019c.456-.023.898-.036,1.33-.05,1.006-.031,1.919-.058,2.813-.188.566-.082,1.134-.09,1.682-.098.65-.009,1.241-.017,1.821-.129.939-.182,1.88-.165,2.718-.156h.133c.584.001,1.189.008,1.783-.044l.354-.034.118,2.406c.05.885.097,1.75.121,2.608.02.742.02,1.495.02,2.223,0,.53,0,1.06.007,1.59.001.061.023.139.047.222.036.126.07.243.079.374.003.043.008.09.015.139.04.366.094.858-.375,1.331l-.102.1h-3.398c-.241.001-.492-.007-.733-.016l-.089-.003c-.612-.023-1.212-.044-1.766.051-1.147.198-2.308.182-3.346.165h-.065c-.551-.007-1.128-.011-1.688.011-.087.004-.178.005-.272.005l-.853-.005.003-.756c.003-.261.005-.488-.004-.714Zm.344,11.989c-.055-1.115-.108-2.167-.132-3.242-.024-1.03-.019-2.041-.015-3.112v-.164c.004-.49.007-.986.007-1.491v-.312l1.189-.102c.596-.052,1.272-.113,1.933-.148.611-.034,1.224-.051,1.837-.069,1.148-.032,2.336-.066,3.487-.207.866-.105,1.705-.126,2.593-.149.367-.009.738-.02,1.115-.035l.328-.013.023.327c.023.338.043.67.062,1.001.04.725.082,1.474.175,2.214.062.5.106,1.001.151,1.502.048.55.102,1.174.188,1.779.133.955.165,1.895.199,2.89.016.449.03.869.052,1.294l.019.356h-.355c-.153.001-.307.008-.457.015l-.136.007c-.165.007-.332.015-.499.015-.28,0-.702-.017-1.134-.167-.145-.051-.332-.051-.531-.051h-.159c-.331,0-.659.008-.988.017-.65.022-1.388.047-2.111-.061-1.237-.18-2.47-.188-3.844-.172h-.048c-.831.004-1.685.012-2.553-.039l-.305-.016-.013-.305c-.023-.507-.048-1.009-.074-1.502l-.003-.058Zm27.273-65.472l.003.063c.008.226.017.46.017.702v.391l-.387-.056c-1.676-.253-3.245-.578-4.425-.835-.647-.14-1.298-.264-1.949-.386-.851-.161-1.705-.323-2.548-.52-1.005-.237-1.978-.512-3.01-.804-.461-.13-.929-.262-1.408-.394l-.25-.069.003-.26c.005-.647.005-1.292.005-1.938v-.323c-.003-2.429-.005-4.941.276-7.394l.04-.342,1.395.186c.533.073,1.062.144,1.592.219.19.027.378.061.568.095l.059.011c.214.039.428.077.644.102.101.012.222.013.347.009h.056c.282.001.628.001.958.206.011-.001.026-.001.039,0,.048,0,.069.001.085.004.317.02.656.036.994.051.764.035,1.553.071,2.331.196,1.08.172,2.137.18,3.256.188.633.004,1.206.011,1.791.039l.319.013.003.32c.003.128.008.256.013.382.02.507.04.986-.143,1.486-.028.079-.044.153-.048.217-.024.373-.043.745-.062,1.119-.038.756-.079,1.614-.184,2.442-.059.477-.091.98-.118,1.424-.04.651-.085,1.389-.223,2.103-.079.409-.059.866-.038,1.35Zm-13.884.839l.04-.414.398.125c1.716.553,6.934,1.275,10.386,1.752,1.162.161,2.07.288,2.596.373l.332.054-.052.332c-.02.129-.04.254-.062.375l-.016.097c-.056.329-.106.623-.129.909-.02.262-.019.537-.017.803.001.199.003.399-.004.597l-.036,1.034c-.056,1.6-.108,3.043-.18,4.481-.023.425-.09.832-.163,1.263-.035.203-.069.41-.1.625l-.042.29h-.293c-.467,0-.937.011-1.409.022-.48.011-.963.02-1.447.02-.788,0-1.427-.028-2.009-.087-.59-.059-1.192-.083-1.774-.105l-.156-.007c-.359-.015-.718-.028-1.079-.052-.412-.027-.823-.078-1.245-.133l-.169-.022c-.164-.02-.328-.039-.491-.058-.176-.02-.359-.015-.554-.008h-.061c-.398.008-.849.016-1.3-.212-.079-.039-.253-.022-.417-.007-.117.012-.226.022-.329.022h-.28l-.052-.274c-.23-1.185-.152-9.121.116-11.794Zm.264,50.357v-.027c-.095-1.972-.192-4.01-.134-6.038.007-.233.005-.468.003-.74v-.799s3.07.001,3.07.001c.296-.001.593,0,.886-.001h.586c.914-.007,1.877-.005,2.816.02,1.298.031,2.55.081,4.051.141l2.09.081v10.363l-.441.058c-.218.032-.473.067-.701.048-.35,0-.703-.007-1.056-.015l-.149-.003c-1.021-.027-1.942-.039-2.84.058-1.491.161-3.019.167-4.601.161h-.253c-.719.001-1.442.003-2.158.022-.085.003-.169.004-.257.004l-.625-.003-.087-.206c-.151-.358-.137-.717-.125-1.034v-.051c.005-.101.009-.202.005-.301-.024-.58-.051-1.159-.079-1.74Zm12.831-19.735h0c.085.749.093,1.506.101,2.238l-.171.047h.171c.009.775.019,1.577.125,2.341.121.877.122,1.719.124,2.61,0,.718,0,1.431.062,2.152l.03.366h-.367c-.793,0-1.577.013-2.352.027h-.052c-.756.012-1.495.024-2.226.024-1.185,0-2.154-.032-3.053-.101-.791-.062-1.587-.073-2.356-.085-.819-.013-1.748-.027-2.674-.105l-.289-.026-.02-.29c-.02-.312-.044-.625-.069-.937-.048-.637-.104-1.358-.114-2.054-.019-1.153-.022-2.305-.024-3.459-.003-1.099-.005-2.199-.022-3.296-.009-.611-.048-1.235-.086-1.838-.028-.46-.056-.92-.073-1.381-.008-.204.044-.394.095-.577.022-.079.043-.164.063-.254l.063-.299.304.034c.217.024.44.02.654.011h.066c.442-.017.937-.038,1.447.199.061.03.222.013.309.007.086-.008.168-.013.247-.013l.046.007s.027,0,.043-.003l.058-.004c.26,0,.515-.005.771-.012.693-.015,1.401-.031,2.091.067.551.079,1.119.112,1.669.144.722.04,1.432.082,2.141.208.612.109,1.264.079,1.894.054.315-.013.632-.026.955-.026h.317l.044.658c.013.194.027.374.028.554.003.335-.004.672-.012,1.007-.016.676-.032,1.358.042,2.005Zm-12.974-16.219c.273.035.558.022.785.008.467-.024.976-.047,1.471.221.024,0,.047-.003.067-.001.03,0,.044.001.058.004l1.52.074c1.001.051,2.002.101,3.003.149,1.096.054,2.192.105,3.303.156l2.764.129-.024.344c-.023.316-.015.643-.007.96v.066c.019.672.038,1.361-.182,2.056-.03.097-.023.231-.011.399.005.089.009.173.009.258v5.057s-.264.061-.264.061c-.374.081-1.033.128-1.813.128-.627,0-1.442-.034-1.85-.126-.203-.046-.429-.067-.73-.073-.317-.004-.637-.004-.958-.004h-.484c-.807.003-1.733.001-2.644-.032-.882-.034-1.748-.105-2.664-.18l-.293-.023c-.309-.026-.623-.051-.94-.074l-.312-.023v-3.225c-.001-.309.009-.621.02-.935.024-.694.048-1.401-.058-2.054-.094-.576-.101-1.127-.108-1.711-.004-.449-.011-.836-.042-1.249l-.032-.416.414.055Zm-12.881,62.235c-.022-.362-.032-.724-.043-1.087-.022-.709-.043-1.424-.148-2.099-.098-.643-.122-1.283-.147-1.9-.011-.285-.022-.547-.036-.81-.013-.233-.062-.469-.113-.721l-.13-.701.329-.061c1.066-.196,3.107-.171,4.369.061.156.03.324.026.499.02.14-.004.256-.004.366-.001l7.812.277.027.297c.042.457.081.906.117,1.354.086,1.044.165,1.993.295,2.947.112.807.186,1.627.258,2.419l.005.071c.054.589.108,1.178.175,1.764.101.884.114,1.77.125,2.626v.048c.008.592.017,1.124.046,1.658.008.149.028.299.051.469l.098.772-.452-.079c-.933-.168-1.867-.344-2.801-.519l-.49-.091c-3.061-.578-6.228-1.175-9.386-1.568l-.238-.03-.051-.234c-.34-1.598-.434-3.174-.526-4.698l-.012-.187Zm14.035,9.135c-.024.356-.052.701-.081,1.036l-.005.069c-.065.791-.124,1.51-.129,2.222-.004.737.05,1.486.102,2.211.024.336.048.676.067,1.025l.024.436-1.732-.344c-3.879-.769-7.873-1.561-11.763-2.565l-.407-.106.191-.375c.229-.446.214-.889.196-1.401-.016-.428-.034-.906.128-1.384.182-.539.211-1.154.241-1.805.016-.312.031-.616.061-.919l.032-.34,1.612.167c.839.083,1.885.188,2.879.311l.553.069c1.217.151,2.435.301,3.623.55.601.124,1.205.233,1.817.343.713.128,1.522.272,2.328.449l.282.063-.019.29Zm.476-18.801l-.058-.26c-.734-3.195-1.283-9.443-1.073-10.955l.016-.134.11-.083c.026-.03.118-.125.272-.133,1.167-.023,2.335-.069,3.464-.113l.223-.008c2.158-.085,4.388-.169,6.594-.081.465.017.921.086,1.403.157l.047.008c.21.031.424.063.648.09l.296.039v.297c0,.094-.003.19-.005.289-.007.221-.013.421.009.602.147,1.231.149,2.461.152,3.651.003.974.005,1.978.087,2.955.079.948.102,1.895.122,2.811l.027,1.037-.182.101c-.019.009-.032.019-.046.028-.075.051-.176.122-.312.122-.024,0-.05-.003-.075-.007-.835-.18-1.664-.18-2.606-.163-.584.008-1.251.016-1.904-.048-1.764-.173-3.567-.182-5.308-.19h-.051c-.527-.001-1.056-.004-1.583-.011l-.268-.003Zm1.642,14.504l.172-.009-.172.004c-.036-1.553-.156-2.901-.368-4.121-.054-.308-.073-.613-.091-.91-.022-.368-.043-.683-.105-.991-.134-.671-.229-1.358-.32-2.023-.091-.671-.18-1.322-.304-1.95-.056-.295-.065-.582-.073-.886-.003-.157-.007-.3-.015-.445l-.024-.391.393.036c.264.022.523.011.863-.011.576-.036,1.233-.075,1.894.218,0-.001.017-.001.047-.004.077-.005.122-.008.164,0l1.397.056c1.28.052,2.559.106,3.84.173.679.035,1.348.087,2.056.144l1.345.104v2.859c.003,1.007.004,2.012-.001,3.018-.003.914.164,1.797.364,2.772.066.32.093.64.12.949l.004.046c.019.235.039.479.077.71.152.94.199,1.875.249,2.866.02.395.042.796.069,1.205l.024.356-.359.003c-.253.004-.502.017-.745.031l-.078.004c-.247.012-.491.024-.73.024-.52,0-.928-.055-1.321-.18-.07-.023-.149-.046-.21-.05-.401-.026-.804-.047-1.205-.07-.857-.046-1.7-.093-2.528-.169-.155-.015-.309-.027-.463-.039l-.168-.013c-.818-.066-1.666-.133-2.5-.363-.081-.019-.187-.016-.309-.009l-.063.003c-.081.005-.165.011-.249.011h-.241l-.079-.227c-.313-.919-.335-1.838-.355-2.729Zm11.638-71.767c-.013-2.386-.027-4.852.277-7.354l.032-.25.299-.058c.097-.031.277-.087.463-.02.459.168.943.172,1.455.176.222.001.436.003.647.016.456.027.921.089,1.33.144l.108.015c.124.016.247.034.373.048.178.023.351.019.529.009.387-.011.836-.024,1.286.214.066.036.225.024.364.009.14-.013.269-.023.403-.019,1.323.059,2.651.121,4.002.184l1.306.062v10.051h-.338c-.256,0-.508-.001-.756-.004-.519-.005-1.069-.011-1.623.012-.319.015-.651.051-.971.087-.406.044-.82.091-1.241.095-2.211.03-4.507.019-6.532.009-.048-.005-.078-.003-.101.001l-.104.007c-.051.003-.106.005-.161.005-.301,0-.687-.061-.994-.53l-.058-.087.003-.105c.011-.834.008-1.676.004-2.522v-.199Zm12.948-18.89l.003.112-.172.004h.172c.027,1.052.052,2.047-.056,3.051-.159,1.458-.152,2.948-.145,4.387.004.806.008,1.608-.013,2.406-.001.1-.034.179-.063.254-.016.043-.03.077-.043.12l-.089.264-.273-.034c-.208-.026-.433-.016-.671-.005-.402.022-.947.051-1.483-.188-.054-.024-.172-.017-.274-.019-.04.004-.069.003-.095,0-.017.001-.042.001-.054,0l-.873.007c-.43.004-.877.005-1.321-.012-1.894-.071-3.478-.137-5.058-.233-.39-.024-.775-.105-1.144-.183l-.083-.016c-.151-.031-.305-.063-.465-.091l-.247-.047-.036-.304c-.056-.48-.12-1.019.094-1.594.028-.074.046-.147.05-.212l.024-.378c.067-1.041.133-2.048.19-3.057.03-.534.055-1.068.081-1.603.044-.904.089-1.807.149-2.71.028-.417.097-.832.161-1.235.036-.215.067-.41.095-.607l.034-.227.221-.054c.777-.187,2.258-.183,2.991.012.023.005.048.013.074.022.073.023.125.04.155.042,1.17.079,2.344.156,3.518.229.906.056,1.811.11,2.741.165l1.887.113v.319c0,.44.011.874.023,1.303Zm-12.894,24.48h.32c.065,0,.128-.005.187-.009.215-.016.397-.028.578.039.499.191,1.022.182,1.567.175.284-.004.562-.008.845.012.389.027.775.073,1.163.118.284.034.559.066.834.091.203.02.413.015.629.009.475-.008.972-.019,1.474.203.106.046.27.035.442.023l.044-.003c.133-.009.262-.022.405-.012.937.051,1.873.105,2.82.16l1.534.089v8.462h-12.818l-.043-.52c-.013-.169-.027-.342-.035-.514l-.058-1.079c-.047-.881-.095-1.793-.117-2.694-.012-.511.023-1.027.052-1.483.013-.194.026-.39.036-.584l.139-2.484Zm.11,79.351l-.262.101c-.243.091-.49.134-.756.134-.34,0-.662-.071-.971-.14-.301-.065-.613-.124-.885-.118-.62.04-1.255-.056-1.872-.151l-.116-.017c-.222-.035-.442-.069-.662-.098-.676-.086-1.571-.206-2.48-.366-.559-.098-1.105-.212-1.682-.334-.265-.056-.53-.112-.799-.167l-.165-.032-.732-1.616v-.933c.003-.561.004-1.158-.003-1.754-.004-.278-.001-.559.003-.839.009-.641.019-1.306-.074-1.969l-.043-.316.258-.051c.082-.047.187-.104.342-.075.366.04.734.087,1.103.134l.586.073c.152.023.313.015.48.005.418-.009.83-.031,1.249.227-.013-.011.046-.013.077-.016l.051-.003c.077-.001.147-.004.219-.004.839,0,1.681.066,2.495.13,1.054.082,2.224.173,3.333.105l.043-.003c.352-.015.806-.047,1.045.391l.03.075c.352,2.005.203,3.913.046,5.933l-.05.639.192,1.053Zm.254-55.429c-.023-.836-.039-1.67-.055-2.505-.038-1.945-.077-3.957-.198-5.925l-.034-.538c-.054-.836-.114-1.786-.124-2.703-.003-.125-.003-.254-.003-.412v-.515s3.043-.001,3.043-.001c.425-.001.785.009,1.158.02.808.026,1.719.054,2.563-.063,1.057-.147,2.123-.148,3.144-.136h.147c.714.007,1.309.008,1.9-.016.117-.004.234-.007.381-.003h.566v14.306l-.428.046c-.198.023-.424.05-.648.05-.323,0-.596-.052-.857-.163-.082-.035-.222-.038-.335-.04-3.042-.081-6.05-.157-9.059-.231h-.089c-.126-.001-.254-.005-.401-.001h-.598l-.042-.609c-.015-.19-.028-.375-.034-.559Zm.188,7.293c-.007-.726-.039-1.446-.071-2.141-.016-.328-.031-.66-.043-.998l-.013-.351h12.385l.039.55c.015.206.028.397.028.588.003.494.001.988,0,1.483v.371c-.005,1.135-.009,2.306.012,3.468.015.781.063,1.58.11,2.352l.009.152c.026.414.051.828.073,1.243.008.148.007.296.004.467l-.004.619-.348-.013c-.295-.009-.588,0-.871.009-.202.007-.406.013-.611.013-.386,0-.896-.02-1.423-.176-.319-.093-.686-.071-1.07-.055-.063.004-.117.008-.169.012-.139.011-.28.022-.414.004-1.477-.013-2.941-.207-4.312-.405-.323-.048-.652-.044-.999-.035-.245.007-.526.009-.804-.008-.293-.019-.574-.078-.846-.136l-.067-.013c-.102-.02-.204-.042-.309-.061l-.278-.052v-2.249c.004-1.582.007-3.109-.005-4.638Zm.422,20.861v-.619c.004-.2.007-.379-.001-.557-.023-.518-.048-1.037-.074-1.556-.046-.924-.098-1.972-.122-2.976-.026-1.048-.027-2.089-.026-3.241v-2.898l.293-.039c.039-.005.077-.015.116-.024l.047-.011c.169-.042.389-.097.596.001.315.143.664.144,1.034.147.183.001.366.003.549.02.309.03.617.051.927.074l.124.008c.875.062,1.782.124,2.675.335.028.008.073.005.109.003.073-.003.112-.004.149.001l5.998.311.05.26c.619,3.174.826,6.596.654,10.768l-.013.343-.343-.019c-.136-.007-.27-.016-.405-.026-.572-.04-1.142-.032-1.699-.038l-2.817.003c-1.154,0-2.324-.004-3.48-.023-.905-.013-1.786-.075-2.718-.141-.426-.03-.861-.059-1.303-.086l-.317-.02Zm13.271,20.93h-.001c-.114.342-.118.687-.124,1.053-.003.152-.005.304-.015.457-.094,1.466-.187,2.93-.292,4.589l-.02.308-.308.008c-.499.017-1.001.02-1.501.023-1.088.004-2.214.008-3.294.179-1.629.257-3.21.035-4.821.231l-.347.042-.052-.604c-.019-.187-.034-.356-.039-.527l-.017-.672c-.017-.831-.035-1.676-.159-2.504-.117-.799-.093-1.594-.066-2.434l.004-.116c.012-.334.023-.67.023-1.011v-.338h2.925c.281,0,.563.001.845.004h.083c.598.007,1.209.008,1.809-.011,1.443-.052,2.929-.137,4.32-.221.091-.005.204-.048.348-.104.094-.036.192-.073.297-.108l.442-.143v.465c0,.134.009.268.017.397.026.368.048.713-.058,1.036Zm.097-3.943l-.004.042c-.031.324-.061.656-.087.994l-.026.311h-11.153l-.062-1.169c-.019-.362-.03-.724-.04-1.087l-.004-.134c-.024-.9-.048-1.829-.194-2.715-.085-.519-.144-1.046-.2-1.557l-.012-.11c-.083-.764-.169-1.551-.335-2.302-.1-.451-.128-.908-.157-1.35-.02-.316-.04-.617-.082-.905-.118-.828-.258-1.657-.393-2.457l-.212-1.272.25-.102c.106-.055.21-.108.338-.117,2.87-.212,5.761-.214,8.556-.215.913,0,1.824-.001,2.737-.008h.276s.566,0,.566,0v.795c-.003.21-.004.412.001.613.02.667.034,1.333.047,2,.031,1.608.063,3.271.203,4.895.106,1.245.149,2.524.128,3.803-.011.68-.073,1.345-.14,2.05Zm.615-48.485l-.007-.16c-.038-.9-.078-1.83-.097-2.746-.022-.962-.023-1.937-.023-2.936,0-.694-.001-1.387-.008-2.08-.003-.144-.036-.305-.079-.508l-.016-.078c-.022-.1-.044-.207-.065-.325l-.047-.274.258-.1c.051-.019.1-.042.145-.065.175-.085.34-.167.534-.167l.051.004c.237.008.499.008.758.004.589-.008,1.186-.011,1.799.14.394.095.826.077,1.288.056.269-.013.526-.023.779-.013.939.032,1.877.074,2.838.117l1.564.069.019.304c.007.105.015.204.023.303.017.211.032.407.032.601.004.446-.004.894-.012,1.342-.016.91-.032,1.852.05,2.765.071.781.087,1.568.102,2.331.016.857.032,1.703.118,2.519.074.703.101,1.389.128,2.115l.052,1.201-.561.047c-.179.012-.352.026-.527.05-.756.108-1.522.126-2.263.144-.725.016-1.46.032-2.171.132-1.424.203-2.789.058-4.209.169l-.364.03v-.367c0-.282.001-.557.004-.823.004-.577.008-1.104-.008-1.629-.023-.724-.054-1.447-.086-2.171Zm-.137-19.355l-.024-.359h2.328s.026-.001.046-.001c.29,0,.582.011.875.022h.043c.64.026,1.307.047,1.923-.062.867-.151,1.759-.153,2.546-.156h.087c.378-.003.757-.005,1.135-.023.116-.011.239,0,.373.012.065.005.134.011.212.015l.321.013v9.092l-.32.016c-.385.02-.787.031-1.198.031-1.244,0-2.453-.095-3.471-.188-.496-.046-1.01-.043-1.516-.042h-.247c-.966.007-1.962.015-2.972-.247l-.227-.061-.024-.233c-.145-1.382-.054-2.78.034-4.13.079-1.225.159-2.461.077-3.7Zm.023-7.265h0s.172-.003.172-.003l-.172-.008c-.023-1.99-.047-4.048.246-6.118l.047-.328.327.039c.356.043.711.036,1.073.022.6-.017,1.217-.035,1.836.204.537-.028,1.069-.016,1.611-.004.853.02,1.742.04,2.609-.124.55-.105,1.278-.19,2.006.11l.161.066.039.171c.007.027.016.056.026.086.05.152.1.305.063.476-.208,1.002-.194,2.047-.179,3.058v.052c.007.514.013,1.044-.009,1.569l-.167,3.678-.469.032c-.218.015-.399.027-.582.038-.34.02-.679.032-1.019.046l-.14.005c-.884.031-1.772.063-2.621.203-.563.094-1.122.12-1.662.145l-.113.005c-.251.012-.502.024-.753.044-.395.031-.799.094-1.228.161l-.043.007c-.218.035-.446.073-.686.106l-.402.056.016-.403c.04-1.15.027-2.292.013-3.394Zm10.283-13.054l-.225,5.144-.317.005c-1.424.03-2.904.043-4.797.043-.859,0-1.725-.003-2.609-.005l-2.179-.005.03-.366c.044-.52.031-1.034.017-1.532-.023-.851-.044-1.657.192-2.497.038-.133.027-.315.016-.49-.005-.095-.009-.192-.009-.285,0-.385.003-.771.005-1.155.007-.9.013-1.83-.012-2.753-.016-.562-.082-1.146-.139-1.661-.03-.273-.059-.549-.086-.834l-.028-.309.304-.055c.789-.139,1.592-.145,2.528-.019.106.013.212.044.319.078.098.03.173.052.233.055.711.034,1.424.063,2.136.091,1.093.046,2.156.09,3.22.147.409.022.818.087,1.177.145.167.026.329.051.491.074l.325.044-.036.328c-.015.13-.027.257-.038.377l-.011.101c-.03.324-.058.617-.112.904-.109.576-.134,1.182-.16,1.77-.028.725-.058,1.456-.229,2.179-.015.065-.012.155-.008.251.003.079.005.155.001.23Zm-9.881,54.606c-.034-1.368-.079-2.735-.125-4.103-.024-.718-.048-1.436-.07-2.154-.007-.218-.005-.434-.004-.667l.004-.804.3-.032c.073-.008.144-.017.214-.027.235-.034.446-.036.639-.046.383,0,.769.011,1.158.022h.065c.885.026,1.794.047,2.656-.067.951-.125,1.903-.14,2.826-.153h.159c.426-.008.851-.013,1.279-.032.118-.009.241-.007.367-.003h.332s.129.2.129.2c.046.056.124.155.136.296.238,2.773.231,5.562.225,8.259l-.003,2.809h-10.28v-.338c0-.336.001-.668.004-.998.004-.76.008-1.454-.009-2.161Zm.835,16.711c-.024-.246-.04-.487-.056-.724-.035-.545-.067-1.036-.169-1.509-.147-.682-.167-1.382-.183-2.002-.017-.605-.035-1.231-.159-1.833-.116-.557-.094-1.127-.074-1.678.009-.257.019-.515.015-.771-.003-.132-.001-.264,0-.395.005-.46.011-.89-.152-1.29-.066-.168-.054-.338-.043-.5.005-.071.011-.141.011-.217v-.338h5.588c.498.005.951.008,1.405-.015.296-.015.604-.054.902-.09.264-.034.52-.067.78-.086.245-.019.49-.017.756-.012h.051c.13.004.266.007.409.007h.343l-.005.342c-.001.19.007.377.015.562.022.506.044,1.03-.139,1.573-.048.144-.061.321-.031.453.211.914.195,1.834.18,2.723-.008.43-.016.889.001,1.322.009.227.013.453.017.68.011.621.022,1.239.153,1.826.078.346.061.694.042,1.031-.008.148-.016.281-.016.412v.28l-.274.052c-1.61.303-3.206.308-4.75.313h-.299c-.608-.003-1.218.001-1.828.012-.09.003-.187.003-.281,0h-.101c-.445-.016-.764-.009-1.079.134-.114.055-.226.062-.311.062-.063,0-.125-.004-.191-.011-.073-.005-.13-.011-.192-.011h-.307l-.03-.305Zm.885,10.868l-.003-.032c-.023-.239-.046-.48-.078-.717-.075-.553-.159-1.105-.242-1.657l-.097-.643c-.003-.024-.009-.046-.015-.069-.027-.108-.047-.188-.051-.274-.052-.897-.102-1.797-.153-2.7l-.13-2.317.249-.079c.406-.133.769-.13,1.157-.114.139.004.281.007.407.003.494-.024.988-.046,1.485-.067l.41-.019c1.066-.046,2.168-.094,3.249-.159.459-.027.913-.095,1.396-.169l.12-.017c.192-.028.386-.058.584-.083l.296-.04.077.289c.218.855.315,1.604.307,2.357-.012,1.334-.005,2.717.003,4.018l.004.875c.003.412.001.82-.001,1.232-.005,1.553-.011,3.133.186,4.669.05.379.039.753.027,1.186-.007.212-.013.43-.013.67v.301l-.299.035c-.203.023-.401.047-.593.071l-.132.016c-.373.044-.733.087-1.096.118l-.795.069c-1.299.116-2.636.235-3.993.152-.073.004-.143.026-.234.065-.175.073-.366.151-.582.151-.199,0-.393-.067-.574-.202l-.137-.101v-.534c-.001-.179-.001-.366.001-.553.015-1.3-.157-2.672-.557-4.449-.097-.425-.139-.861-.18-1.282Zm9.29,15.104c-.289.031-.573.065-.855.098l-.083.009c-.613.071-1.193.139-1.789.18-.863.061-1.727.104-2.59.147-.549.027-1.099.055-1.649.086-.109.007-.234.047-.367.089-.176.058-.397.129-.644.129-.208,0-.402-.05-.592-.151l-.179-.097v-.202c0-.25-.011-.498-.022-.741-.024-.568-.047-1.101.047-1.642.167-.94.163-1.868.159-2.85-.001-.59-.003-1.2.034-1.817l.016-.284.452-.051c.164-.019.334-.038.502-.054.074-.011.16-.013.261-.003,1.171.077,2.344-.013,3.482-.102l.235-.017c.893-.069,1.818-.133,2.739-.11.052.015.137-.017.195-.036l.07-.022c.065-.02.132-.039.199-.054l.332-.077.071.335c.327,1.541.3,3.099.274,4.606-.013.744-.027,1.513.003,2.279l.013.315-.315.035Zm.605-97.758h0c.043-.217.035-.457.027-.711-.008-.198-.015-.37-.007-.542.035-.795.074-1.591.114-2.403l.101-2.067h1.275c.316,0,.632-.003.948-.004l.315-.003c.988-.009,1.957-.013,2.928.016.728.015,1.487-.052,2.215-.122l.097-.009c.289-.03.578-.058.867-.083.251-.019.498-.015.758-.011l.204.004c.083.001.168.003.256.003h.305l.055.52c.02.169.039.339.044.511.017.477.038.956.058,1.435l.003.073c.051,1.241.105,2.524.11,3.79.005.765-.055,1.536-.114,2.281l-.015.182c-.023.293-.046.585-.063.88l-.016.277-10.686,1.426.024-.409c.035-.605.026-1.218.016-1.811-.017-1.077-.036-2.152.18-3.22Zm10.558,28.816l-.139.106c-.04.03-.07.055-.094.077-.09.077-.182.156-.325.167-3.038.235-6.099.235-9.06.235h-1.291l-.015-1.13c-.005-.394-.009-.779-.022-1.163-.04-1.342-.085-2.684-.129-4.026l-.065-2.013c-.005-.147-.004-.293-.003-.451v-.531s.309-.027.309-.027c.264-.024.526-.051.787-.077l.188-.019c.635-.066,1.353-.14,2.064-.175,1.116-.056,2.234-.097,3.35-.137l.395-.015c.772-.028,1.544-.056,2.314-.091.179-.008.37-.058.573-.11.132-.035.246-.066.362-.09l.225-.047.18.266c.052.069.113.151.118.273.093,2.956.183,5.909.27,8.803l.005.175Zm-10.755-21.524c.078-.106.195-.139.276-.143.421-.026.846-.042,1.271-.058.884-.032,1.883-.07,2.824-.206.339-.048.678-.083,1.019-.117.507-.051,1.081-.108,1.621-.227.74-.163,1.482-.2,2.267-.241l.14-.008c.301-.016.607-.032.919-.059l.37-.03-.005.373c-.008.745-.005,1.486-.001,2.224.011,2.043.022,4.154-.258,6.274l-.03.229-.223.055c-.101.024-.203.055-.311.087-.281.083-.586.173-.906.198-.791.059-1.584.102-2.376.144-.62.032-1.239.065-1.857.106-.374.024-.749.069-1.131.116-.285.034-.569.067-.853.093-.233.022-.456.016-.703.011-.445-.007-.824-.017-1.183.147-.11.051-.234.075-.387.075-.081,0-.164-.007-.249-.013-.093-.008-.18-.016-.272-.016h-.338v-.338c0-.418-.003-.831-.004-1.239l-.003-.387c-.007-1.265-.013-2.426.017-3.604.019-.726.086-1.444.165-2.24l.023-.25c.024-.243.047-.487.067-.732l.012-.134.1-.089Zm.429,36.818c-.023-.438-.04-.871-.058-1.3-.036-.951-.074-1.891-.165-2.812-.191-1.922-.191-3.849-.191-5.713,0-.628,0-1.255-.007-1.884-.001-.139-.001-.278-.001-.425v-.812s2.947-.101,2.947-.101c1.717-.059,3.4-.117,5.082-.172.109-.004.219-.005.329-.007.403-.003.781-.005,1.134-.16.168-.077.334-.062.484-.047l.051.004c.039.003.078.007.117.007h.338v3.33c0,.325.003.651.005.976.005.714.011,1.452-.011,2.187-.036,1.364-.089,2.729-.14,4.095l-.077,2.032-.164.093c-.625.356-1.28.375-1.912.395h-.085c-.414.015-.846.067-1.263.116-.288.035-.546.066-.806.089-.239.02-.471.015-.697.008-.413-.015-.811-.026-1.178.155-.18.09-.364.074-.515.066l-.054-.003c-.034-.001-.067-.003-.097-.005-.141.003-.293.001-.449.001-.52-.005-1.025-.012-1.51.175-.1.039-.206.056-.334.056-.069,0-.14-.005-.214-.011-.09-.007-.156-.012-.223-.012h-.321l-.016-.32Zm1.034,13.52c-.007-.156-.013-.297-.022-.438-.082-1.393-.165-2.791-.258-4.181-.027-.412-.048-.824-.069-1.237-.026-.514-.052-1.027-.09-1.541-.048-.652-.118-1.287-.203-2.05l-.023-.2c-.028-.249-.056-.5-.082-.754l-.031-.299.379-.089c.062-.016.128-.034.206-.035,1.552-.075,3.108-.149,4.665-.222.547-.246,1.1-.231,1.596-.222.496.016.92.012,1.313-.161.257-.114.53-.087.779-.065.121.009.223.019.331.019h.338v.338c0,.417-.001.83-.004,1.237-.005,1.002-.008,1.837.011,2.696.043,1.842.11,3.717.175,5.531l.038,1.048c.003.066.028.155.062.269.027.091.05.171.071.26l.105.42h-.433c-.226,0-.449-.001-.674-.004-.433-.007-.941-.009-1.431.008-1.97.075-3.46.148-4.831.233-.313.02-.643.089-.963.156l-.094.02c-.143.03-.288.059-.44.087l-.382.069-.039-.892Zm.377,5.145c-.031-.445-.094-.902-.157-1.343-.032-.223-.065-.452-.094-.689l-.047-.379h9.131l.085,2.302c.047,1.304.094,2.594.153,3.883.017.397.056.802.098,1.217.034.339.066.676.087,1.015.019.296.015.582.009.928-.003.152-.005.307-.005.469v.303l-.557.065c-.144.017-.286.035-.429.042-.654.031-1.318.093-1.962.152-.539.051-1.042.097-1.545.13l-.05.003c-.632.043-1.349.093-2.035.161-.405.04-.807.104-1.232.169l-.126.02c-.153.024-.308.047-.469.071l-.367.054-.035-.69c-.009-.214-.017-.393-.038-.568-.089-.814-.117-1.629-.144-2.417-.024-.687-.047-1.354-.104-2.002-.051-.58-.079-1.173-.104-1.696-.019-.401-.038-.8-.065-1.201Zm9.275,11.17c.23,2.914.214,5.863.198,8.716-.007,1.19-.012,2.382-.003,3.572.003.203.003.407.003.627v.83s-.274.052-.274.052c-2.899.57-5.796.854-7.996,1.038l-.355.03-.094-2.94c-.046-1.459-.093-2.912-.125-4.365-.015-.608-.012-1.217-.008-1.825v-.137c.003-.508.005-1.018-.004-1.526-.005-.251-.003-.503,0-.754.007-.695.013-1.4-.148-2.072-.089-.37-.069-.742-.048-1.138l.004-.089c.008-.144.015-.292.015-.444v-.338h.632c.187.004.359.003.529-.001.464-.02.929-.036,1.396-.052,1.268-.044,2.571-.09,3.841-.204.192-.017.383-.043.574-.07.491-.065.984-.129,1.553-.085l.309.028-.003.608c-.004.195-.008.37.005.541Zm.144,21.952c-1.973.553-3.965.808-5.892,1.054-.949.122-1.933.247-2.902.409l-.475.077.207-1.15c.09-.522.171-.997.277-1.479.151-.687.215-1.393.198-2.157-.013-.522-.011-1.046-.008-1.584l.004-1.045.312-.026c.27-.02.539-.039.806-.058l.327-.024c.785-.054,1.599-.11,2.406-.192.515-.052,1.04-.136,1.548-.218l.151-.024c.251-.039.503-.079.754-.114.157-.023.315-.034.473-.044l.046-.004c.101-.007.202-.013.301-.022.179-.019.359-.04.55-.063l.698-.081.031.346c.059.695.05,1.404.04,2.09-.019,1.27-.038,2.581.379,3.881l.106.334-.338.095Zm1.719-38.411c-.254-.966-.261-1.9-.268-2.804-.004-.601-.008-1.167-.081-1.729-.172-1.317-.161-2.643-.151-3.924.007-.791.013-1.587-.02-2.375-.007-.121-.005-.245-.003-.377v-.492s.317-.02.317-.02c.432-.026.858-.048,1.28-.071l.097-.005c1.031-.054,2.006-.104,2.995-.204,1.674-.172,3.055-.243,4.379-.211.124.004.249.004.387,0h.651l-.024.36c-.017.261-.013.522-.009.775.009.547.02,1.114-.186,1.694-.046.128-.034.321-.022.508.007.122.013.245.009.363l-.272,8.732-.313.013c-.485.022-1.021.031-1.681.031-.391,0-.783-.003-1.166-.007l-.352-.003c-.346-.001-.69-.004-1.048-.004-.96.004-1.924.007-2.893.003h-1.563s-.066-.253-.066-.253Zm1.101,24.397l-.19-8.004c-.007-.251-.005-.503-.003-.761v-.559s.182-.095.182-.095c.641-.331,1.313-.375,1.891-.39.403-.011.822-.059,1.225-.106.3-.035.573-.067.849-.09.214-.017.429-.019.643-.02.444-.003.862-.005,1.259-.157.234-.091.492-.07.705-.052l.052.004c.085.005.173.012.268.012h.328l.073,2.265c.054,1.642.106,3.248.148,4.855.012.479.009.959.007,1.439-.004.428-.007.855.001,1.283.005.246.003.492-.001.74-.009.686-.019,1.396.167,2.067.083.303.065.609.046.933-.009.167-.017.301-.017.441v.277l-.272.054c-1.318.268-2.67.48-3.975.686-1.025.161-2.051.323-3.054.506l-.336.063-.058-.34c-.188-1.116-.165-2.901.054-4.242.031-.196.024-.416.016-.628l-.005-.178Zm7.436-18.329c0,.015.001.034.001.048.003.062.004.105.003.145l-.261,5.443c-.221.441-.627.515-.956.53-1.538.07-2.828.136-4.122.23-.44.032-.881.101-1.348.175-.223.035-.446.07-.675.102l-.339.048-.078-.589c-.024-.175-.046-.321-.051-.469-.022-.496-.035-.994-.047-1.493l-.005-.182c-.028-1.15-.059-2.454-.195-3.692-.1-.9-.129-1.782-.157-2.635l-.024-.701.235-.082c.917-.325,1.81-.329,2.672-.334h.371c.204-.001.412-.003.616-.008.297-.016.605-.007.902,0h.047c.689.016,1.401.034,2.087-.165.321-.094.652-.069.943-.047.132.009.269.019.407.019h.375l-.2,1.959c-.015.147-.008.303-.001.467.016.385.034.811-.2,1.229Zm1.044,29.434c-1.358.597-2.816,1.044-4.454,1.366-.986.194-1.95.421-2.969.662-.496.12-.958.229-1.426.335l-.577.133.179-.565c.195-.613.182-1.248.168-1.861-.008-.359-.016-.729.015-1.103.05-.582.106-1.163.165-1.771l.143-1.485.253-.046c.469-.082.941-.168,1.415-.256l.075-.013c1.976-.364,4.018-.741,6.122-.871l.309-.019.818,5.39-.235.104Zm.604-62.634c-.047.452-.044.888-.042,1.309.004.639.008,1.24-.147,1.868-.086.354-.07.746-.052,1.162.009.225.019.477.009.726-.047,1.276-.1,2.553-.152,3.844l-.128,3.132-.496.043c-.163.015-.344.031-.526.04-.433.024-.866.042-1.299.058-.927.036-1.884.074-2.813.186-.317.038-.635.079-.951.121-1.03.136-2.094.277-3.168.304-.097.003-.225.048-.36.097-.089.031-.182.063-.285.094l-.379.11-.05-.393c-.091-.698-.078-1.391-.066-2.059.007-.347.013-.672.008-.998-.012-.738-.009-1.478-.007-2.215l.004-.842-.003-.859c-.004-.724-.008-1.469.026-2.207.031-.672.09-1.323.167-2.105l.027-.296c.022-.225.043-.452.062-.683l.026-.295.296-.013c.054-.003.11-.004.169-.005l.077-.003c.187-.004.377-.008.558-.034.992-.14,1.997-.151,2.968-.161h.058c.806-.009,1.638-.019,2.441-.106.632-.069,1.241-.086,1.888-.105.546-.015,1.151-.032,1.775-.087l.41-.035-.044.407Zm.366-8.112c-.114.898-.134,1.817-.155,2.706-.009.429-.019.838-.036,1.245-.017.449-.087.885-.16,1.345l-.009.056c-.031.195-.062.395-.09.601l-.035.274-.468.034c-.175.013-.37.028-.563.028-.632.004-1.268.005-1.902.005l-1.358.003c-1.56.005-3.07.207-4.341.403-.184.027-.377.04-.609.04-.161,0-.324-.005-.491-.012-.168-.007-.342-.013-.519-.013h-.338v-3.229c0-1.446,0-2.89.019-4.336.005-.457.061-.916.11-1.321l.015-.129c.017-.137.032-.27.046-.401l.024-.253.251-.047c1.677-.312,3.316-.315,4.902-.317.572-.001,1.14-.003,1.709-.017.2-.004.401-.005.602-.003.612.012,1.162.007,1.704-.171.308-.102.616-.081.944-.058l.046.003c.125.008.256.017.39.017h.338v.338c0,.324.009.639.017.947l.003.093c.022.75.042,1.46-.046,2.168Zm.492-17.23c-.022.277-.04.527-.044.775-.007.514-.008,1.027-.009,1.54v.14c-.004.806-.008,1.639-.035,2.461-.031.943-.091,1.883-.149,2.791-.027.42-.054.846-.079,1.279l-.028.11c-.222.398-.64.461-.937.477-.284.016-.566.027-.85.038-.802.031-1.631.062-2.418.206-.553.1-1.101.106-1.633.113-.576.008-1.081.016-1.571.116-.694.141-1.349.148-2.043.155-.393.004-.792.008-1.2.038l-.37.027.008-.371c.012-.799.007-1.595.001-2.39-.013-2.08-.027-4.232.282-6.397l.036-.249.246-.038c1.014-.157,2.027-.328,3.042-.498l.102-.017c2.375-.399,4.832-.812,7.304-1.066l.399-.042-.055.804Zm.125-4.16c-.001.467-.017.53-.242.967l-.07.134-.156.058-10.647,1.701-.069-.312c-.208-.966-.098-1.908.008-2.821.069-.593.14-1.208.116-1.81-.046-1.072-.035-2.129-.024-3.249l.003-.319c.003-.402.007-.81.007-1.222v-.296l.292-.039c.481-.067.959-.13,1.432-.194l.282-.038c1.171-.155,2.497-.329,3.784-.541,1.224-.202,2.446-.446,3.63-.683l.352-.069c.442-.089.89-.178,1.345-.265l.461-.09-.104.769c-.03.227-.055.418-.082.608-.012.087-.027.173-.042.262-.02.125-.039.239-.052.355-.225,2.076-.225,4.204-.225,6.263v.83Zm1.162,9.718c.004-.9.008-1.814.038-2.715.026-.804.089-1.595.155-2.433l.024-.305c.024-.3.048-.605.07-.916l.017-.254,11.34-2.394.019.397c.008.163.017.323.028.481.048.811.093,1.563-.114,2.345-.048.186-.05.413-.051.615v.05c-.004.243-.004.49-.003.737v.148c.003.397.004.792-.007,1.186-.036,1.296-.078,2.59-.12,3.897l-.075,2.314-.207.082c-.51.195-1.062.219-1.697.073-1.076-.253-2.063-.25-3.018.005-.183.046-.359.042-.511.035l-.192-.005c-.792.005-1.623-.003-2.434.017-.152.001-.303.003-.457-.001h-.218c-.485-.008-.964-.009-1.413.164-.122.047-.253.069-.412.069-.079,0-.161-.005-.245-.012l-.043-.003c-.091-.008-.187-.016-.282-.016h-.375l.039-.371c.012-.117.024-.227.038-.336l.017-.151c.04-.328.07-.58.075-.839.011-.621.013-1.243.015-1.864Zm-.007-8.684l.167-.539c.246-.788.251-1.504.257-2.196.001-.273.004-.539.019-.806.019-.335.056-.67.094-.992l.007-.063c.03-.251.059-.504.079-.758.012-.139.02-.278.03-.418l.005-.106c.027-.438.054-.874.139-1.319.122-.632.152-1.286.184-1.978.013-.305.028-.616.051-.932l.017-.225.719-.245c.371-.128.737-.254,1.104-.373,1.763-.577,3.529-1.151,5.296-1.723,1.072-.346,2.146-.685,3.221-1.019.124-.043.235-.011.325.015.044.013.078.023.121.032l.262.061.003.268c.043,3.911.043,7.445-.401,11.095l-.035.278-.278.019c-2.713.186-5.342.719-8.127,1.283l-.151.031c-.843.171-1.694.343-2.557.506l-.553.106Zm11.213,14.809l-.016.407c-.009.233-.02.457-.032.679-.028.51-.048.933-.046,1.366.008.949-.062,1.93-.122,2.795-.082,1.165-.167,2.368-.095,3.55v.036s-.008.067-.008.067c-.192.545-.19,1.1-.187,1.688v.052c0,.276,0,.561-.019.854l-.02.316h-11.283l.011-.348c.017-.624.015-1.251.012-1.856-.004-.953-.008-1.941.069-2.92.087-1.112.114-2.251.139-3.256.012-.484.024-.966.042-1.447l.008-.281.143-.022,11.407-1.682Zm-11.369,13.1h.001v.172l.012-.172c.206.001.39-.001.577.003h.081c1.361,0,2.645-.136,3.918-.417.055-.009.098-.012.141-.013l6.073-.262.013.338c.003.078.013.153.022.227.031.231.062.463-.02.68-.173.472-.167.964-.159,1.486.003.179.005.358,0,.535-.034,1.28-.113,2.578-.19,3.833l-.074,1.237c-.042.71-.069,1.421-.095,2.133l-.007.179c-.023.6-.046,1.187-.075,1.775-.007.149-.043.284-.081.426l-.013.051c-.013.051-.028.105-.042.165l-.066.292-.299-.031c-1.943-.202-3.916-.192-5.818-.173h-.221c-1.369.013-2.6.022-3.85-.024l-.13-.003-.126-.126c-.032-.03-.063-.061-.091-.101-.044-.066-.1-.163-.1-.288v-11.921s.619-.001.619-.001Zm9.636,17.83v.017c.001.026.001.061,0,.093l-.083,1.555c-.044.807-.087,1.614-.128,2.421-.073,1.462-.143,2.925-.214,4.418l-.075,1.559h-9.406l-.054-.272c-.153-.764-.192-10.466-.048-11.931l.035-.362.358.061c.667.113,1.348.105,2.103.093l.126-.003c.274-.004.549-.008.828-.001.728.012,1.458.009,2.192.005h4.625s-.047.378-.047.378c-.027.218-.022.434-.013.674.013.426.027.863-.199,1.296Zm-.44,12.783v8.883l-.36-.024c-.323-.02-.639-.056-.948-.091-.628-.07-1.221-.143-1.781-.063-1.279.171-2.575.157-3.728.152-.648-.004-1.315-.008-1.977.015-.079.003-.161.004-.243.004l-.754-.003v-9.329l.506-.038c.168-.013.328-.026.485-.026,1.505-.003,3.012-.003,4.523,0h2.714c.446.001,1.002.001,1.455.418l.109.102Zm-1.096,27.203c-.818.836-1.822,1.42-2.606,1.836-.914.484-1.864.9-2.782,1.302l-.136.061c-.635.277-1.274.535-1.95.81-.331.133-.659.266-1.001.405l-.465.192v-.504c0-.12-.007-.227-.013-.324-.016-.231-.031-.451.043-.66.167-.465.161-.948.156-1.46-.001-.286-.003-.541.016-.795.024-.312.087-.608.143-.87l.098-.508,1.381-.28c.878-.18,1.786-.367,2.679-.53.409-.075.823-.122,1.224-.167l.168-.019c.203-.023.403-.046.607-.073.426-.059.853-.124,1.278-.188l.866-.129.426,1.77-.13.133Zm.659-13.6l-.097.728c-.005.046-.013.093-.022.141-.012.069-.019.112-.022.155-.024.339-.046.676-.067,1.015-.047.738-.094,1.482-.173,2.214l-.095.85c-.149,1.326-.303,2.687-.316,4.03-.003.276-.077.535-.148.785-.031.112-.062.219-.087.331l-.052.233-.238.027c-2.394.278-4.965.609-7.551,1.135l-.342.069-.061-.342c-.186-1.054-.256-8.935-.121-13.602l.008-.312,1.547-.071c1.348-.062,2.665-.121,3.981-.175.245-.013.49-.012.742-.008h.247c.147-.001.292-.003.437-.007.502-.022,1.006-.05,1.533-.081l1.062-.061.028.328c.003.034.008.071.013.112.028.19.056.386.034.592-.065.59-.143,1.179-.222,1.768l-.019.145Zm1.189,11.68l-.056.237c-.008.074-.038.136-.09.187l-.043.09-.281.144-.089.011-.537.29.237-.57-.117-.243.227-.112.02-.044.087-.046c.081-.089.183-.122.292-.102l.527-.251-.178.41Zm4.447-12.348c-.031.188-.056.34-.071.494-.169,1.927-.347,3.665-.789,5.408-.295,1.158-.75,2.288-1.477,3.666-.184.346-.386.68-.582,1.005-.093.149-.178.292-.262.433l-.1.165h-1.82l.036-.37c.03-.315.034-.633.038-.941.008-.558.016-1.111.156-1.677.11-.455.139-.956.167-1.44.019-.347.036-.66.074-.97.12-.992.266-1.997.407-2.968l.059-.417c.047-.334.1-.667.151-1.001l.032-.2c.056-.368.114-.738.168-1.108.073-.498.139-.995.204-1.502l.101-.754.106-.083s.013-.016.027-.03c.083-.089.211-.221.407-.223.734-.011,1.473-.009,2.25-.009h1.084s-.367,2.524-.367,2.524Zm1.534-7.286h0c-.034.648-.2,1.282-.362,1.895l-.017.063c-.065.251-.132.504-.187.758l-.061.265h-4.282l.056-.387c.136-.914.125-1.849.114-2.752-.005-.402-.011-.784-.004-1.166.009-.83.008-1.661.007-2.493l-.003-1.036c0-.29,0-.726.494-1.046l.095-.063.113.008c.364.031.726.013,1.108-.001.912-.034,1.809-.059,2.749.343l.204.091v.221c0,.428.004.857.009,1.286l.003.304c.012,1.216.024,2.473-.038,3.71Zm.097-18.138v.007c-.012.036-.027.066-.042.091-.022.494-.055.988-.089,1.482-.082,1.177-.165,2.395-.082,3.581.056.82.077,1.65.094,2.452l.005.227c.011.44.022.88.039,1.321.004.09-.013.165-.028.233l-.042.217-.086.078c-.377.338-.796.377-1.079.377-.159,0-.315-.013-.465-.028-.217-.019-.39-.036-.565-.017-.518.055-1.304.079-2.109-.352l-.178-.097v-.202c0-.57-.013-1.144-.027-1.721-.03-1.322-.061-2.68.066-4.026.104-1.112.114-2.206.125-3.363.008-.931.016-1.849.071-2.784l.019-.317h4.42l.034.402c.063.802.128,1.612-.083,2.442Zm-4.224-5.426l-.058-.293c-.165-.847-.173-2.386-.016-3.229.05-.261.058-.549.059-.795.003-.449.001-.9,0-1.349v-.338c-.004-.98-.007-1.994.016-2.999.02-.924.075-1.879.124-2.721l.019-.332c.017-.295.034-.588.048-.878l.011-.234.223-.071c1.29-.424,2.474-.243,3.46-.012l.282.066-.022.289c-.017.227-.013.46-.009.706.007.538.013,1.075-.156,1.646-.124.42-.121.967.005,1.427.113.402.128.783.143,1.15l.013.301c.027.464.043.929.059,1.395.034.972.069,1.945.195,2.878.09.656.108,1.282.126,1.943.007.272.013.529.026.788l.016.329-4.566.332Zm5.769-25.662c-.015.693-.134,1.348-.241,1.924-.061.328-.118.652-.161.979-.032.253-.061.507-.089.763l-.019.171c-.073.662-.148,1.346-.273,2.028-.102.557-.145,1.144-.188,1.713-.027.381-.056.758-.1,1.131-.078.658-.176,1.319-.27,1.961-.046.305-.091.613-.136.927l-.034.246-.246.04c-.184.03-.374.044-.58.044-.414,0-.819-.061-1.21-.118-.541-.082-1.089-.161-1.647-.083l-.417.061.032-.422c.038-.468.022-.931.005-1.377-.028-.82-.055-1.594.198-2.407.04-.132.028-.319.016-.5-.008-.13-.016-.258-.012-.382.059-1.766.12-3.53.184-5.386l.069-1.938,5.127.3-.008.327Zm2.831-15.845c-.016.151-.034.293-.063.432-.063.296-.128.592-.194.885-.114.507-.222.988-.313,1.473-.091.476-.164.967-.234,1.442l-.009.067c-.094.633-.199,1.352-.352,2.045-.14.621-.223,1.274-.305,1.904l-.019.147c-.032.251-.066.503-.102.753l-.093.636c-.098.679-.208,1.448-.338,2.201-.036.211-.133.401-.211.551-.032.062-.062.118-.085.175l-.083.191-.538.032c-1.288.075-2.554.149-3.821.221-.078.004-.156.005-.239.005l-.831-.005.016-.352c.022-.451.036-.892.051-1.326l.008-.241c.039-1.167.074-2.246.196-3.328.065-.559.077-1.136.087-1.694v-.052c.015-.663.028-1.415.139-2.13.093-.594.102-1.177.113-1.794.009-.484.019-1.031.078-1.59l.016-.143.109-.087c.019-.013.031-.03.047-.046.106-.108.254-.258.469-.288.457-.065.919-.118,1.378-.171.764-.089,1.536-.178,2.279-.32.882-.165,1.693-.222,2.55-.179l.364.016-.071.57Zm2.336-16.001h0c-.04.108-.046.268-.046.41.001.796-.153,1.551-.303,2.281l-.081.407c-.143.725-.227,1.485-.308,2.219-.043.382-.085.757-.134,1.132-.026.192-.059.385-.091.576l-.009.056c-.035.206-.071.412-.094.619-.012.112-.013.221-.015.332,0,.344,0,.701-.207,1.062-.007.026.003.143.008.204.007.102.012.206.005.3l-.05.615c-.048.607-.1,1.235-.175,1.85-.028.221-.13.414-.221.585-.038.07-.073.137-.105.208l-.11.237-.253-.042c-.867-.141-1.676.117-2.527.398-.364.12-.706.23-1.054.315-.658.161-1.302.347-1.984.543l-.202.058c-.272.079-.547.157-.827.235l-.328.094-.089-.332c-.182-.685-.198-1.43-.05-2.214.122-.648.126-1.322.13-1.972.001-.445.005-.826.03-1.216.028-.426.042-.853.055-1.28.026-.824.052-1.676.186-2.511.081-.515.1-1.046.117-1.559.015-.428.03-.816.066-1.236l.02-.214.202-.074c1.72-.62,3.323-1.586,4.874-2.519,1.017-.612,2.068-1.245,3.177-1.798l.438-.217.061.609c.063.624.122,1.212-.106,1.834Zm.559-11.735v.004c-.003.023-.005.046-.005.067v1.114c0,1.337,0,2.675-.015,4.01-.001.235-.062.451-.12.658-.028.108-.048.178-.063.247l-.031.136-.116.075c-.167.11-.334.227-.499.344-.346.247-.737.529-1.162.726-.754.352-1.502.719-2.25,1.089-1.513.745-3.078,1.516-4.689,2.136-2.316.893-4.324,1.837-6.138,2.886-1.27.733-2.374,1.214-3.471,1.514-.117.032-.237.067-.354.102-.346.101-.736.215-1.13.273-1.409.207-2.842.491-4.255.845-.772.192-1.564.324-2.329.451l-.052.008c-.453.074-.905.149-1.356.235-.666.129-1.345.199-2.001.268l-.075-.165h0l.017.17c-.568.059-1.155.121-1.717.219-.444.078-.888.082-1.317.086-.683.004-1.303.008-1.883.264l-.085.035-.087-.008c-.635-.071-1.291.013-1.922.098-.386.05-.822.108-1.248.124-.659.027-1.319.052-1.978.077l-.355.013c-1.144.044-2.289.087-3.433.143-.299.015-.608.056-.906.098-.289.039-.584.079-.88.098-.172.011-.338.013-.511.015-.752,0-1.471-.105-2.075-.207-.257-.044-.524-.036-.815-.034h-.065c-.477.022-1.022.032-1.563-.203l-.02.003c-.027.001-.055.003-.082.003-1.1-.007-2.254-.141-3.744-.437l-.043.003c-.37-.02-.728-.034-1.087-.047l-.175-.007c-.979-.038-1.953-.075-2.908-.198-.371-.047-.76-.067-1.135-.086-.773-.04-1.544-.079-2.302-.319-.046.008-.091.004-.128.001l-.826-.059c-.732-.051-1.462-.104-2.191-.171-.288-.026-.572-.075-.846-.122-.183-.032-.366-.063-.549-.089-.104-.011-.222-.008-.363-.003-.264.016-.655.04-1.018-.208-.052.005-.063.001-.083-.003-.313-.022-.635-.032-.955-.043-.726-.023-1.478-.047-2.206-.226-.534-.132-1.101-.132-1.603-.132-.032.004-.075.001-.121,0h-.035c-.633,0-1.356-.004-2.068-.258-.044-.017-.143-.008-.18-.003-.079.007-.157.007-.234.004-.304-.019-.607-.031-.91-.042l-.13-.005c-.783-.028-1.672-.061-2.518-.211-1.278-.23-2.593-.412-3.727-.565-1.142-.155-2.284-.385-3.388-.607-.62-.126-1.22-.247-1.82-.358-.851-.153-1.694-.401-2.508-.639l-.104-.03c-.655-.191-1.331-.387-1.998-.531-1.645-.356-3.253-.902-4.81-1.431l-.043-.015c-.637-.218-1.275-.433-1.915-.637-2.074-.664-3.998-1.22-5.884-1.699-1.592-.406-3.163-.683-4.355-.88-1.872-.311-3.771-.761-5.646-1.341-.126-.039-.215-.116-.309-.203l-.031-.027c-.028-.026-.059-.052-.095-.081l-.117-.094-.011-.148c-.02-.288-.036-.581-.052-.881-.036-.695-.073-1.413-.18-2.11-.061-.394-.085-.8-.105-1.159-.035-.611-.069-1.186-.249-1.742-.022-.069-.024-.128-.024-.176l-.268-3.774.221-.094c.496-.212.905-.378,1.271-.523,1.772-.711,2.507-1.006,7.664-4.78l.421-.308.253,1.178c.093.441.186.874.285,1.304.286,1.232.742,2.378,1.354,3.404.679,1.138,1.434,1.842,2.374,2.218.194.079.373.183.545.285.059.035.118.071.182.106h.615c.383-.007.788-.004,1.189.003h.077c1.196,0,2.366-.395,3.579-1.209.94-.635,1.922-1.343,2.727-2.236.164-.18.347-.309.542-.446.09-.063.176-.125.265-.194l.362-.277.161.424c.582,1.512,1.364,2.891,2.387,4.22.685.888,1.526,1.891,2.57,2.597.62.42,1.144.607,1.699.607h.074c.187-.007.387-.005.588-.001h.074c.6.012,1.222.03,1.817-.204,1.171-.461,2.132-1.03,2.936-1.74.806-.709,1.582-1.417,2.405-2.169l1.298-1.183.222.307c.172.239.344.488.516.738.368.535.749,1.088,1.177,1.583,1.639,1.9,3.343,3.105,5.211,3.688,1.738.538,3.487.331,5.355-.639,1.31-.68,2.547-1.622,3.675-2.799l.208-.217.238.182c.324.243.641.494.956.744.679.533,1.365,1.07,2.07,1.522,1.385.886,2.809,1.317,4.355,1.317.101,0,.203-.003.307-.005,1.596-.058,2.885-.399,4.055-1.073.897-.516,1.524-.994,2.033-1.551.689-.754,1.42-1.533,2.175-2.313.233-.239.485-.46.689-.637.112-.098.192-.168.268-.237l.077-.071.105-.013c1.104-.159,1.911.356,2.622.812,1.549.987,3.004,1.672,4.47,2.107.383.116.82.122,1.245.112.139-.004.28,0,.417.004l.278.004c1.46,0,2.854-.485,4.263-1.482.888-.629,1.657-1.47,2.351-2.569.067-.108.148-.206.25-.327.05-.059.102-.12.16-.191l.196-.245.26.18c.075.052.149.102.222.152.153.101.303.203.446.315,1.099.858,2.188,1.471,3.33,1.873.272.095.563.152.873.211l.059.012c.106.02.215.04.324.065.139-.035.28-.069.422-.102.368-.085.738-.171,1.084-.295.647-.233,1.225-.683,1.767-1.377.371-.475.734-.956,1.109-1.452l.578-.765.218.055c.211.055.422.101.632.147.483.106.967.212,1.426.403,1.368.568,2.89.745,4.785.553,1.423-.145,2.738-.784,3.908-1.898,1.442-1.373,2.357-3.099,3.32-5.047l.151-.301.301.148c.526.257.511.788.504,1.042-.022,1.091.2,2.18.414,3.232.062.308.121.604.176.898.136.726.222,1.467.305,2.183.043.368.086.736.134,1.103.026.178.055.358.086.535.043.242.085.484.112.729.013.126.015.254.015.382-.001.242-.003.451.112.619.102.151.09.317.081.44Zm-9.548-67.733c.62.218,1.206.424,1.791.624.153.052.278.079.386.083,2.208.046,4.169.988,5.824,2.801l.231.254c.457.5.929,1.018,1.416,1.502.939.933,1.754,2.123,2.491,3.636.979,2.009,2.37,3.493,4.252,4.532.728.402,1.49.925,2.399,1.649.827.659,1.459,1.572,1.876,2.715.167.455.227.936.286,1.401l.015.118c.167,1.303.655,2.469,1.451,3.467.262.329.617.623,1.001.826.321.168.637.348.955.53.857.49,1.731.99,2.676,1.213.832.195,1.668.379,2.504.562l.399.087c.289.063.581.121.871.178,1.205.237,2.452.481,3.604,1.159,1.198.706,2.438,1.52,3.275,3.01l.143.256-.234.179c-.211.16-.42.324-.628.488l-.153.12c-.598.469-1.189.933-1.809,1.337-3.09,2.012-5.889,3.825-8.833,5.635-1.787,1.1-3.526,1.781-5.315,2.08-.966.163-1.945.394-2.893.617l-.067.016c-.904.214-1.837.434-2.768.596-1.216.211-2.401.39-3.615.251-.338-.042-.68-.116-.982-.182-.16-.035-.324-.07-.498-.104l-.149-.031-.184-.313-.828-.203c-.693-.169-1.391-.339-2.093-.5l-.182-.042c-.539-.126-1.15-.268-1.732-.344-.307-.04-.631-.054-.945-.067-.57-.023-1.143-.047-1.699-.208-.368-.109-.752-.117-1.158-.126-.543-.012-1.103-.026-1.657-.278-.023-.004-.109-.001-.167.005-.319.027-.615.019-.898.012-.116-.003-.231-.005-.347-.007h-.085c-.733-.005-1.487-.011-2.224.012l-.101.004c-1.251.038-2.665.081-4.008.227-.546.059-1.115.182-1.615.288-.592.125-1.202.254-1.818.311-1.209.114-2.347.449-3.684.914-1.243.433-2.435.941-3.546,1.51-2.165,1.109-4.297,2.281-6.66,3.588-.468.258-.936.55-1.389.832-.659.412-1.333.832-2.036,1.174l-.239.117c-1.973.96-4.009,1.953-6.161,2.608-.787.242-1.59.44-2.366.631l-.061.015c-.746.184-1.518.375-2.263.602-.284.089-.577.118-.859.147-.149.016-.278.031-.412.05l-.923.133.623-.693c.175-.198.35-.395.523-.592.36-.412.769-.878,1.182-1.309,1.466-1.528,2.548-3.28,3.811-5.412.426-.721.836-1.471,1.198-2.134.452-.827.9-1.646,1.374-2.433,1.517-2.505,3.296-4.648,5.287-6.37l.044-.038c1.967-1.703,4.001-3.46,6.444-4.528,1.6-.701,3.189-1.358,4.719-1.957.399-.157.893-.21,1.365-.13.787.117,1.576.284,2.341.445l.6.128c.258.054.516.114.775.175l.102.024c.456.11.9.214,1.337.286,1.318.215,2.422.921,3.396,1.544,1.568,1.001,3.331,1.785,5.387,2.399.947.282,1.896.554,2.846.826.863.246,1.725.492,2.585.748.597.176,1.192.389,1.766.594l.09.032c.983.355,2,.721,3.039.919l.652.126c.434.085.866.168,1.299.243.334.058.667.109,1.001.159.488.074,1.095.165,1.673.286.659.137,1.339.212,1.996.286.455.051.91.102,1.357.169,1.368.21,2.758.192,4.121.173l.78-.008c1.139-.011,2.364-.367,3.747-1.088.725-.381.905-.475.758-1.584-.356-.414-.682-.6-1.311-.41-.738.223-1.497.421-2.167.594l-.094.024c-.799.21-1.626.425-2.423.682-.65.206-1.333.26-1.994.312-.305.023-.617.048-.935.089l-.36.044-.019-.362c-.005-.1-.017-.194-.028-.284l-.007-.048c-.031-.239-.063-.485.019-.715.151-.42.151-.862.151-1.329,0-.21,0-.407.011-.605.022-.416.035-.834.048-1.249.028-.906.058-1.837.178-2.756l.066-.519c.258-2.025.526-4.114,1.352-6.05.151-.351.305-.699.46-1.045l.032-.074c.175-.393.35-.787.515-1.182.039-.093.082-.183.126-.274l.02-.04c.149-.3.278-.561.237-.909l-.476-.547h-.752c-.535.403-.847,1.003-1.084,1.54l-.227.511c-.494,1.105-1.003,2.247-1.309,3.445-.269,1.049-.461,2.16-.589,3.394-.058.555-.069,1.13-.079,1.685-.013.74-.028,1.481-.14,2.203-.118.775-.118,1.54-.118,2.349.001.574.003,1.226-.054,1.88l-.015.157-.13.09c-.543.379-1.097.143-1.458-.013-.11-.047-.217-.093-.321-.122-2.769-.763-5.57-1.781-8.561-3.111-.927-.413-1.885-.799-2.812-1.171l-.094-.038c-.992-.399-2.117-.851-3.182-1.334l-.373-.168c-1.493-.674-3.022-1.365-4.414-2.333-.286-.198-.598-.362-.928-.537l-.065-.034c-.141-.077-.286-.153-.434-.235l-.281-.159.145-.289c.153-.307.3-.608.444-.906.299-.62.607-1.26.964-1.863,1.052-1.774,1.797-3.718,2.279-5.946.226-1.046.424-2.14.597-3.105.143-.797.286-1.596.448-2.391.184-.92.385-1.836.586-2.752l.039-.18c.178-.808.354-1.616.519-2.429.065-.319.104-.658.14-.984l.005-.046c.035-.327.071-.647.129-.963.155-.838.335-1.708.495-2.474l.29-1.411,1.154.405Zm-52.129-44.171c.023-.198.036-.398.05-.598.035-.485.07-.97.206-1.431.098-.331.129-.672.161-1.034.035-.399.069-.781.179-1.166.126-.433.173-.897.221-1.346.042-.399.081-.772.16-1.143.114-.534.147-1.108.179-1.664.016-.286.032-.57.059-.854.032-.346.07-.69.108-1.034.032-.292.065-.586.093-.88.015-.171.011-.344.004-.555-.013-.417-.028-.889.202-1.348,0-.019-.003-.042-.004-.058-.004-.051-.007-.106-.004-.157l.061-1.313c.048-1.036.097-2.072.159-3.108.02-.328.071-.66.116-.955.028-.18.056-.36.078-.543.016-.124.011-.257.005-.398-.012-.324-.027-.721.204-1.095.001-.019.001-.054-.004-.122-.003-.056-.005-.106-.004-.153.007-.941.148-1.864.284-2.757l.101-.672c.047-.329.069-.679.087-.987.027-.426.054-.845.128-1.263.069-.377.114-.769.159-1.148.061-.507.125-1.06.242-1.595.061-.273.085-.557.109-.857.022-.251.044-.539.097-.824.12-.662.217-1.364.293-1.928.086-.635.184-1.354.316-2.059.104-.554.161-1.148.212-1.672.061-.631.122-1.282.258-1.923.058-.277.083-.573.108-.858.04-.465.081-.924.231-1.385.087-.265.101-.569.117-.892.012-.268.026-.568.087-.867.09-.434.112-.905.133-1.361.02-.446.042-.939.129-1.405.108-.578.171-1.196.227-1.74.077-.744.156-1.513.335-2.269.139-.586.202-1.208.264-1.809.05-.481.1-.966.183-1.439.199-1.124.429-2.275.632-3.291.16-.804.32-1.607.472-2.414.313-1.681.807-3.327,1.284-4.919.277-.923.558-1.864.803-2.797.281-1.08.541-2.231.75-3.156l.03-.126c.229-1.005.465-2.043.73-3.055.343-1.319.763-2.672,1.132-3.866l.391-1.272c.227-.748.465-1.491.703-2.236.494-1.543.995-3.107,1.387-4.671.52-2.074,1.178-3.901,2.013-5.588.982-1.981,1.984-3.684,3.066-5.206.488-.686,1.197-1.214,2.107-1.572l.344-.136c.877-.348,1.77-.702,2.71-.908.909-.199,1.806-.37,2.831-.256,1.887.204,3.537.995,5.347,1.93,1.404.73,2.335,2.08,2.692,3.908l.144.749c.238,1.237.484,2.516.845,3.741.136.468.167.955.198,1.427.015.214.028.429.052.641.07.616.144,1.233.221,1.863l.113.949-.089.112c-.163.199-.327.398-.494.598l-.079.098c-.444.534-.884,1.064-1.296,1.607-.992,1.304-1.885,2.516-2.731,3.704-1.201,1.682-2.259,3.201-3.236,4.64-.808,1.193-1.6,2.43-2.366,3.627l-.091.144c-1.173,1.836-2.285,3.831-3.265,5.59l-.169.303c-.288.515-.576,1.03-.867,1.544-2.234,3.947-4.168,8.041-5.764,11.525-.988,2.158-1.877,4.108-2.757,6.126-1.307,3.004-2.286,5.543-3.082,7.99-.468,1.438-.999,2.877-1.514,4.269l-.065.175c-.316.853-.631,1.704-.935,2.562-.637,1.805-1.435,4.199-1.947,6.697-.553,2.702-1.127,5.083-1.755,7.281-.444,1.551-.795,2.941-1.075,4.252-.284,1.329-.687,2.675-1.042,3.862l-2.002,6.684-.737-.155.034-.307Zm-1.221,31.046c.108-.675.214-1.333.364-1.98.136-.581.206-1.196.274-1.791.054-.48.105-.913.18-1.345l.03-.171c.14-.796.284-1.621.406-2.435.097-.643.21-1.284.323-1.926l.028-.16c.079-.452.159-.905.231-1.357.121-.761.276-1.526.426-2.267l.047-.23c.105-.516.21-1.034.303-1.553.108-.585.202-1.173.296-1.762l.013-.086c.106-.662.215-1.346.343-2.017.117-.621.257-1.248.391-1.855l.016-.07c.118-.526.235-1.052.34-1.58.108-.542.206-1.088.303-1.633.121-.683.239-1.352.377-2.004.222-1.052.477-2.113.725-3.139l.368-1.516c.515-2.132,1.031-4.264,1.564-6.392.175-.693.364-1.381.557-2.07l.058-.212c.136-.488.27-.978.397-1.469l.328-1.251c.354-1.345.756-2.867,1.084-4.336.499-2.231,1.196-4.505,2.072-6.759.507-1.307,1.009-2.617,1.509-3.928l.243-.635c.44-1.151.88-2.304,1.325-3.452.206-.535.424-1.066.641-1.596l.082-.2c.234-.568.468-1.134.689-1.705.418-1.089.828-2.181,1.239-3.275l.161-.429c.235-.627.471-1.253.709-1.879.572-1.501,1.146-3.002,1.732-4.498,1.214-3.097,2.691-6.393,4.645-10.369.97-1.966,2.055-3.998,3.229-6.044,1.428-2.495,2.94-4.953,4.23-7.028.383-.615.823-1.196,1.247-1.758l.11-.145c.188-.249.375-.496.557-.75.413-.574.826-1.151,1.237-1.725.584-.819,1.167-1.637,1.758-2.45.173-.237.34-.48.506-.725.453-.66.921-1.343,1.499-1.903l.211-.203c1.709-1.653,3.476-3.361,5.693-4.392,1.045-.487,2.062-.745,3.107-.789,1.557-.061,2.99.332,4.391.724l.227.063c.67.187,1.333.425,1.974.656l.04.015c.339.121.676.242,1.015.358,1.265.428,2.097,1.381,2.543,2.914l.013.048c.371,1.28.832,2.874,1.182,4.427.192.855.23,1.752.241,2.518l.005.346c.03,1.954.061,3.974-.015,5.991-.052,1.434-.113,3.051-.368,4.632-.081.5-.113,1.021-.143,1.524-.026.399-.048.769-.089,1.131-.091.811-.227,1.614-.359,2.39-.046.269-.063.498-.083.741-.027.34-.054.671-.132,1.011-.155.672-.23,1.401-.297,2.043-.048.464-.093.882-.156,1.303-.239,1.586-.368,2.821-.42,4.006-.022.518-.112,1.03-.198,1.526-.063.358-.13.744-.169,1.118-.051.512-.079,1.05-.105,1.524-.028.526-.061,1.123-.122,1.696-.296,2.696-.253,5.422-.161,7.967l.017.524c.034,1.049.067,2.115.319,3.124.062.251.05.512.042.721l-.003.061c-.001.056-.004.113-.004.169,0,.761.008,1.524.017,2.285l.003.282c.022,2.005.044,4.048-.058,6.054-.082,1.642-.114,3.299-.145,4.899l-.05,1.482c-.178.465-.183.967-.188,1.498-.005.506-.011,1.026-.165,1.547-.082.282-.097.6-.113.935-.016.317-.031.629-.095.943-.125.612-.219,1.245-.309,1.857l-.015.101c-.082.557-.167,1.131-.278,1.696-.126.643-.198,1.318-.268,1.97l-.013.128c-.048.451-.098.916-.167,1.372-.1.652-.214,1.302-.328,1.95-.151.846-.301,1.697-.412,2.536-.116.885-.293,1.762-.464,2.61-.077.377-.145.713-.21,1.048-.106.547-.195,1.1-.292,1.715l-.02.13c-.101.629-.206,1.279-.338,1.915-.1.484-.164.987-.227,1.473-.058.465-.109.854-.178,1.244-.066.379-.093.772-.117,1.151-.038.568-.075,1.153-.241,1.738-.074.26-.083.545-.094.847-.011.307-.023.616-.094.936-.125.55-.155,1.144-.184,1.72-.015.303-.031.604-.059.902-.027.299-.062.596-.098.894-.038.312-.073.609-.098.908-.016.169-.012.339-.007.543.009.455.02.919-.218,1.388.003.003.008.071.011.109.005.063.008.118.008.168.003.884-.124,1.754-.245,2.594l-.024.171c-.036.258-.073.516-.105.777-.097.787-.187,1.556-.217,2.316-.027.636-.148,1.249-.266,1.842-.108.531-.218,1.081-.25,1.633-.007.118-.036.223-.07.328-.017.056-.039.128-.04.171-.011,1.135-.211,2.216-.406,3.124-.019.09-.016.204-.012.324l.003.144c.008,1.065-.169,2.05-.383,3.133-.089.449-.124.931-.156,1.395-.022.308-.044.616-.079.921l-.015.125c-.125,1.038-.254,2.113-.425,3.159-.065.398-.157.803-.239,1.159-.129.561-.262,1.142-.303,1.709-.05.714-.237,1.366-.418,1.997l-.124.438c-.198.73-.37,1.486-.535,2.218l-.011.046c-.182.802-.37,1.63-.597,2.438-.243.863-.446,1.762-.643,2.631l-.015.066c-.313,1.399-.637,2.844-1.151,4.242-.276.748-.609,1.487-1.052,2.331-.116.225-.227.452-.34.683l-.327.663-.245-.035c-.238-.036-.473-.075-.707-.116-.529-.09-1.027-.175-1.537-.203-.912-.046-1.826-.093-2.684.184-.095.031-.192.027-.256.024l-.004-.015c-.827.455-1.721.675-2.586.888-.66.164-1.337.331-1.962.6-1.961.843-3.585,1.798-4.962,2.917l-.354.285c-.51.409-1.038.832-1.497,1.306-.646.663-1.315,1.389-1.85,2.204-.641.978-1.49,1.68-2.309,2.359l-.328.272c-.42.351-.843.699-1.265,1.045-1.118.916-2.273,1.864-3.357,2.899-.882.845-1.834,1.633-2.754,2.394-.413.339-.797.658-1.177.98-.701.593-1.494.968-2.262,1.331l-.073.034c-.183.087-.364.175-.545.264-.768.383-1.56.733-2.327,1.073l-.059.026c-.577.256-1.154.51-1.724.78l-.503.234c-.949.444-1.907.892-2.795,1.42-1.549.927-3.341,2.079-4.864,3.601-.144.145-.277.316-.417.496l-.047.059c-.058.077-.117.152-.178.226l-.151.184-.225-.079c-.231-.081-.465-.167-.703-.253-.574-.21-1.169-.426-1.768-.605-.598-.179-1.204-.323-1.791-.461l-.254-.062c-.164-.039-.327-.078-.487-.118l-.109-.027-.071-.087c-.269-.332-.523-.646-.787-.968l-.264-.324.008-.132c.012-.214.008-.434.004-.656-.011-.563-.022-1.143.196-1.732v-.027c-.004-.036-.005-.074-.004-.113.02-.523.036-1.049.051-1.575.038-1.257.077-2.559.188-3.838.017-.192.031-.386.046-.58l.009-.143c.051-.746.105-1.52.3-2.29.087-.348.11-.722.133-1.119.016-.254.031-.504.062-.749.261-2.095.598-3.981,1.03-5.763.176-.726.292-1.491.405-2.23l.007-.046c.074-.487.148-.976.238-1.46.112-.598.238-1.197.363-1.795.143-.686.284-1.361.403-2.028.081-.442.141-.901.2-1.345.075-.582.149-1.147.261-1.705s.18-1.134.247-1.689c.077-.652.164-1.391.331-2.097.073-.305.09-.636.108-.958.02-.367.042-.783.151-1.171.083-.305.108-.624.132-.959.034-.429.066-.847.211-1.265.091-.264.109-.568.126-.889.015-.251.028-.499.074-.748.148-.815.226-1.681.293-2.444.05-.531.098-1.054.161-1.568.091-.722.204-1.451.313-2.154l.035-.23c.083-.537.165-1.072.238-1.608.047-.348.077-.706.104-1.054.03-.368.063-.784.121-1.183.113-.787.253-1.595.377-2.308.055-.313.109-.625.161-.939l.141-.832c.113-.662.225-1.323.334-1.985.063-.383.124-.764.184-1.147.098-.62.19-1.205.292-1.785.116-.667.243-1.333.371-1.996l.176-.916c.079-.418.148-.838.215-1.259Zm-5.616-78.579c.214.707.387,1.479.563,2.503l.02.116c.441,2.569.896,5.225,1.563,7.814l.043.172c.413,1.603.832,3.229,1.163,4.847.083.409.172.816.262,1.222.253,1.159.515,2.357.648,3.583.065.589.188,1.186.308,1.764.102.49.2.966.27,1.442.074.5.108,1.005.14,1.493.024.362.047.722.087,1.08.051.477.125.937.21,1.47.039.245.081.504.122.78l.004.035-.003.066c-.017.07-.032.118-.05.173-.031.095-.069.217-.073.321-.039.971-.098,1.853-.18,2.696-.086.877-.11,1.782-.132,2.656-.024.914-.048,1.829-.136,2.738-.043.453-.062.923-.078,1.337-.034.87-.069,1.771-.295,2.655-.001.008,0,.026.001.043,0,.056,0,.086-.003.114l-.062,1.139c-.047.874-.095,1.75-.153,2.621-.024.36-.058.719-.093,1.079l-.024.246c-.028.305-.058.611-.079.917-.016.218-.016.436-.016.654-.001.508-.003,1.033-.179,1.567-.048.145-.035.342-.022.55.007.106.012.214.012.319v1.664c-.001.971-.001,1.942-.007,2.916-.004.99.118,2.037.375,3.201.101.464.141.94.178,1.361.02.234.04.46.067.683.078.654-.048,1.256-.171,1.838l-.015.074c-.035.169-.07.339-.098.508-.089.537-.207,1.073-.321,1.591l-.022.097c-.168.761-.342,1.549-.422,2.339-.052.514-.168,1.018-.28,1.506l-.011.047c-.101.444-.204.902-.253,1.35-.1.901-.258,1.742-.456,2.748-.176.9-.355,1.799-.534,2.699l-.367,1.855c-.071.362-.14.728-.207,1.092l-.011.059c-.157.847-.32,1.723-.531,2.585-.191.781-.301,1.607-.398,2.335-.102.756-.204,1.513-.377,2.254-.097.416-.126.866-.153,1.303-.02.311-.039.605-.078.896-.055.424-.129.845-.203,1.267l-.019.113c-.048.273-.095.547-.136.822-.098.662-.179,1.326-.245,1.889-.027.226-.05.452-.073.676l-.019.173c-.069.697-.14,1.419-.295,2.136-.061.281-.075.574-.091.886-.015.319-.031.672-.105,1.025-.097.469-.12.978-.143,1.471-.022.479-.042.941-.117,1.396-.048.3-.071.615-.091.939-.039.585-.079,1.175-.292,1.751.008.069.008.098.007.126-.022.304-.039.613-.056.921-.039.689-.081,1.397-.171,2.095-.09.702-.164,1.431-.229,2.075l-.015.149c-.058.569-.116,1.136-.186,1.701-.074.596-.171,1.194-.265,1.774l-.009.052c-.126.772-.258,1.569-.334,2.368-.056.601-.179,1.201-.309,1.836-.067.331-.134.656-.199,1.005l-.42,2.282-.249-2.306c-.011-.097-.02-.182-.03-.258l-.013-.11c-.027-.204-.044-.352-.046-.504-.003-.371-.001-.741.001-1.111v-.114c.003-.534.005-1.068-.008-1.603-.058-2.207-.128-4.426-.211-6.594-.009-.231-.05-.464-.093-.71-.038-.206-.075-.421-.094-.644-.008-.101-.015-.204-.022-.305-.023-.352-.044-.675-.139-1.001-.098-.343-.113-.693-.129-1.031-.012-.274-.024-.543-.075-.793-.109-.534-.134-1.073-.159-1.596-.02-.442-.04-.884-.108-1.296-.083-.515-.105-1.036-.126-1.537-.03-.691-.058-1.388-.237-2.039-.031-.116-.03-.222-.028-.307.001-.034.001-.063,0-.091-.022-.362-.035-.726-.047-1.091-.03-.816-.061-1.637-.184-2.414-.09-.553-.148-1.114-.198-1.608-.082-.783-.167-1.59-.35-2.359-.12-.495-.153-1.005-.186-1.498-.017-.273-.032-.526-.061-.775l-.031-.296c-.036-.358-.078-.761-.172-1.127-.145-.566-.211-1.143-.274-1.703-.066-.586-.133-1.177-.286-1.738-.105-.382-.118-.781-.13-1.134-.009-.285-.022-.611-.083-.908-.122-.576-.152-1.163-.18-1.733-.017-.37-.035-.728-.075-1.069-.04-.356-.117-.719-.191-1.069-.055-.26-.109-.519-.152-.78-.047-.29-.082-.578-.116-.869l-.008-.065c-.039-.316-.079-.644-.136-.956-.121-.675-.233-1.353-.343-2.029l-.016-.091c-.128-.773-.258-1.572-.405-2.353-.281-1.493-.6-3.004-.908-4.468l-.167-.793c-.219-1.037-.469-2.091-.711-3.109l-.05-.204c-.192-.803-.383-1.606-.565-2.411-.147-.662-.278-1.339-.406-1.993-.098-.508-.196-1.017-.304-1.522-.222-1.044-.475-2.111-.678-2.971-.437-1.842-.877-3.685-1.318-5.527l-.627-2.609c-.243-.999-.484-1.998-.715-3-.2-.871-.373-1.758-.533-2.592-.134-.697-.257-1.396-.381-2.097l-.412-2.382c-.077-.452-.153-.904-.233-1.356-.169-.972-.339-1.942-.514-2.912-.034-.186-.071-.368-.109-.553-.065-.312-.139-.668-.187-1.017l-.071-.506c-.16-1.139-.325-2.316-.527-3.467-.14-.814-.257-1.657-.36-2.401l-.022-.155c-.081-.585-.163-1.169-.256-1.751-.218-1.341-.409-2.357-.62-3.299-.163-.724-.34-1.446-.518-2.167l-.032-.13c-.196-.791-.44-1.774-.643-2.714-.378-1.759-.924-3.631-1.717-5.892-.541-1.545-1.181-3.086-1.801-4.576-.277-.666-.541-1.296-.796-1.93-.012-.031-.044-.074-.075-.117-.024-.032-.047-.065-.069-.098l-.055-.085.003-.819c.004-.522.007-1.04-.005-1.559-.028-1.12-.061-2.239-.094-3.359-.036-1.276-.073-2.53-.102-3.784-.011-.426-.007-.855-.003-1.283.005-.472.011-.959-.005-1.439-.016-.441-.05-.893-.083-1.329l-.005-.063c-.052-.711-.108-1.448-.081-2.179.055-1.615.198-3.194.336-4.722.121-1.346.325-2.695.49-3.721.246-1.543.613-3.081.968-4.568l.29-1.216c.187-.796.394-1.598.596-2.378l.058-.225c.172-.66.343-1.319.506-1.981.612-2.493,1.428-5.401,2.846-8.07.788-1.486,1.99-2.328,3.479-2.438,1.157-.067,2.251.381,3.066,1.304l.082.094c.535.608,1.072,1.218,1.548,1.871.814,1.118,1.569,2.258,2.137,3.127,1.046,1.6,1.713,3.291,2.037,5.167l.151.871c.159.916.312,1.794.449,2.676.094.619.234,1.245.37,1.852l-.155.097.168-.038c.139.621.282,1.263.381,1.908.122.788.293,1.58.457,2.345.126.58.269,1.239.383,1.889.059.338.124.675.188,1.011.184.978.374,1.977.463,2.991.052.617.182,1.245.307,1.853l.019.091c.083.41.169.832.234,1.257.051.343.075.691.098,1.029.028.446.058.884.143,1.291.168.803.282,1.618.393,2.405l.005.044c.048.338.095.678.148,1.015.371,2.398,1.04,4.615,1.876,7.265.203.647.41,1.294.617,1.939l.03.091c.414,1.296.842,2.637,1.241,3.963Z" stroke-width="0"/>
      <polygon points="70.204 230.629 70.206 230.63 70.209 230.626 70.209 230.626 70.204 230.629" stroke-width="0"/>
      <polygon points="62.729 325.635 62.728 325.635 62.728 325.635 62.729 325.635" stroke-width="0"/>
      <path d="m95.722,101.038l.009.019c.256.549.27.578.936.908h1.239c.455-.426.842-.807.97-1.396.289-1.323.99-2.542,2.207-3.838,1.022-1.088,2.388-1.867,4.061-2.314.698-.187,1.44-.276,2.18-.251.671.024,1.322.208,1.95.387l.071.02c.924.264,1.863.534,2.664,1.189.284.231.559.472.823.702l.295.257h1.4c.063-.079.129-.159.195-.238l.03-.035c.245-.293.495-.594.659-.921.41-.824.091-1.647-.315-2.413-.565-1.07-1.474-1.86-2.372-2.555-1.673-1.29-3.291-1.902-4.961-1.853-.234.007-.471.008-.706.009-.742.004-1.506.008-2.249.161-1.056.221-2.001.433-2.895.814-2.795,1.185-4.715,3.357-5.87,6.639-.453,1.288-.636,2.667-.559,4.212.101.199.176.36.239.498Z" stroke-width="0"/>
      <path d="m76.807,175.617h1.154c1.041-.559,1.986-1.291,2.969-2.3.563-.581,1.101-1.072,1.646-1.501,1.51-1.194,3.228-2.146,5.101-2.828,1.892-.689,3.829-1.388,5.968-1.205.056.007.109.017.167.03l.191.042.524.515.024.085c.519,1.838.342,3.556-.091,5.56l.655.932c.968.112,1.534-.273,1.938-1.287l.083-.207c.116-.285.227-.562.3-.838.132-.494.222-1.022.301-1.487.055-.329.112-.659.18-.982.231-1.097.143-2.16-.27-3.25-.572-1.51-1.697-2.468-3.538-3.014-.761-.223-1.573-.211-2.348-.208-.299.005-.639.009-.98-.004-.627-.032-1.245.155-1.845.323-.928.261-1.836.608-2.714.945l-.085.031c-2.273.87-4.388,2.21-6.286,3.982-1.228,1.151-2.316,2.523-3.323,4.193-.124.204-.226.436-.324.659-.039.087-.078.173-.116.254v.806c.095.354.332.615.718.756Z" stroke-width="0"/>
      <path d="m87.996,140.234l.003-.003c.178-.175.329-.325.449-.491.227-.317.44-.65.675-1.018l.047-.073c.12-.187.239-.374.363-.558.937-1.411,2.032-2.594,3.256-3.517,2.172-1.637,4.098-2.781,6.061-3.603,1.612-.675,2.961-1.085,4.243-1.294.713-.116,1.443-.085,2.089-.058.301.012.604.024.905.024h.301l.035.297c.077.64.428.941.972,1.197l1.19-.654.05-.101c.055-.116.1-.207.152-.292.393-.637.522-1.335.363-1.963-.152-.601-.546-1.103-1.14-1.448-.888-.516-1.82-.779-2.769-.779-.896,0-1.828.233-2.773.691-2.087,1.013-4.162,2.215-6.348,3.674-2.132,1.424-4.352,3.038-6.142,5.183-1.011,1.216-1.682,2.352-2.109,3.576-.165.473-.136.808.122,1.212l.004-.004Z" stroke-width="0"/>
      <path d="m113.412,55.265c.296,1.002.866,1.623,1.84,2.005.368-.137.596-.327.763-.635-.335-.66-.68-1.334-1.003-1.962l-.051-.102.009-.137c.339-1.163,1.068-1.799,1.774-2.414.136-.118.273-.238.406-.36l.29-.266.597.885c1.096-.061,1.813-.676,2.247-1.933l.003-.222c.003-.173.005-.335-.004-.494-.042-.705-.484-1.473-1.155-2.004-.543-.428-1.142-.628-1.638-.534-1.755.307-2.914,1.327-3.448,3.033-.39,1.248-.601,2.474-.628,3.646-.008.405-.005.812-.003,1.154v.34Z" stroke-width="0"/>
      <path d="m30.793,127.773c-.001.208-.003.416,0,.623.024,1.846.659,2.908,2.059,3.44.368.087.846-.231,1.261-.516.378-.576.445-1.222.219-2.091l-.086-.315c-.132-.477-.269-.972-.274-1.522-.013-1.43.297-2.874.976-4.543.775-1.899,1.639-3.444,2.644-4.724.139-.176.273-.355.409-.534.539-.713,1.096-1.448,1.85-2.032.121-.093.242-.184.366-.274.573-.426,1.161-.862,1.533-1.533l-.004-1.353c-.395-.503-.71-.904-1.24-1.015-.044.031-.087.065-.132.098l-.046.034c-.238.183-.508.39-.835.464-1.169.264-2.21.931-3.128,1.521-.948.607-1.725,1.343-2.314,2.189-.97,1.395-1.705,3.006-2.249,4.922-.324,1.138-.506,2.336-.65,3.37-.035.258-.075.516-.117.773-.124.796-.253,1.621-.245,2.448.001.143.001.285.001.429v.143Z" stroke-width="0"/>
      <path d="m44.426,152.846c-.858-1.875-2.171-3.328-3.899-4.32-.484-.277-1.07-.561-1.75-.561h-.026c-.017-.001-.038-.003-.056.001h-.004c-.203,0-.377-.046-.545-.089l-.061-.015c-.039-.009-.079-.019-.12-.028-3.858.379-6.412,2.277-7.804,5.803v1.842l.843.937c1.365.12,1.456.113,2.23-.826.16-.194.274-.444.356-.641.437-1.049,1.381-1.911,2.527-2.306,1.143-.394,2.343-.292,3.381.289,1.046.59,1.973,1.325,2.869,2.035l.202.16h1.33l.683-.932-.019-1.07c-.047-.091-.097-.184-.139-.28Z" stroke-width="0"/>
      <path d="m29.565,63.156c-.959-.315-1.876-.114-2.725.151-1.183.371-2.308,1.029-3.343,1.954-.791.709-1.35,1.681-1.709,2.972-.214.768-.196,1.529-.178,2.333l.003.116c.003.188.007.377.005.565,0,.321.063.66.128.978.196.958.59,1.841,1.205,2.702l.785.409c.409-.169.703-.453.781-.757-.019-.192-.028-.364-.036-.52-.015-.28-.026-.473-.086-.609-.483-1.095-.023-2.016.445-2.792.65-1.069,1.517-1.928,2.355-2.758.204-.202.406-.402.607-.605.347-.355.835-.651,1.338-.814.793-.253,1.36-.663,1.774-1.286v-.976c-.382-.465-.754-.863-1.349-1.061Z" stroke-width="0"/>
      <path d="m57.222,41.027c-1.412-.424-2.774-.429-4.055-.024-.928.293-1.615.729-2.039,1.298-.963,1.284-1.405,2.555-1.353,3.887.047,1.19.387,1.838,1.134,2.158h1.303c.518-.46.944-.901.984-1.544l.011-.171.144-.091c.183-.12.363-.237.538-.348.335-.214.651-.417.962-.631.691-.472,1.755-1.031,2.963-.414.238.122.465.16.695.136.831-.537.841-1.292.746-2.462-.434-.916-1.118-1.52-2.033-1.793Z" stroke-width="0"/>
      <path d="m62.207,97.213c-1.805.664-2.787,2.015-2.998,4.127.51,1.623.608,1.705,1.67,1.705h.141c.67-.316.945-.791.92-1.579l-.008-.168.134-.108c.82-.651,1.806-1.296,3.112-.737l.18.079c.561.245,1.041.451,1.616.303l.445-.425v-1.119c-1.54-1.791-2.402-2.14-5.214-2.079Z" stroke-width="0"/>
      <path d="m95.023,29.834c.257.066.588-.012,1.014-.242l.426-.818.793-.549,1.631.081c1.091-.522,1.817-1.221,2.215-2.136v-.955c-.358-.874-.914-1.248-1.856-1.248h-.058c-1.415.022-2.553.785-3.689,1.634-.629.468-.94,1.226-1.251,2.099v1.345c.264.457.518.714.773.788Z" stroke-width="0"/>
    </g>
  </g>
</svg>