<?xml version="1.0" encoding="UTF-8"?>
<svg id="b" data-name="Layer 2" xmlns="http://www.w3.org/2000/svg" width="71.762" height="195.242" viewBox="0 0 71.762 195.242">
  <g id="c" data-name="Layer 1">
    <path d="m22.938,167.847c-.261.035-.529.051-.787.067-.46.028-.894.054-1.3.182-.251.079-.494.1-.728.118-.183.015-.355.03-.526.07-1.061.261-2.126.51-3.19.758-.557.129-1.112.26-1.669.391-1.704.403-3.039.951-4.2,1.724-.335.223-.675.442-1.014.66-.576.371-1.17.753-1.732,1.157l-.055.039c-1.278.917-2.598,1.865-3.826,2.882-.702.578-1.594,1.361-2.262,2.288-1.504,2.083-1.982,4.322-1.423,6.656.324,1.343.936,2.518,1.82,3.491.834.917,1.864,1.949,3.185,2.64.546.285.978.533,1.358.777,2.089,1.349,4.524,2.179,7.898,2.688.651.098,1.321.141,1.97.182.689.043,1.401.089,2.101.2.424.066.866.087,1.295.109.338.016.687.032,1.031.071,1.265.143,2.567.175,3.827.206l.866.023c.675.02,1.361.016,2.024.009.781-.008,1.561-.005,2.345,0,1.031.005,2.098.012,3.15-.012l.442-.009c1.366-.028,2.78-.058,4.153-.211.956-.109,1.919-.145,2.746-.171.039-.004.054.003.079.003.019.001.05.007.056.001.502-.242,1.036-.253,1.553-.265.321-.008.655-.015.97-.081,1.034-.218,2.191-.308,3.454-.272.019,0,.039.001.059.001.387,0,.795-.105,1.189-.207.136-.035.272-.07.406-.101.343-.079.683-.171,1.023-.264.246-.066.491-.132.738-.194.48-.12.962-.234,1.443-.347,1.267-.299,2.577-.607,3.831-1.033.797-.27,1.621-.491,2.417-.705.753-.203,1.532-.412,2.284-.662,2.31-.767,4.489-2.093,6.855-4.173.871-.767,1.7-1.615,2.5-2.437.338-.347.675-.694,1.015-1.036l.114-.109c.151-.145.295-.282.382-.441.941-1.681,1.183-3.249.741-4.796-.492-1.713-1.477-3.154-2.924-4.279-1.165-.905-2.431-1.676-3.766-2.29-1.182-.546-2.41-1.041-3.597-1.52-.726-.293-1.451-.585-2.171-.89-1.865-.791-3.885-1.283-6.003-1.459-.987-.083-1.998-.114-2.976-.144-.611-.019-1.221-.036-1.83-.067-.308-.016-.62-.007-.925,0-.695.015-1.415.035-2.119-.202-.465.004-.951-.003-1.428-.012-1.532-.026-3.119-.055-4.691.393l-.219.063v-.611c-.003-.23-.004-.444,0-.656.034-1.977.031-3.986.03-5.931-.003-3.011-.007-6.123.121-9.189.163-3.865.118-7.807.077-11.618-.011-1.044-.022-2.089-.03-3.132-.005-.678-.001-1.356.001-2.033.009-1.848.017-3.759-.148-5.64-.164-1.849-.184-3.74-.206-5.569-.008-.773-.017-1.547-.036-2.32-.009-.364-.008-.73-.008-1.097,0-.229.001-.459-.001-.689-.001-.051.001-.105.003-.159.004-.132.009-.266-.031-.356-.18-.403-.164-.789-.147-1.2.004-.114.009-.231.009-.352v-.172h.717c.237.003.433.005.65.013.491.019.951.034,1.397-.051.48-.087.968-.132,1.44-.175.508-.046,1.034-.094,1.54-.195.48-.097.964-.234,1.378-.354,1.564-.455,3.125-1.165,4.773-2.168,2.721-1.657,4.578-3.194,6.629-5.483,1.173-1.311,2.102-2.735,2.93-4.08,1.499-2.434,2.54-5.085,3.093-7.882.083-.42.163-.839.241-1.26.172-.923.351-1.876.58-2.803.288-1.163.515-2.362.734-3.518.087-.457.173-.914.264-1.37.152-.763.266-1.545.377-2.302.108-.744.221-1.513.367-2.266.125-.637.18-1.302.234-1.945.038-.465.078-.948.144-1.421.122-.87.153-1.771.184-2.644.012-.352.024-.706.042-1.06.019-.355.019-.71.019-1.066.001-.714.001-1.452.151-2.189.087-.437.07-.893.052-1.376-.011-.285-.022-.581-.009-.871.015-.334.051-.671.085-.997.043-.406.086-.824.09-1.233.009-1.01.005-2.02.001-3.03-.005-1.475-.011-3,.026-4.501.024-.974-.044-1.961-.112-2.914-.047-.683-.097-1.389-.112-2.087-.019-.92-.074-1.856-.125-2.76-.024-.418-.048-.836-.07-1.255-.001-.028.001-.058.003-.087.001-.016.003-.042.001-.051-.211-.329-.2-.695-.191-1.049.004-.155.008-.3-.007-.442-.026-.234-.058-.468-.09-.703-.038-.278-.075-.557-.102-.838-.027-.273-.043-.55-.058-.827-.028-.524-.058-1.068-.175-1.572-.07-.301-.085-.601-.1-.89-.015-.296-.028-.576-.1-.842-.134-.512-.187-1.034-.237-1.538-.032-.317-.066-.646-.118-.964-.054-.323-.079-.651-.105-.97-.027-.35-.055-.713-.121-1.057-.182-.955-.377-2.068-.383-3.209,0-.034.001-.066.004-.1.004-.05.007-.108-.003-.133-.243-.636-.249-1.291-.254-1.926-.004-.428-.008-.871-.087-1.295-.124-.658-.129-1.338-.134-1.996-.004-.538-.009-1.093-.078-1.633-.149-1.169-.05-2.351.046-3.494.063-.763.129-1.552.12-2.324l-.003-.044c-.004-.073-.012-.172.052-.256.133-.186.134-.398.137-.644.001-.106.001-.212.013-.316.017-.175.054-.35.089-.523.043-.21.083-.409.093-.608.047-.995.304-1.949.551-2.871.067-.246.133-.491.195-.737.147-.582.342-1.157.531-1.712.344-1.015.701-2.064.765-3.177.03-.503.106-1.007.182-1.495.074-.48.145-.936.172-1.391l-.641-1.315c-.074-.277-.124-.502-.172-.714-.098-.433-.182-.808-.316-1.158-.258-.682-.664-1.235-1.24-1.69l-.277-.219c-.703-.561-1.431-1.142-2.247-1.52-1.475-.686-3.089-.831-4.652-.974-.623-.055-1.251.023-1.914.108l-.09.012c-1.341.169-2.649.52-3.805.831l-.055.015-.81-.327c-2.277-.921-4.427-1.793-6.824-2.084-1.817-.221-3.374-.168-4.771.161-1.259.296-2.402.843-3.509,1.372l-.07.035-.641-.277c-.374-.163-.745-.323-1.118-.48-.987-.417-2.056-.636-3.09-.847l-.491-.101c-1.26-.264-2.752-.529-4.312-.437-.477.026-.959.022-1.427.019-.221-.003-.445-.004-.66-.003-.046.001-.104,0-.159-.003-.112-.005-.212-.007-.297.013l-.297.073c-1.485.358-3.019.728-4.446,1.368-.112.05-.223.106-.335.164-.464.235-.982.5-1.607.348l-.055-.024c-.768-.514-1.653-.824-2.632-.924-1.042-.105-1.947-.052-2.762.16-1.37.359-2.807.83-4.028,1.836-.173.144-.343.295-.511.445-.293.261-.594.531-.923.763-1.096.768-1.759,1.649-2.024,2.691.073.239.148.472.222.698.173.537.338,1.041.456,1.564l.059.26c.328,1.45.667,2.948.619,4.49-.023.685-.023,1.382-.023,2.058,0,.304,0,.607-.003.91,0,.055.004.113.009.171.013.161.028.343-.052.496-.136.257-.134.531-.132.822.001.153.003.311-.016.469-.036.317-.082.633-.126.949l-.069.496c-.026.192-.048.387-.071.581-.048.413-.098.841-.176,1.259-.121.654-.251,1.306-.382,1.958-.187.941-.382,1.915-.543,2.877-.112.666-.187,1.35-.26,2.013-.052.487-.106.974-.173,1.458-.046.324-.121.644-.195.955-.051.218-.104.434-.144.655-.039.206-.079.413-.121.62-.12.604-.245,1.228-.295,1.842-.073.858-.108,1.736-.143,2.585-.023.542-.044,1.084-.075,1.625-.011.188-.02.377-.028.565-.032.69-.065,1.403-.212,2.086-.058.27-.071.553-.083.824-.015.303-.03.616-.105.921-.145.586-.19,1.198-.234,1.79-.028.386-.056.784-.113,1.175-.054.378-.067.775-.081,1.159-.019.555-.038,1.131-.179,1.676-.13.499-.159,1.015-.187,1.514-.022.383-.043.779-.11,1.17-.175,1.029-.276,2.099-.374,3.136l-.05.518c-.125,1.304-.195,2.711-.211,4.299-.028,2.69-.05,5.863,0,9.01.015.971,0,1.958-.016,2.912-.032,2.016-.065,4.1.192,6.141.056.444.075.898.093,1.337.024.554.048,1.128.148,1.672.066.356.09.711.114,1.054.017.261.036.531.074.792.052.373.14.75.225,1.115.051.221.101.441.147.663.055.28.101.561.148.842.089.53.18,1.079.328,1.596l.046.163c.492,1.728,1.001,3.515,1.646,5.226.763,2.023,1.63,3.837,2.652,5.545l.461.773c.663,1.111,1.349,2.259,2.04,3.378.093.149.183.301.274.453.335.562.682,1.142,1.126,1.599,1.537,1.575,3.132,3.043,4.351,4.147.565.511,1.182.99,1.779,1.452.32.247.64.495.953.749,1.436,1.159,3.061,2.164,4.825,2.988.095.046.198.077.299.108.114.035.229.071.336.121,1.941.908,3.49,1.466,5.026,1.807.223.05.426.143.64.241.095.043.192.087.292.128l.102.042.005.112c.019.457.023.913.027,1.366.009.949.016,1.845.157,2.753.062.401.077.807.091,1.201.015.406.03.826.097,1.233.082.502.105,1.015.125,1.513.016.37.032.753.073,1.126.14,1.29.277,2.581.409,3.872l.009.089c.117,1.142.238,2.321.397,3.478.102.748.178,1.512.25,2.251.043.442.087.885.136,1.326.141,1.264.21,2.609.217,4.234.015,4.174.013,8.349.012,12.524v5.01c-.001.101-.008.206-.015.309-.013.227-.027.442.031.624.221.691.225,1.397.23,2.08.003.506.007,1.027.1,1.53.081.444.149.89.217,1.338.108.713.219,1.451.39,2.165.086.364.117.729.148,1.115.015.175.03.352.05.53l.022.184-.186.008c-1.07.046-2.148.036-3.189.027-1.712-.013-3.484-.03-5.207.206Zm18.869-56.245c-.067.108-.116.233-.176.389-.031.082-.065.171-.105.265l-.035.081-.085.02c-.2.047-.405.098-.611.151-.888.225-1.803.457-2.832.457h-.249v-1.206c0-.475.007-.949.015-1.424.016-1.026.034-2.086-.036-3.12-.176-2.612-.179-5.266-.182-7.834-.001-.845-.003-1.69-.009-2.536-.171-.65-.164-1.353-.157-2.033.007-.541.012-1.05-.067-1.559-.095-.624-.101-1.252-.105-1.86-.004-.549-.009-1.116-.083-1.664-.128-.947-.125-1.906-.121-2.832.003-.847.005-1.723-.094-2.57-.169-1.439-.208-2.835-.117-4.149.066-.947.083-1.912.1-2.846.016-.968.034-1.97.105-2.952.023-.304.028-.612.035-.919.011-.608.023-1.236.167-1.83.106-.444.121-.885.136-1.352.016-.507.034-1.03.18-1.552.137-.491.157-1.011.179-1.56.012-.307.024-.623.059-.932.09-.806.208-1.576.356-2.499.036-.234.052-.467.069-.711.023-.338.046-.686.129-1.04.148-.615.219-1.264.288-1.892.046-.416.093-.845.161-1.264.081-.492.19-.984.295-1.462.087-.394.175-.788.247-1.185.07-.381.114-.776.157-1.158.026-.221.05-.441.079-.662l.023-.163c.05-.359.1-.73.179-1.093.137-.628.196-1.283.254-1.916.067-.729.136-1.482.321-2.214.013-.052.009-.12.007-.192-.003-.058-.005-.116-.003-.172.022-.36.036-.724.052-1.085.036-.87.074-1.768.196-2.647.062-.441.075-.894.087-1.334.015-.492.028-1.003.113-1.499.19-1.111.176-2.246.164-3.342-.004-.35-.008-.699-.005-1.049l.008-1.218c.023-3.398.046-6.912-.04-10.365-.024-.97-.051-1.941-.079-2.912-.042-1.459-.083-2.918-.113-4.377-.008-.393-.073-.779-.153-1.267-.039-.242-.082-.503-.124-.793l-.499-1.007.421.171c.646.262,1.278.328,1.888.391.242.026.481.051.719.086,1.311.198,2.645.173,3.943.153.733-.015,1.49-.027,2.238,0l.061.003c.089.008.195.011.238-.015,1.103-.592,2.254-.407,3.249-.187.05.011.102.019.163.028l.344.058-.321.982c-.172.53-.343,1.052-.522,1.569-.469,1.36-.842,2.832-1.173,4.634-.108.582-.227,1.162-.348,1.742-.145.697-.295,1.416-.417,2.126-.054.313-.073.644-.09.966-.024.42-.048.853-.151,1.268-.083.34-.11.682-.139,1.044-.034.412-.067.838-.192,1.26-.082.278-.065.592-.047.924.012.235.026.48.001.719-.225,2.296-.214,4.56-.178,7.07l.004.307c.016,1.251.032,2.543.222,3.784.085.562.09,1.126.095,1.67.004.538.009,1.045.085,1.555.09.613.104,1.231.116,1.829.011.558.023,1.136.101,1.692.078.561.104,1.123.128,1.668.011.26.023.52.04.781.015.227.054.453.095.691.031.18.063.36.083.542.013.125.022.249.03.374.019.289.035.561.128.841.091.282.101.577.11.862.008.26.016.529.089.783.121.42.151.865.18,1.294.016.25.034.508.07.756.052.374.122.744.192,1.115.062.324.122.648.173.975.079.52.147,1.093.206,1.751.032.359.056.719.079,1.08.038.573.075,1.165.149,1.74.3,2.362.238,4.763.179,7.085-.015.538-.028,1.076-.038,1.612-.026,1.454-.071,3-.329,4.501-.085.495-.117,1.013-.147,1.513-.022.336-.042.672-.078,1.006l-.05.485c-.073.73-.149,1.485-.311,2.223-.082.382-.117.785-.151,1.175-.022.249-.043.498-.075.745l-.109.831c-.129.987-.262,2.009-.449,3.011-.063.334-.114.671-.165,1.009-.074.484-.149.986-.261,1.475-.109.473-.204.949-.301,1.426-.157.773-.319,1.572-.531,2.347-.446,1.642-.96,3.33-1.568,5.161-.709,2.144-1.713,4.018-2.986,5.574l-.437.531c-.81.983-1.646,2-2.339,3.093Zm-7.429,59.103c-.03-.073-.027-.144-.024-.202v-.05c-.022-.414-.036-.832-.052-1.249-.032-.905-.067-1.841-.165-2.752-.178-1.645-.176-3.314-.175-4.929.001-1.069.001-2.175-.05-3.259-.011-.214-.042-.438-.073-.655-.061-.436-.124-.885-.035-1.323.148-.728.188-1.431.122-2.091-.179-1.744-.16-3.517-.143-5.231.015-1.458.03-2.964-.077-4.438-.086-1.2-.087-2.415-.09-3.592-.001-1.213-.004-2.468-.1-3.694-.048-.625-.058-1.259-.066-1.872-.012-.803-.024-1.634-.126-2.435-.21-1.654-.183-3.328-.157-4.946.011-.709.022-1.442.013-2.161-.005-.383.038-.768.078-1.14.052-.479.102-.931.062-1.378-.056-.617-.071-1.244-.085-1.849-.015-.714-.032-1.451-.118-2.164-.074-.602-.1-1.201-.125-1.779-.011-.277-.023-.553-.04-.826l-.005-.093.074-.055c.371-.28.699-.155.962-.051.133.051.243.106.377.09.292-.024.59-.02.906-.012.147.003.297.005.456.005h.172l-.003,3.037c-.004,1.699-.007,3.456.012,5.184.005.48.05.972.093,1.448.035.385.071.783.087,1.177.013.329.003.664-.008.988-.017.543-.034,1.057.05,1.561.078.456.089.913.1,1.356s.022.858.091,1.274c.085.495.093.994.101,1.478.009.502.017.975.104,1.444.129.697.125,1.397.121,2.074-.003.547-.007,1.112.063,1.658.155,1.221.144,2.461.133,3.659-.009,1.064-.019,2.164.089,3.233.114,1.135.108,2.281.101,3.39-.005.988-.012,2.012.07,3.012.23,2.838.207,5.724.184,8.513-.013,1.615-.027,3.284.009,4.925.003.114.028.233.055.359.028.128.058.261.063.399l.011.246c.019.41.039.834-.026,1.245-.101.664-.207,1.352.023,2.028.061.178.079.395.055.651-.03.351-.027.714-.024,1.065.004.585.009,1.189-.134,1.795-.07.293-.017.625.038.976.028.173.055.347.069.516.017.221.031.442.043.651l.023.363-1.153,1.244-.065.005c-.083.008-.163.012-.239.012-.787,0-1.319-.421-1.666-1.31l-.013-.035v-.038c.019-.297.026-.596.034-.898.015-.59.03-1.201.116-1.818.126-.901.221-1.856-.121-2.738Zm28.611-101.756c-.011.286-.016.574-.023.863-.017.85-.035,1.728-.173,2.577-.105.647-.114,1.304-.122,1.941-.005.385-.012.781-.038,1.175-.02.301-.058.604-.095.905-.035.278-.069.555-.089.834-.012.163-.019.323-.024.484-.015.42-.031.853-.155,1.294-.1.36-.128.764-.155,1.153-.011.151-.022.301-.036.448-.203,2.083-.676,4.138-1.134,6.126l-.12.522c-.168.734-.398,1.465-.621,2.171-.183.584-.373,1.186-.526,1.786-.518,2.025-1.158,4.408-1.973,6.726-.401,1.14-1.029,2.253-1.92,3.401-1.302,1.681-2.496,3.185-3.926,4.548-1.552,1.482-3.382,2.883-5.593,4.283l-.313.2c-.652.418-1.327.85-2.089,1.118-.101.035-.206.044-.299.051l-.081.007.013.022-.007.004h.001l-.03.009v.005s-.149.079-.149.079l-.056-.095-.145.016.086-.124-.051-.093.151-.085.007.007-.004-.008.011.015.015-.022c.29-.421.584-.842.877-1.263.667-.959,1.357-1.951,2.012-2.94,1.061-1.599,1.98-3.421,2.811-5.57.102-.266.21-.53.316-.795.274-.675.557-1.374.758-2.078l.214-.74c.472-1.63.96-3.316,1.282-5.015.143-.752.312-1.51.476-2.243.167-.746.34-1.52.483-2.282.124-.659.206-1.342.285-2.002.047-.389.094-.779.149-1.166.118-.835.243-1.67.368-2.504l.198-1.329c.005-.034.004-.069.004-.102v-.077c.024-.452.04-.902.056-1.353.034-.976.069-1.986.183-2.973.223-1.927.195-3.893.167-5.795-.011-.808-.023-1.642-.016-2.464.004-.449-.052-.913-.106-1.361-.023-.186-.046-.373-.063-.558-.022-.219-.028-.436-.035-.654-.013-.401-.024-.78-.126-1.166-.145-.555-.173-1.143-.202-1.711-.009-.184-.017-.367-.031-.549-.07-.991-.159-2.043-.391-3.051-.016-.073-.013-.143-.012-.203.008-.65-.055-1.276-.117-1.881-.081-.808-.165-1.643-.09-2.481.016-.196.009-.394.003-.604l-.005-.168c-.02-.74-.03-1.481-.039-2.223-.02-1.66-.042-3.376-.202-5.047-.159-1.633-.149-3.284-.141-4.88.004-.827.008-1.681-.011-2.52-.047-2.071-.024-4.177-.001-6.214l.012-1.119c.003-.328.051-.655.097-.971.032-.227.066-.453.082-.68.012-.155.011-.311.009-.465-.001-.406-.004-.827.198-1.239.008-.017.003-.078,0-.114-.003-.035-.005-.07-.005-.104-.004-1.158.186-2.308.368-3.419l.013-.079c.069-.422.101-.862.133-1.287.026-.346.051-.691.095-1.034.133-1.045.277-1.986.44-2.881.117-.643.268-1.288.413-1.912l.126-.543c.054-.234.117-.465.182-.701l.122-.46h.133c.194,0,.383.007.57.012.386.013.761.024,1.123-.022.312-.04.627-.071.941-.102,1.001-.097,2.035-.198,2.965-.654.398-.195.791-.405,1.213-.631.202-.108.41-.219.628-.334l.364-.191-.286.952c-.117.395-.227.768-.347,1.138-.339,1.037-.566,2.119-.754,3.051-.089.442-.141.9-.192,1.343-.075.66-.155,1.343-.356,2.004-.015.048-.011.116-.008.187.003.056.005.114.001.169-.016.206-.036.41-.056.615-.039.402-.081.816-.079,1.221.003,3.189.028,6.458.051,9.273.003.403.03.815.056,1.213l.056.948c.063,1.169.129,2.376.347,3.546.022.11.019.221.017.327v.098c.004,1.038.172,2.039.374,3.146.063.347.089.703.113,1.046.026.358.052.726.122,1.076.063.321.087.648.112.964.036.49.071.952.239,1.396.026.069.026.136.026.191,0,.017,0,.035.001.052.02.29.031.581.042.873.024.641.048,1.304.191,1.92.105.453.113.91.121,1.354.011.565.022,1.097.217,1.612.028.073.024.144.023.2v.05c.03.752.085,1.516.139,2.254l.028.374c.277,3.862.34,7.885.19,11.954ZM5.946,7.633c.168-.128.34-.264.516-.403.428-.336.867-.683,1.348-.994,1.431-.927,2.883-1.521,4.316-1.763.662-.114,1.528-.196,2.324.172.496.227,1.017.212,1.58.192.139-.004.278-.009.417-.009.916-.666,1.973-1.021,2.996-1.365.175-.059.35-.117.523-.178,1.412-.491,2.684-.775,3.891-.869.178-.013.356-.043.535-.074.336-.056.687-.113,1.038-.073,2.207.258,4.762.619,7.157,1.641.485.208,1.002.374,1.458.52.187.059.367.117.535.175.882-.134,1.604-.514,2.302-.881.25-.132.499-.262.753-.382,1.627-.764,3.353-1.052,5.116-.847,1.439.164,2.952.576,4.762,1.292.853.336,1.766.658,2.796.983.387.124.789.11,1.233-.04.979-.328,2.005-.51,2.996-.686l.225-.039c1.192-.212,2.394-.192,3.557-.167.397.007.793.007,1.189.013h.005c.814,0,1.517.305,2.035.884l1.724,1.923-.225.611c.147.71.631,1.185,1.143,1.686.194.19.393.386.573.596l.097.112-.198.229c-.074.083-.147.167-.212.254-.031.042-.051.089-.077.144-.019.039-.038.079-.061.125l-.048.093h-1.08c-.816.381-1.365.764-1.775,1.24-.74.862-1.553,1.415-2.563,1.74-.242.026-.459.058-.683.091-.527.081-1.123.171-1.696.089-1.15-.165-2.323-.16-3.455-.147-.635.004-1.288.011-1.938-.015-.377-.015-.754-.009-1.142-.007-.169.001-.342.004-.515.004-1.264.795-2.442,1.108-3.636.952-.792-.104-1.6-.117-2.382-.13-.477-.008-.953-.016-1.43-.043-.397-.023-.869-.051-1.12-.307-.496-.507-1.12-.66-1.782-.823l-.101-.024c-.442.132-.886.266-1.33.402-1.232.373-2.505.758-3.768,1.107-.285.079-.584.101-.873.122-.332.026-.646.048-.927.151-.449.163-.913.155-1.349.163-.464.007-.913-.001-1.329.187l-.038.017h-.042c-.46-.024-.936-.005-1.396.012-.312.012-.628.024-.945.024-.569,0-1.146-.039-1.716-.188-.188-.05-.407-.038-.616-.028-1.144.039-2.226-.175-3.237-.406-.175-.042-.344-.101-.523-.165-.087-.031-.18-.063-.278-.095l-.118-.039v-1.528l-.659-.526c-.594-.141-1.241.016-1.912.208-.381.108-.76.161-1.193.167-.761.012-1.521.012-2.282.005-1.689-.013-3.289-.485-4.496-.896-.452-.153-.897-.34-1.329-.52l-.472-.198c-.405-.165-.607-.468-.749-.742-.305-.58-.652-1.142-1.019-1.736-.153-.249-.311-.503-.471-.768l-.079-.132.124-.094Zm2.23,42.789c-.156.885-.319,1.801-.566,2.69-.13.475-.208.978-.282,1.463-.051.331-.102.663-.169.99-.116.558-.188,1.135-.258,1.693-.079.635-.161,1.291-.308,1.933-.074.32-.087.655-.104,1.009-.016.405-.034.823-.149,1.218-.112.379-.117.765-.124,1.175-.007.507-.015,1.031-.239,1.534,0,.003.001.031.003.048.003.03.004.058.003.085-.022.463-.047.924-.073,1.385-.056.991-.113,2.016-.12,3.023-.024,3.671-.042,8.023.011,12.472.012.971.125,1.928.336,2.844.077.334.108.68.137,1.015.019.211.038.424.069.633.101.693.211,1.384.323,2.075.093.58.187,1.159.274,1.74.155,1.027.331,2.192.59,3.308.055.238.042.483.028.721-.004.082-.009.164-.011.245l.308.379-.527.269-.093-.503c-.067-.039-.152-.087-.2-.179-1.061-2.002-1.869-4.06-2.402-6.114l-.085-.327c-.352-1.357-.715-2.761-.931-4.185-.129-.861-.2-1.735-.268-2.582-.046-.562-.091-1.124-.153-1.685-.187-1.669-.221-3.299-.101-4.843.132-1.696.118-3.424.106-5.096-.012-1.595-.024-3.244.087-4.864.061-.87.07-1.758.078-2.614.009-1.014.02-2.062.116-3.09.032-.362.039-.736.046-1.099.012-.611.023-1.243.161-1.844.087-.377.108-.749.128-1.144.024-.445.05-.905.179-1.365.137-.488.156-1.005.176-1.552.013-.34.027-.694.071-1.038.04-.315.069-.632.097-.949.052-.609.108-1.237.257-1.855.073-.303.089-.613.108-.941.016-.288.032-.585.089-.884.12-.625.179-1.278.235-1.908.055-.607.112-1.235.222-1.845.058-.323.105-.648.152-.972.094-.652.192-1.326.382-1.98.106-.366.145-.768.182-1.157.015-.149.03-.297.047-.444.03-.239.054-.479.078-.718.036-.367.074-.748.133-1.12.062-.399.144-.8.225-1.187.048-.235.097-.471.141-.706.019-.097.017-.2.017-.312v-.05c-.004-1.096.169-2.146.379-3.308.078-.433.109-.886.14-1.325.023-.331.046-.663.087-.991.085-.655.218-1.304.348-1.908.039-.179.054-.359.07-.549.022-.261.044-.529.13-.806.091-.299.109-.621.126-.963.019-.35.038-.711.144-1.05.113-.366.124-.738.134-1.134.012-.452.026-.92.206-1.377.066-.167.05-.381.034-.608-.007-.106-.015-.211-.015-.313,0-.312.003-.624.004-.936.005-.795.011-1.618-.012-2.423-.011-.393-.062-.795-.112-1.183-.027-.214-.054-.428-.074-.641-.012-.114-.009-.229-.007-.355l.003-.43,3.054,1.183.009.106c.028.288.047.58.066.874.042.654.085,1.33.227,1.97.152.694.153,1.385.155,2.054,0,.335.001.668.02,1.003.008.149.008.299.007.448-.001.364-.004.709.132,1.049.129.324.128.767-.001,1.1-.137.359-.133.719-.129,1.1,0,.098.001.195,0,.293-.007.527-.005,1.056-.004,1.584.003.713.004,1.452-.015,2.179-.007.242-.012.484-.017.726-.022,1.057-.044,2.15-.211,3.209-.047.305-.087.612-.129.919-.097.733-.199,1.491-.395,2.231-.151.565-.218,1.169-.282,1.754-.043.393-.087.799-.157,1.194-.125.709-.273,1.424-.416,2.117-.108.52-.215,1.04-.313,1.561-.122.639-.227,1.282-.331,1.924l-.121.73c-.044.269-.086.539-.129.81-.085.547-.173,1.114-.28,1.669-.089.457-.188.912-.289,1.366-.1.451-.2.902-.286,1.356-.063.331-.122.663-.182.995Zm22.768,62.452l-.468-.07c-2.254-.338-4.069-.787-5.714-1.415-1.794-.687-3.532-1.517-5.163-2.466-.243-.143-.488-.28-.733-.418-.621-.348-1.264-.71-1.857-1.128-.857-.607-1.84-1.325-2.667-2.181-.81-.838-1.584-1.829-2.302-2.948-.409-.639-.624-1.405-.824-2.203-.081-.319-.164-.637-.249-.956-.32-1.218-.651-2.477-.81-3.766-.108-.878-.276-1.766-.438-2.624-.11-.58-.219-1.158-.312-1.74-.048-.301-.069-.609-.087-.906-.026-.421-.051-.818-.151-1.201-.089-.342-.106-.689-.124-1.023-.023-.438-.044-.853-.212-1.241-.042-.091-.04-.187-.04-.27,0-.027.001-.054-.001-.079-.022-.359-.035-.719-.048-1.079-.028-.768-.058-1.563-.172-2.325-.332-2.257-.241-4.562-.117-6.728.059-1.025.065-2.067.071-3.077.007-1.187.013-2.415.106-3.622.03-.375.043-.753.056-1.131.022-.627.044-1.276.143-1.907.044-.289.056-.59.069-.881.016-.385.032-.783.122-1.165.087-.364.112-.73.136-1.116.031-.455.061-.925.204-1.391.116-.381.139-.788.164-1.22.013-.256.028-.519.065-.777.077-.546.191-1.092.301-1.621l.039-.188c.055-.264.09-.537.125-.802.027-.208.054-.416.09-.623.081-.456.153-.914.227-1.372.164-1.017.334-2.067.574-3.092.089-.373.118-.752.151-1.153.02-.254.04-.51.075-.761.071-.506.159-1.011.246-1.516l.1-.581c.028-.168.058-.336.089-.503.055-.305.11-.611.151-.919.18-1.376.434-2.774.775-4.275.126-.558.198-1.142.268-1.707.048-.385.095-.771.16-1.153.079-.473.171-.944.264-1.415.109-.558.222-1.135.309-1.707.044-.289.061-.594.075-.889.022-.449.044-.913.169-1.353.097-.342.105-.691.114-1.062.012-.48.024-.978.245-1.454.007-.016.004-.075.001-.114s-.004-.078-.003-.116c.02-.6.042-1.2.063-1.799.051-1.399.101-2.799.133-4.197.031-1.334.031-2.631,0-3.854-.043-1.69-.11-3.261-.206-4.801-.024-.393-.104-.777-.194-1.222-.046-.218-.091-.445-.134-.689l-.039-.218,3.696.273.046.077c.594.998,1.498,1.704,2.686,2.101,1.123.374,2.435.776,3.803.806.32.008.636.082.943.155.14.032.281.066.424.093l.116.023.022.114c.153.811.137,2.64-.03,3.433-.043.207-.102.491-.043.691.219.754.218,1.475-.005,2.204-.042.139-.031.305-.019.483.005.086.011.172.011.257-.003,1.076-.001,2.152,0,3.228.001,2.676.004,5.444-.052,8.166-.024,1.153-.05,2.345-.34,3.518-.026.105-.023.226-.019.355.003.067.004.134.003.2-.035,1.3-.278,2.561-.568,3.957-.094.455-.165.924-.235,1.378-.061.398-.122.796-.198,1.192-.137.717-.289,1.43-.44,2.144-.094.448-.19.894-.281,1.343-.074.367-.145.734-.215,1.103-.081.421-.161.841-.249,1.259-.095.464-.173.941-.247,1.403-.091.566-.186,1.151-.317,1.725-.102.44-.151.905-.199,1.356-.056.533-.114,1.084-.26,1.61-.077.284-.087.577-.1.886-.016.445-.034.906-.265,1.342.001-.005.005.009.008.031.001.032.003.066.001.098-.022.285-.03.576-.038.866-.019.658-.038,1.338-.202,1.978-.126.494-.124,1.011-.122,1.513.003.623.005,1.267-.229,1.891-.009.026-.007.075-.004.124.003.04.004.079.003.118-.022.547-.035,1.096-.048,1.643-.031,1.204-.062,2.448-.176,3.667-.229,2.481-.202,5.01-.176,7.454.015,1.469.031,2.986-.008,4.478-.024.947-.015,1.912-.004,2.846.004.403.008.807.009,1.209.003.968.184,1.926.36,2.851.065.339.098.687.132,1.025.02.207.04.416.069.621.145,1.097.417,2.183.679,3.234l.012.048c.491,1.963,1.127,3.92,1.894,5.818.724,1.791,1.651,3.448,2.756,4.925.664.889,1.431,1.728,2.172,2.539.284.311.568.62.846.933.1.113.225.208.371.319.044.034.09.069.136.105l.514-.41c.071-.488-.161-.842-.409-1.216l-.109-.167c-.763-1.204-1.571-2.407-2.352-3.572l-.044-.067c-1.025-1.525-1.846-3.315-2.585-5.632-.691-2.167-1.163-4.1-1.443-5.911-.075-.487-.143-.974-.208-1.459-.065-.473-.129-.945-.202-1.417-.397-2.566-.378-5.176-.359-7.702.007-.845.012-1.69.004-2.535.196-1.131.182-2.266.167-3.365-.012-.836-.024-1.701.056-2.551.054-.573.067-1.159.079-1.725.016-.69.032-1.401.121-2.098.052-.413.066-.836.078-1.247.016-.49.032-.995.114-1.489.085-.51.101-1.033.116-1.537.012-.387.024-.788.067-1.185.05-.456.095-.913.141-1.37.082-.82.168-1.669.273-2.499.038-.3.071-.6.105-.901.1-.902.203-1.837.43-2.748.141-.569.208-1.173.273-1.756.044-.393.089-.8.157-1.198.226-1.326.49-2.649.742-3.881.04-.198.062-.397.083-.596.027-.242.055-.492.114-.744.145-.611.217-1.255.285-1.876.046-.418.094-.851.164-1.275.152-.927.249-1.877.342-2.797l.176-1.704c.09-.898.184-1.828.309-2.735.175-1.261.167-2.547.16-3.788-.003-.335-.004-.668-.003-1.003.013-3.71.001-7.485-.011-11.135l-.011-3.872c0-.429,0-.834-.141-1.24-.086-.249-.067-.519-.048-.806.008-.129.017-.264.017-.405v-.179l.179.007c4.581.165,8.101-.231,11.388-1.313l.21-.069.034.446c.015.176.03.35.031.523.003.299-.004.6-.012.9-.013.58-.028,1.181.035,1.755.202,1.825.179,3.677.156,5.467-.011.831-.022,1.692-.009,2.535.036,2.437.077,5.199-.008,7.931-.03.963-.052,1.926-.074,2.889-.038,1.638-.077,3.331-.156,4.995-.032.663-.048,1.327-.065,1.992-.017.73-.036,1.486-.075,2.23-.015.284-.055.569-.094.843-.032.234-.066.468-.083.703l-.015.191c-.032.446-.066.908-.156,1.372-.056.29-.078.586-.1.9-.024.339-.048.69-.122,1.036-.066.312-.094.644-.121.964-.026.316-.054.644-.118.963-.157.783-.288,1.584-.414,2.359-.058.354-.116.709-.176,1.062-.187,1.096-.424,2.544-.604,4.013-.071.576-.149,1.151-.227,1.728-.051.385-.104.771-.153,1.157-.094.717-.164,1.451-.233,2.16-.056.602-.114,1.205-.187,1.805-.034.277-.048.555-.063.832-.023.401-.046.815-.122,1.216-.116.593-.117,1.206-.118,1.799-.001.531-.003,1.079-.083,1.615-.196,1.29-.179,2.606-.163,3.88.008.59.016,1.201.003,1.803-.008.34-.017.68-.027,1.021-.042,1.548-.086,3.15.066,4.698.095.963.093,1.935.09,2.875-.003.931-.004,1.891.087,2.827.203,2.044.187,4.118.171,6.124-.009,1.197-.019,2.435.019,3.651.007.246.042.503.074.752.058.433.118.882.044,1.315-.114.676-.126,1.341-.129,2.017-.009,1.66-.008,3.319-.007,4.954v1.861s-.02.04-.02.04c-.168.299-.387.445-.668.445-.07,0-.144-.009-.221-.027-.063-.016-.126-.032-.19-.05-.182-.047-.352-.093-.515-.093-.027.007-.065.001-.098,0-1.033,0-2.055-.156-3.043-.308Zm-2.632,56.837c.171-.054.348-.046.519-.039.075.004.147.009.218.004.168-.005.338-.003.507-.003.522.009,1.003.008,1.481-.163.109-.043.223-.027.343-.011.051.007.108.015.169.017l.153.008.009.153c.024.405.042.802.061,1.19.04.871.078,1.694.176,2.515.034.274.069.549.104.823.126.998.257,2.029.29,3.061.008.273.121.592.28.793.659.83,1.272,1.299,1.986,1.521,1.001.309,2.07.309,3.267-.001.129-.034.257-.089.418-.159.082-.035.169-.073.269-.113.566-.449,1.095-.972.9-1.935l-.32-.464.003-.058c.016-.344.046-.686.075-1.026.067-.768.13-1.494.034-2.203-.091-.668-.105-1.317-.118-2.002-.009-.487-.02-.991-.062-1.501l-.015-.186h.187c.066,0,.128-.003.188-.005.139-.009.273-.013.412.015.467.095.931.198,1.396.3.347.077.695.153,1.044.227l.792.168c.971.208,1.976.422,2.968.602.663.121,1.337.191,2.004.207.944.024,1.887.144,2.799.261.329.042.659.085.99.122,2.721.312,5.285,1.265,7.678,2.216.409.163.82.317,1.232.473,1.163.44,2.367.894,3.489,1.501.749.405,1.479.807,2.185,1.268.655.426,1.079,1.014,1.294,1.795l.016.055-.281.718c-.274.705-.563,1.447-.862,2.185-.114.284-.234.485-.377.637-1.637,1.727-3.035,3.131-4.864,4.168-.348.198-.693.402-1.037.607-.508.301-1.034.613-1.565.898-1.352.722-2.8,1.048-4.162,1.291-1.739.309-3.295.66-4.758,1.073-.368.105-.75.157-1.12.208-.233.031-.465.063-.695.109-.947.183-1.669.338-2.339.499-.223.055-.446.112-.67.167-.881.222-1.794.452-2.737.565-.286.035-.574.067-.862.1-.972.11-1.977.225-2.953.418-1.097.217-2.223.253-3.331.253-.277,0-.554-.003-.83-.004l-.278-.003c-1.502-.011-3.03.004-4.558-.027-.386-.008-.773-.058-1.148-.105-.233-.03-.465-.059-.699-.078-.195-.017-.39-.024-.585-.031-.414-.016-.842-.032-1.28-.134-.453-.106-.919-.126-1.412-.149-.391-.017-.797-.035-1.193-.101-.526-.086-1.073-.106-1.6-.126-.719-.026-1.462-.052-2.187-.246-.036-.009-.09-.009-.141-.005-.038.003-.077.001-.117.001-1.853-.071-3.623-.382-5.581-.749-2.765-.522-5.323-1.707-8.05-3.729-1.235-.916-2.052-2.095-2.499-3.61-.27-.92-.199-1.915.206-2.878.52-1.235,1.349-2.31,2.536-3.287,1.471-1.209,3.108-2.382,5.307-3.802,1.529-.991,3.159-1.688,4.984-2.133,1.387-.339,2.762-.574,4.168-.804.964-.157,1.943-.296,2.891-.43.407-.058.814-.116,1.221-.175.315-.046.631-.085.948-.125,1.029-.13,2.091-.265,3.093-.596Z" stroke-width="0"/>
  </g>
</svg>