<?xml version="1.0" encoding="UTF-8"?>
<svg id="b" data-name="Layer 2" xmlns="http://www.w3.org/2000/svg" width="250.106" height="152.425" viewBox="0 0 250.106 152.425">
  <g id="c" data-name="Layer 1">
    <g>
      <path d="m225.049,23.783c-.048-.034-.097-.067-.143-.104-.202-.161-.407-.319-.612-.475-.468-.358-.951-.726-1.382-1.143-.387-.375-.83-.698-1.257-1.009-.311-.227-.632-.461-.935-.715-.514-.434-1.057-.853-1.584-1.257l-.441-.342c-.457-.354-.931-.719-1.412-1.049-.188-.129-.398-.245-.6-.356-.321-.178-.655-.362-.935-.613-.518-.465-1.122-.827-1.707-1.178-.288-.173-.576-.346-.857-.531-1.07-.709-2.255-1.416-3.623-2.164-2.197-1.197-4.519-2.304-6.902-3.289-1.797-.742-3.792-1.444-6.097-2.146-1.423-.434-2.847-.867-4.271-1.29l-.885-.264c-1.825-.542-3.713-1.103-5.576-1.63-1.151-.324-2.341-.66-3.532-.875-.479-.086-.955-.184-1.431-.281-.812-.167-1.654-.339-2.492-.449-.646-.085-1.296-.199-1.926-.311-.74-.129-1.505-.264-2.263-.351-.167-.019-.339-.028-.508-.039-.355-.02-.722-.042-1.066-.145-.323-.098-.65-.121-.997-.144-.305-.022-.621-.043-.936-.121-.303-.074-.619-.091-.953-.11-.331-.017-.672-.036-1.002-.116-.221-.052-.453-.065-.679-.075-.261-.013-.53-.027-.792-.102-.358-.101-.719-.13-1.101-.16-.299-.024-.607-.048-.912-.112-.297-.061-.617-.074-.928-.087-.371-.016-.756-.034-1.123-.129-.5-.13-.999-.149-1.526-.168-.377-.013-.765-.028-1.15-.086-.795-.124-1.623-.126-2.423-.13-.503-.001-1.022-.004-1.534-.035-1.247-.077-2.52-.073-3.751-.067-1.465.007-2.991.011-4.489-.12-.395-.036-.802.009-1.226.055-.264.028-.537.058-.807.067-.382.012-.764.013-1.146.013-.038-.001-.078-.003-.114-.001-.416,0-.831.001-1.245.017-.59.022-1.192.065-1.774.106-.258.017-.518.036-.777.054-.039-.001-.077-.001-.114-.003-.026-.001-.061-.004-.077-.001-.386.18-.772.169-1.159.159-.18-.001-.356-.008-.529.007-.206.02-.412.043-.617.066-.34.038-.68.075-1.022.098-.886.054-1.772.098-2.66.143l-.814.042c-.03.001-.055-.001-.085-.004-.28.169-.585.161-.851.153-.122-.007-.241-.009-.352.007-.141.017-.281.039-.421.059-.241.036-.481.073-.722.091l-.336.024c-.49.035-.978.071-1.467.114-.609.055-1.217.12-1.825.186-.535.056-1.07.113-1.606.163-.995.095-2.054.199-3.09.346-.741.104-1.497.175-2.227.243-.375.035-.75.071-1.126.11-.143.016-.286.028-.43.04-.391.035-.796.071-1.175.161-.637.149-1.292.237-1.924.32-.329.044-.659.087-.987.14-.234.038-.468.069-.703.1-.253.034-.504.066-.756.108-.371.063-.742.13-1.114.198-.512.093-1.023.186-1.537.265-.344.054-.691.094-1.038.134-.511.059-1.038.121-1.545.225-.836.172-1.692.297-2.518.418-.506.074-1.01.148-1.514.231-.14.023-.28.044-.418.066-.289.046-.58.09-.865.148-.566.117-1.131.239-1.696.362-.387.085-.776.168-1.165.25-.394.083-.788.163-1.182.243-.761.155-1.549.315-2.317.494-1.432.334-2.882.695-4.286,1.044l-2.201.545c-1.235.304-2.511.617-3.759.948-1.186.315-2.386.656-3.548.987-.483.137-.966.276-1.45.412-.558.157-1.116.312-1.673.468-1.323.367-2.69.746-4.025,1.151-1.432.436-2.873.935-4.266,1.417l-.274.095c-.935.325-1.867.659-2.799.992-1.006.359-2.011.719-3.018,1.068-2.079.719-4.228,1.463-6.388,2.157-1.816.584-3.579,1.384-5.283,2.16-.335.152-.671.304-1.007.456-.464.208-.921.464-1.364.711-.401.226-.816.457-1.241.658-.901.424-1.724,1.006-2.522,1.568-.319.226-.637.451-.963.667-.764.511-1.522,1.062-2.255,1.595-.402.292-.804.585-1.209.871-.354.251-.711.496-1.069.742-.6.413-1.218.839-1.811,1.28-1.364,1.014-2.762,1.95-4.158,2.784-.426.254-.869.494-1.296.724-.491.266-.999.541-1.481.838-.106.066-.217.128-.327.191-.448.254-.87.495-1.104.953-.077.151-.229.251-.312.299-1.093.608-2.156,1.333-3.159,2.156-.557.459-1.136.908-1.697,1.342-.674.522-1.37,1.062-2.031,1.621-1.345,1.136-2.509,2.189-3.557,3.221-.888.87-1.763,1.783-2.61,2.667-.581.605-1.162,1.21-1.751,1.807-1.236,1.255-2.136,2.261-2.917,3.261-.328.421-.671.831-1.013,1.24-.444.533-.904,1.083-1.321,1.645-.714.962-1.4,1.973-2.063,2.951l-.504.742c-.393.576-.789,1.193-1.181,1.836-.535.882-1.104,1.841-1.738,2.93-.334.572-.593,1.048-.819,1.497-.366.733-.744,1.491-1.072,2.269-.449,1.058-.874,2.15-1.286,3.206l-.073.187c-.791,2.032-1.338,4.147-1.813,6.13l-.117.487c-.204.849-.418,1.728-.529,2.598-.073.581-.169,1.169-.262,1.738-.055.34-.112.68-.161,1.021l-.044.295c-.153,1.019-.312,2.072-.351,3.093l-.013.344c-.073,1.813-.147,3.688.098,5.525.065.487.075.982.086,1.462.011.498.023,1.011.094,1.509.058.405.079.816.102,1.214.023.441.048.896.121,1.331.043.257.066.515.087.764.019.21.036.418.067.625.122.834.281,1.724.483,2.719.184.909.398,1.83.604,2.721l.05.211c.144.621.301,1.237.457,1.855l.05.195c.387,1.528.905,3.119,1.677,5.157.436,1.153.982,2.378,1.715,3.854.524,1.057,1.122,2.094,1.7,3.097l.023.04c.679,1.179,1.463,2.386,2.399,3.689.771,1.075,1.607,2.132,2.417,3.155l.635.804c.173.221.367.436.555.644.212.235.433.479.629.738.738.97,1.639,1.817,2.511,2.636l.417.393c.746.707,1.556,1.377,2.339,2.025.286.237.572.473.854.711.167.14.332.282.498.425.492.424,1.002.861,1.538,1.229.475.325.945.656,1.415.987.98.691,1.994,1.405,3.035,2.043,1.77,1.084,3.388,2.011,4.949,2.835,1.883.994,3.643,1.82,5.383,2.524.354.144.706.289,1.058.436.861.355,1.748.722,2.635,1.046,1.517.554,3.151,1.118,5.14,1.772,1.762.58,3.638,1.189,5.496,1.727,1.267.366,2.569.691,3.829,1.007.425.106.851.212,1.278.321,1.029.262,1.958.487,2.842.687,1.178.269,2.407.538,3.651.8.522.109,1.048.203,1.573.297l.426.077c.278.051.558.101.836.149.471.083.943.167,1.412.258.394.078.787.161,1.181.246.551.118,1.123.239,1.685.34.339.061.69.102,1.03.143.491.058.998.118,1.489.237.733.176,1.493.269,2.227.36.191.023.382.047.573.071,1.276.168,2.337.278,3.339.346l.682.046c1.26.085,2.563.172,3.845.296.374.035.758.042,1.13.047.524.008,1.066.016,1.607.106.446.074.904.062,1.384.048.183-.004.364-.009.546-.009.101,0,.2.001.3.005.327.012.654.039.979.066.407.034.827.069,1.237.073,1.502.013,3.003.015,4.712.009l2.328-.003c.857-.042,1.824-.03,2.847-.015,1.47.023,3.138.044,4.77-.11.779-.077,1.575-.067,2.343-.059.919.011,1.869.022,2.796-.114.387-.055.783-.063,1.165-.07.429-.008.873-.017,1.3-.095.34-.062.686-.075,1.021-.089.288-.011.585-.023.871-.066.737-.108,1.493-.134,2.224-.16.309-.012.62-.023.928-.04l3.306-.182c.028.003.054.001.081.003.325-.179.672-.171.967-.159.143.003.278.008.407-.007.202-.023.401-.05.601-.075.233-.031.467-.062.701-.086.212-.023.429-.036.644-.05.405-.026.824-.051,1.213-.143.546-.126,1.103-.192,1.641-.254.445-.052.904-.106,1.349-.195.698-.139,1.419-.206,2.115-.272.332-.031.664-.062.995-.101.514-.059,1.027-.126,1.537-.202.282-.042.563-.086.843-.132.339-.055.676-.11,1.015-.159.237-.032.473-.058.71-.083.307-.032.612-.066.916-.114.701-.112,1.397-.239,2.095-.367l.55-.101c.773-.14,1.547-.282,2.318-.429.288-.054.576-.11.862-.168.405-.079.81-.16,1.214-.233.312-.055.624-.104.936-.151.461-.071.939-.144,1.4-.241.689-.145,1.387-.313,2.062-.476.417-.101.834-.2,1.252-.297.476-.11.952-.215,1.428-.321.687-.153,1.374-.307,2.059-.471,1.556-.375,3.09-.767,4.252-1.065,1.092-.281,2.181-.57,3.272-.859l1.937-.512c.984-.26,1.969-.519,2.949-.785,1.775-.484,3.55-.972,5.32-1.474.814-.231,1.625-.468,2.437-.705.955-.278,1.91-.558,2.867-.826.862-.242,1.725-.475,2.59-.707,1.07-.289,2.141-.578,3.207-.884,1.099-.316,2.212-.656,3.288-.986.742-.227,1.485-.453,2.228-.675.609-.182,1.221-.356,1.833-.531.857-.245,1.742-.498,2.605-.765,2.067-.64,4.266-1.326,6.416-2.052,1.132-.383,2.271-.81,3.374-1.221.553-.207,1.107-.414,1.661-.616.332-.122.666-.239.999-.356.627-.221,1.274-.449,1.898-.701.472-.19.945-.371,1.42-.554,1.15-.442,2.34-.9,3.463-1.455.845-.417,1.694-.824,2.543-1.232.941-.451,1.884-.901,2.817-1.368.523-.261,1.037-.574,1.534-.877.188-.114.378-.229.568-.342.367-.218.736-.433,1.104-.65.978-.573,1.99-1.165,2.96-1.783.498-.316.986-.672,1.456-1.015.506-.368,1.029-.749,1.569-1.087,1.116-.702,2.16-1.536,3.17-2.343l.494-.394c.524-.417,1.037-.847,1.551-1.278l.542-.455c.19-.159.382-.313.574-.469.44-.355.894-.721,1.299-1.119.516-.507,1.021-1.045,1.509-1.564.395-.421.791-.843,1.197-1.253,1.159-1.175,2.211-2.454,3.124-3.799.118-.173.237-.346.356-.518.129-.187.26-.373.386-.561.148-.219.299-.437.451-.656.354-.512.719-1.044,1.048-1.582.597-.988,1.155-2.013,1.631-2.897.459-.85.882-1.713,1.2-2.371.194-.401.374-.808.553-1.216.094-.212.187-.425.282-.636.13-.286.262-.572.394-.857.282-.613.576-1.248.845-1.877.178-.414.336-.847.491-1.265.095-.258.19-.518.29-.773.702-1.805,1.084-3.655,1.338-5.067.12-.663.272-1.33.418-1.974.132-.576.266-1.171.378-1.76.137-.726.257-1.469.373-2.188.106-.666.214-1.331.335-1.994.165-.897.336-1.817.313-2.731-.015-.635-.009-1.279-.005-1.902.009-1.225.02-2.491-.122-3.732-.074-.637-.075-1.288-.078-1.916-.001-.703-.004-1.431-.108-2.136-.083-.569-.116-1.148-.148-1.711-.013-.257-.028-.515-.048-.771l-.003-.055c-.001-.031-.003-.063-.008-.094l-.102-.559c-.067-.374-.136-.749-.2-1.123-.046-.265-.087-.531-.13-.797-.082-.53-.168-1.077-.289-1.603-.229-.999-.539-2.312-.927-3.603-.398-1.325-.74-2.423-1.214-3.506-.893-2.035-2.044-4.002-3.06-5.738-1.036-1.77-2.162-3.538-3.229-5.196-.619-.963-1.278-1.923-1.915-2.851-.23-.336-.46-.672-.69-1.009l-.026-.039c-.336-.494-.683-1.005-1.046-1.489-.635-.846-1.21-1.588-1.758-2.269-.428-.533-.869-1.054-1.311-1.576l-.483-.573c-.265-.313-.523-.633-.783-.953-.577-.713-1.175-1.451-1.824-2.111-1.261-1.286-2.586-2.554-3.866-3.78-.503-.481-1.006-.963-1.508-1.447-.051-.05-.113-.09-.173-.132Zm2.148,7.662c.188.23.378.461.57.689.172.2.347.399.52.598.207.235.416.472.619.711.867,1.029,1.735,2.058,2.593,3.094.699.849,1.447,1.76,2.171,2.692.651.838,1.346,1.746,2.015,2.7.719,1.03,1.419,2.099,2.095,3.132l.173.265c.917,1.404,1.728,2.799,2.692,4.476,1.458,2.53,2.399,5.188,3.199,7.684.321,1.001.568,2.119.776,3.519.133.901.243,1.81.348,2.688.085.71.141,1.431.196,2.129.043.549.086,1.097.143,1.643.144,1.388.128,2.792.113,4.15-.009.797-.017,1.623.005,2.433v.03s-.008.028-.008.028c-.149.464-.145.941-.143,1.447.004.516.008,1.052-.163,1.573-.012.036-.008.098-.004.157.003.042.005.083.005.124-.015.976-.163,1.946-.305,2.885-.056.373-.114.745-.163,1.119-.129.986-.347,1.961-.557,2.902-.059.264-.118.527-.175.791-.097.449-.239.892-.379,1.321-.093.288-.186.574-.266.866-.763,2.785-1.816,5.506-2.918,8.279-.558,1.407-1.276,2.777-2.136,4.076-.23.346-.448.711-.659,1.065-.27.455-.55.924-.862,1.365-.757,1.07-1.556,2.137-2.329,3.168l-.698.933c-1.721,2.306-3.716,4.328-6.182,6.652-1.326,1.251-2.819,2.457-4.438,3.585-1.85,1.288-3.541,2.378-5.17,3.33-1.287.752-2.659,1.4-3.985,2.027l-.475.225c-.901.426-1.826.842-2.719,1.245-.912.41-1.856.835-2.773,1.271-1.97.936-4.115,1.895-6.557,2.932-2.606,1.107-5.231,2.067-7.679,2.941l-.966.344c-2.067.74-4.205,1.504-6.338,2.173-.663.208-1.323.421-1.985.635-1.377.444-2.803.904-4.22,1.304-1.723.487-3.484.943-5.187,1.385-1.073.278-2.146.557-3.218.845-.725.194-1.447.402-2.168.611-.736.211-1.471.424-2.21.621-.824.221-1.654.425-2.483.629-.616.153-1.233.305-1.848.464-.925.241-1.849.49-2.773.74l-1.226.331c-.574.153-1.148.309-1.721.465-1.202.327-2.403.652-3.61.966-1.187.307-2.48.62-3.952.956-.448.102-.908.182-1.352.26-.247.042-.494.085-.738.132l-.452.086c-.783.148-1.564.296-2.344.453-.682.137-1.362.281-2.043.424l-1.899.401c-.676.144-1.352.288-2.032.421-.463.09-.929.167-1.396.243-.285.047-.57.094-.855.144-.334.058-.666.12-.998.182-.551.102-1.101.204-1.654.29-.467.075-.935.136-1.404.198-.425.055-.85.11-1.274.176-.524.081-1.048.173-1.569.268-.359.063-.717.128-1.076.187-.212.035-.426.063-.64.091-.246.032-.491.065-.734.108-.317.055-.639.09-.949.124-.406.044-.826.091-1.229.18-.293.066-.594.082-.885.097-.25.013-.508.027-.757.073-.551.102-1.122.133-1.672.163-.272.015-.542.03-.811.052-.329.028-.658.067-.987.106l-.394.046c-.171.019-.339.015-.499.009-.293-.011-.573-.02-.823.121-.075.04-.147.034-.203.03l-1.126.05c-.795.038-1.59.075-2.384.128-.445.03-.893.05-1.341.07-.726.034-1.477.067-2.206.141-.605.063-1.216.069-1.805.074-.578.005-1.175.011-1.755.07-1.783.183-3.595.164-5.347.147-.773-.008-1.545-.017-2.324-.008-1.186.013-2.388.02-3.624.02-1.313,0-2.663-.007-4.068-.023-1.366-.016-2.951-.046-4.49-.192-.273-.026-.55-.034-.824-.04-.468-.013-.951-.027-1.413-.132-.412-.094-.822-.108-1.256-.124-.444-.015-.901-.03-1.358-.14-.41-.097-.836-.11-1.288-.125-.383-.013-.779-.027-1.165-.095-.401-.071-.818-.091-1.221-.11-.512-.024-1.041-.048-1.563-.178-.334-.082-.679-.104-1.046-.128-.241-.015-.49-.03-.734-.065-.3-.043-.6-.078-.9-.113-.691-.081-1.405-.164-2.105-.346-.457-.118-.943-.182-1.412-.242-.327-.043-.666-.087-.997-.149-.53-.102-1.064-.226-1.58-.347-.295-.069-.589-.137-.884-.202-.397-.086-.793-.171-1.19-.256-.558-.118-1.116-.237-1.673-.362-1.083-.243-2.041-.467-2.93-.685-1.551-.382-3.068-.757-4.567-1.15-.909-.238-1.814-.494-2.719-.75l-.884-.249c-2.129-.594-3.831-1.127-5.359-1.678-.777-.28-1.557-.55-2.339-.82-1.876-.651-3.815-1.325-5.679-2.118-.485-.207-.975-.405-1.465-.602-.905-.367-1.842-.746-2.739-1.179l-.42-.202c-1.12-.539-2.278-1.096-3.388-1.707l-.664-.362c-.916-.498-1.864-1.013-2.756-1.586-1.304-.841-2.641-1.775-3.973-2.781-.752-.568-1.465-1.208-2.153-1.826l-.715-.637c-.644-.573-1.313-1.165-1.918-1.799-.59-.619-1.161-1.276-1.712-1.911-.273-.315-.546-.628-.823-.94-1.939-2.18-3.518-4.585-5.046-6.91-.522-.795-.99-1.622-1.423-2.402-.515-.924-1.057-1.91-1.54-2.901-1.036-2.133-1.855-4.289-2.437-6.411-.398-1.442-.775-2.854-1.018-4.285-.052-.312-.105-.624-.156-.935-.112-.682-.223-1.362-.351-2.039-.151-.797-.246-1.612-.338-2.401-.073-.607-.125-1.174-.178-1.74-.054-.58-.108-1.158-.176-1.735-.054-.452-.061-.906-.067-1.348-.008-.53-.016-1.031-.098-1.532-.188-1.14-.147-2.261-.105-3.346l.005-.13c.034-.936.069-1.906.164-2.852.126-1.28.338-2.671.66-4.375.161-.85.374-1.701.578-2.526.1-.398.199-.797.293-1.198.395-1.681.953-3.349,1.658-4.957.772-1.762,1.677-3.498,2.551-5.178l.134-.261c1.025-1.966,2.249-3.818,3.31-5.37.706-1.031,1.404-2.037,2.185-2.994.433-.53.853-1.088,1.259-1.626.28-.371.559-.742.845-1.108.277-.355.58-.695.871-1.026l.156-.178c.246-.28.495-.558.745-.836.247-.278.496-.555.742-.835,1.625-1.852,3.409-3.6,5.136-5.291.432-.422.863-.846,1.294-1.271.699-.691,1.454-1.345,2.183-1.977.242-.208.483-.417.722-.627.175-.153.348-.308.522-.463.58-.518,1.179-1.052,1.816-1.522.364-.269.724-.543,1.083-.819.863-.66,1.756-1.343,2.706-1.931.791-.491,1.614-1.073,2.59-1.834.186-.144.331-.366.502-.623.09-.136.187-.284.3-.436l.055-.048c4.473-2.492,9.196-4.812,13.763-7.056,1.181-.581,2.364-1.162,3.544-1.747,1.962-.972,3.965-1.806,5.954-2.477l1.377-.464c1.973-.662,4.012-1.348,5.99-2.089,2.024-.76,4.317-1.621,6.59-2.351,2.709-.869,4.973-1.579,7.126-2.235,1.891-.577,3.577-1.061,5.155-1.481.756-.2,1.53-.374,2.279-.541.559-.125,1.12-.25,1.677-.387.347-.086.69-.183,1.033-.28.507-.144,1.031-.293,1.563-.401.526-.108,1.056-.241,1.568-.371.65-.165,1.322-.335,1.998-.453.726-.126,1.44-.299,2.289-.516.738-.19,1.495-.339,2.226-.484.269-.052.537-.105.804-.16.621-.126,1.253-.227,1.865-.324.835-.132,1.7-.269,2.535-.472.516-.128,1.052-.188,1.569-.247.319-.036.636-.073.951-.124.453-.074.905-.16,1.357-.246.429-.082.857-.163,1.287-.234.348-.058.699-.105,1.049-.152.452-.061.92-.122,1.373-.208.405-.075.816-.128,1.214-.179.554-.07,1.126-.143,1.674-.278.225-.055.452-.071.672-.086.218-.015.424-.03.628-.078.332-.081.676-.1,1.01-.117.332-.017.646-.034.947-.106.309-.075.62-.098.921-.121.352-.026.685-.05,1.011-.151.274-.085.559-.097.836-.11.214-.009.434-.02.644-.063.492-.105,1.003-.133,1.498-.161.246-.015.492-.028.736-.051.221-.022.438-.055.658-.087.157-.024.313-.047.471-.067.12-.015.241-.015.36-.011.231,0,.436.005.615-.116.073-.054.16-.044.215-.04.296-.016.558-.027.82-.036.58-.022,1.178-.044,1.74-.161.479-.1.963-.105,1.431-.11.578-.007,1.124-.013,1.66-.182.078-.024.157-.022.221-.017.023.001.046-.001.073.001.42-.019.839-.03,1.259-.042.917-.026,1.867-.052,2.788-.156,1.946-.218,3.922-.169,5.824-.125.394.011.788.02,1.182.027l.491.008c.987.013,2.006.028,2.998.153.6.075,1.213.081,1.806.086.546.005,1.109.011,1.666.07.512.055,1.037.071,1.545.087.522.017,1.062.035,1.592.094.374.042.746.066,1.12.091.226.015.452.028.679.047.246.02.491.061.728.1.11.019.221.036.332.052.1.013.204.012.321.008.253-.005.537-.013.803.172-.012-.009.022-.012.044-.013.039-.004.078-.004.116-.004.257.02.511.036.765.052.562.035,1.142.073,1.712.141.612.074,1.228.169,1.825.262.469.074.937.147,1.408.21.254.034.51.052.767.07.37.027.753.054,1.126.129.49.098.998.151,1.489.2.574.059,1.169.121,1.751.256.281.066.572.089.881.112.188.015.378.03.566.054.561.075,1.123.178,1.666.277.409.075.818.149,1.229.214.23.035.46.069.691.102.543.081,1.105.163,1.655.269.245.048.49.091.733.136.373.066.745.133,1.115.212l.732.155c1.011.214,2.058.436,3.078.694.718.182,1.438.398,2.134.608.407.122.815.245,1.224.362.655.187,1.311.37,1.967.551.96.268,1.92.535,2.877.815.909.266,1.801.569,2.628.857l1.135.394c1.49.515,3.031,1.048,4.529,1.616,1.123.426,2.226.955,3.292,1.465l.059.03c1.337.636,2.908,1.411,4.42,2.324.234.141.469.281.703.421.783.465,1.592.947,2.362,1.471.354.242.711.48,1.068.718.678.451,1.377.917,2.047,1.407.819.596,1.637,1.192,2.446,1.801.974.733,1.853,1.397,2.741,2.102.546.434,1.053.88,1.506,1.322,1.167,1.14,2.306,2.259,3.431,3.433.425.444.819.925,1.2,1.391Z" stroke-width="0"/>
      <path d="m220.442,29.789c-.446-.5-.908-1.019-1.439-1.45-.266-.217-.484-.487-.695-.748-.12-.148-.239-.297-.368-.436-.857-.919-1.879-1.836-3.125-2.801-.148-.114-.288-.242-.428-.368-.253-.231-.491-.449-.767-.58-.29-.139-.533-.331-.767-.516-.254-.2-.494-.39-.785-.512-.319-.133-.59-.356-.853-.572-.18-.148-.367-.301-.562-.417l-.479-.286c-1.374-.824-2.796-1.676-4.283-2.345-.752-.338-1.646-.705-2.57-.858-1.63-.272-3.151-.849-4.45-1.369l-.071-.03c-1.432-.576-2.913-1.171-4.407-1.615-.871-.258-1.746-.504-2.621-.752-1.237-.348-2.516-.71-3.767-1.097-1.787-.554-3.634-1.025-5.421-1.481l-.124-.031c-1.143-.292-2.294-.51-3.17-.666-.433-.078-.881-.132-1.314-.184-.42-.051-.853-.104-1.278-.178-.828-.144-1.665-.316-2.473-.483l-.804-.165c-.383-.077-.767-.157-1.148-.238-.598-.125-1.198-.251-1.798-.366-1.146-.219-2.265-.412-3.209-.57-.284-.047-.569-.086-.854-.125-.492-.067-1.001-.136-1.495-.25-.441-.101-.896-.16-1.337-.218-.167-.022-.334-.043-.5-.067-.273-.039-.559-.055-.835-.071-.405-.024-.822-.047-1.224-.141-.338-.079-.667-.093-1.015-.106-.172-.007-.344-.012-.516-.027-.196-.017-.391-.04-.588-.062-.313-.035-.639-.071-.956-.086-1.046-.052-2.091-.094-3.138-.136l-1.253-.05c-.023-.001-.044-.001-.067.001-.074,0-.145.004-.225-.019-.563-.167-1.136-.192-1.744-.219-.305-.015-.609-.028-.913-.061-.621-.066-1.27-.054-1.891-.034-.282.007-.565.013-.846.013h-.163l-.004-.067-5.054.235c-.034-.004-.055-.001-.079-.003-.41.171-.799.165-1.183.152-.086-.003-.169-.004-.251-.004-.094,0-.187.003-.28.011-.18.017-.36.039-.541.061-.36.042-.733.085-1.105.098-1.044.035-2.087.062-3.131.09-1.089.028-2.179.056-3.268.094l-.095.003c-.832.028-1.693.056-2.518.188-.251.04-.503.062-.754.082-.239.02-.479.04-.715.077-.379.061-.764.147-1.136.23-.382.085-.777.173-1.173.235-.527.083-1.06.188-1.576.289-.49.095-.979.191-1.471.272-.504.082-1.01.148-1.516.212-.538.069-1.096.141-1.639.233-.373.063-.753.102-1.122.141-.512.052-1.042.108-1.541.226-.765.184-1.548.324-2.305.46-.608.109-1.239.221-1.852.355l-.498.108c-.721.157-1.466.319-2.193.496-.601.148-1.201.304-1.801.46-.58.151-1.159.301-1.74.444l-.577.145c-.795.199-1.615.406-2.444.554-.742.132-1.49.327-2.215.514-.363.094-.726.19-1.091.276-1.231.296-2.686.658-4.15,1.101-.771.234-1.54.473-2.31.713-.935.29-1.871.582-2.809.863-.654.195-1.311.381-1.967.568-.814.23-1.654.468-2.473.721-1.438.446-2.878.97-4.27,1.475-.491.178-.982.355-1.473.531-2.173.773-4.342,1.651-6.629,2.686-.962.433-1.919.877-2.877,1.319-1.116.516-2.232,1.031-3.355,1.534-.644.288-1.314.542-1.961.788-.231.087-.463.175-.693.264-.245.095-.49.188-.736.282-1.151.438-2.343.892-3.445,1.494-.37.202-.754.385-1.127.562-.307.145-.615.292-.917.449-1.906.994-3.991,1.962-6.379,2.961-1.685.706-3.333,1.501-4.862,2.254-1.813.893-3.581,1.774-5.303,2.745-1.369.773-2.737,1.696-4.18,2.821-.234.182-.469.36-.706.541-.666.506-1.354,1.027-1.974,1.611-.331.312-.687.605-1.03.89-.406.335-.827.682-1.202,1.057-1.436,1.434-2.866,2.922-4.247,4.364l-.573.596c-.604.628-1.197,1.268-1.789,1.908l-.765.824c-.02.022-.042.043-.063.065-.034.032-.066.063-.081.09-.42.718-.995,1.306-1.552,1.876l-.059.061c-.125.128-.231.273-.344.426-.05.069-.101.136-.152.202l-.191.25c-.155.202-.308.403-.469.598-.061.073-.13.139-.202.204-.093.087-.18.169-.227.258-.27.522-.639.971-.997,1.405-.243.296-.496.602-.709.925-.27.406-.547.81-.826,1.212-.397.577-.808,1.173-1.187,1.771-.566.894-1.112,1.836-1.622,2.796-.424.799-.896,1.587-1.353,2.349-.237.395-.473.789-.705,1.187-.343.59-.682,1.183-1.021,1.775-.581,1.015-1.182,2.064-1.79,3.086-.796,1.338-1.502,2.881-2.156,4.714-.144.399-.26.854-.352,1.389-.054.304-.089.613-.125.921-.059.503-.12,1.023-.257,1.52-.182.663-.243,1.358-.303,2.029-.035.39-.071.792-.129,1.189-.116.776-.139,1.583-.16,2.363-.009.336-.019.672-.035,1.006-.05,1.006-.097,2.013-.144,3.018l-.036.789c.005.093.012.165-.027.238-.147.276-.139.578-.13.897.004.165.008.338-.009.508-.016.157-.036.315-.056.472-.043.323-.086.655-.085.976.003.451-.004.901-.011,1.352-.017,1.21-.035,2.462.125,3.69.118.898.27,1.789.465,2.722.163.775.393,1.548.615,2.296.089.301.179.601.264.902.518,1.83,1.275,3.536,2.253,5.071.775,1.22,1.75,2.396,3.16,3.819.077.078.152.159.227.241.172.188.334.366.524.494.418.278.785.619,1.142.948.395.367.804.745,1.275,1.029.359.217.676.5.984.773.316.281.613.546.953.748.519.305.997.674,1.456,1.031.368.285.749.58,1.146.836.65.421,1.252.929,1.834,1.421.316.266.631.533.953.785.555.437,1.108.842,1.645,1.204.577.386,1.205.777,1.867,1.159.906.526,1.816,1.031,2.702,1.504.663.352,1.35.687,2.016,1.011l.699.342c.561.276,1.142.561,1.724.804.838.35,1.7.68,2.535.999l2.18.843c1.533.594,3.066,1.19,4.602,1.775,1.256.477,2.605.984,3.959,1.459,1.249.437,2.543.865,3.845,1.271l.093.028c1.518.472,3.088.959,4.656,1.361,1.057.272,2.012.498,2.917.691,1.218.264,2.44.52,3.662.767.471.094.944.176,1.417.258.249.043.498.086.746.13l1.021.188c.781.144,1.563.289,2.344.422.377.063.753.116,1.131.168.433.061.867.121,1.298.198.359.063.715.141,1.07.219.406.087.824.18,1.237.246.3.047.597.105.896.161.416.081.846.163,1.274.217.877.106,1.756.296,2.606.479.254.055.51.11.765.164.67.139,1.348.254,2.001.366.452.078.905.143,1.358.208l.492.071c.266.039.546.054.818.067.412.02.838.042,1.244.148.491.129.982.145,1.501.163.385.013.783.027,1.178.091.746.121,1.528.126,2.284.13.438.003.892.005,1.337.031,1.447.082,2.924.104,4.353.125.902.013,1.806.027,2.71.055,2.777.085,5.744.054,9.063-.097,1.817-.082,3.665-.063,5.449-.044,1.146.012,2.335.026,3.498.009.933-.011,1.868-.001,2.803.004,1.996.017,4.064.035,6.095-.144.487-.039.976.009,1.451.058.264.027.529.055.792.066,1.477.067,2.991-.008,4.451-.079.534-.027,1.066-.052,1.599-.073.714-.027,1.427-.071,2.138-.117.334-.022.666-.042.999-.062.023-.003.05-.004.082-.001.026-.001.048.001.069-.003l.99-.164c.635-.106,1.271-.211,1.907-.315.368-.061.737-.118,1.104-.176.413-.065.826-.13,1.237-.198.347-.058.694-.118,1.041-.179.563-.098,1.127-.196,1.692-.284.346-.054.691-.098,1.038-.141.51-.065,1.037-.132,1.547-.231.506-.098,1.018-.223,1.513-.344.643-.157,1.309-.32,1.974-.429,1.471-.241,2.913-.557,4.308-.863,1.085-.238,2.518-.555,3.959-.9.682-.161,1.36-.339,2.037-.516.316-.083.633-.167.949-.247.36-.091.722-.18,1.084-.268.808-.196,1.642-.399,2.445-.646,2.259-.694,4.593-1.3,6.933-1.802,1.193-.256,2.401-.565,3.568-.863l.286-.074c2.959-.76,5.596-1.479,8.062-2.2.892-.261,1.785-.516,2.678-.772,1.24-.355,2.48-.71,3.716-1.079l.342-.101c1.163-.346,2.366-.702,3.507-1.146.662-.26,1.341-.503,1.997-.74,1.123-.403,2.282-.822,3.386-1.322.555-.251,1.13-.477,1.686-.695.539-.211,1.096-.43,1.63-.671,2.559-1.155,4.942-2.649,6.732-3.822.455-.297.902-.624,1.335-.941.566-.413,1.151-.839,1.763-1.209,1.213-.736,2.324-1.642,3.4-2.52.34-.277.68-.555,1.025-.828l.21-.167c.499-.397,1.017-.807,1.504-1.232l.191-.168c.611-.534,1.243-1.087,1.807-1.678.445-.465.878-.958,1.296-1.434.406-.464.826-.941,1.259-1.396.702-.736,1.614-1.719,2.442-2.792.843-1.092,1.743-2.138,2.433-2.928.629-.721,1.274-1.43,1.916-2.138.398-.438.797-.877,1.193-1.318.295-.331.581-.68.857-1.019l.094-.114c.19-.231.371-.469.553-.707.139-.179.28-.356.422-.534.313-.391.637-.796.909-1.22.538-.835,1.017-1.707,1.454-2.523.381-.71.768-1.491,1.22-2.462.199-.425.37-.875.535-1.311l.097-.256c.165-.432.34-.859.514-1.287.438-1.077.893-2.192,1.183-3.338l.086-.342c.266-1.048.541-2.132.725-3.209.109-.646.182-1.313.251-1.958.028-.266.058-.531.089-.796.102-.862.161-1.801.18-2.867.004-.214.022-.428.039-.641.038-.434.073-.846-.012-1.257-.027-.129-.043-.276.036-.383.13-.182.118-.387.105-.627-.004-.082-.009-.164-.008-.245.005-.363-.027-.736-.059-1.096-.02-.234-.04-.467-.051-.698l-.003-.063c-.056-1.209-.11-2.352-.359-3.506-.067-.312-.113-.631-.156-.94-.058-.406-.117-.827-.226-1.22-.685-2.441-1.385-4.369-2.207-6.072-1.174-2.429-2.25-4.61-3.525-6.726-.286-.476-.566-.956-.846-1.436-.41-.706-.835-1.436-1.278-2.138-.615-.97-1.3-1.976-2.158-3.164-.426-.59-.89-1.171-1.339-1.733-.191-.241-.383-.48-.573-.722-.14-.179-.285-.354-.43-.529-.328-.391-.666-.797-.933-1.244-.288-.483-.643-.929-.986-1.36-.223-.28-.453-.568-.664-.866-.355-.499-.744-.991-1.119-1.466-.141-.18-.284-.359-.424-.539l-.14-.182c-.592-.763-1.183-1.524-1.783-2.278-.184-.233-.378-.457-.572-.682-.147-.171-.293-.342-.437-.516-.237-.286-.467-.58-.698-.871-.473-.601-.964-1.221-1.495-1.777-.229-.238-.448-.484-.668-.732Zm1.834,8.1c.163.203.324.406.483.609,1.022,1.315,2.004,2.643,3.003,4,.215.29.442.573.67.855.221.272.44.543.648.823.866,1.161,1.763,2.363,2.614,3.567.715,1.013,1.478,2.107,2.199,3.26.699,1.123,1.611,2.61,2.449,4.162.625,1.161,1.166,2.371,1.712,3.615.277.629.527,1.28.769,1.911.152.397.305.795.465,1.189.527,1.306.916,2.528,1.187,3.736.21.94.363,1.896.453,2.842.165,1.712.155,3.448.144,5.129-.004.679-.008,1.358-.001,2.039.001.078.004.156.007.235.015.343.03.699-.148,1.065-.063.13-.038.295-.009.484.019.122.038.247.035.377-.028.962-.167,1.915-.301,2.838l-.042.285c-.139.956-.335,1.879-.491,2.575-.212.959-.522,1.903-.82,2.816-.126.387-.253.773-.373,1.163l-.07.23c-.346,1.126-.703,2.288-1.151,3.393l-.117.289c-.504,1.249-1.026,2.542-1.93,3.62-.159.508-.507.865-.843,1.21-.204.208-.397.406-.55.635-.235.356-.534.671-.823.976-.221.233-.448.473-.641.728-.319.417-.682.802-1.031,1.173-.483.512-.98,1.041-1.358,1.65-.179.288-.414.535-.641.776-.169.179-.346.364-.49.561-.307.417-.647.816-.975,1.202-.457.535-.929,1.091-1.311,1.693-.109.171-.251.311-.39.448-.082.081-.165.161-.238.249-.409.485-.814.972-1.218,1.46-.334.401-.666.8-1.001,1.2-.147.176-.301.346-.459.504-.253.253-.502.51-.752.768-.596.615-1.213,1.252-1.867,1.828-1.295,1.14-2.635,2.318-4.153,3.267-.437.272-.858.594-1.265.905-.319.243-.648.495-.986.725-.576.39-1.159.767-1.743,1.143-.515.332-1.029.664-1.538,1.006-1.27.851-2.554,1.563-3.817,2.113-1.309.57-2.626,1.069-3.862,1.532-1.13.422-2.263.828-3.397,1.236-.652.234-1.303.467-1.953.703-1.715.627-3.487,1.162-5.202,1.678l-1.076.325c-.698.214-1.399.424-2.098.633-1.555.467-3.162.949-4.732,1.456-1.136.367-2.317.651-3.46.927-.448.108-.897.215-1.345.328-.354.09-.707.183-1.061.276-.967.254-1.967.516-2.969.703-1.525.285-3.041.713-4.505,1.126l-.288.081c-.746.211-1.489.437-2.231.664-1.053.323-2.141.655-3.226.933-1.031.264-2.066.51-3.101.756-.889.211-1.779.424-2.667.646l-.511.128c-.686.172-1.395.351-2.101.495-.383.079-.773.136-1.151.191-.39.058-.793.116-1.182.198-.744.159-1.506.26-2.245.358-.222.03-.444.059-.664.09-.394.054-.784.121-1.175.19-.442.075-.885.152-1.331.21-.695.09-1.399.234-2.079.373-.319.065-.637.129-.956.19-.481.09-.966.175-1.448.258l-1.323.233c-.629.109-1.259.219-1.887.331-.027.005-.063.02-.101.035-.067.027-.143.058-.231.062-.897.039-1.807.13-2.69.221-.607.061-1.213.122-1.821.168-1.487.109-2.998.101-4.453.089-1.377-.008-2.809-.019-4.205.075-1.536.102-3.093.102-4.598.104-.715,0-1.432,0-2.149.011-2.207.035-4.423.015-6.689-.008-.375-.004-.754-.036-1.122-.067-.524-.044-1.066-.091-1.586-.05-1.68.126-3.374.163-5.055.163-1.143,0-2.279-.016-3.4-.034-.824-.012-1.65-.024-2.474-.03-.874-.008-1.864-.016-2.816-.285-.013-.001-.032-.001-.047.001-.026.001-.05.004-.079.001-.299-.019-.594-.032-.89-.046-.689-.031-1.4-.065-2.095-.16-.535-.074-1.087-.085-1.621-.094-.524-.009-1.066-.02-1.598-.09-.955-.126-1.941.022-2.898-.168-.432-.087-.878-.098-1.311-.109-.51-.013-1.036-.027-1.557-.159-.441-.11-.9-.132-1.387-.155-.241-.011-.48-.023-.718-.046-.265-.024-.529-.056-.793-.087-.196-.024-.394-.047-.59-.069-.145-.015-.288-.023-.432-.031-.289-.016-.589-.034-.897-.108-.387-.093-.785-.118-1.208-.145-.245-.015-.491-.031-.733-.061-.452-.055-.901-.126-1.35-.198l-.592-.093c-.137-.022-.274-.046-.412-.07-.297-.054-.58-.104-.866-.12-.676-.036-1.321-.145-1.969-.332-.067-.02-.152-.017-.238-.012-.081.003-.159.005-.231-.003-1.214-.125-2.304-.273-3.333-.452-.293-.051-.588-.098-.882-.144-.46-.074-.92-.147-1.377-.235-.304-.059-.611-.113-.917-.167-.39-.069-.78-.136-1.169-.217-.503-.102-1.002-.223-1.502-.343l-.48-.114c-.354-.083-.706-.165-1.06-.246-.822-.188-1.67-.383-2.501-.602-1.781-.472-3.554-1.066-5.269-1.643-.441-.148-.882-.296-1.323-.441-1.494-.496-2.996-1.046-4.449-1.577-.71-.26-1.42-.519-2.132-.773-1.345-.481-2.691-1.018-3.991-1.536-1.349-.537-2.742-1.092-4.133-1.584-1.509-.535-2.945-1.264-4.029-1.838-.278-.148-.554-.3-.83-.453-.563-.313-1.146-.636-1.742-.905-.442-.2-.85-.476-1.244-.742-.237-.16-.475-.321-.721-.467-.882-.52-1.703-1.147-2.496-1.752-.491-.374-.998-.761-1.512-1.118-.51-.352-.998-.749-1.469-1.134-.346-.281-.703-.572-1.065-.841-.285-.214-.597-.409-.897-.597-.266-.168-.542-.34-.803-.527-.304-.218-.59-.461-.869-.697-.139-.118-.278-.235-.42-.351l-.538-.438c-.375-.305-.75-.611-1.122-.923-.18-.153-.336-.332-.487-.506l-.048-.055c-.052-.061-.097-.13-.141-.199-.046-.071-.087-.137-.136-.184-1.159-1.114-2.169-2.524-3.177-4.437-.796-1.509-1.33-2.913-1.633-4.293-.12-.549-.274-1.104-.424-1.639-.094-.342-.188-.682-.276-1.023-.109-.433-.212-.857-.273-1.29-.21-1.536-.261-3.201-.157-5.093.081-1.43.221-2.881.347-4.113.058-.563.079-1.136.101-1.689.008-.231.017-.461.028-.693.017-.356.032-.711.048-1.066.036-.846.074-1.721.139-2.581.066-.863.173-1.801.327-2.863.379-2.592,1.036-4.905,2.005-7.074.542-1.212,1.192-2.387,1.818-3.523l.261-.475c.557-1.014,1.085-2.072,1.596-3.097l.038-.077c.417-.838.906-1.654,1.378-2.444.178-.296.355-.593.529-.892l.34-.582c.441-.76.898-1.547,1.376-2.304.352-.559.741-1.108,1.116-1.637l.371-.526c.161-.23.327-.457.492-.683.126-.171.251-.34.374-.512.386-.545.769-1.091,1.153-1.638l.233-.342c.015-.034.034-.075.067-.116.204-.241.407-.48.611-.721.483-.572.983-1.163,1.493-1.731.329-.368.664-.733.999-1.096.881-.96,1.793-1.951,2.605-2.998.094-.122.204-.23.311-.334l.106-.105c.347-.347.687-.697,1.029-1.048.756-.777,1.537-1.58,2.359-2.314l.07-.065c1.365-1.222,2.776-2.487,4.313-3.573l.243-.171c.995-.706,2.025-1.435,3.085-2.09l.108-.067c.178-.109.354-.218.538-.311.445-.225.889-.449,1.333-.674,1.165-.592,2.371-1.202,3.569-1.778,1.53-.737,3.131-1.474,4.894-2.254.925-.41,1.856-.806,2.787-1.201.917-.39,1.834-.78,2.746-1.183.628-.277,1.252-.593,1.856-.9.261-.132.522-.264.784-.394,1.465-.725,3.412-1.649,5.484-2.356.947-.323,1.88-.76,2.782-1.182.315-.147.628-.295.943-.437.754-.342,1.506-.691,2.257-1.04,1.374-.639,2.793-1.299,4.211-1.903,2.548-1.087,5.141-2.07,7.579-2.984l1.022-.385c1.635-.619,3.327-1.257,5.032-1.785.888-.274,1.772-.555,2.657-.836,1.31-.417,2.665-.849,4.008-1.247,1.455-.43,2.994-.83,4.57-1.187.913-.207,1.85-.379,2.756-.545.576-.106,1.151-.211,1.725-.327.831-.165,1.662-.339,2.492-.512,1.027-.214,2.055-.429,3.085-.631.693-.134,1.388-.253,2.083-.37.619-.105,1.237-.21,1.853-.327.896-.169,1.81-.29,2.694-.406l.796-.106c.655-.089,1.318-.206,1.959-.32.62-.11,1.261-.223,1.898-.312.819-.113,1.643-.278,2.441-.437.386-.077.771-.153,1.158-.226.453-.085.919-.145,1.366-.203.383-.048.767-.098,1.146-.163.862-.148,1.742-.243,2.593-.335l.344-.036c.39-.043.784-.065,1.165-.086.243-.013.485-.027.729-.046.296-.023.59-.051.885-.079.277-.027.555-.054.835-.077.191-.013.381-.011.577-.008.383.005.745.012,1.091-.13.07-.03.139-.023.184-.02.459-.017.878-.028,1.298-.039.972-.026,1.977-.052,2.949-.175.355-.046.717-.058,1.065-.069.585-.019,1.138-.036,1.681-.2.139-.042.284-.035.409-.024.547.02,1.07-.001,1.604-.007,1.139-.012,2.316-.028,3.475.024l.442.019c.889.038,1.809.075,2.704.176.288.032.585.043.871.055.363.013.738.028,1.107.085.534.082,1.084.095,1.616.11.441.011.898.023,1.348.073.274.031.557.043.831.055.377.017.767.034,1.147.101.523.091,1.062.141,1.584.188.654.059,1.329.12,1.992.266.527.117,1.081.173,1.618.23.371.038.754.078,1.131.137.803.125,1.616.273,2.402.416.35.063.699.126,1.049.188l.288.051c.329.059.66.118.991.164.367.05.736.094,1.104.14.554.069,1.108.136,1.661.218.428.065.853.139,1.279.214.502.087,1.019.179,1.53.249.204.028.41.047.616.066.28.026.569.052.857.102,1.132.196,2.275.429,3.38.654l.699.143c1.99.402,3.93,1.049,5.807,1.674.355.118.71.237,1.065.352.693.229,1.409.429,2.102.624.666.188,1.354.382,2.025.598,1.832.596,3.443,1.237,4.923,1.962,1.452.71,3.049,1.448,4.884,2.257.406.179.819.347,1.231.515.702.288,1.428.584,2.121.933l.241.022.023.062.901.722c.543.434,1.041.834,1.543,1.226.191.151.383.299.574.446.757.584,1.54,1.187,2.234,1.889.654.662,1.345,1.309,2.013,1.934.354.329.706.659,1.054.992.304.29.594.594.884.898.164.172.328.344.494.512.518.529,1.003,1.101,1.471,1.655.219.258.438.516.66.772.169.192.342.382.514.573.285.316.581.644.859.98.452.546.893,1.103,1.333,1.66l.8,1.006Z" stroke-width="0"/>
      <path d="m205.471,101.223l-.007-.126c-.012-.245-.023-.475-.114-.709-.116-.292-.148-.609-.179-.916-.011-.11-.023-.221-.038-.328-.038-.272-.071-.543-.104-.816-.066-.529-.133-1.076-.234-1.606-.196-1.029-.662-2.031-1.465-3.155-.237-.331-.529-.577-.836-.838-.148-.125-.296-.25-.437-.385-.719-.685-1.575-1.053-2.543-1.099-.184-.008-.362-.052-.519-.093-.05-.012-.098-.024-.144-.035l-.161.039c-.144.036-.276.067-.409.087-.165.024-.334.04-.502.056-.3.028-.584.056-.857.129-1.096.29-2.015.769-2.727,1.423-1.002.919-1.998,1.954-2.493,3.306l-.044.122-.816-.063c-.48-.038-.945-.074-1.411-.113-.087-.008-.175-.031-.268-.058-.04-.012-.082-.024-.126-.034l-.23-.055.124-.203c.148-.243.295-.479.44-.71.307-.491.597-.955.859-1.436.81-1.491,1.424-3.101,1.969-4.618.346-.968.576-1.829.703-2.632.116-.734.048-1.537-.206-2.457-.184-.655-.414-1.052-.792-1.369-.094-.078-.176-.171-.258-.262l-.048-.056c-1.034-1.166-2.302-2.099-3.768-2.773-1.454-.667-2.758-.851-4.106-.582-1.052.21-2.041.608-3.025,1.214-1.241.768-2.659,1.733-3.747,3.076-.277.343-.557.682-.845,1.017-.331.385-.666.765-1.015,1.163l-.464.527-.112-.044c-.097-.036-.191-.07-.282-.102-.207-.073-.402-.141-.588-.241-.761-.413-1.536-.598-2.352-.568-.627.024-1.155.059-1.699.148-1.912.315-3.603,1.165-5.164,2.598-1.049.96-2.017,2.145-3.049,3.732-1.213,1.868-1.946,3.913-2.175,6.079-.023.215-.059.432-.097.65-.113.646-.218,1.256.04,1.864.043.1.008.198-.02.276-.008.022-.017.044-.023.067l-.082.336-.218-.269c-.147-.18-.292-.355-.437-.53-.323-.39-.629-.758-.921-1.153-.563-.763-1.304-1.357-2.141-1.723-1.805-.785-3.486-1.181-5.139-1.209-.456-.007-.913-.001-1.374.001l-.46.004c-.463.003-.953.095-1.545.292-.424.143-.843.3-1.294.468l-.753.278-.105-.164c-.03-.047-.07-.112-.114-.175-.125-.176-.247-.355-.37-.535-.27-.398-.551-.808-.867-1.17-.925-1.053-1.779-1.961-2.61-2.772-.461-.452-1.079-1.019-1.771-1.397-1.807-.984-3.522-1.268-5.25-.865-.235.054-.476.077-.71.1-.106.009-.212.019-.319.032l-.194.024-.003-.243c-.003-.046-.007-.108.035-.169.075-.12.133-.208.203-.284.288-.311.594-.611.89-.9.689-.675,1.401-1.372,1.898-2.224.031-.051.069-.085.1-.112.011-.011.023-.019.032-.031.165-.202.335-.399.503-.598.393-.463.797-.941,1.157-1.436.449-.619.853-1.288,1.244-1.938l.144-.239c.464-.761.874-1.521.822-2.446l-.008-.153.152-.026c.136-.023.269-.052.401-.082.28-.061.588-.124.855-.121.602.013,1.208-.003,1.797-.013,1.321-.026,2.692-.05,4.043.159.491.075.998.12,1.489.164.585.051,1.189.105,1.779.211,1.653.297,3.022.615,4.336,1.19.962.42,1.822.815,2.624,1.392l.071.051v.795c.323.551.824.701,1.311.846l.736-.171.51-.459c.272-.646-.005-1.193-.299-1.771-.155-.308-.312-.479-.533-.588-.175-.087-.312-.237-.428-.368-.819-.944-1.973-1.389-2.991-1.783-1.751-.675-3.627-1.002-5.44-1.317l-.851-.149c-.842-.151-1.729-.168-2.589-.186l-.102-.003c-1.561-.035-3.631-.044-5.707.167-.051.007-.141.001-.168.011-.338.231-.701.143-.994.067-.048-.012-.095-.024-.144-.035l.042.042-.227.195-.159-.004-.238-.125.157-.202-.441-.098.874-.145c.163-.027.328-.05.492-.071.352-.046.686-.09,1.007-.187,1.887-.562,4.069-1.255,6.091-2.352,1.448-.785,2.821-1.728,4.083-2.8,1.26-1.07,2.308-2.302,3.115-3.661.995-1.677,1.295-3.358.89-4.995-.153-.616-.387-1.317-.972-1.836-.148-.132-.3-.26-.452-.387-.229-.191-.457-.383-.674-.588-.367-.347-.811-.553-1.28-.771l-.282-.133c-.806-.382-1.665-.346-2.491-.304-.418.139-.706.455-1.009.788-.059.066-.118.13-.179.195v1.139c.57.862,1.282,1.08,2.168.67l.083-.039.078.047c.087.052.172.098.251.143.164.09.32.175.456.289,1.057.885,1.532,1.861,1.454,2.982-.1,1.413-.869,2.501-1.528,3.291-.422.506-.951.885-1.548,1.295-1.368.939-2.937,1.7-4.937,2.395-.616.215-1.235.428-1.852.64-1.28.44-2.605.894-3.896,1.37l-.23.085c-.737.268-1.499.543-2.075,1.045l-.1.086-.11-.074c-.214-.144-.424-.282-.631-.42-.46-.304-.894-.592-1.319-.905-.265-.196-.546-.364-.843-.543-.373-.223-.757-.455-1.124-.752l-.256-.206.316-.093c1.565-.457,3.054-1.025,4.552-1.735.941-.446,1.875-1.001,2.855-1.693l.089-.062c.655-.464,1.334-.944,1.834-1.541.674-.807,1.447-1.755,2.079-2.809,1.225-2.037,1.83-4.193,1.852-6.591.003-.264-.042-.527-.087-.807-.022-.129-.043-.257-.059-.386l-.147-1.101.114-.052c.198-.091.398-.187.602-.282.507-.241,1.031-.488,1.568-.711.613-.257,1.236-.496,1.857-.736.391-.151.781-.301,1.171-.456.256-.102.508-.211.76-.321.487-.212.991-.432,1.516-.589.256-.074.53-.137.834.005.136.065.274.124.412.184.286.122.582.25.853.418.394.246.775.52,1.143.787.203.147.405.292.611.434.313.217.623.438.933.659.737.527,1.501,1.072,2.288,1.538,1.537.908,2.938,1.692,4.532,2.08l.241.058c.845.208,1.717.424,2.6.424.114,0,.231-.003.346-.004.241,0,.481.005.724.011.811.019,1.65.035,2.458-.157.265-.062.537-.089.8-.116.258-.026.502-.048.74-.105,2.316-.545,4.566-1.346,6.86-2.189l.204-.074c.445-.161.906-.327,1.275-.646.175-.152.393-.234.585-.305.073-.027.141-.052.202-.081l.061-.028.063.02c.188.058.368.124.545.188.359.132.698.257,1.033.285.933.081,2.033.109,3.099-.299,1.401-.534,2.835-1.182,3.626-2.686.679-1.296.881-2.339.676-3.482-.195-1.093-.573-2.113-1.157-3.12-.763-1.319-1.469-1.889-3.077-2.838-.888-.523-1.795-.687-2.886-.772-.916-.079-1.803.108-2.67.282-.537.108-1.092.221-1.651.273-.547.301-.952.046-1.317-.182-.1-.062-.202-.125-.309-.18l-.247-.125.565-.422c.295-.221.562-.421.832-.616.207-.149.417-.297.627-.444.347-.243.694-.487,1.031-.742.354-.268.724-.562,1.033-.898.237-.257.445-.545.646-.822.089-.121.173-.241.26-.354l.044-.058.073-.008c.208-.026.414-.042.617-.058.425-.035.826-.067,1.196-.179,1.244-.375,2.351-.749,3.308-1.537,1.085-.893,1.775-1.721,2.232-2.684.687-1.443.839-2.909.451-4.359-.276-1.029-.802-1.986-1.565-2.843-.795-.893-1.795-1.44-2.854-2.021l-.1-.054c-.465-.256-.99-.401-1.498-.541-.234-.066-.469-.13-.701-.206l-.126-.042c-.6-.195-1.221-.397-1.53-1.104-.009-.02-.051-.055-.085-.083-.044-.036-.087-.074-.122-.116-.499-.598-1.124-1.088-1.728-1.56-.398-.311-.81-.632-1.186-.984-.471-.441-.947-.792-1.416-1.044-.442-.238-.875-.504-1.294-.761-.398-.245-.811-.498-1.228-.725-.816-.444-1.68-.822-2.513-1.187l-.428-.187c-1.023-.448-2.118-.756-3.177-1.052-.246-.07-.492-.139-.738-.21-1.373-.398-2.735-.631-4.051-.694-1.489-.071-3.086-.108-4.699.1-1.455.186-2.83.502-4.086.94-2.302.803-4.29,1.668-6.077,2.641-1.81.988-3.47,2.214-4.855,3.28-.752.58-1.448,1.267-2.122,1.93-.243.239-.485.477-.732.713l-.222.21c-.441.42-.9.853-1.279,1.327l-.356.444c-.537.668-1.093,1.36-1.59,2.082-.741,1.077-1.326,2.167-1.785,3.331-.621,1.579-.83,3.269-.976,4.73-.051.514-.106,1.026-.16,1.538-.059.549-.117,1.096-.172,1.643-.087.904-.114,1.832-.14,2.729-.011.356-.022.713-.035,1.069-.007.182-.005.364-.003.551v.385s-.1.046-.1.046c-.168.078-.328.156-.484.234-.338.165-.656.323-.998.432-1.326.422-2.394,1.298-3.464,2.839-.83,1.194-1.325,2.594-1.805,3.95l-.101.288c-.584,1.642-.826,3.022-.763,4.342.004.077.009.155.016.233.024.312.048.635-.059.92l-.035.093-.098.016c-.467.079-.869.148-1.271.218-1.629.285-2.762,1.12-3.464,2.55-.529,1.075-.674,2.258-.741,3.168-.055.733-.04,1.486-.027,2.215.007.316.012.632.013.948.001.155.012.27.034.375.102.491.21.982.323,1.504l.184.846-2.2-.29c-.319-.04-.637-.081-.953-.134-.334-.055-.663-.124-.995-.192l-.545-.11-.083-.683c-.048-.398-.094-.771-.129-1.144-.11-1.159.091-2.298.286-3.401l.086-.491c.192-1.119.145-2.156-.143-3.168-.449-1.575-.312-2.994.421-4.336.523-.959,1.151-1.859,1.758-2.729.211-.301.421-.602.627-.906.533-.784,1.239-1.458,1.863-2.054.706-.675,1.454-1.33,2.179-1.962.241-.211.483-.422.724-.635.221-.194.444-.385.667-.576.3-.256.6-.512.892-.777l.386-.346c.481-.428.979-.871,1.411-1.352.499-.553.971-1.151,1.427-1.731.198-.25.395-.502.596-.749.249-.308.519-.683.646-1.135.176-.624-.023-1.127-.627-1.579h-1.148l-.515.371c-.465.336-.939.676-1.401,1.03-.654.499-1.194.919-1.716,1.395-1.174,1.073-2.129,2.129-2.92,3.228-.393.546-.811,1.085-1.217,1.606l-.327.421c-.585.758-1.208,1.577-1.787,2.441-.331.494-.701.968-1.058,1.427-.192.247-.385.495-.572.746-.186.246-.379.514-.545.792-.695,1.169-1.163,2.106-1.52,3.038-.511,1.334-.608,2.384-.311,3.406.153.529.217,1.026.194,1.521l-.013.296c-.02.5-.042,1.017-.14,1.534-.051.265-.052.537-.054.824-.001.379-.004.772-.125,1.163-.067.219-.066.473.003.616.141.296.14.582.139.859-.001.113-.003.227.008.34.012.118.017.237.023.355.011.258.022.502.097.752.13.425.128.904-.005,1.279l-.038.104-.109.009c-.627.062-1.244.105-1.855.149-.706.05-1.374.097-2.055.169-.709.075-1.405.26-2.078.437-.529.139-1.073.282-1.627.375l-.106.019-.063-.089c-.043-.062-.089-.122-.136-.183-.105-.137-.215-.28-.296-.444-.195-.391-.401-.91-.262-1.469.18-.733.157-1.494.134-2.23-.012-.383-.024-.78-.008-1.174-.188-.495-.171-.994-.153-1.475.009-.256.017-.498-.004-.737l-.004-.05.024-.044c.07-.134.14-.265.21-.394.157-.293.308-.572.441-.859.316-.678.53-1.452.656-2.37.098-.71.005-1.439-.086-2.144-.036-.29-.074-.58-.1-.87-.044-.531-.167-1.069-.285-1.591-.059-.261-.118-.522-.169-.784-.182-.94-.186-1.9-.19-2.828l-.003-.424c-.008-.897.153-1.806.507-2.86l.18-.529c.233-.68.475-1.384.644-2.089.066-.278.134-.555.202-.834.34-1.381.69-2.809.832-4.248l.017-.061c.253-.498.046-.897-.192-1.36-.032-.061-.063-.121-.093-.183l-.726-.374c-.596-.12-1.091.085-1.501.612-.221.282-.444.59-.586.923-.664,1.551-1.24,3.136-1.708,4.712-.351,1.182-.524,2.216-.531,3.162-.003.377-.009.753-.016,1.13-.024,1.31-.048,2.664.114,3.994.151,1.236.295,2.349.52,3.464.11.545.167.992.178,1.411l.009.356c.028.951.056,1.935-.16,2.906-.075.339-.13.693-.183,1.034-.051.325-.101.65-.169.972-.18.85-.344,1.768-.328,2.726v.056c.016.792.03,1.541.143,2.31.18,1.24.558,2.189,1.189,2.991.079.104.118.226.155.344.015.05.031.102.051.155l.059.152-1.326.594-.085-.093c-.04-.044-.078-.081-.113-.113-.078-.074-.152-.144-.188-.246-.229-.635-.449-1.274-.671-1.912l-.214-.616c-.086-.25-.165-.504-.246-.758-.175-.561-.356-1.14-.615-1.664-.542-1.1-1.205-2.149-1.723-2.941-.882-1.353-1.435-2.469-1.791-3.619-.124-.397-.316-.785-.504-1.162-.075-.152-.152-.305-.223-.459-.573-1.221-1.271-2.461-2.196-3.899-.332-.518-.635-1.062-.928-1.591-.342-.615-.694-1.251-1.092-1.837-.663-.978-1.459-1.884-2.218-2.727-.795-.882-1.635-1.685-2.352-2.353-.288-.269-.639-.491-.978-.706l-.268-.171c-.336-.221-.662-.172-1.076.163-.159.126-.321.245-.445.335l-.056.04v1.143c.013.015.027.028.04.043.069.074.147.157.199.261.531,1.042,1.204,2.024,1.853,2.973.29.425.581.85.861,1.282.793,1.224,1.79,2.23,2.914,3.324.147.143.305.273.464.403.178.147.363.299.531.468.234.234.448.492.654.741l.222.265c.101.121.208.238.316.355.25.272.508.554.694.881.487.874.947,1.779,1.393,2.655.178.35.355.698.535,1.046.098.19.194.381.289.572.203.403.412.82.639,1.216.156.27.334.539.507.799.307.463.624.941.838,1.462.375.912.67,1.871.953,2.797.101.329.2.658.305.984.262.82.518,1.642.781,2.484l.446,1.431-.116.07-5.323,3.19-.207-.179c-.075-.062-.136-.113-.188-.172-.114-.132-.226-.265-.336-.398-.202-.243-.412-.494-.633-.718-.175-.176-.37-.342-.559-.502-.204-.173-.417-.354-.609-.551-.655-.67-1.337-1.337-1.997-1.982-1.278-1.248-2.597-2.538-3.788-3.918-.469-.545-1.042-1.025-1.596-1.489l-.34-.285c-.476-.406-.979-.781-1.495-1.118-1.435-.931-2.823-1.865-4.008-3.064-.028-.027-.055-.058-.083-.09-.056-.063-.114-.128-.164-.147-.568-.218-.98-.62-1.38-1.009-.221-.214-.429-.417-.663-.593-.905-.68-1.966-1.458-3.112-2.06-.218-.114-.456-.21-.685-.303l-.195-.079c-1.771-.736-3.378-1.373-5.121-1.724-.594-.12-1.097-.091-1.584.087-.471.175-.799.537-.9.994-.104.469.046.949.41,1.318.089.09.186.173.282.257l.089.079c.432.019.925.07,1.373.266,1.178.516,2.362,1.069,3.506,1.603l.874.407c.148.069.293.148.437.226.221.12.429.234.651.312,1.159.416,2.323.917,3.46,1.489.819.41,1.642.812,2.469,1.206,1.007.48,1.884,1.007,2.682,1.614l.12.09c.652.498,1.327,1.011,1.941,1.595.203.194.426.373.643.546.368.295.749.6,1.068,1.001.722.908,1.508,1.795,2.266,2.653.379.428.757.855,1.131,1.287.272.317.534.641.808.983l.605.748-.999.069c-.582.039-1.139.078-1.694.121-.081.007-.161.024-.242.043-.075.017-.152.034-.229.044-.81.109-1.577.407-2.359.729-1.471.608-3.152,1.417-4.478,2.823-.191.202-.391.395-.593.589l-.387.379-.118-.083c-.194-.136-.379-.273-.562-.407-.39-.286-.757-.557-1.146-.793-1.4-.846-2.988-1.05-4.216-1.134-.944-.078-1.864.183-2.757.425-1.213.327-2.204.927-3.026,1.834-.5.551-.925,1.204-1.263,1.939-.14.304-.273.612-.406.919l-.276.631-.165-.091c-2.647-1.485-5.105-1.396-7.504.268l-.144.1-.097-.144c-.038-.056-.071-.112-.104-.163-.063-.102-.117-.19-.183-.254l-.222-.226c-1.003-1.017-2.041-2.07-3.303-2.828-1.516-.914-2.894-1.711-4.407-2.204-1.417-.463-2.612-.764-3.757-.945-.304-.048-.623-.054-.931-.059-.508-.008-1.034-.017-1.545-.214-.051-.02-.152-.007-.229.005-.272.036-.523.074-.775.113-.498.075-1.011.153-1.522.194-.976.073-1.919.403-3.06,1.07-.477.278-.89.663-1.261,1.177-.149.206-.249.43-.355.668-.098.222-.2.451-.347.67,0,.114.001.229.003.344.004.308.008.62-.007.931-.044.884.324,1.615.691,2.214.75,1.226,1.634,2.208,2.698,3,.401.299.808.588,1.214.878l.445.317c.237.168.475.336.728.512l.651.459-.243.133c-.054.028-.095.052-.13.074-.069.04-.117.066-.167.085-.231.082-.465.16-.699.237-.477.157-.97.32-1.427.529-1.704.777-3.347,1.802-5.024,3.133-.994.789-1.764,1.747-2.356,2.926-.19.381-.317.799-.359,1.178-.16,1.494.36,2.808,1.545,3.905.823.76,1.891,1.329,3.359,1.79.62.195,1.267.346,1.894.492.515.12,1.048.245,1.565.393.077.022.161.034.246.047.254.039.542.082.656.346l.015.038v.04c-.013.222-.027.432-.04.632-.031.438-.056.816-.047,1.2.007.338.038.683.067,1.018.032.367.065.746.069,1.123.008.897.235,1.774.446,2.524.168.594.41,1.178.644,1.744.071.173.144.347.214.522.573,1.432,1.326,2.6,2.301,3.568.736.728,1.665,1.109,2.926,1.2.91.077,1.809-.108,2.715-.311,1.58-.354,3.154-1.017,4.81-2.025.316-.192.627-.412.928-.623.406-.285.826-.58,1.271-.822.995-.538,1.686-1.05,2.243-1.661.889-.974,1.127-1.95.729-2.984-.101-.261-.257-.506-.407-.742-.059-.093-.117-.184-.169-.274l-1.107-.553c-.132-.001-.26-.008-.386-.016-.269-.013-.523-.028-.75.024-.262.063-.524.122-.787.182-.956.217-1.946.441-2.875.797-.258.098-.516.194-.776.29-.768.285-1.561.58-2.308.936-.588.282-1.159.637-1.711.982-.27.168-.541.336-.814.498-.13.077-.265.144-.397.208l-.295.149-.089-.104c-.574-.683-.82-1.474-1.058-2.239l-.087-.281c-.266-.842-.32-1.806-.155-2.789.18-1.077.284-2.195.315-3.416.034-1.295-1.174-2.883-2.438-3.206l-.161-.042c-.299-.079-.608-.161-.901-.161h-.071c-1.026,0-2.04-.16-3.022-.315l-.132-.022c-1.213-.191-2.177-.42-3.033-.719l-.124-.043c-.416-.143-.933-.319-1.175-.912l-.05-.118.1-.081c.182-.148.329-.329.484-.523.182-.225.368-.457.624-.648,1.279-.959,2.577-1.721,3.971-2.333,1.502-.662,3.1-1.06,4.645-1.444l.261-.065c.74-.186,1.438-.359,2.058-.788.944-.651,1.218-1.454.863-2.527-.231-.694-.771-1.112-1.342-1.555l-.222-.175c-.258-.202-.524-.394-.792-.586-.221-.159-.441-.317-.658-.481-.9-.687-1.83-1.397-2.731-2.114l-.226-.178c-.62-.488-1.261-.994-1.693-1.709-.069-.118-.075-.254-.081-.374-.003-.046-.004-.093-.011-.139l-.024-.176.178-.017c.055-.005.1-.012.139-.017.078-.009.137-.02.195-.015.297.007.594.001.893-.004.691-.011,1.403-.028,2.115.14.286.069.584.085.898.104.324.017.658.038.982.117l.568.137c1.036.247,2.106.503,3.123.909.824.328,1.623.726,2.398,1.111l.184.091c.593.295,1.139.662,1.666,1.017l.363.242c.655.434,1.334.884,1.551,1.789.036.149.155.301.268.449l.086.113c.301.407.608.81.923,1.222l.456.597-.156.184c-.052.067-.105.13-.165.184-.784.703-.892,1.692-.89,2.655,0,.8.274,1.677.816,2.606.128.219.25.441.374.664.355.641.724,1.304,1.206,1.885.272.325.526.671.771,1.003.494.671,1.005,1.365,1.668,1.912.66.542,1.256.789,1.833.753.615-.136.831-.506.945-1.019l-.329-.644-.847-.311-.031-.044c-.11-.159-.229-.325-.351-.498-.281-.394-.598-.842-.881-1.3-.457-.748-1.05-1.738-1.584-2.778-.355-.691-.644-1.426-.924-2.137l-.075-.191c-.145-.37-.281-.765-.29-1.155-.019-.664-.125-1.151-.346-1.577l-.056-.109.682-.715.438-1.998.04-.038c.059-.052.118-.109.179-.167.156-.145.316-.297.495-.434l.082-.065c.186-.149.395-.316.635-.336.608-.048,1.19-.094,1.789.074.843.237,1.459.702,1.88,1.421l.12.21c.344.6.67,1.166,1.2,1.389,1.018.241,1.627-.117,2.07-1.244-.015-.113-.023-.234-.032-.362-.022-.319-.047-.679-.182-.968-.253-.543-.069-.967.094-1.341l.02-.046c.191-.436.498-.815.795-1.182.554-.682,1.096-1.093,1.715-1.3.675-.226,1.354-.417,2.072-.37.21.015.418.026.627.036.469.023.955.046,1.44.124,1.317.208,2.308.693,3.119,1.525.663.679,1.309.959,2.054.847.089-.013.157-.013.202-.015.765-.234,1.196-.671,1.432-1.452l-.003-.129c-.004-.161-.009-.368.005-.574.07-.956.385-1.771.936-2.423.917-1.091,1.84-1.762,2.899-2.11.917-.301,1.906-.572,2.955-.479.503.044,1.005.14,1.49.233.151.028.303.058.455.085,1.33.238,2.723.524,3.852,1.169l.042.032.736.797h.619c.09-.039.172-.079.249-.117.183-.09.342-.167.522-.199,1.209-.215,2.344-.718,3.441-1.205l.414-.183c.262-.116.523-.254.776-.387.247-.132.494-.262.749-.377.289-.13.584-.246.88-.363.403-.159.822-.323,1.209-.52.88-.453,1.841-.855,3.026-1.265,1.894-.656,3.907-1.007,5.985-1.044h.023c.188,0,.371.035.547.069.168.032.328.062.483.062,1.259.003,2.516.18,3.626.338.894.126,1.785.316,2.647.5.266.058.534.114.802.171,2.52.52,4.942,1.432,6.98,2.254l.23.093c1.623.655,3.302,1.333,5,1.865.877.273,1.748.561,2.626.85l1.286.422v.125c0,.05.005.1.011.151.013.132.028.28-.035.414-.387.818-.814,1.68-1.393,2.444-.129.171-.276.332-.421.492-.249.274-.483.534-.631.834-.192.39-.483.694-.764.987-.327.343-.636.666-.78,1.103l-.038.063-.658.718c-.519.569-1.057,1.158-1.6,1.724-.451.471-.924.932-1.382,1.378-.194.188-.387.377-.58.566l-.067.067c-.101.102-.203.203-.315.289-.262.198-.527.393-.791.586-.328.242-.656.484-.98.733-.842.643-1.699,1.208-2.548,1.68-1.719.952-3.533,1.587-4.922,2.033-.128.042-.262.044-.381.047-.047,0-.091.001-.136.005l-.102.008-.67-1.027c-.561-.862-1.118-1.715-1.669-2.571-.416-.647-1.056-1.061-1.902-1.229-.49-.1-1.068.05-1.577.409-.491.346-.834.831-.897,1.265-.023.159-.066.307-.108.451-.012.043-.024.086-.035.128.013.038.027.075.042.112.046.117.093.238.101.37.038.698.928,1.513,1.7,1.56.984.062,1.325.725,1.684,1.428l.122.238-.268.012c-.105.007-.204.005-.297.001-.16.001-.292-.005-.393.031-.867.312-1.75.334-2.573.328h-.429c-1.335-.008-2.719-.013-4.082,0-.593.007-1.231.026-1.868.118-.818.12-1.649.148-2.454.178-.329.011-.656.023-.978.04l-.055.003-1.253-.81c-.765-.116-1.348-.027-1.887.29-.121.073-.226.121-.331.153-1.459.44-2.762.861-3.952,1.577-.276.165-.561.299-.862.438-.133.062-.269.125-.406.192l-.074.036-.075-.035c-.09-.043-.182-.083-.273-.124-.204-.091-.416-.184-.613-.305-.901-.555-1.643-1.029-2.335-1.493-.52-.348-1.315-.769-2.184-.699-1.045.067-1.922.574-2.532,1.466-.916,1.333-1.888,2.169-3.064,2.633l-.063.012h-.943l-.047-.038c-.067-.054-.14-.109-.215-.167-.182-.137-.389-.295-.574-.473-.328-.316-.648-.639-.97-.962-.327-.329-.654-.659-.988-.98-.533-.511-1.025-.862-1.552-1.105-.925-.429-2.012-.239-2.644.46-.368.407-.594.785-.71,1.189-.091.317-.165.648-.235.967-.034.149-.066.3-.101.448-.243,1.027-.616,2.366-1.353,3.607-.296.5-.664.937-1.019,1.361l-.191.227c-.675.814-1.622,1.179-2.952,1.136-.137-.005-.266-.04-.39-.075-.113-.031-.221-.061-.321-.063-1.044-.017-1.924-.476-2.667-.905-.394-.229-.785-.461-1.157-.683l-.437-.261h-.853c-.519.211-.846.539-1.027,1.029v1.011c.09.104.183.211.277.32.262.307.533.623.827.92.235.235.508.449.772.658.097.075.194.152.289.23,1.042.842,2.064,1.43,3.127,1.795,1.44.498,2.922.512,4.402.046.866-.274,1.569-.838,2.215-1.391,1.321-1.134,2.333-2.47,3.01-3.974.222-.495.426-.997.64-1.52.104-.253.208-.51.319-.775l.078-.188.172.109c.055.034.109.065.161.095.113.065.229.132.331.219.179.149.352.308.527.465.29.264.589.535.906.764.964.703,2.064,1.037,3.19.966.662-.04,1.337-.191,2.008-.446,1.356-.514,2.44-1.395,3.316-2.692.069-.102.136-.206.203-.311.272-.425.553-.865.982-1.169l.089-.062.094.052c.16.089.319.168.473.247.339.171.659.332.944.554.687.534,1.43.978,2.208,1.317.654.285,1.424.589,2.193.678,1.555.178,2.737-.012,3.732-.6.297-.176.62-.315.932-.448.144-.062.29-.125.434-.191l.219-.101.024.239c.086.816-.063,1.571-.207,2.298l-.046.235c-.247,1.274-.807,2.421-1.349,3.53-.229.467-.469.929-.709,1.391-.405.776-.822,1.579-1.171,2.392-.795,1.849-2.192,3.233-3.556,4.492-.504.465-1.027.892-1.58,1.342-.245.2-.492.402-.742.611l-.067.035-1.083.28-.484.842.169.555.562.64.758.145c.108-.036.222-.074.34-.112.321-.105.685-.223,1.027-.373.9-.394,1.627-1.017,2.418-1.729.428-.385.908-.862,1.231-1.474.12-.226.242-.452.366-.678.223-.407.453-.828.658-1.252.297-.619.582-1.256.858-1.873.149-.336.3-.672.453-1.006.611-1.335,1.222-2.672,1.838-4.005.69-1.493,1.2-3.081,1.65-4.482.03-.09.047-.184.066-.277.024-.122.05-.243.09-.359.273-.763.316-1.387-.355-1.95l-.165-.139.588-.444h3.432l.047.039c.03.024.058.044.083.063.058.044.114.086.161.145.885,1.123,1.629,2.421,2.407,4.207.25.572.492,1.147.736,1.723.222.526.444,1.052.671,1.576.147.338.301.671.455,1.006.265.573.538,1.165.767,1.764l.036.097c.261.69.531,1.401.526,2.172-.001.237.001.473.004.711.011.775.02,1.575-.133,2.376-.18.94-.405,1.876-.668,2.78-.102.35-.218.697-.332,1.044-.188.568-.383,1.154-.512,1.74-.242,1.089-.582,2.162-.912,3.201-.219.687-.445,1.397-.639,2.103-.141.511-.301,1.091-.609,1.555-.21.313-.395.612-.527,1.038l.776.898c.085.001.165.004.243.005.214.007.395.011.568-.015.145-.022.289-.078.441-.14.054-.022.108-.043.161-.063.036-.048.071-.098.106-.147.102-.147.208-.299.348-.422.471-.416.711-.966.966-1.548l.056-.129c.03-.067.054-.139.078-.208.039-.114.078-.226.133-.331.522-.999.924-2.074,1.313-3.113.087-.233.175-.467.264-.699.543-1.424.831-2.823.855-4.158.048-2.536.03-5.118.012-7.614l-.004-.655c-.005-.674-.066-1.204-.192-1.666-.258-.951-.689-1.906-1.276-2.838l-.18-.284c-.518-.816-1.053-1.661-1.501-2.538-.389-.763-.718-1.533-1.066-2.349-.149-.347-.299-.697-.453-1.048l-.089-.202.217-.038c.288-.05.57-.097.851-.144.631-.105,1.228-.203,1.829-.325.351-.073.701-.155,1.048-.237.52-.124,1.057-.25,1.588-.335l.211-.035-.012.214c-.012.194-.024.381-.036.562-.028.425-.056.826-.058,1.224,0,.129.03.265.062.407.034.152.069.309.07.473.008.773.212,1.543.403,2.201.694,2.402,1.962,4.551,3.879,6.568.679.715,1.38,1.475,2.086,2.259.69.768,1.263,1.626,1.704,2.554.203.429.391.866.58,1.302.238.554.485,1.127.76,1.67.746,1.475,1.6,2.913,2.542,4.271l.198.286c.628.914,1.221,1.779,2.095,2.438h.853l.494-.745-.178-.391c-.155-.342-.3-.662-.456-.978-.186-.378-.381-.752-.577-1.126-.395-.756-.804-1.538-1.126-2.344-.463-1.155-1.115-2.267-1.994-3.398-.831-1.069-1.528-1.912-2.192-2.657-1.307-1.465-2.668-2.925-3.985-4.338-.714-.767-1.284-1.646-1.794-2.483-.763-1.255-1.109-2.661-1.446-4.021-.051-.21-.104-.42-.156-.628l-.032-.125c-.097-.375-.208-.799-.105-1.167.102-.374.109-.746.116-1.14l.004-.187-.631-1.06,2.462-.546.066.089c.081.106.155.208.226.305.14.19.268.363.406.527.087.104.176.21.264.315.293.352.597.717.932,1.027.212.196.451.378.682.553.485.368.988.749,1.327,1.321.07.118.191.219.319.327.04.034.081.069.12.102.122.109.25.214.377.319.192.16.385.32.566.492.202.191.397.39.59.589.195.2.39.401.593.592.235.222.477.437.719.651.394.351.802.714,1.175,1.101.282.293.539.616.788.927.258.321.524.655.814.949.687.699,1.331,1.451,1.953,2.179.229.266.459.534.689.799,1.252,1.435,2.737,2.707,4.414,3.782.198.128.399.25.6.373.399.246.814.5,1.201.783.846.615,1.738,1.185,2.726,1.743.265.148.524.303.787.459l.296.175h1.077c1.175-.566,1.482-1.307.992-2.395l-.373-.389c-1.762-1.873-3.755-3.542-5.471-4.929-.717-.58-1.495-1.175-2.329-1.611-.424-.221-.841-.453-1.257-.686-.432-.241-.865-.481-1.303-.709-.695-.359-1.354-.777-1.958-1.244l-.375-.286c-.374-.284-.76-.578-1.119-.885-.658-.559-1.264-1.193-1.849-1.807-.187-.195-.374-.391-.563-.585-.129-.133-.249-.28-.367-.426-.198-.245-.385-.476-.616-.633-.473-.323-.791-.756-1.097-1.174-.095-.13-.191-.26-.289-.386-.444-.559-.87-1.146-1.282-1.715l-.338-.467c-.19-.258-.371-.522-.569-.81l-.397-.572.218-.073c.339-.114.65-.277.949-.436.453-.238.923-.485,1.479-.547l.101-.012.202.282c.095.132.183.253.261.379.243.395.487.791.729,1.187.367.602.736,1.205,1.111,1.803.173.276.358.546.542.816.303.445.616.905.878,1.388.705,1.306,1.779,2.387,3.381,3.404,1.49.945,3.193.901,4.501.763-.007-.001.005-.011.019-.02.024-.016.05-.035.078-.051l.109-.065.094.085c.038.035.078.069.117.102.101.086.203.173.295.278.106.125.206.257.305.387.169.223.329.434.52.611.433.395.78.858,1.115,1.304.133.178.266.354.405.527.559.698,1.158,1.439,1.779,2.146.133.152.3.277.476.41.112.085.225.169.329.261.92.807,1.841,1.334,2.817,1.612.948.27,1.864.246,2.719-.073.348-.129.691-.296,1.025-.459.198-.095.395-.192.596-.282.133-.059.273-.108.424-.157.073-.026.149-.051.229-.079l.12-.043.077.101c.139.182.278.359.418.534.301.379.585.738.838,1.134,1.026,1.612,2.362,3.007,3.653,4.275.913.897,2.012,1.591,3.076,2.263l.141.09c.43.272.893.51,1.341.741.359.184.729.375,1.083.584,1.068.625,2.219,1.12,3.333,1.599l.235.101c1.413.612,2.982,1.05,4.792,1.345.73.118,1.477.151,2.199.182.167.008.331.035.49.061.334.054.646.105.96-.02.134-.054.27-.011.394.032.055.017.113.038.156.042.071.005.148.016.223.027.19.027.385.054.514.003.277-.116.538-.121.791-.126.079-.001.159-.003.239-.008.355-.024.711-.034,1.069-.043.512-.013,1.044-.027,1.564-.087.329-.039.658-.073.987-.108.664-.069,1.35-.14,2.023-.245,1.279-.199,2.648-.515,4.184-.966,3.191-.936,5.741-1.962,8.025-3.232.893-.495,1.83-1.049,2.949-1.743.301-.187.598-.397.886-.6.304-.215.619-.438.943-.636,1.426-.871,2.769-1.922,4.108-3.211.199-.191.383-.412.562-.624.188-.226.383-.459.602-.667.863-.819,1.456-1.859,2.029-2.865.102-.18.204-.359.308-.537.596-1.022,1.066-2.234,1.481-3.815.207-.784.328-1.647.37-2.637.027-.609-.032-1.226-.089-1.824-.031-.321-.062-.641-.081-.964Zm-75.275-32.388c-.633.315-1.307.757-1.49,1.651-.023.109-.106.179-.156.221l-.074.086-.126-.02-4.247-1.385.008-.134c.027-.39-.128-.718-.293-1.066-.125-.265-.256-.539-.307-.851l-.026-.151c-.059-.343-.12-.698-.066-1.042.038-.243.074-.488.11-.733.187-1.271.381-2.585.866-3.827l.032-.083c.281-.724.332-.854.892-1.388l.054-.035c.857-.347,1.555-.484,2.258-.442.121.02.288-.05.467-.118.082-.031.167-.063.256-.091l.69-.834c.075-.66.009-1.255-.208-1.92-.496-1.52-.253-3.014.742-4.567.311-.483.655-.945.988-1.392.246-.329.491-.658.725-.997.141-.206.281-.413.421-.62.297-.442.607-.901.933-1.334.65-.865,1.576-1.361,2.47-1.842,1.037-.554,1.639-1.428,1.844-2.674.066-.399.094-.807.121-1.2.011-.14.02-.28.031-.42.027-.328.048-.658.07-.987.063-.948.128-1.927.29-2.879.204-1.2.543-2.453,1.065-3.943.445-1.272.902-2.266,1.439-3.131.323-.518.761-1.182,1.296-1.731l.157-.161c.851-.875,1.731-1.782,2.717-2.522,1.411-1.06,2.949-2.168,4.644-3.09,1.622-.886,3.353-1.401,5.283-1.935.585-.164,1.2-.227,1.795-.289.273-.028.547-.058.818-.095l.438-.061c.233-.034.464-.066.697-.095.144-.017.288-.027.43-.035.238-.015.464-.03.693-.083.338-.081.689-.036,1.029.007.139.017.276.035.412.043.078.005.155.015.233.024.106.013.212.027.32.027.04-.005.071,0,.106,0,1.447,0,2.96.16,4.751.5,1.807.344,3.288.726,4.66,1.201,1.05.364,2.11.859,3.334,1.559,1.701.97,3.129,1.744,4.496,2.437.789.398,1.556.562,2.275.494,1.114-.11,2.152.184,3.28.928.155.104.315.199.475.295.405.241.824.491,1.162.862.118.129.226.269.334.41.109.141.218.284.34.414.383.407.546.964.459,1.569-.104.707-.53,1.373-1.087,1.697-.775.451-1.649.745-2.598.875-.752.104-1.509.207-2.238.371-.785.176-1.382.668-1.774,1.463-.001.1-.005.2-.009.301-.017.418-.034.812.137,1.194l.044.098-.07.083c-.641.756-1.451,1.294-2.23,1.764-1.194.721-2.468,1.259-3.783,1.6-.12.031-.238.066-.355.101-.246.073-.499.148-.761.184-.312.042-.628.067-.943.093-.336.027-.683.054-1.019.105-.581.087-1.2.195-1.794.39-.803.262-1.568.578-2.413.936-.717.303-1.387.724-1.448,1.748.039.186.083.401.139.667l.6.547c.792.328,1.692.258,2.548.161.258-.03.516-.051.777-.073.983-.083,1.998-.168,2.897-.679l.065-.022c.816-.106,1.591.098,2.316.307.382.11.767.21,1.153.308.471.121.959.246,1.432.391.313.097.75.274,1.06.57.436.416,1.009.541,1.704.375.523-.124,1.036-.129,1.532-.133.157-.001.316-.003.475-.008.76-.024,1.759-.011,2.742.331,1.174.41,2.586,1.517,2.89,2.762l.013.052-.02.051c-.264.674-.842.92-1.401,1.157-.229.098-.467.199-.683.329l-.04.024h-.048c-.125,0-.258.003-.395.005-.321.005-.682.015-1.038-.012-.748-.062-1.458.095-2.207.257-.221.047-.441.095-.662.137-1.28.242-2.488.768-3.655,1.278l-.43.187c-1.388.598-2.914,1.087-4.667,1.493-1.307.3-2.71.558-4.196.485-1.54-.083-2.885-.364-4.108-.857-1.03-.414-2.041-.963-3.181-1.727-.526-.352-1.045-.73-1.547-1.095-.689-.502-1.401-1.021-2.136-1.475-1.114-.69-2.222-.882-3.393-.59-.615.153-1.252.199-1.738.222-1.499.073-3.038.449-4.988,1.221-.966.382-1.816.754-2.6,1.139-.425.208-.968.498-1.403.894-.617.57-.936,1.231-.947,1.961-.008.502-.004,1.005,0,1.506.004.585.008,1.17-.005,1.755-.022.99-.309,1.951-.877,2.938-.596,1.036-1.424,2.017-2.532,3.002-1.586,1.405-3.175,2.515-4.86,3.392-.477.247-.974.468-1.454.682-.403.179-.807.358-1.202.555Zm72.512,30.379c-.117.451-.093.952-.069,1.438.039.788.032,1.813-.375,2.745-.436.998-.925,2.047-1.69,2.948-.332.39-.672.772-1.013,1.154l-.304.343c-.112.125-.221.253-.329.379-.266.311-.542.631-.842.923-.561.547-1.186,1.116-1.91,1.738-.319.274-.66.529-.991.773-.126.094-.253.188-.379.284-.211.161-.422.324-.633.488-.518.401-1.053.816-1.606,1.19l-.469.319c-1.224.834-2.488,1.696-3.791,2.45-.959.555-1.989,1.015-2.984,1.462-.238.106-.475.212-.711.32-1.194.539-2.125.929-3.018,1.26-1.809.67-3.753,1.244-5.781,1.705-.779.178-1.571.295-2.519.416-.992.128-1.992.163-2.98.163-.654,0-1.302-.015-1.942-.031-.305-.007-.611-.015-.916-.02-1.42-.027-2.839-.364-4.057-.679-1.622-.417-3.197-.987-4.68-1.693-1.151-.549-2.255-1.235-3.322-1.896l-.368-.229c-.655-.406-1.288-.863-1.902-1.307l-.53-.382c-.202-.143-.393-.317-.568-.519-.68-.789-1.357-1.583-2.005-2.344l-.737-.865c-.867-.367-1.646-.346-2.444.07l-.059.032-.065-.017c-.266-.071-.53-.139-.791-.206-.605-.155-1.177-.301-1.752-.483-.777-.249-1.517-.654-2.396-1.314-1.221-.916-2.07-2.138-2.89-3.32-.246-.354-.492-.709-.748-1.056l-.159-.215c-.278-.382-.566-.776-.894-1.114-.225-.231-.499-.426-.764-.616-.101-.073-.202-.144-.297-.217-.184,0-.363-.001-.538-.004-.421-.003-.82-.007-1.218.009-1.33.056-2.497-.422-3.6-1.456-.253-.237-.481-.503-.702-.76-.241-.278-.488-.568-.761-.81-.94-.836-1.545-1.903-2.129-2.934-.2-.354-.399-.706-.613-1.05-.14-.223-.285-.468-.409-.73-.066-.143-.109-.292-.147-.425-.016-.055-.031-.108-.047-.156l-.042-.129.116-.071c1.339-.823,2.55-1.795,3.718-2.735.398-.32.796-.639,1.2-.955l.137-.106.106.137c.173.227.161.465.152.658-.005.109-.011.204.016.282.227.597.647.882,1.313.882.043,0,.086-.001.129-.004.788-.04,1.588-.035,2.267-.022,1.147.019,2.207.277,3.065.745.711.389,1.61.953,2.25,1.881l.226.325c.617.889,1.255,1.807,1.751,2.801.28.561.725.968,1.401,1.28h.122c.14-.005.3-.005.46.001.393.02.691-.117.964-.413l.087-.094c.144-.156.292-.317.464-.455l.125-.102c.208-.173.424-.352.686-.418,1.224-.312,2.255-.526,3.396-.23.18.047.36.089.541.13.42.098.855.199,1.28.359.943.354,1.795.888,2.606,1.635.222.204.451.401.679.598.231.199.463.399.687.607l.085.077c.457.417.929.847,1.251,1.42.052.095.141.18.219.254.024.023.047.046.067.066l.694.225c.711-.024,1.148-.59,1.298-1.682l.039-.289.234.173c.374.277.753.367,1.186.286.242-.129.412-.382.503-.753l.102-.414c.139-.562.282-1.142.389-1.715.277-1.493.756-2.899,1.421-4.18.128-.246.25-.495.371-.744.195-.398.397-.81.621-1.202.457-.799,1.146-1.473,2.168-2.119l.128-.081c.706-.448,1.435-.912,2.249-1.232.635-.25,1.292-.375,1.928-.495l.305-.059c.442-.079.842.116,1.197.292l.147.073c.114.054.207.132.297.206.042.035.083.07.128.101.643.465,1.399.596,2.129.363.777-.246,1.421-.863,1.68-1.612.549-1.583,1.483-2.961,2.702-3.986.823-.694,1.724-1.393,2.871-1.664,1.075-.25,2.164-.214,3.323.118,1.019.293,1.889.796,2.606,1.249.479.3,1.006.549,1.517.789.268.126.535.251.797.386.27.139.57.14.917.144.155.001.316.003.484.015l.221.017-.071.21c-.067.202-.128.401-.187.594-.129.426-.251.827-.432,1.212-.748,1.598-1.56,3.31-2.442,5.005-.524,1.007-1.118,1.945-1.767,2.787-.152.198-.273.418-.39.631-.052.094-.102.184-.152.269l-.042.069-.079.012c-4.386.682-7.518,2.815-9.574,6.52l.02.738c.039.051.081.106.128.159.705.765,1.268.516,1.83.164.476-.3.925-.674,1.358-1.034l.12-.1c.663-.553,1.318-1.114,1.973-1.674l.884-.753,1.005.699c.889-.055,1.329-.629,1.794-1.237.082-.108.164-.214.249-.317.368-.453.711-.925,1.041-1.381.144-.198.285-.393.422-.577l.038-.05.059-.015c1.023-.258,2.117-.467,3.22.038l.051.023.027.047c.051.09.1.183.148.277.176.344.343.668.698.866h.94c.359-.234.562-.58.728-.919.109-.225.26-.424.405-.616.055-.073.109-.144.161-.217.1-.141.204-.278.309-.416.215-.281.418-.546.576-.839.639-1.182,1.541-1.961,2.76-2.38.009-.003.036-.023.056-.038.023-.016.048-.035.078-.054l.043-.028,1.66.012c1.582.627,2.561,1.885,3.081,3.961.147.584.126,1.267-.056,1.976Z" stroke-width="0"/>
      <path d="m214.171,60.32c-.354-.172-.707-.343-1.064-.508-2.273-1.056-4.48-2.314-6.34-3.408-1.392-.816-2.796-1.665-4.154-2.485l-1.036-.624c-.562-.34-1.122-.685-1.719-1.053l-.703-.433-.956.171-.062-.05c-.212-.173-.434-.26-.678-.26-.235,0-.491.081-.781.242l-.34.325q-.733.683-1.178,1.686l-.218.491c-.866,1.924-1.735,3.996-2.023,6.278-.149,1.192-.233,2.988.027,4.127.43,1.892,1.165,3.658,2.184,5.248.058.093.109.188.159.285l.043.083c.715,1.358,1.669,2.687,2.836,3.948,1.325,1.431,2.636,2.811,4.111,3.975,1.056.83,1.984,1.419,2.922,1.85,1.811.831,3.794,1.052,5.494,1.157,1.084.071,2.172-.082,3.229-.225l.508-.069c1.382-.18,2.59-.456,3.696-.841.308-.108.617-.214.927-.319.578-.195,1.175-.398,1.752-.62,1.497-.577,2.665-1.167,3.681-1.859.678-.461,1.337-.983,1.973-1.486l.042-.032c.274-.218.539-.448.804-.678.191-.165.383-.332.577-.494.437-.362.874-.719,1.313-1.079.432-.354.862-.706,1.291-1.062.161-.133.317-.277.473-.42.29-.268.593-.545.933-.763.855-.547,1.436-1.373,1.777-2.523.04-.137.036-.297.031-.468-.005-.202-.012-.41.056-.608.152-.44.134-.875.12-1.26v-.012c-.375-.615-.933-.845-1.522-1.042-.062-.02-.125-.038-.187-.055-.067-.019-.134-.038-.2-.061-1.381-.46-2.82-.799-4.399-1.036-.379-.058-.773-.087-1.154-.117-.269-.02-.537-.042-.804-.071-.467-.052-.939-.106-1.395-.221-1.007-.253-1.906-.492-2.746-.736-1.161-.332-2.288-.781-3.378-1.216-.455-.182-.908-.363-1.365-.535-.874-.329-1.729-.744-2.557-1.143Zm-17.366.11c-.028-.285.004-.577.102-.919.188-.663.321-1.36.451-2.032l.094-.494c.176-.904.453-1.85.874-2.976.056-.151.175-.257.288-.36.044-.04.089-.081.129-.125l.117-.128.126.12c1.358,1.271,2.918,2.301,4.274,3.166.861.55,1.715,1.112,2.569,1.674.511.338,1.022.674,1.536,1.009.382.249.771.49,1.167.734l.828.516-.312.128c-.032.012-.058.026-.081.035-.055.027-.108.052-.175.054-1.092.026-2.183.066-3.275.106-1.037.038-2.075.075-3.113.102-.648.017-1.299.044-1.949.07-.701.03-1.401.058-2.102.075-.144.003-.295.04-.455.081-.082.02-.164.042-.25.058l-.098.02-.741-.859-.005-.055Zm8.888,15.58l-.087.168-.159-.102c-1.287-.831-2.249-1.961-3.177-3.051l-.379-.444c-1.114-1.294-2.013-2.75-2.84-4.131-1.013-1.694-1.611-3.074-1.941-4.477l-.032-.14.133-.058c.038-.016.067-.031.093-.043.055-.028.108-.054.175-.058.344-.02.691-.039,1.037-.056.714-.039,1.454-.078,2.176-.14.336-.028.679-.095,1.011-.16.221-.043.442-.086.664-.12.198-.03.405-.027.594-.028h.596c.917-.004,1.836-.007,2.758.001h.147c1.561,0,3.225-.223,5.079-.683.145-.036.289-.1.441-.168.075-.034.152-.067.231-.1l.078-.031.557.325-.027.122c-.005.024-.008.046-.011.066-.008.062-.017.148-.089.208-.624.558-1.045,1.294-1.451,2.005-.083.147-.167.292-.251.436-.819,1.392-1.596,2.842-2.349,4.244l-.098.184c-.16.296-.303.612-.44.916-.157.347-.319.705-.508,1.045-.398.709-.699,1.446-1.019,2.226-.276.672-.561,1.368-.912,2.043Zm17.089-.452c-1.239.796-2.573,1.397-4.08,1.836-.843.245-1.709.433-2.546.617l-.697.153c-.624.141-1.275.179-1.904.215l-.078.004c-.342.016-.687.015-1.022.012-.299-.004-.598-.005-.898.007-.066.003-.133.004-.199.004-.936,0-1.824-.265-2.657-.539-.27-.09-.526-.217-.773-.339l-.198-.097c-.145-.069-.286-.148-.441-.234l-.356-.196.023-.124c.008-.042.012-.089.016-.139.013-.141.028-.303.117-.438.461-.71.839-1.483,1.204-2.232.175-.358.35-.715.533-1.068,1.185-2.271,2.36-4.486,3.708-6.622.378-.601.854-1.138,1.498-1.689l.276-.238.008.364c.017.878.535,1.455,1.084,2.066l.094.106c.34.382.717.748,1.08,1.101.288.28.576.561.851.853,1.118,1.183,2.288,2.473,3.271,3.895.391.566.76,1.053,1.13,1.487.195.233.421.44.66.66.108.1.217.2.325.305l.156.151-.183.118Zm-5.252-11.143c.448.155.893.32,1.338.485.537.199,1.089.405,1.639.588,1.229.407,2.461.804,3.693,1.202.88.282,1.758.566,2.635.853.718.237,1.518.386,2.519.472.351.03.706.079,1.084.133.182.026.371.051.574.078l.317.042-.208.242c-.274.317-.499.658-.715.986-.367.555-.714,1.081-1.278,1.51-.448.339-.888.71-1.314,1.069-.524.441-1.066.898-1.634,1.309-.363.261-.73.515-1.087.76l-.576.398-.091-.047c-.717-.362-1.058-.972-1.388-1.564l-.026-.046c-.594-1.062-1.327-2.037-2.031-2.933-.874-1.116-1.85-2.145-2.858-3.189-.465-.483-.886-1.007-1.333-1.561-.208-.261-.425-.53-.655-.807l-.331-.397.503.118c.157.038.304.07.441.098.288.062.537.116.78.2Z" stroke-width="0"/>
      <path d="m104.649,84.969c.319-.101.636-.206.953-.309.726-.239,1.477-.485,2.23-.686,1.165-.308,2.418-.613,3.69-.758.129-.015.261-.026.393-.036.338-.026.656-.051.943-.155.265-.095.514-.108.754-.118.113-.005.226-.011.339-.026.141-.017.281-.04.421-.062.239-.038.48-.075.721-.094.627-.05,1.255-.091,1.881-.132l.756-.05c.027-.001.051-.001.082,0,.013.001.038,0,.047.001.581-.179,1.178-.206,1.756-.233.315-.013.641-.028.956-.069.533-.069,1.08-.055,1.61-.046.249.004.506.008.746.007.175-.001.348-.016.52-.031l.044-.004c.117-.009.237-.03.356-.051.278-.047.562-.097.839-.026.383.101.765.105,1.17.108.256.003.52.004.785.034l.051.005.367.303h1.001l.612-.57c.468-.994-.02-1.571-.724-2.208h-.005c-.07-.009-.165-.02-.258-.062-.689-.313-1.409-.542-2.204-.698-.551-.109-1.135-.211-1.837-.321-.194-.03-.387-.065-.58-.098-.543-.097-1.104-.196-1.662-.199h-.005c-.044,0-.091.004-.137.008-.133.011-.292.026-.429-.044-.261-.129-.537-.124-.839-.12-.164,0-.327.005-.491-.015-.143-.016-.285-.036-.428-.056-.313-.046-.609-.087-.906-.087h-.027l-.481.003c-.784.005-1.594.009-2.392.101-1.304.151-2.376.324-3.373.547-1.673.375-3.334.955-4.936,1.724-.978.471-2.009,1.019-3.152,1.676-.531.304-.983.605-1.128,1.221v.085c-.016.344-.031.699.187,1.006.401.572,1.056.764,1.783.537Z" stroke-width="0"/>
      <path d="m86.306,87.656c.12.377.238.75.358,1.122.741.908,1.61,1.157,2.452.697.379-.207.624-.455.769-.78.026-.056.052-.11.081-.165.121-.241.196-.409.128-.611h-1.29l-.003-.169c-.004-.241-.005-.477-.008-.711-.007-.924-.012-1.795-.161-2.656-.054-.305-.078-.617-.102-.92-.023-.29-.046-.59-.095-.877-.026-.151-.106-.301-.192-.46-.055-.104-.11-.207-.153-.313-.179-.441-.57-.629-1.066-.869l-.156-.075-1.165.218-.711.906c-.143,1.17.124,2.128.403,2.91.329.914.627,1.85.913,2.754Z" stroke-width="0"/>
      <path d="m73.802,90.145c.095.203.186.41.277.617.156.358.317.729.51,1.069.321.565.702,1.136,1.161,1.75.23.309.601.43,1.014.319.496-.136.85-.269.878-.76.007-.113.063-.208.105-.278h0s-.003-.016-.003-.016c-.104-.412-.187-.738-.49-.904l-.667-.105-.125-.3c-.071-.169-.137-.329-.196-.494-.526-1.45-.906-3.006-1.165-4.758-.121-.827-.438-1.356-1.03-1.708h-.75c-.071.093-.147.186-.223.277-.206.246-.399.479-.472.734-.129.461-.059,1.014.023,1.395.249,1.17.722,2.255,1.154,3.162Z" stroke-width="0"/>
    </g>
  </g>
</svg>