<?xml version="1.0" encoding="UTF-8"?>
<svg id="b" data-name="Layer 2" xmlns="http://www.w3.org/2000/svg" width="150.427" height="276.726" viewBox="0 0 150.427 276.726">
  <g id="c" data-name="Layer 1">
    <g>
      <path d="m85.629,136.761c.055.257.174.45.345.561.144.091.319.119.505.078.394-.085.682-.603.666-.992l-.006-.146c-.023-.558-.047-1.135.095-1.671.486-1.834,1.179-3.191,2.179-4.269.181-.196.426-.581.026-.964-.096-.09-.387-.37-.939.052-.152.118-.3.259-.427.412-1.337,1.624-2.137,3.611-2.515,6.253.01.101.017.191.023.275.012.162.022.291.048.413Z" stroke-width="0"/>
      <path d="m89.157,137.485c.01.134.017.229.03.323.079.585.348.665.573.671h.018c.307,0,.367-.196.455-.565l.023-.095c.029-.118.055-.237.082-.357.094-.42.191-.854.394-1.234.298-.558.634-1.105.958-1.634.276-.449.561-.914.82-1.381.134-.24.217-.632.127-.796-.104-.194-.282-.268-.792.008-.128.068-.239.145-.328.227-1.534,1.412-2.091,3.306-2.376,4.617l.017.215Z" stroke-width="0"/>
      <path d="m150.367,202.945c-.427-5.93-2.576-10.361-6.571-13.55-2.592-2.071-5.746-3.467-9.642-4.268-4.637-.953-9.249-1.085-14.365-1.151-5.094-.066-9.368-1.414-13.066-4.119-3.426-2.505-6.23-5.246-8.589-8.328-.007-1.793.061-3.341.222-4.781.277-2.466.674-4.941,1.073-7.37,4.854,2.488,10.093,3.54,15.658,3.091,8.403-.684,16.292-3.502,23.446-8.375,3.622-2.466,6.106-5.691,7.591-9.859,1.001-2.807,1.836-5.592,2.821-8.943.257-.875.322-1.878.361-2.748.074-1.579-.323-2.973-1.179-4.143-.244-.331-.46-.689-.668-1.034-.349-.58-.663-1.101-1.065-1.51-4.781-4.873-9.938-7.299-15.768-7.418-.802-.023-1.459.052-2.052.468-.253.179-.553.203-.795.223l-.078.007c-.758.074-1.532.128-2.28.18l-.12.008c-1.646.11-3.348.226-4.984.562-5.729,1.178-11.297,3.748-17.023,7.861-.864.621-1.671,1.259-2.452,1.907-.11-1.005-.426-2.013-1.352-2.79l-.1-.083.065-.112c.535-.928.589-1.914.507-3.106-.04-.576-.085-1.151-.13-1.728-.142-1.822-.289-3.707-.288-5.563.004-5.173.035-10.434.066-15.521.032-5.086.064-10.345.067-15.519.002-4.273-.097-8.618-.193-12.819l-.054-2.411c-.175-8.009.138-16.139.442-24.002l.082-2.058c.089-2.185.18-4.446.16-6.666-.013-1.322-.091-2.666-.166-3.968-.086-1.482-.174-3.015-.168-4.525.026-6.329-.203-11.96-.701-17.213-.054-.564-.102-1.129-.15-1.694-.121-1.417-.246-2.883-.462-4.308-.182-1.208-.592-2.402-1.007-3.514-.282-.755-.879-1.317-1.636-1.542-1.716-.511-3.174-.638-4.589-.408-3.891.636-6.1,2.211-7.161,5.108-.198.541-.401,1.082-.604,1.623-.801,2.137-1.629,4.347-2.168,6.583-1.051,4.36-2.112,9.06-2.758,13.865-.76,5.652-1.136,11.435-1.429,16.413-.221,3.753-.289,7.58-.357,11.281-.02,1.147-.041,2.292-.066,3.437-.061,2.821-.108,5.641-.155,8.463-.043,2.57-.085,5.141-.139,7.712-.073,3.45-.164,7.462-.318,11.393-.078,1.993-.18,4.017-.279,5.976-.142,2.821-.288,5.74-.365,8.611-.054,2.003.035,4.044.12,6.017.031.717.061,1.432.086,2.149.024.71.046,1.42.066,2.13.071,2.354.143,4.787.33,7.17.116,1.492.42,3.108.958,5.086.381,1.403,1.419,2.196,2.922,2.231.504.011,1.01.007,1.512.001.346-.004.693-.004,1.044-.011.146-.004.293-.007.438-.007.092,0,.184.001.275.005.696.026.917.559,1.032,1.022.125.496-.234.595-.426.648-.077.02-.156.042-.197.076-.132.11-.271.216-.412.321-.337.255-.687.517-.9.843-.508.772-1.01,1.605-1.233,2.471-.353,1.363-.526,2.725-.54,4.079-.743-.804-1.448-1.658-2.071-2.619-2.259-3.48-4.567-6.491-7.056-9.205-3.633-3.961-7.93-6.691-12.774-8.113-3.484-1.025-7.295-.897-11.987.394-4.27,1.177-7.615,3.82-10.226,8.083-1,1.63-1.449,3.004-1.457,4.453,0,.228-.041.42-.121.57-.641,1.197-.51,2.516-.305,3.877.438,2.902,1.708,5.473,3.017,7.822,4.076,7.32,9.821,11.8,17.075,13.314,5.627,1.175,11.629,1.303,17.837.377l2.357-.348-1.117.954c-.258.222-.505.427-.743.625l-.053.044c-.461.384-.896.748-1.298,1.131-2.977,2.826-5.337,6.613-7.213,11.575-2.119,5.603-2.957,11.658-2.489,17.994.327,4.439.264,7.853-.199,11.07-.501,3.471-1.468,6.066-3.046,8.166-3.288,4.378-6.873,7.37-10.959,9.146-3.962,1.723-7.993,3.317-11.982,4.74-5.676,2.022-13.068,4.961-19.909,9.786-4.65,3.28-8.087,7.316-10.51,12.341-2.423,5.023-3.908,10.524-5.111,15.284-.206.816-.182,1.743-.158,2.64l.002.107c.007.243.013.484.013.724.001.465.2.791.579.942.264.107.543.092.995-.335.265-.251.539-.48.856-.747l.095-.079c.14-.118.289-.244.449-.379l.767-.658-.104,1.457c-.018.241-.031.427-.04.615-.025.675.156,1.106.573,1.355.42.253.843.192,1.252-.175.427-.379.914-.828,1.259-1.358l.202-.311c1.151-1.768,2.341-3.597,3.402-5.478l.058-.102c1.467-2.604,2.985-5.298,4.823-7.726,3.669-4.84,8.474-8.642,14.283-11.299,3.802-1.741,7.974-3.509,12.754-5.406,7.954-3.158,14.478-7.418,19.944-13.025,3.284-3.37,5.453-6.266,7.033-9.392,2.207-4.368,3.569-9.342,4.167-15.203.235-2.307.448-4.657.656-6.93.217-2.402.465-5.125.74-7.747.55-5.268,2.147-9.846,4.747-13.607.714-1.031,1.459-2.045,2.21-3.047-.255,3.133-.394,6.455-.028,9.719.585,5.202.237,10.389-1.034,15.417-1.055,4.186-1.471,7.614-1.307,10.787.192,3.699-.21,7.254-1.197,10.565-1.21,4.058-1.872,7.454-2.079,10.687-.217,3.366-.268,7.315,1.005,11.086.75,2.22,1.931,3.843,3.608,4.963.199.132.322.423.357.652.041.28.065.564.088.839.03.361.06.735.132,1.088.533,2.605,1.8,4.62,3.767,5.99,1.702,1.184,3.788,1.815,6.03,1.825h.118c1.411,0,3.009-.124,4.308-.942,3.344-2.111,5.147-4.789,5.512-8.188.031-.298.06-.597.089-.896.058-.588.116-1.197.199-1.795.036-.264.232-.569.445-.693,1.635-.944,2.638-2.446,3.155-4.727.497-2.185.568-4.352.209-6.441-.088-.515-.169-1.031-.251-1.548-.14-.897-.287-1.825-.468-2.728-.125-.628-.244-1.257-.363-1.886-.48-2.534-.977-5.155-1.852-7.639-.648-1.842-1.391-3.987-2.017-6.163-.77-2.679-1.18-5.624-1.268-8.913.849.435,1.734.825,2.654,1.169,4.56,1.705,9.558,2.366,16.22,2.149.466-.016.933-.036,1.4-.055l.293-.013c1.131-.048,2.413-.103,3.67-.103,1.453,0,2.657.071,3.79.221,2.387.316,4.227,1.019,5.794,2.214.95.725,1.588,1.665,1.952,2.873.659,2.202.553,4.476-.315,6.759-2.219,5.834-4.595,10.393-7.478,14.348-6.142,8.43-9.918,17.043-11.54,26.332-.946,5.413-.555,10.046,1.197,14.162.777,1.826,1.759,3.593,2.71,5.302l.393.708c.69,1.245,1.166,2.515,1.451,3.881.227,1.087.522,2.245.9,3.542.162.555.391.898.684,1.019.27.112.627.049,1.061-.187.67-.363,1.399-.701,2.232-.64.265.031.537-.119.74-.219.732-.36,1.478-.439,2.281-.233.483.122,1.043.255,1.58.282.07.004.139.005.209.005,1.256,0,2.231-.545,2.898-1.622,1.275-2.061,1.45-4.209.522-6.383-.309-.724-.729-1.099-1.322-1.175-.25-.032-.498-.157-.665-.334-.285-.299-.577-.593-.873-.887-.728-.731-1.466-1.472-2.089-2.32-3.371-4.591-4.37-9.731-2.968-15.278,1.006-3.985,2.656-7.675,4.904-10.968,1.901-2.783,4.081-5.07,6.735-7.771,3.148-3.202,6.391-6.772,8.78-11.171,2.861-5.277,4.03-9.986,3.68-14.825Zm-51.311-63.551c.155-.417.341-.826.522-1.223.146-.322.294-.645.425-.972.565-1.406.78-2.873.858-4.274.304-.245.606-.493.912-.727,3.583-2.746,7.358-4.804,11.417-6.209,2.885-.999,5.888-1.53,8.792-2.043l.391-.068c.508-.09,1.016-.18,1.524-.274,2.059-.382,4.129-.74,6.13-1.087l1.656-.287c.299-.05.533-.052.741-.006,3.551.76,7.31,1.782,10.732,4.087.921.617,1.528,1.239,1.969,2.017l.205.366-.414.241c-.044.031-.208.149-.43.078-.804-.267-1.471.24-2.193.885-1.489,1.318-3.07,2.754-4.543,4.327-7.139,7.618-15.882,12.186-26.732,13.964-2.167.357-4.335.538-6.445.538-.898,0-1.788-.038-2.674-.101-.609-.044-1.217-.107-1.824-.181-.107-.59-.228-1.175-.394-1.745-.056-.196-.046-.411-.025-.615.181-1.868-.025-3.717-.633-5.652-.098-.313-.085-.72.032-1.036Zm-.414,12.407c.454.143.909.289,1.364.414.113.031.226.05.339.079,3.578.909,7.272.71,10.737.342,9.127-.968,17.704-4.736,26.224-11.523,2.378-1.893,4.695-4.287,7.292-7.531.127-.162.226-.283.328-.4.133-.15.304-.156.376-.158l.568-.07-.036.513c-.031.454-.054.908-.077,1.36l-.007.158c-.056,1.138-.113,2.293-.283,3.419-.321,2.127-.969,4.36-2.042,7.025-.858,2.131-2.283,3.884-4.358,5.361-2.6,1.85-5.477,3.125-8.259,4.359l-.319.143c-3.99,1.772-8.537,2.737-14.308,3.036-.926.048-1.832.072-2.693.072-3.605,0-6.756-.431-9.633-1.317-1.356-.417-2.605-.926-3.806-1.482-.561-.26-1.12-.525-1.65-.817-1.411-.776-2.728-1.651-3.943-2.665-.251-.208-.411-.503-.565-.788-.07-.13-.144-.267-.231-.405l-.634-.998,1.123.37c.675.222,1.324.445,1.959.664.869.298,1.704.575,2.536.837Zm-.812,6.718c-.278,1.698-.57,3.386-.858,5.045l-.142.816c-.273,1.575-.426,3.065-.518,4.52-2.163-3.583-3.245-7.373-3.269-11.527-.001-.312.01-.625.023-.969l.046-1.348.663.537c.245.199.477.394.699.581.431.364.838.707,1.257,1,.69.482,1.391.926,2.1,1.344Zm-3.615-17.417c.755.007,1.514.092,2.247.174.327.036.652.072.975.102l.119.011.158.994c.118.732.226,1.406.329,2.078.066.425.14.906-.239,1.411-.119.158-.139.417-.16.689-.011.134-.022.269-.043.395l-.022.127h-.13c-.019.002-.044.007-.072.007-.044,0-.095-.011-.137-.049-1.038-.926-2.246-1.322-3.478-1.508.068-1.328-.034-2.687-.882-3.835-.126-.17-.131-.423-.08-.659.469.032.94.059,1.414.063Zm-.125-1.705c.577-.617,1.204-1.278,1.944-2.048.697-.725,1.401-1.414,2.111-2.078-.153,1.304-.466,2.5-.987,3.583-.202.42-.429.541-.897.528-.722-.04-1.452-.016-2.171.016Zm2.096,8.354c-.469-.108-.938-.204-1.411-.331-.454-.123-.73-.322-.885-.616h.04c.923.027,1.627.417,2.256.947Zm-13.657-24.201c-.803.133-1.587.215-2.33.244-1.125.052-1.599-.333-1.809-1.378-.255-1.279-.508-2.64-.561-4.003-.126-3.22-.197-6.597-.216-10.323-.017-3.016.016-6.29.097-10.013.035-1.564.104-3.153.172-4.689.049-1.121.1-2.241.136-3.363.12-3.704.235-7.408.351-11.111.127-4.1.255-8.2.389-12.299.037-1.112.071-2.222.106-3.334.121-3.859.245-7.848.45-11.769.48-9.171,1.142-16.585,2.082-23.332.211-1.515.515-3.041.808-4.517.25-1.258.508-2.558.708-3.845.695-4.483,2.046-8.65,3.608-13.244.581-1.713,1.659-2.819,3.298-3.382,1.321-.454,2.745-.869,4.251-.869.095,0,.19.001.286.005.529.019,1.156.149,1.303,1,.09.516.192,1.031.295,1.548.199.993.405,2.021.504,3.045.447,4.585.683,9.607.725,15.352.007,1.057.04,2.131.071,3.171.043,1.457.088,2.965.066,4.448-.047,3.213-.148,6.478-.244,9.636-.04,1.277-.078,2.555-.114,3.832-.023.812-.05,1.624-.078,2.437-.058,1.654-.116,3.364-.127,5.047-.01,1.435-.036,2.896-.062,4.308-.068,3.751-.14,7.627.113,11.415.472,7.077.448,14.266.425,21.218l-.005,1.323c-.011,3.377-.086,6.81-.16,10.129-.055,2.519-.113,5.124-.142,7.685-.041,3.76.023,7.614.078,11.015.011.702.086,1.418.16,2.111.047.443.094.886.126,1.33.055.783.092,1.552.132,2.368.018.349.035.702.054,1.06l.011.199-4.335-.898.019-.142c.022-.156.044-.313.068-.472.05-.341.103-.694.133-1.043l.019-.203c.047-.504.096-1.026.055-1.527-.011-.142-.13-.297-.253-.461-.032-.041-.064-.083-.094-.124-.046.029-.092.058-.139.086-.173.103-.351.21-.397.33-.206.537-.347,1.115-.483,1.674l-.104.423c-.037.149-.062.303-.088.455-.032.197-.066.401-.125.599-.046.146-.156.261-.252.36-.038.04-.077.079-.11.12l-.077.095-.394-.19.002-.454c.002-.249.005-.496-.004-.743l-.012-.353c-.076-2.089-.152-4.249-.249-6.371-.004-.078-.096-.241-.155-.306-.216.047-.39.148-.419.216-.14.342-.198.738-.253,1.12l-.008.061c-.306,2.106-.563,4.386-.376,6.788l.011.144-1.532.221-.152-.533c-.085-.291-.169-.576-.24-.864-.904-3.635-1.478-7.507-1.754-11.838-.15-2.364-.199-4.773-.246-7.104-.018-.84-.035-1.681-.056-2.521-.001-.037-.004-.078-.007-.119-.018-.244-.052-.692.478-.785.019-.044.042-.127.046-.188.013-.214.029-.427.043-.641.05-.713.102-1.45.088-2.171-.006-.267-.214-.644-.419-.762-.175-.102-.339-.08-.443-.046-.17.059-.317.2-.391.381-.065.158-.134.319-.204.481-.285.66-.58,1.342-.599,2.005-.074,2.437-.025,4.609.15,6.642.322,3.766.738,7.78,1.348,13.012.125,1.075.354,2.154.576,3.197.096.455.192.908.28,1.36l.02.005.01.239-.229.065-.101-.119c-.766-1.318-1.952-1.824-3.601-1.555Zm-.004,12.572c.013-1.893.028-3.851,1.177-5.587.226-.34.609-.577.89-.718.726-.359,1.483-.684,2.215-.998l.199-.086c1.088-.467,2.263-.695,3.587-.695.072,0,.144.001.216.002,2.354.042,4.597.57,6.287,1.025.755.203,1.127.677,1.138,1.451.007.481.006.964.004,1.447v.036c-2.291,2.277-4.127,4.735-5.574,7.401-2.097-.063-4.126-.599-6.446-1.404-.866-.3-1.617-.504-2.402-.379-.448-.293-.878-.614-1.298-.949.002-.182.007-.363.008-.546Zm5.272,7.748l.923-.03c.502-.018,1.019-.034,1.527-.028.327.007.646.251.795.489.211.339.357.689.473,1.042.153.465.225.934.208,1.402-.007.178-.01.357-.041.533-.221,1.237-.534,2.378-.932,3.395-.409,1.052-1.099,1.585-2.048,1.585-.226,0-.471-.03-.729-.09-.262-.062-.72-.309-.842-.708l-.116-.37c-.204-.644-.415-1.306-.424-1.995-.01-.87.138-1.69.345-2.483.136-.523.296-1.033.463-1.535.036-.107.07-.217.106-.324l.291-.882Zm-.052-3.733c.346.102.695.194,1.046.28-.019.015-.041.02-.061.035l-.244.198-.261-.175c-.166-.112-.321-.225-.481-.338Zm-2.368,32.264c-.395.599-.773,1.214-1.102,1.861-.03.059-.074.101-.11.133l-.085.088-.45-.052v-1.783c-.004-1.832-.006-3.728.017-5.592.004-.25.131-.481.255-.705.04-.072.079-.144.114-.215.048-.101.107-.196.166-.291.076-.12.146-.233.19-.352.236-.656.508-1.3.803-1.939-.349,3.085-.283,6.01.205,8.845Zm-.912-10.005c-.06.119-.151.253-.377.352l-.233.1.018-.252c.024-.319.043-.64.062-.959.04-.662.08-1.346.158-2.017.072-.622.134-1.258.192-1.903.313-.413.627-.824.936-1.239.011-.016.035-.079.048-.116.022-.058.04-.106.059-.15l.251-.591.726.762-.019.28c-.004.082-.008.166-.023.25-.096.555-.197,1.109-.298,1.663l-.05.277c-.089.484-.182,1.007-.274,1.529-.421.644-.825,1.309-1.177,2.015Zm-45.645-36.565c.024-.042.044-.083.062-.12.053-.107.104-.213.198-.309,5.307-5.467,10.429-7.607,16.14-6.698,3.757.589,7.323,2.324,10.603,5.155,3.489,3.012,6.383,6.739,8.992,10.317,1.245,1.703,2.538,3.424,4.128,4.721.196.16.379.339.586.485.551.389,1.151.755,1.681,1.078l.077.048c.028.017.056.035.085.052-.001.013,0,.027-.002.039l-.004.059c-.028.402-.056.803-.086,1.205-.005.075-.01.149-.016.224-.625.122-1.251.245-1.876.374l-.038.007c-.031.006-.062.012-.092.018-1.824.375-3.688.757-5.544.97-1.929.22-3.896.331-5.847.331-4.728,0-9.559-.648-14.359-1.927-2.845-.759-5.569-2.203-8.099-4.291-1.265-1.046-2.233-2.488-3.046-4.539-.313-.789-.585-1.609-.848-2.401l-.023-.067c-.13-.399-.262-.798-.4-1.193-.179-.52-.355-1.028-.549-1.534-.339-.894-.747-1.293-1.409-1.377l-.623-.079.307-.547Zm24.569,24.529c-.712.048-1.43.073-2.136.073-4.764,0-9.156-1.109-13.056-3.298-3.842-2.156-6.993-5.5-9.636-10.22-1.227-2.195-2.095-4.32-2.653-6.497-.152-.587-.053-1.059.313-1.485.352-.412.692-.852.992-1.243l.875-1.124.257.726c.191.539.375,1.072.555,1.602.405,1.177.777,2.259,1.205,3.334,1.597,4.012,4.378,7.125,8.505,9.517,3.491,2.025,7.201,3.096,10.69,3.952,5.832,1.429,12.151,1.677,20.489.81.743-.079,1.481-.206,2.232-.343.268-.049.531-.095.805-.146l.08-.016c.455-.086.914-.174,1.376-.253l.599-.102-.796,4.276.528,1.845.788,2.75-.851-.817-1.962-1.882,1.349-1.856-.863-.87c-.109-.111-.22-.218-.329-.328-.19-.191-.379-.384-.571-.57-.061-.059-.108-.1-.144-.128-.041.072-.082.157-.114.227-.122.271-.441.504-.724.531-1.396.125-2.791.255-4.185.384l-.759.07c-4.213.391-8.57.796-12.859,1.083Zm14.845,11.1c-.947,1.838-1.898,3.674-2.856,5.505-1.761,3.368-2.783,7.183-3.215,12.006l-.107,1.215c-.384,4.288-.78,8.723-1.136,13.083-.646,7.879-3.143,14.21-7.637,19.353-3.945,4.514-7.876,7.876-12.017,10.277-4.25,2.462-8.891,4.527-14.607,6.496-6.042,2.082-10.835,4.449-15.084,7.451-5.352,3.778-9.421,8.852-12.096,15.078-.232.539-.462,1.082-.692,1.624-.509,1.201-1.085,2.562-1.682,3.871-.291.639-.638,1.25-.971,1.84l-.032.055c-.156.275-.313.55-.465.827l-.181.329-.825-.331.032-.511c.01-.174.022-.348.041-.521.018-.155.041-.307.066-.459.034-.217.067-.443.08-.665.018-.313-.029-.535-.132-.629-.121-.11-.402-.134-.79-.072l-.261.042-.152-.213c-.041-.046-.175-.198-.134-.42l.086-.439c.698-3.571,1.418-7.262,2.782-10.733,2.314-5.892,6.064-10.522,11.465-14.15,4.111-2.764,8.699-5.023,14.874-7.327l1.863-.693c4.094-1.525,8.327-3.101,12.437-4.805,4.24-1.76,7.746-4.005,10.716-6.861,4.09-3.937,6.455-8.902,7.231-15.182.563-4.559.235-9.134-.113-12.611-.576-5.744.539-11.396,3.407-17.28,1.826-3.745,3.663-6.554,5.778-8.841,1.958-2.121,4.04-3.318,6.363-3.662.385-.056.77-.176,1.177-.304.258-.08.51-.16.766-.223.061-.016.121-.021.182-.034.199-.042.398-.081.591-.11l.712-.114.194.804-.468.489c-.221.233-.449.474-.687.699-.187.178-.359.375-.54.561-1.52,1.557-2.83,3.381-3.965,5.586Zm2.921,31.333c.094-.521.188-1.035.283-1.543.204-1.106.397-2.149.57-3.214.198-1.225.387-2.452.576-3.677.334-2.157.677-4.387,1.066-6.573.149-.837.479-1.724,1.037-2.793.274-.525.581-1.026.897-1.52.173.822.373,1.641.619,2.452.776,2.557,1.772,4.859,2.973,6.918-.092.072-.176.131-.277.215-2.758,2.305-5.023,5.281-6.924,9.102-.104.209-.215.413-.328.617-.032.059-.084.084-.143.113-.03.016-.071.035-.126.066l-.283.158.058-.321Zm19.166,43.508c-1.127,2.737-2.712,4.609-4.846,5.723-1.238.647-2.543.971-3.903.971-.874,0-1.771-.134-2.687-.402-.619-.181-1.223-.365-1.801-.617-.467-.203-.998-.451-1.385-.826-1.752-1.694-2.712-3.701-2.854-5.963l-.008-.137,2.704-.474v.182c.005,1.467.884,2.407,1.808,3.233-.038-.113-.078-.226-.118-.339-.127-.36-.258-.731-.353-1.111-.114-.453-.164-.923-.213-1.378l-.006-.056c-.041-.382.032-.677.219-.879.18-.193.456-.292.825-.292.02,0,.041.001.062.001l.086.002.043.077c.191.342.304.748.413,1.139.267.956.52,1.862,1.845,1.986l-.004-.076c-.008-.14-.014-.256-.028-.37-.028-.251-.058-.499-.088-.748-.058-.472-.116-.959-.154-1.442-.062-.813-.013-1.66.764-2.346.257-.226.433-.557.622-.908.09-.169.182-.34.285-.505l.108-.173.137.151c.056.062.113.122.169.182.382.407.777.828.77,1.628-.018,2.108.243,3.665.842,5.051.049.113.154.215.263.323.013.013.028.026.041.04.011-.012.023-.024.034-.037.096-.103.186-.202.214-.299.261-.934.495-1.873.698-2.789.058-.263.077-.537.097-.825.01-.137.019-.275.034-.413l.013-.138h.146c.387,0,.665.09.849.277.186.188.27.465.264.869-.007.491.004.992.014,1.476.011.469.02.939.016,1.407-.002.22.052.273.068.283.042.026.139.013.257-.041.754-.325,1.173-.77,1.318-1.395.156-.666.317-1.375.42-2.081.056-.377.176-.616.618-.717.345-.078.69-.204,1.024-.325.148-.054.295-.107.444-.157l.144-.049.05.144c.419,1.203.04,2.38-.282,3.16Zm-10.863-7.04c-.203-.154-.411-.303-.618-.451-.461-.33-.938-.672-1.361-1.065-.385-.358-.559-.766-.49-1.151.073-.402.401-.741.923-.954.734-.299,1.21-.339,1.54-.128.328.209.492.647.532,1.42.024.491-.013.988-.049,1.468-.017.217-.032.436-.043.652l-.005.09-.352.179-.077-.059Zm9.633-26.127c1.56,4.108,2.512,7.35,3.088,10.51.197,1.078.448,2.167.69,3.22.262,1.137.532,2.314.737,3.483.39,2.237.307,4.503-.256,6.927-.329,1.411-1.307,2.674-2.755,3.556-1.292.785-2.809,1.179-4.075,1.032-1.187-.131-2.286-.756-3.016-1.717-.724-.951-1.02-2.106-.836-3.252.109-.68.485-1.171,1.181-1.548.223-.121.453-.145.633-.062.108.049.249.157.304.397.145.642.197,1.162.163,1.635-.018.261-.143.402-.245.474-.186.134-.457.163-.766.083-.173-.047-.412-.079-.571.019-.095.058-.157.157-.19.306-.07.316.083.478.581.622.728.21,1.319.175,1.755-.1.441-.275.731-.796.864-1.55.146-.832.001-1.658-.431-2.455-.583-1.071-1.794-1.426-2.878-.844-.301.161-.587.373-.888.598-.146.108-.298.22-.459.334l-.145.101-.08-.157c-.406-.795-.954-1.239-1.68-1.358-1.543-.253-2.904.205-4.03,1.371-.496.511-.68,1.223-.564,2.177.223,1.849,1.694,3.275,3.577,3.467.056.005.114.018.17.032l.142.032.182.37-.121.073c-.138.083-.274.175-.409.267-.304.208-.619.421-.971.538-1.462.48-2.908.903-4.296,1.253-.275.07-.537.104-.786.104-.615,0-1.154-.213-1.633-.642-1.774-1.588-2.45-3.706-2.879-5.568-.873-3.797-.493-7.51-.065-10.319.341-2.234.736-4.234,1.21-6.118.19-.749.563-1.456.924-2.139.128-.244.257-.486.377-.73.106-.215.237-.418.363-.612.138-.213.268-.414.369-.63,2.03-4.365,5.057-7.956,7.466-10.596l.079-.085c.124-.133.252-.271.319-.418s.094-.355.073-.405c-.083-.066-.337-.12-.424-.074-.337.166-.671.397-.993.688-1.84,1.662-3.521,3.64-5.14,6.05-.367.547-.713,1.121-1.081,1.728-.179.295-.364.603-.562.923l-.321.52.036-.61c.019-.316.038-.613.058-.899.036-.562.071-1.076.09-1.59.017-.432.024-.864.032-1.297.014-.753.029-1.53.089-2.293.052-.633.121-1.497.475-2.163,1.141-2.156,2.412-4.423,4.002-7.134,1.105-1.885,2.584-3.51,4.047-5.073,2.069,3.3,4.707,5.921,7.909,7.831,0,.135,0,.272,0,.406-.001,3.412.414,6.859,1.235,10.248.102.42.204.759.322,1.064Zm44.982,14.813c-2.183,3.392-4.891,6.224-7.493,8.78-4.174,4.102-7.333,8.201-9.657,12.53-2.672,4.975-3.793,9.831-3.426,14.845.262,3.605,1.516,6.966,3.729,9.986.702.959,1.519,1.856,2.307,2.724l.036.04c.46.503.91.998,1.343,1.507.244.285.427.682.49,1.061.077.462.131.935.182,1.394.046.402.092.806.154,1.205.062.407.084.825-.193,1.118-.271.289-.693.285-.988.252-.276-.026-.553-.056-.831-.086l-.208-.023c-.502-.056-1.002-.11-1.506-.154-.065-.006-.127-.008-.187-.008-.611,0-1.016.269-1.295.852-.115.24-.394.504-.704.549-.463.066-.92.108-1.467.157l-.956.089-.078-.558c-.018-.122-.041-.276-.053-.43-.155-2.339-.845-4.529-2.048-6.512-.573-.944-1.124-1.881-1.731-2.921l-.644-1.099c-2.167-3.683-2.916-7.902-2.288-12.898,1.101-8.786,4.178-16.892,9.405-24.78l1.728-2.6c1.6-2.407,3.255-4.897,4.873-7.387,1.917-2.95,3.321-6.071,4.171-9.277.504-1.891.495-3.859-.026-6.015-.613-2.542-2.142-4.302-4.809-5.539-2.696-1.251-5.655-1.363-8.216-1.369-.92-.004-1.837,0-2.751.008l-.589.004c-2.542.014-5.17.028-7.751-.095-4.47-.214-8.415-1.181-12.063-2.959-.575-.28-1.121-.592-1.659-.913-.469-.28-.916-.584-1.357-.895-3.892-2.741-6.72-6.679-8.556-11.99-.644-1.863-1.086-3.809-1.348-5.821-.049-.379-.103-.757-.139-1.142-.223-2.397-.181-4.888.128-7.456.112-.929.247-1.869.377-2.778l.02-.143c.022-.155.046-.328.07-.488.084-.586.166-1.191.247-1.815.052-.402.106-.805.15-1.206.145-1.327.796-1.946,2.046-1.946h.052l.472.013-.202,1.496c-.875,6.571.654,12.548,4.545,17.765.335.449.68.884,1.026,1.316.622.776,1.265,1.522,1.926,2.243,2.58,2.817,5.44,5.219,8.552,7.155,2.807,1.75,5.967,2.731,9.388,2.919,1.668.092,3.34.148,5.197.205,1.545.05,3.297.107,4.991.196,3.743.198,7.398.489,10.959,1.86,3.263,1.256,5.747,3.066,7.596,5.532,2.046,2.731,3.147,6.145,3.272,10.147.138,4.43-1.202,8.674-4.214,13.354Z" stroke-width="0"/>
    </g>
  </g>
</svg>