<?xml version="1.0" encoding="UTF-8"?>
<svg id="Layer_2" data-name="Layer 2" xmlns="http://www.w3.org/2000/svg" viewBox="0 0 423.1287208 642.3728305">
  <g id="Layer_1-2" data-name="Layer 1">
    <g>
      <g>
        <path d="m4.6917942,507.392355c.1565182.3268849.2455182.5127442.4209418.8790871,0,4.1633851-.0110951,8.5072536.0085269,12.8509656.0043961.9731911-.1512179,1.9639712.2714171,2.9160241.1503817.3387327.0388288.840673.0390775,1.2680816.0033585,5.7710867.0122133,11.5421212-.0006042,17.3132079-.0016918.7619137.1331195,1.5473143-.2748284,2.2795302-.14152.2539712-.0470752.6932799-.0510129,1.0481402-.0158066,1.4248695-.0149926,2.8501565-.0473946,4.2743996-.0142106.6245939.079248,1.2501794-.2213584,1.8677273-.1600323.328816-.085729.8269984-.0864429,1.2487702-.0052989,3.1329905-.0028752,6.2659287-.0028752,9.2277261-.1738276.3572612-.2640944.5428074-.3902023.801998,0,1.4216857-.0012931,2.9178508.0002236,4.4139638.0067129,6.6261128.0090936,13.2522778.0291018,19.8783383.0020876.6918185-.1217702,1.4021133.2385442,2.0736287.1403963.2616958.0684932.6894698.0721143,1.0418771.0197637,1.9235216.0112118,3.8479305.0579134,5.7705126.0219083.9018432-.1445605,1.8150123.263418,2.7081915.176725.3869591.1232647,1.013745.0015334,1.4676677-.1262677.4708854-.2987619.9054967-.2750937,1.4183975.0229376.4970341.0049739.9966779.0049739,1.4825428-.1835949.3889946-.355921.7541892-.5806074,1.2302939-.4175443.0241654-.8906588.0515667-1.2560652.0727571-.6988898-.3096612-.7127379-1.0641635-1.1103838-1.6187665,0-.6398864.0129064-1.3498681-.004128-2.0588059-.0133675-.5563776.0232654-1.0981934-.2070658-1.6554582-.170201-.4117507-.1103514-.9681805-.1119959-1.4603085-.0178608-5.3435737-.0364023-10.6871474-.0379288-16.030721-.0045767-16.0308776-.0016473-32.061703-.0016473-48.1960272-.0715337-.1721326-.1753235-.4219284-.3561627-.8571138,0-1.5893819.0220736-3.3691117-.0087714-5.1475367-.0168927-.973974.1458675-1.9715914-.2902877-2.9126837-.1286053-.2775103-.0323479-.7002216-.035173-1.0563867-.0129925-1.6386521-.0036405-3.2780871-.0454167-4.9156953-.0212291-.8321655.131186-1.6800412-.2694933-2.4932084-.1594864-.3237011-.0459487-.8361844-.0485114-1.2627579-.0145481-2.4224347-.0100506-4.8451825-.047253-7.2670953-.0160524-1.0451131.1702982-2.1185669-.2869236-3.1248484-.1014356-.2232817-.0230737-.5608662-.0230473-.8458401.0010334-11.2571995.0025377-22.5144513.0050642-33.7716508.0000153-.0692079.0151829-.1383637.0239987-.2137826.0879222-.1802225.1783001-.3655077.3313236-.6791878,0-2.7917003-.0224695-5.7131525.0114452-8.6336651.0129341-1.1138513-.1510248-2.239446.2634485-3.3467731.1792224-.4788188.0363787-1.1246552.0373537-1.694603.0130355-7.6235736.0179372-15.2471472.0485739-22.8706164.0036197-.9007472-.1275469-1.8161084.2776022-2.7063125.1773598-.3897253.0393247-.9790889.0399747-1.4777932.0138231-10.6160605.0279476-21.2321209.0398497-31.8481814.0049517-4.4174085-.0118771-8.8349736.0182734-13.2520951.0080852-1.1844684-.2071589-2.399261.2796912-3.5540838.1212146-.2875314.0241085-.7021788.0267989-1.0583962.0123744-1.6386521-.0012112-3.2783741.0465238-4.9155909.0283685-.9730345-.1515637-1.9607613.2794037-2.9195993.1765264-.3927525.0442875-.9798457.0443611-1.4785239.0010556-7.1960606.000725-14.392095.000725-21.6897232-.072549-.1736723-.1765708-.4227113-.3533014-.845814,0-6.5902301.0014793-13.356977-.0007445-20.1237499-.0008653-2.6361912-.0049239-5.2724346-.0196304-7.9085475-.0031016-.5561688.07522-1.1218368-.22476-1.6492473-.1167698-.2053273-.0796995-.5464348-.0799036-.8257458-.002871-3.918652-.002414-7.837304.0031058-11.755956.0012834-.9105855.4227808-1.7370098.3260941-2.692377-.092385-.9128037-.0120521-1.8495641-.0102479-2.7757814.001664-.8549739.000682-1.7099738-.0006306-2.5649477-.0014209-.9262434.0088283-1.8528783-.0116438-2.7785738-.0138342-.6255073.1037149-1.2666985-.2392651-1.8588805-.116974-.2019609-.0693835-.5483138-.0695697-.8287208-.0033183-4.9848249-.0024071-9.969676-.0024071-14.8809871.1243537-.2592949.2134412-.4450499.3566502-.7436462,0-1.2406803-.0113354-2.5944368.0050406-3.9477235.0075783-.6262902-.0754436-1.2573821.2493004-1.859272.1403241-.2600517.0635887-.6892349.067357-1.0418771.0159927-1.4961129.0009153-2.9933219.0459515-4.488104.0271906-.9023912-.1481968-1.8239895.2802315-2.7044075.1580308-.324745.0388469-.8382982.0389788-1.265733.0011403-3.7048694.000657-7.4097388.000657-11.1222545.1085568-.2696552.2096424-.5207559.3763515-.9348814,0-4.9563798.0035613-10.0836395-.0051281-15.2108992-.0009403-.5550206.0929295-1.1408611-.2457585-1.6400352-.0661083-.0974183-.0740102-.2651666-.0784133-.4018341-.0275087-.8537734-.0463988-1.7079383-.0681446-2.5619727-.5104293-.7506922-.239704-1.6454111-.3241718-2.4735056-.0495753-.4860475-.0089867-.9651794-.2512283-1.4315763-.1401588-.2698379-.07106-.6865992-.1050108-1.0360576-.0806134-.8296603.1209576-1.6907407-.3018704-2.4897898-.1378476-.2605215-.0417443-.6960461-.0424457-1.051585-.0044975-2.2798955-.0160468-4.5598955-.0022849-6.8396605.0037697-.6244373-.069146-1.2492921.2362565-1.8636823.1618102-.3255279.0816232-.8278074.0830927-1.2504404.0064296-1.849825.0027668-3.6997023.0027668-5.3731671.1720817-.3617498.2605511-.5477397.3899468-.8197436,0-6.5397594.0029877-13.1654547-.0009098-19.7911499-.003353-5.6998954-.0342147-11.3998953-.0069588-17.0995428.0059893-1.2526456-.2013891-2.5457146.3179811-3.7637562.1225716-.2874661.0337549-.7021658.0337243-1.0583309-.0006723-7.7659431-.0015223-15.5318862-.0066115-23.2978294-.0003195-.4887485.0292185-.9682197-.2081673-1.4411537-.1381045-.2751616-.1103292-.6829848-.112314-1.0314776-.0097381-1.7097651-.0044183-3.4196345-.0044183-5.1392902-.1080179-.2659887-.2097535-.5164891-.3600449-.8865768,0-1.9393361-.0025543-4.0029568.001871-6.0665514.0010528-.4906405.0193804-.9545451.2092646-1.4410754.1636228-.4192404.1125501-.9676195.1130932-1.4589646.0065449-5.9134562.001946-11.8269255.0070129-17.7403817.0022585-2.6361782.0092534-5.2724737.0373787-7.9083779.0073935-.6927841-.1225147-1.4029745.2611387-2.0687878.1433812-.2488302.0485142-.6914923.0522575-1.0459351.0157982-1.4960999.0192179-2.9924608.0456862-4.4882866.0098437-.5562471-.0614136-1.1142166.2254878-1.652692.1406408-.2639532.0846206-.6844984.0887153-1.0346484.0224972-1.9235216.0228209-3.847526.0592385-5.77063.0144537-.7632968-.1433771-1.5536558.274759-2.275681.1143572-.1974592.0320326-.5557382.0320353-.8402163.0000514-4.488652-.0017404-8.9772909-.0013723-13.4659429.0000403-.4954814-.0124911-.9630656-.2345148-1.4327637-.1314347-.2780453-.0724171-.6901353-.0730546-1.0420206-.0073574-4.0611781.01714-8.1228259-.0333354-12.1832081-.011841-.9523595.313635-1.7711571.457026-2.6572511.0298602-.1845219.2096118-.3355946.3800392-.5919602.330618.704384.6113968,1.279003.8725021,1.8656917.2482698.5578455.5757251,1.1021861.6891698,1.6994048.1669911.8790936.4659307,1.730838.4837082,2.6467472.0138231.7122651-.0110854,1.4272377.0327368,2.1366192.0557216.9020455-.1875993,1.8574583.3138142,2.6884625.0135286.7835608.0041308,1.56887.0471182,2.350193.041961.7627358-.1586947,1.5752115.2945394,2.2680999.0321534.0491528.0320173.1342535.0336785.20307.020636.8546085-.1136197,1.7670991.1009064,2.5475935.2105938.7662066.2606928,1.5052598.2960936,2.2735802.0131036.2843998-.0713142.6437357.0455043.840686.4640987.7824256.3038983,1.6546492.3072388,2.484179.0169261,4.2034302-.0002959,8.4071213-.0169761,12.6106429-.0022057.5559079.0605844,1.1142688-.2242169,1.6530574-.1401435.2651144-.0845706.6845245-.0892862,1.0346353-.0191887,1.4247651.0007875,2.8511482-.0504837,4.2741126-.029938.8308607.1612407,1.6923718-.2797676,2.4925169-.1400019.2540234-.0357759.6953154-.0395164,1.0509456-.0149871,1.4248564-.0164108,2.8501173-.048103,4.2744518-.0138995.6247505.0926517,1.2588696-.2358662,1.8630299-.1414242.2600909-.0771674.6871472-.0774229,1.0383671-.0024363,3.3486651.0238876,6.6976955-.017308,10.0456299-.007481.607866.2641625,1.0734147.3152435,1.6213631.0459973.4933937.0207235.9962604.0221931,1.4949777.0029377.9974869.0356814,1.9968136-.0048211,2.9919649-.0482544,1.1855514.1359016,2.3736473-.2729311,3.560099-.2123828.6163343-.0302269,1.4099814-.0726643,2.1197021-.0581773.9729562.1523207,1.9693732-.3004453,2.9163372-.1566487.3276286-.0391247.8389767-.0392205,1.2663984-.0010834,4.8448563-.0006862,9.6897126-.0006862,14.6432087.3114418.6154992.5381269,1.3398209-.0001833,2.007461,0,4.9033647.0078963,9.748208-.0074144,14.5929468-.0026974.8536299.137842,1.657559.3144712,2.4773026.1739804.8074391-.1187589,1.6976563.307693,2.4908336.1133655.2108989.0706336.5501275.0708225.8304432.0034544,5.1274424.0025238,10.2549109.0025238,15.3044552-.1281275.2638357-.2181804.4492514-.3106959.6397299,0,3.8420066-.0002042,7.6893107.0003375,11.5366149.00005.3513112.0530797.6758213.1517748,1.0234529.2701462.9515832.284129,1.9621183-.0000444,2.9031585-.1501025.4970602-.1467523.9663799-.1498567,1.4517228-.0223292,3.4910607-.0239932,6.9823302-.0557493,10.4732343-.0062948.6920795.1187922,1.4038096-.2589982,2.0704189-.1430576.2524054-.0562424.6902527-.0611233,1.0438343-.0167177,1.2110347-.0180775,2.422513-.0450209,3.6332084-.0123855.5565603.1051358,1.1480377-.2414846,1.6399569-.025878,1.5604669-.0645041,3.1208556-.070792,4.6814269-.0022321.5542638-.0838789,1.1154431.1788363,1.6609646.1358335.2820511.1075595.6794487.1336626,1.0267672.0783952,1.0431558-.1323542,2.129397.3547626,3.1130266.0538339.1087181.0324465.2827035.0176678.4222676-.1739193,1.6423317.4959923,3.1888109.3940526,4.8220871.6302369,2.430081.3053748,4.924803.318077,7.3875307.0426291,8.2644256.0147509,16.5293732.0138731,24.7941119-.0000444.4249817-.0000042.8499372-.0000042,1.1833202-.1330417.2773537-.2221362.4631087-.3670342.7651758,0,1.9497225.0078963,4.0158876-.0047711,6.081844-.0038405.6263945.0768521,1.2571211-.2463724,1.8596373-.1399796.2609129-.0640915.6892871-.0678265,1.0418771-.0188623,1.7810868-.0094603,3.5630349-.0558549,5.3430257-.0235126.9021825.2003529,1.8548878-.2964089,2.6892976v3.1372703c.0537173.1306913.1563696.3804088.3372393.8204221,0,5.2193804.0030502,10.6320837-.0017334,16.0447871-.0015737,1.7811651-.0030474,3.5629566-.0441,5.3432083-.0224528.9736347.1731331,1.9719567-.2742686,2.91545-.1298109.2737263-.029863.6997518-.0298144,1.0559692.0003334,2.4936782-.0031988,4.9874085.0079616,7.4810345.002171.4851341-.0382552.9619435.1753083,1.4490348.1520193.3466921.1202312.8222489.1205076,1.240341.0052309,7.9085736.0046545,15.8171472-.0011626,23.7257208-.0004084.5569517.0787272,1.1220456-.2240419,1.6501867-.1159865.2024045-.0674723.5469829-.0678279.8267896-.0038016,2.990086-.0023654,5.9801459-.0023654,8.9050949.1181783.2502133.2063394.4368817.2988077.6326577,0,.9185711.0110993,1.8450233-.0038697,2.7709275-.0101298.6265772.0689266,1.2468391-.2299603,1.8629516-.1589336.3276156-.0661028.8304171-.0693058,1.2543288-.0172122,2.2798433-.0089506,4.5602608-.0523811,6.8393735-.0171914.9020781.1606379,1.8326535-.2866014,2.7023719-.1356085.2637313-.0347411.6980556-.0351439,1.0542207-.0016918,1.4961129-.0007125,2.9921998-.0007125,4.5098424-.1032912.2556675-.2047226.506742-.3920969.9705292,0,4.2653442-.0045961,8.7515953.0010487,13.2378464.0090547,7.1961128.0199693,14.3921733.0440542,21.5882339.003028.9047138-.1044038,1.8121939.2601011,2.7074608.1571932.3860718.0458126.9410402-.1281956,1.4369783-.1461856.4165525-.1593448.9920849-.0348008,1.4180322.120884.4134209.1993237.8006409.1991598,1.2269535-.0014265,3.7024685-.0008237,7.404937-.0008237,11.0455568-.1177644.2480212-.2061658.4341937-.3362281.7081027,0,4.6858372.0018515,9.4594631-.0004403,14.233089-.0033183,6.9110867-.0044156,13.8221734-.0227514,20.7332078-.0018348.6915053.0908682,1.3850462-.2335064,2.0774388-.1821476.388838-.0811329.970477-.0814926,1.4652669-.0048253,6.6271045-.0057531,13.2542611-.005724,19.8813655.0000056,1.2824869-.0184734,2.5660699.0217805,3.846991.0283546.9023129-.1617102,1.8231022.264875,2.7066779.1568376.3249016.0326451.8383765.0327382,1.2658373.0006778,3.1348172.0003653,6.2696866.0003653,9.4772087Z" stroke-width="0"/>
        <path d="m416.5625064,469.8120295c-.1431646-.2955001-.2321035-.4790863-.401003-.827761,0-2.3650315.0055559-4.8952029-.0043114-7.4252713-.0021335-.5489552.0543145-1.0978074-.2256586-1.6284195-.1399199-.265203-.0908946-.6767391-.0963616-1.0227344-.0188901-1.1956033-.007556-2.392134-.040847-3.5870674-.0210235-.7541823.1191186-1.5247497-.270417-2.2496138-.1385865-.2579379-.0506699-.6859622-.0508032-1.0363372-.0012001-2.9543829-.0004889-5.9088173.0040447-8.8632001.0007556-.4853725-.0051559-.9536899.2305034-1.4178853.1360975-.2680369.082583-.6780272.0828941-1.0241256.0041336-4.7108438.0028002-9.4216876.0028002-14.0648266-.1227188-.2501575-.2126801-.4335891-.3551779-.7240397,0-4.1142273-.0036891-8.3346491.0010223-12.5550194.0046225-4.1502438.0017334-8.3007451.0376468-12.4506797.0095117-1.0995078-.1820115-2.2280245.2875292-3.2969775.1233855-.2809699.0280907-.6927636.0283573-1.0444267.0012001-1.4039734.0004889-2.8079467.0004889-4.0253454.1765444-.3690273.2643277-.552562.4129149-.8631592,0-3.3902391-.0091561-6.9073603.0079561-10.424327.0033335-.6835405-.1215632-1.3850892.245971-2.0471176.1403199-.2526822.05347-.682072.0536034-1.030927.0021335-6.3309161.0026224-12.661858-.0001778-18.9927741-.0001778-.4831569.0264017-.9543082-.2092576-1.4218528-.1364086-.2706389-.0934281-.6775892-.0938281-1.0232497-.0070671-6.1196863-.0045336-12.2393469-.0147565-18.3590333-.0016445-.9762067.4331828-1.8579409.3526444-2.8662996-.0836053-1.0454057-.0042669-2.1080726-.0001778-3.1631909.0059115-1.5475498-.0156899-3.0958468.0205791-4.6423919.0242237-1.032009-.1635658-2.0926406.2909072-3.0861599.1011175-.2209681.0228903-.5537987.0228903-.8351292-.0005334-5.4164373-.0075116-10.8328746.0025335-16.2492603.0018223-.9757945-.4369608-1.8563693-.3345988-2.8689532.0980951-.9708738.0129786-1.9665829.0088006-2.9513944-.004178-.9847857-.0068893-1.9695972-.0120452-2.9543829-.0051114-.9847857-.0138675-1.9695714-.0183567-2.9543571-.0041336-.9144531-.0053337-1.8289319-.0067115-2.743385-.0014223-.9848115-.002089-1.9696229-.0022668-2.9544344-.0001333-.9848115-.0001333-1.9695972.0012445-2.9544086.0014223-.9848115.0023113-1.9696487.0077338-2.9544344.0054226-.9847857-.0122674-1.971246.0318242-2.9538418.0525811-1.1709224-.1720997-2.3647223.2933518-3.5105517.1406755-.346356.0258238-.8323726.0274684-1.2544199.0143565-3.7281449.0152899-7.4564959.0525366-11.1843316.0088894-.8900814-.1644103-1.8085277.2838845-2.6674103.1355196-.2597155.0311575-.6890795.0331132-1.0407684.0161788-2.9543313.0060893-5.909281.0592037-8.8627106.0223125-1.2391683-.2037462-2.4992302.2677946-3.7231727.1585433-.4115361.0304019-.9720073.0316909-1.4643873.0174678-6.682605.0259127-13.3652616.0617817-20.0477379.0051559-.9596927-.1594323-1.9344308.2652611-2.8839472.1741443-.3894058.0354689-.9677049.036669-1.4600849.0215125-8.8632516.0384913-17.726529.0712934-26.5897292.0028002-.7522758-.1558765-1.5260636.2481934-2.2552559.1393865-.2514714.0406248-.6847256.0406692-1.034946.0014223-12.1694265.0026668-24.3388659-.0015112-36.5082923-.0001778-.5495607.0398692-1.0886745-.2130801-1.6321293-.1548097-.3325214-.077916-.8184091-.0813829-1.2357032-.0204457-2.461887-.0192012-4.9241604-.0579148-7.3856094-.0129341-.8222478.0328465-1.6278012-.2550383-2.4650558-.2313479-.6729262-.0479141-1.5282663-.0927614-2.2992202-.0439139-.7537314.1212076-1.5291938-.259883-2.2575101-.1382754-.2642755-.0696044-.6818144-.0756492-1.0298836-.0195568-1.125232-.0253794-2.2507989-.0460029-3.3759922-.0088006-.4824226-.0323131-.9400227-.1977902-1.4239525-.1683662-.4922254-.118763-1.0967769-.1192964-1.6522115-.006356-6.401223-.0040447-12.802446-.0040447-19.2083707-.1090291-.2675088-.2098354-.5148967-.3764681-.9237148,0-3.4901475-.0008889-7.1454608.0002222-10.8007611.0011556-3.9391428.0004445-7.8783114.0106229-11.8174284.0014223-.5501274-.0556924-1.1009634.2224584-1.6333144.1390754-.2661562.0940948-.6744719.0995618-1.0192049.021068-1.3362557.0096895-2.6735418.0492475-4.0089215.0223125-.7536026-.0832497-1.5017434.2538382-2.2584118.199257-.4472949.0597371-1.1015688.0605816-1.6627871.0103118-7.1750108.0108896-14.3500473.0356467-21.5249808.0036002-1.0311975-.1517429-2.0879196.3039302-3.0842664.1269858-.2777173.0351578-.6919649.0380024-1.0436217.013512-1.6881571.0094228-3.3767651.0443583-5.0643039.015601-.7532806-.1112959-1.5158486.2665946-2.2515267.1618324-.3149704.0461807-.8255325.0464918-1.2472385.0020446-2.4615327.0010667-4.9230654.0010667-7.4461263.1824115-.2354147.3806462-.4912142.576703-.7441991.2665946.0216215.503365.0408277.7816936.063396.6389291.8963675.9262805,1.7712231.6403514,3.0299196-.3838464,1.689909-.1777445,3.4684101-.0740936,5.2102055.3525111.4849603.227481,1.0695584.2373038,1.6186167.0289352,1.6174831.0241349,3.2358873.0620483,4.8530033.019379.8231366-.1456981,1.6651251.2685502,2.4591239.1359197.2605141.0362245.6888669.0378246,1.0405172.0089339,1.9695714-.010134,3.9399157.0321354,5.9084952.031202,1.453013-.1508095,2.933296.3181978,4.3452236-.1118293,1.7277997.2787287,3.4803963-.2696614,5.1968217-.1585433.4960898-.0335132,1.1151973-.0335577,1.67791-.0006667,8.3005004-.0004445,16.6010137-.0004445,24.9010374-.1114737.2746064-.2121467.5226385-.3966916.9773402,0,5.4106149.0017779,11.0358087-.0008001,16.6610025-.0011112,2.3213247.0073338,4.643023-.0268017,6.9637939-.0141342.9611998.1827226,1.9536757-.2768619,2.8773648-.1055622.2122732-.0209791.5525234-.0216903.8338797-.0069782,2.8840631-.0380024,5.768474-.0088894,8.6520476.0124897,1.240714-.197568,2.5198663.3076638,3.7105746.0167122,1.4067171.0218236,2.8137949.0554257,4.219971.0148009.6170465-.0255127,1.2194339.2257475,1.8418004.1891675.468472.0992507,1.0984515.1013397,1.6566813.0175567,4.783289.0343577,9.5665909.0387135,14.3499185.0078672,8.5819211.0006223,17.1638551.0190234,25.7457247.0019112.8896949-.146187,1.7913439.2532159,2.6749073.1750332.3871644.0335132.9670866.0345355,1.4594666.0216014,10.1997778.0400914,20.3995556.0709822,30.5993076.0020446.6839269-.090539,1.3659731.2258809,2.0510851.1789001.3874736.0714267.9598988.0729379,1.4491099.0206235,6.7529377.0290685,13.5059527.0656486,20.2587615.0052003.9591259-.2051685,1.9552215.2762841,2.8766048.1082735.2071592.0231126.5517634.0231126.8331197.0004889,4.3612417.0004,8.7224576.0004,13.2160431-.0586259.1411805-.1614324.3886844-.342466.8245922,0,3.1775408.0009334,6.5517554-.0002667,9.9259443-.0009778,2.6730523.0013779,5.3461562-.0119119,8.0191312-.0027557.5491356.0567591,1.1002291-.22877,1.6308412-.1409867.2619311-.0902279.675116-.0954727,1.0204673-.0203124,1.3362685-.0111563,2.673413-.0474252,4.0090117-.0204457.7538989.1127182,1.516892-.2665057,2.2529372-.1618324.3140236-.044625.8241027-.0471141,1.2451195-.0142676,2.3916187-.0088006,4.7836497-.0474252,7.1747016-.0166233,1.0318287.1283192,2.0747354-.280551,3.0904366-.1633436.4058425-.0350244.9704873-.0362245,1.4628673-.0154676,6.1901993-.0305797,12.3803986-.0452473,18.5705979-.0016445.7013168-.0002222,1.4026594-.0002222,2.0314538-.1257412.2567012-.2154802.4399525-.3578003.7305319,0,1.2283221.0116007,2.5648998-.0051114,3.9009622-.0077338.618618.0546701,1.2329079-.2428153,1.8390567-.1588989.323865-.0692932.8191562-.0719601,1.2372876-.0152454,2.3915672-.0065782,4.7836239-.0453806,7.1746501-.0144454.8913438.1523651,1.8092233-.2910405,2.6676679-.1346751.2608748-.0294685.6892598-.0317798,1.040923-.0134675,2.0398783.0019557,4.0807355-.0495142,6.1193257-.0331132,1.3112013.2087242,2.6593465-.3048192,3.9227061.0802717.8904678-.1846338,1.8012368.208902,2.6849548.1519207.3412292.0936059.8195942.0979617,1.2359737.0205791,1.9694426-.0000444,3.9401218.0531589,5.9082247.0373357,1.3809156-.1950345,2.7809987.2737506,4.1440349.1466315.4263497.031602.9744806.0331132,1.4668605.0176011,5.6977936.0311131,11.3955872.0567147,17.0933292.0028002.6167373-.108718,1.2504782.2318368,1.8369184.116674.2008989.0712934.5413037.0716045.8180226.0038225,3.5148541.002489,7.0296824.002489,10.4819585-.1199631.246293-.2092576.4296216-.3157977.6483484,0,8.1947052-.0010667,16.4248085.003778,24.6549634.0002222.3436252-.0317353.7470202.1054733,1.0175303.236726.4667717.2125467.9403447.2127689,1.423347.0028891,6.4714783.0019557,12.9429051-.0035113,19.4143835-.0004.4820748.0153787.9493618-.1985458,1.4268508-.1523207.3400184-.1092069.8128185-.1100514,1.2264672-.0070227,3.4467628-.0040003,6.8935772-.0040003,10.4615801.0624039.1513311.1644548.3986031.3409103.8262152,0,.8673843-.0317353,1.921704.0092895,2.9722623.0375579.9609035-.135653,1.9419021.2942407,2.8781248.1523651.3317742.0408026.8295129.0411581,1.2515087.0017779,2.2509535.0008445,4.5018554.0008445,6.7715127.1088068.2514456.2150802.4970173.4007363.9260206,0,1.3584246-.0231126,2.9051243.008045,4.4504327.0208458,1.0318545-.12383,2.0684493.2680613,3.0923688.1806336.4718727.0412915,1.1099675.0416026,1.6726801.0079561,14.0686395.0143565,28.137279.0228459,42.2059185.0061782,10.2701104.0106229,20.5402209.0307575,30.8103313.0016001.8213203-.1271636,1.6579437.2671724,2.4618998.1577877.3216752.0402692.8268851.042536,1.2485717.0128453,2.3916187-.0034224,4.7840619.0475585,7.174547.0249793,1.1699434-.2188138,2.3843021.3064193,3.4994221.0010667,1.8287516.002089,3.6574516.0031113,5.4862031-.5289666,1.0373677-.2466377,2.1856704-.3350433,3.2834262-.0551146.6838496.1005841,1.3863-.2712615,2.0436139-.1427201.2523731-.0638262.6806035-.0683599,1.0290205-.0128453.9846569.0120008,1.9712202-.0322243,2.953713-.0432027.9612642.1787668,1.9581327-.3019746,2.8755485-.1090735.2080094-.0268017.5518407-.0298685.8331712-.013023,1.1957578-.0058226,2.3922886-.0442695,3.5869128-.0242682.7536155.1838782,1.5575716-.2888626,2.2364747.0556924,1.6628902-.2560161,3.3329425.1933899,4.9943899.1739221.6430412.0813385,1.3830539.1069845,2.0012597-.2064574.4415756-.3757125.803647-.5284777,1.1304232-.5017205.1490124-.8839223.0446728-1.2196768-.6119712-.14072-.2965306.0112007-.8082843-.0777382-1.2792295-.0873833-.4629588-.2421486-.908811-.3679343-1.364144.1405866-.282155.2591719-.5201523.3738902-.7503693,0-1.3396177.0127564-2.6756286-.0056448-4.0110212-.0085339-.6167631.0534256-1.2244062-.2169025-1.8422513-.1737443-.3971089-.0856054-.9580696-.0864499-1.4456577-.0108007-6.4004759-.0146676-12.8010032-.0240904-19.2014791-.0067115-4.5722911-.0109785-9.1446852-.0361801-13.7168733-.0045336-.8222478.1420089-1.6656211-.2758396-2.4577263-.1365419-.2588138-.0365356-.6884869-.037069-1.0399955-.0020001-1.3363716-.0008889-2.6727947-.0008889-3.8046091-.1279636-.7427435-.4866084-1.1766933-.4144261-1.7910862.064893-.5525105.0136453-1.1233127.0135564-1.6860768-.001289-7.7377749.0045336-15.4754983-.0137342-23.2132217-.0021335-.8889221.1427201-1.7918076-.2706837-2.6709398-.1801002-.3828878-.021068-.9682717-.0541812-1.45823-.0931614-1.3786742.1597434-2.7829052-.3173089-4.1406084-.1492094-.4246236-.0388913-.9741456-.0392914-1.4664741-.0047114-5.4867699-.0057781-10.9735398-.011823-16.4603098-.0067115-6.0495856-.0093784-12.0992742-.0355578-18.1487567-.0038669-.8900556.168055-1.8075745-.2792176-2.6671269-.135653-.2607718-.0358689-.6892083-.0362689-1.0408715-.0017334-1.6177536-.0007556-3.2355588-.0007556-4.9522934Z" stroke-width="0"/>
        <path d="m283.6497207,4.3404847c-.1879007.0737891-.346244.1359769-.568858.2234125-2.5436267,0-5.1507464.0014955-7.757866-.0015246-.4176263-.0004839-.824363.0131452-1.2261883-.1534893-.2317035-.0960875-.5826811-.0644398-.8805443-.068098-1.1526059-.0141616-2.3059896-.0074464-3.4580176-.0326369-.6505076-.0142227-1.3167051.0861496-1.9410555-.1922759-.2187693-.0975588-.5915706-.0298642-.8941229-.0321152-1.2134319-.0090243-2.4272416-.0061332-3.6401624-.0280477-.5317001-.0096053-1.0649781.0533158-1.5895223-.1596846-.2783953-.113048-.7041554-.0624226-1.0634669-.0629502-2.6679012-.0039143-5.3358025-.002121-7.8635615-.002121-.2993966-.1169982-.4579399-.178963-.7353352-.2873733-3.3390324,0-6.79745.0030676-10.2558232-.0032305-.5331224-.0009708-1.0704451.057199-1.5849664-.1669234-.2233696-.0972998-.5871925-.0473348-.8872336-.0474066-6.6741978-.0015983-13.3484178-.0014897-20.0226157.0010368-.4164262.0001571-.8240074-.0185181-1.2277884.1436124-.2353037.0944689-.5828811.065688-.8804776.0691309-1.3346618.0154379-2.6699014.0123877-4.0040964.0373067-.5909039.0110358-1.1947419-.0761758-1.7636888.1800793-.2185026.0984122-.5889926.0399136-.8902116.0400533-3.0336798.0014072-6.0673596.0014295-9.1010394-.0018728-.4172929-.0004539-.8243185.0163922-1.2273661-.1489495-.232348-.0953194-.58297-.0618756-.8808554-.0653941-1.1526503-.0136184-2.3061674-.0050674-3.4579954-.0324692-.6500631-.015464-1.3178385.0883318-1.9422778-.1922061-.2176137-.0977634-.5911039-.0290883-.8934785-.0316603-1.2134097-.0103259-2.4272639-.0089409-3.640118-.032473-.5316557-.0103152-1.0650226.0521171-1.5900334-.158866-.2789731-.1121054-.7043332-.0589147-1.0636447-.0592948-3.153354-.0033401-6.306708-.0019329-9.3088747-.0019329-.3102862-.1216049-.4688295-.1837307-.6593526-.2583975-2.697792,0-5.4281194-.0038415-8.1583801.0033071-.5331558.0013956-1.0702229-.0539724-1.5841775.1691511-.2238363.0971699-.5874259.0440005-.8878225.047392-1.1526614.0130133-2.3063896.0047435-3.4578398.0371118-.7687373.0216109-1.5603649-.1161244-2.3017782.1969001-.2245475.0948054-.5944263.0250955-.8977454.0250606-1.8202368-.0002105-3.6405069.0007972-5.4606992-.006269-.2966298-.0011512-.6447406.0206915-.8779219-.0756414-.4053922-.1674772-.8153069-.134336-1.230133-.1349489-2.9730538-.0043875-5.946152-.0055397-8.9192058-.0002056-.4736854.0008505-.9399925-.029774-1.4091109.1453882-.288796.1078293-.7047444.0619658-1.0638225.0637677-3.3977138.0170585-6.7955388.0246057-10.1931637.0476364-.6505298.0044079-1.2938814-.0474163-1.9464003.1709647-.3968028.1327959-.9526711.0375433-1.4371016.0384434-6.6135495.0122917-13.2271324.0172932-19.840582.0418863-.9486486.0035273-1.9215209-.1274365-2.8454013.1954357-.2438931.085237-.5977043.0175899-.9010678.0193395-1.7595218.0101435-3.5193548.0095859-5.27841.0351488-.7098558.0103162-1.4376238-.0963688-2.1205557.1951282-.2237919.0955202-.5939374.0257395-.8972231.0282397-1.0313982.0085074-2.0635076.0021773-3.0939725.0282843-.5903816.0149578-1.1799854-.0546241-1.7690002.1656394-.3348211.1252049-.8271854.0542682-1.248723.0556754-3.4584288.0115478-6.9170131.010193-10.3752196.0353535-.7675094.0055833-1.5602426-.1154338-2.3016782.1965005-.2248197.0945823-.5944707.0225409-.8978121.0247192-1.2741024.0091533-2.5486159.0070624-3.8221517.0307943-.5908983.0110106-1.1947252-.0753282-1.7628776.1814894-.2191805.0990775-.5887648.0447327-.8898727.0452138-1.8200701.0029066-3.6401624.001448-5.4289917.001448-.6912879-.2120897-1.3611634-.405028-1.7910238-.9193508v-1.0348535c.2247308-.1320413.502815-.2954326.9187412-.5398111.321898-.1277789.8926728.000354,1.4049551-.1968157.3808406-.1465772.9419148-.0717058,1.4233118-.0822237.5456732-.0119232,1.0923021-.002604,1.6379864-.0143895.5942985-.0128348,1.1912194.0496973,1.7562383-.1992539.2203805-.0970981.5926762-.0290369.8958453-.0310881,1.6381364-.0110833,3.2765673-.0113519,4.9142871-.0354873.5902371-.0086975,1.2188267.1164396,1.7547993-.1755647.8435531-.0015333,1.6871006-.0030666,2.5306537-.004599.5334336.293652,1.1627176.1788747,1.7530881.1832846,1.8806184.0140461,3.7615812.0052051,5.6429329.0052051.2362482.0759789.4512617.1451322.7846383.2523505,2.4804228,0,5.0871757.0016361,7.6939398-.0016681.4168151-.0005286.81194-.0158947,1.2262883-.1459856.3577892-.1123323.8264076-.0655066,1.2461562-.0667577,5.4000287-.0160809,10.8001019-.02492,16.2000973-.0455038.6504187-.0024789,1.3142938.0868062,1.9424222-.1800909.2241919-.0952593.5920039-.028296.8943341-.0308941,1.1527392-.0099069,2.3063674-.0018068,3.4579843-.0319629.8904449-.0233178,1.8006578.1004964,2.664101-.2036812.242982-.0855997.5974932-.0172243.9008456-.0188934,2.0022149-.0110164,4.0046743-.0127534,6.0065336-.037684.7101002-.008843,1.4300011.0828793,2.1221224-.1927434.2770619-.1103344.7136782-.0273911,1.0777012-.0288749,2.4876454-.0101348,4.9756465-.0050325,7.4627363-.0361041.9489597-.0118543,1.9123315.1158654,2.8487237-.1890086.350711-.1141818.8374083-.0275589,1.2621017-.0276539,4.2472451-.0009514,8.494479.0016642,12.7417241-.0024838,1.5167843-.0014819,3.0335798-.016399,4.5502864-.0301212.4163706-.0037668.8244074.018649,1.227155-.1458857.2352037-.0960875.5824144-.0595926.8795665-.0804557,1.0071856-.0707166,2.0365615.0909658,3.028135-.2230227.3548112-.1123507.8381194-.0304461,1.2627906-.0311434,5.1572912-.0084676,10.314638-.0094152,15.4718515-.0299243.8284744-.0032945,1.6803946.1178623,2.4831785-.1954939.2329035-.0909202.5958597-.021413.8992121-.0220298,3.7617701-.0076462,7.5237179-.0302899,11.2852436-.0126942,1.1902305.0055688,2.4002177-.119608,3.5721137.2110539.3676009.1037211.8420308.0110668,1.2647463.0337901.8889671.0477877,1.8023801-.092663,2.6619675.2206369.2406596.0877149.5970598.0237639.9003678.0240112,1.4548027.001188,2.9096053.0005344,4.2400668.0005344.2831067.11276.4411611.1757218.6843097.2725716,1.4911827,0,3.0692154-.0210202,4.6454035.0075686,1.0099969.0183192,2.0441953-.1290242,3.0269016.2045463.2464377.0836416.5981932.0161895.9015456.0178625,1.9415444.010707,3.8836.006591,5.8243888.0392784.7678261.0129308,1.5346744-.0722761,2.3085008.1815709.4494283.1474443,1.0745121.036655,1.6205464.037328,9.2832731.0114412,18.5665907.0173814,27.8497971.0398322,1.0088635.0024401,2.0429286-.1449256,3.0266127.1944852.2454377.0846764.5980376.0184599.9013678.0206953,1.1527614.0084958,2.3066118-.0016351,3.457951.0310193.8289633.0235117,1.6881507-.1321296,2.4810006.2033049.1796113.0759916.4760077.018552.7186675.0205693,1.092091.0090845,2.1847153.0057376,3.2760284.0307875.5906594.0135573,1.1955641-.0812461,1.7627332.1840042.2136357.0999038.5890815.0380612.8907449.0381941,2.6696347.0011842,5.3392694.0012045,8.008904-.0025002.4173374-.000579.8228296.0087373,1.2241215-.1561262.2317701-.0952089.5850368-.059611.8836778-.060063,3.3977916-.0051343,6.795561-.0069091,10.1933526-.0065745.4794302.0000475.9255027.0418232,1.3956878.1851777.4114259.1254309.9568158.0214179,1.4384239.0529269,1.1276932.0737774,2.2931665-.1526872,3.3881688.2240808.1968568.0677373.4788079.0175502.7214676.0173785,2.8516906-.0020163,5.7034034-.0047619,8.555094-.0076636.3598671-.0003656.6989995-.0074774,1.0485549-.1329753.2304145-.0827203.6258394-.0887905.8479645-.0032868.4072479.1567673.8138734.135075,1.2301663.1379117,1.5774771.0107487,3.155643-.0009146,4.7322534.0294995.8287633.0159878,1.6767722-.1130364,2.4828674.2056616.2794843.1105042.7144005.0346629,1.0783345.0348637,2.7908868.001543,5.5817513.0008467,8.445087.0008467.1620546-.0557433.3745125-.1288244.7026442-.2416949.3031302,0,.7274236.0159208,1.1484056-.003376.8298744-.0380389,1.6547041.030255,2.4839341-.2107688.5235218-.1521703,1.2179211.0098332,1.7977354-.0837221.5196327-.0838443,1.0145972-.2064734,1.5637206-.2199269.8302967-.0203384,1.674861.0725506,2.4810006-.215295.2915295-.1040858.7162895-.0301609,1.080268-.0308166,2.2449191-.0040403,4.489927-.0141422,6.734735-.0040035.6577747.0029716,1.3727975-.0350053,1.956012.1289165.567858.1596147,1.2459673-.0353544,1.7128856.3160368,1.1974976.0989088,2.3017893.3814387,3.3450105.8006612.8562983.3441155,1.0854905.4925034,1.5841664,1.1535984-.1615435.0402511-.3157088.1110977-.4711408.1124361-1.7591996.0151488-3.5187992.0107371-5.2777766.0319891-.5905705.0071351-1.1946752-.077874-1.763911.1781086-.2190582.0985092-.5885037.0402676-.8895893.0424759-1.4561139.0106857-2.9130055.0013937-4.368186.0321995-.8291633.017555-1.6985958-.133755-2.4709333.2170077-.6672864.0091601-1.3356174.0051828-2.0015704.031219-.6504854.025433-1.3414178-.1079108-1.9283658.2091802-.7871829.0149403-1.5749436.0216662-2.3613708.047681-.5325224.0176151-1.0718897-.0546057-1.5866554.1656452-.2275477.0973609-.5851924.0598506-.8839223.0606778-3.0943281.0085724-6.1890562-.0037901-9.2827398.0302521-.6865543.0075541-1.2795916-.1768323-1.9210987-.2498551-.5849257-.0665812-1.189186.0402424-1.7647555-.1971571-.2779953-.1146609-.7043777-.0698855-1.0636003-.0701609-4.7305199-.003632-9.4610621-.0024188-14.0828863-.0024188-.2663945.1033875-.4253157.1650672-.6146831.2385643-1.2448561,0-2.5199364.0209339-3.7928387-.0068926-.949282-.0207497-1.9358329.1517203-2.8356896-.2095196-1.0313316-.0116089-2.0637965-.0067287-3.0936614-.0402492-.7690484-.0250325-1.5531866.096523-2.3039672-.1949469-.2800398-.1087197-.714445-.0262932-1.0784456-.0264416-2.1842708-.0008884-4.3685638-.0004403-6.704822-.0004403Z" stroke-width="0"/>
        <path d="m113.1373107,641.3317489c-.2071575-.0815283-.3655786-.1438772-.6130941-.2412643-1.0628336,0-2.215695.0082242-3.368112-.0036621-.5336447-.0054621-1.0980135.0763455-1.5718323-.1913604-.0414915-.0234623-.1117959-.0296692-.1691995-.0306934-.7884607-.0141208-1.6010897.0524488-2.3585484-.0610454-.7045443-.1055493-1.3904542-.2056364-2.1126996-.2059778-3.5796697-.0016448-7.159395-.0056483-10.7389314-.0247657-.5889704-.0031345-1.2222325.1076286-1.7509213-.1937501-1.070234.0291727-2.1401569-.1559187-3.2157357.1228977-.5434453.1408668-1.1908749.0861215-1.8297596.1220287-.1184741.0495005-.2640722.1477876-.4327161.1741361-.6344177.099094-1.2785694.0638385-1.9278102.2479989-.5718249.1621877-1.27058.1204149-1.9103313.2655645-.4976202.1128735-1.0826126.0316555-1.627858.0500281-.7719152.0260071-1.5400303-.0354417-2.3040228.1966363-.4047866.1229287-.9618661.0711938-1.3900264-.1958294-.4016642,0-.8266465.0076035-1.2508676-.0017069-.7149728-.0156415-1.4066719-.0272796-2.1153665-.2174296-.6429738-.1725844-1.4498524.0572592-2.0867813-.2810509-.7584255.1284219-1.3738754-.240116-2.0927095-.2977786-.8140123-.0652661-1.576677-.3371618-2.3295133-.5830192-.8026394-.2621507-1.5332743-.6393784-2.4462984-.7320793-.1480149-.0150208-.2694836-.1574394-.4174152-.249861.2907294-.5304463,1.0371764-.6507371,1.6447035-.9314777,1.8463995,0,3.7261623-.0012414,5.6059084.0009621.4204654.0004966.8109177.0886663,1.2171044.1620636.6869099.1241081,1.4335402.0870215,2.1603804.1179321.1530319.0620385.3100973.1256908.5553294.2250642.5781919,0,1.2458117-.0103346,1.9124259.0032897.5338114.0108932,1.071473-.0466453,1.5829052.1789155.2229029.0983492.5869703.0519212.8869336.0519212,2.3660934.000031,4.7325534-.0216002,7.09808.0023276.7352907.0074173,1.3472848-.2874441,2.1093327-.2520644,1.5103062.0701076,3.0317019.023245,4.5485196.0253244.2426708.0003103.5153991-.046428.7231122.0140898,1.2840586.3741552,2.6226206.1443738,3.9335476.1953329.4706185.0182795.9461262.0456832,1.4064996-.1454289.2309368-.0958664.584859-.0609523.8832889-.0616661,2.305534-.0056794,4.6110902-.0075414,6.9166464-.0057414.4785301.0004035.923647.050897,1.3961434.1809638.4767522.1312771,1.0764677.0329279,1.6195241.0612937.9489819.0495315,1.9278658-.1154183,2.8430456.2173055.1922788.0698903.4779967.0164174.7206565.0164174,2.1235336.0002172,4.2470673.0004655,6.3706009-.0015828.358667-.0003414.7084557.0127243,1.0469659-.1380427.1818448-.0810318.4605623-.0635902.6971217-.0759421,1.4916828-.0777421,3.0105117.1091183,4.4767262-.2476265.2721838-.0662282.602149-.0184036.9054903-.0202347,1.6381253-.0099932,3.2767951-.004469,4.9141204-.03479.7683372-.014245,1.5591426.1239529,2.3036783-.1854328.2251253-.0935078.5946152-.0190554.8979676-.0191174,4.4291121-.0008069,8.8582353-.0022035,13.2873473-.0001862.4770411.0002172.9309808-.000869,1.4032105.1662222.3406548.120508.8289299.0433866,1.251401.0444108,4.8538055.0120415,9.7076887.0147726,14.5613386.0399107.8276521.0042828,1.675361-.1131528,2.4842008.196388.2827289.1081872.7149672.0296692,1.0789457.0299175,4.0043853.0029793,8.0087485.0038173,12.0131338.0072001,1.9415222.0016448,3.8831999-.000869,5.8244777.0165105.5904594.0052759,1.166229-.0253554,1.7654667.1753775.4490505.1503945,1.0717119.0357521,1.6141683.0653592.9485708.0517039,1.9090313-.0876732,2.8485793.2075606.4054033.1274288.9573047.0305072,1.4426463.0305693,9.9503818.0015207,19.9007858.0013655,29.8511675.0042828,1.6987958.0004966,3.3982583-.0031655,5.0960985.0289554.7069556.0133139,1.4410018-.1161942,2.1228003.1928811.2156136.0977595.5920595.0260071.8949008.0260071,6.6133051.0003414,13.2266102.0005276,19.8399153-.0019862.4763855-.0001862.945704.0281175,1.4035328-.1623739.2296367-.095494.5868814-.0531626.8864336-.0532557,6.2472821-.0022966,12.4945641-.0017379,18.6737974-.0017379.2268587.0880456.3855798.1496186.6491742.2519092,4.1421718,0,8.3892613-.0050276,12.6362841.0058035.5889926.0014897,1.1870969-.0747938,1.7680668.1664705.2739061.1137424.7066667.0512384,1.0674227.0513005,4.7931016.0007448,9.5861811-.0008379,14.3792827-.0045621.4165595-.0003103.8238741.0208864,1.2279662-.1415496.2355259-.0946561.5828589-.0680903.8803443-.0706041,1.4560472-.0124139,2.9132945.0056173,4.367986-.0301348,1.1309156-.0277451,2.2781878.1132459,3.3916579-.2049226.3655563-.104463.8400751-.0257278,1.2647463-.0262554,6.1886339-.0078828,12.3772456-.0147415,18.5658795-.022314,2.9122944-.003569,5.824611-.0056483,8.736861-.0149588.4738298-.0015207.9470152.0443797,1.4078886-.1471669.2307256-.0959285.5844812-.0618833.8826333-.0621626,3.6400958-.0033828,7.2801693-.0022035,11.1134994-.0022035.2998855.1299736.7680483.310596,1.1983421.5277463.2553939.1288874.517277.1815224.8146735.2326056.2637055.0452487.4863862.2072812.8157402.3584206-.3402881.2099813-.6125274.3779725-.8795665.5427361-.3455329.0764076-.700333.1260012-1.0163751.2319539-.4125148.1382599-.8819888.1699154-1.2218547.0415245-.5253219-.1984674-1.0486882-.1741051-1.5833219-.1751292-3.0336131-.0056483-6.0672707-.0027-9.1695326-.0027-.1663438.0553971-.3796906.1264357-.7018219.2337229-5.8922153,0-11.8967487.0007448-17.9012599-.0015517-.4175818-.0001552-.8248519.0125691-1.2271217-.1524428-.2324369-.0953699-.5822589-.0667248-.8793442-.0672834-2.2448968-.0042207-4.4901048.0126622-6.7344238-.0123518-.5087876-.0057104-.9217913.1558877-1.3830648.2100744-.4729853.0555522-.967972.0203588-1.4533137.0240519-.9100573.0069208-1.8210924-.0030414-2.7298607.0244864-.8901671.0269382-1.7727782-.0469556-2.6686124.1895294-.5874592.1550808-1.321172.0252002-1.9863695.055366-.7690262.03479-1.5820551-.1243253-2.2884107.2253435-.7277125.0109242-1.4566028.0078828-2.182804.0371797-.5902371.0238037-1.1954975-.0775559-1.7653555.1752844-.2227696.0988147-.5868592.050897-.8869892.0545281-1.0312649.0125691-2.0638854.0002793-3.0936836.0328348-.7688928.0243002-1.5532533-.1021354-2.3055229.1895914-.2791509.1082183-.7143561.021414-1.078379.0217243-9.7076776.0085035-19.4153552.0164795-29.1230328.0252933-3.1549986.0028552-6.3101971-.0058656-9.4648401.0197692-1.0089079.0081932-2.0430619-.140153-3.027435.1939673-.2462822.0836077-.598171.0167588-.9015234.016914-4.7324978.0025449-9.4650401.0114518-14.1974935.0003103-.7676039-.0018311-1.5397636.0831111-2.3057229-.1870776-.390269-.1376392-.9552379-.0221278-1.4389572-.0446901-1.1301156-.052697-2.2857661.1166597-3.3872354-.2245676-.2557494-.0792318-.5995488-.0222519-.902879-.0237726-1.6381253-.0082863-3.2762506-.0225312-4.9143537-.0213209-8.1301561.0061139-16.2603567.0124449-24.3904683.0313451-.8289411.0019242-1.6886618-.1143942-2.4790005.2027502-.1378087.055304-.3577336.0121036-.5397451.0122587-1.2741246.0009-2.5498716-.0248589-3.8217072.0129725-.6250616.0185588-1.0993803-.3074925-1.7469988-.2448644-.6536411.0631868-1.3316838.0036621-1.9990369-.0025759-.6066604-.0056483-1.2228547.0328348-1.8176922-.0288003-.8229629-.0852525-1.622591-.2511334-2.4743779-.216902-.7860272.0316244-1.5769215.0039725-2.36566.0033828-.8474311-.0006207-1.69484-.0001241-2.4575324-.0001241-.2421486.094594-.4008252.1565704-.585548.2287263-2.2198953,0-4.4647921.0041587-6.7096223-.0030724-.5336336-.0017069-1.0788012.0653903-1.5813217-.1747568-.1710885-.0817456-.4678406-.035721-.7072667-.047266-1.1908638-.0575074-2.4081516.0996216-3.5670023-.2384402-.2080131-.060704-.4803413-.014245-.7230122-.0166346-.9100128-.0090001-1.8208368-.0043449-2.7297496-.031252-.5903149-.0174726-1.179152.0596799-1.7679779-.1706912-.3266761-.1278633-.827841-.0440694-1.2504454-.0457453-3.3369433-.0131587-6.6739533-.021414-10.0108634-.03839-.4738854-.0024207-.9489486.0466453-1.4095998-.1493083-.228181-.0970457-.5827589-.0644282-.8801887-.0646765-7.0986801-.0058966-14.1973713-.0094035-21.2960513-.0090622-.5356226.000031-1.0677116-.0269692-1.576977.1913294-.2243252.0961457-.5910372.0340141-.8932118.0372417-1.0919909.011638-2.1843375.0126932-3.2759173.0337969-.5324446.0103035-1.0708896-.0612006-1.587711.1576877-.2276588.096394-.5861702.0535039-.8853891.0543419-1.5151731.0041587-3.0303796.0019242-4.4976831.0019242Z" stroke-width="0"/>
      </g>
      <g>
        <path d="m.3734238,617.9077066v-.769104c.2956805-.2085914.6359555-.448621.9928867-.7004273h2.4989577c.9192155.2654412,1.8310125.5632496,2.777855.7896442.6010012.1437315,1.1647745.3325109,1.6820395.5672421,1.6281993.7389214,3.180718,1.5419997,4.5593316,2.51397.9685615.6828752,1.7315642,1.4595876,2.4819329,2.2470221,1.0777657,1.1310191,1.7408627,2.1672969,2.6911688,3.9886991.0976604.1871723.2698033.3554366.4395503.5738713.318184,0,.6573497-.0105463.9946342.0025361.4831075.0187323.9982821-.0097177,1.4377425.1014959.4386872.1110378.9349726-.0126305,1.2757387.1351186.4537464.1967394.9517895.1094057,1.397323.2469098.6994886.2159236,1.480286.2466085,2.1892844.4652691.6520205.2010834,1.3513226.3275139,2.0301666.4860605.1810436.0422607.3701474.0710622.543994.1243965.657842.2017363,1.3133913.4049541,1.9805475.5935075,1.1658556.329573,2.1735307.8634184,3.1989936,1.365901.3554837.1741903.7230238.342555,1.0404728.5472794,1.1835581.7632533,2.1575139,1.6430938,2.9451711,2.6261378.5676303.7084877.8336396,1.4840199,1.1623763,2.2531742.2736738.6403132.2690346,1.2727417.2270036,1.9110461-.0260413.3955127-.1844466.7914773-.3399794,1.1760921-.0728913.180267-.2794367.3341681-.4243022.4987412-.8220822-.3235967-.8823551-.3620657-1.3054481-.9212725-.4501142-.5949137-.9375979-1.1790049-1.3235057-1.7939064-.4471833-.7124551-1.0062321-1.3847086-1.6123871-2.0228874-.7988235-.8410451-1.7093776-1.6183602-2.9508082-2.2155338-1.485314-.7144639-3.0948735-1.2183528-4.7504155-1.66499-.7998484-.215773-1.5642874-.5097395-2.4171219-.6240166-.4705386-.0630269-.8902848-.2754351-1.3967274-.2279264-.3550342-.2418375-.869856-.1022743-1.2385783-.233752-.6131115-.2185853-1.2111817-.1518672-1.8274849-.1490046-.2387925.3649785.3102048.5853969.185694.912032-.097067.2545684-.0029849.5440653.0000629.8180691.0034277.3082543-.0328382.618643.0067609.9243862.0720866.5565703-.2457759,1.0635978-.4274467,1.5780581-.1922841.5445424-.5202499,1.0785887-.9862123,1.5553333-.8789679.8992759-1.80555,1.7736173-2.9927606,2.4879054-.9510545.5722391-1.9727369,1.0820037-3.0449083,1.541849-1.067467.4578616-2.157651.8755215-3.3652118,1.1330279-.9230129.1968398-1.8357045.4127886-2.7715312.3306778-.2697157-.0676723-.4892986-.1409693-.7207885-.1775049-.7526759-.1188471-1.3411599-.4296878-1.7529978-.8515663-.4036946-.4135419-.6711042-.8919437-.9983192-1.3418704.0947126-.421301-.3443275-.7695058-.3289423-1.1820683.0102066-.2736774-.0121171-.5479323-.0176306-.821911-.0027556-.1369768.0085973-.2743554-.0018667-.4109806-.1107473-1.4461787.6912488-2.7013181,1.7461717-3.8829846.7704334-.8629915,1.6721723-1.6648142,2.7560382-2.3584366.7534569-.4821433,1.5851208-.8859423,2.4441701-1.2670166,1.1404077-.5059478,2.3875945-.8435561,3.6579591-1.1462359.1355804-.0323421.2790187-.109255.4024888-.0952434.5646319.0640062.9868416-.299089,1.5511229-.2345304.1182061.0135345.2565736-.0588586.4390715-.1052122-.6762232-1.0663098-1.3806702-2.0914637-2.3172184-3.0300373-.748402-.7500202-1.470947-1.5193251-2.4681435-2.1261159-1.1668446-.7100194-2.3593663-1.3949285-3.7159372-1.9332436-2.4668725-.9788505-1.8147946-.6817954-4.722403-1.4434166-.6223134-.1630162-.8946003-.282918-1.5176341-.7642577Zm5.7286834,21.519168c.5388402.0425118,1.0726096.0974029,1.5431033-.1562364,1.0750551-.117215,1.9811746-.5358793,2.8757772-.9034442,1.117684-.4592175,2.2272045-.9656174,3.0966177-1.6707403.2870563-.2327978.6197825-.4377984.9224307-.6615565,1.0269846-.7593863,1.7162082-1.7148591,2.0736002-2.8295565.0400981-.1250243.1762562-.2350577.2257426-.2982604v-1.2999362c-.4095599-.3914699-.1973031-.8576681-.3081729-1.2539341-.1513747-.2036698-.2833476-.38125-.4119694-.5543103-.4542027,0-.9578986-.0954443-1.3164324.0231266-.4969485.1643219-1.0235817.168892-1.5235532.2790259-1.2084149.266069-2.3201763.6650468-3.3245833,1.1716224-.739081.3727376-1.5693716.7074582-2.101017,1.2474054-.2488642.2527354-.5244575.4830221-.794962.7209926-.3887669.3419021-.7528186.6997744-1.0892445,1.0678415-.3624222.3964669-.6112077.837153-.7799871,1.2896661-.1678882.4501527-.2330306.9174056-.3766464,1.3737354-.0583355.1853644-.0044695.4116084.0987235.5911472.0944103.1642717.1492664.320031.147929.4907561-.0046155.589515.3569087,1.0414254,1.042644,1.3726557Z" stroke-width="0"/>
        <path d="m410.1371999,612.634695c.3863754-.0337198.7525662-.0609293,1.1158882-.1008494.0859637-.0094673.1622961-.0616447.3052615-.1192116.6720329.2749093,1.6638083.1171846,2.2765513.7433854-.5950516.0803885-1.1084769-.0033863-1.6830366.0531552-.5481592.1877005-1.1747342.3659336-1.7344713.6632592-.9533872.5063453-1.0975138.6262485-1.9458115,1.3436167-.7947113.6720587-1.4344694,1.4109132-2.1326296,2.1255151-.7009949.7174636-1.2263739,1.5037499-1.6978249,2.2957357-.5908507.9925875-1.1162639,2.0089267-1.5146612,3.0524754-.1398916.3664583-.342591.7218515-.4659866,1.0905514-.1135936.3394157-.3877415.6527187-.3194351,1.0264265.0204578.1119382-.1388328.2342261-.1659847.3571579-.0764691.3462121-.2991481.6818837-.3257876,1.0164346-.0412571.5174819-.4601805.9879373-.3283149,1.5156973.0227802.0910959.0563528.1808802.098293.3135177.750722.0106597,1.4879875.0173845,2.2248091.0338867.2281435.0051033.4619906.0189346.6813226.0597847.6565957.1222879,1.3155479.243288,1.956638.3988426.2963133.071899.565953.2104983.8254834.3404888.5954614.2981602,1.2670504.5182927,1.798372.883034.7618559.5230144,1.3907875,1.1190009,1.9086528,1.7638263.3091891.3850828.7475799.7199914.8862761,1.1805264.1206975.4007981.4975783.7417161.6322786,1.1545569.1713809.5253276.4758568,1.0290259.4799894,1.580466.0009563.1264134-.0055328.2743369.0808065.374924.2625358.3058151.1360323.6319956.1605543.9499251.0048498.0625986.0109973.1494736-.0404716.1859596-.3675911.2606249-.1872621.6176635-.339039.9233355-.2796466.563316-.6467937,1.0565216-1.2948511,1.4459923-.2115792.1271527-.4061501.2681367-.5851471.3872529-.3988413.1390285-.773468.2598141-1.1343651.3981034-.3703234.141914-.826508.0073449-1.1932452.2160785-.1484641.0844664-.4456312.050532-.6756532.0543237-.5591224.0092527-1.1186205.0099204-1.6779478.0125674-2.1797269.0103258-4.0172043-.5548264-5.5545091-1.6179298-.5251058-.3631435-1.0636679-.7151266-1.4171538-1.1848905-.2288607-.3041935-.8058111-1.1797633-.8742542-1.5874532-.0437503-.2603387-.3768125-.4462983-.2945374-.7347289.0741466-.259981-.1026987-.496258-.2302952-.7405237-.0907451-.1736307-.0332311-.3862752-.0335043-.5815113-.0016735-1.0729284-.0007855-2.1458567-.0007855-3.2040953-.3865462-.2486298-.7060495-.0915013-1.0631215.053489-.8961805-.0381553-1.7598472.1920883-2.6539785.3132077-.898298.121644-1.737511.3676268-2.6282611.5043898-.7451891.1143707-1.4556786.358541-2.1593716.5796274-.6674222.2097352-1.2986421.4749148-1.9588922.6965974-1.54113.5173865-2.9648753,1.1461628-4.2143709,1.9735853-1.1436206.7572882-2.680174,1.8967023-3.4078084,2.6339351-.102767.1041164-.1619546.2287175-.2521532.339511-.1356566.1666435-.2585057.3418719-.4278032.4907016-.2008209.17654-.4451531.3289945-.650653.4774665h-.8398619c-.4324822-.201031-.7410566-.4356864-.8679017-.7639654-.0587777-.1521206-.0944678-.3091537-.1274257-.4653283-.0131831-.0625032-.0280056-.1571523.0213799-.1886543.3951528-.2520399.157822-.6210021.3785543-.9162053.5307069-.7098802,1.0689617-1.4049276,1.7734743-2.0482744.6527364-.5960342,1.3867915-1.1273236,2.1386406-1.6533189.982554-.6873924,2.1568784-1.1938808,3.3135114-1.7206392,1.1948504-.5441906,2.5290119-.8791707,3.8119093-1.289603.6566981-.2101406,1.3528432-.3749001,2.0533258-.4994296.7041028-.1252449,1.3421874-.415154,2.0966662-.4084291.4911233-.2207287,1.1064278-.0967477,1.5899008-.2487967.5037942-.1584401,1.0391801-.0349598,1.4872362-.1636149.7672863-.2202994,1.5499415-.1291797,2.3443796-.1896798.1868864-.0604762.3945722-.1276773.6682078-.2162454.0918039-.1191401.2192978-.284615.3543738-.4599389.157378-.3584218-.0796112-.7603884.2327884-1.1266082.2594962-.3042174.0390371-.6820268.2969623-1.0277143.2409851-.322985.0100069-.7688064.3536908-1.1089136.5553655-1.5607206,1.0308467-2.8287182,2.0686948-4.421847.2067294-.3173094.3578916-.6532672.5823466-.9638279.7849093-1.0858535,1.7231666-2.107439,2.721397-3.102912.1572414-.1568185.2645509-.3441374.4515739-.4790881.4518471-.3260136.8035911-.7076624,1.2302332-1.0439541.6454617-.5087539,1.4561909-.885204,2.2945842-1.2242858.3548861-.143488.7431741-.246722,1.2162987-.4008458Zm-8.227067,24.3514101c.1434777.1089097.2912245.2358239.460283.3469513,1.360152.8940275.9387696.970982,3.5639228,1.5287178.5599762.1189731,1.1008949.1539568,1.6182821.0506751.3128094-.0624317.6235695-.0899035.9333734-.1396963.3512317-.0564699.6864456-.161564,1.2354586-.2962524.2486355-.1727245.6436858-.4471568.8988103-.6243884.1641062-.3520308.2623992-.5628391.4214849-.9041148.1269475-.6164473-.2523923-1.3144755-.5565267-2.0106437-.5845665-1.3379411-1.511724-2.5480618-3.0678814-3.4661748-.6937544-.4093353-1.4032192-.826254-2.3604316-.9313959-.1681022-.0184338-.3179323-.1179239-.460522-.1738215-1.0161266,0-1.9943432-.0017647-2.9725598.0013116-.2250014.0006916-.4699483-.0299758-.6584058.1546245.0994542.621026-.3619217,1.2214242-.2800223,1.8806294.0801576.6454692.0174523,1.2995711.0174523,1.8791031.1075485.1828595.2454592.3042174.2339837.4182541-.0402666.3981987.2381504.7492995.2936494,1.1264174.0642764.4364972.481697.7545935.6796491,1.1598033Z" stroke-width="0"/>
        <path d="m17.8840551,14.0345454h1.9622591c.4333196-.2839985,1.1046242-.055758,1.5343303-.3475368,1.1702492-.0430908,2.1811346-.4224956,3.1486848-.8161805,1.0170897-.4138447,1.9748368-.8967373,2.8534958-1.4659103,1.5288318-.9903303,2.6533897-2.1809447,3.695622-3.4152076.533322-.6315899,1.1660609-1.2083544,1.8040068-1.781827.4482324-.4029319,1.0749952-.6788888,1.743223-.8976433.2876344-.094164.5620275-.2080482.8811357-.3274537h1.3851181c.0371414.1248133.0719202.2416809.116538.3916103-.6740475.4448511-1.0486522,1.0181481-1.4389537,1.5928129-.7574508,1.1152174-1.7342335,2.1472234-2.6444509,3.2019346-.8510481.9861546-1.9509789,1.8443045-3.1464047,2.6459217-1.2627265.8467501-2.6697373,1.5239067-4.2675731,2.0190799-1.0037259.3110593-2.6398927.6794008-3.6006448.7596656-.4060214.0339175-.7374009.2400298-1.1832686.1966617-.3607485-.0350861-.7860528-.0726363-1.0946753.0256694-.6210129.1978096-1.2596878.1086225-1.8803964.1683496-.5363206.3999735-.354895.9685076-.69758,1.4111631-.2678211,1.1521479-.6789375,1.9325974-1.2577098,3.0706837-.6919864,1.3607081-1.8690781,2.5148921-2.9557825,3.711801-.1459198.1607183-.3589544.2934285-.5528605.4308898-.615022.4359833-1.2407346.864648-1.8527347,1.3026674-.5797423.4149277-1.2712511.7202134-1.9889529.997246-.5944882.2294681-1.2006094.4454531-1.8136926.6496812-.2821126.0939781-.5881687.1900189-.8922479.206825-.5876393.0324936-1.1041192.3608622-1.7377119.2038179-.2815832-.0994198-.5631665-.1988366-.8723511-.3079976-.1436883-.1854655-.2941694-.3797015-.4638942-.5987732.029778-.0678144.0577207-.1589388.108882-.2431845.21827-.359428.5223355-.6316859,1.0669313-.8211264.4778275-.166216.9141236-.4019256,1.4106253-.5664566.4885678-.1619016.9233392-.4020495,1.4086559-.5698827.5043639-.1744228.8998088-.4331857,1.3078463-.6901809.2688059-.1693057.4708561-.3958376.853231-.4751846.1203059-.0249656.2343356-.1084145.3112936-.1847337.7844552-.7779442,1.7808357-1.4321227,2.5001582-2.2584842.8301043-.9536271,1.3352406-1.9935537,1.9638567-3.0007122.1938448-.3105709.286694-.6636218.3720055-.9966824.1035546-.4042893.3912946-.7778394.3853228-1.1978134-.0007713-.0542058.0911249-.1090548.1717894-.1989118-.1705913-.0869458-.3354621-.2388243-.521393-.2526528-.5005126-.0372271-.9281139-.2872372-1.4530317-.2259594-1.2799089-.3190949-2.5475274-.6891849-3.6686599-1.2073304-1.0499054-.4852284-2.1394488-.9985548-2.7566442-1.8276917-.9483075-.6737319-1.3727623-1.5588393-1.9598416-2.377717-.0785451-.109558-.1313504-.2414906-.1304999-.3628364.0022717-.3240527-.3197854-.5808516-.3010658-.9209313.0495733-.9005383.0516421-1.8038372.0080576-2.7045142-.0135846-.2807214.2604165-.4730495.269125-.7307176.0086598-.2561763-.0569388-.5431745.0864167-.7597275.1639812-.2477098.1141375-.5084307.2408928-.7358361.2289723-.4107912.5549504-.7952209.9613839-1.3582211.1835905-.1134533.5636251-.3483034,1.1226497-.6937634.2275015-.0789102.6740602-.2338024,1.1647972-.4040186h1.6517199c.660614.2049164,1.3882964.3317128,2.0431731.6565408.7630486.3784842,1.4530719.806718,1.9963575,1.3081755.6780943.6258937,1.460728,1.2189759,1.8598858,1.9782659.5346342.4056911.8055026.9163439,1.1318632,1.4032189.266978.398284.5148337.8035103.7462911,1.2125198.2311024.4083868.245265.8627284.5252644,1.2625749-.0480497.5779493.3638803,1.1067966.3365631,1.6902334-.0421771.9008245-.0054161,1.8034536-.0017582,2.7053183.0006297.1551527.0031191.3103009.0053273.5204723ZM8.2042568,2.798942c-.4616194.2240397-.7604579.3690748-1.0849526.5265632-.2861065.4027312-.5870561.8263578-.8691687,1.2234688-.0121973.1938501.0430234.3748492-.0441825.5115536-.3108752.487328-.24114.9983217-.2599918,1.5043768-.00842.2260243-.0368857.4339766-.2060347.6442247-.0991317.1232168-.1123814.3443498-.0185506.4671622.2993541.3918169.1826998.8123899.2621504,1.2179674.2664613.432954.5029533.876545.8080965,1.2957724.2858762.3927553.5946699.7872605.9844156,1.1306158.4266208.3758386.9646847.68921,1.4410817,1.0385145.4857351.3561523,1.1406794.5118967,1.7399392.7309241.5590331.2043255,1.1186875.4607497,1.7200984.5413626.656077.0879388,1.2855997.3602616,2.0708474.2009097.0919152-.082053.229695-.2050514.3482849-.3109192,0-1.065264.0009552-2.0946068-.0009995-3.1239452-.0003043-.1602697.0709164-.3597659-.0370442-.4735158-.3395237-.3577341-.1499898-.7532353-.2922918-1.1083326-.838929-2.3102184-2.4266637-4.2938154-5.1211802-5.7744476-.506252-.0851376-.9848868-.165631-1.4405174-.2422556Z" stroke-width="0"/>
        <path d="m423.1287208,22.5180482c-.3209561.5618327-1.1009429.5316894-1.7333474.7768084-.4504099,0-.9829835.0085584-1.5147056-.0026908-.4300109-.0090972-.8758089.0021706-1.2848887-.0737311-.8166341-.1515308-1.6453656-.2732807-2.4228691-.5307388-1.9612131-.6494603-3.7101702-1.4959002-5.2576207-2.5621586-1.0644021-.7334374-2.0223392-1.5212225-2.8265565-2.3979388-.9497065-1.0353054-1.6791038-2.1496088-2.307464-3.2950572-.0987312-.179982-.0618711-.3962226-.088372-.6008688-.1484692-.0958656-.2873244-.1855106-.4121308-.266097-.4086895.0384447-.7159517.2124971-1.131098.1988312-.5146579-.0169419-1.0492536-.0554144-1.5435125.1631206-.1751831.0774591-.4731504.0226377-.7150648.0229101-1.0647214.0012014-2.1295137.0063197-3.1940932-.0024477-.4250797-.0035005-.8543811.0448403-1.2622902-.1388496-.1766376-.0795477-.4700639-.0586238-.7054152-.043947-.7841731.0489043-1.501331-.1714344-2.232573-.2897674-1.1420602-.1848108-2.2606705-.4482093-3.3730723-.7184787-.4554476-.1106555-.8707003-.2564379-1.2943964-.4049807-1.0606061-.3718184-2.1562985-.6877796-3.1292067-1.1842415-.8095388-.4130839-1.6526738-.7915364-2.36859-1.2872659-.2749076-.1903672-.5469061-.3828478-.8263192-.5699498-1.7426068-1.1668707-3.2104479-2.4727134-4.2052451-4.0981726v-1.0119834c.12917-.1772804.299883-.4115814.4691415-.6438714.3143929-.1186418.6064357-.2288615.9005361-.3398436h1.0807568c.4155365.2884676.8585673.5960121,1.3400902.9302799-.1077777.1624804-.2044867.308259-.3011247.453991.2439011.7013464.9667352,1.2099894,1.5326567,1.7707601.6050521.5995219,1.3035139,1.1694222,2.0737801,1.6673749,1.0828854.7000723,2.2635086,1.3203817,3.5323264,1.8655559,2.1604493.9282913,4.5701921,1.4075759,6.9337444,1.9711565.440441.1050216.9498839.0689518,1.4430785.0989434.1107577.0453713.2359544.0966474.4015588.1644737h5.4359966c.4400153-.09914.8393745-.1891209,1.2601616-.2839307.0273879-.621404.0539953-1.224657.0806027-1.8279085.4371772-.3315887.1984911-.7712365.370978-1.1550395.2952356-.6570589.517496-1.3368684.8925893-1.9711735.4338069-.733603.9862473-1.4351182,1.5312022-2.1338219.3847429-.4933066.8381328-.960849,1.2716205-1.4350857.1029883-.1126573.2431206-.2101307.3765478-.3076203.7354283-.5373209,1.474085-1.0724891,2.0367781-1.4813411.5792252-.2004932.906709-.3435059,1.2623966-.4299848.5306933-.1290433,1.0295287-.3245382,1.622093-.333647.5971763-.0091785,1.1125437.1661109,1.6355386.3059467,1.6701992.4465644,2.6562692,1.3902779,3.4139412,2.4519452.267493.3747352.4578955.8066351.5750744,1.2136114.2176485.755993.1327886,1.535438-.3179051,2.2587254-.6743023,1.0821336-1.5342532,2.0897248-2.8843122,2.8272912-1.0082073.5508328-1.9962994,1.1285669-3.1867851,1.5034585-.9515868.299668-1.8356972.7152415-2.8097051.9656011-.9255825.2379076-1.8105443.5680967-2.79704.6932866-.1244871.0157978-.2259854.1199044-.3506145.1901288-.293178.4881031.1260481.912091.3409294,1.3253282.5184184.9969753,1.1980067,1.946452,2.145691,2.7886653.1056491.3183687.501709.4840562.7717917.7159939.3617896.310654.8793211.529974,1.1021137.9236173.033206.0587167.1137377.1141637.1924601.1490413,1.2120199.5368263,2.0465696,1.4161498,3.3983671,1.8253679.8827978.5286394,1.9899491.7765421,2.9892518,1.1591685.2451428.0938638.5231013.1846281.7943193.1987693.6195265.0323108,1.1673905.287812,1.8184201.2336036.4680418-.0389711.9498484.0028177,1.4497836.0088773Zm-4.620959-17.3138133c-.33167-.4650908-.5767418-.9478983-.9883404-1.3469472-.4166008-.4039032-.9979546-.7249479-1.3575446-.9772985-.569611-.1291548-.9276401-.2103288-1.2579975-.285225-.4938687.1059227-.8931569.26718-1.287443.4634985-.7474194.3721451-1.3489238.8221356-1.9071114,1.3306184-1.0656793.9707597-2.1588883,2.235004-2.7098032,3.3640013-.1974623.4046355-.3424549.8217617-.5860722,1.2162256-.1692585.2741337.0392725.6192118-.3273419.8592094-.0269976.0176649-.019654.0638738-.0212859.0969803-.0116363.236378.0067405.4755937-.0406206.7083334-.0390242.1918194-.1551743.3759877-.2433689.5777976.1285314.0960854.2588012.1934961.3850622.2878956.1459149-.058743.2609298-.1336601.3930089-.1536642,1.0687657-.161879,2.0485563-.4931673,3.0553446-.7720353,1.561712-.4325586,2.9495181-1.0778838,4.2590275-1.7950961.5944446-.3255956,1.0930317-.7344793,1.5529848-1.1775424.5202987-.5011776.7811221-1.0517658,1.0815018-1.616074v-.7806774Z" stroke-width="0"/>
      </g>
    </g>
  </g>
</svg>