<?xml version="1.0" encoding="UTF-8"?>
<svg id="Layer_2" data-name="Layer 2" xmlns="http://www.w3.org/2000/svg" viewBox="0 0 88.2647815 158.1876128">
  <g id="Layer_1-2" data-name="Layer 1">
    <g>
      <path d="m88.2051744,117.8516753c.1025391-2.4482422-.0488281-4.4902344-.4765625-6.4257812-.1923828-.8691406-.2880859-1.8037109-.2792969-2.703125.0341797-3.1728516-.3857422-6.3173828-.8007812-8.9746094l-.0400391-.2539062c-.3876953-2.4960938-.7900391-5.0771484-1.5595703-7.5693359-1.1289062-3.6494141-2.5283203-7.5332031-4.4042969-12.2236328-.2695312-.6757812-.7226562-1.2246094-1.1220703-1.7089844l-.1259766-.1533203c-.2910156-.3554688-.6044922-.6660156-.9072266-.9648438-.1630859-.1611328-.3261719-.3222656-.484375-.4902344-2.0058594-2.1279297-4.1777344-4.3408203-6.7373047-5.9472656-.6357422-.3984375-1.2744141-.7929688-1.9736328-1.2255859l-.1826172-.1123047c2.1943359-3.2841797,4.4345703-6.0791016,6.8330078-8.5292969.8115234-.8291016,1.5449219-1.765625,2.2548828-2.671875.2480469-.3154297.4951172-.6308594.7460938-.9423828.6308594-.7861328,1.1357422-1.7050781,1.5410156-2.8085938.234375-.6396484.5058594-1.2607422.7773438-1.8818359.3457031-.7919922.703125-1.6123047.9863281-2.4707031.1923828-.5839844.4072266-1.1601562.6210938-1.7363281.7207031-1.9384766,1.4658203-3.9433594,1.4267578-6.2773438-.0039062-.2119141.0566406-.4658203.1201172-.7353516.0429688-.1816406.0859375-.3642578.1162109-.5478516.0732422-.4501953.1601562-.8994141.2460938-1.3476562.2011719-1.0517578.4101562-2.1386719.4589844-3.2451172.1542969-3.5117188.3144531-7.1416016-.4160156-10.7548828-.4824219-2.3847656-1.1259766-5.1279297-2.6582031-7.5097656-1.3154297-2.0458984-2.7480469-4.1923828-4.5332031-5.9814453-.2490234-.25-.53125-.5507812-.7421875-.8896484-.8349609-1.3447266-1.9228516-2.2851562-2.9746094-3.1943359l-.1689453-.1455078c-.4179688-.3613281-.8164062-.7568359-1.2148438-1.1513672-.3671875-.3632812-.734375-.7265625-1.1162109-1.0673828-.6230469-.5556641-1.1572266-.9453125-1.6816406-1.2265625-1.8994141-1.015625-4.1474609-2.2041016-6.4208984-3.3125-.6357422-.3085938-1.3857422-.4882812-2.2285156-.5341797-1.9287109-.1044922-3.8164062-.1269531-5.4091797-.1357422-1.3701172-.0078125-2.6181641.0263672-3.8417969.1035156-1.0673828.0673828-2.1347656.1494141-3.203125.2314453-1.5087891.1162109-3.0175781.2324219-4.5283203.3076172-1.0498047.0527344-1.9423828.3027344-2.8085938.7880859l-.2929688.1650391c-1.5507812.8740234-3.015625,1.6982422-4.6484375,1.7373047-.6435547.0146484-1.2353516.28125-1.8339844.5517578l-.1230469.0556641c-1.6210938.7324219-3.296875,1.4902344-4.9267578,2.3154297-.7871094.3984375-1.5380859.9091797-2.234375,1.5205078-1.0947266.9619141-2.1708984,1.9882812-3.2119141,2.9794922l-.7587891.7226562c-3.1611328,2.9970703-5.5283203,6.1367188-7.2363281,9.5966797-.2285156.4628906-.4042969.9492188-.5742188,1.4179688-.1787109.4921875-.3466797.9570312-.5634766,1.3710938-1.1279297,2.1611328-1.9160156,4.6464844-2.4101562,7.6005859l-.0957031.5605469c-.1728516.9960938-.3515625,2.0253906-.3359375,3.1308594.0185547,1.3173828.0068359,2.6357422-.0048828,3.9541016-.0136719,1.4990234-.0263672,2.9980469.0039062,4.4960938.0283203,1.3896484.2138672,2.5771484.5517578,3.5302734.7226562,2.0273438,1.5771484,4.0927734,2.6123047,6.3144531.9589844,2.0615234,2.03125,4.1464844,3.1845703,6.1972656,1.046875,1.859375,2.1650391,3.6972656,3.2460938,5.4746094l1.0673828,1.7597656c.1513672.2529297.4052734.609375.7480469.8681641.4101562.3105469.8271484.609375,1.2441406.90625.3837891.2744141.7675781.5488281,1.1445312.8330078.0175781.0136719.0351562.0273438.0527344.0419922-.5166016.2412109-1.0068359.4736328-1.4804688.7607422-.5205078.3164062-1.0302734.6601562-1.5390625,1.0039062-.7236328.4892578-1.4072266.9521484-2.1240234,1.3349609-1.7949219.9589844-3.2509766,2.3535156-4.3193359,3.4619141-1.4335938,1.4882812-2.6826172,3.1953125-3.890625,4.8466797l-.7148438.9736328c-1.2255859,1.65625-2.2480469,3.4892578-3.2373047,5.2617188-.7705078,1.3808594-1.5673828,2.8095703-2.4433594,4.1171875-.1230469.1845703-.1943359.3798828-.2666016.5800781-.2519531.6777344-.5117188,1.3525391-.7705078,2.0273438-.6035156,1.5703125-1.2275391,3.1933594-1.7470703,4.8447266-.1640625.5185547-.3330078,1.0341797-.5029297,1.5507812-.7402344,2.2519531-1.5048828,4.5810547-1.7607422,7.1015625-.1289062,1.2734375-.2646484,2.546875-.4267578,3.8417969-.3652344,2.9160156-.7431641,5.9306641-.6630859,8.9755859l.0185547.5498047c.0205078.5439453.0390625,1.0576172.0126953,1.5664062-.1357422,2.6523438.3242188,5.2128906.7695312,7.6894531l.1025391.5722656c.2685547,1.5058594.7158203,2.9667969,1.1494141,4.3798828.1884766.6162109.3779297,1.2333984.5751953,1.9404297.0380859.1523438.0859375.3427734.1933594.5292969,1.7890625,3.1435547,3.4853516,5.4921875,5.3378906,7.390625,1.4169922,1.4541016,3.0986328,2.6835938,5.4511719,3.984375,2.8291016,1.5634766,5.7167969,3.1162109,8.5849609,4.6162109,2.109375,1.1025391,4.6289062,2.3193359,7.3222656,2.9853516,2.0029297.4960938,4.1201172.9804688,6.2919922,1.4384766,1.0556641.2216797,1.9228516.3261719,2.7294922.328125.2460938.0009766.4921875.0009766.7382812.0009766,1.8017578,0,3.6044922-.0185547,5.40625-.0361328,1.2773438-.0126953,2.5537109-.0253906,3.8310547-.0322266l1.4853516-.0107422c1.7890625-.015625,3.640625-.0292969,5.4482422.0341797,5.8300781.2177734,11.3417969-1.6230469,16.3984375-5.4492188.1269531-.0957031.2558594-.1894531.3857422-.2832031.4023438-.2910156.8183594-.5917969,1.1982422-.984375,1.2285156-1.2685547,2.4472656-2.5527344,3.6660156-3.8369141.8408203-.8867188,1.6816406-1.7734375,2.5263672-2.6552734,1.8496094-1.9296875,3.4326172-4.1279297,4.703125-6.5341797,1.2763672-2.4140625,2.2246094-5.2666016,2.8183594-8.4804688.7880859-4.2714844,1.2695312-7.8876953,1.0605469-11.65625-.0078125-.1357422-.0166016-.2734375-.0107422-.4111328Zm-69.5380859,30.4853516c-1.8769531-1.0263672-3.4355469-1.8916016-4.9824219-2.9101562-1.2792969-.84375-2.3173828-1.6904297-3.1728516-2.5898438l-.4638672-.484375c-.9951172-1.0332031-1.9355469-2.0097656-2.6679688-3.2705078-.7685547-1.3212891-1.6269531-2.9335938-2.1669922-4.8779297-.1611328-.5820312-.3369141-1.15625-.5126953-1.7304688-.3808594-1.2451172-.7402344-2.4208984-.9658203-3.6816406-.6767578-3.7851562-.8525391-7.8486328-.5214844-12.0771484.3046875-3.9003906.7675781-8.4873047,1.8847656-12.9287109.4003906-1.5917969.9658203-3.1708984,1.5126953-4.6992188l.4541016-1.2792969c.4121094-1.1777344.8857422-2.3574219,1.34375-3.4980469l.2382812-.5986328c.1582031-.4003906.3212891-.8154297.5283203-1.0839844.796875-1.03125,1.4052734-2.2001953,1.9931641-3.3291016.2617188-.5048828.5244141-1.0097656.8037109-1.5009766,1.6298828-2.8691406,3.6162109-5.6933594,6.2509766-8.8876953,1.4414062-1.7490234,3.2246094-2.9404297,4.9375-3.96875l.8535156-.5185547c.7080078-.4326172,1.4404297-.8798828,2.1660156-1.2714844.4882812-.2626953.9931641-.4785156,1.5283203-.7080078.2832031-.1210938.5664062-.2421875.8476562-.3710938.1992188-.0908203.3945312-.1923828.6523438-.3251953l.4560547-.234375c.1787109-.0908203.3144531-.25.375-.4414062.0605469-.1923828.0419922-.3994141-.0517578-.5771484-.1396484-.2666016-.265625-.4941406-.3779297-.6992188-.2021484-.3701172-.3603516-.65625-.4912109-.9619141-.4169922-.9765625-1.0703125-1.6181641-1.9414062-1.9072266-.9335938-.3095703-1.7011719-1.0673828-2.4882812-2.4550781-.6064453-1.0693359-1.2197266-2.1347656-1.8330078-3.1992188-1.2597656-2.1865234-2.5625-4.4472656-3.78125-6.7138672-.640625-1.1914062-1.1933594-2.5058594-1.7265625-3.7773438-.2382812-.5654297-.4755859-1.1308594-.7226562-1.6914062-.0253906-.0566406-.0390625-.1220703-.0566406-.1855469-.0449219-.1650391-.1005859-.3701172-.2246094-.5712891-1.2646484-2.0439453-1.3212891-4.3779297-1.2646484-7.2158203.0341797-1.6904297.0498047-3.3818359.0410156-5.0722656-.0097656-1.8203125.3798828-3.5292969.7919922-5.3388672.1865234-.8203125.3730469-1.640625.5214844-2.4707031l.6132812-1.4228516c1.6689453-3.8925781,3.2460938-7.5683594,5.9980469-10.3457031.7773438-.7841797,1.5126953-1.6386719,2.2236328-2.4648438.5273438-.6113281,1.0537109-1.2236328,1.5986328-1.8095703,1.5273438-1.640625,3.4208984-2.9492188,5.7900391-4.0009766,1.8564453-.8242188,3.8652344-1.6298828,5.9677734-1.9414062.9746094-.1445312,1.8955078-.5185547,2.5917969-1.0527344,1.6787109-1.2861328,3.5390625-1.4892578,5.2978516-1.5175781,1.1943359-.0185547,2.4765625.015625,4.1396484.1113281l.1826172.0107422c1.0419922.0625,2.2207031.1298828,3.3779297-.6230469.1474609-.0957031.5068359-.0869141.7949219-.0898438l.1660156.0009766c1.7226562.0029297,3.4462891.0322266,5.1699219.0742188,1.0244141.0244141,1.7353516.1875,2.3740234.5449219.7509766.4199219,1.5224609.7900391,2.2685547,1.1474609.7119141.3417969,1.4472656.6943359,2.1484375,1.0830078,1.9414062,1.0791016,3.5820312,2.6044922,5.3183594,4.21875.4306641.4003906.8613281.8007812,1.2958984,1.1933594.1601562.1445312.3154297.3505859.4814453.5693359.0957031.1269531.1914062.2539062.2910156.3740234l.8164062.9970703c.6181641.7597656,1.2363281,1.5195312,1.8779297,2.2509766,2.3837891,2.7148438,3.8623047,5.7519531,4.3935547,9.0263672.5908203,3.6386719.7587891,7.3828125.4990234,11.1289062-.0771484,1.1142578-.296875,2.3457031-.6923828,3.8769531-.1816406.7050781-.3330078,1.421875-.484375,2.1386719-.3125,1.4775391-.6074219,2.8720703-1.1601562,4.1826172-.2783203.6601562-.4746094,1.3554688-.6650391,2.0273438-.1582031.5595703-.3085938,1.0888672-.5,1.5927734-.5732422,1.5097656-1.2158203,3.0195312-1.8378906,4.4794922l-.2919922.6855469c-.4013672.9443359-1.0527344,1.6640625-1.7421875,2.4248047l-.3798828.4228516c-.4804688.5429688-.9648438,1.0820312-1.4492188,1.6210938-1.1171875,1.2441406-2.2724609,2.53125-3.3740234,3.8505859-.8603516,1.03125-1.6503906,2.0917969-2.4873047,3.2148438-.3613281.4853516-.7255859.9746094-1.0986328,1.4648438-.0996094.1298828-.1533203.2900391-.1533203.4541016v1.8691406c0,.1230469.0361328.2636719.0947266.3720703.0566406.1396484.1621094.3984375.4140625.5791016l.3369141.2392578c.4716797.3388672.9599609.6894531,1.4912109.96875,1.3476562.7109375,2.6972656,1.71875,4.2490234,3.1728516.6806641.6367188,1.1591797,1.2011719,1.4355469,2.0419922.4755859,1.4423828,1.3779297,2.4228516,2.6113281,2.8359375.2558594.0859375.6054688.4052734.8896484.8125,1.140625,1.640625,1.8994141,3.1396484,2.3876953,4.7177734.3603516,1.1640625.7314453,2.3242188,1.1025391,3.484375.5791016,1.8105469,1.1777344,3.6835938,1.7216797,5.5390625.28125.9589844.4658203,2.0009766.6445312,3.0087891.0664062.3759766.1328125.7529297.2041016,1.1240234.0244141.1318359.0214844.2285156.0253906.2236328-.7099609,1.3691406-.4833984,2.7509766-.2832031,3.96875.0361328.2167969.0712891.4326172.1005859.6464844.296875,2.1376953.6513672,4.2958984.9951172,6.3828125.2226562,1.3583984.4462891,2.7158203.6552734,4.0771484.1103516.7158203.1279297,1.4658203.1376953,2.3017578l.0126953.8867188c.0185547,1.2050781.0390625,2.4521484-.0341797,3.6552734-.3847656,6.3564453-1.4619141,11.28125-3.390625,15.4990234-.6728516,1.46875-1.5996094,2.6923828-2.5810547,3.9882812-.2402344.3164062-.4804688.6337891-.7167969.9541016-.9707031,1.3193359-1.9443359,2.3769531-2.9765625,3.2324219-1.0888672.9023438-2.0654297,1.9912109-3.0097656,3.0449219l-.5625.625c-1.2509766,1.3818359-2.7392578,2.4404297-4.1601562,3.3789062-2.1621094,1.4277344-4.6240234,2.1738281-6.7607422,2.7597656-2.1171875.5800781-4.2480469.5654297-6.4912109.5585938-.6923828-.0039062-1.3808594-.0078125-2.0703125.0068359-1.8798828.0410156-3.8007812.0175781-5.6582031-.0058594-.96875-.0117188-1.9384766-.0234375-2.9072266-.0263672-.6884766.0029297-1.3818359.0136719-2.0732422.0292969-1.3984375.03125-2.8466797.0673828-4.2363281-.0693359-1.9287109-.1904297-4.0146484-.5888672-6.3759766-1.21875-3.1689453-.8466797-5.9941406-2.0302734-8.6357422-3.6181641-.6962891-.4189453-1.4199219-.7490234-2.1201172-1.0693359-.5351562-.2441406-1.0722656-.4882812-1.5927734-.7734375Z" stroke-width="0"/>
      <path d="m31.3594713,123.2315581c.3369141,1.6894531.71875,3.6054688,1.5615234,5.1738281,1.1806641,2.1933594,2.4501953,3.8125,3.8808594,4.9492188.4951172.3935547,1.0917969.8330078,1.7646484,1.1074219.6005859.2451172,1.2128906.4501953,1.8251953.6542969.5390625.1796875,1.078125.359375,1.6083984.5703125.5029297.1992188,1.0117188.2988281,1.5244141.2988281.8037109,0,1.6181641-.2451172,2.4345703-.7333984.9384766-.5625,1.8378906-1.1367188,2.5361328-1.9765625l.7421875-.8847656c1.4599609-1.7324219,2.9697266-3.5244141,4.0957031-5.7216797.4726562-.9257812.9277344-1.8378906,1.2910156-2.8251953.1953125-.53125.4023438-1.0605469.6083984-1.5898438.6240234-1.5976562,1.2685547-3.2490234,1.6220703-4.9892578.0966797-.4775391.1962891-.9541016.296875-1.4316406.6367188-3.0322266,1.2958984-6.1679688,1.0625-9.4599609-.0146484-.2080078.0058594-.4189453.0234375-.6298828.0234375-.2695312.0429688-.5390625.0292969-.8056641-.0234375-.4433594-.0341797-.8916016-.0449219-1.3408203-.0283203-1.1865234-.0576172-2.4130859-.3203125-3.5839844-.6191406-2.7646484-1.6201172-5.40625-2.9746094-7.8515625-1.5761719-2.8447266-3.9238281-4.5517578-6.9785156-5.0722656-1.4189453-.2431641-2.8369141-.0966797-3.9755859.0214844-1.1318359.1171875-2.2119141.5576172-3.1191406.9726562-.5693359.2607422-1.0205078.7412109-1.4189453,1.1640625l-.2353516.2480469c-.2148438.2207031-.3808594.4619141-.5419922.6943359-.0966797.140625-.1923828.2822266-.2998047.4101562-3.4980469,4.1699219-6.0175781,9.234375-7.4902344,15.0527344-.1953125.7744141-.2275391,1.5996094-.2421875,2.3134766-.0224609,1.1494141-.0175781,2.2988281-.0136719,3.4492188l.0039062,1.3867188c-.1074219,4.0273438.1289062,7.3417969.7441406,10.4296875Zm2.515625-8.0517578c-.0087891-.4707031-.0175781-.9414062-.0175781-1.4111328,0-.0986328-.0195312-.1933594-.0537109-.2792969l.0039062-1.3496094c.0058594-1.3125.0126953-2.625-.0166016-3.9365234-.0175781-.7978516.0986328-1.6044922.3759766-2.6142578.5859375-2.1269531,1.3652344-4.5771484,2.7158203-6.6259766.2675781-.4082031.5195312-.875.8154297-1.5136719,1.1152344-2.4101562,2.7763672-4.4042969,5.2265625-6.2744141.0566406-.0439453.1123047-.0908203.1679688-.1376953.0498047-.0419922.125-.1044922.1308594-.1113281,2.2353516-.7519531,4.6230469-1.1982422,6.9550781.6201172,1.1113281.8671875,1.9931641,2.0332031,2.6943359,3.5644531,1.4404297,3.1435547,2.1621094,6.1035156,2.2724609,9.3134766.140625,4.0507812-.3183594,8.0214844-1.4033203,12.1386719-.6289062,2.3886719-1.5419922,5.4746094-3.0244141,8.1601562-.2929688.5302734-.6015625,1.0244141-.9160156,1.4677734-.3369141.4746094-.6835938.9394531-1.03125,1.4042969-.6259766.8398438-1.2734375,1.7080078-1.859375,2.6289062-.6748047,1.0625-1.5898438,1.6542969-2.6298828,2.2646484-.2167969.1279297-.5654297.1796875-.8613281.1347656-4.1767578-.6699219-6.9980469-3.1904297-8.3837891-7.4912109-.6474609-2.0097656-1.3808594-4.2871094-1.2011719-6.7216797.0791016-1.0810547.0595703-2.1738281.0400391-3.2304688Z" stroke-width="0"/>
      <path d="m41.0440416,33.8663237c-.7177734,3.9941406-.6767578,8.0791016-.6376953,12.0302734l.0126953,1.3271484c.0029297.3642578.0615234.7011719.1181641,1.0263672.0283203.1611328.0566406.3222656.0751953.4833984.2099609,1.7695312.8193359,3.3486328,1.4072266,4.875.1201172.3105469.2402344.6210938.3554688.9316406.8134766,2.1845703,2.1083984,3.5253906,3.8486328,3.984375.4785156.1259766.9492188.1884766,1.4101562.1884766.9267578,0,1.8144531-.2539062,2.6542969-.7587891,2.0576172-1.2373047,3.7373047-3.0585938,5.3613281-4.8203125l.3427734-.3710938c.1318359-.1435547.2119141-.2998047.2714844-.4140625l.0507812-.0947266c2.3115234-3.7792969,3.9355469-8.3242188,4.9628906-13.8925781.1503906-.8105469.1875-1.6152344.21875-2.5087891.03125-.9560547.0292969-1.9130859.0273438-2.8701172l-.0009766-.5322266c0-1.9394531-.2734375-3.6923828-.8115234-5.2109375-.9462891-2.6650391-2.5615234-4.8818359-4.8007812-6.5898438-1.1337891-.8632812-2.25-1.2070312-3.3955078-1.0605469-.5576172.0732422-1.0986328.1328125-1.5693359.0517578-1.5322266-.2646484-2.9462891.2744141-4.3378906,1.6396484-1.2841797,1.2597656-2.4902344,2.59375-3.5849609,3.9658203-.8496094,1.0625-1.7626953,2.3994141-2.1015625,4.2529297-.0439453.2412109.0332031.4882812.2060547.6630859l.6943359.7001953c-.0673828.2412109-.1347656.4755859-.2011719.7070312-.2246094.7822266-.4365234,1.5205078-.5761719,2.296875Zm17.3134766-1.2832031c-.015625.4980469-.0068359.9990234.0019531,1.4990234.0136719.7148438.0263672,1.390625-.0361328,2.0546875-.4414062,4.734375-1.8964844,9.2714844-4.3251953,13.4853516-.8085938,1.40625-1.7099609,2.5117188-2.7539062,3.3798828-.4228516.3505859-.8330078.7011719-1.1953125,1.1367188-.640625.7685547-1.4716797,1.0263672-2.4355469,1.3242188l-.265625.0820312c-.3876953.1259766-.6914062-.0996094-.8740234-.3095703-.3964844-.4589844-.8896484-1.0302734-1.1484375-1.6464844-1.1132812-2.65625-2.1181641-5.5693359-1.9277344-8.8701172.0458984-.7958984.0429688-1.5976562.0390625-2.3730469-.0019531-.5058594-.0039062-1.0117188.0078125-1.515625.0986328-4.2744141.8076172-7.9101562,2.1689453-11.1132812.4287109-1.0078125,1.0068359-2.0166016,1.7177734-2.9990234.1337891-.1855469.4121094-.3320312.7646484-.5166016.2236328-.1171875.4609375-.2421875.703125-.3955078.3310547-.2089844.4453125-.6376953.2626953-.984375l-.4423828-.8359375c.3193359-.6210938.8330078-.9716797,1.6621094-1.1503906.5185547-.1132812,1.0644531-.1416016,1.6669922-.1728516,1.2548828-.0664062,2.2402344.3623047,3.2363281,1.3886719,2.2490234,2.3203125,3.2861328,5.1113281,3.1728516,8.5322266Z" stroke-width="0"/>
    </g>
  </g>
</svg>