<?xml version="1.0" encoding="UTF-8"?>
<svg id="Layer_2" data-name="Layer 2" xmlns="http://www.w3.org/2000/svg" viewBox="0 0 91.9108522 161.2940015">
  <g id="Layer_1-2" data-name="Layer 1">
    <g>
      <g>
        <path d="m4.2692887,4.0352124l1.9277344-.1875c1.4462891-.1425781,2.9042969-.2871094,4.3623047-.4111328l1.3378906-.1142578c2.6230469-.2255859,5.3349609-.4580078,8.0009766-.6181641,1.0820312-.0673828,2.2050781-.0351562,3.2910156-.0019531.4160156.0117188.8320312.0234375,1.2470703.0302734,1.2138672.0205078,2.2910156.2138672,3.3203125.6005859,1.6435547.6162109,3.3427734,1.2539062,5.0761719,1.6484375,3.4033203.7753906,6.7910156,1.4414062,10.8300781,2.2041016,3.9501953.7470703,7.9707031,2.0546875,11.9511719,3.8876953.8017578.3691406,1.4619141.7539062,2.015625,1.1757812,1.1230469.8544922,2.2480469,1.7685547,3.3349609,2.6523438l1.3056641,1.0576172c.0927734.0742188.1816406.1582031.2714844.2431641.2529297.2363281.5400391.5058594.9189453.65625,1.4472656.5771484,2.5976562,1.8916016,3.7099609,3.1621094l.3564453.40625c.4453125.5029297.8984375.9980469,1.3505859,1.4931641,1.3300781,1.4541016,2.7050781,2.9580078,3.84375,4.6650391.9326172,1.3994141,1.9541016,2.7333984,2.9423828,4.0234375l.7988281,1.0458984c.59375.78125,1.1982422,1.5507812,1.8027344,2.3212891.5410156.6884766,1.0820312,1.3779297,1.6152344,2.0751953l.4570312.59375c1.1591797,1.5019531,2.2548828,2.9199219,2.9921875,4.7255859,1.1416016,2.796875,2.0556641,5.3769531,2.7929688,7.8896484,1.0830078,3.6943359,1.8652344,7.7597656,2.4619141,12.7949219.4257812,3.5878906.4238281,7.28125.4208984,10.8525391v.6210938c0,.4394531.0029297.8798828.0068359,1.3203125.0126953,1.4570312.0244141,2.9628906-.1132812,4.4033203-.3525391,3.6884766-.8261719,7.6259766-1.8974609,11.4306641l-.4228516,1.5214844c-.2792969,1.015625-.5585938,2.03125-.8623047,3.0361328-1.4580078,4.8300781-2.9306641,9.6552734-4.4091797,14.4765625-.265625.8662109-.5419922,1.7265625-.8183594,2.5878906-.375,1.1699219-.75,2.3398438-1.0986328,3.5214844-.9736328,3.3017578-2.4619141,6.2451172-4.4228516,8.7490234-.4453125.5693359-.8808594,1.1523438-1.3154297,1.734375-.5.6699219-1.0009766,1.3408203-1.5185547,1.9902344-1.3085938,1.640625-2.7236328,3.3710938-4.3261719,5.2900391-2.0888672,2.5-4.7011719,4.2792969-7.2285156,6.0009766l-.1523438.1035156c-5.2138672,3.5507812-9.5410156,6.203125-13.6162109,8.3457031l-.4404297.2324219c-.6191406.328125-1.2587891.6660156-1.890625.9462891-2.1826172.9667969-4.5087891,1.5986328-6.7587891,2.2089844l-.8408203.2285156c-.4296875.1171875-.8662109.2001953-1.3027344.2832031-.4833984.0927734-.9677734.1865234-1.4433594.3183594-3.5390625.9736328-7.0126953,1.6962891-10.3261719,2.1455078-4.4433594.6044922-8.53125,1.4238281-12.4960938,2.5058594-1.25.3408203-2.4335938.7998047-3.8046875,1.3300781-.6455078.25-1.3242188.5136719-2.0566406.78125-.2451172.0888672-.4257812.2998047-.4775391.5566406-.0517578.2558594.0341797.5205078.2255859.6982422.1982422.1826172.3486328.3417969.4658203.4667969.2470703.2617188.5214844.5517578.9150391.5517578.0712891,0,.1464844-.0087891.2265625-.0302734.921875-.2451172,1.8369141-.546875,2.7226562-.8378906l.40625-.1328125c3.3955078-1.1113281,6.4628906-2.0634766,9.6171875-2.4667969,5.1103516-.6533203,10.4433594-1.6679688,15.8515625-3.0146484l1.3515625-.3320312c2.1445312-.5214844,4.3613281-1.0615234,6.4970703-1.8574219,2.4433594-.9111328,4.9755859-2.1181641,7.5244141-3.5849609,2.4550781-1.4130859,4.8779297-3.0068359,7.2207031-4.5478516.6679688-.4384766,1.3349609-.8779297,2.0039062-1.3134766l.4433594-.2880859c1.5419922-1.0029297,3.1357422-2.0400391,4.6416016-3.2119141l.2089844-.1630859c1.5703125-1.2207031,3.1923828-2.4833984,4.5576172-4.0761719,2.0947266-2.4443359,4.1289062-5.0390625,6.0957031-7.5478516.7949219-1.0126953,1.5888672-2.0253906,2.3896484-3.0322266.1884766-.2373047.4023438-.5068359.5839844-.8232422,1.6835938-2.9257812,2.9648438-6.0263672,3.8085938-9.2177734.5009766-1.9003906,1.0537109-3.7089844,1.7236328-5.8759766.3994141-1.2949219.8115234-2.5830078,1.2236328-3.8710938.4501953-1.4072266.9003906-2.8144531,1.3339844-4.2285156.4589844-1.4960938.8935547-3.0029297,1.328125-4.5097656.2246094-.7783203.4492188-1.5556641.6767578-2.3320312.1210938-.4121094.2529297-.8212891.3837891-1.2304688.2773438-.8642578.5644531-1.7568359.7548828-2.6835938.8154297-3.9580078,1.3261719-7.5664062,1.5625-11.0332031.2216797-3.2548828.2519531-6.828125.0947266-10.9267578-.0273438-.7275391-.0761719-1.453125-.1259766-2.1796875-.0429688-.6376953-.0859375-1.2763672-.1142578-1.9150391-.1503906-3.4248047-.6162109-6.8330078-1.3828125-10.1279297-.1923828-.8251953-.4306641-1.6386719-.6611328-2.4248047-.2490234-.8476562-.5068359-1.7246094-.6972656-2.59375-.6083984-2.7841797-1.53125-5.5380859-2.7441406-8.1875-.3935547-.8583984-.9335938-1.9638672-1.6269531-2.9121094-1.5097656-2.0625-3.0429688-4.0996094-4.5771484-6.1367188-.8857422-1.1767578-1.7705078-2.3525391-2.6513672-3.5341797-.3525391-.4726562-.6933594-.9589844-1.0332031-1.4453125-.5117188-.7333984-1.0419922-1.4912109-1.6132812-2.1982422-1.3798828-1.7089844-2.5449219-3.0419922-3.6640625-4.1943359-.4882812-.5019531-.9521484-1.0351562-1.4160156-1.5683594-.9853516-1.1298828-2.0029297-2.2988281-3.2539062-3.1914062-2.0058594-1.4316406-3.7988281-2.8320312-5.4794922-4.2792969-2.7402344-2.359375-5.9941406-3.5751953-8.6083984-4.5517578-3.6962891-1.3818359-7.4775391-2.1289062-10.6894531-2.6767578-5.1279297-.875-9.3037109-1.9160156-13.1416016-3.2763672-.7880859-.2792969-1.6865234-.453125-2.7490234-.5332031-1.6953125-.1259766-3.3554688-.2304688-5.0322266-.1875-3.2646484.0966797-6.5654297.5019531-9.4033203.875-2.25.2949219-4.4970703.6259766-6.7421875.9599609-.1796875.0273438-.6572266.0976562-.9130859.5537109-.1835938.3251953-.1787109.7236328.0146484,1.1816406.1279297.3017578.4423828.4990234.7626953.4550781Z" stroke-width="0"/>
        <path d="m23.2165544,45.3340406c.1367188,1.640625.1328125,3.3417969.1289062,4.9873047-.0029297,1.359375-.0058594,2.7646484.0683594,4.1494141.1738281,3.2255859.421875,6.4951172.6621094,9.6572266.1152344,1.5214844.2304688,3.0429688.3388672,4.5654297l.2431641,3.3554688c.2246094,3.0761719.4580078,6.2568359.6259766,9.3867188.1533203,2.8388672.25,5.734375.34375,8.5341797.0419922,1.2529297.0839844,2.5058594.1308594,3.7587891l.1015625,2.7451172c.0878906,2.3847656.1748047,4.7695312.2763672,7.1533203l.0146484.3554688c.1054688,2.4980469.2148438,5.0810547.3808594,7.6210938.1767578,2.7148438.3701172,5.4277344.5634766,8.140625.1601562,2.2607422.3212891,4.5224609.4736328,6.7851562l.0234375.4208984c.0380859.7587891.0820312,1.6201172.4902344,2.4677734.0957031.1982422.2724609.34375.484375.4003906.5703125.1494141,1.1103516.2255859,1.6220703.2255859,1.1435547,0,2.1494141-.3759766,3.0458984-1.1318359,2.0595703-1.7373047,4.3496094-3.3095703,6.8056641-4.671875,3.0195312-1.6757812,5.4423828-3.8496094,7.4091797-6.6435547,1.2617188-1.7919922,2.4199219-3.2412109,3.5410156-4.4287109,1.9443359-2.0566406,3.6279297-4.5527344,5.1455078-7.6289062,1.4287109-2.8955078,2.4365234-6.2070312,3.0791016-10.1240234.375-2.2871094.4736328-4.7832031.3017578-7.6318359l-.1269531-2.1464844c-.0986328-1.6894531-.1972656-3.3779297-.3125-5.0664062-.1826172-2.7050781-.4169922-5.9052734-.765625-9.1259766-.3261719-3.0107422-.9042969-5.7246094-1.7666016-8.2988281-.7763672-2.3173828-1.6806641-4.5263672-2.6875-6.5654297-.5488281-1.1103516-1.2861328-2.0644531-2-2.9863281-.2119141-.2744141-.4238281-.5478516-.6298828-.8242188-.6484375-.8730469-1.3095703-1.7324219-1.9707031-2.5927734-1.1298828-1.46875-2.2978516-2.9873047-3.375-4.5419922-1.3583984-1.9609375-2.9980469-3.7402344-5.0146484-5.4394531-2.2099609-1.8652344-4.3925781-3.2636719-6.6738281-4.2773438-3.2871094-1.4599609-6.3564453-1.9892578-9.3759766-1.6289062-.3300781.0400391-.6308594.1367188-.921875.2314453-.1230469.0390625-.25.0800781-.3828125.1171875-.3085938.0869141-.5283203.3603516-.546875.6796875-.0097656.171875-.0244141.3359375-.0380859.4941406-.03125.3662109-.0615234.7119141-.0380859,1.0791016.0800781,1.2568359.1064453,2.5449219.1318359,3.7910156.03125,1.5205078.0644531,3.0927734.1943359,4.6523438Zm33.0537109,49.9931641c-.9082031,5.1337891-2.4814453,9.3125-4.8105469,12.7744141-.9072266,1.3496094-1.8417969,2.5771484-2.7763672,3.6513672l-.7246094.8320312c-1.7148438,1.9677734-3.4882812,4.0019531-5.1201172,6.1708984-.4951172.6591797-1.2412109,1.1582031-1.9628906,1.6416016l-.3242188.2177734c-2.2431641,1.5205078-4.5039062,3.0019531-6.765625,4.4824219l-1.0966797.7177734c-.1650391.1083984-.3408203.1962891-.5146484.2802734l-.4707031-.4511719c-.1425781-.1367188-.3291016-.2089844-.5185547-.2089844-.1025391,0-.2060547.0214844-.3037109.0644531l-.3369141.1494141c-.0400391-.1552734-.0693359-.2978516-.0791016-.4306641-.1123047-1.6416016-.2128906-3.2841797-.3144531-4.9267578-.0859375-1.40625-.1728516-2.8134766-.2666016-4.21875-.0419922-.6269531-.1015625-1.2519531-.1621094-1.8769531-.0634766-.6552734-.1269531-1.3105469-.1669922-1.9677734-.0488281-.7675781-.1005859-1.5351562-.1523438-2.3017578-.1972656-2.9355469-.4023438-5.9716797-.3759766-8.96875.0214844-2.5068359-.1201172-5.0439453-.2568359-7.4990234-.0498047-.8955078-.0996094-1.7910156-.1425781-2.6865234-.0546875-1.1474609-.1259766-2.2949219-.1972656-3.4423828-.0585938-.9414062-.1181641-1.8828125-.1669922-2.8242188-.0517578-.9804688-.0947266-1.9619141-.1386719-2.9433594-.0703125-1.5966797-.1416016-3.1933594-.2460938-4.7871094-.0634766-.9667969-.1689453-1.9287109-.2744141-2.890625-.0878906-.8007812-.1757812-1.6015625-.2382812-2.40625-.1298828-1.6591797-.2431641-3.3203125-.3554688-4.9814453-.1005859-1.4707031-.2001953-2.9423828-.3115234-4.4121094-.1044922-1.3759766-.234375-2.7490234-.3642578-4.1230469-.2441406-2.578125-.4970703-5.2441406-.5615234-7.8769531-.0449219-1.8037109-.1474609-3.6298828-.2460938-5.3964844l-.0888672-1.6025391c-.0458984-.8486328-.0966797-1.6962891-.1484375-2.5439453-.0683594-1.1425781-.1376953-2.2841797-.1923828-3.4287109-.0068359-.1484375.0292969-.3398438.0742188-.5605469,1.1669922-.2363281,2.3535156-.1757812,3.5332031.1777344,3.9970703,1.1933594,7.2529297,2.8720703,9.953125,5.1308594.9746094.8144531,1.8525391,1.7089844,2.6103516,2.6591797,2.9228516,3.6630859,5.7285156,7.2675781,8.3378906,10.7109375.6376953.8408203,1.2519531,1.8925781,1.8789062,3.2167969.7070312,1.4941406,1.5136719,3.2402344,2.1396484,5.0634766,1.0693359,3.1191406,1.7578125,6.6630859,2.1044922,10.8339844.4140625,4.9863281.7304688,10.0976562.9658203,15.6259766.0673828,1.5800781-.0761719,3.3818359-.4248047,5.3554688Z" stroke-width="0"/>
      </g>
      <path d="m.3181169,53.5303296c.0439453.8642578.0878906,1.7275391.1201172,2.5917969l.0478516,1.3056641c.1376953,3.6748047.2802734,7.4736328.2724609,11.2089844l-.0107422,3.71875c-.0126953,3.8398438-.0253906,7.6796875-.0019531,11.5185547.0107422,1.7851562.0820312,3.5917969.1513672,5.3388672.0292969.7246094.0576172,1.4492188.0820312,2.1738281l.0791016,2.3486328c.0976562,2.9228516.1953125,5.8457031.3085938,8.7685547.0234375.6220703.0712891,1.2441406.1191406,1.8662109.0703125.9248047.1376953,1.7978516.1308594,2.6816406-.0361328,4.6894531.1279297,9.5068359.4882812,14.3173828.0332031.4453125.0820312.8896484.1298828,1.3339844.0839844.7666016.1630859,1.4912109.1650391,2.2167969.0058594,2.7558594.2958984,5.5058594.5761719,8.1650391.2001953,1.9072266.4082031,3.8798828.5068359,5.8232422.0595703,1.1826172.1982422,2.3662109.3330078,3.5107422.0878906.7548828.1767578,1.5097656.2431641,2.2675781.1425781,1.6152344.2753906,3.2314453.4082031,4.8476562.1513672,1.8339844.3017578,3.6689453.4667969,5.5009766.0634766.7041016.2539062,1.3642578.4375,2.0029297.1943359.6708984.7324219,1.0761719,1.4052734,1.0761719.0742188,0,.1503906-.0048828.2285156-.015625.7412109-.0996094,1.2441406-.7216797,1.2509766-1.5507812.0029297-.4238281-.0400391-.8759766-.1289062-1.34375-.4570312-2.4072266-.7246094-4.4179688-.8447266-6.328125-.1337891-2.1367188-.3388672-4.2958984-.5380859-6.3847656-.1835938-1.9257812-.3730469-3.9169922-.5048828-5.8759766-.1054688-1.5644531-.2539062-3.1220703-.4023438-4.6806641-.2207031-2.3154297-.4492188-4.7089844-.5205078-7.0742188-.0625-2.0615234-.2128906-4.1464844-.3574219-6.1621094-.1396484-1.9296875-.2832031-3.9248047-.3476562-5.8837891-.0566406-1.6914062-.0839844-3.3847656-.1123047-5.0771484-.0498047-3.0019531-.1005859-6.1074219-.3134766-9.1640625-.125-1.7910156-.1894531-3.6230469-.2509766-5.3945312-.0683594-1.9492188-.1386719-3.9648438-.2900391-5.9511719-.1298828-1.6943359-.0820312-3.4580078-.0361328-5.1630859.0224609-.8271484.0449219-1.6542969.0488281-2.4785156l.0195312-3.1943359c.0380859-5.7822266.078125-11.7597656-.2490234-17.6376953-.1376953-2.46875-.2080078-4.9863281-.2763672-7.4208984-.0761719-2.7119141-.1542969-5.515625-.3251953-8.2783203-.1845703-2.9716797-.1601562-6.0263672-.1367188-8.9804688.0107422-1.3476562.0214844-2.6953125.0136719-4.0410156-.0039062-.5419922-.0117188-1.0839844-.0205078-1.6269531-.0175781-1.1259766-.0361328-2.2910156-.0048828-3.4267578.0341797-1.2714844.0917969-2.5410156.1503906-3.8115234.0683594-1.4677734.1357422-2.9355469.1660156-4.4052734.0576172-2.78125.0400391-5.6064453.0224609-8.3378906l-.0029297-.3896484.0058594-.1611328c.0224609-.4296875.0673828-1.3251953-.953125-1.8417969-.2226562-.1123047-.4892578-.1083984-.7080078.015625-.2177734.1230469-.3603516.3476562-.3789062.5976562-.1152344,1.5546875-.1591797,3.0917969-.2021484,4.5791016-.0527344,1.8642578-.1035156,3.6259766-.2832031,5.4072266-.1689453,1.6738281-.2197266,3.3798828-.2685547,5.0292969-.0224609.7490234-.0439453,1.4980469-.0771484,2.2470703l-.0341797.6230469c-.0205078.3632812-.0419922.7265625-.0478516,1.0898438-.1132812,6.9472656-.0839844,14.3398438.09375,23.96875.0234375,1.3144531.0908203,2.6269531.1572266,3.9404297Z" stroke-width="0"/>
    </g>
  </g>
</svg>