<?xml version="1.0" encoding="UTF-8"?>
<svg id="Layer_2" data-name="Layer 2" xmlns="http://www.w3.org/2000/svg" viewBox="0 0 181.7416903 258.3575908">
  <g id="Layer_1-2" data-name="Layer 1">
    <g>
      <path d="m180.7652144,23.9672794c-.1708984-2.5727539-.5029297-5.1356201-.7958984-7.6990967-.1259766-1.1091309-.3291016-2.2788086-1.2910156-2.9613037-1.4306641-1.0146484-2.8808594-2.0565186-4.7314453-2.2271729-1.6875-.1555176-3.3720703-.3479004-5.0576172-.5300293-4.6894531-.506958-9.203125-1.8084717-13.7324219-3.0397949-7.6113281-2.0688477-15.2177734-4.1540527-22.8447266-6.1638184-2.1103516-.5559082-4.2714844-.9681396-6.4345703-1.2524414-1.1367188-.1496582-2.4472656-.1599121-3.4658203.2717285-1.234375.5230713-2.3740234,1.0897217-3.7519531,1.237915-.6689453.0718994-1.3417969.6907959-1.8896484,1.1956787-1.6972656,1.5634766-2.9345703,3.4768066-4.0791016,5.47229-3.1582031,5.5084229-5.2929688,11.4517822-7.5566406,17.3494873-3.2724609,8.5266113-5.7636719,17.291748-8.2578125,26.0631104-1.3027344,4.5838623-2.8955078,9.0848389-4.2451172,13.6561279-2.3203125,7.8568115-4.2363281,15.8103027-5.2138672,23.9602051-.6152344,5.137207-.5410156,10.276123.6796875,15.3161621.5742188,2.3723145,1.4970703,4.6740723,2.4189453,6.9443359.7314453,1.8024902,2.0556641,3.2219238,3.5791016,4.4299316,2.109375,1.6728516,4.3603516,3.1195068,6.8876953,4.0799561,2.1269531.8079834,3.9443359,2.0975342,5.6289062,3.5802002.3730469.3278809.6357422.8596191.7861328,1.3479004,1,3.2492676,1.1787109,6.6132812,1.3251953,9.9802246.0175781.40625-.015625.6893311-.4980469.8238525-2.3261719.6481934-4.0205078,2.1531982-4.9589844,4.3024902-.9492188,2.1716309-1.5839844,4.4793701-2.3681641,6.7237549-.0751953.2165527-.1787109.4848633-.3535156.5964355-3.1875,2.0349121-6.3662109,4.0848389-9.5966797,6.050415-1.2333984.7503662-2.5693359,1.3436279-3.8945312,1.9295654-7.9726562,3.5273438-15.9228516,7.107666-24.1787109,9.9584961-3.9501953,1.3642578-7.4853516,3.581665-11.0087891,5.7819824-7.765625,4.8481445-14.7519531,10.6849365-21.4794922,16.8652344-4.5048828,4.1386719-9.0595703,8.2288818-13.7275391,12.1809082-2.2978516,1.9450684-4.9501953,3.4641113-7.3544922,5.2915039-2.5029297,1.9023438-4.9101562,3.9312744-7.3339844,5.9350586-.5234375.4333496-1.0048828.9510498-1.3945312,1.5078125-.6689453.9572754-.7988281,2.0136719-.15625,3.0473633.6445312,1.0371094,1.6650391,1.3967285,2.8066406,1.1922607.8085938-.1448975,1.6201172-.4356689,2.3535156-.8111572,4.4140625-2.2602539,8.5195312-4.9594727,12.1630859-8.3669434,5.6015625-5.237793,11.0068359-10.6734619,16.5029297-16.015625,6.8671875-6.6743164,14.0371094-13.0280762,22.1591797-18.2376709,5.8769531-3.7696533,11.8945312-7.204834,18.4628906-9.6011963,1.5634766-.5705566,3.2158203-.8928223,4.8232422-1.3466797,5.7177734-1.6147461,11.2724609-3.6378174,16.3085938-6.8564453,2.0996094-1.3422852,3.9648438-2.994873,5.421875-5.0471191,1.5742188-2.2172852,3.0683594-4.4921875,4.6875-6.675293.7988281-1.0759277,1.7587891-2.0435791,2.7236328-2.979248.5625-.5449219,1.1591797-.2961426,1.2519531.4863281.3964844,3.3419189.9355469,6.6804199,1.0810547,10.0349121.1591797,3.699707-1.1083984,7.1539307-2.5820312,10.5057373-.0791016.1794434-.2734375.335083-.4511719.4390869-.7314453.4289551-1.5322266.758667-2.2070312,1.2597656-3.2548828,2.4163818-6.4111328,4.9702148-9.7294922,7.2944336-3.2167969,2.2537842-6.5927734,4.2819824-9.8896484,6.423584-.5527344.3596191-1.0888672.7595215-1.578125,1.2009277-.453125.4085693-.8417969,1.0126953-.5087891,1.5632324.2685547.4432373.8779297.9312744,1.3515625.9467773.9765625.0318604,2.0283203-.0693359,2.9355469-.4150391,2.7871094-1.0620117,5.4326172-2.4414062,7.7988281-4.2709961,3.6533203-2.8238525,7.2539062-5.7148438,10.8789062-8.5744629.1269531-.1004639.2792969-.1699219.5537109-.3337402-.0292969.4069824-.0449219.6866455-.0703125.965332-.5244141,5.7944336-1.7958984,11.4541016-3.1416016,17.0957031-1.6757812,7.0266113-3.4179688,14.0373535-5.1367188,21.0540771-.5068359,2.071167-.8886719,4.1864014-1.5791016,6.1954346-.7802734,2.2702637-1.8535156,4.4385986-2.7705078,6.6633301-.1640625.3963623-.1835938.8515625-.2744141,1.2785645-.0449219.2145996-.0527344.4555664-.1601562.6359863-1.0234375,1.7263184-2.0068359,3.4807129-3.1191406,5.1489258-.9345703,1.4025879-2.4072266,2.0010986-4.0478516,2.0106201-1.7666016.010376-3.5332031-.1585693-5.3007812-.196167-2.4287109-.0515137-4.8681641-.1940918-7.2871094-.0444336-4.0195312.2485352-7.7070312,1.7407227-11.1982422,3.6324463-3.1933594,1.7303467-6.1972656,3.8148193-9.4072266,5.5112305-4.7949219,2.5339355-9.2910156,5.5076904-13.7363281,8.5928955-3.8945312,2.7036133-7.8935547,5.2580566-11.8388672,7.8884277-.4072266.2709961-.7988281.5794678-1.1425781.925293-.7578125.7626953-.6181641,1.6481934.3251953,2.1878662.8378906.4798584,1.7324219.4281006,2.5615234.0584717,1.3447266-.598999,2.7128906-1.1877441,3.953125-1.96875,3.1591797-1.989502,6.2548828-4.0791016,9.3701172-6.1364746,1.640625-1.083252,3.2646484-2.1907959,4.9091797-3.2687988.3232422-.2121582.6875-.4306641,1.0585938-.4915771,3.3857422-.5562744,6.3828125-2.0905762,9.3466797-3.6993408.5878906-.3195801.8730469-.2990723,1.2763672.3120117,1.1328125,1.7156982,2.7167969,3.0460205,4.7128906,3.4462891,5.8525391,1.173584,11.2421875,3.677002,16.8417969,5.5773926,7.8681641,2.6708984,15.7705078,5.2481689,24.0839844,6.2060547,6.5263672.7519531,13.0722656,1.1049805,19.640625.9528809,1.6279297-.0375977,3.2285156-.3172607,4.7333984-.9985352,3.1455078-1.4243164,4.6621094-4.1889648,4.1279297-7.6005859-.4033203-2.5751953-1.6611328-4.7233887-3.5126953-6.5026855-3.9179688-3.7648926-8.5800781-6.222168-13.8359375-7.5046387-1.9052734-.4650879-3.5380859-1.293457-4.9365234-2.626709-.2177734-.2070312-.3837891-.4974365-.4951172-.7802734-.5175781-1.3186035-1.0195312-2.644043-1.5029297-3.9755859-.1806641-.4995117-.4033203-1.0180664-.4238281-1.5354004-.046875-1.1499023-.0742188-2.3154297.0576172-3.4553223.5888672-5.0802002,1.9414062-9.9754639,3.7119141-14.7624512.2509766-.6784668.4785156-1.3656006.6708984-1.916626,3.2080078,1.8912354,6.3408203,3.7390137,9.5214844,5.6140137-.109375.1322021-.1669922.2459717-.2597656.3074951-3.296875,2.1987305-5.0175781,5.4428711-6.046875,9.1381836-.1845703.6608887-.3408203,1.336792-.4248047,2.0163574-.1533203,1.2429199.3203125,2.1966553,1.2216797,2.6164551.8974609.4182129,2.0888672.262207,2.7890625-.7087402,1.1298828-1.5634766,2.1894531-3.2086182,3.0322266-4.939209.9863281-2.0250244,1.7373047-4.1679688,2.5283203-6.282959.2294922-.6135254.4726562-.6413574,1.0253906-.440918.7070312.2565918,1.453125.4462891,2.1992188.5454102.6435547.0856934,1.2197266-.2020264,1.5556641-.7893066.3544922-.6184082.2744141-1.2729492-.1523438-1.8005371-.3955078-.4881592-.8505859-.9908447-1.3896484-1.2878418-2.2773438-1.2558594-4.5664062-2.4981689-6.9082031-3.6293945-2.4560547-1.1870117-4.6318359-2.7705078-6.7646484-4.4335938-.4072266-.3171387-.7587891-.7351074-1.2099609-.9588623-.7978516-.3964844-1.0742188-1.0299072-1.0546875-1.8438721.0234375-.9538574.0507812-1.9100342.1386719-2.859375.0693359-.7415771.609375-1.2368164,1.2480469-1.4155273.484375-.1357422,1.1181641-.0666504,1.5917969.1337891,5.3544922,2.2694092,10.9462891,4.0244141,15.8769531,7.220459,1.2148438.7874756,2.3789062,1.6518555,3.5673828,2.4804688.4619141.3222656.4638672.5649414.1464844,1.1124268-.515625.8905029-.9052734,1.9078369-1.0986328,2.9193115-.3251953,1.7099609-.4003906,3.4663086-.6855469,5.185791-.2324219,1.4006348-.5644531,2.791748-.9648438,4.1540527-.1542969.5238037-.5478516,1.03125-.9541016,1.4179688-3.1240234,2.9702148-6.9794922,4.8095703-10.6894531,6.8815918-2.078125,1.1610107-4.1044922,2.4189453-6.1240234,3.682373-.4628906.2896729-.8603516.7387695-1.1777344,1.1920166-.3857422.5526123-.4394531,1.1984863-.0605469,1.8079834.3652344.5859375.9404297.78125,1.5898438.7268066.3857422-.0322266.7910156-.1062012,1.1425781-.262207,4.46875-1.9819336,8.9560547-3.9244385,13.3808594-6.0014648,2.2333984-1.0487061,4.1601562-2.6286621,5.3476562-4.8186035,1.0087891-1.8618164,2.0263672-3.729126,2.953125-5.6341553.8867188-1.8251953,1.0644531-3.7963867.8056641-5.8326416-.2148438-1.6939697-.25-3.4106445-.3544922-4.9697266,1.4453125-.2285156,2.765625-.3348389,4.0302734-.6564941,3.4501953-.8771973,5.9443359-3.0708008,7.7685547-6.0393066.3720703-.6047363.4228516-1.4304199.5273438-2.1677246.0966797-.677002.0449219-1.3735352.0947266-2.0585938.2285156-3.0969238-.9521484-5.7137451-2.7402344-8.1286621-.1708984-.2307129-.3261719-.4729004-.5400391-.7844238.2861328-.1448975.5-.2443848.7050781-.359375,1.0917969-.611084,2.2060547-1.1856689,3.2666016-1.8476562,2.3173828-1.447876,3.4892578-3.6635742,4.0341797-6.2629395.2177734-1.0361328.1337891-2.0524902-.3183594-3.0268555-.0917969-.1984863-.1835938-.411377-.2070312-.6252441-.2714844-2.4318848-1.4697266-4.4177246-3.0722656-6.1656494-2.0976562-2.2885742-4.4111328-4.3426514-7.0361328-6.026001-1.3027344-.8359375-2.6113281-1.6640625-3.9033203-2.5168457-2.2285156-1.4714355-4.6591797-2.5300293-7.1240234-3.5240479-.2910156-.1174316-.5712891-.2608643-.9990234-.4576416.2724609-.2143555.4394531-.3666992.6259766-.489502,2.5068359-1.6499023,4.1806641-3.9907227,5.4033203-6.6654053.2919922-.6395264.2480469-1.4302979.3759766-2.1483154.0625-.3547363.1162109-.7227783.2568359-1.0498047.6738281-1.5756836.8486328-3.1763916.2734375-4.8125-.6269531-1.7839355-1.8535156-2.8537598-3.7695312-3.0688477-.4589844-.0515137-.9150391-.1309814-1.5039062-.2165527.1748047-.2512207.2919922-.4759521.4599609-.6540527,1.5136719-1.6105957,3.03125-3.2175293,4.5634766-4.810791.1376953-.1435547.3759766-.2353516.5800781-.2636719,4.1416016-.5739746,8.0664062-1.9140625,11.9833984-3.3068848,6.1171875-2.1757812,10.5146484-6.3538818,13.9384766-11.7331543,4.4365234-6.9709473,7.6289062-14.4564209,9.515625-22.5026855,1.015625-4.3284912,2.2558594-8.6132812,3.0644531-12.979126,1.3505859-7.2879639,1.6279297-14.6751709,1.8310547-22.0853271.3251953-11.8592529-.0771484-23.6843262-.8632812-35.5067139Zm-73.2753906,14.3682861c2.7451172-8.2202148,6.0039062-16.2166748,10.3974609-23.7214355,1.7246094-2.9455566,3.4082031-5.9248047,4.4931641-9.1884766.1523438-.4588623.390625-.3742676.7324219-.2304688,1.1308594.4748535,2.2568359.9685059,3.4150391,1.3693848,6.0556641,2.0969238,12.3154297,3.3713379,18.59375,4.56604,5.2138672.9920654,10.4257812,1.9909668,15.6396484,2.9801025,2.9960938.5684814,6,1.0686035,9.0644531,1.0646973,1.1054688-.0014648,2.2109375.0410156,3.3164062.0527344.4931641.0053711.7158203.1495361.5859375.7125244-.7587891,3.27771-.9365234,6.6158447-.8798828,9.9616699.1689453,10.0792236.8925781,20.1495361.5966797,30.2362061-5.5039062-1.604248-11.1953125-2.2929688-16.9589844-2.6003418-9.3740234-.5002441-18.7412109-.4780273-28.0625.1446533-2.0820312.1390381-4.1572266.0809326-6.2285156.0284424-.2773438.0368652-.5517578.0827637-.8291016.1174316-3.1464844.3928223-6.3710938.1918945-9.5615234.0910645-2.3720703.0910645-4.7441406.1828613-7.1132812.2972412-.8105469.0391846-1.6289062.1854248-2.5009766.3275146,1.7353516-5.4130859,3.4990234-10.8173828,5.2998047-16.2089844Zm2.8095703,199.2185059c.59375.7143555,1.1621094,1.5209961,1.9208984,2.0097656,1.4765625.9509277,3.0263672,1.8278809,4.6376953,2.5212402,3.1123047,1.3391113,6.1035156,2.8752441,8.6435547,5.1262207.9492188.8410645,1.7070312,1.9519043,2.3642578,3.0513916.5507812.9188232.265625,1.4503174-.8037109,1.6209717-1.1533203.184082-2.3496094.2856445-3.5107422.2017822-6.171875-.4454346-12.3398438-.9603271-19.0302734-1.4927979-1.8701172-.2722168-4.2939453-.4406738-6.6240234-.9970703-9.1962891-2.1954346-18.3623047-4.5170898-27.5419922-6.7810059-1.6953125-.4179688-3.2529297-1.095459-4.6054688-2.2143555-1.0498047-.8679199-1.0615234-1.4550781-.0205078-2.2910156.3242188-.260498.6728516-.49646,1.0322266-.7062988,2.2734375-1.3282471,4.7421875-2.1125488,7.3613281-2.095459,3.9023438.0256348,7.8154297.0969238,11.7011719.4245605,2.8349609.2390137,5.5322266.1687012,8.1289062-1.0859375.1699219-.0820312.5898438.0039062.6699219.1418457.6289062,1.078125,1.6386719,1.659668,2.7539062,1.9733887,2.1933594.6176758,4.4042969,1.2092285,6.6425781,1.6263428,1.8964844.3536377,3.7197266-.1160889,5.3300781-1.2149658.4404297-.3009033.640625-.1923828.9501953.1813965Zm3.3554688-44.7275391c-2.4335938.5083008-3.8222656,2.2597656-3.6435547,4.746582.0712891.9936523.3789062,1.96875.5449219,2.9581299.0419922.2529297.0556641.6550293-.0898438.7718506-.9570312.763916-1.4521484,1.8134766-1.7734375,2.9204102-.8701172,2.9935303-1.796875,5.9805908-2.4501953,9.0241699-.8974609,4.1779785-1.6123047,8.3996582-1.7070312,12.6937256-.0205078.963501-.2246094,1.9954834.7880859,2.6624756.0546875.0362549.0869141.1199951.1103516.1882324.4140625,1.2072754.8320312,2.4134521,1.2333984,3.6248779.1669922.5045166-.0644531.7357178-.5732422.7611084-2.9306641.1462402-5.8447266.0194092-8.7392578-.4890137-.4443359-.0778809-.5019531-.2702637-.4570312-.7125244.0703125-.6920166-.0107422-1.4000244-.0351562-2.1009521-.0087891-.2669678-.1201172-.5579834-.046875-.7955322.4150391-1.3494873.5087891-2.7459717,1.5507812-3.9510498,1.5576172-1.8022461,2.6298828-3.9631348,3.3320312-6.2744141.4365234-1.4335938.8916016-2.8619385,1.359375-4.2856445,1.9101562-5.8154297,3.7060547-11.6674805,4.9248047-17.6704102,1.0761719-5.2958984,1.9814453-10.6260986,3.0019531-15.9332275.6503906-3.3763428,1.3779297-6.737793,2.0644531-10.1070557.421875-2.0688477.8544922-4.1359863,1.234375-6.2126465.0947266-.5197754.1269531-1.1116943-.0273438-1.6033936-.3271484-1.0478516.3925781-1.5479736,1.0175781-2.1636963-.0019531.2612305.0058594.5228271-.0078125.7834473-.0742188,1.3769531.0947266,2.7121582.8320312,3.9038086.6035156.9758301,1.2851562,1.9035645,1.9169922,2.8625488.1689453.2557373.4072266.5510254.4003906.8227539-.0361328,1.3930664-.1601562,2.7838135-.2109375,4.177002-.0166016.4660645-.203125.6003418-.6357422.706543-.8496094.2080078-1.7802734.3585205-2.4882812.8218994-2.21875,1.4527588-3.09375,3.7176514-3.3632812,6.2532959-.0332031.3100586.0908203.7315674.2998047.9536133.4521484.4807129.4111328.9816895.3427734,1.5605469-.2470703,2.0866699-.0244141,4.074707,1.7255859,5.5058594.6953125.5681152.9326172,1.1630859.8632812,2.0187988-.0751953.9301758-.3955078,1.3903809-1.2939453,1.5778809Zm34.2353516,5.5559082c-1.9736328,1.9069824-4.2138672,3.3643799-6.8359375,4.223877-1.0996094.3605957-2.1669922.8044434-2.9042969,1.8364258-.4589844-.4953613-.8173828-.9333496-1.2275391-1.315918-3.0341797-2.8339844-6.5029297-5.0651855-10.0517578-7.1796875-2.4482422-1.4584961-5.1220703-2.3608398-7.8417969-3.1516113-.2011719-.0585938-.3457031-.3122559-.5166016-.4750977.2255859-.123291.4697266-.3791504.6738281-.3496094,2.2666016.3291016,4.484375.7956543,6.5019531,2.0010986.8017578.4793701,1.7539062.9023438,2.6640625.9630127,1.6523438.1103516,2.6787109.9206543,3.6162109,2.1829834,1.1835938,1.5931396,2.5048828,3.0882568,3.8310547,4.5678711.7011719.7824707,1.6689453.9031982,2.3300781.4671631.6396484-.421875.9414062-1.3327637.5283203-2.2562256-1.1113281-2.4835205-2.4150391-4.8280029-4.875-6.2999268-1.1972656-.7163086-2.2753906-1.6308594-3.4677734-2.3564453-.9306641-.5661621-1.9248047-1.05896-2.9453125-1.4355469-.84375-.3112793-1.7685547-.3995361-2.65625-.5960693-2.3798828-.5272217-4.7275391-1.1411133-6.8398438-2.4324951-.8759766-.5358887-1.4794922-1.2260742-1.7861328-2.2368164-.2314453-.7634277-.5947266-1.5041504-1.0107422-2.1873779-.2314453-.3804932-.3125-.6397705-.0107422-.9639893,1.0019531-1.0759277,1.9453125-2.2180176,3.0322266-3.2001953.7617188-.6879883,1.8193359-1.0092773,2.8222656-.630127,3.3984375,1.2844238,6.8125,2.5439453,10.1308594,4.0155029,4.1728516,1.8502197,8.2578125,3.8989258,12.3779297,5.8670654.1513672.0721436.3242188.1690674.40625.3035889.8662109,1.4230957,1.8623047,2.7913818,2.5322266,4.3035889.7519531,1.6981201,1.1943359,3.5322266,1.7939453,5.2993164.1474609.4343262.0585938.7165527-.2714844,1.0356445Zm-28.5380859-24.2751465c.5029297-.717041.8779297-1.2480469,1.2490234-1.7819824.2773438-.3994141.546875-.3637695.9052734-.0667725.6201172.513916,1.2744141.9891357,1.9267578,1.4632568.5263672.3826904,1.0712891.7399902,1.6074219,1.1086426-.0283203.0308838-.0566406.0618896-.0849609.0927734-1.8017578-.262207-3.6025391-.5245361-5.6035156-.815918Zm20.0292969-10.7756348c2.8955078,1.706665,5.78125,3.4377441,8.5888672,5.2827148,2.3603516,1.5510254,4.0625,3.7587891,5.4462891,6.2001953.1210938.2133789.0898438.6391602-.0478516.8522949-.7978516,1.2374268-1.6650391,2.4300537-2.4775391,3.6586914-.6650391,1.0068359-1.5390625,1.7633057-2.5527344,2.401123-.4765625.300293-.8427734.3195801-1.3417969.0332031-1.7255859-.9887695-3.4677734-1.9512939-5.2304688-2.8735352-6.7207031-3.5180664-13.4599609-7.0026855-20.1757812-10.5305176-2.1210938-1.1138916-2.9794922-2.8752441-2.6953125-5.2329102.2939453-2.4350586,1.8730469-3.7407227,4.3320312-3.7443848,2.0351562-.0029297,4.0703125-.1397705,6.1044922-.2451172.3583984-.0185547.7451172-.1113281,1.0576172-.2814941.4638672-.2524414.8144531-.1291504,1.2275391.1054688,2.5839844,1.4658203,5.2060547,2.8659668,7.7646484,4.3742676Zm-1.2080078-18.4788818c-.0458984.2412109-.0605469.4963379-.1533203.71875-.0996094.2393799-.2304688.4981689-.4208984.6622314-2.0087891,1.723877-3.6708984,3.7492676-5.2001953,5.8950195-.4990234.6992188-1.0185547,1.3867188-1.5820312,2.0327148-.1386719.1586914-.5185547.2380371-.7353516.175293-1.1025391-.3181152-2.1796875-.7263184-3.2841797-1.0373535-.5126953-.1445312-.6582031-.3149414-.3974609-.8098145.4697266-.8901367.9423828-1.7828369,1.34375-2.7050781,1.1826172-2.720459,2.7568359-5.2067871,4.5078125-7.5845947.1992188-.2701416.6103516-.520752.9345703-.5352783.9287109-.041626,1.8632812.0428467,2.3447266.0609131,2.8310547.3568115,3.1025391.7362061,2.6425781,3.1271973Zm29.2041016-44.2623291c-1.5498047,5.9111328-4.1425781,11.3295898-8.0976562,16.0640869-1.8095703,2.1660156-3.9433594,3.7913818-6.5478516,4.8673096-2.6787109,1.1063232-5.3310547,2.2805176-7.9697266,3.480957-2.1220703.9656982-4.2705078,1.9056396-5.9824219,3.5712891-.1318359.1286621-.3359375.2165527-.5205078.2531738-1.2060547.239502-2.171875.9016113-3.0341797,1.7265625-.9414062.8996582-1.8837891,1.8010254-2.7685547,2.7550049-3.0576172,3.2979736-5.4384766,7.083374-7.8232422,10.87146-1.7285156,2.744873-2.9560547,5.6479492-3.3925781,8.8776855-.0400391.3005371-.3349609.6252441-.5966797.8269043-1.0068359.7729492-2.0498047,1.4968262-3.0722656,2.2495117-.1103516.081543-.1708984.2315674-.2539062.3498535-.0673828-.0539551-.1347656-.1079102-.2011719-.1617432.0498047-.2486572.1103516-.4956055.1464844-.7462158.1425781-.9699707.3408203-1.9371338.4042969-2.9128418.2353516-3.6097412-.5859375-7.0424805-1.9736328-10.3343506-.546875-1.2965088-1.3876953-2.4671631-2.0634766-3.7120361-.1337891-.2473145-.2060547-.5821533-.1699219-.8587646.1738281-1.3342285.5400391-2.6590576.5703125-3.9932861.0791016-3.5443115-.9619141-6.94104-1.6015625-10.3874512-.0947266-.5112305-.5458984-.9656982-.8642578-1.423584-.2783203-.3991699-.6425781-.741333-.9003906-1.1513672-1.8544922-2.9453125-4.2421875-5.2592773-7.5273438-6.5788574-1.3886719-.5578613-2.7402344-1.2128906-4.0908203-1.8621826-1.6787109-.807251-2.90625-2.074585-3.6806641-3.7731934-.9501953-2.086792-1.7011719-4.230835-2.0917969-6.5054932-.6396484-3.7167969-.6230469-7.442627-.1914062-11.1650391.8007812-6.8991699,2.3710938-13.6547852,4.1650391-20.3461914.5458984-2.0361328,1.1494141-4.0571289,1.7714844-6.072998.0976562.1052246.1865234.2150879.2871094.3190918.1416016-.8747559.2861328-1.7490234.4306641-2.623291.2714844-.8540039.5410156-1.708252.8154297-2.5611572,1.4726562.5596924,2.8818359.350708,4.2919922.256958,3.4921875-.2325439,6.9814453-.5541992,10.484375-.635376,4.0644531-.0943604,8.0488281-.4376221,11.9228516-1.4157715,4.9902344-1.2600098,10.1142578-1.4257812,15.3066406-.9053955,2.9394531.2944336,5.8681641.671875,8.8037109,1.0007324,3.0234375.3391113,6.0039062.8422852,8.890625,1.7155762,4.2265625,1.2784424,8.5078125,2.3544922,12.9414062,2.8684082-.0400391,1.3891602-.0683594,2.7788086-.109375,4.1677246-.9511719.4089355-1.9003906.8203125-2.8574219,1.2194824-.7519531.3132324-1.5146484.6181641-2.3056641.8562012-2.9179688.8781738-5.9814453,1.1047363-9.0800781,1.1086426-5.3720703.0065918-10.7490234-.0817871-16.1171875.003418-3.3349609.0527344-6.6220703.0056152-9.9375-.5185547-4.6171875-.7299805-9.2822266-1.2163086-13.9052734-1.9193115-5.2324219-.7955322-10.4306641-1.7451172-15.3613281-3.5388184-.2441406-.0888672-.5078125-.1480713-.7666016-.1973877-.9208984-.1744385-1.6279297.0362549-1.9248047.5614014-.2978516.5263672-.0703125,1.1351318.6601562,1.6331787,1.7753906,1.2097168,3.6806641,2.2241211,5.8095703,2.972168,10.8603516,3.8173828,22.1279297,4.4001465,33.5517578,3.5231934,4.078125-.3129883,8.1484375-.5622559,12.2529297-.465332,4.6181641.1091309,9.2050781.00354,13.6865234-.93396,2.0566406-.430542,4.1152344-.8598633,6.1679688-1.303833-.3535156,5.8654785-1.3847656,11.6477051-2.4921875,17.4042969-.8710938,4.5308838-1.9179688,9.0358887-3.0878906,13.4995117Z" stroke-width="0"/>
      <path d="m46.8814254,208.2088565c.0068359.0599365.0146484.119873.0214844.1796875,3.3789062-.2165527,6.7783203-.2736816,10.1337891-.6846924,5.9326172-.7266846,11.6064453-2.5390625,17.2080078-4.569458,2.5410156-.9210205,5.1181641-1.7770996,7.3710938-3.3220215.7617188-.5224609,1.4638672-1.1635742,2.0839844-1.8496094.4130859-.458252.7226562-1.0621338.9189453-1.6538086.3154297-.951416.1484375-1.8686523-.6679688-2.543457-.7988281-.6611328-1.6826172-.604248-2.5546875-.1469727-.8701172.4562988-1.7392578.9189453-2.5810547,1.4248047-5.7939453,3.4810791-12.1357422,5.1639404-18.8154297,5.666748-4.4501953.3348389-8.8271484,1.0690918-13.1660156,2.0773926-.3583984.083252-.7167969.1772461-1.0634766.2995605-1.1787109.4161377-1.8359375,1.2790527-1.8496094,2.3990479-.0117188,1.0404053.6542969,1.9777832,1.7539062,2.4044189.3857422.1496582.8037109.2147217,1.2070312.3183594Z" stroke-width="0"/>
      <path d="m115.7281051,197.2274112c-.4189453.6115723-.6591797,1.3449707-1.0615234,2.1984863.1943359.440918.3046875,1.0203857.6455078,1.3828125.4472656.4758301,1.1552734.4052734,1.6240234.0229492.6298828-.5133057,1.2363281-1.1164551,1.6640625-1.7993164.4960938-.7912598.1552734-1.7775879-.5878906-2.2502441-.7402344-.4713135-1.7480469-.3363037-2.2841797.4453125Z" stroke-width="0"/>
      <path d="m135.6636519,122.3406925c-.6914062-.1262207-1.421875-.147583-2.1240234-.0905762-2.3369141.1890869-4.5908203-.2232666-6.8623047-.7017822-2.90625-.6121826-5.8427734-1.0814209-8.7714844-1.5809326-.5-.0852051-1.0371094-.079834-1.5400391-.0023193-1.8769531.2901611-2.6992188,2.3150635-1.5214844,3.8098145.3837891.4866943.9140625.9100342,1.4628906,1.2050781,3.3095703,1.7803955,6.8027344,3.0646973,10.5058594,3.74646,2.7060547.4521484,5.3515625.2180176,7.9082031-.75354.7441406-.2828369,1.4589844-.7149658,2.0898438-1.2042236.8105469-.6282959,1.1660156-1.5256348.9140625-2.5593262-.2597656-1.0689697-1.0244141-1.6793213-2.0615234-1.8686523Z" stroke-width="0"/>
      <path d="m125.4722457,159.7122745c-.7451172-.2248535-1.3935547.078125-1.7246094.6665039-.6054688,1.0788574-1.0556641,2.2451172-1.6367188,3.5200195.25.5307617.375,1.192627.7744141,1.5452881.5351562.4735107,1.2216797.1842041,1.7539062-.2249756,1.0966797-.8411865,1.7470703-1.9697266,2.0214844-3.3161621.0390625-.1889648.03125-.3920898.015625-.5863037-.0654297-.7849121-.5273438-1.3997803-1.2041016-1.6043701Z" stroke-width="0"/>
      <path d="m120.8023238,178.1048526c-.8203125-.2189941-1.7607422.105957-2.2197266.920166-.3662109.6501465-.5664062,1.3945312-.75,1.8681641-.0458984.8520508-.2070312,1.4724121-.0673828,2.0151367.1083984.4204102.5263672.8720703.9257812,1.0823975.7919922.416626,1.7861328.0916748,2.5019531-.7198486.8359375-.9470215,1.1923828-2.0776367,1.0810547-3.3337402-.0810547-.913208-.6767578-1.6199951-1.4716797-1.8322754Z" stroke-width="0"/>
    </g>
  </g>
</svg>