<?xml version="1.0" encoding="UTF-8"?>
<svg id="Layer_2" data-name="Layer 2" xmlns="http://www.w3.org/2000/svg" viewBox="0 0 437.393836 647.2141325">
  <g id="Layer_1-2" data-name="Layer 1">
    <path d="m36.0387656,596.7354563c-1.0781654-1.3820497-2.120591-2.7067297-3.15127-4.0417164-2.455012-3.1798532-4.756998-6.4731751-6.6973846-10.0454859-2.0480534-3.7704457-3.3509618-7.8167273-4.0339676-12.0946054-.4171029-2.6125097-.2944793-5.2384794-.1082663-7.8697201.3329623-4.70488,1.4144622-9.2292737,2.7008309-13.7223235,1.8817062-6.5724307,4.0428908-13.042782,6.1704712-19.525652,1.2577261-3.8322864,2.1991814-7.7494273,2.6227847-11.7763189.2608171-2.4794158.4815598-4.9840102.2377687-7.4960876-.074209-.7646312-.0482654-1.5404164-.0668024-2.3110717-.1363039-5.6662342-.6397214-11.2828642-2.2105026-16.7278556-.5118324-1.774225-1.1470425-3.5173414-1.8432784-5.220219-1.4755598-3.6089729-3.8274688-6.5132256-6.6470887-9.0111841-.32055-.2839777-.6719306-.5285166-1.0951139-.8584747-.2591567.3162628-.5012627.5713909-.6998273.8604513-1.4594207,2.124326-2.840751,4.3143048-4.3804778,6.3700131-2.1268441,2.8396353-4.7207817,5.1143274-7.7291604,6.871845-1.6635451.9718493-3.3868093,1.2710753-5.2333283,1.0665869-1.6631576-.1841572-2.7936977-1.12871-3.408783-2.7546868-.5088232-1.3451053-.585695-2.75784-.3022968-4.1657272.1632006-.8107058.3787545-1.632895.7139111-2.3768186,1.2411042-2.7547809,2.8910649-5.1834158,5.2059654-7.0504018,1.9863093-1.6019747,4.1400045-2.8671201,6.4957093-3.7419256,1.4971827-.5560013,3.0258245-.8530154,4.6178694-.753195.537479.033697,1.0783919.005271,1.6791855.005271.5044121-.6117709.7406558-1.4148525,1.0509841-2.1679534,2.5234941-6.1239211,4.5695722-12.4329878,6.3311302-18.844934,1.4720292-5.3580663,2.9126919-10.727757,4.2503455-16.1251208.6752457-2.7246136,1.1244223-5.5153976,1.61619-8.2882506.6037386-3.4042962,1.1828513-6.8145695,1.7024853-10.2343494.4810405-3.1658755.8858387-6.3453051,1.2938084-9.5231816.3344238-2.6050737.6296076-5.2159362.9294132-7.8259045.0657388-.5723322.0632967-1.1531827.1161646-1.7276327.365235-3.9687218.4493645-7.946668.3232269-11.9292263-.1239938-3.9149995-.4002317-7.819551-.7940458-11.7145017-.1870335-1.8498551-.3374902-3.7046753-.5613603-5.5494241-.5638162-4.6460514-1.1337848-9.2916321-1.751027-13.929871-.5326873-4.0027954-1.1774201-7.9889775-1.6869926-11.9948555-.2665246-2.0952176-.5289937-4.2215438-.4824052-6.3260093.18-8.1305193,2.1208009-15.7201915,6.4902974-22.497793.2378709-.3689498.4680562-.7435471.7411586-1.178126-.1245684-.2102065-.209894-.4600636-.3740312-.6156536-3.3707033-3.1949604-5.5862697-7.2164633-7.2720966-11.5987975-2.5232648-6.5592296-4.2651448-13.3646689-5.4571707-20.3291337-.5077493-2.9665405-1.0426881-5.9404699-1.314934-8.9368247-.3300837-3.6329514-.735545-7.2788687-.2525154-10.951353.2333596-1.774272.2408628-3.5808528.4010577-5.3676671.5105865-5.6950132,1.4613739-11.3020423,2.8159622-16.8445717,1.3658487-5.588604,2.6411781-11.2048103,3.833146-16.8384064,1.1651514-5.5068792,2.1627952-11.0497615,2.9211234-16.6448367.6581949-4.8563049.8613952-9.71421.5552688-14.5954348-.1604656-2.5586462-.3848771-5.1213515-1.0195043-7.613792-.3486014-1.3691074-.7989301-2.6971876-1.5381742-3.8892443-.4659014-.7512654-.9743358-1.4691396-1.852058-1.8911881-.4027567.3600431-.8150333.717333-1.2158064,1.088683-3.7072432,3.4349695-7.915332,5.8229302-12.7225721,7.0090687-1.0283322.253728-2.0281102.2816716-3.0470813.1079623-1.2499908-.2130656-1.5271832-.438697-2.3761895-1.8040746-.4012303-1.6813463.2264614-3.0136387,1.2655249-4.2004008,2.107593-2.4071977,4.7096844-3.9831113,7.6015076-5.0398503,2.687272-.9819796,5.4410012-1.6682863,8.3265008-1.857291,1.3413362-1.4314304,2.2804709-3.1419793,3.0912995-4.9370531,1.4397842-3.1875362,2.6435152-6.4739045,3.5789315-9.8705648,1.2898468-4.6836664,2.4441881-9.4025241,3.1054274-14.2387802.4861264-3.5554976.9553264-7.1171017.9232857-10.7247921-.0376459-4.2393924.0358806-8.4845148-.1505534-12.7165654-.2118058-4.8079007-.7116291-9.5825397-1.9987824-14.246275-.9524864-3.4511591-1.9494838-6.8832343-3.0906613-10.2650815-.5490446-1.6270828-1.24893-3.1996902-1.9315988-4.7718094-2.0276875-4.6695416-4.4430617-9.115805-6.8974107-13.5411489-1.5639547-2.8199042-3.1038583-5.657657-4.5642846-8.5392666-1.9823505-3.9114404-3.6457878-7.9658344-4.3785882-12.3844777-.1046224-.6308608-.2363722-1.2643453-.2625285-1.9009419-.1374863-3.3463324.0161115-6.6917588.5650166-9.9803097,1.1730745-7.028041,4.1438694-13.1202564,8.9351706-18.1229535,2.9409837-3.0707437,6.4558229-5.1519895,10.52316-6.0642954,5.7888401-1.2984336,11.4996037-1.1542357,17.0870337,1.1106231.167397.067853.3483638.0977409.6299501.174474.309157-.1242814.7171378-.2410357,1.0838508-.4428209,5.2295628-2.877568,10.8006935-4.7264525,16.4843891-6.2449096,5.5090772-1.4718075,11.0980322-2.4745536,16.748234-3.0089942,4.98983-.4719778,9.9975505-.6751323,15.0082547-.2669629,2.1047033.1714487,4.2130974.2965743,6.3153254.4961888,4.9287544.4680025,9.5793592,1.9189317,13.9045187,4.514787,2.5211265,1.5131155,5.0805537,2.9544203,7.591105,4.4868096,3.1998863,1.9531347,6.5940717,3.4631867,9.9659353,5.0192897,1.957954.9035816,4.0550767,1.2230211,6.1890414,1.1822382,3.9228586-.0749771,7.8405457-.2491629,11.7274353-.8694933.8934469-.1425918,1.7808934-.3332437,2.6650359-.5323669.2210743-.0497926.418567-.2183072.7079659-.3766034-.5175786-.3918753-.9535169-.724516-1.3919194-1.0534623-3.1580715-2.3695327-3.7992599-6.9339622-2.8392565-9.6313661.7121982-2.0011021,1.6409843-3.8660261,2.9076805-5.5169786,1.6146291-2.1043919,3.6961155-3.4414348,6.1790518-4.116067,2.6199392-.711859,5.211943-.9337982,7.8453526-.0447554,1.3925824.470135,2.4588575,1.302831,3.2563427,2.5881002,1.0177418,1.6403016,1.6929212,3.4272806,1.8209732,5.3807697.1748615,2.6678336-.6079377,5.0779022-2.1142066,7.1950393-1.205477,1.6943504-2.5728313,3.2362757-4.1969969,4.4975767-.2409098.1870986-.4701724.3911958-.8047122.6709672.3227159.200891.5477793.391337.8039387.4924958,2.0459151.8079938,4.1787417,1.2275215,6.3258785,1.5852674,2.6938995.4488449,5.406419.5349466,8.1231376.4450799,3.7384827-.1236696,7.4788219-.2368147,11.2121773-.4678642,3.0168032-.1867045,5.9575576-.9319223,8.8994171-1.6469315,4.8950617-1.1897359,9.6036369-2.9861363,14.2437438-4.9787627,2.1192456-.9100851,4.130573-2.105848,6.1877153-3.1788531,1.0829612-.5648668,2.171514-1.1197239,3.2364189-1.7214042,5.4253925-3.06533,11.2371291-4.9683397,17.20156-6.3459463,2.2301695-.5150978,4.5304869-.7900496,6.811864-.9251732,3.4936943-.2069268,6.9998313-.1744534,10.4912934.1646114,2.6415096.2565253,5.2961028.4529732,7.9121744.8953294,5.6166749.9497415,11.098115,2.4396167,16.2014326,5.2254944.1050672.057352.2270857.0794996.4321369.1488159,3.1101128-1.2232991,6.4280836-1.8568792,9.7651938-2.4145278,2.4532329-.4099533,4.9086095-.5553998,7.3926509-.4347158,5.6395934.2739915,11.1135414,1.4872809,16.5243474,3.1207157,4.124208,1.245026,8.1461113,2.7795051,12.0874131,4.5761438,3.545587,1.6162436,7.1100701,3.187695,10.8306512,4.3182522,2.3886322.725822,4.8150568,1.1265274,7.2897496,1.3514117,5.7302509.5207306,11.4537611.3267549,17.1840562.0544812,3.0768732-.146198,6.1463206-.3393325,9.1877441-.8623427,4.5937394-.7899423,9.1194526-1.8532201,13.3540099-4.0066545,4.0708345-2.0702066,7.6284001-4.9235637,10.8733278-8.2208624,1.4822564-1.5061752,2.8142273-3.1786031,4.2508234-4.7374917,1.0971721-1.1905462,2.1955376-2.3923523,3.3926494-3.4633293,2.3736258-2.1235076,5.0118865-1.8381511,7.6653085-.6940619.3389379.1461326.5547301.615897.8662187.9810427-.1902879.4771298-.2543802.9970868-.5325408,1.2489293-.3918472.3548029-.9243438.6434295-1.4292145.7211657-.7669419.1180985-1.561775.0308983-2.4388231.0308983-1.0146919.6763794-1.8811758,1.6568471-2.7447424,2.6385855-1.3199481,1.500635-2.6229228,3.0182994-3.9506946,4.5110131-2.4616754,2.7675291-5.2693609,5.0948022-8.2461174,7.1883579-4.2780958,3.0087942-8.9849029,4.9156601-13.976943,6.0973835-5.0210363,1.1885799-10.0910921,1.8981858-15.2354067,2.0029037-4.3431606.0884048-8.6867411.2923431-13.0287745.2571783-3.9182064-.0317322-7.8368991-.290793-11.7069036-1.0460528-2.7963036-.5457122-5.5008667-1.4466494-8.150421-2.5151924-2.6484934-1.0681018-5.272013-2.2107688-7.8801503-3.3869153-6.1331043-2.7656936-12.494333-4.7215726-19.0307105-6.006583-2.1864541-.4298462-4.4305913-.5605341-6.6551693-.7216363-.952014-.0689457-1.9263498.0924036-2.8819663.2212016-2.572754.3467552-5.1270538.8104632-7.6327982,1.5385442-.2145988.0623495-.4187438.1652938-.6646152.264223.2327435.6809269.7772851.8878037,1.1922497,1.215094,1.1277596.8894833,2.0978741,1.9276589,2.8668051,3.1804473.8794129,1.4327864,1.0997136,2.9684465.6356853,4.6040183-.5098433,1.7971476-1.1716959,3.5190415-2.4360605,4.8854634-2.2561158,2.4382592-4.9301578,3.6233477-8.1814726,3.0171243-.2970347-.0553813-.5944231-.109436-.8898445-.1736975-3.934119-.8558245-6.7399259-4.5278146-6.7424012-8.8175261-.0007735-1.3170852.3464079-2.537612.9284988-3.6823822.6949817-1.3667072,1.5494649-2.6020352,2.715503-3.5683958.275376-.2282228.5206506-.4975962.755118-.7242101-.1589931-.6101384-.6315966-.6799209-.991707-.8552568-2.4770575-1.2059844-5.0858137-2.0066511-7.7172453-2.7088078-7.1415637-1.9056041-14.4063836-2.4145704-21.7320912-1.9579263-3.6901483.2300244-7.2537032,1.2274995-10.7726587,2.4013972-3.5150215,1.1725917-6.9619505,2.5129966-10.2035631,4.4063908-1.1091728.6478623-2.2778188,1.1796262-3.3931798,1.8162845-5.0671827,2.8924252-10.4025808,5.0842307-15.88601,6.8774661-3.6321337,1.187821-7.3179281,2.1916319-11.0733621,2.8014261-2.6188563.4252429-5.2728086.6867362-7.9199097.8156239-4.7612414.2318319-9.531301.4165657-14.2953492.1093007-3.8591752-.248904-7.6778065-.8169387-11.3613134-2.1592967-1.0828397-.3946049-2.1780227-.7507742-3.2494362-1.1183414-1.790662.4574104-3.540769.9398641-5.3061697,1.3471349-2.6596212.6135652-5.3705936.859716-8.0774552,1.0282395-2.8288691.1761212-5.667341.2209839-8.5020336.236397-3.5536427.0193164-6.8858906-.9610395-10.1383657-2.4847427-4.868154-2.2806161-9.4663025-5.0920725-14.1230403-7.7939988-1.1116149-.6449738-2.2313961-1.2741109-3.3507905-1.9037392-2.9729-1.6721837-6.1724989-2.5493321-9.4840053-2.9861907-4.076426-.5377689-8.1742125-.8180329-12.279911-.6912072-5.249658.1621656-10.4660432.6983725-15.6440283,1.7022128-3.5037888.6792694-6.977399,1.4792714-10.3979065,2.5132408-4.0026425,1.2099435-7.9551604,2.5911549-11.6611495,4.6558993-.3035268.169103-.5926495.3675055-.9894583.61538.4016157.4677054.7193865.8405996,1.0400249,1.2106701,1.236722,1.4273536,2.2495464,3.0106679,3.0001392,4.7863077.5563379,1.3161086.8821037,2.6794773.6814174,4.1181701-.1852765,1.3282362-.3263349,2.6910606-.7273594,3.9519439-.8842253,2.7801831-3.4461555,4.5343416-6.1947103,4.3233056-1.3188873-.1012618-2.6392442-.3112741-3.9349422-.5958695-2.2777636-.5002906-4.0817137-1.8619738-5.5295591-3.7643305-1.0306487-1.3541914-1.5559902-2.8936106-1.2927807-4.6598055.1508711-1.0124175.2984216-2.0287883.5198605-3.0251397.3710006-1.6692276,1.22839-3.0460357,2.3453036-4.270604.6160984-.6754676,1.3760676-1.2254743,1.8510027-2.0992739-.230876-.137509-.3733543-.2574459-.5353311-.313592-2.5526257-.8848211-5.155061-1.3307864-7.8402169-.9310575-.9537323.1419771-1.9055834.3118624-2.8487156.5185657-3.8080284.8345962-6.8511592,3.0246367-9.4767424,6.0043372-3.2543868,3.6933126-5.3506946,8.054845-6.6559373,12.8713406-.6546837,2.4158455-.7518747,4.9303349-.9731147,7.4236048-.3910957,4.4074365.5142966,8.532266,2.1028551,12.5648816,1.4758195,3.7464142,3.4264277,7.2174398,5.2881576,10.74167,1.0348589,1.9589764,2.0962884,3.904075,3.2060993,5.8157002,2.0657368,3.5581861,3.7900909,7.305924,5.5041211,11.0599271,1.9593684,4.2913146,3.2428005,8.8446991,4.4849179,13.4076138.6875862,2.5258433,1.3698655,5.0597109,1.6867744,7.6811155.1616176,1.3368928.3744262,2.6688087.4848197,4.0103607.5431161,6.6003979.7193036,13.2176325.4163625,19.8323728-.306295,6.6878408-1.3946764,13.2561418-3.0529132,19.7207631-1.0977992,4.2797607-2.3437455,8.4961393-4.0640164,12.5467036-.9462485,2.2280762-2.0380749,4.3613442-3.343989,6.2687808-.0111885.5050792.3067536.6311843.5432155.7882215,1.9785353,1.3137731,3.2240314,3.2448118,4.1040824,5.4849126.7502365,1.9096721,1.2178783,3.9140465,1.4193022,5.9564124.308436,3.1274721.5911245,6.2682278.6586121,9.408854.0522214,2.4300232-.1661925,4.8766597-.3967618,7.3016236-.6142199,6.4598327-1.8369991,12.8156328-3.1045047,19.1558787-.8028999,4.0162083-1.7864601,7.9914483-2.6847636,11.9861254-.9403365,4.1816345-1.9324662,8.3513856-2.7897645,12.5522923-.4468367,2.1896494-.6782072,4.4314209-.9604482,6.6563204-.4117268,3.2456236-.7228895,6.5010598-.8145802,9.7797216-.1044484,3.7348662.1257674,7.4382473.6159879,11.1387575.7085046,5.3482772,1.7289289,10.6222185,3.0330169,15.8388371.9791124,3.9166467,2.2558893,7.7247898,3.7314795,11.4536084.8673265,2.1917201,1.9458704,4.2788194,3.3088791,6.1789142.5441161.7585366,1.0661453,1.547217,1.8191996,2.0993356,1.5445751-1.4089226,3.0269254-2.8200572,4.5723514-4.1479845.8879714-.7630076,1.860727-1.4203118,2.8261175-2.0735922,1.8567047-1.2564152,3.9088191-1.6157406,6.0724486-1.4003807,2.4462159.24348,3.9295497,1.8769163,3.7509034,4.4715185-.2840616,4.1255825-1.9075752,7.5432446-5.2583878,9.8262904-1.7326474,1.1805027-3.6881261,1.6297653-5.7206978,1.2688163-1.6547863-.2938609-3.2788524-.78388-5.0700669-1.2246948-.1333175.1686735-.3867308.4304139-.5756485.73717-2.6854073,4.3601677-4.3448071,9.1271001-5.1404055,14.2738303-.8370788,5.4151536-.2908134,10.7500649.5297092,16.0944593.612601,3.9901119,1.1752929,7.9896129,1.7064441,11.9930201.4300954,3.2417409.789877,6.4942828,1.1616484,9.7445185.1967496,1.7200791.3575274,3.4449351.5259465,5.1685674.5559373,5.689648.9152908,11.389297.866437,17.1152541-.0400687,4.6964557-.4266725,9.3602498-1.0270545,14.0079484-.5339304,4.1333009-1.0368535,8.2717316-1.6232401,12.3966082-.4058259,2.8546484-.915125,5.6932013-1.405213,8.5336367-.7514327,4.3552025-1.4108073,8.7332776-2.5398238,13.0028727-2.4014866,9.0817315-4.6948672,18.2013956-7.8982923,27.0159038-.9569729,2.6332174-2.0326464,5.2174893-3.0506617,7.8256222-.1132003.2900017-.2047805.5895572-.3074801.887889.1759306.164532.2944738.3143803.443784.4093533,5.3905009,3.4294749,9.0695683,8.3589392,11.2930468,14.5715268,1.4905829,4.1648801,2.4500227,8.468784,2.8219819,12.9012168.2950567,3.5159765.5041993,7.0434835.6380556,10.5707081.2262404,5.9616953-.6053906,11.7903436-2.3265621,17.4558719-1.3541463,4.4573761-2.9066971,8.8464639-4.2597549,13.3042165-1.3898585,4.5790338-2.6662846,9.1977416-3.9486917,13.8127784-.5829307,2.0978767-.8543533,4.26583-1.036091,6.4440431-.0853339,1.0227243-.2110543,2.0426248-.2671103,3.0670434-.3031953,5.5408116,1.0084346,10.6911421,3.3995283,15.5622483,1.8258658,3.7196178,4.1950438,7.0474839,6.674281,10.2900248.6456693.8444029,1.3149561,1.6682863,2.0266433,2.5690236.3686082-.3144744.7003633-.5734617,1.0065836-.8629927,1.3084419-1.2370018,2.5920121-2.5043591,3.9168224-3.7209356,2.3003782-2.1125603,4.8973602-3.7336425,7.6271127-5.1289169,2.9195045-1.4921769,5.9702103-1.517685,9.0094459-.6891894,3.0851334.8410614,4.7424115,3.3135589,4.6423391,6.6912176-.1550426,5.2327377-1.6068331,9.9681615-4.9322905,13.9423427-.3605193.430814-.7338791.8603102-1.0282176,1.3411049-1.0810827,1.765989-2.6945128,2.504312-4.5712629,2.698023-.715541.0738888-1.4525308.0524281-2.1678784-.0352501-3.9179136-.4804653-7.4959666-1.879693-10.5868628-4.5513137-.8413829-.7272633-1.6807768-1.4572562-2.5525014-2.2132279-.1985563.2233606-.3907974.3855865-.5195622.5926163-1.952147,3.1380613-3.3843727,6.5054602-4.0064798,10.237785-.3065353,1.8389365-.5567412,3.6701547-.3804128,5.5511183.284918,3.0391821,1.501194,5.5331874,3.7761673,7.3906667,1.0981196.8965486,2.2435626,1.7434929,3.4348177,2.4915109,3.1161519,1.9570644,6.236746,3.9113051,9.4168852,5.7461941,3.1904216,1.8408661,6.5882647,3.170017,10.1074412,4.119229,1.8675507.5036674,3.7199346,1.1004252,5.659777,1.242414,1.816658.1329527,3.6051265.0107774,5.3900146-.4256841,3.5565434-.8696286,6.8848353-2.3312617,10.0577531-4.2214968,2.5260937-1.504931,5.0560439-3.0030378,7.5661974-4.5377125,6.5209622-3.986794,13.4196713-6.9856432,20.6839829-9.0430457,6.1165618-1.7322919,12.2352564-3.4558301,18.4961475-4.5130986,3.8142111-.6441502,7.6481361-1.0771761,11.5063499-1.3329631,4.5810867-.3037441,9.1622729-.4134948,13.7490616-.3749503,4.4196625.0371797,8.7930791.5899337,13.1006574,1.5971743,4.0901064.9565068,7.9413032,2.6156629,11.4801052,5.0340851,1.8385434,1.2563917,3.4825997,2.7614638,4.9294948,4.5055215,1.5751239,1.8988005,2.8074424,4.0116432,3.5291219,6.4429607.108095.3641729.2620934.7131915.4023892,1.0658339.0196697.049369.0828559.0791128.1827073.1692383,1.1316051-.5104915,2.2953448-1.0334076,3.4575153-1.560277,5.1598293-2.3392153,10.3764355-4.5180402,15.7533168-6.2325423,3.5304479-1.1257921,7.126491-1.9820078,10.792461-2.3553108,2.4569679-.2501865,4.9419375-.281248,7.4133151-.2608698,8.0970697.0668764,15.7322989,2.2512077,23.0423149,5.859804,1.6406749.8098587,3.2890409,1.6021159,4.9319922,2.4068447,3.4128717,1.6716278,6.9673431,2.8924399,10.6615137,3.5881711,4.5277907.8527801,9.1088663,1.3055724,13.6951136.9012549,6.1624099-.5432943,12.1418916-2.0430484,17.8481631-4.6365917,3.16037-1.4364544,6.3246298-2.8730971,9.2289179-4.8636232.2898962-.1986526.5682999-.4164127.9677498-.7105089-.4907703-.3783859-.8680531-.6745528-1.2504411-.9631426-1.0894147-.8222833-2.0845252-1.7546939-2.8910055-2.8929576-1.7143369-2.4196458-2.1995378-5.0875486-1.3831785-8.0067203,1.5053738-5.3831979,4.8060176-9.0119842,9.7372362-10.8248949,2.8587825-1.050962,5.8369315-.9262453,8.693968.2315025,2.5921364,1.0503973,4.3958931,3.8390164,4.4132201,6.7001124.0038234.6325256-.0972214,1.279782-.2396832,1.8967768-.4510773,1.9536288-1.2601212,3.7415491-2.3294905,5.3966578-1.4079535,2.1792014-3.0231683,4.167045-4.8510811,5.9597657-.3884215.3809743-.7521344.7905158-1.1055925,1.1640542.2338928.5440944.6404148.4165068.966711.490678,2.5311603.575203,5.0274676.3132979,7.5342728-.2563047,3.425889-.7785148,6.7704913-1.8470784,10.0921088-3.0100031,4.0120464-1.4046869,8.0696426-2.6377354,12.2269575-3.4386992,2.0141121-.3880338,4.0553198-.6866009,6.0963948-.830237,3.486622-.245339,6.9726031-.6471622,10.4801325-.3066149,2.9993657.2912253,6.0050522.5088913,9.1267017.768961.1570925-.3131567.3561765-.692672.5403645-1.0802352,1.0340522-2.1760011,1.9858452-4.40123,3.1113063-6.5220734,3.127042-5.8927481,7.4131825-10.7594775,12.195265-15.1407528,5.1495303-4.7178223,10.8573268-8.5418727,16.9775242-11.6728275.2119025-.10848.416379-.2334791.6514431-.3661024.1873264-.796587.0283774-1.5673835-.081994-2.3073537-.7482004-5.0165777-.4609343-9.974515.6065343-14.9066148.7875841-3.6390931,1.9149458-7.1465513,3.2541658-10.59984,1.8214152-4.6965499,3.9978135-9.2071071,6.1109151-13.7510319,2.0361024-4.3782633,3.8356378-8.8657597,5.5145471-13.4044606,1.531718-4.1407839,2.4464258-8.4626188,2.7581797-12.9102999.2243231-3.2002785.4282693-6.4029101.5793503-9.6078008.060291-1.2779465-.0394278-2.5650232-.078723-3.8474877-.0274934-.898337-.0952102-1.7955915-.1114764-2.6939756-.0511412-2.8236339-.0227196-5.6482562-.3301417-8.4633247-.1250463-1.1448996-.0865909-2.3095186-.1351243-3.4645838-.1265492-3.0132504-.2045208-6.030313-.4035164-9.0382453-.3174117-4.798347-.6177615-9.6019179-1.1044653-14.3826163-.8058835-7.9153711-2.0554627-15.7582654-3.8202115-23.5018098-1.3633541-5.9822147-3.5945181-11.5821843-6.6950392-16.7652236-3.4465312-5.7615367-7.482579-11.0367251-11.9623226-15.9282566-2.2153399-2.418987-4.7912322-4.295762-7.597017-5.8385787-.0536165-.0295085-.1077193-.0579815-.1619105-.0862663-2.5106507-1.3083962-5.2449174-1.8499492-7.8606353-2.7267314-.5048706.2886839-.9276589.524375-1.345143.7701847-2.2179478,1.3060431-4.4665272,2.5405505-6.8788294,3.401849-2.1743208.776397-4.3654824.8933954-6.5862149.2366794-.9561248-.282707-1.7691689-.8124472-2.4542495-1.5623007-1.8539476-2.0291177-1.8009057-5.1199749.1294223-7.0721448,1.4124621-1.4285008,3.0685191-2.2647147,5.0549831-2.1867315,1.8067403.0709709,3.6124198.1745093,5.4183644.2683528.48193.0250375.9634622.101703,1.4445966.095773,1.9435884-.0240021,3.8410304.3378647,5.9531154.782421.7104523-.3269461,1.6246739-.6620341,2.461808-1.1477234,3.5396639-2.0536846,6.5858612-4.7130219,8.9955113-8.2023608,2.5210823-3.650553,4.3930642-7.6631374,6.1231589-11.7722479,1.2365397-2.9367967,2.2342582-5.9702607,3.070243-9.0502228,1.6061535-5.917762,3.1418054-11.859032,4.5946677-17.8215037.956832-3.9267652,1.321672-7.9633518,1.3913779-12.0162221.0559592-3.2488945-.5995505-6.3681777-1.7199726-9.388464-.978535-2.6379472-2.2729788-5.10395-3.5527034-7.5785183-2.6256633-5.0769594-4.7440249-10.394528-6.5343222-15.8559209-1.6144192-4.9249697-2.6490017-10.0006114-3.0716574-15.2054173-.1296875-1.5973861-.2888574-3.2006315-.2808127-4.8003471.0181227-3.5979601.2837743-7.1788129.8876123-10.7281571.6552003-3.8514646,1.1725358-7.7321787,1.9201616-11.5624885.8960548-4.5909171,2.15748-9.0834963,3.7460412-13.4639481.8708599-2.4015502,1.9401849-4.701515,3.1676191-6.9188374,1.7594888-3.1784178,3.9016308-6.0243595,6.4896344-8.4846677.4459057-.4239192.8804074-.8613926,1.345806-1.3177382-.0971993-.2086535-.1389698-.4065766-.2529215-.5272459-3.7642523-3.9870058-6.1180757-8.8778078-7.9344962-14.1005917-1.0929729-3.1426264-1.8028506-6.4038984-2.1301192-9.7290348-.4059475-4.1247825-.1081171-8.2219861,1.0847956-12.1908491,1.0106695-3.3622455,2.1917362-6.6576735,3.5147784-9.9027205,2.4758641-6.0725873,5.3137835-11.9494751,8.1366301-17.8418702,2.8485278-5.9459645,5.6864471-11.9023651,8.1395032-18.0558653,1.7560853-4.4052304,2.975961-8.925965,3.3934009-13.7148405.5160095-5.9201858-.1649604-11.6462017-2.0391523-17.2255225-.813-2.4203283-1.7230225-4.8000295-2.9320246-7.0332003-2.3826871-4.4011124-5.6611638-7.8031731-9.9603438-10.0552868-.1623083-.0850192-.326252-.1685205-.4951463-.2365971-.1106366-.0445921-.2316606-.0601464-.4743273-.1197163-.7145188.7574777-1.487428,1.5600652-2.2427007,2.3809837-1.4472487,1.5729722-3.115638,2.8295286-4.8828179,3.9566149-1.8267636,1.1651014-3.7770265,1.5639832-5.8978634,1.3699545-3.2873612-.3007321-5.5804075-3.1537686-4.9499159-6.8320886.0757173-.4414619.1338866-.8899363.2518607-1.319056,1.2098861-4.399724,4.1782444-5.8277071,7.2968881-6.0755052,1.9384169-.1540252,3.8523902.1548488,5.755048.5184451.9453838.1806628,1.8853749.3930695,2.8836238.6028525.3001288-.3270049.6164355-.6190186.8743518-.9609542,2.351967-3.1175419,4.3842239-6.4454668,5.8954765-10.1215925.8747938-2.1278793,1.5148772-4.3153108,1.8795845-6.6140167.5421326-3.4165091,1.2500654-6.8054451,1.3631331-10.2850009.1001166-3.0801798.1672588-6.1618009.2938964-9.2406865.0685125-1.6658803.2738289-3.3254306.3407059-4.9913285.0900829-2.2461425.0867235-4.496356.1585069-6.7435515.1107692-3.4662163.2721934-6.9294324.9227084-10.3416558.238777-1.252559.4879414-2.5028678.7376805-3.7815702,1.2112564-1.2659278,2.6303929-1.0149354,3.9453904-.7558952.6443709.3897457.8816451.9016285.8683404,1.5125699-.0152496.7027141-.0420799,1.4164674-.1696457,2.1031595-.575107,3.0956164-.908608,6.2180529-.9267307,9.3714037-.0247529,4.3070101-.127831,8.6067784-.6654993,12.8832152-.0557382.4435915-.0506992.8979723-.0491964,1.3472584.0119344,3.6000015-.1218196,7.1936142-.4260592,10.7789321-.0813309.9585187-.1757898,1.9189258-.3280201,2.8668671-.4062569,2.5301613-.7847994,5.0682469-1.2895374,7.5769182-.6883515,3.4214154-2.0541808,6.5719307-3.697552,9.5825986-1.2743763,2.3347738-2.6905512,4.5719155-4.3076225,6.6591912-.2213616.285719-.4069199.6028172-.603617.8971369.3399103.6373731.9090943.7468062,1.377808.9910039,3.8205651,1.9902555,6.9159588,4.8940141,9.4565782,8.4928214.5063293.7172154.9841044,1.4663394,1.3978313,2.2471132,2.3559894,4.4466105,4.139126,9.1369127,5.04685,14.1621383.5698912,3.1551569.9563016,6.354753.8221055,9.5715506-.2344453,5.6203008-1.2169142,11.0932947-3.314059,16.2889822-1.7617431,4.3648269-3.5607039,8.7099462-5.626775,12.929231-2.7876622,5.6930248-5.5484055,11.4034629-8.1920147,17.1732826-2.3527626,5.135141-4.5101984,10.370173-6.1998487,15.8065166-.6078604,1.955629-1.0299856,3.9442491-1.2342854,6.0039342-.6614769,6.6675449.8768271,12.8716377,3.4323425,18.8574527,1.0494343,2.4580492,2.2949027,4.81336,3.9288148,6.9034949.4967376.6354671,1.034229,1.2347898,1.6010261,1.9076248.4907261-.3088504.9122768-.5387763,1.2985545-.8230128,2.5382325-1.8679508,5.233425-3.4369108,8.0347454-4.8039239,1.5410887-.7520419,3.1242131-1.3358574,4.8302622-1.5287919.9117022-.1031149,1.802939-.0735123,2.7033255.0525693,2.424988.339559,3.8917297,2.0752159,3.9117088,4.6718889.0112714,1.4686454-.4432536,2.7801478-1.3139367,3.9104344-.8850928,1.148947-1.9118075,2.1337151-3.0995486,2.9307021-2.9943488,2.0093749-6.2623497,2.941456-9.7922009,2.904088-2.0102445-.021296-3.967226-.2918136-5.8095486-1.2152352-.2119909-.1062445-.4549228-.1423418-.7447085-.2293141-.3675805.3220045-.7478468.6287135-1.1003988.9681078-3.0438546,2.9297138-5.2956166,6.480611-7.1219382,10.3581955-1.5192089,3.2254571-2.6101043,6.6246941-3.5786939,10.0743825-1.2631049,4.4982267-2.1777685,9.076531-2.8591803,13.7117344-.2143335,1.4582916-.4844495,2.907453-.6892355,4.3671565-.4368886,3.1137533-.7962476,6.2360015-.7853298,9.3934998.0160452,4.6429687.5782895,9.2119546,1.5385692,13.7382308.9882593,4.6583583,2.6074964,9.0775899,4.3514263,13.4547708,1.2023719,3.017792,2.5647535,5.9502119,4.0764481,8.8072605,1.3325014,2.5183133,2.5803125,5.0807951,3.5284809,7.8018083,1.4984784,4.3003272,1.9549041,8.7236768,1.4662996,13.2640719-.2538056,2.358417-.5007599,4.7207402-.8608261,7.0620969-.2623807,1.706172-.6551119,3.3951425-1.0759553,5.0671704-1.5916553,6.3234444-3.1348215,12.6656433-5.1379495,18.8588175-1.9107025,5.907314-4.3438678,11.554276-7.6639382,16.7470808-2.992625,4.6807132-6.9071184,8.1940542-11.6064113,10.7691959-.2142451.117422-.4256172.2411975-.6350002.3681262-.0505224.030685-.0878286.085984-.1371576.1360589-.0057462.4198012.3303185.4593341.579925.559484.3373466.135353.6894123.2322084,1.0390912.3293934,4.7305434,1.314938,8.777288,3.9412371,12.2304053,7.5469626,5.5819546,5.8286484,10.4230461,12.3061062,14.3513305,19.5179808,3.0499544,5.5993578,5.0777027,11.6227526,6.369627,17.9438203,1.0900998,5.3334523,2.0301352,10.6950954,2.7732082,16.0937299.3407059,2.4754154.5859806,4.9687618.7897941,7.4618258.3188261,3.9004806.597694,7.8053851.8346588,11.7125016.2719724,4.4850491.5057547,8.9732514.7078444,13.4624891.1847627,4.104969.4056381,8.2126676.4235397,12.3201309.0156916,3.5922655-.2119467,7.1866018-.3636907,10.7785379-.1248695,2.9570573-.5140646,5.8786292-1.1554298,8.76128-.6404369,2.8782269-1.4745653,5.6843064-2.5270053,8.4273686-2.37367,6.1868913-5.1004223,12.19452-7.8565246,18.1952775-2.5157339,5.4775119-4.8305274,11.0539501-6.1266066,17.0503308-.8609587,3.9833584-1.2023719,7.9811651-.8575994,12.0470248.0487102.5743088.1458211,1.1440996.2262238,1.7150669.0433618.3076503.0987906.613371.1331794.8244012.5061083.3856336.9260677.1998762,1.3139809.0958201,2.7001872-.7243924,5.4574829-1.0560448,8.2178726-1.3405402,2.4844834-.2560223,4.9462914.0042827,7.3560299.6858479,3.5677762,1.009076,6.052348,4.3363773,6.2933351,8.2574244.2409429,3.9196352-1.3390432,6.6700392-4.6036848,8.3882123-.3780121.198982-.7543887.4197542-1.1547225.5495066-3.7552793,1.2175648-7.5443729,1.6536027-11.4100236.5830625-3.1155054-.8628516-5.5859769-2.7138832-7.3776003-5.5257514-.841952-1.3213385-1.4770848-2.7921489-2.2046431-4.1960357-.138793-.267788-.2713978-.5392469-.4544808-.9037492-.4003781.1861338-.7289727.3117448-1.0339196.4846539-8.01733,4.5450543-15.1359531,10.2858362-20.9636685,17.7681815-2.9929786,3.8427815-5.2728528,8.1261189-7.142934,12.6779503-.0703689.1713561-.0876076.3673731-.1562526.6692347.5725875.1886752,1.1330196.3800331,1.6972087.5580721,2.6820203.8461442,5.2186616,1.9968796,7.3815784,3.9457551,2.6664614,2.4026561,4.4405367,5.3551013,5.1431211,9.0453989.5129595,2.6944462-.2802381,4.8217843-2.2339929,6.4795285-1.9171117,1.6265886-4.1144615,2.6786802-6.5280898,3.1516625-1.6599468.3252518-3.3278941.5570367-5.0357554.439803-3.0567173-.2096653-5.2556142-1.6899824-6.4854794-4.7106217-.7001975-1.7197732-1.1421693-3.5007752-1.2837912-5.3841862-.2430646-3.2325636.0250623-6.4074752.7279119-9.5525018.0950776-.4254958.1447602-.862428.2299809-1.3826144-.6646594-.1048562-1.251303-.2123008-1.8416154-.2882604-4.2605699-.5482359-8.5294718-.759925-12.8231045-.5290813-6.4942313.3492069-12.7742396,1.8053336-18.925577,3.9736634-3.7199402,1.31122-7.4648984,2.5143835-11.2924032,3.4352166-4.3171479,1.0386316-8.6119962.9754261-12.9179832-.0020708-.5294246-.1201987-1.0611257-.2288199-1.6755058-.3607373-.372089.2270315-.793485.4661111-1.198239.733758-7.7672373,5.1367293-16.0979787,8.6975569-25.141935,10.3315343-2.6236521.4739707-5.2591945.7431706-7.9046601.9555655-.7198672.0577462-1.4500555.0515339-2.1708289.0002824-2.5874068-.1838278-5.1758303-.3634669-7.7583307-.6105472-5.265228-.5037615-10.3233715-1.9177198-15.1868291-4.1044042-1.9428149-.8734878-3.8480585-1.8432192-5.7591367-2.7947373-3.3940197-1.6898412-6.883117-3.1096353-10.5174828-4.0812022-6.1083956-1.6330833-12.2729714-1.844584-18.487053-.7342757-3.7579535.6714467-7.4115913,1.7364805-10.9972912,3.0916102-5.7411908,2.1697888-11.3970283,4.5595497-16.8804796,7.3957024-.2158364.1116332-.4295511.2278316-.6799532.3608785-.1363398.2622346-.3190471.5253163-.4193185.8202126-.9703798,2.854319-2.9270961,4.8381151-5.1813555,6.5081899-1.1325996.8390848-2.3964449,1.4819172-3.6187406,2.1780719-1.620961.9231862-3.3173299,1.1061198-5.123816.4358026-1.330004-1.1245684-1.6318898-2.0309532-.9788775-3.58963.3130468-.747218.7814621-1.4485025,1.2886755-2.0695919.9943812-1.2178472,2.1772491-2.2257937,3.476964-3.057019,1.2915817-.8260484,2.6094524-1.6056927,3.9208364-2.3962085.5204517-.3136744,1.0544954-.6018406,1.6521894-.9412113-.0244214-.3915635-.0097023-.7665608-.0760931-1.1244743-.6064459-3.2699316-2.166917-5.980991-4.4460398-8.203961-1.1063549-1.0790586-2.3058095-2.0856874-3.5771579-2.930608-3.9402409-2.6187691-8.2533997-4.1373953-12.8530179-4.8591993-4.7409639-.7439706-9.4971995-.855698-14.2639771-.6501742-4.7601474.2051002-9.5302402.3789977-14.2504735,1.1185444-4.7112936.7381819-9.4012599,1.6180232-14.001276,2.9741412-3.1353851.9243157-6.2952689,1.7549762-9.4266206,2.6940227-4.833942,1.4495379-9.4558599,3.4788439-13.869301,6.0246184-3.1279924,1.8042511-6.221187,3.6775435-9.3160613,5.5460826-4.1138593,2.4837455-8.4119287,4.4411865-13.0529804,5.5348346-3.4777154.8195537-6.9393856.8285898-10.4138246.1130922-4.2109757-.8672284-8.3189783-2.1063009-12.295691-3.8432991-2.8571692-1.2479204-5.5204315-2.8778034-8.187379-4.5062745-1.5170541-.9263394-3.0282708-1.8660447-4.5116488-2.8517776-1.2775311-.8488739-2.543313-1.7254678-3.7594288-2.6698794-3.6237381-2.8142684-5.3979295-6.6850994-5.395689-11.4123343.0018482-3.891821.8375484-7.6371822,2.3025938-11.2062928.9694515-2.3618055,2.1726052-4.5850107,3.6532648-6.6325301.2520154-.3484539.4614757-.7318284.7145686-1.1374637Zm18.1145109,6.9896435c.9683465-1.1763847,1.9566003-2.2934702,2.8562962-3.4861857,2.398445-3.1795708,3.3019146-6.9104837,3.4359338-10.9077256.0414114-1.2352134-.3302688-2.2752568-1.3153567-2.9872717-.9453119-.6832595-1.9836461-.913303-3.0895204-.5294108-.5124402.1778978-1.0117856.4097298-1.4987325.6578925-4.5855787,2.3368151-8.2599194,5.9127498-11.7087822,9.7916756-.0765185.0860781-.0955086.2300906-.1857738.4605107,3.2295455,3.2471532,6.5577932,6.3495408,11.5059355,7.0005151Zm356.5663262-19.9291695c.7760474,2.4538606,1.8068287,4.5415246,3.287538,6.3562237.8392557,1.0285601,1.8725565,1.8278296,3.0296217,2.4041151,2.9673859,1.4779168,5.8749227,1.0583039,8.6907855-.4765591,1.195609-.6518214,1.8777281-1.8194054,2.1385617-3.1954781.6160377-3.2498357-1.627989-6.5982212-4.7104759-7.0464485-.7725113-.1123392-1.5673887-.1215165-2.3481657-.0854192-3.0851831.1426948-6.1104289.6988843-9.0790524,1.6006099-.2802381.0850898-.5428398.2358793-1.0088131.4429562Zm-100.7659401,37.5213827c2.9506113-2.5395622,5.4945901-5.3118975,7.2740138-8.7997775.3705862-.7263691.6653445-1.5100138.8978671-2.2996825.3556461-1.2079169.2714641-2.3762538-.3824322-3.5004928-1.1253727-1.9348978-3.4937606-2.6689381-5.3600625-1.7964857-3.4779585,1.6258356-5.6729214,4.3835815-6.8105601,8.2075848-.5802786,1.9506168-.2430425,3.6775906.8715229,5.251657.8759873,1.2370959,1.9693801,2.229041,3.5096511,2.9371968ZM166.9939825,20.6754429c2.6480072-1.4599388,4.6464719-3.5552182,6.1356238-6.1764845,1.3269762-2.3358121,1.2189364-4.7420494.0239904-7.1402743-.638249-1.2809409-1.4762781-2.1759614-2.9655294-2.1687549-.4994118.0884415-1.0393895.1578123-1.5677975.2826922-1.4436131.3411562-2.7135471,1.0218698-3.7416542,2.1863785-1.3430987,1.5213103-2.3763552,3.2745599-2.9271071,5.2494877-.6115844,2.1930879-.1199852,4.2126342,1.595755,5.7285544.9735733.8601954,2.0638831,1.5404605,3.446719,2.0384009Zm208.4198593,600.7727521c-.6285467,1.3796965-.6996229,2.8076796-.864097,4.1920824-.2732101,2.2995413-.3447283,4.62332.2220688,6.8889289.2768346,1.106308.6604161,2.2066391,1.157021,3.2200449.603838,1.2322484,1.6039876,1.9038363,2.9874976,1.6357188.8285589-.1606257,1.6955733-.227361,2.4706925-.5436708,1.6887662-.6890011,3.358791-1.469775,4.1918143-3.2142562.2121235-1.0541153.0803143-1.9308504-.1272122-2.8137978-1.2401642-5.277071-6.2752566-8.7906944-10.037785-9.3650502ZM52.7233272,24.1637789c-2.8667167,2.1007563-4.035081,4.8572433-3.8271953,8.3614747,1.2738182,2.4236962,3.1348215,3.7912358,5.6678438,3.8390811.6667535-.2945433,1.0236095-.731699,1.2560326-1.2587184.767732-1.7408338,1.0233443-3.6149587.5047049-5.4241338-.6202644-2.1636912-1.853804-3.9868116-3.6013859-5.5177037Zm241.9424172-1.819876c-.8887836-2.634741-2.8782312-3.842652-4.7867236-5.1264579-1.4533927.612265-2.3454694,1.725456-3.0313235,3.0229366-.3472478.6568807-.6489458,1.3965568-.752267,2.1335974-.2964159,2.1148517,1.3818745,6.0404492,4.2104232,6.0746639,2.6740862-.9383817,3.6873636-3.3202536,4.3598909-6.1047401ZM17.0689566,473.8389267c-.6264568.0961495-1.0429395.1110685-1.4324122.2280198-1.9954535.5992051-3.7791261,1.6505907-5.4545048,2.9340906-2.0105028,1.5401811-3.393655,3.6141027-4.4955711,5.9298337-.5013214,1.0535034-.7494554,2.1725655-.5855724,3.3523388.0490417.3529719.2454943.6826947.3754014,1.0257363,3.9780457-1.8436898,9.8111565-8.5769346,11.5926591-13.4700192Zm403.2083133-247.2289018c1.0987633.8027757,2.1946535,1.0230067,3.3527354.9619896,2.5420339-.1339411,4.7883149-1.1222624,6.7575844-2.8001966.6010533-.5121387,1.1057914-1.1670427,1.5966501-1.8069337.444005-.5787798.4986824-1.3058313.3469383-2.0074688-.0718276-.3319583-.3297439-.6183362-.4810902-.8859124-2.7012922.4279667-8.5973433,3.7545855-11.5728181,6.5385219ZM53.5562069,302.683633c-.9780211-.0199311-1.5529734.4924193-2.1255664.9204566-2.1674253,1.6203763-4.1839188,3.4336635-5.9492698,5.5457061-.0994812.1189986-.1075812.324593-.1621701.5027967.7217734.6079823,1.5657366.7579954,2.3495801,1.0422789,1.1268148.4086473,2.1043939.1045973,2.9867683-.7466061,1.7277576-1.6667568,2.6601571-3.7494792,2.951639-6.1813614.0364055-.3037205-.0261452-.6208776-.050981-1.0832707ZM399.4108449,100.0809792c.1799005-.0610406.4217716-.1023148.624657-.2199368.5253802-.3045794,1.0508046-.6158536,1.5442712-.9743318.6425586-.4668053,1.2971401-.9316222,1.8696834-1.4871059.9731424-.9441998,1.8868336-1.957888,2.8225814-2.945574.0393394-.0415683.065993-.115163.0668328-.1743563.0007956-.0553107-.0406655-.111292-.0635619-.1669792-1.3204785-.5775444-3.6387197-1.0156296-4.709857-.9020903-.6832683.0724416-1.2886534.342771-1.7565273.8687344-1.0804639,1.2146704-1.6343541,2.6592902-1.5068767,4.3475666.0551636.7307459.3182957,1.3573769,1.1087971,1.6540733Zm-28.1435992,298.4723845c2.5602449-.6306902,4.7567991-1.7851906,6.8712268-3.1405086.0469863-.0301673.0058788-.2160659.0058788-.4255429-1.9081388-.130129-3.8220679-.2608698-5.7359971-.3902457-.0597164-.0040474-.1201399.0042827-.1802541.0072006-.8535328.0419331-1.4649735.5349642-1.9461079,1.2295658-.4117821.5944047-.3952949,1.3724488.0640039,1.9467106.2241463.2802597.5501331.4681819.9212497.7728202ZM23.0477724,174.4912308c-1.6952501.2928255-2.4175677.5857333-4.1203541,1.6468963-.7917197.4934076-1.580558.993557-2.0788053,1.8859994,2.2376244-.7394761,4.2672789-1.8591265,6.1991594-3.5328957Z" stroke-width="0"/>
  </g>
</svg>