<?xml version="1.0" encoding="UTF-8"?>
<svg id="Layer_2" data-name="Layer 2" xmlns="http://www.w3.org/2000/svg" viewBox="0 0 276.6371512 317.0211897">
  <g id="Layer_1-2" data-name="Layer 1">
    <g>
      <path d="m274.8771667,162.0788953c-.8720703-2.8056641-2.6635742-5.2304688-5.324707-7.2080078-6.3442383-4.7119141-13.5361328-6.9169922-21.3862305-6.5458984-3.5483398.1650391-6.8974609,1.4003906-9.6850586,3.5703125-1.6933594,1.3183594-2.9775391,1.3876953-4.7382812.2607422-.9477539-.6083984-1.9355469-1.1933594-2.890625-1.7587891-2.5131836-1.4882812-5.1118164-3.0273438-7.2744141-5.1552734-.1513672-.1484375-.3110352-.2900391-.4584961-.4199219l-.3251953-.2910156.0839844-.1689453c1.4946289-3.0244141,1.7817383-6.3271484,2.0595703-9.5205078l.0751953-.8544922c.6166992-6.8554688.4404297-13.6113281-.5229492-20.0791016-.8134766-5.4609375-2.190918-11.0253906-4.2114258-17.0097656-2.0966797-6.2119141-6.2192383-11.3154297-12.9726562-16.0595703-.284668-.1992188-.6508789-.3554688-1.0043945-.5058594-.5991211-.2548828-1.2182617-.5175781-1.5131836-1.0253906-.2788086-.4814453-.2001953-1.1083984-.1235352-1.7148438.0517578-.4121094.1054688-.8388672.0444336-1.1992188-.4838867-2.8583984.1669922-5.25,2.0478516-7.5283203.6152344-.7441406.9868164-1.7392578,1.3461914-2.7001953.1665039-.4453125.3388672-.9052734.5341797-1.3408203l.1103516-.2460938.2368164.1289062c6.5058594,3.5341797,15.0415039.9609375,18.6425781-5.6181641.6669922-1.21875,1.1479492-2.3242188,1.4702148-3.3789062.7416992-2.4248047.1777344-4.7509766-1.675293-6.9130859-.2646484-.3095703-.6337891-.5986328-1.0673828-.8349609-.8007812-.4384766-1.5766602-.4121094-2.3056641.078125-.7138672.4824219-1.0161133,1.1767578-.8730469,2.0087891.1523438.8876953.3579102,1.7851562.5571289,2.6533203.0761719.3320312.1523438.6640625.2255859.9960938.34375,1.5498047.0483398,2.8994141-.902832,4.1240234-2.2695312,2.9228516-8.0766602,4.8232422-11.7216797,3.8417969l-.4194336-.1132812.3081055-.3056641c3.5107422-3.4814453,4.8271484-7.3232422,4.0249023-11.7441406l-.0493164-.2724609,1.0722656-.0839844c.5297852-.0419922,1.0317383-.0810547,1.5336914-.1259766,3.1489258-.2822266,5.9355469-1.5019531,8.2832031-3.625,1.4394531-1.3017578,2.2402344-2.7373047,2.4472656-4.390625.1318359-1.0527344-.2143555-2.0117188-.949707-2.6318359-.7182617-.6064453-1.6899414-.7841797-2.6655273-.4882812-1.0151367.3085938-1.644043,1.1533203-1.6030273,2.1513672.0351562.8554688.6020508,1.4121094,1.7333984,1.7041016l.25.0644531-.0727539.2480469c-.3613281,1.2324219-1.3833008,1.7988281-2.1206055,2.1181641-2.847168,1.2333984-5.9682617,1.7138672-9.2797852,1.4296875-1.8588867-.1591797-4.0219727-.4824219-5.9672852-1.6708984-2.1660156-1.3222656-3.2094727-3.2275391-3.0180664-5.5087891.2426758-2.8886719.6308594-5.2099609,1.2211914-7.3046875.9833984-3.4912109.5126953-6.7558594-1.4384766-9.9804688-1.1235352-1.8574219-2.3447266-2.8183594-3.9599609-3.1162109-.2543945-.0478516-.5292969-.2431641-.640625-.4550781-.9858398-1.8632812-1.9589844-3.7333984-2.9433594-5.625l-.6513672-1.2519531-.1054688-.125.0810547-.1513672c.0742188-.1386719.3330078-.2255859.5092773-.2041016l1.0449219.125c1.2822266.1523438,2.6088867.3095703,3.9057617.5253906,1.1416016.1914062,2.3867188.6005859,2.9643555,2.1904297.1967773.5410156.8574219,1.0322266,1.4106445,1.3994141,1.5683594,1.0419922,2.890625,1.8398438,4.1611328,2.5107422,3.2924805,1.7363281,5.4716797,4.4707031,6.4770508,8.1259766.1660156.6044922.3173828,1.2148438.46875,1.8251953.3432617,1.3837891.6977539,2.8144531,1.2299805,4.1396484,1.0908203,2.7138672,2.9521484,4.4072266,5.5327148,5.0332031.4858398.1191406,1.1972656.2255859,1.8212891.0693359.3666992-.0927734.8623047-.5351562.8984375-.8017578.0273438-.2050781-.3945312-.7685547-.7138672-.8847656-2.6069336-.9550781-4.3164062-2.9023438-5.2265625-5.9541016-.2817383-.9462891-.4916992-1.9257812-.6943359-2.8740234l-.1044922-.4863281c-.9467773-4.3759766-3.2900391-8.3964844-7.1640625-12.2890625-1.4404297-1.4482422-3.3339844-2.2382812-5.9594727-2.4863281-.4047852-.0390625-.9785156-.3544922-1.1879883-.7617188-1.2368164-2.4013672-3.6118164-4.2539062-6.1987305-4.8339844-2.4438477-.5488281-4.9155273.0615234-7.1420898,1.7666016-.0307617.0244141-.0644531.0585938-.0976562.0917969-.1176758.1181641-.2651367.265625-.4575195.1923828-.262207-.0976562-.5288086-.1914062-.7949219-.2851562-.8208008-.2900391-1.6699219-.5898438-2.4379883-1.0253906-.3994141-.2275391-.6835938-.609375-.9584961-.9794922-.1743164-.234375-.3388672-.4550781-.5283203-.6367188-.3222656-.3105469-.7480469-.5449219-1.15625-.7578125-5.0029297-2.6015625-10.472168-3.5761719-16.7226562-2.96875-4.7011719.4550781-7.956543,3.0986328-9.9516602,8.0830078-.2626953.65625-.5327148,1.3095703-.8027344,1.9638672-.2734375.6601562-.5463867,1.3203125-.8120117,1.984375-.453125,1.1318359-1.2871094,1.2158203-2.125,1.1396484-2.1538086-.1992188-4.3266602-.2109375-6.1694336-.1914062-.4819336.0048828-1.0805664.2216797-1.6000977.5810547-5.0024414,3.4501953-7.1625977,7.2929688-6.7993164,12.09375.0961914,1.2734375.3735352,2.6367188.8725586,4.2880859.1123047.3720703.3432617.6113281.6333008.6552734.2949219.0478516.6020508-.1240234.8251953-.4541016.7749023-1.1416016,1.2539062-2.1445312,1.4648438-3.0664062.5810547-2.5429688.9375-5.0957031,1.1831055-7.0361328.2514648-1.9814453,1.1586914-3.5761719,2.6962891-4.7392578,1.8989258-1.4375,4.1064453-1.6025391,6.5581055-.4892578,3.2475586,1.4716797,4.0473633,1.2802734,6.1196289-1.4667969.9150391-1.2128906,1.6210938-2.3925781,2.0991211-3.5048828,1.1904297-2.7753906,3.3662109-4.3867188,6.6508789-4.9267578,4.8974609-.8037109,10.0449219-.3046875,15.2998047,1.4853516,1.0703125.3652344,2.265625.921875,3.0170898,2.2880859,1.1108398,2.0195312,2.7626953,3.8525391,4.9101562,5.4501953.5922852.4404297,1.1708984.8994141,1.75,1.3583984.6074219.4824219,1.2358398.9804688,1.8691406,1.4472656,1.6162109,1.1894531,2.7988281,2.7871094,3.7216797,5.0253906,1.0048828,2.4384766,1.1347656,5.0332031.3862305,7.7119141-.7685547,2.75-.9951172,5.7568359-.6933594,9.1933594.3896484,4.4316406,2.6923828,7.3466797,7.0405273,8.9121094.4892578.1757812.9907227.3144531,1.3735352.4150391l.112793.0302734c1.7402344.4599609,1.9624023.5927734,1.96875,2.5351562.0126953,4.2880859-.9301758,7.4736328-2.96875,10.0263672-.2128906.265625-.3989258.5498047-.5957031.8496094-.090332.1367188-.1806641.2744141-.2739258.4111328l-.0976562.1425781-.1679688-.0410156c-3.6157227-.8847656-6.5444336.5859375-8.2382812,4.1416016-1.112793,2.3378906-1.3847656,4.7734375-.831543,7.4462891.1826172.8798828.1064453,1.4697266-.2387695,1.8544922-.3525391.3935547-.956543.5361328-1.8955078.4443359-.6621094-.0634766-1.3237305-.1376953-2.0244141-.2167969l-1.1430664-.1269531-.0498047-.1542969c-.402832-1.2617188-1.597168-1.5644531-2.8618164-1.8857422l-.3417969-.0869141c-.4145508-.1103516-1.1772461-.1767578-1.612793.6064453-.3139648.5605469-.2285156,1.1337891.2607422,1.7509766.9155273,1.1552734,2.3061523,1.4951172,3.9145508.9589844l.137207-.0458984.1083984.0966797c.1499023.1337891.2949219.2714844.4394531.4101562.3081055.2939453.5996094.5722656.9282227.7939453,1.4111328.9482422,2.7646484.90625,4.1381836-.1318359,1.5488281-1.1708984,1.8955078-2.2490234,1.2797852-3.9765625-1.5483398-4.3427734.1484375-7.6054688,5.0424805-9.6982422.5102539-.21875,1.0839844-.2548828,1.6914062-.2939453.2866211-.0175781.5859375-.0371094.8955078-.0761719l.3999023-.0507812-.1318359.3808594c-.6020508,1.7353516-1.5898438,3.0820312-2.5449219,4.3837891-.2456055.3359375-.4873047.6650391-.7167969.9941406l-.0727539.1054688-.1279297.0019531c-.2797852.0048828-.5483398.0058594-.8081055.0048828-.5668945-.0097656-1.1000977-.0019531-1.6162109.0566406-.9580078.1103516-.9355469.6640625-.9282227.8466797.0141602.3564453.1450195.78125,1.0419922.9023438.1782227.0244141.3579102.0390625.5302734.0527344l.5131836.046875-.0410156.2626953c-.0991211.6318359-.1928711,1.2626953-.2856445,1.890625-.2285156,1.5439453-.4648438,3.1396484-.7822266,4.6884766-.1430664.6992188-.4990234,1.3466797-.8432617,1.9736328-.0961914.1757812-.1923828.3505859-.2832031.5263672-.6455078,1.2431641-1.3105469,2.4775391-1.9755859,3.7109375l-.5805664,1.0791016c-.081543.1542969-.1743164.3300781-.3349609.4462891-.5209961.3759766-1.0336914.7636719-1.546875,1.1513672-2.1445312,1.6210938-4.3623047,3.296875-7.121582,4.0605469-2.0898438.578125-4.0439453.6357422-5.9755859.1757812-.9467773-.2255859-1.925293-.4042969-2.8710938-.5771484-.7426758-.1357422-1.4848633-.2705078-2.222168-.4296875-.3969727-.0849609-.7543945-.2900391-1.1000977-.4882812l-.2299805-.1298828c-.2001953-.109375-.3930664-.234375-.5859375-.3603516-.2109375-.1367188-.4213867-.2744141-.644043-.3886719-1.3388672-.6845703-2.6811523-1.3623047-4.0229492-2.0410156-1.1655273-.5888672-2.3310547-1.1777344-3.4941406-1.7705078-2.7133789-1.3828125-5.137207-3.3359375-7.4091797-5.9707031-.7929688-.9189453-1.3505859-2.046875-1.8901367-3.1376953l-.2802734-.5634766c-.3969727-.7890625-.75-1.6113281-1.0908203-2.4072266-.2416992-.5625-.4833984-1.1259766-.7412109-1.6816406-.1713867-.3681641-.4272461-.7578125-.7617188-1.1591797-.6933594-.8339844-1.543457-1.0957031-2.3896484-.7353516-.809082.3417969-1.2392578,1.2265625-1.097168,2.2539062.355957,2.5751953,1.2475586,4.8222656,2.6503906,6.6777344,4.1206055,5.4453125,9.1918945,9.5195312,15.0732422,12.109375l4.1123047,1.8076172-.0058594.1689453c-.012207.3320312-.0366211.6660156-.0615234,1.0019531-.0527344.7080078-.1064453,1.4414062-.0302734,2.1376953.262207,2.3876953,1.3793945,4.6523438,3.4165039,6.9238281.6835938.7617188,1.8808594,1.1894531,2.9492188,1.53125.9648438.3085938,1.9814453.5283203,2.9648438.7402344.6801758.1474609,1.3837891.2988281,2.0693359.4794922,1.3349609.3515625,2.4335938.21875,3.1796875-.3867188.7358398-.5966797,1.0898438-1.6240234,1.0234375-2.9697266-.0146484-.2910156-.0498047-.5810547-.0883789-.9023438-.0195312-.1650391-.0405273-.3378906-.0600586-.5234375l-.0283203-.2675781,6.8134766-.2109375.1904297,1.9609375c.324707,3.4814453.9575195,6.0615234,2.0512695,8.3652344.6054688,1.2773438.6577148,2.5654297.1733398,4.3066406-.9165039,3.296875-1.8598633,6.9384766-2.9697266,11.4609375-.1845703.7539062-.2695312,1.53125-.359375,2.3544922-.0424805.3876953-.0854492.7822266-.1401367,1.1826172l-.0410156.3007812-.2875977-.0986328c-1.1772461-.4042969-2.4863281-.9677734-3.1206055-2.5566406l-.5761719-1.4511719c-.8886719-2.2470703-1.8071289-4.5703125-2.8754883-6.7705078-1.9790039-4.078125-4.9804688-7.2978516-8.9213867-9.5712891-1.4858398-.8574219-3.0854492-1.8359375-4.890625-2.9921875-.3950195-.2539062-.7709961-.6328125-1.1499023-1.1591797-.9550781-1.328125-1.9003906-2.6630859-2.8457031-3.9980469-1.3959961-1.9697266-2.8393555-4.0078125-4.2915039-5.9873047-5.4438477-7.4199219-13.2709961-11.1699219-23.9272461-11.4638672-1.3701172-.0546875-2.6669922.4257812-3.9819336,1.4160156-1.0771484.8115234-.7260742,1.4462891-.6108398,1.6552734.3867188.7001953,1.1254883.6279297,1.6879883.3291016,2.2753906-1.2089844,4.6665039-1.2392578,7.7514648-.0976562.1806641.0664062.3266602.109375.4589844.1347656,6.2768555,1.1845703,11.472168,4.7539062,15.8818359,10.9091797,1.9707031,2.75,3.6489258,5.7695312,5.2714844,8.6894531l.3232422.5820312c.8764648,1.5742188,1.7841797,2.4013672,3.1342773,2.8515625,1.2807617.4277344,2.5214844,1.0224609,3.7216797,1.5976562l.2148438.1035156c4.8583984,2.3261719,8.1401367,6.4228516,10.0332031,12.5244141.1669922.5400391.3598633,1.0703125.5527344,1.6015625.1621094.4462891.3242188.8925781.4716797,1.3447266.6757812,2.0703125,2.09375,3.4873047,4.4633789,4.4609375.9296875.3818359,1.8618164.7607422,2.793457,1.1396484,3.7993164,1.5439453,7.7280273,3.1396484,11.4770508,4.9570312,6.9638672,3.3730469,11.8652344,6.6152344,15.8935547,10.5107422,2.1855469,2.1142578,4.590332,3.5263672,7.3525391,4.3183594,1.1074219.3173828,2.3876953.7050781,3.5629883,1.2832031.9765625.4814453,1.9970703,1.1503906,3.0327148,1.9892578.7763672.6289062,1.5380859,1.3017578,2.2749023,1.953125,2.2446289,1.9833984,4.565918,4.0341797,7.5429688,5.0253906.7578125.2519531,1.5722656.4052734,2.3603516.5537109l.3242188.0615234c.4375.0830078.8823242.1425781,1.3261719.2021484.8208008.1103516,1.6694336.2246094,2.4667969.4882812,1.5268555.5019531,2.9858398.5742188,4.4648438.2158203l.097168-.0273438c.1147461-.0341797.2573242-.0761719.4077148-.0527344.4223633.0664062.8432617.1464844,1.2641602.2265625l.8100586.1523438-.1811523.3076172c-.090332.1533203-.171875.3173828-.2529297.4814453-.1918945.3867188-.390625.7871094-.7124023,1.0791016-.4482422.4082031-.6582031.7695312-.6420898,1.1054688.0166016.3398438.2666016.6855469.7646484,1.0576172,3.2407227,2.4169922,6.9140625,5.1572266,9.5888672,8.7978516.1879883.2558594.3286133.5400391.465332.8134766.0605469.1230469.121582.2451172.1870117.3652344l.1005859.1845703-.6113281.4794922-.1557617-.1337891c-.2416992-.2089844-.4887695-.4130859-.7358398-.6171875-.5410156-.4462891-1.1000977-.9072266-1.5986328-1.4208984-1.8051758-1.859375-3.4667969-3.203125-5.7070312-3.7138672-.1416016-.0322266-.2529297-.1201172-.3422852-.1904297-.0292969-.0224609-.0585938-.0458984-.0883789-.0664062-.6713867-.4453125-1.0864258-.4697266-1.4824219-.0791016-.1591797.15625-.6430664.6318359.0141602,1.5859375.371582.5390625.7802734,1.0712891,1.1757812,1.5859375.5849609.7607422,1.1894531,1.5478516,1.6962891,2.3837891,1.6845703,2.7822266,2.2578125,5.9296875,2.5966797,8.6416016l.0244141.1953125-.7709961.2929688-.0932617-.2226562c-.0644531-.1542969-.1352539-.3076172-.2060547-.4599609-.1591797-.3427734-.3232422-.6972656-.4199219-1.0742188-.5058594-1.9794922-1.4575195-3.8876953-2.909668-5.8339844l-.1254883-.1689453c-.5473633-.7431641-1.015625-1.3808594-2.0395508-1.2138672-.2260742.0400391-.375-.1386719-.5087891-.2929688-.0571289-.0654297-.152832-.1767578-.2001953-.1933594l-.1513672-.0546875c-.3344727-.1220703-.7514648-.2724609-.9750977-.1865234-.1333008.0517578-.3779297.546875-.3349609.8193359.1308594.8378906.4106445,1.6767578.6816406,2.4873047l.0244141.0732422c.5834961,1.75.5375977,3.5615234-.1450195,5.7021484l-.0683594.2138672-.2207031-.0449219c-.1376953-.0292969-.2758789-.0546875-.4125977-.0800781-1.015625-.1894531-2.0654297-.3857422-2.4931641-1.6699219-.0288086-.0869141-.1049805-.1845703-.175293-.2695312-.6542969-.7822266-1.097168-1.2197266-1.8876953-.875-.3857422.1669922-.7578125.5429688-.2114258,1.9824219.2041016.5380859.3012695,1,.3144531,1.4980469l.0107422.4169922-.3725586-.1865234c-2.0698242-1.0361328-3.4819336-2.0986328-4.5795898-3.4433594-2.1904297-2.6845703-4.4003906-5.3476562-6.5678711-7.9160156-.9521484-1.1269531-2.1201172-1.90625-3.472168-2.3164062-.3154297-.0957031-.7880859-.4648438-.8427734-.8505859-.3999023-2.8330078-1.7290039-5.3447266-3.0146484-7.7724609-.4008789-.7568359-.8012695-1.5136719-1.1767578-2.2822266-1.3242188-2.7089844-3.0961914-5.7685547-6.1972656-7.9101562-3.6499023-2.5214844-8.0234375-3.9541016-13.3701172-4.3798828-6.0898438-.4814453-12.6918945-.1884766-20.1782227.9013672-2.0458984.2988281-4.0678711.5019531-6.2084961.7167969-.9697266.0976562-1.9501953.1962891-2.9448242.3046875l-.2753906.0302734-.0019531-.2763672c-.0087891-1.265625-.8984375-1.6474609-1.9287109-2.0888672l-.3427734-.1494141c-9.7333984-4.3398438-18.5322266-10.4833984-26.8989258-18.78125-3.1762695-3.1513672-5.1772461-7.1787109-6.8671875-11.0615234-.6298828-1.4482422-1.5244141-2.8222656-2.3891602-4.1513672-.3085938-.4736328-.6166992-.9472656-.9145508-1.4248047-.1694336-.2714844-.4682617-.5410156-.9130859-.8232422-.4545898-.2880859-.9628906-.3535156-1.3935547-.1816406-.3984375.1601562-.6801758.5058594-.7939453.9726562-.1826172.7548828-.1650391,1.4892578.046875,1.9648438.5844727,1.3095703,1.2768555,2.6025391,1.9462891,3.8535156.2612305.4882812.5224609.9765625.7783203,1.4677734.034668.0673828.0732422.1318359.140625.2460938l.5341797.9169922-.6733398-.2695312c-.4667969-.1875-.9111328-.3681641-1.3413086-.5429688-.9296875-.3789062-1.8076172-.7373047-2.6860352-1.0595703l-.3134766-.1152344c-.7875977-.2939453-1.6020508-.5966797-2.4086914-.6796875-.4711914-.0537109-1.2661133.2460938-1.3916016.5195312-.1342773.2929688.0322266.8183594.1796875,1.2832031.0458984.1445312.0913086.2871094.128418.4228516.0151367.0556641.0976562.1611328.4052734.3476562,2.9526367,1.8007812,6.2983398,3.8408203,10.1381836,4.4248047.40625.0615234.8237305.0419922,1.2670898.0224609.387207-.0185547.7895508-.0361328,1.1875.0039062.484375.0498047.9580078.3886719,1.2158203.6640625.8813477.9414062,1.7456055,1.9306641,2.581543,2.8867188,1.703125,1.9482422,3.4643555,3.9619141,5.434082,5.6523438,3.3320312,2.8583984,6.9042969,5.5546875,10.359375,8.1621094,1.4404297,1.0869141,2.8813477,2.1738281,4.3095703,3.2753906.2597656.2011719.534668.3818359.8378906.5830078.1542969.1015625.315918.2080078.4863281.3251953l.6782227.4619141-.8208008-.0058594c-.5732422-.0039062-1.1293945-.0214844-1.6728516-.0380859-1.1577148-.0371094-2.2509766-.0712891-3.3266602.0302734-3.3295898.3095703-6.3505859,1.5537109-8.9785156,3.6972656-2.6616211,2.171875-4.7241211,4.0146484-6.4907227,5.7998047-2.121582,2.1435547-4.4589844,3.6123047-7.1459961,4.4892578-3.0498047.9951172-5.7802734,2.9345703-8.3476562,5.9306641l-.9863281,1.1552734c-1.269043,1.4912109-2.5810547,3.0322266-3.9458008,4.4814453-2.340332,2.4873047-3.6269531,5.2177734-3.934082,8.3496094l-.0512695.4892578c-.065918.6152344-.1337891,1.2509766-.1176758,1.8652344.1030273,3.8994141-1.3974609,7.2958984-4.8647461,11.0107422-.078125.0839844-.1738281.1259766-.2504883.1601562l-.3164062.1650391-.1005859-.2675781c-.2944336-.7822266-.5917969-1.5615234-.8881836-2.3388672-.6533203-1.7138672-1.3291016-3.4853516-1.9516602-5.2392578-.5004883-1.4101562-1.0102539-2.8173828-1.5205078-4.2246094-1.4755859-4.0742188-3.0019531-8.2861328-4.2661133-12.5039062-1.0795898-3.5996094-1.6879883-7.3964844-2.2763672-11.0673828l-.0761719-.4765625c-.8027344-5.0048828-1.5581055-10.3378906-1.215332-15.6904297.1328125-2.0761719.5507812-4.1591797.9555664-6.1738281l.1015625-.5068359c.1811523-.9082031.4394531-1.8105469.6889648-2.6835938.2016602-.7050781.409668-1.4326172.574707-2.1542969,1.6171875-7.0751953,4.0263672-12.9931641,7.3666992-18.0908203,2.0268555-3.09375,2.8149414-6.5244141,3.3740234-10.7226562l.1030273-.7832031c.3549805-2.7353516.722168-5.5634766,2.0615234-8.1494141,1.9379883-3.7402344,4.1342773-7.9794922,8.3447266-10.5947266,1.2358398-.7685547,2.4868164-1.5126953,3.7373047-2.2568359,1.2226562-.7275391,2.4458008-1.4550781,3.6547852-2.2050781l.5419922-.3349609c1.7895508-1.1064453,3.6401367-2.2509766,5.34375-3.5224609.8496094-.6347656,1.621582-1.5830078,2.0644531-2.5361328,1.9755859-4.2529297,2.3178711-7.8085938,1.0766602-11.1914062-.1416016-.3876953.0488281-.9873047.315918-1.3046875.753418-.8916016.9208984-1.7099609.5117188-2.5048828-.2446289-.4736328-.8022461-1.0410156-1.277832-1.1289062-2.0620117-.3837891-4.2788086-.6962891-7.1865234-1.0136719-1.0571289-.1142578-1.6777344-.5791016-1.8447266-1.3818359-.2431641-1.1708984-.3984375-2.4179688-.4741211-3.8125-.0253906-.4638672.3144531-1.03125.6630859-1.3515625,1.7241211-1.5849609,1.8183594-2.4863281.4804688-4.5917969-.9990234-1.5712891-1.9428711-3.3173828-2.9707031-5.4960938-.6611328-1.4023438-.8476562-2.9960938-.5556641-4.7373047.1591797-.9482422.4892578-1.5820312,1.0083008-1.9375.5151367-.3525391,1.2148438-.4316406,2.1386719-.2412109.203125.0419922.4042969.0947266.6049805.1484375.2749023.0732422.534668.1416016.7993164.1816406.9858398.1455078,1.5151367-.0400391,1.8232422-.6396484.3369141-.65625.1621094-1.2919922-.5341797-1.9433594-1.3378906-1.2519531-3.0175781-1.7646484-5.003418-1.5371094-2.3149414.2705078-3.9121094,1.6484375-4.6186523,3.9853516-.3427734,1.1337891-.4697266,2.4824219-.3583984,3.7958984.3203125,3.7587891,1.6220703,7.0869141,3.8696289,9.8925781.5610352.7021484.4575195,1.2285156.0888672,1.8994141-1.5712891,2.8613281-1.4116211,5.9033203.4750977,9.0410156,1.3730469,2.2851562,3.2197266,3.6875,5.4887695,4.1679688.3198242.0673828.828125.4082031.8974609.7900391l.0878906.484375c.2124023,1.1630859.4321289,2.3642578.4580078,3.5625.0766602,3.5029297-1.5087891,6.265625-4.7124023,8.2128906-3.0639648,1.8603516-6.2060547,3.6337891-9.3393555,5.2734375-3.0463867,1.59375-5.6000977,3.7949219-7.8066406,6.7285156l-.1650391.2207031c-.1323242.1787109-.2651367.3564453-.4033203.5302734-.0649414.0810547-.1494141.1152344-.2314453.1484375-.0332031.0126953-.0732422.0292969-.1210938.0517578l-.1699219.0810547-.125-.140625c-2.9902344-3.3759766-4.0102539-6.8095703-3.1181641-10.4970703.1508789-.6240234.5283203-1.1806641.8935547-1.71875.0981445-.1445312.1953125-.2880859.2875977-.4316406.496582-.7744141,1.0175781-1.5361328,1.5385742-2.296875,1.0083008-1.4736328,2.0512695-2.9980469,2.8837891-4.5898438,3.3325195-6.3681641,3.222168-12.7011719-.3364258-19.3613281-3.230957-6.0478516-8.324707-10.8378906-16.0292969-15.0732422-7.3022461-4.0136719-13.7832031-6.0117188-20.3959961-6.2880859-1.5429688-.0634766-3.1381836-.0429688-4.3457031.5478516-1.4707031.7207031-2.9570312,1.9501953-4.0771484,3.3730469-1.0405273,1.3222656-.8994141,3.0693359-.6264648,5.0488281.0683594.4951172.1801758.9794922.3100586,1.5400391.0629883.2714844.1289062.5556641.1943359.8603516l.0742188.3486328-.3525391-.0478516c-.1542969-.0214844-.296875-.0361328-.4311523-.0498047-.2763672-.0292969-.5146484-.0537109-.7558594-.1181641-1.3637695-.3662109-2.7294922-.7216797-4.0952148-1.078125-4.6948242-1.2226562-9.5498047-2.4873047-14.2167969-4.1835938-14.125-5.1347656-25.9604492-8.2070312-37.2460938-9.6679688-3.3925781-.4375-7.237793-.9345703-11.03125-.4589844-2.3696289.2988281-4.4101562,1.1933594-6.0644531,2.6611328-2.5551758,2.265625-3.121582,5.2460938-1.5952148,8.3935547,1.3227539,2.7285156,3.5336914,5.0263672,6.956543,7.2333984.2983398.1923828.8081055.5820312.8706055,1.0341797.472168,3.3984375,2.5380859,5.875,4.4970703,7.8496094,3.9902344,4.0214844,9.0419922,7.3056641,15.4428711,10.0410156.2783203.1191406.5581055.234375.8374023.3496094.2651367.109375.5302734.21875.7939453.3320312.0673828.0292969.1264648.0771484.1777344.1425781l.109375.0732422-.0444336.171875c-1.6513672,6.4033203,1.7353516,10.0673828,7.328125,13.5986328l.1845703.1162109-.2475586.5400391c-.1108398.2412109-.2177734.4716797-.3173828.7050781-1.0087891,2.3574219-.7202148,4.5039062.8583984,6.3798828l.0693359.0820312c1.734375,2.0634766,3.527832,4.1962891,5.5322266,6.0195312,2.2978516,2.0888672,5.3588867,3.4091797,9.0966797,3.9228516.590332.0820312,1.2119141-.0185547,1.8696289-.1230469.3095703-.0498047.6206055-.0996094.9306641-.1308594l.2128906-.0214844.0541992.2080078c.9023438,3.46875,2.7729492,4.9453125,6.9013672,5.4462891,1.2827148.1552734,1.7119141.6230469,1.7646484,1.9248047.1826172,4.4814453,2.4003906,7.6416016,6.5908203,9.3916016,2.5083008,1.0458984,2.6035156,1.1923828,2.5517578,3.9189453l-.0024414.1308594c-.0239258,1.2734375.0136719,2.5947266.1108398,3.9248047.1958008,2.6728516,1.550293,4.6113281,3.9174805,5.6054688.8950195.3759766,1.8793945.6083984,2.8310547.8330078.5683594.1347656,1.1557617.2734375,1.7255859.4423828.2832031.0839844,1.0356445.4023438,1.1132812.8613281.5776367,3.4296875,2.6928711,5.6748047,6.6572266,7.0664062.8959961.3154297,1.1713867.7294922,1.1328125,1.7060547-.1049805,2.6728516.7568359,5.1777344,2.5625,7.4472656,1.4726562,1.8515625,5.2397461,2.8505859,7.4643555,1.9853516.4995117-.1953125.9355469-.5693359,1.3974609-.9658203.2167969-.1855469.4335938-.3710938.6567383-.5380859l.3129883-.2333984.1123047.5136719c.0361328.1484375.0830078.3447266.1098633.5419922l.1298828.9833984c.2163086,1.6318359.4326172,3.2646484.6323242,4.8994141.1748047,1.4306641.3310547,2.8652344.4873047,4.2988281.3266602,2.9951172.6640625,6.0927734,1.171875,9.1054688.5551758,3.2958984,1.2568359,6.6259766,1.9355469,9.8466797.425293,2.0185547.8652344,4.1064453,1.2651367,6.1660156,1.059082,5.4541016,2.7363281,10.6591797,4.3916016,15.4716797l.0317383.0927734c.7573242,2.2011719,1.5405273,4.4775391,3.378418,6.1044922.3427734.3037109.184082,1.0488281.1772461,1.0810547-.5141602,2.3388672-.5117188,4.734375.0078125,7.1230469.3623047,1.6650391.2387695,2.8154297-.3881836,3.6201172-.6542969.8388672-1.8754883,1.2753906-3.7338867,1.3349609-2.0263672.0644531-4.3896484.3046875-6.5512695,1.5966797-.2314453.1386719-.5004883.1484375-.7602539.1582031-.1455078.0058594-.2827148.0107422-.4013672.0380859-.2729492.0644531-.5581055.1123047-.8432617.1601562-.6796875.1142578-1.3212891.2226562-1.8164062.5400391-2.3881836,1.5292969-3.590332,3.4609375-3.675293,5.9042969-.0571289,1.6308594-1.1743164,2.53125-2.2592773,3.1972656-.4272461.2617188-.8862305.4707031-1.3305664.671875-.3100586.140625-.6201172.28125-.9199219.4404297-1.9272461,1.0205078-3.1660156,2.5634766-3.4873047,4.3427734-.3071289,1.7021484.2685547,3.4775391,1.6210938,4.9990234,1.4238281,1.6035156,3.0991211,3.0126953,4.84375,4.0751953,2.2861328,1.3925781,4.7783203,2.5478516,7.1889648,3.6650391l.7714844.3583984c3.5307617,1.6425781,7.0478516,1.9140625,10.4555664.8027344,3.1459961-1.0244141,6.4033203-.9121094,9.9575195.3457031l.730957.2558594c1.0229492.3564453,2.0810547.7246094,3.0869141,1.1777344,4.0234375,1.8046875,7.8051758,1.4013672,11.5629883-1.2382812,1.3354492-.9384766,2.4707031-1.8417969,3.4707031-2.7607422,2.9326172-2.6972656,6.4882812-3.5488281,10.5717773-2.53125,2.0112305.5,4.0205078,1.0107422,6.0297852,1.5224609,1.6538086.4199219,3.3076172.8408203,4.9628906,1.2558594,3.453125.8652344,7.1425781,1.0742188,10.9672852.6171875.8491211-.1015625,1.6821289-.2998047,2.5644531-.5107422.40625-.0966797.8183594-.1953125,1.2402344-.2851562l.2270508-.0488281.0649414.2226562c.0541992.1269531.1289062.3046875.128418.4960938-.0146484,3.3271484-.0307617,7.0986328-.0942383,10.8203125-.0048828.2695312-.2290039.5595703-.6845703.8847656-.5014648.3583984-1.0297852.6972656-1.5405273,1.0244141-1.0014648.6425781-2.0371094,1.3066406-2.8774414,2.1240234-3.144043,3.0595703-3.8417969,6.9111328-2.1333008,11.7753906.4013672,1.1425781.8779297,2.2158203,1.4169922,3.1904297,2.1777344,3.9394531,3.9423828,8.0634766,5.2446289,12.2597656.456543,1.4716797,1.2612305,2.8789062,2.0390625,4.2392578.2592773.453125.5180664.9052734.7646484,1.3603516.4707031.8691406,1.0097656,1.7246094,1.5307617,2.5517578.2265625.359375.453125.71875.675293,1.0810547.8989258,1.4648438,1.1772461,3.078125.8754883,5.0742188-.1811523,1.2050781-.2163086,2.3310547-.1040039,3.3457031.1835938,1.6591797.8647461,2.3095703,2.6035156,2.4833984l.0849609.0087891.0625.0585938c.0869141.0683594.1826172.1416016.2104492.2695312.2348633,1.03125.6503906,1.4335938,1.4599609,1.3964844.8212891-.0400391,1.2954102-.6191406,1.409668-1.7197266.0664062-.6484375.0703125-1.1572266.012207-1.6005859-.0883789-.6787109-.230957-1.0517578-.4370117-1.140625-.2460938-.1044922-.7348633.1103516-1.4941406.6591797l-.3442383.25-.050293-.4228516c-.0317383-.2626953-.0698242-.5107422-.1069336-.75-.0771484-.5009766-.1499023-.9736328-.1396484-1.4501953.0859375-3.9013672-.4091797-7.0146484-1.5581055-9.7958984-.3857422-.9335938-.715332-1.796875-1.0078125-2.6376953-.534668-1.5380859-1.0610352-3.0800781-1.5878906-4.6210938-1.0805664-3.1640625-2.1977539-6.4355469-3.371582-9.625-.4658203-1.2646484-1.046875-2.5175781-1.6083984-3.7285156-.4858398-1.0478516-.9882812-2.1308594-1.418457-3.2246094-.3330078-.8476562-.4350586-1.921875-.2739258-2.8740234.1430664-.8427734.769043-1.65625,1.2270508-2.1943359.5146484-.6044922,1.0756836-1.1816406,1.6181641-1.7402344.5234375-.5380859,1.0644531-1.0947266,1.5576172-1.6708984.722168-.8417969.9902344-1.7451172.796875-2.6835938-.0537109-.2597656.0800781-.5283203.1879883-.7451172l.0288086-.0585938c.1469727-.2988281.3149414-.5927734.4824219-.8857422.331543-.5800781.6445312-1.1279297.8012695-1.71875,1.0869141-4.0966797,1.3334961-8.6298828.7524414-13.8574219-.1181641-1.0654297-.1630859-2.2128906.3051758-3.3808594.6015625-1.4980469.3691406-2.4755859-.7529297-3.1728516-.3579102-.2226562-.4433594-.8251953-.4614258-1.0048828-.1679688-1.703125-.3549805-3.40625-.5419922-5.1083984-.4462891-4.0625-.9082031-8.2636719-1.0942383-12.4121094-.324707-7.2519531,2.0507812-13.8740234,7.0610352-19.6806641,1.5966797-1.8505859,3.7055664-2.8652344,5.7451172-3.8476562.4018555-.1923828.8081055-.3769531,1.2143555-.5605469.5634766-.2548828,1.1455078-.5185547,1.7026367-.8027344.9204102-.4697266,1.9462891-1.3173828,1.605957-2.6855469-.2749023-1.1044922-1.3447266-1.8046875-2.6376953-1.7099609-3.8686523.2392578-6.46875,1.3554688-8.1816406,3.5126953-4.1743164,5.2548828-8.5947266,11.6904297-9.7275391,19.5898438-.1040039.7255859-.2460938,1.7197266-1.5629883,1.8251953-.1855469.015625-.472168.2148438-.6665039.4648438-2.0219727,2.5986328-4.7148438,3.9443359-8.0253906,5.4326172-7.1328125,3.2080078-14.4350586,3.9082031-21.7050781,2.0810547-1.0810547-.2714844-2.2255859-.4033203-3.3325195-.53125l-.6459961-.0751953c-.5727539-.0683594-1.0830078-.2060547-1.0410156-1.1279297.0380859-.828125-.0673828-1.6728516-.1884766-2.5371094-.2114258-1.5126953.1694336-2.9257812,1.2358398-4.5810547l.3720703-.5732422c.637207-.9785156,1.2958984-1.9902344,1.8037109-3.0429688,1.0629883-2.2060547,1.1469727-4.5214844.25-6.8837891l-.21875-.5771484c-.7612305-2.0087891-1.5488281-4.0859375-2.4365234-6.0751953-.7133789-1.5976562-.6381836-3.1142578.2226562-4.5087891,2.2880859-3.7041016,5.1479492-7.8007812,10.1494141-9.5097656,2.2324219-.7636719,3.4306641-2.2714844,3.6635742-4.6074219.3222656-3.2304688,1.7050781-6.2705078,4.3520508-9.5664062,1.8701172-2.3300781,4.5566406-3.4667969,6.9375-4.2714844,1.1669922-.3935547,2.375-.7197266,3.5429688-1.0351562.4233398-.1142578.8461914-.2275391,1.2680664-.3457031.2041016-.0546875.4472656-.0693359.7094727-.0410156,5.7319336.640625,11.6000977.3701172,17.9379883-.8291016,7.3833008-1.3945312,13.0576172-1.7451172,18.3979492-1.1298828,2.2949219.2626953,4.565918.9609375,6.6787109,1.6757812,3.1450195,1.0625,5.621582,3.265625,7.3603516,6.5498047.9775391,1.8457031,1.7460938,3.8330078,2.4897461,5.7548828.1982422.5126953.3964844,1.0253906.5986328,1.5361328.1665039.4189453-.0493164,1.1035156-.3393555,1.390625-.6899414.6845703-.9179688,1.421875-.7167969,2.3193359.1274414.5732422.265625,1.1435547.4150391,1.7109375.6503906,2.4677734.6235352,5.0039062-.0791016,7.5361328-.1367188.4951172-.2675781.9912109-.3984375,1.4882812-.2978516,1.1328125-.605957,2.3046875-.9897461,3.4326172-2.2944336,6.7460938-3.875,13.9599609-4.8325195,22.0546875-.5361328,4.5361328-1.4907227,9.3125-2.918457,14.6035156-.9580078,3.5507812-2.5620117,6.9658203-3.9770508,9.9794922-5.3540039,11.40625-7.9487305,22.0976562-7.9326172,32.6865234.0083008,5.5283203-.7851562,11.0078125-2.3583984,16.2851562-1.8764648,6.2949219-2.8305664,12.7255859-2.8359375,19.1123047-.0014648,1.4794922-.3227539,2.9677734-.6333008,4.4082031l-.0541992.2519531c-.1606445.7451172-.565918,1.4335938-1.0024414,2.1318359-.3417969.5478516-.9155273,1.4628906-1.9980469.8388672-.8496094-.4921875-.519043-1.1845703-.3217773-1.5976562.0551758-.1152344.1098633-.2275391.1435547-.3369141.3544922-1.1484375.7280273-2.2929688,1.1010742-3.4365234.2724609-.8349609.5449219-1.6708984.8105469-2.5078125l.065918-.2011719c.1108398-.3330078.2363281-.7109375.1689453-.9707031-.1503906-.5859375-.4467773-1.0927734-.6894531-1.1796875-.3037109-.109375-1.0566406.1289062-1.2011719.3789062-.3535156.609375-.7426758,1.2109375-1.1191406,1.7929688-1.1464844,1.7714844-2.331543,3.6035156-2.6030273,5.8066406-.0112305.0957031-.0444336.171875-.0991211.2978516-.0292969.0673828-.0673828.1552734-.1157227.2773438l-.1049805.265625-.2490234-.1386719c-.1782227-.0996094-.3574219-.1904297-.5341797-.2792969-.4135742-.2099609-.8041992-.4072266-1.1513672-.6894531-.6459961-.5283203-1.0712891-.8212891-1.5405273-.4902344-.5473633.3896484-1.0014648,1.0107422-1.1030273,1.5087891-.2104492,1.0273438.1230469,2.1386719.9150391,3.0507812.8666992.9990234,2.1000977,1.5595703,3.293457,1.4765625.3364258-.0205078.7719727-.0615234,1.1547852-.2011719.2915039-.1044922.5561523-.1582031.809082-.1582031.3876953,0,.7485352.125,1.1396484.3828125.7211914.4746094,1.612793.6259766,2.4462891.4082031.7924805-.2041016,1.4370117-.7128906,1.8144531-1.4326172l.4306641-.8164062c1.546875-2.9199219,3.1464844-5.9404297,3.1811523-9.2744141.0732422-7.0488281,2.1425781-13.4941406,4.2558594-19.4912109,1.0546875-2.9941406,1.7084961-5.8183594,1.9980469-8.6337891.1416016-1.3798828.3647461-2.7714844.5800781-4.1162109.1572266-.9814453.3198242-1.9951172.4492188-2.9951172.1694336-1.3105469.3154297-2.6240234.4614258-3.9375.203125-1.8261719.4125977-3.7148438.6855469-5.5644531l.168457-1.1591797c.371582-2.5703125.7548828-5.2285156,1.4790039-7.7529297,1.0341797-3.6044922,2.2504883-7.2197266,3.4267578-10.7148438.4863281-1.4453125.9726562-2.890625,1.4482422-4.3398438.0581055-.1767578.1337891-.3476562.2197266-.5390625.0405273-.0917969.0839844-.1875.128418-.2929688l.1005859-.2382812.2348633.109375c1.2890625.5996094,2.5336914.4609375,4.1616211-.4648438.359375-.2050781.8349609-.4501953,1.3286133-.5371094,2.4726562-.4345703,3.9892578-1.4716797,4.9165039-3.3632812l.4375-.8916016.0600586,1.6855469c.0151367.4931641.0307617.9863281.059082,1.4785156.0693359,1.1992188.1435547,2.3974609.2172852,3.5957031.1420898,2.2919922.2885742,4.6621094.3959961,6.9951172.1484375,3.21875-1.1313477,5.8955078-3.8037109,7.9570312-1.1015625.8496094-2.2485352,1.6738281-3.3583984,2.4716797l-.9248047.6660156c-6.0546875,4.3759766-5.0297852,10.5517578-3.1044922,14.9628906.9868164,2.2597656,2.7163086,4.1044922,5.4428711,5.8056641.8154297.5087891,1.6464844,1.0283203,2.4946289,1.46875,2.487793,1.2900391,4.0263672,3.3955078,4.5727539,6.2558594.2485352,1.3037109.449707,2.6357422.644043,3.9238281.1972656,1.3095703.4013672,2.6630859.6552734,3.9814453.371582,1.9296875.815918,3.6269531,1.359375,5.1894531.7890625,2.2714844,2.3115234,3.5693359,4.5258789,3.8574219,1.2416992.1611328,2.2963867.6933594,3.3193359,1.6738281l.0864258.0830078c.4912109.4707031.9990234.9580078,1.5629883,1.1416016.7407227.2402344,1.8198242.5361328,2.625.2900391.9111328-.2763672,1.6108398-.234375,2.4975586.1494141,1.6201172.7011719,2.9428711.578125,4.0454102-.3730469,1.0615234-.9160156,1.3974609-2.1777344,1.0263672-3.8574219-.2192383-.9951172-.4794922-1.8613281-.7939453-2.6484375-1.0380859-2.5947266-1.2006836-5.3173828-.4985352-8.3242188.1000977-.4287109.2055664-.8564453.3105469-1.2841797.5498047-2.2382812,1.1181641-4.5527344.9116211-6.9335938-.2543945-2.9375-.5175781-5.9755859-.6303711-9.0419922-.0419922-1.1523438-.0439453-2.8623047.4262695-4.3955078.46875-1.5283203.9316406-3.0585938,1.3945312-4.5888672,1.7788086-5.8798828,3.6176758-11.9589844,5.7841797-17.8095703,2.5576172-6.9072266,4.7885742-14.0458984,6.9462891-20.9482422.6704102-2.1455078,1.3408203-4.2910156,2.0219727-6.4335938.6845703-2.1533203,1.2285156-4.3955078,1.7539062-6.5634766.4389648-1.8105469.8930664-3.6826172,1.4277344-5.4990234.9047852-3.0751953.9677734-6.2714844,1.0292969-9.3623047.0185547-.9550781.0375977-1.9101562.0795898-2.8642578.0400391-.8935547.090332-1.7871094.140625-2.6806641.109375-1.9384766.222168-3.9443359.2163086-5.9121094-.0170898-5.5205078-.0546875-10.5029297-.340332-15.5712891-.1474609-2.6054688-.8808594-5.2080078-1.4194336-6.9394531Zm-55.0913086-20.2207031l-.0629883.3183594-.2919922-.1425781c-.6342773-.3105469-1.2548828-.6210938-1.8676758-.9267578-1.3466797-.6738281-2.6191406-1.3095703-3.9311523-1.9023438-4.3793945-1.9775391-9.0449219-4.0478516-14.2641602-6.3261719-.7207031-.3154297-.9926758-.7314453-1.003418-1.5371094-.0092773-.7529297-.0737305-1.5224609-.1357422-2.2666016-.0595703-.7138672-.1210938-1.4511719-.1357422-2.1816406-.0073242-.375-.0209961-.7519531-.034668-1.1308594-.0517578-1.4208984-.1054688-2.8896484.1777344-4.2802734.4331055-2.1279297,1.2602539-4.2050781,2.0893555-6.1318359.7636719-1.7753906.8969727-3.2792969.4316406-4.875-.1254883-.4316406-.2607422-.8632812-.3959961-1.296875-.4770508-1.5283203-.9711914-3.109375-1.0644531-4.7011719-.0429688-.7255859-.1621094-1.4736328-.2773438-2.1962891-.300293-1.8847656-.6108398-3.8339844.309082-5.7998047.3129883-.6679688,0-1.4648438-.7612305-1.9365234-.6958008-.4335938-1.4008789-.3447266-2.097168.2597656-.1586914.1386719-.3017578.2949219-.4448242.4501953l-.1176758.1269531c-1.2412109,1.3310547-2.7709961,2.0712891-4.5473633,2.1972656-1.3007812.09375-2.6538086.2304688-4.0209961.4082031-1.5664062.203125-2.0605469.7802734-2.0332031,2.3759766.0039062.2119141.0292969.4423828.0546875.6738281.0693359.6279297.1411133,1.2773438-.184082,1.6845703-.3183594.4003906-.96875.4570312-1.5976562.5117188-.2324219.0205078-.4643555.0400391-.6723633.078125-1.1777344.2128906-2.6621094-.1816406-3.8696289-1.0371094-1.0703125-.7587891-1.7753906-1.7685547-1.9350586-2.7714844-.1791992-1.1269531-.1962891-2.2597656-.2148438-3.4599609-.0083008-.5351562-.0166016-1.0810547-.0405273-1.6367188l-.0151367-.3662109.3461914.1191406c.1435547.0488281.2773438.0996094.4057617.1474609.2514648.09375.4692383.1757812.690918.2246094.3344727.0732422.6699219.1621094,1.0063477.2509766.7885742.2089844,1.6005859.4472656,2.3857422.4160156,6.1640625-.0605469,10.8120117-1.5292969,14.6274414-4.6240234.4003906-.3242188.8061523-.6445312,1.2124023-.9648438,2.2236328-1.7529297,4.5224609-3.5654297,5.8730469-6.1933594l.1030273-.2001953.2099609.0810547c2.8427734,1.1083984,4.9736328,2.3798828,6.7050781,4.0019531.6005859.5625,1.2177734,1.1074219,1.8354492,1.6513672.6049805.5341797,1.2104492,1.0683594,1.7998047,1.6191406.284668.265625.4487305.6669922.5834961,1.0615234.1616211.4726562.2973633.9628906.4287109,1.4375.2509766.90625.5102539,1.84375.9526367,2.6445312,1.8364258,3.3271484,3.0874023,7.1699219,3.9375,12.0917969,1.0483398,6.078125,1.53125,12.7714844,1.4770508,20.4628906-.034668,4.9121094-.8413086,9.6269531-1.6259766,13.5908203ZM25.6056823,58.7820203l-.1103516.1347656-.1640625-.0566406c-4.4584961-1.5263672-10.684082-6.4423828-13.0610352-10.3134766-.4775391-.7763672-.7866211-1.6679688-1.0258789-2.4384766-.1225586-.3945312-.0605469-.9580078.1508789-1.3710938.4829102-.9384766.3930664-1.7636719-.2744141-2.5224609-.4609375-.5244141-.9658203-1.03125-1.4536133-1.5205078-.4057617-.4082031-.8120117-.8154297-1.2006836-1.2392578-.2836914-.3085938-.5761719-.6132812-.8686523-.9169922-.8525391-.8886719-1.7348633-1.8076172-2.4121094-2.8476562-.6416016-.9853516-.8374023-1.7998047-.5986328-2.4902344s.8959961-1.2089844,2.0092773-1.5869141c1.612793-.5478516,3.3994141-.9462891,5.3105469-1.1835938,4.8168945-.59375,9.5625.1113281,14.1518555.7939453,10.3066406,1.5332031,20.3081055,4.7910156,29.9804688,7.9423828,6.6762695,2.1748047,13.5849609,3.9326172,21.121582,5.3730469l.1137695.0205078c.347168.0615234.7402344.1308594.9023438.40625.7036133,1.1943359,1.3813477,2.4287109,2.0371094,3.6230469l.6948242,1.2617188-.3950195.5917969-.1582031-.0253906c-.4775391-.0761719-.9580078-.1396484-1.4384766-.2041016-1.0405273-.1386719-2.1166992-.28125-3.1503906-.5488281-2.0205078-.5234375-4.0639648-1.0927734-6.0405273-1.6435547-2.652832-.7392578-5.3959961-1.5039062-8.1142578-2.1650391-1.824707-.4443359-3.6450195-.9082031-5.465332-1.3720703-5.6689453-1.4433594-11.5307617-2.9375-17.4355469-3.7783203l-1.2519531-.1796875c-5.109375-.7382812-10.3920898-1.5029297-15.6376953-.6083984-1.2333984.2109375-2.2460938.5556641-3.0092773,1.0273438-.425293.2626953-.7231445,1.0908203-.7880859,1.7353516-.0805664.8007812.71875,1.2011719,1.2021484,1.3681641l.0644531.0224609c.3227539.1113281.6572266.2255859.9692383.2363281,1.0341797.0361328,2.0703125.0986328,3.1069336.1611328,2.3862305.1455078,4.8530273.2939453,7.2421875.0898438,9.2602539-.7900391,18.4672852-.0566406,28.1489258,2.2470703,2.3452148.5576172,4.71875,1.1650391,7.0141602,1.7529297,2.7905273.7148438,5.6757812,1.453125,8.5283203,2.1064453,2.1040039.4824219,4.2807617.6318359,6.3300781.7431641.7685547.0419922,1.4384766.1464844,1.8481445.9990234.1113281.2304688.2573242.4472656.4228516.6279297.6103516.6679688.3774414,1.2285156.0356445,1.8398438-.6210938,1.1123047-1.1523438,2.3369141-1.578125,3.6396484-.1904297.5800781-.4370117.9462891-1.0307617.9462891-.0639648,0-.1313477-.0039062-.2036133-.0126953-.4023438-.0478516-.8071289-.0888672-1.2114258-.1298828-.9643555-.0976562-1.9614258-.1992188-2.9291992-.3935547-8.6152344-1.7285156-17.7993164-2.9980469-28.9023438-3.9941406-4.2197266-.3779297-9.7739258-.6181641-15.3037109.8867188-.2631836.0712891-.527832.140625-.7929688.2099609-2.0390625.5302734-3.965332,1.0322266-5.3793945,2.7558594Zm8.824707,12.3388672c-.5537109-.6445312-1.0297852-1.5234375-1.4155273-2.6152344-.4550781-1.2871094-.0737305-2.5283203,1.019043-3.3193359.7001953-.5078125,1.0585938-1.0976562,1.0097656-1.6630859-.0488281-.5625-.5009766-1.0800781-1.2744141-1.4570312-.5209961-.2539062-1.0693359-.4833984-1.5991211-.7060547-.2421875-.1015625-.4838867-.203125-.7246094-.3066406l-.4731445-.2041016.4536133-.2451172c.4301758-.2333984.8139648-.2910156,1.234375-.3388672.7817383-.0898438,1.565918-.1640625,2.3505859-.2382812,1.6713867-.1591797,3.3999023-.3222656,5.0644531-.6386719,5.3398438-1.0166016,11.0097656-1.2138672,18.3876953-.6367188,2.9853516.2333984,5.9897461.7167969,8.8950195,1.1845703,4.4482422.7167969,9.0454102,1.4628906,13.6894531,1.3183594l.2236328-.0068359.03125.2226562c.4277344,3.0585938,1.7851562,5.8457031,4.1489258,8.5214844l.5273438.5966797-.7739258-.1884766c-.6967773-.1699219-1.3793945-.3476562-2.0527344-.5234375-1.465332-.3828125-2.8491211-.7441406-4.269043-.9921875-4.2783203-.7470703-8.6738281-.7167969-12.9267578-.6933594-1.90625.0107422-3.8779297.0234375-5.8154297-.0332031-5.3178711-.1630859-10.6391602.7148438-15.8134766,2.5976562-2.0507812.7451172-3.730957,1.5712891-3.5180664,4.1416016l.034668.4179688-.3842773-.1689453c-2.1445312-.9423828-4.3588867-2.0830078-6.0292969-4.0253906Zm22.7578125,21.4277344l-.1362305.1767578-.1914062-.1152344c-.4243164-.2568359-.8476562-.515625-1.2705078-.7753906-.9101562-.5576172-1.8510742-1.1347656-2.7915039-1.6728516-.855957-.4892578-1.7231445-.9609375-2.590332-1.4326172-1.6386719-.8916016-3.3334961-1.8134766-4.9223633-2.8496094-1.7216797-1.1210938-3.2768555-2.6015625-4.5996094-3.9013672-.3891602-.3828125-.5444336-.8203125-.4370117-1.234375.1118164-.4335938.4926758-.7695312,1.0449219-.9228516,1.0668945-.2949219,1.6206055-.6005859,1.8510742-1.0205078.234375-.4257812.1918945-1.0732422-.1416016-2.1650391l-.0795898-.2607422.2666016-.0566406c.4130859-.0888672.8183594-.1796875,1.2192383-.2695312.8959961-.2001953,1.7426758-.3896484,2.612793-.5419922,1.1337891-.1992188,2.2929688-.3701172,3.4145508-.5351562,2.2182617-.3271484,4.512207-.6650391,6.6982422-1.2382812,4.8916016-1.28125,10.1601562-2.4189453,15.5751953-2.1103516.5522461.0322266,1.105957.0605469,1.6591797.0878906,3.6577148.1826172,7.4394531.3720703,10.9643555,1.9267578.1860352.0820312.46875.0859375.5332031.0439453.3789062-.3330078.7246094-.7158203,1.0913086-1.1210938.1450195-.1601562.2919922-.3222656.4458008-.4873047l.1323242-.1416016.1699219.0927734c1.2392578.6777344,1.2890625.8007812.8842773,2.2011719l-.0375977.1308594c-.1953125.6767578-.3144531,1.4277344-.3642578,2.2978516-.0302734.5253906.0063477,1.0507812.0444336,1.6083984.0170898.2460938.0341797.4941406.0458984.7441406l.0092773.2119141-.206543.0439453c-.0625.0136719-.1181641.0283203-.1689453.0410156-.1108398.0292969-.215332.0556641-.3295898.0595703-6.9462891.1845703-13.3837891,2.3398438-19.3818359,4.5302734-4.0756836,1.4892578-7.6782227,4.3203125-11.0136719,8.6552734Zm35.7954102,39.0292969l-.546875-.1787109c-1.1894531-.3867188-2.4194336-.7871094-3.5678711-1.3300781-1.6884766-.796875-2.3129883-2.3505859-1.6303711-4.0537109.4223633-1.0537109.3959961-2.0253906-.074707-2.7363281-.4970703-.75-1.4726562-1.1777344-2.7460938-1.2021484-.5488281-.0146484-1.1152344.0400391-1.6625977.0888672-.3735352.0332031-.7470703.0664062-1.1210938.0830078-1.574707.0605469-2.5615234-.1728516-3.1987305-.78125-.6264648-.5976562-.9082031-1.5371094-.9130859-3.0439453-.0053711-1.7207031.1015625-3.4667969.2050781-5.1552734l.0224609-.3662109c.0825195-1.3544922-.4384766-2.2607422-1.5927734-2.7705078-.5961914-.2626953-1.2329102-.4755859-1.8486328-.6806641-.2895508-.0966797-.5791016-.1933594-.8662109-.2958984-.2211914-.078125-.4453125-.1503906-.6694336-.2216797-.5019531-.1601562-1.0209961-.3261719-1.5019531-.5703125-2.2436523-1.1376953-3.2856445-2.9121094-3.0961914-5.2744141.074707-.9326172.1743164-2.0322266.3442383-3.1132812.2216797-1.4052734-.2905273-2.3447266-1.5214844-2.7919922-.5854492-.2138672-1.2373047-.3125-1.8676758-.4072266-.2075195-.03125-.4150391-.0634766-.6206055-.0986328-.6337891-.1074219-1.2705078-.1982422-1.9077148-.2890625l-.9555664-.1386719-.3510742-.7304688.1152344-.125c.3061523-.3310547.5976562-.6845703.8896484-1.0371094.6538086-.7900391,1.3300781-1.6074219,2.1704102-2.1884766l.2270508-.1582031c1.9614258-1.3603516,3.9902344-2.7675781,6.2241211-3.5058594,4.6899414-1.5527344,9.5253906-2.9199219,14.2021484-4.2421875,1.4853516-.4199219,2.9711914-.8398438,4.4545898-1.265625.3510742-.1005859.862793.0820312,1.1298828.3125,1.3813477,1.1865234,2.6186523,2.3007812,3.7836914,3.40625.262207.2480469.4375.7490234.3994141,1.140625-.0639648.6425781-.1606445,1.2919922-.2543945,1.9199219-.1567383,1.0458984-.3183594,2.1289062-.3232422,3.1845703-.0273438,6.0605469,1.5678711,10.5185547,5.0200195,14.0302734.2890625.2929688.2895508,1.0400391.0874023,1.4228516-1.5605469,2.9599609-1.5932617,5.4179688-.1025391,7.7363281.1806641.28125.2260742.7587891.1040039,1.0859375-.4306641,1.1542969-.3979492,2.0263672.1035156,2.7431641l.1083984.1552734-.1201172.1464844c-2.3583984,2.8857422-2.6225586,6.3037109-2.8779297,9.609375-.0595703.7714844-.121582,1.5693359-.2089844,2.3427734l-.0332031.2900391-.28125-.0771484c-.3334961-.0917969-.6635742-.1777344-.9907227-.2626953-.7392578-.1923828-1.4375-.375-2.1381836-.6054688Zm10.6518555,6.7470703c.0102539.8457031-.0004883,1.6923828-.0112305,2.5429688-.0053711.3955078-.0102539.7910156-.0131836,1.1875l-.0014648.1865234-.1791992.0517578c-.4599609.1328125-.9023438.1875-1.3310547.1875-1.0097656.0009766-1.9428711-.3037109-2.8540039-.6005859-.5058594-.1640625-1.0288086-.3349609-1.5463867-.4433594-1.2407227-.2617188-2.2167969-1.4355469-2.487793-2.9912109-.2460938-1.4111328.1835938-2.6455078,1.1210938-3.2236328l.1293945-.0791016.1303711.0771484c.3198242.1914062.6259766.3847656.9243164.5722656.6699219.421875,1.3027344.8203125,1.96875,1.1240234.2016602.0917969.3178711.0888672.355957.0576172.0488281-.0390625.1113281-.2080078.0351562-.5927734l-.059082-.2939453c-.1625977-.8007812-.3310547-1.6289062-.2255859-2.4296875.2001953-1.5175781.4516602-3.0517578.6953125-4.5351562.2421875-1.4755859.4926758-3.0019531.690918-4.5068359.1074219-.8154297.0961914-1.6689453.0854492-2.4951172-.0068359-.4960938-.0131836-.9921875.0039062-1.4863281.0102539-.2929688.1391602-.6386719.3452148-.9248047,1.2241211-1.6982422,1.7871094-3.1904297.5576172-4.9589844-.2675781-.3837891-.3032227-.9384766-.315918-1.4267578-.0410156-1.6005859.4873047-2.9970703,1.5712891-4.1484375.8344727-.8867188.9736328-1.9160156.4023438-2.9765625l-.2001953-.375c-.4282227-.8046875-.8706055-1.6367188-1.4516602-2.3095703-3.3149414-3.8378906-4.2753906-8.5175781-3.0229492-14.7275391.5893555-2.9228516.3974609-3.9443359-2.0761719-5.5605469-1.765625-1.1533203-3.003418-2.6191406-3.7851562-4.4824219-1.0092773-2.4072266-.949707-2.7470703.800293-4.5537109,1.0898438-1.125,1.1186523-2.4833984.0751953-3.5458984-.8061523-.8212891-1.6401367-1.4599609-2.4790039-1.8994141-2.8945312-1.5146484-4.9243164-3.9648438-6.2045898-7.4902344-.7392578-2.0341797-.2695312-3.7548828,1.4350586-5.2617188.4233398-.3740234.7563477-1.1416016.7749023-1.7851562.0185547-.6425781-.1831055-1.4052734-.5996094-2.2675781-.7314453-1.5136719-1.5039062-2.9765625-2.2504883-4.3916016-.2749023-.5214844-.5424805-1.0283203-.796875-1.5175781l-.0712891-.1367188.090332-.125c.1547852-.2148438.3173828-.4072266.4707031-.5888672.2856445-.3388672.5322266-.6308594.59375-.9248047s.0253906-.7285156-.9926758-1.1074219c-.246582-.0908203-.4975586-.1708984-.7485352-.25-.2783203-.0888672-.5571289-.1777344-.8295898-.28125-.3168945-.1191406-.6630859-.25-.8110352-.5234375-.824707-1.5214844-1.6230469-3.1630859-1.5424805-5.0332031.019043-.4394531.5385742-.8466797.7612305-1.0009766.2158203-.1513672.4663086-.2646484.7084961-.3740234.3554688-.1601562.690918-.3115234.828125-.5419922.5717773-.9550781,1.3208008-1.0371094,2.1030273-1.0400391h.1113281c6.015625,0,11.4467773,1.9384766,15.9707031,3.8378906,7.0444336,2.9580078,12.2373047,7.015625,15.8745117,12.4033203,4.0825195,6.046875,4.4223633,12.2363281,1.0102539,18.3964844-.878418,1.5859375-1.9223633,3.1083984-2.9316406,4.5810547-.3510742.5117188-.7021484,1.0234375-1.046875,1.5380859-1.6484375,2.4638672-2.3139648,4.6796875-2.09375,6.9726562.4790039,4.9941406,2.2119141,8.8613281,5.2983398,11.8222656.6166992.5927734.5830078,1.0722656.3164062,1.7001953-.1235352.2910156-.2495117.5820312-.3759766.8740234-.5805664,1.3408203-1.1811523,2.7265625-1.5180664,4.1386719-.5405273,2.2705078-1.0073242,4.6005859-1.4589844,6.8535156-.3251953,1.6230469-.6616211,3.3017578-1.0234375,4.9462891-.3427734,1.5605469-.7333984,3.2089844-1.3974609,4.7050781-1.3994141,3.1474609-2.9160156,6.2695312-4.5068359,9.2802734-2.0703125,3.9160156-3.0512695,7.8974609-2.9995117,12.171875Zm49.4946289,88.609375c8.484375,1.5976562,16.6748047-.4365234,25.0371094-6.2177734.2763672-.1904297.5415039-.3994141.8417969-.6347656.1513672-.1191406.3115234-.2451172.4863281-.3789062l.3608398-.2763672.1992188,2.2587891c.1079102,1.2363281.2094727,2.4033203.3242188,3.5693359.1235352,1.2617188.2504883,2.5224609.3779297,3.7832031.2475586,2.4580078.5039062,5,.7285156,7.5029297.0439453.4912109.0004883,1.4101562-.4428711,1.7333984l-.0708008.0517578c-1.0830078.7919922-2.2026367,1.6123047-3.4643555,1.9677734-1.324707.3740234-2.8764648.5117188-4.6118164.4111328-6.7910156-.4003906-12.4287109-.8037109-17.7436523-1.2685547-4.8388672-.4238281-8.8120117.7294922-12.1401367,3.5234375-.6494141.5458984-1.4121094,1.0869141-2.4008789,1.7050781-2.5141602,1.5703125-4.8447266,2.3466797-7.1240234,2.3466797-1.300293,0-2.5839844-.2529297-3.8754883-.7539062-.4824219-.1875-.996582-.3320312-1.4941406-.4716797-.293457-.0830078-.5869141-.1650391-.8769531-.2568359-3.105957-.9794922-6.0703125-1.6591797-9.0629883-2.0761719-2.4750977-.3466797-4.7280273-1.0332031-6.5151367-1.9853516-3.3046875-1.7636719-6.5429688-3.7753906-9.6748047-5.7207031-.7983398-.4960938-1.5961914-.9921875-2.3959961-1.484375-1.0371094-.6386719-1.6000977-1.0878906-1.6044922-1.6386719-.0043945-.5478516.5571289-1.0136719,1.5288086-1.6347656,2.2460938-1.4326172,3.6977539-3.5820312,5.1020508-5.6601562.3486328-.5166016.6982422-1.0332031,1.0595703-1.5410156.1342773-.1894531.4194336-.5361328.8183594-.7294922.3022461-.1474609.6186523-.2685547.9248047-.3847656.4067383-.1552734.7910156-.3027344,1.1455078-.5058594.7553711-.4345703,1.3256836-.5048828,2.0107422.4121094,2.0380859,2.7226562,4.6079102,3.8027344,7.6337891,3.2080078,1.5239258-.2998047,2.7275391-.0517578,3.8974609.8076172.1538086.1123047.3222656.2060547.4907227.2998047.1313477.0732422.262207.1464844.3881836.2275391,3.8706055,2.4951172,7.6000977,2.4462891,11.3999023-.1523438l.3237305-.2226562c1.1767578-.8076172,2.3930664-1.6416016,3.7070312-2.2275391.9394531-.4189453,2.2871094-.7441406,3.2475586-.3974609,3.7641602,1.3623047,7.6787109,2.0996094,11.4643555,2.8115234Zm22.6547852-71.9912109c-.2602539.1699219-.5058594.3632812-.7460938.5507812-.5405273.4228516-1.0512695.8222656-1.6538086.9443359-2.8510742.5791016-5.671875,1.8115234-8.6240234,3.7685547-3.9609375,2.6259766-6.296875,6.2441406-6.9423828,10.7548828-.1962891,1.3701172-.2490234,2.7949219-.2744141,4.0078125-.034668,1.6367188-.7368164,2.6357422-2.1464844,3.0556641-.2714844.0820312-.5385742.1767578-.8056641.2724609-.1538086.0556641-.3071289.1103516-.4619141.1621094-.3706055.1259766-.7446289.2441406-1.1191406.3623047-1.5932617.5048828-3.2407227,1.0263672-4.574707,2.1210938-2.4526367,2.0117188-4.4277344,4.4824219-5.8701172,7.34375-1.03125,2.046875-1.1206055,4.2421875-.2587891,6.3505859.34375.8417969.7583008,1.6757812,1.159668,2.4824219.2387695.4804688.4780273.9619141.7050781,1.4482422,1.1259766,2.4150391,2.1772461,5.2294922.3852539,8.0625-1.8847656,2.9804688-2.8481445,6.4550781-3.1235352,11.2666016-.0234375.4150391-.4482422.9755859-.8574219,1.1298828-.4936523.1884766-1.0107422.3310547-1.5102539.46875-.703125.1943359-1.3666992.3769531-1.9833984.6767578-2.0473633.9951172-3.6704102,1.9208984-5.1083984,2.9121094-1.0561523.7275391-2.1196289,1.0908203-3.2324219,1.0908203-1.0673828,0-2.1796875-.3339844-3.3730469-1.0029297-.3618164-.2021484-.7260742-.4228516-1.0830078-.65625-1.2421875-.8134766-2.6870117-1.3496094-4.546875-1.6884766-.7670898-.1396484-1.4702148-.4765625-2.2143555-.8339844-.3261719-.15625-.65625-.3144531-.9970703-.4570312l-.2905273-.1210938.1845703-.2558594c.081543-.1132812.1352539-.1914062.1738281-.2470703.0693359-.1015625.1044922-.1523438.1665039-.2001953.1162109-.0917969.2416992-.1806641.3745117-.2539062,1.3945312-.7626953,2.2685547-1.9970703,2.6728516-3.7744141.3637695-1.5986328.2631836-3.2539062-.315918-5.2099609-.5581055-1.8876953-.4438477-3.5869141.3398438-5.0507812l.34375-.6474609c.8144531-1.5419922,1.65625-3.1347656,2.8442383-4.3837891,3.5336914-3.7148438,5.5463867-8.1289062,6.1533203-13.4931641.2451172-2.1582031,1.2177734-4.1904297,1.9907227-5.515625,1.4614258-2.5058594,3.1806641-4.9111328,4.8432617-7.2373047l.6347656-.8886719c1.6962891-2.3808594,3.7910156-3.9130859,6.2270508-4.5556641,5.1811523-1.3632812,9.5766602-3.8261719,13.4375-7.5283203,1.2558594-1.2041016,2.8095703-2.3623047,4.6181641-3.4404297,2.6474609-1.5761719,5.7475586-2.0175781,9.7553711-1.3886719,1.9038086.2958984,2.8666992-.1933594,3.3291016-1.6953125l.1025391-.3339844,1.9760742,1.4296875-.3041992.1982422Zm55.7124023,71.5810547c-2.2880859-.6210938-4.1933594-.0605469-5.659668,1.6699219-1.1469727,1.3525391-2.4916992,1.9492188-4.1577148,2.4287109l-.371582.1064453.0546875-.3818359c.2783203-1.9433594.5146484-3.921875.7431641-5.8349609.8745117-7.3144531,1.7788086-14.8789062,5.1977539-21.7929688l.2729492-.5517578.1889648.5849609c.105957.328125.1523438.6699219.1450195,1.0751953-.065918,3.7265625.434082,7.3964844,1.4853516,10.9091797.7148438,2.390625,1.3271484,4.7314453,1.8188477,6.9580078.2211914.9980469.3237305,2.0068359.4331055,3.0751953.0493164.484375.0996094.9775391.1625977,1.4814453l.0463867.3701172-.3598633-.0976562Zm41.1162109-38.5976562c-.0961914,2.0126953-.1953125,4.09375-.1948242,6.1367188.0004883,2.6542969-.1083984,6.140625-.9614258,9.5576172-.8193359,3.2802734-1.7133789,6.5976562-2.578125,9.8066406-.6542969,2.4277344-1.309082,4.8554688-1.9379883,7.2900391-2.9995117,11.6044922-6.8515625,22.6835938-11.4501953,32.9296875-3.3754883,7.5214844-4.5703125,14.9824219-3.5512695,22.1767578.703125,4.9628906.5415039,9.1367188-.5078125,13.1357422-.8764648,3.3417969-.6049805,6.6630859.7856445,9.6064453.1196289.2539062.1914062.5273438.2739258.84375.043457.1650391.0908203.3476562.1523438.5537109l.1328125.4472656-1.8144531-.5566406c-1-.3095703-1.7460938-.2265625-2.3491211.2587891-.328125.2636719-.6347656.3623047-.9194336.3623047-.3564453,0-.6782227-.1542969-.9658203-.3310547-.5439453-.3339844-1.0957031-.65625-1.6474609-.9785156-.8417969-.4921875-1.7128906-1.0009766-2.5429688-1.546875-.4892578-.3222656-.9086914-.8916016-1.0439453-1.4160156-.4326172-1.6904297-.8369141-3.5097656-1.3105469-5.8984375-.2128906-1.0732422-.4047852-2.1513672-.597168-3.2285156-.2480469-1.3916016-.5043945-2.8300781-.8032227-4.2324219-1.1162109-5.25-3.8876953-8.7929688-8.4736328-10.8300781-1.7402344-.7724609-3.2451172-2.0595703-4.3618164-3.0947266-2.0913086-1.9384766-2.7895508-4.4199219-2.0756836-7.3769531.6987305-2.890625,2.1669922-5.2382812,4.3647461-6.9794922,4.2114258-3.3369141,6.2734375-7.7080078,6.1274414-12.9931641-.0317383-1.1542969-.0888672-2.3095703-.1464844-3.4638672-.0683594-1.3837891-.1391602-2.8144531-.1635742-4.2246094-.0205078-1.2001953.0024414-2.4199219.0244141-3.5996094.034668-1.8525391.0703125-3.7675781-.0620117-5.6337891-.0634766-.9023438-.1303711-1.8046875-.1972656-2.7070312-.4233398-5.7138672-.8608398-11.6230469-.4858398-17.4785156.0498047-.78125.09375-1.5625.1376953-2.34375.2207031-3.9355469.4492188-8.0058594,1.4985352-11.9423828.3666992-1.3740234.34375-2.9208984.2929688-4.2626953-.0234375-.6220703-.2280273-1.2373047-.4448242-1.8886719-.0922852-.2783203-.1845703-.5566406-.262207-.8349609-.1606445-.5742188-.3271484-1.1464844-.4941406-1.71875l-.2646484-.9121094.637207-.515625.140625.0644531c.2768555.1269531.5600586.2431641.8427734.3603516.6254883.2578125,1.2719727.5234375,1.8496094.8974609,2.1508789,1.3935547,3.6889648,3.3994141,5.1767578,5.3388672.3344727.4365234.6689453.8730469,1.0107422,1.3027344.9375,1.1796875,1.8735352,2.3066406,3.0107422,3.1376953,2.0776367,1.5185547,3.3339844,1.3134766,4.9804688-.8183594l.1352539-.1757812.2978516.1748047c.0869141.0488281.1748047.0976562.2558594.1572266.8837891.6416016,1.6445312.8691406,2.2558594.671875.5991211-.1914062,1.0737305-.7919922,1.4091797-1.7861328.125-.3710938.2578125-.7402344.4101562-1.1621094l.421875-1.1787109.2583008.546875c.2197266.4648438.4228516.9121094.6196289,1.3466797.4238281.9335938.824707,1.8164062,1.2900391,2.6464844.6860352,1.2216797,1.6313477,1.7919922,2.8051758,1.6738281,1.1293945-.1083984,1.9160156-.8037109,2.5517578-2.2558594.1860352-.4238281.2871094-.9384766.2773438-1.4091797-.0151367-.7226562-.0854492-1.4609375-.1538086-2.1748047-.0288086-.3046875-.0581055-.609375-.0830078-.9140625l-.4248047-5.1601562.4189453.2539062c.3828125.2314453.7412109.4580078,1.0864258.6748047.7270508.4589844,1.4140625.8916016,2.1181641,1.2441406.8999023.4501953,1.8046875.3408203,2.550293-.3037109.7573242-.6572266.9570312-1.5722656.5620117-2.5761719-.3955078-1.0048828-.8637695-1.8232422-1.3920898-2.4326172-1.8608398-2.1513672-3.4331055-3.8369141-4.9487305-5.3037109-.8920898-.8632812-1.8984375-1.6484375-2.8710938-2.4082031-.4428711-.3457031-.8852539-.6904297-1.3193359-1.0449219l-.2421875-.1962891.2451172-.1933594c1.1572266-.9121094,1.7768555-1.8886719,1.8413086-2.9013672.065918-1.0361328-.4472656-2.1181641-1.5249023-3.2167969-1.6337891-1.6621094-3.6542969-1.9882812-5.8442383-.9384766-1.7319336.8291016-3.4047852.859375-4.9570312.7763672-.4130859-.0234375-.8276367-.0195312-1.2421875-.0175781-.2402344.0019531-.4804688.0019531-.7216797,0-1.9619141-.0244141-3.3383789-.6191406-4.3305664-1.8710938-.7412109-.9335938-1.4980469-1.8388672-2.2993164-2.7978516-.3535156-.4228516-.7124023-.8525391-1.0766602-1.2929688l-.171875-.2070312.2197266-.15625c4.1875-2.9707031,8.2709961-4.1640625,12.480957-3.6552734,5.3286133.6484375,9.9228516,2.3232422,14.0449219,5.1210938,3.4765625,2.359375,5.3276367,5.4541016,5.6591797,9.4609375.3374023,4.0771484.6904297,8.8955078.7480469,13.7255859.0268555,2.2871094-.0839844,4.6103516-.1914062,6.8564453Z" stroke-width="0"/>
      <path d="m181.2375182,8.6697157c-1.8852539-.5439453-3.8686523-.609375-6.0654297-.2001953-1.9760742.3857422-3.7680664,1.3359375-5.3251953,2.8222656-1.515625,1.4472656-2.9384766,3.0478516-4.3144531,4.5966797l-.4213867.4736328c-.4511719.5068359-.8798828,1.0556641-1.2939453,1.5859375-.5336914.6826172-1.0849609,1.3886719-1.6982422,2.0244141-2.2587891,2.3408203-4.9975586,3.2871094-8.1416016,2.8144531-.3916016-.0585938-.7368164-.0878906-1.0478516-.0878906-.2963867,0-.5615234.0263672-.8046875.0800781-.2583008.0566406-.6489258.4384766-.675293.6601562-.0366211.3085938.1879883.8378906.4077148.9589844.8203125.453125,1.793457.9443359,2.7939453,1.1455078,4.3500977.8779297,8.1279297-.1621094,11.2373047-3.0820312,1.3754883-1.2910156,2.6103516-2.7148438,3.8588867-4.1816406,1.6181641-1.9013672,3.5810547-2.9208984,6.0004883-3.1162109.8354492-.0683594,1.6699219-.1552734,2.5043945-.2412109,1.0795898-.1123047,2.1962891-.2285156,3.2993164-.2998047.3417969-.0205078.6645508.0878906.9775391.1953125.2285156.078125.4438477.1523438.6523438.171875.2993164.0292969.7060547-.0283203.8994141-.1923828,1.199707-1.0205078,1.2983398-2.6162109.2514648-4.0654297-.71875-.9951172-1.730957-1.6699219-3.0947266-2.0625Z" stroke-width="0"/>
      <path d="m197.1232604,29.800575c.1049805.2275391.7270508.5175781.9658203.4580078.3354492-.0917969.7900391-.5810547.8237305-.8867188.0839844-.7597656-.0307617-1.5283203-.3071289-2.0556641-1.7387695-3.3212891-4.4516602-5.0039062-8.0664062-5.0039062-.0996094,0-.1992188.0009766-.300293.0039062-4.1376953.1044922-6.987793,1.8984375-8.4707031,5.3320312-1.0874023,2.5205078-.734375,4.9189453,1.0209961,6.9365234,1.8881836,2.1689453,4.2612305,2.9951172,7.0581055,2.4638672,1.4667969-.28125,2.5693359-1.3935547,2.7426758-2.7675781.0854492-.6748047-.1044922-1.3417969-.5083008-1.7841797-.3300781-.3623047-.7597656-.5488281-1.2631836-.5273438-.8212891.0283203-1.6420898.2382812-2.5107422.4609375-.3959961.1015625-.7983398.2041016-1.2104492.2919922l-.1645508.0351562-.0942383-.1386719c-.6352539-.9335938-.8305664-1.9667969-.5498047-2.9091797.2924805-.9824219,1.0722656-1.7802734,2.1948242-2.2470703,2.6508789-1.1054688,7.21875-.7470703,8.6396484,2.3378906Z" stroke-width="0"/>
      <path d="m172.3859557,31.2976453c1.2373047.3037109,2.9389648.9462891,3.4306641,3.0244141.2133789.9033203.7094727,1.3271484,1.4799805,1.2431641.6640625-.0673828,1.0961914-.7783203,1.050293-1.7285156-.0205078-.4199219-.0786133-.8447266-.1210938-1.1542969-.015625-.1113281-.0288086-.2080078-.0375977-.2861328-.3916016-2.0419922-1.3637695-3.6152344-2.8125-4.5498047-1.0117188-.6533203-2.2255859-.9833984-3.581543-.9833984-.7319336,0-1.5048828.0966797-2.3100586.2900391-2.5170898.6054688-4.5678711,2.4882812-5.4858398,5.0380859-.8671875,2.4082031-.53125,4.9853516.8989258,6.8916016,1.0776367,1.4375,2.4936523,2.2451172,4.2084961,2.3994141,1.1894531.1083984,2.2504883-.46875,2.6391602-1.4345703.3574219-.8847656.0351562-1.7382812-.984375-2.6083984-.4072266-.3466797-.8032227-.6884766-1.171875-1.0615234-1.234375-1.2519531-1.3710938-2.0224609-.6098633-3.4335938.7177734-1.3310547,2.0566406-1.9775391,3.4072266-1.6464844Z" stroke-width="0"/>
      <path d="m154.7350768,47.363075c.7050781.1474609,1.3876953.4619141,1.9897461.7392578,1.7724609.8154297,2.3657227.3779297,2.7441406-.2167969.5185547-.8134766.1704102-1.9550781-.8461914-2.7763672-1.2353516-.9990234-2.6889648-1.8808594-4.90625-1.8808594-.6108398,0-1.2788086.0673828-2.0170898.2167969l-.0048828.0009766c-1.6376953.3007812-3.3789062,2.1416016-4.1401367,4.3769531-.4804688,1.4111328-.9594727,4.140625,1.2260742,6.5673828,1.0541992,1.1708984,1.9750977,2.4863281,2.8657227,3.7587891.3300781.4726562.6606445.9443359.9980469,1.4101562,1.1025391,1.5224609,1.9296875,1.4042969,2.4570312,1.1796875.8510742-.3613281,1.5053711-1.3623047,1.1083984-2.5742188-.378418-1.1582031-1.0043945-2.3857422-1.9692383-3.8642578-.371582-.5693359-.871582-1.0478516-1.4008789-1.5546875-.2607422-.25-.5214844-.5-.7661133-.7607422-.559082-.5957031-1.3237305-1.4121094-.5405273-2.6748047.7109375-1.1455078,1.6459961-2.2675781,3.2021484-1.9472656Z" stroke-width="0"/>
      <path d="m196.0534362,269.7390516c.1801758-.0117188.3603516-.0224609.5390625-.0253906.9023438-.2275391,2.0063477-.75,2.2109375-1.9560547.1713867-1.0078125-.3911133-1.8964844-1.5424805-2.4365234-.7592773-.3554688-1.5869141-.6191406-2.3876953-.8740234-.3037109-.0966797-.6074219-.1923828-.9086914-.2939453-.4067383-.1376953-.8168945-.265625-1.2275391-.3935547-.8374023-.2607422-1.703125-.53125-2.5283203-.8769531-.3632812-.1523438-.6420898-.4453125-.9116211-.7285156-.1640625-.1728516-.3193359-.3359375-.4887695-.4648438-.1323242-.1015625-.5219727-.3984375-.7543945-.3984375-.0112305,0-.0224609.0009766-.0327148.0029297-.8642578.1201172-1.5683594.6035156-1.9316406,1.3261719-.3691406.7333984-.3364258,1.6015625.0898438,2.3828125.2089844.3818359.484375.7333984.7753906.9892578,2.2514648,1.9775391,4.9272461,3.2333984,7.953125,3.734375.3632812.0605469.7426758.0361328,1.1455078.0126953Z" stroke-width="0"/>
      <path d="m146.6896667,31.6335828c-1.5874023.5087891-2.5361328,1.9541016-2.4174805,3.6816406.0200195.2939453.0693359.5839844.1220703.890625.0239258.1416016.0483398.2841797.0693359.4257812l.0039062.0253906-.0014648.0263672c-.1049805,1.8164062,1.1645508,2.6279297,2.5087891,3.4873047l.2275391.1464844c1.0683594.6855469,2.3237305.5166016,3.0532227-.4160156.1020508-.1308594.1323242-.3583984.1635742-.6005859.0185547-.1425781.0380859-.2861328.0708008-.4179688.0263672-.1064453.0439453-.2216797.0620117-.3359375.0498047-.3183594.1010742-.6464844.3115234-.8837891,1.2172852-1.3710938,1.3925781-2.96875.4819336-4.3828125-.746582-1.1591797-2.0761719-1.8359375-3.4350586-1.8359375-.4091797,0-.8212891.0615234-1.2207031.1894531Z" stroke-width="0"/>
      <path d="m186.773651,86.5808485c-.0859375.6962891.5839844,1.0507812,1.1606445,1.2246094.7133789.2158203,1.3964844.1542969,1.9741211-.1767578.6503906-.3730469,1.1293945-1.0751953,1.3476562-1.9785156l.081543-.3369141.2939453.1835938c.1894531.1181641.3720703.2353516.5512695.3505859.3955078.2558594.769043.4960938,1.1577148.703125,1.0703125.5683594,1.4726562-.0429688,1.6049805-.2441406.3457031-.5244141.2182617-1.0234375-.378418-1.4824219-.1723633-.1318359-.3427734-.2666016-.5126953-.4013672-1.1958008-.9443359-2.3256836-1.8359375-3.9731445-1.8896484-.6210938-.0214844-1.1904297-.6748047-1.6928711-1.2519531-.0830078-.0957031-.1640625-.1884766-.2421875-.2744141-.5537109-.6123047-1.2373047-.9345703-1.9331055-.8769531-.6464844.0429688-1.234375.4042969-1.6547852,1.0175781-.503418.7353516-.5410156,1.4248047-.1118164,2.0498047.421875.6132812.9501953.5458984,1.7705078.3632812.0625-.0136719.1254883-.0205078.1889648-.0205078.3530273,0,.7236328.1972656,1.1123047.4033203.2050781.109375.421875.2246094.6503906.3183594l.3720703.1533203-.3022461.265625c-.1367188.1201172-.2431641.2080078-.3271484.2763672-.1186523.0986328-.1845703.1523438-.21875.2011719-.1035156.1503906-.2236328.2988281-.3447266.4482422-.2631836.3242188-.5351562.6591797-.5742188.9746094Z" stroke-width="0"/>
      <path d="m192.3132018,59.9470594c.5444336.2578125.7895508.3251953,1.027832-.0332031.265625-.3994141.1401367-.7470703-.4643555-1.28125-3.1235352-2.7607422-7.0810547-3.9833984-12.4458008-3.8339844-.0893555.0273438-.1855469.0498047-.2822266.0712891-.1728516.0390625-.3691406.0830078-.4365234.1611328l-.1577148.1787109c-.3652344.4111328-.7788086.8779297-.8095703,1.2929688.0019531.1796875.6025391.71875,1.0712891.8417969,1.1171875.2949219,2.1616211.4287109,3.1074219.3847656.1967773-.0078125.3925781-.0117188.5869141-.0117188,3.1157227,0,5.949707,1.0117188,8.5585938,2.1181641.0800781.0341797.1621094.0722656.2441406.1113281Z" stroke-width="0"/>
      <path d="m188.2619323,64.6335828c-.0205078-.1601562-.1904297-.3056641-.4667969-.4003906-.4848633-.1650391-1.0634766-.2685547-1.7680664-.3173828-3.2373047-.2167969-5.7250977-1.0263672-7.8291016-2.5488281-.7294922-.5263672-1.503418-.9013672-2.237793-1.0839844-.0859375-.0205078-.1816406-.0302734-.2822266-.0302734-.4291992,0-.9355469.1748047-1.0478516.3554688-.1333008.2148438.0195312.9628906.3276367,1.3251953.5664062.6650391,1.25,1.1757812,1.875,1.4023438,2.2446289.8154297,4.652832,1.5947266,7.578125,2.4541016.4223633.125.9111328.1025391,1.3862305.0820312.2084961-.0097656.4125977-.015625.6147461-.0166016.1650391-.0742188.3271484-.1416016.4853516-.2070312.3603516-.1503906.7001953-.2910156.9921875-.4833984.2539062-.1679688.3935547-.3662109.3725586-.53125Z" stroke-width="0"/>
      <path d="m136.1818542,148.4997938c.0288086.5087891.3886719.5742188,1.1450195.5947266.1386719.0039062.2724609.0078125.3935547.0185547,3.2548828.3037109,6.6411133-.1269531,10.6606445-1.3525391l.2514648-.0761719c.8911133-.2705078,1.8125-.5498047,2.6547852-.9414062.190918-.0888672.3525391-.3574219.5087891-.6162109.0336914-.0556641.0673828-.1113281.1010742-.1660156-.0634766-.0361328-.1274414-.0732422-.1914062-.1103516-.2753906-.1611328-.565918-.3203125-.777832-.3085938-.7407227.0703125-1.4926758.2480469-2.2197266.4208984-.2246094.0527344-.4492188.1064453-.6743164.15625l.0239258.1494141-2.9726562.4052734c-2.4492188.3320312-4.9814453.6748047-7.4667969,1.0410156-.0820312.0126953-.168457.0224609-.2583008.0332031-.8549805.1035156-1.2075195.2314453-1.1782227.7519531Z" stroke-width="0"/>
      <path d="m134.6945495,158.0134657c3.015625.1669922,5.6132812-.3095703,7.9482422-1.4492188.230957-.1123047.4804688-.234375.565918-.3759766.1621094-.2724609.2768555-.5761719.3984375-.8974609.0214844-.0566406.0429688-.1132812.0649414-.1699219-.0712891-.03125-.1425781-.0634766-.2133789-.0966797-.2773438-.1289062-.5634766-.2587891-.7792969-.2314453-.980957.1425781-1.9711914.3662109-2.9291992.5830078-.3745117.0849609-.7485352.1689453-1.1235352.2490234l-.2363281.0507812-.0043945-.0175781c-.3041992.0634766-.6083984.1269531-.9130859.1894531-.9550781.1962891-1.9423828.3994141-2.8994141.6435547-.3540039.0898438-.7998047.2041016-.9287109.4335938-.046875.0839844-.0498047.1894531-.0087891.3232422.0976562.3164062.6914062.7460938,1.0585938.765625Z" stroke-width="0"/>
      <path d="m109.6994323,47.5134657c-.1386719-.2822266-.4399414-.5761719-.8491211-.8291016-2.2714844-1.4052734-4.512207-2.09375-6.8242188-2.09375-.2709961,0-.5429688.0097656-.8164062.0283203-1.6928711.1171875-2.7929688.8105469-3.362793,2.1220703-.7246094,1.6669922.0361328,2.9589844.8017578,3.7490234,1.0395508,1.0732422,2.2348633,1.9902344,3.3710938,2.8212891.7202148.5273438,1.4692383.4921875,2.0537109-.0976562.546875-.5498047.5532227-1.1923828.0205078-2.0839844-.3852539-.6445312-.7919922-1.2773438-1.2475586-1.9853516-.2060547-.3203125-.4223633-.65625-.6508789-1.0166016l-.2084961-.3271484.3847656-.0537109c2.3466797-.3291016,4.4223633-.0957031,6.5385742.7382812.2011719.0791016.4711914.0517578.7563477.0253906.0581055-.0058594.1162109-.0107422.1738281-.015625-.0029297-.0566406-.0053711-.1132812-.0078125-.1708984-.0136719-.3046875-.0263672-.5927734-.1333008-.8105469Z" stroke-width="0"/>
      <path d="m108.0280456,85.4841688c-1.9584961-.4960938-3.6582031.4130859-4.2236328,2.265625-.2070312.6777344-.2700195,1.4033203-.3203125,1.9853516-.0175781.2041016-.0336914.3886719-.0537109.5449219.3911133,1.5341797.8935547,2.3164062,1.7856445,2.7832031.5942383.3115234,1.1713867.3642578,1.6269531.1474609.4511719-.2138672.7729492-.6894531.9052734-1.3388672.0942383-.4609375.1772461-.9238281.2607422-1.3867188.1069336-.5947266.2133789-1.1884766.3427734-1.7783203.0834961-.3798828.2504883-.7851562.4956055-1.2041016.2714844-.4628906.3378906-.9160156.1870117-1.2763672-.1494141-.3564453-.4975586-.6132812-1.0063477-.7421875Z" stroke-width="0"/>
      <path d="m103.1613463,60.2663953c-.5444336-.2275391-1.1567383-.2949219-1.8046875-.3671875-.2587891-.0283203-.5170898-.0576172-.7709961-.0966797-1.081543.3466797-1.9980469,1.1425781-2.5209961,2.1914062-.4912109.9853516-.5703125,2.0537109-.2226562,3.0078125.3222656.8847656.871582,1.3808594,1.6333008,1.4755859.6767578.078125,1.1176758-.2509766,1.5200195-1.15625.4550781-1.0244141,1.1967773-1.8105469,2.3330078-2.4746094.4609375-.2695312.9199219-.9580078.8920898-1.3388672-.0292969-.4003906-.5742188-1.0380859-1.059082-1.2412109Z" stroke-width="0"/>
      <path d="m90.508026,94.6189344c-.1694336-.5185547-.6000977-.7011719-1.4814453-.6435547-.4697266.0341797-.9384766.09375-1.4067383.1542969-.2080078.0263672-.4160156.0527344-.6240234.0771484-3.4350586.8808594-6.0708008,2.4960938-8.0576172,4.9365234l-.6352539.7773438c-1.105957,1.3515625-2.2490234,2.7490234-3.2709961,4.1904297-.3833008.5410156-.6176758,1.3701172-.5839844,2.0634766.0249023.5029297.2773438.9130859.6938477,1.125.4658203.2353516,1.0585938.1845703,1.5478516-.1376953.1826172-.1201172.3466797-.28125.5200195-.4511719l.1420898-.1386719c.8076172-.7714844,1.6108398-1.5478516,2.4145508-2.3242188,1.9077148-1.8427734,3.8803711-3.7480469,5.878418-5.5625.828125-.7519531,1.7807617-1.3808594,2.7016602-1.9892578.4003906-.2636719.8007812-.5283203,1.1914062-.8027344.0942383-.0654297.1953125-.1298828.2973633-.1933594.5429688-.3427734.8422852-.5615234.6728516-1.0810547Z" stroke-width="0"/>
      <path d="m91.0978698,107.463661c-1.0859375.2724609-2.0205078.7617188-2.5649414,1.34375-1.815918,1.9394531-2.871582,4.4501953-3.137207,7.4628906-.0166016.1884766.0102539.390625.0341797.5693359.0097656.0761719.019043.1464844.0249023.2109375.1923828.9677734.6982422,1.4501953,1.6386719,1.5625.5620117.0673828.7260742.0244141.7661133-.0205078.0595703-.0673828.0283203-.3417969-.0922852-.8134766-.1157227-.4511719-.0893555-1.0302734.0712891-1.5498047.6655273-2.1542969,1.8911133-4.0888672,3.6425781-5.7509766.1757812-.1660156.3950195-.2519531.6069336-.3349609.1523438-.0585938.2963867-.1152344.4047852-.1953125.0708008-.0517578.1474609-.1044922.2260742-.1591797.2807617-.1943359.6655273-.4609375.6982422-.6660156.0625-.3867188-.1582031-1.0371094-.3999023-1.1816406-.5615234-.3369141-1.3710938-.6132812-1.9194336-.4775391Z" stroke-width="0"/>
    </g>
  </g>
</svg>