<?xml version="1.0" encoding="UTF-8"?>
<svg id="Layer_2" data-name="Layer 2" xmlns="http://www.w3.org/2000/svg" viewBox="0 0 309.8144531 328.9290646">
  <g id="Layer_1-2" data-name="Layer 1">
    <g>
      <path d="m216.5605469,153.4348295c-.5322266-.5546875-1.0771484-1.1220703-1.640625-1.7060547l-.1474609-.152832,3.4208984-.8994141,1.7041016-1.2402344,1.1132812-2.4638672c-.0029297-.1679688-.0078125-.3295898-.0136719-.487793-.0117188-.3569336-.0224609-.6943359-.0039062-1.0317383.0869141-1.5976562-.2177734-2.8793945-.9072266-3.8095703-1.1083984-1.4931641-2.6533203-3.3144531-4.7880859-4.1499023-1.1972656-.4692383-2.4804688-.777832-3.7207031-1.0761719-.5527344-.1328125-1.1240234-.2705078-1.6826172-.4208984l-.0751953-.0200195-.0146484-.0766602c-.2861328-1.4995117.2832031-2.6098633.8349609-3.6831055.2392578-.4677734.4658203-.9091797.6269531-1.3818359.4501953-1.3198242,1.1289062-2.5068359,1.7841797-3.6552734.21875-.3828125.4375-.7651367.6484375-1.1533203-.0097656-.7119141-.0195312-1.4233398-.0302734-2.0844727-.0947266-.1665039-.1767578-.3383789-.2568359-.5048828-.1708984-.3579102-.3330078-.6958008-.5761719-.9052734-1.3125-1.1313477-2.0068359-2.6904297-2.6787109-4.1987305l-.2070312-.4638672c-.8447266-1.8769531-1.8457031-3.1191406-3.0585938-3.7973633-2.0048828-.3530273-3.8427734.0498047-5.7851562,1.2626953l-.109375.0678711-1.359375-2.3110352c-.0693359.1259766-.1386719.2421875-.203125.3515625-.1875.315918-.3359375.565918-.375.8251953-.0830078.5546875-.0917969,1.1323242-.1005859,1.690918-.0039062.234375-.0068359.4677734-.0166016.6982422l-.0009766.0419922-.0273438.0327148c-.0585938.0703125-.1123047.1381836-.1650391.2041016-.109375.1362305-.2119141.2651367-.3261719.3833008-1.9267578,1.9921875-4.0205078,4.5166016-4.9365234,8.1357422-.2822266,1.1113281-.8701172,2.1420898-1.4394531,3.1386719-.3583984.6293945-.7304688,1.2802734-1.0205078,1.9443359-.3740234.8540039-.8046875,1.6928711-1.2216797,2.5039062-1.0039062,1.953125-1.953125,3.7978516-2.1748047,5.8530273l-.0068359.059082-.0488281.0322266c-.9189453.5986328-1.9150391.9594727-2.8789062,1.3081055-1.5966797.5786133-3.1054688,1.125-4.1787109,2.6713867l-.0625.0898438-.0966797-.0498047c-1.1582031-.5976562-2.3691406-.581543-3.546875-.5693359-.3847656.0053711-.7802734.0102539-1.1689453-.0068359-2.2773438-.1000977-4.1865234.9887695-6.2509766,2.3076172-.4570312.2915039-.7714844.8637695-1.0751953,1.4165039-.1279297.2319336-.2490234.4526367-.3808594.6538086l1.0029297,1.8032227,3.8134766.7460938,4.7880859,1.5668945-2.4482422,2.465332.0410156,2.6464844,2.7529297,1.2993164.7724609,2.7011719,1.7216797.8369141c.2685547-.2099609.5458984-.409668.8154297-.6030273.6699219-.4819336,1.3027344-.9365234,1.8017578-1.5297852.2480469-.293457.4169922-.6572266.5957031-1.0424805.3242188-.6953125.6904297-1.4833984,1.6171875-1.9277344l.0712891-.0341797.765625.6289062c.5478516.4511719,1.1210938.9238281,1.7011719,1.3886719.2148438.1728516.4267578.3525391.6396484.5322266.5507812.4667969,1.1210938.9501953,1.7392578,1.2919922.6386719.3530273,1.3320312.5874023,2.0039062.8139648.2841797.0961914.5605469.1899414.8242188.2890625l.0888672.0336914-.0087891.0952148c-.140625,1.4423828.2900391,2.4511719,1.3544922,3.1713867l1.9462891-.0297852,1.3925781-2.5771484-1.0634766-1.8588867-1.4326172-.4418945-1.4882812.3056641-.0478516-.0517578c-2.1425781-2.3222656-3.1552734-5.1313477-4.1357422-7.8476562l-.1611328-.4467773.359375.3100586c.8515625.7333984,1.6787109,1.4663086,2.4794922,2.1748047,1.7753906,1.5722656,3.4521484,3.0571289,5.2314453,4.4189453.3095703.2368164.6191406.4726562.9287109.7084961,2.7763672,2.1113281,5.6464844,4.2949219,8.0048828,7.0913086.9892578,1.1723633,1.5595703,2.3647461,1.7949219,3.7519531l.0097656.0581055-.0380859.0444336c-2.3701172,2.75-4.9462891,4.7036133-7.6552734,5.8061523-2.2910156.9331055-4.7949219,1.6723633-7.5888672.7587891-1.7441406-.5703125-2.0214844-.5004883-3.3457031-.1611328-.2226562.0566406-.4746094.1210938-.765625.190918-.8320312.199707-1.6660156.3491211-2.4003906.4804688-.2939453.0527344-.5693359.1020508-.8183594.1499023l-.0439453.0083008-.0390625-.0214844c-1.5136719-.8251953-1.7509766-1.9853516-1.8544922-3.0073242.0429688-.8540039.3779297-1.5629883.7324219-2.3139648.4384766-.9277344.8916016-1.8867188.7490234-3.1162109l-2.2421875-1.5664062c-.2246094.199707-.4521484.3842773-.6728516.5634766-.5126953.4155273-.9960938.8081055-1.3349609,1.3017578-1.1933594,1.7412109-1.5185547,3.7924805-1.8632812,5.9643555l-.09375.5859375-1.5078125,1.5742188-3.7236328.0566406-.0273438-.0141602q-5.6855469-2.9248047-6.9003906-5.2348633l-.0126953-.0395508c-.3427734-2.2470703.4091797-4.2216797,1.1357422-6.1313477.1132812-.2983398.2265625-.5966797.3359375-.8959961.1289062-.3525391.2617188-.7041016.3945312-1.0556641.8193359-2.1738281,1.6669922-4.4204102,1.5839844-6.8134766l-1.0957031-1.6210938c-1.7070312-1.3330078-2.9667969-.4560547-4.1865234.3925781-.2587891.1801758-.5273438.3662109-.7910156.5239258l-.0615234.0371094-1.3222656-.7431641c-.7861328-.4418945-1.53125-.8613281-2.2773438-1.2773438-.6425781-.3583984-1.2822266-.7207031-1.9228516-1.0830078-1.5947266-.902832-3.2441406-1.8364258-4.8945312-2.6879883-1.2109375-.6240234-1.8808594-1.5961914-2.1074219-3.0585938-.234375-1.5068359-.4619141-3.0146484-.6835938-4.4848633l-.3095703-2.0478516.0302734-.0415039c.2705078-.3745117.5341797-.7426758.7929688-1.1044922.5566406-.7797852,1.0830078-1.5166016,1.6367188-2.2446289,1.6494141-2.1728516,2.5507812-4.855957,3.2666016-7.2006836.7705078-2.5234375,1.7880859-5.140625,3.9951172-7.190918l.0351562-.0327148,1.3583984-.0205078.0380859.0375977c.4316406.4355469.8603516.8608398,1.2841797,1.2822266.9785156.9711914,1.9023438,1.8891602,2.8085938,2.8588867,1.2070312,1.2905273,2.1933594,2.3989258,3.0820312,3.6108398,1.0039062,1.3696289,1.9980469,2.9072266,2.9550781,4.5703125,1.0478516,1.8232422,2.5097656,3.6025391,5.4052734,3.0341797,1.6660156-1.6469727,2.265625-4.0751953,1.6894531-6.8432617-.2353516-1.1279297-.2724609-2.2055664-.3125-3.3461914-.0263672-.7573242-.0537109-1.5395508-.1435547-2.3452148l-.0068359-.0644531,1.8964844-1.652832-.0917969-6.0395508.03125-.0356445c.2431641-.2802734.484375-.5610352.7246094-.8413086,2.0175781-2.3476562,3.9228516-4.5649414,6.3740234-5.8344727l.0371094-.012207c1.0507812-.171875,2.0830078-.1665039,3.0859375-.1635742,1.7451172.0073242,3.3935547.0126953,5.0205078-.8662109-1.4492188-2.0263672-3.4628906-2.6142578-5.4101562-3.1835938-.4355469-.1269531-.8847656-.2583008-1.3164062-.4033203l-.6943359.2036133c-.5019531.1455078-.9873047.2871094-1.4707031.4379883-3.0009766.9370117-5.4853516,2.9912109-8.0556641,6.6601562-.7558594,1.0810547-1.3320312,2.3496094-1.6201172,3.5727539-.2060547.8745117-.2089844,1.7929688-.2109375,2.855957-.0009766.4951172-.0029297,1.0068359-.0253906,1.5517578l-.0019531.0527344-2.1748047,1.9213867c-.2265625,1.8041992-.4169922,3.3217773-.6572266,5.2358398l-.0332031.2587891-.1806641-.1879883c-.2421875-.2524414-.4599609-.4638672-.6552734-.652832-.3681641-.3579102-.6591797-.640625-.8886719-.9770508-.5351562-.7822266-1.1054688-1.5566406-1.6582031-2.3056641-1.2353516-1.6767578-2.5136719-3.4106445-3.4794922-5.3564453-1.6318359-3.2871094-4.6513672-4.4106445-7.8789062-2.9345703-.1845703.0844727-.3652344.2006836-.5400391.3125-.2109375.1352539-.4277344.2744141-.6630859.3691406-2.6191406,1.0493164-4.7294922,3.1420898-6.4521484,6.3974609-.7822266,1.4775391-1.2050781,3.1523438-1.6142578,4.7714844-.2001953.7949219-.4082031,1.6166992-.6552734,2.4077148l-.0185547.0585938c-.1826172.5825195-.3710938,1.1850586-.6494141,1.7290039-.3203125.6245117-.8984375.8007812-1.5800781.4873047l-.0380859-.0175781-.0195312-.0366211c-.296875-.5473633-.5976562-1.0957031-.9003906-1.6459961-.6611328-1.2026367-1.3447266-2.4462891-1.9824219-3.6972656-.2109375-.4155273-.4248047-.8300781-.6376953-1.2446289-1.1728516-2.2783203-2.3857422-4.6342773-3.2441406-7.128418-1.0791016-3.1367188-2.1455078-6.2900391-3.0458984-8.9604492-.9306641-2.7617188-2.7167969-4.902832-4.5078125-6.8051758-1.0517578-1.1171875-2.2832031-2.0493164-3.5869141-3.0361328-.5849609-.4428711-1.1894531-.9008789-1.796875-1.3901367l-2.5712891.0390625-1.4238281-1.8876953-1.9765625-1.0170898-10.9726562.1669922-.0380859-.0424805c-.1113281-.1240234-.2285156-.2470703-.3476562-.3710938-.2587891-.2719727-.5263672-.5527344-.7548828-.8681641-2.7265625-3.7758789-6.1748047-8.8540039-8.6621094-14.6582031-.4003906-.9311523-.8535156-2.1943359-.8164062-3.7055664l.0058594-.2250977.1875.1240234c1.296875.8564453,2.3808594,1.9638672,3.4296875,3.034668,1.4150391,1.4458008,2.7529297,2.8120117,4.5253906,3.5390625,1.1396484-.2895508,1.7275391-1.0473633,2.0195312-2.6010742-.6435547-1.284668-1.3779297-2.7324219-2.7958984-3.7426758-1.0488281-.7475586-2.2783203-1.8500977-2.4824219-3.7607422-.0527344-.4990234-.2890625-.9711914-.5400391-1.4716797-.1435547-.2880859-.2929688-.5859375-.4042969-.8901367-.7744141-2.1254883-.6972656-4.0493164.2412109-6.0551758l.0898438-.190918.1240234.1704102c.2089844.2866211.4003906.5571289.5830078.8154297.3769531.5327148.703125.9921875,1.0634766,1.4350586,1.1357422,1.3955078,2.3642578,2.8901367,3.6533203,4.3637695.8828125,1.0102539,1.8710938,1.3662109,3.1162109,1.1152344l2.7988281-3.5336914.0966797.0717773c1.2675781.9418945,2.5273438.409668,3.9863281-.2055664l.0400391-.0170898c.3007812-.3769531.6435547-.7231445,1.0058594-1.0893555.8525391-.8623047,1.734375-1.753418,2.1386719-3.144043l-.0410156-2.6816406.7460938-.7963867.0634766.0087891c.2792969.0390625.5644531.0151367.8652344-.0092773.75-.0615234,1.5947266-.1279297,2.2597656.890625l.0253906.0395508-.0068359.0463867c-.2539062,1.7807617.5078125,3.1572266,2.2050781,3.9799805l.0625.0307617.0068359.0693359c.3613281,3.6655273,1.1259766,6.6108398,2.40625,9.2661133.0898438.0522461.1865234.1074219.2871094.1645508.25.1425781.5244141.2998047.7939453.4658203,1.3017578.800293,2.2880859,1.1796875,4.0791016-.7573242.8847656-.9560547,1.5751953-1.9135742,2.0537109-2.8452148.5449219-1.0620117,1.0263672-2.1860352,1.4921875-3.2729492.3222656-.7529297.6552734-1.5317383,1.0078125-2.2851562.7753906-1.6586914,1.9501953-3.7553711,4.1796875-5.2592773l.1542969-.1044922.0371094.1826172c.0341797.1669922.0703125.3120117.1015625.4418945.0625.2519531.1113281.4511719.1152344.6591797.0175781,1.1347656.0390625,2.2700195.0595703,3.4047852.0644531,3.4760742.1318359,7.0703125.1054688,10.6049805-.015625,1.9804688-.4990234,3.8974609-1.3984375,5.5439453-.8417969,1.5410156-1.8544922,3.0073242-2.8339844,4.4257812-.2607422.3769531-.5205078.7539062-.7783203,1.1318359-1.8300781,2.6923828-3.2001953,5.3530273-4.1875,8.1337891-.0166016.046875-.0039062.1264648.0087891.2036133.0048828.0297852.0097656.0600586.0126953.0898438l.3808594.355957c.1445312-.1103516.2939453-.2192383.4453125-.3295898.3955078-.2890625.8056641-.5874023,1.1591797-.9389648.4970703-.4936523.9804688-1.0234375,1.4482422-1.5361328.4287109-.4702148.8720703-.9570312,1.3271484-1.4165039.3544922-.3574219.7363281-.6953125,1.1044922-1.0224609.4921875-.4360352,1-.887207,1.4433594-1.3837891.7119141-.7993164,1.3847656-1.6665039,2.0351562-2.5053711.3076172-.3964844.6142578-.7924805.9267578-1.1835938,2.2910156-2.8652344,3.4931641-5.5546875,3.7832031-8.4628906.3320312-3.3369141.5761719-6.800293.7460938-10.5893555.0898438-1.9970703.1464844-4.3432617-.1171875-6.6083984-.2832031-2.4467773-.9443359-5.0864258-3.6855469-6.1225586l-2.9345703.0449219c-1.953125.6630859-3.4521484,1.8632812-4.4541016,3.5678711-.9707031,1.6508789-1.7753906,3.4550781-2.5527344,5.2001953-.2714844.6079102-.5419922,1.2163086-.8203125,1.8193359-.2089844.4521484-.390625.9326172-.5654297,1.3969727-.4482422,1.1855469-.9121094,2.4116211-1.8691406,3.2993164l-.1474609.1362305-.7255859-2.4350586c-.5771484-1.9350586-1.1474609-3.8486328-1.7099609-5.7646484-.03125-.1054688-.0654297-.2119141-.0996094-.3188477-.1396484-.4394531-.2841797-.894043-.2480469-1.3349609.0644531-.7880859.2050781-1.550293.3525391-2.3574219.0605469-.3271484.1210938-.6572266.1767578-.9912109l.0126953-.0722656.0683594-.0244141c1.7822266-.6318359,1.7978516-.6376953,2.8896484-1.9799805l-.0292969-1.8457031-1.3164062-1.4741211-2.3994141.0366211c-1.2675781,1.1396484-.9716797,2.3793945-.6855469,3.5786133.0996094.4194336.203125.8530273.234375,1.269043l.0058594.0708008-2.6738281,1.8583984-.0712891-.0483398c-.7714844-.527832-1.6621094-.4394531-2.5195312-.3525391-.9072266.0913086-1.8427734.1835938-2.6328125-.440918l-.0507812-.0400391.1533203-2.65625c-.5292969-.78125-1.0488281-.7460938-1.6123047-.7036133l-.0488281.003418c-.09375.1220703-.1835938.2539062-.2714844.3823242-.2578125.3759766-.5244141.7646484-.8925781.9697266-.6416016.3569336-1.0097656.9018555-1.3984375,1.4790039-.078125.1162109-.1582031.234375-.2412109.3520508-1.0634766,1.5170898-1.5322266,3.2412109-2.0283203,5.0664062-.0927734.3383789-.1845703.6777344-.28125,1.0175781l-.0810547.2836914-3.4599609-6.0195312.0029297-.0371094.2060547-3.1894531-1.84375-1.800293-2.6259766.7841797c-1.2509766,2.6552734-1.1816406,3.0595703.8583984,5.0654297l2.2685547-.0341797,1.1123047,1.1601562v.050293c-.0068359,1.9760742.890625,3.684082,1.7578125,5.3359375.0927734.1777344.1865234.3554688.2783203.5336914l.0419922.0800781-.0634766.0644531c-.8554688.8676758-1.6357422,1.4291992-2.7041016,1.3183594l-.0839844-.0083008-.0234375-.081543c-.7314453-2.5805664-2.25-4.4985352-3.4912109-5.8813477-1.8798828-2.0932617-3.7753906-2.3129883-6.1416016-.699707l-1.0556641,2.3339844.0048828.3945312c.0029297.3286133.0068359.6704102.0175781,1.0112305.0771484,2.2871094.2490234,4.7021484,1.4228516,6.8798828.1035156.190918.0185547.4555664-.0791016.762207-.046875.1474609-.0947266.300293-.1289062.4589844l-.0400391.1860352-.1542969-.1108398c-.3125-.2236328-.6005859-.4365234-.875-.6386719-.5615234-.4155273-1.0478516-.7744141-1.5634766-1.0961914-1.09375-.6826172-2.1591797-.8935547-3.0800781-.612793-.9609375.293457-1.7695312,1.1220703-2.3388672,2.3959961-.2353516.5288086-.3310547,1.1367188-.4091797,1.6254883-.0283203.1777344-.0537109.3398438-.0830078.4785156l1.1572266,2.2954102-1.0615234,2.4658203c-.4277344,2.9189453.2509766,5.8242188,2.1337891,9.1416016,2.3583984,4.1533203,4.6347656,7.2163086,7.1660156,9.6396484,2.125,2.0351562,4.6142578,3.265625,6.9873047,4.2915039,1.1621094.5029297,2.3740234.4628906,3.5527344.4228516.5957031-.0200195,1.2109375-.0400391,1.8115234.0102539l.0458984.0131836,3.8544922,1.9702148,4.0751953-.5581055.0419922.0380859c.4824219.425293.9707031.8491211,1.4619141,1.2749023,1.1376953.9868164,2.3144531,2.0068359,3.4296875,3.0751953,1.0673828,1.0214844,2.0332031,2.1757812,3.0117188,3.3671875,1.421875,1.7319336,2.3964844,3.7807617,3.3388672,5.762207.4619141.972168.9404297,1.9780273,1.4648438,2.9311523,1.2314453,2.2392578,2.3017578,4.0419922,3.3691406,5.6728516,1.7080078,2.6103516,3.8486328,5.1557617,6.5458984,7.7817383.1503906.1469727.2539062.3364258.3730469.5561523.0585938.1069336.1220703.2226562.1972656.3447266l.0693359.112793-.1171875.0625c-2.0009766,1.0727539-2.7304688,2.9990234-3.1396484,4.5668945.1503906.6411133.3232422,1.28125.4902344,1.9003906.4628906,1.7099609.9404297,3.4780273.9550781,5.3730469.0361328,4.6689453,2.2470703,7.9047852,6.9599609,10.184082,2.5595703,1.2382812,5.3496094,1.0727539,8.046875.9140625.5371094-.0317383,1.0732422-.0634766,1.6074219-.0844727.0800781-.0029297.171875-.0581055.2695312-.1166992.1035156-.0620117.2109375-.1259766.3339844-.1489258.28125-.0522461.5693359-.0732422.8476562-.09375.1142578-.0083008.2285156-.0166016.3427734-.0268555l.1806641-.0166016-.0488281.1743164c-.0634766.2250977-.109375.440918-.1533203.6499023-.0927734.4365234-.1738281.8134766-.3740234,1.1240234-1.2138672,1.8842773-1.8173828,4.0678711-2.4013672,6.1796875l-.1708984.6162109c-.0332031.1210938-.1552734.1796875-.296875.2475586-.0634766.0302734-.1347656.0644531-.2080078.1083984l-.0751953.0454102-.0683594-.0556641c-.3701172-.3027344-.7714844-.6313477-1.1728516-.9614258-.1621094-.0019531-.3271484-.012207-.4912109-.0229492-.7255859-.0463867-1.3535156-.0869141-1.6181641.6142578-.3623047,2.0048828.1513672,3.7709961.6494141,5.4794922.2109375.7255859.4296875,1.4760742.5722656,2.2270508.1308594.6870117.3662109,1.3676758.59375,2.0258789.1787109.515625.3632812,1.0488281.4990234,1.5878906.6796875,2.6943359,1.2695312,5.190918,1.8037109,7.6323242.1972656.902832.4638672,1.8071289.7226562,2.6816406.5996094,2.03125,1.2197266,4.1308594,1.0195312,6.3720703l.8623047.6611328.5087891-.5961914c.078125-.472168.1347656-.9150391.1904297-1.34375.1201172-.9355469.2246094-1.7436523.4990234-2.5.3603516-.9936523.4433594-2.0683594.2519531-3.2856445-.0664062-.4267578-.1357422-.8530273-.2041016-1.2788086-.3349609-2.0727539-.6806641-4.2163086-.7666016-6.3666992-.0107422-.2685547-.0878906-.5361328-.1689453-.8198242-.0380859-.1352539-.0771484-.2719727-.109375-.4101562l-.0322266-.1376953.140625-.0146484c.0820312-.0083008.1542969-.0214844.2197266-.0336914.0839844-.0151367.1611328-.0292969.2353516-.0292969.0488281,0,.0957031.0063477.1425781.0224609.3076172.1064453.5888672.2412109.8339844.3999023,1.9208984,1.2402344,3.8457031,1.8881836,5.8837891,1.9799805,1.1582031.0522461,2.3105469.2314453,3.3828125.4169922.2333984.0405273.4121094.262207.5429688.4238281.0390625.0483398.0732422.0908203.1015625.1171875l.0625.0581055-.0322266.0791016c-.1269531.3188477-.2568359.6269531-.3837891.9287109-.2832031.6704102-.5517578,1.3041992-.7470703,1.9628906-.1582031.53125-.2529297,1.0981445-.34375,1.6464844-.0625.3759766-.1269531.7651367-.2128906,1.1430664-.8046875,3.5649414-.0117188,6.8930664,2.4951172,10.4746094.1523438.2172852.3261719.3374023.5166016.3574219.2226562.0180664.4863281-.0913086.7705078-.3442383l-.3808594-4.3920898-.0253906-.0258789.2236328-.578125.0029297.0419922c.0029297-.0185547.0048828-.0371094.0058594-.0556641.0615234-1.3842773.1865234-2.7983398.3808594-4.3227539.2089844-1.6186523.6113281-3.1977539,1.0009766-4.7241211.2626953-1.0332031.5351562-2.1010742.7431641-3.1660156.1787109-.9160156.5361328-1.5385742,1.1259766-1.9584961l.0722656-.0512695,3.9326172,2.7861328,3.3476562-.0507812-.1962891.2133789c-1.5546875,1.6889648-2.9091797,3.2563477-3.75,5.3354492-.7578125,1.8769531-.9833984,3.9238281-.7294922,6.6323242l1.4931641,2.074707,1.4404297-.0961914c-.171875-1.6738281.6328125-2.7543945,1.6220703-3.8901367,1.6171875-1.8579102,3.3115234-3.8837891,5.1816406-6.1933594.3017578-.3725586.5205078-.8286133.6972656-1.1953125.0634766-.1333008.1220703-.2543945.1767578-.355957l-.0390625-2.581543-3.4414062-1.2504883.3574219-.1083984c.2470703-.0751953.4921875-.1630859.7363281-.2509766.5351562-.1923828,1.0878906-.3911133,1.6503906-.4443359,1.9589844-.1855469,3.9550781-.3188477,5.8847656-.4477539.7763672-.0517578,1.5527344-.1035156,2.3291016-.1586914,1.5507812-.1103516,2.7880859-.5859375,3.6787109-1.4150391,1.4003906-1.3041992,3-2.2988281,4.5458984-3.2612305.25-.1547852.4990234-.3100586.7470703-.4663086,1.2275391-.7729492,2.0742188-1.6083984,2.4941406-3.3730469-.2119141-.7954102-.5283203-1.9868164-.8525391-3.2114258l-.0332031-.125.1259766-.0283203c.4697266-.1054688.9482422-.2270508,1.4550781-.355957,1.1757812-.2988281,2.3916016-.6083984,3.640625-.746582,2.3085938-.2553711,4.1962891-1.4609375,6.1142578-3.90625-.4130859-1.8735352-1.2705078-3.449707-2.6191406-4.8154297-1.1455078-1.159668-2.2734375-2.3349609-3.4677734-3.5786133Zm-33.2109375-4.434082l-4,.699707-.0332031-.0141602-4.9960938-2.0942383.2519531-.1196289c1.4023438-.6630859,2.6201172-.2978516,3.6962891.0253906.328125.0981445.6376953.1914062.9443359.2548828,1.3623047.2841797,2.3095703.3623047,3.0693359-1.0517578.2724609-.5078125.4326172-.5058594,1.4736328-.4912109l.5283203.0058594-.9345703,2.7851562Zm-87.3046875-73.9521484l.1796875-.1118164c.4873047-.3027344.8896484-.3930664,1.2285156-.2783203.5263672.1772461.7636719.8017578.9736328,1.3520508l.1777344.4619141-2.5595703-1.4238281Zm125.0859375,85.6923828l.0830078.1660156-.1845703.0136719c-.8496094.0649414-1.6826172.1567383-2.4892578.2456055-1.4013672.1542969-2.7431641.3022461-4.0683594.3022461-.3896484,0-.7783203-.0126953-1.1669922-.0419922-1.4472656-.1083984-2.8779297-.2890625-4.3916016-.4804688-1.0556641-.1333008-2.1464844-.2714844-3.2763672-.3876953l-.0498047-.0053711-4.1835938-4.8920898c-3.015625-3.5239258-5.9755859-5.8037109-9.3144531-7.1743164-.0878906-.0361328-.1757812-.0761719-.2636719-.1162109-.2490234-.112793-.5068359-.2299805-.7548828-.2519531-.9423828-.0825195-1.6992188-.4394531-2.3115234-1.0908203-.9873047-1.050293-2.0136719-1.4472656-3.2255859-1.2578125l-.2792969.0439453.15625-.2358398c.7119141-1.0786133,1.8222656-1.456543,2.9697266-1.0073242,2.1787109.8496094,3.78125-.262207,5.4814453-1.4384766l.1855469-.1289062,1.9599609,1.9248047,2.4873047-.5581055,1.0498047-2.2617188c-.2304688-1.3681641-1.0488281-2.2773438-2.5693359-2.8564453l-2.2988281.8745117-.0566406-.0463867-3.3544922-2.7929688.1357422-.0932617c2.0595703-1.4213867,3.8261719-3.5327148,5.2509766-6.2749023.4736328-.9111328.9306641-1.9199219,1.3583984-2.9975586.1416016-.355957.2363281-.7441406.328125-1.1191406.0751953-.3046875.1523438-.6196289.2539062-.9213867,1.0712891-3.1630859,2.9023438-5.1757812,5.7626953-6.3334961l.1152344-.046875.046875.1147461c.9990234,2.4384766,2.6787109,4.3989258,5.2861328,6.1704102l.0683594.0463867-.0166016.081543c-.3623047,1.78125-1.2001953,3.3339844-2.0107422,4.8359375-.8144531,1.5087891-1.65625,3.0688477-1.9902344,4.8369141.0605469.1206055.1269531.2431641.1943359.3691406.1787109.3310547.3632812.6733398.4833984,1.0493164.3681641,1.1411133,1.2441406,1.9326172,2.4042969,2.1713867,3.1601562.6513672,5.3964844,2.8076172,7.4169922,4.9594727l.0283203.0488281.765625,2.4941406-1.1347656,1.4179688-5.2919922.8334961-.9824219.9575195.0214844,1.4321289c.6953125,1.0273438,1.6464844,1.7583008,2.7519531,2.1147461,2.7207031.8759766,5.1005859,2.4702148,7.2763672,4.8740234.4472656.4936523.6992188,1.0454102.9912109,1.6845703.1074219.2358398.2207031.484375.3525391.7480469Z" stroke-width="0"/>
      <path d="m136.5771484,317.6394194c-.6806641-.550293-1.3232422-1.0698242-1.8642578-1.7094727-.90625-1.0703125-1.6484375-2.3105469-2.3652344-3.5102539-1.6591797-2.7709961-3.484375-6.0439453-4.1621094-9.8325195-.4980469-2.7944336-.5898438-6.706543.3291016-9.1469727.7158203-1.9008789,1.8554688-4.2241211,4.3378906-5.3212891.8427734-.3725586,1.6621094-.8457031,2.4980469-1.3383789.6269531-.3706055,1.1894531-.4267578,1.9355469-.1987305,3.3564453,1.0219727,7.1601562,2.1806641,11.0634766,2.8017578,2.5058594.3989258,4.9882812.6137695,7.5234375.8164062,1.671875.1313477,3.4003906-.0620117,5.0712891-.2495117.5546875-.0625,1.1074219-.125,1.6591797-.1757812.8417969-.078125,1.6591797-.2841797,2.5634766-.5258789,1.8193359-.4863281,4.1962891-1.1826172,6.4501953-2.2578125,2.8447266-1.3564453,4.8164062-2.7021484,6.3828125-4.3583984.0039062-.1069336.0097656-.2128906.0166016-.3178711.0400391-.6171875.0732422-1.1513672-.5478516-1.6269531-.2382812,0-.4677734-.0097656-.6962891-.0209961-.5205078-.0258789-1.0605469-.0522461-1.5449219.0800781-.7724609.2119141-1.5517578.4477539-2.3056641.6757812-1.8417969.5571289-3.7460938,1.1328125-5.7021484,1.4106445-.5683594.0805664-1.1435547.1972656-1.7001953.3105469-.9775391.1987305-1.9882812.4038086-3.0146484.4257812l-.8925781.0195312c-3.6865234.0825195-7.5.168457-11.2294922-.5795898-.8134766-.1625977-1.6523438-.2705078-2.4638672-.375-.9101562-.1166992-1.8515625-.237793-2.7646484-.4370117-3.2207031-.7021484-6.0117188-1.3964844-8.5322266-2.1225586-.2607422-.074707-.5244141-.140625-.7880859-.206543-.9726562-.2431641-1.9785156-.4941406-2.8525391-1.2109375-.84375-.6918945-1.4775391-1.5004883-2.1494141-2.3569336l-.0683594-.0878906c-1.5214844-1.9399414-2.2763672-4.1010742-2.3076172-6.6054688-.0146484-1.222168-.03125-2.4443359-.0488281-3.6669922l-.0136719-.9213867c-.0195312-1.3579102.2900391-2.6606445.609375-3.8789062.7373047-2.8129883,1.8554688-5.4438477,2.7480469-7.421875,1.2929688-2.8681641,3.3427734-5.0263672,5.1523438-6.9306641.2060547-.2177734.4814453-.3417969.7480469-.4619141.1113281-.050293.2207031-.0996094.3193359-.1542969l.0488281-.0268555.0527344.0180664c.4355469.1513672.8642578.3071289,1.2890625.4609375.9433594.3417969,1.8339844.6650391,2.7548828.9316406,3.0976562.8959961,6.34375,1.6328125,9.9257812,2.2524414,1.5917969.2744141,3.4794922.5791016,5.4140625.753418.7089844.0639648,1.4267578.1494141,2.1220703.2319336,1.5488281.184082,3.1533203.3735352,4.7412109.3364258,2.0888672-.0498047,4.1875-.3671875,6.2177734-.6743164.3271484-.0498047.6533203-.0991211.9804688-.1474609,2.7265625-.4033203,5.25-1.3652344,7.5019531-2.859375,1.3867188-.918457,2.7431641-2.1381836,2.3076172-4.2192383-.7314453-1.0004883-1.4052734-1.4819336-2.2421875-1.6015625-.1621094.0664062-.3232422.1347656-.4833984.203125-.3671875.1552734-.7451172.315918-1.1269531.4521484-3.7304688,1.3349609-6.9345703,2.2265625-10.3310547,2.2265625-.1289062,0-.2578125-.0014648-.3876953-.0039062-.0859375-.0014648-.1757812-.0063477-.265625-.0112305-.328125-.0161133-.6689453-.0351562-.9091797.0947266-.7148438.3847656-1.5673828.46875-2.5390625.2485352-1.0693359-.2431641-2.15625-.234375-3.2119141-.2246094-.5146484.0039062-1.0439453.0097656-1.5664062-.0151367-.0957031-.0048828-.1972656.0058594-.3056641.0166016-.2197266.0214844-.4511719.0444336-.6396484-.0600586-.4853516-.2705078-.9785156-.2705078-1.5185547-.269043-.2236328-.0014648-.4716797.0009766-.7089844-.0234375-.4023438-.0410156-.8066406-.1049805-1.1982422-.1669922-.3505859-.0556641-.7128906-.1132812-1.0693359-.152832-.4023438-.0454102-.8183594-.0688477-1.2207031-.0913086-.8310547-.046875-1.6904297-.0952148-2.4921875-.3374023-.53125-.1601562-1.0712891-.1938477-1.59375-.2265625-.3916016-.0244141-.796875-.0493164-1.1962891-.1274414-1.3544922-.2631836-2.6914062-.4482422-3.8193359-.5947266-.5517578-.0712891-1.1162109-.1235352-1.6611328-.1743164-.6113281-.0571289-1.2431641-.1157227-1.8623047-.2011719-.4824219-.0673828-.9707031-.2358398-1.375-.4741211-1.0341797-.6098633-2.1259766-1.2993164-3.3398438-2.1083984-1.3066406-.8710938-2.3066406-1.9946289-3.0576172-3.434082-.9775391-1.8725586-1.1962891-3.9433594-1.4072266-5.9458008-.0263672-.2553711-.0537109-.5102539-.0820312-.7646484-.0800781-.7177734.0205078-1.4619141.1171875-2.1811523.0449219-.3310547.0908203-.6738281.1181641-1.0068359.0371094-.4506836.0527344-.9174805.0683594-1.3686523.0332031-.984375.0673828-2.0024414.3212891-2.9443359.1367188-.5073242.2695312-1.015625.4023438-1.5249023.5585938-2.1352539,1.1357422-4.34375,1.9931641-6.4174805,1.3251953-3.2055664,2.8955078-6.0922852,4.6660156-8.5795898.8520508-1.1963501,1.5610352-2.2711792,1.9375-3.5303955-.0810547-.0611572-.1713867-.1157837-.2519531-.1776123-.4667969-.3583984-.8037109-.8803711-1.1279297-1.3842773-.1386719-.215332-.2695312-.418457-.40625-.6020508l-.0244141-.0322266-.0102539-.6954346-1.3930664.0211182c-1.7089844,1.269043-3.1142578,2.8085938-4.5224609,4.4067383-2.4824219,2.8168945-4.3300781,6.4223633-5.8144531,11.3452148-.8876953,2.9458008-1.1728516,6.0332031-1.3212891,8.3935547-.2314453,3.6821289.0576172,7.2011719.8583984,10.4604492.53125,2.1655273,1.4248047,4.8999023,3.6357422,6.8413086.2402344.2109375.4746094.4291992.7089844.6464844.6826172.6352539,1.3886719,1.2915039,2.2236328,1.7382812.2041016.109375.3759766.2792969.5751953.4760742.1005859.0996094.2109375.2089844.3398438.324707l.1269531.1137695-.1464844.0864258c-1.2148438.7163086-1.9667969,1.7509766-2.6943359,2.7514648-.1162109.159668-.2324219.3193359-.3505859.4775391-2.2988281,3.0917969-4.1835938,6.7001953-5.7607422,11.0307617-1.1220703,3.081543-1.6035156,6.2714844-1.4306641,9.4799805.0380859.6879883.1152344,1.3867188.1904297,2.0629883.0537109.484375.1083984.9848633.1484375,1.4736328.1884766,2.3188477,1.1572266,4.3266602,2.0947266,6.2680664.3125.6479492.6357422,1.3173828.9248047,1.9887695.671875,1.5556641,2.1064453,2.425293,3.4941406,3.2666016.2529297.1533203.5039062.3056641.75.4614258.3798828.2402344.7441406.5,1.1308594.7753906.1787109.1274414.3613281.2573242.5507812.3896484l.1503906.1049805-.1533203.1010742c-.1328125.0878906-.2509766.1738281-.3613281.2539062-.2216797.1616211-.4140625.3012695-.6318359.3852539-2.2802734.8813477-3.6875,2.7568359-4.8691406,4.6523438-.8896484,1.4277344-1.5244141,3.0776367-1.8876953,4.9033203-.0537109.2724609-.1103516.5449219-.1669922.8173828-.2919922,1.3974609-.5927734,2.8427734-.5087891,4.3208008.0175781.3012695.0322266.6015625.046875.9013672.0576172,1.1723633.1171875,2.3847656.3291016,3.5825195.2324219,1.3232422.5947266,2.6772461,1.140625,4.2607422.8564453,2.4863281,2.0097656,4.6445312,3.4267578,6.4155273.9638672,1.206543,2.1298828,2.5595703,3.7568359,3.3447266,1.6308594.7856445,3.296875,1.0913086,5.0908203.934082.0410156-.0039062.0957031-.0356445.1660156-.0756836.0263672-.0151367.0546875-.0317383.0849609-.0478516l-.0117188-.7983398c-.2861328-.2475586-.5791016-.484375-.8623047-.7138672Z" stroke-width="0"/>
      <path d="m167.1103516,117.4563139l.1972656.7817383c.1533203.0732422.2626953.2294922.3779297.3935547.2197266.3129883.4257812.6079102.9335938.4467773.0175781-.203125.0234375-.4140625.0292969-.6181641.0136719-.5083008.0283203-1.0336914.2167969-1.4775391.8662109-2.0385742,1.8037109-4.0830078,2.7099609-6.0605469.3212891-.7001953.6425781-1.4003906.9609375-2.1020508,1.1855469-2.6079102,2.7744141-4.9931641,4.8564453-7.2915039.8212891-.9057617,1.6708984-1.8100586,2.4921875-2.6850586,1.3974609-1.4873047,2.8427734-3.0258789,4.1884766-4.6147461l1.0078125-1.190918c1.6826172-1.9887695,3.4228516-4.0449219,5.1494141-6.0532227,2.0966797-2.4394531,3.8085938-5.4458008,5.0888672-8.9360352,1.2167969-3.3173828,2.4433594-7.2216797,1.59375-11.5991211l-1.2617188-1.4223633.9091797-2.4262695c-.4658203-1.6782227-1.5644531-2.6074219-2.3789062-3.2866211l-4.2119141-.7866211-.0292969-.0332031c-.5507812-.6401367-1.09375-1.2851562-1.6367188-1.9296875-1.1777344-1.3984375-2.3955078-2.8447266-3.6572266-4.1918945-2.0166016-2.1508789-3.6640625-4.6523438-5.2578125-7.0708008-.2949219-.4487305-.5898438-.8969727-.8876953-1.3427734-1.1982422-1.7958984-1.5615234-3.9907227-1.0800781-6.5244141.2978516-1.5708008.3720703-3.222168.4433594-4.8193359.03125-.6992188.0644531-1.4228516.1152344-2.1308594l.0039062-.0458984c.0029297-.0380859.0097656-.109375,0-.1289062-.4414062-.7993164-.4453125-1.6625977-.4492188-2.4970703-.0019531-.3686523-.0029297-.7495117-.0439453-1.1152344-.0390625-.3525391-.1181641-.7099609-.1953125-1.0551758-.0761719-.3408203-.1542969-.6928711-.1962891-1.046875-.2509766-2.1308594-.5351562-4.5458984.5214844-6.722168l.1679688-.3481445c.8984375-1.8686523,1.828125-3.8012695,4.3925781-4.0795898l.0947266-.0102539.0351562.0883789c.3671875.9233398.4189453,1.8334961.1601562,2.8637695-.28125,1.1210938-.5742188,2.440918-.6074219,3.7304688-.0615234,2.3564453-.1298828,5.0273438.1240234,7.5947266.2041016,2.0566406.5888672,4.3579102,2.5751953,5.6621094.0625.0004883.125.0009766.1865234.0009766,2.5957031,0,3.3603516-.6108398,4.40625-3.3671875l.0791016-.2104492c.6445312-1.7006836,1.3105469-3.4589844,2.2470703-5.0039062.2216797-.3666992.4355469-.7426758.6494141-1.121582.8857422-1.5629883,1.8017578-3.1787109,3.4736328-4.3354492l.0625-.0429688,2,1.0688477-.0253906.0952148c-.0429688.1655273-.0800781.3105469-.1132812.4418945-.0634766.2529297-.1132812.4526367-.1777344.6508789-.1152344.3618164-.2529297.7255859-.3857422,1.0766602-.2792969.7412109-.5683594,1.5068359-.6611328,2.2788086-.2265625,1.890625.0585938,3.6293945.8710938,5.3168945,1.4189453,2.9482422,1.3515625,3.5253906.1669922,6.6914062-.1621094.434082-.3007812.9326172-.4345703,1.5693359-.1142578.5361328-.2333984,1.0717773-.3535156,1.6069336-.3232422,1.4482422-.6582031,2.9458008-.8632812,4.4355469-.2695312,1.9736328.0390625,3.8413086.9179688,5.550293.6113281,1.1889648,1.6669922,1.4399414,2.6884766,1.6826172l.0869141.0205078c1.2236328-.4814453,1.9033203-1.2744141,2.2695312-2.6445312.4726562-1.7700195,1.1601562-3.6201172,2.2275391-5.9980469.7871094-1.7553711,1.6367188-3.4311523,2.5361328-5.2045898.3857422-.7607422.7734375-1.5253906,1.1582031-2.300293l.0332031-.0683594,2.3837891-.0356445c2.0742188-.9350586,3.3837891-2.5737305,4.1201172-5.1542969.6435547-2.2573242,1.9638672-3.6845703,4.0351562-4.3623047.6630859-.2172852,1.4150391-.4638672,2.0625-.8413086,1.1777344-.6879883,2.3496094-.8618164,3.8134766-.5629883l.0761719.015625.2041016.8183594c.1181641.4770508.2392578.9648438.3642578,1.4516602.6132812,2.4072266.4667969,4.8789062.3242188,7.2695312l-.0302734.5141602c-.0605469,1.0483398-.4755859,2.0761719-.8125,2.7543945-1.0117188,2.0375977-2.4863281,3.8325195-4.5068359,5.487793-1.7089844,1.3984375-3.1572266,2.7426758-3.5703125,5.0180664l1.4726562,3.1879883-.0810547.0605469c-.3447266.2573242-.6884766.5273438-1.0341797.7998047-.7753906.6113281-1.578125,1.2431641-2.4394531,1.7543945-1.0927734.6494141-2.2363281,1.2441406-3.3417969,1.8193359-.8798828.4575195-1.7890625.9301758-2.6660156,1.4272461-1.7763672,1.0068359-3.7158203,2.3740234-4.6503906,4.8818359.3515625.5805664.8271484.9570312,1.6259766,1.2910156,1.09375.4575195,2.2128906.4165039,3.2958984.375.5429688-.0205078,1.1035156-.0410156,1.65625,0,1.8701172.1333008,3.4912109-.6103516,4.7001953-1.2758789l.2246094-.1225586c.3867188-.2119141.7861328-.4306641,1.1669922-.6650391,3.4628906-2.1333008,7.1123047-5.0322266,7.9306641-10.3613281.0117188-.0766602.0449219-.2641602.0966797-.4008789l-.4863281-3.4892578.0253906-.0390625c1.84375-2.7993164,3.0791016-5.8129883,4.0449219-8.3916016,1.1914062-3.1835938,1.6367188-6.0961914,1.3603516-8.9057617-.0888672-.9008789-.0830078-1.8164062-.0771484-2.7016602.0029297-.3911133.0058594-.7792969,0-1.1621094-.0976562-.1875-.2041016-.3671875-.3085938-.5429688-.2402344-.40625-.4677734-.7900391-.5654297-1.2192383-.2578125-1.128418-.6855469-2.3676758-1.9023438-3.0014648-1.1005859-.5742188-2.2929688-1.1176758-3.6083984-.9545898-.5136719.0639648-1.0341797.1538086-1.5380859.2412109-.5927734.1020508-1.2060547.2080078-1.8144531.2734375-3.3642578.3608398-5.7636719,1.5234375-7.5527344,3.6582031-.8974609,1.0712891-1.7636719,2.206543-2.6015625,3.3041992-.3818359.5009766-.7646484,1.0014648-1.1503906,1.4985352l-.0341797.0429688-3.8662109.3242188-.0410156-.046875c-.5712891-.644043-.5488281-1.3769531-.5253906-2.1523438.0117188-.3710938.0234375-.7543945-.0234375-1.1611328l-.0488281-.4267578,1.4453125,1.7910156,1.9277344-.0292969c.1279297-.2080078.2695312-.4145508.4072266-.6152344.3271484-.4780273.6660156-.9726562.8457031-1.5112305,1.0166016-3.0537109,2.5234375-5.6582031,4.6064453-7.9624023.4755859-.5263672.8857422-1.1435547,1.2822266-1.7407227.1650391-.2495117.3310547-.4985352.5009766-.7426758.2128906-.3037109.4189453-.6123047.625-.9208984.1396484-.2094727.2792969-.418457.4208984-.6259766.1972656-.2910156.3984375-.5805664.6230469-.9042969l.3242188-.4682617-1.1777344-1.4990234-1.5996094.0249023-1.3271484,2.7036133-2.3271484.7163086.1142578-.2514648c.2119141-.46875.4277344-.9116211.6367188-1.340332.4501953-.9213867.8740234-1.7919922,1.1474609-2.699707.0644531-.2163086.1435547-.4360352.2226562-.6582031.3857422-1.078125.7841797-2.1923828-.2197266-3.3637695-.0634766-.0019531-.1269531-.0029297-.1904297-.0029297-2.9667969,0-4.9052734,1.921875-6.8837891,4.8012695l-.1279297.1865234-.0888672-.2084961c-.1777344-.4160156-.3300781-.8085938-.4746094-1.1796875-.2988281-.7700195-.5576172-1.4350586-.9238281-2.0239258-.4316406-.6923828-.9775391-1.3261719-1.5058594-1.9394531-.2353516-.2729492-.4707031-.5458984-.6972656-.8242188l-.1152344-.1416016.1738281-.0556641c1.0986328-.3510742,1.3955078-1.3564453,1.6962891-2.4291992l-.7167969-1.3891602c-1.9628906-.8466797-2.953125-.7368164-4.0537109.4443359l-.6855469,1.6328125.7675781,1.4892578,1.4160156.3652344-.0722656.1391602c-.8447266,1.6269531-.4638672,3.109375.0214844,4.3447266.1455078.3720703.2988281.7416992.4511719,1.1123047.4150391,1.0048828.8447266,2.0444336,1.1230469,3.1132812.0673828.2553711.1601562.5092773.2578125.7783203.2910156.7988281.6201172,1.7041016.2333984,2.7709961l-.0498047.1376953-.1279297-.0712891c-1.3134766-.7348633-2.6679688-1.2983398-4.2617188-1.7729492-1.1376953-.3378906-2.0039062-.1171875-2.9951172.7583008-.5742188.5078125-1.1367188,1.0527344-1.6816406,1.5795898-.5634766.5454102-1.1455078,1.109375-1.7441406,1.6352539-.1621094.1425781-.3222656.2880859-.484375.4350586-.7802734.7089844-1.5878906,1.4423828-2.7011719,1.9414062l-.1728516.0771484-.1298828-8.5415039-1.3398438-2.6259766-2.1240234-1.050293c-1.984375-.3691406-3.5576172.3305664-5.2197266,1.0737305-.4550781.203125-.9248047.4130859-1.4121094.605957-1.9365234,2.1567383-3.5751953,4.6992188-4.8720703,7.5576172-.203125.4477539-.3183594.9570312-.4296875,1.449707l-.0253906.1098633c-.5966797,2.6225586-.6894531,5.3994141-.7714844,7.8491211-.0263672.8032227.0126953,1.6318359.0507812,2.4326172.0625,1.3129883.1259766,2.6704102-.0966797,3.9584961-.5429688,3.1298828-.3144531,6.0478516.6972656,8.9204102.2236328.6342773.5292969,1.5024414,1.0361328,2.0307617.7851562.8188477,1.6328125,1.6005859,2.453125,2.3564453.65625.6049805,1.3359375,1.230957,1.9804688,1.8740234.4013672.4003906.8085938.796875,1.2158203,1.1933594,1.3984375,1.3618164,2.8447266,2.7695312,4.0478516,4.347168,1.1181641,1.4648438,2.1044922,3.0776367,3.0585938,4.637207.5839844.9550781,1.1875,1.9418945,1.8144531,2.8847656.4667969.7016602,1.1308594,1.2802734,1.7792969,1.8012695,1.1347656.9125977,2.515625,1.4291992,4.1044922,1.5356445l.1142578.0078125.0019531.1147461c.0029297.1933594.0185547.3789062.0341797.5561523.0322266.3706055.0634766.7207031-.0380859,1.0288086-.7470703,2.2963867-1.4824219,4.4140625-2.2470703,6.4736328-.3222656.8681641-.6767578,1.7392578-1.0195312,2.5820312-.5039062,1.2412109-1.0253906,2.5244141-1.453125,3.8168945-.4130859,1.2495117-.9824219,2.4296875-1.5322266,3.5708008-.1513672.3129883-.3017578.625-.4492188.9384766-.9287109,1.9755859-1.9873047,3.7539062-3.1474609,5.2851562l-.5195312.6889648c-1.2539062,1.6665039-2.5498047,3.3901367-4.1279297,4.8398438-2.9130859,2.675293-5.3398438,5.1186523-7.4199219,7.4682617-2.5712891,2.9038086-4.0703125,6.7192383-4.5839844,11.6650391-.0244141.2275391-.0107422.4711914.0390625.6870117.140625.6030273.2929688,1.203125.4619141,1.8691406Zm38.0048828-100.5644531c.0097656-.2431641.0185547-.4941406.0136719-.7407227l-.0029297-.1679688,2.0976562.5947266-.0234375.1132812c-.0166016.0791016-.0244141.159668-.0332031.2368164-.0205078.1835938-.0400391.3569336-.140625.4833984-.3173828.3989258-.6650391.7836914-1.0332031,1.190918-.1435547.1591797-.2929688.3242188-.4482422.4985352l-.140625.1577148-.0693359-.1992188c-.2714844-.7700195-.2451172-1.4804688-.2197266-2.1674805Zm-2.6210938,8.2250977c.0332031-.2080078.0527344-.3793945.0683594-.5214844.0322266-.284668.0537109-.4726562.1533203-.6186523.0878906-.1269531.2617188-.1137695.5029297-.0976562.1005859.0073242.2148438.0136719.3300781.0136719l.2714844-.0043945-1.3984375,1.6767578.0722656-.4482422Z" stroke-width="0"/>
      <path d="m9.4755859,113.7326811l-2.9316406,4.2836914c.0039062.2495117-.0341797.5361328-.078125.8652344-.0654297.4902344-.1396484,1.0454102-.0927734,1.6416016.2158203,2.6977539,1.4921875,5.0791016,2.7255859,7.3818359l.0195312.0361328c1.8779297,3.5,4.2822266,5.8466797,7.3505859,7.1743164.9794922.4243164,1.9667969.824707,3.109375,1.2890625.5693359.2314453,1.1767578.4780273,1.8388672.75.9472656.2050781,1.9560547-.109375,3.0253906-.4423828,1.2490234-.3891602,2.6650391-.8300781,4.2138672-.4550781l.0332031.0131836,2.9130859,1.6782227,1.5849609.0644531c2.0722656-.7597656,2.2822266-2.3330078,2.2753906-3.9047852l-.1230469-.0351562.0917969-.2495117-.1494141-.8007812.6904297.0517578-.2832031.7705078.015625.0834961c.5693359.237793.6914062.7485352.8105469,1.2436523l.0175781.0732422c.3994141,1.6547852,1.0683594,3.7792969,2.7158203,5.5375977,1.8007812,1.921875,4.3574219,2.6503906,6.515625,1.8540039,2.7285156-1.0078125,4.8789062-2.9023438,6.4472656-4.4399414.7412109-.7275391,1.4179688-1.5449219,2.0722656-2.3359375.4775391-.5761719.9707031-1.171875,1.4873047-1.7314453.1708984-.1845703.3398438-.3701172.5097656-.5556641.9853516-1.0761719,2.0029297-2.1894531,3.1708984-3.0947266,1.7958984-1.3916016,2.9248047-2.6870117,3.6611328-4.2001953.3945312-.8115234.8652344-1.5991211,1.3203125-2.3603516l.1611328-.2700195c2.0556641-3.4492188,2.6083984-7.2485352,1.6425781-11.2929688-.6582031-.5991211-1.046875-.3735352-1.5390625-.0917969-.2099609.1210938-.4277344.2460938-.6767578.3056641l-.2128906.0512695.40625-1.3066406c-.3886719-.7426758-.78125-1.4907227-1.1445312-2.1831055l-.0478516-.0913086.0810547-.0644531c.9033203-.7192383,1.0615234-1.7368164,1.2275391-2.8144531.0615234-.3974609.1259766-.8085938.2304688-1.1972656.2617188-.9716797-.2001953-1.8925781-.6494141-2.597168-.0146484,0-.0292969-.0004883-.0439453-.0004883-2.0087891,0-2.8779297,1.3237305-3.7197266,2.6044922-.2128906.3232422-.4140625.6289062-.6328125.9135742-1.1259766,1.4702148-1.4375,3.331543-.8330078,4.9794922l.0380859.1049805-.1005859.0498047c-2.7089844,1.3349609-5.5566406,1.4819336-8.4648438.4375-2.1298828-.7636719-3.9960938-.4907227-5.8789062.8608398-.9433594.6772461-1.9443359,1.1958008-3.0615234,1.5849609-2.0068359.6972656-4.1767578.7856445-6.8320312.2802734l-.0351562-.0126953c-1.0664062-.5698242-2.1484375-1.2036133-3.1943359-1.815918-2.6054688-1.5263672-5.3007812-3.1044922-8.28125-4.043457l-3.6816406-.456543-.0146484-.0927734c-.3056641-1.9736328-1.1396484-3.7993164-1.9453125-5.5649414-.7587891-1.6621094-1.5429688-3.3808594-1.8896484-5.2246094l-.0224609-.1157227.1152344-.0283203c2.6162109-.6425781,5.0644531.0322266,7.1533203.7158203.3134766.1025391.609375.2734375.8955078.4389648.3603516.2080078.7011719.4047852,1.0605469.4667969.7109375.1225586,1.1748047.4741211,1.6669922.8461914.1279297.0966797.2578125.1953125.3955078.2919922.4931641.3466797.9599609.7631836,1.4121094,1.1665039,1.2324219,1.1010742,2.515625,2.2392578,4.5009766,2.1254883l1.3720703-.7617188c.4472656-.7749023.8574219-1.4863281,1.2470703-2.1645508-.0097656-.078125-.0214844-.1523438-.0322266-.2246094-.0273438-.175293-.0537109-.3408203-.0458984-.5073242.1318359-3.1230469-2.3867188-5.7006836-4.8242188-6.5400391-2.2402344-.7709961-4.6318359-1.5483398-7.0673828-1.8383789-.984375-.1166992-1.6474609-.581543-2.2958984-1.0883789l-.0410156-.0327148-.0058594-.0527344c-.3447266-3.3457031-.1357422-4.8525391.8955078-6.4501953l.0341797-.0537109.0644531-.003418c4.4736328-.2216797,7.6542969-1.9804688,9.7216797-5.3769531l.0283203-.0454102,1.3525391-.2905273.046875.0410156c.1503906.1323242.2871094.2592773.4150391.3793945.2539062.237793.4736328.4428711.7197266.6044922,2.1005859,1.3803711,4.2460938,2.7714844,6.3203125,4.1166992l1.6240234,1.0537109c.0800781.0517578.1650391.0986328.2490234.1455078.1308594.0727539.2666016.1484375.3896484.2431641.6708984.519043,1.3447266,1.0366211,2.0166016,1.5537109,1.9541016,1.5024414,3.9746094,3.0556641,5.9228516,4.6298828,1.1132812.8984375,2.2402344,1.8085938,2.1035156,3.5732422-.0859375,1.1010742.4580078,2.3041992,1.453125,3.2182617l4.3115234,2.4804688c.5761719.0200195,1.1552734.0419922,1.7373047.0644531,1.3447266.0507812,2.7363281.1035156,4.109375.1313477.0439453.0009766.0878906.0014648.1318359.0014648,1.5712891,0,3.0576172-.5561523,4.5390625-1.6972656.6640625-.5117188,1.3427734-1.2919922.8330078-2.1157227-3.0322266-1.4423828-6.0556641-1.5976562-9.2558594-1.762207-1.4912109-.0766602-3.0332031-.1557617-4.5927734-.3740234l-.0898438-.0126953-.1220703-.7119141c-.0869141-.5068359-.1806641-1.0507812-.2646484-1.5957031-.1660156-1.0732422-.7480469-2.1303711-1.7802734-3.2324219-1.5439453-1.6489258-3.0761719-3.2358398-4.8330078-4.5214844-1.3740234-1.0048828-2.6240234-2.1660156-3.8339844-3.2890625-.8505859-.7900391-1.7304688-1.6064453-2.6425781-2.359375-.5732422-.4731445-1.1455078-.9643555-1.6982422-1.4394531-2.0078125-1.7260742-4.0839844-3.5107422-6.5664062-4.6879883-.1542969-.0737305-.3017578-.1625977-.4570312-.2563477-.0664062-.0400391-.1347656-.081543-.2070312-.1235352-2.1621094-.2290039-3.7382812.4194336-5.1220703,2.0839844-1.2792969,1.5380859-2.6943359,3.1010742-4.6757812,3.8286133l-.0419922.0073242c-.2714844.0039062-.5429688-.0039062-.8066406-.0102539-.5595703-.0117188-1.0888672-.0229492-1.6044922.0371094-2.2919922.2719727-4.5449219.8745117-5.4941406,3.4228516-.1777344.4760742-.4541016.8999023-.6757812,1.2407227-.0742188.1142578-.1416016.2177734-.1943359.3076172-.0517578.590332-.1171875,1.1499023-.1806641,1.690918-.1357422,1.1601562-.2646484,2.2563477-.2060547,3.3305664.0634766,1.1567383.3164062,2.3349609.5605469,3.4741211.1064453.4970703.2167969,1.0107422.3085938,1.5151367l.0087891.0444336-.0224609.0395508c-.3496094.6186523-.9667969.722168-1.4628906.8056641-.2675781.0444336-.5205078.0869141-.6835938.1987305l-1.9335938,2.0444336.0517578,3.7358398-3.625.2519531c.0136719.1757812.0234375.3461914.0341797.5117188.0673828,1.0810547.1201172,1.9345703.9326172,2.9135742,1.3134766,1.5820312,2.9033203,1.6665039,4.5859375,1.7553711.2451172.0131836.4921875.0258789.7402344.0439453l.0888672.0058594.3085938,1.1787109-.1347656.0229492c-.4013672.0673828-.7978516.1313477-1.1904297.1943359-.8886719.1430664-1.7275391.277832-2.5703125.4501953-.1582031.0322266-.3154297.065918-.4716797.1000977-1.125.2431641-2.2880859.4941406-3.5732422.0126953-.3955078-.1479492-.7617188-.1313477-1.0029297.0444336-.2333984.1713867-.3505859.4833984-.3398438.9052734l3.3867188,1.9511719c.2763672-.0136719.5732422-.0253906.8847656-.0380859.7871094-.03125,1.6796875-.0668945,2.5585938-.1484375.9365234-.0869141,1.515625-.7143555,2.1855469-1.440918.2373047-.2578125.4833984-.5239258.7597656-.7822266l.1513672-.1416016.5214844,1.9199219-.0654297.0512695-6.015625,4.6674805Zm5.0332031-6.5795898l-.1601562-.6254883.6484375-.1240234-.4882812.7495117Zm20.8251953,23.4936523c-.0039062-.0161133-.0107422-.0341797-.0166016-.0522461-.0263672-.0712891-.0576172-.159668-.0078125-.2392578.0517578-.0800781.1445312-.0893555.2197266-.0966797.0195312-.0019531.0390625-.0039062.0556641-.0073242l.0830078-.0170898.2099609.3251953-.5078125.2333984-.0361328-.1459961Zm.1914062,1.824707l-.1279297-.4638672.4111328-.0737305.21875.3178711-.5019531.2197266Zm19.0117188-10.0063477l.6005859-.3989258c1.3027344-.8623047,2.6494141-1.7539062,3.7773438-2.8686523.1240234-.1220703.3144531-.152832.5166016-.1850586.0898438-.0146484.1845703-.0297852.2783203-.0541992l.1220703-.0317383.0302734.1225586c.0234375.0966797.0605469.1967773.0966797.2954102.0869141.2333984.1757812.4750977.0957031.6733398-.125.3149414-.2470703.6328125-.3691406.9511719-.4707031,1.2250977-.9570312,2.4916992-1.640625,3.6206055-.4970703.8212891-1.3867188,1.40625-2.2470703,1.972168l-.1591797.1049805c-3.1074219,2.0546875-5.6953125,4.6743164-7.8769531,6.9682617-.8105469.8540039-1.6748047,1.6352539-2.5898438,2.4619141-.4111328.3720703-.828125.7490234-1.2460938,1.1386719l-.0703125.0654297-.0820312-.0517578c-3.0185547-1.9301758-3.7929688-6.3671875-1.7275391-9.8916016l.0419922-.0429688,4.6132812-2.8442383.0566406.0219727c3.0175781,1.1489258,5.3310547-.3935547,7.7792969-2.0273438Zm-37.0058594-10.5444336l.2285156-.1923828c1.1855469-1.0014648,2.8349609-1.2836914,4.9023438-.8339844l.0361328.0136719c.7529297.434082,1.5537109.894043,2.3876953,1.3735352,1.9765625,1.1347656,4.2167969,2.4213867,6.4130859,3.7021484,3.1279297,1.8212891,6.6474609,2.3549805,10.4726562,1.5849609,1.0722656-.2163086,2.1289062-.5795898,3.1503906-.9311523.5058594-.1743164,1.0292969-.3544922,1.5498047-.5151367.2080078-.0639648.4179688-.1020508.6621094-.1459961.1171875-.0209961.2412109-.043457.3740234-.0703125l.0761719-.015625.9306641,1.2119141-3.5214844,3.8188477-.0488281.003418c-7.2587891.5004883-11.7265625,3.1674805-14.0585938,8.3925781l-.2226562,3.4726562-.0546875.0336914c-.4697266.2900391-.9189453.3925781-1.3525391.3925781-.5429688,0-1.0625-.1606445-1.5732422-.3183594-.5693359-.1757812-1.0996094-.3457031-1.6630859-.2885742-.9619141.0917969-1.9697266-.059082-2.9433594-.206543-.4257812-.0639648-.8652344-.1308594-1.2919922-.175293l-.0849609-.0087891-.109375-.3989258c-.1474609-.1113281-.2919922-.2260742-.4365234-.3408203-.3310547-.2626953-.6728516-.5341797-1.0332031-.7529297-1.4228516-.862793-2.5234375-1.996582-3.4658203-3.5693359-1.1113281-1.8540039-2.3330078-3.6782227-3.5146484-5.4418945-.4970703-.7421875-.9921875-1.480957-1.4775391-2.2182617l-.0234375-.0356445.0039062-.0424805c.1279297-1.5834961.6464844-2.7495117,1.7353516-3.8979492,1.2363281-1.3037109,2.6181641-2.4707031,3.953125-3.5996094Z" stroke-width="0"/>
      <path d="m83.2568359,226.1408842c-.0927734-.2236328-.1865234-.4462891-.28125-.668457-.8085938-1.9150391-1.6445312-3.8950195-1.6962891-6.1875-.0488281-2.2172852-1.0625-3.9731445-2.8554688-4.9453125-.6181641-.3349609-1.2353516-.6733398-1.859375-1.0146484l-.9472656-.5185547.0537109-.1069336c.25-.5043945.5117188-.9941406.7646484-1.4677734.5498047-1.0302734,1.0693359-2.003418,1.4414062-3.0439453,1.5292969-4.2729492,1.9521484-8.7324219,2.1494141-12.1401367.0732422-1.2856445.0537109-2.6855469-.0615234-4.4057617-.1005859-1.4667969-.2363281-3.0292969-.5546875-4.519043-.2207031-1.034668-.8095703-1.8823242-1.6572266-2.3867188-.3671875-.2172852-.7294922-.4423828-1.0576172-.6459961l-.3662109-.2275391-1.7871094.0268555-2.2167969,2.5532227.0449219,2.9492188,2.1904297,3.4853516c.1123047.5751953.2148438,1.1547852.3183594,1.7363281.2539062,1.4267578.5166016,2.9018555.9150391,4.3100586.2578125.9160156.3808594,1.6499023.4003906,2.378418.0214844.8525391.0332031,1.7050781.0439453,2.5180664l.0146484,1.0751953-.0117188.0258789c-.0957031.2055664-.1982422.394043-.2988281.5761719-.2011719.3681641-.375.6860352-.4179688,1.0200195-.2539062,1.987793-.8164062,3.7553711-1.7197266,5.4047852-.1484375.2695312-.1591797.6376953-.1699219,1.0273438-.0048828.1665039-.0097656.3378906-.0263672.5053711l1.3789062,1.4453125.1074219-.1967773,3.6503906,1.4140625.7675781,1.4399414c.0986328.6347656.2080078,1.2148438.3154297,1.7758789.2236328,1.1787109.4169922,2.1967773.4023438,3.2246094-.0185547,1.2368164.3515625,2.2792969.7441406,3.3833008.0859375.2431641.1728516.4868164.2548828.7329102.3212891.9609375.6796875,1.9155273,1.0595703,2.9262695.1777344.472168.3603516.9584961.5478516,1.4677734l.046875.1274414-.9726562.2666016c-.5947266.1640625-1.1328125.3125-1.6738281.4492188-.2128906.0541992-.4306641.09375-.640625.1323242-.2265625.0410156-.4599609.0834961-.6826172.1430664-.6982422.1875-1.3935547.3837891-2.0898438.5800781-1.5185547.4277344-3.0888672.8706055-4.6542969,1.2070312-.9042969.1962891-1.8623047.3359375-2.7832031-.2631836-.265625-.1728516-.6347656-.1914062-.9599609-.2075195-.1396484-.0068359-.2714844-.0136719-.3857422-.0317383l-.0322266-.0048828-.0244141-.0200195c-.2080078-.1616211-.4160156-.3198242-.6220703-.4765625-1.4375-1.0927734-2.7949219-2.1245117-3.4355469-3.9775391l-.015625-.046875.0205078-.0454102c.0673828-.1469727.1396484-.293457.2128906-.4414062.3935547-.793457.8007812-1.6132812.46875-2.7158203l-1.1845703-.9970703c-1.8095703.4726562-2.2714844,1.9023438-2.7597656,3.4155273-.2236328.6938477-.4550781,1.4111328-.8251953,2.0400391l-.0507812.0859375-9.1220703-2.9165039-1.2519531-2.5859375.0400391-.059082c.2548828-.3793945.4970703-.7641602.7314453-1.1367188.5126953-.8168945.9980469-1.5883789,1.5947266-2.2729492,2.2373047-2.5644531,4.5537109-5.1303711,6.7929688-7.6118164.8085938-.8955078,1.6162109-1.7905273,2.4228516-2.6879883.0634766-.0708008.1464844-.1166992.2265625-.1577148,1.3427734-.6860352,2.3945312-1.8476562,3.3095703-3.6547852.4443359-.8774414.8994141-1.75,1.3535156-2.6220703.9443359-1.8125,1.9208984-3.6865234,2.7841797-5.5776367.5048828-1.105957.8525391-2.2758789,1.2207031-3.5141602.1533203-.515625.3105469-1.0473633.4824219-1.5771484l-1.359375-.5771484c-2.2597656.3618164-4.0537109,1.6152344-5.484375,3.8305664-1.0400391,1.6118164-1.9628906,3.5014648-2.9902344,6.1274414-.8681641,2.2163086-1.71875,4.1762695-3.3349609,5.7216797-1.7890625,1.7114258-3.6875,3.5478516-5.4941406,5.5229492-1.0302734,1.1264648-1.9912109,2.3432617-2.9189453,3.5205078-.4091797.5180664-.8144531,1.03125-1.2207031,1.5317383l-.0371094.0449219-1.9228516.0292969c-3.0703125,1.0219727-4.5322266,3.4467773-5.9472656,5.7915039-.1962891.324707-.3896484.6464844-.5869141.9614258l-.0283203.0463867-.0546875.0102539c-1.15625.2167969-2.0976562.3935547-3.0380859.5708008l-.1679688.03125.0205078-.1689453c.1972656-1.5922852.1982422-1.6035156-.5107422-3.8129883l-2.4980469-1.3286133c-.1357422.0332031-.2832031.0732422-.4394531.1162109-.4570312.1240234-.9746094.2651367-1.5117188.3305664l-.0400391.0048828c-.6572266.0800781-1.4023438.1704102-2.0205078-.059082-1.6806641-.6254883-3.5039062-.8491211-5.7460938-.6977539l-.0371094.0024414-.0322266-.0180664c-2.8857422-1.5888672-5.5039062-3.3442383-5.8417969-7.3129883-.0449219-.5292969-.2832031-1.0361328-.5351562-1.5727539-.1269531-.2695312-.2578125-.5488281-.3613281-.8291016-.2314453-.6303711-.4511719-1.265625-.6572266-1.8618164l-.2558594-.7373047.0332031-.0512695c.8994141-1.4013672,2.1513672-1.8232422,3.3632812-2.2314453.3642578-.1225586.7421875-.25,1.1005859-.4018555l.0898438-.0375977,1.8847656,2.4892578,2.7792969-.0424805c1.0087891-1.262207,1.53125-2.6938477,1.9091797-3.9311523.2480469-.809082.4970703-1.4428711.7861328-1.9941406,1.7988281-3.4316406,4.7119141-5.3442383,9.1679688-6.0195312,1.3388672-.203125,2.7529297-.5332031,4.5839844-1.0698242.7480469-.21875,1.4912109-.5200195,2.2089844-.8110352.4462891-.1811523.9082031-.3681641,1.3691406-.534668,1.7480469-.6323242,3.6181641-1.2949219,5.5703125-1.8330078,4.0634766-1.1196289,6.9472656-2.4838867,9.3525391-4.4228516.7597656-.612793,1.515625-1.230957,2.2802734-1.855957l1.0576172-.8642578-.4248047-1.1987305c-.4033203-.0927734-.7724609-.1850586-1.1162109-.2709961-.75-.1875-1.3984375-.3496094-2.0429688-.4277344-.9824219-.1186523-1.7998047-.1069336-2.4980469.0371094-.9570312.1967773-1.9238281.4453125-2.8574219.6860352-1.0683594.2749023-2.1728516.559082-3.2734375.769043-2.6513672.5053711-5.3798828,1.2919922-8.84375,2.5498047-2.4238281.8789062-4.8085938,1.7109375-7.3505859,2.2265625-3.5673828.7241211-6.3681641,2.3032227-8.5615234,4.8266602-1.4794922,1.703125-2.5351562,3.6132812-3.6523438,5.6357422-.1699219.3061523-.3388672.612793-.5107422.9194336l-.0351562.0625-5.3017578.0805664c-.2841797.1586914-.5585938.3232422-.8300781.4853516-.6162109.3681641-1.1982422.7163086-1.828125.9702148-2.4726562.9960938-4.1064453,2.5996094-4.9931641,4.9008789.0185547,1.2382812.0361328,2.4438477.0546875,3.6035156.2080078.3686523.4199219.7285156.6298828,1.0849609.4912109.8344727.9560547,1.6220703,1.3398438,2.4736328.3798828.8417969.5380859,1.7675781.6914062,2.6630859.0859375.5029297.1757812,1.0224609.3027344,1.5141602.4804688,1.8642578,2.8779297,4.0483398,4.6640625,3.7260742.6328125-.1137695,1.2861328-.0957031,1.9169922-.0795898.2822266.0073242.5585938.015625.8369141.0107422l.0693359-.0009766.0371094.0581055c2.5068359,3.8842773,7.9277344,6.0141602,12.0820312,4.75l.1025391-.03125,1.2431641,2.621582-1.1669922,1.5249023-1.5185547-1.9160156-1.8916016.0283203-.9804688,1.1748047.0292969,1.9428711.9951172.9428711,1.375-.0209961,1.3613281-1.3881836.0859375.0576172c.0644531.0429688.1269531.0961914.1904297.1489258.109375.0922852.2226562.1879883.3115234.1923828.5048828.0249023,1.0185547.0107422,1.4726562-.0009766.1640625-.0048828.3222656-.0087891.4707031-.0112305l.0283203-.0004883,5.9873047,2.7768555c2.4482422-.2080078,3.3994141-1.8198242,4.40625-3.5258789.2216797-.3759766.4511719-.7646484.6972656-1.1401367l.1259766-.190918.0927734.2089844c.1103516.2509766.2285156.4804688.3427734.703125.3925781.7666016.7324219,1.4282227.4599609,2.3520508l-.0126953.0302734-1.15625,1.8706055-1.8232422.027832c-.3652344.3823242-.7138672.7460938-.9462891.987793l.03125,2.0024414c.3232422.1342773.6064453.3515625.8808594.5625.5976562.4570312,1.1142578.8500977,1.921875.4145508.3261719-.3051758.7060547-.6245117,1.0732422-.9335938.8535156-.7197266,1.7373047-1.4633789,2.4111328-2.3652344.6513672-.8720703,1.1152344-1.9414062,1.5634766-2.9755859.2001953-.4614258.4072266-.9384766.6289062-1.3964844l.0341797-.0693359,2.3476562-.0356445.0341797.0708008,2.6103516,5.3100586-1.9804688,1.765625.0029297.1318359c.0126953.8408203.0244141,1.581543.0351562,2.3374023l1.0849609,1.0532227c1.5546875.1918945,2.4990234-.1362305,3.1621094-1.0878906.2304688-.7685547.125-1.5043945.0126953-2.2832031-.0898438-.6264648-.1826172-1.2744141-.0800781-1.9326172.0566406-.3671875-.2177734-.8168945-.4599609-1.2143555-.1054688-.1713867-.2041016-.3330078-.2695312-.4785156l-.0117188-.0493164-.0429688-2.9238281,5.4316406-.8769531.0439453.0698242c1.0800781,1.7070312,2.9736328,2.4013672,4.8212891,2.9663086.3183594.097168.6357422.199707.953125.3017578,1.5751953.5083008,3.2089844,1.0341797,4.9560547.9189453,2.3925781-.1557617,4.8876953-.4975586,7.8535156-1.0742188,2.1269531-.4135742,4.1455078-1.2519531,4.5166016-4.5488281-.1699219-.3857422-.3505859-.7895508-.5371094-1.2070312-.4697266-1.0483398-.9541016-2.1318359-1.421875-3.2529297Z" stroke-width="0"/>
      <path d="m203.3837891,291.8962553c.0351562-1.2368164-.0878906-2.3208008-.3759766-3.3134766-.2138672-.7412109-.3662109-1.5087891-.5136719-2.2519531-.2412109-1.2104492-.4892578-2.4619141-1.0097656-3.6201172-1.4423828-3.2055664-3.2490234-6.4892578-6.6767578-8.7919922l-.1328125-.0888672.1181641-.1069336c.1347656-.121582.265625-.2368164.3935547-.3491211.2636719-.230957.5136719-.449707.7431641-.6850586,1.7363281-1.777832,3.0117188-4.0136719,4.1347656-7.2504883.4306641-1.2412109.5742188-2.5595703.7128906-3.8344727.078125-.7163086.1582031-1.456543.2880859-2.1782227.0595703-.3271484.1210938-.7915039-.0234375-1.0454102-.3183594-.559082-.3300781-1.1420898-.3417969-1.7055664-.0048828-.2451172-.0097656-.4985352-.0419922-.7412109-.0351562-.2758789-.1074219-.5546875-.1767578-.8242188l-.0625-.2441406c-.7871094-3.1904297-2.2148438-6.0131836-3.640625-8.5878906-.265625-.4804688-.5693359-.9506836-.8623047-1.4047852-.1660156-.2573242-.3320312-.5146484-.4931641-.7749023-.0517578-.0839844-.1054688-.1674805-.1591797-.2509766-.3896484-.6025391-.7919922-1.2255859-.4765625-2.0952148l.0205078-.0361328c.0966797-.1191406.2001953-.2358398.3037109-.3535156.2158203-.2456055.4404297-.4995117.6083984-.7802734,1.4423828-2.4091797,2.3671875-4.7973633,2.828125-7.3017578l.1054688-.5688477c.2988281-1.6030273.6083984-3.2607422.546875-4.9643555-.0224609-.605957-.0390625-1.2119141-.0556641-1.8178711-.0751953-2.7944336-.1542969-5.6835938-.8154297-8.4833984l-.0214844-.090332c-.4941406-2.0961914-1.0058594-4.2641602-1.7617188-6.277832-.9101562-2.4267578-2.1474609-5.190918-4.4228516-7.2944336-.2080078-.1933594-.3378906-.465332-.4638672-.7285156-.0537109-.1132812-.1074219-.2255859-.1669922-.3286133l-.0527344-.0927734.0830078-.0664062c.9970703-.7988281,1.0039062-.8041992,1.7802734-2.6967773-.2910156-.9780273-.953125-1.3901367-1.9248047-1.734375-1.6362305-.581604-3.2070312-.3986816-4.7666016.5395508.4990234.0585327.9970703.1938477,1.4824219.3295898.2763672.0771484.5625.1572266.8466797.222168l.0712891.0161133.0205078.0698242c.3916016,1.3022461.109375,2.5400391-.8388672,3.6787109-.8120117.9750977-1.6235352,1.7713013-2.4638672,2.4278564.6513672.416748,1.3129883.848877,1.9013672,1.3582764,1.8896484,1.6347656,2.8847656,3.9501953,3.609375,5.9995117.6933594,1.9638672,1.1708984,3.7128906,1.4609375,5.3481445l.078125.4399414c.3505859,1.9667969.7128906,4.0004883.8417969,6.0493164.1640625,2.6044922-.1357422,5.1103516-.6367188,8.0717773-.2587891,1.5239258-.5517578,3.2509766-1.3164062,4.8232422-.7783203,1.5961914-1.6513672,3.2705078-3.0058594,4.6533203-.6523438.6665039-.9511719,1.5209961-1.265625,2.5664062l.7070312,1.3105469,1.4746094.4702148c.7109375-.3652344,1.4208984-.730957,2.1435547-1.1030273l.0761719-.0390625.0634766.0571289c.0390625.0351562.0839844.0678711.1289062.1005859.1123047.081543.2392578.1738281.2988281.3120117.3876953.8901367.8251953,1.7797852,1.2480469,2.6396484,1.2294922,2.4995117,2.5,5.0834961,2.7441406,8.0581055.9453125,2.5961914.3828125,5.3012695-.0703125,7.4755859-.5576172,2.675293-2.4482422,5.6064453-4.9345703,7.6494141-1.0917969.8974609-2.0087891,1.7451172-2.8037109,2.5922852-1.1347656,1.2099609-1.1943359,1.6313477-.4257812,3.184082.96875.7944336,1.9130859.5546875,2.9111328.300293.6972656-.1777344,1.4199219-.3603516,2.1601562-.1777344l.0439453.0209961c.1259766.09375.2597656.1899414.3984375.2890625.3242188.2329102.6601562.4736328.9833984.7475586,2.2060547,1.871582,2.7490234,4.5292969,3.1884766,7.5556641.3896484,2.6821289.0888672,5.4350586-.2568359,7.7739258-.0615234.418457-.0927734.8481445-.1240234,1.2636719-.0410156.5625-.0839844,1.144043-.2021484,1.7089844-.3886719,1.8525391-.7880859,3.7021484-1.1875,5.5517578l-.0878906.4067383c-.6904297,3.1977539-1.8828125,6.2617188-3.5419922,9.1069336-.9130859,1.5673828-1.8525391,3.0737305-2.8476562,4.668457-.4345703.6967773-.8730469,1.3994141-1.3125,2.1123047l.0986328,1.2958984c1.5917969.8354492,3.1337891.5859375,4.4960938.3657227.28125-.0454102.5498047-.0883789.8056641-.1196289,2.2539062-.8173828,3.9960938-2.081543,5.6230469-4.0927734,1.5986328-1.9780273,2.7851562-4.421875,3.7363281-7.6899414.6494141-2.2353516.6894531-4.581543.7294922-6.8500977.0166016-.9853516.0341797-2.0039062.1015625-3.0004883.078125-1.1708984-.0517578-2.3808594-.1777344-3.5512695-.1132812-1.0541992-.2304688-2.1445312-.2011719-3.2260742Z" stroke-width="0"/>
      <path d="m229.0117188,114.0608061l1.1132812,1.1982422,1.2841797-.0195312c.1367188-.2944336.2636719-.5869141.3896484-.875.2958984-.6791992.5761719-1.3208008.9394531-1.9199219,1.2851562-2.1206055,2.3300781-4.5151367,3.3886719-7.7641602.7324219-2.2529297,1.6855469-4.8061523,3.7304688-6.5898438,1.3476562-1.175293,2.7949219-2.4287109,4.2509766-3.6352539.6103516-.5058594,1.21875-1.0141602,1.8271484-1.5224609,1.9736328-1.6489258,4.0146484-3.3535156,6.0878906-4.9355469,2.7451172-2.0947266,5.9013672-3.4599609,8.9023438-4.6235352.1103516-.0429688.2197266-.1040039.3339844-.1689453.4130859-.2329102.9257812-.5234375,1.7216797.0678711l.0947266.0708008-.0654297.0981445c-3.1582031,4.7553711-6.84375,8.7919922-10.6591797,12.8505859l-.0234375.0244141-.0322266.0097656-3.0683594.9023438c-.1845703.1977539-.3710938.3916016-.5566406.5834961-1.3339844,1.3828125-2.5947266,2.6894531-2.0791016,4.9365234l1.0917969,1.0229492c.3115234-.1469727.6162109-.2871094.9150391-.4238281.6835938-.3134766,1.3300781-.609375,1.9560547-.9501953,4.6689453-2.5400391,8.6982422-5.1396484,12.3193359-7.9477539,1.3583984-1.0537109,2.8554688-2.0966797,4.6015625-2.5864258l.1337891-.0375977c1.0166016-.2880859,2.0683594-.5859375,2.7880859.6772461l.0166016.0595703.0830078,5.4663086-.0068359.0200195c-.6621094,1.9848633-1.9423828,3.0830078-3.1796875,4.1455078-.1269531.1088867-.2568359.2167969-.3867188.3251953-.5253906.4365234-1.0683594.8876953-1.4365234,1.4423828-.4736328.715332-.8486328,1.4975586-1.2451172,2.3261719-.1728516.3608398-.3486328.7275391-.5361328,1.0957031l-.0195312.0380859-.0390625.0180664c-.1494141.0703125-.3017578.1523438-.4580078.2363281-.3662109.1972656-.7451172.4008789-1.1572266.5-1.265625.3037109-2.5625.5634766-3.8164062.8149414-.4208984.0844727-.8417969.1689453-1.2617188.2548828-.2626953.0537109-.5253906.1196289-.7880859.1855469-.6132812.1538086-1.2480469.3125-1.8798828.3125h-.0488281c-1.9521484,0-3.9140625.5288086-5.9951172,1.6157227-.3789062.1982422-.7617188.4296875-1.1318359.6533203-.8671875.5239258-1.7646484,1.065918-2.71875,1.2504883-.9570312.1855469-1.8466797.5810547-2.7060547.9633789-.6230469.2773438-1.2675781.5639648-1.9355469.7700195-.5908203.1821289-1.9365234.7788086-1.7988281,2.4057617.9248047.6269531,1.6914062.8818359,2.828125.3579102.2421875-.1113281.484375-.2211914.7255859-.331543,1.7802734-.809082,3.6201172-1.6464844,5.2441406-2.8735352,1.5283203-1.1542969,3.0107422-1.644043,4.5302734-1.5078125,2.4042969.2192383,4.7558594-.2993164,7.0332031-.8017578.5693359-.125,1.1376953-.2504883,1.7080078-.3652344.7207031-.1445312,1.4404297-.3881836,2.1367188-.6235352.2128906-.0717773.4248047-.144043.6386719-.2133789l.1484375-.0483398c2.2666016-.7373047,4.6113281-1.4995117,6.3603516-3.1191406l.0351562-.0327148.0478516-.0004883,4.8408203-.0732422.0263672.0126953c1.7246094.8276367,3.0263672,1.9970703,4.2851562,3.1279297l.375.3364258c.9365234.8349609,1.4375,1.9179688,1.9228516,2.965332.2958984.6376953.6015625,1.296875.9990234,1.8798828l.0214844.03125.0009766.0371094.0439453,2.9741211-.0146484.027832c-1.5439453,2.9707031-3.3359375,4.6938477-5.8095703,5.5878906l-.0244141.0087891-.0253906-.0014648c-.1816406-.0126953-.3896484-.0092773-.6074219-.0058594-.546875.0073242-1.1630859.0166016-1.7265625-.1875-2.0644531-.7495117-4.1162109-.7973633-6.0244141-.7353516-3.1845703.1010742-5.8330078.1396484-8.3330078.121582-.0351562,0-.0703125-.0004883-.1054688-.0004883-2.3710938,0-4.4257812.5727539-6.2783203,1.7485352l-.6181641,1.4648438.7675781,1.625c.2089844.0356445.4277344.078125.6523438.1220703.578125.1123047,1.1757812.2280273,1.7832031.2626953.6796875.0390625,1.3710938.0498047,2.0390625.0595703,1.2714844.0195312,2.5859375.0395508,3.9013672.2558594,2.9013672.4770508,5.9023438.9707031,8.8349609,1.9077148,1.765625.5649414,3.2861328,1.3740234,4.6474609,2.4736328.4013672.3232422,1.2353516.9960938.4023438,2.0864258l-.0361328.0478516-.0605469.0009766c-.2783203.0043945-.5625.0107422-.8505859.0175781-.6748047.015625-1.375.0332031-2.0722656.0195312-.2275391-.0039062-.4511719-.0004883-.6777344.003418-.7021484.0112305-1.4267578.0229492-2.0820312-.1948242-1.5751953-.5244141-3.2226562-.7182617-4.8144531-.9057617-.6015625-.0708008-1.2226562-.1435547-1.8339844-.2338867-.3115234-.0458984-.6220703-.1259766-.921875-.203125-.2041016-.0522461-.4082031-.1049805-.6142578-.1474609-.3125-.0644531-.6279297-.1196289-.9423828-.175293-.5683594-.1000977-1.1552734-.203125-1.7236328-.3598633-.9726562-.2685547-1.921875-.5737305-2.8398438-.8691406-.3730469-.1201172-.7353516-.2368164-1.0859375-.3466797l-4.5380859-.6269531-.0292969-.0283203c-.5625-.5488281-1.1035156-1.1196289-1.6269531-1.671875-2.2080078-2.3325195-4.2958984-4.5371094-7.5732422-4.5371094h-.0478516c-.4755859,1.0029297-.0507812,1.7768555.3876953,2.4248047l.1347656.2006836c1.2587891,1.8676758,2.5615234,3.7993164,4.203125,5.3876953.9443359.9135742,2.0214844,1.5454102,3.2929688,1.9321289.3994141.121582.8105469.1948242,1.1728516.2597656.1367188.0244141.265625.0473633.3818359.0712891.8330078-.2646484,1.6171875-.3969727,2.3818359-.3969727.6865234,0,1.3564453.1064453,2.0332031.3188477.5507812.1728516,1.1396484.2612305,1.7089844.347168.4541016.0683594.9228516.1386719,1.3779297.2519531.9423828.2353516,1.8701172.5112305,2.9443359.8310547.4960938.1474609,1.0214844.3041992,1.5908203.4692383.3017578.0522461.6533203.1113281,1.03125.175293.96875.1630859,2.0664062.3476562,3.1767578.5732422.3105469.0629883.6201172.1318359.9296875.2001953,1.3652344.3027344,2.7802734.6166992,4.1904297.4086914,1.5517578-.2285156,3.3515625-.5161133,5.0654297-1.034668,1.0654297-.3222656,2.0332031-1.2114258,2.4091797-2.2119141.328125-.8730469.2148438-1.7929688-.3261719-2.6606445l-.0595703-.0952148c-.6113281-.9804688-1.2431641-1.9941406-2.0878906-2.644043-1.1113281-.8549805-2.3066406-1.5712891-3.5722656-2.3300781-.5371094-.3222656-1.0839844-.6494141-1.6357422-.9951172l-.4072266-.2548828.4804688.0249023c.1904297.0107422.3769531.0083008.5595703.0073242.390625-.0029297.75-.0048828,1.0917969.0991211,2.0068359.6113281,3.9443359.4501953,5.6054688-.4667969,1.7333984-.9580078,3.0205078-2.7075195,3.6240234-4.9257812.1425781-.5234375.3378906-1.0200195.5449219-1.5454102.09375-.2373047.1884766-.4780273.2802734-.7260742l-.0869141-5.7226562-2.3564453-5.6025391.203125.015625c.1835938.0136719.3691406.0117188.5488281.0087891.3964844-.0053711.7734375-.0097656,1.0898438.1538086,1.0673828.5541992,2.1191406,1.1757812,3.2333984,1.8339844.4365234.2578125.8857422.5234375,1.3544922.7963867l2.1835938-.0332031,1.1103516-1.7871094-.0058594-.2402344c-.0048828-.1865234-.0087891-.3554688-.0048828-.5234375.0351562-1.2016602-.5419922-2.0820312-1.5820312-2.4150391-1.2558594-.402832-2.2246094-.097168-2.8652344.909668-.1054688.1660156-.2548828.2875977-.4423828.4414062-.09375.0761719-.1982422.1611328-.3105469.2636719l-.0917969.0830078-.0839844-.0908203c-1.7705078-1.9179688-4.0205078-2.7548828-6.4023438-3.6411133-.6542969-.2431641-1.3300781-.4946289-2.0048828-.7719727l-.1933594-.0791016.1611328-.1323242c.9482422-.78125,1.9003906-1.2700195,2.8212891-1.7421875.5751953-.2954102,1.1191406-.5742188,1.6357422-.9116211,1.5380859-1.0029297,2.5869141-2.2729492,3.1181641-3.7749023l-.0410156-2.6625977c-.8291016-.8916016-.8398438-.894043-1.6513672-1.0727539l-.0166016-.003418c-.8007812.328125-1.2841797,1.0063477-1.7949219,1.7236328-.625.8774414-1.2714844,1.7851562-2.5556641,2.1425781l-.2451172.0683594.0966797-.2358398c.7929688-1.9370117.703125-3.8305664.6230469-5.5009766-.015625-.3212891-.0302734-.637207-.0390625-.9472656-.6416016-.8852539-1.2539062-.7631836-2.0234375-.6118164l-.1464844.0283203-1.2890625,3.2246094-.1132812-.300293c-.1806641-.4770508-.3466797-.9384766-.5087891-1.3862305-.34375-.9541016-.6689453-1.8554688-1.0576172-2.7172852-.4882812-1.081543-1.4541016-1.4853516-2.3056641-1.8413086-.2470703-.1035156-.4804688-.2016602-.6933594-.3110352-.4394531-.1464844-.8945312-.1293945-1.3339844-.1137695-.7197266.0249023-1.4677734.0541992-2.09375-.7436523l-.0605469-.0766602.0605469-.0771484c1.4824219-1.8828125,2.875-3.9560547,3.0351562-6.3618164-.4179688-2.1166992-1.2841797-3.1621094-2.8974609-3.4956055-1.2695312-.184082-2.7294922.0473633-4.2070312.6728516-.2636719.1113281-.5302734.2182617-.796875.3251953-.7695312.3085938-1.5664062.6279297-2.2802734,1.0595703-.2666016.1616211-.5341797.3222656-.8027344.4833984-1.6660156,1.0004883-3.3896484,2.0351562-4.9013672,3.2919922-.6904297.5732422-1.3828125,1.168457-2.0517578,1.7441406-1.5869141,1.3632812-3.2265625,2.7729492-4.9589844,4.0048828-.9306641.6621094-1.8652344,1.3178711-2.8007812,1.9736328-2.5400391,1.7817383-5.1669922,3.6245117-7.6572266,5.5688477-2.7939453,2.1811523-4.8359375,4.8637695-6.0703125,7.9726562-.8623047,2.1679688-1.4208984,4.0839844-1.7080078,5.8574219-.2216797,1.3701172-.2197266,2.7924805-.21875,4.168457,0,.5712891.0009766,1.1616211-.015625,1.7299805Z" stroke-width="0"/>
      <path d="m188.0019531,202.8318022c.8867188-1.0654297,1.1533203-2.1713867.8115234-3.3789062-.2666016-.0629883-.53125-.137207-.7871094-.2089844-.6054688-.1694946-1.1787109-.3278809-1.7578125-.348938-.0063477-.0002441-.0131836-.0024414-.0195312-.0026245-.0693359-.0022583-.1333008.0012817-.2021484-.0006104-.0732422-.0020752-.1420898.0009766-.2148438-.0006714-3.3115234-.0760498-6.2851562.213562-9.0546875.8963013-1.9628906.4833984-4.1513672.5200195-6.0087891.0996094-2.546875-.5761719-5.3896484-.9077148-8.9462891-1.0424805-2.4345703-.0922852-4.8691406-.4233398-7.2226562-.7436523-.8378906-.1137695-1.6748047-.2280273-2.5126953-.331543-2.3173828-.2866211-4.625-.9272461-6.8574219-1.546875-.9697266-.2695312-1.9736328-.5478516-2.9589844-.7915039l-.0361328-.0092773-.0253906-.0273438c-2.1953125-2.3779297-4.7939453-5.0874023-7.8378906-7.1499023-1.3623047-.9228516-2.9189453-2.0239258-4.1582031-3.4086914-1.3652344-1.5249023-2.5546875-3.4150391-3.6357422-5.7788086-.3056641-.668457-.6064453-1.3398438-.90625-2.0112305-.7138672-1.5966797-1.453125-3.2475586-2.2519531-4.828125-.6787109-1.3442383-1.4443359-2.6704102-2.1835938-3.953125-.3876953-.6708984-.7744141-1.3417969-1.1513672-2.0185547-1.5527344-2.7832031-3.53125-5.9755859-6.4345703-8.5512695-2.2070312-1.9594727-4.5458984-3.394043-6.9501953-4.2636719-2.6435547-.9560547-4.8193359-1.2797852-6.859375-1.0195312-.5917969.0761719-1.1953125.0703125-1.7900391.0620117-.2568359-.0024414-.5146484-.0058594-.7666016-.0019531-3.0234375.0439453-5.9492188,1.0585938-9.2060547,3.1933594-2.9550781,1.9379883-5.5859375,3.9707031-8.0410156,6.2148438-.7529297.6879883-1.5302734,1.3671875-2.2832031,2.0239258-2.3964844,2.0927734-4.875,4.2563477-6.8476562,6.9726562l-.0185547.0258789c-2.0234375,2.7841797-3.9335938,5.4145508-5.1328125,8.4536133l.0576172,3.7700195,1.5820312,1.0234375,2.3242188-.0351562c.1582031-.25.3232422-.5053711.4912109-.7661133.4287109-.6630859.8710938-1.3491211,1.2822266-2.0605469.3476562-.6030273.6835938-1.2304688,1.0078125-1.8369141.4794922-.8974609.9755859-1.8251953,1.5244141-2.6962891,1.4873047-2.3549805,3.3886719-4.3847656,5.2285156-6.347168.2675781-.2861328.5361328-.5722656.8037109-.8598633,2.9560547-3.1791992,6.1513672-5.9746094,9.4970703-8.3081055,1.7929688-1.2504883,3.8789062-2.2504883,6.5644531-3.1474609,1.3037109-.4355469,2.6044922-.4584961,3.8632812-.480957.4511719-.0083008.9179688-.0166016,1.3759766-.0439453,5.4042969-.3105469,9.7050781,2.6782227,12.8505859,5.3271484,2.5175781,2.1186523,4.3789062,5.0058594,5.7197266,7.284668.21875.3720703.4462891.7441406.6738281,1.1176758.9199219,1.5053711,1.8710938,3.0620117,2.328125,4.7451172.4677734,1.7246094,1.1005859,3.3989258,1.7119141,5.0180664.2822266.7460938.5732422,1.5180664.8447266,2.2851562l.0449219.1274414c.4257812,1.2001953.8662109,2.4414062,1.5,3.5224609,2.2138672,3.7705078,5.2724609,6.800293,9.3505859,9.2626953.3105469.1870117.6171875.3813477.9111328.5673828l.4462891.2817383.0019531.0678711.0239258,1.5897827.0019531.1244507.0019531.1246338.0092773.6152344c.1328125.1811523.2587891.3769531.3916016.5830078.3134766.4863281.6376953.9897461,1.0712891,1.3222656.0527344.0407715.112793.0765991.1660156.1170654.0351562.0263062.0732422.0499878.1083984.0761719.0361328.0273438.0761719.0522461.1123047.0794067,1.1362305.843811,2.3535156,1.6331787,3.6484375,2.3308716,2.9169922,1.5732422,6.1503906,2.2490234,9.2119141,2.8066406.5195312.0947266,1.0625.1396484,1.5878906.1831055.8193359.0678711,1.6669922.1381836,2.4541016.3989258,2.3320312.7719727,4.7675781.8515625,7.1220703.9287109.9775391.0322266,1.9882812.0654297,2.9775391.1474609,3.2080078.2666016,6.0380859.1289062,8.6416016-.4213867.9277344-.1962891,1.8818359-.300293,2.8046875-.4008789,1.2021484-.1313477,2.4443359-.2670898,3.6679688-.6079102,1.2924805-.3600464,2.4506836-.9281006,3.5527344-1.7382812.0351562-.0258789.0703125-.0531006.1054688-.0795288.0351562-.0267334.0708008-.0530396.1064453-.0802612.8510742-.6551514,1.671875-1.4546509,2.4941406-2.4417725Z" stroke-width="0"/>
      <path d="m177.3486328,318.5359037c-.2958984.0200195-.5908203.0341797-.8857422.0483398-.9755859.046875-1.9833984.0952148-2.9609375.3764648-1.7636719.5078125-3.5664062.894043-5.1171875,1.2158203-.3808594.0791016-.7617188.159668-1.1425781.2407227-2.5615234.5439453-5.2109375,1.1064453-7.8974609,1.1064453-.0380859.0004883-.0742188.0004883-.1103516,0-.3339844,0-.6679688.0097656-1.0019531.019043-.5400391.0161133-1.0996094.0327148-1.6474609.0053711l-.7265625-.0336914c-1.4521484-.0664062-2.9541016-.1347656-4.4199219-.3261719-2.0039062-.262207-3.9609375-.543457-5.8759766-1.0981445-.4277344-.1240234-.8681641-.1445312-1.2949219-.1645508-.4960938-.0234375-1.0087891-.0478516-1.4970703-.2358398-1.1328125-.4384766-2.0927734-.2592773-3.1972656.5976562l-.4150391,2.4643555c1.8847656,2.2080078,2.1611328,2.3330078,4.6591797,3.4672852,4.5195312,2.0532227,9.1835938,2.5087891,13.1503906,2.6831055,1.9902344.0893555,3.7724609-.043457,5.4619141-.3989258,1.2363281-.2602539,2.5048828-.4516602,3.7324219-.6367188.6689453-.1010742,1.3378906-.2016602,2.0048828-.3139648.2607422-.0439453.5253906-.1166992.7802734-.1870117.1894531-.0522461.3789062-.1044922.5703125-.1469727.4248047-.09375.8583984-.1743164,1.2792969-.2519531.8798828-.1625977,1.7900391-.3310547,2.6376953-.6308594.6875-.2431641,1.390625-.4741211,2.0703125-.6972656,1.0625-.3486328,2.1621094-.7089844,3.2265625-1.1259766,1.1835938-.4628906,2.3349609-1.0385742,3.4492188-1.5952148.6845703-.3422852,1.3916016-.6958008,2.1005859-1.0200195.1582031-.0722656.2792969-.3212891.4072266-.5849609.0566406-.1147461.1132812-.2324219.1787109-.347168-1.0371094-.8891602-1.9746094-1.3427734-3.0566406-1.7456055-1.5107422-.5620117-2.96875-.784668-4.4619141-.6835938Z" stroke-width="0"/>
      <path d="m67.4228516,103.9480131c-.3046875.0712891-.6259766.1464844-.9736328.2172852l-.65625,1.0419922c.1191406.1020508.2275391.2060547.3339844.3076172.2441406.2348633.4560547.4379883.6914062.4970703,3.2753906.8183594,6.0849609,1.9375,8.5878906,3.4213867.9638672.5717773,2.2080078,1.3535156,3.2753906,2.331543,3.203125,2.9360352,6.0869141,6.2558594,8.5380859,9.137207,2.8427734,3.3413086,6.0800781,6.4790039,9.2109375,9.5131836l.1806641.1748047c1.0283203.9960938,2.1796875,1.9145508,3.2939453,2.8032227.8916016.7104492,1.8125,1.4453125,2.6689453,2.2182617,2.5556641,2.3056641,4.6542969,5.0366211,6.6835938,7.6777344.3613281.4711914.7236328.9423828,1.0878906,1.4106445,1.9580078,2.5205078,3.8046875,5.1806641,5.5908203,7.753418.3378906.4873047.6767578.9741211,1.015625,1.4604492,1.2119141,1.7397461,2.3818359,3.4487305,3.3701172,5.2324219,1.3037109,2.3549805,3.4462891,3.8457031,5.90625,5.4150391,1.8427734,1.1757812,3.4169922,2.0141602,4.9550781,2.6386719,1.7792969.722168,3.6826172,1.2104492,5.6386719,1.6875,1.2011719.2924805,2.4072266.4990234,3.6835938.7172852.5253906.0898438,1.0556641.1806641,1.5927734.2788086l.1259766-.8359375c-4.7597656-1.90625-9.1728516-4.5292969-13.4404297-7.0664062l-.7666016-.4555664c-2.7978516-1.6606445-5.1884766-3.9794922-7.1083984-6.8930664l-.5087891-.7705078c-1.5107422-2.2817383-3.0732422-4.6416016-4.1748047-7.137207-1.3984375-3.168457-3.3183594-6.105957-5.1748047-8.9467773-.5634766-.8618164-1.1455078-1.753418-1.7060547-2.6386719-.2558594-.4038086-.6298828-.7607422-.9912109-1.1054688-.0917969-.0878906-.1835938-.175293-.2734375-.2636719l-1.828125-1.7963867c-2.1318359-2.0961914-4.3359375-4.2636719-6.53125-6.3696289-2.7714844-2.6582031-5.2138672-5.6416016-7.5761719-8.5273438l-.8085938-.9858398c-2.4316406-2.9614258-4.7236328-5.359375-7.0048828-7.3305664-3.0332031-2.6206055-6.5986328-4.2089844-10.5957031-4.7211914-.328125-.0419922-.65625-.0888672-.9833984-.1357422-1.1582031-.1660156-2.3564453-.3408203-3.5449219-.2709961-.5693359.03125-1.1328125.1630859-1.7841797.3154297Z" stroke-width="0"/>
      <path d="m309.7353516,170.3884428c-.0224609-.7871094-.0449219-1.6010742-.3837891-2.4350586-1.3417969-3.2963867-3.6943359-5.4433594-7.40625-6.7558594-1.1347656-.4013672-2.3359375-.6538086-3.4980469-.8979492-.5683594-.1196289-1.15625-.2431641-1.7285156-.3823242-1.9335938-.4702148-3.6210938-1.3969727-5.015625-2.753418-1.7490234-1.7026367-3.4355469-2.84375-5.3056641-3.5898438-.6728516-.0429688-1.3486328-.0957031-2.0253906-.1489258-1.5556641-.121582-3.1640625-.2470703-4.7480469-.2524414-1.7802734-.0058594-3.5654297-.5117188-5.4589844-1.5473633-.9384766-.5126953-1.7871094-1.2324219-2.6083984-1.9282227-.5898438-.5009766-1.2011719-1.0185547-1.8388672-1.4536133l-.1376953-.09375c-1.6328125-1.1137695-3.3222656-2.265625-5.1171875-3.0288086-2.0009766-.8515625-6.4736328-.6879883-9.3964844-.0009766-.9150391.215332-1.8583984.3461914-2.7705078.4726562-.4150391.0576172-.828125.1147461-1.2373047.1796875l-.0458984.0073242-1.015625-.6396484c-.5527344-.3486328-1.0888672-.6860352-1.625-1.0214844-1.2773438-.7978516-2.5263672-1.6845703-3.7353516-2.5415039-1.9189453-1.3613281-3.9023438-2.769043-6.0507812-3.8598633-2.7714844-1.4072266-5.7109375-2.309082-8.5537109-3.1816406l-.5019531-.1542969c-2.2998047-.706543-4.8261719-.840332-7.5126953-.4008789l-.4794922.5258789.0390625,2.5664062c1.7412109-.1049805,3.3388672.1704102,5.015625.8662109.8349609.347168,1.7255859.5976562,2.5869141.8398438.7001953.1972656,1.4257812.4013672,2.1220703.6572266,2.0703125.7602539,4.2890625,1.6020508,6.4853516,2.6054688,3.4824219,1.5913086,6.8935547,3.824707,10.4277344,6.8286133,2.0068359,1.7060547,4.1015625,2.2231445,6.5898438,1.625,1.7011719-.4086914,3.5224609-.3491211,5.2900391-.2895508.7714844.0258789,1.5693359.0527344,2.3457031.0385742l.0410156-.0009766.0332031.0239258c.6210938.4414062,1.3212891.5537109,2.0615234.6728516.5244141.0839844,1.0664062.1713867,1.5859375.3842773,1.2910156.5283203,2.4902344,1.2431641,3.6503906,1.934082.7021484.418457,1.4287109.8510742,2.1640625,1.2348633,1.9873047,1.0380859,3.8564453,1.6435547,5.7158203,1.8510742,1.1269531.1259766,2.2773438.21875,3.3896484.309082.6845703.0551758,1.3691406.1103516,2.0527344.1733398.1494141.0136719.2900391.0668945.4257812.1181641.0791016.0297852.1582031.0600586.2392578.0810547,1.8964844.4960938,3.4394531,1.4423828,4.7158203,2.8930664,1.8916016,2.1518555,4.2929688,3.3842773,7.3154297,4.5727539.7900391.3100586,1.6230469.5522461,2.4287109.7866211,1.7578125.5112305,3.5761719,1.0395508,5.1191406,2.3139648l.0341797.043457c.1494141.3198242.3183594.6455078.4824219.9599609.3759766.7246094.765625,1.4736328.984375,2.2729492.4873047,1.7768555,1.3212891,2.8007812,2.5498047,3.1289062,1.5175781-.1894531,1.9980469-1.2290039,2.3847656-2.3759766-.0566406-.4072266-.0683594-.8266602-.0791016-1.2329102Z" stroke-width="0"/>
      <path d="m276.7822266,189.5764311c.1621094-.2573242.234375-.581543.3193359-.9570312.0244141-.109375.0488281-.2216797.078125-.3364258l-2.8076172.9560547-.0537109-.0478516c-.3544922-.3129883-.6787109-.6611328-.9931641-.9975586-.8017578-.8608398-1.5605469-1.6743164-2.7880859-1.9589844l-3.7089844.0600586-2.8222656,2.5527344.1689453.1420898-1.1396484,3.0668945.0625,4.1049805-.2119141-.1879883c-.6601562-.5874023-1.3193359-1.1318359-1.9560547-1.6586914-1.3554688-1.1210938-2.6367188-2.1801758-3.6943359-3.4487305-3.1962891-3.831543-5.8759766-7.9091797-7.9638672-12.1201172l-.0136719-.0512695c-.0068359-.2436523-.015625-.4853516-.0244141-.7246094-.0644531-1.7568359-.125-3.4165039.4169922-5.0161133.3857422-1.1367188.3730469-2.328125.3613281-3.4799805l-.0048828-.6787109c-.0117188-1.6508789-.0234375-3.3583984-.0927734-5.0341797-.0185547-.4145508-.1074219-.8374023-.1943359-1.246582-.0595703-.2797852-.1210938-.5693359-.1601562-.8583984-.3310547-2.4399414-1.1708984-4.7060547-2.0771484-7.0048828-.9462891-2.4033203-2.2216797-4.3032227-3.8974609-5.8085938-.8671875-.7788086-1.6953125-1.0961914-2.6132812-.9897461-1.0214844.1152344-2.3564453,1.1455078-2.5507812,1.96875.0126953.5610352.0224609,1.2050781.0302734,1.7431641.9609375,2.25,2.0273438,4.3813477,3.0595703,6.4423828,1.1757812,2.3496094,2.2871094,4.5688477,3.2460938,6.9345703.0878906.2158203.1767578.4301758.265625.6435547.5986328,1.4370117,1.1630859,2.7944336,1.1083984,4.3798828-.0195312.5834961-.015625,1.175293-.0117188,1.7480469.0087891,1.2397461.0185547,2.5219727-.21875,3.8271484-.4414062,2.4213867-.328125,4.5195312.3466797,6.4140625,1.3144531,3.6928711,3.0761719,7.2226562,4.7792969,10.6362305l.1835938.3676758c.5478516,1.0981445,1.4316406,2.2001953,2.6259766,3.2758789,1.8476562,1.6625977,4.0644531,3.0371094,6.7773438,4.2016602,1.4873047.6381836,2.9296875,1.3696289,4.4570312,2.144043.6835938.3466797,1.3818359.7011719,2.1054688,1.0576172l1.0576172-.0161133c.4453125-.7646484.8867188-1.5244141,1.265625-2.1782227-.7587891-2.4189453-1.3818359-8.418457-.8310547-9.449707l.0224609-.0292969,1.1621094-1.1669922.0693359.0175781c.2734375.0703125.5605469.1240234.8369141.1762695.6220703.1166992,1.2636719.2373047,1.8046875.5507812,1.1855469.6879883,2.0107422.1650391,2.96875-.5893555.4990234-.394043.9316406-.8696289,1.25-1.3759766Z" stroke-width="0"/>
      <path d="m265.7363281,166.5515287c.4228516.2851562.8603516.5639648,1.3007812.8457031,1.0175781.6499023,2.0703125,1.3217773,3.0244141,2.1210938.9667969.8110352,1.8525391,1.7607422,2.7080078,2.6787109.3837891.4106445.7666016.8212891,1.1572266,1.2216797l.0302734.03125c.0429688.0444336.0830078.0864258.125.1157227.3056641.2143555.6064453.4379883.9082031.6625977,1.7646484,1.3125,3.5908203,2.6704102,6.3525391,2.0932617l3.9755859-3.0585938.0771484.0727539c1.3525391,1.2695312,3.1894531,1.6875,4.6455078,1.9077148.2304688-.059082.4580078-.1108398.6835938-.1616211.5224609-.1181641,1.015625-.2299805,1.4833984-.4199219.4736328-.1928711.9179688-.4619141,1.3876953-.746582.1992188-.1206055.4003906-.2431641.6083984-.3613281l.7695312-1.5488281c-.0332031-2.9335938-.4853516-3.5722656-3.1826172-4.5366211-1.5390625-.5488281-2.9853516-.1079102-4.3388672.390625-1.765625.6518555-3.7666016,1.3901367-4.8164062,3.5395508-.3623047.7416992-.8808594,1.3857422-1.3818359,2.0087891-.2207031.2744141-.4287109.5332031-.6210938.796875l-.0361328.0498047-1.7246094.0263672-.0380859-.0551758c-.1923828-.2797852-.4033203-.559082-.6083984-.8295898-.4541016-.6000977-.9238281-1.2211914-1.2382812-1.9165039-1.7548828-3.8857422-4.8105469-6.284668-8.0517578-8.5986328-1.7314453-1.2368164-3.7021484-1.8964844-5.7900391-2.5952148l-.0029297-.0009766-3.3955078,1.4863281c-1.5039062,2.5292969-2.5214844,4.5200195-1.9726562,7.0322266l1.1123047,2.2353516,1.2509766.8369141c.9257812.6196289,1.8427734,1.234375,2.7626953,1.84375,1.5214844,1.0078125,2.9082031,2.3198242,4.1230469,3.8984375,2.4638672,3.2036133,4.7685547,5.6030273,8.0126953,6.902832.8076172.3232422,1.5576172.4238281,2.4238281.3232422.2949219-.8339844-.0957031-1.1674805-.6298828-1.6245117l-.2666016-.2275391c-.8193359-.7011719-1.6679688-1.4262695-2.2382812-2.3383789-.8271484-1.3217773-1.5478516-2.746582-2.2451172-4.125-.2509766-.4941406-.5009766-.9887695-.7558594-1.4790039-.6337891-1.2172852-1.5683594-2.1943359-2.4716797-3.1386719-.3037109-.3178711-.6074219-.6352539-.9013672-.9624023-.9179688-1.0205078-2.1005859-1.6181641-3.2451172-2.1967773-.3896484-.1967773-.7929688-.4008789-1.1816406-.6191406-.2753906-.1547852-.4990234-.3916016-.8076172-.7192383-.1669922-.1772461-.3603516-.3823242-.6015625-.6162109l-.2158203-.2094727,3.8046875-.0576172.0322266.0219727Z" stroke-width="0"/>
      <path d="m153.8974609,166.8166654c1.3564453-1.8901367,1.5087891-3.5175781.4921875-5.2700195l-2.2636719-1.0786133c-1.4394531.5620117-3.015625,1.3994141-3.8818359,3.3032227-.3798828.8349609-.8251953,1.6513672-1.2558594,2.440918-.1982422.3647461-.3974609.7294922-.5908203,1.097168-1.6162109,3.0688477-2.8935547,6.2353516-3.7958984,9.4111328-.3417969,1.2036133-.75,2.6313477-1.1875,4.0942383-.8662109,2.9023438-1.7626953,5.9033203-1.4501953,9.1235352.03125.3286133.1416016.6508789.2685547,1.0244141.0458984.1333008.0927734.2724609.1386719.418457,3.1445312-2.722168,4.5888672-6.3525391,6.1162109-10.1928711l.2470703-.6225586.1279297.230957c2.0205078,3.6660156,3.9296875,7.1293945,5.4335938,10.9013672l.8818359.3901367c.6113281-1.0761719.515625-2.1679688.421875-3.2246094-.0292969-.3374023-.0605469-.6865234-.0664062-1.0249023-.015625-.90625-.1513672-1.8295898-.2822266-2.722168-.0869141-.590332-.1767578-1.2006836-.2324219-1.8051758-.0888672-.980957-.4677734-1.8647461-.8339844-2.7197266-.1787109-.4160156-.3632812-.8461914-.5136719-1.284668-.3427734-.9990234-.9755859-1.7099609-1.6455078-2.4628906-.3232422-.3642578-.6582031-.7402344-.9550781-1.1503906l-.0390625-.0532227.0224609-.0620117c1.2519531-3.515625,3.1513672-6.4018555,4.84375-8.7617188Z" stroke-width="0"/>
      <path d="m302.3925781,173.9074858c-.8076172.2666016-1.5693359.765625-2.3261719,1.5249023-2.1708984,2.1777344-3.7763672,4.8720703-5.3291016,7.4780273l-.2392578.402832c-1.0205078,1.7104492-1.9697266,3.3022461-3.671875,4.2431641-.3291016.1821289-.6787109.3339844-1.0166016.4804688-.4794922.2084961-.9755859.4243164-1.4023438.7241211-1.5195312,1.0683594-2.7939453.5751953-3.9423828-.1166992-.9785156-.590332-2.0136719-1.0756836-3.1083984-1.5893555-.4589844-.215332-.9267578-.4345703-1.4042969-.668457l-.8486328,1.609375c2.1279297,1.8710938,4.0957031,3.1469727,6.7353516,3.3100586l.0732422.0048828,1.4892578,3.1655273,1.8984375.9794922,2.7529297-.0419922.9570312-1.6313477.03125-.0161133c.1533203-.0795898.3056641-.1577148.4580078-.2353516.3271484-.1669922.6503906-.3320312.96875-.5078125,2.1132812-1.1669922,3.4677734-2.4458008,4.265625-4.0244141l.3427734-.6772461c1.2216797-2.4101562,2.4853516-4.9023438,3.3046875-7.5l.1621094-.5068359c.5195312-1.6152344,1.0566406-3.2856445.8222656-5.0703125-.0947266-.7163086-.2792969-1.1445312-.9726562-1.3369141Z" stroke-width="0"/>
      <path d="m55.0380859,195.3493803c-.8730469.5512695-1.7304688,1.1635742-2.5605469,1.7558594-1.5517578,1.1074219-3.15625,2.2529297-4.9394531,3.0605469-2.1445312.9716797-4.453125,1.7426758-7.0576172,2.3579102-2.6474609.6259766-5.2070312,1.3300781-7.4150391,3.0522461-2.0986328,1.6362305-3.40625,3.7978516-3.8867188,6.4243164-.1230469.6713867-.0566406,1.2128906.6533203,1.6552734,2.796875-3.605957,6.7958984-4.940918,10.3291016-5.9086914,4.5253906-1.2392578,8.0976562-2.8378906,11.2431641-5.03125,2.3818359-1.6616211,4.4599609-3.8603516,6.5400391-6.918457.1542969-.2275391.1884766-.5654297.2255859-.9228516.0126953-.1293945.0263672-.262207.046875-.394043-.2832031-.0078125-.5214844-.0131836-.7285156-.0131836-1.0634766,0-1.2783203.137207-2.2001953.7236328l-.25.1586914Z" stroke-width="0"/>
      <path d="m231.9296875,122.586685l-.0292969-.0126953-3.0126953-1.3598633c-3.1367188-.7236328-5.6943359.3251953-8.1679688,1.3388672-.7294922.2988281-1.484375.6083984-2.234375.862793-1.9033203.6450195-3.1884766,1.6137695-4.0419922,3.0478516l-.4658203,2.6503906,1.1542969,1.0991211c1.5302734.2709961,2.5771484-.4458008,3.6884766-1.2045898l.3134766-.2128906c.9804688-.6582031,1.9921875-1.3144531,2.8847656-1.8935547.3769531-.2446289.7412109-.480957,1.0859375-.706543l.0527344-.0341797.0595703.0219727c.3955078.1494141.7558594.2939453,1.0947266.4296875.7177734.2871094,1.3369141.5351562,1.96875.7016602.5693359.1499023,1.4082031.3320312,2.1494141.1787109.8076172-.1669922,1.6103516-.4594727,2.3867188-.7421875.3408203-.1235352.6816406-.2475586,1.0244141-.3623047.0878906-.0297852.1777344-.0556641.2636719-.0810547l.1708984-.0507812.8564453.7558594,2.7470703-.0415039,1.4160156-1.6259766-.0244141-1.5336914-1.4853516-1.5112305-3.8554688.2861328Z" stroke-width="0"/>
      <path d="m281.2636719,191.1037748c-.9833984-1.2695312-2.0048828-1.7333984-3.2148438-1.4555664-.1923828.2158203-.3925781.425293-.5908203.6342773-.4902344.5151367-.953125,1.0019531-1.3115234,1.5751953-.3642578.5839844-.5556641,1.3813477-.4638672,1.9399414.1884766,1.1425781.4892578,2.2753906.8066406,3.4750977.1337891.5029297.2705078,1.0195312.4052734,1.5571289l.0117188.0488281-1.1171875,1.9296875.0439453,2.8383789c.734375.4863281,1.4990234.9912109,2.171875,1.4350586l2.5332031-1.4819336c.0283203-.4047852.1347656-.7836914.2460938-1.184082.2353516-.84375.4794922-1.7158203-.0214844-2.9106445l-2.0068359-1.6845703-.0478516-3.1503906.1855469.0966797c1.9091797.9941406,3.6738281,1.7670898,5.8544922,1.1811523-.3632812-.5102539-.7109375-1.0053711-1.0498047-1.4873047-.828125-1.1787109-1.6103516-2.2919922-2.4345703-3.3569336Z" stroke-width="0"/>
      <path d="m249.9921875,122.3459623l.0185547-.0014648c.5175781-.4086914,1.1064453-.6904297,1.7304688-.9887695,1.0019531-.4794922,2.0371094-.9750977,2.7548828-2.0419922-.0722656-.1196289-.1357422-.2431641-.1962891-.3632812-.1259766-.2460938-.2451172-.4780273-.3779297-.5229492-.2558594-.0859375-.5107422-.1748047-.7666016-.2631836-1.7607422-.6113281-3.4238281-1.1884766-5.0947266-.8994141-1.4121094.5336914-2.1054688,1.4042969-2.2226562,2.8144531l.6523438,1.3842773c1.0634766,1.0698242,2.1943359.9829102,3.5019531.8823242Z" stroke-width="0"/>
      <path d="m279.4111328,103.1975248c.2226562.0043945.4365234.0219727.6298828.0375977.46875.0371094.8720703.0712891,1.1416016-.0917969,1.5859375-.9521484,3.234375-.9428711,4.96875-.9394531.2294922.0009766.4580078.0019531.6835938.0004883l.0458984-.0004883.0351562.0292969c1.3193359,1.1010742,2.515625,1.1943359,3.5498047.2807617.8994141-1.3867188.8466797-2.6108398-.1835938-4.2084961l-2.8496094-.4223633-1.0986328,1.1040039-.1962891,2.3310547-6.3671875.8735352-.359375,1.0058594Z" stroke-width="0"/>
      <path d="m213.3388672,5.3869779l2.6884766-.0410156c.3164062-.6337891.6308594-1.2617188.7880859-1.5786133-.3164062-1.8393555-1.3955078-2.4741211-2.3916016-2.918457l-2.3457031.0356445-.9248047,1.7836914c.2460938,1.4780273.9414062,2.3427734,2.1855469,2.71875Z" stroke-width="0"/>
      <path d="m3.4501953,95.9196928c-1.5253906-.0634766-2.3085938.0791016-2.7695312.5097656-.4541016.4243164-.6455078,1.1650391-.6806641,2.6386719.484375.9731445.9560547,1.7382812,2.1376953,2.0102539l1.9316406-.5083008c.8867188-1.0512695,1.1220703-2.0366211.7617188-3.1875l-1.3808594-1.4628906Z" stroke-width="0"/>
      <path d="m285.0722656,197.4294584l.0390625,2.5478516c1.3886719,1.296875,2.5869141,1.3105469,3.9873047.0444336l.3291016-2.5283203-1.1845703-1.1191406c-1.3837891-.2148438-2.3339844.1010742-3.1708984,1.0551758Z" stroke-width="0"/>
      <path d="m121.0634766,54.0202787c.8339844-.7211914,1.5878906-1.4150391,1.6962891-2.7797852l-.8193359-1.6489258-1.7480469-.5810547-1.7451172,1.4462891.0390625,2.5507812c.8847656.7397461,1.6337891,1.1635742,2.5771484,1.0126953Z" stroke-width="0"/>
      <path d="m3.6933594,107.8044584l-1.5966797-.9204102-1.5673828,1.1972656,1.1025391,2.3652344,2.0009766-.2910156c.671875-.8100586.4394531-1.3920898.171875-2.0644531-.0380859-.0952148-.0761719-.1904297-.1113281-.2866211Z" stroke-width="0"/>
      <path d="m278.8076172,87.4465483l-.0302734-1.9541016c-.5253906-.7954102-1.1865234-.7114258-1.9296875-.5166016l-.9980469,1.1499023.7099609,1.3549805,2.2480469-.0341797Z" stroke-width="0"/>
      <polygon points="180.796875 162.6311186 178.5039062 162.555435 177.8417969 163.6540678 179.2822266 164.4001615 180.796875 162.6311186" stroke-width="0"/>
      <path d="m176.3925781,311.567642c-.0146484.1425781-.03125.2958984-.0527344.4609375,2.9619141-1.3427734,3.4677734-1.7094727,5.0009766-4.1264648,1.1943359-1.8803711,1.8789062-3.8911133,2.0351562-5.9755859.1054688-1.4194336.1015625-2.8105469-.0107422-4.1337891-.1787109-2.1069336-.9541016-3.9946289-2.3066406-5.6103516-.8046875-.9624023-1.9433594-1.3383789-3.0449219-1.7016602l-.3378906-.1123047c-.5957031-.2011719-1.1298828.1142578-1.6943359.4487305-.1669922.1000977-.3408203.203125-.5146484.2910156-.6269531,1.1855469-.6298828,1.215332-.4404297,3.3081055.0839844.074707.1796875.1557617.2832031.2431641.3085938.2612305.6933594.5869141,1.0244141.9594727.3818359.4291992.8564453.9628906,1.03125,1.5683594.3310547,1.1430664.6923828,2.4731445.7802734,3.7978516.2412109,3.6347656-.2714844,6.7944336-1.5693359,9.6582031-.1123047.2485352-.1435547.546875-.1835938.9243164Z" stroke-width="0"/>
      <path d="m176.6220703,236.095474c.2617188-.1953125.53125-.3735352.7919922-.5463867.6083984-.402832,1.1826172-.7836914,1.5625-1.3041992,1.7773438-2.4331055,2.6298828-5.0664062,2.5322266-7.8271484-.0703125-2.0043945-.3417969-3.8950195-.8056641-5.6201172-.4267578-1.5883789-1.1123047-3.6035156-2.640625-5.1030273-1.3779297-1.3520508-2.3535156-1.3754883-3.8486328-.0698242-.0019531.2744141-.0175781.5561523-.0322266.8291016-.0361328.6337891-.0722656,1.2895508.0615234,1.8862305.7060547,3.1367188,1.1582031,5.7304688,1.4238281,8.1630859.1162109,1.0678711.3105469,2.1396484.4814453,3.0854492.3623047,2.0053711.3378906,3.9394531-.0751953,5.9101562l.5488281.5966797Z" stroke-width="0"/>
      <path d="m146.5908203,262.7966459c.2441406-1.878418.6005859-3.7749023,1.0878906-5.796875.1123047-.4658203.0820312-.9853516.0517578-1.487793-.0126953-.2167969-.0263672-.440918-.0273438-.659668l-.6611328-.7304688c-.2929688-.0625-.5634766-.0942383-.8173828-.0942383-.6464844,0-1.1796875.206543-1.6660156.6342773-1.3779297,1.2109375-2.3095703,2.7563477-2.7675781,4.5927734-.2421875.9677734-.3837891,1.9731445-.5205078,2.9453125-.0908203.6435547-.1845703,1.3085938-.3066406,1.9545898-.4414062,2.3427734-.1582031,4.7299805.8896484,7.512207.8925781,2.3720703,3.2480469,3.7539062,5.9072266,3.4902344-.0292969-.081543-.0566406-.1621094-.0839844-.2416992-.0888672-.2612305-.1728516-.5078125-.3037109-.7148438-1.0625-1.6875-1.5292969-3.2583008-1.46875-4.9428711.0644531-1.824707.3095703-3.6494141.546875-5.4145508.046875-.3486328.09375-.6972656.1396484-1.0463867Z" stroke-width="0"/>
      <path d="m143.40625,226.6482084c.2294922-1.1074219.4667969-2.2529297.6621094-3.3852539.5859375-3.3837891,1.5322266-6.3325195,2.8925781-9.0136719v-1.8251953l-1.1640625-.6972656c-1.5390625.3071289-2.5439453.9116211-3.1630859,1.9003906-1.1455078,1.8271484-2.2949219,3.8061523-2.6728516,6.1381836-.0751953.4643555-.2001953.925293-.3193359,1.3706055-.0996094.3671875-.2021484.746582-.2753906,1.1235352-.6328125,3.2509766-.6679688,5.9345703-.1074219,8.4443359.5068359,2.2729492,2.0888672,3.71875,3.53125,4.8955078.0283203.0253906.1621094.0141602.2890625.0043945.0810547-.0063477.1728516-.0141602.2783203-.0180664-.0107422-.1020508-.0195312-.1958008-.0283203-.2836914-.0214844-.2324219-.0390625-.4160156-.0849609-.5883789l-.0380859-.1430664c-.3691406-1.3857422-.7509766-2.8188477-.5048828-4.2822266.2050781-1.2197266.4589844-2.4501953.7050781-3.6401367Z" stroke-width="0"/>
      <path d="m145.8242188,295.9133451l-.6611328-.6469727h-2.1005859c-1.3417969,1.0327148-2.1357422,2.5483398-2.2949219,4.3857422-.1816406,2.0898438-.2724609,4.3193359.2919922,6.4633789.9511719,3.605957,2.7070312,6.0253906,5.3662109,7.3950195.0458984-.0004883.0917969-.0009766.1386719-.0009766.2246094,0,.4482422.0063477.6699219.0126953.6757812.0195312,1.3125.0371094,2.0087891-.1108398-.0351562-.0649414-.0683594-.1245117-.0976562-.1796875-.0947266-.1728516-.1660156-.3037109-.2441406-.4296875-.1523438-.246582-.3261719-.4926758-.4941406-.7304688-.3603516-.512207-.734375-1.0410156-.9414062-1.6318359-1.0751953-3.0581055-1.7060547-6.3359375-1.8740234-9.7421875-.0517578-1.0488281.0322266-2.1030273.1210938-3.21875.0400391-.5058594.0810547-1.0258789.1113281-1.5654297Z" stroke-width="0"/>
      <path d="m175.2148438,270.4128569c-.2460938.5454102-.5253906,1.1606445-.1582031,1.9072266.0742188-.0268555.1533203-.0512695.2333984-.0756836.2363281-.0732422.4814453-.1484375.6054688-.3012695.1982422-.2441406.4003906-.4863281.6035156-.7294922.7666016-.918457,1.5595703-1.8681641,2.1083984-2.9248047.9101562-1.7514648,1.5449219-3.7275391,1.9960938-6.2182617.2685547-1.4780273.0820312-2.7963867-.1162109-4.1923828l-.0205078-.1484375c-.2011719-1.4257812-.9677734-2.6313477-2.3447266-3.6835938h-2.4267578l-1.0644531,1.1748047c-.21875.9355469-.0732422,1.6987305.4423828,2.3320312.9189453,1.1298828,1.1337891,2.5219727,1.2285156,3.8579102.1884766,2.6381836.2236328,5.7319336-.9423828,8.6708984-.0429688.1069336-.0927734.2172852-.1445312.3310547Z" stroke-width="0"/>
      <path d="m162.8535156,296.0319975h-.8779297c-1.4003906.9814453-1.4882812,2.5864258-1.5654297,4.0039062-.0830078,1.5258789-.1103516,3.1616211.2431641,4.7866211.1113281.5107422.1259766,1.046875.1396484,1.5654297.0185547.6958008.0380859,1.4150391.2929688,2.0800781.1601562.418457.2783203.8613281.3925781,1.2895508.2480469.9306641.5048828,1.8925781,1.2099609,2.637207l.5927734-.0712891c.0175781-.152832.03125-.3037109.0449219-.4526367.0351562-.3964844.0683594-.7709961.1708984-1.1352539.5429688-1.921875.6914062-3.9384766.8359375-5.8881836.0292969-.4003906.0585938-.800293.0917969-1.199707.1308594-1.5991211.0439453-3.2866211-.2675781-5.1591797-.1552734-.9326172-.421875-1.8745117-1.3037109-2.456543Z" stroke-width="0"/>
      <path d="m159.7421875,235.5119779c.0488281.1333008.2148438.2451172.4267578.387207.0644531.043457.1337891.0898438.2060547.1411133.1396484-1.4624023.4169922-2.8432617.6865234-4.1811523.2353516-1.1708984.4580078-2.2773438.5927734-3.4262695.0742188-.6303711.1611328-1.2631836.2480469-1.8969727.1279297-.9345703.2597656-1.9003906.3476562-2.847168.1142578-1.2299805.0820312-2.4995117.0517578-3.7270508-.0126953-.5131836-.0263672-1.0263672-.0292969-1.5385742,0-.0551758-.0224609-.1210938-.0537109-.2128906-.015625-.0473633-.0341797-.1005859-.0527344-.1621094l-.9521484-.5849609c-1.0791016.1972656-1.4287109,1.0302734-1.5302734,1.6992188l-.0556641.3652344c-.3037109,1.9819336-.6171875,4.03125-.65625,6.0493164-.0419922,2.1474609.0957031,4.3374023.2285156,6.4555664.0332031.5209961.0654297,1.0424805.0957031,1.5629883.0332031.5556641.1787109,1.1821289.4462891,1.9165039Z" stroke-width="0"/>
      <path d="m162.0410156,256.4978178l-.9287109,1.8950195c-.2119141,7.0439453-.1640625,7.515625,1.2753906,11.2294922h.5498047c.0996094-.4506836.2011719-.8999023.3017578-1.3486328.7558594-3.3569336,1.5380859-6.8271484,1.8164062-10.4848633l-.4238281-1.2724609-1.1220703-.5664062-1.46875.5478516Z" stroke-width="0"/>
    </g>
  </g>
</svg>