<?xml version="1.0" encoding="UTF-8"?>
<svg id="Layer_2" data-name="Layer 2" xmlns="http://www.w3.org/2000/svg" viewBox="0 0 130.3955117 418.8962081">
  <g id="Layer_1-2" data-name="Layer 1">
    <path d="m92.4318582,264.609118c1.6923151.4095413,3.4405821.7483133,5.135672,1.2623782,2.5904913.7856718,4.6446343,2.371747,6.1771032,4.6005536.3791912.5515092.7679651.6764855,1.4507724.6534583,4.0897496-.1377343,8.1825314-.18848,12.2744551-.2593352,2.7527689-.0477136,5.4442654.3341379,8.0806967,1.1399764.3062764.0935964.6864116-.0272894,1.0275577-.0798086,1.2803423-.1970043,2.2359865.3584238,2.6367746,1.5799537.1208.3681782.2064441.757753.2393115,1.1433804.3415181,4.0056216.9125646,8.0108713.9393964,12.0194107.0344121,5.1428805-.4043924,10.2875345-.5795137,15.4334757-.1924847,5.656831-.4339416,11.3156929-.4454123,16.9740972-.0203669,10.0488809-1.2833745,19.8592798-5.0682494,29.240457-.8396499,2.0812607-1.9108592,4.0654638-3.6978863,5.4836548-4.4498611,3.5314896-5.7843532,8.3161179-5.7611257,13.7149296.0364431,8.4720451.0279187,16.9442619.0550937,25.4163357.0072657,2.2634189.0706264,4.526752.1195413,6.7898849.0082097.3788193.0742306.7564086.1282945,1.2768239,3.522765-1.0446923,6.4251966.3441497,9.2130641,2.0797446,1.8081378,1.1256738,3.1662006,2.6671534,3.7051521,4.7934674.4632906,1.8277896-.0077806,3.3877482-1.4163603,4.6658307-1.6715763,1.5167075-3.4985364,2.7850642-5.7296027,3.2884022-7.5366249,1.7004104-15.113383,2.3769245-22.7681762.7764895-2.7435866-.5735924-5.1380462-1.8799656-7.2927366-3.5898729-2.3461453-1.8618298-2.5753878-4.7928667-.6744832-7.1794312,1.8030746-2.2637622,4.1985068-3.6127857,7.0012491-4.1742209,2.9462262-.5902407,5.9236035-1.023267,8.8773815-1.5782946,1.6512094-.3102811,1.5816128-.3574798,1.5388766-1.9809707-.0915082-3.4736784-.2325607-6.9524485-.1374768-10.4232092.1474315-5.3802468-.6718229-10.6641512-1.3014244-15.9712258-.3445502-2.9044911-.5821168-5.8276329-1.0752713-8.7068084-.4875193-2.8463653-1.802617-5.2373922-4.2492239-7.0192418-5.6607213-4.1226743-8.619448-9.8788227-9.9610914-16.6602404-2.2175075-11.208366-2.1649024-22.4982284-1.5691695-33.82851.4018465-7.6424643.7177057-15.2894483,1.0957241-22.9332285.0427362-.8642504-.2145966-1.2260496-1.1172352-1.1315664-.9306432.0974295-1.8714126.1389071-2.8073191.1333291-.7897909-.0047485-1.1281052.2498955-1.0613119,1.1000434.1528664,1.9456146.294348,3.8962351.3220379,5.8465124.0303788,2.1428478-.0744595,4.2875263-.1160229,6.4314897-.0642188,3.3103138-.2984672,6.6284941-.1507497,9.929454.311883,6.9707273.1743776,13.8728019-1.4274591,20.7186959-1.3778576,5.8887623-2.409649,11.858592-3.7929702,17.745924-1.0717243,4.5613072-2.9420212,8.779523-6.1158022,12.3682517-2.1494842,2.4305594-2.6776515,5.5866909-3.3208405,8.6496265-1.1897495,5.6654412-1.0752999,11.4216754-1.0948945,17.1569133-.0215684,6.318356.1355317,12.6373126.2196883,18.9559547.0014589.107899.0641902.2150257.0953127.3129128,5.316028-1.7701214,9.3136402.9102762,13.0770039,3.9897457,2.4707212,2.0217332,2.1367549,4.7625451-.5279385,6.5041185-3.2433489,2.1197634-6.9067373,3.1287563-10.6588306,3.6991164-4.7412914.720652-9.5133906,1.2854913-14.2912681,1.6947752-1.8280756.1565851-3.7736616-.0578398-5.5526936-.5294546-4.1995509-1.1133449-5.815962-5.0175895-3.7523078-8.8408812,1.7934919-3.3227285,4.5035675-5.5596017,8.275899-6.3341175,1.4520024-.2981239,2.9171061-.5389515,4.3834397-.7576958.5975064-.0891626.8586724-.261595.8600168-.9503236.0074946-3.8572176-.0615299-7.7223302.1587591-11.5696789.3492129-6.0988965.47725-12.1658409-.8823003-18.1722567-.7303206-3.2266721-1.2327432-6.529806-2.2793234-9.6504098-.6074897-1.811313-1.822612-3.614216-3.2253848-4.9289418-5.5277212-5.1809255-8.2771147-11.6334114-9.2442724-18.9752346-.7517459-5.7065755-.7762463-11.4361496-.5245344-17.1852611.4339273-9.910975.6301021-19.8222932-.589168-29.7088965-.2473925-2.0059717-.2004227-4.0546224-.1906969-6.083135.0046913-.9793579-.3255134-1.3716217-1.2909978-1.2453581-.3081643.0403048-.6245098.0377589-.9362069.0274896-.7179202-.0236851-.9608503.3032442-.8843313,1.0123112.2136955,1.9797407.4715432,3.9603681.5557285,5.9472601.1500059,3.5403286.2751253,7.0862925.2447894,10.6284804-.0354276,4.1377492-.1534243,8.2797893-.4048358,12.4096721-.4740891,7.7881223-.8161507,15.5847689-2.8896307,23.1955672-1.9560269,7.1796314-5.1734166,13.7137282-9.5229734,19.6909951-2.6674395,3.6656482-3.3573265,7.8658713-3.6343684,12.1627516-.434528,6.7391106-.5243056,13.5017919-1.0250691,20.2347809-.3494417,4.6986696-.3084933,9.3558043.1795122,14.0264407.0443381.4245019.0396183.8604459.0012586,1.2859776-.0821257.9113346-.3565501,1.7369107-1.4294901,1.8520754-1.0691784.1147357-1.5179804-.6156708-1.792977-1.4997446-.112576-.3619708-.2083606-.7291192-.4162922-1.4625292-.4824561,2.8717667-2.3013209,4.0052783-4.4924257,4.593345-1.5348146.4119156-3.139469.6004242-4.7254155.7752022-1.7628128.194201-3.2223813.8413662-4.3050327,2.2881625-.5198432.6946499-.4332265,1.1693254.4265615,1.3407852,2.8243392.563266,5.6377227,1.2335441,8.4891654,1.5973743,5.1311952.6546883,10.2899945.9803305,15.3059964-.7530046,1.4993012-.5181269,2.956424-1.2023072,4.3540478-1.9564846,1.0711378-.5779977,1.0841961-1.2605761.0795798-1.955369-.6215491-.4298797-1.3888563-.7076939-2.1308622-.8936852-2.2340127-.5599191-4.4900515-1.0313336-6.7328889-1.5569837-1.5003739-.3516443-2.2218269-1.0240107-2.1355249-1.9319699.0892198-.9386812,1.0780317-1.5925972,2.5455954-1.5492031,4.2388974.125291,8.0494455,1.3993116,11.2322228,4.3053188,2.1741991,1.9851757,2.3077714,4.6637998.0575681,6.6026635-1.5221854,1.3115507-3.2654322,2.4308168-5.0539038,3.3581704-8.9945057,4.6640858-18.1126862,4.2281132-27.2635482.4376603-.3236541-.1340156-.6316754-.3081357-.9400686-.4762774-3.8153252-2.0802023-4.4875342-4.7569671-2.1657034-8.4104008,2.0090897-3.1613091,5.0504855-4.6185749,8.5568883-5.4296195,1.5063953-.3484405,2.9724429-.8900809,4.432841-1.4111255.7777767-.2774995,1.0324922-.8923121,1.0363253-1.7588795.0058212-1.3175578.2638834-2.6319403.3222381-3.9517293.1325281-2.9978301.2807748-5.9979486.2871109-8.9974378.0061787-2.9235709-.2028684-5.8469701-.2347347-8.7713705-.0631318-5.7937643-1.1818259-11.4015087-2.9419783-16.8892254-.7736576-2.4121376-2.0212469-4.4998917-4.1969335-6.0343058-3.4168684-2.4097634-5.1064088-6.0490948-6.3433856-9.880682-1.0543323-3.2657468-1.8437513-6.6161652-2.8576501-9.8959572-1.8441089-5.9654244-2.2441533-12.1445586-2.3947027-18.292084-.1650666-6.7408269.2992967-13.4954415.4140324-20.2453076.0762759-4.4877345.009454-8.9777287.0297781-13.4666074.0070655-1.55993-.0357709-3.1342485.1546686-4.6760142.3295754-2.6678399,3.1422437-6.0213477,7.4118488-6.1781902,2.418774-.0888479,4.8406088-.1019491,7.2582672-.2113642,3.1926461-.1444565,6.3852779-.52196,9.5727036-.4713001,2.2978453.0365289,4.2013816-.7936812,6.2762633-1.520655,2.50602-.8780095,5.2452158-1.1199241,7.8990105-1.5388194,2.8849824-.4554242,2.3809293-.1025784,2.221455-2.6963021-.3592104-5.8418211-.7535624-11.6861881-.8966601-17.5353036-.1715457-7.0126626-1.6213884-13.7705382-3.4316573-20.498178-1.0329641-3.8388816-2.5599266-7.438795-5.2142506-10.3724778-5.3760419-5.9418394-7.168032-13.0815808-7.4879388-20.8021231-.3749862-9.0502287-.7963272-18.0985552-1.1579977-27.1492846-.2928605-7.3287077.5634233-14.5824982,1.5536226-21.8226011.2503245-1.8303068.7755598-3.5258544,2.5815522-4.4749479.1309119-.0687956.2347347-.2083892.3240117-.3343238,1.4612848-2.0613085,3.5526575-3.0939437,5.9319992-3.6889472,6.3446585-1.5866473,12.7124157-2.930336,19.3249481-2.2572402.5537404.056338,1.1349848-.2559312,1.7110659-.3018569,1.6310713-.1300538,3.2649745-.2463484,4.8999361-.2976519,1.0103946-.0317232,1.3685323-.3882018,1.226307-1.4445508-.2339051-1.7373827-.4037631-3.4929726-.4378605-5.2440429-.0201095-1.0332788.4061373-2.0728937.4043924-3.1092761-.0150178-8.9783151.1770379-17.9680724-.2220339-26.9308549-.2753827-6.1845263-2.0304864-12.0991835-6.2829999-16.9308032-2.8406585-3.2275517-4.4768073-7.110092-6.1692511-10.9778363-1.5685545-3.5846739-2.3266079-7.3285432-2.63646-11.2172265-.4647924-5.8329249-1.0802057-11.6538427-1.6319867-17.4798237-.7064066-7.4584682-.2653423-14.8943562.4105854-22.3285457.3110821-3.4213129.4905943-6.8553981.8481027-10.2713117.1569713-1.4999234.3554202-3.0954044,1.0101085-4.4111099.5054834-1.0158779,1.6247781-2.0490905,2.6928409-2.4000412,2.8750134-.9446973,5.8374302-1.7316098,8.825134-2.1911066,2.4028123-.3695423,4.8969612-.2782361,7.3438255-.194151,3.0026072.1031809,6.0238649.2403842,8.9884843.6860701,2.3300119.3502856,4.6410014,1.0421518,6.8593956,1.8572387,2.0813751.7647327,3.1870538,2.3381591,3.3690404,4.7319178.3193776,4.200477,1.0722105,8.3682188,1.3848373,12.5689211.2251233,3.0251624.0394466,6.0816547.0164766,9.1240196-.0059213.7798649-.1294674,1.5590576-.1312123,2.3387115-.0193371,8.5853076-1.5982325,17.0123067-2.5612854,25.50218-.5954183,5.2488486-1.3966799,10.4678691-3.0162519,15.4973226-1.7235807,5.3524568-3.7088707,10.6266068-6.9424367,15.3015555-1.9606324,2.8346443-2.6650938,6.0741172-3.0459155,9.3738971-.4066808,3.5236518-.5612922,7.0778968-.7766039,10.6217868-.4047643,6.6617048-.80232,13.3241676-1.1370586,19.9896053-.0779207,1.5511053.0998895,3.115841.1758937,4.6735399.040362.8270493.6938203.6627264,1.2164668.7305924,2.3936014.3107245,4.8205851.4763346,7.1684181.996993,2.5581674.567285,4.8383204,1.7505411,6.2815982,4.145773.1675123.2779715.7649902.4179227,1.1630322.4177224,5.5723597-.0028319,11.1456633-.1096296,16.7164497-.0295349,1.6889111.0242859,3.4186705.39029,5.033637.90261.7040038.2233069,1.4478547,1.1224128,1.6778123,1.8676224.4436674,1.4376569.6813484,2.9777063.7466256,4.4864615.2563888,5.9270505.3948096,11.8591211.6150415,17.7879022.0810387,2.1826091.2182867,4.3656902.4142326,6.540962.6848097,7.6011154.3399162,15.1134545-1.6383656,22.5268623-1.3182443,4.9400264-2.3534396,9.9594895-3.7894231,14.86313-1.6026091,5.4725989-3.7772659,10.7246227-6.8984704,15.5607977-2.0114925,3.1167993-3.3727591,6.5419918-3.5352083,10.3031243-.2863099,6.6287515-.5275952,13.2601919-.6982541,19.8928338-.0973151,3.780956-.0175636,7.5665174-.0175636,11.2731855Zm-8.2743257,4.2949065c.6688193-1.6993234.8525794-3.3389191.3278162-5.0657321-.246377-.8107014-.4039633-1.6789851-.4170073-2.5240127-.033697-2.1840394.1924561-4.3812085.0324384-6.5523183-.3960111-5.3737534-.7541774-10.7326608-.5105751-16.1347048.1816719-4.0280195-.3436921-8.0266614-1.4789772-11.925328-.5991941-2.0576614-1.556383-3.8479209-3.0303256-5.4620578-1.5375607-1.6837908-2.9920804-3.5169581-4.1089438-5.4958979-2.2907083-4.058856-3.8974652-8.4193543-5.0300328-12.9558178-1.2574581-5.0368408-1.6687158-10.1822099-1.790946-15.32715-.1687138-7.1020397.0147603-14.2117455-.0247435-21.3177613-.0340689-6.1297187-.1652811-12.258951-.2714638-18.388069-.0048343-.2776425-.1599892-.7762463-.2905149-.7918219-.844713-.1008049-1.7323625-.2322317-2.5389161-.0526051-.2854232.0635895-.5188992.963625-.5443579,1.4929222-.1669974,3.4694019-.2831634,6.9414641-.3917489,10.4134262-.1585589,5.0697655-.2815329,10.1406608-.4480726,15.2101545-.160075,4.8724035-.2784721,9.7480395-.5564007,14.6141928-.3481831,6.0970229-1.378773,12.09131-3.0082996,17.985636-1.3429306,4.8577434-3.7853326,9.1224856-6.7194588,13.168884-3.9331502,5.4240701-5.9504496,11.4378373-5.4904772,18.2248045.1976194,2.915876.4302945,5.883499.1127047,8.768796-.634679,5.7662461-.6871124,11.5299749-.6464357,17.3095796.0131727,1.8711265.0081525,3.7477739-.1315555,5.6111484-.0394323.5259933-.4722154,1.2808572-.9195872,1.4703098-1.4540334.615728-2.9793368,1.0935215-4.5133934,1.4813228-1.5110437.3819373-3.0704588.5687868-4.5995095.8853897-.4834573.1000898-.9375084.3422332-1.405004.5193855.3917489.3898895.7135436.5339742,1.0481106.5757092,3.2155446.4009884,6.4278712.8390206,9.6519401,1.1567677,2.7344043.2695187,5.4702103.237395,8.091767-.7750306.5156382-.1990925.9966641-.4877481,1.4936231-.7350977-.0011156-.1278655-.0022312-.2557309-.0033468-.3835678-2.73316-1.196672-5.0433485-3.4058553-8.3871591-3.0620489.3913341-1.7126821,1.7858257-2.8386419,3.6016726-2.9875608,2.9241144-.2397692,5.4370855.8578428,7.732485,2.5253286.605945.4402062,1.0941508.4847445,1.8144023.3051322,3.9981842-.9970646,8.0456839-1.5085836,12.1808587-1.0390857.5212448.0591843,1.1633469-.1023496,1.6107902-.3828813,1.9833163-1.2432699,4.0887771-1.7301885,6.3825175-1.221015,1.0515003.2333902,2.0820902.5610061,3.1761266.8606747Zm-19.4419006,107.3814152c.1119609.0045196.2239505.0090107.33594.0135017.0840136-.4415792.1881939-.880441.2488085-1.325224.4161206-3.0538392.7092957-6.1295613,1.2579158-9.1591432,1.0036438-5.5420095,2.7375223-10.8189342,6.2051078-15.385848.7304922-.9620231,1.5209983-1.9127472,2.0576042-2.9822116,3.5332631-7.042126,4.9513111-14.5750608,5.1199677-22.4008276.0612724-2.8432759.2305011-5.688354.467467-8.5228195.4448974-5.3216633.9913435-10.634745,1.4541478-15.9550066.0806096-.926381-.0153324-1.8722135-.0756323-2.8060891-.3240689-5.0191914-.686526-10.0360657-.9742662-15.0572881-.0522904-.9125933-.3346814-1.2673269-1.2554844-1.4233114-1.7970389-.3045315-3.562984-.7894191-5.3464354-1.1784504-.6664737-.1454291-1.34602-.3300474-2.0192731-.3286743-3.7797259.0076376-7.579876.3216946-11.3320551.0205958-2.6088559-.2093904-5.0707666-.3289604-7.5285725.6600375-.7144018.2874541-1.5096849.4390334-2.2805964.505512-1.1376164.0981446-1.451602.6266838-1.4666912,1.7472372-.0962853,7.1415578-.2603936,14.2823147-.4342992,21.4225281-.0180213.739932.1738913.9028389.9168983.8957734,2.178776-.0207102,4.3584816.0888479,6.5382016.1234316,4.5215745.071742,9.0433206.1649665,13.5651811.1764372,2.6118881.0066364,5.2239477-.1425972,7.8364937-.1873644.4571691-.0078378,1.0222944.0179355,1.3511403.2707201.4790235.368264,1.0722678.9455751,1.0917193,1.4538618.0196232.5116621-.5253926,1.1314234-.9707191,1.5445976-.3078211.285652-.8603887.390147-1.3142968.42167-2.1745996.1510929-4.3595257.4205544-6.5285473.335654-7.1359226-.2793016-14.2669537-.6862399-21.3986999-1.0662034-.842067-.044853-1.3032837.1071839-1.3132956,1.1016739-.05076,5.0348957-.2874541,10.071336-.2069304,15.1032281.1097869,6.8587949.987539,13.6213904,3.3804396,20.1137521,1.3636694,3.6998315,3.0552551,7.2359551,6.1092373,9.8353141,2.6362025,2.2437385,4.3329515,4.9628676,5.1926822,8.2785306.9095039,3.5076328,1.1158335,7.0825738,1.15631,10.6815718.0114993,1.0247544.1047524,2.0485935.1605327,3.072833ZM80.3424792,10.5575327c-.840222.2559455-1.4222244.4430023-2.010005.6096458-.6381831.1809318-1.2734199.3894247-1.9242465.5060233-8.0503466,1.4422337-16.124979,1.8292699-24.2235397.436416-.8547248-.1469988-1.2938154-.0941578-1.4276165.8964563-.9140235,6.7668541-1.8594699,13.5295425-2.8257981,20.2891452-.1356747.9489291-.0119856,1.4974776,1.1164772,1.478448.6946785-.0117174,1.392904.1581012,2.0887839.252023,6.9117575.9328601,13.7895178.3433023,20.6679073-.4249488,1.8587691-.2076062,3.7340434-.3524667,5.6009077-.3440997.4772214.0021347,1.1995325.62466,1.3418722,1.1016453.0992888.3327184-.5795423.9188685-.9510387,1.3577553-.1091576.1289596-.3509006.16674-.5401815.2037194-3.3694695.6582282-6.7163122,1.5065097-10.1159316,1.9199271-6.1231537.7446089-12.2357522.3936011-18.2843892-.8756782-1.3237365-.2777784-1.354573-.2376596-1.4457665,1.1457689-.0898491,1.3631259-.1185258,2.7363566-.3110964,4.0855947-.8295951,5.8125937-.5751657,11.6348918.2813898,17.3836743,1.0438627,7.0061048,3.8075875,13.4006723,8.014118,19.1400008.7144161.9747596,1.4901046,1.9301606,2.0385245,2.9968003,3.0696865,5.9702444,4.5553859,12.4233811,5.6503662,18.9876493.1646232.9868811.323697,1.9747061.4853167,2.9620878.1085855-.0109415.217171-.0218973.325728-.0328388.0689959-.3345384.1727185-.6660875.2017814-1.0040442.5159815-5.9976053,2.6944428-11.4268243,5.6217609-16.6109536,1.6084159-2.8484678,3.5180451-5.5937278,4.666174-8.6226804,3.4012499-8.9729731,4.7231843-18.4317921,5.6150673-27.9226346.351816-3.7437691-.0235707-7.5519931.0126721-11.3300957.0842139-8.779834.2180292-17.5591997.3296469-26.3387799.008696-.6848311.0011156-1.3698732.0011156-2.2460269Zm-37.2253833,232.9799007c.043008-.0157615.0860017-.0314944.1290097-.0472559.7786778-3.775807,1.6411403-7.5367679,2.3151658-11.331197.8701431-4.898563,2.0984954-9.5937714,5.4813378-13.4853438.7584825-.8725459,1.1164915-2.1262424,1.5412794-3.2489413.8964027-2.3691153,1.5597298-4.837548,2.5962982-7.1402706,2.5553641-5.6765543,3.7867056-11.6192232,4.1361473-17.8018902.2880549-5.0966687.6977392-10.1867868,1.0880006-15.277148.1148787-1.4980855.131813-1.5685545-1.3549734-1.508555-4.0165774.1621059-8.0302085.4251884-12.0480588.5215023-5.6581039.1356461-11.3258764.309566-16.9543453-.5116049-1.0980125-.1601894-1.4856565.0980874-1.5971884,1.2668979-.7391596,7.7456006.0793653,15.4387534.5889392,23.1503566.4570976,6.9172355,3.0205712,12.9975099,6.7786859,18.7047291,1.1058789,1.6794428,2.1696223,3.4868654,2.7570168,5.3887426,1.7849675,5.7792328,3.3696411,11.6239431,4.1335443,17.6500106.154783,1.221015.273695,2.4465211.4091409,3.6699676Zm-22.6245349,127.6206013c.1290383-.0043194.2580909-.0086674.3871291-.0130154.3757442-2.1415892.6060165-4.321824,1.1622742-6.4154708.7795931-2.9342406,1.7034283-5.8403909,2.7563589-8.6880148.6533296-1.766889,1.5416513-3.4766533,2.537872-5.079434,1.2337444-1.9848038,2.6880924-3.8325884,4.0477714-5.7390997,1.4550775-2.040298,2.1226382-4.3674208,2.7807448-6.7651413,1.207356-4.3988007,1.9229879-8.8335869,2.0952344-13.3854543.0928812-2.4541587.4562108-4.8969039.6184169-7.3500043.2032975-3.0746638.3347386-6.1542763.4735885-9.2328303.0233848-.5186132.1341157-1.1447821-.797028-1.0417746-2.6756349.2960357-5.3592506.5199862-8.0348568.8162508-4.8236888.53406-9.6430725.9069866-14.4758006.0875035-2.539903-.430652-5.0985137-.7586684-7.6268459-1.2463307-1.0649019-.2053857-1.1966148.1571858-1.1310086,1.0653453.1405662,1.9462439.3180904,3.9006975.2750252,5.8472561-.1243899,5.6256513-.0648052,11.2275602.5265225,16.8418551.7976717,7.5736115,3.8657705,14.2145488,8.0681247,20.3557811,2.9998897,4.3839546,5.2263792,8.919231,5.4821101,14.320188.0891769,1.8833696.5586033,3.7487751.8543673,5.6223903Zm103.7057122-61.3259634c-3.7726318.2162843-7.3824998.6009105-10.9905371.5848629-4.4449696-.0197376-8.8879655-.3850839-13.3329065-.5761955-1.5985471-.068767-3.2029869-.0172204-4.7995889-.1093865-1.44631-.0834987-1.4949961-.1369619-1.4979139,1.3546588-.0116423,5.9718034-.1207714,11.9479261.0707694,17.9139513.1185402,3.691965.2869106,7.4766397,1.7601096,10.9350143,2.0179287,4.7371722,4.081826,9.5034932,7.8461337,13.2055273,3.1643412,3.1120508,4.7343117,6.953936,5.1959432,11.2511881.758411,7.0592891,1.5094132,14.1249572,1.9887799,21.2065584.2972371,4.3916208.0919087,8.8176252.101377,13.2281827.0022026,1.0198057.019709,1.0825942,1.1800523,1.5692267,0-1.4730559.0360998-2.8261128-.0061215-4.1767382-.2099053-6.7113063-.4439535-13.4218402-.6623831-20.1328604-.1415388-4.350086-.1130479-8.7644766,1.1998758-12.890984,1.1952417-3.7567845,3.0897673-7.3168794,4.9163555-10.8390723,1.5344142-2.9588125,2.980953-5.9024356,3.775664-9.1671527.8357309-3.4331734,1.1906935-6.8973834,1.4356402-10.4152855.474275-6.8116249,1.2068841-13.605114,1.8081378-20.4082717.0775774-.8778665.0106125-1.7685481.0106125-2.5332236Zm-36.9847846-70.2772609c.0605001-.0172204.1210288-.0344121.1815289-.0516325.4851736-2.3244053.9560446-4.6519572,1.4609845-6.9720717.3064766-1.4082364.8430253-2.7892406.9692316-4.2097487.4477007-5.0389576,2.4726091-9.5409947,4.945447-13.781494,2.844935-4.8785394,4.9530846-10.0248382,6.3810873-15.4247368.7390166-2.794647.9773269-5.7777025,1.0353098-8.6837383.0933675-4.6803765-.1681703-9.3672035-.2334188-14.0519566-.0115851-.830725-.2698619-1.0385279-1.0915191-1.0436625-5.1485729-.0321666-10.299377-.0504883-15.4440597-.2287848-3.4696737-.1202422-6.9268754-.5759381-10.3963488-.7334958-3.2191775-.1462014-2.7634387-.5557571-2.8732828,2.7023236-.1407092,4.1752507-.072171,8.357095-.167026,12.5344339-.2353926,10.3635815,2.6729031,19.7397957,8.8642803,28.0459876,2.6352585,3.5353227,4.7193226,7.2829822,5.3391697,11.6926529.3743855,2.6636922.5644102,5.3534151.8332423,8.0318104.0726859.7239416.1306402,1.4493707.1953738,2.1741133Zm6.7280117,65.2116146c1.3473644-.1660821,2.429787-.4454409,3.5006245-.4064234,4.7908071.1746064,9.5881934.319349,14.363811.7112123,3.7152211.3048747,7.3995486.9767548,11.1024122,1.4477402,1.4491133.184275,1.4585244.1373052,1.4726554-1.3269689.056524-5.8524909.0890195-11.7052964.1771809-17.557301.0323239-2.143706.2263533-4.2845514.287826-6.4284004.0504597-1.7600524.0214539-1.708992-1.6434574-1.3422155-1.3652713.3007842-2.7602921.6143835-4.147332.639928-3.7403651.0688528-7.4837052.0009726-11.2255292-.0410485-1.9483607-.021883-3.8968644-.0840136-5.8437091-.1661679-1.0873141-.0458256-2.2026042-.0383596-3.2499853-.2874828-1.8597989-.442323-2.9717421.2696045-2.9957991,2.1064333-.0061215.4682107.0049487.938481-.034927,1.4041172-.442609,5.1687968-.9000928,10.3362778-1.3390689,15.5053607-.1574147,1.8532483-.2756402,3.7098433-.4247021,5.7412165Zm-65.868577-.1390501c.0001144-.0110988.0002288-.0221691.0003433-.0332679,2.5754593,0,5.1511617-.0211107,7.7263063.0076948,1.6266089.0181643,1.6535979.0507743,1.6050977-1.6281249-.1002614-3.4706176-.2824768-6.9394903-.3374418-10.4105943-.0512606-3.2361404.0393894-6.4744262.0104409-9.7112531-.0038045-.4261896-.330834-1.2102309-.5337453-1.2187552-2.3339309-.0978586-4.5169261-2.0398689-6.9757475-.6073752-.1912261.1113888-.4531787.1103018-.6849241.1417962-3.3654361.4569975-6.7245076.9713484-10.0988972,1.3487947-3.7838308.4231861-7.5697498.4072529-11.2754597-.6251677-1.0031289-.2794733-1.2301544.1196844-1.2919132.9942326-.2117361,2.9987168-.5022796,5.9922847-.685582,8.992489-.2023964,3.3124592-.3061191,6.6308397-.4822988,9.9450724-.0534632,1.0059608.1333863,1.4102102,1.3484514,1.3361798,1.8161616-.1107023,3.6601846.0769767,5.4819099.248551,3.9185758.3690649,7.8268109.8499764,11.7470029,1.1985313,1.4711536.1307832,2.9636754.0211965,4.4464571.0211965Zm46.090908-158.6836846c-.0266315.4808828-.0532916.8141912-.0622736,1.1479429-.1105021,4.0947842-.1023496,8.1970057-.3624571,12.2821928-.2204607,3.4621219-.7395887,6.9058363-1.1514757,10.3547282-.0906214.7589545.0355563,1.1269324.9357063,1.1694684,2.922255.1381634,5.8372157.4690546,8.7599284.5526105,6.2003593.1772095,12.4040368.2373807,18.6059408.3654464,1.0631999.0219545,1.5468288-.4174936,1.6229474-1.4910915.1269787-1.7897589.4846015-3.5716657.5013356-5.3591505.0529483-5.6580324-.0157329-11.3171232-.0146173-16.9758135.0001716-.9442593-.2506392-1.1829987-1.2515082-.9430006-7.6560232,1.8357991-15.3691711,2.1071198-23.0959065.502251-1.4616424-.3036018-2.8408731-1.004316-4.48762-1.605584Zm-20.2841822-.2324319c.5127205,2.0897135.2144249,2.520952-1.783523,2.7470336-1.1622027.131484-2.3418831.1310979-3.4962765.305361-5.5369464.8359026-11.0546986.3735845-16.5686893-.2095334-1.6333168-.1727328-1.6145375-.2354212-1.7450918,1.4905194-.4355149,5.7579362-.8545246,11.5173599-1.3448186,17.2706907-.0923663,1.0838815.2669728,1.319131,1.2693436,1.3537577,5.4577528.1885372,10.9206831.3354681,16.3669651.7119703,3.9228952.2711635,7.8248228.8603601,11.7317563,1.3428591,2.4683755.3048175,2.6088559.2888129,2.6478163-2.2171928.0823545-5.2998661.0883616-10.6013913.0712843-15.9020583-.0056638-1.7533301-.150149-3.5085339-.2986102-5.2571584-.029349-.3455657-.3324788-.9235062-.5691014-.9557729-2.0627245-.281161-4.1390079-.4624325-6.2810547-.680476Zm33.7869466,104.7807976c-.1413957-.0032324-.2828201-.0064362-.4242444-.00964-.0796942.4773644-.2395976.9569028-.2266108,1.4317213.1245759,4.5578173.2924315,9.1144618.4116009,13.6723936.0231703.8864195-.0277757,1.7927195-.1939436,2.6612607-.1823299.9529553-.7717982,1.5837582-1.8356274,1.6836763-.3063336.0287769-.7339821.2069876-.8638785.4474719-1.1673516,2.1610121-3.1884555,2.9758612-5.3828213,3.5935916-.9294417.2616522-1.8411768.6328625-2.7049123,1.0660318-.6682758.3351677-.6714796.8439693.0442523,1.1896351.6304883.3045315,1.2687858.6824354,1.9421248.7923368,2.2926821.3742711,4.6055309.9195729,6.9047922.892827,3.9298749-.0456826,7.8588058-.4337128,11.7804138-.7685086,1.1503601-.0981732,2.2872185-.4594003,3.4043107-.7882462.4262468-.1254626.7796933-.4981604,1.4202792-.9290127-1.2782541-.6670458-2.2968012-1.1404627-3.2578804-1.7107655-3.0790976-1.8271889-6.6941717-2.9425647-8.5777701-6.3813733-.0515467-.0941113-.1663109-.1703157-.2688321-.2171424-.9820754-.4485875-1.2974769-1.3294575-1.3882985-2.2869038-.1103018-1.1622885-.107756-2.3349034-.1720606-3.5020262-.1990353-3.6126999-.4066236-7.2249421-.6108937-10.8373274Zm6.9247586,158.2158315c.6680756.2435451,1.0835382.4535362,1.5237444.5467035,6.1594824,1.30377,12.3731146,2.2013455,18.6814587,1.7680046,2.3923428-.1643085,4.7702399-.7128142,7.1214483-1.2357467,1.3388115-.297752,1.3916167-.8747485.3359973-1.7859973-.2349921-.202897-.4825992-.4072815-.7572954-.5455879-2.1550622-1.0851973-4.3110112-2.1693076-6.4881853-3.2087938-.2572756-.1228309-.6799754-.0579542-.9649695.0633034-1.2943017.550651-1.9447851.2652851-2.3459451-1.0909184-.0735441-.2486368-.1590452-.4937552-.179784-.5576879-1.4953108.5682147-2.891676,1.2229316-4.357695,1.6217174-1.5352723.4176652-3.1383963.5842622-4.7101117.8702289-1.4173329.2579049-2.8552329.4437532-4.242044.817252-1.4514017.3908907-2.6557399,1.2202141-3.6166188,2.7375223Zm-28.4434289-5.7368399c-1.1564816.7824966-2.0925312,1.5830717-3.1645129,2.1038016-1.8212962.8847031-3.7371613,1.572688-5.5955871,2.3839328-.9895128.4319107-1.8612291,1.0351667-2.4095059,2.0286556,3.6499439,2.1939654,22.295217,1.5197969,24.9955811-1.0190906-.8390206-.3246982-1.5628764-.6186171-2.2963436-.8863622-3.0361897-1.1082818-6.3647251-1.6787276-8.3629733-4.629359-1.6035816,1.0795335-1.8583972,1.0644013-3.1666583.0184218Zm-3.5107794-266.8173463c-2.2588421,1.8103547-4.6743265,2.680083-7.3240021,3.0114176-.5860643.073301-1.2158089.3832817-1.6685871.7685801-.4391192.373699-.8888223.9732221-.9165122,1.4956826-.0147603.2784435.8165368.7619294,1.3292144.881342,2.7310575.6360806,5.4665489,1.2799419,8.2307027,1.7393708,2.6489319.4402491,5.345234.8159361,7.8543148-.6971957.2457477-.1482038.6090916-.0910791.9119353-.1566853,1.5432532-.3343095,3.0968614-.6318756,4.6200051-1.0420463.5511087-.1483897,1.0275864-.5740501,1.5381328-.8731895-.0053206-.1447998-.0106412-.2895852-.0159617-.434385-1.1127728-.3917489-2.1979987-.9291128-3.3438964-1.1456402-2.5637454-.4844442-5.1541795-.8348013-7.7406948-1.1890201-1.4975706-.2051139-2.8503414-.5714041-3.474651-2.358231Zm-13.9439718,3.7712302c-.4992188,0-.9247362-.0486146-1.335908.0076376-3.5511843.4858458-7.1102923.9277111-10.6442276,1.5190388-1.5247456.2551588-3.0246046.7544062-4.4769217,1.2995651-.5726914.2149827-.9849359.8574423-1.4702383,1.3052432.5902836.2702195,1.1689535.7447663,1.7726673.7791355,6.1474825.3499709,12.2989268.6309746,18.4497705.9204597.3996725.0188223.8035071-.0511176,1.361381-.0908932q-3.6781201-2.3999375-3.6565231-5.7401867Zm-22.4640452,137.7121898c-.2420719-.9002358-.5712754-1.6706323-.6289579-2.4608523-.0634321-.8689989-.3778896-1.1418929-1.2212153-1.1040482-3.1901718.1432837-6.3900979.1399941-9.5715308.3846262-2.4826209.1908828-4.9473207.6428744-7.4094317,1.0436911-.38065.061959-1.0266281.5311709-.9937463.709639.0941828.5113474.4331693,1.0010407.7612,1.4347249.1390215.1837887.4836862.2528418.7474838.2946913,1.5745473.2497238,3.1603079.7142445,4.7282903.6646144,4.2060443-.1331288,8.4052519-.486375,12.6064047-.7637315.3282595-.0216542.6506264-.1326425.9815033-.2033547Zm75.0214128-134.9314307c-.8533232-.393694-1.506381-.8647653-2.221169-.9937893-2.4036705-.4338844-4.8190118-.9019092-7.2493424-1.0622702-2.5983292-.1714313-5.2189418-.0225552-7.8291136.0247721-.3441211.0062216-.8972894.1507783-.9918584.3802925-.6545453,1.5887784-2.0900425,2.2503606-3.4125776,3.0617914-.191598.1175676-.3439781.2990393-.3270152.2839214,3.2025006,0,6.5056631.0315087,9.8078817-.0091966,3.0766947-.0378877,6.1533895-.1270502,9.2279961-.2475212,1.0595098-.0415205,2.0263958-.4235293,2.9951984-1.4380002Zm1.4483124,134.9550586c7.153715.7947968,14.2156358.8445414,21.0675083-1.8072796-.3073634-.2500099-.6167292-.4009598-.9391103-.4376889-2.5506156-.2905721-5.0977986-.6652723-7.6575393-.807898-3.111965-.1733764-6.2350575-.1511787-9.3536303-.1955741-.2905721-.0041478-.7068357.0213109-.8537809.2033261-.7659627.9490077-1.4636162,1.9531664-2.2634475,3.0451146ZM76.4603178,6.4885504c-8.5307717-1.8775216-16.8241485-2.2324251-25.2144112-.0618445,1.591167,1.1887447,22.2576011,1.2666476,25.2144112.0618445Zm-15.3293526,270.3036575c3.0859342.0723141,6.0722364.1595887,9.0589104.1748067.2070448.0010584.6508838-.6219925.5825745-.803121-.2288706-.6065457.569931-1.775299-.8295236-1.7756422-2.2182798-.0005435-4.4399923-.016305-6.6537525.09906-1.6891113.0880184-1.7441192.2318455-2.1582088,2.3048965Zm2.3917707-143.0321225q2.2330687-.435329,2.1587809-2.3029943c-.0189653-.5045108.0472273-1.0166735-.0143884-1.514319-.2306727-1.8631171-.4981318-3.7216716-.7518031-5.5819424-.0903926.009454-.1808138.0189224-.2712064.0283764-.3684928,3.0792406-.736957,6.1584669-1.121383,9.3708793Z" stroke-width="0"/>
  </g>
</svg>