<?xml version="1.0" encoding="UTF-8"?>
<svg id="Layer_2" data-name="Layer 2" xmlns="http://www.w3.org/2000/svg" viewBox="0 0 162.8054877 252.6587598">
  <g id="Layer_1-2" data-name="Layer 1">
    <g>
      <path d="m79.7576728,47.256449c-7.7507517-2.2129897-1.6261363-18.8857154-.8971118-14.8054289.002268.1488603.0930903.3577974.0521642.4598832-.1474205-.2669624-.2125302-.5933134-.4038328-.806468-1.155257,2.8828548-1.4455111,10.5641392,1.5485908,12.3828141-.036543-.0183352-.0732133-.0366704-.1098837-.0550056-.0213804-.014449-.0424296-.0287578-.0465579-.0232789.0187047.010308.0375878.0203101.0565728.030083.0029051.001924.0057337.0038862.0004077.0002166.1342967.1064435.4899407.1437509.4812254.1947556,1.182626-.0737867,2.1628642-.9674711,3.0986341-1.5135768.9412552,2.3219942-1.3668698,4.8826008-3.7802087,4.1360057Z" fill="#423b30" stroke-width="0"/>
      <path d="m83.7812465,46.7336859c1.7962114-4.5865748,3.5107044-11.3710149-.7894197-14.991482-.8477508-.5038545-1.868227-.5428312-2.6911571-.1500198-1.0726149.5209411-2.2836292,1.8457763-1.6015195,3.0335372.3307724.4682927-.2409185-.1076157-.323051-.2804303-.9433894-2.6167588,2.3606905-4.9872859,4.7854459-4.2601855,6.3154021,2.0884531,7.4844264,14.5511316.6197013,16.6485803Z" fill="#423b30" stroke-width="0"/>
      <path d="m85.5670862,29.5500086c.0065301-.0097856.0130474-.0130474.022833-.0195711.0042302-.0042175.0090465-.0041793.0125887-.0020259,5.6463716-4.1684968,8.9368626-10.5259398,13.4621629-15.7464101,6.9843625-7.5226513,17.2345865-16.961935,28.2574621-12.7341259.431788.1866647.9466258.3781203,1.3079781.6132541-1.2092305-.0334213-2.5004406-.0540499-3.6435676.0358039-9.6466025,2.0022051-17.7391609,8.3043241-24.7951122,14.893397-4.5566829,4.6046041-8.7164581,10.0989172-14.624345,12.9596781Z" fill="#423b30" stroke-width="0"/>
      <path d="m143.0272219,43.3234173c-1.6786572-3.9102242-3.0702458-7.9995955-3.5685704-12.2417261-.5787498-5.5411768-1.4771867-10.6646833-3.3821351-15.8397807-1.9036487-4.3361637-3.1031701-10.779944-8.0045648-12.5979308.0094288-.0010448.1062651.0602169.0649313.066078-.0913319-.0358804-.1826638-.0684989-.2674975-.1141649-.076781-.1123428.1343731-.0854963.2090135-.0654919,5.5840396,1.0714936,7.7551858,7.3825444,10.2780007,11.7853214,4.3224665,8.9028998,5.8654,19.2475137,4.6708223,29.007695Z" fill="#423b30" stroke-width="0"/>
      <path d="m140.1222095,44.4322184c-1.8686602-3.9365739-2.9230036-4.9753088-7.1951662-5.9970336-2.7708687-.6696612-5.6713451-1.5685441-8.5122927-.7587251-2.5080346.7196721-4.6850675,2.199662-7.0666033,3.2230432-4.657571,1.9800729-9.907398,2.5041994-14.9099037,1.9145555-2.9506083-.3315751-5.739086-1.4099747-8.4339636-2.604718-1.1889713-.4592079-2.3524085-1.0440991-3.6152048-1.0550442-.8255294.0506862-.9137779.6052269-.1240524.9557997-.1316719.0031344-.5121111-.167565-.6492874-.2969689-.8957867-2.7561904,8.3565902.5843179,9.7344751.5198198,2.8516187.3923272,5.8329789.2286611,8.6331534-.2327002,2.9780219-.510391,5.9290316-1.3494648,8.5982477-2.7888471,1.8326779-1.0505719,3.6569973-2.1290989,5.6430588-2.8706993,5.1099495-1.8238734,11.2955463-.5351225,15.539346,2.753298,2.2356443,1.6614305,2.4899925,4.7092001,2.3581932,7.2382201Z" fill="#423b30" stroke-width="0"/>
      <path d="m126.6537586,54.6187853c-4.1715548-1.1465545-8.0777526-3.1153001-11.736126-5.3953872-4.5031936-2.5359388-14.8807318-10.2548109-19.7995315-7.7763241,3.3573654-2.5591412,10.7330994.8561093,14.2543794,2.2933766,6.2291477,2.852466,12.2150834,6.615155,19.0459922,7.8416504,3.6542706.5713979,8.3065921.914313,10.9561096-2.1718215.9760589-1.5827128,1.0344665-3.5213373,1.3573136-5.3109994.1446683-.7719764.2429827-1.6319082.4436377-2.355046.3620658.8513439.7078224,1.7157353.9979235,2.5962703,4.0522677,10.595267-7.8154282,12.703699-15.5196985,10.278281Z" fill="#423b30" stroke-width="0"/>
      <path d="m33.7906804,68.917773c-2.0474379-.1411134-3.9460281-1.5887396-4.4494877-3.6108599-1.0185777-5.7293832,3.58674-10.7065778,7.4275733-14.3748004,4.4971796-4.1414336,10.1021281-6.7155717,15.8655952-8.5886278,4.0797642-1.3758909,8.2376089-2.647619,12.5190219-3.193368,2.7702316-.2789268,5.8407832-.2608337,8.3372739.9427014-2.9949173-.9225059-6.1856988-.4954323-9.1707286.238281-9.7013151,3.0821592-19.9056182,6.7872943-26.9480889,14.4595704-2.255088,2.6175233-5.8352788,6.9851589-5.1242456,10.6075881-.0241836-.0557828-.0449015-.1033345-.0650332-.1565308.2038531.6408779.7424413,1.2176782,1.2720467,1.4777856,2.0862361,1.0284397,4.4989761,1.1785105,6.7455782,1.696126-2.0333074.3568545-4.2901283.6402281-6.4095053.5021344Z" fill="#423b30" stroke-width="0"/>
      <path d="m33.3145899,66.5007136c5.0464707-1.4055788,10.3858585-3.02802,14.9564298-5.7522035,9.1420854-5.8368205,16.2586614-14.3365883,25.1057019-20.5514144.3317662-.2078285,1.0289366-.5051669,1.2655485-.1337615-.4613995-.3246564-1.0360974.2144669-1.4223468.4793652-4.9105431,4.5338372-9.1610195,9.7505487-14.0161366,14.3553185-6.6414155,7.038215-15.630627,13.9677057-25.8891967,11.6026957Z" fill="#423b30" stroke-width="0"/>
      <path d="m29.9060924,60.778402c-5.1619607-5.1839018-8.7876646-11.8889744-11.2958776-18.7168125-2.9873743-10.2736813.3614415-22.027225,7.0427-30.1557148.5581466-.6059914,1.9036742-1.383727,2.3125909-.2510354-.4631068-.8393286-1.3829497-.3502289-1.9062225.2580815-5.435587,7.6277951-7.8976881,18.9195954-5.5111957,28.0057451,1.2042995,4.050726,3.4297123,7.6788253,5.4081798,11.3805966,1.6060682,3.0149344,2.6543721,6.3803143,3.9498251,9.4791395Z" fill="#423b30" stroke-width="0"/>
      <path d="m76.1830374,34.6712726c-11.4795607-1.6266332-16.798065-10.675106-25.3969498-17.0363205-5.1614511-3.9563616-11.6649131-6.6768499-18.2079887-5.8215561-2.4562272.4247164-5.3518108,1.1869207-6.7456802,3.37356.0239925.1156939.0589045.2148619.1537913.291885.0130474.0065237,0,.022833-.0096964.016322-.3153933-.177478-.184282-.5706334-.0002548-.7961473,5.6526404-6.2929959,15.8534652-4.5245995,22.5982661-.9978726,5.3703626,2.8017034,9.8315599,6.9708882,14.2706631,11.0217544,4.1421981,3.6811044,8.758996,6.9243049,13.3378493,9.948375Z" fill="#423b30" stroke-width="0"/>
      <path d="m26.3466322,109.6552741c2.5425516-9.4920212,6.3734465-18.9481111,15.3336071-24.0564551,5.5449738-3.0654804,12.2800147-3.9806344,17.2223609-8.0815241,6.4387983-5.5848296,11.9748784-12.5804875,15.2168557-20.4987151,1.2498253-3.0840449,2.2297577-6.2703286,3.1640496-9.46269.0545341-.2175504.7520103-2.7292036.8975196-2.5377226-1.3824656,6.0062203-2.1179372,12.3301784-4.8473957,17.9763461-3.680926,7.5937113-9.401989,15.7842782-16.8086151,20.0764961-3.5834781,2.0025491-7.5611564,3.1105539-11.3536481,4.6337697-9.6905866,4.00097-14.5155061,13.0795257-18.824734,21.950495Z" fill="#423b30" stroke-width="0"/>
      <path d="m24.9774816,181.9916566c1.7490929-3.8655776,3.7382633-7.7029707,4.8776952-11.7972857,1.7571838-6.8474729,1.7628666-14.0081348.5696268-20.9223739-.8960798-4.931261-3.5008997-9.2940165-5.2515216-13.9411649-2.2758951-6.2637794-3.5601992-13.1879824-1.6703879-19.7180871,1.1635008-4.095946,7.7472605-20.5358187,11.0904317-21.5738273-1.8340285,1.0878348-2.4766775,3.3915957-3.4085739,5.2094105-.9912851,2.4065667-1.9016992,4.84393-2.7887579,7.2933786-2.0142077,5.5215802-4.0603969,11.4916653-3.2224954,17.4279851.8395707,7.5923479,5.1174543,14.04664,7.7892441,21.029276,2.866227,9.0206578,2.7392058,19.456731-1.7158882,27.9476179-1.700955,3.239429-4.0388381,6.2265739-6.269373,9.0450708Z" fill="#423b30" stroke-width="0"/>
      <path d="m19.9340562,248.0856402c-.0815464-.4586982-.1593467-.9391592-.2873617-1.3934488,4.3727067-7.0438213,6.6904325-13.1108956,4.4755825-23.0378392-1.2134098-6.1420715-4.1001507-11.8340071-4.9971607-18.0478394-2.4268195-13.3018415,2.1071578-23.5310163,11.7035329-32.5043772-12.2580481,14.4337049-11.7752937,26.6819675-4.8536391,43.5327063,5.0238161,14.0752322,2.8362969,22.5752675-5.9647209,31.8791205-.0248589-.1426552-.0503294-.2852848-.0762331-.4283222Z" fill="#423b30" stroke-width="0"/>
      <path d="m15.7663621,252.6134761c.0015417.0046125.0030198.009123.0045742.0137355-.0119899.0108304-.0228967.0207179-.0348866.0315482.0102443-.0153154.020068-.0299683.0303123-.0452837Z" fill="#423b30" stroke-width="0"/>
      <path d="m16.7737526,103.956509c1.4037695-7.5394702,3.2785585-15.5933004,9.1983142-20.9476023,3.770334-3.5477252,9.0185809-4.4192263,13.8161824-5.6795253,6.0137761-1.6740702,11.534337-4.7607144,16.6190835-8.3342286,3.5278227-2.6519767,6.2649262-6.1942357,8.6640964-9.865529,2.6241872-4.2523111,4.3903538-8.9303962,6.5274035-13.4266584-1.2916178,3.772997-2.451258,7.7655575-4.048114,11.4849122-5.0738652,12.8574266-17.6696681,21.3054506-30.758903,24.4120864-11.8045102,2.3446871-15.8400992,12.5120905-20.018063,22.3565449Z" fill="#423b30" stroke-width="0"/>
      <path d="m10.4068808,171.3993457c14.5812783-21.4493162-1.1659218-22.7509744-.5120092-42.6487438.4678595-11.1316126,3.6259842-22.158744,8.4223879-32.1848174.4680633-1.0189472,1.3735082-2.578929,2.0709334-2.968281-2.6129873,3.4711225-3.3810011,8.0631443-4.7306187,12.138468-2.2398745,8.7730436-3.8996869,17.9059805-2.9828255,26.9635636.5034086,5.3848626,3.3017992,10.038866,5.4170989,14.8915112,4.4888211,9.5571564-.1727509,17.7195388-7.6849667,23.8082994Z" fill="#423b30" stroke-width="0"/>
      <path d="m8.1516654,242.6706819c4.0115838-11.8805395,2.5331611-19.401305-3.2157423-30.2569342C2.4929344,207.6768218.2036352,202.6528783.0069046,197.2395c-.2437472-11.8071477,5.9898474-23.4367793,14.9330871-30.9256143.3828601-.3092646.9011382-.8436225,1.3470184-.8840135-2.0502792,1.4898264-3.5792607,3.708295-5.2092959,5.636535-5.351607,7.5912521-9.0780206,17.0871468-8.1173536,26.4876833.7765252,6.5711837,4.751961,12.034815,7.4974985,17.8800832,4.9548338,9.6815401,3.8933041,18.4986378-2.3061938,27.2365081Z" fill="#423b30" stroke-width="0"/>
      <path d="m19.9348079,248.0850286c-.1043793-.5871338-.202235-1.2101479-.4077318-1.767925-.2387907-.6610351-.5818205-1.2542084-1.2073065-1.5711689-.0717735-.5280127-.1332646-1.0519225-.1822434-1.5699967-.3163999-1.1905768-.156569-8.6047714-2.4561762-6.2236178-2.1071578,1.5852611-3.9925096,3.5521592-6.3214735,4.8079731-.1500453.0652371-.4403503.1533071-.5740863.0065237-.4273029-.5610389.4305648-1.1807912.7339172-1.6048323-.1043793.3783751-.4990637.8252491-.5251585,1.2786469,1.8462095-1.3471458,3.1574749-3.3629717,4.7623071-4.9841132.828511-.8578677,1.6765931-1.9114466,2.9519781-1.9864692,4.1282333.3162979,4.117199,9.1819922,3.295543,14.0052552-.0227565-.12999-.0459718-.2599545-.0695692-.3902758Z" fill="#423b30" stroke-width="0"/>
      <path d="m140.1780942,90.8242075c-2.650384-16.2153398-2.1711462-20.9058098-19.0455335-26.607429-9.594999-3.4478436-18.8366984-6.8517286-25.0677064-15.4314883-.6724771-1.0253562-8.7861802-10.3758436-5.2448577-9.8214175-.2345987.0416141-.6823646.0810367-.8179099.4023166,1.122664,2.8525552,3.7606631,4.9371476,5.6826087,7.2907029,1.9274437,1.9751419,3.8138211,3.9601204,5.9125376,5.6298839,5.1844433,4.2287646,11.6835604,6.0769491,17.9170403,8.1630577,19.1098532,5.7184382,22.2958438,10.5332535,20.6638209,30.3743737Z" fill="#423b30" stroke-width="0"/>
      <path d="m152.5574935,161.1064373c.7703327-4.8221673,2.0584084-9.8614772,2.8377622-14.5805138,1.145395-7.6638029-.0534638-15.7969816-3.7367343-22.6303878-2.9212962-5.3216387-7.2405009-9.7968262-9.728047-15.3702138-3.4507869-7.61276-2.7585093-16.4116882-.1206122-24.1116263-1.8585179,7.9342119-1.892487,16.8062961,2.2406135,24.017058,3.4415875,5.9454938,8.7380487,10.6708248,11.5728294,16.9909221,6.156546,13.7435424,2.547763,22.8409557-3.0658117,35.6847615Z" fill="#423b30" stroke-width="0"/>
      <path d="m153.0044949,240.5233625c6.242348-14.5487872,9.9181264-28.2139432,1.7751113-42.9456235-3.0277142-5.4306815-6.9737933-10.8088165-6.6675868-17.3367042.0218646-6.5656538,1.6570474-13.0843675,4.0902378-19.1570227,1.135584-2.258146,1.9506143-5.5044809,4.1360057-6.8401083-2.144924,1.8601998-2.6321125,5.1144345-3.587479,7.6541957-1.9976309,7.2539815-3.5058052,15.0914527-1.7173917,22.5365075,1.5871979,5.3701333,5.7591604,9.4598614,7.9859875,14.5425183,7.5965781,14.7328016,2.8207139,28.7655278-6.0148846,41.5462371Z" fill="#423b30" stroke-width="0"/>
      <path d="m130.7902484,102.3401329c-.5885099-10.6230692-.3674428-20.369668-9.3644012-27.7194664-5.1231753-3.8374186-11.1502409-6.2602882-16.3158712-10.0496454-6.9334279-5.0452603-12.4408903-11.9080741-17.3790828-18.7785584,5.6393127,6.3841495,11.4661502,12.8170994,18.7588917,17.3758719,5.1137273,3.2670146,10.8821891,5.3790652,15.9208874,8.7614169,10.9893397,8.2837209,11.2637177,18.0091431,8.3795761,30.4103815Z" fill="#423b30" stroke-width="0"/>
      <path d="m137.3975419,163.0186739c1.8041112-7.2565553,4.4097721-14.7156004,4.6646044-22.1904961-.006855-14.4295766-12.6544144-16.4702741-12.2421721-37.7461515.2372999-3.3651887.5418246-6.9904594,1.7157353-10.1051989-.8279503,3.6666809-.8917349,7.5205871-.6783128,11.2632081.4048777,5.0941753,1.8745978,10.1729843,4.1915336,14.7109625,1.770881,3.4063951,4.2408182,6.1730591,6.3015711,9.3713071,7.5347048,11.1117867,2.1182175,24.3374333-3.9529596,34.6963687Z" fill="#423b30" stroke-width="0"/>
      <path d="m145.8853452,218.5788305c-1.1804854-3.0972325-2.0846306-6.3284559-3.7041922-9.2383611-3.1870354-5.145677-6.0095587-10.6241904-7.4126147-16.5465964-2.3267978-11.0088344-1.3146292-24.9919447,4.4593115-34.8170064.828511-1.4123829,1.8396858-2.7138627,2.87377-3.9793857-1.1288564,1.7477168-2.2695115,3.6676493-3.1495751,5.6219077-4.2007331,10.3812333-4.3322775,24.8293107-.7286422,35.4022544,1.6206828,4.9867125,4.727497,9.2977625,6.5986291,14.1630729.9448674,3.0077609,1.0755709,6.3168865,1.0633135,9.3941146Z" fill="#423b30" stroke-width="0"/>
      <path d="m155.2160831,241.0425579c-1.4834811-2.379013-2.3695077-7.0550594-5.8649668-6.8722681-3.4522904.2166075-8.6030895,6.8548121-11.5208691,4.7066008-.7990269-.7138619-.7702053-1.8846637-.3425711-2.7889108.7097336-1.7104603,1.4934196-3.3773697,2.1907428-5.0258038,1.8366788-4.6867239,6.8572585-15.1757003,3.9855017-19.6919668-.0307583.0104226-.0604208.0221704-.0913319.0341985-.0607011.0460227-.1023916.2820739-.1515743.2686188.022833-.1043793.0326185-.2446391.1011175-.3261854.1239505-.1500453.2479009-.045666.398303.0097346,3.7470805,5.7036324-.3699147,16.7626433-2.2685432,22.8464601,8.0337685-6.8940308,14.4351574-3.6539393,13.5641914,6.8395222Z" fill="#423b30" stroke-width="0"/>
    </g>
  </g>
</svg>