<?xml version="1.0" encoding="UTF-8"?>
<svg id="Layer_2" data-name="Layer 2" xmlns="http://www.w3.org/2000/svg" viewBox="0 0 140.1998235 140.0154985">
  <g id="Layer_1-2" data-name="Layer 1">
    <path d="m96.2415372,65.9073064c.2105574-.2364597.3950653-.4462661.5823607-.6535475.6792085-.751595,1.5107971-1.296765,2.4388333-1.6697619.4458298-.1791765.9465197-.2584225,1.4295865-.3011136,1.1516071-.1018167,2.2900726.0147646,3.4247796.2527046.9199383.1929107,1.8106018.4757897,2.6853149.797666,1.04772.3855643,2.0567743.8634216,3.0043931,1.4713378.8191307.5254603,1.6260218,1.0553822,2.289537,1.7777025.4514764.4914804.8860825.9918862,1.269179,1.5436691.234805.3382211.4458265.6834403.6453378,1.0410197.5207497.9332349.8014814,1.943215.9821979,2.9987345.4375072.0194367.8760906.043718,1.3150194.0575021,1.2496196.0392226,2.3614292.4762639,3.3778318,1.1771053,1.2948327.892855,2.417661,1.9729027,3.4252919,3.1772558.3942387.4712327.759313.9653348,1.1394961,1.4456661.7633448.9644134,1.3103431,2.0460661,1.8362735,3.1382768.3029755.6292106.4607662,1.324139.5335656,2.0245728.1546487,1.4876924-.1673282,2.8897683-.7499623,4.2549653-.2307745.5407066-.4787326,1.0682436-.7593583,1.582954-.7953816,1.4589612-1.7800668,2.7763458-2.9589567,3.9467682-.589134.5848931-1.1901931,1.1577669-1.7806655,1.7310437.291964-.094315.596511-.1783226.8905286-.2900681,1.6065811-.6105886,3.2508691-.8414173,4.9643842-.5851627,1.4746103.2205507,2.81591.7603965,4.0063841,1.637984.7193303.5302877,1.3470549,1.168871,1.8823542,1.9022407.2117977.2901608.3875474.5931643.5727563.8951475.1013003.1651599.1599312.3513266.3351385.4788568.1049498.0763887.1836378.2372328.2049215.371127.0668166.4204619.3307079.7500874.478448,1.1306095.2480854.6389175.4703563,1.2900584.6257172,1.9569061.2467807,1.05925.3640076,2.1393123.369124,3.2268395.0056527,1.2033761-.0726151,2.3976313-.3210786,3.5840855-.1817273.8677138-.4228582,1.718257-.761395,2.5251715-.422528,1.0072032-.9800211,1.9549873-1.7209165,2.7770032-.0472567.052455-.0863131.1123163-.130524.1705117,1.0143904.4967288,1.9772011,1.0809602,2.9195381,1.7009887.7224657.4753569,1.4058702.9974014,1.9890578,1.6400078.3055218.3366429.6006311.6808018.8843552,1.0384767.6148646.7751581,1.1035844,1.6204661,1.524432,2.506562.2872237.6047701.4860797,1.2446432.6718081,1.8907055.3531927,1.2285695.4607027,2.4805538.4409507,3.7485403-.0135911.8727005-.1381997,1.7293247-.3669466,2.5759415-.4670228,1.7285479-1.2969704,3.273173-2.3897156,4.6707732-.548017.7008764-1.2021084,1.3138153-1.8939683,1.8890977-.9060013.7533392-1.9511706,1.2524152-2.987327,1.7705045-.3568308.1784273-.7727536.2343367-1.1487783.379618-.839657.3244364-1.7135644.4940026-2.5999532.6088119-1.2812098.1659493-2.5582042.1469975-3.8389858-.049372-.9996853-.1532851-1.9593552-.4395402-2.90562-.7735775-.9058766-.3197633-1.7703435-.7448898-2.5892-1.2440661-1.0827087-.6600197-2.1080671-1.4020875-2.9790583-2.3378054-.4303559-.4623293-.8325921-.9445279-1.2182632-1.4461976-.3092032-.4022159-.498696-.8676614-.7888865-1.2693613-.2315681-.3205801-.5057869-.6344559-.5936755-1.0045018-.1420967-.5982799-.4919456-1.0966847-.6846965-1.6723647-.2681915-.8010269-.4628531-1.6182864-.699361-2.4254636-.0181936-.0621028-.0139264-.1307986-.024105-.2389962-.3321862.2611441-.6313068.4910917-.9246111.7282416-.3428277.277206-.6825017.559501-1.0716667.7701587-.4281055.2317345-.8637971.4494305-1.2946779.6760878-.7720639.4061153-1.6025145.6548945-2.4416331.8627144-1.2563775.3111436-2.5357002.3896702-3.8177738.194881-.8432825-.128125-1.6710237-.3038037-2.4788673-.6244082-1.0336722-.410232-1.9881666-.9400856-2.8776989-1.588597-.5093853-.3713703-.9656521-.815709-1.4447289-1.2284692-.1060348-.0913526-.2074421-.1881051-.3367563-.3058331-.2297229.2293682-.4507537.4478276-.6693055.6687342-.509524.5150116-1.0426868.9970903-1.6980121,1.3285397-.1702652.086135-.3123884.2273958-.469339.3407131-.0433724.0313029-.0921973.0729162-.1408444.0762934-.4933637.0342167-.8643319.3851982-1.3406444.4968364-.5281977.1238016-1.0502327.2528241-1.5900296.3252957-1.0109606.1357394-1.9988346.0587755-2.9958997-.1528201-1.0620377-.225348-2.0277819-.660005-2.9566086-1.1913457-.9969453-.5703148-1.9231341-1.2402077-2.7894707-2.0000458-.7004704-.6143616-1.3251148-1.2969637-1.9444838-1.9865534-.2104643-.234324-.3819974-.5039233-.5680026-.7598301-.1555289-.2139803-.3112733-.4281313-.4575579-.6484244-.1367195-.2058847-.1917738-.4687997-.4279622-.6043128-.2614885-.5865953-.6954147-1.092119-.8169169-1.7455391-.0159191-.0856482-.0686608-.1662244-.1124297-.2446349-.2613982-.4683555-.3999046-.9798737-.532692-1.4939352-.007666-.0296891-.0442826-.0518953-.0541888-.0628955-.4479019.5047802-.8825801,1.0248197-1.3504912,1.5130021-.4238989.4422688-.8954935.8301598-1.3879284,1.2034039-.653236.4951004-1.3836444.8332431-2.1087667,1.1716878-.4662988.2176586-.9921744.3322871-1.5039145.4619388-1.2766026.3234221-2.5704426.3557843-3.8693729.3374801-.8498244-.0119734-1.697845-.088964-2.5260291-.3047444-.4851314-.126407-.9733969-.2419679-1.4548116-.3812066-1.1203219-.3240333-2.13481-.8680706-3.1242617-1.4779559-1.2122776-.7472433-2.1961552-1.742968-3.1347084-2.7886088-.2692462-.2999814-.4497799-.6791058-.6753203-1.0190647-.1071613-.1615302-.2384667-.3083561-.3338533-.4760714-.1315873-.2313634-.2445673-.4738509-.3553774-.7162167-.0508223-.1111576-.0604691-.24253-.1178167-.3491168-.4150243-.7713596-.5985598-1.616814-.7779533-2.4600014-.3790394-1.781426-.313716-3.5667831.0168256-5.3468894.1041427-.5608831.2473559-1.1145039.3707129-1.6718791.0143816-.0649651.0160939-.1327337.0270616-.2289448-2.4770794.0908886-4.6939697-.581133-6.637938-2.0748125-1.9126564-1.4696218-3.2752219-3.3224871-3.7990334-5.8232268-.2898833.3626793-.5122607.6275311-.7199816.9034279-.5188798.6891874-1.1083488,1.3154058-1.7473457,1.8897628-.2866833.2576756-.6350087.452209-.9715235.6475807-.3894483.2261251-.8003067.4150016-1.1954403.6317866-.8156878.4475092-1.7070378.6621194-2.6095947.8156075-1.5595601.2652266-3.1176565.227491-4.6715804-.0913011-1.6069529-.3296761-3.1482452-.8471123-4.5435426-1.7084421-1.0338161-.63817-1.9592411-1.4255337-2.7520038-2.365941-.4681353-.5553196-.9358305-1.1008856-1.2734904-1.7496972-.1129891-.2171059-.2985137-.3957844-.4177372-.6104361-.3372456-.6071764-.5241812-1.2771017-.7814257-1.9176489-.3909954-.9735731-.5528741-1.9943917-.676185-3.0162621-.1025965-.8501991-.1311707-1.7124503-.0793587-2.5772753.0464842-.7758953.0930354-1.5498304.1833686-2.322185.1031539-.881939.2208821-1.7612616.4426631-2.6215546.1880499-.7294236.3695446-1.4636777.6169995-2.1738247.2858146-.8202137.6780731-1.5981134,1.1337829-2.3407449.0549724-.0895951.1119045-.1779988.1684483-.2677787-1.7391263-.3763739-3.1846747-1.2602759-4.5242203-2.3691086-.8144796-.6742086-1.5400668-1.4349266-2.2152168-2.234531-.4284781-.5074572-.8469523-1.0451234-1.1453986-1.6577003-.1386718-.2846326-.2426839-.6019908-.5159583-.8045847-.0087054-.3400959-.2201249-.6002528-.3601981-.8857048-.3206985-.6535337-.5064399-1.3497178-.7231909-2.0404595-.3853418-1.2280505-.5619147-2.4900588-.6747813-3.7579634-.1017479-1.1429035-.0282045-2.293267.1707978-3.4276975.0923435-.5264125.1837264-1.0585636.3447898-1.5661385.2964322-.9341829.6846265-1.8342551,1.1872238-2.6799481.5250044-.8834116,1.1554545-1.6840151,1.9123734-2.3802018.334447-.307625.6966339-.5881133,1.0356061-.8863531.4521501-.3978224,1.053383-.5307657,1.4793056-.9468791.7885915-.3024266,1.5339974-.7161127,2.3700062-.896856.9810866-.2120956,2.209957-.2719983,3.3215481-.1290045-.1514214-.129773-.2442259-.2251424-.351765-.2990674-1.3905478-.955914-2.6824173-2.0301675-3.8607293-3.2377739-.6947811-.7120475-1.4057324-1.4081717-1.9920564-2.2216933-.4193547-.581843-.8946409-1.1233557-1.3441422-1.6835306-.0223099-.0278029-.0362753-.0622172-.0549563-.0930468-.3047317-.502901-.5732489-1.0327485-.9224418-1.5026189-.6162988-.8292712-1.001164-1.7803215-1.4895079-2.6762775-.1598759-.2933248-.2509248-.6238846-.3770818-.9359457-.1259494-.3115475-.3182403-.5855898-.3844101-.9351221-.0679589-.3589526-.2683256-.691246-.3931516-1.0414731-.1236232-.3468703-.2308019-.6999357-.3348873-1.0533224-.084802-.2878869-.2531595-.5362141-.3106489-.8457651-.0665933-.3586171-.2944902-.6844607-.3893044-1.0412897-.149038-.5609247-.38767-1.0897189-.5367018-1.6522771-.1115345-.4209936-.2916429-.8280907-.3802403-1.2605999-.0244352-.1192609-.0512723-.2381879-.0705789-.358308-.1146289-.7130424.0260779-.9906607.6741588-1.3275646.169909.0181821.3457771.0370012.5165473.0552788.2632235.091408.3914947.3016729.506587.5297329.2762173.5473104.5973856,1.0755389.830737,1.6402585.9159873,2.2167248,2.2292601,4.2350673,3.2024643,6.4176529.7777534,1.7442655,1.7090767,3.4042738,2.5679569,5.1035956.3029796.5994693.6787977,1.1626464,1.1038254,1.6881118.0223996.0276892.0378625.0613617.0544295.0933507.2618283.5054565.6334427.9339011.9602119,1.3946382.6605284.931319,1.4359587,1.7581983,2.2091354,2.5909769.8808743.9487772,1.8545492,1.7935876,2.8549601,2.6103454.2172954.177411.4344603.3549717.6724096.5493896.289522-.8516508.4542946-1.7077825.5596176-2.5725449.1664444-1.36658.1936407-2.7421579.1817696-4.1172653-.018481-2.1403691-.2058019-4.2664433-.4921703-6.3888186-.2130717-1.5792038-.5164861-3.1354718-.8457001-4.6928529-.2063933-.9763931-.4726879-1.9351685-.7083783-2.9021119-.1370589-.5622955-.4018782-1.0922467-.5842184-1.6449955-.2395942-.7262807-.5743386-1.4148271-.8388755-2.1268367-.2965749-.7982349-.6908601-1.5393592-1.1132303-2.262322-.2640551-.4519846-.5512092-.9018941-.8741329-1.3271357-.3083761-.4060779-.5823999-.8426819-.9181395-1.2298124-.4103395-.473163-.8061729-.9623141-1.3207037-1.3826398-.0744382.091671-.1481298.1593781-.1939424.2424549-.3968758.7197142-.9717867,1.2689578-1.5988373,1.7906823-.4096404.3408358-.860772.5994262-1.3362572.7774187-.7765543.2906931-1.6021638.3837058-2.4347696.2709667-1.6070383-.217598-3.0222069-.82573-4.166167-2.0153975-.4399853-.457558-.7282111-.9990754-1.0277495-1.5439793-.307574-.5595348-.4306819-1.1514204-.4299245-1.7833237.0012221-1.0240585.3280778-1.9183196,1.0461073-2.6523427.4085361-.417639.8563333-.8106213,1.4031375-1.0220461.7017676-.2713389,1.431576-.4636782,2.1934967-.5027817,1.0589938-.054355,2.085145.0961009,3.0995102.404399.8902741.2705829,1.7342426.630421,2.5774077,1.1620291-.0034061-.2354679-.0020126-.4249492-.0095899-.6140738-.0365681-.9131975-.1695683-1.8097269-.446302-2.6840822-.1638309-.5176276-.303682-1.0428059-.4612294-1.5624927-.0309444-.1020956-.0920851-.1953681-.1418799-.2913718-.3320836-.6402747-.6643238-1.2804643-.9975665-1.9201341-.361713-.6943104-.8513409-1.2952438-1.3328677-1.9091663-.896632-1.1431522-1.968181-2.0874391-3.1419186-2.9217512-.708071-.5033073-1.4833238-.8927816-2.2754921-1.2558599-1.6417321-.75246-3.3751959-1.232424-5.0952622-1.74619-1.1247503-.3359514-2.2844927-.5501683-3.4535952-.6851743-.3314987-.0382878-.6692162-.0227782-1.0358303-.0328081-.4448873.4762754-.6005456,1.1677551-1.0600766,1.6981891-.1293526-.1060395-.2673328-.1720413-.3337266-.2814787C.2718363,3.5188561.0232374,2.9288911.0008829,2.2403552-.0308365,1.2633861.7967627.2875211,1.7404897.1248831c.9662155-.1665162,1.925846-.1466762,2.8891478-.0557018,1.222894.1154889,2.4225561.3621536,3.6202208.637046,1.1085732.2544434,2.1925384.5889804,3.2505601.9848312,1.3954784.5221176,2.7049061,1.225755,3.8897781,2.1517143,1.0806262.8444848,2.0699739,1.773726,2.9185814,2.8531394.2811134.3575647.6086395.679282.8814241,1.0425585.2554611.3401934.4891773.7013914.6925395,1.0750733.4395081.8075768.8738634,1.6193435,1.2691468,2.4490152.1953342.4099926.3324152.8507442.4718892,1.2882113.1334729.4186624.2755756.8331219.379784,1.2611537.2657142,1.091452.4551989,2.1936181.4684028,3.3193432.0091011.7763751.0390255,1.5532695-.0702081,2.3279641-.0316666.2246147.0455267.4113044.2492118.5961085.843166.7649951,1.5751982,1.6397984,2.3011649,2.5138602.394361.4748018.6894582,1.0308299,1.0678033,1.5204921.3980997.5152435.6335473,1.1229567.9952992,1.6509531.2743377.4004037.5203551.8105752.7302824,1.2430242.1545297.3183491.2596422.660374.406605.9828085.1419434.3114267.3411695.5995297.4587181.9186969.2327466.631927.5061739,1.2503434.7238009,1.8834996.2500294.7274513.5083829,1.4555782.7115492,2.2030579.2158357.7940842.4241527,1.5883541.6158554,2.3888218.2770231,1.1568052.4979508,2.3238624.6659466,3.4992393.1979713,1.385019.3625015,2.7747131.4702396,4.1711878.1080529,1.4004425.2117758,2.7999738.1924648,4.2058487-.0006351.046186.0272575.0927619.0604405.198245.8287125-1.354024,1.9175631-2.393636,3.2459877-3.137788,1.3326168-.7464966,2.8229411-1.0259005,4.398496-1.1385661-.1490848-.3053071-.2215614-.5548632-.4415555-.7358876-.0913579-.0751743-.1457679-.2007978-.2033242-.3106334-.4100772-.7826131-.8408612-1.5557194-1.2157195-2.3549868-.2465516-.5257015-.4517763-1.0789395-.602928-1.6394197-.2680732-.994047-.4822313-2.0033383-.6128478-3.0263734-.1924872-1.5077258-.2383901-3.0232453.0151982-4.5232535.2534443-1.4992261.863555-2.8424719,1.9963545-3.9091161.4243596-.3995858.8483894-.7933089,1.3750093-1.0590155.4345983-.2192824.8650004-.4468742,1.2969463-.6713982.570225-.2964048,1.19186-.4247014,1.8172597-.5108612.8585738-.1182794,1.7225767-.1298209,2.5775243.0498753.3323303.06985.6589782.1665107.9886554.2492048,1.8482439.4636216,3.3501808,1.4992442,4.6588095,2.8427754.403623.4143909.73733.8901811,1.089174,1.3507667.5291641.6926858.8466533,1.4946198,1.2722352,2.2397255.033534.0587079.0739491.1134861.135347.2068667.4250001-.5608083.9103972-1.0094401,1.4213286-1.4299664.2575164-.211959.5286701-.408293.8019411-.5998701.2021975-.1417467.4287182-.2327604.6163612-.4159921.1692688-.1653206.4378468-.2319263.6671633-.3316748.1451497-.0631239.3058797-.0924353.4471211-.1622133.9585026-.4735528,1.9842823-.6985293,3.0358707-.8199778,1.520199-.1755867,2.9812418.099188,4.3861156.6624467.82456.3306151,1.5460177.8469625,2.2380495,1.4057667.4821805.3893493.8561527.8758001,1.2771455,1.3199311.0718945.0758382.1079518.1863024.1579286.2821407.2667796.5115828.5498933,1.0156136.7927553,1.5383438.1533669.3300941.2461612.6883349.3803712,1.0749876.1562791-.1058364.3261775-.2208945.5618467-.3804933.0011645-.0001368.1019191.0141842.1724601-.025394.6051072-.3394631,1.2861876-.3497283,1.9433704-.4350072,1.0678753-.1385641,2.1456939-.1059353,3.2141114-.0103294,1.2175921.1089606,2.4055713.3996205,3.5384828.8587656,2.1075394.8541709,3.9427737,2.131583,5.5061582,3.7737568.5277557.5543404,1.0373432,1.1390652,1.466069,1.7905783.2893236.439699.6056454.8667598.9139688,1.2955027.2942907.4092666.4891158.8762333.7879139,1.2691229.2966489.3900176.5250698.809321.7336303,1.2413607.269093.5574409.4665797,1.1456869.684635,1.7253913.2554692.6791825.427176,1.3760201.5623207,2.079618.3524092,1.8344655.31706,3.6788712-.0116476,5.5113976-.1610877.898001-.3889913,1.7864765-.8021007,2.6131139-.0558281.1117324-.083589.2374935-.1291815.3709901.3163134.1994692.6155868.4134903.9371381.5859667.7972833.4276581,1.3506078,1.1086758,1.889539,1.7998313.4020493.515638.769519,1.0564711,1.1191309,1.6128027.2168014.3449965.3981498.7200345.6480179,1.0375858.494436.6284057.7907851,1.3613281,1.1690199,2.0505794.3690487.6725093.6338815,1.3899815.8693047,2.1190909.1173499.3634588.2538293.7207325.4034371,1.1421635Zm-3.1316841,40.7289501c.0399475.0526915.0798829.1053744.1198184.1580573.0172877-.0208296.0345692-.041671.0518569-.0625006l-.1776643-.0770764c-.0598575-.1094796-.0988797-.2395947-.1832823-.324752-.3126358-.3153887-.5776416-.6607073-.774865-1.0601365-.2798007-.566662-.625153-1.1014405-.822996-1.7661679-.2856406.2067068-.5330021.4026559-.7972923.5722459-.2659038.1706379-.5705483.2791128-.8324185.4636571.0441509.06246.0579964.1054156.0854297.1174961,1.0700291.4714614,2.0482197,1.0948724,2.9840553,1.7901486.1047663.0778389.2310496.1267225.347358.1890285Zm1.1242288,1.0141981c-.0405515-.0516776-.0810912-.1033612-.1216488-.1550505-.015216.0225509-.0304499.0450962-.0456777.0676532.0572441.024696.1144766.049398.171709.0741001.2965061.4142406.5591554.8597023.9018827,1.2313169.2148736.2329979.327489.5057642.4924546.7563287.1751262.266003.3670864.5222957.524122.7984842.202118.355464.3351642.7450595.4978236,1.1184008.2979685.6838348.5826714,1.3670968.8178949,2.0765906.2870905.8658595.4851849,1.7490298.6684679,2.6394737.2241357,1.088956.2639401,2.1885861.241602,3.2939988-.0172096.8522655-.134002,1.6927343-.3227839,2.5224758-.118866.5224933-.2593971,1.040059-.3995398,1.5969062.1254911.1493147.2878942.2943447.3899953.4736934.2388701.4195994.5767878.7514186.9132482,1.0826114,1.0922372,1.0751334,2.3439552,1.8688706,3.8694137,2.1878361.8031245.1679392,1.608765.2077668,2.4180615.1088101.4852748-.0593384.9576005-.1742474,1.4245982-.3487365.6136226-.2292539,1.2443544-.4135429,1.8193918-.7339089.2143034-.1193921.3925515-.304771.6089914-.4187685.4113287-.2166197.7517586-.5154913,1.1018579-.8151798,1.3549302-1.159915,2.2372486-2.6253639,2.8218304-4.2858247.1239461-.3521203.1777722-.7284168.274617-1.090706.1891852-.7078234.2591306-1.4338772.2580755-2.1590986-.0013899-.9639433-.0543245-1.9283766-.1051299-2.8915504-.0779911-1.4779941-.4136035-2.9071568-.9201812-4.2908522-.2570386-.7020606-.607358-1.369991-.9070691-2.0346811-.2761814-.135834-.4314077-.3390587-.5672505-.580491-.1458454-.2591714-.3389607-.4928435-.523321-.7283457-.0374595-.0478519-.1277884-.0543239-.1847541-.0763955-.1991338.1432571-.371446.3002379-.5710863.4053172-1.0573262.5565265-2.1026108,1.1286445-3.2609198,1.4794393-.722535.2188269-1.4459569.4133114-2.1854046.5482576-1.1759378.2145676-2.3618056.2723918-3.5578702.2297102-.8536713-.0304434-1.702124-.1177947-2.5230986-.3205467-1.126705-.2782216-2.2352433-.636226-3.2150024-1.2995701-.255511-.172999-.5361758-.3088083-.8052997-.4616983Zm-63.0102451-30.883631c-.1689428.1497492-.3439195.2932801-.5057471.4503674-.5934725.5760956-1.1928637,1.1432035-1.9276085,1.543527-.0904352.0492875-.1536278.1484518-.2439879.1979981-.3597448.1972805-.7218601.3909631-1.0901943.5715038-.1568355.076878-.3299242.1219983-.497838.1744761-.1669323.0521607-.3468058.0742799-.502085.1489264-.1379356.0663163-.2536248.1822498-.3727079.2838177-.3991767.3404729-.6327171.80217-.8584788,1.2562249-.3083093.6200718-.5714438,1.262431-.708836,1.94867-.1223857.6112566-.2901886,1.2153144-.3787231,1.8310697-.203442,1.4150305-.2594626,2.8381714-.1165051,4.2645694.0488277.4872217.0836074.976645.1546434,1.4606805.1217857.8298839.2736437,1.6507636.5213653,2.4593055.2226386.7266711.4288744,1.4542227.7698724,2.1352578.3345223.6680864.7135928,1.2999183,1.1998812,1.881511.5204784.622473,1.0509509,1.2242483,1.6984797,1.7108006,1.3281903.9979867,2.8373856,1.5396094,4.4822572,1.7069004.8412818.0855583,1.6827592.0703111,2.5079386-.1425103.3745967-.0965984.7374045-.2773163,1.1020915-.3545859.7037046-.1491057,1.1565711-.6883294,1.7673719-.9642042.6537391-.6551275,1.348954-1.2628249,1.9727333-1.9553089,1.0182403-1.1303961,1.9416047-2.3227245,2.7758017-3.5904808.3029185-.4603679.5418688-.9528766.7740684-1.4495186.1080908-.2312054.1319729-.4749476.0739027-.7284922-.0895292-.3909144-.1536675-.7882413-.2575836-1.1750583-.0805151-.2996939-.2053933-.5874751-.3004098-.8522977-.1139837-.0231088-.1687614-.0489018-.2192915-.0423043-1.0647375.1391724-2.1099421.0258703-3.1535155-.2014755-.5439643-.1185125-1.0625064-.2878505-1.5797176-.4927789-.6323093-.2505415-1.2194947-.5723191-1.7866713-.9378851-.6990822-.4505988-1.3264577-.990707-1.8828816-1.6057208-.5441851-.6014901-1.0729857-1.220929-1.4295558-1.9597433-.2944396-.6100981-.6855642-1.172548-.8524602-1.8468018-.0885445-.3577272-.3078438-.6846303-.3850469-1.043337-.264009-1.2266456-.5896219-2.4415508-.6583712-3.7074166-.0174288-.3210195.0475701-.6686845-.1089433-.9804296.0190392-.0280088.0380784-.0560175.0169009-.0248642.0001882-.0381447.0000201-.0042685-.000148.0296077Zm18.1435713-31.0408553c.3071879-.1132447.6003073-.1933619.867543-.3257377.5266324-.2608745,1.0905168-.4194769,1.6510714-.5544019,1.004053-.2416561,2.027685-.3669181,3.0689706-.358281,1.2620601.0104779,2.4614077.2414847,3.6258411.7443944,1.0460388.4517758,2.0149185,1.023061,2.9384381,1.6773774.8148234.5773085,1.5544267,1.2458722,2.2283809,1.982392.2832645.3095422.5354861.6482162.792251.981028.1598389.2071972.4014016.4151148.4317544.645687.0714947.5431562.4466329.8941356.7357568,1.2744676.4970359.6538371,1.0886387,1.2366368,1.6499932,1.8404802.5015696.539549.9820099,1.1044199,1.558293,1.5656768.4939682.3953807,1.0087763.759188,1.4479426,1.2236857.7556243.7992105,1.6445897,1.4423965,2.5849051,1.9997851,1.0900174.6461084,2.2326366,1.1842993,3.4631008,1.532271.8634586.2441786,1.7334768.3688912,2.625267.3511793,1.0036099-.0199263,1.971114-.2105664,2.930017-.527979.8104448-.2682895,1.5356121-.6589482,2.1829764-1.1904627.6590958-.5411311,1.107637-1.2648027,1.5273898-1.9949889.211685-.3682561.4356672-.7637008.5038759-1.1719632.0965758-.5779613.3132016-1.1177614.4198343-1.6915302.1688419-.9084517.2851298-1.8164143.2902563-2.7392989.0050635-.9119016-.076178-1.8167879-.1727744-2.7236017-.1063371-.9984007-.3540592-1.9617276-.6271326-2.9191241-.2116607-.7420147-.5928163-1.4167045-.9563308-2.0948024-.1362934-.2542325-.2518141-.5221375-.41112-.760907-.253608-.380146-.5282826-.7470695-.8083278-1.1085193-.2893652-.3734696-.5916473-.7371971-.8957142-1.0989465-.3742172-.4452244-.8250422-.8092732-1.2601889-1.1920935-1.1963624-1.0524904-2.6048205-1.680792-4.1367434-2.0110818-1.0535067-.2271508-2.1329258-.3412713-3.2046463-.4748211-.9800213-.1221257-1.96311-.2408467-2.9537615-.2210811-.3774294.0075295-.7548471.0809332-1.0707522-.0688133-.0464139,1.004214-.0613667,1.991004-.1450229,2.9719378-.1082602,1.2695077-.4234865,2.4869194-1.0819658,3.5980597-.2252791.3801593-.40613.7870516-.6376109,1.1630452-.6651178,1.0803212-1.3617223,2.1339733-2.2671097,3.0424037-.3490953.35027-.7192233.6330656-1.1624825.8203887-.4992076.210965-.9984535.2027806-1.4630431-.1147207-.1602467-.1095045-.3136506-.229008-.4659116-.340791-.1122865-.2158411-.2397872-.4161967-.3239573-.6333398-.1218575-.3143425-.2005643-.6191459.0308247-.952102.1809405-.2603645.3334262-.5320399.5584432-.7671485.1920015-.2006106.3266797-.4634166.4550328-.714885.0779264-.1526774.0710179-.3477144.1446919-.5036436.2877203-.6089365.5864613-1.2128867.8919485-1.8131704.666382-1.309416,1.3651934-2.603172,1.9963062-3.9292421.2348642-.4934946.3487143-1.0528174.4627095-1.5937171.1821769-.8643597.0351567-1.7253786-.2505574-2.5353044-.3377211-.9573453-.9678874-1.7342426-1.8391308-2.2749643-.5873606-.3645272-1.2190024-.6382545-1.904017-.792296-.9353323-.2103388-1.8413226-.1608825-2.756794.1233949-.3616082.1122929-.6825946.3198417-1.0378815.4047347-.2887727.0689975-.5852869.1527343-.7726836.3376988-.3361594.3317787-.7773891.4817634-1.1359245.7788581-.5056393.4189939-.9518457.881086-1.3655806,1.3800394-.5992601.7226735-.9425668,1.5851831-1.2558299,2.4536437-.3400489.9427223-.5373444,1.9251347-.631992,2.9213149-.0816877.8597545-.1134733,1.7243968-.1605024,2.5872398-.022373.410442-.0426981.8220444-.2117896,1.2028465-.4147579.9340797-1.3799526,1.0917544-2.0802846.4503137-.2768664-.2535858-.4084267-.5684637-.5043828-.9157397-.1302635-.4714618-.1129427-.9870586-.4286061-1.3902165.015055-.2476885.0214829-.478219.0442622-.7071246.1156322-1.1618971.2849367-2.3203019.208767-3.4938269-.0090959-.1401154-.0104139-.2822077.0013285-.4219752.0709581-.8449494.1665103-1.6883559.2155385-2.5344921.0516286-.8911487-.0853193-1.7551147-.5156085-2.5542574-.1429732-.2655415-.3276609-.5063522-.4867015-.756932-.2884533-.4544817-.6459107-.833448-1.0226118-1.200639-.9245201-.9012007-1.9534899-1.6425548-3.2274607-1.9671227-.5651467-.1439764-1.1392137-.2152656-1.730789-.1433039-.768683.0935019-2.0359239.7398511-2.6159068,1.2425128-.5527852.4790885-.9209973,1.0836488-1.1081368,1.774284-.2417264.8921119-.2902204,1.8176185-.2709938,2.7382631.0255952,1.2255695.1658121,2.4420476.4211338,3.6427215.1645699.7738972.3133191,1.5530992.6889317,2.2635532.2359488.4462802.4643469.896548.6997393,1.3431324.2817392.5345148.6763932.9806459,1.0818964,1.4245794.9979673,1.0925378,2.2456606,1.8697956,3.4308243,2.7201758.4797788.3442517,1.0319531.6209235,1.6688635.6529914.3009637.015151.5861184.157416.8336609.4228326Zm-3.4027807,9.2642428c-.1019397-.2546776-.2439822-.5621594-.3491118-.88178-.2360984-.7178153-.1943695-1.4565249-.134058-2.1953881.0980528-1.2010119.3452796-2.3598081.9572674-3.4157203.1390511-.2399049.2931405-.4711073.4760866-.7634901-1.7787145-.4841526-3.3604327-1.3098629-4.8950002-2.3436887-.3409551.0676109-.7190988.1322211-1.0920843.2189666-.5782813.134477-1.1607302.2590254-1.7274882.4331103-.8421804.2586853-1.7004086.4573748-2.4926507.8851311-.7835857.4230893-1.4031982,1.0016101-1.9361805,1.6890597-.4027862.5195129-.7013455,1.0981703-.9710072,1.702469-.3247921.7278467-.5527037,1.4840744-.7521471,2.2452711-.1919456.7325669-.2875988,1.489451-.2609806,2.2581871.0303639.8767741.0921854,1.7414114.2828977,2.6057696.1426078.6463113.1520715,1.3172083.3692398,1.9601577.1764721.5224519.5026728.9301105.8170731,1.3563397.351549.122762.5230859.4597656.7998548.671209.1259564.0962344.2479037.2091597.3906651.269771.394687.1675778.7968862.3186448,1.2014072.4612533.1485335.0523604.3113624.0658475.4685617.09168,1.2099963.198832,2.3463149-.0599404,3.430716-.5825524.2839324-.1368411.5232669-.3634453.7995842-.5196322.310703-.1756163.5764702-.4038972.826639-.6488969.5992574-.5868544,1.1727558-1.2005437,1.7828599-1.7755918.3398433-.320333.6138439-.6699706.8110056-1.0921297.1444555-.3093337.3879316-.5412414.6953054-.7211108.0315478-.0926248.0503196-.2042704.1043237-.2949399.1272157-.2135743.2797057-.435116.5295475-.4898009,1.0504023-.2299323,1.7712382.8096421,1.5392163,1.5357751-.1136372.3556381-.2461512.7052406-.4112985,1.1746153.1207076.2795068.2745625.6746019.4619537,1.0530993.0921465.1861278.2682856.3295727.3683065.5131077.2645675.4854659.6336449.8837493,1.0092545,1.2793639.7070763.7447253,1.5011912,1.3814765,2.3747209,1.9199963,1.5942058.9828055,3.2995268,1.6843413,5.140468,2.0529489,1.5614904.3126598,3.0525939.1576138,4.4672512-.6056124.1999382-.1078694.4243437-.170381.6374242-.2538892.1781265-.1423557.36594-.2757782.5697752-.3769579.7772631-.3858327,1.3626468-.9927448,1.8981335-1.6505967.6378216-.7835577,1.0050248-1.699568,1.2585828-2.6696744.2082866-.7969136.2717841-1.5980367.154265-2.414396-.1021594-.7096213-.1919195-1.4139388-.4599464-2.0954097-.2060838-.5239527-.3279107-1.0836985-.6060363-1.5804161-.4544502-.8116154-.8313574-1.6614269-1.3598454-2.4391412-.3573703-.5258987-.7006928-1.0698398-1.1044716-1.5535585-.7065979-.8464894-1.5284526-1.5918829-2.4692616-2.1754189-.4940081-.3064104-1.0361103-.5492403-1.5808413-.756914-1.0443303-.3981515-2.1378042-.4909803-3.247005-.393247-.9698216.0854621-1.9102157.2862591-2.7794691.7492552-.3341531.1779894-.6681467.3567147-1.0074006.5245986-.3373666.1669615-.5993918.4270473-.8762424.6712702-.6783505.5984031-1.1105206,1.368354-1.4740642,2.1739479-.2423872.5371152-.4393009,1.0992954-.6030853,1.6657171-.1068712.3695598-.1219729.7663333-.1701944,1.151915-.0256524.2050382.0269434.3751536.2117312.5090372.0914482.0662614.1676918.1933304.1919841.3056198.1085799.501814-.2811445,1.0042366-.7923455,1.1236774-.3987427.093155-.7315268.0371713-1.037398-.2299703-.1191526-.1040617-.2517806-.1927013-.4364875-.3323962Zm4.858013,11.9831974c-1.3523002-.7778206-2.6438733-1.6530911-3.7543702-2.7907693-.7344301-.7524031-1.378796-1.5565955-1.8575572-2.4921555-.0305427-.0596834-.0618353-.1189766-.1109016-.2132936-.1070137.0762023-.1842656.1154157-.241229.1742677-.4618817.4771921-1.6488723,1.3286281-2.1314226,1.5492326-.2073289.0947789-.4345797.1449098-.6475291.2286699-.396145.1558006-.7780217.3573442-1.1845767.4751761-.7707438.2233756-1.5503193.4368148-2.3541933.492864-.7236366.0504635-1.4534557.0295161-2.1563753-.1745402-.8055798-.2338598-1.5237951-.6387437-2.1717381-1.2451315.5599274,2.7304131.7078764,5.4284883.0560829,8.1041688.0498177.0526188.0802643.0847866.1152418.1217288-.4163654,1.0584285-.610143,2.1468237-.7157667,3.2534079-.0201859.211425-.0937974.4641769-.0094368.6300725.2146787.4221646.1672137.867382.1902578,1.299375.0833072,1.561863.4793282,3.0492785,1.0960913,4.4691578.4178194.9618666.9370525,1.8753298,1.6100285,2.7045538.5519088.680042,1.1684849,1.2615223,1.8960197,1.7347036.9648884.6275471,2.0248675.9474863,3.1758651.9309835.7883938-.0113114,1.5655423-.0830029,2.3344749-.311935.6611516-.1968463,1.30832-.4196561,1.937799-.6944985.3252286-.1419995.6056089-.3683765.9038138-.5584014.420126-.267707.8144276-.5561926,1.1856239-.884685.8633346-.7640085,1.5923263-1.6410446,2.1803057-2.6296337.3530664-.5936365.6657673-1.2069408.9351861-1.8497406.4270747-1.0189257.6613505-2.062829.6570918-3.1602266-.0054077-1.3925466-.3586278-2.7324954-.6758634-4.0734176-.2374681-1.0037156-.5564365-1.9879603-.8048439-2.9893795-.1123087-.4527604-.2603006-.9185205-.071329-1.4764351.1671624-.170128.3868469-.3937082.6132508-.624119Zm19.7773746,22.7391198c.1189715.1424633.2068058.2456217.2924299.3505702.2668155.3270472.4839806.6748321.3355112,1.1203446-.1390863.4173014-.0945075.8291734-.0386706,1.2538287.1251581.9518282.4469094,1.8494423.8303161,2.7098154.46338,1.0398289,1.0151162,2.0375782,1.7343852,2.9438399.6939451.8743395,1.4643348,1.6600921,2.3512067,2.3224638.8078811.6033715,1.6818539,1.1025197,2.6132562,1.511673.8782142.3857864,1.7918664.6077387,2.7220884.7906395.6082166.1195901,1.2251696.1390233,1.8430643.1799564,1.6574061.1098078,3.2566284-.1282312,4.7958306-.7210378.681475-.2624384,1.3379354-.6214408,1.8908741-1.1069739.8501259-.7464993,1.5630118-1.5955117,2.0306337-2.6585261.6182432-1.4053842.831785-2.8466761.6539404-4.3599537-.1446328-1.2306472-.50962-2.4115725-1.008589-3.5266232-.5450335-1.2179639-1.1577952-2.4112048-1.9979333-3.4784164-.4242602-.5389291-.8432722-1.0784446-1.3328617-1.5536111-.9529131-.9248563-1.9867544-1.7313095-3.210549-2.2973272-1.3985417-.6468449-2.8232959-.7295768-4.2956541-.3958053-.3070938.0696105-.6043527.189206-.899501.3030136-.2811104.1083955-.5988821.1855412-.8199543.3719826-.4097899.3455997-.9005623.5578116-1.3162353.8902139-.31709.2535735-.7136247.4125173-1.0135494.6818009-.488713.4387663-1.0824481.7219317-1.5783062,1.14911-.3060642.2636638-.7022908.421554-1.0142786.6797982-.2358766.1952597-.5017561.33392-.7419055.5128816-.4065697.3029521-.7909242.6359002-1.1820475.9593573-.5372781.4443044-1.0721643.8915182-1.643501,1.3669849Zm-13.9744598,16.3983775c-.0597804.3082433-.1047632.5708087-.1621661.8306346-.2074683.9389755-.2449309,1.8989376-.2156273,2.847481.0311547,1.0090241.2154732,2.0059308.5015558,2.9889637.2284981.7851408.5064554,1.5438965.8555952,2.2756112.2367496.4961708.4576716,1.0058609.8420624,1.4255671.2361497.2578548.3784696.6013855.6135641.8604889.6261171.6900692,1.317578,1.3029242,2.118959,1.7976137,1.226561.7571277,2.565542,1.1665084,3.9802461,1.301039,1.187954.1129897,2.3779801.0636026,3.5612207-.1707689.7350294-.1455856,1.4056258-.450528,2.097798-.7027351.2071043-.0754637.3643368-.277572.5636561-.3864593.7092182-.3874608,1.260602-.9562438,1.7615924-1.5667753,1.0263856-1.2508062,1.4910767-2.7381878,1.7217907-4.3123872.1846845-1.2601718.1994683-2.5241147.1005365-3.7933654-.1187991-1.5243124-.4990927-2.9749995-1.1698585-4.3481079-.2055838-.4208514-.4423528-.8265961-.6437252-1.2493257-.3077713-.6460704-.7100189-1.2283416-1.1718878-1.7688468-.5366928-.62807-1.1123182-1.2161742-1.8161974-1.665677-.4519658-.2886421-.9102975-.5767713-1.4424552-.6661782-.5201506-.0873754-1.0513451-.1296559-1.5791546-.1469135-1.5285487-.0499806-3.0477584.1340616-4.5709938.2174546-.1005104.0054946-.1977056.071408-.2735524.1004438-.2877377.620737-.5406514,1.2296553-.846524,1.8107103-.411211.7811341-.8916127,1.520904-1.486419,2.1804347-.4245184.4706553-.9041854.8911228-1.4236124,1.2367219-.5496517.3657149-1.1768104.6150825-1.7716447.9122042-.0272513.0136111-.0694686-.0027336-.1447586-.0078283Zm73.175375,11.2805014c-.6729158.4467682-1.2955895.9122423-1.9672364,1.2908472-.619876.3493944-1.2831927.628679-1.9466087.8900005-.2256042.0888546-.4613347.1842873-.6970096.2415922-.6266712.1524002-1.2584216.3074577-1.8974169.3803047-1.0721717.1222634-2.141648.115086-3.2053111-.1640413-.5199039-.1364115-1.0239532-.2942321-1.5244877-.4873946-.5989537-.2310978-1.1720905-.5000281-1.7001289-.8653421-.0767994-.0531279-.1673858-.0863094-.2759034-.1409662-.2028395,1.8378845-.6973266,3.5472662-1.3874524,5.1189776.0632581.4078121.1281558.7344939.160702,1.0643535.0273051.2764278-.0235687.5650453.0325899.8330879.0823922.3930788.1994702.7852346.3554346,1.1551507.2842808.6742658.5956734,1.3380004.9209192,1.9936499.1405685.2833705.353743.5297584.5156056.8037781.1648137.2790055.3070975.5713397.4593294.8577839.0084489.0158973.0163696.032382.0269279.0468394.2695626.3693745.5691787.7208514.8013655,1.1123646.263068.4435764.5788558.8427092.9029196,1.2370305.6024929.7331181,1.2815826,1.3875005,2.043436,1.9568572.7277778.543893,1.5200039.9588248,2.351587,1.3256346.7137926.314848,1.4517166.4842798,2.2089574.6043577,1.1032895.1749152,2.2025547.1550722,3.2986875-.0816258.7786541-.1681613,1.5377263-.3907056,2.2476702-.7539337.4269426-.2184299.8680935-.4095767,1.2320802-.7461323.2565934-.2372577.6027297-.3790051.8538842-.6205648.7842442-.7543148,1.5453721-1.5248468,2.1105384-2.4774565.5893355-.9933517,1.0633125-2.0244317,1.2031998-3.1716718.2157652-1.7694233-.0091684-3.466743-.8761654-5.0666916-.3756798-.6932976-.8220978-1.3296812-1.3028022-1.9409925-.3864342-.4914316-.8733326-.9023561-1.2887248-1.3727826-1.0713815-1.2133666-2.3645034-2.15127-3.656587-3.0230144Zm-56.8965962-50.2724466c.0121283.1514534.025083.2222741.0213851.2922072-.00374.070811-.0260957.1404381-.0366194.2111306-.16419,1.1023848.0555405,2.1347794.5591907,3.118783.349257.6823439.785122,1.3053393,1.2349934,1.924264.4338962.5969454.8979959,1.1654636,1.3916955,1.7113772.7373154.815301,1.5996276,1.4858117,2.5426443,2.0351994.7353703.4284156,1.5303872.7364126,2.3633894.9579346.7116285.1892305,1.4285841.2867327,2.1551475.3070884,1.547157.0433373,3.04315-.2820351,4.4538503-.8749883.9168522-.3853943,1.8316297-.8183343,2.6313717-1.4484744.4443881-.3501396.8633477-.7210554,1.2037246-1.1671289.5936259-.7779627.9376447-1.6518675,1.0336413-2.6407323.1095681-1.1285938.1024642-2.2405756-.158664-3.3479244-.1528841-.6483499-.2981404-1.2946009-.5371157-1.9222455-.2072499-.5443384-.3591393-1.1108442-.6251545-1.6324052-.5434826-1.0655934-1.0984425-2.120824-1.8292029-3.0803552-.4575252-.6007545-.9215406-1.1901452-1.4662479-1.7108185-.2464068-.2355164-.4227158-.5523875-.7305741-.697484-.3879745.3698335-.7627723.7109637-1.1188324,1.0706261-.4371195.4415535-.9394727.7995531-1.46787,1.1111244-.8908322.5252735-1.8559928.869636-2.8552599,1.1474075-.9530936.2649317-1.917332.3997469-2.8960882.4373984-.9734045.0374356-1.9394736-.0492564-2.8978339-.2533772-1.2682036-.270096-2.4911024-.6632809-3.6472326-1.2491646-1.299993-.6588003-2.4625482-1.5192671-3.5452251-2.4890227-.2952599-.2644734-.56813-.5539493-.9099274-.8895343.3182797,2.0387773-.2207082,3.8204928-1.0691534,5.5365458,1.5765351,1.1251435,3.0959282,2.3011402,4.2948815,3.8534272.1710277-.2820808.3168335-.5225667.4347674-.7170793l.5866353-.3051838c.2190569.0777411.4365244.154917.629879.2235331l.2538043.4878717Zm20.7006397,20.2460978c.1806275.2940639.3572633.5540112.5056225.8292047.2708036.5022612.5037227,1.0199879.7105602,1.5553771.2102519.5442134.3917614,1.0967392.5507226,1.6533428.1863713.652621.298441,1.3256577.36081,2.0059845.1005305,1.096505.0876133,2.1937263-.1771523,3.2588957-.3670257,1.4765185-.9211609,2.8874251-1.8027529,4.145297-.1984652.283171-.19827.5540497-.0706949.8490184.0910835.2106284.2451012.3941297.2362642.64736-.0026958.0775258.0704083.163216.121825.2359507.101286.1432966.2210162.2741395.316035.4211579.1340499.2073926.2736556.4090662.4185875.608758.5577254.7684074,1.2544965,1.3679739,2.041613,1.8778856.7189499.4657369,1.5257158.6941782,2.355039.8454956,1.187107.2166354,2.3868232.1817108,3.5733608.0371717,1.382578-.1684212,2.7305301-.5044255,3.9785862-1.1580608.5106389-.267435,1.0218058-.5339982,1.5287119-.8083795.1063794-.0575747.2031539-.1393931.2905875-.224228.2894229-.2809566.5991378-.5468323.8519996-.8583167.4009009-.4938028.7868382-1.0004859,1.0504128-1.5915014.2415125-.5415583.3194426-1.1290031.519149-1.6818943.1020474-.2825449.1520194-.5868618.2000926-.8854416.2478131-1.5390556.0295551-3.0350607-.3997274-4.518386-.1655294-.5720053-.2830534-1.1568206-.5029114-1.7143194-.1611949-.4087034-.2594556-.844534-.4439985-1.2411953-.2961578-.636539-.6584382-1.2421778-.9590556-1.8768434-.2624316-.5540802-.6589438-1.0131129-1.0588838-1.4490573-.8755983-.9544474-1.9576341-1.6601369-3.0861354-2.2821158-.7375291-.4064937-1.530661-.6898041-2.3439216-.9154474-.485169-.1346356-.9708342-.1459917-1.4705875-.1175179-.6313166.0359792-1.2503386.1437851-1.8583117.2914605-.7815554.1898292-1.5699625.3653719-2.3204723.6693966-.2440638.0988746-.4932441.2039693-.7501012.2485173-.5671697.0983841-1.0375842.4103715-1.49262.710309-.2763935.1821693-.5213918.3891718-.8726526.4321219Zm-40.6065398-19.3612615c.1080135.2076274.1641484.3159469.220661.4240624.3172178.6069057.6428453,1.2096002.9488081,1.8221303.1981637.3967292.4629906.7658726.5235194,1.2250172.0128878.097751.0916643.1868179.1500598.2990679.31355-.386887.6294874-.7074832,1.0580424-.8983303.5926645-.2639312,1.2451893-.0529458,1.5501479.5115638.0598793.110838.116549.2234052.1441163.2763959.0738554.5875455-.1813047.9908279-.4842339,1.3756363-.0751817.0954932-.1602668.1843991-.226048.2858852-.4148892.6401283-.5958718,1.3582674-.7542928,2.0972522-.2286725,1.0667226-.2492184,2.1316077-.1047006,3.2018124.1238804.9173195.3175731,1.820318.5996634,2.7068158.1386736.435814.3025244.8660784.4167005,1.3041554.0697542.2676472.2002695.4914839.2932322.7387647.093166.2478003.1689959.5040313.2847017.7407832.0754869.1544475.2354699.2675805.3109832.4220217.2763407.5651195.6767318,1.0287894,1.1315014,1.4519914.8849035.8234886,1.8764232,1.4105762,3.0950836,1.6427616,1.6635606.3169318,3.2104534-.0418728,4.7309468-.6453434.5648844-.2241916,1.0888227-.545994,1.5551479-.9342405.6457538-.5376294,1.2516346-1.1233141,1.7548368-1.8014126.8175513-1.1016838,1.4573559-2.3061875,1.9344965-3.5876953.4751015-1.2760549.6926746-2.5986858.5532701-3.9700889-.0987149-.971071-.3690856-1.8982881-.7653382-2.7754125-.3145002-.6961376-.6743971-1.3748371-1.121328-2.0126214-.3944152-.5628225-.7381299-1.1641397-1.1599788-1.7127574-.3215308-.4181425-.6033345-.8679843-.9386644-1.274117-.5778386-.6998501-1.1814805-1.3784975-1.7783176-2.0625237-.4438906-.5087369-.894137-1.0119191-1.3529053-1.5303949-.0821599.0784735-.1496025.1346109-.2074254.1993518-.803793.8999971-1.7307536,1.6465601-2.7834679,2.2362776-.747399.4186981-1.5368248.7306107-2.3536194.9925039-.985674.3160494-1.9870491.4141076-3.011326.3639425-.8781142-.0430003-1.7139805-.3073321-2.5640474-.4961629-.1394739-.0309819-.2735532-.0885838-.4079578-.1395849-.3802006-.1443104-.7592849-.2915836-1.2422673-.4775076Zm25.2799441,42.9175409c.7881552-.3833403,1.4145807-.1723554,1.9307205.5241136.0005075.0161577-.0127967.0750089.0061502.1203726.1972231.4722774.097757.898699-.1721995,1.3125894-.1057356.1620825-.2078836.3423084-.2483632.5280604-.1018081.4671086-.1816213.940194-.2448363,1.4142624-.1312953.984732-.0445831,1.9623225.1888134,2.9212361.1449156.595399.2908952,1.2066662.555532,1.7531228.4278043.8833701.8391762,1.7775518,1.4229785,2.5861546.3623155.5018349.7550401.9751655,1.1782718,1.4110077.9461214.9742899,2.0192898,1.8017775,3.2044777,2.4748116.8800498.4997684,1.8244848.8202863,2.8321608.8976235.8986489.0689649,1.7686011-.0728318,2.6376034-.3624952.6422689-.2141121,1.1818638-.5611958,1.7195661-.9297612.3279671-.2247808.6119267-.5137636.9385445-.7935244-.0678624-.2309419-.096041-.4458587-.1908991-.6255511-.2179073-.4127878-.3315182-.8579776-.415546-1.3054706-.2907385-1.5483576-.1313475-3.0339843.7033646-4.4054519.2871051-.4717194.6562026-.823678,1.2635391-.7949841.0960342.0045461.1931138-.0129949.3438664-.0244385-.077582-.3738445-.1291936-.717443-.2227123-1.0492304-.1187833-.4214768-.2343277-.8443259-.3685691-1.2623764-.151715-.4724733-.3287944-.9403864-.5343169-1.3791356-.544483-1.1623301-1.1136838-2.32066-1.948184-3.3167059-.2802808-.3345433-.5546889-.675298-.8533427-.9929581-1.0065899-1.0706775-2.1697882-1.9511545-3.4112363-2.7266961-.5252738-.3281472-1.0531048-.6621402-1.671215-.8162306-.1982508-.049409-.373863-.1896517-.5746139-.2961814-.4967165.0579359-1.0167723.1233088-1.5379148.1783936-1.1623044.1228654-2.321706.0854083-3.4728946-.1090893-.5617242-.0948988-1.1136327-.2473699-1.6749296-.3454538-.5503789-.0961856-1.0721594-.2615461-1.5797609-.4938208-.2676432-.1224695-.5488394-.2369207-.9079134-.2659548.8154365,2.0091903,1.0807132,4.0606008,1.1038586,6.1737619ZM30.4379593,58.4018031c-.3256708-.0815178-.5997236-.1005744-.8255965-.2148561-1.2782186-.6466939-2.5895854-1.203124-3.9665873-1.6071891-.4997732-.1466533-1.0042815-.2478758-1.5185538-.3000838-.7262446-.073732-1.4581965-.0262453-2.1162998.2843243-.6258125.2953269-1.2519362.5946345-1.8199054,1.0241164-.6206738.4693469-1.2194635.9539589-1.7127619,1.5470373-.5212825.6267307-.96338,1.3230801-1.2432947,2.0909296-.2386627.6546852-.4205178,1.3359461-.5609719,2.0191328-.1926491.9371544-.2350382,1.9002675-.1360467,2.8466141.1416196,1.3537249.3306274,2.7036703.816985,3.9956251.2437019.6473765.4655985,1.3020619.7847929,1.9163587.1045278.2011704.26937.3700777.3944764.5616666.2426331.3715702.4434117.7757156.7210684,1.118093.6053299.746456,1.2167175,1.5018946,1.9672982,2.1028275.8296255.6642152,1.7273336,1.2299082,2.8174655,1.4107975.8624182.1431153,1.6953806.0285493,2.470841-.3157603.8769542-.3893676,1.7117317-.8630286,2.4607495-1.4913089.633758-.5315973,1.2314643-1.0890371,1.740988-1.735824.8390945-1.0651521,1.3607286-2.2702194,1.6371777-3.6037672.2747112-1.3251549.393398-2.6574138.3706308-4.0037984-.0183458-1.0851113-.1319671-2.1619203-.33504-3.2313948-.1454284-.7659074-.4363201-1.4814135-.6832679-2.2121279-.0655461-.1939214-.2354557-.3506045-.3435136-.5326607-.1175082-.197961-.2283044-.4011929-.3243722-.6102408-.0882381-.1919799-.1310598-.4071697-.234242-.5892835-.1030028-.1817976-.25608-.3352301-.3620196-.4692274Zm84.3439636,48.5697957c.2739655.6399848.566153,1.2341777.7836825,1.8545399.2371604.6763277.4444769,1.3685235.5935656,2.0689615.1995528.9375873.3345712,1.8890948.4886862,2.8360424.0479606.2946398-.0885869.630894.2074835.8656309.0058923.3243858.1648009.5847713.328697.851882.1271408.2071904.2852309.401496.2712614.6871877-.0062356.1278731.1361822.2835531.2459271.3911095.1237473.1212792.2798348.2151188.4337217.2992051.8371256.4574244,1.7217217.7756035,2.6663542.9358215,1.2031503.2040312,2.3719362.0628312,3.5313085-.2758171.3255946-.0950911.626333-.2559057.9434354-.3526683.7980432-.2435625,1.5007627-.6454042,2.1566585-1.144464.1097903-.0835574.1897989-.2150899.3083964-.2766238.398379-.2067117.7333646-.4980762,1.0443937-.8068435.3217456-.3194192.688517-.5800197.9911082-.9327096,1.1446274-1.33413,1.8202565-2.8447321,2.001811-4.5965218.0985945-.9514176.117797-1.895925.0577225-2.8488127-.1076793-1.7078326-.5070772-3.3281478-1.2998548-4.8550012-.4794093-.9233123-1.1002966-1.7222103-1.876071-2.4054702-.7315578-.6443127-1.6037704-.9933209-2.5557925-1.1273624-1.0247776-.144281-2.002767.0681016-2.9129136.542225-.6323838.3294152-1.2843278.618684-1.861813,1.062213-.4025586.3092028-.82759.5966428-1.2421069.8950791-.6570114.4729902-1.2543464,1.0095795-1.8212751,1.5800623-1.0802791,1.0870681-2.0909231,2.2336114-2.8785581,3.5587323-.2347674.3950035-.5082285.7712634-.6058284,1.1936025Zm-12.1871774-25.8633666c.3151705.0876057.5348693.1508691.7558824.2091609.1032273.0272306.2148321.0302123.312614.069298.5625042.2248243,1.1337833.4328605,1.677768.6967234.2920001.1416294.5308008.1384696.794653-.0175527.5367691-.3174005,1.1377888-.519195,1.612359-.9517205.2586271-.2356954.5800909-.4008007.8565943-.6188183.8821529-.6955533,1.5852345-1.5782937,2.4124607-2.3322942.0998407-.0910065.1741232-.2336891.2110751-.3661373.1924649-.6897282.4185482-1.3754769.5381398-2.0787332.1392139-.81859.183012-1.6536307.2622424-2.4820922.0207184-.2167119.0085472-.4586112-.1613118-.5985267-.2798816-.2305484-.3890216-.554358-.5397173-.8525591-.274875-.5439145-.6689215-.9888206-1.0831576-1.4240275-.6963377-.7315527-1.4875878-1.3374123-2.3386393-1.8807029-.8715002-.5563546-1.7809732-1.0350247-2.7478307-1.3844632-.7572725-.2736778-1.5494354-.4509821-2.3264067-.6700303-.758818-.2139165-1.5364077-.268709-2.3168895-.2188217-.7258938.0463822-1.4227595.295835-2.0311168.8634087-.4286374.3999055-.7861692.844169-1.0815366,1.3491443-.4135587.7070062-.7825712,1.4278653-.9283396,2.2451604-.0562992.3157077-.1388569.6266442-.2039282.9409154-.0755537.3648953-.1649698.7284712-.2127671,1.0972393-.0838503.6470104-.0754516,1.2964567-.0464652,1.9499618.0560975,1.2648845.4379365,2.4460355.8780162,3.6101833.2518875.6663735.5825521,1.3029906.8782843,1.9527633.0298519.065596.0860805.1278622.0911815.1946471.0343071.4498655.3287312.7730461.4945643,1.1486817.7339588-.2082291,1.4267564-.4078637,2.1440792-.4427896.7159945-.034875,1.4349905-.0078878,2.0981922-.0080183Zm-56.4930946,7.7568682c.0689517.3540069.1478039.6422906.1778074.9355675.0783635.7660771.2660902,1.5368083-.0425022,2.2973115-.0186849.0460327-.0175158.1041436-.0122763.1552685.0673903.6571391-.1065227,1.2730479-.3171974,1.8830988-.0820457.2375839-.115071.4644948-.0493453.727203.1520115.6076081.2308834,1.2336726.3864631,1.8401838.1264272.4928494.2943164.9796427.4934557,1.4480052.1969046.4631082.4618001.8968754.6864718,1.3486946.3182055.6399127.760996,1.1897922,1.2588742,1.6900063,1.0046726,1.0093827,2.1428321,1.7847923,3.5974928,2.0075478.6716129.1028526,1.3396689.0993036,1.9957631-.0219521.8722635-.1612073,1.7108044-.4436591,2.4811478-.9065413.30515-.1833427.5680137-.4123539.8325529-.6437106.4290927-.3752195.7478939-.8390561,1.0623993-1.3077446.5483423-.8171439.8567646-1.7383958,1.0494456-2.6829439.3177835-1.5576944-.0979344-3.0299128-.6773091-4.4654387-.1391806-.3448513-.3175303-.6821295-.3949334-1.0407769-.0506356-.2345886-.1508869-.4326612-.2353642-.6457587-.0841938-.2123665-.1384731-.4365734-.2225731-.6489887-.1698135-.4289193-.3539562-.8521707-.523981-1.2810098-.0237837-.0599986-.0012053-.1383842-.0002599-.1976248-.3681519-.3041949-.7320436-.5825717-1.0695748-.8899372-.348526-.3173676-.6912137-.6456633-.9998301-1.0010187-.2986796-.3439244-.5634654-.7196996-.8197128-1.0973781-.2592638-.3821317-.570173-.7572196-.7110004-1.1840522-.1496138-.4534524-.4209661-.852439-.5098036-1.3347769-.0800375-.4346285-.2712678-.8487809-.4288153-1.317684-.3283349.5321679-.6044282,1.0241386-.9230288,1.4868584-.6795716.9869579-1.4426941,1.9029878-2.3482742,2.6972887-.5183617.4546519-1.0477454.8944847-1.6577622,1.2144078-.6633525.3479006-1.2926845.7748762-2.0783296.9358952Zm68.7963911-11.8755848c-.2715054.7306835-.5108439,1.3874324-.7593776,2.0406722-.3685603.9687358-.9102594,1.8364976-1.5540578,2.6446259-.4392612.5513962-.9489102,1.0383788-1.5103206,1.4513917-.529018.3891938-1.1261884.6857889-1.6936717,1.0226218-.1316289.0781245-.2644.1542825-.3855518.2248722.6376273.6696099,1.2999359,1.2604549,1.8717174,1.9576051.6758521.8240205,1.2921365,1.6751142,1.81108,2.6021871.138035.2466193.2397731.5115556.4652169.7126429.1257035.1121325.2236733.3049752.2449869.4727542.0308488.2428873.1395965.4410509.2449113.6446928.4165641.8054566.7085058,1.6522515.9607896,2.5243822.3023202,1.0450962.4807028,2.1027976.5825201,3.2342011.2723065-.0256971.5770405.0160331.8162273-.0900412.7672309-.3402815,1.5296513-.7112165,2.1710699-1.2627741.580229-.4989262,1.122271-1.0428098,1.6739519-1.5743183.9069566-.8737904,1.7640326-1.7890304,2.48658-2.8288738.9173026-1.320072,1.536223-2.7554062,1.8426589-4.3343981.2243037-1.1557964.0199959-2.2390923-.4724611-3.2833576-.3269611-.6933176-.7669644-1.3131923-1.2228665-1.9298581-.3036873-.4107876-.6351325-.7942565-.9601615-1.1839368-.4391176-.5264207-.9449893-.9828887-1.4889098-1.4065205-.522731-.407112-1.0683827-.7453824-1.690766-.9750408-.7105851-.2622342-1.4523365-.3786381-2.1902681-.512111-.4141712-.0749163-.8367187-.1034308-1.2432978-.1514186Zm-27.5238813,3.4888197c.2515173.1851262.4597244.3149033.6406655.4754057,1.1268895.999623,2.1668087,2.0853436,3.1543316,3.2216817.3472944.3996255.6864089.8063649,1.0231643,1.2026742.131209-.234932.2346149-.4409436.3568254-.6351053.4482357-.712153,1.151643-1.1421785,1.8455104-1.5474993.6757886-.3947693,1.4175652-.6768316,2.1321011-1.0046177.0618685-.0283743.1392311-.0211271.2049171-.043537.0910665-.0311174.177863-.0746783.2719441-.1152547-.2728427-.4423325-.4809069-.8866973-.7890678-1.2449546-.240859-.2800002-.3455696-.6278061-.5727718-.8957498-.2344888-.2765697-.4063335-.5825128-.5714893-.8975485-.150615-.2872854-.3018698-.5743123-.4469295-.8643984-.0553518-.1106921-.0983295-.2281342-.1399922-.3449948-.141804-.3978731-.2779868-.7977623-.4233731-1.1943079-.0196526-.0536317-.0795345-.0924987-.0989249-.1139743-.4382865.4266322-.8341231.8484065-1.2689743,1.2251776-.4501112.3899653-.922433.7590437-1.4136144,1.0955616-.5524709.3785114-2.2839559,1.1781419-2.8069372,1.3442667-.04903.0155912-.1087402-.0019112-.1573946.0142588-.2933495.0974328-.5849355.2002012-.9399905.322916Zm-19.4883509,9.5544153c-.2887868.093883-.533333.1465127-.7538064.2502811-.5775363.2717904-1.1858906.4317831-1.8055446.5675652-.7914305.1734084-1.5902584.2411177-2.3982353.2165601-.345869-.0105194-.691548-.0272417-1.1199282-.0444738.5244687.9507293.9294357,1.8558806,1.0551728,2.8831588.1210044.9885892.186117,1.9734264.1438743,2.993314.1768491-.0278038.3154656-.0445318.451938-.0719061.7686123-.1541234,1.5331364-.3321744,2.3058247-.4616492,1.1976872-.2007063,2.4015011-.335861,3.6133836-.0688397-.4440677-1.72982-.7002435-3.4678339-.4582918-5.2296198-.4185128-.2909188-.8324454-.5375607-1.034387-1.0343906ZM19.7349587,21.7835806c-.566582-.3811507-1.1163793-.7586127-1.6738688-1.1243461-.9652543-.6332302-1.9644604-1.190462-3.1025796-1.4670856-.8076457-.1963053-1.5764912-.2009773-2.3032234.2630421-.4223277.2696564-.7069604.6286774-.7841245,1.1336561-.1265874.8284802.1518423,1.7440012.8215026,2.3916911.9738599.9418969,2.1525749,1.4120745,3.4941178,1.4638961.3259304.0125881.6772326-.0294382.9806982-.1429983,1.2062591-.4514128,2.004805-1.3383291,2.5674777-2.5178555Zm58.2210771,57.6282756c-.7938606-.5896283-1.5477952-1.1496158-2.3409981-1.7387525-.0264519,1.237765-.3468632,2.3859121-.7953708,3.6335268,1.0100178-.8098037,2.0438658-1.3565132,3.1363689-1.8947743Zm37.1607095,19.2714422c-.0917869.4528879-.1850518.9130658-.2968025,1.4644329.5194403-.6045864.9834178-1.1446176,1.4446349-1.6814263-.3927606.0742466-.7666392.1449233-1.1478324.2169934ZM30.03549,54.8137186q-.1577856.1761183.0085452.3168644c-.0023388-.0868173-.0046835-.1736315-.0085452-.3168644Zm63.4045921,52.1295038c.0058117-.0162739.0201287-.0363174.0150536-.0477614-.005069-.0114323-.0295594-.0142499-.0455447-.0208519-.0044732.0161136-.0161264.0350244-.0112536.0474819.0042322.0108255.0271155.01436.0417448.0211315Zm.452522.4215574c.0005501.011818-.0034172.0278023.0027332.0344736.0092104.0099776.0255106.0133786.0388016.0195808-.0049397-.0221447-.009885-.0442715-.0148186-.0664045-.0089075.0041128-.0177971.0082312-.0267163.0123502Z" stroke-width="0"/>
  </g>
</svg>