<?xml version="1.0" encoding="UTF-8"?>
<svg id="b" data-name="Layer 2" xmlns="http://www.w3.org/2000/svg" width="310.628" height="310.822" viewBox="0 0 310.628 310.822">
  <g id="c" data-name="Layer 1">
    <g>
      <path d="m278.916,70.105v-.006s-.008.01-.011.014c.003-.003.007-.005.011-.009Z" stroke-width="0"/>
      <path d="m278.916,70.099l-.022.022s.007-.005.01-.008c.003-.005.007-.01.011-.014Z" stroke-width="0"/>
      <path d="m280.335,36.436c-.046.213-.092.429-.136.637.133.451.452.707.942.825.46-.119.774-.356.835-.809.06-.454-.201-.762-.543-1.01q-.616-.016-1.098.357Z" stroke-width="0"/>
      <path d="m286.585,42.952c.075-.597-.114-.963-.718-1.135q-.499.307-.643.976c.157.171.344.372.564.61.333-.188.585-.331.797-.451Z" stroke-width="0"/>
      <path d="m285.986,38.125v-.428c-.127-.152-.254-.305-.398-.479-.399.17-.704.222-.855.62.106.201.23.436.35.663h.571c.123-.139.238-.268.333-.375Z" stroke-width="0"/>
      <path d="m282.861,41.667c.193-.158.352-.289.517-.425-.133-.152-.233-.265-.361-.413-.333.23-.317.478-.156.837Z" stroke-width="0"/>
      <path d="m278.791,39.548c.086.076.16.14.283.248.176-.166.304-.287.454-.429-.195-.089-.361-.165-.541-.247-.076.165-.135.294-.196.428Z" stroke-width="0"/>
      <g>
        <path d="m169.841,9.751c.481-.261.832-.658,1.117-1.121.62-1.008.716-2.075.407-3.204-.186-.679-.573-1.224-1.024-1.744-1.137-1.31-2.648-2.053-4.234-2.564-1.865-.6-3.792-1.01-5.78-.979-.131.002-.319.084-.378-.139h-1.541c-.101.048-.199.13-.303.137-.359.023-.734-.043-1.075.039-1.188.287-2.382.532-3.52,1.029-1.7.742-3.193,1.707-4.366,3.174-.709.887-1.076,1.816-.868,2.938.222.253.44.501.607.69h1.203c.497-.469,1.061-.951,1.563-1.489.505-.541,1.316-.803,1.548-1.616-.128-.085-.222-.147-.371-.245.242-.156.443-.308.662-.424,1.79-.943,3.722-1.354,5.72-1.437.885-.036,1.784.033,2.663.154,1.038.143,2.08.331,3.087.617,1.18.334,2.337.741,3.319,1.555.558.463.879,1.007,1.085,1.68-.305.329-.662.609-.884.972-.982,1.606-1.237,3.332-.744,5.16.318,1.18.843,2.248,1.6,3.219.738.947,1.653,1.665,2.726,2.137,1.506.664,3.091.654,4.681.289,1.081-.248,2.113-.62,3.081-1.178.074.049.136.088.197.129.797.545,1.676.908,2.617,1.105.59.123,1.188.204,1.784.293.151.023.31.022.461.002.699-.09,1.4-.172,2.094-.293.664-.115,1.335-.227,1.979-.423,1.457-.442,2.897-.935,4.382-1.419.066.121.156.242.201.378.377,1.145.783,2.28,1.455,3.289.365.547.803,1.044,1.215,1.558.577.719,1.293,1.273,2.101,1.705.576.308,1.165.594,1.749.889.395.2.717.475.904.888.34.751.359,1.558.422,2.359.002.025.007.057-.006.076-.224.326-.101.698-.136,1.048-.02.204.037.423-.018.614-.219.761-.18,1.552-.275,2.326-.085.683-.018,1.384-.019,2.078,0,.701.25,1.332.588,1.925.544.955,1.425,1.497,2.438,1.813.616.193,1.266.278,1.904.412,0,.013.009.043-.001.064-.504,1.066-.925,2.147-1.137,3.326-.172.959-.095,1.887.138,2.778.469,1.793,1.48,3.238,3.079,4.25.946.598,1.927,1.032,3.044,1.241.918.172,1.801.07,2.759.081-.213,1.381-.485,2.823-.464,4.283.022,1.475.154,2.944.697,4.34-.557.175-.778.542-.729,1.097.031.355.211.622.46.848.377.343.809.637,1.137,1.02.552.645,1.175,1.27,1.217,2.209.005.115.097.226.146.334-.136.454-.237.895-.401,1.312-.256.652-.572,1.281-.83,1.932-.51,1.288-.845,2.638-.915,4.01-.071,1.395-.122,2.8.094,4.206.141.919.318,1.828.508,2.734.274,1.313.775,2.515,1.981,3.283.627-.039.917-.264,1.084-.836.264-.901.23-1.833.114-2.733-.09-.697-.22-1.403-.239-2.095-.053-1.855-.145-3.716.264-5.558.179-.808.196-1.65.342-2.467.188-1.05.316-2.102.296-3.17-.022-1.243-.383-2.385-1.097-3.396-.466-.66-1.003-1.27-1.523-1.921.257-.457.342-.974.303-1.514-.047-.657-.127-1.313-.141-1.97-.028-1.267.182-2.506.419-3.752.331-1.732.807-3.404,1.567-4.969v-.831c-.157-.201-.3-.451-.504-.632-.289-.257-.67-.427-1.047-.323-.502.139-.982.341-1.289.842-.223.364-.493.697-.625,1.113-.088.277-.241.503-.573.641-.385,0-.823.027-1.257-.008-.424-.034-.87-.062-1.259-.213-1.623-.631-2.888-1.684-3.534-3.341-.35-.895-.511-1.81-.259-2.803.255-1.003.579-1.968,1.036-2.89.288-.581.426-1.179.399-1.828-.018-.411-.163-.744-.47-.999-.192-.16-.414-.282-.579-.393-.822-.049-1.581-.037-2.344-.14-.796-.107-1.482-.306-1.991-1.05-.327-1.089-.136-2.268-.168-3.433.238-.511.104-1.056.146-1.585.042-.529.12-1.057.127-1.587.005-.374-.094-.748-.129-1.124-.118-1.301-.626-2.399-1.748-3.117-.696-.447-1.434-.842-2.185-1.19-1.297-.6-2.207-1.593-2.894-2.792-.472-.824-.82-1.719-1.23-2.578-.184-.387-.367-.777-.584-1.145-.435-.736-1.346-1.09-2.168-.822-1.045.341-2.078.718-3.115,1.085-1.065.378-2.168.63-3.277.79-.83.12-1.7.1-2.536.002-.775-.091-1.548-.322-2.181-.907.677-.692,1.1-1.473,1.18-2.34-.135-.928-.596-1.54-1.533-1.803-.87-.097-1.574.3-2.228.949-.801.795-.841,1.748-.765,2.712.124.314.232.588.345.874-.155.099-.252.187-.367.23-.895.339-1.798.642-2.773.627-.385-.006-.771-.008-1.156,0-.977.021-1.833-.331-2.583-.913-1.819-1.413-2.459-3.384-2.573-5.591-.021-.402.148-.666.494-.855Zm11.055,4.724c.009-.002.01-.008.018-.01.004-.153-.077-.334.134-.417,0-.011-.003-.024,0-.034.017-.01.033-.018.044-.024,0,0,0,0,0,0,0,0,0,0,0,0,.012-.024.009-.017,0,0,.018-.01.014-.007,0,0-.006.012-.014.027-.023.045-.01.003-.012.01-.021.013-.01.15.096.339-.134.417,0,.009.003.02.001.029-.015.007-.025.012-.036.018-.018.036-.011.023,0,0-.022.011-.035.017,0,0,.005-.011.01-.021.017-.036Z" stroke-width="0"/>
        <path d="m181.092,13.988c-.01.006-.027.015-.044.024-.003.01,0,.023,0,.034.009-.004.01-.01.021-.013.009-.018.017-.033.023-.045Z" stroke-width="0"/>
        <path d="m180.879,14.511h0c-.035.017-.022.011,0,0Z" stroke-width="0"/>
        <path d="m181.092,13.988s0,0,0,0c.009-.017.012-.024,0,0Z" stroke-width="0"/>
        <path d="m180.879,14.511h0c-.011.023-.018.036,0,0Z" stroke-width="0"/>
        <path d="m180.879,14.511c.011-.005.021-.011.036-.018.001-.009-.001-.019-.001-.029-.008.003-.009.008-.018.01-.007.015-.012.025-.017.036h0Z" stroke-width="0"/>
        <path d="m123.559,133.927h0c-.012.025-.02.039,0,0Z" stroke-width="0"/>
        <path d="m181.754,134.175c.029-.037.058-.073.087-.11.007-.012.016-.023.023-.036-.015.005-.03.011-.044.016-.022.043-.044.086-.066.129Z" stroke-width="0"/>
        <path d="m123.559,133.927c.011-.006.02-.01.033-.017.004-.006.007-.011.011-.017-.009,0-.018.002-.028.002-.007.013-.011.022-.016.033Z" stroke-width="0"/>
        <path d="m183.036,132.925c.746-.61,1.482-1.234,2.251-1.813,1.373-1.035,2.777-2.03,4.153-3.061,1.396-1.046,2.868-1.976,4.419-2.764,1.68-.854,3.404-1.618,5.105-2.431,1.82-.87,3.602-1.812,5.35-2.819.879-.507,1.706-1.093,2.465-1.768,1.406-1.251,2.415-2.791,3.259-4.455.661-1.302,1.345-2.593,2.022-3.887,1.029-1.969,2.227-3.837,3.499-5.654.9-1.284,1.862-2.525,2.821-3.766.652-.843,1.336-1.663,2.026-2.476.759-.894,1.547-1.763,2.314-2.65.883-1.02,1.729-2.074,2.643-3.065.847-.917,1.69-1.844,2.641-2.658.693-.593,1.408-1.161,2.141-1.703,1.116-.826,2.324-1.508,3.542-2.174,1.679-.918,3.319-1.91,5.014-2.798,2.023-1.06,4.065-2.081,6.203-2.905.772-.298,1.431-.846,1.593-1.867-.165-.248-.368-.556-.539-.814-.411-.071-.746-.213-1.051-.165-.788.122-1.577.281-2.341.509-2.042.609-4,1.444-5.926,2.348-1.664.781-3.286,1.638-4.878,2.558-1.79,1.034-3.405,2.29-4.904,3.702-1.08,1.017-2.087,2.102-3.001,3.274-.875,1.121-1.794,2.207-2.663,3.333-1.439,1.864-2.837,3.759-4.283,5.618-1.15,1.479-2.16,3.048-3.104,4.661-.534.912-1.054,1.833-1.548,2.767-.8,1.515-1.632,3.017-2.339,4.575-.581,1.28-1.066,2.607-1.775,3.822-.431.739-.924,1.455-1.48,2.104-.951,1.11-2.148,1.931-3.437,2.608-1.447.761-2.928,1.451-4.435,2.086-1.32.556-2.617,1.162-3.937,1.716-1.932.812-3.782,1.773-5.53,2.932-1.155.766-2.332,1.498-3.473,2.283-1.208.831-2.448,1.62-3.555,2.592-.554.486-1.153.923-1.686,1.429-.495.47-.957.983-1.256,1.613-.278.587-.202.896.303,1.306.07.057.129.127.24.237-.235.131-.401.223-.616.343-.832-1.904-1.233-3.898-1.987-5.79.196-.106.342-.199.499-.267,1.64-.709,3.249-1.477,4.794-2.378,1.607-.938,3.078-2.057,4.412-3.35.734-.711,1.405-1.487,2.107-2.231.984-1.043,1.979-2.076,2.951-3.13.864-.938,1.706-1.896,2.552-2.85.993-1.121,1.881-2.322,2.657-3.601.431-.708.851-1.432,1.178-2.192.723-1.68,1.099-3.472,1.551-5.236.218-.848.351-1.717.532-2.574.209-.988.385-1.977.409-2.993.052-2.198-.123-4.398.131-6.595.119-1.033-.06-2.09.17-3.124.103-.463.145-.943.276-1.397.249-.863.531-1.717.822-2.567.127-.37.306-.721.45-1.053.341.57.632,1.127.988,1.637.678.969,1.517,1.796,2.479,2.478,1.339.948,2.795,1.6,4.485,1.563.334-.007.668-.012,1.001-.003.54.015,1.045-.138,1.542-.321.764-.28,1.44-.697,2.089-1.196,1.217-.936,2.47-2.766,2.196-4.745-.017-.124-.131-.234-.208-.365-.15.14-.268.24-.373.351-.771.819-1.498,1.685-2.318,2.452-1.329,1.244-2.888,1.676-4.671,1.093-.855-.28-1.575-.762-2.274-1.318-.994-.791-1.729-1.768-2.325-2.872-.505-.934-.801-1.941-1.068-2.959-.269-1.028-.246-2.088-.123-3.119.098-.824.3-1.635.259-2.407-.187-.521-.483-.837-.994-.913-.241.132-.512.233-.72.408-.232.195-.408.458-.624.71-.127-.378-.195-.674-.324-.942-.163-.339-.387-.649-.565-.981-.559-1.041-1.028-2.122-1.476-3.215-1.053-2.569-2.041-5.162-2.951-7.784-.425-1.226-.805-2.466-1.001-3.764-.068-.449-.012-.92-.168-1.345-.176-.481-.134-.974-.071-1.439.13-.951.228-1.901.292-2.774-.209-.263-.367-.464-.524-.662-.273.124-.473.214-.68.308-.273-.307-.58-.558-.985-.683-.501-.155-.999-.325-1.487-.517-.512-.202-1.02-.42-1.515-.662-.451-.221-.886-.478-1.321-.73-.633-.365-1.301-.55-2.028-.43-.344.168-.677.35-1.026.496-.631.263-1.294.512-1.976.381-.706-.136-1.424-.313-2.012-.785-.474-.381-.969-.739-1.419-1.147-.38-.345-.799-.517-1.302-.513-.203.001-.407,0-.539,0-.315.171-.576.279-.797.442-.511.376-.984.803-1.504,1.164-.723.502-1.462.986-2.219,1.435-.546.324-1.19.474-1.801.469-.83-.007-1.565-.378-2.083-1.073-.409-.547-.833-1.085-1.2-1.66-.46-.721-1.075-1.189-1.854-1.379-.674.131-1.192.433-1.57.94-.27.362-.515.733-.701,1.159-.245.559-.288,1.165-.493,1.665-.131-.455-.231-.974-.429-1.451-.35-.843-.936-1.519-1.744-1.946-.367-.194-.817-.363-1.215-.337-.801.051-1.501.424-2.023,1.06-.207.252-.359.549-.562.805-.807,1.019-1.765,1.747-3.163,1.648-.434-.031-.874-.02-1.309-.001-.87.037-1.717-.137-2.533-.372-1.487-.429-2.945-.96-4.42-1.432-1.077-.345-2.154-.713-3.309-.652-.502.026-1.012.068-1.5.181-.9.208-1.778.51-2.68.706-.931.203-1.877.345-2.822.477-.404.057-.865-.089-1.22.055-.443.179-.788-.096-1.188-.053-.557.06-1.089-.166-1.634-.247-1.276-.189-2.392-.88-3.569-1.083-.918.076-1.364.607-1.626,1.356-.075.212-.212.403-.287.615-.403,1.137-.868,2.248-1.437,3.311-.712,1.331-1.575,2.56-2.745,3.529-.839.696-1.775,1.235-2.905,1.324-.119.009-.234.082-.357.127-.446-.158-.891-.316-1.276-.452-.153-.304-.265-.529-.371-.739.115-.349.223-.678.325-.989-.93-.739-1.381-.548-2.021.813v.905c.138.303.273.595.406.885-.083.106-.161.208-.245.316-.047.527-.068,1.059.15,1.568.466,1.089.718,2.244.881,3.401.171,1.21.031,2.436-.299,3.62-.758,2.722-2.473,4.784-4.597,6.546-1.09.904-2.28,1.668-3.517,2.358-.943.526-1.916.992-2.936,1.346-.493.171-.942.373-1.216.869q-.032.535.304,1.108c.676.089,1.009.643,1.176,1.266.214.796.329,1.619.472,2.434.03.174.059.391-.016.531-.159.296-.088.601-.127.9-.029.222-.083.442-.115.664-.136.923-.463,1.789-.809,2.647-.552,1.371-1.28,2.635-2.325,3.697-.859.873-1.815,1.615-2.918,2.16-.529.261-1.003.599-1.365,1.087-.004.07-.014.146-.011.222.003.075.019.149.028.209q.569.615,1.649.914c.188,1.783.444,3.565.933,5.31.493,1.76,1.239,3.389,2.274,4.891-.79.348-1.369.981-1.878,1.641-.619.804-1.014,1.732-1.022,2.788-.002.239-.109.476-.15.643-.227.09-.369.139-.504.202-.889.416-1.769.851-2.666,1.249-1.102.489-2.249.852-3.436,1.06-.391.068-.813.011-1.213-.045-.575-.081-.959-.498-1.236-.947-.358-.584-.51-1.264-.456-1.954.029-.367.19-.721.273-1.086.217-.958-.039-1.482-.942-1.942h-.818c-.39.243-.82.505-1.246.776-1.186.756-2.419,1.343-3.888,1.235-.545-.04-1.039-.171-1.491-.468-.887-.584-1.572-1.351-2.117-2.264-.641-1.074-1.024-2.249-1.171-3.462-.153-1.257-.097-2.543.287-3.774.23-.737.41-1.503.98-2.097.239-.248.384-.586.546-.841v-.695c-.17-.764-.7-.971-1.326-1.24-.247.046-.589.144-.936.165-.323.02-.658-.008-.977-.073-.757-.155-1.318-.593-1.678-1.281-.046-.688.007-1.346.275-2.008.299-.735.494-1.515.699-2.285.16-.603.266-1.221.356-1.642-.071-1.439-.679-2.22-2.042-2.355-1.394.312-2.229,1.337-2.836,2.543v.885c.186.161.391.338.611.529-.473,1.197-.527,2.458-.451,3.726.024.391.171.778.288,1.159.285.921.841,1.662,1.554,2.3.613.549,1.335.889,2.105,1.146.211.07.426.131.628.192-.512,1.312-.615,2.67-.719,4.02-.068.884.144,1.755.273,2.63.251,1.692.873,3.245,1.729,4.701.37.628.838,1.219,1.352,1.736,1.045,1.05,2.361,1.641,3.82,1.801,1.108.122,2.229.057,3.298-.357.371-.144.75-.267,1.172-.415.079.681.346,1.267.654,1.844.413.772,1.033,1.342,1.804,1.679.993.435,2.046.472,3.105.15,1.498-.455,2.852-1.238,4.279-1.854.792-.342,1.544-.773,2.335-1.174.299,1.433,1.05,2.527,1.967,3.521,1.331,1.442,2.975,2.436,4.765,3.185.615.258,1.29.446,1.952.504,1.211.106,2.436.118,3.584-.461.487.485.94.974,1.434,1.42.432.39.9.74,1.363,1.092,1.839,1.392,3.909,2.399,5.919,3.502,1.434.787,2.918,1.484,4.397,2.184,1.497.708,3.015,1.371,4.458,2.024-.573,1.204-1.144,2.402-1.704,3.577-.247.088-.457.163-.63.224-.287-.102-.54-.212-.803-.283-1.158-.312-2.341-.176-3.506-.117-.461.023-.931.105-1.403.104-.004.006-.007.011-.011.017-.014.007-.022.011-.033.017h0c-.02.039-.012.025,0,0-.04.02-.025.013,0,0,.005-.011.01-.019.016-.033.01,0,.019-.002.028-.002.091-.14.183-.28.271-.416.099-.505-.125-.877-.463-1.227-.627-.649-1.362-1.147-2.175-1.508-2.171-.967-4.39-1.811-6.661-2.517-1.992-.62-4.035-1.003-6.101-1.237-1.187-.134-2.39-.152-3.588-.168-1.926-.026-3.852-.02-5.777,0-.893.009-1.765-.081-2.625-.312-1.159-.312-2.206-.841-3.116-1.629-.463-.401-.916-.812-1.382-1.21-.948-.81-1.903-1.611-2.852-2.419-.795-.677-1.551-1.407-2.385-2.031-2.002-1.496-3.981-3.026-6.228-4.163-.921-.466-1.847-.887-2.865-1.097-.138-.154-.296-.292-.41-.461-.645-.952-1.392-1.815-2.2-2.63-1.586-1.598-3.136-3.231-4.913-4.629-1.059-.833-2.042-1.764-3.098-2.6-.828-.656-1.628-1.37-2.612-1.77h-.768c-.209.275-.434.572-.616.812.182.87.639,1.465,1.2,1.996,1.022.968,2.044,1.937,3.064,2.907.205.195.392.408.607.591,1.317,1.123,2.64,2.238,3.958,3.359.466.397.916.813,1.385,1.205.78.65,1.57,1.287,2.366,1.938.061.405.266.734.56,1.033.381.386.826.67,1.295.925.42.228.852.436,1.258.687,1.184.733,2.318,1.538,3.383,2.441,1.123.953,2.293,1.854,3.396,2.83,1.398,1.236,2.749,2.525,4.123,3.788,1.182,1.086,2.482,1.993,3.974,2.61,1.311.542,2.672.897,4.089.895,1.788-.002,3.574.032,5.365-.099,1.442-.106,2.901-.094,4.361.072,1.277.145,2.562.223,3.82.503.998.222,2.001.441,2.979.735,1.529.46,3.04.983,4.559,1.477,1.283.417,2.572.813,3.818,1.334.077.032.15.076.224.114-.23.156-.449.149-.653.205-1.274.349-2.556.676-3.815,1.077-1.967.627-3.851,1.454-5.592,2.576-2.415,1.556-4.738,3.25-7.306,4.572-1.743.897-3.454,1.856-5.268,2.611-2.632,1.095-5.307,2.061-8.06,2.812-.863.235-1.757.148-2.619.345-.097.022-.224.035-.304-.008-.362-.194-.754-.087-1.127-.141-.794-.114-1.603-.182-2.375-.387-1.4-.372-2.768-.836-4.114-1.393-2.069-.857-3.936-2.038-5.724-3.346-1.371-1.003-2.644-2.137-3.992-3.173-.536-.411-1.047-.876-1.697-1.128-.533-.207-.861-.118-1.145.371-.073.127-.111.275-.158.393.357.898,1.212,1.339,1.688,2.007-.752.949-1.469,1.866-2.2,2.771-.544.673-1.099,1.336-1.662,1.993-.465.542-.99,1.037-1.419,1.606-.732.971-1.666,1.717-2.608,2.451-.756.589-1.548,1.136-2.353,1.658-.336.218-.506.469-.528.838.733.828,1.167.943,2.142.51,1.278-.567,2.454-1.323,3.479-2.262,1.508-1.382,2.946-2.838,4.196-4.471.649-.847,1.192-1.755,1.703-2.683.197-.358.298-.769.471-1.229.296.282.517.527.773.73,1.152.915,2.288,1.85,3.477,2.714,1.08.786,2.225,1.486,3.434,2.061,1.491.709,3.017,1.342,4.606,1.808,1.377.404,2.787.675,4.21.762,1.112.068,2.232.089,3.359-.091.921-.147,1.817-.36,2.705-.615,2.775-.797,5.408-1.97,8.025-3.159,1.692-.769,3.304-1.718,4.941-2.607,1.948-1.058,3.884-2.139,5.825-3.21,2.422-1.337,4.991-2.332,7.605-3.209,2.015-.675,4.055-1.27,6.169-1.556.109-.015.224.018.366.032-.116.148-.197.252-.331.422h1.19c.263.246.517.484.773.723.087-.071.186-.152.286-.235.49.867,1.1,1.64,1.785,2.343.748.769,1.563,1.473,2.337,2.217,1.273,1.223,2.747,2.155,4.306,2.953,1.43.732,2.918,1.327,4.456,1.796,1.702.519,3.448.84,5.196,1.152.639.114,1.275.247,1.905.399.874.21,1.739.457,2.613.667,1.289.31,2.573.626,3.892.819.879.129,1.77.043,2.636.246.049.011.107.014.153-.002.672-.225,1.367-.095,2.051-.136.205-.012.431.044.613-.024.732-.272,1.506-.138,2.256-.243,1.12-.156,2.244-.27,3.361-.479,1.568-.293,3.037-.838,4.458-1.523,1.32-.636,2.533-1.457,3.715-2.321,1.148-.839,2.314-1.656,3.317-2.677.106-.108.239-.189.353-.289.67-.589,1.337-1.18,1.977-1.745v-.444c-.201-.431-.599-.418-.862-.541-.898.118-1.573.583-2.232,1.112-.668.537-1.371,1.034-2.084,1.511-1.363.911-2.72,1.834-4.126,2.673-.685.409-1.337.882-2.105,1.168-.822.306-1.628.615-2.497.784-.99.193-1.97.417-2.985.421-.154,0-.312-.013-.462.013-1.1.197-2.217.207-3.328.282-.562.038-1.13.023-1.694-.001-.785-.034-1.576-.05-2.351-.165-1.062-.158-2.133-.328-3.162-.623-2.14-.612-4.33-.993-6.492-1.497-2.183-.509-4.271-1.244-6.271-2.245-1.314-.658-2.572-1.42-3.696-2.356-1.081-.898-2.063-1.916-3.071-2.899-.437-.427-.831-.899-1.244-1.351-.115-.126-.23-.254-.31-.342.43-.823.824-1.583,1.225-2.339.365-.686.738-1.368,1.094-2.026.683.264,1.306.528,1.944.747,1.44.494,2.912.884,4.395,1.226.828.191,1.671.322,2.507.478.616.115,1.232.223,1.847.342.982.19,1.961.396,2.944.577.742.136,1.487.247,2.236.343.851.108,1.701.228,2.556.268.871.041,1.746.006,2.619.003.154,0,.321.031.46-.015.859-.285,1.765-.025,2.639-.261.475-.128,1.003-.099,1.504-.145,1.007-.092,2.012-.178,3.012-.337.771-.122,1.562-.154,2.313-.348,1.691-.437,3.35-.984,4.976-1.633,1.597-.637,3.212-1.23,4.82-1.843.04.034.096.059.115.101.544,1.159,1.1,2.312,1.621,3.481.485,1.089.95,2.182,2.101,2.68.03.106.049.153.056.202.117.792.429,1.057,1.2,1.061.571.003,1.005-.32,1.447-.598,1.174-.741,2.402-1.362,3.711-1.825.851-.301,1.722-.546,2.613-.654,1.22-.147,2.434.06,3.611.357.927.234,1.865.396,2.803.525.923.126,1.853.228,2.782.314.961.089,1.93.063,2.897.142.93.076,1.874.039,2.82-.082.806-.103,1.583-.238,2.352-.489.629-.205,1.133-.541,1.498-1.052v-.482c-.243-.163-.51-.343-.793-.533-.726.073-1.451.066-2.132.235-.769.19-1.531.138-2.28.074-.422-.036-.853-.076-1.28-.116-.426-.04-.85-.103-1.276-.149-.553-.059-1.12-.052-1.657-.177-1.151-.268-2.331-.347-3.484-.589-.662-.139-1.329-.247-1.995-.366-.765-.136-1.527-.35-2.296-.38-.961-.038-1.922-.066-2.896.097-1.327.222-2.574.625-3.788,1.173-.189.085-.387.148-.582.219-.007.013-.016.024-.023.036-.029.037-.058.073-.087.11.022-.043.044-.086.066-.129.014-.005.029-.011.044-.016.04-.074.072-.156.131-.208.342-.305.687-.607,1.041-.897Zm-18.348-79.868c.023.273.046.42.046.566,0,.847.047,1.699-.02,2.541-.091,1.156-.321,2.276-1.038,3.256-.445.608-.959,1.128-1.588,1.516-.549.339-1.154.589-1.734.878-.039-.041-.079-.081-.118-.122.134-.265.25-.542.406-.794.767-1.244,1.548-2.479,2.318-3.721.771-1.242,1.311-2.584,1.729-4.122Zm10.85,74.878c-.874.424-1.817.706-2.722,1.067-1.139.454-2.276.915-3.407,1.386-1.644.685-3.332,1.199-5.085,1.531-.989.187-1.977.341-2.976.465-1.158.144-2.316.226-3.476.321-.788.065-1.573.126-2.359.105-1.061-.028-2.116-.172-3.172-.266-1.384-.123-2.726-.459-4.087-.682-1.331-.217-2.657-.486-3.983-.744-2.377-.462-4.749-.962-7.017-1.84-.817-.316-1.628-.651-2.421-1.02-2.667-1.24-5.408-2.32-7.984-3.752-.925-.514-1.838-1.048-2.759-1.567-.702-.396-1.403-.796-2.115-1.173-1.339-.708-2.651-1.453-3.891-2.328-.818-.578-1.527-1.27-2.242-1.961-.624-.604-1.262-1.193-1.906-1.775-.186-.168-.413-.291-.616-.432h-.702c-.171.117-.338.232-.539.37-.329.387-.193.885-.202,1.368.198.346.397.694.595,1.039-.03.043-.06.118-.085.116-1.729-.132-3.255-.768-4.622-1.833-.973-.758-1.865-1.584-2.491-2.657-.548-.94-.666-1.944-.331-2.985.167-.517.51-.913.986-1.281.207.203.444.402.815.249.172-.159.38-.35.61-.562.527.003,1.091.046,1.583-.368-.259-.319-.472-.67-.766-.929-1.651-1.454-2.612-3.316-3.225-5.384-.327-1.102-.599-2.219-.784-3.357-.123-.765-.305-1.521-.432-2.285-.045-.273-.007-.561-.007-.833.553-.404,1.102-.807,1.652-1.208,1.106-.806,1.994-1.818,2.748-2.948.901-1.35,1.437-2.868,1.876-4.411.281-.986.27-2.03.16-3.04-.15-1.367-.412-2.724-1.043-3.974-.147-.291-.304-.576-.483-.914.099-.072.205-.175.331-.235,1.903-.897,3.663-2.037,5.317-3.318,2.067-1.601,3.82-3.5,4.914-5.926.626-1.389,1.07-2.821,1.011-4.369-.008-.205-.008-.411,0-.616.055-1.433-.285-2.797-.717-4.145-.053-.166-.102-.334-.155-.508,1.868.21,3.362-.582,4.695-1.817,1.621-1.503,2.881-3.272,3.884-5.232.447-.873.883-1.752,1.327-2.627.078-.154.174-.299.279-.478.243.104.454.181.655.281.905.451,1.858.716,2.858.886.584.099,1.16.113,1.741.146.326.018.656.141.973.105,1.719-.199,3.433-.429,5.094-.958.879-.28,1.777-.533,2.684-.687.909-.154,1.815.053,2.684.345,1.327.445,2.644.921,4.011,1.23.907.205,1.813.422,2.755.408.616-.01,1.232.008,1.849-.004,2-.039,3.736-.732,5.17-2.138.256-.251.481-.535.689-.769h1.045c.684.563.974,1.33,1.011,2.238.05,1.224-.38,2.324-.851,3.407-.544,1.252-1.334,2.367-2.082,3.503-.569.864-1.138,1.73-1.654,2.625-.234.406-.382.875-.491,1.334-.107.45-.003.906.205,1.327.671.862,1.518.951,2.52.671,1.122-.313,2.044-.933,2.96-1.614.817-.608,1.388-1.394,1.914-2.236.555-.887.864-1.852,1.015-2.885.224-1.538.26-3.083.331-4.631.037-.808.048-1.626.144-2.43.054-.449.306-.875.491-1.374.425.673.781,1.281,1.182,1.859.656.947,1.437,1.743,2.586,2.108.999.318,1.977.299,2.975.015,1.299-.369,2.438-1.051,3.57-1.75.58-.358,1.156-.72,1.718-1.07.713.998,1.72,1.558,2.83,1.945.373.13.792.169,1.191.173.812.008,1.634.102,2.429-.156.475-.154.969-.273,1.413-.491.321-.158.558-.122.853.021.813.395,1.623.802,2.462,1.133.79.312,1.608.581,2.477.567.292-.005.584-.065.899-.103-.685,1.625-.879,3.323-.725,5.046.115,1.296.318,2.585.668,3.849.548,1.981,1.293,3.89,2.111,5.769.672,1.542,1.398,3.062,2.148,4.568.428.861.954,1.672,1.645,2.36.435.432.845.895,1.595.928.106-.048.308-.14.563-.256-.259.864-.506,1.663-.737,2.467-.365,1.27-.715,2.544-1.082,3.814-.319,1.101-.657,2.197-.975,3.299-.097.335-.178.677-.227,1.021-.079.55-.127,1.104-.184,1.657-.05.477-.175.964-.125,1.431.131,1.196.027,2.404.164,3.589.1.867.043,1.731.131,2.589.129,1.273.139,2.546.144,3.822.003.738-.176,1.45-.268,2.174-.108.853-.31,1.679-.512,2.506-.5,2.044-1.111,4.052-2.111,5.919-.681,1.27-1.453,2.473-2.347,3.613-1.207,1.539-2.573,2.924-4.008,4.228-1.839,1.671-3.639,3.376-5.405,5.123-.993.983-2.142,1.788-3.37,2.451-1.773.957-3.566,1.882-5.378,2.761Z" stroke-width="0"/>
        <path d="m230.395,213.597c-.006-.012-.011-.024-.018-.04-.009-.004-.016-.008-.024-.012.001.01.004.021.005.031.015.008.026.014.037.02Z" stroke-width="0"/>
        <path d="m230.395,213.597h0c.015.033.01.021,0,0Z" stroke-width="0"/>
        <path d="m275.036,78.791c.664-1.516,1.314-3.037,1.971-4.555.538-1.243,1.074-2.486,1.621-3.725.064-.145.182-.267.277-.398-.003.003-.007.005-.01.008.02-.099.024-.206.063-.297.283-.669.592-1.327.857-2.003,1.005-2.561,1.998-5.128,2.998-7.69.026-.066.099-.115.19-.217.287.299.554.605.851.878.512.472.696.481,1.347.139.066-.161.132-.323.188-.46-.384-1.092-1.128-1.907-1.844-2.715-.706-.798-1.415-1.596-2.225-2.313-1.126-.996-2.232-2.012-3.434-2.917-1.17-.881-2.38-1.688-3.721-2.301-1.563-.714-3.219-.941-4.902-1.056-.267-.018-.542.085-.815.124-.094.013-.192.002-.352.002.123-.367.239-.663.323-.968.424-1.544,1.101-2.909,2.457-3.881.997-.715,2.067-1.134,3.291-1.15.557-.007,1.104.043,1.662.13,1.072.167,2.114.44,3.116.82,1.746.662,3.386,1.554,4.929,2.607,1.029.703,2.029,1.452,2.88,2.375.576.625.876,1.368.759,2.222-.117.845-.279,1.684-.441,2.522-.194,1.006-.357,2.02-.738,2.982-.109.275-.146.578-.208.836.23.243.419.444.595.631.8-.15,1.142-.717,1.422-1.317.446-.956.7-1.979.925-3.005.177-.808.362-1.621.439-2.442.087-.928-.18-1.81-.736-2.562-.378-.51-.82-.975-1.262-1.434-.797-.827-1.655-1.588-2.577-2.277-1.238-.926-2.574-1.656-4.031-2.183-1.937-.701-3.885-1.335-5.996-1.494.198-.22.411-.401.555-.626,1.108-1.725,2.309-3.382,3.576-4.993.479-.609.974-1.166,1.636-1.373.908-.141,1.647.151,2.397.351,1.34.357,2.589.937,3.809,1.59.659.353,1.261.755,1.798,1.454.024.375.08.851.076,1.327-.003.323-.101.643-.136.967-.098.9-.315,1.774-.578,2.636-.291.955-.594,1.906-.887,2.861-.179.583-.085.854.418,1.225.1.073.208.134.279.18.762-.141,1.218-.604,1.518-1.212.344-.696.641-1.415.94-2.132.435-1.042.733-2.133.886-3.245.092-.67.056-1.385-.073-2.051-.212-1.096-.914-1.894-1.835-2.505-1.766-1.172-3.602-2.224-5.511-3.142-.704-.338-1.457-.553-2.259-.519-.41.017-.821.003-1.154.003-.937.366-1.68.863-2.234,1.623-.224.307-.477.593-.724.884-.643.756-1.295,1.506-1.934,2.265-.836.993-1.664,1.992-2.528,3.028-.05.162-.115.375-.168.547.11.341.207.646.315.984-.241.054-.437.085-.626.144-.904.28-1.704.763-2.434,1.348-.555.445-1.105.918-1.566,1.457-.875,1.024-1.443,2.244-1.953,3.477-.268.647-.707,1.34-.113,2.058.014.017.018.049.015.072-.08.545.211.901.601,1.142-.241.522-.465.997-.681,1.475-1.001,2.219-1.988,4.445-3.006,6.657-.641,1.393-1.311,2.774-2,4.145-1.889,3.757-3.728,7.538-5.75,11.228-.97,1.77-1.984,3.512-3.16,5.155-.868,1.212-1.712,2.442-2.594,3.644-1.347,1.837-2.718,3.657-4.081,5.487-.162.066-.321.143-.487.197-1.969.641-3.941,1.274-5.908,1.92-.997.327-1.984.681-2.978,1.016-1.524.512-3.01,1.117-4.415,1.9-1.332.743-2.627,1.548-3.653,2.704-.454.512-.851,1.074-1.297,1.593-1.308,1.522-2.415,3.185-3.403,4.922-1.169,2.058-2.289,4.146-3.381,6.247-1.37,2.636-2.691,5.298-4.031,7.95-1.703,3.37-3.356,6.764-4.972,10.178-1.657,3.498-3.482,6.916-5.059,10.455-.613,1.378-1.332,2.709-1.958,4.081-.645,1.413-1.23,2.853-1.851,4.277-.451,1.035-.919,2.063-1.375,3.096-.719,1.628-1.412,3.269-2.16,4.885-1.1,2.376-2.332,4.687-3.604,6.975-.711,1.277-1.475,2.525-2.21,3.788-.773,1.328-1.544,2.658-2.311,3.989-.616,1.069-1.207,2.154-1.845,3.211-1.25,2.07-2.505,4.132-3.49,6.353-1.026,2.313-1.98,4.65-2.746,7.061-.422,1.329-.756,2.674-.624,4.089.005.051.01.101.014.152.147.265.293.529.445.802.401.111.703.55,1.181.263.064.124.12.234.176.345-.348.674-.357.678-.029,1.327.182.358.364.725.605,1.042.629.829,1.253,1.659,2.105,2.294.935.697,1.813,1.472,2.743,2.177,1.249.948,2.526,1.859,3.788,2.79,1.384,1.021,2.754,2.062,4.151,3.066,2.28,1.639,4.746,2.95,7.316,4.072.436.191.874.378,1.316.554,1.861.738,3.728,1.459,5.584,2.208,1.738.702,3.468,1.425,5.289,1.887.823.209,1.659.374,2.495.522.767.136,1.546.204,2.314.336.713.123,1.419.29,2.127.441,1.074.23,2.153.444,3.221.7.727.174,1.438.414,2.159.613.979.27,1.63-.043,1.995-.946-.096-.307-.192-.617-.301-.968.515.211.481.966,1.126.896q.548-.795.585-1.796c.663-1.06,1.365-2.138,2.022-3.243,1.133-1.905,2.312-3.787,3.335-5.751,1.345-2.585,2.547-5.244,3.831-7.861.655-1.335,1.36-2.645,2.035-3.971.605-1.189,1.182-2.393,1.801-3.575,1.19-2.275,2.43-4.524,3.594-6.812.946-1.86,1.821-3.756,2.709-5.644.995-2.114,1.96-4.242,2.955-6.356,1.081-2.298,2.201-4.578,3.266-6.883.552-1.195,1.003-2.432.742-3.791-.165-.197-.329-.393-.453-.54h-1.042c-.091.112-.226.268-.346.435-.073.101-.129.217-.184.329-1.57,3.207-3.299,6.336-4.692,9.629-.723,1.707-1.485,3.399-2.151,5.128-1.153,2.991-2.384,5.948-3.701,8.869-.889,1.97-1.828,3.917-2.767,5.864-.821,1.703-1.639,3.41-2.52,5.082-.986,1.87-2.038,3.706-3.067,5.553-.527.946-1.062,1.887-1.598,2.827-.961,1.685-1.924,3.368-2.89,5.05-.629,1.095-1.266,2.186-1.91,3.295-.085-.092-.144-.143-.187-.205-.544-.789-1.025-1.631-1.643-2.357-.895-1.051-1.876-2.029-2.845-3.014-.41-.417-.855-.812-1.332-1.148-1.382-.971-2.821-1.859-4.319-2.638-1.714-.892-3.478-1.678-5.27-2.406-2.575-1.046-5.168-2.036-7.823-2.863-1.312-.409-2.615-.85-3.911-1.311-1.603-.57-3.193-1.183-4.792-1.764-1.761-.639-3.529-1.257-5.354-1.694-.875-.209-1.746-.445-2.631-.6-1.114-.195-2.238-.35-3.364-.464-1.011-.102-2.031-.126-3.048-.182-.171-.009-.342-.001-.595-.001.159-.553.275-1.034.434-1.501.981-2.878,2.288-5.618,3.575-8.364,1.336-2.851,2.836-5.618,4.345-8.38.277-.508.525-1.033.817-1.533.9-1.547,1.82-3.083,2.723-4.629.902-1.544,1.767-3.111,2.695-4.639,1.285-2.116,2.293-4.367,3.299-6.618.716-1.6,1.358-3.233,2.044-4.847.648-1.522,1.352-3.022,1.956-4.561.671-1.706,1.43-3.369,2.203-5.029.933-2.003,1.834-4.021,2.784-6.016.716-1.502,1.518-2.963,2.225-4.468,1.036-2.203,1.954-4.463,3.04-6.641,2.617-5.245,5.147-10.536,8.026-15.648.977-1.735,1.922-3.487,3.042-5.135.683-1.005,1.287-2.083,2.229-2.883.655-.557,1.34-1.084,2.042-1.582,1.505-1.068,3.139-1.908,4.856-2.575,1.746-.679,3.508-1.319,5.265-1.97.624-.231,1.255-.445,1.901-.674.152.283.282.526.405.755.27.124.52.238.787.361.332-.136.707-.204.967-.414.615-.495,1.224-1.015,1.748-1.603,1.083-1.215,2.114-2.477,3.158-3.726.767-.917,1.548-1.823,2.272-2.772,1.455-1.908,2.822-3.875,3.957-5.999,1.14-2.133,2.341-4.233,3.477-6.368.805-1.511,1.555-3.051,2.315-4.585,1.716-3.463,3.455-6.913,4.749-10.569.677-1.914,1.262-3.841,1.529-5.894.55-.004,1.091.024,1.646.132.94.182,1.851.45,2.715.841,2.162.979,4.001,2.45,5.816,3.948.647.535,1.283,1.083,1.918,1.634.229.199.437.422.656.634-.434.763-.88,1.466-1.249,2.208-1.511,3.04-3.001,6.091-4.494,9.14-.752,1.536-1.497,3.075-2.238,4.616-.272.566-.532,1.138-.781,1.714-.648,1.495-1.262,3.005-1.935,4.488-.788,1.734-1.483,3.504-2.116,5.298-.756,2.143-1.493,4.291-1.894,6.543-.195,1.094-.449,2.175-.424,3.291.059,2.583-.165,5.171.142,7.75.078.654.064,1.324.19,1.968.237,1.201.525,2.393.829,3.58.373,1.455.747,2.911.983,4.393.163,1.022.273,2.06.31,3.094.075,2.096.019,4.193-.151,6.285-.002.026.002.052-.003.077-.236,1.086-.234,2.205-.446,3.295-.138.714-.284,1.427-.402,2.144-.118.716-.483,1.391-.326,2.295.054.053.197.194.299.295.704.008,1.114-.305,1.35-.826.237-.523.464-1.059.609-1.612.355-1.359.665-2.726.815-4.132.102-.954.294-1.899.285-2.865,0-.103-.016-.21.007-.307.295-1.24.148-2.499.1-3.743-.041-1.051-.27-2.096-.424-3.142-.154-1.045-.267-2.1-.489-3.13-.29-1.344-.63-2.677-.938-4.017-.285-1.235-.494-2.486-.531-3.728-.068-2.245-.172-4.497.082-6.747.116-1.028.279-2.04.486-3.05.312-1.518.727-3.008,1.177-4.49.824-2.715,2.024-5.279,3.151-7.873.39-.897.812-1.781,1.204-2.677Zm-87.915,113.768c.091.036.198.039.298.045.939.058,1.886.054,2.815.186.892.127,1.789.217,2.678.403,1.126.236,2.243.493,3.358.775,1.626.412,3.205.966,4.795,1.487,1.474.484,2.934,1.008,4.409,1.485,2.596.839,5.167,1.75,7.684,2.795,2.061.856,4.134,1.704,6.083,2.805,1.604.906,3.155,1.897,4.613,3.032,1.311,1.02,2.578,2.085,3.721,3.29,1.082,1.142,2.053,2.375,2.812,3.81-.169.271-.092.572-.035.874.008.004.016.008.024.012.007.016.012.028.018.04.02.011.031.018,0,0,.01.021.015.033,0,0h0c-.011-.006-.022-.012-.037-.02-.001-.01-.004-.021-.005-.031-.239-.116-.483-.222-.715-.351-1.68-.932-3.499-1.48-5.35-1.933-1.357-.332-2.72-.643-4.092-.907-.864-.166-1.755-.191-2.622-.344-1.623-.287-3.25-.553-4.804-1.148-2.217-.849-4.435-1.695-6.673-2.485-1.281-.452-2.511-1.015-3.727-1.604-1.428-.692-2.794-1.511-4.09-2.431-1.403-.995-2.775-2.033-4.156-3.058-1.544-1.147-3.102-2.275-4.618-3.459-1.323-1.034-2.699-2.012-3.847-3.354.519.018.993-.096,1.463.089Z" stroke-width="0"/>
        <path d="m29.055,161.762c-.829.085-1.65.185-2.471.329-.892.156-1.746.411-2.596.715-.639.229-1.25.513-1.87.783-1.543.672-2.861,1.617-3.849,2.992-.494.689-.784,1.476-.828,2.306-.047.881.292,1.675.872,2.355.782.918,1.811,1.416,2.926,1.813,1.356.483,2.767.682,4.174.896.972.147,1.961.184,2.94.299.831.097,1.673.045,2.512.155.93.121,1.876.046,2.82.145,1.342.14,2.699.019,4.052.161,1.733.182,3.469-.131,5.207-.135.051,0,.103,0,.153-.007.646-.095,1.289-.235,1.939-.276.834-.052,1.651-.193,2.475-.303,1.097-.146,2.192-.294,3.286-.46,1.043-.158,2.089-.29,3.129-.478,1.01-.183,1.942-.551,2.744-1.17.812-.626,1.45-1.861.973-3.195-.218-.608-.541-1.137-.971-1.606-.712-.775-1.575-1.349-2.474-1.882-1.18-.699-2.471-1.086-3.788-1.4-.634-.151-1.275-.266-1.924-.354-.697-.095-1.392-.231-2.094-.26-.847-.034-1.695-.029-2.542-.003-.503.015-1.015.056-1.503.169-1.114.257-1.567.882-1.466,2,.261.193.561.415.889.658.413-.066.809-.135,1.207-.189.151-.021.326-.053.458,0,.678.268,1.402.128,2.101.243.915.151,1.827.309,2.739.489,1.523.301,3.018.681,4.469,1.24.94.362,1.775.856,2.414,1.636v.427c-.779.598-1.696.713-2.577.851-1.147.179-2.314.23-3.473.335-.077.007-.163-.016-.23.012-.672.287-1.398.105-2.099.258-.834.182-1.718.14-2.58.195-.077.005-.161-.013-.23.011-.857.302-1.779-.021-2.634.282-1.92.109-3.829-.151-5.746-.153-.051,0-.106.008-.153-.006-.912-.264-1.863-.115-2.791-.276-.771-.134-1.571-.095-2.351-.187-.997-.118-1.988-.289-2.98-.444-.966-.151-1.942-.262-2.893-.48-.847-.194-1.706-.371-2.503-.746-.319-.15-.648-.277-.824-.592.017-.107.002-.21.045-.253.454-.447.866-.961,1.388-1.31,1.772-1.183,3.764-1.854,5.828-2.321.855-.194,1.707-.392,2.585-.483.697-.072,1.384-.242,2.076-.369.003.018.005.036.008.055.174-.087.349-.175.539-.27.353.488.821.661,1.406.615.517-.04.689-.44.898-.776.395-.932.094-1.92.315-2.874.158-.681.058-1.411.158-2.123.115-.826.085-1.672.156-2.51.131-1.55.138-3.11.199-4.665.002-.046.037-.091.068-.161.022.09.054.159.056.229.061,2.275-.042,4.551.132,6.829.094,1.237.093,2.477.413,3.752.177.186.389.408.554.581h1.063c.214-.294.435-.595.67-.918-.062-.417-.154-.814-.174-1.215-.032-.634.052-1.266.092-1.898.098-1.553.128-3.114.156-4.668.081-4.57.038-9.141.045-13.712,0-.18-.003-.36.003-.539.008-.264.11-.449.332-.632,1.405-1.165,2.863-2.258,4.382-3.271.904-.603,1.822-1.202,2.648-1.903.934-.793,1.808-1.661,2.553-2.649.883-1.171,1.713-2.376,2.384-3.681.504-.98.958-1.985,1.41-2.931-.229-.376-.424-.696-.633-1.039-1.114-.551-2.251-1.105-3.38-1.676-1.169-.591-2.371-1.123-3.421-1.933-.75-.579-1.475-1.174-2.002-1.972-.147-.222-.346-.44-.268-.736.577-.416,1.282-.051,1.833-.359.321.055.542.103.764.128.553.062,1.11.093,1.659.176.418.063.825.194,1.241.281.539.112,1.078.258,1.623.302.556.044,1.115.03,1.662.174.241.064.491.128.738.134.579.013,1.075.22,1.556.529.613.395,1.231.794,1.886,1.112,1.353.657,2.225,1.707,2.748,3.093.336.889.701,1.767,1.066,2.645.443,1.064.912,2.118,1.347,3.185,1.011,2.476,1.905,4.997,2.82,7.509.153.419.335.827.5,1.229-.454.519-.887.988-1.291,1.481-.941,1.147-1.938,2.242-3.006,3.271-.534.514-1.083,1.012-1.639,1.502-.82.722-1.621,1.469-2.539,2.069-.119.078-.267.11-.356.145-.882-.867-1.729-1.69-2.565-2.524-1.03-1.028-2.146-1.95-3.369-2.736-1.533-.986-3.179-1.633-5.043-1.537-.683.035-1.372.058-2.044.173-.809.138-1.609.36-1.732,1.431.102.203.226.45.336.667.232.128.418.293.628.336.664.133,1.335.238,2.008.319.399.048.797.064,1.201.13,1.069.175,2.036.568,2.893,1.2,1.019.753,1.997,1.563,2.984,2.36.594.479,1.171.977,1.754,1.47.369.312.804.579,1.078.96.266.37.556.641.908.785,1.393.187,2.6-.186,3.768-.807,1.11-.592,2.058-1.395,2.962-2.242,1.212-1.135,2.365-2.33,3.386-3.651,1.022-1.323,1.998-2.668,2.715-4.199v-1.007c-.148-.195-.268-.438-.46-.588-.21-.163-.487-.238-.749-.358-.05-.12-.131-.255-.161-.4-.413-1.957-.927-3.889-1.566-5.781-.528-1.562-1.097-3.115-1.755-4.625-.643-1.474-1.384-2.911-2.255-4.27-.906-1.413-2.037-2.592-3.575-3.332-.539-.259-1.075-.525-1.605-.785.195-.745.444-1.455.556-2.185.187-1.215.47-2.411.678-3.621.212-1.238.364-2.483.552-3.723.155-1.022.195-2.063.308-3.095.096-.883.079-1.776.148-2.667.159-2.069-.094-4.138-.132-6.209,0-.051,0-.103-.006-.154-.096-.698-.252-1.393-.273-2.093-.022-.742-.22-1.445-.356-2.158-.121-.636-.319-1.286-1.035-1.568-.11-.043-.187-.173-.274-.267-.845-.907-1.899-1.524-3.003-2.033-1.041-.481-2.123-.887-3.212-1.25-1.42-.472-2.848-.937-4.303-1.277-1.316-.307-2.672-.443-4.011-.653-.447-.07-.895-.131-1.342-.2-.545-.084-1.087-.192-1.636-.254-.679-.077-1.374-.061-2.043-.186-1.028-.193-2.07-.137-3.101-.266-.83-.104-1.673-.056-2.513-.125-1.239-.101-2.502-.166-3.739.111-.793.177-1.499.471-1.681,1.406-.036.184-.166.377-.306.509-.366.346-.488.76-.437,1.128-.378.533-.738.963-1.015,1.442-.68,1.177-1.188,2.441-1.588,3.731-.725,2.341-1.32,4.717-1.589,7.167-.052.476-.064.961-.154,1.43-.148.77-.218,1.547-.279,2.325-.066.836-.112,1.673-.167,2.51-.002.026.003.053-.004.077-.26.938-.125,1.914-.275,2.868-.114.723-.068,1.466-.135,2.204-.146,1.577-.011,3.164.123,4.743.002.026,0,.052.005.077.149.787.311,1.571.438,2.361.03.186-.037.397-.091.587-.277.962-.534,1.927-.671,2.921-.058.423-.121.846-.182,1.269-.092.647-.226,1.291-.268,1.941-.048.768,0,1.541-.023,2.31-.029.944.12,1.863.321,2.78.454,2.078,1.621,3.675,3.305,4.924.895.664,1.87,1.182,2.886,1.639,2.034.915,4.111,1.689,6.281,2.231.578.144,1.251.194,1.747.765-.058.374-.154.795-.181,1.219-.046.735-.056,1.469-.133,2.206-.117,1.112-.108,2.24-.148,3.359-.127,3.506-.135,7.016-.182,10.525-.013.924,0,1.849.001,2.773,0,.18-.033.369.01.538.247.958.056,1.924.129,2.815-.782-.119-1.516-.265-2.259-.331-.605-.054-1.211.043-1.819.105Zm7.918-11.91c-.002.172-.016.345-.13.516v-1.499c.044,0,.087.001.131.002,0,.327.003.654-.001.982Zm-7.887-63.71c.719.127,1.462.068,2.169.284.071.022.153.008.23.014.734.054,1.485.027,2.196.185.749.167,1.527-.012,2.252.269.045.018.102.005.153.008.914.055,1.836.054,2.739.182.839.12,1.677.085,2.513.148.879.066,1.761.154,2.629.305,1.526.265,3.05.559,4.544.972,1.539.425,3.075.866,4.557,1.473.772.316,1.304.65,1.816,1.246-.277.525-.854.579-1.322.744-.656.231-1.351.354-2.031.515-.904.214-1.815.175-2.722.022-.616-.104-1.228-.236-1.843-.355-.566-.109-1.135-.203-1.697-.328-1.097-.243-2.19-.51-3.288-.753-1.22-.271-2.455-.483-3.663-.801-1.349-.356-2.693-.751-4.006-1.22-2.129-.761-4.192-1.682-6.123-2.874-.042-.026-.069-.075-.132-.147.388.041.714.056,1.031.112Zm-1.931,46.352c-1.223-.649-2.474-1.239-3.486-2.234-.752-.739-1.228-1.616-1.438-2.61-.192-.907-.26-1.845-.322-2.773-.028-.416.092-.842.193-1.277,1.318,3.188,2.886,6.219,5.141,8.853-.045.021-.075.047-.088.041Zm6.062,1.596c-1.07-1.138-2.177-2.243-3.208-3.415-.871-.99-1.716-2.013-2.462-3.098-.796-1.158-1.48-2.39-1.995-3.715-.308-.791-.678-1.557-.933-2.373-.491-1.575-.911-3.165-1.207-4.79-.222-1.217-.42-2.429-.481-3.67-.028-.552-.174-1.117-.096-1.664.132-.915.05-1.838.163-2.742.073-.583.094-1.161.132-1.743.02-.325.106-.645.138-.97.031-.326.044-.644.121-.973.132-.561.137-1.154.188-1.734.059-.682.089-1.367.169-2.046.068-.571.232-1.133.279-1.705.054-.655.165-1.293.31-1.933.187-.829.287-1.678.485-2.504.331-1.381.7-2.754,1.072-4.125.22-.812.477-1.615.73-2.465.24.173.46.334.682.491,1.472,1.037,3.118,1.74,4.757,2.449,1.473.637,3.041.978,4.588,1.368.97.244,1.98.327,2.969.499.764.133,1.522.3,2.285.435.422.075.85.108,1.274.171,1.116.165,2.225.355,3.329.593,1.623.35,3.28.45,4.934.314.844-.069,1.661-.346,2.463-.638.294-.107.569-.313.967-.253,0,.201,0,.374,0,.547-.003.924.009,1.849-.014,2.773-.043,1.736-.106,3.473-.16,5.209-.287.752-.068,1.557-.268,2.331-.162.629-.056,1.326-.209,1.959-.144.594-.063,1.203-.251,1.794-.118.37-.102.793-.169,1.193-.139.84-.308,1.675-.443,2.513-.136.844-.322,1.672-.504,2.503-.09.409-.224.809-.341,1.226-.862-.207-1.66-.414-2.465-.585-.686-.146-1.388-.22-2.071-.38-1.062-.248-2.135-.112-3.202-.15-.695-.025-1.337.184-1.977.422-.302.112-.618.184-.944.246-1.052.722-1.3,1.718-1.076,2.959.144.794.386,1.528.87,2.138.474.598,1.038,1.142,1.632,1.623,1.443,1.168,3.108,1.944,4.845,2.569.325.117.67.183,1.031.279-.007.469-.281.819-.476,1.181-.899,1.667-2.039,3.159-3.439,4.434-.731.666-1.531,1.256-2.291,1.89-1.296,1.079-2.605,2.145-3.733,3.406-.405.453-.759.952-1.146,1.422-.239.29-.346.614-.322.987.064,1.02-.128,2.013-.28,3.016-.121.801-.12,1.62-.183,2.43-.041.529-.118,1.056-.144,1.586-.025.533-.005,1.068-.005,1.602-.049,0-.099,0-.148-.001v-.746c0-1.181.013-2.363-.008-3.544-.014-.812.086-1.63-.125-2.438-.069-.264-.011-.561-.011-.856.395-.18.631-.489.692-.989-.157-.537-.565-.951-1.097-1.284-.32-.201-.6-.468-.887-.718-.423-.369-.851-.734-1.249-1.129-.38-.376-.719-.793-1.085-1.183Z" stroke-width="0"/>
        <path d="m15.166,125.914c-.554.265-1.06.478-1.537.741-1.942,1.068-2.543,2.708-2.107,4.875.231,1.149.811,2.11,1.431,3.049.867,1.313,1.885,2.515,2.904,3.716.617.727,1.293,1.425,1.687,2.335-.441.283-.9.544-1.321.858-.456.341-.775.802-.958,1.44-.094.898.197,1.767.832,2.508.515.603,1.117,1.118,1.779,1.559,1.644,1.093,3.427,1.887,5.308,2.469.537.166,1.078.321,1.563.465-.27.692-.537,1.313-.755,1.952-.371,1.089-.43,2.165.179,3.214.405.697.94,1.243,1.64,1.638.437.246.861.514,1.312.784,0,.147-.013.275.002.399.08.672.636.987,1.253.703.157-.073.31-.173.439-.289.636-.571.857-1.295.757-2.104-.261-.58-.676-.968-1.231-1.223-.412-.189-.818-.393-1.214-.613-.591-.328-.91-.91-.743-1.441.293-.927.63-1.84.885-2.577.464-.413.784-.697,1.059-.941v-.612c-.514-.833-1.323-1.069-2.108-1.366-1.853-.702-3.717-1.383-5.4-2.458-.763-.487-1.531-.965-2.179-1.611,1.39-1.347,1.294-1.748,1.232-2.897-.394-1.256-1.165-2.11-1.884-2.986-1.192-1.449-2.323-2.94-3.275-4.556-.528-.896-.914-1.853-.855-2.62.237-1.173.942-1.559,1.63-1.944.526-.294,1.094-.512,1.618-.81.707-.402.907-1.171.519-1.877-.096-.175-.212-.35-.356-.487-1.076-1.022-2.036-2.147-2.882-3.359-.747-1.069-1.48-2.156-1.926-3.434.25-.219.491-.43.754-.661-.222-.212-.46-.439-.651-.622-.581-.08-1.037.012-1.375.401-.469-.234-.912-.476-1.373-.68-.462-.205-.995-.267-1.379-.651.601-.849,1.419-1.476,1.724-2.469.026-.248.02-.505.026-.761.018-.686-.157-1.298-.635-1.812-.416-.448-.826-.903-1.223-1.368-.529-.618-1.087-1.217-1.555-1.879-.769-1.088-1.495-2.204-1.882-3.508-.083-.281-.123-.528-.097-.791.571-.338,1.171-.177,1.746-.224.606-.05,1.211-.105,1.801-.157.129-.056.245-.108.361-.157.691-.288,1.078-1.093.696-1.896-.15-.314-.353-.607-.56-.889-.655-.896-1.354-1.762-1.764-2.813-.219-.561-.471-1.107-.447-1.735.016-.426.19-.796.554-.931.484-.179,1.02-.306,1.533-.299.725.009,1.447.197,2.174.237.448.025.78.183,1.064.503.317.358.707.565,1.211.583.203-.18.411-.363.52-.46.077-.503.024-.841.157-1.202.223-.61-.1-1.204-.712-1.393-.327-.101-.517-.246-.672-.541-.233-.445-.524-.861-.791-1.29-1.027-1.648-2.057-3.295-3.08-4.945-.571-.921-1.156-1.835-1.692-2.777-1.083-1.903-1.887-3.93-2.572-6.003-.612-1.85-1.193-3.706-1.586-5.622-.172-.839-.307-1.683-.388-2.524-.104-1.08-.007-2.165.258-3.244.463-1.888,1.272-3.545,2.736-4.863.507-.457,1.081-.722,1.724-.882.194-.048.388-.095.594-.145.473.124.967.218,1.436.383,1.839.647,3.524,1.6,5.136,2.678,2.288,1.53,4.54,3.112,6.824,4.647.941.632,1.919,1.21,2.89,1.795,1.23.741,2.496,1.424,3.7,2.203,2.054,1.33,4.067,2.725,6.108,4.075,1.808,1.196,3.627,2.377,5.544,3.394,2.419,1.282,4.902,2.429,7.452,3.424,1.28.499,2.58.95,3.856,1.459.517.206.976.199,1.465-.104.058-.406-.076-.696-.313-.95-.54-.58-1.109-1.119-1.851-1.442-1.607-.699-3.21-1.41-4.818-2.107-2.497-1.082-4.908-2.328-7.186-3.82-2.553-1.672-5.086-3.376-7.652-5.027-1.376-.885-2.804-1.69-4.21-2.529-1.017-.607-2.065-1.167-3.048-1.823-1.974-1.316-3.935-2.654-5.862-4.039-2.033-1.461-4.144-2.771-6.446-3.767-.965-.418-1.943-.652-3.006-.636-.998.015-1.862.334-2.71.818-1.094.624-1.912,1.541-2.613,2.534C.808,63.304-.032,65.752,0,68.461c.011.863.01,1.721.121,2.59.14,1.101.361,2.177.603,3.254.258,1.146.629,2.26.954,3.387.479,1.663,1.057,3.286,1.769,4.858.676,1.494,1.487,2.918,2.423,4.27,1.216,1.755,2.419,3.52,3.654,5.32-.408,0-.79.008-1.172-.002-.51-.014-1.012.015-1.506.163-1.714.512-2.453,1.539-2.666,2.949-.153,1.018.11,1.996.537,2.941.459,1.017,1.119,1.903,1.758,2.886-.45,0-.858-.021-1.263.007-.349.024-.718.045-1.036.173-.53.213-1.047.451-1.42.947-.601.798-.549,1.685-.353,2.547.262,1.16.846,2.205,1.482,3.202.571.894,1.21,1.743,1.825,2.608.51.718,1.028,1.429,1.552,2.157-.314.418-.603.802-.891,1.186-.621.825-1.128,1.689-.961,2.688.386,1.213,1.251,1.743,2.314,2.076.973.305,1.953.503,3.015.438.926,2.612,2.595,4.756,4.428,6.81Z" stroke-width="0"/>
        <path d="m280.255,71.878c.777.011,1.571-.08,2.328-.255,1.28-.296,2.583-.395,3.875-.561,1.133-.146,2.288-.157,3.434-.17,2.225-.025,4.451-.046,6.671.15.051.005.108-.011.153.005.803.298,1.659.061,2.483.271.553.141,1.154.07,1.737.15.98.134,1.978.147,2.97.176,1.001.029,2.003.015,3.004.019.58.003,1.165-.036,1.764.25-.045.177-.074.373-.144.553-.381.989-1.139,1.691-1.922,2.334-1.213.997-2.613,1.709-4.041,2.346-1.712.764-3.496,1.338-5.28,1.91-.689.221-1.388.445-2.028.774-1.158.595-1.254,1.656-.267,2.43.113.089.266.133.406.182.306.107.62.192.921.308.582.224,1.201.366,1.705.767.298.237.588.466.762.83.31.648.012,1.171-.302,1.69-.485.805-1.217,1.379-1.96,1.909-.943.673-1.946,1.262-2.931,1.875-.58.362-1.178.696-1.647,1.21-.767.84-.58,2.096.413,2.669.283.163.58.305.877.44.365.166.74.31,1.107.471.435.191.782.469.886.95v.708c-.557,1.512-1.535,2.635-2.637,3.666-.24.225-.506.424-.763.631-.731.589-1.472,1.165-2.192,1.766-.666.555-1.309,1.136-1.886,1.639-.042.17-.051.219-.066.267-.333,1.086.009,1.723,1.079,2.099.507.179,1.034.194,1.551.282.698.119,1.377.276,1.996.623.582.326.891.92.754,1.531-.256,1.145-.717,2.187-1.549,3.056-.798.834-1.735,1.491-2.629,2.204-.557.445-1.119.895-1.605,1.413-.871.929-.898,2.189.056,3.099.389.37.761.757,1.191,1.186-.08.277-.133.574-.25.845-.285.662-.752,1.213-1.253,1.709-2.44,2.42-4.906,4.814-7.364,7.215-.091.088-.201.155-.295.24-.966.865-1.985,1.687-2.446,2.913v1.217c.166.163.33.325.472.465.312.062.593.191.848.153.39-.059.8-.169,1.133-.37.905-.548,1.809-1.109,2.65-1.748,1.596-1.211,3.223-2.382,4.717-3.728,1.409-1.269,2.8-2.55,3.983-4.034.743-.931,1.268-1.992,1.566-3.149.087-.337.08-.698.115-1.034-.044-1.459-.696-2.616-1.79-3.531.773-.58,1.548-1.11,2.262-1.712.959-.809,1.758-1.773,2.417-2.841.777-1.258,1.155-2.622,1.029-4.117-.105-1.25-.609-2.252-1.623-3.022-.757-.575-1.607-.888-2.533-1.12.472-.375.953-.71,1.379-1.104.86-.796,1.72-1.598,2.49-2.483.834-.958,1.491-2.033,1.889-3.248.272-.83.357-1.672.129-2.536-.359-1.358-1.306-2.178-2.554-2.829.112-.085.209-.168.315-.238,1.059-.695,2.091-1.418,3.067-2.236.977-.819,1.727-1.771,2.244-2.921.324-.718.41-1.503.233-2.237-.24-.997-.792-1.853-1.682-2.443-.406-.269-.804-.552-1.22-.838,1.411-.601,2.766-1.193,4.131-1.757,2.014-.833,3.9-1.863,5.582-3.276.656-.551,1.188-1.176,1.656-1.867.249-.37.445-.789.593-1.211.123-.349.257-.761.184-1.101-.184-.86-.721-1.463-1.562-1.818-.715-.302-1.474-.322-2.211-.421-.873-.117-1.75-.236-2.627-.317-1.007-.093-2.008-.238-3.014-.312-1.01-.073-2.011-.181-3.015-.31-.749-.096-1.494-.222-2.242-.302-1.03-.111-2.061-.223-3.093-.309-1.192-.1-2.393-.05-3.592-.137-1.034-.075-2.091.013-3.124.145-.504.065-1.012.064-1.509.147-.714.119-1.419.294-2.129.436-1.301.261-2.577.575-3.573,1.539v.826c.15.836.788.939,1.339.947Z" stroke-width="0"/>
        <path d="m134.991,229.768c.737,1.371,1.031,2.859,1.249,4.382.069.478.077.959.153,1.43.154.95.28,1.899.283,2.863.001.719-.004,1.438.018,2.157.022.736-.065,1.473.112,2.208.081.34.093.738-.002,1.07-.188.66-.077,1.32-.12,1.977-.024.373.066.704.372.976h.439c.695-.448,1.105-1.11,1.291-1.897.116-.488.159-.996.195-1.498.071-.989.146-1.98.162-2.971.026-1.694.007-3.389.006-5.084,0-.231.043-.48-.028-.69-.238-.709-.144-1.452-.25-2.176-.134-.922-.281-1.843-.571-2.716-.54-1.627-1.43-3.071-2.68-4.258-.813-.771-1.641-1.536-2.531-2.213-1.566-1.191-3.188-2.296-4.96-3.187-1.753-.881-3.613-1.189-5.525-1.318-.734-.05-1.468.009-2.205.115-.801.116-1.625.079-2.427.193-1.089.155-2.163.419-3.251.585-1.415.216-2.774.632-4.134,1.057-1.536.479-3.002,1.132-4.437,1.843-1.173.581-2.311,1.234-3.452,1.878-.987.557-1.973,1.12-2.928,1.728-1.306.83-2.583,1.705-3.889,2.572-.071-1.596.032-2.313.515-3.511.674-1.671,1.334-3.348,2.037-5.007.735-1.731,1.49-3.453,2.279-5.159.94-2.033,1.975-4.023,3.166-5.92,1.074-1.709,2.187-3.397,3.341-5.053,1.144-1.64,2.41-3.194,3.532-4.848,1.215-1.791,2.406-3.6,3.471-5.494,1.2-2.133,2.205-4.348,3.015-6.641.959-2.71,1.808-5.459,2.066-8.358.061-.685.153-1.371.098-2.048-.074-.905-.233-1.816-1.279-2.35-.218.031-.485.023-.712.112-.525.208-.809.619-.765,1.193.081,1.05-.081,2.089-.184,3.123-.1,1.015-.404,2.009-.571,3.02-.249,1.509-.658,2.979-1.117,4.429-.406,1.285-.916,2.537-1.458,3.778-.788,1.807-1.746,3.514-2.766,5.192-1.109,1.827-2.527,3.42-3.863,5.075-.719.89-1.484,1.742-2.183,2.647-1.114,1.442-2.211,2.9-3.278,4.377-1.985,2.746-3.567,5.718-4.843,8.853-1.008,2.475-1.948,4.976-2.699,7.544-.332,1.135-.657,2.276-.611,3.474.042,1.074.397,1.98,1.489,2.423.028.011.031.086.056.165-.367.329-.748.669-1.129,1.009.028.028.056.055.085.083-.066.214-.131.429-.205.668.118.24.24.488.401.815.319.057.683.122,1.045.186.582-.393,1.122-.764,1.668-1.127,1.449-.966,2.878-1.966,4.358-2.882,1.712-1.061,3.442-2.101,5.216-3.054,2.32-1.247,4.731-2.289,7.308-2.913,1.144-.277,2.284-.564,3.454-.71.424-.053.862-.066,1.269-.185.613-.18,1.253-.207,1.865-.235,1.113-.052,2.237-.128,3.357.099.91.184,1.81.356,2.661.756,2.879,1.355,5.401,3.198,7.615,5.476.573.589,1.016,1.257,1.402,1.974Z" stroke-width="0"/>
        <path d="m96.698,309.892c1.099.922,2.334,1.109,3.694.779,1.007-.244,1.775-.874,2.444-1.595.538-.579,1.07-1.145,1.682-1.651,1.33-1.099,2.316-2.487,3.187-3.964.767-1.302,1.519-2.614,2.32-3.894,1.133-1.809,2.562-3.345,4.387-4.477.877-.544,1.801-1.014,2.68-1.554.73-.449,1.472-.897,2.129-1.441,1.396-1.158,2.331-2.664,2.954-4.352.447-1.211.724-2.465.645-3.775-.052-.862.022-1.723-.129-2.591-.155-.896-.124-1.824-.189-2.736-.031-.427-.111-.85-.142-1.277-.031-.428-.055-.851-.129-1.28-.132-.771-.107-1.568-.191-2.35-.093-.871-.311-1.691-1.22-2.085-.669.537-.986.954-1.074,1.535-.084.549-.16,1.108-.154,1.662.02,1.942-.112,3.884.112,5.826.111.964-.031,1.956.064,2.923.07.712.022,1.417-.071,2.096-.154,1.117-.543,2.194-1.181,3.145-.323.482-.669.972-1.099,1.352-.544.481-1.164.881-1.832,1.198-1.558.739-3.017,1.657-4.338,2.751-1.557,1.289-2.837,2.847-3.876,4.59-.864,1.451-1.725,2.904-2.573,4.364-.382.659-.806,1.284-1.318,1.851-.501.556-.941,1.18-1.703,1.428-.09.029-.151.137-.235.196-.493.348-.988.693-1.413.991h-.712c-.773-.273-1.118-.85-1.229-1.51-.157-.941-.525-1.864-.318-2.799-.246-.324-.398-.675-.773-.765-.481-.115-.846.186-1.192.433-.296-.263-.213-.549-.171-.822.019-.122.104-.239.103-.357-.01-.997.343-1.929.546-2.882.138-.652.011-1.081-.494-1.46h-.647c-.487.389-.941.752-1.316,1.051h-.796c-.075-.185-.156-.342-.205-.509-.275-.945-.445-1.902-.478-2.894-.048-1.456.01-2.908.351-4.316.487-2.014,1.169-3.971,1.943-5.899.64-1.597,1.243-3.206,1.631-4.901.289-1.261.389-2.534.536-3.803.168-1.45-.089-2.904-.137-4.357-.002-.051.014-.117-.011-.151-.22-.301-.094-.647-.139-.97-.045-.323-.107-.644-.146-.968-.064-.527-.071-1.064-.18-1.581-.191-.91-.307-1.83-.445-2.747-.056-.373-.095-.749-.165-1.12-.139-.737-.319-1.467-.437-2.207-.134-.845-.169-1.708-.344-2.544-.1-.481-.025-.98-.171-1.424-.127-.387-.066-.756-.115-1.13-.049-.374-.138-.748-.142-1.123-.015-1.797-.007-3.595-.006-5.392,0-.154-.037-.325.016-.459.246-.627.108-1.299.268-1.943.188-.752.188-1.551.374-2.304.454-1.841.921-3.684,1.655-5.439.758-1.81,1.537-3.614,2.727-5.202.206-.275.352-.595.544-.926-.192-.189-.355-.351-.495-.489-.519-.105-.851.025-1.182.261-.948.674-1.712,1.521-2.366,2.468-1.137,1.646-1.948,3.459-2.616,5.333-.478,1.341-.839,2.715-1.133,4.114-.245,1.158-.411,2.323-.55,3.49-.121,1.008-.071,2.033-.129,3.052-.075,1.344.027,2.704.14,4.049.037.449.052.912.14,1.353.096.477.092.958.159,1.431.109.766.287,1.523.433,2.284.142.737.278,1.476.42,2.213.114.59.248,1.176.348,1.768.125.744.168,1.506.35,2.235.209.832.298,1.678.426,2.519.075.499.087,1.009.191,1.501.141.667.204,1.341.266,2.016.056.606-.076,1.226.142,1.82.025.068.028.163-.001.228-.193.44-.096.905-.136,1.358-.049.554-.05,1.121-.182,1.656-.345,1.405-.763,2.792-1.309,4.134-.641,1.577-1.295,3.147-1.94,4.723-.388.95-.68,1.936-.865,2.941-.194,1.061-.555,2.101-.491,3.203-.373.958-.072,1.931.062,2.859.178,1.229.736,2.361,1.723,3.201.521.444.859.976,1.015,1.644.044.188.046.473.376.516.132-.562.262-1.116.393-1.67.323-.067.6-.124.904-.187-.23,1.637-.388,3.174,1.022,4.304.241.011.441.021.656.031-.285.795-.447,1.564-.453,2.383-.009,1.223.386,2.222,1.33,3.014Z" stroke-width="0"/>
        <path d="m63.11,59.149c-.769.032-1.542-.006-2.31.028-.71.032-1.413.18-1.99.611-1.099.82-1.621,1.993-1.776,3.313-.138,1.169.009,2.332.459,3.427.502,1.219,1.304,2.143,2.637,2.519.781.22,2.432.191,3.374-.098,1.353-.416,2.617-1.022,3.82-1.763,1.554-.957,2.895-2.131,3.934-3.652.733-1.073,1.226-2.245,1.579-3.479.382-1.331.671-2.682.687-4.08.007-.525-.127-.952-.584-1.249-.867-.027-1.183.188-1.439,1.007-.111.357-.22.717-.3,1.082-.348,1.576-.889,3.079-1.703,4.475-.437.751-.977,1.437-1.623,2.009-.967.857-2.023,1.609-3.21,2.133-1.264.559-2.535,1.147-4.074.94-.171-.184-.5-.39-.603-.676-.409-1.136-.533-2.3-.1-3.473.158-.428.478-.66.891-.732.744-.129,1.493-.253,2.244-.297.613-.035,1.203-.131,1.774-.335,1.228-.44,2.277-1.613,2.248-3.106-.015-.797-.171-1.554-.42-2.291-.312-.924-.701-1.822-1.03-2.74-.221-.616-.617-1.176-.644-1.928.424.109.809.211,1.194.306,1.049.26,2.081.567,3.192.533,1.272-.04,2.25-.588,2.979-1.566.372-.5.634-1.136.546-1.768-.146-1.046-.471-2.05-1.068-2.948-.67-1.007-1.33-2.02-1.971-3.045-.538-.86-.974-1.757-.946-2.818.02-.778.284-1.472.639-2.143.272-.511.556-1.017,1.147-1.344.36.425.688.846,1.051,1.234.449.481.845,1.033,1.482,1.27h.975c.815-.689.797-.697,1.205-1.588.442-.964.677-1.986.899-3.012.19-.879.373-1.76.547-2.643.135-.687.257-1.378.376-2.068.072-.421.127-.844.202-1.346.747,1.032,1.579,1.829,2.525,2.482,1.603,1.106,3.408,1.72,5.345,1.844.907.058,1.836-.022,2.739-.153.785-.115,1.562-.345,2.315-.604,2.061-.711,3.895-1.779,5.285-3.516.414-.518.713-1.097,1.001-1.685.037-.076-.007-.191-.016-.343-.395.119-.757.196-1.094.335-1.6.657-3.185,1.352-4.791,1.992-1.146.456-2.337.766-3.585.773-.641.004-1.3.081-1.922-.031-1.008-.182-1.98-.504-2.861-1.078-1.174-.763-2.157-1.696-2.785-2.955-.312-.625-.592-1.278-.788-1.947-.155-.532-.483-.879-.857-1.198-.238-.046-.454-.088-.538-.104-.762.031-1.112.444-1.323.863-.083.397-.159.691-.199.989-.026.199-.01.406.009.607.026.275.115.549.104.821-.019.503-.098,1.004-.138,1.506-.06.758-.033,1.532-.184,2.272-.19.937-.236,1.888-.413,2.827-.219,1.158-.449,2.31-.822,3.424-.144.433-.298.901-.675,1.249-.756-.896-1.403-1.867-2.594-2.331-.116,0-.298.02-.475-.003-.834-.109-1.43.345-1.908.908-.754.887-1.28,1.909-1.614,3.041-.394,1.334-.399,2.653.07,3.942.345.951.938,1.779,1.567,2.577.594.755,1.126,1.558,1.729,2.305.418.518.502,1.142.674,1.74.037.129-.017.302-.071.438-.092.232-.219.451-.323.66-.786.457-1.577.56-2.43.317-1.201-.342-2.411-.652-3.591-.968-.15.057-.266.107-.385.145-.897.281-1.325.866-1.355,1.781-.019.603.217,1.13.427,1.666.401,1.025.817,2.045,1.226,3.067.387.966.444,1.966.323,2.992-.544.489-1.205.625-1.889.654Z" stroke-width="0"/>
        <path d="m229.071,183.947c.229.049.449.096.717.153.681-.218,1.112-.69,1.499-1.252,1.375-1.999,2.562-4.11,3.685-6.253,1.072-2.044,1.992-4.162,2.874-6.298.775-1.877,1.617-3.727,2.449-5.58.997-2.221,2.011-4.434,3.026-6.646.472-1.028.978-2.039,1.443-3.07.815-1.806,1.608-3.621,2.415-5.431.644-1.443,1.302-2.88,1.94-4.326.9-2.042,1.758-4.103,2.688-6.13,1.059-2.307,2.185-4.583,3.268-6.878.397-.839.79-1.683,1.122-2.549.203-.532.468-1.074.322-1.803-.163-.204-.399-.497-.627-.781h-1.525c-1.018-.948-2.004-1.843-2.961-2.766-.662-.638-1.417-1.148-2.142-1.704-1.534-1.178-3.303-1.942-4.976-2.872-1.384-.769-2.827-1.432-4.239-2.149-.921-.468-1.834-.952-2.754-1.422-.806-.413-1.603-.848-2.429-1.218-1.21-.543-2.44-1.042-3.666-1.548-.786-.325-1.579-.635-2.372-.941-1.025-.395-2.067-.736-3.25-.901-.272.184-.6.405-.904.611v1.08c.178.489.571.743,1.036.911.54.195,1.081.391,1.626.573.971.324,1.933.681,2.92.947,1.649.444,3.235,1.057,4.792,1.736,1.335.582,2.638,1.241,3.934,1.907,1.567.805,3.118,1.643,4.664,2.489.773.423,1.529.879,2.278,1.345,1.39.865,2.743,1.789,4.184,2.574,1.114.606,2.202,1.263,3.073,2.216.254.279.607.34.958.381.173.02.35.003.582.003-.24.479-.432.908-.664,1.315-1.112,1.946-2.262,3.872-3.347,5.832-1.499,2.707-2.797,5.515-3.968,8.375-.666,1.627-1.388,3.226-2.14,4.81-1.348,2.838-2.81,5.621-4.076,8.5-.98,2.229-2.007,4.437-3.033,6.645-.688,1.483-1.407,2.951-2.114,4.424-.207.431-.434.853-.632,1.288-1.053,2.305-2.09,4.616-3.151,6.917-.517,1.12-1.068,2.225-1.611,3.332-.422.858-.879,1.7-1.28,2.567-.279.604-.26,1.185.367,1.587Z" stroke-width="0"/>
        <path d="m141.594,4.058c-.19-.178-.376-.351-.506-.471-.88-.202-1.552.13-2.12.506-.233-.034-.382-.082-.528-.072-.453.033-.902.113-1.356.128-.535.017-1.04.151-1.55.289-1.69.458-3.225,1.241-4.699,2.172-.932.588-1.758,1.298-2.546,2.051-.454.435-.809.975-1.219,1.459-.121.143-.274.259-.395.371-.278-.379-.527-.696-.753-1.029-.532-.785-1.274-1.283-2.146-1.609-1.308-.488-2.621-.417-3.943-.042-1.736.494-3.216,1.459-4.553,2.612-1.39,1.199-2.66,2.531-3.581,4.153-.845,1.487-1.558,3.007-1.381,4.787.023.229-.037.48.033.69.362,1.08.912,2.034,1.967,2.585.21.11.467.13.666.182.254-.216.447-.38.575-.489v-.64c-.024-.033-.037-.055-.054-.075-.084-.097-.165-.197-.254-.289-.811-.828-.951-1.795-.613-2.872.519-1.648,1.493-3.033,2.609-4.303.807-.918,1.734-1.74,2.667-2.535.883-.753,1.884-1.316,3.012-1.678.844-.271,1.644-.293,2.406.101,1.218.631,1.672,1.76,1.794,3.056.018.195-.009.412-.078.595-.348.917-.487,1.857-.357,2.852.666.939.87,1.023,2.008.837.601-.336.793-.897.875-1.474.087-.609.296-1.165.545-1.711.434-.953,1.081-1.759,1.736-2.57.907-1.124,1.961-2.07,3.169-2.838,1.358-.863,2.772-1.626,4.457-1.975-.066.466-.15.861-.173,1.26-.05.865.11,1.711.3,2.549.411,1.81,1.278,3.387,2.52,4.75,1.491,1.636,3.283,2.86,5.353,3.643.79.299,1.621.503,2.445.697,1.026.241,2.078.166,3.123.173.864.006,1.712-.171,2.532-.387,2.451-.648,4.615-1.874,6.502-3.553,1.373-1.222,2.618-2.57,3.575-4.161.797-1.325,1.302-2.725,1.219-4.293-.045-.835-.243-1.609-1.062-2.098h-.781c-.417.141-.702.399-.757.806-.044.323-.001.661.026.991.02.248.108.493.11.739.007.641-.221,1.238-.474,1.807-.757,1.705-1.928,3.115-3.343,4.298-1.337,1.117-2.794,2.075-4.465,2.647-1.043.357-2.086.721-3.21.741-.273.005-.546.078-.859.126-.056-.028-.142-.091-.237-.115-.098-.025-.205-.014-.307-.015-1.39-.021-2.672-.461-3.877-1.098-1.475-.78-2.765-1.809-3.739-3.182-.392-.552-.738-1.144-1.042-1.75-.405-.809-.565-1.705-.763-2.581-.064-.286-.087-.619.092-1.075.052.744.223,1.275.674,1.686.782-.201,1.122-.771,1.345-1.386.165-1.151-.241-2.077-.923-2.943.117-.157.235-.315.312-.42v-.612Z" stroke-width="0"/>
        <path d="m119.131,171.663c-.409-.17-.869-.289-1.309-.297-.908-.017-1.809.112-2.707.271-.867.153-1.757.182-2.621.349-1.371.265-2.737.571-4.092.914-1.16.293-2.309.633-3.447,1.003-2.381.773-4.556,1.993-6.725,3.208-.992.556-2.016,1.035-3.06,1.46-1.154.469-2.35.835-3.538,1.215-1.169.373-2.374.641-3.587.778-1.343.152-2.705.02-4.043-.165-.393-.054-.802-.059-1.193-.16-.555-.144-1.11-.298-1.673-.405-2.003-.379-3.905-1.053-5.746-1.914-.433-.203-.847-.447-1.285-.637-.513-.223-1.044-.384-1.62-.117-.824-.767-1.614-1.495-2.394-2.233-1.228-1.161-2.45-2.329-3.675-3.494-.037-.035-.07-.076-.111-.107-.781-.585-1.428-1.297-2.053-2.046-1.197-1.433-2.061-3.038-2.606-4.812-.491-1.597-.931-3.21-1.395-4.815-.464-1.606-.877-3.23-1.415-4.811-.466-1.371-1.081-2.69-1.615-4.039-.195-.493-.506-.874-.935-1.172-.881.037-1.429.637-1.245,1.424.221.948.476,1.889.747,2.824.563,1.941,1.127,3.882,1.725,5.812.51,1.644,1.057,3.277,1.609,4.908.376,1.112.735,2.234,1.197,3.311.769,1.789,1.978,3.296,3.305,4.698.826.872,1.741,1.658,2.604,2.494,1.32,1.279,2.694,2.496,4.131,3.641.634.505,1.27,1.013,1.949,1.452.578.373,1.231.558,1.895.293.155.095.282.178.415.251,1.191.655,2.451,1.146,3.749,1.538.768.232,1.556.362,2.349.498,1.003.172,2,.304,3.017.283.334-.007.668.002,1.001.001,1.55-.002,3.093-.006,4.635-.29,1.258-.232,2.491-.533,3.712-.895,1.971-.585,3.856-1.399,5.731-2.233,1.514-.674,2.996-1.42,4.506-2.107,1.438-.655,2.967-1.039,4.496-1.412,1.043-.254,2.093-.475,3.141-.713,1.218-.276,2.432-.57,3.654-.827.906-.191,1.831-.301,2.732-.512.637-.149,1.246-.158,1.959.057.271-.199.589-.434.864-.636.028-.971-.261-1.516-1.033-1.836Z" stroke-width="0"/>
        <path d="m67.374,191.152c-.108.614-.009,1.254.1,1.891.293,1.703,1.236,2.89,2.686,3.744,1.089.641,2.294.709,3.506.739.245.006.493-.121.738-.121.865.002,1.71-.131,2.552-.308.137-.029.292.028.488.051.077.276.168.534.221.799.161.81.3,1.629.63,2.389.707,1.627,1.832,2.806,3.564,3.392.94.318,1.904.45,2.867.567,1.245.151,2.497-.038,3.739-.157.82-.078,1.624-.301,2.44-.425.817-.125,1.63-.263,2.436-.45.609-.141,1.236-.208,1.849-.331.905-.181,1.805-.39,2.71-.575,1.102-.225,2.209-.424,3.309-.66.853-.183,1.697-.411,2.547-.609.592-.138.955-.575,1.305-1.007.297-.367.195-.817.172-1.202-.4-.537-.942-.711-1.5-.708-1.017.006-2.038.051-3.046.174-.4.049-.8.093-1.203.129-.475.042-.949.116-1.422.187-.546.082-1.087.187-1.634.263-.5.07-1.006.097-1.504.177-.815.131-1.623.313-2.44.433-.897.132-1.802.214-2.703.328-.373.047-.743.119-1.114.186-.763.138-1.525.281-2.288.421-.443.081-.883.186-1.33.238-.701.082-1.396.283-2.108.212-.725-.072-1.397-.302-1.82-.946-.218-.331-.351-.717-.546-1.065-.313-.555-.381-1.188-.6-1.772-.359-.962-.743-1.898-2.11-2.262-.7.06-1.647.073-2.567.24-.971.176-1.918.171-2.86-.054-.982-.235-1.919-1.282-2.006-2.234-.112-1.224.029-2.448.191-3.657.05-.377.129-.757.092-1.126-.109-1.064-.771-1.961-2.023-1.911-.455.018-.908.1-1.354.129-1.04.066-2.072.259-3.124.19-.583-.038-1.151-.122-1.695-.316-.277-.099-.549-.252-.779-.435-.63-.503-1.01-1.187-1.334-1.913-.204-.457-.411-.931-.716-1.319-.486-.618-1.134-.998-1.969-.962-.435.019-.872.004-1.309.003-.514-.001-1.035.053-1.539-.018-1.099-.156-2.131-.564-3.105-1.076-1.024-.538-2.063-1.079-2.947-1.839-.627-.539-1.369-1.014-1.55-1.916-.079-.394-.115-.797-.192-1.335-.121-.315-.411-.645-.914-.733-.684.142-1.055.623-1.145,1.254-.1.7-.04,1.398.261,2.082.61,1.386,1.657,2.347,2.884,3.153.949.623,1.987,1.069,3.018,1.537,1.298.589,2.666.856,4.056,1.043.724.098,1.461.108,2.239.162.161.267.336.514.466.781.365.748.735,1.491,1.234,2.162.577.774,1.341,1.312,2.219,1.671.532.218,1.121.254,1.685.368.871.177,1.745.169,2.587.056.664-.089,1.3-.047,1.969-.081,0,.234.053.432-.009.583-.239.576-.153,1.196-.256,1.79Z" stroke-width="0"/>
        <path d="m200.732,278.361c.443,1.235,1.083,2.345,1.983,3.276.576.597,1.278,1.078,1.947,1.579.74.553,1.464,1.133,2.032,1.854,1.555,1.976,2.65,4.215,3.446,6.582.43,1.277.792,2.58,1.285,3.835.571,1.453,1.333,2.789,2.573,3.796.891.723,1.891.886,2.993.629.869-.202,1.381-.816,1.802-1.526.253-.428.449-.889.645-1.283.326,0,.559-.019.788.003.876.084,1.424-.08,1.999-.581.58-.506,1.054-1.093,1.376-1.804.227-.501.506-.979.766-1.476.502-.077.973-.149,1.468-.224.963-.363,1.595-1.126,2.028-2.034.46-.963.586-2.031.628-3.081.062-1.538.044-3.081.014-4.621-.011-.547-.132-1.096-.248-1.634-.201-.928-.474-1.841-.648-2.773-.199-1.061-.319-2.138-.485-3.206-.065-.42-.157-.837-.239-1.254-.122-.614-.246-1.228-.371-1.842-.14-.686-.296-1.369-.42-2.058-.129-.716-.252-1.435-.334-2.158-.084-.73-.115-1.466-.169-2.2-.006-.077.009-.158-.012-.23-.217-.759-.176-1.55-.281-2.323-.098-.728-.063-1.477-.199-2.195-.077-.403-.048-.813-.146-1.199-.169-.665-.192-1.344-.275-2.017-.084-.679-.061-1.374-.184-2.043-.207-1.127-.4-2.256-.884-3.322-.542-1.195-1.198-2.294-2.204-3.144-.506-.428-1.088-.716-1.8-.685-1.053.047-1.663.543-1.893,1.596-.021.094-.09.177-.107.209.073.307.132.549.186.774.334.441.74.716,1.291.669.511.832.855,1.69,1.113,2.581.374,1.292.716,2.593,1.082,3.887.19.671.426,1.33.603,2.004.454,1.725.634,3.499.929,5.253.133.794.169,1.606.335,2.392.283,1.342.594,2.68,1.036,3.982.273.803.575,1.601.777,2.422.447,1.82.861,3.649,1.244,5.483.184.882.4,1.755.519,2.657.092.691.19,1.397.065,2.044-.159.828-.01,1.665-.233,2.488-.115.423-.064.901-.186,1.345-.22.806-.407,1.627-1.161,2.111-.519.073-1.019.143-1.571.221-.607.243-1.132.66-1.425,1.327-.111.252-.192.52-.325.759-.324.588-.461,1.29-1.007,1.724h-.58c-.505-.19-.878-.331-1.229-.463-.248.076-.463.141-.658.201-.434.279-.64.687-.662,1.158-.037.786-.324,1.463-.804,2.159-.26.071-.569.156-.833.228-.79-.386-1.133-.987-1.454-1.586-.642-1.197-.984-2.51-1.396-3.794-.653-2.036-1.443-4.01-2.624-5.808-.809-1.232-1.66-2.438-2.703-3.477-.736-.733-1.591-1.346-2.381-2.026-.85-.731-1.651-1.49-2.179-2.52-.587-1.144-1.003-2.339-1.367-3.565-.264-.89-.485-1.795-.579-2.709-.065-.626-.294-1.049-.767-1.382q-.534.203-.996,1.21c.064.805.059,1.731.227,2.625.202,1.075.468,2.142.841,3.183Z" stroke-width="0"/>
        <path d="m163.956,236.289c.172-.883.315-1.774.531-2.647.468-1.887.969-3.765,1.468-5.644.461-1.741,1.047-3.439,1.804-5.077.656-1.419,1.374-2.808,2.223-4.12.563-.869,1.146-1.74,1.833-2.51,1.017-1.139,2.062-2.275,3.454-2.987.331-.169.472-.418.564-.751-.205-.192-.392-.365-.555-.518-.759-.01-.757-.004-1.428.29-1.19.52-2.267,1.239-3.229,2.087-1.186,1.045-2.274,2.193-3.232,3.471-1.767,2.359-3.082,4.939-4.061,7.71-.743,2.102-1.189,4.275-1.678,6.44-.149.659-.251,1.328-.37,1.993-.137.764-.3,1.525-.394,2.295-.095.78-.107,1.569-.18,2.352-.039.416-.132.827-.194,1.203-1.139-.141-2.232-.353-3.334-.393-1.142-.042-2.289.082-3.435.133-.026.001-.051,0-.077.004-.941.148-1.88.327-2.825.438-1.064.125-2.048.474-2.981.972-.857.457-1.416,1.099-1.173,2.223.137.197.329.377.552.503.235.133.496.292.752.304.603.027,1.216.105,1.813-.129.369-.145.763-.235,1.153-.315,1.003-.205,2.005-.429,3-.656,1.129-.259,2.27-.427,3.411-.547,1.087-.115,2.197-.025,3.305-.025.075.196.171.354.193.521.078.588.319,1.112.624,1.604.372.601.854,1.072,1.623,1.097.809.027,1.285-.476,1.261-1.338-.165-.179-.362-.352-.507-.56-.143-.205-.233-.446-.297-.572-.087-.474-.178-.843-.218-1.216-.116-1.099.096-2.187.174-3.277.057-.793.278-1.574.431-2.36Z" stroke-width="0"/>
        <path d="m257.492,156.014c.256.737.686,1.349,1.502,1.672.143.918,1.34,1.393,2.029,1.092.689-.301,1.382-.601,2.043-.958,1.323-.715,2.459-1.698,3.58-2.679,1.771-1.55,3.219-3.368,4.309-5.473.728-1.404,1.422-2.812,1.86-4.34.432-1.51.616-3.055.684-4.613.041-.96-.155-1.907-.272-2.859-.111-.905-.338-1.769-.641-2.617-.281-.79-.638-1.539-1.299-2.104-.408-.348-1.03-.447-1.554-.121-.125.078-.228.193-.337.287-.145-.06-.256-.135-.376-.149-.527-.063-1.055-.12-1.584-.154-.224-.015-.453.028-.679.052-.2.021-.399.074-.598.076-1.032.007-1.979.352-2.869.814-.438.227-.818.611-1.144.993-.237.277-.342.666-.492.978v1.324c.348.939.857,1.671,1.544,2.333-1.882.573-3.213,1.691-3.972,3.337-.055.418-.098.742-.121.925.06.796.14,1.464.54,2.047-.699.484-1.369.929-1.829,1.633-.729,1.116-1.247,2.292-1.259,3.648-.004.506.046,1.002.137,1.508.205,1.134.419,2.263.798,3.351Zm1.396-4.87c-.013-.973.403-1.817.971-2.562.334-.437.836-.743,1.226-1.143.277-.285.496-.627.66-.839.181-.858-.27-1.451-.332-2.134.089-1.02.803-1.674,1.495-2.345.346-.335.796-.412,1.232-.514.799-.188,1.19-.519,1.428-1.193.02-.658-.31-1.109-.607-1.566-.387-.594-.664-1.23-.823-1.906.409-.699,1.123-.934,1.811-1.17.588-.202,1.2-.369,1.814-.449.58-.075,1.178-.016,1.818-.016.491.812.752,1.753.984,2.688.313,1.259.37,2.551.345,3.852-.025,1.3-.294,2.543-.702,3.763-.603,1.805-1.537,3.438-2.667,4.959-.942,1.269-1.946,2.489-3.105,3.568-.967.899-1.966,1.763-3.088,2.467-.352.221-.704.507-1.209.391-.228-.339-.496-.68-.695-1.057-.136-.259-.209-.565-.247-.858-.081-.602-.05-1.226-.193-1.81-.174-.712-.108-1.418-.117-2.127Z" stroke-width="0"/>
        <path d="m178.414,255.231c.911.861,1.816,1.729,2.744,2.571.83.754,1.657,1.515,2.539,2.206,1.492,1.169,3.107,2.163,4.719,3.158,1.265.781,2.554,1.523,3.815,2.312,1.272.796,2.636,1.433,3.853,2.327.708.521,1.509.916,2.138,1.29.279,0,.429-.038.546.007.373.145.731.329,1.101.484.696.293,1.382.631,2.221.515.3-.225.268-.469.15-.76-.301-.74-.841-1.277-1.486-1.691-1.36-.872-2.761-1.678-4.118-2.554-2.417-1.559-4.814-3.15-7.221-4.726-.929-.608-1.86-1.211-2.793-1.812-1.361-.876-2.714-1.765-3.959-2.802-1.134-.945-2.245-1.918-3.366-2.879-.407-.348-.801-.711-1.222-1.039-.95-.742-1.741-1.621-2.458-2.592-.914-1.237-1.406-2.664-1.917-4.072-.502-1.381-.834-2.824-1.236-4.241-.268-.944-.287-1.931-.491-2.887-.02-.098-.032-.22.009-.305.282-.589.077-1.194.155-1.864-.479.163-.805.337-.978.751-.213.511-.368,1.04-.413,1.586-.142,1.735.085,3.45.49,5.125.37,1.525.756,3.051,1.342,4.519.673,1.684,1.526,3.242,2.834,4.517.989.964,1.999,1.907,3.004,2.855Z" stroke-width="0"/>
        <path d="m166.063,25.195c-.303-1.239-1.123-2.067-2.302-2.538-.83-.331-1.72-.36-2.59-.438-.546-.048-1.118.029-1.66.141-1.279.264-2.531.638-3.639,1.355-1.017.659-1.887,1.435-1.623,2.842.009.05.012.101.017.146.15.212.295.42.474.675.306.117.655.251.959.367.271-.089.485-.159.773-.253.115-.185.309-.399.392-.65.146-.444.405-.751.834-.915,1.079-.412,2.162-.81,3.339-.818.513-.004,1.026,0,1.537,0,.296.238.746.222.953.69-.103.19-.202.419-.34.621-.7,1.023-1.608,1.83-2.65,2.491-.256.162-.529.299-.767.484-.487.38-.538.934-.412,1.463.11.459.458.815.959.872.369.042.735.018,1.121-.107.956-.31,1.944-.515,2.963-.494.582.012,1.159.061,1.74.123,1.184.127,2.247.491,3.115,1.145.664.966.595,1.924.322,2.896-.385,1.366-1.05,2.565-2.12,3.521-.249.222-.474.471-.723.692-.443.393-.813.825-.866,1.466q.21.595.893.94c1.394-.343,2.491-1.122,3.442-2.066.788-.781,1.413-1.711,1.88-2.739.681-1.503,1.035-3.031.673-4.692-.178-.816-.496-1.514-1.07-2.12-.721-.761-1.634-1.167-2.601-1.477-.914-.293-1.863-.405-2.817-.464-.397-.024-.796-.004-1.237-.004.224-.325.436-.558.563-.83.341-.734.668-1.506.468-2.324Z" stroke-width="0"/>
        <path d="m116.379,5.254c-1.426-.14-2.433.136-3.871.811-1.836.862-3.375,2.139-4.853,3.491-1.113,1.018-2.095,2.164-3.052,3.331-.9,1.097-1.741,2.233-2.447,3.466-.261.456-.538.904-.818,1.371-.153-.247-.271-.469-.419-.668-.424-.567-1.233-.766-1.958-.589-.716.175-1.291.598-1.833,1.025-.879.693-1.651,1.5-1.912,2.669-.185.826-.435,1.637-.704,2.631-.195-.907-.393-1.646-.504-2.399-.118-.801-.153-1.614-.231-2.505-.163-.284-.252-.738-.701-.942-.464.215-.557.687-.767,1.106,0,.646.02,1.314-.006,1.98-.026.665.092,1.313.152,1.968.079.858.258,1.684.613,2.47.393.87.991,1.41,2.049,1.243.425-.173.87-.386,1.134-.813.21-.339.366-.714.521-1.084.409-.977.362-2.032.442-3.053.104-1.339.78-2.293,2.153-2.72.057.1.155.201.172.313.162,1.095.323,2.191.458,3.29.076.625.102,1.256.145,1.815.32.358.576.644.782.873h.965c.231-.159.46-.316.661-.455.276-.497.477-.973.564-1.508.08-.489.252-.963.39-1.442.363-1.262.943-2.424,1.588-3.563,1.321-2.333,2.998-4.393,4.809-6.352.344-.373.764-.674,1.135-1.023,1.022-.96,2.147-1.766,3.425-2.352.534-.245,1.081-.405,1.672-.4.539.005,1.078,0,1.639,0,.13-.083.272-.173.41-.261-.419-1.003-.391-1.049-1.802-1.727Z" stroke-width="0"/>
        <path d="m190.223,27.601c.277-.84.381-1.719.186-2.552-.475-2.027-1.856-3.302-3.725-4.088-.919-.386-1.884-.51-2.884-.494-.626.01-1.198.173-1.754.395-.556.223-.99.65-1.284,1.162-.291.506-.281,1.079-.037,1.61.289.628.927.861,1.676.672.242-.061.491-.108.739-.124.636-.041,1.28-.01,1.885.178.839.26,1.676.556,2.197,1.137.466.774.245,1.355.071,1.929-.292.965-.79,1.842-1.191,2.76-.39.892-.9,1.729-1.089,2.713-.188.981.119,1.843.98,2.303.396.212.823.365,1.232.552.32.146.644.287.95.459.86.483,1.278,1.257,1.348,2.213.054.759.016,1.518.134,2.282.112.721.073,1.463.153,2.199.108.984.27,1.943.666,2.843.275.623.668,1.173,1.26,1.578.574.393,1.177.63,1.856.781,1.267.281,2.366.052,3.364-.788-.373-.583-.887-.885-1.47-1.091-.471-.166-.954-.302-1.415-.492-.626-.259-1.018-.744-1.14-1.411-.123-.666-.246-1.336-.297-2.01-.06-.784-.046-1.569-.145-2.356-.091-.724-.174-1.446-.335-2.158-.435-1.93-1.594-3.223-3.446-3.899-.328-.12-.67-.2-.997-.32-.132-.048-.243-.155-.414-.269.303-.527.581-1.031.879-1.523.808-1.335,1.555-2.698,2.046-4.189Z" stroke-width="0"/>
        <path d="m109.232,30.286c.276-1.071.813-2.003,1.581-2.798.336-.348.472-.757.44-1.172-.262-.431-.608-.613-1.079-.697-.337.164-.771.287-1.091.55-.67.55-1.265,1.186-1.667,1.973-.757,1.485-1.141,3.048-1.108,4.729.024,1.216.292,2.335.891,3.393.595,1.051,1.425,1.873,2.495,2.384,1.4.668,2.887.663,4.36.228.664-.196,1.302-.484,1.981-.741.033.051.124.129.136.218.133,1.019.662,1.846,1.304,2.599,1.041,1.222,2.382,2.04,3.848,2.647,1.502.622,3.037,1.138,4.645,1.443,1.042.197,2.076.419,3.139.417.736-.001,1.464-.004,2.204-.129,1.404-.238,2.632-.691,3.362-2.011v-.855c-.432-.331-.896-.296-1.373-.156-.817.24-1.6.622-2.489.553-.136-.011-.281.089-.258.081-.444-.045-.717-.092-.991-.098-.887-.018-1.742-.224-2.601-.409-1.373-.295-2.697-.756-3.982-1.31-1.254-.541-2.501-1.118-3.405-2.216-.75-.911-.997-1.901-.533-3.021.133-.32.262-.641.376-.922-.427-1.146-.851-1.351-1.964-1-.726.577-1.168,1.321-1.321,2.214-.634.509-1.354.789-2.093,1.05-.901.317-1.809.286-2.68.016-.793-.245-1.377-.838-1.805-1.559-.571-.961-.762-2.016-.746-3.114.004-.298.084-.595.14-.891.089-.466.166-.936.285-1.395Z" stroke-width="0"/>
        <path d="m214.362,255.8c-.111-1.035.037-2.083-.144-3.128-.124-.718-.076-1.464-.152-2.2-.108-1.03-.207-2.06-.317-3.09-.089-.827-.212-1.648-.313-2.473-.125-1.023-.289-2.037-.466-3.051-.214-1.232-.473-2.451-.764-3.668-.725-3.03-1.912-5.857-3.581-8.479-.653-1.025-1.335-2.036-2.217-2.892-.35-.34-.733-.536-1.32-.422-.142.214-.319.482-.506.764.227.464.397.828.581,1.186,1.337,2.61,2.672,5.222,3.435,8.074.348,1.301.67,2.611.957,3.926.203.929.289,1.885.495,2.813.262,1.177.475,2.359.605,3.557.047.425.1.85.167,1.272.085.544.205,1.083.275,1.629.077.602.102,1.21.176,1.813.08.647.218,1.288.282,1.937.083.833.117,1.672.172,2.508.003.051-.01.107.007.153.304.855-.02,1.778.289,2.632-.01,1.194.157,2.372.289,3.556.117,1.056.53,1.881,1.329,2.477h.657c.162-.569.51-1.078.22-1.684-.041-.084-.008-.203-.01-.305-.063-2.3.102-4.603-.145-6.902Z" stroke-width="0"/>
        <path d="m84.298,65.216c.226-.846.49-1.682.914-2.456.445-.812.94-1.563,1.992-1.613.237-.258.458-.498.653-.709-.175-.899-.82-1.101-1.531-1.263-.098.04-.212.122-.33.129-1.028.063-1.701.701-2.322,1.421-.75.871-1.227,1.897-1.653,2.952-.694,1.719-.996,3.522-1.1,5.357-.037.652.07,1.314.133,1.97.048.501.074,1.014.206,1.495.461,1.688,1.272,3.171,2.594,4.364,1.312,1.184,2.85,1.757,4.586,1.869.25.016.502.002.796.002-.763,1.103-1.449,2.156-1.411,3.498-.352.702.138,1.395.023,2.095.355,1.427.933,2.771,1.794,3.95.914,1.249,1.924,2.433,2.952,3.592,1.053,1.187,2.183,2.306,3.271,3.461.296.314.568.652.854.977.236.268.48.529.897.605.165-.157.348-.332.496-.473.127-.412-.041-.697-.246-.959-.596-.758-1.192-1.518-1.807-2.26-1.088-1.312-2.204-2.6-3.281-3.921-.815-1-1.478-2.101-2.004-3.281-.373-.833-.544-1.73-.601-2.624-.079-1.221.388-2.319,1.049-3.324.319-.485.711-.923,1.059-1.391.134-.18.237-.383.335-.544v-.716c-.218-.169-.456-.353-.746-.577-.494.073-.941.179-1.39.194-.683.023-1.361-.011-2.049-.116-.879-.134-1.672-.447-2.347-.963-1.54-1.177-2.231-2.856-2.377-4.725-.093-1.186-.101-2.388.097-3.588.135-.818.285-1.629.496-2.428Z" stroke-width="0"/>
        <path d="m203.859,214.539c-.472-.812-1.076-1.545-1.773-2.182-.392-.358-.834-.661-1.257-.984-1.297-.991-2.78-1.619-4.315-2.103-1.213-.383-2.448-.695-3.734-.822-.954-.095-1.906-.224-2.863-.256-.603-.02-1.211.087-1.817.126-.58.037-1.157.046-1.741.129-.946.133-1.889.273-2.812.507-1.314.333-2.603.747-3.73,1.535-.248.174-.483.384-.674.619-.321.395-.315.765-.032,1.188.086.128.193.241.258.32.559.075.942.008,1.334-.15.576-.233,1.171-.429,1.773-.59,1.307-.349,2.62-.65,3.974-.804,1.134-.129,2.27-.171,3.404-.256.344-.026.696.09,1.047.127.578.061,1.171.051,1.733.179,1.289.295,2.553.653,3.789,1.165,2.018.835,3.595,2.152,4.82,3.919,1.18,1.701,2.08,3.568,3.071,5.379.544.993,1.056,2.004,1.531,3.031.392.847.96,1.291,1.943,1.092.515-.384.624-.841.413-1.511-1.068-3.393-2.556-6.593-4.342-9.658Z" stroke-width="0"/>
        <path d="m95.623,38.832h1.057c.103-.108.188-.197.302-.316-.15-.257-.285-.493-.411-.71-.248-.126-.473-.241-.643-.328-.738-.142-1.302.142-1.802.548-.616.501-1.125,1.104-1.495,1.815-.665,1.28-.803,2.68-.931,4.082-.044.483.107.96.114,1.432.018,1.078.278,2.088.642,3.084.43,1.176.987,2.271,2.061,2.996.799.54,1.654.759,2.645.541.688-.151,1.244-.526,1.869-.8.093.201.2.401.281.611.389,1.005.97,1.889,1.733,2.641,1.002.988,2.044,1.936,3.048,2.921.491.482.923,1.023,1.405,1.515.916.934,1.637,2,2.11,3.214.398,1.02.641,2.071.113,3.135-.223.449-.436.903-.68,1.34-.191.341-.34.674-.184,1.113.208.082.437.172.69.271.571-.195,1.081-.378,1.511-.768.965-.876,1.308-2.018,1.417-3.242.127-1.415-.224-2.751-.858-4.012-.445-.884-.973-1.717-1.654-2.44-.894-.949-1.758-1.933-2.72-2.809-.866-.788-1.796-1.506-2.615-2.35-.622-.642-1.143-1.343-1.45-2.195-.093-.258-.272-.485-.372-.742-.144-.371-.45-.54-.777-.681-.182-.078-.386-.105-.616-.165-.297.128-.667.206-.927.418-.561.457-1.2.725-1.862.95-.553-.123-.96-.428-1.24-.917-.569-.992-.956-2.075-1.039-3.189-.119-1.591-.191-3.212.286-4.774.232-.76.43-1.549.994-2.192Z" stroke-width="0"/>
        <path d="m114.361,210.968c-1.31.303-2.619.629-3.906,1.022-1.972.601-3.856,1.412-5.625,2.49-1.396.851-2.531,1.958-3.389,3.334-.367.589-.61,1.259-.674,1.978.191.205.365.391.512.549h.539c.122-.172.228-.343.355-.497.341-.411.654-.856,1.047-1.211.543-.492,1.123-.952,1.733-1.358,1.323-.883,2.771-1.525,4.282-2.009,1.164-.373,2.345-.686,3.538-.969,1.321-.314,2.656-.513,3.991-.706.978-.141,1.978-.147,2.969-.168,1.232-.026,2.465-.024,3.696.001.709.015,1.416.1,2.124.153.026.002.052,0,.077.006.876.2,1.765.358,2.626.611,1.177.347,2.341.729,3.32,1.544.349.291.676.689,1.16.749.462-.282.611-.705.712-1.213-.137-.278-.272-.605-.453-.905-.192-.318-.392-.613-.704-.866-1.039-.84-2.223-1.373-3.471-1.784-1.092-.36-2.198-.652-3.349-.805-.748-.099-1.503-.258-2.246-.258-2.376-.002-4.757-.185-7.129.128-.576.076-1.171.054-1.733.184Z" stroke-width="0"/>
        <path d="m128.523,19.226c-.114-.548-.448-.861-.931-1.039-1.647-.129-3.075.197-3.863,1.84,0,.208.018.39-.003.567-.121,1.009.426,1.693,1.128,2.287.248.21.542.371.831.526,1.024.549,2.139.842,3.264,1.089.807.177,1.633.274,2.43.482.717.187,1.518.32,1.807,1.46-.06,1.013-.132,2.258-.211,3.503-.006.097-.073.188-.087.286-.161,1.132.001,2.174.888,2.991.528.486,1.224.579,1.886.664.751.096,1.512.006,2.276.144.664.12,1.365.009,2.042.175.655.161,1.318.264,1.904.651.585.388,1.039.883,1.441,1.449.671.942,1.067,2,1.192,3.128.079.721.069,1.457-.092,2.202-.186.863-.506,1.611-1.029,2.316-.426.573-.9,1.145-.998,1.934.047.043.102.095.192.179.084-.058.123-.108.168-.113,1.045-.106,1.804-.728,2.364-1.516,1.308-1.839,1.712-3.92,1.229-6.118-.269-1.227-.813-2.353-1.583-3.382-1.195-1.598-2.754-2.401-4.732-2.416-1.31-.01-2.619-.009-3.928.005-.464.005-.908-.028-1.391-.326-.052-.173-.155-.404-.188-.645-.109-.793.099-1.569.199-2.345.122-.954.334-1.903.234-2.863-.056-.536-.189-1.074-.502-1.559-.561-.868-1.337-1.455-2.28-1.811-1.05-.397-2.129-.717-3.184-1.101-.917-.334-1.859-.628-2.636-1.3.213-.25.483-.336.79-.396.59-.115,1.083-.395,1.373-.948Z" stroke-width="0"/>
        <path d="m200.283,217.561c-.897-.62-1.869-1.087-2.859-1.525-1.304-.577-2.648-1.046-4.031-1.386-1.236-.304-2.458-.663-3.736-.806-.773-.087-1.535-.277-2.32-.273-.685.003-1.365.057-2.049.117-.959.084-1.887.274-2.81.505-1.87.468-3.599,1.244-5.115,2.457-.74.592-1.35,1.243-1.239,2.316.163.401.405.734.94.762,1.857-.942,3.791-1.743,5.845-2.243.976-.237,1.962-.459,2.957-.5,1.114-.046,2.231-.07,3.357.092,1.043.15,2.085.288,3.125.47,1.482.259,2.926.639,4.349,1.109,1.338.443,2.645.961,3.743,1.886.53.446,1.126.648,1.804.552.207-.182.397-.348.576-.505-.543-1.327-1.428-2.263-2.535-3.028Z" stroke-width="0"/>
        <path d="m129.024,254.266c.975-1.641,1.924-3.298,2.516-5.126.416-1.285.811-2.572,1.013-3.918.068-.453.021-.925.155-1.352.246-.779-.115-1.295-.581-1.79h-.418c-.446.388-.811.86-.863,1.23-.176,1.242-.475,2.455-.786,3.667-.369,1.435-.87,2.821-1.546,4.137-.693,1.349-1.581,2.58-2.463,3.806-1.227,1.705-2.522,3.361-3.77,5.051-1.687,2.284-2.901,4.824-3.894,7.466-.35.929-.733,1.877-.677,2.917.009.165-.087.336-.096.37.082,1.114.453,1.886,1.507,2.184.205-.148.407-.292.59-.424.113-.226.215-.429.309-.617.023-.268.01-.531.073-.774.202-.775.472-1.526.828-2.247,1.573-3.181,3.104-6.383,4.979-9.404,1.062-1.713,2.097-3.443,3.126-5.176Z" stroke-width="0"/>
        <path d="m146.218,232.914c-.275-.809-.023-1.667-.272-2.485-.144-.475-.064-1.016-.196-1.497-.265-.962-.445-1.943-.714-2.907-.449-1.609-1.091-3.122-1.88-4.581-.267-.494-.666-.832-1.409-.769-.169.17-.403.405-.581.583,0,.551-.08,1.005.014,1.419.366,1.608.813,3.197,1.081,4.828.215,1.308.544,2.599.712,3.912.125.975.215,1.958.309,2.938.111,1.166.146,2.341.159,3.513.01.889.047,1.776-.102,2.67-.124.745-.031,1.517-.168,2.277-.09.493-.196.983-.277,1.475-.119.716-.468,1.397-.329,2.172.121.182.253.381.421.634.366-.191.696-.316.973-.516.808-.586,1.259-1.417,1.504-2.366.22-.85.395-1.704.498-2.584.106-.902.247-1.804.266-2.71.037-1.797.009-3.595.008-5.392,0-.205.045-.428-.018-.613Z" stroke-width="0"/>
        <path d="m150.514,184.461c1.967.021,3.938-.13,5.904.117.83.104,1.671.049,2.512.14,1.003.109,2.009.188,3.013.323.747.1,1.496.167,2.238.319.907.187,1.829.3,2.737.483.91.184,1.8.451,2.61.925.348.203.688.419.978.596h.793c.176-.193.36-.394.516-.565-.172-.548-.403-.974-.754-1.365-.908-1.015-2.115-1.44-3.364-1.75-1.283-.318-2.576-.601-3.886-.82-1.134-.19-2.27-.384-3.407-.553-1.072-.159-2.163-.22-3.246-.307-1.32-.106-2.653-.002-3.978-.15-.366-.041-.749.092-1.125.106-1.145.044-2.295-.047-3.435.167-.494.093-1.018.059-1.501.185-1.036.27-2.094.453-3.092.884-.921.399-1.777.853-2.389,1.645v.767c.21.067.397.128.605.195.363-.156.683-.306,1.011-.433,1.304-.506,2.693-.587,4.058-.752,1.059-.128,2.136-.167,3.204-.155Z" stroke-width="0"/>
        <path d="m169.832,239.875c.178-.829.393-1.651.587-2.476.394-1.677.769-3.358,1.18-5.031.357-1.454.773-2.893,1.123-4.348.439-1.827,1.056-3.593,1.762-5.328.328-.806.704-1.593,1.055-2.383-.248-.163-.456-.299-.729-.479-.348.202-.68.342-.948.56-.932.759-1.645,1.697-2.211,2.76-.817,1.532-1.421,3.147-1.953,4.792-.561,1.738-.896,3.532-1.268,5.316-.226,1.077-.416,2.162-.61,3.245-.075.421-.12.848-.167,1.274-.061.552-.05,1.121-.179,1.656-.251,1.041-.125,2.086-.11,3.126.008.576.439.969.965,1.163.519.192.953-.048,1.278-.449.413-.51.601-.876-.067-1.455.04-.231.085-.45.116-.671.061-.424.087-.855.176-1.272Z" stroke-width="0"/>
        <path d="m199.328,172.208c-.81-.128-1.361.098-1.918.579v.614c.309.468.749.615,1.266.767,2.16.636,4.344,1.17,6.539,1.663,1.489.334,2.962.729,4.42,1.184,1.973.615,3.84,1.473,5.658,2.443,2.091,1.115,4.171,2.252,6.267,3.356,1.179.621,2.384,1.194,3.574,1.795.315.159.611.275.904-.105v-.726c-.293-.362-.627-.655-1.044-.882-1.13-.613-2.246-1.254-3.357-1.901-1.722-1.003-3.44-2.014-5.153-3.033-1.95-1.16-3.997-2.12-6.124-2.895-2.115-.77-4.304-1.311-6.484-1.865-1.503-.382-3.008-.752-4.548-.996Z" stroke-width="0"/>
        <path d="m71.665,68.152c.27-.617.48-1.28.986-1.735.714-.167.725-.175,1.15-.796-.334-1.079-.963-1.394-2.006-1.074-.765.234-1.234.806-1.663,1.392-.989,1.352-1.574,2.903-2.005,4.506-.214.795-.428,1.616-.452,2.43-.039,1.32-.104,2.641.098,3.97.226,1.489.68,2.878,1.421,4.167.643,1.12,1.535,2.019,2.742,2.547.382.167.773.389,1.283.184-.407-.755-.791-1.512-1.217-2.244-.518-.891-.971-1.806-1.283-2.793-.236-.744-.351-1.506-.489-2.271-.24-1.331-.139-2.644.096-3.93.273-1.493.724-2.956,1.337-4.355Z" stroke-width="0"/>
        <path d="m229.793,147.908c.098.021.211.03.306.005.611-.166,1.235-.316,1.574-.945.403-.737.245-1.452-.159-2.133-.27-.455-.542-.918-.877-1.323-.908-1.097-1.807-2.208-2.791-3.236-1.65-1.724-3.354-3.396-5.056-5.068-.252-.247-.53-.557-1-.512-.118.181-.241.369-.418.642.523.614.998,1.208,1.512,1.767,1.449,1.573,2.924,3.123,4.369,4.7.722.788,1.423,1.598,2.091,2.433.344.429.586.939.889,1.402.151.232.176.459.091.725-.511.081-.952-.115-1.405-.245-1.279-.365-2.488-.915-3.717-1.41-1.161-.467-2.342-.893-3.47-1.43-1.358-.647-2.756-1.231-4.013-2.148-.172.009-.373.02-.559.031-.182.197-.337.366-.475.516-.095.488.128.825.453,1.093.311.256.648.481.984.704,1.072.713,2.248,1.224,3.427,1.722.83.35,1.656.71,2.501,1.019.843.309,1.725.515,2.556.849,1.033.414,2.113.611,3.188.844Z" stroke-width="0"/>
        <path d="m209.691,162.596c-.898-.698-1.935-1.209-2.723-2.057-.207-.222-.507-.334-.851-.263-.348.249-.641.552-.727,1.118.207.295.401.697.707.978.557.513,1.173.964,1.777,1.423,1.107.84,2.225,1.667,3.337,2.5,1.274.955,2.546,1.913,3.823,2.864.18.134.398.218.576.353.791.601,1.65,1.047,2.646,1.181.088-.033.183-.1.276-.097.506.013.929-.18,1.325-.476.823-.617,1.483-1.374,2.053-2.228.675-1.01,1.113-2.135,1.623-3.225.18-.386.296-.807.176-1.253-.248-.167-.532-.37-.822-.172-.306.209-.651.367-.86.73-.426.741-.898,1.457-1.374,2.168-.601.896-1.343,1.659-2.198,2.259-.573.09-.94-.084-1.323-.328-1.558-.992-2.982-2.165-4.467-3.256-.998-.732-1.998-1.462-2.975-2.221Z" stroke-width="0"/>
        <path d="m217.154,155.493c.914.773,1.827,1.535,2.846,2.154,1.062.645,2.165,1.193,3.48,1.069,1.114-.106,2.095-1.066,2.11-2.189.003-.257,0-.513,0-.686-.319-.912-.862-1.586-1.476-2.191-.486-.479-1.042-.891-1.586-1.309-1.405-1.081-2.935-1.965-4.56-2.66-.851-.364-1.746-.702-2.91-.441-.342.129-.699.495-.864,1.015v.763c.109.208.203.388.306.584v.682c.735,1.193,1.563,2.287,2.652,3.209Zm-1.128-4.498c.006.003.009.005.014.008,0,.002.002.004.003.007.536-.082.968.223,1.411.423,1.442.649,2.84,1.381,4.153,2.273.889.604,1.71,1.266,2.286,2.233v.827c-.62.44-1.238.249-1.855.007-.919-.361-1.735-.912-2.519-1.49-.835-.615-1.592-1.336-2.381-2.013-.097-.083-.229-.165-.263-.274-.22-.686-.658-1.28-.832-1.985-.003,0-.006,0-.009,0-.004-.006-.005-.009-.009-.015h0s0,0,0,0c-.057-.031-.033-.018,0,0-.033-.056-.018-.032,0,0Z" stroke-width="0"/>
        <path d="m216.043,151.01s-.002-.004-.003-.007c-.006-.003-.009-.005-.014-.008.003.006.005.008.009.015.003,0,.005,0,.009,0Z" stroke-width="0"/>
        <path d="m216.026,150.996h0c-.033-.018-.057-.031,0,0Z" stroke-width="0"/>
        <path d="m230.418,124.649c.154-.223.282-.408.397-.576v-.543q-.644-.711-1.399-.697c-.996.497-1.354,1.406-1.668,2.353-.19.571-.159,1.154-.153,1.738.01,1.009.447,1.805,1.276,2.361.411.275.876.468,1.355.718-.212.441-.089.901-.036,1.372.088.781.397,1.461.877,2.053.682.841,1.537,1.468,2.553,1.866,1.034.404,2.042.438,3.071-.062,1.12-.545,1.915-1.43,2.533-2.45.765-1.26,1.292-2.605.858-4.148-.214-.761-.606-1.392-1.205-2.138.018.514-.297.79-.161,1.163.329.9.31,1.829.268,2.672-.083.202-.138.317-.176.436-.336,1.047-.971,1.896-1.815,2.571-1.066.851-1.859.919-3.031.243-1-.578-1.522-1.498-1.703-2.565-.111-.65.02-1.354.509-1.911.161-.184.275-.41.363-.544-.249-.822-.806-.885-1.536-.789-.317.308-.691.673-1.076,1.049-.742-.087-.986-.677-1.228-1.27-.014-1.056-.155-2.137.603-3.075.18.059.361.118.523.171Z" stroke-width="0"/>
        <path d="m135.388,253.489c1.287.049,2.497-.288,3.656-.768,1.297-.538,2.547-1.187,3.812-1.798.508-.245.972-.574,1.31-1.023.322-.427.78-.817.67-1.42-.351-.464-.795-.619-1.305-.536-.417.067-.839.155-1.234.303-1.262.474-2.53.93-3.841,1.243-.825.197-1.664.34-2.5.508-.19-.155-.287-.239-.388-.317-.418-.32-1.402-.314-1.802.02-.563.471-.9,1.095-.748,1.808.27,1.266,1.331,1.94,2.37,1.98Z" stroke-width="0"/>
        <path d="m193.854,158.88c-.34-.861-.975-1.289-1.926-1.256-.46.016-.919.003-1.354.003-.252.203-.474.379-.693.555-.206-.185-.414-.372-.66-.593-.252.082-.507.164-.719.232-.136.285-.243.512-.308.646.045.342.079.588.109.836.066.551.122,1.104.197,1.653.075.547.19,1.088.248,1.637.069.654.056,1.311.139,1.971.117.927.08,1.873.16,2.812.063.746.138,1.45.563,2.081.132.069.264.138.393.205.744-.442.895-1.175.892-1.905-.006-1.323.037-2.643-.079-3.972-.11-1.255-.119-2.52-.388-3.875.418.128.721.239,1.034.313,1.122.263,2.015-.237,2.39-1.343Z" stroke-width="0"/>
        <path d="m166.586,249.877c.956.883,2.07,1.4,3.385,1.454.222.009.443.067.501.076.505-.048.855-.082,1.245-.119.525-.214,1.039-.511,1.342-1.062-.452-.628-1.014-1.031-1.727-1.214-.242-.062-.494-.091-.728-.172-.884-.306-1.733-.65-2.276-1.503-.23-.359-.574-.655-.9-.94-.67-.585-1.662-.442-2.164.285-.071.103-.153.2-.194.252-.153.912.188,1.589.759,2.181.249.257.494.52.757.763Z" stroke-width="0"/>
        <path d="m206.97,60.629c-.096-.977-.146-1.958-.338-2.922-.31-1.553-1.049-2.822-2.453-3.612-.805.019-.942.107-1.075.692.194.188.39.391.601.576.07.061.181.077.274.112.807.302,1.194.924,1.441,1.722.325,1.05.297,2.137.422,3.204.119,1.013.007,2.051.033,3.077.026,1.04.099,2.079.146,3.118.03.656.022,1.306.131,1.967.18,1.087.642,1.964,1.501,2.626.352.271.74.526,1.307.432-.261-.33-.508-.604-.712-.907-.293-.437-.652-.864-.808-1.352-.203-.636-.3-1.324-.328-1.994-.095-2.244.081-4.492-.142-6.739Z" stroke-width="0"/>
        <path d="m127.42,150.536c.117.406.09.851.18,1.267.113.523.155,1.046.165,1.577.002.079.121.156.178.225.765-.295.986-.941,1.015-1.637.023-.547-.034-1.118-.172-1.648-.377-1.45-.797-2.884-1.407-4.265-.726-1.642-1.591-3.198-2.604-4.672-.311-.453-.704-.877-1.318-1.027-.188.099-.383.203-.626.331.552.95,1.059,1.849,1.591,2.732,1.342,2.229,2.28,4.628,2.996,7.117Z" stroke-width="0"/>
        <path d="m189.861,152.229c.047-.342.144-.663.123-.976-.054-.793.05-1.584.228-2.331.34-1.424.614-2.878,1.296-4.207.164-.32.159-.726.247-1.167-.19-.171-.322-.29-.429-.387-.562-.068-.93.172-1.168.605-.338.614-.619,1.253-.788,1.941-.172.702-.35,1.4-.485,2.114-.165.871-.338,1.737-.262,2.619.067.773.344,1.461,1.238,1.79Z" stroke-width="0"/>
        <path d="m174.757,109.585c-.683-.076-1.169.049-1.629.388-.298.22-.658.375-1.013.493-1.588.53-3.191.999-4.849,1.275-.401.067-.811.055-1.196.156-.962.252-1.946.191-2.892.078-.982-.117-1.941-.496-2.808-1.005-.891-.522-1.747-1.104-2.606-1.677-.693-.463-1.343-.993-2.057-1.419-.771-.46-1.313-.541-2.051.391-.016.133-.033.283-.052.443-.667.728-1.433,1.22-2.479.987-.264.19-.507.367-.781.565.08.291.152.552.211.765.29.147.515.262.725.368,1.174.085,2.168-.392,3.057-.916.998.788,1.92,1.544,2.873,2.261,1.213.913,2.522,1.66,3.978,2.117.355.111.728.235,1.093.236,1.118.002,2.232.081,3.357-.114,1.31-.227,2.59-.55,3.867-.895,1.017-.275,1.979-.697,2.946-1.112.755-.324,1.438-.751,2.038-1.281.443-.392.849-.894.678-1.638-.142-.161-.311-.353-.41-.465Z" stroke-width="0"/>
        <path d="m148.897,87.426c-.471-.107-.735.029-.996.2-.21.137-.434.252-.654.374-1.23.684-2.546,1.149-3.879,1.592-1.687.561-3.407.973-5.148,1.3-.618.116-1.257.13-1.888.169-.384.024-.769.002-1.154.006-1.026.011-1.988-.277-2.915-.668-1.055-.445-2.006-1.066-2.821-1.881-.22-.22-.462-.397-.792-.376-.525.574-.557.729-.243,1.329.093.178.218.34.332.507.414.608.93,1.122,1.517,1.582-.951.917-1.37,2.092-1.857,3.143v1.169c.433-.151.649-.47.874-.76.418-.539.801-1.104,1.213-1.649.299-.396.62-.776.901-1.127.905.336,1.786.663,2.632.977-.156,1.119-.34,2.217-.245,3.349q.258.449.704.662c.652-.394.687-1.079.814-1.717.151-.761.348-1.506.655-2.153,1.045-.118,2.035-.23,3.029-.343-.157.316-.303.609-.437.879v1.077c.272.573.491,1.164,1.266,1.246.073-.066.163-.149.277-.252-.189-.489-.427-.973-.303-1.461.11-.237.195-.419.31-.663-.026-.305-.056-.669-.087-1.046,1.188-.342,2.383-.686,3.635-1.046.651.449,1.296.892,1.856,1.454.201.203.514.335.757.227.432-.236.472-.607.592-.957-.123-.283-.214-.606-.39-.873-.176-.268-.436-.481-.664-.723.405-.198.805-.357,1.167-.578.645-.393,1.34-.708,1.892-1.247.351-.343.547-.725.432-1.323-.118-.124-.293-.308-.38-.4Z" stroke-width="0"/>
        <path d="m181.108,89.689c.89-.258,1.771-.513,2.682-.777.031.214.06.408.082.554.813.865,1.205,1.095,1.92,1.12.119-.152.256-.326.409-.519-.191-.316-.335-.613-.533-.868-.203-.262-.46-.483-.718-.749.722-.364,1.436-.722,2.173-1.094.392.445.847.797,1.484.94.214-.108.46-.232.7-.353.127-.194.252-.383.364-.553.229-1.189-.543-2.225-1.718-2.469-.213.089-.435.151-.626.265-1.607.961-3.361,1.556-5.159,2.014-.921.235-1.871.368-2.813.522-.957.157-1.855.067-2.77-.12-1.188-.242-2.199-.836-3.125-1.593-.331-.271-.685-.428-1.145-.283-.106.115-.226.244-.371.4.036.314.073.635.122,1.06-.009.029-.07.168-.094.313-.064.372-.044.774-.181,1.114-.266.659-.064,1.124.443,1.532.919.017,1.214-.716,1.642-1.321.496.267.983.528,1.506.808-.338.935-.103,1.909-.184,2.856.207.218.33.516.748.395.139-.148.313-.333.438-.466.206-.872.315-1.696.747-2.421h2.543v.79c.142.264.26.487.372.696.23.135.443.261.683.402.135-.121.244-.217.377-.336-.224-.622.238-1.219.003-1.86Z" stroke-width="0"/>
        <path d="m139.174,75.056c.852-.209,1.723-.371,2.594-.453.815-.077,1.648-.086,2.461-.004.637.064,1.283.221,1.829.63.191.143.395.334.717.254.241-.329.283-.715.174-1.244-.245-.251-.532-.612-.883-.89-.651-.515-1.451-.696-2.251-.757-1.325-.101-2.656-.036-3.97.158-1.065.157-2.131.348-3.171.622-2.194.578-4.404,1.101-6.527,1.929-1.177.459-2.309.987-3.362,1.683-.02.013-.07-.021-.123-.038.026-.069.054-.136.077-.205.027-.083.049-.168.104-.359-1.317.587-1.826,1.736-2.541,2.705.136.261.239.46.326.626.149.086.255.154.368.21s.232.1.426.183c.464-.199.998-.407,1.512-.656.43-.208.83-.48,1.256-.697,2.06-1.044,4.226-1.818,6.434-2.472,1.506-.446,3.026-.85,4.551-1.224Z" stroke-width="0"/>
        <path d="m175.715,75.05c.154-.004.311.003.461-.023.542-.092,1.083-.2,1.624-.295.395-.069.792-.134,1.19-.191.646-.093,1.292-.237,1.941-.254,1.488-.038,2.977-.027,4.466-.004.656.01,1.325.033,1.965.167,1.146.24,2.302.455,3.402.89.713.282,1.457.414,2.282.278.031-.706-.02-.807-.414-1.265-.74-.86-1.737-1.26-2.764-1.634-1.663-.607-3.396-.859-5.138-1.051-.881-.097-1.775-.043-2.665-.136-.696-.072-1.416.113-2.124.1-1.206-.022-2.354.237-3.464.654-.801.301-1.562.71-2.028,1.483-.005.964.331,1.302,1.267,1.28Z" stroke-width="0"/>
        <path d="m166.674,97.988c.16-.048.327-.098.397-.118.923.12,1.466.668,1.922,1.28.472.633.814,1.34.62,2.177-.483.663-1.396.987-1.514,2.018.119.107.269.241.393.352,1.676.012,2.764-.754,3.221-2.264.244-.804.125-1.602-.149-2.377-.419-1.185-1.142-2.162-2.226-2.793-.781-.455-1.646-.799-2.583-.41-.322.134-.616.335-.9.493-.132.281-.249.528-.333.705.165.66.62.845,1.152.937Z" stroke-width="0"/>
        <path d="m38.172,105.221c1.114.07,2.219.201,3.328.311.982.097,1.937.3,2.881.556.923.249,1.858.45,2.805.521.944.071,1.903.063,2.848-.002.611-.042,1.274-.044,1.772-.531.067-.066.176-.102.273-.122.397-.085.674-.332.925-.679.044-.261.192-.583.122-.847-.138-.53-.323-1.067-.768-1.451-.405-.349-.784-.734-1.213-1.05-.69-.509-1.384-1.022-2.127-1.447-1.33-.763-2.759-1.299-4.239-1.714-1.5-.42-3.02-.744-4.563-.898-1.369-.136-2.751-.122-4.128-.181-1.272-.055-2.544.067-3.822-.12-.885-.13-1.736-.25-2.469-.795-.87-.009-.916.028-1.243.973.223.869.814,1.361,1.617,1.647.999.356,2.032.505,3.081.657.931.135,1.865.065,2.796.232.944.169,1.926.01,2.894.158.849.13,1.72.019,2.587.155.719.113,1.446.196,2.158.345,1.379.288,2.709.732,3.93,1.451.826.486,1.613,1.028,2.309,1.685-.212.38-.573.193-.851.279-.801.246-1.634.154-2.433.075-.965-.095-1.927-.326-2.863-.595-1.247-.358-2.529-.463-3.801-.563-1.339-.106-2.663-.239-3.987-.468-1.114-.192-2.209-.434-3.28-.787-1.637-.539-3.273-1.079-4.917-1.621-.314.212-.58.392-.808.545v.613c.259.142.531.32.825.447.62.269,1.25.516,1.88.762.957.372,1.919.729,2.874,1.104,1.238.486,2.541.739,3.826,1.053.584.143,1.183.264,1.781.302Z" stroke-width="0"/>
      </g>
    </g>
  </g>
</svg>