<?xml version="1.0" encoding="UTF-8"?>
<svg id="Layer_2" data-name="Layer 2" xmlns="http://www.w3.org/2000/svg" viewBox="0 0 93.9932531 157.5377051">
  <g id="Layer_1-2" data-name="Layer 1">
    <g>
      <path d="m.2255108,152.5084082c-.1484375,1.3359375.1357422,2.5273438.4101562,3.6787109.0556641.2333984.1113281.4648438.1621094.6962891.0732422.3320312.359375.5722656.6982422.5878906.0302734.0019531.0595703.0019531.0878906.0019531.5087891,0,.8222656-.2070312.9980469-.3867188.1953125-.2001953.4189453-.5703125.375-1.2041016-.0205078-.2929688-.0830078-.5898438-.1474609-.8837891-.0712891-.3251953-.1376953-.6318359-.1103516-.8613281.2255859-1.8291016.1367188-3.6445312.0507812-5.4003906-.0273438-.5507812-.0537109-1.1025391-.0712891-1.6552734-.0380859-1.1767578-.0126953-2.3857422.0126953-3.5556641.0117188-.5693359.0234375-1.1386719.0292969-1.7070312.0029297-.3046875-.0009766-.6103516-.0058594-.9160156-.0078125-.5830078-.0166016-1.1337891.0273438-1.6777344.1875-2.3828125.3554688-4.9423828.3105469-7.5058594-.0078125-.4179688-.0283203-.8388672-.0498047-1.2607422-.0527344-1.0400391-.1025391-2.0234375.0566406-2.9365234.3310547-1.9091797.3144531-3.8007812.2978516-5.6308594l-.0039062-.5126953c-.0107422-1.4589844.0107422-2.9179688.0332031-4.3779297.015625-1.0341797.03125-2.0683594.0351562-3.1025391.0048828-1.3671875-.0009766-2.734375-.0078125-4.1015625-.0058594-1.2050781-.0117188-2.4091797-.0097656-3.6132812.0019531-1.0273438.0126953-2.0546875.0224609-3.0820312.0175781-1.7978516.0351562-3.5957031.0107422-5.3925781-.0126953-.9208984-.0839844-1.8447266-.1533203-2.7382812-.0595703-.7753906-.1201172-1.5507812-.1416016-2.3271484-.0703125-2.4707031-.1201172-4.9433594-.1699219-7.4150391-.0351562-1.7080078-.0693359-3.4160156-.1103516-5.1240234-.0097656-.3925781-.0478516-.7851562-.0869141-1.1767578-.0390625-.3945312-.0791016-.7880859-.0810547-1.1826172-.0097656-1.7949219-.0107422-3.5888672-.0126953-5.3837891-.0019531-2.3105469-.0039062-4.6210938-.0224609-6.9316406-.0058594-.734375-.1064453-1.4541016-.2041016-2.1503906l-.078125-.5634766c-.0683594-.5214844-.6425781-.8535156-1.0712891-.8740234-.4433594.0166016-.8857422.3564453-1.0078125.7783203-.1103516.3828125-.1689453.7587891-.1748047,1.1162109-.0078125.5742188-.0019531,1.1484375.0048828,1.7236328l.0078125.9404297c.0039062,1.2949219-.0039062,2.5908203-.0107422,3.8867188-.0166016,2.9238281-.0332031,5.9482422.0800781,8.9238281l.0400391,1.0410156c.1201172,3.125.2451172,6.3564453.2421875,9.5341797-.0019531,1.7089844.0292969,3.5039062.0927734,5.3359375.0263672.7558594.0722656,1.5097656.1181641,2.2636719.0566406.9238281.1132812,1.8476562.1308594,2.7724609.0214844,1.125-.0048828,2.2783203-.03125,3.3945312-.0126953.5419922-.0253906,1.0839844-.0332031,1.6269531l-.0166016,1.5908203c-.0078125.9150391-.015625,1.8310547-.0371094,2.7470703-.0058594.2587891-.015625.515625-.0244141.7724609-.0361328.9462891-.0722656,1.9248047.0859375,2.953125.1826172,1.1914062.1796875,2.4726562-.0087891,3.6083984-.2441406,1.4746094-.2011719,2.921875-.1591797,4.3212891.0126953.4443359.0263672.8896484.0302734,1.3339844.0009766.1455078.0068359.2910156.0126953.4375.0097656.2265625.0214844.453125.0029297.6777344-.2041016,2.5732422-.3623047,4.9003906-.2099609,7.3291016.0830078,1.3251953.1503906,3.0537109-.0751953,4.6660156-.3183594,2.28125-.2832031,4.5791016-.25,6.8017578.0253906,1.7480469.0527344,3.5566406-.0966797,5.3095703-.0458984.5361328-.0058594,1.1113281.1152344,1.6650391.1962891.9003906.2255859,1.890625.0917969,3.1152344Z" stroke-width="0"/>
      <g>
        <path d="m80.3358623,148.6246191c.3789062-.0820312.7568359-.1699219,1.1357422-.2578125,1.0878906-.2509766,2.2128906-.5107422,3.3085938-.640625,1.671875-.1972656,3.1699219-1.0351562,4.7167969-2.6367188,1.2236328-1.2685547,1.390625-2.6357422.5410156-4.4316406-.9892578-2.0869141-1.7255859-3.8369141-2.3164062-5.5087891-.640625-1.8125-1.4619141-3.4609375-2.4423828-4.9003906-.2460938-.3613281-.4541016-.7792969-.6738281-1.2226562-.0849609-.1708984-.1699219-.3417969-.2568359-.5107422-.1962891-.3779297-.390625-.7597656-.5839844-1.140625-.2919922-.5742188-.5839844-1.1484375-.8857422-1.7158203-.4707031-.8867188-.9501953-1.7685547-1.453125-2.6279297-.3603516-.6191406-.7167969-1.2421875-1.0722656-1.8662109-.9199219-1.6103516-1.8701172-3.2753906-2.9013672-4.8369141-1.8789062-2.8457031-3.8339844-5.6894531-5.7246094-8.4404297-.8876953-1.2910156-1.7753906-2.5820312-2.6582031-3.8769531-.1015625-.1494141-.1826172-.3193359-.265625-.4882812l-1.5429688-2.9902344c-1.0429688-2.0175781-2.0849609-4.0361328-3.1367188-6.046875-.3427734-.6552734-.7080078-1.2929688-1.0732422-1.9316406l-.3349609-.5878906c1.2011719-3.8544922,2.8554688-6.8486328,4.3232422-9.2773438l.2451172-.4140625c.3154297-.5390625.640625-1.0966797,1.0146484-1.4277344.9892578-.875,1.5371094-2.0244141,1.9824219-3.1357422.0673828-.1679688.1298828-.3398438.1923828-.5126953.1210938-.3359375.2363281-.6533203.3828125-.9160156,1.5273438-2.7246094,2.9443359-5.78125,4.3330078-9.3457031l.5830078-1.5107422c1.1767578-3.0634766,2.3945312-6.2314453,4.0996094-8.9726562.1162109-.1875.2099609-.3964844.2714844-.6025391.3427734-1.1367188.8261719-2.1767578,1.3369141-3.2773438.3066406-.6591797.6113281-1.3173828.8857422-1.9951172,1.0878906-2.6904297,2.3359375-5.9082031,3.3398438-9.3701172.5585938-1.9277344,1.2607422-3.8447266,1.9404297-5.6982422.3847656-1.0498047.7695312-2.1005859,1.1328125-3.1601562l.1210938-.3515625c.4697266-1.3671875.9560547-2.7802734,1.2929688-4.2382812.7597656-3.2841797,1.4863281-6.6357422,2.1894531-9.8779297l.8388672-3.8476562c.0595703-.2578125.1279297-.5498047.1494141-.8574219.0703125-.953125.1337891-1.9072266.1972656-2.8613281.1181641-1.7734375.2363281-3.5478516.3955078-5.3154297.1533203-1.7070312-.3183594-3.1083984-.7998047-4.2539062-.0976562-.2333984-.3066406-.4013672-.5546875-.4472656-1.7480469-.3222656-3.3369141-.2285156-4.6640625-.0927734-1.4003906.1445312-2.8476562.2949219-4.2714844.2685547-1.6875-.0341797-3.3554688.1582031-4.9707031.3408203-.4951172.0556641-.9912109.1123047-1.4863281.1621094-1.8623047.1865234-3.7216797.4121094-5.5322266.6318359l-1.8710938.2255859c-.0585938-.0703125-.1152344-.1386719-.1708984-.2060547-.2958984-.3564453-.5751953-.6933594-.9091797-.9794922-.5664062-.4833984-1.1513672-.6953125-1.7314453-.640625-.6044922.0625-1.1630859.4189453-1.6591797,1.0615234-.4794922.6210938-.8662109,1.2148438-1.1826172,1.8164062-1.7148438,3.2626953-3.4892578,6.6376953-5.2080078,10.0332031-.2792969.5517578-.5556641,1.1044922-.8320312,1.6582031-1.0722656,2.1494141-2.1816406,4.3710938-3.4433594,6.4101562-1.0673828,1.7255859-2.1386719,3.6376953-3.2734375,5.8466797-1.2099609,2.3564453-2.3916016,4.734375-3.5732422,7.1113281-.7070312,1.4238281-1.4140625,2.8476562-2.1279297,4.2666016-1.1591797,2.3056641-2.3320312,4.6015625-3.5039062,6.8974609l-.6757812,1.3232422c-.1328125.2597656-.2597656.5263672-.3867188.7929688-.3056641.6416016-.5947266,1.2470703-.9580078,1.7519531-1.7216797,2.3945312-3.0810547,5.1025391-4.3955078,7.7207031-.296875.5908203-.59375,1.1816406-.8945312,1.7695312-.2167969.4248047-.4228516.8613281-.6279297,1.2978516-.4257812.9042969-.8271484,1.7568359-1.3300781,2.5058594-.3828125.5683594-.7255859,1.1708984-1.0585938,1.7539062-.640625,1.1220703-1.2451172,2.1826172-2.0859375,2.984375-.3388672.3242188-.5566406.7519531-.7607422,1.1523438-.3974609.7783203-.3779297,1.4296875.0585938,1.9335938.3427734.3974609.7207031.4384766.9287109.4296875.5996094-.0292969.9570312-.5380859,1.1064453-.7519531.6826172-.96875,1.3886719-1.9697266,2.0214844-3.0253906.2792969-.4628906.5605469-.9238281.8427734-1.3847656,1.3740234-2.2451172,2.7939453-4.5664062,3.7939453-7.2109375.1699219-.4482422.4306641-.8710938.7060547-1.3173828.1181641-.1923828.2363281-.3837891.3486328-.578125.2900391-.5039062.5830078-1.0058594.8759766-1.5078125.3583984-.6132812.7167969-1.2275391,1.0703125-1.8457031,1.28125-2.2421875,2.5615234-4.484375,3.8251953-6.7402344.359375-.6416016.6992188-1.2998047,1.0390625-1.9580078l2.2167969-4.2226562c1.3154297-2.4931641,2.6298828-4.9873047,3.9267578-7.4941406.7314453-1.4140625,1.4492188-2.8378906,2.1660156-4.2626953.8066406-1.6005859,1.6123047-3.2011719,2.4384766-4.7861328.25-.4794922.5478516-.9277344.8623047-1.4013672.3164062-.4755859.6425781-.9667969.9257812-1.5039062l1.2666016-2.3955078c1.7763672-3.3496094,3.6132812-6.8125,5.2539062-10.3583984.4658203-1.0068359,1.0048828-2.0009766,1.5263672-2.9628906.1972656-.3623047.3935547-.7246094.5869141-1.0888672.1435547-.2705078.2519531-.4453125.3496094-.5537109.4863281,1.5722656,1.890625,1.5234375,2.3759766,1.5146484.2773438-.0087891.5117188-.1054688.6816406-.1757812.0585938-.0244141.1464844-.0605469.1777344-.0664062,1.2460938-.1865234,2.4931641-.3681641,3.7421875-.5205078.515625-.0625,1.0341797-.1083984,1.5517578-.1542969.4726562-.0419922.9453125-.0839844,1.4169922-.1376953.3710938-.0419922.7421875-.0986328,1.1132812-.15625.4775391-.0732422.9550781-.1474609,1.4355469-.1845703.7412109-.0585938,1.484375-.0986328,2.2275391-.1386719,1.1044922-.0595703,2.2470703-.1210938,3.3759766-.2421875.5644531-.0615234,1.1318359-.0722656,1.7324219-.0839844,1.1660156-.0214844,2.3710938-.0449219,3.5742188-.4501953.0566406-.0146484.2539062.0419922.3691406.0722656.0224609.0058594.0439453.0117188.0654297.0175781.3291016.5957031.4736328,1.2714844.4511719,2.1005859-.0478516,1.8339844-.21875,3.7001953-.3837891,5.5058594-.0791016.8720703-.1591797,1.7441406-.2265625,2.6162109-.1240234,1.6220703-.5205078,3.2734375-.9042969,4.8691406-.1240234.5185547-.2490234,1.0361328-.3642578,1.5537109-.4345703,1.9326172-.90625,3.7783203-1.4785156,5.9912109l-.1865234.7226562c-.3632812,1.4121094-.7392578,2.8720703-1.1865234,4.2607422-1.0185547,3.1660156-2.1650391,6.6025391-3.5058594,10.5029297-.8564453,2.4921875-1.6669922,4.7158203-2.4785156,6.7988281-.4414062,1.1347656-.9511719,2.2636719-1.4453125,3.3564453-.1972656.4365234-.3945312.8730469-.5888672,1.3125l-.3027344.6914062c-.3300781.7568359-.6601562,1.5136719-1.0244141,2.2451172-.3183594.6367188-.6523438,1.2626953-.9863281,1.8886719-.4902344.9179688-.9970703,1.8671875-1.4482422,2.8457031-.4638672,1.0048828-.875,2.0527344-1.2734375,3.0664062-.2548828.6484375-.5097656,1.296875-.7783203,1.9365234-.3076172.7314453-.6074219,1.4667969-.9082031,2.2021484-1.0019531,2.453125-2.0380859,4.9912109-3.3212891,7.2880859-.3554688.6337891-.6621094,1.3027344-.9580078,1.9492188-.1855469.4033203-.3701172.8056641-.5664062,1.2001953l-.0654297.1328125c-.1552734.3154297-.3164062.6425781-.4873047.8037109-1.3886719,1.3056641-2.2763672,3.0273438-3.1347656,4.6933594-.7226562,1.3994141-1.4335938,2.8076172-2.1425781,4.2138672l-.6025391,1.1923828c-.3632812-.3876953-.9550781-.9609375-1.9384766-.7353516-.2626953.0585938-.4726562.2539062-.5517578.5117188-.0791016.2568359-.0146484.5371094.1699219.7324219.7695312.8203125,1.1943359,1.7617188,1.1972656,2.6484375,0,.1494141.0449219.2949219.1289062.4189453l.6796875.9931641c.4433594.6464844.8388672,1.2207031,1.2138672,1.8134766.4130859.6513672.8007812,1.3623047,1.2197266,2.1337891.359375.6601562.7050781,1.3320312,1.0361328,2.0136719.3027344.6240234.5917969,1.2597656.8818359,1.8945312.6074219,1.3300781,1.234375,2.7060547,1.9804688,3.9746094,1.4111328,2.4023438,2.9726562,4.7226562,4.4824219,6.9667969l1.4287109,2.1162109c1.6582031,2.4404297,3.3710938,4.9648438,4.7490234,7.7011719.0859375.171875.1875.3310547.2900391.4902344.0654297.1015625.1318359.203125.1894531.3105469.5673828,1.0498047,1.1953125,2.0546875,1.8027344,3.0273438.8339844,1.3320312,1.6953125,2.7099609,2.3847656,4.1914062.3242188.6972656.6513672,1.3925781.9794922,2.0878906,1,2.1220703,2.0341797,4.3164062,2.9453125,6.5361328.4746094,1.1552734,1.0097656,2.3837891,1.6816406,3.8642578.2236328.4921875.0410156.7646484-.0195312.8544922-.7285156,1.0859375-1.5537109,1.7128906-2.5224609,1.9150391-.4111328.0869141-.8203125.1816406-1.2304688.2763672-.4394531.1015625-.8779297.203125-1.3183594.2939453-.3486328.0712891-.6962891.1494141-1.0439453.2285156-1.6972656.3828125-3.2998047.7460938-4.9072266.2617188-.3623047-.1074219-.6660156-.0556641-.9257812-.0878906-.7587891-.0878906-1.5185547-.1728516-2.2773438-.2578125-1.8574219-.2080078-3.7773438-.4228516-5.65625-.6865234-1.8847656-.2626953-3.7607422-.1523438-5.5771484-.046875-.7060547.0410156-1.4130859.0820312-2.1201172.1015625-.5234375.0146484-1,.2685547-1.3125.4570312-1.21875.7402344-2.2392578.4804688-3.4130859-.8564453-.4248047-.4833984-.8623047-.9511719-1.2998047-1.4189453-1.1142578-1.1914062-2.1669922-2.3173828-3.0253906-3.7041016-.2509766-.40625-.5244141-.75-.8134766-1.0224609-1.6230469-1.5283203-3.1230469-3.5058594-4.7216797-6.2216797l-.2197266-.3730469c-1.1357422-1.9296875-2.3105469-3.9257812-3.1386719-6.0419922-.2285156-.5849609-.4472656-1.1767578-.6650391-1.7685547-.5087891-1.3769531-1.0341797-2.7998047-1.6953125-4.1445312-.3388672-.6865234-.546875-1.2724609-.6357422-1.7900391-.2998047-1.7578125-.9707031-3.3017578-1.6201172-4.7939453-.2470703-.5683594-.4941406-1.1357422-.71875-1.7138672-.8623047-2.2148438-1.9550781-4.3193359-3.0117188-6.3554688l-.5214844-1.0058594c-.6386719-1.2373047-1.4257812-2.3720703-2.1142578-3.3378906-.3271484-.4589844-.7705078-.7294922-1.2470703-.7617188-.4541016-.0322266-.859375.1455078-1.1826172.4902344-.1220703.1289062-.1933594.2978516-.2021484.4746094l-.0712891,1.4023438c-.0429688.8349609-.0830078,1.6123047-.1191406,2.3896484-.0224609.4775391-.0585938.9560547-.09375,1.4345703-.0839844,1.1357422-.1699219,2.3095703-.0878906,3.4746094.1152344,1.6357422.0048828,3.2988281-.1005859,4.90625-.0390625.5859375-.078125,1.171875-.1064453,1.7597656-.0253906.5146484-.0566406,1.0302734-.0878906,1.5458984-.0751953,1.2402344-.1533203,2.5224609-.1416016,3.7949219.0107422,1.2148438.0761719,2.4414062.140625,3.6269531.0556641,1.0419922.1123047,2.0839844.1318359,3.1279297.0292969,1.5019531.0332031,3.0048828.0371094,4.5078125.0048828,1.8505859.0097656,3.765625.0634766,5.6513672.0488281,1.6972656-.0087891,3.5136719-.1816406,5.7158203-.1835938,2.3515625-.3271484,4.7070312-.4736328,7.1191406l-.1591797,2.5605469c-1.8847656.3828125-3.8369141.7773438-5.7958984.5947266-.6767578-.0605469-1.3427734-.0117188-1.9853516.0351562-.2988281.0214844-.5976562.0439453-.8974609.0537109-.2099609.0078125-.4208984.0205078-.6318359.0332031-.5097656.0302734-.9912109.0595703-1.4472656.0097656-.8896484-.0947266-1.7773438-.2138672-2.6640625-.3330078-1.2138672-.1621094-2.4677734-.3310547-3.7158203-.4335938-1.0195312-.0849609-1.9960938-.4355469-3.0478516-1.0986328v-1.1669922c0-.2539062-.1289062-.4902344-.3417969-.6289062-.2128906-.1376953-.4804688-.1582031-.7128906-.0566406-.1054688.046875-.2021484.0859375-.2910156.1220703-.2226562.0888672-.4335938.1738281-.6474609.3193359-.8378906.5712891-1.1972656,1.3359375-1.0673828,2.2744141.1328125.9433594.6777344,1.5664062,1.6191406,1.8544922.3828125.1162109.7636719.2460938,1.1455078.3759766,1.3828125.4697266,2.8076172.953125,4.3798828.8818359.2988281-.0117188.5566406-.0205078.7470703.0361328,2.1503906.6396484,4.3027344.5537109,6.3837891.4736328,1.5419922-.0605469,3-.1171875,4.4511719.0966797.0546875.0087891.1074219.0117188.1582031.0117188.1630859,0,.3076172-.0361328.4316406-.0693359.6210938-.0673828,1.2363281-.1865234,1.8300781-.3007812,1.5537109-.3007812,3.0214844-.5849609,4.4638672.0429688.484375.2119141.9189453-.0693359,1.1513672-.2226562.0400391-.0263672.0791016-.0546875.1142578-.0722656.3017578-.1416016.4736328-.4638672.4228516-.7929688-.0126953-.0849609-.0185547-.1611328-.0244141-.2265625-.0175781-.2246094-.0400391-.5029297-.2578125-.7412109-.7607422-.8378906-1.0126953-1.9042969-.7958984-3.3583984.1367188-.9082031.2089844-1.8300781.2714844-2.6972656.0517578-.71875.1152344-1.4384766.1777344-2.1572266.1533203-1.7568359.3125-3.5732422.3046875-5.3759766-.0175781-3.7099609-.1269531-7.4775391-.2324219-11.1201172-.0419922-1.4550781-.0839844-2.9091797-.1201172-4.3632812-.0039062-.1435547-.0195312-.2871094-.0371094-.4306641-.0117188-.0966797-.0244141-.1923828-.0263672-.2890625l-.0126953-.5087891c-.0771484-3.1171875-.1572266-6.3417969.2587891-9.4814453.2255859-1.6982422.2626953-3.4248047.1074219-4.9921875-.1328125-1.3447266-.0439453-2.6494141.0507812-4.0322266.0068359-.0976562.0136719-.1953125.0195312-.2929688.1699219.3769531.3359375.7568359.5019531,1.1357422.3632812.8310547.7265625,1.6611328,1.125,2.4658203,1.2753906,2.5810547,2.8730469,6.0332031,3.9072266,9.8583984.1533203.5634766.3505859,1.0595703.5888672,1.4736328.8759766,1.5273438,1.4658203,3.21875,1.9736328,4.8193359l.1621094.5273438c.2070312.6826172.4208984,1.3886719.7558594,2.0322266,1.5224609,2.9296875,3.6162109,6.7265625,6.3027344,10.1181641.6816406.8603516,1.4101562,1.6699219,2.1152344,2.453125.7353516.8164062,1.4951172,1.6611328,2.1845703,2.546875.9101562,1.1679688,2.0136719,2.3388672,3.3730469,3.5810547,1.7851562,1.6289062,3.8212891,1.9824219,5.8964844,1.0244141.40625-.1884766.8945312-.2568359,1.4111328-.3300781l.3300781-.0478516c.1660156-.0263672.3339844-.0185547.5029297-.0136719.2861328.0087891.6113281.0146484.953125-.0673828,1.3876953-.3359375,2.7929688-.1679688,4.2802734.0107422.3427734.0410156.6855469.0820312,1.0283203.1171875,1.1484375.1162109,2.3193359.2851562,3.4521484.4482422,1.0947266.1572266,2.1894531.3154297,3.3378906.4375,1.6728516.1787109,3.4052734.3652344,5.1699219-.0214844Z" stroke-width="0"/>
        <path d="m3.1844951,4.0836035c.1621094.1201172.2861328.2265625.3876953.3134766.2431641.2080078.4726562.4052734.8212891.4492188,1.4931641.1865234,3.2597656.3095703,5.0566406-.1826172,1.8466797-.5068359,4.0273438-1.0009766,6.265625-.8330078.2646484.0205078.5078125.0166016.7392578-.0097656,2.3486328-.2646484,4.6435547.0693359,7.0751953.4228516.8320312.1210938,1.6630859.2421875,2.4951172.3378906,1.5136719.1738281,3.2226562.3701172,4.8193359-.4824219.0429688.1689453.0263672.40625-.0380859.8232422-.4697266,3.0458984-.9716797,7.0722656-.6904297,11.2177734.0722656,1.0615234-.0224609,2.1386719-.1230469,3.2783203-.0419922.4765625-.0839844.9521484-.1132812,1.4267578-.0126953.21875-.0439453.4365234-.0742188.6533203-.0361328.2587891-.0712891.5175781-.0869141.7792969-.1933594,3.2880859-.3808594,6.5761719-.5566406,9.8652344l-.0107422.1933594c-.0566406,1.0566406-.1162109,2.1503906-.1044922,3.2373047.03125,2.9560547-.2158203,5.9550781-.4541016,8.8544922-.1259766,1.5263672-.2509766,3.0527344-.3398438,4.5830078-.0361328.6386719-.0869141,1.2783203-.1376953,1.9179688-.1083984,1.3613281-.2197266,2.7705078-.1923828,4.1699219.0068359.3603516.0195312.7197266.03125,1.078125.046875,1.4023438.0908203,2.7275391-.1494141,4.0595703-.2236328,1.2441406-.0224609,2.3867188.5830078,3.3027344.2109375.3212891.6425781.6210938,1.0927734.6210938.0371094,0,.0751953-.0019531.1132812-.0068359.4892578-.0556641.9023438-.4707031,1.0566406-.8505859.2158203-.5283203.28125-.9863281.1962891-1.3603516-.3369141-1.4824219-.2275391-2.9384766-.0595703-4.2919922.0712891-.5683594.0048828-1.1220703-.0585938-1.65625-.0263672-.21875-.0527344-.4365234-.0673828-.6513672-.0136719-.2080078-.0351562-.4169922-.0576172-.6259766-.0439453-.4238281-.0849609-.8232422-.0576172-1.1933594.1181641-1.5771484.2568359-3.1533203.3955078-4.7294922.0996094-1.1396484.2001953-2.2792969.2919922-3.4199219.0546875-.6650391.1152344-1.3300781.1767578-1.9941406.2304688-2.5146484.4697266-5.1142578.3222656-7.7441406-.1171875-2.0820312-.0488281-4.1748047.0908203-6.6757812.0556641-.9951172.1865234-2.0136719.3134766-2.9990234.1064453-.8261719.2128906-1.6533203.2802734-2.4853516l.0966797-1.1210938c.1503906-1.7128906.3066406-3.4833984.2294922-5.234375-.1660156-3.8212891.1523438-7.6826172.4589844-11.4160156l.1416016-1.734375c.0546875-.6865234.0654297-1.4267578.0322266-2.2617188-.0234375-.6445312-.3935547-1.2265625-.9404297-1.4833984-.484375-.2255859-1.0185547-.1679688-1.4345703.1523438-.3007812.2314453-.5908203.4853516-.8789062.7392578-.2011719.1767578-.4013672.3535156-.6054688.5205078-.5273438.4296875-1.0957031.6054688-1.7255859.5371094-1.9208984-.2060547-3.8417969-.4199219-5.7617188-.6347656-.3466797-.0390625-.6943359-.0947266-1.0429688-.1494141-.7939453-.1269531-1.6181641-.2607422-2.4580078-.2089844-2.1884766.125-4.5439453.3544922-7.4130859.7226562-.5986328.0771484-1.1953125.1806641-1.7919922.2841797-1.5654297.2724609-3.046875.53125-4.5429688.3056641-.3095703-.0449219-.5722656.0371094-.8535156.1240234-.1259766.0400391-.2792969.0878906-.4746094.1367188-.28125.0693359-.4970703.2958984-.5546875.5800781-.0566406.2841797.0546875.5761719.2871094.7490234Z" stroke-width="0"/>
      </g>
      <path d="m.0809795,59.747666c.0029297.3916016.0107422,1.4345703,1.1679688,1.6630859.0488281.0097656.0976562.0146484.1464844.0146484.3300781,0,.6298828-.2197266.7216797-.5498047.1835938-.6601562.1757812-1.2988281.1679688-1.9160156-.0048828-.3349609-.0107422-.6679688.0234375-.9960938.34375-3.3291016.6494141-6.8779297.2998047-10.4560547-.0087891-.078125-.0029297-.125-.0136719-.1044922.3779297-.8876953.3623047-1.8007812.3476562-2.6064453-.0058594-.3212891-.0117188-.6425781.0078125-.9599609.0302734-.4599609.0634766-.9189453.0976562-1.3789062.0712891-.9824219.1425781-1.9648438.1806641-2.9492188.0898438-2.2880859.15625-4.7138672.2001953-7.3056641.0302734-.9785156-.3461914-1.53125-1.0825195-1.6875.2094727-.0493164.3959961-.171875.4975586-.3652344.0517578-.0986328.1035156-.1865234.1513672-.2705078.1171875-.2021484.2392578-.4111328.3203125-.6679688.3671875-1.1689453.3544922-2.34375.3417969-3.4804688-.0058594-.4853516-.0117188-.9707031.015625-1.4511719.1738281-3.1347656.2050781-6.2792969.2128906-8.9414062.0058594-1.640625-.0556641-3.3017578-.1162109-4.9072266-.0224609-.6152344-.0458984-1.2314453-.0644531-1.8349609-.0048828-.3105469-.1748047-.5048828-.2861328-.6328125-.0439453-.0498047-.1044922-.1201172-.1855469-.2226562-.1708984-.21875-.4472656-.3232422-.7197266-.2753906s-.4960938.2412109-.5820312.5039062c-.0419922.1259766-.0820312.2285156-.1171875.3183594-.0849609.2177734-.1650391.4238281-.171875.6845703-.0234375,1.0644531-.0371094,2.1298828-.0517578,3.1953125l-.0371094,2.6630859c-.0136719.9970703-.0273438,1.9931641-.0673828,2.9882812-.0195312.4609375-.0585938.921875-.0986328,1.3808594-.0488281.578125-.0976562,1.15625-.1113281,1.7353516-.0195312.8720703.0019531,1.7441406.0224609,2.6162109.0322266,1.3291016.0654297,2.7041016-.0595703,4.0410156-.0097656.1054688-.0332031.2207031-.0566406.3408203-.1083984.5585938-.2910156,1.4941406.4208984,2.3486328.0727539.0869141.1630859.1542969.2636719.2001953-.2578125.0722656-.4633789.2885742-.5234375.5644531-.0166016.0761719-.0380859.1533203-.0585938.2314453-.0576172.21875-.1240234.4667969-.1386719.7451172-.0341797.6445312-.0595703,1.2900391-.0839844,1.9355469-.0244141.6376953-.0488281,1.2753906-.0830078,1.9121094-.0742188,1.4003906-.1523438,2.8007812-.2314453,4.2001953-.1064453,1.8857422-.2119141,3.7705078-.3066406,5.6552734-.1435547,2.8427734-.2783203,5.6289062-.3613281,8.4511719-.0419922,1.4472656-.0263672,2.9121094-.0107422,4.3300781l.0117188,1.2402344Z" stroke-width="0"/>
    </g>
  </g>
</svg>