<?xml version="1.0" encoding="UTF-8"?>
<svg id="Layer_2" data-name="Layer 2" xmlns="http://www.w3.org/2000/svg" viewBox="0 0 115.2188529 115.0185733">
  <g id="Layer_1-2" data-name="Layer 1">
    <g>
      <path d="m55.0523293,39.2554509c-5.0113303-.745998-5.8064226-6.8075024-4.1334805-10.7546276.4620854-1.0856496.8185961-2.323909,1.6800536-3.1560417.0386604-.0281167.1019229-.0351458.1476125-.0105438.3374001.186273.0597479.6642564-.0281716.941936-.0627957-.0996989-.0068919-.3376197-.0364089-.4898726-.7537959,3.1754817-1.5290912,8.4798404,1.7200869,10.4739551,1.4088266.9738693,3.1204016,1.1752715,4.7164347,1.5191241-1.1562982.9171692-2.5600725,1.7110533-4.0661268,1.4760704Z" fill="#423b30" stroke-width="0"/>
      <path d="m60.3156662,37.8342134c1.7533107-.8119239,2.2589441-2.7971971,2.7694649-4.5200848.8672236-3.2851752-.0997538-7.539497-3.5438815-8.8757254-1.9753885-.7392159-4.7768416-.3740836-5.8657312,1.5617384.0054092.0461838.0104339.0926972.0137288.1409129.0454425.1147457.2996183.1271566.2650765.1724343-.2495355-.0070292-.4076918-.0527188-.4465719-.3338855,1.219396-4.1132167,7.3841139-4.2739815,10.0732376-1.479585,3.5624704,3.2129615,4.3426532,10.5961418-.1267447,13.3447938-.9716727.5433053-2.1682513.5214215-3.1385786-.0105987Z" fill="#423b30" stroke-width="0"/>
      <path d="m62.2062379,21.1189883c-.0773209-.0597479-.0948938-.186273-.0351733-.2636213.5416029-.6637347,1.3302976-1.0598668,2.0069099-1.5709642-.3417933.4240565-.9210682.8720287-1.3213738,1.3251081,11.0516923-7.8293403,21.1390706-24.7556876,36.7691953-19.6748619,7.4118462,3.6511313,4.9236235,12.5157912.9983341,17.9209197.3878124-4.348584,1.9246742-9.6094223-1.3320068-13.2912787-.6323506-.6656842-1.4357282-1.0524807-2.3132485-1.2605825-7.253635-1.645704-14.0209394,2.7634242-19.5776892,6.8911386-4.6483671,3.4704871-9.1730922,7.2385332-14.3547425,9.8924287-.0160902.0081275-.2282283.1136474-.3059885.1266074-.2623857.0409669-.3104641.0901436-.5342168-.0948938Z" fill="#423b30" stroke-width="0"/>
      <path d="m92.1864647,40.6303672c2.5281667-1.4633026,5.566662-2.4088356,7.6959783-4.5566035,3.031878-3.2417371,4.6541332-8.20109,3.3574987-12.5381143-.7075572-2.6650707-1.6559664-5.4526852-1.2337357-8.2313758.024609-.1230104.1405834-.4533814.277659-.4955564.1933021-.0632625.2460278-.0492042.4147278.0773209.01053.0070292.0035077.0246021-.0105506.0210875-.07625-.0372052-.1462397-.0630703-.2291619-.0620818-.0366766.0203736-.07301.0426143-.1075243.065212-.2447853,3.5801531,2.456914,6.6391319,3.4015683,9.9607709,1.2069576,4.5740391-.1950114,9.9042904-3.4830971,13.3026737-2.6436469,2.5452179-6.6253344,2.6768776-10.0833626,2.4566669Z" fill="#423b30" stroke-width="0"/>
      <path d="m93.0935844,41.819697c.6935194-1.2076166,1.5689392-2.2617173,1.9369752-3.5969023.2510251-1.2439157-.0012631-2.557821-.7759268-3.5406141-.3638968-.3554672-.8693379-.5209822-1.3476302-.6554974-3.9254267-.7567064-7.929911.139842-11.8052343.8234012-5.5428837,1.1879844-11.2038903,1.7763477-16.815226,2.4544703.4012118.0303133-.1377552.1133728-.0794076-.0188909,3.071472-1.145068,6.3569492-1.8288743,9.4929468-2.8466484,5.9020302-1.6946062,11.7384366-4.2747503,17.9840174-4.1541287,8.1138844-.2353673,9.7701596,10.2567922,1.4094855,11.5348104Z" fill="#423b30" stroke-width="0"/>
      <path d="m85.6457137,43.789594c-6.9301834-.3502503-15.0801197-1.8437838-19.8958689-7.2333163-.2606833-.4289166-.1990408-.9003376.4217501-.6501706-.0510438.0732571-.2917105-.0558764-.3922331.0389075-.0124383.0317136-.0251512.0623015-.0392096.0938229.7975635,1.5089098,2.8836889,2.0092164,4.2869141,2.7174875,4.4923525,1.7771715,9.3442909,2.1452967,14.1302759,2.3051004,4.6054782-.0750968,9.1483803-1.6027877,13.7544282-.5372371-3.6256711,2.2274501-7.9945464,3.2776243-12.2660567,3.2654057Z" fill="#423b30" stroke-width="0"/>
      <path d="m52.9994826,26.5251327c-6.9613753-7.0371586-15.0006846-10.3331246-24.4515113-12.8039871-3.6349038-1.2444374-7.3330701-.2813581-10.838099.8963563-1.5386465.4402566-3.0197966,1.155145-4.2069573,2.1789324-.0388526-1.5258787.4901747-3.0094451,1.5356811-4.1261493,7.0876807-7.1566819,17.775037-2.0023245,25.2838912,1.8030915,5.2094924,2.8179552,9.4926448,7.2033874,12.6769953,12.0517563Z" fill="#423b30" stroke-width="0"/>
      <path d="m14.2565737,30.2745076c-3.0988061-3.9716449-4.1478821-10.4722802-.7554709-14.5891488.6690066-.7731536,1.5599537-1.8662717,2.6957135-1.7079781-.6590944.0873429-1.1996264.815411-1.5357635,1.4022642-2.2254045,3.7170297-1.0244464,8.2508982.9689544,11.7916496.4357535.6825981.96209,1.3537464,1.0693397,2.1751981.3012658,1.8589405-1.3388918,1.9221206-2.4427733.928015Z" fill="#423b30" stroke-width="0"/>
      <path d="m18.5296765,44.8210695c-5.6398093-1.1439697-6.4270762-10.3341131-3.6830371-14.3465326.2860817-.2570314.5696647.0696052.7767231.2811667-.088249.025014-.3106288-.1287766-.4252921-.1617258-.1964872.0033773-.2268005.3191956-.2834457.4742217-.4018707,3.7917696.5070886,8.1264325,3.0528831,10.9940312,1.3651688,1.237216,3.1959926,1.8817578,4.7271981,2.8678183-1.3024006.2184534-2.8267691.0946741-4.1650294-.1089796Z" fill="#423b30" stroke-width="0"/>
      <path d="m20.1821077,43.3508201c-.4041772-.4287793-.1651855-1.1879295-.0210875-1.6553692.3338855-1.0965503,1.1211524-2.0982068,1.8907639-2.9210039,6.8563497-6.3180142,18.2473641-5.2872526,26.725008-3.4509647,1.6502346.430564,3.3578008.9466313,4.8360404,1.7256883-2.3672097.3414364-4.572831.7765858-6.93076.8858949-7.1879562.1608197-14.6433777-2.1675374-21.5814689.688227-1.5559998.6541794-2.9430798,1.6166538-3.9646981,2.9516466-.303078.4546993-.7226589.9621723-.563926,1.520799.4950072.3158183,1.1850739-.2853403,1.6450725-.3353133-.5490714.3751269-1.3810394,1.1779623-2.0349442.5903952Z" fill="#423b30" stroke-width="0"/>
      <path d="m28.6621129,46.2576558c-2.4525482-.1393478-5.451175-.4343806-6.9938852-2.5833017-.5017618-.6778754-.2735335-2.020474.7697489-1.8732185-.7604956.0638117-.9146431,1.0372417-.3726832,1.5674222.7195287.7655478,1.8055902,1.0085484,2.8016453,1.1586321,9.5072248.3529411,18.5034071-4.3548169,27.9825152-4.0653305-2.6669653,3.5793294-7.2562984,4.1427337-11.3625683,4.7729426-4.238259.678507-8.5308568,1.1085218-12.8247726,1.0228538Z" fill="#423b30" stroke-width="0"/>
      <path d="m46.3799006,30.79376c-3.793774-.7109894-8.701067-1.8130037-11.7197379-3.6666449,3.966016,1.1221134,8.1975479,1.1821633,12.1873149,2.2569397,1.1769189.3535452,2.4391763.7908089,3.4899546,1.3425986-1.3143721.1757018-2.6393429.2143896-3.9575316.0671066Z" fill="#423b30" stroke-width="0"/>
      <path d="m52.0935162,29.8848555c-3.6138712-.4994554-6.8989091-2.7806127-9.3381403-5.4020806-.270623-.3338855-.8013252-1.2793086.003542-1.2265624.0189183.0479137-.2359165.0454974-.2706504.1580739,0,.0474743,0,.0936307-.0000824.1411325,2.605515,2.8055168,7.177028,3.2667236,9.6053311,6.3294366Z" fill="#423b30" stroke-width="0"/>
      <path d="m64.738084,25.342585c-.1085952-.0714724-.0832517-.2634291-.0562608-.3902012.8812271-1.5553408,2.5522746-2.4955744,4.0523979-3.3738635,1.4619023-.8327642,3.1527193-1.2725541,4.8325533-1.0298006-.4607675.5134588-1.1356226.9606896-1.7292852,1.3248609-2.176571,1.2854317-5.0419456,1.6244518-6.9107434,3.3276248.0917087.1203745.3700473.0679029.4299325.155438-.246268.040912-.3895422.0856131-.6185943-.0140583Z" fill="#423b30" stroke-width="0"/>
      <path d="m66.1760706,29.2210385c2.8634251-1.5011393,6.1042012-3.3572516,9.4507992-2.6778386-2.2617173,1.8065512-5.4034535,2.0530389-8.1528468,2.7768235.4187298.0556842-.9266421.2145544-1.1151391.2666965-.1931374.0292974-.3637595-.2274595-.1828133-.3656815Z" fill="#423b30" stroke-width="0"/>
      <path d="m46.2327548,56.3740569c-.305357-4.582551,1.6344464-8.9311899,3.9679106-12.7685118.7279308-1.1090161,1.4920234-2.2389549,2.4461781-3.1666129.0667771-.0492042.1511271.0386604.1053277.1053826-2.119816,5.2832163-2.5687766,11.4714655-6.5194164,15.8297421Z" fill="#423b30" stroke-width="0"/>
      <path d="m66.823111,54.8317036c-3.9904259-4.1137659-2.4366502-10.4755477-4.5973232-15.3060141-.0124658.0000549-.0248492.0000549-.0372326.0000549-.0343221.0026085-.0372875.1238616-.0680951.0738337.0020319-.1572776.1189467-.1936042.2706779-.0738612,1.2101427,1.2888365,1.7648704,3.0712249,2.3582311,4.7025411,1.1300761,3.4329799,1.9539166,7.0637925,2.073742,10.6034456Z" fill="#423b30" stroke-width="0"/>
      <path d="m51.3586935,111.634118c-4.9868655-5.557601-3.7560471-17.6171896-4.4523192-24.9184911-.6000603-11.0541635-.3955829-22.0981677.3265818-33.1354997.0126031-.0371503.0354753.0136739.0284736.0315214.6247997,13.2256549,1.9393091,26.3952686,3.1417088,39.5813569.2392114,3.1850919.6037671,6.3523363.8716718,9.5350669.1701553,2.956287-.2706504,6.0031844.0838832,8.9060456Z" fill="#423b30" stroke-width="0"/>
      <path d="m65.864618,111.4983329c-2.1337645-3.529631-2.2948313-7.7009482-1.9859323-11.6999958.1608197-4.059482.3363292-8.3386256.2917929-12.3397051-.14116-10.5515231-.9094261-21.1737223.8961091-31.6312851.2592006-1.6325244.5106581-3.3986029.8894369-4.9379633-1.7829101,15.9982499,1.9334332,31.8225828,1.3387271,47.8158904-.0492866,4.3418569-.0202363,8.7247905-1.4214846,12.7980014-.0035146,0-.0072214-.0017298-.0086492-.0049424Z" fill="#423b30" stroke-width="0"/>
      <path d="m56.4268612,113.8894308c-1.5359282-.255027-6.2091445-1.3552841-5.4719879-3.5251829-.0312194.2959664.0875626.6267767.392947.8282612,2.8521949,1.3654434,6.3809747.8623087,9.3942639.266724,1.3788702-.3375648,3.0199888-.6485849,4.2816147.1843852-.7431424.4356094-1.3727746,1.0676579-2.1368946,1.5112369-1.9382657,1.1016574-4.316486,1.1020212-6.459943.7345756Z" fill="#423b30" stroke-width="0"/>
      <path d="m1.3966415,48.7846693c1.2228831-3.3830619,4.3099922-5.4750632,6.8674563-7.809461,1.6404871-1.3363383,3.2492193-2.7951104,5.0681128-3.8730169.1611766.0271282-.0641686.210573-.105465.274165-.0389899.0084021.0008237-.0468703.0082098-.0706761-3.6113863,4.0851-6.6825837,9.2703199-11.8383139,11.4789889Z" fill="#423b30" stroke-width="0"/>
      <path d="m40.0476358,54.0773859c-4.4679975-.0340201-8.9360774-.3308102-13.3975949-.5271602-4.2988582-.2430829-8.6073265.2473389-12.8985514-.1475851-3.6582977-.3733971-7.3672-.8716169-10.8425197-2.1158071-.5042055-.2233134-1.2466477-.462058-1.4022367-1.0473735-.0128639-.1590624.364391-.1515939.3373726-.0984084-.0851188.012301-.1646912.0004942-.2350515.0529933-.0045717.0159804-.0091297.0319333-.0137426.047996,1.0884777,1.0322718,2.9350897.8082994,4.3257118,1.0517942,2.8889745.1472281,5.7839759.1758116,8.5474962.1056572,7.0688996-.6535754,14.186317-1.5443577,21.2913235-.7101931,3.7484139.5615647,7.3217575,1.8292587,10.9127839,2.9980227-2.136675.3216668-4.4249439.4032162-6.6249912.3900639Z" fill="#423b30" stroke-width="0"/>
      <path d="m3.4210145,71.9866086c-4.3915416-5.9077689-4.370509-14.5905491-.9909205-20.9608977.2859856-.3868788.6952561-.683367.6958739.0281441-.0723098-.0084021-.0858877-.2246588-.1606138-.290063-.0047365-.0010159-.0094592-.001977-.0143192-.002938-1.3256435,3.813516-.601598,8.110205-.1116567,12.045798.6902588,3.0277319,1.3635214,6.1482433.5816362,9.1799566Z" fill="#423b30" stroke-width="0"/>
      <path d="m34.3365738,71.5984118c-10.2439146-.7542627-20.6089716.2487117-30.7596408-1.7009489-.2881959-.0597479-.6009939-.1159813-.8330114-.3092834-.1277057-.3279821.6114965-.1853943.7908913-.186218-.0865329.0791605-.3759369.061972-.5304139.1149104,10.9238631.2278164,21.7111653-2.3909606,32.6501439-1.7316466,3.4244406-.0014553,6.9444889.5792474,10.0517108,1.9610556-3.623097,1.3566844-7.4915009,2.1464225-11.3696798,1.8521309Z" fill="#423b30" stroke-width="0"/>
      <path d="m95.8310885,54.2030872c-9.5009095-.3583778-19.1733747-.2053286-28.5384236-1.6379061,10.5185739-.6135695,21.1520581-2.0101499,31.7472389-1.6798889,3.4677688.1404735,7.0129409.8538518,10.2133542,2.0629236-4.3479525,1.3740102-8.9011581,1.6365606-13.4221695,1.2548713Z" fill="#423b30" stroke-width="0"/>
      <path d="m115.2188529,51.7614672c-6.3313037-1.1675558-8.1965046-8.0121536-12.2481543-12.1077974,2.8839566.9324082,5.5435632,4.1615148,7.7740406,6.4881146,1.6370137,1.72783,3.5027431,3.4375105,4.4741137,5.6196828Z" fill="#423b30" stroke-width="0"/>
      <path d="m110.3205659,53.3889668c-.6821039-.0518127-1.3539112-.3881968-1.7818667-.9101949.729386-.8860871,1.9007311-1.0276589,2.9675996-1.0079443.7854546-.0021966,1.5367245-.3185641,1.5751858-1.142487,1.4667691,1.4970756-1.1500928,3.3243299-2.7609187,3.0606262Z" fill="#423b30" stroke-width="0"/>
      <path d="m112.1124547,71.0004657c-1.0053839-3.4143636-.1476194-6.9902608.1937689-10.445454.1789143-2.0298646,2.5678637-9.1953604.4285871-10.0516009.0632625-.2776522.4779834-.0070292.5694725.0632076,1.1404551,1.1555843,1.2530591,2.9895383,1.3986947,4.5268393.1404461,2.8159782-.2031869,5.626053-.1723794,8.4419763.1167226,2.6938739.096047,5.8092507-2.4044355,7.4734063-.0045099.0000275-.0108527-.00324-.0137083-.0083746Z" fill="#423b30" stroke-width="0"/>
      <path d="m104.0555793,70.5135036c-8.7022546-.1508525-17.3678463-.9745283-26.0676778-1.2371336-3.3529408-.2130442-6.744844-.1426976-10.0692837-.653795-.3795751-.08435-.8470148-.1230104-1.0649739-.4780109.0430537-.3219414.6066776-.1613688.8471246-.1545593-.1374806.0890178-.475677.0186163-.662252.1046962-.0049973.0054366-.0100221.0108732-.0150743.0162.0120539.0143055.0238333.0286109.0355577.0431635,5.5621315.3417659,11.1838462-.9158787,16.7252471-1.0335074,7.5498417-.5563202,15.1341564-.2475311,22.6928738-.4696089,2.8012952-.2135659,5.7857469.2457738,8.0870308,1.8871395-3.3732526,1.3667888-6.8630494,2.2435403-10.5085724,1.975416Z" fill="#423b30" stroke-width="0"/>
      <path d="m7.1570175,114.2639537c-2.494078-3.5324042-3.3021303-7.8916418-3.089292-12.1463755-.2574158-10.2477312,1.259594-20.4741827,1.2159638-30.7015952.0017573.1373159.0143055.2722979.024506.4058796.0035146.0140583-.0175729.0175729-.0210875.0035146-.0492042-.1722146-.2179042-.5061001-.0281167-.6361397.0351458-.0246021.0808354-.0105438.102225.0245472,1.4601038,6.5003607,1.7148425,13.3901264,1.9735489,20.0364522.2005921,4.0716183.5231376,8.0136638.6224109,11.9342099.3321282,3.721368.6189787,7.534534-.7914679,11.0861723-.0035146,0-.0072488-.0018877-.0086904-.0066654Z" fill="#423b30" stroke-width="0"/>
      <path d="m111.4120708,115.0185733c-2.1289045-2.9721026-1.7770136-6.6525587-1.5572972-10.0939956.0611483-2.3565012.1127481-4.7083072.0701819-7.0641495-.0402598-8.4827784-.1847902-17.0009498.4465719-25.4631899.2386348-2.2208053.2728676.9942155.3709259,1.5710466.8617321,6.8796887,1.8086654,13.7533093,2.3688641,20.6669906.4276466,6.6504719,2.0182706,14.4476387-1.6992465,20.3832978Z" fill="#423b30" stroke-width="0"/>
      <path d="m20.4470195,114.8426245c-2.7538689-.0463005-5.5021365-.3758408-8.2136793-.8608809-1.5396487-.3975942-3.5512127-.4040948-4.6708137-1.6380159-.1791065-.4212009.4579119-.6682584.7872943-.6009733.0204148.0144496-.0087178.029414-.0210875.0175866-.1950594.0262152-.4759928.13341-.5869356.3391505.0047914.0456347.0095827.0916332.0143604.1390183,1.283139.8536321,3.112535.4999496,4.5510845.6604947,4.3844163.121006,8.7453838-.4290538,13.088284-.9632706,6.9684869-.5496755,13.9843383-1.4460592,20.9750933-1.2052003,1.6417776.1545319,3.3639513.5257804,4.8606699,1.1142056-2.9732558.9651927-5.9327005,2.0985363-9.0219651,2.6361578-7.2226352.6760907-14.5147384.2374472-21.7623053.3617276Z" fill="#423b30" stroke-width="0"/>
      <path d="m102.8486629,113.9344339c-12.0878837-.0244099-24.156197-.6780127-36.2108364-1.2826585-5.4974961-.108348,10.8239034-1.3516597,11.6298414-1.3812865,7.8508397-.5472798,15.712992-.9813172,23.5828599-1.12107,3.5198835-.0838009,7.2123935.339734,10.2731296,2.1472119-2.9418511,1.3081941-6.1451955,1.9538068-9.3606007,1.6365881,0,.0000686.0856062.0013248.0856062.001215Z" fill="#423b30" stroke-width="0"/>
      <path d="m21.2047419,85.8091387c-2.2577634-1.4790084-.7656302-3.8752958,1.715172-3.1807811-.4621129.1819621-1.1705762.2907769-1.5306838.7329006-.6184021.7969594.6511591,1.3032517,1.1985007.7861136,2.2431834-1.8377157-.96209-1.9363711-2.1069658-2.4996382,1.0930357-.9032481,2.9030465-1.8381275,4.1927891-.7838072,1.7451009,1.3679421.9472903,4.073101-.9207112,4.8923561-.8026432.4240565-1.733651.4509925-2.548101.0528561Z" fill="#423b30" stroke-width="0"/>
      <path d="m11.6405424,99.9944398c-.3960497-.8284808.1492875-2.2655888,1.1423222-2.3125415.2823062.027595.4442929.3598879.4498393.5764193-.5466423-.5331734-.6522025.4533264-.4507454.8089859.7726045-.5103561,1.149269-1.6400478.8983881-2.4965629-.0748497-.1867947-.2642253-.3048009-.3703219-.4598614.2495355-.3865974.6748002-.6291174,1.149269-.5728841.8505294.1019367,1.4761254.7240112,1.683376,1.553508.6671395,2.2018595-2.9547219,5.3462523-4.5021274,2.9029367Z" fill="#423b30" stroke-width="0"/>
      <path d="m34.093079,102.9285959c-1.9769536-1.2445747-.0889629-3.9590143,1.8143492-3.844097-.0842402-.1143956-.2146093-.2261209-.264445-.3488019,1.0668136-.7193091,2.7392889-.3169922,3.1174636.984111.5959142,2.3427724-2.7465103,4.2595387-4.6673678,3.2087879Zm.7878709-1.4060259c.7093969-.0853728,1.4379043-.5409439,1.7798074-1.1722511.0465682-.4921791-.4033809-.8401778-.6850693-1.1868106-.7589031.3345513-1.378074,1.0076491-1.489305,1.8345649-.0394567.2615345.0915714.5579402.394567.5244968Z" fill="#423b30" stroke-width="0"/>
      <path d="m44.2260646,87.0342185c-.4030789-1.0452593.9031383-2.106801,1.8908463-1.8732459.2319626.0738063.4006626.3268563.3198272.5693626-.3787514.6082427-.5445683,1.4157459-1.2687649,1.7151171-.3570872.1474478-.8083818-.0416259-.9419086-.4112338Z" fill="#423b30" stroke-width="0"/>
      <path d="m77.3506635,83.627186c-1.3645099-.6006644-1.818358-2.7091129-.2778169-3.3843798,1.0582193-.5216412,2.2337654-.0272655,2.4303075,1.1756833.495117-.4084331.3779825-.9744185.2162293-1.4921057.4674397-.2038459,1.1000648-.2108751,1.5077841.1510173,2.3924434,2.4428831-1.572694,4.9250307-3.876504,3.5497849Zm1.2756842-1.8591601c.2828691-.0515381.575266-.1225437.8103039-.2961861-.1992604-.1873438-.3965714-.3818266-.627518-.5121957-.904017-.3064827-1.744689.8723582-.312798.8118689-.0335258.0026085-.0689188.0051895-.1034331.0077705-.0158431-.0012356-.0318784-.0024437-.0371777.0028007.0346241-.001977.2344612-.0121912.270623-.0140583Z" fill="#423b30" stroke-width="0"/>
      <path d="m99.4127793,81.5667885c-2.5412572-.0688639-3.3813595-2.8571373-1.6352976-4.5718974-.1713634-.0431635-.3960772-.0345143-.5333381-.1060141,1.1203835-1.006489,2.6481568-1.947821,4.2069024-1.5535835,4.241149,1.3755753,1.744387,6.5548093-2.0382666,6.231495Zm-.1055748-2.0806064c.0651571-.0112302.1302799-.02106.1954164-.0312743.0930335-.0229821.1860258-.0485177.1835821-.0411042.4816628-.1593919.7756523-.3632927,1.0773299-.6616479,0,0,.019797.0029929.0197421.0029929.3587965-.3527764.3435231-.8268334-.0984084-1.0965503.0000549,0,.0077911.0277597.0077911.0277597-.3610892-.2342141-.7928888-.3407499-1.2114538-.4146386-.1546966.2225446-.3431662.5837505-.5113995.7137352.0609286-.257306.1218915-.514612.1828064-.7718906-.0901024-.0153763-.1803902-.0303133-.2706161-.0449482-.6662402.7648339-.9432814,2.5797322.5588189,2.3105371-.0000481,0-.1336091.0070292-.1336091.0070292Z" fill="#423b30" stroke-width="0"/>
      <path d="m85.5325331,103.6647366c-2.0448016-.1608471-2.4960687-2.2876099-1.4059984-3.7640647.5347934-.5927566.5587091.1157342.2545877.6420912-.2505789,3.4143362,4.0288942.3151319,4.2810381-1.3170286-1.2875734-.6241407-2.837505-.0805609-4.1770558-.1860808.9723866-1.4089913,2.5275901-2.8487078,4.3754926-2.5726688,2.5521922.2431035,3.2425883,3.3700126,1.4762901,5.0188743-1.2566835,1.2508625-2.9709769,2.3265243-4.8043542,2.1788774Z" fill="#423b30" stroke-width="0"/>
      <path d="m101.714832,99.603003c-1.726512-.2216385-2.0531761-2.295298-1.198583-3.5673922.4568136-.7774301,1.7701492-2.1692123,2.6078009-1.1773239-1.001883-.4816628-1.5416394,1.1511087-1.6904669,1.9013626-.2100239,1.0247484.4397074,1.3685461,1.2336122.8259273.0808423-.0660083.1769991-.1244314.2267799-.2172178-.3000096-.6124987-.7582166-1.1653043-.9367465-1.8071278,1.0543753-.0175729,2.6921715.3655168,2.8749299,1.6096521.2169432,1.6557467-1.6561036,2.6739396-3.1173263,2.4321197Z" fill="#423b30" stroke-width="0"/>
      <path d="m44.4061321,88.5004865c-.6975077-1.0796912-.1283647-2.6678714.8681572-3.3668893.5830091-.4789719,1.7729704-.2855874,1.5955938.6431414-.3451706-.2778718-.5068689-.2144995-.6572272.1967893-.2815786.9561591.1071399,1.9537244-.2178768,2.9100482-.0632625.2179042-.2073605.2600792-.4217501.2776522-.4794387.0470076-.8938576-.3016227-1.1668969-.6607418Z" fill="#423b30" stroke-width="0"/>
      <path d="m56.0595322,70.2713268c-1.4076459-.1305888-3.2456636-.0272655-4.2912798-1.096715-.0889355-.4083782.5178795-.2791074.755718-.2108476.0091434.0482981-.135284.0523618-.1863004.0802588,2.5565854.0350086,5.3637222-1.4303259,7.7320852.053213-1.1295269.8475914-2.5724834,1.2808463-4.0102229,1.1740908Z" fill="#423b30" stroke-width="0"/>
      <path d="m55.4375881,53.7991023c-.752121-.0773209-1.5323587-.2460209-2.1931005-.625596-.1827584-.1019229-.3584876-.3022542-.3022542-.523673.1118901-.4674946.6336685-.3350113,1.0562973-.1640322,2.2461213-.1798204,4.7557541-1.1762325,6.8022855.213154-1.4575365,1.250176-3.5243866,1.3545427-5.363228,1.1001472Z" fill="#423b30" stroke-width="0"/>
    </g>
  </g>
</svg>