<?xml version="1.0" encoding="UTF-8"?>
<svg id="b" data-name="Layer 2" xmlns="http://www.w3.org/2000/svg" width="121.543" height="136.664" viewBox="0 0 121.543 136.664">
  <g id="c" data-name="Layer 1">
    <path d="m60.299,24.515c-.625.594-1.372,1.095-2.094,1.583-.188.127-.376.254-.561.38-.014.046-.032.093-.049.14l-.094.195c.031,1.968-.916,3.696-1.834,5.375-.679,1.233-1.319,2.406-1.582,3.645-.139.654-.995.948-1.986,1.291-.186.065-.37.124-.528.186-2.238.853-4.489,1.686-6.74,2.518-4.933,1.829-10.033,3.716-14.873,5.81-2.566,1.108-4.859,2.74-7.077,4.32-.785.561-1.57,1.117-2.363,1.657-.621.415-1.15.915-1.712,1.441-.477.45-.97.918-1.531,1.331-2.102,1.556-4.125,2.201-6.012,1.896-1.678-.26-3.141-1.25-4.347-2.94-.953-1.325-1.577-3.1-1.759-4.985-.846-8.877-1.326-20.656,2.503-33.087l.268-.864.666.617c.854.793,1.668,1.561,2.461,2.31,1.644,1.547,3.195,3.014,4.821,4.418,13.244,11.469,25.051,9.628,36.981,6.535.953-.249,1.787-.855,2.667-1.499.262-.191.524-.382.79-.562l-.019-.183.267-.197c.026-.02.049-.033.073-.053.015-.142-.002-.269-.05-.376-.204-.437-1.023-.729-1.813-1.013l-.314-.112c-4.698-1.708-8.78-4.475-12.48-8.46-2.993-3.215-6.252-6.615-9.811-9.696C26.652,1.362,20.568-.599,13.595.158c-.291.032-.578.068-.871.106-3.024.423-5.261,1.535-6.471,3.217-1.005,1.403-1.314,3.168-.92,5.254.436,2.317.135,4.937-.831,7.188C1.743,22.367-.497,28.212.096,34.421l.169,1.791c.469,4.968.954,10.103,1.91,15.074.623,3.237,3.553,5.586,8.256,6.616,3.883.839,6.458-1.015,8.758-2.995.338-.294.643-.607.947-.926.456-.47.927-.958,1.507-1.368.684-.489,1.35-1.009,2.019-1.53,1.795-1.399,3.653-2.85,5.889-3.625,4.81-1.665,9.838-3.084,14.703-4.458,2.63-.745,5.261-1.484,7.87-2.271,3.147-.935,4.778.383,6.743,2.36l1.079,1.087-1.525-.115c-4.293-.329-7.608.921-9.876,3.688-4.02,4.901-9.09,9.182-13.994,13.316-1.126.951-2.255,1.908-3.372,2.864-8.372,7.199-13.095,14.059-14.862,21.578-.668,2.851-1.579,5.706-2.459,8.462-.857,2.687-1.744,5.461-2.398,8.209-1.744,7.332-1.637,13.258.343,18.645,1.877,5.118,3.401,5.686,9.588,3.62,1.248-.416,2.474-.952,3.658-1.467,1.126-.486,2.287-.993,3.486-1.409,2.005-.699,3.626-1.139,5-1.288,3.258-.354,5.109.936,7.32,4.292,2.894,4.397,7.372,7.944,13.686,10.85,3.225,1.482,6.282,1.637,8.38.463,1.534-.867,2.461-2.413,2.684-4.465.539-4.943.305-9.909-.675-14.351-.399-1.817-.862-3.626-1.323-5.43-.941-3.69-1.915-7.5-2.344-11.381-.395-3.587-1.275-7.206-2.126-10.71-.442-1.823-.899-3.712-1.285-5.574l-.26-1.232c-.836-3.937-1.703-8.01-.619-12.234.583-2.265.973-4.609,1.352-6.875.279-1.666.567-3.389.93-5.075.7-3.28,1.504-6.588,2.283-9.788.323-1.335.644-2.658.959-3.981l.086-.368,6.638-1.191.161.453c.479,1.343.962,2.646,1.437,3.928,1.07,2.892,2.08,5.617,2.919,8.411l.482,1.578c.996,3.242,2.025,6.586,2.102,9.95.094,4.275-.538,8.769-1.886,13.358-.814,2.794-.154,4.801,2.437,7.416,1.896,1.912,4.144,4.452,4.676,7.133.678,3.411.654,7.245-.069,11.396-.917,5.253-1.917,12.151-1.582,19.207,3.336.316,3.354.303,4.625-.737.992-.825,2.098-1.813,2.776-2.889,2.247-3.555,5.786-4.773,10.839-3.714,1.241.257,2.694.509,4.052.401l.814-.066c1.981-.142,4.023-.302,5.598-.983,4.967-2.141,7.64-5.809,10.384-10.034.428-.651.475-1.715.144-3.164-.453-1.979-.99-3.982-1.509-5.925-.655-2.444-1.33-4.976-1.849-7.491-2.092-10.142-6.007-17.756-12.319-23.978-.483-.48-.849-1.011-1.205-1.527-.323-.469-.626-.912-1.007-1.302-.75-.765-1.484-1.542-2.222-2.325-2.145-2.271-4.363-4.618-6.883-6.647-2.848-2.296-5.703-4.882-7.308-8.265-1.798-3.793-3.741-6.372-7.885-7.491l-.534-.144,1.668-7.032.556.136c.411.095.763.169,1.078.236.571.123,1.013.221,1.429.36,5.181,1.802,7.299,5.504,9.346,9.086,2.362,4.135,5.481,8.15,12.265,9.52,3.854.775,6.409.139,8.286-2.081,1.583-1.886,3.17-3.772,3.852-5.745,3.201-9.266,6.468-20.073,4.679-31.06-.24-1.487.461-3.131,1.093-4.253.756-1.342.996-2.125.83-2.701-.179-.619-.894-1.219-2.468-2.063-5.602-3-11.957-3.302-19.42-.962-6.894,2.177-12.313,6.092-17.551,9.882-1.6,1.16-3.257,2.359-4.932,3.493-.399.267-.613,1.293-.381,1.828.519,1.204,2.329.688,2.873.517l.436-.137c.493-.154,1.004-.316,1.372-.541l1.729-1.073c2.055-1.271,4.179-2.588,6.088-4.011,6.358-4.757,11.915-7.623,18.021-9.294,4.058-1.113,7.606-.859,10.27.762l.389.232-.143.436c-.178.529-.335,1.022-.482,1.492-.321,1.015-.602,1.891-.963,2.765-.085.2-.162.415-.239.637-.327.909-.697,1.941-1.61,2.427-.726.381-1.449.768-2.174,1.155-3.682,1.974-7.492,4.006-11.591,5.414-5.493,1.885-11.267,3.492-16.851,5.05-2.457.687-4.923,1.375-7.392,2.091l-.336.098-.814-.87c-.339-.361-.666-.712-1-1.057-4.517-4.663-9.107-4.658-14.027-.001ZM10.411,4.268c2.04-1.896,4.947-2.391,8.396-1.427,4.838,1.324,8.182,3.129,10.526,5.675,3.245,3.524,6.762,6.901,10.381,10.335,1.667,1.578,3.466,3.108,5.204,4.594.812.691,1.62,1.376,2.409,2.069l.881.761-1.147.225c-1.377.267-2.724.475-4.033.617-9.293,1.009-16.828-1.16-22.434-6.467-3.405-3.216-6.678-6.659-9.726-10.227-.86-1.01-3.141-3.681-.458-6.157Zm46.112,84.322c1.055,3.577,1.866,7.259,2.653,10.815.406,1.827.808,3.654,1.244,5.472.214.89.412,1.787.61,2.684.573,2.593,1.167,5.279,2.144,7.8,1.474,3.806,1.439,7.692,1.407,11.449-.01,1.071-.017,2.136.006,3.204.014.542-.227,1.055-.435,1.509l-.154.336c-.683,1.598-1.591,2.581-2.776,3.018-.302.111-.616.184-.945.22-1.126.122-2.429-.19-3.951-.949-6.369-3.168-11.148-7.305-14.207-12.289-2.274-3.714-5.43-4.861-10.498-3.745-2.323.499-4.616,1.263-6.832,2.007-.854.289-1.709.572-2.564.844-.974.313-1.928.657-3.017,1.056-.528.197-1.09.404-1.7.621l-.499.177-.215-.486c-3.151-7.125-3.694-12.853-1.764-18.569,1.821-5.391,3.39-11.247,4.801-17.909,1.686-7.953,7.577-14.138,12.519-18.64,4.948-4.509,9.983-8.82,15.317-13.381,2.292-1.957,4.606-3.939,6.936-5.957l.81-.698.131,1.056c.211,1.708-.408,3.025-1.004,4.299-.109.23-.218.466-.322.696-3.374,7.626-6.601,17.707-1.573,28.006.444.915,1.008,1.834,1.553,2.722.905,1.476,1.843,2.999,2.326,4.632Zm20.795-60.409c1.783-.429,3.57-.841,5.346-1.252,12.07-2.783,23.473-5.415,32.382-13.088l.586-.506.306.706c1.465,3.359.823,6.286.255,8.874-.138.614-.27,1.228-.375,1.833-1.072,6.228-2.13,11.211-3.33,15.694-.558,2.083-1.654,4.09-2.715,6.031-.271.494-.542.989-.802,1.482-.69,1.313-1.958,1.759-3.09,1.881-.833.09-1.593.005-2.001-.04-3.772-.408-6.566-2.144-8.788-5.466-1.26-1.88-2.275-3.843-3.256-5.741-2.565-4.954-6.671-7.735-12.551-8.486-.372-.049-.689-.205-1.126-.416-.242-.114-.541-.261-.929-.426l-1.583-.674,1.673-.406Zm5.708,21.155c1.385,3.441,4.561,5.611,7.482,7.283,3.931,2.251,6.748,4.881,8.619,8.033,1.525,2.574,3.284,5.117,5.224,7.561,5.397,6.814,6.993,14.551,8.539,22.035.379,1.841.761,3.687,1.195,5.517.045.186.064.38.079.568.018.217.033.405.099.527,2.945,5.484-1.033,9.344-4.882,13.078-1.898,1.842-4.206,2.568-7.045,2.243-.547-.064-1.101-.099-1.653-.129-.679-.038-1.383-.074-2.072-.178-5.725-.869-10.421-.606-14.713,3.563l-1.11,1.078.726-7.641c.375-3.923.727-7.58,1.044-11.233.58-6.707-1.264-11.716-5.8-15.761-1.948-1.744-1.587-3.71-1.271-5.441l.034-.177c.158-.869.326-1.744.495-2.614.513-2.632,1.041-5.351,1.263-8.024.481-5.794-2.108-11.199-4.615-16.433-.332-.692-.663-1.385-.99-2.083-.784-1.674-1.548-3.344-2.324-5.047l-1.204-2.625.692-.154c7.894-1.697,10.596,2.093,12.189,6.055Zm-14.853-24.952c1.389.309,2.589,1.344,3.771,3.26.975,1.575,1.64,3.267,1.924,4.9.327,1.858-.079,3.605-1.176,5.04-1.423,1.863-3.883,3.065-6.944,3.398-.08.009-.161.017-.241.021-2.349.216-3.56-.672-4.185-3.069-.126-.491-.678-1.013-1.381-1.682-.412-.387-.871-.824-1.339-1.339l-.213-.235.09-.307c.121-.411.241-.855.367-1.323.331-1.235.708-2.637,1.274-4.003.482-1.156,1.377-2.25,2.397-2.915,2.361-1.545,4.105-2.098,5.656-1.745Z" stroke-width="0"/>
  </g>
</svg>