<?xml version="1.0" encoding="UTF-8"?>
<svg id="Layer_2" data-name="Layer 2" xmlns="http://www.w3.org/2000/svg" viewBox="0 0 291.7422846 16.8200424">
  <g id="Layer_1-2" data-name="Layer 1">
    <path d="m290.9339892,14.3138372c-.5285939-.2351122-1.1104208-.3439129-1.6773051-.4555153-3.8719971-.7613713-7.7533333-1.4137085-11.6953737-1.6710011-5.5586412-.3628246-11.1079434-.8825464-16.662849-1.3163483-5.8276078-.4550484-11.6570833-.5526421-17.4893606.1218755-1.5148045.1751084-3.0305428.3777672-4.5490829.4468767-4.6228619.2101301-9.2531951.2346453-13.8704536.5629152-8.5172729.6054081-17.0252066.8337495-25.5284708.1190737-2.6308287-.2211035-5.1925479-.7730452-7.3433461-2.6551104-.2727022-.237914-.6406633-.4281984-.9824749-.4674227-2.8353553-.3257016-5.6296185-.3997141-8.3930626.8248773-2.4020204,1.0646591-4.9301188,1.6745033-7.5338641,1.7884405-.9525897.0415591-1.7370754-.2243722-2.4085578-.9876114-1.6016582-1.8234622-1.4410254-3.0847097.7163101-4.0685854,1.477448-.6738171,2.5467767-1.8533474,3.6665365-3.0029924.50618-.5194883.6556059-1.1671559.3100586-2.041764-1.1599181-.1085672-2.3515892-.3060895-3.5441941-.2995521-.6985658.0037356-1.5017297.1498928-2.0751514.5542765-1.0982799.7739792-2.152666,1.6843094-3.0688332,2.7102112-1.1776624,1.3196169-2.7111451,1.7464145-4.1409636,2.4620242-3.6749417,1.8393387-7.4731598,3.192343-11.4880454,3.6121362-2.9343499.3067899-5.213094-.0448278-6.3926242-3.6179731.2484205-.1720732.5192548-.3383094.7695431-.5360652.7293849-.5752895,1.5250775-1.081703,2.1433269-1.7809692.3016534-.3415781.3941107-1.065593.3511507-1.5906848-.053233-.654205-.6490685-.6317911-1.1234955-.664945-.8395864-.0586029-1.6922476-.0385238-2.5140898-.200791-.9208367-.1814123-1.6875781.184214-2.3646639.7291514-.7200458.5797256-1.4531663,1.2386001-1.9481394,2.0389623-.4613523.7450279-1.0086244,1.1358699-1.7211989,1.4041359-3.7393816,1.408572-7.4442086,2.9560634-11.227484,4.1939631-2.2068329.7219136-4.526669,1.0940773-6.8175539,1.3637443-1.889303.2222709-3.3247249-1.0270692-3.8383763-2.8778483-.3371421-1.2140849-.0074713-2.1384239.9628628-2.8208797,1.0702626-.7531996,2.1489304-1.4982275,3.1743652-2.3238053.5482061-.4417401,1.0852052-.9759375,1.4634393-1.5913852.6696145-1.0882404.1877162-2.0966313-.981541-2.178582-.6808215-.047863-1.382189.0833516-2.0480679-.036656-1.4260829-.2570591-2.6420356.3387764-3.661867,1.2698862-1.0076905.9192024-1.8117883,2.1136752-2.7148807,3.1771669-.3119264.3672607-.6005051.8456569-.9908801,1.0312718-4.0681185,1.9331968-8.1222283,3.91449-12.2473154,5.682151-3.0249393,1.2958022-6.1582124,1.8363035-9.4269027,1.1438081-3.1706295-.6717158-5.2224331-2.9175395-7.1855151-5.5103113.4389384-.4074189.8162387-.7258827,1.160852-1.0831039.9946157-1.0305713,1.1944728-3.3377997.3334064-4.4809074-.2344118-.3119264-.6817554-.5243913-1.0590556-.5841616-.7770144-.1230428-1.572707-.1116024-2.3599944-.1568971-2.0676801-.1190737-3.2434746,1.0842713-3.281765,3.4167152-.0149426.9206033.0625721,1.841907.1027303,2.8815839-1.9892315,1.7720971-4.2110069,3.2100873-6.7017489,4.0690524-3.9803308,1.3730834-8.0325728,2.3702674-12.1791399,2.8325536-3.5600706.3969124-7.11267.9995188-10.6783441,1.1636537-7.3246679.3369086-14.6119793-.395278-21.8778108-1.2318293-4.4370135-.5106161-8.8516132-1.2364988-13.2764859-1.8619861-1.0422452-.1473245-2.0872922-.2682661-3.1286035-.421661-1.709058-.2516891-3.4162483-.5164531-5.1234385-.7830848-.5715538-.0891885-1.1972745-.0656073-1.6959833-.3287368-1.4195455-.7487635-2.8969935-.2967504-4.3454902-.3527851-.5706199-.0219469-.8788107.3455473-.6472007,1.1494116.7854196.0810168,1.6222043.1188402,2.4431125.2603278,4.3482919.749464,8.6928482,1.5269453,13.0383384,2.2908849,2.796131.4912374,5.5773195,1.1566494,8.3921287,1.4270168,6.6466481.6383285,13.307305,1.1255968,19.9670279,1.6032926,7.967199.5713204,15.8624868-.4994092,23.7138808-1.9175538,4.7209226-.8526612,9.4110262-2.0254206,13.5230385-5.0536286.1204746-.0889551.3007195-.0782151.4968409-.1242102.2344118.200324.5285939.3660933.717244.6266546,1.6306095,2.2476915,3.8159624,3.371654,6.3263165,3.8456141.6705485.127012,1.3513699.1993901,2.0200506.3359747,2.8166771.575523,5.6482967.4676562,8.4836521.1414876,3.44053-.3959785,6.6578551-1.7022872,9.8340881-3.160123,1.5054653-.6910945,3.0109307-1.3831229,4.611655-2.1185782.1998571.475361.3091247.675218.3707629.8923524.5827608,2.0431649,1.9434698,3.049221,3.7319104,3.5579693,2.7027399.7686092,5.4400345.3074904,8.1595848.2122314,3.2957737-.115805,6.3851529-1.3999333,9.4950782-2.4923763,2.1974938-.7718779,4.368838-1.641116,6.5327109-2.4592225.1727736.1753419.3081908.2720017.3950446.4074189,1.3270882,2.0702483,3.0884453,3.2353029,5.4334971,3.2332016.4716253-.000467.939515.1221089,1.4120742.148025,4.421137.2435174,8.8198602.1762758,13.106514-1.3716825,1.5344166-.554043,3.0622958-1.1272312,4.5957785-1.6922476,1.1048173,2.7676467,3.1164627,3.8913757,5.6277507,4.1003384,5.2794017.4394054,10.3542768-.7055701,15.3693815-2.7249203.3623577.2211035.791957.4387049,1.1785963.7256492,1.7884405,1.3280222,3.8262354,1.8603517,5.9172633,2.1146091,5.6996619.6934293,11.4329446.7791157,17.1662273.8033974,2.2609997.0095726,4.5248012.0067709,6.7839331-.084519,4.7825608-.1930862,9.5632538-.4667223,14.3448806-.6728832,4.1512366-.1788441,8.3090106-.1930862,12.4537098-.4949731,4.2026017-.305856,8.3818557-.7025349,12.5965983-.2285748,4.5976463.5166865,9.2158387.8309478,13.8284276,1.1942393,3.6656026.2890456,7.3405444.4608853,11.0024114.7991948,1.8239292.168571,3.6226427.6317911,5.4409684.8886168.9768714.1379854,1.9724211.121642,2.9044648.1720732.5285939-1.0634917.1596989-1.6341116-.5584791-1.9530424Z" stroke-width="0"/>
  </g>
</svg>