<?xml version="1.0" encoding="UTF-8"?>
<svg id="b" data-name="Layer 2" xmlns="http://www.w3.org/2000/svg" width="79.639" height="83.593" viewBox="0 0 79.639 83.593">
  <g id="c" data-name="Layer 1">
    <g>
      <path d="m28.918,57.616l-1.896.037c-.107.393-.287.709-.548.963-2.917,2.879-3.617,6.095-2.339,10.747.902,3.281,1.91,6.044,3.082,8.445,2.469,5.016,7.859,5.91,11.945,5.77,6.169-.189,10.302-2.489,12.284-6.833,2.394-5.258,2.295-10.772-.311-17.351-2.074-5.233-6.198-8.356-12.258-9.281-2.799-.435-3.741-2.158-4.404-3.739-3.902-9.238-10.162-15.594-19.138-19.428-.643-.279-1.197-.618-1.839-1.011l-.075-.047c-.342-.216-.713-.44-1.132-.681l-2.182-1.253,2.444-.598c.353-.084.613-.16.812-.221.324-.091.597-.112.838-.132.071-.005.14-.011.205-.018l.032-.004.032.005c9.302,1.514,18.436,3.905,27.146,7.11,4.903,1.802,8.618,4.475,11.039,7.938,1.232,1.784,2.877,3.428,4.467,5.019l.302.295c.182.184.66.363,1.264.593.054.019.104.039.151.056l-.006-.091c-.054-.823-.09-1.396-.261-1.839-2.322-6.01-6.546-10.426-12.556-13.124-4.451-2-9.388-3.516-14.161-4.982l-2.475-.758c-2.273-.702-4.659-1.247-7.317-1.839-1.142-.253-2.283-.512-3.412-.779l-3.744-.907,3.705-1.037c6.393-1.812,11.597-3.475,15.526-6.942,3.75-3.314,5.984-7.145,6.821-11.705-8.748,1.512-15.21,3.57-20.918,6.658-5.991,3.235-10.505,6.351-13.062,11.049-.553,1.033-2.321,1.709-3.345,1.739-2.325.044-3.403.509-3.608,1.551-.125.639.162.916,2.2,1.41.311.075.613.149.885.235,15.619,4.603,22.823,15.231,28.281,26.033l.464.909-.927.446c-2.854,1.372-3.402,3.403-3.748,5.54-.015.1-.023.205-.027.316l3.005-5.337.795.281c2.321.814,3.695,1.296,5.612.525,2.9-1.135,8.488,1.553,10.236,4.302,3.255,5.102,3.971,10.796,2.128,16.928-.803,2.672-2.766,4.823-5.387,5.902-2.584,1.054-5.422.921-7.788-.363-1.899-1.046-3.381-2.354-4.175-3.686-1.797-2.986-3.468-6.26-5.108-10.009-1.089-2.5-.242-4.84,2.448-6.81ZM11.994,14.17c7.369-5.995,15.923-10.275,25.426-12.726l2.555-.663-1.469,2.189c-5.515,8.231-14.916,10.435-24.009,12.566l-.063-.23.054.232-5.899,1.402,3.404-2.77Z" stroke-width="0"/>
      <path d="m58.611,63.044l.342.686c.303.309.581.607.843.888l.086.091c.549.584,1.023,1.088,1.553,1.512,3.267,2.647,6.763,3.347,10.687,2.139,4.029-1.267,6.428-3.793,7.131-7.51.802-4.233.357-8.282-1.358-12.379-1.187-2.826-3.633-3.8-5.475-4.119l-.145-.025c-.051-.009-.102-.018-.151-.025-3.444-.495-7.518.761-9.485,2.903-2.336,2.544-3.913,5.791-5.208,8.633-1.168,2.553.025,4.917,1.18,7.205Zm-.368-8.809l4.803-4.017c.225-.186.439-.379.649-.581.563-.521,1.119-1.037,1.835-1.41,1.663-.86,3.24-1.075,4.562-.626,1.116.375,2.006,1.196,2.575,2.372,1.749,3.639,1.868,7.34.353,11.002-.857,2.068-2.478,3.203-4.519,3.203-.27,0-.546-.019-.83-.061-.519-.072-1.075-.219-1.649-.435-5.141-1.951-7.832-5.056-7.784-8.979l.006-.467Z" stroke-width="0"/>
    </g>
  </g>
</svg>