<?xml version="1.0" encoding="UTF-8"?>
<svg id="b" data-name="Layer 2" xmlns="http://www.w3.org/2000/svg" width="397.83" height="414.282" viewBox="0 0 397.83 414.282">
  <g id="c" data-name="Layer 1">
    <g>
      <path d="m183.235,141.901c-.34-1.045-.667-2.114-.983-3.148l-.017-.058c-.561-1.834-1.142-3.732-1.826-5.586l-.1-.27c-1.118-3.018-2.265-6.119-2.909-9.302-.055-.268-.202-.484-.343-.693-.134-.203-.34-.246-.58-.297l-.827-.241.719,3.129c.327,1.438.666,2.925,1.031,4.369.51,2.015,1.048,4.057,1.569,6.034l.198.752c.303,1.148.605,2.298.904,3.447.29,1.122.574,2.246.858,3.372l.054.212c.432,1.708.878,3.474,1.346,5.203.254.941.555,1.889.847,2.807l.065.204c.219.69.445,1.403.648,2.111.531,1.842,1.048,3.724,1.548,5.542l1.01,3.67c.403,1.459.807,2.917,1.194,4.379,1.397,5.266,2.945,10.487,4.138,14.446,1.151,3.823,2.133,7.376,3.002,10.862.511,2.052,1.13,4.08,1.728,6.041.565,1.848,1.148,3.759,1.634,5.67.169.664.334,1.33.496,1.996l.094.382c.425,1.731.863,3.519,1.376,5.284.368,1.274.764,2.515,1.182,3.829l.424,1.339-.172.047c-.416.116-.889.171-1.393.165-.803-.023-1.452-.019-2.041.013-1.611.09-3.483.219-5.296.588-.208.039-.456.034-.686.026-.153-.007-.315-.009-.461-.004l-2.308.078c-2.015.065-4.297.137-6.536.26-.323.017-.652.074-.971.129-.496.086-.96.169-1.451.109l-.114-.013-.12-.424c-.145-.512-.308-1.092-.496-1.664-.264-.804-.539-1.607-.815-2.409-.303-.885-.607-1.77-.896-2.657l-.281-.854c-.67-2.043-1.353-4.129-1.849-6.229-.229-.976-.573-1.927-.905-2.846-.203-.563-.41-1.135-.589-1.707-.668-2.134-1.327-4.27-1.986-6.407l-1.703-5.515c-.292-.944-.592-1.884-.89-2.824l-.042-.129c-.588-1.845-1.196-3.753-1.752-5.693-.597-2.076-1.14-4.211-1.666-6.275l-.562-2.199c-.451-1.751-.978-3.507-1.486-5.206l-.023-.074c-.675-2.25-1.369-4.566-1.898-6.882-.285-1.245-.683-2.476-1.068-3.667-.272-.838-.511-1.583-.729-2.349-.537-1.904-1.054-3.846-1.555-5.725l-1.224-4.593c-.413-1.563-.841-3.178-1.292-4.794-.91-3.256-1.676-5.893-2.406-8.302-.268-.875-.553-1.713-.897-2.715-.34-.99-.644-1.881-.917-2.787-.91-3.039-1.806-6.139-2.672-9.137l-.703-2.434c-.339-1.177-.671-2.353-1.002-3.532-.648-2.301-1.306-4.64-2.02-6.923-.689-2.208-1.443-4.439-2.173-6.595l-.065-.191c-.519-1.532-1.054-3.116-1.563-4.68l-.426-1.319c-.764-2.379-1.552-4.828-2.573-7.169-.753-1.725-1.382-3.349-1.923-4.96-1.766-5.257-3.645-10.39-5.584-15.256-1.236-3.099-2.138-6.387-2.934-9.289-.234-.851-.479-1.697-.725-2.546l-.02-.067-1.268-4.468c-.555-1.98-1.112-3.959-1.685-5.933-.28-.971-.921-1.731-1.856-2.199l-.449-.225-.217.452c-.609,1.279-.5,2.452-.292,3.529.806,4.153,1.974,8.146,3.306,12.561.269.893.515,1.807.754,2.692.299,1.107.601,2.23.945,3.315.336,1.057.745,2.118,1.105,3.054.238.616.475,1.232.698,1.853l.703,1.949c1.083,2.979,2.196,6.044,3.01,9.144.414,1.584.901,3.174,1.372,4.711l.871,2.882c.356,1.21.802,2.715,1.295,4.129.58,1.662,1.193,3.345,1.787,4.972l.12.328c.576,1.576,1.171,3.205,1.736,4.817,1.721,4.903,3.276,9.418,4.75,13.801.841,2.496,1.807,5.406,2.637,8.346.265.937.538,1.872.812,2.807l.086.293c.717,2.438,1.459,4.958,2.033,7.504.297,1.319.701,2.612,1.091,3.861l.034.109c.225.721.457,1.466.663,2.206.366,1.303.724,2.61,1.083,3.918l1.018,3.696c.715,2.571,1.497,5.17,2.254,7.68l1.46,4.862c.815,2.722,1.658,5.538,2.511,8.299.41,1.334.855,2.683,1.286,3.986l.055.164c.385,1.162.768,2.325,1.135,3.493l.874,2.764c1.023,3.225,2.082,6.559,3.015,9.864.368,1.303.768,2.621,1.154,3.895l.013.046c.428,1.413.87,2.875,1.271,4.324.601,2.172,1.276,4.387,1.871,6.342l.013.043c.625,2.055,1.272,4.181,1.853,6.287.991,3.588,2.226,7.128,3.42,10.55l.129.37c.373,1.07.745,2.142,1.109,3.217.377,1.103.838,2.22,1.244,3.207.282.679.892.988,1.577.81l.195-.091c.861-.611.773-1.388.547-2.134l-.07-.227.238.005c3.702.086,7.414.062,10.899.028l1.084-.011-1.027.346c-.598.202-1.163.403-1.688.594-1.951.714-4.033,1.331-5.872,1.877-1.179.35-2.399.713-3.612,1.104-3.269,1.053-6.599,2.103-9.819,3.119l-3.084.972c-2.519.797-5.231,1.607-7.991,2.132-2.133.403-4.256,1.023-6.233,1.633-1.865.577-3.755,1.194-5.581,1.791l-.144.047c-1.625.531-3.647,1.193-5.596,1.797-1.424.442-2.926.834-4.252,1.181-.728.191-1.456.382-2.181.58l-1.092.296c-1.123.301-2.259.607-3.362.952-2.335.732-4.665,1.479-6.996,2.227l-5.595,1.789c-2.735.873-5.564,1.775-8.353,2.641-.874.273-1.755.531-2.635.788l-.221.065c-1.413.412-3.016.878-4.544,1.4-3.261,1.116-5.885,2.103-8.253,3.107-2.788,1.181-5.667,2.142-8.452,3.072l-5.397,1.824c-2.726.925-5.545,1.883-8.334,2.778-1.793.576-3.631,1.105-5.408,1.619l-.12.034c-1.196.344-2.391.69-3.581,1.049l-1.109.334c-2.16.651-4.395,1.323-6.567,2.076-3.443,1.194-6.602,2.362-9.656,3.568-2.995,1.186-5.97,2.15-8.842,2.867-3.069.768-5.869,1.603-8.561,2.555-3.931,1.389-8.064,2.586-12.633,3.659-2.543.597-5.101,1.303-7.574,1.986l-.056.015-2.7.741c-.25.069-.464.199-.671.325-.091.056-.19.117-.3.178l-.514.278,1.092,1.384,1.377-.285.083.722.069.101c.796,1.165,1.931,1.873,3.03,2.558.254.159.508.319.756.481,3.346,2.203,5.971,3.814,8.511,5.225,2.948,1.635,6.193,3.299,10.211,5.233,2.491,1.2,5.034,2.331,7.492,3.424.967.429,1.933.859,2.897,1.292l1.751.789c2.152.972,4.593,2.074,7.009,3.12,1.884.815,3.912,1.638,6.381,2.592.921.355,1.864.621,2.803.792.366.066.613.242.914.522,1.653,1.54,3.191,3.318,4.706,5.44,1.026,1.435,2.162,2.819,3.261,4.157l1.849,2.275c1.006,1.253,2.145,2.672,3.327,3.971l.448.494c1.954,2.152,3.974,4.376,6.15,6.376,1.526,1.403,3.398,2.967,5.709,3.922,2.273.941,4.438,1.623,6.619,2.086,2.055.436,4.061.347,5.752.203l.366-.03c1.52-.125,3.088-.256,4.615-.726.317-.101.703-.104,1.099-.09.247.003.511.005.76-.016,2.951-.226,5.586.769,7.995,1.896,1.338.624,2.68,1.369,3.864,2.027l.748.413c1.374.758,2.745,1.526,4.115,2.294,2.246,1.26,4.792,2.688,7.328,4.04,4.207,2.24,8.351,4.336,12.582,6.463,1.392.699,2.86,1.403,4.041,1.967,1.684.804,3.592,1.715,5.393,2.659,2.544,1.334,5.096,2.772,7.562,4.161l4.06,2.275c1.602.889,3.259,1.807,4.84,2.792,1.759,1.097,3.606,2.089,5.391,3.046l.125.067c1.217.652,2.474,1.329,3.692,2.031,1.797,1.04,3.692,1.856,5.526,2.644.619.268,1.24.535,1.856.81.034.015.1.059.16.102l.304.206h1.499l-.885,1.268.249.511c.042.524.102,1.052.164,1.577.145,1.253.282,2.438.195,3.616-.039.51-.055,1.033-.071,1.537l-.003.086c-.028.941-.055,1.83-.203,2.71-.317,1.896-.286,3.803-.257,5.647.016.959.035,2.039-.009,3.09-.016.407-.005.82.011,1.279.02.608.039,1.183-.035,1.743-.289,2.134-.288,4.293-.286,6.38.001.65.001,1.272-.005,1.895l-.003.297-.257-.151c-1.474-.865-3.07-1.478-4.611-2.071l-.085-.032c-.538-.207-1.076-.413-1.607-.629-1.283-.524-2.562-1.107-3.799-1.672l-.114-.052c-.744-.339-1.486-.679-2.235-1.009-.78-.343-1.563-.68-2.345-1.018l-.161-.069c-1.385-.594-2.956-1.268-4.47-1.974-.807-.375-1.6-.81-2.368-1.231l-.046-.026c-.687-.375-1.399-.764-2.113-1.112-4.022-1.955-8.115-3.916-12.161-5.826-3.802-1.794-7.319-3.893-10.256-5.71-2.964-1.834-6.102-3.647-8.871-5.248l-1.721-.997c-1.456-.845-2.921-1.674-4.387-2.504l-.124-.071c-1.54-.871-3.081-1.744-4.611-2.632-1.489-.865-2.976-1.785-4.415-2.675l-5.471-3.393c-1.863-1.158-3.727-2.316-5.595-3.466-3.554-2.192-6.461-3.969-9.146-5.588-1.166-.702-2.368-1.353-3.532-1.981l-1.945-1.054c-2.216-1.204-4.509-2.449-6.825-3.651-2.028-1.052-4.184-1.752-6.21-2.352-3.237-.963-6.354-2.466-9.528-4.595-.788-.527-1.501-.92-2.18-1.2-4.8-1.988-9.23-4.546-12.928-6.786-4.688-2.836-10.203-6.212-15.572-9.747-1.669-1.101-3.431-2.089-5.135-3.043-.886-.498-1.803-1.013-2.695-1.537-1.115-.652-2.273-1.278-3.393-1.88-2.294-1.237-4.667-2.516-6.779-4.119l-.756-.57c-1.204-.904-2.448-1.84-3.542-2.908-.401-.393-.831-.717-1.247-1.031-.175-.13-.346-.261-.51-.391l-.134-.108h-1.84l-.147.183c-.898,1.112-.892,2.653.016,3.666,1.05,1.169,2.011,2.207,3.129,3.065,2.051,1.573,4.184,2.979,5.814,4.028,1.198.769,2.45,1.501,3.662,2.21.724.422,1.448.846,2.165,1.279,1.329.803,2.718,1.6,3.944,2.304,1.961,1.124,3.982,2.285,5.905,3.525,2.687,1.732,5.6,3.509,8.908,5.432,3.782,2.197,6.876,3.918,9.739,5.416,1.384.722,2.807,1.358,4.181,1.974.995.446,2.023.908,3.021,1.393l.785.39c1.233.616,2.495,1.247,3.865,1.569,1.756.414,3.462,1.021,5.112,1.607l.793.281c2.484.878,4.708,2.228,6.742,3.558l1.368.898c1.243.82,2.367,1.559,3.538,2.285,2.621,1.621,5.307,3.233,7.905,4.792l.208.124c1.295.777,2.596,1.551,3.895,2.323l.842.502c1.444.858,2.89,1.717,4.332,2.581,1.292.773,2.581,1.553,3.869,2.333,1.29.781,2.579,1.563,3.873,2.339l2.214,1.33c2.137,1.288,4.558,2.749,6.968,4.125,2.563,1.462,5.209,2.914,7.542,4.196l.512.282c1.214.668,2.429,1.337,3.64,2.011,3.183,1.771,6.516,3.362,9.738,4.899l.998.476c3.175,1.516,6.301,3.221,9.29,5.069,2.656,1.641,5.406,3.189,8.066,4.684l2.184,1.235c6.592,3.737,12.067,6.606,17.231,9.028,2.782,1.306,5.628,2.499,8.793,3.811.539.223,1.124.317,1.69.409l.058.009c.247.039.502.079.758.134l.312.065,1.494-2.071-.354-1.068.49-.608.114-1.959c.089-1.444.182-2.94.221-4.442.013-.529-.066-1.045-.143-1.543-.055-.355-.109-.697-.129-1.036-.044-.724-.085-1.564.003-2.37.126-1.159.178-2.333.227-3.468.035-.816.07-1.643.132-2.453.023-.288.038-.578.051-.871.036-.729.069-1.404.219-2.044.168-.718.203-1.419.238-2.097l.005-.106c.013-.238.027-.477.046-.717.066-.787.175-1.575.281-2.336l.095-.707,1.304-.451c1.079-.374,2.193-.761,3.299-1.114,2.624-.839,5.144-1.978,7.581-3.081l.199-.089c.783-.354,1.567-.709,2.355-1.05,1.629-.709,3.338-1.303,4.991-1.877l.207-.071c.623-.217,1.245-.433,1.864-.658l1.116-.412c1.052-.393,2.126-.795,3.199-1.097,1.382-.39,2.785-.824,4.024-1.206,1.731-.537,3.693-1.144,5.624-1.641,2.263-.581,4.481-1.438,6.627-2.266l1.171-.452c3.121-1.193,6.188-2.452,9.316-3.743.987-.407,1.953-.839,3.022-1.321.823-.368,1.647-.738,2.477-1.089,1.411-.598,2.831-1.183,4.248-1.767,1.021-.421,2.041-.842,3.06-1.267,1.267-.529,2.392-1.018,3.441-1.495.741-.335,1.478-.68,2.216-1.025l.203-.094c.988-.463,2.011-.94,3.026-1.389,2.441-1.08,4.933-2.157,7.343-3.199l1.985-.858c.906-.391,1.813-.779,2.721-1.167l.456-.195c2.153-.917,4.092-1.748,6.037-2.614,1.253-.558,2.516-1.153,3.739-1.727l.148-.07c1.832-.863,3.908-1.841,5.936-2.68,3.522-1.456,6.966-3.187,10.297-4.86l.147-.074c1.731-.869,3.521-1.767,5.301-2.616l2.961-1.413c3.012-1.443,6.127-2.933,9.248-4.356,2.47-1.127,4.971-2.203,7.389-3.245,1.322-.568,2.644-1.136,3.962-1.715.623-.273,1.241-.554,1.86-.836l.309-.141c1.105-.507,2.249-1.03,3.396-1.493,1.345-.543,2.723-1.061,4.057-1.561l.051-.02c1.235-.463,2.511-.94,3.786-1.45,2.261-.902,4.437-1.867,6.081-2.605,1.187-.534,2.371-1.081,3.553-1.63l.247-.114c1.7-.788,3.458-1.604,5.205-2.368,1.561-.683,3.166-1.337,4.718-1.969l.129-.054c1.144-.464,2.289-.929,3.427-1.411,1.319-.555,2.633-1.124,3.947-1.693l.662-.286c1.479-.639,2.959-1.279,4.446-1.9,1.536-.644,3.108-1.275,4.628-1.885l.208-.083c1.057-.424,2.114-.847,3.168-1.278,1.732-.71,2.09-1.28,2.017-3.214l-.005-.152-.09-.122c-.481-.654-1.001-1.084-1.59-1.314l-.196-.077.116-.178c.129-.198.198-.375.219-.558l.019-.173c.067-.616.145-1.314-.012-1.969-.187-.779-.269-1.575-.348-2.345l-.007-.054c-.059-.566-.121-1.153-.221-1.719-.217-1.237-.476-2.491-.728-3.702l-.265-1.284c-.063-.311-.134-.619-.207-.927-.12-.522-.235-1.023-.311-1.526l-.101-.679c-.378-2.546-.768-5.178-1.4-7.738-.175-.706-.257-1.423-.343-2.183-.089-.764-.175-1.52-.352-2.255-.344-1.43-.558-2.901-.764-4.324l-.02-.139c-.102-.711-.206-1.424-.327-2.132l-.311-1.775c-.26-1.46-.555-3.117-.758-4.716-.321-2.522-.676-4.546-1.118-6.369-.218-.9-.321-1.805-.43-2.764-.07-.598-.14-1.208-.237-1.799-.277-1.688-.605-3.409-.896-4.927l-.1-.523c-.155-.804-.319-1.608-.484-2.41l-1.654-8.333c-.188-.92-.371-1.82-.533-2.717-.108-.602-.207-1.206-.305-1.807l-.016-.093c-.168-1.021-.344-2.075-.557-3.107-.194-.924-.305-1.895-.413-2.834l-.005-.048c-.075-.658-.152-1.335-.256-1.997-.136-.862-.305-1.733-.469-2.578-.13-.668-.257-1.318-.368-1.97-.106-.605-.187-1.224-.264-1.821l-.109-.838c-.218-1.623-.446-3.21-.854-4.761-.125-.48-.187-.992-.246-1.489-.04-.332-.082-.664-.137-.994-.089-.499-.169-1.002-.251-1.505l-.038-.239c-.163-1.01-.347-2.154-.577-3.276-.184-.885-.29-1.813-.394-2.71-.085-.742-.169-1.471-.288-2.18-.204-1.212-.452-2.434-.671-3.514l-.056-.278c-.121-.597-.241-1.193-.355-1.791-.121-.632-.233-1.265-.344-1.9l-.031-.178c-.121-.683-.242-1.366-.377-2.045-.234-1.193-.48-2.382-.728-3.572l-.715-3.522c-.243-1.229-.464-2.336-.713-3.447-.246-1.1-.433-2.226-.615-3.314-.238-1.42-.483-2.889-.858-4.325-.097-.363-.128-.753-.16-1.167-.031-.418-.065-.81-.143-1.193-.178-.845-.268-1.693-.363-2.592l-.004-.043c-.086-.803-.172-1.621-.321-2.423-.192-1.038-.355-2.098-.514-3.123-.264-1.716-.533-3.46-.94-5.163-.293-1.226-.479-2.512-.659-3.756l-.026-.171c-.095-.654-.191-1.309-.303-1.959-.136-.777-.297-1.565-.452-2.327l-1.481-7.515c-.147-.732-.293-1.462-.433-2.195-.148-.773-.266-1.49-.362-2.191l-.157-1.196c-.215-1.634-.433-3.289-.753-4.914-.117-.594-.159-1.218-.199-1.822-.034-.499-.071-1.065-.155-1.607-.223-1.423-.479-2.843-.765-4.418l-.403-2.247c-.122-.693-.238-1.354-.34-2.02l-.059-.401c-.234-1.572-.477-3.197-.824-4.789-.198-.904-.315-1.849-.428-2.764-.074-.598-.151-1.216-.246-1.818-.143-.874-.303-1.746-.463-2.618l-.047-.257c-.122-.663-.245-1.326-.356-1.992-.171-1.005-.27-1.775-.325-2.495-.169-2.258-.691-4.398-1.21-6.397-.075-.29-.091-.6-.11-.928-.022-.409-.044-.862-.186-1.323-.214-.701-.257-1.473-.304-2.289-.022-.382-.043-.749-.078-1.118l-.015-.148-.097-.116c-.109-.133-.191-.329-.28-.537-.188-.444-.448-1.05-1.144-1.438l-.516-.286-.338.975c-.199.542-.402,1.095-.395,1.752.015,1.59.016,3.181.016,4.77.001,1.735.003,3.47.022,5.205.005.555.087,1.1.167,1.627.042.27.082.538.112.808.024.21.017.422.011.627v.048c-.019.511-.038,1.089.254,1.651l.023.046-.005.051c-.008.085-.013.173-.008.25.034.531.056,1.062.079,1.594.052,1.229.106,2.499.303,3.752.117.728.196,1.471.274,2.191l.007.071c.122,1.154.26,2.461.563,3.713.147.604.192,1.233.241,1.9.031.44.058.812.105,1.187.035.284.09.563.153.873.056.274.105.51.136.746.016.129.027.256.038.382l.005.058c.031.403.066.846.25,1.307.207.524.253,1.163.297,1.781l.022.29c.1,1.275.335,2.536.562,3.756.113.605.218,1.174.312,1.744l.219,1.388c.144.909.293,1.849.465,2.765.184.982.386,1.959.589,2.938.186.902.364,1.763.531,2.628.134.702.256,1.405.375,2.11l.027.157c.105.621.21,1.24.324,1.859.118.641.247,1.283.375,1.923l.043.21,1.423,7.413c.329,1.715.663,3.428,1.007,5.14.149.738.307,1.478.464,2.215l.046.217c.21.991.42,1.982.611,2.976l.25,1.329c.335,1.801.678,3.642,1.157,5.436.203.765.354,1.556.5,2.321l.012.062c.079.416.157.831.245,1.247.338,1.607.68,3.213,1.025,4.82l.312,1.426c.173.784.346,1.568.503,2.356.165.835.321,1.672.477,2.509l.04.219c.198,1.07.403,2.179.629,3.283.151.73.268,1.482.382,2.208l.02.134c.091.597.184,1.196.293,1.789l1.537,8.384c.278,1.518.557,3.038.83,4.556l.262,1.498c.143.83.286,1.658.445,2.484.169.888.348,1.771.526,2.656l.009.046c.212,1.05.425,2.101.62,3.154.156.839.297,1.68.44,2.522l.031.19c.182,1.083.346,2.059.533,3.035.188.995.402,2.004.609,2.98l.046.214c.176.831.352,1.661.518,2.495.095.487.16.987.223,1.47.039.295.078.59.122.885l.1.652c.206,1.368.413,2.745.78,4.09.097.354.122.734.151,1.138.028.405.056.808.152,1.222.211.929.315,1.869.424,2.865.074.679.147,1.353.251,2.006.134.831.315,1.677.473,2.423.136.641.277,1.303.395,1.974.139.785.256,1.588.37,2.364l.017.121c.09.624.176,1.216.27,1.805.199,1.228.418,2.47.644,3.741l.889,4.952c.211,1.194.414,2.391.629,3.662l.26,1.549c.11.672.222,1.343.339,2.015.241,1.376.49,2.749.741,4.123.26,1.421.524,2.843.796,4.263l.397,2.032c.136.687.272,1.376.399,2.064.195,1.048.379,2.097.563,3.147l.44,2.531c.139.806.277,1.611.422,2.414.078.437.164.87.25,1.303l.03.152c.087.441.173.882.25,1.325.118.685.227,1.368.34,2.084l.058.364-.316-.19c-.371-.223-.816-.483-1.287-.709l-.273-.129c-2.064-.987-4.173-1.996-6.47-2.532-.656-.153-1.286-.472-1.951-.81l-.549-.273c-1.721-.836-3.607-1.45-5.761-1.875-1.194-.235-2.487-.048-3.355.11-.461.083-.917.187-1.358.286-1.157.261-2.239.502-3.416.455-.187-.016-.39.027-.593.069l-.051.009c-.081.017-.171.038-.276.055l-.03.005-.03-.005c-.518-.089-1.001-.463-1.559-.894l-.043-.032c-.182-.14-.366-.281-.555-.417-2.407-1.704-4.301-2.908-6.139-3.903l-1.198-.648c-2.573-1.389-5.488-2.963-8.271-4.559-1.498-.861-3.107-1.565-4.661-2.246-.674-.295-1.346-.589-2.011-.897-.176-.079-.358-.151-.541-.222-.186-.07-.373-.14-.55-.227-1.397-.685-2.792-1.377-4.186-2.07-2.991-1.486-6.083-3.023-9.181-4.464-2-.929-4.076-1.709-6.084-2.462l-1.834-.694c-1.614-.619-3.211-1.209-4.984-1.863-.988-.364-1.977-.729-2.964-1.099-2.43-.908-4.62-1.728-6.798-2.573l-.18-.069c-1.025-.398-2.083-.808-3.065-1.306-3.349-1.69-6.849-3.124-10.406-4.26-1.965-.629-3.915-1.343-5.8-2.033-1.491-.546-3.182-1.165-4.849-1.721-1.836-.613-3.821-1.212-5.885-1.428-.247-.026-.491-.063-.734-.104-.8-.122-1.684-.258-2.593.059-.339.118-.725.105-1.139.091-.566-.017-1.192-.032-1.785.266l-.067.019c-1.828.109-3.767.069-5.619-.931-1.84-.994-3.842-1.986-6.019-2.516l-.584-.141c-.748-.182-1.52-.368-2.275-.573-2.204-.597-4.141-1.729-6.19-2.928-1.684-.986-3.086-1.724-4.427-2.331-1.902-.862-3.861-1.67-5.756-2.453l-1.548-.64c-.379-.157-.756-.319-1.134-.483-1.132-.484-2.29-.982-3.483-1.345-2.071-.625-3.899-1.627-5.565-2.616-1.668-.987-3.501-1.685-5.604-2.134l-.406-.086.348-.226c.381-.247.709-.574,1.005-1.003l.26-.378-.36-.286c-.947-.753-1.947-.734-2.918-.714h-.327s-.093-.387-.093-.387c-.145-.586-.288-1.166-.407-1.748-.394-1.9-1.025-3.737-1.634-5.512-.354-1.027-.668-1.953-.953-2.893-.335-1.109-.663-2.262-.951-3.279-.572-2.013-1.162-4.094-1.879-6.128-.65-1.845-1.21-3.755-1.754-5.601l-.059-.202c-.329-1.122-.671-2.281-1.03-3.413-.991-3.135-1.871-6.369-2.722-9.496l-.563-2.067c-.514-1.88-.947-3.806-1.365-5.67-.42-1.865-.846-3.766-1.35-5.62-.331-1.212-.678-2.417-1.026-3.623l-1.101-3.893c-.401-1.442-.815-2.932-1.257-4.387-.616-2.02-1.231-3.994-1.974-5.948-.399-1.046-.707-2.15-1.007-3.217l.153-.093h0l-.165.047c-.21-.745-.425-1.516-.67-2.261Zm-95.223,190.411c-.682-.304-1.362-.612-2.04-.925-1.325-.609-2.407-1.543-3.292-2.376-.652-.612-1.343-1.185-2.012-1.738l-.035-.03c-.654-.542-1.33-1.103-1.959-1.697-2.955-2.795-5.647-5.913-8.251-8.928l-1.193-1.378c-1.228-1.416-2.55-2.787-3.827-4.111-.515-.534-1.021-1.058-1.522-1.586-.96-1.011-2.16-1.772-3.667-2.325-.327-.118-.632-.229-.85-.398-1.58-1.237-3.363-2.134-5.088-3.002-1.04-.523-2.075-1.046-3.046-1.623-1.544-.919-3.116-1.727-4.781-2.582l-1.131-.582.432-.114c.438-.114.955-.254,1.473-.418,1.587-.503,3.168-1.013,4.751-1.522l.342-.11c2.226-.717,4.527-1.458,6.797-2.167.92-.288,1.869-.529,2.787-.763l.066-.016c.625-.159,1.249-.317,1.869-.488l.749-.207c1.403-.389,2.852-.789,4.263-1.244,1.322-.426,2.661-.878,3.957-1.317l.223-.075c1.397-.475,2.766-.939,4.142-1.382,1.291-.416,2.589-.812,4.029-1.252l.196-.061c1.6-.491,3.255-.998,4.867-1.533,1.299-.43,2.649-.8,3.954-1.157,1.222-.335,2.468-.675,3.696-1.07l.976-.315-.82.616c-.995.748-1.759,1.434-2.403,2.16-.662.746-1.271,1.548-1.86,2.323l-.417.549c-3.341,4.365-5.717,9.076-7.063,14.002-.449,1.638-.892,3.381-.945,5.106l-.043,1.194c-.079,2.024-.161,4.117.245,6.21.289,1.499.58,2.756.913,3.954.935,3.347,2.36,6.657,4.359,10.12.425.738.871,1.391,1.365,1.993l.461.562-.664-.296Zm40.972,6.934c-.624.266-1.103.631-1.424,1.081l-.081.114-.129-.056c-2.465-1.095-4.763-2.567-6.986-3.991l-.362-.231c-2.866-1.834-5.436-4.17-7.703-6.232-2.125-1.93-4.069-4.092-5.878-6.142-1.68-1.904-3.021-4.141-4.248-6.27-.483-.835-.884-1.719-1.19-2.629-.769-2.289-1.179-4.614-1.218-6.908-.003-.108.005-.218.012-.329l.004-.044c.022-.309.046-.66-.071-.998-.329-.947-.285-1.923-.239-2.956.023-.495.047-1.057.017-1.549v-.027s.005-.026.005-.026c.012-.05.046-.113.1-.211l.051-.093.11-.003h.071c.048.003.095.003.144.008.311.027.621.062.933.098l.129.015c.686.081,1.462.172,2.228.172h.059c.319-.003.627,0,.939.001l.389.004c1.436.016,3.073.036,4.676-.246,1.174-.207,2.349-.246,3.593-.288.55-.017,1.1-.036,1.715-.065.187.011.406.027.609-.095.387-.235.83-.222,1.333-.206.285.007.572.016.851-.012.418-.044.836-.098,1.255-.152l.947-.12.061.067c.304.342.598.68.889,1.015l.065.074c.845.974,1.642,1.894,2.535,2.758,1.4,1.356,3.164,2.8,5.638,3.241,1.616.285,2.991.046,4.209-.736,2.799-1.791,4.719-4.291,5.709-7.43.05-.16.117-.311.18-.453l.046-.101,2.448-.004c2.275-.008,4.328-.015,6.397.019,1.271.02,2.604.143,3.779.25l.719.065c.086.008.202.061.383.157l.091.056.019.055c1.498,4.414,3.684,7.36,6.882,9.274,2.367,1.417,4.626,1.795,7.11,1.19,3.456-.842,6.009-3.041,7.804-6.721.132-.269.233-.563.324-.842l.042-.124,1.758.079c1.639.074,3.187.143,4.769.235l.733.035c.923.039,1.794.077,2.609.305,1.252.351,2.527.512,3.76.667.387.048.773.097,1.158.151l.446.063c.589.085,1.186.169,1.787.237l.949.105-.927.233c-.902.226-1.767.432-2.574.619-2.674.617-4.785,1.463-6.646,2.663-.703.455-1.436.889-2.144,1.309l-.044.026c-.717.425-1.458.865-2.169,1.323-1.721,1.108-3.401,2.2-5.016,3.388-1.333.979-2.631,2.012-3.885,3.01-.577.459-1.154.917-1.733,1.37-1.759,1.376-3.729,2.718-5.857,3.989l-.098.058-.728-.529c-1.59-1.159-2.608-2.38-3.3-3.961l-.015-.069v-2.448l-.975-1.841h-1.179l-.892,1.682-.062.223c-.34,3.986,3.234,6.934,5.95,7.278l.515.066-.577.325c-.511.289-1.038.586-1.573.866-.55.288-1.126.541-1.633.764l-.074.032c-.514.229-1.044.464-1.548.725-.871.451-1.74.944-2.582,1.421l-.912.516-.091-.083c-.101-.093-.215-.202-.295-.317-.937-1.356-2.173-2.574-3.889-3.833-1.144-.839-2.441-1.79-3.97-2.384-1.373-.533-2.731-.992-4.172-.803-1.217.159-2.453.488-3.572.951-1.885.78-3.831,1.697-5.075,3.575-.914,1.376-1.342,2.57-1.385,3.872-.052,1.608.313,3.201,1.089,4.731.559,1.104,1.208,2.175,1.833,3.21l.558.921-.169.083c-.085.042-.169.081-.256.117l-1.701.71c-.724.3-1.446.6-2.165.908Zm71.255-64.814l.648.289c.843.377,1.692.383,2.512.39.292.003.574.007.85.024l1.205.078-1.178.262c-1.688.377-3.097,1.3-4.137,2.064-.554.407-.967.736-1.337,1.066-1.477,1.314-2.418,2.628-2.96,4.135l-.039,2.522.105.367c.472,1.037.963,2.121,1.676,3.119,1.736,2.423,4.142,4.047,7.355,4.961.421.124.944.083,1.611-.128,3.752-1.178,6.498-3.83,8.162-7.882.644-1.569.568-3.259-.226-5.022-.522-1.167-.877-1.4-2.304-1.972l-.203-.081-3.143,1.528.104-.37c.066-.233.097-.476.093-.722-.015-1.005-.65-2.129-1.836-3.25l-.331-.313.615.023c.433.015.881.03,1.321.081,1.643.196,3.32.247,4.944.297l.274.008c.549.017,1.096.035,1.642.058.233.012.491-.004.686-.017.406-.028.734-.039.978.056,1.105.442,2.197.344,3.12.188.67-.114,1.331-.133,2.031-.153.413-.012.834-.024,1.247-.056l.787-.055c.959-.065,1.928-.13,2.875-.309,1.797-.335,3.486-.526,5.166-.582,2.271-.085,4.668.083,7.514.512l.543.082-1.836.905c-1.302.639-2.632,1.292-3.913,1.993-.664.364-1.222.881-1.764,1.381l-.218.2c-.576.526-1.138,1.064-1.759,1.661l-.052.05c-.998.958-2.029,1.946-3.105,2.828-1.229,1.009-2.527,1.984-3.783,2.926l-.058.043c-1.544,1.159-3.138,2.356-4.638,3.635-1.159.987-2.193,2.02-3.16,3.158-1.01,1.19-2.152,2.535-3.479,3.497-2.288,1.657-4.718,3.099-7.224,4.286l-.082.038-.078-.044c-.701-.405-1.393-.807-2.079-1.206-1.754-1.021-3.567-2.075-5.417-3.084-1.349-.733-2.734-1.409-4.074-2.064l-.258-.126c-.6-.295-1.201-.588-1.798-.889l-.229-.114,1.385-1.221-1.005-1.065-2.289,1.404-.095-.077c-.129-.105-.245-.178-.363-.23-2.281-1.003-4.39-2.395-6.428-3.741-.843-.557-1.717-1.134-2.606-1.685l-.953-.597c-1.233-.773-2.507-1.573-3.833-2.261-2.672-1.388-5.405-2.768-8.046-4.102l-.265-.133c-1.898-.958-3.795-1.915-5.687-2.883-2.099-1.072-4.157-2.185-6.067-3.23-.916-.5-1.802-1.126-2.787-1.965l-.253-.215.527-.136c.924-.243,1.798-.475,2.664-.547,1.134-.093,2.281-.233,3.39-.367.733-.09,1.438-.176,2.145-.25,1.434-.152,2.817-.367,4.477-.632,1.989-.321,4.117-.616,6.502-.901.785-.094,1.569-.11,2.399-.128.968-.02,1.941-.04,2.91-.187,1.054-.159,2.162.015,3.295.222.854.155,1.864.35,2.873.62,1.504.403,2.999.949,4.445,1.479,1.889.69,3.803,1.389,5.788,1.811l1.018.223c1.861.41,3.77.831,5.738.835h.008l-.25-.312Zm5.654,3.901l.079-.017.065.05c.616.485,1.015,1.265,1.255,2.457l.172.854.643-.588c.247-.226.449-.475.6-.741l.086-.155,2.617,1.582.012.078c.562,3.405-1.594,6.812-5.365,8.475l-.034.015-1.938-.012c-2.629-1.045-4.216-2.492-5.148-4.693l-.013-.066-.012-2.206c.212-1.046,1.053-1.59,1.943-2.165l.473-.311c.286-.194.572-.398.859-.602,1.181-.843,2.297-1.639,3.705-1.954Zm54.779,60.581l-.104-1.798c-.09-1.618-.176-3.147-.304-4.706-.081-1.009-.317-2.277-1.427-3.146-.116-.091-.238-.132-.379-.179l-.199-.082-1.891.746.795,1.768-.003,5.346-1.151-.593c-3.06-1.572-6.192-3.182-9.145-5.252l-.29-.203.339-.102c.449-.137.888-.282,1.317-.424,1.307-.432,2.519-.832,3.764-.924l.073-.005.055.05c.451.407.701.956.964,1.538.195.432.409.906.724,1.357l.475.676.367-.741c.633-1.271.491-2.44.242-3.511-.344-1.502-1.148-2.41-2.457-2.777l-.148-.019c-2.905-.065-5.98.693-9.69,2.394l-.086.04-1.162-.768c-1.03-.679-2.095-1.381-3.144-2.11-.783-.545-1.565-1.114-2.323-1.665l-.086-.062c-.914-.666-1.95-1.42-2.987-2.126-1.126-.767-2.3-1.504-3.435-2.215l-.047-.03c-.53-.332-1.06-.664-1.59-1.001-1.914-1.218-3.939-2.605-6.192-4.239-1.392-1.009-2.93-1.931-4.289-2.743-.572-.344-1.144-.687-1.711-1.037l-.406-.258c-.471-.307-.958-.623-1.518-.816-1.045-.359-2.089-.886-3.187-1.612l-.992-.656,1.138.348c1.342.41,2.726.687,4.23.847,1.038.11,2.095.32,3.117.524.629.125,1.233.246,1.84.35.737.125,1.478.238,2.218.348,1.205.182,2.45.37,3.67.621,1.989.409,4.004.892,5.951,1.36l1.864.445c.788.188,1.575.383,2.363.578,1.428.354,2.618.647,3.861.92.902.198,1.846.34,2.679.465.394.059.785.12,1.175.183.21.035.422.062.633.089l.086.011c.479.059.972.121,1.416.262.655.211,1.307.276,1.939.34.461.046.908.09,1.345.19.483.109.978.149,1.415.186.469.039.955.079,1.397.195,2.684.699,5.405,1.432,8.037,2.141,2.401.647,4.801,1.292,7.204,1.924l.69.182c2.823.745,5.734,1.513,8.705,1.873.391.047.775.149,1.146.247l.005.179.043-.165c.463.121.941.246,1.44.288.608.054,1.204.183,1.834.32.971.211,2.051.44,3.131.35.094.008.141.024.183.039.163.056.325.112.516.118.402.011.808.035,1.216.059,1.079.065,2.187.129,3.271-.043l.581-.104c.75-.137,1.393-.25,2.14-.147.905.13,1.828.241,2.721.347l.149.017c1.419.168,2.866.34,4.273.585,1.056.182,1.852.476,2.434.9l.202.147-.764.5c-.342.221-.672.436-.995.666-.975.699-2.051,1.315-3.09,1.91l-.013.008c-.496.284-.992.568-1.481.862-1.689,1.013-3.639,2.222-5.39,3.748-1.158,1.01-2.401,2.071-3.743,2.972-2.306,1.556-4.866,2.583-7.999,3.647-.481.164-.976.307-1.456.445-.413.12-.826.238-1.236.371l-1.755.577c-2.527.835-5.105,1.688-7.64,2.196l-.069.013-5.398-3.553Zm2.297,4.414l-.312.102c-.409.132-.811.27-1.205.407-.732.253-1.455.503-2.211.714l-.382.108.182-.352c.367-.71.602-1.435.808-2.074l.034-.105c.062-.187.124-.374.187-.559l.071-.206.184.117c.469.3.902.574,1.331.875.354.247.699.506,1.052.773l.261.199Zm-4.447-5.109l-1.263-.775.2-.373,1.062,1.147Zm-37.919,11.683c.351.307.733.596,1.103.875.685.518,1.323,1.001,1.848,1.634l.203.245-1.256.145c-1.428.168-2.905.34-4.367.438-1.748.117-3.579.2-5.592.257l-1.541.048c-1.384.044-2.788.089-4.208.089-1.809,0-3.645-.073-5.496-.313l-.194-.026.27-1.045c.23-.89.446-1.732.687-2.575.268-.939.519-1.958.546-3.065.031-1.296.091-2.676.32-3.993.129-.744.238-1.44.332-2.129l.075-.546.249.491c.212.418.44.811.615,1.105.262.442.592.819.909,1.183.251.288.494.565.697.867,1.323,1.969,3.144,3.338,4.913,4.524.811.543,2.054,1.288,3.49,1.486,2.084.301,3.702-.836,4.884-1.863,1.806-1.568,2.975-3.63,3.788-6.685.592-2.215.054-3.905-1.642-5.167l-.132-.097h-1.701l-2.805,1.583,2.867,1.278-.023.132c-.473,2.831-1.068,5.295-3.561,6.785l-.074.024c-2.261.182-2.987-.23-4.199-1.044-2.357-1.58-4.041-3.575-5.004-5.924l-.013-.066v-1.621l.026-.042c.046-.074.089-.148.133-.222.13-.223.265-.456.416-.561,1.131-.781,2.223-1.326,3.341-1.664,2.438-.74,3.382-.909,5.878-.761l.054.004,1.173.935,1.241-1.751-.075-.234c-.608-1.877-2.208-2.105-3.494-2.286l-.344-.05c-1.993-.311-3.965.198-5.273.609-2.258.705-3.993,1.836-5.301,3.459l-.348.432.042-.553c.055-.719.091-1.44.128-2.162l.011-.218c.052-1.027.105-2.09.21-3.135.078-.803.075-1.608.073-2.388-.004-1.096-.008-2.129.194-3.174.137-.707.149-1.42.161-2.11.013-.75.027-1.428.169-2.099.136-.644.182-1.302.225-1.939l.005-.075c.032-.477.065-.971.143-1.452.148-.935.343-1.876.531-2.787.12-.576.237-1.153.346-1.731l.034-.173c.122-.637.249-1.298.272-1.972.008-.25.026-.444.055-.611l.051-.286.227.184c.43.35.854.689,1.307.994.483.323,1.006.616,1.469.874.253.143.506.284.754.433.295.172.586.356.866.547,1.036.701,2.07,1.407,3.103,2.111l.183.125c2.379,1.625,4.839,3.304,7.312,4.927,1.553,1.018,3.15,2.002,4.692,2.955,1.264.779,2.57,1.586,3.841,2.401.998.644,1.986,1.334,2.943,2.001l.05.035c.83.58,1.579,1.101,2.344,1.611,1.104.736,2.23,1.444,3.316,2.13l1.046.662-.144.152c-.07.074-.139.149-.204.223-1.431,1.642-2.777,3.694-1.91,6.467.122.393.222.797.319,1.19l.017.07c.258,1.045.523,2.123,1.157,3.081.694,1.053,1.49,2.017,2.472,3.142,1.366,1.561,3.057,2.733,4.377,3.579l.381.243-.446.071c-.184.03-.368.058-.555.087-.305.046-.574.087-.842.132-.413.069-.826.132-1.241.196-1.009.153-2.051.312-3.07.559-1.838.446-3.702.924-5.503,1.387l-.329.085c-1.781.459-3.622.932-5.439,1.373-.678.167-1.401.239-2.04.303l-.597.063-.059-.077c-1.478-1.933-3.271-2.983-5.48-3.214l-1.541-.161,1.166,1.022Zm22.839-7.865c-.932-1.084-1.934-2.431-2.309-4.207-.126-.602-.128-1.216-.129-1.809,0-.412-.003-.811-.038-1.194l-.005-.046.02-.043c.656-1.426,1.444-2.324,2.479-2.826l.086-.042,2.304,1.448c2.278,1.44,4.633,2.93,7.171,4.072.983.444,1.938.974,2.862,1.487l.048.027c.29.161.58.321.869.48l.09.048v.102c.005,2.535-.706,4.576-2.175,6.241l-.032.036-.931.277c-.789.237-1.408.421-2.167.616-.367.093-.59.134-.737.134-.062,0-.11-.007-.149-.022-.343-.139-.687-.264-1.031-.389-.824-.3-1.604-.582-2.329-1.03-1.421-.88-2.733-2.011-3.896-3.365Zm45.68-26.13l.457,1.777h-.221c-.206.003-.41.004-.613.004-3.272,0-6.252-.196-9.09-.598-.992-.141-1.994-.212-2.963-.281-.403-.028-.768-.054-1.127-.083l-.056-.005-.121-.108-.012-.055c-.316-1.444-.531-3.011-.678-4.932v-.028s.005-.027.005-.027c.032-.132.063-.266.094-.402l.019-.087c.212-.96.397-1.612,1.006-1.915,1.471-.73,3.084-1.036,4.8-.91l.043.009.251.085c1.596.25,3,.898,4.146,1.916.237.211.48.42.722.627l.077.066c1.048.892,2.039,1.735,2.692,2.815l.055.093-.659.998,1.171,1.044Zm12.537,3.866l-.148-.051c-2.126-.737-5.367-1.723-8.935-1.763h-.14s-.572-2.84-.572-2.84l-.073-.18c-.152-.249-.3-.503-.437-.741l-.059-.101c-.319-.549-.593-1.022-.908-1.471-1.201-1.717-2.757-3.22-4.895-4.727-2.916-2.062-6.153-2.464-9.886-1.237-2.15.705-3.327,2.36-3.404,4.788-.047,1.51.136,3.035.543,4.533l.07.261-.266-.046c-.308-.052-.609-.105-.909-.163l-1.576-.312c-.843-.169-1.688-.338-2.534-.491-.53-.097-1.061-.18-1.594-.262l-.2-.032c-.764-.118-1.555-.241-2.324-.402-.92-.194-1.849-.416-2.748-.631l-.101-.024c-1.637-.391-3.33-.796-5.027-1.058l-1.412-.214c-1.518-.231-3.089-.469-4.628-.752-.769-.141-1.538-.234-2.257-.315-.381-.043-.765-.067-1.15-.093-.746-.05-1.427-.095-2.079-.258-.908-.223-1.833-.347-2.727-.468-.851-.114-1.641-.222-2.43-.402-.776-.179-1.555-.347-2.333-.515l-7.964-1.772c-1.408-.313-2.817-.628-4.227-.951-.987-.227-1.974-.461-2.961-.695-.944-.225-1.888-.448-2.834-.666-1.996-.461-4.134-.951-6.247-1.409-.397-.086-.791-.194-1.173-.3l-.042-.011c-.445-.122-.905-.247-1.372-.339l-.441-.087,1.079-.647c1.817-1.13,3.931-2.512,5.811-4.174,1.097-.97,2.149-1.978,3.164-2.953.839-.807,1.79-1.721,2.746-2.582,1.298-1.167,2.702-2.271,4.06-3.339l.246-.194c.545-.428,1.1-.836,1.716-1.287.831-.608,1.692-1.237,2.501-1.924,1.206-1.023,2.363-2.134,3.483-3.209l.894-.858c1.253-1.194,2.363-1.873,3.599-2.201.553-.145,1.075-.352,1.579-.553l7.048-2.674.546.143c.352.091.651.169.947.253.627.173,1.251.352,1.876.533,1.311.377,2.667.767,4.026,1.095,4.193,1.011,8.138,2.518,11.777,3.994l3.634,1.47c1.833.74,3.667,1.481,5.498,2.23l1.992.807c2.699,1.089,5.49,2.215,8.14,3.538,3.612,1.802,6.559,4.422,9.507,7.175.619.577,1.173,1.202,1.76,1.864.389.437.789.889,1.202,1.315,1.19,1.232,2.157,2.756,2.959,4.656.514,1.221.871,2.491,1.253,3.907.347,1.288.623,2.641.898,4.03.069.354.067.722-.004,1.009-.412,1.673-.807,3.177-1.477,4.634l-.065.143Zm-141.239-40.162l1.095.616c1.22.683,2.441,1.415,3.622,2.121,1.434.859,3.06,1.833,4.677,2.7,2.548,1.368,5.163,2.711,7.691,4.01l.118.061c2.146,1.104,4.367,2.246,6.537,3.397,1.056.559,2.041,1.205,3.085,1.889.266.176.529.347.791.518l.164.106-.128.149c-.717.838-1.265,1.587-1.614,2.519l-.46,1.235,1.157-.629c.697-.379,1.233-.917,1.751-1.436.299-.3.576-.578.88-.831l.089-.073.102.054c4.173,2.212,8.1,4.486,12.001,6.951l.783.494-1.742-.348c-.806-.164-1.638-.334-2.469-.467-.667-.105-1.353-.183-2.016-.258-.947-.108-1.926-.219-2.862-.418-.385-.083-.783-.121-1.132-.155-.331-.031-.643-.061-.949-.124-1.4-.288-2.808-.512-4.169-.729l-1.45-.233c-.317-.052-.643-.086-.958-.118l-.075-.008c-.339-.035-.69-.071-1.031-.141-2.203-.448-4.582-.64-7.333-.6-.272-.003-.543-.008-.823-.022l-.168-.008.004-.169c.012-.421.023-.819-.028-1.229-.108-.877-.321-1.764-1.139-2.324-.42-.288-1.202-.824-2.14-.394l-.168.075-.065-.172c-.137-.368-.281-.722-.424-1.058-.59-1.407-1.661-3.372-4.117-4.186l-.075-.024h-.749c-.508.004-1.033.005-1.56-.001-2.725-.048-5.394.636-7.719,2-1.547.909-3.454,2.253-4.481,4.591l-.051.117-.377-.051c-.613-.09-1.216-.178-1.822-.196-1.111-.031-2.246-.024-3.342-.023l-1.973.008c-1.822.011-3.892.02-5.835-.319l-.116-.02-.079-.381c-.106-.49-.21-.974-.257-1.454-.202-2.086-.992-3.973-1.758-5.799l-.191-.457c-.491-1.178-1.296-1.93-2.398-2.232l-.242-.066-1.018.819-.091-.204c-.607-1.357-1.587-2.967-3.801-3.37l-.129-.023-.428.156c-.156.059-.316.12-.484.163-3.162.793-7.064,2.234-9.203,6.358-.87,1.678-1.7,3.491-1.463,5.572.091.784.286,1.533.494,2.325.034.124.062.235.09.346l.051.199-2.953.233c-.151-.005-.313-.012-.491.05-.726.256-1.493.286-2.304.321-.69.03-1.404.059-2.115.234-.274.067-.554.089-.824.109l-.077.007c-.348.024-.687.051-1.022.125-.826.182-1.786.19-2.699.019l-.488-.09c-1.226-.231-2.538-.457-3.918-.472-.289.004-.584.003-.875.003h-.514l.153-.676c.413-1.719.949-3.69,2.091-5.369,2.02-2.967,4.533-4.942,7.686-6.037.803-.28,1.6-.586,2.485-.928.854-.331,1.7-.656,2.543-.948,2.067-.717,4.27-1.46,6.496-1.992,1.744-.417,3.491-.906,5.195-1.454,2.383-.765,4.79-1.602,7.118-2.409l1.013-.352c2.282-.792,4.642-1.611,6.969-2.476,1.733-.644,3.464-1.327,4.991-1.928l1.848-.725.073.043c.168.102.336.206.504.309.569.354,1.157.719,1.805.971,3.22,1.251,6.275,2.972,9.231,4.636Zm-3.662,20.791c4.968.511,9.661.994,14.441,1.924l.217.043-.093.199c-.577,1.237-1.438,2.325-2.633,3.326-.857.717-1.937,1.153-3.299,1.331-.266.035-.53.051-.795.051-1.561,0-3.105-.602-4.695-1.832-1.548-1.196-2.655-2.773-3.386-4.821l-.091-.258.335.036Zm-.229-2.951l.19-.243c.55-.703,1.155-1.069,2.157-1.302.433-.1.865-.208,1.296-.317.754-.19,1.534-.386,2.314-.537,1.128-.218,2.288-.398,3.31-.557l1.194-.191.058.04c1.399.983,2.347,2.323,3.351,3.74.208.296.421.593.639.892l.242.332-.986-.144c-2.162-.321-3.966-.586-5.833-.823-2.05-.261-4.088-.477-6.061-.687l-1.872-.203Zm-21.749-.719c-.295.024-.588.046-.882.067-1.03.074-2.2.16-3.311.344-.452.075-.909.113-1.352.148-.464.039-.987.082-1.489.169-1.785.313-3.591.451-5.599.586l-.117.008-.089-.19c-.128-.284-.231-.511-.265-.729-.046-.28-.106-.555-.165-.831-.186-.854-.346-1.591-.055-2.449.542-1.602,1.557-2.905,3.197-4.099,1.978-1.443,3.596-2.255,5.246-2.637l.075-.017.063.046c.951.678,1.583,1.697,2.048,3.303l.293,1.015,1.116-1.668.125.289c1.021,2.348,1.439,5.094,1.315,6.486l-.012.145-.144.012Zm.043,2.575l-.02.211c-.748,2.573-2.09,4.236-4.224,5.233l-.035.016h-.039c-2.838-.024-5.662-1.629-7.029-3.99l-.137-.238.274-.02c.405-.03.812-.052,1.22-.075.971-.052,1.976-.108,2.973-.266l.82-.134c1.284-.212,2.481-.412,3.794-.445.214-.004.476-.009.722-.129.455-.221.97-.196,1.463-.172l.218.011Zm14.93,36.305c.195.132.395.26.597.387,1.001.629,1.623,1.073,1.829,1.927l.023.09-.063.067c-1.763,1.896-4.006,2.934-6.336,2.934-.062,0-.122-.001-.184-.003-2.227-.023-4.345-.913-5.96-2.507l-.167-.164.207-.11,11.744-6.225.089.113c.674.853,1.353,2.047,1.817,3.194l.235.581-.5-.379c-.99-.754-2.02-1.015-3.147-.795l-1.158.223.974.666Zm-12.64.297l-.122.058-.085-.106c-1.748-2.195-3.596-4.794-3.393-7.904.445-1.477,1.311-2.37,2.817-2.933.207-.078.405-.194.589-.307.156-.094.315-.191.457-.237l.253-.081c.69-.221,1.403-.449,2.107-.538,1.988-.261,3.926.382,5.923,1.938.976.763,1.895,1.649,2.784,2.507.334.323.666.643,1.002.959l.167.157-.194.12c-3.568,2.102-7.479,4.125-12.305,6.366Zm-3.415,7.184c-.694-.295-1.393-.617-1.994-.897l-.374-.173,4.831-1.79.077.063c1.265,1.049,2.639,1.914,4.083,2.567,1.564.707,3.445,1.419,5.595,1.249.641-.046,1.268-.143,1.962-.254l.156-.024c2.149-.346,3.831-1.204,5.143-2.624.264-.285.518-.58.769-.874l.079-.093.113.044c.96.375,1.696-.26,2.087-.601.843-.728,1.167-1.742.871-2.715-.102-.328-.196-.66-.29-.992-.356-1.252-.724-2.546-1.448-3.724-.35-.569-.679-1.15-1.044-1.795l-.278-.494.145-.086c.151-.089.299-.179.448-.269.724-.436,1.393-.838,2.105-1.099,2.834-1.042,5.378-2.418,8.412-4.11,1.194-.666,2.458-1.466,3.977-2.518.808-.559,1.614-1.154,2.392-1.728,1.007-.744,2.05-1.512,3.116-2.218.956-.631,1.977-1.213,2.964-1.775l.059-.034c.703-.401,1.43-.815,2.129-1.247.865-.531,1.732-1.093,2.57-1.635l.043-.028c1.131-.732,2.3-1.489,3.482-2.184.811-.479,1.783-.893,3.06-1.304.909-.293,1.85-.535,2.761-.771.617-.159,1.217-.313,1.813-.483,2.301-.65,4.177-1.015,5.901-1.15.998-.075,2.051-.208,3.314-.418l.339-.056-.231.448.644-.34-.058.343c-.052.316-.133.629-.218.962-.081.32-.156.611-.211.902l-.208,1.084c-.276,1.444-.551,2.886-.846,4.326-.074.37-.114.744-.156,1.159-.048.476-.093.92-.208,1.321-.221.769-.272,1.536-.321,2.277-.039.59-.074,1.112-.173,1.631-.179.927-.199,1.871-.219,2.784v.052c-.015.568-.027,1.154-.083,1.732-.114,1.222-.122,2.448-.13,3.631-.009,1.443-.019,2.937-.223,4.394-.13.933-.194,1.869-.253,2.774l-.008.108c-.027.403-.054.807-.093,1.2-.034.113-.056.187-.067.262-.052.335-.11.67-.169,1.003-.14.803-.284,1.622-.323,2.446-.046.931-.233,1.807-.432,2.737l-.391,1.829c-.242,1.105-.518,2.359-.713,3.6-.155.992-.231,1.974-.312,3.014l-.083,1.042-.165-.007c-.04-.001-.089-.005-.13-.02-.8-.235-1.599-.268-2.343-.268l-.533.004c-.35.005-.761.008-1.165-.008l-6.98-.316h-.171s-.034-.012-.034-.012c-1.319-.558-2.674-.048-3.732-.523l-7.359-.382c-.09-.009-.175-.003-.257.004-.066.003-.097.004-.121.008l-.043.005-.042-.015c-1.027-.375-2.068-.387-3.074-.399-.693-.008-1.326-.016-1.953-.126-.992-.172-1.992-.175-2.957-.178-1.019-.004-1.982-.008-2.944-.187-.713-.133-1.438-.183-2.138-.233l-.069-.005c-.467-.032-.951-.067-1.427-.129-.529-.069-1.054-.191-1.564-.309-.269-.062-.498-.116-.729-.164l-1.495-.313c-1.08-.223-2.196-.455-3.31-.71l-1.041-.239c-1.52-.346-3.242-.738-4.859-1.206-4.352-1.265-8.809-2.865-13.244-4.753Zm50.257,29.956q-.003-.005-.005-.01l-.143.096-.012-.023.075-.058-.091.033.29-.187.024.043-.143.096s.003.005.005.01Zm15.696,2.408c-1.286.331-2.516.792-3.705,1.239l-.04.015c-.906.339-1.842.689-2.778.971-.89.269-1.746.654-2.573,1.026l-.67.3c-.238.105-.485.227-.804.395l-.253.134v-1.264l-.022-.152c-.39-1.431-1.241-2.137-2.598-2.137h-.281l.032-.199c.087-.551.02-1.066-.2-1.529l-.151-.313.34.071c.425.089.847.178,1.27.269.043.009.083.026.125.043.163.067.319.132.504.145.481.036.968.062,1.452.087l.152.008c.951.048,2.029.104,3.033.249,1.763.256,3.529.266,5.237.277h.188c.568.007,1.135.011,1.703.026l1.233.032-1.194.307Zm4.504-136.638l-.003-.062c-.015-.264-.028-.527-.027-.788.004-1.438.187-2.852.561-4.328.141-.561.192-1.131.241-1.684l.007-.063c.028-.316.058-.643.109-.963.055-.359.133-.721.21-1.069.122-.561.249-1.142.292-1.736.063-.814.051-1.607.038-2.526-.007-.433-.013-.869-.013-1.335v-.168l-.818-1.065,1.306.654c1.35.678,2.709,1.361,4.118,1.871,1.528.55,3.037,1.165,4.497,1.758l.885.359c2.842,1.15,5.87,2.362,8.9,3.439,2.522.9,5.106,1.76,7.605,2.593l.886.296c1.109.368,2.219.74,3.326,1.115,1.688.572,3.427,1.267,5.32,2.125.554.251,1.127.491,1.668.715,1.046.436,2.09.87,3.055,1.408.171.094.351.171.553.256.16.067.284.118.402.179,1.903.991,3.974,2.005,6.231,2.717,1.588.5,3.151.317,4.531.156.418-.048.82-.113,1.222-.176l.086-.013c1.013-.164,2.062-.334,3.1-.225,1.459.155,2.592.371,3.565.679,4.976,1.576,10.845,3.454,16.641,5.425,1.475.5,2.933,1.126,4.344,1.731.746.32,1.491.64,2.242.943,3.246,1.314,7.519,3.072,11.765,5.032,1.438.664,2.971,1.261,4.324,1.789,1.284.5,2.577,1.005,3.815,1.557l1.52.675c3.307,1.47,6.727,2.991,9.933,4.785.729.41,1.45.861,2.148,1.296.748.468,1.486.928,2.231,1.342,1.813,1.011,3.612,1.947,5.348,2.782,1.06.51,2.183.978,3.172,1.392l.137.056c.456.191.912.382,1.365.578.745.321,1.486.647,2.228.974l.226.1c2.243.987,4.563,2.008,6.906,2.897.975.368,1.887.857,2.852,1.372l-.038.174h0s.081-.152.081-.152c.574.307,1.167.624,1.762.904,1.295.615,2.563,1.186,3.969,1.816l1.594.718.781.066c.901.024,1.845.052,2.769-.351.98-.433,1.92-.203,3.008.063l.487.117c2.048.473,4.051,1.225,5.989,1.953,1.291.484,2.625.986,3.971,1.405,1.662.516,3.326,1.159,4.934,1.781l.081.031c.785.304,1.571.608,2.36.897.264.098.546.169.82.239l.105.027.391,1.978c.445,2.279.823,4.188,1.28,6.263.095.442.227,1.046.62,1.521l.169.206-.257.07c-2.097.576-4.228,1.343-6.914,2.491-1.824.779-3.675,1.631-5.309,2.383l-1.514.694c-1.002.457-2.002.919-3.002,1.38l-.362.167c-1.888.873-3.595,1.658-5.355,2.452-.237.106-.475.21-.713.315l-.822.363.059-.382c.019-.121.038-.235.028-.368l-.015-.225-.178-.136c-.069-.052-.137-.11-.211-.172l-.073-.062c-.274-.235-.607-.52-.999-.702-2.758-1.284-5.561-2.544-8.429-3.83l-1.15-.52c-1.235-.562-2.511-1.143-3.809-1.625-1.232-.457-2.503-.874-3.733-1.276-1.05-.343-2.106-.689-3.156-1.064-1.435-.515-2.854-1.075-4.227-1.616l-4.373-1.708c-1.834-.715-3.67-1.431-5.508-2.133-.6-.23-1.226-.385-1.768-.511-.233-.058-.445.031-.664.124-.101.043-.226.097-.394.155l-.356.126.133.079-.425.023-.446.159,1.041.516c.473.237.912.46,1.329.674.822.42,1.598.815,2.38,1.166l.362.161c4.299,1.927,8.72,3.909,12.802,6.383,1.221.737,2.546,1.299,3.827,1.844l.182.078c.347.148.693.295,1.034.446.842.371,1.719.733,2.493,1.052l.062.026c.753.311,1.506.621,2.25.948,2.73,1.2,5.647,2.446,8.653,3.353.032.011.065.015.097.02.032.007.065.012.097.02l.498.118-.469.206c-1.838.806-3.635,1.596-5.406,2.426-1.513.709-2.998,1.525-4.434,2.316l-1.573.862c-.643.347-1.282.697-1.919,1.048-3.004,1.65-6.111,3.357-9.403,4.582-5.065,1.885-9.511,3.601-13.592,5.248-1.337.538-2.664,1.153-3.947,1.747l-.276.126c-.511.237-1.022.473-1.536.705l-4.293,1.928c-2.628,1.181-5.256,2.363-7.878,3.554-.994.451-1.981.917-2.967,1.384-1.163.551-2.302,1.088-3.439,1.598-2.403,1.077-4.856,2.148-7.228,3.185l-.148.063-4.291,1.881c-1.612.713-3.28,1.451-4.937,2.138-1.272.527-2.577,1.034-3.838,1.525-1.081.421-2.161.842-3.237,1.279-1.438.585-2.885,1.218-4.285,1.832l-.818.358c-3.291,1.439-6.578,2.879-9.86,4.334-1.05.467-2.097.941-3.143,1.417l-.265.12c-.955.433-1.91.867-2.869,1.291-3.834,1.701-7.198,3.181-10.283,4.524l-1.018.444c-2.481,1.083-5.293,2.308-8.056,3.454-3.255,1.349-6.615,2.513-10.059,3.688-.524.179-1.045.367-1.567.555-.807.292-1.639.593-2.505.862-.971.3-1.946.6-2.893.666-.928.065-1.775.329-2.596.585-.65.203-1.263.395-1.907.492-.496.074-.997.178-1.482.277-.406.085-.776.161-1.151.225-1.756.301-3.546.39-5.33.39-1.253,0-2.503-.044-3.735-.086-.775-.028-1.52-.054-2.262-.071-1.926-.043-4.044-.289-6.475-.75-.503-.095-1.007-.198-1.51-.301-1.439-.29-2.926-.593-4.434-.744-.164-.016-.348-.056-.581-.126l-.221-.067.316-.483-3.499-.457-.444.227-.491-.183c-.449-.164-.873-.319-1.286-.519l-.238-.116c-2.399-1.167-4.86-2.366-7.138-3.801-1.362-.857-2.777-1.668-4.145-2.453-.988-.568-2.067-1.185-3.108-1.813-3.432-2.07-7.06-3.876-10.569-5.621l-1.994-.987,1.45.336c1.181.274,2.433.539,3.721.784,2.142.41,4.138.734,6.099.99,1.599.207,3.201.214,4.749.221l1.077.005c.859.001,1.724-.008,2.586-.023,1.475-.027,3.154-.058,4.739.07,1.274.106,2.562.125,3.807.141h.078c1.419.019,2.885.036,4.316.187.46.048.92.089,1.381.128,1.49.129,3.023.262,4.461.686.147.042.28.038.397.03.547.034,1.076.056,1.606.079,1.17.051,2.367.102,3.514.269.881.129,1.764.161,2.621.191.838.03,1.606.056,2.379.16.569.075,1.136.105,1.767.133.637.03,1.239.058,1.842.152.902.14,1.81.153,2.687.167.929.012,1.772.024,2.609.157,1.924.307,3.951.368,6.192.18.518-.042,1.04-.066,1.56-.09,1.228-.058,2.497-.117,3.759-.421.66-.159,1.372-.202,2.059-.243.479-.028.91-.056,1.337-.109.767-.094,1.532-.217,2.38-.354l1.84-.295c.559-.095,1.13-.192,1.7-.246,2.665-.261,5.252-.979,7.753-1.674l.21-.058c1.353-.375,2.753-.693,4.107-1.001l.073-.016c1.041-.234,1.978-.448,2.909-.68.958-.239,1.942-.43,2.894-.615,1.895-.366,3.854-.745,5.714-1.522.499-.208,1.005-.406,1.51-.601.788-.307,1.603-.623,2.379-.982.793-.367,1.662-.68,2.429-.956,1.327-.479,2.699-.974,3.95-1.771,2.06-1.313,4.394-2.111,6.65-2.885l.051-.017c.983-.339,2.001-.689,2.983-1.076.541-.211,1.099-.395,1.639-.574.71-.233,1.443-.472,2.148-.78.982-.428,1.993-.691,3.065-.97l.105-.028c.492-.128.983-.257,1.47-.403,3.833-1.151,7.263-2.267,10.443-4.262,1.958-1.226,3.986-2.421,5.948-3.576l.161-.094c1.276-.749,2.551-1.499,3.818-2.263.555-.335,1.045-.773,1.377-1.235,1.003-1.393,1.876-2.995,2.671-4.897l.048-.066.862-.725-.62.07.198-.488c.134-.282.381-.802.1-1.377l-.032-.065.026-.069c.039-.11.113-.27.157-.366l.066-.147c.14-.312.29-.621.44-.929l.042-.085c.26-.531.519-1.061.728-1.596.827-2.107.67-4.269.438-6.302-.226-1.973-.742-3.873-1.241-5.71-.151-.547-.297-1.089-.438-1.634-.491-1.902-1.485-3.731-2.955-5.436-1.189-1.384-2.468-2.844-3.884-4.172l-.152-.143c-2.072-1.943-4.213-3.951-6.685-5.525-2.153-1.37-4.537-2.613-7.503-3.909l-1.241-.551c-1.233-.55-2.474-1.103-3.735-1.577-2.624-.99-5.292-2.055-7.645-2.994l-1.655-.659c-2.121-.843-3.877-1.557-5.525-2.249-2.957-1.243-6.058-2.09-9.057-2.909l-.225-.059c-.913-.25-1.829-.492-2.745-.733-1.103-.29-2.207-.582-3.304-.889-2.797-.78-4.987-1.237-7.098-1.483-.682-.078-1.369-.192-2.033-.303-.569-.093-1.116-.183-1.666-.257-.545-.073-1.077-.125-1.579.026-1.493.448-3.025.296-4.507.149-1.323-.129-2.616-.172-3.815-.2-1.213.004-2.325.169-3.554.391l-.857.151c-1.311.219-2.469.334-3.54.348-2.835.042-5.763.043-9.499.003-.514-.005-1.026-.079-1.571-.157-.313-.046-.617-.089-.921-.121-.274-.028-.566-.022-.847-.013h-.055c-.515.023-1.005.042-1.439-.219-.163-.095-.321-.075-.328-.075l-1.439-.104c-1.037-.082-2.101-.164-3.148-.202-.971-.032-1.91-.179-2.905-.335-.51-.079-1.01-.157-1.513-.221l-.687-.082c-.88-.1-1.79-.204-2.649-.442-2.036-.566-3.985-1.179-5.792-1.822-2.105-.749-4.305-1.235-6.245-1.664-1.282-.284-2.635-.309-3.827-.332h-.044c-.507,0-.988.071-1.479.149-.301.05-.615.101-.927.126-.366.027-.73.075-1.104.125-.379.05-.756.101-1.12.124-1.912.125-3.767.561-5.56.983l-.093.022c-.853.2-1.736.406-2.612.576-.701.133-1.411.183-2.161.234-.434.031-.841.059-1.247.101-.359.036-.718.083-1.075.13-.473.061-.963.124-1.446.164-.16.011-.317.02-.476.028l-.118.007c-.615.032-1.236.065-1.884.239-.481.128-.999.161-1.549.198-.383.024-.729.048-1.069.095-.694.094-1.362.26-2.009.42l-.059.015c-.518.126-1.054.258-1.595.347-1.232.2-2.394.627-3.517,1.04-.722.265-1.465.537-2.206.741-1.374.379-2.752.871-3.966,1.306l-.196.07c-.507.18-1.014.36-1.524.533-.978.332-1.957.658-2.938.983-2.21.733-4.473,1.483-6.67,2.309-2.235.836-4.555,1.61-6.602,2.29l-.083.028c-1.924.643-3.915,1.307-5.854,2.019-2.796,1.026-5.163,2.176-7.235,3.518-.456.296-.936.582-1.36.834-.609.363-1.241.738-1.842,1.154-2.735,1.887-4.81,3.884-6.342,6.104-1.268,1.84-2.234,4.051-2.873,6.572-.249.99-.366,1.91-.355,2.815.004.346-.062.706-.132,1.088-.056.309-.114.629-.137.947-.13,1.766.261,3.444.64,5.069.141.605.286,1.231.403,1.863.385,2.078.955,3.689,1.793,5.07l1.115,1.853c1.358,2.27,2.762,4.618,4.318,6.838,1.592,2.271,3.022,4.002,4.501,5.447.459.448.888.937,1.303,1.409.436.496.901,1.026,1.385,1.502.764.749,1.587,1.474,2.364,2.152l.82.714-1.303-.557c-1.49-.643-3.016-1.3-4.65-1.74-1.017-.274-2.068-.558-3.186-.561-.636-.001-1.272-.007-1.907-.013-.904-.009-1.801-.019-2.7-.012h-.196c-.914.004-1.859.007-2.809.354-.768.278-1.56.319-2.472.312l-.446-.008.428-.374v-1.296l-.136-.143c-.04-.043-.077-.093-.116-.144l-.026-.035c-.171-.23-.382-.512-.732-.588-.853-.184-1.499-.734-2.184-1.318-.483-.41-.982-.835-1.577-1.148-.553-.292-1.018-1.111-1.17-1.38-.373-.655-.652-1.349-.949-2.084l-.242-.592c-1.182-2.854-2.001-5.471-2.504-8.002-.043-.222-.095-.444-.148-.664l-.02-.085c-.148-.623-.288-1.209-.266-1.774.026-.752.151-1.541.272-2.305l.051-.321c.309-1.99.748-3.935,1.17-5.816.531-2.364,1.29-4.665,2.254-6.84,1.177-2.657,2.782-5.269,5.206-8.467.88-1.159,2.074-2.146,3.228-3.101l.334-.276c2.538-2.103,5.531-3.587,8.425-5.023.88-.436,1.79-.886,2.675-1.348,3.678-1.923,7.705-3.631,12.309-5.221,1.584-.547,3.195-1.166,4.615-1.711,1.278-.491,2.598-.997,3.909-1.465.902-.32,1.853-.553,2.772-.779.355-.087.71-.175,1.064-.266.602-.159,1.208-.312,1.813-.465l.344-.087c1.017-.257,2.031-.515,3.043-.787.738-.198,1.474-.406,2.21-.616l.262-.074c1.175-.338,2.508-.718,3.838-1.042,4.654-1.14,9.118-2.592,12.87-3.861,1.045-.355,1.959-.596,2.795-.733.845-.139,1.708-.25,2.543-.356l.104-.013c1.341-.172,2.71-.347,4.043-.629,1.186-.25,2.341-.25,3.585-.241h.097c.553.004,1.126.005,1.69-.013l.348-.013c1.181-.043,2.402-.089,3.567.034.508.054,1.017.09,1.526.126l.101.007c1.122.079,2.183.153,3.248.39.589.132,1.2.188,1.79.245l.156.015c.212.02.424.042.636.066,2.089.247,4.185.689,6.213,1.116l1.399.293c1.391.288,2.878.57,4.42.839.438.077.898.101,1.343.124.741.038,1.443.073,2.084.367.251.11.511.091.703.074l.042-.004c.056-.007.12-.012.186-.001l.483.043c1.369.121,2.631.234,3.897.522.484.109.982.153,1.419.192l.052.004c.307.028.625.056.939.108,1.634.266,3.105.561,4.498.901.358.086.702.1,1.034.113.402.015.776.028,1.138.172.608.242,1.263.282,1.895.321.292.019.593.039.886.079,2.748.394,5.5.342,8.163.297h.056c1.923-.032,3.916-.067,5.859.07l1.021.074c2.043.153,4.142.311,6.21.1,2.059-.21,4.185-.217,6.258-.208h.079c2.239.003,4.598.19,7.011.555.46.07.928.062,1.378.058l.533-.007c.203,0,.405.011.604.022.391.02.771.035,1.167.001,2.352-.21,4.716-.004,7.036.623l.309.083c1.21.328,2.462.667,3.677,1.054,4.228,1.348,8.249,3.107,11.949,5.229,3.111,1.787,5.784,3.575,8.173,5.467,3.509,2.777,7.436,4.993,11.675,6.588,2.312.87,4.115,1.924,5.514,3.221.446.413.91.779,1.471,1.213.565.438,1.077.838,1.547,1.29,1.239,1.197,2.391,2.629,3.627,4.508,1.725,2.624,3.185,5.412,4.458,8.522.959,2.336,1.985,4.751,3.049,7.179.577,1.311,1.01,2.777,1.407,4.75.087.437.066.912.042,1.462-.013.29-.027.582-.027.888v.159l1.249,1.74h1.407l1.192-1.123.496-1.934-.227-.998c-.126-.542-.256-1.101-.352-1.666-.471-2.713-1.72-5.114-2.929-7.438l-.307-.588c-.806-1.555-1.701-3.072-2.566-4.539l-.799-1.36c-1.29-2.212-2.624-4.188-4.076-6.038l-.545-.695c-1.36-1.744-2.766-3.548-4.441-5.116-2.466-2.306-5.071-3.965-7.964-5.065-2.687-1.025-4.71-1.873-6.556-2.754-1.627-.777-3.108-1.845-4.486-2.873l-1.105-.826,1.275.529c.446.184,1.003.416,1.526.667,1.042.499,2.115.936,3.152,1.361,1.196.488,2.39.978,3.514,1.541,1.945.971,3.959,1.777,5.907,2.555l.125.051c1.042.417,2.118.849,3.168,1.3,2.184.941,4.489,1.806,6.849,2.57,1.385.448,2.714.585,4.486.491l1.594-.086-1.366-.826c-.218-.133-.406-.251-.574-.358-.352-.225-.624-.394-.91-.527l-1.174-.543c-1.396-.65-2.827-1.315-4.271-1.898l-2.487-1.013c-2.842-1.161-5.781-2.36-8.751-3.369-4.075-1.382-8.013-2.879-11.661-4.291-.875-.336-1.697-.775-2.567-1.237l-.044-.024c-.452-.241-.902-.481-1.382-.718-.233-.117-.512-.229-.81-.176l-.086.016-1.421-1.362-1.31-1.455,1.068,1.912-.611-.424c-2.282-1.583-4.687-3.117-7.145-4.562-4.275-2.508-8.003-4.028-11.731-4.782-1.415-.286-3.09-.602-4.798-.775l-.43-.043c-1.247-.126-2.536-.257-3.4-.449l-19.391-8.704c-3.624-1.642-7.35-3.328-11.221-4.554-1.582-.5-3.147-1.187-4.66-1.853l-.054-.023c-.835-.367-1.699-.746-2.557-1.089-1.427-.573-2.904-1.139-4.208-1.638-1.002-.385-2.005-.769-3.007-1.162-.754-.296-1.504-.608-2.261-.924l-1.029-.428-.023-.654c-.038-.925-.071-1.725.172-2.566.206-.715.165-1.463.125-2.187Zm-31.854,20.528l.715-.28c.116-.046.231-.091.344-.14,3.147-1.329,6.4-2.468,9.546-3.568,2.188-.767,4.451-1.559,6.68-2.414,1.873-.721,3.849-1.401,5.593-2.001l.176-.061c1.288-.444,2.621-.902,3.923-1.378.619-.227,1.177-.551,1.717-.865.264-.152.492-.284.725-.407l.261-.139v-1.705l.265.168c1.171.744,2.457,1.236,3.701,1.711.504.192,1.07.409,1.614.64,1.335.572,2.722,1.127,3.947,1.616l.078.032c1.081.433,2.199.881,3.291,1.339.776.327,1.559.69,2.25,1.011,1.134.526,2.306,1.069,3.515,1.512,2.959,1.081,5.886,2.383,8.719,3.643l.067.03c1.046.467,2.093.932,3.143,1.389,1.268.55,2.587,1.093,3.753,1.572.863.354,1.727.709,2.587,1.072,1.158.488,2.312.983,3.467,1.479l.725.312-.789.019c-.553.012-1.147.016-1.865.009-3.377-.022-6.216-.011-9.296.325-.144.003-.289,0-.438.044-1.271.368-2.618.421-3.92.471l-.589.026c-.917.04-1.859.075-2.813.075-1.248,0-2.518-.061-3.78-.245-1.044-.153-2.093-.16-3.108-.167-1.001-.008-1.996-.016-2.957-.151-.702-.098-1.407-.188-2.11-.277l-.19-.024c-.818-.104-1.638-.207-2.456-.329-1.075-.16-2.172-.212-3.233-.264-.5-.023-.991-.047-1.479-.081-.546-.038-1.08-.054-1.672-.071-.851-.027-1.701-.052-2.535-.155-.959-.118-1.939-.163-2.889-.206-.792-.035-1.686-.075-2.558-.168-.633-.069-1.265-.12-1.9-.169-.659-.054-1.341-.108-2.015-.184-.468-.051-.936-.151-1.388-.245l-.073-.016-2.405-.487c-1.221-.246-2.484-.502-3.729-.724-.615-.11-1.245-.192-1.856-.273l-.09-.012c-.82-.106-1.67-.217-2.491-.391-1.614-.342-3.495-.718-5.413-.849l-.767-.052Zm31.371-38.039l.284-.091-.215.997-.114.02c-1.772.307-2.444,1.1-2.567,3.03l-.036.51c-.087,1.186-.176,2.405.288,3.616.022.078.019.172.009.347-.005.081-.011.163-.011.239-.012,1.607.27,3.15.586,4.72.105.526.112.976.022,1.3-.402,1.482-.346,2.964-.29,4.396.03.777.058,1.501.022,2.232-.004.062-.003.122.001.182l.017.281-3.099-1.352-.788,1.557.175.243c.473.656.948,1.091,1.538,1.409l.339.183-2.905,1.046c-1.686.608-3.279,1.181-4.882,1.738-3.119,1.084-6.24,2.156-9.361,3.228l-4.603,1.582c-.865.299-1.725.608-2.587.917l-.071.027c-1.747.627-3.554,1.275-5.355,1.806-5.102,1.504-10.073,3.078-14.777,4.681-.272.094-.601.112-.886.116-.421.007-.832.004-1.244-.003h-.05c-.639-.007-1.303-.015-1.95.027-3.327.211-6.089.459-8.832,1.533l-.588.227c-.73.281-1.485.572-2.21.924-3.425,1.662-6.922,3.151-10.394,4.426-2.035.748-4.113,1.625-5.944,2.396-1.019.429-2.037.857-3.061,1.275-1.14.464-2.286.917-3.431,1.37l-2.67,1.058c-.245.097-.49.191-.737.282-.652.243-1.318.492-1.938.838-1.696.952-3.497,1.521-5.404,2.123l-1.044.332c-1.345.436-2.688.878-4.032,1.321l-.09.03c-1.943.64-3.952,1.303-5.935,1.928-.678.212-1.358.412-2.04.608-1.446.421-2.943.855-4.386,1.439-1.228.496-2.551.991-4.164,1.556-1.501.524-3.007,1.041-4.511,1.557l-.192.066c-1.669.573-3.337,1.146-5.001,1.729-.69.241-1.384.508-2.056.767l-.065.026c-.854.327-1.736.666-2.624.953-1.463.476-2.933.923-4.356,1.353-1.378.418-2.622.796-3.884,1.201-.863.277-1.736.588-2.579.889l-.102.038c-1.456.522-2.964,1.062-4.478,1.446-1.826.464-3.626,1.011-5.365,1.54-1.462.445-2.972.905-4.492,1.313-.262.069-.526.169-.78.268-.424.163-.826.317-1.267.317-.04,0-.082-.001-.122-.004l-.066-.017-3.201-1.591c-2.882-1.432-5.772-2.869-8.662-4.308l-1.877-.928c-1.592-.783-3.237-1.591-4.815-2.45-3.803-2.07-7.441-4.259-10.814-6.505-.282-.188-.568-.374-.878-.576l-.315-.204.36-.105c.655-.191,1.201-.347,1.758-.468,5.463-1.187,11.1-2.793,17.741-5.057,1.993-.679,4.134-1.249,6.544-1.742,2.273-.465,4.661-1.081,7.516-1.941,1.942-.584,3.879-1.216,5.749-1.826,1.733-.565,3.525-1.148,5.299-1.689,2.211-.674,4.468-1.327,6.65-1.959l.182-.052c1.711-.494,3.84-1.109,5.873-1.721,2.598-.78,5.284-1.67,7.655-2.456.748-.247,1.501-.52,2.23-.784.967-.351,1.965-.714,2.967-1.021,2.427-.745,4.894-1.42,7.418-2.103,4.001-1.085,7.991-2.415,11.851-3.702l.082-.027c2.245-.75,4.118-1.374,6.075-1.994,2.618-.83,5.239-1.653,7.859-2.476l1.186-.373c2.224-.701,4.45-1.4,6.673-2.105,1.026-.325,2.05-.66,3.073-.995l.307-.101c1.614-.53,3.443-1.131,5.249-1.673,3.561-1.066,7.348-2.216,11.073-3.506,3.783-1.311,6.957-2.39,10.152-3.392,3.038-.955,5.366-1.599,7.55-2.091,3.65-.824,7.358-1.895,11.334-3.273.804-.278,1.604-.569,2.403-.858l.217-.078c1.798-.652,3.655-1.326,5.595-1.895,4.001-1.171,8.138-2.383,12.155-3.774,1.272-.441,2.527-.975,3.741-1.491l.859-.364c2.325-.98,4.4-1.755,6.535-2.44Z" stroke-width="0"/>
      <polygon points="371.807 219.205 371.807 219.205 371.807 219.205 371.807 219.205" stroke-width="0"/>
      <polygon points="99.948 307.664 99.949 307.664 99.949 307.664 99.948 307.664" stroke-width="0"/>
      <path d="m275.269,172.664c.511-2.22,1.35-4.469,2.722-7.292l.229-.473c.42-.877.897-1.871,1.438-2.769.935-1.552,1.9-3.119,2.835-4.634l.094-.153c1.081-1.754,2.2-3.565,3.275-5.365l.303-.504c1.645-2.748,3.346-5.59,4.589-8.646.678-1.669,1.157-3.053,1.505-4.353.347-1.292.705-2.629.834-4.045.02-.234.079-.461.137-.679l.016-.062c.083-.315.168-.64.188-.988.091-1.565.071-3.104.035-4.533-.079-3.139-.725-6.253-1.92-9.261-.99-2.493-2.191-4.474-3.669-6.057-1.505-1.614-3.194-2.762-5.022-3.415-2.488-.893-5.133-.604-7.651.826-1.595.908-2.709,2.25-3.627,3.437-.816,1.057-1.508,2.279-2.111,3.74l-.109.265-.183-.222c-.121-.147-.208-.273-.272-.397-.416-.784-1.014-1.37-1.594-1.938l-.056-.055c-.151-.148-.3-.296-.445-.446-1.103-1.147-2.296-2.084-3.548-2.785-1.545-.865-3.121-1.504-4.82-1.953-1.011-.266-2.113-.429-3.366-.496-2.883-.167-5.366.438-7.574,1.83-3.042,1.918-5.149,4.634-6.443,8.304-.305.867-.553,1.782-.754,2.797-.036.172-.075.344-.114.515-.11.481-.223.98-.241,1.506-.078,2.558.16,4.659.746,6.609,1.05,3.495,2.788,6.584,4.184,8.885,1.598,2.628,2.921,4.767,4.169,6.73.433.68.908,1.349,1.366,1.997l.1.14c.29.41.581.82.861,1.239.464.687.921,1.38,1.377,2.071l.105.157c.559.85,1.119,1.7,1.689,2.54.406.601.828,1.194,1.249,1.786.413.58.823,1.158,1.222,1.746,1.029,1.518,2,2.992,3.162,4.763l.632.955c.62.931,1.245,1.868,1.782,2.824,1.147,2.045,1.99,4.404,2.652,7.428.097.44.215.867.351,1.362l.5,1.857.607-.871c.558-.8.889-1.579,1.042-2.452.211-1.198.229-2.396.048-3.56-.429-2.78-1.647-5.172-2.66-6.946-.953-1.67-1.985-3.328-2.983-4.933l-1.138-1.834c-1.105-1.794-2.357-3.827-3.592-5.791-.62-.988-1.247-1.973-1.873-2.956l-.07-.11c-.928-1.458-1.887-2.964-2.808-4.461-2.284-3.709-3.916-6.611-5.295-9.41-.885-1.795-1.508-3.69-1.85-5.631-.055-.32-.067-.646-.079-.962v-.052c-.011-.296-.022-.608-.059-.909-.093-.752-.09-1.463.011-2.175.465-3.28,1.325-5.609,2.791-7.554,1.365-1.81,2.865-2.73,4.716-2.894,1.171-.109,2.504.013,3.842.348,1.081.272,2.039.703,2.834,1.091,1.236.598,2.274,1.485,3.318,2.418,1.513,1.352,2.753,3.015,3.685,4.946.231.48.436.978.633,1.459l.246.593-.05.467c-.054.483-.1.916-.114,1.353-.024.698-.038,1.381.061,2.055.126.865.691,1.549,1.474,1.789.407.118,1.633.491,2.573-.455.168-.171.312-.374.418-.523l.179-.335c.459-2.122.348-4.248-.356-6.891l-.011-.044.082-.311c.081-.292.155-.565.203-.841.511-2.938,1.618-5.268,3.381-7.12,1.097-1.153,2.438-1.669,3.959-1.516l.251.028c.16.02.312.048.461.032h.083c1.334,0,2.518.569,3.942,1.889,1.553,1.44,2.651,3.33,3.456,5.947.46,1.493.758,3.039,1.002,4.371.128.695.164,1.4.203,2.145l.048.83c.056.815.105,1.682.159,2.812.005.139-.009.27-.024.399l-.095.976c-.047.483-.093.966-.132,1.448-.117,1.443-.436,2.823-.773,4.283l-.065.282c-.227.976-.529,1.918-.819,2.828l-.18.57c-.676,2.142-1.572,4.178-2.44,6.061-1.36,2.952-2.823,5.837-4.455,9.031-.768,1.506-1.571,3.026-2.348,4.496-.986,1.868-2.005,3.799-2.968,5.717-.783,1.565-1.52,3.288-2.317,5.422-.412,1.103-.732,2.246-1.041,3.351l-.02.071c-.11.394-.221.789-.336,1.181-.052.18-.065.362-.071.481-.005.077-.009.152-.023.226-.05.26-.077.516-.105.802-.04.428-.083.87-.253,1.26-.198.455-.253,1.034-.143,1.514.085.37.054.75.02,1.154-.02.246-.039.483-.039.715.008,3.205.577,5.698,1.79,7.848.461.818.526.885,1.365,1.442l.102.069,1.751.167.307-.223c.122-.086.235-.168.343-.261.921-.803,1.158-1.908.633-2.955-.28-.557-.574-1.013-.9-1.393-.215-.251-.496-.436-.744-.597l-.253-.169-.02-.048c-.296-.733-.39-1.579-.49-2.474l-.07-.611c-.05-.412-.05-.831-.05-1.237l-.026-1.104c-.019-.401-.036-.785-.007-1.165.043-.53.122-.976.25-1.405.186-.631.226-1.284.264-1.916.015-.239.03-.48.054-.717.074-.785.269-1.536.476-2.329.089-.339.178-.678.254-1.017Z" stroke-width="0"/>
      <path d="m395.551,297.967c-.592.972-.874,1.899-.892,2.914-.007.461-.086.937-.163,1.399l-.013.086c-.036.229-.074.457-.102.686-.031.25-.022.516-.008.769.024.481.028.792-.186,1.07-.148.195-.128.414-.117.546-.031.593-.051,1.163-.071,1.733v.048c-.047,1.256-.094,2.554-.269,3.798-.157,1.114-.183,2.222-.208,3.295-.017.764-.035,1.553-.102,2.333-.087,1.006-.29,1.988-.506,3.026-.112.543-.223,1.085-.319,1.631-.048.282-.058.582-.066.917l-.007.237-.475.241c-.503.26-.958.492-1.436.705l-.859.381c-2.125.94-4.321,1.914-6.501,2.824-1.639.685-3.392,1.362-5.514,2.136l-1.772.639c-2.601.935-5.262,1.891-7.796,3.078l-1.93.898c-2.004.931-4.274,1.984-6.443,3.064-.851.422-1.693.904-2.508,1.369l-.05.028c-.972.555-1.966,1.124-2.975,1.596-2.333,1.095-4.447,2.06-6.682,2.807-1.709.57-3.487,1.201-5.597,1.984-1.19.441-2.407.92-3.48,1.341l-1.77.691c-.311.121-.621.235-.933.35-.613.226-1.248.46-1.863.732-.701.311-1.385.636-2.144.999-.725.348-1.38.66-2.058.963-3.139,1.392-6.465,2.852-10.782,4.734-1.543.674-3.086,1.342-4.632,2.011-1.547.668-3.093,1.337-4.637,2.011-3.474,1.517-6.869,3.002-10.234,4.498-3.3,1.467-6.555,2.933-9.673,4.357-.997.456-1.988.924-2.977,1.392l-.281.132c-1.416.671-2.882,1.365-4.341,2.009-1.01.446-2.016.902-3.021,1.358l-.323.147c-3.17,1.436-6.448,2.921-9.788,4.154-1.945.718-3.874,1.556-5.741,2.366l-.168.073c-1.083.469-2.203.953-3.312,1.408-1.556.637-3.143,1.268-4.679,1.876l-.27.108c-1.528.605-3.058,1.212-4.582,1.833-1.309.534-2.613,1.087-3.915,1.639-1.432.607-2.725,1.154-4.052,1.694-1.916.779-3.795,1.522-5.876,2.344-1.358.537-2.717,1.075-4.069,1.616-1.657.663-3.417,1.372-5.139,2.109-1.483.636-2.963,1.282-4.443,1.927l-.222.095c-1.838.802-3.677,1.604-5.523,2.391-1.483.631-2.972,1.251-4.461,1.869l-.483.2c-2.68,1.115-5.452,2.267-8.175,3.474-1.257.558-2.55,1.088-3.801,1.599-2.442,1.001-4.966,2.035-7.345,3.322-1.194.646-1.352.838-1.861,2.275l-.085.238.143.207c.748,1.076,1.298,1.477,2.025,1.477.375,0,.824-.108,1.415-.339,1.115-.437,2.234-.862,3.353-1.288l.204-.078c1.439-.546,2.926-1.109,4.379-1.688,1.922-.764,3.865-1.569,5.742-2.348l4.579-1.891c2.255-.928,4.586-1.885,6.868-2.85.933-.394,1.875-.82,2.704-1.197.82-.371,1.669-.756,2.513-1.116,3.497-1.489,6.93-3.166,10.249-4.786l2.427-1.182c4.439-2.153,8.403-3.893,12.113-5.319,1.062-.409,2.13-.804,3.198-1.2l.178-.066c1.265-.469,2.573-.955,3.852-1.452,1.353-.529,2.731-1.1,3.947-1.606.793-.329,1.59-.66,2.387-.983l4.227-1.705c2.461-.99,5.005-2.015,7.497-3.041,1.3-.537,2.605-1.128,3.866-1.7l.043-.02,3.9-1.744c1.811-.802,3.864-1.711,5.857-2.643,1.572-.734,3.156-1.524,4.554-2.222.824-.412,1.649-.822,2.477-1.226l2.628-1.295c2.168-1.07,4.408-2.177,6.649-3.203,3.834-1.756,7.766-3.474,11.571-5.133l1.366-.596c2.8-1.224,5.749-2.481,9.017-3.848,1.217-.51,2.462-1.007,3.666-1.487l.254-.102c.941-.377,1.884-.753,2.821-1.138.42-.172.83-.374,1.249-.584l.066-.032c.198-.097.395-.195.596-.289.547-.257,1.097-.508,1.649-.76l.225-.101c1.279-.582,2.73-1.243,4.095-1.955,1.524-.799,3.072-1.692,4.438-2.481l.139-.079c.746-.43,1.491-.859,2.242-1.28,2.273-1.272,4.731-2.332,7.309-3.152,3.932-1.252,7.957-2.68,12.305-4.367,1.139-.442,2.257-.967,3.338-1.474l.139-.066c.734-.344,1.494-.699,2.254-1.023,2.988-1.275,5.98-2.496,8.513-3.522l.519-.211c1.777-.721,3.591-1.458,5.404-2.084l1.314-.452c1.366-.467,2.778-.949,4.17-1.491,1.225-.477,2.255-1.161,3.242-2.149l.144-.145-.008-2.557c-.008-1.802-.016-3.666.02-5.518l.011-.568c.039-2.097.079-4.264.338-6.357.124-1.001.179-2.002.231-2.972l.038-.671c.019-.327.083-.652.145-.966l.011-.055c.047-.234.093-.469.126-.705.151-1.068-.051-2.086-.245-3.072l-.104-.529c-.1-.535-.389-1.007-.668-1.465l-.028-.046c-.11-.18-.222-.366-.324-.559l-.403-.772-.453.744Z" stroke-width="0"/>
      <path d="m121.748,32.543l.286.194,1.065-.769-.031-.284c-.113-1.054.285-2.008.707-3.015.196-.468.368-.89.508-1.321.736-2.271,1.417-4.636,2.019-6.72l.485-1.678c.308-1.058.749-2.111,1.175-3.131.269-.646.546-1.31.789-1.969.238-.647.429-1.296.652-2.079l.163-.562.153.028c.81.153,1.631.144,2.418.136.666-.009,1.295-.015,1.923.067,1.017.133,2,.406,3.039.695.455.125.909.251,1.365.366.538.134,1.075.274,1.61.414,1.216.319,2.473.648,3.741.904.718.144,1.438.192,2.133.238.48.032.914.063,1.353.117.676.085,1.35.206,2.004.324l1.738.297c.57.091,1.126.182,1.674.288.789.153,1.576.312,2.364.473,1.139.231,2.317.469,3.478.683.597.11,1.192.196,1.849.29l.095.015c.764.11,1.552.225,2.32.393.832.18,1.677.297,2.495.41.854.117,1.697.233,2.518.413.757.164,1.552.282,2.254.386.617.091,1.257.187,1.881.309.5.101.999.204,1.499.308l.355.074c.742.155,1.483.308,2.227.453.699.136,1.458.261,2.386.393.715.104,1.435.195,2.153.286l.075.009c1.458.186,2.964.378,4.415.667,1.763.352,3.591.812,5.203,1.218l.26.065c.822.206,1.645.412,2.469.607.788.187,1.58.356,2.372.526l1.416.304c1.774.387,3.692.746,6.036,1.132.929.153,1.856.344,2.752.53.875.18,1.781.367,2.676.518,1.342.225,2.738.551,3.97.838l.059.015c.639.148,1.276.296,1.915.436l.785.171c1.037.227,2.107.461,3.167.654,1.802.327,3.658.663,5.492,1.155,1.341.359,2.714.636,4.041.905.651.13,1.3.261,1.946.402.999.217,1.994.441,2.991.667l.16.035c2.162.49,4.398.995,6.617,1.411,2.886.539,5.822,1.161,8.724,1.846,1.06.25,2.129.437,3.162.617.637.112,1.244.218,1.846.335,3.073.601,6.344,1.256,9.573,2.083,1.678.428,3.411.734,5.085,1.031,1.135.2,2.137.379,3.135.585.929.19,1.883.342,2.805.487.878.139,1.774.28,2.647.456.867.175,1.758.312,2.618.446,1.213.188,2.468.383,3.677.686.746.186,1.508.235,2.243.282.374.024.746.05,1.116.091.368.042.736.097,1.101.153l.075.011c.299.046.596.091.894.132.245.035.504.026.722.016.457-.02.734-.016.992.165.239.167.508.149.819.124.472.03.913.05,1.356.07,1.042.046,2.024.09,2.982.289.457.094.931.145,1.348.191.593.063,1.154.124,1.712.289.728.215,1.493.247,2.232.28l.085.004c.308.013.616.027.917.056,1.415.134,2.886.173,4.184.207,1.325.036,2.695.074,4.029.198.828.075,1.68.1,2.431.122,1.088.032,2.115.063,3.146.211.884.128,1.75.144,2.587.16h.046c.632.012,1.286.024,1.928.09,2.231.226,4.62.336,7.302.336,1.69,0,3.217-.044,4.359-.083l.524-.017c1.588-.051,3.226-.104,4.816-.535l.044-.005h.178c.499-.032,1.006-.059,1.516-.085,1.218-.063,2.444-.126,3.646-.26l.34-.038c1.387-.152,2.819-.309,4.174-.877.301-.128.584-.285.949-.494l.574-.315-.117.399c-.266.901-.437,1.814-.588,2.671-.176,1.013-.187,2.009-.198,2.973-.004.394-.008.783-.023,1.17l-.016.173c-.024.245-.055.546.083.827.374.756.159,1.516-.07,2.321-.067.239-.134.477-.187.717l-.261,1.153c-.307,1.345-.623,2.737-.816,4.143-.124.896-.221,1.76-.335,2.797-.098.894-.199,1.818-.323,2.721-.121.867-.143,1.729-.164,2.563v.07c-.019.629-.035,1.28-.1,1.923-.032.331-.075.662-.12.991-.11.834-.221,1.673-.164,2.54.104,1.635.516,3.287,1.298,5.199.077.184.199.327.342.491.09.106.175.203.273.329l.878,1.116v-2.559c.003-.741.003-1.392-.001-2.041-.011-1.728.167-3.546.577-5.9.094-.542.139-1.109.178-1.61l.005-.067c.031-.386.062-.785.117-1.179.132-.931.219-1.91.297-2.773l.017-.199c.038-.42.077-.836.12-1.252.054-.518.073-1.046.089-1.586.024-.746.047-1.45.175-2.137.202-1.095.282-2.226.254-3.56-.005-.246-.048-.49-.102-.761-.047-.245-.093-.476-.079-.68.065-.933.136-1.768.36-2.534.358-1.214.772-2.431,1.174-3.608.211-.619.422-1.236.625-1.857l.242-.734.176,1.471c.112.948.229,1.928.377,2.883.132.857.32,1.725.487,2.492l.028.13c.106.495.214.992.308,1.49.128.68.243,1.364.358,2.047l.026.151c.1.596.2,1.193.308,1.787.122.676.251,1.349.382,2.023.176.92.344,1.797.496,2.679.141.803.25,1.643.325,2.499.149,1.674.471,3.334.781,4.938l.114.585c.226,1.178.403,2.383.573,3.549l.013.083c.133.919.254,1.747.395,2.585.118.705.261,1.417.399,2.107l.023.112c.156.776.313,1.557.44,2.333.094.576.151,1.161.204,1.727.046.481.091.951.156,1.412.078.569.175,1.124.282,1.739.081.456.16.914.231,1.374.155,1.01.276,1.931.37,2.812.044.409.069.827.093,1.231.047.8.097,1.627.285,2.438.13.57.171,1.165.21,1.739.046.701.094,1.426.299,2.161.143.504.18,1.056.219,1.638.022.329.043.659.083.976.194,1.563.504,3.099.804,4.585.151.737.3,1.475.434,2.216.366,2,.857,3.987,1.331,5.909.173.705.347,1.408.516,2.114.668,2.799,1.127,4.949,1.491,6.974.173.963.381,1.937.581,2.878.265,1.239.565,2.643.768,4.013.161,1.097.424,2.187.676,3.241.134.553.26,1.077.375,1.604l.139.636c.311,1.413.631,2.875.925,4.317.407,1.986.82,4.005,1.183,5.997.149.823.273,1.664.393,2.474l.03.2c.079.539.16,1.079.249,1.616.207,1.265.445,2.608.709,3.987.133.709.277,1.415.42,2.121.136.659.269,1.318.395,1.978.159.839.3,1.682.441,2.524l.032.19c.288,1.715.585,3.489,1.019,5.241.237.959.35,1.934.468,2.965.063.558.122,1.077.198,1.592l.149,1.076c.136,1.018.277,2.071.514,3.105.173.764.272,1.514.375,2.309.059.456.118.91.191,1.364.11.68.233,1.358.355,2.036l.051.284c.157.878.321,1.786.457,2.686.051.347.085.695.118,1.045.05.498.102,1.013.2,1.518.206,1.06.355,2.148.5,3.201.145,1.052.293,2.13.494,3.177.566,2.965.944,5.237,1.225,7.363.282,2.138.675,4.293,1.054,6.377l.16.884c.168.928.359,1.869.543,2.778l.034.168c.203.997.413,2.027.6,3.062.163.906.304,1.813.459,2.819.178,1.151.328,2.111.51,3.101.334,1.805.707,3.954.941,6.194.098.933.304,1.884.485,2.722.13.604.264,1.226.364,1.855.105.65.163,1.315.218,1.958l.011.124c.036.399.071.8.117,1.197.039.325.1.658.159.979.048.266.098.533.133.802.024.173.035.347.046.519l.004.047c.027.402.056.846.204,1.304.124.385.143.818.164,1.275.02.445.04.901.155,1.377.169.693.212,1.409.257,2.168l.003.061c.027.432.054.88.108,1.311.082.682.2,1.373.313,2.041l.21,1.253c.028.176.055.352.071.529.034.429.054.859.074,1.29.044.936.09,1.899.282,2.834.194.936.295,1.898.393,2.827.109,1.017.221,2.068.448,3.108.18.82.219,1.668.262,2.566.023.476.046.96.087,1.431.04.438.101.881.16,1.31l.016.128c.043.317.085.633.118.951.024.226.017.451.011.667v.051c-.017.577-.035,1.226.286,1.756l.024.073c.004.042.001.086-.001.132-.009.122-.013.206-.012.282.055,2.019.329,4.108.89,6.777.074.348.104.705.133,1.049l.008.081c.031.39.069.831.155,1.255.187.909.293,1.863.394,2.784.085.76.169,1.521.292,2.262.457,2.748.929,5.589,2.208,8.186.249.506.36,1.052.479,1.629.104.507.204.998.387,1.481.095.251.176.508.257.767.245.787.485,1.563,1.048,2.235.176.211.362.416.597.676l1.278,1.428.071-1.181c.012-.199.032-.359.048-.495.034-.296.061-.526-.017-.771-.183-.581-.288-1.17-.399-1.794-.059-.338-.113-.636-.173-.933-.219-1.061-.214-2.107-.208-3.217.003-.764.005-1.553-.07-2.341-.198-2.001-.643-3.981-1.052-5.652-.214-.867-.375-1.762-.53-2.626l-.009-.055c-.077-.418-.152-.838-.234-1.256l-.323-1.614c-.165-.827-.331-1.655-.49-2.484-.152-.788-.286-1.576-.403-2.341-.059-.398-.114-.796-.169-1.196-.182-1.318-.37-2.68-.737-4.125-.005-.112-.005-.182-.009-.253-.032-.426-.059-.858-.085-1.287-.059-.986-.12-1.98-.249-2.955-.212-1.611-.453-3.526-.629-5.508-.102-1.139-.258-2.301-.397-3.327l-.042-.316c-.063-.479-.126-.956-.184-1.435-.086-.711-.148-1.434-.208-2.132l-.011-.114c-.101-1.186-.206-2.413-.418-3.615-.095-.545-.109-1.1-.122-1.688-.022-.959-.043-1.93-.398-2.828l-.012-.054-.091-1.665c-.073-1.24-.147-2.523-.242-3.79-.028-.381-.1-.78-.156-1.101l-.009-.05c-.046-.264-.091-.526-.12-.791-.016-.153-.027-.305-.038-.457l-.005-.075c-.032-.487-.065-.976-.227-1.498-.105-.336-.121-.714-.139-1.114-.019-.448-.038-.929-.171-1.409-.155-.555-.196-1.151-.239-1.783-.028-.407-.059-.862-.126-1.298-.144-.924-.317-1.859-.485-2.764-.112-.602-.223-1.206-.327-1.809-.078-.452-.144-.908-.208-1.362l-.016-.114c-.058-.398-.114-.796-.182-1.194-.148-.882-.304-1.764-.461-2.644l-.417-2.379c-.118-.683-.237-1.368-.342-2.052-.083-.549-.161-1.099-.241-1.649l-.046-.32c-.132-.929-.265-1.859-.413-2.788-.071-.433-.169-.873-.265-1.299l-.011-.047c-.085-.371-.172-.756-.239-1.144-.477-2.752-.865-5.051-1.217-7.239-.122-.758-.234-1.521-.343-2.284l-.009-.069c-.186-1.278-.377-2.6-.629-3.891-.475-2.421-.855-4.866-1.235-7.366-.225-1.49-.547-3.023-.832-4.376l-.031-.148c-.203-.97-.413-1.972-.592-2.963-.165-.919-.284-1.86-.399-2.77l-.009-.079c-.079-.632-.159-1.264-.253-1.894-.195-1.317-.421-2.663-.67-4.004-.145-.773-.304-1.544-.464-2.316-.139-.671-.269-1.3-.391-1.931l-.112-.574c-.363-1.875-.74-3.815-1.079-5.73-.128-.726-.235-1.467-.339-2.184-.1-.691-.203-1.407-.325-2.115-.139-.792-.3-1.588-.467-2.402l-.011-.052c-.113-.551-.225-1.101-.329-1.653-.187-.994-.363-1.99-.538-2.986l-.512-2.928c-.211-1.222-.422-2.442-.648-3.661-.191-1.019-.406-2.052-.615-3.051l-.629-3.016c-.256-1.213-.52-2.468-.76-3.728-.198-1.04-.379-2.101-.555-3.125-.149-.875-.3-1.75-.461-2.622-.118-.641-.251-1.278-.386-1.915l-.032-.157c-.113-.531-.226-1.062-.329-1.596-.196-1.01-.382-2.021-.568-3.034l-.442-2.417c-.168-.931-.338-1.861-.518-2.792-.157-.81-.321-1.618-.484-2.426-.204-.998-.406-1.994-.597-2.995-.303-1.591-.62-3.287-.882-4.996-.087-.581-.141-1.146-.2-1.825-.044-.481-.089-.979-.152-1.469-.093-.713-.21-1.438-.324-2.138l-.286-1.789c-.101-.619-.199-1.237-.281-1.859-.085-.635-.161-1.27-.237-1.906l-.015-.124c-.122-1.006-.249-2.045-.405-3.061-.21-1.35-.444-2.699-.67-4.005-.179-1.03-.356-2.06-.523-3.092-.12-.734-.226-1.471-.332-2.208l-.026-.18c-.179-1.261-.364-2.566-.613-3.856-.289-1.493-.524-3.064-.733-4.45-.159-1.058-.323-2.153-.51-3.238l-.245-1.473c-.359-2.193-.729-4.457-1.495-6.633-.266-.757-.359-1.576-.459-2.442-.062-.541-.126-1.095-.231-1.622-.145-.741-.266-1.482-.397-2.305-.264-1.634-.533-3.308-1.064-4.925-.09-.277-.133-.568-.173-.849-.061-.401-.114-.738-.218-1.053-.278-.853-.785-1.272-1.642-1.362l-.137-.013-.102-.881-.414-.282c-.226-.164-.445-.317-.68-.428-.543-.261-1.08-.534-1.618-.807l-.065-.034c-1.612-.819-3.277-1.664-5.079-2.176-1.76-.498-3.518-.953-5.468-1.454-1.36-.351-2.722-.694-4.083-1.037l-4.562-1.154c-1.803-.463-3.667-.941-5.562-1.222-2.477-.368-4.898-.845-6.73-1.22-.824-.168-1.649-.379-2.376-.566-.78-.199-1.666-.426-2.543-.6-.788-.157-1.611-.265-2.336-.359-.695-.09-1.412-.184-2.113-.316-1.446-.274-2.909-.593-4.324-.9l-.108-.024-3.944-.847c-1.526-.329-3.051-.658-4.582-.968-1.53-.311-3.177-.633-4.862-.898-.675-.105-1.369-.165-2.04-.222-.428-.038-.857-.074-1.282-.124-.678-.078-1.447-.165-2.177-.323-.815-.176-1.63-.346-2.444-.515l-.098-.02c-2.555-.529-5.186-1.075-7.717-1.824-.858-.253-1.738-.367-2.586-.477l-.071-.009c-.451-.059-.917-.121-1.372-.204-1.202-.221-2.429-.371-3.615-.516l-.125-.016c-1.021-.125-2.075-.254-3.108-.43-1.767-.3-3.459-.784-5.027-1.442-.857-.358-1.75-.682-2.538-.967-1.064-.386-2.125-.772-3.127-1.225-.746-.339-1.439-.772-2.172-1.229-.623-.391-1.143-.713-1.699-1.005-.453-.238-.904-.481-1.356-.725-1.612-.87-3.272-1.766-5.014-2.395-2.753-.992-5.624-1.771-8.4-2.526l-1.313-.356c-.691-.19-1.397-.241-2.082-.289l-.085-.007c-.299-.023-.598-.044-.892-.079-.234-.028-.467-.07-.698-.112-.526-.091-.976-.153-1.462-.159-1.588.035-3.182.237-4.723.432l-.718.091c-1.446.182-2.991.391-4.488.702l-.757.153c-1.719.347-3.495.705-5.348,1.563l-.112.052-.085-.09c-.523-.546-1.105-.898-1.833-1.109-2.106-.612-4.182-1.165-6.418-1.226-.367-.011-.733-.074-1.087-.136l-.055-.009c-.307-.054-.607-.105-.904-.136-.25-.026-.494-.027-.68-.02-.416.001-.849.009-1.206-.202-.229-.132-.487-.11-.789-.094-1.426-.052-2.912-.239-4.585-.569-.428-.083-.875-.11-1.27-.133-.416-.024-.845-.047-1.264-.14-.775-.172-1.569-.211-2.337-.25-.629-.032-1.194-.062-1.754-.149-.644-.101-1.295-.137-1.923-.173-.972-.056-1.891-.109-2.788-.379-.132-.042-.261-.044-.387-.035l-1.283-.083c-1.209-.079-2.3-.152-3.421-.245-.332-.03-.663-.089-.984-.145l-.051-.009c-.288-.05-.585-.101-.878-.133l-.533-.048c-.463-.036-.892-.071-1.327-.187-.589-.157-1.193-.194-1.778-.227-.506-.028-1.029-.058-1.514-.178-.632-.155-1.263-.183-1.872-.211-.746-.034-1.44-.065-2.094-.307-.14-.051-.277-.056-.421-.062l-1.752-.102c-1.166-.066-2.372-.134-3.56-.225l-1.17-.083c-1.421-.095-2.891-.195-4.313-.483-.437-.087-.866-.113-1.279-.136-.436-.024-.847-.048-1.257-.139-.8-.178-1.608-.218-2.39-.256-.562-.028-1.14-.058-1.704-.139C147.791.003,145.687-.01,143.533.003h-.62c-.342-.001-.686-.001-1.029-.003-.796.009-1.639.086-2.387.877l-.134.141v2.138l.297.126c.067.03.133.066.202.104l.046.024c.241.133.538.296.88.3.793.009,1.602.09,2.383.168l.151.015c.403.04.806.079,1.208.109,1.079.079,2.172.225,3.23.364.625.085,1.226.164,1.829.234l1.097.118c.617.067,1.256.136,1.883.223,1.586.223,3.382.475,5.11.871.406.095.81.125,1.201.153.42.031.8.058,1.178.152.845.207,1.721.251,2.569.296.416.022.838.043,1.253.086.383.036.768.097,1.14.155l.062.011c.303.047.581.091.861.128.237.031.471.043.729.054.394.019.763.035,1.128.151.563.176,1.14.202,1.699.227.445.019.897.038,1.325.134.75.172,1.537.261,2.23.34.637.073,1.291.147,1.933.278.666.136,1.348.179,2.006.219l.059.176.011-.172c.508.031,1.036.063,1.548.145.621.097,1.268.139,1.84.173.948.061,1.845.117,2.719.386.134.04.256.038.389.031.57.032,1.118.051,1.665.07,1.216.043,2.441.086,3.603.284.818.14,1.631.16,2.417.18,1.084.028,2.094.055,3.074.356.184.055.354.05.588.038,1.526.013,3.074.094,4.571.172l.086.004c2.119.113,4.312.229,6.509.16.791-.023,1.594.066,2.312.143l.079.008c.438.046.892.094,1.335.12.241.015.491.027.75.027.623,0,1.569-.059,2.594-.577l.249-.125,1.003.664.134.007c2.308.125,4.464-.195,6.45-.559.529-.095,1.087-.129,1.626-.161.656-.038,1.333-.078,1.997-.226,1.249-.277,2.487-.27,3.807-.265h.242c.531.001,1.089.007,1.627-.013,1.803-.077,3.611.128,5.381.608.628.171,1.263.328,1.896.484,1.283.317,2.577.636,3.791,1.073.59.211,1.187.409,1.785.605,1.789.592,3.478,1.151,5.046,2.09l.239.144c.379.226.771.46,1.143.717,2.84,1.943,6.107,3.435,10.28,4.692,2.737.826,5.482,1.52,8.06,2.16,2.749.683,5.44,1.299,7.996,1.83,1.181.243,2.395.436,3.571.621l.02.178.027-.171c.666.105,1.334.21,1.998.327.659.114,1.319.237,1.978.359.987.184,2.008.375,3.029.535.512.079,1.013.125,1.615.175.503.043,1.022.087,1.53.167,1.603.251,3.187.562,4.525.832,1.477.299,2.99.631,4.496.987,1.288.305,2.575.621,3.862.939.925.229,1.852.456,2.778.679,1.169.281,2.392.562,3.635.835.858.19,1.719.373,2.579.555l2.08.445c1.869.406,3.739.816,5.608,1.228l1.073.235c1.158.256,2.351.456,3.503.651l.074.012c1.867.313,3.774.635,5.582,1.185,1.927.584,3.909,1.131,5.893,1.629,1.411.354,2.843.582,4.228.804l.21.034c1.161.184,2.399.401,3.595.732,1.576.438,3.167.919,4.706,1.382.334.101.667.202,1.001.301l.301.09-.237.206c-.317.276-.559.628-.784,1.14l-.065.149-.421-.156c-1.13-.418-2.336-.78-3.592-.323l-.167,2.224-.289-2.115c-.508.027-1.021.047-1.532.069-1.303.052-2.636.106-3.944.27-.632.079-1.275.11-1.898.141-1.122.056-2.275.114-3.411.428-.124.036-.295.027-.477.017l-.078-.003c-.132-.008-.262-.008-.394-.007-.767,0-1.561.016-2.332.031l-.129.003c-1.954.039-3.97.075-5.923-.089-1.563-.134-3.142-.147-4.668-.159-1.541-.012-3.104-.024-4.624-.155-.627-.054-1.265-.081-1.883-.106l-.082-.003c-.878-.034-1.708-.066-2.554-.171-.874-.11-1.77-.184-2.636-.257l-.098-.008c-1.135-.094-2.289-.191-3.402-.358-.467-.071-.936-.129-1.405-.187-1.171-.143-2.278-.278-3.384-.609-.526-.159-1.057-.195-1.571-.23-.449-.032-.873-.062-1.27-.165-.531-.139-1.058-.187-1.569-.233-.59-.054-1.131-.102-1.649-.276-.519-.173-1.038-.202-1.54-.229l-.074-.004c-.317-.019-.646-.039-.972-.108-1.025-.211-2.068-.313-3.076-.413-.715-.07-1.526-.148-2.314-.277-1.042-.167-2.094-.386-3.109-.598l-.095-.02c-.81-.169-1.817-.381-2.789-.551-.978-.169-1.985-.295-2.873-.405-.633-.079-1.267-.159-1.899-.251-1.524-.225-3.01-.465-4.415-.717-.796-.143-1.588-.303-2.382-.464-.59-.118-1.148-.231-1.709-.338-.533-.102-1.068-.198-1.603-.292l-.155-.027c-.686-.124-1.37-.246-2.054-.385-1.306-.265-2.609-.546-3.909-.827l-3.647-.785c-1.559-.338-3.117-.674-4.676-1.001-.806-.167-1.611-.328-2.417-.488l-.323-.065c-1.208-.242-2.457-.491-3.682-.756-.767-.165-1.541-.356-2.29-.539l-.151-.038c-1.337-.329-2.719-.67-4.117-.902-2.18-.362-4.364-.897-6.475-1.413-1.044-.257-2.059-.504-3.08-.737-1.423-.321-2.898-.572-4.199-.792l-.132-.022c-.849-.145-1.725-.295-2.586-.461-.685-.132-1.376-.292-2.043-.446l-.094-.022c-1.158-.27-2.353-.549-3.579-.706-1.514-.195-3.035-.534-4.505-.862-1.155-.258-2.431-.543-3.677-.748-1.13-.184-2.265-.429-3.363-.664-1.276-.276-2.703-.584-4.1-.781-1.339-.192-2.648-.387-3.95-.671l-1.516-.332c-1.22-.27-2.32-.512-3.439-.742-1.069-.218-2.165-.417-3.225-.608l-2.235-.401c-.58-.101-1.161-.202-1.742-.311-.379-.071-.745-.067-1.096-.069-.512.008-1.007.005-1.43-.237l-.114-.067h-.133c-1.721-.031-3.316-.355-4.936-.711-.391-.087-.783-.173-1.173-.256-.81-.168-1.642-.305-2.448-.437-1.187-.195-2.383-.391-3.529-.691-.589-.155-1.193-.204-1.778-.251-.37-.03-.742-.061-1.107-.118-.991-.156-1.98-.331-2.968-.506l-.192-.034-5.81-.987c-1.692-.286-3.513-.515-5.565-.699-.461-.04-.923-.07-1.384-.1-.586-.038-1.183-.075-1.77-.139-.581-.061-1.166-.156-1.732-.247l-.074-.012c-.647-.105-1.185-.191-1.744-.254-1.196-.133-2.423-.358-3.755-.686-1.681-.413-3.238-.785-4.765-1.136l-1.397-.328c-1.467-.348-2.952-.699-4.434-.96-.707-.121-1.412-.09-2.087-.061-.285.013-.568.026-.843.026h-.155l-.126.087c-.391.272-.616.59-.666.947-.035.241.011.49.136.738l.043.086-.46.757c-.473.779-.936,1.54-1.381,2.306-1.087,1.876-1.906,4.035-2.577,6.793-.171.707-.218,1.424-.262,2.115l-.004.052c-.026.389-.051.789-.104,1.183-.094.722-.221,1.451-.343,2.157l-.288,1.711c-.095.57-.195,1.159-.274,1.742-.198,1.442.393,2.64,1.754,3.562Z" stroke-width="0"/>
      <path d="m170.34,102.171c-.008.237-.016.476-.011.795h0c.004.385.011,1.1.838,1.358l.546.169.086-.565c.409-2.651-.094-5.19-.597-7.362-.18-.784-.354-1.568-.526-2.353l-.013-.058c-.207-.941-.416-1.884-.637-2.823-.136-.572-.288-1.138-.459-1.763-.152-.565-.304-1.128-.44-1.696-.387-1.623-.758-3.28-1.116-4.882l-.109-.487c-.639-2.867-1.446-5.889-2.464-9.238-.621-2.037-1.233-4.076-1.845-6.116-.612-2.041-1.224-4.083-1.844-6.122-.268-.878-.553-1.752-.838-2.625-.238-.729-.475-1.456-.702-2.189-.311-.999-.555-2.043-.792-3.051l-.016-.067c-.147-.635-.295-1.268-.459-1.896-.249-.962-.421-1.984-.573-2.886-.156-.925-.317-1.879-.551-2.813-.136-.539-.176-1.132-.215-1.705-.022-.309-.042-.617-.077-.921-.226-2.024-.691-4.008-1.14-5.927l-.305-1.315c-.251-1.103-.49-2.208-.728-3.312-.319-1.475-.637-2.959-.982-4.41-.351-1.478-.772-2.959-1.179-4.392l-.227-.8c-.457-1.611-.94-3.217-1.395-4.722-.285-.944-.815-2.06-2.391-2.31l-.13-.02-1.073.417-.079.091c-.819.936-.701,2.093-.542,2.881.264,1.291.607,2.569.939,3.806l.339,1.278c.577,2.21,1.157,4.419,1.744,6.627l.508,1.947c.424,1.634.863,3.323,1.362,4.973l.199.652c.702,2.313,1.428,4.706,2.382,6.994.97,2.321,1.85,4.732,2.696,7.37.988,3.099,1.867,6.369,2.684,10.002.36,1.602.749,3.226,1.126,4.798.313,1.299.625,2.597.924,3.897.593,2.586,1.268,5.157,1.922,7.643.546,2.084,1.111,4.239,1.622,6.37.498,2.084,1.148,4.16,1.779,6.166l.02.067c.328,1.041.647,2.059.945,3.07l.195.66c.526,1.782,1.07,3.624,1.534,5.476.1.397.082.845.065,1.318Z" stroke-width="0"/>
      <path d="m3.205,280.254l-.221-.164-1.577.631-.082.105c-.484.631-.62,1.251-.763,1.907-.222,1.027-.243,2.054-.265,3.045l-.003.114c-.008.379-.017.76-.038,1.14-.016.277-.067.555-.116.824-.1.562-.196,1.109-.104,1.665.125.745.128,1.516.13,2.261.005.865.011,1.736.183,2.589.518,2.558.526,5.192.534,7.74l.005,1.224c.008,1.104.307,2.121.597,3.104l.024.083c.07.238.141.479.206.718.273,1.005.637,2.048,1.148,3.284.167.402.432.748.666,1.053l.042.055c.079.105.157.208.229.312l.147.214h2.635l-.19-.94c-.046-.242-.089-.463-.149-.682-.339-1.218-.57-2.495-.75-3.583-.095-.585-.113-1.17-.13-1.791-.019-.706-.038-1.426-.183-2.138-.222-1.085-.219-2.157-.217-3.292.001-.689.003-1.4-.048-2.094-.061-.83-.182-1.673-.297-2.487l-.008-.056c-.065-.448-.129-.894-.184-1.342-.05-.412-.095-.854-.097-1.3-.011-3.074-.017-6.372-.003-9.644.004-.863-.079-1.774-1.122-2.554Z" stroke-width="0"/>
      <path d="m131.072,7.364c.155-.055.315-.113.457-.257,1.56-1.591,3.603-2.579,5.405-3.45.304-.148.55-.367.768-.559l.153.093-.114-.128c.081-.073.16-.144.243-.21l.235-.188-.286-1.416h-.402c-.093,0-.187-.009-.273-.02-.284-.027-.596-.062-.861.134-.697.522-1.481,1.009-2.171,1.439-1.397.87-2.842,1.768-4.001,3.076l-.143.161.175,1.676.814-.351Z" stroke-width="0"/>
      <path d="m260.969,293.393c.312-.598.485-1.555-.457-2.707-.304-.371-.588-.765-.863-1.147-.286-.397-.559-.776-.85-1.139-1.299-1.626-3.112-2.667-5.542-3.182-.316-.067-.632-.097-.944-.097-1.201,0-2.363.433-3.413.824-2.83,1.054-4.72,3.045-5.784,6.085-.96,2.739-1.263,5.57-.902,8.415.3,2.37,1.229,4.472,2.688,6.077,1.884,2.071,4.41,2.613,7.015,1.498,2.068-.888,3.767-2.192,5.046-3.879l.338-.444c1.002-1.318,2.037-2.68,2.917-4.145.475-.791.797-1.608.987-2.496.047-.215.112-.425.18-.648l.141-.479-.584-2.481.028-.056Zm-3.503,4.086l-.017.061c-1.112,2.317-2.571,4.199-4.461,5.755-1.101.905-2.016,1.404-3.058,1.668-.238.061-.459.093-.666.093-.502,0-.931-.183-1.384-.57-1.321-1.131-1.738-2.769-1.97-4.223-.231-1.442-.137-2.98.274-4.449.059-.212.148-.416.234-.613.134-.317.266-.625.329-.967.163-.888.557-1.746,1.278-2.781.471-.679,1.132-1.115,2.146-1.413.776-.229,1.557-.261,2.286-.261.206,0,.413.003.623.005h.274c.148.001.295.001.434.005l.067.016.152.07c.179.083.309.143.442.195.924.356,1.474.966,1.731,1.916l.136.52c.169.66.343,1.341.646,1.976.433.905.592,1.857.503,2.998Z" stroke-width="0"/>
      <path d="m270.335,289.345l-.032-.071c-.441-.998-.991-2.239-2.778-2.656l-.25-.059-1.802,1.625.543.818c.218.338.399.615.6.87,1.045,1.345,1.296,2.766.769,4.344-.179.543-.343,1.092-.512,1.666l-.615,2.028,1.087-.636c1.725-1.011,2.158-1.493,3.314-3.688l.056-.108v-3.362l-.063-.112c-.117-.212-.218-.44-.316-.659Z" stroke-width="0"/>
      <path d="m290.524,295.596c-1.381-.065-2.062.705-2.683,1.378l-.749.796,2.288.627-.017.147c-.132,1.101-.559,2.153-1.011,3.267-.23.562-.491,1.2-.711,1.861l-.434,1.313,1.166-.741c.086-.055.165-.098.237-.137l.039-.022c.196-.105.401-.214.545-.421,1.528-2.2,2.606-4.871,2.684-6.648l.011-.212-1.163-1.2-.199-.008Z" stroke-width="0"/>
      <path d="m235.964,294.34l-.225.046c-.097.017-.227.043-.36.129-1.17.753-1.65,1.959-2.075,3.023l-.231.573c-.339.803-.601,1.638-.855,2.446l-.167.533c-.069.214-.043.405-.011.646.017.137.035.276.05.451l.109,1.426,1.582-2.368c.508-.752,1.033-1.529,1.508-2.298l.148-.235c.621-1.001,1.323-2.13,1.381-3.603l.011-.278-.602-.395-.261-.093Z" stroke-width="0"/>
      <path d="m118.454,318.04c.359,0,.724-.027,1.084-.081l.125-.019,2.107-1.623-.668-1.76-.472-.229c-.219-.102-.412-.191-.592-.303-.577-.364-1.187-.424-1.863-.184-.927.327-1.842.188-2.878-.437-.822-.499-1.875-1.194-2.735-2.144-.137-.153-.295-.29-.52-.484l-1.512-1.337.273,1.424c.82,4.293,3.895,7.176,7.651,7.176Z" stroke-width="0"/>
      <path d="m181.264,342.545c.76.987,1.818,2.222,3.275,3.008,1.534.828,3.139.863,4.735.1.354-.171.711-.34,1.075-.495,2.005-.862,3.513-2.388,4.477-4.539.069-.151.13-.3.21-.492l.188-.451-.003-.783c-.001-.375-.003-.754.005-1.134.071-3.331-1.396-6.188-2.994-8.778-.437-.71-1.122-1.162-1.828-1.208l-.051-.004-2.816-2.113h-3.51l-.239.056c-2.362,1.08-4.263,2.836-5.619,5.207-1.002,1.756-1.131,3.662-.363,5.366,1.044,2.32,2.024,4.392,3.458,6.258Zm-.329-8.895c.222-1.131.888-2.006,2.158-2.836.652-.425,1.299-.873,1.871-1.268l.637-.44h2.031l.047.036c.464.363.699.767.761,1.307.052.452.141,1.04.352,1.577.02.05.035.108.047.168.085.367.243,1.046,1.104,1.181l.465.073.315-1.579.206.62c.422,1.278.767,2.55,1.054,3.888.331,1.544.114,2.859-.644,3.912-1.224,1.696-2.785,2.554-4.646,2.554-.136,0-.274-.004-.413-.013l-.078-.024c-1.256-.749-2.275-1.751-3.207-3.154-1.036-1.561-1.747-3.302-2.115-5.172-.048-.253.004-.576.055-.83Z" stroke-width="0"/>
      <path d="m173.648,350.239l.132-.004,1.505-.936-.005-.282c-.031-1.284-.902-1.781-1.603-2.18-.114-.063-.229-.129-.339-.198l-.109-.067-.128-.005c-4.603-.206-5.518-.183-6.68.584l-.555.366.511.425c1.986,1.65,4.27,2.363,7.272,2.298Z" stroke-width="0"/>
      <path d="m198.019,317.413l.063-.235-.775-1.002-.212-.022c-.05-.004-.102-.007-.155-.007-2.152,0-5.752,3.764-6.389,6.236l-.303,1.173,2.538-1.538c1.128-.682,2.145-1.296,3.152-1.927,1.123-.707,1.785-1.559,2.08-2.678Z" stroke-width="0"/>
      <path d="m184.155,276.656v-.139l-.073-.12c-.678-1.108-1.724-1.556-3.185-1.376-.999.173-1.442.842-1.871,1.49-.143.214-.272.407-.424.598l-.134.168.664,4.486.698-.757c.128-.139.242-.253.342-.352.239-.237.422-.418.547-.654.229-.428.428-.894.588-1.268l.05-.117h.133s1.588.163,1.588.163l.116-.047c1.057-.438,1.005-1.291.972-1.799-.007-.094-.012-.187-.012-.277Z" stroke-width="0"/>
      <path d="m150.109,285.941l-2.441,2.882-.012.159c-.1,1.249.063,2.313.207,3.253l.005.042c.082.535.159,1.041.184,1.564l.023.485,1.202-.036.304-1.342c.171-.732.348-1.486.473-2.24.215-1.307.266-2.45.161-3.597l-.108-1.169Z" stroke-width="0"/>
      <path d="m222.584,326.866l-.168.012c-.204.016-.406.023-.608.03-.566.02-1.142.04-1.751.223-.241.061-.627-.036-1.358-.346l-.156-.065c-1.361-.565-2.362-1.179-3.15-1.935-.133-.128-.282-.2-.471-.292l-.07-.035c-.078-.039-.169-.083-.274-.14l-.87-.468.151.975c.14.91.612,1.337.956,1.649.078.07.155.14.223.212l.335.362c.555.605,1.131,1.231,1.822,1.727,1.487,1.062,3.043,1.423,4.796,1.134l.126-.022.1-.081c.093-.075.246-.14.424-.215.465-.195,1.07-.451,1.473-1.148l.229-.398-1.758-1.179Z" stroke-width="0"/>
      <path d="m275.826,335.979c1.697-1.345,3.452-2.735,5.144-4.143.382-.32.663-.732.936-1.13.121-.179.241-.355.371-.526l.102-.132v-1.454l-.931-1.072h-1.967l.354,1.058-.026.059c-.383.931-1.061,1.664-1.782,2.395-1.161,1.179-2.323,2.454-3.346,3.577l-.901.984c-.143.155-.2.332-.256.503-.024.073-.048.147-.081.227l-.305.753.81-.078c.07-.008.134-.009.19-.011.212-.003.416-.005.604-.155l1.084-.858Z" stroke-width="0"/>
      <path d="m268.261,323.909l-1.408-1.541-1.641.706-.101,1.462c-.403.644-1.054.953-1.807,1.311-.477.226-.962.456-1.416.787l-.549.398.551.397c1.512,1.092,2.924,1.244,4.384.465,1.513-.806,2.016-1.764,1.989-3.798l-.003-.187Z" stroke-width="0"/>
    </g>
  </g>
</svg>