<?xml version="1.0" encoding="UTF-8"?>
<svg id="Layer_2" data-name="Layer 2" xmlns="http://www.w3.org/2000/svg" viewBox="0 0 81.1662532 83.4649205">
  <g id="Layer_1-2" data-name="Layer 1">
    <g>
      <path d="m22.9985433,23.327372c-.101846-.2078084-.2029887-.3423188-.2343083-.4914632-.098081-.4671596.2501366-.7996207.4042302-1.2257063.3966037-.3084319.7588999-.6990064,1.3335953-.7956963.2456259-.0412874.4779047-.2328603.6900081-.3912783,1.6896551-1.2619528,3.3867087-2.5147206,5.0498186-3.8109714.4959378-.3865573.8769357-.9172797,1.3367904-1.354386.4619997-.4391644,1.0765954-.729653,1.3110071-1.383978,1.2834165-1.05723,2.0768552-2.5403842,3.2256303-3.7171587.3282271-.3362467.6356821-.7343514.8165588-1.1617564.2011072-.4751238.6432802-.6989233.9176772-1.0991459.4436209-.6469797.8836639-1.3302034,1.5453417-1.8043744,1.0136307-1.4497893,2.5743691-2.2562779,3.9131741-3.3231172.5910734-.4709941,1.3242351-.6840307,2.0091956-.94007,2.2407667-.8375647,4.566006-1.3868559,6.9364605-1.7027779.7338243-.097826,1.4868732-.189556,2.2402129-.0656259.3154854.0519286.6448663.0699947.9629627.0437058.4925223-.0407307.9432518.08127,1.4161086.1940752,1.7202679.4103721,3.4309814.8573167,5.1476857,1.2800569,1.3132699.3233831,2.654931.2988969,3.9842495-.006043.3627877-.0831973.7501087-.0744774,1.1028767-.1834021.995415-.3073644,2.028394-.2542006,3.0221516-.1844214,1.227416.0861833,2.3830242.5833237,3.3951539,1.3083677,1.0355535.7418372,2.0551301,1.5088664,2.7661246,2.6080837.3807187.5886561.81937,1.1398686,1.2318895,1.70797-.0058391.7214891.6044124,1.1180835.8858755,1.6877833.0454467.0919858.0213295.2179392.0656126.3109482.6593622,1.384284,1.1747826,2.8253509,1.6808372,4.2694173.1394069.3977623.2490176.8090216.3347059,1.2218789.1838112.885611.3594838,1.773547.5086102,2.6655239.2122737,1.2697324.1682103,2.5566102.1534564,3.8340247-.0337313,2.9223277-.4795278,5.8074955-1.0035017,8.6721153-.3358293,1.8360108-.8722097,3.6271417-1.7011738,5.3266297-1.2593458,2.5817632-2.8309548,4.9664796-4.5115411,7.2787551-.4591831.6318117-.8962607,1.3240579-1.5761695,1.784224-.5791692.3919878-.8211375,1.1054227-1.4438417,1.4824734-.598317.3622908-1.1311156.8327576-1.6929505,1.2553592-.5616013.4224508-1.1235399.8444859-1.6887714,1.2692933-.2047585.383497-.3437259.8102584-.616418,1.118893-.5222536.5911121-.6890222,1.329836-.8837511,2.0299724-.3305655,1.1886566-.5847575,2.407197-.7558665,3.62934-.1884421,1.3461451-.6525761,2.6038373-1.1407076,3.8418961-.4850106,1.2301125-1.2940245,2.2937108-2.1317491,3.3279099-.5085295.6278344-1.0408795,1.2098313-1.696168,1.6796464-.2627234.188383-.4717015.4072008-.6439126.7002907-.152642.2598205-.4492261.5581596-.7199077.600757-.6374196.100363-1.0354378.5514392-1.536836.8475559-.4565345.2696352-.8193366.671965-1.403737.7552804-.5239755.074704-.8394728.6225903-1.4187198.7159603-.6224605.1003219-1.0445994.7492476-1.7336644.762333-.6916466.6176569-1.6888803.6784164-2.376214,1.3127569-.360716.3329081-.9269544.2145007-1.306202.5838388-.2996458.2917929-.6512614.5716672-1.1257558.5790229-.0955882.0014836-.1975378.0752057-.2835223.1345003-.6225947.4292839-1.1887674,1.0162553-1.8764254,1.2547935-.7481563.2595464-1.2841814.7641594-1.9194824,1.1493392-.4087539.2478261-.7386392.6391958-1.2728368.6521671-.0937927.0022903-.1989528.0816965-.2758739.1510066-1.0085301.9088986-2.3666669,1.240999-3.4210547,2.0873646-.4018807.3226082-.9474275.4612799-1.4129653.7108919-.4669433.2503462-.8131177.7212173-1.4035834.7509024-.0971334.0049001-.2065354.0673217-.2830749.1342384-1.0610607.9270907-2.4796705,1.2745298-3.5475984,2.1928788-.1993959.1714689-.4426717.3670689-.6850335.3974028-.4693863.0587564-.7771018.357779-1.1250761.5988832-.5332316.3694078-1.0494803.7634236-1.5718159,1.148483-.435291.3208789-.8452392.6848403-1.310113.9544235-.4541566.2633377-.9636123.4313386-1.7569056.7744968.0496678.0080974-.2107446-.034344-.3846117-.0626751-.1698513-.2508212-.2601418-.3841449-.3674873-.5426667.0847845-1.0694114.6962126-1.9225062,1.4684402-2.5350765,2.2868068-1.8139685,4.6550076-3.5255714,6.9992437-5.2666214.4256814-.3161597,1.0007519-.335439,1.4207314-.706097.4033373-.3559447.882248-.6246529,1.3087004-.9564349.4288392-.3336502,1.0128849-.3009657,1.4337438-.686014.3893525-.3561897.8272919-.7001489,1.410446-.7105846.7962573-.7495852,1.934514-.9090217,2.7658015-1.6107113.3190035-.2692671.6486064-.5794856,1.1261583-.5840588.0964287-.0009258.2013437-.0691197.2865592-.1287781.5315845-.3721599,1.085406-.7189519,1.5797967-1.1359191.5051167-.4259702,1.1864136-.4527211,1.7002835-.8732752.5729316-.4688583,1.1426851-.9884614,1.9326619-1.1036825.0964972-.0140871.1889637-.1048447.2687505-.1763086.8914844-.7979334,2.1368561-1.0030545,3.0237577-1.8074813.9605569-.050121,1.4928938-1.0260227,2.4467153-1.1267426.2355063-.0248842.4504502-.2833022.6666658-.4452815,1.3411955-1.0047471,2.6800739-2.0126101,3.9193114-2.9439758.3298942-.4404454.5950828-.7707011.8347549-1.1185565,1.1615533-1.6855927,1.8655135-3.5735266,2.4530668-5.5176114.4013042-1.3278406.7506731-2.6864108,1.3149118-3.9453133.4687941-1.0459108.9783059-2.1308743,1.9377902-2.8763734.5619718-.9633056,1.5180916-1.4956018,2.3603691-2.15046.5975973-.4646213,1.2335993-.8821979,1.8106217-1.3702393.5695538-.4817591,1.3030139-.7865409,1.6729851-1.4900108.3316481-.6307037,1.0295095-.8886325,1.4325169-1.4954978.4007807-.6035314.8955118-1.1742313,1.3527375-1.7564941,1.1518483-1.466881,2.0619223-3.0738761,2.8361075-4.7677568.6692433-1.4641852,1.2322536-2.9554898,1.5035935-4.5506725.0801752-.471296.164359-.939533.3162944-1.4076877.2126537-.6551218.2218421-1.3785829.29613-2.0751613.0279906-.2625898-.0390859-.5361565-.004957-.7971393.3316275-2.5344646-.0859475-5.0096305-.6542355-7.4573966-.2122836-.9143964-.634875-1.7873585-1.0243488-2.6509368-.3042201-.6745502-.4911506-1.4187633-1.0309255-1.9728572-.1616176-.8208067-.7044759-1.4296072-1.168361-2.0792734-.4399872-.6161542-.8988248-1.2189837-1.3570287-1.8218931-.4581364-.6027866-.9190597-1.2037759-1.3915643-1.7953178-.3295373-.4125571-1.9666526-1.5135805-2.4674614-1.685995-.3026048-.1041853-.6042973-.2110139-.906444-.3165347-1.9887401-.0081342-3.9816268-.0116649-5.9355394-.4331481-.9365916-.2020336-1.8666651-.4600424-2.7514402-.8525137-.7779371-.3450636-1.5618383-.6775906-2.3507283-.9967774-2.237487-.9053115-4.5036319-.7033227-6.7761049-.1563169-.6455023.4064522-1.4205527.4029743-2.1231585.6480629-.9995883.3486904-1.9076435.9186648-2.9470943,1.1596239-.1964575.0455224-.3643875.2266501-.5382035.3550782-.8262465.6105186-1.6530523,1.2203919-2.4733078,1.8389477-.3883888.2928901-.7655333.6010709-1.1407231.9108308-.0790806.0652828-.130601.1656867-.1894841.2534588-.5014202.7475676-1.2126909,1.3240147-1.6886439,2.0947207-.7797741,1.2627552-1.8225754,2.3257336-2.7001015,3.5143027-.7533971,1.0204358-1.6664146,1.9061239-2.427696,2.9188054-.0634744.0844324-.128208.1693651-.2023777.2441164-.3743977.3773407-.8538555.6207608-1.1608736,1.1020287-.249192.3905728-.6808882.6700153-1.0490997.9778514-.4146738.3466959-.8533712.6644598-1.2732136,1.0052016-.3290764.2670733-.7064549.4678996-.8964341.9036325-.0958569.2198937-.3653434.4576952-.5957581.5084419-.8321441.183169-1.3799255.8071715-2.0605235,1.2210914-.3194868.1943169-.6171657.4557602-.9632859.5683873-.7020855.2284404-1.341169.6144555-2.0997506.7183732-.5512542.0755285-1.062028.0910186-1.6794516-.1391749Z" stroke-width="0"/>
      <path d="m65.3992158,29.0863248c-.1458621-.0886833-.2684617-.1632277-.4355407-.2648118.2743964-.8970329.573066-1.804428.8272569-2.7240929.2461965-.8909066.0981015-1.8209065.2090136-2.7254006.1180929-.9630491.0340695-1.9177092.0165067-2.8790488-.016941-.9293916-.2712176-1.7793663-.5589618-2.8257169-.183083-.2436028-.4980541-.6174931-.762551-1.0242128-.5183308-.7970428-1.3167107-1.2500095-2.1195173-1.6401965-1.7725191-.8615189-3.6086466-.827504-5.4430842-.1594648-.1979414.0720643-.4168047.1471147-.5639828.2863271-.3701416.350004-.8752352.3790187-1.307026.5981379-.2279439.2852633-.436739.5939282-.6937561.855145-.2641124.2683585-.5753322.4903893-.8629606.7302274-.4010774,1.0216831-1.3264001,1.6463188-1.9656025,2.5855892-.2146709.0796068-.5322064.1508505-.7990726.3080731-.3323841.1958815-.6575947.2872424-1.0488597.3301095-1.5847072.173546-3.1682118.359868-4.7387222.6569404-1.0063917.1903644-1.8752223.7038709-2.8206747,1.0315271-.2430705.0842476-.4703851.2832169-.6446219.4822935-.3818197.4362999-.7450259.8921906-1.0798157,1.3655832-.6774431.9578499-1.1807994,2.0028722-1.6023554,3.1020756-.9317268,2.4293873-1.8676701,4.8611753-3.2848156,7.0674503-.1724681.2685503-.3054543.5624689-.518667.9601015l-.9116791.6851847c-.2837006.0237583-.5514136.0354267-.7866479-.2586436-.0848671-.4975113.0707335-.9757562.3124648-1.4743982.9758298-2.0131808,1.7476851-4.1145653,2.6191326-6.1720182.6581504-1.5538126,1.2965524-3.1502531,2.3814894-4.4918795.1108345-.6316323.9429117-.7501436,1.0065816-1.4153227.2938498-.2384174.5809192-.4857905.8829856-.7133083.5612287-.4227159,1.0817056-.9512805,1.7115141-1.2165494.6235205-.2626247,1.2198265-.61991,1.9190775-.735914,1.1020969-.1827913,2.1853152-.4490859,3.3155663-.4721756.8481547-.0173395,1.6938344-.1552681,2.369346-.2224526,1.1062479-.4405739,1.6671717-1.2451542,2.2342194-2.0147844,1.273105-1.7279453,1.2498116-1.748554,2.6300964-2.7425319.3859096-.2778922.7681472-.5410549,1.238403-.7230381.8387734-.3245779,1.6553701-.741729,2.5461471-.8525866.7884229-.0981678,1.5935325-.1710342,2.4013672-.0337377,1.0063966.171057,2.0149659.2865549,2.9810137.66855,1.3515475.5344334,2.7169668,1.5208046,3.5077432,2.6475175.3728466.5312042,1.2632695,2.8826597,1.2854321,3.5586932.0314709.9603288.0475831,1.9175295.2775966,2.8584507.0368836.1508113.0043644.3237719-.018646.4832417-.1929919,1.3373221-.3303651,2.6867695-.6093717,4.0061378-.1858781.8791535-.5639852,1.7194893-.8770358,2.5694421-.8856134,2.4045687-2.1577477,4.6075055-3.5617855,6.7376613-.7261739,1.1016576-1.4079482,2.2334135-2.2045245,3.2882094-.7972882,1.0558266-1.4853723,2.1885826-2.1710601,3.3137138-.6620998,1.0863632-1.2474428,2.2410319-1.6988141,3.4294316-.7201702,1.8960028-1.5388471,3.7409139-2.4700038,5.5379984-.3161097.610104-.7432956,1.1662711-1.0234698,1.7903325-.2702432.6020008-.8862703.927046-1.1127977,1.5427081-.0177776.0483784-.0500883.0949908-.0859982.1325614-.4390869.4594644-.9782564.7866203-1.3533852,1.354789-.338229.5122339-.9841137.8240572-1.5019593,1.2140689-.5181425.3902101-.9948923.9034072-1.5797993,1.1228607-1.245774.4673972-2.1796781,1.3629095-3.2156891,2.1118484-2.0588127,1.4883218-4.0665889,3.0470561-6.1135021,4.552134-.5965802.4386781-1.1145766,1.03918-1.9285668,1.1097247l-1.5157654,1.139194c-.721516.204532-1.3798008.3911317-2.0318362.5759588-.3949519-.241564-.7505382-.4590353-1.1314842-.6920185.0237044-.3194903.0430176-.5798458.0636384-.857813.7353487-.4663445,1.3518242-1.0443079,2.1793282-1.3712212.6315533-.24953,1.173332-.752916,1.7169941-1.1906318.5376101-.4328452,1.1989023-.7225196,1.5614385-1.3716299.1231083-.2204251.3644849-.3852556.5751571-.5446548,1.9399355-1.467749,3.8820928-2.9326078,5.8310464-4.3883247.3811877-.2847024.726285-.6123154,1.253005-.6914116.2885992-.0433502.5478824-.3223539.8070495-.513194,1.0012806-.7372601,1.9642948-1.5326225,3.0058913-2.2069762.7886903-.5106223,1.2863942-1.2762883,1.9133498-1.9206144.581611-.5977813.958894-1.3810932,1.3878244-2.1144762.6720058-1.1488744,1.2448261-2.3357658,1.8027211-3.538527.9376189-2.0212647,2.007158-3.9654735,3.3113159-5.7846606.5520959-.7701399,1.0774432-1.5651562,1.6278983-2.3394903.5193772-.7306307,1.0892364-1.4263667,1.5894613-2.1693929,1.0969699-1.6294708,2.0903236-3.3197987,2.8939549-5.1177403.3240797-.725037.7689159-1.3978611.9613821-2.1949305Z" stroke-width="0"/>
      <path d="m17.3204797,81.0922488l.6869005.913962c-.0168209.2072326-.0340482.4194297-.0548673.6758366l-.8067996.6063611c-1.0020661-.1849433-2.0684976-.0780258-3.1381068-.0643797-1.5493065.0197822-3.1051698.1285537-4.6534263-.0692984-.3215822-.0410518-.6486678-.1042615-.9684106-.0835257-2.0239468.1312836-3.7546296-.6181636-5.357304-1.756075-.2139016-.1518185-.3996351-.3491682-.5771463-.5447423-.1812793-.1997307-.332876-.4260324-.5033435-.6359705-1.2592324-1.5506714-1.7680409-3.3772894-1.8926521-5.3219803-.0647324-1.0101237-.0844845-2.0343758.0059719-3.0404935.1300358-1.4463086.6014386-2.8189767,1.1842014-4.1460993,1.0939775-2.4911824,1.9726532-3.8754292,3.7478986-6.058953.3983-.4898989.6988357-1.0579893,1.0664672-1.5743539,1.5428753-2.1669941,2.5296176-4.5530479,2.8808679-7.1974242.1566924-1.1795124.3437115-2.3550027.500808-3.5344718.3310358-2.4857687,1.3123062-4.7191154,2.6524229-6.8068065.4868255-.7583824.7830272-1.6156219,1.3657743-2.3321216.4615839-.5674969.6537732-1.3607151,1.1346413-1.9040697.5065152-.5722951.6859665-1.3167591,1.2141256-1.8697831.3156039-.3304274.4500016-.8339499.6125238-1.1545028.4053585-.3944637.7615886-.3751894,1.127301-.2182883l.3036783.4040621c.0931424,1.2183302-.2983226,2.3234179-.8337113,3.3837418-.5739141,1.1365132-1.2270914,2.2344847-1.768726,3.3854973-.8603795,1.8283242-1.7061847,3.6669086-2.4588762,5.5410352-.3562901.8870348-.5311525,1.857658-.701975,2.8059643-.2395609,1.3300183-.364632,2.6806037-.6003492,4.0114505-.3469244,1.9586206-.9761611,3.8318806-1.969013,5.5602935-.2884902.5021621-.6054273.9950234-.9198293,1.4838729-.3117801.4847229-.7326315.8943744-1.0619676,1.3772984-.6241079.9150142-1.3145798,1.7845181-1.9480557,2.6934631-1.0993294,1.5773426-2.095593,3.2086453-2.4472654,5.1440694-.7204321,1.6956118-.5463125,3.4725408-.4397747,5.2346136.0279667.4620874.1027947.9449884.4001648,1.3657117.1761644.2492982.2306759.5845743.377476.9831739.5242545.2838845.9369782.8467521,1.5360356,1.2089357,1.2539912.758033,2.6393074.8746098,4.0383846.8897942,1.7613753.0190931,3.5237186-.0533933,5.2851439-.0356513.6440233.0064669,1.2931755.1259772,1.9272615.2560672.3585524.0735617.691221.2733637,1.0535508.4237862Z" stroke-width="0"/>
      <path d="m19.8718544,26.5411387c.0469592-.2693617.1022599-.5867011.1641269-.941589l.7628306-.5733156c.8030671-.0391886,1.593639.0499191,2.2630163.6166667.8543095.8631842,1.0581749,2.0384216,1.3410469,3.1602778.3651167,1.4481102.3906986,2.9493026.5297428,4.4305966.1693123,1.8037631.2033054,3.6162439.2625784,5.4258339.0635045,1.938648-.0637054,3.8716141-.4716735,5.770342-.2692357,1.252919-.8577114,2.4084305-1.2326638,3.6319831-.2339302.7634265-.5196977,1.5129019-.7166005,2.285376-.527633,2.069801-1.0248724,4.1467459-1.7492969,6.1609113-.2537865.7056881-.3560406,1.4547584-.5535123,2.1786407-.6071288,2.2250581-1.2005409,4.4586419-1.4882589,6.7601373-.27432,2.1941802-.2692886,4.3687382.226507,6.5319403.0714569.3117354.1263465.6272731.1850041.9217145.3345103.6778314.6155676,1.3709794,1.003159,1.9982854.3960646.6409867.9234721,1.1993941,1.3440363,1.8270234.4266436.6367401,1.2759348.8189114,1.5395829,1.5175106.4351018.2334698.8103318.4348147,1.2822708.6880571l.5370966.714639c-.0228552.1958079-.0476648.4083011-.0679103.5817023l-.7175158.5392587c-.0894585.0167274-.1938959.0547989-.2975341.0526923-.9015811-.0183411-1.6216297-.5157307-2.33365-.9684494-.5293759-.3365886-1.0408002-.7217855-1.4308353-1.2556843-.2412168-.3302169-.6555046-.5282783-.9425006-.8324408-.2949881-.3126537-.5386858-.6758747-.788057-1.0288097-.2135337-.302251-.3880434-.6241163-.5570177-.9592865-.6709934-1.3306616-1.226604-2.6891829-1.4666133-4.1662904-.1375317-.8464178-.1960612-1.6931794-.1187843-2.5521971.0622812-.6921146.0325952-1.393422.1105948-2.0830506.175297-1.5500626.6291633-3.0391624,1.0569169-4.5332705.6900814-2.4103969,1.6155342-4.7316275,2.5716493-7.0462136.5889366-1.4256875,1.0876593-2.8942017,1.5309761-4.3722504.2299728-.766747.380193-1.6025219.3402672-2.3957831-.0827524-1.6444146-.1544792-3.2919609-.388654-4.9306228-.4137949-2.8958365-.886755-5.786759-.8898768-8.7289465-.0017995-1.7039424-.1099007-3.4076674-.1622149-5.1117352-.0345655-1.1250605-.2318511-2.2150603-.6782328-3.3136534Z" stroke-width="0"/>
      <path d="m70.639253,12.7014666l-1.5945789-2.1216822c-.9199799-.4691814-1.8683292-.7315953-2.89506-.7984015-.7419176-.0483042-1.4984824-.0903832-2.2091442-.4148337-.3324965-.1518041-.737842-.1490344-1.1120533-.2035414-2.1396141-.3115067-4.2837325-.5944245-6.4183577-.9369412-1.3966984-.2241274-2.770262-.1457274-4.1451072.1165044-.3133925.0597783-.6227126.1409313-.8722468.1981172-.7401358.3186464-1.1861752,1.0495723-2.0167076,1.0822166-.365011.3074133-.8309758.4934575-1.0721373.9521436-.094926.1805833-.2476284.3608733-.4199811.4656993-1.1188412.6804644-1.7901514,1.8385059-2.8176085,2.6131339-.5497234.9768007-1.5346367,1.4764886-2.3653586,2.1416453-.8435302.6754769-1.7281161,1.2997555-2.5700278,1.9771881-.5348239.4303547-1.1801269.7343805-1.4979432,1.4274001-.1207076.2631795-.4852659.414471-.7387077.6167202-.5414419.4320325-1.1402829.807703-1.4451488,1.4720311-.5703715.3374964-.8621081.9344372-1.3020642,1.3925475-.4823122.5022356-.7682075,1.1437066-1.2028448,1.6645087-.4212886.5047724-.6571431,1.0942112-.9663498,1.6452257-.3363575.5994488-.5282539,1.2781014-.8152757,1.9075571-.5339348,1.1710489-.8770258,2.3999732-1.213578,3.6379604-.3224392,1.1860187-.6706887,2.3644972-.9877851,3.5528447-.2929594,1.0979915-.4670228,2.2067207-.6607453,3.3176108-.1937658,1.1110962-.5143233,2.1828173-1.0188175,3.2269849l-.8548693.6424886c-.5641568.1223495-.9402819-.2074383-1.3342115-.4273675-.0424777-.2225399-.0827318-.4333191-.1438266-.7534866.1148585-.1326664.2999181-.3177711.4507933-.5274922.2159592-.3002206.4624791-.5961737.5974179-.9334171.3165111-.7910192.5867449-1.6014816.8529184-2.4115442.283072-.8616216.5695066-1.7240108.801961-2.6000045.4796831-1.8077243,1.191441-3.5267786,1.8529538-5.2708193.627396-1.6541393,1.4105285-3.2248852,2.2333693-4.7696647.7670547-1.4400296,1.7594228-2.758254,2.9305748-3.922826.335923-.3340508.5963042-.7445816.9355198-1.074614.3432323-.3339186.7741691-.5658774.9525279-1.0666539.0616171-.1730459.3294376-.2664278.4885805-.4120057.5872759-.5373322,1.34902-.8830732,1.7247896-1.6592009.1063436-.2196218.4107911-.3398622.6157997-.515698.8086559-.6935278,1.7794079-1.2025967,2.3730016-2.1442669.1360164-.2157775.4200913-.3342129.6217645-.5134649.3959098-.3518494.8462598-.618373,1.1026219-1.1485803.2229236-.4610628.8877621-.6108546,1.0484496-1.181792.6314475-.4984382.9132896-1.3188394,1.6143227-1.7531732.5010901-.9450822,1.4431264-1.413041,2.2194451-2.0624643.6774018-.566655,1.4863419-.7898301,2.3163458-.9988246,1.7672029-.4449737,3.5037161-.2857866,5.2307743.2032463.205185.0581004.4043827.1578493.6127341.1811299,1.8774203.2095635,3.6988978.7147441,5.5540529,1.0412858,1.8018016.3171995,3.5983199.6643912,5.3996257.9845903.5935592.105507,1.1109156.3529168,1.5892116.708342.2117605.1573433.4423185.2893574.7994369.5201749.0994328.1323013.2831059.400689.4907601.6489965,1.1708439,1.3999336,1.6552036,3.0358134,1.840757,4.8310876.1535606,1.4857738.2281621,2.9713881.3298153,4.458579.15597,2.2826222-.1710746,4.5130331-.6012203,6.729063-.1807339.9309979-.5912379,1.8223478-1.0838671,2.6522273-.1935514.3260795-.4519035.5873333-.8723345.6760849-.1697074-.5031884-.2125509-.9697078-.0231996-1.5071215.4458505-1.2654373.8199196-2.5602196.8938957-3.9126255.093456-1.7089677.1593087-3.4274985-.0302339-5.1262461-.1646418-1.4755621-.2736925-2.967354-.6546074-4.4148915-.1752244-.6660004-.3304326-1.3372801-.5182214-2.10169Z" stroke-width="0"/>
      <path d="m47.8286374,42.4498416c-.242733-.0864339-.5358083-.246181-.8453903-.2904526-.8735402-.1249641-1.5842539-.5568564-2.3134499-1.0185494-.4561955-.2888657-.6312819-.9162103-1.2478127-.9737226-.2313012-.2983644-.495937-.5768304-.6880323-.8985889-.7405227-1.2404395-1.790807-3.6938976-1.4469505-5.5933371.2511526-1.3871548.509019-2.7324425,1.4867483-3.8191025.2379902-.6640031.8665145-.9334863,1.3645974-1.325497,1.456084-1.1460107,3.1741065-1.424039,4.9593774-1.3878876.643773.013024,1.2827453.183802,1.9276662.2387376,1.4719189.1253902,2.5568987,1.0003101,3.6004822,1.8991054.6575553.5663144.87342,1.4519484,1.1202244,2.2515308.2003341.6490371.3462058,1.342674.2173752,2.0542728-.0452614.2499946.0490378.5221345.0511274.7843964.0110299,1.3860616-.35105,2.6534449-1.3185178,3.6766821-.3653552.3864053-.5106981.9512872-1.0182774,1.210762-.7515456,1.2502383-2.0785512,1.8295395-3.1524227,2.7039804-.5179916.0977646-.9664693.430735-1.5128511.4380437-.3726835.004987-.7450947.030413-1.1838936.0496265Zm5.1234962-5.5181346c.3538818-.5225606.5900192-.871229.886077-1.3083995-.1329731-.8153965-.2781039-1.7053208-.4232069-2.5952411-.3584196-.4144925-.275703-1.0089335-.6558638-1.4447056-.7938636-.9099762-1.6905975-1.5869069-2.9074286-1.809269-.9621903-.1758308-1.9101445-.1999625-2.8615796.0413382-.359665.0912094-.7236711.1653352-1.0885037.2478885l-1.2195251.9165506c-.2922023.4235422-.5318512.770934-.7851141,1.1380245-.0401589.1892348-.1046044.3982094-.1261922.6115276-.0757045.7480007-.265206,1.514268-.1701634,2.242141.1146609.8782282.4483622,1.7338611.7448326,2.5790875.0998633.2846862.3569744.5259094.5776778.752415.143102.1468896.3882.1975695.5228569.3489475.8347355.9384137,1.8922699,1.1213703,3.0634574.9456845.3682026-.0552234.73431-.1243116,1.1569738-.1965759l3.2857021-2.4694139Z" stroke-width="0"/>
      <path d="m42.9013715,65.513101c.1344368-.3647463.2422644-.6572281.349065-.9469556l3.8912451-2.9245179c1.0692783-.3011942,1.8336184-1.0885986,2.7010959-1.7075531.836158-.5966054,1.624276-1.2624056,2.4756811-1.8351306.5492761-.3695212.7862779-1.0030922,1.3305059-1.3699347.4913601-.331198,1.0050001-.6769598,1.3786935-1.1248964.7091013-.8499251,1.4123244-1.7276493,1.9596098-2.6844522.8449069-1.477079,1.8732561-2.8116147,2.8870932-4.1646355.8542262-1.1400551,1.7619478-2.2428212,2.4955169-3.4704291.0807384-.1350765.2157231-.241656.2795709-.3823275.8384623-1.8475634,2.161931-3.3865526,3.2381437-5.0823781.6502557-1.0246505,1.4543099-1.9523325,2.092963-2.9832562.2371612-.3828444.6583824-.5735.8197507-.9628734.1555168-.3752362.4535123-.5834124.7133513-.8506658.2929521-.3012598.5282806-.6576967.8079615-.9730212.2460097-.2773794.5647344-.4658202.7810407-.7995347.2548583-.3931214.7363459-.6458735.9649846-1.0475411.2262901-.3975729.5093765-.6785312.9075974-.9433721.1749808.0072965.3873451.0161365.7440456.0309929-.0723928.2407955-.1307262.4348918-.2087594.694424-.6187334.3639056-.8217316,1.1734009-1.4866486,1.5809877-.60121.3685294-.7988077,1.1252438-1.4126804,1.5139464-.2456457.1555239-.3576658.511229-.5542539.756818-1.3917195,1.7388787-2.5044027,3.6597034-3.668863,5.5495805-.9742926,1.5811853-1.9519768,3.1548579-2.7698311,4.8271615-.322374.6591972-.7803178,1.2547131-1.2002399,1.8628415-.4192774.607173-.8614819,1.1989389-1.3056619,1.788373-.7980572,1.0589571-1.5249099,2.1594149-2.145543,3.3355012-.6167154,1.1686068-1.3176749,2.290495-2.111345,3.3509379-.0631141.0842855-.0896498.2085375-.1683064.266736-.9919584.7341694-1.6566291,1.8064306-2.6957504,2.508539-1.387708.9376507-2.7204412,1.9604484-4.0384473,2.9955228-.5183694.4070839-1.1837701.4715019-1.6881833.8924082-.4968218.4145566-1.0269205.8011878-1.5855084,1.1260116-.4533006.2635865-1.0464023.2812258-1.4165519.7025593-.3541688.4031026-.9089669.2946095-1.3071976.575591-.2962039.2090106-.608809.1358596-1.0541445-.1054575Z" stroke-width="0"/>
      <path d="m29.7053659,64.8537757c-.1630666.3155099-.2844988.5504617-.3975464.7691742-.2667288.2167456-.5245026.0888047-.8411373.0150393-.2916212-.3880193-.75695-.7713556-.8975519-1.2500261-.2057193-.7002791-.4937193-1.3844671-.5043609-2.1598626-.023099-1.6842171.1903151-3.7034821.7706981-5.3830543.7996318-2.3141497,1.6527857-4.6098649,2.4447014-6.9265671.6377744-1.8657242,1.2278479-3.7449396,1.7397889-5.6540055.3506338-1.3076019.393445-2.6590134.7509731-3.897772l.8397169-.6311006c.4803284.3448769.735357.8194045,1.0553262,1.2848016.0358476.3953982.1510127.8282565.0992436,1.2400635-.2222226,1.7676783-.3691048,3.5588548-.7799937,5.2851371-.4674939,1.9642825-1.0482441,3.9127709-1.7937786,5.799684-.6641183,1.680871-1.344728,3.3552276-2.0188498,5.0321179-.0989337.2460963-.2246573.4837777-.2993977.7367461-.1664047.5632643-.4209462,1.1311355-.4338499,1.7018303-.0191812.8470764-.1647134,1.701979.0182902,2.5523618.1004853.4667652.1587617.9425773.2477279,1.4854325Z" stroke-width="0"/>
      <path d="m49.6087178,32.9412987l.9204824-.691801c.4187769-.0406452.887655-.0861328,1.2588104-.1221637.433772.2738979.6837374.5339979.7225461.9987419-.1962843-.0732902-.3688564-.137711-.5416977-.2019296-.2552195.0496872-.5101698.0991721-.8405885.1632959.0476162.4619907.0955649.9273249.1411667,1.3696902.4426539.3917041.991785.1664505,1.5084775.4438997l.3353625.4462198c-.1456529.3283942-.2943289.6635461-.4011085.9043128-.4677714.4501439-.9818075.3246458-1.4892528.4371353-.3039712-.1324757-.6445655-.2809446-1.0394285-.4530611l-.8586405-1.1424723c-.0527858-.3367712-.1101083-.7026225-.1733595-1.1060983.1409492-.3223561.2895052-.6621512.4572303-1.0457697Z" stroke-width="0"/>
    </g>
  </g>
</svg>