<?xml version="1.0" encoding="UTF-8"?>
<svg id="Layer_2" data-name="Layer 2" xmlns="http://www.w3.org/2000/svg" viewBox="0 0 32.2597772 38.2078974">
  <g id="Layer_1-2" data-name="Layer 1">
    <path d="m18.2534303,17.087817c.3045059-1.33298.5692689-2.4269605.8023868-3.527673.362263-1.710498.5474613-3.4771519,1.0940287-5.1250117.6190888-1.8665864,1.3844678-3.7328212,2.4109992-5.3990377.6878403-1.1164104,1.7493613-2.1020348,3.0380536-2.6968039,1.4913057-.6883053,3.1090315-.275002,4.4187045.7503175.7876363.6166371,1.0676702,1.3266161,1.2444566,2.1730307.3664896,1.7546876.939717,3.5103881.9879761,5.2776804.0876903,3.2130482-.4279761,6.3805292-1.0905854,9.551204-.7656221,3.6635998-2.6899856,6.6945663-4.5240327,9.8081768-.3217033.5461877-.800614,1.0078429-1.2453522,1.4716019-.9240033.9635286-1.8517385,1.9254288-2.8191187,2.8446424-.9740492.9254455-2.0671125,1.0831976-3.1579651.4429002-.2586169-.1518123-.5605957-.6252875-.4963064-.8529335.1532222-.5423633.3898742-1.2599818.8156384-1.4848703.8717734-.4605897,1.3223492-1.226255,1.9177444-1.9082004,2.1527639-2.4655976,3.4055602-5.4625873,4.9349806-8.2943837.3688016-.6828618.684156-1.4285111.8451984-2.1834729.4987394-2.3381219.9810047-4.684362,1.330833-7.0479742.2062405-1.3934963.3190041-2.845681.1572067-4.234623-.129186-1.1089273-.7368702-2.1620916-1.1531821-3.2973512-.9094485-.2500496-1.6160922.1891217-2.0314941.9374487-.7349727,1.3240058-1.3586945,2.7113852-1.997554,4.0868056-.7676556,1.6527423-.7685287,3.4804757-1.1215948,5.226547-.5010612,2.4780128-.9299094,4.9714075-1.3438563,7.4658302-.1610922.9706368-.6476158,1.6314374-1.5650479,1.9047674-1.0021512.2985607-1.8460395-.1129338-2.4435412-.8914498-1.4535566-1.8939027-2.8649415-3.8207012-4.2674993-5.7530293-1.0557628-1.4545198-2.1097778-2.8939288-3.4712869-4.100971-.7551808-.6694744-1.6106204-.883072-2.5292323-.9449622-.7982126-.0538102-1.4681648.3549972-1.8154376,1.0536211-.8523485,1.7146513-1.3312695,3.5139351-.8047478,5.4401978.9352571,3.4216424,2.8907593,6.2527795,5.2287277,8.837402,1.1681184,1.2914107,2.4005648,2.5335921,3.6880183,3.7055727,1.5360547,1.3982528,3.3281398,2.4395388,5.1880299,3.3570293.1233762.0608425.261022.1575521.3833444.14592,1.5109673-.1435557,2.3101151,1.1385565,3.45257,1.7259792.5517233.2837026.5793047.8426323.2805029,1.3225042-.4636639.7446922-.9477507,1.5201857-2.0515041,1.2935742-1.0726637-.2202662-2.2252964-.2446052-3.2079476-.6680649-1.8567471-.8000793-3.5954287-1.8469224-5.1900031-3.1283143-2.6237548-2.108431-5.0593118-4.3977398-7.1497388-7.0429506-.0285333-.0361049-.0653916-.065648-.094065-.1016463-.7457479-.9359808-1.1421071-2.0736095-1.9962701-2.9882246-.7832147-.8386317-1.2042799-2.0547013-1.6498376-3.1589812-.4627673-1.1468838-.8076592-2.3478478-1.1157771-3.5478166-.1455772-.5670274-.1755324-1.1988927-.0990526-1.7804556.1620277-1.2320994.4281296-2.4505258.6521342-3.6744318.0166125-.0908159.0188295-.1905692.0595922-.2697466,1.8934669-3.6766843,4.680516-5.8054636,9.1033976-3.8975409,2.3300549,1.0051514,4.1238923,2.8426186,5.4091215,5.1143139.7850635,1.3876048,1.7106317,2.6911978,2.988385,4.0638543Z" stroke-width="0"/>
  </g>
</svg>