<?xml version="1.0" encoding="UTF-8"?>
<svg id="b" data-name="Layer 2" xmlns="http://www.w3.org/2000/svg" width="100.66" height="106.963" viewBox="0 0 100.66 106.963">
  <g id="c" data-name="Layer 1">
    <g>
      <path d="m.478,57.65l.009.012.003.052c.21,4.27,1.327,10.424,5.46,15.483,3.127,3.831,6.44,7.266,9.852,10.207,6.465,5.592,14.138,10.285,24.879,15.218,3.25,1.491,6.771,3.061,10.495,4.43l.13.047c2.047.749,4.18,1.423,6.341,2.001.676.18,1.424.362,2.285.557,1.528.347,3.135.633,4.774.853,1.217.161,2.481.277,3.757.344.215.012.43.027.644.042.459.031.932.062,1.404.066h.274c5.968,0,10.804-1.504,15.215-4.731l.82-.609c1.459-1.07,2.967-2.176,4.543-3.144,5.543-3.394,8.329-7.254,9.032-12.515.81-6.073-.241-10.359-3.404-13.895-.085-.097-.169-.191-.251-.28-.838-.921-1.694-1.864-1.268-3.507.14-.53-.273-1.431-.714-2.044-.624-.861-1.239-1.743-1.81-2.567-1.611-2.32-3.436-4.948-5.525-7.149-6.345-6.685-13.748-11.985-19.489-15.854-10.628-7.171-20.06-11.919-29.682-14.947-3.194-1.007-6.27-1.518-9.142-1.518s-5.558.487-8.206,1.49c-5.911,2.249-10.934,5.43-14.928,9.457C.72,40.459-.926,47.19.478,57.65Zm2.535-11.637c1.231-5.456,5.121-8.885,9.142-11.779.92-.664,2.009-1.159,2.969-1.596l.321-.148c.363-.168.73-.338,1.083-.515,6.781-3.45,14.082-3.717,22.318-.823,8.768,3.08,16.741,7.561,23.381,11.539,7.74,4.642,15.215,9.839,22.445,14.866l1.623,1.123c1.607,1.118,2.994,2.587,4.334,4.008.609.65,1.231,1.306,1.848,1.911,2.803,2.742,3.124,5.514.984,8.477l-.113.143-.173-.054c-7.508-2.659-13.415.939-18.682,5.227-3.994,3.256-5.962,7.495-5.689,12.261.128,2.263.531,4.797,2.553,6.436,1.021.828,2.273,1.456,3.432,1.723.707.153,1.388-.061,1.763-.558.329-.43.351-.984.061-1.52-4.236-7.731.5-12.459,5.082-17.031l.264-.264c.175-.175.348-.35.522-.526,1.495-1.505,3.49-2.509,5.573-3.491,2.185-1.013,3.677-.675,4.556,1.031.028.067.058.14.079.208.919-.079,1.627.016,2.177.309l.052.026c.038.023.083.036.128.052.095.032.204.07.285.153.074.075.09.169.102.237.004.022.009.052.013.062.104.164.175.363.221.627.112.57.105,1.225-.022,1.998-.074.445-.157.948-.151,1.362.074,6.083-2.34,10.127-7.378,12.364-1.194.522-2.224,1.524-3.221,2.492-.364.354-.741.715-1.118,1.056-3.53,3.143-7.53,4.868-12.589,5.43-1.512.167-3.054.251-4.585.251-6.143,0-12.64-1.391-19.861-4.251-8.052-3.186-17.394-7.265-25.646-13.368-7.11-5.262-13.738-10.695-16.687-19.25-2.388-6.925-2.86-13.72-1.4-20.199Z" stroke-width="0"/>
      <path d="m49.641,17.516h.003c.944-.43,1.919-.873,2.635-1.563,2.996-2.886,5.827-5.951,8.564-8.914l.42-.456c.592-.637,1.076-1.494,1.327-2.349.128-.424-.102-1.245-.41-1.466-.104-.07-.315-.116-.546-.116-.378,0-.771.108-.932.257-4.142,3.677-8.295,7.465-12.344,11.259-.558.524-.849,1.08-.863,1.649-.013.667.35,1.408,1.08,2.201.352-.179.719-.347,1.068-.503Z" stroke-width="0"/>
      <path d="m26.12,3.501c1.346,1.845,2.617,3.588,3.748,5.425.448.733.792,1.532,1.126,2.305.093.214.186.429.281.643.017.039.036.078.056.117.026.054.051.106.075.161.112.254.238.506.363.756.147.29.299.592.425.897l.116.274c.156.374.312.745.472,1.115.581,1.356,1.264,2.571,3.228,2.571h.061c.757-5.266-2.246-8.907-5.152-12.43l-.916-1.122c-1.37-1.694-3.054-3.787-5.601-3.08.562.788,1.118,1.545,1.66,2.285l.059.082Z" stroke-width="0"/>
      <path d="m42.627,14.111h.007c.062.011.124.007.19.011.551,0,1.231-.257,1.689-.639.39-.321.71-1.034.717-1.588.034-3.011.001-6.162-.028-8.943l-.027-2.952c-2.262,1.116-2.267,1.166-2.407,2.664-.137,1.479-.256,3.006-.36,4.352l-.048.604c-.062.788-.124,1.58-.19,2.374-.026.286-.069.578-.11.862l-.019.13c-.089.597-.18,1.214-.129,1.791.056.601.538,1.313.717,1.334Z" stroke-width="0"/>
    </g>
  </g>
</svg>