<?xml version="1.0" encoding="UTF-8"?>
<svg id="Layer_2" data-name="Layer 2" xmlns="http://www.w3.org/2000/svg" viewBox="0 0 418.5149973 632.7582573">
  <g id="Layer_1-2" data-name="Layer 1">
    <g>
      <path d="m283.9267398,573.3991691c-19.8346125-4.6761405-42.3473852-1.8921668-65.1460729,8.0412916-5.659008,2.0491516-11.546982,3.9864098-16.7418172,5.6965411-12.2147668,4.0231509-24.8137438,8.1732255-36.6247972,14.0701727-13.2144936,6.2526678-46.4246951,18.7596736-69.5767781.0601218l-.6888481-.5561267.4146351-.8099743c2.4371024-4.7629831,9.5994064-20.9290687-.5624683-29.0371623-3.9372778-2.2812885-8.5793963-1.2608879-12.3462174,2.7772934-4.1003234,4.4005822-6.8182699,12.2782089-3.7796931,18.2118971,1.6359167,4.2352472,4.2914534,7.9694794,7.7076095,10.8636764l.7044505.5962079-.4793852.8133144c-7.0589377,11.9525491-21.8976462,20.5499674-36.9239742,21.3933427-11.1756437,2.8507756-22.62277-.3156395-31.2950009-8.7059715-9.4921395-9.1836059-14.1467399-22.8262457-12.4511439-36.4956064,3.6041656-15.2392078,13.5854419-27.0414524,23.2382866-38.4562453,14.0273812-16.5869383,27.2765903-32.2520089,22.2124256-57.1624773-1.9425048-12.517026-8.6207428-23.8750372-17.8698742-30.4166238l-.5960135-.4208526.1798182-.7415023c5.4148297-22.1983069,6.6419623-40.2665797,3.8623861-56.8652083-1.4186526-10.7000114-5.3789441-21.3900026-9.2089551-31.7292832-7.0148608-18.9350288-14.2660987-38.5080168-6.4750161-59.0128929,15.064944-39.1543263,28.3566698-80.4646873,11.4401052-117.3427352-1.6702421-2.1092734-.0885439-6.590018,1.5859889-11.3329605,1.1616023-3.2916689,2.3583101-6.6852108,2.2880991-8.9815298,2.0318288-11.0006205,2.0415804-23.3974029.0409564-36.9882712-3.1891404-12.5003255-7.7368641-21.5636878-11.7494237-29.558218-8.0773875-16.0959436-14.4568386-28.8083655-7.3850289-59.7761058.0897141-.8433753.5117603-2.5651971,1.0465342-4.7462826,1.2758902-5.2055464,3.9247959-16.010771,1.7564456-18.1784961-.1357413-.1352741-.5277528-.5294059-1.6628309-.2271268-5.4394036,15.4429539-10.1587541,30.591979-8.5848572,46.0583137,2.2518234,17.3651817,8.3153249,29.2976902,14.179115,40.8394069,9.7476296,19.1855364,18.9542443,37.3055807,6.5417165,76.2979121l-.3705581,1.1606849-1.0239107-.5511166c-4.6596712-2.5201057-11.2169902-4.99178-15.9944599-2.4766844-3.1271207,1.6500096-5.212778,5.3140996-6.1992428,10.8903972-.4813355,3.6874708-.3159496,8.4704945,3.2328273,10.152235,4.3760967,2.0775424,12.1558675-1.1723752,16.6524931-6.9457387l1.0695478-1.3727812.6240979,1.6566898c9.5490885,25.396453,4.6760538,52.8687783.9213246,66.9840423-1.7857002,7.889317-4.4548891,15.7719538-7.0367042,23.3940628-4.1603929,12.2865591-8.4600376,24.9839506-9.0693132,37.9285094-.6939189,12.8009346,3.9981274,25.2678591,8.5357094,37.3239513,1.7299215,4.594308,3.5171819,9.3422607,4.9697699,14.0250813,8.5169865,23.5927988,8.7272295,50.7711953.5819713,76.4983181l-.3471545,1.098893-.994266-.4592638c-8.3102541-3.8361052-19.047469,1.7201517-23.8635547,9.3155399-3.918945,6.1808557-3.5000192,12.5971884,1.1456098,17.6156892,8.4222016,5.260658,18.16203-2.4883748,22.4000451-9.6996514l.1692866-.2104263c.5745602-.467614,1.1389787-1.8086643,1.59301-2.8875167.7879236-1.8704562,1.5321604-3.6373693,2.8981548-3.9129276.1170184-.0233807.229356-.0350711.3424737-.0350711.5651987,0,1.1132347.2738882,1.6281155.8149845,6.5947649,5.1738154,11.3866668,14.6062588,13.0818728,25.8206457,2.7858172,21.9344389-10.4009821,37.8934384-23.1536433,53.324702-13.6201573,16.4817251-27.7033173,33.5245871-21.061355,57.5666294,2.2568942,12.1746657,8.5478013,21.7073121,18.206497,27.6226298,12.3271044,7.5502968,29.6095464,8.6441797,45.1019975,2.8524457,14.1845759-5.1120236,18.0578837-10.9221281,20.6209759-14.7665836,4.0730191-6.1123836,5.8037207-7.2279771,26.0299547,1.4713142,22.9098551,5.99214,46.4648714-3.6123185,62.1827779-11.3613513,5.5462803-2.0257709,11.107383-4.1300341,16.4972488-6.1691653l.4438897-.1686751c21.0960704-7.98952,42.9020523-16.2462481,64.8145208-20.1959167,22.316572-3.2515877,39.9262753,5.957069,56.958298,14.8684567,11.98073,6.2676983,24.3647834,12.7458229,38.3387262,14.8951775,6.9688336.6129084,14.0737985-3.5688972,17.0874114-9.8950473-6.7332366,2.6119585-14.8667929,5.4527138-22.6106781,2.4599839-10.2757725-2.4265829-19.8338324-7.8659363-29.0767228-13.1249243l.2812341-.566147-.2820143.566147c-10.2223341-5.8151147-20.7922128-11.8272953-32.3766406-13.6860612ZM25.0825114,191.2983701c-.3034676,1.7836136-2.0251978,6.0155207-11.4303537,6.7687133l-.4758747.0367411-.3264812-.3707511c-2.8552481-3.2465775-.2859149-8.2801087.8113273-10.4311334,2.2802978-2.9877198,5.2400823-3.896227,7.9794822-2.530126,2.4320316,1.2091163,3.8795488,3.9546788,3.4419001,6.5265561Zm-.1177985,266.9992711c-.815618,5.5378864-8.316495,13.2384877-13.3198102,14.9436089-.669345.2287969-1.2926628.3440303-1.8520106.3440303-1.1760345,0-1.8851658-.5076953-2.2728867-.933558-1.3265982-1.4546137-1.2825213-4.293699.1349612-8.6792507,3.2609117-5.9620791,10.380699-8.8596162,16.6103665-6.8655763l.8359012.267208-.1365214.9235377Zm66.6548296,138.7711489l-.5659788,1.0053702-.8819284-.698081c-4.0640477-3.2148466-6.4469317-8.2717585-6.0705226-12.881097.3093185-3.7893438,2.4300813-6.9173478,5.9718371-8.8061746l.1883996-.100203.331162-.0183706c2.3177437.5294059,3.8346917,1.7953039,4.6432886,3.7926839,1.9534265,4.8347952-1.0921714,13.2368177-3.6162575,17.7058719Z" stroke-width="0"/>
      <path d="m90.6377585,15.7460362c9.6895105,1.8570958,19.1738488,5.7416325,28.3461381,9.4992454,6.0178643,2.4666641,12.2405108,5.0168307,18.4631573,6.9590991,17.1447504,5.1621251,35.5365265,7.3382005,54.6612276,6.458084,7.0655687.1285939,13.2511594-.7832535,18.9729673-2.66373,5.9811986-1.963979,9.9149659.0133604,14.4693206,2.3013291,3.2063031,1.6149385,6.5081713,3.2766384,11.0278105,3.7910139,15.8481869,1.798644,29.606816-6.1340943,42.9090734-13.8113149,10.871396-6.2743785,22.1059389-12.7591833,34.590238-14.1336346,11.5107063-2.2278469,25.4218493,2.3531007,35.3914237,11.6820009l.9080625.8517256-.9501891.7949439c-.5102001.4292029-1.0718882.8918068-1.6718023,1.3878117-6.9836559,5.7633431-18.5907073,15.3410809-18.7139666,24.9872907-.0483676,3.7926839,1.7814095,7.3348604,5.4386234,10.5279963,6.0607711,4.293699,15.8201025,3.8561458,23.1587141-1.0738423,5.8037207-3.9012372,8.66677-9.7915042,7.8546626-16.1644156-1.0168896-5.1504347-2.701954-8.7310223-3.9322071-11.3446508-1.1990482-2.5434864-2.0630337-4.3772015-1.2797908-5.9804497,1.025861-2.1025932,4.3175875-2.8941969,15.1047303-4.525836,1.4073408-.2521776,2.8279438-.3807714,4.2075903-.3807714,5.9433626,0,11.3671638,2.4165626,15.6851413,6.9874899,7.0636184,7.4784847,10.6666138,20.3812923,8.9655569,32.1100546-1.3121659,13.2702187-5.6886527,26.1897268-9.9212069,38.6833721-3.3229314,9.8098747-6.7558601,19.9437391-8.634785,30.1043244-6.2554116,26.1162446-6.774193,55.1801277-1.5489331,86.4150761.8784178,6.7520128,2.0817567,14.514406,5.3056126,21.4968858,1.5134375,4.5057954-.051098,8.3602712-1.8625423,12.8243153-1.1639426,2.8674761-2.4831297,6.1190638-3.0046415,9.8332554-1.4607792,10.3977324-1.5079766,20.2810893-.1412022,29.3778526.949409,5.3224499,2.0423605,10.8386256,3.0994264,16.1744359,5.2432028,26.461945,10.6646635,53.8223769,3.8549749,80.4312863-2.1273938,8.4738346-5.6348242,16.5819282-9.0267965,24.4228137-4.2649293,9.8633163-8.6718408,20.0539625-10.2328658,30.8408165-2.969536,15.1256444,3.7309355,26.8911479,10.8245886,39.346382,4.3324099,7.6070785,8.8118728,15.4730148,10.9341958,24.1906767,2.5576313,10.5647374,3.466474,21.5336269,4.3452819,32.1401155l.3604166,4.3020492c.2371572,2.4983951.6174669,5.0519018.9849046,7.521906.7715411,5.1855058,1.5680461,10.5363465,1.1354682,15.8972076,4.2926236-9.0767227,3.8050471-19.7182824,3.3338532-30.0124716-.0542185-1.1857356-.108047-2.3614509-.1540742-3.527146-.1431525-1.3093193-.2863049-2.6937909-.4298475-4.0782625-.9681319-9.3572911-1.969419-19.0352319-4.7677182-28.3140306-2.0131059-7.191236-5.9663763-13.7344926-9.7897562-20.0623127-6.1500951-10.1806258-12.5077027-20.705282-10.9150828-34.052323,1.5087568-12.0544221,6.3092401-23.3523115,10.9517486-34.2777798,4.8394894-11.3914122,9.8420244-23.1652659,11.0804688-35.7474239,2.2054061-20.1858964-1.1795451-40.6323207-4.4529388-60.4057147l-.4368686-2.6403493c-.5659788-2.99607-1.217381-6.0756425-1.8473299-9.0516719-2.6598274-12.5754778-5.4097589-25.5768184-3.2047429-38.7835751,2.0216872-11.4064427,3.3689587-14.1703757,5.0134567-15.0922434,1.2961734-.7231317,2.536178-.1369441,3.848734.4876546,2.2393414,1.0671621,5.0126766,2.3865017,9.8728393-1.6399893,8.3180553-6.8989773,10.3705574-14.1954265,9.5178836-18.7229325-.5359441-2.8474355-2.2479227-4.8832267-4.6978972-5.5863178-4.8086746-1.3744513-11.3792557,2.3113494-17.5761581,9.8466158l-1.1760345,1.431233-.5277528-1.8203547c-9.1110497-31.4403645-10.2430074-66.6183013-3.18641-99.0540158,1.7884306-10.4244532,5.2283804-20.8539165,8.5552125-30.9410195,6.0428283-18.3187803,12.2904386-37.2588193,8.6367353-56.7098937-1.2224518-11.017321-6.2909072-19.3792622-14.6702021-24.267499-10.6338487-6.2059064-25.6149295-5.9704294-38.165149.599548l-.5316534.2805684-.484456-.3690811c-11.0785185-8.3753016-23.0081505-16.4182632-36.3166489-14.8434059-11.7685367,1.1172636-23.3439932,7.3098096-34.5387499,13.3002796-18.531418,9.918428-37.6795228,20.1691959-58.1397934,7.7540429l-1.8594218-1.130624,2.0017941-.8016241c9.6731279-3.8745164,13.7726712-14.0751828,12.0236368-21.30483-1.5524436-6.4146627-7.2781521-9.4725246-15.3153633-8.1799057-6.0716928,1.197426-10.8530631,5.8084345-12.7702139,12.3299804-1.9315831,6.5699774-.4567617,13.3420308,3.9454691,18.1150342l1.2064593,1.3076493-1.6585403.4759643c-24.0968113,6.9023174-50.2687483,2.33139-72.6929771-3.0495116-6.4711155-1.3627609-13.0124419-4.0548818-19.3388447-6.65849-10.3721176-4.2686482-21.0586246-8.6675604-31.6858422-7.3064695.1306705.0233807.2453485.0434213.3175098.0551117.3459843.0551117.6744158.1102233.9462885.1853756Zm318.4405104,216.9077863l.1813785-.033401c3.2597415-.3256598,4.0710688,1.4345731,4.2657094,2.5067453.7204431,3.9680392-5.2533444,11.483265-9.3368952,12.8360056l-.2313063.0768223-.1451028-.0283909c-4.122947-.7381622-5.0649448-2.762263-5.1437372-4.3321101-.2153138-4.2987091,6.1450243-9.7464128,10.4099536-11.0256712Zm-54.562152-200.8519239l.5983539-.2304669.4470101.4909948c6.7472788,7.3532309,8.7869089,16.708852,5.1948352,23.833286-2.6742597,5.3040793-7.8074652,8.2249971-14.4541082,8.2249971-1.682334,0-3.4454107-.1920558-5.2396922-.5728272-5.0785969-2.162715-7.5586061-5.3024093-7.4770833-9.3639713.1802083-8.919738,13.8452226-19.7132722,20.9306845-22.3820124ZM221.3839354,7.4225062c3.9052928-2.4499636,8.399188-2.3096794,12.3290547.3874516l.1954207.1820355c1.733432,2.5317961,2.2483128,5.1120236,1.6039317,7.757383-1.3234777,5.4376834-7.6385687,10.2591182-13.1072268,12.9579193l-.4052736.2020761-.4126848-.1920558c-4.0683384-1.9055272-6.4317193-5.1871758-6.6540542-9.2420576-.2504193-4.560907,2.402387-9.5159459,6.4508323-12.0527521Z" stroke-width="0"/>
    </g>
  </g>
</svg>