<?xml version="1.0" encoding="UTF-8"?>
<svg id="Layer_2" data-name="Layer 2" xmlns="http://www.w3.org/2000/svg" viewBox="0 0 367.4268537 442.6722692">
  <g id="Layer_1-2" data-name="Layer 1">
    <g>
      <path d="m99.6919353,111.2669958c-2.9804688,1.1425781-4.578125,3.4160156-4.4990234,6.4013672.1298828,4.9003906,1.8769531,9.0175781,5.1933594,12.2382812,4.7138672,4.5771484,8.9873047,7.6679688,13.4511719,9.7285156l1.1035156.5097656c2.7119141,1.2558594,5.5175781,2.5546875,8.3535156,3.6298828,5.2587891,1.9921875,8.2099609,5.7998047,9.0234375,11.6416016.2685547,1.9316406.4072266,3.8642578.5371094,5.8388672.0947266,1.4462891.1972656,2.8925781.2998047,4.3388672.296875,4.1738281.6035156,8.4902344.6992188,12.7412109.0546875,2.4003906-.1982422,4.84375-.4423828,7.2070312-.0976562.9423828-.1982422,1.9169922-.2773438,2.8730469-.4882812,5.8554688-.9707031,11.5898438-1.5126953,17.3808594-.0537109.5791016-.3916016,1.3349609-.8623047,1.5966797-1.421875.7900391-2.8505859,1.4375-4.2470703,1.9228516-1.03125.359375-2.1044922.6464844-3.1435547.9248047-.7509766.2011719-1.5273438.4082031-2.2792969.6416016-3.3671875,1.0400391-5.7744141,3.2841797-7.8730469,5.5546875-.3261719.3535156-.9228516.7128906-1.4296875.7148438-2.4199219.0175781-4.8164062-.0712891-7.0693359-.1552734-.7978516-.0302734-1.6074219-.0830078-2.3896484-.1347656-1.1484375-.0751953-2.3349609-.1533203-3.5009766-.1582031-1.6552734-.0068359-3.3105469-.0224609-4.9667969-.0390625-4.9130859-.0478516-9.9970703-.0966797-14.9824219.1171875-9.6708984.4160156-17.6582031,1.3613281-25.1376953,2.9746094-.6953125.1494141-1.4160156.2265625-2.1123047.3017578-.2734375.0292969-.546875.0585938-.8193359.0917969-3.7412109.4609375-4.3759766,1.1455078-4.5273438,4.8847656-.1191406,2.9355469.8378906,5.8876953,2.7685547,8.5371094.9443359,1.296875,1.9355469,2.3837891,2.9482422,3.2294922,5.2724609,4.4091797,10.9101562,8.1181641,16.7548828,11.0224609,1.1972656.5947266,2.6132812,1.2246094,4.046875,1.3964844,4.4804688.5361328,7.4375,3.0722656,9.0400391,7.7529297,2.5791016,7.53125,3.6982422,14.5996094,3.421875,21.609375-.0644531,1.625-.1787109,3.2753906-.2890625,4.8701172-.1572266,2.2724609-.3203125,4.6220703-.3398438,6.9326172-.0302734,3.6162109.0537109,7.2949219.1347656,10.8525391.0449219,1.9345703.0908203,3.9355469.1171875,5.9033203.0273438,1.9599609-.0058594,3.5673828-.1035156,5.0585938-.1699219,2.5527344-1.6289062,4.3691406-4.3349609,5.3994141-1.0048828.3828125-2.0380859.7470703-3.0361328,1.0986328-1.7294922.609375-3.5185547,1.2402344-5.2158203,1.9863281-1.2988281.5703125-2.5371094,1.3378906-3.7353516,2.0791016-.5634766.3486328-1.1455078.7099609-1.7285156,1.046875-.0605469.0351562-.1230469.0732422-.1855469.1123047-.2519531.1572266-.5117188.3193359-.7919922.3320312-3.2734375.1347656-6.4746094.2617188-9.6572266.3242188-9.9072266.1962891-19.6015625.3837891-29.2841797.5234375-5.9150391.0849609-11.6699219,1.0009766-16.0234375,1.7900391-.8105469.1464844-1.6230469.2851562-2.4345703.4238281-1.1054688.1884766-2.2490234.3837891-3.3681641.5986328-.5654297.1074219-1.1826172.296875-1.8847656.5800781-2.3896484.9658203-3.1982422,2.2744141-3.0908203,5.0019531.2216797,5.6318359,2.7421875,10.3457031,7.7060547,14.4111328,2.4052734,1.9697266,4.5224609,3.4882812,7.0341797,4.5029297,3.8164062,1.5410156,7.4814453,3.1220703,10.8935547,4.6972656,5.5087891,2.5429688,8.9277344,6.4189453,10.1591797,11.5214844.2714844,1.1220703.5673828,2.2607422.8544922,3.3613281.9970703,3.8300781,2.0292969,7.7900391,2.1933594,11.8496094.0585938,1.4355469.1298828,2.8710938.2021484,4.3066406.1904297,3.8134766.3876953,7.7578125.3164062,11.6347656-.0507812,2.7607422-.3701172,5.5595703-.6787109,8.2666016-.1777344,1.5634766-.3623047,3.1806641-.4921875,4.7714844-.1074219,1.3017578-.1005859,2.6376953-.09375,3.9287109.0029297.5224609.0058594,1.0449219.0009766,1.5664062-.0048828.5625-.0019531,1.125.0009766,1.6875.0058594,1.2529297.0117188,2.5478516-.0683594,3.8193359-.0302734.4814453-.5693359,1.0800781-1.0527344,1.3378906-2.5996094,1.3857422-5.5410156,2.4228516-8.9941406,3.1708984-1.2373047.2685547-2.3857422.6542969-3.4150391,1.1464844-3.1416016,1.5068359-4.8369141,4.6132812-4.3203125,7.9150391.1640625,1.046875.7519531,1.7373047,1.5849609,2.4511719,2.5888672,2.2207031,5.5800781,2.0351562,8.7519531,1.8408203l.0498047-.0029297c3.1572266-.1933594,5.5634766-.2011719,7.8017578-.0273438,4.1357422.3251953,8.5507812.3134766,13.8984375-.0390625,3.7353516-.2460938,7.5410156-.3798828,11.2207031-.5087891,1.8056641-.0634766,3.6103516-.1269531,5.4150391-.203125.5751953-.0244141,1.1162109-.0947266,1.609375-.2089844,1.6640625-.3828125,2.1572266-1.0664062,2.0302734-2.8125-.2714844-3.7666016-2.2890625-6.2958984-5.9970703-7.5175781-1.6875-.5556641-3.4306641-1.0449219-5.1171875-1.5175781-1.6933594-.4755859-3.4453125-.9667969-5.1425781-1.5263672-1.5830078-.5214844-3.1025391-1.2880859-4.5722656-2.0292969-.2490234-.1259766-.4970703-.2509766-.7451172-.3740234-.375-.1894531-.6542969-.7617188-.7265625-1.2041016-.140625-.8720703-.2236328-1.8212891-.2587891-2.9882812l-.0292969-.9648438c-.1650391-5.3261719-.3339844-10.8349609-.4570312-16.2539062-.0361328-1.6083984-.0771484-3.2167969-.1171875-4.8251953-.1396484-5.5683594-.2832031-11.3271484-.2607422-16.9912109.0205078-5.2441406.2666016-10.5722656.7314453-15.8339844.2246094-2.5322266,1.8535156-4.7333984,4.5888672-6.1992188,1.6445312-.8818359,3.4785156-1.6767578,5.9443359-2.578125,6.2353516-2.2783203,12.2294922-5.4853516,18.3261719-9.8037109,2.4472656-1.7324219,4.4296875-4.1474609,6.0957031-6.2763672,1.6435547-2.0996094,2.2744141-4.6621094,1.8251953-7.4121094-.0839844-.5117188-.1142578-1.0253906-.1455078-1.5703125-.0146484-.2539062-.0302734-.5146484-.0517578-.7832031l-.0107422-.1455078h4.0849609l-.0078125.1425781c-.1933594,3.4951172.3730469,6.9990234,1.78125,11.0253906,1.1162109,3.1953125,3.0107422,5.71875,5.6308594,7.5009766,4.9482422,3.3632812,10.3183594,6.7558594,16.7695312,8.0498047,2.4033203.4814453,4.5830078.9697266,6.6630859,1.4912109,2.8984375.7285156,4.9873047,2.6318359,6.2060547,5.6591797,1.3017578,3.2304688,1.6689453,6.6835938,2.0244141,10.0224609l.0869141.8193359c.2011719,1.8730469.4082031,3.8095703.4140625,5.7197266.0029297.9404297.0068359,1.8808594.0117188,2.8222656.0371094,8.2929688.0771484,16.8691406-1.0820312,25.2734375-.3115234,2.2597656-.4462891,4.5839844-.5761719,6.8310547-.0585938,1.0214844-.1201172,2.078125-.1962891,3.1152344-.0410156.5419922-.0791016,1.0839844-.1171875,1.6259766-.1103516,1.5644531-.2246094,3.1816406-.3867188,4.7685547-.0371094.3720703-.4677734.9492188-.8388672,1.0058594l-.2509766.0390625c-1.2685547.1972656-2.5771484.4023438-3.8632812.3349609-3.1396484-.1572266-6.1308594.3837891-9.1367188,1.6679688-2.6103516,1.1162109-4.0537109,3.2617188-4.5419922,6.7509766-.0634766.4511719.0507812.8662109.3291016,1.2001953.3623047.4345703.9716797.7011719,1.6728516.7304688,4.0361328.1738281,7.59375.5976562,10.8759766,1.2958984,2.7373047.5810547,5.625.7314453,8.4189453.8769531l.9267578.0488281c6.9863281.3779297,13.9404297.6425781,19.2197266.8310547,2.3779297.0839844,4.7236328.0087891,6.7050781-.0742188,1.5351562-.0634766,2.8369141-.2246094,3.2060547-1.5556641.3847656-1.3808594-.1103516-2.8095703-1.3564453-3.9199219-1.0771484-.9589844-2.0097656-1.6083984-2.9345703-2.0410156-2.8144531-1.3183594-5.8212891-2.703125-8.921875-3.8554688-2.5214844-.9355469-4.6044922-2.2871094-6.3671875-4.1318359-1.6162109-1.6904297-1.8154297-3.9150391-1.8085938-5.6650391l.0078125-2.2177734c.0283203-8.1181641.0585938-16.5126953.2529297-24.765625.1611328-6.8427734.34375-14.5976562,1.4003906-22.1230469.4960938-3.53125,1.2431641-6.4306641,2.3496094-9.1259766,1.0498047-2.5556641,2.7246094-4.0888672,5.1230469-4.6865234,2.0810547-.5175781,4.4394531-1.1044922,6.7617188-1.6357422,5.5341797-1.2646484,10.3525391-3.7128906,14.3232422-7.2783203.5400391-.4853516,1.1328125-.9296875,1.7060547-1.359375.3544922-.265625.7099609-.5322266,1.0556641-.8095703,2.2109375-1.7763672,3.9863281-4.0947266,5.2783203-6.8896484.9082031-1.9667969.9902344-4.0029297.2441406-6.0507812-.0664062-.1855469-.1191406-.3701172-.1855469-.6044922-.0351562-.125-.0732422-.2626953-.1201172-.4208984l-.0566406-.1914062,1.9189453.1816406,4.1738281.3916016-.1552734.1953125c-1.3710938,1.7265625-1.0722656,3.4794922-.5976562,4.9658203.6689453,2.1015625,1.4052734,4.3310547,2.3916016,6.4492188,1.7773438,3.8125,5.1308594,6.1494141,8.7021484,8.4003906,5.0302734,3.1708984,9.9150391,5.3378906,14.9326172,6.625,1.7246094.4423828,3.5751953,1.2128906,5.65625,2.3554688.8652344.4755859,1.7246094,1.4375,2.2431641,2.5097656.7275391,1.5039062,1.3222656,3.1865234,1.7695312,5.0029297,1.4365234,5.8203125,2.0429688,10.4160156,1.9667969,14.9013672-.0488281,2.8662109.0693359,5.7851562.1835938,8.6074219.1123047,2.7441406.2265625,5.5820312.1884766,8.3740234-.0820312,5.9980469-.5292969,11.8798828-.9560547,16.8427734-.0537109.6162109-.1269531,1.2392578-.1992188,1.8417969-.2011719,1.6972656-.4101562,3.4511719-.1533203,5.2021484.0537109.3681641-.3359375.9335938-.6777344,1.1025391-.9765625.4824219-1.9931641.8574219-2.9472656,1.1894531-.8603516.3007812-1.7431641.5869141-2.5966797.8642578-1.75.5673828-3.5585938,1.1542969-5.2626953,1.8886719-.9150391.3945312-1.7011719,1.1464844-2.4609375,1.875-.2421875.2314453-.4824219.4619141-.7265625.6806641-.2744141.2460938-.4912109.5478516-.7197266.8662109-.1582031.2207031-.3212891.4482422-.5058594.6552734-1.9091797,2.1455078-2.15625,4.2373047-.7763672,6.5830078.2714844.4619141.9990234.9208984,1.5898438,1.0019531,1.6494141.2265625,3.3496094.3193359,4.9941406.4091797l.6357422.0351562c1.4638672.0820312,2.9277344.1669922,4.3925781.2519531,4.4326172.2578125,9.0166016.5244141,13.5273438.7001953,5.6708984.2226562,11.5039062.3535156,17.3398438.3886719h.0771484c1.7138672,0,3.4599609-.3359375,5.1494141-.6621094l.1162109-.0224609c.6337891-.1210938,1.3505859-.4697266,2.1318359-1.0361328.8017578-.5810547.9775391-1.3027344.5224609-2.1445312-.2021484-.3730469-.3300781-.7822266-.4541016-1.1777344-.1025391-.3271484-.2089844-.6660156-.3554688-.9746094-1.0283203-2.1748047-2.6201172-3.8193359-4.8642578-5.0273438-2.7207031-1.4648438-5.6982422-2.5488281-9.1035156-3.3134766-1.3115234-.2939453-2.6201172-.6806641-3.8867188-1.0546875-.671875-.1972656-1.34375-.3964844-2.0195312-.5820312-.7890625-.2177734-1.0722656-.6035156-1.0429688-1.4238281.0439453-1.2265625-.0371094-2.4824219-.1152344-3.6972656-.0214844-.328125-.0429688-.65625-.0615234-.9833984-.6513672-11.2412109-.5859375-22.25.1923828-32.7216797.0703125-.9394531.1347656-1.8798828.1982422-2.8203125.2441406-3.5878906.4970703-7.2988281,1.0898438-10.8964844.5527344-3.3574219,1.5214844-6.7041016,2.4589844-9.9394531.2128906-.7363281.4257812-1.4716797.6337891-2.2080078.2158203-.7626953.9404297-1.6015625,1.6494141-1.9101562,3.9921875-1.7285156,7.5537109-3.1640625,10.8876953-4.3876953,4.1220703-1.5126953,8.0458984-3.7919922,11.6650391-6.7753906,2.5751953-2.1230469,4.21875-5.0712891,4.7558594-8.5273438.4755859-3.0634766-.7070312-5.4013672-1.7832031-6.8232422-1.7177734-2.2705078-4.4726562-3.8867188-7.1884766-4.2177734-1.8554688-.2265625-3.7109375-.4619141-5.5654297-.6972656-10.2539062-1.3007812-20.8505859-2.6503906-31.4248047-2.3798828-2.3652344.0585938-4.7753906-.1074219-7.1054688-.2695312-.8544922-.0595703-1.7089844-.1181641-2.5634766-.1669922-.2705078-.0146484-.5195312-.1621094-.7597656-.3037109-.1074219-.0634766-.2158203-.1279297-.3251953-.1787109-.6240234-.2871094-1.2519531-.5957031-1.859375-.8955078-1.3505859-.6650391-2.7470703-1.3535156-4.1845703-1.8339844-.6064453-.203125-1.2148438-.3994141-1.8232422-.5957031-3.1806641-1.0283203-6.46875-2.0898438-9.3291016-4.0537109-1.6533203-1.1357422-2.7158203-2.6572266-3.3427734-4.7880859-1.8916016-6.4208984-1.9306641-12.9443359-1.7207031-18.4794922.0625-1.6494141.1103516-3.3271484.15625-4.9492188.0927734-3.2685547.1894531-6.6484375.4140625-9.9658203.4697266-6.9052734,1.1542969-14.2734375,2.9765625-21.3720703,1.5410156-5.9980469,5.4365234-9.46875,11.578125-10.3144531,5.7832031-.7949219,10.8027344-2.9013672,15.34375-6.4404297.6835938-.5322266,1.3964844-1.0507812,2.0859375-1.5527344,1.0771484-.7841797,2.1914062-1.5947266,3.2119141-2.4707031,3.8330078-3.2880859,5.7607422-6.9951172,5.8935547-11.3320312.0195312-.6376953-.0693359-1.3515625-.2646484-2.1201172-.5527344-2.1757812-1.78125-3.4511719-3.8652344-4.015625-4.1992188-1.1367188-8.2949219-1.7675781-12.5214844-1.9277344-2.5712891-.0976562-5.1826172-.2675781-7.7070312-.4316406-2.9589844-.1923828-6.0175781-.3916016-9.0292969-.4755859-5.828125-.1621094-12.1318359-.1953125-19.8330078-.109375-1.9521484.0214844-3.9365234.1816406-5.8554688.3359375-1.2822266.1035156-2.6083984.2099609-3.9140625.2753906-.5820312.0244141-1.1982422-.2880859-1.7392578-.5673828-.5488281-.2832031-1.0908203-.6015625-1.6142578-.9101562-.8925781-.5244141-1.8154297-1.0664062-2.7832031-1.4394531-1.9130859-.7382812-3.8955078-1.4003906-5.8134766-2.0400391-1.1542969-.3847656-2.3466797-.7832031-3.5136719-1.1943359-.8427734-.296875-1.9365234-.7109375-2.9228516-1.2832031-2.6972656-1.5625-3.984375-3.6777344-3.9345703-6.4648438.078125-4.3925781.1455078-8.7841797.2119141-13.1757812.1259766-8.2539062.2558594-16.7880859.4648438-25.1796875.1943359-7.8466797,1.65625-14.6191406,4.4697266-20.7041016,1.0576172-2.2880859,2.6103516-3.578125,5.1904297-4.3154297,4.0625-1.1591797,8.2626953-2.3583984,12.0009766-4.3037109,4.6318359-2.4121094,8.8115234-5.6201172,12.4228516-9.5341797,2.484375-2.6943359,3.4746094-6.1171875,2.9423828-10.1748047l-.0400391-.3183594c-.1464844-1.1787109-.2978516-2.3984375-1.3603516-3.2236328l-.0634766-.0498047.0136719-.0800781c.2363281-1.3300781-.6376953-1.7353516-1.5644531-2.1630859-.2304688-.1074219-.4697266-.2177734-.6884766-.3427734-.1455078-.0830078-.3271484-.1484375-.5107422-.1816406-.9970703-.1826172-1.9931641-.3720703-2.9882812-.5615234-2.4335938-.4638672-4.9492188-.9423828-7.4394531-1.3017578-2.6044922-.3769531-5.2871094-.5478516-7.8818359-.7138672l-.3291016-.0205078c-2.4501953-.1582031-5.3457031-.3203125-8.2480469-.3330078l-2.2392578-.0107422c-5.2675781-.0283203-10.7119141-.0566406-16.0625.1054688-9.7695312.2949219-18.2480469,1.1230469-25.9208984,2.5322266-1.5693359.2871094-3.1962891.7519531-4.8359375,1.3808594Zm-46.7099609,110.6025391c1.3916016-.1601562,2.8066406-.3613281,4.1748047-.5556641,3.0292969-.4306641,6.1621094-.8759766,9.2519531-.9042969,6.3496094-.0556641,12.8085938.1191406,19.0527344.2900391,2.6503906.0732422,5.390625.1484375,8.0849609.2041016.5498047.0117188,1.0986328.0253906,1.6474609.0400391,3.6425781.0966797,7.4101562.1962891,11.1083984-.7167969,2.0644531-.5107422,4.3212891-.3662109,6.5097656-.2255859l.546875.0341797c1.0039062.0625,2.0068359.3076172,2.9755859.5449219.6904297.1679688,1.4033203.3427734,2.1103516.4482422,1.3369141.203125,2.7119141.3320312,4.0410156.4580078.5927734.0556641,1.1855469.1113281,1.7773438.1738281l.4570312.0478516-.4101562.2060547c-.8974609.453125-1.7851562.7041016-2.6367188.7470703-5.1738281.2587891-10.6826172.5273438-16.1513672.7119141-1.3173828.0419922-2.6572266.0234375-3.9541016.0029297-1.2978516-.0214844-2.6396484-.0419922-3.9541016.0029297-1.7138672.0576172-3.4580078.1689453-5.1435547.2763672-2.4619141.1572266-4.9960938.3193359-7.5068359.3193359-.3828125,0-.7646484-.0039062-1.1464844-.0117188-6.4716797-.1367188-13.0458984-.4589844-19.4042969-.7714844-2.1738281-.1064453-4.3476562-.2128906-6.5214844-.3125-1.1230469-.0507812-2.2607422-.1601562-3.3603516-.265625-.5107422-.0488281-1.0224609-.0976562-1.5341797-.140625l-.1191406-.0107422-.0185547-.5791016.1230469-.0136719Zm30.5019531,28.5214844l-.0673828.140625-.1298828-.0878906c-.4121094-.28125-.8056641-.5634766-1.1904297-.8388672-.8115234-.5820312-1.578125-1.1328125-2.4023438-1.5810547-.8017578-.4355469-1.6035156-.8740234-2.4042969-1.3115234-3.7958984-2.0751953-7.7207031-4.2197266-11.6738281-6.1474609-4.2998047-2.0966797-8.1943359-4.8798828-11.9619141-7.5712891l-.1015625-.0732422c-2.6191406-1.8710938-3.2744141-4.6738281-3.96875-7.6416016l-.0419922-.1757812.7939453.0478516c.3486328.0205078.6494141.0380859.9511719.0615234,1.4277344.1123047,2.8554688.2382812,4.2832031.3632812,3.1357422.2753906,6.3789062.5605469,9.5742188.6943359,3.7871094.1591797,7.6445312.1914062,11.3740234.2216797,1.6748047.0136719,3.3496094.0283203,5.0234375.0527344,2.5917969.0380859,5.1835938.0800781,7.7753906.1210938,5.4931641.0878906,11.1748047.1796875,16.7626953.2373047.7949219.0087891,1.5898438.0185547,2.3857422.0292969,6.4423828.0810547,13.1074219.1699219,19.6123047-.8574219.1181641-.015625.2275391.0019531.3574219.0244141.0634766.0107422.1328125.0234375.2128906.0332031l.1435547.0166016-.0263672.1416016c-.6386719,3.4208984-2.3564453,6.0107422-5.1083984,7.6992188-2.1416016,1.3144531-4.5439453,2.5136719-7.140625,3.5664062-3.2734375,1.3261719-6.6455078,2.5664062-9.9072266,3.765625-1.2070312.4433594-2.4130859.8867188-3.6171875,1.3349609-2.6005859.9697266-5.4316406,2.3876953-6.7070312,5.5634766-.4824219,1.2021484-1.3154297,1.7861328-2.5458984,1.7861328h-.0527344c-2.8564453-.0410156-5.6230469-.1494141-8.2226562-.3242188-.9375-.0664062-1.6162109-.0458984-1.9794922.7089844Zm50.4443359-26.2197266c-.0107422-.5634766-.0205078-1.1210938-.0205078-1.6708984v-.1347656h6.4677734l-.0205078.1523438c-.0263672.1933594-.0478516.3632812-.0664062.5195312-.0371094.2958984-.0673828.5390625-.1113281.78125-1.1328125,6.2666016.9990234,11.3925781,6.3378906,15.2363281,2.4619141,1.7724609,4.8896484,3.4648438,7.5126953,4.6923828,4.9941406,2.3369141,10.3085938,4.5791016,15.7949219,6.6640625,2.7480469,1.0449219,4.5820312,2.8427734,5.6064453,5.4960938,2.1806641,5.6464844,3.2246094,10.9814453,3.1914062,16.3105469-.0048828.8876953-.0361328,1.7900391-.0664062,2.6621094-.0419922,1.1972656-.0839844,2.4345703-.0605469,3.6484375.0537109,2.7128906.1376953,5.4716797.21875,8.1386719.15625,5.1230469.3173828,10.4208984.2724609,15.6308594-.0341797,3.9404297-.4492188,7.9404297-.8515625,11.8085938-.1220703,1.171875-.2431641,2.34375-.3554688,3.5146484-.0488281.5068359-.7792969,1.1367188-1.3212891,1.2783203-.9736328.2529297-2.0019531.3496094-2.9970703.4423828l-.5166016.0488281c-4.9882812.4892578-9.3486328,1.2353516-12.1914062,5.4365234-.1796875.265625-.7324219.3525391-1.0400391.3251953-1.3632812-.1152344-2.7470703-.2529297-4.0849609-.3857422-2.5068359-.2490234-5.0996094-.5068359-7.6542969-.6279297l-.4111328-.0195312c-4.8193359-.2304688-9.7998047-.4667969-14.6757812-.2451172-3.2939453.1494141-6.6328125.5664062-9.8613281.96875-1.6845703.2099609-3.4267578.4277344-5.1435547.6044922-.0419922.0048828-.0859375.0068359-.1298828.0068359-.4492188,0-.9941406-.2148438-1.2714844-.5126953-2.1572266-2.3173828-4.9814453-3.4628906-7.7109375-4.3544922-.8828125-.2880859-1.7939453-.5537109-2.6748047-.8115234-1.7880859-.5224609-3.6376953-1.0625-5.3583984-1.8193359-3.265625-1.4345703-4.8691406-3.546875-4.9013672-6.4560547-.0058594-.4960938-.1337891-1.0087891-.2587891-1.5048828l-.0664062-.2695312c-1.7050781-7.0117188-2.234375-13.3935547-1.6152344-19.5097656.34375-3.4003906.4179688-6.8867188.4892578-10.2587891.0166016-.7441406.0322266-1.4882812.0507812-2.2314453.0351562-1.3876953.0185547-2.7998047.0019531-4.1660156-.0185547-1.6425781-.0390625-3.3408203.0302734-5.0097656.0839844-2.0117188.3662109-3.6816406.8613281-5.1025391.90625-2.6064453,1.9208984-5.2246094,2.9023438-7.7558594.6279297-1.6201172,1.2773438-3.2949219,1.8925781-4.9501953.9423828-2.5410156,2.7685547-4.2363281,5.4287109-5.0371094,1.4423828-.4345703,2.9189453-.8466797,4.3457031-1.2460938,2.03125-.5673828,4.1308594-1.1542969,6.1669922-1.8134766l1.0302734-.3330078c3.0800781-.9931641,6.2646484-2.0214844,9.2011719-3.4130859,4.6347656-2.1972656,7.2607422-5.984375,7.59375-10.9492188.0849609-1.2617188.0615234-2.5410156.0400391-3.7783203Zm30.2070312,105.2792969c.6542969.0566406,1.3105469.1826172,1.9443359.3046875.2900391.0556641.5800781.1113281.8701172.1611328l.2724609.0458984-.2041016.1865234c-.3535156.3222656-.7001953.4873047-1.1240234.5351562-6.3701172.7255859-12.421875.9667969-18.5126953.7314453-9.2851562-.3554688-18.6435547-.4326172-28.2138672-.4863281h-.1689453c-1.8154297,0-3.6611328.15625-5.4472656.3085938-1.3183594.1123047-2.6816406.2285156-4.0253906.28125-.8310547.0322266-1.6699219.0439453-2.5058594.0439453-.9345703,0-1.8652344-.0146484-2.7802734-.0283203-.7705078-.0117188-1.5410156-.0224609-2.3115234-.0263672l-.1298828-.0009766-.0214844-.7587891.1103516-.0224609c.0673828-.0136719.1337891-.0292969.2001953-.0449219.1533203-.0361328.3115234-.0732422.4746094-.0878906.8261719-.0732422,1.6542969-.1367188,2.4824219-.2001953,1.7314453-.1318359,3.5205078-.2685547,5.2636719-.5068359,1.1757812-.1611328,2.3632812-.4033203,3.5126953-.6376953,1.4082031-.2880859,2.8652344-.5859375,4.3183594-.7363281,3.0126953-.3134766,6.0058594-.3671875,9.0625-.3974609,2.2861328-.0234375,4.6142578-.0039062,6.8623047.0136719,2.4345703.0205078,4.9511719.0390625,7.4248047.0078125,3.4208984-.0439453,6.8974609-.1484375,10.2607422-.2490234,1.7724609-.0527344,3.5458984-.1064453,5.3183594-.1513672.3427734-.0097656.7587891-.0195312,1.0039062.1777344,1.5146484,1.21875,3.2763672,1.3398438,5.1416016,1.46875.3076172.0214844.6152344.0419922.921875.0683594Zm-157.3974609.9414062l.1103516-.0175781c.8359375-.1318359,1.6699219-.2705078,2.5048828-.4091797,1.7998047-.2978516,3.6611328-.6064453,5.5029297-.8417969l1.5029297-.1923828c6.7734375-.8710938,13.7822266-1.7734375,20.7392578-1.4726562,8.3789062.3603516,16.6943359.0302734,23.0029297-.2958984.9941406-.0507812,1.9892578-.0947266,3.0087891-.1396484l1.7841797-.0800781.0078125.1337891c.0595703,1.1113281.6982422,1.8466797,1.8466797,2.1259766.8671875.2109375,1.7646484.3759766,2.6318359.5351562.3847656.0703125.7695312.140625,1.1523438.2148438l.1064453.0214844.0205078.7158203-.1347656.0039062c-1.1308594.03125-2.2617188.0693359-3.3925781.1074219-2.5107422.0859375-5.1074219.1738281-7.6621094.1777344h-.0693359c-1.6132812,0-3.2509766-.0644531-4.8359375-.1259766-1.7558594-.0683594-3.5703125-.1416016-5.3564453-.1240234-3.6806641.0332031-7.4238281.1230469-11.0439453.2099609-2.5322266.0615234-5.1513672.1240234-7.7275391.1669922-1.2597656.0224609-2.5449219-.0058594-3.7861328-.0322266-1.0039062-.0214844-2.0498047-.0361328-3.0585938-.0400391-3.0546875.0107422-6.109375.0351562-9.1640625.0595703-2.1376953.0175781-4.2763672.0341797-6.4150391.046875h-.0136719c-.2685547,0-.5361328-.0390625-.7949219-.0771484-.1191406-.0175781-.2382812-.0351562-.3574219-.0488281l-.1210938-.0136719.0117188-.6083984Zm47.5429688,100.6650391c1.6113281.6523438,3.2714844,1.2675781,4.8769531,1.8623047,1.4306641.5302734,2.9091797,1.078125,4.3505859,1.6513672.5703125.2265625,1.0839844.5927734,1.5800781.9462891.2285156.1630859.4560547.3261719.6894531.4755859l.0947266.0595703-.2509766.6259766h-.0908203c-.7148438,0-1.4296875-.0058594-2.1455078-.0117188-1.5283203-.0136719-3.109375-.0263672-4.6611328.0224609-3.1503906.0986328-6.2998047.2109375-9.4492188.3242188-5.0996094.1826172-10.3730469.3710938-15.5625.4931641-.1933594.0048828-.3876953.0068359-.5820312.0068359-1.5517578,0-3.125-.1367188-4.6523438-.2685547-.7998047-.0693359-1.6269531-.140625-2.4472656-.1923828l-.1347656-.0087891.0087891-.1347656c.1503906-2.2958984,1.4443359-3.6787109,3.9560547-4.2294922.5654297-.1240234,1.1455078-.2138672,1.7060547-.3007812.4335938-.0673828.8818359-.1367188,1.3183594-.2216797,2.5673828-.4960938,5.234375-1.2070312,7.3408203-3.0341797.609375-.5302734,1.4443359-1.3320312,1.6533203-2.1777344.5224609-2.109375,1.0625-4.2910156.6835938-6.6015625-.1455078-.8896484-.0722656-1.8203125-.0009766-2.7197266.0292969-.3623047.0576172-.7246094.0722656-1.0839844.0253906-.6054688.0595703-1.2109375.0947266-1.8164062.0595703-1.0175781.1201172-2.0693359.1289062-3.1025391.0371094-4.4482422.0253906-8.8974609.0107422-12.2763672-.0029297-.7734375.0019531-1.546875.0078125-2.3212891.0146484-2.1699219.0302734-4.4140625-.15625-6.6015625-.1669922-1.9648438-.4404297-3.9570312-.7060547-5.8828125-.3037109-2.2128906-.6181641-4.5009766-.7744141-6.7646484-.3544922-5.1484375-1.7792969-9.8769531-4.3554688-14.4550781-.1181641-.2089844-.2138672-.4287109-.3339844-.7080078-.0654297-.1494141-.1386719-.3183594-.2275391-.5136719l-.1855469-.4072266.3798828.2373047c2.3505859,1.4726562,4.8154297,1.9482422,7.7568359,1.5068359l.1376953-.0214844.0166016.1386719c.0292969.2470703.0380859.4804688.046875.7070312.0166016.4355469.03125.8125.1923828,1.0898438.5722656.9833984.4560547,1.9726562.34375,2.9296875l-.03125.2734375c-.0527344.4755859-.0664062.9658203-.0791016,1.4394531-.0058594.2050781-.0117188.4101562-.0205078.6152344-.0634766,1.4560547-.1308594,2.9121094-.1982422,4.3681641-.1591797,3.4550781-.3251953,7.0273438-.4248047,10.5410156-.0146484.5068359-.03125,1.0136719-.0478516,1.5205078-.0927734,2.8925781-.1904297,5.8828125.0810547,8.7871094.5351562,5.7294922.4990234,11.3447266.2802734,18.0136719-.0966797,2.9228516.1621094,5.9101562.4121094,8.7998047.0488281.5712891.0986328,1.140625.1455078,1.7109375.1357422,1.6523438.9277344,2.9199219,2.2304688,3.5712891,2.3671875,1.1816406,4.6962891,2.2382812,6.921875,3.1386719Zm27.3945312-97.1767578c-1.2207031,4.4277344-3.2060547,7.3740234-6.2480469,9.2705078-2.0703125,1.2919922-4.2148438,2.5429688-6.2900391,3.7519531-1.1269531.6582031-2.2539062,1.3154297-3.375,1.9824219-1.6748047.9951172-3.3476562,2.0576172-4.9658203,3.0859375-3.46875,2.203125-7.0566406,4.4814453-10.8867188,6.2451172-.4746094.21875-.9033203.3759766-1.3105469.4794922-.2919922.0742188-.5986328.1230469-.8945312.1699219-.5439453.0859375-1.0566406.1669922-1.4921875.3955078-1.1044922.5800781-2.0761719.6474609-3.2490234.2246094-1.2050781-.4375-2.4589844-.7519531-3.7275391-.9345703-1.0332031-.1503906-1.7900391-.0185547-2.3076172.3974609-.515625.4150391-.8037109,1.1220703-.8789062,2.1611328l-.0126953.1630859-.1572266-.0429688c-.0546875-.0146484-.09375-.0234375-.1240234-.0302734-.0615234-.0126953-.109375-.0234375-.1513672-.0673828-.1152344-.1259766-.2255859-.2509766-.3369141-.3759766-.09375-.1054688-.1865234-.2109375-.28125-.3154297-2.6826172-2.9550781-6.109375-6.1679688-11.1806641-7.6015625-1.9765625-.5595703-3.8740234-1.4873047-5.7089844-2.3847656-.6328125-.3095703-1.2871094-.6289062-1.9335938-.9287109-.6738281-.3115234-1.3300781-.6806641-1.9648438-1.0380859-.5380859-.3027344-1.0947266-.6171875-1.6572266-.8916016-3.125-1.53125-5.4189453-4.0859375-6.8154297-7.5947266-.5107422-1.2802734-.7529297-2.6835938-.9882812-4.0400391-.1064453-.6132812-.2158203-1.2480469-.3496094-1.8652344l-.0351562-.1630859h.1669922c1.3603516,0,2.6923828-.0107422,4.0029297-.0205078,2.9560547-.0244141,5.7460938-.0458984,8.5654297.0507812,1.9208984.0654297,3.8710938.2167969,5.7568359.3642578,2.4355469.1894531,4.9541016.3857422,7.4306641.3964844,5.1005859.0175781,10.2744141-.1875,15.2841797-.390625.921875-.0371094,1.84375-.0742188,2.7666016-.1103516,2.8173828-.109375,5.6816406-.2607422,8.4511719-.4072266,2.484375-.1318359,5.0537109-.2675781,7.5820312-.3730469,4.2021484-.1748047,8.4755859-.3037109,12.6074219-.4277344l3.1933594-.0966797c.3212891-.0058594.6396484.0302734.9462891.0683594.1337891.0175781.2636719.0341797.3896484.0458984l.0908203.0078125.0263672.0869141c.0214844.0693359.0390625.1230469.0537109.1660156.0292969.0849609.0488281.1416016.0498047.2080078.0029297.1455078-.0107422.2695312-.0410156.3789062Zm-11.5361328-7.3896484l-.1279297-.5390625.09375-.0478516c.1230469-.0625.2441406-.1318359.3642578-.2001953.265625-.1523438.5400391-.3095703.8388672-.3994141.5019531-.1513672,1.0029297-.3076172,1.5039062-.4648438,1.5380859-.4794922,3.1289062-.9755859,4.7285156-1.3164062,2.4375-.5175781,4.7314453-1.4824219,6.8183594-2.8701172.5771484-.3837891,1.125-.9765625,1.5039062-1.6259766,1.3173828-2.2617188,1.7822266-4.8457031,1.4208984-7.8974609-.6142578-5.1757812-.6132812-10.8457031.0029297-17.3320312l.1962891-2.0527344c.6259766-6.5126953,1.2734375-13.2460938,1.1171875-19.9150391-.1591797-6.7763672-1.4335938-12.8261719-3.8984375-18.4941406-.1386719-.3212891-.2890625-.6376953-.4189453-.9130859-.0605469-.1259766-.1162109-.2441406-.1640625-.3486328l-.0976562-.2119141,1.7226562.1542969,8.3300781.7412109-.0371094.1523438c-.0039062.0166016-.0078125.0410156-.0126953.0712891-.0185547.109375-.0488281.2939453-.1289062.4580078-2.4814453,5.0087891-3.7724609,10.5849609-3.9482422,17.0478516-.0771484,2.8369141-.2978516,5.7167969-.5107422,8.5009766-.1025391,1.328125-.2041016,2.65625-.2910156,3.984375-.3183594,4.8398438-.5146484,10.0175781.2060547,15.0976562.3408203,2.4130859.5351562,4.3759766.6113281,6.1767578.1337891,3.2119141.2714844,6.5322266,1.2558594,9.6943359.8417969,2.7060547,1.8955078,5.4804688,4.6542969,7.0654297,2.2802734,1.3095703,4.6074219,2.1347656,7.1142578,2.5224609,2.4697266.3818359,4.8916016.9667969,7.3623047,1.5830078.5.125.9482422.4287109,1.3818359.7216797.1923828.1308594.3925781.2666016.5908203.3818359l.0898438.0517578-.1962891.7119141-.1044922-.0009766-41.9716797-.4873047Zm102.2861328,10.2412109c-1.0986328,2.2988281-2.3701172,4.6640625-4.7460938,6.1230469l-.3984375.2451172c-1.9228516,1.1835938-3.9111328,2.4091797-6.0537109,3.0947266-3.4892578,1.1191406-7.3388672,2.078125-11.7675781,2.9326172-5.1835938.9980469-8.8027344,3.4257812-11.0625,7.421875-.0595703.1054688-.3740234.6318359-.7392578.6679688-.2197266.0214844-.4384766.0458984-.6591797.0693359-1.0214844.1103516-2.0751953.2255859-3.1005859.1162109-1.0419922-.109375-2.0830078-.3544922-3.0888672-.5917969-.5039062-.1191406-1.0244141-.2412109-1.5380859-.3457031-.9316406-.1835938-1.46875.0126953-1.7558594.6445312-.3710938.8154297.1572266,1.3730469.6660156,1.6982422.7167969.4580078,1.4179688.7744141,2.0849609.9414062,1.4638672.3652344,2.9121094.671875,4.4462891.9960938.5947266.125,1.1923828.2519531,1.7958984.3828125l.1240234.0273438-.0195312.125c-.0791016.515625-.1738281,1.0380859-.2695312,1.5664062-.2089844,1.1513672-.4248047,2.3417969-.4941406,3.5302734-.4296875,7.3300781-.8154297,14.8134766-1.1445312,22.2421875-.2685547,6.0693359-.5048828,12.5625-.7207031,19.8505859-.0117188.4013672-.0253906.8037109-.0380859,1.2050781-.0810547,2.4628906-.1640625,5.0097656.0839844,7.4775391.0634766.625.1015625,1.2695312.1386719,1.8935547.15625,2.6054688.3173828,5.2998047,2.3046875,7.4677734.3027344.3310547.5859375.6904297.8583984,1.0371094.4511719.5732422.9179688,1.1660156,1.4765625,1.625,2.4511719,2.0146484,5.3984375,3.1357422,8.2060547,4.1113281,1.2802734.4433594,2.6025391.8408203,3.8818359,1.2255859.9365234.28125,1.90625.5732422,2.8525391.8808594.4394531.1425781.8535156.3652344,1.2539062.5800781.1826172.0976562.3642578.1953125.5498047.2861328l.3691406.1806641-.4052734.0732422c-.9414062.1689453-1.7871094.2119141-2.5273438.2119141-.2255859,0-.4423828-.0039062-.6484375-.0097656-3.4238281-.0947266-6.8466797-.1923828-10.2705078-.2900391-6.4970703-.1845703-13.2158203-.3759766-19.8242188-.5410156-2.6240234-.0654297-5.2089844-.21875-7.9941406-1.3486328l-.2294922-.0927734.203125-.1425781c.1884766-.1328125.3515625-.265625.5087891-.3945312.3085938-.2519531.5751953-.4697266.8925781-.5517578l.8242188-.2128906c1.7050781-.4414062,3.4677734-.8974609,5.2363281-1.1611328,3.7392578-.5556641,6.7490234-1.3535156,9.2822266-3.4375.4335938-.3564453.7587891-.8857422,1.0458984-1.4042969.7451172-1.3466797.6689453-2.8251953.5957031-4.2558594-.0214844-.4111328-.0429688-.8359375-.0449219-1.2519531-.0039062-.7431641-.0703125-1.5019531-.1337891-2.2363281-.0771484-.8808594-.15625-1.7910156-.1298828-2.6884766.0566406-1.9355469.1591797-3.9023438.2578125-5.8037109.1367188-2.6435547.2783203-5.3779297.3007812-8.0664062.0341797-4.0820312-.0117188-8.2324219-.0556641-12.2470703-.0341797-3.1728516-.0703125-6.453125-.0664062-9.6787109.0048828-5.0732422-.8125-10.1494141-2.4277344-15.0859375-.9814453-3.0019531-2.3242188-6.3554688-5.8466797-8.1669922-.3642578-.1875-.7275391-.3789062-1.0898438-.5693359-.9355469-.4921875-1.9023438-1.0019531-2.8818359-1.4384766-4.3349609-1.9355469-8.7509766-3.8847656-13.0214844-5.7705078-1.8876953-.8339844-3.7753906-1.6669922-5.6621094-2.5019531-2.1621094-.9560547-4.515625-2.2792969-5.5732422-4.84375-1.4951172-3.6308594-1.8691406-7.4599609-2.1484375-11.3916016l-.0097656-.1445312h4.1191406l-.0078125.1425781c-.0751953,1.2802734.1669922,1.5419922,1.6142578,1.7509766,1.7158203.2480469,3.4335938.4873047,5.1513672.7275391,1.0419922.1445312,2.0830078.2900391,3.1240234.4365234.3486328.0498047.6953125.1064453,1.0429688.1640625.6474609.1074219,1.3183594.2177734,1.9794922.2685547,2.0634766.1611328,4.1630859.3085938,6.1933594.4501953,1.8603516.1308594,3.7207031.2607422,5.5800781.4023438,2.0537109.1572266,4.1083984.3251953,6.1621094.4921875,3.3369141.2724609,6.7871094.5546875,10.1835938.7822266,2.5488281.1708984,5.8964844.3642578,9.3134766.3076172,4.5117188-.0722656,8.2685547-.1621094,12.1123047-.6025391,3.8085938-.4375,7.8417969-1.0078125,11.6054688-2.7158203l.1162109-.0527344.0595703.1142578c.5107422.9892578.5097656,1.9931641-.0019531,3.0664062Zm59.7265625,93.7685547c.5263672.1757812,1.0429688.3427734,1.5683594.4541016,2.5996094.5507812,5.2880859,1.1201172,7.9599609,1.6464844,3.0253906.5947266,5.2382812,2.3994141,7.1757812,5.8505859l.1162109.2060547-16.7128906-.3583984-26.1425781-.5615234.0498047-.1689453c.7294922-2.4726562,1.0654297-2.9003906,3.0019531-3.8203125,1.0458984-.4960938,2.1855469-.9589844,3.3896484-1.3769531l.4355469-.1513672c3.40625-1.1816406,6.9296875-2.4033203,9.7832031-4.8417969.9130859-.7792969,1.7744141-1.5146484,1.8808594-2.6533203.0253906-.2802734.0556641-.5625.0849609-.8466797.1552734-1.4970703.3164062-3.0449219.0136719-4.4599609-1.3144531-6.1308594-1.1904297-12.3007812-.9511719-18.0957031.1835938-4.4296875.2587891-8.8808594.3310547-13.1845703.0283203-1.6855469.0205078-3.3994141.0126953-5.0576172-.0048828-1.1416016-.0097656-2.2832031-.0039062-3.4248047.0029297-.5556641.0097656-1.1132812.0166016-1.6699219.0429688-3.6201172.0878906-7.3632812-.9873047-10.9492188-.3291016-1.0976562-.6884766-2.1708984-1.0693359-3.3076172-.171875-.5146484-.3457031-1.0361328-.5205078-1.5683594l-.0986328-.2998047.2851562.1357422c2.7080078,1.296875,5.5400391,1.1435547,8.2041016.8740234l.2070312-.0214844-.0654297.1972656c-.0380859.1171875-.0683594.2158203-.09375.3017578-.0478516.1582031-.0849609.2832031-.1425781.4003906-1.78125,3.5800781-2.7353516,7.6113281-3.0917969,13.0722656-.3388672,5.1591797-.6884766,10.4941406-.7861328,15.8193359-.1103516,5.9599609-.0126953,12.0253906.0810547,17.890625l.0107422.703125c.0292969,1.796875.1171875,3.625.203125,5.3925781.0966797,1.9921875.1972656,4.0527344.2119141,6.0810547.0341797,4.6513672,1.2470703,6.3271484,5.6425781,7.7929688Zm-23.6884766-101.015625c.1621094-.0576172.3183594-.1191406.4726562-.1787109.6972656-.2705078,1.3583984-.5234375,2.1953125-.4169922.6777344.0898438,1.3876953.0849609,2.0722656.0761719.2070312-.0029297.4150391-.0087891.6220703-.0039062,1.1982422.0039062,2.4023438-.0039062,3.6035156-.0107422,2.2998047-.0107422,4.6757812-.0234375,7.0146484.0244141,8.4160156.1748047,16.5244141,1.1640625,25.4931641,2.3408203,1.6279297.2138672,3.2597656.5712891,4.8388672.9169922.7304688.1591797,1.4599609.3193359,2.1914062.4658203l.8378906.1679688-1.5302734.1767578c-3.2539062.3769531-6.3271484.7333984-9.4824219.8378906-4.5498047.1503906-9.203125.1191406-13.578125.0732422-6.6640625-.0693359-13.8642578-.1865234-22.6621094-.3710938-1.2294922-.0253906-2.6455078-.0859375-3.8876953-.4892578-3.5947266-1.1669922-7.2773438-.8271484-10.8369141-.5009766-1.0400391.0957031-2.1142578.1943359-3.171875.2548828-1.2636719.0712891-1.8837891.4804688-1.8955078,1.2509766-.0136719.9677734.9121094,1.2988281,1.8613281,1.5556641l.0917969.0253906c.2646484.0722656.5371094.1474609.8017578.1611328.5527344.0292969,1.1064453.0615234,1.6591797.09375,1.5410156.0898438,3.1337891.1835938,4.6992188.1923828,2.4306641.0107422,4.9042969.0019531,7.2978516-.0078125,3.1386719-.0126953,6.3876953-.0263672,9.5810547.0126953,1.7753906.0214844,3.578125.1328125,5.3212891.2402344,1.3476562.0830078,2.7412109.1689453,4.1113281.2128906,1.6464844.0527344,3.3222656.0664062,4.9423828.0800781,1.5917969.0126953,3.2363281.0263672,4.8544922.0771484,2.1660156.0683594,4.3671875.1630859,6.4960938.2548828,2.6640625.1142578,5.4189453.2333984,8.1289062.3007812,2.5244141.0625,5.1064453.0478516,7.6025391.0322266,1.1416016-.0068359,2.2880859-.0136719,3.4423828-.0136719h.0996094l.0292969.0947266c.4921875,1.5966797-.1542969,2.9619141-.7978516,4.1162109-1.8105469,3.2412109-4.7539062,5.8564453-8.9990234,7.9960938-2.6748047,1.3486328-5.5332031,2.4521484-8.2988281,3.5195312-.8466797.3271484-1.6933594.6542969-2.5351562.9873047-5.1875,2.0585938-10.7636719,4.0878906-16.8642578,4.328125-1.6484375.0644531-3.1503906.3046875-3.4208984,2.4990234l-.0419922.3388672-.2011719-.2763672c-1.6513672-2.2685547-3.7275391-3.3496094-5.5410156-4.1074219-1.9384766-.8095703-3.875-1.6220703-5.8115234-2.4345703-4.5214844-1.8974609-9.1972656-3.859375-13.8125-5.7490234-4.8310547-1.9804688-7.6591797-5.6083984-8.6464844-11.0908203-.2148438-1.1953125-.2890625-2.390625-.3671875-3.65625-.0351562-.578125-.0712891-1.1630859-.1230469-1.7558594l-.0107422-.1318359.1308594-.0136719c.0556641-.0058594.1210938-.0146484.1943359-.0244141.1982422-.0253906.4433594-.0566406.6953125-.0673828,1.4091797-.0615234,2.8193359-.1083984,4.2304688-.1552734,3.2529297-.109375,6.6171875-.2216797,9.9082031-.5136719,2.5595703-.2275391,5.0830078-1.046875,6.9951172-1.7353516Zm-45.1464844-107.3417969c1.3164062-.0361328,1.6298828-.3642578,1.7666016-1.8476562l.0107422-.1220703h.1230469c.6708984,0,1.34375-.0087891,2.0185547-.0185547,1.4541016-.0185547,2.9589844-.0390625,4.4394531.0351562,2.5869141.1328125,5.2148438.2978516,7.7568359.4580078,3.5185547.2226562,7.1572266.4521484,10.7392578.5957031,5.0410156.2041016,10.1699219.3398438,15.1298828.4726562,3.0087891.0800781,6.1201172.1630859,9.1796875.2597656,1.0761719.0341797,2.1660156.1396484,3.21875.2421875.4931641.0478516.9853516.0957031,1.4775391.1357422l.6630859.0556641-.6318359.2070312c-1.0224609.3359375-2.0390625.4794922-3.0224609.6181641l-.2871094.0410156c-3.9140625.5585938-7.4501953.9980469-11.078125.7236328-2.1816406-.1650391-4.3183594-.3037109-6.4726562-.2763672-3.8828125.0625-7.8300781.1503906-11.6474609.2353516-5.6240234.125-11.4404297.2539062-17.1621094.3046875-3.5820312.0380859-7.2363281-.1259766-10.7636719-.2792969-1.1728516-.0507812-2.3457031-.1015625-3.5185547-.1455078-1.5498047-.0585938-3.1230469-.1640625-4.6435547-.265625-.7265625-.0488281-1.453125-.0976562-2.1796875-.1416016-.2402344-.0146484-.4824219-.0380859-.7246094-.0625-.5722656-.0546875-1.1630859-.1152344-1.7177734-.0390625-.2792969.0371094-.5458984.265625-.828125.5078125-.0869141.0751953-.1777344.1523438-.2685547.2246094.0869141.0820312.1708984.1699219.2539062.2568359.2460938.2568359.5019531.5224609.7636719.5673828,1.3789062.2324219,2.8310547.3798828,4.4394531.4492188,1.6845703.0732422,3.3984375.1230469,5.0566406.171875,1.8242188.0527344,3.7109375.1083984,5.5654297.1943359,2.546875.1181641,5.1357422.2607422,7.6386719.3994141,4.1025391.2265625,8.34375.4609375,12.5185547.5917969,7.4208984.2324219,15.5322266.375,24.7978516.4365234,3.1279297.0117188,6.4628906-.1171875,10.8310547-.4472656,1.4052734-.1054688,2.7792969-.3720703,4.2333984-.6542969.6494141-.1259766,1.3212891-.2558594,1.9990234-.3710938l.1572266-.0273438v.1601562c0,.1884766.0097656.375.0195312.5585938.0224609.40625.0429688.7910156-.0390625,1.1689453-.7460938,3.4345703-2.4042969,6.1660156-4.9296875,8.1162109-3.6650391,2.8330078-7.2509766,4.8212891-10.9628906,6.0800781-1.5722656.5332031-3.1630859,1.0976562-4.7011719,1.6445312-1.6611328.5898438-3.3789062,1.1992188-5.078125,1.7714844-3.4853516,1.1738281-5.9638672,2.7695312-7.7988281,5.0224609-.0595703.0732422-.1523438.0830078-.2265625.0908203-.0214844.0019531-.0419922.0039062-.0605469.0087891l-.0517578.0117188-.0458984-.0263672c-.6220703-.3574219-1.2480469-.5449219-1.8359375-.5253906-.5615234.0078125-1.1337891.0605469-1.6884766.1103516-.609375.0556641-1.2402344.1132812-1.8632812.1132812h-.0419922c-.5097656-.0019531-1.0224609-.0878906-1.5185547-.171875-.3867188-.0644531-.7861328-.1318359-1.1777344-.1572266-.625-.0478516-1.4443359.1142578-1.8632812,1.0654297-.3310547.7568359-.1425781,1.4726562.5332031,2.015625.5625.4541016,1.2480469.8417969,1.9833984,1.1220703,1.8574219.7080078,3.5146484.6943359,5.21875-.0419922l.2695312-.1162109-.0869141.2802734c-.0722656.2304688-.1347656.4238281-.1894531.59375-.0976562.3046875-.171875.5322266-.2314453.7626953-.1845703.7011719-.3886719,1.4121094-.5869141,2.0986328-.4482422,1.5585938-.9121094,3.1708984-1.1689453,4.7832031-1.0244141,6.4394531-1.5644531,12.8154297-1.6044922,18.9511719-.0048828.8134766-.0117188,1.6269531-.0185547,2.4404297-.0625,7.8476562-.1279297,15.9638672,1.0556641,23.9023438.4208984,2.8203125.5693359,5.1171875.46875,7.2285156-.1337891,2.7949219.7207031,4.7529297,2.6113281,5.9833984,2.0537109,1.3378906,4.1201172,2.3486328,6.1425781,3.0029297,1.9775391.6376953,4.0644531,1.0742188,6.0830078,1.4951172.8945312.1865234,1.8203125.3798828,2.7246094.5878906.3535156.0820312.7041016.1748047,1.0556641.2675781l.5732422.1494141-.0673828.5908203-.1123047.0078125c-1.1777344.0800781-2.3759766.1914062-3.5361328.2988281-2.2636719.2089844-4.5957031.4248047-6.9023438.4248047-.3066406,0-.6132812-.0039062-.9189453-.0117188-6.2470703-.1669922-12.5927734-.5078125-18.7304688-.8369141-2.3662109-.1269531-4.7324219-.2539062-7.0996094-.3720703-.4072266-.0205078-.8173828-.0810547-1.2128906-.1396484-.1835938-.0263672-.3662109-.0537109-.5498047-.0771484l-.1083984-.0136719-.0595703-.6845703.1132812-.0263672c.3125-.0732422.6230469-.1503906.9345703-.2265625.6738281-.1660156,1.3720703-.3378906,2.0664062-.4716797,1.3085938-.2509766,2.6191406-.4912109,3.9296875-.7314453,1.390625-.2548828,2.7802734-.5097656,4.1679688-.7783203,1.5898438-.3066406,2.7011719-1.28125,3.4970703-3.0644531,1.0556641-2.3662109,1.1503906-4.9101562,1.2421875-7.3701172.0205078-.5292969.0400391-1.0566406.0683594-1.5820312.1865234-3.3876953.265625-6.8398438.3417969-10.1777344.0605469-2.6806641.1230469-5.453125.2421875-8.1777344.1660156-3.8320312.4169922-7.7236328.6582031-11.4882812.1298828-2.0146484.2587891-4.0302734.3769531-6.0458984.4814453-8.2675781-.6875-14.8544922-3.6796875-20.7285156-1.8964844-3.7236328-4.8046875-6.4003906-9.1494141-8.4238281-6.5185547-3.0341797-13.4433594-6.2949219-20.1308594-9.859375-5.5634766-2.9658203-6.4492188-8.3867188-6.5791016-13.8046875l-.0029297-.1376953h.1376953c.9980469,0,1.9833984.0009766,2.9619141.0029297,2.1386719.0019531,4.2392578.0039062,6.3388672-.0058594l1.5673828-.0078125c3.0800781-.015625,6.2646484-.03125,9.3945312-.1162109Zm11.4570312-104.9453125l-.0371094.2246094c-.3945312,2.4238281-.7685547,4.7128906-2.1835938,6.5292969-2.7822266,3.5703125-5.6337891,6.2001953-8.7197266,8.0410156-.8144531.484375-1.7539062.7861328-2.6630859,1.078125-.2871094.0927734-.5732422.1845703-.8554688.28125-.625.2158203-1.2666016.4160156-1.8876953.609375-.7773438.2421875-1.5820312.4921875-2.3574219.7753906l-.5498047.2001953c-1.8837891.6845703-3.8310547,1.3935547-5.6787109,2.2275391-.8408203.3798828-1.6376953.8974609-2.4082031,1.3994141-.4082031.2646484-.8310547.5390625-1.2568359.7919922l-.1455078.0878906c-.3134766.1923828-.6669922.4082031-1.015625.4082031h-.0224609l-.0498047-.0009766c-3.0478516-.0800781-6.1992188-.1621094-9.1621094-1.3164062-.7578125-.2958984-1.5888672-.4638672-2.3935547-.6269531-.1845703-.0371094-.3691406-.0742188-.5537109-.1132812-1.6044922-.3378906-2.8291016.0302734-3.1191406.9443359-.3095703.9707031.3837891,1.8710938,1.953125,2.5371094,2.6396484,1.1201172,5.0966797,1.578125,7.5146484,1.4042969,1.0771484-.0771484,2.1679688-.1708984,3.2226562-.2626953.4628906-.0400391.9238281-.0791016,1.3837891-.1181641l.2021484-.0166016-.0634766.1933594c-.28125.8613281-.5742188,1.7138672-.8662109,2.5634766-.6240234,1.8164062-1.2705078,3.6943359-1.7558594,5.5664062-1.6660156,6.4160156-2.0859375,13.0058594-2.3740234,19.2060547-.2714844,5.8554688-.3730469,11.8164062-.4707031,17.5810547-.0419922,2.4804688-.0849609,4.9619141-.1396484,7.4414062-.1279297,5.7382812.625,9.9990234,2.4423828,13.8154297.7421875,1.5585938,1.5117188,2.734375,2.8574219,3.4023438,2.1435547,1.0644531,4.2714844,1.9853516,6.3251953,2.7373047,1.6494141.6044922,3.3544922,1.1494141,5.0039062,1.6757812,1.1416016.3652344,2.3222656.7421875,3.4765625,1.1357422.5126953.1757812.9941406.4453125,1.4589844.7050781.2158203.1201172.4316406.2412109.6503906.3525391l.109375.0566406-.2216797.5429688-.5458984-.0351562c-.4208984-.0273438-.8417969-.0556641-1.2626953-.0810547-1.3691406-.0830078-2.7392578-.171875-4.1083984-.2607422-3.0136719-.1953125-6.1289062-.3974609-9.1953125-.5263672-3.7744141-.1591797-7.6132812-.2871094-11.3251953-.4101562-3.3242188-.1103516-6.7617188-.2246094-10.1425781-.3613281-1.1904297-.0478516-2.3945312-.2041016-3.5585938-.3554688-.5410156-.0703125-1.0820312-.140625-1.6240234-.2011719l-.3818359-.0419922.3242188-.2060547c2.7226562-1.7246094,5.6621094-3.4716797,9.0185547-4.2304688,4.734375-1.0693359,7.0957031-3.5273438,7.4326172-7.7333984.1474609-1.8242188.4677734-3.6669922.7773438-5.4482422.3886719-2.2314453.7900391-4.5380859.8476562-6.8134766.1533203-6.0009766.0449219-12.1103516-.0585938-18.0185547-.0371094-2.0996094-.0742188-4.1982422-.1005859-6.2958984-.0683594-5.4951172-1.6484375-10.6748047-3.5507812-16.3916016-.5546875-1.6660156-1.4433594-3.7568359-3.4082031-5.1445312-.6367188-.4501953-1.2705078-.9033203-1.9052734-1.3564453-1.5556641-1.1123047-3.1660156-2.2617188-4.7861328-3.3369141-3.7578125-2.4912109-7.609375-4.9794922-11.3339844-7.3867188l-1.5976562-1.0322266c-2.6601562-1.7197266-4.9980469-4.0351562-7.3554688-7.2871094-1.6816406-2.3193359-2.5654297-5.0332031-2.7011719-8.2958984l-.0068359-.1601562.1591797.0205078c10.828125,1.390625,21.734375,1.2363281,32.2783203,1.0869141,1.6738281-.0234375,3.3466797-.0478516,5.0185547-.0654297,2.7382812-.0283203,5.5273438-.0175781,8.2246094-.0068359,9.5185547.0419922,19.3613281.0771484,29.03125-1.6513672l.1875-.0332031Zm-58.6699219-4.5957031c4.9648438-.34375,10.0322266-.4003906,14.9326172-.4560547l.5263672-.0058594c10.9951172-.1259766,22.8476562-.2177734,36.234375-.2792969,1.1015625.0029297,2.2197266.1318359,3.2998047.2636719.5068359.0625,1.0136719.1240234,1.5205078.1728516l.3671875.0341797-.3027344.2109375c-.4267578.2949219-.8261719.3232422-1.2119141.3505859l-.0458984.0039062c-1.0439453.0751953-2.109375.1279297-3.1396484.1787109-2.2578125.1113281-4.5917969.2255859-6.8398438.5947266-8.5888672,1.4130859-17.8017578,2.0917969-29.8720703,2.2001953-.3759766.0039062-.7539062-.0019531-1.1347656-.0068359-.8271484-.0117188-1.6826172-.0234375-2.5097656.0595703-2.2714844.2285156-4.5556641.3154297-6.8349609.3154297-3.6894531,0-7.3691406-.2275391-10.9726562-.4501953l-1.6523438-.1015625c-1.2070312-.0732422-2.4228516-.2705078-3.5986328-.4609375-.5498047-.0898438-1.0996094-.1787109-1.6494141-.2558594l-.0986328-.0136719-.0800781-.4833984.1171875-.0322266c.1035156-.0283203.2070312-.0605469.3105469-.0927734.2275391-.0703125.4638672-.1435547.7070312-.1777344,1.1767578-.1621094,2.3720703-.34375,3.5283203-.5205078,2.7460938-.4189453,5.5869141-.8525391,8.3994141-1.0478516Z" stroke-width="0"/>
      <path d="m364.2183025,14.293363c-2.0029297.6044922-3.9287109,1.4296875-5.5488281,2.1582031-1.484375.6679688-2.9326172,1.4824219-4.3330078,2.2685547l-1.0576172.5927734c-2.1015625,1.1777344-4.2744141,2.3945312-6.3505859,3.6826172-1.5488281.9609375-3.1503906,1.953125-5.1757812,1.953125-.0410156,0-.0810547.0009766-.1230469-.0009766-.3398438,0-.7900391.1181641-.9433594.3154297-.6152344.7998047-1.4140625.78125-2.1894531.7792969-.1162109-.0019531-.2353516-.0029297-.3574219-.0019531-3.5380859.0332031-7.1347656.0966797-10.6142578.1591797-1.3779297.0244141-2.7558594.0488281-4.1347656.0712891-.2832031.0058594-.5654297.0039062-.8486328.0019531l-.5068359-.0009766-.0761719-.5498047.0849609-.0439453c.5791016-.2988281,1.1630859-.5888672,1.7480469-.8789062,1.3115234-.6513672,2.6679688-1.3251953,3.9355469-2.0878906,1.34375-.8085938,2.6181641-1.78125,3.8515625-2.7207031.2578125-.1972656.5166016-.3945312.7753906-.5898438.2939453-.2216797.6660156-.6220703.75-1.0214844.1074219-.5136719.1035156-1.1640625-.1464844-1.4609375-.2490234-.296875-.9091797-.4345703-1.453125-.4394531h-.0058594c-.3769531,0-.8017578.2558594-1.1757812.4814453l-.0341797.0205078c-.1748047.1064453-.3525391.2109375-.5292969.3164062-.7519531.4453125-1.5292969.90625-2.2001953,1.4589844-4.6171875,3.8037109-10.1640625,4.6923828-14.9814453,5.0615234-3.1328125.2402344-3.7441406,1.3964844-3.8193359,3.5869141-.0263672.7568359-.0068359,1.5234375.0585938,2.2773438.3183594,3.7041016-1.7480469,7.0380859-5.265625,8.4931641-1.0742188.4443359-1.9882812.4472656-2.6416016.0087891-.6171875-.4130859-.9414062-1.1875-.9394531-2.2373047.0019531-.9355469.1972656-1.8798828.3857422-2.7919922l.0595703-.2890625c.1484375-.7275391.3232422-1.4619141.4931641-2.171875.171875-.7197266.3496094-1.4638672.4990234-2.1982422.1044922-.5146484.1298828-1.0927734.0742188-1.6748047-.0644531-.6621094-.3789062-1.4628906-1.515625-1.5117188-.8769531-.0527344-1.4570312.4541016-1.5400391,1.3183594-.2675781,2.8203125-.4794922,5.6943359-.6835938,8.4736328l-.0732422,1c-.0214844.2880859.0058594.5810547.0380859.9199219.015625.1679688.0322266.3447266.0449219.5332031l.0253906.4042969-6.2929688-7.3720703c-.015625.0029297-.03125.0019531-.0498047-.0039062l-.0820312-.0214844-.0175781-.0830078c-.0253906-.1279297.1992188-.3027344.2246094-.3222656,1.1523438-.8691406,2.3085938-1.7324219,3.4648438-2.5966797,2.7236328-2.0332031,5.5390625-4.1367188,8.2451172-6.2792969,1.015625-.8037109,1.828125-1.9023438,2.6132812-2.9648438l.3125-.4228516c3.2626953-4.3691406,6.3818359-6.9902344,10.1132812-8.4970703,1.5390625-.6220703,3.1894531-1.0419922,4.7851562-1.4482422l.6328125-.1621094c1.3837891-.3554688,2.6865234-.6904297,3.7382812-1.6875.3828125-.3623047,1.0449219-.5,1.5800781-.5800781,3.0390625-.4511719,6.0810547-.8916016,9.1230469-1.3310547,2.4091797-.3486328,4.8183594-.6972656,7.2265625-1.0517578,1.1474609-.1689453,2.0585938-.3544922,2.8681641-.5830078.3554688-.0996094.9863281-.3320312,1.2138672-.765625.1015625-.1933594.1113281-.4042969.0292969-.6425781-.1669922-.4912109-.9638672-1.0898438-1.46875-1.1044922-2.4707031-.0722656-4.5361328-.0644531-6.5703125.2158203-5.6513672.7753906-13.0800781,1.9482422-20.4169922,4.1533203-4.5087891,1.3544922-8.5546875,4.0537109-12.7333984,8.4951172l-.1601562.1689453c-.4716797.4990234-.9599609,1.0146484-1.3271484,1.5820312-2.3984375,3.7001953-5.7929688,6.53125-9.0751953,9.2695312-.8369141.6972656-1.7021484,1.4189453-2.5361328,2.1425781-1.0292969.8945312-2.3203125,1.5224609-3.5693359,2.1298828-.6796875.3310547-1.3828125.6728516-2.0332031,1.0527344-.4775391.2792969-.9326172.6181641-1.3730469.9453125-.4042969.3017578-.8242188.6142578-1.2636719.8828125-.4570312.2783203-1.0458984.4609375-1.5751953.4873047-4.9208984.2353516-9.3554688.5107422-13.8085938,1.4960938-1.6445312.3632812-3.3203125.7167969-4.9404297,1.0585938-7.1904297,1.5166016-14.625,3.0849609-21.5429688,5.9794922-4.6728516,1.9550781-9.9697266,4.1708984-15.0654297,6.6035156-4.7421875,2.2617188-9.890625,4.1035156-15.7382812,5.6279297-7.2099609,1.8798828-14.4121094,3.6533203-21.4052734,5.2695312-5.1748047,1.1972656-10.4677734,2.28125-15.5869141,3.3300781l-2.8779297.5898438c-.9921875.2041016-2.0126953.3417969-2.9990234.4746094-.703125.0947266-1.4296875.1923828-2.1386719.3134766-3.4765625.59375-6.0888672,1.7363281-8.21875,3.5957031-.3007812.2636719-.8496094.2871094-1.3994141.2734375-1.4492188-.0205078-2.5166016.4824219-2.9570312,1.4189453-.2451172.5205078-.2607422,1.0195312-.0429688,1.3691406.1943359.3115234.5673828.4863281,1.0498047.4941406,1.1630859.0175781,1.5107422.7041016,1.7666016,1.4052734.9111328,2.4980469.7539062,5.0761719.6005859,7.5703125-.0205078.3349609-.0410156.6699219-.0585938,1.0058594-.0996094,1.8544922.1865234,3.7646484.4628906,5.6123047l.0341797.2265625c.1621094,1.0927734,1.2119141,1.7138672,2.6894531,1.6005859,1.5507812-.1269531,3.1240234-.3251953,4.6455078-.5166016.9726562-.1220703,1.9775391-.2490234,2.96875-.3554688.6816406-.0742188,1.3632812-.1591797,2.0449219-.2441406,1.8310547-.2285156,3.7236328-.4638672,5.5908203-.4677734,10.3525391-.0244141,18.875.0458984,26.8144531.2148438,10.6220703.2275391,21.3115234,1.8896484,30.4970703,3.4306641,8.5947266,1.4414062,18.3359375,3.0751953,27.96875,3.4941406,6.0712891.2626953,13.6279297.5917969,20.8291016-.5761719.4892578-.0800781.9492188-.1201172,1.375-.1201172.3183594,0,.6181641.0224609.8964844.0673828.53125.0839844,1.0302734.4443359,1.4697266.7617188l.0419922.0292969c.3583984.2587891.7148438.5214844,1.0712891.7841797,2.6630859,1.9628906,5.4150391,3.9921875,9.0791016,3.9921875.0664062,0,.1328125-.0009766.1992188-.0019531,1.7441406-.0341797,2.9335938-.4521484,3.6376953-1.2753906.6757812-.7910156.8984375-1.9492188.6787109-3.5410156-.0576172-.4257812-.0078125-.7138672.1572266-.9052734.1699219-.1962891.4414062-.28125.9072266-.2851562.4453125-.0039062.8916016-.0195312,1.3378906-.0351562.9208984-.0341797,1.8740234-.0664062,2.8027344.0097656.65625.0537109,1.4443359.4550781,1.8320312.9345703,1.2148438,1.4980469,2.6953125,2.5751953,4.5234375,3.2910156,1.8046875.7089844,3.2548828.7978516,4.4296875.2724609,1.2753906-.5673828,2.2597656-1.8681641,3.0966797-4.09375.0361328-.0957031.0458984-.2089844.0576172-.3291016.0146484-.1582031.0292969-.3222656.1064453-.4697266.0390625-.0761719.0810547-.1601562.125-.2480469.2304688-.4677734.46875-.9511719.78125-.9638672.0126953,0,.0253906-.0009766.0380859-.0009766.4794922,0,.9980469.3662109,1.4453125.7265625.3544922.2851562.6875.6044922,1.0107422.9130859.390625.3730469.7939453.7587891,1.2314453,1.0810547,1.2294922.9072266,3.0273438.9990234,4.5820312.2353516,1.3554688-.6679688,2.1806641-1.8339844,2.2070312-3.1210938.0195312-.9814453.8349609-.9658203,1.2753906-.9550781.6181641.0117188,1.2363281.0292969,1.8544922.046875,1.2861328.0380859,2.6142578.0712891,3.9228516.0576172,4.4736328-.0615234,9.6494141-.4589844,14.1259766-2.9472656,6.9082031-3.8398438,10.3359375-8.7509766,10.4804688-15.0136719l.0078125-.3212891c.0429688-1.8505859.0878906-3.7646484-.0195312-5.6357422-.0595703-1.0498047-.1132812-2.0996094-.1669922-3.1503906-.1884766-3.7070312-.3828125-7.5400391-.8691406-11.2705078-.7871094-6.0527344-2.5439453-11.5410156-5.2197266-16.3115234-2.0390625-3.6357422-5.2480469-5.9648438-9.5361328-6.9228516l-.0849609-.0185547c-.203125-.0449219-.4121094-.0898438-.6132812-.1582031-.0947266-.0322266-.1669922-.0966797-.2363281-.1591797-.0292969-.0263672-.0605469-.0537109-.09375-.0800781l-.0859375-.0654297.0458984-.0976562c.0136719-.0302734.0244141-.0644531.0351562-.0976562.03125-.0947266.0664062-.2021484.1630859-.2578125.8037109-.4599609,1.6044922-.9228516,2.4052734-1.3867188,2.2382812-1.2949219,4.5517578-2.6328125,6.8837891-3.8496094.8369141-.4375,1.7880859-.6796875,2.7089844-.9140625.4394531-.1123047.8935547-.2285156,1.3271484-.3632812.5371094-.1669922,1.078125-.3251953,1.6201172-.4824219,1.3144531-.3837891,2.6728516-.7792969,3.9423828-1.3115234,1.4833984-.6230469,2.0664062-1.8642578,1.7724609-2.703125-.2871094-.8232422-1.5400391-1.3857422-3.1347656-.9042969Zm-65.7988281,25.1962891c.4550781.0703125.9082031.1728516,1.3466797.2714844.9453125.2148438,1.8378906.4189453,2.6826172.2978516,4.1386719-.5810547,6.9501953-2.6699219,8.3583984-6.2089844.2255859-.5664062.3847656-1.1728516.5400391-1.7597656.0673828-.2548828.1347656-.5097656.2070312-.7626953.5869141-2.0498047.6396484-2.0839844,2.7529297-2.0273438l.3330078.0097656c.4716797.015625.9599609.0302734,1.4355469.0039062l1.9804688-.1113281c3.9482422-.2226562,8.03125-.4521484,12.0429688-.7265625,1.0019531-.0693359,1.7695312.0908203,2.2275391,1.0996094.3535156.7773438.7519531,1.5576172,1.1367188,2.3125.7578125,1.4833984,1.5410156,3.0166016,2.0253906,4.6132812,2.6787109,8.8125,4.2822266,16.8076172,4.9013672,24.4433594.3935547,4.8652344.4951172,10.0673828-1.4160156,15.1425781-.171875.4580078-.6103516,1.1796875-1.1132812,1.2890625-.7792969.1689453-1.5595703.3457031-2.3388672.5214844-2.7871094.6298828-5.6689453,1.28125-8.5449219,1.5888672-5.3925781.5771484-10.8886719,1.0273438-16.2041016,1.4638672-2.6650391.2177734-5.4199219.4443359-8.1279297.6826172-.0947266.0087891-.1826172.0126953-.2646484.0126953-.3515625,0-.5859375-.078125-.7275391-.2402344-.2080078-.2382812-.1787109-.6054688-.0703125-1.0830078.8271484-3.6435547,1.1337891-7.3144531.9111328-10.9130859-.140625-2.2695312-.0664062-4.0615234.2314453-5.640625.4677734-2.4775391-.1425781-4.5917969-1.8652344-6.4599609-1.3642578-1.4804688-1.9296875-3.2529297-1.7275391-5.4169922.0996094-1.0820312.2304688-2.3378906.5039062-3.5361328.3837891-1.6757812.3427734-3.0888672-.1279297-4.4453125-.3544922-1.0166016-.6337891-2.046875-.9052734-3.0429688-.1123047-.4130859-.2216797-.8173828-.3339844-1.2080078l-.0576172-.2021484.2080078.0322266Zm-78.3066406,38.3193359c-.1162109.9941406-.2363281,2.0214844-.3105469,3.0341797-.0390625.5292969-.1621094.8505859-.3984375,1.0410156-.2441406.1962891-.5966797.2470703-1.1660156.1660156-.7265625-.1025391-1.453125-.2138672-2.1796875-.3251953-2.1953125-.3369141-4.4658203-.6845703-6.7041016-.7675781-7.3867188-.2734375-14.90625-.3671875-22.1767578-.4570312l-.2382812-.0029297c-1.4384766-.0117188-2.9101562.0478516-4.3300781.1113281-1.1328125.0507812-2.3037109.1035156-3.4560547.1132812-5.0048828.0439453-10.0488281,1.1210938-16.3525391,3.4912109-.4492188.1689453-.9296875.2792969-1.4384766.3955078-.2509766.0576172-.5146484.1181641-.7949219.1894531l-.2792969.0712891.1240234-.2597656c.2285156-.4785156.4619141-.90625.6875-1.3193359.4433594-.8144531.8271484-1.5166016.9775391-2.2587891.7578125-3.7353516.5302734-7.5283203-.6777344-11.2734375l-.0341797-.1044922c-.3222656-.9960938-.4833984-1.4970703-.2675781-1.8300781.2255859-.3496094.8037109-.4140625,1.9550781-.5419922.3730469-.0419922.7470703-.0712891,1.1210938-.0996094.2548828-.0195312.5087891-.0390625.7626953-.0625,1.0898438-.1035156,2.1796875-.203125,3.2705078-.3027344,2.4697266-.2255859,5.0244141-.4589844,7.53125-.7275391,10.8330078-1.1621094,21.5253906-3.5371094,31.7783203-7.0595703,1.90625-.6542969,3.8017578-1.4404297,5.6357422-2.2011719.4873047-.2021484.9755859-.4052734,1.4648438-.6054688.4316406-.1777344.7519531-.2070312,1.0048828-.09375.2509766.1103516.4384766.3574219.5908203.7773438.4443359,1.2255859.9755859,2.4394531,1.4882812,3.6132812.4189453.953125.3623047,1.828125-.1884766,2.9267578-2.2099609,4.4121094-1.5654297,7.28125,2.1572266,9.5947266.4306641.2675781.8046875,1.0126953.7685547,1.5322266-.0732422,1.0810547-.2011719,2.1757812-.3251953,3.2353516Zm17.0820312-7.8154297c-.25.8300781-.2773438,1.7490234-.3046875,2.6376953-.0068359.2050781-.0126953.4091797-.0214844.6123047-.0195312.4306641.0029297.8769531.0253906,1.3085938.0332031.6660156.0673828,1.3554688-.0478516,2.0175781-.4462891,2.5429688-1.0380859,5.0107422-1.6103516,7.2988281-.0908203.3642578-.7275391.8164062-1.1181641.8164062-.0234375,0-.0458984-.0009766-.0673828-.0048828-3.2871094-.5175781-6.7851562-1.1269531-10.6943359-1.8632812-.21875-.0419922-.4814453-.3105469-.6279297-.5556641-.1064453-.1777344-.1425781-.3232422-.1083984-.4326172.7685547-2.4511719.3808594-4.9355469.0058594-7.3369141l-.0878906-.5664062c-.0341797-.2226562-.0244141-.4462891-.0146484-.6425781.0029297-.0791016.0068359-.1533203.0068359-.2207031v-.1923828l.1806641.0654297c.3671875.1347656.7197266.2988281,1.0595703.4580078.6953125.3242188,1.3623047.6396484,1.9492188.5800781,1.4023438-.1210938,2.8105469-.4863281,4.1728516-.8408203.4541016-.1171875.9072266-.2353516,1.3623047-.3447266.2119141-.0507812.4726562-.2529297.5244141-.4072266.3613281-1.0595703.6943359-2.1484375,1.0175781-3.2011719l.3037109-.9892578c.0449219-.1455078.0800781-.2978516.1152344-.4511719.0791016-.3496094.1621094-.7119141.3671875-1.0019531.7460938-1.0546875.8896484-1.9150391.4794922-2.875-.2529297-.5927734-.3007812-1.2314453-.296875-1.6630859.0087891-1.0546875-.4902344-1.8984375-1.5703125-2.6533203-.8505859-.5947266-1.5888672-.5947266-2.3261719-.0039062-.1992188.1572266-.5908203.1533203-1.1914062-.0166016-.4677734-.1318359-.9355469-.2890625-1.3886719-.4414062-.7519531-.2519531-1.5302734-.5136719-2.3134766-.6611328-.7802734-.1474609-1.4433594-.0332031-1.9082031.3369141-.4794922.3828125-.75,1.0292969-.7822266,1.8691406-.0107422.2900391-.046875.5810547-.0820312.8623047-.0166016.1328125-.0332031.2666016-.0478516.3994141l-.0117188.1103516-.4472656.0429688-.0449219-.0693359c-.0341797-.0527344-.0722656-.1054688-.1103516-.1572266-.0898438-.1230469-.1826172-.25-.2392578-.3984375l-.3769531-.9873047c-.640625-1.6757812-1.3037109-3.4091797-1.8935547-5.1347656-.109375-.3222656.2236328-1.0039062.5664062-1.1582031,1.7421875-.7832031,3.5263672-1.5507812,5.2509766-2.2929688,1.1611328-.4990234,2.3212891-.9980469,3.4785156-1.5048828.8574219-.3789062,1.4443359-.2177734,1.9511719.5351562l.2460938.3642578c1.5009766,2.2265625,3.0517578,4.5283203,4.6523438,6.7392578,2.6787109,3.703125,3.3388672,7.6328125,2.0185547,12.0146484Zm-12.3193359-7.9814453c-.1416016-.3310547-.1962891-.6943359-.2490234-1.0449219-.0234375-.1552734-.046875-.3115234-.0771484-.4638672l-.0332031-.1621094.1660156.0009766c.1728516.0009766.3457031.0009766.5166016-.0009766.4189453-.0009766.8525391-.0048828,1.2802734.0283203.2988281.0234375.5888672.1748047.8212891.296875l.2041016.1074219c.7373047.3935547,1.3730469.7304688,2.1416016.109375.2001953-.1650391.6357422.0048828.6865234.0253906.9550781.3857422,1.6992188,1.1201172,2.0947266,2.0673828.4052734.9677734.4033203,2.0410156-.0048828,3.0205078-.1259766.3027344-.1894531.6269531-.2568359.9697266-.0644531.3251953-.1308594.6621094-.2558594.9775391-.1748047.4423828-.5058594.9677734-.9121094,1.1152344l-.1308594.046875c-.5869141.2128906-.9101562.3291016-.9853516.5-.0791016.1816406.0722656.5410156.3466797,1.1943359l.015625.0361328c.0947266.2226562.1503906.6503906-.0263672.8613281-.1679688.2021484-.5703125.2919922-.8505859.2617188h-.0009766c-.6494141-.0693359-1.3037109-.1708984-1.9375-.2685547-.2070312-.0322266-.4140625-.0644531-.6220703-.0947266l-.2597656.5400391-.1328125-.1064453c-.1533203-.1240234-.3408203-.2441406-.5224609-.359375-.4238281-.2695312-.8623047-.5488281-.9912109-.9472656-.4189453-1.2851562-.7285156-2.7402344-.9462891-4.4472656-.0771484-.6074219.1220703-1.3867188.4960938-1.9394531.5361328-.7929688.7949219-1.4580078.4257812-2.3242188Zm73.5263672,32.6787109c-.1591797.2177734-.4355469.3349609-.7822266.3349609-.0322266,0-.0644531-.0009766-.0976562-.0029297-1.1826172-.0712891-2.3994141-.1435547-3.4804688-.5488281-.8789062-.328125-1.7050781-.8291016-2.5800781-1.3583984-.4082031-.2480469-.8310547-.5039062-1.2880859-.7617188l-.2431641-.1367188.2587891-.1054688c.2285156-.0927734.3876953-.1640625.5048828-.2167969.1894531-.0859375.2851562-.1289062.3955078-.1318359l1.1259766-.0361328c1.5664062-.0517578,3.1894531-.1054688,4.7763672-.0771484.3125.0058594.6699219.3056641,1.0917969.9189453.140625.2050781.1943359.453125.2460938.6933594.03125.1503906.0625.2929688.1123047.4238281.1982422.515625.0869141.8310547-.0400391,1.0048828Zm19.4472656-2.8603516c-.0253906.2109375-.0527344.4472656-.0800781.7099609-.0283203.2744141-.3935547.5566406-.5048828.6367188-.1025391.0732422-.4296875.2919922-.6953125.2919922-.0302734,0-.0605469-.0029297-.0888672-.0087891-1.3642578-.3046875-2.7089844-.9804688-4.1113281-2.0664062l-.0595703-.046875.0615234-.5244141.0976562-.0175781c.3193359-.0576172.6376953-.1171875.9570312-.1767578.7177734-.1347656,1.4609375-.2734375,2.1953125-.3896484,1.3027344-.2070312,1.8427734-.28125,2.1269531-.0097656.2597656.25.2070312.7021484.1015625,1.6015625Zm9.4980469-.7666016l-1.3320312-1.6298828,2.3349609-.828125.5898438.7167969-1.5927734,1.7412109Zm27.1601562-53.2646484c2.0166016,4.8828125,3.2519531,10.0039062,4.2871094,14.8105469.4121094,1.9140625.3984375,3.9462891.3222656,5.8564453-.0878906,2.2207031-.2636719,4.4746094-.4335938,6.6533203-.0986328,1.2705078-.2001953,2.5839844-.2841797,3.8769531l-.0205078.3183594c-.1962891,3.0273438-.3984375,6.1572266-2.0332031,8.9716797-.8085938,1.3925781-1.7363281,2.2294922-3.0087891,2.7128906-1.3701172.5205078-2.7314453,1.1367188-4.0478516,1.7324219-.6162109.2783203-1.2324219.5576172-1.8525391.828125l-.1582031.0712891c-.2763672.125-.5625.2539062-.8642578.3037109-1.4970703.2451172-2.9921875.5039062-4.4873047.7617188-3.6738281.6337891-7.4716797,1.2900391-11.234375,1.7333984-3.4492188.40625-6.9794922.6191406-10.3935547.8251953-1.5742188.0947266-3.2011719.1933594-4.7998047.3095703-1.1474609.0830078-2.3154297.1884766-3.4443359.2900391-2.34375.2109375-4.7675781.4287109-7.1572266.4667969-6.5576172.1054688-13.0849609.578125-19.4003906,1.4042969-1.4931641.1953125-3.0068359.2939453-4.5224609.2939453-.8476562,0-1.6953125-.03125-2.5410156-.0917969-1.8964844-.1376953-3.8115234-.4121094-5.6640625-.6777344-1.2910156-.1855469-2.6269531-.3769531-3.9443359-.5205078-5.1689453-.5625-10.4267578-1.1142578-15.5107422-1.6484375-3.7529297-.3935547-7.5058594-.7871094-11.2578125-1.1894531-.8339844-.0888672-1.2431641-.1435547-1.4091797-.40625-.1669922-.2626953-.0351562-.6416016.2265625-1.3955078l.0244141-.0673828c1.4599609-4.1953125,1.0585938-7.734375-1.2294922-10.8212891-.2353516-.3183594-.1660156-1.0087891.0546875-1.3291016,1.6328125-2.3720703,2.3603516-4.7431641,2.1621094-7.0498047-.2919922-3.4052734-1.2167969-7.5810547-5.8056641-9.6591797-.4599609-.2089844-.7734375-.7841797-1.0439453-1.3759766-.2441406-.53125-.4599609-1.0839844-.6689453-1.6181641-.2705078-.6933594-.5507812-1.4091797-.8925781-2.078125l-.0957031-.1875c-.3066406-.5976562-.4599609-.8974609-.3613281-1.1611328.1025391-.2753906.4355469-.4082031,1.1650391-.7011719,13.0498047-5.2333984,25.0087891-9.1787109,36.5595703-12.0615234,6.0273438-1.5039062,12.0751953-2.3818359,17.9746094-2.6083984.0175781-.0009766.0361328-.0009766.0546875-.0009766.4716797,0,1.1425781.2265625,1.4550781.6142578,2.2705078,2.8095703,4.0839844,6.0292969,5.390625,9.5673828.7988281,2.1572266,1.5419922,4.6787109.25,7.3007812-.5234375,1.0605469-.6308594,2.3935547-.6660156,3.3027344-.0898438,2.3125.8837891,4.3603516,2.9765625,6.2607422.9101562.8261719,1.2275391,1.6816406,1.0292969,2.7753906-.2353516,1.3027344-.4101562,2.4892578-.5332031,3.6279297-.4882812,4.5058594-.9697266,9.0878906-1.4345703,13.5195312l-.3066406,2.9130859c-.0058594.0546875-.0146484.1103516-.0234375.1679688-.0244141.1591797-.0517578.3388672.0009766.4316406.0810547.140625.1582031.2939453.2373047.4492188.2460938.484375.5.984375.8710938,1.1484375.4023438.1787109,1.2958984-.1054688,1.7109375-.4570312.5644531-.4785156,1.078125-.7246094,1.90625-.4931641.3945312.1123047.8398438.1269531,1.2490234.1171875,1.1416016-.015625,2.2841797-.0175781,3.4257812-.0195312,2.7099609-.0058594,5.5126953-.0107422,8.2539062-.1982422,4.5791016-.3125,9.2246094-.7998047,13.7167969-1.2714844.9492188-.0996094,1.8994141-.1992188,2.8486328-.296875,2.2958984-.2373047,4.7109375-.5546875,7.6005859-.9990234,1.5683594-.2412109,2.3388672-.9355469,2.5-2.2519531.0761719-.6289062.2167969-1.2578125.3535156-1.8662109.0371094-.1650391.0742188-.3300781.109375-.4941406.2216797-1.0195312.4628906-2.0527344.6953125-3.0517578.5195312-2.2275391,1.0566406-4.5322266,1.4130859-6.8203125.4091797-2.6376953.5878906-5.3662109.5292969-8.1083984-.0126953-.6044922-.0244141-1.2089844-.0351562-1.8144531-.0732422-4.0029297-.1494141-8.1425781-.7724609-12.1289062-.7783203-4.9794922-2.8544922-10.1074219-6.3486328-15.6767578-.1289062-.2050781-.2470703-.4169922-.3925781-.6777344-.078125-.1386719-.1630859-.2910156-.2617188-.4648438l-.1152344-.2011719h.2324219c.484375,0,.9394531-.0029297,1.375-.0068359.8789062-.0068359,1.7089844-.0117188,2.5214844.0126953,6.84375.2089844,11.4140625,3.3222656,13.9736328,9.5185547Z" stroke-width="0"/>
      <path d="m199.3501384,135.6478551c-.9990234-4.1240234-3.5351562-7.8271484-7.5380859-11.0039062-1.5839844-1.2578125-3.2070312-1.7314453-4.8232422-1.4238281-.6191406.1210938-1.1982422.5683594-1.7578125,1l-.2138672.1650391c-.1074219.0820312-.1572266.5634766-.046875.7216797.1054688.1503906.5693359.2802734.7324219.203125.7783203-.3701172,1.4951172-.53125,2.1601562-.53125,1.8378906,0,3.2890625,1.2246094,4.59375,2.6289062,3.5917969,3.8632812,5.9316406,8.6318359,6.953125,14.1738281.953125,5.1787109.7763672,10.5908203-.5419922,16.5458984-1.2832031,5.7978516-1.3017578,12.0048828-.0566406,18.9755859.9619141,5.3837891,2.6904297,9.9501953,5.2851562,13.9599609,2.6787109,4.1386719,6.1230469,7.4794922,10.2373047,9.9296875,3.9375,2.3466797,8.0283203,4.59375,11.9853516,6.7685547,1.6591797.9111328,3.3183594,1.8222656,4.9707031,2.7431641.1845703.1025391.3808594.1816406.5878906.2646484.0673828.0263672.1347656.0537109.2011719.0810547l.1650391-.2060547c-.2207031-.2373047-.4335938-.4873047-.640625-.7314453-.4960938-.5839844-1.0087891-1.1884766-1.6279297-1.6064453-.6767578-.4570312-1.3496094-.9199219-2.0234375-1.3837891-2.6269531-1.8066406-5.34375-3.6748047-8.203125-5.1640625-9.5400391-4.9677734-15.5566406-12.7099609-18.3945312-23.6708984-1.9804688-7.6513672-1.828125-15.2529297-1.4179688-21.6806641l.1005859-1.5322266c.4169922-6.3349609.8486328-12.8857422-.6865234-19.2265625Z" stroke-width="0"/>
      <path d="m272.1782634,319.8900426l-.4462891-.4667969c-3.9160156-4.1083984-8.6542969-6.7392578-14.4404297-9.7529297-6.8808594-3.5810547-12.0947266-7.8173828-15.9375-12.9492188-3.3554688-4.4794922-4.7294922-9.6572266-5.8496094-14.5761719-1.2832031-5.6425781-1.6289062-11.4892578-1.8720703-16.9941406-.03125-.7148438-.1035156-1.28125-.2275391-1.7822266-.0400391-.1601562-.1826172-.3115234-.3330078-.4716797-.0380859-.0400391-.0751953-.0791016-.1113281-.1191406-.0332031.0361328-.0673828.0722656-.1015625.1083984-.1513672.1611328-.2939453.3134766-.3642578.484375-.1269531.3095703-.1972656.6796875-.2021484,1.0722656-.0146484,1.2597656-.0126953,2.5419922-.0107422,3.78125l.0019531,1.3769531c-.0683594,6.5927734.7275391,12.9941406,2.3632812,19.0273438,1.7597656,6.4824219,5.6611328,11.9921875,11.9277344,16.8447266,2.7753906,2.1503906,6.0830078,4.2685547,10.1123047,6.4755859,5.15625,2.8232422,11.7304688,6.8349609,16.8496094,12.8388672.2421875.2832031.4658203.5878906.6816406.8818359.3242188.4394531.6591797.8945312,1.0517578,1.2714844.3164062.3056641.9853516.5830078,1.3291016.4785156.2099609-.0683594.3466797-.1787109.4160156-.3359375.1347656-.3046875-.0039062-.7333984-.1435547-1.0400391-1.0908203-2.3886719-2.9228516-4.3027344-4.6933594-6.1533203Z" stroke-width="0"/>
      <path d="m36.0933025,275.2103551c-.0224609.1904297-.0498047.3818359-.0761719.5722656-.0673828.4755859-.1367188.9677734-.1298828,1.4453125.0576172,4.1689453-.328125,7.9414062-1.1796875,11.5322266-1.2763672,5.3847656-2.8154297,9.3125-4.9912109,12.7353516-2.2773438,3.5839844-5.3076172,6.1416016-9.0058594,7.5996094-3.2509766,1.2832031-6.609375,2.4541016-9.8574219,3.5859375l-.7539062.2626953c-.65625.2294922-1.359375.3652344-2.0400391.4970703-.2890625.0556641-.5810547.1123047-.8730469.1757812-.2998047,1.2636719.1855469,2.1064453,1.4082031,2.4404297.7890625.2148438,1.4707031.2851562,2.0400391.2011719,6.8300781-.96875,11.9394531-2.8496094,16.0800781-5.9199219,4.2363281-3.1425781,7.0302734-7.4814453,9.0585938-14.0693359,1.8828125-6.1162109,2.3701172-12.4335938,1.4482422-18.7753906-.0810547-.5576172-.2832031-1.1162109-.4794922-1.6552734-.0810547-.2246094-.1621094-.4482422-.2363281-.6728516l-.4121094.0449219Z" stroke-width="0"/>
      <path d="m147.0288494,69.7845739c-1.9755859.9648438-2.1796875,2.7050781-2.2246094,4.5556641-.0029297.1318359-.0029297.2626953-.0019531.3935547l.0009766.2958984-.0556641.0068359c.0390625.3212891.0761719.6435547.1132812.9648438.0966797.8320312.1962891,1.6923828.3349609,2.5292969.1748047,1.046875.6357422,1.6699219,1.4931641,2.0205078.3271484.1337891.5136719.5605469.6787109.9365234.0302734.0673828.0585938.1328125.0869141.1943359.1591797.3417969.2958984.703125.4277344,1.0517578.2382812.6337891.4863281,1.2890625.8740234,1.8232422.5136719.7060547,1.25,1.1308594,2.0732422,1.1953125.8359375.0742188,1.6220703-.2421875,2.2412109-.8632812.7597656-.7607422,1.3974609-1.7548828,1.75-2.7285156,1.4541016-4.0009766,1.28125-8.1445312-.5117188-12.3183594-.7226562-1.6835938-2.2871094-2.3925781-3.4726562-2.6914062-1.6230469-.4101562-2.7265625.2001953-3.2744141,1.8115234-.1152344.3339844-.2685547.6923828-.5332031.8222656Zm1.6054688,4.2294922l.0175781-.9902344.7861328-.0107422.0361328.0791016c.5996094,1.2978516.6308594,2.7080078.5742188,4.0390625-.0107422.2568359-.4628906.5458984-.7001953.5546875h-.0117188c-.1875,0-.4433594-.1367188-.5878906-.2734375-.0869141-.0830078-.1318359-.1650391-.1337891-.2431641-.0195312-1.0527344,0-2.1220703.0195312-3.1552734Z" stroke-width="0"/>
      <path d="m63.1382244,211.1253942c.6347656.0439453,1.1630859-.0078125,1.5761719-.1484375,9.3671875-3.1777344,14.9648438-8.7333984,17.1123047-16.984375.9326172-3.5830078.9003906-7.3095703.7255859-10.8027344-.3085938-6.1630859-1.4003906-12.3310547-2.4560547-18.2949219-.2724609-1.5410156-.5458984-3.0820312-.8056641-4.625l-.0429688-.265625c-.1464844-.9130859-.296875-1.8544922-1.3154297-2.6982422-.0224609.2441406-.0488281.46875-.0732422.6787109-.0615234.5341797-.1103516.9560547-.0644531,1.3681641.4853516,4.265625.9306641,8.1171875,1.4697266,12.0615234.8691406,6.3701172,1.5839844,12.609375.8007812,18.9033203-.7978516,6.4277344-3.7851562,11.4003906-8.8789062,14.7773438-1.5371094,1.0185547-2.9296875,1.9248047-4.4042969,2.6972656-.2871094.1503906-.5722656.3164062-.8574219.4833984-1.4394531.8378906-2.9277344,1.703125-4.7958984.6796875.1416016,1.1875.9716797,2.1015625,2.0097656,2.1699219Z" stroke-width="0"/>
      <path d="m59.9058025,174.6546911c.1347656-.3447266.2773438-.6884766.4199219-1.03125.3662109-.8818359.7451172-1.7939453.9648438-2.71875.1474609-.6259766.109375-1.3144531.0732422-1.9804688-.0146484-.2607422-.0292969-.5302734-.0332031-.7949219l-.1650391-.0087891-.3544922,1.3994141-.1669922-.1611328c-.3251953-.3134766-.6582031-.4726562-.9892578-.4726562-.0253906,0-.0507812.0009766-.0761719.0029297-.3564453.0263672-.6992188.2402344-.9921875.6191406-2.8222656,3.6572266-6.765625,5.9462891-12.0537109,6.9980469-1.2646484.2519531-2.4228516.9814453-3.1728516,1.5498047-.8564453.6494141-1.3164062,1.4384766-1.3300781,2.2802734-.0136719.8759766.4716797,1.7578125,1.3671875,2.4833984,1.5263672,1.2353516,3.3818359,1.5917969,5.6728516,1.0800781,5.2548828-1.1660156,8.9003906-4.2763672,10.8359375-9.2451172Zm-11.2070312,7.7773438c-.3203125.0498047-.6865234.0917969-1.0742188.0917969-.8916016,0-1.9023438-.2197266-2.7578125-1.0664062-.4052734-.4013672-.5859375-.8027344-.5234375-1.1611328.0585938-.3300781.3095703-.6005859.7480469-.8027344,1.1064453-.5117188,2.0947266-.8359375,3.0205078-.9941406,3.4667969-.5898438,7.4072266-1.6279297,10.3378906-4.8535156l.4501953-.4951172-.2236328.6308594c-1.7900391,5.0605469-5.0546875,7.890625-9.9775391,8.6503906Z" stroke-width="0"/>
      <path d="m109.2114666,89.1185583c.9121094.5351562,2.0966797.5107422,3.2509766-.0654297,2.3427734-1.1738281,4.1396484-2.8867188,5.3417969-5.0927734.8828125-1.6220703,1.7041016-3.3125,2.4970703-4.9462891.3652344-.7529297.7314453-1.5058594,1.1035156-2.2548828.0478516-.0957031.1064453-.1855469.1728516-.2861328.0292969-.0439453.0595703-.0908203.0917969-.1416016l.046875-.0742188,1.2753906.1835938.0361328-.0400391h-.0019531c-.4316406,0-.7402344-.0966797-.9365234-.2919922-.3300781-.328125-.2841797-.8525391-.2402344-1.3603516.0292969-.3408203.046875-.8310547-.1386719-1.1484375-.1835938-.3125-.5996094-.6738281-.9033203-.6904297-.0087891-.0009766-.0175781-.0009766-.0263672-.0009766-.3046875,0-.7236328.296875-.9707031.5849609-.1416016.1650391-.1904297.4384766-.2363281.7041016-.0195312.109375-.0380859.2177734-.0634766.3212891-.6162109,2.5341797-2.4902344,4.2158203-5.1425781,4.6142578-4.6660156.6992188-6.8466797,3.0439453-6.6640625,7.1679688.0556641,1.2607422.6054688,2.2871094,1.5078125,2.8173828Zm1.4638672-5.0253906c.6533203-1.1142578,1.5214844-1.9160156,2.265625-2.09375,1.0683594-.2558594,2.1416016-.4804688,3.2783203-.7197266.5087891-.1064453,1.0302734-.2158203,1.5683594-.3320312l.3027344-.0654297-.1582031.2666016c-.1523438.2548828-.2949219.5-.4326172.7373047-.296875.5097656-.5771484.9921875-.8837891,1.4521484-.0644531.0957031-.1279297.1923828-.1914062.2900391-.3427734.5224609-.6962891,1.0625-1.1708984,1.4677734-1.1923828,1.0185547-2.3173828,1.8583984-3.4394531,2.5673828-.2646484.1669922-.5332031.2529297-.7832031.2529297-.1259766,0-.2470703-.0214844-.3603516-.0654297-.2324219-.0888672-.5419922-.3134766-.703125-.8828125-.1962891-.6953125.0751953-1.796875.7080078-2.875Z" stroke-width="0"/>
      <path d="m48.7622478,282.7132848c2.5605469-.2529297,4.6464844-1.3261719,6.2001953-3.1923828,1.9746094-2.3740234,3.4130859-5.2363281,4.3974609-8.7519531.4248047-1.515625-.2763672-2.7705078-1.2841797-4.2148438-1.2363281,4.2138672-3.3740234,6.8808594-6.7109375,8.3789062-1.1630859.5224609-2.2607422,1.1826172-3.1738281,1.9082031-.8691406.6923828-1.5585938,1.6503906-2.0019531,2.3115234-.5595703.8339844-.5595703,1.7431641-.0029297,2.5615234.5380859.7900391,1.3769531,1.1171875,2.5761719.9990234Zm-.6035156-2.5791016c.0742188-.1044922.1396484-.2167969.2041016-.3261719.1416016-.2412109.2880859-.4902344.5146484-.6376953,1.5449219-1.0009766,3.1181641-1.9833984,4.7832031-3.0234375l2.015625-1.2617188-.1435547.3759766c-1.3085938,3.4277344-4.0664062,5.1904297-6.3505859,5.1904297-.3261719,0-.6435547-.0361328-.9453125-.1083984l-.1943359-.0458984.1162109-.1630859Z" stroke-width="0"/>
      <path d="m277.8169353,296.9945348c-1.0322266-.9658203-2.0996094-1.9648438-3.3427734-2.5087891-4.046875-1.7685547-5.7548828-5.2529297-6.8916016-8.4287109-.1376953-.3867188-.5253906-1.2519531-1.2285156-1.2519531-.0341797,0-.0693359.0029297-.1064453.0068359-.3349609.0390625-.9042969.8955078-.9091797,1.3671875-.0546875,4.9980469,1.2089844,9.1279297,3.8652344,12.6259766,1.3554688,1.7851562,4.0732422,3.0869141,6.4619141,3.0947266,1.5097656.0507812,2.5263672-.4873047,3.0878906-1.6201172.5419922-1.0927734.2695312-2.1582031-.8095703-3.1660156l-.1269531-.1191406Zm-.7763672,2.4785156c-.1435547.0478516-.2871094.1113281-.4306641.1748047-.3134766.1367188-.6376953.2792969-.9658203.2792969-.0136719,0-.0263672-.0009766-.0390625-.0009766-2.9892578-.0996094-5.0419922-1.3789062-6.1005859-3.8046875-.3916016-.8964844-.7011719-1.8300781-1-2.734375-.1347656-.4052734-.2675781-.8076172-.40625-1.2011719l-.1357422-.3857422.3378906.2294922c.5546875.375,1.1074219.7451172,1.6572266,1.1142578,1.3349609.8955078,2.5957031,1.7412109,3.8662109,2.6337891,1.0771484.7548828,1.9736328,1.4697266,2.7421875,2.1855469.2412109.2246094.3359375.5742188.4287109.9121094.0380859.1435547.0791016.2910156.1289062.421875l.0498047.1308594-.1328125.0449219Z" stroke-width="0"/>
      <path d="m117.1860759,67.0169958l-2.1513672,1.3486328.0214844-.2675781c.0488281-.59375-.0253906-.9580078-.2333984-1.1455078-.2080078-.1894531-.578125-.2265625-1.1660156-.1191406-3.3525391.6132812-6.5966797.3613281-9.9208984-.7675781-.6796875-.2314453-1.4980469-.3476562-2.4453125-.3476562-.4726562,0-.9775391.0292969-1.5126953.0869141-.9453125.1035156-2.0283203.6787109-2.2353516,1.9853516-.1591797,1.0087891.3056641,1.8095703,1.5058594,2.5976562,1.8232422,1.1962891,3.8945312,1.3417969,6.0322266,1.3945312.1806641.0039062.3603516.0068359.5390625.0068359,3.0908203,0,6.1162109-.6396484,9.0029297-1.9042969,1.2871094-.5644531,1.9638672-1.59375,2.6367188-2.7890625l-.0732422-.0791016Zm-7.4472656,2.7128906c-.8447266.3701172-2.0029297.5380859-3.2373047.5380859-2.7226562,0-5.8242188-.8134766-6.7998047-2.0605469l-.0917969-.1181641.1269531-.0791016c.9785156-.6132812,1.9208984-.3222656,2.8027344.03125,2.6572266,1.0605469,4.9189453,1.5195312,7.140625,1.4306641l.7119141-.0273438-.6533203.2851562Z" stroke-width="0"/>
      <path d="m217.5640056,275.2298864c.0019531-.3769531.0048828-.7666016-.0166016-1.1464844l-.0087891-.1865234c-.0322266-.7353516-.0634766-1.4306641-.9716797-1.5732422-.4697266-.0703125-.9472656.0458984-1.34375.3378906-.4199219.3105469-.703125.7871094-.7783203,1.3085938-.0546875.3789062-.0712891.7734375-.0869141,1.1542969-.0078125.1835938-.0146484.3662109-.0263672.5488281-.0205078,4.0458984,1.1064453,7.8583984,2.2119141,11.0527344.7539062,2.1738281,2.8505859,3.4658203,5.1923828,3.2128906.9140625-.0976562,1.6435547-.5175781,2.0029297-1.1503906.3291016-.5820312.3261719-1.3027344-.0097656-2.0292969-.4833984-1.0449219-1.2197266-2.0126953-1.8691406-2.8652344-.4267578-.5615234-.9296875-1.0888672-1.4150391-1.5976562-.2011719-.2119141-.4033203-.4228516-.6005859-.6376953-1.5087891-1.6396484-2.2763672-3.6503906-2.28125-5.9755859-.0009766-.1503906,0-.3017578.0009766-.453125Zm1.6328125,8.2734375c1.1162109,1.1513672,2.2705078,2.3408203,2.8623047,3.9296875l.046875.125-.125.0478516c-.3994141.1513672-.7802734.2265625-1.1396484.2265625-.7050781,0-1.3251953-.2890625-1.8291016-.8613281-1.5615234-1.7724609-1.9941406-3.9667969-2.3046875-6.0625l-.0976562-.6611328.3466797.5712891c.6025391.9951172,1.4355469,1.8535156,2.2402344,2.6845703Z" stroke-width="0"/>
      <path d="m133.9194744,91.8783239c-.1660156-3.8398438.5957031-7.1074219,2.328125-9.9892578.4375-.7294922,1.0058594-1.5224609,2.2099609-1.7001953.3261719-.0478516.5644531-.2373047.6699219-.5341797.1464844-.4130859.0078125-.9345703-.3544922-1.3291016-.4316406-.4707031-1.0712891-.7119141-1.7441406-.7119141-.5615234,0-1.1455078.1669922-1.6513672.5078125-1.5625,1.0527344-1.7929688,2.703125-1.8193359,4.0234375-.0195312,1.0097656-.0205078,2.0390625-.0205078,3.0332031-.0009766.9960938-.0009766,2.0263672-.0214844,3.0400391-.0771484,3.8515625-1.8066406,7.1689453-3.3056641,9.6298828-1.2099609,1.9863281-2.4824219,3.9794922-3.7128906,5.9072266-.6357422.9970703-1.2724609,1.9931641-1.9023438,2.9931641-.0136719.0214844-.0175781.0927734-.0224609.1923828-.0029297.0449219-.0048828.0986328-.0097656.1611328.1748047-.0664062.3427734-.1289062.5068359-.1884766.5068359-.1865234.9443359-.3486328,1.3691406-.5517578.453125-.21875.8359375-.4833984,1.1074219-.7675781,3.2949219-3.4492188,6.6298828-7.7753906,6.3730469-13.7158203Z" stroke-width="0"/>
      <path d="m181.9018962,140.4388708c-.3876953,0-.9042969.1962891-1.0029297.3974609-.3427734.7041016-.6015625,1.5478516-.7910156,2.5791016-.1162109.6298828-.1582031,1.2636719-.2060547,1.9970703-.0214844.3398438-.0449219.6943359-.0771484,1.0722656.0253906.1337891.0517578.3203125.0800781.5195312.0693359.4892578.1474609,1.0439453.2822266,1.5888672l.2070312.8388672c.6337891,2.5664062,1.2900391,5.2207031,2.0195312,7.8076172.3320312,1.1777344.8193359,2.3798828,1.4482422,3.5751953.2509766.4765625.7783203.9677734,1.4462891,1.3466797.5712891.3222656,1.2011719.3535156,1.6845703.0771484.4501953-.2558594.7148438-.7421875.7275391-1.3330078.0185547-.8798828-.1855469-1.8222656-.5585938-2.5869141-.8720703-1.7910156-1.7509766-3.3212891-2.6865234-4.6806641-1.6201172-2.3544922-1.9912109-4.8935547-2.3076172-7.96875-.1181641-1.1435547.0019531-2.2197266.1181641-3.2617188.0380859-.3398438.0761719-.6816406.1074219-1.0263672.0292969-.3408203-.2597656-.9023438-.3759766-.9355469-.0371094-.0048828-.0751953-.0068359-.1152344-.0068359Zm2.0410156,15.0732422c1.1259766,1.4453125,2.2304688,3.0273438,2.3017578,5.0664062l.0097656.2734375-.2226562-.1591797c-1.6259766-1.1611328-1.9394531-2.9140625-2.2431641-4.6083984l-.1855469-1.0087891.3398438.4365234Z" stroke-width="0"/>
      <path d="m98.0444744,212.8412145c.0029297.0019531.0048828.0029297.0078125.0048828-.0058594-.3789062-.0244141-.7480469-.0429688-1.1074219-.0458984-.9199219-.0888672-1.7900391.0849609-2.6210938l.2568359-1.2373047c.9228516-4.4726562,1.8779297-9.0976562,4.2246094-13.2382812l.3613281-.6357422c1.3808594-2.4179688,2.8076172-4.9189453,3.1757812-7.7480469.1582031-1.2167969.140625-2.4824219.1230469-3.7050781-.0048828-.3476562-.0097656-.6943359-.0107422-1.0400391-.0009766-.1962891-.0839844-.3994141-.2001953-.6816406-.0351562-.0869141-.0722656-.1787109-.1113281-.2783203-.0322266.0488281-.0625.09375-.0908203.1347656-.0830078.1191406-.1601562.2324219-.1542969.2783203.4267578,3.2011719-.53125,6.4199219-2.8457031,9.5644531-3.3603516,4.5654297-5.3017578,10.0224609-6.109375,17.1708984-.203125,1.8076172-.2714844,3.5478516,1.1074219,4.9765625.0507812.0527344.1201172.0966797.2236328.1630859Z" stroke-width="0"/>
      <path d="m224.1558025,173.474027l.2089844.4775391c.2207031.5048828.4306641,1.0273438.6337891,1.5322266.5136719,1.2822266,1.0458984,2.6074219,1.7978516,3.7626953.7714844,1.1855469,2.0947266,2.1201172,3.2617188,2.9453125.7109375.5029297,1.6289062.4082031,2.3408203-.2353516.8613281-.7792969.53125-1.6845703.2587891-2.1552734-.7021484-1.2060547-1.5585938-2.6152344-2.5878906-3.9130859-.7470703-.9404297-1.6855469-1.7392578-2.5888672-2.4619141-1.6025391-1.28125-2.4384766-2.7246094-2.6308594-4.5419922-.0400391-.3769531-.2373047-.7382812-.4462891-1.1220703-.1357422-.2480469-.2753906-.5048828-.3730469-.7714844-.1123047-.3105469-.1669922-.6396484-.21875-.9580078-.0273438-.1669922-.0546875-.3339844-.0908203-.4980469-.0234375-.1083984-.0429688-.2197266-.0615234-.3310547-.0527344-.3056641-.1015625-.59375-.2392578-.8271484-.1162109-.1962891-.4501953-.3925781-.7304688-.4287109-.0556641.0244141-.2919922.3310547-.3369141.5449219-.1035156.5009766-.1630859,1.0234375-.2216797,1.5283203-.0234375.2050781-.046875.4101562-.0732422.6152344l-.0107422.0810547-.1777344.0654297c.1113281.3808594.2197266.7617188.328125,1.1435547.2675781.9443359.5449219,1.9199219.8662109,2.8623047.3105469.9101562.7080078,1.8125,1.0917969,2.6855469Zm2.6757812,1.5546875c1.7861328,1.2773438,3.7050781,2.9365234,4.4072266,5.5556641l.0683594.2539062-.2460938-.0927734c-2.7363281-1.0361328-3.6376953-3.4394531-4.4335938-5.5605469l-.15625-.4140625.3603516.2578125Z" stroke-width="0"/>
      <path d="m89.8618572,127.1429723c.2451172.0615234.5400391-.0244141.8535156-.1162109.1044922-.0292969.2080078-.0595703.3105469-.0849609-.0253906-.1181641-.0458984-.2382812-.0654297-.3564453-.0595703-.3505859-.1142578-.6816406-.2919922-.9091797-.5927734-.7607422-1.6230469-1.1787109-2.6464844-1.1787109-.5908203,0-1.1796875.1386719-1.6806641.4326172-1.1699219.6835938-2.1142578,1.5410156-2.6582031,2.4130859-3.0322266,4.8603516-4.6845703,8.8144531-5.3564453,12.8203125-.1884766,1.1259766-.1513672,2.3154297-.1152344,3.4648438.0146484.46875.0292969.9541016.0292969,1.4296875,0,.0507812.0625.1425781.1503906.2695312.0205078.03125.0429688.0634766.0673828.0996094.8945312-6.4277344,4.2568359-11.4990234,7.2294922-15.9824219.1914062-.2890625.4130859-.5625.6279297-.8271484.1005859-.1230469.2001953-.2470703.2978516-.3720703.8388672-1.0791016,1.9033203-1.4394531,3.2480469-1.1025391Z" stroke-width="0"/>
      <path d="m41.4302166,241.4007848c.0859375.0166016.3222656-.0498047.59375-.2451172.2832031-.203125.4453125-.4228516.4599609-.5341797.0595703-.4560547-.3339844-1.2705078-.5800781-1.3242188-1.203125-.2636719-2.2050781-.2841797-2.9804688-.0576172-1.9912109.5800781-2.8251953,2.2607422-3.1748047,3.5693359-1.3896484,5.2060547-1.6816406,9.9833984-.8916016,14.6054688.1162109.6757812.2226562,1.3544922.3291016,2.0322266l.1181641.7480469.1630859.015625c.0351562-.2744141.0771484-.5498047.1181641-.8242188.1015625-.6660156.2060547-1.3554688.2158203-2.0302734.0507812-3.53125.2382812-7.3164062,1.2558594-11.0673828.2900391-1.0703125.7304688-2.1513672,1.3076172-3.2128906.5195312-.9580078,1.3291016-2.0136719,3.0654297-1.6748047Z" stroke-width="0"/>
      <path d="m235.5415447,249.2406286c.2060547-2.8496094.4833984-5.7412109.7509766-8.5380859.1171875-1.2265625.2353516-2.453125.3476562-3.6806641.0068359-.0810547.0205078-.1660156.0351562-.2509766.03125-.1826172.0605469-.3554688.0126953-.4824219-.1972656-.5224609-.4091797-.8320312-.4853516-.8554688-.3515625.0175781-.8447266.2929688-.9501953.5361328-.3701172.8476562-.5683594,1.6113281-.5878906,2.2695312-.1728516,5.7392578-.3076172,11.5771484-.4375,17.2226562l-.0683594,2.9726562c-.0009766.0224609.0185547.0683594.0478516.1318359.8828125-2.9101562,1.0849609-5.7705078,1.2792969-8.5410156l.0556641-.7841797Z" stroke-width="0"/>
      <path d="m161.1274822,156.5892614c-.1298828-.0253906-.2470703-.0390625-.3525391-.0390625-.1748047,0-.3164062.0361328-.4287109.1083984-.1982422.1269531-.3193359.375-.4042969.8271484-.5625,2.96875.1464844,5.7949219.9150391,8.1660156,1.4433594,4.4550781,3.9140625,8.7753906,7.7675781,13.5751953-5.0742188-7.5673828-8.2314453-14.4199219-7.4970703-22.6376953Z" stroke-width="0"/>
      <path d="m109.0395916,153.0335973c.0742188-.0585938.1503906-.1171875.2285156-.171875-.0595703-.0888672-.1162109-.1806641-.1708984-.2714844-.1669922-.2753906-.3251953-.5351562-.5429688-.6396484-.3623047-.1728516-.7480469-.2558594-1.1376953-.2558594-1.0859375,0-2.2041016.6425781-2.9277344,1.7705078-2.3134766,3.6064453-2.9902344,6.9912109-2.0703125,10.3486328.1318359.4814453.2695312.9609375.4082031,1.4404297l.1582031.5517578.1289062-.03125c.0019531-.1669922.0078125-.3339844.0136719-.5009766.0146484-.421875.0302734-.8583984-.0253906-1.2734375-.3964844-2.9707031.4101562-5.7900391,2.6162109-9.140625.6240234-.9482422,1.5195312-1.4423828,2.6630859-1.4697266.2041016-.0048828.4345703-.1835938.6582031-.3564453Z" stroke-width="0"/>
      <path d="m176.9048259,193.1478551c-.0498047-.0947266-.1035156-.1894531-.1591797-.2832031.0908203,1.3925781.2158203,2.796875.3369141,4.1591797.3291016,3.6962891.6689453,7.5107422.3505859,11.3730469.0146484-.0253906.0302734-.0498047.0449219-.0751953.2705078-.4492188.5263672-.875.5654297-1.3134766.2587891-2.9521484.3837891-5.4140625.3925781-7.7470703.0078125-2.0917969-.5078125-4.1484375-1.53125-6.1132812Z" stroke-width="0"/>
      <path d="m143.4780681,298.4994176c2.4853516,4.8125,4.5058594,10.1542969,6.5507812,17.3193359.1347656.4726562.2392578.9599609.3398438,1.4316406.1142578.5332031.2324219,1.0839844.3945312,1.609375.0761719.2509766.46875.5878906.6308594.5878906.0048828,0,.0087891-.0009766.0126953-.0009766.4609375-.0527344,1.0351562-.3300781,1.078125-.5214844.2255859-.9824219.4101562-1.9326172.1933594-2.7451172l-.3125-1.1757812c-.8212891-3.1035156-1.6699219-6.3125-2.8447266-9.3417969-.8847656-2.2841797-2.0361328-4.5195312-3.1494141-6.6816406-.4814453-.9335938-.9794922-1.8994141-1.4492188-2.8574219-1.9970703-4.0703125-3.0849609-8.5224609-3.2324219-13.2353516-.0322266-1.0273438-.1044922-2.0732422-.1748047-3.0849609-.0292969-.421875-.0585938-.84375-.0849609-1.2666016l-.3066406-.0410156.0146484-.1308594c.1914062-1.7548828.3730469-3.5107422.5546875-5.2666016.4082031-3.9492188.8310547-8.0332031,1.3701172-12.0351562.8535156-6.3134766.4248047-11.0527344-1.3896484-15.3662109-.0263672-.0615234-.0458984-.1289062-.0664062-.1953125-.0351562-.1152344-.0673828-.2246094-.1289062-.28125-.1933594-.1835938-.421875-.3457031-.6425781-.5019531-.046875-.0341797-.09375-.0673828-.1396484-.1005859-.0341797.0673828-.0712891.1347656-.1074219.2001953-.1220703.2216797-.2480469.4521484-.2119141.6103516l.1171875.5224609c.375,1.6630859.7626953,3.3828125,1.3154297,5.0166016,1.234375,3.6425781,1.2978516,7.1669922.1914062,10.7734375-1.5478516,5.0458984-1.9794922,10.3105469-2.2148438,15.2480469-.2724609,5.6884766.0673828,10.2402344,1.0683594,14.3232422.6533203,2.6640625,1.5361328,5.0820312,2.6240234,7.1875Z" stroke-width="0"/>
      <path d="m117.71049,287.3519567c-.2246094-.6591797-.4550781-1.3408203-1.4638672-1.4433594.0068359.1455078.0126953.2871094.0185547.4267578.0166016.3847656.03125.7480469.0800781,1.1044922.5390625,4.0039062.9960938,8.2734375.1582031,12.5966797-.6591797,3.3945312-2.2216797,6.6123047-5.0673828,10.4316406-.7705078,1.0371094-1.7607422,1.3261719-2.9404297.8652344-.1572266-.0615234-.3349609-.0859375-.5410156-.1132812-.0371094-.0048828-.0761719-.0097656-.1152344-.015625.5556641,1.4335938,2.2636719,2.265625,3.8525391,1.8222656,1.4472656-.4013672,2.7041016-1.3085938,3.8417969-2.7734375,2.3056641-2.9658203,3.5205078-5.6816406,3.8222656-8.5439453.5214844-4.9462891-.0117188-9.7177734-1.5849609-14.1806641l-.0605469-.1767578Z" stroke-width="0"/>
      <path d="m114.9429119,273.1244176c.1328125.3144531.2685547.6386719.3916016.9638672l.1132812-.0302734c-.0009766-.1953125-.0048828-.390625-.0078125-.5859375-.0087891-.4941406-.0175781-1.0058594.0146484-1.5097656.0449219-.6923828.0791016-1.3857422.1142578-2.0800781.0927734-1.8603516.1894531-3.7841797.484375-5.6513672.2109375-1.3349609.6162109-2.6582031,1.0087891-3.9375.2333984-.7626953.4746094-1.5507812.671875-2.3320312.0869141-.3447266-.0498047-.921875-.2480469-1.046875-.1708984-.1083984-.4414062-.1640625-.7080078-.1640625-.2070312,0-.4111328.0341797-.5634766.1035156-.3701172.1708984-.7558594.6181641-.8789062,1.0195312-1.4980469,4.8916016-1.8730469,8.9960938-1.1796875,12.9160156.1396484.7939453.46875,1.5771484.7871094,2.3349609Z" stroke-width="0"/>
      <path d="m316.5561931,36.489652c.2021484.2373047.4101562.4814453.5986328.734375.7568359,1.0136719.8720703,2.0107422.3525391,3.0458984-.7138672,1.4277344-.5224609,2.7783203.5869141,4.1298828.3828125.4677734.6972656.9941406,1.0009766,1.5029297.0888672.1494141.1777344.2988281.2685547.4462891.9238281,1.5048828.9316406,2.8896484.0234375,4.2333984-.7353516,1.0898438-.7626953,2.3339844-.0810547,3.6982422.2333984.4677734.4765625.9296875.71875,1.3916016l.3427734.6552734c.9160156,1.7646484,1.0263672,3.3964844.3408203,4.9873047-.6982422,1.6162109-.6591797,3.1767578.1201172,4.7705078,1.421875,2.9091797,1.2119141,5.6982422-.625,8.2890625-.4453125.6259766-.7607422,1.1816406-.1132812,1.6416016.5947266.4238281,1.2197266.28125,1.9150391-.4384766,1.1162109-1.1552734,1.6289062-2.4941406,1.7119141-4.4746094-.0537109-.1816406-.1113281-.3984375-.1757812-.6416016-.1796875-.6738281-.4033203-1.5126953-.7236328-2.3251953-.8056641-2.0400391-.8544922-3.9042969-.1513672-5.6992188.7470703-1.9003906.7148438-3.8466797-.0957031-5.9501953-.078125-.2041016-.1611328-.4072266-.2441406-.6113281-.2646484-.6503906-.5380859-1.3222656-.6708984-2.015625-.1933594-1.0126953-.1875-1.8603516.0185547-2.5185547.5566406-1.7744141.4140625-3.3710938-.4355469-4.8808594-.1347656-.2402344-.2675781-.4804688-.3994141-.7216797-.1835938-.3320312-.3662109-.6640625-.5546875-.9931641-.8193359-1.4306641-.9111328-2.7519531-.2900391-4.1591797.9902344-2.2421875-.4931641-6.1484375-2.7841797-7.3330078-.1757812-.0908203-.4482422-.1337891-.7197266-.1337891-.3779297,0-.7548828.0820312-.8759766.2294922-.2792969.3398438-.3300781,1.1865234-.1015625,1.6787109.2451172.5253906.6503906,1.0019531,1.0429688,1.4619141Z" stroke-width="0"/>
      <path d="m302.1030681,56.1634801c.4824219.2802734.8896484.734375,1.0371094,1.15625.5068359,1.4394531,1.6689453,2.2607422,3.1943359,2.2607422h.0498047c1.3525391-.015625,2.0634766-.5732422,2.4521484-1.9257812.0722656-.25.2275391-.46875.3759766-.6806641.0947266-.1328125.1835938-.2587891.2529297-.390625.3144531-.5957031.6445312-1.2353516.9296875-1.8808594.0791016-.1777344.1347656-.3789062.1884766-.5732422.0878906-.3144531.1777344-.6396484.3720703-.9042969,1.46875-2.0048828-.2294922-4.7167969-.7851562-5.5-.7949219-1.1230469-2.1845703-1.3027344-4.2470703-.5546875-.3701172.1328125-.8837891.1425781-1.3066406.0205078-1.1855469-.3417969-2.2822266-.140625-3.0058594.5507812-.6845703.6552734-.9228516,1.6699219-.6552734,2.7832031l.0097656.0380859c.2470703,1.0263672.4599609,1.9121094-.0605469,2.9941406-.4931641,1.0263672.2753906,2.0703125,1.1982422,2.6064453Zm.9892578-2.4208984c.2587891-.7929688.5908203-1.5498047.9423828-2.3505859.1357422-.3085938.2724609-.6210938.4082031-.9414062l.046875-.1103516.1142578.0332031c.0302734.0087891.0683594.0166016.1103516.0263672.1279297.0273438.3027344.0654297.4580078.1484375q1.1953125.6474609,1.8300781-.5136719l.0224609-.0400391c.1308594-.2402344.4716797-.4589844.7294922-.4667969h.0195312c.265625,0,.7148438.1914062.7763672.4365234.1337891.5244141.2460938,1.0664062.0283203,1.4179688-.1962891.3164062-.4550781.5966797-.7060547.8681641-.5498047.59375-1.0683594,1.1552734-.9570312,2.0615234.0205078.1464844-.1767578.2138672-.1787109.2148438h-.0009766c-.5498047.1787109-.8935547.4375-1.0527344.7919922-.1884766.421875-.1152344,1.0019531.2236328,1.7714844l.0517578.1181641-.5820312.2900391-.0673828-.0595703c-.0839844-.0722656-.1875-.1425781-.2900391-.2128906-.2568359-.1757812-.5214844-.3574219-.5556641-.6054688-.1015625-.7568359-.3818359-1.1875-.9980469-1.5371094-.3310547-.1865234-.5019531-.9462891-.3730469-1.3408203Z" stroke-width="0"/>
    </g>
  </g>
</svg>