<?xml version="1.0" encoding="UTF-8"?>
<svg id="Layer_2" data-name="Layer 2" xmlns="http://www.w3.org/2000/svg" viewBox="0 0 91.1640322 151.4089672">
  <g id="Layer_1-2" data-name="Layer 1">
    <path d="m91.1396447,108.5783966c.0087891-3.1445312-.0410156-6.4873047-.7304688-9.7558594-.3466797-1.6455078-.7392578-3.5097656-.9511719-5.3515625-.4580078-3.9628906-.7949219-7.4814453-1.0322266-10.7568359-.1875-2.5791016-.9199219-4.8603516-2.1757812-6.78125-.9921875-1.515625-1.8173828-3.1171875-2.453125-4.7607422-.3339844-.8662109-.8164062-1.5507812-1.28125-2.2128906-.3994141-.5673828-.7763672-1.1035156-1.0371094-1.7216797-.2080078-.4931641-.6640625-.7480469-.9658203-.9169922-.3222656-.1806641-.6425781-.3652344-.9638672-.5507812-.9423828-.5429688-1.9160156-1.1054688-2.9287109-1.5478516-.4667969-.2041016-.9384766-.390625-1.4101562-.578125-1.2890625-.5107422-2.5068359-.9931641-3.6113281-1.8193359-.3642578-.2724609-.7607422-.4238281-1.1103516-.5566406l-.3085938-.1201172c-1.1035156-.4355469-2.2070312-.8710938-3.3222656-1.2646484-.4091797-.1445312-.8095703-.2050781-1.1972656-.2626953l-.2978516-.046875c-1.2822266-.2099609-2.5527344-.1767578-3.78125-.140625-.6308594.0175781-1.2636719.0341797-1.8916016.0185547-1.7734375-.0322266-3.5976562.2138672-5.7460938.8154297-1.6513672.4628906-3.2832031,1.0820312-4.8623047,1.6816406-.8183594.3105469-1.6357422.6210938-2.4589844.9111328-.0527344.0185547-.1162109.0302734-.1894531.0380859l.0136719-1.7207031c.0146484-1.6513672.0283203-3.2519531.0351562-4.8535156.0029297-.7929688-.0058594-1.5869141-.0146484-2.3798828-.0166016-1.5126953-.0341797-3.0771484.0361328-4.5986328.0517578-1.1054688-.03125-2.2041016-.1123047-3.2675781-.0878906-1.1660156-.171875-2.2773438-.0947266-3.3994141.2900391-.0673828.578125-.1357422.8642578-.203125,1.0009766-.2382812,1.9472656-.4628906,2.9003906-.5996094,2.6953125-.3837891,5.828125-.8154297,8.8945312-1.0703125,1.2119141-.0986328,2.4697266-.0751953,3.6835938-.0517578.6845703.0136719,1.3681641.0244141,2.0507812.0195312.7216797-.0068359,1.5029297-.0537109,2.4599609-.1464844,1.5996094-.15625,3.1982422-.3291016,4.7949219-.5224609.3789062-.0449219.7539062-.1220703,1.1298828-.2011719.2246094-.046875.4482422-.09375.6738281-.1318359.5351562-.0908203,1.0654297-.2255859,1.5947266-.3603516.8212891-.2080078,1.6015625-.4072266,2.3681641-.4267578.0322266.0400391.0615234.0722656.0742188.0917969.3671875,1.3691406,1.3193359,2.0273438,2.0839844,2.5566406l.1835938.1279297c.453125.3173828,1.0126953.3671875,1.4990234.1347656.5654297-.2714844.9453125-.8779297.9902344-1.5810547.0166016-.2509766.0039062-.5039062-.0117188-.7578125-.0087891-.1611328-.0195312-.3222656-.015625-.4833984.0107422-.46875.0097656-.9414062.0097656-1.4130859-.0029297-1.1572266-.0048828-2.2509766.1630859-3.3046875.1962891-1.2265625.2900391-2.5185547.3056641-4.1884766l.0136719-1.2255859c.0214844-1.7480469.0429688-3.5556641-.0253906-5.3378906-.0507812-1.3398438-.0371094-2.7138672-.0253906-4.0429688.0205078-2.2099609.0419922-4.4941406-.2226562-6.7548828.3085938-2.5048828.0966797-4.9980469-.109375-7.4101562l-.0283203-.3261719c-.046875-.5605469-.0546875-1.1601562-.0244141-1.8310547.0400391-.8583984.0341797-1.6728516-.4736328-2.2099609-.4736328-.5019531-1.1767578-.5498047-1.7988281-.5556641-.1240234.0117188-.2753906.0097656-.4150391.0195312-.1152344.0078125-.2294922.015625-.3417969.0136719-.8925781-.0615234-1.7724609.0058594-2.6269531.0664062-1.5478516.1103516-3.0117188.2148438-4.4189453-.3730469-.2890625-.1201172-.5634766-.0947266-.7470703-.0800781-.0410156.0048828-.0898438.0068359-.1181641.0078125-.5234375-.0136719-1.0478516-.0322266-1.5722656-.0507812-1.1923828-.0419922-2.4228516-.0859375-3.6425781-.0732422-1.6464844.0146484-3.3095703.1142578-4.9179688.2099609l-.3046875.0175781c-.4482422.0263672-.8945312.078125-1.3417969.1298828-.5585938.0644531-1.0859375.125-1.6123047.1357422-1.2724609.0283203-2.5478516.0175781-3.8261719.0087891-.6503906-.0048828-1.3017578-.0097656-1.9521484-.0097656-1.1015625,0-2.3505859,0-3.5996094.4013672-.4316406.1367188-.8769531.1923828-1.2675781.1455078-1.25-.1435547-2.4238281.1171875-3.5566406.3701172-.5390625.1201172-1.0478516.234375-1.5605469.3046875-1.4873047.2050781-2.9882812.4658203-4.4394531.71875-.828125.1435547-1.6572266.2880859-2.4873047.4228516-.2861328.046875-.5761719.0712891-.8652344.0966797-.3066406.0273438-.6132812.0546875-.9169922.1015625-1.0234375.1572266-2.046875.3242188-3.0703125.4921875-1.9677734.3212891-4.0029297.6542969-6.0029297.9052734-4,.5029297-7.9287109,1.3466797-11.6748047,2.5078125-.3007812.09375-.5117188.3642578-.5273438.6787109l-.0498047.8740234c-.0341797.5703125-.0634766,1.0576172-.0673828,1.5449219-.0029297.3056641-.0576172.6328125-.1152344.9794922-.1191406.7080078-.2539062,1.5117188.046875,2.3398438.2138672.5927734.1982422,1.1738281.1582031,1.8173828-.0527344.8769531-.1162109,1.7539062-.1796875,2.6308594-.1611328,2.2314453-.328125,4.5390625-.3203125,6.8232422.0068359,2.0908203-.09375,4.2207031-.1904297,6.2802734-.1201172,2.53125-.2431641,5.1484375-.171875,7.7470703.0478516,1.7294922-.0039062,3.5019531-.0546875,5.2167969-.0361328,1.2324219-.0722656,2.4658203-.0742188,3.6982422-.0068359,3.9042969.0292969,7.8085938.0644531,11.7128906l.0166016,1.8144531c.0058594.6503906-.0791016,1.2255859-.2763672,1.8652344-.3066406.9951172-.7128906,2.4882812-.7041016,3.9570312.0058594.9365234-.0380859,1.9013672-.0810547,2.8339844-.1005859,2.1914062-.2041016,4.4560547.296875,6.7119141.0224609.0996094.0136719.2685547,0,.5263672-.1337891,2.8603516.0947266,5.7226562.3154297,8.4912109.078125.9775391.15625,1.9541016.21875,2.9306641.0722656,1.1386719.2041016,2.2822266.3300781,3.3896484.1865234,1.6191406.3779297,3.2939453.3837891,4.9414062.0029297,1.1660156.5195312,2.0742188,1.5341797,2.6992188.5605469.3447266,1.1582031.5322266,1.7470703.5244141l.5322266-.0019531c1.2519531.0126953,2.6474609.0039062,3.9667969-.8554688.6914062-.4501953,1.2529297-.6376953,1.8251953-.5849609,1.5683594.1240234,3.0585938-.2910156,4.4296875-.7597656,1.1699219-.3984375,2.3896484-.7138672,3.5703125-1.0185547,1.3115234-.3378906,2.6679688-.6875,3.9960938-1.1601562,2.0986328-.7460938,4.2792969-1.1738281,6.3242188-1.5244141.7675781-.1328125,1.5742188-.0898438,2.4296875-.0429688.3378906.0175781.6757812.0351562,1.0126953.0429688.3183594.1796875.6396484.3525391.9609375.5253906,1.4707031.7910156,2.859375,1.5371094,3.8916016,2.9697266,1.8408203,2.5546875,3.1005859,5.0234375,3.8515625,7.5458984,1.21875,4.0976562.7548828,7.4931641-1.4169922,10.3798828-1.1884766,1.5800781-2.6601562,3.3369141-4.5664062,4.3857422l-.1308594.0722656c-1.4326172.7880859-2.7861328,1.5322266-4.2890625,1.6689453-1.1191406.1015625-2.2412109.2724609-3.3261719.4384766-.8759766.1337891-1.7519531.2675781-2.6308594.3662109-2.0117188.2304688-3.7138672-.3144531-5.0605469-1.6044922-.3144531-.3027344-.6347656-.5996094-.9550781-.8964844-1.2109375-1.1230469-2.3544922-2.1835938-3.2929688-3.5576172-.6738281-.9873047-1.4453125-1.875-2.1914062-2.734375l-.3740234-.4326172c-2.1259766-2.4648438-5.4130859-2.8203125-7.8154297-.8476562-1.9335938,1.5898438-3.84375,3.2919922-5.6953125,4.9423828-1.9902344,1.7734375-3.9560547,3.1826172-6.0107422,4.3076172-1.0546875.578125-2.0283203,1.3369141-2.9707031,2.0722656l-.5507812.4277344c-.7470703.5751953-1.0039062,1.4257812-.7207031,2.3964844.0556641.1933594.1875.3564453.3652344.4511719.8007812.4287109,1.2529297.9384766,1.5146484,1.7050781.9794922,2.8632812,2.3095703,5.7285156,4.0654297,8.7568359,1.7744141,3.0625,3.7841797,6.1914062,7.0869141,7.8457031.8476562.4238281,1.6835938.8798828,2.5205078,1.3359375.4316406.2353516.8632812.4697266,1.296875.7011719,2.1542969,1.1484375,4.4814453,2.0957031,7.1123047,2.8984375,1.5654297.4765625,2.9814453.8789062,4.4648438.984375,2.9394531.2080078,5.9365234.2226562,8.7597656.21875,4.5527344,0,8.7597656-.0419922,12.8476562-.1269531,3.4921875-.0742188,6.5927734-.765625,9.4804688-2.1142578.7148438-.3349609,1.4414062-.5976562,2.1601562-.7802734,1.7441406-.4453125,3.4550781-1.2890625,5.3828125-2.65625.3886719-.2753906.7753906-.5615234,1.1621094-.8476562,1.1640625-.8613281,2.3671875-1.7529297,3.6044922-2.3125,1.9257812-.8720703,3.7236328-2.1689453,5.8300781-4.2050781,2.6591797-2.5693359,4.6210938-5.2011719,5.9960938-8.0478516,1.4609375-3.0205078,2.7119141-5.1679688,4.0546875-6.9638672,2.4394531-3.2636719,2.9628906-7.2695312,3.2900391-11.0917969.0742188-.8671875.0595703-1.7402344.0439453-2.5849609-.0058594-.3662109-.0126953-.7333984-.0117188-1.0986328Zm-25.1542969,34.1435547c-.2402344.1181641-.5390625.2666016-.7978516.5253906-.9160156.9179688-2.0351562,1.3681641-3.2207031,1.8457031l-.2949219.1191406c-.5429688.2197266-1.0839844.4511719-1.625.6816406-1.2451172.53125-2.5322266,1.0800781-3.8085938,1.46875-2.7783203.8466797-5.8212891,1.1826172-9.8671875,1.0839844-1.0166016-.0244141-2.0410156-.0322266-3.0605469-.0322266-.9345703,0-1.8642578.0068359-2.7792969.0136719-.9882812.0068359-1.9824219.0136719-2.9648438.0126953-2.4570312-.0019531-4.9150391-.0078125-7.3730469-.0322266-1.4951172-.0146484-3.0517578-.2939453-4.8974609-.8789062l-.3847656-.1220703c-2.1367188-.6748047-4.1552734-1.3125-6.0507812-2.4892578-.4052734-.2509766-.8193359-.3945312-1.2207031-.5341797-.1386719-.0478516-.2773438-.0957031-.4140625-.1484375-1.1845703-.4589844-2.2373047-1.2509766-3.3525391-2.0908203-.5644531-.4248047-1.1474609-.8632812-1.7529297-1.2578125-.0742188-.0488281-.2050781-.234375-.3007812-.3710938-.0742188-.1064453-.1494141-.2128906-.2275391-.3105469-1.9667969-2.4697266-3.6835938-5.3818359-5.1044922-8.6552734-.6240234-1.4404297-1.2285156-2.8505859-1.7597656-4.2822266-.1103516-.2978516-.1572266-.6669922-.2158203-1.1347656-.015625-.1220703-.03125-.2490234-.0498047-.3798828l.9541016-.7011719c.921875-.6796875,1.8076172-1.3330078,2.7041016-1.9658203,1.9550781-1.3798828,3.5068359-2.6279297,4.8847656-3.9277344.9921875-.9355469,2.0517578-1.828125,3.0751953-2.6914062.5878906-.4960938,1.1757812-.9912109,1.7568359-1.4990234.6865234-.5986328,1.4912109-.8164062,2.6894531-.7226562.4257812.0322266.8154297.328125,1.3037109.9882812l.1914062.2597656c.8203125,1.1113281,1.6679688,2.2607422,2.5986328,3.2949219.7851562.875,1.6181641,1.7001953,2.4238281,2.4980469.4667969.4619141.9326172.9238281,1.3916016,1.3964844.7402344.7636719,1.5791016,1.2158203,2.390625,1.6533203.4335938.234375.84375.4560547,1.2304688.71875.3945312.2685547.8427734.2763672,1.1699219.2822266l.5449219.0283203c.5009766.0322266,1.0175781.0673828,1.5507812.0166016.6708984-.0644531,1.34375-.1152344,2.0166016-.1650391,3.2617188-.2451172,6.6347656-.4980469,9.8017578-2.3017578l.2666016-.1503906c1.3779297-.7822266,2.8027344-1.5898438,3.9570312-2.9726562l.2890625-.3447266c1.4472656-1.7246094,2.9433594-3.5078125,3.7050781-6.0029297.0253906-.0839844.0654297-.1640625.1015625-.2451172.0986328-.2158203.2216797-.484375.2421875-.8105469.2294922-3.8144531.2626953-7.5146484-1.8164062-10.8398438-.4580078-.7333984-.8486328-1.5400391-1.1376953-2.1601562-.8974609-1.9287109-2.1777344-3.4101562-3.5205078-4.8818359-.4228516-.4638672-.9121094-.7734375-1.3857422-1.0732422-.1455078-.0927734-.2919922-.1845703-.4345703-.2822266-.1689453-.1142578-.3486328-.2080078-.5283203-.3007812-.1894531-.0976562-.3535156-.1816406-.4716797-.2851562-2.2138672-1.9306641-4.7333984-1.7851562-7.1289062-1.4804688-1.3271484.1728516-2.7089844.4472656-4.2255859.8417969-1.5244141.3974609-3.1816406.8964844-5.0644531,1.5263672-2.8642578.9580078-5.8994141,1.734375-9.0195312,2.3066406-1.0058594.1835938-2.0673828.5126953-3.2441406,1.0048828-.8115234.3398438-1.6240234.2978516-2.3789062.2050781-.2353516-.0292969-.3691406-.1162109-.3564453-.4726562.0771484-2.0556641-.2041016-4.0576172-.4755859-5.9941406-.1279297-.9082031-.2558594-1.8154297-.3466797-2.7275391-.0332031-.3359375-.0361328-.6748047-.0410156-1.0146484-.0019531-.2109375-.0048828-.4208984-.0136719-.6308594l-.1904297-4.7529297c-.0351562-.9882812-.0693359-1.9755859-.1191406-2.9628906-.0566406-1.1044922-.1289062-2.2070312-.2070312-3.4169922l-.0869141-1.3466797.8378906-.7314453c.1630859-.1425781.2568359-.3486328.2568359-.5654297l.0009766-2.5078125c.0009766-1.6337891.0019531-3.2392578-.0009766-4.8447266l-.0205078-7.9541016c-.0195312-6.375-.0390625-12.75-.0146484-19.125.0068359-1.9248047.1132812-3.890625.2148438-5.7919922.0556641-1.0332031.1113281-2.0664062.1523438-3.0986328.0185547-.4414062.0126953-.8847656.0078125-1.3271484-.0048828-.3662109-.0097656-.7333984.0009766-1.0986328.1025391-3.6386719.2490234-7.8652344.6992188-11.9892578.0908203-.8398438.0488281-1.6855469.0078125-2.5029297-.015625-.3173828-.03125-.6347656-.0390625-.9511719-.0136719-.5400391-.0371094-1.0791016-.0615234-1.6494141l-.0087891-.1962891c.1953125-.0429688.3867188-.0859375.5761719-.1289062.8271484-.1865234,1.609375-.3632812,2.3857422-.4892578,1.1875-.1933594,2.3759766-.3652344,3.5654297-.5361328,1.125-.1630859,2.25-.3251953,3.3730469-.5058594.4619141-.0742188.9257812-.1269531,1.390625-.1796875,1.2822266-.1464844,2.609375-.2978516,3.8701172-.8662109.0283203-.0019531.1220703.0009766.1835938.0048828.1367188.0087891.2744141.0146484.4072266.0019531l.9521484-.0791016c.9521484-.0771484,1.9033203-.1552734,2.8525391-.2685547,1.4765625-.1767578,2.9511719-.3837891,4.4257812-.5908203l.9443359-.1328125c.3349609-.046875.7294922-.1142578,1.1220703-.25,1.7851562-.6201172,3.6005859-.8515625,5.5214844-1.0976562.6064453-.0771484,1.2119141-.1542969,1.8173828-.2441406,2.1582031-.3212891,4.375-.2753906,6.5205078-.2304688.7011719.0146484,1.4033203.0292969,2.1044922.0322266,1.2734375.0058594,2.6083984-.0175781,3.9550781-.3671875.6376953-.1650391,1.3330078-.1679688,2.0703125-.1708984.2451172-.0009766.4902344-.0019531.7333984-.0087891l.4130859-.0117188c1.9482422-.0556641,3.953125-.1044922,5.9365234-.1064453.8457031.0019531,1.5390625.0976562,2.1201172.2910156.8125.2705078,1.6484375.3730469,2.6308594.3242188,1.0830078-.0546875,2.1689453-.0410156,3.3203125-.0322266.2568359.0029297.5166016.0048828.7783203.0068359.0605469.7382812.1542969,1.4589844.2460938,2.1601562.1601562,1.2207031.3105469,2.3720703.2890625,3.5683594-.0976562,5.6113281-.1416016,11.53125-.1386719,18.6298828l.0039062.9042969c.0087891,1.4726562.0166016,2.8642578-.1757812,4.2871094-.1513672,1.1181641-.1728516,2.265625-.1806641,3.3847656-.7529297-.6992188-1.7734375-.9296875-3.0166016-.6660156-.4853516.1035156-.9716797.2021484-1.4580078.3017578-.9628906.1953125-1.9248047.3916016-2.8828125.6201172-2.4550781.5849609-4.8964844.7304688-7.6035156.8505859-1.2734375.0566406-2.5800781.0283203-3.8447266,0-.6357422-.0136719-1.2714844-.0273438-1.9072266-.03125-.3857422-.0029297-.7529297.0166016-1.0947266.0595703l-7.9609375.9892578c-.1210938-.0019531-.3271484-.0117188-.5566406.0820312-1.5273438.6347656-3.0585938.7890625-4.6748047.4804688-1.03125-.203125-1.9658203.4375-2.5878906.8574219-.2607422.1738281-.3847656.4921875-.3115234.796875.2197266.9199219.8183594,1.2402344,1.2138672,1.4521484.1523438.0820312.2558594.1386719.3261719.2041016.0039062.0087891.0078125.0166016.0107422.0253906.0263672.0605469.0703125.1630859.0742188.2050781.1318359,1.7363281.1611328,3.2822266.0908203,4.7246094-.0908203,1.8417969-.0576172,3.7109375-.0253906,5.5185547.015625.9082031.0322266,1.8183594.0332031,2.7265625.0019531,2.171875-.0205078,4.3447266-.0507812,6.5175781-.0097656.7490234-.1308594,1.2412109-.390625,1.5957031-.8623047,1.1738281-.4375,2.0195312-.1083984,2.4189453.9570312,1.1621094,1.9072266,1.015625,2.5390625.6884766.4814453-.25.9755859-.4619141,1.4697266-.6757812.3759766-.1621094.7519531-.3251953,1.1220703-.5019531,1.4599609-.6953125,2.8916016-1.3398438,4.375-1.5898438.3291016-.0556641.6064453-.2089844.8291016-.3330078.0888672-.0488281.1757812-.0986328.2636719-.1367188.1455078-.0615234.2890625-.1269531.4335938-.1923828.3388672-.1552734.6582031-.3007812.9599609-.3710938,3.9521484-.9150391,7.4355469-1.1308594,10.6503906-.6640625,2.2099609.3212891,4.3251953,1.4882812,5.9199219,2.46875.9365234.5761719,1.9384766,1.0175781,3.1533203,1.3886719,2.4824219.7558594,4.1142578,1.8359375,5.2910156,3.5029297.0576172.0810547.1191406.1611328.1816406.2421875.1308594.1708984.2675781.3476562.3037109.4775391.3339844,1.2128906.8828125,2.25,1.4140625,3.2529297l.3603516.6884766c.4169922.8115234.8554688,1.5029297,1.3818359,2.1767578.9833984,1.2578125,1.5703125,2.9960938,1.7949219,5.3125.1787109,1.8505859.3271484,3.7060547.4765625,5.5615234.1083984,1.3447266.2167969,2.6894531.3359375,4.0322266.0732422.8164062.1787109,1.7763672.4091797,2.7119141.4970703,2.0175781.8251953,4.1308594,1.1416016,6.1748047.0917969.5908203.1835938,1.1816406.2792969,1.7705078,0,.0039062.0214844.1240234.0224609.1279297.0107422.8789062.0292969,1.7578125.0478516,2.6367188.0810547,3.7792969.1640625,7.6875-.4736328,11.4541016-.2734375,1.6162109-.9501953,3.2011719-1.9560547,4.5830078-2.0810547,2.8583984-3.7685547,6.0830078-5.2568359,8.9287109-1.3876953,2.6484375-3.1835938,4.8691406-5.4921875,6.7880859-.1757812.1464844-.3447266.3066406-.5126953.4667969-.1445312.1376953-.2880859.2763672-.4394531.4013672-.1757812.1445312-.3496094.2939453-.5244141.4433594-.4736328.4072266-.921875.7910156-1.3925781,1.0810547-1.3417969.8242188-2.7011719,1.609375-4.0585938,2.3955078l-1.6494141.9570312c-.0791016.0458984-.1630859.0869141-.2460938.1279297Z" stroke-width="0"/>
  </g>
</svg>