<?xml version="1.0" encoding="UTF-8"?>
<svg id="Layer_2" data-name="Layer 2" xmlns="http://www.w3.org/2000/svg" viewBox="0 0 205.9010963 141.1783896">
  <g id="Layer_1-2" data-name="Layer 1">
    <g>
      <path d="m102.8426274,55.7492906c.563171-.4527743.6903691-1.1606331.9828896-1.7593639,1.4680927-3.0048132,3.0069791-5.9551865,4.8545592-8.7614553,1.5117274-2.2961179,3.1682886-4.4696983,4.9221899-6.5635188.946824-1.1303434,2.1311767-2.1083466,3.3504914-2.9489076.9591329-.6611936,2.1285447-1.0303042,3.3713019-.8434249.2845077.0427886.5757675.0407105,1.011531.0687867.2789998.2101483.7190524.4342783,1.0077156.7835347.4634063.5606662.6721438,1.1690553.3498724,1.9654108-.4347091,1.0742109-1.15065,1.9428835-1.7912114,2.8661324-1.8839459,2.7153015-3.8716764,5.3610397-5.6879334,8.1201371-1.6074273,2.4418679-3.0767227,4.9778139-4.5334457,7.5144639-.7645465,1.3313706-1.3713332,2.753339-1.9208403,4.2625857.3724937-.3145662.7719626-.6025125,1.1130119-.9481131,1.9094612-1.9349302,3.8436465-3.8476621,5.6943683-5.8377489,1.9713192-2.1197595,3.9238077-4.2636349,5.7691328-6.4925156,3.262881-3.9410828,5.7691473-8.3910358,8.3681218-12.7751876,1.5461875-2.6082487,3.3155441-5.0748373,5.3735115-7.2879012,1.6418032-1.7655563,3.3928807-3.4695457,5.6192481-4.5586855.3212925-.1571751.6950975-.4606871.7938064-.7751948.4271334-1.361058,1.460684-2.1989113,2.4772656-3.0534356.7297481-.6134012,1.4998963-1.1793881,2.2604078-1.755437,2.6113732-1.9779195,5.3376206-3.7653266,8.3116449-5.1676444,1.5542735-.7328736,3.1282044-1.1057159,5.0764746-.6304325.1566158.1885807.4616653.555871.6764338.8144768.3764941,2.2557514-1.1329178,3.5101442-2.1643419,4.9104569.8057091.2880428,1.593004.5695049,2.2810083.8154686.2570046.5838955.4473225,1.0162836.6642766,1.5092129-.0294457,1.635602-.9840409,3.050306-1.4444026,4.5411787.5648778.9010516,1.0908798,1.7400797,1.5699448,2.5042388l-.0958613,1.4878408c-.1969056.2000426-.4218103.4446256-.6635962.6711781-.7205775.6751322-1.595103.9271824-2.5611675,1.0903478-1.1503544.1942828-2.2968175.2201032-3.4107315.0147436-2.3523143-.433668-4.7172484-.9010409-6.6684927-2.4478579-.2040775-.1617777-.3556629-.3897606-.6564943-.7270684,1.3754163-.2142024,2.5507916.141758,3.7132548.0467097,1.1424768-.0934114,2.2776727-.0537944,3.4164218-.0739885,1.1615192-.0206047,2.3195098-.2401522,3.5776199-.3838561-.2158924-.5409505-.3873573-.970551-.5152589-1.2910222-.2057487-1.541252.3660133-2.8003116.8791991-4.0767437.1338622-.3329454.1998391-.6931984.3674003-1.2929998-2.1315254.7359113-4.0222532,1.3886974-5.8039586,2.0038334-.2460338.3382873-.4107485.5647735-.5982844.8226323-1.0755445.1028708-2.1787722.0758724-3.2107325.3339002-2.3514976.5879671-4.4915426,1.6897949-6.5288118,2.9995842-3.0197337,1.9414344-5.3432676,4.5803635-7.3984768,7.4604565-1.4511443,2.0335696-2.8276812,4.1280764-4.1142989,6.2694107-1.6552728,2.7549433-3.3504586,5.4738357-5.3766736,7.9756401-.1060566.1309541-.1048153.3488042-.1535226.5261838-.0843831.0367547-.1687745.0735001-.0609916.0265631-.0600576.1012073-.0132536.0223492.0335422-.0565182.9608503-.1078836,1.7477318-.6800113,2.5650976-1.0910046,2.2422647-1.1274266,4.5926522-1.9269133,6.9916209-2.5966865,1.2570429-.3509529,2.5463089-.7028427,3.83786-.7830045,1.4670454-.0910593,2.9662314.0272251,4.4257345.2350762.9329763.1328841,1.6282414.7615045,1.5957463,1.9896802-.2265129,2.058401-1.9875468,2.9662642-3.6482632,3.8262146-2.0472839,1.0601125-4.1995411,1.9225085-6.3274772,2.8204898-2.0389973.8604598-4.1069146,1.6522125-6.1585304,2.483063-2.4751189,1.0023725-4.7188247,2.4036816-6.8375748,4.0130604-.4135251.3141139-.8170565.6146459-1.4993198.663571.0768005-.3426922.0547059-.6590014.2011965-.8349495,1.9160275-2.3012508,3.8440713-4.559156,6.5051546-6.110831,1.8382792-1.0719086,3.644248-2.1736173,5.6078955-3.0097115,2.908739-1.238487,5.7988077-2.5209959,8.6925661-3.7943957.2748311-.1209371.5196018-.3101599.8804803-.5298875-.5904694-.4152581-1.1532208-.3684849-1.6199613-.2967495-2.3185112.3563073-4.5791812.955883-6.7581616,1.8399989-2.6373,1.0700857-5.0833372,2.5005679-7.4577183,4.0479449-1.0367237.6756334-2.0080695,1.4656277-2.9450713,2.277583-2.7269496,2.3630485-5.4697082,4.711586-8.1130911,7.16616-1.9888647,1.8468096-3.8286204,3.853755-5.7452727,5.7789266-.9779671.9823144-1.9749825,1.9458093-2.9711221,2.9098377-.7879659.7625779-1.5876961,1.5130084-2.3448373,2.2332691.1004649.3624545.1710776.6171843.2596137.9365815-1.0420924.7722617-1.4827012,1.8205126-1.4166959,3.0858896-.0844811.0356704-.1689535.0713414-.0732817.0309402-.0527743.0912943-.0066522.0114999.039487-.0682846.7363049-.8985248,1.4835365-1.7883579,2.2067119-2.6973155,1.6232146-2.0402831,3.5896077-3.7072717,5.7531658-5.1239856,2.2946309-1.5025747,4.7390012-2.7483786,7.2908686-3.7630892,2.6658911-1.0600439,5.4245191-1.8246126,8.2671496-2.1869391,2.8189233-.3593034,5.6579578-.1069699,8.4488235.2785895,1.7424672.2407235,3.4693335.825617,5.1169256,1.4749416,3.7428088,1.4750583,7.5142276,2.8607113,11.3474345,4.0772939.7137149.22652,1.4612575.3495773,2.1966557.5039619,2.5380182.5328302,5.1188216.7411611,7.6983535.7651634,2.4985914.0232318,4.955092-.3748853,7.3061958-1.5319067-.0503147-.15218-.0774223-.2643756-.1232287-.3683126-1.2374051-2.8077278-1.0294959-5.5348988.4963753-8.1662857,1.6033501-2.7650481,3.4764346-5.3141035,5.9194469-7.4203662,1.691717-1.4584952,3.6580169-2.3393226,5.7932446-2.8279696.7705967-.1763381,1.6179343-.0173832,2.4351367-.0114023.3605655.2733496.6969364.528352,1.0787148.8177801.1648721.3794252.3530739.8125649.6169316,1.4198312-.1847366.7026318-.4085625,1.55391-.6540849,2.4876785.7780545-.157417,1.3870363.3673976,1.7500277.9059015.3608963.5353647.3485574,1.3223362.4984928,1.992835,1.9987267-.1898987,3.4154074.8279566,3.7761955,2.3834037.1476793.6366709.2357202,1.2878161.3352521,1.9347802.0569863.3703623.093743.7447669.1203673,1.118722.1185983,1.6664881-.1848488,3.162474-1.4244604,4.4327081-1.8823192,1.9287885-4.2455109,2.8699559-6.7409721,3.6640451-3.2797537,1.0436606-6.605468,1.1527889-9.9829215.7917378-.7607988-.0813311-1.443606-.3031825-2.0495828-1.0109544.3298632-.209011.5812209-.3907584.8519915-.5364414,3.794824-2.041874,7.8863182-3.2772912,12.0149794-4.410998.9480785-.2603221,1.9007379-.5056195,2.8417601-.7894491.8208695-.2475947,1.4195625-.7509986,1.6805278-1.7538499-.2267187-.8252059-.4854021-1.7667639-.7710994-2.8066126-.6050159.1023495-1.10067.1861916-1.4850691.2512155-1.5679623,2.4980358-3.8471492,3.9009291-6.2239943,5.2218682-2.3203748,1.2895343-4.6696914,2.4413074-7.5135087,2.7237248-.1143845.2067246-.2900892.5242415-.5632539,1.0178437-.4813136.0686229-1.1213297.1598814-2.0952291.2987336-1.4983029,1.1085781-3.5550756,1.7685012-5.6874788,2.1927396-.9177104.1825787-1.8737108.2811524-2.8073287.2528531-1.9720907-.0597671-3.9561006-.1174835-5.9063755-.3858395-1.6670502-.2293788-3.3157238-.6290523-4.9600466-1.0548384-3.7272248-.9651317-7.2726924-2.4506077-10.9414897-3.5699524-.8516012-.2598177-1.7368602-.414421-2.6120989-.5901504-.8335943-.1673736-1.6695558-.3396977-2.5128338-.4387838-2.37582-.2792153-4.7463574.0049611-7.0553165.4532826-4.9092156.9532009-9.4332047,2.9705028-13.6169655,5.6719777-3.435868,2.2185609-6.3034892,5.0811327-8.6308571,8.4625269-.986867,1.4338132-2.0086024,2.8325455-2.772222,4.4223028-.5931382,1.2348194-.9569546,2.4619089-.9184602,3.8835615.2486393.330013.5327443.7070916.8381434,1.1124298-.0990756.2365425-.1862484.4446846-.2840498.6781813-.7735342.1144122-1.5066033.2228431-2.164897.3202136-.6309076-.4269734-.9244439-.9737791-1.0412654-1.5912936-.2096601-1.1082082-.4480162-2.2150931-.3666074-3.3602671.1426919-2.0073312.2624881-4.016279.3937882-6.0541566-.4403209-.0968128-.7990151-.1756693-1.1293759-.2482999-.204267-.4180316-.3775971-.7727398-.5509185-1.1274474l.0348868.0426102c.4254915-1.085567.4616558-2.2369784.48355-3.372892.0104323-.5416589-.1882507-1.1045049-.372518-1.6295675-.5601827-1.5961272-1.139403-3.1862797-1.7484609-4.764385-.831303-2.1538943-1.6540437-4.3128653-2.5608889-6.4352934-.7819682-1.8301661-1.7232238-3.5891191-2.9892904-5.1415011-1.4843584-1.8200728-2.9371709-3.6730857-4.5289856-5.3960212-1.2866691-1.3926571-2.7646851-2.6077765-4.1475976-3.9124878-1.2833412-1.2107585-2.5031529-2.4941903-3.8410006-3.6405302-1.8620623-1.595518-3.5527351-3.348733-5.0892632-5.2461148-2.2642256-2.7959617-3.7145857-6.0007034-4.4436934-9.5129553-.1900806-.915649-.1099859-1.8864203-.1673113-2.831073-.0226472-.3732835-.0837985-.7441439-.123104-1.1165656-.0148225-.1404963-.0454866-.2873192-.0212132-.4226944.1991407-1.1101.4095409-2.21818.6367003-3.4349754-.490677-.8727496-.9481241-1.9114087-.8160427-3.0797372.122225-1.0813157.115163-2.153581.4019661-3.2483399,1.0436387-3.9835375,3.1934667-7.3133705,5.7785236-10.4103098,1.7016385-2.0385791,2.602956-2.7002903,4.4224965-3.5012466.6265255.0403669,1.2494345.0805009,1.9905897.1282534.2169912.296655.4727662.6463371.8427009,1.1520919.0756751.6030764.1748594,1.3935354.2838963,2.2624295.4960492-.1073909,1.0526895-.2910816,1.6197999-.3329616.5704924-.0421215,1.1513961.0568349,1.5422475.0820174,1.3545223.3664028,1.6727523,1.3972186,2.1184208,2.5325657-.0992267.7733238-.2189076,1.7059888-.3305119,2.575697.4804835.6924984.9809698,1.4138227,1.5083313,2.173879-.173799.7853471-.3355397,1.5161538-.5072549,2.2920615-4.0990424,3.9557669-8.9036017,5.8417373-14.716739,4.9579175-.2485695.6379356-.6257047,1.2275079-.6924836,1.8503525-.1781211,1.6614196-.3098769,3.3382852-.28809,5.0067708.0132291,1.01344.2788228,2.0409749.5491666,3.0298937.5009329,1.8324965,1.3127846,3.5150931,2.4117149,5.0922358,1.3517209,1.9399571,2.9926947,3.5666823,4.7595439,5.1107287,2.0048737,1.7520494,3.8986803,3.6312223,5.9041092,5.3826095,2.526675,2.2065946,4.8885259,4.5667674,7.040356,7.1378588,1.468755,1.7549187,2.6748729,3.689188,3.7934763,5.6771343.434415.7720091.7817303,1.5930389,1.2823777,2.6263257.0635351-.9861127.2008083-1.7479018.143887-2.4948998-.1584986-2.0802826-.063844-3.9488835.4018545-6.079102.0712986-.3261436.0618392-.6704261.0844752-1.0066677.239441-3.5565377,1.1537833-6.9714865,2.2370224-10.3415614.6010241-1.8698437,1.2808657-3.7218766,2.2800133-5.428441.3330415-.5688258.69382-1.1356128,1.1277012-1.6277048.5750767-.6522336,1.2459474-1.2044136,2.3211916-1.0005029.2040281.2180858.4608055.4925549.6907659.7383598-.1246544,1.9347311-.0980339,3.8333328-.4120233,5.6738324-.2577361,1.5107536-.2727875,3.0462355-.5800499,4.5272461-.2339296,1.127545-.1597928,2.3171831-.5119137,3.3656304-.4622412,1.376322-.0972445,2.865762-.7705091,4.1719291-.0206001.039963-.01628.0945557-.017486.1424836-.0543349,2.1520484-.813579,4.2282134-.68896,6.3994614-.3651909.0627094-.4013521.2292693-.0972378.5755538.0296936-.2562548.0498439-.430217.0700036-.6041874Zm6.3992795-4.4792255c-.428198.0017907-.2816141.3341438-.3215972.5591987-.0855193.0375209-.171038.0750331-.0754717.0331142-.0510305.0928911-.0056653.0103088.0397086-.072273.3920685-.0151016.3030874-.3167584.3279698-.5505883.3970281-.0128116.3107935-.3154048.3319633-.5536003.8472679-1.1045332,1.6917832-2.2111876,2.5423673-3.3131568,1.9375078-2.5101176,3.7894078-5.0880353,6.0219991-7.3600629.8380783-.8528774,1.5838923-1.7964094,2.3985777-2.72931-.1872974-.0557788-.2818739-.1158952-.3636652-.1018143-.1825334.0314205-.3601518.0954442-.5372029.1539555-1.3823833.4568694-2.2873576,1.5674218-3.1330697,2.6036475-2.5067745,3.0714902-4.7300529,6.3543816-6.6460249,9.8337646-.1517434.2755792-.1804807.6188852-.2663908.9307186-.4269139.0081911-.2912662.3333717-.3191634.5664065Zm71.7807267.2760541c-.8093891.0403368-1.4077906.5205652-1.9568864,1.0251855-1.1249407,1.0338305-2.2952997,2.0399852-3.2788349,3.2000554-1.0617772,1.2523655-2.0681137,2.5622641-2.8733682,4.022561-.8695513,1.5769679-1.1987678,3.2131719-1.0596945,5.1013823.3437839-1.2045762.5914493-2.2983224.9683044-3.3455737.7752771-2.1544079,2.1671866-3.9466281,3.5053884-5.7700712.9361059-1.2755719,2.077109-2.1911679,3.7878249-2.3778513.29349-.6192648.5912143-1.2474727.8889386-1.8756805.0827678-.039112.1655362-.0782327.0422317-.0199608.0701042-.1171185.0231089-.038582-.0239041.0399533Zm-76.7917642-17.0499219c-.0908274-.0098282-.1816636-.0196569-.2724915-.0294762-.8450998,2.6244069-1.7527356,5.2309123-2.5113374,7.8800927-.4401192,1.5369618-.5334279,3.1734768-.9768668,4.7091643-.5251679,1.8186937-.7432623,3.6900682-1.1228501,5.529752-.4127767,2.0005682-.4905631,4.0689757-.7428643,6.1042793-.2774956,2.2385941-.0145364,4.4241629.6231524,6.8231497.3262414-.9104984.5718815-1.6353075.8451331-2.3495458.4230546-1.105755.7553265-2.2297118.8039045-3.4226651.0117419-.2883901-.0407232-.6160575.0766941-.8573737.6417746-1.3189405.2668182-2.8076703.7710591-4.1727861.3346548-.9059978.3083612-1.9539178.46255-2.9325816.3090247-1.961474.6532132-3.9145326.9916983-5.8712279.3406353-1.9690861.4849438-3.9721603.7137214-5.9605233.0220018-.191179-.0173912-.4061768.0568905-.5719506.5908412-1.318617.3337808-2.7365563.4890574-4.1045755.0280206-.2468816-.1334551-.5152767-.2074506-.7737323Zm-31.9398841-17.8458635c4.6787993-.9640041,9.8854725-3.3136471,11.9479105-5.3556909-.7419143-.6465189-.9101507-.7170008-1.7168626-.2452192-1.9739597,1.1544065-4.1021201,1.9388892-6.3216491,2.3464515-1.9664962.3610948-2.8829852,1.7157795-3.9093988,3.2544586Zm85.3925234-3.2284256c-2.3044037.4343935-8.3812822,4.680955-9.2598305,6.2552138.5330584.0583432,1.1055122.1210007,1.8868237.2065119,2.6071636-1.7444498,5.3391715-3.6966908,7.3730068-6.4617256Zm-84.7723796-.9976053c-.0369807-.7089779.3266856-1.4257718.9359785-2.0868369.795559-.8631495,1.5151747-1.7983186,2.2405076-2.7236207.8083363-1.0311542,1.497551-2.1184661,1.3659121-3.5907812-2.3786843,2.082773-6.4619882,8.4853675-6.5562218,10.2056316.6198745-.5554082,1.2541996-1.1237666,2.0138236-1.8043928Zm110.4397859,43.4894768c-.0711554-.0851681-.1422926-.1703439-.213448-.255512-.6534402.4449791-1.3807623.8128229-1.9437961,1.3521981-.9549567.914815-1.8922654,1.8744341-2.6742355,2.935213-.6346845.8609721-1.3957893,1.2023935-2.3662261,1.1975405-1.1335423,1.081759-1.359594,1.4187492-1.6308404,2.4942232,1.9592975-1.2957451,3.8398146-2.5393887,5.6874383-3.7612682-.0581542-1.2974051.6736501-1.9465609,1.55154-2.4900018.6317649-.3910716,1.2810175-.7592624,1.5895679-1.4723928Zm-84.860443,11.4490371l.3070137-.0057726c.1580968-.5199691.3162019-1.0399287.4992866-1.6420435-.1863502.0724207-.2987751.1161163-.4160125.1616842-.1905175-.1632367-.3887799-.3331222-.6693387-.5735192.1034755.7637639.1912629,1.4117119.2790509,2.0596511ZM82.3784381,6.8112828q-.7504261-.1475595-.9639033.4226919c.353011-.1548045.6045185-.265095.9639033-.4226919Z" stroke-width="0"/>
      <path d="m180.7039794,96.7225035c.0913419-1.4176964.1686594-2.6177223.24713-3.8356462,1.881854-3.0079936,4.1652352-5.6918691,7.0107392-7.8159283,1.7309923-1.2921379,3.6424056-2.3874857,5.8423092-2.7285233.7887961-.1222648,1.6088898-.0426712,2.3640223-.0544205.3667906.3947851.6605869.7109989.9122743.9819104.1401302.5135684.26252.9621013.4031341,1.4774858,1.3745262-.0585841,2.764277-.5199535,4.13252.1964538.3515055.457304.7029929.9146157,1.1443225,1.4887923.0021905.1023197-.0643426.3686242.0241917.5650341.4736715,1.0508376-.0398214,1.933782-.4652872,2.8131026-.3693796.7633665-.8276006,1.483748-1.312141,2.3388956.237507.1220935.4884052.3002035.7676703.3863745,1.4726858.4544362,2.784027,1.043006,3.5623198,2.5484185.8921809,1.7257666.6920647,3.3522544-.3627919,4.8013823-1.0081506,1.3849577-2.4220172,2.3157985-4.1531875,2.7579624-2.1942849.5604774-4.3916522.9192-6.6635575,1.0510647-1.5895883.0922561-3.1641359.0931459-4.7086844-.128835-2.4051321-.3456767-4.8122612-.7955781-6.9820589-1.965169l.0404786-.628259c.5627818-.1429679,1.1003219-.2795302,1.6525396-.4198122-.7252554-.2498217-1.4430601-.4970692-2.1894589-.7541733-1.4899059.232207-3.0680296.4358894-4.6277402.7353112-1.1444646.2197121-2.2756382.1023066-3.4159678.0823015-.6089365-.0106937-1.2414508.1950757-1.8256748.0912886-2.9625281-.5262955-5.9141896-1.0366578-8.7593498-2.1445705-2.3210146-.9038297-4.6015557-1.8680784-6.8352435-2.9585778-.4199456-.2050125-.8507033-.3878542-1.1903638-.5418796-2.7494132.7207001-5.4068057,1.4685-8.0902644,2.1068664-2.9131248.6929929-5.8341997,1.3538586-8.8137073,1.7367544-1.9475337.2502771-3.8711097.6822091-5.8154918.9631113-1.3491491.1948962-2.7226829.2205244-4.0722143.4133991-1.6771615.2396872-3.3794318.1551308-5.0512891.482547-.779712.1526979-1.5843966-.0350885-2.4082354.1128136-1.1541305.2072227-2.3705928.0354417-3.5497305.1428507-1.6987167.1547283-3.4110734-.1258667-5.1003544.2026359-.1379788.0268337-.2877841-.0088047-.4321633-.0130529-3.0132187-.0885608-6.0275075-.1509124-9.0392951-.2743005-1.971965-.0807797-3.9438946-.2109322-5.9091307-.3917604-1.5639018-.1439077-3.1418311-.2882863-4.671077-.6251731-3.6191507-.7973017-7.1913048-1.7873972-10.6034238-3.2633626-2.7435133-1.1867451-5.2940323-2.7312895-7.5364984-4.6966776-1.492533-1.3081073-2.9638593-2.7027568-3.816158-4.5711015-.2717426-.5956956-.618692-1.2081918-.6759156-1.8362601-.0570986-.6264433.2058824-1.2820721.3176859-1.8681123.4105172-.3960665.7550272-.7284552,1.0440821-1.0073457l2.4368332.1570047c.5532749.7336232,1.1130548,1.5658238,1.7662622,2.3167539.6561058.7542182,1.3552523,1.4877148,2.1229441,2.1249955,2.3700658,1.9674419,4.9661762,3.5764747,7.8454908,4.7028461,2.0563244.804425,4.1628158,1.4140251,6.3209884,1.9097996,2.2363277.5137193,4.4766372.8516747,6.7602984.977569,2.3558071.1298623,4.7090721.3102879,7.0657553.4179136.9907361.0452599,1.987391-.0401533,2.9813879-.0651145.993882-.0249597,1.9962056.3024796,2.9833258-.0746208.0826257-.0315576.1906242.0067506.2868473.0068888,1.6674264.0021962,3.3381322.0697863,5.0014293-.0123132,1.9398405-.0957642,3.881341-.1317171,5.8187309-.2248294,1.6508644-.0793485,3.3003828-.1807321,4.9539365-.2427125,1.9396267-.0726985,3.8771315-.171158,5.8186367-.2247383,1.7945151-.0495319,3.5855096-.2471155,5.3882691-.2010682.655766.0167416,1.3141949-.0934235,1.972166-.1333989.6579887-.0399743,1.3357616.2345063,1.9758135-.1340564.0710441-.0409188.1891129.0026417.2853476.0021887,1.5230823-.0071215,3.0471117.0157629,4.5689848-.0310127,1.6871129-.0518394,3.3722578-.1674861,5.2513764-.265422-2.1090032-1.2538475-4.0493661-2.335415-5.9158409-3.5322136-3.7768868-2.4217696-7.6076654-4.7509473-11.5180668-6.9493939-1.926124-1.0828679-3.9148658-2.0663457-6.011349-2.7402185-2.179016-.7003966-4.430239-.879664-6.7556922-.6383264-1.7739556.1840934-3.3543329.8525501-5.0877009,1.3140114.4697707.2925174.9597689.4807752.7970546,1.1870614-.2596682.3949351-.6404459.6250971-1.2207533.73343-1.2387014.2312592-2.4508779.6046037-3.6831641.9221173-.370119.563097-.6676224,1.1753967-1.1128816,1.6486597-.4531974.4816846-.0153143,1.4266948-.9885682,1.6478244-.6852037-1.0792226-.3549347-2.2608214-.3157964-3.5464355-.1196448-.2726714-.2898152-.660514-.4601334-1.0486665-.1774441-1.1658103.3708447-1.9908819,1.2331406-2.7168791,1.3141118-1.1064229,2.5977198-2.2642392,4.2265815-2.8830775,2.058945-.7822314,4.1168753-1.5450096,6.3290666-1.8714626,2.3242972-.342981,4.5736839-.3453129,6.9001244.1333727,2.8962949.5959495,5.5464212,1.7357939,8.152985,3.0322757,1.8103742.9004589,3.6195464,1.8184769,5.3504486,2.8596699,2.1013998,1.2640668,4.1199704,2.6658415,6.1742266,4.0082762.8695477.5682343,1.7258528,1.1579613,2.6101848,1.702169,4.8914321,3.0101009,9.8577935,5.8846974,15.2907385,7.8268326,1.5429475.5515547,3.1598765.8978374,4.7461198,1.3262433,2.7143641.7330776,5.5163979.5796851,8.2817029.7931085.3045445.0235007.6206179-.1025901.9837856-.168867Zm9.5239292-8.7093662c.0832018-.0362477.1664041-.0725041.069347-.030213.0514374-.0945437.0074976-.0137869-.0364247.066971-.1046473.0882349-.209294.176461-.3139248.2647146-.71461.6077452-1.5017351,1.1495058-2.1279053,1.8377364-1.1089406,1.2188606-2.1200601,2.5267456-3.1996666,3.830651.0047462.3857551.0097371.7918487.0140135,1.1410105.7945842-.0587769,1.4838369-.1097611,2.163856-.160059.1507267-.3472952.3532913-.6746655.4369249-1.0300211.4488059-1.9069806,1.366541-3.5724283,2.539716-5.1179141.1027931-.1354321.1031176-.3486485.1510373-.5257343.1010085-.0923748.202017-.1847496.3030267-.2771421Zm11.9210557,8.4620462c-.8104732-.5190998-1.6651152-.7939843-2.5486534-.8878005-1.2902459-.1370294-2.5909658-.1819831-3.8883568-.2404797-.2724145-.0122942-.5510074.0809031-.8247644.1355251-1.8993449.3789491-3.6767948,1.1161934-5.4545059,1.8541983-.5291816.2196725-1.0683698.4152763-1.8219841.7065417,1.0013638.4779681,1.8769211.2661304,2.7459816.4826195.0890231.0977619.2174903.2388517.3205903.3520909-.0895708.3070736-.1513796.5189793-.2488385.8530331.5226942-.1236465.880227-.2407042,1.2468676-.2895715,2.0449763-.2724947,4.0991614-.4844002,6.1358813-.8073056,1.1498467-.1822898,2.3223006-.3490209,3.3820954-.9090519.4725146-.2496723.9409161-.4818583.9556869-1.2497995Zm-11.3497715-3.0302996c4.0698208-2.5011013,3.188525-1.5973301,6.0703962-2.1727778.6735303-1.1012892,1.7799311-1.9033198,2.2555064-3.1613003-.1199502-.0379472-.2202308-.1085482-.2941417-.087315-1.3455669.3866986-2.7004491.74765-4.0251306,1.1972011-.561988.1907153-1.053804.557563-1.4426674,1.060234-.8303756,1.0734323-1.7065539,2.1114415-2.5639629,3.1639581Zm-.8827588,6.1805944c-.0007111.0820752-.0012298.1438844-.0017655.2056837.0378371-.027728.0756912-.0554461.1135271-.0831565-.0303714-.033289-.0607252-.0665769-.1117616-.1225272Z" stroke-width="0"/>
      <path d="m155.1960377,96.5958052c.3663154.1698449.9172631.4253126,1.4264457.6614072.9256207,1.5279378,1.1708705,3.1552431,1.1281676,4.8131146-.083605,3.2444559-.9321449,6.3365562-2.0193516,9.3739329-1.1736596,3.2787793-2.5670425,6.4553961-4.3928331,9.4262329-.6415584,1.0439099-1.3668057,2.037824-2.0795814,3.0361997-.9877567,1.3835767-1.9671618,2.7752197-3.0109581,4.1160426-.9591962,1.2321313-1.9112604,2.4909824-3.0215673,3.57992-2.2859795,2.2420182-4.6813227,4.3662584-7.764505,5.5066225-1.8541517.6857724-3.7691206,1.139907-5.7134933,1.436847-2.9213624.4461785-5.8574411.7949206-8.7835826,1.2110495-2.1326943.3032735-4.2553324.6794905-6.3906514.9609646-.9822462.1294785-2.0001504.0154742-2.9732871.1804769-1.3626024.2310431-2.7482627-.124249-4.0948976.250364-.1765418.0490985-.3826571-.0137157-.5751554-.0155152-1.9081124-.0178979-3.8249222-.1569842-5.7224599-.0231773-3.3245631.234434-6.6089062-.1941859-9.9035664-.4130342-2.8837191-.1915585-5.6988235-.8532912-8.4456495-1.751916-2.818927-.9222145-5.5001418-2.1855646-8.0551427-3.6713827-2.6230833-1.5254246-5.0796208-3.306716-7.1820147-5.5298711-.8203317-.8674726-1.7250609-1.662998-2.4808286-2.5821715-2.3297714-2.8335227-4.313634-5.8893545-5.6469484-9.3292336-1.2743247-3.2876703-2.1545077-6.6869382-2.823067-10.1444073-.4619611-2.3890961-.9330308-4.7764287-1.3932652-7.1658554-.2514958-1.3057268-.4622996-2.6153351-.1397284-4.1108223.1549645-.1237031.4165582-.3325269.6693769-.5343437l1.4790722.0952964c.2311158.3618597.5572913.7659122.7695821,1.2228794,1.0725852,2.3087295,1.8691197,4.7209814,2.569518,7.1631517.8133644,2.8360555,1.4300144,5.7393135,2.4185932,8.5112169.9646036,2.7046195,2.0210053,5.4125028,3.8510121,7.7152324.9175346,1.1545233,1.6638652,2.45989,2.6678919,3.5275092,1.6256862,1.7286434,3.3153309,3.4195077,5.2731755,4.7843413,3.6105485,2.5169774,7.4839252,4.5122158,11.7315731,5.7400291,1.3183487.381068,2.6616326.6126484,4.0065109.8732426,3.8868615.7531407,7.8312365.68837,11.7493903.9796941.9388332.0698196,1.8912776-.0515944,2.8377356-.0735129.8985957-.0208494,1.7967808.2314108,2.7005411-.080108.2963182-.1021194.6670811.0239297,1.0038744.0251122,2.5036981.0088402,4.9808781-.2650811,7.4653401-.5690525,3.4579801-.4230557,6.7772079-1.4244025,10.1532207-2.1899533,1.1403783-.2585972,2.2776461-.5317266,3.4121404-.8150193,1.6080126-.4015279,3.1444754-.9915412,4.5753709-1.8334117,1.6668139-.980645,2.9973834-2.3510056,4.3413741-3.7176562,2.0692754-2.104144,3.7137337-4.5933192,5.9840344-6.5184842.4876661-.4135213.8625399-1.0188746,1.143147-1.6057729.6258331-1.308905,1.1484184-2.6667686,1.7327105-3.9960573,1.301009-2.9598856,2.4241439-5.9874104,3.3378699-9.086011.4245428-1.4396127.6911986-2.9271187.9998671-4.3990968.1941878-.9261195.2142228-1.9063226.5278955-2.7853532.39025-1.0935986.7908268-2.3222428,2.6571033-2.2496598Z" stroke-width="0"/>
      <path d="m39.191371,99.7772072c-1.5246767,1.2884835-2.9335765,2.5286983-4.3953432,3.7031076-2.3265416,1.8692151-4.9991901,3.0513513-7.9311976,3.5031881-1.4417865.2222125-2.9501491.3427637-4.4127854.0369414-1.6036712-.3353025-3.2189603-.6344901-4.5998249-1.6591299-.7990816-.5929145-1.4284489-1.2477907-1.593409-2.2381812-.0584483-.3508938-.0015773-.7429551.0931821-1.091612.1085738-.3995276.3178023-.7716996.5304961-1.265266-.4503233-.1817696-.9164636-.3441916-1.3601754-.5540399-1.1392214-.5387966-2.0922307-1.2704033-2.6432206-2.4631175-.5865187-1.2696226-.3441723-2.8460025.7191936-3.9101843.5771688-.5775988,1.2067819-1.1053946,1.8355417-1.6282443.8948199-.7440829,1.5385522-1.6784906,2.0710728-2.6918466.4393876-.8361349.4161498-.8483501,1.1735329-1.4832932.4680546-.0754679,1.0511632-.084172,1.5710148-.2699149,1.3502601-.4824427,2.5500477.0230216,3.6391482.633597,1.4345525.8042409,2.7566164,1.8121122,4.1114581,2.7548275,1.8450434,1.2838124,3.872685,2.0735154,6.0843889,2.4833901,1.7916234.3320289,3.6175657.6243514,5.2211873,1.6660118.1654445.3904274.3305708.7801009.4909762,1.1586374.4066436-.0467847.8287831-.0403242,1.2190162-.1487189,4.1369441-1.1491927,8.1980036-2.5420565,11.8846391-4.7626007,2.8673021-1.7270352,5.4478415-3.8638187,7.7215369-6.3584168,1.4133237-1.5506537,2.9456403-2.992549,4.4168239-4.4908508,1.1008792-1.1211687,2.1470127-2.3000995,3.296678-3.3681048.9425354-.8756239,1.9702441-1.6694354,3.015924-2.4220888,2.047545-1.4738023,4.2964824-2.5782144,6.7430866-3.1913639,1.5398437-.3858978,3.0932159-.7915559,4.7134752-.7568429.413242.0088561.8474159-.0760844,1.2411862-.2090712,1.1021953-.3722397,2.1696243-.181839,3.1780909.2410176,1.5545909.6518415,2.9281286,1.563095,3.6307201,3.2015941.7039682,1.6416804,1.4197396,3.2750202,1.5752012,5.0935992.1601569,1.8733815.4490116,3.7000955-.0598742,5.6145505-.3345848,1.2587322-.5638946,2.5688334-.9274747,3.833261-.1666345.5795209-.4229547,1.1413702-.7066888,1.6750427-.1110207.2088234-.4087382.3183985-.785809.5927845-.057685-1.2213064-.12047-2.2485335-.1518438-3.2767145-.0689529-2.2598377-.2959956-4.5003757-.8090414-6.7048143-.4162971-1.7886956-.9054878-3.5497305-1.8942745-5.1335166-.9702685-1.5541324-2.5623903-2.1690104-4.379944-1.8126423-2.9890996.5860783-5.5490797,1.9775335-7.9948147,3.7496053-1.8011035,1.3050009-3.2415715,2.9305397-4.7550523,4.5068677-1.7485551,1.8211792-3.48212,3.6570994-5.2521968,5.4571172-1.0388025,1.0563718-2.0797799,2.1230476-3.2173465,3.0675905-3.7101606,3.0806102-7.8166559,5.4424624-12.4222432,6.9798855-2.2349902.7460687-4.5032357,1.2674533-6.7981269,1.7061575-1.0138844.1938155-2.0708235.1624038-3.0868839.2318018Zm-9.0936948-3.0795521c-.4607454-.2375154-.9204388-.4534388-1.3599309-.7047119-1.9036221-1.0883719-3.5418334-2.5172243-5.1613194-3.9798429-.695675-.6282934-1.5061788-1.1314905-2.2772944-1.6733253-.3767892-.2647637-.7895551-.2852614-1.2740491-.0262968-.0556078.1229299-.1340159.2869888-.2048029.4542689-.3886045.9183028-.8387504,1.7937359-1.5685716,2.502282-.8560726.8311392-1.6933862,1.6816095-2.5144242,2.4993752l-.0599299.9301573c1.6089898,1.3272475,3.2903132,2.5582492,5.652497,1.7571104.9138233-.309925,1.8322103-.4610395,2.7854048-.2169604.5142845.54872.5067843.5538388.6285353,1.2537213-1.216445,1.3982041-2.9895322,1.3654404-4.6790646,1.7268495-.352885.3971643-1.0952814.5705479-.9906607,1.4287178.7684795.4999152,1.5851501,1.0572939,2.5231137,1.1227809,1.6588705.115858,3.3027102.3105183,4.9995751.1302233,3.7139435-.3946002,6.9515965-1.840189,10.1705001-3.9974733-.4655189-.1717921-.755424-.3605887-1.0531638-.3738873-1.0511191-.0469325-2.0784877-.2055582-3.079105-.5212861-1.3784998-.4349548-2.7993964-.7849183-3.9178488-1.7700398.2704605-.7429847.9649969-.260902,1.3805392-.5416629Z" stroke-width="0"/>
      <path d="m96.5434874,77.0540801c.05672.7034947.0667181,1.4144938.1782578,2.1091856.4890684,3.0462912.1696408,6.0866941-.0172455,9.1293897-.0349424.5689379-.0260936.5692871-.5149699,1.1986627-.1353832-.263047-.3031168-.4772393-.3606721-.717812-.6956066-2.9071169-1.2876658-5.8421991-2.0826438-8.7214352-.8220654-2.9773458-1.6862655-5.9603752-2.8089554-8.8326717-1.1859788-3.034166-2.6355589-5.978516-4.7033212-8.5493775-1.2904583-1.6044244-2.5158433-3.2810691-3.9600279-4.7372616-2.1101447-2.1276787-4.5909276-3.7483843-7.5278814-4.5749289-1.365059-.3841659-2.7336289-.8649667-4.1545039-.7906809-2.2458727.117434-4.4760533.4396266-6.6414348,1.0948494-2.4915575.7539341-4.8509143,1.8378631-7.1412752,3.0470599-2.0463267,1.0803642-4.0127082,2.3138103-5.9986023,3.5059548-.5677411.3408292-1.0806229.7730397-1.5829145,1.1374276l-.1110149,1.7230353c-1.7170848,2.66231-3.7242801,5.1165214-6.2121738,7.1524213-1.8093477,1.4806138-3.9185587,2.4120968-6.2293942,2.3363185-2.6727419-.0876357-4.9681453-1.1409537-6.1676941-3.7935577-.503771-1.1139922-.9787014-2.2375863-1.0132947-3.6081546-.2998347-.2841397-.6494257-.615435-.9890162-.9372412l.0756404-1.1739973c.5168189-.8771723,1.4611575-.9879753,2.3424631-1.3045283l.088391-1.3718956c1.150898-1.5018491,2.9956008-1.2198399,4.4510241-1.8847193-.6974096-.405466-1.3890751-.8075843-2.0107186-1.1689991-.2416807-.3876167-.4425869-.7098359-.6626132-1.0627195-.1034044-1.4995971.7946899-2.3472999,2.0594224-2.8803428,1.0900521-.4594197,2.2246931-.7008295,3.4415079-.6386089,1.476574.0755108,2.7530886.589886,3.9113051,1.4503764,1.3994755,1.0397555,2.4444461,2.3633739,3.0652023,4.0031301.4038284,1.0667398.5879447,2.1717117.4417933,3.5187856,2.0185345-2.2695258,4.1988464-4.0060632,6.6126698-5.4765535,2.5858273-1.5752559,5.240035-3.0387319,8.0180865-4.2077593,2.5805696-1.0859344,5.2384202-2.0317443,8.0916258-2.2843365,1.4583461-.1291106,2.9122446-.4193128,4.3705668-.2278313,2.3343513.3065326,4.6168179.8324934,6.7513604,1.8938789,2.7105869,1.3478054,5.0617833,3.143622,7.0226442,5.4519285.5919023.6967833,1.1986054,1.3812134,1.8073882,2.0634005,1.9787408,2.2173087,3.4804405,4.7247847,4.6602875,7.448459,1.197786,2.76506,2.2599345,5.5684764,2.8630138,8.5297249.130553.6409574.2488014,1.2847358.3980084,1.9212842.0249723.1065267.1797707.1826107.2745865.2727492l-.034878-.0426097Zm-56.371804-16.8871164c-1.075059.2568856-2.1896849.52323-3.2288705.7715499.3065005.2835353.6497174.6010335.921728.8526668l-.0628009.9747175c-.2404893.2001194-.4608731.3835178-.591173.4919423-1.1774653.1805368-2.2496312.3103716-3.3068716.5167063-1.0707382.2089552-2.251639.0646478-3.2164449.8795125.1032746.3560793.2635144.6662151.2726591.9807534.0475263,1.6352244,1.0176852,2.7830653,2.1596641,3.7103694,1.0439493.8476853,2.3394405,1.1445322,3.7388511.8127278,1.3715267-.3251892,2.5808675-.9218764,3.6164516-1.862811.918004-.834094,1.8086517-1.6982873,2.5786285-2.4240564-.3087983-1.3853812.1977298-2.6389818-.2323924-3.8384347-.4230033-1.1795905-1.0351828-2.1961357-2.0318343-2.9812725-.1793611.3240055-.3392765.6128688-.617595,1.1156287Z" stroke-width="0"/>
      <path d="m43.1377846,47.9678295l.0981481-1.5233331c.1959926-.3372747.3861664-.6645332.6282262-1.0810933l.0803364-1.2468826c-.2670297-.9992819-.9758777-1.538112-2.0075167-1.9059736-1.3829944-.4931462-2.7947092-.793143-4.222962-1.0775495-1.1006675-.2191649-2.1853171-.5187384-3.2579359-.7779342-.3921274-.4510147-.7388222-.8497535-.8918603-1.0257732-.712523-1.4032376-.3469378-2.605393-.3626723-3.8079417-.9085439-.4130786-1.8580827-.6392239-2.8623136-.6482423-1.1420458-.0102371-2.0616913-.6051055-3.05299-1.2013036-.2396571-.3904994-.5120233-.8343015-.7874732-1.283109-.0146828-1.2409525.0281171-2.4742341.821143-3.4792971-.4098514-.8300159-.7803232-1.5915654-1.1606847-2.3481413-.7239863-1.4400797-1.1150967-2.9912467-1.4822268-4.5443279-.5592067-2.3656155-.0614998-4.4492122,1.5601276-6.1410029.7498876-.7823276,1.7545635-1.2532123,2.7775325-1.6507687,1.4900591-.5790821,3.023562-.6186847,4.5999557-.5913838,3.3226675.0575417,4.9049094,1.0526599,7.4399506,2.7471952.5819068-.6790435,1.092934-1.4472622,1.7670237-2.025336,1.3042636-1.1184822,2.6996539-2.1317377,4.6873998-1.7885394.0842643.0551223.2301641.1856631.4008305.256761,1.6382572.6825073,2.0844746,2.06325,2.1792361,3.6640093.0328947.5556456.1062977,1.1088912.1637076,1.6885375.9669418-.3155682,1.8260044-.4344545,2.7410808-.3956068,1.3259269.0562972,2.3542315.6425358,3.2527861,1.524432.9266357.9094534,1.6260445,1.9772033,2.1454402,3.1760418.7861641,1.8145495,1.5463,3.6324894,1.7851531,5.6178602.0449937.3739634.0994874.7535268.0814372,1.12721-.0965747,1.9989263-.1487436,4.0050388-.8179771,6.0097684-.4293418.2583033-.7677972-.0393607-.927325-.4592193-.3657011-.9624493-.6570513-1.953234-.9762923-2.933251-.4935789-1.5151931-.9597808-3.0399014-1.4853248-4.5439002-.4654524-1.3320016-.9523468-2.6602069-1.5137048-3.9536646-.3542067-.8161722-.8626951-1.5653858-1.2888767-2.3213927-.6883016-.0443472-1.2564828-.080955-2.0831945-.1342199-.4619017.4605096-1.018313,1.0646149-1.6266433,1.6109016-1.0873491.976451-1.4372772.9877512-2.7657556.2185666-.4477153-.5552241-.4876049-1.1910778-.4711658-1.8813013.0360722-1.5148431-.0050426-3.031527-.0150646-4.6134755-1.818207,1.2040221-3.0170807,2.7045163-3.1944187,4.9517814-.294729.2499761-.6235312.5288504-.9675964.8206668-.587223-.0378347-1.1570497-.0745485-1.9475958-.1254833-.1601964-.2224233-.4594356-.5498161-.6574234-.9299479-.5146681-.9881285-1.4356976-1.3905028-2.3576203-1.8917423-1.8960996-1.0308912-3.8702154-.7407184-5.8416119-.5493902-.4885718.0474262-.9784184.360051-1.4109215.6388267-.5853318.3772838-1.0165566.9515046-.9175085,1.6683075.2691146,1.9474751.4011859,3.93531,1.4051083,5.7787737.2846413.2623345.6276671.5784773.9826119.9056024l-.0938617,1.4568053c-.4208907.7531822-1.4643361.8889938-1.7874669,1.7524469-.0601013.1605818-.0144167.3607607-.01833.5876447,1.0736522.1925512,2.0962501.3562418,3.1100764.5629548,1.1710766.2387754,2.2283598.7275565,3.1934285,1.6260202.1899444.4233734.4213007.9390731.6588974,1.4686585l-.1381851,2.1447374c.4526501.8057797,1.3327585.6894511,2.007542.8700343,1.8141338.4854747,3.628709.9533326,5.2882015,1.8476134,1.5442101.8321588,2.5556606,2.0797493,2.6910284,3.9060904.0135367.1826005.0239433.3654412.0422806.647976,3.9820198-1.35861,7.1653934-3.9384111,10.4462765-6.0329521l1.4483623.0933177c.8148279.4217523,1.2703517,1.5873568.8431273,2.3262497-.3514103.6077574-.7815001,1.1954245-1.2789498,1.6889344-2.1157457,2.0989674-4.5434569,3.7520231-7.2480254,5.0189156-1.4543217.6812438-2.9571262,1.1689145-4.5080294,1.5625822-1.2114686.3075007-2.1475387.0303652-2.8989514-1.0527433Z" stroke-width="0"/>
      <path d="m21.0309247,61.8214215c3.122116,3.8575318,4.7611517,8.3597912,6.56995,12.753191,2.7373337,2.4976505,6.003587,4.0623143,9.2805018,5.6308017,1.9944103.954605,4.0798224,1.6337553,6.1721829,2.2968742.9367456.2968919,1.9318784.4349825,2.9111529.5650179.9521984.1264442,1.9231941.1087044,2.8768265.2274301,2.6508243.3300331,5.152315-.3859381,7.6322394-1.1212798.9312763-.2761518,1.7610535-.8945904,2.647276-1.362336.0922398.0888416.1936805.1865553.3918025.3774082-.3161151.3720801-.6093466.7729819-.9577485,1.1181882-2.1936413,2.1735426-4.8994334,3.4191059-7.8905317,3.8649177-2.3382346.3485156-4.7287749.37745-7.0704657-.3083248-.8527987-.2497335-1.7662831-.2383436-2.6560251-.4483719-2.4317618-.5740427-4.7434457-1.4489344-7.0327885-2.4088462-2.3072165-.9674076-4.4956842-2.1465336-6.5632016-3.8779228-.2016671.2456252-.3898963.4600064-.5618963.6866991-1.4571332,1.9204684-3.3796932,2.8937632-5.7890951,3.1464626-2.1175544.2220926-3.7404212-.5953328-5.1662907-1.9777846-.7853144-.7614033-1.5151855-1.5973792-2.5823062-1.9312466-.8493716-.2657266-1.7414441-.4115708-2.6241936-.548588-.6634062-.1029776-1.3450014-.082629-2.0133951-.1608251-1.6075564-.1880548-3.2481548-.2570362-4.8078122-.6455138-1.5792967-.3933569-3.2265474-.9140968-3.7971065-2.8324228l.1044213-1.6206984c.4486798-1.1085131,1.2370417-1.8536499,2.0585831-2.5930705.8862279-.7976167,1.70473-1.6704787,2.5314416-2.4893898.4794772-1.4348363-.0697593-2.7245354-.4277257-4.0384563-.550348-2.020033-.4090115-3.976053.8705212-5.6797942,1.0134716-1.3494655,2.3795061-2.2987362,3.9743824-2.9232278,1.8762309-.7346351,3.8137214-.8142572,5.7438482-.4760967,2.1339812.3738706,4.1990669,1.026679,5.955269,2.3865438.2989464.2314822.5801146.4967738.8265173.7833998,1.1380903,1.3238571.9628047,2.52532-.6063337,3.607262Zm-16.7404713,12.0369857c.4382578.207827.752703.4324084,1.0998214.5091141,2.0195085.4462305,4.0594784.8056233,6.066992,1.2984149,1.4468195.355168,2.946947.6154887,4.221286,1.4770637.7421785.5017815,1.506956.9818071,2.1908624,1.5558495,1.8043339,1.5145196,4.4757596,1.0916459,5.7085734-.1448753.2708554-.2716601.5601959-.5248816.8104188-.7580652.2449174-.8496365-.0078997-1.5116899-.4851892-2.1737415-.9304035-1.2905773-1.4449012-2.7410433-1.4196018-4.3831948-.3442126-.6991327-.7048073-1.4160209-1.0518533-2.1394052-.8952602-1.8661292-1.9289301-3.7136169-2.3709743-5.7208579-.3900187-1.7710095-1.2073203-2.8022197-2.8864428-3.4291975-1.8297282-.6832112-3.6479344-1.0385213-5.5450291-.5499502-.7137699.1838342-1.3612603.6250261-1.9981746.9293947-.2478039.4355319-.4934757.7890801-.6554972,1.177521-.1233765.2957856-.2278455.6478549-.1858961.9536298.0755328.5506348.3030181,1.0788619.4021322,1.6281532.1661869.9210192.3652738,1.8480813.4001554,2.7782417.0659324,1.758293-.7845023,3.1797433-1.9019376,4.4489868-.7212301.8192129-1.4969519,1.5904348-2.3996457,2.5429181Z" stroke-width="0"/>
      <path d="m126.1065748,25.9712966c.3148829-.9401899.7887456-1.6846046.2741428-2.4888136-.278695-.4355374-.5353227-.9369651-.932497-1.2341535-.8291717-.62042-1.1317324-1.3609603-.743329-2.6779616.1582176-.3328651.5471733-.8616535,1.2569139-1.1944205.6360406-.2982133,1.2129447-.759248,1.7477062-1.2265279.534237-.4668189.983812-1.0305177,1.4773234-1.5590375l.0838481-1.3013861c-.3142323-.7347891-.6301687-1.4735758-.9934692-2.3231152.0667185-1.0355213.1406102-2.1823768.2123455-3.2957639-1.2436305-1.7343923-2.9547332-2.5627159-4.9535642-2.8142974-1.4324907-.1803009-2.7153742.3081352-3.8109864,1.2230329-1.0339786.8634234-2.044851,1.7571494-3.0288757,2.6771426-1.3564775,1.2682092-2.8995483,1.9507728-4.7867285,1.7028903-.0859794-.0112918-.1798917.0378687-.4028265.0897788-.014491,1.7577281-.361569,3.5138555-.1432647,5.3495518.1560888,1.3125332.2811269,2.6104129.677301,3.8729583.0691284.2203066.0880614.4965445.2337629.6459327.7803925.8001498.917794,1.7443156.6717894,2.9043056-.3604131.8624117-1.0494011,1.5302574-2.2043352,1.8351182l-1.8976681-.1222664c-2.0527901-1.0881661-2.7877327-2.998709-3.1455104-5.1102186-.404898-2.3896564-.0767609-4.7857307.2083202-7.150013.2116269-1.7550864.6794482-3.4927075,1.4286061-5.1347553.4187287-.9177933,1.1508838-1.5012182,1.8623342-2.0996949,1.3996786-.6800505,2.562879-.1109878,3.7965799.7389562.6899079-.638376,1.4057617-1.2589813,2.0740423-1.9271626,1.8113075-1.811026,3.8493172-3.0029848,6.473483-3.4715102,3.0624861-.5467839,8.1615212,1.9721707,9.6872104,4.3201532.6003064.923869.9665441,1.939978.9454195,3.0575006-.0127219.6727823-.0809894,1.3445128.0021273,1.9928182.2794401,1.0363043.718143,2.0596535.8037494,3.1117308.1578163,1.9396061-.9181742,3.4227204-2.2105326,4.7304752-.4279004.4330028-.9882965.7336821-1.4798163,1.1058062-.2626376.1988338-.5076039.4209887-.7697132.6402852.2720279.6531165.6071601,1.2389267.7622419,1.8690456.5798885,2.3562698-.1561168,4.3635849-1.7720103,6.0911108-1.5501219,1.6572193-3.5455443,2.5074536-5.7070121,2.9634224-1.0964274.2312896-2.2467264.3998899-3.355101.3275674-1.1082687-.0723201-2.23016-.3827535-3.2818776-.765304-1.4280991-.5194498-2.0078006-1.8220948-1.715983-3.4590384.3605509.2985354.7017763.6147832,1.0776462.8823637.3429978.2441681.7235351.4356054,1.0260673.614038,1.1074845-.1251956,2.1301965-.2828821,3.1587893-.3482123,2.055074-.1305268,3.950759-.795112,5.752439-1.7204051.6253613-.3211679,1.1216061-.8937574,1.640912-1.3219269Z" stroke-width="0"/>
      <path d="m85.8451391,65.8999477c-.2328965-.152784-.5159911-.2666019-.6995354-.4701847-1.5791932-1.7515195-3.6674723-2.675468-5.8391263-3.2885332-1.1988502-.3384403-2.5581992-.1735277-3.8413782-.1279935-1.0755913.03818-2.1617889.1551292-3.2144791.3750463-1.6928094.3536432-3.4238705.6602623-5.0261559,1.2785862-2.2948074.8855775-4.6386716,1.7220563-6.6474344,3.2993784.345076-.075121.6867002-.1844385,1.0358035-.2197592,2.1019819-.2126431,4.1810367-.5905724,6.2830492-.8200106,2.7671918-.3020221,5.5283186-.3434219,8.2625394.0438867,2.3047126.3264653,4.6428377.6630181,6.8059811,1.722226-.0229123.1850147-.0454386.3669175-.0651284.5259148-.1309381.0504463-.2206431.120841-.2990774.1099735-1.7627412-.2444949-3.5384896-.1189755-5.2854506.024374-2.471235.2027687-4.9432119.5482958-7.3766879,1.0269425-4.6353541.9117688-9.2472062,1.9398569-13.8888387,2.8286631-1.2836767.2458036-2.5104136.4313833-3.9763854.2254658-.2905843-.375393-.6691167-.8644098-1.1308179-1.4608666-.0622993-.978881.3185975-1.8842498,1.2017975-2.5928718,2.8570888-2.2923439,5.8628009-4.3492659,9.1271052-6.0338546,2.6524203-1.3688083,5.4344035-2.3249901,8.3448286-2.9354881.7318466-.1535022,1.4648103-.3290045,2.2063619-.4019163.9403645-.0924594,1.8903616-.1276158,2.835562-.1187691.9132074.0085437,1.8425362.0130367,2.7352458.1785818,2.9508163.5472066,5.8030808,1.3691784,7.8595931,3.7667231.4504949.5251799.7605082,1.1983229,1.0199157,1.8492876.1480394.3714751.1568713.8627735-.4272873,1.2151979Z" stroke-width="0"/>
      <path d="m158.3953052,35.3422423c1.2742472-.0875192,2.543192.2062257,3.7783276.7767643.5852795.2703504,1.2554773.3568536,2.1056838.5853818.3735611-.4088916.7111425-.9044579,1.1637594-1.2487681,1.0977505-.8350821,2.3427555-.4931511,2.9303584.7691413.1556647.3344491.2169665.7157279.3006035,1.0803056.4284393,1.8672517,1.0792395,3.7189292,1.2205501,5.6083442.2151243,2.8763009-.2547849,5.6920216-2.0794839,8.1006461-.5991344.7908434-1.1841372,1.5927497-1.797096,2.3727001-1.0438854,1.3282172-2.3313663,2.3235653-3.8814698,3.0386205-2.0935641.9657231-3.9055484,2.3687025-5.5788491,3.9481198-.7427105.7010357-1.6000479,1.1128201-2.6180547,1.3248813-2.8917167.6023637-5.4888402-.6080488-6.7610358-2.7905-.4774069-.8189675-.7437588-1.8389878-.5940053-2.8566032.0303905-.2064548.2221664-.3891428.4010221-.6842521,1.6923808,2.1102873,3.8553784,2.9534299,6.5880023,2.7195941.7139267-.2350901,1.4389288-.7463049,2.1677886-1.3009382,1.473759-1.1215047,3.1174016-1.9907373,4.9027346-2.4838938,1.7384819-.4802175,3.0103443-1.4289905,3.9084526-2.9919602.7287889-1.2683063,1.4812153-2.5137332,1.8440543-3.9460381.0806325-.3183763.1853071-.6569045.1528841-.9732253-.1578546-1.5396595-.3307855-3.0790091-.5551409-4.6101411-.1212977-.8278062-.3563275-1.6389419-.5497294-2.5007114-1.601235.378894-3.1815418.1304342-4.6792117-.4716253-.9302561-.373956-1.6763024-.2207237-2.3579836.3863774-.5299757.4719929-1.0673756.9780295-1.4481968,1.5678989-1.8392658,2.8489253-3.7561965,5.6561158-5.0687073,8.8115238-.1373209.3301248-.4394508.5917028-.6610423.8797643l-1.6664817-.1073711c-.2224343-.2641494-.5302634-.6297146-.7030553-.8349286-.4860782-2.1951199.4381537-3.8470277,1.2839356-5.5070913.902506-1.771382,1.9959753-3.4303315,3.2151004-4.9961659,1.274132-1.636512,2.7443256-3.0512898,5.036286-3.6658498Z" stroke-width="0"/>
      <path d="m163.995483,81.1107568c.0453435.6426774.1064718,1.0864415-.5407501,1.4362784-.7709434-.1449495-1.6985438-.2817285-2.6069357-.4988608-1.4106131-.3371868-2.8076891-.7308819-4.2113601-1.097372-1.9962241-.5212051-3.9993169-1.017264-5.9879849-1.5657801-1.6668406-.4597354-3.3306514-.9387941-4.9705071-1.4852031-1.2805432-.4266819-2.5270193-.9583487-3.7760373-1.4738769-.1835188-.075752-.2971973-.3207537-.5072718-.5606032.6119908-.3510377,1.1612222-.216768,1.6114219-.0869085,1.364045.3934578,2.7429583.6707976,4.1533906.7869776,1.6539828.1362457,3.2728173.4334792,4.877436.8624859.8492935.2270645,1.7417598.2925713,2.7334791.4498367-.208443-.2264993-.3086643-.4006005-.4592048-.4892841-2.5173647-1.482863-4.903062-3.1946639-7.5864512-4.3892958-1.7597038-.7834229-3.5510712-1.430321-5.46498-1.793264-1.032479-.1958096-2.0562187-.3377314-3.0962705-.4242338-2.1850941-.1817486-4.3321917.0566691-6.5051925.5638235-.1955402.2902084-.4015559.595991-.6395955.9492623-.4712049-.0073598-.9447402-.0147548-1.4809826-.0231328-.2420105-.2601003-.4977385-.5349479-.7413683-.796796l.0686716-1.0658352c.5156377-.7044885,1.1886211-1.2802701,2.0294491-1.495335,2.0987454-.5368029,4.2072575-.9481692,6.416836-.8249804,2.4355847.1357888,4.7913335.5710079,7.0750996,1.3820728,1.0566841.3752716,2.0907263.8463325,3.0776077,1.3801206,2.91172,1.5748941,5.6121641,3.4850974,8.3189551,5.3807238,1.3530821.9476031,2.6449634,1.988785,4.0396311,2.8685833.9020815.569058,1.9423398.9178592,2.916212,1.3748909.4204763.1973241.8296619.4187584,1.2567025.6357059Z" stroke-width="0"/>
      <path d="m131.6367919,128.6476149c.1959353-.4888851.2279906-.8040116.4023012-.9668661,1.4503526-1.354779,2.3409819-3.0504424,3.0570382-4.8627838.7378688-1.8675566,1.5534853-3.7075546,2.2111477-5.6026337.5209953-1.50132.8391542-3.0720466,1.2749539-4.6040912.716254-2.5178415,1.2717259-5.0797865,2.1836455-7.5452862.3457918-.9348541.8802773-1.5380084,1.8206184-1.8203179.3366484.1289141.6847999.2622362,1.1087146.4245707.5732291,1.0385818.2104092,2.1653152.0673345,3.2784002-.0289821.2254632-.1995595.435424-.2166326.6592688-.1516831,1.9880728-.7788055,3.8699395-1.2394161,5.7911806-.4709304,1.9642963-1.0530361,3.890769-1.8604814,5.7347748-1.3388406,3.0574707-3.0755951,5.8609131-5.6959409,8.0066186-.6511748.5332456-1.4240944.9222737-2.1602811,1.3440463-.1848861.1059236-.4441003.0821184-.953002.163119Z" stroke-width="0"/>
      <path d="m72.2164039,96.7571797c.2894332-.1245821.4639404-.1997009.7011001-.3017883.3641002.2858239.7634746.5993326,1.2391242.9727151.0538034,1.9882351.020291,3.9768705.1832305,5.9492787.2009269,2.4322118.2248677,4.8702239.5623245,7.3048085.3342712,2.4116181.6058103,4.830734,1.0605403,7.2268748.4703585,2.4785972,1.3132979,4.7944614,2.7869637,6.8629122.2659119.3732379.474312.7874624.7225617,1.2051204-.1221255.112247-.2275248.2091368-.3500747.3217982-2.653807-2.0141749-4.1765211-4.7053783-5.2372497-7.7661642-.8325338-2.4023513-1.3260377-4.8774563-1.736561-7.3564395-.2508493-1.5147519-.3378734-3.086667-.4227902-4.6428775-.0836423-1.5330666.0309189-3.0422121.0449526-4.562173.0056247-.6081586-.1243225-1.2186107-.1055724-1.8253227.018317-.5928587.3239248-1.2287761.1835817-1.7615322-.1776872-.6745046.3304604-1.0608701.3678686-1.6272104Z" stroke-width="0"/>
      <path d="m127.9794318,105.4502873c.2513458.0161942.5476924-.0033959.8246263.0608089.6728419.1560002,1.178233.7175425,1.1306961,1.411192-.0645426.9416826-.0194049,1.8846002-.3509806,2.823719-.325887.9229622-.3680157,1.9427228-.5776601,2.9107095-.6944632,3.2065387-1.4742203,6.3882666-2.9267395,9.3584479-.4544102.9292077-1.73592,2.3675495-2.7201393,3.0387725-.1889438-1.1928999.3532059-2.2364641.569457-3.3314037.0262532-.1329149.1487948-.2487401.1676663-.3809113.1947315-1.3638071.4105191-2.7258334.5558971-4.0951883.2497497-2.3521296.6749745-4.6619217,1.2716408-6.9553663.2829246-1.0874983.4787882-2.1989845.8380004-3.2730144.2219708-.6636786.5775378-1.1885258,1.2175354-1.5677658Z" stroke-width="0"/>
      <path d="m88.4797266,127.3158737c-.3960232-.210964-.6209484-.268045-.7528228-.4109714-1.037745-1.1246627-1.8500064-2.4020969-2.5434439-3.7646701-1.1206976-2.2021579-1.777956-4.5459087-2.1278214-6.9753728-.1808953-1.256106-.2003637-2.5348931-.3639655-3.7941791-.3623676-2.7894674.0876052-5.5508416.2967462-8.3133124.0976411-1.2895939.547715-2.5645654,1.4063893-3.6799211l.7149242.0460624c.3342169,1.3072483.4229261,2.5944991-.0983575,3.88608-.1029156.2550008-.1445628.5935165-.069537.8513405.3186863,1.095184.0444891,2.1857363.0366856,3.2764343-.0118634,1.6564655.1204566,3.3045842.2015962,4.9561736.0696756,1.4182364.1835313,2.827002.3712597,4.228157.2487208,1.8563528.5298761,3.7136997,1.2473247,5.4654164.4798758,1.1716356.9773676,2.3360474,1.4620258,3.5057291.0638221.1540046.0983307.320152.2189963.7230334Z" stroke-width="0"/>
      <path d="m95.3116605,126.7275353c-.646613-.780185-.9957433-1.4093007-1.2325317-2.111267-.8233895-2.4410113-1.5906089-4.8865502-1.8690077-7.474026-.1961342-1.8228165-.4046872-3.6392584-.5525746-5.4685621-.1287182-1.5921143.0167504-3.1430769.1017796-4.7078652.0322151-.5928469.2956795-1.1731448.4503595-1.7466411.4178098-.3841806.8061094-.7412365,1.1126566-1.0230999.6292295-.111313,1.0937151-.1331029,1.4489122.4871525-.0271328.4211213-.0260523.9481122-.1004112,1.4642429-.3155033,2.1899776-.1381998,4.3905004-.0698285,6.5783144.0544963,1.7442051.242327,3.4836057.2258967,5.2376966-.0091483.9759388.228461,1.9519245.3093553,2.9316324.0777328.9412801.1034614,1.8871619.138946,2.8315162.0194248.5168275-.0735756,1.0171514.149464,1.5464615.1386253.3290216-.0473309.7948164-.1130161,1.4544446Z" stroke-width="0"/>
      <path d="m103.6479534,127.9269641c-.4715219-.6611234-.6223553-1.4293169-.6417128-2.2021344-.0381232-1.5220401-.0425129-3.047067.0083323-4.5685528.0498226-1.4908026.1523584-2.9818494.2921531-4.4671026.1742025-1.851017.3868359-3.6993459.6322197-5.54226.0860648-.6463867.2877012-1.2832772.4914742-1.9065642.2405653-.7358717.6355534-1.3754317,1.4054204-1.7295602.6183776.1490009.6124002.7531695.8272239,1.1849495-.1121947,1.7413469-.0807541,3.4950584-.3707908,5.1939152-.3718008,2.1778325-.3261555,4.3970519-.7270351,6.547316-.3254095,1.7453874-.3303749,3.5681121-1.0976011,5.238256-.2886723.62842-.3301552,1.3693606-.4997859,2.055179-.014996.0606378-.1449419.0928047-.319898.1965583Z" stroke-width="0"/>
      <path d="m114.5995397,109.4250676c.1519769-.1151834.495551-.3755844.8607232-.652354.6402624.2152666.9150772.6874396.9706923,1.3425306.152492,1.796236.280719,3.5815249-.302156,5.3456321-.1606845.4863495-.086959,1.0480984-.1353031,1.5739371-.2681413,2.9162492-1.0226418,5.7206494-2.0194134,8.4600297-.2686744.7383726-.7135158,1.4126443-1.0800407,2.1212795l-.6129744-.0394938c-.0008658-.1058748-.0201686-.1847862.0018846-.2496347.0449507-.1322404.1496066-.2526993.1646486-.3853646.2194146-1.9367106.6501201-3.8454052.6822995-5.8086879.0227795-1.3904725.1339256-2.7825677.2722796-4.1672902.1747789-1.7491547.3942378-3.4948299.6419845-5.2352188.0986052-.6926388.3245615-1.3671586.5553754-2.305365Z" stroke-width="0"/>
      <path d="m47.1628033,34.2234203c-.7115672-.0458462-1.4797542-.0953403-2.2193959-.1429953-1.2738385-.7577118-1.558422-1.0686667-2.1979114-2.4015567l.113112-1.7555843c.6881767-1.4991459,1.8318745-2.1973018,3.610579-1.7838693,2.4191396,1.3558799,2.7800416,1.9655551,2.5738354,4.4233492-.3284245.8575719-.9292058,1.4135476-1.8802192,1.6606564Z" stroke-width="0"/>
      <path d="m116.4646783,15.5723521c.2968623-.2472939.625452-.5210173.8568147-.7137459,1.0547472-.3404346,1.5917658.4303257,2.3391679.7024403.2378387.5264465.4688728,1.0378224.7156289,1.5839865l-.0865442,1.3432316c-.2877647.2764201-.6263443.6016539-.9886969.949721-1.4993712.0229634-2.2380427-.9860169-2.9507295-2.0906949l.114359-1.7749386Z" stroke-width="0"/>
      <path d="m162.470019,48.1325815c-.8355868,1.367156-1.4254968,1.5677533-2.5601657.8232848-.662419-.4346144-1.2207264-1.0278676-1.768512-1.5002743.0515555-.6559086-.1418336-1.2161692.5138421-1.6623826.3563757.0064999.824024.0150266,1.2428144.0226585.6993178.4091057,1.3475118.7883036,2.0649833,1.2080334.1460199.3193014.319211.6979725.5070379,1.1086802Z" stroke-width="0"/>
      <path d="m16.0205608,68.5679591l-.0597411.9272271c-.3879519.2573738-.8207212.6446463-1.326871.8569668-.7727295.3241581-1.5881168.5574296-2.3999034.775205-1.3168422.3532498-2.2515231-.1177976-2.7147137-1.3155021-.3951321-1.0217171.068398-2.0174902,1.2239746-2.6337228.1270249-.0677429.2488104-.1452954.3923924-.2296787,1.7772535.0789436,3.6355733-.0439331,4.8848623,1.6195047Z" stroke-width="0"/>
    </g>
  </g>
</svg>