<?xml version="1.0" encoding="UTF-8"?>
<svg id="Layer_2" data-name="Layer 2" xmlns="http://www.w3.org/2000/svg" viewBox="0 0 274.5754669 182.7756113">
  <g id="Layer_1-2" data-name="Layer 1">
    <path d="m273.8979492,5.8478769l-.0446777-.1396484c-.2661133-.8251953-.6538086-1.3847656-1.1853027-1.7089844-.8859863-.5419922-1.8168945-.984375-2.6105957-1.3466797-.637207-.2919922-1.1982422-.4785156-1.7150879-.5703125-.5554199-.0996094-1.1286621-.1679688-1.6831055-.2353516-.5766602-.0693359-1.1728516-.1416016-1.7556152-.2480469-.190918-.0341797-.3935547-.0458984-.5895996-.0566406-.2878418-.015625-.5856934-.0322266-.8713379-.1220703-.1889648-.0585938-.3771973-.0654297-.5766602-.0712891-.1342773-.0048828-.2680664-.0097656-.4023438-.0292969-.107666-.0146484-.2158203-.0322266-.3239746-.0498047-.2285156-.0371094-.4440918-.0722656-.6625977-.0859375-.9436035-.0537109-1.8984375.0410156-2.8764648-.1318359-.3835449-.0673828-.7731934-.0791016-1.1855469-.0917969-.2980957-.0087891-.6062012-.0175781-.9118652-.0507812-.4780273-.0507812-.9726562-.0546875-1.4509277-.0585938-.5810547-.0048828-1.1816406-.0097656-1.7780762-.0976562-.3884277-.0566406-.7768555-.0634766-1.1882324-.0712891-.3723145-.0068359-.7573242-.0136719-1.1418457-.0615234-.5268555-.0654297-1.0566406-.1132812-1.5871582-.1621094-.5075684-.0458984-1.0158691-.0917969-1.5224609-.1533203-.315918-.0380859-.644043-.0517578-.9611816-.0644531-.3276367-.0126953-.666748-.0263672-1.0043945-.0673828-.5024414-.0605469-1.0280762-.0507812-1.536377-.0400391-.3193359.0058594-.6394043.0136719-.956543.0029297-.3857422-.0117188-.7709961-.0371094-1.15625-.0634766-.4345703-.0292969-.8840332-.0605469-1.3239746-.0683594-.7714844-.0175781-1.5534668.0244141-2.3115234.0615234-.3742676.0185547-.7485352.0371094-1.1228027.0488281-1.7792969.0585938-3.5871582.0458984-5.3359375.0322266-2.3837891-.0185547-4.848877-.0361328-7.2678223.1279297-.546875.0371094-1.0888672.0195312-1.4997559.0029297-.2277832-.0097656-.4550781-.0351562-.6821289-.0605469-.2509766-.0283203-.5102539-.0566406-.7614746-.0625-.6015625-.0126953-1.2028809-.0136719-1.8041992-.015625-.5319824-.0009766-1.0639648-.0019531-1.5957031-.0117188-1.5058594-.0263672-3.1101074.0322266-5.0480957.1845703l-.1071777.0078125c-.4125977.0322266-.8391113.0644531-1.2380371.1435547-.6674805.1318359-1.5432129.2646484-2.4838867.2773438l-1.0222168-.0039062c-2.1357422-.0117188-4.3439941-.0205078-6.5146484.0058594-.8078613.0107422-1.6154785.0048828-2.4228516-.0019531-1.6662598-.0146484-3.3862305-.0273438-5.0754395.1123047-.9165039.0742188-1.8479004.0683594-2.7480469.0615234-1.0041504-.0068359-2.0422363-.015625-3.057373.0908203-.6970215.0732422-1.4040527.0654297-2.0900879.0625-.7348633-.0068359-1.4960938-.0117188-2.2373047.0800781-.5844727.0742188-1.1772461.0693359-1.7526855.0703125-.6054688-.0039062-1.2287598-.0029297-1.8347168.0830078-.4909668.0703125-.989502.0732422-1.4719238.0751953-.454834.0019531-.925293.0048828-1.3823242.0644531-.5820312.0751953-1.1743164.0791016-1.7470703.0830078-.5341797.0029297-1.0866699.0068359-1.6242676.0693359-.7507324.0869141-1.5158691.0927734-2.2561035.0986328-.5146484.0039062-1.046875.0078125-1.5673828.0390625-1.5390625.09375-3.104248.0976562-4.6179199.0898438-1.2414551,0-2.5236816-.0019531-3.782959.0488281-2.3964844.0966797-5.2268066.1640625-8.0517578-.0751953-.7722168-.0673828-1.5671387-.0556641-2.3356934-.0449219-.9963379.0136719-2.0251465.0273438-3.0405273-.1220703-1.5471191-.0263672-3.1467285-.0195312-4.6933594-.0107422-2.515625.0097656-5.1174316.0253906-7.6789551-.1201172-1.1513672-.0654297-2.3293457-.0507812-3.4685059-.0351562-.7382812.0107422-1.4768066.0205078-2.2143555.0078125-.592041-.0068359-1.1853027-.0029297-1.7775879.0029297-1.3027344.0097656-2.6481934.0244141-3.9782715-.125-.5302734-.0605469-1.0791016-.0556641-1.6113281-.0517578-.6499023.0029297-1.3215332.0097656-1.9890137-.0976562-.347168-.0566406-.6975098-.0605469-1.0683594-.0654297-.3886719-.0039062-.7905273-.0087891-1.1933594-.0791016-.4541016-.0771484-.9365234-.09375-1.402832-.109375-.2290039-.0078125-.4580078-.015625-.6853027-.0302734-.7053223-.0458984-1.4274902-.0507812-2.1254883-.0556641-.8935547-.0058594-1.8173828-.0117188-2.7297363-.1035156-.4523926-.0439453-.927002-.0048828-1.3857422.0341797-.3034668.0263672-.6174316.0527344-.927002.0546875-.576416.0058594-1.1530762.0175781-1.7297363.0292969-1.8276367.0380859-3.7175293.0771484-5.5812988-.1142578-.526123-.0527344-1.072998-.0419922-1.6020508-.0322266-.3481445.0068359-.6967773.0136719-1.0432129.0039062-.5178223-.015625-1.0349121-.046875-1.552002-.078125-.3605957-.0214844-.7214355-.0439453-1.0822754-.0605469-.5668945-.0263672-1.1452637-.0283203-1.7045898-.03125-.8134766-.0039062-1.6550293-.0078125-2.4897461-.0830078-.9709473-.0898438-1.9680176-.0966797-2.9321289-.0869141-.8693848.0009766-1.765625.0009766-2.6516113-.0625-1.3945312-.1005859-2.8266602-.0712891-4.2111816-.0439453l-.9445801.0166016c-.5280762.0087891-1.0559082.0097656-1.5837402.0097656-1.1643066.0019531-2.3681641.0039062-3.5517578.0888672-1.1640625.0820312-2.3481445.0712891-3.4909668.0605469-1.3413086-.0126953-2.7287598-.0253906-4.0854492.1132812-.5305176.0546875-1.0710449.0712891-1.59375.0878906-.3481445.0107422-.6965332.0214844-1.0441895.0429688-.9306641.0585938-1.8754883.0595703-2.7895508.0566406-1.088623.0058594-2.2099609-.0029297-3.3103027.0966797-.9353027.0830078-1.890625.0556641-2.8144531.0322266l-.4589844-.0126953c-.6848145-.015625-1.3686523-.0136719-2.0534668-.0107422-1.1867676.0048828-2.4099121.0107422-3.6223145-.0917969-1.3803711-.1181641-2.8210449-.1494141-4.092041-.1767578-1.901123-.0390625-3.8630371-.0439453-5.8320312-.0097656-.4370117.0087891-.8737793.0097656-1.310791.0117188-.9865723.0039062-2.0068359.0078125-3.0102539.0888672-.9033203.0722656-1.826416.1044922-2.7189941.1357422-.5136719.0185547-1.0275879.0361328-1.5402832.0615234l-.3979492.0175781c-.534668.0205078-1.0876465.0429688-1.6064453.1474609-1.2121582.2441406-2.2539062.5556641-3.1845703.9521484-1.6928711.7236328-2.8449707,1.8232422-3.5212402,3.3623047-.3520508.7998047-.4436035,1.6513672-.5195312,2.6015625-.0480957.5976562.0974121,1.2363281.2380371,1.8535156l.0361328.1591797c.0805664.3574219.220459.875.5026855,1.2402344.5996094.7783203,1.2575684,1.3066406,2.0119629,1.6152344,1.376709.5634766,2.6381836.8066406,3.8635254.7958984.1689453-.0048828.3395996-.0322266.5202637-.0605469.1796875-.0292969.3657227-.0585938.5554199-.0644531.8776855-.0283203,1.7685547-.0292969,2.6298828-.03125,1.3076172-.0029297,2.659668-.0048828,3.9870605-.0986328.9873047-.0693359,1.9904785-.0615234,2.9602051-.0498047,1.1765137.0097656,2.3920898.0234375,3.5800781-.1074219.532959-.0595703,1.0725098-.0625,1.5949707-.0585938.5812988.0068359,1.1845703.0009766,1.7697754-.0810547.4592285-.0654297.9248047-.0605469,1.3754883-.0498047.5812988.0117188,1.1308594.0185547,1.6760254-.1132812l.0251465-.0058594.026123.0009766c.9411621.0205078,1.8984375-.0224609,2.824707-.0644531,1.1418457-.0537109,2.3249512-.0703125,3.4892578-.0791016,1.5222168-.0146484,3.0969238-.0263672,4.6530762.0976562,1.1120605.0888672,2.2561035.0703125,3.3618164.0507812.5004883-.0078125,1.0036621-.0087891,1.4997559-.015625.5146484.0019531,1.029541.0009766,1.5463867.0009766h.6643066l.1906738.5800781c.1062012.3222656.2092285.6337891.3061523.9482422.3537598,1.1416016,1.1118164,2.0087891,2.317627,2.6513672.9304199.4960938,1.965332.7431641,2.9663086.9833984.6647949.1582031,1.310791.2617188,1.9355469.3613281.2626953.0419922.5253906.0839844.7871094.1298828.3544922.0615234.7202148.0917969,1.0737305.1210938.354248.0302734.720459.0605469,1.0825195.1220703.5192871.0898438,1.0649414.1123047,1.5925293.1347656.2390137.0097656.4780273.0205078.7163086.0361328.0783691-.0039062.1689453-.0087891.248291.0488281.1408691.1035156.3083496.0976562.5039062.0898438.1120605-.0009766.223877-.0068359.3330078.0068359.1450195.0175781.2895508.0410156.434082.0634766.1867676.0302734.373291.0595703.5612793.0771484.2687988.0253906.5380859.0449219.807373.0644531.3864746.0273438.7729492.0556641,1.1574707.1005859.3156738.0371094.6293945.0908203.9431152.1455078.2790527.0478516.5578613.0966797.838623.1318359.2380371.0302734.4782715.0458984.7185059.0625.3374023.0224609.6860352.0458984,1.0280762.1074219.2028809.0361328.4174805.0507812.625.0654297.2731934.0195312.5556641.0390625.8271484.1074219.2814941.0693359.5644531.0957031.8640137.1240234.2763672.0263672.5617676.0527344.8459473.1171875.2595215.0576172.5300293.0722656.8161621.0869141.3017578.015625.6140137.03125.9172363.1044922.2177734.0527344.4362793.0654297.6677246.0791016.203125.0117188.4130859.0234375.6228027.0644531.5795898.1152344,1.3439941.2480469,2.1181641.2675781.130127.0039062.2595215.0039062.401123.0009766h.5117188l-.1369629.3203125.4865723.2236328v.8193359l-.0449219.0546875c-.6342773.7714844-1.291748,1.6044922-1.7470703,2.5625-.2370605.4970703-.3989258,1.0371094-.5554199,1.5585938-.0734863.2451172-.1469727.4902344-.2280273.7333984-.5385742,1.6132812-1.0136719,3.3798828-1.4521484,5.4003906-.1987305.9169922-.3937988,1.8964844-.4040527,2.8974609-.0021973.1767578-.0195312.3544922-.0400391.5302734-.03125.2666016-.0673828.5322266-.107666.796875-.0158691.1035156-.036377.2060547-.0571289.3076172-.0366211.1826172-.0712891.3544922-.0766602.5234375-.0302734.9677734-.1437988,1.9375-.2536621,2.8759766l-.0302734.2578125c-.1052246.9042969-.2841797,1.7470703-.5314941,2.5068359-.6228027,1.9121094-1.3286133,4.0791016-2.4104004,6.1064453-.6911621,1.2949219-1.46875,2.5576172-2.2207031,3.7792969-.3859863.6269531-.7717285,1.2539062-1.1479492,1.8876953-.4440918.7470703-.901123,1.4863281-1.3583984,2.2265625-.2541504.4111328-.5085449.8222656-.760498,1.2353516-.2756348.4511719-.5493164.9023438-.8232422,1.3544922-.4160156.6865234-.8322754,1.3730469-1.2539062,2.0566406-.7744141,1.2539062-1.6586914,2.7529297-2.3449707,4.3623047-.8544922,2.0019531-1.5268555,3.8916016-2.0554199,5.7753906-.4360352,1.5537109-.6433105,2.9824219-.6337891,4.3701172.0009766.1660156-.0007324.3320312-.0024414.4980469-.0026855.2509766-.0053711.5029297.0019531.7539062.0268555.8994141-.2011719,1.7333984-.421875,2.5390625-.3579102,1.3066406-.871582,2.5097656-1.3269043,3.5146484-.3181152.7021484-.751709,1.6142578-1.2856445,2.4521484-.2841797.4462891-.6335449.8515625-.9716797,1.2441406-.1699219.1972656-.3400879.3945312-.5019531.5966797-.8703613,1.0878906-1.9172363,2.1279297-3.2006836,3.1787109l-.0947266.0771484-.6638184-.3007812c-1.0349121-.1914062-1.8417969.265625-2.5588379.7822266l-.6098633.4433594c-1.0720215.7792969-2.1804199,1.5859375-3.3476562,2.2744141-.8259277.4873047-1.6574707.9658203-2.4995117,1.4501953l-1.265625.7285156-.1027832-.0712891c-.2033691-.140625-.3984375-.2792969-.588623-.4140625-.4152832-.2939453-.8078613-.5712891-1.2104492-.8271484-.6647949-.4228516-1.4753418-.8564453-2.4499512-.8662109-.8859863-.0068359-1.7175293.2714844-2.6630859.8828125-.720459.4667969-1.4367676.9394531-2.152832,1.4121094-1.2580566.8310547-2.559082,1.6904297-3.8640137,2.4970703-1.4470215.8945312-2.9382324,1.7695312-4.3803711,2.6152344-.9023438.5292969-1.8049316,1.0595703-2.7026367,1.5966797-2.0305176,1.2138672-4.0517578,2.4443359-6.0732422,3.6738281l-.3620605.2207031c-2.4716797,1.5039062-4.9399414,3.0126953-7.4074707,4.5234375-1.0791016.6601562-2.1567383,1.3232422-3.2346191,1.9853516l-2.7429199,1.6845703c-1.5422363.9453125-3.0852051,1.8886719-4.6306152,2.8291016-1.1120605.6767578-2.2272949,1.3496094-3.3435059,2.0214844l-.2946777.1767578c-.8527832.5117188-1.7058105,1.0244141-2.5654297,1.5244141-.5483398.3193359-1.0993652.6337891-1.6506348.9472656-.8293457.4726562-1.6586914.9453125-2.4780273,1.4355469-1.2280273.734375-2.4465332,1.4833984-3.7004395,2.2548828l-1.6508789,1.0136719-.3818359,1.1005859c.2539062.5322266.5280762,1.0400391.9909668,1.4443359.0178223-.0029297.0356445-.0048828.0537109-.0068359.0976562-.0117188.1987305-.0234375.2800293-.0546875l.5268555-.2060547c.5705566-.2216797,1.1604004-.4511719,1.7148438-.71875,3.0258789-1.4677734,7.0007324-3.4296875,10.9099121-5.5878906l.2805176-.1552734c.7907715-.4365234,1.5817871-.8740234,2.364502-1.3251953.9243164-.5322266,1.842041-1.0742188,2.7600098-1.6171875l1.4135742-.8339844c.9130859-.5380859,1.8261719-1.0761719,2.730957-1.6259766.7568359-.4609375,1.5078125-.9316406,2.2587891-1.4013672.4956055-.3105469.9914551-.6210938,1.4887695-.9287109.5383301-.3330078,1.0793457-.6621094,1.6201172-.9912109,1.0273438-.625,2.0898438-1.2714844,3.1157227-1.9345703,1.1914062-.7705078,2.3881836-1.578125,3.5454102-2.359375.6230469-.4199219,1.2458496-.8408203,1.8710938-1.2578125l.46875-.3125c1.0715332-.7148438,2.1794434-1.453125,3.2827148-2.1621094.6828613-.4375,1.371582-.8671875,2.0603027-1.2958984.8256836-.5146484,1.651123-1.0292969,2.4665527-1.5595703.8808594-.5732422,1.7631836-1.1796875,2.6164551-1.765625.4057617-.2783203.8112793-.5576172,1.2182617-.8339844l1.059082-.71875c.9863281-.6708984,1.9726562-1.3408203,2.9614258-2.0068359.5305176-.3583984,1.0654297-.7099609,1.5881348-1.0537109l.6967773-.4589844.0983887.0439453c1.0617676.4697266,1.8793945,1.1582031,2.4321289,2.0488281l.5322266.0761719.045166.0419922c.0627441.0585938.1213379.1162109.1782227.171875.1086426.1064453.2094727.2060547.3208008.2929688,1.2873535,1,2.3112793,1.8916016,3.222168,2.8046875.4152832.4160156.8125.8603516,1.1967773,1.2890625l.4020996.4482422c.4777832.5253906.9536133,1.0537109,1.4238281,1.5869141.3393555.3837891.6755371.7714844,1.0119629,1.1591797.6611328.7617188,1.3449707,1.5488281,2.0407715,2.2998047.2138672.2304688.4311523.4580078.6481934.6855469.6533203.6845703,1.3288574,1.3925781,1.9069824,2.1787109.3012695.4091797.6186523.8066406.935791,1.2041016.4187012.5244141.8518066,1.0673828,1.2416992,1.6308594.7763672,1.1220703,1.5356445,2.2822266,2.2702637,3.4033203.3642578.5566406.7287598,1.1132812,1.0964355,1.6679688,1.5773926,2.3779297,3.1027832,4.9570312,4.5341797,7.6669922.5773926,1.0927734,1.137207,2.1943359,1.6972656,3.2958984.7770996,1.5302734,1.5810547,3.1123047,2.4204102,4.6416016.1984863.3613281.3479004.75.4924316,1.1259766.0869141.2255859.1740723.4521484.2719727.6728516.2275391.5146484.4602051,1.0263672.6928711,1.5380859.3427734.7548828.6855469,1.5097656,1.0129395,2.2705078.7260742,1.6894531,1.2727051,3.4248047,1.625,5.1591797l.026123.1279297-.1086426.0742188c-.532959.3603516-1.064209.71875-1.5935059,1.0742188-1.1660156.7851562-2.322998,1.5644531-3.4689941,2.359375-1.6154785,1.1191406-3.519043,2.4482422-5.3884277,3.8173828-1.1784668.8632812-2.3269043,1.796875-3.4377441,2.6992188-.465332.3779297-.9208984.7685547-1.3762207,1.1591797-.5368652.4609375-1.092041.9365234-1.6564941,1.3847656-1.2993164,1.0302734-2.8452148,2.2431641-4.4589844,3.4179688-.7043457.5126953-1.3991699,1.0390625-2.0939941,1.5644531-1.2158203.9208984-2.4731445,1.8730469-3.767334,2.7373047-1.2963867.8662109-2.5922852,1.78125-3.8457031,2.6669922-.6987305.4931641-1.3977051.9873047-2.1003418,1.4746094-1.5112305,1.0498047-3.0803223,2.0380859-4.6635742,2.9375-1.4931641.8496094-2.9328613,1.5195312-4.4016113,2.0488281-.9919434.3564453-2.0092773.6904297-2.9929199,1.0136719-1.5356445.5048828-3.123291,1.0263672-4.644043,1.6455078-.3190918.1298828-.6391602.2578125-.9589844.3857422-1.2570801.5029297-2.5571289,1.0224609-3.78125,1.6523438-.3728027.1914062-.6118164.3730469-.7861328.6005859v.8769531l.486084.5224609c.1386719-.0039062.2736816-.0009766.404541-.0039062.3374023.0048828.6574707,0,.9741211-.0820312,1.4680176-.3808594,2.9279785-.8349609,4.1809082-1.2304688,2.1303711-.671875,3.8447266-1.3339844,5.3950195-2.0839844,1.0356445-.5009766,2.1433105-1.0761719,3.3859863-1.7578125,1.7214355-.9423828,3.3947754-1.8828125,4.9733887-2.7949219,1.6049805-.9287109,3.2333984-1.8974609,4.8395996-2.8789062,1.0456543-.6396484,2.0844727-1.2890625,3.1235352-1.9394531.963623-.6025391,1.9272461-1.2050781,2.8962402-1.7998047,1.982666-1.2158203,3.9934082-2.4501953,5.8737793-3.8105469,2.1887207-1.5830078,3.8764648-2.7666016,5.4716797-3.8369141,1.3837891-.9287109,2.7285156-1.9599609,4.0288086-2.9570312.4846191-.3720703.9694824-.7431641,1.4572754-1.1113281,1.9682617-1.4814453,3.5043945-2.5742188,4.9812012-3.5439453.4475098-.2939453.8989258-.5830078,1.3505859-.8710938.9716797-.6210938,1.9763184-1.2636719,2.9204102-1.9501953,1.2460938-.90625,1.9155273-2.1201172,1.9899902-3.6083984.0078125-.1523438.0449219-.2988281.0749512-.4169922.005127-.0205078.0102539-.0400391.0148926-.0595703-.0358887-.0664062-.0732422-.1318359-.1098633-.1953125-.107666-.1865234-.21875-.3789062-.2675781-.5927734-.1506348-.6572266-.3359375-1.2773438-.5661621-1.8964844-.0778809-.2089844-.1218262-.4257812-.1643066-.6357422-.0185547-.0917969-.0368652-.1826172-.0581055-.2734375l-.0366211-.1542969.1435547-.0683594c.1589355-.0751953.3146973-.1455078.4663086-.2138672.3327637-.1494141.6467285-.2910156.9331055-.4658203.3581543-.2177734.8146973-.5146484,1.173584-.8886719.3603516-.3730469.7060547-.7773438,1.0402832-1.1679688.2954102-.3447266.5910645-.6904297.9008789-1.0224609.4833984-.5175781.9958496-1.0214844,1.4914551-1.5087891l.5471191-.5400391c.9206543-.9150391,1.7438965-1.9355469,2.4472656-3.0332031.548584-.8544922.7626953-1.5742188.6943359-2.3320312-.019043-.2119141-.013916-.4238281-.0090332-.6289062.001709-.0742188.003418-.1474609.0039062-.2216797-.0927734-.1669922-.182373-.3349609-.2717285-.5019531-.2165527-.4052734-.4213867-.7880859-.6638184-1.1513672-.505127-.7578125-1.0507812-1.484375-1.6123047-2.2236328-.857666-1.1289062-1.7219238-2.2529297-2.5893555-3.3818359l-1.2158203-1.5820312.0708008-.1152344c.0146484-.0244141.0292969-.0517578.045166-.0810547.0458984-.0859375.1027832-.1923828.1872559-.2851562,1.0710449-1.1787109,2.1455078-2.3544922,3.2255859-3.5253906.279541-.3027344.5634766-.6025391.8476562-.9013672.4504395-.4755859.9162598-.9658203,1.3537598-1.4648438.7077637-.8056641,1.5385742-1.7685547,2.3342285-2.7988281,1.1608887-1.5039062,2.4594727-2.9980469,3.8598633-4.4404297l.0991211-.1005859c.0522461-.0517578.1044922-.1035156.1535645-.1582031.2480469-.2773438.4941406-.5566406.7399902-.8359375.5222168-.59375,1.0620117-1.2070312,1.6174316-1.7900391,1.2675781-1.3310547,2.5935059-2.5683594,3.940918-3.6787109.5302734-.4375,1.0505371-.9082031,1.5537109-1.3632812.4130859-.3740234.826416-.7480469,1.2504883-1.1083984.6437988-.5488281,1.2990723-1.0849609,1.9543457-1.6201172.4389648-.359375.8779297-.7177734,1.3137207-1.0810547.5073242-.421875,1.0109863-.8476562,1.5146484-1.2734375.4829102-.4091797.9660645-.8173828,1.4521484-1.2226562.6193848-.515625,1.2419434-1.0283203,1.864502-1.5400391.4873047-.4003906.9743652-.8017578,1.4599609-1.2041016.1960449-.1621094.3876953-.3300781.5795898-.4970703.1757812-.1542969.3518066-.3076172.5310059-.4580078.3684082-.3066406.7397461-.6113281,1.1108398-.9160156.7460938-.6113281,1.5175781-1.2431641,2.2504883-1.8916016.8154297-.7207031,1.6103516-1.4960938,2.3793945-2.2451172l.5-.4873047c.1362305-.1318359.2573242-.2783203.3786621-.4257812.1276855-.1542969.2556152-.3085938.3979492-.4482422.3288574-.3203125.6645508-.6337891,1.0002441-.9472656.3098145-.2890625.6196289-.578125.923584-.8730469,1.9951172-1.9345703,3.9855957-3.875,5.973877-5.8183594.3076172-.3007812.6115723-.6054688.9152832-.9101562.4099121-.4121094.8195801-.8232422,1.2390137-1.2246094.4743652-.4541016.9987793-.9228516,1.6506348-1.4775391.3674316-.3115234.7404785-.6171875,1.1132812-.9228516.4179688-.3417969.8359375-.6845703,1.2458496-1.0361328.4140625-.3544922.8154297-.7246094,1.2165527-1.09375.1921387-.1767578.3842773-.3544922.5778809-.5292969l.4787598-.4345703c.8198242-.7431641,1.6394043-1.4863281,2.4619141-2.2265625l.3342285-.3037109c.3552246-.3251953.7226562-.6621094,1.112793-.9628906,1.1210938-.8623047,2.1135254-1.7158203,3.034668-2.6103516.4916992-.4785156.996582-.9414062,1.501709-1.4042969l.6901855-.6376953c.0456543-.0449219.0976562-.0966797.1655273-.1367188.8935547-.5400391,1.6672363-1.2666016,2.4155273-1.9697266.3535156-.3320312.7070312-.6650391,1.0744629-.9804688.2602539-.2226562.5151367-.4521484.7702637-.6816406.1987305-.1787109.3974609-.3574219.5986328-.5341797.9912109-.8652344,2.083252-1.6230469,3.1394043-2.3554688l.6708984-.4667969c.8210449-.5761719,1.6533203-1.1347656,2.4858398-1.6943359l1.2407227-.8369141c.7246094-.4912109,1.473877-.9990234,2.2304688-1.4716797.6774902-.4228516,1.3635254-.8310547,2.0493164-1.2402344.8112793-.484375,1.6501465-.984375,2.4589844-1.4990234,1.1132812-.7070312,2.2148438-1.4326172,3.3166504-2.1582031.9130859-.6015625,1.826416-1.203125,2.7460938-1.7939453,1.4072266-.9052734,2.935791-1.8535156,4.579834-2.6601562.7558594-.3701172,1.5175781-.7275391,2.2790527-1.0859375.7404785-.3486328,1.4812012-.6962891,2.2163086-1.0556641.7055664-.3447266,1.4067383-.6992188,2.1079102-1.0527344.9589844-.484375,1.9506836-.9853516,2.9389648-1.453125.6896973-.3261719,1.4072266-.6152344,2.1013184-.8955078.4072266-.1640625.814209-.328125,1.2177734-.5l.453125-.1923828c.8669434-.3642578,1.7636719-.7421875,2.5585938-1.2685547,1.3581543-.8994141,3.0871582-2.1572266,4.4150391-3.9179688.8410645-1.1162109,1.3469238-2.3730469,1.5026855-3.7353516.1071777-.9316406.1538086-1.921875-.2248535-2.8544922l-.1008301-.2480469.8845215-.0722656c.5800781-.0478516,1.1513672-.09375,1.722168-.1455078.1296387-.0117188.2602539-.0205078.3911133-.0292969.3825684-.0263672.7438965-.0507812,1.0876465-.1435547.2226562-.0595703.4362793-.0830078.6430664-.1044922l.168457-.0185547c.1347656-.0166016.2687988-.0419922.402832-.0673828.1499023-.0283203.2998047-.0566406.4511719-.0732422.2304688-.0253906.4616699-.0449219.692627-.0634766.322998-.0263672.645752-.0527344.9660645-.0976562.5632324-.0791016,1.1240234-.171875,1.6850586-.2646484.3391113-.0556641.6779785-.1113281,1.0175781-.1640625.2421875-.0371094.4865723-.0654297.730957-.09375.4628906-.0537109.9414062-.109375,1.3862305-.2304688,1.6108398-.4394531,3.3012695-1.0019531,4.7526855-2.140625.8237305-.6445312,1.3208008-1.3291016,1.5644531-2.1552734.1022949-.3466797.2207031-.6875.3371582-1.0234375l.1958008-.5722656h.7355957c.845459-.0009766,1.6928711,0,2.5395508-.0029297,1.857666-.0039062,3.7783203-.0078125,5.668457.0175781.9443359.0117188,1.8881836.0117188,2.8320312.0126953,1.7766113.0009766,3.6135254.0019531,5.4248047.0839844,2.1748047.0986328,4.3925781.0800781,6.5361328.0576172,2.4521484-.0214844,4.9870605-.0458984,7.4816895.1074219.4050293.0253906.8098145-.0195312,1.2390137-.0654297.2089844-.0224609.4177246-.0439453.6262207-.0585938.5014648-.0351562,1.0029297-.0673828,1.5046387-.1005859l.9040527-.0595703c.041748-.0029297.0825195-.0058594.1223145-.0126953.1560059-.0273438.3100586-.0595703.4643555-.0908203.3405762-.0693359.692627-.1416016,1.0483398-.1679688.6938477-.0517578,1.3720703-.2353516,2.0014648-.4267578.862793-.2607422,1.7167969-.609375,2.470459-.9169922.2382812-.0966797.5788574-.2529297.7822266-.4804688.6308594-.7060547,1.109375-1.5429688,1.4221191-2.4873047.0917969-.2773438.1896973-.6835938.1352539-1.0488281l-.0349121-.2490234c-.0627441-.4580078-.1218262-.890625-.3322754-1.2871094-.130127-.2441406-.2138672-.5078125-.2946777-.7636719ZM96.0991211,127.41233c.8342285,1.0029297,1.5439453,2.0742188,2.3193359,3.2685547.2783203.4306641.2541504.890625-.0715332,1.3681641l-.0495605.0722656c-.376709.5527344-.7661133,1.1240234-1.206543,1.6445312-.8178711.9667969-1.642334,1.8886719-2.4509277,2.7421875-.5959473.6298828-1.3103027,1.1142578-1.9934082,1.5439453-.3237305.2041016-.6369629.4384766-.9685059.6875-.1604004.1201172-.3259277.2441406-.5012207.3710938l-.1989746.1445312-.8085938-1.8876953c-.5966797-1.3964844-1.1604004-2.7158203-1.7590332-4.0556641-.1940918-.4345703-.4379883-.8603516-.6738281-1.2734375-.142334-.2480469-.284668-.4980469-.418457-.7509766-.2106934-.3974609-.416748-.7978516-.6228027-1.1982422-.3217773-.6259766-.6433105-1.2509766-.9829102-1.8671875-.8435059-1.5283203-1.625-2.9023438-2.3896484-4.2011719l-.1691895-.2871094c-.9287109-1.578125-1.8891602-3.2099609-2.8913574-4.7763672-1.3103027-2.0488281-2.6975098-4.0888672-3.8947754-5.8388672-.6772461-.9902344-1.4455566-2.0429688-2.3486328-3.2167969-.4140625-.5380859-.8999023-1.0429688-1.369873-1.53125l-.0361328-.0371094c-.3242188-.3378906-.6564941-.6669922-.9887695-.9960938-.385498-.3828125-.7709961-.7646484-1.1435547-1.1591797-.5322266-.5634766-1.0566406-1.1347656-1.5808105-1.7060547-.6191406-.6738281-1.237793-1.3476562-1.869873-2.0097656-.8859863-.9267578-1.8581543-1.8994141-2.9726562-2.9716797-.3317871-.3183594-.6958008-.609375-1.0478516-.8916016-.157959-.1259766-.3132324-.25-.4621582-.3740234l-.204834-.1708984,8.0327148-5.2431641.3303223.3291016c.1638184.1611328.3312988.3261719.4907227.4990234.137207.1484375.2687988.3037109.4001465.4580078.2121582.2490234.4316406.5068359.6694336.7285156,1.1589355,1.0771484,2.0800781,2.3554688,2.8522949,3.46875l.3654785.5292969c.7036133,1.0195312,1.4309082,2.0732422,2.2148438,3.0507812,1.2868652,1.6025391,2.4033203,3.2958984,3.4182129,4.8886719.5405273.8476562,1.0666504,1.7060547,1.5925293,2.5625.5075684.828125,1.0151367,1.6552734,1.5356445,2.4746094.4206543.6611328.878418,1.3183594,1.3208008,1.953125.1984863.2851562.3967285.5693359.5927734.8554688l.6799316.9990234c.5463867.8037109,1.0927734,1.6083984,1.6564941,2.4003906.7209473,1.0146484,1.4885254,2.0214844,2.1657715,2.9111328.6149902.8066406,1.2888184,1.6689453,2.0595703,2.6357422.2561035.3212891.5292969.6289062.8024902.9365234l.1955566.2216797c.2624512.296875.527832.5917969.7932129.8867188.527832.5869141,1.0737305,1.1943359,1.5881348,1.8125Zm74.0991211-80.8310547l-.3679199.4150391c-.5092773.5771484-1.0305176,1.1445312-1.5517578,1.7109375-.5236816.5683594-1.0473633,1.1376953-1.5588379,1.7177734-.8183594.9296875-1.7243652,1.7441406-2.8325195,2.6826172l-.1328125.1123047c-.3269043.2773438-.6535645.5546875-.972168.8408203-.3093262.2773438-.6157227.5585938-.9223633.8398438-.307373.2822266-.6149902.5634766-.9250488.8427734-.8549805.7685547-1.7143555,1.5332031-2.5754395,2.2939453l-.6533203.5810547c-.6303711.5615234-1.2824707,1.1425781-1.9445801,1.6923828-.6755371.5605469-1.3786621,1.1083984-2.0588379,1.6386719-.2873535.2246094-.5749512.4482422-.8613281.6738281-.2143555.1689453-.4301758.3359375-.6459961.5039062-.4353027.3369141-.8706055.6738281-1.2939453,1.0253906-.8925781.7431641-1.7727051,1.5-2.6525879,2.2578125l-.2412109.2080078c-.3500977.3017578-.6975098.6064453-1.0449219.9111328-.4611816.4042969-.9221191.8085938-1.388916,1.2050781-.5058594.4326172-1.0178223.8574219-1.529541,1.2822266-.3322754.2753906-.6643066.5507812-.994873.828125-.1125488.0947266-.2163086.1992188-.3200684.3037109l-1.0720215,1.0673828c-.6518555.6503906-1.3034668,1.3007812-1.9621582,1.9433594-1.689209,1.6494141-3.385498,3.2929688-5.0842285,4.9326172-.2199707.2119141-.4467773.4179688-.673584.6230469-.2946777.2666016-.5991211.5419922-.8803711.8271484-.4841309.4921875-.9606934.9912109-1.4372559,1.4902344-.7670898.8037109-1.5605469,1.6347656-2.3747559,2.4199219-.7407227.7138672-1.5358887,1.3925781-2.3049316,2.0488281-.3540039.3027344-.7080078.6044922-1.0578613.9111328-.1784668.1552734-.3552246.3125-.5319824.4697266-.2619629.2333984-.5241699.4667969-.7907715.6943359-.5100098.4365234-1.0224609.8701172-1.5349121,1.3027344-.4182129.3544922-.8364258.7080078-1.2531738,1.0625-.4267578.3642578-.8503418.7314453-1.2668457,1.1064453-.2768555.2490234-.5512695.5019531-.8256836.7548828-.3388672.3115234-.6777344.6240234-1.0212402.9296875-.5075684.453125-1.0205078.9003906-1.5334473,1.3486328l-1.0561523.921875c-.3127441.2724609-.6254883.5449219-.9326172.8242188-.8254395.75-1.6489258,1.5029297-2.472168,2.2548828l-1.1660156,1.0644531c-.1525879.1386719-.3071289.2763672-.4619141.4130859-.3325195.2949219-.6767578.5996094-.9897461.9199219-.8562012.8740234-1.7114258,1.7802734-2.5385742,2.6552734l-.6386719.6757812c-.5866699.6210938-1.1936035,1.2626953-1.7709961,1.9091797-1.1958008,1.3378906-2.458252,2.7958984-3.5898438,4.390625-.9897461,1.3935547-2.0146484,2.7275391-2.7971191,3.734375-.4030762.5185547-.8630371,1-1.3078613,1.4658203l-.1279297.1337891c-1.0700684,1.1240234-1.9482422,2.3369141-2.6662598,3.375l-.1433105.2070312-.1662598-.1894531c-.1547852-.1757812-.3115234-.3505859-.4680176-.5244141-.3469238-.3857422-.7058105-.7841797-1.0349121-1.1982422-.8044434-1.0097656-1.6015625-2.0703125-2.3046875-3.0058594-.5480957-.7294922-1.0917969-1.4619141-1.635498-2.1953125-.4238281-.5712891-.8474121-1.1416016-1.2731934-1.7109375-.4047852-.5419922-.8120117-1.0810547-1.2192383-1.6201172-.3825684-.5068359-.7648926-1.0126953-1.1450195-1.5205078l-.5605469-.7451172c-.5349121-.7080078-1.0878906-1.4414062-1.6052246-2.1826172l-.1484375-.2128906c-.9973145-1.4306641-2.0288086-2.9101562-3.1589355-4.2792969-.7111816-.8613281-1.3935547-1.7685547-2.0534668-2.6455078-.4091797-.5439453-.8183594-1.0878906-1.2363281-1.6240234-.3630371-.4667969-.7568359-.8955078-1.1967773-1.3671875-.5495605-.5869141-1.1057129-1.1689453-1.6608887-1.7490234l-.9123535-.9570312.5927734-.4863281c.3217773-.2626953.6323242-.5166016.9326172-.78125l.3354492-.2939453c.4501953-.3925781.9157715-.7998047,1.322998-1.2382812.5102539-.5498047.9980469-1.1416016,1.4697266-1.7148438.1699219-.2060547.3395996-.4121094.5107422-.6162109.8376465-1.0009766,1.3286133-2.2246094,1.8037109-3.4072266l.2055664-.5087891c.3354492-.8203125.5915527-1.6953125.8393555-2.5410156l.1066895-.3632812c.0644531-.21875.0981445-.4462891.1337891-.6875.03125-.2119141.0637207-.4306641.1191406-.6445312.184082-.7138672.1630859-1.4257812.1408691-2.1806641-.0090332-.3066406-.0180664-.6123047-.0126953-.9189453.0202637-1.1210938.2473145-2.2460938.6943359-3.4394531.1152344-.3076172.2285156-.6162109.3417969-.9248047.3352051-.9121094.6818848-1.8564453,1.076416-2.7646484.3908691-.9003906.8432617-1.7890625,1.2807617-2.6484375.1359863-.2675781.2719727-.5341797.4064941-.8017578.6816406-1.3564453,1.5021973-2.6298828,2.2873535-3.8037109,1.0498047-1.5712891,2.4226074-3.6474609,3.7307129-5.7763672l.5771484-.9375c1.440918-2.3330078,2.9309082-4.7460938,4.0976562-7.28125.418457-.9101562.7180176-1.8535156.9157715-2.8867188.119873-.6259766.1767578-1.2695312.2319336-1.8916016.0224609-.2519531.0446777-.5048828.0712891-.7578125.0529785-.5087891.0585938-1.0322266.0639648-1.5371094.0061035-.5791016.0126953-1.1767578.0893555-1.7626953.09375-.7148438.0939941-1.4453125.0942383-2.1513672.0002441-.3759766.0002441-.7519531.0136719-1.1279297.0654297-1.8466797.3793945-3.3408203.9885254-4.7001953.4060059-.9072266.784668-1.8466797,1.151123-2.7558594.2980957-.7402344.5964355-1.4804688.9123535-2.2128906.3337402-.7734375.7365723-1.5273438,1.1264648-2.2558594l.1123047-.2109375c.114502-.2148438.3081055-.421875.545166-.5830078.6257324-.4248047,1.3071289-.6669922,1.9504395-.8652344,1.1594238-.359375,2.1967773-.4667969,3.1704102-.328125.4829102.0683594.9758301.0800781,1.4523926.0927734.2634277.0058594.526123.0126953.7883301.0283203l.0761719.0205078.0617676.0302734c.7004395.3486328,1.4245605.7080078,1.9987793,1.3173828.3291016.3496094.5581055.7265625.6804199,1.1210938.1872559.6054688.3359375,1.2285156.4794922,1.8310547l.1298828.5400391c.0595703.2441406.114502.4892578.1691895.734375.0947266.4238281.192627.8613281.3146973,1.28125.1350098.4638672.2731934,1.0185547.2751465,1.6132812.0026855.8691406-.0876465,1.7744141-.2839355,2.8505859-.3491211,1.9140625-.7507324,3.6308594-1.2275391,5.2480469-.2612305.8847656-.5854492,1.7636719-.8989258,2.6142578-.152832.4140625-.3059082.8291016-.4523926,1.2460938-.2783203.7919922-.4641113,1.6289062-.6435547,2.4375l-.0847168.3789062c-.2099609.9326172-.1608887,1.8564453-.0849609,2.6376953.1235352,1.2753906.4521484,2.5361328.9760742,3.7480469.4030762.9326172.6560059,1.9521484.7741699,3.1181641.0300293.296875.0891113.6005859.1459961.8935547.0378418.1953125.0756836.3896484.1062012.5849609.0332031.2128906.0336914.4277344.0341797.6162109.0007324.3388672.0092773.6787109.0178223,1.0185547.020752.8134766.0419922,1.6542969-.0488281,2.4746094-.0375977.3388672-.0458984.6904297-.0539551,1.0292969-.013916.5986328-.0285645,1.2167969-.1994629,1.8242188-.0288086.1015625-.0224609.2275391-.015625.3603516.0029297.0576172.0058594.1162109.0063477.1738281.0036621.5576172-.0749512,1.1074219-.1508789,1.640625-.0427246.2988281-.0854492.5976562-.1137695.8974609-.0603027.6416016-.1862793,1.2744141-.3081055,1.8857422-.064209.3222656-.128418.6445312-.1835938.9697266-.1318359.7773438-.3544922,1.5449219-.5698242,2.2880859l-.1445312.5019531c-.472168,1.6640625-.8901367,2.9248047-1.3549805,4.0888672-.5246582,1.3134766-1.215332,2.5566406-2.0522461,3.6962891-.1535645.2099609-.3054199.4208984-.4570312.6318359-.3024902.4199219-.6052246.8408203-.9233398,1.25-1.2507324,1.6054688-2.3413086,2.7089844-3.5361328,3.5771484l-.4638672.3339844c-.715332.5136719-1.454834,1.0439453-2.0961914,1.6669922-.1220703.1181641-.2727051.1914062-.4182129.2626953-.0498047.0244141-.1000977.0478516-.1494141.0751953l-1.4206543,1.65625v.8623047l.0432129.0507812c.0566406.0693359.1137695.1396484.1801758.2001953.4084473.3720703.7338867.4208984,1.1621094.1728516.6696777-.3876953,1.3457031-.8144531,2.0668945-1.3066406.5603027-.3828125,1.1159668-.7958984,1.6535645-1.1953125l.4536133-.3369141c.0959473-.0712891.1821289-.1650391.2734375-.2646484.3137207-.34375.614502-.6669922.9150391-.9902344.6872559-.7392578,1.3977051-1.5039062,2.0541992-2.2880859,1.640625-1.9599609,2.8464355-3.6386719,3.795166-5.2822266.4599609-.796875.822998-1.6738281,1.1743164-2.5224609l.0275879-.0664062c.6757812-1.6337891,1.1191406-3.3779297,1.5478516-5.0644531l.1850586-.7246094c.0839844-.3261719.1291504-.6748047.1728516-1.0117188.0446777-.34375.0908203-.6982422.1782227-1.0429688.0554199-.2197266.0686035-.4472656.0825195-.6875.0202637-.3457031.0412598-.7050781.1962891-1.0537109.0004883-.0058594-.0014648-.0400391-.0024414-.0625-.0014648-.0273438-.0026855-.0546875-.0021973-.0820312.0102539-.4951172.048584-.9941406.0856934-1.4765625.0473633-.6171875.0964355-1.2548828.0856934-1.8828125-.010498-.6132812.0263672-1.2333984.0620117-1.8339844.0246582-.4150391.0493164-.8310547.0588379-1.2470703.0192871-.8388672.0129395-1.6943359.0068359-2.5224609l-.0036621-.5019531c-.0041504-.6933594-.1430664-1.3720703-.2636719-1.8867188-.0354004-.1503906-.0275879-.2998047-.0192871-.4570312.0036621-.0693359.0073242-.1416016.0073242-.2177734v-.1884766l.3769531-.0175781c.1918945-.0117188.3864746-.0136719.579834-.015625.3015137,0,.6025391.0009766.9038086.0019531.7900391.0048828,1.5800781.0068359,2.3691406-.0097656.3273926-.0068359.6633301-.0380859.9882812-.0683594.3242188-.0292969.6481934-.0585938.9726562-.0673828,1.2929688-.0390625,2.559082.1328125,3.5202637.2832031.0209961.0029297.0422363.0029297.0639648.0019531l.0612793.0009766c.3781738.015625.7558594.0332031,1.1333008.0507812.8288574.0390625,1.685791.0791016,2.527832.0966797l.536377.0117188c1.0085449.0224609,2.0517578.0478516,3.0627441-.0371094.173584-.0146484.3491211-.0244141.5249023-.0341797.4799805-.0273438.9760742-.0546875,1.4445801-.1933594.2629395-.0771484.5412598-.1015625.8103027-.125.1218262-.0107422.2436523-.0214844.3635254-.0371094,1.1811523-.1542969,2.3361816-.4345703,3.2104492-.6621094,2.079834-.5400391,3.934082-1.1582031,5.6689453-1.8896484,1.5556641-.6552734,3.3186035-1.3974609,4.9348145-2.3222656,1.795166-1.0253906,3.092041-1.9199219,4.2053223-2.8994141.5844727-.5146484,1.2009277-1.0087891,1.796875-1.4873047.4389648-.3525391.8776855-.7041016,1.3076172-1.0664062.5168457-.4355469,1.0209961-.9082031,1.5085449-1.3652344l.2770996-.2597656c.5310059-.4960938,1.059082-.9951172,1.5871582-1.4941406.435791-.4111328.871582-.8232422,1.309082-1.2333984.572998-.5361328,1.1506348-1.0673828,1.7314453-1.5957031.2841797-.2587891.5671387-.5185547.8500977-.7783203.7692871-.7070312,1.5646973-1.4375,2.3728027-2.1289062.8764648-.7490234,1.7856445-1.4882812,2.6647949-2.2021484.4294434-.3486328.8586426-.6972656,1.2858887-1.0488281.2053223-.1679688.407959-.3408203.6105957-.5126953.3676758-.3125.7478027-.6347656,1.1398926-.9335938.8640137-.6572266,1.8706055-1.4160156,2.8879395-2.1054688,1.1774902-.7988281,2.4086914-1.5908203,3.6591797-2.3544922.5952148-.3632812,1.2312012-.6738281,1.8461914-.9736328l.2814941-.1376953c1.4638672-.71875,2.5856934-1.4033203,3.5305176-2.1552734l.0539551-.0419922h10.4348145c1.1489258.1630859,2.2548828.1503906,3.4282227.1337891.7714844-.0087891,1.5695801-.0205078,2.3681641.0253906l.1887207.0107422-.0031738.1884766c-.0100098.5761719-.2177734,1.1220703-.6347656,1.6689453-.6315918.8271484-1.4726562,1.5175781-2.5712891,2.1103516-1.5021973.8105469-3.1848145,1.5449219-5.295166,2.3115234-1.2739258.4638672-2.2827148.8759766-3.1743164,1.296875-1.1237793.53125-2.2033691,1.2070312-3.2087402,2.0068359-.8044434.6396484-1.53125,1.3896484-2.2341309,2.1142578-.2380371.2451172-.4760742.4902344-.7175293.7324219-.4519043.4541016-.8916016.9199219-1.3312988,1.3857422-.4025879.4257812-.8054199.8525391-1.2175293,1.2705078-.2597656.2626953-.5390625.5107422-.8093262.75-.220459.1962891-.440918.3916016-.6523438.5966797-1.6186523,1.5673828-3.1623535,3.3427734-4.5891113,5.2773438-.675293.9169922-1.4436035,1.7822266-2.1865234,2.6201172Zm-55.4455566-15.6503906c-.0090332-.6894531-.0183105-1.4013672-.0041504-2.1035156.0109863-.5224609-.0454102-1.0917969-.1677246-1.6933594-.0668945-.328125-.1118164-.6621094-.1555176-.984375-.0361328-.2685547-.0725098-.5371094-.1213379-.8046875-.0910645-.4951172-.1999512-.9863281-.309082-1.4775391-.0568848-.2568359-.1137695-.5136719-.1682129-.7714844-.0375977-.1777344-.0700684-.3564453-.1025391-.5371094l-.0646973-.3505859.5178223-.5517578.138916-.0166016c.0561523-.0107422.1203613-.0195312.1918945.0009766.5200195.1640625,1.1088867.2490234,1.8032227.2626953.5717773.0087891,1.1450195.0029297,1.7177734-.0048828.9916992-.0117188,2.0170898-.0263672,3.0224609.0576172,1.8962402.1621094,3.9685059.1845703,6.5222168.0751953,1.0844727-.046875,2.1853027-.0488281,3.2497559-.0507812,1.3476562-.0019531,2.7412109-.0048828,4.1037598-.0986328,1.0385742-.0703125,2.090332-.0664062,3.1071777-.0625,1.081543.0048828,2.1984863.0097656,3.2893066-.078125,1.3012695-.1054688,2.6169434-.0996094,3.8903809-.0976562.5947266.0019531,1.1889648.0029297,1.7844238-.0048828,1.3032227-.0205078,2.6054688-.0175781,3.9099121-.0166016.5939941.0009766,1.1887207.0009766,1.7827148.0009766.2214355,0,.4716797,0,.7531738.1044922l.3928223.1474609-.3640137.2080078c-.2133789.1220703-.4279785.2421875-.642334.3632812-.4736328.265625-.9472656.5322266-1.4108887.8154297-1.762207,1.0761719-3.8374023,2.3730469-5.8654785,3.8271484-.3049316.21875-.592041.484375-.8693848.7412109-.1462402.1357422-.2924805.2705078-.4423828.4013672-.3156738.2744141-.6323242.5488281-.9492188.8222656-.3850098.3320312-.7700195.6650391-1.1530762,1-.4775391.4179688-.9501953.8408203-1.4199219,1.2675781-.2827148.2568359-.5637207.515625-.8447266.7744141-.3681641.3388672-.7365723.6777344-1.1086426,1.0126953-.2888184.2587891-.5812988.5146484-.8740234.7695312-.5085449.4433594-1.0344238.9013672-1.5270996,1.3740234-.5754395.5527344-1.1025391,1.1757812-1.567627,1.7246094-.3269043.3867188-.6411133.7841797-.9553223,1.1816406-.2275391.2880859-.4550781.5761719-.6877441.8603516-.357666.4375-.7189941.8710938-1.0803223,1.3056641-.5566406.6699219-1.1132812,1.3388672-1.6572266,2.0195312-.5808105.7255859-1.3061523,1.3193359-2.2819824,1.8681641l-.2358398.1318359c-1.2619629.7099609-2.5668945,1.4433594-3.7460938,2.3203125-.5625.4179688-1.123291.8388672-1.6779785,1.2666016-.8762207.6767578-1.732666,1.3378906-2.5771484,2.0136719-.4396973.3525391-.8642578.7216797-1.2614746,1.0966797-.826416.7783203-1.7102051,1.1572266-2.6982422,1.1572266-.0380859,0-.0766602,0-.1152344-.0019531-.3222656-.0087891-.6452637-.0078125-.9680176-.0058594-.3681641,0-.7353516.0039062-1.1022949-.0107422-.2236328-.0078125-.4382324-.0537109-.6650391-.1015625-.1015625-.0214844-.2058105-.0439453-.3146973-.0634766l-.1125488-.0195312-.0383301-.1083984c-.1174316-.3300781-.237793-.6494141-.3554688-.9619141-.2653809-.7041016-.5158691-1.3691406-.6965332-2.0605469-.2573242-.9863281-.2895508-1.9833984-.0952148-2.9638672.2043457-1.03125.557373-2.0185547.8989258-2.9726562.0878906-.2460938.1760254-.4921875.2617188-.7392578.2629395-.7587891.5791016-1.5097656.8850098-2.2353516.1826172-.4335938.3652344-.8671875.5378418-1.3046875.1381836-.3515625.2155762-.6503906.2370605-.9130859.045166-.5566406.1223145-1.1152344.1970215-1.6552734.0537109-.3876953.1074219-.7753906.1499023-1.1650391.1447754-1.3251953.1269531-2.6767578.1096191-3.984375Zm55.4206543-8.8359375c-.2736816.609375-.7658691.9306641-1.2001953,1.2148438l-.1574707.1035156c-1.4990234,1.0019531-2.8066406,1.9794922-3.9978027,2.9902344-.6503906.5517578-1.3662109,1.0410156-2.0583496,1.5136719l-.5410156.3710938c-1.0983887.7636719-2.3989258,1.6611328-3.7175293,2.5292969-.5275879.3476562-1.1599121.7441406-1.8500977,1.0517578-.4116211.1845703-.7724609.4365234-1.1547852.7021484-.3122559.2177734-.6350098.4433594-.9855957.6259766-.4799805.2490234-.9370117.5146484-1.3586426.7880859-.3024902.1962891-.5966797.4052734-.8911133.6132812-.2585449.1835938-.5170898.3662109-.7807617.5419922-.9282227.6142578-1.9240723,1.2695312-2.9182129,1.8955078-.7573242.4775391-1.5109863,1.0400391-2.3037109,1.7207031-1.4716797,1.2597656-2.9802246,2.1738281-4.6115723,2.7929688-.4777832.1816406-.9418945.4462891-1.390625.7011719-.1896973.1083984-.3791504.2158203-.5705566.3183594-.4689941.2519531-.934082.5107422-1.3994141.7695312l-.1826172.1015625c-.2648926.1464844-.5285645.2949219-.7924805.4433594-.5766602.3242188-1.1533203.6484375-1.7387695.9560547-.4069824.2148438-.8330078.4033203-1.244873.5859375l-.401123.1787109c-.1860352.0839844-.3740234.1630859-.5620117.2431641-.3127441.1328125-.6362305.2695312-.940918.4238281-1.8435059.9345703-3.720459,1.7314453-5.5788574,2.3681641-.0603027.0205078-.1191406.0439453-.1789551.0683594-.1643066.0673828-.3505859.1425781-.5849609.1640625l-.0407715.0214844-.0297852-.015625-.0449219.0039062.0568848.046875-.1052246.2099609-.3088379-.2246094-.1052246.0087891.0512695-.046875-.0908203-.0634766.3369141-.2919922.0854492.0517578.0449219-.0410156c.0244141-.0224609.0478516-.046875.0712891-.0712891.0610352-.0634766.1298828-.1347656.2199707-.1865234,1.1040039-.6396484,2.2106934-1.2744141,3.3178711-1.9072266,1.1989746-.6855469,2.1928711-1.6787109,3.0383301-3.0361328.5356445-.8603516,1.1418457-1.6855469,1.7172852-2.4482422l.2873535-.3828125c.6123047-.8173828,1.2456055-1.6630859,1.9504395-2.4257812.7028809-.7597656,1.4729004-1.4765625,2.2177734-2.1689453.251709-.234375.503418-.46875.7529297-.7041016.2375488-.2246094.4853516-.4384766.7333984-.6513672.1789551-.1542969.3579102-.3085938.532959-.4667969.296875-.2685547.5910645-.5400391.8852539-.8115234.3540039-.3261719.7080078-.6523438,1.0661621-.9746094.4963379-.4462891.9963379-.8876953,1.4963379-1.3300781l.9711914-.8603516c.4929199-.4384766.9841309-.8779297,1.4724121-1.3203125,1.1362305-1.0292969,2.4123535-1.9082031,3.6220703-2.7207031,2.1789551-1.4628906,3.9179688-2.4716797,5.6386719-3.2705078.4091797-.1894531.8374023-.3486328,1.2512207-.5019531l.1611328-.0595703c.0927734-.0341797.1933594-.0537109.293457-.0712891.1123047-.0205078.2182617-.0390625.2861328-.0839844.7250977-.4746094,1.5183105-.46875,2.2858887-.4619141l.0744629.0009766c2.2658691.0146484,4.5314941-.0019531,6.7973633.0253906.6491699.0078125,1.2890625.0566406,1.9667969.1074219.3156738.0234375.637207.0478516.9677734.0683594l.2836914.0175781-.1164551.2597656Zm.8483887,2.0449219c.9304199-.609375,1.197998-1.1523438,1.4790039-2.2177734l.0424805-.1621094.1660156.015625c.1906738.0185547.3813477.0205078.5732422.0224609.3322754.0039062.6760254.0078125,1.0332031.0898438.3063965.0693359.6367188.0537109,1.0202637.0361328.1828613-.0087891.3725586-.0175781.5705566-.0175781h.6889648l-.5852051.3632812c-.5727539.3564453-1.1379395.7050781-1.6970215,1.0488281-1.3168945.8125-2.5610352,1.5791016-3.8056641,2.3847656-.6618652.4287109-1.3027344.921875-1.9226074,1.3994141-.2124023.1640625-.4250488.3271484-.6386719.4892578-.2775879.2089844-.5966797.4560547-.869873.7363281-.2856445.2919922-.5595703.5957031-.8334961.8984375-.2006836.2226562-.4013672.4453125-.6066895.6630859-.8994141.9570312-1.8737793,1.8447266-2.8964844,2.6396484-.0390625.0302734-.0744629.0634766-.1098633.0966797l-.7341309.6806641c-.5251465.4853516-1.0500488.9697266-1.5683594,1.4628906-.4680176.4443359-.932373.8935547-1.3969727,1.3417969-.7775879.7509766-1.581543,1.5273438-2.3908691,2.2724609-.4238281.390625-.8852539.7480469-1.331543,1.09375-.2407227.1855469-.4814453.3720703-.7172852.5644531-.2631836.2138672-.5234375.4316406-.7836914.6484375-.3574219.2988281-.7150879.5976562-1.0803223.8876953-1.1679688.9238281-2.421875,1.9121094-3.6791992,2.8730469-2.4577637,1.8789062-5.2158203,3.25-8.0617676,4.6044922-1.5341797.7294922-3.1811523,1.4833984-4.9616699,1.9707031-.2612305.0722656-.5217285.1464844-.7822266.2207031-.8745117.2490234-1.7785645.5058594-2.7021484.6621094-.2595215.0439453-.5214844.078125-.7827148.1123047-.3984375.0517578-.8103027.1064453-1.1962891.1943359-.3061523.0703125-.6103516.0751953-.9047852.0791016-.3791504.0048828-.7373047.0107422-1.074707.1523438-.1662598.0703125-.3483887.0546875-.5109863.0429688-.0722656-.0058594-.1455078-.0107422-.2155762-.0087891-.2263184.0107422-.4526367.0097656-.6789551.0068359-.484375-.0039062-.9418945-.0078125-1.3979492.1083984-.1220703.03125-.2456055.0400391-.3684082.0400391-.0966797,0-.1931152-.0058594-.2880859-.0107422-.0883789-.0058594-.177002-.0117188-.2641602-.0117188h-.1994629l.0048828-.3505859.1469727-.0888672c.3339844-.0849609.6694336-.1650391,1.0048828-.2441406.746582-.1787109,1.5185547-.3623047,2.2595215-.5917969,1.5407715-.4785156,2.685791-.921875,3.7126465-1.4384766.3691406-.1845703.7519531-.3515625,1.1223145-.5126953.2189941-.0957031.4382324-.1904297.6555176-.2900391.9841309-.4521484,1.9169922-1.0439453,2.8193359-1.6162109l.1618652-.1025391c.5466309-.3466797,1.0947266-.6914062,1.6425781-1.0361328,1.449707-.9121094,2.9487305-1.8564453,4.401123-2.8154297.9472656-.6259766,1.8825684-1.3085938,2.7871094-1.96875.3688965-.2685547.7380371-.5380859,1.1088867-.8046875l.4494629-.3232422c1.8618164-1.3388672,3.7871094-2.7236328,5.8417969-3.8613281.7897949-.4375,1.5639648-.9433594,2.3125-1.4316406.3891602-.2539062.7780762-.5078125,1.1713867-.7539062.5024414-.3154297,1.0070801-.6269531,1.5114746-.9394531.8493652-.5253906,1.6987305-1.0507812,2.5383301-1.5908203,1.1293945-.7275391,2.1262207-1.4052734,3.0476074-2.0703125.5483398-.3964844,1.0939941-.8193359,1.621582-1.2275391.5192871-.4023438,1.0383301-.8037109,1.5688477-1.1894531l.3442383-.2509766c1.3701172-.9980469,2.7866211-2.0302734,4.229248-2.9755859Zm38.6550293,1.3027344c-.5905762,1.3837891-1.4836426,2.5478516-2.7297363,3.5595703-.6621094.5380859-1.3435059,1.0244141-2.083252,1.4873047-.638916.3984375-1.3273926.6767578-1.9931641.9462891l-.0556641.0224609c-.5405273.21875-1.083252.4326172-1.6257324.6474609-1.2590332.4970703-2.5610352,1.0117188-3.8146973,1.578125-1.8688965.8447266-3.5493164,1.5869141-5.137207,2.2685547-.4191895.1806641-.8425293.3515625-1.265625.5224609-.8901367.359375-1.8105469.7314453-2.6728516,1.1875-1.7089844.9033203-3.5200195,1.8828125-5.223877,3.0429688l-.8950195.6074219c-1.5324707,1.0410156-3.1169434,2.1171875-4.6572266,3.2011719-.9616699.6757812-1.9262695,1.3837891-2.8591309,2.0683594-.5537109.4052734-1.1071777.8115234-1.6633301,1.2138672-.0869141.0634766-.1862793.0742188-.2687988.0800781l-.1584473.1523438c-.0273438.03125-.0629883.0537109-.1162109.0605469l-.1008301.0517578-.1081543-.1650391-.0043945-.0087891-.0393066-.0595703.019043-.0380859c.003418-.0390625.0219727-.0761719.0554199-.1103516l.0461426-.0664062.2077637-.1865234.3608398-.4521484c.3730469-.4658203.7463379-.9316406,1.1162109-1.4013672.2211914-.2802734.4362793-.5654297.6516113-.8515625.4521484-.6005859.9199219-1.2216797,1.4394531-1.7841797.2241211-.2421875.4416504-.4912109.6594238-.7392578.5810547-.6630859,1.1818848-1.3486328,1.9047852-1.9208984.9350586-.7412109,1.7944336-1.6035156,2.6655273-2.4960938.5539551-.5673828,1.0910645-1.1728516,1.6103516-1.7578125.3149414-.3554688.630127-.7109375.9511719-1.0605469,1.1765137-1.2802734,2.6564941-2.3496094,4.3994141-3.1787109.8256836-.3935547,1.6875-.7392578,2.520752-1.0732422l.6672363-.2695312c.362793-.1474609.729248-.2861328,1.0957031-.4248047.4597168-.1748047.9194336-.3486328,1.3720703-.5410156,1.2419434-.5234375,2.6835938-1.1845703,3.9614258-2.1171875,1.0817871-.7890625,2.1767578-1.7041016,2.8571777-3.0419922.2011719-.3955078.3991699-.8730469.340332-1.4179688-.0148926-.1396484-.0119629-.2802734-.0080566-.4365234.001709-.0712891.0036621-.1455078.0036621-.2255859v-.1816406l.3657227-.03125c.1293945-.0117188.2573242-.0234375.3857422-.0292969.3896484-.0175781.7790527-.0292969,1.168457-.0410156.840332-.0263672,1.7094727-.0537109,2.5559082-.1337891.359375-.0332031.7180176-.0751953,1.0766602-.1171875.5698242-.0664062,1.1591797-.1347656,1.7453613-.1689453.154541-.0097656.3164062-.0527344.487793-.0986328.0881348-.0244141.1777344-.0478516.2700195-.0693359l.1550293-.0341797.1430664.3076172c.3327637.7138672.6469727,1.3867188.6289062,2.2041016-.0126953.5537109-.1999512,1.0351562-.4074707,1.5205078Zm17.5317383-11.1328125c-.1899414.2402344-.3730469.4716797-.5598145.7001953-.4951172.6074219-1.1987305.8544922-1.8195801,1.0732422-.8911133.3134766-1.7941895.5400391-2.637207.7392578-.3203125.0761719-.6501465.1025391-.9689941.1289062-.1643066.0136719-.3286133.0273438-.4916992.0478516-.1574707.0195312-.3144531.0439453-.4716797.0683594-.1765137.0273438-.3527832.0546875-.5300293.0761719-.1081543.0126953-.2172852.0097656-.3273926.0068359-.1972656-.0087891-.3671875-.0117188-.5107422.0908203-.0795898.0576172-.1679688.0517578-.2214355.0488281-.2661133.0146484-.5080566.0253906-.7497559.0361328-.5251465.0234375-1.0681152.0478516-1.5874023.1298828-.5712891.0908203-1.1469727.0947266-1.7038574.0986328-.4777832.0039062-.9719238.0068359-1.4462891.0673828-.4384766.0556641-.8769531.0644531-1.3012695.0722656-.3666992.0078125-.7458496.015625-1.112793.0537109-1.5065918.1582031-3.0361328.1386719-4.5153809.1210938-1.154541-.015625-2.348877-.0302734-3.517334.0400391-2.6765137.1611328-5.3933105.1416016-8.0217285.1210938-1.310791-.0097656-2.6213379-.0175781-3.9328613-.0087891l-1.5241699.0146484c-3.4042969.0332031-6.9243164.0683594-10.3825684-.0498047-1.8991699-.0644531-3.8300781-.0693359-5.6975098-.0742188-.9228516-.0029297-1.8457031-.0048828-2.7685547-.0146484-.6108398.0029297-1.2346191.0292969-1.8383789.0644531-.434082.0244141-.8684082.0498047-1.3027344.0595703-.4086914.0117188-.8188477.0039062-1.2285156-.0039062-.637207-.0087891-1.2971191-.0205078-1.9360352.0341797-1.5688477.1367188-3.1611328.1191406-4.7011719.1035156-1.3120117-.0166016-2.6677246-.0283203-3.9951172.0527344-1.7849121.109375-3.5952148.1191406-5.3461914.109375-1.1010742-.0117188-2.2358398-.0009766-3.3525391.0263672-.0603027.0019531-.1206055.015625-.1811523.0292969-.0803223.0166016-.1611328.0332031-.2419434.0361328-.2419434.0097656-.4846191.0009766-.7270508-.0087891-.1203613-.0039062-.2429199-.0175781-.3652344-.03125-.2414551-.0263672-.4692383-.0537109-.6650391-.0019531-.3027344.078125-.5895996.0849609-.8669434.0908203-.3999023.0087891-.7587891.0058594-1.1159668.0097656-.3054199-.0029297-.6152344-.0009766-.9230957.0048828-.7224121.0136719-1.4453125.0234375-2.1682129.0332031-1.9189453.0253906-3.9030762.0517578-5.8486328.1533203-.4118652.0214844-.824707.0292969-1.2373047.0361328-.6740723.0126953-1.3710938.0253906-2.0441895.1035156-.4050293.0478516-.8129883.0546875-1.2075195.0625-.4643555.0087891-.902832.0166016-1.3388672.0839844-.685791.1064453-1.3740234.1015625-2.0400391.0966797-.5158691-.0039062-1.0478516-.0087891-1.564209.0419922-1.3933105.1318359-2.7983398.1728516-4.1948242.1728516-1.1694336,0-2.3327637-.0292969-3.4785156-.0576172l-1.1879883-.0283203c-.581543-.0117188-1.1643066-.0146484-1.7470703-.0175781-1.263916-.0058594-2.5708008-.0117188-3.8508301-.1220703-1.6599121-.1455078-3.3195801-.0478516-4.987793-.1123047-.4262695-.015625-.8532715-.0253906-1.2802734-.0351562-.9553223-.0224609-1.9428711-.0449219-2.9108887-.1416016-.331543-.0332031-.6726074-.0419922-1.0024414-.0517578-.4396973-.0126953-.8942871-.0253906-1.3395996-.09375-.3833008-.0585938-.7783203-.0693359-1.1606445-.0800781-.333252-.0097656-.6777344-.0185547-1.0185547-.0595703-.6176758-.0742188-1.2355957-.140625-1.8532715-.2070312l-.8115234-.0878906c-.3720703-.0400391-.7441406-.0830078-1.1159668-.1259766-.5158691-.0585938-1.0314941-.1181641-1.5483398-.171875-.5246582-.0537109-1.0490723-.1162109-1.5737305-.1796875-.3151855-.0380859-.6303711-.0761719-.9455566-.1123047-.3457031-.0390625-.690918-.0810547-1.0361328-.1220703-.517334-.0615234-1.034668-.1240234-1.5532227-.1796875-.8620605-.0917969-1.6157227-.1904297-2.3032227-.2988281-.3278809-.0527344-.6574707-.0898438-.9873047-.1269531-.5712891-.0644531-1.1618652-.1318359-1.7397461-.2773438-.2790527-.0703125-.5712891-.0898438-.8806152-.1103516-.204834-.0136719-.4101562-.0273438-.6120605-.0566406-.611084-.0859375-1.1713867-.1835938-1.7128906-.2978516-.7753906-.1640625-1.5981445-.3515625-2.5893555-.5917969-.3156738-.0761719-.6738281-.1630859-.9914551-.3222656l-.0998535-.0498047c-.5354004-.2636719-1.142334-.5634766-1.3469238-1.3037109-.0297852-.1083984-.0925293-.2216797-.1794434-.3769531-.0515137-.0927734-.1105957-.1992188-.1760254-.328125l-.1743164-.3417969.8166504.1269531c.3024902.0478516.5466309.0869141.791748.1162109.1159668.0136719.2324219.0097656.3491211.0097656l.1442871-.0019531,20.1037598-.0009766c1.6633301-.1826172,3.3742676-.1601562,5.0280762-.1367188.7524414.0087891,1.5041504.0185547,2.2568359.0117188l.6791992-.0078125c2.1555176-.0234375,4.3833008-.0517578,6.5727539.0332031.3349609.0126953.670166.0273438,1.0053711.0429688,1.2575684.0576172,2.5576172.1181641,3.8227539.0361328,2.2319336-.140625,4.4975586-.1269531,6.6882324-.1132812,1.0661621.0058594,2.1315918.0126953,3.1977539.0029297,2.3647461-.0244141,4.7692871-.0175781,7.0949707-.0126953.9550781.0029297,1.9121094.0048828,2.8640137.0058594.9089355,0,1.8181152-.0058594,2.7272949-.0117188,2.3127441-.015625,4.7043457-.0302734,7.0559082.0546875.8820801.03125,1.78125.0341797,2.6506348.0361328,1.3046875.0039062,2.6538086.0078125,3.9785156.109375.7788086.0595703,1.5734863.0576172,2.3430176.0576172.8459473-.0019531,1.7209473-.0019531,2.5822754.0771484,1.03125.0957031,2.0854492.0888672,3.1052246.0859375.958252-.0039062,1.9484863-.0068359,2.9223633.0693359,1.267334.1015625,2.5605469.0927734,3.8105469.0830078,1.1376953-.0068359,2.3156738-.015625,3.4741211.0585938,1.0063477.0644531,2.0334473.0683594,3.0268555.0712891,1.0817871.0039062,2.2006836.0068359,3.3000488.0898438.7519531.0566406,1.5185547.0595703,2.2600098.0625.7265625.0029297,1.4780273.0058594,2.2189941.0595703,1.0480957.0761719,2.1188965.0830078,3.1542969.0888672,1.0148926.0068359,2.0644531.0136719,3.0957031.0849609,1.8662109.1289062,3.8327637.1542969,6.0112305.0791016,4.3679199-.1542969,8.8076172-.1367188,13.1008301-.1181641,2.7229004.0087891,5.5390625.0214844,8.3083496-.0097656,1.036377-.140625,2.1125488-.1289062,3.1518555-.1210938.7963867.0097656,1.6193848.015625,2.4208984-.0458984,1.9353027-.1494141,3.8977051-.1308594,5.796875-.1132812,1.098877.0097656,2.234375.0195312,3.3503418-.0009766.0556641.0029297.1098633.0048828.1782227.0136719l.4619141.0488281-.4753418.5996094Zm45.0976562-4.8144531c-.1972656.4794922-.5253906.7558594-1.0322266.8671875-.3808594.0830078-.7631836.2167969-1.1333008.3457031-.1835938.0634766-.3671875.1279297-.5522461.1865234-.0825195.0263672-.1623535.0292969-.2329102.0332031l-1.0314941.0527344c-.6660156.0341797-1.3320312.0683594-1.9978027.1064453-.2805176.0166016-.5610352.0380859-.8415527.0595703-.4250488.0322266-.8500977.0644531-1.2756348.0791016-.3024902.0117188-.6054688.0087891-.9084473.0039062-.3796387-.0029297-.7734375-.0087891-1.1540527.0175781-.3361816.0224609-.6804199.0859375-1.0136719.1474609-.2033691.0380859-.4067383.0751953-.611084.1044922-.1259766.0185547-.2438965-.0019531-.3840332.0195312-.0732422,0-.1467285,0-.2194824.0048828-.3383789.0234375-.6796875.0185547-1.0097656.0136719-.5517578-.0078125-1.0725098-.0175781-1.5959473.1015625-.2124023.0478516-.4240723.0019531-.6286621-.0400391-.1230469-.0263672-.2392578-.0507812-.347168-.0537109-.3261719-.0078125-.6520996-.0058594-.9790039-.0039062-.4804688-.0009766-.9777832.0048828-1.4675293-.0263672-2.604248-.1699219-5.2573242-.1513672-7.822998-.1347656-1.1982422.0078125-2.3959961.0166016-3.5939941.0048828-.4501953.0917969-.9470215.1054688-1.4274902.1191406-.5444336.0146484-1.0588379.0292969-1.5686035.1503906-.0734863.0166016-.1416016.0146484-.2004395.0126953l-.0610352-.0009766c-.5390625.0166016-1.0788574.0361328-1.6186523.0556641-1.1564941.0429688-2.3525391.0869141-3.5307617.0898438-4.4304199.0117188-8.861084.0097656-13.2919922.0048828l-5.0412598-.0039062c-1.8891602-.1894531-3.7990723-.1630859-5.645752-.1367188-.6462402.0087891-1.2922363.0175781-1.9382324.0175781-2.0332031,0-3.8666992.0126953-5.7175293.1660156-.6989746.0576172-1.4057617.0605469-2.0888672.0625-.7370605.0029297-1.4992676.0058594-2.2392578.0791016-.8850098.0878906-1.7565918.1318359-2.6054688.1318359-.5217285,0-1.034668-.0166016-1.5373535-.0498047-1.0795898-.0712891-2.1804199-.0742188-3.2451172-.0771484-1.0585938-.0029297-2.1530762-.0048828-3.2297363-.0751953-.3845215-.0244141-.7705078-.0302734-1.1560059-.0371094-.6101074-.0087891-1.2409668-.0185547-1.857666-.1054688-.7304688-.1015625-1.4802246-.0976562-2.2038574-.0917969-.5725098.0039062-1.1638184.0068359-1.748291-.0410156-1.9372559-.1591797-3.5400391-.1904297-5.0427246-.1005859-1.9243164.1152344-3.8781738.1054688-5.7666016.1025391-1.6164551-.0068359-3.286377-.0107422-4.9250488.0595703l-.0939941.0039062c-1.6625977.0722656-3.3818359.1474609-5.0686035.0693359-2.5244141-.1152344-5.0952148-.0986328-7.5800781-.0820312-2.4240723.0195312-4.9304199.0341797-7.395752-.0732422-1.6442871-.0703125-3.3166504-.0693359-4.9348145-.0644531-1.7409668.0029297-3.5407715.0058594-5.3115234-.0830078-.666748-.0332031-1.347168-.0380859-2.005127-.0429688-.9106445-.0058594-1.8522949-.0126953-2.7773438-.0947266-1.6132812-.1445312-3.2583008-.1328125-4.8493652-.1220703-.7099609.0039062-1.420166.0117188-2.1293945.0019531-1.5073242-.0175781-3.0397949-.0097656-4.5224609-.0039062-.8327637.0039062-1.6726074-.0009766-2.4980469.0068359-.6789551,0-1.357666.0029297-2.0366211.0058594-1.8786621.0068359-3.8205566.0166016-5.7302246-.0390625l-.6157227-.015625c-.8850098-.0205078-1.8000488-.0429688-2.6938477-.1416016-.3200684-.0351562-.6491699-.0449219-.9675293-.0537109-.3774414-.0107422-.7678223-.0214844-1.1525879-.0761719-.4724121-.0664062-.9606934-.0751953-1.4331055-.0830078-.4648438-.0078125-.9453125-.015625-1.4165039-.0791016-1.0458984-.1416016-2.0976562-.0810547-3.130127-.1083984-.418457-.0117188-.8383789-.0029297-1.2573242.0048828-.6574707.0097656-1.3381348.0234375-2.0063477-.0361328-1.5849609-.1416016-3.2016602-.125-4.7651367-.1064453-.822998.0097656-1.6733398.0195312-2.5107422.0039062-.0634766-.0009766-.1274414-.0039062-.1916504-.0068359-.2404785-.0117188-.449707-.0234375-.6428223.0869141-.1569824.0898438-.3640137.0634766-.5107422.0263672-.5622559-.1455078-1.1276855-.1318359-1.7255859-.1171875-.263916.0058594-.5280762.0136719-.7907715.0039062-.3659668-.0097656-.7324219-.0039062-1.0993652.0019531-.5881348.0107422-1.197998.0214844-1.7958984-.0419922-.8017578-.0830078-1.6247559-.0771484-2.4169922-.0791016-.7727051.0068359-1.5710449.0048828-2.3564453-.0712891-1.0153809-.0996094-2.0500488-.0957031-3.0522461-.09375-.7312012.0068359-1.4870605.0048828-2.2324219-.0332031-4.2346191-.2109375-8.4494629-.1552734-12.5246582-.1025391-1.1696777.015625-2.3115234.0380859-3.4243164.1523438-.3120117.0322266-.6257324.0429688-.9291992.0517578-.3815918.0126953-.7419434.0244141-1.1032715.0751953-.4699707.0673828-.9443359.078125-1.4030762.0878906-.4301758.0097656-.8747559.0195312-1.300293.078125-.4350586.0595703-.8696289.0732422-1.2897949.0869141-.255127.0087891-.5100098.0166016-.7651367.0351562-.315918.0224609-.6311035.0527344-.9462891.0830078-.1906738.0175781-.3815918.0361328-.5722656.0527344-.1657715.0136719-.3337402.0097656-.5009766.0078125-.3146973-.0078125-.6105957-.0117188-.887207.1083984-.1010742.0429688-.2041016.0351562-.2866211.0292969-.0268555-.0019531-.0529785-.0068359-.079834-.0039062l-1.425293.0410156c-2.8193359.0810547-5.7351074.1679688-8.6069336.1230469-.1894531-.0019531-.3789062-.0039062-.5683594-.0048828-1.123291-.0068359-2.284668-.0136719-3.4421387-.3769531l-.0688477-.0380859c-.7937012-.6777344-1.3583984-1.3955078-1.7258301-2.1933594-.0871582-.1894531-.2106934-.3662109-.3537598-.5712891-.0715332-.1025391-.1464844-.2099609-.2219238-.3261719l-.0305176-.0478516-.0012207-.0556641c-.0146484-.7978516.2602539-1.6015625.8405762-2.4580078.6352539-.9384766,1.621582-1.3720703,2.5927734-1.7011719.5786133-.1972656,1.2321777-.3515625,2.0566406-.4853516,1.0505371-.1708984,2.1176758-.2089844,3.1499023-.2460938.4624023-.0166016.9250488-.0332031,1.387207-.0615234.5581055-.0332031,1.1242676-.0419922,1.6716309-.0507812.7749023-.0117188,1.576416-.0234375,2.3515625-.1074219.9123535-.1005859,1.8283691-.0996094,2.715332-.0927734.2988281.0019531.5981445.0019531.8984375,0,.4562988-.0185547.9228516.0302734,1.3713379.0634766.3234863.0244141.6472168.0488281.9709473.0595703.2800293.0107422.5610352.0009766.8417969-.0078125.4819336-.0126953.9816895-.0292969,1.4692383.0449219.3815918.0566406.7763672.0625,1.157959.0673828.4106445.0058594.8349609.0107422,1.2512207.0800781.4602051.0771484.9338379.0810547,1.3918457.0839844.3774414.0029297.7680664.0058594,1.1547852.0498047,1.6281738.1816406,3.2915039.1591797,4.901123.1337891.7756348-.0107422,1.5773926-.0244141,2.3684082-.0107422l1.2141113.0185547c1.9992676.0351562,4.0673828.0712891,6.0878906-.0488281,1.6855469-.0976562,3.3950195-.0947266,5.0461426-.09375.7998047.0019531,1.6005859.0019531,2.4008789-.0068359l1.2478027-.0175781c2.0437012-.03125,4.1572266-.0625,6.2299805.0517578,1.1174316.0615234,2.2563477.0595703,3.3571777.0537109,1.2910156-.0048828,2.6237793-.0097656,3.9348145.0908203.8352051.0654297,1.6877441.0634766,2.5112305.0595703.9121094,0,1.855957-.0058594,2.7839355.0820312.6601562.0625,1.3354492.0644531,1.9885254.0664062.6708984.0019531,1.3647461.0039062,2.0476074.0712891,1.6025391.1552734,3.2370605.1386719,4.8186035.1259766.7443848-.0078125,1.487793-.015625,2.2319336-.0039062,1.6225586.0195312,3.2739258.0146484,4.8708496.0087891.7163086-.0019531,1.4326172-.0048828,2.1489258-.0048828.0749512,0,.1057129.0009766.1362305-.0009766,1.5043945-.0820312,3.0187988.0263672,4.4841309.1308594l.755127.0527344c.3308105.0224609.6628418.0283203.9946289.0351562.541748.0107422,1.1018066.0205078,1.6491699.1035156.8034668.1201172,1.6293945.1103516,2.425293.1064453.5695801-.0068359,1.1606445-.0107422,1.7434082.0302734,2.2216797.1552734,4.4865723.1337891,6.6772461.1162109,1.7973633-.0166016,3.65625-.0332031,5.4838867.0478516,1.1386719.0498047,2.298584.0527344,3.4204102.0556641,1.3901367.0039062,2.8278809.0087891,4.2402344.1005859.8508301.0566406,1.7197266.0576172,2.5583496.0507812.996582.0009766,2.0251465-.0058594,3.036377.0878906.809082.0751953,1.6369629.0722656,2.4355469.0712891.8166504.0009766,1.6577148-.0039062,2.4865723.0742188,1.5180664.1464844,3.065918.1298828,4.5625.1162109.7314453-.0078125,1.4628906-.015625,2.1936035-.0039062l.7575684.0107422c1.9555664.03125,3.9770508.0625,5.9550781-.0400391.6118164-.03125,1.2324219-.0371094,1.8327637-.0419922.8674316-.0078125,1.7646484-.015625,2.635498-.1015625.5117188-.0507812,1.0268555-.0556641,1.5251465-.0595703.5578613-.0048828,1.1347656-.0097656,1.6901855-.0810547.5065918-.0654297,1.0161133-.0693359,1.5087891-.0732422.5148926-.0039062,1.0009766-.0068359,1.4882812-.0751953.5893555-.0800781,1.184082-.0742188,1.7536621-.0800781.536377-.0009766,1.0864258,0,1.6176758-.0683594.534668-.0693359,1.0725098-.0712891,1.5927734-.0732422.5371094-.0019531,1.0441895-.0039062,1.5534668-.0732422.777832-.1054688,1.5622559-.0996094,2.3190918-.0908203.6403809.0029297,1.3027344.0107422,1.9450684-.0517578.8134766-.0810547,1.6367188-.0830078,2.4331055-.0839844.7702637-.0019531,1.5671387-.0029297,2.3405762-.0771484,1.1906738-.1162109,2.3920898-.1132812,3.5551758-.1083984.3395996.0009766.6784668.0009766,1.0178223.0009766,3.1984863-.015625,6.3972168-.0136719,9.5957031-.0087891l4.0505371.0029297.1437988-.2363281.1196289.0087891c.1132812.0078125.2253418.0175781.3369141.0273438.2451172.0214844.4868164.0429688.7285156.0449219.8002319.0058594,1.6003418.0047607,2.4002686.0043945l-.0089111-.0786133.0957031.0788574c.2247314-.0001221.449585.0014648.6743164.0012207h.9035645c.487793,0,.9787598.0449219,1.4533691.0888672.7194824.0673828,1.4645996.1376953,2.1843262.0400391.9291992-.1210938,1.8684082-.1113281,2.7768555-.1015625.7329102.0087891,1.4916992.015625,2.2287598-.046875,1.5922852-.1367188,3.2062988-.1181641,4.7687988-.0986328,1.3613281.0146484,2.7705078.03125,4.1486816-.0556641,1.9050293-.1210938,3.8359375-.1142578,5.7038574-.1054688.729248.0039062,1.4587402.0058594,2.1875.0019531.9572754-.0195312,1.9013672.0439453,2.8007812.1503906.4777832.0566406.956543.1005859,1.4348145.1445312.5358887.0498047,1.0710449.0986328,1.6027832.1650391.6503906.0820312,1.3188477.0859375,1.9580078.0820312.5324707.0019531,1.0830078,0,1.6271973.0449219.4851074.0410156.9714355.0615234,1.4572754.0820312.505127.0205078,1.0273438.0429688,1.5407715.0878906.2087402.0185547.4191895.0273438.6293945.0351562.3725586.0146484.7580566.0292969,1.1320801.1025391.2443848.0478516.4890137.0683594.7480469.0898438.3449707.0283203.7019043.0576172,1.057373.1582031.262207.0732422.545166.0878906.8447266.1035156.1899414.0097656.3806152.0195312.5688477.0439453,1.7253418.2246094,3.3977051.5341797,4.9702148.9208984.3601074.0888672.7026367.2392578,1.0336914.3837891.2319336.1015625.4550781.2099609.6784668.3173828.3334961.1611328.6787109.328125,1.0258789.4580078.9143066.34375,1.4892578.9248047,1.8093262,1.8300781l.0112305.0654297-.0148926,1.3652344Z" stroke-width="0"/>
  </g>
</svg>