<?xml version="1.0" encoding="UTF-8"?>
<svg id="Layer_2" data-name="Layer 2" xmlns="http://www.w3.org/2000/svg" viewBox="0 0 234.5925089 113.4584905">
  <g id="Layer_1-2" data-name="Layer 1">
    <g>
      <path d="m88.007806,106.5471214c-4.6276902-.839234-10.2350185-1.623623-15.7277377-2.9008914-11.2524631-2.6166463-21.9820327-6.6554715-32.031722-12.4446577-4.6177736-2.6600905-9.4105919-5.0151722-14.0465949-7.6450523-6.3259285-3.5885666-11.9540914-8.1250879-16.9078086-13.4257773-4.736808-5.06853-7.538882-11.2134725-8.9224144-17.9736382-.8435864-4.1218824-.1177166-8.1879946.8529056-12.2232881,1.5935602-6.625126,5.3781245-11.9390473,10.0525321-16.6651805,6.2268299-6.2957467,13.6482977-10.7606743,21.8261069-14.1256815,11.5552999-4.754768,23.6300793-7.0334251,35.9946937-8.1288554,5.4447168-.482361,10.8761401-1.1474436,16.3589988-.9907278,5.1496436.1471811,10.2998271.4172272,15.4490997.4024214,7.7313412-.0222301,15.1971766,1.5162431,22.6179603,3.4365552.434331.1123912.8929543.2150092,1.2722718.4379045.7160157.4207591,1.3604659.2984946,2.1098644.0575296,3.2959544-1.0598549,6.6032508-2.0880896,9.928376-3.0520802,1.7047907-.4942443,3.4462802-.4160358,5.2172637-.1778452,1.8657206.2509326,3.7713573.1870905,5.6526445.3438736,3.9350414.3279091,7.706058,1.3416624,11.3185853,2.9213307.8181488.35776,1.6450802.7869759,2.3217453,1.356882,1.2300798,1.0360319,2.6369614,1.68798,4.0989793,2.2795447.665494.2692661,1.3036024.6075243,1.9488569.9252199,2.8008502,1.3790721,4.1981204,3.7333104,4.7355867,6.7227542.2500128,1.3904601.5974137,2.7652832.9576606,4.1321682.0596767.2263914.4066696.5277343.6314972.5369923,2.7984649.1153334,5.4290907.8950579,8.0757067,1.75757,10.5829033,3.4489004,20.1753194,8.7957778,29.3332762,15.0183573,6.0340017,4.0999237,10.7705002,9.4503373,14.8928466,15.379245,1.8077863,2.6000269,3.5827653,5.2491606,5.0805689,8.0331463,3.5151226,6.5335735,4.5952095,13.4485665,2.2333365,20.6066088-2.0496704,6.2118711-5.6888712,11.3336874-10.9196825,15.3912349-10.636756,8.2509488-22.7149285,12.9526591-35.9227241,14.9283597-5.1136917.7649378-10.24826,1.50599-15.4006467,1.8606775-4.2277689.2910538-8.4971164.0412728-12.7460943-.0541839-5.8689902-.1318705-11.7460252-.1901946-17.6014161-.5645971-5.946276-.380215-11.8704277-1.1064032-17.8043236-1.6804955-5.1279688-.4961252-10.2628732-.9305459-15.3815239-1.5091319-3.2840887-.3712254-6.5454793-.946165-9.8147417-1.4448638-2.9357817-.4478194-5.8684107-.9162555-9.7339332-1.5214281Zm68.6237682-14.5165402c-1.2587024.832879-1.791184.8927724-3.1983852.3454772-.4812875-.1872106-.9626413-.3870793-1.4145789-.6348104-2.5631329-1.4050545-5.1543471-2.7640647-7.6667157-4.2554536-4.7853695-2.8407124-9.657772-5.5040839-14.835795-7.5625554-2.4860715-.9882988-5.0115675-1.8784417-7.5266613-2.7925095-3.6336842-1.3205847-7.2179452-2.8178268-10.9253729-3.8850958-5.1292743-1.4765893-10.2436509-2.9620845-15.1541923-5.0678733-3.7196393-1.5951066-7.4235611-3.228115-11.1141545-4.8894085-5.1166389-2.3032083-10.4274903-3.7897629-16.0560343-4.0968635-3.8849382-.2119764-7.7704388-.4535008-11.6453373-.7981903-3.6544819-.3251012-7.2948529-.8046721-10.7285726-2.2330073-.0692142-.028816-.1604808-.0046319-.4660528-.0066495.5727158,1.780024,1.1023559,3.4657909,1.6750632,5.1368062.0500218.1459837.3865164.2824647.5840182.2745817,1.1453882-.0456731,2.2892468-.1325097,3.4331884-.2116765,5.6051768-.3878622,11.0888509.4563264,16.5236036,1.691593,1.8807877.4274769,3.8084972.8383888,5.5587748,1.6104906,3.5966095,1.5865802,7.1199117,3.3498581,10.6149599,5.1536217,4.9207079,2.5394739,9.8818952,4.9894753,15.1045846,6.8409472,3.4322062,1.2167461,6.940401,2.2177178,10.4039744,3.3478112,2.6936028.8788386,5.35718,1.8511559,8.0589873,2.7030414,3.0666084.966918,6.1900559,1.7598801,9.2345707,2.7888692,2.7235606.9205346,5.3748254,2.0555536,8.0554408,3.1024319,5.3565498,2.0919529,10.8571524,3.8412178,15.8893978,6.7046418,1.0874489.6187832,1.3663064.8295988,2.4760894-.231518.7772365-.7431317,1.7955383-.766142,2.5336321-.2027416.7459799.56942.9484667,1.6022974.5034672,2.5681696-.641018,1.3913603-2.0905486,2.2427961-3.6680223,2.1655895-1.0757669-.0526512-2.0819289-.3214808-3.0100963-.882954-1.1728328-.7094237-2.2986922-1.5333219-3.5455512-2.07663-3.6895616-1.6076412-7.4224229-3.1169082-11.1502809-4.6353846-3.228131-1.3149073-6.4412181-2.6771177-9.7197084-3.8548153-2.6423567-.9491733-5.3851685-1.6146671-8.0608237-2.4760974-4.5814865-1.4749991-9.1593751-2.9638343-13.7120768-4.5247318-3.5289002-1.2098773-7.0984764-2.3541359-10.5042787-3.8576058-5.1416443-2.2697379-10.178529-4.7821921-15.2179482-7.2763294-3.9756279-1.9676307-7.9880703-3.6854325-12.507603-3.9856264-3.4744246-.2307418-6.9276935-.7720058-10.4012753-1.0261448-2.3050874-.1686589-4.6293943-.0805125-6.9451555-.0862228-.1933561-.000477-.4195548.1215435-.5750976.2524917-.7116779.5990474-1.4829694.7805837-2.2196824.2241169-.6196585-.4680725-1.190134-1.1126787-1.5354659-1.802716-.3834954-.7662854-.6239302-1.6624829-.6877171-2.519895-.2199686-2.9567388-.3463821-5.9207481-.4776348-8.8833571-.0162641-.3670885-.0944205-.519749-.4358256-.6974538-.5215634-.2715299-1.0704548-.6107099-1.4205958-1.065331-.6466368-.8395328-.2774584-1.7846507.6459212-2.3040011.7903335-.444521,1.6340282-.9166162,2.2173998-1.5835533,1.6999415-1.9434807,3.3504751-3.9394207,4.888098-6.0128698,1.329516-1.7928107,2.8594963-3.2610378,4.8901888-4.229985,1.6341052-.7797235,2.9612964-1.967403,3.9173469-3.5177369.9087152-1.4735784,1.8314788-2.9447766,2.6313344-4.4779108,1.5407948-2.9533149,3.6998048-5.3492749,6.3180805-7.3666743,1.2276995-.9459341,2.5977809-1.4942117,4.1503142-1.6126257,2.6008912-.1983579,5.2001057-.4191965,7.7989474-.6431512.2390347-.020593.4900429-.0946488.7017466-.2073053,1.0127224-.5388835,2.0189102-1.0905932,3.0180376-1.6543533,2.6623184-1.5022055,4.9617236-3.4928796,7.2926933-5.4402347,3.7063018-3.0963474,7.946003-4.6471029,12.7903324-4.2281016,2.1462279.185635,4.2839042.547685,6.40327.9473424,2.9095383.5486588,5.7327903.2215963,8.53525-.5847867.1698521-.0488673.3271834-.1412347.6715896-.2934828-.3932882-.071323-.5666437-.1189581-.7425832-.1322559-3.1399115-.2372775-6.276781-.5751466-9.4212091-.6758536-3.3477054-.1072042-6.703066.0538571-10.0542938.0198302-4.1835887-.0424777-8.3664586-.1611453-12.5494941-.2531772-5.0768514-.1117031-10.1039472.531273-15.1455941.9716771-11.8943178,1.0390329-23.5111822,3.2177173-34.6112034,7.8342889-7.1508928,2.9740937-13.6639403,6.8773449-19.167277,12.333718-4.3242204,4.2872988-7.7900353,9.1251448-9.0348599,15.2828661-.7130609,3.5272682-1.1223117,7.0404897-.1025925,10.5520792,1.4849635,5.1137549,3.9174822,9.7399462,7.6887941,13.5357064,4.1335036,4.1602758,8.5775149,8.0028912,13.7096024,10.879447,7.4358409,4.1678073,14.8851933,8.3353682,22.5178264,12.12198,8.869001,4.4000076,18.3100162,7.2788595,28.0487761,9.0551892,6.838019,1.2472304,13.7197007,2.2567444,20.5860945,3.3458946,3.132772.4969268,6.265637,1.0200334,9.4162932,1.3713319,5.0527311.5633987,10.1214577.9821164,15.1813606,1.4828318,11.6636291,1.1541897,23.3121142,2.4568161,35.0589235,2.5262199,5.7343563.033873,11.4630347.4100355,17.1949208-.1706179,9.1998575-.9319456,18.3050737-2.2284103,26.9885793-5.6625567,5.3364348-2.1104825,10.3046927-4.7982154,14.778021-8.4074786,4.219832-3.4047428,6.931154-7.884127,9.0590878-12.743234.6654639-1.5196016,1.0612835-3.2236086,1.2352497-4.8794773.4962671-4.7232864-.7056481-9.1021875-3.1116219-13.168144-.0672983-.1137079-.1730956-.2046501-.2609359-.3062214.0558636.4389741.1908454.8171236.3312539,1.1932422,1.6623752,4.452088,2.0714357,8.9354856.5929073,13.5489941-1.2951827,4.0414065-3.2306187,7.7151888-5.9182944,10.9806035-1.9432166,2.3609181-3.9012285,4.7190023-6.504106,6.4265941-3.8097987,2.4993274-7.848191,4.4919253-12.2955742,5.5669872-1.9645516.4748824-3.9494269.8675061-5.9303021,1.2718766-.5775745.1179107-1.0518995-.1106486-1.1881376-.7175759-.1346798-.5999113.2519201-.8988814.7739669-1.0787527.8928658-.3075899,1.7885881-.6095028,2.6690698-.9501245,2.0559302-.795332,4.1089366-1.5988322,6.153183-2.4236689,2.9227908-1.1793435,5.2550806-3.1952588,7.4365052-5.3905373,4.104316-4.1303694,7.4777792-8.74566,9.2448768-14.3816326,2.0213174-6.4467689.1536892-13.6494513-5.9374126-17.7614721-5.3227784-3.5933037-10.7825524-6.9465632-16.7303086-9.4240786-2.1581609-.8989924-4.3651539-1.6800953-6.5379842-2.54484-.7942967-.3161077-.8502064-.6615429-.2933724-1.3069034,1.1366563-1.3173632,2.6346766-1.7697954,4.3032158-1.6822295,3.9698983.2083898,7.7578953,1.2387897,11.2372528,3.1052914,6.0879519,3.2659067,11.6614428,7.2750054,16.6435506,12.2077182-.6778515-.9566379-1.3099507-1.872593-1.9662746-2.7708819-3.191601-4.3681725-6.5213939-8.5991516-10.8491314-11.9507839-3.7128676-2.8754419-7.6983952-5.322746-11.7395424-7.6797556-3.2429487-1.8914568-6.4955477-3.8010951-9.8914414-5.3865419-3.9684125-1.8527591-8.09691-3.3626304-12.1572979-5.0179994-.0539958-.0220111-.1254227-.0012891-.3140412.0010193.2507378.3705836.4442513.6895768.6700422.9838135.5477778.7137951,1.1222334,1.4072031,1.6648123,2.1248206,1.1031938,1.459083,1.7115771,3.0996936,1.7747587,4.9368381.0891985,2.593649.0109712,5.1725878-.5797302,7.7162418-.3379795,1.455353-.4923031,2.9230162-.2653842,4.4193004.0769358.5074076.0754345,1.0332777.0525729,1.5481806-.1483822,3.3449277-.3549198,6.6879182-.4504166,10.0341959-.0374638,1.3130675.0356011,2.657184.2824361,3.9441743.40642,2.1188291.3523423,4.1952506-.0460215,6.2965854-.6484869,3.420709-1.7449767,6.7246629-3.0450844,9.9193989-1.3764017,3.3821312-3.2141237,6.5751957-4.817427,9.866867-.8311622,1.7064108-2.0832451,3.0195491-3.5742915,4.1491394-.8594576.6511219-1.6637803,1.3756068-2.5298285,2.0172591-.5552977.4114361-1.1478029.8006478-1.7777103,1.0761631-.7729534.3380626-1.5740944.3279121-2.3096018-.2076335-.1420967-.103488-.3720452-.1579358-.5471892-.1333187-1.6444807.2310471-2.7609826-.3421527-3.5186824-1.8381657-.129366-.2554275-.2454946-.5175328-.3712909-.7840545ZM108.9443252,14.4421888c-.2495082-.0690163-.3684677-.1126407-.4913-.1342631-1.5067483-.2652516-3.0117188-.541646-4.5216718-.7873791-4.2227806-.687264-8.1485388-.0676159-11.8176884,2.3168053-1.9858302,1.2905122-4.218519,2.1990258-6.3225458,3.3125399-.2540624.1344458-.5046801.4457485-.5779443.7224668-.3467368,1.3095916-1.114148,2.2295397-2.3368308,2.7986857-2.3428202,1.0905681-4.7757967,1.5875824-7.3503331,1.1187291-1.6377589-.2982563-3.2702671-.6259276-4.9031027-.9505931-1.217203-.2420293-2.3051887-.0032821-3.310979.744396-1.916047,1.4243684-3.4011506,3.2083091-4.4671986,5.3293991-.7773938,1.546755-1.4959004,3.1243392-2.2009231,4.7058929-1.190256,2.6700403-2.821425,4.989395-5.0732106,6.8915399-.8119583.6858655-1.4742096,1.5749368-2.1065124,2.4428575-2.1987206,3.0180875-4.2549429,6.1532194-7.5946926,8.1153204-.2817282.1654991-.4001092.7704536-.4071814,1.1745312-.0035833.2047353.377977.5283598.642285.6069274,1.3977524.4155535,2.7943651.8844491,4.2266023,1.1255939,5.2280945.880231,10.5357631.7689881,15.8037471,1.1650162,3.4064478.2560843,6.8435332.3346837,10.2080855.8655203,5.3444519.8432109,10.3070313,2.9753876,15.2467679,5.113639,5.1774379,2.2411552,10.3261429,4.5575318,15.567706,6.6388157,3.9072536,1.5514621,7.8609891,2.9691319,11.6367595,4.842045,2.1731598,1.0779447,4.3712121,2.1514425,6.6541556,2.9533791,5.7279198,2.0120878,11.2161128,4.5185178,16.5190851,7.4603504,2.3756811,1.3178964,4.6625001,2.8135223,7.2701938,3.6855246,2.41578.8077861,4.971857,1.273275,7.1656215,2.9856337.2115189-2.6455164,1.7114494-4.5246536,3.0974037-6.4602547.222557-.3108139.4665928-.6061418.6959299-.9122255,1.9286179-2.5741264,3.8602366-5.1460503,5.7822483-7.7251267.9338157-1.2530722,1.6860532-2.5917013,2.0774001-4.1303789,1.0448656-4.1080403,1.3800746-8.2381316.581358-12.4332303-.0582829-.3061185.0993067-.827634.3281224-.966717.245181-.1490626.757161-.0686598,1.036811.1017651.3445989.2099913.6553215.5760266.829285.9458357.4383983.9318805.9364171,1.871843,1.1554708,2.8648121,1.2670234,5.7436173.7321655,11.3126505-2.2001166,16.4621016-1.5417618,2.7075634-3.499419,5.1751714-5.1802455,7.8079696-.8409053,1.3171725-1.5154834,2.7458117-2.1942789,4.1581758-.2164854.4504185-.2043815,1.0107144-.3283678,1.6943978.8116697-.3855785,1.4235054-.6593462,2.0202564-.9627999,1.9439235-.9884514,3.5117143-2.3362752,4.2682274-4.4676639.1571226-.4427425.3979742-.8553599.5934794-1.2849443,1.9992865-4.3932782,4.5002134-8.5605642,5.9458694-13.2032995.7105814-2.2820074,1.534902-4.6076567,1.2953334-6.990587-.3296301-3.2784727-.1493014-6.5584971-.3852325-9.8283859-.2230803-3.0916526-.4853674-6.1804661-.7131927-9.2718151-.0444872-.6033949-.0597169-1.2172956-.0033248-1.8183585.2623714-2.7973596.5481406-5.5925864.838527-8.3872272.1898634-1.827208-.2662284-3.4396645-1.3350603-4.9556875-.7177108-1.0179932-1.3230661-2.150136-1.7780877-3.3099213-.6222741-1.5860885-1.2213671-3.137631-2.6473732-4.205501-.4989211-.3736169-.6311532-.8190204-.1274187-1.170472-.2751901-1.1194596-.5115049-2.1696438-.7938073-3.2073062-.3762349-1.3829079-.7429616-2.7716959-1.2094051-4.1249852-.1638267-.475303-.6100714-.8532526-.9273704-1.2756625l-.219679.1232448c1.6631369,2.8003515,1.4403791,5.7380051.7296382,8.7193264-.2920713,1.2251121-.4947198,2.4724124-.8124319,3.6902113-.1876689.7192431-.0398935,1.1525497.6758427,1.410032,2.1520709.7741745,3.5016557,2.3961685,4.6615417,4.2879942,1.992617,3.2500783,2.4998618,6.7452263,1.6905015,10.3889446-.8940308,4.0249884-2.2960105,7.9031973-3.9851685,11.6662552-.3162537.704542-.824782,1.3325415-1.3067827,1.9470779-.1461431.1863021-.5237843.3175572-.7531959.2701244-.1690889-.0350025-.3778872-.3992031-.3823743-.6205102-.022265-1.0945454-.0622854-2.1986923.0510869-3.284083.2952174-2.8263596,1.2960927-5.4600102,2.3640532-8.0664284,1.358685-3.3159333,1.4873173-6.5630398-.2882111-9.8136468-.9923548-1.8167388-2.1858872-3.1945036-4.3163432-3.7337544-1.8624035-.4714023-2.8249172-1.9248464-2.9200425-3.8529563-.0253898-.514374-.0049033-1.0363153.0518078-1.5484379.1658446-1.4980349.3652621-2.9923179.5428057-4.4891022.2218144-1.869745-.0259112-3.6294232-1.1706915-5.2008342-.4494087-.6168971-.8248111-1.2876735-1.2347432-1.9333731-1.0938555-1.7230066-2.6084627-2.957985-4.4442196-3.8149826-3.0752569-1.4356195-6.3088013-2.3806947-9.6219267-3.0691747-.2699812-.056105-.5714455-.0031671-.8515746.0412954-.4850654.0769928-.962442.254932-1.4472853.2723276-3.3643657.1207113-6.6111129.8214398-9.7251409,2.0635272-4.7699375,1.9025515-9.6060866,3.6107748-14.5601907,4.9528054-2.2925148.6210174-4.6539275.9877075-6.9841641,1.4694523-.1621724.0335354-.3247806.0648562-.6201711.1236944.3331686.1608014.5315412.2610283.7335152.3533576,2.9072146,1.3289923,4.4329525,3.595687,4.4819535,6.7860245.0343568,2.2368752-.6321286,4.324727-1.8093421,6.2044183-1.1741496,1.8748033-2.989239,2.7252018-5.1715223,2.5761503-4.556755-.311207-8.9377223-3.7415349-10.5888111-8.2799644-.1106596-.304177-.2039136-.707195-.092711-.9764803.1438196-.348283.4478566-.7259251.7802536-.8775287.4504124-.2054329.7594749.1696645,1.0247082.5468131.6961704.9899169,1.3272493,2.051887,2.1625121,2.9120683,1.5768973,1.6239224,3.459618,2.7979166,5.7568115,3.1504462,1.5743338.2416052,2.5257513-.3920357,2.8675394-1.9300865.1409542-.6343184.232042-1.2845559.2857441-1.9325284.1781488-2.1494197-.910693-3.6568861-2.588138-4.7865432-.4359232-.2935519-1.0508574-.395833-1.5919175-.4237146-.2313554-.0119158-.4902976.3850512-.7256882.6078629-.3518909.3330775-.5841134.2145097-.7795385-.1721725-.6364322-1.2592895-.2501152-2.6046746.9928185-3.4008002.2732169-.1749988.564907-.3211711.9575366-.5422335Z" stroke-width="0"/>
      <path d="m95.0716562,100.267094c-3.6656853-.5846935-7.3761648-.9739678-10.9861471-1.8015809-4.9495745-1.134717-9.8333007-2.5650174-14.725359-3.9394442-3.3776503-.9489569-6.7259954-2.0035829-10.0795734-3.0365123-4.238136-1.3053666-8.1805663-3.2808457-11.9948603-5.4994246-2.0933999-1.2176279-4.1371284-2.5478676-6.0767833-3.9966483-3.4584119-2.5832009-6.8258771-5.2884791-10.2174987-7.9603507-.4372862-.3445005-.8439852-.757337-1.1623345-1.2105308-.1530532-.2178656-.1794161-.6691942-.0502395-.8905987.0876938-.150321.5649051-.1624846.8326543-.0955034.3150993.0788343.589586.3146518.8859681.4744601,5.0325572,2.713604,9.7744987,5.9084525,14.6727813,8.8423858,6.4535857,3.8654924,13.3438913,6.7463923,20.6570703,8.614545,5.09863,1.302446,10.1185016,2.9281161,15.2419807,4.113767,4.3532748,1.0074496,8.8019892,1.6062952,13.2135716,2.3559548,1.5739976.2674728,3.1787225.3680964,4.7421935.6809615,5.2870947,1.0580762,10.6267204,1.6033891,16.006732,1.8606613,2.2448111.1073446,4.4956989.2744655,6.7185054.591814,1.5694871.2240436,3.1218202.6694895,4.6315583,1.1682301.7618138.2516682,1.4338543.8107779,2.1037302,1.2905704.356775.2555309.2353223,1.1078411-.2254181,1.4343691-.3334031.2362586-.7686377.4510517-1.162519.4584118-1.6142627.0301538-3.235545.054127-4.8443009-.0598737-4.7790421-.3386299-9.5608037-.6704837-14.3265032-1.1530195-2.4561272-.2486944-4.8816748-.8046443-7.3187202-1.2348957-2.1705162-.3831892-4.3378506-.7844772-6.5065832-1.177778-.0099695.0566821-.019936.1133479-.0299054.17003Z" stroke-width="0"/>
      <path d="m9.0623802,45.2186566c2.0339404-8.8709119,6.923966-16.3132724,15.1707062-21.4084538,1.8564399-1.1469908,3.7334796-2.2615033,5.6172665-3.3631846,3.2567475-1.9046355,6.7084582-3.3751537,10.2873028-4.5563708,4.1195917-1.3596987,8.1289223-3.1077197,12.4389295-3.8060699,2.257664-.3658074,4.5601261-.4542136,6.8419697-.6719736,3.8271266-.3652347,7.6527377-.7471422,11.4817793-1.0909334.8928406-.0801499,1.7982096-.070477,2.6953119-.0364165.6396424.0242696,1.2508589.2159985,1.6305273.8051566.4444171.689632.1173122,1.3754564-.6646815,1.4927513-1.4418241.2162601-2.8796387.4600553-4.3172117.7036263-4.8102541.8150001-9.6229822,1.6161182-14.4276369,2.4629784-1.7469089.3079117-3.5186275.5892647-5.2008683,1.1271696-4.0487616,1.2946324-8.061807,2.7041295-12.0695586,4.1229279-3.9237751,1.3890713-7.4494046,3.5859527-11.094019,5.5469851-3.2627615,1.7555695-6.0055967,4.0771838-8.4014048,6.8835903-2.5463538,2.9827649-4.2690832,6.3739122-5.3668866,10.1096703-.2028409.69027-.3734456,1.390138-.553119,2.0870549-.6351433,2.4636041-.500808,4.8914509.2408939,7.320956,1.0531312,3.4495779,2.2375846,6.8451352,3.9411876,10.0334794.3215268.6017371.8061007,1.1272014,1.2697965,1.6385784.3445985.3799842.7917605.6651559,1.1623011,1.0244688.1247962.121003.2486513.3748616.2008235.5045073-.0469061.1271496-.3211613.258461-.4811203.2425004-1.9796969-.197602-3.8663343-.5896588-5.2231902-2.2696693-2.4707798-3.0592253-4.2500491-6.4471299-5.1066327-10.305233-.5983106-2.6947955-.6833842-5.3923403-.072466-8.598096Z" stroke-width="0"/>
      <path d="m108.2812392,56.5904968c-3.2728658-.6255446-5.9154573-1.8230752-8.267304-3.639811-2.7529613-2.126604-3.3821165-4.7365781-1.7029344-7.7929736,1.6302212-2.9673055,3.8812632-5.3997977,6.9693394-6.9307086.6373339-.3159591,1.3472466-.4949587,2.0359523-.6949141.567542-.1647868,1.0965764-.0864334,1.5712007.3377583.1300599.1162459.4351527.1122471.6347354.0624568,1.0662231-.2658755,2.1082768-.6912616,3.1882776-.8283456,4.4991215-.5710848,8.1497432,1.0070752,10.794166,4.6752794,2.0119718,2.7909023,1.8847549,5.6900387-.1860644,8.4309484-3.3010034,4.3691455-7.6899701,6.5825937-13.1749613,6.5638941-.7377042-.0025154-1.4749285-.1432631-1.8624073-.1835841Zm-1.3094917-16.0055341c-1.954453,1.5207409-3.3884116,3.2030401-4.5294215,5.1312718-.3160353.5340861-.5294315,1.1365828-.7337636,1.7271058-.2414051.6976476-.0392671,1.3053706.5819058,1.7078746.9787544.6341454,1.9415517,1.3119946,2.9819432,1.8287135,5.056904,2.511512,10.7417847,1.0726709,13.7180846-3.4243854.817958-1.2358937.7660613-2.1564232-.1631408-3.3167862-1.0207761-1.2746879-2.3241877-2.0645234-3.9576639-2.1777979-1.3644937-.0946104-2.7377526-.0546686-4.1057116-.1097584-1.0286231-.0414385-2.05658-.1222017-3.0817424-.2184207-.55288-.0519254-.9508454-.295664-.7104898-1.1478172Z" stroke-width="0"/>
      <path d="m144.2934396,59.1729657c.0359985-.3134919-.0133848-.6708084.1215206-.9335005,1.0332936-2.0119176,2.6627673-3.3123254,4.8527771-3.876282,10.4346172-2.6871018,16.0527055,7.5572387,14.1560371,13.8430358-.9473591,3.1395998-2.8737222,5.6017277-5.5870654,7.3782275-2.0921776,1.3698233-4.4627987,1.1545241-6.7362415.5483728-3.3868625-.903008-5.9632765-3.0397541-7.8572368-5.915867-2.0812714-3.1605907-1.7783254-7.0940288.5794074-10.1581506.2052033-.2666598.422382-.5240794.6340043-.785773-.054399-.0333651-.1088009-.0667141-.1632028-.100063Zm3.0160902.6164139c-.0012209-.0886767-.0024447-.1773372-.0036686-.2659977-.0731113.0867203-.1372778.1833204-.2206333.2587361-2.5129532,2.2739773-2.8560229,6.3078564-.7459504,8.9479466,1.1917426,1.4910787,2.7260745,2.5595659,4.4555888,3.3026771,2.258305.9703088,4.0708207.6246321,5.4111185-.9348929.9443752-1.0988687,1.5343062-2.3713583,1.6997753-3.8261297.5342739-4.6968804-3.5392064-8.2265646-7.2063068-8.5994297-.517995-.0526841-1.0451257-.0155547-1.5772311-.0200795.0552162.6826824.4411379,1.4480344-.2500345,1.6776166-.4152305.1379217-1.034877-.3395452-1.5626579-.5404469Z" stroke-width="0"/>
      <path d="m141.864557,51.3857557c-1.0340038-.1462458-2.2108722-.6755713-3.2977042-1.4359286-2.8794714-2.0145271-5.1077592-4.5309696-6.1375539-7.9645571-.2992202-.9976669-.5087142-2.029311-.1657702-3.0489408.104027-.3092869.4462485-.6751719.741409-.7423011.2588631-.0589049.6478783.2167771.8930921.4396564.1155799.1050692.0285664.4327591.0338166.6595562.0051963.2249699-.0376048.4642161.0237707.6727421.910392,3.093019,2.9309475,5.2978473,5.5774697,7.0277772,1.3121343.8576961,2.6783939,1.4405797,4.2732871,1.453042,1.3258754.0103405,2.4694586-.4016582,3.2477943-1.4715285.7372723-1.0133835,1.4012459-2.0933489,1.9733441-3.2077475.2614188-.5092184.3800476-1.1943006.2969779-1.7605234-.4123303-2.8106261-1.9016601-4.9027268-4.5550709-5.9752063-1.6691367-.6746432-3.3748018-.4122062-4.9370161.4927528-.6195877.3589077-1.179335.8208329-1.7682345,1.2331096-.8799414.6160182-1.3592648,1.4623036-1.5291829,2.5195175-.0428977.2669327-.2630361.5053909-.4017158.7569384-.1921056-.2274687-.4376144-.4280323-.5679636-.6866279-1.141754-2.2650126-.5535148-4.3341161.9425758-6.1445137,3.3942244-4.1073505,8.0040394-4.5516401,11.8861524-1.8392495,3.7237036,2.6016898,5.4097255,6.257647,4.6109236,10.7597354-.5036359,2.8384686-2.1284267,5.2063315-4.3804186,7.0124965-1.8876153,1.513918-4.1423614,1.7330831-6.7599826,1.2498002Z" stroke-width="0"/>
      <path d="m132.5456119,21.5199842c.5928558.5644221,1.1315738,1.2033025,1.7878486,1.6805111,3.0114073,2.1897457,6.4049337,3.2253052,10.1229735,3.114179,1.4239748-.0425614,2.7486171-.4377209,3.7566465-1.5630342.4309335-.4810898.6385719-1.0183102.3820223-1.6059438-.256073-.5865674-.5399615-1.2073403-.9703728-1.6632694-1.7186176-1.8205544-3.8546125-3.0288976-6.2107556-3.7958112-.8055801-.2622015-1.7280832-.2324876-2.5954391-.2197147-.9799998.0144461-1.8439552.3555608-2.3907327,1.2681779-.0998948.1667089-.3393877.2497706-.514445.371443-.0862101-.2093867-.2361039-.4149797-.248841-.6287549-.1357502-2.2806137,1.2169276-4.2034981,3.5375144-5.0018459,1.8522536-.63721,3.7425097-.7527505,5.647155-.248739,2.9438578.7790107,5.2965733,2.4144543,7.0219795,4.9293519,1.2337342,1.7982711,1.739711,3.8143224,1.5047503,5.9603066-.2778887,2.5379565-2.0105267,3.9338802-4.2028568,4.8264141-2.2403238.9120535-4.5996031,1.0387552-6.9713379.7337268-3.4669304-.4458896-6.6211526-1.6879738-9.2788562-4.0015741-.7193658-.6262157-1.3317068-1.4002684-1.888756-2.1809767-.5529029-.7749398-.7282602-1.6837481-.4610242-2.6380824.1992971-.7116907.7082443-1.1860026,1.3458561-1.2415116.5085435-.0442689,1.3742041.5387065,1.5966426,1.0762363.1317412.3183431.0591076.5257314-.3119851.5701709-.1767966.0211685-.3533297.0446711-.5299724.0671153l-.1280138.191625Z" stroke-width="0"/>
      <path d="m77.9163025,30.4161885c.679805-2.0610403,2.1964887-3.1421052,4.1868534-3.5172936,3.8062259-.7174696,7.1950056.0981678,9.8906136,3.0453665,2.0993759,2.295317,2.2053199,5.14252.3131229,7.6165807-2.500966,3.2700296-6.0098504,4.148252-10.1292518,2.5118865-2.733245-1.0857515-4.6622106-3.0271795-5.7497972-5.7361189-.3122881-.7778768-.4069106-1.7047477-.3600418-2.5499145.061062-1.1011332.703913-1.5011301,1.848501-1.3705068Zm.3624431,1.5731626c-.0313205.0172169-.0626409.0344338-.0939547.0516603.0422264.1337832.0511123.2935205.1318757.397309.7407934.9521318,1.3946609,2.000706,2.2656504,2.8163719,1.5255966,1.4286971,3.4247717,1.9168763,5.4916441,1.588635,1.0227111-.1624059,2.4280513-1.5653507,2.4011594-2.4753827-.0307107-1.0389688-1.0244011-1.3075299-1.7362192-1.7751723-.0184981-.0121566-.041212-.0176911-.0613092-.0276337-1.9198138-.9502448-3.9641241-1.2400385-6.0830606-1.1797962-.6104504.0173545-1.0683446.1236541-1.2812375.8038687-.1523693.4868188-.4904035.4555986-.7914756.0624871-.0721717-.094224-.1615851-.1752523-.2430728-.262347Z" stroke-width="0"/>
      <path d="m89.3501561,49.9393444c-.6922968,2.4330056-2.5074189,4.5967273-5.3896586,5.8009618-1.555224.64978-3.1333537.4258274-4.6784846-.1389943-2.4100192-.8809762-4.5793463-2.1867591-6.6031189-3.7466699-1.0194234-.7857526-1.7464192-1.8061163-2.2961221-2.957755-.3068214-.6427871-.2348759-1.2534157.1982398-1.5298134.5890286-.3759064,1.0940097-.1196613,1.502657.3189379,2.1016952,2.2557895,4.8803969,3.323588,7.6788556,4.3090433,1.8569958.65394,3.2296373.1227173,4.1779806-1.3427701.6091653-.94136.6631129-1.9360241.1216965-2.8777934-.831394-1.446164-1.7271106-2.8689859-3.4612115-3.4214796-.084377-.0268759-.1606282-.0803172-.2392939-.1238618-1.3759067-.7617447-1.457033-1.3609889-.2899123-2.4536656.9502867-.8896646,2.1355934-1.1550404,3.3311449-.7973614,2.647557.7921162,4.6321664,2.4430615,5.7725606,4.9962578.4680366,1.0478874.5054041,2.1855049.1746669,3.9649636Z" stroke-width="0"/>
      <path d="m166.6605981,42.7341138c-.4406462.712627-.8174832,1.4770167-1.3410778,2.1223334-.4612515.5684688-1.1632082.7659877-1.9031314.5540416-.5711614-.1635947-.8539055-.4771125-.831189-1.17252.0979277-2.997811-1.1693684-5.3422383-3.6237759-7.0329816-.5583764-.3846421-1.016328-.7520687-.8776458-1.5028412.1136941-.6154774.6259444-1.0581279,1.3985752-1.17764,1.0523756-.1627797,2.0637677.0180071,3.0245417.4579616,2.7987055,1.2815431,4.5398028,4.62854,3.9918594,7.6515702l.1618437.1000761Z" stroke-width="0"/>
      <path d="m124.7493182,33.4294816c-.9361844-.7881606-1.1650543-1.8724707-.6945374-2.9342555.9954137-2.2462819,4.0170353-3.6211944,6.3519941-2.8903239,1.3423203.4201652,2.1672871,1.5535685,1.878553,2.7101262-.1326816.5315767-.4177792,1.0398426-.7087363,1.512533-.2317551.3764965-.5222576.1601605-.6835238-.1099965-.2248731-.3766966-.5355037-.4224689-.9203165-.3663807-1.1330637.1651143-2.2665956.3281924-3.4022566.473917-.6761586.0867582-1.1839807.3600764-1.4255571,1.0440755-.068446.1937178-.2429732.3499656-.3956195.5603051Z" stroke-width="0"/>
      <path d="m124.2412091,60.8424611c2.8240014.4196086,3.942154,3.3560921,3.1021051,5.2137493-.0907592.2007512-.1889506.4442399-.3577138.5523558-.2275317.1457644-.526882.1793797-.7954151.2611279-.0246932-.1998469-.0685067-.3994596-.0709736-.5995805-.0175479-1.4298736-1.5032385-3.4479254-2.8804909-3.8528938-.291229-.0856105-.6794782.0574053-.9162041-.0838962-.2373171-.1416432-.4972487-.5314478-.460344-.7676429.0385024-.2463907.3919961-.5735747.6564423-.6277068.5573546-.1141072,1.1464976-.0729414,1.722594-.0955127Z" stroke-width="0"/>
    </g>
  </g>
</svg>