<?xml version="1.0" encoding="UTF-8"?>
<svg id="Layer_2" data-name="Layer 2" xmlns="http://www.w3.org/2000/svg" viewBox="0 0 194.4163326 232.4593789">
  <g id="Layer_1-2" data-name="Layer 1">
    <g>
      <g>
        <path d="m36.5055049,193.1814453c.0078125.0466919.0146484.0933228.0224609.1400146,2.6386719-.2736206,5.2978516-.4230957,7.9121094-.8482666,4.6220703-.7515869,9.0068359-2.3452759,13.3300781-4.1072388,1.9609375-.7993774,3.9521484-1.5490112,5.6679688-2.8278198.5800781-.4324341,1.1103516-.9559326,1.5742188-1.512207.3095703-.37146.5332031-.8536987.6689453-1.322937.2167969-.7545166.0576172-1.4674072-.6015625-1.9705811-.6455078-.4929199-1.3359375-.4210205-2.0048828-.0363159-.6669922.3840332-1.3330078.7730103-1.9765625,1.1949463-4.4287109,2.9036255-9.3408203,4.4165039-14.5546875,5.0158691-3.4736328.399231-6.8769531,1.1088867-10.2421875,2.0319214-.2783203.0762939-.5556641.1608276-.8232422.2672729-.9101562.3621216-1.3984375,1.0578613-1.3740234,1.9350586.0224609.8148804.5722656,1.5281372,1.4472656,1.8283081.3056641.1051636.6357422.1432495.9541016.2119751Z" stroke-width="0"/>
        <path d="m90.0631221,182.4635498c-.3095703.4915771-.4755859,1.0731812-.7636719,1.7537842.1660156.3391113.2695312.7893066.5478516,1.062561.3652344.3587036.9169922.2816162,1.2724609-.0321655.4765625-.4211426.9335938-.9120483,1.2470703-1.4597168.3642578-.6347046.0664062-1.3963623-.5292969-1.7435913-.59375-.3460693-1.3798828-.2093506-1.7744141.4191284Z" stroke-width="0"/>
        <path d="m96.5348018,152.7950928c-.5898438-.1531372-1.0888672.104126-1.3291016.5748291-.4414062.8632812-.7578125,1.7901611-1.1738281,2.8060303.2128906.4078369.3310547.9221191.6542969,1.1859131.4335938.354126.9619141.1064453,1.3671875-.2301636.8320312-.6923218,1.3066406-1.5958862,1.4794922-2.6583862.0244141-.1490479.0126953-.3079224-.0058594-.4594116-.0751953-.6124878-.4560547-1.0795288-.9921875-1.218811Z" stroke-width="0"/>
        <path d="m93.4459346,167.3372681c-.6484375-.1461182-1.375.137207-1.7089844.7887573-.2675781.5203247-.4003906,1.1091309-.5302734,1.4856567-.0097656.668335-.1162109,1.1590576.0097656,1.5795288.0976562.3257446.4384766.6665039.7578125.8188477.6337891.3016968,1.4013672.0166626,1.9365234-.640686.625-.7670288.8691406-1.663147.7431641-2.6430054-.0908203-.7124634-.5791016-1.2473755-1.2080078-1.3890991Z" stroke-width="0"/>
        <path d="m162.6685908,54.6997559c-.5097656-.5698853-1.15625-.6690063-1.8681641-.4407959-.1513672.0483398-.3037109.0934448-.5136719.1576538-.2246094-.6017456-.421875-1.1721802-.6494141-1.7304688-1.2509766-3.0731812-3.5996094-4.6878662-6.8505859-4.9176636-1.2929688-.0913086-2.6191406.0744019-3.9140625.2474976-.9609375.12854-1.8046875.0518799-2.5947266-.5413208-.7695312-.5772095-1.5917969-1.0846558-2.3535156-1.6706543-1.4677734-1.1280518-3.1357422-1.6054688-4.9482422-1.4741821-1.6542969.1196899-3.3017578.3575439-4.9482422.5750732-.4873047.0643921-.8525391-.0350952-1.1923828-.4000244-1.7197266-1.8451538-3.8642578-2.5168457-6.3564453-2.3950195-2.0751953.1016235-3.9228516.8783569-5.765625,1.697998-.5751953.2555542-1.0068359.2739258-1.5332031-.1328125-3.0175781-2.3327637-6.3925781-2.7686157-9.9941406-1.7443237-1.7802734.5060425-3.5400391,1.0822144-5.3007812,1.652771-.4433594.1437988-.7128906.0918579-1.1054688-.2351685-2.1328125-1.7739868-4.5029297-3.0152588-7.3662109-3.1265869-2.4511719-.095459-4.7910156.5220947-7.1650391.9440308-.3222656.057251-.7900391.0067749-1.0117188-.1923828-2.1914062-1.9630737-4.8642578-2.9348755-7.6455078-3.5165405-2.9599609-.6189575-5.9287109-.2697144-8.8320312.5930176-.2861328.0852051-.7177734.0617676-.9492188-.100647-3.5429688-2.4860229-7.3212891-3.3790283-11.4980469-1.8141479-.2626953.0983276-.5410156.2111816-.8125.2145386-.3339844.0039062-.6884766-.0473633-.9990234-.1671143-1.1123047-.4293213-2.1826172-.9785156-3.3154297-1.3346558-2.5546875-.8034668-4.9111328-.2640991-7.0703125,1.2609253-.7441406.5259399-1.3251953,1.178833-1.6425781,2.0567627-.0644531.1776733-.2802734.3793945-.4619141.4234619-1.8037109.4376831-2.5117188,1.7095947-1.8183594,3.4259033.3242188.802124.7236328,1.5809937,1.1601562,2.3289185,2.7451172,4.7020874,5.5537109,9.3681641,8.2607422,14.0922241,5.2871094,9.2272339,11.1601562,18.093689,16.6767578,27.1796875,3.2509766,5.3547363,6.6425781,10.6253662,9.8486328,16.0063477,1.7509766,2.9381104,3.2382812,6.03302,4.8632812,9.0465698,1.3515625,2.5048218,2.7841797,4.9506226,5.0712891,6.7584839.2011719.0861816.4023438.1734619.5908203.2752075-.1503906.3245239-.2568359.7171631-.3183594,1.19104-.0341797.2559814-.0693359.5124512-.0859375.7697754-.2539062,3.9576416-.4677734,7.9182739-.765625,11.8726196-.1494141,1.9803467-.2910156,3.9619751-.4404297,5.9429932-.3759766-.4042358-.7646484-.7963867-1.1855469-1.1505737-1.109375-.9347534-2.4052734-1.4422607-3.8535156-1.5255127-.0507812-.0029907-.09375-.0181885-.1347656-.0350342-1.5791016.6276855-2.7177734,1.7880859-3.3330078,3.3624878-.6748047,1.729248-1.1015625,3.5554199-1.6455078,5.3365479-.0527344.171875-.125.3850708-.2587891.4778442-2.4326172,1.6912231-4.8583984,3.3939209-7.3261719,5.0321655-.9423828.6254272-1.9707031,1.1309814-2.9892578,1.6304932-6.1328125,3.007019-12.2460938,6.0548096-18.6210938,8.5408936-3.0507812,1.1896973-5.75,3.0344849-8.4404297,4.8655396-5.9296875,4.0345459-11.2197266,8.8190918-16.2949219,13.864502-3.3994141,3.3787231-6.8388672,6.7210693-10.3710938,9.9586792-1.7392578,1.5934448-3.7685547,2.8643188-5.5947266,4.3689575-1.9003906,1.5663452-3.7226562,3.2288208-5.5576172,4.8721313-.3974609.3554077-.7578125.7755737-1.0458984,1.2233276-.4941406.7700195-.5634766,1.6010132-.0283203,2.3904419.5361328.7920532,1.3466797,1.0421143,2.2333984.8468628.6289062-.1383667,1.2548828-.3909912,1.8173828-.7075195,3.3867188-1.9054565,6.5166016-4.1449585,9.2646484-6.9247437,4.2236328-4.2728882,8.2871094-8.6947021,12.4257812-13.0460815,5.1699219-5.4364624,10.5869141-10.6313477,16.7851562-14.9598389,4.484375-3.1321411,9.0888672-6.0067139,14.1572266-8.085022,1.2060547-.494873,2.4902344-.7980347,3.734375-1.2028809,4.4257812-1.4402466,8.7128906-3.1951294,12.5556641-5.8699341,1.6025391-1.1154785,3.0107422-2.4666748,4.0888672-4.1181641,1.1640625-1.7842407,2.2636719-3.611145,3.4638672-5.3700562.5917969-.8668823,1.3134766-1.6539917,2.0400391-2.4161987.4238281-.4439087.8984375-.2675171.9951172.3421631.4140625,2.6039429.9384766,5.2008057,1.1552734,7.8224487.2382812,2.8912964-.6464844,5.6343994-1.6972656,8.303772-.0566406.1428833-.2041016.2706909-.3398438.357605-.5585938.3583374-1.1757812.6411133-1.6884766,1.0541992-2.4736328,1.9918823-4.8662109,4.0883789-7.3916016,6.0100708-2.4492188,1.8635254-5.0292969,3.5552979-7.5439453,5.333374-.4228516.298584-.8291016.6281128-1.1992188.9887695-.3417969.3338013-.6279297.8187256-.3496094,1.239502.2236328.338623.7158203.7019043,1.0869141.6994629.765625-.005188,1.5859375-.1168213,2.2851562-.4154053,2.1494141-.9172363,4.1777344-2.0785522,5.9736328-3.5837402,2.7724609-2.3231812,5.5019531-4.6972656,8.2529297-7.0476074.0957031-.0825806.2128906-.1416016.421875-.2783203-.0097656.319519-.0136719.5389404-.0244141.7578735-.2324219,4.5522461-1.0537109,9.0220337-1.9326172,13.4799194-1.0957031,5.5523071-2.2441406,11.0942993-3.3730469,16.6401367-.3320312,1.6370239-.5664062,3.3048096-1.0449219,4.8986816-.5410156,1.8012695-1.3144531,3.5317993-1.9638672,5.3016968-.1162109.3153076-.1171875.6722412-.1748047,1.0093384-.0292969.1693726-.0273438.3582764-.1054688.5028076-.7490234,1.3829956-1.4638672,2.7866821-2.2832031,4.1268921-.6894531,1.12677-1.8232422,1.640686-3.1074219,1.6986694-1.3828125.062561-2.7705078-.0152588-4.1552734.0097656-1.9033203.0345459-3.8173828-.0019531-5.7070312.1897583-3.1376953.3184204-5.9794922,1.6001587-8.6533203,3.1886597-2.4472656,1.4529419-4.734375,3.1773071-7.1953125,4.604187-3.6748047,2.1314087-7.1035156,4.5979614-10.4882812,7.1500854-2.9658203,2.2365112-6.0175781,4.359436-9.0253906,6.5401611-.3095703.2246704-.6074219.4782104-.8652344.7595215-.5703125.6204224-.4335938,1.3093262.3212891,1.7027588.671875.3497925,1.3701172.2817383,2.0078125-.0332031,1.0341797-.5103149,2.0869141-1.0133667,3.0341797-1.6629639,2.4111328-1.6547852,4.7705078-3.3859863,7.1464844-5.0925903,1.25-.8985596,2.4873047-1.8156128,3.7412109-2.7102051.2470703-.1760254.5253906-.3583374.8134766-.4172974,2.6337891-.539917,4.9326172-1.833374,7.203125-3.184082.4511719-.2683105.6748047-.2610474,1.0087891.2049561.9404297,1.3081665,2.2216797,2.3007812,3.7958984,2.5526123,4.6181641.7384033,8.9140625,2.5321045,13.3564453,3.84729,6.2421875,1.8484497,12.5068359,3.6225586,19.0449219,4.116272,5.1318359.3875732,10.2675781.4622192,15.4052734.1407471,1.2724609-.0795288,2.5166016-.3477783,3.6738281-.9274902,2.4189453-1.2119141,3.5205078-3.4228516,2.9980469-6.0772095-.3955078-2.00354-1.4462891-3.6464233-2.9511719-4.9822998-3.1826172-2.8265991-6.9082031-4.6065674-11.0615234-5.4486084-1.5068359-.3053589-2.8105469-.9035645-3.9462891-1.9041748-.1757812-.1553955-.3154297-.3775635-.4111328-.5955811-.4462891-1.0162964-.8789062-2.0384521-1.2988281-3.065918-.1572266-.385437-.3466797-.7846069-.3798828-1.1889038-.0722656-.8987427-.1289062-1.8103027-.0605469-2.7067261.3046875-3.9951172,1.2119141-7.8689575,2.4511719-11.6709595.1748047-.5388794.3320312-1.0838013.4658203-1.5210571,2.5693359,1.3816528,5.0791016,2.7316284,7.6259766,4.1014404-.0810547.1068726-.1220703.1976929-.1923828.2487183-2.5146484,1.822876-3.7607422,4.4154663-4.453125,7.3400269-.1240234.5230713-.2255859,1.0570679-.2705078,1.5915527-.0820312.9777832.3183594,1.7097778,1.0361328,2.0106812.7158203.2996826,1.6445312.1408691,2.1630859-.6408081.8359375-1.258728,1.6152344-2.5792847,2.2207031-3.960022.7099609-1.6156616,1.2324219-3.3163452,1.7861328-4.9963989.1601562-.4873657.3505859-.5166626.7890625-.37677.5615234.1790771,1.1513672.3045654,1.7382812.3591919.5058594.0472412.9482422-.1957397,1.1933594-.6658325.2587891-.4949951.1757812-1.0049438-.1748047-1.4048462-.3242188-.3699341-.6962891-.7494507-1.1269531-.965332-1.8222656-.9129639-3.6523438-1.8149414-5.5195312-2.6283569-1.9599609-.8535767-3.7119141-2.026123-5.4326172-3.2623291-.3291016-.2357788-.6171875-.552124-.9765625-.7133789-.6367188-.2858276-.8730469-.7731934-.8828125-1.4109497-.0107422-.7474365-.0185547-1.4968262.0205078-2.2427368.03125-.5826416.4394531-.9869995.9335938-1.1465454.375-.1212158.8730469-.0866089,1.25.0556641,4.2617188,1.6116333,8.6933594,2.8132324,12.6513672,5.163269.9755859.5790405,1.9130859,1.2198486,2.8691406,1.8318481.3720703.2380981.3808594.4279785.1494141.866333-.3759766.7130127-.6503906,1.5214844-.7695312,2.3192139-.203125,1.3486328-.2070312,2.7258911-.3779297,4.0807495-.1386719,1.1036377-.3554688,2.2028809-.6269531,3.2816772-.1044922.4147949-.3974609.8241577-.7041016,1.1394653-2.3535156,2.4214478-5.3154297,3.9801636-8.1552734,5.7164917-1.5917969.9729004-3.1386719,2.0201416-4.6806641,3.0714111-.3535156.2410278-.6503906.6047974-.8847656.9694214-.2861328.444519-.3076172.9517212.0078125,1.4172363.3037109.4473877.7607422.5825806,1.2666016.5200195.3017578-.0371704.6162109-.1075439.8867188-.2405396,3.4365234-1.689209,6.890625-3.3481445,10.2900391-5.1104126,1.7158203-.8897705,3.1757812-2.1860352,4.0371094-3.9369507.7333984-1.4885864,1.4726562-2.9817505,2.1386719-4.5016479.6386719-1.4561157.7167969-3.0046997.4511719-4.5908203-.2197266-1.319458-.3007812-2.6622925-.4306641-3.8795166,1.125-.2234497,2.1542969-.3473511,3.1347656-.6381226,2.6738281-.7930298,4.5595703-2.5870972,5.8955078-4.9671631.2724609-.4848633.2871094-1.1328125.3466797-1.7132568.0537109-.5328979-.0078125-1.0765991.0107422-1.6144409.0830078-2.4313965-.921875-4.4436035-2.3964844-6.2789917-.140625-.175354-.2695312-.3601074-.4462891-.5974121.21875-.1222534.3837891-.2067261.5410156-.3030396.8359375-.5120239,1.6904297-.9961548,2.5-1.5470581,1.7695312-1.204895,2.6181641-2.9755249,2.9648438-5.0271606.1386719-.8178101.0419922-1.6109009-.3417969-2.3597412-.078125-.1525269-.1572266-.3164062-.1826172-.4830933-.2871094-1.8953857-1.2861328-3.4130859-2.59375-4.7320557-1.7128906-1.7269287-3.5878906-3.2636108-5.6943359-4.5005493-1.0458984-.6142578-2.0957031-1.222229-3.1328125-1.8500366-1.7910156-1.0831909-3.7255859-1.8369751-5.6855469-2.5391235-.2314453-.0830688-.4560547-.1867065-.796875-.3275757.2070312-.1762085.3330078-.3005981.4755859-.4024658,1.9111328-1.3688354,3.1494141-3.2529297,4.0234375-5.3843994.2099609-.5096436.1513672-1.1272583.2285156-1.6933594.0380859-.2796631.0693359-.569458.1689453-.8297729.4785156-1.2542725.5664062-2.5127563.0664062-3.7758179-.4589844-1.1580811-1.2392578-1.9014893-2.3701172-2.1757812-.6630859-.0285645-1.3261719-.0476685-1.9902344-.0482178-1.5830078-.0014648-3.4072266-.1430664-4.6953125.9458618-.5996094.506958-1.1425781,1.1108398-1.6220703,1.7608643.3007812-2.0769653.6523438-4.1497803.9716797-6.2244873.515625-3.3562012,1.8398438-9.1807861,2.6503906-13.3994141.5302734-.5493774,1.0507812-1.109436,1.5595703-1.6785278.9365234-1.0480957,1.7431641-2.2144775,2.6904297-3.2518311,2.1210938-2.3213501,4.3632812-4.5350952,6.4355469-6.8983765,9.2636719-10.5631714,19.3994141-20.2206421,30.328125-29.0287476,7.2558594-5.8478394,13.4902344-12.6959839,19.765625-19.517395.4228516-.4605713.7851562-1.0010376,1.0732422-1.557312.3466797-.670166.3115234-1.3768921-.21875-1.9703369Zm-116.015625-15.4324951c.3525391-.28479.6503906-.6506348,1.0361328-.8146973,1.7939453-.7655029,3.6455078-1.045105,5.5585938-.4362183.4238281.1351318.8544922.2546997,1.2841797.3707275,1.0117188.2727661,1.9306641.0585938,2.9316406-.2711792,3.1611328-1.0413208,6.2011719-.6740723,8.9960938,1.2213135.6601562.4475708,1.3027344.9208984,1.9658203,1.3638916.6171875.4122925,1.2783203.4755859,1.9277344.0877075,2.4082031-1.4395142,4.9472656-1.3599243,7.5595703-.7212524,1.6699219.4081421,3.1289062,1.2382202,4.6074219,2.0612183.9589844.5338135,1.9453125,1.0696411,2.9853516,1.3902588.6728516.2074585,1.5058594.178894,2.1953125-.0067749,2.1113281-.5679321,4.2529297-.8757935,6.4023438-.5588379,1.1748047.1729736,2.3261719.6818237,3.4179688,1.1896362,1.0361328.4822998,1.9765625,1.1663208,2.9667969,1.7507935,1.1113281.6566772,2.1923828.6168823,3.3251953-.03125,3.9199219-2.2416992,7.8369141-2.0081177,11.7236328.112854.7207031.3930054,1.4140625.8399048,2.1513672,1.1977539,1.1972656.5817261,2.2089844.3590088,3.1123047-.6156616,2.2714844-2.4486084,6.4931641-2.5630493,8.8955078-.2420044.4052734.3911133.7929688.8032837,1.2236328,1.163208.8720703.7280884,1.8046875.8380127,2.7226562.1893311,2.9375-2.0755615,7.3857422-1.2045288,9.8359375,1.2069092.4521484.4442139.8916016.902771,1.3681641,1.3184204,1.0195312.8893433,2.1992188,1.3306274,3.5673828,1.1708374,1.609375-.1882324,3.0830078.2230835,4.4248047,1.0758667.4248047.2704468.7314453.7282104,1.0917969,1.1002197-.0517578.0892944-.1035156.1786499-.1552734.2679443-.2050781-.0265503-.4501953.0109253-.6083984-.0890503-2.6015625-1.6408691-5.2861328-1.3113403-7.9765625-.3171997-.6064453.2241211-1.1064453.1853027-1.7333984.0794678-1.3974609-.2363281-2.8320312-.3102417-4.2539062-.3416748-2.4619141-.0546265-4.9277344-.0883789-7.3496094.5140991-.2265625.0563965-.5615234-.0549316-.7626953-.2023926-3.6757812-2.6947021-7.7587891-3.0350342-12.0722656-2.1533813-.2841797.0581665-.6220703-.0351562-.9111328-.1300659-.90625-.296875-1.7773438-.7769165-2.703125-.9202271-3.4521484-.5344849-6.9199219-.4630737-10.375.0264893-.5253906.0743408-.9326172.0667114-1.3007812-.3978882-.2226562-.2799072-.5751953-.5044556-.9140625-.6356812-3.1357422-1.2125244-6.2949219-2.3978882-9.7304688-2.258606-1.3017578.0525513-2.5976562.34198-3.8867188.5736084-.4296875.0769043-.734375.0476074-1.0830078-.2507324-.9960938-.8544312-2.2441406-1.1760864-3.4873047-1.4044189-3.4013672-.6245117-6.8095703-.5324097-10.2148438.0322266-.2646484.0437012-.5957031-.1034546-.8476562-.2454224-.4052734-.2280273-.7402344-.5990601-1.1601562-.7810059-1.5488281-.6708374-3.0859375-1.4018555-4.6943359-1.8877563-1.1201172-.3383179-2.3505859-.3040161-3.5292969-.4563599-.3085938-.039917-.6142578-.1372681-.9101562-.2374878-.7646484-.2583008-1.5048828-.6748047-2.2871094-.7764282-3.453125-.4485474-6.9287109-.3231201-10.3984375-.2572021-1.6386719.031189-2.9804688-.4873657-3.9316406-2.0239258Zm47.2333984,101.6838379c-.296875,1.9751587-.7636719,3.9343872-.9443359,5.9170532-.0253906.2764282-.0371094.5540161-.0576172.8308716-.7871094.3664551-1.8515625,1.031189-2.6445312,2.5385132-.0498047.095459-.1259766.1865845-.1884766.2817383l-.1621094-.1204224c.03125-.196167.0712891-.3913574.0917969-.5886841.0820312-.7637329.2070312-1.5269775.2275391-2.2927246.0332031-1.3014526-.1132812-2.5651855-.3896484-3.798584.0439453-.2957153.0888672-.5913086.1328125-.8870239.4609375-3.1107788.9003906-6.2251587,1.4042969-9.3292847.6552734-4.0345459,1.2324219-8.0758057,1.3271484-12.1689453.0068359-.30896.0185547-.6190796.0234375-.9296265.0292969.0133057.0625.0248413.0888672.039917,1.2412109.0800781,2.4833984.03479,3.7099609.2851562.0351562.0073853.0712891.0112915.1074219.015625-.6210938,6.769165-1.7207031,13.4821167-2.7265625,20.2064209Zm-7.5800781,73.1361084c.3359375-.2490845.4951172-.1703491.7490234.1127319.4873047.5408936.9570312,1.1548462,1.5664062,1.5140991,1.1845703.6989136,2.4248047,1.3377075,3.7080078,1.8308105,2.4775391.9524536,4.8662109,2.0628052,6.9238281,3.7467041.7695312.6291504,1.3964844,1.4754028,1.9453125,2.3158569.4589844.7023315.2529297,1.1273193-.5800781,1.2937622-.8964844.1796265-1.8300781.2959595-2.7412109.2661133-4.8457031-.1585083-9.6894531-.371582-14.9443359-.5822754-1.4716797-.1554565-3.3740234-.2126465-5.2158203-.576416-7.2666016-1.4353638-14.5136719-2.9703979-21.7695312-4.4598389-1.3398438-.2749634-2.5810547-.7573242-3.6738281-1.5915527-.8486328-.6470947-.8759766-1.1063843-.0869141-1.7928467.2460938-.2139282.5117188-.4094238.7871094-.5847168,1.7382812-1.1098633,3.6464844-1.7999268,5.6972656-1.8672485,3.0566406-.1001587,6.1220703-.164856,9.1738281-.0281372,2.2265625.0997314,4.3359375-.0383911,6.3300781-1.1005859.1298828-.069458.4619141-.0151367.5292969.0903931.5253906.824585,1.3339844,1.2487793,2.2158203,1.460022,1.7363281.4158936,3.4853516.8109131,5.25,1.0684814,1.4960938.2183838,2.9082031-.2055054,4.1357422-1.1153564Zm1.9980469-35.0050049c-1.8896484.4729004-2.9228516,1.8867798-2.7060547,3.828064.0869141.7756348.3564453,1.529541.5175781,2.2989502.0410156.1966553.0634766.5110474-.046875.6069946-.7255859.6275024-1.0810547,1.4644165-1.2978516,2.3408203-.5888672,2.3703613-1.2226562,4.7371826-1.640625,7.1399536-.5732422,3.2983398-1.0029297,6.6252441-.9443359,9.9896851.0126953.7549438-.1152344,1.5690918.6982422,2.0599976.0439453.0267334.0722656.0912476.0927734.1439819.3613281.932312.7255859,1.8637085,1.0771484,2.7996826.1464844.3897705-.0283203.5779419-.4257812.6134644-2.2890625.2047729-4.5751953.1953125-6.8564453-.1135254-.3496094-.0473022-.4013672-.196106-.3798828-.5437012.0341797-.5438843-.0507812-1.0957031-.0917969-1.6436157-.015625-.2087402-.1113281-.4331055-.0615234-.6213379.2841797-1.0692139.3144531-2.1653442,1.0927734-3.1408081,1.1640625-1.4588623,1.9365234-3.1835327,2.4150391-5.0145264.296875-1.1356812.609375-2.2678833.9316406-3.3967896,1.3164062-4.6114502,2.5419922-9.2479248,3.3115234-13.9848022.6787109-4.1790161,1.2226562-8.3795776,1.859375-12.5656128.4042969-2.663147.8701172-5.3170166,1.3046875-7.975769.265625-1.6325684.5410156-3.2641602.7744141-4.9015503.0576172-.40979.0644531-.8741455-.0712891-1.2543335-.2880859-.8101807.2597656-1.223877.7304688-1.7251587.0058594.2045288.0205078.4091187.0175781.6135864-.0146484,1.0801392.1582031,2.1201782.7724609,3.0303345.5019531.7453613,1.0644531,1.4506226,1.5888672,2.1818848.1396484.1950073.3349609.4188232.3378906.6317139.015625,1.0916748-.0390625,2.1842041-.0361328,3.2764282.0009766.3653564-.140625.4761963-.4755859.5726929-.6591797.1890259-1.3828125.3355103-1.9228516.7200928-1.6923828,1.2056274-2.3076172,3.0056152-2.4404297,4.9989014-.0166016.2437744.09375.5698853.2636719.7373047.3691406.3623657.3525391.7558594.3164062,1.2111206-.1289062,1.6411133.1064453,3.1905518,1.5214844,4.256958.5615234.4233398.765625.8817749.7382812,1.553833-.03125.7304688-.2675781,1.1005859-.9648438,1.2750854Zm26.9716797,3.2944946c-1.4863281,1.5537109-3.1953125,2.7636108-5.2216797,3.5172729-.8496094.3161621-1.6708984.6964722-2.2167969,1.5270996-.375-.3736572-.6679688-.7053833-1.0009766-.9923706-2.4628906-2.125-5.2470703-3.7648315-8.0898438-5.310791-1.9619141-1.0663452-4.0830078-1.6903076-6.2363281-2.2255859-.1591797-.0396729-.2802734-.2337646-.4189453-.355957.171875-.1035156.3554688-.3113403.5166016-.2944946,1.7841797.1878052,3.5341797.4847412,5.1513672,1.3662109.6425781.3505859,1.4013672.6523438,2.1152344.671875,1.296875.0354004,2.1259766.6381226,2.8984375,1.5974121.9755859,1.2106934,2.0556641,2.3404541,3.1396484,3.4578857.5732422.5908813,1.3349609.6555786,1.8388672.2938843.4873047-.3499756.6953125-1.0723267.34375-1.7825317-.9462891-1.9099731-2.0390625-3.7051392-4.0107422-4.7816162-.9589844-.5238647-1.8310547-1.206543-2.7871094-1.737854-.7460938-.4145508-1.5390625-.7697144-2.3496094-1.03302-.6699219-.2177124-1.3974609-.2583008-2.0976562-.3848267-1.8798828-.3393555-3.7363281-.7476196-5.4296875-1.6934814-.7021484-.3925171-1.1962891-.9141846-1.4677734-1.6959839-.2041016-.5905151-.5117188-1.1591797-.8583984-1.6812744-.1923828-.2907104-.2646484-.4911499-.0380859-.7542725.7519531-.8731689,1.4541016-1.7962646,2.2753906-2.5986938.5751953-.5620117,1.3925781-.8461304,2.1894531-.5802002,2.7001953.9007568,5.4121094,1.7815552,8.0546875,2.8312988,3.3242188,1.3198242,6.5849609,2.7977905,9.8710938,4.2115479.1201172.0518799.2587891.1223755.3271484.2251587.7216797,1.0873413,1.5439453,2.1278076,2.1142578,3.2910156.6416016,1.3061523,1.0439453,2.7283325,1.5683594,4.0932007.1289062.3354492.0673828.5591431-.1806641.8190918Zm-23.0888672-18.1241455c.3720703-.5768433.6484375-1.0040894.9228516-1.4334717.2050781-.321228.4169922-.3016357.7070312-.0802002.5009766.3833008,1.0283203.7351074,1.5527344,1.0861816.4238281.2833252.8623047.5462646,1.2929688.8182983-.0205078.0250854-.0419922.0502319-.0634766.0752563-1.4179688-.1497192-2.8359375-.2996216-4.4121094-.4660645Zm15.3476562-9.0526733c2.3193359,1.2468262,4.6318359,2.5130615,6.8867188,3.8708496,1.8955078,1.1414795,3.2958984,2.8173218,4.4550781,4.6859131.1015625.1633301.0898438.4976196-.0117188.6687012-.5869141.9932861-1.2285156,1.9536133-1.8261719,2.9404907-.4902344.8086548-1.1513672,1.4277954-1.9248047,1.958313-.3642578.2497559-.6494141.2761841-1.0498047.0673828-1.3808594-.7208862-2.7744141-1.4207153-4.1826172-2.0883789-5.3701172-2.5469971-10.7529297-5.0672607-16.1191406-7.6220093-1.6943359-.8066406-2.4208984-2.1590576-2.2705078-4.0134888.1542969-1.9152832,1.5732422-3.5927124,3.4736328-3.9068604,1.5126953-.25,1.8232422-.1793823,3.4121094-.3245239.2802734-.0255737,2.6132812.4075928,2.9443359.5784912,2.0683594,1.0678711,4.1640625,2.0831909,6.2128906,3.1851196Zm-6.2324219-16.322998c.1474609-.2175903.4619141-.4265137.7158203-.447876.7255859-.0611572,1.4589844-.0238037,1.8369141-.0245361,2.2275391.1920776,2.4511719.4807129,2.1650391,2.3666382-.0283203.1903076-.0322266.3904419-.0976562.5674438-.0703125.1904297-.1650391.3970337-.3095703.5313721-1.5195312,1.411438-2.7578125,3.0481567-3.8896484,4.7750854-.3681641.5626831-.7539062,1.1169434-1.1757812,1.6400146-.1035156.128479-.3974609.2022705-.5703125.1599731-.8730469-.2151489-1.7285156-.5015259-2.6025391-.7109985-.40625-.0973511-.5253906-.2262573-.3359375-.6217041.3408203-.7113037.6826172-1.4246826.96875-2.1589966.8417969-2.1661377,1.9970703-4.1610107,3.2949219-6.076416Zm54.1835938-80.6956177c-1.9609375,1.9835205-3.9130859,3.9777832-5.8857422,5.9510498-2.2880859,2.2892456-4.6025391,4.5527344-6.8925781,6.8409424-3.7021484,3.6999512-7.3203125,7.487915-11.1044922,11.1021118-10.1035156,9.6496582-19.7822266,19.7129517-29.3945312,29.8449097-1.4365234,1.5134888-3.09375,2.8296509-4.4287109,4.4221802-.8242188.982605-1.4716797,1.2644043-2.6611328.7780151-1.2734375-.5209351-2.6425781-.8082275-3.9609375-1.2233276-.1640625-.0515747-.3203125-.2387695-.4101562-.4015503-1.1269531-2.0518799-2.2412109-4.111145-3.3603516-6.1675415-.1445312-.2662964-.3515625-.5108032-.4404297-.7935791-1.5683594-5.0093384-3.8320312-9.7312622-5.9648438-14.5081787-.8222656-1.8417969-1.5380859-3.7312622-2.3457031-5.5797729-1.2207031-2.7939453-2.4736328-5.5744629-3.7304688-8.3522339-.2119141-.4688721-.3945312-1.0213013-1.2636719-1.0909424.0800781.6508179.0517578,1.2687378.2431641,1.8088379.7041016,1.9891968,1.4951172,3.9473267,2.2294922,5.9263916,1.1005859,2.9688721,2.1796875,5.9456177,3.2646484,8.9200439.078125.2156982.1298828.4414673.1230469.7185059-.0888672-.109436-.1933594-.2093506-.2626953-.3295898-4.1708984-7.1843872-8.4189453-14.3261108-12.4824219-21.5710449-3.0869141-5.5044556-5.8496094-11.1903076-8.9248047-16.7020264-2.5712891-4.6085815-5.3847656-9.0819092-8.0898438-13.6149902-.1044922-.175293-.2119141-.3493042-.4257812-.7024536,3.0810547.2798462,6.0068359.5031128,8.9199219.8443604.6269531.0734863,1.2119141.5579224,1.8017578.880127.5507812.3009644,1.0820312.6378174,1.6806641.9936523-.9794922.854187-.7373047,1.994873-.4208984,3.0666504.5087891,1.7278442,1.0410156,3.461731,1.7382812,5.1193848,2.3007812,5.4716187,4.6640625,10.9179077,7.0429688,16.3564453.5058594,1.1567383,1.1757812,2.2424927,1.7792969,3.3557739.0830078.1529541.2226562.2750854.5.3658447-.0292969-.2752686-.0400391-.5543213-.0927734-.8251343-1.0009766-5.1541138-2.9619141-10.0230713-4.4560547-15.0309448-.6982422-2.3381958-1.3349609-4.694519-2.0292969-7.0338135-.5332031-1.7953491-1.0800781-3.5906982-2.0996094-5.3666382.8613281.2106934,1.7646484.3239136,2.5771484.6565552,1.0136719.4145508,1.9521484,1.0102539,2.9238281,1.5272827.6601562.3511353,1.2890625.7937622,1.9873047,1.031189,1.1269531.3835449,2.1601562.1970215,2.9794922-.8001709.2363281-.2887573.6416016-.4528809.9892578-.635376,2.8183594-1.4784546,5.5283203-1.1227417,8.1367188.5319214.8505859.5397949,1.6494141,1.1608276,2.4775391,1.7362671.9550781.6625366,1.8427734.6726685,2.9443359.1176758,1.5742188-.793396,3.3564453-.8225708,5.0107422-.2458496,1.6962891.5909424,3.3115234,1.4176636,4.9472656,2.1738281,1.2001953.5549316,2.375,1.1628418,3.6669922,1.798645-.0273438.1329346-.0966797.4691162-.1640625.8061523-.9570312,4.8746338-1.3310547,9.8192139-1.4882812,14.7644043-.1542969,4.8947754-.8564453,9.7150269-1.4707031,14.5531006-.5888672,4.6326294-1.0996094,9.2763672-1.7724609,13.8964844-.6425781,4.4108887-1.4355469,8.8001099-2.1953125,13.1930542-.1992188,1.1482544-.5019531,2.2807617-.7988281,3.4094238-.2607422.9896851-.1767578,1.6261597.3369141,1.9248047.5458984.3173218,1.171875.1135254,1.8300781-.7719727.7685547-1.03302,1.4453125-2.135498,2.1582031-3.2097168.1269531-.1922607.2402344-.3942261.3603516-.5917358,1.0048828.6135864,1.4003906.6053467,2.0986328-.3132935.9785156-1.2866211,1.8789062-2.6340332,2.7773438-3.9786987,2.90625-4.3473511,5.7978516-8.704834,8.6914062-13.06073.1845703-.2785645.3378906-.578186.5058594-.8679199-.0712891-.0638428-.1425781-.1274414-.2128906-.19104-.875.8165283-1.8349609,1.5598755-2.6064453,2.4646606-1.5810547,1.8562012-3.0859375,3.7805786-4.5771484,5.7111816-1.4912109,1.9301758-2.9277344,3.9028931-4.390625,5.8552246-.1367188.1815796-.2871094.3518677-.5498047.4619141.3046875-.6974487.5849609-1.4075317.9199219-2.0905151,1.7714844-3.6149902,3.0595703-7.4638672,5.3623047-10.8234863,1.1660156-1.699707,2.328125-3.4317017,3.2294922-5.2774048,2.25-4.6127319,4.3134766-9.3166504,6.5224609-13.9503784,2.4609375-5.1625366,4.9902344-10.2924194,7.5136719-15.4252319.4013672-.8172607.9228516-1.5752563,1.3837891-2.3637085.1083984-.1858521.1943359-.3847656.2900391-.5778809-.0664062-.0609131-.1328125-.1218262-.2001953-.1826172-.5224609.4564819-1.1269531.8491211-1.5498047,1.3847046-.6503906.8238525-1.2451172,1.7089844-1.7451172,2.6321411-4.8134766,8.8868408-9.59375,17.7918701-14.4023438,26.6810303-1.6826172,3.1094971-2.8144531,6.4366455-4.0253906,9.7388306-.3994141,1.090332-.9638672,2.138916-1.5791016,3.1275024-1.3476562,2.1653442-2.7773438,4.2801514-4.2431641,6.5205688-.046875-.1939697-.0869141-.2693481-.0791016-.3399048.5996094-5.8117065,1.25-11.6188965,1.7900391-17.4362793.359375-3.875.5478516-7.765625.8378906-11.6470947.2255859-3.0201416.6640625-6.0058594,1.3203125-8.9696045.9794922-4.4211426,1.8525391-8.866272,2.7509766-13.3051758.1064453-.5236816.1884766-1.0895386.0996094-1.6043701-.0859375-.4931641-.4072266-.9453125-.6513672-1.472229.0234375-.0130005.1513672-.1255493.2958984-.1532593,2.6064453-.4978027,5.2089844-.6726074,7.7998047.1140137,1.1474609.3482056,2.1386719.9282227,2.9716797,1.8045044,1.3027344,1.3710327,2.3251953,1.4787598,3.9414062.5513916,2.7695312-1.5899048,5.4667969-1.0152588,8.1152344.3481445.3925781.2024536.7558594.475769,1.1035156.7525024.921875.7329102,1.9013672.9044189,3.0332031.5140381,1.953125-.6741333,3.9433594-.9234009,6.0263672-.6129761,1.7705078.2637939,3.140625,1.2838745,4.7402344,2.0877686-.1943359.237854-.3427734.4349365-.5087891.6174927-5.4208984,6.013855-10.9765625,11.9140625-16.2246094,18.0755615-3.9667969,4.6564941-7.5517578,9.6380005-11.2773438,14.4979858-.4873047.635437-.7939453,1.4086914-1.2285156,2.1963501,2.9453125-1.4136353,4.9482422-3.8175659,7.109375-5.9821167,6.0488281-6.0615234,12.1015625-12.1242676,17.7119141-18.6068115,1.5664062-1.8088989,3.2802734-3.4887085,4.8496094-5.2941284.828125-.9508667,1.5244141-2.022583,2.2148438-3.0820923.4980469-.7636108.7060547-1.6205444.5009766-2.559082-.0449219-.2077637.0888672-.5712891.2597656-.6903076.8935547-.6210938,1.8583984-.7141113,2.8564453-.2213745.8623047.4252319,1.7060547.897644,2.5966797,1.2490234,1.6650391.6569214,2.4355469.40271,3.6523438-.9066162.1796875-.1932373.6982422-.0714111,1.0595703-.0953979l.0732422.2626953c-.1943359.1881104-.3945312.3720703-.5859375.5650635Z" stroke-width="0"/>
        <path d="m89.9664424,93.2935059c-.3847656-2.5480347-.9248047-5.0724487-1.3867188-7.6090088-.1220703-.6678467-.1738281-1.3514404-.3427734-2.0060425-.0625-.2434082-.3945312-.6137695-.5556641-.5905762-.2558594.0370483-.609375.3174438-.6757812.5619507-.1523438.5562744-.2597656,1.1640015-.2011719,1.7318726.375,3.6349487.6865234,7.2818604,1.2333984,10.8922729.8076172,5.3287964,1.7900391,10.6311035,2.7119141,15.9423218.0751953.4338989.1679688.9143677.4160156,1.2528687.1933594.2636719.6552734.4839478.9736328.4555054.265625-.0237427.4980469-.43573.6835938-.616333-.0605469-.5524292-.0908203-.9257812-.1435547-1.2957764-.8984375-6.2406006-1.7705078-12.4851074-2.7128906-18.7190552Z" stroke-width="0"/>
        <path d="m84.1832393,54.363269c-.1689453-1.6013794-.4550781-3.1990967-.8193359-4.7678833-.2060547-.8857422-.9667969-1.284668-1.6923828-1.1536865-.7226562.130127-1.1367188.6831055-1.1923828,1.6049194-.0107422.1865234-.0136719.3771362.0117188.5615845.1738281,1.2767944.2910156,2.5654907.5458984,3.826355,1.3681641,6.7710571,2.7714844,13.5352173,4.1650391,20.3012085.0302734.1470337.0917969.2875366.1923828.5904541.1259766-.2767944.2314453-.4046631.2382812-.5376587.0693359-1.329895.2675781-2.6734009.1533203-3.9889526-.4765625-5.4838867-1.0244141-10.9620361-1.6025391-16.4363403Z" stroke-width="0"/>
      </g>
      <path d="m166.0892901,19.0353418c-.2440229,1.4322181-.955328,2.5856395-1.1440872,3.975659-.1755852,1.2931298-.2336452,2.5037609.0731891,3.7035285.3425417.8963939,1.1291092,1.1648993,1.7857819,1.6607484,1.1605446-.4856237,1.5216067-1.6504677,1.6735825-2.8146669.2117388-1.6212233.1776516-3.2596791-.2724657-4.9322499,1.2830782-2.6836856,2.5131146-5.4357564,5.0946389-7.096686.6516252.2828596,1.298289.5638792,2.1420302.9305024.1833518-.0488139.5795913-.1540078.9826442-.2608786-.2582063-1.0542796-.910478-1.6247621-1.6753466-2.3397871-.785427-.1586444-1.7190045-.3469626-2.7482678-.5548656-.2693794-.5415228-.5937442-1.1936833-.9335752-1.8768974,1.9442294-2.1971771,3.3449315-4.4539907,3.3840731-7.3321379-.4290762-1.3419539-1.2887197-1.8867989-2.3759575-2.0976106-.9458725.524691-1.5229616,1.0442603-1.9788823,1.7269723-.8352282,1.2505778-1.0627135,2.6652928-1.0578064,4.1528623.0011778.3584887-.0440822.719188-.0770803,1.2173411-.4961451.2596352-.9799698.4736125-1.4314678.7563153-1.6116485,1.00952-3.3154953,1.601093-5.1236715,1.8883536-1.6122712.2560494-3.2054059.2980375-4.8151541.2134729-.4682782-.0244751-1.0874733-.2754185-1.5191361.4255138.3002103,1.1368029,1.117491,1.6498673,1.9998201,2.0465589.682995.3070083,1.4574207.3476187,2.0481313.9368021.1968915.1962459.5655724.3080428.8332198.2584235.8451905-.1565616,1.5587994.2480344,2.2959339.4465145,1.4127709,1.3670946,2.0590275,3.2581877,2.8398533,4.9662115Zm4.1055848-8.7646412c.4193181.5800269.8229765,1.1384407,1.2398799,1.7150739-2.0383952,1.1234812-3.2518054,3.1238183-4.4370304,5.3087821-.7944882-1.6959158-1.8643695-3.1340155-3.2417285-4.3682341,2.3542643-.5493918,4.6276504-.8590506,6.438879-2.6556219Z" stroke-width="0"/>
      <path d="m191.2041891,38.0145614c-.8141099.1499681-1.5769429.2905304-2.4459429.4505564-.1904367-.7798499-.3793454-1.5543429-.542418-2.2222292.6991063-.8894968,1.3604737-1.5793518,1.851545-2.3936207.6372427-1.0566498,1.5445514-2.0736509,1.1194248-3.4990054-.3849266-.519564-.7553642-1.0195482-1.0720818-1.4466971-.5719479-.2016669-1.0521378-.3711273-1.4980701-.5282877-2.2606367,1.2099217-3.1165053,3.1398619-2.7863294,6.2015696-2.4467715,2.0366637-4.9515245,3.9249881-8.0268877,4.2908062-.7622436-.1237676-1.535885-.1407699-2.296974-.2436314-.7415908-.1002675-1.4703533-.2881324-2.3274055-.4627103.089614.7418783.2872264,1.3029673.6458347,1.6488835.5668081.5468197,1.1983573,1.0858602,1.8955761,1.3658439.6031121.2424564,1.3385351.0957033,2.0098485.1660245.630239.0659643,1.3862737-.0235092,1.8545848.3299087,1.4332382,1.0814445,3.0256725,1.9975991,3.9732343,4.0373082-.8625976,1.8624344-1.873412,3.7952462-1.7893415,6.1655997.4478907.5007682.8798647,1.0776816,1.3959813,1.5377259.6745812.601251,1.0820892.557929,1.8310426-.0583617.4119989-.3391358.7984942-.7185704,1.0013818-.9027945.9926236-1.988472.9850501-3.7361945.2846657-5.4393853,1.1329162-2.0173266,2.1791944-3.9985434,4.0301407-5.3349216.6479581.2284024,1.3467533.4747857,1.9858832.7001248.6596403-.1522951,1.2432149-.2871905,1.787025-.4126933.1321321-.4173085.2252908-.7111057.3314262-1.0464014-.7032887-1.504835-1.7475926-2.5257256-3.2121436-2.9036117Zm-6.8215489,5.6448547c-.9540062-.9097231-1.8799384-1.7928208-2.9033403-2.7685256,1.965649-.7585746,3.5492301-1.8916196,5.1294415-3.2321135.3247908.5278802.6498486,1.0564884,1.025136,1.6667146-1.3390928,1.1173585-2.2834539,2.656708-3.2512372,4.3339245Z" stroke-width="0"/>
    </g>
  </g>
</svg>