<?xml version="1.0" encoding="UTF-8"?>
<svg id="Layer_2" data-name="Layer 2" xmlns="http://www.w3.org/2000/svg" viewBox="0 0 105.3057994 199.6368517">
  <g id="Layer_1-2" data-name="Layer 1">
    <g>
      <path d="m27.5253268,31.3530369c-2.6322114.6864955-5.0351372,1.5126594-7.0765469,3.1702301-.3391071.2753496-.3258898.5206799-.1202786.8740012.1280038.2199692.1274671.514747.1846207.7759496-.3166789.0537031-.6591599.2129915-.9456278.1430135-1.3073357-.3193243-1.9716138-1.6034937-1.3155977-2.8114934.5129834-.9445926,1.2231244-1.8305364,2.009253-2.5681951,1.5948196-1.4964804,3.445896-2.6548984,5.5136732-3.3917136.7247481-.2582505.821247-.5952011.6334345-1.2556789-.7721828-2.7155744-1.5025571-5.4430051-2.2683757-8.1604246-.4673889-1.6584668-.8532216-3.353485-1.4859947-4.948664-.9957942-2.5103465-1.3554605-2.5825146-4.0042343-2.227885-2.8435926.3807144-5.1747673,1.9023211-7.6126103,3.2044858-.2535061.135408-.4840088.315778-.7419814.4405565-.8492439.4107625-1.4231478.9572924-1.743536,1.942136-.5467983,1.6807465-2.2823118,2.4842569-4.0001224,2.0182913-2.4501977-.6646327-3.7481691-2.4716339-4.4519362-4.757056-.3148674-1.0224924.1184287-1.6149762,1.2911567-2.1133142-.5289036-1.6166919.5573798-2.4893656,1.7067594-3.1110445,3.0815044-1.6667289,6.1943316-3.2877961,9.3713476-4.7618435,2.6056521-1.2089486,5.2854708-2.2833566,7.9972736-3.2319652,3.5220945-1.2320525,5.2689467-.5663751,7.3570627,2.5432844,2.07879,3.0957664,3.0779293,6.6117602,3.9417995,10.1857271.9699346,4.0127886,1.9905723,8.0134047,3.0024401,12.0159616.7166011,2.8345447,1.4469658,5.6657347,2.2035447,8.4897649.0484891.180969.3762096.4078104.5738272.4076187.9409217-.0008914,1.8813545-.0843455,2.822698-.1178824,5.4092478-.1927294,10.7700735.3039025,16.1063433,1.1433892.1522627.0239522.3054073.0423069.672358.0926746-1.3288246-.9314232-1.3863137-2.1049947-1.0198422-3.3088538.386446-1.2694856.900225-2.5005653,1.3703168-3.7439135.0987705-.2612218.2495188-.5027853.429213-.8579085-.3242029-.0402462-.5413062-.0776745-.7599527-.0927513-2.5307955-.1744705-5.0603546-.4546413-7.5931533-.4882644-2.7907904-.0370737-5.5845809.1535088-8.3770966.2440843-.7830902.0253995-1.567321.083502-2.3491173.0608246-.6834475-.0198212-1.3256137-.2359565-1.5344742-.9858788-.2107487-.7567083.2498064-1.2286548.8214866-1.6227782,2.6680486-1.8393639,5.6289485-2.8297188,8.84669-3.1421181,2.884481-.2800413,5.7514987-.1631654,8.6092.2508224,1.8378016.2662346,3.5286312.9330718,5.0126515,2.0929994.114614-.0894445.2051129-.1427116.2739503-.2162503,5.6401818-6.0256454,12.6581661-9.3153154,20.7672358-10.3788543,2.8671135-.3760322,5.7073323-.0522319,8.4448989.8802696,4.6788351,1.5937796,8.9036807,3.9311413,12.1191219,7.7994883,1.4046205,1.689852,2.4570028,3.5861922,2.9114141,5.7615674.3437078,1.6453214.3068833,3.2244029-.9119663,4.5841477-.1611765.1797996-.1517068.582971-.1079239.8651258.4206155,2.7104706-.0232909,5.268017-1.367451,7.651045-.5054403.8960461-1.0953793,1.7481845-1.6929287,2.5874987-.6300415.8849661-1.5879186,1.3227671-2.6080962,1.4572406-2.0710648.2729918-4.1550306.467964-6.2395523.6073737-.6328211.0423069-.9405095.1487643-1.012855.8308988-.0597703.5635811-.2306657,1.1362965-.4598554,1.6576857-1.7951784,4.0837778-2.5254952,8.4548765-3.5441776,12.755288-1.9398692,8.1891979-2.2406183,16.5139332-2.3675966,24.8725026-.0850356,5.5982583-.2948641,11.1999671-1.2068495,16.7418289-.693339,4.2134781-2.0091859,8.2597701-3.9281987,12.0494698-1.7217595,3.4001769-3.6883125,6.6901104-5.7388469,9.90628-2.1207328,3.3262596-5.0960002,5.6379582-9.1133942,6.2193477-1.3993873.2025058-2.8527173.0322813-4.3352615.0322813.160889.8939662.4290693,1.8515557.490929,2.8222762.2361865,3.7072711.5087757,7.4168809.5764055,11.1291169.1010229,5.5465584.0601153,11.0961263.0386647,16.6442565-.0086454,2.2363819-.3802256,4.4331789-1.1020311,6.55395-.2425507.7126042-.5609166,1.4155087-.9509952,2.0582788-.6949875,1.1452198-1.7525935,1.5534903-2.7870428,1.1810092-1.0143022-.3652542-1.5556564-1.3903393-1.3480419-2.7116878.2800941-1.7825074.6058976-3.5580371.9272347-5.3338352,1.7390887-9.610515,1.9297286-19.3004105,1.4792183-29.0215523-.0361727-.7805599-.1532787-1.5667172-.3269058-2.328836-.1650392-.7244126-.4535486-1.4207037-.7192848-2.2246885-.9631774,1.1839037-2.262299,1.4249976-3.6708684,1.4242692-.204049-.0000958-.5549357.3035095-.5913193.5100026-1.5979825,9.0702247-2.3099829,18.1234461.557399,27.1079068.4763506,1.4925315.8105696,3.0304179,1.2246675,4.6011798.9603307-.1293553,1.0348327.4924434,1.0454526,1.2101467.0119905.8104833.0918407,1.6197973.1095245,2.4303573.0234346,1.0743313-.4195421,1.8570573-1.2277538,2.1716851-.943845.367382-1.8055874.1122945-2.4226991-.6125207-.5680188-.6671919-1.0583248-1.4341989-1.4306526-2.2285608-1.6514844-3.5235322-2.3517243-7.2949058-2.8806663-11.1225801-1.1106094-8.0369351-.2101544-15.9175628,1.6585483-23.7402412.3267429-1.3678152.4326348-1.003692-.7426331-1.8272872-2.8461422-1.9945021-5.7790739-3.9048887-8.4006175-6.1692005-2.7338668-2.3613282-4.4550033-5.5560472-5.6304533-8.9525436-2.0365598-5.8846879-4.0328063-11.7925707-4.8359477-18.011305-.1875345-1.4520265-.3424043-2.9130435-.4118455-4.374693-.2234388-4.704225-.3075926-9.4168175-.6189808-14.1146687-.3529475-5.3248639-.8850907-10.6380441-1.3547512-15.9549432-.3686376-4.1732415-.7781157-8.3485054-1.9468085-12.3886057-.6376997-2.2044936-1.4778285-4.3507025-2.2364873-6.5197518-.1670328-.4775583-.4803858-.8023555-1.0345835-.8035248-.0762081-.0001629-.1714513-.0125847-.2253845-.0579588-.3507046-.295027-.9955162-.6130287-.9838229-.9007522.0467255-1.1510378-1.3928313-1.8455844-.8998895-3.0196351.1781319-.4242577.6585944-.8288285,1.0969704-1.0085131.5088716-.2085825,1.1523796-.3017172,1.6851363-.1916655.9162794.1892502,1.6789829-.0772049,2.4843193-.4105803.7957708-.329417,1.6205545-.5986037,2.4498526-.8332662.4628937-.1309847.6696551-.3239921.5738559-.8210936-.2009818-1.042903-.3757112-2.0908572-.5760508-3.2203677Zm.0740994,8.7632839c.0501185.1965441.0515562.2536019.0773007.2958609,2.565243,4.2103535,3.9450966,8.834067,4.5539463,13.6773758.5087182,4.046685.8499915,8.116632,1.1771369,12.1833874.4529927,5.6313064.9517332,11.2565073.9573307,16.9210151.0036422,3.681632.1666398,7.3933025.6575784,11.0377171.911372,6.7653696,3.6970442,12.950452,6.594455,19.0513326.9269759,1.9518693,2.1991836,3.8005112,3.9730935,5.1070034,2.8417811,2.0929946,5.7931826,4.0370044,8.6928841,6.0516919.4197625.2916436.7435149.3331838,1.1651369-.0588885.5532967-.5145266,1.0242512-.3920531,1.2405973.3164105.1553394.5086607.4295677.6442077.9059758.6429234,1.2819362-.0034505,2.5640545.0120767,3.845914.0331439,2.6974449.0443197,4.9527854-.9985737,6.5891259-3.0746609,1.5003335-1.9035048,2.8106212-3.9653683,4.1082572-6.0183371,3.0052484-4.7545544,5.2913558-9.8248962,6.1446061-15.4257041,1.096702-7.1990779,1.7085326-14.4445745,1.6658806-21.7341704-.0212589-3.6319736.4729097-7.1961641,1.2588562-10.7329136,1.0096345-4.543499,2.0395502-9.0836145,2.9587625-13.645727.7053774-3.500826.7843171-7.1444546,2.4929838-10.4065637.0765243-.1461477.0485945-.4773379-.0561664-.5567376-.1470487-.1114415-.4366604-.1412883-.6226421-.0789014-3.0273699,1.0155962-6.1456412,1.0759224-9.2437655.6410352-5.3086849-.7451731-10.626207-1.4952536-15.8814476-2.5382908-9.285066-1.8428432-18.6251867-2.7686498-28.0864293-2.3738267-.5499612.0229554-1.0875199.2730589-1.6379316.3815003-.3247013.0639684-.7020227.1648762-.9885577.0620706-.9009055-.3232061-1.6767688.0527255-2.5428818.2422536Zm71.2311232-10.387979c-.378692-.7070355-.7449239-1.3613455-1.0840694-2.0294288-1.1130152-2.1924312-2.8449345-3.7833498-4.8823953-5.0901679-.3663277-.2349549-.6193066-.2861085-.9204392.1019718-.8608989,1.1094545-1.9445849,2.0930713-2.5923006,3.3113793-1.4579115,2.742196-2.7416305,5.5798269-4.0228957,8.4118028-.5896324,1.3033005-1.0101904,1.6524333-2.4287854,1.5107616-.5716323,1.6509189-1.9844573,2.1843369-3.4605414,1.2275813-.6939716-.4498106-1.3627737-.9950945-1.9007061-1.6196535-3.088252-3.5855644-5.8011858-7.4128553-7.3833727-11.9347791-.0669205-.1912725-.1640328-.3719923-.2468447-.5571114-.1200965.0196678-.2036751.0146406-.2679694.0474347-.1860968.0949318-.3651392.2038908-.5457536.3093802-3.6996033,2.1606579-6.3471119,5.3092457-8.4543877,8.9732514-.687799,1.1959038-1.2381149,2.5261374-2.8682349,3.0500857.3370656.0857161.4861846.1322882.6386486.161119,3.7510828.7096426,7.5046673,1.4062307,11.2533252,2.1283526,4.5462977.875784,9.0871513,1.0360308,13.620663-.0601537.3252668-.0786522.7617355-.2244548.8977809-.4744145,1.0233598-1.8799648,2.4413797-3.4102696,4.1629859-4.6291767,3.0803542-2.1809343,6.4706014-3.3392469,10.4852925-2.8382348ZM9.0458853,12.481341c.2753688-.1591014.499191-.2879104.7225436-.4175341,2.8320526-1.6436345,5.68823-3.1802461,8.9743296-3.8111838,2.7132022-.5209387,4.0014643-.2037231,5.4911587,2.1154707.7249973,1.1286814,1.3836396,2.3875903,1.6947306,3.6785361,1.0384078,4.309124,2.4269356,8.5256069,3.112463,12.9354998.3845962,2.474054,1.4266749,4.8472577,2.2020207,7.2564136.0579588.1800776.359398.4099094.5377982.4017337.960417-.0440226,1.9177094-.1560104,2.8682445-.2438159-.3369793-1.1828303-.6892655-2.2996602-.9706055-3.4340685-.4585423-1.8489582-.8083076-3.7266322-1.3145913-5.5616782-1.3691379-4.9626241-2.7394547-9.9264798-4.2323217-14.852567-.5104051-1.6842162-1.2713355-3.3210024-2.1229564-4.866408-1.1736577-2.1298191-2.0695696-2.3907054-4.407674-1.6890229-.1753332.0526201-.3541456.0983392-.5227407.1680488-3.0680762,1.2686038-6.1429288,2.521345-9.1982861,3.8199538-1.4145886.6012395-2.7906275,1.2931647-4.2088583,1.9555163.2854998.416542.5665811.7620374.7741956,1.1471512.2211097.4101155.3726632.8577312.6005494,1.3979543Zm73.3474565,23.122564c-.1856559-.3320336-.3934141-.6316709-.5267183-.9614138-.1457068-.3604619-.2790493-.7425948-.3208578-1.1258587-.5676834-5.2050646,1.1302677-9.5070097,5.1688056-12.8650138.209886-.1745137.4188711-.3501056.7448664-.6226613-4.7069758-1.5858914-9.0437134-.499675-13.339275.7803154,1.2110476,2.4062901,2.3647404,4.6870205,3.5077941,6.9730943,1.1922616,2.3844849,2.3773347,4.7725736,3.5581138,7.1627614.2457712.4974945.5863544.7837516,1.2072713.6587765Zm18.0049216,4.587627c.1729657-2.375111.3193818-4.71865.5297087-7.0564478.0579683-.6442461-.1803268-.9696471-.8052117-1.226642-.1094574,1.2216963-.7961829,1.9954606-1.8150763,2.4876835-2.8908836,1.3965598-5.7894733,2.7772472-8.6836349,4.167069-.0897321.0430929-.1642628.1178728-.2771324.2008572.1275342.4233184.2514262.8345218.382986,1.2711917,3.5965868-.6484154,7.1287836-1.2395526,10.6683606.1562883ZM2.5731562,12.2639214c.3092699.4254271.569284.8081255.8556177,1.1700011.2914999.368398.5632265.7780151.9316245,1.0506858.2319213.1716718.6966265.2601243.9273977.1390598.2463271-.1292307.5491082-.6505001.4646094-.8242566-.3674971-.7556252-.8017325-1.5073159-1.3654957-2.1186097-.1382403-.1498857-.857736.2322999-1.3079012.3764061-.1416812.0453549-.2765286.112074-.5058524.2067135Z" stroke-width="0"/>
      <path d="m55.2619333,193.2755093c4.2742644-.0072077,8.2668916-.9834874,12.0020734-3.0264114,2.974769-1.6270242,5.654348-3.6633156,8.2662973-5.8154671,3.8281343-3.1542715,2.7537647-7.9161102-.2966277-10.2626013-3.3091605-2.5454889-6.9170381-4.0649726-11.1498965-3.9389336-1.6414396.048882-2.6523009-1.3230163-2.2002667-2.9076952.3419826-1.1989134,1.1887153-1.9608789,2.2841904-2.4382168,2.4539165-1.0693089,4.9995204-1.3147159,7.5970735-.6396071,1.7385136.4518425,3.3606687,1.1972648,4.7410016,2.3639353,1.257476,1.0628488,2.5249968,2.129474,3.6648108,3.3131285,4.5838314,4.760171,5.0885241,12.3218961.7479718,17.2545536-5.5812934,6.3426646-12.4663569,10.7588019-20.9646617,12.166432-4.1028322.6795561-8.1927826.0460066-12.2573047-.6005781-2.2812959-.3628964-4.523304-.8719022-6.6251165-1.8687315-5.058869-2.399322-8.1435938-6.4004988-8.9829176-11.8833955-.6685721-4.3674661.8815636-8.2630769,3.633996-11.6496435,2.31328-2.846238,5.2220583-4.8801333,8.7307725-6.0204841,1.5020395-.4881494,3.0173251-.6519713,4.5514735-.1787549,1.2565942.3875483,2.2786217,1.0572513,2.6858474,2.4016415.2983242.9848676-.161742,1.7170438-1.1796577,1.8652235-.2040394.0297126-.4239223.0399491-.6234568-.002377-2.8365766-.6015749-5.2282213.4244111-7.3394652,2.1589566-2.4471114,2.0104702-4.1778422,4.5008278-4.7391613,7.7197003-.6431247,3.6880058.8015791,6.5033811,3.5847018,8.7267853,1.6892769,1.3495467,3.721629,2.0337419,5.8463107,2.3273025,2.6661796.3683597,5.3473305.6284313,8.0220117.9352379Z" stroke-width="0"/>
      <path d="m61.813468,181.258292c-.0962689-1.362582-.0223899-1.4205695,1.2804026-1.1212581.4839513.1111827.9760113.1935537,1.4517965.3322828,1.2872269.3753182,1.9729173,1.5796565,1.4569147,2.8194775-.2880398.6920163-.7739464,1.4170231-1.3722433,1.8461882-4.5694735,3.2778951-9.4792523,3.6880633-14.5333098,1.3090418-2.9042255-1.3670484-4.221951-4.6217869-3.3238059-7.7735089.311484-1.0930023.8510171-2.128113,1.3568215-3.1549808.1878891-.3814907.5406161-.7101314.8830492-.9808037.5801243-.4586093,1.2785336-.3763917,1.6814749.1264799.3813949.4759768.3272509,1.3412656-.1077609,1.7904244-.1049239.1083456-.2704902.2215794-.2834487.3455864-.1376365,1.3177063-.4379447,2.6551572-.3197364,3.9531573.1339272,1.4708317,1.1235392,2.4265234,2.6496555,2.7126271,1.3342208.2500843,2.6603904.2836117,3.9482116-.194263,1.7610185-.6534857,3.5076503-1.3457704,5.2319785-2.010451Z" stroke-width="0"/>
      <path d="m53.6448964,105.671329c1.1064209-.4066123,1.3638567-.2116592,1.3116296.9175254-.1026427,2.2191294-1.5893946,3.3794356-3.8276455,2.9756125-1.1964118-.2158669-2.1973242-.81056-3.0739804-1.6345194-2.8919283-2.7180904-4.3277087-6.1454016-4.9676704-9.9959067-.7925599-4.7687301-.3305672-9.4871597.3813661-14.2119056.5610603-3.7234309,1.0556411-7.4569354,1.5716629-11.1870756.1412978-1.0214524.0440993-1.9927481-.3249793-2.9935742-.2637042-.7150867-.3686089-1.6153308-.1854642-2.3425709.3971905-1.5771933,2.3086315-2.0357259,3.4145444-.8359212.5047885.5476513.9690624,1.3282687,1.0397401,2.0438921.2148605,2.1758928.3766792,4.3775301.2892283,6.5583111-.1613395,4.0226178-.5567089,8.0352291-.7782883,12.0562174-.3133626,5.6863897.7788442,11.0882189,3.4847908,16.1299888.2839184.5289995.6077091,1.0379477.9353146,1.5416819.2125314.3267812.4656254.6271949.7297513.9782446Z" stroke-width="0"/>
      <path d="m72.0722163,81.1531637c-.0150097,3.0806801-.3303467,6.1149798-1.2103,9.0722279-.1922118.6459234-.4441748,1.2911183-.7778186,1.8741564-.5970318,1.043296-1.5544104,1.4644579-2.4831116,1.2011179-.8585027-.2434325-1.3976428-1.0358295-1.3988505-2.2180751-.0008626-.8602567.0853806-1.7227084.1693044-2.5806073.5735684-5.8626526.8602663-11.7358867.5609166-17.6238717-.1650104-3.2458439-.6139584-6.4521316-1.6810245-9.5455785-.1614066-.4679065-.2988322-.9498451-.3856697-1.4363172-.1213616-.6799875.0641409-1.2827796.7541827-1.5480462.6833517-.2626786,1.2774505.0088659,1.5974649.6293035.5741243,1.1130823,1.1336032,2.2419698,1.5858674,3.4082089,1.8036896,4.6510778,2.5312268,9.5345178,3.0027947,14.4644628.1367547,1.4297516.1800968,2.8684266.2662442,4.3030185Z" stroke-width="0"/>
    </g>
  </g>
</svg>