<?xml version="1.0" encoding="UTF-8"?>
<svg id="Layer_2" data-name="Layer 2" xmlns="http://www.w3.org/2000/svg" viewBox="0 0 439.3251427 646.4404072">
  <g id="Layer_1-2" data-name="Layer 1">
    <g>
      <path d="m405.6568951,481.4890297c-.1070322.0778806-.2501242.1267296-.3153593.2382915-.4849393.8292433-.9373878,1.6851084-1.4317603,2.5062999-1.9960783,3.3157257-4.3413289,6.2141785-7.2508728,8.4629922-2.36774,1.8300387-4.6920282,3.7373061-7.0447549,5.5943069-1.9243202,1.5188848-3.7113703,3.2318336-5.2612262,5.2548876-1.6750902,2.1864985-3.3296834,4.397861-4.9241085,6.6653305-1.5674119,2.2290537-2.6806545,4.7770867-3.463573,7.5155264-.594611,2.0797569-.833171,4.1973629-.5759216,6.4016103.2147821,1.8404026.3926529,3.6789056.8155386,5.478837.5298452,2.2551663,1.2851506,4.3874729,2.3379152,6.3717299,1.2198621,2.2992103,2.44586,4.5940119,3.6800469,6.8826756,1.587804,2.9444266,3.1152344,5.9252702,4.3322094,9.114438,1.3788546,3.6133866,2.3733526,7.3768925,3.2623523,11.1853775.6632622,2.8414829,1.1486287,5.7267683,1.4226063,8.6512632.3032976,3.2373502.389765,6.4963605.0762827,9.7351846-.1779146,1.8381626-.5216042,3.6648996-.9061307,5.4627609-1.0428088,4.8755654-2.1411901,9.7348573-3.2314124,14.5962897-.2850672,1.2711532-.60399,2.5328654-.9406197,3.786611-.1568434.5841617-.3930897,1.1389374-.5880946,1.6921538-.2696005.1728853-.4966007.3184543-.6615062.4242183-.527672-.0240421-.8077201-.3125438-.9878621-.7789492-.1526879-.6882533-.0275259-1.3668102.0828401-2.0549216.5369194-3.3477066,1.2455625-6.6481518,1.9905009-9.9374407.7279321-3.2142008,1.4587147-6.4287277,2.2563207-9.6196664.7154007-2.8620792.8972955-5.7695065.8037501-8.7275407-.1277991-4.0415879-.650916-8.0061459-1.6154838-11.8882022-.4795995-1.9302476-.945472-3.8668317-1.4821959-5.7755183-1.413543-5.0268629-3.412245-9.7186578-5.9379005-14.106018-1.3289113-2.3084953-2.6245407-4.643499-3.9275621-6.9724072-1.0557661-1.8869557-1.8669217-3.9139661-2.4532271-6.0624044-.7076864-2.5932258-1.0617132-5.2680887-1.265232-7.9703954-.1830884-2.4309576.1688993-4.7827867.8839797-7.0634259.8497781-2.7102019,2.0550455-5.1939628,3.5749896-7.4565275,1.8789847-2.7969843,3.846721-5.5065902,5.9761377-8.0498312,1.532294-1.8300676,3.2248733-3.4187531,5.0613055-4.8129779,2.6017215-1.9751966,5.160269-4.0290962,7.7697447-5.9898054,1.9096329-1.4348803,3.5564838-3.1946086,5.0203722-5.207683,2.2392694-3.0793618,4.0406873-6.4940615,5.5887684-10.1002453.0530602-.1235827.0428903-.2938599.0344959-.440152-.0035691-.0622025-.078648-.1187631-.1212301-.1778754-.0600837.0252609-.1293227.0357508-.1789224.0779656-1.8908693,1.610204-3.9926321,2.6794674-6.2342738,3.4164833-1.3952768.4587212-2.772255.993934-4.1584006,1.4911561-2.3451833.8412348-4.7535723,1.2951924-7.1929482,1.4584087-1.7831783.1193291-3.5569414-.0943831-5.2770343-.7215405-1.600451-.5835248-3.01004-1.5737189-4.2536968-2.8724019-1.1044843-1.1534116-1.8564685-2.5689295-2.2941321-4.2553145-.7298319-2.812182.5013677-5.3832078,2.1590224-6.6727317.3233189-.2515031.7428416-.3342883.9782847-.7769634.1491313-.3998366-.1016932-.7224164-.2138222-1.0637079-1.1830287-3.6010821.3432391-7.464326,2.4920231-9.3116874,1.5579421-1.3393937,3.2907662-2.2381534,5.2289639-2.5944699,1.2772473-.2347754,2.5045143-.0655181,3.7098107.3605724.9441146.3337789,1.8750819.7437659,2.7766506,1.2131201,1.8671283.9720212,3.7124974,2.001822,5.5636762,3.0157462,2.2320628,1.2225607,4.2124191,2.8782706,6.0001138,4.8561348,1.3916646,1.5396965,2.7690948,3.0970558,4.1572355,4.6411751.137868.1533232.3063818.2687126.4835226.4214122.1855111-.0986053.3786255-.1587097.5288679-.287594,1.9165026-1.6443955,3.8333675-3.2883941,5.7371516-4.9529473,2.44066-2.133935,5.032915-3.9659582,7.7894715-5.4801079,1.1978626-.6579734,2.4295355-1.1815622,3.7266154-1.5148296,2.0513748-.5270755,4.0489131-.3924063,6.0319587.4288434,2.6387523,1.0928827,4.2631027,3.271388,5.0228449,6.3736876.3655047,1.4924629.5342339,3.0260348.4957803,4.5890635-.0740701,3.0106681-1.014887,5.5644282-2.8806985,7.6373234-.4287643.4763279-.8827074.9214411-1.3445935,1.4012561.065392.2354282.0910855.4692404.1885183.6496673.2113012.3913314.4705714.7465435.6902867,1.1321479.8963473,1.573264,1.3826715,3.3332203,1.6457821,5.1802146.1198695.8414913.1197771,1.7011274-.0575301,2.5386494-.3896975,1.8408133-1.3034917,3.1929371-2.7864891,3.9746066-.6618413.3488608-1.3491573.6048149-2.0816628.6993656-3.5713239.4609314-6.9592409-.1577216-10.1285184-2.2345605-1.56347-1.0245557-3.0510034-2.1679595-4.3217549-3.648969-1.1220975-1.307727-2.1987019-2.6714192-3.2613951-4.0465937-1.063128-1.3757698-2.0826351-2.7979505-3.1263321-4.1945584-.0842493-.1127243-.207871-.1849348-.3132393-.2758855-.1375782-.0058971-.2037434.0925665-.1548232.2797126.2898583,1.1088147.6010591,2.2102014.8781868,3.3232687.6328793,2.5420236,1.0329246,5.1270274.8327825,7.7867646-.1101127,1.4632892-.2690128,2.9250758-.4741971,4.3742177-.3673333,2.5943309-.786081,5.1786255-1.1836675,7.7670877-.6900822,4.4926688-1.3607092,8.9895337-1.6683129,13.5460496-.2142196,3.1732053-.1946721,6.3448798.2518624,9.493661.2166906,1.5280151.5549467,3.0281612,1.036346,4.4718034.4800919,1.4397297.9596493,2.8856259,1.5344263,4.2746637.9788812,2.3656228,2.0306371,4.6897678,3.0546672,7.029591.7228723,1.6516974,1.4488608,3.3015237,2.1764617,4.9503435.9700792,2.1983225,1.9139877,4.4134004,2.9204771,6.58856,2.6602679,5.7491807,4.5253015,11.8494053,5.8760517,18.1774029.6898434,3.2317794,1.2084644,6.5008688,1.354025,9.8377457.0269435.6176446.063767,1.2378124.0445109,1.8546064-.1233425,3.9515444-.5417375,7.8614692-1.1753925,11.7453957-.4586607,2.8112883-.7812288,5.6476248-1.0647446,8.4929346-.4379047,4.3947298-.5038905,8.7999073-.4660117,13.214384.0078898.9195846.1117177,1.8629275-.2841348,2.7026041-.2966409.3828399-.614914.3098922-.8802385.0421293-.2443475-.2465845-.4891812-.5415361-.6246365-.8760659-.1954755-.4827498-.3595443-1.0100392-.4191174-1.5367049-.2081209-1.8399206-.412099-3.6781827-.4235575-5.545292-.0309637-5.0458432.3408819-10.047586,1.0605501-15.0180005.3422797-2.3639635.7065994-4.7239861,1.0162284-7.0938466.2196723-1.6813381.4030402-3.3720746.5332302-5.0659581.173174-2.2531955-.0922947-4.4860351-.4203171-6.6975263-.8396107-5.6605256-2.1951594-11.1458695-4.1016431-16.4455419-.7708291-2.1427399-1.6095626-4.2424427-2.6045081-6.2500609-1.0621524-2.1432362-1.9888191-4.3660398-2.933724-6.5797144-.885688-2.0749097-1.7879203-4.1401659-2.690832-6.204855-.9030687-2.0650435-1.8393377-4.110539-2.7184219-6.189432-.9985417-2.3613984-1.8381447-4.8020383-2.3320507-7.3826194-.2451654-1.2809488-.4891834-2.5742871-.5946267-3.8775341-.2370602-2.9299383-.2823044-5.8714863-.1892154-8.8156143.0686904-2.172579.3527072-4.3138015.6559889-6.4500341.4441004-3.1281268.9291704-6.2483153,1.4101248-9.3690708.2932355-1.902704.6135596-3.7996811.9177773-5.7000886.1703593-1.0642464.3314605-2.130534.4989058-3.1954325.2421078-1.5396105.231863-3.0838424.008958-4.6202779-.154723-1.066458-.3552017-2.1248075-.561327-3.1797549-.2931404-1.5002594-.6102262-2.9941114-.9217468-4.5134228q-.5421179.4899647-.6925057,1.5883176c.2414457.2898626.508585.6105712.7629032.9158852.2656987.9538188.1505194,1.8877632-.0205041,2.7868073-.4886752,2.5688431-1.0887942,5.1022473-1.9810939,7.527775-.7629648,2.0738881-1.6448287,4.0564854-3.0766973,5.569672-1.0758361,2.5567936-2.4330488,4.8368795-3.9359563,7.0037023-.207995.2998419-.3923225.6222231-.5976301.924815-1.6635978,2.4518939-2.8602655,5.1876967-3.6383045,8.182913-.2305878.8877036-.4870111,1.7664481-.7432955,2.6446257-.6465962,2.2157291-.9733522,4.4965811-.9965859,6.834731-.0315378,3.1734181-.0322941,6.347304-.0706682,9.5205945-.023626,1.9541757.221207,3.8623518.6915303,5.7238762.4681311,1.852778.9902887,3.6878224,1.524446,5.5162893.6198288,2.1217457,1.2723899,4.2304358,1.9219979,6.3400472.7186838,2.3339543,1.2911353,4.7181894,1.6503257,7.1603742.5282262,3.5915132,1.3555601,7.0931675,2.2160672,10.5849415.4390647,1.7816591.9352659,3.5465626,1.4655401,5.2940019.8415625,2.7732559,1.564069,5.5802213,2.0882733,8.462629.5638997,3.1005984,1.2559324,6.1677709,1.7041096,9.2993004.3825015,2.672609.6833051,5.357338.9065206,8.0519474.159717,1.9281353.1262985,3.8630464-.0919366,5.7927974-.2081678,1.8407567-.3287828,3.6957883-.5585194,5.5323916-.2871089,2.2952119-.6176334,4.5842999-.9824844,6.864358-.3812776,2.3827744-1.1923807,4.5858872-2.2507573,6.6551823-1.3583664,2.6558382-2.85602,5.2040837-4.4360055,7.6858172-1.1989562,1.8832404-2.657071,3.4330992-4.3444566,4.6897074-1.1690257.8705931-2.3350983,1.7475652-3.5202244,2.587213-1.2446783.8818201-2.4276063,1.8616928-3.5685258,2.9166323-1.0878473,1.0058708-2.1923385,1.9870477-3.2769006,2.997724-2.6873993,2.5043004-5.7531036,4.0240351-9.0803277,4.9060313-5.3151845,1.4089725-10.6953561,1.7909164-16.120344,1.442208-2.3167988-.1489301-4.5633317-.7718918-6.7558382-1.6457897-2.8739778-1.145531-5.6493842-2.5772599-8.4016848-4.0703975-.8971902-.4867335-1.7773259-1.0170144-2.6633436-1.5319361-1.9541163-1.1356855-3.8191791-2.4340216-5.5511627-4.0026507-1.1475013-1.0392556-2.3365642-2.0214828-3.5480566-2.9559808-2.987731-2.3046122-6.1587872-4.1665775-9.5804326-5.4379313-2.2976483-.8536978-4.6417864-1.1044795-7.0281867-.9995531-1.0542812.0463394-2.1066179.1519044-3.1606938.2079399-2.516182.1337452-4.9827221.6083142-7.3761403,1.5308743-2.6912819,1.037368-5.3774064,2.0948087-8.0511505,3.1925647-1.9305523.7926269-3.7893232,1.7899494-5.5938021,2.9244915-2.4403669,1.5343501-4.8882465,3.052214-7.3276954,4.5885558-3.5513441,2.2365939-7.2334359,4.103368-11.0764471,5.5435985-2.0150402.7551679-4.0732845,1.2587899-6.1407808,1.7496964-1.9506747.4631579-3.9240686.5823097-5.8992259.6733654-2.1859362.100773-4.3503971-.2108431-6.4742987-.7929294-2.0518423-.5623326-4.0797937-1.2307907-6.0657849-2.0837087-2.2986991-.9872318-4.5103133-2.1566979-6.6027868-3.6557179-2.1939797-1.5717267-4.3882493-3.1511012-6.7031574-4.4720689-2.5513292-1.4559053-5.026734-3.0720372-7.4774024-4.7446588-2.6448154-1.8051209-5.4643561-3.0658427-8.4804115-3.6992522-2.280147-.4788669-4.5757543-.6831526-6.8916776-.5061717-.9872103.0754561-1.9742515.1693971-2.9626696.2041835-2.0695011.0728897-4.0460476.6262326-5.9535546,1.5378495-2.2027738,1.0527346-4.3098149,2.3280402-6.3169442,3.8280573-2.2815007,1.7050243-4.6125224,3.3040718-7.0500267,4.6897342-4.5416223,2.5818044-9.3149792,4.2841055-14.2801879,5.2825461-.9739725.1958423-1.945795.4082062-2.9149603.6344197-2.6856895.6268642-5.3756785.5460689-8.0652084.0644376-.780405-.1397647-1.549408-.3655964-2.3251508-.5429973-2.09588-.4792708-4.0272046-1.4603289-5.8594626-2.7101916-2.4002534-1.6372889-4.6854244-3.4687408-6.6840972-5.7526419-1.6664223-1.9042361-3.5593375-3.4303102-5.5955019-4.7406744-1.735873-1.1171224-3.4637985-2.2360877-5.3597095-2.9520127-1.8846782-.7117149-3.8007843-1.2541874-5.7472553-1.6826031-3.7414315-.8234763-7.4820664-.586902-11.2323398-.1383319-2.101847.2513745-4.1726769.7230802-6.2486763,1.1493673-2.4068491.4942163-4.732846,1.3638165-7.027101,2.3420016-3.5967341,1.5335273-7.1115773,3.2813753-10.4925444,5.4000993-1.2764624.7999419-2.6208292,1.4519757-3.9414016,2.1529152-.4193839.2226274-.8503388.4872854-1.2958843.5565045-1.3333753.2071188-2.5266179.8586423-3.7210201,1.5033261-1.4554633.7856103-2.9926484,1.1684849-4.5633387,1.4422359-2.2159148.3861985-4.4276505.8052843-6.6411738,1.2101662-.3904924.0714164-.7790765.1720983-1.1719605.2081466-2.0381458.1870032-4.0765574.3724967-6.116515.5294831-2.1193847.163096-4.2110857-.0439751-6.2776152-.6563334-2.1714903-.6434666-4.3593104-1.2110514-6.5321293-1.8487131-2.1117992-.6197721-4.1678688-1.4322046-6.1769295-2.4315706-2.8574908-1.4214021-5.5975801-3.1120694-8.3216293-4.841677-1.5170379-.9632463-2.8900536-2.1538973-3.9988437-3.7377364-.4593145-.6561457-.9914371-1.2417679-1.486745-1.8635521-3.002623-3.7696451-5.3929711-8.0070417-7.0427241-12.7988877-1.1228002-3.2612223-1.7042013-6.6555531-1.7528513-10.1787964-.0386012-2.7916837.0149795-5.5797667.4155947-8.3333887.8331173-5.7267388,1.865672-11.3947905,3.7979655-16.7837669,1.1041539-3.0791923,2.4632572-5.9887311,4.0570182-8.7531258,1.9611357-3.4016581,4.0734438-6.6654727,6.377604-9.7587265,1.2588043-1.6898995,2.5136952-3.3848314,3.7352982-5.11163,2.4141214-3.4123888,4.448307-7.0980548,5.8712327-11.2333708,1.7356098-5.0439143,2.430116-10.2427685,2.0122322-15.6771648-.3301473-4.2929637-1.2720138-8.3495074-2.8328706-12.2463917-1.3209814-3.2979514-2.8699535-6.4444509-4.3991171-9.6062318-.8136439-1.6822459-1.6737653-3.333589-2.5158175-4.996868-1.4856334-2.9345178-3.263949-5.6274837-4.9988309-8.3571643-1.2616049-1.9849517-2.5161561-3.9769061-3.7384823-5.9951987-1.1855115-1.9575644-2.2607236-3.9972054-3.1009879-6.1963783-.1346974-.352632-.287319-.6970705-.4479607-1.0346198-1.5553011-3.2682395-2.5297793-6.8018457-3.3707194-10.3836488-1.0555476-4.4961287-1.0482987-9.0256261-.0585984-13.5422798.4590741-2.0951801.8598822-4.219817,1.8406917-6.0331861-.067107-.5998259-.3424445-.8665539-.7691477-.9453137-.354958.0919994-.5409644.4196822-.7338796.725166-1.1030905,1.747169-2.0227836,3.62722-2.8214036,5.5826853-1.808611,4.428311-2.9937387,9.0793776-3.5305984,13.9549008-.1352295,1.2278043-.2856294,2.4490879-.3165021,3.6926839-.0950822,3.8332208.4500837,7.5506274,1.3677454,11.2114169.7089485,2.8281437,1.612793,5.5642029,2.7440966,8.1965252.7719012,1.7960758,1.5323038,3.5990977,2.3171529,5.3873486,1.5249602,3.474551,2.5257691,7.1515007,2.9396677,11.0198206.4039944,3.7760651.4028816,7.5570631-.1497277,11.3337656-.3696946,2.5264299-.9049106,4.9903453-1.6227026,7.4054682-1.0316841,3.4714592-2.5140347,6.6463224-4.5852763,9.4144734-1.1310155,1.5116274-2.3094746,2.975242-3.4862428,4.4387291-1.0886446,1.3539098-2.0856872,2.7922211-3.0224348,4.292735-2.2307725,3.5731259-3.5506457,7.5578972-4.0451827,11.9486437-.2424371,2.152166-.4174289,4.3034816-.4637623,6.4727577-.0330953,1.5473789-.1270653,3.0931417-.1508844,4.6405489-.0238191,1.5470954-.001499,3.0954098.0140572,4.6430155.013962,1.3929784.0605354,2.7856449.0658493,4.1785808.0044927,1.1625117-.0767708,2.317496-.3898416,3.4417759-.1528151.1513527-.3011854.2982684-.4258821.4217519-.3964591.0516698-.6719416-.1330525-.8875638-.4505007-.3402705-.5009655-.4832777-1.0878066-.5367603-1.717543-.1762944-2.0790628-.3923024-4.1526963-.4312421-6.24653-.0359443-1.9342732-.1302511-3.8670014-.1919464-5.8007076-.1014083-3.1779118.0389432-6.3505927.2949568-9.5090129.4406681-5.4357992,2.0187281-10.3884796,4.8500838-14.7490165.8384782-1.2913814,1.7308258-2.5375569,2.6407111-3.7612074.9538021-1.2826634,1.9510862-2.5213257,2.9420896-3.7652472,2.4299197-3.0499899,4.1267817-6.5932906,5.2119005-10.5584714.7073564-2.5850457,1.2532014-5.2170127,1.546561-7.9065469.294036-2.6956864.2465451-5.4010975-.0273903-8.1054314-.3631697-3.5848081-1.3447018-6.9221107-2.7758859-10.1004485-.8007926-1.7782997-1.5585862-3.5832494-2.3329997-5.377851-1.194594-2.7681245-2.1208558-5.661958-2.945563-8.6056612-1.1902935-4.2485946-1.5616279-8.609743-1.3582269-13.0565115.1277899-2.7942352.5413531-5.5277987,1.1963862-8.217758.7996835-3.2841715,1.7942145-6.4739902,3.2388324-9.4506361.4563197-.9403232.9517732-1.8544783,1.4285294-2.7791233-.0804416-.1002498-.1554239-.1936953-.2705545-.3371807-1.2237284.7107916-2.5093461,1.2962711-3.8743425,1.6044476-.3879077.0875199-.7751873.1928726-1.167105.2385461-2.9558574.3445218-5.9170293.551427-8.8897962.4428403-1.7242058-.062969-3.4156067-.3821475-5.0543943-.9977942-2.7173823-1.020814-4.96627-2.8309529-6.6018197-5.6169389-.4132719-.7039316-.7385651-1.4541323-.9669902-2.2745588-.4786877-1.7197543-.3182384-3.3562975.3712416-4.9449837.6133382-1.4134759,1.4803212-2.5639378,2.6559779-3.3534324.5686963-.3818617,1.1884597-.6580018,1.7767711-1.0016744.1025209-.059906.1634924-.2176802.2461565-.3338066.0231423-.4403221-.2691049-.6767711-.4727938-.9622676-.8129678-1.139576-1.4356776-2.3981985-1.8513166-3.8081028-.2431606-.8248776-.3293029-1.6613508-.2532091-2.5136155.0404868-.4535054.1361473-.9209595.2952433-1.3354537.6601539-1.7202356,1.7819414-2.8769063,3.321349-3.386773.8841822-.2928671,1.8042611-.421099,2.7420227-.29916,1.1829033.1537491,2.3594775.3567726,3.492618.772118,1.6971501.6220541,3.3885509,1.2744157,5.0560848,1.997315,3.0770265,1.3339813,5.727736,3.4666151,8.0950876,6.1111575,1.8729616,2.0922045,3.4652228,4.4590467,4.9414353,6.9364018.7175489,1.2041599,1.3766871,2.4564035,2.0557303,3.6918631.1781311.3240824.3154857.6836321.7610311.9041195.6002931-.0972158,1.3172628-.1795472,2.0228789-.3335221,2.9148879-.636057,5.8308386-1.2676061,8.7376582-1.9518034,2.3354178-.549728,4.6979877-.8656438,7.0673213-.9334017,2.7250887-.0779358,5.3860171.5021024,7.8935262,1.8204903,2.4418996,1.2839411,4.2317382,3.3740193,5.4011127,6.1976554,1.0011476,2.4174204.9660229,4.7716737-.3066234,7.0529788-.1418239.2541966-.2761592.5141201-.4317765.8046345.2131098.5864159.4247702,1.1493002.6231445,1.7185636.5034967,1.4446912.8079907,2.944979.8613038,4.5067603.0399788,1.1705351-.071867,2.3121802-.4760567,3.4060251-.4098665,1.1091829-1.0433995,1.984355-1.949661,2.5342822-1.7379272,1.0545494-3.581443,1.5505238-5.5436159,1.2120096-1.1770815-.2030518-2.3177106-.5644449-3.4217905-1.1040818-1.0986205-.5369436-2.1593876-1.154206-3.1759478-1.8747801-2.6553476-1.8822078-5.2465835-3.8753821-7.6308932-6.2152628-1.874701-1.8397089-3.8649193-3.4942281-5.8770235-5.1156614-.2256231-.1818162-.4486857-.3122034-.7280817-.2217633-.0475404.1376733-.1352774.2752048-.1366786.4138988-.0335792,3.3659651.4102256,6.627995,1.5639464,9.7319676.5302864,1.4265181,1.2352738,2.7297371,2.0138908,3.9849292,1.8303006,2.950423,3.9164687,5.6402704,6.1169461,8.2064501,1.7307273,2.0184063,3.4931481,4.0016572,5.286731,5.9429767,3.1544961,3.4141923,6.1527468,7.0075072,9.0630431,10.7045023,3.5750631,4.5413786,6.2586243,9.7517027,8.343535,15.4037662,1.5780562,4.2780801,2.6750808,8.7340635,3.4179928,13.3051809.4708846,2.8972779.6814328,5.834545.4503731,8.782075-.2177251,2.7773379-.6463621,5.5158487-1.3303349,8.1944533-.8892564,3.4825021-1.7422054,6.9780174-2.6553286,10.4517874-.8390346,3.1919876-1.4184093,6.442067-1.6822981,9.7635773-.1038259,1.306975-.1389985,2.630252-.1014838,3.9420184.0731211,2.5564257.3353889,5.0913045.9166696,7.5663059.3339894,1.421996.7566096,2.8020181,1.4700036,4.0374494.1446258.2504402.2401411.5399625.3626394.821433-.1300112.2178787-.2374118.3978945-.3506342.5876772-.7995855.173608-1.4323691-.1761892-1.985339-.7796585-.5407224-.5900875-.8916942-1.3415215-1.208267-2.1080808-.781129-1.8915343-1.2818474-3.8920078-1.629944-5.9488008-.5441033-3.2151513-.5969325-6.46353-.3761393-9.7125605.1467285-2.1593248.482821-4.297627,1.0120218-6.3787874.8857296-3.4831684,1.7906878-6.9597876,2.7124108-10.4300703.7454999-2.8068511,1.4849847-5.6090668,1.9242265-8.5153882.4544605-3.0069397.5026543-6.0241145.1060032-9.0149229-.9103167-6.8639055-2.7607867-13.3644345-5.7313045-19.4044276-1.6241475-3.3023744-3.5353488-6.345931-5.794865-9.0841173-2.891116-3.5035834-5.8064611-6.978447-8.9295294-10.2030833-.8913321-.9202797-1.7677353-1.8606037-2.645443-2.7988297-2.9317959-3.1339124-5.661932-6.4895876-8.0684653-10.1948043-.5589365-.8606286-1.0993689-1.7445052-1.5814388-2.6659471-2.1087781-4.0305463-2.933678-8.4091592-2.4913675-13.1107763.1082706-1.1512278.2491528-2.2982029.3786329-3.4799366-.1476935-.6888486-.5548298-.9678244-1.1659933-.8912199-.0865775.1131495-.215091.2101104-.2520507.3423403-.1434908.5127877-.293987,1.0289774-.3770861,1.5578969-.478738,3.0473827-.8181403,6.1138458-.8750547,9.2176759-.025655,1.3983651.0644488,2.7726601.3211852,4.1479475.4104207,2.198152.9043269,4.357945,1.6758415,6.423357.1586125.4246724.3030208.8590125.424287,1.3001285.3676155,1.3372685.9272765,2.5565395,1.5814867,3.727727.8312301,1.4882672,1.6262251,3.0044885,2.4562474,4.4937196.5770056,1.0352719,1.1873956,2.044886,1.7816007,3.0669746.2600704.4473534.5555062.8735568.7684228,1.3502536.8297322,1.8574845,1.8814159,3.5450889,2.8782156,5.2751917.5910164,1.025831,1.1634322,2.0671984,1.7755133,3.0754233,1.109418,1.8275175,2.2171934,3.6577283,3.372026,5.4455826,1.2388977,1.9180712,2.3762407,3.9041569,3.2559288,6.0824633.6225407,1.5415389,1.3383744,3.0191459,2.1426698,4.4395971.5861126,1.0351302,1.0254976,2.155172,1.4332858,3.3022041,1.4609931,4.1092488,2.2994448,8.3976199,2.6110156,12.8165621.4252755,6.0317556-.2515966,11.8902424-2.2510699,17.5040011-.8660656,2.4315949-1.8852361,4.7683266-3.0403602,7.0304238-1.5972155,3.1278427-3.4195469,6.0649668-5.3464283,8.9177462-.5325581.7885026-1.0711553,1.5719162-1.6226522,2.3422032-2.2536728,3.1474896-4.2278531,6.5303651-6.1170504,9.9847706-2.7380629,5.0065327-4.5456598,10.4606177-5.6344512,16.253287-.3690663,1.9635172-.7529164,3.9281969-1.0150653,5.9132469-.404577,3.0636279-.5593259,6.1483776-.381051,9.2563613.332055,5.7903311,2.108582,10.9760601,4.7103006,15.8261257.8090542,1.5083398,1.7180688,2.9385579,2.7183955,4.278024,1.7051211,2.2832063,3.6090516,4.2872812,5.9338397,5.695769,1.7568652,1.0643325,3.4759009,2.2148385,5.2346986,3.2745214,1.8793877,1.1323613,3.8268973,2.0827505,5.8876051,2.6676932.8315929.2360524,1.6715924.4564974,2.5186215.5867999,1.5674531.2411135,3.1228037.5928391,4.7095581.6704655,1.3172868.064443,2.6307568.2740723,3.9477296.3018431,2.7693437.0583767,5.5409581.0991331,8.3094322.0279874,1.4446166-.037125,2.8850059-.3219685,4.3264581-.5040247,1.9096807-.2411682,3.741094-.8017975,5.53806-1.6252989,1.4055314-.6441238,2.8659225-1.1397865,4.3473057-1.5420038.8922747-.2422603,1.763509-.641331,2.60648-1.0717297,1.2076159-.6165807,2.390592-1.3033589,3.5669008-2.0001451,4.3058775-2.5505686,8.7667922-4.6367732,13.3893631-6.2545738,2.0272031-.7094729,4.101125-1.1425926,6.1830187-1.534348,3.1253407-.588115,6.2637742-1.013877,9.4300844-1.191226,3.3906773-.1898942,6.710382.2973368,9.9948419,1.2126848,1.1524175.321177,2.2917662.7130759,3.4264769,1.1140048,1.4550038.5140786,2.8497849,1.2082721,4.1869765,2.0581986.8694704.5526075,1.7416948,1.0992612,2.6078316,1.6589564,2.0290381,1.311158,3.9202383,2.8416974,5.6329206,4.6875018,2.0997926,2.262978,4.4624582,4.0927784,7.0004771,5.6155996,1.181043.7086242,2.4180329,1.2145658,3.7064765,1.5766111,2.0664813.5806616,4.154438.8199609,6.2779534.6983781,1.1925177-.0682689,2.3504915-.3798052,3.5186836-.6141412,1.2334875-.24742,2.4607184-.5443199,3.683263-.8591449,3.6113487-.9299874,7.1491646-2.134074,10.5380307-3.9002795,3.0170226-1.5724112,5.9456319-3.3377097,8.7430948-5.3976479,2.0728595-1.5263411,4.2619125-2.7746563,6.5413112-3.8163198,2.3583427-1.0777403,4.785725-1.7029816,7.3265467-1.6873444,1.5168209.0093001,3.0342698-.0535536,4.5506076-.0238407,5.1737044.101401,10.0269943,1.6322822,14.5520911,4.5798433,1.3255481.86345,2.6103197,1.8200478,3.9646142,2.6145195,4.1316093,2.4236736,8.1488849,5.0805214,12.067698,7.9465016.2235215.1634801.4533479.3183698.6902522.4529813,3.76194,2.1375888,7.6746178,3.7457335,11.844492,4.2855353,2.4264035.3141041,4.8744637.299533,7.2990437-.164383,1.4302435-.273666,2.8619606-.5497489,4.279232-.9012956,3.5659341-.8845334,6.9277689-2.4645213,10.235831-4.2208393,2.6474498-1.4055719,5.1586199-3.110029,7.677182-4.7975321,2.8085508-1.8817936,5.667915-3.6481269,8.7030429-4.9693326,2.0371195-.8867386,4.1190374-1.6321891,6.1831398-2.4329385.7505355-.2911378,1.5112771-.5461137,2.2608947-.8403134,2.770093-1.0872093,5.6180428-1.6851907,8.5319158-1.8186097,1.6467113-.075399,3.2985558-.1300024,4.9443491-.064652,1.9817762.078704,3.9259403.4740623,5.8079612,1.2681515,4.06321,1.7144689,7.8513599,4.0099524,11.2372527,7.1793891.9796247.916991,1.9801449,1.8045394,2.939176,2.7501792,1.066492,1.0516025,2.2182812,1.9450338,3.443096,2.7105162,3.7269128,2.3292781,7.5403548,4.4314846,11.5273384,6.0868767,2.7589317,1.1455167,5.5839623,1.7909825,8.5176015,1.8092423,2.7735772.0172533,5.5438811-.030609,8.283766-.5772181,3.1211072-.6226609,6.2070001-1.4316529,9.1789644-2.7489744,1.5513531-.6876427,3.0010007-1.6004718,4.3087039-2.8014978,1.1424595-1.0492622,2.2744954-2.114798,3.3949542-3.196253,1.2248942-1.1822575,2.5055479-2.2654419,3.870146-3.2167932,1.2469189-.8693314,2.4696147-1.7863921,3.7132663-2.6623151,1.6080188-1.1325719,2.9772008-2.5762414,4.0282035-4.392644,1.3330319-2.3038159,2.637873-4.631957,3.897982-6.991483,1.0617827-1.9881398,1.7195876-4.1857242,2.0410292-6.4954519.3822984-2.7470587.832-5.4854136.9715602-8.27361.0347496-.6942919.1361536-1.3836508.193236-2.0768228.2290788-2.7817606.1984493-5.5439166-.1056457-8.3323826-.6296953-5.7739869-1.8590012-11.3916031-3.0137356-17.0311348-.1996665-.9750963-.4633722-1.9412762-.7806756-2.8725275-1.545511-4.5359907-2.6099723-9.249658-3.7619773-13.9302111-.3288441-1.3360636-.6136082-2.6968777-.803636-4.0682668-.4576949-3.3030116-1.3048737-6.4664789-2.3129842-9.5830677-.7719734-2.3865883-1.5274538-4.7807606-2.2693763-7.1804471-.7892514-2.5527546-1.3789989-5.1601134-1.6086672-7.8773045-.1373601-1.6251179-.1324073-3.2445938-.0864607-4.8696124.041544-1.4690587.0825083-2.9381316.1196015-4.4073463.0292965-1.1603853.0513882-2.3210116.0783536-3.4814961.0452885-1.9490867.3570612-3.8477081.8661878-5.6946452.507037-1.839339,1.0449281-3.6689535,1.6261381-5.4776732.6779032-2.1096674,1.5900474-4.0801587,2.769944-5.8688621.6861764-1.040261,1.3619775-2.0912954,2.0782652-3.1024964,1.2249487-1.7292793,2.3484093-3.5393312,3.3628691-5.4480453.6275905-1.1808545,1.2669393-2.3606884,1.9844892-3.4663555,1.139869-1.7563547,1.8202542-3.7513133,2.3734124-5.8245778.0554155-.207729.0053871-.4542142.0042941-.6826963l.0826641-.0665685-.0410181.1159846Zm5.4713499-12.4631742c2.1279833,2.546674,3.8763296,5.1642258,5.7161632,7.689778.8556435,1.1745614,1.7491828,2.316037,2.6784287,3.4106765,1.5477557,1.82318,3.3327179,3.256248,5.3274598,4.3460967,2.3597036,1.2892711,4.829864,1.408631,7.3514028,1.0729545.3213108-.0427817.6310234-.2114994.9445542-.327654.5949016-.2204017,1.0439802-.6403107,1.355692-1.4774074.3184248-1.9040932.0057615-3.833958-.863944-5.6511272-.2577861-.5386442-.5657017-1.0439474-.8324213-1.577063-.3951936-.7899774-.4736722-1.5957746.0247677-2.5099297.4736202-.4775186,1.0443593-1.0042264,1.5675596-1.5894228,1.7123623-1.9153195,2.5688588-4.2567009,2.4931122-7.0514182-.0317474-1.1713856-.2278145-2.3133428-.5540965-3.4053169-.6222354-2.0824226-1.7945077-3.5489446-3.6174053-4.2874655-.9553535-.3871075-1.9175978-.5255469-2.9122603-.5030933-1.5419076.0347577-2.9872249.5482817-4.388079,1.2513617-2.245513,1.126958-4.4134923,2.4406652-6.4405992,4.0370905-2.4068285,1.8954449-4.7661802,3.8740155-7.1414662,5.824405-.2078893.170674-.3813734.3990709-.7088685.7475351Zm-380.1654745-27.9976011c-.103632-.2320544-.1983743-.5197055-.3461646-.7629871-1.0311505-1.6978108-2.0563585-3.4011218-3.116497-5.0739268-1.0617328-1.6753851-2.2213968-3.2565876-3.5210246-4.6877274-1.3948532-1.5361243-2.8576351-2.9711766-4.5495188-4.0475017-3.0361532-1.9315391-6.2870111-3.1292364-9.6725668-3.8452473-.8469324-.1791799-1.6948312-.1236972-2.5428268.1344965-1.1606794.3533684-2.0138929,1.085537-2.4351856,2.3135964-.1632511.9745433-.0093252,1.7850468.2754815,2.5899085.4354474,1.2303846,1.0558383,2.3115571,1.8320881,3.2720104.3618666.447807.7555234.8602035,1.1310626,1.2930695.2893.3334951.4841475.7274064.5319775,1.2169462-.0334813.3904524-.1528153.7526103-.4203263,1.0020154-.2021913.1885069-.4311482.3676862-.6733913.4603377-.4988351.1907464-1.0245324.2861478-1.5212901.4828764-1.1551234.4575873-2.1125971,1.250796-2.7718812,2.4723628-.6943596,1.2864626-.7279379,2.6178055-.0800085,3.9439322.1949924.3990429.4331769.7754333.6862419,1.1279236,1.0399436,1.4482638,2.3317931,2.4979101,3.8365595,3.1579264,1.3605029.5967647,2.7638114,1.0252935,4.2309903,1.0184051,2.1054945-.0099217,4.2109891-.0469471,6.316387-.0785575,1.120096-.01684,2.2298048-.1653428,3.3417359-.3253845,1.5891702-.2287647,3.0936472-.7627866,4.4915452-1.6503761,1.4977133-.950926,3.0119982-1.900973,3.9417404-3.4413486.3913863-.3271157.7875072-.1304433,1.0348716-.5727499Zm2.400736,2.8795737c.1300594.2326782.2112257.4433558.3407053.5983518.5987467.7165196,1.2005371,1.4305727,1.8246966,2.1161045.1850399.203278.4465116.3107859.6860006.4708851.2076504.6587964.5942534,1.1875177,1.0569015,1.6267344.8690114.8249914,1.7343509,1.6609263,2.6479555,2.4143027,1.670046,1.3770743,3.3226992,2.7795229,4.9080519,4.2880616,2.1539036,2.0495362,4.490625,3.7796397,6.8803461,5.4121586,1.3668318.9337468,2.8071965,1.6810563,4.3409027,2.1833266,1.2923812.4231988,2.5919128.5359521,3.9067358.2867177.5133774-.0973576,1.019073-.3020245,1.5062405-.5242974.5082321-.231884.8605572-.6842552,1.0788853-1.2838824.2373153-.6517367.3503204-1.324907.3262849-2.0311065-.0530474-1.5594849-.3333848-3.0596875-.8695654-4.4891258-.210356-.5607864-.4434434-1.1098638-.676579-1.6901841.1066759-.3083757.1720198-.6118466.3076837-.863038.2103805-.389545.5065172-.7181067.699988-1.1168659.6913642-1.4252983.8177283-2.9006084.2492261-4.4400777-.9364802-2.535985-2.4794861-4.3573221-4.6640933-5.3673341-2.5490103-1.1785032-5.2019429-1.6723539-7.9350276-1.28247-1.8919981.2699305-3.777184.596705-5.6437693,1.0838055-2.5021472.6530112-4.9948249,1.373158-7.5397776,1.7809315-.9771853.1565546-1.9564964.2966372-2.9306379.4754759-.1691449.0310728-.3175152.2179637-.5011542.351526Zm374.3191809,23.8561145c-1.7560465-1.8985659-3.3819702-3.6998022-5.0504941-5.4449315-1.0849114-1.1347281-2.3049794-2.0638252-3.6230027-2.7877733-2.0255355-1.1125297-4.0582214-2.2085023-6.1055281-3.2643864-.7799157-.4022186-1.6042375-.6898134-2.4160582-1.0018753-1.5013241-.5771174-2.9950633-.4865363-4.4353985.2408407-.7821506.3949881-1.542687.8744912-2.261378,1.4110651-1.098609.8202273-1.7991708,2.0451395-2.1611469,3.4917864-.3841338,1.5351877-.3288399,3.0585248.3998392,4.4752335.2366566.4601397.4880185.9098462.6507075,1.2120699.1596087.8621877.022918,1.4060766-.5465633,1.773224-.486956.1077625-1.0142718.1684621-1.5111502.3463088-.9700833.347273-1.6264202,1.4510123-1.6242044,2.6324909.0014793.7881344.1611726,1.5256053.5118485,2.206544.4511253.8759666,1.0528915,1.5778853,1.7644559,2.157157,1.5548127,1.2657959,3.2746217,1.9298381,5.1693373,2.0266585,2.1865944.1117332,4.3387235-.1665323,6.4706758-.6972084,2.6435905-.6580009,5.2021315-1.6671596,7.7601532-2.6687769,1.1934358-.4672551,2.2901727-1.1754952,3.2670805-2.1189084,1.118025-1.0796689,2.2374512-2.1574949,3.3444608-3.2525585.1388223-.1373047.2059236-.3745189.3963658-.7369603Z" stroke-width="0"/>
      <path d="m425.7809347,268.3562346c-.2390666.4530517-.4714175.6083026-.7305007.6731699-.7887996.1972103-1.563706.1603534-2.3325369-.1766292-.7482645-.3280235-1.4383295-.7669002-2.0835205-1.3130009-1.0766016-.9111507-2.0201633-1.9883826-2.8696439-3.18038-1.1874652-1.6661993-2.2377931-3.4444992-3.1566211-5.3312705-1.4595351-2.996947-2.3216186-6.2100431-2.6895895-9.6365098-.2568779-2.3920456-.398296-4.7800086-.2071222-7.1776108.2214241-2.7769976.6119751-5.5251337,1.3235197-8.1947368.5114154-1.9186372,1.034571-3.8338723,1.5921317-5.7345916,1.4165758-4.8289984,3.0379607-9.5673864,4.6482487-14.3101971.6104637-1.7979746,1.1408149-3.6270221,1.6134347-5.4809053.8003628-3.1395522,1.1675514-6.3395493,1.0945936-9.6200073-.0776018-3.489066-.3280657-6.9562449-.9047683-10.3795932-.6029518-3.5791096-1.5424783-7.0454384-2.8561765-10.3524906-.951246-2.3946543-2.2321249-4.5554684-3.6784437-6.5834856-1.8231927-2.5565401-3.8458228-4.8904101-5.8223742-7.2767865-2.0685519-2.4973429-4.1424545-4.9892425-6.1759974-7.5255966-1.0837397-1.3516713-2.0889642-2.7901539-3.1263653-4.1928006-1.2969885-1.7535777-2.5923404-3.5087998-3.8851014-5.2666869-.9480699-1.2891853-1.8837957-2.587613-2.6780238-4.0209922-1.2010441-2.1675616-2.034925-4.5003536-2.4531965-7.0436812-.1635824-.9947295-.2298136-1.9919538-.2336661-2.9996113-.0020531-.5371981-.0003619-1.0743395-.0003617-1.5736037-.375666-.6354635-.8961694-.9698943-1.3820805-1.3306349-.3143446-.0405424-.5071208.1385803-.6450615.4266848-.2894876.6047871-.5782264,1.2101413-.8643925,1.8091448q.3311756.2672951.8900158.227944c.6041399.2632694.8778768.8822891,1.0973217,1.5360107.0950865.2831716.1159094.6011584.1679609.9038923.32609,1.896864.7214492,3.7733152,1.2152226,5.6199978.6914592,2.5860246,1.4273304,5.1497653,2.5987825,7.5093777.2644548.5326054.4618568,1.112387.6763737,1.6776529.3768556.9930852.8199487,1.936556,1.3815484,2.806824.5997249.9294086,1.0690582,1.9485203,1.4351822,3.0354479,1.0702535,3.1772603,2.5019028,6.1377477,3.980114,9.0684664,1.2760081,2.5298329,2.5204857,5.0819499,3.899824,7.5391472.361015.6431183.6440522,1.3495164.9357859,2.0425894.8464667,2.0107226,1.6603158,4.0406107,2.5227017,6.0418073.8069283,1.8724256,1.424876,3.8236673,1.9102851,5.8380754.2704333,1.1222531.3468011,2.2785843.4858434,3.4274874.4011834,3.3148765.3542909,6.6412634.2690044,9.9671966-.0853982,3.3301292-.411442,6.6351391-.945363,9.9100399-.3343743,2.0509239-.6298776,4.1112038-.9969419,6.1539059-.313216,1.7430869-.7636539,3.4475027-1.4112252,5.0635194-1.5717366,3.9221576-3.2161184,7.79901-5.2254951,11.4483156-.860787,1.5633401-1.8079703,3.0475237-2.7960629,4.4997271-1.1111104,1.6329704-2.1937462,3.2888487-3.1928725,5.0226359-2.5649017,4.4510766-4.0384842,9.3616697-4.5729163,14.678082-.053942.536631-.0862156,1.0806901-.0796693,1.6204965.0537044,4.428624.4552407,8.8082573,1.5311826,13.0666046.9179818,3.6332038,1.914672,7.2388504,2.8692692,10.8593812.5280638,2.0027274,1.2497311,3.9069063,2.0577344,5.7728111,1.3468714,3.1103233,2.9667313,6.0278305,4.5437977,8.9770909,1.6120874,3.0147233,3.1984782,6.0483852,4.7944954,9.0749309.6612246,1.2538312,1.2113045,2.5718493,1.6494785,3.9544231.5309325,1.6752997.8961865,3.3969818,1.0567491,5.1757914.1666107,1.8458035.3524472,3.6847743.3795018,5.5496297.0556855,3.838239-.5070907,7.5453535-1.5015314,11.1806826-.8281067,3.0272531-1.9297845,5.9236087-3.0863039,8.7911311-.563817,1.3979679-1.1753797,2.7700794-1.7854024,4.1415956-.8558954,1.9242789-1.8566161,3.7418439-2.9446871,5.4980286-1.9793498,3.1946945-3.8150641,6.4954792-5.4125455,9.9802065-1.9895504,4.3399403-3.2713772,8.9477713-3.9027196,13.8056316-.2781709,2.1403719-.4933593,4.2940973-.6771501,6.448815-.2568651,3.0112634-.2556102,6.0368159-.0192929,9.0451027.1877204,2.3897775.6687148,4.7265101,1.3222058,7.0102261,1.3300819,4.6481195,3.2080008,8.9826469,5.4099632,13.134593.452931.8540511.8960242,1.7157854,1.3667043,2.5562279,1.3091813,2.3375836,2.3610639,4.8316089,3.2636704,7.4127573.850712,2.432815,1.6690299,4.8812514,2.494148,7.3262857.7765994,2.3012938,1.5216442,4.6175854,2.3197733,6.908446,1.1778411,3.3807368,1.9884406,6.88327,2.5747333,10.46048.1989809,1.2140826.3162489,2.4467918.4640962,3.6721581.2680112,2.2212865.5651493,4.4388023.78344,6.6668931.1353341,1.3813261.1588108,2.7787273.2081562,4.1700897.0135366.3817486-.046055.7704716-.0981067,1.1511144-.0723887.5293164-.4786284.9756771-.9321607,1.0607304-.5357948.1004196-1.1100166-.2300988-1.2906508-.818726-.2000984-.6520488-.3883842-1.3186135-.4978559-1.9975108-.2695967-1.6718974-.5166371-3.3501171-.7260686-5.0337802-.3331917-2.6787328-.5698111-5.3756386-.9549577-8.0434279-.4517343-3.1289212-1.1081419-6.2050242-2.1082385-9.1683465-1.0678982-3.1642188-2.0967713-6.3466956-3.1784086-9.5043653-.8112099-2.3681743-1.6724059-4.7129872-2.5233052-7.0621945-.9606368-2.6522248-2.3030637-5.0430236-3.7289881-7.3704292-1.2331061-2.0127075-2.3857946-4.085491-3.462903-6.2161109-2.4555648-4.8572384-3.9961778-10.0964234-4.5911298-15.6937682-.2779454-2.6149426-.2361171-5.2608162.0168526-7.880323.3340699-3.4592686.796291-6.8994569,1.3906308-10.3121727.8770761-5.0361891,2.2908225-9.8373467,4.4932898-14.3060012,1.5543556-3.153699,3.2499793-6.1982742,5.1040827-9.1133978,1.7042958-2.6796955,3.1356455-5.5376918,4.4104481-8.5170028.9472862-2.2138294,1.8176094-4.4675207,2.6164047-6.7598546.7754901-2.2255102,1.4000676-4.5086301,1.7808379-6.8716155.3558466-2.208358.5898169-4.4329897.398322-6.6916713-.149994-1.7691135-.1676759-3.5500778-.5041533-5.3009332-.40937-2.1301943-1.0126938-4.1642498-1.941124-6.0563795-.4933148-1.0053614-1.02307-1.986199-1.5414655-2.9744362-.7604148-1.4495961-1.5133954-2.9048341-2.2921935-4.3407649-.6369925-1.1745046-1.2788587-2.3479601-1.9681806-3.4803065-1.652399-2.7145127-3.0639922-5.5947663-4.3955726-8.5364568-1.0574448-2.3360242-1.8077134-4.8105153-2.4789414-7.3216645-.7692978-2.8780985-1.534326-5.7584084-2.2541752-8.6539145-1.0573775-4.2533576-1.6322559-8.5968149-1.7359284-13.0329803-.0639355-2.7362288.2523065-5.4046981.8361318-8.0360839.7858176-3.5417987,1.9643863-6.8885977,3.662794-9.9751893,1.1105369-2.0182062,2.3199469-3.949998,3.579627-5.8407373,1.3001123-1.951354,2.5889072-3.9111568,3.6913154-6.0304066,1.7215922-3.309602,3.1555028-6.7890844,4.4633459-10.3435274.7095665-1.9284466,1.1578364-3.9539112,1.4636848-6.0126033.4755131-3.2007909.894699-6.4191595,1.1178354-9.6552761.180548-2.6185713.1366443-5.258803.1833403-7.8896221.045476-2.5618123-.1780023-5.1039491-.4908118-7.6320237-.1893574-1.5302265-.539417-3.0241069-.9512089-4.4984251-1.6362671-5.8579211-4.0634174-11.2470843-7.0525423-16.2911006-1.2835089-2.1658038-2.4321994-4.4180787-3.5043737-6.7297776-1.1662161-2.5143531-2.3097189-5.0433355-3.4882549-7.5496936-1.6998665-3.6150595-2.9221858-7.4398041-3.71936-11.4559188-.2242156-1.1295677-.4252287-2.2655428-.64846-3.395394-.2987327-1.5120251-.4774612-3.0408341-.4532495-4.5856897-.0979915-.0150829-.1739521-.0487074-.1895271-.0257997-.160497.2359951-.3531041.458495-.4581797.727094-1.0845024,2.7718372-1.6819944,5.6959206-1.8964404,8.726321-.115705,1.6349556.1318034,3.2467768.4080764,4.8371646.3028151,1.7430305.7359433,3.4506222,1.2712421,5.118749,1.4868647,4.6334904,2.8934326,9.2991877,4.1868265,14.0133087.5246396,1.9121738,1.1916042,3.7705938,1.796142,5.6524886.978422,3.0457108,1.8118134,6.1428505,2.2818403,9.3561165.2786161,1.9047456.5469777,3.813347.5758441,5.757614.0477926,3.2189926-.4371295,6.3094974-1.5072225,9.2765609-2.1148396,5.8639294-4.5988351,11.4819971-7.932402,16.5410926-1.2908422,1.9590089-2.5649498,3.9331573-3.8485812,5.8987436-.4814003.7370736-.9818118,1.4575901-1.4503125,2.2057207-2.3345556,3.7283485-3.9610313,7.8409126-4.8173505,12.3619608-.3444264,1.8184443-.4912091,3.671874-.539958,5.5276853-.0996116,3.7916863-.0717001,7.5803108.1643391,11.3701261.1780455,2.8588194.4097852,5.70369.8268487,8.5276942.0212034.1435704-.0317782.3022235-.0558383.5000013-.132445.1096056-.2870779.2376394-.4097031.3391365-.5695416-.0112841-.9237807-.3738391-1.1511672-.8550722-.2531435-.5357807-.468065-1.1115365-.6137476-1.6991998-.3873272-1.5622635-.6332414-3.1646154-.7864302-4.7796119-.4677494-4.9312906-.5798765-9.8790246-.4784769-14.8379289.0608217-2.9743786.5759455-5.8290016,1.4666752-8.6038442,1.2180106-3.7943507,2.8792233-7.2920344,5.0150116-10.4832417,1.6292893-2.4344012,3.2209908-4.9034476,4.8491749-7.3389261,3.1976191-4.7831819,5.6097605-10.1012943,7.755448-15.6029523,1.3830548-3.5461644,1.7235324-7.2495083,1.3560086-11.1095213-.3917348-4.114323-1.3280453-8.043343-2.6554582-11.8546492-1.2473035-3.5812647-2.373866-7.2153759-3.5474796-10.8292443-.8446003-2.6006539-1.8069402-5.148915-2.7303577-7.7138465-.6679611-1.8554148-1.2549128-3.7377065-1.664766-5.6997782-.6400536-3.0640254-.6848206-6.1193751-.0518364-9.1881061.0613339-.2974038.0828636-.6073389.1070808-.9131913.0049642-.0627128-.0607539-.1332506-.094072-.2003862-.2894451.0458153-.4237563.3275693-.573884.5583477-.6402123.9841824-1.2718973,1.9763031-1.8942699,2.9761353-3.1910064,5.1267415-7.5298337,8.1007774-12.7740399,9.3538964-1.1681256.2790883-2.3635059.2934333-3.5483055.1431147-1.2050247-.1529836-2.295432-.6942082-3.2528024-1.5651002-1.9126572-1.7399695-2.3112046-4.7530761-1.6641979-6.6816362.3655994-1.0897623.8043935-2.1181727,1.3773778-3.0700347.3036977-.5045374.6385515-.9834453.9351412-1.4933126.0537546-.0924815-.0099585-.2789756-.0228762-.4737482-.5383492-.2256757-1.0984817-.4439234-1.6477678-.6947749-.7378832-.3371526-1.4570268-.7223321-2.1052766-1.2682628-.9526719-.8021687-1.5675914-1.8547916-1.7852061-3.2225659-.0862753-.5423014-.0997062-1.0737725.0010636-1.6113108.4464523-2.3817821,1.2859093-4.5526879,2.60923-6.4356589.8952766-1.2738746,2.0437208-2.170168,3.3315972-2.8378942,1.6390056-.8495704,3.3545273-1.3850665,5.1071596-1.7670125,1.230637-.2682014,2.4619625-.5409957,3.7275239-.4854834.7273993.0319805,1.4491339.0568166,2.1479376.3303491.9989563.3910767,2.0215076.7124662,2.9955583,1.1749879,1.831926.8700987,3.6440013,1.7997348,5.4497475,2.7430929,1.3227762.691089,2.6626794,1.3540537,4.0633062,2.5584692.1586065.1260494.1359956.8373237.683778,1.0376535.3504106-.301713.7209498-.620777,1.1026312-.9493669.1783126-.409561.3570056-.8199725.5285664-1.2139971.2568821-.4380822.6924327-.443979,1.2170914-.7604346.7414589-.8868244,1.6411741-1.9099044,2.4893149-2.9887796,1.6652524-2.1182289,3.5417365-3.9333835,5.5862119-5.5188369,1.1551296-.8957831,2.2969127-1.8161184,3.4660894-2.6858751,1.0622593-.7901467,2.203698-1.3751442,3.4268525-1.763101.8455497-.2683151,1.6929654-.3723634,2.5451458-.2358803,1.3724545.2198358,2.7351075.5344213,4.0000858,1.2340156.5333336.2950227,1.0654745.6254843,1.5368825,1.0365766,1.971524,1.7193299,2.5139426,4.3689178,1.7065836,7.0458921-.3364876,1.1156753-.9030825,2.0601094-1.6302406,2.8723135-.4276697.4777171-.8675657.9402946-1.2894076,1.3961246.0656366.1885921.0805714.3719675.1656058.4495931.2582316.2357118.5412509.4349074.8188924.6402834,1.9873346,1.4711437,3.2374621,3.5834772,3.9350842,6.1874198.3038722,1.1341039.3483592,2.2910588.188185,3.4441011-.188196,1.3547892-.8153819,2.4330975-1.7307989,3.2764878-.6827188.6290555-1.4534342,1.0791584-2.2847043,1.3456022-1.5988058.5125884-3.2053687.7956456-4.8807055.439327-3.2955721-.700843-6.3332293-2.0895421-9.0506654-4.4033966-1.333888-1.1358623-2.659895-2.284426-3.9931972-3.4211955-.2060381-.1756073-.4209719-.3572818-.7051086-.283739-.0289156.1387506-.097587.2859499-.0780624.4146643.045976.3032442.1371311.5967356.2046005.8958406.7579319,3.3598984,2.1793267,6.2882923,4.1586801,8.8605957,1.104919,1.4358743,2.1991547,2.8834861,3.2819945,4.3423815.5628136.7582242,1.1010418,1.5427016,1.6319807,2.3322821,2.0034374,2.9796531,4.1332324,5.8284373,6.3437166,8.599029,2.4790699,3.1072337,4.9286385,6.2471846,7.369242,9.3961513.6643833.8572833,1.2696009,1.7811351,1.8683807,2.7044198,1.6866109,2.6005977,3.0739449,5.4050969,4.0557246,8.4697463.9514119,2.9697863,1.8318182,5.9675836,2.3214211,9.0998218.1783421,1.1408515.3670595,2.2831772.4751812,3.4346319.1949464,2.0762135.3587307,4.1575869.4889312,6.240718.2638222,4.2212069-.2863052,8.3304828-1.2912089,12.3741539-.7021326,2.8252511-1.5825172,5.5759384-2.4871189,8.3169297-1.5719302,4.7631102-2.9804618,9.5904076-4.2361241,14.4821756-.8790381,3.4244814-1.4659015,6.9018096-1.6494212,10.4719031-.0158831.3089711-.0356887.6182257-.0382736.9274804-.0571605,6.8349017,1.66508,12.9465658,5.384977,18.247104,1.1435998,1.6295696,2.4316202,3.0470725,4.081716,3.9607184.355281.1967007.6890263.4562842,1.0105875.7235226.1507224.1251989.2488648.337606.4151893.5733744Zm-62.1038727-129.0218185c-.4634216.6038798-.8662342,1.1107986-1.2518351,1.6350683-.7363619,1.0012497-1.352635,2.0925996-1.7310254,3.3482163-.579344,1.9224363.2093279,3.8309245,1.8606649,4.4384912.754654.2776152,1.5312.4038917,2.337199.3102766,3.9978671-.4645034,7.4670421-2.3383441,10.5003832-5.3813308.7027175-.70498,1.3155361-1.5135552,1.8332319-2.41671.2938237-.5126458.5935779-1.0206987.880523-1.5386179,1.8300435-3.302911,3.6656008-6.600889,5.7922337-9.6594694.0975326-.1402816.1016393-.3700395.1752085-.6605823-.8931623-.0175782-1.5824241-.4880948-2.3011631-.8636349-2.2830576-1.1926786-4.5680356-2.3803107-6.8485084-3.5797369-1.0225029-.5378224-2.0690055-.9818024-3.150964-1.3330174-.7098615-.2303254-1.4177845-.2992758-2.1446705-.3121477-1.0648256-.0188258-2.0930056.2793713-3.125709.4954067-1.4237635.2979133-2.8289445.7164893-4.164319,1.397824-1.1022868.5623166-2.1044745,1.3046065-2.8307691,2.4462513-1.0357477,1.6281508-1.7741874,3.4183571-1.9778771,5.2952049.1330726.9922913.5248813,1.583697,1.078739,2.058693.8579356.7357135,1.8058125,1.2648037,2.7960301,1.6953453.4932668.2143919,1.0008284.3836487,1.4935879.5995715.3138493.1374467.5662199.3847258.7790399.8596081-.0000001.2589029-.0000003.6353499-.0000005,1.1652901Zm25.7879346-12.1772692c.9425925.9138157,1.8819723,1.4804995,2.7922132,2.0906741,1.7196759,1.1528165,3.3363478,2.4741524,4.8755311,3.9316306.3072847.2909967.6175708.5776272.9265404.8661857,2.0427166,1.9078086,4.364763,3.1408026,6.8791087,3.898064,1.4192882.4274232,2.8621443.5522826,4.3046594.2182498,1.1675821-.2703562,2.3042769-.6655709,3.1239643-1.9443219.0848807-.4457939.1842463-.9676823.2687314-1.4114348-.0927462-.5472912-.1460417-1.0092453-.250664-1.454699-.5800668-2.469728-1.8612085-4.2164448-3.9120543-5.1481223-.3058263-.1389776-.6438172-.1927884-.9342889-.3627822-.3453073-.2020874-.6553398-.4870736-.8800571-.6591087-.2695096-.5757559-.2859057-1.0183177-.0324478-1.6277545.2446346-.2372992.5880458-.5893639.948415-.9156291.5203951-.4711963,1.0745249-.8938553,1.5761713-1.3902841,1.0970057-1.0856793,1.8202718-2.4249318,1.9123184-4.0787693-.1213684-1.7422366-.9746507-2.7167804-2.2142978-3.3258778-.303006-.1489573-.6088806-.2921876-.9196922-.4164226-1.0647318-.4255518-2.1615347-.6568413-3.1508586-.7265291-1.6097637.1344404-2.9608037.7121232-4.2056632,1.6256541-1.9527526,1.4330942-3.8970322,2.8846733-5.71519,4.5492832-.6735483.6166377-1.3264367,1.2717763-1.9421359,1.9663231-1.0437011,1.1774238-2.0536795,2.3962403-3.0685859,3.6083659-.1301682.1554778-.2051868.3745189-.3817178.7073049Z" stroke-width="0"/>
      <path d="m389.458816,118.982085c.3360309.6850213.5648064,1.151455.8104553,1.6522503-.0220672.2896356-.0450524.5911787-.061014.8006939-.3456579.6705618-.7974359.929748-1.365667.9364386-.563599.0066339-1.0229559-.2808473-1.4049571-.7362809-.6240931-.744162-.923913-1.695004-1.1078173-2.6815116-.1828534-.9808374-.3537614-1.9789123-.4008061-2.9778944-.1529465-3.2471171-.1411326-6.4866359.1636896-9.7350002.392318-4.1808344,1.3614426-8.1919016,2.3345712-12.2093762.3062949-1.2644623.6633792-2.5118572.9871454-3.7706492.9212459-3.581717,2.280917-6.9186498,4.0292446-10.0444794.8321493-1.4878126,1.6378893-2.9959813,2.4490766-4.4998407,2.1639674-4.0118604,3.8256696-8.2982738,5.0015211-12.8363893.6517055-2.5152593,1.1850313-5.0727053,1.8311988-7.5900626.6500749-2.5325535.5627496-5.0372667-.0153907-7.5544546-.4120877-1.7942328-.8753211-3.5713982-1.4688616-5.2929387-1.0385298-3.0122564-2.1331454-5.9966153-3.4136163-8.8822555-1.8743498-4.224213-4.2487546-8.0049572-7.2054077-11.2769115-2.4018836-2.6579809-4.9168204-5.1585561-7.5589964-7.4802355-3.7819412-3.3232137-7.9938352-5.6896322-12.4130357-7.5697146-1.919035-.8164583-3.8523948-1.5929414-5.8465209-2.13961-2.0593792-.5644164-4.1507359-.8904561-6.250469-1.1041685-3.2030462-.3259837-6.3219491.2691057-9.3257096,1.560897-5.4525095,2.3449227-10.8173063,4.9429647-15.7397709,8.6102433-3.9576473,2.9484067-8.2665441,4.7649208-12.8301362,5.8209428-2.3978387.5548879-4.8281075.8291557-7.2750444.8042053-2.0433515-.0208109-4.0824273-.0702566-6.1155121-.4220958-2.432805-.4209597-4.7488849-1.2611198-7.0131848-2.3490124-3.7265023-1.7904924-7.3160604-3.9054355-10.8297544-6.2091408-1.7830509-1.1690334-3.5933023-2.282612-5.4079381-3.3833758-2.7691014-1.6799222-5.7031689-2.8224763-8.7506884-3.5630675-1.8064711-.4389907-3.6119035-.9004922-5.433545-1.2330525-2.6744199-.4883222-5.3696629-.770418-8.0816226-.5784821-2.5745686.1821265-5.1078778.6614867-7.5676302,1.5997959-4.338706,1.6552526-8.5077117,3.7603818-12.43747,6.4945103-2.5515238,1.7752358-5.1575451,3.4455155-7.6131429,5.4058279-1.0357655.8268898-2.041311,1.7060592-3.0805067,2.5267118-3.0831156,2.434854-6.3622864,4.3872275-9.986873,5.4549875-1.5372334.4528808-3.0958454.7278296-4.6891463.7547623-2.7845624.0470614-5.5287589-.355697-8.2477357-.9935434-1.8873597-.4427331-3.6661592-1.2616295-5.286515-2.5057367-1.3240986-1.0167307-2.6319881-2.0628331-3.9631163-3.0666357-2.2183054-1.6728908-4.4371182-3.3456682-6.6783-4.9757488-3.2665593-2.3757738-6.7663996-4.1687042-10.4207703-5.5375011-4.0516994-1.5174707-8.2100991-2.2398611-12.4670342-2.120335-1.3845149.038897-2.7724116.0481954-4.1518295.174811-2.9650369.2719995-5.8934283.8140723-8.6931133,2.0519398-2.2193694.981233-4.4248971,2.0060133-6.6307388,3.0287524-.5505787.255217-1.0948525.5421873-1.6143417.8742927-2.6051274,1.6650064-5.200568,3.3462297-7.6211629,5.3774767-2.5747627,2.160585-5.2010757,4.2320339-7.9706859,6.042425-3.3170486,2.1682394-6.8571353,3.6198743-10.597722,4.2914548-2.4063901.4320138-4.8345452.6199241-7.2932583.295245-2.4383973-.3221275-4.8222005-.840275-7.1353453-1.7821024-1.742323-.7094609-3.4924244-1.4063338-5.1948164-2.2341324-2.679118-1.3027381-5.3680195-2.5631763-8.1080366-3.6838999-2.3009698-.9410903-4.562057-2.016962-6.8372757-3.0439564-2.6470139-1.1948902-5.3354807-2.2341892-8.092021-3.0247917-2.0520839-.5884582-4.1362963-.9491998-6.2285286-1.2739354-2.6234373-.4071811-5.2569723-.4531682-7.8965705-.4765878-2.396534-.0212081-4.7393195.400486-7.0285983,1.1510537-2.9813913.9776603-5.936621,2.0675912-8.8916574,3.1521354-1.3214662.4850312-2.5928315,1.1342724-3.8113421,1.916424-.9306598.5973588-1.8002515,1.2900342-2.5461129,2.1829824-.0461392.0552281-.0967716.1053529-.1422345.1614315-2.501037,3.0844932-5.071017,6.0867679-7.711921,9.0071644-1.0642463,1.1770268-1.8963472,2.578822-2.5046609,4.1431828-.6840207,1.7589633-1.3179406,3.5414014-1.8686166,5.3678406-.6002455,1.9911595-.9600357,4.03664-.9964165,6.1311115-.0594268,3.4199457-.4675308,6.7846064-.9998967,10.1328234-.2074096,1.3046643-.3104142,2.6086483-.2577049,3.9249368.1114577,2.7832351.249536,5.5651093.3896918,8.3465867.0587002,1.1654035.3100739,2.2907753.5983591,3.4023117.4797022,1.849631.9833678,3.6908702,1.4553882,5.5431662.2830673,1.1109694.5317838,2.2342998.7845103,3.3556457.6414065,2.8458348,1.4526343,5.624931,2.3712626,8.3620676.1690481.5037438.3471791,1.0036886.5326054,1.499494,1.8357592,4.9091774,3.0888597,10.0375091,4.0773963,15.2540128.8034004,4.2398055,1.8190413,8.3904184,3.2502252,12.40092.7647507,2.1430659,1.3742223,4.3489012,1.761356,6.6360476.2073603,1.225338.3093009,2.4575369.1897249,3.6930811-.1195277,1.2350339-.6147879,2.1900146-1.7280236,2.5965132-.1517521-.1145955-.3071277-.2319695-.4722142-.3566581.0240118-.2571452.0065225-.5003983.072422-.7067948.4387338-1.3733875.3073222-2.7522187.005751-4.1136423-.24833-1.1210057-.5393207-2.2337328-.8798325-3.3206037-.3863128-1.2328795-.7900184-2.46729-1.2889013-3.6409156-1.6292685-3.8327965-2.6785355-7.8939331-3.5955206-12.0191433-.5486934-2.4685373-1.1637209-4.9181927-1.7979289-7.3587758-.6353675-2.444779-1.4529245-4.8120461-2.3938738-7.117621-1.5424495-3.7792695-2.725158-7.7095938-3.6842723-11.7432864-.5843003-2.4572535-1.2424716-4.8913725-1.9072619-7.3208987-.6509727-2.3786641-1.0128868-4.7993445-.9815304-7.3021297.0203406-1.6252028.0223221-3.2513129.0029008-4.8765158-.0268613-2.2511402.0848884-4.4831148.4677241-6.6964343.4464162-2.5805806.7281805-5.185203.8516705-7.8198211.138274-2.9499399.615031-5.8351822,1.536029-8.5974368.5762337-1.7283441,1.1693771-3.4502241,1.8014126-5.1512377.7726275-2.079445,1.8806943-3.902425,3.2484934-5.5026213.7939332-.9288975,1.6234733-1.8160053,2.4132998-2.7494957,1.3475075-1.5925982,2.7221188-3.1585463,4.0026157-4.8233267,2.0854939-2.7116188,4.6239732-4.5684493,7.5268796-5.7924246.867804-.3658431,1.7335789-.7429699,2.6146691-1.0599356,2.5191536-.906329,5.0408919-1.803699,7.5706019-2.6684084,2.6082916-.8915863,5.2696794-1.3267186,7.9949131-1.3624396,5.1027805-.0668491,10.1405793.5148632,15.1011731,1.9122389,2.7566128.7764836,5.4446206,1.8264993,8.0951372,3.0127708,3.0160793,1.3500281,6.0531024,2.6354722,9.0682879,3.9881653,1.7842589.8005816,3.5531059,1.651288,5.3122177,2.525696,2.12552,1.0564795,4.281115,2.0095906,6.4815207,2.8287707,2.5965507.9667199,5.2607161,1.4805015,7.9758523,1.497457,4.8493046.0303385,9.3834379-1.4346209,13.6122799-4.2057191,2.3068651-1.5116834,4.4757474-3.280342,6.6058825-5.1020173,2.3501057-2.0098136,4.7950021-3.8279731,7.3311381-5.4885001,1.3255246-.8678288,2.6682005-1.6905791,4.0933471-2.3115258,2.2232103-.968645,4.446469-1.9373468,6.6755252-2.8872233,2.1772402-.9277627,4.4263221-1.4658667,6.7229443-1.8349977,3.7466983-.6021201,7.499508-.5877156,11.2530664-.3077739,2.305874.1719796,4.5567188.8153258,6.7790105,1.5551794,4.5244211,1.5061872,8.8144981,3.6621833,12.8792899,6.4371421,3.0787172,2.1017312,6.0857132,4.3372799,9.0443958,6.6635524.6572059.5167289,1.3297996,1.0064108,1.9900492,1.5178664,1.6280376,1.2612314,3.4466232,1.9194901,5.3470275,2.2885668,2.019086.3920979,4.0531492.5514894,6.1034216.5871564,2.6848437.0466109,5.2376232-.5890777,7.7143578-1.7336133,2.0907352-.9661502,4.1038068-2.1282638,5.9683393-3.6017868,3.6679727-2.8985088,7.5027228-5.4705254,11.3237762-8.0707797,4.0074462-2.7270974,8.2392592-4.8661912,12.6452415-6.5196293,2.3268061-.8732716,4.7161537-1.3896586,7.1676683-1.5961104,3.1762024-.2674632,6.3214478-.056642,9.466367.428335,2.4176226.3729328,4.826742.7947997,7.217768,1.367268,2.4669021.5906131,4.8261619,1.5394717,7.1232545,2.7326606,2.0509483,1.0651549,4.0623522,2.2240388,6.0211428,3.5027347,3.5198177,2.2978082,7.1763864,4.2473506,10.9067659,6.0183374,2.7081664,1.2857841,5.5029226,2.1115988,8.4213853,2.3800294,1.3145933.1209469,2.6239567.3268339,3.9455676.3057981,4.6439731-.0740506,9.1959699-.7867399,13.5797886-2.6848486,1.4271274-.6179414,2.7964239-1.3725923,4.1035049-2.2815869,4.8903241-3.4009477,10.039873-6.1572461,15.3289265-8.5817223,2.5929885-1.1885932,5.2433006-2.0717309,8.0068348-2.4625786,1.7747296-.2510203,3.5609455-.2509626,5.3319547-.0238119,1.5705271.2014644,3.1551496.3069317,4.7037846.7243186.8343589.224882,1.6885263.3602877,2.5114771.6297945,4.0074566,1.3125484,7.9037138,2.9846463,11.6287062,5.1684829,2.3049797,1.3513318,4.4661667,2.9888403,6.5333359,4.7931671,2.6492539,2.3124936,5.1471059,4.8383014,7.5628252,7.4755859,2.8702569,3.1336005,5.266427,6.719799,7.2229457,10.6991713,2.113549,4.29872,3.8596388,8.8023622,5.2623477,13.4858073.5475643,1.8282543.9487936,3.7016436,1.1972138,5.6203947.2100173,1.6221978.2312926,3.2373643-.0688062,4.8458965-.1549895.8307461-.3049121,1.6647242-.5026891,2.4820885-.6659761,2.752502-1.3286609,5.5065916-2.0374789,8.2441241-.7491234,2.8932372-1.7798349,5.6590073-2.9001374,8.3774876-.6609027,1.6037123-1.4172303,3.1466963-2.2533956,4.6343955-.7624633,1.3566034-1.5201194,2.7170625-2.29358,4.0649904-1.6687554,2.9082628-2.9613615,6.0259842-3.8432984,9.3784537-.952704,3.621352-1.9276441,7.23641-2.6294148,10.9393568-.761794,4.0196861-1.1354208,8.0935799-1.0178218,12.2122121.0418327,1.4648486.2358282,2.9238003.360645,4.388649Z" stroke-width="0"/>
      <path d="m35.0356805,439.9335328c-.68774-.3141881-.9997955-.8974571-1.0070422-1.6425544-.0082612-.8468497.0336268-1.7031119.1372592-2.5410875.3413831-2.7602987.8950066-5.4672404,1.5771434-8.1383745.2269764-.8890077.4659344-1.7744148.6714596-2.6702836.9573785-4.1729808,2.6568011-7.9001106,4.9043866-11.3002943.7276474-1.1008191,1.4464051-2.2100868,2.1911554-3.294774,1.4984386-2.1823026,2.7122151-4.5699813,3.7341395-7.0941427,1.0469024-2.5858252,2.0197889-5.2103498,2.8996722-7.881427.8145636-2.4727608,1.3146076-5.014727,1.3773677-7.6815521.0490872-2.0877806.1461495-4.1643058.0089406-6.2600249-.2650935-4.0478394-1.0495553-7.9454463-2.240477-11.7371617-1.4954885-4.7614392-3.598469-9.1177689-6.4171148-12.9834251-1.1576831-1.5877516-2.293432-3.1977873-3.4635317-4.7727241-2.4333474-3.2752144-4.5843032-6.7896842-6.551137-10.4675418-2.095637-3.9188143-3.4417893-8.1796567-4.1698691-12.7028322-.4684931-2.9102202-.4436588-5.8507476.0195222-8.7715706.3378076-2.1297969.7698262-4.2343045,1.2299632-6.3330285.5291768-2.4134503,1.2906923-4.7140628,2.3050314-6.8956286,2.1812518-4.6914097,4.4801464-9.2960364,7.3731498-13.4515802,1.0900458-1.5657782,1.9791566-3.2787841,2.7250184-5.1016226,2.0343311-4.9719164,3.6174158-10.1172571,4.5586582-15.5370376.6118414-3.5232004.7506953-7.0630715.505555-10.6247733-.1325709-1.9259522-.4445293-3.8336464-.8841314-5.7009685-.298914-1.2695092-.7179349-2.4911616-1.2410711-3.6597407-.1532497-.3424256-.3061129-.6859852-.4759824-1.0171271-2.0070303-3.9117831-4.0759501-7.7771838-6.2942063-11.5300303-.5277743-.8928923-1.1258929-1.7032826-1.8364849-2.4167121-.9556854-.9595745-1.7466706-2.1032614-2.4381787-3.3398834-1.0490747-1.8759413-2.0959752-3.753697-3.1636988-5.6149524-.5176285-.9025317-.9960267-1.8282546-1.3343161-2.8396546-.2693947-.8053437-.6466249-1.522572-1.1264725-2.1683554-1.6839599-2.266394-2.6963161-4.9312918-3.3754069-7.7960085-.318046-1.3412944-.659669-2.6755576-.9491618-4.0253006-.3219593-1.5010249-.5311071-3.0213852-.6245927-4.5748597-.1392863-2.313286-.2924386-4.6259483-.595652-6.9255691-.1906921-1.4459668-.2543684-2.9316252-.2298246-4.3960769.0336269-2.0080004.1237321-4.0178153.388345-6.0132277.1631546-1.2303843.3917254-2.4332112.7577959-3.5957793.616672-1.9582721,1.2377889-3.9155803,1.904272-5.8508313.2950015-.856659.6646471-1.6873483,1.0705759-2.4803871,1.5955004-3.1170409,3.1948176-6.2322105,4.9590764-9.2246762,1.0520716-1.7845926,1.9908002-3.6516304,2.8371055-5.5771285.87911-2.0001183,1.4867476-4.1326368,1.9860666-6.2997437.6010188-2.6085914,1.1482166-5.2343637,1.7099083-7.8123926.8405554-.655422.9323991-.647994,1.7270562.1057509.2711824.6681807.2105972,1.3677743.0865283,2.0482025-.1652802.9065004-.3662157,1.8060265-.5889405,2.6957997-1.2129079,4.8451587-2.8975471,9.4536982-4.9957481,13.8643463-1.7675444,3.7154207-3.4804464,7.4667907-5.2013685,11.2124905-1.258225,2.7386095-2.1923642,5.6270269-2.7643469,8.6668965-.1986648,1.0559678-.3543791,2.1269051-.4702349,3.1997702-.2737443,2.5339713-.5682151,5.0771851-.4288322,7.6345747.1388031,2.5470131.40926,5.0818353.887126,7.5812753.7084167,3.7048188,1.6588348,7.3241306,2.7394091,10.8986476.1759569.5821065.3725435,1.1604706.6075393,1.7123547,1.0017274,2.3527513,1.9892024,4.714972,3.1154816,6.9910618.2643703.534193.531591,1.0747367.8564979,1.5577843.9852529,1.4647358,1.7967228,3.0580724,2.5555795,4.6880954.6347882,1.3635219,1.3659131,2.6442016,2.1892199,3.8578593,1.3156675,1.9396749,2.5062035,3.9802232,3.6212741,6.0871698,1.0783042,2.0374863,2.2172416,4.0307448,3.3281572,6.0444161.3584363.6495257.7080795,1.3056855,1.0696561,1.9527163,1.4280924,2.5556893,2.3613113,5.3430641,2.8943993,8.3307682.7915153,4.4362225.9617212,8.9132136.4734166,13.3937766-.4272363,3.9197768-1.2545069,7.7513244-2.4014667,11.4729544-.7398712,2.4008623-1.576369,4.757525-2.5315243,7.0553873-.783981,1.8861466-1.7043989,3.6654093-2.8275876,5.3007612-.5792771.8434472-1.1470073,1.6982632-1.7063309,2.5601386-2.2023158,3.3936062-4.0474514,7.0590721-5.8982396,10.7191513-1.0525066,2.0814861-1.7253188,4.3450153-2.2067137,6.6854614-.3246179,1.5783949-.6522795,3.1627719-.8618633,4.7654921-.4148195,3.1720712-.2969846,6.3300805.4578131,9.4307074.2714238,1.1150803.5986977,2.2113071.8917176,3.3193279.6295216,2.3804786,1.571099,4.589943,2.6573265,6.7213568,1.9669303,3.8597587,4.163349,7.5276651,6.6223023,10.9796775,1.1419813,1.6031179,2.2755078,3.2158186,3.3770508,4.857239,3.4771075,5.181293,5.8609327,11.0005718,7.2751092,17.3725563.8515207,3.8368786,1.3274777,7.7309981,1.2443772,11.7080728-.0468407,2.242975.0097091,4.4939167-.4044578,6.7043727-.1979401,1.0565065-.368245,2.1264515-.6463369,3.1548335-1.0977287,4.059576-2.4009821,8.0261884-3.9882213,11.8616765-.8392515,2.0279592-1.8581803,3.920343-3.0182322,5.7112011-.7183712,1.1089559-1.4380952,2.2173731-2.1802849,3.3043284-2.1264155,3.1141487-3.7058277,6.5632669-4.7489139,10.3662081-1.0501399,3.828599-2.1475786,7.6387697-2.9506443,11.5542369-.123006.5999108-.2903636,1.1919117-.4847283,1.7654275-.1189959.351186-.2971755.6957094-.7852368.8485219Z" stroke-width="0"/>
      <path d="m10.4043223,139.2781343c-.4103731-.5666836-.7541705-1.0307925-1.0882086-1.5043141-1.6183504-2.2945184-2.1482981-4.907193-1.6727488-7.8231113.2860639-1.7540304.7128645-3.4535698,1.2990507-5.1028142.3068866-.8634066.678513-1.6799202,1.1517423-2.4266333,1.0345821-1.6327437,2.4280836-2.5784814,4.1374574-2.8816679.3906132-.0692333.7870724-.1355182,1.1805361-.1335334,2.7178175.0141204,5.3907036.3314851,7.9481687,1.5344837,1.5436103.7260745,2.9493343,1.7226192,4.2945699,2.8433987,3.1786772,2.6485121,6.1536654,5.5848452,8.9258824,8.8031022,1.9699747,2.2870339,3.8342881,4.6847507,5.5297464,7.3165914.197215-.0508619.41047-.038047.5470518-.151962.9783934-.8153226,2.0741881-1.3456024,3.1830756-1.8424277.5534292-.2479591,1.1169559-.4694381,1.6847824-.6680095,2.4056655-.8406677,4.7345613-1.9015674,6.975841-3.2340714,1.8368246-1.0920296,3.7907605-1.8268342,5.8220218-2.1513406,2.2896409-.3656722,4.6210244-.562995,6.8751546.197555,3.690799,1.2454126,6.436299,3.8267321,7.7657348,8.186747.6476633,2.1240705,1.0515135,4.309663.999624,6.5883604-.0213307.9362125-.1332489,1.8490637-.3748884,2.7402544-.881647,3.2516527-2.768138,5.1815162-5.6107492,5.8139726-.7104716.1581425-1.4412106.1873437-2.1592915.3040935-.1798947.0292583-.3468656.1684058-.5091984.2516448.0287704.545023.3326368.8733865.5540083,1.24938.7998023,1.3585889,1.2754705,2.8783256,1.6039762,4.4661618.2366382,1.1439134.2562529,2.3067086.0176812,3.4514156-.5021938,2.4099631-1.8671907,3.8661355-3.8422395,4.5446914-1.0773631.3701523-2.1838831.4883761-3.3257684.3251294-2.7404763-.3918148-5.2503771-1.4675733-7.5015113-3.3317212-.9678604-.8014316-1.9156466-1.650153-2.7999733-2.5732111-1.3298236-1.3880177-2.5959219-2.8601249-3.888979-4.2966798-2.8001905-3.1107494-4.5586971-6.9687219-5.8104452-11.1858467-.1730098-.5829003-.277946-1.1932445-.4327417-1.7842532-.0556085-.2122369-.1653763-.405025-.2429191-.5887974-.1618496-.0168974-.3052435-.0816516-.4152047-.0358361-1.621492.6753808-3.1999368,1.4989249-4.5854667,2.6847971-2.3555651,2.0162776-5.0126049,3.0465579-7.8293684,3.6465806-1.4918189.3179292-2.9895802.5973576-4.5005311.7527212-.7211247.074223-1.4535063.1674412-2.1701378.0988877-2.0357783-.1949439-4.0756633-.3944239-6.0782985-.8929522-1.293734-.3220701-2.529202-.8611968-3.7019592-1.5887454-1.0062213-.6243502-1.8676958-1.4429626-2.5411347-2.5294368-1.6689342-2.6923988-1.6258375-5.6815768.1265844-8.349138.1199621-.1825815.2348512-.3697559.4590735-.7234651Zm31.7877482,3.1466587c.0356069.0650943.0659476.1817311.107642.1875714.810311.113632,1.2695772.710141,1.5554467,1.543439.1230056.3584724.2347058.722785.3405601,1.0887988.8307464,2.8720314,2.0353413,5.5345478,3.3354033,8.1399083.633532,1.2696228,1.3426261,2.4873062,2.2256966,3.5410066,1.3863501,1.6541786,2.7795123,3.3012693,4.1962756,4.9193852.9960994,1.1376766,2.139772,2.057276,3.3347775,2.8863218,1.7330949,1.2024311,3.6229185,1.8367614,5.6134031,2.0542728.9363604.1022916,1.8310025-.1595594,2.6658085-.6828082.7605002-.4766962,1.1677093-1.2439356,1.2614617-2.2201799.0511399-.532265.0567928-1.0913502-.0227307-1.6163006-.2576059-1.7006171-.7843171-3.2758088-1.7822765-4.5833657-.3953477-.5180896-.8232827-1.0019878-1.2382215-1.4993243-.4123781-.4942747-.827027-.985941-1.1302171-1.3471352-.2244876-.6333087-.2610847-1.0802367-.0356546-1.5160508.1812234-.3502503.4647502-.5318111.8385504-.6557622.614932-.1006463,1.2622579.0776262,1.917145.1424374.8520054.0842035,1.7086247.1121015,2.5637946.142778.6678109.0240422,1.3131803-.1671011,1.9381132-.4104105,1.8603289-.724655,3.3022407-2.5273354,3.3713057-5.1658093.0555612-2.1233897-.3049761-4.1405194-.8585735-6.1436438-.9779809-3.5385676-4.390857-6.0815001-7.0233048-6.2596604-2.1848491-.147881-4.3402514.0326581-6.464685.72091-1.2793128.4146069-2.498089.9863927-3.6732142,1.6867795-2.1214626,1.2643479-4.332957,2.2507974-6.5982723,3.0902178-1.1298555.4186895-2.2464732.8877308-3.3636223,1.3520657-1.4687252.6104567-1.4664062.6181682-3.0746117.6045587Zm-30.6081797-.1288454c-.0831474.3833646-.1620432.6782168-.2098252.9798733-.1809339,1.1416451.0944033,2.133823.7246019,3.0126532.4312928.6013854.943752,1.0787061,1.542837,1.420565.830844.4739755,1.695604.85116,2.5976619,1.0859083,1.9988668.5201318,4.0384136.6764047,6.0718246.8626731.5852675.0536408,1.1867201-.0151955,1.7719394-.1062592,1.3695861-.2130867,2.7370464-.4510089,4.0994822-.7200608,2.5586254-.5051598,4.9664167-1.4220355,7.0798837-3.3027379,1.3717606-1.2205174,2.9473067-2.0253497,4.6503031-2.4431883.0963368-.0236448.1640721-.2079841.2446588-.3179867-.011257-.0697439-.002947-.158313-.0366214-.2063966-.9607581-1.3721408-1.9380877-2.7285751-2.8875405-4.1112625-2.195211-3.19688-4.5819361-6.185549-7.1749109-8.9357847-1.3659619-1.4488593-2.8151677-2.7945771-4.2706543-4.1206192-1.2526673-1.1413624-2.6359256-2.0330644-4.1449919-2.6491363-1.8811755-.7680345-3.823709-1.1261676-5.8003518-1.2803992-.2619065-.020413-.5276298-.0106603-.7896329.0138916-1.6900967.1585388-3.0255738,1.0087331-3.8508627,2.796728-.2496835.5408836-.4484447,1.1160155-.647979,1.6863276-.5308191,1.5174114-.7173575,3.1262839-.8913344,4.7375945-.229151,2.1232195.2705529,3.9759125,1.508098,5.5461715.5821269.7386619,1.2024213,1.427369,1.9383296,1.9629799.2757724.2007265.5183534.4642225.7692927.6929599.0999601.3201415.1892913.6062617.2553839.8178182-.0743062.7651982-.3905171,1.2295336-.9084843,1.4992097-.2386195.1242914-.5219289.146632-.7420444.299955-.3307048.2302681-.6236769.5350998-.8990629.7785228Z" stroke-width="0"/>
      <path d="m36.6192215,152.2789217c-1.2793375,1.732483-2.4376983,3.4199444-3.703653,4.9877637-1.9155759,2.3723687-4.141468,4.3079589-6.524185,5.9933783-.6774979.4792479-1.3737897.9221496-2.0469394,1.4093925-.8976135.6498652-1.7948404,1.3028489-2.6676208,1.9971121-1.9848568,1.5788192-3.6838922,3.5115746-5.0598565,5.8193029-1.6278219,2.7303308-3.1179025,5.5598341-4.3191178,8.5855844-1.0054979,2.533007-1.8223323,5.1478355-2.2395673,7.9069718-.276208,1.8262692-.5366176,3.659116-.5420295,5.5269482-.0054602,1.8995288.3373704,3.6924575,1.1581164,5.3331972,2.2042934,4.4066814,4.4460297,8.7838776,7.2845806,12.6915219,3.5082215,4.8295116,6.0802271,10.2744133,7.7956374,16.2936526.8210354,2.8812739,1.3195793,5.829513,1.5319634,8.845965.1302519,1.8496876.3204124,3.6924007.3272238,5.5571711.0157966,4.3410188-.2371737,8.6578822-.6309291,12.9715703-.2612313,2.861314-.7537385,5.654415-1.5139497,8.3829318-1.1555114,4.1471528-2.8046399,8.0244588-4.929268,11.5914325-2.2210132,3.7285187-5.0929998,6.6820576-8.4258469,8.9966457-.7890534.5479994-1.6522677.9611606-2.505771,1.3655046-.935636.4432701-1.9162998.5616641-2.909235.2593549-.3345214-.1018943-.5818372-.3383433-.676821-.761513.0262343-.4898516.2516161-.8784894.5733347-1.1570679.422017-.3653614.8651952-.7090057,1.3302111-.9918652,3.7272287-2.2673832,8.4905863-7.8816223,10.3691547-11.5722073,1.8332988-3.6016757,3.4505887-7.301957,4.3965653-11.3751133.4349656-1.8732187.7436402-3.7726907.9405178-5.6912147.5846902-5.6992099.7750954-11.4185494.4556018-17.1517246-.1859083-3.335913-.7037291-6.5954481-1.7007698-9.7422025-1.529791-4.8277527-3.5909803-9.3086006-6.4096261-13.2647255-2.5901722-3.6355296-4.8478521-7.529565-6.8771548-11.6157646-.298721-.6013853-.5766673-1.2168895-.8680447-1.8233781-1.3479888-2.8060868-1.6870021-5.8192501-1.3758147-8.9803494.3508528-3.5632891,1.1662865-6.9714403,2.3471137-10.2752023,1.4881003-4.1634262,3.4378343-8.0103962,5.6878838-11.6580006,1.5639033-2.5352747,3.4704927-4.6589469,5.6842098-6.3946614.9857853-.7728525,1.9830209-1.5407152,3.0299225-2.1886524,3.6948105-2.2869739,7.04249-5.1580389,10.2634438-8.2510371.6631972-.6368238,1.3084219-1.3094834,2.1125007-1.6952291.1454714-.0698005.3518176.0353825.6382189.0745073Z" stroke-width="0"/>
      <path d="m43.2270811,156.0312604c.1909341.4212986.3045186.6078494.365345.8156636,1.054485,3.6014506,1.7731441,7.2850627,1.9665891,11.0978425.1423299,2.805916-.0680275,5.5653927-.74857,8.2676563-.3549586,1.4093935-.6863402,2.8276326-1.0656487,4.227897-1.3177479,4.864324-1.6815976,9.8533371-1.3485276,14.9121512.1938318,2.9438162.8384269,5.7975893,1.6827977,8.5723195.5089801,1.6725496,1.1178239,3.308016,1.7504379,4.9230695,1.1078716,2.828314,2.5239339,5.4319735,4.3045687,7.7516111.662182.8625566,1.3407423,1.70952,1.9740329,2.6005979.9712421,1.366584,1.931034,2.7458693,2.8576829,4.1542429,1.6928494,2.5728136,3.3405983,5.1865095,5.0395834,7.7535961,1.5866326,2.3973764,2.9017443,4.9872005,3.9855076,7.7301775,1.13785,2.8798565,2.0666482,5.8612668,2.8122905,8.9150292.6931259,2.8385769,1.0067023,5.7552895,1.2222992,8.6879353.1020372,1.3879036.1712696,2.7789824.2684029,4.1673396.244319,3.4915043.1011652,6.9627089-.4262486,10.4075466-.4662248,3.0450862-.9375225,6.0902292-1.4705888,9.1198072-.4538806,2.5797867-.7445588,5.1869041-1.0796852,7.7870187-.0899114.6974672-.2181352,1.3726221-.537873,1.9730431-.0991632.1861821-.2737676.3170227-.4418014.5044522-.1736139-.1211163-.3812886-.1884788-.480041-.3484646-.3991885-.6466906-.5391278-1.4022495-.5603853-2.1881725-.0460419-1.703849-.0543752-3.4115255.1492178-5.1004333.4061957-3.3699907.8516217-6.7335741,1.2910328-10.0979513.339837-2.6019007.6223744-5.2115697.7651655-7.8388731.041888-.7707551.0350278-1.5482577.0068131-2.3205438-.0705608-1.9330967-.1555673-3.865683-.2546329-5.7970787-.1110231-2.1647258-.3246396-4.315673-.7294801-6.4348103-.1296244-.6785571-.2634037-1.3589855-.4417762-2.0213258-1.1148523-4.1396127-2.3928104-8.2008061-4.370877-11.9015997-.5595886-1.0470093-1.1515471-2.0778017-1.8005879-3.0499072-1.9523884-2.9242549-3.9243195-5.8311022-5.9208422-8.7139644-1.0393155-1.5006284-2.1006136-2.9873647-3.2317245-4.3919394-3.3113933-4.11217-5.7295697-8.864906-7.4509711-14.1203646-1.4826373-4.5263796-2.295507-9.2123193-2.1023966-14.0770409.1507391-3.7971864.6105386-7.5482737,1.687444-11.1599295.522461-1.7522158,1.0573868-3.4994418,1.6014922-5.242642.8035482-2.574173,1.1912637-5.2239872,1.1010639-7.9672471-.0761891-2.3191263-.0821307-4.6395567-.353409-6.9494407-.1525246-1.2986541-.143731-2.6239015-.1954741-3.9378652-.0056043-.1418693.0696196-.2881613.1797742-.709403Z" stroke-width="0"/>
    </g>
  </g>
</svg>