<?xml version="1.0" encoding="UTF-8"?>
<svg id="Layer_2" data-name="Layer 2" xmlns="http://www.w3.org/2000/svg" viewBox="0 0 134.0030087 100.9744077">
  <g id="Layer_1-2" data-name="Layer 1">
    <g>
      <path d="m70.1514184,79.9390913c-.3159491,1.0739689-.7461779,1.9286694-1.489115,2.5501452-.5433819.4545578-1.1708431.8159389-1.7884825,1.1707191-.2374383.1363951-.4014628.2501586-.4899048.5287656-.4743307,1.4942517-1.3933972,2.5797549-2.9164447,3.1011255-.1355961.0464146-.2830539.2104442-.3265354.3504226-.5053499,1.6267558-1.5148981,2.8526841-2.9246883,3.7785153-.1308166.0859108-.2527394.2517468-.2900121.4024455-.1781743.72036-.5671302,1.3038386-1.0590301,1.8464412-1.1253367,1.2413237-2.5332459,2.0203869-4.0939482,2.5526863-.3194332.1089593-.5380714.2705569-.6602423.5933253-.0752551.1987809-.1933166.3961821-.3380199.5514667-.9045198.970608-1.8025925,1.9485912-2.741685,2.8851525-.667414.6656372-1.473258.8187877-2.4315873.6741439-1.3498016-.2036944-2.6024808-.5813841-3.7770958-1.2837083-1.6080252-.961476-2.4975614-2.3301521-2.5303872-4.214799-.006725-.3860674-.1479889-.462598-.5066551-.4569202-1.223005.0193461-2.4378061-.0743667-3.6205606-.4200347-.848988-.2481039-1.5982926-.677489-2.223446-1.2992924-.2457713-.2444511-.5129831-.5265819-.6153414-.8418957-.1477258-.455064-.4140145-.5636759-.8411364-.6237588-1.75186-.2464363-3.2692893-1.0325471-4.6271856-2.1375154-.5446574-.4431923-.9634662-.9955028-1.1424444-1.691107-.0619689-.240838-.2037291-.2788253-.4161188-.2797783-.5416994-.0024418-1.0858406.0077523-1.6245224-.0388708-1.7227218-.1491304-3.1093493-.8698676-4.0167526-2.4020571-.0747836-.1262804-.2946848-.2019474-.4600643-.2334728-1.0231521-.1950686-2.0667147-.3064994-3.071692-.567964-1.511223-.3931547-2.6751873-1.2395668-3.1185037-2.8375566-.0683365-.2463371-.1979273-.2976552-.4472472-.2681647-.2777558.0328555-.5771903.0351088-.8457223-.0334312-1.1019284-.2811977-2.2053085-.5636858-3.2901515-.9032194-1.5608859-.4885151-2.684704-1.4925445-3.3103562-3.0178055-.1078277-.2628641-.2636011-.321607-.5295746-.31046-1.5414903.0646787-2.984873-.2689588-4.3033179-1.09533-.1194301-.074863-.2750472-.1232827-.4157106-.1279281-.9643384-.0318629-1.6679382-.4967042-2.1825503-1.2843833-.7423179-1.1362158-.8935849-2.3668093-.3944711-3.6105848.2932518-.7307726.7171477-1.4275481,1.1845896-2.0645384.4208709-.5735127.9507979-1.0798651,1.4916647-1.5475551.3152543-.2725917.7322627-.4502697,1.13094-.5950723.2379855-.0864468.3347281-.180894.3997084-.4221092.1826683-.6781044.3696347-1.3599014.6262676-2.0121681.4585059-1.1653689,1.2444703-2.0858697,2.2718608-2.8002046.2892354-.2011037.5622316-.4340404.8728479-.5936627.3431914-.1763578.7124836-.3581749,1.0863171-.4020386.3404047-.0399527.4880188-.1584808.6101426-.4573073.5582413-1.3659961,1.1664285-2.7120505,1.7038844-4.085923.5488834-1.4030851,1.4883457-2.3683082,2.9659563-2.6919004.8209292-.1797873,1.2342067-.5936677,1.4859163-1.3963304.4233227-1.3499207,1.2030038-2.5091998,2.2773475-3.4552208.4891504-.4307301,1.0301326-.7601738,1.680826-.8462483.3012659-.0398435.4134139-.1926466.4787478-.4545429.2564543-1.0280655.7125779-1.9564576,1.4018989-2.7669222.5887295-.6921896,1.2944013-1.093588,2.2419806-.9735263.1213521.0153756.3140458-.0890673.3862535-.1966716.8524671-1.2704123,1.7153268-2.531628,2.2505072-3.9876988.4355914-1.1851219,1.5092948-1.6894742,2.7236988-1.3605367.1158282.0313765.2312742.0641477.383035.106309.042469-.2458358.0665945-.4696703.1207813-.6859709.4973097-1.9851789,2.8480486-3.0559268,4.7883911-2.1847986.9957162.4470338,1.739497,1.1881245,2.3619604,2.05895.1898673.2656186.3853974.3596787.7270503.3802308,1.266422.076198,2.1678944.8367043,2.9606954,1.7401471.3016505.3437572.5512483.7332045.7996004,1.0681473.5080249-.2377907.9913685-.4640372,1.5013341-.7027362-.0246218-.0358086-.0604502-.1212925-.123506-.1745066-.6655528-.561646-1.1165769-1.2815246-1.5363932-2.030462-.4786882-.8539808-.6203393-1.7643024-.4400458-2.7109636.073781-.3873776-.0405483-.5852801-.3459261-.7994168-1.4328437-1.0046994-1.9955964-2.5208184-1.5272909-4.0325104.051338-.1657021.1124285-.3283816.1316604-.3841864-.4774822-.3817495-.9944159-.6493732-1.3016052-1.0701275-.6993365-.9578777-.8543084-2.068901-.5165714-3.2115191.0918913-.3108918.0291878-.5135538-.1096591-.7832372-.307765-.5978069-.6095049-1.2109348-.8060623-1.8508732-.2831829-.921955.0231378-1.7149992.7721447-2.3128657.2610526-.2083746.3087427-.394862.2153576-.718613-.1417453-.4914036-.2298944-1.0044016-.2825526-1.514238-.164769-1.595285.5575117-2.8655087,2.0079048-3.5603362,1.2963493-.6210316,2.6016668-.5810863,3.8840054.0298678.3009209.1433757.4290575.0831935.6244239-.1579547,1.0479227-1.2934608,2.4149859-2.0522648,4.0694356-2.1943004.5299022-.0454965,1.0798204.165846,1.6232966.2397288.1539445.0209268.3545916.0256715.4710203-.0539709,1.7152921-1.1733693,3.5359501-1.6068217,5.536996-.8252372.2542234.0992912.438676.0697312.600477-.1514208.1037927-.141862.2274973-.2689637.3376377-.4063961,1.4049711-1.7531032,3.2159561-2.3459123,5.3945459-1.8897639.1061005.0222122.2179781.0315205.3164752.0725229.2771578.115374.4729013.0309845.6835737-.1756009.8370021-.8207679,1.7737173-1.5089821,2.8270647-2.0321742,1.400812-.6957804,2.8574635-.8768804,4.3851813-.5097471.1277197.0306916.3235823-.0654108.4378322-.161811.5894938-.4973543,1.1364342-1.0482329,1.7469713-1.516933,1.3424016-1.0305619,2.7996289-1.1610014,4.3083628-.3904076.4132551.2110695.6601878.2298001,1.0260356-.1537584.8139536-.8533852,1.8508683-1.206818,3.0366056-.9522223.2761354.0592913.4445026-.0093504.6361764-.2079701.6484352-.6719353,1.288185-1.3582289,1.9916805-1.9694981.8333791-.7241394,1.8247427-1.1279746,2.9526403-1.0422251,1.4751439.1121505,2.6454362,1.200696,3.0252104,2.8195109.0900698.3838762.2754505.5933327.5890372.833054.5826249.4453711,1.1679695.9503562,1.5724698,1.5514611.6893706,1.0244251,1.214543,2.1473051,1.1482165,3.4506424-.0073056.1437777.1423806.3019632.2346639.4434132,1.1043231,1.6927523,2.0231861,3.4446271,1.6642369,5.5681616-.0668724.395589-.2202313.7821825-.3764688,1.1549886-.0976832.2330609-.0611649.3742007.0824565.5793691.7756983,1.1081397,1.6826003,2.1737756,1.9842856,3.5153335.1927855.8573458.628305,1.3380391,1.299878,1.8620799,1.8441781,1.4390624,2.6921486,3.3566393,2.2106215,5.732139-.0591201.2915953.0059755.4166548.284513.4999798.2970994.0888886.5822775.2207425.8675151.3455985,1.0043768.4396239,1.6722275,1.1902934,1.9799379,2.2373625.1521678.5178022.219338,1.0601617.359237,1.5822321.0451441.1684367.1654688.3799777.3097751.4480165.759469.3580856,1.3605268.887412,1.8164742,1.5812097.2973773.452508.5728973.9201485.8420645,1.3902506.3403377.5944519.4804452,1.2377205.3752479,1.9183909-.0397443.2571665.0242496.4331123.2261771.5996879,1.0216979.8428089,1.2813757,1.8924787.8406351,3.1362938-.0797169.224986-.081573.4771695-.1230345.7161613-.2152087,1.2405445-.7991637,2.274114-1.7957186,3.0436333-1.4811095,1.1436902-3.1584291,1.7600788-5.0422224,1.7944084-.2016198.0036727-.4582106.0446676-.5935337.170958-1.821745,1.7002093-4.0574796,2.2059463-6.4472382,2.2388812-.4749759.0065513-.7960568.1727099-1.0958164.5489256.0926109.0426526.1708686.0761335.2468632.1141209.541213.2705172,1.1000648.5123031,1.6149139.8261876.2408281.1468225.4075079.1798766.6611208.0667235,1.2369066-.5518588,2.5334693-.7742491,3.885261-.6419931.9355092.0915389,1.7968701.4007233,2.5717246.9297868.1885173.1287173.311939.1324346.5001783.0042335,1.2458103-.848442,2.6271224-1.3289567,4.1264861-1.4660863,1.292493-.1182055,2.5046636.1855295,3.6546469.7510765.2297207.1129794.3482289.1050236.5003074-.1003583,1.005816-1.3584621,3.3947706-2.0555453,5.0872772-.5478586.1811323.1613544.318927.1320078.4972402.0018115.5463349-.3989118,1.0808875-.820222,1.6589662-1.1680837,1.1887648-.7153573,2.3601191-.5907445,3.4568685.2181568.2541192.1874205.423489.1820058.6775387.0240659.7275267-.4522599,1.545024-.667955,2.3862348-.7420983,1.7285286-.1523514,3.2220458,1.1251978,3.5021417,2.9896152.0534126.3555892.1570812.5261054.528041.6252428.8553258.2285792,1.3554446.8590828,1.6345181,1.672029.4890908,1.4247042.4437581,2.8295065-.2346143,4.1840726-.1753552.3501447-.1638211.6233915-.0126757.9851697.7683827,1.8392051,1.5398723,3.6964559,1.6630061,5.7083361.0641527,1.048161.2525508,1.9778336.7304152,2.9404808.8823944,1.7775339,1.0114839,3.6986892.4301395,5.6242617-.1505796.4988085-.1162153.8984549.154282,1.3727458.9303774,1.631302,1.0066697,3.3706501.3142716,5.0935207-.3190262.7938234-.3076211,1.3616286.1995949,2.1135339,1.0029077,1.4867178,1.0694922,3.1807332.5583654,4.8838905-.112354.3743843-.073513.6677316.0674184,1.0367955.8275028,2.1670259.5999559,4.3402655-.9633619,6.1212736-.1148653.1308563-.2540795.2462875-.3987629.3440302-.8259841.558008-1.6604352,1.1034794-2.485655,1.6625991-1.4560162.9864799-3.0531425,1.264541-4.7733729.9982523-.2702889-.0418387-.5682717-.0181946-.8346099.0493925-.7745965.1965575-1.5418079.4234393-2.3078679.6520086-1.0850961.3237709-2.195365.3300442-3.306021.2472701-1.0280506-.07661-1.9465662-.4636104-2.7277636-1.1438291-.1993169-.1735685-.3545618-.1787599-.6113908-.0849678-2.6941239.9837304-5.4108099,1.6190432-8.2267573.43275-.1724965-.0726693-.4307152.0030374-.6313225.0660783-.2558463.0804117-.4853884.2437761-.7408079.3264311-.6956539.2251448-1.3995762.4246305-2.0991013.6379333-1.6634726.5072557-3.3148552.4490488-4.9570263-.0990828-.5780291-.1929444-1.1559887-.5303042-1.7354669-.5335202-.5607774-.0031367-1.1275403.3274932-1.6846153.5308898-2.21485.8086729-4.4444205.8867817-6.702211.1825517-.1862541-.0580977-.4241937-.0108096-.6233717.0425732-1.293694.3466705-2.5756851.7401131-3.8768933,1.0545435-.8888067.214772-1.7828742.0712399-2.6394408-.2320037-.2844733-.1007106-.5048436-.0531247-.7672114.0718156-.8779177.4180594-1.7517756.859058-2.6663704,1.1793746-.4330578.1516814-.9677394.1237194-1.4335137.0437941-.5960351-.1022591-.9686129-.5355452-1.0542755-1.1464993-.0416302-.2968314-.1814797-.4326905-.4454357-.5472779-2.0129622-.8738976-3.0154232-2.9941217-2.4079234-5.1032583.2734851-.9494753.5843024-1.8883891.8898291-2.8283055.0934943-.2876298.0250635-.4950068-.154421-.7403116-1.0402598-1.4218108-1.4630539-3.0123064-1.1652994-4.7597046.1477308-.8668699.3575794-1.7234166.5507818-2.5820577.0416997-.185331.0917573-.3395039-.1391744-.4327997-.8744336-.3533111-1.6902732-.7912625-2.2617113-1.7437553ZM2.7203378,73.3413629l.0987602.0631303c.7167035-.5923525,1.4242389-.3740667,2.1527967-.065453.5453162.2309813,1.121267.2537618,1.7162661.1578257.6124157-.0987453,1.2401797-.1901948,1.8557718-.1626796,1.2186102.0544647,1.9401117,1.0852351,1.6876775,2.2660788-.0464419.2172535-.0090353.4875026.0819378.6923088.2464239.5547225.6669673.9571779,1.2573966,1.1377742.4652557.1423012.9354496.2954913,1.4146664.3584429.628104.082516,1.2669877.1037083,1.9016852.1107162,1.1548347.012765,1.9610236.5407961,2.2562842,1.4478272.1618755.4972799.3877127.9794324.633948,1.4421991.3630114.6822337.9739333,1.0514465,1.7276848,1.1438986.4674394.0573334.9446536.0431986,1.41755.0452831.3924896.0017271.7876915-.0539287,1.1771115-.0241801.9764644.074585,1.7751393.4317177,2.1893076,1.41385.2286834.542285.672784.8990107,1.25593.995205.4905872.0809179.9955326.1062296,1.493686.1022293.6766478-.0054296,1.353566-.0969189,2.0290252-.0835384.3820225.0075439.7876742.0917176,1.1363994.2459996.7163449.3169219,1.0298522,1.0777508.8108368,1.7938525-.2008059.6565846-.1948899.6847649.373223,1.0981192,1.2682186.9227144,2.7112217,1.3181719,4.2561464,1.4235975.4139152.0282399.845484.064113,1.2295314.2043991.6550907.2393193.9985451.8829502.904356,1.5193748q-.0888985.6006607.5137871.726544c.1324842.0274458.266244.0579389.4006241.0655423,1.1764911.0665548,2.3536522.1219228,3.5297314.1948204.4039345.0250437.8184402.0421166,1.2053067.1469764.8536532.2313982,1.2825619.8973531,1.2026763,1.7776431-.0281406.3100629-.0793446.6181406-.1032766.9284219-.0994401,1.2892968.4079496,1.9658924,1.6782675,2.1764358,1.1200511.1856387,2.2002933.4806933,3.1802518,1.0631991.3094475.1839414.5018062.1437901.6474327-.1607142.2722791-.5693338.5733588-1.129337.7900564-1.7197936.3497675-.9530685.8200086-1.7650071,1.9323371-1.9126387,1.8255616-.2422872,3.1963321-1.1738656,4.2037413-2.686987.127407-.1913661.2635639-.3786625.4122129-.5537994.3640413-.4289384.7980569-.7245489,1.3925038-.7295516.1217987-.0010224.270939-.0639244.359778-.1484455.7109848-.6763475,1.2379389-1.4640663,1.4476386-2.442387.0677608-.3161476.1397948-.6397598.2720359-.9318067.2248321-.4965255.5643806-.9212751,1.1417198-1.0037316.5109482-.072977.8680114-.3438118,1.1854147-.713372.4562452-.5312075.7190498-1.1485738.7915007-1.838669.0754883-.7189803.4247694-1.2559548.9629103-1.7239427.4682608-.4072299.9096714-.856636,1.2983246-1.3394238.1973615-.2451559.3063208-.5961244.3587109-.9151209.0763668-.4650497.0335107-.9489095.0989984-1.4166988.1286875-.9191906.7174467-1.4320744,1.6309596-1.5140941.1899913-.0170432.3952689-.1020308.5517992-.2140076.8762303-.6267664,1.4838889-1.4574059,1.7991233-2.4910946.1975203-.6477007.3902066-1.2973072.5647082-1.9514896.2251646-.8440894.7215313-1.3784434,1.6145268-1.4936463.4471032-.057661.7326883-.3093681.8942363-.7269907.375913-.971819.769961-1.9367195,1.1383102-2.9113575.2536924-.6712753.5435854-1.2980615,1.2301469-1.6497348.1290101-.0660783.22175-.2321725.2960571-.3709499.3892239-.7269113.1102894-1.3889056-.2084589-2.0497088-.1500734-.3111052-.3503234-.3624928-.6574382-.224033-.38169.1720498-.766993.3600013-1.170997.4540615-1.1466581.2670033-2.0622951-.5376495-1.9839481-1.7061848.0045263-.0675772.0238128-.1357996.0181251-.2021657-.0632692-.7385547-.051338-1.5074535-.8829602-1.8983053-.149577-.0702969-.2697132-.2261969-.3747913-.3643688-.5653832-.7434879-.9472816-.8085935-1.6995542-.2740608-.0662769.0470896-.1322559.0946358-.1975799.1430655-.5347015.3964998-1.1091919.5853049-1.7451697.2688099-.6218133-.3094475-.7921409-.8729447-.8300092-1.520556-.0243836-.4169774-.0835831-.8375332-.1820752-1.2431501-.1312832-.5406423-.4596102-.7146575-.9782363-.5034788-.397408.1618259-.7664372.3969663-1.1388065.6153315-.2329368.1365986-.4367701.3249918-.6744963.4507759-.5283041.2795152-1.0722567.2988811-1.5829964-.0378583-.5011213-.3304016-.6701735-.829756-.6267168-1.4115521.0151225-.2024586.0497399-.4038004.0580878-.6063682.032657-.7929301-.2757383-1.4135522-.9270422-1.8778525-.7909647-.5638645-1.5778299-.921965-2.6052204-.5611199-.8724881.30643-1.5909522-.151736-1.9158299-1.032304-.0464742-.1259578-.0895735-.2671324-.1769931-.3617533-.5872753-.6356652-1.1619096-1.2861899-1.7892865-1.8805425-.4542451-.430333-.4878501-.3936113-.976127-.0205868-.4389191.33532-.922223.4648959-1.4484972.2455777-.5351978-.2230206-.7730579-.6685307-.7886023-1.2237941-.0129685-.4631588-.1826261-.8591424-.4955081-1.1690564-.5856027-.5800689-1.1807296-1.1558249-1.8182907-1.6765652-.572937-.4679531-.8744684-.7044633-1.401894.1089692-.3221033.4967786-.9905496.5816124-1.5038255.3394691-.5153753-.2431359-.7864284-.7821652-.6950285-1.3849153.0162441-.1071329.043139-.2128364.0557849-.3202968.0817319-.6945372-.2779965-1.1613289-.9698735-1.243428-.5782921-.0686244-1.1133062-.0576907-1.5537838.4543444-.2825874.3285007-.7188661.3641654-1.1303395.1844625-.3682847-.1608333-.5641325-.45964-.5858707-.8586461-.0463849-.8513305-.5283537-1.44611-1.2038426-1.8575635-.4978358-.3032486-1.0234697-.4497585-1.5828624.0723517-.5828879.544042-1.5323036.2779072-1.8932132-.4394403-.0903875-.1796533-.1354124-.3819381-.2034512-.5730511-.323766-.9094183-.748054-1.7487531-1.6253662-2.2574133-.4729311-.2741998-.8011291-.2219237-1.1347815.2135064-.1790577.2336763-.302926.510705-.443639.7724971-.3805088.7079474-.7846814,1.3846969-1.7656623,1.3994323.1322807.7812768-.2370214,1.3165539-.7489374,1.8079129-.2621742.2516426-.4734274.395393-.7856641.0918962-.0618696-.0601375-.2001061-.0535416-.30373-.0564748-.2297803-.0065066-.467839.039114-.6883135-.0059904-.4776361-.097708-.8431861.0814787-1.1866034.3786823-.8032681.6951625-1.3611794,1.574996-1.8615165,2.493457-.0599117.1099767-.0144574.3127976.0436601.4456888.3082018.7047512.2104615,1.4700071-.3687066,1.9739326-.3162146.2751378-.7192557.4903465-1.1195994.6200762-.6889239.223239-1.2286927.6269848-1.669875,1.1717663-.0923057.1139819-.1219129.3565669-.0688254.4980144.3854768,1.0271374.0132613,2.0645732-1.0134989,2.446819-.5265273.1960115-1.1348609.2419745-1.7048771.2355722-.9193494-.0103232-1.7064925.4939596-1.9617706,1.3793318-.1365515.473606-.1904033.9080634.0839355,1.395844.4039568.7182557.1562474,1.6270834-.5185367,2.1478585-.2733238.2109504-.6002909.3720616-.9265384.4907187-.6998303.254546-1.4089663.4883364-2.1255346.6908397-.9017504.2548438-1.6189042.7568485-2.1342572,1.5279609-.3753223.5615815-.7053616,1.1534575-1.0549653,1.7322112-.1232405.2040219-.113905.3755159.033461.5903176.5712371.8327041.3137505,1.9446207-.5894193,2.396687-.36018.1802786-.8005037.2632711-1.2078081.2755497-1.6227581.0488763-3.2353704,1.1586389-3.8181404,2.6711846-.0742538.192726-.0568904.3031245.1278835.4364326.9404685.678561,1.1012212,1.85736.3274845,2.7241902-.3055924.3423626-.7310679.5948241-1.1369751.8270065-.8725079.4990666-1.5216442,1.1724561-1.8090395,2.1486923-.0625471.2124592-.0400718.4499322-.0567552.6758909Zm74.8522421,23.9315728c.5583058-.481279,1.02679-.8852035,1.4953436-1.2890188.9593716-.8268278,1.6384488-.903676,2.7347714-.2890294.6870082.3851542,1.393551.4374749,2.1074194.120821.3941473-.1748391.7556772-.4218114,1.1397594-.6211284.4795915-.248908.9529494-.5192167,1.4548549-.7134514.714583-.2765324,1.393154-.1566345,2.0541061.2540795.394991.2454537.8451316.4325813,1.2953219.5532236,1.4562743.3902562,2.8117884-.0238823,4.1404026-.5932657.534354-.229006,1.065492-.4767328,1.6195197-.6456559.6494675-.1980464,1.2688092-.0783371,1.8665615.2824186,1.3267084.8007022,2.7659991,1.1450302,4.2812347.7064734.9046289-.2618219,1.7687294-.6722083,2.637128-1.048022.6746104-.2919477,1.3342026-.4298814,2.0365864-.1046414.5888188.2726513,1.1815187.5390987,1.7838767.7798375,1.3419252.5363095,2.6701423.5144025,3.9708839-.148783.3379157-.1722881.7103545-.2979729,1.0091512-.5220953,1.0154047-.7616329,2.0880038-.6439883,3.113027-.1416858.9960686.4881181,1.9690688.4192505,2.9639065.1471154,1.1101696-.3036705,2.2163092-.6283546,3.3069937-.9950561.90852-.3054671,1.8247129-.4060289,2.7630312-.2658221,1.00931.1508178,1.8977495-.0759052,2.7102737-.6974009.4835719-.3698878,1.0061436-.6843381,1.6392231-.7690378.1128305-.0150877.2376021-.2005279.2936054-.3338559.1938179-.4615458.3322081-.9478176.5454614-1.3992784.1544607-.3270267.1294369-.5235345-.1722881-.7491458-.7693753-.5752795-1.0420961-1.369639-.8487547-2.3003339.0874692-.421057.2434982-.8313641.4018698-1.2333629.2121514-.5384635.2230206-1.0781776.1142896-1.6367217-.0764809-.3928767-.2622884-.638251-.6645354-.7781897-.8500947-.2957494-1.3213979-1.0404285-1.2141658-1.9351015.0472187-.3941175.193401-.7885129.3588499-1.1536957.3016257-.6657365.6682776-1.3017838.9768416-1.9646417.5469404-1.1749377.4300799-1.8172683-.4831153-2.742355-.5917966-.5995192-.807313-1.3021908-.6215056-2.1204921.113962-.5018459.2642339-.9955326.3750792-1.4979741.2782199-1.2613447.0553283-2.4741308-.708677-3.4756786-.6541229-.8574798-.8499458-1.7010927-.5244577-2.6878406.2721351-.8250114.276582-1.6586585.0940502-2.4883351-.1567139-.7122901-.3837348-1.409145-.5809474-2.1124718-.1343106-.4789959-.342303-.8657085-.8217159-1.1376749-.5601322-.3177557-.855296-.8971546-.8172392-1.543277.0271182-.459898.1748788-.9247989.3390572-1.3610231.1562276-.4151212.4080637-.7936745.6093461-1.1926012.1379138-.273356.1061502-.4659034-.2233978-.6025715-.6165127-.2556776-.9445122-.7403662-.9977163-1.4129815-.0099162-.125258-.0440026-.3017796-.1304394-.3594554-.7296013-.486783-1.0436843-1.2615681-1.4292554-1.9901817-.1133268-.2141714-.2345448-.4313306-.3909908-.6138227-.2281226-.2661199-.5487172-.2413045-.8244456-.1129595-.1517806.0706444-.3204953.2556428-.3502042.4137663-.2217004,1.1799454-1.2867457,1.7546542-2.3510863,1.199485-.3746226-.195411-.666074-.5446077-1.0169333-.7933767-.2112283-.1497805-.4584488-.3244409-.6989394-.3397719-.3699076-.0235796-.7494734.0709967-1.1220115.1329855-.2678967.0445833-.3633068.1970637-.3404071.490813.0572937.7355619-.310728,1.3384659-.9312509,1.6135888-.6300024.2793316-1.3650134.1433434-1.8681199-.3807867-.1940164-.2021211-.3434048-.4511432-.4925154-.6915792-.5070174-.8174973-1.5992207-1.0723063-2.3900961-.5391732-.0747141.0503603-.129417.167057-.146083.2613206-.1934506,1.0944565-1.0952903,1.5689708-2.0729161,1.0377286-.3973336-.2159184-.7554291-.5267109-1.0831208-.844144-1.3466897-1.3045532-3.6093142-1.3629884-4.9798465-.0844864-.1524755.1422416-.2555585.4089323-.2630428.6220714-.0252323.7176452-.3883306,1.3200827-1.0840241,1.4974529-.390822.0996337-.8339151.0922436-1.2358842.0261703-.5449651-.0895636-1.0747035-.2759914-1.6080748-.430874-1.019266-.2959827-1.9995817-.243255-2.9612959.2433096-.2932778.148376-.6439486.2601989-.9675508.2582584-1.3046624-.0078168-2.5165551-.3279101-3.5405261-1.1981996-.1701539-.1446239-.3854023-.2698174-.5998567-.322823-.902743-.2231049-2.4346446.4555702-2.8895696,1.2551756-.2432898.4276033-.6106563.7170497-1.0896324.7663627-.3949017.0406476-.8122761.0115788-1.2014702-.0717065-.8338853-.1784423-1.6516109-.4314249-2.4839477-.6182349-1.2129548-.2722294-2.4231997-.2730235-3.5966584.1929096-.1995552.0792404-.4136521.2293981-.5241698.4070513-.5228893.8405458-1.2603025,1.1728482-2.2480728.955689-.2511215-.0552092-.4963369-.1367574-.7459993-.1992326-1.0045951-.2514044-1.8892924.5489802-1.6556508,1.5255141.0892559.3730046.0655522.8363073-.0807392,1.1855586-.1638905.3913283-.0998272.6670467.048251,1.0196233.1556618.3706322.3045738.432492.6928448.2929105,2.0056565-.7210747,3.7066202.268383,4.0698972,2.3720801.0981001.5681327.0945366,1.1609815.0761037,1.7405194-.0321309,1.0095483-.4049668,1.8968561-1.0790412,2.6549553-.0794091.0893055-.1543019.1908003-.2011632.2996107-.5671401,1.3167922-1.1195895,2.6399768-1.6948293,3.9531955-.3661953.8360294-.9815566,1.3775203-1.9121424,1.5284672-.1124731.0182443-.2516178.1488127-.2970895.2604521-.4433214,1.0885703-.8735303,2.18259-1.2942499,3.2801236-.0459084.119749-.0295402.2750832-.0059855.4074979.0631303.3547306.1795143.7028503.2124492,1.0593577.0434567.4704992.0222544.9466562.03897,1.420034.0119014.3369925.1865817.5611646.5162785.6445243.3407049.0861291.6863431.1526839,1.027058.2387833,1.1409605.2883247,1.6198572,1.2746755,1.1743421,2.3548483-.1265285.3067674-.2134418.6453382-.2383068.9753626-.0528369.7014805-.0628623,1.4067925-.0725105,2.1107843-.0146212,1.0675666.2863097,2.0189278.9966939,2.8465398.5823569.6784618.660833,1.4416134.2769692,2.2738808-.5244974,1.1372084-.8941866,2.324246-.9951951,3.5840919-.0738406.9209674.1042741,1.6675821,1.0672986,2.0948132.7664967.3400299,1.3632564.8970652,1.4348736,1.9528693Zm7.7933522-46.0027085c-.1032716-.16396-.1442864-.2315025-.187624-.2975163-.5861189-.8927325-.3652026-1.9606266.5679342-2.4829005.3555743-.1990092.7819021-.3198948,1.1889732-.3692773,1.1011864-.1335811,2.209609-.2068658,3.3145971-.3101374.3887574-.0363247.7667151-.1214662.9221684-.5433422.2662191-.7224445.8111048-1.1124873,1.5318123-1.2486542.7571662-.1430556,1.5247449-.2317308,2.2884821-.3391366.8309174-.1168654,1.6660137-.2082207,2.4927423-.3491273.4810507-.0819949.8451713-.36018,1.1523557-.7655438.2268918-.2994072.5514866-.5833197.8941668-.7228962.5325872-.2169259,1.1124625-.3314984,1.6815878-.441356.6773997-.1307521,1.37218-.1766506,2.0445075-.3263666.3590584-.079965.6941451-.2875802,1.0229486-.468638.0760144-.0418635.1493686-.2608193.1101008-.313676-.4923863-.6625998-.4534063-1.3905335-.3236518-2.144424.0189192-.109942-.0614031-.3080578-.1525251-.3547901-.8591871-.4406115-1.1273914-1.1943333-.9435196-2.0509843.1921304-.8951197-.0961645-1.6535763-.4074582-2.4337413-.1425493-.3572468-.3972542-.5716317-.7945579-.5980898-1.1979068-.0797566-1.7771865-.6212673-1.9162716-1.8264252-.0605098-.5241847-.0521122-1.05635-.113168-1.5804404-.028627-.2457564-.0779996-.5546332-.2390215-.7068803-.4462198-.4219256-.9781122-.7300033-1.6291282-.7170943-.7825969.0155096-1.3659961-.3395833-1.5469893-1.0986354-.1226276-.5142586-.1185479-1.0716512-.0901095-1.6054394.0294012-.5520027.1656772-1.0975981.2388627-1.6481665.0874592-.6579395.0268304-1.3009997-.2780809-1.9016405-.2593701-.5109631-.5657604-.6430701-1.1222993-.5079704-.6824521.1656624-1.3247033-.0764412-1.6690809-.6977036-.1661835-.2998142-.2882552-.6531452-.3196615-.9924852-.0635273-.686358-.0130231-1.3836894-.0840049-2.0687819-.0491443-.4744349-.2011831-.9429538-.3487054-1.4007574-.095281-.2956551-.3255775-.410307-.6665306-.3991947-.7607495.0248104-1.3127225-.4345864-1.4934477-1.1776078-.1426486-.586501-.000536-1.1272674.2700506-1.6464543.1689727-.3242176.3537777-.6412586.5042481-.9738365.449426-.9933314.3756152-1.9801861-.0947947-2.9428184-.0679246-.1390082-.2207177-.3009879-.360051-.3305133-1.1489014-.2434784-1.499999-.6374246-1.7177389-1.7786382-.1439688-.75464-.3606366-1.5024383-.6251782-2.2238034-.1160366-.3164305-.3821069-.6380028-.6674041-.8211675-.9366308-.6013108-1.7699901-1.2870932-2.3175657-2.2762978-.0454518-.0821016-.0979214-.1807253-.1740053-.2213629-.1804176-.0963605-.3844097-.2434114-.5657405-.2267751-.7783585.0714112-1.4594011.384638-2.0131905.9527261-.1899665.1948725-.2728697.3899485-.232242.6864498.1315809.9603369-.705312,1.6852084-1.6441861,1.4296996-.266378-.0724906-.5047245-.2490792-.754774-.3801216-.2623182-.1374622-.5094295-.3239223-.7876692-.4067882-.5645394-.1681389-1.1117975.2700407-1.093176.8325974.0392579,1.1866356-1.1706595,1.939938-2.2529168,1.3764756-.3168723-.1649725-.5938513-.4246925-.8535589-.6775064-.5145712-.5009327-1.1005809-.6298684-1.7937135-.4861155-.8070053.1673746-1.4478669.5927595-1.9895961,1.1841764-.1201163.1311243-.2011235.3201131-.243935.4961285-.1705907.7014954-.6311042,1.1471494-1.349072,1.2038302-.4024952.031781-.8110006-.0090576-1.2166523-.0217457-.4599923-.0143855-.9215381-.0676665-1.3793914-.0444617-1.1202893.0567751-2.0533616.557884-2.8516468,1.3169014-.1683871.1601087-.2643084.3964278-.3936212.5976282.0310341.0291109.0620632.0582193.0930973.0873302.4055524-.0939956.8085687-.2011136,1.2170394-.2799396,3.7250084-.7188215,7.4409245-1.4698607,11.1275931-2.3788646,1.779539-.4387752,3.6317672-.5902531,5.4557952-.836955.6215254-.0840645,1.2507932-.0127923,1.806965.3330171.8521097.5298178.8792279,1.5611366.0290836,2.0875323-.3863553.2392275-.8225894.4215335-1.2593893.5520077-4.183085,1.2494756-8.4037305,2.3660152-12.699775,3.1432942-3.5604677.6441918-7.0814293,1.407805-10.3717769,2.9433048-2.4789053,1.1568324-4.9103735,2.4204949-7.3253593,3.707181-1.5166799.8080724-2.9629635,1.7481128-4.4427678,2.6256782-.3854867.2285991-.7861257.3250018-1.1721583.0101693-.3892984-.3174976-.4553519-.7702588-.2784779-1.1830622.2045927-.4774921.4663004-.9630741.8170506-1.3389027.8491021-.9098253,1.7352684-1.79016,2.659571-2.6235192,1.4564232-1.3131294,3.2338529-2.1183778,4.9567583-3.0038493.2612213-.1342511.5226412-.2681349.7839668-.4021899-.8508392-.2352099-1.6632294-.5432925-2.5472666-.2857736-.6335013.1845369-1.1465588.5323217-1.6116979.9824871-.3892735.3767467-.8261628.6679053-1.408609.5970624-.51071-.0621178-1.0248693-.1072569-1.530234-.1996445-1.0928534-.1997686-2.0206401.0791908-2.8551656.8178447-.2493546.2207078-.646713.2748202-.9771245.4030212-.1202056.046638-.2716587.0551894-.359644.1352288-.4259506.387467-.9377525.5442008-1.4911945.5561171-.5815975.0125268-1.164143-.0284384-1.7463261-.0303591-.3641951-.0012011-.7337802-.0075786-1.091707.0479433-.9524829.1477407-1.3804733,1.0968388-.890504,1.9338608.0545987.093266.1250843.1770873.1829835.2685965.2895456.4576349.2382522.9129669-.1538453,1.2858822-.1270844.1208706-.2758475.2186332-.4110068.3313892-.7926571.6612846-.6841495,1.9676096.2122706,2.5055321.0739398.0443748.1787748.0497498.2696635.0514224.7805224.0143929,1.2542178.3817545,1.3797388,1.1515269.0601276.3687264-.0117625.7573349.0269693,1.1316795.0350641.3389331.1065373.6827002.223502,1.0017711.0895189.2441881.2840167.2897094.5586135.1590317.5198768-.2474041,1.0692193-.1156396,1.4030752.2861409.3602743.4335838.3573808.9190467.166114,1.417875-.1745413.455198-.3593909.9064951-.5437442,1.3578566-.1226425.3002559-.0438388.5343193.2326241.6909092.3413352.1933464.6939962.3666469,1.0361206.5586731.9977411.560028,1.2932722,1.6254853.7154069,2.5616545-.4615557.7477264-.3531672,1.0995883.3475242,1.6378781.574942.4416836,1.1582171.9115524,1.6027643,1.4753921.7923146,1.0049177.4739435,2.188511-.6549765,2.7918914-.0447719.0239369-.084129.0580034-.1938129.1348516.8980132.4533518,1.4545968,1.1338484,1.6036081,2.0841376,1.7450506-.2184397,2.3250997.3231952,3.3137534,1.1779254.7972182.6892267,1.513707,1.4716648,2.2703074,2.2083434.0708677.0690016.1743577.1531207.2596183.149855.287337-.0109982.5732794-.0582913.8597578-.0917027-.0346968.0261256-.0693887.0522463-.1040855.0783719-.20563-.2679413-.4322289-.5224873-.6134505-.8060326-1.0782421-1.687077-2.3334376-3.2931517-3.175244-5.0920715-1.4163861-3.0267886-2.5725386-6.175639-3.8290642-9.276834-.6880554-1.6981546-1.0599185-3.4697229-1.155537-5.2977362-.0146609-.2802696-.0058862-.5756964.0665349-.844015.2321526-.8601251,1.173553-1.2254022,1.9038044-.715923.2996008.2090247.5810218.5137871.7419494.8387591.4738741.9569149.9228533,1.9303271,1.310504,2.9249811,1.1362307,2.9153478,2.2203094,5.8510393,3.3587635,8.7654938.9510486,2.4346893,1.9532217,4.8493823,2.9233781,7.2766815.1148207.2872725.1945127.5939258.2489923.8990058.1786904,1.0006693-.1034552,1.3813717-.9907978,1.4711288.6303498.7302514,1.2846811,1.4972097,1.9507948,2.2537853.1689777.1919319.3536883.3891892.5715523.512854.1760749.0999364.4137018.1304841.6225677.1258685.5109383-.011286,1.0321203-.1442963,1.5292861-.0783371,1.2300873.1631907,2.1775029.8557377,2.9350264,1.8089502.6413678.807055,1.2030038,1.6638746,1.4109516,2.7108643.1112274-.028627.1774298-.040583.2401283-.0625496,2.0021576-.7014309,3.7979655.0311681,4.7093641,1.9224407.0470152.097574.0687782.2202164.1419687.2889599.0891268.0837072.2418703.1954309.3298805.1693698.6857376-.2030541,1.3708003-.3060825,2.0942474-.0653885.0528766-.1706056.093534-.2959877.130638-.422407.2658221-.9056017.7666754-1.6550056,1.56841-2.1548614,1.3847068-.8632965,2.9103748-1.2483961,4.5094665-.893338.6483856.1439638,1.1341809.0456106,1.7154161-.1765414,1.9196664-.7337057,3.9265041-.878146,5.9621079-.711094.2260977.018547.4508256.0537798.7697922.0926953ZM57.485556,13.1988691c.0390693.035754.0781436.0715104.1172178.1072644.9039639-.3664682,1.8079278-.7329365,2.7118867-1.0994047-.000129-.0407716-.0002581-.0815433-.0003871-.1223124-.4176673-.1395864-.8296866-.3025538-1.2561782-.4056145-.1423905-.0344115-.3793821.0338879-.4742264.1419984-.3869359.4410806-.7355718.9157636-1.0983128,1.3780687Z" stroke-width="0"/>
      <path d="m33.4410039,43.9279736c-.1050881.886608-.5697507,1.5256878-1.0075879,2.1755276-1.920118,2.84987-4.1197512,5.4785757-6.4037939,8.0376693-1.7047604,1.9100628-3.4475405,3.7861336-5.1590234,5.6902556-1.8191096,2.0238611-3.2624229,4.3222396-4.7576126,6.5817076-.4608237.6963884-1.0062354,1.3080572-1.7050607,1.7770575-.3809058.2556379-.5184002.2246882-.6810302-.2156256-.2613553-.7076149-.1584237-1.4253147.1689256-2.0523988.643755-1.233224,1.2860559-2.4845036,2.0908899-3.6127983,1.7463187-2.4481541,3.642202-4.7896617,5.3877018-7.2383716,1.7640418-2.4747512,3.6177515-4.8719345,5.5936916-7.1793458,1.1779875-1.3755847,2.4735476-2.6195637,3.9177269-3.7089529.2693111-.2031435.5599139-.3817297.8547054-.546593.4807876-.2688794.9808568-.3960283,1.5141785-.0696517.2798825-.5537497.7742788-.6775982,1.3077991-.6415812.537451.036285,1.0918906.0686343,1.6019157.2240479,3.9527985,1.2045325,7.9242234,2.3835547,11.6142074,4.2785,1.8995213.9754867,3.6912148,2.1621174,5.5242558,3.2656017,3.6101927,2.1733438,6.8844401,4.8066453,10.1369939,7.4650847.4948778.4044705.8736643.9551927,1.2841103,1.456324.1333577.1628284.2422326.3749402.2790487.5794882.0378682.2104044.0194503.460841-.0701878.6478099-.0307413.064113-.3598922.0216588-.5375602-.0271877-1.077056-.296206-1.9858886-.9113986-2.8897235-1.5394455-2.6591293-1.8477316-5.2739383-3.7651845-7.9974237-5.5130392-4.9325386-3.165576-10.0892888-5.9316296-15.4756208-8.2558707-1.0180996-.4393162-2.0405718-.8724335-3.080633-1.2551111-.4709409-.1732807-.9898548-.2161616-1.5108929-.3231009Z" stroke-width="0"/>
      <path d="m42.3163552,88.6884104c-.5374262-.1733899-1.1038218-.2869648-1.6071616-.530731-1.9863849-.9619723-3.952466-1.9658428-5.9271132-2.9521043-1.0293658-.5141246-2.0444082-1.0609558-3.0946884-1.5283778-2.5803604-1.1483356-5.083138-2.4334435-7.4049546-4.0498464-1.4219845-.9899541-2.8571682-1.9638973-4.2385945-3.0082962-1.3082309-.9890706-2.321762-2.2653741-3.2082063-3.6391225-.2496152-.3868317-.485711-.7834109-.7073791-1.186859-.1228683-.2236261-.21638-.4661317-.2991491-.7083295-.1041401-.3047227-.0733368-.5984074.1979099-.8095762.2665244-.2074862.5518241-.1364646.7925355.0404788.9159497.6733101,1.8394954,1.3384312,2.725014,2.0503837.8953406.7198439,1.7259552,1.5207645,2.627852,2.2317145.7965184.6278881,1.6644404,1.1642373,2.479476,1.7697518,2.8756284,2.1364136,5.8673579,4.0959037,9.029281,5.7772831,1.540716.8192939,3.1753284,1.4600264,4.7420261,2.2330744,1.3105188.6466485,2.5893435,1.3586606,3.8698755,2.0641017.2792671.1538354.5269293.3824642.7520046.6129195.2953176.3023602.5056576.6792757.3121722,1.1032709-.1899963.416362-.6111625.4446614-1.0409.5302645Z" stroke-width="0"/>
      <path d="m68.8478528,65.6912847c-.0623263.2215019-.152133.6464798-.3002112,1.0500866-1.1479733,3.129018-2.8541383,5.948519-4.7851353,8.6474372-2.0572626,2.875405-4.4322014,5.4670117-6.9365027,7.9525576-1.1237684,1.115351-2.1644996,2.3139526-3.2627231,3.4557171-.3074275.3196218-.6533338.6308957-1.0393466.8387392-.4430038.2384954-.9384473.4345268-1.4323622.5101442-.6781293.1038175-1.0159209-.2931786-.9373852-.9760277.0727487-.6326229.3971301-1.1523458.8155269-1.6043823.5609065-.6060009,1.144916-1.191425,1.7342361-1.7701886,1.6333468-1.6040746,3.2853051-3.189359,4.9061648-4.805871.48719-.4858748.9175875-1.0336589,1.3376718-1.5809566,1.4847673-1.9344067,2.97285-3.8668282,4.4220767-5.8277774.9672778-1.3088314,1.8128114-2.6955731,2.4328926-4.2128634.2555833-.6253768.5802128-1.2237247.8944447-1.8233629.1371297-.261673.3041072-.5158021.4984264-.7375025.2880914-.3286943.6601381-.4763953,1.0972309-.3197111.3562195.1276998.5655966.5173803.5549955,1.2039617Z" stroke-width="0"/>
      <path d="m102.7175244,55.0459781c3.6914332.1726504,6.8478474.2569035,9.9928861.492833,1.6936283.1270397,3.3737371.4828622,5.046848.8037049.4687025.0898812.9015915.4035473,1.3306391.6498646.2758773.1583716.2121912.3800919-.0574624.4658736-.3020525.0960751-.6355808.1887952-.9424078.1571011-1.1033503-.113972-2.2004273-.2874015-3.3014351-.4258315-.7381179-.0927995-1.4774567-.215844-2.2187212-.236401-2.8179823-.0781187-5.6243212.0165171-8.4322384.3610932-5.7024896.6997831-11.3404692,1.8040367-17.0248535,2.6118759-1.4062763.199853-2.8071032.4377131-4.2120594.647254-.2658519.0396549-.5425332.0602517-.8087523.0340467-.8451019-.083191-1.240748-.8419553-.7977839-1.5695217.1777971-.292037.427777-.5924716.7197942-.7518855.636236-.3473058,1.2979325-.6822833,1.9891394-.888628,2.9301477-.8747413,5.9525788-1.2903936,8.9718037-1.712612,2.1856374-.3056607,4.3622717-.6900853,6.5840502-.6434126,1.2316656.0258775,2.4643138.0046454,3.1605533.0046454Z" stroke-width="0"/>
      <path d="m124.3387378,73.1173001c-.1708388,2.4303664-.2275171,4.8761283-.5526281,7.2856697-.2168961,1.6074197-.8059532,3.1661417-1.2527487,4.7397431-.0907646.3196814-.265167.6245529-.4459816.9075175-.2397163.3751883-.6054352.5397142-1.052191.4387256-.4289086-.0969486-.6791169-.3966288-.7567393-.8119783-.0515564-.2758674-.0685797-.5697407-.0358234-.8478812.1804672-1.5322788.3713866-3.0634657.5768479-4.5925979.3327739-2.4767711.4127092-4.9575822.3084747-7.4568063-.1692904-4.0589189-.2577323-8.1212424-.3696198-12.1824245-.0111173-.403597.0262348-.8131397.0879556-1.2126868.0507027-.3283369.1966964-.6311836.5723712-.713382.3693617-.0807988.6628877.097435.8234927.3918742.2636582.4833634.5099258.9862318.6824124,1.5077017,1.2616127,3.8140806,1.3967274,7.7614495,1.3505411,11.7282836-.0031466.2707157-.000407.541481-.000407.8122265.0213511.0020051.0426923.0040102.0640435.0060152Z" stroke-width="0"/>
      <path d="m101.038825,90.7909958c-2.3586004.0006948-4.6750544-.4011154-7.0076384-.6052565-2.2220365-.1944531-4.318686-.8773519-6.4227603-1.5424134-.5571544-.1760997-.870354-.5134099-.8246441-.8297064.0449158-.3107478.3770644-.5599139.9835219-.5445581,1.2706852.0321607,2.5397724.1325537,3.8090878.2119827.9866487.0617406,1.9719077.1759508,2.9590725.1934109,2.2743275.0402207,4.5499949.0097673,6.8240147.0590506,1.3784831.0298777,2.7549116.154957,4.1322433.2375127,2.8499345.170819,5.6809598-.0362106,8.5130571-.3544229.9574956-.1075597,1.9406502-.0172913,2.9098587.029034.282905.0135293.5767982.1538056.8325453.2956799.3839531.2129852.4207394.4735961.0660287.7184443-.4290079.2961365-.8918044.6255257-1.3847465.7306634-1.2264345.2615836-2.4722746.4803658-3.7211521.5782077-2.4297212.1903239-4.8680583.2675195-7.3004398.4277969-1.4583489.0961049-2.9121814.2607399-4.3680487.3945741Z" stroke-width="0"/>
      <path d="m82.1845537,63.5062826c-.1019216.6825811-.2685617,1.4155474-.3125048,2.1557895-.2631123,4.432519-.1585106,8.8394088.5560625,13.2456235.4415942,2.7230288,1.2674791,5.2829016,2.340108,7.7931933.1209699.2831134.2242911.5867045.2614347.8899085.0687485.5610851-.2009349.8632171-.7639656.9342783-.5559732.0701778-1.033242-.1206721-1.3851833-.5303042-.3686172-.4290377-.6987012-.8957848-1.0075829-1.3707805-2.1977572-3.3795538-3.0090407-7.144778-2.9315473-11.1104805.0589811-3.0177459.0946954-6.0451797.5889776-9.036274.1565055-.947093.381283-1.8833069.5908735-2.8209204.0525689-.23519.1478995-.4662706.2572261-.6822139.2459698-.4858053.6944131-.7139676,1.1250092-.5986953.4395693.1176744.6970733.5236735.6810922,1.1308755Z" stroke-width="0"/>
      <path d="m95.8623019,35.4404863c-.1664614.5133503-.2509825,1.0037961-.4766335,1.4172298-.3585918.6570709-1.087806.8608497-1.7083686.4453017-.4213151-.2821258-.846422-.6846309-1.0545832-1.1331982-.4538431-.977998-.8169712-2.0054382-1.1339129-3.0382235-.8899581-2.9000616-1.6968741-5.8260998-2.6185959-8.7157241-.4928131-1.5449743-1.135511-3.043802-1.7453832-4.5493597-.7779217-1.9204803-1.5874086-3.8282452-2.3914956-5.7380301-.2048657-.4865646-.4512226-.9555674-.6596319-1.4407523-.2435478-.5670011-.1310449-1.0454362.2806815-1.2980665.4043017-.2480766.9138007-.1389114,1.2981211.3205549.2420887.2894165.4570294.6066313.6489017.9321616,1.816494,3.081973,3.5912487,6.1861955,5.0628093,9.4536435.472673,1.049496.9762858,2.0853436,1.4798092,3.1206006,1.070326,2.2005713,1.5784056,4.5792076,2.2004273,6.9211718.2910147,1.095737.5462257,2.2009881.8178546,3.3026907Z" stroke-width="0"/>
      <path d="m66.3656024,49.5467659c-.4796411-.0757414-.9615703-.1395516-1.438169-.2311451-.3584975-.0688974-.6367621-.2635341-.675747-.6577906-.0386077-.3904548.1875743-.649532.522537-.7891978.5488214-.2288224,1.0945905-.5071217,1.6701281-.6226024,2.8981458-.5815032,5.6248076-1.6879952,8.4036412-2.6435254,3.7907641-1.3034812,7.6098078-2.5245407,11.4112724-3.7972707,1.8491114-.6190985,3.6824004-1.2854851,5.5306978-1.9071148.4305067-.1447877.8909209-.2573998,1.34127-.2722145.5783765-.0190235.780979.3803896.4491679.85745-.1693698.2435081-.4310527.4588161-.6982644.5922681-1.4536836.7260576-2.9238248,1.4190811-4.3850224,2.1301999-2.2531947,1.0965608-4.5274229,2.1530449-6.7496282,3.309381-3.034402,1.5789763-6.2852634,2.4985243-9.5774274,3.3104927-.7883442.1944333-1.5851752.3899535-2.3897089.4747624-1.1298432.1191038-2.2705406.1351742-3.4065926.1953068-.0027198.0169985-.0054395.034002-.0081543.0510005Z" stroke-width="0"/>
    </g>
  </g>
</svg>