<?xml version="1.0" encoding="UTF-8"?>
<svg id="Layer_2" data-name="Layer 2" xmlns="http://www.w3.org/2000/svg" viewBox="0 0 108.2912371 101.2109322">
  <g id="Layer_1-2" data-name="Layer 1">
    <g>
      <path d="m9.7232392,30.207292c-.1202109-.0706871-.2193126-.1416067-.3281536-.1911056-2.4391943-1.1092664-3.2031068-4.6937028-1.7448365-6.9246245.6975765-1.067213,1.7165293-1.5452969,2.9582733-1.3403294.7124783.1176142,1.39956.426084,2.0791036.6963479.7820995.3110518,1.5270796.7194051,2.3171026,1.005683,1.3585862.4923018,1.8769203.0556138,1.638486-1.3567659-.2423232-1.4353498-.5615046-2.8584744-.7748924-4.2976435-.1134549-.7651896-.1780005-1.5660383-.0825745-2.3279961.2114809-1.6887047,1.4872149-2.6715444,3.1843729-2.569645,1.415775.0850061,2.607331.7362367,3.7490697,1.5079717.1902047.1285592.3841805.2518939.5807313.3704776.0477253.0287992.1125953.0291922.2251422.0557541.0198661-.2003692.0506673-.3753613.0523577-.5506306.010652-1.1033409-.2562559-2.1506614-.6077218-3.1893042-.2444222-.7223048-.5112259-1.4598595-.5936193-2.2097696-.2261286-2.0582954,1.2665573-3.3808918,3.2701559-2.8744613.9557517.2415776,1.8578166.7002712,2.7779787,1.0758806.4532943.185032.889983.4103129,1.3387362.6070096.3753268.1645141.6834521.0531383.8293853-.3197152.1262509-.3225497.2211512-.6713262.2502445-1.0152541.0787766-.930936.0955719-1.8670746.1722122-2.7982465.1933374-2.3484863,1.7019213-3.7258329,3.9272598-3.5450821.6023972.0489285,1.2217223.1952641,1.7785007.4279539.8301492.3469331,1.65338.7459596,2.4068488,1.2348807,3.6334699,2.3577556,6.3495837,5.5443533,8.3490987,9.3684808,1.986609,3.7994273,3.5655945,7.7683292,5.0051907,11.8006478,1.3705683,3.8389575,2.8177092,7.6505729,4.1881515,11.4895756.3894709,1.0910304.6244169,2.2369214.9429484,3.3540335.0321734.1128303.132498.2353939.2351416.2944591,1.061423.6108044,2.1390394,1.1938605,3.1936867,1.8159234,1.0382564.6123973,2.1287956.7674315,3.3173916.6027451,3.3395945-.4627234,6.5091407-1.3832862,9.5025571-2.9937754,3.0234349-1.6266451,6.1459483-3.0588938,9.4874914-3.9560305,2.8122112-.7550248,5.6205979-1.5292839,8.4081436-2.3697788,2.7506888-.829385,5.5596819-1.0865447,8.4068268-1.0253341,2.2772896.0489567,4.3091506.7885905,5.9235727,2.4455171.9470929.9720176,1.4823668,2.1485428,1.0716736,3.5207247-.4453292,1.4878994-1.0267618,2.9257437-2.3082428,3.941635-.2389987.1894688-.4445567.4217513-.6613752.6384436-.4180884.4178515-.404117.4415572.0418.8562613.9299062.8648066,1.8697224,1.7211192,2.7580338,2.6274125.3466008.3536149.6096093.8102281.8347347,1.2581024.8652528,1.7213823.531316,3.2896665-1.0279558,4.4291343-.7079155.5173196-1.5442749.8635786-2.3365337,1.2590664-.5025813.2508878-1.0312493.4495301-1.6359754.7093.2136588.2863145.3622644.5092086.5344656.7120717.7237344.8525523,1.4967324,1.6672968,2.1685718,2.5585414.4845358.6427778.9126208,1.3518125,1.2344636,2.0886917.7164961,1.6404108.3170815,3.1509599-1.1432473,4.1807271-.6228129.4391816-1.3754616.7362368-2.1105728.9641272-1.0514004.3259413-2.1483211.5018116-3.2119051.792598-1.0367391.2834453-1.184699.5472262-1.0802602,1.628295.113568,1.1754818.5363708,2.2559548.9806016,3.337949.7208943,1.7558229,1.4288045,3.5185606,2.0743473,5.3029311.241861.6685223.3463437,1.4000301.4232701,2.1125519.2788714,2.5830963-1.4475922,4.4857779-4.0357368,4.3799371-1.0951066-.0447722-2.1814114-.3031212-3.2719145-.46305-.3863644-.0566674-.7733111-.1093767-1.2475877-.1762475.0709101.2883075.1037689.4785719.1645038.6594601.3317366.9881054.7118826,1.9621744.9943904,2.9639267.2609576.9253237.5141563,1.870459.6049886,2.8226942.2274119,2.3840119-1.6128752,4.0258214-3.9521569,3.5005671-.9101319-.2043459-1.7735357-.6524155-2.629543-1.051047-.6925464-.3224902-1.3393618-.7423781-2.0127982-1.1073699-.1531505-.0829949-.3324221-.1177825-.5636449-.1965567-.0153487.2603933-.051308.4544552-.0336918.6435333.076704.8234862.1668269,1.645767.2564101,2.4680127.0547542.5026522.1381669,1.0030003.172955,1.5068586.1700393,2.4631568-1.7023592,4.1800707-4.140065,3.7458695-.8080368-.1439103-1.5843592-.4640912-2.3766731-.698672-.5278822-.1562984-1.0549-.3176767-1.5887609-.45094-.4744703-.1184276-.7880375.109274-.8943162.5606195-.1011344.4294748-.1683964.8728043-.1924074,1.3132243-.0383491.7033014-.005371,1.410481-.0437446,2.1137882-.0918185,1.6830398-1.1496462,2.8676063-2.8146434,3.1553382-1.2777411.2208102-2.5289152.0781877-3.6596415-.556264-1.1199077-.6284028-2.2108373-1.3196362-3.2599694-2.060511-1.8702495-1.3207265-3.5569034-2.8615042-5.1438087-4.5109849-3.0334736-3.1530701-4.8464777-6.8511714-5.0960827-11.2698061-.0707882-1.2532253-.2453753-2.5008374-.3811091-3.750078-.3253021-2.993983-1.2377407-5.8395957-2.1959105-8.6739894-.2501051-.7398492-.5111511-1.4791426-.7011849-2.2352943-.2086728-.8303242-.0105066-1.378107.486277-1.6197783.5044472-.2454002,1.1469544-.0590267,1.6602651.5552055.3217441.3849772.5876646.8216386.8436974,1.2557126,1.8396873,3.1189957,2.8425841,6.4933958,3.1254469,10.1008367.096864,1.2353948.3054169,2.4637389.4996237,3.6894932.5365296,3.386299,1.9187118,6.4009425,4.1853305,8.9644824,1.9184714,2.1697702,3.9509899,4.2374423,6.2700589,5.9951833.3284109.2489187.6817113.4712244,1.0450403.6655555.2246393.1201367.4850278.1995414.7381243.2353471.6780111.0959414.947053-.1193452.9894669-.7926496.0548975-.8714531.0379939-1.7494689.1315361-2.6160701.3056464-2.8315418,2.6035527-4.596982,5.4050521-4.0983923.9394685.1671997,1.8390924.5623503,2.7535674.8635099.2759029.0908534.5375695.2241128.8110429.3234029.3477719.1262621.5501177-.0243896.5575867-.375117.009089-.4274443-.0161004-.8568065-.0483762-1.2836879-.0773525-1.0230383-.2377902-2.0450809-.2381184-3.0675573-.0006992-2.2295951,1.543896-3.6520592,3.6299219-3.3906928.4803815.0601899.9894419.1635232,1.4075819.3903101.8033265.435679,1.5556683.9668928,2.320087,1.4722075.4588322.3033261.8874358.6542017,1.357093.9383015.1600599.0968083.461879.1402251.5925764.051459.1198547-.0813921.1788441-.4013632.1228304-.5687468-.3781802-1.1301456-.767683-2.258118-1.2063632-3.3658672-.3323744-.8393181-.7937698-1.6287219-1.108751-2.473522-.7601131-2.038693.1270104-3.6771466,2.2339455-4.2199898,1.1710831-.3017273,2.3409807-.2296131,3.5082655.0205291.6744507.144524,1.3427123.3204899,2.0203608.4469062.991411.1849615,1.3653023-.1462691,1.2482233-1.1562674-.1662077-1.4337968-.7451443-2.7437976-1.3231023-4.0479605-.5586251-1.2605372-1.1997736-2.4899279-1.6722087-3.7814559-.3433507-.9386259-.5645905-1.9460844-.671738-2.9410082-.1432262-1.3299483.4462768-2.4074334,1.4979633-3.2312568,1.218817-.9547522,2.6300556-1.3539649,4.1473692-1.4359492.6115836-.0330488,1.2259298-.0131442,1.8378897-.0416164.8962391-.0416923,1.3516635-.7706949.8844173-1.5287213-.3639186-.5903958-.8484372-1.1219046-1.347444-1.6099767-.7549401-.7383787-1.5934354-1.3913554-2.3479855-2.1301035-.3883737-.3802364-.7337835-.8341696-.9914133-1.3125346-.7663298-1.4229276-.4068167-2.9644961.9608369-3.8230584.7143786-.448455,1.5487464-.7165446,2.3477135-1.0159411.6008803-.2251562,1.2443852-.3362557,1.8460592-.5596787.8023756-.2979519,1.0062801-.8451188.5240955-1.5526563-.2633851-.3864843-.678405-.6996076-1.0836101-.9516643-.4778255-.2972354-1.029682-.4725687-1.5293779-.7384465-.4176795-.2222367-.8299868-.468263-1.2039816-.756545-1.6247256-1.2523461-1.9075716-3.1536659-.6501366-4.7739486.5207663-.6710458,1.1947794-1.225214,1.814786-1.8160781.2194526-.2091314.2647175-.3896335.2310885-.7120875-.1220918-1.1705888-.9846084-1.5458432-1.8979427-1.7739663-.7322963-.1829048-1.5182164-.2456498-2.2753194-.2190319-4.2868525.1506946-8.4542417.9820951-12.5344086,2.286703-3.9417282,1.2603485-7.6740329,3.0095007-11.3509628,4.8796412-2.5590203,1.3015447-5.1900326,2.3563698-8.0543643,2.7486053-2.8967162.3966886-5.6535865.0675026-8.0321266-1.770627-.8483246-.6555791-1.6583632-1.4465206-2.2386176-2.3368299-.4899991-.7518193-.9578511-1.4418131-1.6558972-2.0299688-.9700976-.8173877-1.5726943-1.9453811-2.1665716-3.0592378-1.6999532-3.1883703-2.9904613-6.5531516-4.2338752-9.933289-1.2335086-3.3532325-2.4813889-6.6971896-3.9998179-9.935058-1.4818179-3.1597774-3.3675666-6.0497282-5.7205995-8.628425-1.0837243-1.1876614-2.3258288-2.1823124-3.7914442-2.863919-1.0784616-.5015561-1.2289155-.4164807-1.5012998.7244053-.2595996,1.0873018-.4747055,2.1867887-.7761873,3.2621813-.4669094,1.6655176-2.1759669,3.3368505-4.7025494,2.2886794-.6789727-.2816773-1.3464949-.5909013-2.025257-.8731288-.3304864-.1374225-.6747023-.2417968-1.0893439-.3881842-.0072214.345352-.0341936.5864874-.0135952.8234946.1167208,1.3427801.2911311,2.6825512.3498767,4.0275462.0300923.6891243-.0588354,1.4088343-.2390094,2.0755202-.2418167.8947819-.9412952,1.3157141-1.85714,1.3850703-1.0310464.0780929-2.0096912-.1493389-2.971952-.4867646-.2600759-.0911905-.5197338-.1900178-.7873034-.2519491-.4987471-.1154297-.6355412-.0050349-.5784297.4942281.0696228.6085893.1897833,1.2112817.2647569,1.8193918.1574015,1.2765336.362644,2.551362.4353856,3.83329.1718981,3.0292825-2.1651304,4.8460799-5.0419547,4.3170457-1.0485796-.1928239-2.0654078-.5645687-3.0909499-.8738746-.5742901-.173204-.6597243-.1578804-.693964.4291441-.0282573.4843933-.0009844.9787889.0652315,1.4600058.0644514.4684562.2241676.9229515.3157109,1.3887512.1158508.5896196.2920371,1.0674988.8448078,1.471052.9901532.7228771,1.0039346,2.1698174.1567068,3.1543133-.4783387.5558232-1.1000512.8891679-1.7971541,1.052298-.7445556.174237-1.5042552.2839345-2.2575869.4203713-.2059039.0372895-.4127474.0694196-.6191471.1039214-.0491501.0483618-.0982905.0967317-.1474296.1450961.0978324.0730716.2071421.1349561.2913194.2213544.2352198.2414322.4503888.5028091.6905782.7389248,1.1051712,1.0864245,1.3819776,2.4087088,1.1367137,3.8900703-.1492507.901544-.5893449,1.6178461-1.3817508,2.0680578-.610812.3470386-1.2754099.5984235-1.8937058.9336186-.5617559.3045499-1.1330789.6154193-1.6276368,1.013591-.5552179.447007-.5656073.8051958-.1680238,1.4033349.6526423.9817874,1.3532036,1.9331387,1.97445,2.9340102.6163687.9930407,1.0810471,2.0599715,1.2795133,3.2290364.2102382,1.2384096-.1414301,2.2976315-1.0760333,3.1075556-.5853924.5073056-1.2685229.9036468-1.9178159,1.3346926-.3696196.2453794-.7743451.4391882-1.136467.6942512-.5029949.354291-.5406208.5228098-.1882746,1.0191851.4342068.6117029.9076357,1.1958952,1.3716199,1.7860841.4640728.5903021.9527906,1.1618707,1.400803,1.7639108.2639359.3546867.4764307.7487209.700254,1.1319539.5636519.9651054.4551744,1.8566657-.2609717,2.7137635-.4212875.5041923-.7813036,1.0594162-1.1726557,1.5888899-.2212463.2992937-.2174157.5978658.0000228.8897101.2376985.3190646.4933938.624737.7305823.9441542.2825741.3805667.5530893.7700432.8304287,1.1545082.0796028.1103762.1418726.2623236.2512359.3171372.4824324.2417989.460085.5613962.2403436.9846831-.6308659,1.2151554-1.8943828,1.6962664-3.1986064,1.1076581-1.3989661-.631365-2.331424-1.7421752-2.7933845-3.1898309-.3495424-1.0954798.0281137-2.0808714.8342276-2.8490738.7858314-.7488892,1.6477836-1.4180115,2.4783138-2.1198034.1730129-.1461994.3547575-.2820779.5950531-.472227-.3926524-.4173443-.7290488-.8330406-1.1244909-1.181812-.6198092-.5466353-1.2937956-1.0315764-1.9181278-1.5734185-.5885084-.5107641-1.2069828-1.0081114-1.6990468-1.6047544-1.2534525-1.5198606-1.0285539-3.3654808.6019035-4.4713856.7969584-.5405766,1.7540078-.8471901,2.644004-1.2476971.4590046-.2065636.9369178-.3717244,1.3927622-.5845483.2876483-.1343037.3590258-.3857077.2719039-.6974421-.3693895-1.3216901-.9420466-2.5258024-1.9693323-3.4733107-.5069609-.4675798-1.028415-.920433-1.5186967-1.4048654-1.4327583-1.4156283-1.5354902-3.2142647-.2732896-4.7962518.8798808-1.1028099,2.0332891-1.7994311,3.3762732-2.1969167.4114211-.1217743.8303325-.2209285,1.2356132-.3601417.8284467-.2846,1.0335983-1.2138368.3928183-1.8233468-.3205609-.3049107-.6906209-.557879-1.0392461-.8331362-.1322892-.1044673-.2693471-.2029535-.4006846-.3085691-1.7787155-1.4302087-1.6536292-3.7144617.2705655-4.9659523.8539481-.5554317,1.8176138-.7126361,2.8065507-.759441.3780327-.0178932.6697341-.0524926.7295452-.5375262.0289701-.2349359.2432923-.4470144.3998387-.7140353Z" stroke-width="0"/>
      <path d="m49.7665348,58.2756838c1.9001902.5340728,3.8089703,2.0554931,5.3737064,4.062384.1208316.1549702.2123724.3392179.2876041.5221545.2706704.6582589.2573515,1.2979825-.2339236,1.8516467-.4925687.5551125-1.1354818.6628734-1.8087616.435262-.4156655-.1405089-.8135608-.358757-1.1870714-.5935851-.7653251-.4811633-1.5252344-.9743732-2.2572148-1.5042886-.916567-.6635573-1.933083-.9588041-3.0507045-1.0056366-2.9236647-.1225207-5.6432396.4773144-8.1683109,2.0297865-2.2443047,1.3798693-4.5481086,2.6665897-6.859107,3.9333959-2.8769101,1.5770376-6.0493855,2.438326-9.0757401,3.6544607-3.1741107,1.2755058-6.4478879,1.530402-9.8028134,1.2077507-.4998985-.0480795-1.0044749-.1418405-1.4834685-.290131-.6608809-.2045998-1.0628695-.7716087-1.0837695-1.3976156-.0217985-.6521648.3546736-1.2363959,1.0211487-1.49246.3393534-.1303842.7059984-.2096691,1.0675436-.2583511.8047715-.1083703,1.6120654-.2216598,2.4219463-.264473,3.1669852-.1674563,6.1234763-1.1188048,9.0628334-2.2402553,4.6384817-1.7697233,8.9138956-4.2113902,13.1524852-6.7516066,3.5409421-2.1221055,8.3772676-2.8900418,12.6236175-1.8984382Z" stroke-width="0"/>
      <path d="m62.0035051,54.5572188c3.1782888.8466679,5.8834703,1.9234572,8.5914529,2.9963218,1.8661588.7393476,3.7493445,1.4358057,5.6263077,2.1477773,1.1174669.4238822,2.1204234,1.031871,2.9835624,1.8593638.1856519.1779862.3591828.3839896.4838324.6074713.4364194.7824595.0658406,1.5770156-.8122088,1.7426645-1.3692984.2583387-2.7295396.1600029-4.0410742-.2802855-3.5486102-1.1912584-6.9833411-2.6626185-10.3943199-4.2037995-2.7337151-1.2351782-5.2574104-2.7608206-7.5099549-4.7379893-.0804831-.0706441-.1978943-.1191719-.2422874-.2064022-.0704652-.138486-.1631044-.3280517-.1171914-.4454801.0440772-.1127048.2520538-.2240837.3887395-.2249868.3030247-.0019952.6074418.0595473.9096456.1059045,1.4991508.2299885,2.9977689.4634565,4.1334962.6394403Z" stroke-width="0"/>
      <path d="m44.6424233,48.8365513c-3.6855935-.7857898-7.1187512-2.2352686-10.4170975-4.0300286-1.4529796-.7906278-2.8924157-1.60941-4.3728376-2.3453529-1.5213642-.7562828-2.6568664-1.954301-3.8034909-3.1431249-.5505867-.5708437-.2957922-1.2303997.55322-1.3984946,1.5517065-.3072071,3.1042605-.2703535,4.5283836.4872931,4.636174,2.4664776,9.3396872,4.8178377,13.6041416,7.9275992,1.2479827.9100587,2.5658046,1.7243717,3.851892,2.5821293.1017687.0678804.240243.1102118.3003907.2037907.0803008.1249674.150843.2979315.1257713.4315383-.0128365.0683707-.2494989.1481469-.3737686.1326391-.4703105-.0586725-.9397452-.1374313-1.4026699-.2396189-.8671548-.1914054-1.7295561-.4043699-2.5939347-.6083699Z" stroke-width="0"/>
    </g>
  </g>
</svg>