<?xml version="1.0" encoding="UTF-8"?>
<svg id="Layer_2" data-name="Layer 2" xmlns="http://www.w3.org/2000/svg" viewBox="0 0 166.6756535 300.2408661">
  <g id="Layer_1-2" data-name="Layer 1">
    <path d="m70.903187,259.8906081c1.4228516-1.9101562,2.8457031-3.8200684,4.2480469-5.7402344,4.5483398-6.2304688,9.8120117-12.5058594,15.6445312-18.652832,4.2080078-4.4355469,7.5864258-9.3549805,10.0390625-14.6218262.6337891-1.3598633,1.1430664-2.8022461,1.6357422-4.1967773.4614258-1.3054199.9384766-2.6569824,1.5195312-3.9492188,1.5986328-3.5546875,1.6083984-6.6447754.03125-9.7233887-.0981445-.1918945-.1635742-.3635254-.1982422-.5256348l-.1586914-.7355957c-.1757812-.8088379-.3569336-1.644043-.4980469-2.4724121-.0649414-.3813477-.0922852-.765625-.1186523-1.1367188-.0234375-.3308105-.0463867-.6618652-.0976562-.9907227-.1157227-.7507324-.2426758-1.4995117-.3696289-2.2492676-.1938477-1.1442871-.3945312-2.3269043-.550293-3.4956055-.0512695-.3813477-.0102539-.7583008.0288086-1.1218262.0380859-.3503418.0737305-.682373.0288086-.9970703-.2363281-1.6477051.0029297-3.189209.7324219-4.7111816.4711914-.986084.9589844-1.9663086,1.4462891-2.9475098,1.0239258-2.059082,2.0830078-4.189209,2.9667969-6.331543.7724609-1.8735352,1.4296875-3.8273926,2.0649414-5.7167969.4575195-1.3608398.9301758-2.7685547,1.4443359-4.1386719.9213867-2.4562988,1.2988281-4.9211426,1.1225586-7.3249512-.2001953-2.7150879-.496582-5.4760742-.7836914-8.1469727-.1245117-1.1508789-.2480469-2.3027344-.3652344-3.4543457l-.1645508-1.4938965.5375977.3862305c1.9038086,1.3671875,3.7133789,2.753418,4.9272461,4.6762695.1904297.3017578.3759766.6054688.5615234.9101562.5224609.8564453,1.0625,1.7431641,1.699707,2.5405273.8530273,1.0666504,1.2963867,2.0712891,1.3955078,3.1601562.0380859.4199219.1342773.8481445.2231445,1.2119141.8837891,3.6184082,1.0805664,7.2810059.6010742,11.1955566-.4580078,3.7524414-1.90625,6.8564453-4.4257812,9.4870605-3.050293,3.1875-5.0068359,6.4926758-5.9814453,10.1064453-.0771484.2868652-.1601562.5756836-.2436523.8662109-.3867188,1.3457031-.7866211,2.7373047-.6362305,4.0390625.4394531,3.8134766,2.6240234,7.083252,6.3173828,9.4533691,1.4541016.9333496,2.6416016,2.0805664,3.6293945,3.505127.1860352.2680664.3662109.5397949.546875.8125.3637695.5493164.7407227,1.1171875,1.1606445,1.6391602,3.2563477,4.0400391,2.8881836,8.5339355,2.2036133,11.9985352-.6171875,3.1218262-2.5517578,5.8378906-4.1679688,7.8547363-.9692383,1.2080078-2.3999023,2.1535645-3.671875,2.9191895-1.9580078,1.1799316-4.0581055,2.2333984-6.0883789,3.2529297l-.309082.1547852c-5.234375,2.6286621-8.7021484,6.5415039-10.3066406,11.6293945-.1455078.4611816-.3041992.918457-.4633789,1.376709-.2768555.7966309-.5629883,1.6193848-.7641602,2.4404297-.097168.3945312-.1220703,1.107666.7973633,1.4499512.7060547.2651367,1.1655273-.0273438,1.6748047-.5830078.3662109-.3994141.7290039-.800293,1.0917969-1.2006836.706543-.7797852,1.4121094-1.5583496,2.1362305-2.3242188,2.2851562-2.4130859,4.359375-3.8977051,6.7275391-4.814209,3.6704102-1.4206543,6.9916992-2.6193848,10.1547852-3.6652832,2.6723633-.8837891,4.6450195-1.8696289,6.2075195-3.1020508.3378906-.2661133.6162109-.5922852.9111328-.9372559.2924805-.342041.5952148-.6962891.9658203-.9943848,4.050293-3.2519531,6.6635742-7.3154297,7.9892578-12.4240723l.0229492-.0881348c.7490234-2.8847656,1.5224609-5.8676758-.1484375-8.6650391-1.0634766-1.7797852-2.4575195-3.4658203-3.8056641-5.0964355-.3481445-.4208984-.6958008-.8415527-1.0380859-1.2634277-.25-.3083496-.6103516-.5585938-.9921875-.8237305-.293457-.2043457-.597168-.4152832-.8603516-.6625977-.2231445-.2089844-.4580078-.4160156-.6943359-.6240234-.7636719-.6711426-1.5532227-1.3647461-1.9916992-2.2053223-.8125-1.5556641-1.4399414-3.3139648-1.8652344-5.223877-.6245117-2.8032227-.1381836-5.5817871.3320312-8.2687988l.125-.7150879c.7368164-4.2875977,1.2011719-7.9086914,1.0712891-11.6416016-.0825195-2.3935547-.9638672-4.6662598-1.7827148-6.6088867-1.1899414-2.8210449-.4902344-5.2211914,2.0795898-7.1337891,2.2314453-1.6616211,3.9716797-3.8679199,5.3208008-6.7451172.8364258-1.7832031,1.5537109-3.5488281,1.1508789-5.5366211-.6821289-3.3654785-2.2734375-5.4104004-5.1606445-6.6325684-.9458008-.401123-1.8779297-.8566895-2.7792969-1.2980957-.6044922-.295166-1.2084961-.5913086-1.8208008-.8723145l-.1835938-.0844727c-1.862793-.8557129-3.7885742-1.7392578-5.2021484-3.2370605-1.0380859-1.1000977-2.0351562-2.2556152-2.9990234-3.3747559l-.7202148-.8330078c-.1948242-.2241211-.3046875-.5341797-.2802734-.7893066.050293-.5368652.1176758-1.0720215.1855469-1.6081543.0541992-.4301758.1083984-.8601074.1538086-1.2922363.1650391-1.5791016.7700195-3.0356445,1.7983398-4.329834,1.625-4.4731445-1.1328125-11.2001953-3.1479492-16.1166992-1.5322266-3.7365723-2.2988281-5.7224121-1.609375-6.5021973.1108398-.1245117.2592773-.177002.4155273-.1601562.5400391.0749512,1.0566406,1.1105957,2.2768555,3.6540527,1.8251953,3.8078613,4.5849609,9.5620117,7.7387695,10.3791504.9018555.2333984,1.7714844.046875,2.6503906-.5771484l.1557617-.1098633.4472656.2587891c.1508789.0861816.2548828.1462402.3515625.213623,1.9770508,1.3991699,4.2729492,2.3859863,6.8237305,2.9343262,5.0087891,1.0722656,8.1259766.940918,13.355957-2.6972656,1.4863281-1.6418457,2.1865234-3.3146973,2.0317383-4.9294434-.1982422-2.0571289-1.7036133-3.3823242-2.3413086-3.8574219-3.5341797-2.6279297-5.5317383-6.0344238-6.1064453-10.4138184l-.0961914-.7312012c-.2319336-1.7749023-.472168-3.6101074-.7783203-5.4055176-.0483398-.2849121-.078125-.6467285.125-.9279785.2128906-.2932129.6035156-.3869629.9584961-.4404297,3.237793-.4882812,6.5317383-.3823242,9.3271484-.2145996,2.2241211.1313477,4.0253906-.2099609,5.5019531-1.0524902,1.7446289-.9953613,3.1220703-2.2258301,4.0932617-3.6577148,1.9682617-2.9035645,3.0610352-5.967041,3.2470703-9.1047363.0961914-1.6166992.4155273-3.6794434,2.0488281-5.2958984,1.3642578-1.3505859,1.5805664-3.2915039,1.8105469-5.3457031.1782227-1.6044922.3632812-3.2634277,1.1508789-4.612793.5297852-.9082031.5-1.8286133-.0913086-2.8134766-.2885742-.480957-.4296875-.9111328-.418457-1.2783203.0698242-2.4047852-1.4663086-3.529541-3.7944336-4.4780273-.9038086-.3681641-2.0595703-.0673828-2.8100586.7329102-.0532227.0571289-.1049805.1201172-.1577148.1838379-.1782227.2145996-.3803711.4592285-.6796875.5612793-.6025391.2033691-1.5913086.3393555-2.7363281.4975586-2.753418.3806152-6.5244141.9008789-7.6572266,2.729248l-.1142578.1835938-.2104492-.0544434c-.9804688-.2539062-2.2451172-.5236816-3.3261719-.3747559-2.2197266.3103027-4.362793.7751465-6.3701172,1.3813477-7.3662109,2.223877-13.6899414,2.5549316-19.9013672,1.0432129-.4492188-.1088867-.9003906-.2119141-1.3510742-.315918-2.3496094-.5378418-4.7792969-1.09375-6.8349609-2.5246582-.6777344-.4714355-1.3579102-.9401855-2.0385742-1.4086914-.715332-.4929199-1.4306641-.9858398-2.144043-1.482666-.1079102-.0749512-.1708984-.1733398-.237793-.2783203-.0317383-.0495605-.0688477-.1066895-.1181641-.1743164l-.402832-.5510254.9765625.1218262c.2880859.0356445.5131836.0637207.7382812.09375.8735352.1171875,1.746582.2380371,2.6201172.3588867,1.875.2587891,3.8139648.5258789,5.7236328.753418,3.3891602.4020996,7.8417969.7685547,12.2338867.0058594.4804688-.0834961.9946289-.0170898,1.5234375.0634766.7026367.1069336,1.4042969.2297363,2.1054688.3535156,1.237793.2182617,2.5175781.4433594,3.7788086.564209,5.6118164.5358887,10.3725586-.6843262,14.1450195-3.6259766,2.6083984-2.034668,4.9467773-4.4262695,7.0102539-6.5358887.5527344-.564209.8979492-1.2885742,1.2636719-2.0544434.1586914-.3327637.3178711-.6652832.4931641-.9838867.0932617-.1677246.1708984-.3439941.2485352-.5202637.1357422-.307373.2763672-.6259766.4951172-.9128418,1.1245117-1.4741211,1.2709961-2.9343262.4472656-4.463623-.0639648-.1191406-.1083984-.2456055-.152832-.3769531l-.1982422-.53125.3974609-.0270996c1.4638672-.0974121,2.1689453-.7658691,2.2207031-2.1013184.0610352-1.5996094-.625-3.223877-1.9335938-4.5732422-1.5351562-1.5839844-3.7177734-2.5258789-5.8481445-2.5258789h-.0527344c-.9633789.0075684-1.9448242.1022949-2.8935547.1931152-.7807617.0749512-1.5874023.152832-2.3886719.1828613-1.6914062.0627441-3.3647461.1254883-4.9951172-.059082-3.2661133-.3657227-5.1582031-2.2736816-5.1904297-5.236084-.0019531-.1828613.0053711-.3693848.012207-.5566406.019043-.4724121.0361328-.9194336-.1000977-1.3122559-.2451172-.7045898-.1049805-1.2556152.1801758-1.8666992l.8256836-1.753418c.8793945-1.8613281,1.7875977-3.7854004,2.6137695-5.7009277.6884766-1.5942383.2949219-3.1628418-1.1376953-4.5368652-.3110352-.2980957-.6806641-.5493164-1.0717773-.8154297-.293457-.199707-.5874023-.3991699-.8574219-.6193848-.2788086-.2277832-.5385742-.6391602-.4960938-.9868164.0996094-.8181152-.0688477-1.9128418-1.4375-2.4846191-.9350586-.388916-2.0410156-.6484375-3.1142578-.7299805-2.5649414-.2023926-5.1782227.2370605-7.9902344,1.3261719-6.8730469,2.6616211-12.1035156,6.3596191-15.9912109,11.3051758-2.6279297,3.34375-5.206543,7.0410156-6.2685547,11.4174805-.671875,2.7675781-1.9174805,5.6606445-3.8066406,8.8442383-1.7558594,2.9587402-4.3476562,5.1340332-7.703125,6.4658203-.7348633.2932129-1.2319336.1040039-1.7958984-.293457-1.0449219-.7375488-2.0756836-1.4321289-3.1992188-1.8200684-1.4423828-.4985352-3.4990234-.7441406-5.0986328.9128418-.4892578.5097656-.9384766.2839355-1.2661133.1181641l-.0751953-.0375977c-3.9633789-1.9614258-7.3212891-1.201416-9.453125,2.1396484-.4067383.637207-.7792969,1.072998-1.2753906,1.1347656-.512207.0722656-1.0117188-.2895508-1.6020508-.8442383-.6630859-.623291-1.203125-1.4367676-1.4804688-2.2314453-.3217773-.9230957-.5136719-1.9709473-.5874023-3.203125-.0273438-.4545898-.0512695-.9091797-.074707-1.3637695-.1455078-2.7973633-.2958984-5.6894531-1.3618164-8.4384766-.0791016-.201416-.0878906-.4150391-.0869141-.5791016.0102539-1.7233887-.7670898-3.2724609-2.2490234-4.4777832-2.7924805-2.2727051-5.6411133-4.4638672-8.4667969-6.5134277-2.8769531-2.0888672-5.2563477-3.4189453-7.7143555-4.3129883-5.5585938-2.0231934-11.2172852-3.4291992-16.8183594-4.1787109-3.2973633-.4433594-6.1577148-.0646973-8.7446289,1.1535645-2.1821289,1.0280762-3.3320312,2.1799316-3.7290039,3.7355957-.0600586.2353516-.2177734.434082-.3642578.5969238-2.0541992,2.28125-2.4462891,4.8696289-1.1650391,7.6943359.3642578.8039551.4082031,1.5800781.1386719,2.4450684-.6630859,2.1274414-1.8764648,3.8395996-3.7084961,5.2333984l-.3256836.2473145c-2.6103516,1.9831543-5.3100586,4.0334473-7.3925781,6.5217285-2.9072266,3.4750977-3.2797852,7.3569336-1.1069336,11.5385742.5131836.9868164,1.2094727,1.5622559,2.1293945,1.7583008.7412109.1582031.8706055.5847168.9399414,1.0083008.3183594,1.9484863-.0576172,3.8752441-1.1831055,6.0654297l-.2099609.4086914c-1.0097656,1.9633789-2.0537109,3.9931641-2.9204102,6.0400391-.9248047,2.1816406-.1386719,4.2697754,2.1030273,5.5856934,2.1074219,1.2370605,4.0244141,2.1713867,5.8598633,2.8574219,3.4448242,1.2875977,7.3295898,1.8808594,11.8886719,1.786377.1875-.0114746.375.0092773.5629883.0231934l.9882812.0563965-.5654297.4797363c-.4135742.3505859-.8349609.5529785-1.2880859.6203613l-1.1469727.1716309c-1.6850586.2539062-3.4272461.5163574-5.1586914.6953125-3.4267578.3532715-6.2866211,1.2756348-8.7441406,2.8181152-5.1694336,3.248291-6.9379883,8.6831055-4.5048828,13.8459473.0854492.1799316.1796875.3786621.1704102.5939941-.0258789.6074219.2905273,1.1455078.996582,1.690918l.6464844.5031738c.9082031.7104492,1.8476562,1.4450684,2.8413086,2.0683594,1.9633789,1.2294922,3.0551758,2.907959,3.5405273,5.4421387.4189453,2.1911621,1.0800781,4.5820312,2.0195312,7.3081055,1.4633789,4.2492676,4.7109375,7.2023926,9.9282227,9.0297852,3.8867188,1.3618164,7.9150391,1.5200195,12.0449219,1.5717773,1.7104492.0205078,3.2558594.3671875,4.7250977,1.0588379l.3173828.1491699c1.9868164.9399414,3.8520508,1.8256836,6.2060547,1.7983398l.590332-.0073242-.3496094.4760742c-.0522461.0710449-.0927734.130127-.1279297.1816406-.0698242.1020508-.125.1835938-.2045898.260498-1.9077148,1.833252-3.1557617,4.0759277-3.8164062,6.859375-.1298828.5463867-.4003906,1.3430176-.953125,2.0344238-4.0307617,5.034668-7.6337891,9.4787598-11.015625,13.5874023-3.6552734,4.4414062-6.1948242,9.0783691-7.7631836,14.1757812-1.5410156,5.0092773-3.159668,10.9555664-3.4790039,17.0771484-.0600586,1.1669922-.0683594,2.3608398-.0756836,3.5146484-.0063477,1.0234375-.0131836,2.0805664-.0566406,3.1206055-.0673828,1.6206055-.1567383,3.2399902-.2451172,4.859375-.1303711,2.3879395-.265625,4.8574219-.328125,7.2875977-.043457,1.6755371-.0371094,3.8713379.3999023,5.9997559.2836914,1.3823242.3969727,2.5678711.3544922,3.730957-.0214844.6071777-.0551758,1.2155762-.0888672,1.8237305-.0859375,1.543457-.1748047,3.1394043-.0527344,4.6916504.1254883,1.5922852.3305664,3.2106934.5288086,4.7766113.3618164,2.8603516.7363281,5.8171387.6474609,8.7607422-.0288086.9550781-.0131836,1.9326172.0024414,2.8771973.0419922,2.5725098.0849609,5.2331543-.7553711,7.802002-.0595703.1799316-.0668945.3937988-.0693359.6157227-.0043945.3261719.1171875.5856934.3417969.7319336.2607422.1706543.628418.166748,1.0087891-.0065918.2480469-.1132812.4638672-.3063965.6923828-.5117188.0771484-.0683594.1542969-.1376953.2324219-.203125.1938477-.1650391.3813477-.3366699.5688477-.5080566.3398438-.3112793.6914062-.6325684,1.0849609-.9108887,2.5957031-1.8342285,4.3964844-3.7797852,5.5078125-5.9445801.0595703-.1162109.1342773-.2248535.2211914-.3496094l.40625-.6120605.230957.4499512c.1289062.2512207.2470703.4995117.3632812.7441406.2563477.5397949.4985352,1.0495605.8212891,1.5078125.4541016.6447754.4619141,1.175293.0288086,1.833252-2.5786133,3.9089355-4.1767578,7.6933594-4.8852539,11.5693359-.128418.7001953-.2524414,1.4020996-.3769531,2.1030273-.2758789,1.5549316-.5610352,3.1621094-.8837891,4.7365723-.934082,4.5500488-.9936523,8.6240234-.1831055,12.4543457,1.0424805,4.9248047,1.2597656,9.8928223.6445312,14.7651367-.2373047,1.8781738-.440918,3.7927246-.6381836,5.6445312-.1679688,1.5717773-.3349609,3.1425781-.5239258,4.7124023-.1186523.9858398-.3740234,1.9680176-.6254883,2.8891602-.2441406.894043-.5029297,1.7844238-.762207,2.6748047-.3393555,1.166748-.6899414,2.3730469-.9985352,3.565918-.2128906.8237305.1376953,1.4367676,1.1035156,1.9296875.6479492.329834,1.2939453.2473145,2.0317383-.2624512.4155273-.2868652.8481445-.6015625,1.1923828-.9606934,1.2216797-1.2697754,2.4272461-2.5517578,3.6328125-3.8330078l2.1782227-2.3186035.1416016.5070801c.1425781.5258789.2792969,1.0478516.4150391,1.5668945.3139648,1.2016602.6098633,2.3364258.9707031,3.4797363.4272461,1.3591309,1.34375,2.5595703,2.8012695,3.6711426,1.1850586.9033203,2.3349609.6210938,3.5063477.2229004.0429688-.013916.121582-.0927734.1601562-.175293.4516602-.9558105.8862305-1.9934082.8125-3.2294922-.1723633-2.8920898-.2304688-5.9519043,1.0849609-8.7756348.6552734-1.4067383,1.4511719-2.7807617,2.2207031-4.1096191l.2827148-.4882812c2.0708008-3.5866699,2.8325195-6.5358887,2.4711914-9.5639648-.0546875-.4562988.5170898-.885498.7416992-1.0129395,1.5698242-.8886719,3.1577148-1.7543945,4.7451172-2.6206055l1.0512695-.5742188c.1005859-.0544434.2089844-.0996094.3564453-.1577148l.9101562-.3803711-.2719727.6616211c-.1503906.3654785-.3139648.7160645-.4736328,1.059082-.3325195.7141113-.6464844,1.388916-.78125,2.0776367-.4101562,2.0993652-.6943359,4.2145996-.8461914,6.2866211-.152832,2.0898438-.6152344,3.9699707-1.4140625,5.7495117-1.0683594,2.3796387-1.4467773,4.4057617-1.190918,6.376709.0395508.307373.1748047.6203613.2426758.6728516.3076172.0712891.8125.0029297,1.0078125-.1508789.71875-.5603027,1.5371094-1.2407227,2.1582031-2.0373535,1.1044922-1.4169922,2.0952148-2.8388672,2.9443359-4.2258301.9672852-1.5810547,1.9155273-3.2080078,2.8330078-4.7824707,1.6879883-2.895752,3.4335938-5.8901367,5.3701172-8.722168,2.7460938-4.0148926,5.7128906-7.9980469,8.5830078-11.8505859Zm35.0078125-94.265625l-.1577148.4921875c-.9570312,2.9960938-1.8334961,6.0710449-2.6806641,9.0456543-.4946289,1.7375488-.9902344,3.4750977-1.503418,5.2070312-.1523438.5144043-.3974609,1.0026855-.65625,1.5200195-.125.2502441-.2568359.5126953-.3867188.7946777l-.2651367.5783691-.2695312-.576416c-.2768555-.5922852-.550293-1.1564941-.8154297-1.7038574-.5566406-1.1479492-1.0825195-2.2331543-1.5249023-3.3391113-.8959961-2.2436523-1.7607422-4.5351562-2.597168-6.7514648-.4086914-1.0834961-.8173828-2.166748-1.2304688-3.248291-1.2353516-3.2304688-1.8676758-6.5996094-2.4799805-9.8581543l-.1723633-.9155273c-.1601562-.8474121-.3520508-1.690918-.5449219-2.5341797-.2304688-1.0112305-.4692383-2.0561523-.6464844-3.09375-.2114258-1.2397461-.4526367-2.8742676-.4389648-4.5219727.012207-1.5507812.2685547-3.1030273.5083008-4.4365234.7783203-4.3354492.3681641-8.6640625-1.253418-13.2338867-.2431641-.6831055-.3701172-1.2802734-.4003906-1.8771973l-.0644531-1.2687988.8955078,1.6164551c.2167969.3928223.4326172.7844238.6557617,1.1743164,1.40625,2.4572754,3.6557617,4.5678711,7.0800781,6.6398926,1.0058594.6091309,2.0258789,1.199707,3.0463867,1.7910156,1.4526367.8415527,2.9541016,1.7114258,4.3911133,2.6220703,1.5864258,1.0075684,2.5014648,2.3881836,2.5761719,3.8876953.1088867,2.190918.171875,4.416748.2329102,6.5686035.0327148,1.1591797.0654297,2.317627.1049805,3.4758301.0195312.5651855.0522461,1.1313477.0849609,1.6962891.0483398.8444824.0991211,1.7180176.1030273,2.5793457.0117188,2.673584-.8032227,5.2133789-1.5908203,7.6696777Zm-19.0966797-71.1420898c-.0092773-.5800781-.0180664-1.1604004-.0141602-1.7385254l-.0004883-.1293945c-.0024414-.2304688-.0058594-.4919434.1074219-.7824707l.2456055-.6259766.2939453.6044922c.0185547.0383301.0405273.0756836.0620117.1132812.0639648.1096191.1367188.2353516.1611328.3862305.2070312,1.3071289.4179688,2.6137695.6293945,3.920166.5634766,3.4787598,1.1459961,7.0766602,1.6313477,10.6228027.2915039,2.1274414-.1303711,4.2126465-.5385742,6.2285156-.1074219.5341797-.2158203,1.0673828-.3110352,1.6025391-.3388672,1.9016113-.5664062,3.8583984-.7866211,5.7514648-.0976562.8388672-.1948242,1.6787109-.3022461,2.5166016l-.0898438.7016602-.7119141.0629883-.2036133-1.1303711c-.1166992-.6455078-.2333984-1.2915039-.3432617-1.9370117l-.3222656-1.8632812c-.3061523-1.7561035-.6225586-3.5715332-.8842773-5.3642578-.1845703-1.2634277-.3266602-2.401123-.199707-3.5258789.2050781-1.8115234.4589844-3.6464844.7045898-5.4204102.2758789-1.9916992.5605469-4.0515137.7768555-6.081543.137207-1.2866211.1157227-2.6203613.0957031-3.9116211Zm37.8388672,110.6601562c.9682617.9477539,1.6225586,1.9775391,2.2617188,3.0385742.4067383.6738281.9516602,1.3146973,1.4790039,1.9350586.1899414.2231445.3798828.4462891.5644531.6721191.2641602.3232422.5820312.6335449.859375.8986816,2.1269531,2.0366211,2.8574219,4.3598633,2.2329102,7.1030273l-.0595703.262207c-.7416992,3.2634277-1.5083008,6.6381836-3.6855469,9.5021973-1.0849609,1.4272461-2.3510742,2.7702637-3.5756836,4.0690918l-.8061523.8586426c-.3222656.3439941-.9057617.5236816-1.3442383.5773926-3.9619141.4863281-7.4633789,1.8188477-10.703125,4.0727539-.6640625.4621582-1.5.8613281-2.4838867,1.1865234-2.8120117.9267578-4.7485352,1.9316406-6.2807617,3.2578125-.1381836.119873-.2993164.1516113-.4423828.1516113-.0688477,0-.1337891-.0075684-.1904297-.0158691l-.4833984-.0749512.2924805-.3928223c.0820312-.1103516.1616211-.223877.2407227-.3374023.1782227-.2539062.3618164-.5161133.5844727-.7570801,2.1342773-2.2998047,4.2114258-3.8845215,6.5361328-4.9875488,2.3271484-1.1022949,4.5839844-2.2043457,6.6240234-3.5625,1.4804688-.9838867,2.8974609-2.2763672,4.2128906-3.840332,1.9785156-2.3552246,4.0761719-5.2089844,4.6362305-8.5200195.3217773-1.8996582.3330078-3.8920898.34375-5.8198242.0024414-.5080566.0058594-1.0168457.0141602-1.5229492.0087891-.5200195-.1669922-1.1538086-.4956055-1.7834473-1.671875-3.2033691-3.6694336-6.5500488-6.9370117-9.3156738-2.3964844-2.0288086-4.3691406-4.6108398-5.7045898-7.4663086-.6899414-1.4770508-.2514648-2.8959961.1723633-4.269043l.0859375-.2802734c1.0834961-3.5498047,2.9799805-6.9050293,5.6386719-9.9707031,1.8232422-2.1030273,3.159668-4.1787109,4.0849609-6.345459l.0800781-.1884766.7529297.0319824-.0083008.2905273c-.0131836.4338379-.0161133.8686523-.0200195,1.3027344-.0078125.9465332-.015625,1.9257812-.1235352,2.8845215-.527832,4.6999512-1.0102539,8.5593262-1.5161133,12.1477051-.4750977,3.3664551-.4150391,6.3728027.1831055,9.1928711.5742188,2.7055664,1.4931641,4.5603027,2.9799805,6.0146484Zm-10.9526367-65.7224121c.140625.1274414.2861328.2585449.4052734.4169922,2.0615234,2.7497559,5.1806641,4.3859863,8.2446289,5.7438965,1.4003906.6206055,2.7822266,1.3205566,4.1181641,1.9973145l1.0107422.5107422c.2988281.1508789.6884766.3991699.8515625.7282715l.0722656.1459961c.7587891,1.529541,1.5429688,3.1115723.8803711,4.8312988-.7675781,1.9904785-1.559082,3.7290039-2.4204102,5.3156738-.5634766,1.034668-1.246582,2.0195312-1.9697266,3.0617676-.3359375.4836426-.6826172.9841309-1.0341797,1.5124512l-.3759766.5651855-.15625-.6606445c-.0444336-.1875-.0888672-.3513184-.1289062-.5004883-.078125-.2885742-.1455078-.5378418-.1674805-.7946777-.0688477-.7854004-.1293945-1.5708008-.1889648-2.3569336-.1137695-1.4750977-.2304688-3-.4047852-4.494873-.0766602-.659668-.3486328-1.3916016-.7651367-2.0598145-1.0820312-1.7358398-2.1362305-3.2849121-3.2226562-4.7375488-1.7915039-2.3952637-4.3974609-4.0449219-6.9130859-5.5292969-1.625-.9587402-2.7583008-1.8425293-3.6748047-2.8669434-1.6513672-1.8452148-3.8378906-3.2490234-5.9526367-4.6062012-.5258789-.3374023-1.0512695-.6748047-1.5698242-1.0187988-.5161133-.3427734-1.0395508-.6774902-1.5634766-1.0129395-.9428711-.6027832-1.9179688-1.2258301-2.8354492-1.8894043-3.6381836-2.6289062-5.3901367-6.1010742-5.2070312-10.3203125.1176758-2.7167969.3642578-5.6726074.7753906-9.3015137.28125-2.4731445.1821289-4.989502-.2944336-7.4787598l-.4194336-2.2011719c-.8564453-4.4902344-1.7416992-9.1320801-2.7094727-13.6838379-.3779297-1.776123-.8745117-3.5705566-1.3544922-5.307373-.2885742-1.0429688-.5771484-2.0869141-.8432617-3.1337891-.6645508-2.6147461-.8461914-5.270752-.5405273-7.8967285.1079102-.9287109.0444336-1.8688965-.0234375-2.8620605-.0302734-.447998-.0605469-.8979492-.0751953-1.3469238l-.0107422-.3447266.3422852.0429688c.2124023.0270996.4321289.0505371.6582031.0759277.6303711.0683594,1.2822266.1396484,1.9321289.2868652.4140625.095459.7387695.6589355.8051758,1.012207.2885742,1.5285645.5483398,3.0598145.8085938,4.592041l.3017578,1.7685547c.1591797.9267578.328125,1.8527832.4970703,2.7788086.3774414,2.0737305.7685547,4.2189941,1.046875,6.3388672.1303711.9926758.1523438,2.0029297.1738281,2.9794922.0258789,1.1779785.0522461,2.3952637.2719727,3.5593262.3154297,1.6691895.5410156,3.3728027.7583008,5.0214844.4121094,3.1169434.8374023,6.3408203,1.8935547,9.427002.1938477.5661621.3085938,1.1499023.4189453,1.7141113.0917969.4675293.1870117.9511719.3251953,1.4094238.609375,2.0187988,1.2856445,4.0561523,1.9257812,5.9587402.484375,1.4384766,1.0327148,3.0683594,1.6489258,4.6276855.2929688.7414551.565918,1.4921875.8383789,2.2436523.7109375,1.9577637,1.4458008,3.9821777,2.5527344,5.7841797,1.3945312,2.2719727,3.3598633,4.3532715,5.2597656,6.3654785l.5942383.6306152c1.121582,1.1921387,2.4042969,2.3120117,3.6450195,3.3955078.574707.5024414,1.1494141,1.0046387,1.7119141,1.5153809l-.1982422.2185059.2509766-.1706543Zm-22.9130859-70.0693359l.1391602-.3850098.3212891.2548828c.1469727.1162109.3066406.2258301.4667969.3364258.3789062.260498.7705078.529541,1.0244141.8959961.2094727.3027344.4287109.6044922.6484375.9072266.8022461,1.107666,1.6333008,2.2539062,2.0654297,3.4956055,1.3730469,3.9455566,2.4086914,7.519043,3.1665039,10.9238281.4145508,1.861084.4487305,3.7954102.4824219,5.6650391.0073242.4179688.0146484.8359375.0263672,1.2521973.1181641,4.2875977.7524414,8.1337891,1.9375,11.7568359.3486328,1.0656738.6469727,2.1574707.9355469,3.2126465.1660156.6074219.3325195,1.2145996.5078125,1.8190918.2182617.7507324.4628906,1.5266113.7480469,2.3710938.4204102,1.2473145.847168,2.4919434,1.2739258,3.7375488.9023438,2.6333008,1.8359375,5.3569336,2.690918,8.050293.4799805,1.5117188.8452148,3.0703125,1.1987305,4.5771484.1342773.574707.2695312,1.1499023.4101562,1.7236328.0576172.2333984.0629883.4619141.0683594.6831055.0019531.0917969.0039062.1835938.0102539.2746582l.015625.2248535-.6352539.2211914-.1303711-.1611328c-.1513672-.1865234-.309082-.3701172-.4672852-.5539551-.3481445-.4047852-.7075195-.8217773-.9960938-1.2753906-2.2631836-3.5549316-4.3950195-7.0720215-5.6054688-11.015625-.2265625-.7375488-.5576172-1.4750977-.8789062-2.1882324-.2373047-.5288086-.4824219-1.0751953-.6884766-1.6262207l-.2905273-.7722168c-.5708008-1.5144043-1.1606445-3.0805664-1.5834961-4.6547852l-.144043-.5351562c-.7607422-2.8342285-1.5478516-5.7636719-2.019043-8.6821289-.378418-2.3393555-.6552734-4.7243652-.9228516-7.0317383-.2631836-2.2687988-.5361328-4.6147461-.9038086-6.909668-.5820312-3.6318359-1.3017578-7.3139648-1.9980469-10.8759766-.3071289-1.5698242-.6142578-3.140625-.9111328-4.7124023-.0537109-.2819824-.1123047-.590332.0371094-1.0036621Zm49.4394531,45.0512695c-.0708008.6530762-.3754883,1.1828613-.9067383,1.5744629-1.5566406,1.1469727-4.9736328,1.1152344-10.7563477-.0993652l-.284668-.0598145.0561523-.2858887c.1206055-.611084-.0561523-.9570312-.6538086-1.2756348-.3637695-.1921387-.4663086-.706543-.5415039-1.081543-.0991211-.4899902-.1791992-.9333496-.2587891-1.3774414-.2978516-1.6533203-.605957-3.362793-1.4414062-4.9250488-.6435547-1.1994629-1.2797852-2.3701172-1.9960938-3.4880371-.6337891-.9907227-1.5966797-1.704834-2.8613281-2.1247559-.6074219-.1977539-.8354492-.0290527-1.0234375.329834-.4086914.7836914-.4223633,1.609375-.0424805,2.5239258,1.3354492,3.2229004,2.3876953,5.6923828,3.4116211,8.0073242.2265625.5126953.3588867,1.0703125-.1933594,1.6774902-.1030273.1135254-.2446289.1696777-.394043.1472168-.6796875-.0788574-1.6743164-1.7695312-4.1362305-6.2229004-2.2866211-4.1350098-5.1274414-9.2734375-6.9077148-10.3493652-1.0424805-.1855469-1.7910156-.0009766-2.2929688.5549316-2.0737305,2.295166.3085938,10.4804688,2.2231445,17.0576172,1.7216797,5.9145508,2.7329102,9.5957031,1.8632812,10.7175293-.2700195.3466797-.4794922.7402344-.7216797,1.1958008-.1240234.2333984-.2558594.480957-.4067383.7431641l-.3442383.598877-.1943359-.6635742c-.0541992-.1862793-.1098633-.3552246-.1621094-.5134277-.1079102-.3271484-.2006836-.611084-.2412109-.9118652-.3774414-2.8283691-1.2124023-5.6391602-2.0200195-8.3569336-.4140625-1.3945312-.8427734-2.8359375-1.2055664-4.2668457-.2109375-.831543-.4111328-1.6665039-.6113281-2.5014648-.5058594-2.1132812-1.0292969-4.2988281-1.737793-6.3962402-1.7675781-5.2321777-2.1708984-10.4719238-2.3320312-14.9086914-.050293-1.3757324-.34375-2.7890625-.6269531-4.1564941-.1269531-.6118164-.2539062-1.223877-.3603516-1.8359375-.0341797-.1938477-.0922852-.3850098-.1489258-.5771484l-.1704102-.6101074.7480469-.0993652.1035156.1303711c.3017578.3833008.6083984.7626953.9165039,1.142334.6733398.8322754,1.3691406,1.692627,1.9946289,2.5744629,1.8959961,2.6765137,4.6748047,4.3295898,8.4941406,5.0551758.6474609.1225586,1.3364258.3608398,2.1679688.7487793,3.4375,1.598877,7.5805664,3.0917969,12.2543945,2.0307617.6816406-.154541,1.3632812-.3681641,2.0219727-.5754395.3071289-.0974121.6147461-.1938477.9238281-.2856445l1.1674805-.3449707-.0024414.3972168c-.0288086,5.0449219,2.5390625,9.1582031,4.8051758,12.7880859,1.9775391,3.1674805,3.6870117,5.9060059,2.8251953,8.298584Zm11.234375-54.4865723c1.0727539-1.3505859,2.6835938-1.5166016,4.5483398-1.7084961,1.5947266-.1640625,3.4023438-.3505859,5.3959961-1.2661133l.1499023-.0686035.1367188.0917969c1.5556641,1.0422363,1.3388672,3.5407715.3452148,5.3625488l-.1660156.3129883c-.3354492.6420898-.5292969.8566895-1.0913086.8566895-.2055664,0-.4604492-.0280762-.7900391-.0759277-1.9072266-.2746582-4.6650391-1.4545898-6.8808594-2.402832-.5585938-.2390137-1.0766602-.4611816-1.5292969-.645752l-.3632812-.1481934.2446289-.3081055Zm-1.2880859-15.0195312c-3.0517578,4.2060547-6.3779297,7.0185547-12.4980469,7.0185547-.2612305,0-.5273438-.0053711-.7988281-.0158691l-.7270508-.0270996.5415039-.4863281c.4804688-.4321289.9584961-.871582,1.4384766-1.3129883,1.1733398-1.0788574,2.3862305-2.1940918,3.6713867-3.222168.9091797-.7263184,2.1171875-1.166748,2.9702148-1.4084473,1.6665039-.470459,3.4213867-.7451172,5.1186523-1.010498l.7001953-.109375-.4165039.5742188Zm-57.9594727-2.8583984c.1420898-.0673828.2739258-.128418.4150391-.1694336,5.8295898-1.7011719,10.0268555-4.8977051,12.4736328-9.5021973,1.4194336-2.6699219,2.7651367-5.5817871,4.2363281-9.1628418,3.3344727-8.1176758,9.6401367-13.6096191,18.7421875-16.3227539.7529297-.2250977,1.5161133-.4245605,2.2802734-.623291.6958008-.1818848,1.3911133-.3625488,2.0786133-.564209.6147461-.1799316,1.3452148-.2941895,2.1049805.2119141.2919922.1958008.5932617.3813477.8945312.5668945.4882812.3007812.9931641.611084,1.4555664.9633789.6801758.5166016.8051758,1.2792969.3261719,1.9907227-.4018555.5959473-.8017578,1.1882324-1.2739258,1.7270508-1.7822266,2.0356445-2.5424805,4.4450684-2.2612305,7.1621094.0488281.4694824.296875.9445801.5595703,1.4477539.1430664.2746582.2866211.550293.3999023.8276367l.0517578.1245117c.1279297.3027344.2729492.6459961.1977539.9814453-.6645508,2.953125.6489258,5.6230469,3.6030273,7.3239746,2.6035156,1.4985352,5.628418,2.3232422,9.2475586,2.5219727,1.421875.0778809,2.8227539.1931152,4.1630859.3410645,1.824707.2033691,3.15625,1.1855469,4.3637695,2.1733398l.449707.3674316-.9003906.2297363c-.1855469.0449219-.340332.081543-.4892578.1320801-.394043.1357422-.6640625.3615723-.7602539.6362305-.0888672.2531738-.0327148.5473633.1606445.8518066.4140625.6542969.6591797,1.1914062.5102539,1.6879883-.1264648.4208984-.5146484.7497559-1.2978516,1.1010742-1.1557617.5183105-2.4492188.7854004-3.4472656.9606934-1.4091797.2456055-2.8486328.458252-4.2412109.6635742-1.2109375.1789551-2.4213867.3579102-3.6259766.5595703-2.4829102.4150391-4.4125977,1.4975586-5.7353516,3.2172852-1.4428711,1.8762207-3.394043,3.1452637-5.9648438,3.8808594-.7631836.2182617-1.5209961.4489746-2.2783203.6794434-.7900391.2407227-1.5800781.4807129-2.3759766.7075195-1.3442383.3833008-2.7480469.5727539-4.2539062.5727539-.5615234,0-1.1362305-.0263672-1.7280273-.0788574-3.3686523-.2990723-6.8300781-.9165039-10.894043-1.942627-2.4233398-.6120605-4.9423828-1.0646973-7.3789062-1.5024414-1.2001953-.2155762-2.4013672-.4311523-3.5966797-.6652832-.2910156-.057373-.5600586-.1687012-.8203125-.2766113-.1123047-.046875-.2246094-.09375-.3383789-.1357422l-.6220703-.2277832.8959961-.4780273c.222168-.1218262.4448242-.2436523.6767578-.3513184.6879883-.3205566,1.3930664-.6206055,2.0986328-.9194336,1.484375-.6308594,3.0195312-1.2822266,4.3393555-2.1264648,2.152832-1.3786621,4.2290039-2.9194336,6.2373047-4.4094238,1.0288086-.7629395,2.0571289-1.5256348,3.1000977-2.2727051,1.371582-.9802246,2.9741211-2.1142578,4.640625-3.1591797,2.7773438-1.7421875,5.9042969-2.7094727,9.2944336-2.8745117.237793-.012207.4736328-.0458984.7099609-.0786133.3251953-.046875.6655273-.1003418,1.0053711-.0881348,1.0737305.0187988,2.1220703.0498047,3.1474609.2043457.6123047.0966797.7739258-.0151367.9130859-.3720703.2338867-.5959473.2138672-1.213623-.0576172-1.7844238-.3598633-.7590332-1.1162109-1.3562012-2.1293945-1.6821289-2.1708984-.7001953-4.2075195-.7883301-6.0527344-.2644043-2.6206055.7451172-4.9052734,1.5463867-6.9833984,2.4489746-3.8081055,1.6540527-6.9326172,4.0673828-10.3330078,6.8188477-3.6547852,2.9587402-6.7143555,5.2687988-9.6279297,7.2717285-1.1665039.8022461-2.4946289,1.3850098-3.9008789,2.001709-.6337891.2783203-1.2783203.5612793-1.9208984.8706055l-.3203125.154541-.5805664-2.1611328.4174805-.1865234Zm-.1469727,5.753418l2.0952148,2.9016113-2.6884766.012207.5932617-2.9138184Zm28.796875,22.5561523c-.5820312-.9897461-1.5439453-1.7497559-2.859375-2.2578125-.7631836-.2941895-1.5405273-.5603027-2.3178711-.8273926-.8242188-.2819824-1.6762695-.5754395-2.5014648-.8977051l-.8325195-.3244629c-1.7602539-.684082-3.5810547-1.3925781-5.2875977-2.2380371-3.5424805-1.7543945-7.4536133-3.0083008-11.956543-3.8330078-1.3261719-.2426758-2.7416992-.2416992-4.1044922-.2351074-.6269531,0-1.2539062.0026855-1.8774414-.0178223-.1655273-.0039062-.3286133.0019531-.5219727.0092773l-.8154297.0244141.5844727-1.2268066c.3432617-.7282715.6674805-1.4160156,1.0332031-2.0917969.1723633-.3166504.6669922-.4714355.9570312-.4985352,1.2573242-.1188965,2.7436523-.2492676,4.2260742-.3195801,2.0717773-.1096191,4.0698242.4731445,6.2958984,1.7983398,1.4609375.8688965,2.9296875,1.8256836,4.3662109,2.8415527,8.9985352,6.3674316,24.0185547,7.8696289,33.4804688,3.3466797,1.9799805-.9445801,3.8237305-1.7739258,5.637207-2.5349121.737793-.3093262,1.5874023-.5288086,2.456543-.6345215.2006836-.0244141.3847656-.0178223.5478516.026123.7851562-.177002,1.6210938.1604004,2.5532227,1.0290527.2084961.1940918.4072266.3984375.605957.6035156.2050781.2109375.409668.421875.6259766.6196289.355957.3278809.7568359.6315918,1.144043.9257812l.5800781.4208984c.109375.0617676.2895508.1647949.9296875.5144043,1.5981445.8754883,3.2495117,1.7797852,5.5151367,1.7797852.0429688,0,.0854492-.0009766.1289062-.0009766l.6831055-.0102539-.4614258.5031738c-1.2109375,1.3234863-1.1567383,3.2773438-1.1040039,5.1677246l.03125.6401367c.0195312.0551758.0380859.1113281.0517578.1694336l.0004883.0009766c.1289062.5559082.1425781,1.1462402.0444336,1.9138184-.1005859.7890625-.2036133,1.5612793-.3564453,2.3354492-.2587891,1.3129883-.6289062,2.4440918-1.1313477,3.4572754-.5727539,1.154541-1.2768555,2.1320801-2.0917969,2.90625-.8398438,2.1010742-2.0053711,3.604248-3.6630859,4.7290039-.5390625.3654785-.9980469.4094238-1.6352539.1601562-3.2338867-1.2697754-6.7661133-1.5361328-11.1152344-.8405762-2.3017578.3691406-4.5483398,1.0776367-6.8676758,2.1687012-.9428711.4423828-1.9838867.8666992-3.0957031,1.2595215-1.2080078.4282227-2.4013672.5979004-3.5595703.5979004-1.9448242,0-3.7905273-.4770508-5.4418945-1.0083008-.168457-.0537109-.5668945-.2109375-.6123047-.5080566-.0703125-.4555664-.3847656-.5454102-.980957-.6794434l-.2592773-.0600586c-2.137207-.5361328-3.7617188-1.5959473-4.9658203-3.2416992-1.4082031-1.9240723-2.5737305-3.3381348-3.7783203-4.5864258-1.4072266-1.4575195-2.8911133-2.9025879-4.3266602-4.3007812-1.2021484-1.1706543-2.4453125-2.3813477-3.6391602-3.5959473-1.1943359-1.213623-2.2573242-2.552002-3.1401367-3.6999512-2.0986328-2.7329102-4.1943359-4.2294922-6.7944336-4.8527832-1.1362305-.2727051-2.3481445-.3852539-3.5200195-.494873-.484375-.0449219-.9682617-.0898438-1.4487305-.1462402-.3256836-.0373535-.6538086-.048584-.9936523-.059082-.1625977-.0056152-.3286133-.0112305-.4975586-.0195312l-.4160156-.020752.1577148-.3852539c.6083984-1.4919434,1.6845703-2.2229004,3.3847656-2.2978516,4.4711914-.199707,9.0410156.7329102,13.9711914,2.8405762.7646484.3271484,1.4970703.7019043,2.1816406,1.0581055,2.8334961,1.4750977,5.6630859,2.9567871,8.487793,4.4450684.5976562.3149414,1.1904297.637207,1.7832031.9587402.7045898.3833008,1.409668.7666016,2.1225586,1.1376953.6010742.3129883,1.2431641.6364746,1.9047852.8547363.6552734.2182617,1.5957031.3205566,2.3325195-.4169922.5795898-.5810547.6352539-1.28125.1660156-2.0805664ZM20.1238902,11.6725905h.0009766c.1181641-.0300293.2324219-.081543.2827148-.1152344.1938477-.7919922.9272461-.9165039,1.4667969-1.0085449l.1733398-.0297852c2.6230469-.4836426,5.3945312-.3945312,8.7216797.2753906,8.3051758,1.671875,14.6992188,3.9501953,20.1235352,7.1713867,1.9589844,1.1630859,3.9829102,2.3063965,5.9394531,3.411377.7558594.4272461,1.5117188.8537598,2.265625,1.282959.8427734.4790039.8588867,1.0983887.7949219,1.7983398-.0976562,1.0673828-.0043945,2.1845703.0864258,3.2641602.0307617.3674316.0610352.7338867.0849609,1.0993652.0185547.2888184.0791016.5783691.1376953.8586426.0253906.121582.050293.2387695.0693359.3486328l.081543.4572754-.4487305-.1218262c-.7451172-.2016602-1.4794922-.4208984-2.2089844-.6391602-1.6318359-.4873047-3.1733398-.9475098-4.7744141-1.2089844-2.9140625-.4750977-5.9086914-.7966309-8.8051758-1.1086426-.9213867-.0993652-1.8432617-.1987305-2.7631836-.3027344-.6757812-.0759277-1.3525391-.1481934-2.0292969-.2202148-4.0400391-.4301758-8.2177734-.8745117-12.1591797-2.2915039-4.5922852-1.6503906-7.5698242-4.083252-9.1025391-7.4355469-.2807617-.6140137-.4404297-1.2548828-.5478516-1.7431641-.3330078-1.5061035.9355469-3.3251953,2.6103516-3.7421875Zm-5.0341797,55.0546875c-1.2661133,0-2.5966797-.0290527-4.0068359-.0871582-.2973633-.012207-.6982422-.1452637-.8916016-.3776855-.3950195-.4760742-.7749023-.9624023-1.1547852-1.4489746-.6235352-.7983398-1.2685547-1.6230469-1.9697266-2.3803711-1.0112305-1.09375-1.2451172-2.1452637-.7353516-3.3110352.2998047-.6860352.5732422-1.3803711.8476562-2.0749512.2412109-.611084.4819336-1.2211914.7402344-1.8254395,1.2700195-2.9794922,1.5292969-5.8867188.7724609-8.6408691-.2109375-.7675781-.6435547-1.4929199-1.1015625-2.260498-.2124023-.3571777-.4248047-.7141113-.6147461-1.0749512-.0361328-.0693359-.0786133-.1379395-.1210938-.2072754-.1230469-.201416-.262207-.4291992-.2880859-.6867676-.1162109-1.1621094-.1855469-2.3430176-.2529297-3.4846191-.0820312-1.3813477.2993164-2.6118164,1.1025391-3.5639648,1.7470703-2.0722656,3.6450195-4.2792969,5.6865234-6.3850098,1.6044922-1.6530762,3.1152344-3.3083496,3.9707031-5.364502.0405273-.095459.0981445-.1704102.1538086-.2426758l.2275391-.3205566.3486328.2089844c.0893555.0488281.1811523.0983887.2607422.1779785,3.3291016,3.3083496,7.7861328,5.4001465,13.625,6.3964844,4.5224609.7712402,9.1494141,1.4121094,13.6240234,2.0317383,1.1860352.1640625,2.3720703.3288574,3.5576172.4956055,3.1523438.4423828,6.0083008,1.5371094,8.4887695,3.2521973.9267578.6418457,1.9404297,1.4714355,2.4345703,2.753418.3740234.9729004,1.1572266,1.4890137,2.3256836,1.5349121.3154297.012207.7719727.2128906.9492188.4931641,1.0214844,1.6166992,2.6420898,2.6831055,4.9545898,3.2585449,1.1323242.2810059.9711914.9775391.875,1.3925781-.0292969.1274414-.0571289.246582-.0527344.3410645.0117188.2578125-.0546875.4602051-.1958008.6008301-.2329102.2324219-.5791016.2175293-.8803711.2033691l-.1767578-.0065918c-2.2783203-.0310059-4.4414062-.625-6.5327148-1.2004395-.7509766-.2062988-1.5024414-.4123535-2.2607422-.5942383-4.6831055-1.1235352-9.7055664-2.1760254-14.9291992-3.1291504-3.0112305-.5483398-6.1289062-.1340332-9.2666016,1.2331543-.8666992.3786621-1.7270508,1.0197754-2.6293945,1.9606934-.621582.6484375-.6479492,1.470459-.0708008,2.1984863.5581055.7021484,1.3696289.916748,2.5488281.6767578l.262207-.0524902c.3666992-.072998.7460938-.1481934,1.0981445-.2521973.1103516-.0327148.2392578-.1000977.309082-.1489258-.0341797-.8208008.6586914-.9567871,1.0800781-1.0402832.1181641-.0234375.2358398-.0458984.3417969-.0805664,5.409668-1.7976074,10.7421875-.9194336,15.6967773.2971191,1.6123047.3955078,3.2338867.8481445,4.8027344,1.2866211,1.2412109.3469238,2.4824219.6936035,3.7304688,1.0170898.4892578.1264648.9853516.2265625,1.4960938.329834.6899414.1403809,1.4033203.2849121,2.1611328.5041504l1.3461914.388916-1.5136719.1994629c-.0678711.0058594-.1323242.0114746-.1743164.0253906-3.0092773,1.0056152-5.621582,2.6081543-8.1484375,4.1582031-10.8730469,6.6728516-21.8857422,10.7016602-33.6674805,12.3173828-2.4897461.3413086-5.1513672.5080566-8.1831055.5080566Zm-7.1137695,21.092041h-.0004883c-1.9936523-.3833008-2.7353516-1.190918-2.8354492-3.0878906-.1782227-3.3896484,2.0390625-6.2124023,5.9321289-7.5498047,1.190918-.409668,2.4931641-.6054688,3.7524414-.7949219.3603516-.0541992.7202148-.1086426,1.0766602-.1677246.7392578-.1218262,1.4892578-.2145996,2.237793-.307373,1.3334961-.1650391,2.7114258-.3344727,3.9887695-.6784668,1.6899414-.4545898,3.2700195-1.2878418,4.7431641-2.1030273,1.1108398-.6147461,1.890625-1.6184082,2.3173828-2.9858398.1181641-.3796387.5825195-.7722168.9736328-.8237305,8.5932617-1.1208496,16.3857422-4.4084473,23.9223633-7.5883789l.6621094-.2822266c.2929688-.1254883.5864258-.2512207.8808594-.3737793.078125-.0336914.1459961-.034668.2578125-.0385742.0620117-.0009766.1518555-.0036621.2856445-.0112305l.7216797-.0412598-.4873047.5344238c-.3632812.3972168-.7114258.7841797-1.0517578,1.1611328-.7397461.8208008-1.4384766,1.5949707-2.1669922,2.3530273l-.7597656.7910156c-2.6381836,2.7470703-5.3662109,5.5874023-8.1083984,8.3364258-1.019043,1.0231934-2.2216797,1.9211426-3.269043,2.6811523l-.9389648.684082c-1.7568359,1.2832031-3.5737305,2.6101074-5.4775391,3.7824707-5.1381836,3.1611328-10.2802734,6.0720215-16.6850586,6.9633789-1.1108398.154541-2.2436523.2331543-3.4223633.2331543-2.0107422,0-4.1547852-.2265625-6.5493164-.6860352Zm35.9638672,28.5146484c-.5400391,0-1.0693359-.109375-1.5966797-.3278809l-.6254883-.2548828c-.4858398-.1967773-.9711914-.3928223-1.4472656-.6071777-2.1010742-.9448242-4.2666016-1.4143066-6.6196289-1.434082-.7436523-.0065918-1.4853516-.1630859-2.0351562-.4301758-2.8125-1.364502-5.7744141-2.5170898-9.0551758-3.5219727-2.6865234-.824707-4.472168-2.4309082-5.3081055-4.7729492l-.5571289-1.552002c-.4716797-1.3120117-.9433594-2.6240234-1.3989258-3.9389648-.0966797-.2783203-.1899414-.5566406-.2832031-.8359375-.6220703-1.861084-1.265625-3.7854004-2.8603516-5.4450684l-.4262695-.4433594.6123047-.0541992c.1499023-.0141602.2802734-.0290527.3979492-.0422363.2412109-.0270996.4365234-.0534668.6245117-.0432129,4.9770508.1425781,9.8076172-1.0925293,14.769043-3.7495117.7373047-.3945312,1.6342773-.7253418,2.6650391-.9841309,4.4223633-1.107666,8.3378906-3.215332,11.9692383-5.2790527,3.9355469-2.2370605,7.3413086-5.2463379,11.0429688-9.7578125,1.9365234-2.3618164,3.9399414-4.739502,5.8769531-7.0383301.809082-.9606934,1.6181641-1.9211426,2.4248047-2.8828125,2.3378906-2.7861328,5.4570312-4.9660645,9.5351562-6.661377.4711914-.1958008,1.1289062-.1376953,1.5888672-.0178223.4345703.1105957.8486328.0412598,1.1083984-.1921387.2255859-.2023926.3164062-.5014648.2626953-.8632812-.097168-.6513672.159668-.9904785.6054688-1.3251953.5625-.4233398.8999023-.9736328.9755859-1.590332.0800781-.659668-.1523438-1.3635254-.6552734-1.9819336-.3168945-.3901367-.6259766-.8500977-.5146484-1.3103027.1142578-.470459.6303711-.7543945,1.171875-.9904785.9995117-.4377441,1.9794922-.9541016,2.9272461-1.4526367.3764648-.1987305.7529297-.3964844,1.1318359-.5915527.1044922-.0534668.2050781-.1228027.3046875-.1911621.2207031-.1508789.4716797-.3212891.7719727-.3552246.4101562-.0476074.4770508-.154541.4775391-.1555176.0048828-.0083008.003418-.0429688-.0205078-.1003418-.1186523-.2810059-.4658203-.611084-.6743164-.6418457-.4238281-.0627441-.965332,0-1.6118164.1911621-.7011719.2080078-1.3798828.4572754-2.1660156.7441406-.3569336.130127-.7314453.2680664-1.1352539.4104004l-.5859375.2080078.2104492-.5847168c.0800781-.2229004.1479492-.4255371.2104492-.6137695.1450195-.4338379.2705078-.8098145.4599609-1.1594238.1713867-.3149414.7036133-.4516602,1.0078125-.4433594,1.7524414.1098633,2.9160156-.1357422,3.8881836-.8178711.1645508-.1162109.5771484-.2409668.8134766-.0788574.2089844.1413574.4389648.2680664.6689453.3945312.7099609.3898926,1.5151367.833252,1.7324219,1.7590332.2436523,1.0366211.4643555,2.0759277.6845703,3.1162109.1723633.8105469.3442383,1.6223145.5273438,2.4318848.2021484.8942871-.1337891,1.4123535-1.1230469,1.7338867-.8007812.2595215-1.6337891.7207031-2.3452148,1.2998047-.6704102.5454102-.8730469,1.3374023-.5708008,2.2304688.1679688.4968262.546875.9016113,1.0678711,1.142334.6323242.2924805,1.3925781.3000488,2.0878906.0227051l.5961914-.2380371-.2084961.6071777c-.1279297.3710938-.2446289.7319336-.3583984,1.0834961-.2543945.7844238-.4941406,1.5256348-.8081055,2.2473145-.4521484,1.0366211-1.0166016,2.1291504-1.7763672,3.4394531-.1992188.3393555-.8129883.5510254-1.2133789.5351562-1.715332-.1142578-3.2426758-.5979004-4.5405273-1.4377441-.3168945-.2053223-.6508789-.4675293-.7260742-.8574219-.0527344-.2756348.0283203-.5605469.2480469-.869873.1865234-.262207.2407227-.543457.1572266-.814209-.0976562-.3178711-.3823242-.5839844-.7797852-.7312012-.7504883-.2783203-.9287109-.7382812-1.0698242-1.2670898-.034668-.1320801-.1708984-.2885742-.3022461-.4394531-.0014648-.0019531-.0029297-.0036621-.0043945-.0056152-.0112305.010498-.0219727.0197754-.0332031.0290527-.1030273.0908203-.2944336.2597656-.3051758.3291016-.0512695,1.1674805-.8398438,1.6306152-1.6850586,1.9567871-1.074707.4160156-2.1381836.9016113-3.1665039,1.3710938-.4785156.2182617-.9575195.4377441-1.4394531.6503906-4.9956055,2.2043457-8.5024414,5.6464844-10.7216797,10.5244141l-.565918,1.2568359c-.4472656.9953613-.9091797,2.0251465-1.3959961,3.0280762-.8623047,1.7768555-2.1108398,3.3146973-3.7124023,4.5725098-1.0458984.8217773-2.0444336,1.6745605-2.9677734,2.5349121-.9462891.8811035-1.4692383,1.7890625-1.5981445,2.776123-.0390625.2998047-.003418.5107422.105957.6276855.1337891.1416016.4101562.2006836.8344727.1699219,1.5541992-.1079102,2.9995117-.7133789,4.4179688-1.8500977,2.1401367-1.7150879,3.8354492-3.8623047,5.0390625-6.3823242.4892578-1.0241699.9482422-2.060791,1.4072266-3.097168.6074219-1.3703613,1.2353516-2.7873535,1.9267578-4.1555176,1.6879883-3.3410645,4.1606445-6.0148926,7.347168-7.9455566,1.1166992-.6757812,2.293457-1.3054199,3.4311523-1.9145508.4150391-.222168.8300781-.4443359,1.2421875-.6682129.1889648-.1032715.3930664-.1848145.6333008-.2802734.1123047-.0449219.2329102-.0927734.3637695-.1489258l.3212891-.1359863.0805664.340332c.5043945,2.1311035,1.2080078,3.800293,3,5.0205078l.4130859.2819824-.7084961.3588867c-.1547852.0805664-.2836914.1481934-.4174805.2072754l-.4946289.2163086c-.7397461.3251953-1.4785156.6494141-2.2250977.9624023-3.7607422,1.5793457-6.1054688,4.269043-7.1665039,8.223877l-.3232422,1.2089844c-.9135742,3.423584-1.8579102,6.9631348-3.1469727,10.3361816-1.7060547,4.4665527-3.6401367,8.9416504-5.5107422,13.2685547-.5859375,1.3552246-1.1713867,2.7104492-1.7519531,4.0673828-1.1484375,2.6860352-2.8916016,5.1826172-5.3286133,7.6313477-1.2939453,1.3000488-2.8115234,2.2773438-4.5102539,2.9042969-.5439453.2016602-1.0722656.3017578-1.5898438.3017578Zm39.1245117-40.0212402l-.1547852.90625-.8222656-1.6867676c-.8466797-1.7180176-1.6464844-3.340332-2.0366211-5.1921387l-.1225586-.5827637.5375977.2558594c1.8417969.8752441,3.0322266,3.7597656,2.5986328,6.2995605Zm-23.3974609,49.2385254l-.0112305-.2988281c-.0537109-1.3908691-.1455078-2.8491211-.2734375-4.3344727-.0581055-.6787109.2167969-1.0422363.949707-1.2558594.8183594-.2373047,1.612793-.529541,2.4545898-.8388672.3549805-.1303711.7167969-.2631836,1.0898438-.3955078l.3745117-.1330566.0180664.3964844c.0146484.3156738.034668.6325684.0551758.9484863.043457.6896973.0888672,1.402832.0756836,2.1086426l-.0141602.7619629c-.0493164,2.7055664-.1005859,5.5029297-.2446289,8.25-.1801758,3.4543457-1.0639648,6.9716797-2.8642578,11.4042969-1.4658203,3.6074219-2.6010742,7.5473633-3.5732422,12.3972168-.3164062,1.5771484-.784668,3.1479492-1.2373047,4.6672363-.4443359,1.4909668-.9033203,3.0334473-1.215332,4.5686035-.4804688,2.3720703-.793457,4.8217773-1.0957031,7.1901855-.1323242,1.0317383-.2636719,2.0634766-.4091797,3.0935059-.0527344.3684082-.0976562.7375488-.1430664,1.105957l-.09375.7524414-.8344727.0148926-.0737305-1.0109863c-.0385742-.5380859-.0776367-1.0749512-.1240234-1.6120605-.484375-5.6313477-.3125-11.331543-.1459961-16.8439941l.0727539-2.4741211c.0751953-2.7102051.8178711-5.4279785,2.2709961-8.3071289,1.6738281-3.317627,2.9077148-6.0532227,3.8833008-8.6081543,1.4116211-3.697998,1.2578125-7.6884766,1.1088867-11.546875Zm.2080078,31.1921387c.2456055-.9230957.484375-1.8481445.7226562-2.7731934.5268555-2.0439453,1.0717773-4.15625,1.6884766-6.217041.5932617-1.9831543,1.2382812-3.9868164,1.8613281-5.9250488.6943359-2.1591797,1.4121094-4.3916016,2.0615234-6.6005859.262207-.8930664.3442383-1.8630371.4238281-2.8010254.0375977-.447998.0751953-.8959961.1318359-1.3393555l.03125-.248291.7241211-.0244141.6582031.8979492c1.7504883,2.378418,3.5620117,4.8376465,4.0371094,7.8056641.0561523.3532715.0249023.8642578-.2319336,1.2380371-3.1958008,4.6474609-6.4140625,9.2836914-9.6313477,13.9199219l-1.2802734,1.845459c-.0952148.1367188-.2021484.2661133-.309082.3955078l-.265625.3278809-.6918945-.2370605.0698242-.2644043Zm11.5761719-25.3967285c-.3022461-.5180664-.6040039-1.0373535-.9233398-1.5471191-.4335938-.6916504-.8334961-1.3083496-1.3339844-1.8508301-1.5727539-1.704834-2.3813477-3.4938965-2.4711914-5.4694824-.0576172-1.2614746-.3271484-2.5566406-.5874023-3.8088379-.0654297-.3120117-.1298828-.6230469-.1918945-.9343262-.1357422-.6887207.0566406-1.166748.3886719-1.6728516.9658203-1.4741211,1.8920898-3.0036621,2.7880859-4.4833984l.9272461-1.5275879c.0678711-.1105957.1303711-.2241211.1928711-.3364258.0673828-.1201172.1337891-.2409668.2055664-.3581543.078125-.1291504.2163086-.1647949.2749023-.1799316l.2036133-.0842285.1210938.177002c4.621582,5.6784668,6.0683594,12.2414551,6.8120117,17.324707.6103516,4.1696777.0791016,8.6586914-1.6245117,13.7231445l-.0712891.2128906-.8178711-.0402832-.0942383-.5004883c-.0419922-.2155762-.0834961-.4311523-.1142578-.6486816-.2807617-2.0112305-1.0117188-3.8574219-2.234375-5.6408691-.5253906-.767334-.9956055-1.5744629-1.449707-2.354248Zm-1.5698242-39.8928223c-.2416992,2.4282227-.4155273,4.8591309-.5180664,7.2275391-.1225586,2.847168-.871582,5.6437988-2.2900391,8.5490723-.6166992,1.2651367-1.2832031,2.5322266-1.9277344,3.7580566l-.3476562.6616211c-.1464844.2792969-.3227539.541748-.4941406.7956543l-.1669922.2502441c-1.4760742,2.2585449-3.5224609,3.3972168-6.0947266,3.3972168-.3935547,0-.7993164-.0263672-1.2172852-.0795898l-3.1855469-.4030762.1420898-.354248c.0151367-.0375977.0263672-.0722656.0366211-.1049805.0292969-.09375.0629883-.2004395.1489258-.2961426,3.0795898-3.3991699,5.3686523-7.5891113,7.2045898-13.1870117,1.4335938-4.3691406,2.8364258-8.7468262,4.2392578-13.1242676l1.1831055-3.6906738c.3178711-.9887695.6279297-1.9802246.9389648-2.9709473.5400391-1.7260742,1.0991211-3.5114746,1.6904297-5.2573242.6918945-2.0395508,2.1958008-3.5952148,4.4702148-4.623291.1362305-.0627441.2817383-.1105957.4731445-.1723633l.9208984-.3139648-.8383789,2.2595215c-.4335938,1.1723633-.8510742,2.3027344-1.284668,3.4272461-1.5546875,4.0336914-2.5053711,8.4289551-3.0830078,14.251709Zm-27.9311523,70.5302734c-.2001953-1.4543457-.0581055-2.6774902.4462891-3.8479004,1.2075195-2.8041992,1.2236328-5.8808594,1.2392578-8.8564453.0078125-1.4685059-.0283203-2.9135742-.0625-4.3120117-.050293-2.026123-.1025391-4.119873-.0234375-6.177002.1821289-4.7749023.7407227-8.6643066,1.7568359-12.2385254.5424805-1.9082031,1.7617188-3.6672363,3.8369141-5.5358887.2207031-.1977539.6547852-.3898926,1.012207-.342041,2.0332031.2446289,4.1157227.1647949,6.3681641-.2429199.1113281-.0187988.2133789.0009766.2875977.0158691l.1240234.0151367.1357422.1105957c.0703125.0739746.1645508.1723633.1572266.3261719-.065918,1.307373-.0800781,2.6428223-.09375,3.9343262-.0336914,3.1535645-.0678711,6.4150391-.8588867,9.5732422-.8261719,3.2988281-2.0698242,6.4243164-3.6967773,9.2902832-1.9633789,3.458252-2.9335938,7.130127-2.9663086,11.2236328-.0126953,1.5510254-.0390625,3.1030273-.0649414,4.6540527-.0449219,2.7224121-.0917969,5.5378418-.0634766,8.3061523.0356445,3.5698242.2265625,7.1948242.4365234,10.9042969.0332031.5969238.1728516,1.1872559.3208008,1.8125.0981445.4179688.2001953.8498535.2675781,1.2827148.0566406.3713379.0161133.8913574-.2661133,1.2390137-.7871094.9689941-1.6503906,1.9990234-2.6293945,2.9699707-1.6938477,1.6813965-2.9731445,3.482666-3.9116211,5.5068359-.4360352.940918-.9936523,1.8444824-1.5327148,2.7177734-.2177734.3525391-.4350586.7058105-.6455078,1.0610352-.0795898.1350098-.1894531.2416992-.2866211.3354492-.0366211.0366211-.0742188.0722656-.1088867.1105957l-.1118164.119873-.6821289-.1328125.0097656-.2521973c.0136719-.3591309.0239258-.7189941.0336914-1.0788574.0244141-.8481445.0483398-1.7250977.1245117-2.5864258.0429688-.4931641.1708984-.9719238.2944336-1.435791.0541992-.2023926.1083984-.4050293.1552734-.6091309,2.03125-8.8432617,2.3579102-17.958252.9980469-27.8615723Zm-3.5595703-16.2197266c.0537109-.095459.1171875-.1865234.2124023-.3232422l.5869141-.857666.1210938.7236328c.105957.6306152.2167969,1.2453613.324707,1.8491211.2402344,1.3381348.4667969,2.6032715.6201172,3.887207.2099609,1.7583008.34375,3.5473633.4726562,5.2773438l.1157227,1.5266113c.015625.2023926.0136719.5922852-.1748047.9306641-.5732422,1.0290527-.5610352,2.142334-.5483398,3.3205566.0380859,3.6025391.0717773,8.2592773-.0048828,12.9536133-.0229492,1.4321289-.1201172,2.8798828-.2138672,4.2810059-.0717773,1.0795898-.1464844,2.1977539-.1865234,3.295166-.0849609,2.3588867-.5341797,4.4553223-1.3710938,6.4101562-.9619141,2.2446289-1.2431641,4.6896973-.9111328,7.9277344.1767578,1.7216797.331543,3.9746094-.0385742,6.1357422l-.0859375.4995117c-.2861328,1.6474609-.5561523,3.2041016-.5429688,4.8330078.0087891,1.0019531-.0048828,2.0019531-.0180664,3.0019531l-.0092773.7167969c-.0014648.1340332-.0214844.2680664-.0429688.4020996l-.0541992.4020996-.6884766.0429688-.0722656-.2126465c-.1054688-.3093262-.2148438-.6176758-.3237305-.9250488-.2363281-.6682129-.4804688-1.3598633-.6835938-2.0505371-.2963867-1.0102539-.6176758-2.0168457-.9384766-3.0241699-1.0541992-3.307373-2.144043-6.7280273-2.3256836-10.2453613-.2070312-4.0241699-.3066406-7.9931641-.3911133-11.7128906l-.0048828-.2033691c-.0678711-2.9726562-.1386719-6.0458984-.0517578-9.0634766.1176758-4.09375.8232422-8.1271973,2.15625-12.3322754.8051758-2.5427246,1.4765625-5.3850098,2.1118164-8.9445801.5634766-3.1525879,1.5317383-5.9399414,2.9609375-8.520752v-.0009766Zm-8.9472656,78.2282715c-.3544922-1.0478516-.6376953-2.1254883-.9111328-3.168457-.1762695-.6711426-.3530273-1.3430176-.5483398-2.0102539-.1982422-.6757812-.387207-1.3215332-.7338867-1.8566895-.1557617-.2409668-.3681641-.3813477-.5473633-.3608398-.1694336.0131836-.324707.1508789-.4257812.3776855-.3134766.7028809-.5087891,1.456543-.5654297,2.1799316-.1455078,1.8527832-.4135742,3.8237305-1.3808594,5.6916504-.3969727.765625-.8427734,1.5227051-1.2739258,2.2546387-.1923828.328125-.3857422.6550293-.5742188.9841309l-.1152344.2006836-.7021484-.2053223-.0766602-1.4291992c-.0449219-.8190918-.0893555-1.6381836-.128418-2.4562988-.0356445-.7302246-.0546875-1.4611816-.0732422-2.1921387-.0405273-1.5603027-.0820312-3.1733398-.293457-4.7402344-.1958008-1.4509277-.5112305-2.9230957-.815918-4.3466797-.2822266-1.317627-.5737305-2.6804199-.7729492-4.0327148-.6870117-4.659668-.7978516-8.7868652-.3398438-12.6181641.5966797-4.9885254,1.1279297-10.0710449,1.6420898-14.9855957l.4033203-3.8452148c.8530273-8.0839844,2.5986328-15.3847656,5.3354492-22.3171387,1.7495117-4.4309082,4.4472656-8.2648926,6.8554688-11.4306641.2832031-.3720703.5620117-.7460938.8413086-1.119873.8925781-1.1940918,1.8144531-2.4291992,2.8662109-3.6083984l.8173828-.9174805-.3125,1.1884766c-.0576172.2182617-.1069336.4384766-.1567383.659668-.1118164.4995117-.2280273,1.0151367-.4350586,1.505127-.2998047.7124023-.6357422,1.4226074-.9609375,2.1096191-.3901367.824707-.7939453,1.6777344-1.1328125,2.53125-.1235352.3112793-.2509766.621582-.378418.9326172-.5742188,1.4038086-1.1679688,2.8547363-1.4121094,4.3166504-.5668945,3.3945312-1.5722656,6.9436035-3.0742188,10.8498535-.8339844,2.168457-1.3110352,4.4177246-1.418457,6.6848145-.0629883,1.3374023-.1708984,2.6933594-.2753906,4.0046387-.1518555,1.9108887-.3085938,3.887207-.3295898,5.8310547-.0625,5.8696289-.0239258,12.0698242.1230469,19.513916.0253906,1.3215332.402832,2.6906738.7680664,4.0148926l.0776367.2822266c.722168,2.6323242,1.3896484,4.8029785,2.1015625,6.8320312l.2885742.8273926c.6699219,1.9287109,1.3623047,3.9221191,2.3481445,5.7524414,2.1054688,3.90625,3.0200195,8.2875977,2.7963867,13.3933105-.003418.0917969-.0166016.1845703-.0332031.2998047l-.0771484.590332-.3686523-.1779785c-2.6533203-1.2753906-5.5717773-2.895752-6.6206055-5.989502Zm2.8325195,54.7568359c-.0585938.0644531-.1181641.1281738-.1674805.1958008-.0839844.1162109-.1694336.2294922-.2553711.34375-.2241211.2971191-.4350586.5783691-.6088867.8774414-.8603516,1.4890137-1.7143555,2.9799805-2.5678711,4.472168-.6210938,1.0842285-1.2416992,2.168457-1.8652344,3.2519531-.1020508.1772461-.2299805.3327637-.3530273.4836426-.0522461.0627441-.1040039.1254883-.152832.189209l-.1118164.1452637-.8334961-.1638184.1982422-1.5915527c.1181641-.9643555.2363281-1.9294434.3735352-2.8911133.3266602-2.2839355.6962891-4.8713379,1.1054688-7.425293.8481445-5.2922363.9711914-10.7851562.3666992-16.3237305-.3442383-3.1518555-.2651367-6.013916.2421875-8.7487793.2285156-1.2324219.4296875-2.4685059.6313477-3.7055664.5522461-3.3916016,1.1240234-6.8984375,2.2646484-10.25.4199219-1.2351074.8862305-2.4787598,1.3364258-3.6811523.2089844-.5585938.418457-1.1162109.6240234-1.6757812l.0913086-.25.2578125.0654297c.2880859.0742188.5615234.1499023.8256836.2241211.5307617.1489258,1.0322266.2895508,1.5297852.3664551,1.2416992.1958008,2.1948242.0439453,2.8359375-.4470215.5395508-.4133301.8632812-1.0778809.9628906-1.9765625.5400391-4.9006348.0307617-9.2893066-1.5576172-13.4177246-.1386719-.3605957-.265625-.7243652-.3999023-1.107666l-.3574219-1.0092773.4794922.0637207c.8193359.1142578,1.3388672-.2202148,1.6157227-1.0402832.1264648-.3740234.2607422-.7480469.3955078-1.1237793.4921875-1.3681641,1.0009766-2.7834473,1.0683594-4.1806641.1645508-3.4665527,1.2792969-6.7956543,3.6123047-10.7927246,1.5908203-2.7260742,3.2294922-5.4711914,4.8701172-8.157959.5136719-.8408203,1.1489258-1.6074219,1.644043-2.1809082,1.96875-2.2802734,3.4746094-5.0419922,4.6040039-8.4448242.1015625-.3066406.3208008-.550293.5327148-.786377.0566406-.0627441.112793-.1257324.1660156-.1884766.1240234-.1479492.2597656-.2895508.3964844-.4309082.2070312-.2148438.4023438-.4179688.5488281-.6401367,2.3730469-3.6074219,4.1367188-7.5153809,5.3916016-11.9482422.425293-1.4995117,1.0839844-3.0495605,2.1362305-5.027832,1.7670898-3.3222656,3.6186523-6.6755371,5.4091797-9.9182129.7133789-1.2905273,1.4257812-2.5820312,2.1357422-3.8742676l.5136719-.9287109.7392578.1347656-.0151367.2607422c-.0200195.329834-.0283203.6616211-.0366211.9931641-.0180664.7226562-.0366211,1.4697266-.1743164,2.1958008-.5380859,2.8369141-1.0957031,5.6708984-1.6538086,8.505127-.5756836,2.9257812-1.1518555,5.8518066-1.7055664,8.78125-.2060547,1.0910645-.2841797,2.2324219-.3588867,3.3364258l-.0498047.7104492c-.3242188,4.4328613-.8613281,9.5600586-3.1484375,14.3144531-.4853516,1.0092773-.7138672,2.1591797-.9355469,3.2727051-.1083984.5463867-.2172852,1.0935059-.3549805,1.6296387-.1035156.4030762-.2109375.7272949-.3378906,1.0205078-.3549805.822998-.6870117,1.6533203-1.019043,2.4836426-.7954102,1.9868164-1.6176758,4.0419922-2.7592773,5.980957-2.5444336,4.3195801-4.309082,8.9970703-5.2446289,13.9030762-.9355469,4.9025879-2.5180664,9.7270508-4.0473633,14.3933105-.3330078,1.0148926-.6665039,2.0307617-.9926758,3.0478516-1.6538086,5.1459961-3.1503906,10.4306641-4.5976562,15.5410156l-.8662109,3.0551758c-.4511719,1.5839844-.4467773,3.3618164.0126953,5.4338379.1044922.4694824.4467773,1.0141602.8730469,1.3869629.1723633.1508789.3520508.1462402.4658203.0910645.0673828-.0319824.1777344-.1152344.1679688-.3017578-.128418-2.4255371.8134766-4.590332,1.7236328-6.684082.1772461-.4067383.3540039-.8134766.5224609-1.2202148,2.0493164-4.9492188,4.2436523-9.9416504,6.3657227-14.7697754l.7114258-1.6186523c1.0200195-2.3222656,1.5751953-4.8085938,2.1118164-7.2124023.1625977-.7272949.324707-1.4545898.5-2.1799316.246582-1.0244141.487793-2.0505371.7285156-3.0769043,1.1791992-5.0251465,2.3989258-10.2207031,4.3740234-15.1652832,1.246582-3.1228027,2.0805664-6.5341797,2.5493164-10.4309082.0688477-.5754395.0439453-1.1582031.0175781-1.7749023-.0185547-.421875-.0361328-.8444824-.0234375-1.2634277.012207-.4001465.1582031-.833252.390625-1.1574707,1.5791016-2.2041016,3.3691406-4.7016602,4.253418-7.5114746.4897461-1.5546875.8549805-3.2492676,1.0874023-5.036377.1552734-1.1987305.2475586-2.4301758.3369141-3.6203613.1025391-1.3674316.2080078-2.7814941.4106445-4.1647949.3569336-2.4348145.796875-4.8967285,1.2211914-7.2780762.2797852-1.5688477.5600586-3.1386719.8193359-4.7102051.3652344-2.2148438.6518555-4.3852539.9628906-6.7890625.0727539-.5678711.2231445-1,.7470703-1.3984375.4638672-.3540039.8535156-.8395996,1.0683594-1.3305664.2207031-.5053711.4458008-1.0102539.6704102-1.515625.8935547-2.0063477,1.8168945-4.0822754,2.5102539-6.1767578.8847656-2.6748047,1.3085938-5.6025391,1.375-9.4926758.0483398-2.8266602-.4350586-5.5209961-1.4775391-8.237793-.3466797-.9025879-.5917969-1.8398438-.828125-2.7470703-.1704102-.6513672-.3461914-1.3261719-.5576172-1.9755859-1.0302734-3.1674805-2.9541016-6.1459961-5.8803711-9.1054688-.8813477-.8903809-1.046875-1.597168-.6328125-2.7001953,1.105957-2.9455566,1.215332-5.9941406,1.1679688-8.8505859-.1347656-8.1132812,1.0810547-15.4279785,3.7163086-22.3620605.0439453-.1162109.097168-.2297363.1665039-.3757324l.4179688-.916748.6376953,1.7451172c.2875977.7854004.5610352,1.5332031.8286133,2.2819824.3310547.9267578.7070312,1.8669434,1.0703125,2.7758789.8242188,2.059082,1.675293,4.1882324,2.0805664,6.3466797,1.2011719,6.3979492,1.2807617,12.1796875.2426758,17.6733398-.3681641,1.9482422-.8168945,4.5124512-1.0244141,7.0786133-.0859375,1.0683594.1264648,2.2050781.331543,3.3034668l.0991211.5361328c.4125977,2.296875.8051758,4.1779785,1.2348633,5.920166.7929688,3.2116699,1.6777344,6.4824219,2.4448242,9.2949219.1762695.645752.3706055,1.2895508.5654297,1.9333496.703125,2.3242188,1.4296875,4.7280273,1.2558594,7.2126465-.0947266,1.3522949-.2558594,2.71875-.4111328,4.0400391-.1416016,1.1987305-.2880859,2.4375-.3828125,3.6577148-.1040039,1.3327637-.09375,2.7329102.0307617,4.2822266.2285156,2.8339844.5219727,5.873291.9516602,9.8544922.293457,2.7128906.6162109,5.1542969,1.6054688,7.5646973.1391602.3393555.1494141.7797852.0292969,1.3083496-.0966797.4321289-.2236328.8574219-.3505859,1.2839355-.1142578.3833008-.2290039.7675781-.3203125,1.1564941l-.1245117.5268555c-.262207,1.1057129-.5327148,2.2480469-.6987305,3.3803711-.2104492,1.4328613-.4072266,2.9726562-.4223633,4.5141602-.0268555,2.71875-.5229492,5.6044922-1.559082,9.081543-.7700195,2.5837402-1.5126953,5.1750488-2.2558594,7.7663574-.9199219,3.2097168-1.8710938,6.5292969-2.862793,9.78125-1.4394531,4.7214355-3.2744141,10.2883301-5.9682617,15.7775879-1.9350586,3.9406738-4.6860352,7.6696777-8.6582031,11.7363281-1.1821289,1.2097168-2.2446289,2.5546875-3.2729492,3.8564453-.3320312.4206543-.6640625.8405762-1.0004883,1.2575684-2.0395508,2.5266113-4.0683594,5.0617676-6.0966797,7.5979004l-2.7314453,3.4121094c-.0756836.09375-.1513672.1677246-.2319336.2268066-2.9394531,2.1518555-5.1679688,4.9155273-7.3237305,7.5893555l-.7661133.9475098c-1.1894531,1.4658203-2.6274414,2.9501953-4.3955078,4.5375977-2.9599609,2.6589355-5.0263672,5.9260254-6.3173828,9.9887695-.2714844.8554688-.5117188,1.7373047-.7436523,2.5910645-.1777344.6550293-.3564453,1.3103027-.5498047,1.9616699-.0668945.2229004-.2241211.3955078-.362793.5483398Zm9.6245117-2.9907227c-.3886719.7150879-.7817383,1.4272461-1.1743164,2.140625-.8701172,1.5771484-1.769043,3.2087402-2.6000977,4.8330078-1.5112305,2.9521484-1.6259766,6.130127-1.5244141,9.1235352.0341797,1.0119629.0786133,2.0241699.1264648,3.0981445l.1142578,2.6645508-.8173828-1.2634277c-.1269531-.1921387-.2250977-.3400879-.3110352-.4919434-1.9482422-3.4245605-2.769043-6.6699219-2.5102539-9.9228516.050293-.6269531.0307617-1.2756348.012207-1.9035645-.0322266-1.083252-.0654297-2.2033691.2407227-3.3156738.0703125-.2558594-.0512695-.6074219-.1923828-1.0141602-.0786133-.2255859-.159668-.4619141-.21875-.706543l-.0273438-.1115723.0546875-.1020508c.043457-.0778809.3149414-.354248.6118164-.2915039.8930664.1931152,1.5375977-.1940918,2.2182617-.6054688.1401367-.0842285.2797852-.1687012.421875-.248291.9833984-.552002,1.9614258-1.1086426,2.9399414-1.6662598l1.9082031-1.0852051c.1147461-.0646973.2382812-.1181641.4204102-.1950684.1015625-.0429688.2231445-.095459.375-.1630859l.7988281-.3569336-.8666992,1.5837402Zm12.7470703,1.199707c-.2958984.671875-.6669922,1.3242188-1.1347656,1.9941406l-.6074219.869873.0717773-1.0581055c.0229492-.3439941.0400391-.6879883.0566406-1.0319824.078125-1.5791016.1586914-3.2126465.8540039-4.7485352l.440918-.9746094c.9106445-2.0161133,1.8530273-4.0993652,2.8276367-6.1320801.2553711-.5341797.7397461-.9887695,1.1748047-1.3730469.6494141-.5725098.8212891-.9755859.6328125-1.4853516-.206543-.5595703-.7138672-.8950195-1.5527344-1.026123-1.6279297-.2541504-3.2529297.0571289-4.9614258.9558105-.902832.4743652-1.7695312,1.0439453-2.5771484,1.692627-3.0859375,2.4814453-6.8051758,5.3503418-10.9887695,7.8149414-.5009766.2954102-.9921875.6027832-1.4912109.9147949l-1.1220703.6972656-.0166016-.5087891c-.015625-.0974121-.0351562-.2231445.0151367-.3525391,1.0913086-2.7692871,2.7641602-6.2893066,6.046875-8.9519043,2.5170898-2.0419922,4.6298828-4.4675293,6.6738281-6.8132324l.2583008-.2971191c1.1269531-1.2924805,2.4951172-2.6184082,4.1811523-4.0522461,3.7329102-3.1733398,6.859375-6.9221191,9.4970703-10.1862793,2.2641602-2.8012695,4.1411133-5.0617676,5.9052734-7.1149902,3.8745117-4.5070801,7.1552734-9.5510254,9.7504883-14.9902344l.5405273-1.1313477c1.8295898-3.8237305,3.7216797-7.7785645,5.1123047-11.8271484.3754883-1.0917969.7617188-2.1806641,1.1474609-3.270752,1.0107422-2.8498535,2.0561523-5.7963867,2.8735352-8.7392578l.2036133-.730957c1.0249023-3.6728516,2.0844727-7.472168,2.1977539-11.3408203.0449219-1.5351562-.0361328-3.1086426-.1132812-4.6296387-.0444336-.8762207-.0893555-1.753418-.1118164-2.6289062-.0107422-.4169922.0209961-.8330078.0517578-1.2351074.0249023-.3225098.050293-.6447754.0527344-.9680176.0009766-.09375-.050293-.2175293-.1035156-.3476562-.0444336-.1079102-.0878906-.2158203-.1152344-.3244629-.0571289-.2192383-.1020508-.4404297-.1464844-.6625977l-.128418-.6184082.9125977-.0283203.1879883.4733887c.0800781.2033691.159668.4067383.2456055.6081543.1494141.3496094.2749023.7021484.4003906,1.0554199.3164062.8884277.6147461,1.7280273,1.2817383,2.4985352.5415039.6269531.7939453,1.4206543,1.0380859,2.189209.09375.2941895.1870117.5876465.2963867.8686523,1.6630859,4.2849121,2.9311523,8.7441406,3.7695312,13.2526855.2768555,1.4855957.5351562,2.973877.793457,4.4619141.3168945,1.8239746.6445312,3.7094727,1.0009766,5.5585938.3789062,1.9709473.1870117,3.7458496-.5869141,5.427002-.9897461,2.1452637-1.7714844,4.3327637-2.4052734,6.1901855-1.1450195,3.3522949-3.0649414,6.4094238-4.921875,9.3662109l-.0654297.1049805c-.1113281.177002-.2290039.3513184-.3466797.5256348-.293457.4350586-.5703125.8464355-.7451172,1.2885742-1.0869141,2.7497559-3.0825195,4.9953613-4.8427734,6.9765625-.8232422.9257812-1.6533203,1.8461914-2.4838867,2.7675781-1.5087891,1.6728516-3.0693359,3.4018555-4.5527344,5.1357422-3.7299805,4.3586426-6.8608398,9.0446777-9.4326172,13.0537109l-.9736328,1.5258789c-1.9829102,3.1142578-4.0332031,6.3354492-6.4946289,9.2883301-3.0673828,3.6831055-5.5810547,7.7280273-7.4707031,12.0241699Z" stroke-width="0"/>
  </g>
</svg>