<?xml version="1.0" encoding="UTF-8"?>
<svg id="Layer_2" data-name="Layer 2" xmlns="http://www.w3.org/2000/svg" viewBox="0 0 89.4399105 158.3900193">
  <g id="Layer_1-2" data-name="Layer 1">
    <g>
      <path d="m89.364099,76.6624802c-.0332031-2.2158203-.1875-4.4541016-.3369141-6.6191406-.0664062-.9628906-.1328125-1.9248047-.1884766-2.8876953-.0048828-.0791016-.0253906-.1552734-.0566406-.2275391-.0517578-.8652344-.1064453-1.7304688-.1621094-2.5947266-.1347656-2.1054688-.2734375-4.2832031-.3505859-6.421875-.140625-3.8955078-.9003906-7.5292969-2.2587891-10.8007812-.2861328-.6894531-.4755859-1.4287109-.6757812-2.2109375-.2685547-1.0537109-.5478516-2.1435547-1.0830078-3.1279297-.0195312-.0556641-.0253906-.2285156-.0292969-.3427734-.0039062-.1064453-.0087891-.2128906-.0175781-.3134766-.0166016-.1689453-.0263672-.3388672-.0361328-.5097656-.0195312-.3164062-.0390625-.6328125-.0869141-.9433594-.1162109-.7626953-.2412109-1.5234375-.3671875-2.2851562-.2285156-1.3867188-.4648438-2.8212891-.6357422-4.2333984-.3066406-2.546875-.9365234-4.9697266-1.8710938-7.1992188-1.1630859-2.7714844-2.390625-5.5585938-3.5791016-8.2539062l-1.1943359-2.7138672c-.0966797-.2207031-.2207031-.4238281-.3486328-.625-.0478516-.0771484-.0966797-.1533203-.1416016-.2294922-1.2822266-2.2275391-3.0556641-4.0029297-5.1269531-5.1357422-2.1484375-1.1748047-3.7392578-3.0732422-4.8867188-4.5957031-1.3457031-1.7851562-3.0380859-2.8046875-5.1757812-3.1162109-.2910156-.0419922-.5820312-.0996094-.8720703-.15625-.3691406-.0722656-.7392578-.1435547-1.1113281-.1914062-2.5107422-.3173828-5.0234375-.625-7.5371094-.9101562-.34375-.0400391-.6708984-.0009766-.9599609.0322266-.1210938.0136719-.2421875.0283203-.3632812.0351562-3.9599609.2294922-7.2158203.7929688-10.2451172,1.7744141-.9902344.3212891-1.9892578.6025391-2.9882812.8837891-2.21875.6240234-4.5126953,1.2695312-6.7080078,2.3603516-1.9013672.9433594-3.7275391,2.3154297-5.5839844,4.1943359-.6455078.6533203-1.5292969,1.5478516-1.6152344,3.0019531-.0019531.0341797-.0224609.1025391.0107422.0791016-.9208984.7382812-1.5742188,1.7138672-2.2050781,2.6582031-.2929688.4375-.5849609.8759766-.9033203,1.2832031-1.0058594,1.2861328-1.9755859,2.7714844-2.8818359,4.4160156-.9580078,1.7353516-1.8154297,3.5761719-2.6445312,5.3554688l-.2070312.4423828c-.3125.6689453-.5996094,1.3564453-.8857422,2.0429688-.3857422.9257812-.7851562,1.8828125-1.2402344,2.7587891-2.3144531,4.4501953-4.0927734,9.4394531-5.4375,15.2519531-.4658203,2.0117188-.9375,4.0224609-1.4082031,6.0322266l-1.4833984,6.3408203c-.3457031,1.4619141-.6904297,2.9248047-.9931641,4.3994141-.9130859,4.4472656-1.5048828,8.9951172-1.7587891,13.5185547-.1699219,3.0302734-.2939453,6.0273438-.4023438,8.8154297-.0263672.6611328-.0292969,1.3251953-.0322266,1.9882812-.0039062.9814453-.0078125,1.9960938-.0947266,2.9677734-.3027344,3.3984375-.2685547,6.9609375.1142578,11.5498047.0771484.9257812.1865234,1.8164062.3271484,2.6474609.140625.8388672.2958984,1.6748047.4511719,2.5107422.1611328.8691406.3232422,1.7382812.4677734,2.6113281.296875,1.7851562.5869141,3.5712891.8759766,5.3583984.5234375,3.2275391,1.0634766,6.5644531,1.6416016,9.8388672.4111328,2.3271484.8994141,4.3769531,1.4931641,6.2666016.3066406.9736328.7441406,1.8759766,1.1669922,2.7490234.2744141.5654297.5498047,1.1328125.7871094,1.7177734.6621094,1.6347656,1.5732422,3.0498047,2.4902344,4.4716797.3066406.4746094.6767578,1.0253906,1.0986328,1.515625.6611328.7685547,1.2890625,1.6318359,1.8964844,2.4667969,1.4130859,1.9414062,2.8730469,3.9472656,4.9882812,5.1806641,1.3271484,1.4208984,2.84375,2.4980469,4.3105469,3.5400391l.4804688.3427734c2.6132812,1.8671875,5.1181641,3.1660156,7.6591797,3.9716797,2.1152344.6699219,4.3876953,1.0009766,6.9013672,1.0009766.6083984,0,1.2304688-.0195312,1.8681641-.0576172,2.2890625-.1386719,4.6083984-.3457031,6.8505859-.546875,1.1054688-.0986328,2.2119141-.1972656,3.3173828-.2890625,2.3193359-.1904297,4.3964844-.453125,6.3291016-1.7412109,1.6044922-1.0683594,3.1259766-2.2109375,4.8066406-3.4853516.8535156-.6474609,1.4902344-1.2333984,2.0058594-1.8466797,2.0292969-2.4121094,4.0039062-4.8447266,6.0166016-7.3320312,1.0986328-1.3564453,2.2734375-2.8251953,3.4248047-4.3710938.3857422-.5175781.7441406-1.0634766,1.1025391-1.6103516.4335938-.6621094.8427734-1.2871094,1.3017578-1.8613281,2.109375-2.6484375,3.6220703-5.7451172,5.0839844-8.7392578.2988281-.6132812.5898438-1.2314453.8808594-1.8505859.5419922-1.1533203,1.1025391-2.3457031,1.7080078-3.4726562l.078125-.1455078c.6738281-1.2519531,1.3710938-2.546875,1.7871094-3.9755859.1787109-.6191406.3867188-1.2294922.59375-1.8408203.5878906-1.7373047,1.1962891-3.5322266,1.2099609-5.5527344.4619141-2.2041016.8017578-4.4648438,1.1289062-6.6523438.3935547-2.625.8007812-5.3398438,1.421875-7.9423828.4375-1.8349609.6083984-3.7412109.7734375-5.5849609.0458984-.5214844.0927734-1.0439453.1455078-1.5654297.3242188-3.2207031.2636719-6.4589844.2050781-9.5898438l-.0292969-1.6738281Zm-55.9023438,78.4990234c-3.6240234-.78125-6.2128906-1.9326172-8.3945312-3.734375-.3720703-.3076172-.7607422-.5546875-1.1367188-.7929688-.2685547-.1708984-.5371094-.3417969-.7939453-.5332031-.671875-.5048828-1.375-1.0693359-2.2783203-1.828125-.1123047-.0947266-.2109375-.2128906-.3115234-.328125-.1855469-.2138672-.3955078-.4560547-.6748047-.6386719-1.4863281-.9794922-2.6552734-2.4082031-3.8935547-3.9199219l-.1806641-.2207031c-1.7578125-2.1445312-3.5664062-4.5029297-4.8837891-7.2080078-.7949219-1.6337891-1.4794922-3.3994141-2.1425781-5.1074219-.2714844-.7021484-.5439453-1.4033203-.8242188-2.1005859-.1386719-.3417969-.234375-.6660156-.2851562-.9658203-.8974609-5.2138672-1.7900391-10.4306641-2.6699219-15.6494141-.484375-2.8720703-.9521484-5.7480469-1.4121094-8.6259766-.4111328-2.5712891-.4589844-5.2177734-.4726562-7.7080078-.0097656-1.7216797.0791016-3.4775391.1650391-5.1757812.1035156-2.0458984.2099609-4.1611328.1503906-6.2666016-.0517578-1.7871094.1054688-3.6367188.2587891-5.4248047l.0947266-1.1289062c.1855469-2.3017578.421875-5.0253906.7666016-7.7783203.3388672-2.7167969.9082031-5.4423828,1.4589844-8.078125l.1455078-.6982422c.3027344-1.4560547.6865234-2.9189453,1.0585938-4.3339844.4492188-1.7109375.9140625-3.4804688,1.2490234-5.2861328.6679688-3.5957031,1.3613281-6.4628906,2.1806641-9.0244141.7373047-2.2998047,1.6787109-4.5361328,2.5888672-6.6982422.5517578-1.3095703,1.1220703-2.6640625,1.6445312-4.0263672.125-.3242188.2441406-.6523438.3642578-.9794922.2832031-.7734375.5507812-1.5039062.8789062-2.2011719.7558594-1.6083984,1.5498047-3.1621094,2.3603516-4.6201172,1.1074219-1.9912109,2.2939453-4.03125,3.6269531-6.234375.5234375-.8652344,1.0996094-1.7197266,1.6572266-2.5449219.2626953-.3886719.5253906-.7773438.7851562-1.1708984.0537109-.0830078.1044922-.1777344.1533203-.2734375.015625-.0302734.0302734-.0615234.0458984-.0898438.9052734-.5478516,1.5136719-1.3847656,2.1015625-2.1943359.4589844-.6308594.8925781-1.2275391,1.4277344-1.6318359,1.0927734-.8251953,2.3320312-1.7597656,3.7011719-2.3027344,3.5869141-1.4208984,7.1865234-2.5166016,10.7001953-3.2558594.4267578-.0898438.8486328-.2226562,1.2705078-.3554688.4902344-.1552734.953125-.3017578,1.4072266-.3671875,3.0078125-.4375,5.9521484-.7919922,8.9277344-.3603516.7421875.1074219,1.4853516.1972656,2.2285156.2871094.9072266.1103516,1.8134766.2197266,2.7177734.3623047.8876953.1396484,1.7626953.3535156,2.6005859.6367188.4101562.1396484.8066406.390625,1.0898438.6894531.4023438.4257812.7753906.8857422,1.1708984,1.3720703.3876953.4775391.7890625.9707031,1.2197266,1.4296875.7070312.7529297,1.5029297,1.484375,2.4316406,2.234375.5908203.4775391,1.2197266.8652344,1.8271484,1.2392578l.3330078.2060547c1.7480469,1.0888672,3.0390625,2.6630859,3.9472656,4.8105469.7382812,1.7460938,1.5322266,3.4882812,2.2998047,5.1738281.5527344,1.2138672,1.1054688,2.4267578,1.6425781,3.6503906,1.3212891,3.0087891,2.1787109,6.3388672,2.6210938,10.1816406.2460938,2.1289062.5712891,4.2011719.8857422,6.1230469.1220703.7441406.3466797,1.4492188.5634766,2.1318359l.0751953.234375c.2236328.7080078.4589844,1.4111328.6953125,2.1152344.4238281,1.2617188.8623047,2.5664062,1.2109375,3.8701172.9316406,3.4775391,1.4111328,6.7021484,1.4658203,9.8554688.03125,1.7792969.1542969,3.5771484.2734375,5.3144531.0527344.7763672.1064453,1.5537109.1513672,2.3300781.0039062.0634766.015625.1259766.0351562.1855469l.1630859,2.7167969c.1523438,2.5185547.3046875,5.0380859.4208984,7.5595703.0244141.5488281-.0126953,1.1074219-.0517578,1.6982422-.0400391.6015625-.0820312,1.2236328-.0537109,1.8505859.1035156,2.390625-.0839844,4.8203125-.2646484,7.1708984l-.0097656.1171875c-.1503906,1.9453125-.4394531,4.0068359-.9091797,6.4863281-.5966797,3.1474609-1.1162109,6.3652344-1.6191406,9.4765625l-.28125,1.7373047c-.1738281,1.0693359-.3144531,2.1464844-.4541016,3.2236328-.0654297.4970703-.1298828.9941406-.1982422,1.4912109l-.0136719.1113281c-.0107422.0820312-.0214844.1757812-.0361328.21875-.2050781.6103516-.3964844,1.2304688-.5869141,1.8505859-.4179688,1.3564453-.8505859,2.7587891-1.4267578,4.0078125-1.0595703,2.2929688-2.2304688,4.5722656-3.3632812,6.7763672-.6230469,1.2138672-1.2470703,2.4287109-1.8564453,3.6513672-1.1943359,2.3964844-2.5615234,4.6132812-4.0644531,6.5898438-.3886719.5126953-.7490234,1.0566406-1.1074219,1.6015625-.3017578.4570312-.6035156.9150391-.9257812,1.3525391-1.265625,1.7197266-2.6816406,3.3349609-4.0244141,4.8408203-1.3984375,1.5712891-2.8076172,3.3554688-4.4326172,5.6142578-1.0957031,1.5224609-2.5068359,2.4746094-4,3.4824219l-.9355469.6259766c-.5498047.3623047-1.1181641.7363281-1.6630859,1.1630859-.9453125.7402344-1.8798828,1.1220703-2.9414062,1.2011719-2.15625.1601562-4.3417969.3681641-6.4560547.5703125-1.2958984.1230469-2.5917969.2470703-3.8886719.3603516l-.4736328.0419922c-1.3310547.1171875-2.7070312.2382812-4.0439453.2382812-.890625,0-1.796875-.1796875-2.8037109-.3974609Z" stroke-width="0"/>
      <path d="m44.2898803,116.589238c2.0419922-.2246094,4.2353516-.6005859,6.4306641-1.8203125,1.6650391-.9248047,3.2705078-2.2587891,5.0527344-4.1982422,1.4853516-1.6181641,2.7148438-3.7138672,3.5556641-6.0615234.640625-1.7871094,1.1279297-3.4287109,1.4882812-5.0185547.2636719-1.1630859.4130859-2.3623047.5576172-3.5234375.0517578-.4082031.1025391-.8164062.1582031-1.2236328l.0351562-.2558594c.1279297-.9306641.2607422-1.8925781.3330078-2.8564453.1113281-1.4775391.2001953-2.9580078.2890625-4.4384766l.1201172-1.9736328c.2753906-4.34375.2529297-8.5478516-.0693359-13.2304688,0-.0048828-.0009766-.0107422-.0009766-.015625-.0566406-.6210938-.1142578-1.3046875-.1748047-2.0332031-.1542969-1.8271484-.328125-3.8984375-.5673828-5.9794922-.4951172-4.2978516-1.2910156-8.8144531-3.7626953-12.7548828-1.265625-2.0146484-2.5732422-4.0986328-4.7783203-5.1367188-.1337891-.0625-.3007812-.2060547-.5126953-.3876953-1.9013672-1.6289062-4.0683594-2.1582031-5.7431641-2.4384766-4.1787109-.6923828-7.8232422,1.0566406-11.140625,5.3681641-.84375,1.0966797-1.5927734,2.3027344-2.3173828,3.46875-.6816406,1.0976562-1.3857422,2.2314453-2.1523438,3.2421875-1.1357422,1.4970703-2.1259766,3.2001953-3.0263672,5.2060547-.7207031,1.6025391-1.4863281,3.3271484-2.2041016,5.0771484-1.2587891,3.0693359-2.0644531,6.2011719-2.9140625,9.6835938-.1318359.5371094-.2714844,1.1650391-.2753906,1.8115234l-.0097656,1.6210938c-.015625,2.3613281-.0322266,4.8027344.0625,7.2060547.0390625,1.0253906.1855469,2.0410156.3261719,3.0234375.1142578.7949219.2333984,1.6171875.2890625,2.4169922l.0566406.8212891c.2197266,3.1728516.4462891,6.4541016.984375,9.6494141.5253906,3.1220703,1.3447266,6.3388672,3.7519531,8.7099609.5341797.5253906,1.0224609,1.1503906,1.4951172,1.7548828.4931641.6308594,1.0810547,1.1201172,1.8515625,1.5390625,3.5322266,1.9248047,7.0097656,2.8720703,10.5664062,2.8720703.7441406,0,1.4921875-.0419922,2.2451172-.125Zm-17.2353516-18.6992188c-.1845703-1.8554688-.3759766-3.7724609-.4326172-5.6630859-.0166016-.5458984-.0791016-1.1201172-.1894531-1.7548828-.6083984-3.5048828-.7949219-7.0273438-.5537109-10.4648438.0146484-.1982422.0087891-.4033203-.0107422-.6035156-.2724609-2.7988281.5214844-5.4638672,1.2890625-8.0419922.5205078-1.7490234,1.1513672-3.578125,1.8769531-5.4365234.4785156-1.2294922,1.0048828-2.4042969,1.5625-3.6494141.1884766-.4189453.3769531-.8398438.5634766-1.2626953l.828125-.1367188c.2265625-.0380859.4228516-.1757812.5341797-.3759766.0693359-.1259766.1474609-.2509766.2265625-.3769531.1992188-.3193359.4257812-.6826172.5693359-1.1113281.8789062-2.6503906,2.3037109-4.7890625,3.5820312-6.5322266.5664062-.7734375,1.1152344-1.6074219,1.6328125-2.4785156.9003906-1.5205078,2.2480469-2.2919922,3.6748047-3.1083984.3837891-.2197266.7685547-.4404297,1.1455078-.6748047.3339844-.2099609.8720703-.2949219,1.4755859-.2285156,2.1806641.2294922,3.8056641.6982422,5.2685547,1.5214844,3.7460938,2.1074219,6.1542969,5.8662109,7.3603516,11.4902344.5996094,2.796875,1.0634766,5.7597656,1.3769531,8.8046875.3408203,3.3193359.5234375,6.5712891.5429688,9.6650391.0146484,2.4179688-.1113281,4.8896484-.234375,7.2792969-.0488281.9726562-.0986328,1.9462891-.1396484,2.9179688-.0273438.6416016-.0703125,1.28125-.1123047,1.921875l-.0732422,1.1533203c-.125,2.2001953-.5019531,4.4091797-.8652344,6.5449219-.1679688.9833984-.3359375,1.9677734-.4814453,2.9550781-2.1230469,7.1601562-5.7724609,11.4824219-11.1533203,13.2167969-1.2958984.4169922-2.7226562.5634766-4.2451172.4189453-2.234375-.2050781-4.6025391-.4785156-6.8378906-1.3603516-2.7929688-1.1025391-4.9023438-3.2265625-6.4492188-6.4931641-.8369141-1.7685547-1.3173828-3.5078125-1.4677734-5.3164062-.0771484-.9414062-.1708984-1.8808594-.2636719-2.8193359Z" stroke-width="0"/>
    </g>
  </g>
</svg>