<?xml version="1.0" encoding="UTF-8"?>
<svg id="Layer_2" data-name="Layer 2" xmlns="http://www.w3.org/2000/svg" viewBox="0 0 125.5944512 282.6355539">
  <g id="Layer_1-2" data-name="Layer 1">
    <path d="m51.9026154,138.6755552c0-3.3569169.1757398-6.6757982-.0435886-9.9715813-.2869146-4.3113531.0272957-8.6212471-.2211491-12.9216816-.1007526-1.7443281.0069657-3.4984866-.2049616-5.2228943-.1775076-1.444236-.1671514-2.8760696-.1611487-4.313517.0040238-.9642666.1568347-1.9271606.1950011-2.8923546.0373353-.9441731-.0997763-1.9053854.038958-2.8329272.361295-2.4154023.1697899-4.8352314.173563-7.2503865.0263326-16.8141496.0151848-33.628324.0160555-50.4424984.2654369-1.1903527.1578373-2.4010958.2396848-3.6009697.0418736-.6139097.2766375-1.2162703.511507-1.7821039.2561361-.4644015.5216653-.9244876.7668251-1.3939218,1.158582-2.2184116,2.1158172-4.5303539,3.6157468-6.5891055.6011645-.8251328,1.4449425-1.2452792,2.3983386-1.4961947.6729459-.1771074,1.3892298-.2094549,2.1661077-.3175519-.5298844-.3948594-1.0966423-.7707629-1.2684111-1.4378555,0-.2349273-.0064512-.4700524.0010554-.7047695.0514383-1.6074943-.3454638-3.1465964-.7738304-4.686663-.4954251-1.781226-1.3342031-3.4477149-1.9189559-5.1977743-.4693035-1.4045311-.9836074-2.798558-1.3781084-4.2215567-.3802001-1.3713923-.3626275-2.8004375-.2233522-4.1943531.1147368-1.1482429.6375367-2.2155552,1.3805226-3.1621024,1.0704548-1.3637815,2.4146976-2.4852165,3.6978449-3.6597974.1723889-.1578053.4189339-.2444424.6647796-.3829949h1.1267348c1.1544527.5110309,1.0866818,1.5594429,1.2868941,2.4833803.0351849.162368.0102639.3367366.0084301.505516-.0174012,1.6035807.116188,3.1916121.4097386,4.7757855.1697108.9158566.187257,1.8578472.2498432,2.7894572.0806205,1.2004613.1861357,2.4021282.1915842,3.6036282.0055673,1.2273866-.2725346,2.433097-.5104252,3.6375523-.179038.9065332-.367047,1.811527-.5429188,2.718592-.2263997,1.1677491-.4435646,2.3370561-.6685395,3.5050525-.0184038.0955215-.0420715.2042244-.1039056.2761283-.534924.6221573-.5423515,1.4051865-.766271,2.1235825-.1040507.3338369-.3143158.6386031-.4968367.9965399.5330902.2317371.9626178.1147247,1.4259055-.0647568.9585281.4420699,1.5191382,1.214737,1.9003937,2.1348844.5438291,1.3124966,1.0773942,2.6290985,1.6504978,3.9303551.1869932.4246102.4634196.8193088.7344502,1.2058217.7006242.9991737,1.1987537,2.0740845,1.5923049,3.2136655.4206225,1.2179643.9934491,2.3890149,1.4626339,3.5932785.2415977.6201294.3874297,1.2681549.3854376,1.9399834-.0056992,1.9245021.1191168,3.8570045-.0273616,5.7715897-.1953969,2.5539178-.0044723,5.1170354-.2379433,7.6544332-.1888797,2.0529399-.0420055,4.0964822-.173563,6.1390229-.2860439,4.4408543-.2115844,8.8857768-.1903969,13.3294256.0094328,1.9784269.0418208,3.9658187.2554369,5.9308417.1238794,1.1396676.0175067,2.2834775.1897373,3.4022108.3147908,2.0446428.0138127,4.1022197.2276926,6.1352886.3466643,3.2953132-.0327311,6.598837.2208456,9.8839736.3013738,3.9046602-.0430214,7.8148352.2246847,11.7072043.1689192,2.4560593.115436,4.9030672.1551724,7.353661.0399607,2.4641585.0647365,4.9310497-.0165304,7.3934895-.0496573,1.503787-.0796443,3.0202854-.2417033,4.5096545-.1914127,1.7592777-.4090261,3.5086879-.3845801,5.278847.0018206.1318382.0002375.263726.0002375.4684697,1.6187298-.456055,2.9985928.187012,4.3219383.79511,1.3917892.6395552,2.5407141,1.5992961,3.0262447,3.2517134.0300925.4979979.0979029,1.1983901-.2887088,1.7805459-.4282479.6448228-.8978813,1.3089602-1.5031355,1.7974368-1.0437264.8423947-2.2934172,1.4037769-3.6004565,1.8272123-.6254918.2026664-1.2583451.3853258-1.8870295.5767892.1720459,1.0502545.3093158,2.0958844-.0424409,3.1364693-.0210951.0624198-.0104354.1341629-.0153299.2015288-.0748685,1.0304948-.0756601,2.0715991-.2416241,3.0890609-.2726929,1.6715834-.0655149,3.3558782-.2380357,5.0175941-.1240113,1.1945569-.187389,2.4405038-.8197805,3.5490233-.1457924.2555402-.2882603.512762-.4480633.79741,1.5664472.8735799,2.0958698,2.2907607,2.4187345,3.8690853.1828903.894032.1650274,1.785764.2120197,2.7358848,1.059716-.5591811,2.0763051-1.0617047,3.0562844-1.6206138,1.4774889-.842642,2.9433682-1.7048211,4.387849-2.596207,1.1806666-.7285603,2.3153698-1.5222607,3.4840574-2.2683054,1.3393614-.8550073,2.6877203-1.6886474,4.2237055-2.2311107.9515491-.3360626,1.8519766-.7978056,2.7815071-1.190328,2.0129274-.8499623,4.098441-1.4997806,6.2294033-2.0419225,2.0218456-.5143942,4.0270553-1.0882653,6.0299562-1.665376,2.1377698-.6159623,4.2587189-1.2833146,6.3974254-1.8962599,1.7060127-.4889465,3.4151256-.9782393,5.1471806-1.3738282,1.0178028-.2324913,2.0430991-.490925,3.1094642-.519464.38115-.0102137.7616008-.1888173,1.1382785-.1768725,1.9865156.0628154,3.8809463.3645769,5.2519438,1.9290278.4129708.4712395.746693.9594194.8353479,1.5767172.0228761.1592891.1098951.3104913.1764522.4896637-.0539845.1915624-.1661751.412282-.1700933.6346586-.015884.9003135-.2008455,1.7723601-.4207281,2.6428734-.0487866.1930957-.0244329.4034285-.0260292.6058476-.0063853.8102945.0093668,1.6211826-.0178761,2.4308094-.0755545,2.2466909.370609,4.4290826.94209,6.5900824.4224167,1.597293.8235536,3.1880818,1.0776976,4.824721.2092097,1.3472924.1465312,2.67668.1382726,4.0112609-.003971.6421767-.2036819,1.3042861-.4305962,1.9198528-.4379445,1.1880281-.9290292,2.3635178-1.9498004,3.2538155-.5525098.4818984-1.0413781,1.0435031-1.6493105,1.4506659-1.1852972.793824-2.5532736,1.1950268-3.9837305,1.4482176-2.0422547.3614856-4.0997998.4464101-6.1673449.387601-.6699512-.0190672-1.3360105-.1377983-2.0058429-.1871604-.6699644-.0493868-1.3331213-.0019537-2.0118456-.1647793-.6096078-.1462561-1.2895063-.0192403-1.9365813-.0483234-.7790679-.0350678-1.5731359.1249879-2.3368871-.1665599-.1547239-.0590811-.3723505-.0540609-.5340137-.0032644-.909095.2857608-1.844404.1409638-2.7677471.1722726-2.3257788.078915-4.6641171.0346474-6.973814.2561337-1.5417637.1478141-3.0723927.0722378-4.6043542.1633696-.9181057.0546049-1.8335992.1477152-2.8808217.2342967.8743719.6407176,1.6618831,1.2175068,2.4489194,1.7948401.1400008.102681.2899225.1966074.4150024.3136074,1.7591264,1.64574,3.5476066,3.265513,5.2593581,4.9535668,1.0988851,1.0836407,1.9496684,2.3568405,2.7373248,3.6582084.9390293,1.5515168,1.910684,3.0871319,2.7974571,4.664591,1.0137263,1.8032732,1.7863034,3.70762,2.3761485,5.6688716.313643,1.0428354.5152933,2.1097087.6998194,3.1862765.4625621,2.6987396.3250283,5.4090778.4322189,8.116201.0515702,1.3018625.2002123,2.6032304.156716,3.9089014-.0321902.9663687-.1528637,1.9308826-.1624548,2.8968555-.0061874.6264481.1162276,1.2540585.1817293,1.8811001.0653698.6258051-.1411222,1.2756235.197732,1.8795915.0452773.0806709.0112797.1996987.0168207.3008464.0633777,1.1575601.2027057,2.3045355.4143032,3.4490379.1508056.8157105.13351,1.6574375.2461756,2.4809629.1024017.7484436.2438537,1.495799.4310711,2.229528.2756481,1.0803268.4690265,2.1734145.8095694,3.2470888.5174701,1.6315447,1.0283438,3.263213,1.648453,4.8625092.7360202,1.8982383,1.7963166,3.6455464,2.9050434,5.3689649.4001343.6219471.8088966,1.2420889,1.157144,1.8897805,1.4318818,2.6630287,3.1236595,5.176809,4.9000815,7.6459012.8282898,1.1512786,1.6139409,2.3308735,2.3792356,3.5200886.5617975.8729369.8624193,1.8220931.6358085,2.9135239-.7143973,1.2941219-1.4499557,2.644926-2.203509,3.9868519-.8766146,1.561137-1.3895464,3.2211712-1.6721602,4.9619505-.0853567.5255971-.1344599,1.0538157-.2245,1.5734528-.0996708.5751818-.37177,1.1241245-.5247128,1.5591091-.5458739.4908261-1.0677767.5083352-1.5378191.4352072-1.313794-.9541765-2.5171916-1.9596441-3.8575952-2.7646958-1.3412084-.8055463-2.6529707-1.6370349-3.9280837-2.5305228-1.5925687-1.115914-2.8820882-2.471318-3.9462105-4.0376978-.9101637-1.3397496-1.8342456-2.6729951-2.8078661-3.9724835-.8139098-1.086361-1.6874769-2.1354037-2.5721655-3.1728231-1.3258653-1.5547565-2.665174-3.0917071-3.5594932-4.9250773-1.0409956-2.134093-2.3637078-4.1277663-3.5755883-6.1773057-1.619904-2.7395696-3.3330934-5.4378146-4.6043146-8.3489396-.1708717-.3912858-.439277-.7451297-.7201889-1.2121898-.5682751.7487404-1.12688,1.4213108-1.612582,2.1373327-1.151326,1.6973278-2.72714,2.9482455-4.5684041,3.9348932-.4894884.2622916-.9795044.5236929-1.4732276.7876167.4326411.5894018,1.1391096.7694398,1.8176624.9053586.9943726.1991299,2.0188113.2622174,3.0207829.4330556,3.2853095.5600467,5.623661,2.1849389,6.5907115,5.2829028.4631558,1.4837058.3143026,2.9473552-.2897642,4.3789786-.7812579,1.8514977-2.1711869,3.177324-4.0283218,4.0928468-2.0299591,1.0007688-4.1873069,1.6395079-6.4384679,2.0519383-.8997942.1648782-1.7965409.2917456-2.6997652.4177475-.7453078.103967-1.5005761.0467406-2.2185091.1856518-1.4608001.2825953-2.9376953.0332872-4.3828621.2089974-1.2491498.1518947-2.5039461.0585618-3.7336499.2160208-.7452286.0953855-1.4905496.078272-2.2238521.1744736-2.8963627.3799593-5.8038599.1837475-8.7043387.1584483-1.0049531-.0087793-2.0282969-.182882-3.040031-.3200867-.9751377-.1322092-1.9516605-.2569745-2.9067585-.4707202-1.8328604-.4101305-3.6693223-.8337638-5.3714431-1.6185612-1.3232268-.6101012-2.4289984-1.4893196-3.2300849-2.6566236-1.2750866-1.8580018-1.411565-3.8325584-.5161772-5.8581835.8065483-1.8246651,2.2154484-3.1327597,4.0642455-4.0623789,1.2206008-.6137366,2.4740647-1.0489685,3.867371-1.2152563.6693047-.0798795,1.3398627-.103052,2.0047347-.1827089,2.1920181-.2625884,4.4255801-.3150665,6.6063976-1.1342887-.2435766-.1047831-.4369551-.2272979-.6492123-.2732225-2.2164906-.4794253-4.3376244-1.2285613-6.078136-2.598952-1.9412515-1.5284927-3.6748237-3.2734762-4.8482343-5.4795597-.9189104,1.2328892-1.6866194,2.5144232-2.3892225,3.83241-.7092654,1.3304757-1.4685838,2.6396337-2.1213581,3.9939249-1.0227633,2.1218761-2.138192,4.2111575-2.8126814,6.4678395-.3590522,1.2012836-.6263097,2.4143142-.8437912,3.6489098-.2365185,1.342742-.2221913,2.6790046-.1494732,4.0077492.067507,1.2337795.0703698,2.4809134.2306874,3.6996073.1876132,1.4259849.3264399,2.8640134.7712446,4.2701644.4255038,1.3450914,1.0559033,2.5727625,1.7719761,3.7810201.5285387.8918557,1.1970387,1.7073436,1.6018564,2.6678017.3528121.8370777.3733663.8294607.3379176,1.8430151-.3486168.2647646-.7568778.5748108-1.0345179.785663-3.2115756.441835-6.2661054.3056441-9.3116906.2441889-1.5804446-.0319023-3.1575647-.2137209-4.7273497-.5284411-1.9249453-.3859193-3.8078192-.8643059-5.673028-1.4432962-.7597736-.2358547-1.5949632-.2507672-2.3700007-.4531615-.7743581-.2021965-1.5515329-.1477152-2.3297696-.1974235-.5946539-.037986-1.1827246-.1665104-2.0463115-.2954799-.4816387-.1841927-.9042467-.6393079-1.0557054-1.4386469-.1822306-.9617193-.5960127-1.8835731-.8842862-2.8294402-.2129498-.6987106-.3685048-1.4055575-.3818756-2.143639-.0113589-.6266706-.1407066-1.2506704-.1926726-1.8776873-.0493473-.5954113-.0004288-1.1852582-.1859642-1.7854178-.1447106-.4681235-.0177837-1.0060116-.043681-1.5114534-.0322693-.6296878.1154888-1.2733977-.1862214-1.886615-.0685624-.139381-.0629291-.352088-.0025594-.4989377.3077063-.7486167.0406137-1.5481535.219401-2.2840092.2710306-1.1154935.0033971-2.2698387.3756618-3.3661413.0422034-.1242213.0226189-.2683506.0230608-.4033048.004281-1.3014916.1960698-2.5827288.4058533-3.8673789.1556276-.9529895.1510629-1.9279149.2602918-2.8888429.1044861-.9192571.3144873-1.8295617.3861566-2.7500801.0904557-1.1616159.4535251-2.2699376.6430249-3.4073176.2351927-1.4116906.7721549-2.7270065,1.2449545-4.0643573.9674133-2.7363794,1.9749852-5.4602699,2.9478273-8.195017.651145-1.8304273,1.2271048-3.6853378,1.9196419-5.5015203.4941784-1.2960261,1.1001384-2.556836,1.7034665-3.8134417.6923524-1.4420844,1.4055096-2.8770217,2.1658439-4.288465,1.2399413-2.301741,2.5886827-4.5442277,4.1414095-6.680596,1.6496007-2.269715,3.0452817-4.6793304,4.2916611-7.1668469.7210069-1.4389436,1.4865918-2.859562,2.5529965-4.114857.3964931-.4667386.7283948-.9841004,1.1466294-1.4316976,1.2725141-1.3619081,2.5739861-2.7000503,3.8617245-4.049519.5718899-.599294,1.1454553-1.1975246,1.7020153-1.8092333.1738533-.1910925.2944872-.4246967.5397393-.7869242-1.3569869.3929675-2.5469807.7396148-3.7383201,1.0821321-2.0444975.5878438-4.1032695,1.1096819-6.2186249,1.4432962-1.3695067.2159961-2.7318366.3932395-4.1230585.3783023-1.548769-.0166436-3.1094642-.1129689-4.6436948.0282917-1.5733734.1448712-3.1399789.1799143-4.7098561.1495205-3.3048479-.0639036-6.2972269-.978363-8.9023346-2.9440413-1.1024669-.8317853-2.24-1.6308028-3.4201586-2.3616383-.9667603-.598651-1.561091-1.4307331-2.060487-2.3602039-.0955349-.1778122-.1780222-.3617576-.2862022-.583145-.0021834-.0201554-.0106069-.0865567-.0164051-.1531807-.1668875-1.9169593.240793-3.7610378.7628145-5.5991563.4943631-1.7407793.9726376-3.4881616,1.365074-5.2508026.2441109-1.0964263.1983257-2.2556681.5017444-3.3324584.2398167-.8510751-.0311941-1.7378611.3679903-2.552162.0690242-.1407907.0240239-.3335649.0207983-.5021526-.0382654-2.0017849.328874-3.9594258.8969314-5.8698315.3920735-1.3185556,1.1981931-2.4125336,2.7560386-2.7780255.2367956-.0555694.4817245-.1106689.7234211-.1127958,1.2245586-.0107578,2.4512545-.0428332,3.6732274.0112524.7317193.0323969,1.4551998.2151553,2.1842674.3186524.3845537.0546297.7875244.0359829,1.1575925.1329017,2.2158507.5804494,4.4241553,1.1861733,6.6357777,1.7809169,1.239717.333367,2.4810964.6612686,3.7213411.9928798.5029317.1344597,1.0104809.2564552,1.5062489.4113423,2.3510956.7345945,4.7202256,1.4246989,7.0422709,2.2332375,2.7204513.9473015,5.5599007,1.6282803,8.090971,3.0159576,1.1238588.6161849,2.2124536,1.2894973,3.3086474,1.9491584,1.0397027.6257062,2.068429,1.2674624,3.1340949,1.9218807.3501868-.558365-.0651851-1.0041816-.1315047-1.452397-.1000138-.6758596-.2454632-1.3594598-.412852-2.0239434-.2858328-1.1346597-.1843151-2.265041-.1889193-3.3989587-.0060818-1.4933012.6295288-2.7789406,1.650854-3.8697283.6262042-.6688114,1.4137682-1.204919,2.1618597-1.8280779-.0372298-.2863791-.1290641-.6739801-.1312013-1.0620015-.0121241-2.1945591-.0181531-4.3893901.008694-6.5837266.0080871-.6616148.1350668-1.3214738.1943547-1.9831875.059222-.6608729-.0106465-1.316775.169592-1.9879111.1623888-.60471.0395385-1.2752772.0556863-1.9165141.0082322-.3265414.0454884-.6524645.07442-1.0435773-.1679034-.0526759-.4271397-.1866657-.6974052-.210407-1.8994966-.1668566-3.7130561-.6869141-5.4964835-1.2617002-1.0487924-.3379669-1.8725308-.9852875-2.1994852-2.1233847-.2016766-.7020245.0641956-1.2519069.3225217-1.7916499.5054515-1.0561156,1.371235-1.8539707,2.4249483-2.4632064,1.9218714-1.1111904,3.9841791-1.9263074,6.2103795-2.5816407Zm-.2127189,48.914661c-.1643018.0442181-.3398041.066896-.4911638.135993-1.3223429.6037949-2.6887757,1.0991219-4.0977154,1.4938206-.0427839.0119943-.0686284.0771097-.1226656.1417057.081887.0710012.1604099.1390843.2054366.1781337,1.4709189-.3331939,2.8099505-.8811227,4.0873195-1.5621262.1638268-.0873234.274619-.2620196.4099892-.3962567.5686577.0209962,1.0505998-.1821401,1.6344423-.5368742-.7662446-.1139334-1.2052841.1922548-1.6256428.5456041Zm.0025726-45.5805951c-.1429824-.0000989-.312271-.0477546-.4249497.006974-1.3107597.6367607-2.6291447,1.26264-3.9073448,1.9534615-.3727331.2014546-.7590678.4982699-.8970897.9928056,1.8310925.7010352,3.7241512,1.0631144,5.7217882,1.4512347-.1199215-1.0859159-.2004761-2.1093872-.3600549-3.121903-.0680875-.4320911.1309374-.8887644-.146452-1.2953089.0584436-.0296766.1169004-.0593532.0315173-.0160006.0480478-.0793601.0153167-.0252993-.0174144.0287368Zm-17.2578982,138.3673206c-.5250559-.5976618-.9069183-1.0856191-1.3464327-1.5226316-1.3132663-1.3058194-2.1105929-2.886815-2.796151-4.5275594-.6250828-1.4960463-.7988042-3.0973456-.8213505-4.6606589-.0415966-2.8851827-.2663076-5.7800351.15665-8.6642039.0959636-.6543688.2248826-1.295853.3818624-1.9355319.4469683-1.8212276,1.0733836-3.5886168,1.7912506-5.3313993.5323646-1.2924897,1.1351386-2.5538931,1.8753936-3.7492166.8487121-1.3704154,1.7412899-2.7143445,2.4877191-4.1409476,1.1616163-2.2200562,2.8005046-4.1389692,4.4567544-6.0439342,1.0324599-1.1875335,2.0661335-2.3749185,3.0643056-3.5876276,1.2111549-1.4714642,2.3488396-2.9969893,3.5853377-4.4489906,1.4616972-1.7164692,2.7443169-3.5338388,3.7661303-5.5064912,1.5539273-3.0000312,3.0866408-6.0098061,4.6079954-9.024453.6914421-1.3700939,1.3958789-2.7391739,1.9845499-4.1490098.9124724-2.1852604,1.9333095-4.3028334,3.2388449-6.3191104.9453486-1.4600387,1.6545348-3.0612144,2.3897502-4.6320457.6815475-1.4561313.8805593-3.0416526,1.157421-4.5950984.1635234-.9174023.0991563-1.8721229.2824555-2.7844307.2279961-1.1347339.2766771-2.253566-.0504752-3.3550126-.2158456-.7267055-.2002386-1.4495777-.2163865-2.1806605-.0057256-.2587304-.0009103-.5176834-.0009103-.8013916-.2051331-.011376-.3555166-.055421-.4814276-.0209467-.9071425.2481952-1.8419237.128376-2.759317.2094178-.7277879.0642498-1.4486629.236473-2.1610417.4039231-.7108353.1670545-1.3952457.4540518-2.1130071.5687766-.953185.1522904-1.8028998-.1782079-2.5705428-.7782686-.6192253.8160567-1.5482809,1.1557795-2.5090385,1.4022683-.9504541.2438426-1.8631904.5652154-2.7663619.9274181-.6430513.2578896-1.290997.5782978-1.9681118.6721253-1.1785953.1633696-2.0411729.7278184-2.7466124,1.5551769-1.3563536,1.5906652-2.8772069,3.0466976-4.1949455,4.6742359-1.2920788,1.5958586-2.7741324,3.0564909-4.1700245,4.5787021-.4420211.482022-.9034618.9515304-1.3070921,1.4608301-1.3919211,1.7563348-2.5765323,3.6304361-3.6458525,5.5768741-.6603337,1.2020255-1.414916,2.3631715-2.1956725,3.5013677-1.0693466,1.5589607-2.1968071,3.0831256-3.311906,4.6141903-1.5939935,2.1885743-2.8828401,4.5345087-4.1229794,6.9090562-.9882512,1.8921546-1.9876502,3.7786459-2.8060059,5.7425932-.5465336,1.3116311-1.0697952,2.6317941-1.6019685,3.9486928-1.0161933,2.5145469-2.0701837,5.0165059-3.0329861,7.548933-.6330248,1.6650545-1.2416828,3.340842-1.6492841,5.0772193-.347944,1.4822714-.7480123,2.9438682-.877116,4.4710502-.1117553,1.3220179-.3994087,2.6316952-.4099826,3.9660041-.0005343.0675142.0086346.1371306-.0054156.2022212-.275371,1.2756482-.4126541,2.5642304-.4191647,3.8654252-.0006728.1350038.016913.2743848-.0118338.4043683-.2746916,1.24199-.3062551,2.5070783-.4107742,3.7648711-.0550267.6622084.0756271,1.3340863-.180509,1.9882078-.081544.2082307-.0839979.4941399.0008443.6997492.2703842.6551602.1433518,1.3265188.160212,1.9900626.0240107.9448037-.0153959,1.891388.022454,2.835425.0387008.9651816.13789,1.9281869.2108258,2.8921567.0076056.1005294.0031596.2038782.0271637.3009701.3070994,1.2421384.6183743,2.4833865.9489831,3.8064677.8874788-.1237019,1.8174975.1569644,2.6906952-.1969784.2197506.0596499.4233204.1680684.6214944.1600063,1.1928104-.0484965,2.2927905.3303994,3.4103432.6227138,1.4845734.3883429,2.9579857.7886059,4.4755804,1.0858417,1.4688741.2877145,2.9490411.3896289,4.4111737.4856821,2.4324813.1598084,4.885596.0435751,7.4544897.0435751ZM55.3543639,40.5069679c0,.3001045.0139711.531891-.0022955.761798-.0927446,1.3104687.2087743,2.6059879.1977056,3.9062553-.0225595,2.6532355.2229433,5.3138406-.1812544,7.959558-.0603038,5.0169758.0757392,10.0358064-.207178,15.0508285-.1646975,2.9192737.1484573,5.8456451-.2066239,8.7694322-.1637477,1.3481333-.3124293,2.7047862-.4216384,4.0570989-.1074281,1.3305993-.2229696,2.6730199-.2250805,4.0054864-.0040633,2.5512593-.009657,5.1010719.127006,7.6575369.287627,5.3801307-.1718084,10.7765341.2393022,16.1624394.0704226.9226823-.1644865,1.8624038-.1539455,2.7932101.0254355,2.2488301.1008185,4.4974129.1778506,6.7454269.0932327,2.7199336-.1285628,5.440671.1816897,8.1641658.1888929,1.6581052.017731,3.3448731.2418616,5.0166543.1594468,1.1894872.1645656,2.3971512.2387481,3.5967037.0041557.0673906-.0048681.1393069.0171109.2013804.4197122,1.184912.2491835,2.4153281.1351063,3.5968274-.1240772,1.2849963-.2179037,2.5762742-.3701341,3.8608254-.127006,1.07177.1080481,2.1317683.2034049,3.1957483.0199473.2226486.0455016.4449015.0689054.6715318,2.0121754,0,3.9569889.007617,5.9016969-.0026462,1.3185038-.0069493,2.6479443.1056734,3.9449308-.2146607.804543-.1986848,1.6888885-.1728661,2.442455-.771344.0596969-.3938331.1839984-.8497397.1884576-1.3066602.018826-1.9241559.0023087-3.848658-.0025198-5.7730117-.0005937-.2362998.0506467-.4904798-.0233115-.7058577-.3772318-1.0985284-.0045251-2.2617518-.3606486-3.3683176-.0898158-.2790836.152745-.6378241.165001-.9625354.0568341-1.5055181.1139321-3.011605.1797108-4.5155156.0950269-2.172722.1967294-4.3596517-.1222171-6.5431933-.164658-1.1273642-.011636-2.2929246-.0497892-3.4398258-.0377575-1.1343134-.1915315-2.2666361-.1971252-3.4002571-.0233247-4.7265162.010132-9.4533044-.0210555-14.1797464-.0108444-1.6401385.1181405-3.280747-.1684047-4.924558-.1880618-1.0787811-.0628236-2.1910968-.2106081-3.2961293-.1855684-1.3875537-.0400926-2.8038194-.2254367-4.210329-.1788005-1.3568755.0039578-2.7333623-.2086424-4.1099109-.2083917-1.3492214-.0463195-2.732472-.2153047-4.1079448-.2079432-1.6925795-.0730083-3.4098896-.2072176-5.122167-.1789852-2.2836259-.0833778-4.5891878-.0398815-6.8842392.0438789-2.3159363-.1455022-4.6327629.1592621-6.9504674.1531539-1.164769.0144328-2.3610695.0538658-3.5417526.040119-1.2017535.1426262-2.4015656.2072572-3.6027256.0628236-1.1675512.0101056-2.3305644.1657134-3.5061901.2237084-1.6902301.1883125-3.4103718.2688142-5.1175424.0693672-1.4709572.066821-2.9506815.256677-4.4081482.0816364-.6267077.1316103-1.2534773.1958851-1.8804447.0092217-.0899572.0928238-.1732247.1149875-.2121258-1.4927132-1.2066625-2.3900404-2.8033619-3.3514049-4.3348718-.9571164-1.5247461-1.5453389-3.2131956-2.0291016-4.9287745-.9855335.3716127-1.9299586.1277206-2.9489619.2514844-.0842749.0927146-.2665979.2273103-.3575219.4033667-1.0543598,2.0415515-2.0949068,4.0893846-3.1528813,6.1625416.1401327.0385054.2363206.0839477.3349228.0891534,1.3883459.0735114,2.7770216.1415944,4.1656181.210778.1078898.0053912.2200541-.0071595.3231285.0161737,1.0682912.2417282,2.1508174.3771153,3.2425388.3951191.3221523.1529952.6378665.3029238.9519977.4520981.0705809.1166908.1587476.2252453.206492.3476612.2459513.6306894-.0714912,1.2493226-.7376033,1.3941072-.445306.0967951-.9012322.1787025-1.3563272.2029013-1.6749307.0890792-3.3510619.1618363-5.0276021.2189638-.7912843.026981-1.5844948.004637-2.5163868.004637Zm10.8900112,147.3453915c.2697773.4516035.5407947.9053091.7741602,1.2959519,0,.7229959-.0185357,1.3649253.0046966,2.0055192.0289184.7977067-.0602378,1.5920254.1753308,2.3938621.1468874.5000753.1007526,1.0860642-.0058576,1.607012-.1594864.7791341-.3517963,1.5468675-.4010182,2.3450194-.0323749.5250036-.140357,1.0497846-.2603313,1.5653164-.239012,1.0270573-.5620086,2.0294583-1.0088318,2.9992645-.6836716,1.4839037-1.3482005,2.9715911-2.2454353,4.3617415-.8026168,1.2435975-1.6091519,2.4933034-2.2823353,3.7998894-1.0234493,1.9864767-1.8837182,4.0467245-2.9053205,6.0340667-.9782643,1.9030608-1.9639034,3.7996669-2.8297,5.7517187-.7415347,1.6719049-1.5254443,3.3283779-2.3381272,4.9710513-.459132.9280117-.9718527,1.8383163-1.5360248,2.7137757-.8020891,1.2446856-1.6561311,2.4610548-2.520028,3.6694114-1.1785557,1.6484851-2.3915972,3.2753062-3.5813535,4.9168421-.691917.9546711-1.367198,1.9199764-2.0166609,2.8336691.4910187.1962364.9923805.3017862,1.3627125.5676637.5091059.3654919.9256651.8465,1.3699685,1.288508.7851893.781162,1.4939666,1.6445282,2.3601986,2.3352508.8771028.6993536,1.8648922,1.2633571,2.9610728,1.6973278,1.4587685.5775064,2.9664818.9735158,4.4813456,1.3426431,1.453808.3542643,2.9414948.6053777,4.4281658.8156611,1.0504547.1485808,2.1241418.1524387,3.1872747.2231927.2477191.0164705.4944356.0462707.7421679.062766.6368111.0425117,1.2847041.1694039,1.908626.1024337,1.2522897-.134336,2.4950015-.3580975,3.7350351-.5778774.994742-.1762789,1.9975975-.3448914,2.9652549-.6160118,2.1332447-.5976123,4.047847-1.5628928,5.5399402-3.1615707.5172854-.554235,1.0620511-1.0894029,1.5362887-1.674551.5122985-.6321361.9854411-1.2966197,1.4173962-1.9793543.1864391-.2946885.3625615-.6206611.1953442-1.0353173-.5336575-1.3232297-.7084738-2.7325214-1.0608242-4.097694-.4806361-1.862206-.7226428-3.7527036-1.0023674-5.6362273-.2107928-1.4193571-.2570859-2.8716799-.2362943-4.3075569.0624014-4.3073591-.2185369-8.6180816.1706474-12.923759.0764648-.8459312-.10537-1.7123639-.1516104-2.3443269-.5818504-1.083789-1.0556263-1.9650848-1.5276343-2.8472214-.0471375-.08809-.0648816-.1950494-.1279559-.2697355-.3029042-.3585921-.5838029-.7128564-.9819979-1.0186984-.6556767-.5036117-1.158648-1.180782-1.7327542-1.7790621-.9300582-.9691879-1.7850764-1.9935249-2.372692-3.1791788-.5327076-1.0749108-1.0007315-2.1785337-1.4779506-3.2768643-.4239471-.9757168-.7997672-1.9701298-1.2364716-2.9406038-.4453192-.9896648-.5859269-2.0567608-.6817322-3.0855739-.1790644-1.9228699-.1750274-3.8702724.8087778-5.6732241.1902518-.3486752.3084451-.7318742.4609922-1.101867-.1233648-.2274711-.2344737-.4323632-.3325745-.6132914-.2213601-.0944705-.4123243-.1759822-.491652-.2098382-.451124.0901426-.7916669.158201-1.1789515.2355579-.7076954.7618228-.9682643,1.9161926-2.0609092,2.4142895Zm49.8979975,79.7705981c-.4912298-.5640283-.9010343-1.0718689-1.352-1.54526-1.3102715-1.3753863-2.6011366-2.7695182-3.96877-4.0935393-1.0773018-1.0428848-1.8289289-2.2772331-2.613551-3.4985979-1.0729746-1.6702974-2.0939173-3.3707907-3.1999792-5.0213531-1.395338-2.0822826-2.2990636-4.3433914-2.9501888-6.7063651-.3663346-1.329437-.7399516-2.6579343-1.0608374-3.9972635-.1993943-.8322552-.2312678-1.704005-.479673-2.5202349-.1820063-.5981069-.0453301-1.2180014-.2346584-1.7700107-.2183654-.6366865-.1145785-1.2590046-.176096-1.8852301-.0648421-.6601557-.1932201-1.3184567-.2050804-1.9789834-.115502-6.4316836.1848692-12.8675713-.2261359-19.2963861-.0401849-.6284018-.0857525-1.2536133-.1649218-1.8816689-.153431-1.2169627-.3591182-2.4182463-.7069962-3.5917823-.5542513-1.8696251-1.2802582-3.6803422-2.3736419-5.3437645-.8688046-1.3217706-1.7170945-2.6557333-2.6074823-3.9645698-.7592789-1.1160376-1.4765918-2.2731278-2.3734176-3.286979-1.1423418-1.2914262-2.4374681-2.4653579-3.6870269-3.6714887-.3706882-.357776-.8028411-.6613181-1.2187671-.9758405-.9670901-.7313301-1.8935599-1.5217166-2.9243443-2.1643631-1.4658002-.9137916-3.0082762-1.719882-4.5237733-2.5628455-.2262678-.1258535-.4841453-.2017513-.7917329-.3269371.0410029.1515237.0387074.2172326.0721112.255738,1.1437006,1.3184814,2.0229011,2.7820319,2.6763877,4.3614694.5554782,1.3425442.9818659,2.7258195,1.4417235,4.0997219.7951894,2.3756852,1.1871442,4.8129245,1.3506808,7.2739546.0970718,1.4608301-.1119532,2.9395651-.183352,4.4102379-.0016491.0337077.0093272.0744635-.0068602.100109-.3143026.4976022-.153365,1.047361-.2051595,1.5741205-.0550267.5596016-.1636553,1.1151226-.2050936,1.6752682-.0688263.9301138-.0129816,1.8555782-.1781145,2.7953863-.2188535,1.2456254-.2360172,2.5299045-.2481413,3.7983561-.0309369,3.239818-.0297231,6.4801801-.0013588,9.7200228.0099209,1.1330522.136795,2.2652141.2103706,3.3977716.0021768.0336829-.0012137.069097.0088391.1006778.263392.8270865.2886692,1.6884496.4182215,2.5348012.0848422.5541856.1607529,1.1103496.2726665,1.6599353.1832597.8998189.393129,1.7948896.5907159,2.6921365.1485629.6746725.2738934,1.3547363.4519815,2.0224596.0924939.3468204.2995268.6653739.4158468,1.0083116.4675885,1.3785765,1.0215627,2.7269323,1.7234534,4.0130415,1.2195982,2.2346966,2.4019666,4.4926399,3.7504838,6.6585116,1.1933315,1.9165883,2.1140362,3.9485197,3.1165882,5.9429596.5705179,1.1349564,1.1157717,2.2633345,1.8769635,3.3000367,1.1819858,1.6097819,2.5655164,3.0803805,3.6250741,4.7777083,1.0136735,1.623804,2.108548,3.2054426,3.2238712,4.7704623.9430003,1.3232297,1.9028212,2.6079045,3.2819718,3.635308,2.0646427,1.5380387,4.2731254,2.875983,6.4438373,4.4579183-.1149611-1.7570272.2360304-3.3484838.8631317-4.8603329.5329847-1.2849716,1.2197697-2.5198639,1.9195363-3.7359364.4352928-.7564563.8619312-1.5031934,1.1326979-2.3566922Zm4.2994184-111.3365475c-.0512272.2825953-.0536151.3509009-.0774015.4118616-.0243669.0624198-.0929425.1145516-.1024017.1765262-.1689324,1.1074561-.7778542,1.9749028-1.6416191,2.7167186-.4242901.3643791-.8206381.7582616-1.2175269,1.1495969-1.1630807,1.1467529-2.5525744,2.000301-4.0181239,2.7606153-3.6685572,1.9031597-7.5133423,3.4116454-11.4952654,4.6417401-3.0837912.952668-6.1832289,1.8506568-9.2947511,2.7186724-1.7050364.4756168-3.3780014,1.0587618-5.0465468,1.640967-1.671052.5830708-3.3368534,1.1859754-4.9718102,1.8516955-2.0291016.8262704-4.0208547,1.7327913-6.0356159,2.5904942-.7651364.3257253-1.5389536.6384918-2.3270849.9107745-1.7323585.5984779-3.4763661,1.1673781-5.2481047,1.7592035.1463465.3506784.2956878.7085038.3891843.9325374.9926839.2531166,1.8380187.4504906,2.6711766.6857271,1.0036602.283362,1.9971094.5806967,3.0478015.7016782.8308492.0956823,1.6479648.2950348,2.4719802.4444811,1.0303359.1869131,2.0606058.3744196,3.0926435.5527265.5523119.0954102,1.1080144.1739295,1.662767.2567025.7969308.1189289,1.5953656.340069,2.3914652.3336885,3.5148491-.0280938,7.0289463.1352511,10.54712-.133792,1.6584926-.1267685,3.3492281-.1537,5.0333145.1105453,1.2573952.1972999,2.5551865.0452321,3.8428722.1983138,1.515154.1801616,3.0595166.0648928,4.5961352.2145617,1.5322781.1492238,3.0940947.0642745,4.6417291.0312593,1.0282382-.0219112,2.0571229-.1091109,3.0801632-.2144381.4808076-.0495104.9485412-.2105059,1.4221324-.3212491.9120238-.2132758,1.6401811-.7367461,2.4141303-1.2024212,1.0739641-.646183,1.7268967-1.5583424,2.0969912-2.6561042.515478-1.5289626.534172-1.9126315.4665859-3.7581444-.043958-1.2002449-.1570854-2.3706896-.417298-3.556764-.3321523-1.5140254-.79763-3.0042353-.9614173-4.5586456-.0963858-.9148303-.3426801-1.8182599-.372456-2.7496597-.0610426-1.9085262.0722959-3.8016453.429079-5.6813852.1412145-.7440168.2764924-1.4889981.4149761-2.2361557-.54937-1.3424453-1.1583841-1.7699365-2.4281805-1.7659302.3033923.3356175.6453072.7138704.9433565,1.043602Zm-67.9225888,25.4533387c-.3106087-.0167673-.6076553.0199328-.8679075-.0552726-1.9008951-.5493137-3.7997453-1.0961296-5.6067875-1.9026403-1.7943641-.8008475-3.4290703-1.8240963-5.0274438-2.9133508-1.4831749-1.0107104-2.9371808-2.0723162-4.6571382-2.7223572-2.4289589-.9180206-4.8647383-1.8147234-7.3507951-2.5985069-1.7576225-.5541361-3.5487543-.9726997-5.3433823-1.366236-1.5605896-.3422453-3.1285144-.6756617-4.7015316-.9634505-2.1953691-.4016232-4.2253282-1.4053596-6.4921687-1.5207521-1.4388211-.506159-2.9277744-.3840151-4.4851121-.3638597-.2128377.4702256-.4716255.9053338-.6097067,1.3718251-.4847918,1.637752-1.0940236,3.2335612-1.3706677,4.9389758-.2248496,1.3860946-.445306,2.7860135-.7568976,4.1683985-.2672707,1.1858023-.4844619,2.3813485-.8364165,3.5508781-.4545937,1.5105631-.9078088,3.0215467-1.342653,4.5371301-.0589845.2055846-.0081267.4388426-.0081267.698216.4024034-.1147.6962046-.223168,1.0009491-.280419.714925-.1341876,1.3943552-.4328083,2.1669125-.29318.8625249.1558516,1.738315.2577164,2.6128649.3414786.7740547.0741173,1.5484128.0664508,2.330515.1665104,1.2893875.1648782,2.556796.389431,3.8330568.6177924,1.6488685.29501,3.2667474.72767,4.9529974.8876762,1.189941.1128947,2.3795258.2848458,3.5754827.353646.9326968.0536404,1.8968845-.1036455,2.7992249.0619004.7891339.144797,1.5590989.0941984,2.3354359.1530817.8118385.0615789,1.6056031.2621185,2.4352386.2037051,1.0272224-.072312,2.0539039.0168167,3.0891738-.1725199,1.0397159-.190128,2.121965-.1761553,3.1856651-.2505446.1074676-.0075428.2209248.0114008.3224821-.0139975.9597286-.2400836,1.9354995-.3691026,2.9280911-.3904203.179447-.003858.3791051.0367248.534858-.0227768.8057831-.307672,1.6818041-.1292415,2.5053049-.3529041.6374576-.1731629,1.319955-.19453,1.9707899-.3317843,1.5378454-.3243899,3.0314426-.789793,4.5041953-1.3138321.8119309-.2888769,1.6217641-.5830213,2.3734968-.8535482v-3.3688617Zm-11.5155162,78.5199524c-.3593425,1.2151821.0758844,1.9068198.8238307,2.4695374.2183918.1642847.4641188.3041108.7153208.4212097.9111795.4246967,1.8832432.6892141,2.8640933.9291246,1.5236369.3727132,3.0284742.7908811,4.613787.9431962.6283018.0603671,1.2834244.0518104,1.8917921.1912656,1.2177908.2791825,2.4627717.2416911,3.6899425.3429625,1.2326985.1016918,2.4844737-.0189188,3.7344151-.1223665,2.0977696-.1736822,4.2207108-.0110545,6.3289422-.2193347.5137101-.050747,1.0495972.1411122,1.5752071.1407412.9228946-.0006677,1.84009.0359829,2.769858-.1330253.9324197-.1695028,1.9029663-.0602682,2.8666659-.1942085.9395438-.1306265,1.8808818-.2536359,2.8022196-.4600613,1.9484811-.4365921,3.8455767-1.0180307,5.5624337-2.0180823,1.0074861-.5868298,1.7373453-1.3568137,1.8027942-2.5434816.0104354-.1892377.1196445-.3736777.182666-.5587854-.1635762-.4334266-.222033-.9433693-.5105307-1.2803964-.6438296-.7522273-1.3240843-1.4867229-2.3039317-1.917998-1.6200359-.7130295-3.3494392-1.1768746-4.932021-1.9824951-.7476825-.3806517-1.5214205-.6973751-2.1224663-1.2800997-.4234326-.4105509-.8413242-.8261221-1.2729494-1.250522-.9862327.1882238-1.9083094.3794152-2.8368109.5375172-1.1390436.193986-2.2770714.4254139-3.4269199.5245337-2.1477171.1851572-4.2872943-.158102-6.4336657-.2013557-.5933676-.0119696-1.1859436-.1412606-1.774984-.2376848-.6465869-.105797-1.2886619-.2357805-1.9466209-.3578255.0098154.176823.0443538.2943176.0178101.398062-.2764528,1.0808461-1.0671171,1.7749815-2.0353154,2.3205609-1.4548238.8198158-3.0686988,1.2778987-4.6767161,1.7308129-1.1338853.3193943-2.2996441.5379871-3.4453237.8222888-1.9786924.4910239-3.6447575,1.3943298-4.5235226,2.98591Zm24.1257617-84.2162006c1.4923966-1.3040388,2.8804787-2.516921,4.139114-3.6167107,0-.3565642-.0166888-.5753301.0049473-.7906585.019446-.1935656.1689192-.4135433.1080877-.5694443-.215463-.552405-.1290641-1.1230363-.2039458-1.6809315-.1006734-.7501747-.2164261-1.5071998-.4359656-2.2319516-.1805683-.5961285-.4653325-1.1808068-.8029994-1.7156036-.8420498-1.3336165-1.0355602-2.8070839-1.087447-4.2966508-.0417549-1.1982418-.0604357-2.3945793.1407396-3.6030347.2017294-1.2117941.0212666-2.4619699.2392494-3.696788.1848164-1.0469653.1707002-2.1246212.2487745-3.1884528.0071241-.0969683.023417-.2026911.0715176-.2860576.2384315-.4132712.131729-.8285209.1003304-1.2267066-1.2374215.1905484-2.4037476.4902078-3.5795461.5275508-2.8989616.091948-5.8024879.0681325-8.6960273-.191043-.141795-.0127362-.2791309-.0689486-.4927338-.1240481.0909636.8888139.2468352,1.6824648.2375476,2.474434-.0188128,1.6055529-.1191432,3.2105371-.2008587,4.8151008-.0697366,1.3693026.1673625,2.7505994-.1854101,4.1098119-.0319791.1232073.0070185.2649872.0247759.3967265.0485095.3596803.1641303.7218583.1426394,1.0771613-.0419528.6935419-.159183,1.3830527-.2569144,2.1678007-.0167415.0293304-.0903303.1432885-.1491434.263627-.4493694.9193313-1.0551513,1.6477926-2.1132578,2.0737011-.7857566.316303-1.2976198.9680503-1.5884526,1.7839834-.4151607,1.1647319-.4306226,2.3438818-.1582331,3.4954818.2859779,1.2089995.7446086,2.3799388.950652,3.6147817.1343939.8054721.3848176,1.5939049.5854124,2.3985609.1845921.1580773.3669547.3142256.5224965.4473993.8774326.0153082,1.7041525.1744983,2.5110438-.1750919.1835763-.0795333.4691716.0478535.6731966.0753291,2.7902143-1.8291166,5.7996119-2.8976716,9.2504105-2.3282768Zm4.6948824.2638496c.0568341.064967.1136682.1299093.1705023.1948763,1.0291881-.4877347,2.0501703-.9914454,3.0892266-1.4599645,2.4078901-1.0858169,4.8144874-2.1749478,7.24028-3.224856,2.6701872-1.1557053,5.4061795-2.157488,8.2553387-2.8618619,1.4851802-.3670994,2.9990677-.6409649,4.4668996-1.0589596,2.7462826-.7821512,5.5524468-1.3308714,8.3281624-1.9968882,1.5560118-.3733562,3.1096225-.7627131,4.6197765-1.3070559,1.4478449-.521937,2.8152672-1.1951999,4.2327953-1.7688731,1.5948774-.6454411,3.0893849-1.4364211,4.5171241-2.3606985,1.2415376-.8037162,2.4696187-1.5896265,2.6835382-3.1501205.4907285-.727942.6820752-1.662532,1.8568974-2.1131215-.5852145-.1025573-.9734886-.263726-1.3297835-.2158477-1.1433313.1536011-2.2862799.3402174-3.4083709.5952877-2.0790623.4726244-4.0800899,1.1712855-6.0550883,1.9408737-1.6801946.654715-3.3620778,1.311359-5.0732488,1.8889891-1.6401152.5536168-3.3340301.9667149-4.9767179,1.5142232-1.9096418.6365381-3.8102862,1.3057452-5.6754159,2.0478083-1.5498772.6166301-3.07577,1.3026292-4.5525597,2.0601736-1.9620036,1.0065063-3.6427259,2.4043725-5.4408367,3.6383993-1.7654985,1.2116704-3.557633,2.3796915-5.4860876,3.3616157-1.4863808.7568272-2.9465476,1.5614338-4.3921366,2.3852559-1.0457053.5959306-2.0484025,1.2581143-3.0702951,1.890745ZM3.1612672,190.4648143c.367357.2938477.6500632.5490911.963383.765384,1.1675332.8059914,2.3829362,1.5552759,3.5103702,2.4071918,1.841152,1.3912632,3.9832754,1.959199,6.2708811,2.0417493,2.3947766.0864083,4.79392.0511179,7.1884195-.162232,1.5612361-.1391337,3.1327229.0086804,4.7074023-.1830551,1.0865895-.1323081,2.1820972-.2767837,3.234333-.5012623,2.1748677-.4639935,4.3182048-1.0750592,6.4468057-1.7075415,2.164208-.6430175,4.2838906-1.417527,6.4474389-2.0627208.6465737-.1928236,1.1286742-.4920873,1.6120675-1.035342-.3675483,0-.6805449-.0775796-.9193458.0142448-.7741602.2977551-1.6056427.1520431-2.3999086.345485-.7795956.189856-1.6200227.1484324-2.4269931.2539327-1.322765.1728661-2.63615.4116638-3.9609204.5671938-1.0205469.1198192-2.0525978.1529828-3.0792661.2279657-.2112677.0154318-.4210447.0481255-.6320222.0680336-.4214009.0397419-.87924.1927742-1.2574744.0901179-.8515353-.2310817-1.7029783-.1506087-2.553168-.1564945-2.6629444-.0183748-5.3267067.0208725-7.9888991-.0253488-.8696885-.0151103-1.7394297-.2035072-2.6022514-.3486505-1.1697562-.1967805-2.3243342-.495327-3.5011089-.626819-1.306195-.1459346-2.6304508-.146998-3.9461248-.2222282-1.0635287-.060837-2.1260217-.1376746-3.1888446-.2091458-.0694397-.0046988-.1510167-.0059106-.2044999-.0398408-.4295672-.27253-.8898601-.1167032-1.3478377-.1585224-.1224809.2163671-.218306.3856225-.3724362.6579053Zm61.8592352-3.2660076c.7521812-.1897571,1.0642411-.66389,1.3671584-1.1689361.756825-1.2618238,1.0160086-2.6152742.8675249-4.0390085-.1581144-1.5161028-1.7532029-2.9251472-3.3569854-2.9278676-.6441067-.0010881-1.2625008.0997133-1.8931641.1971515-1.6330175.2523005-3.2268527.5811171-4.6576395,1.4160185-.4712297.2749783-.9815757.4910486-1.5207345.7570993-.0802511.5358108-.2045658,1.1200687-.2460832,1.7094705-.0450003.6387391-.0054222,1.2823749-.0160951,1.923686-.0152376.9157206.1422964,1.7797793.7834347,2.492512.8105852.1912409,1.6293631.1108915,2.4052384.0040558,1.4753121-.2031363,2.9432363-.3905686,4.4369654-.3658382.612088.0101395,1.2245191.0016569,1.8303801.0016569Zm7.212892,5.5682927c.0696706.2818287.1356208.5356624.1948296.7908811.118721.5117975.204302,1.0321765.3558332,1.53517.4453324,1.4782898.8649259,2.9661504,1.3904831,4.4197839.6171144,1.7067996,1.4569347,3.3093354,2.9421413,4.5360667.9394514.7759192,1.8620954,1.5697185,2.8707952,2.4218323.0843672-.4290988.2348695-.8126934.2206609-1.1908473-.0513987-1.3684617.080792-2.7306419-.1522964-4.1107022-.2304235-1.3642081-.4636571-2.7320515-.6656108-4.1009337-.2442495-1.6554838-.8675513-3.1815035-1.5791518-4.6764864-.8988179-1.8882967-2.2665437-3.4662256-4.0092979-4.7736525-.8686331,1.59435-1.1358642,3.3605028-1.5683865,5.1488883ZM58.8882501,8.7452705c.3904904.4423914.0680875,1.1484593.2954503,1.8002499.2107136.6040855.3107274,1.2731257.4971533,1.9042231.1952386.6608482.421269,1.3138815.642418,1.9677743.2107928.6233011.3937094,1.2584976.6609142,1.8603636.2495001.561951.2209116,1.2490073.845005,1.8278059.1712015-1.2018648.2259908-2.2701849.4907681-3.2906392.4358865-1.6798928-.2612284-3.3177747-.0705545-4.976931-.3286827-.4959082-.0882327-1.060258-.2128904-1.5759815-.251202-1.0391443-.3737357-2.0897698-.4101739-3.1516662-.0167811-.4893855-.0287601-.9789132-.0471111-1.6129226-1.6247721,1.4981608-2.6322318,3.0920409-2.6909789,5.2477237Zm15.0467638,134.56191c-.7668647-.8991759-1.9252488-.795753-2.9385529-1.0905652.2751731.8742229.0589713,1.7407298.1835103,2.6753693,1.1295185-.2980519,2.0719515-.7262109,2.7550426-1.5848041Zm-4.348891,33.2287287c-.0202112-.0204768-.0396572-.0562619-.0608183-.0571769s-.0440372.0330399-.0661745.0516867c.0323749.0197349.0647497.0394946.0971378.0592543.0099605-.0179049.0199078-.0358345.0298551-.0537641Z" stroke-width="0"/>
  </g>
</svg>