<?xml version="1.0" encoding="UTF-8"?>
<svg id="Layer_2" data-name="Layer 2" xmlns="http://www.w3.org/2000/svg" viewBox="0 0 44.8551646 48.0389105">
  <g id="Layer_1-2" data-name="Layer 1">
    <path d="m44.4507642,11.4652464c-.5541203-1.2689964-1.0997157-2.5425597-1.6209541-3.8255613-.389711-.9579887-1.0534375-1.6608386-1.9022767-2.2125232-1.8718306-1.2144977-3.9994089-1.6932638-6.1440372-2.07856-2.8570686-.5136269-5.2574447.6287134-7.3704089,2.3778459-1.0851015.8990754-1.9461192,2.0703396-3.0908952,3.3171103-.222866-.8126083-.3531756-1.4416262-.5687345-2.0391323-.4859209-1.3431328-.9487027-2.7017932-1.5491011-3.9943853-.4359892-.9395688-1.1009335-1.8456468-2.1007858-2.202476-1.4833374-.5291544-3.0117352-1.0500884-4.6424321-.6862567-.477396.1065616-.9401777.3629184-1.4163558.3852963-2.8180975.1327453-5.3926257.9445924-7.8575476,2.3448118-2.5258143,1.4343191-4.0030625,3.641362-5.0552821,6.1889453-.4664353,1.1281828-.6332803,2.3862186-.8805032,3.5966061C.106526,13.3519956-.0091695,14.0906197.0005733,14.8167609c.0219212,1.7829277.7916004,3.3840918,1.6440932,4.8558597,1.3237995,2.285594,3.299147,4.0843538,5.4303789,5.582762,1.7427388,1.2250017,3.1456983,2.6675412,4.3793771,4.3626317,1.9546441,2.6873312,3.6718081,5.5157805,5.1478385,8.4867178,1.2105397,2.4381293,2.1872529,4.9502428,2.0021402,7.763469-.0207034.3102465.0949921.7954062.3117688.926477.9389599.5670599,1.7841456,1.3948913,3.0433992,1.220587.9097316-.1260471,1.5478833-.7063512,1.327453-1.56813-.2155589-.8406188.1644093-1.4439096.4615639-2.0998724.5529025-1.218608,1.1192012-2.4324968,1.7354317-3.6197452.6125769-1.1811592,1.2117576-2.3833262,1.9607334-3.4775616,1.5600618-2.2785914,2.9788533-4.6801853,5.2757124-6.3667509.5455954-.4009761.9267814-1.0246659,1.3919989-1.538445.2983725-.3291231.5943092-.6622042.9206922-.9628601,2.4308222-2.2455573,5.1807203-4.1514876,7.2486242-6.7827978,1.3639884-1.7355839,2.9520607-3.3924645,2.2530166-5.9252814-.0450603-.1613647.1144776-.3714433.151013-.5640153.2326087-1.2338311.286194-2.4536569-.2350444-3.6445588Zm-6.1282052,8.2652219c-1.7037677,1.3423717-3.339336,2.7725805-4.9956076,4.1740177-.7928183.6708814-1.5710224,1.3604871-2.3467908,2.0513107-1.1825293,1.0525241-2.4417829,2.0353265-3.5122702,3.1927377-1.1033692,1.1936421-2.0739931,2.5229219-3.0044281,3.86164-1.2032327,1.7317782-2.3078197,3.5317558-3.5755982,5.4882267-1.009595-2.0450693-1.9108017-3.9656137-2.8960397-5.8418589-1.4248808-2.7150372-3.1980657-5.2143634-5.1466206-7.5669389-.8695426-1.049784-2.0411113-1.8517361-3.0933309-2.7457879-1.1642616-.9887394-2.4637041-1.8465602-3.4988739-2.9534308-1.9095838-2.0438514-2.8400188-4.3815084-2.0679039-7.3131701.4298999-1.637395,1.2117576-2.9943809,2.1044393-4.3576081.9353064-1.4280776,2.4892789-2.0051848,3.9129418-2.5606752,2.0520719-.8007343,4.2186214-1.4327968,6.4813807-1.3574425.6259733.0208556,1.4723768.0133963,1.8182453.3878842.6783407.7355795,1.3152746,1.6722559,1.5466655,2.6282657.7246189,2.9937719.7721149,6.074011.755065,9.1440506-.0060892,1.2855895-.1266561,2.5716358-.0986456,3.8555508.0255748,1.2234794.1692807,1.3578992,1.4078309,1.6724081.5041886.1278739.9328707.8576686,1.5588439.2176901.5760415-.5873066.9706239-1.2211959.9206922-2.0971322-.0962099-1.7110748.4834852-3.299147.9085137-4.9234502.2752334-1.0459782.8208288-1.830576,1.5527547-2.5848799.92191-.950225,1.7195997-2.01919,2.6147171-2.997121.9036423-.9873693,2.1555889-1.6587074,3.3734357-1.746849,2.0532897-.1487295,4.2953457-.0065459,5.827397,1.5596051.9133851.9350019,1.5442298,2.3620139,1.8145918,3.6689158.5675166,2.7463968.0194855,5.2674919-2.361405,7.1440416Z" stroke-width="0"/>
  </g>
</svg>