<?xml version="1.0" encoding="UTF-8"?>
<svg id="Layer_2" data-name="Layer 2" xmlns="http://www.w3.org/2000/svg" viewBox="0 0 109.7091744 95.5807145">
  <g id="Layer_1-2" data-name="Layer 1">
    <g>
      <path d="m106.1107421,38.5036731c-.4394152-1.8539118-.5728418-3.7926313-1.2659801-5.5777049-.7824332-1.7831365-1.831153-3.5434781-1.7667286-5.5577254.309426-4.3271416,3.6328712-7.6276368,4.7239174-11.7288266.8444615-3.1112178.2498864-7.2645226-2.6924256-9.029508,4.0132442,1.2510434,5.2893567,6.9741688,4.2591884,10.8446946-.6484618,3.3063675-2.7763909,6.2384464-3.2591141,9.563425-.0799232,1.7375507,1.1062144,3.0566592,1.4578325,4.6841278.5485899,2.3551564-.3033493,4.771563-1.4465894,6.8117465-.0047479-.0006973-.0090774-.0042433-.0101006-.0102291Z" fill="#423b30" stroke-width="0"/>
      <path d="m102.113384,46.5660389c1.5073917-2.9237501,3.9925789-6.0871949,3.2935335-9.523054-.0517197.0174137-.0185181-.0680924.0699848-.0094718.694804.9281503.638795,2.2874193.6357763,3.4109554-.0386875,2.5881335-1.2797502,5.5215162-3.9992946,6.1215703Z" fill="#423b30" stroke-width="0"/>
      <g>
        <path d="m51.6809228,26.8171209c-1.5718656-4.2779141,1.7164755-9.4450767-1.1125426-13.3872414-.2575234-.0364104-.8577616-.2584148-.5462398-.5498507,1.0266364-.2182589,1.8032982.9844654,2.339807,1.7173043,2.1407335,3.7338761,1.5742973,8.7158039-.6810246,12.2197878Z" fill="#423b30" stroke-width="0"/>
        <path d="m59.0172878,16.8498676c-1.6115065-.9807018-2.4348329-2.8788693-3.8310005-4.0353418-.8255858-.6264344-2.3125192-.6781382-2.8982266.2137088.0509786.1913128.354202.2740556.4070045.4215745-.3206252-.0626082-.9418749-.165486-.807677-.6579685,2.2372806-4.504657,8.234121.1621965,7.1298996,4.058027Z" fill="#423b30" stroke-width="0"/>
        <path d="m60.2717075,27.2562204c-.5278967-4.3044662,1.1688146-8.2728276.6973334-12.5004073-.1452701-.6396558-.3920909-1.3258736-1.0825676-1.4586528-.6292107-.0186364-1.4248529.3674449-1.5878.9993346.0536626.2423926.4468699.1786091.5462479.2946659-1.5209033.3000463-.7910218-1.3795802-.0858132-1.8478775,2.4488627-1.9251038,4.3846217,1.4858635,4.4866456,3.6660174.5579801,3.8123962-.7441285,7.8224456-2.9740461,10.8469197Z" fill="#423b30" stroke-width="0"/>
        <path d="m52.6188893,27.2313228c-.2216551-.7760416-.6025604-1.8186069-.518176-2.5426401.7733169,1.0178462,2.5195466,4.7972935,4.0639889,3.4203773,1.0354952-1.0690482,1.9250721-2.3382139,3.2174482-3.0701673.0400486.8634133-.058077,1.7957796-.3928942,2.5962278-1.5561062,3.6515668-5.3166098,3.5133449-6.370367-.4037976Z" fill="#423b30" stroke-width="0"/>
        <path d="m10.4318347,78.1449494c1.2694123-3.5841982,2.3514836-7.2682091,4.3169029-10.5566494,3.8949179-6.5167225,9.5141634-11.7742281,13.4353376-18.2700276,3.719461-6.1316705,6.9409118-12.5779781,11.2208111-18.3587573,2.5969568-3.3761611,5.045519-7.2733773,8.8908599-9.3338081.7412788-.349685,1.6473806-.3591219,2.289941.0221094-.5035513-.2001201-1.0501655-.2191007-1.5512054-.0612642-6.9850436,3.7610012-14.0140503,21.3782124-18.1193364,28.6332965-2.819595,5.4149939-6.827106,10.047697-10.4349227,14.9353242-3.0947832,4.4700909-5.9568855,9.4171853-10.048388,12.9897765Z" fill="#423b30" stroke-width="0"/>
        <path d="m31.4543769,93.0124745c6.9319621-10.2653543,10.8800553-22.112166,13.5586282-34.1183192,1.7436653-6.0065915,5.3293188-27.4851556,9.4970072-30.0320057-3.3597521,3.207388-4.6560107,17.852487-5.7006457,22.9960756-1.5763706,9.3770135-2.9762689,18.8796477-6.5325087,27.7542113-1.7800685,5.6232484-4.8465191,11.5318227-10.822481,13.400038Z" fill="#423b30" stroke-width="0"/>
        <path d="m34.6012355,90.2891038c-3.7741744-3.0609696-6.6551565-7.0123875-10.0883107-10.3866904-2.9437635-2.5295214-6.8535902-4.987787-10.8504535-4.5759195-.0110095.0125248-.0216771.0246829-.0323937.0368642.0826191.0625614.5945854.2165285.2493473.1644321-.5105365-.0185931-.4805613-.3440714.0097013-.4877651,8.8423612-1.6889274,18.3642597,7.3012869,20.7121092,15.2490787Z" fill="#423b30" stroke-width="0"/>
        <path d="m65.7768629,95.5807145c-3.6820413-3.6514746-4.4859624-9.2730977-5.8943555-14.078111-1.8635337-6.8940335-3.5776041-13.8456464-4.5350306-20.9324495-1.1002863-7.1966955-1.8678288-14.4498361-2.2545334-21.7189672-.0175583-2.2920986-.5240007-4.8350617.2752277-6.9983395.1377294-.0874949.3051934.2813181.0942102.0428769-.024461.0020461-.0469129.0022804-.0709231.0018766-.3395125.7625478-.1155306,1.7705478-.1085738,2.5968316.544612,4.6935803,1.3266058,9.3560587,2.1612948,14.0029945,1.3037266,7.0384725,2.7244818,14.0585732,4.4514087,21.0071708,1.5100612,5.8695401,3.5471885,11.6213825,4.6845475,17.5809383.5685854,2.7936644.2570907,5.8532572,1.1967276,8.4951785Z" fill="#423b30" stroke-width="0"/>
        <path d="m85.8772626,90.3577852c-.8829258-3.130149-1.4538675-6.4094615-3.0151874-9.297658-2.5932554-4.3267724-6.7362587-7.5266976-8.5967818-12.324955-4.2153241-8.8001446-7.1595161-18.1072927-10.2531094-27.3364356-.9069375-2.5866381-1.8951603-5.1422281-2.85715-7.7066673-.5546977-1.6412719-1.349957-3.3756216-1.0226615-5.1362894-.06315.9401553.2445718,2.0093807.6348312,2.9412932,5.9513147,11.9132343,10.3930875,24.5293785,16.5427635,36.3605665,5.0315394,9.1317374,11.9970864,9.9958174,8.5672954,22.5001457Z" fill="#423b30" stroke-width="0"/>
        <path d="m64.8041017,93.6092711c-.3493382-.0784657-1.4023192-.57068-.7687529-.9743039.0691366-.0100435-.114471.1317213-.1188636.1845431.0007767.0369232.0021633.0716549.0055135.1064324,4.9854292,2.2176565,13.3422914-7.820058,19.0424712-7.7509771,1.5389294-.0688896,2.9945803.7463322,4.2138523,1.6122497-.6651839-.0040484-1.4594433-.1369196-2.1564696-.1454246-7.1913618.4823921-12.7346541,7.8828998-20.2177509,6.9674804Z" fill="#423b30" stroke-width="0"/>
        <path d="m.8207205,12.666646C1.7599408,5.6232375,8.7750057.4879041,15.609967.0273576c9.0910229-.459161,20.8950899,4.9334378,27.7464152,10.7608642,1.9544032,1.7261977,3.7354234,3.6433311,5.5678027,5.4973596-1.8877954-1.4199263-3.8581065-3.0553498-5.7778084-4.4377038-4.2360157-3.038247-9.0363009-4.932239-13.9505593-6.4917929-3.9198286-1.217514-7.9828932-2.2705096-12.1188485-2.1400226-3.1352959.0623795-6.0583131,1.2984209-8.6159324,2.9523211-2.8350027,1.8299716-5.740897,3.750312-7.6403159,6.4982629Z" fill="#423b30" stroke-width="0"/>
        <path d="m2.080679,33.4667007c-3.318992-4.0522125.1881697-9.0455498.3124453-13.5154409.2416073-2.6420304.0059699-5.2697239-.322991-7.893283-.0051524-.0706009-.2235774-2.5200647.3067747-2.2209884.0240166.0328714-.0330868.0178463-.0396389.0161717-.2173641.1156631-.1119703.4583238-.121014.6547966.3148204,1.5578284.952783,3.0274722,1.3334195,4.5804761.9131074,3.4507902.9047162,7.1261857.100067,10.5999591-.2992448,1.614974-.925365,3.1219659-1.3786424,4.6882635-.1890241,1.0382128-.0844871,2.0958476-.1904201,3.0900453Z" fill="#423b30" stroke-width="0"/>
        <path d="m7.2778826,54.7161914c-12.9122662-9.4399034-4.7822117-14.6477282-4.4299587-26.1614882-.0091412.0131174-.0175335.027224-.0269629.0397232,2.1678466,10.9118952-5.6860348,16.0995291,6.7382722,23.7752306,3.4466793,1.8573216,7.3589237-.1788541,10.8853839-.4887492-3.671532,2.7712119-8.7773142,6.0477526-13.1667345,2.8352836Z" fill="#423b30" stroke-width="0"/>
        <path d="m13.4739073,54.1223106c3.3682935-3.1545993,7.3737518-5.4157502,11.3353113-7.7196041,3.8691971-2.3771678,7.3940989-5.2545819,10.5647936-8.5042707.1187724-.1055877.3223753-.4399586.4804968-.4182979-.0016527.0104279-.0117249.0094489-.0183987.0142285-5.3610926,7.7289463-13.3976414,13.8559318-22.362203,16.6279442Z" fill="#423b30" stroke-width="0"/>
        <path d="m61.177034,13.8270016c4.0852192-1.9850963,8.6437413-4.1689041,12.8046157-6.3918309,7.0016154-3.6192277,14.588791-7.5611422,22.7195359-6.0573188,4.8173521.4848966,8.5579432,3.1705689,10.1314964,7.8202026-.8305395-.6511708-1.7112609-1.4848373-2.5466089-2.1318033-2.2876101-1.94268-5.5668598-2.289374-8.3666382-2.7419911-2.193287-.2806225-4.3512711-.3643373-6.5298902-.1042261-9.8682231,1.6820798-18.573399,7.2931236-28.2125107,9.6069677Z" fill="#423b30" stroke-width="0"/>
        <path d="m85.9505302,47.6620837c-6.0577441-2.735408-9.355934-9.0343434-13.2785547-14.0526686-1.650402-2.1938943-3.5112517-4.5026204-6.0728988-5.6258616-1.4745421-.5642879-5.4722069-1.8856007-4.9488578.8565096-1.0027874-2.396866,2.5379343-2.3765898,4.0357679-2.061824,8.6225869,1.8029735,12.5075776,12.1731023,19.7372982,16.5565716,4.0463234,2.6072536,8.9219254,1.2652632,13.3951362,1.4675628.9793385.0866686,1.9227724.4673577,2.905875.4302449.2961199-.0219451.5763803-.1918039.8455669-.240228.0301695.6136275-.1015534,1.1142339-.4411929,1.6311867-2.8702195,3.3528995-12.3858469,2.6250109-16.1781398,1.0385066Z" fill="#423b30" stroke-width="0"/>
        <path d="m8.0922169,52.0219485c-6.9833212-3.0332326.0814317-11.4435223,3.6741751-14.4774897,7.844081-6.8290935,18.9431564-8.2363289,27.8547398-13.3312119,2.0006351-1.0354535,4.0714526-2.1732177,6.1524375-2.8951373-2.3797357,2.4315772-4.5722653,5.0974368-7.3675814,7.0742893-5.6834055,4.092804-12.7981012,5.1583124-19.1760998,7.765653-4.7704463,2.0501312-9.3513379,5.196438-12.241046,9.5592013-.8890234,1.4292915-1.2492992,3.3520872-.3054164,4.8298115.5455874.9028259,1.6797538,1.7277569,2.6874749,1.0648735-.258269.2884042-.8319162.510363-1.2786836.4100102Z" fill="#423b30" stroke-width="0"/>
        <path d="m103.1000568,41.2968033c-1.9453606-8.1064602-10.8616315-11.1109354-18.0550705-12.9899328-5.0995598-1.5645773-10.3278454-2.2749309-15.5845893-2.7183325-2.4593182-.1469155-5.0090541-.9193379-7.4254951-.6148056-.0143766.0236861-.0286303.0463293-.0427929.0684554.0767177.1597161.384995.2008217.4359795.3170619-2.6649654-1.144144,5.9216745-.871988,6.4548481-.9376636,7.2145267-.4294792,14.4389489.2941968,21.4143403,2.1981474,6.5890387,1.3019165,16.4905621,6.7094888,12.8027797,14.6770699Z" fill="#423b30" stroke-width="0"/>
      </g>
    </g>
  </g>
</svg>