<?xml version="1.0" encoding="UTF-8"?>
<svg id="Layer_2" data-name="Layer 2" xmlns="http://www.w3.org/2000/svg" viewBox="0 0 363.1581277 435.6496919">
  <g id="Layer_1-2" data-name="Layer 1">
    <path d="m6.8916016,421.6981095c3.0615234,2.3720703,6.8110352,3.5742188,11.1459961,3.5742188.050293,0,.1010742-.0009766.1513672-.0009766,2.222168-.0136719,5.1318359-.1191406,7.9331055-.8212891,3.7329102-.9345703,7.3378906-2.2197266,10.715332-3.8203125,1.5986328-.7568359,3.0332031-1.8515625,4.4208984-2.9101562.6713867-.5126953,1.3427734-1.0244141,2.0356445-1.5048828,1.9907227-1.3789062,3.8803711-2.9462891,5.4951172-4.3066406,2.5556641-2.1523438,4.3525391-5.0986328,6.090332-7.9482422l.2133789-.3496094c.3300781-.5400391.6831055-1.0712891,1.0371094-1.6025391.8525391-1.28125,1.7338867-2.6054688,2.2299805-4.0322266.34375-.9912109.7617188-1.9667969,1.1655273-2.9111328,1.0649414-2.4892578,2.0712891-4.8398438,1.9516602-7.625l-.0039062-.0888672.0268555-.0839844c.6772461-2.1298828.6850586-4.5019531.0229492-7.2509766-.1987305-.8271484-.46875-1.6630859-.7299805-2.4716797l-.5820312-1.828125c-1.2714844-4.015625-2.5864258-8.1689453-4.5742188-12.0244141-1.9448242-3.7695312-3.3935547-7.6943359-4.5537109-11.0361328-1.4350586-4.1323242-2.1079102-7.9013672-2.0566406-11.5214844.0610352-4.3076172.6611328-8.394043,1.7841797-12.1469727,1.1479492-3.8354492,2.5922852-7.3842773,4.293457-10.5478516l.1044922-.1938477.2133789-.0541992c6.1225586-1.5478516,11.090332-3.2841797,15.6333008-5.4633789,4.8432617-2.3232422,8.7119141-5.1640625,11.8276367-8.6850586,2.6049805-2.9428711,3.4892578-6.050293,2.703125-9.4995117-.4443359-1.9462891-1.2216797-3.2954102-2.3774414-4.1240234-1.9702148-1.4125977-3.6621094-2.0141602-5.1850586-1.8276367-4.0302734.4858398-7.3261719,1.6743164-10.0756836,3.6328125-.7597656.5415039-1.5087891,1.0996094-2.2578125,1.6572266-.7480469.5576172-1.496582,1.1147461-2.2548828,1.6557617-3.1015625,2.2119141-6.0107422,5.1538086-9.1547852,9.2583008-1.4023438,1.8300781-2.7514648,3.6914062-4.1796875,5.6616211-.6508789.8979492-1.3144531,1.8134766-2.0014648,2.7509766l-.1767578.2412109-.2958984-.0415039c-.6987305-.0976562-1.4003906-.1352539-2.1435547-.1757812-1.4433594-.078125-2.9360352-.1591797-4.4521484-.7016602-.9345703-.3339844-1.9199219-.4726562-2.9633789-.6196289-.6220703-.0874023-1.2451172-.175293-1.8579102-.3051758-1.2036133-.2553711-2.3769531-.5214844-3.4956055-.9677734-4.6376953-1.8491211-8.3085938-4.4526367-11.222168-7.9599609-.7905273-.9521484-1.4487305-2.0102539-1.9038086-3.0600586-.5097656-1.1757812-.9628906-2.3925781-1.4013672-3.5693359-.3603516-.9663086-.7207031-1.9335938-1.1137695-2.8862305-1.1694336-2.8305664-1.5341797-5.7709961-1.0844727-8.7397461.1386719-.918457.3232422-1.8359375.5019531-2.7231445.1357422-.6733398.2709961-1.3466797.3881836-2.0244141.8447266-4.9018555,2.7275391-8.1923828,5.9248047-10.3544922.1162109-.0786133.2421875-.1494141.3681641-.2192383.1918945-.1064453.3735352-.206543.4663086-.3237305,2.1137695-2.65625,4.9550781-4.5927734,8.9433594-6.0942383.6479492-.2441406,1.2607422-.5639648,1.909668-.902832.4609375-.2407227.921875-.4814453,1.3950195-.6933594.7841797-.3520508,1.5673828-.7080078,2.3505859-1.0634766,2.4052734-1.0922852,4.8920898-2.222168,7.3881836-3.2260742,1.0556641-.4248047,2.1166992-.8344727,3.1777344-1.2436523,3.7983398-1.4663086,7.7255859-2.9819336,11.2685547-5.1943359,2.5625-1.6005859,5.237793-3.0991211,7.824707-4.5483398,2.0527344-1.1499023,4.1757812-2.3388672,6.2236328-3.5688477,3.9306641-2.3603516,8.0610352-4.9599609,11.5585938-8.4916992,1.390625-1.4033203,2.7202148-2.9165039,3.9633789-4.3461914,3.6044922-4.1459961,6.0102539-8.2626953,7.3544922-12.5849609.144043-.4619141.2988281-.9213867.4541016-1.3813477.5126953-1.5175781,1.0424805-3.0869141,1.125-4.7543945l.0478516-1.0761719c.078125-1.8671875.1586914-3.7983398.6152344-5.6005859.359375-1.4165039.4091797-2.8500977.4619141-4.3676758.0463867-1.3515625.0947266-2.7495117.3847656-4.1220703.3500977-1.659668.2695312-3.5073242.1918945-5.2939453-.019043-.4384766-.0380859-.8759766-.0507812-1.3095703-.0297852-.9794922-.1796875-1.9926758-.3251953-2.9726562-.0678711-.4584961-.1352539-.9169922-.1923828-1.375l-.0161133-.1293945.0488281-.1206055c.1396484-.3432617.4038086-.5810547.6157227-.7724609.3657227-.3300781.3564453-.3461914.2407227-.5473633l-.2524414-.4370117,2.4082031-1.3549805c1.5703125-.8823242,3.1362305-1.7617188,4.6943359-2.6552734.4594727-.2636719.9086914-.546875,1.3574219-.8295898.5898438-.371582,1.1992188-.7558594,1.8295898-1.09375,2.8876953-1.5454102,5.746582-3.5400391,9.2700195-6.4663086,1.5644531-1.2993164,3.2436523-2.668457,5.0605469-3.8662109,1.6171875-1.065918,3.1879883-2.1303711,4.6274414-3.4311523.7666016-.6928711,1.609375-1.2983398,2.4243164-1.8837891.565918-.4067383,1.1328125-.8134766,1.675293-1.2504883l.7978516-.6362305c1.1782227-.9350586,2.3959961-1.9018555,3.4277344-2.9990234,1.9326172-2.0541992,3.8510742-4.1948242,5.7060547-6.2651367,1.3227539-1.4755859,2.6450195-2.9511719,3.984375-4.4101562,1.0566406-1.1513672,2.1601562-2.2866211,3.2275391-3.3847656.8408203-.8647461,1.6816406-1.7290039,2.5073242-2.6088867,4.4135742-4.699707,7.8657227-9.1972656,10.5551758-13.7495117,1.4047852-2.3769531,3.019043-5.2260742,4.340332-8.3320312.7197266-1.6918945,1.5380859-3.3598633,2.3291016-4.9736328.4150391-.8452148.8295898-1.6904297,1.2319336-2.5424805.2207031-.4658203.4619141-.9262695.7036133-1.3862305.5791016-1.1030273,1.1264648-2.1450195,1.3964844-3.2753906.5874023-2.4599609,1.3779297-4.8706055,2.1420898-7.2021484.5258789-1.6040039,1.0698242-3.2626953,1.5395508-4.9145508.496582-1.7451172,1.0180664-3.480957,1.5395508-5.2167969l1.105957-3.7036133.5327148,1.3417969c.2788086.7026367.269043,1.3525391.2607422,1.9257812-.0410156,2.7280273-.1425781,6.3203125-.5727539,9.9130859-.1914062,1.5961914-.2036133,3.2578125-.215332,4.8647461-.0146484,1.9736328-.0292969,4.0146484-.3681641,6.019043-.2998047,1.7705078-.2426758,3.6845703-.1870117,5.5356445l.0439453,1.7197266c.0439453,2.0571289.0898438,4.184082.4370117,6.2167969.3164062,1.8500977.3774414,3.7109375.4365234,5.5107422.046875,1.4326172.0957031,2.9140625.2744141,4.3608398l.1103516.9228516c.1606445,1.3637695.3261719,2.7734375.6660156,4.1123047.6733398,2.6572266,1.3017578,4.8178711,1.9775391,6.7998047,1.9555664,5.7368164,4.25,10.7758789,7.0136719,15.4057617,1.3037109,2.1835938,2.8515625,4.253418,4.3486328,6.2553711.559082.7475586,1.1181641,1.4951172,1.6669922,2.2504883,1.8818359,2.5917969,4.1606445,4.8276367,6.3642578,6.9902344l1.1855469,1.1669922c3.6054688,3.5766602,7.4326172,6.7973633,11.375,9.5727539,5.0229492,3.534668,10.3232422,6.65625,16.2050781,9.5424805l.1972656.0966797.0620117.2104492c.0458984.15625.105957.3291016.1694336.5146484.1621094.4707031.3637695,1.0566406.4487305,1.659668.800293,5.6552734,2.6713867,10.862793,5.5620117,15.4780273,2.0087891,3.2070312,4.5141602,6.9091797,7.8652344,10.0488281,4.2109375,3.9453125,8.4697266,6.878418,13.0200195,8.9667969,4.2241211,1.9389648,8.7138672,3.1572266,13.0551758,4.3359375,1.4941406.4052734,2.987793.8105469,4.4746094,1.2446289,4.418457,1.2890625,7.9487305,2.9833984,11.109375,5.3320312,6.5854492,4.8930664,11.3369141,11.2255859,14.1225586,18.8212891.8901367,2.4272461,1.4511719,4.4887695,1.765625,6.4887695.1000977.6362305.1235352,1.2719727.1464844,1.8867188.0317383.8662109.0620117,1.684082.2958984,2.4443359.4169922,1.3583984.4770508,2.8417969.1787109,4.409668-.1767578.9291992-.2426758,1.8857422-.3066406,2.8105469-.0292969.4243164-.0585938.8486328-.0976562,1.2734375-.1210938,1.3129883-.2788086,2.8618164-.5341797,4.390625l-.1914062,1.1821289c-.2900391,1.8139648-.5898438,3.6899414-1.1586914,5.484375-1.0161133,3.2084961-2.3823242,6.4160156-4.2983398,10.0942383-2.1655273,4.1557617-4.2597656,7.3085938-6.590332,9.921875-.5385742.6044922-1.0405273,1.2421875-1.4829102,1.8051758-.1855469.2358398-.3583984.4560547-.5166016.6508789l-.0942383.1166992-.1430664.0449219c-1.5625.4941406-2.5527344-.1899414-3.3476562-.7412109l-.2602539-.1777344c-3.9970703-2.6757812-8.5834961-4.3774414-14.8706055-5.5175781-3.0478516-.5522461-6.0375977.0415039-8.5605469.6948242-2.59375.671875-5.0795898,1.9438477-7.5986328,3.8886719-2.0200195,1.5595703-3.402832,3.4272461-4.2280273,5.7099609-.9135742,2.5292969-.7041016,4.9223633.6420898,7.315918,2.059082,3.6635742,5.3950195,4.4277344,8.9213867,4.9414062,1.2026367.1738281,2.5058594-.0551758,3.7651367-.277832.4614258-.0820312.9223633-.1630859,1.3793945-.2265625,5.0361328-.6987305,9.9716797-2.4936523,14.6694336-5.3339844.9506836-.574707,1.9165039-1.1220703,2.8652344-1.6591797l1.5498047-.8833008.2636719.1967773c2.2250977,1.6650391,4.9389648,4.0327148,6.1865234,7.5927734,1.3999023,3.9946289,1.1923828,8.0625.8051758,11.5146484-.3857422,3.4316406-1.2094727,6.7504883-2.0063477,9.9604492-1.3510742,5.4414062-2.5410156,10.9628906-3.6259766,16.1191406-.4960938,2.3583984-.668457,4.8027344-.8354492,7.1660156-.125,1.7724609-.2543945,3.6054688-.519043,5.4003906-.105957.7197266.0024414,1.4990234.1171875,2.3242188.0917969.6601562.1865234,1.3427734.1694336,2.0195312-.105957,4.1660156.6572266,8.4042969,1.3305664,12.1445312.8652344,4.8037109,2.6264648,9.7685547,5.543457,15.625,1.4824219,2.9755859,3.3994141,5.8662109,5.6987305,8.5917969,4.394043,5.2089844,9.1333008,8.984375,14.4897461,11.5439453,3.8374023,1.8339844,7.1181641,3.0761719,10.652832,3.1767578.8574219.0253906,1.7543945.0869141,2.6660156.1835938,4.0205078.4228516,7.6767578-.7363281,10.4150391-1.796875,4.5727539-1.7724609,8.8486328-4.5263672,13.0717773-8.4199219,1.0385742-.9580078,2.0214844-2.0332031,2.972168-3.0732422.628418-.6884766,1.2573242-1.3759766,1.9077148-2.0390625,2.7324219-2.7880859,4.9228516-6.3808594,6.8920898-11.3056641,2.4453125-6.1152344,3.4697266-11.8642578,3.1328125-17.5732422-.1225586-2.0683594-.5102539-4.1835938-.8847656-6.2294922-.0410156-.2246094-.1347656-.3759766-.2768555-.4736328-.1479492-.1025391-.3388672-.140625-.5458984-.1162109-.4487305.2285156-.4794922.5810547-.4990234,1.2666016-.0092773.3242188-.019043.6601562-.1103516.9912109-1.9326172,6.9873047-4.5986328,12.8789062-8.1503906,18.0126953l-.1254883.1816406c-1.8242188,2.6376953-3.7109375,5.3652344-6.0102539,7.6943359-.6450195.6533203-1.2646484,1.3398438-1.8842773,2.0253906-1.2314453,1.3632812-2.5043945,2.7734375-3.96875,3.9082031-3.2724609,2.5351562-6.0483398,4.5224609-8.734375,6.2529297-3.9057617,2.5166016-8.5258789,4.0332031-14.1245117,4.6376953-3.4892578.3798828-6.9755859-.7519531-9.9692383-1.8408203-3.7016602-1.3457031-6.8823242-4.0253906-8.9550781-7.5449219-1.3500977-2.2919922-2.3881836-4.8076172-3.3916016-7.2402344-.2480469-.6005859-.4956055-1.2011719-.7475586-1.7978516-1.4980469-3.5449219-2.2871094-7.5283203-2.4130859-12.1787109-.0825195-3.0527344-.0166016-6.1464844.046875-9.1376953.027832-1.2919922.0551758-2.5830078.0712891-3.8740234.0014648-.1318359-.0039062-.2675781-.0097656-.4033203-.0161133-.3935547-.0341797-.8408203.1113281-1.2470703.5263672-1.4677734.609375-3.0878906.6899414-4.6542969.0375977-.7294922.0761719-1.4853516.1586914-2.2236328.2827148-2.5214844.8417969-4.9736328,1.3828125-7.3447266.199707-.875.3989258-1.7490234.5854492-2.6289062.1523438-.7167969.3222656-1.4282227.4926758-2.1401367.2529297-1.0566406.5141602-2.1489258.7055664-3.2324219.1831055-1.0410156.3251953-2.1166992.4628906-3.1572266.1870117-1.4130859.3798828-2.8745117.6806641-4.2910156.7270508-3.421875,1.5048828-7.4121094,1.5385742-11.4628906.0024414-.2954102.0498047-.5722656.0952148-.8398438.0234375-.1376953.0473633-.2758789.0634766-.4145508.0317383-.2763672.0761719-.5527344.1210938-.8291016.0976562-.6064453.1899414-1.1791992.1445312-1.7329102-.1166992-1.4233398-.2978516-2.8735352-.4726562-4.2753906-.105957-.8491211-.2119141-1.6977539-.3051758-2.5473633-.3759766-3.4155273-1.5419922-6.6757812-3.4658203-9.6904297-.6845703-1.0722656-1.5239258-2.0859375-2.3354492-3.065918-.3911133-.4726562-.7827148-.9453125-1.1606445-1.4272461-.2397461-.3061523-.4736328-.6176758-.6938477-.9111328l-.5322266-.7041016.2817383-.3076172c.5390625-.5888672,1.0639648-1.1699219,1.5810547-1.7426758,1.1352539-1.2573242,2.2075195-2.4448242,3.3354492-3.6098633,3.3896484-3.4990234,5.9492188-7.6635742,8.2104492-11.6430664,2.4384766-4.2919922,4.3178711-9.262207,5.7460938-15.1958008.1860352-.7724609.2680664-1.5712891.3549805-2.4174805.0893555-.871582.1821289-1.7729492.3994141-2.6381836.3930664-1.5615234.1474609-3.1679688-.0898438-4.7216797l-.019043-.1269531c-.8862305-5.8134766-2.2094727-10.109375-4.2900391-13.9287109-2.1005859-3.855957-4.0649414-7.2871094-6.8359375-10.2275391-.9838867-1.0439453-1.9375-2.1191406-2.8911133-3.1943359-.7167969-.8081055-1.4331055-1.6162109-2.1625977-2.4106445-.3168945-.3452148-.6782227-.6484375-1.0610352-.9692383-.1850586-.1547852-.3701172-.3100586-.550293-.4697266-2.2504883-1.9970703-4.862793-3.496582-7.3891602-4.9462891-1.1791992-.6767578-2.3979492-1.3764648-3.5717773-2.1206055-2.6469727-1.6787109-5.5268555-3.3686523-8.6518555-4.3598633-3.7338867-1.1850586-7.4287109-2.9926758-11.2949219-5.5258789-6.0620117-3.9716797-10.2607422-8.1191406-13.2138672-13.0527344-2.4116211-4.0292969-4.6645508-8.0332031-5.7304688-12.7026367-.0664062-.2915039.0615234-.5415039.1640625-.7426758.0341797-.0664062.0717773-.1381836.1020508-.2163086l.1591797-.4106445.4277344.105957c.7329102.1821289,1.4614258.375,2.1870117.5668945,1.5830078.4189453,3.2202148.8520508,4.8291016,1.1430664,2.5039062.4526367,5.2666016.8217773,8.4458008,1.1289062,2.2358398.2158203,4.5166016.3535156,6.722168.4868164.9394531.0566406,1.8789062.1132812,2.8178711.1757812.168457.0112305.3383789.0297852.5087891.0488281.3769531.0410156.734375.0800781,1.0449219.0292969,1.7338867-.2890625,3.5053711-.3447266,5.21875-.3984375,1.4960938-.0473633,3.0429688-.0961914,4.5380859-.3012695l.5200195-.0712891c2.6791992-.3647461,5.2104492-.7089844,7.621582-1.7841797,1.793457-.8007812,3.8266602-1.7080078,5.9477539-2.1430664,2.4726562-.5073242,4.5727539-1.6728516,6.7963867-2.9072266.4169922-.2314453.8344727-.4628906,1.2539062-.6899414,2.8710938-1.5517578,5.2270508-3.9326172,7.5058594-6.2353516l.9780273-.9848633c.5800781-.5795898,1.128418-1.230957,1.6586914-1.8613281l.4946289-.5844727c1.5180664-1.7763672,2.4047852-4.03125,3.2617188-6.2124023l.4101562-1.034668c.6181641-1.5375977.9960938-3.3071289,1.0644531-4.9824219.0869141-2.137207-.1240234-4.3569336-.328125-6.503418l-.0561523-.5898438c-.1098633-1.1767578-.4174805-2.3793945-.7333984-3.503418-1.7807617-6.3378906-5.6132812-11.4619141-11.3916016-15.2290039-5.6245117-3.6669922-12.2382812-5.859375-20.8139648-6.8994141-2.0043945-.2446289-4.0795898-.1850586-6.0883789-.1279297-.621582.0175781-1.2431641.0351562-1.8632812.0444336-1.1728516.0170898-2.3007812.1425781-3.3515625.371582-3.2045898.699707-6.5180664,1.4233398-9.7006836,2.5625-5.3623047,1.9204102-9.6738281,4.2802734-13.1821289,7.2148438-5.9956055,5.015625-10.6494141,11.2998047-13.8320312,18.6782227-1.4545898,3.3710938-2.3447266,6.2197266-2.8017578,8.9648438-.2358398,1.4169922-.5224609,2.7949219-.8266602,4.253418-.1357422.652832-.2734375,1.3129883-.4082031,1.9868164l-.1049805.5253906-.5170898-.1411133c-.1137695-.03125-.2290039-.0546875-.3427734-.0776367-.2905273-.0600586-.5908203-.121582-.878418-.2836914-3.1230469-1.7626953-6.2890625-3.8676758-9.9638672-6.6245117-3.1948242-2.3969727-6.0878906-5.1108398-8.7387695-7.6870117-4.6269531-4.496582-8.1943359-8.8803711-10.90625-13.4018555-1.6166992-2.6958008-3.1757812-5.4848633-4.6831055-8.1821289l-.9794922-1.7504883c-2.1899414-3.9047852-4.3320312-8.1787109-5.1728516-12.972168-.4433594-2.5273438-.9560547-5.0239258-1.5239258-7.4204102-1.1621094-4.9013672-2.3056641-10.1743164-2.8061523-15.5224609-.1445312-1.546875-.1723633-3.1171875-.1987305-4.6352539-.0249023-1.4077148-.050293-2.8632812-.1694336-4.2905273-.2026367-2.4169922.1020508-4.8398438.3710938-6.9775391.3237305-2.5698242.418457-5.1611328.5102539-7.6665039.0371094-1.0146484.0732422-2.003418.1235352-2.9526367l.0507812-.1943359,1.3237305-2.6948242.8032227-.3271484q2.0991211-.8510742,3.9526367-2.9101562l.8530273-.9458008.684082.6987305c.2470703.2441406.4926758.4887695.7109375.7568359.4296875.5288086.8666992,1.0522461,1.3037109,1.5751953,1.1015625,1.3193359,2.2402344,2.6831055,3.2485352,4.1206055.3505859.4990234.7060547.9956055,1.0620117,1.4921875,2.3745117,3.3125,4.8295898,6.7382812,5.6386719,11.0493164.0454102.2412109.184082.5009766.3305664.7753906.0834961.1572266.1669922.3149414.2382812.4741211l1.3129883,2.9394531c1.078125,2.4199219,2.1567383,4.8398438,3.2680664,7.2441406.4829102,1.0458984,1.1000977,2.034668,1.6943359,2.9472656,1.9121094,2.9335938,4.3051758,6.2993164,7.5556641,9.0214844.5556641.4648438,1.1015625.9428711,1.6474609,1.4204102,1.6835938,1.4746094,3.425293,2.9990234,5.4067383,4.0644531,2.5229492,1.3564453,5.5581055,2.7924805,8.9399414,3.1567383,2.246582.2416992,4.4833984.3974609,6.6479492.4638672l.3813477.012207c1.4047852.0454102,2.8564453.0927734,4.144043-.2329102,4.8120117-1.2158203,10.2890625-3.0410156,14.4296875-7.3554688,1.1533203-1.2016602,2.3286133-2.3461914,3.465332-3.4526367.487793-.4750977.9628906-.9375,1.4169922-1.3862305l.1118164-.1108398,1.2841797-.2216797c.6914062-.1201172,1.2949219-.2246094,1.8994141-.3237305,4.9560547-.8139648,9.6889648-2.5473633,14.46875-5.2993164,3.2416992-1.8676758,5.9301758-4.324707,8.1323242-6.4819336,3.4394531-3.3681641,6.3017578-7.2895508,8.5083008-11.6547852,1.7182617-3.3989258,3.2861328-6.7856445,4.6611328-10.0664062,1.5668945-3.7392578,2.2724609-7.3706055,2.1572266-11.1010742-.0151367-.5053711-.0273438-1.0097656-.0395508-1.5136719-.0419922-1.7558594-.0849609-3.5722656-.2885742-5.3691406-.3032227-2.6826172-.8623047-5.5712891-1.7597656-9.0898438-.6855469-2.6855469-2.0795898-5.1425781-3.4277344-7.5185547l-.4926758-.8706055c-1.1816406-2.1015625-2.7001953-4.4741211-5.0014648-6.1362305-.628418-.4545898-1.253418-.9155273-1.8833008-1.3803711l-1.078125-.7939453.003418-.2568359c.0029297-.2114258.0112305-.4150391.0200195-.6132812.0170898-.4008789.0332031-.7802734-.0107422-1.1308594-.0297852-.2387695-.109375-.4887695-.1938477-.753418-.0908203-.2832031-.1845703-.5766602-.2285156-.8916016-.9077148-6.4716797-2.4418945-11.2080078-4.9746094-15.3569336-.5195312-.8515625-1.0073242-1.7275391-1.4946289-2.6030273-.8618164-1.5488281-1.7529297-3.1499023-2.8105469-4.5585938-3.6875-4.9130859-7.3510742-7.9892578-11.5307617-9.6811523l-1.0234375-.4208984c-2.328125-.9658203-4.527832-1.8920898-6.9487305-1.8496094-.5063477.0117188-1.0693359-.0429688-1.7558594-.1538086-1.5898438-.2578125-3.6386719-.1845703-4.9838867.1772461-.4750977.1274414-.9458008.2758789-1.4160156.4238281-.9174805.2880859-1.8662109.5864258-2.8466797.7333984-2.2294922.3334961-4.2919922,1.1728516-6.1884766,2.0302734-3.515625,1.5898438-6.6679688,3.0581055-9.637207,4.4887695-.9223633.4443359-1.9824219.9990234-2.8525391,1.7470703-2.4477539,2.1040039-4.8730469,4.3291016-7.2182617,6.4804688l-.5014648.4599609c-.3955078.3623047-.734375.8520508-1.0615234,1.3256836-1.112793,1.609375-2.1850586,3.1704102-3.2573242,4.7314453-1.6938477,2.4658203-3.3876953,4.9321289-5.1005859,7.3837891-1.0112305,1.4482422-2.0449219,2.8793945-3.0791016,4.3105469-1.9707031,2.7280273-4.0087891,5.5488281-5.8413086,8.4389648-1.5712891,2.4775391-3.4609375,4.6655273-5.2880859,6.78125l-.2783203.3222656c-2.8369141,3.2871094-5.5336914,5.4921875-8.4873047,6.9394531l-.1206055.059082-2.3066406-.1591797-.1274414-.2573242c-2.5776367-5.2080078-6.8891602-7.5751953-12.8115234-7.027832-2.6582031.6542969-4.5512695,2.4819336-6.0429688,4.1816406-1.1000977,1.253418-2.1469727,2.6098633-3.1591797,3.921875-.4580078.5942383-.9169922,1.1884766-1.3823242,1.7763672l-.0756836.0961914-2.237793,1.0024414-2.3828125-.2094727c-3.5283203-1.9150391-6.5327148-4.3720703-9.1845703-7.512207-1.940918-2.2973633-3.9638672-4.3935547-6.012207-6.2299805-2.9267578-2.6225586-5.4785156-5.6923828-7.640625-8.3637695-.7841797-.96875-1.53125-1.9921875-2.253418-2.9819336-.9165039-1.2558594-1.8647461-2.5541992-2.8911133-3.7436523-.675293-.7822266-1.3051758-1.6186523-1.9140625-2.4282227-.5273438-.7006836-1.0727539-1.425293-1.6386719-2.1020508-3.0527344-3.6484375-5.6308594-6.6948242-8.2895508-9.703125-.9233398-1.0439453-2.0039062-2.0141602-3.2119141-2.8842773-2.5517578-1.8378906-5.3120117-3.7871094-8.2055664-5.5932617-2.9033203-1.8129883-5.6630859-2.7890625-8.4370117-2.984375-.3334961-.0234375-.6386719-.1230469-.9335938-.2192383-.2416992-.0791016-.4702148-.1538086-.6762695-.171875-3.1064453-.2700195-6.2128906-.5126953-9.3198242-.7553711l-1.2270508-.0957031c-.0537109.0322266-.1186523.0634766-.1977539.081543-4.9194336,1.1459961-10.6074219,2.5825195-15.8227539,5.1391602-4.9414062,2.4223633-9.0444336,5.2119141-12.5439453,8.5268555-2.0073242,1.9023438-3.9365234,3.9765625-5.8022461,5.9829102l-.7563477.8120117c-2.7353516,2.9345703-4.7294922,5.7988281-6.0952148,8.7563477l-.2421875.5341797c-.277832.6181641-.5649414,1.2568359-.9228516,1.8510742-1.4926758,2.4799805-2.4365234,5.4521484-2.8061523,8.8344727-.3930664,3.5957031-.6401367,7.4438477.206543,11.2250977,1.152832,5.1489258,3.2519531,9.7387695,6.2382812,13.6416016,2.309082,3.0175781,4.9414062,5.6342773,7.8237305,7.7773438.9306641.6918945,1.6918945,1.4433594,2.3261719,2.2963867l.1738281.2338867-.1176758.2666016c-.0727539.1645508-.1464844.3139648-.2163086.4545898-.125.2539062-.2241211.4545898-.2705078.6523438l-.0996094.4248047c-.4316406,1.8349609-.8779297,3.7319336-.909668,5.6743164-.0053711.3164062-.0043945.6362305-.0039062.9570312.003418,1.2021484.0063477,2.4448242-.3027344,3.5952148-.3720703,1.3852539-.4399414,2.9243164-.1958008,4.449707.234375,1.4658203.4023438,2.9545898.5654297,4.394043.1899414,1.6801758.3862305,3.4174805.6870117,5.1069336.1494141.8378906.4458008,1.7602539.9331055,2.9023438.9243164,2.168457,1.9125977,4.2680664,2.6704102,5.8549805.0952148.1992188.1884766.402832.2822266.6064453.3735352.8139648.7597656,1.6557617,1.300293,2.2749023,1.722168,1.9726562,3.5986328,4.0527344,5.6499023,5.9013672,2.0405273,1.8383789,4.4560547,3.8735352,7.3027344,4.7539062,2.1777344.6728516,4.4428711,1.1831055,6.6333008,1.6762695.8398438.1889648,1.6791992.378418,2.5161133.5766602.1503906.0356445.3520508.0131836.565918-.0097656l2.546875-.2260742c1.0737305-.0957031,2.1474609-.1914062,3.222168-.2797852.4428711-.0361328.887207-.0639648,1.331543-.0913086,2.105957-.1308594,4.0957031-.2548828,5.8925781-1.2822266.378418-.2167969.7871094-.3251953,1.1826172-.4306641l.2373047-.0639648c4.7558594-1.3320312,9.496582-3.4960938,15.371582-7.0175781,1.8359375-1.1005859,3.6166992-2.3901367,5.3393555-3.637207.6967773-.5043945,1.3935547-1.0087891,2.0961914-1.5029297.3530273-.2490234.7124023-.4912109,1.0712891-.7338867.96875-.6533203,1.9702148-1.3291016,2.8203125-2.1206055l.8544922-.7929688c3.1630859-2.9331055,6.4331055-5.9658203,9.0395508-9.5722656,1.4780273-2.0449219,3.0229492-4.0859375,4.5170898-6.0600586,1.9550781-2.5834961,3.9770508-5.2543945,5.8647461-7.9560547,3.7685547-5.394043,7.8842773-11.0454102,13.0961914-15.6474609l.269043-.2412109c.8149414-.7387695,1.7446289-1.5766602,3.2841797-1.3115234l.2626953.0444336.109375.2431641c.1269531.2827148.2480469.5766602.3706055.8745117.2670898.6499023.543457,1.3227539.9082031,1.9111328l.2182617.3549805c.6098633.9951172,1.2407227,2.0239258,2.0595703,2.6381836,1.0908203.8173828,1.8081055,1.7753906,2.2573242,3.0151367.2363281,1.2182617.125,2.2602539.0175781,3.2675781-.0571289.5361328-.1113281,1.0429688-.1166992,1.5541992-.0107422.9833984-.3476562,1.9111328-.6738281,2.8085938-.2314453.6376953-.4501953,1.2402344-.5600586,1.8579102-.484375,2.7280273-1.4526367,5.4008789-3.0463867,8.4111328l-.5800781,1.0844727c-.7954102,1.4804688-1.6176758,3.0112305-2.2641602,4.5830078-1.3168945,3.2016602-3.1728516,6.0766602-4.9677734,8.8574219-.6621094,1.0258789-1.3242188,2.0512695-1.9599609,3.0927734-2.9726562,4.8686523-6.7182617,9.5957031-11.7871094,14.8774414-2.1308594,2.2197266-4.3798828,4.3803711-6.5546875,6.4697266-2.9248047,2.8095703-5.9487305,5.7143555-8.7128906,8.7915039-1.1875,1.3217773-2.5947266,2.4394531-3.9550781,3.5195312l-.8945312.7143555c-1.2543945,1.0126953-2.5327148,1.9936523-3.8115234,2.9750977-.9511719.7294922-1.9023438,1.4599609-2.84375,2.203125-2.487793,1.9633789-5.0087891,3.984375-7.4926758,6.0073242-.6557617.5336914-1.2978516,1.0849609-1.9399414,1.6357422-.8330078.715332-1.6943359,1.4550781-2.5756836,2.1455078-.8134766.637207-1.6967773,1.1850586-2.5507812,1.7148438l-.5917969.3691406c-2.4067383,1.5136719-4.8178711,3.0205078-7.2470703,4.5380859l-3.3828125,2.1142578-.2758789-.3652344c-.1318359-.1743164-.2709961-.3334961-.4042969-.4868164-.3173828-.3642578-.6171875-.7084961-.7675781-1.1508789-.5292969-1.5551758-1.4589844-2.8964844-2.3583984-4.1938477-.3291016-.4750977-.7075195-.9111328-1.1079102-1.3730469-.4858398-.5605469-.9882812-1.1396484-1.3925781-1.7929688-1.6166992-2.6083984-3.871582-4.6665039-6.0517578-6.6567383-.4389648-.4008789-.8779297-.8012695-1.3120117-1.2060547-3.3496094-3.125-7.1625977-5.6723633-10.4741211-7.8149414-4.40625-2.8515625-9.3999023-6.0830078-14.9770508-7.6542969-1.2021484-.3393555-2.3964844-.7172852-3.5893555-1.0952148-1.0585938-.3354492-2.1157227-.6704102-3.175293-.9760742-2.7734375-.8007812-5.7036133-1.1923828-8.5375977-1.5712891l-.7114258-.0952148c-2.9648438-.4018555-5.8652344.3271484-8.6708984,1.0292969l-1.0537109.2617188c-3.3496094.8178711-7.2041016,2.0219727-10.3969727,4.7485352-2.4213867,2.0673828-3.6181641,4.9023438-4.390625,7.1411133-1.1181641,3.2392578-1.2641602,6.7988281-.434082,10.5800781l.03125.1420898c.7231445,3.2949219,1.4711914,6.7021484,3.3823242,9.6577148.3564453.5512695.6967773,1.1142578,1.0366211,1.6767578,1.0512695,1.7397461,2.0444336,3.3828125,3.4975586,4.6982422,3.0986328,2.8056641,5.6713867,5.0947266,8.097168,7.2041016.7167969.6235352,1.5454102,1.1240234,2.3325195,1.5834961,1.6435547.9580078,3.3608398,1.9194336,5.2504883,2.9399414,3.5600586,1.9233398,6.71875,2.9975586,9.6567383,3.2836914l.4208984.0410156c3.7949219.3706055,7.7163086.7529297,11.5844727.4638672,3.4384766-.2587891,6.3203125-.5131836,9.2070312-.9145508,4.4384766-.6166992,8.4262695-1.5698242,12.190918-2.9135742,1.8647461-.6660156,3.7167969-1.3666992,5.6083984-2.0825195.862793-.3266602,1.7338867-.65625,2.6181641-.9873047l.4833984-.1806641.3764648,1.1040039c.1469727.4272461.2895508.8422852.4228516,1.2597656,1.9775391,6.1850586,2.7802734,11.4042969,2.5258789,16.4257812-.0292969.5771484-.0458984,1.1542969-.0620117,1.7314453-.0512695,1.7910156-.1040039,3.6425781-.550293,5.4589844-1.5263672,6.2104492-4.4746094,11.6074219-8.7626953,16.0415039-3.0625,3.1665039-6.8710938,5.671875-12.3491211,8.1235352-3.5092773,1.5703125-7.3476562,2.9580078-11.7333984,4.2416992l-2.1850586.6376953c-5.9970703,1.7470703-12.1982422,3.5541992-18.1201172,5.8657227-5.9365234,2.3173828-10.355957,4.3959961-14.3295898,6.7387695-4.8505859,2.8603516-8.3061523,5.9882812-10.8745117,9.84375-3.3828125,5.0771484-5.1025391,10.5239258-5.2573242,16.6508789l-.0209961.7739258c-.0400391,1.4570312-.0820312,2.9638672-.0136719,4.4370117.0766602,1.6586914.1518555,3.2866211.5390625,4.7910156,1.0400391,4.0419922,2.5400391,7.7646484,4.4570312,11.0649414,2.9975586,5.1577148,6.8847656,9.3476562,11.5537109,12.4526367,4.4667969,2.9711914,9.1787109,4.6425781,14.0043945,4.9677734.184082.0126953.3735352.0087891.5664062.0048828.6552734-.0141602,1.4785156-.0273438,2.2451172.5712891l.315918.2470703-.1728516.3618164c-1.487793,3.1245117-2.2856445,5.5361328-2.6669922,8.0654297-.3193359,2.1176758-.4125977,4.2304688-.277832,6.2792969.1391602,2.1123047.534668,4.2719727.9174805,6.3598633.1123047.6108398.2241211,1.2211914.3300781,1.8310547.5048828,2.9018555,1.0463867,5.7329102,2.1162109,8.4604492,2.2661133,5.7763672,4.9072266,10.559082,8.0742188,14.621582,2.4155273,3.0986328,5.0576172,6.9052734,6.3378906,11.6455078l.0673828.2490234c.5600586,2.0712891,1.1391602,4.2138672,1.0180664,6.4306641-.0913086,1.6845703-.2773438,3.1328125-.5673828,4.4257812-.4951172,2.2080078-1.0073242,4.4912109-2.375,6.4033203l-.300293.4189453c-2.6416016,3.6962891-5.3735352,7.5175781-9.1728516,10.1904297-2.3374023,1.6445312-4.7070312,3.0449219-7.0429688,4.1640625-2.0727539.9921875-4.2592773,1.8085938-6.3735352,2.5976562-.7431641.2773438-1.4858398.5546875-2.2250977.8398438-.3486328.1347656-.7050781.2177734-1.0498047.2978516-.3330078.0771484-.6469727.1503906-.9350586.2636719-.7841797.3105469-1.5678711.2841797-2.3256836.2626953-.5214844-.015625-1.0136719-.03125-1.4648438.0664062-2.3569336.5078125-4.9199219.6425781-7.8344727.4091797l-1-.0771484c-2.328125-.1777344-4.7358398-.3613281-7.1020508-1.0068359-.6196289-.1689453-1.2758789-.2841797-1.9106445-.3955078-.9057617-.1582031-1.8417969-.3222656-2.7397461-.6494141-1.824707-.6650391-3.4233398-.2480469-5.1147461.1933594-.1884766.0488281-.3759766.0986328-.5629883.1455078l-.4624023,1.0693359c.1704102.3330078.3295898.6757812.4882812,1.0175781.4106445.8867188.7988281,1.7236328,1.3706055,2.3515625,1.4101562,1.5478516,3.0561523,3.0449219,5.0327148,4.5761719Zm52.8291016-111.2719727c2.769043-4.7246094,6.4604492-8.2495117,9.7060547-11.074707,2.2397461-1.949707,4.2880859-3.2060547,6.4458008-3.9541016.7617188-.2641602,1.5561523-.4555664,2.324707-.640625.3510742-.0844727.7045898-.1694336,1.0585938-.262207l.2695312-.0703125,1.2851562,1.2241211-.074707,2.7866211c-1.3427734,3.0483398-3.8100586,5.0400391-6.222168,6.8183594-3.8657227,2.8491211-8.2924805,4.4194336-12.5732422,5.9379883-.3217773.1142578-.65625.1303711-.9985352.1303711-.0297852,0-.059082-.0004883-.0888672-.0004883-.2128906-.0014648-.4042969-.0512695-.5888672-.0996094l-.8930664-.1987305.3496094-.5966797Zm221.1181641,9.1982422c-.0751953.0986328-.1430664.2060547-.2119141.3129883-.1831055.2866211-.3911133.6108398-.7177734.8164062-.4077148.2568359-.8374023.4682617-1.2529297.6733398-.4765625.2348633-.9262695.456543-1.3349609.7358398-2.5493164,1.7421875-5.4799805,2.3632812-8.3144531,2.9638672-.6020508.1274414-1.2041016.2548828-1.8022461.3930664-.5014648.1157227-1.015625.1293945-1.5126953.1430664-.5883789.015625-1.144043.0307617-1.6044922.2104492-.671875.262207-1.3305664.3447266-1.9770508.3447266-.5610352,0-1.1123047-.0620117-1.6552734-.1235352-.2612305-.0292969-.5219727-.0585938-.7827148-.0810547-1.7226562-.1455078-2.7724609-1.4360352-3.5717773-2.6791992l-.1391602-.2158203.0947266-.2387695c1.4257812-3.5976562,4.0419922-5.6079102,7.9980469-6.1464844,2.9858398-.40625,6.1269531-.4985352,9.8847656-.2919922,2.6630859.1455078,4.8266602.9360352,6.8100586,2.4863281l.3886719.3041992-.2988281.3925781Zm-39.019043-130.9521484c.0854492-.3466797.1679688-.6381836.2407227-.8955078.1240234-.4355469.2133789-.7504883.2324219-1.0522461.5351562-8.5375977,3.5302734-16.2148438,9.1567383-23.4707031l.5083008-.6582031c1.1787109-1.5327148,2.3979492-3.1171875,3.8491211-4.40625,4.3457031-3.8608398,9.3066406-6.5297852,14.7451172-7.9335938,3.222168-.8310547,6.4672852-1.2446289,8.934082-1.5126953,3.362793-.3642578,6.9404297-.2016602,11.2583008.5126953,5.2832031.8730469,9.3666992,2.3642578,12.8520508,4.6923828,3.4482422,2.3041992,5.8828125,5.440918,7.4428711,9.5898438.9189453,2.4443359,1.4868164,5.1542969,1.7353516,8.2851562.2998047,3.7827148-.7412109,7.4033203-3.09375,10.762207-2.0600586,2.9394531-4.9628906,4.6347656-8.0063477,6.2524414-3.4663086,1.8427734-6.8081055,3.1206055-10.2158203,3.9072266-3.7993164.8759766-7.6035156,1.4145508-10.4936523,1.7861328-2.2055664.2832031-4.4228516.3959961-6.6376953.3959961-4.3549805,0-8.7036133-.4350586-12.9570312-.8608398l-2.5273438-.2495117c-2.6674805-.2563477-5.565918-.8554688-8.8613281-1.8310547-.7807617-.2314453-1.5673828-.4541016-2.3549805-.6777344-1.0351562-.2929688-2.0722656-.5869141-3.1010742-.9013672-.5917969-.1806641-1.1503906-.4824219-1.6904297-.7739258-.2446289-.1318359-.4931641-.2661133-.75-.3925781l-.3613281-.1772461.0957031-.390625Zm28.5668945-98.7089844c-.7680664,1.625-1.5625,3.3046875-2.4033203,4.9262695-2.543457,4.9042969-5.1035156,9.1611328-7.8266602,13.0136719-.3520508.4980469-.7695312.9150391-1.1733398,1.3178711-.1689453.168457-.3344727.3339844-.4892578.5l-.21875.2353516-.3046875-.1010742c-.2602539-.0859375-.4936523-.1762695-.7089844-.2592773-.3793945-.1464844-.6787109-.262207-.9521484-.2871094-3.1767578-.2900391-6.0859375-1.6914062-9.4316406-4.5439453-4.3232422-3.6855469-7.1967773-8.4931641-9.9750977-13.1430664-.6303711-1.0551758-1.253418-2.1157227-1.8759766-3.1762695-2.2705078-3.8666992-4.6186523-7.8652344-7.324707-11.5239258-3.1367188-4.2412109-7.0522461-9.0571289-12.3095703-12.6191406-2.34375-1.5878906-4.746582-2.7739258-7.3466797-3.6264648-.28125-.090332-.3491211-.3491211-.3896484-.5039062-.015625-.0595703-.0361328-.1396484-.0688477-.2421875l-.1274414-.4047852.378418-.1914062c.2236328-.1137695.4472656-.2416992.6738281-.371582.543457-.3105469,1.1049805-.6318359,1.7387695-.8139648,1.7958984-.5166016,3.4946289-1.3642578,5.1376953-2.1835938.7163086-.3574219,1.4326172-.7148438,2.1606445-1.0488281,1.4208984-.6518555,2.8291016-1.3359375,4.237793-2.0200195,4.5517578-2.2104492,9.2587891-4.496582,14.3671875-5.6513672l.1630859-.0366211c4.019043-.9086914,8.1743164-1.8486328,12.4355469-2.0844727,1.0913086-.0605469,2.2021484-.2543945,3.2768555-.4418945,1.090332-.1904297,2.2182617-.387207,3.3549805-.453125,1.9995117-.1162109,4.0385742-.0820312,6.0117188-.0493164.7602539.0126953,1.5200195.0253906,2.2792969.0297852,2.5107422.0136719,5.2524414-.074707,8.6176758-.2817383,1.3574219-.0869141,2.7456055.1694336,4.0859375.4155273.3149414.0576172.6298828.1152344.9438477.168457,1.1147461.1889648,2.1870117.5273438,3.2236328.8544922,1.0126953.3198242,1.9692383.621582,2.965332.7978516.3134766.0551758.5366211.253418.8188477.5048828.1308594.1166992.2856445.2548828.4819336.4067383l.2456055.1904297-.0615234.3041992c-.1494141.7387695-.2871094,1.4741211-.4238281,2.2050781-.2919922,1.5625-.5942383,3.1782227-.9995117,4.7285156-1.6235352,6.2036133-3.3574219,11.7177734-5.2998047,16.8579102-.3217773.8510742-.6391602,1.7036133-.956543,2.5561523-1.4887695,3.9975586-3.027832,8.1313477-4.9770508,12.0024414-.6728516,1.3349609-1.3129883,2.6894531-1.9536133,4.043457Zm16.7158203-10.8525391c1.0024414-3.1733398,2.0390625-6.4545898,2.8549805-9.7392578l.1015625-.4082031c.7397461-2.9741211,1.5048828-6.0488281,1.7407227-9.2036133.112793-1.5097656.3837891-2.9672852.6708984-4.5112305.128418-.6914062.2592773-1.3950195.3779297-2.1166992l.1386719-.8457031.6679688.5371094c1.2885742,1.0361328,1.8706055,2.2954102,2.434082,3.5131836l.1049805.2275391c1.5961914,3.4311523,2.4931641,6.8144531,2.7426758,10.3427734.0375977.5268555.1010742,1.0517578.1645508,1.5771484.1132812.9345703.2299805,1.9013672.2016602,2.8867188-.1787109,6.1162109-1.9765625,11.9716797-5.4951172,17.9003906-1.7954102,3.0244141-4.0805664,6.0043945-6.7915039,8.8579102-3.5649414,3.7529297-7.2270508,6.3198242-11.1943359,7.8476562l-1.4907227.5737305.8974609-1.3212891c2.5019531-3.6845703,4.480957-7.0625,6.0507812-10.3271484,1.7529297-3.6445312,3.3261719-7.7802734,4.9511719-13.015625.2875977-.9257812.5795898-1.8505859.871582-2.7753906Zm-85.5356445-21.0917969l-.2236328-.2973633.3095703-.3657227c.0854492-.0917969.2749023-.2924805.5668945-.2543945.0722656.0087891.1347656.0302734.1889648.0585938l.1694336-.1728516c.1313477-.1337891.2592773-.2724609.3876953-.4106445.2944336-.3173828.5986328-.6455078.9472656-.9326172.6884766-.5673828,1.3862305-1.1225586,2.0844727-1.6777344,1.1733398-.9335938,2.3867188-1.8984375,3.5263672-2.9038086,1.0327148-.9101562,1.9267578-2.0415039,2.590332-2.925293.6630859-.8833008,1.409668-1.6953125,2.1313477-2.480957.9892578-1.0761719,2.012207-2.1889648,2.7983398-3.472168.9023438-1.4726562,2.1269531-2.7138672,3.3041992-3.8588867,1.5986328-1.5556641,2.8935547-3.4472656,4.1450195-5.2768555.6674805-.9755859,1.3579102-1.984375,2.0913086-2.9394531,1.2861328-1.675293,2.456543-3.5107422,3.5883789-5.2861328.5825195-.9140625,1.1650391-1.828125,1.7661133-2.7265625,2.6772461-4.0039062,5.1181641-6.9916992,7.6811523-9.4033203.340332-.3198242.6396484-.6928711.9570312-1.0878906.3291016-.4101562.6699219-.8339844,1.0678711-1.2060547l.3496094-.328125c.8759766-.824707,1.78125-1.6772461,2.8525391-2.2412109l1.28125-.6811523c3.0795898-1.6450195,6.2641602-3.3466797,9.8774414-3.984375,3.5712891-.6313477,7.0766602-1.0878906,10.6904297.2202148.5522461.2001953,1.1254883.3251953,1.7319336.4575195.4052734.0883789.8100586.1772461,1.2094727.2885742,3.1577148.878418,5.9960938,2.6601562,8.9335938,5.6064453,3.0390625,3.0493164,4.9892578,6.7734375,6.1381836,11.7211914.6166992,2.6606445,1.0068359,5.378418,1.3505859,7.7768555.2548828,1.7817383.2802734,3.5322266.3046875,5.2255859l.0097656.6494141-1.0029297,1.4174805-.3706055-.1582031c-4.0048828-1.706543-7.9116211-2.1630859-11.8945312-2.5146484-2.6533203-.2333984-5.3461914-.2216797-7.9506836-.2163086-1.3618164.0043945-2.7231445.0092773-4.0859375-.019043-1.1621094-.0224609-2.3574219.28125-3.5195312.5766602l-.4287109.1079102c-1.4111328.3535156-2.8608398.6230469-4.2631836.8837891-2.3618164.4389648-4.8037109.8930664-7.0761719,1.7568359-.6157227.2338867-1.2456055.4316406-1.8754883.6289062-.6772461.2124023-1.3779297.4316406-2.0375977.6943359-.7246094.2890625-1.4511719.574707-2.1782227.8608398-2.6601562,1.0463867-5.4106445,2.128418-8.0322266,3.3549805-3.96875,1.8569336-8.6367188,4.0996094-13.1630859,6.6518555-1.9829102,1.1181641-3.878418,2.5063477-5.7119141,3.8486328-.828125.6064453-1.65625,1.2124023-2.4951172,1.7983398-.0844727.0585938-.1621094.128418-.2402344.1972656-.1640625.1450195-.3500977.309082-.5898438.4165039-2.0722656.9296875-4.1201172,1.8149414-6.394043,2.4243164l-.1689453.0454102-.2661133.2983398.0009766.0009766c-.081543.0800781-.2426758.2387695-.4794922.2387695-.03125,0-.0639648-.0029297-.0981445-.0087891-.1669922-.0302734-.2807617-.1259766-.3549805-.2084961l-.3999023.1074219.269043-.2749023Zm-2.4750977,6.765625c.8422852-.1069336,1.6337891-.2075195,2.4277344-.2885742,1.21875-.1264648,2.3417969.25,3.4301758.612793l1.105957.3603516c1.7475586.5610352,3.5546875,1.1411133,5.1679688,2.2524414,2.5102539,1.7285156,5.7612305,4.0839844,8.6416016,6.9824219.3564453.3583984.7255859.703125,1.0947266,1.0483398.5908203.5517578,1.2021484,1.1225586,1.7558594,1.746582,3.7861328,4.2661133,7.2543945,9.1772461,11.2446289,15.9238281,2.7939453,4.7241211,5.3588867,8.9462891,8.465332,12.7783203,3.3896484,4.1801758,6.9360352,6.8916016,11.1606445,8.5332031l.7387695.2866211-.5771484.543457c-2.2758789,2.1411133-4.6591797,3.6000977-7.2861328,4.4599609-1.6577148.5424805-3.3178711.987793-4.9350586,1.324707-1.503418.3125-3.2900391.6132812-5.1645508.6132812-1.2143555,0-2.4658203-.1264648-3.7011719-.4575195-2.9399414-.7880859-5.5141602-2.2861328-7.4453125-4.3325195l-.1044922-.1113281c-2.8032227-2.9702148-5.7011719-6.0424805-7.7539062-9.7431641-1.0449219-1.8842773-1.8701172-3.9189453-2.668457-5.8862305l-.3730469-.9165039c-1.4238281-3.4794922-2.5507812-7.109375-3.640625-10.6196289-.4990234-1.6083984-.9985352-3.2167969-1.5263672-4.815918-.4228516-1.2797852-1.097168-2.5273438-1.7495117-3.7338867-.4428711-.8193359-.8759766-1.6328125-1.309082-2.4467773-1.7822266-3.3500977-3.6254883-6.8139648-5.824707-9.9682617-.5014648-.7192383-1.0952148-1.3896484-1.7236328-2.0996094-.3071289-.347168-.6230469-.7036133-.9414062-1.0805664l-.597168-.706543,2.0883789-.2592773Zm-22.300293-4.2973633c.6621094-2.7773438,2.4599609-4.2114258,5.496582-4.3828125.2631836-.0151367.5322266-.0712891.831543-.1376953.034668-.0078125.1113281-.0444336.2172852-.0957031.0927734-.0449219.2084961-.1010742.362793-.1699219l.2578125-.1157227,4.8032227,3.3710938,2.6733398,3.6113281.4208984,4.7255859-.0258789.0898438c-.8203125,2.8476562-2.6625977,3.7973633-4.175293,4.3061523-.5771484.0888672-1.0097656.1660156-1.40625.2363281-.7006836.125-1.3203125.2353516-1.934082.2353516-.1103516,0-.2202148-.0039062-.3305664-.0112305-.6933594-.0483398-1.3637695-.2543945-2.0126953-.4541016-.340332-.1044922-.6796875-.2094727-1.0180664-.2880859-2.3212891-.9287109-3.0043945-2.8925781-3.6655273-4.7915039-.1206055-.3466797-.2412109-.6943359-.3720703-1.034668-.7275391-1.894043-.4707031-3.6381836-.1230469-5.0942383Zm-115.559082,8.7758789c-2.5424805-3.4560547-4.0869141-6.5976562-4.8608398-9.8862305-.8476562-3.6020508-.949707-7.1669922-.3115234-10.8984375.9125977-5.3374023,3.3623047-9.7880859,5.3950195-13.0688477.4370117-.7060547.8457031-1.4594727,1.2412109-2.1884766.5737305-1.0571289,1.1665039-2.1499023,1.8706055-3.1484375,1.512207-2.1455078,3.2026367-4.2734375,5.0234375-6.3237305,1.8671875-2.1025391,4.1118164-4.5625,6.6054688-6.8632812,4.9257812-4.5454102,10.6611328-7.3862305,17.0478516-8.4443359,2.375-.3935547,4.9375-.7119141,7.5878906-.3808594,4.9643555.621582,9.2397461,2.6367188,13.0703125,6.1591797,4.1499023,3.8168945,7.3115234,8.4882812,10.3696289,13.0053711l.4848633.7158203c1.487793,2.1958008,2.9628906,4.4008789,4.4379883,6.605957,1.4741211,2.203125,2.9477539,4.40625,4.4350586,6.6005859.8056641,1.1884766,1.6342773,2.3608398,2.4624023,3.5336914.7978516,1.128418,1.5952148,2.2568359,2.3725586,3.3999023,3.5712891,5.2519531,10.4335938,11.543457,16.3168945,14.9594727l.6557617.3754883.8686523-.0166016.090332,1.269043-1.78125.0541992-.0483398-.7265625c-1.4321289.5302734-2.6669922.0454102-3.7631836-.3837891-.2319336-.0913086-.4609375-.1811523-.6879883-.2592773-2.7456055-.9418945-5.5214844-1.9516602-8.2060547-2.9282227-3.3085938-1.203125-6.7299805-2.4472656-10.1162109-3.5732422-.7670898-.2553711-1.5336914-.5151367-2.2998047-.7749023-2.9199219-.9902344-5.9389648-2.0141602-8.972168-2.7495117-4.1914062-1.0161133-8.4487305-1.0961914-12.2050781-1.1669922-5.4311523-.1010742-11.2109375.6787109-17.6860352,2.3896484-3.8076172,1.0063477-7.1420898,3.0058594-10.1782227,5.0166016-1.9306641,1.2792969-4.144043,2.8046875-5.9692383,4.7250977-3.0253906,3.1816406-5.1796875,6.003418-6.7797852,8.8803711-.1337891.2402344-.3125.421875-.5019531.6142578-.0830078.0839844-.171875.1743164-.2636719.2773438l-.2670898.2998047-.3500977-.1958008c-2.2124023-1.2353516-3.8134766-3.1723633-5.0874023-4.9042969Zm81.2329102,20.2211914c-.2392578.4404297-.4448242.8461914-.6347656,1.222168-.3896484.7705078-.7265625,1.4360352-1.1689453,2.03125-1.2563477,1.6889648-2.5009766,3.3261719-3.9116211,4.7978516-2.5175781,2.6254883-5.1210938,5.2460938-7.6391602,7.7802734-1.1728516,1.1806641-2.3457031,2.3608398-3.5141602,3.5458984-2.7597656,2.7983398-5.9506836,5.0927734-9.0361328,7.3120117-.5527344.3974609-1.105957.7954102-1.6567383,1.1958008-2.5664062,1.8662109-5.184082,3.7700195-7.9248047,5.3774414-3.4160156,2.0043945-7.0917969,3.5605469-10.925293,4.6259766-1.2338867.3427734-2.309082.5249023-3.2871094.5561523-.3466797.0112305-.6918945.0170898-1.0341797.0170898-6.2290039,0-11.7836914-1.8408203-16.5268555-5.4794922-4.5419922-3.4838867-7.5771484-8.2617188-8.7783203-13.8173828-.6425781-2.9726562-1.1538086-6.2001953-.5473633-9.6542969l.0209961-.1201172c.5703125-3.2480469,1.159668-6.6069336,2.1918945-9.7890625l.1655273-.5175781c.4829102-1.5170898.9819336-3.0859375,2.1054688-4.4790039l.2617188-.3242188.3657227.1987305c6.9213867,3.7553711,12.7866211,6.2324219,18.4580078,7.7954102,2.6147461.7207031,5.015625,1.2094727,7.3408203,1.4946289,1.0708008.1308594,2.1508789.3164062,3.1948242.4956055.6542969.1118164,1.3081055.2241211,1.9628906.3242188.5019531.0761719,1.0073242.0991211,1.5424805.1235352,1.1347656.0517578,2.3076172.1054688,3.4550781.6953125,1.4760742-.4160156,2.9746094-.3256836,4.4238281-.2387695,1.0864258.0649414,2.2094727.1318359,3.2832031-.0229492.9858398-.1425781,1.9819336-.246582,2.9790039-.3505859,1.734375-.1811523,3.5273438-.3681641,5.2211914-.7675781,1.6386719-.3862305,3.3198242-.6889648,4.9458008-.9819336,2.8134766-.5068359,5.7231445-1.0307617,8.449707-1.9995117,1.1166992-.3964844,2.2441406-.7641602,3.371582-1.1313477l1.0014648-.3276367c.171875-.0561523.3491211-.097168.6425781-.1635742l1.737793-.4111328-.5361328.9868164Zm15.3339844-20.402832c-.0400391.1665039-.0634766.296875-.081543.3994141-.0405273.2275391-.0756836.4243164-.2387695.5917969-1.3876953,1.4223633-2.7783203,2.840332-4.1689453,4.2583008-2.0400391,2.0795898-4.0795898,4.1591797-6.1079102,6.2509766-1.5561523,1.6049805-3.4399414,2.8417969-5.5986328,3.6748047-4.2700195,1.6489258-9.375,3.3701172-14.862793,3.6391602-1.6665039.081543-3.3320312.1831055-4.9975586.2851562-.9711914.059082-1.9418945.1186523-2.9130859.1738281-.9326172.0537109-1.8676758.0766602-2.8027344.0766602-3.1831055,0-6.3666992-.2685547-9.4692383-.5307617-1.9912109-.1679688-4.050293-.3417969-6.0712891-.440918-.6923828-.0341797-1.3676758-.2192383-2.0209961-.3984375-.3486328-.0952148-.6977539-.1914062-1.0473633-.262207-.3286133-.0668945-.6557617-.1044922-.9833984-.1430664-.6811523-.0795898-1.3852539-.1621094-2.1274414-.4765625-.7167969-.3032227-1.5170898-.4238281-2.3642578-.5517578-.4130859-.0625-.8261719-.125-1.230957-.2084961-3.7875977-.7851562-7.6914062-2.0883789-12.6577148-4.2255859-.3217773-.1386719-.6508789-.2636719-.9829102-.3896484-1.1904297-.4526367-2.4213867-.9204102-3.5253906-2.0258789l-.3183594-.3183594.2832031-.3496094c.3618164-.4472656.7133789-.8984375,1.0629883-1.347168.7509766-.9643555,1.527832-1.9614258,2.3735352-2.8632812,2.9462891-3.1401367,6.6425781-5.8032227,11.6328125-8.3808594,4.1484375-2.1425781,8.8920898-3.6928711,14.5014648-4.7387695.9819336-.1826172,1.9946289-.1914062,2.9736328-.2001953.7285156-.0063477,1.4819336-.0131836,2.1962891-.09375,3.4726562-.390625,6.984375-.0712891,10.3813477.2387695,1.5244141.1391602,3.1010742.2832031,4.6455078.359375,2.109375.1044922,4.2060547.5263672,6.2338867.9350586,1.050293.2114258,2.1005859.4228516,3.1538086.5917969,2.6196289.4204102,5.1582031,1.25,7.6132812,2.0517578,1.3173828.4306641,2.6801758.8754883,4.0297852,1.2485352.9506836.2626953,1.9365234.4755859,2.8901367.6816406,1.2460938.2700195,2.5351562.5488281,3.7861328.9443359,1.4194336.4482422,2.8666992.581543,4.3994141.7226562.6518555.0600586,1.3149414.1210938,1.9916992.2075195l.5537109.0708008-.1313477.5429688Zm-69.1992188,110.3144531c-4.3481445,2.2670898-9.2060547,3.9848633-15.2880859,5.4047852-2.9072266.6791992-5.7958984,1.0561523-8.2382812,1.3349609-2.065918.2363281-4.1899414.3544922-6.4873047.3544922-2.6152344,0-5.4545898-.1533203-8.6914062-.4614258-5.0942383-.484375-10.0898438-2.0131836-14.8476562-4.5439453-4.105957-2.1831055-7.1035156-4.4375-9.4331055-7.0947266-3.3012695-3.765625-5.2402344-7.7104492-5.9267578-12.0595703-.7397461-4.684082.1611328-8.7626953,2.7543945-12.46875,1.75-2.5009766,4.1484375-4.2475586,7.128418-5.1899414,3.3603516-1.0629883,6.3710938-1.3427734,9.206543-.8530273,2.1787109.3754883,5.0415039.9379883,7.8642578,1.9580078,5.4355469,1.9648438,11.0175781,4.5810547,17.5668945,8.2338867,3.8432617,2.1435547,8.7929688,5.1162109,12.9873047,9.1098633,5.6308594,5.3608398,9.3271484,10.328125,11.6323242,15.6328125l.1855469.4272461-.4130859.215332Z" stroke-width="0"/>
  </g>
</svg>