<?xml version="1.0" encoding="UTF-8"?>
<svg id="Layer_2" data-name="Layer 2" xmlns="http://www.w3.org/2000/svg" viewBox="0 0 173.7420215 188.8694298">
  <g id="Layer_1-2" data-name="Layer 1">
    <g>
      <path d="m86.1415203,21.1956755c-2.9587407-5.0168679-1.3611216-15.3241576-.655051-21.0963.3612381-.4034931.3257295.5387484.3678474.7423955-.0238444.0280699-.0385651-.0478586-.053449-.0737863.6038225,4.0966616,1.1040842,8.3509012,1.5413226,12.389085.3431409,2.7548585,1.0229245,5.8983458-1.20067,8.0386058Z" fill="#423b30" stroke-width="0"/>
      <path d="m87.0649333,7.0526082c-2.6582336-.2693873-5.4582207-.2956808-8.038534-.8595732-.2649985-.340091.2683685-.448243.5261568-.3974847,3.8031622-.6021898,8.0134879-1.4779858,11.7022349.012892-1.1627711.8930899-2.6944018,1.3929663-4.1898578,1.2441659Z" fill="#423b30" stroke-width="0"/>
      <path d="m82.4951524,24.8666781c1.2914497-.5478656,5.2264058-.5526201,5.1394401-2.3140347-1.2417103-1.2728497-3.9786349-1.0991011-5.3489258-.188221.0004963.0057472.0009666.0113377.0014629.0169543.0937579.1407021.356771.2170616.4152096.3385105-.1839106-.0334383-.5784825-.0334383-.6821413-.2240366-.2675064-.5015745.4179787-.9931174.745674-1.2606238.9897736-.8125506,2.2804919-1.2539361,3.5378241-1.3712314,8.2908364.4266518,2.4341252,10.7006208-3.8085437,5.0026827Z" fill="#423b30" stroke-width="0"/>
      <path d="m66.6462878,51.7049345c1.0087916-5.0547994,5.1654332-8.5430669,7.5886909-12.9069475,2.6781464-4.3502702,5.2894945-8.7960747,8.6791712-12.6398853.1223633-.1657286,1.0487608-1.0991795.8492544-.5316167-.0477802.0072101.0112854-.088507-.0033177-.1261512-.0020899-.0008882-.0041537-.0017503-.0062958-.0027691-5.6806442,8.656522-7.3449309,20.8527229-17.107503,26.2073698Z" fill="#423b30" stroke-width="0"/>
      <path d="m101.6061319,52.154549c-3.6656472-2.191593-4.8120583-6.4929858-6.7711245-10.0214837-2.8331903-4.8596818-4.2830017-10.5496782-6.1760208-15.6792697,2.8370828,3.9196476,4.5997708,8.5545613,7.3695851,12.5361482,1.350855,2.0000543,2.6236785,4.0475752,3.7450436,6.1861111,1.2441006,2.0898936,2.2979294,4.5233656,1.8325166,6.9784942Z" fill="#423b30" stroke-width="0"/>
      <path d="m62.0017606,56.678202c.7711446-.5184765,1.6746317-.831438,2.5112945-1.2404824-.0729373.1258377-.3233065.240808-.4602468.3670637,2.7649031-1.1831149,5.557027-2.3151841,8.3516065-3.4302207,3.4737166-1.2009573,7.1135275-3.6984324,10.9076247-2.6046082-1.2352316.4821907-2.3659685,1.3266122-3.5411157,2.0129594-2.3738056,1.3442979-5.0223538,2.101179-7.6172702,2.8957304-2.8235768.8481572-5.6937322,1.5557429-8.5636262,2.2303344-.4206956.0877494-2.0815079.6893514-1.5882669-.2307765Z" fill="#423b30" stroke-width="0"/>
      <path d="m102.8559992,55.494643c-7.1547049-.8834764-13.3534076-4.8724824-20.5053891-5.6767779.0131925.0578378.2051753.1997416.1581788.2294703-.1080214-.0690449-.3514417-.1898146-.2306981-.3277737,4.0766509-.5505563,8.2745613.1934196,12.2551097,1.1571218,3.8919565.9997267,7.9975263,1.6370136,11.3724432,3.9723913.241435.1721289.5558072.3372827.732253.5383827-1.2577045.1171385-2.5199741.2005775-3.7818975.1071854Z" fill="#423b30" stroke-width="0"/>
      <path d="m64.3655608,101.1034091c-1.6301954-3.7280828-1.8612592-7.82816-1.3844761-11.8204119.3377268-4.1463488.745674-8.2960415,1.3308442-12.4156397.6770994-4.7345755,1.4899896-9.4468414,2.4709595-14.1311811.2635878-.6756365.8967211-5.7245581,1.5549069-5.0791206-1.006963,8.3983418-1.5132658,16.9663568-2.0061933,25.446544-.4593847,6.0085158-.1893705,12.2144874-1.9660412,17.9998092Z" fill="#423b30" stroke-width="0"/>
      <path d="m102.8006105,93.1364997c-2.0919312-3.6379822-2.0754211-7.8552046-2.1901301-11.9240445-.5039517-8.0090469-.1060294-16.0580107-.7792168-24.0455055,1.3445069,4.6637542,1.6333563,9.9506625,2.2514097,14.8433646.5990745,6.9767178,2.077622,14.2103162.7179372,21.1261855Z" fill="#423b30" stroke-width="0"/>
      <path d="m73.5721428,76.4315102c-.5083666-4.0296544-.2477046-8.6789622,2.3375721-12.0074574,3.7414842-5.2402252,11.3238858-6.5684571,14.2246777.1836494,1.3406145,3.1430171,1.6005189,6.6536203,1.5447448,10.038229-.6492516-1.0169161-1.2924881-2.3111088-1.8991842-3.3773202-1.4467092-2.4871823-2.4769745-5.2438826-4.6847381-7.1290449-1.8780829-1.2654306-4.2027237-.0305386-5.8339379,1.1021054-3.3534693,2.2475499-4.4077161,6.3441332-5.1653287,10.0799485.3474971-.8269709.0128006.4079733-.0187568.7086307.0159877.275239-.2581541.7965629-.5050489.4012596Z" fill="#423b30" stroke-width="0"/>
      <path d="m83.9740917,76.7512117c-3.205531-.1089618-6.3972426-.4203037-9.5946752-.562103.066119.064003.2892413.1004194.2854533.1709272-.1504723-.0367821-.4581047-.0334383-.515002-.2040781.3283223-.3175332,1.0296644-.2352698,1.4947441-.3513634,5.7436284-.5689996,11.6674317-1.4367757,17.4045814-.5716381-2.7368266,1.5205282-5.9650591,1.7893407-9.0751016,1.5182554Z" fill="#423b30" stroke-width="0"/>
      <path d="m41.9993109,122.9569298c7.8236733-9.5771985,16.3544882-18.5557731,25.2115616-27.1857535,6.2033005-6.5964421,13.3147119-12.4335605,21.2898502-16.6726745-4.7611433,6.1479966-10.6560277,11.6978135-16.354436,16.8832574-9.9209337,9.0588526-20.3219944,18.0062878-30.1469759,26.9751706Z" fill="#423b30" stroke-width="0"/>
      <path d="m128.0485102,120.2389187c-7.7122036-3.094427-13.1726514-9.6159399-18.4311893-15.7795063-5.437041-6.3321946-11.0544659-12.5176265-16.759379-18.6084907-.3996921-.4524097-6.414014-6.5115598-4.8150364-5.4804324.0100315.0100315-.0033438.0234068-.0133818.0167191-.0798013-.0449066-.1540709-.1005761-.2324941-.1402841,9.9612687,8.6509577,19.7051884,17.5987325,28.5713529,27.4059825,4.0399994,4.0468111,8.487319,7.8427632,11.6801278,12.5860117Z" fill="#423b30" stroke-width="0"/>
      <path d="m47.6106229,124.9555472c6.3012381-6.0244056,11.9626814-12.691375,17.8358309-19.1268365,5.9900268-6.8448717,12.2398796-13.9527042,20.6044696-17.9097413-4.282845,6.1565717-9.9911019,11.0492216-15.2744051,16.3414852-5.8294446,6.0993021-12.0085284,11.8580561-18.4244494,17.3344654-1.5039397,1.2442181-2.9986577,2.577518-4.6511626,3.6072085-.113638,0-.2071607-.1660682-.0902834-.2465813Z" fill="#423b30" stroke-width="0"/>
      <path d="m122.3562149,122.1273726c-8.0462208-2.6238091-13.6157349-9.5831286-19.6247798-15.177852-4.0393724-4.1008936-7.7949111-8.4890432-11.2618878-13.0845363-1.4735252-1.8103703-2.6688529-3.9381105-4.4347737-5.4674685.0802519.2238994.3803802.5027957.4286829.6825527-.1738465-.228974-.6102489-.4840977-.5449659-.7824562.1404343-.1003149.2440996-.0267506.3848278.0599016,5.7737228,5.2859417,10.7782603,11.3773283,16.7287098,16.4822068,6.2952558,5.538009,12.7505713,11.0906733,18.3241868,17.2876518Z" fill="#423b30" stroke-width="0"/>
      <path d="m121.6431693,122.4911186c-.3759719-.259617-1.1548229-.9296369-.8427235-1.4177054.1743755.9603845,1.5839565,1.1505909,2.377489,1.0465665.9797421-.1668519,1.5194049-1.190116,1.6318411-2.0497676.161183-1.1080093.3834955-2.3099071.9496476-3.2535463.2875694.6821413.4681362,1.3709702.5348821,2.1098782.3374656,2.5820635-2.1500825,5.2504919-4.6511365,3.5645747Z" fill="#423b30" stroke-width="0"/>
      <path d="m44.0736478,123.3936914c-.4698342-.6362942-2.0411729-3.1245215-.4312104-3.1698722-.0402827.0844056-.3119166.0863649-.3893472.2321088-.0042843,1.0814415,1.1571479,2.0201434,1.8605147,2.7071698,1.0733824.6887505,2.3816819.9075624,3.2937376,1.8657786-1.5521901.3613948-3.3357444-.3518597-4.3336947-1.635185Z" fill="#423b30" stroke-width="0"/>
      <path d="m83.9219489,124.2736672c-5.8860807-.3784797-9.0131623-8.441263-5.9519124-13.137933.9003784-1.3844761,2.496822-2.5943677,4.2315642-2.3066939-.2753696-.1024309-.6560698-.1391608-.8710415-.2614457,2.8866394-.4599007,6.0251697-.9143284,8.7506391.4213552,8.5807699,4.6964807,1.7032698,15.3683132-6.1592494,15.2847174Zm-.34094-2.9726124c2.5076633.0220745,4.6761695-1.8679469,6.0922487-3.7871484,2.9511387-4.7386247-2.8716444-7.6872294-6.7846566-8.4882595.1857915.0873576.5060155.2109225.6188436.3546288-2.1127257-1.0228723-4.2358746.8819612-4.8062327,2.8726893-1.0654277,3.523012,1.1052141,8.6805558,5.0702647,9.0614389.0000784-.0000784-.1905199-.0134537-.1904677-.0133492Z" fill="#423b30" stroke-width="0"/>
      <path d="m68.1270035,176.6765467c-.8971129-8.0399773-.7973466-16.1036749-.3744828-24.1724404.0047284-7.4022201,1.5707379-14.4898068,7.9680327-18.9930572.8593642-.6587345,1.7421353-1.2873744,2.655053-1.8725185-.950771,1.6321808-2.0489317,3.3272934-3.0339507,4.9931215-1.5176023,2.9318072-2.7839733,5.8639279-3.5585663,9.0617524-.6874182,3.787906-.9549246,7.6281115-1.4526066,11.4418277-1.0442937,6.4709374-1.6504673,13.0105279-2.1792626,19.5213039.0012539.0018025.0022466.0039447.0022466.0066354-.0028475.0144986-.0146815.0308782-.0264633.0133753Z" fill="#423b30" stroke-width="0"/>
      <path d="m101.2130817,164.6350763c-2.1152858-9.2143146-1.3214724-19.0875465-4.9665667-27.9123833-1.6833505-3.2941947-5.2625806-5.441064-8.7177494-6.4789835-3.9061939-.8235226-8.0048671,1.3058439-10.7307936,3.938744.0024556.0112071.0056166.0223096.0091694.0334644.2377515-.0081767.0113638.0714482-.041197.0338563-.1337532-.2307242.2340681-.6186085.3376746-.7758207,1.4813166-1.949087,3.397331-3.6119892,5.5710032-4.7450772,5.7365293-2.8402698,13.3379097.6146899,16.6455843,5.6814018,4.9360935,9.2658044,2.9664733,20.2937025,1.8928754,30.2247983Z" fill="#423b30" stroke-width="0"/>
      <path d="m101.8595053,177.2123954c-1.4542524-2.9667345-1.2340103-6.344525-1.3040871-9.5600091-.027358-3.5161676.2002836-7.1451894.7857869-10.5598142.1361631,3.6327314.4338423,7.2419514.752316,10.8607589.2718494,3.0736065.6740364,6.273965-.2215287,9.2665881-.0041275,0-.0091433-.0025079-.0124871-.0075236Z" fill="#423b30" stroke-width="0"/>
      <path d="m87.1094349,177.111349c-1.7053074-3.7649171-1.8651843-7.9731529-1.9160471-12.0444746-.0835957-4.1129105-.2775379-8.2224772-.2308026-12.3387316.1264124-6.4796366.3581816-12.9881922,1.2607022-19.4109576.0395774-.2166436.0603196-.6406046.3076323-.7122357.1026399.1325776.0760199.1634297-.0150146.0351363-.0185805.0133492-.0371544.0270902-.0558589.0427906-.4732825,7.0010651.1987032,14.2005394.4260509,21.1827954.5453904,7.7293669,1.2495474,15.573286.2233378,23.2456771Z" fill="#423b30" stroke-width="0"/>
      <path d="m29.4869353,163.1230905c-2.8727546-5.8927945-1.5806257-17.6009791,2.1170099-22.9620525.0896826-.1089357.4037674-.3523038.5483881-.1471285.0100315.0066877-.0033438.020063-.0133753.0133753-.0410403-.0251832-.0670986-.041406-.1202081-.0420852-1.0588185.9976368-1.0154662,2.7510314-1.4011953,4.0982813-.5394799,3.0303979-.5995513,6.0494059-.5217681,9.0950862.0843403,3.3196392.8038384,6.8197668-.6088513,9.9445234Z" fill="#423b30" stroke-width="0"/>
      <path d="m43.2715598,164.4563643c-.5015745-2.1467387-.8961464-4.3135403-1.2238025-6.4937173-.7353291-4.4649792-.3132097-9.1142087-1.7326524-13.4591235-1.62821-4.7636511-6.1290178-5.5792321-9.3522998-1.7419524-.3192574.4643744-1.0770136,1.2205762-.7656194,1.7555628-.039708.0617564-.1921396-.1452476-.177223-.2240627-.0133753-.8092068.4179787-1.5782876.8360358-2.2401569,2.2617481-3.9487755,7.1201759-4.3292406,10.1789311-1.0569637,4.8733967,6.3187148,3.9874124,16.1546944,2.2366302,23.4604137Z" fill="#423b30" stroke-width="0"/>
      <path d="m33.4426989,164.9830174c-.5906954-.1253675-5.5793627.0068966-4.9796025-.8027281.4432142-.1707704.9570145-.0614167,1.4312114-.1002626.0174245.0455858-.1059968.0394729-.1458484.0602934,5.3504149-.4673002,10.8353144-1.5573626,16.1727589-.498518-3.897338,1.7025057-8.2931548,1.6398872-12.4891909,1.3409802.0000131.0000784.010776.0001045.0106715.0002351Z" fill="#423b30" stroke-width="0"/>
      <path d="m125.6293278,162.5283591c-1.7531333-5.6805919.5410734-20.4734856,5.9020945-23.7009604.2649724-.1076034.7475027-.2762578.9529653-.0802258-.0529266-.0152562-.1248189-.0117818-.1859483-.0199062-3.0045877,1.2090034-3.5015644,5.7659902-4.2499553,8.5583754-1.1548752,5.0355202-.3801516,10.4398282-2.4088113,15.2503713-.0042843,0-.0084641-.0025079-.010345-.0076542Z" fill="#423b30" stroke-width="0"/>
      <path d="m141.5065104,162.3153467c-2.03506-4.6753009-.9801862-9.7709578-1.291293-14.6812672-.395225-5.782631-3.0653514-10.9293596-9.3489821-7.01013-.4391128.3014933-.9124998.7460136-.9062301,1.2739991-.1515434-.4849859.1802272-.9866649.4947823-1.3540943,4.5370806-4.7698947,10.1048444-2.2928484,11.6498504,3.6446176,2.0805935,5.9379885.3619696,12.2043515-.5981275,18.1268747Z" fill="#423b30" stroke-width="0"/>
      <path d="m134.2129386,164.1208841c-3.0061029-.137097-5.988799-.5116059-8.9547759-.725611-.1648404-.005695-.3286096-.0080461-.4925095-.0066877.1223633.044985.382137.0263849.4422737.100341-.2762317-.01395-1.3521873.2386397-1.1736059-.2240627.1136902-.1270655.1136902-.1136902.2875694-.1873067,1.4051661-.3972626,2.9044035-.3996138,4.3536663-.5250335,4.2202527-.1706137,8.4836094-.648703,12.6831461-.0132708,1.1556066.1738008,2.4069304.4485173,3.3939871,1.0129453-3.5106293.2873865-6.9973294.9374479-10.5397512.5686862Z" fill="#423b30" stroke-width="0"/>
      <path d="m.5499032,181.7561897c-.0769081-.020063-.0869396-.117034-.0234199-.1605299.4692072-.2592252,1.0113256-.3629361,1.5114502-.5549974-.2885359.1979652-.7971638.3497437-1.1556589.5434246,6.0353644-1.1540131,12.1195801-2.1728362,18.2793847-2.3357957,5.4697086-.0477802,10.9405275-.2357661,16.3981409-.6018893,10.9323116-.711034,22.0163234-2.0778244,32.9166335-1.1271841-12.6755441,2.1228094-25.4293286,3.767425-38.306887,3.6952714-4.9868648.0551732-9.9585388-.399457-14.9435619-.3575808-4.9123471-.0373307-9.801431.6185824-14.6760816.8992812Z" fill="#423b30" stroke-width="0"/>
      <path d="m69.9392025,178.0548837c20.9450178-1.8519069,41.9846294-2.6481303,63.0111269-2.3640615,10.7006208.0569757,21.6347088-.1019868,32.104109,2.0561679-12.7432566-.176178-25.4839009.5275936-38.230005.0403611-18.9392163-.5171703-38.0101025-.2518322-56.8852309.2675325Z" fill="#423b30" stroke-width="0"/>
      <path d="m0,188.8694298c12.610248-2.1275639,25.4178864-2.7129692,38.1664722-3.4404873,21.2182975-1.3695856,42.4762246-.8261872,63.7199927-1.1436681,24.0023492-.6628359,48.3242432-1.3962056,71.8555565,4.206381-2.1674547-.015622-4.4639604-.1546782-6.6809456-.2004992-23.1184287-.3774348-46.228733-.8133343-69.3510281-.4413594-16.8921656-.1700651-33.7729674-1.0166548-50.6723953-.7827435-15.6629816.2115234-31.5135443.1130371-47.0376525,1.8023765Z" fill="#423b30" stroke-width="0"/>
      <path d="m120.5234566,178.5396345c-.4352203-1.9524831-1.1091326-3.843053-1.4615409-5.811576-.6157088-6.1295272.392482-12.3346041.2976531-18.4947482.1721289-10.3877637-.1434189-21.8149099,1.865857-31.6287627-1.1601522,13.5064596.8840511,27.0704436.4920654,40.6069977-.3701985,5.0947425.5266532,10.4401939-1.1838463,15.3356129-.0043104,0-.0084902-.0025079-.0101882-.0075236Z" fill="#423b30" stroke-width="0"/>
      <path d="m51.1740482,177.9131889c-2.9187715-4.4886995-2.1426373-10.2239422-2.3241184-15.211003-.1638477-4.163068-.3811966-8.3227921-.5551802-12.4825163-.2480965-7.5481208-.2367066-15.1152075.2710069-22.654394-.0165363-.1124624.3030868-2.8686402.7857739-2.437678-.0225186-.0000261-.0480937-.0030303-.0738516-.0033177-.6699676.9874486-.3220004,2.4238324-.3909668,3.5477511.177223,4.0527216.4246664,8.1020994.7226068,12.1481333.6647429,12.2914216,3.3023453,24.8898225,1.5647294,37.0930245Z" fill="#423b30" stroke-width="0"/>
      <path d="m22.2623561,179.3640453c-1.8915757-6.0739883-1.3726682-12.6286782-1.5613595-18.8746647-.3995615-9.8273326-1.1516097-20.666017.8458452-29.9786872-.4203037,10.5862252,1.248633,21.0166228,1.9959659,31.5390018.4898449,5.7973647-.237438,11.6652112-1.2804517,17.3143502Z" fill="#423b30" stroke-width="0"/>
      <path d="m149.2363736,176.1076776c-1.527242-3.7345353-1.5771121-7.8259199-1.3208911-11.7936874.1917477-4.5985496.5290566-9.1959497,1.0198158-13.7698907.6524386-5.717139,1.3868011-11.4267282,2.0463715-17.143841.2073958-1.0384159.1389779-2.2263375.6588389-3.1598929.0300945-.0367821.0902834-.0535013.1271178-.0167453.2467381.2835986.2028764.7832137.3008402,1.1436681-.136888-.2047312-.1977301-.6630187-.3345397-.9413926-.0123042.0228321-.0244518.0457164-.0331248.0538148-.325527,8.6837951-.3297068,17.4146912-.7524923,26.1100069-.2754741,6.5239946.3402608,13.2309333-1.7020354,19.5254837-.0041275,0-.0083073-.0025079-.0099009-.0075236Z" fill="#423b30" stroke-width="0"/>
      <path d="m37.8400701,129.0676741c-6.6534374-.329524-13.3102839-.5371549-19.9574517-.9856199.2318868.0835957.612378.1143172.7805752.2199352-.8927503-.1231992-1.8099393-.1402841-2.6885566-.3111852-.9644467-.719054,4.7531233-.5501384,5.2298803-.6987037,4.6923074-.2559858,9.6068227-.4541861,14.2179639-.4479948,4.9905613-.0705339,10.1704148.0816103,14.8566223,1.8522727-4.1165809.7007674-8.2887791.7049995-12.4390334.3712957Z" fill="#423b30" stroke-width="0"/>
      <path d="m144.1583764,130.8189526c-7.5888999-.4017037-15.1423238-2.1036346-22.6524608-2.7295577.4102984.3034264,1.0087133.5703581,1.3354681.894161-.5087323-.3264675-2.7006911-.8401372-1.1502513-1.3211262,8.4690063-.2816393,16.9761271.531695,25.4532578.7425653,3.0948711.1681319,6.3241224.7414159,9.1553796,1.8892115-4.0046018.7592061-8.0835516.9580072-12.1413934.5247462Z" fill="#423b30" stroke-width="0"/>
      <path d="m19.9197683,126.5782712c.6812922-4.0772256,3.8070807-7.1080937,5.701517-10.6499147,3.811365-6.4071957,8.7501623-12.102025,12.9142622-18.2318657-.3205897.2504803-.618922.6966334-.9100964.8939716.3338213-.4251562.5609666-.9855612,1.0300302-1.270701.7416902.0674578-.6614644,2.2472103-.8360358,2.6651368-2.5520343,4.6826939-5.4065547,9.4376459-8.0323361,14.0009546-2.7682077,4.5079004-4.5936906,10.4743376-9.867341,12.5924186Z" fill="#423b30" stroke-width="0"/>
      <path d="m55.0021062,98.4016927c-5.2383705-.1658788-10.4084798-1.2313065-15.6381511-1.4274953.3342393.13984.8217853.2196935,1.0924788.3676906-.5472256-.0935031-1.1503819-.0273841-1.6519564-.2876477-.3703161-.5931118,1.6481554-.6472466,2.0097592-.6989388,4.915926-.3348728,9.8661263-.2101845,14.7830972.0568451,2.0378552.2699947,4.2516533.4825825,6.0088359,1.6251208-2.1458766-.0263261-4.4030139.5213566-6.6040637.3644252Z" fill="#423b30" stroke-width="0"/>
      <path d="m124.3321047,99.1381777c-6.6862487-.2991944-13.3209555-1.336598-19.9933586-1.7395229.4548066.1771185,1.0683013.2465356,1.4518491.4220279-1.1602567.044149-3.4821023-.5488583-.8125767-.9027556,5.7676621-.3980986,11.4876747-.1817881,17.2374421-.0232697,3.3170791.0539976,6.6576956.4284151,9.7472636,1.7120408-2.4831332.4162937-5.0802178.6546526-7.6306194.5314795Z" fill="#423b30" stroke-width="0"/>
      <path d="m156.2568747,130.5452811c-3.7210032-1.8167967-6.4906086-4.9502264-8.6773426-8.3962519-2.3575306-3.430926-4.597792-6.9249668-6.6575649-10.5430951-1.779884-3.1043801-3.5170558-6.2376531-5.3702428-9.2991708-.6722404-1.1998014-1.5102616-2.3385844-2.0296524-3.6113557-.0300945-.0802519.0568451-.1504723.1304616-.1238262.2928463.1804035.6707252.5022798.8760311.7257155-.2221034-.1297563-.442326-.2595387-.6607721-.393429,4.3757408,5.293289,8.3755097,10.8772756,12.3306855,16.4876732,3.615542,4.8542219,7.390987,9.7466105,10.0583965,15.1537399Z" fill="#423b30" stroke-width="0"/>
      <path d="m84.3024924,124.0928914c-1.6147563-4.9684868-.2552021-10.3112736.5853531-15.2946509.0541021-.5720561.3639811-1.2365117.3845143-.1872806,0,.0133753-.020063.0133753-.0234068.0033438-.0194099-.0582035-.0387936-.1156234-.0582297-.1730105.1272223,5.230135.3828424,10.5513436-.8780688,15.6591219-.0041537,0-.0083335-.0025079-.0101621-.0075236Z" fill="#423b30" stroke-width="0"/>
      <path d="m87.3640036,116.7212621c-2.8123698-.1455088-5.6207165-.3903399-8.4157402-.7486782.1129849.0875927.3871528.1478338.427331.2438906-2.2163321-.5029329.5434507-.6411793,1.2472485-.6388021,4.3069833-.2221296,8.8135775-.7744101,12.9272456.8459889-2.0113919.4320855-4.1972377.4584182-6.2797187.2909132,0,.0000261.0936338.0067138.0936338.0066877Z" fill="#423b30" stroke-width="0"/>
    </g>
  </g>
</svg>