<?xml version="1.0" encoding="UTF-8"?>
<svg id="Layer_2" data-name="Layer 2" xmlns="http://www.w3.org/2000/svg" viewBox="0 0 175.9721406 219.407861">
  <g id="Layer_1-2" data-name="Layer 1">
    <g>
      <path d="m73.2220284,80.4192304c-9.0965325-3.8353374-6.9780713-17.086079.7664715-21.2308781,1.1442495-.6383708,2.4450805-.8431312,3.6094045-.1887008,1.0679662.6062515,1.3490099,2.0315447,1.2484803,3.1358019-.1126057-1.5481244-1.5912533-3.3345714-3.3043341-2.366131-6.1786022,4.0638109-7.8754038,14.7710126-.0639876,18.0481519,1.9705055,1.1161451,4.2496259,1.7006596,6.3354974,2.3969643-2.725246,1.0153019-5.8524535,1.4337308-8.5915321.2047918Z" fill="#423b30" stroke-width="0"/>
      <path d="m85.6607858,91.0906116c-4.661217-1.3034972-10.6908284-10.3015389-4.9746937-12.9840324-4.5577389,3.6456956,2.046977,10.1683568,6.0827776,10.9912566,4.2634899.8380498,8.0398269-1.9220443,12.0568703-2.8732017-3.0938649,3.7475112-8.2001097,6.7498487-13.1649543,4.8659774Z" fill="#423b30" stroke-width="0"/>
      <path d="m102.2173043,67.0981024c.3338963-2.8616588,1.1956356-5.8022357,1.0759646-8.6842514-.1460737-.9751214-.3183071-1.6657801-.9676562-2.3487226.0384553.036542.076001.0721429.113484.1077125.0205764.0257205.0409646.0513469.1233958.1170284-1.9512465-1.9054201-5.4048537-1.4101746-7.5549951-.0796709-.8658405,5.5072966-8.3081986,2.9784049-5.7299673-1.9392018-4.2966757-2.1449346-12.7066271,1.9962888-11.4026595,7.3346769.1404278.4438672.5470943.8032958.7828448,1.1041318-1.8227694-.8431312-2.288499-3.0553469-1.8308306-4.8823821,1.6575621-6.1945991,10.1946419-10.9332914,15.8910158-7.1089636,4.7070121-2.9719748,12.5775854-1.9363161,14.3734423,3.9414816,1.4094532,4.7215347-2.2741959,8.9631309-4.8740386,12.4381614Z" fill="#423b30" stroke-width="0"/>
      <path d="m97.5799572,88.3433777c2.8056696-3.1530535,7.2604638-4.3846273,9.5015366-7.9653315,1.3510409-1.6467406.7760697-6.0050828-1.7287718-5.6774912-.0097785.0113233-.0291081.1000905-.0441483.0482103.0280965-.7226839,1.3289197-.180671,1.6099713-.0401491,1.9070825.9595636,2.601662,3.545166,2.0395432,5.4762752-1.4390004,4.9079772-6.5967489,7.7008806-11.3781309,8.1584863Z" fill="#423b30" stroke-width="0"/>
      <path d="m94.5130361,81.671067c-1.2476021-.0507196-2.4614852-.3481994-3.5426567-.9195086-4.7621544,1.7947905-10.6572035-1.7730221-11.3568017-6.8013211-.5315051-3.5380458.8815552-8.1449674,4.3964525-9.5793883-.856211.4878744-1.3483512,1.5681989-1.7515988,2.4846964-1.8529439,4.0099232.2140763,10.02887,5.2226144,9.8519944-1.5619257-5.290962,5.9148101-6.6465275,6.3271539-1.1375057,2.2922316.4795309,3.7961606-2.8227957,2.4994386-4.5584917.0419684.0669675.0818665.1320843.1212315.1979225.013519.0299864.0270379.0601296.0514724.0870734-.018569-.0331544-.0373889-.0659951-.056491-.0986476-.0021643-.0047363-.0043913-.0093472-.0009096-.001537-.3198754-.5573511-.7677889-1.0913029-1.3108683-1.4101746.0281357.0154637.0562715.0309274.0843759.0464224.0489945.0369497.097487.0739308.1476734.1109433-.4363392-.3518065-1.3480376-.6234717-1.7384562-.6986258-1.8786644-.2417729-3.8456569.3585503-5.648885.5542458,2.521552-2.6517543,6.1864439-5.1216457,9.9364957-3.5252483,8.196032,3.3117993,5.0251388,15.3794911-3.380241,15.3971504Z" fill="#423b30" stroke-width="0"/>
      <path d="m110.6595633,84.2681495c-2.7743032-2.8064224-4.1755069-6.909661-3.232003-10.8041242.2279089-.9477071.6091999-1.8281017,1.1303855-2.6215797-4.6084272-7.8591873,3.6070207-21.590589,12.7812794-20.3596739-.584044.0100686-1.3504842.0295472-1.9516229.2767779-5.9836595,2.7186904-10.3369517,11.0047756-7.3858043,17.2444797,5.8054979-1.9016875,6.9552992,6.4876876.8679735,6.1216721-.1673716.3625339-.2619102,1.3915429-.2268738,1.6148095.2927434,4.2675362,3.8780899,7.931738,7.8782268,9.0984459,2.2578931.4165156,4.6884117-.0742758,6.9085945-.0091904-5.4759615,3.8864334-11.7717803,4.450591-16.7701557-.561617Z" fill="#423b30" stroke-width="0"/>
      <path d="m128.1056668,81.8800305c5.8659724-2.2443977,12.3371613-5.4278453,14.9325813-11.6175513,2.0403273-4.9189868-1.4870852-11.5115012-6.763054-12.3509939-3.2938577,3.2149396-7.0560562-2.1332976-3.3063415-4.5213225,1.2323266-6.1817075-8.2632739-6.2206647-11.051543-2.7035717.032527.0626075.0644581.1246818.0952287.1855014.223894.1833999.6258947.234935.8016412.3862783-1.1734595.0965147-1.7645296-.5672629-.975686-1.5934803,4.4119397-5.8848237,14.6484559-5.4236736,15.8363675,2.7278494,7.160436.8291731,12.2957261,8.0911111,12.1235241,15.0575768-.5278666,10.5221081-12.4140719,15.4776682-21.6927183,14.4297138Z" fill="#423b30" stroke-width="0"/>
      <path d="m126.4779342,77.2592449c-8.5550607-.6998177-8.1755183-13.0206998-2.2685813-17.0112699.9636413-.7177907,2.5750005-1.0238335,3.3965751-.0882967-.6319877-.4051609-1.4298022-.2586481-2.043017.1298259-4.1002352,2.6994627-4.5261215,14.5467422,2.4203951,12.5533077-.0228426.0072143-.0460146.0144913-.0692886.0217056-.0050108.0020702-.009951.0042658-.1996791.0585299,1.3305037-.4606482,2.4119261-1.5198946,3.1741945-2.677067-.8521334-1.3191177-2.012568-2.5094132-2.5317539-4.0037127,2.6403134-.83002,6.4894206-.0046736,7.2150216,3.0313515.6224993,4.6285645-4.8711215,8.2935818-9.0938664,7.9856256Z" fill="#423b30" stroke-width="0"/>
      <path d="m87.8464027,91.1985123c-4.2466147-.5682039-9.1428295-4.2557738-7.9936241-8.9893532.0747777-.3205655.5135008-1.2789058.8058992-1.0197873-.0212037.0000314-.0453246.0002509-.0699159.0030112-.7525448,1.0814224-.072488,2.7231758.5125284,3.7109692,2.5592859,3.6277853,7.9653629,3.9810661,11.7488828,2.2737567,2.5641163-1.3869947,5.1344118-2.9863093,8.0848065-3.1853296-1.7626712,5.26383-7.7956388,8.0891037-13.0885769,7.206733Z" fill="#423b30" stroke-width="0"/>
      <path d="m55.7463777,116.6820197c-10.2173356-1.3475279-11.0397806-12.0762235-2.6580903-16.7528022-2.6097702-8.6502188,11.3402088-21.4572187,18.0670032-12.7161625-.4382212-.3721634-1.0126671-.8548309-1.6265406-1.0697227-5.9995309-2.4567802-13.557945,6.8452969-11.4673372,12.4161107,7.3655101-.1959465,5.3338086,9.5095351-1.2346791,6.177128-2.4026416.9785717-5.1126749,3.0993149-4.7824014,5.995767-.0121075-.0699237-.0219879-.1398004-.0330289-.2079598-.0016467-.0399295-.0032621-.0798591-.0112135-.0649208.5587783,3.165059,4.1054656,4.6058238,6.1549676,6.7770905-.7543327-.0879124-1.6224316-.3693639-2.4086797-.5545281Z" fill="#423b30" stroke-width="0"/>
      <path d="m65.1461928,120.7306256c-3.9533381-.0011606-9.2659586-3.8347728-6.0425971-7.9251824.632568-.8721374,1.6979307-1.445556,2.6739304-1.6059328-.442738.2335235-.8885812.5095564-1.228343.8629862-2.9729785,3.312113.4193699,6.0248437,3.9720952,5.6302533,4.1372398-.307768,8.0517775-2.4712715,10.9076336-5.4227012-.4948064-4.9009511,6.5849551-5.8085012,6.3759602-.5950223,3.7651392.8373911,7.5372417-2.1214724,9.5130168-5.1112947,1.4009528-2.4288091.5186449-5.2151492.3260546-7.8263152,9.8767739,8.8046987-2.4376466,23.8671373-13.3227277,17.841384-3.7849941,2.7770712-8.457158,4.4721163-13.1750229,4.1518252Z" fill="#423b30" stroke-width="0"/>
      <path d="m69.1745909,106.4063424c-9.2673858-5.0856762-.9560192-14.605374,6.5439905-15.6463336-2.8982635,1.4975616-5.7317552,3.8844573-7.1689364,6.927038-.8427234,1.6499714-.409615,3.7423985,1.2955928,4.5831772-.0687867-.041592-.1407728-.079765-.2094027-.1178125-.0570243-.0422193-.1162128-.0844072-.1725157-.1266579,2.8727626,1.9728972,6.9662775.7321566,8.7619776-2.119214-.8789831-3.2262315,3.5519098-5.1375171,5.2440377-2.2373402.5633108.024905,1.1761178.033719,1.6875171-.2319865-.7733721-1.0981408-1.8624166-2.0508978-2.6932208-3.0598323,2.2744782.0210155,5.2086249.0830271,6.4118121,2.3606733,1.7478348,3.7641982-2.9276853,7.0094378-6.3869384,6.3447505-3.0561311,3.9780157-8.7549828,5.6798202-13.3139137,3.3235382Z" fill="#423b30" stroke-width="0"/>
      <path d="m121.751475,128.7506603c-3.6174344-.2449095-6.8815566-2.4731849-8.4192673-5.7453448-.0495512-.10576-.096797-.2147585-.141557-.3259449-11.2521317-1.7323163-9.1910947-15.5956767-1.0548864-20.2707264,2.1116626-1.2496409,5.5050069-3.1379035,7.5600765-.927162-1.5957701-1.1630067-3.602002.0905551-4.963935,1.1391995-3.6784422,2.9478539-7.0293555,8.5112652-4.4448431,13.0796766.1588634.2044389.3282425.4004167.5100426.5845067.1203532.0995572.2380716.2020237.3590287.3046313-.0641209-.0488376-.128234-.0953855-.1923158-.1431174l-.0606314-.0455833c.6761674.5412209,1.4895318.9686285,2.3679817,1.0136708,2.0900667-3.4803001,7.1262466-.684009,5.1669702,2.9689008,3.34464,5.6438663,11.035107,3.668154,16.1087619,1.8749946-3.0116847,3.8684604-7.6490632,7.007493-12.7954257,6.4922985Z" fill="#423b30" stroke-width="0"/>
      <path d="m137.3597218,121.8332126c1.6381776-2.9606436,5.4617525-5.5987535,5.2081544-9.2042451-.0002509-.0000863.0268497-.0101863.0269124-.0102725-1.3236658-2.6382745-4.7736659-3.2877255-7.4439264-3.7040059-1.3516761-.0986554-2.9693713-.2157858-3.6411788-1.595527-1.2061356-2.2939489,1.3320407-3.749056,2.5246573-5.3340595.5622129-.819324,1.5626784-2.1130035.4863374-2.9128803-3.8367802-1.8666825-10.9267671-.4841731-13.8549621,2.4475271.0797728.0897709.2605065.0852227.3496736.118879.4232986.0491513.976823-.0005646,1.3321504.0877634-.647569.1267206-1.4643523.536116-2.0720075.160471-.8946115-1.7228985,2.8672656-3.7575485,4.0915937-4.5765588,6.0994959-4.1649678,18.591294-3.5635154,14.3022718,6.5701579,4.5561706.7736466,9.4952006,4.3338057,8.6269135,9.4771884-.8679421,4.7238559-6.1665261,6.6307502-9.9365898,8.4755623Z" fill="#423b30" stroke-width="0"/>
      <path d="m122.5581583,116.3705505c-6.1726975-4.0214583-1.5833254-12.4163852,4.9380811-9.9970566-2.2065932-.3605029-4.8011664,1.3928289-5.3599918,3.5854405-.455065,4.361322,6.5273976,5.297298,9.1797714,3.2026439-.1407963-.3657333-.4874274-.6711174-.6399391-1.0065271.9957056-.2930806,1.9472394-.3653412,2.7060575.4657375.8872952.9756233.4255805,2.4490954-.1885753,3.4127915-2.5148396,3.1694033-7.6333172,2.3891305-10.6354038.3369702Z" fill="#423b30" stroke-width="0"/>
      <path d="m126.5295949,164.3003403c.2849959-4.9220607.4373743-10.2390255,3.4328739-14.3893765,1.7111988-2.7355342,4.9520157-4.6607151,5.3409602-8.0775608.2544136-2.9228548-.5023657-7.0369148-3.8796268-7.7051151.0258774.0061478.0521625.0123584.0785417.0186317.0045717.0004705.0092531.0010037.1782871.0452932-5.2297424-.5267688-10.9099782,4.5961943-14.817584,7.693635.0073633.0071516.0145776.0135503.0216899.0193845-.4184838-.1690654,1.5217452-2.2735058,1.9602879-2.8547582,3.3359829-3.6558897,6.8837209-8.1509897,12.1370666-8.7284154,8.2026268-.6169788,11.815513,10.3016016,8.4795616,16.6137938-1.6778248,3.336767-4.903084,5.4772789-7.1705674,8.3661011-2.0974222,2.8630076-3.6632843,6.1953833-5.7614907,8.9983868Z" fill="#423b30" stroke-width="0"/>
      <path d="m66.2550923,168.1829469c-4.5654237-9.666493-10.8689901-7.023239-16.1512165-14.6547056-10.504433-17.6817286,16.4327621-38.7405536,19.6326457-13.2935882-1.334895-3.1147237-3.5142072-8.9526545-8.1867162-8.6762843-7.5988298,1.3708724-10.0490701,12.1723304-6.6034299,18.2366018,5.9489995,6.9620116,12.4486378,6.9517548,11.3087169,18.3879764Z" fill="#423b30" stroke-width="0"/>
      <path d="m98.4300832,137.787471c-8.9572026-.8563365-19.8252203-3.0733513-26.6048044-7.9630417,14.2664199,4.5152374,29.4348458,3.4907765,44.1056817,2.157042-4.2712139,5.0343214-11.103431,6.6802465-17.5008772,5.8059997Z" fill="#423b30" stroke-width="0"/>
      <path d="m70.0206392,140.8662801c-.8931608-3.743904,1.4556246-7.2589582,1.6265406-10.9968712,1.8821461,2.9640077,2.0673966,8.9795355-1.6265406,10.9968712Z" fill="#423b30" stroke-width="0"/>
      <path d="m112.4438852,135.6773533c-.0080377-.1244622.0040071-3.13966.7066242-2.6578708.0155813.0468302-.0708334.0098804-.0980281.0253441-.0163733.0225525-.0324329.0462342-.0470811.0690063.1104414,1.442733.8171205,2.8775616,1.4454932,4.1280181.6910665.9366347,1.2557495,2.0034717,1.0724202,3.2092622-2.1693063-.4239808-2.9353701-2.7863479-3.0794285-4.77376Z" fill="#423b30" stroke-width="0"/>
      <path d="m83.4005794,190.5284646c-4.456582-1.9186567-8.3292141-4.848569-11.5269962-8.4833177-2.7403646-2.9823257-5.6672657-5.9430085-7.2112184-9.7562639-2.189475-7.1025649-.8364188-15.0397293,1.2169884-22.0378751.8601005-2.4551178,2.3151605-4.7853969,4.1033013-6.576392-.8666247,1.5731235-1.59003,3.2157551-1.9970102,4.9703024-1.1015597,6.8905588-1.2854614,16.3051161,1.7130808,22.6923369,1.4244777,2.2780226,3.4771948,4.0622739,5.1181326,6.1708233,3.0727867,4.1694532,5.6298455,8.8254633,8.5837218,13.0203861Z" fill="#423b30" stroke-width="0"/>
      <path d="m106.9943891,189.5551311c.4993545-16.0150075,13.3457193-7.302589,13.8638624-36.0204596-.2390675-2.638204-.1750877-6.2709138-2.3682953-7.9711029,6.4202497,3.918239,5.6242623,20.0668991,3.7817007,26.5991898-2.0562929,7.9109734-10.0179859,11.8676363-15.2772677,17.3923727Z" fill="#423b30" stroke-width="0"/>
      <path d="m92.9677347,196.1991492c-4.6605269-.9652409-11.0349501-2.7059556-13.2330509-6.990116.0001568-.0001568.0000627-.0014115-.0006587-.0025093-.0002509.0012233-.0005019.002478-.0009096.0039208,3.972503,3.7380385,10.1600761,3.9030576,15.334041,4.2210197,4.1726839-.1747113,7.8033157-2.2278362,11.9609516-2.1953405-3.5241818,3.8355883-8.8076785,6.0791391-14.0603734,4.9630253Z" fill="#423b30" stroke-width="0"/>
      <path d="m88.9246571,203.045544c-2.5325303-.9070561-8.2826035-3.3086627-7.0619453-6.6928558.3269329-.3608401.734164-.2045095,1.1161451-.0401491-.1547936.0812706-.5127166-.0645209-.7137444.0863833-.0397727.0557382-.0806432.1115079-.1205414.1674343.6576925,3.6638568,7.6758188,3.7843354,10.6709734,4.3707947,3.4265693.3477289,6.9956051-.1227998,10.1616522-1.4732212-1.2618503,6.4827631-9.3627164,5.3472021-14.0525396,3.5816138Z" fill="#423b30" stroke-width="0"/>
      <path d="m83.115803,201.2491225c-4.5386054-1.2738558-2.0635699-6.3382263,1.0115065-7.7970189.7909374-.4536849,2.0877535-.8230567,2.7903314-.0360087-.1911474-.0439131-.4893486-.1893281-.7607942-.1294181-1.9270629.6573161-3.9302523,3.2502896-3.5254992,5.2857551,1.2379726,1.0728594,3.0993854,1.4263283,4.27428,2.600376-1.2146045.3025298-2.5832499.4198718-3.7898246.0763147Z" fill="#423b30" stroke-width="0"/>
      <path d="m101.5832621,202.2207308c-.2949391-2.2836685,1.2925502-4.1520448,1.6176953-6.3072989.3856196-1.7108851-.9240567-3.1555942-2.1397591-1.4654737.1326489-1.343709,1.772238-2.0339599,2.7624466-1.0560783,2.2948664,2.5820893.7405001,7.4636873-2.2403828,8.8288509Z" fill="#423b30" stroke-width="0"/>
      <path d="m69.4132271,217.2975039c-6.7187332-2.4959569-7.0056738-8.5364212-1.4256383-12.5825413,2.1800964-1.5497555,4.9985636-2.0034403,7.6124585-2.1796259,2.0420525-.5082312,7.2326417.8815552,7.9010929-1.3696491.6496313.6511997-.8634253,1.8442554-1.5857955,2.0517761-5.0503496,2.0553205-12.7003852,2.1419548-14.1549747,8.6113871-.1067402,1.9630717,1.2874061,3.6262483,1.6528571,5.4686531Z" fill="#423b30" stroke-width="0"/>
      <path d="m119.8935438,214.5340536c-1.117588-2.1477262-1.7441336-4.7433031-3.4607823-6.5082954-3.2218167-2.5779803-8.0240888-1.518138-11.1412904-4.4162761-1.9626012-1.3910724-2.5072489-4.813219.3252078-5.5243914-.8702005.6132776-1.5697673,1.8625107-.7831585,2.8947505,1.9714152,2.4065624,5.4500214,2.0216643,8.242329,2.2725962,6.2414607-.0087826,10.0323203,5.7882149,6.8176944,11.2816162Z" fill="#423b30" stroke-width="0"/>
      <path d="m97.7213887,219.3591918c-8.9848051-.0126407-18.0317786-2.1102119-26.1410509-5.9060274-.1102218-.1768756.3226357-.302122.3894463-.2328334-.0943504.0390199-.1950996.0777262-.2807614.133684-.0015056.0071829-.003168.0143972-.0050186.0216429,8.9067966,2.0444677,18.1660585,2.6127344,27.2820383,1.9044477,5.7413612-.3331435,11.4333673-2.461987,17.1917527-1.0323025-5.321607,3.8304128-11.8852643,5.4724171-18.4364063,5.1113888Z" fill="#423b30" stroke-width="0"/>
      <path d="m70.8470834,57.2223008c.3051959-4.2924412,1.4026153-8.6808011.0841563-12.8515089-2.9809456-7.6916589-9.8129118-12.9906821-15.441189-18.7217472-2.1800964-2.200171-6.1749323-5.8497246-3.1154608-8.9451892-.6080551.8979912-1.0210106,2.2234449-.4820402,3.3290195,2.9437606,4.5216361,8.2087825,6.901443,12.0444022,10.6026886,8.7324931,7.5656597,14.7323063,15.7768731,6.9101315,26.5867373Z" fill="#423b30" stroke-width="0"/>
      <path d="m64.7685403,85.1089282c-2.2217197-2.2236645-4.2609806-4.6162688-5.6770834-7.4396292-2.0656558-4.0106447-2.6806271-8.7271608-5.6015843-12.2943774-6.2844955-7.3539986-16.8178641-8.3018312-25.8514284-8.6994328-1.1948436-.2101868-5.0011827.0787613-4.3799066-1.8349396.0524448.1083399-.1112883.3357469-.0330132.5044045.6230326.8494672,1.9054201.6080707,2.8192043.6639031,2.5374234-.1244622,5.0748469-.4817893,7.6202844-.4857101,4.9238329-.0989926,9.9416869.3666115,14.5296161,2.2726589,12.3179179,4.2074694,12.5348799,17.0281137,16.5739113,27.3131225Z" fill="#423b30" stroke-width="0"/>
      <path d="m42.1474524,104.8295412c-8.4369423-4.8979399-19.1720289-3.6540704-27.160948-9.5714212-6.2409431-4.6356533-9.8294105-12.3635091-10.1135909-20.0585242-.0692572-2.5460179.3181503-5.2112597.9877464-7.5841346-.2073325,1.5955192-.3439335,3.246212-.3213026,4.8300001.2423218,7.5639973,3.7939336,15.1157616,9.7888223,19.7920659,7.9191443,6.4945569,21.2017073,3.0311947,26.8192728,12.592014Z" fill="#423b30" stroke-width="0"/>
      <path d="m18.9194073,154.6696992c-.8030919-.2558878-1.7145079-.5134694-2.4209597-.8753132,1.6621729-.136507,3.3323757-.3091481,4.9439859-.5431107,2.5092406-.3535003,4.6847419-1.7524457,6.6314245-3.3002878,11.2356016-7.8758115,4.8436445-23.4754013,15.412818-29.3077802,1.9342772-.9038881,4.3184597-1.0901737,6.3518707-1.1237437-6.9466107.8382459-10.1476863,5.1361762-10.7064019,11.8205395-.4141161,4.1449481-.5895175,8.3762247-2.0935092,12.3045323-2.6130794,7.1319866-10.1142339,14.2188055-18.1192284,11.0251638Z" fill="#423b30" stroke-width="0"/>
      <path d="m156.2556785,150.1070984c-8.7780372-6.9064616.2790676-21.2852989-14.6019786-25.9606936,16.470888,2.4601678,9.6124172,18.3161158,16.9952102,23.989153,1.9805114,1.0769056,4.4085286,1.3309742,6.452118,2.1278712-2.8653287.6121484-6.1677494,1.4784908-8.8453497-.1563306Z" fill="#423b30" stroke-width="0"/>
      <path d="m149.5147693,94.2936633c-3.3238127-1.8213265-5.9478076-4.7344577-9.4929108-6.1786022-5.3295741-2.0676162-11.3130454.0220193-16.0822808,2.5934754,9.7998555-7.2689327,16.3531618-6.5335454,25.8281937.4532458,5.0790186,3.7187795,10.5185323-.3677721,15.5053962-2.116046-3.6119452,4.7228208-9.9279327,9.0836723-15.7583982,5.2479272Z" fill="#423b30" stroke-width="0"/>
      <path d="m108.8631731,52.1339664c1.623153-7.1541627,5.4877553-13.808626,5.1388424-21.2308467.0871518-5.3895468-2.7490688-10.6386659-1.2243125-15.9472559.5684313-1.6772916,2.0646756-3.0651332,3.3524895-4.0951773-.8881421,1.0556078-1.7965783,2.1287808-2.3289618,3.4006606-1.4881203,4.5219184,1.4745308,8.9509607,2.1359638,13.3655116,1.9864711,8.7877608-1.0559293,18.0216158-7.0740214,24.5071078Z" fill="#423b30" stroke-width="0"/>
      <path d="m116.6963655,17.5018503c.364408-3.9234772,1.1602699-7.7628922.7041777-11.6661694-1.3757499,2.7118211-3.7597441,5.5195923-3.1211067,8.7111952-1.6144567-2.8127271-.186662-6.3051033.6744501-9.2104243.9107887-1.8142063,1.1279468-6.123507,4.0271826-5.2111813,1.3125464.7366263,1.462141,2.4490013,1.8221969,3.7659076,1.4546836,5.0097928.2577384,10.5209475-4.1069006,13.6106721Z" fill="#423b30" stroke-width="0"/>
      <path d="m113.9677868,38.3730802c-2.9725394-2.1101805-5.1513497-5.4745187-5.1191364-9.19816-.0297668-1.6563388.2188754-3.8901973,1.9234872-4.6413934,3.3365239-.7036444,2.6279706,6.9246228,3.6255975,9.0227272.1460424.3747668.3030865.8468011.6778847,1.0189717-1.7161311-.6102037-2.1928312-3.1527085-3.0418907-4.6768375.7690436,2.904035,1.8915561,5.5141032,1.9386372,8.4757897-.001537,0-.0031759-.0003137-.0045795-.0010978Z" fill="#423b30" stroke-width="0"/>
      <path d="m119.5354639,35.8750531c-.6529562-1.6617024-.1757229-3.3699528.4265842-4.9649701.0531976-.2295713.1471716-.5412915.0101314-.7519175-.0937544-.0382671-.3020514.0112292-.3485131.0156832-.5257102.1934371-1.0943768.3968174-1.3478807.8989636.0040384.0054578.0079985.0109469.0119114.016436.0596983.0380162.2307084-.0061165.2358838.0562401-.2930885.1525666-.5339753.1525666-.5660945-.2489245-.0441719-.5500427.4737516-1.2406073.8471304-1.5897477.9078716-1.0542277,2.6376158-.8226175,3.1036591.5338576.6542108,2.1633781-.3912342,4.949475-2.3728121,6.0343791Z" fill="#423b30" stroke-width="0"/>
      <path d="m55.0262659,23.5184446c-2.7605646-3.4056478-3.6498046-7.3620912-5.779448-10.992825.3720222,3.694941,1.6940883,7.4012993,4.699343,9.6719508-3.7243784-1.4905042-5.9732301-5.3285077-6.9296414-9.1337959-1.0766861-2.5649632.4875921-5.5584868,3.3081765-3.5412452,3.7682915,3.4299872,5.4494568,9.0558816,4.70157,13.9959153Z" fill="#423b30" stroke-width="0"/>
      <path d="m60.0157645,38.2363537c-9.6133738-1.3864929-7.716658-11.7673263.5538067-7.2064507,2.6185372,1.5901555,4.2046464,4.3898969,5.2956356,7.1466034-1.1555101-1.3145068-2.2015511-2.9165815-3.7095264-3.9669198-1.0218575-.9136744-5.7421532-3.4429112-5.786427-1.0517811,2.2599241,2.6281353,14.8019086,5.9619853,3.6465111,5.0785481Z" fill="#423b30" stroke-width="0"/>
      <path d="m64.1892326,30.1253248c-2.3611751-2.7629799-1.766592-6.8221485-3.7346823-9.6229563-1.1741418,1.8086231-1.2347104,5.354981.1046386,7.0697869-.3843336.0246227-.8584381-.7046482-1.0400814-1.0278798-1.0953178-2.1454051-1.9718543-5.4037559-.3169584-7.4635304,1.0508715-1.0629789,2.5803642-.5211856,3.4248755.5377784,2.050145,2.9641645,2.4880212,7.1052938,1.5622079,10.5068012Z" fill="#423b30" stroke-width="0"/>
      <path d="m73.0441805,42.5851918c-.3854314-1.212503-.5901918-2.4450805-.5942068-3.721822,0-.8505964.1628548-1.6813379.3226357-2.5119538-.353218.8578735-.7879889,1.6801459-.8526039,2.5802073.0013801.0013801.002478.0025093.0036385.0036699.0001568.0014429.0002196.0029171.0003764.0043599,0-.0015056-.0000627-.0029484-.0002823-.0042658.0055519.0056773.0090022.0096922.0122016.0163106-.6537717-1.1184662.1553582-8.9257106,2.6579962-7.7206729,1.1000855.5219384,1.031832,2.0877535,1.0397991,3.0954646-.0223016,2.9278735-.6026443,6.0032008-2.5797055,8.2683004-.0049559,0-.0098491-.0029798-.0098491-.0095981Z" fill="#423b30" stroke-width="0"/>
      <path d="m68.4960397,46.9020989c-1.7587504-1.1514952-.9836217-7.9619126,1.7665293-5.0668484-3.2515443-1.2609328-.2177462,3.8370939-1.7665293,5.0668484Z" fill="#423b30" stroke-width="0"/>
      <path d="m166.9887262,92.7269699c1.3120916-3.2373353,4.414896-5.8184208,4.7297528-9.4014775-2.1013979,1.0600305-7.7554897,4.6000523-7.4644714,7.0245564-1.2549732-2.0721957,3.1842945-6.5089227,4.6817934-7.9614107,1.2171766-1.2818543,3.6481422-2.6157769,4.9986263-.7629898,1.4384672,2.3898441.1088731,5.3693468-1.1965061,7.5280513-1.3080453,1.8807974-3.6192223,3.0099596-5.749195,3.5732703Z" fill="#423b30" stroke-width="0"/>
      <path d="m148.367289,88.7592033c.9411515-1.5828471,2.4309656-2.8618157,4.0667593-3.7401714-1.9717916.2797263-4.1897473.5680157-5.733449,1.8305483.0159969.0144286.0313038.029359.0464538.044509.4044709.051096-.1939704.1685635-.2027216-.0421566.7482162-1.8654905,3.1820048-2.9185576,4.9505728-3.697513,1.5073166-.6546186,4.1214938-.9580894,4.4608792,1.1684644-.190175,3.3322189-4.761527,4.6142927-7.5884945,4.4363193Z" fill="#423b30" stroke-width="0"/>
      <path d="m149.1796497,102.5638771c-1.879825-2.0038481-1.9273766-5.0441391-2.8059206-7.5200528-.0400864.1021607-.0085631.3276543-.0808001.357327-.4847691-2.8152364,2.9281558,3.765296,3.3302742,4.1112684-.5334812-2.2980658-1.2437126-4.7063847-.8490595-7.0581186,2.3329767,1.9003387,3.8481662,4.8138777,3.6294477,7.8610693.1215765,1.7099755-1.6428512,3.5972108-3.2239418,2.2485067Z" fill="#423b30" stroke-width="0"/>
      <path d="m172.0718225,153.23371c-3.2220911-.6284903-6.6488173-2.133674-9.0896319-4.2520412,1.3378435.5149123,2.8050423.719014,4.2189809.9834335-1.0695345-.4095209-2.161151-.9698832-3.0426121-1.6618593,2.7220466-1.5743154,6.1079963-1.3772398,8.7643928.2368484,2.917303,1.2810074,2.6994941,5.1155606-.8511297,4.6936186Z" fill="#423b30" stroke-width="0"/>
      <path d="m146.21881,149.0123453c-2.3182658-2.9652623-.4090817-16.9388447,4.8182376-15.8508039-2.3634022.0584044-2.7866929,3.1089522-3.028058,5.0094164.1144563-.2217611.1891713-.5128421.3381621-.6893099,2.0836131,3.1790563,2.7395805,7.5887768,1.0477975,11.065062-.7094472,1.0993327-2.2347682,1.4927312-3.1761392.4656355Z" fill="#423b30" stroke-width="0"/>
      <path d="m158.820924,140.0340017c-3.1123398-1.2766161-4.9810924-4.3550487-7.4688941-6.3674912.0272575.131802.2246468.2967897.2057955.397382-.2624748-.1369775-.6920388-.5209033-.3010556-.7228094,1.9148614.2073011,3.0569152,1.5154719,4.8225976,2.3279894-.4222243-.6003232-.8397123-1.2957183-1.0807637-1.962413,2.662168-.0395531,5.5202824,1.1822029,6.7891509,3.625276,1.0049196,1.9740499-1.1231398,3.6562661-2.9668307,2.7020661Z" fill="#423b30" stroke-width="0"/>
      <path d="m162.2808045,101.9505995c-1.9605937-1.0672134-4.6917366-4.3794205-3.292258-6.6044337-.2651723,2.2062247,2.3198341,3.9592664,4.1867989,4.6768375-2.1684281-2.9282499-3.5725489-6.1660243,1.1731694-2.7176239,2.4150628,2.0541286,1.626917,6.3939645-2.0677103,4.6452201Z" fill="#423b30" stroke-width="0"/>
      <path d="m32.7100602,98.1915768c-2.6805644-2.0863733-5.5585495-7.0989264-3.3000212-10.249941,1.6587697-1.4906296,3.6788656.2972288,4.0912879,2.0394491.9234294,2.4771684.5741322,5.3430617-.7907021,7.5881181-1.5147975-2.2053464-1.165516-5.0587872-1.9703644-7.5155988-.4835301,2.7990199.4296111,5.8878662,1.9697998,8.1379727Z" fill="#423b30" stroke-width="0"/>
      <path d="m20.2492679,94.9173232c-2.1389593-1.8162765-3.4672516-4.4449764-4.8298119-6.8655911-.4817893-.9274443-1.2325785-2.0476044-.9836531-3.1356137.2245841-1.2087076,1.8815658-1.3828544,2.6337342-.5339831,1.5438899,1.5261365,2.3954901,3.7812615,1.899084,5.9340377-.1938606-.0456382-.3889131-.2024707-.5758887-.2991422.6957244,1.7138963,1.0996463,3.7428689,2.3585404,5.1330944-.1215608.0878575-.3763194-.1635449-.502005-.2328021Z" fill="#423b30" stroke-width="0"/>
      <path d="m4.8470518,96.3797543c-10.1029577-5.1865743-.6429189-12.2337146,1.9068002-6.3552269-.9278991-1.3752009-2.9951546-1.5344486-4.0833365-.2489872-1.6371111,4.2603533,10.4654288,5.2090013,13.2373795,5.8373348-3.1701326,2.3046214-7.5668987,2.6706996-11.0608432.7668793Z" fill="#423b30" stroke-width="0"/>
      <path d="m4.8104628,79.0335217C1.7739045,76.3221711-.1793652,72.0413669.0130369,67.956415c-.0159969-2.8966011,3.2374921-5.7461525,5.464152-2.8828626,2.0760851,2.8268734,2.4658922,6.5895346,2.0114545,9.9850824-2.0159085-1.8534772-3.4380651-4.3898969-4.3371855-6.9903042-.8182733,3.2716188.663511,10.7136005,4.2084731,11.8525177q.0002196-.0001568-.0037797-.0041717c.0362283.010445.1442545-.0043913.1124018.0401491-1.0062369.2037567-1.8506542-.2767779-2.6580903-.9233039Z" fill="#423b30" stroke-width="0"/>
      <path d="m28.7368985,105.5885789c-3.5424371-.3171152-1.5811847-4.5197541.5659769-5.4241441.2139665.0105705.2195497.2190322.1204159.3975389-.0602707-.0040776-.011982-.1553268-.0519115-.2039763-.0043756-.0013801-.0087983-.0026975-.0132053-.0039835-.4790761.5139399-1.9522816,3.8745455-.3027964,3.0855215,1.7953237-1.0695032,3.365138-2.5409678,5.5472105-2.7932171-.6859694,2.54423-3.1432358,4.8380613-5.8656901,4.9422607Z" fill="#423b30" stroke-width="0"/>
      <path d="m16.0587208,153.649065c-4.2169744-1.1113147-7.4887177-8.7440987-1.2889274-9.2463075,3.5856915.3638513,6.5280249,2.7706019,9.8454859,3.9976589.5082939.2182167,1.1679626.3688385,1.5969934.5949909-4.003446.2044154-7.9373996-2.3976857-11.7670283-1.832242-.1133271,3.8380662,6.2252442,4.0518289,8.9886789,4.9965561-2.0876907,1.4274261-4.8450717,2.4495973-7.3752024,1.4893436Z" fill="#423b30" stroke-width="0"/>
      <path d="m30.2120017,132.5434961c-4.5921794-3.8435867,2.1536388-9.8262112,6.5523183-8.3592319.3440747.1244622.8122352.3786327,1.0318163.6104232-1.6090067-.5424207-3.1525046.2199418-4.365384,1.2337695-4.3570875,3.7215084-1.2561651,5.3451633,2.9158758,3.6039154.2853253,3.2132458-3.8127378,4.8655697-6.1346264,2.9111238Z" fill="#423b30" stroke-width="0"/>
      <path d="m42.2966,137.0066023c-2.523779.2355623-3.3921759-8.0211325-.5021775-7.0145819.0228505-1.0459469.196464-2.1448405.5263454-3.114857,1.1522793,1.1442652,1.9472316,2.5213716,2.3769525,4.0873122.3761783,2.0508037.3151077,5.8029572-2.4011204,6.0421266Zm-.333316-3.6507142c-.0000784-.0362597-.0003293-.072488-.0007528-.1086849-.0346129-.8626725-.1294965-1.7154019-.1598907-2.5722716-.0907589-.0237131-.1796829-.0494257-.2696734-.0756873-.0298609.004705-.0597375.0095668-.0896611.0145227-.3407498.8760033.2384794,1.8982371.519978,2.7421211Z" fill="#423b30" stroke-width="0"/>
      <path d="m42.1862214,114.6549761c-.3613419-.0602315-1.2687117-.305141-.9756703-.8433586.9321807-1.4807178,4.581797-1.3488531,5.7293243-.1603455-1.6155937-.1505278-3.1087483,1.0984231-4.753654,1.0037041Z" fill="#423b30" stroke-width="0"/>
      <path d="m48.5478471,130.7879529c-2.244633-1.8609816,1.8301719-8.8137715,3.6765131-9.5820936.0017879-.001286.0026818-.0013801.005395-.0014115-1.4645798,1.9399546-1.8303757,4.5015929-2.2292634,6.8526289.9297811-1.5995576,1.7102735-3.2911523,2.8677439-4.7528307.3870154.492893.6175748,1.1187799.7549443,1.7547668.4112303,2.2156346-2.4806501,7.3730067-5.0753331,5.7289401Z" fill="#423b30" stroke-width="0"/>
      <path d="m86.9021146,131.2077855c-2.0023111-3.8211283-3.9539027-7.9560784-6.2143914-11.4951593,3.6537568,2.181006,8.6079681,6.8156007,6.2143914,11.4951593Z" fill="#423b30" stroke-width="0"/>
      <path d="m99.954024,132.3430956c.042282-4.2888968,4.5076467-10.8245437,8.837163-11.7675772-2.1531526,4.2970834-6.795487,7.0595928-8.4617375,11.5682432.0031994.0003137.0063674.0006587.0095354.000941.2608751-.1031016.5482548-.390105.7636485-.4397895-.2648273.3147313-.7695768,1.0840258-1.1486094.6381826Z" fill="#423b30" stroke-width="0"/>
      <path d="m97.7100968,132.5044761c-7.8086559-6.114646.2031294-24.956715,3.2246946-32.6293031.8101964-1.9575198,4.6966846-9.0363089,5.4686531-7.7542037-.0290454-.0234308-.0566479-.045701-.0852463-.0688494-3.0025022,3.1924498-3.7149606,8.2841405-5.1143451,12.3597373-1.4936722,5.6959425-2.6843441,11.4620755-3.5813315,17.2804336-.6129325,3.5973912-1.6913751,7.4418875.0875752,10.8121853Z" fill="#423b30" stroke-width="0"/>
      <path d="m19.5276505,56.9793674c-6.3737332-2.7202901-4.7887531-8.0754592,2.0635385-5.4804783,1.6420984.5299682,3.1637495,1.3048459,4.6612954,2.1440249-2.3048566-.2407064-4.7797666-.6300273-7.1598087-.4364647,1.8530851.9995245,3.9688802,1.8231144,5.0760858,3.7246137-1.4158833.6055614-3.2183115.7192963-4.6411111.0483044Z" fill="#423b30" stroke-width="0"/>
      <path d="m42.2383211,56.4403029c-2.2938627-2.1994495-3.1281956-5.2366666-4.0458379-8.1670808-.2685128,1.625035-.6381826,5.1116398,1.6889129,5.0556506-.5297016.3396677-1.214777.2733903-1.7467213-.1887949-1.7582171-1.4287435-3.0964213-7.1073012-.1842468-7.8292637,3.605123.0781653,4.987005,8.3523312,4.287893,11.1294887Z" fill="#423b30" stroke-width="0"/>
      <path d="m25.8020617,66.8133261c-1.1375371-2.324445,1.634445-4.118859,3.284385-5.2435986,3.1180015-2.0651069,9.1987873-4.5476703,11.2977543-.0444149-3.3999705-4.3582794-9.9957157.8209551-12.4284534,4.0495391,1.3229601.3526848,2.6050182-.2230785,3.8779958-.5180176,2.9183067-1.0285072,5.8484386-1.6638354,8.9199078-1.8846554-3.3066081,2.6012856-11.2816319,7.6446719-14.9515894,3.6411474Z" fill="#423b30" stroke-width="0"/>
      <path d="m45.3741387,70.304228c-.5311915-2.7667125,4.2214745-4.7162338,5.3879315-2.6538245-1.40961-.5568179-2.9145741.6001037-3.286314,1.9306074,7.7955917-2.1910747-.649004,5.5821998-2.1016174.7232171Z" fill="#423b30" stroke-width="0"/>
      <path d="m56.8506349,67.9262091c-.750506-3.0695873.6955048-6.0725521.8067461-9.017489-1.0737219,1.230225-2.4633828,2.9840822-1.7130808,4.60918.1774089.1850936.5080116.1876343.6611272.2449409-1.6304771.4752023-1.689007-1.8471098-1.5175107-2.9389459.1587144-2.0693727,2.5215049-5.8630554,4.4406008-3.0313202,1.1956905,3.3933835-.3363429,7.600602-2.6778826,10.1336341Z" fill="#423b30" stroke-width="0"/>
      <path d="m52.6170059,48.0534999c-.5982217-.2810437-1.0920557-.8752505-1.2205328-1.5336958-.1437056-.7390886-.0569772-1.4198041.1084339-2.1267106-.1017999-.056742-.2578482-.0795454-.3251764-.1616942,1.1097307-1.6303046,3.9515972-2.450946,5.1189168-.4698073,1.2941029,2.1611197-1.3509076,5.3471394-3.6816416,4.291908Zm.5350809-1.3230071c.6349205-.0333426,1.1009794-.6670397,1.2383176-1.2202819.2317827-1.0560469-2.0428053-.5032126-2.6991177-1.0441904.1589967.8860406.4015381,2.1610569,1.4608001,2.2644723Z" fill="#423b30" stroke-width="0"/>
      <path d="m63.405039,61.4963926c-1.1334594-.6021425-.7301177-3.7043823.6904078-3.1435495-.4063215.3016202.0418743.9257192.2302928,1.2775257.6666006-.3519006,1.3707155.1990831,1.3235403.9146154-.0366674,1.1334908-1.4311588,1.5828471-2.2442409.9514083Z" fill="#423b30" stroke-width="0"/>
      <path d="m46.3132514,86.0032495c.0209214-.7987163.3662351-1.800311,1.1066411-2.2206219.4296268-1.9897332,1.4894534-1.1374116,1.8804523.3135394.2489245,1.0920557.0080298,2.870661-1.212503,3.320331-.8924707.3510851-1.8071645-.4640986-1.7745904-1.4132485Z" fill="#423b30" stroke-width="0"/>
      <path d="m92.5474237,30.4149003c-1.1648886-1.2781844,1.2906055-4.7331403,2.6619484-4.8699296.1946604.0260028.1939076.5066315.0441013.2475757-.0099745-.002227-.0199491-.0044227-.0299864-.0066811-.3765233.754019-.4253923,1.6434785-.6498509,2.4751923,1.3354282,1.1590858-.798434,3.6954428-2.0262124,2.1538427Z" fill="#423b30" stroke-width="0"/>
      <path d="m152.5465286,76.0888985c-3.5934076-2.5404033.8569952-7.0060816,4.1233758-5.0428217-1.3154164.1142054-2.9843645.5747909-3.3686354,2.0834876-.266176,1.683659,1.9025657.5702114,2.6458888.3652628,1.7481485,2.100206-1.7019143,3.8094286-3.4006292,2.5940713Z" fill="#423b30" stroke-width="0"/>
      <path d="m142.0995432,39.6413528c-3.0803773-.4894113-2.6494645-4.9348896.1644231-5.2916207-.7979007.7253187-1.4626193,2.3803714-.389415,3.1276153.7967402.4007069,1.6378953-.2482658,2.3889345-.2932453,1.3429876,1.3065083-.7635858,2.8985772-2.1639427,2.4572507Z" fill="#423b30" stroke-width="0"/>
      <path d="m155.2642152,118.037248c-1.8958219-1.2987294-.5926384-4.9400651,1.2727266-5.5003568-.7755051.9541294-.8724589,2.5738948-.4087681,3.6758623.0004705.000345.0008783.0007214.0012547.0010978.6326621-.4689917.8379871-1.3712174,1.4113665-1.8664002,2.7731426,1.0017829-.047928,5.111977-2.2765797,3.6897968Z" fill="#423b30" stroke-width="0"/>
      <path d="m143.6263071,154.094626c-.7146541-.1485517-1.031832-.9033549-.6624602-1.5296809.0722684-.1204473.582162-.4978489.6905646-.224835.1060815.2872229.4143827.3881603.6022366.6102664.4585467.4602091-.0241208,1.2786235-.6303409,1.1442495Z" fill="#423b30" stroke-width="0"/>
      <path d="m40.8902365,151.9008538c-1.7657921-1.1924284-1.2788588-5.9174762,1.2285156-5.3637636-1.2550202.0846582-1.2005523,1.9009033-.9225355,2.7394236.8754387,2.8084299,2.7837131-.6512624,4.3591734-.9006573.3244079,2.4160979-2.3245234,5.2885781-4.6651535,3.5249973Z" fill="#423b30" stroke-width="0"/>
      <path d="m25.6670289,119.4575853c-1.424415-.4367783-2.3608928-2.2504201-1.4333387-3.5451738.1101905-.1811572.4867295-.4789898.6544304-.3251685-.0364165.0105078-.0483828.0215096-.0811137.0329034-.653411.8910984.6141088,2.4320007,1.5715865,1.8031967-.2246782-.4178644-.6710076-.7512901-.7517763-1.2298486.7232328-1.0484249,2.6081392-.735356,3.0312417.4656669.6892629,1.7578721-1.3200273,3.410047-2.9910299,2.798424Z" fill="#423b30" stroke-width="0"/>
      <path d="m146.0474549,51.4536586c-2.7348755-1.9555123,5.5143541-2.6867907,6.5966548-3.4727094,4.6418011-1.4973734,8.2813175-4.9591045,12.8274508-6.7054024-4.8067261,7.8860684-11.6077963,8.2705588-19.7280469,9.3502874-.0135503.0544836-.0276339.1086221-.0431289.1627607.0442581.2451291.3224789.4779312.3470702.6650637Z" fill="#423b30" stroke-width="0"/>
      <path d="m164.9589694,43.6398273c1.8578998-2.4501305,4.8671694-4.1706137,5.9058392-7.1546646-.0084062.0465165-.0175339.0923743-.0269438.138138-.0145227.041937-.029014.0839054-.0414038.1950368.1920884-.672027.1108492-1.3217211-.0694768-1.9694391-2.2908515,2.7057674-5.2090641,4.9180458-7.4083254,7.650412.0006273.0000941.0012233.0001255.0020388.0001255h-.0019761c-.0000627.0003137-.0001568.0006273-.0003764.0008783.5354573-2.8539427,2.5603837-5.9120498,3.8646023-8.6892387,1.1528753-1.8160256,1.89027-5.1754392,4.6092114-4.8258283,1.1322048.136507,1.9592763,1.2205328,2.5009128,2.1196218,4.9155992,7.5533327-1.7994641,13.0153988-9.3341023,12.5349583Z" fill="#423b30" stroke-width="0"/>
      <path d="m153.3669818,50.3717971c.0673439-2.3441431.9590617-4.4766566,1.9799155-6.5417007-1.826251,1.230476-4.1490963,3.5618843-3.6774385,5.8934181.591572.1660542-.1501827.2033803-.3183699-.0664342-1.0645786-2.3649705.3165506-5.3744596,1.9114424-7.2145432,1.3630621-1.844475,4.7449969-2.1551914,5.1069975.6060633.2151741,3.1391895-2.4050882,5.970266-5.0025471,7.3231968Z" fill="#423b30" stroke-width="0"/>
      <path d="m155.3500967,57.8575663c-2.5513815-.2412397-4.7587354-1.8923716-6.3154542-3.8463156,1.7972998-.3896345,3.7742668-.2909869,5.5883163.1295122-.7237817-.6862674-1.5096063-1.312468-2.4014183-1.7671879-.8165952.2088694-1.6385226-.6843854-.7578771-1.2329853.8150268-.2971034,1.6340686-.1244622,2.4572821.08011,1.9264356.6246009,4.485596,1.6665329,5.0946705,3.786092.4109951,2.1344895-1.8456355,3.2167275-3.6655192,2.8507747Z" fill="#423b30" stroke-width="0"/>
    </g>
  </g>
</svg>