<?xml version="1.0" encoding="UTF-8"?>
<svg id="Layer_2" data-name="Layer 2" xmlns="http://www.w3.org/2000/svg" viewBox="0 0 69.8781033 189.5338017">
  <g id="Layer_1-2" data-name="Layer 1">
    <path d="m38.0288426,162.0781984c2.025939-.5768475,4.020952-.3512367,6.0029688-.3741821.9591566.3309397,1.9536455.1474228,2.9316578.195681,1.5541332.076688,3.1140672.0740395,4.6632374.2040248,2.0230269.1697355,3.9817291.6262775,5.8688644,1.4266499,1.8601527.7889114,3.7563057,1.4897441,5.5942982,2.3377652,1.318825.6085352,2.5465478,1.3571338,3.6824127,2.2399599,1.4039037,1.091093,2.4007774,2.5272118,2.8897805,4.2323713.4969603,1.7328629.0880318,3.3106856-.7318759,4.7738045-.1217469.217267-.3275412.39094-.5080346.5711756-1.1320503,1.1305152-2.215157,2.3172573-3.4145144,3.3715532-1.9866106,1.7463395-4.141193,3.227646-6.7019441,4.0776125-1.5049024.4994798-3.0568324.8155366-4.5533031,1.3234539-1.6780129.5695818-3.4115554.9123341-5.1244787,1.3404697-.5711404.1427587-1.1359586.312002-1.7095365.4435341-.5447262.1248993-1.1000462.3172755-1.6455283.3014551-1.1174018-.0324377-2.2370888.0357424-3.3079844.2596892-.8062904.168587-1.6495244-.04118-2.4152443.3256193-.0527933.0252892-.1264579.0070547-.1904192.0090001-.8843378.0267658-1.7629861.0647114-2.6480387.1640401-1.4787928.165962-2.9765702.1830012-4.4673924.2156733-1.4712752.0322736-2.9438336.005836-4.4158296.0058829-.9599945.0000469-1.9207098.0253595-2.8798254-.0032813-1.5221935-.0453987-3.0515882-.0531566-4.5614125-.2233843-.7568838-.0853131-1.5198263-.0577269-2.2613819-.1757355-1.3098572-.2084076-2.6378141-.1715871-3.9435638-.3690727-2.7292209-.4127136-5.3645799-1.1095854-7.7200288-2.6294468-.4201258-.2710799-.8591951-.515558-1.3026589-.7471689-1.2295598-.6421448-2.2146502-1.5811978-3.1325302-2.5924153-.8986582-.9900065-1.4890322-2.1559359-1.8013799-3.457335-.5801698-2.4172892-.0134679-4.6211317,1.4042582-6.5854179.6102403-.8454899,1.4110375-1.5795572,2.2205945-2.24896,1.2111055-1.0013268,2.4924479-1.9203172,3.7706379-2.8370575.865491-.6207228,1.7799872-1.1727733,2.6669998-1.7638943,1.2621908-.8411305,2.6599509-1.3489072,4.1242388-1.6950579,1.568893-.3709009,3.141038-.7283719,4.7067436-1.1122104.3954577-.0969381.7930481-.0498519,1.2045489-.1798605.6450394-.2038138,1.366339-.154876,2.050572-.2480641,2.6913339-.3664711,5.4007969-.1102507,8.1508129-.2269937-.0615297-.5438707-.0691176-1.0726476-.1887903-1.5747524-.2681912-1.1252886-.3817759-2.2747883-.5890702-3.4035456-.2131596-1.160656.0483284-2.3415621-.314088-3.4784055-.0929362-.291541-.0240412-.6356526-.0241115-.9556234-.0012305-5.6639197.0107344-11.3279098-.011168-16.9917592-.0052676-1.362337-.0562328-2.7317053-.2080853-4.0841516-.1295751-1.1540231-.2158784-2.3137182-.3737954-3.4625851-.1583858-1.1522184-.2756854-2.3054681-.3939283-3.4615069-.1279168-1.250516-.2599001-2.5012897-.3966178-3.7502119-.0933346-.8526149-.0528402-1.713808-.1901497-2.548165-.1300848-.7905052-.0623676-1.5853931-.1822922-2.3597029-.205056-1.3238758-.1233582-2.6549001-.1813313-4.0115183-.3095938-.1260477-.5829003-.28383-.8767792-.3492679-1.710269-.3809556-3.3236877-1.0231942-4.9040124-1.7626287-.1963841-.091899-.4179344-.1299618-.6144122-.2216968-1.6849211-.7866145-3.2619529-1.748027-4.7103383-2.9179643-.8846513-.7145906-1.8148419-1.377923-2.6562126-2.1397639-1.4418375-1.3056179-2.866173-2.635189-4.223506-4.0272216-.560198-.5745037-.9505081-1.3226336-1.3789543-2.0159663-.8232681-1.3323017-1.6208807-2.6804706-2.4249738-4.0245614-1.0290067-1.7200425-1.8751939-3.5255503-2.5830959-5.4017227-.647096-1.7150502-1.1427174-3.4758859-1.6441045-5.2342372-.2205747-.7735363-.3080264-1.5845963-.4655333-2.3766952-.1150174-.5784178-.2784012-1.1491012-.3603481-1.7316675-.0829752-.5898671-.0709282-1.1834374-.1810002-1.7825507-.175756-.9566781-.112615-1.954501-.2347193-2.9243159-.3683462-2.9255933-.1263875-5.8604796-.1724103-8.7902448-.0457298-2.9112494-.0293059-5.8240223.0007061-8.7357054.0143761-1.3947747.0709194-2.7936159.2050179-4.1812772.1146922-1.1868476.2139946-2.3859296.4123474-3.5524333.1477949-.8691736.0643832-1.7454723.289997-2.6155366.2261089-.8719744.1192654-1.8245744.2484948-2.7289631.1372978-.9608734.1042038-1.937204.3403294-2.8911868.1341132-.5418317.0584359-1.1166401.1809826-1.6858704.1777599-.8257085.1799924-1.6916829.2288218-2.5421064.0781646-1.3613409.0982741-2.726924.2110854-4.085054.0669995-.8066303.2567712-1.6038737.4062448-2.4025586.0972721-.5197417.2538063-1.0299325.3267004-1.5523812.156335-1.1205073.2330816-2.2533194.4204334-3.3679907.263656-1.5686235.6077501-3.1235594.8973545-4.6880696.1084695-.5859765.1596954-1.1824882.238692-1.7739842.0622621-.4661632.1332606-.9312365.1889807-1.3981615.0519642-.4354482-.0655903-.8838104.1603516-1.3103757.0801568-.1513252.0208478-.3774165.0223156-.5693943.0073243-.9599477-.005959-1.9205399.0248556-2.8797141.0501507-1.5610649-.3143546-3.0609692-.6530902-4.5620922-.164131-.7273524-.4262899-1.4325796-.666851-2.2226629.2777127-1.1431012,1.0199744-2.0364742,2.0378541-2.7511117.4902307-.3441819.916547-.778341,1.3806418-1.161031,1.1605476-.9569711,2.534665-1.4373609,3.9675639-1.8115313.9090001-.2373648,1.8311252-.2502204,2.735303-.1588018.9258664.09361,1.8283654.3874361,2.6258462.9211818.6767153.1663956,1.2240461-.2397086,1.7743973-.4866946,1.4871484-.6674223,3.0575766-1.0259715,4.6261356-1.4042611.1520166-.0366623.3187872-.0144142.4787375-.0154513.6719751-.0043418,1.3454736.0205607,2.0156206-.0162189,1.431021-.078522,2.8375556.1386923,4.2202541.4275848,1.1784452.2462125,2.37966.4532373,3.5025287.9276857.5436422.2297124,1.0846184.4657296,1.6359071.7028132,1.0894993-.5199292,2.2042351-1.0529483,3.4339735-1.3417822,1.4827011-.3482601,3.0642856-.3551859,4.6809914-.1582862,2.6088275.3177443,4.9658878,1.3549893,7.3871849,2.3260581,1.1993926-.3216818,2.4283283-.6478402,3.7091082-.8103217.6646684-.084317,1.3273036-.1747863,1.9783781-.1155476,1.5540804.1414228,3.1266708.2907792,4.5624731.95785.9113673.4234129,1.68747,1.0786594,2.4800259,1.7060385.5974199.4729132.9990827,1.0358271,1.2547172,1.7093197.1971341.5193549.2847089,1.0802883.465712,1.8007266.1503701.3080059.3846353.787845.6413362,1.3136453-.0505667.9274514-.2897187,1.8832857-.3448851,2.8400459-.0976178,1.6931009-.8584861,3.1758605-1.2614438,4.7673358-.2899589,1.1451754-.6619672,2.2691163-.7188035,3.4643077-.0176251.3705962-.1382001.735204-.1769191,1.1061869-.0357776.3428577.0470394.70136-.1789992,1.0129754-.0315354.0434651-.0142442.1250399-.0134649.188884.0228341,1.8766529-.4005846,3.7487471-.1616729,5.6186733.1501006,1.1748123-.0092227,2.3678709.2041771,3.5062025.1934075,1.0316903-.0599711,2.0925254.3224318,3.0901842.0323557.0844107.0098555.1903958.0104591.286373.0065508,1.0407255.1746164,2.0595251.3689614,3.079731.1230477.64593.1100281,1.3170086.2188081,1.9666417.1339755.8001029.1316552,1.614573.3413577,2.4100938.1419677.5385973.0611664,1.1153627.1934895,1.6837493.1767258.7591339.1516592,1.5641821.2282769,2.3480426.0487269.4986478.1330438.9937213.1860715,1.492041.0497113.4671945-.0976354.9581195.1789289,1.3988646.029467.0469456.0076934.1256493.0109102.1895637.0654848,1.2978249.1612393,2.5950169.1891243,3.8936504.0347873,1.6200106.2558806,3.2273882.2157905,4.8549691-.0598656,2.430508-.0032813,4.8636645-.0261857,7.2954147-.0068028.7229813-.1365829,1.4439938-.1690148,2.1677485-.0329123.7347001.0964694,1.4941152-.0459554,2.2023542-.2106752,1.0476396-.1065476,2.0887988-.1601612,3.1313759-.0618227,1.202211-.0539359,2.4148751-.2203257,3.6028243-.1526201,1.0896282-.156042,2.1953463-.3671274,3.271451-.2880195,1.4683103-.4294598,2.9573044-.7208719,4.4274898-.3139122,1.5837056-.5816054,3.1743019-.9693637,4.7452223-.3198654,1.2958444-.5326089,2.6181499-.7921223,3.9288772-.5436891,2.7460491-1.5473245,5.3031791-3.0198537,7.6927884-.8612048,1.3975404-1.7589724,2.749307-2.8582979,3.9772994-1.9864231,2.2189363-3.8139038,3.7328446-6.45988,5.3446755-1.4747733.8983887-3.0089962,1.6372841-4.6655226,2.1194435-.4461357.1298446-.8957285.254111-1.350835.3456116-.9529398.1915794-1.9302723.184384-2.8906419.360143-.6511683.1192039-1.339954.0331643-2.0119115.0383909-.1544014.0011953-.3088145.0001641-.5287066.0001641-.0013945.518769-.0873228.9751939.1185242,1.4368922.0724575.1625167.0389475.3755415.0408811.5656209.005877.5759569-.0050157,1.1522184.0092286,1.7279175.0629887,2.5458682.0104473,5.1023536.2342886,7.6342763.2199507,2.4878834.1245125,4.9668605.1424365,7.4486501.0344299,4.7673592.1540088,9.5415856-.0447366,14.3011401-.2040423,4.8862818-.0647114,9.7672199-.1461162,14.6495642-.0052325.3136895-.0006797.6274963-.0006797,1.0023581ZM7.3308964,91.0261338c.0204904.1141062.0409778.2282124.0614682.3423186.0420677-.0218673.0841382-.0437347.1262088-.0656137-.0689829-.0859107-.1379628-.1718214-.2069428-.2577321-.0002432-.3192794.0590277-.6524222-.0114815-.9553422-.2476862-1.0640929-.412283-2.1384514-.574741-3.2182944-.1855471-1.2332893-.3989001-2.462395-.5785321-3.6976764-.0770103-.5295855-.0784663-1.0724836-.1963519-1.5843033-.2127113-.9235138-.3190831-1.8649575-.3300607-2.7921627-.0477015-4.0294599-.0363313-8.0599158-.0103829-12.0897858.0091846-1.4260874.1209969-2.8514951.1858079-4.2772193.0029033-.063891-.0148888-.136454.0092989-.1904895.3719263-.8308531.0900914-1.7414762.3436985-2.604767.2000023-.6808169.0825269-1.4499469.2427672-2.1484945.2661463-1.1602576.3080616-2.3490856.5482887-3.5100815.164005-.7926028.2263784-1.6104714.4415888-2.387289.3247404-1.1721287.4926653-2.369617.7203182-3.5580583.1690353-.8824393.3884674-1.7552341.5572419-2.6377203.1521279-.7954153.264324-1.5984479.3970602-2.397625.1427294-.8593533.2746834-1.7208276.436954-2.5765129.225523-1.1892617.4973353-2.3700623.7069499-3.5619373.1676466-.9532211.1814602-1.9417041.4290848-2.870421.2672156-1.0021823.3476771-2.0269702.5056088-3.0361721.1947698-1.2445862.1834758-2.5244227.2182309-3.7901966.0333518-1.2145743.0033076-2.4307658.0185275-3.6460316.0058799-.4694796-.0442532-.9363342.1373505-1.4075248.107362-.2785565.1104001-.6678559.0008467-.9441155-.1990765-.5020111-.1178797-1.0021823-.1465058-1.5030684-.0558402-.9770923.0515863-1.9516885-.1655636-2.9350738-.2012181-.9112325-.200682-1.86702-.2865224-2.7770454-.8747606-.3389319-1.7297222-.670188-2.6358599-1.021284,0,.1908762-.0128116.346889.0022705.5001361.0584066.5934648.1648136,1.1849843.1811672,1.7792108.0298977,1.0866047.0095098,2.1746157.007878,3.2620408-.0004805.3197833.0801245.6745708-.0298273.9526703-.3104932.7853137-.0772153,1.6223192-.3266769,2.4214728-.1927366.6174298-.0694047,1.3333446-.2611218,1.9513369-.1364745.439913-.0976881.8708611-.1903284,1.2979889-.1317899.6076446-.2555437,1.2193673-.334593,1.8355315-.0960299.74854-.0889957,1.5130411-.2222827,2.2534014-.1896282,1.0532764-.368771,2.1023926-.3650239,3.1757551.0004453.1272547.0044825.257404-.0189406.3813423-.1153777.6105509-.259282,1.2164025-.354764,1.8298713-.0915006.5879101-.1305272,1.1838007-.2026566,1.7749686-.0644448.5281909-.0812437,1.0725187-.2279839,1.5781158-.2707664.932924-.3423304,1.8975827-.5134662,2.8439599-.2170825,1.2005117-.2132739,2.4416526-.4418759,3.639094-.1141736.5980586-.0549525,1.2014141-.1934222,1.7756834-.2149086.8913105-.2228364,1.8011602-.3393626,2.7000996-.1092429.8427242-.0189347,1.730191-.2450787,2.5336103-.2268032.8057631-.1069929,1.6167058-.2934013,2.4237345-.2092689.9059942-.1115632,1.8815513-.198889,2.8299559-.1687013,1.8321916-.0583949,3.6787154-.1863411,5.5247938-.2223472,3.2081811.0609701,6.4325341-.1878293,9.6523871-.1189402,1.5392913-.0782935,3.1004616.0961295,4.6625929.1531006,1.3711496.2016693,2.7537484.4084157,4.1284136.2226665,1.4805096.607712,2.9137455.9804937,4.3550792.5321167,2.0573806,1.3200789,4.0134402,2.3131762,5.8888157.0349631.0660004.1319218.0991764.1999788.1476572Zm34.9258292,17.0882285c.1218055-.0167345.2506774-.0134063.3642914-.0534144.8336246-.2934863,1.5532836-.7922161,2.2934798-1.2606645,1.9221688-1.2164376,3.7463096-2.5576807,5.3939238-4.1301129,1.4039037-1.3398369,2.6034017-2.8613624,3.7872024-4.3884192.7631358-.9844283,1.4110053-2.0428492,1.8354202-3.2494313.7516865-2.13701,1.3472666-4.3127508,1.9067292-6.5040307.3287717-1.2877115.8151264-2.5369501,1.1113608-3.8307906.4857161-2.1214943.9981217-4.2394026,1.2114395-6.4187645.0514281-.5253433.0515394-1.0806281.1908001-1.581022.1582745-.5687381.1250106-1.1254878.165839-1.6896907.0407522-.5631599.1420263-1.1220659.1795031-1.6853196.0671547-1.0093191-.0082208-2.0159428.1569737-3.0340393.1760578-1.085093.1477978-2.211073.1885794-3.313756.1425947-3.8555173.0919518-7.7173862-.1840617-11.5669269-.0608676-.8489235-.1279168-1.6988314-.1630206-2.5504854-.0026367-.0639145.011502-.134122-.0100196-.1908176-.3544711-.9340725-.1114226-1.9323407-.3338869-2.8955462-.2035326-.8812206-.1630499-1.8188204-.2299702-2.7315764-.0046817-.0637973.0070137-.1334657-.0146778-.1906184-.2828515-.745083-.1958978-1.5456312-.348512-2.3129682-.1341981-.6747817-.104403-1.3814153-.2280835-2.059197-.1861536-1.0201473-.3606293-2.0374234-.3655395-3.0773521-.0006035-.1278993.0097852-.258904-.0133595-.3831822-.2428727-1.3039655-.291623-2.6256382-.3666938-3.9449085-.0306037-.537859-.0782056-1.0757531-.0826529-1.6139285-.024756-2.9955078-.0466761-5.9911094-.0494534-8.9866992-.0005508-.5969219.0874869-1.193832.1318837-1.7909648.0094688-.1274188-.0217912-.264447.0141563-.3822681.3207267-1.0509561.3122716-2.1553617.527857-3.2274234.2024837-1.0069167.4180633-2.000849.7352333-2.9759608.1697882-.5219682.3191564-1.0505693.497763-1.6425459-.6593891.3468655-1.2168888.6571098-1.7889902.937553-1.2094122.5928789-2.5446318.5785936-3.8379274.7475557-.5324918.0695864-1.0816477.011543-1.6622569.011543-.0895318.3403499-.1844016.6655239-.2599353.9951276-.1807981.7889583-.3764087,1.5756548-.5216167,2.3713514-.1683995.9227638-.3064532,1.8519847-.4254051,2.7825299-.095778.74929-.1006999,1.5117169-.2225991,2.2557569-.1828254,1.1159721-.3706313,2.2279247-.3677016,3.3628227.0002461.095942.0276096.2073646-.0108692.2853065-.2521833.5107533-.1452021,1.0567803-.184009,1.5895299-.0387073.5314488-.1676671,1.0593585-.1730929,1.5896705-.0242345,2.3668396-.0638266,4.7349918-.0107637,7.1007181.0535082,2.3856366-.0845455,4.7684959.1462158,7.1604373.2255347,2.3378121.1685167,4.7029174.2339078,7.0560811.0071075.2557282.0239298.5135658.001377.767337-.124741,1.4034115.2178002,2.7829752.2036732,4.1801405-.0006445.0639145-.0078106.1303602.0062051.1914622.2254116.9823658.3121485,1.9817121.3831412,2.9842577.0511644.722618.0392756,1.46674.2206421,2.1579398.1584268.6038125.1014616,1.1943476.1606651,1.7884687.0623383.625633.1708956,1.2525199.1654581,1.8780357-.0232384,2.6736737.1624698,5.3487184-.147417,8.0215835-.160378,1.3832785-.1584092,2.7853775-.2295132,4.1789921-.003252.0638676.002836.1288485-.0064395.1916966-.1826965,1.2377307-.3731157,2.4743482-.5491208,3.7130281-.1456943,1.0253504-.2310953,2.0612361-.4215906,3.077774-.2751873,1.4684744-.6513441,2.9179643-.9295139,4.38597-.3595629,1.8975124-.9211818,3.7408017-1.452906,5.5907474-.2742733.9542054-.6870748,1.8690942-1.046292,2.7982682-.7346005,1.9001139-1.6129089,3.7311571-2.7398089,5.4308088-.9159259,1.3813918-1.8767056,2.7330647-2.8175926,4.0979095-.0550609.0292033-.110116.0584066-.0372952.0197814-.0371311.0735708-.0091348.0180939.0188673-.0373596ZM13.7014057,14.5586824c.1255584.7091062.2837714,1.2855318.3201671,1.8695278.0966832,1.5514789.160753,3.1057351.1995482,4.6598272.0311281,1.2470355.029716,2.4960045.0007998,3.7431455-.0449417,1.9383642-.1254998,3.8759081-.1909524,5.8137918-.0032403.0959186.0230128.2054779-.0141388.2856464-.3560033.7682394-.1115544,1.6141629-.3385803,2.4146173-.1940608.6842271-.1220457,1.4392828-.2321177,2.1530882-.1562676,1.0133621-.3876529,2.0149233-.5569812,3.026551-.1546299.9237834-.2094271,1.8678169-.4157722,2.7785689-.3097579,1.3671417-.5647156,2.7400725-.7473125,4.1287066-.060894.4630577-.1566748.9214865-.2340396,1.3824465-.1134265.675813-.2379771,1.3501494-.3328674,2.0285992-.0869068.6213673-.0785572,1.2620356-.2216206,1.8683794-.3367874,1.4273999-.5232017,2.8772883-.7753761,4.3172977-.0805552.4599991-.1137722.9275451-.2095033,1.3851653-.1209617.5782303-.2452282,1.1572693-.3274269,1.7416871-.0918404.6529847-.0396594,1.3424736-.2288657,1.9614503-.243901.7979349-.1351532,1.6178191-.3246818,2.4183439-.1490166.6294416-.0820318,1.3069304-.1845451,1.9696769-.1487617.9617524-.1145838,1.9519112-.1899329,2.9311129-.1658009,2.1546351-.048053,4.3214461-.1719474,6.4878235-.1229949,2.1506507-.2073471,4.3235555.1124744,6.4852102.1614005,1.0909173.1485273,2.2075925.2148237,3.3125958.0057041.0951334-.0106671.2008958.0252629.2834198.3085831.7086609.1448388,1.4847753.3359026,2.2200262.1718068.6611293.1231209,1.3761535.2325308,2.0576267.2270698,1.4143686.5544265,2.8148855.7292069,4.2348088.1916643,1.5570687.6395755,3.0475394,1.0210613,4.5551312.1817824.7183641.3858687,1.4746268.7784641,2.0862323.6447581,1.0043972,1.3818049,1.9719972,2.2099275,2.8296278.76146.7885364,1.6619874,1.4572829,2.5614366,2.0937324.7887444.5581208,1.6589083,1.0018425,2.4968102,1.4897441,1.5948092.9285764,3.2540837,1.7192456,4.9794172,2.3789686,1.7807987.6809107,3.6190841,1.0801242,5.5022116,1.3617276,1.1527517.1724074,2.2922727.3755649,3.4622394.3654868.2436285-.0021094.4894778.0849381.7317704.141704.2831327.0663754.4998607-.0098204.6773833-.3241896,0-2.1493734-.0079043-4.3557237.0048223-6.5619568.0038145-.6606137.0146192-1.3150867.1278231-1.9819582.1072917-.6320666-.0968385-1.3115242-.1168836-1.9715753-.0957428-3.1525518.1307704-6.3081388-.1818-9.461546-.1814074-1.8301877.0091055-3.6764888-.1727179-5.5243954-.1808684-1.8382151-.0789966-3.7083171-.0387014-5.5630792.0400081-1.8414143-.1234285-3.6833912.1566573-5.5273602.1651124-1.0870501-.0188907-2.2094441.196138-3.3160763.1244364-.6404221.0990006-1.3122039.178384-1.9724894.1536631-1.2779849.2393629-2.5649464.4063972-3.8449118.1215945-.9317873.2537888-1.8625903.3687387-2.7939088.1611983-1.3059812.3667055-2.6009115.5876757-3.8972012.1886438-1.1066205.3497367-2.2170965.5724881-3.3188888.1240848-.6137501.1016667-1.2576293.2316343-1.8695747.1326688-.6246603.0966686-1.2643442.21456-1.872938.0973483-.5025501.1243836-.9950924.1625225-1.4962129.0380276-.4996439.1456064-.9946588.1722843-1.4943847.072686-1.3617511.0706528-2.7258576.1358153-4.0894368.1214656-2.5413564.1436377-5.0904824.2225815-7.6365498.0792837-2.5571299.0451702-5.119088.0082559-7.6781633-.0372014-2.5787277.1429345-5.1602094-.1410888-7.7375192-.0940787-.8537517-.0161778-1.7261597-.0240236-2.5899544-.0021504-.2367554-.0300705-.4732882-.0465237-.7151414-3.6338909,1.1951211-7.3213719,1.4231108-11.0939668,1.2786646,0,.4350028-.0862857.8101693.0206544,1.1182456.1523682.4389169.1452256.8681775.1462451,1.3080671.0111798,4.8311448.0388948,9.6623598.0196232,14.4933874-.0061934,1.5533773.0620863,3.1047155-.153751,4.665089-.1628858,1.1775545-.2677928,2.3710467-.3935826,3.5577185-.12245,1.155195-.219353,2.3104721-.4090456,3.4589171-.1681945,1.0182957-.1984056,2.0646345-.435788,3.0638403-.1034362.4353661-.1046608.8672635-.1921184,1.2948366-.2553825,1.2485472-.5043138,2.4990866-.718282,3.7552276-.162628.9547914-.1861536,1.9397587-.4194812,2.874382-.289707,1.1604802-.3667641,2.3463786-.5146498,3.5167729-.157085,1.2432034-.2659881,2.4973756-.4010651,3.7467314-.0947701.8765331-.0313068,1.7610466-.1782023,2.6474469-.1433154.8647908-.0736821,1.7572966-.1858313,2.6440016-.1542491,1.2196251-.0785689,2.4629223-.1944095,3.7003483-.1774875,1.8960241.1199363,3.8186733-.2143198,5.7159747.0332522,3.3008067-.1672159,6.6057852.3420901,9.8963262.143081.9244513.2526169,1.8570707.3965944,2.7853658.3015313,1.9440127.7984388,3.8400836,1.3927298,5.7032247.6052305,1.8973952,1.362337,3.7455947,2.4849537,5.4170978.785261,1.1691873,1.5710376,2.3386793,2.3244585,3.5283746.2769745.43737.6405393.8709901.5145561,1.5215255-.1834934.1464385-.3980358.3176505-.6509632.5194956-.2391871-.1962903-.4546846-.3307522-.616545-.5128627-.9905748-1.1145541-2.0419879-2.1852799-2.9329175-3.3755376-1.1040658-1.4750487-1.9967064-3.0892467-2.691832-4.8107657-.7453701-1.845973-1.3614639-3.7327743-1.8416722-5.6595838-.2628416-1.0546241-.52948-2.1118614-.6736802-3.1998255-.0700844-.5287417-.0939791-1.0665187-.1927571-1.5866119-.1757941-.9256349-.3493499-1.8469339-.3529476-2.7921159-.0049981-1.3117703-.0386018-2.6243726-.0042071-3.9351585.1011979-3.8570525-.1781203-7.7179487.1798254-11.5740871.1582217-1.7045385.1492158-3.4246278.2158784-5.1376624.0037383-.0958952-.0203204-.2014935.0116192-.2863612.3991901-1.0609639.0546449-2.189569.3345315-3.2814706.2234722-.8717986.162628-1.8165001.22748-2.7288928.0045352-.0637739-.016465-.1392079.0105001-.1900911.3531234-.6662387.147417-1.41731.3405784-2.1246115.2531032-.9267599.2254937-1.9272665.441249-2.8679249.2301167-1.0033073.3392366-2.0232671.5474684-3.0274768.1578292-.7611612.2939433-1.5268107.4493115-2.288511.2296597-1.1259448.4811223-2.2476123.697944-3.3759712.159001-.8274546.2496696-1.6684562.4202195-2.493192.2602224-1.2584613.5112807-2.5156219.5464137-3.805267.0052325-.1918723-.0248322-.392358.0203204-.5742459.2751932-1.1085658.3012149-2.2530147.3246701-3.3724087.077063-3.6779185.0421292-7.3581925.0505081-11.0375524.0005801-.2559509-.0549554-.5297027.0165001-.7644776.2092045-.6873443.2039193-1.3525752.0029414-2.0411969-.0664809-.2278023-.0107403-.5060541.04026-.7505674.1512842-.7252664.1755304-2.4756021.0263088-3.2620174-.4388935-.0841177-.8657869-.2271929-1.2956745-.2368258-1.298651-.0290978-2.5217508-.3860533-3.7344091-.7899309-1.1388355-.3792915-2.0655252-1.0523037-2.693291-2.1071622-1.0726974-.0793716-2.1431419-.1585909-3.2808583-.2427789Zm17.0299537,150.0450871c-.188843-.0098438-.3256076-.0548441-.4320966-.0162657-.6457132.2338375-1.3147586.1509619-1.976216.1711417-.2236655.0068204-.4646983-.0407112-.6682719.026297-1.2817173.4218074-2.6277945.5143393-3.9441409.7048874-1.3272743.1921184-2.6556911.3686508-3.9814185.5855663-1.351544.2211343-2.6940732.4502139-4.0270282.775716-1.7147719.418784-3.2938193,1.0831242-4.7794677,2.0445602-1.7690828,1.144859-3.5003373,2.3387496-5.1260344,3.674438-1.0304423.8466383-1.8812173,1.863645-2.4102608,3.1209578-.3693188.8777167-.4512861,1.7971523-.1926136,2.6766034.4045515,1.3754152,1.1571872,2.5202039,2.360072,3.4117722,2.3405367,1.7347847,4.8242277,3.0346604,7.7335084,3.5824218,1.7897753.3369866,3.5650633.6531839,5.3829872.7235203.0958483.0037031.1969056-.0143204.2869472.0098204,1.197541.3209318,2.4413245.1572901,3.653889.3578226.8363375.1383056,1.7162104.0524769,2.5351396.2441266.6048028.1415165,1.1907675.1060554,1.7846835.1567041.5943613.0506488,1.1860507.1640401,1.7804471.1764621,1.4705838.0308205,2.9420758.015797,4.4131459.0263908,1.4285601.0102891,2.8680421.0420706,4.2684653-.2354547,1.229844-.2436813,2.4758306-.3546351,3.7100515-.5031361,1.1283999-.1357274,2.1942038-.4410497,3.2816112-.7050983.7527002-.1827434,1.5124786-.3383694,2.2728722-.4867532.5802401-.1132273,1.1813749-.14304,1.7470602-.3026738,1.5245783-.4301981,3.0674145-.7675831,4.6255028-1.0448974,1.3793879-.245486,2.7402132-.5681521,3.9855201-1.2344143.8544255-.4571045,1.6753293-.9764361,2.5186043-1.4549392,1.8195412-1.0324755,3.2550505-2.5117664,4.6737316-4.0093621.1467256-.1548994.2503727-.3641039.3315842-.5652224.3812779-.9443733.7477314-1.8946998,1.0868801-2.7597602-.2071947-.7494893-.618631-1.2755474-1.1840526-1.6448779-.678813-.4433935-1.3929642-.8354351-2.1070333-1.2215705-1.4540896-.7863098-3.0256838-1.2982585-4.5555121-1.9057155-2.3954336-.951264-4.8061719-1.839012-7.3987455-2.1362014-1.217756-.1395478-2.4257385-.3390725-3.6560687-.3702915-.657725-.016711-1.3205125-.0854771-1.9679132-.2029701-1.221172-.2215561-2.4335549-.4920735-3.6482933-.7484111-.7883723-.1663605-1.573188-.3497601-2.362533-.5111283-.1658565-.0339143-.3445628-.0049453-.5479547-.0049453.0947584,1.1697029.0212345,2.2717179.1729757,3.3862955.1384052,1.0167019-.0546214,2.0784979-.1033073,3.1588565.0993464.14379.2239878.3241896.2969961.42987.2303745,1.0618663-.3632485,1.6302997-.9434065,2.0890214-.3037168.121032-.5000658.2239702-.7090476.2784393-1.0845598.2828222-2.1753013.3350647-3.2577458-.0005391-.8501481-.2635798-1.4720135-.8576306-2.0050912-1.5312287-.1816652-.2295718-.2983965-.5711287-.3078477-.8659041-.0404241-1.260477-.2305972-2.5012429-.3806861-3.7495088-.1395302-1.1604685-.1544131-2.3359137-.2298882-3.6004219ZM39.4669828,16.3218384c.1192566.8596579.2607029,1.4498766.2728905,2.0427438.0484222,2.3550857.1284032,4.7092924.1873489,7.0634523.0936803,3.7411416.0546097,7.4862207.0309553,11.2293779-.0090118,1.4259468.0873639,2.8520928-.1560186,4.2819888-.1521748.8940527-.0649516,1.8236134-.1935599,2.7413968-.1666534,1.1892734-.1690089,2.4016328-.2403121,3.6041485-.0075704.1275946.0221134.2623259-.0084083.3828775-.3321643,1.3120984-.2704412,2.6784198-.5566208,3.9970221-.0860982.3966823-.1373212.8014857-.1923645,1.2042383-.0806431.5900781-.1242957,1.1864023-.2308257,1.7714881-.1561006.8573259-.3851627,1.7019369-.5258003,2.5613487-.1670636,1.0208973-.1964134,2.0701541-.4358935,3.0711294-.1358564.5678592-.1026686,1.1262612-.1912044,1.6834094-.1275184.8025755-.2530153,1.6063581-.3433733,2.4136681-.091108.8140717-.0181642,1.6667804-.2355836,2.441219-.2614294.9312014-.0806841,1.8744614-.3058086,2.8081706-.2029584.8417633-.1253973,1.75507-.1898684,2.6358219-.1366005,1.8660356-.0676469,3.7438838-.1987982,5.6190835-.0921334,1.3173953-.0452581,2.6503649.1126531,3.9884674.2037611,1.7267339-.028008,3.4859407.2087768,5.2321396.1522979,1.1230972.0069668,2.2691632.1828547,3.4127683.1769601,1.1504606-.0777779,2.3473395.2185795,3.5042806.0266779,3.346932-.0400081,6.6940632.1850696,10.03946.0985846,1.4652283.0191017,2.9424332.0203673,4.4142006.0002695.3136192.000041.6272385.000041,1.0028268,1.2400218.0137579,2.3315601-.3386272,3.3724028-.5857538.1153601-.2696268.1741535-.4799328.2859745-.656723.7952571-1.2571488,1.7617673-2.3787343,2.702127-3.5288199,1.2912565-1.579229,2.2201141-3.4045769,2.86438-5.3477927.547404-1.6510537,1.0590069-3.31617,1.5161876-4.9942005.3268967-1.1998672.5266206-2.4338948.804017-3.6478949.1816125-.7947825.2629002-1.6059948.4120281-2.4016563.2311011-1.2331252.3732798-2.4744653.5394-3.7142.0835728-.6237697.0884478-1.262516.2222124-1.8740747.188761-.8629978.2534255-1.7369644.3468011-2.6087397.0873697-.8157709.0798052-1.6455459.2186206-2.4511332.2477418-1.4378062.2920566-2.8937884.3170704-4.3356142.0485863-2.800155.2186499-5.6075639-.1363192-8.4051173-.1152019-.9079395-.1400517-1.8270588-.2214272-2.7396975-.0502327-.5633474-.1133621-1.1265542-.1992845-1.6854485-.1041628-.677606-.2573161-1.3478994-.3543129-2.0263491-.0934635-.6537816-.0569008-1.3385361-.2368199-1.9638292-.1551866-.5393004-.0299943-1.0924993-.1919544-1.5872096-.1349892-.4122917-.1144109-.8072045-.1593878-1.2112696-.0448245-.4027292-.1478623-.8002552-.1746047-1.2034297-.0521605-.7862629-.0499574-1.568143-.1606827-2.3596794-.1568682-1.1214565-.0416253-2.2706984-.2100189-3.4104363-.1517412-1.0270262-.0144962-2.0754862-.1746691-3.1258446-.1997357-1.3098015-.2018509-2.6550173-.2208764-3.9859244-.0327541-2.2914056-.0505609-4.5839244.1737668-6.8706893.0528812-.5391363-.0985085-1.1212573.049887-1.6226824.2175424-.7350517.1389325-1.489416.3183888-2.2246786.1696476-.6950905.1092136-1.4430328.2313882-2.1537328.2158022-1.2552855.5102553-2.4968483.7409287-3.7498252.2819432-1.5314397.6351545-3.0423011,1.1430602-4.5159786.258945-.7513291.4996263-1.508963.7559405-2.2861321-.1279813-.0215392-.2190014-.0328713-.308211-.0524652-1.0261473-.2253882-2.0451286-.3653461-3.0329319.1664659-.1016139.0547035-.2495348.0359768-.3752485.0314182-2.0009427-.0725747-4.0040241.1535987-6.0080489-.1499189-.823728-.1247586-1.6711046-.1104031-2.5652042-.4734523.168212.3392952.2758377.5563864.3003242.6057813Zm-19.28286-2.3315894c.2911953.0964577.5221382.1936536.7627198.2490251,1.0099578.2325132,2.0244683.4345927,3.0709126.3904244.2218432-.0093633.455417-.0230275.6661215.0320744,1.2909576.3375725,2.6001966.0781294,3.8986777.1409189.8294937-.3806626,1.748027-.031969,2.6060853-.343971.5456637-.1984114,1.1890742-.1119968,1.7567751-.2687478,1.6711925-.4614288,3.3264885-.9804439,4.9808821-1.4747791.7057429.1755597,1.3973587.3148146,1.9468135.8765096.2017806.2062748.6402757.2289156.9757564.2479352,1.2340979.0699731,2.4684536.0079219,3.7065535.1694425,1.2481077.1628097,2.4117286-.2609665,3.4535557-.9248849.5732147,0,1.1177065-.0178712,1.660669.0033047,1.7458708.0680629,3.4931595-.0937155,5.2424638.1574542.7592921.1090202,1.5655356-.1089851,2.2314638-.1679308,1.0353935-.3340451,1.7761346-.8999941,2.4083067-1.6354208.4796633-.5579919,1.1019974-.9331233,1.8110743-1.2604652h.9810415c.0603578-.1187117.0921276-.2092514.1468603-.2826581.0950397-.1274305.2042767-.2442672.3109005-.3694712-.633174-.7354618-1.516088-1.2869849-1.7082475-2.3334527.065977-.1793098.1285497-.3493734.1987923-.5402848-.5446618-.6079727-1.0736964-1.1989883-1.6032819-1.7895234-.49447-.5513708-1.1532556-.8026107-1.8529398-.8002083-1.5228029.0052266-3.0447679-.1271024-4.5711743.1457119-1.0461513.1869622-2.0905683.3597445-3.0964889.6960866-.4451279.1488291-.8787948.1729933-1.2986042.0402307-.9159259-.2896777-1.8264494-.6032969-2.7195998-.956643-1.4804979-.5856835-3.003125-1.0624054-4.5736001-1.2423245-1.6696984-.1912864-3.3195509.0786685-4.8678247.8070053-.9544515.4489834-1.8355198,1.0718273-3.0469593,1.2435667-.5795311-.1994193-1.2996999-.3996589-1.9811906-.6905084-2.2044636-.9408577-4.5377054-1.303403-6.8900547-1.5787486-.4967903-.0581488-1.0012389.1061374-1.4922578.1438134-1.2915553.0990944-2.527411.4148347-3.7281044.8314859-1.1701893.4060808-2.3862607.7451884-3.4104627,1.5040293-.694109-.0026016-1.4000833.1115164-2.0605505-.1925755-.7016706-.3230763-1.4592048-.2709393-2.1544066-.1532119-1.483331.2511813-2.8565401.8664314-4.1198237,1.6847922-.6510775.4217606-1.2461009.9300529-1.7957256,1.3457431.5247368.870158,1.0263758,1.6320575,1.4475534,2.4360979.1607442.3068692.3398108.5191089.6421917.6427659.5764784.2357242,1.1466344.4913352,1.7354176.6916686,1.3955071.4748117,2.8156473.8477516,4.3047614.8590603.7358632.0055782,1.4719139.005918,2.2076892-.0046875.3752925-.0054258.7346913-.0487738,1.1125239-.1558604.6533304-.1851575,1.3427314-.3613149,1.9744699-.1935481.2975879.2366851.5462731.4344755.7302645.5808085v1.4399508Zm16.1385056,156.9413586c-.0177071-.2762127-.0344826-.5929257-.059098-.9090294-.039053-.5015892-.2093861-1.0328036-.098737-1.4978066.2186909-.9190372.0712036-1.8358245.1508447-2.7487913.016172-.1853684.0121993-.3883853-.0464827-.561613-.2314058-.6830201-.1337528-1.3548604-.027715-2.0444664.0708872-.4610889.0294201-.9421233.0111505-1.4131733-.0095743-.2468454-.1089792-.4906907-.114405-.7370907-.0955319-4.3370673.1641104-8.6779081-.187759-13.0135223-.1671573-2.059654.0437405-4.1280035-.1646144-6.2003842-.2222593-2.2106394.0674594-4.4510915-.2147709-6.6755123-.1510381-1.1903749.0452757-2.3992891-.176966-3.6074532-.1695128-.9214748-.0372014-1.8851607-.1978138-2.8342216-.1409072-.8325992-.0410803-1.6933235-.1851633-2.5486104-.1363251-.8092318-.0102716-1.6596436-.0431839-2.4902037-.0337209-.8510915-.1658097-1.6996048-.1749972-2.5501104-.0252072-2.3350699-.0085196-4.670632-.00842-7.0059832.0000117-.2462125,0-.4924016,0-.7953099-.4866594,0-.899502-.0251486-1.3078093.0071719-.4000163.0316174-.7529053-.4157371-1.2097227-.0722583.0508011.821021.054475,1.6604639.1590538,2.5147429.1571436,1.2836099.078604,2.5936107.1966946,3.8933457.073313.8069115-.143749,1.635831-.1338876,2.4537113.0275861,2.2890384-.1518994,4.5768579.1388798,6.8695291.174675,1.3773137.0783989,2.7843931.1872083,4.1816522.1826848,2.3458043.0139278,4.7040775.1838332,7.063007.224146,3.1119578-.1071452,6.2459938.2105053,9.3654048.0696508.6840279.0209884,1.378134-.1200652,2.0759432-.1225379.6062383.0772329,1.2537972.107028,1.876606.1261883,2.6383297-.0683794,5.2845579.217267,7.9234735.1395068,1.2888365.1454013,2.5921341.2117651,3.8888691.0032696.063891-.0098555.1341102.0120997.1907356.3476448.896373.2512048,1.8510355.1272665,2.7355725-.1247996.8906308-.0937272,1.7655115-.1422138,2.6189233.3021699.7719191.7775441,1.242055,1.6752004,1.1535778.3313733-.3577758.6645395-.7174969,1.0250282-1.106726Z" stroke-width="0"/>
  </g>
</svg>