<?xml version="1.0" encoding="UTF-8"?>
<svg id="Layer_2" data-name="Layer 2" xmlns="http://www.w3.org/2000/svg" viewBox="0 0 117.9304041 127.0086066">
  <g id="Layer_1-2" data-name="Layer 1">
    <g>
      <path d="m10.148767,51.7473668c-4.5837995-5.0577309-3.0116532-11.4252874-1.1433169-17.2941387C3.940641,24.1780965,3.5975365,10.7514745,13.1378521,2.967475c-1.0663458,1.3363602-1.9001711,3.0669281-2.5676759,4.7153274-3.2032775,7.102646-1.5762837,15.0655324,1.5655468,21.8608582.6027068,1.7782346,2.1603205,3.4052967,1.8862199,5.366077-.15319.6915433-.3720328,1.3568254-.6041087,2.0220734-.9667381,2.9809468-2.3911997,5.7138832-3.3351645,8.6441714-.5257699,2.002993-.0457518,4.2115615.0660974,6.1713844Z" fill="#423b30" stroke-width="0"/>
      <path d="m17.9184391,119.4272077c-.8040422-3.6502297.4843265-7.4280379-.3765806-11.0253009.0247566.0581985.0495816.1125331.0707478.1703213.0083092.0383317.0182939.0782021.0288941.1177306-.4295474-1.9381267-2.7751662-1.5543311-4.2785479-1.6398849-2.7287647.064969-5.5148047-.1334941-8.1966549.4174427.0020858.0007523.0043085.0014704.0063943.0021542,0,0-.0043769,0-.0043769-.0000342.0311851.01867.292839.0088221.2450356.0613444-.1397517-.0044794-.4563215.1312373-.4464735-.0702349,1.4405328-1.1295709,3.4858582-1.4066122,5.2304458-1.9039667,2.4073735-.4276325,4.9655434-1.3734438,7.4014691-.7309692,5.7029411,2.4495691,3.6587783,10.9301384.3196473,14.6013976Z" fill="#423b30" stroke-width="0"/>
      <path d="m85.2554149,125.0072207c-.0393917-.2494808.0262611-.5208459.0525223-.7703267.0025646-.0102925.0111473-.0143616.0188068-.0125236-.764035-7.671663-3.1253489-20.2606641,9.1113495-16.4883612,2.3536202.8265761,4.3798653,1.7406894,6.7709966,2.1973528-.3549357.2756736-.8789274.4749573-1.3131253.6910988-3.4808317,1.8237898-7.140499-.474376-10.6852396-.1526087,0,.0002052-.0248934-.0133015-.0250985-.0133699-3.300047,1.9898967-2.4195125,10.6221514-3.5450826,14.2599002-.0190804.2329992-.2393593.5432687-.3851292.2888383Z" fill="#423b30" stroke-width="0"/>
      <g>
        <path d="m56.1710342,23.4412117C41.2684542,18.1517297,29.9800975-2.1440434,12.3634563,3.9288447c-.7929633.4705975-1.0623451,1.2801621-.5254621,1.9832117-1.0035653-.7727032-.2972159-2.0076092.5381823-2.6131712,2.436507-1.7229084,5.6542486-1.9934358,8.5523771-2.1706642,8.2464759-.2560632,15.582634,4.2405069,21.8928639,9.0952782,5.3125802,3.4582293,9.591094,8.2252755,13.3496167,13.2177126Z" fill="#423b30" stroke-width="0"/>
        <path d="m56.711576,25.1305243c-4.3490222-.0255089-8.7155176-.2107217-12.8330109-1.8509486-6.5669599-2.0673294-13.119524-4.3328654-19.1227243-7.755567-2.9911709-1.8523847-13.0613597-7.3368762-11.7516538-11.3451191.7604104-1.3689815,3.0499507-1.2721435,4.1230328-.5032188-.7755242-.349704-1.6991093-.3611761-2.502023-.0881184-5.5272514,2.7213788,12.8605714,10.4412641,15.0373393,11.2578897,5.3992967,2.1004465,11.0217105,3.5651033,16.5752913,5.1951403,3.6409289,1.076946,7.9465244,2.1641673,10.4737486,5.0899419Z" fill="#423b30" stroke-width="0"/>
        <path d="m15.688807,53.3421838c-2.2823596-1.7504177-4.3415336-4.1995423-5.7685939-6.613823,3.9405042,4.3975437,8.6560881,8.2089819,14.8111105,5.7994371,11.0079986-2.9283562,18.884425-12.7622631,30.3097294-14.4303582-4.2138867,3.5390131-8.525945,7.1302408-13.3448979,9.9140581-6.6874602,4.0162272-18.6866116,10.5080112-26.0073482,5.3306861Z" fill="#423b30" stroke-width="0"/>
        <path d="m0,109.0541952c8.6214835-10.3849121,17.8561031-20.2501067,25.253845-31.5663317,6.6897512-10.2346628,11.1830045-21.7575917,18.6238994-31.4474727.4084838-.4269657,1.2280501-1.184179,1.8907677-.805239-.6468173-.1572933-1.2911726.4611428-1.6984254.9582922-3.674576,5.3462273-5.6934693,11.6307774-8.5435892,17.4242818-4.3661535,9.847123-9.190851,19.5289683-15.9359968,27.9944238-5.3051943,6.9435063-10.9746935,14.667153-19.5905008,17.4420457Z" fill="#423b30" stroke-width="0"/>
        <path d="m17.0509667,119.528149c4.45817-11.4980013,13.2566085-20.4277797,19.5787722-30.8871667,7.1978085-11.7417717,11.1715494-25.0168793,15.6681537-37.9388292.9181824-2.5509036,1.8114714-5.2740092,2.9719196-7.6419568-.4420625,1.2736652-.8272258,2.5604609-1.2040116,3.8252185-4.6818684,18.4661787-9.0667945,37.5702672-20.6583853,53.1351886-2.3330012,3.4145976-4.6391257,6.8589099-6.9153987,10.3120101-2.3661353,3.641476-5.159869,7.8002417-9.4410499,9.1955356Z" fill="#423b30" stroke-width="0"/>
        <path d="m85.9178931,127.0086066c-4.8144393-2.9170465-7.6662347-8.3336625-10.5216205-13.0302344-4.0016776-7.4842959-7.7669024-15.1479319-10.2728577-23.2760958-4.3859861-15.7442529-5.7409308-32.538558-3.5363289-48.7496128.3102781-1.296695.4743076-3.6337139,1.4970558-4.3373449-.5239918.4218195-.5855755,1.2115685-.735859,1.8252345-1.7936904,17.1105672,1.2808801,36.7368351,6.9731185,52.9029075,3.0476597,8.1998008,7.6174054,15.6810107,11.3662853,23.5520771,1.8474779,3.6254304,2.7860742,7.9013112,5.2302064,11.1130688Z" fill="#423b30" stroke-width="0"/>
        <path d="m96.7853536,106.2685656c-18.4696494-10.7611507-27.7666392-48.5829504-27.1231387-68.8437598.0089931-.0001197.0352542-.0176271.0396311-.0176271.0087537,0,.0175074,0,.0175074.0087537.0257824.0270476.0040007.0815019-.0175074.0350148,0-.0043769,0-.0087537-.0043769-.0087537-.0006839.000171-.0013678.0003761-.0023252.0006497,1.6426889,18.6368932,7.7318191,37.2579545,17.4703926,53.2787871,2.7400488,4.2220933,5.9289647,8.2176844,9.9678456,11.267977,2.6005365,2.0452912,4.9119953,4.4053742,7.1280865,6.8522762-2.5479116-.4456187-5.1122365-1.4340017-7.476115-2.5733179Z" fill="#423b30" stroke-width="0"/>
        <path d="m57.262034,39.9398397c-4.1703575-4.0088242-3.748367-12.0945361-1.1770666-16.8289951.170629-.0301251.1762369.2032845.1969585.3414461-.045615.0367417-.0887339-.1767498-.129425-.2163808-.0033852-.001402-.0069072-.0028723-.0104976-.0042743-1.1180816,4.696589-.297592,17.2969255,7.0466018,15.1850582.6200432-.1932656,1.2842654-.5131693,1.8776713-.6433466-.3326411.730935-.7265581,1.4224783-1.2386503,2.0439406-1.606443,1.979399-4.8057198,1.8442807-6.5655921.122552Z" fill="#423b30" stroke-width="0"/>
        <path d="m63.3242877,39.920879c1.1800415-1.7601459.5534671-4.0620987.9871521-6.0627665.1997283-3.3061165-.5424566-6.8585508-2.8169515-9.3351847-.5569892-.5071169-1.1846235-1.2654415-1.9795016-1.1254334-.0150796.0193197-.0283128.0391352-.0411698.0608486-.0151138.0331513.0716026.1646108.0072834.1367939-.2757419-.3501485.3063799-.4201782.5252227-.4464906.8537263.0455296,1.6128031.5530568,2.3284875.9848268,3.5522292,2.5712663,4.983256,7.4133003,4.3068949,11.6293754-.343549,1.7331325-1.3115523,4.0901038-3.3174177,4.1580305Z" fill="#423b30" stroke-width="0"/>
        <path d="m68.6220618,22.7929754c-.1861532.0332538-.9041969-.1982408-.3763754-.3282129.0583353.0334248-.1017619.054933-.1303824.0922388.0009916.011267.0028381.022893.004924.0354423,5.0291104.0568649,9.9200763-2.0486423,14.5863521-3.800308,9.175361-3.3331299,17.7264729-8.3137358,26.2832269-12.7975515,1.1752885-.5295654,2.2150654-1.05142,3.3047316-1.5359004-2.9677821,7.2683682-12.8481589,10.2341499-19.5778489,13.139254-7.757328,2.5771306-15.7896457,5.7479236-24.0946278,5.1950377Z" fill="#423b30" stroke-width="0"/>
        <path d="m66.8435194,21.9713403c-1.2100982-.6364735,3.6408263-4.3554507,4.2457215-4.9506176,8.3464939-6.8533362,28.1780637-22.9175783,38.8400855-14.7671368,1.5211969,1.4896528.7086746,3.7042394-.3149285,5.2303261-.4416863-.8936993-.2974553-2.416794-1.3483111-2.9325108-8.4687723-2.5614696-16.6638201,1.860882-23.9762475,5.672457-4.0038318,2.1473609-7.8715366,4.5167105-11.7037478,6.9591843-1.8581806,1.1926933-3.774765,2.3668192-5.4143421,3.8481628-.1973005.2210654-.481591.4710762-.4591938.7975966.0148403.0551894.206909.1332377.1309637.1425385Z" fill="#423b30" stroke-width="0"/>
        <path d="m99.8662843,50.4215042c-12.398266.117628-20.8898116-9.9272058-31.0494523-15.4719987-.3632791-.2275965-.7747036-.4376856-1.0679529-.7571961-.0481454-.0481454-.0043769-.122552.061276-.1138154,1.4228202.772498,3.0275877,1.2843338,4.5125046,1.9652768,4.4857305,1.9658923,8.7461214,4.382806,12.9961514,6.8072424,5.7130284,3.3694783,12.3870845,4.1686307,18.9024111,3.732159,3.3327367-.1978647,6.7335198.3186386,10.0229666.026244-3.568745,4.0408983-9.4048724,3.9957791-14.3779044,3.8120879Z" fill="#423b30" stroke-width="0"/>
        <path d="m114.6974326,45.4190311c-7.5955895-6.8083538-3.6839452-14.1495043-.5643751-22.02723,1.8671395-4.7394514,2.7112573-10.4454016-.2148421-14.9379026-.8585135-1.1752885-1.8284317-2.751709-3.3303773-2.9621571-.0090615.0130793-.0180545.0270476-.0270476.039614.000171.0118483-.0053343.1024287-.0305012.0540952-.0175074-.1137983.0437686-.2057122.183828-.1969585,1.3305643.1006677,2.4773006,1.1292289,3.3918584,2.0133026,6.4019045,6.3575718,3.3749665,15.8817306.8974607,23.328695-.5772321,2.0296132-1.1275192,4.1114751-1.0636445,6.2402344.1142428,2.8571981,1.019021,5.6408103.7576407,8.4483071Z" fill="#423b30" stroke-width="0"/>
      </g>
    </g>
  </g>
</svg>