<?xml version="1.0" encoding="UTF-8"?>
<svg id="Layer_2" data-name="Layer 2" xmlns="http://www.w3.org/2000/svg" viewBox="0 0 149.073617 70.6084696">
  <g id="Layer_1-2" data-name="Layer 1">
    <g>
      <path d="m93.4201894,23.5142118c.2377009-.1928867.4427765-.3564442.6447971-.5236949,1.2627716-1.0453834,2.7549891-1.5139069,4.3467993-1.7380862,1.8025653-.2538562,3.4593133-.9558299,5.0974813-1.6996822.3403111-.1545215.6335098-.4226698.9303639-.6609493.6224957-.4996684,1.2374183-1.0090167,1.8475425-1.523763,1.6369721-1.3810491,3.5788528-1.9285452,5.6651292-2.0864384.2284007-.0172796.4570042-.0319265.6992544-.0487491-.0113667-.4834533-.0362543-.928871-.027795-1.3736433.0069402-.364733.1045742-.7131214.5037628-.8347652.4259199-.1297937.6926909.1365845.9136212.4480856.302378.426338.5934455.8607015.9149734,1.3289248,1.014199-1.8812833,2.6063721-2.5359025,4.6105127-1.9683744.3677542.1041382.7344322.223892,1.1100316.2820131.1296227.0200602.358012-.0873025.4171152-.2010074.6270927-1.2063845.620194-1.209969,1.7241748-1.9454286-1.4606443-.7953612-2.8284634-1.6927946-4.5084407-1.8394282-.5250199-.0458271-.9204813.2561937-1.2480801.62903-.3623513.412391-.6947686.850961-1.0531324,1.2670103-.8966755,1.0409924-2.0653014,1.4731995-3.409586,1.4704772-.1860767-.0003754-.3757966-.1169008-.5569469-.1955206-.270141-.1172359-.534152-.2485908-.8462003-.3953031-.0177747.1767693-.0173148.2876193-.0415574.392772-.0911034.3950468-.2847063.459449-.6587214.3072033-.3610848-.1469779-.7409374-.2891628-1.1241-.3334232-1.7011931-.1965288-3.4055671-.4209563-5.121917-.1895713-.609468.0821711-1.2182898.1870325-1.8171132.3258949-.7761548.1799855-1.5334322.4914627-2.0070764,1.1390141-1.9833377,2.7115547-4.8594091,4.0685509-7.8402629,5.2837335-.5073609.2068326-1.0107476.4234339-1.5766154.6609934.1640301.253943.380462.4771855.4625774.7420664.1267533.4088226.1615697.8461447.2353709,1.271386-.4017462.0142189-.8451413.1441661-1.196291.0178013-.6652906-.2394005-1.2923158-.6009394-1.9057899-.9618017-.3001007-.176536-.5498544-.198981-.8853456-.1266722-2.6081499.5621465-4.9020685,1.8454617-7.2504776,3.0336673-1.5539236.7862278-3.2294303,1.3283455-4.828235,2.0304781-3.1521511,1.3843009-6.3788595,2.6211825-9.2388142,4.5968858-1.4094708.9736849-2.7893168,1.9981593-4.3957768,2.6490202-1.4805406.5998317-2.9729667,1.1752916-4.4264131,1.8357091-1.5677554.7123483-2.9175086,1.7153735-3.8680698,3.2027103-1.3572986,2.1237459-3.3400263,3.5769936-5.4863254,4.7681613-2.0470335,1.1360783-4.1784831,2.1306609-6.3178332,3.0867318-2.0647136.9227105-4.1820423,1.7290311-6.2853927,2.5634918-1.6708076.6628628-3.0689988,1.644229-4.2578588,3.0273315-2.4425146,2.8415846-5.294009,5.2389809-8.4330785,7.289592-.2089497.1364879-.4160996.275775-.6222331.4164695-.024944.0170402-.0382928.051084-.1153362.1587801.3419159-.057447.6160491-.1348306.8925995-.1447707,1.5777145-.0566814,3.1560798-.1281445,4.7340206-.1235092.4416409.0012971.8970657.2082845,1.3193794.3849337.3526872.1475277.3224307.4115566-.0003906.5792759-.3221707.1673787-.6610953.3440335-1.0123816.4074025-3.2510604.586539-6.2997265,1.7949398-9.3506667,3.0004816-1.2695291.5016398-2.5408884.9988831-3.8159465,1.4862782-3.2781133,1.253075-6.6367301,1.2674995-10.0258675.5950634-.473447-.0939344-.9313099-.3442062-1.3530554-.5950084-.3059596-.1819573-.5169883-.5184056-.339616-.8993701.1838506-.394867.5577659-.3361382.9155949-.2875537.9214412.1251008,1.844163.2411095,2.7673417.3528156.1588561.0192229.3224259-.0005655.4839967-.0023324-.0344714-1.3655616.0686483-1.5511314,1.315269-2.4104651-.0204066-.0402713-.0407998-.0805402-.0612064-.1208115-.7584408.3919343-1.5319252.7578392-2.2702652,1.1845536-.530649.3066819-1.0532578.5700072-1.6846794.515603-.6669273-.0574658-1.1440937-.4209709-1.2996065-.9900769-.1475638-.5399966.0472919-1.1335043.5844883-1.4762811.3405725-.2173122.7554665-.4363267,1.1411055-.4438179,1.4473856-.0280982,2.701842-.6598166,4.0013191-1.1566732,1.181551-.45177,2.1395567-1.2294938,2.9266774-2.193359,2.4350395-2.9818712,5.3335055-5.4808056,8.2145405-8.0032697,1.2510874-1.0953756,2.421621-2.2826332,3.6698831-3.3814128.5960339-.5246616,1.2712898-.9662601,1.9407044-1.3989964.9579776-.6192647,1.8111444-1.3423821,2.5636396-2.2037221.9408977-1.0769953,1.967011-2.0808431,2.8853293-3.1758166.7557406-.9011265,1.4188657-1.8812774,2.1034191-2.8404067,1.0531834-1.4755974,2.064514-2.9816899,3.1415211-4.4394403.7693332-1.0413043,1.7880596-1.8191202,2.8827561-2.5108505,2.4417517-1.5429384,5.0477953-2.757786,7.6561813-3.9813472,2.1681879-1.0170651,4.22269-2.2879383,6.4219758-3.2246915,3.9200012-1.6696682,7.5579021-3.8474763,11.2714915-5.8979654,4.3057132-2.3774383,8.9023773-3.5862107,13.8582593-3.1697303,1.2910685.1084912,2.5815128.2244373,3.9344502.3423813-.0155888-.3984935-.0169469-.8232624-.0605813-1.2436441-.009574-.0922116-.1573141-.2199003-.2621619-.2451515-2.8639698-.689716-5.0395373-2.4909207-7.1462617-4.4058542-.2681957-.243781-.5434674-.4797645-.8528604-.7523006-1.0325541,2.6454957-3.2507489,3.7659606-5.6713749,4.5537178-1.3052153.424756-2.6784916.6514448-4.030878.9176176-2.0568863.4048369-4.1305928.7268006-6.1818908,1.1567768-2.294084.4808758-4.1669928,1.7875208-5.96983,3.2103376-1.4891873,1.1752746-2.9934475,2.3314854-4.4937013,3.4926821-2.0834443,1.6125795-4.45599,2.7142325-6.8071586,3.8558697-1.5700516.7623529-2.8644014,1.851375-3.9006644,3.2696343-1.2071644,1.6521554-2.5887517,3.1892965-3.6724232,4.915831-1.1539666,1.8385568-2.5817538,3.301112-4.381935,4.4900102-2.1093242,1.3930709-4.1212645,2.9328374-6.2140456,4.3520308-1.1251679.7630105-2.3333161,1.4032293-3.4985907,2.1078494-.1923833.1163353-.4175372.2435002-.5244123.4260492-.89827,1.5339959-2.0962251,2.8100154-3.4937534,3.8716785-2.0258521,1.5389847-4.1183034,2.9902655-6.180329,4.4817384-1.7444066,1.2617369-3.3924782,2.6265531-4.7735075,4.2976657-.4424721.5354117-.9825343.9920252-1.4932523,1.4682787-.1920952.1791385-.2462334.3320581-.2536616.6216423-.0442439,1.727128-.0416199,3.4736905-.9791686,5.0335886-.204008.3394351-.4505952.5987178-.865795.5589113-.4109954-.0394038-.6489442-.3285078-.7605928-.7022225-.2425909-.8119026-.131395-1.6255885.0992708-2.4119043.204492-.6971467.4965543-1.368622.7510959-2.0544718-.855473-.5532623-1.0097707-.9939823-.6401005-2.0088605.4434992-1.2174883,1.1565569-2.2708534,2.2064339-3.0257684,1.9581878-1.4080328,3.9278728-2.8050639,5.9523849-4.114535,2.4077254-1.5573459,4.5314247-3.4414354,6.5397745-5.4610769.5769535-.580189,1.0512658-1.2953144,1.4442047-2.0183714.6988438-1.2859151,1.3170534-2.6169762,1.9376941-3.943802,1.1393833-2.4357634,1.7409525-5.0233672,2.1262747-7.6712647.0616179-.4234058.1732438-.8479061.326374-1.2471107.1362971-.3553044.4537051-.5413899.8441502-.4809035.3996281.0619057.5439377.3524209.6283866.7330498.6253293,2.8184317.0537762,5.523299-.7457552,8.2094403-.054861.1843529-.1115262.3681738-.170819.5636727.0841592.00479.125864.020595.1443959.0063169,2.2388493-1.7262693,4.497093-3.4284976,6.7003973-5.1990962.6623307-.5322506,1.2670927-1.1928394,1.7303397-1.9039964.8950488-1.374023,1.8734212-2.6658138,3.0134855-3.8434595.7290532-.7531117,1.442066-1.5250327,2.1170381-2.3266027,1.6393736-1.9468527,3.5768934-3.4611162,5.9824561-4.361251,3.5189392-1.3167442,6.5727352-3.415857,9.4957961-5.726986,1.4629516-1.1566865,2.9211273-2.3258042,4.6283735-3.1138954.6473571-.2988258,1.3223857-.5502581,2.0044178-.7592567,2.7304073-.8366534,5.5347457-1.2942571,8.3644289-1.6480492,1.8833191-.2354685,3.6596266-.8506328,5.2712137-1.8858627.6870243-.4413141,1.2172478-1.0212995,1.6049308-1.7435665.1522734-.2836892.0990464-.4383881-.1586591-.6107573-1.3738303-.9189211-2.8914263-1.4253306-4.5273925-1.5690138-.3002737-.0263695-.6284544.0672226-.9195758.1723646-.7981869.2882821-1.5860327.605934-2.3733733.9233572-1.5420664.6217006-3.1175569.6078255-4.7134299.2688704-1.1544581-.2452021-2.3101555-.4845931-3.4638972-.7331127-.1939992-.0417943-.3991146-.0860295-.5659641-.1849972-.1730646-.1026356-.4448912-.2962862-.4261424-.408978.0346282-.2081324.211053-.4803917.3979208-.5575029.4080902-.1683981.8542519-.2747322,1.294464-.33024,3.2895343-.4148335,6.5518997-.9463702,9.7306198-1.9324015,1.2701429-.3939892,2.547385-.1702942,3.7700395.2892686,2.5158553.9456324,4.4847499,2.6523534,6.4436858,4.4443475,1.6343499,1.4950843,3.5297032,2.7052742,5.3149028,4.0343291.1557356.1159374.351993.1774356.5402762.2695253.062505-.0677793.1233332-.1069852.1457203-.1618608.8935298-2.1900104,2.6102126-3.3850577,4.8497416-3.7993299,1.3982207-.2586525,2.8398149-.2829176,4.2620715-.4109862.0491018-.0044252.1048979-.0069715.1485454.0112487,1.2664178.5284231,2.2648121-.1692383,3.267647-.746302,1.7868317-1.0281924,3.7267901-1.4002285,5.7523726-1.4033315,1.4054845-.0021549,2.6737559.4977135,3.7003018,1.4228151,1.4440794,1.3013716,2.8436622,2.6596141,4.1762933,4.0745185.8816891.9361329,1.976522,1.5102949,3.0440306,2.1475017.1143694.0682706.3408093-.0114173.5006741-.065548,1.1484243-.3888372,2.0377613-1.1488025,2.8808783-1.9900955,1.3023749-1.2995471,2.8470739-1.5068324,4.5135213-.8537141.6608304.2589971,1.3234421.5733514,1.8954991.9867092,1.2748668.9211929,2.4932092,1.9206166,3.7612014,2.9089059-.0004086.0005625.070073-.0840599.127245-.1768747,1.1271358-1.8298513,3.3937459-2.535056,5.3123828-1.5601864,1.3462243.6840171,2.4875659,1.6665068,3.4075031,2.8742532.2458635.322781.3906006.7225749.5937874,1.1099461.6112158-.5241519,1.4061237-.7959084,1.9072948-1.5515556.5983329-.9021505,1.4725673-1.0907347,2.4712688-.6626529.7924533.3396706,1.5514688.7637176,2.3044597,1.1874058.8684374.4886322,1.6869643,1.0740348,2.5813681,1.5049027.4167281.2007608.9640714.1982688,1.4471423.1763232.6110773-.0277545,1.2146359-.1917267,1.8257539-.2557256.7021238-.0735225,1.1853895.309585,1.3278498.9976192.1660988.8022038-.3199292,1.7919731-1.0476752,2.0700458.2543773,1.828675-.3484218,3.4592129-1.2605178,5.0121752-.7182251,1.2228891-1.8231365,1.9155361-3.152298,2.2790624-.6982805.1909794-1.386242.1100356-2.0277606-.2579504-.1113948-.0639004-.250596-.1527797-.3602679-.1337825-.5355226.0927652-.977911-.0900627-1.4048008-.3841345-.0914007-.0629607-.255411-.0867486-.3612328-.0523863-1.1852239.3847914-2.365703.7842003-3.5469779,1.1811099-.062281.0209257-.1202589.0546671-.1799735.0823155.4057998.9712614,1.9567409,1.6560711,3.0884695,1.3764565.5157033-.1274173,1.0296962-.2996307,1.5538972-.3469095,1.0884189-.0981644,1.8882444.4641392,1.982784,1.315381.0951776.8570367-.5462828,1.6062012-1.605012,1.766156-.4489223.0678276-.9242084-.0070714-1.3839293-.053007-.3396276-.0339359-.6734476-.1259823-1.0610286-.2022013.059647.3867037.1387804.6920185.1485411.9995213.0389448,1.2271705-.3772949,2.3042735-1.2288142,3.1726255-1.9085625,1.9462405-4.1941013,3.1397563-6.9500698,3.3373157-.2122115.0152255-.4242509.0328896-.6861819.0532903.0715276.2117659.1305675.3791676.1847339.5481438.3677919,1.1473506.1246984,2.1482386-.7794913,2.9440602-.4852624.4271047-1.0222337.7985017-1.5537559,1.1694145-1.5049689,1.0501745-2.7709527,2.3216267-3.7776705,3.8652774-1.3603499,2.0858694-3.1562308,3.7750292-5.0647423,5.3434153-1.0829293.8899424-2.4279047,1.0330612-3.7627925,1.1485066-.4447131.038452-.8928105.0378542-1.4013709.0575104.0122722.1862847.0232354.3440533.0329726.5018845.1029079,1.6675588-1.0810715,3.0557943-2.7453031,3.2278438-.495145.0511837-.9922652.0999934-1.4813088.1891745-.5796037.1056725-.9525371.4594371-1.062048,1.0508602-.0997915.5389479-.2278335,1.0779283-.264492,1.6222056-.0756535,1.1232539-.4522683,2.1051204-1.2019462,2.9471422-.1876285.2107595-.369361.4326869-.5171202.6721094-1.917,3.1062702-4.7357497,5.2955837-7.6288124,7.3773914-1.5330355,1.1031571-3.3530404,1.5291471-5.2515166,1.4817472-1.1304986-.0282294-2.2595313-.1145579-3.3892895-.1736988-1.9651405-.102845-3.9234252-.0971976-5.8702645.261867-2.519363.4646573-4.897807-.1945588-7.2317482-1.0203228-1.0307019-.3646622-2.0395698-.8302068-2.9919823-1.3675702-1.3442502-.7584116-2.7595007-1.2287979-4.2808218-1.4214938-.4971584-.0629747-.9914248-.1413221-1.334143-.582203-.0592398-.0762165-.2019431-.1009996-.3114191-.1227858-3.4175178-.6799642-6.6847974-1.7561828-9.7267079-3.5002928-2.6976144-1.5467129-5.5386568-2.8366572-8.5883885-3.4509911-2.9637933-.5970266-5.9830148-.9311107-8.9861061-1.3167056-2.2387974-.2874603-4.4079378.1987122-6.546242.8133686-.2981338.0857021-.5693303.2679697-.8496577.412037-.4759111.2445957-.7855152.0659713-.7723146-.4785805.0168809-.6967037.3827867-1.2408089.9782119-1.521137,1.0488433-.4937897,2.1206692-.9620179,3.224367-1.3088918.9304717-.2924338,1.9229525-.3834949,2.8807086-.5963801.2124474-.0472226.4011319-.22222.5885942-.3554833.2137662-.1519664.3900914-.399022.6242047-.4725565.9637449-.3027105,1.9472071-.5420288,2.9147694-.8334272.3359099-.1011722.7313783-.2064993.9547225-.445406,1.1167444-1.1945847,2.4782739-1.9417952,4.0322696-2.3793845,2.0036585-.5642139,3.6560794-1.8141252,5.4449441-2.7965929,1.8070486-.992462,3.6033734-2.0044013,5.4072825-3.0026267.1588487-.0879112.3333586-.1696939.5099258-.200027,2.3074752-.3963825,4.1990038-1.720162,6.2106556-2.7752055.4272992-.2241002.8357021-.4861029,1.270317-.694082,1.2663371-.6059803,2.3185338-1.478332,3.2777215-2.4932488,2.0049766-2.1214477,4.2704612-3.9106641,6.8920401-5.219399.5945228-.2967933,1.2177705-.5374587,1.8334137-.7902832,2.4004784-.985799,4.8141939-1.9402919,7.2018396-2.9561303,2.1276345-.9052083,3.7468624-2.4470605,5.0869339-4.2975455.0830258-.114644.0818095-.3397176.0364835-.4879481-.1066413-.3487628-.2975963-.6731098-.3908194-1.0242235-.0925879-.3487202-.1813235-.728522-.132515-1.0750852.0380039-.269856.2443696-.6544957.4592894-.7217684.2123225-.0664644.5596758.1609934.7908526.3351125.1893551.142612.2902384.3999132.4391246.5998245.1466089.1968439.3042752.3854561.4804652.6070829Zm-7.1047949-4.455006c-.0434288-.0576518-.0720882-.1186673-.1195612-.1553384-1.1964725-.9243523-2.0784552-2.0955377-2.7562072-3.4390182-.0745205-.1477091-.3279917-.2745776-.5075717-.287826-.7793008-.0575111-1.5617548-.0803597-2.3434585-.0957635-2.8953551-.057036-5.7642748-.0655531-8.618921.7017802-2.9520985.7935304-5.6224988,2.1258557-8.2345195,3.6363805-2.47617,1.4319626-4.8931149,2.964629-7.5497069,4.0722962-2.0405045.8508039-4.0463406,1.7888217-6.0429179,2.7398469-2.2071982,1.0513575-4.385606,2.1630643-6.5777643,3.2460572-3.296739,1.6286969-5.9302163,3.954846-7.7055572,7.2173382-1.6391038,3.0121577-4.0656322,5.3330013-6.7244481,7.4220673-2.2372482,1.7578367-4.4443156,3.5422444-6.5633171,5.4478015-3.0206536,2.7164189-6.0964588,5.3631196-8.6517419,8.549224-.7580343.9451699-1.7458815,1.637883-2.8232255,2.1875991-.6169961.3148265-1.2539899.590444-1.8694193.8778525,1.2104676-.197618,2.4271576-.3784177,3.6368191-.5979623,1.7934874-.3254987,3.5125249-.8188746,5.0662136-1.8577739,1.2969702-.8672364,2.6873579-1.5985067,4.0569597-2.3526157,3.1124922-1.7137654,5.797587-3.9481763,8.0761407-6.6601777,1.0446421-1.2433726,2.2719875-2.1926644,3.7819253-2.763718.8234421-.3114236,1.6713832-.5587241,2.5105006-.8279748.7761531-.2490414,1.5851781-.4204169,2.3275911-.7452101,2.4080329-1.0534856,4.8178667-2.1090409,7.178369-3.2632672,2.485048-1.2151415,4.5296417-2.9956803,5.9716177-5.3698615,1.2329643-2.0300552,2.9136569-3.5371627,4.9795727-4.6324019,3.0446515-1.6141074,6.1053353-3.1963522,8.8038435-5.3754502.1160687-.0937377.2469088-.1694987.3725597-.2510208,4.0236184-2.6105662,8.3075006-4.5572908,13.1150765-5.1984619,1.0354529-.1381029,2.0879498-.2770598,3.0792249-.5865515,1.3615052-.4250901,2.672285-1.0127565,4.0038878-1.5330976.0412041-.016106.0722808-.0581207.1280352-.1047522Zm-19.3420196,44.0606969c.1902251.1311123.3343315.2304558.4784547.329769.4379585.3017697.8976734.5772775,1.3055151.9153824.2362961.1959028.4302398.2375926.7170469.158467,1.2235801-.3375681,2.3407801-.1118247,3.3306617.6928453.2323753.1888863.4765377.3701107.6772233.5896298.3847648.4208623.8473652.505562,1.3969549.4898709,1.0281196-.0293536,2.061888-.0402949,3.0864109.0349225,1.0109363.0742209,1.9876698.0365214,2.9535955-.2932832,2.4880378-.8495225,4.9873464-1.6663513,7.4700577-2.530977,1.3463482-.4688728,2.5001714-1.2642729,3.3910976-2.3810696.902048-1.1307536,1.7818263-2.2831995,2.6025291-3.4736075.6140949-.8907128,1.2647854-1.7420023,2.2151264-2.2608534,1.3706516-.7483062,2.73582-1.5626295,4.1998129-2.0708454,2.1939743-.7616206,3.7272406-2.0312934,4.4057778-4.2980454.1826343-.610108.534929-1.1814566.8796458-1.7261115.1803173-.2849188.1659289-.4505582.0352508-.7484815-.5666537-1.2918977-1.0980673-2.6002206-1.5974907-3.9195472-.0741889-.1959903.0169683-.5650399.1687393-.7012159.1218998-.1093954.5007718-.0652652.6787645.0476503.4027371.255487.7593464.5869408,1.1213439.9028079,1.1652332,1.0167257,2.3261663,2.0384022,3.4846047,3.062844.2655023.2347972.5361654.2690511.8731336.153189.5504979-.1892582,1.1080973-.3734736,1.6769599-.4904743,1.2369702-.2544392,2.1365698-.9161905,2.7684152-2.0142869.6951722-1.2081605,1.7790358-1.9542044,3.0932313-2.3840586.4429031-.1448616.8768102-.3170318,1.3184774-.4659032.9655686-.3254865,1.7838882-.8721212,2.5085081-1.5857567,1.2459096-1.2270272,2.1989162-2.6183008,2.6328093-4.3405466.0699116-.2774907.032999-.4356764-.113838-.6689535-.494579-.785732-.9713719-1.5858627-1.3966534-2.4105649-.1897653-.3679822-.159434-.7935243.2555551-1.0605294.3584312-.2306148.7468174-.1280827,1.0956118.2793977.1799047.210174.3452598.4328016.5164855.6489071.5594433-.4978165,1.0542503-.9915648,1.6039658-1.4138234.6939914-.5330789,1.3022127-1.1155316,1.751628-1.883404.4251035-.7263353,1.1081944-1.1411718,1.9587331-1.2276179.6286544-.0638971,1.2617132-.0865449,1.8892495-.1585992.3437572-.0394697.6977505-.0994702,1.0160521-.2274851.6101546-.2453656.731423-.7010097.3999568-1.2476472-.180899-.2983225-.3865579-.5962635-.4908663-.923154-.1805522-.5658063-.3463651-1.1477011-.4131875-1.7348145-.0530906-.4664669.2629891-.6331886.6808951-.4032898.2711521.149177.5029341.3699225.6817074.5051593,1.0870471-.4993858,2.1474068-.9865085,3.2511322-1.4935553-.4702209-.3431001-.9692746-.7072322-1.5047622-1.0979487-.8018861,1.0163969-1.9283549,1.3946949-3.0622073,1.7278951-.6852359.2013558-1.0171191-.0330898-1.253768-.6930081-.0425338-.1186136-.1622639-.2266446-.2723561-.3011415-.6858346-.4641085-1.4120499-.8753866-2.0606551-1.3857838-.6584061-.5181126-1.5959201-.3913226-1.9341626.382814-.2051316.4694687-.3303358.9760106-.4680065,1.4724024-.3960152,1.4278543-1.0190307,1.9386418-2.4921302,2.0895332-.819018.0838935-1.6320359.2264056-2.444764.3420783.1365207.9302151.2636703,1.7824296.3856995,2.6353759.0453775.3172037.0864492.5810436.5009265.6796101.162186.0385725.3025033.4046689.3450428.6409796.0383899.2132817-.0943542.4516054-.1080577.6814764-.0179835.3016697-.0535317.622784.0256954.9054866.1637082.5841539.1197533.6848195-.4785225.801421-.2990063.0582785-.6092518.1258061-.8775738.2618247-.7520768.3812578-1.4504266.8950307-2.2340329,1.1809749-1.026872.3747259-2.1114033.5963711-3.1777671.8567135-1.439935.3515481-2.5239011,1.0528578-3.0997792,2.5280071-.2990791.7661301-.8384069,1.4898069-1.4224744,2.0813273-.8849571.8962657-1.8481584,1.739407-2.8779543,2.4630348-1.677101,1.1784901-3.5087025,1.7955223-5.5674413.9459383.537811,3.6381557-1.0593334,6.3590388-3.7152393,8.6399663-1.5913324,1.36665-3.4622485,2.2385369-5.3479163,3.0733539-3.4314293,1.519178-6.7186627,3.294436-9.8629738,5.3406406-2.2335463,1.4535244-4.693893,2.3728738-7.2886157,2.8990749-1.824891.3700708-3.6842936.5665095-5.5183656.8957919-1.6414751.2947197-3.206314.8409498-4.7469232,1.6798214Zm26.2860166-35.4264875c-.1143133.1461189-.1889761.2307699-.2517927.3234588-.7539673,1.112455-1.691702,2.0402725-2.7403993,2.8812003-2.2838737,1.831402-4.9564273,2.9286096-7.6253854,3.9901381-3.0746654,1.2228897-5.9503955,2.713679-8.4569813,4.9095462-1.3211653,1.1574041-2.5858689,2.4351701-4.2267636,3.1542743-2.0403486.8941643-4.0925475,1.7730556-6.1855886,2.5317522-1.8415191.6675272-3.7655085,1.0852757-5.497881,2.0701501-3.3828573,1.9231828-6.73822,3.9079847-10.4940979,5.0711161-1.1942504.3698442-2.0400902,1.3010398-3.079487,2.0855637.2057684.0389428.3141291.0691639.424278.0788345,1.3097589.1150194,2.6182393.2512544,3.9300681.3344065,2.2958976.1455289,4.5167608.5951162,6.6423319,1.4942949.1722632.0728682.4198091.0592558.6038681-.0010976,2.3995454-.7869228,4.7918413-1.5959717,7.1910026-2.3840911.6629384-.2177779,1.3730749-.3142794,2.0084966-.5890995,1.7075085-.7385027,3.3633326-1.5993076,5.0832041-2.3055975,1.6235887-.6667645,3.0444302-1.5861199,4.3843191-2.7175878,1.3803412-1.1656251,2.8800169-2.1963176,4.371709-3.2216923,1.2050835-.8283793,2.5033514-1.5208519,3.7117586-2.3447842,2.3849602-1.6261408,4.9136999-2.898917,7.7211708-3.6509056,1.3240505-.3546468,2.5984853-.9334396,3.8497516-1.5097722,1.2106361-.5576059,2.2357953-1.3766759,2.8562767-2.6134708.1655357-.3299717.1563854-.5997745-.0535728-.9229737-.9335179-1.4370201-1.8447256-2.8886429-2.754632-4.3408579-.4673541-.7458964-.9150291-1.5041239-1.4116535-2.3228055Zm6.1100107,9.2707323c-.0404526.0444279-.0925418.0871176-.1265867.141169-.9010908,1.4305002-2.1129123,2.547953-3.6262842,3.2646128-1.5299505.7245013-3.1160825,1.3359738-4.6985491,1.9422984-1.3656528.5232569-2.8382022.818507-4.1278647,1.4792789-3.4978471,1.792167-6.7759644,3.9449643-9.8571498,6.3997562-1.086575.8656822-2.2208706,1.7344634-3.4641134,2.3279819-2.9854152,1.4252391-6.0205881,2.7575546-9.1917407,3.7388264-1.6720945.517416-3.112655,1.4727782-4.7208138,2.4402769,1.0651062.5813373,2.0337941,1.116901,3.0124606,1.6335445.0969718.0511995.2680792.018713.3825386-.0286591,1.3237858-.5477875,2.7219161-.7251698,4.1294893-.9073017,2.7034052-.3498097,5.3946838-.7935238,8.0984145-1.1405839,2.28557-.2933975,4.4723284-.8813786,6.5082951-1.966217,2.3042989-1.2278233,4.5849802-2.4999532,6.8891872-3.7279404,2.6275369-1.400335,5.3096591-2.7031249,7.8948516-4.1767422,2.8874301-1.6458954,4.5615253-4.1060154,4.5741108-7.5513708.0024298-.6658133.1883978-1.3309424.2878455-1.9842015-.6212053-.596106-1.2875178-1.2354961-1.9640908-1.8847283Zm-.8525477-5.3113121c.111988.1733788.2140716.3224095.3071148.4768795.9343242,1.5511532,1.9332296,3.068439,2.7751946,4.6682725.490631.9322612.984062,1.8458248,1.5916678,2.6334.2314698-.1991779.4369754-.4625629.706752-.5921911.8674028-.4167882,1.7514064-.8015482,2.6419497-1.1671633,2.0191424-.8289724,3.7639021-1.9716908,4.7279063-4.0320427.4452907-.9517083,1.0954681-1.7483862,2.0566517-2.1606089,1.2011206-.5151365,2.4466884-.9358261,3.694281-1.3301999.8541565-.2700137,1.7462297-.4186566,2.6175347-.6368053.2334471-.0584439.4528985-.1727877.7315875-.2822115-1.1709358-1.5233167-2.3566366-2.958193-2.8744535-4.821002-.3939224.2037452-.6974236.3709297-1.0094036.5204187-1.817978.871113-3.7875468,1.248488-5.7224333,1.7311891-1.8727597.4671901-3.5613254,1.2746157-5.0333547,2.5307931-.2384699.2035066-.5031677.3857038-.7792237.534071-1.1492513.6176883-2.4006492.8845965-3.6863214.982095-.9811457.0743956-1.9016563.2828378-2.7454499.9451059Zm-20.0399635,36.3923306c1.7446245.3356842,3.4733621.8247274,5.2948605.5661891,1.8752277-.2661681,3.7379433-.5969552,5.6550022-.5151296,1.590265.0678804,3.1895776-.0008175,4.7817298-.075925,1.334419-.0629414,2.5181767-.5262422,3.4929178-1.5024803.5379802-.5388106,1.1576856-1.0001254,1.7639684-1.4658865,1.7378228-1.3350275,3.2528852-2.8376136,4.4966767-4.6876757,1.383963-2.0585225,1.3799911-1.6876084,1.3238113-4.1992761-.0390552-1.7462397.7500225-2.992159,2.3481202-3.7182019.2724474-.1237736.5415888-.2579027.8000597-.4082301.1550103-.0901654.3215276-.1961382.4219619-.3380972.3424932-.4841277.6579807-.9873595,1.0034433-1.5132378-.5957504-.444966-1.2016066-.8974831-1.8058162-1.3487625-.0462253.0535496-.0790793.0750864-.0873997.1037341-.1252789.4311974-.244545.8641343-.3705868,1.295108-.7792806,2.6646376-2.3582672,4.6250597-4.9826359,5.6714329-1.3909185.5545709-2.770178,1.1388541-4.1664338,1.679404-1.0829372.419251-1.9640614,1.0453044-2.6628593,2.0035767-1.2412001,1.7020464-2.7005742,3.2021744-4.4751107,4.3726364-1.2413432.8187818-2.6387286,1.2667537-4.0367964,1.6945215-2.9015742.887832-5.7405549,2.0192892-8.7949129,2.3862999Zm18.9486529-38.0340495c1.6123024-.9285671,1.6534031-.950737,2.5621066-.9627631,1.9065951-.0252488,3.6305825-.5542956,5.1218613-1.7830259.3436685-.2831635.736023-.5168797,1.1307282-.7268181,2.0091904-1.0686901,4.1432227-1.7892918,6.3393344-2.382771,1.3234553-.3576485,2.5815201-.958234,3.8670577-1.4546076.3558853-.1374118.435601-.3811562.233176-.7092445-.8108365-1.3142083-1.6139277-2.6333734-2.4454326-3.9343805-.0832641-.1302697-.339066-.2100625-.5157844-.2117923-2.4244438-.0236679-4.6940037.3744065-6.5292856,2.1836656-.9329855.9197663-2.0898328,1.5769694-3.3586062,1.905283-1.8009945.4660431-3.6232604.8703876-5.4563785,1.1848389-1.2830796.2200906-2.3811403.6671828-3.2730273,1.6338872-.3637424.3942581-.4572407.7235627-.1025442,1.1586942.165833.2034399.2655439.4600011.4012218.6889327.668849,1.1285265,1.339697,2.2558654,2.0255728,3.4101016Zm-10.3146613-17.3907457c.5605992-.6116284,1.2672462-.8605125,2.027271-.912123,1.3430598-.0912057,2.6906459-.1144354,4.0345391-.1957575.4256199-.0257635.8747408-.0750054,1.2631102-.2349262,1.934839-.7967074,3.7439483-1.7976492,5.2560269-3.2870895.9293734-.9154653,2.0896084-1.3360479,3.3946859-1.354728.2399012-.0034352.4795828-.0222254.8518009-.0403904-.8818782-.7175211-1.7241154-1.2531116-2.7531254-1.1638005-1.0699036.0928605-2.1428057.2779186-3.1836112.5433616-1.0285079.2623117-2.0763193.5427302-3.0978141.3206339-.8169047-.1776139-1.4787347-.0410325-2.2074066.24337-.8975799.3503273-1.8508688.5591467-2.7448998.9170043-.8280806.3314463-1.682749.6782881-2.3962661,1.1965618-1.3517171.9818142-1.4926301,2.5511537-.4443108,3.9678836Zm40.6827427,5.1025558c-.6311743-1.2862443-.9645456-2.5505906-.5942054-3.9500277-.6044646-.0432271-1.1380065-.0645822-1.666266-.1291502-.1636898-.0200022-.3448285-.1259078-.4638052-.2461157-.8035067-.8118457-1.8324952-.6396591-2.2640287.3914981-.0192529.0460029-.0379328.092297-.0587882.1375763-.3489992.7577284-.8917692,1.0754061-1.7220176.9538674-.4916819-.071979-.9735131-.2098395-1.4610528-.3119746-.3400474-.0712404-.6802326-.1696027-1.0240162-.1881686-.4298956-.0232165-1.184654.4032125-1.1401746.6548124.080561.4557039-.251795.478616-.4941312.6096139-.2085615.1127431-.4282928.2048177-.6845971.3255984,1.8080658,1.7719279,3.6037329,3.4549367,4.7970069,5.6268679q1.2721867-.4321141,2.776382-.2668639c1.0884434.1195731,1.206611.0496417,1.5386153-.9852819.3967003-1.2365745.9619854-2.3153069,2.4610788-2.6222518Zm-19.5177789-7.0076223c-.5324309-.4884852-.9598961-.8949479-1.4061621-1.2795898-.1052734-.0907251-.2700351-.1311362-.4140138-.1550617-.7047433-.1171535-1.4083003-.2645985-2.1186272-.3200245-1.3530013-.1055666-2.5685766.1821359-3.4840197,1.3097238-1.6965179,2.0896856-3.9799885,3.140104-6.5846789,3.4793412-2.0206859.2631798-4.061741.3699339-6.0934943.5489513-.025069.0022101-.0469455.0406118-.1007739.0901713.0677582.1343352.1381731.2792835.2132154.4217953.3951078.7503628.8041299,1.4937244,1.1840472,2.2516797.4915687.9806958.4794393.9798873,1.4904958.5810502,2.8424694-1.1212816,5.4811574-2.5278123,7.5304416-4.8970781,1.0138413-1.1721559,2.3883676-1.8371585,3.9249854-2.1219351,1.651175-.3059992,3.3047074-.3162114,4.9604936-.0344853.2551778.043417.5128578.0721327.8980909.1254618Zm17.8207059,25.7671848c-.0412883.090703-.077694.1476207-.093984.2098165-.4279988,1.6338825-1.3061236,3.0299569-2.4092867,4.2665964-.5192659.5820977-1.185994,1.0781497-1.8735975,1.4518126-.6922153.3761646-1.4766947.625805-2.2502649.7992539-1.2797838.2869942-2.2250412.9320905-2.9035482,2.0707484-.6723022,1.1282432-1.7485029,1.7498653-3.0224348,2.0338722-.1833621.0408803-.3619869.1030136-.5428035.1553072.008901.0427609.0178078.0855202.0267054.1282694,1.2867074.156865,2.5889471.3331305,3.7028915-.6153698.6324767-.5385527,1.2174773-1.1352307,1.8012997-1.7279498.7431332-.7544479,1.6025736-1.2813381,2.639233-1.5348227.3474658-.0849634.7072109-.2270271.9936112-.4358706,1.2609929-.9195022,2.4963891-1.8740549,3.7427844-2.8136216.7555613-.5695667,1.2522627-1.2423724.9616331-2.2607101-.0492546-.1725803-.0439331-.363547-.0461106-.5462257-.0061283-.5131774-.2500367-.8797896-.726128-1.1811063Zm12.4424474-16.7626914c.2064685-.3425271.3219289-.7310849.5822852-.9298191.8498292-.6486966,1.7767676-1.1452214,2.8734729-1.3019022.8020652-.1145821,1.5919799-.3339608,2.3759631-.5481581.4974953-.1359322.8722645-.4464922,1.0194324-1.0803604-.5069042.0597707-.9767515.0554211-1.4098005.1795006-.7478424.2142696-1.5125178.2739156-2.2089201-.0043233-.8388944-.3351706-1.6969331-.7336453-2.3864735-1.299832-.6775665-.5563576-1.1793264-.5819848-1.89894-.1515582-.9818878.5873129-1.1942952,1.1473916-.646387,2.1801074.0466715.08797.1034483.1705292.1529579.2570753.4283291.7487848.8558593,1.4980227,1.2841291,2.2468437.0971566.1698669.1962558.338626.2622804.4524263Zm-10.9030578,13.4220795c.0053972.0445614.0107915.0891236.0161887.133685.203043.0447076.4091232.1382392.6086029.1258071.9559295-.0595365,1.9278869-.059,2.8607426-.2462438,1.4622313-.2934721,2.4382135-1.1860638,2.8724694-2.6642825.3286378-1.1186979.7468113-2.2110742,1.8569586-2.8944951-.1726411-.0462891-.3406138-.0453241-.4344827.0385655-.2584992.2309892-.466267.5197273-.7291803.7446172-1.0263363.8779044-2.2342526,1.2175059-3.5666271,1.1233855-.4216472-.0297914-.6943284.0936563-.8487963.5069905-.5041327,1.3490793-1.2877727,2.4749654-2.6358758,3.1319707Zm5.982239-19.3576545c-.9037963-.4303669-1.6835233-.7860516-2.4491174-1.1699194-1.1112801-.557186-2.0438171-.1361856-2.895633.4373704.5724024.8224107,1.1318419,1.6261947,1.6178123,2.3244252,1.0525912-.3630766,2.0215717-.6815835,2.9763662-1.0380793.2290357-.0855168.4109211-.2973132.7505719-.553797Zm-2.590787,3.4740647c.5079227.9679299.9632499,1.8356255,1.3968075,2.6618379.6983269-.3588954,1.3534917-.6956152,1.8996155-.9762909.0282681-.323065.0516244-.5984095.076883-.8735742.0074373-.0810527.0386447-.1642191.0276569-.2419934-.089562-.6335528-.186561-1.2660655-.2896709-1.9548479-.775634.9164585-1.8074043,1.3002563-3.111292,1.3848684Zm8.2149074,3.4197175c.380243.2045078.7696158.3939655,1.1382361.6176341.3906613.2370418.7420543.6679935,1.1465905.716965.4116762.0498456.8591139-.3620226,1.3049938-.3982729,1.5787138-.1283502,1.9283658-1.3962977,2.5371332-2.5441824-2.0604119.6022222-3.9065267,1.7062505-6.1269535,1.6078561Z" stroke-width="0"/>
      <path d="m52.3230289,5.9625059c-1.590383.2272704-3.1722905.4381501-4.74861.684681-.8536555.1335142-1.7100619.2820554-2.5434194.5052446-1.3243653.3546998-2.3513234,1.1528222-3.0697228,2.3216032-.2693121.4381628-.5169015.8971796-.7117201,1.3723811-1.1510538,2.8076916-3.261241,4.6917518-5.8544472,6.108666-1.1239664.6141398-2.255115,1.2181947-3.4070674,1.7772688-1.3924095.6757732-2.5336028,1.6359119-3.494577,2.8377326-1.1528347,1.4417783-2.3513805,2.8477535-3.4771868,4.3099876-.4504983.5851374-.7598906,1.2789095-1.1333914,1.9233084-.1612334.2781682-.2307592.6722114-.6633981.6447991-.454245-.0287682-.7663293-.3244821-.8326484-.7411914-.0766276-.4814134-.1237374-1.0051395-.0165724-1.4721487.7538972-3.2852287,2.3276668-6.1078083,4.8703276-8.355229,1.2273185-1.0848071,2.7328759-1.7019984,4.1666175-2.4370027.7845793-.4022105,1.5869134-.7698511,2.3701697-1.1745291,2.0247086-1.0461116,3.6225437-2.5086895,4.563664-4.634406.5961142-1.346488,1.3496434-2.586684,2.4777298-3.5842414,1.6829665-1.4882269,3.706728-1.9484271,5.8601164-2.0520265.5803555-.0279213,1.1668228-.0291345,1.7451721.0199824,1.7003045.1443793,3.3892039.0815044,5.0729402-.1859613.1795783-.0285252.3645724-.0394657.5463505-.0341782.3396388.0098749.6896382.0352062.8001328.444789.1033211.383023-.1520738.614968-.4346608.7570165-.6800841.3418509-1.3813834.641468-2.0857986.9634541Z" stroke-width="0"/>
    </g>
  </g>
</svg>