<?xml version="1.0" encoding="UTF-8"?>
<svg id="Layer_2" data-name="Layer 2" xmlns="http://www.w3.org/2000/svg" viewBox="0 0 281.877236 256.6353106">
  <g id="Layer_1-2" data-name="Layer 1">
    <g>
      <path d="m124.499174,125.8866516c-.1843033-.2780411-.2791707-.4425411-.3941283-.5915163-4.8627199-6.301853-5.68345-13.3143754-3.5748683-20.7987717.2592335-.9201348.1042563-1.4798653-.6205012-1.9571588-1.0318744-.6795622-2.0706857-1.2312315-3.3103522-.3735147-.1958255.1355018-.7621307.0505936-.9107283-.1324562-.2394987-.2950269-.4925115-.892591-.3508205-1.120031.320935-.5151499.8084375-1.0741428,1.3536344-1.2751618,1.8722093-.6903401,3.6568865-.3590862,5.3422947.9078616.1808798-.3203647.3453211-.6031467.5018636-.8902371,1.3197298-2.4203753,2.9870683-4.5620544,5.304916-6.0846229.8345691-.5482232,1.8532135-.8723538,2.8330216-1.1200522.5012898-.1267314,1.168748.0180026,1.6365183.2706882.3537064.191039.7046788.7505035.6990371,1.1408357-.0056072.3878697-.3735148.9783279-.7276417,1.1217637-4.3633711,1.7674377-6.2337113,5.5263789-7.6589058,9.5895549-1.4095134,4.0184946-1.4683732,8.1435651-.3250771,12.227446,1.1151451,3.9833351,3.4569044,7.1214149,7.0387191,9.2659688.3020576.1808527.6963345.265886,1.0541591.2869635,13.7456199.8100562,27.5018187,1.1110877,41.2680865.7534897,11.2161522-.2913394,22.406059-1.013353,33.556204-2.2771741,3.6943943-.4187484,7.3749534-.959258,11.0615896-1.4461432.1303519-.0172463.2578057-.0563472.41053-.0906358-.8921388-1.2114566-.7810026-1.8290187.5386007-2.534117.9046233-.4833494,1.8475907-.9342962,2.823926-1.2366316,2.8133279-.8711939,5.2244672-2.4271719,7.5257613-4.2006,4.7638546-3.6711882,8.4443115-8.2918213,11.512201-13.3991401,2.7265004-4.5389731,3.747002-9.525717,3.2078708-14.7944431-.2128248-2.0796881.129732-4.0144712.8662629-5.9561049.7068428-1.8632754,1.3737058-3.7702172,1.7681574-5.7167248.5695642-2.8105683-.3595972-5.3037059-2.1887485-7.478056-.881197-1.0474694-1.9911853-1.5013804-3.3482985-1.3435999-2.4786071.2881826-4.8103838,1.0738775-6.9709652,2.2863052-4.0147696,2.2528846-8.0736653,4.4461725-11.9499251,6.9215374-3.9956597,2.5516066-8.233407,4.5179802-12.7343583,5.8705749-6.3995081,1.9230855-12.7809986,3.8779696-19.0502993,6.2036073-1.9171435.7111883-3.6288364,1.7061296-5.3956549,2.6904464-3.5922695,2.0013111-6.3603149,4.7764273-8.6063073,8.1480058-2.6793583,4.0221219-3.5085049,8.3129922-1.9568607,12.9884779,1.3742287,4.1409919,3.0504769,8.0935156,6.4003694,11.0832912.6377054.5691277,1.3317793,1.0751442,1.9690208,1.6447933.2133384.1907195.3306004.4888482.4917884.7378816-.2898642.142751-.6083942.444923-.8643389.398919-.8303548-.1492117-1.7470411-.2519709-2.4351082-.6838869-2.9354023-1.8425787-5.6085323-4.0055367-7.0810882-7.2660029-.8917873-1.9745652-1.7674108-3.9767175-2.4013878-6.0428507-1.0547204-3.4373167-.6389722-6.8549964.6644286-10.1687976,1.3006159-3.3066278,3.2462092-6.1853589,5.99605-8.4501405,2.1125251-1.7398718,4.3234448-3.3602745,6.6115622-5.127194-.4973851-1.5169933-1.5985736-2.822265-3.0579693-3.8401172-2.2970885-1.6020669-4.9655591-2.1656957-7.6569585-2.5841344-4.453452-.6923725-8.8496329-.1646339-13.1900647.8750713-.9574074.2293359-1.8484843.7495628-2.7569664,1.1645977-.7358751.3361718-1.4346375.4478509-2.0396548-.2192777-.5073336-.5594422-.4873159-1.3620441.0791931-2.133647.8329128-1.1344738,1.9080031-2.0438866,3.2362213-2.4588297,7.0328697-2.1971852,14.0540235-2.6066301,20.9204388.6016608,2.97586,1.3904318,5.5263792,3.1452727,7.6679357,7.5279977,1.3436776-.3982277,2.7156993-.7635521,4.0598225-1.2124131,2.3020902-.7687451,4.591402-1.5768157,6.8731688-2.4040209.3096075-.1122423.7112589-.3838409.788289-.6602385.7356441-2.6394842,1.6177065-5.2640601,2.031938-7.9583748.2893681-1.8820498.0964026-3.8950856-.2058998-5.7980184-.4592869-2.8913601-2.0788789-5.1641029-4.4573259-6.8774135-4.2717978-3.0772007-9.0947383-4.1076182-14.240979-3.5920744-6.1202581.6131375-11.3583762,3.1828992-15.604711,7.6502911-1.6332739,1.7183151-2.8000212,3.7593839-3.4786478,6.0493831-.2972034,1.0028908-.4302191,1.9984143.1062783,2.9990678.3008827.5611493-.0032928.9553871-.6866507,1.0326948-.892654.1009953-1.8129987-.4771444-2.3040815-1.4849576-.7660642-1.5721633-.7544832-3.2321726-.3515877-4.8688458,1.088171-4.4203665,3.7877575-7.7478432,7.4800998-10.2220584,5.2475452-3.516323,11.0514261-5.3159612,17.4271613-5.033889.4838988.0214129.9693522.0077916,1.6717562.0116455-.9155278-.6615282-1.6267866-1.4274829-2.5028786-1.7628162-3.0468613-1.1661878-4.9125491-3.4655359-6.3127318-6.237659-1.2947329-2.5633844-1.8937348-5.3391597-2.1322764-8.1750679-.5106103-6.0702544-.9726981-12.1449687-1.3958953-18.221948-.1190539-1.7095856.4349936-2.6165023,1.4966366-2.9582065,1.1166305-.3594059,2.0409983.1081053,3.0547459,1.5092174,2.0303034,2.8060541,4.0390118,5.6249891,6.862209,7.7375426,3.057766,2.2881001,6.420476,3.8967264,10.2098173,4.4091415,2.5355681.3428769,5.0405104.1519607,7.4628235-.9499837,3.3328235-1.5161194,6.7414245-2.8702327,10.3771085-3.5171749,1.9318315-.343757,3.8692333-.4116378,5.8003065.0054428,3.3934404.7329326,5.7603505,2.795611,7.3961174,5.7759712.5065964.9230058.9544368,1.8782587,1.4688682,2.8973918.4600317-.2009938.8737963-.373109,1.2803946-.5607939,2.9219984-1.348777,5.9261117-1.6125729,9.0353653-.7403005,2.6376163.7399513,4.5430149,2.3145303,5.7275483,4.7938008,1.8384952,3.8481182,1.9697958,7.8445721.6252685,11.7858977-1.2245804,3.5896708-2.8445788,7.0444626-4.290737,10.5585148-.0939734.2283516-.19169.4551736-.3136409.7442457,1.3956902.1950374,2.7056002.378077,3.9873843.5571898.6430593-1.1630131,1.1836505-2.4479069,1.9866941-3.5397682,3.4665803-4.7132696,7.8552073-8.2914906,13.3720916-10.36026.6719086-.2519447,1.5202986-.2384139,2.2402508-.1019325.788206.1494205,1.2148594.8330709,1.2702949,1.6504958.0563875.8310846-.4217954,1.3149504-1.0734011,1.800977-3.4078665,2.5419316-7.2666473,4.4749542-10.2464711,7.5963065-1.4749665,1.5450288-2.7572117,3.2185638-3.5620007,5.2091698-.1239759.3067186-.1097232.8107866.0649168,1.075707,2.9110951,4.4163311,3.2763467,9.0485567,1.2474128,13.8962409-.5408408,1.2922069-1.129107,2.5646203-1.6999747,3.8441502-.4323044.9689407-.5276422,1.9616529-.3684658,3.0166041.4579546,3.0348663.6408122,6.0803372.053112,9.2626837,1.1480386-.1515398,2.1810868-.2970981,3.2165424-.4230469,5.1190582-.6226234,10.251826-1.1158574,15.4027603-.5425064,2.2626216.251855,4.5179311.6904314,6.7313364,1.2297979,2.2369522.5451126,4.012677,1.8949335,5.3875705,3.7526962,3.986623,5.3867857,4.6863311,11.2222208,2.1057641,17.3542351-2.5504762,6.0604698-6.7547825,10.8169742-12.0992374,14.6154961-4.2995588,3.0559096-9.1556231,4.762243-14.1916346,6.0784312-3.1037352.8111472-6.1791392,1.7110205-8.9319066,3.431975-.3430312.2144519-.6644743.5242368-.8862447.8618775-1.3297979,2.0245496-2.862327,3.8389046-4.8776869,5.2347093-5.6548905,3.9165547-10.5821409,8.6464154-15.1661021,13.7450807-3.2692993,3.63635-6.3573621,7.4316798-10.0758174,10.6543381-6.0368249,5.2318915-12.8726515,9.0579859-20.222347,12.1138434-9.1261693,3.7945187-18.5958117,6.1956322-28.3614296,7.5193623-.6730388.0912284-.9318068.2923938-.8996836.9963995.0928174,2.0336335-1.1227751,3.6108211-1.9199414,5.3389843-.2607236.5652463-.4470198,1.2329689-.4304384,1.8473964.1611776,5.9616792,2.4405396,11.1078099,6.1902758,15.6528483.3681198.4461729.8932791.8202718,1.4207072,1.0673535,1.9795384.9272938,3.9819074,1.8075352,5.990998,2.6697682,4.6334164,1.9885029,8.9260064,4.4580832,11.8596149,8.7247367,2.6326978,3.8290022,2.5807266,7.7547739.1323856,11.6676909-1.4048458,2.2452713-3.3250251,3.9948962-5.4573772,5.5208822-4.9316031,3.5291855-10.4854876,5.7064429-16.2677701,7.3359744-13.3632194,3.7658851-27.0275263,5.0445202-40.8602497,4.6985529-11.1598819-.2791155-22.2015463-1.5057464-32.98012-4.5866021-4.997636-1.4284772-9.8647497-3.1993924-14.298814-5.9375151-2.0056741-1.2385456-3.811513-2.8067205-5.6701587-4.2733266-.5076811-.4006203-.9043514-.9547396-1.3075166-1.4729926-3.4766539-4.4692211-3.4463299-9.4402716.0830835-13.8573878,1.7029212-2.1312562,3.8381798-3.7534259,6.1578197-5.1480642,3.1296664-1.8817134,6.4839437-3.2550818,9.9371974-4.4163936.8289723-.2787691,1.6019677-.7300407,2.3886492-1.1259485.3820392-.1922943.7237421-.4644942,1.105099-.6584898,2.2062069-1.1224434,4.3188065-2.314354,6.1863635-4.0323478,2.1929877-2.0173195,5.1062963-2.5787426,8.0010611-2.9920069,2.2419926-.3200803,4.1987325-1.2481398,5.8285517-2.8563158,1.6821426-1.6598242,2.2701541-3.7930478,2.6740509-6.0094809.0318303-.1746824-.0876272-.4508167-.2290803-.5723349-3.2299232-2.7744391-3.9728631-6.2520984-2.9350748-10.2449359.0131138-.0504381-.0058977-.1092473-.0189402-.287634-1.8493935-.3128301-3.7343179-.5920491-5.6027973-.9558712-4.0672477-.7919548-8.1757373-1.4376568-12.1773159-2.4866431-6.8410853-1.7933148-13.4340145-4.3060738-19.6905893-7.6479932-3.8195749-2.0402064-7.1977247-4.6661502-10.2333073-7.7332777-3.5094634-3.5459473-5.4983069-7.9828611-7.1316398-12.5890974-.8877684-2.5036308-1.6030379-5.0702387-2.3392481-7.6248265-.2521254-.8748511-.720291-1.5320175-1.4143652-2.079993-2.3605198-1.8636735-5.1215777-2.812567-8.025686-3.2528274-4.9637874-.7524627-9.8444226-1.7769511-14.5690701-3.5116856-8.3596706-3.0694912-15.6919752-7.7308677-21.3567708-14.617547-6.4847179-7.8834806-9.0838461-16.9661517-6.9522157-27.1134335.7844938-3.7344671,2.6005717-6.91458,5.8697204-9.1674267,2.0170493-1.3900109,3.7974412-3.1278382,5.8347029-4.4830832,2.9735931-1.9780987,6.3052951-3.2186719,9.7491542-4.1565335.3233861-.0880749.7563999-.3917775.832851-.6772324,1.5514878-5.7930814,5.060561-10.337213,9.2430741-14.420167,2.8645715-2.7964149,6.1339557-5.0730902,9.8020888-6.7027046,5.2434381-2.329422,10.2420083-1.9068129,14.9035031,1.5524937.1125659.0835191.2309858.159148.4337566.2981572.0819882-.2594674.1601216-.4542884.204851-.6564919.4015328-1.8151845.7757552-3.6367855,1.2075697-5.4446779.1306438-.546982.3636003-1.0869894.6437083-1.5763851.3514641-.6140533.9414331-.9200176,1.6612637-.8559171.722512.0643352,1.219507.4873645,1.4847676,1.1426632.1593467.3936267.2927804.8174172.3307273,1.237341.253108,2.8014799.4326561,5.6021266-.5905129,8.3151487-.0468107.1241111-.0610981.2604727-.1200441.5221729.3844009-.1968083.6511205-.3383869.9220789-.4713597,4.9675518-2.4375832,10.0546679-3.399931,15.4057679-1.2835836,3.0908799,1.222441,5.5163093,3.2043624,7.1198127,6.1976865.4392411-.6116645.7852403-1.231459,1.2599105-1.7283069,1.3562294-1.4196147,3.1215403-2.0718623,5.0167713-2.1183348,1.6993158-.041679,3.4444857.0566556,5.1018012.4102441,3.0181213.6439216,4.9948498,2.6028628,5.8499845,5.5622569.871404,3.0156942.7931293,6.0152269-.7392816,8.8336639-1.8199399,3.3472988-5.2522589,4.8968461-8.9352439,3.9256454-1.6330629-.4306353-3.171007-1.2219584-4.7114262-1.8333976-.0105247,1.9182242-.0219724,4.0046775-.0329819,6.0112812,1.619053-.3487846,3.2745145-.8166444,4.9623738-1.0469083,4.072451-.5555768,8.0080191-.0239054,11.6347589,1.99834,1.0301459.5744037,1.9811436,1.3624227,2.8106256,2.2074004,1.1162164,1.1370571,1.5710972,2.5701089,1.2438359,4.1886069-.0315282.1558947-.0058714.323337-.0074824.6169571,2.6442815-1.8309113,4.7313943-4.0291599,6.3362736-6.7738862-.1497041.0071533-.243424-.0150739-.3081083.018545-4.1749093,2.1699533-10.7137091-.7618156-12.0226395-6.9850042-.2949878-1.4025391-.2955431-2.7834474.1927907-4.143345.4777664-1.330446,1.0758318-1.7034855,2.4025641-1.5477569.9728731-2.624088,3.1723979-3.3862281,5.6172214-3.6536794,2.4178127-.2644977,4.7141904.3116034,6.9799652,1.4326679-.1344276-.7946153-.350106-1.5023526-.3471501-2.2091838.00307-.7295287.1535892-1.4773206.3606042-2.1815546.1914349-.6512315.5430176-1.2553918.8240629-1.8802898-.0766309-.0350963-.1532723-.0702032-.2299032-.10531-.1208083.1037421-.256635.1944075-.3602245.313177-2.1124417,2.4218-4.7635041,3.1699145-7.8299274,2.4138721-3.3606291-.8285593-6.2455516-2.5128337-8.581598-5.0877998-1.8219202-2.0082455-2.7179344-4.4156905-2.9076079-7.0879274-.0700078-.9862944.0076857-1.9737694,1.1801678-2.4090689.1721162-.0639013.2669585-.3359991.4639667-.6011334-1.8107621-.6173866-3.2857984-1.5903057-4.2570583-2.9196899-.2205303,1.5249903-.2746724,3.1915881-.7205938,4.7457735-1.4577518,5.0808484-6.0264157,7.3093058-10.9915859,5.4795565-1.787345-.6586617-3.4687051-1.5231626-4.8075697-2.907484-2.0008362-2.0687389-3.0505738-4.500438-2.0609957-7.3500949,1.0505456-3.0252169,3.3084553-4.7833213,6.4526512-5.4016062.3561134-.0700282.7451159-.1314611,1.0411695-.3193333,1.0173063-.6455999,2.1150054-.8740613,3.2839179-.6969511,2.4444362.370388,4.5797207,1.3753913,6.2979903,3.2404453.0491789-.8727997.0456298-1.7042441.1582916-2.5196359.086439-.6256409.447509-1.2705658,1.1476548-1.1282514.5000369.1016364.9574377.5978871,1.3354872,1.0086107.1225788.1331724-.0569202.555225-.1156557.8415735-.0668108.3256853-.2804553.6778006-.2115961.966201.8928663,3.7394262,4.8677438,5.2353219,8.0056554,3.0369075,2.5021112-1.7529606,3.8379494-5.2775944,3.1669407-8.2780526-.2367244-1.0585205-.8396323-1.7204713-1.8812964-2.0043062-1.9412844-.5289661-3.8719696-.4991826-5.7057333.3349239-.5972263.2716677-1.0328428.9007477-1.5383318,1.3707149-.1566467.1456407-.3017114.4283508-.448902.4262333-.1635057-.0023223-.3684839-.230826-.4772471-.4086586-.5559783-.9089725-.4574708-2.0572949.2365945-2.9726231.7546545-.9952041,1.7933099-1.5782829,2.9419406-1.9924508.399726-.1441393.8076582-.2655355,1.2892141-.422545-.8653944-.6673626-1.6653084-1.2842226-2.4672574-1.9026447q-2.6689132,4.2632757-7.608753,5.5635495c.8177842.4902533,1.5517152.8522099,2.1891531,1.3402162.414224.3171327.9998711.8647543.9458566,1.2246303-.0681982.4544155-.6453543,1.0331415-1.1187685,1.1769079-.6385177.1939155-1.4309214.173566-2.080883-.0163214-2.1234889-.6203809-3.7561091-2.0159969-5.2298116-3.6101824-.3080957-.3332753-.5928406-.6881146-.947639-1.1022213-.1237744.210782-.1786584.4330919-.3163031.5132261-.341762.1989495-.7766985.5245537-1.0702286.4396854-.2983743-.0862886-.6344107-.5870921-.6682509-.9342253-.0799246-.8194979.0581195-1.6581087.0142263-2.4840109-.0294365-.553844-.1292895-1.1389986-.3515607-1.6421435-2.3361342-5.288279-4.3139657-10.6980064-4.5757205-16.5284135-.1599433-3.5623608.0615668-7.1434037.1600389-10.7147264.0246996-.8957579.6874363-1.5196829,1.4881926-1.6312163.8065243-.1123401,1.6258432.2911009,1.9006658,1.1460611.3213627.999798.5570642,2.0461098.6726466,3.0896614.4187373,3.7804552.7470047,7.5708933,1.1615895,11.3518497.1611151,1.4694168.4609123,2.9236242.9078008,4.4228925.0883058-.2687645.1845736-.5352061.2637561-.80663,2.1101255-7.2329064,6.0789182-13.2724167,11.7774021-18.1667988,1.8752887-1.6106699,3.9865467-2.8923008,6.3840008-3.6042072,2.5541439-.7584443,4.2930524-.0804417,5.728594,2.1642182.1684344.2633669.3374682.5263388.5792728.9034153.2717124-.2589347.5033247-.4842256.739823-.7042763,1.3179784-1.2264088,2.5281738-2.6068149,3.9880134-3.6313797,1.3319087-.9347887,2.8760314-1.6706536,4.4318022-2.1592539,2.4388502-.7659408,4.5115089.401729,5.2212009,2.8532492.3351257,1.1576441.3289513,2.4205189.4164895,3.6400836.032963.4592618.0948281.7675711.5373416,1.0435026,2.8013326,1.7467228,3.5509529,5.4220892,1.5701945,8.0805629-.7218776.9688819-1.6491906,1.8460539-2.6393412,2.542491-3.2843223,2.3100746-6.7929801,4.2335014-10.5422921,5.6981512-.4792485.1872129-.9514926.3927663-1.423193.5985269-.0969872.0423123-.1770124.1235382-.3334786.2362697,1.4621506,1.6349755,1.8646013,3.5688476,1.6092898,5.7261231.478955-.2884337.8596041-.5176645,1.2766525-.7688069-.0479588-2.0368822,1.1579841-3.3259953,2.8921104-4.0244075,3.7216146-1.4988908,7.511598-1.4568392,11.1746715.1944771,2.2200011,1.0007839,3.0401122,3.0227308,3.0941321,5.3453687.1047291,4.503777-3.2329782,8.9097262-7.5909237,10.1027517-.2417531.0661915-.4812767.1405062-.8356058.2444027,4.6449809.8261747,5.6000051,2.0816958,5.6246334,7.2993001.1385995-.0402344.2722222-.0577247.385692-.1150839,2.690921-1.3603984,5.5489809-1.7342629,8.5121937-1.4002838,6.0553041.6824559,9.356386,7.5242464,6.0509159,12.4472518-.709417,1.0565884-1.5550029,2.0217526-2.345322,3.0386417.4106861-.0656104.8737466-.2074426,1.3347255-.2009836,1.6225582.0227246,3.2782012-.0924022,4.8593417.190725,3.1123965.5572933,5.2862688,3.0113821,5.5920974,6.1510342.3050152,3.1312852-.4505333,6.0408367-2.2993344,8.5976519-2.1072317,2.9142283-4.9453031,3.6119698-8.2401647,2.1799457-3.5171522-1.5286366-5.3999508-4.2007527-5.6555186-8.0092931-.0351837-.5243659.0581695-1.0923224.237305-1.5875433.2392552-.661396.8030865-.977438,1.5133502-.8170018.7447607.1682125,1.1829469.6502946,1.2203373,1.4466724.1383677,2.9471514,2.1639589,5.0649853,4.2702343,5.7782333,1.0129615.3430216,1.9186508.17152,2.7076865-.5541574,1.1808205-1.0860161,1.9120616-2.418781,2.1161898-4.0140619.3057542-2.3894603-.8005366-4.2392626-3.1742769-5.1869532-1.9637256-.7839869-3.9703554-.7424746-5.9602156-.0463667-.6457562.2259005-1.1462642.5577363-.8519958,1.3923582.0520993.1477186-.0087573.444409-.1168285.5109777-.1261882.0777345-.3847448.0264765-.5455287-.0517322-1.0289481-.5004974-1.4598606-1.6550883-1.0204238-2.7741788.144123-.367021.3592828-.7145276.5896355-1.0368529.2082604-.2913965.4815828-.5362749.6898087-.7621762-1.2250425-.0810508-2.4320673-.160913-3.6709793-.2428783.2799589.4287757.5846169.840438.8318092,1.2841136.7926738,1.4226863,1.0686192,2.9553992.8313826,4.5610405-1.0996608,7.4427228-8.9991477,11.2295105-15.5326829,7.4547346-.2202884-.1272742-.4386619-.2578703-.8385797-.4932387.493788,2.0389039.3729823,3.9012449-.3995022,5.6823171,1.3132953,1.051957,1.5215876,1.6295013.8724456,3.1524543-2.3516798,5.5171837-5.8623108,10.0711678-11.1617758,13.0670781-.8862137.5009823-1.8784461.8243461-2.8423635,1.1725126-.3349418.1209688-.738684.1242552-1.1000484.0836669-.6992174-.0785116-1.2521637-.4189569-1.4731676-1.1320574-.222816-.7189893.0491864-1.3096278.6031111-1.749128.5108349-.4053017,1.0751112-.743222,1.7125848-1.176584-1.0894811-.2895361-1.4309477-1.0784024-1.6090062-1.9865694-.2603853-1.3280513-1.2731653-1.9333469-2.3874398-2.3623933-3.5574152-1.3698032-7.2063676-2.0767082-11.0080995-1.2113042-5.5510828,1.263617-10.6068588,3.6208432-15.0405475,7.1877718-3.0941216,2.4892447-4.6314055,5.8768676-4.7219433,9.8184505-.0695441,3.027948.1186794,6.0618688.1954709,9.093051.0035671.1405884.0049424.296737.064072.4179503.3957929.8114433.2997286,1.3941503-.3285985,1.8736922-.5738689.4379865-1.4024807.4295-1.9636432-.1286027-.3535902-.3516541-.718258-.8005117-.8340861-1.2664057-1.4047826-5.6505196-1.8729548-11.2847609.4607508-16.8397267,1.2948361-3.0821307,3.4101722-5.5024058,6.172967-7.2995419,2.1997989-1.4309148,4.5516938-2.6268883,6.8165892-3.9602508.2977765-.1752981.6651399-.532868.6879277-.8299769.370829-4.8358441.3305457-9.6468235-.6342792-14.4390876-1.478978-7.346147-7.5659825-9.6767671-13.3010921-8.9612298-2.2607305.282053-4.4827036.8802475-6.7188172,1.3511881-.893709.1882294-1.7833426.5275397-2.6552364-.2053015-.3506238.4045565-.663534.8045728-1.0166157,1.165281-.8704402.8892627-1.9324689,1.1236414-2.7916255.6439443-.8411456-.4696325-1.1544748-1.2872463-.8392654-2.548457.1344937-.5381688-.088744-.7925727-.4337175-1.0788203-3.4562653-2.8679299-7.2936388-3.5235248-11.3755924-1.6552311-6.6862302,3.0602627-11.8433403,7.847829-15.3533425,14.3241855-2.0345121,3.7538907-3.6909463,7.6659864-4.4815681,11.9066418-.5172415,2.7743141-.3375884,5.5176398.0863022,8.2719464.1303622.8470417.2867393,1.7026515.285421,2.5541055-.0015276.989884.3855885,1.7535781.9962319,2.475366,1.5546915,1.8377173,3.4667378,3.2368365,5.4910048,4.493037,5.3430422,3.3156656,11.1833174,5.4782488,17.1502703,7.3363603,10.3753207,3.230865,21.0008419,5.3286175,31.7123478,7.066879,13.6812216,2.220191,27.4566833,3.5636798,41.265703,4.6239095.9278311.0712358,1.8582353.1089521,2.9227299.1700184Zm-101.8097031-23.2227331c-.8990897.9311274-1.7613514,1.7631867-2.5538252,2.6571004-1.8303293,2.0646216-2.6093156,4.4873245-2.1906483,7.2224254.4392445,2.869537,2.0898078,5.0993486,4.0206581,7.1413482,2.1596265,2.2839635,4.7068503,4.0807768,7.36447,5.7291806,6.6132533,4.1019045,13.7796317,6.9617603,21.1820416,9.2282338,13.1277745,4.0194205,26.5630793,6.7113382,40.1145725,8.7797483,8.3027587,1.2672692,16.6610545,2.1760122,25.0012431,3.1896161,2.8667037.3483825,5.7496515.6067534,8.6329189.7667676,7.1975565.3994115,14.3961547.8362607,21.6005049,1.0441065,12.2456088.3533135,24.4920365.1963961,36.7211239-.5855998,11.2559979-.7198066,22.4500811-2.0158514,33.5760994-3.8787578,9.867203-1.6520959,19.5675838-3.9205753,28.8698883-7.7035855,4.4177088-1.7965758,8.5107099-4.1169892,11.9218657-7.4647164,1.1796524-1.1576902,2.2185492-2.5754935,2.9398713-4.0600317,1.686653-3.4712453.7115843-7.5825391-1.8628845-10.2476147-.0899194.0471663-.198296.0853764-.2847175.1520324-3.6178924,2.7903116-7.6838206,4.7526713-11.9380705,6.3232678-10.3855755,3.8341786-21.1752529,6.0029758-32.0978804,7.547171-14.6965397,2.0777582-29.4878466,2.9203504-44.316841,3.2671085-15.4004393.360138-30.7857044.1415057-46.1549382-.9457699-.2630951-.0186086-.5284416-.0050581-.5651284-.0052594.9734576.8447931,2.1903816,1.6453791,3.072747,2.7205306,1.764585,2.1501555.9584957,4.3548248-1.7466117,4.9507773-1.8116344.3991707-3.65363.6976157-5.4972661.9073343-5.0033673.5691747-9.9455186.2814813-14.7416386-1.378048-.6569868-.227337-1.326843-.6015801-1.8076004-1.0885904-.3132343-.3173122-.5264269-1.0464765-.3810602-1.4434299.4002159-1.0929084.9626163-2.1852412,2.0477996-2.7625841,1.6049-.8538266,3.2542635-1.6274525,4.9084545-2.3832371.5240719-.2394471,1.1240558-.3127586,1.689299-.4621097-.2200627-.1703218-.4282865-.2007433-.6374181-.2223253-11.4173311-1.1777837-22.7786323-2.7618765-34.0359211-5.0021342-10.8340113-2.1560294-21.5748137-4.7018999-31.9526101-8.5740257-4.992654-1.8628364-9.8910035-3.9331793-14.3517196-6.8999382-2.45051-1.629809-4.6481322-3.5302512-6.1665044-6.1096489-.0680936-.115677-.1853733-.2023971-.3802735-.4093421Zm183.8660904-48.3711103c-.0592616-.0780603-.0831987-.1387304-.1270212-.1619728-.1511737-.0802518-.3068931-.1532769-.4651273-.2187078-4.299323-1.7772102-7.4453561-4.9419294-10.1964477-8.5533819-.9615265-1.2622111-1.6445539-2.7081466-1.7444472-4.319253-.0332919-.5368363.1419251-1.2976652.5106441-1.5833399.3097635-.2400047,1.1503745-.1112552,1.5625127.1543815,1.4603611.9412226,2.9691733,1.8718964,4.2241701,3.0560857,5.7157918,5.3933075,12.6367969,8.3431543,20.1287273,10.1939768,2.8004975.6918439,5.6522828,1.2228296,8.3906566,2.1061347,2.6954011.8694253,5.1043194,2.3196011,6.6589542,4.8571339.1711657.2793313.4971696.4637945.7513586.6922644.2127192-.2770469.5190557-.5227292.6239109-.8358926,1.267829-3.7865275,2.596682-7.5564459,3.7177276-11.386859.6733406-2.3006437.7016375-4.6771544-.1899891-7.0018625-.6399525-1.668436-1.79323-2.6668147-3.5049192-3.089739-1.6192617-.4000649-3.2346359-.4467476-4.8241502.0839096-.9192903.3069029-1.8100663.7035391-2.7022755,1.0863452-2.1602299.9268068-3.6571835.3253623-4.7304096-1.7712864-.6612377-1.2918441-1.4485839-2.5262097-2.257748-3.7338262-2.0216629-3.0171743-4.9044639-4.1102179-8.3565247-3.2159741-3.2287446.8363765-6.4027654,1.9094026-9.5520362,3.0171776-1.8221514.6409639-3.6024761,1.1303233-5.5699926,1.1557026-7.9178759.1021142-14.4414701-2.9385556-19.8946954-8.5301259-.1656257-.169824-.3438521-.3273464-.5162205-.4906002-.0781779.0272049-.1563767.0544149-.2345546.081625.3240695,4.2996288.6155123,8.6020127.9798618,12.8982262.550591,6.4919393,4.1488584,10.5674091,10.022673,13.1309768,5.4834747,2.3931919,11.1515391,2.7794749,16.9718564,2.4801805.1040885-.0053602.205509-.0630579.3235058-.1012991Zm-29.2110871,168.4552086c.0795973.2603435.0888174.3485037.1301469.4173906,2.6601124,4.4362165.7960754,9.0517884-1.8894992,11.4794769-1.5160094,1.3704391-3.1920233,2.6160935-4.9517571,3.6537781-3.5444054,2.090113-7.4345797,3.4000548-11.4018753,4.4262141-8.8714891,2.2947403-17.9211627,3.0663477-27.0554564,2.8810693-9.875745-.2003079-19.6367945-1.288733-29.1246421-4.2025095-5.0834459-1.5611335-9.9667931-3.562954-14.2629112-6.7818631-1.8005541-1.3491082-3.3852848-2.9107674-4.4876017-4.902301-1.3502199-2.4393733-1.6327347-4.9673695-.5955978-7.5980946.0660052-.1674109.0848196-.3534194.1740639-.7416686-1.4383002.8117338-2.7286257,1.4864981-3.9645754,2.2493351-2.1516482,1.3280525-4.1569762,2.8455137-5.7424771,4.8487707-2.6577632,3.3579388-2.6902401,6.65481.1620861,9.8566386,1.315086,1.4761989,2.9091146,2.7527683,4.5366705,3.8910486,2.9744017,2.0802319,6.3453625,3.3997909,9.7632357,4.567155,10.0992983,3.4492894,20.5513948,4.9937702,31.1580006,5.5579041,13.3438925.7097032,26.6009448-.0419844,39.6787961-2.9394466,6.5534205-1.4519525,12.9356046-3.4415716,18.8212098-6.7780906,2.1539217-1.2210049,4.1561097-2.6379242,5.7722586-4.5392594,2.7387665-3.2220813,2.7719303-6.6918985.1118826-9.9710151-1.8358948-2.263136-4.2136135-3.8341551-6.8319575-5.3745328Zm-3.9583234-.4524997c.693285,2.4604161-.4587668,4.2487323-2.0202892,5.8925773-.2551138.2685881-.542498.5093967-.831725.7422729-2.4426923,1.9665921-5.1652231,3.3717207-8.2355139,4.0654321-7.1888647,1.6243081-14.4748683,2.6061654-21.8282615,2.9248184-8.1029438.3511341-16.1892701-.2159178-24.2482972-1.0295018-5.0958536-.5144487-9.9913811-1.9159161-14.6841741-3.9729857-3.4819861-1.5262954-6.0571132-4.0217257-7.4054164-7.5935198-.6470997-1.7142067-.9490732-3.5586843-1.4212149-5.3982481-1.9232793.291984-3.3657194,1.6558057-4.6388906,3.2225753-2.199178,2.7062763-2.1993361,5.3727245-.0581439,8.1296419,1.2818333,1.6503705,2.9067998,2.9091691,4.6621066,4.0076794,3.0015606,1.8783826,6.2356539,3.2701264,9.604981,4.3049129,17.6726451,5.4275359,35.5909949,6.1112408,53.6955324,2.600216,4.7018098-.9118455,9.2753599-2.267982,13.5065703-4.6014487,2.1266419-1.1728451,4.0761574-2.5623463,5.4955247-4.5664519.4372922-.6174493.8436879-1.3220879,1.0215339-2.046403.6856377-2.7923996-.7751573-4.808158-2.6143221-6.6815671Zm-123.3249492-80.3189573c-.0430444-.5088578.0402723-.9359547-.1276382-1.2079117-.3252057-.5266698-.7354292-1.0333504-1.2092875-1.430327-2.4904771-2.0864212-5.2573704-3.7470566-8.2849753-4.9057403-6.3339701-2.4240669-12.3440923-5.4291089-17.7303689-9.5885821-2.273657-1.7558054-4.3373933-3.7312572-5.9467426-6.1365904-3.5203882-5.2615259-3.2064662-10.8557523.9696078-15.61347.7279022-.8292755.9868843-1.5641592.8122086-2.6476781-.3251554-2.0169887-.6549627-4.0045562-1.7816502-5.7695674-.8623954-1.3509925-2.0399865-2.1633195-3.6654039-2.1763036-2.5883306-.0206775-4.7984389.7919565-6.195012,3.1190009-.5261642.8767217-1.0108315,1.8042231-1.3414425,2.7679162-1.3646961,3.9778818-1.3597317,8.0375137-.488692,12.1070427,1.5790356,7.3773793,5.7732257,13.1033545,11.4373414,17.867371,5.8462015,4.9171535,12.6480467,7.9224316,19.9327167,10.0103631,4.4440217,1.2737629,9.1339729,1.5787885,13.6193386,3.6044769Zm82.7166923,45.7283327c.0018058-.3291229-.0028349-.4974872.0044784-.6653459.1829245-4.1958793.3227932-8.3943003.5650221-12.5867524.1953462-3.3810064.1419711-6.7322121-.5626474-10.0587598-.7862643-3.7120248-1.5675116-7.4254893-2.2917339-11.1498536-.1231666-.6334138-.3361248-.8475838-.9577404-.8845909-3.2818305-.1953574-6.5617181-.4239654-9.8416732-.6498281-1.1864543-.0817089-2.3712347-.1877205-3.5867986-.2850356.10411,1.1061337.1852807,2.0958008.292319,3.0826756.3818706,3.520823.6666953,7.0564552,1.1874445,10.5568301.6093019,4.0957477,1.4321264,8.1595735,2.1525877,12.2389757.4471943,2.5322112.8855035,5.0660713,1.3082896,7.602466.1395896.8374095.4963929,1.2910235,1.4378764,1.3263484.9934814.037266,1.9788169.2776383,2.9689185.4209358,2.4014078.3475691,4.8035129.6902797,7.3236573,1.0519347Zm16.6867006,15.2184372c-.183816,2.1600046-.3938265,4.2047404-.5154208,6.2547397-.0521021.8784215.0023471,1.7801257.1410351,2.6500789.6999028,4.3903978,2.0026686,8.6258455,3.5037769,12.7942033.5730777,1.5913399,1.1876243,3.2223302,2.7330364,4.25499.5517851.3687329.3254817.9901273-.3352711,1.1837007-.9827743.2879225-1.8353501.0594076-2.4801823-.71203-.4167284-.4986054-.8227584-1.0524198-1.0560136-1.6507243-1.6808594-4.3115477-3.4916149-8.5934182-4.2979926-13.1795241-.7195223-4.092035-1.0934748-8.2194383-.4145753-12.3621702-1.2411455-.5916785-2.4404472-1.1871934-3.6609979-1.7354796-.6353117-.285357-1.2400386.1481846-1.2739376.8469657-.0817151,1.6841774-.121889,3.3719152-.2611723,5.0513755-.1960974,2.3643249-.5632912,4.7174413-.6862045,7.0842216-.3022566,5.8201814.2876385,11.6022719.9281984,17.377179.1552321,1.3994983.7528814,1.9503191,2.1407122,1.7690973,4.9604876-.6477529,9.9224986-1.2923747,14.8678891-2.0439132,3.2775032-.4980584,6.4065763-1.4923908,9.1311756-3.4884129.2283808-.1672955.4414716-.3554447.7706218-.6222014-1.9924924-.1935858-3.375943-.9233863-4.8349465-2.5131317-2.7156047-2.9589864-4.3650783-6.4703328-5.3012584-10.3429052-.8374429-3.4641147-1.6666172-6.930238-2.5190943-10.4771376-2.1554478.7618999-4.3182487.2702715-6.5793782-.1389215Zm-4.0954213-14.080405c3.0155265-.1017028,5.8139166-.1755485,8.6083955-.3234621.2664394-.0141103.6112789-.4473593.7447847-.7605856.7835606-1.8382701,1.463477-3.7216039,2.2737124-5.5474459,2.6409835-5.951209,5.4772339-11.8100721,7.1473801-18.1592449.9435752-3.5870942,1.2987084-7.2181603,1.6691844-10.799764-5.7521263-.03156-11.4541212-.062845-17.0477324-.0935354-.2112205,2.6453587-.4632725,5.1463405-.5958327,7.6536368-.1234386,2.3345642-.3423285,4.6969825-.1227645,7.009494.3848681,4.0536263.1040177,8.056066-.4197562,12.0534632-.3888843,2.9678369-.9316951,5.9178528-2.2573713,8.9674439Zm-36.4465977-4.9152c-.2677479-2.6963589-.6192996-5.2473691-.7559529-7.8098382-.328054-6.1518294-1.163644-12.2360647-2.3623914-18.2670878-.4940004-2.4853323-1.2761102-4.9147351-1.9765561-7.3554057-.0623851-.2173679-.4749892-.4343728-.751092-.4753736-4.4111556-.6545514-8.8264131-1.2815438-13.2415415-1.9091433-.2086472-.0296484-.42487-.0059779-.673787-.0073436,2.1662391,7.6422998,2.3378041,15.6376213,5.1372304,23.0643576-.0696087.0220018-.139228.0440245-.2088368.0660263-.4051882-.8829635-.8103763-1.765927-1.2155645-2.6488905l-.3002287.1485625c.5870223,1.2328578,1.151724,2.4771413,1.7740875,3.6918963.1971414.3848114.6242928.653014.8158935,1.0392202.9900614,1.9956543,1.9391838,4.0116652,2.8998233,6.0218919.4626916.9682449.6842627,2.2540928,1.4441235,2.8215643.7744093.578345,2.0741749.4596833,3.1462561.631578,2.0544027.3294014,4.110455.6484793,6.2685365.9879856Zm23.5677598-31.3415816c.1752615,1.6891713.3359387,3.2746645.5051825,4.8592616.1844338,1.7268212.2579375,3.4759415.5886589,5.1746635.8909576,4.5762375,1.7770103,9.1449658,1.5425034,13.8418692-.1667523,3.3397282-.3556414,6.6783709-.5275588,10.0178822-.0242675.4713081-.0081908.9447028-.011465,1.541458,2.7799702.1911368,5.5141291.3681686,8.2459387.5761224.5478684.0416745.598262-.3038229.677975-.6700131.7096534-3.2598317,1.5023245-6.5045579,2.1015431-9.7846127.5648087-3.0917007.9224266-6.2187424.5889623-9.3809718-.2828528-2.6822109-.2482068-5.3564132.1999639-8.0272568.4247926-2.5316186.3308394-5.059188-.2564292-7.6032129-4.5643132-.1822319-9.1237126-.3642691-13.6552748-.5451896Zm122.609316-18.5802923c.1577723-.0452012.426275-.1259483.6968526-.1990761,4.141303-1.1196018,7.6824742-3.3613046,11.0116927-5.9660613,4.1386957-3.2381044,7.1626513-7.355206,9.2980351-12.1344109,2.2020331-4.9284098,1.6405209-9.6590332-1.2111519-14.1373899-.5602355-.8798425-1.3871778-1.7159618-2.287401-2.2255615-1.6045895-.908344-3.4306315-1.2428534-5.2909227-1.2253949-1.025952.0096392-2.0400104.2046066-2.7521981.9907414-1.5058526,1.6622271-2.2380881,3.7683145-2.116778,5.8956003.1437937,2.5216392-.3297965,4.727766-1.8521976,6.6710715-.6142371.7840629-.5411022,1.2787187-.0274896,2.0651133,3.6891687,5.6485186,3.4178029,10.6363338-.9440604,15.7922397-1.3737499,1.6238328-3.0292161,3.0093095-4.5243811,4.4731285Zm-98.5221208,54.2360294c.2810141.0416355.3872109.0798387.4881228.0690119,2.6436916-.2832947,5.2890324-.5539423,7.9268837-.8843839.2906639-.0363821.6199898-.3695344.7929084-.6503312,3.0166341-4.8988949,5.5136963-10.0633977,7.9124542-15.2873962,2.7614825-6.0138635,4.0345976-12.3987483,5.0975848-18.9559543-3.4465104.1691091-6.8320989.335241-10.2521315.5030493-1.8565852,12.4748105-5.6358438,24.2315958-11.9658223,35.2060044Zm103.9685457-89.6377905c-.277063-.0512547-.4133675-.0912475-.5516463-.099897-4.3309151-.2708005-8.6309067-.054397-12.8741766.8939695-.2748939.0614512-.5591602.4368516-.688376.7321505-.5262858,1.2025528-.8990614,2.479722-1.4983956,3.6416965-4.1300302,8.007402-10.4382246,13.7890663-18.4018715,17.8557804-.2753912.1406298-.54479.2930292-.8169671.4399432,2.7575328-.3854298,5.4500945-.9046171,8.1175889-1.5305998,6.0483085-1.4193249,12.018633-3.0912508,17.6145528-5.8706781,2.008228-.9974536,3.85065-2.2349957,5.4651875-3.8120693,1.3233088-1.292598,2.0316537-2.8833938,2.355991-4.6527359.4577062-2.4969088.8457954-5.0065861,1.2781129-7.5975599Zm-72.3274251,83.4715232c2.2115156-.8771785,4.2473439-1.6832656,6.2807741-2.4953599.1021241-.0407699.1940397-.1232614.2729917-.2037072,2.6227374-2.6715295,5.3392228-5.2591087,7.8373475-8.0426327,2.5179257-2.8055685,4.8573475-5.7753833,7.2011181-8.7318028,1.5781593-1.9906802,3.161575-3.9997123,4.5034003-6.1498213,1.9292383-3.0912985,3.3950523-6.4786848,6.1884052-9.1678684-.3209493-.0017609-.4546915-.0236209-.579901-.0001008-4.4092519.8282123-8.818952,1.6540748-13.222497,2.5117232-.2230274.043418-.4910828.3329565-.5681601.5644816-.305986.9190294-.4932554,1.87872-.8173089,2.7903568-1.0379588,2.9199483-2.8672267,5.3812998-4.6259313,7.8853956-1.8587032,2.6464424-3.5048656,5.4112302-4.8317362,8.3767291-.9077158,2.0286888-1.9440766,4.0156559-3.1002906,5.9131851-1.3641932,2.2388924-2.919706,4.3612326-4.5382118,6.7494215Zm-121.3528137-38.633481c.5794847,2.3106299,1.1295526,4.5489382,1.7049011,6.7806993.3277944,1.2714873.6399494,2.5513979,1.0568671,3.7947448,2.2658686,6.7574114,5.3182747,13.187197,8.2691661,19.6574415.3640712.7982541.8826881,1.5377709,1.4091086,2.2454318.2755738.370424.67878.7284074,1.1017442.8926537,1.9954966.7748242,4.0167153,1.4836025,6.0320815,2.2066844.1944687.0697691.4117004.0761167.7035747.1266354-.1677073-.4569988-.2960816-.8040009-.4224923-1.1517468-.9559734-2.6295676-2.1325491-5.2031288-2.8185143-7.9013631-1.2052188-4.7407676-2.982089-9.2204264-5.1965937-13.5626721-1.4250022-2.7942133-2.4291337-5.7283001-2.3512986-8.9437501.0482168-1.9923888.0055616-1.9858113-1.955214-2.4269738-2.5040313-.5633763-5.0049478-1.1405681-7.5333304-1.7177849Zm94.2628934,48.2237529c-.8745378.0689757-1.4952487.1077177-2.1138368.1683101-6.9625402.6820178-13.9470089.950634-20.8997507.1523835-8.2639091-.9488427-16.4946704-2.1864378-24.7400126-3.2971881-.2422376-.0326621-.4869669-.0466638-.7634781-.0724509-.6373394,2.4506423-.2489913,4.6953778,1.0084794,6.7388805.4893569.7952318,1.2918075,1.438744,2.0573714,2.0096002.5763699.4297733,1.001184.1327115.9728166-.5319554-.097326-2.2795647,1.1461248-3.3017642,3.331599-2.7387735,1.192249.3071287,1.7224611,1.3169276,1.3098189,2.4896617-.0793072.225393-.147695.4546185-.245622.7579799,2.4714029.1959409,4.7472415-1.0997619,6.8733228-.361695.5778469-.7695706.9404272-1.693571,1.5929544-1.9999466.6808416-.3196336,1.6834579-.1939564,2.4633076.0269079.4712433.1334716.9192869.7594671,1.1442345,1.2675624.486352,1.0984433-.2701991,1.9159926-.8776577,2.6430435,2.3275652,1.4009799,4.6361302.7719169,6.6566114.3048967.2636886-1.2049682.4754685-2.1836595.6923979-3.1612117.2653351-1.1956536,1.3319035-1.7188369,2.4286796-1.1564331.987575.5064112,1.504926,1.3563098,1.6774375,2.446555.038365.2424911.163681.5987402.3422419.6704759,1.0282845.4132643,2.0846066.7567439,3.0581017,1.0981342.8801075-.8816541,1.6218046-1.7651575,2.5116724-2.4584666.4643091-.3617537,1.2529208-.6491696,1.7853526-.519533,1.8326178.446223,2.6773245,1.3870123,2.2552997,3.4389891-.0375529.1824895-.0769062.3645918-.1414367.6700437.4621926-.0944183.8231025-.140999,1.1674673-.2432525,1.3996905-.4156408,1.4124967-.4539246.8083596-1.7551592-.4175889-.899463-.0880204-1.9949806.7438463-2.472756.8153621-.468288,1.7324385-.2532727,2.3502818.555323.1307019.1710681.2482287.3521868.509047.7246467.7031485-1.8584333,1.3401356-3.5419953,2.0410933-5.3945722ZM98.4955401,22.6036459c.0284444.0680827.0568889.1361601.0853438.2042428.8529771-.0661755,1.7049539-.152503,2.5591007-.1950361,3.7342375-.185932,7.4434857-.5998204,10.8574138-2.2200726,2.7587138-1.3092753,5.4194682-2.828773,8.0965281-4.304294.9477605-.5223786,1.8335577-1.1651738,2.7113837-1.8028936.4099798-.2978558.7912334-.6735624,1.0844-1.0858692.5967883-.8393005.2649878-1.6041006-.7338454-1.8214768-1.7127295-.3727343-2.3393427-1.4279448-1.9723585-3.1526784.2615694-1.2293598.2638936-2.4761544-.0699977-3.7823824-.3169524.1025087-.5779229.1378591-.7859989.2619447-1.6889786,1.0072533-3.3945089,1.990586-5.0405849,3.0646023-1.0503663.6853236-1.9662526,1.5769882-3.0175839,2.2605669-1.5151531.9851631-3.064273.4793072-3.8376363-1.1548862-.2320763-.4904088-.4228989-1.0031583-.6877424-1.4747165-.690669-1.2297168-1.2908012-1.5056486-2.6128561-1.0565827-.8577756.2913644-1.7122567.6679537-2.4742601,1.1537414-5.6443106,3.5983417-9.3276886,8.8296852-12.1644179,14.7510022-.0425194.0887671-.0174365.2099193-.0281234.3852678.2119703-.1157227.367663-.1829837.5042147-.2778211,5.6055825-3.8930792,11.7258349-6.7703617,18.0946294-9.1520573.9619583-.3597411,1.9421553-.6916801,2.939209-.931152,1.1507357-.2764012,2.1406575.0964018,2.5920137.8577815.5825787.9827405.1144177,1.813525-.41135,2.6237003-.2751011.4238964-.5707894.5948623-1.0358692.1593073-.1459909-.1367328-.5689512-.1145267-.7917196-.0094368-1.1114049.5243153-2.1862733,1.1258904-3.296219,1.6535567-3.2273444,1.5342456-6.4660118,3.0446517-9.6978629,4.5694675-.2973014.1402738-.5776146.3165951-.8658107.4761745Zm-46.905777,116.187451c2.8076901,3.3240024,4.030828,7.2865523,5.1840855,11.2843273.5545933,1.9225299,1.0553238,3.8659325,1.7226573,5.7494903,1.3707949,3.8691514,2.952141,7.65204,5.8739048,10.6625209,2.9879018,3.0786237,6.3495333,5.6802697,10.1817886,7.6439842.2154243.1103969.4427338.197574.6866344.3053187-.9421285-1.8601878-1.8965839-3.6414505-2.7590337-5.4662213-3.0471238-6.4470893-5.6567196-13.0675783-7.5783793-19.9389598-.5283215-1.8891456-.8090094-3.8543533-1.0919481-5.8008574-.0773817-.532373-.217181-.7108265-.6903773-.8569678-3.6062022-1.1137375-7.2035545-2.2561397-10.8043901-3.3872853-.2385633-.0749362-.4831526-.1306866-.7249422-.1953499Zm152.4665726-57.6053865c.4768101-.1649054.7818552-.243964,1.0645562-.372272,3.1223396-1.4172811,6.2590623-2.8049946,9.350964-4.2860938,1.0221724-.4896522,1.9533563-1.1880267,2.8798424-1.8552826,3.4332654-2.4726606,6.8473325-4.9720019,10.2682012-7.4618955.2056069-.1496581.4075111-.3043979.7695471-.5753021-1.7282183.2786243-3.2153832.563203-4.7145792.7524382-6.9397955.8759671-12.404707-1.4970132-16.2241761-7.4394251-.2937416-.4569672-.6087736-.9069358-.8412726-1.3947742-.2543587-.5336899-.6042336-.7144696-1.2022719-.7207375-2.2874082-.0239936-4.5743983-.1050865-6.8609027-.1830224-.5550249-.0189004-1.1076993-.1071396-1.6614289-.1634858.2250229.3339408.4938612.524357.7715788.7007797,2.6796814,1.7023254,4.7409825,3.9392005,5.9646286,6.8990342,1.8294185,4.4252245,2.026932,8.9975734,1.1803129,13.6500711-.140465.7717817-.454461,1.5119909-.7449997,2.4499678Zm-13.6959403,70.5269993c-2.7175654.1983427-5.4213406.389153-8.1227794.6086894-.1640107.01331-.4052314.2288654-.4490569.393338-.5514757,2.06927-1.1107855,4.1377424-1.5961836,6.2231357-2.295502,9.8626041-5.9857205,19.1273007-11.7166566,27.5260698-.0839855.1230897-.1233081.2766886-.2358604.5373402,1.947647-.3575553,3.7752958-.6749627,5.5923741-1.0445101.3032311-.061673.6183473-.2993743.8298477-.5414585,2.0588171-2.3564521,3.8695158-4.8827511,5.2388117-7.711703,2.4407484-5.0425816,4.8818949-10.0851191,7.3522621-15.1132235,1.6805272-3.4204964,2.5996013-7.0495163,3.1072413-10.8776781Zm-63.450466,48.0029268c-.3543865,1.8314031-.7031393,3.7934297-1.1202724,5.7407665-.3586926,1.6746306-.8318311,3.3247616-1.1900631,4.9994785-.7229164,3.3794741-1.2605731,6.8053817-2.1356324,10.1437387-1.0650322,4.0630877-2.872966,7.7757595-6.1871659,10.5635457-.051534.0433739-.0574351.1410082-.1043541.2657685.1667208.0313465.2991078.0691066.4336352.0796324,3.2218822.2520148,6.4447522.4920676,9.665266.7604644.4833552.0402726.66713-.1602563.7688759-.5771082.1693159-.6937415.3910991-1.3756051.5392273-2.0734241,1.4772577-6.9590554,2.9476071-13.919574,4.4115192-20.8814482.473667-2.252602.922621-4.5103905,1.3448335-6.5793847-2.2171385-.8425836-4.3853152-1.6665599-6.425869-2.4420296Zm-30.444638-17.863166c.045532-.0648683.0910537-.1297577.1365752-.1946261-.1926654-.3105727-.3743074-.6286509-.5797106-.9305747-2.4591619-3.6149647-4.1362795-7.5771131-5.0233267-11.8423255-.7032788-3.3816403-1.1503538-6.8160737-1.8306222-10.2030789-.7191114-3.5805608-1.5683069-7.1353856-2.4051642-10.6909602-.0526056-.2235179-.4705785-.4570886-.7534645-.5147257-1.7643711-.3594155-3.5384986-.6710363-5.3098601-.9959505-.382203-.0700865-.766296-.1299346-1.1975383-.2025956-.0015586.2840634-.0130864.4770911-.0020241.6687756.0937181,1.624989.2448272,3.2488048.2731387,4.8747972.0283064,1.6250283.318461,3.1693149.9359907,4.6729776,1.3450471,3.275213,2.7372642,6.5346307,3.9572252,9.8566914,1.4066783,3.8305331,2.7264816,7.6976862,3.9227913,11.5983869.4636497,1.5117468,1.2715593,2.2145806,2.767097,2.5163942,1.7259624.3483483,3.4078671.9149685,5.1088924,1.3868143Zm125.5895096-34.9553147c.7744246.6519515.6119897,1.2948434.1344357,1.9964089-2.2667439,3.3300297-4.4236365,6.7388793-6.7878656,9.9976181-4.3830484,6.0413925-8.9476135,11.944343-14.2496201,17.2313002-.1408786.1404875-.2602048.3026178-.3895986.4546536.2352586.0078089.3902359-.0551176.5350017-.1362921,5.4445705-3.0530435,10.4086267-6.7443747,14.7717689-11.2165854,2.6952719-2.7626574,5.3209567-5.5932041,8.0156657-8.3564095,4.3959065-4.5077233,8.8655488-8.947346,14.2655378-12.2749394,1.3699753-.8441962,1.90327-2.1629361,2.7315662-3.3880495-3.2000466,1.0377883-6.3006805,2.1049609-9.4396571,3.0440133-3.1456105.9410489-6.3295022,1.7542085-9.5872346,2.648282Zm-19.0107686,3.4145476c-3.1877863.3655687-6.2534486.7046453-9.3122981,1.0969519-.1958067.0251238-.4243766.4407978-.4923413.7113139-.4156966,1.6549522-.6695106,3.3597517-1.1986915,4.9753708-1.8916719,5.7750978-4.6968923,11.1620403-7.2334998,16.6620398-1.7171681,3.7232509-3.7475531,7.2654622-6.1719933,10.5771681-.106513.1454756-.1819645.313694-.3760843.6540014,1.9166019-.5246184,3.6499784-.9870521,5.3728026-1.485823.2158805-.0625085.4104156-.2913353.5571062-.4864927,3.7226009-4.9523221,6.9374958-10.216673,9.5953705-15.8123746,1.5273277-3.2155661,3.2157125-6.3034075,5.6418329-8.9625604,2.0098962-2.2029897,2.495283-5.1534464,3.617796-7.9295954Zm-67.2136455,51.8728326c-3.6235635,9.7829686-4.6637486,20.1392012-7.3080112,30.2501156,3.9238871.1223396,7.7260259.2408884,11.4623556.3573995-2.1668009-10.4391979-1.9040885-20.719949-.6203397-31.0140026-1.1633774.1338295-2.4014664.2762193-3.5340047.4064874Zm-29.2390496-51.75161c.6392586,3.1204182,1.3213201,6.1825132,1.8848365,9.2662785.7496258,4.1021974,1.5823375,8.2013506,2.0526119,12.3389443.4351254,3.828472.4504997,7.7054445.6219996,11.5623151.0242731.5456837.1583741.8058233.742744.896741,1.4118189.2196789,2.8089623.531851,4.2169869.7783989.8499531.1488162,1.709199.2445954,2.5003842.355259-2.5748211-11.4534821-3.8496722-23.026568-6.1082195-34.5581878-1.8890758-.2044407-3.9514177-.4276469-5.9113437-.639749Zm-3.6903142,77.5112484c.0956362.1179763.1209948.1812216.1646189.198605,3.3310955,1.3256908,6.7599351,2.3068775,10.2984991,2.8915021.1648675.0272494.424819-.0305741.5203486-.1471871,1.6075666-1.9624973,3.5205024-3.7250515,4.4398444-6.1614247.8351746-2.2132913,1.7178114-4.4344961,2.2564967-6.7280925.9136538-3.8902139,1.5831537-7.8381878,2.33404-11.7659513.2617607-1.3692727.4606697-2.7505432.6882828-4.1263327-.7983426,1.2301401-1.4305901,2.5120788-2.1873525,3.7157459-2.3576711,3.7499589-4.7188378,7.4991022-7.1602229,11.1946965-2.9506734,4.4664841-6.5252517,8.3181219-11.3545551,10.9284388Zm-6.3862306-9.4354224c-.0076218.0388153-.0452822.1472996-.046939.2563587-.0034846.2282822-.0031868.4585971.02202.6851085.2971239,2.6710555,1.4696696,4.888551,3.421522,6.7287723.4961108.467687.9116883.5285672,1.5147683.2309326,2.4097248-1.1892953,4.5107888-2.7903378,6.4541219-4.630649,5.4919106-5.2007817,9.3113052-11.6136129,13.0613574-18.0663524.6350661-1.0927935.8911736-2.4057816,1.326772-3.6293819-1.1716504-.1880551-1.6759549.1405114-2.0220882,1.1724547-.827705,2.4676851-1.8971992,4.8439009-3.6520105,6.8370491-5.3157775,6.0377839-11.9669282,9.4800092-20.079524,10.4157075Zm5.51606-160.6199676c-.1026039.0231831-.2051975.0463767-.3078014.0695702,1.7174995,4.5742753,5.1117631,7.313494,9.7837792,8.4359716,2.621799.6299056,4.7291144-.9167676,5.1729033-3.5892491.1881139-1.1327091.185235-2.3517779-.0115746-3.4827531-.4563713-2.6224985-2.3014014-4.347501-4.9374765-4.5929063-1.6977275-.1580471-3.430938-.1517958-5.1298534-.0054687-1.1725447.1010001-2.3232475.5356645-3.4653534.8817634-.7547246.2287188-1.1074972.7326908-.8482575,1.5800414.0582577.1903716-.1635101.4664152-.2563657.7030306Zm17.7312408,8.2359443c.0877955.0725476.175591.1450847.2633864.2176324.8765006-.5279358,1.7821016-.7291886,2.6585788-.0935173.235945.1711111.4660057.5800377.4238989.8342537-.0355281.2145252-.4618261.3752332-.7285144.5378543-.3420349.208568-.8278486.3088822-1.024635.6061577-.8760128,1.3233462-.7982497,2.9092438.268404,4.0531654,2.2180578,2.3787128,5.6281884,3.5744437,8.9934676,2.042794,1.9660833-.8948414,2.8180691-2.5986119,2.9340286-4.6911776.1075509-1.9409034-.955345-3.1642896-2.5814253-3.9870731-.5322941-.2693454-1.0934621-.5170313-1.6699743-.6572947-2.1583935-.5252111-4.3512872-.7061896-6.5565286-.3804584-.7544898.1114467-1.5118501.3258678-2.2127836.6231542-.3241339.1374701-.516053.5866482-.7679032.8945095Zm-34.7825783-16.8287077c-.2854357-.5020558-.8067684-.1812326-1.3334758.1221969-3.1585523,1.819612-3.4743146,5.6397095-.5322477,7.782189,1.128718.8219513,2.4749958,1.4625056,3.8190315,1.8470287,2.7982767.8005646,5.3545724-.7377873,5.9967383-3.4779348.2054782-.8768045.2835326-1.8173724.2243292-2.7158751-.1691366-2.5667447-2.8656087-5.1031755-5.3741851-5.1303947-.1154486.6854022-.2208479,1.3594056-1.2135957,1.2801009-.4401668-.0351628-.8984933.1568177-1.5865948.292689Zm147.9623098,12.1482067c-.0713321-.1509365-.0816232-.2196007-.1210148-.2482576-.2078753-.1512351-.4192306-.2984757-.6363392-.4361488-2.3045048-1.4612873-4.9080686-2.0398597-7.5481769-2.3752726-5.3428599-.678788-10.6359513-1.5471033-15.7384029-3.3400272-.1252791-.0440296-.2657809-.0447795-.3991719-.0657154-.0602643.0664956-.1205495.1329807-.1808138.1994658,1.5692896,1.7994224,3.061942,3.6737492,4.7277812,5.3788325,1.9768983,2.0234839,4.4671127,3.000359,7.3161472,3.0930134,4.3342264.1409387,8.4191897-1.0621252,12.579991-2.20589Zm-145.0422452,11.2818055c.1742792,2.0037954.8358373,3.5829617,2.1623315,4.5976221,1.2918588.9881883,2.7525543,1.6182623,4.3622364,1.8791833,1.3591152.2203119,2.4692956-.2202547,3.3434863-1.2840814,1.9755904-2.4041492,1.4025769-6.7613128-1.094342-8.6133587-2.0324191-1.5075065-4.3318696-1.4662489-6.6553151-1.202009-.3822077.0434668-.8928783.4971312-1.0296943.8750593-.4418696,1.2206107-.7370169,2.4943284-1.0887028,3.7475843Zm41.4905897-17.8469395c.9116525,3.6311108,5.6707297,6.8087985,9.2182693,6.1624626.6910438-.1258894,1.4434616-.4804245,1.9500589-.959492,2.8763823-2.7201344,1.804231-7.3924863-1.9591161-8.5419296-2.2110769-.6753432-4.4701638-.6221798-6.6586376.1350642-.6751719.2336195-1.2640016.7435374-1.8532133,1.1798155-.1464138.1084116-.264504.4998349-.1838742.6292875.4332838.6956541.1999788,1.1148755-.5134869,1.3947918Zm-7.286659-16.5217789c.453769-.0450757.911973-.0638346,1.3606068-.1394122,3.5906439-.604895,5.4136102-4.129434,3.7892906-7.3893496-.2106298-.422726-.6306005-.8689844-1.0581355-1.0347962-2.5738369-.9982611-5.2308676-1.0875879-7.9044446-.4607687-.7396663.1734081-1.2516154.6461797-1.2767353,1.5058446-.0056796.1947889-.1833509.3868421-.289401.5759245-.2350334.4190862-.63415.8169528-.6852885,1.2561936-.2267248,1.9473021.4461967,3.5353125,2.1431586,4.608321,1.1932631.7545046,2.5199973,1.0416642,3.9209489,1.078043Zm-16.1304231,39.1775991c-.3657545,2.7134434.5037818,4.8108712,2.4474929,6.442699,1.7101041,1.4356947,3.6429018,1.6702517,5.5592067.4720768,1.0250144-.6409258,2.0006768-1.4451693,2.7933824-2.354591,1.3754054-1.5779455,1.234492-3.8414646-.4186514-5.1254423-2.4140278-1.8749808-5.2205418-2.3220831-8.1884606-1.5787251-.6744502.1689245-1.0295727.6485402-1.0503779,1.3864702-.0130569.4640655-.1412316.9248796-.2507869,1.5866414-.3471259-.3227378-.5527491-.5139074-.8918053-.8291292Zm-18.0875095-45.7120356c-.3953312,1.1155704.3612908,3.6045966,1.2901269,4.2833734,1.6183944,1.1827041,5.1691974.8774337,6.5904588-.5665867,1.5650947-1.590161,2.2137128-5.0459755,1.3351906-7.0870742-.321917-.7478952-.8251639-1.1468617-1.6809961-.9403949-1.7198386.4149217-3.4438197.8132162-5.1588775,1.2468277-.2248406.0568425-.4512761.2458407-.6018152.4338196-.6158099.7689536-.5303476,1.9275805.1575239,2.6243379.2623886.2657896.5136825.542532.7700234.8142826-.0479214.0706188-.0958533.1412376-.1437852.2118564-.9626793-.0130785-1.7310562-.6041227-2.5578496-1.0204418Zm13.0596677-4.7860146c.1298405,1.3117052.2369917,2.495727.3721403,3.6765386.0281195.2457254.1182276.5060427.2506307.7146673.9545303,1.5040551,2.280041,2.5489951,3.9972077,3.0355271,1.5071114.4270205,2.6564042.0296964,3.4310264-1.2070186,1.2697665-2.0272473,1.1645039-4.1151269.0989637-6.1858652-.3370557-.6550062-.8385729-1.0483515-1.676223-.7866064-.5115631.1598471-1.0656453.1925885-1.6037189.2565831-.9884834.1175507-2.0229598.1108689-2.558116,1.2073648-.0531297.1088396-.3130631.2111005-.4241946.1707848-.1116649-.040502-.1869088-.2558184-.224094-.4077517-.043181-.1764615-.0275782-.3672976-.0403956-.6058184-.6038743.0489573-1.1362482.0921137-1.6232267.1315946Zm25.1652732,20.748122c-.0453717-1.4025423-.4446006-1.9831149-1.8706388-2.3003813-2.3956434-.5329786-4.7740771-.3215624-7.1006102.4137455-.2426069.0766661-.5327899.4379395-.5600622.6929285-.2555214,2.388426,1.1939329,4.8075634,3.3839262,5.7387155,2.6074564,1.1086769,4.744074.1956885,5.6724253-2.4674381.2323993-.6666942.3205237-1.3836946.4749597-2.0775702Zm-2.7275929,87.7750085c.0527991-.1116079.1056088-.2232367.158408-.3348656-.8148808-.5266737-1.5725664-1.1907312-2.4539552-1.5576677-5.5140336-2.2955356-10.8869505-1.7228555-16.11106.9714558-.234046.1207155-.3728946.4259901-.5560913.6453011.2681453.1180845.5286672.3153714.8056346.3420412,2.9575812.2851043,5.9132576.6289868,8.8784839.7850704,3.1226736.1644087,6.2127451-.2840842,9.27858-.8513353Zm36.1872351,65.6918196c-.1178044-.0044608-.2356089-.0089007-.3534134-.0133405-.0017573.3202786-.0477341.6476711.0022378.9596615.2391823,1.492931.5127879,2.9803291.7582212,4.4722884.3472882,2.1114235.6028661,4.2411856,1.0359531,6.3345106.9320192,4.5048684,3.0882245,8.2613596,6.9491199,10.9279079.6292218.4345903,1.1806564.9818041,1.788931,1.4945595.6014929-.5966378.7457554-1.4149895.3774594-2.218674-.4604579-1.0048262-.999466-1.9909692-1.6330278-2.8951383-.9332695-1.3318584-1.9985663-2.5702956-2.9748556-3.873069-2.5707098-3.4304081-4.4259811-7.1927932-5.2307845-11.4336406-.2376112-1.2521298-.4797752-2.5034043-.7198411-3.7550655ZM121.8639779,41.8252871c-4.4882365-.7241374-7.9434392-2.8116811-8.2065546-7.987283-.9172649,1.0971031-1.892515,2.2635646-2.8992734,3.4677254,1.9890357,1.1922198,2.7760143,3.1658852,2.7317078,5.5113209-.0534664,2.8307641-1.0315884,5.3667765-2.6300107,7.6795306-.1480949.2142639-.298236.4271228-.4486418.6423696,1.7212312.2041172,3.3195996.3936647,4.8557093.5758286-.2691591-.8367057-.6000548-1.7435001-.8467212-2.6726562-.1815934-.6840873-.1527305-1.4352503-.3990371-2.0880977-.3059983-.811045-.2249994-1.5243119.3882284-2.0346514.8020775-.6674774,1.6547984-1.3764472,2.6105309-1.734069,1.6199306-.6061401,3.337521-.9512822,4.8440622-1.3600177Zm-2.9603504,13.1079478c1.4489276,2.4081732,1.8058518,4.7974444,1.6381703,7.3840227,3.3349269-1.3150422,6.6804907-1.2301638,10.2411373-1.0375626-2.2822746-1.905067-3.6909606-4.0307918-3.8718837-6.9379992-2.4999526,2.0719404-5.1124546,1.7052516-8.0074239.591539Zm-2.5693533,144.962193c-.1004067.5032084-.165798.8948579-.257573,1.2802429-.4969223,2.0867553-1.021388,4.1589399-2.2742443,5.9633441-2.035724,2.9319324-4.9426854,4.286566-8.3795263,4.7522494-1.8978856.2571645-3.8153533.5346771-5.4845638,1.5545406-.6265179.3828073-1.1358807.9820254-1.6370532,1.5381139-.4737068.5256188-.1685093.8618753.4120552.8709291.4961402.0077522.9989672-.1393844,1.4920192-.2487235,6.1839186-1.3711937,11.2958935-4.5093303,15.3895798-9.3325238,1.4971471-1.7639552,2.1916148-3.8221919,2.3688952-6.1547421-.5428473-.0744261-1.0431283-.1430226-1.6295889-.2234306ZM21.8556851,95.1144402c.1323625-3.5303357.2686415-7.1652329.4104195-10.9467049-2.7241475,1.1764517-5.3100184,2.2931967-7.8958919,3.4099312.0099606.0878395.0199187.1756789.0298792.2635288,4.0902107.872593,6.1835901,3.749089,7.4555931,7.2732449Z" stroke-width="0"/>
      <path d="m144.9441119,88.2671932c.7175387-.900036,1.3648161-1.8940373,2.1909922-2.7059963,1.2713043-1.2494258,2.8499427-1.8128484,4.6411535-1.3831793,1.872967.4493052,2.7704494,2.2759135,1.9255743,4.0092117-.3399386.6974372-.8626423,1.3846499-1.4715139,1.859279-3.7536092,2.9258917-7.8815641,5.1002419-12.6749967,5.6744772-1.2200016.1461568-2.4979929-.1016058-3.7365087-.2653281-.2985159-.0394575-.5459639-.4651835-.816896-.7132681.2964806-.2045948.5910471-.5836274.8897556-.5869138,3.1342761-.0345918,5.7704238-1.4908092,8.4452908-2.8569649.3863739-.197332.577783-.4064958.4339064-.865554-.091908-.2932426-.0860441-.6171245-.1243072-.9297528-.0540542.0042095-.1365455-.0094365-.149472.0145006-1.951923,3.6121821-8.0143169,4.619186-11.9378794,2.7111079-3.0023362-1.4600755-5.18772-3.6362754-5.830008-7.0563753-.2277056-1.2125162-.085815-2.4007571.4522985-3.5167387.8245331-1.7100411,2.2552822-1.833098,3.370136-.2356837,2.099339-.8492485,4.3229866-1.1185211,6.5946605-1.0726179,1.509549.0305089,2.9476891.3442474,4.2944491,1.0478057,2.7922241,1.4586817,3.9979296,3.8570112,3.5033652,6.8719908Zm-10.1077788-4.4572317c-1.2238966.2296028-2.4983474.3946589-3.7292202.7230324-.9853615.2628733-1.0546528.5402461-.5381216,1.40588,1.0687096,1.791038,2.5994643,3.0485338,4.6171444,3.5886184,1.8457583.4940596,3.6487248.2422427,5.2543419-.8339605,1.3172993-.8829755,1.3220245-2.4203207.0256161-3.3432796-.5024672-.3577315-1.0918886-.6643926-1.6866018-.8068203-1.2705135-.3042572-2.5703277-.4861411-3.9431587-.7334704Z" stroke-width="0"/>
      <path d="m158.0139646,50.5538258c4.9728139.0297992,8.2190781,3.5102218,7.6283604,7.6512577-.4842619,3.3948047-3.880008,6.0960144-7.4467394,5.8874828-2.573867-.1504782-4.7401539-1.2291322-6.4861643-3.097587-1.897406-2.0304985-2.0470658-4.5487431-.4275752-6.8070256,1.7662756-2.4629965,4.2816183-3.4875546,6.7321185-3.6341279Zm-.23827,4.6588954l-.0933721.2180747c-1.9612626.0162233-3.4141209.9391775-4.5228606,2.5076039-.3072687.4346812-.2466982.7631193.1106465,1.1218885.9916189.9955427,2.1274231,1.7521527,3.5366185,1.9457553,1.7354205.2384203,3.1483834-.3845114,4.145404-1.8364868.7457527-1.0859825.6195768-2.1239858-.4833307-2.814176-.8163612-.5108687-1.7896949-.7708971-2.6931056-1.1426595Z" stroke-width="0"/>
      <path d="m142.3369815,33.0876769c3.7682404.0742451,6.114894,2.1827954,6.5343784,5.918765.3810392,3.3935058-1.5138339,6.2511061-4.7037301,6.9916847-2.9872311.6935279-5.4488493-.3747163-7.5544498-2.4409806-.7314859-.7178191-1.4114416-1.4897952-2.0931768-2.2564052-1.6495811-1.8549314-1.5889359-3.6142979.1993263-5.3459726,1.5332251-1.4847154,3.4388407-2.2225214,5.4942124-2.6121495.6988136-.1324696,1.415124-.1726153,2.1234396-.2549419Zm-4.7171757,5.4409312c.0512918.4018469.0527431.6893116.1277885.9560853.4718383,1.677144,3.0909942,3.3178336,4.8093778,3.0267689,1.3940949-.2361512,2.0638569-1.179802,1.8287371-2.5766054-.3420538-2.0321611-1.4268215-2.930569-3.4797039-2.8437466-.5387907.0227809-1.0790499.1050341-1.6080756.2121533-.1810627.0366481-.4729149.2361334-.4701433.3555284.0181716.7791597-.5099122.8578644-1.2079807.8698161Z" stroke-width="0"/>
      <path d="m128.949129,108.8006584c.1276968-.5799869.1281419-1.2379147.4212745-1.7166025.2588518-.422728.8174466-.8443774,1.2917411-.9079411.6369789-.0853588.9139536.5186977,1.0702492,1.1227208.4786257,1.8496176.954841,3.7011606,1.4969862,5.5327251.9169886,3.0978502,2.8832131,5.4757576,5.2896579,7.5410108.3767372.3232984.9684514.7258469.5382603,1.2389617-.2026644.2417345-1.0233329.261879-1.357039.0525796-4.7747602-2.9951412-8.3817246-6.807189-8.7511301-12.8634543Z" stroke-width="0"/>
      <path d="m184.1998618,67.7024236c.3648785-.4604795.6802371-.8645692,1.0022103-1.2633412.4659096-.5770624,1.0579475-.8790855,1.806594-.7315168.7354568.1449709,1.2021154.6155667,1.4510974,1.3155749.4319778,1.2144439-.1367813,2.8736387-1.3142142,3.82163-1.0741752.8648495-2.4251044.9612869-3.5968852.2373948-.858465-.5303186-1.4574287-1.277046-1.7506528-2.2485213-.2027144-.6716595-.2209969-1.3351078.4625739-1.749176.6575165-.3982618,1.1995212-.0957906,1.664694.4125854.0546048.0596856.1310742.0994024.2745827.2053702Z" stroke-width="0"/>
      <path d="m184.1458613,106.2128729c1.1582855-.0098772,2.254581.6745025,2.6714946,1.8040027.3992979,1.0817752-.2375455,1.9369626-.8597784,2.7115083-.703394.8756131-1.5343906,1.0382084-2.6045231.677289-.1755802-.0591966-.3742975-.0651074-.5627606-.0681954-1.3142545-.0214836-2.1629239-1.0612924-1.9148708-2.3540473.2931033-1.5276415,1.7449211-2.7575391,3.2704383-2.7705573Z" stroke-width="0"/>
      <path d="m203.8616176,114.5740553c-.1190167.3425429-.1646764.6388661-.3113835.871403-2.251852,3.5686194-5.0404842,6.5662966-9.0033365,8.2609107-.3736871.1597915-.8714079.0294861-1.3115193.0338828.2676653-.3215862.475211-.7405612.8127807-.9489441,2.1438993-1.3233584,3.9485271-2.9723667,5.4301031-5.0306651.9112436-1.2659466,2.0495962-2.3718862,3.1257434-3.5121305.1719585-.1822131.5657722-.2515.8331321-.2118362.1663592.0246693.2877976.352341.4244799.5373793Z" stroke-width="0"/>
      <path d="m158.7582909,139.3502358c-.0405817-1.5574206.9163387-2.4619801,2.152948-3.0260637,1.2856702-.5864496,2.6297581-1.2160677,4.0053532-1.3999555,3.2774678-.4381381,6.5843642-.7048836,9.8878829-.8793462,1.6860783-.0890236,3.353115.3129486,4.8536495,1.193811,2.3377721,1.3723227,2.593344,3.801121.5446385,5.5943052-1.923211,1.6833584-4.2884027,2.3595607-6.7423365,2.7308535-4.5483609.6882006-9.0113698.1753168-13.3846983-1.1624428-.8631117-.2640346-1.6726667-.7242825-2.4776356-1.1494416-.517016-.2730341-1.0046255-.6724335-.7546519-1.3602413.2470578-.6796919.8468338-.6654608,1.4436533-.5745796.138462.0211104.2802294.0204002.4711967.0331009Zm1.7128533.1534459l.0387711.1990254c.5906629.0975751,1.179735.2062286,1.7722708.2909664,3.653915.5224657,7.3083955,1.0488329,11.0102411.486748,1.6512941-.2507209,3.2624531-.6276018,4.6324661-1.6543675.9052958-.6784906.8868029-1.0285577-.1921162-1.4267582-.9278417-.3424183-1.9150444-.6340026-2.8942367-.7086221-4.7143899-.3592746-9.1909632.7367956-13.5589623,2.3927608-.2820387.1069129-.5395344.2786595-.8084337.4202471Z" stroke-width="0"/>
      <path d="m142.5223948,143.3884554c-3.481765-.3365831-7.1255254-.67766-10.6632143-1.6643482-.7169525-.1999798-1.4019537-.6348971-2.00455-1.0900902-.5858881-.4425892-.7889199-1.1442631-.4883537-1.8547429.3010229-.7115882.9294785-.9987301,1.6752661-.9393915.4718744.0375479.7345918-.1137355,1.064381-.4759338,1.2116094-1.3306323,2.8181131-2.0909541,4.5219901-2.4730899,2.9496761-.6615521,5.9234557-1.277471,8.9199693-1.6440053,1.665812-.203736,3.3984767.1282385,5.0998027.2377968.249905.016105.5000173.1204885.7380946.2142847,1.5289523.6023536,2.8358144,1.4822372,3.1269692,3.2243149.2893894,1.7315049-.7895387,2.855271-2.0464782,3.7823077-2.2126805,1.6319308-4.80508,2.1909648-7.4702193,2.492753-.7659235.0867577-1.5378928.1199121-2.4736574.1901448Zm-9.1385021-4.3115333c.0049235.091993.0098469.1840071.0147705.2760001,4.1320143.3441539,8.2144087,1.4829717,12.4045098.8281835,1.4721424-.2300537,2.9231262-.7597837,4.3027724-1.3439572.6321948-.2676928,1.0686585-.9977149,1.5938631-1.518084-.6182163-.4159187-1.1943564-1.0862108-1.8631018-1.1968733-1.5867344-.2624927-3.2270328-.4248461-4.8282565-.3308299-3.6890513.2165489-7.0884008,1.6683902-10.5657402,2.7655625-.3707171.1169895-.7067124.3440132-1.0588172.5199982Z" stroke-width="0"/>
      <path d="m238.8837734,135.8031894c-1.5398837-.0080925-3.0136321-.2741361-4.3232003-1.1459236-1.9277039-1.2832835-2.3225209-3.3039868-.9753378-5.1853152,1.1540377-1.6116458,2.710833-2.5619989,4.6427494-3.1389715,2.5882396-.7730226,5.1759296-1.434423,7.8778707-1.4895789,1.2132575-.0247601,2.4805613-.029355,3.6353623.2826193,2.1008921.5675358,2.7965044,2.2943742,1.7940011,4.2184838-1.3886012,2.6651388-3.6381317,4.4201874-6.4441852,5.317808-1.9938895.6378525-4.1017874.9193712-6.1587904,1.3599301-.0161566-.0730243-.0323133-.1460277-.0484699-.219052Zm10.0895104-8.0619232c-.0155645-.1083572-.0311289-.2167353-.0466933-.3251134-.8345855-.0045791-1.6996435-.1545261-2.4981808.0128687-2.6483899.5551639-5.2744828,1.2178208-7.9052779,1.855092-.6360775.1540763-1.2644541.348519-1.883482.5618338-.6401943.220639-1.4753786,1.2801841-1.3776991,1.8088121.1535934.8310521.9195413.8849892,1.5342743.9578814,2.6849278.3182737,5.2968471-.0721257,7.8049138-1.0540627,1.9028255-.7449682,3.2249578-2.1936613,4.372145-3.817312Z" stroke-width="0"/>
      <path d="m91.0829752,137.9729139c-3.9954088-.2635315-7.3238795-.4479948-10.416748-1.7950347-1.0240389-.4459992-1.9989701-1.1158176-2.82732-1.8691689-.854053-.7767353-.5258539-1.3839266.1098457-2.3324172,2.2145937-3.3042224,5.7766477-3.3738781,9.101681-3.9361651,2.4955317-.4219938,5.0194707-.1846859,7.5032781.3345665,1.5706437.32834,2.8969041,1.0532997,3.8303303,2.3909646,1.7503586,2.5084264.5993789,5.8355658-2.3734441,6.5273388-1.8237297.4244013-3.7234862.5221449-4.927623.679916Zm-1.4284992-2.4242516c1.9409931-.2487541,3.5620799-.3933391,5.152791-.6971031.506543-.0967319,1.1539833-.5207127,1.3454826-.9640247.325778-.7541658-.0006211-1.5713693-.715404-2.0197167-.7140204-.4479031-1.4983699-.8379903-2.3043957-1.0743607-2.17561-.638073-4.4152694-.496861-6.6411445-.3430192-1.9861234.1372796-3.8963392.6191148-5.6567703,1.5565928-.3610281.1922628-.6558133.668458-.7753244,1.0743769-.0463118.1573331.4524338.5210593.7502329.7198082.2546985.1699879.5679177.2895143.8709509.3441182,2.7456216.4943859,5.4947017.9695928,7.9735815,1.4033284Z" stroke-width="0"/>
      <path d="m61.2966475,122.9111352c2.7521967.1440163,5.3696983.243134,7.7731327,1.3921265.9113909.4356983,1.8381672.9875913,2.5299227,1.7060517,1.9565216,2.0320384,1.5670867,5.0238279-.7748878,6.6024224-1.9156522,1.2912238-4.0822883,1.7564362-6.3096951,1.3376196-2.9698831-.5583662-5.9359678-1.2198066-8.8227135-2.1019452-1.4023263-.4285205-2.6589677-1.4027143-3.9029198-2.2458897-.483455-.3276775-.8603725-.9332673-1.0730743-1.493084-.1218227-.3206423.0859071-.8753647.3209081-1.1959145.3139876-.4283044.8297942-.7016868,1.2041696-1.0938837,1.4661451-1.5358869,3.3934639-2.0656023,5.3695016-2.4398315,1.2603042-.2386772,2.5488391-.3282891,3.6856558-.4676717Zm4.8266266,8.8101187c.7128498-.2211415,1.8534411-.424888,2.8505895-.9184605,1.6159842-.7998395,1.6809091-2.2963835.2564267-3.3995339-.2689497-.2082944-.5646328-.4030915-.8780327-.5297868-4.90026-1.9809338-9.8073686-2.3202025-14.7128682-.0152293-.7981359.3750122-.8879668,1.1662069-.1276766,1.6525503.6118953.3914464,1.3057993.6705858,1.989303.9314972,3.2831632,1.2531418,6.7170863,1.8167996,10.6222582,2.278963Z" stroke-width="0"/>
      <path d="m44.4723063,124.2024029c-.7933107-.7040322-1.339953-1.4208581-2.0638403-1.7922329-3.526678-1.809376-7.1838752-3.2806943-11.2267374-3.3325744-1.0003064-.0128448-2.001585.3195759-3.0084389.4448329-.5896988.0733679-1.3421331.3812492-1.6278471-.4473001-.2580488-.748315.277131-1.1834958.9020276-1.4302911,2.3549994-.9300242,4.8218001-.9113757,7.2736953-.6752386,2.9379445.2829426,5.6830362,1.249207,8.2287404,2.7499726,1.2741447.7511654,2.3689661,1.7013332,3.093324,3.0192607,1.0590051,1.9267855.3917382,3.30666-1.7325261,3.8303276-2.6563718.6548408-5.2289203.2019593-7.7880388-.4515895-3.6145992-.9231239-7.0600144-2.2838977-10.2919157-4.1630201-.4914606-.2857624-1.0201679-.5212401-1.4697942-.8616424-.5344806-.4046656-.895803-.9743099-.455236-1.6299696.4478309-.6664763,1.1094789-.5189867,1.6778333-.165819,3.432706,2.1329631,7.1957577,3.4632664,11.0514193,4.5597196,2.1476389.6107363,4.3138811,1.1760947,6.5775527.6244368.1906265-.0464671.3745812-.1203007.8597819-.2788725Z" stroke-width="0"/>
      <path d="m215.8665393,138.1693946c-.8187725-.105764-1.9854512-.2125146-3.1349141-.4163974-1.3518929-.2397846-1.7281698-1.3613072-.878166-2.463191.0684766-.0887819.1231935-.1946785.1591344-.3010974.6543082-1.9373796,2.0908624-3.1738686,3.7853135-4.1471705,2.2856892-1.3128976,4.6344384-2.4913356,7.2880591-2.8768116,1.3930712-.2023821,2.7448898-.0254525,4.0066585.6082562,2.0349152,1.0219949,2.5027027,3.3075533,1.015236,5.029938-.4242552.4912457-.9312215.9420696-1.4766827,1.2924796-3.1687188,2.0357329-6.6286753,3.1695942-10.7646388,3.2739941Zm-1.0629304-2.8271646c3.796079.0751314,7.0581809-.8742696,10.0336817-2.8219051.2599813-.170203.4831828-.4019743.7055507-.6231452.4381822-.4358597.3167485-.8331452-.2362719-.930891-.7460289-.1318774-1.5581058-.2890997-2.2728347-.1284548-2.7958163.6284854-5.3437163,1.8189088-7.5107162,3.7389557-.2061233.1826544-.3799192.4018074-.7194096.7654405Z" stroke-width="0"/>
      <path d="m197.7369599,140.4936938c-3.6222268-.1479306-6.4750754-.3246705-9.1659286-1.4423771-.3498807-.1453389-.720031-.3856893-.9314638-.6868917-.3186157-.4538237-.3270541-1.0014954.1785134-1.3730828,4.2781443-3.1447026,9.0660896-4.6326028,14.3795431-4.3622588,1.3410556.0682006,2.5852015.4568283,3.6589108,1.3003271,1.3883447,1.0907333,1.5175992,2.6562903.3067157,3.9444017-1.1512229,1.2246829-2.6762206,1.7580309-4.2520088,2.0636373-1.6192814.3140236-3.2747409.4415274-4.1742817.5562442Zm-5.7545335-2.9505098c-.0076098.0958435-.0151987.1916872-.0228087.2875517,1.897379.1331225,3.8048992.450086,5.6892625.3464524,1.7980721-.0989093,3.5834063-.588346,5.3500207-1.008324.5634296-.1339565,1.0491365-.5948733,1.5704065-.9061817-.0374688-.1078696-.0749169-.215718-.1123858-.3235666-4.411408-1.6475679-8.4754212-.3016301-12.4744952,1.6040683Z" stroke-width="0"/>
    </g>
  </g>
</svg>