<?xml version="1.0" encoding="UTF-8"?>
<svg id="b" data-name="Layer 2" xmlns="http://www.w3.org/2000/svg" width="144.16" height="308.218" viewBox="0 0 144.16 308.218">
  <g id="c" data-name="Layer 1">
    <g>
      <path d="m117.905,56.848c3.421-.867,6.527-1.206,9.445-3.67l-.386-.362c-4.648-.51-8.937,2.293-13.483,1.356,6.476-7.354,13.312-14.376,19.831-21.629.772.79.791,2.077.937,3.154,2.712,10.825-1.831,21.165-7.227,30.91.013.121.02.288.04.386,5.079-4.304,6.719-11.865,8.755-17.987.607-.81.156-1.938.736-2.796-.014-2.301.52-4.434.397-6.73-1.751-46.407-59.826-24.043-63.917,8.631v3.311l.839,1.343c.562.14.871.194,1.146-.054.219-3.892.348-8.835,2.749-11.856,5.527,6.165,13.958,9.344,19.405,15.584l1.233.149c-.417.284-1.177.895-1.443.151-4.469-1.193-9.067-.964-13.294,1.035-1.879,1.745-3.696.144-5.802.127-4.486-1.327-9.228-1.111-13.758.033-3.876-2.09-8.165-2.646-12.426-1.906-1.828.49-3.505,2.09-5.494,1.912-4.664-3.476-10.254-2.479-15.291-.343-4.04-2.979-9.391-3.497-13.895-1.349-.444-.48-1.146-.309-1.783-.268-.188.148-.386.305-.523.414-.245,5.87.704,11.488,1.221,17.268,1.908,9.144,2.538,18.47,3.561,27.791,3.984,26.038,3.084,53.158,6.699,79.396.403,3.748,1.066,7.62,1.945,11.254-.018,1.027.536,1.909.566,2.975l1.019,1.014h1.189l.828-1.612c3.649,5.435,10.04,3.792,15.19,4.929l-.832,1.253v.835c3.215,4.341,9.949,5.783,13.409,9.695-5.545,2.971-6.639,11.899-.407,14.563l-1.116,1.895c-.141,3.444.126,6.981,1.157,10.18.2,2.214,1.048,4.39,1.294,6.642,1.144,4.598,2.195,9.33,2.734,14.105,1.022,5.272,1.745,10.396,2.428,15.685.915,1.706-.202,5.715,2.201,5.99.55-8.72-1.707-18.338-2.608-27.167-.777-8.979-2.875-17.575-4.298-26.489,1.285.24,2.562.808,3.842.368.012-.192.023-.375.032-.53-8.027-5.422-8.87-9.258.379-14.097v-1.417c-4.157-2.613-7.704-6.589-12.013-9.348,1.968-.545,4.013-.272,5.966-1.025,4.463,3.215,9.097.675,13.003-2.023,2.165,1.39,1.584,1.853,5.695,2.675,2.138-.215,4.007-1.025,6.097-1.471.045-.129.105-.303.147-.428l.585.49-.531.214c-3.194,3.031-6.6,6.211-9.201,9.856-1.064.29-2.765.953-2.631,2.309.605.701.606,1.921,1.194,2.518l.503-.288c7.047,2.986.533,10.664-1.657,14.543l.476.886c8.142-.431,11.901-14.504,4.63-18.682,2.171-4.521,7.697-6.477,9.938-10.895l-.651-1.007c-.411.031-.864.049-1.241-.27.321-.623.861-.43,1.325-.336l.091.289c4.689,2.297,9.085-.399,13.794.338,3.807-.262,9.603-1.088,10.115-5.785l-.816-1.076c-.076-1.554.784-2.984.865-4.515.842-2.187.752-4.762,1.526-6.984,3.676-24.576,6.355-48.995,7.972-73.833.606-15.621,3.819-31.508,2.713-47.036-.078-.096-.319-.384-.407-.483h-1.504c-.788.442-.637,1.489-1.294,1.911-1.092-2.675-4.552-2.521-6.279-4.224,1.48-.05,2.951.06,4.367-.393Zm-19.953-2.624c-6.055-5.772-12.755-10.697-19.434-15.713,2.789-4.708,6.327-9.135,10.496-12.654.051-.196.192-.321.406-.358,12.826-11.453,38.164-16.167,43.536,5.198-8.429,7.627-16.501,15.778-23.766,24.594l-.168,1.786c-3.198-.397-6.004,1.551-9.063,1.572l.347-1.15-.593-1.676-.022.042.022-.043-.009-.028-.046.054-.122-.061.02-.139.105.024-.011-.031h.098l.056-.106.046.023-.043.083h.702l.867,1.533.551.052.944-.992c.118-12.038,1.579-24.147.343-36.254-.272-.395-.51-.646-1.061-.527l-.469.459c-.209.836.091,1.695-.39,2.483-.106,10.16-.44,22.536-.643,32.846-3.952-9.626-5.568-20.461-10.628-29.473h-.375c-.042.204-.169.336-.363.377,1.491,8.813,6.143,19.513,9.581,28.129-.291-.041-.663.116-.914-.05Zm15.241,3.085c-.822.433-1.659-.107-2.479-.327.318-.484.575-1.042,1.38-.908l1.099,1.235Zm.362,5.153c2.308.345,3.955,2.881,6.368,1.45-2.469,29.836-3.234,59.87-6.845,89.725-.655.722-.07,1.829-.711,2.602-.22,2.271-.596,4.503-1.192,6.662-.701,6.023-2.755,11.896-3.242,17.936-.915,3.692-1.176,7.663-1.218,11.509l.783,1.011c-.616,1.112-1.886.921-2.801,1.552-5.294-.657-10.337,2.458-15.474,1.066-.609-.551-1.528-.081-2.215-.533-5.044,2.009-9.073,4.498-13.7-.137-2.647-.266-4.403,1.711-6.814,2.345-3.648.755-6.646-3.61-10.144-.807-3.847.3-4.664-.369-7.92-1.143-6.63,1.818-12.855-1.157-17.761-5.429-.037-4.293-1.261-8.402-1.28-12.664-.623-2.321-.643-4.749-.793-7.172-.847-2.151-.212-4.756-1.096-6.891-1.767-15.526-2.246-31.389-3.581-46.877-.486-11.358-2.121-22.614-2.856-33.944-1.31-6.839-1.45-14.041-2.703-20.84v-2.446c4.784-2.659,8.508-1.095,12.773.917,2.443-1.112,5.662-2.616,8.122-2.388,2.24-.107,4.766.546,6.485,1.909,3.81.393,7.53-1.746,11.368-1.04,7.253,3.133,13.072,1.472,20.69,2.377,3.896,1.863,8.276.233,12.381-.399,2.829-.175,5.579.542,8.116,1.914,2.431.315,4.763-1.15,7.082-1.482,2.687.537,5.533.297,8.182,1.216Z" stroke-width="0"/>
      <path d="m99.713,55.823l-.022.043s.022-.042.022-.043Z" stroke-width="0"/>
      <path d="m64.258,285.976c1.68-1.043,2.786-2.487,2.47-4.408-4.214-2.095-9.874,5.012-13.046,7.77-7.444-1.008-15.243-.95-22.589.882-5.863,1.144-11.692,10.251-3.683,13.105,24.667,5.709,50.86,5.754,76.054,3.519,8.11-.853,15.169-9.77,5.144-14.255-5.585-2.057-11.279-4.399-17.295-4.866-.643-.507-1.441-.261-2.195-.316l-.968.5v1.111l.978,1.056c5.881,2.467,20.162,4.075,22.37,10.006-2.106,8.997-77.931,4.46-84.015-1.802,6.013-8.974,19.641-5.114,28.8-5.316.55-.427,1.111-.83,1.306-1.403l-.305-.641c1.874-2.127,4.748-3.188,6.974-4.941Z" stroke-width="0"/>
      <path d="m144.084,41.949c-2.88-55.194-70.205-36.425-75.751,6.5.628.613,1.331,1.302,2.05,2.004l.309-.139c-2.362-34.992,61.396-61.054,68.591-17.698.256,2.413,1.219,4.792,1.255,7.261,3.963,12.778-7.632,21.994-13.76,31.69l.648.68c9.436-6.208,17.609-18.683,16.658-30.298Z" stroke-width="0"/>
      <path d="m3.806,6.613l.028-.121c1.237.249,2.045-.789,3.116-.858,12.249,14.517,21.754,32.719,35.631,45.192l.651-.706C32.184,33.821,19.016,19.07,7.272,3.189l-.105-1.502c-.54-.634-1.053-1.272-1.746-1.686h-1.275l-1.153.686-1.339,2.563-.828.468-.826,1.837c10.8,14.827,21.538,31.671,35.743,44.093l.425-.433C25.295,35.411,13.741,20.845,3.806,6.613Zm-.982-2.733c.255-.903,1.033-1.046,1.653-1.458.631.712-.037,1.06-.304,1.555l-1.349-.097Z" stroke-width="0"/>
      <path d="m72.507,243.571c-.984,8.432-1.441,16.965-2.223,25.415.361,1.512-1.105,9.863,1.519,10.135l.468-.51c.897-15.836,3.914-31.578,3.961-47.524l-.785-.789c-2.917,3.157-1.928,9.024-2.94,13.274Z" stroke-width="0"/>
      <path d="m72.417,280.257c-4.875,5.242,8.851,8.321,10.968,12.65,10.189,2.22-6.413-14.532-10.968-12.65Z" stroke-width="0"/>
      <path d="m129.094,43.674c-1.936,1.267-4.724,2.41-5.608,4.581.173.547.619.586,1.005.787,2.657-.731,4.559-1.766,6.521-3.896v-1.033l-.469-.438h-1.448Z" stroke-width="0"/>
      <path d="m46.897,177.438c-.43-23.126-1.113-46.303-3.161-69.129-.059-8.044-.234-16.188-.791-24.101-.791-6.829,1.822-15.976-2.311-21.5-.776.428-.679,1.232-1.471,1.562-.685-.355-1.353-.445-2.147-.365-2.071,1.374-3.965,3.303-5.631,5.732v2.126l.526.498c3.64.483,4.557-4.614,7.594-5.521,1.018,20.253-.138,41.099,2.119,61.1,1.832,18.462-.277,37.232,3.284,55.477.371.695.601,1.512,1.553,1.279l.788-.89c.213-1.776-.375-4.589-.354-6.268Z" stroke-width="0"/>
      <path d="m58.369,69.564c.038-2.105.011-4.184.011-6.268-.455-.564-.191-1.569-1.07-1.743-.555.243-.662.988-.99,1.505-.334,3.661-.049,7.698-.714,11.266-1.978-1.048-3.961-2.746-6.307-2.458l-.557.639.533,1.245c1.491.938,4.232,2.631,6.096,2.148.266,24.731-1.355,49.733.15,74.485.91,13.947-1.63,29.426,2.476,42.475l.36-.416c-.468-40.609-1.89-82.474.012-122.878Z" stroke-width="0"/>
      <path d="m71.494,66.653c-.616,1.083-.181,2.251-.773,3.323-.073,2.515-.649,4.886-.518,7.445-1.218,35.898-5.409,73.705-4.664,109.464.422.502.839,1.036,1.378,1.304.526-.252.683-.948,1.034-1.43.988-22.77,1.356-45.698,2.091-68.523,1.331-17.4,3.079-34.651,3.013-52.207-.178-.3-.348-.585-.539-.904-.674.3-.843.897-1.022,1.526Z" stroke-width="0"/>
      <path d="m99.655,94.632c.003-1.082.05-2.213.058-3.298.932-6.847,1.321-13.931,1.524-20.923-.43-.488-.237-1.261-.765-1.619-.466.224-.494.85-.808,1.24-1.985,13.685-2.517,27.503-4.41,41.226-1.715,16.41-4.637,32.594-5.601,49.093-1.058,6.86-.909,14.141-1.794,21.087.109,2.692-1.028,7.205,1.002,9.184l.518-.132c1.912-32.408,7.406-63.873,10.277-95.859Z" stroke-width="0"/>
      <path d="m88.151,101.828c.408-1.941.154-3.939.757-5.843.281-3.616.485-7.499,1.185-10.954.93.048,1.359,1.054,2.402.734l1.221-1.275v-3.704l-.745-1.28-1.314-.371c-.3.212-.769.367-1.104-.198.672-3.677.647-7.602,1.547-11.219l-.485-1.015h-.948c-3.536,11.699-3.716,24.83-5.328,36.936-2.804,24.667-4.633,49.64-5.917,74.465.335.393.313,1.055.853,1.22l.761-.847c-.002-.533-.109-1.998.364-2.388.214-9.133,1.618-18.037,2.052-27.133.787-5.21,1.378-10.57,1.522-15.922.748-1.333.306-2.841.459-4.279,1.197-8.882,1.632-17.912,2.719-26.926Z" stroke-width="0"/>
      <path d="m36.148,171.861c-4.106-35.804-4.136-72.328-8.339-108.223-.067-.17-.545-.771-.717-.933h-1.136l-.522.558c.512,20.905,2.978,41.795,5.162,62.39,1.458,18.781,1.765,37.651,5.303,56.16.329.009.475-.32.66-.608.238-2.617-.575-6.768-.412-9.344Z" stroke-width="0"/>
      <path d="m109.953,85.073c-1.211,9.453-1.117,19.612-2.815,28.78.248.491.533.889.011,1.161-.789,16.453-3.545,33.225-5.496,49.518.033,3.516-.967,6.971-.875,10.535-.667,2.642-.652,5.569-.799,8.357-.563.757-.336,1.483.098,2.302,4.977-31.902,8.074-64.526,12.261-96.54.101-4.628,1.164-9.129,1.261-13.775.347-2.835,1.384-6.197.304-8.963-3.107,5.597-2.903,12.481-3.95,18.626Z" stroke-width="0"/>
      <path d="m105.423,111.153c-1.405-.264-2.773-.022-3.025,1.588.246,2.201,2.489,3.62,4.446,2.098.34-1.403-.264-2.962-1.421-3.686Z" stroke-width="0"/>
      <path d="m106.339,78.261c2.083-1.759,3.128-4.523,3.209-7.171l-.659-.773h-1.315c-1.014,2.173-2.649,4.459-2.378,6.962l.534.906.609.075Z" stroke-width="0"/>
      <path d="m62.915,68.338c-1.455.175-2.423,1.369-2.569,2.782.905,3.405,4.239,2.394,5.163-.253.195-1.525-1.398-2.291-2.594-2.53Z" stroke-width="0"/>
      <path d="m63.535,97.569c.054-1.33-.19-2.289-.889-3.428l-1.096-.313-1.28.382-.707,1.221c-.04,1.811.937,2.694,2.532,3.016.547-.209,1.12-.371,1.44-.878Z" stroke-width="0"/>
      <path d="m48.04,109.864c0,.782-.003,1.568.005,2.39.079.065.193.055.289.085,1.098-.671,1.749-1.741,2.364-3.076.651-.181,2.169-.597,2.479-1.291-1.659-2.635-4.366-.296-5.137,1.892Z" stroke-width="0"/>
      <path d="m34.687,95.283c-1.329.337-1.479,1.594-1.335,2.768l1.255,1.182h1.525l.787-.827v-1.927l-1.259-1.196h-.972Z" stroke-width="0"/>
      <path d="m49.058,93.664h1.672c.593-.367,1.452-.554,1.33-1.419-.852-1.52-2.854-1.457-4.39-1.31l-.444.546c-.234,1.211.735,1.849,1.832,2.183Z" stroke-width="0"/>
      <path d="m81.763,77.433l1.248-1.311c-.036-.687-.342-1.198-.71-1.739-.364-.169-.728-.345-1.12-.52-.001.003-.058.008-.095.008-1.121.35-1.437,1.16-1.257,2.261.434.666,1.003,1.048,1.935,1.302Z" stroke-width="0"/>
      <path d="m37.009,127.819l-.465.523c-.107.536.139,1.388.479,1.809.577.309,1.326.814,1.907.03v-1.885c-.167-.178-.315-.335-.445-.476h-1.475Z" stroke-width="0"/>
      <path d="m63.537,116.755h-1.077c-.616.433-.802.998-.962,1.686l.565,1.057h1.399c.167-.888.997-2.008.075-2.743Z" stroke-width="0"/>
      <path d="m91.281,114.45c-.258.133-.5.258-.721.371l-.321.741c.299.622.483,1.232,1.362,1.151.381-.303.807-.572.905-1.033l-.48-.897-.745-.334Z" stroke-width="0"/>
      <path d="m75.51,109.532l-.398.421c.254.378.484.703.951.822.274-.266.299-.581.098-1.2l-.651-.043Z" stroke-width="0"/>
      <path d="m36.234,126.76l.301.323c.98.259,1.076-.767.375-1.115-.307.207-.574.391-.676.792Z" stroke-width="0"/>
      <path d="m109.163,45.971c-.845,2.458-1.192,5.055-1.967,7.48-.013.561-.101,1.154-.009,1.689.106.005.186.009.258.012,4.495-11.249,8.21-23.031,11.313-34.756.345-.5.551-1.358.206-2.094l-.511-.051c-4.417,8.49-6.11,18.592-9.289,27.72Z" stroke-width="0"/>
      <path d="m107.194,32.362c.014.051.093.143.136.207h.534c2.59-2.745,1.788-7.569,3.248-11.081l-.42-.483h-.773c-2.372,3.214-2.899,7.478-2.725,11.357Z" stroke-width="0"/>
      <path d="m96.04,29.149c.024,1.154.222,2.414.745,3.409-.027.699.494,1.483,1.2,1.6,1.078-1.44-.062-3.014.089-4.555-.413-1.739.178-4.3-1.451-5.366-1.518,1.286-.702,3.282-.582,4.911Z" stroke-width="0"/>
      <path d="m122.703,29.889c.821-1.651,2.431-3.203,1.93-5.137-1.801,1.917-2.354,4.75-3.942,6.899.815-.285,1.474-.863,2.012-1.762Z" stroke-width="0"/>
      <path d="m93.309,45.689c-2.89-3.367-5.071-7.211-7.402-10.956l-1.112-.557c-.588.123-.619.702-.893,1.128,1.77,4.212,4.467,8.8,8.506,11.172.419-.083.877.161,1.248-.113.049-.282-.218-.444-.347-.674Z" stroke-width="0"/>
    </g>
  </g>
</svg>