<?xml version="1.0" encoding="UTF-8"?>
<svg id="Layer_2" data-name="Layer 2" xmlns="http://www.w3.org/2000/svg" viewBox="0 0 32.8390845 39.0553615">
  <g id="Layer_1-2" data-name="Layer 1">
    <path d="m15.9674453,13.821518c.448987-1.4102666.8263479-2.6566745,1.247574-3.8880556.1661249-.4856548.4280508-.938802.6510106-1.4045241.0559168-.1167915.2064616-.2441288.183903-.3341816-.3025953-1.2094307.6862754-1.784707,1.2404562-2.5709979.5016177-.7117177.9651824-1.4566337,1.5275252-2.1170419.409973-.4814436.9528149-.8498326,1.4373008-1.2675884.1920294-.1655783.3978889-.3167661.5779638-.4942597,1.2528073-1.2348701,2.7493305-1.7806945,4.5026457-1.6088588.0836583.0081984.1827049.0821256.2446366.0555789.901294-.3863628,1.731617-.1505811,2.4675122.3702094.9186474.6501283,1.4289124,1.631074,1.8278572,2.6515955.1886062.48249.2649467,1.0109784.3724548,1.52277.8979665,4.2747074.7405141,8.5484003-.2566279,12.7664363-.5251533,2.2214933-1.2989415,4.3965976-2.4646286,6.3929851-.1491203.2553609-.3956144.4546496-.6014548.6757412-.1478848.1588059-.4201105.2988109-.4372027.4674551-.1760336,1.7369242-1.5418605,2.7836273-2.355357,4.1476849-1.4825465,2.4859368-3.8465384,4.1351291-5.8199338,6.1549678-.1780651.1822576-.3624153.3583793-.5258596.5196326.1883861.4586119.4028029.8413187.5010739,1.2518281.1547493.646583-.0565628,1.1360162-.6271097,1.5756815-.5329266.4106651-.9903196.4803527-1.5512255.1895187-1.4404645-.7469016-2.7937576-1.5852716-3.7361938-2.9786421-.3571023-.5279649-.9060371-.9225389-1.3404313-1.4024636-1.0821663-1.1955402-2.2034456-2.3615593-3.2074671-3.6204563-1.1950924-1.4984404-2.3189596-3.0573498-3.4111421-4.6334147-1.6887032-2.4368441-3.1316968-5.0127929-4.2953403-7.7487491-.8327597-1.9579832-1.6187579-3.9382816-1.8485579-6.0542483C-.014766,9.8099461-.223027,7.13995.4435418,4.5422225,1.0682332,2.1075859,3.6875014.775605,6.0097185,1.9120978c1.5696947.7682159,2.8099042,1.941366,3.9182064,3.2258816,1.5385651,1.7831587,2.9625041,3.6645405,3.9777991,5.8211812.4747656,1.0084721.9963255,2.005006,2.0617214,2.8623574ZM4.8163305,5.9527268c-.1039366.3217421-.1782609.4773643-.2033235.6405579-.376696,2.4542677-.0831717,4.8755712.4936889,7.2548637.6408224,2.6431119,2.0511825,4.9812936,3.1884883,7.4211173.5091074,1.0921518,1.3300526,2.0356772,1.9712726,3.0703453.6266267,1.0111173,1.2057918,2.0417587,1.9774902,2.9662158,1.1053508,1.3241816,2.1049486,2.7362566,3.1648261,4.0990293.4068325.5231083.8552303,1.0138801,1.3725292,1.6227962.5625432.0055477.562604.0083832.9151901-.4035428.5388019-.6295403,1.0727675-1.2642597,1.6350649-1.8724716,2.698854-2.9192576,4.9628461-6.14775,6.8548971-9.6387282,1.4245523-2.6283935,2.3093172-5.4093045,2.5573759-8.4155142.1481568-1.7956131.7313965-3.5451021.262634-5.389048-.2447088-.9625914-.2090318-1.9935657-.4097775-2.9711101-.1819638-.8861567-.526758-1.0415118-1.3997727-.9549246-1.0927828.1083788-1.9770685.6089126-2.7767002,1.3312341-1.0093159.9116978-1.6070454,2.1321492-2.4461027,3.1624671-.7175227.8810775-1.1156805,1.8540421-1.4101607,2.9034411-.200049.7128944-.366534,1.4357129-.5311786,2.1579472-.2789343,1.2235769-.4762771,2.4706021-.8344833,3.6699494-.3781142,1.2660614-.1939176,2.795244-1.8082493,3.5227725-.8475106.3819546-1.5514426.5487051-2.1928957-.1124179-.4537761-.4676612-.9388796-.941266-1.2545857-1.500053-1.131277-2.0023015-2.4846885-3.8631639-3.665769-5.8260792-1.1797507-1.9607432-2.4915458-3.7821254-4.0942751-5.402609-.4190992-.4237337-.85184-.8339879-1.3661833-1.3362385Z" stroke-width="0"/>
  </g>
</svg>