<?xml version="1.0" encoding="UTF-8"?>
<svg id="Layer_2" data-name="Layer 2" xmlns="http://www.w3.org/2000/svg" viewBox="0 0 468.9676101 321.2232658">
  <g id="Layer_1-2" data-name="Layer 1">
    <path d="m273.1479492,3.366761l-.0639648-.2419434h0l-.0209961.2644043c-17.4972255,4.4215919-35.5585839,11.7394148-42.1805777,29.6540141-4.2846226,8.577707-4.2679653,24.9908581-12.5557504,31.2883688-3.9460402-3.6591182-7.0866487-2.4962858-11.2320228-2.6089084-3.9452322-1.8294535-7.9219776-1.3560672-12.1473718-.9623807-6.8892031-11.3710504-9.329922-26.1944604-19.2185881-35.0120069-4.5063671-5.3726731-11.8914297-7.6388984-18.2159689-10.4053796-10.0223162-3.6104609-20.909636.9739691-31.2749318.8745764-8.1936752.7410454-16.3529709-2.0223002-24.5196705-2.4292504-4.272097-.4496627-8.7032915-.6989432-12.757168-2.1145816-10.1161707-.2361624-21.1732553,3.1329245-26.7216948,12.4068014-9.6252258,11.2439446-18.5217674,21.1696509-19.7273223,35.4260585-2.0225427,16.3195964,11.8588482,24.7915749,6.2137989,41.872501-3.9770199,22.0882938,2.3125889,31.1764024,21.204911,43.0875823,17.8752813,9.1473432,54.0283293-3.4712675,69.2626376-14.6927351,26.7229809-15.9880817,17.5113386-41.3399259,51.9610281-55.4813395l1.4609375,3.3271484c-.9776679,2.9443654.914322,5.8674346.7049244,8.8369364.9178073,5.7711324-.1607276,11.4895668-.3208198,17.3084296-3.1789777,22.9970217-28.6146414,29.4760675-47.5121215,37.2397588-10.2116148,3.7774155-20.3202753,11.5615805-27.6787461,19.3304273-6.519106,9.8500189-11.3343575,33.6572818-7.7833723,44.5141522,2.6624834,15.9264496,13.578859,28.3418658,23.9010248,39.7362426,8.6579554,8.5027603,17.8817484,17.5157668,20.4410636,29.7821001-12.7994284,25.4282895-35.7144623,36.6053781-63.5827695,29.3940652-13.3949597-3.3934645-26.8521219-7.2047467-37.2430044-16.2527882-7.4299246-4.748749-10.2377745-13.5259859-14.3385821-20.8667234-.0761796-1.9116628-.3458118-7.0167154.5784149-8.7800896.3378384-6.0769536,5.1722089-10.1230167,7.4926049-15.500342,2.7567704-7.9922803,9.8406753-13.0387669,11.6767443-21.4267072,6.0311851-15.4887999-3.3180186-35.6043148-19.766143-40.3905042-12.3574111-4.3549633-26.608203-6.8907766-38.9847455-1.0021059l-.199707,1.3046875c6.7501161.6338269,12.9832166,3.3192196,19.4150391,5.5166016-5.9407775,5.9280049-10.7187347,8.825557-13.6689453,18.6669922l.8032227,1.6269531c5.545512.1247626,10.1601642-5.2292876,15.2106851-7.3367735,8.0671514-4.5311911,20.189762-2.0439894,25.1714294,6.0204799,7.1991711,10.5552097,2.5893954,24.1260132-2.2156216,34.7017869-2.2656904,7.1702842-8.4664431,13.2928239-9.4736287,20.7289256.1275026,8.9302356.9179649,18.2409608,5.2709955,26.3460408,8.1502233,9.3162725,18.317193,18.9357926,29.3340785,24.0518383,10.9988519,5.3153139,26.0379762,8.8795406,38.8460856,9.3598321,4.4737407,1.3318391,9.5333664.4294225,14.1866695-.1033012,2.9195134-.34224,5.1473718-2.8458159,8.0405223-3.3881604,9.1512426-3.2897682,19.978044-12.4318934,25.1822016-20.8712067,9.0727478-11.510159,6.6860363-25.9952556,4.404176-40.1064416-2.0994838-14.2130043-12.4609538-24.0677205-21.8906112-33.86826-12.2951489-8.742482-23.2857442-21.5050621-25.1067394-37.0196387,2.3565991-26.6275916,46.0226461-34.6351614,66.3649061-42.75777,11.2453244-3.8382966,17.2202757-16.04888,21.4084362-26.6197181,5.3472838-11.3127628,1.4815728-27.4108517-3.5338778-39.091735.1841497.0259137,11.4526256,1.6600069,11.6176758,1.6816406,10.9213451,27.3202761,16.9662474,44.322845,13.5016298,74.9658006-1.514716,15.082546-6.3394242,30.0957143-2.9740868,45.3231188,3.6117585,15.7312832,19.1643076,33.5054155,32.1083569,42.6705321,8.9759425,6.4663949,22.4937062,11.6146497,34.177556,12.3726225,2.3799009,1.2391493,5.250821.4210178,7.7553429,1.5811487,2.6061117.6572607,5.5595064-.7342204,8.2550096-.5326222,6.9952751-.2153863,14.0451454-1.346205,20.9423132-2.3346877,3.8630856-1.778415,7.623982-3.901843,11.5104216-5.5997829,12.9907222-6.0284645,25.9740104-15.0363589,33.7399971-26.9732314,7.619694-9.0077493,11.9131222-21.8224401,18.6514729-31.6233235,11.4384959-15.0544011,32.9371275-27.6165772,50.9759782-16.9348799,11.5525586,6.7988894,16.0951209,13.9592107,19.9287739,26.583377.6741369,12.0979399-3.5622481,24.5408518-12.7558601,33.2411917-3.4486729,3.8508017-9.1252112,4.1166814-14.0696613,4.6007938-11.7407734,1.5013014-21.5043221-.3101606-32.2161422,5.0106942-23.8717007,6.1006012-24.8663599,22.7618538-32.5198402,42.579087-3.5595003,7.2496663-4.4194988,15.8932329.6431834,22.4524514,4.8015656,4.9076221,8.7042862,11.1301582,16.691238,10.4870919,8.9557672,1.5893181,17.4137423-1.8819868,26.1862467-3.2477134,5.4658942-1.0298047,9.1836577-4.2282234,14.3524482-5.5032156,2.9781346-1.3409701,6.1785158-1.1350066,9.0692353-2.3518515.1699219-2.0820312-.0327148-3.6552734-1.4677734-4.9892578-6.7989287-1.0590787-13.4656805.7217512-20.2636719-.2275391,4.5400734-6.9785827,4.5929881-16.4985235,3.0678711-24.4414062l-1.0180664-.6171875-1.8461914,1.0673828c-.0136719.0283203-.03125.046875-.0288086.0458984-.9742194,18.1278942-26.0990394,37.8928673-39.5585938,18.3759766-4.4831096-15.7819317,9.6886354-28.3677609,21.2159001-38.4237131,15.8821939-10.0956494,35.2967529-10.2028911,51.9162766-18.6324359,13.7372615-6.5084423,24.068694-20.4210925,23.2264641-36.2036092,1.3735201-7.5541975-1.1086383-13.4495323-2.1960778-21.2873422-.6761173-3.2686634-3.3926268-6.0091061-5.2914408-8.713099-12.3816951-18.4012485-39.3533231-23.2168879-57.6478923-11.0229219-11.1184056,6.9228698-16.4652671,19.3328956-21.8169131,30.6782973-13.9368512,27.1508492-48.0126498,48.6138472-78.6475553,49.0716892-12.6473392.841217-25.8454958-2.9622827-38.078946-6.370953-31.0593002-5.969292-35.0177335-27.7953325-31.0501543-55.3118073.6322556-12.782357,4.8513206-25.2797418,4.3469245-38.2794566-1.0286462-23.2285967-10.5610915-45.0874536-26.6543201-61.4841407l4.8305664-1.8808594c1.0811119.7582409,2.6468014.222124,3.0976562,2.3115234,16.0317783,10.27214,21.4549131,26.7113149,33.6286126,39.8255371,7.9481008,8.5483747,16.8470768,18.6398586,29.1404526,19.845966,12.8452174,2.3742154,25.9912862-1.5070346,38.8622432,1.5057287,10.2764187,2.4177301,21.625128,5.6443261,31.8487518,1.6638494,8.7425057-2.922992,23.5533454-9.5761819,23.7818567-21.3906843,6.7712693-33.8255618-18.0419103-29.6898043-15.6013601-58.5331778-.9386804-11.3874658-5.3031292-22.3264207-8.9754639-32.755596-2.9680341-8.6789368-9.5724465-12.1111487-18.3823826-14.9760495-10.3974944-2.6827956-14.0241941-8.9684626-24.5902916-12.3794027-11.0210453-2.6158275-21.6018551-1.8434968-32.1274578.7055478-1.2949219.3525391-2.5942383.6953125-3.8925781,1.0380859Zm139.0161133,281.1318359c.9647949,4.5312211-.0895294,10.5175301-3.015625,14.1123047-.7441406.8544922-1.1293945,1.5927734-.7456055,2.6074219l1.9072266,1.2138672c7.1847077.5165988,13.635619-1.4870223,20.9433594.7753906-15.1695631,3.7245816-29.747466,11.5520973-45.8800051,10.6596701-12.2857318.7918382-24.0507657-14.71627-17.8270262-25.3745138,1.5594084,2.0164046,1.9961556,4.5017468,2.8022461,6.8925781,9.8433495,21.3619508,35.3439809,5.2822934,41.8154297-10.8867187Zm16.5131836-44.4042969c-22.2573577,6.2335534-40.1123984,9.1106006-53.8671875,30.5136719-1.4954951-9.943114,9.2484607-20.8050961,17.9269191-24.3392706,10.5804656-4.3261408,22.1620047-8.1817781,33.6507176-6.708581l2.2895508.5341797Zm-40.5332031-59.7949219l.7949219-1.2929687-.0004883-.0029297c4.6674523-12.6968439,21.0573013-22.2556489,34.0670156-22.5490779,8.3641745.5571764,19.7659819.1288141,26.1616846,6.3152634,6.0860703,7.2146248,13.6356179,14.1181859,16.0585032,23.1093179,1.0223499,15.4476506,1.4515959,34.5769348-13.0997034,43.6069185-.4409667.2963327-1.3854668.4020775-1.8964844.6308594,6.8120514-9.7788157,11.3313808-19.7827341,10.7301106-31.2158449-1.7889309-11.1811422-7.6881255-22.3895943-17.9239221-28.0301875-16.3219854-13.5174792-39.0824076-3.1326828-52.6982783,8.4140012l-.0390625.1533203c-.1471002.026006-.3333026.1866302-.4082031.3115234-.1850603-.0400047-.5085666.0347295-.6713867.1259766l-.0019531-.0039062-1.0727539.4277344Zm-126.0888672,66.2296143c.0117187.0189209.0292969.0316162.043457.0472412-.0141602-.015625-.0317383-.0283203-.043457-.0472412Zm-14.9711914-15.7003174l1.9575195,1.1816406.0078125.03125c42.1831813,17.2847313,79.3306849,17.0760728,114.5683594-14.5654297l.0058594-.0517578c.3118465-.3227179,1.0283726-.9318909,1.4570313-1.078125l.0058594.0244141,1.2983398-.6044922c-.418938.7129973-.8522483,1.8872783-1.5786133,2.3037109-16.1667993,23.1884594-44.5019088,34.9997688-73.0048289,32.3880565-1.7809348-.3103909-3.4891152-.3037958-5.144459.2920425-5.2744238-1.6710915-10.5572306-.9046871-16.0714097-3.5828216-7.8788221-3.5394823-17.002987-7.8754775-22.9086969-14.9088007l-.5927734-1.4296875Zm-30.0083008-140.2617188c.2413707.163617,1.4298294.7741356,1.6606445.8798828l.0581055-.0341797.0668945.1582031c.6944235.2907916.8941409,1.1350179.7705078,1.6162109,10.0207805,16.0586478,17.7265046,37.2500966,14.9650124,57.1885263-2.8781938,21.768857-7.9651372,44.8314087-1.1525124,66.2938955-.265023-.2232909-1.4471971-.8466248-1.6782227-1.0371094l-.2294922-.0380859-.0151367-.09375c-8.226395-10.2340772-12.1567876-23.1219162-9.1917625-36.5117478,1.6890292-15.2909497,4.685425-30.2798791,4.2684226-45.7128616-1.053437-6.2870371.010674-11.1459415-1.6811345-17.947139-1.241351-7.4568034-4.8719755-14.2560962-6.4414241-21.49915l-.1289062-.0380859.0019531-.0429688c-.5006489-.2633921-.5944039-.9131331-.4804687-1.3671875-.1166992-.1123047-.1767578-.2529297-.1791992-.4189453l-.6132812-1.3955078ZM51.7182617,226.554261c5.7757225-12.1667751-1.9733404-29.2986804-15.8051407-31.2418014-10.1462555-3.3646699-17.208249,3.1145825-25.6299179,7.8023483l-.9667969-1.2314453c2.1347917-5.2604192,7.6875326-10.5516885,13.0952148-13.484375,1.1079102-.578125,1.8999023-1.0888672,1.9306641-2.3359375-4.5669742-3.0801107-10.9799292-3.920933-16.0878906-6.0117188,15.0121337-2.9974305,36.8089252.8062302,44.6867646,14.8888462,5.0559302,8.9966572,5.8840149,19.5659474,1.1853057,28.356271l-2.4082031,3.2578125Zm108.5786133,42.5029297c-.4878784,4.7030163-.3194455,10.2083587-1.1854849,14.7508947-6.4459644,17.2621757-22.5821376,31.7377703-41.1455133,33.5301548-23.6064395-.2000189-48.2778563-5.3965255-65.5453148-22.8552704-4.0833772-3.8524678-10.4626079-7.8292984-11.3858941-13.7802713.4560939.3475067,1.4569946.7633711,1.7856445,1.2333984l.0234375.1386719c25.5648368,27.6540306,85.6043332,41.4399355,107.96875,3.2392578,3.1692632-5.1723309,6.3277905-10.8799735,9.484375-16.2568359Zm-46.6401367-71.6992188c5.2165642,14.6574879,15.4476339,21.2237137,26.5472747,30.9418105,10.7357364,12.125642,18.7756333,20.6203594,15.6910066,38.019127-14.4284309-24.819158-39.8126085-36.4422439-43.7216797-68.1660156l1.4833984-.7949219Zm81.7597656-117.3027344l-.980957-.0224609.7910156-.796875-.3886719-1.6640625.8183594,1.2265625.4414063-.4541016,1.5126953,1.7490234-1.1069336-.0175781c4.9560034,10.0033463,6.9287399,22.5524703,2.7410637,33.3200916-4.2892184,9.7797301-8.4176265,20.6947448-18.4707304,24.86318-16.1311587,8.2972653-35.1081306,9.7890817-50.6898586,20.0635163-5.3674002,3.1481258-7.3197082,7.4538397-13.0350645,9.2991106,2.226263-2.9448591,3.5097011-6.6309491,6.9218714-8.641864,6.9716087-5.1811932,12.8482353-11.5951257,21.1950586-14.5740081,15.5122082-7.2267944,33.5139778-11.8170797,44.1599255-26.2685029,8.0001325-10.1000117,8.5577249-25.6902034,6.0908203-38.0820312Zm-76.9404297,57.6611328c.1951237-.2560225.8720922-1.3860756.9677734-1.6523437l-.0009766-.0019531c.1062632-.080579.252577-.2035644.3398438-.2939453l.0732422-.0146484c15.4049052-11.9712137,15.5465204-19.5567918,25.0284047-35.4681579,8.7390068-12.5282802,21.6458342-22.1519275,35.7201304-25.7457092l.1860352-.1992188c.2779217.121371,1.4620995-.479508,1.7236328-.5751953-.3521089.5332665-.8429824,1.6233719-1.3012695,2.0546875l-.2568359-.0273438c-31.7193803,18.7646818-16.6260126,43.183708-61.0908203,61.3505859l-1.3891602.5732422Zm-67.0488281-36.0136719c5.8804433,20.3264655,25.1658738,38.3310178,47.4799805,40.0009766-12.4372958,6.1015861-25.9681112,3.3096959-35.5192317-6.1136823-10.508951-5.9024921-12.9661079-17.3430666-12.5046941-28.4185443-.2988737-1.520103.5189481-3.8427039.5439453-5.46875ZM95.9301758,16.8472298c-2.8336958,4.4536302-12.7893293.1329674-20.6914893,8.0817897-11.60072,11.1131563-17.4310941,24.2672853-18.7455758,40.6173595-.4301077,6.4863526.0671378,12.721924-3.4350052,18.6533898-14.5136328-19.8578764-4.1202961-44.8400882,13.1552734-59.2988281.8198242-.6435547,1.6811523-1.3984375,1.8495319-2.1218488,4.8208392-8.4185623,18.2473641-7.7644655,27.0220501-6.186745l.8452148.2548828Zm97.684082,44.3271484c-4.7965572,3.1575627-3.5089616,5.4177799-3.7495117,10.3378906-17.1943118-2.9658618-40.3297766,14.855088-49.3084087,29.522533-5.4984377,7.7944707-7.2018907,19.9172116-15.2115846,26.1767308-5.6318475,4.79041-11.0616926,10.3080379-18.1968365,12.5149979-19.4058879.6171138-37.9753211-10.0432821-48.2978221-26.7542608-5.8312973-9.5514713-8.3896668-20.0923217-1.4981111-29.6806749,3.5610014-6.1846509,1.5991501-12.529913,2.2419862-19.1776815.6894965-12.468273,5.5165334-25.8572732,14.1451397-34.3294901,8.572779-10.0303252,31.6546319-10.754139,43.7570278-9.3245602,3.027348.9235104,5.8597181.1338332,8.8089876.3962973,7.8509456,2.9968838,15.186946.7126865,22.7253129,3.6766312,19.3699176,5.6014503,26.0969566,34.0884592,41.9744455,37.6220553l.1958008-2.9453125c-8.347776-.7922746-11.4465396-10.967764-16.6763923-16.5515451-10.6149567-13.7096292-22.0173091-23.9794921-40.558471-24.0334159,15.7290188-5.7432085,34.9225998.0526117,44.3646424,13.9248663,2.2139647,2.6535089,4.2454763,5.7225214,4.9195811,8.8524616,1.6319646,7.6296383,5.2680061,11.2883644,8.3202686,17.5683752l2.0439453,2.2041016Zm22.6064453,10.703125c-4.9426589,6.5045407-15.9691904,3.6762696-22.1508789-.3662109l-.9169922-4.6240234c4.1925976-3.1405634,9.4518556-2.935594,14.3378906-3.3408203l1.2719727,1.2519531c2.4417512-.9882038,4.0573266.3369818,5.7226562,1.3759766,2.2608791,1.407736,1.9683776,3.5181143,1.7353516,5.703125Zm157.7558594,36.2265625l-1.4760742.2587891c-3.812992-8.7366827-10.6140312-13.3921204-17.671127-19.4499734-11.6902083-9.0614051-9.4867989-32.2901397-10.3594691-46.0126488.3945437-9.0886563-5.4758753-16.4687524-8.8199898-24.4768309,10.9571966,3.0866873,14.9616418,17.5725239,18.4575775,25.919786,1.3774735,5.4610289,3.0382307,10.7784025,4.1521952,16.2911815.79658,7.5897087-.3758257,15.0075594,4.197971,21.9727089,5.1153181,7.8110633,11.6013985,14.8328845,11.5042681,24.9706205l.0146484.5263672Zm-63.7617188,26.9404297c15.1066852-7.0024472,33.1790283,2.5342411,47.2601526-6.5313615,6.9724262-3.2788643,11.7637368-7.3760365,15.3262732-13.0067244-.4911547,3.3533299.2163413,7.7149691-1.4346574,10.5855732-4.7644545,6.1558933-12.1455812,9.7716832-19.4927139,12.4067005-12.9739468,5.0324686-26.1089851-1.4491795-39.2298553-3.0039925l-2.4291992-.4501953Zm-91.0336914-60.2480469c.7065895.8632971-.2414702,1.5466776-.8461914,2.1240234l-.5239258-2.1601563,1.3701172.0361328Zm-.1728516-2.0654297c54.351212,8.6198346,34.0320655,43.5212898,69.5,61.3203125l-5.9008789,1.5302734c-20.9736797-4.5477417-30.9087897-25.5566748-42.4711939-41.3089947-4.0116167-7.1580027-13.2612398-14.1038956-20.3710913-18.8579975l-.7568359-2.6835938Zm25.836485-37.085896c21.9426691-23.0108519,64.9314405-39.9895935,89.149697-11.5921836,13.7223062,15.9258818,4.435464,40.9063207,12.8989483,59.9746805,6.2845293,10.9591011,19.241557,15.8411978,23.8038345,28.2971492-5.5899972,9.5811335-14.4924699,14.7608512-24.0474204,17.2889605-10.8082127,1.3984467-20.4449633-1.306097-31.0399827.3545922-5.9101741,1.107955-11.0777667,2.5374513-15.8828117,4.4042989,0,0-6.6254883-.4394531-6.6256296-.4392251-4.6683183-2.774916-10.1627607-5.4052791-14.4804574-8.8558979-11.5978868-10.4458678-11.4861968-26.303553-21.218586-37.1039988-8.8928127-9.4641595-23.2195931-17.9516454-37.3149754-16.3088859l-.2910156-5.1660156c1.1069897-.571509,2.0824169-1.5069573,3.3354492-1.796875,8.6906333-3.586018,13.0347332-21.9072095,21.7129498-29.0565991ZM305.9658203,3.5103157c-4.503462,4.3483336-9.7924344.7695025-15.5673467,2.6095719-24.3965788,5.3989517-45.7655696,20.5650021-58.5420283,41.4666l-.2104492-.1345215h0l.1694336.1989746c-1.0508834,1.6545713-2.3575581,3.6496477-3.4746094,5.3320312,1.8504438-24.9045979,17.6689251-39.9106797,41.2978516-45.5859375,11.6452502-3.9579377,24.0755068-4.8307182,36.3271484-3.8867187Z" stroke-width="0"/>
  </g>
</svg>