<?xml version="1.0" encoding="UTF-8"?>
<svg id="Layer_2" data-name="Layer 2" xmlns="http://www.w3.org/2000/svg" viewBox="0 0 76.7782847 155.6733044">
  <g id="Layer_1-2" data-name="Layer 1">
    <g>
      <path d="m71.2583708,84.8754528c-.4521484-.734375-.9462891-1.4335938-1.4248047-2.1113281-.4960938-.7041016-1.0107422-1.4316406-1.4619141-2.1787109-1.1533203-1.9101562-2.6396484-3.5800781-4.6787109-5.2558594-1.7939453-1.4746094-3.84375-2.8046875-6.4492188-4.1865234-2.3222656-1.2304688-4.5332031-1.7958984-6.7607422-1.7070312l-.1699219.0058594c-.4130859.0166016-.8125.0302734-1.2333984.0019531.0419922-.0507812.0830078-.0966797.1230469-.1357422.3007812-.2919922.6142578-.5654297.9277344-.8398438.4960938-.4335938,1.0087891-.8818359,1.4794922-1.4023438.9921875-1.0947266,1.9677734-2.2119141,2.9433594-3.3291016,1.2724609-1.4580078,2.5888672-2.9648438,3.9169922-4.390625,2.7470703-2.9482422,4.9785156-6.640625,6.8212891-11.2871094,1.1289062-2.8457031,1.7480469-5.7460938,1.8427734-8.6201172.1015625-3.1533203-.3603516-6.2324219-.8066406-9.2109375-.1542969-1.0283203-.3085938-2.0566406-.4404297-3.0888672-.0068359-.0537109-.0195312-.1064453-.0380859-.1572266-.9013672-2.5244141-1.8525391-4.9384766-3.5722656-6.7353516-4.0214844-4.203125-7.6337891-7.0419922-11.3681641-8.9326172-.6220703-.3154297-1.25-.6132812-1.8789062-.9111328-.9609375-.4550781-1.953125-.9248047-2.8935547-1.4501953-1.5576172-.8691406-3.1289062-1.7988281-4.6484375-2.6972656-1.0244141-.6064453-2.0488281-1.2119141-3.078125-1.8066406-.6015625-.3466797-1.2792969-.6660156-2.1318359-1.0048828-1.2402344-.4921875-2.5117188-.8242188-3.7412109-1.1455078-.7724609-.2011719-1.5439453-.4023438-2.3056641-.6425781C26.5025114.4760388,23.5327849-.0171253,20.5620818.0004528c-3.7050781.0429688-7.0693359.5966797-10.2822266,1.6923828-2.921875.9980469-5.1982422,2.1699219-7.1630859,3.6875-.1591797.1240234-.3066406.2705078-.4521484.4208984l-.1533203.1533203c-.2167969.2099609-.2871094.5302734-.1777344.8115234.1103516.28125.3779297.4697266.6796875.4775391,1.0908203.0302734,1.9609375-.4248047,2.7333984-.8242188l.1259766-.0654297c.2988281-.1523438.5947266-.3134766.8916016-.4755859.7939453-.4326172,1.5449219-.8417969,2.3173828-1.0820312,1.640625-.5117188,3.3398438-.9404297,4.9833984-1.3544922.6640625-.1679688,1.328125-.3349609,1.9912109-.5087891,1.5546875-.4052734,3.1298828-.3466797,4.7998047-.2832031.59375.0224609,1.1875.0449219,1.78125.0458984,1.9287109.0039062,3.9736328.3769531,6.2509766,1.1425781,1.0439453.3515625,2.1113281.6367188,3.1425781.9130859l.8144531.21875c1.7285156.46875,3.3603516.9111328,4.8515625,1.890625.9941406.6533203,2.1796875,1.4130859,3.4375,2.09375,1.5566406.8427734,3.1191406,1.6660156,4.6826172,2.4892578,1.3662109.71875,2.7314453,1.4375,4.0927734,2.1699219,1.7910156.9638672,3.2519531,1.8505859,4.5644531,3.0458984.4990234.4541016,1.0068359.8945312,1.5146484,1.3339844.6787109.5869141,1.3564453,1.1738281,2.0117188,1.796875l.3388672.3212891c.9541016.9023438,1.9404297,1.8349609,2.7529297,2.8886719,1.1953125,1.5507812,1.9697266,3.5351562,2.3007812,5.8964844.2646484,1.8896484.484375,3.9287109.6943359,6.4169922.2666016,3.1826172.1464844,5.6201172-.390625,7.9023438-.921875,3.9169922-2.6806641,7.6474609-5.3740234,11.4033203-1.3066406,1.8232422-2.6865234,3.5673828-4.1025391,5.1845703l-.7285156.8349609c-1.7363281,1.9921875-3.5322266,4.0527344-5.4804688,5.7910156-1.1259766,1.0039062-2.2382812,2.0302734-3.3427734,3.0693359-.8027344.7548828-1.5195312,1.1806641-2.3242188,1.3818359-1.6201172.4042969-3.0654297,1.2021484-4.2939453,2.3710938-.4433594.4199219-.7900391.9277344-1.1240234,1.4189453l-.0654297.0957031c-.2890625.4248047-.2148438.9921875-.0488281,1.3808594.1826172.4287109.5009766.7099609.9228516.7802734.4150391.0703125.9335938.1582031,1.4472656.0195312,1.1201172-.3027344,2.1904297-.8935547,3.1806641-1.7558594,2.046875-1.7851562,3.9404297-2.7285156,5.9580078-2.96875,3.3037109-.3955078,5.9267578.0996094,8.2412109,1.5498047l.6552734.4111328c1.3408203.8388672,2.7275391,1.7070312,4.0576172,2.6328125,1.3007812.9052734,2.4169922,1.9658203,3.4111328,3.2421875.8554688,1.0976562,1.6582031,2.3134766,2.4335938,3.4902344.2851562.4316406.5703125.8632812.8583984,1.2910156.1279297.1904297.2607422.3779297.3935547.5664062.3818359.5410156.7421875,1.0527344.9912109,1.6142578.3876953.8779297.8066406,1.7373047,1.2255859,2.5966797,1.1103516,2.2802734,2.1601562,4.4335938,2.6826172,6.9482422.0771484.3720703.1630859.7421875.2480469,1.1103516.3369141,1.4511719.6542969,2.8222656.4365234,4.28125-.0947266.6289062-.0888672,1.3115234.015625,1.9238281.2246094,1.3183594.1347656,2.6298828.0400391,4.0195312-.0253906.3671875-.0498047.734375-.0693359,1.1015625-.0537109,1.0400391-.2548828,2.0380859-.46875,3.0957031-.1357422.6757812-.2714844,1.3515625-.3681641,2.0351562-.6074219,4.3378906-1.8671875,8.5126953-3.7431641,12.4072266-.1386719.2871094-.28125.5722656-.4238281.8564453-.2050781.4072266-.4091797.8154297-.6025391,1.2304688-1.7636719,3.7822266-3.9384766,7.1816406-6.4658203,10.1005859-.1992188.2294922-.4091797.4472656-.6191406.6650391-.3027344.3154297-.6054688.6308594-.8828125.9755859-1.7929688,2.2255859-3.7763672,3.65625-6.0634766,4.3720703-.8994141.2802734-1.7470703.7128906-2.5664062,1.1328125l-.3457031.1757812c-1.1640625.5898438-2.5498047,1.2519531-4.015625,1.6835938-1.4873047.4404297-2.9765625.9550781-4.4169922,1.4541016-1.09375.3779297-2.1875.7568359-3.2871094,1.1054688-2.1542969.6835938-4.5957031,1.4589844-7.0595703,1.5683594-2.3330078.1025391-4.2011719.3105469-5.8808594.6552734-1.7167969.3515625-3.4169922.3847656-5.2177734.4199219l-.6240234.0126953c-1.5009766.0361328-3.0400391.015625-4.5292969-.0048828-.6806641-.0087891-1.3623047-.0175781-2.0429688-.0214844l-1.3564453-.0048828c-1.0107422-.0029297-2.0214844-.0058594-3.03125-.0253906-.1015625-.0019531-.2099609-.015625-.3193359-.0351562l-.0126953-.5283203c-.0175781-.8105469-.0351562-1.5742188-.0595703-2.3359375-.0078125-.2294922-.0292969-.4589844-.0507812-.6894531-.03125-.3261719-.0605469-.6347656-.0380859-.9130859.3466797-4.4208984.3798828-8.1269531.1054688-11.6630859-.0742188-.953125-.1123047-1.9101562-.1503906-2.8671875-.0410156-1.0341797-.0830078-2.1044922-.1728516-3.1591797-.0488281-.5761719-.0546875-1.1591797-.0615234-1.7421875-.015625-1.4111328-.03125-2.8691406-.6074219-4.28125.0166016-.1123047.0283203-.2255859.0244141-.3320312l-.0214844-.6474609c-.0185547-.6005859-.0380859-1.2021484-.0898438-1.7988281-.140625-1.6015625-.2900391-3.2021484-.4384766-4.8037109-.2773438-2.9814453-.5644531-6.0644531-.7919922-9.1005859l-.0996094-1.3056641c-.2148438-2.7851562-.4365234-5.6640625-.4580078-8.5078125-.0302734-3.9941406-.2080078-8.046875-.3798828-11.9667969l-.0068359-.1425781c-.0419922-.9667969-.1337891-1.9365234-.2226562-2.875-.1044922-1.0986328-.2119141-2.2353516-.2353516-3.34375-.1005859-4.6923828-.4951172-9.4189453-.875-13.9902344l-.0820312-.9775391c-.3515625-4.2363281-.6503906-8.7480469-.9423828-14.1962891-.2207031-4.1386719-.4013672-8.2802734-.5830078-12.421875-.0888672-2.046875-.1787109-4.0947266-.2734375-6.1416016-.0576172-1.2490234-.1201172-2.4980469-.1826172-3.7460938-.0703125-1.4023438-.140625-2.8037109-.2041016-4.2050781-.0693359-1.5576172-.1357422-3.1152344-.2011719-4.671875-.0908203-2.1445312-.1806641-4.2890625-.2832031-6.4580078-.0161133-.3364258-.0556641-1.019043-.605957-1.4550781.09375-.0878906.1713867-.1938477.2104492-.3222656.3876953-1.2753906.2070312-2.0761719-.1376953-3.2431641-.0927734-.3125-.3769531-.5302734-.7041016-.5371094-.3056641-.015625-.6201172.1982422-.7255859.5068359-.4707031,1.3759766-.203125,2.2167969.1347656,3.28125.0112305.0361328.0332031.0654297.0498047.0986328-.0268555.015625-.0581055.0180664-.0830078.0371094-.1865234.1416016-.2958984.3603516-.2978516.59375-.0029297.4052734-.0107422.8027344-.0175781,1.1943359-.0166016.8623047-.0322266,1.6767578.0019531,2.5097656l.1269531,3.3076172c.1083984,2.8457031.2158203,5.6904297.3662109,8.5351562.1152344,2.1699219.1542969,4.390625.1923828,6.5371094.0380859,2.1259766.0761719,4.3232422.1884766,6.4882812.1425781,2.734375.2480469,5.4726562.3535156,8.2109375l.09375,2.3886719c.0195312.5058594.0283203,1.0126953.0371094,1.5195312.0146484.7880859.0283203,1.5751953.0820312,2.359375.1191406,1.7548828.2558594,3.5078125.3925781,5.2607422.1064453,1.375.2138672,2.7490234.3125,4.125.2822266,3.9287109.546875,7.8583984.8105469,11.7880859.0634766.9472656.1318359,1.8945312.2001953,2.8417969.1708984,2.3740234.3476562,4.8300781.4462891,7.2441406.1357422,3.3486328.2285156,6.6992188.3212891,10.0488281.0537109,1.9482422.1074219,3.8964844.1699219,5.84375.0527344,1.640625.1328125,3.1503906.2441406,4.6162109.1660156,2.1621094.3583984,4.3203125.5498047,6.4785156l.1074219,1.2050781c.0791016.8984375.1533203,1.7978516.2275391,2.6972656.1865234,2.2783203.3798828,4.6337891.6640625,6.9423828l.0136719.1162109c.2841797,2.3134766.5527344,4.4990234.6083984,6.7675781.0273438,1.1367188.0947266,2.2724609.1611328,3.4082031.0615234,1.0371094.1220703,2.0742188.1523438,3.1123047l.046875,1.3857422c.0654297,1.828125.1337891,3.71875-.0166016,5.5283203-.203125,2.4375-.265625,4.9892578-.2050781,8.2734375.0078125.4257812.0058594.8505859.0039062,1.2578125l-.0019531.5380859c0,.2529297.1269531.4882812.3378906.6269531.6611328.4345703,1.2890625.5117188,1.8369141.5117188.1582031,0,.3085938-.0068359.4521484-.0126953.1308594-.0048828.2509766-.0234375.3935547-.0107422,3.7304688.0195312,7.4589844.0224609,11.2607422.0136719,2.1679688-.0058594,4.4101562-.0117188,6.6455078-.46875,1.8935547-.3867188,3.8349609-.5556641,5.6611328-.6953125,1.7714844-.1347656,3.3046875-.4228516,4.6865234-.8818359,1.1210938-.3730469,2.2363281-.7685547,3.3515625-1.1650391s2.2314453-.7929688,3.3525391-1.1650391c.6210938-.2070312,1.2509766-.3779297,1.8798828-.5498047.9179688-.25,1.8681641-.5097656,2.7939453-.8759766,2.046875-.8105469,4.0966797-1.7246094,6.078125-2.6083984l1.6552734-.7363281c2.0419922-.9013672,3.9228516-2.390625,5.5898438-4.4248047l.6171875-.7519531c2.1230469-2.5800781,4.3183594-5.2490234,6.0703125-8.3789062,2.2792969-4.0722656,3.9658203-7.9511719,5.1582031-11.859375,1.0185547-3.3378906,1.515625-6.8652344,1.953125-9.9765625.1757812-1.2451172.2070312-2.5380859.2353516-3.6796875.015625-.6279297.0048828-1.2587891-.0058594-1.8886719-.0166016-.921875-.03125-1.7919922.0341797-2.6611328.2578125-3.4111328-.5419922-6.4638672-1.359375-9.0009766-1.0488281-3.2587891-2.4316406-6.2929688-4.1113281-9.0195312Z" stroke-width="0"/>
      <path d="m25.2388396,116.0990857v.0126953l-.0009766,2.2519531c-.0019531,2.3886719-.0048828,5.3769531.0058594,8.3642578.0058594,1.9072266.0185547,3.6259766.109375,5.3496094.1162109,2.2412109,1.5371094,2.6328125,2.3730469,2.6660156.3173828.0136719.6474609.0224609.9892578.0224609,1.1259766,0,2.3701172-.1015625,3.6328125-.5039062,1.5722656-.5029297,3.1494141-.9882812,4.7255859-1.4736328l.2880859-.0888672c2.5800781-.7939453,5.1220703-2.0654297,7.5566406-3.7792969,1.7373047-1.2226562,3.0068359-2.8515625,3.7734375-4.8417969,1.6601562-4.3154297,2.0449219-8.9140625,1.1767578-14.0585938-.1591797-.9511719-.4453125-1.8603516-.7216797-2.7402344l-.1728516-.5537109c-1.5058594-4.8955078-4.1123047-8.3925781-7.7470703-10.3935547-3.5869141-1.9736328-6.8984375-2.9960938-10.1230469-3.1240234-.2021484-.0087891-.4042969-.0498047-.6054688-.0878906-.3105469-.0595703-.6542969-.1259766-1.0830078-.1113281-.8242188.0283203-1.6777344.0585938-2.515625.3398438-.9072266.3017578-1.6210938,1.0996094-2.0117188,2.2451172-.2763672.8085938.1386719,1.3291016.3613281,1.609375.0546875.0683594.1103516.1386719.1308594.1787109.0292969.0615234.0810547.2226562.0898438.6132812.0234375,1.0341797.0332031,2.0703125.0166016,3.1044922-.0517578,3.4228516-.109375,6.8457031-.1787109,10.9101562l-.0693359,4.0888672Zm2.9707031-20.2236328c.2392578-.2089844.6425781-.2626953,1.203125-.1552734.5839844.109375,1.1660156.1474609,1.7285156.1845703,1.1064453.0722656,2.1523438.140625,3.0839844.7412109.421875.2714844.8779297.2763672,1.2441406.2802734.1787109.0019531.3632812.0039062.4648438.0410156,2.0673828.7519531,3.7617188,1.4931641,5.3105469,2.6699219.3300781.25.6699219.5644531,1.0097656.9345703,2.5009766,2.7197266,4.1123047,6.2851562,4.7900391,10.5976562.2880859,1.8310547.3496094,3.7236328.390625,5.6640625.0146484.6992188-.1367188,1.4277344-.2978516,2.1992188l-.0947266.4619141c-.0830078.4111328-.1953125.8144531-.3076172,1.2177734-.1220703.4384766-.2441406.8769531-.3339844,1.3242188-.4697266,2.3330078-1.9287109,3.6962891-3.1474609,4.6240234-2.1191406,1.6123047-4.6230469,2.7900391-7.8779297,3.7060547-1.1474609.3212891-2.2929688.7041016-3.4003906,1.0742188l-.8417969.2802734c-.9765625.3222656-1.8671875.3417969-2.7128906.0527344-.3330078-.9042969-.3691406-1.8808594-.375-2.7373047-.0126953-1.8945312-.0185547-3.7890625-.0244141-5.6835938l-.0273438-6.6787109c-.0185547-3.7753906-.0371094-7.5517578-.0683594-11.3271484l-.0039062-.4160156c-.0195312-2.4023438-.0400391-4.8857422-.1376953-7.3300781-.0332031-.8466797.1181641-1.4589844.4257812-1.7255859Z" stroke-width="0"/>
      <path d="m39.7515349,51.3832653c1.0546875-2.0390625,1.7890625-4.2792969,2.1220703-6.4785156.4101562-2.6972656.6005859-5.3271484.5664062-7.8164062-.0419922-3.0585938-.8173828-6.0058594-2.3046875-8.7578125-1.6630859-3.0771484-4.1914062-5.0390625-7.5126953-5.8291016-1.6767578-.3974609-3.3466797-.3896484-4.9619141-.3925781-.4472656-.0009766-.8955078,0-1.3417969-.0058594-.8164062-.0302734-1.9355469.1054688-2.7763672.7490234-.5693359.4375-1.21875.6650391-1.90625.90625l-.484375.1728516c-.2929688.1083984-.4882812.3857422-.4912109.6972656l-.0361328,3.546875c-.0283203,2.6425781-.0556641,5.2539062-.0585938,7.8642578-.0019531,1.9208984.015625,3.8417969.0332031,5.7626953.0175781,1.8652344.0341797,3.7314453.0341797,5.5966797-.0009766,1.0898438-.0126953,2.1796875-.0253906,3.2675781-.0302734,2.625-.0615234,5.3408203.0849609,7.9609375.0117188.2099609.1113281.4052734.2734375.5380859.5380859.4404297,1.0556641.5800781,1.5175781.5800781.5,0,.9345703-.1640625,1.2558594-.2851562.8730469-.3310547,1.5800781-.5595703,2.2255859-.7197266.6845703-.1699219,1.375-.3134766,2.0644531-.4570312,2.1064453-.4384766,4.2841797-.8925781,6.3242188-2.0976562.0957031-.0087891.2412109-.0263672.3994141-.0966797,2.1796875-.9726562,3.9082031-2.5996094,4.9980469-4.7060547Zm-16.2871094-11.2099609c-.0019531-.5078125-.0644531-1-.1240234-1.4755859-.0488281-.3916016-.0996094-.7822266-.1103516-1.1757812-.078125-2.7568359-.1376953-5.515625-.1982422-8.2998047l-.0585938-2.6474609.5097656-.2958984c.7744141-.4501953,1.5371094-.8945312,2.3115234-1.3085938.1367188-.0732422.3486328-.1132812.6318359-.1181641,1.8154297-.0390625,4.2060547-.0029297,6.59375.5136719,1.2050781.2607422,2.3173828,1.0410156,3.5,2.4550781,1.7734375,2.1220703,1.8007812,2.2529297,2.4912109,5.6171875.6113281,2.9824219.6630859,6.0244141.1582031,9.3007812-.2753906,1.7910156-.6855469,3.5732422-1.2539062,5.4511719-.7558594,2.4970703-2.2011719,4.2324219-4.5488281,5.4628906-2.6933594,1.4101562-5.5380859,1.9960938-8.4580078,2.5185547-.4189453.0751953-.8378906.15625-1.3398438.2539062l-.0488281.0097656-.0029297-.0644531c-.0214844-.5410156-.0400391-.9990234-.0410156-1.4570312v-5.1455078c.0019531-3.1982422.0039062-6.3964844-.0117188-9.5947266Z" stroke-width="0"/>
    </g>
  </g>
</svg>