<?xml version="1.0" encoding="UTF-8"?>
<svg id="Layer_2" data-name="Layer 2" xmlns="http://www.w3.org/2000/svg" viewBox="0 0 79.440675 93.0639207">
  <g id="Layer_1-2" data-name="Layer 1">
    <g>
      <path d="m40.2411153,18.7518521c-2.1393119-1.3544817-3.316964-9.621859-.8610405-10.7928665-1.3256248,1.781205.9268363,6.4640687,1.8448311,8.3016855.6154861-.4327171,1.3496541-.0752068,1.4741399.6304841.3709623,1.3530171-1.2709487,2.6359534-2.4579305,1.8606969Z" fill="#423b30" stroke-width="0"/>
      <path d="m43.3355779,18.4130554c.2081273-.5311937-.2072594-1.1557383-.2155042-1.7287799-.0482755-1.7709261.1288252-3.6005964-.6554626-5.2667808-.3738914-1.0514034-1.9864032-2.9545449-3.0019254-1.71267.0082991.0355558.1152104.0400307.0749627.0676671-.3783935.055544-.104145-.5103105-.0104687-.6283686,1.1807982-1.2154318,3.198933-.3219545,4.1764315.7325679,2.0133615,2.1044613,3.4523525,6.4785242.7219093,8.5432802-.3171541.2168874-.8134701.3157709-1.0899425-.0069159Z" fill="#423b30" stroke-width="0"/>
      <path d="m.2270737,27.4687887c-1.8042579-11.4067253,7.4527817-15.2874284,16.7948052-17.6007492,5.48318-1.154111,11.419879-1.6509152,16.8263606.0973647.2603625.1006735.610984.263834.777616.499896.048601.0659585.201347.4408805-.034715.423523-.013886,0-.013886-.020829,0-.020829.0034715-.0034715.006943-.0034715.0104145-.006943v.0034715c.0034715-.0034715.006943-.006943.0139402-.0069701.241432-.5145956-1.0550106-.6824752-1.4061202-.7371242-5.2384935-.4796637-10.4575141.6474348-15.4238746,2.1985444-5.6608232,2.0526058-12.0174788,4.4278983-15.2631957,9.8385023-.9550422,1.6829724-1.5113772,3.6377795-2.2952311,5.3113137Z" fill="#423b30" stroke-width="0"/>
      <path d="m8.6387488,37.0583193C3.8676195,36.3421054.4930231,31.6355108.1161484,27.0186599c-.0676943-2.0679563.4204854-4.8478684,2.5204989-5.7555843-.3453871.2316684-.8052524.6389187-1.0237399,1.0560954-2.6945078,5.5955427,2.9707904,13.3793509,9.1704691,12.2518999,3.7969532-.7174885,6.7509285-3.5167651,9.8391532-5.6532293,5.1685211-3.9950185,10.6181795-7.7272336,15.8854756-11.5533962.5219183-.3792885,1.0140577-.8632373,1.5136283-1.1802015-2.8373546,5.7522484-7.7219721,10.2524244-12.9590553,13.8202043-4.9376664,3.1898203-10.1238704,7.9906337-16.4238293,7.0538711Z" fill="#423b30" stroke-width="0"/>
      <path d="m7.9369634,35.8453555c-6.4023275-6.9253171.2451747-14.5464801,6.5610266-18.4614914,3.0591509-2.0569722,6.5921616-3.2569722,10.1575548-4.0791481,2.5816027-.5190164,5.2208648-1.2773764,7.8664733-.9719658,1.9330831.2784523,3.8026486,1.1456764,4.9884913,2.6800523-2.7639649.1712968-5.42986,1.0262622-8.1900279,1.2182253-4.8840751.7376124-9.8619891,1.6668896-14.1741888,4.2050443-5.7671921,3.1951903-11.696365,8.6267589-6.9468512,15.2862622.0299959-.0084347.060914-.016788.0921575-.0251684.1943498-.1659269.2426253-.5585589.3846314-.692049-.081526.4177462-.2176197,1.1173348-.7392668.8402386Z" fill="#423b30" stroke-width="0"/>
      <path d="m75.444458,23.8812103c-1.129919-2.8448943-3.5945213-4.7250641-6.5506663-5.3463812-6.7193053-1.7693259-13.6388184-2.367102-20.5685834-2.4541335-.8550196-.0989378-1.8800885-.0147268-2.6174568-.447932-.0173575-.0381865-.0034715-.0867875.0381865-.1007277,1.3500881.1453419,2.7487229-.1005921,4.1137275-.2983592,5.3639015-.9136825,10.8390537-1.1152194,16.2326799-.3123808,5.1456852.4616281,11.8605426,2.3968538,9.3521126,8.9599144Z" fill="#423b30" stroke-width="0"/>
      <path d="m70.0462754,31.6866069c-1.346942-.187461-2.5723815-.7394295-3.7698863-1.3610992-5.8048905-2.6343803-11.2538979-5.8904575-16.2642488-9.8447944-1.220178-1.063391-3.0344707-1.9092437-3.5268813-3.5375399-.0356371-.531031.6007322-.7961668.9477195-.4060841-.3616327-.1799756-.8913076-.0047191-.6013831.5400623,2.0859376,1.9602855,5.0332953,2.8001445,7.4958364,4.2294532,4.2921301,2.3846764,8.873371,4.1275864,13.3200914,6.1758528,1.8506892.9968629,3.4412871,2.5033583,5.6061471,2.7448174.3642363.1146409.7304253.1536952,1.0313067.2859648-1.2746914.7006735-2.7513265,1.3811688-4.2387015,1.173367Z" fill="#423b30" stroke-width="0"/>
      <path d="m70.5106971,29.0652176c1.2833702-1.346942,3.7277401-1.3981195,4.6577767-3.0762101.3389594-1.6065451.2765267-3.7572479-.6153234-5.1341044-.0040139.0000271-.0082448.0000271-.0122045.0000271-.0599919.0193916-.0343895-.1127695.1771007.0277178.6531844.4324458,1.0648826,1.2193101,1.3813858,1.9197938,2.2964515,4.3017581-1.1788455,7.8282597-5.5887353,6.2627759Z" fill="#423b30" stroke-width="0"/>
      <path d="m76.5258302,17.1402353c-2.0755231-3.2497037-5.6940194-4.5742437-9.2200871-5.6412147-7.3237802-2.2832164-15.0663101-1.7159516-22.5786904-.9895674-.3008272.0495502-.6542693.0556254-.8782353.2638611-.006943.013886-.0243005.006943-.0208832-.0070515.5823984-.5508294,1.5842516-.5217827,2.3398453-.7321882,6.3187267-1.4612303,12.8553443-2.4312976,19.2943802-1.1699226,4.7497172.8890837,10.6001168,2.6527413,11.0636706,8.2760832Z" fill="#423b30" stroke-width="0"/>
      <path d="m77.4923175,24.2811922c-.248375-1.5221985.300556-3.0192015.1206346-4.5408576-.2586268-1.6495321-1.3463996-3.0573338-2.3285086-4.3358764,1.4153957.6496858,2.877765,1.8536725,3.641495,3.315391.9523301,1.8474889.6434208,4.6854944-1.433621,5.561343Z" fill="#423b30" stroke-width="0"/>
      <path d="m39.1136914,12.8143666c-5.1046781-6.5525648-13.3373404-9.3579436-21.4307087-9.0119598-1.6063282.0846992-3.4573971.1222076-4.8066172,1.0687609-1.0272928.8273832-1.5177507,2.1191338-2.013687,3.2563213-.4482032,1.434516-1.1540025,3.0189032-.7289608,4.4817065q-.003363,0-.006943.0000271c-.8770962-1.3415992-.3336437-4.0861725.059341-5.7798577.7439316-4.4639693,5.3038011-5.3809606,9.1295569-5.679374,8.3970161-.9198119,18.781683,1.9574107,19.7980189,11.6643757Z" fill="#423b30" stroke-width="0"/>
      <path d="m42.6076477,9.5676191C46.1439129,5.3406339,57.3867455.1989084,63.0549456.0005176c3.1255434-.0485468,5.8482842,3.3268904,4.7212943,6.3493464-.201347.5797405-.6144555,1.0865795-1.0102607,1.548289-.2218505-.6183338-.2904127-1.2487636-.5474664-1.8131807-.629806-1.1780861-1.6145187-2.4028204-2.8933868-2.8792838-1.6555801-.2392894-3.3772813.2613931-5.0053064.5785743-5.3285356,1.4265153-10.8853765,2.8200242-15.6133426,5.7077427.0812548.0062921.2577046-.0535099.2520092-.0039054-.1179768.0417936-.2267323.1041721-.3508385.079519Z" fill="#423b30" stroke-width="0"/>
      <path d="m13.9865403,92.4145061c-1.9903086-6.0854311-1.860941-12.6512581-1.2738235-18.9578345.490946-6.6588795,2.6824389-13.0047544,5.1550691-19.1557643,4.0519999-10.9768017,10.8576045-20.5789708,16.9825239-30.4589955,1.1023097-1.6579125,2.2930343-3.4156306,3.7839893-4.6552273-1.1860597,1.2050444-2.0644577,2.6533109-2.9049404,4.1115036-4.4356549,8.5517691-9.411562,16.8523969-13.1412549,25.7462172-2.6706684,7.1695154-5.4818782,14.4119052-6.4757036,22.0377059-.4938209,4.1782215-.4447859,8.5099213-.9402341,12.667829-.371776,2.8804771-.8599014,5.8255296-1.1856257,8.6645657Z" fill="#423b30" stroke-width="0"/>
      <path d="m14.1479108,90.9371659c.5540839-2.5168918,1.7379197-8.4718432,5.1137365-8.1265849.638756.1180242,1.1560095.7428942,1.3851285,1.3156849.3783935.9511978.5866835,1.9509898.7394295,2.9612031-.8649459-.5050558-1.6105048-1.3104709-2.3837272-1.9765311-1.6946344,1.8125502-3.1366088,4.2075597-4.8545673,5.826228Z" fill="#423b30" stroke-width="0"/>
      <path d="m21.3756824,88.2871095c-.7687745-1.3594448-1.4271662-2.8309337-2.0237218-4.2491974-.0013561-.0869773.178728-.008577.152963.0277449,1.8520995,1.0975093,3.9798578,3.0580389,3.3879671,5.4155672-.6249242-.263834-1.1074627-.659585-1.5172082-1.1941146Z" fill="#423b30" stroke-width="0"/>
      <path d="m23.2380337,87.3992734c-5.2554171-10.9261938,2.709777-22.076923,6.848022-31.9711592,3.5537854-8.5464534,6.7063956-17.3142962,8.1384979-26.4855111.4686525-2.561967.847046-5.13782,1.451087-7.6720151.0034715-.013886.0243005-.0104145.0208832.0068888-.0096009.081309-.0278805.2270307-.0383492.3055462-.5964471,6.3831393-.7315101,12.837363-2.0897888,19.134881-2.0388554,9.5545444-5.3585857,18.7862665-9.4477958,27.6405443-1.2720335,3.3243681-2.2678116,6.7558916-2.6232607,10.3046664-.2541247,3.0104346-1.2927541,5.942469-2.2592956,8.7361586Z" fill="#423b30" stroke-width="0"/>
      <path d="m53.0075567,87.3852247c-2.7800206-9.0292699.087113-18.4809914-1.537983-27.6344691-.9932287-5.8608142-3.5650136-11.2847617-5.1379828-16.9916366-1.7451882-6.1336524-3.0831802-12.5206971-2.6243998-18.9266181.0729015-1.235854.291606-2.5654385.8782895-3.6693484-.5324956,1.6365139-.4710392,3.5535142-.3262668,5.2939833.9177236,9.5481981,4.9705914,18.3699306,8.5951086,27.1297998,4.6342898,11.1158787,2.883135,23.4897964.1532342,34.7982891Z" fill="#423b30" stroke-width="0"/>
      <path d="m66.8616624,93.0639207c-1.3365275-4.0554172-2.410794-8.209962-2.818858-12.4696281-.6288297-7.4843371.7847217-15.2436278-1.055553-22.6028553-1.0774668-4.6770869-4.0496675-8.4675852-6.2832523-12.6120138-3.9208423-7.4735158-6.8041943-15.4530027-9.2655963-23.510083-.2415405-1.0086064-.763513-2.1210323-.7011345-3.1128507.3212222,1.6471725,1.2126926,3.1644079,1.8428241,4.705998,2.9761061,6.5200195,6.0816341,13.0895078,9.7774256,19.2073486,2.7440038,4.63052,6.5816928,8.6674406,8.0458522,13.9641631,1.7402521,5.2178273,1.5518148,10.7751021,1.5067395,16.2049621-.0169236,6.7311233-.0930254,13.5983809-1.0484472,20.2249591Z" fill="#423b30" stroke-width="0"/>
      <path d="m52.0682447,91.9198987c-.3668942-.4102879-.3444921-.9775527-.256891-1.485802.4401211-2.7227409.7757718-5.4601,1.4615558-8.1337246.093839,1.7267458.2182163,3.6073496.3613072,5.3840253,1.2504994-2.5956243,2.7600595-6.8362175,6.3559911-6.2484288,1.5725895.3089635,2.513366,1.860724,3.228495,3.1520949.8610947,1.7373502,2.0968945,3.6513129,2.312019,5.5752629.0942729.5945961.133924,1.0675066.2603625,1.5969646-1.5430818.6105704-3.2180263-.5532974-4.1589113-1.7219454-1.0961804-1.4724856-1.5960221-3.3019593-2.5805721-4.8461055-1.8244902.9822921-4.9068026,9.1472602-6.9833562,6.7276586Z" fill="#423b30" stroke-width="0"/>
    </g>
  </g>
</svg>