<?xml version="1.0" encoding="UTF-8"?>
<svg id="Layer_2" data-name="Layer 2" xmlns="http://www.w3.org/2000/svg" viewBox="0 0 77.8225694 187.3672182">
  <g id="Layer_1-2" data-name="Layer 1">
    <g>
      <path d="m4.2603453,45.1046204c-2.2095164-.6095317-1.6454-4.7903879-.3275286-6.016579.068476-.0198168.2037841-.0332781.2598581.0424141.1078227.2812306.0497516.1889877-.0684429.085755-.0225973.0099305-.0450071.0198609-.0669644.0297914-.2631462,1.2763069.0300893,2.6846227.5104919,3.8824128.4978581-.3956075,1.2335397-.8060886,1.4665635.0752067.3518803,1.0338713-.7150373,2.1686139-1.7739774,1.9009991Z" fill="#423b30" stroke-width="0"/>
      <path d="m6.0818345,83.4678368c-2.9988114-5.4514586-1.256468-11.5706138-1.5706899-17.4450769-.0407921-4.6385401.2905542-9.4480827.4913592-14.0075101.1959832-3.303489.0417521-6.6281409.5505889-9.8976015.695717,7.2314274,1.6020039,14.5876255,1.8388895,21.9108987.8180051,6.5488517-.051628,13.0531046-1.3101477,19.4392899Z" fill="#423b30" stroke-width="0"/>
      <path d="m13.4507326,81.3920451c-2.4596647-4.5486418-2.2785993-9.7342786-2.2483666-14.7447034-.2039717-5.820949-.1809992-11.7029151-.5398198-17.4902991-.0395453-.446297.1468825-.9208406.4519904-1.2428081.190731-.2581037.5445202-.2750958.6890857-.5388047.4578604-1.1438787.6311139-2.3728945.8879376-3.5743258.1195186-1.1285196.5299335-2.2801882.1687737-3.3017677,1.8913555,1.4094854,2.8240022,7.2783875,1.2010561,9.1879708-.0212291,6.1917744.3984542,12.3688518.4030222,18.5616192.0367427,4.4087713.3389376,8.8723146-.9970403,13.1431849-.0029571.00587-.0142557.0082312-.016639-.0000662Z" fill="#423b30" stroke-width="0"/>
      <path d="m14.3501674,43.0439616c-.8098621-1.181813-1.8545907-3.992023-3.6748661-2.7794917-.6331662,1.1142859-2.3282737,1.0306273-2.7959101-.1735844-.0586228-.1049319-.1716646-.2011249-.240604-.281032-.5311914-.6344019-1.454007-.9319847-2.2088654-.6468702-.310371.1001432-.5774673.2684093-.8134592.4293269-.5706705.4073916-.9103694,1.3073561-.1779759,1.6440429-1.8738448-.0906541-.9459205-2.6950607.0253889-3.434858,1.2487002-1.2212259,3.2584378-1.2400055,4.69884-.3368412,1.5438335-1.0914459,3.7943186-.7473444,4.9135256.7887434,1.0597125,1.3811284.7839326,3.2830985.2739262,4.7905644Z" fill="#423b30" stroke-width="0"/>
      <path d="m7.0585725,84.744083c-1.7646649-.1871561-4.4220229-.7811521-5.507996-2.0847126,1.6291031.5508316,3.4448877.474036,5.1380422.3499715,2.7034244-.0796037,5.4072901-1.6024673,8.0758034-.8922629-1.0309583,3.0887704-5.0660133,2.6897424-7.7058496,2.627004Z" fill="#423b30" stroke-width="0"/>
      <path d="m6.3729183,98.2000995c-2.3357105-2.7722314-3.5051215-6.1713397-4.5535353-9.5176401-.3548264-.9794523-1.0741117-1.6518328-1.5251311-2.5548868-.9340591-1.5790315.5048205-3.3694935,2.2229225-2.6241572.3417844.1440579.6553221.412401.9434379.6412209-.5635978.0806574-1.345467-.1500603-1.6876155.4571543,1.0958263.998563,2.4813352,1.7306365,3.0803185,3.1866185,1.5184888,3.2015804,1.4437234,6.9674537,1.5196032,10.4116904Z" fill="#423b30" stroke-width="0"/>
      <path d="m13.7478519,97.2137841c-2.3516654-2.984655-2.2624685-7.3620681.5273295-10.0319938,1.1580903-1.2093756,2.3939912-3.4063465.8801257-4.7664003-.1454923.0442236-.3942613-.0472249-.2693803-.211916.4451274-.2803534,1.0068604.1205117,1.3361103.4237217.8826193.8320402,1.1047085,2.1321085.9829611,3.2935641-.2173667,1.7832183-1.5010222,3.1902321-2.0392311,4.8663835-.5120366,2.1226469-.7166041,4.372801-1.4179153,6.4266408Z" fill="#423b30" stroke-width="0"/>
      <path d="m7.0409183,100.4595882c-1.3337822-.4432516-3.1248621-1.0262138-3.5280277-2.5393511-.1715653-1.9965742,2.4745824-1.6655809,3.7341731-1.2457211-.4990718.0962813-3.1276316.1465957-2.5193468,1.0780728,1.2099052.7951651,2.7488507.7815272,4.1444776.9244376,2.0177371.1526863,3.9264599-.5337512,5.8870638-.8589407.3675815-.050866.6331441-.2987082.7697872-.6154017.8842965.6300987.4318206,1.8603724-.2343368,2.4774292-2.2014506,1.9119446-5.6376989,1.5329762-8.2537904.7794749Z" fill="#423b30" stroke-width="0"/>
      <path d="m14.5513365,113.1152096c-3.7874114-.7838223-6.5334595-4.4143324-6.3358764-8.2621651.0209643-.9701398.2846953-3.614511,1.7597658-2.9432781-1.4359887-.1976824-.9354935,2.1926677-.7822334,3.0477907.6622293,3.7434746,4.8772021,6.8545995,8.4898595,4.8366417,3.1770853-1.7168442,4.1278937-5.4628566,5.1334742-8.6581477,1.7636718-6.9849093,11.2299162-11.1737098,14.1936952-2.6470414,2.1038011,5.9593575-2.8293868,9.091844-8.2534925,8.855499,1.9754334-1.3910589,4.7887769-2.6013172,5.4339258-5.2020385.2064874-1.9140852-.4784937-4.6061006-2.5622132-5.1668847-3.2451641-.161381-5.2388474,3.1577319-5.9697955,5.9289482-1.220917,5.2272398-4.9158427,11.3069766-11.1071095,10.2106758Z" fill="#423b30" stroke-width="0"/>
      <path d="m38.3211732,72.8670318c-2.6209354-.2225085-5.6638049-.5003628-7.7112673-2.299365-1.866419-2.6247531,2.3265303-3.2910208,4.1352864-2.8445473.8603309.1191876,1.2073895.7299771.0762439.74004.0178528-.0682554.1754823-.112788.2437156-.1768725-.8671719.0808339-1.6133688.4663123-2.3687237.8569767,2.7349591.3686628,5.5339366.5911272,8.2935012.4298124,1.9995092-.3686187,3.9618123-1.2830375,6.0368813-.7795411-1.0449051,3.6972207-5.3985955,4.3171683-8.7056373,4.0734969Z" fill="#423b30" stroke-width="0"/>
      <path d="m45.3366242,68.7424703c-.3085063-.1886787-.5554879-.4688501-.8925939-.6016535-.0480193-.008474-.0734413-.0790906-.0367206-.1158112.2062005-.1977265.5310369-.2316225.8022047-.2203238.386979.0141233.7796073.2316225.9208626.59596.1399754.4800164-.4949562.6150265-.7937527.3418285Z" fill="#423b30" stroke-width="0"/>
      <path d="m37.1733223,83.2601633c-3.3613063-.3857818-4.4309493-4.1040993-4.3105039-7.0079479-.0722275-1.4976458.1481625-3.1569099-.5650211-4.5222434-.0899258-.1559082-.2156013-.2823782-.3558856-.36447.3333766-.1096985.787331.4797074.9660131.7429529,1.4482363,2.317455,1.1958702,5.2468801,2.4493149,7.6431002.9602976,1.6606157,2.8140276,2.4399582,4.2197395,3.6527819-.7576941.0745391-1.6178485-.035049-2.4036569-.1441737Z" fill="#423b30" stroke-width="0"/>
      <path d="m40.6516536,82.5171056c.9698529-.6917393,1.4375555-1.8481304,2.0884199-2.8269648.8423237-1.1992741.7655502-2.6637853.8859957-4.0510761.1865382-2.1394846,1.266222-4.2562836,3.095832-5.4346761.3163624-.21452.8536665-.4173883,1.1439449-.1582253-.7450935-.1307731-1.2123327.8393004-1.5674901,1.3361545-1.3338815,2.0606588-.9276595,4.4155682-.8786692,6.7029724-.0908527,2.3141283-2.1644211,5.3867672-4.7680333,4.4318155Z" fill="#423b30" stroke-width="0"/>
      <path d="m35.9990564,85.2021421c-.8925939-.2626938-1.8360318-.7118154-2.3726959-1.4998747-.5059239-.7200963.040759-1.6725598.8558733-1.7711086.7307274-.1148844,1.7471652-.1569233,2.1721227.5705656-.5838449-.4132451-1.6910691-.1714328-2.1706442.3847226.3553781.4410007.9738692.448283,1.4661773.5729434,2.7246314.3122357,5.5083601-.3167817,8.2154036-.4123293-.9419814,3.3094473-5.5114055,2.81464-8.1662368,2.1550809Z" fill="#423b30" stroke-width="0"/>
      <path d="m43.8768244,95.5822095c-.1192317-.8298775-.0058479-1.6655809-.0850489-2.4915304-1.0864144-.5563706-2.267411-1.0848642-2.894994-2.2059745-1.0491642-1.4618741-.2805686-5.1745422,1.8473084-5.0588854.1073372.0225973.2655184.1638305.2259731.2909404-.0178528.0216263-.0199492-.0176983-.0282466-.0282466.0081209.0008165-.008143-.0140571-.0028247-.0141454-.362837-.3022391-.7666757.2732201-.9129183.5692802-.4471797,1.0395427-.3667429,2.3982503.3903774,3.2411919.7550019.8238089,1.9703578.8009909,2.7793814,1.5055461,1.4956156,1.3506529.0131303,3.4012047-1.3190079,4.1918238Z" fill="#423b30" stroke-width="0"/>
      <path d="m34.3931024,95.8012975c-1.4302511-1.3245469-1.1284092-3.6198955.285247-4.8272188.78049-.8850026,2.0948196-1.1890954,2.7731141-2.1427506-.0000441-.0000441.0147412-.004088.0147412-.004088.2697554-.8685567-.3327587-1.6363854-.3276611-2.477225.0269446-.0655576.1084186.0097539.0918899.0542644,4.6692804,3.9240324-1.7582432,5.606622-2.8373311,9.3970181Z" fill="#423b30" stroke-width="0"/>
      <path d="m46.1397336,105.6866956c-1.412288-.192033-2.491398-1.2766158-2.9687001-2.5816769-1.853068-4.092762,1.7955376-9.9104449,6.5051797-8.7622189,1.3399722.3465069,2.5748801,1.2524517,3.5901042,2.1100683-1.1997099.0098863-2.2899421-.078892-3.4567712.0166832-3.0168518.3715758-4.9304736,4.2172679-3.4011385,6.832907,1.1724122.9411649,3.0077599,1.2099935,4.3128872.426767.0626943-.0278936.1625285-.1717308.1921654-.1467722-.6361232,1.808734-3.0510346,2.4197884-4.7737268,2.1042425Z" fill="#423b30" stroke-width="0"/>
      <path d="m62.0655659,112.779207c-2.2406429-1.0795514-3.659154-3.1430128-4.847168-5.24816-.9940611-1.5485118-1.8006793-3.2113123-2.2910675-4.9881806-.731897-3.4936242-2.2320806-6.1085351-5.8638044-7.0702671-.3165389-.1094116-.7153242-.159748-.9774442-.2765964,4.0863403-.5542742,7.6816524,1.8676768,9.0447736,5.688587.7094321,1.6635066,1.5885426,3.23274,2.6467325,4.7002855,1.3476076,2.099211,2.9991976,5.0073795,5.8677766,4.8027899,3.0996718-1.066399,3.4872246-5.7400709,4.5240308-8.4240316.2272751-.8005054.3992928-1.696895.6186897-2.4574358,1.1006922,3.0440171,1.3011551,6.4815894.3473454,9.5895366-1.1961129,3.6668776-5.6532566,5.9144939-9.0698646,3.6834725Z" fill="#423b30" stroke-width="0"/>
      <path d="m35.0764063,115.8043341c-1.5415164-3.5655207.5228939-7.2592989,1.01977-10.8280195-.0436058-.2572872-.0325498-.648128.302217-.6683641.3898037-.008474.4660696.403927.5451602.7118154.1242852.4660696.2062005.9547365.2597808,1.4320827.380138,3.2390955.0644377,6.8101332-2.1269281,9.3524855Z" fill="#423b30" stroke-width="0"/>
      <path d="m42.818458,114.4452072c-1.6234979-1.8776073-1.3765825-4.8864706-1.282221-7.2284924.1059028-.6532919.2932355-2.4653361,1.1610253-2.4065257.008474.0028247.008474.0197726-.0028247.0197947-.0955531-.0063555-.1708701.0414652-.2342706.1131631-.2657391.5437699-.1637202,1.2026891-.1246162,1.780355.3196284,2.4118219,1.0557403,4.8835356,1.6808518,7.1990541.0918237.390245.2697554.7821893.361535,1.152463-.6101275-.0225973-1.0931451-.2429211-1.5594795-.6298119Z" fill="#423b30" stroke-width="0"/>
      <path d="m38.7992256,118.0183192c-1.3777962-.3747756-4.1973628-1.9992665-3.8866277-3.6579402.0284453-.0656293.1555331-.0615027.0903672-.033918-.0070396.0047004-.0122255.0075251-.0186693.0116076.2097093,1.5504538,3.1534066,2.2606803,4.4901569,2.4120426,1.9519975.0865274,3.1934154-1.6887741,4.7735281-2.5508925-.4638408,2.5736443-2.6937367,4.7419934-5.4487553,3.8191006Z" fill="#423b30" stroke-width="0"/>
      <path d="m36.2858923,155.7495887c-3.1580409-.1964024-5.5113393-1.8280653-6.2738221-4.9853118-.9109322-3.4523797-1.311218-7.1687993-.6804131-10.7053893.4628698-4.2243958,4.1051861-6.9680495,5.1750056-10.9336575.7681101-3.0763683,2.4987907-10.2236075.1156788-12.6300891-.026746.0050094-.0533376.0110338-.0799292.0158005-.0311596.0291073-.0441133.0505129-.0503143.0918457-.0028247.0112987-.016948.0112987-.016948,0-.016948-.3107131.4180503-.1553565.5508757-.0480634,1.2843395,1.1326904,1.7719913,2.9402107,2.0818658,4.5675483.6344681,4.3083192.6765512,9.0921529-1.4435358,13.016053-.818623,1.3376771-1.7405449,2.6170514-2.3898204,4.0529077-1.7307689,4.0255659-.6487459,8.4854459-.4608837,12.7000878.1210413.9060331.3125447,1.8994102.8705704,2.6383247.6956398.9002955,1.766011,1.5238402,2.6016703,2.2199434Z" fill="#423b30" stroke-width="0"/>
      <path d="m41.0841362,155.6042509c.9823873-2.0617842,2.3526805-3.9163749,3.3664702-5.930493.5847496-1.3508295.5585553-2.8482767.6074573-4.2930042-.0003531-1.9780594-.1374376-3.9511978-.6102599-5.8759196-.5802478-2.3096044-1.8627778-4.3204564-2.7280299-6.5205389-1.6663312-4.2398873-2.5804411-9.0358141-.6922855-13.3635749.4774786-1.1015087.9322937-2.5166655,1.7173959-3.3104403-.5978137,1.1050175-.7366195,2.4504625-1.0201452,3.6809568-1.4978444,6.6075076,2.9680822,12.120833,5.5142963,17.7865137.9033629,2.4678739,1.1180595,5.1361003,1.0648764,7.7480541-.0458567,1.6891051-.0325498,3.4471055-.7992697,4.9941388-1.3303948,2.4437097-4.0567475,3.8811549-6.420506,5.0843074Z" fill="#423b30" stroke-width="0"/>
      <path d="m36.3443054,157.689471c-1.060198-.5044232-2.2884856-1.4036375-2.2878898-2.6947297-.0060686-.4248472.3242185-1.0152682.8163059-.740062-.0088271.0388612-.1331785.0089374-.1859424.0248482-.7632993.5770259.4308496,1.5616863,1.0050509,1.7870194,2.3278764,1.2527607,4.4795645-.6220882,6.7594216-.9589073-.5922968,2.5605361-3.8388732,3.6561086-6.1069462,2.5818314Z" fill="#423b30" stroke-width="0"/>
      <path d="m32.832034,167.6553059c-1.4229246-3.2407285,2.1367923-4.1218693,2.7656111-6.8342973.2696451-.9701839.4030664-1.9669152.5504123-2.9616605.0310713-.2146745.0282466-.4886669.2344692-.6016976.280701-.0590531.2909846.3984542.3671843.5847496,0,.0112987-.0112987.016948-.016948.008474-.0490785-.056074-.0982233-.112148-.1480301-.1682441.7047758,2.3800224.8606178,5.1855981-.9873526,7.1000805-.9771132.9584439-2.0065709,1.7422882-2.7563648,2.8785536-.0034646-.0000662-.0073706-.0024936-.0089815-.0059583Z" fill="#423b30" stroke-width="0"/>
      <path d="m46.2362356,167.7187946c-.7563701-.8208298-1.6162817-1.4739231-2.4292113-2.2202523-1.8512805-1.9532995-3.0273119-4.7661355-2.6720662-7.4797993.118327-.6210069.4488789-2.2570392,1.1552877-2.0930542q.0028467-.0027805.0028247-.0028026c-.4483713.1002094-.4132616.8151143-.4575515,1.1779071-.0646363,1.6359882.6060229,3.2475915,1.4236308,4.60983,1.0041461,2.0184212,4.039623,3.4268474,2.9770858,6.0081712Z" fill="#423b30" stroke-width="0"/>
      <path d="m19.5496903,179.7968163c-1.2993456-.008474-2.5902171-.4886669-3.7568035-1.0338492,1.5839746-.4617885,3.3897957-.6823992,4.83737-1.605623,1.568461-.938274,1.8853972-2.884556,2.5492374-4.4475442,1.2079191-3.5783421,4.3763318-7.2253147,8.5077784-6.539164.3502584.0564933,1.9546677.5762315,1.1890733,1.1298878.2579272-.291448-.0999225-.540195-.4376906-.5791003-3.0716679-.3917456-5.5170327,2.2751788-6.4349824,4.9605297-1.0941381,3.5567599-1.6524948,8.3121484-6.4539827,8.1148632Z" fill="#423b30" stroke-width="0"/>
      <path d="m57.2659317,177.4524553c-2.3115464-2.2686688-2.5062275-5.8391107-4.6114189-8.2632022-1.5477836-1.7942576-4.5204779-3.0844451-6.7606795-2.0039228-.004237.0347125-.0081209.069756-.0124903.1042919.1041374.253646.4618547.4539765.563344.6550132-2.3719677-1.1187877,1.0056025-2.0096162,2.098549-2.0053572,5.2723241-.3805352,7.7267588,4.4936657,9.7138218,8.522961,1.197128,2.1612433,3.7332793,2.7110598,5.8982741,3.4420962-2.1119.9714638-5.041474,1.2834348-6.8894003-.4518801Z" fill="#423b30" stroke-width="0"/>
      <path d="m33.1182961,187.2577697c-3.5045477-.2870344-7.0247414-.7959595-10.2676326-2.2117121-2.0809611-.896522-4.5659153-1.68222-5.5137667-3.9488586-.3191871-.6920427-.5564589-1.4179815-.6440235-2.1778162-.0112987-.0988632-.0734413-.4688943.0875646-.5282122.0946263-.0160873.1015555.1848169.0547499.2225747.7701624,2.1204402,2.7052119,3.5039519,4.8856099,3.7347137,2.5003575.5403053,5.0096966,1.0653839,7.5672756,1.2511718,4.6700527.7200687,9.3047089.404567,13.9509727.3163403,5.1639497.1134941,10.2114262-.622353,15.2220937-1.6233655,2.4918394-.2473347,4.8359356-1.3098498,7.3102532-1.5343885.5691919,1.2031304-.1534146,2.5879221-1.1636513,3.2995168-2.8962739,1.3689691-6.2909245,1.3892714-9.3997986,2.0912887-5.4100265,1.2554088-11.2362938.884142-16.6727574,1.1148155-1.8022682.1079331-3.6168943.1672952-5.4168896-.0060686Z" fill="#423b30" stroke-width="0"/>
      <path d="m38.7141326,182.077843c-3.6713133-.3720392-7.3296948-.9038043-10.9625441-1.5535874-1.9874823-.4235231-4.0197841-1.0950208-5.6493285-2.3389103-.1053953-.0741695-.2295922-.2398537-.0734192-.2118278.0305196.0243186-.0260619.0201919-.0398763.0197726-.0008386.0007062-.0016771.0014123-.0025378.0021626,4.0251687,2.1265308,8.8778315,1.2458976,13.2759662,1.5117029,5.8096944.2161089,11.5762466-.334171,17.3422028-.8313119,2.1043749-.1253445,4.3146085-.1777111,6.3707655.1250797-6.0024116,3.9428782-13.3636632,3.8397118-20.2612285,3.2769195Z" fill="#423b30" stroke-width="0"/>
      <path d="m37.2896853,169.495376c-.8979784-.3339945-3.6057281-1.4108536-3.395114-2.542264.0212953-.0513294.2749413-.0679685.2626717-.0253999-.0656072.0266798-.1298242.0383978-.1797634.0880059-.0036853.0119386-.0070617.0235683-.0106366.0353966.4029119.5914141,1.268517.6749182,1.9096275.8901444,1.2224838.2507552,2.4859473.5116835,3.7300574.2790239,1.6526272-.3246378,3.1927754-1.2105231,4.9256849-1.0553652-1.367314,2.4848881-4.6595485,3.3031138-7.2425275,2.3304584Z" fill="#423b30" stroke-width="0"/>
      <path d="m39.134831,99.2145292c-.286571-.0467835-2.4742073-.6725349-2.1127606-.9405691.9593707-.1480301,1.9263769-.3206877,2.9023425-.3105586.6703723-.0196844,1.2946231.1444551,1.8346415.5562823-.2483056.3498391-.6514603.5783941-1.0649205.7174427-.5032316.158755-1.0553873.0784286-1.5593029-.0225973Z" fill="#423b30" stroke-width="0"/>
      <path d="m39.1030094,111.7999091c-.472381-.1149065-1.2673695-.2250904-1.3840414-.7768489.0317775-.1870237.2655405-.1205558.3893844-.0627164.8403597-.0612378,2.0595775-.5953421,2.5962858.3084622.0310713.0960386-.025422.1751292-.0875646.2485705-.3766513.4416407-1.0083831.3637859-1.5140642.2825326Z" fill="#423b30" stroke-width="0"/>
      <path d="m34.5872981,32.297394c-1.9159389-.6942274-2.2026644-3.1626309-1.4463164-4.8217681.3015108-.6416622.8323491-1.7346307,1.6807414-1.5930444.1148182.0502702.2726242.217786.2711678.3220779-.4010803-.3091021-.6101496.228864-.6633106.5680665-.1386292,1.0955725-.218757,2.6265185.7361561,3.3712589,1.7980974.3998445,1.1099827,2.7734672-.5784383,2.1534093Z" fill="#423b30" stroke-width="0"/>
      <path d="m35.4566547,67.9823267c-2.5688997-4.4956959-1.1132487-9.6677003-1.1159851-14.5413275.472734-4.0899815.0914706-8.2042374.5145082-12.2957636.1690606-3.621021,1.3370813-7.3067665.9883898-10.901549-.0062231-.0024274-.0125565-.0057817-.0199933-.0083857-.0028467.0010372-.0062893.0010813-.0082975.0010813h.0028247c-.0096215.0109456-.0282025-.0012579-.016948-.0112987.0564933-.04237.1101619.04237.135606.0762659.2608842.5275943.3019743,1.14496.3785491,1.7202205.402294,3.9870357.3125006,7.99839.6203669,11.995643.9370603,7.9660829,1.0183797,16.3265595-1.4790207,23.9651137Z" fill="#423b30" stroke-width="0"/>
      <path d="m41.5954225,33.3059316c-1.0779184-.83524.1169808-2.1939697.3352965-3.1925327.4152477-1.5476071,1.4720473-3.9744792.3283672-5.3262134-.1748423.0395453-.1583357.3136481-.2398758.3893402-.033896-.2372718-.0734413-.5395109.2005512-.6553221.4858423-.2090252.9349639.4914916,1.127041.8050293.5621082.9010679.6722701,2.0959009.6837012,3.1298384-.0738164,1.3354924-.3479413,5.6226708-2.4350813,4.8498603Z" fill="#423b30" stroke-width="0"/>
      <path d="m41.9154702,68.6222014c-2.3807506-2.7320682-1.4212254-6.4685253-1.5341899-9.759193.329912-8.8198597.0296148-17.7630999,1.5934196-26.4783808.003597-.017941.0342049-.0148516.0308065.0059583-.0207216,7.9394472,1.3279232,15.8113893,1.4099709,23.7551396.0147854,4.1322852,1.0470236,8.8894171-1.5000071,12.4764759Z" fill="#423b30" stroke-width="0"/>
      <path d="m34.7081407,27.7629472c-.4858423-.2655184-.1836032-1.0479504-.0480414-1.4263451,1.1342792-3.1250055,6.0576691-3.8814197,7.6520155-.7711995-1.2745194.9145954-2.7737762.1841769-4.1839677.2519027-1.0915341.0600462-2.1301058.5613579-2.7643312,1.4355253-.0308065.3212614-.3096318.7031649-.6556752.5101167Z" fill="#423b30" stroke-width="0"/>
      <path d="m64.6876708,50.0688796c-1.2268091-3.5242762-.9717066-7.8059156,1.0480608-11.0134101.5611151-.788302.7907736-.7784819.9208847.2005953-.1131631-.0620543-.2013677-.2892412-.2970532-.412732-.6596694,2.334585-.5421811,4.8507209-.084122,7.2147884.4033532,1.6511928.8014764,3.5239894-.5199589,4.8665435-.4915137-.0031115-.8324153-.4628698-1.0678114-.855785Z" fill="#423b30" stroke-width="0"/>
      <path d="m65.6423191,50.7451881c-.7290944-.3107351-.492595-1.6086684.1214606-1.7625684-.1403505.2858869-.1108239.6790007.0841662.923268.0002427.0001765.0004634.0003531.0007503.0005738.5476097-.5968427.7727884-1.6593579,1.7427075-1.7400815.6429642,1.0478401-.74591,3.0166752-1.9490845,2.5788081Z" fill="#423b30" stroke-width="0"/>
      <path d="m74.2488008,45.3342127c-.7728712-.7327576-1.0418984-1.7769786-1.2503939-2.7899077-.684937-1.1912139-2.0410627-2.1957351-3.4210877-2.4338455-1.0880033-.1647794-2.6482331-.5443216-3.4184617.3878617.1236011-1.1754576,1.7250313-1.6575042,2.711766-1.8810499,3.8531951-1.2629339,9.7484736,3.3512214,5.3851562,6.7210018-.0029791-.0000662-.0049652-.0020523-.0069789-.0040605Z" fill="#423b30" stroke-width="0"/>
      <path d="m73.7894674,45.8740766c-.1299401-.4632449.231617-.9547365.5479794-1.2598003.0610282-.0603551.5432513-.4444433.5875302-.2344471-.001473,0-.0029019.0000221-.0039887.0004193-.0003752.0006179-.0008165.0012358-.0013241.0018537.0641287.4610161.1750133.9144189.0137923,1.3733385-.1717032.5327361-.9567888.7890523-1.143989.1186359Z" fill="#423b30" stroke-width="0"/>
      <path d="m73.8947302,83.4958683c-2.424555-4.8263416-1.9916531-10.3406766-1.6724219-15.5440833.3610274-6.683597.9035395-13.3806333,1.3982309-20.0438177.7921197,6.8957337,1.102237,14.0139318,1.2317302,21.0098528-.1709143,4.8538545,1.0100161,9.9907272-.9575391,14.5780482Z" fill="#423b30" stroke-width="0"/>
      <path d="m66.09837,83.1794839c-1.6080725-1.7531897-1.2564901-4.2129206-1.2683625-6.397837,0-2.2730438.0842324-4.5405871.2099299-6.8107566.1380555-2.6747143.2678576-5.3496714.4623402-8.021561.1892525-2.6156391.4604203-5.2228042.6469364-7.8102188-.0265033-.6748079.1869795-1.4620506-.1545621-2.0535089-.0138585-.0024716-.0624736.0133289-.040428-.0141233.3559077-.1694799.5310369,1.6863246.5396433,1.7625905.5123676,6.1522733.7161407,12.3416644.887077,18.5128882-.2285109,3.5742154,1.2415062,7.8483573-1.2825741,10.8325268Z" fill="#423b30" stroke-width="0"/>
      <path d="m69.7117555,87.4313594c-1.9631196-.2329962-7.3880197-.9324702-7.2931287-3.5282374.1025044-1.0653784,2.6594214-2.2660317,3.2257225-1.1410706.0210526.0499392-.0363455.2897488-.0818932.2796418.0939642-.5900459-.670615-.4089805-.9689923-.2288419-3.713926,2.2270326,3.8887683,2.0320149,5.0873086,2.016722,1.9209262-.0520135,3.7639755-.5404819,5.578734-1.132558.4767724-.1087496.9524194-.0219849,1.4272223-.0338298.1475446-.0748536.2595657-.0809443.4257575.0140406.4321736.2485705.5310424.8361006.4125168,1.2825907-.9699025,2.651124-5.4522917,2.5738705-7.8132476,2.4715426Z" fill="#423b30" stroke-width="0"/>
      <path d="m63.9075118,96.653c-1.4468681-2.2294545-.0514398-4.9900398-.5348325-7.3905355-.3242185-1.3961124-1.3097394-2.5169524-1.7813701-3.8516228-.0706166-.1920827-.1864278-.644029.1412553-.4914971.0212291.0354848-.0852033-.00016-.1071386.0112104-.0046121.0032881-.0089595.0067306-.0131744.0102173.2988186.7418716,1.0495835,1.2058448,1.5663867,1.7977167,1.4867002,1.3260144,2.2433572,3.2272286,2.1948965,5.2086202.0559416,1.3701608-.0640184,2.91.7037607,4.10843.6264576.8643031,1.6097276,1.2549674,2.4231647,1.8515454-1.5894915.4847609-3.6116643.2832388-4.5929482-1.2540847Z" fill="#423b30" stroke-width="0"/>
      <path d="m71.3705617,98.5484159c1.0081183-1.3573615,3.2052161-2.3796031,3.0630395-4.3318433-.7055923-3.1830656-.5485807-7.0321176,2.3178577-9.1277702.2668646-.17866.7419543-.4918667,1.0705478-.3219897.0051418.0295045-.0262164.0045901-.0423479.0005462-2.1487089,1.0646171-2.4798125,4.5818151-1.9936834,6.6766733.4085391,1.6254177,1.1619742,3.4158135.2931637,5.0168024-.8508363,1.746768-2.8971732,2.3311204-4.7085774,2.0875814Z" fill="#423b30" stroke-width="0"/>
      <path d="m67.4002312,99.5281993c-.446297-.2824664-.8643473-.6129521-1.2908716-.9264899-.0523666-.0349111-.1047333-.0698222-.1570999-.1047553-.0493434.0074368-.1519802-.0585014-.0688512-.0902569,1.4102357.2674163,2.7766008.8749177,4.2435946.9100715,1.7575149.1066752,3.4036763-.8068609,5.1596906-.5457119-1.7012423,2.702961-5.520365,2.449646-7.8864626.7571424Z" fill="#423b30" stroke-width="0"/>
      <path d="m8.8621758,37.2573059c-1.3777962-1.277322-.7960919-3.4694601-.3303974-5.0364647.8415513-.5129414.8440009,1.019108.9716624,1.5282316.1945267,1.1947006.278406,2.5931742-.641265,3.508233Z" fill="#423b30" stroke-width="0"/>
      <path d="m39.2260147,23.809631c-1.2695983-1.075513-.5691919-3.1092492.0763763-4.3527856.1930923-.2317769.5030771.0003531.4351528.2647019.1024824,1.3452905.5875081,3.0356755-.511529,4.0880836Z" fill="#423b30" stroke-width="0"/>
      <path d="m68.678767,37.0251758c-.0547941-.624979.8793312-3.0274222,1.4207399-1.5422226-.0411121.0296369-.1290739-.0132406-.1838901-.0149398.0730661.7271304.2785604,1.345136.0341829,2.0147139-.4891524,1.1590392-1.2601975.4654738-1.2710327-.4575515Z" fill="#423b30" stroke-width="0"/>
      <path d="m8.00841,33.7711847c-2.903479-3.2256563-1.9646754-8.5328032-.7028449-12.1884705-1.9035258-2.7530546,1.5399054-5.0604302,3.315869-2.1608682,2.3767564,3.7739721,3.6673411,9.6724449.0253999,13.0668969-.2462754.1919227-.5891852.3717964-.866863.4434282.8787795-2.5834203-.0600462-5.5328332-.3967777-8.1668768-.8429623,2.1199767-2.389886,7.0863103-.6602867,8.8950223.2651212-.0715655.3192974-.4646352.4719837-.5982551-.0091802.8037715-.496192,1.3377433-1.1864804.7091231Z" fill="#423b30" stroke-width="0"/>
      <path d="m39.7057001,18.173543c.4936984-3.5214516,1.2442425-7.095998-.5683533-10.2901857-.772965,2.5984484-1.7421779,5.368142-1.3279674,8.1013137.0517487.7767606.8692242,1.9049933,1.5970608,1.1126529.0066865-.0031777.0018537-.0860199.0282025-.050844.033896.2429211-.2372718.395453-.4095543.5027682-.6561165.3242406-1.3450257-.210614-1.6921725-.7399958-2.1800671-3.8630815-.8168355-8.560785-.2395668-12.6909849-2.1862681-4.5395334,4.4793438-6.0785341,3.2580296-.7133491,3.7127784,5.6528814,4.0002984,9.5710659-.6456785,14.7686247Z" fill="#423b30" stroke-width="0"/>
      <path d="m70.7073393,33.9855723c.8921526-4.211442,1.9613266-8.2652104-1.2449266-11.8126356-.4467383,2.5139291-.6199035,5.0671829-.5184362,7.6193995.1679351,1.0791762-.0315789,2.4318373.6336075,3.3006202.0000883-.0028688-.0027364-.0028688-.0027364-.0028688.0132406-.0052742.0532273.0024716.0282025.0198389-.3998445-.0318657-.5479187-.5931574-.7457114-.8898134-1.5719919-3.467143-2.0569293-7.3690415-1.8842055-11.1490161.2931693-1.5572286-.4533807-4.9611476,1.6130157-5.2876612,1.0226388-.1550697,1.7221846.7255415,1.8317286,1.6595123.2933237.8173431.7968643,1.5322259,1.2743429,2.2496686,4.4043136,5.1454128,3.397856,9.6156647-.984881,14.2929557Z" fill="#423b30" stroke-width="0"/>
    </g>
  </g>
</svg>