<?xml version="1.0" encoding="UTF-8"?>
<svg id="Layer_2" data-name="Layer 2" xmlns="http://www.w3.org/2000/svg" viewBox="0 0 231.3805957 373.6186203">
  <g id="Layer_1-2" data-name="Layer 1">
    <g>
      <path d="m58.7153486,373.6186203c-.054048-1.1685588-.0996417-2.3375606-.1638506-3.505546-.1480557-2.6932463-.2880934-5.387118-.4633945-8.0786182-.1729238-2.6549649-.4038492-5.3061772-.5740568-7.9612985-.1226991-1.9139899-.130196-3.8364231-.2897347-5.7466865-.3784339-4.5314031-.7964041-9.0597312-1.237347-13.5855316-.3442192-3.5329085-.7210378-7.0631589-1.1345007-10.5886143-.2149611-1.8328407-.5766817-3.6482216-.8047673-5.4798636-.1796846-1.4429911-.1812218-2.9098786-.3925224-4.3469281-.6811108-4.632149-.4681558-9.2859014-.4441865-13.9375169.019957-3.8721246-.024321-7.7446661.0044161-11.6166865.0134241-1.8081885.1704226-3.6150219.194457-5.4233927.0386895-2.9110513-.0026509-5.823119.0351853-8.7341703.0281378-2.1648905.1295772-4.3287908.1956554-6.4932122.0747736-2.4493817.1773919-4.8983987.2131178-7.3483798.0745912-5.1139365.1702142-10.2286549.1464143-15.3425393-.0158471-3.4058946-.2018106-6.8118153-.3516118-10.21599-.1186738-2.6966079-.2918516-5.3908966-.452211-8.0855501-.181326-3.0467951-.4165633-6.0909582-.5531293-9.1396296-.1604571-3.5820566-.2329446-7.1679961-.3566597-10.7517987-.1273496-3.6895129-.2705854-7.3784785-.4065848-11.0676916-.0731778-1.985432-.1210968-3.972193-.2243274-5.9560483-.1588027-3.0520591-.3841853-6.1007826-.5271735-9.1534802-.1230247-2.6263516-.1623265-5.2565079-.2530514-7.8845013-.1250243-3.6211589-.2355694-7.2431516-.4032043-10.8624342-.2318503-5.0056334-.475835-10.0112537-.7830647-15.0126655-.1872141-3.0477854-.6144724-6.0833358-.7323646-9.1321896-.1399921-3.6201686-.0723702-7.2486893-.078851-10.8736137-.0094118-5.261394-.0406956-10.5231269.0057122-15.784117.0360451-4.085695.1466553-8.1714681.2821466-12.2552738.0788445-2.3763892.2346641-4.7519509.4223211-7.1226201.2999282-3.7890014.6914996-7.5709342.9722915-11.3611929.1493062-2.0153613.185195-4.0415568.2057577-6.0635371.0467205-4.594428-.5439259-9.1464116-1.0296809-13.7012617-.2291994-2.1491701-.6790069-4.2742287-1.0037055-6.414037-.154569-1.0186289-.2466422-2.0466391-.373373-3.0696167-.3725263-3.0070609-1.1316934-5.9166725-2.0858972-8.7914555-1.1522106-3.4713039-2.1930098-6.9795666-3.2861765-10.4705323-.4300655-1.3733862-.5678691-2.7878193-.5371194-4.2134092.0582231-2.699437.124614-5.3997275.2597862-8.0960439.0674461-1.3453886.2779195-2.6849056.4518463-4.0234177.6177421-4.7541351,1.2499178-9.506393,1.8694055-14.2603035.0637725-.4893365.0792483-.984969.1237086-1.5631293h2.4335945c-.0675894.9318262-.1082524,1.8410023-.2039274,2.7443469-.2580471,2.4362525-.5454566,4.8693763-.8101213,7.3049474-.2989577,2.7510698-.6823157,5.4975906-.8499246,8.2569676-.1568162,2.5817964-.1181332,5.1782953-.0870578,7.7673818.0135543,1.129621.109516,2.2838797.3703118,3.3787488.3695367,1.5513626.9332502,3.0559615,1.4013539,4.5844114,1.1752614,3.8373775,2.4345976,7.6524058,3.4760416,11.5259376.5217869,1.9407139.6431833,3.9893629.9414441,5.9898247.083736.561637.1638702,1.1242512.2262944,1.688556.3786489,3.4230971.7951275,6.8428032,1.1123812,10.2716497.2386242,2.5790406.4117434,5.168036.4944894,7.7564255.0701752,2.1950804-.0088908,4.3962261-.0667426,6.5935021-.0233244.88582-.1827394,1.7671904-.2512667,2.6528345-.2137952,2.7628185-.4326318,5.5254677-.6142509,8.2905013-.2232722,3.399295-.4511363,6.7991895-.5988077,10.2022175-.0861981,1.9865265.0026509,3.9800043-.0262685,5.9697882-.0686445,4.7233181-.1999022,9.4460368-.2326124,14.1695113-.0371784,5.368746-.0341041,10.7385345.0343125,16.1068114.0243991,1.9142375.3052952,3.8243706.4439586,5.7381911.2131243,2.9415018.4292253,5.8831339.5995241,8.8272938.2769555,4.7882322.5291275,9.577989.7698295,14.3681887.1408649,2.8033736.2071646,5.6106691.3637854,8.4130264.2755942,4.9314421.6029828,9.8599655.8915841,14.790717.1182374,2.020065.1920275,4.0427229.2860286,6.0642082.1664885,3.5799719.3442257,7.1594486.4963066,10.7400329.1535985,3.6161815.2514882,7.2349429.4317134,10.8496781.1202044,2.4109961.3515793,4.8162722.5153973,7.2253139.1783429,2.6226251.3636942,5.2451981.4966192,7.8703249.2190515,4.3261587.4466681,8.6529169.5774698,12.9822288.0868103,2.8734736.0397577,5.7522633.0009835,8.6279519-.0487461,3.6149697-.1371067,7.2295486-.2338955,10.8436323-.0579235,2.1627015-.1930827,4.3234486-.2402526,6.4862543-.0363447,1.6664771.0152087,3.3347523.0187976,5.0022456.0042663,1.9825263.021175,3.9654175-.008298,5.9475008-.0299876,2.0163515-.1322021,4.0316085-.1626912,6.0479601-.0520419,3.4422997-.0914935,6.8850163-.1005471,10.3276808-.0069107,2.6279673.136514,5.259609.0395558,7.8831983-.1070083,2.8953375.2699015,5.7331617.6459711,8.5816963.083482.6322809.0616557,1.2785037.145294,1.9107585.2698885,2.0401178.5955249,4.0731734.8461012,6.1154802.4369892,3.5615999.8560537,7.1257537,1.2423753,10.6931649.5007422,4.6239143.9687742,9.2514508,1.4356599,13.8789612.1176317,1.1658746.1887578,2.3369091.2612061,3.5067969.1534878,2.4784641.2986385,4.9574494.4381551,7.4367735.1594997,2.8344886.2880934,5.6708795.4689895,8.5039609.1830716,2.8672193.4136974,5.7314157.6234999,8.5969411h-4.4820398Z" stroke-width="0"/>
      <path d="m7.7054671,373.6186203c-.0498599-.7741747-.1095665-1.5478544-.1478782-2.3226024-.1667263-3.3713919-.2943625-6.745103-.4997164-10.1140714-.1858316-3.0486974-.4394122-6.0935381-.6914231-9.1377533-.1493013-1.8034196-.354792-3.6021485-.5326903-5.4032227-.4850645-4.910829-.9663806-9.8220229-1.4540765-14.7325913-.3442713-3.4665089-.6146222-6.9353632-.4774015-10.4243875.0878541-2.2338439.0566176-4.4768346.2476583-6.7011928.3217806-3.7465961.7896481-7.4804492,1.1709203-11.2222243.1332052-1.3072473.209599-2.6211658.2809677-3.9336771.1116328-2.0530954.2398162-4.1067641.2811941-6.1617618.0406875-2.0207816-.0201231-4.0435438-.0326076-6.065446-.0146584-2.3742002.0732348-4.7542116-.0663551-7.1209066-.1294616-2.194911-.5051078-4.3750203-.7634073-6.5627128-.5595141-4.7388886-.5861343-9.4977388-.4526946-14.2566411.1033543-3.6859818.2348693-7.3741005.4849652-11.0523687.4560441-6.7071865.3751935-13.4197673.3302317-20.1319312-.0378411-5.6492502-.1246287-11.298787-.2593547-16.9465257-.1058213-4.4360776-.2790235-8.8715167-.495056-13.3036854-.1746319-3.5827993-.5310408-7.1574551-.6708815-10.7410362-.1246303-3.1937445-.0375317-6.3951765-.0906288-9.592452-.0525109-3.1620692-.1795576-6.3228484-.243423-9.4848133-.0444294-2.1995626.063582-4.4066564-.0772243-6.5987791-.204709-3.1869951-.5875998-6.3621982-.8658449-9.5449325-.2627514-3.0055039-.4903729-6.0140697-.7297934-9.0215932-.1579055-1.9835817-.3112728-3.9675413-.4632121-5.9515922-.2114732-2.7614439-.3804401-5.5268488-.6415843-8.2835499-.2140574-2.2596297-.6903353-4.503311-.7740209-6.7642958-.1234497-3.3352865-.0756187-6.6823649.0468556-10.0190064.0621898-1.6943477.4924572-3.3719196.6768819-5.0657265.3927471-3.6071258,1.131993-7.1484645,1.8901294-10.6900769.2970102-1.3874714.4410454-2.8069828.6920842-4.2051972.3199422-1.7820052.7006216-3.5532414,1.009675-5.3369991.1573503-.9081595.2338304-1.8319287.3147738-2.7514631.2895426-3.2892459.6216094-6.5761399.8296973-9.8707476.1877987-2.973353.3542905-5.9575011.3080178-8.9334275-.042946-2.7621475-.4367531-5.5169593-.5697596-8.2801296-.1178694-2.4486456-.1060525-4.9042392-.1205236-7.3569501-.0115189-1.9529032-.0371784-3.894754-.3022404-5.8425268-.1902363-1.3979245-.0313864-2.8398894-.0991744-4.2588178-.0930746-1.9482125-.2649106-3.8925161-.3812949-5.8397938-.1140819-1.908765-.2681233-3.8185528-.2853756-5.7289661-.032676-3.6181034-.0279831-7.2380603.0533592-10.8551718.0582329-2.5895393.2057398-5.1808687.4247099-7.7619533.2311859-2.7251015.5910014-5.4393916.9045865-8.1572543.0361167-.3130234.1360238-.6186834.2219777-.9964098h2.1605601c0,1.0072905.0462369,1.9583395-.0076874,2.9036727-.295543,5.1811394-.4716013,10.3638485-.3400424,15.5542533.0603188,2.3797802.0513564,4.7622216.1582963,7.1396532.100394,2.2319187.357412,4.4566776.4630818,6.6884953.1242493,2.6241854.1753549,5.2522472.2297546,7.879221.0713118,3.4437753.1124372,6.8881695.1711326,10.3322184.0411336,2.4135956.103737,4.8268947.1320783,7.2406206.0423989,3.6111194.2374697,7.2316724.0482853,10.8314234-.2290349,4.3580099-.872824,8.6926836-1.1832126,13.0484329-.2563015,3.5967542-1.0113571,7.0963912-1.6607232,10.6231887-.6813273,3.7003927-1.3427188,7.4066227-1.896322,11.1276414-.3965265,2.6652519-.68617,5.3534882-.8626191,8.0420307-.1250944,1.9060678.0173533,3.829778.0426578,5.745579.0075067.5684352.0064434,1.1376522.037947,1.7049278.0589738,1.0618974.1160652,2.1247329.2141453,3.183464.3635639,3.9245432.7493352,7.8470017,1.1155663,11.7712973.3268268,3.5020801.6411528,7.0053199.9564672,10.5084684.1591317,1.7679657.293418,3.5382637.4654788,5.3049264.2340697,2.4032956.5244216,4.8014835.73171,7.206929.1489317,1.7282771.2372027,3.4637987.289015,5.1979783.0868787,2.907833.1344427,5.816995.1774098,8.7259225.0404025,2.7352932.0336025,5.4713682.0843043,8.2064269.0480378,2.5913537.1365563,5.182069.2214028,7.7726019.0453282,1.3839924.0955692,2.7686624.1873851,4.150127.1907541,2.8701249.4657474,5.7357025.602066,8.6080946.1195352,2.5187651.0940988,5.0443447.1377922,7.5668102.0621507,3.5879591.1137953,7.1761788.1989626,10.7636037.0598173,2.5196772.2293573,5.037908.2416969,7.5573116.0248876,5.0815186.0203445,10.1641316-.0608415,15.2448684-.0413925,2.5902853-.2599067,5.1785119-.4248841,7.7659567-.362087,5.6787756-.2738388,11.365395-.1806812,17.045656.0476063,2.9028947.4389074,5.8071445.794665,8.6960192.3747229,3.0429122.5087928,6.0855899.4623751,9.1474995-.0495603,3.2690824.0469143,6.5413961-.0490181,9.8085241-.0780645,2.6586654-.3339817,5.3126661-.5339393,7.9670055-.1439506,1.9109149-.3281002,3.8187809-.4897281,5.7283667-.1673874,1.9776793-.3666594,3.9536647-.4824852,5.934445-.1056324,1.8064425-.1386145,3.6179926-.1678107,5.427875-.0792792,4.9146337.5311955,9.7721451,1.2027805,14.6274153.247686,1.7906505.3187811,3.6050411.5046079,5.4050729.4012161,3.8863531.8688085,7.7663216,1.2259681,11.6565575.3341527,3.639622.5924571,7.28714.8244735,10.9349447.1757636,2.7633984.2850321,5.5319044.3703248,8.299785.0456751,1.4822366-.0218296,2.9679131-.0382596,4.452052h-4.0551789Z" stroke-width="0"/>
      <path d="m26.7007786,373.6186203c.0359408-2.9463098.0028822-5.8954079.1229303-8.8382779.2155734-5.2848345.5188201-10.5661511.7940593-15.8484578.1310167-2.5144783.2680028-5.0288002.4269065-7.5416107.2506772-3.9641666.5438022-7.9257795.7766718-11.8909364.1411352-2.4030219.236185-4.8099789.2906075-7.2165449.056699-2.5073641.0790529-5.0169432.0432261-7.5245157-.032391-2.2669394-.2030807-4.5318461-.2405848-6.7988377-.0415554-2.5120808.0213671-5.0257773-.0020941-7.5383794-.0306845-3.2869071.2052529-6.5778012-.2025531-9.8607472-.11756-.9464278-.0082818-1.9187849-.0520321-2.8769916-.2042075-4.4725869-.7022597-8.9131207-1.3299607-13.3471656-.5173123-3.6542414-.9123065-7.3315975-1.1918152-11.0115856-.1744446-2.2967775-.0548557-4.617686-.0293037-6.927363.033329-3.0125269.0449684-6.0271125.1725753-9.0363298.1985897-4.6830693.5438803-9.3601969.7207544-14.0438656.1660456-4.3968841.2549923-8.7988759.2626325-13.1988091.0054191-3.12298-.2219337-6.2456212-.2706863-9.3695784-.057663-3.694829.0342669-7.3927981-.0654986-11.0859723-.1122093-4.1539969-.3731548-8.3038633-.5554644-12.4561272-.1152445-2.624762-.214808-5.2503188-.3031621-7.8761362-.0740571-2.2009568-.0967432-4.403842-.1877287-6.603991-.0998143-2.4135109-.2598611-4.824494-.378815-7.2373013-.1190288-2.4143057-.2167751-4.8296538-.329196-7.2442852-.1387122-2.9793271-.2979481-5.9577813-.4205299-8.9377338-.1195889-2.9071685-.1977951-5.8160308-.3064611-8.7236813-.066176-1.7706368-.1745293-3.5398012-.2301145-5.3106986-.0812447-2.5884351-.2133328-5.1789549-.1777762-7.7665691.0604507-4.3988647.2324886-8.7962439.3621049-13.1941053.0460561-1.5627474.0669445-3.1275273.1659284-4.6871606.2294697-3.6155886.5289126-7.2268579.7452252-10.8431567.2334428-3.9027119.3092651-7.8169421.6277727-11.7119273.3691589-4.5144124.2078159-9.0233001.1001791-13.5324875-.0592294-2.4812916-.3859471-4.9551171-.5358786-7.4357051-.0964241-1.5953217-.144926-3.1976403-.1206929-4.7953986.0748387-4.9345757.1930208-9.8685032.2980067-14.8026066.0687422-3.230661.0932358-6.4633708.2325147-9.6910643.1056014-2.447209.4316483-4.8850041.5337097-7.3322392.1628703-3.9052511.2262618-7.81474.3224417-11.7226655.1407932-5.7209968.2730214-11.4422053.4117662-17.163254.0033316-.1373994.0404514-.2739789.0744935-.492214h1.9380728c.0582231.9610231.1521135,1.9091588.1674069,2.8585613.120237,7.4636536.2893374,14.9274255.3037645,22.3914312.0057546,2.976674-.3736662,5.952444-.5151726,8.9316017-.101104,2.1284887-.0829186,4.2623814-.1457434,6.3930428-.0564515,1.9144948-.1832344,3.8272502-.2201327,5.7419079-.0456751,2.3700535-.0157038,4.7414913-.0495603,7.1118836-.0126653.8868331-.1124372,1.7724381-.1733732,2.6585448-.2244641,3.2640138-.2691199,6.5252523-.0202371,9.7935203.1240017,1.6283065.1159252,3.2692127.1116491,4.9042686-.0111411,4.2624173.0216733,8.5269649-.1044649,12.7864766-.1198983,4.048671-.4259979,8.0916675-.6372041,12.1378368-.237048,4.5412732-.5277499,9.0811912-.6688037,13.6256111-.1364879,4.3971447-.1161987,8.7992147-.1561778,13.199213-.0100143,1.1020029-.0149677,2.2053739.026516,3.3062692.0909203,2.4128855.2189701,4.8243376.3195921,7.2368843.0413046.990325.0277437,1.9831518.0788575,2.9727992.2729888,5.2855903.5448639,10.5713239.843916,15.8554939.2550119,4.5060733.5851361,9.0081465.8086981,13.5156401.1671366,3.3697892.1783559,6.7471357.3292579,10.1179673.2128638,4.7547589.4974106,9.5062863.734755,14.2600289.0459812.9209938-.0173549,1.8473559.0265583,2.7685451.2489056,5.2209107.2785024,10.4428898.2160782,15.6690514-.0292321,2.4471927.2011039,4.896379.2362566,7.3457608.0397805,2.7714377.0634664,5.5465889-.0333876,8.3156682-.1463915,4.1854115-.4231157,8.3660803-.6060375,12.5504494-.1224613,2.801367-.2092782,5.6051054-.2557381,8.4087396-.051739,3.1219246-.0571256,6.2449957-.049632,9.3674415.0056829,2.3686756-.0302872,4.7432666.1227382,7.1041504.1674525,2.583588.5013447,5.1581073.8167063,7.7299425.3499835,2.8541896.8147881,5.6950106,1.1294886,8.55264.2835861,2.5751187.4987068,5.161886.6225717,7.7493568.1492639,3.1180156.195333,6.2418425.2390834,9.3637931.035765,2.5521864-.0345242,5.1059363.0101609,7.6578099.0465576,2.6588478.1960137,5.3157671.2603822,7.9744846.055875,2.3078267.1018921,4.61766.0690256,6.9254346-.0443268,3.1126213-.1123916,6.2270147-.272331,9.3353623-.2041359,3.9672938-.5155764,7.9289848-.7702627,11.8937508-.1683611,2.6209052-.3340583,5.2421752-.4728682,7.8647482-.2232494,4.2179598-.4998596,8.4351118-.6129319,12.6563812-.1292678,4.825823-.1043704,9.6558156-.1464566,14.483984h-4.0551789Z" stroke-width="0"/>
      <path d="m83.6867131,373.6186203c-.0869471-.5594968-.132404-1.1292611-.2675371-1.6768748-.9140749-3.7041192-1.3485043-7.4783383-1.6843408-11.2681671-.3103365-3.502028-.633765-7.0029354-.9318108-10.5059797-.07521-.8839894-.0769751-1.774259-.1099328-2.6617404-.1502572-4.046723-.3201652-8.0927946-.4441474-12.1402994-.1587897-5.1840886-.3064285-10.3687766-.4102127-15.5541943-.0945352-4.723253-.1050804-9.4481477-.1903145-14.1716351-.0422979-2.3440233-.2035887-4.6858055-.2488177-7.0298027-.0526151-2.7261333-.0344688-5.4536217-.052081-8.1804847-.0107471-1.6645226-.0312838-3.3290192-.0469419-4.9935157-.017013-1.8084751.0093858-3.6186181-.0594672-5.4250866-.1257017-3.2979823-.257995-6.5971634-.4779258-9.8898036-.3217936-4.8176404-.7165826-9.6305118-1.0925675-14.4444517-.3957009-5.0662477-.8829214-10.1224625-1.6857542-15.14394-.5211486-3.259727-1.0988334-6.5130174-1.5117687-9.7867644-.5687419-4.5089659-1.1944824-9.0089153-1.5170381-13.5529442-.2339346-3.2955588-.408135-6.5914303-.5005077-9.8883703-.1035041-3.6938387-.0188693-7.3930066-.0122256-11.0898552.0057969-3.2222665.0126099-6.4445592.0269003-9.6668127.0165114-3.7229472.0746238-7.4460767.0506806-11.1687242-.0141471-2.2004487-.1637008-4.3997637-.2300266-6.6002645-.0395558-1.3124461-.0205497-2.6265992-.054784-3.9392798-.0721748-2.7679848-.1373867-5.536543-.2523219-8.3029121-.095903-2.3083479-.3056534-4.6124741-.3780366-6.9211869-.0678759-2.1649296-.0369634-4.3335596-.0221129-6.5003655.0215919-3.151476.0227708-6.3040856.1140754-9.4538416.1359212-4.6887242.2072297-9.3854616.5540542-14.0603742.4323582-5.8280051.2354196-11.6550656.3274472-17.4823801.0748387-4.7389408-.3902101-9.4461867-.7682077-14.15712-.3040251-3.789034-.7221581-7.5692012-1.1170188-11.3504499-.1032436-.9886377-.2650816-1.9759984-.4750209-2.94773-.6072295-2.8106442-1.2595771-5.6114965-1.8811556-8.4190852-.6449875-2.9133511-1.1858001-5.853159-1.9342657-8.7393366-.8775869-3.3840861-.9355495-6.8077109-.9197871-10.2627537.0290367-6.3660224.3298962-12.715559.9261181-19.0527336.2329185-2.4756041.4334785-4.9542408.6620721-7.4302684.3821726-4.1395501.7893892-8.2768355,1.1578316-12.417586.2110075-2.3714346.3663125-4.7478283.5490976-7.1536221.7397507-.3011687,1.4583525-.1646855,2.221584-.1032656,0,.7623351.0317267,1.4651354-.005341,2.1642859-.1863087,3.5138413-.3551681,7.0292113-.6009441,10.5390848-.1661563,2.3730479-.4708784,4.7360457-.6746104,7.1068924-.2159837,2.5133529-.4197353,5.0286748-.5680645,7.5467184-.2381422,4.0430226-.4921836,8.0869964-.6148762,12.1343448-.099062,3.2679162-.0497362,6.5420444.0080245,9.8121007.0205823,1.1655978.1955838,2.3392935.4107989,3.4885585.6012176,3.2105496,1.2437757,6.4136559,1.9014252,9.6132377.6004946,2.9214947,1.3070206,5.8226238,1.8442052,8.7552003.4024553,2.1970153.6234022,4.4280773.8998627,6.6471324.1756203,1.4096219.3262618,2.8231462.4498206,4.2382732.1761739,2.0177327.3344426,4.0373872.4693998,6.0582861.2130527,3.1903828.512805,6.3803747.5729756,9.5743472.0964371,5.1189334.0468312,10.2411178.0159904,15.3616734-.0098417,1.6332382-.1807463,3.2648347-.2345078,4.8986071-.1016478,3.0891678-.1960463,6.178948-.2491889,9.2692364-.0733146,4.2626909-.1146876,8.5260072-.153084,12.7892063-.0438806,4.8722871.1731713,9.7326389.5439129,14.5927171.2457564,3.2215499.2539567,6.4611721.3717708,9.6925725.0879567,2.4126509.1875463,4.8248719.2688984,7.2377313.0334202.9911589.0451703,1.9834775.0450856,2.9752619-.0003387,4.2983012-.0295121,8.5967196-.0089559,12.8948905.0266853,5.5797105-.0055689,11.1622614.1694977,16.7378676.1359212,4.3288689.4391191,8.6601614.8716076,12.9699287.4676542,4.6602542,1.1250823,9.3034524,1.7853177,13.9418818.7154037,5.0259598,1.5496831,10.0349287,2.2861837,15.058022.1797107,1.2257072.1690157,2.4785944.2648601,3.7175138.213678,2.7621736.4493647,5.5226011.6579036,8.2851135.3529471,4.675512.7698035,9.3479751,1.0132932,14.0293765.215645,4.1460096.2602486,8.301974.3276426,12.4543942.0599101,3.6911155.0222367,7.3837946.076441,11.0750665.0327949,2.2332706.2092228,4.4646909.2293166,6.6978051.0235394,2.6159799-.0879958,5.2330544-.0752361,7.849321.0117436,2.4099798.1164006,4.8194124.1695433,7.229314.0647886,2.9377102.084205,5.8768015.1845306,8.8132087.1807724,5.2909846.3552854,10.5831158.6306451,15.8696442.2253695,4.3265757.4724351,8.6585718.9291794,12.9648992.5728323,5.4007731,1.190861,10.806706,2.5811942,16.0820549.2072493.7863706.3920404,1.5786827.5872204,2.3682326h-4.6954703Z" stroke-width="0"/>
      <path d="m138.7517734,373.6186203c-.086172-.7383951-.170846-1.4769465-.2587766-2.2151332-.3525433-2.959991-.7906723-5.9128157-1.0382199-8.8815366-.3213963-3.8542999-.5382397-7.71918-.7078873-11.5835649-.0915912-2.0863733.0125448-4.1811639.0220152-6.2722018.0149677-3.301761.028711-6.603548.035537-9.9053089.0115157-5.5734692.0427538-11.1470427.0134306-16.7203295-.0125187-2.3774576-.1450009-4.7547067-.2446296-7.131148-.078838-1.8804253-.312968-3.7628833-.2607437-5.6383573.0891291-3.2007284-.2298051-6.3797493-.3154691-9.5697933-.0343125-1.277748-.1917018-2.5517433-.2446296-3.8294652-.1014524-2.4488345-.142643-4.9003531-.258451-7.3483798-.0771054-1.6297332-.2777827-3.2535509-.3572329-4.883232-.1868298-3.8325403-.3585225-7.666175-.486771-11.5010346-.0604963-1.8084491-.0329838-3.6211719-.0001433-5.4311585.0902624-4.9745705.0956034-9.9464047-.2110075-14.9158936-.1946198-3.1541601-.3962741-6.309988-.4847519-9.4681353-.1291473-4.6101809-.1734383-9.2229417-.2264703-13.8349207-.0306389-2.6642421-.0077379-5.3291096-.008298-7.9937035-.000469-2.1990284.0124536-4.398135-.0047548-6.5970331-.0097049-1.2409129-.0581384-2.4818388-.1068194-3.7220611-.1323258-3.3719521-.2157232-6.7471617-.4248418-10.1144753-.3751056-6.0397774-.0876701-12.0831119-.1970689-18.1234366-.0392496-2.1664671-.1667035-4.3312143-.2348986-6.4973426-.1107014-3.5159047-.2091837-7.0322132-.3064155-10.5485218-.0971927-3.5145365-.1220608-7.0324738-.2965282-10.5430624-.1940336-3.9041386-.5306061-7.8010458-.7881842-11.7022137-.404989-6.1336957-.9432287-12.2618278-.7172796-18.4213354.0716211-1.9527143.0303914-3.9096502.1058424-5.86213.1864651-4.8260836.3844718-9.6520435.6288278-14.475469.1599426-3.1571114.3960787-6.3106265.6219888-9.4640439.1877808-2.6211788.387468-5.2419472.625962-7.8588848.1511365-1.6581836.4159836-3.305937.5703247-4.9639122.1876114-2.0155502.3327556-4.0356608.4602485-6.0560711.2147592-3.4035362.433244-6.8073656.5923008-10.2137749.2717252-5.8195879.4713473-11.6425896.7529859-17.4616498.2353154-4.862049.4160487-9.7306877,1.0369302-14.5648139.4117369-3.2058295.9107009-6.4004893,1.3182562-9.6068091.4166089-3.2774507.8273296-6.5577452,1.126867-9.8471581.164046-1.8015083.089559-3.6245047.1292515-5.437666.0309907-1.4157752.0721813-2.8313275.1107535-4.321364h2.1146343c.0215984.7256704.0331401,1.4260994.06473,2.1256223.2317982,5.13142-.1980849,10.2269944-.7956486,15.3161182-.5880801,5.0082344-1.1942414,10.0153174-1.6892975,15.0330912-.2403959,2.4366582-.2563667,4.8961315-.3543019,7.3460637-.2270955,5.6818473-.4385459,11.3643201-.6637526,17.0462488-.1181788,2.9814901-.1857356,5.9670259-.3950756,8.9423594-.2766884,3.9323936-.6758154,7.8560769-1.0112024,11.7844639-.2502701,2.9315471-.4725849,5.8654982-.7275968,8.7966153-.1322868,1.5204463-.3477624,3.034254-.4566271,4.5560033-.2129876,2.9770795-.3982021,5.9565239-.5563079,8.9370367-.152348,2.8720729-.2500357,5.7469992-.3822443,8.6201862-.2614471,5.6814467-.3141664,11.3666719-.216114,17.0512587.0379209,2.1990154.2844784,4.3943303.4323191,6.5915737.2840355,4.2211.5962088,8.4406234.8389625,12.6641208.2221845,3.8656879.3996871,7.7346332.5361685,11.6042822.085182,2.4152438.0385983,4.8348526.0860027,7.2518034.0522634,2.6643984.0607177,5.3335527.2367614,7.9907978.3577019,5.3988187.1161336,10.7999436.2050673,16.1985798.0666449,4.0454201.359708,8.0865794.4990292,12.1314783.147971,4.2956692.2778087,8.5928889.3340062,12.8905125.0580863,4.4428531-.0338566,8.88783.0366443,13.3303182.0624633,3.9364394.2330618,7.8718103.4038557,11.8055916.1016739,2.3416258.3561517,4.6771798.4357322,7.0190923.1553441,4.5723426.2526671,9.1469262.3415617,13.7211972.0524327,2.6982236-.0185631,5.3998871.0783169,8.0959739.0930502,2.5896338.3494689,5.1729873.499928,7.7610836.1441151,2.4791677.2366702,4.9612541.365544,7.44136.19716,3.7943371.416687,7.5875015.6069559,11.3821513.1829869,3.6491598.3322736,7.3000134.5124077,10.9493295.1574545,3.1898355.413743,6.3768045.4878001,9.5682297.0931153,4.0125851.04915,8.0284016.0572656,12.042837.0139907,6.9263466-.0302221,13.8533708.0567315,20.7787793.0405132,3.2271266.3256039,6.4514389.5097502,9.6764286.1295902,2.2695193.2101347,4.5445632.43129,6.8055089.2800233,2.8628674.6844261,5.7135128,1.0255709,8.5705689.0673484.563953.0911743,1.1330918.1350615,1.6998593h-4.0551789Z" stroke-width="0"/>
      <path d="m127.0130977,373.6186203c-.1522047-1.8038887-.2891941-3.6092106-.4610432-5.411223-.1616882-1.6955594-.3318177-3.3912752-.5484136-5.0804762-.4427015-3.4524889-.907353-6.9023198-1.3847448-10.3502223-.5403501-3.9026923-1.0886725-7.8044726-1.6654324-11.701901-.275516-1.8617407-.6399918-3.7101129-.9367284-5.5689349-.3693217-2.3134034-.7197156-4.629934-1.0608734-6.9476893-.3518007-2.3901225-.779313-4.7743816-1.0029955-7.1770909-.4939878-5.306073-.9841067-10.6168367-1.0542819-15.9504285-.0625675-4.754394-.1696475-9.5129836-.0386895-14.2637033.124145-4.5030765.5322084-8.998283.8146546-13.4970076.0979612-1.5607017.1759394-3.1228888.2935841-4.6821051.4258318-5.6441165.2386242-11.2975622.1841854-16.9447276-.026301-2.7270715-.3997001-5.4556283-.7016865-8.1739959-.3841332-3.4578311-.8862757-6.9024762-1.2784725-10.3594995-.2841788-2.5050187-.4461796-5.0236405-.7115348-7.5310306-.2130006-2.012599-.513072-4.0158426-.7499377-6.0261222-.3449226-2.92713-.6719725-5.856436-.9982798-8.785742-.1650751-1.4818197-.385996-2.9624667-.4503352-4.4493419-.1121213-2.5909368-.1658307-5.1863949-.1603464-7.7797813.0035954-1.7001459.2089883-3.3993667.2282028-5.1000859.0437439-3.8696489.0044812-7.7401969.04334-11.6099501.0453462-4.5139563-.1975508-9.0151044-.4416203-13.519549-.1248224-2.3038266-.0358627-4.6191584-.0468442-6.9292653-.0293884-6.1834172.0467791-12.3698573-.1263856-18.5492744-.1292776-4.613308-.5530381-9.2196973-.8967753-13.8253569-.4819511-6.4576931-.5392298-12.9237123-.5102322-19.3943569.0229271-5.1197673-.0316941-10.2399125-.003895-15.3596213.011177-2.0594669.2048589-4.1178002.2208036-6.1773909.0407217-5.262671.0010161-10.5259869.0471569-15.7885732.0280206-3.1961484.194229-6.3910004.2297139-9.587188.0521201-4.6929914-.2006642-9.3767708-.4049499-14.0652213-.1945156-4.4644498-.05255-8.9497049.0941574-13.4207999.1036018-3.1576228.4101215-6.3120011.7205493-9.458503.348505-3.5322391.7838203-7.0563867,1.2171555-10.5796499.4779649-3.8861234.7969903-7.7777869.7359599-11.6989522-.0298573-1.918212.0629583-3.8380811.0767407-5.7573689.0045724-.6366846-.064274-1.273896-.1048785-2.0070575h2.1978101c.0273171.6013683.0737836,1.1951444.0779912,1.78922.021416,3.022676.0967498,6.0469806.0245554,9.0676389-.052576,2.1993289-.273093,4.3968402-.4766492,6.5897853-.2363315,2.5458523-.5717055,5.0826277-.7994784,7.629125-.322725,3.6082578-.608949,7.2201753-.8697318,10.8334935-.3406759,4.720318-.2637007,9.4491379-.1632514,14.1746776.0422588,1.988608.2913956,3.9721408.3626911,5.9609866.0902494,2.517612.1204845,5.0381947.1293036,7.5576699.0081938,2.3419907.0510128,4.6900662-.0904057,7.0252228-.4281506,7.0699799-.0828893,14.1444877-.2197745,21.215067-.0591154,3.0543458-.2307951,6.1074604-.2433269,9.1615782-.0314857,7.679296-.0862111,15.3602402.0401876,23.0376989.0619032,3.7602904.5297724,7.5127499.7702073,11.2715549.2041033,3.190487.3073795,6.3875671.5231157,9.577129.3624827,5.3593516.1540415,10.7244232.2313683,16.0863938.0510519,3.5410911-.0769751,7.0942087.1717318,10.6210193.5208099,7.3858533.3983714,14.7765015.4279422,22.1664852.0122321,3.0537269-.1434116,6.1080793-.2192665,9.1622362-.0840617,3.3842522.1757571,6.7445427.6261313,10.0986051.4727933,3.5210905.8738091,7.0519533,1.290913,10.5803795.3335763,2.8218758.6758154,5.6433347.9577275,8.4706048.4336609,4.349039,1.070409,8.6707415,1.6264042,13.0036236.5734641,4.4690428,1.0497486,8.9593762.9401153,13.4884861-.0779521,3.2199603.0197877,6.4442725-.0634794,9.6639982-.0659805,2.5518997-.2960983,5.0992651-.4382333,7.6494969-.1936298,3.4745092-.4257797,6.947976-.543737,10.4252214-.1228163,3.6202077-.1397641,7.2442201-.1824659,10.8668252-.020921,1.7756402-.061343,3.5549548.0226535,5.3271551.1900214,4.0086502.4228226,8.015841.6920858,12.0200089.3077182,4.5761472,1.0316805,9.1018694,1.7819698,13.6215458.5521132,3.3258399,1.1669243,6.6413342,1.7043303,9.9694413.5209402,3.2262927,1.0010155,6.4596476,1.4590234,9.6955563.6667097,4.7104838,1.3732161,9.4172932,1.9199493,14.1421879.444408,3.8404363.6789157,7.7051339,1.0065128,11.559069h-3.8417484Z" stroke-width="0"/>
      <path d="m226.8985559,373.6186203c-.3689961-2.7060415-.7693866-5.4083564-1.0925545-8.1198704-.1424607-1.1954-.1834168-2.4098756-.1753142-3.615074.0339477-5.0384422.0590112-10.0777184.1762-15.1146231.0824855-3.5472933.313007-7.0910164.4682339-10.6367462.1055168-2.4111264.1584315-4.8250934.3013351-7.2338745.1659088-2.7965721.4331138-5.5870462.6032433-8.3834098.1638767-2.693559.2737183-5.390636.3820228-8.0871918.1069497-2.6619228.2374258-5.3246795.2562364-7.987801.0193057-2.7306677-.0794372-5.4623256-.1365205-8.193332-.0193317-.9236258-.0482251-1.8479813-.1086953-2.7696526-.2814562-4.2888416-.5578841-8.5781783-.86938-12.8649091-.4274602-5.8822218-.8735225-11.7631668-1.3343312-17.6428869-.233153-2.9747407-.4912392-5.948022-.7832471-8.9175247-.3197549-3.251805-.740389-6.4943067-1.020751-9.7491345-.14603-1.6954813-.1126815-3.4088393-.1115872-5.1140929.0026314-4.0879231-.1144531-8.1833252.0912915-12.2618669.2617598-5.1893005.1456653-10.3746661.1873769-15.5615691.0411646-5.1194742.076441-10.2395738.0416856-15.3589046-.027747-4.0903205.1960788-8.1649402.514036-12.2383482.3094898-3.964336.6063176-7.9296753.9133584-11.8941938.2633751-3.4003961.5975376-6.7968962.7777237-10.2016051.1200025-2.2676691.0231355-4.5467522.0256367-6.8207276.0064873-5.8960985.0254282-11.792197.0173516-17.6882825-.0047417-3.4787829-.0612258-6.9574747-.0767797-10.4362837-.0172995-3.8718249-.0086237-7.7437801-.0221715-11.6156311-.0147984-4.229413-.0626066-8.4588064-.0592457-12.6881737.0054191-6.7911045-.0455676-13.5840006.0969712-20.3725773.0834234-3.9739129.3494299-7.9577414.8029175-11.906129.4236303-3.6880796.4115675-7.3736835.4455153-11.0628967.0352765-3.8339149-.0462971-7.6694031-.1110922-11.503621-.0875398-5.1795706-.2545169-10.3581802-.2996676-15.537969-.0378037-4.3342176.1259427-8.6707204.0578128-13.0039689-.0502051-3.1947559-.3294208-6.3859433-.5085648-9.5786111-.0558066-.9943048-.1058294-1.9891577-.1798475-2.9821676-.155748-2.0896112-.3255909-4.1781709-.4972836-6.3644918h2.2982855c.1226079.8875859.2785382,1.7900947.3679018,2.6991514.7376795,7.5054827,1.2282413,15.0207547,1.1087859,22.571781-.065212,4.1221506-.0140428,8.2484788.0894157,12.3702922.0979873,3.9043374.3816581,7.803857.4922813,11.7080836.0906142,3.1983374.0514036,6.400473.0608089,9.6009474.0056276,1.9185829.0455676,3.8391138-.0254543,5.7552275-.0604702,1.6311991-.2746302,3.2561243-.3902036,4.8860009-.1707548,2.4074325-.3020646,4.8176664-.4718293,7.2251771-.560776,7.9531289-.3440368,15.9187272-.3837945,23.8797781-.0436918,8.7453172-.0363186,17.4908755-.0667752,26.2362774-.0102651,2.9457495-.0911092,5.8912905-.0979352,8.837014-.0071647,3.0807245.0482772,6.1615533.0538266,9.242369.0068,3.7598083.028216,7.5202159-.0278773,11.2792945-.0482251,3.2285469-.1600728,6.4573804-.3157427,9.6826047-.0821207,1.7020092-.324679,3.395992-.4820423,5.0947828-.0982739,1.0609462-.183521,2.1233647-.2559498,3.1863827-.2704356,3.9698997-.668325,7.9369329-.7674847,11.9113149-.153351,6.1454355-.1045528,12.2959787-.133837,18.444385-.019957,4.1946105-.0026575,8.3895208-.0456979,12.5838446-.0528365,5.1511234-.19079,10.3015953-.2156971,15.4527187-.0161532,3.3389478.0334267,6.6818306.1900605,10.0165568.0914739,1.9470333.4934537,3.8774147.6817686,5.8224414.3214744,3.3207062.6090011,6.6452171.8668528,9.9715261.4065652,5.2444684.766156,10.4925852,1.1657649,15.7376269.307614,4.0374459.683436,8.0699665.9603329,12.1093929.272103,3.9692222.5142705,7.9422751.6630882,11.9176212.1151566,3.0762162.1326124,6.1598855.0718035,9.2378477-.0645085,3.2648608-.2558977,6.5276889-.4227445,9.7898394-.1755486,3.432814-.4072687,6.8628137-.5768511,10.2958883-.11388,2.3046735-.1622613,4.6125784-.2400572,6.9190239-.0873054,2.5877575-.2175469,5.1749418-.2520418,7.7634029-.050622,3.7989757-.0469745,7.5988895-.0389761,11.3983602.0050023,2.3725584-.0076858,4.7485828.1160424,7.1163202.0904839,1.7318863.3626651,3.4566585.6031912,5.1777041.353885,2.5322769.7517744,5.0584038,1.1309053,7.5871627h-4.4820398Z" stroke-width="0"/>
      <path d="m103.5357465,373.6186203c-.0713215-1.095905-.1453656-2.1916796-.2132872-3.2877931-.0855467-1.3805004-.1436591-2.7631117-.2535008-4.1416316-.2256756-2.8318045-.484843-5.6609248-.7172926-8.4922342-.2557023-3.1148364-.5212789-6.2291776-.7382266-9.3468024-.2788248-4.0065915-.5472803-8.0152937-.4077376-12.0365827.0837751-2.4143578.1750276-4.8284811.263818-7.2426565.1200937-3.2651213.2242557-6.5308942.3665991-9.7950513.1283266-2.9427136.3184001-5.8827951.4422325-8.8256911.0582687-1.38467-.002918-2.7740567.0397447-4.159769.0611867-1.9877382.2018497-3.9732875.2460104-5.961182.0488373-2.1978297.0833192-4.3987604.0222237-6.5955217-.0820686-2.9511047.1063765-5.8883719.2384809-8.831763.1050348-2.3401926.0442389-4.6875254.0721292-7.0314966.0574871-4.8304356.2195791-9.6618614.1632774-14.4908376-.0629714-5.4010337-.4666316-10.7855979-1.3350868-16.1286753-.6205559-3.8178948-1.1976935-7.6434251-1.7415348-11.4730206-.4292057-3.0221689-.7739981-6.056247-1.1655304-9.0838363-.1048394-.8107101-.195701-1.6278569-.3753792-2.4234526-.6692759-2.9633787-.7013088-5.9974568-1.0391318-8.9971494-.4379467-3.8885811-.5380965-7.7906611-.5337585-11.7022658.0044552-4.0114776.1198592-8.0251051-.2347162-12.0345631-.1398683-1.5815623.0039211-3.1864739-.0279164-4.7798281-.0333094-1.6675585-.1631472-3.3336447-.1778153-5.0010078-.0227838-2.5879269-.0150068-5.1770395.0367615-7.7644974.0690939-3.4529841-.1811241-6.8890295-.4496578-10.3254658-.2547514-3.2603264-.4484593-6.5274674-.7960524-9.7780215-.4241514-3.9664078-.4357712-7.9463404-.6074119-11.9220644-.2283591-5.2897468-.5254344-10.57664-.8119581-15.8637287-.2211423-4.0808088-.4563405-8.1609922-.71216-12.2397684-.4658565-7.4277439-.0914088-14.8603544-.1613625-22.2901765-.0398098-4.229211-.2498793-8.458624-.2103952-12.68633.0489871-5.2450548-.5556761-10.4319057-1.1008395-15.6275582-.3411318-3.2510753-.7228811-6.4980723-1.1092418-9.7441832-.5795411-4.8690166-1.1442903-9.7402157-1.7816051-14.6017956-.4788507-3.6528472-.3981239-7.3170986-.2494039-10.9709524.1980654-4.8661549.9494425-9.6853947,1.5740888-14.5120435.4026181-3.1110398.4632056-6.2353024.4650359-9.3643775.0006057-1.0314359.0011398-2.0629579.0156842-3.0942429.003908-.2766308.0592718-.5525349.0978766-.8884791h1.8045192c.0211099.7921657.0646127,1.5610136.0579691,2.3294276-.0248551,2.8762381.0320263,5.7578781-.1299485,8.6268621-.1499901,2.6567174-.506702,5.3040387-.8331982,7.9479837-.5152605,4.1724714-.6284957,8.3590133-.613821,12.5573764.0151045,4.3220902.7869662,8.5571841,1.3490971,12.817976.2136649,1.6194918.3965346,3.2431532.5824786,4.8661696.1739203,1.5180684.3381878,3.0372932.4981564,4.5569056.3607631,3.4268725.7518526,6.8510478,1.0651983,10.2822852.429831,4.7066075.8023052,9.4177753.6436132,14.1535955-.0296359.8847321.0810916,1.7732688.0980655,2.6606068.0849866,4.4424817.1876505,8.8848657.2316549,13.3278099.0468312,4.7289665-.0583208,9.4611644.076441,14.1870037.1204715,4.2239079.4762454,8.4411381.7303454,12.6611957.2115546,3.5134551.4603397,7.0250599.6307819,10.5404955.2081937,4.2940274.3080829,8.5935273.5382528,12.8861866.159682,2.9781414.4567574,5.9490123.6987555,8.9226063.2565751,3.152779.4714776,6.309962.7921704,9.4562912.5747668,5.639517.3114308,11.2958162.4401613,16.9441413.0444994,1.9523104.262867,3.9009073.2990423,5.8531134.1256952,6.7842313.151384,13.5707428.3302545,20.3533454.0747997,2.8360261.4340778,5.6648077.6730798,8.496104.0896502,1.0619234.1798084,2.1249022.3145051,3.1816789.2108772,1.6545418.4600922,3.3041584.6925027,4.955964.5686442,4.0416154,1.1141789,8.0866706,1.7129671,12.1238038.4427536,2.9851384.9870117,5.9552144,1.4264565,8.9407698.4083108,2.7741609.7975765,5.553664,1.0890243,8.3419231.5550573,5.3100862.5372237,10.6422186.4740439,15.9736996-.0151501,1.2793636.035537,2.5597697.0079463,3.8386642-.0942226,4.3686617-.1242102,8.7411282-.3428774,13.1039265-.1936168,3.8633165-.1967562,7.722281-.212714,11.5865357-.0175992,4.2615313-.1383312,8.5245218-.3102063,12.7830041-.1933171,4.7893919-.5066759,9.5738064-.7394772,14.3617911-.0636748,1.3094363-.0101609,2.6241366-.037947,3.93584-.0406044,1.9173777-.1590307,3.8344947-.1493909,5.7512469.0174949,3.4776103-.0720771,6.9598331.4052886,10.4235536.1596039,1.1581089.1242102,2.3417301.2410993,3.5073702.3118607,3.1095984.6275643,6.2194053,1.0004032,9.3220719.2883474,2.39953.5331202,4.7953856.6393926,7.2144862.1245098,2.8340716.4545428,5.6590746.6938184,8.4881428.0359018.4244827.0630886.849669.0943138,1.2745426h-4.0551789Z" stroke-width="0"/>
      <path d="m206.4092312,373.6186203c-.0260535-3.1251299-.1243274-6.2518233-.0583859-9.3749987.0696932-3.3002495.3171235-6.5963816.4458018-9.8959275.0774832-1.9873995.1063505-3.9778739.1043704-5.9669412-.0036735-3.7213184-.0171172-7.4430538-.0806096-11.1636947-.0532273-3.1189017-.1517618-6.2378554-.2869796-9.3543075-.1982152-4.5682773-.4574999-9.1338183-.6699143-13.7015223-.1054386-2.2669394-.1337327-4.5376574-.2521721-6.803789-.1446752-2.768063-.3486222-5.533051-.5241969-8.2995244-.0562756-.8866995-.1050218-1.7738942-.1554093-2.6609586-.3631861-6.3956716-.2031393-12.7968417-.1720054-19.1956665.0133134-2.7319706.236097-5.4624559.2734057-8.1948435.0479124-3.5072138-.0031264-7.0157567.0030743-10.5236741.0082329-4.6497131.0277991-9.2994263.0480427-13.9491394.0103432-2.3772752-.0314727-4.7570521.0643783-7.131122.1517878-3.7612937.3902557-7.5192257.6088708-11.2776267.2288281-3.9351624.4456195-7.8715236.7281439-11.8029987.2061615-2.8687438.5504328-5.7274807.7623001-8.5958987.4168824-5.6432826.3365855-11.2998685.2440955-16.9491447-.0802449-4.9027897-.4265743-9.800602-.5788051-14.7029877-.1735686-5.5875674-.934123-11.117374-1.4864838-16.6688621-.4719335-4.7431494-1.3190378-9.4259971-2.0645073-14.1271125-.6287497-3.9650918-1.1907242-7.9425487-1.6805565-11.9270417-.1942551-1.580103-.1180615-3.1938357-.158184-4.7924408-.1007881-4.0157905-.225363-8.0312161-.2893374-12.0476059-.0854165-5.3638729-.1082524-10.728697-.1858528-16.0927067-.046232-3.1970084-.1886275-6.3929288-.2130136-9.5899047-.0599231-7.8550084-.1818275-15.7118671-.0680648-23.5649276.0606005-4.1843236.4942614-8.3682041.875672-12.5416674.488243-5.3425041,1.1371451-10.6702554,1.6327092-16.0121732.3215265-3.4654242.6326838-6.9420866.6999279-10.4185242.1126554-5.8232216.1664039-11.653357-.654204-17.4496901-.4080763-2.8824458-.7073532-5.7803057-1.0650941-8.7480537h2.1611658c.2801796,1.702456.5962088,3.3723481.8233435,5.0542516.4946522,3.6628622,1.0224966,7.325761,1.0859109,11.0299388.0846218,4.9413854.191311,9.8859158-.192744,14.8195192-.3143879,4.0384492-.6818468,8.0732174-1.0715293,12.1051973-.2870838,2.9702487-.6966712,5.9290214-.9614792,8.9009476-.2363315,2.6528769-.3497425,5.3167281-.5161724,7.9758039-.4869664,7.778361-.1738812,15.5640122-.1829739,23.346015-.0050804,4.3337942.0903536,8.6719728.2964891,13.0007506.3267893,6.8616866.0586465,13.723295.158692,20.5837763.0383508,2.6274982.1587702,5.2537065.2296358,7.8808269.0412167,1.5280492.0207386,3.058587.0941574,4.584812.1470982,3.059473.7132934,6.0658369,1.1917663,9.0848135.806591,5.0889455,1.6058089,10.1803145,2.3012035,15.2852345.5129939,3.7659844.8192531,7.559683,1.2837353,11.3328858.556842,4.5233898.5654396,9.0792498.8976221,13.6149527.5306321,7.2455882.4470264,14.5013526.2983128,21.7516185-.0785253,3.8296607-.5333677,7.6511908-.8020838,11.4775289-.1517097,2.1604474-.2819773,4.3225756-.4012243,6.4850947-.1642935,2.978832-.3088906,5.9587324-.4623198,8.9381899-.1242493,2.413133-.292555,4.8249109-.3634206,7.2396075-.1010356,3.4411531-.1743762,6.8842867-.1822183,10.3267688-.0190451,8.3851037.0264443,16.7703898.0023709,25.1554934-.007764,2.7002302-.2268741,5.4003822-.216609,8.1000652.0177685,4.6876557-.0785774,9.3785428.309073,14.0607782.2227576,2.6903015.3394514,5.389307.5071579,8.084221.3067021,4.9290446.6146547,9.858011.924379,14.7868732.3228813,5.1389276.6961762,10.2752231.957467,15.4172518.2017585,3.9707597.3052952,7.9478258.3791309,11.9234325.0956685,5.1494556.0159708,10.2958622-.3205365,15.440158-.1549403,2.3686495-.0727675,4.7526741-.1050478,7.1296105-.0389761,2.8697471-.0853513,5.7393899-.128522,8.6090588h-3.8417484Z" stroke-width="0"/>
      <path d="m184.4258932,373.6186203c-.0339868-1.8086315-.0620204-3.6174193-.1032241-5.4258945-.0806878-3.5424462-.29206-7.0793939-.1728521-10.6294234.0761154-2.2671479-.1197941-4.5429735-.1783364-6.8153072-.0264704-1.0277073.0046766-2.0569261-.0250635-3.0844771-.0985996-3.4070152-.1428124-6.8177308-.3444015-10.2189347-.1512147-2.5515088-.5234283-5.0894667-.7756134-7.6356072-.1155344-1.166474-.1860612-2.3376127-.2649904-3.5074484-.3109097-4.6078616-.6291796-9.2152802-.9216955-13.8243406-.3217871-5.0702869-.7325078-10.1386976-.8877217-15.2145612-.1135282-3.7126406.1210838-7.4360178.2047025-11.1545218.0848824-3.7744016.6843219-7.4981175,1.1178655-11.2379642.5560734-4.7964279,1.1778407-9.5860804,1.6640125-14.3895184.289611-2.8614862.4051844-5.7423085.5421999-8.6171633.2113983-4.4350613.4056794-8.8714516.5454957-13.309223.0828111-2.6283842.0600664-5.2605471.0615254-7.8909901.0023057-4.160212.1123167-8.325662-.0582166-12.4792419-.1850061-4.5064903-.6369435-9.0020877-.9765642-13.5021283-.1284178-1.7014619-.2642479-3.4023766-.4036863-5.1029785-.351462-4.2863138-.7483484-8.5694223-1.0476382-12.8593454-.239979-3.4397459-.3977461-6.8863063-.5299678-10.3322152-.166495-4.3387976-.6847648-8.6426494-1.1310095-12.9562345-.5564121-5.3785965-1.6367605-10.6735421-2.4063946-16.0166978-.4708263-3.2686785-.8237603-6.5578397-1.1136839-9.8480172-.2586464-2.9353518-.3117825-5.8882807-.5370413-8.8272156-.5224122-6.815633-.3376797-13.6417549-.3182698-20.4632317.0107992-3.7972166.221976-7.5963096.4319804-11.3896173.1334592-2.4105466.4535918-4.8101678.6483289-7.2180564.2290756-2.8323322.4199958-5.6678371.6149153-8.5028273.2751643-4.0018226.653735-8.0008959.7774371-12.0076502.1458607-4.7245885.0692633-9.4561153.0846088-14.1846453.0130268-4.0167123-.0744219-8.036454.0538657-12.0493779.1464599-4.5819683.5825698-9.1471054,1.2647423-13.6867694.2583337-1.7191172.3868167-3.4578002.57293-5.1877321.4382203-4.0731408.5674327-8.1622594.3997653-12.2493746-.144102-3.512534-.4727021-7.0174933-.7194681-10.52582-.024816-.3527804-.0480297-.7056741-.078877-1.1600556h2.198227c.1023513.6273879.2499445,1.2789237.3089687,1.9383885.2343645,2.6184702.5075357,5.2360699.6396531,7.8603734.1375366,2.7320928.2921903,5.4802521.1467334,8.2057632-.2271086,4.2554236-.6475082,8.5031791-1.0846212,12.7440143-.4666316,4.5271652-.8393924,9.0521935-.8039987,13.6097636.0483163,6.222021.085195,12.4452213.0164137,18.6666918-.0467009,4.2247874-.2305216,8.4502784-.454647,12.6700494-.1317136,2.4799495-.4833189,4.9475208-.6958115,7.4241151-.1336415,1.5576267-.1636813,3.1240354-.2916041,4.682281-.2499445,3.0444758-.5835859,6.0827169-.7929781,9.1297009-.1923141,2.7985005-.3134239,5.6039849-.381137,8.4084399-.0786947,3.2593427-.0759981,6.5208808-.0888295,9.781546-.0167654,4.2621176.0518074,8.5200657.2416725,12.7815709.2327361,5.2241811.6682859,10.4264462,1.2388451,15.6191345.2287239,2.0818259.5879238,4.1512345.941405,6.2171121,1.187689,6.9416175,1.9567369,13.9357318,2.5523986,20.9467326.3006186,3.5383028.3268024,7.0990428.5522565,10.6448507.2999151,4.7168684.646935,9.4311569,1.0242552,14.1425137.243861,3.0450231.622588,6.0793096.8612644,9.1246584.3331725,4.2510944.6468829,8.5052509.8619027,12.7635117.127063,2.5164067.0519507,5.0432111.0601967,7.565377.0125187,3.8327748.0834364,7.6668265.0101478,11.4980117-.0848694,4.4370939-.300332,8.87166-.4563796,13.3074249-.0624503,1.7753275-.0574741,3.5554238-.1899693,5.325331-.2094182,2.7977708-.4860155,5.5912157-.7766295,8.3820547-.2830976,2.7187064-.6360186,5.43009-.928287,8.1478843-.3568291,3.3183608-.7226466,6.6365653-1.0107986,9.9612326-.328561,3.7909233-.4612516,7.5943551-.3384744,11.3986469.1054386,3.2670237.2636096,6.5333177.4602876,9.7961979.241438,4.0048976.5313746,8.0071371.8291925,12.0083603.3427732,4.6050211.6920337,9.2098338,1.0873438,13.8105291.2280856,2.6546001.6628668,5.2948414.8085841,7.952308.2311729,4.2168132.2898585,8.4428775.4388065,12.6644336.058907,1.6696042.18059,3.3369152.244343,5.0063891.0974011,2.5514046.1383963,5.1052587.2595582,7.6554124.171823,3.6167939.3914933,7.2313467.6022272,10.8461861.016062.2752662.1234937.5451902.1884321.8176159h-4.2686093Z" stroke-width="0"/>
      <path d="m156.2530716,373.6186203c.0098482-.9903902.0171953-1.9808325.0300397-2.9711966.0363837-2.8050935.0858203-5.6100828.1094769-8.4152805.0202696-2.4035692-.0643392-4.8105261.0349508-7.2103167.1364814-3.2982429.4029438-6.5911176.6130785-9.8863376.0881521-1.382507.1571679-2.7664994.2660456-4.1473647.1730736-2.1947286.3735684-4.3873203.5600335-6.5810065.1894091-2.2283453.3706765-4.4573421.5651661-6.6852444.1728521-1.9801549.3935645-3.9567397.5319087-5.9391878.2720118-3.8977932.4946652-7.7990262.7510189-11.697966.1701556-2.5878878.4023836-5.1722837.5328597-7.7619957.0911613-1.8094393.0751514-3.625185.0748909-5.4381163-.0003908-2.7012726-.0210903-5.4026494-.0476128-8.1038178-.041881-4.2639808-.0860939-8.5279878-.147476-12.791708-.0552335-3.8367358-.1843157-7.6730286-.1918842-11.5096863-.010708-5.4235752.0645997-10.8473327.0946655-16.2710382.0141471-2.5526815.0625415-5.1067962-.0015502-7.657836-.0847651-3.3742584-.2934669-6.7452594-.396691-10.1192572-.1475151-4.8219662-.3854358-9.6395284-.2461407-14.4712669.0992379-3.4422476-.0568618-6.8933293-.1476453-10.3391991-.1104409-4.1922391-.2215331-8.3855988-.4264832-12.5738639-.1806421-3.6910373-.5149349-7.3742959-.7367676-11.0636654-.2048458-3.4066764-.317371-6.8189816-.5312965-10.2249935-.2226925-3.5458731-.5210835-7.0869642-.7805375-10.6305701-.147971-2.0211204-.2805574-4.0433874-.4268219-6.0646381-.1667686-2.3044259-.3722527-4.6065196-.5044223-6.9128739-.1748713-3.0517464-.2732103-6.1078447-.4428838-9.1599429-.410812-7.3897101-.1117175-14.7857657-.2286066-22.1778211-.0309125-1.9545124-.1205366-3.9082821-.1965348-5.8618564-.1464599-3.7649159-.359213-7.5282422-.439562-11.2944676-.0932065-4.3686878-.1902559-8.7429849-.0702403-13.1089234.1210186-4.4020244.4753726-8.7989737.7865298-13.193962.2031654-2.8695777.5393991-5.7295199.7644104-8.5978271.1917279-2.4441568.2947956-4.8951347.464365-7.3412004.1865953-2.6918716.3959354-5.3822644.6118019-8.0719829.1249397-1.556884.2471698-3.1153673.4323713-4.6657462.3749623-3.1386482.7975114-6.2715796,1.1900729-9.4081659.3968733-3.1708642.777385-6.3437742,1.1723174-9.5148811.2942615-2.3628122.6168953-4.7221975.8962542-7.0867297.3083956-2.61011.5469286-5.2288018.8793325-7.835665.4187974-3.2844322.665433-6.5750882.6001559-9.8871063-.0041816-.2121413.0217286-.4258452.0480166-.6370305.0079333-.0636891.0644825-.121327.1295902-.2361044h1.703705c.049176.1879555.1476193.3845142.1443235.5793603-.0322412,1.9160584.0070735,3.8388617-.1444277,5.7462008-.303745,3.8243201-.6918253,7.6424812-1.0867316,11.458876-.478981,4.6289958-.9732033,9.2567881-1.5134492,13.8789466-.4083108,3.4934512-.9250173,6.974156-1.3435151,10.4665224-.2406955,2.0087291-.3957661,4.0282306-.5643454,6.044973-.1981631,2.370604-.3843416,4.7424425-.5467332,7.1157241-.1115612,1.6306062-.1354653,3.2676621-.2658371,4.8964442-.2863673,3.5779197-.6347941,7.150875-.9196112,10.728912-.1633947,2.0526133-.2371131,4.1122105-.3778152,6.1668369-.172331,2.5164588-.4387283,5.0282791-.5425125,7.5471288-.1111834,2.6982367-.1554614,5.4040045-.0948739,8.103479.0988601,4.4043958.3140752,8.8061009.4661887,13.2094218.1643065,4.7558924.3335372,9.5096219.2934148,14.2724462-.0475086,5.6407418.0065004,11.2844543.1413404,16.9238931.0951084,3.9772615.3830519,7.9504447.6132088,11.9237973.1787793,3.0864837.3811631,6.171925.6098088,9.2550991.2470525,3.3315209.5707155,6.6575693.7982018,9.9902889.2202565,3.2266836.3506935,6.4594261.5387217,9.688442.2458801,4.2226505.547606,8.4424085.7546794,12.6668701.1966129,4.0113213.3343058,8.0262778.4407475,12.0411431.1817754,6.8567548.2667099,13.7164153.4920338,20.5715675.1645801,5.0067539.574389,10.0058203.7177225,15.0128088.1331205,4.6501561.0557155,9.3062799.0753859,13.9597716.0228229,5.4031967.0190191,10.8068363.0893896,16.2094336.0342343,2.6274461.2525759,5.2520517.3127595,7.8796802.076428,3.3361855-.023852,6.6788599.1337197,10.0101462.2353806,4.9764468.2492931,9.9514863.0693805,14.9234509-.1399074,3.8668345-.4973227,7.7255124-.7340971,11.5892719-.1824007,2.9767733-.3026638,5.9574816-.4976093,8.9333428-.1391258,2.1237687-.3648275,4.2417-.536429,6.3634881-.188888,2.3357364-.3632252,4.6726455-.5381225,7.0094764-.1988665,2.6568151-.4092748,5.3129527-.5803422,7.9715659-.1162769,1.8071982-.1385136,3.6205986-.2642088,5.4269368-.3085779,4.4349831-.1744283,8.871634-.1074057,13.3085194.0407477,2.6973115.0475998,5.3959782.1461212,8.0912571.0437569,1.1976411.2762455,2.3884286.4230571,3.5823172h-4.4820398Z" stroke-width="0"/>
    </g>
  </g>
</svg>