<?xml version="1.0" encoding="UTF-8"?>
<svg id="Layer_2" data-name="Layer 2" xmlns="http://www.w3.org/2000/svg" viewBox="0 0 140.8981633 128.2042393">
  <g id="Layer_1-2" data-name="Layer 1">
    <g>
      <path d="m134.3442389,81.2075977c-2.4238281-.3234863-4.7509766.2211914-7.0214844,1.0112305-.4042969.1408691-.7792969.4648438-1.0791016.7866211-.6279297.6726074-.7314453,1.6298828-.3388672,2.3859863.3876953.746582,1.1816406,1.1657715,2.1123047,1.0620117.4287109-.0480957.8447266-.2043457,1.2734375-.2763672,1.3310547-.2246094,2.6601562-.545166,4.0009766-.6130371,1.2070312-.0610352,2.1865234.5668945,2.8457031,1.6276855.6279297,1.0097656.1845703,1.8959961-.3115234,2.7641602-1.0556641,1.8513184-2.2197266,3.6218262-3.6005859,5.2617188-.9716797,1.1535645-1.7558594,2.4645996-2.625,3.704834-.0605469.0876465-.1279297.1711426-.2070312.2766113-.2011719-.1867676-.3671875-.3601074-.5527344-.510498-.7207031-.5859375-1.7246094-.6762695-2.4931641-.2338867-.7216797.4147949-1.1787109,1.2409668-.9521484,2.1013184.2148438.8120117-.0664062,1.3762207-.5615234,1.923584-.3242188.3583984-.6484375.71875-.9980469,1.0512695-1.8193359,1.7272949-4.0253906,2.6411133-6.4677734,3.0449219-2.7392578.4528809-5.4658203.9553223-8.0908203,1.8955078-.2558594.092041-.5166016.1923828-.7470703.333252-.3320312.2021484-.4785156.5214844-.4082031.9116211.0703125.3920898.3251953.6352539.7041016.7060547.2822266.0527344.5771484.0625.8642578.0493164,1.4824219-.0678711,2.9628906-.1713867,4.4453125-.2211914,2.9052734-.0981445,5.8085938-.199707,8.6064453-1.1188965.0556641-.0183105.1191406-.0141602.1787109-.020752.046875.0541992.09375.1083984.140625.1623535-.1289062.0625-.2763672.1018066-.3828125.1906738-4.0537109,3.3852539-8.2392578,6.5849609-12.8251953,9.2341309-5.2324219,3.0227051-10.8134766,4.8466797-16.8916016,5.0053711-.125.0031738-.2509766-.0153809-.5097656-.0324707.8466797-.625,1.578125-1.1518555,2.2949219-1.6967773,1.5693359-1.1921387,3.125-2.4072266,4.2792969-4.0322266.3574219-.5029297.6982422-1.0690918.8496094-1.6569824.3320312-1.2902832-.7148438-2.4191895-2.0351562-2.220459-.4912109.0739746-.9882812.302002-1.4169922.5673828-1.0976562.6804199-1.8466797,1.7028809-2.4658203,2.8078613-1.3359375,2.3813477-3.2080078,4.2658691-5.3398438,5.9274902-.4238281.3308105-.8544922.4343262-1.3867188.3955078-3.4414062-.2514648-6.8857422-.4765625-10.3291016-.7126465-.1142578-.0080566-.2275391-.0412598-.4853516-.0895996.1943359-.1398926.2910156-.1987305.375-.2714844,1.3691406-1.1845703,2.3652344-2.6362305,3.0292969-4.3134766.4921875-1.2441406.8144531-2.5358887.578125-3.8769531-.1054688-.6030273-.3300781-1.2167969-.640625-1.7438965-.3466797-.5900879-.9609375-.8562012-1.6679688-.7397461-.6992188.1152344-1.1064453.5881348-1.2851562,1.2353516-.1503906.541748-.2832031,1.1000977-.3242188,1.6584473-.2109375,2.8322754-1.1757812,5.3029785-3.3359375,7.234375-.1591797.1425781-.2841797.3615723-.3447266.5683594-.0751953.2614746-.1962891.3674316-.4667969.380127-2.1904297.1030273-4.3808594.2180176-6.5722656.324707-.1630859.0080566-.328125-.0178223-.5244141-.0297852.6689453-1.2192383.6308594-1.7402344-.2216797-2.4880371-2.5966797-2.2766113-3.6884766-5.2504883-4.0205078-8.583252-.0029297-.0244141.0302734-.0524902.0683594-.112793.0722656,0,.1660156-.0073242.2597656.0009766,4.6025391.4130859,9.1494141-.0080566,13.6611328-.9279785,1.4140625-.2880859,2.8037109-.6987305,3.9912109-1.5393066.5751953-.4067383,1.0791016-.8127441,1.8359375-.7607422.6542969.0446777,1.3330078-.0895996,1.9677734.0305176,2.0185547.3813477,3.9423828,1.0756836,5.8320312,1.8818359,1.4814453.6315918,2.9824219,1.2304688,4.5097656,1.7373047,3.96875,1.3168945,7.8007812.744873,11.5097656-1.0026855.4580078-.2160645.8974609-.5241699,1.2636719-.875.6943359-.6662598.8242188-1.6950684.3945312-2.4975586-.4365234-.8139648-1.3388672-1.2600098-2.2910156-1.0739746-.3886719.0761719-.7607422.253418-1.1318359.40625-.5058594.2084961-.9853516.5073242-1.5087891.6459961-2.9472656.7819824-5.9375,1.3017578-8.9902344.8740234-1.703125-.2390137-3.3691406-.7331543-5.0673828-1.0229492-1.6171875-.2758789-3.25-.4812012-4.8847656-.6237793-.6689453-.0583496-1.3583984.1303711-2.0634766.2094727-.0175781-.1369629-.0341797-.295166-.0595703-.4516602-.1738281-1.0415039-1.0185547-1.7800293-2.0732422-1.7055664-.4648438.032959-.921875.2453613-1.3720703.4077148-.9355469.3383789-1.8369141.817627-2.7988281,1.0275879-4.3457031.949707-8.7421875,1.2180176-13.1816406.8366699-2.0244141-.1738281-4.0048828-.4765625-5.8408203-1.3996582-.1689453-.0852051-.3720703-.2346191-.4257812-.3979492-.2724609-.8286133-.8652344-1.3129883-1.6757812-1.4287109-.6396484-.0913086-1.3183594-.0561523-1.9609375.0456543-2.0058594.3178711-3.9960938.7443848-6.0058594,1.036377-3.4794922.5061035-6.9677734.578125-10.4638672.0742188-3.1005859-.4472656-5.2167969-2.2883301-6.9267578-4.7407227-.1542969-.2214355-.25-.4873047-.3505859-.7412109-.1230469-.309082-.2714844-.607666.0488281-.9279785.0888672-.0893555.0322266-.4020996-.0507812-.5646973-.0888672-.1757812-.2646484-.3474121-.4433594-.4301758-.5234375-.2404785-.6191406-.6672363-.640625-1.1774902-.0224609-.5241699-.2675781-.6357422-.7333984-.401123-.1777344.0898438-.390625.2062988-.5703125.1821289-1.0820312-.1459961-2.15625-.3527832-3.2392578-.4946289-2.1835938-.2861328-4.2197266-.9404297-5.9570312-2.3398438-1.4599609-1.1762695-1.7705078-2.3596191-1.1494141-4.1162109.7910156-2.2368164,2.2265625-4.0185547,3.9550781-5.5883789.1113281-.1008301.3417969-.1271973.5039062-.1027832.4150391.0627441.5996094-.0407715.5947266-.4577637-.0058594-.5957031-.0078125-1.2041016-.5097656-1.7182617.1601562-.0441895.3623047-.0639648.4150391.0153809.9619141,1.4528809,2.4238281,2.0058594,4.0429688,2.2976074,2.6298828.4741211,5.1884766.0883789,7.6699219-.7666016,3.0546875-1.0522461,5.8398438-2.5422363,7.7314453-5.3562012.4501953.1464844.9599609.3527832,1.4892578.4777832,2.4013672.5678711,4.8398438.824707,7.2998047.6479492,2.8945312-.2077637,5.6025391-1.0402832,8.0244141-2.6923828.1025391-.0703125.2373047-.15625.3486328-.1445312,1.0419922.1083984,1.9492188-.3789062,2.9082031-.6367188.1757812-.0473633.3564453-.0754395.5673828-.1191406-.03125.4550781-.0898438.8381348-.0791016,1.2192383.0351562,1.2050781.90625,2.1787109,2.0234375,2.2949219,1.1044922.1149902,1.9101562-.5012207,2.21875-1.767334.1865234-.7668457.6923828-1.2285156,1.3388672-1.5598145,1.1474609-.5881348,2.3769531-.8525391,3.6572266-.652832,2.3134766.3603516,4.2832031,1.4560547,6.0634766,2.9362793,1.140625.9489746,2.6787109.8366699,3.7226562-.2241211.2158203-.2185059.5068359-.4189453.7978516-.4956055,1.2578125-.3312988,2.5429688-.4868164,3.8349609-.2636719,1.2695312.2194824,2.5283203.5070801,3.7910156.7683105,1.4042969.2907715,2.7041016.8325195,3.9326172,1.5742188,1.6484375.9946289,3.0996094,2.3369141,5.0097656,2.8730469.4492188.1262207.5859375.3808594.6132812.8603516.0820312,1.4804688,1.5654297,2.3198242,2.8837891,1.6413574.4189453-.2155762.7490234-.5993652,1.1367188-.8837891.5410156-.3974609,1.0566406-.8630371,1.6572266-1.1403809,1.0908203-.5043945,2.2744141-.7800293,3.4804688-.6970215,1.6542969.1137695,3.3466797.1467285,4.9433594.5395508,3.2695312.8039551,6.4902344,1.8083496,9.7207031,2.765625.9511719.2819824,1.890625.5263672,2.8935547.4599609.4287109-.0285645.6914062-.2268066.8183594-.6240234.2333984-.7290039.0136719-1.369873-.5166016-1.8493652-.5712891-.5151367-1.1923828-.9931641-1.8515625-1.3874512-3.8730469-2.3178711-8.1171875-3.5317383-12.5625-4.0852051-1.984375-.2473145-3.9833984-.4150391-5.9746094-.0039062-2.0712891.4272461-4.0029297,1.1416016-5.5302734,2.6862793-.1777344.1796875-.3447266.369873-.5380859.578125-.0839844-.1000977-.1464844-.1694336-.2021484-.2443848-.5839844-.7897949-1.1103516-1.6303711-1.7597656-2.3632812-3.9248047-4.4318848-8.9082031-6.2763672-14.7519531-5.8579102-1.5234375.1091309-3.0478516.3852539-4.3417969,1.3398438-.0751953.0551758-.3232422-.0273438-.421875-.1191406-.3544922-.3276367-.6552734-.7155762-1.0205078-1.0292969-1.5800781-1.3566895-3.4873047-1.8989258-5.5-2.1660156-.2675781-.0356445-.5361328-.0615234-.8779297-.1000977.1103516-.2138672.1865234-.3666992.2666016-.5180664.8310547-1.5712891,1.4179688-3.2163086,1.4873047-5.0119629.015625-.3928223-.1708984-.8996582.0126953-1.151123.1943359-.2653809.7275391-.2702637,1.0996094-.4204102,3.9541016-1.5942383,7.2363281-4.125,10.0791016-7.2624512,1.3457031-1.4848633,2.4521484-3.0825195,2.5205078-5.1936035.0136719-.390625.3574219-.5341797.7373047-.512207.5380859.03125,1.125.0981445,1.6152344-.0703125,1.1679688-.4013672,2.3496094-.8305664,3.4228516-1.432373,2.0273438-1.137207,3.5761719-2.8452148,5.0009766-4.6503906,1.4658203-1.8574219,2.1337891-3.949707,1.7236328-6.3361816-.078125-.4545898-.0712891-.9052734-.3447266-1.3198242-.5908203-.8977051-1.7539062-.9995117-2.3984375-.1362305-.2519531.3374023-.4570312.767334-.5166016,1.1791992-.1875,1.2927246-.7490234,2.4013672-1.5634766,3.3823242-.8017578.9658203-1.6396484,1.9042969-2.5029297,2.8154297-1.0703125,1.1289062-2.4091797,1.8325195-3.8955078,2.2446289-1.2148438.3364258-2.0488281.9941406-2.1708984,2.3327637-.0019531.0246582-.0390625.0461426-.0869141.0981445-.7128906-.2387695-1.4042969-.1706543-1.9384766.4143066-.2998047.3291016-.5253906.7294922-.7636719,1.1113281-.4003906.642334-.7255859,1.3400879-1.1835938,1.9365234-2.5390625,3.3015137-5.6953125,5.8154297-9.5732422,7.3901367-.3125.126709-.6230469.2746582-.9013672.4621582-.625.4208984-1.0048828,1.0129395-.9960938,1.7805176.0039062.3725586-.1279297.5268555-.4677734.654541-1.1044922.4152832-1.5361328,1.2182617-1.3496094,2.394043.0224609.1418457.0361328.2922363.0146484.432373-.2041016,1.3137207-.6640625,2.5234375-1.4960938,3.5732422-.109375.1369629-.2626953.2380371-.4648438.4169922,0-.3916016-.0029297-.6630859.0009766-.9345703.0664062-4.8413086-.9707031-9.4370117-3.3232422-13.6660156-1.3457031-2.4196777-2.9023438-4.7280273-4.4589844-7.0222168-.8017578-1.1813965-1.7919922-2.2382812-2.7353516-3.317627-.3125-.3571777-.7207031-.6508789-1.1289062-.8994141-.8320312-.5053711-1.7421875-.4436035-2.3974609.1005859-.6601562.5480957-.8955078,1.4797363-.5195312,2.3840332.1953125.4685059.4814453.9155273.7988281,1.3144531,2.0488281,2.5734863,4.1220703,5.1276855,6.1777344,7.6955566,1.3476562,1.682373,2.5039062,3.4790039,3.2890625,5.5026855,1.2255859,3.1623535,1.5507812,6.4765625,1.6777344,9.8234863.0048828.1333008-.2060547.3520508-.3574219.4018555-1.2724609.4162598-2.5527344.8083496-3.8359375,1.1899414-.1738281.0517578-.3925781.0537109-.5644531-.0019531-1.0419922-.3381348-1.8642578.0026855-2.6533203.7021484-.5322266.472168-1.1376953.9155273-1.7871094,1.192627-2.3242188.9916992-4.7734375,1.4833984-7.3007812,1.4790039-1.546875-.0026855-3.0927734-.1584473-4.6396484-.1662598-.5048828-.0026855-1.0087891.2531738-1.5175781.371582-.1523438.0354004-.3457031.0585938-.4785156-.0031738-1.0996094-.5136719-1.9833984-.3051758-2.7792969.5715332-.5146484.5668945-1.09375,1.0895996-1.703125,1.5537109-1.2333984.9384766-2.6796875,1.4680176-4.1113281,2.0195312-1.9902344.7663574-4.0458984.9484863-6.1396484.6591797-.5615234-.0776367-1.0996094-.3413086-1.6416016-.5380859-.296875-.1081543-.3261719-.2851562-.203125-.6030273.5478516-1.4108887,1.1865234-2.8056641,1.546875-4.2668457,1.1386719-4.6181641,2.1679688-9.2631836,3.2382812-13.8981934.3759766-1.6276855.5644531-3.2744141.4570312-4.9458008-.0615234-.9589844-.2265625-1.8979492-.7871094-2.7087402-.8867188-1.2827148-2.5664062-1.1472168-3.2460938.2556152-.0976562.2016602-.1972656.418457-.2207031.6364746-.0712891.6379395-.1308594,1.2792969-.1484375,1.9206543-.0419922,1.5463867.0810547,3.111084-.1132812,4.6367188-.390625,3.0690918-.9345703,6.1193848-1.4404297,9.1733398-.4648438,2.8007812-.9550781,5.5991211-1.8603516,8.300293-.2285156.684082-.5507812,1.3400879-.8720703,1.9882812-.0644531.1298828-.3115234.2033691-.4863281.237793-.4316406.0849609-.8828125.0888672-1.3046875.2028809-.8349609.2255859-1.6396484.6057129-2.4853516.7409668-2.5332031.4052734-4.8525391-1.6696777-4.7421875-4.2270508.0283203-.6625977.2011719-1.3442383.4375-1.9677734.6503906-1.7145996,1.7509766-3.1459961,2.9882812-4.480957.2714844-.293457.5556641-.5976562.7412109-.9460449.7832031-1.4675293-.2919922-3.1906738-1.9492188-3.0720215-.5917969.0422363-.7900391-.2097168-.9228516-.6625977-.0634766-.2150879-.1103516-.439209-.1308594-.6623535-.2197266-2.375.1005859-4.6999512.703125-6.9897461.2177734-.8273926.6914062-1.5227051,1.3613281-2.0715332,1.2041016-.9868164,2.5771484-1.5830078,4.1240234-1.7651367.7041016-.0830078,1.4150391-.1132812,2.1181641-.2109375,1.7744141-.2475586,2.5390625-1.9672852,1.59375-3.4812012-.1835938-.2937012-.2753906-.6962891-.2714844-1.0471191.0205078-2.0112305.5039062-3.8918457,1.9355469-5.3764648,1.5654297-1.6235352,3.1552734-3.2299805,4.8300781-4.7382812,1.5185547-1.3676758,3.3095703-2.3530273,5.2089844-3.1171875,1.2363281-.4975586,2.5-.8735352,3.8623047-.6020508.171875.0339355.3544922.0222168.53125.0136719,1.5039062-.0722656,2.3955078-1.2460938,2.0947266-2.7211914-.0410156-.2006836-.0166016-.4614258.0810547-.6362305.921875-1.6464844,1.8447266-3.2929688,2.8164062-4.9101562.3017578-.5024414.7060547-.967041,1.1435547-1.361084,2.4833984-2.2404785,5.4892578-3.5231934,8.5976562-4.6083984,1.8164062-.6342773,3.6103516-.5698242,5.3847656.1750488.3710938.1555176.7519531.3005371,1.140625.3974609.9570312.237793,1.7998047.0368652,2.4326172-.7602539.5664062-.7128906.5664062-1.6303711.0537109-2.541748-.2978516-.5302734-.5693359-1.0756836-.8789062-1.6625977,2.6113281-2.145752,5.1289062-4.3791504,8.3935547-5.470459,1.1015625-.3684082,2.2421875-.427002,3.3955078-.244873.9951172.1572266,1.8681641.4807129,2.3769531,1.4477539.1230469.2331543.3427734.4313965.5546875.598877,1.1630859.9194336,2.8115234.40625,3.2304688-1.0144043.09375-.3171387.0507812-.6726074.1181641-1.0002441.0429688-.2126465.1171875-.4819336.2724609-.598877,2.7919922-2.0949707,5.8828125-3.5258789,9.3378906-4.1247559,1.2519531-.2167969,2.5009766-.2087402,3.7412109.0805664.7246094.1689453,1.2578125.5505371,1.4677734,1.3125.0673828.2436523.1962891.4802246.3388672.6914062.6083984.8964844,1.9101562,1.2792969,2.6582031.5507812.7285156-.7089844,1.4521484-.6608887,2.3017578-.6574707.8662109.0036621,1.7324219-.1821289,2.6015625-.208252,1.0292969-.03125,2.0693359-.0603027,3.0888672.0546875,1.3359375.1508789,1.8066406.7163086,1.9726562,2.0400391.1611328,1.2768555-.0693359,2.4833984-.7080078,3.5917969-.4345703.7524414-.9785156,1.4416504-1.40625,2.1970215-.4013672.7072754-.8613281,1.4316406-1.0351562,2.2067871-.3291016,1.4702148.9404297,2.5317383,2.3652344,2.0444336.4755859-.1625977.9394531-.442627,1.3251953-.7683105.4501953-.3808594.8496094-.8410645,1.2021484-1.317627,1.5527344-2.0981445,2.6904297-4.3569336,2.7080078-7.0559082.0214844-3.4538574-2.25-6.2578125-5.6728516-6.7070312-2.5849609-.3395996-5.1181641.001709-7.4482422,1.3081055-.0771484.043457-.1669922.0661621-.2617188.1025391-.9648438-2.2246094-2.71875-3.3581543-4.9970703-3.8022461-.2177734-.0424805-.4228516-.1506348-.6347656-.2255859-.7412109-.2624512-1.4648438-.6096191-2.2265625-.7678223-1.6103516-.3344727-3.2441406-.5522461-4.8613281-.8498535-3.8349609-.7053223-7.6640625-1.1669922-11.5898438-.7341309-3.7490234.4130859-7.4570312.9331055-11.0410156,2.1442871-3.5605469,1.2028809-7.1210938,2.4030762-10.6787109,3.6149902-3.8935547,1.3266602-7.4765625,3.2521973-10.8134766,5.6462402-1.9140625,1.3725586-3.8222656,2.7529297-5.7431641,4.1149902-2.46875,1.7504883-4.5683594,3.8747559-6.4306641,6.2507324-1.1640625,1.4851074-2.3486328,2.9538574-3.5478516,4.4116211-.9765625,1.1879883-1.9990234,2.3400879-2.5283203,3.8312988-.1289062-.1352539-.2363281-.3447266-.3417969-.34375-.5986328.0043945-1.28125-.1381836-1.6855469.4594727-.390625.5766602-.953125.8930664-1.5166016,1.2387695-.5351562.328125-1.0556641.6848145-1.5664062,1.0507812-3.6337891,2.6020508-6.5683594,5.8730469-9.2207031,9.4470215-2.0019531,2.697998-3.7880859,5.4902344-4.9638672,8.6540527-.9638672,2.5930176-1.4785156,5.2365723-1.1679688,8.0131836.1660156,1.4912109.6542969,2.887207,1.1367188,4.2922363,1.1318359,3.3000488,2.3818359,6.546875,4.1103516,9.5917969.0976562.1716309.0712891.4719238-.0029297.6730957-.4326172,1.1713867-.7490234,2.3635254-.84375,3.6152344-.3613281,4.7963867,3.5507812,8.8591309,8.3671875,8.6796875.1396484-.0053711.2792969-.0007324.5253906-.0007324-.4453125.6569824-.84375,1.2028809-1.1992188,1.7749023-.7636719,1.2275391-1.4101562,2.5134277-1.5400391,3.9799805-.2294922,2.5847168.9023438,4.595459,2.7636719,6.2556152,2.8193359,2.5141602,6.1962891,3.3930664,9.8896484,3.2785645.328125-.0100098.4257812.0700684.5058594.3918457.1845703.7456055.3613281,1.512207.6884766,2.2009277,1.3095703,2.7590332,3.4169922,4.6901855,6.2539062,5.8266602.1523438.0610352.3486328.1618652.4023438.2941895.21875.5344238.3603516,1.1005859.5830078,1.6328125.6523438,1.5605469,1.2714844,3.1396484,2.015625,4.6564941.7871094,1.6035156,1.8730469,3.010498,3.2519531,4.1699219,2.4941406,2.0969238,5.3564453,3.5866699,8.2919922,4.9318848,1.1083984.5073242,2.2871094.9008789,3.4707031,1.1928711,6.4960938,1.6013184,13.1054688,1.951416,19.7539062,1.5529785,4.421875-.2651367,8.8251953-.260498,13.2421875.0979004,4.4667969.3623047,8.9326172.625,13.4296875.1789551,5.3945312-.5354004,10.4707031-2.017334,15.2421875-4.5559082,6.2216797-3.3095703,11.7265625-7.6262207,17.0009766-12.2495117.796875-.6989746,1.4667969-1.5974121,2.0146484-2.512207.734375-1.2268066.2822266-2.4567871-.9746094-3.1352539-.0673828-.0366211-.1289062-.0849609-.2519531-.1665039.9316406-1.2299805,1.7871094-2.4807129,1.7822266-4.0683594,1.9482422-.3120117,3.3388672-.9697266,4.7275391-2.3457031,2.3408203-2.3193359,4.0947266-5.0593262,5.5244141-8.0065918.4892578-1.0075684.7441406-2.1003418.6103516-3.2429199-.3837891-3.2824707-3.1083984-6.0236816-6.5185547-6.4787598ZM46.4721686,12.034502c1.4365234-.6159668,2.8466797-1.3129883,4.3212891-1.8200684,4.3613281-1.4990234,8.734375-2.9655762,13.1298828-4.3591309,2.7519531-.8725586,5.6318359-1.0644531,8.4921875-1.3325195,1.984375-.1862793,3.9599609-.2207031,5.9326172.1020508.1591797.026123.3183594.0529785.4765625.0839844.0458984.0092773.0878906.034668.2314453.0927734-.1904297.1162109-.3251953.1992188-.4599609.2817383-1.265625.7702637-2.6132812,1.4360352-3.7666016,2.348877-.7207031.5712891-1.2080078.6777344-2.0810547.3764648-2.4072266-.8308105-4.8554688-.703125-7.2705078.0935059-2.5068359.8269043-4.6162109,2.296875-6.4775391,4.1193848-1.1591797,1.1359863-2.2304688,2.364502-3.3056641,3.583252-.2919922.3310547-.4599609.7734375-.6699219,1.1728516-.2099609.3996582-.7119141.5053711-.9609375.1296387-1.8701172-2.8215332-4.7773438-3.7792969-7.8642578-4.4277344-.0605469-.0126953-.1171875-.0407715-.3164062-.1130371.2626953-.1499023.4179688-.2590332.5888672-.3320312Zm-19.6982422,13.4633789c3.3974609-3.4953613,7.2177734-6.4353027,11.5205078-8.736084.3310547-.177002.71875-.3022461,1.0908203-.3393555,2.5498047-.2543945,5.0585938-.017334,7.5097656.7414551.4453125.1376953.875.328125,1.3095703.5004883.0859375.0339355.1601562.0961914.2773438.168457-.0800781.0717773-.125.1411133-.1875.1640625-2.2597656.8330078-4.0742188,2.3266602-5.8261719,3.9145508-.2871094.2600098-.5693359.5244141-.8574219.7834473-1.5058594,1.3566895-2.6748047,2.9421387-3.5087891,4.8059082-.5976562,1.3359375-1.3701172,2.5935059-2.0576172,3.8894043-.1289062.2429199-.2822266.3586426-.5771484.3005371-1.0986328-.2165527-2.1826172-.0837402-3.2607422.1655273-.6640625.1533203-.6533203.1455078-.8994141-.4648438-.2285156-.5678711-.4599609-1.137207-.7324219-1.684082-.7958984-1.5927734-1.9863281-2.8071289-3.5712891-3.6279297-.1542969-.0803223-.3056641-.1665039-.4941406-.2695312.1044922-.1242676.1787109-.223877.2646484-.3120117Zm-7.1777344,9.8427734c.0488281-.1928711.2470703-.3637695.4091797-.5083008.3105469-.2783203.6855469-.4938965.9599609-.8015137.6113281-.6848145.7636719-1.4865723.3691406-2.3325195-.1318359-.2805176-.1113281-.4594727.0859375-.6799316.7714844-.8637695,1.5166016-1.7524414,2.3017578-2.6044922.5009766-.5444336.5429688-.5146484,1.1308594-.0249023,1.2568359,1.0471191,2.1787109,2.3654785,3.0419922,3.7319336.2050781.3249512.4003906.6557617.6113281,1.0029297-3.5878906,2.4614258-6.6181641,5.3859863-9.1357422,8.8442383-.0449219-.0090332-.0898438-.0180664-.1337891-.0268555-.0839844-.4482422-.1992188-.8930664-.2451172-1.3449707-.1796875-1.7932129.1689453-3.5324707.6044922-5.2556152Zm-11.3574219,33.2321777c-.3886719.4428711-.7480469.9116211-1.1298828,1.3815918-.0615234-.0703125-.1074219-.1005859-.1201172-.1413574-1.09375-3.5471191-2.0097656-7.130127-2.4736328-10.8261719-.3730469-2.963623.3486328-5.677002,1.5283203-8.3503418,1.1728516-2.6606445,2.9199219-4.934082,4.6904297-7.1894531,1.1328125-1.4423828,2.3867188-2.7895508,3.5908203-4.175293.109375-.126709.2529297-.2246094.4716797-.4152832.03125.5739746.0341797,1.0083008.0820312,1.4377441.2041016,1.8276367.890625,3.4179688,2.3017578,4.6552734.1005859.088623.1777344.3259277.1318359.4411621-.546875,1.3811035-.7695312,2.828125-.8955078,4.2929688-.0341797.4006348-.1845703.532959-.5830078.581543-.7333984.0895996-1.46875.2194824-2.1835938.4074707-3.6376953.9570312-5.9091797,3.4916992-6.1337891,7.2460938-.1582031,2.6447754.0117188,5.3137207.1308594,7.9675293.03125.6916504.3964844,1.3779297.6621094,2.045166.1044922.2626953.1210938.4240723-.0703125.6413574Zm52.3935547,54.751709c-3.5292969-.0786133-7.0058594-.5761719-10.4375-1.378418-.9697266-.2265625-1.9414062-.5146484-2.8486328-.9179688-2.34375-1.0422363-4.6171875-2.2290039-6.7705078-3.6330566-1.1777344-.7675781-2.1767578-1.7224121-2.9619141-2.8845215-.9267578-1.3725586-1.8193359-2.7685547-2.7783203-4.2333984.2197266-.0141602.3388672-.0390625.453125-.0266113,4.9287109.5275879,9.7910156.0085449,14.6191406-.9560547,1.0556641-.2106934,2.0849609-.5476074,3.1318359-.8056641.1142578-.0285645.3193359.0373535.3876953.1298828.8349609,1.1357422,1.9052734,1.9616699,3.2099609,2.4836426.2792969.1118164.2792969.2631836.2236328.5268555-.0917969.4377441-.1806641.8947754-.1523438,1.3361816.2705078,4.2592773,1.9921875,7.7248535,5.6142578,10.1313477.0537109.0356445.1074219.0717773.15625.1140137.0214844.019043.0302734.0537109.0644531.1157227-.6640625,0-1.2880859.0117188-1.9111328-.0019531Z" stroke-width="0"/>
      <path d="m51.9096686,87.5684375c-.0976562-.5803223-.1953125-1.1962891-.4648438-1.7053223-.7324219-1.3786621-2.5449219-1.4230957-3.3544922-.0871582-.2734375.4519043-.4521484,1.013916-.5009766,1.541748-.2753906,2.9973145.1933594,5.7905273,1.8925781,8.4038086,5.1289062,7.8881836,14.6777344,9.3613281,21.6679688,5.9384766,4.7402344-2.3208008,6.2216797-7.0654297,5.6103516-11.0830078-.7900391-5.1953125-4.7792969-9.197998-10.0527344-10.1291504-2.296875-.4057617-4.6347656-.5861816-6.9541016-.8691406-1.4404297.0563965-2.8466797.1594238-4.2138672.623291-1.5253906.517334-2.4628906,1.5522461-2.7939453,3.1181641-.1425781.677002-.2519531,1.3659668-.3017578,2.0546875-.0195312.2851562.0732422.7055664.2695312.8435059.1962891.1374512.6279297.0866699.8837891-.0349121.7998047-.3798828,1.5878906-.7956543,2.3378906-1.265625.9521484-.5966797,1.9755859-.9099121,3.0800781-.8181152,2.3115234.1921387,4.6337891.3452148,6.9238281.6940918,3.2675781.4978027,5.2451172,2.5754395,6.2705078,5.625.7705078,2.2902832.0185547,5.9851074-3.3007812,7.4387207-5.1972656,2.2758789-11.8320312,1.154541-15.4785156-4.1962891-.9863281-1.4460449-1.625-2.9580078-1.4931641-4.7409668.0332031-.4487305.0478516-.9118652-.0273438-1.3518066Z" stroke-width="0"/>
      <path d="m106.9458014,83.3694629c-.7744141-.3134766-1.4941406-.1083984-2.0371094.4724121-.4433594.4741211-.8945312,1.0126953-1.1201172,1.6069336-.8583984,2.2653809-2.2460938,4.2004395-3.6630859,6.1201172-2.4609375,3.3342285-5.4482422,6.144043-8.7099609,8.6784668-1.1835938.9199219-2.3515625,1.8605957-3.5195312,2.7995605-.4316406.3464355-.6806641.784668-.5166016,1.3569336.1669922.5854492.6083984.8930664,1.1806641.904541.5058594.0097656,1.0439453-.0310059,1.5146484-.1977539.7705078-.2731934,1.5341797-.6071777,2.2392578-1.0202637,2.5576172-1.4987793,4.9404297-3.2497559,6.9501953-5.4333496,1.9648438-2.1335449,3.8154297-4.3725586,5.7177734-6.5639648.96875-1.1164551,1.7519531-2.3540039,2.3642578-3.6953125.4248047-.9282227.7275391-1.8964844.7558594-2.9296875,0-.112793.0097656-.2265625-.0009766-.3383789-.0761719-.7888184-.3789062-1.4458008-1.1552734-1.7602539Z" stroke-width="0"/>
      <path d="m39.9594733,48.2222461c-.4082031-.463623-.9013672-.8833008-1.4287109-1.2019043-.5771484-.3486328-1.2226562-.2785645-1.7724609.1486816-.5478516.4265137-.7382812,1.0183105-.5917969,1.6833496.0888672.4050293.2568359.7963867.4199219,1.1806641,1.1933594,2.8068848,2.3300781,5.6308594,3.0390625,8.611084.8535156,3.5856934,1.3964844,7.2155762,1.7226562,10.8845215.0576172.6425781.25,1.3066406.53125,1.8869629.3564453.7353516,1.046875,1.0930176,1.8798828,1.03125.8339844-.0617676,1.4384766-.526123,1.7041016-1.3032227.1894531-.5527344.2246094-1.157959.2929688-1.5419922-.1376953-1.4199219-.2246094-2.6271973-.375-3.8266602-.5878906-4.7019043-1.515625-9.3259277-3.2138672-13.7702637-.5283203-1.3835449-1.2304688-2.6711426-2.2080078-3.7824707Z" stroke-width="0"/>
      <path d="m78.2250983,25.0237598c3.4658203.4951172,6.8037109,1.46875,10.0527344,2.7600098.4042969.1606445.7949219.3630371,1.2099609.487793,1.1269531.3393555,2.21875-.1069336,2.6787109-1.0627441.4746094-.9841309.1582031-2.1513672-.8525391-2.7866211-.6503906-.4082031-1.3681641-.7241211-2.0849609-1.0083008-2.6308594-1.0429688-5.3583984-1.7692871-8.1152344-2.3823242-1.6728516-.3720703-3.3691406-.581543-5.0996094-.6054688-1.8554688.2290039-3.7226562.3896484-5.5615234.7133789-1.0673828.1877441-2.1054688.5944824-3.1240234.9865723-.6074219.2336426-.9570312.7619629-.9414062,1.4516602s.4101562,1.1469727,1.0029297,1.4206543c.3466797.1601562.7275391.2680664,1.1044922.3391113,1.2353516.2324219,2.4697266.1308594,3.7080078-.0297852,1.9990234-.2590332,4.0009766-.5727539,6.0224609-.2839355Z" stroke-width="0"/>
      <path d="m32.1821295,56.2713184c.0644531-1.1015625-.1328125-2.1533203-.7353516-3.1010742-.5126953-.8066406-1.2441406-1.161377-2.0283203-.9960938-.7646484.1611328-1.3212891.8085938-1.4267578,1.751709-.0585938.5251465-.0498047,1.0617676-.0292969,1.5915527.0908203,2.3664551.1962891,4.7324219.296875,7.0983887.0498047,1.1750488.0917969,2.3508301.1552734,3.5251465.1660156,3.0727539.3496094,6.1445312.5078125,9.2177734.0351562.6975098-.0703125,1.3706055-.4892578,1.9802246-.2871094.418457-.1074219.7861328.3808594.9179688.4785156.1291504.8886719-.0163574,1.2490234-.3359375.5585938-.4938965.8457031-1.1472168.9746094-1.8503418.2333984-1.2661133.5068359-2.5371094.5839844-3.8168945.1494141-2.4902344.1738281-4.9880371.25-7.482666-.0244141-.0012207-.0498047-.0024414-.0751953-.0036621,0-.8540039-.0380859-1.7099609.0078125-2.5615234.1054688-1.9790039.2607422-3.9555664.3779297-5.9345703Z" stroke-width="0"/>
      <path d="m113.9184577,96.1009082c-.9121094,1.0185547-1.8974609,1.9812012-3.1552734,2.6044922-.4033203.1999512-.6240234.5646973-.5986328,1.0288086.0273438.4785156.2900391.8271484.7236328,1.0026855.2783203.1120605.5878906.1826172.8876953.1977539.8974609.045166,1.7148438-.2773438,2.5-.6589355,4.078125-1.9814453,6.9121094-5.2211914,9.0527344-9.1157227.3564453-.6481934.4941406-1.4707031.5361328-2.2236328.0527344-.9296875-.4345703-1.6772461-1.2802734-2.1184082-.8515625-.4445801-1.703125-.3564453-2.46875.1936035-.6015625.4313965-1.1591797.9262695-1.7119141,1.420166-.3515625.314209-.2822266.6743164.1328125.892334.1943359.1020508.3994141.1843262.671875.3083496-.3212891.4748535-.5732422.9255371-.8994141,1.3146973-1.4482422,1.730957-2.8857422,3.4726562-4.390625,5.1538086Z" stroke-width="0"/>
      <path d="m71.2299811,45.9104785c-1.6162109-2.6931152-3.3583984-5.3105469-5.0625-7.9501953-.2421875-.3757324-.5449219-.7246094-.8720703-1.0300293-.3017578-.28125-.6474609-.5466309-1.0205078-.7158203-1.3105469-.5939941-2.6113281.2827148-2.5986328,1.9992676.0849609.25.1972656.7780762.4375,1.2402344.3476562.6691895.7285156,1.3376465,1.2001953,1.9223633.9384766,1.1657715,1.9423828,2.2805176,2.9316406,3.4050293,1.3515625,1.5368652,2.7470703,3.0383301,3.6484375,4.911377.5380859,1.1171875,1.1044922,2.2209473,1.6542969,3.333252.3603516.7304688.7792969,1.4155273,1.4804688,1.8713379.3779297.2456055.7958984.4350586,1.2050781.1000977.3916016-.3205566.2871094-.7443848.140625-1.1572266-.171875-.4851074-.3603516-.9665527-.4951172-1.4624023-.6142578-2.267334-1.4453125-4.4594727-2.6494141-6.4672852Z" stroke-width="0"/>
      <path d="m103.2104499,24.3521289c-.5507812-.3947754-1.1542969-.6018066-1.8134766-.2805176-.6357422.3105469-.7705078.8999023-.8027344,1.541748-.03125.6271973-.0322266,1.2624512-.1376953,1.878418-.3945312,2.2858887-1.0576172,4.4089355-3.2216797,5.7373047-.9072266.5571289-1.1230469,1.7109375-.6875,2.6220703.4433594.927002,1.4746094,1.454834,2.5087891,1.1516113.6035156-.1767578,1.2246094-.4672852,1.7041016-.8671875,2.4892578-2.0788574,3.6015625-4.8647461,4.0117188-7.954834-.0898438-.5891113-.1425781-1.1191406-.2548828-1.6364746-.1894531-.8710938-.5566406-1.654541-1.3066406-2.1921387Z" stroke-width="0"/>
      <path d="m81.7202155,33.7818164c.1523438.3530273.4482422.5239258.7714844.2653809.3671875-.2939453.6689453-.2026367,1.0107422-.0043945.3203125.1860352.6660156.333252.9746094.5361328,1.7382812,1.1413574,3.4755859,2.2834473,5.1972656,3.4489746.7207031.4880371,1.4667969.7207031,2.3271484.486084.5117188-.1391602.6650391-.4213867.3085938-.7851562-.8408203-.8588867-1.1875-1.9829102-1.7236328-3.003418-.7275391-1.3852539-1.6738281-2.5712891-3.0136719-3.3972168-.8486328-.5239258-1.7216797-1.0178223-2.6171875-1.4562988-.4970703-.2431641-1.0625-.3452148-1.5976562-.5107422-1.6201172.0786133-2.6650391,1.4584961-2.1992188,2.979248.1513672.4916992.3574219.9680176.5615234,1.4414062Z" stroke-width="0"/>
    </g>
  </g>
</svg>