<?xml version="1.0" encoding="UTF-8"?>
<svg id="b" data-name="Layer 2" xmlns="http://www.w3.org/2000/svg" width="217.204" height="132.981" viewBox="0 0 217.204 132.981">
  <g id="c" data-name="Layer 1">
    <path d="m213.45,98.502c-3.588-2.367-7.095-3.918-10.718-4.74l-.871-.198c-2.711-.62-5.516-1.26-8.317-1.641-3.995-.545-8.105-.864-11.973-1.142-2.123-.151-4.194.375-6.329,1.604l-.029.327c-.037.425-.075.856-.1,1.288.061.047.116.092.175.139.088.012.183.024.28.037.492.064,1.058.138,1.619.155,8.187.248,16.295,1.269,24.098,3.034,2.556.579,5.302,1.394,8.64,2.566,1.297.456,3.462,1.217,3.845,3.966l.072.513-.433.289c-.172.116-.346.249-.525.387-.492.378-1.029.789-1.677,1.025-4.787,1.759-9.657,2.908-14.473,3.413-1.461.155-2.892.285-4.477.427l-.111.011c-2.776.252-5.647.513-8.438.918-5.168.747-11.99,1.62-18.922,1.726-.682-.016-1.324-.154-1.862-.286-.232-.058-.459-.116-.684-.158l-.623-.117-.051-.63c-.301-3.714.584-7.116,2.786-10.709.387-.634.763-1.277,1.14-1.92l.103-.173c.296-.507.591-1.011.894-1.512,5.822-9.684,8.768-20.454,8.754-32.011-.009-7.031.097-14.176.201-21.086v-.07c.068-4.417.128-8.402.166-12.449.028-2.88-.021-5.795-.068-8.615l-.039-3.073c.007-1.267.012-2.461-.728-3.312-.558-.645-1.274-1.193-2.032-1.776-.363-.28-.733-.563-1.098-.866l-.19-.23c-1.811-3.506-2.823-4.525-6.038-6.088-4.627-2.247-9.641-3.287-14.369-4.077-2.929-.488-5.939-.757-8.849-1.019-1.208-.108-2.414-.217-3.62-.339-1.703-.175-3.405-.362-5.106-.551-4.803-.533-9.77-1.084-14.693-1.269l-.347-.013c-4.18-.16-7.951-.287-11.712-.247-.991.014-1.985.018-2.98.024h-.329c-4.08.018-8.3.035-12.35.608-10.119,1.428-20.378,3.383-29.43,5.106-4.323.823-8.611,2.052-12.633,3.238-2.879.848-5.664,1.848-8.086,4.71l-1.605,6.234c-.149.578-.288,1.156-.432,1.754l-.436,1.796-.6.049c-.898.071-1.773.151-2.63.232-1.915.181-3.701.349-5.52.377-4.629.072-8.849.499-12.902,1.303-4.459.885-8.179,2.896-11.372,6.145C1.368,35.706-.555,41.419.14,47.256c.694,5.81,3.887,10.887,8.761,13.928,1.264.789,2.586,1.565,4.044,2.372,7.192,3.983,14.159,8.574,20.706,13.647,2.642,2.046,5.228,4.026,8.094,6.216l3.551,2.742c1.358,1.661,2.592,3.287,3.783,4.86l.038.05c2.446,3.228,4.752,6.269,7.526,8.907,1.281,1.216,2.873,2.729,3.718,4.812,1.027,2.531,1.82,5.319,2.496,8.774l.171.877-.891.104c-2.536.294-5.002.218-7.757-.245-1.495-.249-3.041-.507-4.561-.528-7.626-.106-13.476-.437-18.963-1.072-1.881-.217-3.803-.377-5.662-.53l-.091-.008c-2.405-.201-4.891-.41-7.33-.744-3.454-.477-6.905-1.231-10.243-1.962l-1.137-.248c-.645-.14-1.092-.591-1.526-1.027-.153-.155-.307-.311-.466-.442l-.429-.354.034-.108,1.26-4.059.197-.159c.18-.144.337-.289.482-.423.372-.341.703-.645,1.149-.822,4.411-1.756,9.401-3.744,14.71-4.506,1.369-.197,2.738-.406,4.108-.616,4.638-.708,9.419-1.439,14.205-1.661.863-.041,1.769-.277,2.373-.452.595-.173.992-.289.782-2.012-3.666-1.401-7.478-1.045-10.397-.575-3.857.622-7.729,1.297-11.366,1.935-5.31.929-9.982,2.379-14.285,4.43-2.826,1.351-4.72,3.505-5.628,6.401-.529,1.691-.407,3.555-.229,5.324.272.235.565.461.873.7,1.049.813,2.105,1.63,2.679,2.804.954,1.944,2.538,2.856,4.371,3.913l.269.155c5.47,3.158,11.313,5.079,18.404,6.991,7.705,2.079,15.749,3.161,23.528,4.206,2.428.327,4.94.664,7.404,1.027l1.306.193c4.324.641,8.794,1.303,13.214,1.64,1.862.142,3.753.331,5.58.513l.066.007c4.466.448,9.085.907,13.651.704,6.048-.266,12.171-.458,18.092-.645l.948-.03c2.765-.087,5.532-.173,8.298-.27l.935-.03c1.774-.058,3.575-.118,5.322-.282,6.515-.617,11.82-1.164,16.695-1.721,4.449-.508,8.982-1.143,12.982-1.704,1.868-.261,3.762-.546,5.594-.823,4.64-.698,9.437-1.42,14.223-1.822,5.999-.504,12.348-1.33,18.123-3.939,4.482-2.024,8.849-4.193,13.073-6.289,1.752-.869,3.48-1.726,5.185-2.557.246-.44.455-.858.659-1.263.52-1.038.967-1.931,1.72-2.617,1.657-1.51,2.523-3.2,2.647-5.168-.319-2.106-1.511-3.79-3.754-5.268Zm-173.855-25.537c-.382.221-.765.333-1.136.333-.662,0-1.157-.349-1.483-.579-.133-.093-.294-.206-.374-.227-.802-.207-1.526-.575-2.224-.931l-.342-.173c-.888-.445-1.661-.876-2.363-1.315l-1.681-1.05c-2.082-1.298-4.234-2.641-6.317-4.044-1.602-1.08-3.375-1.98-5.419-2.75-5.809-2.193-10.247-6.562-13.569-13.353-1.895-3.872-.429-10.185,3.138-13.509,3.903-3.637,7.555-5.827,11.496-6.89.72-.194,1.437-.402,2.271-.643l1.926-.558.037.005,14.716,2.182.161.487c.534,1.645.87,3.559-.698,5.285l-.174.163-.15.056c-1.872.701-3.664.375-5.401.058l-.066-.012c-.553-.101-1.124-.206-1.701-.274-.524.133-1.058.263-1.599.394l-.199.049c-1.636.4-3.309.807-4.952,1.293-1.037.307-2.123.797-3.139,1.415-2.246,1.368-3.405,3.307-3.446,5.764-.013.757-.009,1.515-.005,2.099v.425c1.406,3.733,3.558,5.677,6.573,7.598,3.251,2.07,6.533,4.199,9.707,6.258l4.205,2.788c1.154,1.586,1.411,3.347,1.661,5.051.186,1.267.359,2.452.879,3.531l.333.692-.666.383Zm-1.543-16.349l.046,1.92-1.432-1.285c-2.438-2.186-5.115-3.446-7.704-4.664-2.447-1.15-4.752-2.233-6.679-3.997l-.19-.265c-.936-2.284-.817-4.197.363-6.233l.13-.19.129-.085c4.266-2.835,8.933-2.417,14.159-1.632l.611.093.088.61c.486,3.399.469,6.754.45,10.307v.089c-.008,1.699-.016,3.455.028,5.331Zm14.826-42.729c4.221-1.594,8.399-2.393,12.44-3.166l1.701-.328c4.504-.878,9.111-1.592,13.567-2.283l.083-.012c1.662-.256,3.325-.513,4.985-.78.767-.122,1.54-.123,2.222-.125,3.266-.001,6.525-.007,9.785-.013l1.403-.003c8.733-.013,17.775-.026,26.657.064,3.556.035,6.967.471,11.056,1.036,7.293,1.006,13.903,2.015,20.211,3.087,3.305.562,6.386,1.613,9.158,3.125,1.01.55,2.081,1.36,2.381,3.186l.066.407-.284.299c-.076.077-.15.175-.229.277l-.032.039c-.315.408-.707.915-1.318,1.154-1.548.61-3.071,1.176-4.682,1.391-1.978.264-3.992.445-5.94.62l-.058.004c-1.458.131-2.967.265-4.445.434l-1.815.202c-2.802.307-5.701.626-8.492,1.208-2.702.564-5.659.84-9.035.843-2.048.001-4.097.009-6.146.017-2.201.009-4.42.017-6.651.017-5.726,0-12.495-.049-19.292-.41-2.323-.125-4.649-.243-6.975-.36l-.496-.025c-3.901-.198-7.934-.403-11.9-.637-4.961-.294-9.94-1.174-14.616-2.05-5.343-1.004-9.997-3.595-13.455-5.742l-1.425-.885,1.572-.595Zm9.198,78.915c-4.316-1.661-8.302-4.434-11.845-8.242-1.32-1.418-2.343-3.437-3.22-6.352-1.841-6.12-3.537-12.75-3.468-19.772.014-1.548-.136-3.129-.28-4.659-.08-.847-.163-1.722-.22-2.591-.265-4.13-.449-8.171.196-12.217.23-1.456.295-2.943.35-4.596.174-5.251.67-9.669,1.561-13.908l.191-.907.882.289c.245.08.474.15.692.214.487.146.921.277,1.348.473,6.234,2.847,12.827,4.367,17.873,5.373,8.315,1.657,16.924,2.431,25.25,3.179l1.2.109c4.783.431,9.585.697,14.227.956,1.71.096,3.421.192,5.131.295,1.086.066,2.147.151,3.321.247,3.038.251,6.135.499,9.137.238,2.385-.211,4.811-.324,7.158-.433l.08-.004c4.656-.215,9.469-.437,14.096-1.42,5.612-1.192,10.593-2.411,15.229-3.728,1.761-.501,3.437-1.26,5.211-2.064.92-.419,1.678-.76,2.477-1.093l.271-.114.284.083c1.271.375,1.31,1.58,1.328,2.161l.009.235c.096,1.622.216,3.276.332,4.877.287,3.914.58,7.94.549,11.924-.068,8.649-.395,17.482-.969,26.255-.238,3.626-.928,7.253-1.594,10.76-.175.923-.35,1.847-.519,2.771-.183,1.011-.577,1.944-.957,2.847-.176.416-.334.792-.476,1.176l-.141.385-.391.119c-.771.24-1.478.446-2.138.637-1.27.369-2.367.688-3.399,1.104-7.98,3.219-16.444,5.62-25.876,7.337l-.59.106c-1.823.331-3.709.673-5.493,1.184-7.487,2.14-16.002,3.181-26.033,3.181-1.691,0-3.476-.028-5.457-.085-4.839-.14-9.618-.964-14.239-1.76l-.133-.022c-1.964-.339-3.995-.688-5.998-.977-4.492-.648-9.781-1.579-14.95-3.568Zm92.257,18.893l.105.551-.474.302c-.125.08-.237.167-.338.247-.317.247-.652.478-1.129.512-1.68-.028-3.381.041-5.119.116-3.487.154-7.096.31-10.738-.445-.925-.193-1.993-.087-3.027.02-.32.033-.621.064-.919.088-.828.064-1.627.159-2.586.276-1.216.146-2.46.295-3.705.348-2.168.091-4.44.294-6.443.474-3.918.352-7.946.714-11.978.434-.387-.026-.77-.028-1.175-.029h-.222c-.811-.003-1.581-.004-2.351-.133-5.869-.978-11.63-.561-17.028-.053-4.003.378-8.103.391-12.067.404h-.058c-1.744.005-3.545.011-5.322.046l-.595.012-.041-.113-5.378-14.772.426-.371c.058-.051.12-.118.182-.185.334-.352.762-.795,1.368-.588,2.526.877,5.223,1.281,7.83,1.671,1.777.266,3.613.542,5.428.969,4.881,1.151,11.333,2.473,17.971,2.474.988,0,1.995.125,2.884.235.455.056.912.113,1.368.155,3.793.347,8.096.742,12.252-.322.742-.19,1.549-.272,2.31-.264,2.779.067,5.562-.396,8.246-.857l1.487-.251c3.237-.537,6.558-1.013,9.487-1.435l.646-.093c1.293-.186,2.585-.373,3.878-.566,4.627-.688,8.711-1.742,12.485-3.221,1.456-.571,2.968-1.013,4.43-1.441.542-.16,1.079-.318,1.614-.479.376-.116.675.022.965.156.172.077.359.163.623.268l1.014.402-.659.868c-3.462,4.554-6.733,8.854-5.644,14.59Zm41.722,4.601c-.22.139-.503.333-.887.261-.159-.022-.312-.062-.463-.106l.824.291-4.641,1.095c-1.358.312-2.761.637-4.144,1.003-1.083.285-2.173.554-3.262.822-2.773.685-5.612,1.386-8.275,2.364-7,2.572-14.752,3.977-24.399,4.425-4.562.21-9.185.625-13.656,1.025-2.393.215-4.837.434-7.243.622-5.94.459-11.983.893-17.827,1.313l-2.61.188c-2.344.168-5.115.361-7.876.501-.935.047-1.794.071-2.627.071-.58,0-1.121-.011-1.651-.033-1.529-.063-3.075-.148-4.57-.231-2.107-.117-4.287-.238-6.43-.295l-1.978-.045c-3.521-.072-7.145-.147-10.721-.886-1.556-.322-3.243-.344-4.875-.366-.432-.005-.85-.011-1.265-.021-6.576-.158-12.991-1.015-17.846-1.743-7.558-1.135-15.453-3.023-25.598-6.121-3.104-.946-6.192-2.079-9.178-3.175l-1.257-.462c-.425-.154-.687-.499-.899-.866l-.134.029-.187-.306-2.927-.379,1.456-1.213c.494-.411.992-.576,1.476-.509.358.059.665.24.941.551l.045.007c2.105-.336,4.145-.074,6.118.182.746.097,1.59.206,2.422.27.704.055,1.411.143,2.095.228l.067.008c.824.102,1.677.207,2.503.245,5.431.255,10.893.928,16.174,1.58l2.667.326c6.863.832,13.17,1.301,19.284,1.433,4.878.105,9.828.303,14.616.495l.482.02c2.969.117,6.039.239,9.058.336,8.187.261,15,.417,21.972-.126,8.704-.675,17.507-.751,26.021-.824,2.375-.021,4.744-.042,7.112-.075.524-.007,1.049-.007,1.566-.007h.153c2.234-.005,4.344-.009,6.421-.604.424-.121.842-.129,1.212-.135,5.169-.098,10.373-.459,15.407-.809,2.51-.173,5.106-.353,7.671-.499,1.354-.079,2.725-.092,4.05-.105,2.792-.028,5.639-.056,8.37-.664,1.182-.266,2.514-.129,4.07.421l.638.227.305-1.658,4.463.822-2.231,1.101Z" stroke-width="0"/>
  </g>
</svg>