<?xml version="1.0" encoding="UTF-8"?>
<svg id="Layer_2" data-name="Layer 2" xmlns="http://www.w3.org/2000/svg" viewBox="0 0 86.2546466 162.9904661">
  <g id="Layer_1-2" data-name="Layer 1">
    <path d="m77.1259235,141.879138c.9101562-1.0927734,1.5888672-2.359375,2.0761719-3.8720703.1279297-.3974609.2724609-.8115234.4658203-1.1533203,1.1914062-2.0966797,2.1025391-4.3164062,2.7871094-6.7841797,1.1591797-4.1757812,2.046875-8.1572266,2.7138672-12.171875.1445312-.8769531.3095703-1.7490234.4736328-2.6210938.1455078-.7675781.2900391-1.5351562.421875-2.3076172.0869141-.5117188.0917969-1.0126953.0898438-1.5664062-.0029297-.9541016-.0126953-1.9082031-.0234375-2.8613281-.0175781-1.7558594-.0371094-3.5722656-.0097656-5.3515625.0263672-1.7236328-.3652344-3.3037109-.7451172-4.8320312-.1357422-.5478516-.2714844-1.0966797-.3876953-1.6513672-.0986328-.46875-.3232422-.8662109-.5517578-1.2714844l-.7841797-1.4033203c-1.7988281-3.2275391-3.6582031-6.5654297-5.9951172-9.4326172-.3984375-.4892578-.7578125-1.0214844-1.1386719-1.5859375-.2119141-.3134766-.4238281-.6269531-.6416016-.9326172l-.1367188-.2011719c-.1972656-.296875-.4199219-.6337891-.7734375-.8515625-.7597656-.4648438-1.3876953-1.1738281-2.0537109-1.9248047-.3447266-.3896484-.6894531-.7783203-1.0546875-1.1367188-.2226562-.21875-.4492188-.4335938-.6757812-.6484375-.71875-.6806641-1.3974609-1.3242188-1.9404297-2.09375-1.1357422-1.6123047-2.5664062-2.5273438-3.8144531-3.2089844-.1396484-.0771484-.2861328-.1435547-.4316406-.2099609-.2138672-.0966797-.3994141-.1796875-.5234375-.2890625-1.7958984-1.5771484-3.9111328-2.0996094-5.7529297-2.4648438-3.1611328-.6289062-5.5810547-1.7294922-7.6162109-3.4628906-.4013672-.3417969-.8232422-.625-1.2314453-.8984375-.234375-.1572266-.4697266-.3154297-.6982422-.4833984-.0986328-.0732422-.2011719-.1435547-.3037109-.2138672-.2695312-.1865234-.5253906-.3623047-.6767578-.5703125-.7060547-.9677734-1.5390625-1.5791016-2.2607422-2.0507812-.3310547-.2148438-.6464844-.5332031-1.0019531-.8916016-2.2890625-2.3066406-3.5947266-5.4873047-4.2324219-10.3134766-.2216797-1.6875-.0214844-3.1542969.6132812-4.484375.2353516-.4941406.4980469-1.0751953.6279297-1.7119141.3945312-1.9228516,1.5732422-3.1855469,2.7128906-4.4072266,1.4443359-1.5488281,3.2285156-2.1933594,5.1181641-2.8759766.3007812-.1083984.6015625-.2177734.9023438-.3300781,2.6533203-.9941406,5.0439453.0625,7.2294922,1.3515625,1.1503906.6777344,2.3173828,1.5693359,3.5703125,2.7265625,1.7919922,1.6552734,3.1425781,3.6777344,4.0126953,6.0107422l.1035156.2753906c.5195312,1.3886719,1.0107422,2.7011719.9111328,4.1230469-.0214844.3076172.1474609.5966797.4248047.7294922.9335938.4462891,1.8085938.2216797,2.4599609-.625l.2197266-.2851562c.5146484-.6689453,1.0458984-1.3603516,1.5390625-2.0849609.53125-.7822266,1.1611328-1.4560547,1.9248047-2.0615234,1.4931641-1.1845703,2.9707031-2.4501953,4.3994141-3.6738281l1.1923828-1.0185547c.3574219-.3037109.7226562-.6601562,1.1494141-1.1220703.3408203-.3691406.6738281-.7490234,1.0078125-1.1289062.6474609-.7382812,1.2587891-1.4345703,1.9257812-2.0585938,1.3027344-1.2158203,2.2705078-2.8398438,2.9599609-4.9638672,1.0693359-3.2890625.5966797-5.8896484-1.5302734-8.4316406-1.6132812-1.9257812-2.9755859-3.9619141-4.1679688-6.2236328-.5078125-.9648438-1.0878906-1.8251953-1.7216797-2.5576172-1.5292969-1.765625-3.2275391-3.4208984-5.046875-4.9189453-1.4238281-1.1728516-2.8496094-2.4121094-4.2294922-3.6113281-1.0205078-.8876953-2.0410156-1.7753906-3.0712891-2.6464844-1.3310547-1.1240234-2.8300781-1.9277344-4.4550781-2.3867188C57.4433063.6320677,54.0038532-.0993776,50.3954548.010974c-3.0605469.0976562-5.9521484.8125-8.8388672,2.1855469l-.6650391.3203125c-1.0703125.5175781-2.0820312,1.0078125-3.1611328,1.3369141-.9296875.2841797-1.7890625.7705078-2.6201172,1.2421875-.3320312.1875-.6630859.3759766-.9970703.5488281-.2216797.1152344-.4472656.2226562-.6728516.3300781-.5966797.2861328-1.2148438.5810547-1.7910156,1.0107422-2.3291016,1.7373047-4.4111328,3.3378906-6.3095703,5.3359375-.3125.328125-.6328125.6435547-.9541016.9580078-.6513672.6396484-1.3242188,1.3007812-1.9365234,2.0810547-1.1064453,1.4091797-2.2988281,2.7792969-3.4521484,4.1044922-.5087891.5849609-1.0175781,1.1699219-1.5214844,1.7597656-1.0009766,1.1728516-2.0371094,2.4560547-2.75,4.1181641-.2890625.6738281-.7011719,1.3144531-1.0664062,1.8525391-1.3925781,2.0576172-2.1640625,4.4033203-2.734375,6.4267578-1.4775391,5.2353516-1.4130859,10.6796875-1.1923828,14.8378906.1474609,2.7753906.1552734,5.0478516.0244141,7.1523438-.2314453,3.7011719.5576172,7.3632812,2.4101562,11.1943359.1464844.3027344.3457031.6074219.5917969.9052734.4589844.5576172.921875,1.1113281,1.3847656,1.6640625.6240234.7441406,1.2470703,1.4882812,1.8603516,2.2441406l.7402344.9052734c1.1230469,1.3662109,2.2841797,2.7792969,3.2646484,4.3300781.2167969.3427734.4130859.7099609.6083984,1.0751953.3505859.6523438.7119141,1.328125,1.1904297,1.8925781,2.3935547,2.8232422,4.7763672,4.7919922,7.2851562,6.0185547.1757812.0859375.3535156.1689453.53125.2519531.6787109.3164062,1.3193359.6152344,1.8339844,1.0625,1.2832031,1.1142578,2.6923828,1.9033203,4.0546875,2.6669922,1.0068359.5644531,1.9580078,1.0976562,2.8691406,1.7539062.3476562.2509766.7402344.4472656,1.1367188.5703125,1.3671875.4208984,2.6103516,1.1894531,3.9277344,2.0019531.3916016.2421875.7841797.484375,1.1796875.7177734,1.3935547.8203125,2.3056641,2.2109375,3.2714844,3.6845703.3417969.5214844.6845703,1.0439453,1.0498047,1.5439453l.2822266.8066406c.8027344,2.2753906,1.5605469,4.4238281,1.4873047,6.8730469-.0546875,1.8974609-.0410156,3.4541016.0439453,4.8974609.0498047.8623047-.0400391,1.6923828-.1347656,2.5703125l-.0439453.4101562c-.1748047,1.6816406-.7871094,3.1367188-1.4355469,4.6757812l-.2128906.5078125c-.6386719,1.5302734-1.4902344,2.3310547-2.6035156,2.4501953-.6337891.0683594-1.2646484.1777344-1.8955078.2871094-.640625.1113281-1.2470703.2167969-1.8603516.2792969-.8662109.0859375-1.7382812-.1533203-2.5761719-.7236328-.2070312-.140625-.4130859-.2861328-.6191406-.4306641-.7363281-.5175781-1.4970703-1.0527344-2.3339844-1.4199219-1.609375-.7050781-3.0292969-1.8330078-4.3242188-2.9462891-.3203125-.2753906-.6376953-.5566406-.9541016-.8378906-.6972656-.6181641-1.4189453-1.2578125-2.1699219-1.8330078l-.8203125-.6201172c-1.7490234-1.3154297-3.4013672-2.5576172-4.703125-4.4384766-.2568359-.3720703-.5253906-.7304688-.7939453-1.0878906-.8193359-1.0917969-1.5927734-2.1230469-1.9931641-3.5019531-.0410156-.1425781-.0869141-.2841797-.1328125-.4248047-.1552734-.4765625-.2890625-.8876953-.203125-1.2451172.2441406-1.0166016-.0498047-1.8876953-.8710938-2.5888672-.7382812-.6337891-1.7363281-.4931641-2.5400391.3486328-.1074219.1132812-.1777344.2568359-.1992188.4121094-.4179688,2.9257812-1.8232422,5.2412109-3.8046875,7.8164062-1.2763672,1.6601562-2.7294922,3.1855469-4.1347656,4.6621094-.7695312.8076172-1.5390625,1.6152344-2.2871094,2.4492188-.3496094.390625-.703125.7763672-1.0556641,1.1621094-.6855469.7480469-1.3710938,1.4970703-2.0322266,2.2763672-.3974609.4697266-.7753906.9648438-1.1533203,1.4609375-.5332031.7001953-1.0371094,1.3613281-1.5976562,1.9501953-.9521484,1-1.3427734,2.078125-1.2646484,3.4941406.2197266,4.0097656,1.3974609,7.8076172,3.5009766,11.2880859,1.1279297,1.8642578,2.0869141,3.6201172,2.9287109,5.3671875.53125,1.0996094,1.1904297,2.1220703,1.7724609,3.0234375,1.8271484,2.8320312,3.7333984,5.1855469,5.8300781,7.1933594,1.2568359,1.2050781,2.3496094,2.1611328,3.5996094,2.9082031,2.3144531,1.3828125,4.8261719,2.1552734,6.9990234,2.7705078,1.3320312.3759766,2.6728516.515625,3.9707031.6503906.3632812.0371094.7265625.0751953,1.0898438.1181641.640625.0751953,1.2783203.1767578,1.9160156.2783203,1.5419922.2451172,3.1435547.5009766,4.7792969.3876953.3476562-.0214844.7431641.0761719,1.1650391.1816406l.1865234.0458984c2.96875.7226562,5.4160156,1.0429688,7.7177734.9726562.8486328-.0224609,1.7041016-.0107422,2.5556641.0107422.1953125.0048828.3886719.0068359.5800781.0068359,2.6767578,0,5.0371094-.4667969,7.1972656-1.4228516.5341797-.2363281,1.1210938-.4033203,1.7460938-.4980469,2.4921875-.375,4.8681641-1.5898438,7.4775391-3.8232422,2.3857422-2.0410156,5.1054688-4.5830078,7.1933594-7.9492188.4824219-.7783203,1.0166016-1.4902344,1.5820312-2.2451172.7851562-1.0458984,1.5966797-2.1269531,2.2441406-3.3837891.3730469-.7246094.6894531-1.3154297,1.0839844-1.7890625Zm-10.0146484,9.0537109c-.2666016.265625-.5332031.53125-.7910156.8066406l-.5009766.5302734c-.4433594.4667969-.8857422.9326172-1.3076172,1.4238281-1.0351562,1.2041016-2.0869141,2.0585938-3.2158203,2.6132812-.2900391.1416016-.5673828.3212891-.8447266.5019531-.1474609.0976562-.2958984.1943359-.4462891.2832031-.1210938.0712891-.2421875.1484375-.3632812.2255859-.2617188.1679688-.5087891.3271484-.71875.3818359-1.0429688.2753906-2.0791016.6308594-3.0800781.9736328-1.9511719.6689453-3.7939453,1.2998047-5.7089844,1.4033203l-.6542969.0361328c-2.6064453.1435547-5.3027344.2919922-7.8837891-.3222656-1.5498047-.3691406-3.1708984-.6972656-4.9560547-1.0029297-.2509766-.0429688-.4951172-.0556641-.7314453-.0556641-.1611328,0-.3193359.0058594-.4755859.0117188-.2929688.0087891-.5703125.0195312-.8193359-.0117188-.8125-.1035156-1.6269531-.1962891-2.4414062-.2890625-2.2480469-.2568359-4.5722656-.5224609-6.8037109-1.0146484-1.3603516-.2998047-2.6748047-.8837891-4.0673828-1.5019531-.5957031-.2646484-1.1923828-.5283203-1.7910156-.7705078-2.4833984-1.9648438-5.0615234-4.1416016-7.0078125-7.1650391-.0800781-.1240234-.1494141-.2597656-.2207031-.3945312-.1494141-.2861328-.3183594-.609375-.5732422-.8789062-1.2333984-1.3066406-2.0332031-2.9882812-2.8798828-4.7695312l-.3417969-.7167969c-.4833984-1.0029297-1.0654297-1.9335938-1.6279297-2.8330078l-.4833984-.7783203c-1.7724609-2.8955078-2.8212891-5.8916016-3.2041016-9.1572266-.1386719-1.1816406.0869141-1.9082031.7753906-2.5078125.6347656-.5527344,1.1328125-1.265625,1.6142578-1.9550781.1796875-.2578125.359375-.5146484.5458984-.7617188.1601562-.2138672.3125-.4404297.4628906-.6660156.2255859-.3369141.4384766-.6552734.6738281-.9111328,1.0234375-1.1132812,2.0625-2.2041016,3.1015625-3.2949219l1.8876953-1.9794922c.8125-.8359375,1.6533203-1.7011719,2.2871094-2.8964844.2099609-.3945312.5253906-.7441406.8603516-1.1142578.3007812-.3320312.6113281-.6757812.8789062-1.0859375.5566406-.8525391,1.0722656-1.7519531,1.5722656-2.6210938.2109375-.3691406.4228516-.7382812.6376953-1.1035156.0517578.1083984.0996094.2167969.1445312.3271484.5449219,1.3486328,1.1445312,2.3476562,1.8857422,3.1435547.296875.3193359.5673828.6923828.8544922,1.0859375.1992188.2734375.3984375.546875.6083984.8066406.2978516.3681641.6230469.7041016.9492188,1.0390625l.1191406.1230469c.1064453.1103516.2207031.2099609.3349609.3085938.09375.0810547.1894531.1601562.2734375.2558594,1.921875,2.1591797,4.1347656,3.84375,6.2734375,5.4736328.7744141.5888672,1.5478516,1.1777344,2.3076172,1.7890625.8349609.6708984,1.7480469,1.1699219,2.6298828,1.6523438.3974609.2177734.7958984.4345703,1.1855469.6679688l.9755859.5917969c.3291016.2011719.6582031.4013672.9882812.5986328,2.4023438,1.4345703,4.9677734,1.6923828,7.6259766.7724609l.3144531-.1103516c.5244141-.1855469,1.0205078-.3603516,1.5097656-.4492188,1.7832031-.3242188,3.2255859-1.5439453,4.1728516-3.5263672,1.0175781-2.1289062,2.3496094-5.40625,2.1738281-9.28125-.078125-1.7285156-.0341797-3.4599609.0136719-4.7744141.0849609-2.2880859-.3916016-4.3310547-.9755859-6.5742188-.5380859-2.0703125-1.5791016-3.6806641-2.5859375-5.2382812-.3476562-.5371094-.6953125-1.0742188-1.0205078-1.6298828-.359375-.6132812-.9033203-1.0263672-1.3837891-1.3896484-.1220703-.0927734-.2441406-.1855469-.3613281-.2802734-1.7216797-1.3945312-3.6201172-2.3144531-5.4570312-3.203125-.6289062-.3046875-1.2568359-.6083984-1.8789062-.9326172-1.1757812-.6103516-2.3515625-1.3320312-3.4873047-2.0292969-.4960938-.3046875-.9912109-.6083984-1.4902344-.90625l-.8662109-.515625c-1.1386719-.6777344-2.2783203-1.3564453-3.4091797-2.0537109l-.5068359-.3085938c-.71875-.4355469-1.3984375-.8466797-2.0195312-1.3574219-2.1025391-1.7265625-4.2744141-3.6494141-5.6962891-6.4755859-.2568359-.5087891-.5986328-.9140625-.9296875-1.3046875l-.2246094-.2695312c-.4355469-.5302734-.84375-1.0908203-1.2529297-1.6503906-.8134766-1.1152344-1.6552734-2.2675781-2.7177734-3.2138672-.8193359-.7294922-1.6201172-1.7568359-2.4482422-3.1425781-.3789062-.6328125-.6464844-1.3857422-.9296875-2.1826172-.1376953-.3876953-.2753906-.7763672-.4277344-1.1533203-.7333984-1.8212891-.9433594-3.7773438-1.1669922-5.8486328-.078125-.7255859-.15625-1.4501953-.2578125-2.1699219-.0390625-.2783203.0117188-.6230469.0654297-.9892578.0634766-.4267578.1347656-.9111328.0712891-1.3964844-.3613281-2.7578125-.1191406-5.5488281.1152344-8.2480469.28125-3.2294922.8027344-6.4580078,1.5517578-9.5966797.3144531-1.3164062.7509766-2.4736328,1.3330078-3.5341797.3027344-.5517578.5761719-1.1289062.8486328-1.7070312.3603516-.7636719.7001953-1.4863281,1.1103516-2.1464844.7441406-1.1972656,1.6484375-2.3115234,2.5234375-3.3896484l.0947266-.1171875c.5634766-.6943359,1.1445312-1.3681641,1.7246094-2.0419922.9404297-1.0908203,1.9121094-2.21875,2.7988281-3.4238281.6083984-.828125,1.3291016-1.4960938,2.0917969-2.203125.8300781-.7695312,1.6884766-1.5654297,2.3994141-2.5849609.0244141-.0273438.1220703-.0859375.1865234-.125.1201172-.0732422.2402344-.1484375.3486328-.2363281.3574219-.2919922.7138672-.5878906,1.0693359-.8837891.6767578-.5644531,1.3535156-1.1289062,2.0498047-1.6582031,1.8896484-1.4384766,3.6552734-2.4248047,5.3955078-3.0136719.3789062-.1289062.7539062-.2705078,1.1298828-.4121094,1.0654297-.4023438,2.0712891-.7832031,3.125-.8369141,1.1210938-.0585938,1.9355469-.6523438,2.3037109-1.6357422.3378906-.1210938.6728516-.2558594,1.0068359-.3916016,1.0644531-.4296875,2.0751953-.8291016,3.125-.7324219,1.5595703.1533203,2.8105469.1748047,3.9335938.0644531,1.6845703-.1582031,3.3046875.2939453,5.0185547.7763672.5371094.1513672,1.0751953.3027344,1.6162109.4355469,3.1015625.7578125,5.7148438,2.9287109,8.1259766,5.0878906.6425781.5761719,1.2949219,1.1396484,1.9472656,1.7021484,1.3691406,1.1826172,2.7841797,2.4042969,4.0751953,3.7255859l.4501953.4580078c1.3183594,1.3378906,2.6816406,2.7197266,3.4853516,4.5517578,1.0332031,2.359375,2.5371094,4.2158203,3.9912109,6.0117188l.390625.4833984c.2304688.2861328.4306641.6347656.6445312,1.0039062.0839844.1464844.1689453.2929688.2548828.4355469.2597656.4316406.3017578.9355469.2871094,1.6611328-.0400391,2.0136719-.5400391,3.5908203-1.5283203,4.8212891-.6914062.8603516-1.4316406,1.7021484-2.1484375,2.515625l-.8515625.9716797c-.3242188.375-.6484375.7490234-.9931641,1.0986328-.1494141.1523438-.296875.3105469-.4453125.46875-.3876953.4160156-.7548828.8095703-1.1474609,1.0791016-1.7148438,1.1796875-3.0478516,2.3134766-4.1953125,3.5693359-.6640625.7275391-1.4316406,1.3154297-2.2441406,1.9384766-.2265625.1738281-.4541016.3476562-.6777344.5244141-.1679688-.1699219-.2783203-.4345703-.3300781-.7910156-.2353516-1.6240234-1.0820312-2.8583984-1.7617188-3.8505859-1.0380859-1.515625-2.2128906-2.8232422-3.4941406-3.8867188-1.3632812-1.1318359-2.8271484-1.9882812-4.2431641-2.8164062l-.578125-.3398438c-2.1347656-1.2587891-4.4570312-1.7177734-6.8916016-1.3632812-2.4628906.3554688-4.6796875,1.390625-6.5234375,2.3564453-1.1669922.6113281-2.2226562,1.5244141-3.1914062,2.4199219-.3466797.3212891-.5458984.7587891-.7216797,1.1445312-.1162109.2539062-.2353516.5166016-.3603516.6572266-1.1152344,1.2451172-1.5859375,2.7919922-1.9726562,4.2705078-.0527344.203125-.1376953.4990234-.2568359.7226562-1.4033203,2.6337891-1.0566406,5.3613281-.6210938,7.7099609.2197266,1.1855469.5664062,2.2998047.9013672,3.3779297.1064453.3427734.2138672.6865234.3164062,1.03125.9082031,3.0615234,2.8730469,5.0576172,4.8623047,6.7578125,1.1201172.9580078,2.2460938,1.8652344,3.3457031,2.6972656,1.6865234,1.2773438,3.4287109,2.5302734,4.9638672,3.6347656.3447266.2480469.7421875.4423828,1.1494141.5605469,1.1699219.3417969,2.3408203.6757812,3.5117188,1.0097656,1.0244141.2919922,2.0488281.5839844,3.1083984.8916016.5732422.1669922,1.0693359.3115234,1.4941406.7050781.5214844.4833984,1.1464844.7753906,1.6972656,1.0332031l.2744141.1298828c1.0458984.5,2.0097656,1.2431641,2.9453125,2.2724609,1.3779297,1.5146484,2.8105469,3.0048828,4.1962891,4.4462891.7128906.7412109,1.4248047,1.4824219,2.1328125,2.2294922.2714844.2861328.5214844.6308594.7509766.9609375.0869141.1230469.1611328.2607422.2363281.3974609.1513672.2744141.3232422.5859375.578125.8447266,1.0546875,1.0673828,1.8759766,2.3740234,2.7460938,3.7578125.6220703.9882812,1.2636719,2.0107422,2,2.9365234.2333984.2939453.4277344.671875.6337891,1.0732422.1064453.2070312.2128906.4140625.3261719.6123047l.3632812.6367188c.2529297.4394531.5058594.8798828.7460938,1.3271484.0703125.1328125.1455078.2646484.2207031.3964844.2158203.3818359.4208984.7421875.5146484,1.1044922.0869141.3359375.1777344.6699219.2685547,1.0039062.4638672,1.7080078.9023438,3.3203125.8320312,5.1083984-.0644531,1.6230469-.0146484,3.2666016.0341797,4.8554688.0263672.8916016.0537109,1.7841797.0615234,2.6757812.0058594.6572266-.0458984,1.3447266-.1542969,2.0410156-.109375.703125-.2138672,1.4082031-.3173828,2.1123047-.3652344,2.4716797-.7421875,5.0283203-1.3925781,7.4521484-.2773438,1.0351562-.515625,2.0869141-.7539062,3.1376953-.2509766,1.1054688-.5097656,2.2480469-.8115234,3.34375-.5498047,1.9912109-1.2822266,4.2949219-2.5488281,6.2744141-.4375.6845703-.7646484,1.4082031-.9453125,2.0917969-.1982422.7558594-.546875,1.3554688-1.0078125,2.0224609-.5478516.7939453-1.0742188,1.6083984-1.6015625,2.4238281-.2958984.4589844-.5917969.9179688-.8925781,1.3730469-.34375.5214844-.6855469,1.0449219-1.0263672,1.5693359-.9541016,1.4628906-1.9404297,2.9755859-2.9609375,4.3984375-.4345703.6054688-.9589844,1.1279297-1.5146484,1.6816406Z" stroke-width="0"/>
  </g>
</svg>