<?xml version="1.0" encoding="UTF-8"?>
<svg id="Layer_2" data-name="Layer 2" xmlns="http://www.w3.org/2000/svg" viewBox="0 0 289.131133 396.6024668">
  <g id="Layer_1-2" data-name="Layer 1">
    <path d="m14.5441924,342.7562844c2.8432617-2.7250977,5.6538086-5.4785156,8.8442383-7.7910156,3.8452148-2.7873535,7.668457-5.6228027,11.6699219-8.1730957,5.4345703-3.463623,11-6.7265625,16.5634766-9.982666,5.3569336-3.1347656,10.2280273-6.7866211,14.3457031-11.5095215,4.6606445-5.3458252,6.7700195-11.5620117,7.1855469-18.4799805.059082-.9836426-.3808594-1.9919434-.3632812-2.9848633.0336914-1.9083252-.5302734-3.6781006-1.0014648-5.4782715-1.5048828-5.74646-4.9125977-10.2792969-9.3979492-13.9499512-3.9248047-3.2114258-8.5517578-5.2803955-13.2626953-7.1352539-3.4472656-1.357666-6.9296875-2.6738281-10.2387695-4.324585-4.8666992-2.4277344-7.8178711-6.3165283-8.0517578-11.9611816-.0214844-.5240479-.2612305-1.0391846-.3276367-1.288208.1430664-1.0251465.2480469-1.7874756.355957-2.5494385.2060547-1.4598389.2392578-2.9710693.6547852-4.3687744,1.0356445-3.4881592,2.4301758-6.8671875,4.2744141-9.9968262,3.1337891-5.3182373,6.9384766-10.1784668,10.9785156-14.8284912,3.5634766-4.1016846,7.3076172-8.0489502,11.0283203-12.0111084,3.0610352-3.2597656,5.8520508-6.7258301,8.4360352-10.3719482,4.5063477-6.3580322,6.9594727-13.3353271,6.4838867-21.2003174-.1298828-2.1430664-.4086914-4.2770996-.625-6.4790039,2.1943359-1.3769531,4.496582-2.815918,6.7929688-4.2634277,4.4345703-2.7949219,8.6416016-5.9047852,12.5112305-9.4361572,3.6157227-3.2998047,7.1069336-6.7354736,10.6538086-10.1104736.2871094-.2729492.5834961-.5358887.8710938-.8076172,1.7724609-1.6734619,3.6860352-3.2233887,5.2827148-5.0505371,2.6220703-3.0001221,5.0493164-6.1711426,7.5356445-9.2885742,1.2172852-1.526123,2.4863281-3.026001,3.5498047-4.6567383,2.6777344-4.1049805,5.0961914-8.3867188,7.9140625-12.3891602,2.3447266-3.3294678,4.3979492-6.8197021,6.2998047-10.3833008,2.5869141-4.8470459,4.9658203-9.8110352,7.019043-14.9211426,2.4155273-6.0126953,4.9814453-11.9672852,7.2822266-18.0229492,1.5288086-4.0244141,2.737793-8.1723633,4.0341797-12.2824707,1.3027344-4.1286621,2.2685547-8.3314209,2.7504883-12.6479492.1357422-1.2145996.6430664-2.3876953.9799805-3.5799561.3964844.5157471.4013672.9779053.3955078,1.4400635-.027832,2.1118164-.2856445,4.2172852-.3823242,6.3125-.2299805,4.9824219-.1206055,9.9833984-.0483398,14.9753418.0317383,2.1838379.1831055,4.3823242.5014648,6.5415039.5170898,3.5090332,1.2666016,6.9832764,1.8242188,10.4870605.6069336,3.8154297,1.6269531,7.5200195,2.7373047,11.2092285.8242188,2.7368164,1.684082,5.4521484,2.972168,8.019043,2.0883789,4.1602783,4.050293,8.3864746,6.2294922,12.4978027,1.4155273,2.6699219,3.2021484,5.140625,4.6791992,7.7810059,1.9536133,3.4925537,4.3232422,6.6750488,7.0117188,9.6047363,2.3017578,2.5085449,4.7929688,4.8436279,7.2041016,7.2518311.2231445.2232666.4521484.5709229.7128906.6053467,1.4033203.1862793,2.0419922,1.3760986,2.9902344,2.1583252.6005859.4951172,1.2128906.9776611,1.84375,1.4329834,1.7045898,1.230957,3.4360352,2.4255371,5.1318359,3.6680908,4.2714844,3.1290283,8.7275391,5.9674072,13.3535156,8.5408936.4619141.2568359.9003906.5546875,1.3085938.8078613-.1162109,2.65625.3305664,5.0899658.8720703,7.539917,1.328125,6.0089111,4.1962891,11.164917,8.4350586,15.552002,2.1328125,2.2076416,4.4038086,4.2945557,6.7329102,6.2960205,2.4296875,2.0881348,4.9311523,4.1091309,7.53125,5.9785156,4.5507812,3.2717285,9.3144531,6.2329102,13.6293945,9.8510742,3.456543,2.8989258,6.7075195,5.9746094,9.0991211,9.7871094,1.4672852,2.3383789,2.8881836,4.8237305,2.7045898,7.8144531-.0307617.5024414.2822266,1.026123.3857422,1.3712158-.1679688.7017822-.3886719,1.2219238-.4013672,1.7470703-.0595703,2.4569092-.8896484,4.6641846-1.8613281,6.8931885-1.4311523,3.2836914-3.6835938,5.9680176-5.9804688,8.5949707-3.6289062,4.1499023-7.3857422,8.1923828-11.2001953,12.1734619-2.34375,2.4459229-4.6030273,4.9588623-6.5996094,7.6810303-2.7983398,3.81604-5.5600586,7.7299805-6.9550781,12.2885742-.7426758,2.4257812-1.5571289,4.8994141-.8515625,7.7062988.7963867,3.1662598,2.3974609,5.5177002,4.9257812,7.3771973,2.965332,2.1810303,6.3364258,3.576416,9.7885742,4.7160645,3.3623047,1.1098633,6.8422852,1.8591309,10.2124023,2.947998,3.8911133,1.2574463,7.6791992,2.8057861,11.4052734,4.5068359,3.5615234,1.6262207,6.9956055,3.5083008,9.8544922,6.1641846,5.0742188,4.7145996,8.0551758,10.4200439,7.7412109,17.6075439-.1342773,3.0649414-1.0415039,5.7397461-2.6508789,8.3037109-1.7216797,2.7419434-3.7880859,5.1618652-6.0429688,7.4689941-4.3618164,4.4638672-9.1171875,8.541748-13.0512695,13.4272461-2.8383789,3.5249023-5.4711914,7.1713867-7.0883789,11.4311523-.6811523,1.793457-1.4477539,3.6589355-1.5771484,5.5332031-.1928711,2.7963867-.2260742,5.6083984.2783203,8.4553223.7631836,4.3081055,2.2036133,8.3476562,3.9736328,12.2849121,1.0195312,2.2685547,2.5585938,4.2514648,4.0283203,6.2753906,1.3803711,1.9006348,3.1049805,3.3041992,5.015625,4.5085449,3.3520508,2.1130371,7.1352539,2.0983887,10.9047852,1.8430176.784668-.0532227,1.5371094-.5788574,2.4018555-.9257812-.3110352-.34375-.456543-.6538086-.6206055-.6638184-2.1157227-.1276855-4.2338867-.2126465-6.2172852-.3022461-3.4790039-1.3378906-5.7651367-3.7763672-7.6435547-6.7915039-1.652832-2.6530762-2.9145508-5.4399414-3.9638672-8.3666992-1.2568359-3.5056152-2.0371094-7.1210938-2.5039062-10.7883301-.2446289-1.9216309-.0698242-3.8818359.3427734-5.8393555.512207-2.4301758,1.1181641-4.8129883,2.1738281-7.0490723,2.4238281-5.1369629,5.9238281-9.5354004,9.824707-13.5935059,2.7856445-2.8977051,5.8144531-5.5625,8.7397461-8.3259277,2.4638672-2.3278809,4.5952148-4.9223633,6.3681641-7.8161621,2.7719727-4.5235596,3.7080078-9.3583984,2.2485352-14.4954834-2.109375-7.4241943-6.7407227-12.9447021-13.3618164-16.7580566-5.5800781-3.2137451-11.4711914-5.7613525-17.6645508-7.5892334-4.4316406-1.3078613-8.9306641-2.4084473-13.1914062-4.255127-2.4462891-1.0603027-4.7353516-2.3173828-6.6777344-4.2070312-1.2875977-1.2531738-1.8115234-2.8842773-2.4829102-4.0825195-.7666016-4.5925293.5537109-8.4411621,2.4462891-12.206543,2.7587891-5.4887695,6.4985352-10.2580566,10.5732422-14.7930908.9526367-1.0601807,2.027832-2.0097656,2.9848633-3.06604,2.5327148-2.7954102,4.9916992-5.657959,7.5541992-8.4249268,2.6098633-2.8175049,5.2192383-5.6234131,7.0986328-9.0102539,1.6699219-3.0089111,2.8837891-6.159668,2.9199219-9.6595459.0136719-1.3251953-.0942383-2.6185303-.3925781-3.9416504-.5322266-2.3620605-1.1484375-4.6547852-2.5908203-6.6324463-1.3764648-1.8878174-2.7060547-3.8250732-4.2416992-5.5782471-2.7553711-3.1467285-6.0478516-5.7294922-9.3613281-8.251709-3.7797852-2.8771973-7.7719727-5.4602051-11.5654297-8.3334961-4.0307617-3.0534668-7.8774414-6.2833252-11.2260742-10.0446777-1.7983398-2.0203857-3.3325195-4.3210449-4.7128906-6.6564941-1.5361328-2.598877-2.3759766-5.5065918-3.0058594-8.4730225-.2578125-1.2130127-.6313477-2.3702393-.2695312-3.708374.4790039.1196289.8579102.1748047,1.2070312.3078613,1.4423828.5490723,2.8608398,1.1616211,4.3139648,1.6784668,5.8374023,2.0758057,11.7788086,3.6502686,17.9702148,4.3591309,3.4174805.3913574,6.8076172.9145508,10.2573242.8579102.6342773-.010498,1.2685547-.0144043,1.9023438-.0012207,4.0092773.0827637,7.8979492-.649292,11.6674805-1.9276123,4.5214844-1.5330811,8.7719727-3.5526123,12.1982422-7.052124,3.8535156-3.9360352,5.4580078-8.8183594,4.0654297-14.8210449-1.3085938-5.6401367-4.3813477-10.0308838-9.1386719-13.2937012-3.9936523-2.7387695-8.5166016-4.1967773-13.2207031-4.6193848-4.5869141-.4121094-9.2104492-.1893311-13.8222656.7279053-4.753418.9454346-9.2617188,2.4949951-13.5668945,4.5689697-4.5092773,2.1723633-8.7075195,4.9135742-12.1464844,8.6484375-1.2768555,1.3864746-2.5644531,2.7667236-3.7739258,4.2108154-2.1479492,2.5638428-3.4638672,5.5777588-4.5107422,8.8636475-2.0537109-1.3195801-4.015625-2.5766602-5.9746094-3.8388672-8.2045898-5.286377-15.875-11.2241211-22.4648438-18.4718018-1.2148438-1.3360596-2.4501953-2.6674805-3.5283203-4.1112061-3.7714844-5.0501709-6.828125-10.5388184-9.6630859-16.1523438-.871582-1.7248535-1.5541992-3.5465088-2.4511719-5.2568359-1.5493164-2.9550781-2.5737305-6.1120605-3.7001953-9.229126-1.3603516-3.7659912-2.4438477-7.6209717-3.2939453-11.53125-.5908203-2.71875-1.0009766-5.4769287-1.4873047-8.2183838-.2026367-1.1425781-.3935547-2.2871094-.5888672-3.4306641-.456543-2.670166-1.2099609-5.2861328-1.3320312-8.0184326-.0698242-1.5543213-.159668-3.137085-.5146484-4.6424561-.5224609-2.213501-.6655273-4.4667969-.8027344-6.6988525-.1948242-3.1568604-.0498047-6.3345947-.0498047-9.5046387,1.722168-1.8895264,2.6396484-4.0509033,2.40625-6.630127-.0581055-.6403809-.0595703-1.2852783.6762695-1.6622314.8754883.3858643,1.9355469.6048584,2.6552734,1.2211914,1.5600586,1.3365479,3.0473633,2.7896729,4.3837891,4.3497314,3.453125,4.0311279,6.1938477,8.5626221,8.847168,13.1380615,1.6708984,2.8814697,3.2158203,5.8358154,4.8232422,8.7543945,2.6557617,4.8225098,5.309082,9.6466064,7.9790039,14.4611816.8266602,1.4899902,1.659668,2.9793701,2.5673828,4.4199219,1.8681641,2.9641113,3.9418945,5.7824707,6.0185547,8.6065674,2.652832,3.6079102,5.5825195,6.9630127,8.609375,10.2397461,1.112793,1.2044678,2.4238281,2.2349854,3.6982422,3.2789307,2.2905273,1.8759766,4.6210938,3.6870117,7.2231445,5.1474609,4.4052734,2.4719238,9.222168,3.5244141,14.1313477,4.2092285,2.9741211.4147949,5.9824219-.0356445,8.9038086-.5405273,3.246582-.5610352,6.4482422-1.451416,9.5200195-2.7280273,3.6899414-1.5339355,7.2729492-3.2319336,10.0527344-6.2192383,1.121582-1.2050781,2.2109375-2.4436035,3.2563477-3.7148438,2.2324219-2.7138672,4.1337891-5.6193848,5.0751953-9.064209.3447266-1.2608643.7973633-2.4929199,1.1196289-3.7589111.7407227-2.9088135,1.7426758-5.7965088,2.0649414-8.755249.4316406-3.9611816.3183594-7.9692383-1.105957-11.8234863-1.1015625-2.9813232-2.3696289-5.8588867-3.9936523-8.6070557-1.777832-3.0091553-4.1860352-5.4959717-6.5756836-7.9345703-2.2714844-2.3183594-5.0654297-4.1246338-7.1069336-5.7420654-2.4399414-3.9217529-3.3632812-7.9506836-5.8647461-11.1794434-1.5317383-1.977417-3.1210938-3.9277344-4.8588867-5.7219238-1.1835938-1.2225342-2.7602539-2.0571289-3.9970703-3.2373047-2.0654297-1.9705811-4.5141602-3.3040771-6.9873047-4.6345215-3.6337891-1.9550781-7.5234375-3.2319336-11.5014648-4.2061768-2.8500977-.697876-5.6811523-1.5823975-8.6855469-1.5096436-1.3129883.0317383-2.6508789.2214355-3.9526367-.3509521-.4477539-.1968994-1.0864258-.0212402-1.6259766.0628662-1.6035156.2498779-3.1914062.6513672-4.8032227.788208-2.9516602.2504883-5.8500977.819458-8.6518555,1.6829834-6.1904297,1.9074707-12.1889648,4.3537598-18.1337891,6.9226074-3.543457,1.53125-7.0444336,3.171875-10.6445312,4.5537109-1.3842773.53125-2.7939453,1.3764648-4.4902344,1.1000977-.5195312-.6999512-1.0302734-1.3874512-1.5400391-2.0744629-3.1767578-2.2481689-5.5351562-1.3945312-7.3608398,2.5200195-4.5161133-1.487793-9.0361328-2.9790039-13.5571289-4.465332-4.4824219-1.4736328-9.0478516-2.5336914-13.7397461-3.1495361-1.7143555-.2249756-3.4711914-.1260986-5.1142578-.5108643-1.5732422-.3686523-3.1118164-.251709-4.6625977-.380127-1.5522461-.128418-3.1010742-.3818359-4.6542969-.4069824-3.359375-.0544434-6.6782227.5596924-10.0126953.7807617-2.9916992.1984863-5.8183594.9819336-8.640625,1.7243652-3.3657227.8852539-6.527832,2.4765625-9.5175781,4.2519531-2.5439453,1.5107422-5.0576172,3.2122803-6.9726562,5.5061035-2.2875977,2.7397461-4.3369141,5.6787109-6.5717773,8.640625-1.1533203.4891357-2.4663086.9698486-3.7104492,1.5877686-3.484375,1.7298584-6.7583008,3.8043213-9.9443359,6.0406494-3.0083008,2.1118164-6.0058594,4.2236328-8.6494141,6.7910156-1.2509766,1.2144775-2.4667969,2.4649658-3.7070312,3.6901855-3.9267578,3.8786621-7.0424805,8.324707-9.4824219,13.2752686-2.1992188,4.4614258-2.9785156,9.255249-3.4389648,14.1166992-.1762695,1.8594971.0395508,3.7288818.3613281,5.6068115.5244141,3.0606689,1.5561523,5.8632812,3.565918,8.2006836,4.9013672,5.701416,11.015625,9.6264648,18.1152344,12.0593262,2.5678711.880127,5.1499023,1.5810547,7.8691406,1.9204102,1.8276367.2282715,3.6347656.8795166,5.4936523.8280029,1.918457-.0531006,3.7958984.6606445,5.753418.09729.9580078-.2756348,2.0717773.0400391,3.0727539-.1431885,1.9672852-.3602295,3.8881836-.9884033,5.859375-1.3162842,4.8208008-.8017578,9.46875-2.2365723,13.9487305-4.0938721,7.4916992-3.1060791,14.1474609-7.585083,19.9541016-13.2545166,2.59375-2.5324707,5.0698242-5.1950684,7.4692383-7.9136963,1.8037109-2.0440674,3.465332-4.2236328,5.0712891-6.4295654,1.8300781-2.5144043,3.5634766-5.1018066,5.2734375-7.7006836,1.6210938-2.4643555,3.1943359-4.9624023,4.71875-7.487793,1.0834961-1.7946777,2.0400391-3.6658936,3.0732422-5.4916992,1.7954102-3.1727295,3.6743164-6.3001709,5.3935547-9.5134277,2.2753906-4.2529297,5.1479492-8.0761719,8.1132812-12.0330811.5097656.7056885.9086914,1.2576904,1.1870117,1.6427002-.4545898,1.5778809-.8198242,3.0664062-1.3110352,4.512207-1.7587891,5.1755371-3.5488281,10.3424072-4.9545898,15.6269531-.7006836,2.6330566-1.987793,5.0142822-2.9433594,7.5310059-1.8413086,4.8469238-3.871582,9.6079102-6.1069336,14.27771-1.7114258,3.5750732-3.6323242,7.0493164-5.4135742,10.5917969-1.0429688,2.0740967-1.9208984,4.2330322-3.0043945,6.2843018-1.5625,2.958374-3.2070312,5.8752441-4.8857422,8.7697754-1.6391602,2.8265381-3.2631836,5.6708984-5.074707,8.387207-3.8935547,5.8400879-8.1757812,11.4061279-12.2763672,17.100708-3.0234375,4.1986084-6.296875,8.2012939-9.7910156,11.9815674-5.4018555,5.8447266-11.0478516,11.4772949-17.5146484,16.1896973-2.1401367,1.5593262-4.3203125,3.0653076-6.5175781,4.5437012-.5541992.3731689-1.2436523.5463867-1.887207.8183594-.7021484-1.7319336-1.284668-3.3210449-1.9824219-4.8581543-1.6455078-3.6265869-3.7709961-6.972168-6.2866211-10.0480957-2.0878906-2.5524902-4.3535156-4.9729004-6.9926758-6.9594727-4.9819336-3.7502441-10.7558594-5.3421631-16.8833008-5.8342285-1.3300781-.1066895-2.6357422.2740479-3.9384766.3613281-2.7905273.1870117-5.262207,1.182251-7.7255859,2.3371582-2.1210938.994873-3.6518555,2.690918-5.2373047,4.3237305-1.6123047,1.6606445-2.453125,3.725708-3.1577148,5.892334-.7036133,2.1633301-.4838867,4.3613281-.4228516,6.5458984.0336914,1.2224121.2021484,2.5119629.6435547,3.640625,2.6513672,6.7745361,7.4853516,11.3916016,14.2749023,13.927002,3.5917969,1.3413086,7.3017578,2.0582275,11.1821289,1.9467773,2.6625977-.076416,5.2714844-.2712402,7.8818359-.8686523,4.4560547-1.0201416,8.7993164-2.3168945,12.9145508-4.3320312.2446289-.1196289.5986328-.0153809.9936523-.0153809.1113281,1.1140137.2529297,2.1860352.3144531,3.2626953.0473633.8259277.0097656,1.6584473-.0209961,2.4869385-.0175781.46521-.144043.9281006-.1430664,1.3919678.0068359,2.513916-.6762695,4.8916016-1.3461914,7.2822266-1.1293945,4.0286865-3.3398438,7.4992676-5.7368164,10.8237305-3.7709961,5.2299805-8.2441406,9.8762207-12.6191406,14.598877-3.1552734,3.4055176-6.2495117,6.8675537-9.3432617,10.3289795-.8325195.9315186-1.6274414,1.9101562-2.3305664,2.9415283-1.7924805,2.6296387-3.5751953,5.2687988-5.2661133,7.9644775-1.9448242,3.1019287-3.2050781,6.5040283-4.3457031,9.9810791-.9296875,2.8339844-.9360352,5.6878662-.9106445,8.5808105.0327148,3.7642822,1.5849609,6.8967285,4.0039062,9.6845703,2.6450195,3.048584,6.1928711,4.7106934,9.7983398,6.1533203,4.8139648,1.9262695,9.6357422,3.802002,14.2416992,6.208252,2.8696289,1.4992676,5.519043,3.3311768,7.6733398,5.6881104,2.1938477,2.3995361,3.9667969,5.1783447,5.0356445,8.3067627.9038086,2.6439209,1.7001953,5.3195801,1.6171875,8.1677246-.0322266,1.1086426-.0629883,2.2226562.0068359,3.3278809.2387695,3.7832031-1.0405273,7.2607422-2.6396484,10.4941406-2.6850586,5.4290771-6.9125977,9.6208496-11.8608398,13.0991211-2.9936523,2.1044922-6.081543,4.0419922-9.2407227,5.890625-5.3618164,3.137207-10.6479492,6.4040527-15.9506836,9.6418457-3.2578125,1.9892578-6.3769531,4.1811523-9.3837891,6.5371094-1.9746094,1.546875-3.8818359,3.1738281-5.8217773,4.7553711-3.2626953,2.6591797-6.0327148,5.703125-8.3769531,9.1640625-.5205078.7685547-1.0649414,1.5581055-1.3881836,2.4172363-1.5673828,4.1691895-2.6020508,8.4560547-2.4042969,12.9521484.0820312,1.8703613.2758789,3.7363281.4423828,5.6020508.1591797,1.7880859.1479492,3.6223145.5693359,5.3491211.7456055,3.0583496,1.5058594,6.1108398,2.703125,9.0632324,1.7705078,4.3654785,4.2617188,8.1552734,7.8251953,11.2150879,1.1743164,1.0085449,2.519043,1.7670898,4.043457,2.2304688,1.2988281.3950195,2.3955078.3203125,3.5048828-.7141113-.4780273-.6838379-1.1142578-1.0546875-1.7392578-1.5222168-.9711914-.7265625-1.9853516-1.3654785-2.7924805-2.4238281-1.6733398-2.1962891-2.9638672-4.5317383-4.0019531-7.065918-2.1054688-5.140625-3.262207-10.4753418-3.4902344-16.0183105-.0229492-.5529785.0830078-1.1381836-.0620117-1.6550293-1.0302734-3.6777344-.3500977-7.3835449.2573242-10.9499512.8769531-5.1462402,3.4165039-9.5908203,7.2602539-13.2756348Zm207.7485352-205.1975098c1.9785156-4.5717773,4.7167969-8.6901855,8.550293-11.8775635,3.9453125-3.2803955,8.3374023-5.8763428,13.1459961-7.8322754,2.9619141-1.2047119,6.0146484-2.1072998,9.0800781-2.6026611,3.0107422-.4865723,6.1708984-1.3273926,9.2768555-.1802979,5.2255859.4348145,9.4853516,2.935791,13.0239258,6.5698242,2.7841797,2.8597412,4.8095703,6.2523193,5.284668,10.3995361.1040039.9077148.4882812,1.7999268.3276367,2.7401123-.15625.9127197-.3828125,1.8135986-.3833008,2.7801514-.8168945,1.4949951-1.6201172,2.9978027-2.4541016,4.4832764-1.1513672,2.050415-3.0795898,3.2491455-4.9458008,4.5395508-3.3051758,2.2850342-6.9858398,3.7845459-10.8725586,4.4335938-3.3354492.5570068-6.7700195,1.3612061-10.2045898.2947998-.3637695-.112793-.7875977-.0358887-1.1835938-.0379639-2.1889648-.0108643-4.3017578-.595459-6.4462891-.8612061-5.1845703-.6428223-10.0683594-2.2800293-14.9667969-3.9267578-1.0205078-.3430176-2.0439453-.6914062-3.0283203-1.1237793-1.7666016-.7764893-3.5043945-1.6186523-5.3701172-2.4870605.1269531-1.7966309.4375-3.6274414,1.1660156-5.3112793Zm33.4785156-94.7819824c.1445312-1.1276855-.1826172-2.3156738-.2939453-3.4763184-.0371094-.3879395-.0712891-.776123-.1079102-1.1640625-.1000977-1.065918-.2011719-2.1318359-.3178711-3.3637695.9140625.5629883,1.925293.973877,2.6591797,1.6750488,2.8989258,2.7700195,5.9477539,5.4093018,8.1523438,8.8295898,1.8637695,2.8913574,3.1391602,5.9708252,3.8754883,9.3675537.565918,2.6114502.4331055,5.1821289.2666016,7.7423096-.1328125,2.0466309-.7871094,4.0765381-1.3520508,6.0737305-.7338867,2.5930176-1.5537109,5.1467285-2.746582,7.6013184-1.7314453,3.5627441-4.3891602,6.3200684-7.3046875,8.8135986-2.0522461,1.7554932-4.3110352,3.2835693-6.6870117,4.6625977-3.1123047,1.8066406-6.4414062,3.0721436-9.815918,4.0460205-3.4746094,1.0031738-7.0966797,1.784668-10.7993164,1.5339355-5.3198242-.3602295-10.3022461-1.7197266-14.9760742-4.4318848-4.1489258-2.4072266-7.6264648-5.5466309-10.7460938-9.0686035-2.6289062-2.9676514-4.8417969-6.2996826-7.3237305-9.4023438-2.8364258-3.5449219-4.8466797-7.574585-7.0209961-11.5153809-2.84375-5.1542969-5.7280273-10.2866211-8.6123047-15.4187012-2.0493164-3.6472168-4.0517578-7.3240967-6.2133789-10.9042969-2.2651367-3.7519531-5.0800781-7.1069336-7.7719727-10.6777344,1.7456055.5500488,3.5307617,1.0001221,5.2260742,1.6766357,1.9365234.7729492,3.8012695,1.7304688,5.6821289,2.6386719,2.1923828,1.0584717,4.0805664,2.5665283,5.9331055,4.1170654,6.3222656,5.2910156,11.7504883,11.5014648,17.6625977,17.2143555,3.1142578,3.0090332,6.6142578,5.4533691,10.2670898,7.7392578,3.0449219,1.9055176,6.3291016,3.284668,9.6767578,4.4570312,2.6054688.9128418,5.3320312,1.4663086,8.1206055,1.828125,2.215332.2875977,4.324707-.0583496,6.4536133-.2080078,1.7285156-.121582,3.4443359-.7774658,5.109375-1.3571777,2.730957-.9506836,5.222168-2.2902832,7.3334961-4.3742676,1.777832-1.7548828,2.9145508-3.826416,3.8100586-6.0794678,1.0932617-2.75,1.4892578-5.6715088,1.8613281-8.5748291Zm-2.8076172.5466309c-.4882812,4.1962891-1.9174805,7.9891357-5.3095703,10.8088379-1.3876953,1.1529541-2.8779297,2.0214844-4.5615234,2.7182617-4.4052734,1.8227539-9.0009766,1.9976807-13.5898438,1.5710449-3.1225586-.2904053-6.1635742-1.2966309-9.0498047-2.6552734-4.4892578-2.1135254-8.9931641-4.1933594-12.9750977-7.2124023-1.3046875-.9890137-2.6191406-1.9702148-3.8618164-3.0334473-4.6699219-3.9953613-9.1040039-8.2445068-13.5429688-12.4936523-2.1928711-2.0993652-4.6782227-3.90271-7.097168-5.7536621-2.9204102-2.2348633-6.2729492-3.6582031-9.7041016-4.907959-.5048828-.1837158-.9916992-.4158936-1.6791992-.7072754,1.5800781-.256958,2.9628906-.567627,4.3618164-.6945801,6.6806641-.6062012,13.3813477-.5078125,20.0786133-.4819336,2.6328125.90271,5.4609375-.0239258,8.1064453.8671875.5.168457,1.1025391.0128174,1.6542969.0505371,3.3271484.2277832,6.6088867.7468262,9.9008789,1.2923584,2.8217773.4675293,5.6210938,1.0283203,8.4233398,1.5769043,3.4750977.6802979,6.9423828,1.4058838,10.3969727,2.1848145,2.3242188.5241699,4.6708984,1.0270996,6.9165039,1.8040771,3.1318359,1.0839844,6.1782227,2.4147949,9.2397461,3.6315918,1.8041992,3.8713379,2.7441406,7.5474854,2.2924805,11.4345703Zm-80.5283203-27.5738525c1.9902344-.8365479,4.0341797-1.5545654,5.9833984-2.475708,3.9306641-1.8574219,8.1152344-2.9694824,12.2612305-4.1392822,2.8100586-.7928467,5.7792969-1.0134277,8.6694336-1.5343018,3.3115234-.5966797,6.6464844-.8270264,10.0058594-.9958496,3.4116211-.1716309,6.6928711.4951172,9.9887695,1.067749,2.6484375.460083,5.2802734,1.0987549,7.855957,1.8690186,4.6186523,1.3811035,9.0297852,3.3310547,12.7807617,6.3791504,3.1108398,2.5283203,5.8271484,5.5007324,7.8837891,9.0170898.5805664.9931641,1.4907227,1.8063965,1.300293,3.0998535.0117188.0036621.0239258.0068359.0356445.0106201.0166016.0306396.0322266.0606689.0463867.0874023l.0004883.0001221c0-.0001221-.0004883-.0001221-.0004883-.0002441.1347656.0717773.0878906.0471191.0004883.0002441.0087891.0168457.0097656.0187988.0161133.0302734.0283203.0532227.0351562.0664062,0,0-.0058594-.010498-.0097656-.0178223-.0166016-.0303955-.0263672-.0140381-.0556641-.0299072-.0859375-.0460205.0029297-.0181885.0009766-.0340576.0039062-.052002-1.0083008-.3200684-2.0654297-.5361328-3.0107422-.9874268-3.9926758-1.9056396-8.2612305-2.9815674-12.4980469-4.0955811-3.3515625-.8811035-6.8120117-1.3435059-10.2163086-2.0307617-1.9609375-.3959961-3.902832-.887207-5.8603516-1.3007812-1.0566406-.2233887-2.1225586-.4597168-3.1958008-.5405273-3.1850586-.2402344-6.355957-.7025146-9.5048828-1.1313477-2.5478516-.3470459-5.1669922.1186523-7.6518555-.7589111-.4243164-.1499023-.9438477-.0362549-1.4189453-.0360107-3.6445312.0014648-7.3076172-.2191162-10.9282227.0756836-3.1381836.2553711-6.2871094.1462402-9.3994141.4708252-2.6206055.2733154-5.2045898.9144287-7.8662109.8590088-.3730469-.0078125-.7451172-.0634766-1.4199219-.1241455,2.2832031-.9849854,4.2553711-1.8529053,6.2412109-2.6877441Zm-106.3916016,24.8624268c1.6650391-3.4161377,3.1630859-6.9187012,5.6318359-10.1599121,3.5161133-1.5628662,7.1582031-2.78125,10.8642578-3.8717041,3.6235352-1.0662842,7.3251953-1.7774658,10.9765625-2.7064209,2.2421875-.5703125,4.6030273-.65625,6.8867188-1.0871582,2.6831055-.5063477,5.402832-.6647949,8.0913086-1.0262451,2.519043-.3387451,5.0092773-.2696533,7.5117188-.3621826,4.637207-.1713867,9.2788086-.4570312,13.9135742-.3859863,2.4580078.0375977,4.9638672.194458,7.4003906.7949219.75.1850586,1.5795898.0241699,2.3676758.0855713,2.2402344.1744385,4.4780273.3817139,6.9882812.5994873-.9887695.6945801-1.7319336,1.2502441-2.5078125,1.7553711-3.7705078,2.4558105-7.0810547,5.4072266-9.8354492,8.9799805-.4794922.6220703-1.0751953,1.1662598-1.6708984,1.6846924-2.0664062,1.7979736-4.1381836,3.5909424-6.2436523,5.3421631-1.5615234,1.2983398-3.1123047,2.6263428-4.7841797,3.7709961-4.734375,3.2414551-9.4057617,6.5700684-14.4941406,9.2836914-4.987793,2.6600342-10.1767578,4.791626-15.5454102,6.4799805-3.4511719,1.0854492-7.0488281,1.3557129-10.6586914,1.0627441-1.3007812-.1054688-2.5991211-.3764648-3.8710938-.684082-5.059082-1.2232666-8.3579102-4.7203369-10.9672852-8.9050293-2.1518555-3.4509277-1.7963867-7.0742188-.0537109-10.6508789Zm81.918457-14.8049316c-4.1064453,3.9619141-6.9858398,8.7543945-9.4521484,13.8361816-4.2827148,8.8242188-9.3696289,17.1835938-14.9794922,25.2088623-1.9624023,2.8074951-3.9501953,5.6442871-6.4155273,8.0911865-1.9550781,1.9401855-3.690918,4.1030273-5.6728516,6.0126953-4.230957,4.0766602-8.7021484,7.9122314-13.8046875,10.8410645-3.8833008,2.2287598-7.9755859,4.0888672-12.3193359,5.3702393-4.0795898,1.2033691-8.2045898,2.118042-12.3857422,2.8741455-2.6933594.4873047-5.3671875.8601074-8.109375.9293213-2.769043.0698242-5.4243164-.5865479-8.0947266-1.0533447-3.421875-.5979004-6.7978516-1.5661621-9.8271484-3.328125-2.7646484-1.6079102-5.5429688-3.2451172-7.7158203-5.6801758-2.7915039-3.1281738-4.355957-6.7490234-4.4951172-10.9699707-.1450195-4.3996582.4707031-8.6829834,1.7402344-12.895874,1.3178711-4.3729248,3.6025391-8.2319336,6.2612305-11.8746338,2.1318359-2.9206543,4.425293-5.7373047,7.1650391-8.1193848,2.7138672-2.3596191,5.4902344-4.6541748,8.331543-6.8588867,1.8330078-1.4226074,3.8320312-2.6320801,6.0634766-4.1452637-.7753906,2.5047607-1.3701172,4.5666504-2.0561523,6.5977783-.546875,1.619751-.2768555,3.163208-.0673828,4.8131104.3417969,2.6914062,1.296875,5.0900879,2.5668945,7.4069824.5571289,1.0169678,1.1787109,2.0283203,1.9331055,2.9023438,2.8852539,3.3422852,5.9335938,6.5097656,10.4052734,7.7032471,1.2636719.3372803,2.5693359.5257568,3.8618164.7443848,1.0678711.1807861,2.1411133.3782959,3.2192383.4425049,5.0537109.3009033,9.890625-.8106689,14.5952148-2.4936523,5.5488281-1.9851074,10.9125977-4.4077148,15.934082-7.5147705,1.5180664-.9394531,2.9453125-2.0477295,4.3208008-3.1915283,1.7529297-1.4580078,3.4272461-3.0124512,5.1049805-4.5581055,2.2021484-2.0285645,4.4394531-4.0251465,6.5449219-6.151123,3.2202148-3.2519531,6.2167969-6.7348633,9.5458984-9.8677979,2.425293-2.2825928,5.2329102-4.1585693,8.2041016-5.9610596-.1303711.300415-.1850586.6796875-.4023438.8896484Zm1.1054688-1.1517334c-.0581055-.0048828-.1083984-.098877-.1621094-.1539307.0595703-.0512695.1220703-.1452637.1787109-.1418457.0561523.0036621.1069336.1047363.159668.1630859-.059082.0479736-.121582.137207-.1762695.1326904Zm-.234375-3.7697754c-1.9648438-.4807129-3.9711914-.6483154-5.9560547-.9632568-3.2158203-.510376-6.5053711-.4604492-9.6689453-1.3184814-.074707-.0201416-.1586914-.0012207-.2368164-.0123291-2.71875-.3852539-12.515625-.862793-15.0957031-.4012451-2.0415039.3652344-4.0576172.3502197-6.0874023.3480225-3.7631836-.0041504-7.472168.4871826-11.2055664.8583984-3.5708008.3552246-7.0566406,1.1147461-10.5820312,1.6474609-3.5634766.5385742-7.0439453,1.6275635-10.5576172,2.4863281-.887207.2166748-1.7636719.4748535-2.6450195.7139893,3.375-3.9733887,7.6625977-6.5744629,12.3774414-8.5716553,2.925293-1.2393799,5.9848633-2.0024414,9.050293-2.7277832,1.5791016-.3736572,3.2407227-.3945312,4.862793-.5960693,3.6757812-.456543,7.3671875-.5770264,11.0629883-.4306641,1.5527344.0614014,3.0986328.2869873,4.6479492.4287109,1.4711914.1345215,2.9458008.2132568,4.4160156.3748779,3.171875.3486328,6.2709961,1.0186768,9.3955078,1.5737305,1.4335938.2546387,2.8422852.6843262,4.2368164,1.1165771,3.5268555,1.0928955,7.0380859,2.2347412,10.5571289,3.3510742.8061523.2557373,1.6269531.4671631,2.4277344.7384033.5532227.1875.9848633.508667.7714844,1.4053955-.5644531,0-1.1992188.1184082-1.7709961-.0214844Zm1.0288086,3.2489014v-.2243652h1.2607422v.2243652h-1.2607422Zm5.0556641-7.581665c.84375-.5794678,1.6923828-1.1351318,2.8798828-.706665,1.1430664,1.1413574,1.0507812,2.5432129.6083984,4.180542.4169922,1.0438232,1.2817383,2.1552734.7822266,3.581665-.6289062,1.7952881-.8486328,3.8054199-2.7788086,5.0124512-1.7446289-.4318848-2.7739258-1.3747559-3.269043-2.9488525-.0097656-3.1330566-.5224609-6.3977051,1.7773438-9.1191406ZM49.9787628,163.5734231c-2.7763672-.0614014-5.4736328.9916992-8.3520508.1601562-1.6777344-.4844971-3.434082-.7385254-5.1337891-1.3017578-1.8984375-.6286621-3.5117188-1.7174072-5.0136719-2.8690186-3.8144531-2.9243164-6.7441406-6.729126-7.5708008-11.4781494-1.355957-7.7929688,2.0395508-15.2888184,10.4726562-18.0822754,2.9150391-.9656982,5.0834961-.817627,8.4589844.0922852,3.4282227.9238281,6.4423828,2.5623779,9.1679688,4.8469238,6.4399414,5.3970947,10.6655273,12.2348633,13.3461914,20.1088867.2705078.7950439.4550781,1.6193848.7255859,2.5942383-5.1303711,2.8183594-10.5927734,4.4360352-16.1010742,5.9287109Z" stroke-width="0"/>
  </g>
</svg>