<?xml version="1.0" encoding="UTF-8"?>
<svg id="b" data-name="Layer 2" xmlns="http://www.w3.org/2000/svg" width="331.245" height="493.648" viewBox="0 0 331.245 493.648">
  <g id="c" data-name="Layer 1">
    <g>
      <path d="m.686,389.97c-.006.187-.011.374-.009.56.02,1.287.025,2.575.03,3.863l.007,1.735c0,.109-.006.225-.015.341-.01.138-.027.369.007.435.289.575.274,1.155.262,1.667-.004.146-.008.293-.004.439.023.89.027,1.782.03,2.673l.006,1.118c0,.095-.006.196-.013.297-.008.105-.021.28,0,.332.309.651.291,1.326.276,1.92-.005.168-.009.335-.006.502.018.981.014,1.964.01,2.893l-.002.987.279.748v10.157c0,8.999,0,17.968.002,26.937,0,4.111.015,8.223.03,12.334l-.003.254c-.006.265-.013.538.056.703.186.441.19.864.195,1.238l.002.196c.01.388.008.778.006,1.148l-.002.316c.091.149.157.302.217.44.107.25.178.401.312.492l.607-.034.302-.625.002-.246c.003-.255.006-.513-.006-.772-.018-.389.082-.723.17-1.019l.061-.211c.086-.316.098-.671.025-.827-.287-.612-.27-1.227-.254-1.769.005-.164.01-.327.006-.491-.024-.982-.03-1.967-.035-2.951l-.01-1.496c-.002-.078.002-.161.006-.245.005-.111.013-.297-.01-.352-.282-.514-.263-1.032-.247-1.49.003-.105.007-.21.007-.314-.013-4.295-.017-8.59-.021-12.885l-.003-4.991v-.925s.308-.617.308-.617v-1.767c0-1.71-.002-3.471.002-5.233,0-.073-.003-.148-.006-.224-.011-.299-.025-.639.121-.933.138-.278.133-.579.128-.927-.002-.107-.003-.215,0-.324.017-.722.022-1.443.027-2.165l.01-1.12c0-.068-.005-.141-.01-.215-.017-.258-.037-.551.107-.805.195-.342.182-.724.167-1.166-.005-.124-.009-.249-.008-.372.008-3.489.005-6.979.002-10.468l-.002-2.855c0-.109.007-.224.016-.341.012-.158.028-.374-.008-.454-.303-.667-.282-1.321-.262-1.953.005-.157.01-.314.01-.471-.011-2.454-.01-4.909-.008-7.308l.002-2.483-.331-.676v-7.396c0-.113.009-.232.019-.352.012-.136.031-.364,0-.428-.296-.601-.277-1.208-.259-1.744.006-.174.011-.347.006-.519-.024-.755-.022-1.511-.019-2.266l.002-.709c0-5.101,0-10.201.005-15.302,0-.092-.006-.188-.01-.285-.017-.333-.037-.711.117-1.032.162-.341.154-.694.145-1.104l-.004-.307c.011-4.479.014-8.958.016-13.437l.002-13.575.265-.545v-2.002s0-6.398,0-6.398c0-.248-.042-.492-.139-.819-.126-.418-.112-.955.034-1.365.189-.524.132-.735.11-.788-.268-.645-.256-1.266-.243-1.866.002-.128.005-.257.005-.387-.019-5.539-.027-11.077-.035-16.616-.004-2.386-.002-4.772-.002-7.102l.034-3.255.275-.667v-.789s0-2.596,0-2.596c0-.069-.007-.144-.013-.22-.02-.253-.044-.54.09-.796.214-.408.199-.872.182-1.362-.006-.174-.011-.349-.007-.522.023-1.167.027-2.334.031-3.502l.01-1.756c0-.081-.005-.165-.009-.251-.015-.291-.033-.621.11-.907.142-.288.139-.598.135-.956v-.289c.007-.5.006-1.001.004-1.5v-.524s-.236-.487-.236-.487v-1.228c0-1.89,0-3.809.002-5.728l-.004-.133c-.008-.22-.019-.494.117-.726.134-.228.128-.5.119-.815l-.003-.232c.005-6.087.005-12.174,0-18.261v-.148c.003-.228.006-.487-.056-.626-.183-.409-.18-.797-.177-1.14v-.154c-.006-1.44-.006-2.88-.006-4.32v-1.439c0-.072-.007-.148-.013-.224-.02-.246-.044-.525.08-.78.215-.446.199-.942.181-1.466-.006-.199-.013-.399-.008-.596.031-1.333.033-2.667.034-4v-.103c.002-2.925.002-5.851.002-8.725v-3.534l-.265-.721v-2.537l.064-.105c.222-.365.203-.792.18-1.286-.008-.19-.016-.38-.011-.567.025-.916.03-1.833.035-2.749l.01-1.357c0-.065-.003-.133-.006-.203-.012-.257-.027-.55.113-.805.154-.281.149-.596.143-.96l-.002-.263c.006-1.165.006-2.332.005-3.462v-1.317s.287-.589.287-.589l.003-6.087c.005-4.601.01-9.202-.014-13.802-.003-.501.012-1.004.028-1.508.044-1.414.086-2.749-.264-4.068l-.019-.069.005-.072c.035-.548-.058-1.092-.157-1.667-.113-.659-.229-1.341-.151-2.063.006-.053.012-.117.01-.14-.298-.569-.294-1.208-.291-1.826.002-.226.003-.451-.014-.674-.006-.073-.008-.147-.01-.222-.006-.154-.012-.329-.051-.408-.216-.44-.203-.87-.19-1.249l.006-.225c.003-.888.02-1.776.038-2.665l.02-1.081.08-.111c.119-.167.12-.379.111-.709-.003-.103-.006-.205-.003-.306.013-.566.018-1.132.023-1.699l.012-1.094c0-.066-.004-.137-.008-.209-.015-.26-.032-.554.115-.809.173-.298.162-.635.151-1.026-.004-.118-.007-.235-.006-.352.015-1.579.021-3.159.027-4.738.004-1.107.009-2.214.016-3.321.002-.421.005-.814.137-1.244.193-.625.192-1.311-.002-1.982-.094-.322-.136-.611-.136-.91v-8.982l.245-.492-.002-11.676.003-.156c.002-.088.007-.234-.009-.28-.255-.462-.249-.944-.245-1.37.003-.236.006-.46-.038-.655-.135-.615-.26-1.283-.257-2.003.009-2.763.007-5.527.006-8.31v-3.078s.099-.122.099-.122c.184-.224.246-.49-.051-1.063l-.049-.095v-11.378c0-.087-.007-.179-.015-.272-.023-.287-.049-.611.09-.896.207-.422.197-.893.187-1.391-.005-.229-.009-.458.006-.686.01-.182,0-.372-.01-.561-.022-.396-.044-.805.092-1.19.204-.582.195-1.182.186-1.817-.004-.265-.008-.53.003-.796.022-.536.015-1.073.009-1.611l-.006-.671.002-.319c.003-.265.007-.53-.018-.791-.015-.154-.06-.298-.102-.444-.072-.245-.153-.521-.148-.853.023-1.805.019-3.613.015-5.42l-.008-2.487c-.01-.267-.023-.569.122-.83.144-.26.139-.555.132-.897-.002-.111-.004-.223-.002-.334.017-.744.023-1.49.028-2.236l.01-1.048c0-.07-.006-.146-.012-.223-.02-.255-.043-.544.099-.797.196-.349.183-.738.169-1.186-.006-.178-.011-.357-.005-.533.026-.698.028-1.398.031-2.097.002-.395.003-.789.009-1.182l-.003-.175c-.007-.264-.015-.564.126-.825.134-.248.13-.529.125-.854l-.002-.21c.014-3.235.027-6.468.014-9.703,0-.138.004-.277.01-.416.018-.485.033-.904-.188-1.269-.133-.221-.118-.472-.105-.675.004-.061.009-.123.006-.18-.026-.556-.061-1.1-.216-1.652-.136-.481-.119-.989-.104-1.479.006-.197.013-.394.008-.587-.289-.487-.274-.995-.259-1.446.004-.149.01-.298,0-.444-.023-.425-.027-.851-.031-1.277l-.005-.437c-.284-.537-.266-1.1-.249-1.6.006-.188.013-.376.002-.561-.023-.36-.023-.723-.023-1.086,0-.192,0-.385-.003-.577-.009-.43-.111-.851-.221-1.295-.054-.222-.108-.443-.151-.666-.055-.28-.195-.561-.341-.859-.058-.117-.116-.233-.169-.351-.084-.185-.17-.367-.261-.556-.015.066-.032.134-.048.201-.103.417-.199.812-.195,1.232.028,2.208.027,4.416.026,6.625v2.757s-.004.212-.004.212c-.005.133-.013.333.019.399.211.437.228.861.228,1.295l.002,10.364c0,.052.006.11.01.167.018.212.039.477-.097.705-.187.316-.175.681-.161,1.103.005.144.01.289.006.431-.018.918-.024,1.835-.031,2.752l-.015,1.687.003.178c.007.264.015.563-.126.824-.13.238-.128.509-.124.822v.246c-.013.735-.019,1.469-.025,2.203l-.011,1.249c0,.067.005.14.01.214.017.261.037.556-.112.81-.173.295-.162.63-.15,1.017.003.119.007.237.006.356-.022,2.027-.027,4.055-.029,6.082l-.006,13.654.003.216c.006.341.013.726-.123,1.069-.123.307-.133.611-.134.948-.002,1.161-.002,2.32-.002,3.443v1.137l.283.771v1.082c-.002.959-.002,1.914.003,2.87v.13c0,.161-.002.383.04.466.217.422.215.835.212,1.199v.11c.003,5.977.004,11.955.005,17.932,0,.07.006.144.011.219.017.242.037.516-.074.771-.276.634-.253,1.32-.228,2.047.007.227.015.453.014.677-.015,3.011-.008,6.023,0,9.035l.006,4.123c.002,3.574.002,7.148.002,10.699v4.634s-.308.631-.308.631v.869c0,1.017.002,2.092-.002,3.167,0,.073.004.152.007.23.013.299.028.639-.12.931-.151.296-.145.617-.14.987l.002.25c-.008,1.341-.005,2.681,0,4.022l.002,1.239c0,.09-.006.187-.014.285-.007.102-.02.272-.002.324.278.515.274,1.048.27,1.52-.002.185-.004.37.015.554.01.103.01.212.01.321,0,.099,0,.266.023.313.189.357.21.705.228,1.011.005.083.01.167.019.251.023.22.017.443.01.667-.013.404-.024.753.169,1.031l.075.108.016.622c.012.492.024.985.04,1.478,0,.026.003.1.01.125.274.383.261.86.25,1.243l-.005.217c.006,3.106.005,6.211.005,9.253l-.034,2.623-.263.638v2.056s0,6.418,0,6.418c0,.087.008.179.016.272.023.287.049.613-.093.898-.203.408-.19.864-.178,1.347.005.184.009.369.003.552-.023.759-.026,1.518-.028,2.278-.002.389-.003.778-.007,1.168,0,.065.003.133.006.203.013.258.027.551-.115.807-.153.277-.148.589-.143.951l.002.272c-.009.744-.007,1.487-.005,2.199v.936s-.279.572-.279.572l-.002,11.516c-.003.083-.008.223.006.267.266.446.253.913.244,1.324-.002.102-.006.203-.003.303.012.525.011,1.051.01,1.575v.572s0,1.976,0,1.976c0,.226-.006.453-.013.68-.015.492-.028.956.019,1.411.049.479-.048.914-.132,1.299-.063.285-.122.554-.123.819-.004,3.015-.005,6.031-.002,9.047l-.002.138c-.002.09-.006.241.01.288.251.429.242.872.234,1.261l-.003.216c.011,2.029.015,4.059.015,6.089l.002,11.68v3.719s.277.74.277.74v16.694c0,.104.008.213.017.323.025.32.052.683-.092.998-.211.458-.198.956-.184,1.482.005.199.01.397.004.595-.027.88-.029,1.76-.031,2.641l-.006,1.132c0,.074.006.153.012.23.019.237.04.505-.07.757-.25.581-.225,1.212-.199,1.88.009.228.018.457.016.684-.016,2.315-.015,4.629-.014,6.944l-.032,27.765c0,.104.01.215.019.326.026.32.056.682-.091.997-.211.454-.198.947-.183,1.469.003.144.007.287.006.429-.018,4.445-.025,8.889-.031,13.335l-.007,4.267c0,.123.01.252.02.381.026.343.055.732-.078,1.08-.218.571-.203,1.169-.186,1.802.006.207.011.415.008.622-.019,1.609-.015,3.219-.011,4.792l.002,1.951-.291.585h.012s-.004,25.991-.004,25.991c0,.078-.006.16-.012.243-.006.078-.016.196-.006.235.312.672.291,1.353.27,2.011Z" stroke-width="0"/>
      <polygon points=".213 361.423 0 361.468 0 361.468 .338 361.486 .213 361.423" stroke-width="0"/>
      <path d="m330.968,187.542c.008-.171.017-.342.015-.512-.02-3.638-.029-7.277-.039-10.915l-.013-4.678c0-.109.006-.224.013-.34.014-.245.027-.499-.04-.642-.233-.495-.222-.987-.211-1.422l.004-.29c-.019-6.28-.032-12.561-.045-18.841l-.01-4.709c0-.126.01-.259.022-.392.02-.231.04-.47-.02-.6-.278-.602-.257-1.19-.238-1.759.006-.144.01-.287.01-.43-.009-4.235-.01-8.469-.011-12.703l-.003-7.114c-.004-3.68-.017-7.362-.031-11.043,0-.109.004-.223.008-.337.01-.3.022-.611-.064-.82-.189-.457-.194-.888-.198-1.304l-.003-.224c-.019-.779-.027-1.558-.035-2.337l-.009-.855c-.304-.744-.279-1.507-.255-2.246.007-.224.015-.449.012-.671-.016-1.591-.008-3.182,0-4.772l.007-1.891c0-.058-.006-.12-.01-.182-.017-.191-.036-.408.062-.6.236-.466.216-.977.195-1.517-.007-.187-.015-.374-.012-.56.022-1.463.022-2.927.021-4.39l.025-13.909.287-.694v-19.102c0-.125-.008-.254-.016-.383-.023-.336-.046-.683.06-1.006.263-.807.232-1.627.2-2.495-.017-.446-.034-.907-.007-1.366-.275-.85-.262-1.717-.249-2.557.004-.274.008-.548.002-.821-.023-1.035-.023-2.072-.023-3.107l-.002-1.446c0-.09.007-.186.015-.281.01-.125.024-.314-.007-.374-.287-.536-.27-1.095-.254-1.588.005-.149.01-.296.006-.444-.017-.698-.023-1.397-.029-2.096-.005-.547-.01-1.094-.02-1.641-.002-.098.002-.199.006-.299.01-.302.02-.562-.13-.764l-.056-.075-.044-.68c-.081-1.159-.164-2.357.104-3.513.174-.75.071-1.31-.369-1.959l-.301-.024-.281.356v5.621c0,.087.006.18.014.274.021.272.045.581-.087.833-.195.37-.186.772-.177,1.197.003.132.006.264.003.395-.019.896-.023,1.792-.028,2.688l-.006,1.206c0,.074.005.152.01.229.016.226.034.482-.07.705-.253.542-.236,1.124-.219,1.741.005.167.01.334.01.5-.015,3.969-.019,7.938-.023,11.907l-.006,4.66c0,.119.008.244.017.369.025.356.051.724-.093,1.04-.178.39-.174.793-.17,1.219.002.133.002.266-.002.399-.019.633-.023,1.265-.027,1.897-.002.395-.005.789-.01,1.184v.169c.004.247.008.527-.115.759-.149.278-.144.575-.14.918l.002.191c-.007,2.566-.007,5.131-.008,7.696v9.649s.295.774.295.774v2.958c0,3.943,0,7.884.003,11.826l-.002.25c-.006.326-.01.663.078.917.146.419.165.804.174,1.194.008.45.014.9.019,1.349l.018,1.249c0,.077-.002.157-.005.238-.006.15-.013.338.027.412.256.477.246.971.238,1.407-.002.153-.006.308.003.46.013.223.003.454-.007.684-.018.373-.034.725.063,1.001.21.596.213,1.165.215,1.714l.003.282c.019,1.221.025,2.442.032,3.664l.013,2.023c0,.087-.003.179-.006.271-.009.211-.017.428.04.547.207.433.203.843.199,1.241v.149c.002,9.366.002,18.733,0,28.099,0,.071.006.146.012.222.019.239.04.508-.086.73-.203.358-.185.756-.166,1.178.006.136.012.27.012.405-.02,5.197-.032,10.394-.044,15.591l-.011,4.872c0,.11.009.224.019.34.026.311.052.633-.077.914-.228.5-.211,1.026-.191,1.583.006.169.012.339.011.508-.022,3.857-.031,7.714-.04,11.571l-.009,3.858c0,.109.009.224.018.337.023.304.048.618-.065.904-.249.634-.226,1.291-.202,1.985.01.257.018.514.014.77-.03,1.622-.035,3.245-.04,4.868l-.006,1.95c0,.074.006.153.013.232.019.232.04.495-.077.715-.233.437-.215.918-.196,1.428.006.161.011.32.01.48-.022,2.091-.027,4.183-.034,6.274l-.007,2.332c0,.094.007.191.015.289.02.254.044.542-.061.795-.236.568-.222,1.165-.207,1.797.006.267.012.533,0,.799-.025.548-.024,1.098-.024,1.648l.024,14.089c0,.23.007.46.015.691.016.529.032,1.076-.024,1.615-.039.381.039.745.121,1.13.071.333.145.677.144,1.047-.006,3.081-.005,6.161-.003,9.243l.002,3.262c0,.057.005.118.01.178.015.19.033.404-.058.598-.237.508-.222,1.058-.206,1.641.006.203.011.407.006.609-.019.801-.017,1.601-.015,2.403v1.165c-.002.258-.008.518-.015.778-.015.538-.029,1.096.014,1.629.038.469-.053.89-.141,1.299-.069.32-.136.624-.135.934.004,2.691.006,5.382.007,8.074l.005,6.056-.003.164c-.004.179-.009.383.041.48.204.395.202.789.2,1.137v.101c.002,4.872.002,9.745,0,14.618,0,.067.005.138.01.21.015.242.034.516-.093.739-.186.326-.173.692-.16,1.08.004.115.007.228.007.341-.01,1.995-.008,3.99-.007,5.946l.002,2.148-.325.664v3.025c0,.076.006.154.012.232.018.224.037.477-.062.7-.253.566-.233,1.168-.211,1.806.006.203.014.404.012.605-.023,2.638-.026,5.277-.028,7.914l-.002,1.667c-.002,2.278-.002,4.558-.002,6.809l.015,2.807.266.605v2.681c0,2.7,0,5.422-.002,8.144l.003.173c.008.247.016.526-.104.76-.145.279-.146.574-.146.915-.003,2.305-.004,4.579-.003,6.853,0,.082-.006.168-.011.254-.009.131-.022.328.013.392.275.502.263,1.023.253,1.483-.002.13-.006.261-.002.39.016.557.019,1.114.023,1.671.002.365.004.729.01,1.094l-.002.192c-.003.162-.007.364.04.451.226.419.221.843.216,1.218v.183c.005,1.424.004,2.847.002,4.222v1.42l.316.71v.989s0,2.822,0,2.822c0,.089-.007.183-.015.278-.01.126-.025.317.006.378.314.589.291,1.182.268,1.755-.006.149-.012.296-.011.443.017,3.94.021,7.88.026,11.821l.011,14.818c0,.12-.008.245-.016.37-.016.249-.031.485.028.652.274.762.264,1.529.253,2.269-.004.335-.009.67.015,1.002.01.152,0,.313-.012.473-.015.208-.03.422.023.535.291.605.272,1.199.253,1.774-.004.139-.009.278-.008.416.01,4.467.01,8.934.01,13.401v4.466c0,.129.004.258.008.388.009.309.018.629-.021.948-.024.204.04.381.13.625.069.188.148.4.194.661l.006,2.982c0,.089-.007.184-.015.279-.01.126-.025.315.006.373.3.556.28,1.138.263,1.651-.005.129-.009.259-.008.387.018,3.213.023,6.427.027,9.64l.021,15.697c0,.098-.005.2-.009.303-.011.256-.023.521.049.682.203.455.2.885.198,1.301v.241c.01.735.008,1.471.006,2.208l-.036,1.026-.237.466.057.194c.077.253.154.506.204.765.039.203.03.4.023.573-.006.119-.013.282.012.334.161.309.291.366.458.337l.318-.665c-.003-.128-.002-.261,0-.396.006-.341.011-.694-.072-.995-.251-.908-.215-1.812-.182-2.686.016-.41.032-.82.019-1.23l-.004-.106.062-.087c.214-.301.198-.66.178-1.077-.007-.158-.015-.317-.009-.473.02-.629.024-1.259.027-1.889l.006-.864c0-.058-.004-.12-.009-.182-.015-.193-.033-.412.07-.605.235-.438.22-.926.203-1.442-.006-.213-.013-.426-.003-.637.022-.483.022-.966.022-1.45,0-.271,0-.542.003-.814,0-.066-.002-.136-.006-.207-.012-.241-.026-.515.102-.738.167-.287.165-.599.162-.96-.002-.161-.002-.322.011-.482.021-.253.014-.512.006-.769-.015-.594-.031-1.208.255-1.806l-.002-4.079c-.307-.685-.28-1.39-.253-2.071.009-.229.019-.458.013-.685-.027-1.28-.03-2.561-.032-3.842l-.006-1.685c0-.107.008-.22.017-.333.015-.185.031-.395-.016-.488-.284-.567-.267-1.126-.251-1.667.003-.123.007-.246.006-.369-.013-6.975-.017-13.95-.022-20.925l-.02-35.273c0-.139.01-.283.021-.429.021-.274.042-.558-.031-.744-.258-.66-.246-1.309-.236-1.936.003-.184.006-.368.003-.552-.018-.843-.014-1.685-.01-2.477l.003-.889-.316-.779v-1.31s0-3.902,0-3.902c0-.104.008-.213.017-.323.014-.188.031-.402-.019-.506-.282-.601-.271-1.2-.261-1.78.003-.186.007-.372,0-.558-.023-.581-.018-1.164-.013-1.694l.004-.542-.268-.699v-1.899c0-2.08,0-4.117.003-6.154l-.002-.172c-.005-.292-.01-.623.117-.902.129-.282.128-.567.128-.897.003-5.051.004-10.031.002-15.013v-.097c.002-.319.003-.594-.132-.853-.128-.246-.123-.544-.119-.806v-.122c-.002-4.928-.002-9.855-.002-14.771l.033-4.345.215-.433v-1.921c0-2.01,0-4.042-.002-6.073l.004-.153c.003-.094.009-.27-.016-.317-.261-.438-.245-.893-.232-1.295.003-.092.006-.185.006-.277-.015-3.29-.024-6.579-.034-9.869l-.01-3.288c0-.124.008-.253.018-.383.017-.245.033-.478-.026-.643-.286-.813-.263-1.628-.241-2.416.008-.291.016-.58.009-.868-.027-.977-.031-1.954-.033-2.931-.002-.541-.003-1.081-.01-1.622,0-.077.002-.156.003-.236.006-.222.011-.451-.052-.588-.234-.515-.212-1.016-.191-1.5.01-.224.02-.446,0-.667l-.007-.077.03-.072c.27-.651.249-1.344.226-2.078-.009-.277-.017-.554-.01-.828.027-1.094.031-2.19.033-3.285l.005-1.42c0-.075-.006-.156-.013-.236-.019-.23-.041-.49.074-.709.231-.437.216-.917.2-1.425-.005-.163-.01-.325-.007-.487.021-1.218.024-2.435.028-3.652l.007-1.868c0-.082-.004-.166-.008-.253-.015-.273-.03-.582.098-.839.161-.322.16-.67.157-1.038v-.241c.01-.734.007-1.469.006-2.173l-.002-.9.281-.563.036-15.783c0-.108-.009-.222-.017-.335-.023-.307-.048-.624.069-.91.224-.546.212-1.113.201-1.714-.004-.184-.007-.367-.005-.55.022-1.275.026-2.55.031-3.826l.007-1.693c0-.089-.006-.182-.014-.277-.021-.27-.044-.577.088-.826.19-.363.182-.759.174-1.178-.003-.14-.006-.278-.002-.418.018-.631.022-1.263.026-1.895.002-.395.005-.791.01-1.186v-.178c-.006-.246-.011-.525.114-.754.152-.274.148-.568.143-.908l-.002-.197c.009-1.715.01-3.429.01-5.143l.026-8.792.244-.575v-10.108c0-.075.007-.155.014-.235.007-.082.019-.22.004-.261-.328-.614-.299-1.24-.269-1.846Z" stroke-width="0"/>
      <path d="m54.139,2.83c.068,0,.139.002.21.006.099.004.267.011.319-.006.431-.191.871-.182,1.259-.177.098.002.193.002.292.002.697-.013,1.395-.016,2.093-.019l.917-.005c.072-.003.173.004.261.01.09.007.241.017.287.002.529-.22,1.08-.201,1.571-.19.134.004.269.009.398.007,1.814-.013,3.628-.016,5.441-.02l2.719-.006c.113-.004.197.002.298.007.199.006.424.017.535-.023.433-.16.856-.154,1.232-.153.101,0,.199,0,.299,0,.561-.015,1.123-.016,1.685-.019l.755-.003c.077,0,.169.003.258.009.09.006.241.014.287,0,.493-.207,1.004-.195,1.458-.186.123.003.25.006.366.004.973-.015,1.948-.019,2.922-.022l1.234-.006c.063.003.17.005.258.01.103.008.261.016.311,0,.634-.217,1.267-.2,1.876-.183.168.005.344.01.501.009,3.745-.014,7.49-.019,11.235-.025l4.37-.007c.12,0,.245.006.37.013.238.012.483.026.625-.02.493-.163.955-.161,1.409-.154h.256c1.603-.01,3.207-.016,4.81-.023l3.206-.014.215.003c.165.003.378.009.475-.026.394-.143.773-.137,1.113-.139h.144c2.337-.004,4.677-.004,7.016,0h.139c.293-.008.639-.007.994.136.073.029.273.028.405.027h.121c1.274.006,2.544.01,3.816.005h.477c.08,0,.164.005.249.01.091.006.247.016.295.002.509-.211,1.04-.196,1.505-.186.152.005.303.006.454.004.602-.017,1.204-.019,1.807-.023l.919-.006c.062-.012.144.002.22.004.1.004.265.01.314-.007.417-.176.84-.169,1.205-.166l.208.002c1.613-.004,3.227-.002,4.826-.003l1.749.029.443.171h1.948s5.293,0,5.293,0l.2-.005c.252-.009.545-.018.797.081.248.098.519.101.824.092h.272c.672.013,1.344.016,2.015.019l.843.006c.068.002.13-.004.197-.007.218-.015.465-.026.681.069.284.125.621.118.975.112.13-.002.261-.004.385-.002.557.013,1.115.015,1.672.018l1.041.007.148-.002c.225-.002.48-.007.705.083.21.085.436.077.717.083h.084c2.387,0,4.772.002,7.158.002.07,0,.145.003.221.006.097.006.257.012.308-.002.429-.19.867-.187,1.253-.175.101.002.199.002.297.002.646-.012,1.291-.016,1.938-.019l1.376-.009c.125.002.308.003.374-.023.366-.144.719-.149,1.036-.141h.09c5.249-.002,10.499-.002,15.746,0l.168-.005c.224-.008.481-.019.703.077.247.106.527.099.846.095l.228-.002c2.044.003,4.087.003,6.093.002l2.13.029.502.192,6.299-.002c.257-.01.55-.018.803.083.246.098.514.1.819.092h.277c.652.011,1.307.015,1.961.017l.896.005c.049,0,.127-.003.193-.007.22-.013.467-.026.683.069.289.126.625.121.987.113.123-.002.248-.003.373-.002.553.011,1.105.015,1.658.017l1.057.008h.149c.226-.006.48-.006.705.084.213.087.482.09.725.087h6.094s.529-.171.529-.171h5.273c.077,0,.159-.005.241-.01.242-.015.521-.033.764.06.356.135.75.13,1.171.122.165-.004.333-.006.498,0,.563.018,1.125.021,1.688.025l.893.036c.434.171.927.153,1.454.139.208-.006.419-.015.624-.008.695.015,1.391.011,2.079.007l.86-.02.517-.165h2.182s8.893.002,8.893.002l.177-.003c.067-.002.136-.003.207-.003.208,0,.425.015.617.092.225.091.475.094.765.098.169.002.339.006.507.024.194.022.381.055.57.089.3.054.588.12.887.101,1.675-.018,3.349-.019,5.024-.02l2.281-.002.172.002c.11,0,.297.007.354-.015.394-.165.781-.164,1.124-.16.094,0,.186.002.279-.002.423-.014.845-.02,1.268-.027l.5-.008c.414-.184.843-.169,1.228-.164.128.003.253.006.376.002.366-.014.734-.017,1.101-.02l.4-.003c.52-.205,1.063-.189,1.55-.174.159.006.322.01.475.006.752-.015,1.505-.018,2.258-.02l1.183-.005c.065,0,.15.002.228.006.094.003.253.01.303-.003.436-.19.882-.18,1.27-.175.094.002.188.003.283.003.792-.01,1.584-.012,2.375-.015l1.057-.006c-.088-.039-.19-.081-.313-.128-.828-.326-1.647-.518-2.505-.587l-.124-.01-.101-.074c-.113-.083-.315-.09-.549-.097-.2-.006-.429-.015-.655-.077-.323-.09-.743-.086-1.155-.084h-.269c-1.379-.002-2.759-.002-4.142,0l-1.151.002c-.117-.006-.19-.005-.287-.01-.153-.008-.34-.019-.417.009-.561.196-1.118.193-1.646.189-.148,0-.295-.002-.441.002-.282.007-.553.056-.839.107l-.333.057c-.248.037-.496.03-.732.023-.244-.008-.47-.016-.63.03-.542.154-1.065.161-1.569.167-.161.002-.323.004-.485.011-.244.012-.492.007-.705.006l-.148-.002-.623.185h-1.687s-4.955,0-4.955,0c-.074,0-.153.005-.232.01-.245.011-.529.028-.774-.065-.398-.154-.84-.145-1.304-.133-.167.003-.334.005-.498.004-.81-.015-1.621-.016-2.433-.018l-1.402-.005c-.303,0-.646,0-1.002-.135-.065-.024-.271-.026-.366.006-.333.117-.649.127-.969.127l-6.728.006c-.048,0-.099.003-.15.006-.174.009-.369.02-.559-.043-.501-.168-1.042-.157-1.621-.144-.31.006-.621.014-.93-.007-.124-.005-.259-.002-.392.002-.277.012-.563.02-.836-.06-.292-.087-.583-.125-.973-.125-2.672,0-5.344.002-8.016.006l-.165-.002c-.115-.002-.308-.008-.366.017-.377.151-.746.152-1.07.152-2.157.002-4.259.002-6.355.002-.058,0-.12.004-.182.007-.227.01-.481.024-.701-.076-.253-.115-.545-.11-.872-.104-.115.002-.228.003-.341.002-.607-.014-1.215-.016-1.822-.019l-.747-.005c-.054,0-.103.004-.154.006-.179.011-.383.024-.577-.056-.368-.153-.795-.14-1.241-.128-.185.006-.371.009-.554.005-.625-.017-1.251-.019-1.877-.02l-.832-.003c-.086.003-.134.004-.202.008-.2.014-.43.027-.646-.047-.517-.177-1.073-.157-1.663-.138-.193.006-.374.019-.576.011-5.841-.014-11.681-.02-17.522-.026l-4.38-.005c-.124.038-.248.007-.374.015-.349.019-.709.041-1.034-.065-.404-.13-.826-.123-1.27-.119-.141.002-.282.004-.418,0-1.066-.017-2.133-.021-3.2-.024l-1.375-.006h-.004c-.063,0-.13.005-.196.009-.202.012-.43.027-.646-.044-.502-.166-1.042-.155-1.616-.141-.211.006-.421.011-.634.006-.871-.015-1.742-.014-2.589-.008l-1.138.002-.538-.21h-.971s-2.282,0-2.282,0c-.071,0-.131.004-.198.008-.207.01-.444.023-.657-.052-.406-.144-.85-.144-1.324-.137-.215.002-.433.002-.646-.008-.108-.004-.222,0-.336.005-.249.012-.503.023-.752-.046-.657-.182-1.338-.167-2.059-.154-.211.004-.428.015-.635.007-2.134-.008-4.271-.002-6.407.003l-2.466.006c-.115.003-.169-.005-.256-.01-.094-.006-.248-.016-.297-.002-.571.219-1.136.203-1.684.186-.14-.004-.272-.007-.422-.008-2.964.012-5.929.015-8.892.019l-3.276.004c-.119.005-.22-.006-.333-.011-.203-.011-.411-.023-.53.016-.591.182-1.173.183-1.732.176-.251,0-.502-.003-.751.014-.078.006-.161.006-.244.007-.111.002-.261.003-.314.024-.358.144-.705.144-1.012.144l-.387.002c-1.102.01-2.205.02-3.307.021l-10.022.002c-.108,0-.221-.006-.334-.012-.193-.012-.41-.023-.525.014-.629.199-1.245.182-1.839.172-.178-.004-.355-.008-.531-.006-1.404.017-2.809.02-4.214.023l-1.658.004c-.1.004-.199-.004-.301-.011-.122-.007-.328-.019-.389.004-.507.197-1.019.193-1.472.182-.117-.002-.231-.002-.35-.003-1.104.014-2.207.018-3.311.023l-1.416.006c-.087.007-.172-.005-.26-.01-.096-.007-.257-.015-.308,0-.579.2-1.155.188-1.707.182-.176-.003-.35-.006-.521-.002-.624.016-1.249.019-1.872.02l-.855.004c-.081,0-.166-.002-.252-.008-.092-.004-.245-.014-.291,0-.474.197-.956.184-1.388.174-.101-.002-.201-.003-.302-.005-2.748.01-5.496.018-8.244.024l-4.495.011-.244-.003c-.227-.006-.46-.011-.607.036-.392.12-.755.131-1.094.132l-4.375.002-1.808-.021-.553-.173h-1.157c-1.075,0-2.145.003-3.218-.005-.084.006-.196.004-.297.007-.366.012-.781.029-1.179-.148l-1.789.002c-.391.173-.793.16-1.154.143-.107-.005-.216-.005-.32-.007-.873.013-1.747.017-2.619.021l-1.249.006c-.082-.003-.166-.004-.252-.009-.091-.005-.241-.015-.291,0-.433.187-.877.19-1.275.185h-.262c-.428.01-.857.004-1.288.012-.109.004-.228,0-.346-.003-.23-.006-.492-.013-.628.039-.291.109-.579.118-.811.125-.103.003-.245.008-.288.024l-.443.259v.362c.251.213.624.324,1.046.451l4.192-.004Z" stroke-width="0"/>
      <path d="m280.066,492.127c-.245-.121-.506-.227-.718-.313l-.146-.06h-2.194c-2.205-.002-4.345,0-6.484.002l-.157-.002c-.15-.005-.335-.007-.418.026-.363.148-.722.139-1.047.139l-.179-.002c-1.781.006-3.563.007-5.345.01l-16.126.019c-.107,0-.215-.006-.324-.011-.215-.014-.435-.022-.587.019-.684.191-1.368.179-2.04.171-.233-.003-.47-.006-.705-.002-1.146.027-2.294.014-3.44.024h-.141c-.164-.003-.345-.004-.439.032-.341.135-.669.131-.981.131h-.099c-3.77.003-7.539.004-11.309.004-.069,0-.142.002-.215.006-.253.01-.518.023-.742-.069-.308-.125-.642-.12-.994-.109l-.279.004c-2.6-.007-5.2-.006-7.763-.006h-2.232s-.511-.193-.511-.193l-14.628.002-.178-.004c-.144-.002-.323-.01-.4.022-.375.152-.737.149-1.09.149h-15.735c-.065,0-.133.005-.203.01-.215.015-.437.029-.629-.056-.339-.151-.718-.138-1.123-.128-.142.004-.286.004-.425.006-1.167-.023-2.334-.023-3.501-.023l-23.977-.003c-.109,0-.223.006-.337.013-.297.016-.613.035-.889-.05-.469-.144-.957-.144-1.462-.137-.236-.002-.47.002-.704-.01-.141-.006-.29-.002-.438.004-.31.008-.63.022-.912-.069-.361-.119-.722-.119-1.106-.119h-.187c-1.307-.011-2.616-.012-3.923-.012l-10.102-.006c-.115,0-.165.005-.248.01-.242.014-.492.028-.711-.053-.439-.164-.905-.153-1.401-.138-.149.003-.298.008-.444.007-2.764-.015-5.528-.019-8.292-.025l-3.159-.006c-.115.005-.182.004-.274.008-.276.013-.563.027-.811-.06-.32-.111-.632-.111-.994-.111h-10.457c-.08,0-.165-.006-.251-.012-.112-.007-.282-.019-.337.003-.499.203-.995.186-1.479.173-.148-.005-.299-.01-.445-.006-.914.016-1.827.019-2.742.022l-1.127.005c-.07-.003-.156-.003-.235-.006-.154-.006-.298-.011-.406.014-.814.194-1.644.189-2.439.184-.38-.002-.761-.005-1.138.015l-.146.005c-.102.002-.241.005-.294.027-.307.135-.616.138-.889.133h-5.07c-.052,0-.106.004-.16.007-.163.01-.347.021-.511-.036-.452-.161-.942-.153-1.448-.145-.236.002-.468.007-.7-.005-.146-.008-.296-.005-.445.002-.301.009-.61.017-.894-.06-.737-.198-1.584-.128-2.418-.128-1.346,0-2.692.002-4.037.005l-.164-.002c-.149-.002-.33-.007-.413.027-.414.168-.832.151-1.197.136-.358-.011-.681-.004-1.002.005-.723.022-1.467.041-2.205-.168-.064-.018-.177-.012-.287-.006-.094.004-.183.006-.277.007-.324,0-.648.002-.973.005-.83.007-1.692.015-2.537-.025-.281-.01-.532.038-.802.091-.266.052-.545.119-.846.103-1.257-.013-2.516-.009-3.775-.006l-1.969.007c-.226.009-.459.017-.658-.07-.263-.113-.564-.113-.874-.111h-.252c-.367-.008-.735-.006-1.079-.004l-.479.002-.442-.176c-.15-.006-.302-.008-.453-.01-.408-.006-.831-.011-1.235-.083l-.153-.028c-.257-.047-.5-.091-.75-.091l-3.32-.002h-1.023c-.117.05-.238.094-.359.138-.153.055-.303.109-.429.173.453.069.86.219,1.254.365.173.064.345.128.522.184l.168.054c.517.166,1.05.337,1.593.381.245.019.469.076.684.132.315.082.586.149.885.101l.103-.017.093.048c.227.117.516.119.822.122.249.002.507.004.755.069.509.134,1.018.144,1.556.157.264.006.492.004.72.003l.379-.002.076.046c.24.146.587.195.839.118.506-.15,1.002-.154,1.48-.157.137-.002.274-.002.412-.006.155-.006.309-.002.465.002.279.01.539.016.757-.034.252-.056.514-.079.771-.1.261-.022.508-.043.717-.101.345-.095.679-.12,1.002-.144.184-.014.368-.027.55-.055.046-.007.104-.036.161-.064.039-.019.075-.037.109-.051l.102-.023c.163-.009.326-.01.487-.013.327-.003.634-.006.892-.072.621-.156,1.231-.136,1.818-.115.26.01.517.021.779.012l.086-.002.075.042c.251.14.571.126.91.115.107-.003.22-.002.317-.007,2.814.015,5.629.019,8.444.019.604,0,1.19.086,1.707.163.384.055.789.049,1.221.045.198-.004.397-.003.594-.002.116.002.205.023.278.063.224.123.514.115.825.111.089-.002.177-.006.263-.003.65.007,1.299.005,1.925.005l.78-.002.481.186h.809c.878,0,1.774,0,2.67-.002l.184.004c.142.004.319.009.393-.022.377-.155.759-.146,1.096-.146.09.002.176.004.267,0,.563-.01,1.127-.015,1.691-.019l.888-.007c.065,0,.153.002.234.007.115.006.289.015.349-.011.418-.176.83-.174,1.237-.172h.125c5.579-.002,11.165.002,16.748.006l.142-.002c.216-.005.466-.008.671.076.24.099.506.098.787.093l.203-.002c1.749.009,3.499.015,5.248.02l2.624.009c.097.012.186-.004.281-.009.282-.014.57-.027.814.065.299.115.615.118.948.109.114,0,.226-.002.34.002.503.014,1.006.016,1.51.019l.63.004c.054.003.112-.002.169-.005.149-.01.321-.017.484.03.592.169,1.205.167,1.864.162.288-.002.581-.004.869.01.054.004.108,0,.162,0,.175-.004.354-.008.513.066.257.121.558.112.874.107l.236-.003c1.296.006,2.592.004,3.879.003h1.339s.519-.177.519-.177l2.511.005c.424.004.848.008,1.27-.006.502-.022.979.043,1.439.102.183.024.366.048.55.066.307.031.625.027.956.023.15-.002.302,0,.444-.003.162.002.324.007.487.012.366.012.713.023,1.052-.008.328-.03.598.039.84.1.189.047.363.09.554.087.706-.021,1.413-.016,2.117-.013l.897.002c.05,0,.103.003.156.007.054.004.133.009.161.002.54-.213,1.102-.196,1.643-.182.138.004.265.013.412.007,6.395-.015,12.789-.019,19.183-.024.959,0,1.9.006,2.849.01l1.017.006c.076.008.136-.003.206-.006.198-.007.403-.02.595.039.557.169,1.137.16,1.758.154.277-.004.554-.008.829.006.124.006.257-.002.39-.008.279-.015.574-.03.83.06.431.149.876.14,1.347.131.122-.002.237-.013.364-.005,2.756.006,5.512.004,8.269.002l2.896-.002c.079,0,.163.006.246.01.135.007.287.018.364-.007.637-.211,1.278-.191,1.902-.175.192.006.382.013.575.01,1.834-.015,3.661-.022,5.504-.015l24.845-.02h.006c.094,0,.194.006.294.014.164.011.351.022.437-.01.491-.186.978-.178,1.45-.168.155.002.311.006.465.002.523-.016,1.047-.019,1.57-.02l.869-.006c.065,0,.136.002.206.003.128.003.305.008.37-.019.394-.171.798-.161,1.155-.16.115,0,.231,0,.346,0,.396-.016.794-.019,1.191-.023l.467-.006c.45-.195.916-.186,1.369-.174.162.004.325.006.487,0,.199-.009.401,0,.604.007.332.012.643.026.895-.04.747-.194,1.459-.136,2.167-.156.504-.015,1.007-.016,1.512-.017l.642-.002c.119,0,.237,0,.357.003.253.004.507.008.753-.019.129-.015.253-.042.379-.069.23-.048.45-.094.748-.096,1.176.014,2.352.011,3.527.01l1.901-.002c.216-.003.467-.007.674.075.231.094.473.095.752.095h.021l10.675.002h3.429s.601-.181.601-.181h1.828c1.808,0,3.597-.002,5.384.002h.127c.4,0,.802-.002,1.227.155.183.066.481.052.754-.036.184-.061.383-.099.584-.138l.198-.04.135-.082c-.007-.002-.015-.002-.021-.004-.248-.042-.49-.089-.729-.207Z" stroke-width="0"/>
      <path d="m29.987,488.939c-.205-.486-.399-.944-.743-1.365-.608-.742-1.362-1.399-2.24-1.955-.199-.125-.425-.232-.649-.338l-.439-.211c-.681-.33-1.387-.671-2.162-.885-.458-.128-.91-.263-1.362-.399l-.203-.061c-.081-.024-.165-.04-.25-.057l-.634-.137c-.387-.082-.773-.165-1.141-.276-.259-.078-.533-.123-.824-.17-.296-.048-.603-.098-.897-.187-.123-.037-.266-.048-.417-.061-.22-.017-.468-.037-.713-.141-.182-.078-.585.002-.956-.089-.224-.056-.49-.059-.772-.062l-.295-.006c-.181-.008-.363-.005-.539-.003l-.383.002-.215-.263c-.097-.111-.187-.217-.256-.344-.784-1.471-1.286-2.199-2.065-3-.585-.601-1.172-1.183-1.906-1.691-.935-.644-2.058-1.25-3.534-1.906-.383-.17-.81-.311-1.267-.418-.528-.123-1.042-.274-1.554-.425l-.603-.174h-1.823l-.563.389v.27c.365.266.547.337.956.441.613.157,1.023.255,1.335.33.865.207.977.233,2.415.793,1.031.4,1.933.893,2.969,1.51.743.443,1.299.99,1.835,1.52l.165.163c.77.755,1.352,1.592,1.866,2.385l.239.368-.539.142c-.101.032-.21.074-.345.055-.161-.019-.311.026-.486.079-.209.062-.442.137-.733.101,0,.002-.045.017-.075.027-.045.015-.091.03-.136.04-.934.219-1.922.475-2.822.864-.544.236-1.249.559-1.881.953-.776.487-1.464,1.064-2.101,1.762-.96,1.051-1.358,1.9-1.293,2.751.006.075.006.153.004.23v.106s.006.199.006.199c.006.151.012.301.006.451-.002.064.05.164.1.261.078.151.173.333.17.549.055.077.108.154.161.232.165.24.32.466.521.667.295.295.711.491,1.204.567.132.02.26.054.399.091l.195.05c.594.052,1.228-.085,1.898-.226l.143-.03c.974-.204,1.855-.546,2.589-.855.863-.362,1.655-.755,2.357-1.168.86-.506,1.538-1.111,2.291-1.865.325-.326.562-.69.702-1.082.039-.107.084-.212.13-.318.114-.265.222-.515.191-.748-.023-.173-.019-.347-.013-.521.002-.077.005-.153.004-.228,0-.056-.008-.115-.015-.173-.019-.159-.043-.357.03-.558-.014.011-.035-.016-.049-.039-.083-.123-.278-.412-.059-.741l.094-.139.431-.005c.409-.01.832-.018,1.278.136.077.027.194.032.316.037.19.008.419.018.63.121.261-.027.498.052.708.106.118.031.235.061.358.077.494.065.949.199,1.388.33.183.054.366.109.552.157,1.155.305,2.509.699,3.789,1.3.885.417,1.629.964,2.412,1.772.548.565.976,1.09,1.307,1.605.215.336.481.671.738.995l.287.363c.257.333.287.372.701.534.05-.048.108-.107.12-.136.111-.27.227-.548.245-.807.029-.425.041-.879-.153-1.323l-.126-.296Zm-16.458-2.151l-.135.157c-.019.019-.054.055-.063.071-.301.921-.888,1.707-1.741,2.324-.097.07-.198.138-.299.206-.143.096-.286.191-.416.295-.72.571-1.633.977-2.513,1.331l-.23.094c-.633.258-1.286.525-2.059.617-.259.123-.525.157-.792.157-.162,0-.324-.012-.483-.025l-.163-.033c-.833-.394-1.003-.948-1-1.343,0-.063-.022-.13-.073-.215-.137-.234-.176-.493-.106-.711.045-.143.081-.287.115-.431.052-.216.106-.432.186-.642.157-.415.386-.784.678-1.095.272-.292.568-.577.881-.845l.128-.109c.165-.141.33-.281.482-.432.377-.374.898-.621,1.403-.86l.332-.158c.828-.41,1.732-.722,2.687-.928.165-.036.335-.058.504-.08.235-.031.456-.059.663-.127.251-.082.536-.062.812-.046.107.006.215.013.32.013h.157l.47.655c.041.147.042.288.042.413,0,.205.005.308.112.409l.1.093v1.247Z" stroke-width="0"/>
      <path d="m322.783,471.368l-.205.017-.316.097c-.215.065-.406.123-.585.194-.572.226-1.225.511-1.728.899-.14.108-.27.223-.4.337-.184.163-.369.325-.579.473-.057.041-.107.101-.165.17-.048.057-.096.114-.151.167-.907.885-1.577,1.633-2.107,2.35-.092.125-.168.258-.244.39-.065.115-.131.228-.205.339-.78,1.173-1.137,2.082-1.593,3.337l-.077.119c-.057.055-.066.115-.078.272-.011.161-.027.36-.169.546-.04.053-.046.116-.052.232-.008.158-.02.376-.194.575-.058.066-.062.13-.059.295.002.14.006.315-.075.495l-.377.496-.618.195c-.282.03-.49.032-.698.036-.405.006-.789.01-1.157.114-.205.057-.413.061-.614.065-.196.003-.381.007-.547.058-.207.064-.421.075-.629.086-.22.011-.426.022-.588.094l-.129.027c-.315.024-.652.081-.985.168-.2.052-.401.105-.608.141-.567.098-1.098.225-1.575.375-.27.084-.541.164-.813.244-.727.215-1.479.437-2.152.735l-.266.119c-.794.353-1.616.718-2.29,1.178-.527.361-1.133.785-1.65,1.248-.535.477-.946.998-1.354,1.532-.017.023-.022.069-.028.143-.013.136-.031.348-.211.528.019.082.038.157.068.232.055.14.202.264.46.389h.493l.077-.052c.111-.075.228-.153.328-.239.086-.074.154-.16.222-.245l.078-.096c.02-.025.04-.053.058-.082.048-.07.097-.139.16-.202.596-.592,1.834-1.487,2.73-2.068.926-.6,2.034-1.108,3.387-1.554.228-.075.451-.156.675-.237.287-.105.575-.209.872-.3l.215-.067c.489-.153.995-.31,1.529-.39.322-.048.635-.115.948-.182.37-.078.741-.157,1.124-.207.204-.027.407-.061.608-.095.471-.08.957-.158,1.465-.15.309-.124.665-.241,1.06.01l.147.093v2.638c0,.051-.003.103-.007.153s-.01.126-.002.149l.048.086c.103.179.242.424.157.718,0-.002.002-.003.004-.003.011,0,.04.04.061.068.066.091.149.204.175.358.036.208.401.79.627,1.085.226.294.577.53.948.78l.093.062c1.18.798,2.609,1.234,4.19,1.191h.33c.328-.002.657-.004.986-.01l.15.002c.076.002.205.004.245-.009.212-.119.443-.13.646-.139.123-.005.239-.01.321-.041.204-.077.412-.146.63-.219l.325-.139c.11-.073.227-.152.35-.224.397-.234.666-.528.897-.984.016-.033.021-.092.027-.16.013-.149.032-.384.236-.581-.002-.071,0-.132.004-.194.01-.172.009-.233-.051-.3-.14-.161-.141-.357-.141-.474-.002-.253-.103-.494-.209-.749-.055-.129-.108-.259-.153-.391-.038-.115-.122-.236-.211-.364-.111-.162-.227-.329-.289-.531-.055-.178-.217-.348-.389-.527-.087-.09-.174-.182-.25-.275-.404-.492-.886-.928-1.433-1.296-.247-.165-.543-.291-.856-.425-.177-.076-.353-.151-.521-.233-.215-.106-.395-.194-.584-.239-.463-.11-.939-.197-1.414-.283l-.108-.02c-.157-.028-.324-.037-.487-.041-.417-.009-.835-.014-1.257-.019l-.716-.009-.1-.307c-.021-.063-.039-.116-.052-.169-.086-.34.036-.642.132-.885.056-.138.108-.269.118-.384.015-.196.091-.377.158-.536.04-.096.082-.193.105-.291.023-.101.076-.178.115-.233,0,0,0,0,0-.002-.02-.262.09-.48.182-.659.034-.068.069-.135.094-.204.057-.169.136-.337.215-.504.055-.115.11-.231.155-.347.293-.751.69-1.535,1.215-2.398.341-.561.772-1.215,1.382-1.826.146-.147.289-.295.432-.441.391-.406.797-.825,1.268-1.215.665-.55.804-.665,1.585-1.072.375-.195.784-.326,1.146-.443l.067-.022c-.053-.012-.106-.026-.158-.042-.061.028-.132.058-.219.067-.212.023-.426.04-.646.059Zm-7.024,13.039h2.46s.054.02.054.02c.042.016.085.036.128.056.057.027.117.055.157.06.819.088,1.435.443,1.979.757,1.166.673,1.998,1.592,2.542,2.811l.099.218c.229.497.466,1.012.358,1.523l-.391.843-.881.574-.372.093c-.241.061-.429.11-.624.14l-.291.04c-.143.019-.287.037-.432.065-.181.036-.368.053-.565.053-.26,0-.535-.031-.831-.093-1.61-.334-1.823-.454-2.381-.856-.136-.098-.299-.216-.529-.363-.1-.065-.191-.135-.278-.203l-.195-.189c-.052-.103-.128-.198-.202-.292-.15-.191-.32-.408-.362-.694-.012-.082-.052-.177-.093-.278-.071-.175-.152-.371-.144-.602-.009-.012-.019-.025-.03-.04-.035-.046-.072-.097-.107-.154l-.045-.075v-.087c0-.136.005-.277.01-.422.01-.324.02-.66-.021-.985-.04-.32.048-.608.126-.863.066-.217.124-.405.097-.573l-.027-.163.119-.115c.222-.215.496-.209.671-.207Z" stroke-width="0"/>
      <path d="m13.71,9.341c-.007-.493-.015-.985.009-1.478.007-.159-.053-.334-.117-.521-.07-.202-.148-.428-.151-.676-.109-.18-.167-.363-.22-.527-.044-.136-.084-.265-.149-.376-.178-.309-.369-.613-.575-.914l-.136-.204c-.196-.296-.38-.576-.682-.801l-.09-.104c-.224-.417-.653-.789-1.068-1.148-.111-.096-.221-.192-.328-.289-.372-.336-.862-.649-1.497-.957-.33-.161-.701-.257-1.061-.351-.153-.04-.305-.079-.454-.123h-1.202l-.867.294-.768.472c-.089.12-.174.23-.252.333-.187.243-.336.436-.447.633-.02.035-.031.091-.044.157-.023.121-.052.273-.158.429-.026.038-.021.144-.018.236.002.062.005.123.002.183-.006.175-.088.312-.148.412-.023.037-.065.106-.064.124.036.706.033,1.418-.006,2.115-.002.046.04.125.082.203.07.128.157.289.156.491,0,.011.01.048.04.09.113.154.218.311.323.466.321.479.625.931,1.145,1.293l.071.068c.445.585,1.296.971,2.048,1.311.916.415,1.96.697,2.778.897.273-.021.52.042.737.098.132.034.265.07.406.08.177.013.315.098.426.168.034.02.066.041.1.058l.373.184-.279.309c-.02.021-.04.041-.059.059-.023.219-.111.41-.189.583-.045.099-.093.199-.119.302-.066.254-.149.571-.332.857-.135.211-.262.425-.391.638-.34.569-.692,1.157-1.184,1.71-.341.383-.754.718-1.152,1.042-.287.232-.574.464-.83.713-.069.067-.213.186-.4.224-.152.031-.253.104-.383.198-.061.044-.121.087-.186.128-.358.222-.68.422-1.092.562-.175.059-.341.131-.508.203-.197.085-.395.169-.605.237-.195.063-.377.141-.559.218-.18.077-.359.153-.546.216-.387.132-.553.314-.659.478l.188.237.6.207c.203.048.423-.008.676-.071.179-.045.365-.092.571-.103.199-.011.416-.077.62-.144.478-.156.95-.32,1.412-.495.483-.182,1.038-.412,1.496-.731.283-.199.57-.395.856-.59l.699-.48c.113-.076.22-.149.286-.22l.421-.449c.73-.772,1.42-1.5,1.855-2.34l.056-.107c.415-.797.714-1.372.907-2.184l.06-.123c.071-.09.1-.204.136-.347.061-.247.138-.554.475-.798l.069-.051.086-.008c.175-.016.352-.019.529-.022.312-.004.608-.008.885-.095.31-.094.701-.059.984-.032.155.018.29-.023.449-.066.139-.037.278-.073.427-.086.744-.061,2.015-.344,2.766-.572,1.206-.366,2.278-.861,3.275-1.516,1.077-.707,1.843-1.337,2.411-1.982l.495-.553c.547-.607,1.113-1.235,1.563-1.882.26-.374.504-.726.852-1.033h-.587l-.174.065c-.165.061-.319.119-.479.171-.586.188-.986.387-1.26.628-.525.461-.991.881-1.388,1.341-.793.918-1.701,1.88-2.976,2.688-.676.429-1.448.817-2.296,1.155-.789.314-1.575.599-2.502.646-.22.115-.463.128-.681.14-.178.01-.347.019-.447.082l-.077.05h-1.947l-.014-1.336Zm-1.546-1.851l-.006,2.62-.443.389-.084.016c-.157.031-.307.044-.45.044-.316,0-.6-.061-.86-.116-.141-.03-.281-.061-.422-.079-.41-.053-.784-.195-1.146-.331l-.271-.101c-.111-.04-.225-.077-.339-.114-.383-.125-.778-.253-1.107-.489-.132-.095-.27-.186-.408-.278-.254-.168-.517-.341-.747-.539-.337-.291-.594-.615-.822-.922-.173-.232-.32-.474-.466-.716l-.226-.407c-.023-.116-.029-.233-.034-.351-.009-.21-.018-.335-.111-.454-.165-.21-.156-.541.02-.754.069-.085.084-.164.09-.308l.002-.208c.002-.341.003-.726.253-1.108-.01.006-.013-.027-.015-.063-.003-.057-.006-.118-.002-.179l.006-.091.856-1.115.942-.447,1.328.236c2.07,1.114,3.435,2.622,4.173,4.613.061.146.067.3.072.423.006.165.012.241.09.32.165.169.138.391.124.51Z" stroke-width="0"/>
      <path d="m330.148,17.018c-.262-.013-.521-.098-.718-.172-.251-.094-.51-.177-.769-.26-.556-.179-1.132-.364-1.63-.656-.588-.164-1.094-.484-1.583-.794-.349-.22-.677-.429-1.056-.593-.098-.044-.227-.121-.299-.247-.077-.133-.255-.249-.443-.374-.123-.081-.246-.162-.354-.253-.056-.047-.119-.089-.183-.132-.169-.113-.374-.251-.483-.471-.688-.609-1.246-1.326-1.704-2.187-.031-.06-.07-.119-.108-.18-.174-.274-.436-.688-.15-1.153l.044-.07.138-.083c.077-.052.181-.122.32-.14.517-.064.989-.199,1.491-.342.224-.064.447-.128.674-.185.431-.108.834-.257,1.261-.414.308-.113.616-.227.934-.324.805-.249,1.479-.612,2.192-.996l.257-.139c.876-.468,1.539-1.107,2.151-2.067.295-.462.367-.96.214-1.481-.064-.216-.186-.538-.404-.838-.466-.64-1.173-1.418-2.511-1.768l-.193-.052c-.328-.09-.638-.174-.981-.174-.009,0-.019,0-.028,0-.303.004-.579.08-.871.161-.111.031-.223.061-.337.088-.177.042-.343.103-.562.181l-.358.126-1.566,1.114c-.108.077-.189.132-.249.196l-.231.245c-.261.276-.524.553-.753.841-.445.557-.861,1.079-1.182,1.609-.186.31-.323.635-.466.98-.071.169-.142.339-.219.507-.026.055-.029.136-.033.228-.007.183-.019.447-.236.675l-.069,1.516-1.226.271-4.403.007-.324-.13c-.102-.005-.203-.006-.305-.009-.277-.005-.563-.01-.832-.073l-.886-.203c-1.555-.354-3.163-.719-4.617-1.331-1.025-.431-1.976-.923-2.824-1.46-.605-.383-1.171-.828-1.682-1.323-.103-.1-.212-.197-.321-.295-.388-.345-.789-.701-.961-1.19l-.053-.15.149-.22-.714-.485h-.697l-.567.209-.251.338v.584c.687,1.069,1.695,2.019,3.165,2.982.161.105.319.213.476.32l.178.121c.419.283.893.514,1.395.758l.432.212c.564.281,1.206.492,1.826.696.199.065.399.131.597.199.315.108.64.22.988.303.839.199,1.733.407,2.629.548.159.026.317.056.476.088.412.081.802.162,1.211.132.228-.013.496-.031.7.061.2.087.419.086.68.081l.189-.002c.639.006,1.278.003,1.918.003l.592-.002c.061,0,.127.004.193.008.077.005.207.014.247,0,.422-.181.864-.168,1.253-.153l.093.003c.14-.005.27-.029.419-.068.137-.036.276-.07.432-.085l.107-.01.538.341.019.146c.008.061.01.122.013.183.002.065.004.14.019.167.56.998,1.123,1.784,1.77,2.474.58.619,1.29,1.207,2.169,1.801,1.19.802,2.516,1.434,4.056,1.933.482.157.986.245,1.52.337l.345.061c.235.043.491.046.762.049l.199.002c.29.006.583.003.852.003h.036c-.132-.019-.258-.046-.383-.072-.178-.037-.357-.076-.544-.086Zm-9.696-9.111c.043-.086.083-.165.096-.227.021-.102.02-.206.021-.31,0-.063.002-.125.005-.188l.008-.159.15-.162c.04-.026.043-.027.051-.15.007-.111.017-.265.113-.416.117-.186.203-.379.289-.571.05-.113.1-.225.156-.337.412-.823,1.215-1.801,2.204-2.684.517-.461,1.016-.801,1.571-1.072.385-.187.72-.305,1.086-.382l.067-.015,1.165.282c.077.052.166.109.263.17.261.164.585.368.843.613.251.238.427.504.597.761.07.107.141.214.218.32l.061.082-.039.853-.068.126c-.215.4-.437.814-.843,1.196-.442.418-.851.722-1.288.955-1.243.667-2.328,1.114-3.416,1.408l-.553.155c-.601.171-1.224.349-1.886.446-.025.004-.069.024-.116.046-.039.019-.08.037-.123.054l-.161.064-.647-.475.178-.385Z" stroke-width="0"/>
    </g>
  </g>
</svg>