<?xml version="1.0" encoding="UTF-8"?>
<svg id="Layer_2" data-name="Layer 2" xmlns="http://www.w3.org/2000/svg" viewBox="0 0 125.3161862 170.7114122">
  <g id="Layer_1-2" data-name="Layer 1">
    <g>
      <path d="m47.7212809,44.5682998c-.2166144-.0370456-.4259108-.101366-.6361332-.1045341-3.5349554-.0533102-6.7114662.9082614-9.2326599,3.4850783-2.0864421,2.1324749-3.0166002,4.7481031-2.8953423,7.7340315.0408175,1.0050751.4689257,1.8615752,1.1411924,2.5517861,1.1726355,1.2039227,2.3732251,2.3881581,3.641133,3.4896173,1.3589817,1.1805675,2.7587134,2.3294025,4.2392995,3.3487596.8274562.569692,1.8472778.8677167,2.794009,1.2549202,4.7297778,1.9344324,9.5745316,3.5431987,14.6670807,4.0905618,5.7418517.6171643,11.5011508,1.4280922,17.2951367.690573,2.1733317-.2766466,4.3220021-.7751353,6.465559-1.2468848,1.1108531-.244479,1.9884853-.9609426,2.763675-1.7768363.173476-.1825869.3493802-.4070761.4132578-.6423904.3835298-1.4128077.798964-2.8246316.4779251-4.3207118-.1244103-.5797444-.237275-1.1672131-.2851986-1.7568843-.0685259-.8431059.2578187-1.5262475,1.0400262-1.9074022.7761188-.378192,1.5268105-.2252804,2.1658749.3099557,1.0523797.88139,1.4336943,2.0731725,1.3544587,3.4018648-.0361315.6059318-.2091509,1.2068904-.3520835,1.8024179-.1524867.6353714-.3705496,1.2555239-.5119234,1.8929681-.791091,3.5667677-3.1125143,5.6573007-6.5072313,6.6227676-2.9849201.8489311-6.0462582,1.1400744-9.1567623,1.2443701-6.5739168.2204319-13.0023084-.7175861-19.3679417-2.1759001-3.5333981-.8094622-7.0271196-1.8286391-10.2367531-3.577924-1.1592923-.631836-2.2474421-1.1153514-3.6438003-1.1987517-2.7467318-.1640537-4.9809597-1.7212449-7.0882836-3.361106-1.5765106-1.2267938-2.8066592-2.7894632-3.8467673-4.4943709-.9469591-1.5522251-1.3991726-3.2250978-1.2067252-5.0519553.0179552-.1704408.0053122-.3441065.0069841-.5283002-1.7019242.4023829-2.3121705,1.4069329-1.813278,2.9778923.2033461.6403028.4535498,1.2699446.7390808,1.8778086.1128261.2401888.3505877.4566391.583799.5967637.3203588.19248.3534106.3601613.1499968.6614477-.5005913.7414578-1.1123743.9996548-1.9947554.7827255-.3256231-.080065-.6182074-.2013484-.9310324.0945013-.1073262.1014951-.4354024.0840737-.5956989-.0026972-1.7204778-.931283-3.3587913-.6478519-4.9385928.3242351-2.3109455,1.421973-1.8538834,4.1938592-.1812795,5.2558148,1.2457577.7909433,2.5717085,1.4965361,3.9400397,2.045413,3.6017161,1.4447486,7.2145796,2.8755608,10.8860075,4.1270696,1.9765977.6737903,4.0784966.9870506,6.1312847,1.4284664,2.8308293.6087096,5.4860579,1.6940127,8.0635323,2.972652.7536389.3738703,1.3928052.9722898,2.1129045,1.4222187.4915456.3071283,1.0065586.66798,1.5558958.77518,2.1563665.420818,4.330959.7479218,6.4979776,1.1145716,6.5522633,1.108622,13.1648953,1.1834305,19.7816375,1.113366,3.5783697-.0378972,6.9451467-1.114289,10.2686325-2.3254921,2.552373-.9301938,5.1040965-1.8778424,7.385377-3.3877246,2.3281098-1.5408643,4.2266611-3.4538533,5.0996021-6.2110624.3260997-1.0300005.493043-2.0720172.1322434-3.0935161-.8037934-2.2757387-1.5815629-4.5688478-2.5497123-6.7759681-.9291861-2.1182669-2.9889476-3.1173909-5.2979417-2.845445-1.3510995.1591281-1.8242483-.4285289-1.3434065-1.7167604.1417846-.3798572.3985612-.7167882.6105475-1.0872097-.2056544-.4546861-.4141488-.9446701-.6462905-1.4231761-.5778697-1.1911668-2.5972691-2.148426-3.8934664-1.8778397-.1774007.0370325-.3809242-.0512296-.5723541-.0814833.0648995-.1928013.078499-.4361794.2068577-.5663879.1867687-.1894709.4390651-.3605674.6932533-.429672,1.4460931-.3931535,2.8421115-.243784,4.0977063.5962052,1.2249306.8194668,1.4717256,1.8551404.8449216,3.2832265.0910145-.006625.1619683.0022508.2230881-.0182457,2.9635633-.9938183,6.1349912.1166276,7.730075,2.8086326.6322974,1.0671279,1.1577802,2.2192955,1.5709786,3.389605.6521077,1.8469878,1.2493799,3.7216757,1.7249772,5.6209437.9129088,3.6456362-.2448142,6.7878751-2.7018557,9.4615431-2.598358,2.8274356-5.9132615,4.6119444-9.4069653,6.0949729-5.712946,2.4250481-11.6649036,3.708216-17.873734,3.5783754-5.5516031-.1161014-11.0748978-.5788217-16.4846689-1.9537784-1.8433405-.4685193-3.7091241-.8539873-5.5384666-1.3702101-.9430283-.2661008-1.8265889-.7408035-2.7415409-1.1100435-.2313177-.0933462-.4756981-.1732408-.7213928-.2088573-1.2130042-.1758252-2.4342473-.3007809-3.6418426-.506692-2.4405462-.4161516-4.8751097-.8678032-7.3104031-1.3142941-3.6298218-.6654943-7.0392972-2.0023882-10.4343384-3.3978487-3.1717079-1.3036678-6.3503064-2.5833983-9.2444135-4.458982-.0473926-.0307218-.1113739-.0358412-.2048728-.0642059-.6893308.767266-.878176,1.7363701-1.0496177,2.7088995-.2531089,1.4357908.2336188,2.5658125,1.4251108,3.4009742,1.8946458,1.3280355,4.0101461,2.220561,6.1063032,3.1648692,3.2287411,1.4545155,6.643487,2.3545014,9.9927109,3.4468945,1.8641766.6080158,3.6152546,1.3968837,5.1789128,2.5837929.1151381.0873984.2076313.2046304.4562834.4540984-.5684005.0766972-.9699333.20667-1.3556396.1700458-1.8505535-.1757139-3.7001026-.3708845-5.5438281-.6073373-2.6583407-.3409422-5.1765185-1.1516993-7.5496347-2.3977897-.3040549-.1596611-.4997207-.1505905-.6962302.1392058-.2994108.4415583-.6621433.8450001-.9227892,1.3070616-.6661657,1.180953-.5709455,2.0224547.3223153,3.0468631,1.0864105,1.2459282,2.4219866,2.1428671,3.9349855,2.8028009,1.6068652.7008968,3.3238115.8507147,5.0236518,1.1329858,1.9892502.3303457,3.9585074.7828648,5.9325717,1.2006565.2638914.0558444.5753772.1556036.7438797.3435237.52817.588988,1.1877718.6826394,1.9261528.8368566,1.5451858.3227334,3.0368284.8937924,4.5622497,1.3207666,3.7960089,1.0624921,7.5853851,2.1527651,11.4020325,3.1363803,4.4819981,1.155093,9.0758402,1.648009,13.6705228,2.1068369,3.0545335.3050214,6.1036886.6806605,9.1639379.9078035,4.5637169.3387243,9.1027066.0808661,13.6051456-.796235,1.5147048-.2950752,3.0557549-.5215239,4.5996892-.1986551.2607765.05453.5810826.2735041.6944093.5045759.4389329.8950302.2306825,1.837181-.5668122,2.4491004-.4467543.3427945-.9744474.6265318-1.510213.7955514-.750516.2367831-1.5357347.4259621-2.317951.4896256-5.2156914.4244717-10.4414394.7406626-15.6662507.2605817-3.1540984-.2898115-6.2983741-.7195955-9.4323031-1.1857154-2.7805152-.4135546-5.5406891-.9638891-8.3097352-1.4544553-.3073952-.0544508-.6141067-.1127528-.9426898-.1029376.7534759.5779685,1.6295075.8447838,2.5255922,1.0931161,1.0645121.2950106,2.1389209.5884852,3.1542925,1.0134721.580967.2431579,1.0689083.3601167,1.6773243.1532377.4201833-.1428655.8988234-.1877297,1.3454809-.1644242,1.2348659.0644358,2.0856344.6745947,2.4031182,1.9386646.4359684-.1422193.8213055-.291236,1.2186735-.3934088,1.4915109-.3834988,2.4027725-.0396501,3.2798817,1.2154967.6495117.9294148.7101892.9378452,1.7324267.5043618.8023691-.34025,1.6071693-.6797137,2.4286667-.9689943,2.7743477-.9769712,4.4037341-.3178366,5.6531358,2.2237474,1.2222494-.6442932,2.4463222-1.2878475,3.6687964-1.9344373,1.1430748-.6045892,2.2573188-.4872575,3.3367895.1522955,1.0701638.6340224,2.0564013,1.358365,2.5106374,2.7321263.4877532-.2697322.9305861-.5076334,1.3667205-.757242.9589579-.5487967,1.8855461-1.1645324,2.8803167-1.6371792.8512423-.4044524,1.7935087-.4699726,2.7339757-.2556655.7081665.1613787,1.2984873.504347,1.6577279,1.1492588.2017292.3621334.4664135.4689113.8335721.3365772.6502174-.2343405,1.3159013-.4415443,1.9326113-.7461976.2936333-.1450473.5772881-.4484379.712634-.7489434.34604-.7683153.1309656-1.0156486-.6859464-.8941208-1.2598473.1874217-2.2251634-.6501451-2.0992541-1.9171992.0549902-.5533255.2518635-1.1338837.5328974-1.6152885.6982259-1.1959943,1.4621686-2.3554146,2.2379144-3.5037054.5559264-.8229178.858259-1.7008378.7391851-2.688521-.196737-1.6319112-.3756611-3.2688867-.6673798-4.8846933-.0901098-.4991121-.45214-1.0030149-.8148091-1.3862346-.5393986-.5699607-1.1900353-1.0345958-1.8339802-1.5783919-.0795093.0697791-.2018203.1612466-.3054481.2704539-1.5910728,1.6767829-3.4509828,2.9767596-5.5732792,3.8785817-7.3588084,3.1269561-14.9991626,4.4748058-22.9861517,3.5809307-2.5776569-.2884884-5.1808056-.4348103-7.727191-.8954479-3.2126819-.5811623-6.392896-1.362964-9.561939-2.1584802-3.456771-.8677358-6.8964399-1.8097126-10.3204753-2.7992134-1.7874368-.5165562-3.5275353-1.2110764-5.0608484-2.3023501-.5425318-.3861066-1.03031-.8669639-1.4715369-1.3676489-.1466244-.1663924-.1677659-.5820831-.0598942-.7844018.0694779-.1303153.4778872-.0917746.7355319-.1033559.0897459-.0040317.1896009.0574672.2735797.1078241,3.8544344,2.3117859,8.1580486,3.3138536,12.4781281,4.2489295,2.9236324.6328133,5.887761,1.0927293,8.7892562,1.8100692,3.8489648.9515881,7.7664963,1.3019277,11.6895143,1.6885445,3.0687899.3024322,6.1375905.2467564,9.1955195-.0026878,1.4443908-.1178167,2.8858809-.4894887,4.2848633-.8967874,2.2047772-.6418725,4.3720533-1.4124437,6.5561583-2.1256311,3.8674552-1.2628552,6.5860196-3.8642245,8.4858571-7.3752607.5624458-1.039442.9895525-2.1565333,1.4243351-3.2594694.4466795-1.1331444.3797385-2.2959293.0058107-3.4394345-.2583935-.7902012-.567445-1.5639151-.8215164-2.3553875-.2234914-.6962137-.2017407-1.3849693.3434996-1.9405407.5305271-.5405723,1.1943915-.6041941,1.873179-.3448199,1.1397913.4355404,1.7075605,1.393836,2.0500076,2.4759848.5747406,1.8162555.5787661,3.6785111.1622343,5.5222511-.2341074,1.0362456-.6180306,2.0386419-.9593992,3.1365003.2091356-.0214257.410431-.0576649.6121112-.0599503.7879132-.0089316,1.5938553-.1142949,2.3601014.0136712,1.4670911.2449998,2.1395089,1.3127168,1.88642,2.768879-.0199808.1149472-.0314817.2313716-.0592774.4397532,2.5316595.4461132,3.0595736,2.121749,2.5470178,4.3566975.4870165.0633307.9295104.0669889,1.3400137.1834354,1.9389129.5500092,2.7871075,2.3566557,1.9634118,4.2698333-.358286.8321763-.8654024,1.6003886-1.3076025,2.3961742-.0941855.1694916-.1999912.3325151-.3246603.5385279.4041991.0960146.7649346.1690296,1.1184162.2678725,1.5059403.4210859,2.1720555,1.5959653,1.5430904,3.0073716-.6247528,1.4019624-1.4798241,2.6784754-2.98435,3.3271933-.7166554.3090002-.9419245.1678825-.771906-.6023625.2169383-.9827751.525629-1.9482163.8457618-2.9040537.160099-.477993.1545111-.7969587-.3292676-1.0850087-.4599428-.2738533-.7649895-.6961595-.6257758-1.2960319.0087853-.0378632.0213221-.0849887.0071268-.116598-.7611949-1.6962103-.0636268-3.3900766.0226841-5.0821891.0306232-.600138-.0158715-.7444464-.6123791-.7923512-.1378869-.0110669-.2771557-.0048556-.4157842-.0068031-1.2262011-.0172052-1.6906376-.3640435-1.9096721-1.5673214-.1087218-.5972797-.1275351-1.2224628-.0964415-1.8303896.0295871-.5785702-.2091469-.8494135-.7420118-.9369444-.1367475-.0224567-.2722866-.0527954-.4077436-.0824432-.8908048-.1949528-1.0920666-.5979249-.9803562-1.4876141.1144764-.9117264-.1364958-1.5018917-1.0859365-1.3286476-.8095687.147727-1.6233929.2721741-2.4716066.4129445.7869257.4218617,1.5301774.754732,2.203703,1.1944407,1.6172282,1.0558216,2.5948015,2.5494367,2.7652557,4.4939441.1416136,1.6154525.3478989,3.2434323.2783513,4.8552102-.1225894,2.8407184-1.5487764,5.1976302-3.14729,7.4504926-.1127189.1588448-.2325088.3126678-.3815005.5123732.1149048.0569198.190605.1136657.2749274.1332035.7879297.1825267,1.23913.6784638,1.342725,1.4725898.0948528.7271893-.2730232,1.4936748-1.016815,1.7851354-.654976.2566654-.9755868.7269979-1.3036845,1.277265-2.2811,3.82573-4.6761707,7.5871227-6.8481241,11.4734477-3.0236188,5.4102334-5.9817305,10.8621311-8.7858666,16.3885778-2.5560355,5.0374947-4.6511096,10.2801886-6.1874661,15.7359346-1.0902261,3.8714945-2.2733636,7.7168451-3.4140132,11.5741685-.0333073.1126171-.0551273.2286195-.1102766.4607849.206145-.1111304.3567599-.1508514.4465939-.2472658.7264562-.7796269,1.5139447-1.5165859,2.1421752-2.3700968.8396101-1.1406851,1.642669-2.2492595,3.2027785-2.4151239.1280429-.0135853.2740272-.2087307.3455945-.3524258,1.8301873-3.6747286,3.3489032-7.4669388,4.5711115-11.3941289,1.3411796-4.3094413,2.8533595-8.5659233,4.3080213-12.839709,1.0728797-3.1521423,2.1547908-6.3122256,3.8188921-9.2093069,3.1663368-5.5123484,6.0941264-11.1680659,9.6935106-16.4229168.6457021-.942667,1.4417903-1.7857206,2.2032766-2.6438348.284414-.3204959.6430554-.5950327,1.0125508-.8156045.6324727-.3775415,1.2892548-.3667951,1.8926889.0913348.5498384.4174373.7717781,1.16593.5155854,1.879597-.1592382.4435368-.3852131.8703032-.6306892,1.2745473-2.5107025,4.1345149-5.2395198,8.1161308-8.1280876,12.0004746-3.4731724,4.6704662-6.3298003,9.7203219-8.6787257,15.0536227-1.6132457,3.6629234-3.0476713,7.3867661-4.295993,11.1944308-.84262,2.5701596-2.0814827,5.0079529-2.9987321,7.5569232-.6480495,1.8008602-1.0570363,3.688036-1.5619917,5.5396132-.0334133.1225142.0051503.2756889.0431102.4049366.5208457,1.7733059.03197,3.1728171-1.5539042,4.1864107-.8492056.5427583-1.7379004,1.0406996-2.6553188,1.4559762-1.6599014.7513699-3.356658,1.4209932-5.0332885,2.1358473-.3427415.1461242-.6567962.3591184-.9984781.5082546-.3031043.1322635-.619526.2783283-.9416968.3144947-1.1533162.1294478-2.3265882.1307166-3.4648629.3341778-2.3986523.4287523-4.7986051.4649467-7.2158056.2785459-2.4855399-.1916826-5.0087098-.1584823-7.4502001-.5913977-2.9906703-.5302901-5.9131957-1.4441918-8.8666173-2.1865191-.2252329-.0566209-.4786234-.1393869-.6904999-.0894051-1.8889284.4456277-3.7793752.2534546-5.6754874.0774078-1.735033-.1611046-3.4844095-.2029239-5.208874-.4352708-3.4286206-.4619586-6.5824727-1.7015605-9.4502921-3.6420936-.3029126-.2049574-.5295798-.5226276-.7555032-.7514327-.6656068-.0356862-1.3283983-.0389375-1.9833628-.1121725-2.3543805-.2632553-4.6082952-.9274069-6.8569353-1.6570456-2.7152769-.8810393-5.2000045-2.2211954-7.6854918-3.5772435-.170522-.093027-.356366-.1856352-.5447999-.2140582-2.9888621-.4509452-5.9020027-1.1773628-8.6228421-2.5209954-2.020893-.9979744-3.7488753-2.4417143-5.0635174-4.2373201-1.2808564-1.7495026-2.2031977-3.7225062-2.6198364-5.9140826-1.0865376-5.7152838-1.4370952-11.4694194-1.0716352-17.2701182.2203856-3.4980485.4077906-6.9996342.7159791-10.4902693.2978496-3.373502.8477645-6.727115,1.0767176-10.1037184.2970019-4.3802507.947705-8.7442966.6056592-13.1630783-.2934689-3.7912733-.4584802-7.5928478-.6542623-11.3912126-.0825683-1.6018519-.4938858-3.1239577-.9616146-4.6421183-.2780042-.9023406-.657057-1.7934419-.4206805-2.7835436.0348475-.1459645-.0861166-.3313506-.1416524-.4962559-.1573734-.4672768-.3803148-.9222944-.4659388-1.4020556-.2499714-1.4005965.2379061-2.3221453,1.5072329-2.9635813.3697417-.1868448.7502343-.3523956,1.1668617-.5468732-.0679995-.1687911-.1295341-.3291681-.1967402-.4871322-.5536536-1.3013853-.2349097-2.3597441.9411461-3.1448946.8815938-.5885702,1.87163-.8349732,2.9074808-.9525829.486257-.0552078.9697625-.1346737,1.5083538-.2107528-.1308796-.4468461-.2611476-.8165787-.3461287-1.1964576-.2163565-.9671043.2186401-1.7246212,1.2019566-1.7938486.8906147-.0626974,1.7990943.1156172,2.6983845.2014044.1716627.0163745.3372183.0967403.5526174.1617756.1408404-.4306364.2448247-.8489075.4114617-1.2405086.6757386-1.5879973,2.0917827-2.2105319,3.6956472-1.5713062.8232673.3281163,1.5880905.800531,2.3981854,1.1659085.1812552.0817526.5201096.0783611.6536021-.0381207,1.913894-1.6699799,4.1280911-2.2742529,6.6226195-1.9459627.0569406.0074979.1162688-.0031252.2168989-.0068767-.0200987-.1407089-.0287774-.2709837-.0581087-.3964211-.4256167-1.8195886.113264-3.3347482,1.5043984-4.5339597,1.0917737-.9411579,2.358753-1.5437238,3.8279932-1.5694262.4588282-.0080239.5454185-.2634722.6619656-.5973147.900799-2.580317,2.2592815-4.9025366,4.4971513-6.5006425,3.4964412-2.4968708,7.387405-3.5780407,11.6896379-2.6195785.3867954.0861696.5618469.0042685.7280317-.3506121,1.3184332-2.815468,3.218217-5.2134697,5.6631699-7.0892738,2.894034-2.2203398,6.157455-3.7578204,9.8945382-3.6967484,3.1647861.0517212,4.2029963.510378,6.3978531,3.1341527.1978289-.5267772.3737462-1.0159445.5642508-1.4993602,2.775758-7.0437286,6.7880542-13.3615347,11.2838245-19.4118307,4.4120901-5.9376828,10.0858207-10.0806756,17.1330786-12.2977512,4.2532461-1.3380813,8.538502-1.3744893,12.7985613.0420864,1.6765264.5574863,2.8258129,1.6343594,3.2546187,3.4920783.2401826-.2778125.3949036-.5523758.6293067-.7021818.256616-.1640058.5974145-.3081985.8811149-.2767961.1767258.0195624.4526593.3908286.4379325.5856699-.0198289.2622553-.2566838.5221971-.4368072.7549349-.2620943.3386575-.5566437.6521812-.8605596,1.00322.6980209.3772183,1.6917676.2698647,2.1971423-.1338945.3093908-.2471765.604162-.5218207.942904-.7202465.2827486-.1656318.6201635-.3252518.9328611-.3243012.2432658.0007385.5833287.1994001.6983081.409699.0953948.1744692-.0292328.516857-.1415653.7424285-.0903285.1813869-.3338441.279913-.4623257.4506396-.1349345.179304-.342615.4540457-.2860382.5909199.0781447.1890648.3624429.3799016.5788851.4070283.4849741.0607823.9831701.0362641,1.4748229.016967.3550703-.0139393.707755-.1031125,1.0624481-.1100947.8240112-.0162137,1.4613418.3728792,1.705352,1.0454783.2719389.749568.0602905,1.4000811-.4736215,1.9635689-.0543094.0573223-.1120074.1143102-.1770932.1581274-1.4168749.9537175-2.9322484.8708438-4.4422948.3325032-1.3386258-.4772291-2.150953-1.4437282-2.3020373-2.9001558-.0059457-.0573583-.0237377-.113482-.025873-.1233318-.6375923-.0658165-1.2797576-.0368378-1.8568976-.2166068-.6707591-.2089307-.8221667-.8484654-.8022251-1.5913339-1.1181387.3862986-1.8680999-.2603136-2.6197831-.8777919-1.2467013-1.0241199-2.7532512-1.2535297-4.2791511-1.4089214-4.5945365-.4678887-8.7875759.8482338-12.7711358,2.9755088-4.0394318,2.1571079-7.2423561,5.2628799-10.0198085,8.8766954-4.9757511,6.474095-9.1749694,13.4432231-13.2689353,20.4849128-.2623402.4512183-.1577445.7885923.1505737,1.1190706.3233112.346547.6483154.4476561,1.1471992.215527,2.4605298-1.1448898,5.0587423-1.6465023,7.7530919-1.2425908,4.4530048.6675557,7.3739071,3.4709144,8.4265304,8.1476434,1.0544931,4.6850587-.0498685,8.9150324-2.9955837,12.6811365-.1449864.1853557-.3203549.3536168-.5053103.4997861-.5878479.4646027-1.2757304.5312478-1.8266472.1963117-.5621132-.3417437-.8331888-.9515826-.620903-1.7130706.3135188-1.1247026.7783393-2.2097232,1.0534231-3.3420786.4382867-1.8042361.9152182-3.6181558,1.1147016-5.4562968.2269807-2.0915158-.5233362-4.0412178-1.5974447-5.808931-.7553214-1.2430587-2.0795566-1.8020626-3.4027405-2.2541863-1.5486335-.5291516-3.1521362-.6121463-4.7531986-.3039275-1.2599434.2425531-2.490285.6510465-3.7549891.8524776-.7902329.1258583-1.5780392-.1689021-2.1764747-.7348587-.5445588-.5150027-1.0251388-1.098535-1.5237192-1.6609071-.2099099-.2367662-.3972555-.4940149-.5886309-.7466704-1.2672508-1.6730626-2.9685482-2.211028-4.9922243-1.9216791-2.1699804.3102793-4.1336731,1.1529415-5.8393117,2.4951223-2.4494736,1.9275045-4.4234591,4.2894233-5.5933643,7.1983077-1.247349,3.1014475-1.5151883,6.3406304-.319734,9.5003194.7657628,2.0239756,1.8630035,3.9303579,2.9092122,5.8358533.3580705.6521613.9821217,1.1744908,1.5427094,1.6933832.3759523.3479916.4027142.6151991.0987408,1.0029961-.8371687,1.0680195-1.9923617,1.2637839-3.2116256.4525976-2.0400493-1.3572484-3.5486479-3.1910117-4.375282-5.4870519-1.4240092-3.9553282-1.6832991-8.0013396-.6083883-12.0986033.0251001-.0956809.0508939-.1914096.0695391-.2884261.0070937-.036896-.0050717-.0774903-.0176423-.221719ZM11.5558318,84.049064c-.9077199-1.3621329-2.1760693-2.2803818-3.6556562-2.918331-.6434228-.2774354-1.1095187-.189313-1.0953324.6455028.0065643.3861914-.1961209.9106922-.4869099,1.1327044-.3530115.2695254-.3844473.511136-.3739089.8773005.1874715,6.5147698.4214265,13.023169-.4464958,19.5234987-.5029092,3.7665623-.7016467,7.572911-1.081499,11.3569173-.4074645,4.0590745-.9143725,8.1085374-1.2917197,12.1702004-.4955289,5.3337457-.0595011,10.5956896,1.3737558,15.7736196.5056961,1.8269876,1.0653948,3.6533149,1.1408771,5.5753445.005739.146198.1475825.3218769.2745154.4233049,2.3516829,1.8790734,4.8333401,3.5125864,7.7954505,4.3020827,1.2793012.3409965,2.5280775.7995532,3.7834427,1.2261335.7065755.2400877,1.2405201.6666933,1.4746926,1.4294837.0674723.2197542.284728.440353.491261.5628231,1.2417579.7363982,2.4990619,1.4466927,3.7557397,2.1576293.108641.0614673.2504841.0642156.3278652.0825969.399895-1.2704715.732282-2.5139777,1.1807302-3.7140985,1.1021031-2.9494116,2.368133-5.8405614,2.9920561-8.9507404.4793347-2.3894204.9989789-4.7707428,1.4777034-7.1602634,1.1320241-5.6504327,2.4437536-11.2683984,2.985282-17.0251695.0694521-.7383231.4624593-1.4501453.7401984-2.1607158.0417874-.1069024.2740503-.1393441.4181979-.2062202.0265359.1430064.089329.2901643.0734883.4283118-.0786097.685522-.2893581,1.3748533-.2518897,2.051632.239398,4.3242938-.3157377,8.5825145-1.0599829,12.8171501-.6308919,3.5896848-1.3110483,7.1749038-2.1187172,10.7281619-.8163333,3.5913813-1.7929402,7.1473168-2.7490554,10.7054044-.3107124,1.156296-.7780977,2.2704815-1.1780664,3.4160795,1.6619345.642165,3.3842581.8359408,5.1344783.8529833,1.584277.0154179,2.9122101.5150543,3.6574674,1.8356933.7692363.1827266,1.4535305.2450835,2.051977.5050835,2.3649779,1.027487,4.8163182,1.7192581,7.3806614,1.941656,3.471258.3010215,6.9487169.5302855,10.4229849.7973166,1.0669473.0820223,2.1581349.1177296,3.0170556.8903414.7309774.6574854,1.5937823,1.0531394,2.5404804,1.214966,1.6376433.2799703,3.2849333.5064884,4.9319169.7275773.7273575.0976381,1.4638528.1272004,2.0551118.1760071-.180347-.6473803-.5361961-1.257997-.4717737-1.8205112.1817174-1.5867368.3332681-3.2257297.8619067-4.714421,1.3579153-3.8239614,2.9380088-7.5683635,4.3832684-11.3621172,1.6708827-4.386014,3.3339262-8.7759194,4.919975-13.193007.9473784-2.6383798,1.9895574-5.2146112,3.6018959-7.5250137.2794761-.4004648.6103122-.7650802.917429-1.1462668l.1480011.0988529c-.0801774.3375282-.1425035.6805055-.2434181,1.011735-.6750952,2.2158546-1.3360193,4.4364184-2.0442574,6.6417144-1.0958783,3.4123563-2.0948601,6.8638141-3.3719472,10.2081633-1.9465515,5.097524-3.8001633,10.2109628-4.9284379,15.5632017-.2410135,1.1432797-.5078365,2.2866058-.858653,3.3996845-.3207132,1.0175605-.459128,2.1427178-1.4651602,2.9305666,2.3876853.2822377,4.7221963-.4095382,6.9634069.4499508.0709814-.2988152.1082761-.4701976.1524951-.6397711.6194681-2.3754401,1.0872083-4.8039017,1.8933319-7.1142634,1.4612451-4.1879649,3.1321774-8.3025008,4.7006629-12.4533385,1.4565715-3.8547182,2.9589715-7.6896425,5.04313-11.26025,1.4450685-2.4757085,2.5533541-5.0930844,3.3842856-7.8279842,1.6641074-5.4771445,4.0408376-10.6162804,7.2066307-15.3882982.4903934-.7391952.966619-1.4877912,1.542821-2.3760645-.3903403-.0927225-.7380913-.2991772-.9686722-.2082573-.9067781.3575471-1.3489948.3512465-2.0269796-.3366671-.4842969-.4913998-.8847845-1.0644637-1.3368492-1.5888509-.6718773-.7794036-.7120459-.7691457-1.654105-.3471889-.4202651.1882347-.7299908.4341202-.8976892.8807129-.1170744.3117839-.2996238.6040607-.4839377.8846757-1.1090422,1.6885422-2.2102931,3.3825906-3.3456485,5.0533933-2.2067206,3.2474225-4.1691095,6.6360297-5.938946,10.1386756-.1234846.2443865-.2810809.4715237-.4228165.7066809l-.1482191-.0579027c-.0098229-.1460939-.059292-.3028737-.0232858-.4366488.3288425-1.2218031.4974886-2.5251235,1.0434022-3.6432301,1.9619342-4.0182325,4.0537771-7.9730044,6.0905738-11.9547956.0708225-.1384559.0783037-.3093257.1503167-.6124839-.943671.9436699-1.4253911.9209953-2.2345122.0303586-.266431-.2932757-.5311212-.588197-.801583-.8777228-.3804638-.4073061-.8632789-.5797233-1.4013846-.4893319-1.287135.2162345-2.4119413.8228208-3.1010454,1.9120611-1.7568999,2.7770538-3.4734106,5.5833299-5.0994329,8.4386667-2.2954944,4.0309462-4.3145939,8.1873798-5.6599882,12.6592459-1.2209431,4.0582254-2.6403788,8.0563045-3.9062929,12.1015496-1.1827328,3.7794378-2.3120621,7.5765149-3.3995851,11.3844778-.5927959,2.0756786-1.0466126,4.1909508-1.5697556,6.2866963-.2439615.9773183-.4895053,1.9547979-.7694342,2.9220505-.0505081.1745103-.265057.4116338-.4158821.4207474-.2173167.0131336-.5706831-.0990359-.6434512-.2590226-.1555623-.3420055-.2770271-.76548-.2222228-1.1267463.4068521-2.6821033.7821256-5.3728418,1.3158927-8.0310341,1.0219771-5.0893712,3.0032735-9.8880024,4.6577056-14.7835851.9699052-2.8700135,2.039436-5.7065738,3.0783772-8.5529816.8346055-2.2865865,1.5215314-4.6469424,2.5743403-6.8296381,1.8560442-3.8479775,3.9379284-7.5871318,5.9324562-11.3680602.5316997-1.007907,1.0895468-2.0020232,1.6296103-2.9918889-1.0229888-.7401822-1.2865995-1.0537142-1.8130735-2.3024339-.1497513-.3551653-.3349959-.4955413-.7144423-.4312622-.5463022.0925252-1.0964955.2093122-1.6469804.2206677-1.4544523.0300284-1.7467221.1744222-2.2721967-1.1193219-.1725173-.4247619-.5008523-.6505968-.9801414-.622844-.5329848.0308733-1.0666218.0776165-1.5996941.0742262-1.0670936-.0068047-2.1427011.0337556-3.1988873-.0857501-1.4648035-.1657425-2.657071-.9594747-3.7774541-1.8798695-.4520525-.371373-.9691576-.6721289-1.4835846-.9562463-.413233-.2282239-.6555373-.0945136-.7868678.4082776-.8614547,3.2978495-1.8001927,6.5760428-2.6261298,9.8825232-1.6421149,6.5739489-2.9868028,13.2227421-5.0679853,19.6852316-1.0932097,3.3946229-2.025343,6.8424737-3.1710064,10.2185042-1.2691815,3.7400279-2.3899879,7.5118696-3.1949388,11.3790623-.4280566,2.0565312-.901736,4.1036425-1.3675387,6.1521325-.087432.3845209-.1695367.7971346-.3752069,1.1194901-.169391.2654866-.5209528.5796409-.7866432.5750916-.3014698-.0051703-.7017097-.2773227-.8680139-.5499623-.1914814-.3139374-.2722344-.7665349-.229852-1.1394655.1583513-1.3934546.255142-2.8139464.6134317-4.1608769,1.0998101-4.1346414,2.3273808-8.2350846,3.4701622-12.3585635.6190692-2.2337886,1.1413724-4.4943233,1.7514238-6.7307464,1.5957767-5.8500393,3.300457-11.671837,4.8017928-17.5457574,1.4298695-5.594289,3.0528902-11.117846,5.133386-16.5047941.0294863-.0763425.018913-.1681617.0269961-.2523636-.6060545-.0018745-1.1673486-.0278742-1.7260849-.0008723-1.8014074.087075-3.4513636-.2116434-4.5982663-1.7839022-.4210109-.5771706-1.0066561-.7477914-1.6604991-.7555418-.8309472-.0098478-1.662709.0087734-2.4934665.0354591-.6868569.0220596-1.261551-.1091505-1.4952632-.9207714-.1052173.2270162-.156544.4355228-.1500606.642207.027848.8880677.1822204,1.7872635.0891616,2.6609792-.2117034,1.9876564-.5373333,3.963365-.825114,5.942693-.3278824,2.2551671-.6519908,4.5121707-1.4453148,6.6660561-.0798574.2168215-.2102254.4150348-.3171502.6218756-.0555425-.0127163-.1110883-.0254184-.1666343-.0381355-.0247214-.2048692-.0750703-.4103799-.0699282-.6144965.028842-1.144695.0468258-2.2904624.113113-3.4332753.232708-4.0119878.486025-8.022773.7194657-12.034721.0101149-.1738251-.0476409-.4028497-.1613082-.5240073-.5820464-.6204293-1.2077393-1.1998996-1.7897405-1.8203778-.7143049-.7615356-1.5748172-1.0913597-2.6118084-1.0259821-1.2052905.0759952-2.4118043.1375477-3.6186688.1802466-.3096487.0109558-.4071297.1168933-.4240696.4158258-.0861653,1.5208356-.1594084,3.0434428-.2966146,4.5600694-.1694453,1.8729951-.3371542,3.7526993-1.0309285,5.5293887-.1275424.3266202-.2960889.6372186-.4457087.9552224-.0545129-.0182907-.1090224-.0365956-.1635353-.0548863-.0169703-.1477171-.0499241-.2955903-.048397-.4431061.0126958-1.2246706.0055369-2.4503124.0543406-3.6736721.1029754-2.5811104-.2334268-5.1934881.5289092-7.7301531.0210415-.0700079.0213309-.163238-.0073394-.2287015-.5951069-1.3583889-1.4302445-2.4093211-3.0721139-2.502862-.5546079-.0316032-1.0006989-.0152046-1.4365543.4510063-.7463396.7983218-2.0402968.5231055-2.3564487-.5195164-.3588036-1.1832496-1.1267812-1.9675391-2.0814893-2.6499775-1.1205476-.8009865-2.1920367-.8361326-3.3151295-.1284996.1628347,1.1108859.360731,2.1816381.4705337,3.2613504.3585733,3.5259689.5460212,7.0520888.455858,10.6076891-.0775635,3.058826.1772774,6.1272611.3158611,9.1900434.1592101,3.5185393-.1452016,7.0098179-.6780326,10.4760219-.6499488,4.2281039-1.3667332,8.4473741-2.1444751,12.6538503-.5221532,2.8240787-1.2561331,5.6088061-1.7875615,8.4314276-.3142635,1.6691706-.7470131,3.2826671-1.4558428,4.8195414-.2219514.4812276-.4885141.9531263-.8060426,1.3756318-.2794383.3717963-.7165499.5097229-1.1755148.3370775-.4507687-.1695347-.6803957-.5346992-.7040712-1.0109802-.0116926-.2352114-.0100538-.4812219.0452031-.7077963.2017531-.8272609.407758-1.6545712.6496582-2.4707586,1.0072772-3.3986377,2.140721-6.7648137,3.0080557-10.1984246.67764-2.6826396,1.1114923-5.4354392,1.5102633-8.1779212.6296034-4.3300106,1.2236577-8.6689431,1.6642068-13.0211381.2261896-2.2345317.1347565-4.5066288.1032664-6.7605628-.053556-3.8335582.1110228-7.6721553-.4425879-11.4940616-.3200065-2.2092287-.4337728-4.4489189-.6180842-6.6767563-.0333991-.4036742.04113-.8163044.0686004-1.2705288-.7313065-.1983954-1.1144566-.8168476-1.3814695-1.5154319-.1902196-.4976765-.3209234-1.0188379-.4654321-1.5331101-.2404297-.8556359-.5555715-1.1599081-1.4395407-1.0867692-.6791937.0561981-1.3655543.2300739-2.0101265.4599512-1.5050872.5367766-2.3600398.3062348-3.004529-1.153968-.4223528-.9568694-1.0418935-1.6993187-1.7531706-2.4095168l.0163608.0241337Zm91.5373001,25.9310839c.2887426.6668025.0853684,1.2551045-.2454359,1.8188063-.2905505.4951243-.5766864.9941769-.8943817,1.471797-1.3708963,2.0610091-2.7770496,4.0989463-4.1247064,6.1749354-1.9716317,3.0372086-4.1298764,5.9697867-5.6274168,9.2863432-.9837268,2.1786345-1.8137734,4.4267194-2.7106176,6.6445386-1.0310552,2.5497487-2.1785732,5.0600003-3.0635527,7.6595628-1.5695309,4.6103843-3.0039237,9.2675516-4.4465475,13.9201227-.9091225,2.9319743-1.7218587,5.8937378-2.5962319,8.8366672-.2634087.8865917-.5885441,1.7548203-.9490861,2.8195138,1.1696956-.3825503,2.1810971-.6987351,3.1770903-1.0576871.123422-.0444945.1984505-.3087917.2385341-.4843161.1584764-.6938998.2213248-1.4183637.4533195-2.0849521.4878192-1.4016571,1.0463283-2.7794498,1.6002581-4.1572113,1.2701437-3.1591024,2.4664155-6.3519713,3.8571405-9.4574534,1.584872-3.5390181,3.4522757-6.9524488,5.0092555-10.5027477,2.1633687-4.9330712,4.2768419-9.8827246,6.9095611-14.5925046,1.8548901-3.31827,3.600989-6.6979087,5.8516604-9.7812083,1.4125604-1.9351413,2.7684489-3.9116835,4.1471257-5.8715027.1086985-.1545105.196736-.3235527.3467747-.5729413-.5748639.1561213-1.0426846.2929304-1.5155158.409324-.7314243.180054-1.402449.0685074-2.0221696-.3923647-1.3126773-.9762413-1.9069472-.9902371-3.3950578-.0867216ZM15.0176048,85.6188111c.5427614-.1781007,1.0017258-.3657295,1.4786231-.4750173.4989222-.1143438,1.0131442-.1936826,1.5240458-.2183202,2.1895188-.1056006,3.3839226.8042517,3.8809246,2.9321007.1520442.6509524.2817015,1.3071433.440234,2.0479747,1.0283401-.6782693,2.0842792-1.0653114,3.3759195-.9388151-1.5515447-2.6301863-.587797-4.6082659,1.4226457-6.3701482-.3337759-.1838873-.5934299-.3188117-.8453007-.4669721-2.0965138-1.2333166-4.2748565-2.3495843-6.2645112-3.7365203-2.1404077-1.4920304-2.6941745-3.7343837-1.7545492-6.1673649.3864211-1.0005645.9568996-1.930043,1.4039901-2.8134746-.6711463-1.0827086-1.3509503-2.1793879-2.0259805-3.2683607-2.6098722.2618394-4.8000729,1.5188691-6.6826271,3.3942011-.8545575.8512696-1.3396471,1.8510605-1.3734892,3.0610916-.0204833.7323266.044574,1.4784225-.076754,2.193225-.1129558.6654716-.3545102,1.3323108-.6639963,1.9345212-.2919559.5681031-.6777077.6073396-1.0728616.1147564-.4383006-.5463484-.904224-1.1504661-1.0899181-1.8055176-.7289983-2.5716486-.3905315-5.0044832,1.5725683-6.9332637,1.1327867-1.112985,2.4996067-1.988651,3.7714628-2.9575019.1280892-.0975776.3280689-.1007146.4946846-.1476835-.0367963-.0553528-.0735918-.1107129-.110389-.166066-.7950821-.2353588-1.5901633-.4707174-2.4478929-.7246281.042727.3630752.0894451.6148727.099231.868103.0448411,1.1600643-.4077509,1.6811391-1.5533934,1.8140211-.6880344.0798064-1.378502.1463745-2.0618107.2565628-.5054134.0815058-1.0194592.1739122-1.496822.3503592-.7660799.2831672-.8130034.4914514-.4027547,1.1874526.1706036.2894096.3758566.5654449.5000767.8738717.435759,1.0819482-.1365788,1.9536301-1.2920699,2.0206479-.2337071.0135523-.4673186.0688976-.6956514.1262056-.3833978.096233-.418572.3081961-.2709484.6660713.7067298,1.7132854,1.4044226,3.430825,2.0673513,5.1614134.2753121.7187067.4551546,1.4739479.6803795,2.2119783.0427453.140053.0947609.2772799.1485682.4334191.8731298-.6696676,1.4669047-.835449,2.4798098-.4894412.7785468.2659723,1.5559095.6115111,2.2387483,1.0648837,1.2176638.8084637,2.3678764,1.71933,3.5372726,2.599369.4791904.3606009.7604957.8359281.8099777,1.4577132.0238791.300027.1620209.590954.2552068.9091527Zm32.660451,14.6424736c1.9394711-.7151371,3.869122-.9288111,5.7834241-.0794609,1.6609202.7369239,3.2801798,1.5676576,4.9204603,2.3514534.1169962.0559021.2765275.1261531.3806417.0892176.8072357-.2863868,1.6057055-.5975054,2.4379212-.9127235-5.469614-1.6036414-10.9021328-3.3082945-16.2498016-5.7157128.7487038.7061299,1.3979605,1.2815065,2.0035586,1.8996672.6482118.6616459.873182,1.4838353.7237957,2.367559ZM13.6333685,64.3907322c1.0912006-.1795648,2.3398669-.3784233,3.584766-.5986179.1483982-.0262445.3657136-.1443751.3976338-.2616711.1169242-.4296554.1689955-.8769543.2497459-1.3421493-.805485-.2833529-1.5633785-.5684786-2.3333746-.8159324-.8753061-.2813099-.9858911-.1813125-1.2135825.7206046-.2003186.7934856-.4657434,1.5705433-.6851887,2.2977662Zm29.8732091,30.3463726c-2.2214609-.0565948-4.3954414-.1119824-6.6907039-.1704565.153697.3894353.2493215.6317151.3268674.8281987,1.1236308-.1679371,2.1712679-.4129074,3.2273435-.4575403,1.0596874-.0447821,2.1277852.1101695,3.2057006.1784367-.0193006-.1055826-.0499517-.2732755-.0692076-.3786386Z" stroke-width="0"/>
      <path d="m81.3139702,58.139349c.5498147.2634356,1.1329393.4749669,1.6420385.8018272.8814913.5659433,1.1906218,1.4433148.8793698,2.2386863-.2869873.7333807-1.0598068,1.1441523-2.0854939.9816239-2.6487618-.4197456-5.261792-.1440193-7.8446413.4179448-1.7968706.3909674-3.5452383,1.0022186-5.3388362,1.4117488-3.3402013.7626566-6.6977512,1.4814361-10.1585051,1.2521789-1.5581493-.1032265-3.1094555-.3099882-4.6636444-.471882-.097956-.0101982-.1961169-.0317476-.2905436-.0601313-.3525631-.1059433-.7241323-.2354103-.6761392-.690534.048743-.4621895.4488959-.5051894.8115707-.5217375,1.5598213-.0711793,3.1338989-.0226208,4.6774634-.2179893,3.4647654-.4385112,6.8267023-1.3677265,10.1693087-2.3626486,2.7892808-.8302229,5.58004-1.6566853,8.3819195-2.4428315,1.4585109-.4092276,2.9489558-.6139169,4.4961331-.3362557Z" stroke-width="0"/>
      <path d="m56.0665283,47.4019476c.9993015-2.748578,2.8861617-5.1756303,5.8710829-6.6404223.4695821-.230443,1.0827751-.3164863,1.6064187-.2589132,1.2881872.1416374,1.912762,1.4577023,1.274872,2.5872523-.1918597.3397286-.4892863.6185971-.7273722.9336442-1.0133561,1.3408925-2.0788187,2.6474295-3.0090381,4.043951-.4487621.6737202-.7058119,1.5003231-.9302462,2.2915716-.2417624.8523431-.6211679,1.5015364-1.5434787,1.6788302-.864286.1661373-1.7945297-.2626876-2.2927659-1.0546777-.6400563-1.0174313-.5581192-2.1135179-.2494725-3.5812361Z" stroke-width="0"/>
      <path d="m11.539471,84.0249303c1.0912032,3.1556422.9611967,6.4703363,1.1951612,9.728982.0753689,1.0496815-.3158104,2.1329399-.493559,3.2008361-.0671664.0114917-.1343326.0229908-.201499.0344825-.0772045-.12306-.2057072-.2389086-.2241332-.3702305-.4914935-3.5021577-.9735878-7.0056487-1.451512-10.5097009-.06667-.4888292-.1295407-.9810306-.1434503-1.4731055-.007604-.2690054.0068601-.6853099.1625676-.7762972.2093975-.122354.5664844-.0073535.8566144.0320219.1104417.0149845.2110065.1027035.3161216.1572082.0000494-.0000629-.0163113-.0241966-.0163113-.0241966Z" stroke-width="0"/>
      <path d="m44.6031913,120.6112208c-.0033227.3440121.012352.6894334-.0129484,1.0318357-.2214826,2.997767-.3451544,6.0077717-.7070813,8.988754-.3479501,2.8658622-1.009581,5.6922903-1.4180812,8.5524979-.7350824,5.1467782-2.0122283,10.1783111-3.1511987,15.2382054-.376529,1.6727472-.9918893,3.2939989-1.5423143,4.9238418-.1484071.4394327-.4143614.8598206-.7063067,1.2250202-.3803499.4757701-.9079165.7006531-1.5349674.5330956-.6231451-.1664954-1.007758-.6095074-1.0695054-1.2173904-.0588815-.5795543-.0599783-1.2005737.0845609-1.7591117.6248466-2.4145974,1.3222256-4.810324,1.9749572-7.2178649,1.0623033-3.9181893,2.0721499-7.8510326,3.1741557-11.7579406,1.3507517-4.7887913,2.4743035-9.6278073,3.4160938-14.5113721.176143-.9133937.3310615-1.8338136.5714403-2.7307101.1300317-.4851726.4199626-.9274832.6377638-1.3891359.0944749.0300961.1889534.0601931.2834316.0902751Z" stroke-width="0"/>
      <path d="m56.0028231,144.129331c.9818883-5.3651084,1.9072415-9.4440572,3.2916524-13.3978012,1.0927824-3.1208856,2.2823821-6.2088358,3.4761892-9.2931158.9865224-2.5487487,2.0111577-5.0839677,3.0837487-7.5975149.3779689-.8857734.9433978-1.692304,1.4345342-2.5283816.0988186-.1682418.2356891-.320059.3774975-.4559914.4008085-.3841989.8741712-.6018596,1.4005574-.3149312.484454.2640762.595546.7796017.4457014,1.2481164-.4456157,1.3932253-.8629551,2.8073869-1.4585869,4.1385003-1.7876317,3.9949334-3.7308861,7.9213723-5.466775,11.9379222-1.3890916,3.2141194-2.6351547,6.4956215-3.8052737,9.7966407-.6395986,1.8043746-1.0101334,3.7063841-1.4656661,5.5732375-.681013,2.7909233-1.370077,5.5809189-1.9820251,8.3873827-.7003906,3.2120364-1.312651,6.443217-1.9800952,9.6625574-.172794.8334536-.4034491,1.6551919-.6177387,2.4796539-.1270061.4886367-.4231979.818525-.9565474.8168668-.5724496-.00177-.9625339-.3269104-1.0401999-.8728195-.0653413-.4592019-.0743788-.9672932.0540144-1.4062578.60036-2.0525752,1.2305911-4.097428,1.9027006-6.1276478.447274-1.3510685,1.0097402-2.6638222,1.4662836-4.0121218.1887243-.5573675.2146854-1.1677072.3499678-1.7456923.5871343-2.5085288,1.1872903-5.0140092,1.4900608-6.2886027Z" stroke-width="0"/>
      <path d="m12.3853112,102.2524062c.0450813.3721168.0789043.6385322.1093683.9053433.0671717.5882975.0558351,1.1980229.2114594,1.7617043.9135327,3.3088014.7611219,6.6820265.5222322,10.0332768-.2857055,4.0079929-.7621847,8.0027036-1.1768462,12.0009977-.0815474.7863294-.2745959,1.5604069-.3874752,2.344292-.473772,3.2902185-.9482484,6.580404-1.4000166,9.8737008-.4036541,2.9425569-.7746168,5.889582-1.1703393,8.8332471-.036471.2712928-.0852899.5798338-.2410836.7857791-.1731718.2289132-.4742003.493643-.7220592.4961644-.2481012.0025683-.6263532-.2467995-.7223023-.4789134-.1916374-.4635988-.2945016-.987756-.3189993-1.4924921-.1001461-2.0638901.0254937-4.1072403.4821484-6.1381931.7778719-3.4595472,1.3815591-6.9469675,1.6872193-10.4898137.4304361-4.989098.9654882-9.9692059,1.4607934-14.9526678.2506047-2.5214156.5670496-5.0378297.7472395-7.564095.1008841-1.4143719-.0491396-2.844926-.0191306-4.2667934.0130554-.6185231.1327209-1.2670475.9377918-1.6515371Z" stroke-width="0"/>
    </g>
  </g>
</svg>