<?xml version="1.0" encoding="UTF-8"?>
<svg id="Layer_2" data-name="Layer 2" xmlns="http://www.w3.org/2000/svg" viewBox="0 0 164.7137193 229.3368977">
  <g id="Layer_1-2" data-name="Layer 1">
    <path d="m164.7002939,225.7020483c.0016558-.2348172.0013547-.4702364.0010537-.6978285l-.0103861-.2372256c-.0233312-.0367278-.0475655-.0746598-.0624674-.1222253-.1658773-.5316502-.4428411-.9970698-.7122787-1.427568-.2221732-.3558383-.4902561-.6857866-.7496087-1.004295-.0933248-.1150002-.1866495-.2300004-.2780175-.3462048-.3579457-.454582-.7673705-.7911532-1.2169851-.9994782-.0707462-.0325131-.1405893-.0668326-.2102818-.1005499-.113495-.0553928-.2269899-.1101834-.3427428-.1601574-.1351704-.0578011-.2828343-.0860996-.439078-.1162044-.1572974-.0307069-.3198631-.0620158-.47987-.1258379-.078881-.0319111-.19252-.0222775-.312939-.0138482-.06322.0054189-.1217738.0258901-.1874022.0090314-.0717999-.0108377-.1268916.0054189-.1913158.0114398-.1681351.0138482-.3418396.0301048-.4979328-.0403404-.2033577-.0927227-.4148437-.0867017-.6376189-.0782724-.0880564.0030105-.1761129.0048168-.2641693.0024084-.0773692-.0030105-.1550395-.0006021-.2325593.0030105-.0868522.0024084-.1732529.0048168-.2604062.0024084-.0349215-.0048168-.0714988.0018063-.1085277.0042147-.1341167.0084293-.3004456.0204712-.4721932-.101152l-.0523823-.0373299-.0103861-.06322c-.0273953-.1661783-.0227291-.3401838-.0182134-.5081684.0016558-.06322.0033115-.12644.0033115-.18966l-.0015052-8.7225547c0-.0596074.0051178-.1228274.0103861-.1860474.009784-.1150002.0198691-.2342151-.0135471-.2998435-.1320094-.2595031-.1256874-.5226187-.1202685-.7544254.0016558-.0674347.0033115-.1342673.0015052-.2010998-.0118914-.4624092-.0136977-.9248184-.015504-1.3878297l-.0030105-.5840324c-.000301-.0403404.003161-.0836912.0069241-.12644.0043652-.050576.0109882-.1270421-.0015052-.1511259-.1496207-.2884037-.1410408-.5786136-.1329125-.85919.0022579-.0788745.0046662-.157749.0030105-.2360214-.0105367-.5045559-.0130956-1.0097138-.015504-1.5148718l-.0040641-.6671216c-.000301-.0391362.0030105-.081885.006623-.1240316.0039136-.0457592.0103861-.1216233.0001505-.1420945-.1506744-.2438486-.1392345-.4979328-.1289989-.7225144.0027094-.0590053.0054189-.1174086.0049673-.1752097-.0084293-1.2276723-.0120419-2.4559468-.015805-3.6836191l-.006623-1.9441657c-.0001505-.0397383.0012042-.0812829.0027094-.1228274.0039136-.1095813.0079778-.2227753-.0251375-.290812-.0964858-.1986915-.0969373-.3847389-.0972384-.5647654l-.0001505-.0445551c-.00286-.5533256-.0024084-1.1066512-.0019568-1.6292699l.000301-.5087705-.1557922-.3552362-.000301-1.4841649c0-.0391362.003462-.0806808.0072251-.1228274.0042147-.0463613.0111388-.1234295.0006021-.1445029-.1500723-.2474612-.1423955-.5069642-.135622-.7357605.0022579-.0746598.0045157-.1493196.0010537-.2233774-.0108377-.2287962-.0118914-.4581945-.012945-.6875928-.0006021-.1240316-.0012042-.2480633-.003462-.3720949-.0006021-.0343194.0012042-.0710472.0030105-.1083772.0024084-.0463613.0067736-.132461-.006322-.1535343-.1262895-.1968852-.1235801-.3985871-.1211717-.5762052.0006021-.037932.0010537-.075864.000301-.113796-.0069241-.3281419-.009784-.6574881-.012644-.9862321l-.0039136-.4214667c-.0004516-.0415446.0033115-.0854975.0075262-.1300526.0040641-.0445551.0109882-.1186128.0013547-.1396861-.1551901-.2558905-.1435997-.5250271-.1335146-.7622527.00286-.0674347.0058704-.1348693.0048168-.2017019-.0112893-.7237186-.0144503-1.4486413-.0174608-2.1735641l-.0040641-.8519649c-.000301-.0481676.0039136-.0987436.0082788-.1493196.0064725-.0752619.0139987-.1613615-.0055694-.2010998-.1384819-.2811785-.1321599-.5611528-.126139-.8320957.0019568-.0860996.0039136-.1721993.0007526-.2576968-.0102356-.2685345-.0118914-.5376711-.0133966-.8062056l-.0033115-.3937703c-.0006021-.0385341.0024084-.0806808.0057199-.1222253.003462-.0457592.009483-.1222253-.0010537-.1432987-.1429976-.2269899-.1368262-.4642155-.1312568-.6737446.0019568-.0722514.0040641-.1445029-.0007526-.2155501-.0132461-.1974873-.0147513-.3967808-.0162566-.5954723l-.0024084-.214948c-.1404387-.2474612-.1323104-.5123831-.1250853-.7478024.0025589-.0806808.0051178-.1613615.0015052-.2408381-.0099346-.2173564-.0073757-.4365191-.0051178-.6352105l.0016558-.1938747-.148567-.3365713-.000301-1.2704211c0-.0319111.00286-.0668326.0061715-.1017541.00286-.031309.0076767-.0836912.00286-.0999478-.1578995-.2474612-.1466102-.517802-.1366756-.7562317.00286-.0674347.0057199-.1354714.0043652-.202304-.0111388-.5653675-.0136977-1.1313371-.0164071-1.6973067l-.0037631-.6960222c-.000301-.0415446.003462-.0848954.0073757-.1282463.0051178-.056597.0114398-.1270421-.0013547-.1529322-.1569964-.3185084-.142245-.6388231-.1280958-.9483001.0043652-.0957332.0088809-.1908642.0076767-.2859953-.0106872-.8640068-.0100851-1.7274114-.009483-2.5920203l.000301-.7158913-.000301-7.5502751.1228274-.2227753-.0001505-.0571991.0042147-1.0476458c.0061715-1.276442.0124935-2.552282.0201702-3.828122.0001505-.0385341-.0018063-.0788745-.0036126-.119817-.0064725-.1372777-.0136977-.2932204.0522318-.4286919.0651768-.1342673.0656284-.2679324.0662305-.4226709l.000301-.0578011c.0036126-.3588488.0025589-.7176976.0015052-1.0765464l-.0006021-.2576968c-.0001505-.0385341.003161-.0794766.0067736-.1210212.0039136-.0457592.0103861-.1222253,0-.1432987-.1238811-.2004977-.1234295-.4052101-.1231285-.5858387l-.0018063-11.2176376c0-.0307069-.0033115-.0638221-.0064725-.0963352-.0100851-.1041625-.0213744-.2221732.037932-.3269378.107474-.1914663.1002489-.4009955.0925722-.6231686-.0030105-.0903143-.006021-.1800265-.0022579-.2697387.0117409-.278168.012945-.5575403.0141492-.8363104.0006021-.1420945.0012042-.2835869.003161-.4256814.0004516-.0289006-.0019568-.0596074-.0040641-.0909164-.0073757-.1083772-.015805-.2312046.0514791-.334765.0847449-.1306547.0814334-.2733513.0776703-.4383254-.0013547-.0553928-.0025589-.1107855-.0006021-.1661783.0084293-.2492675.0105367-.499137.0124935-.7484045.0015052-.1721993.00286-.3437964.006322-.5159957l.0001505-.0644242c-.0006021-.1119897-.0015052-.2396339.0623169-.3492153.0576506-.0993457.0584032-.2071208.0591559-.3317545l.0009031-.0710472c.0046662-.2077229.0072251-.4154458.0099346-.6237707l.0072251-.5015454c.0004516-.0276964-.0010537-.056597-.0025589-.0860996-.0054189-.1083772-.0114398-.2306025.0535865-.334765.078724-.1270421.0764661-.2637177.0739072-.4220688l-.0009031-.1125918c.0043652-.3871473.0036126-.7748967.0027094-1.1493999l-.0006021-.4726448.1348693-.2408381.0006021-3.380163c.0015052-.0385341.0037631-.1029583-.0048168-.1216233-.1274937-.1908642-.1219243-.3901578-.1171075-.5653675.0010537-.0421467.0022579-.0836912.0013547-.1258379-.0073757-.3443985-.0100851-.688797-.0127945-1.0337976l-.0039136-.4437442c-.0004516-.0409425.00286-.0836912.0061715-.12644.0048168-.0608116.0103861-.1294505-.003462-.1589532-.142245-.303456-.1381809-.6111267-.1342673-.9079597.0016558-.1270421.0036126-.2546863-.0073757-.3805242-.0030105-.0331152-.0009031-.069241.0018063-.1047646.0013547-.0180629.0033115-.0451571.0018063-.0541886-.145105-.2366235-.1405893-.5081684-.1365251-.7472003.0013547-.0867017.0030105-.1734034-.0030105-.258901-.0087304-.119817-.006322-.2414402-.0040641-.3450006l.0010537-.0722514-.1439008-.3251315.0001505-.2679324-.0004516-.6544776c-.0001505-.0391362.0033115-.0812829.0070746-.1240316.0042147-.0457592.0109882-.1228274.0004516-.1439008-.1508249-.2486654-.1426966-.5099747-.135622-.7405772.0022579-.0734556.0046662-.1469113.0016558-.2191627-.0105367-.2522779-.0121924-.5057601-.0138482-.7586401-.0009031-.1469113-.0018063-.2938225-.0045157-.4401317l-.0006021-.069241c-.000301-.1246337-.0007526-.2324088-.0578011-.3299482-.0657789-.1113876-.0635211-.2438486-.0614137-.3606551l.0006021-.0553928c-.0018063-1.1072533-.0016558-2.2139044-.0015052-3.3157388v-.8646089l.1386324-.2480633-.0001505-.3365713c-.000301-.3811263-.0006021-.7839281.0013547-1.1873319l-.0022579-.0770682c-.0048168-.1119897-.0103861-.2396339.0571991-.3468069.0725525-.1150002.0711978-.2414402.069542-.3871473-.0004516-.050576-.0009031-.1017541.0013547-.1523301.0042147-.0915185-.0006021-.1848433-.0051178-.2787701-.009784-.1998956-.0198691-.4070164.0462108-.6026974.0829386-.2450528.0901638-.4907077.0978405-.7502108.003161-.1047646.006322-.2089271.0142998-.3136917.0013547-.0174608-.0009031-.0361257-.0024084-.0547907-.0049673-.0614137-.0117409-.145105.0335668-.2215711.1053667-.1776181.1029583-.3781159.1002489-.5906555-.0012042-.1017541-.0021073-.2029061.0069241-.303456.0024084-.0264922-.0004516-.0547907-.0025589-.0824871-.0054189-.0740577-.0121924-.1661783.0317605-.2522779.1145486-.2251836.1104845-.4684301.1061193-.7261269-.0021073-.1300526-.0040641-.2595031.0076767-.3877494.0024084-.0258901-.0009031-.0541886-.0033115-.081885-.006623-.0782724-.0150524-.1752097.0382331-.2625136.1113876-.1812307.1047646-.3745033.0969373-.5990848-.0033115-.0969373-.0064725-.1938747-.000301-.2902099.0121924-.1920684.012945-.3841368.0136977-.5762052l.0212239-.3329587c.1336652-.2408381.1220748-.5063622.1097319-.7869386-.0046662-.1035604-.0090314-.2071208-.0067736-.309477.0130956-.5804199.0138482-1.1608397.0147513-1.7412596l.0018063-.7176976c.0001505-.0319111-.0030105-.0656284-.0058704-.0987436-.0084293-.0975394-.0180629-.208325.0289006-.3130896.1280958-.2853932.1113876-.5828283.0934753-.8983262-.0096335-.1721993-.0197186-.3498174-.0052683-.5292418-.1413419-.2799743-.1282463-.5665717-.1156023-.8435355.0042147-.0933248.0085799-.1866495.006021-.2787701-.012945-.4870951-.0152029-.9747923-.0174608-1.4624895l-.0039136-.6502629c-.000301-.0391362.00286-.0812829.0064725-.1234295.0037631-.0451571.0100851-.1216233-.0001505-.1426966-.1435997-.2312046-.1366756-.4732469-.1305042-.6857866.0019568-.0686389.0040641-.1372777.0006021-.2053145-.0102356-.2059166-.0114398-.4118332-.0124935-.6177498-.0006021-.1234295-.0013547-.2474612-.0040641-.3708907-.0006021-.0301048.0001505-.0620158.0010537-.0939269.0015052-.0602095.0037631-.1420945-.012945-.1697909-.1143981-.1848433-.1128929-.3714928-.1116887-.5364669v-.0830892c-.0040641-.3052623-.003161-.6105246-.0024084-.8917031l.0006021-.2751576-.1603079-.354032v-1.0753422c-.1404387-.2348172-.1329125-.486493-.1262895-.7104725.0027094-.0915185.0057199-.183037-.0024084-.2727492-.0054189-.0596074-.0018063-.1228274.0025589-.1860474.0046662-.0668326.0099346-.1426966-.0069241-.177016-.1381809-.2799743-.1353209-.5605507-.1326115-.8320957.0010537-.107173.0024084-.2137438-.006322-.3197126-.0040641-.0499739-.000301-.1047646.0040641-.1583511.003161-.0385341.0084293-.1029583.0007526-.1216233-.1523301-.2456549-.1442018-.5057601-.1369767-.7351584.0022579-.0752619.0048168-.1499217.0012042-.2239795-.0133966-.2805764-.0149019-.5617549-.0165576-.8435355l-.0025589-.3185084c-.1499217-.284189-.1369767-.5762052-.1243327-.85919.0040641-.0909164.0081283-.1812307.006021-.2709429-.0130956-.5605507-.0150524-1.1217036-.0168587-1.6822543l-.0033115-.7110746c-.000301-.0409425.003462-.0842933.0075262-.1276442.0040641-.0451571.0111388-.119817.0012042-.1408903-.1500723-.2450528-.1398366-.5027496-.1308052-.7297395.0022579-.0553928.0045157-.1113876.0042147-.1667804-.0079778-1.8472284-.0127945-3.6938547-.0177618-5.5410831l-.0078272-2.8292458c-.0001505-.0487697.0019568-.0987436.0040641-.1487175.0051178-.1258379.0105367-.2552884-.0269438-.3425922-.0912174-.2107334-.0912174-.4070164-.0912174-.5972785-.0018063-3.2181994-.0013547-6.4303779-.0007526-9.6431584,0-.0289006-.00286-.0608116-.0057199-.0921206-.009483-.1089793-.0201702-.2330109.0480171-.3371734.081885-.1246337.0772187-.2601052.0721009-.4178541-.0021073-.0626179-.0040641-.1252358-.0012042-.1878537.0036126-.0788745.0007526-.1583511-.0021073-.2378276-.0046662-.1336652-.009483-.2721471.0130956-.4118332.012945-.0788745-.016106-.1505238-.0526833-.2414402-.0394372-.0975394-.0842933-.208325-.0775198-.3443985.012343-.2450528.0072251-.4979328.0022579-.7423835l-.0049673-.303456c-.0009031-.1005499-.0046662-.2010998-.0084293-.3016497-.0084293-.2287962-.0173102-.4648176.0073757-.6996347.0176113-.1697909-.0213744-.3341629-.0626179-.5081684-.037631-.1589532-.0766166-.3233252-.0745093-.5009433.0022579-.1974873-.0016558-.3955766-.0055694-.593666l-.0043652-.246257c-.0010537-.0698431.0043652-.1426966.0099346-.214948.009784-.1300526.0200197-.2649219-.019267-.3462048-.119817-.2492675-.1189138-.4889014-.1180107-.720106.000301-.075864.0007526-.1511259-.0037631-.2269899-.0117409-.1974873-.012343-.3961787-.012945-.5948702-.0001505-.1083772-.0004516-.2167543-.0027094-.3251315-.0006021-.0337173.0007526-.069241.0022579-.1047646.0022579-.050576.0058704-.1354714-.0082788-.1583511-.1246337-.1974873-.1204191-.3991892-.116656-.5774094.0007526-.0373299.0016558-.0752619.0010537-.1125918-.0072251-.5184041-.0108377-1.036206-.0144503-1.5546101l-.0052683-.6972264c-.000301-.0397383.003161-.0824871.0067736-.1252358.0039136-.0451571.0105367-.1210212.000301-.1420945-.1469113-.2384297-.1375788-.4882993-.129601-.7086662.0024084-.0626179.0048168-.1246337.0033115-.1860474-.0108377-.4786658-.0130956-.9585357-.0153534-1.4378036l-.0036126-.6039016c-.000301-.0409425.003161-.0836912.0069241-.1270421.0043652-.0499739.0109882-.1258379-.0010537-.1487175-.1442018-.2691366-.1386324-.5394774-.1332136-.8007868.0016558-.0752619.003161-.1499217.0009031-.2239795-.009182-.2835869-.0069241-.5677759-.0048168-.8302894l.0015052-.2727492-.1550395-.3456027v-1.023562c-.1404387-.3450006-.1354714-.6966243-.1308052-1.0368081.0019568-.1432987.0042147-.2865974-.0054189-.4286919-.00286-.0433509-.0009031-.0897122.0015052-.1366756.0021073-.0421467.0057199-.1131939-.0040641-.132461-.1320094-.2041103-.1274937-.4136395-.123279-.5978806l.0013547-.0957332c-.0016558-1.8363907-.0006021-3.6733835.000301-5.5103762l.0006021-1.1012323c0-.0307069-.003462-.0638221-.006623-.0963352-.0103861-.1053667-.022127-.2251836.0398888-.3293461.1083772-.1836391.0997973-.3847389.0907659-.5978806-.0030105-.0728535-.006021-.1457071-.0049673-.2179585.0117409-.7634568.0146008-1.5263116.0176113-2.2891664l.0039136-.8748445c.0001505-.0391362-.0036126-.0800787-.0073757-.1210212-.0102356-.1150002-.0219765-.2450528.0346205-.3630635.1145486-.2396339.1070224-.492514.0988942-.7604464-.0027094-.0933248-.0055694-.1860474-.003462-.2787701.0124935-.5617549.0142998-1.1235098.0159555-1.6852648l.0030105-.7038494c.0001505-.0307069-.0033115-.0638221-.0064725-.0969373-.0103861-.1065709-.022127-.227592.0438024-.3311524.1035604-.1625657.0943784-.3359692.0838418-.5364669-.0036126-.0686389-.0070746-.1372777-.006322-.2047124.0109882-.9061534.0150524-1.812909.019267-2.7190624l.0069241-1.3607354c.000301-.0361257-.0010537-.0734556-.0022579-.1107855-.0045157-.1378798-.009784-.2938225.0525328-.4329065.0615642-.1372777.0666821-.2685345.0668326-.4130374l.0006021-4.0834104-.1256874-.2914141.000301-.3624614c.000301-.2673303.0006021-.5274355-.0007526-.7869386l-.0009031-.1740055c-.0015052-.3395818-.00286-.6785614-.0141492-1.0175411-.0024084-.0746598-.0206218-.1547385-.0415446-.2480633-.0114398-.0499739-.0231807-.1023562-.0337173-.1583511l-.0156545-.0824871.2626641-.2480633.0826376.0222775c.0425982.0108377.0812829.0234817.1172581.0343194.0594569.019267.1064203.0337173.145406.0355236.2050135.0096335.4130374.0102356.6186529.0018063.2783186-.0108377.5403805.0301048.802292.12644.3216694.1174086.6090194.1595553.8793602.1312568.1195159-.012644.2400855-.0114398.3487637-.0114398l.1606089-.0006021.0367278.0204712c.2516758.1426966.5150925.1974873.7938627.2558905.1523301.0319111.3030045.06322.4494641.1083772.1003994.031309.2306025.0295027.3100791-.0042147.1941757-.0830892.3933188-.1318589.5858387-.1788223.1660278-.0403404.3227231-.0788745.4744511-.1366756.6186529-.2372256,1.1126721-.555734,1.510055-.9735881.1279453-.1348693.2689861-.2558905.4053607-.3732991.0498234-.0421467.0994962-.0848954.148567-.1282463.0549412-.2041103.1354714-.3799221.2137438-.549713l.1410408-.3112833c.0824871-.1776181.1604584-.3462048.1771665-.5105768.0152029-.1481154.0475655-.2896078.078724-.4262835.0305563-.1330631.0594569-.2595031.0717999-.3865452.0165576-.1709951.012343-.3443985.0081283-.5129852-.0018063-.0722514-.003462-.1426966-.003462-.2101313v-.0409425l.1330631-.2330109c-.006623-.1432987-.0016558-.2896078.0036126-.435917.0118914-.3383776.0233312-.6580902-.1104845-.960342l-.0188155-.0427488.0076767-.0457592c.0287501-.1679846-.0289006-.3299482-.0900132-.5015454-.019267-.0541886-.0385341-.1083772-.0552422-.1625657-.1880043-.6081163-.5954723-1.1066512-1.2111147-1.4817565-.4663228-.284189-.903444-.4593987-1.3363505-.5352627-.0876049-.0150524-.1627163-.0571991-.2176575-.088508-.0079778-.0042147-.0156545-.0090314-.0230301-.012644-.0678862-.0048168-.1351704-.006021-.2010998-.0072251-.1752097-.0030105-.3565909-.006623-.5235219-.0680368-.1717477-.0626179-.3493658-.0541886-.536768-.0463613-.0892606.0042147-.1785213.0090314-.2674808.0048168-.2128407.1228274-.4350139.1294505-.6326516.1348693-.0736062.0024084-.1457071.0042147-.2143459.0132461-.0269438.012644-.0519307.0258901-.075864.037932-.0701441.0361257-.1363746.0698431-.2129912.0891101-.7193534.1818328-1.3465862.5635612-1.8124574.8766508-.2741039.183037-.5346606.366676-.7124293.5948702-.3394312.435917-.5796673.8176454-.7560812,1.2023843-.2131417.4636134-.3737507.8549753-.4655702,1.2607876l-.0567475.2396339c-.0904648.3751054-.1839401.7634568-.1506744,1.1475937.006623.0752619.0043652.151728.0027094.2035082l-.015504.0999478-.1121403.2390318v.8868864l-.2995424.5057601-1.1963634.0210733-.2477622-.1378798-.2387308.0048168c-.3197126.006021-.6623048.012644-1.0048971.0162566l-.0752619.0030105c-.1125918.006623-.2397845.012644-.3475595-.0523823-.1061193-.06322-.2242805-.0620158-.3612572-.0584032l-.1031088.0012042c-.2887047.0018063-.5774094.0012042-.8661141.0030105l-.4682796.0030105c-.0310079,0-.0636716.0036126-.0963352.006623-.1067214.0096335-.2280436.0222775-.3310019-.0427488-.1431482-.0903143-.2996929-.0824871-.4812247-.0740577-.0635211.0030105-.1267411.006623-.18966.0054189-.3300988-.0054189-.660348-.0006021-.9905973.0036126l-.4124353.0042147c-.0319111,0-.0653273.0042147-.0988942.0078272-.1034099.0120419-.2205174.0240838-.3243788-.0337173-.1892084-.1047646-.3990387-.0939269-.6216634-.0824871-.0891101.0042147-.1782202.0084293-.2662766.0072251-.312939-.006021-.6263296-.0030105-.9394192.0018063-.1831875.0024084-.3579457-.0048168-.5531751.0102356-.1082266.0090314-.2298499.019267-.3343134-.0445551-.1177096-.0728535-.2468591-.0716493-.3957271-.0650263l-.0624674.0012042-15.5415851.2769638c-.0401899.0030105-.0833902-.0030105-.1262895-.006021-.0456087-.0042147-.1222253-.0096335-.1428471.0006021-.2518264.1541364-.5135873.1463092-.7431361.1445029-.0734556-.0024084-.1467607-.0036126-.2191627.0006021-.3582467.018665-.7167945.0270943-1.0753422.0355236l-.4752037.0120419c-.0421467-.0012042-.0847449-.0012042-.1282463-.0042147-.056597-.0042147-.1265905-.0090314-.1524806.0054189-.2911131.1535343-.5825272.1481154-.8635552.1463092-.0990447.0006021-.1985409-.0018063-.297134.0042147-.2756091.018665-.5518203.0240838-.8280316.0289006l-.3732991.0084293c-.0340184-.0006021-.0702946-.0012042-.1068719-.0042147-.0301048-.0018063-.0803797-.0042147-.0963352-.0012042-.2393329.157749-.4968792.1547385-.7243207.1463092-.0564464-.0006021-.1128929-.0018063-.1687372-.0012042-.8555774.0204712-1.7111549.0343194-2.5665818.0487697l-.8099687.0132461c-.0380825.0006021-.0778208.0048168-.1177096.0090314-.1174086.0120419-.2500201.025288-.3687834-.0307069-.2191627-.1035604-.4544314-.0939269-.7039999-.0836912-.0870028.0036126-.1734034.006021-.2614599.006021-.3878999-.0048168-.7762514,0-1.1643018.006021l-.5200598.006021c-.0322121.0006021-.0659294.0042147-.0996468.0072251-.0967868.0114398-.2059166.0216754-.309477-.0210733-.2962309-.1234295-.6084173-.1065709-.9388171-.0873038-.1035604.0054189-.2069703.0114398-.3099286.012644-2.1693494.0270943-4.3386988.0626179-6.5080482.0975394l-2.0713584.0331152c-.0526833.0006021-.1079256.006623-.1631678.012644-.1487175.0156545-.3167021.0331152-.4613555-.0349215-.1950789-.0915185-.4000923-.0836912-.6171477-.0752619-.0698431.0030105-.1392345.006623-.2090776.0054189-.5346606-.0048168-1.0699234.0036126-1.604885.0108377l-.6433388.0072251c-.03161.0006021-.0648758.0042147-.097991.0072251-.0996468.0114398-.2123891.0222775-.3170032-.0264922-.2512243-.1168065-.5205114-.1035604-.8056035-.0867017-.1247843.006021-.2498696.0120419-.3734496.0090314-.3018003-.0096335-.6040521-.0030105-.9064545.0018063-.1411913.0030105-.2825332.0054189-.4237246.006623-.0228796,0-.0481676.0036126-.0734556.006021-.0864007.0102356-.1937242.0210733-.2858447-.0349215-.1634689-.101152-.3427428-.0915185-.5503151-.0812829-.0886585.0048168-.176715.0084293-.2640188.0054189-.19252-.0090314-.3854915-.0048168-.5783125-.0018063-.1095813.0018063-.217808.0078272-.3293461.0030105-.0299542.0030105-.0575001.0018063-.0868522.0036126-.1085277.0072251-.2313551.0138482-.3356681-.0499739-.116656-.0716493-.246257-.0668326-.394824-.0620158-.0463613.0012042-.0922711.0012042-.1389335.0024084-.3285935-.0030105-.6574881-.0006021-.9866837.0012042l-.4494641.0024084-.0295027-.012644c-.2948762-.1270421-.6093204-.1113876-.941376-.0969373-.1712961.0084293-.3484627.0174608-.5251776.0042147-.0465119-.0030105-.0943784.0012042-.1420945.0054189-.0991952.0084293-.2111849.0180629-.3191105-.0210733-.3132401-.1143981-.63792-.1047646-.9818669-.0951311-.1651246.0048168-.3299482.0084293-.4935676.0006021-.0254385-.0048168-.0525328.0006021-.0793261.0030105-.0829386.0072251-.186499.0156545-.2741039-.043953-.1303536-.0891101-.2786196-.0800787-.4511199-.0722514-.0733051.0036126-.1467607.006021-.2185606.0048168-.1515775-.006623-.3033055-.0054189-.4554851-.0024084-.104313.0012042-.208626.0042147-.3132401.0012042l-.075563.0012042c-.1097319.0036126-.2337635.006021-.3403344-.056597-.1055172-.0626179-.2218721-.0602095-.3573436-.0547907l-.1095813.0018063c-.3739012.006623-.7432867.0036126-1.115231.006623l-.4300466.0042147c-.031309.0006021-.0645747.0042147-.0978405.0078272-.0999478.0096335-.2134428.0216754-.3179063-.0276964-.237075-.1125918-.4919119-.0987436-.7619516-.0842933-.1156023.006623-.2303015.0144503-.3454522.0096335-.2703408-.0072251-.5417353,0-.8131297.0048168l-2.6963333.0397383c-.3687834.006623-.7462971-.0054189-1.115231.0228796-.2664272.0210733-.5199093-.0156545-.7652631-.0511781-.1407398-.0204712-.2811785-.0409425-.4231225-.0493718-.2596536-.0168587-.5265323-.012644-.7851323-.0102356-.4532272.0042147-.9210553.0102356-1.3890339-.0848954-.2579978-.0523823-.5334564-.0373299-.8248706-.0222775-.1666299.0090314-.3231747.0072251-.5025991.0222775-.1083772.012644-.230452.0246859-.3338618-.0421467-.1508249-.0969373-.3167021-.0873038-.5092221-.0764661-.0770682.0048168-.1541364.0084293-.2310541.006623-.2692871-.0078272-.5387248-.0048168-.8081624,0-.1509754.0024084-.3019508.0048168-.4529262.0048168l-.0754124.0030105c-.1100329.0036126-.2345161.0114398-.3422912-.050576-.1085277-.0620158-.2265384-.0590053-.3627624-.056597-1.0619456.0174608-2.0922812.0361257-3.1007908.0541886l-.1720487.0030105-.3139927.1426966-2.1813913.0391362c-.0395878.0006021-.0808313-.0018063-.1226769-.0048168-.0480171-.0030105-.1277947-.0090314-.148567.0036126-.2662766.1583511-.5438426.151728-.7881428.1487175-.0808313-.0012042-.1613615-.0030105-.2412897.0018063-.3081223.0174608-.6168466.0234817-.925571.0295027l-.4149942.0090314c-.0398888.0018063-.0832397-.0006021-.126139-.0042147-.0573496-.0042147-.1286979-.0090314-.1568458.0054189-.3093265.157749-.6200076.1523301-.9198511.1487175-.1037109-.0012042-.2074218-.0036126-.3102296.0030105-.3290451.0180629-.6583912.025288-.9878879.0319111-.1875527.0042147-.3752559.0084293-.5628086.0144503l-.0731546.0012042c-.069241.0006021-.1553406.0012042-.1910147.0228796-.1827359.1131939-.3633645.1095813-.524124.1077751h-.0985931c-1.4951532.0289006-2.9903063.0553928-4.4854595.081885l-1.2814093.0228796c-.0317605.0006021-.0647252.0042147-.09769.0078272-.1013025.0114398-.2157006.0234817-.3207663-.0276964-.2150985-.1041625-.448561-.0939269-.6963232-.081885-.0891101.0042147-.1761129.0078272-.2670293.0072251-.407167-.0054189-.815237.0006021-1.2230061.006021l-.5321017.006021c-.0310079,0-.0638221.0036126-.0966363.0072251-.1079256.0108377-.2301509.0222775-.3332598-.0421467-.1509754-.0981415-.3165516-.0873038-.5078674-.075864-.0784229.0054189-.1575984.0120419-.2334625.0072251-.2911131-.0084293-.5831293-.0042147-.8751455.0006021l-.3850399.0048168c-.0240838,0-.0495223.0030105-.0749609.006021-.0839923.0084293-.1880043.0198691-.2801248-.0325131-.1922189-.107173-.4085217-.0957332-.638221-.0848954-.081885.0048168-.1627163.006021-.2452033.0078272-.4124353-.0042147-.8263758.0024084-1.2397142.0078272l-.5856882.0072251c-.0292016.0006021-.0606611.0036126-.0924216.006623-.1088287.0096335-.2330109.0228796-.3362702-.0445551-.1320094-.0860996-.2765123-.0776703-.4449484-.0680368-.0508771.0030105-.1016036.0054189-.1520291.006021-.6862381.0048168-1.3723257.0168587-2.0584133.0289006l-9.3327783.1547385c-.0522318.0006021-.1068719.006623-.1616626.0120419-.1493196.0168587-.3185084.0331152-.4637639-.0361257-.2035082-.0969373-.4186068-.0891101-.6455967-.0782724-.0839923.0036126-.1678341.0072251-.2518264.0054189-.3421407-.0054189-.6842813-.0024084-1.026422.0036126-.1723498.0018063-.3446996.0042147-.5170493.0054189-.028148,0-.0579517.0024084-.0880564.0048168-.1086782.0096335-.2327098.018665-.3374744-.0475655-.1338157-.0830892-.2814796-.0728535-.451722-.0662305-.0493718.0030105-.0984426.0054189-.1473628.006021-.764661.0084293-1.5296231.0228796-2.2802854.0367278l-.9538695.0174608-.2473106-.1318589-.1318589.0012042c-.1371272.0006021-.2822322.0006021-.426735.0108377-.0969373.0072251-.1955305.0048168-.2938225.0018063-.2229258-.0042147-.4145426-.0120419-.587344.1023562l-.037932.025288-.0456087.0006021c-.0748103.0006021-.1508249.006623-.2269899.0120419-.1929715.012644-.3925661.0270943-.5835809-.0246859-.1521796-.0415446-.3141432-.0722514-.4964276-.0788745l-3.0935657.0517802c-.0468129.0006021-.0936258-.0024084-.1417934-.0054189-.0776703-.0054189-.1658773-.0108377-.2080239.0108377-.2826837.1445029-.562056.1481154-.8337515.1420945-.0854975,0-.1717477-.0012042-.2575463.0042147-.2959298.0168587-.5924618.0228796-.8889937.0289006l-.3811263.0084293c-.0404909-.0012042-.0829386-.0012042-.1252358-.0042147-.0641232-.0036126-.1308052-.0072251-.1646731.0072251-.3454522.157749-.6931622.1547385-1.0303356.1511259-.1118392-.0006021-.2235279-.0018063-.334765.0030105-.4237246.0198691-.8477502.0282985-1.2717758.0367278-.2334625.0048168-.4667744.0096335-.7000863.0162566l-.072402.0012042c-.0776703,0-.1578995.0006021-.2012504.0234817-.2300004.1210212-.4509694.1095813-.6642616.0981415l-.1863485-.0084293-.0421467-.075864c-.0185144-.0331152-.0413941-.0662305-.0639726-.0993457-.0641232-.0933248-.1368262-.1992935-.1443523-.3275398-.0133966-.2312046-.091368-.441938-.173855-.6653153-.0263417-.0716493-.0525328-.1426966-.0769177-.214948-.1216233-.3594509-.2131417-.6863886-.2795227-.9994782-.037631-.1776181-.0951311-.3558383-.1508249-.5280376-.0612632-.1890579-.1244832-.3847389-.164372-.5870429-.0531349-.2679324-.1399872-.524425-.224431-.7640589-.0210733-.0602095-.0409425-.1210212-.0609621-.1818328-.0721009-.2197648-.1402882-.4274877-.2689861-.6183519l-.0263417-.0391362-.0079778-.6153414c-.0239333-.0367278-.0511781-.0782724-.0650263-.1318589-.1728014-.6653153-.5793662-1.1831173-1.1364549-1.7545057-.0880564-.0903143-.1962831-.1661783-.3108317-.246257-.0742082-.0517802-.148567-.1035604-.2184101-.1601574-.5724421-.461205-1.2291776-.7935616-2.0075363-1.0157348-.0904648-.0258901-.180177-.0547907-.2682335-.0830892l-.0966363-.0307069-.7676715.0132461c-.1315578.101152-.2805764.1143981-.4031028.1252358-.0711978.006623-.1384819.012644-.1902621.0343194-.151427.0638221-.2957793.1426966-.4487115.2263878-.0733051.0403404-.1467607.0806808-.2208185.1186128l-.5343596.2739534c-.0627684.0656284-.1297515.1336652-.1989925.2035082-.1868001.1890579-.3799221.3847389-.5558845.5990848-.0868522.1053667-.1557922.2287962-.2287962.3594509-.0650263.1162044-.1303536.2318067-.208325.3383776-.2036612.278168-.3266367.5220166-.3760085.7447919-.0213744.0975394-.0492213.1938747-.0773692.290812-.0669831.2318067-.1302031.4503673-.1016036.6779593.0338679.2679324.0340184.5485088.0004516.8110224-.0239333.1878537.0264922.3660739.0799282.5545298.0329647.1162044.0653273.2318067.0830892.3510216.0310079.2089271.1220748.4196604.2050135.6014932.2026051.4431421.4621081.960342.8509112,1.4378036.6529724.8013889,1.0557741,1.086782,1.9592181,1.3890339.0991952.0337173.1977883.0529844.2954783.0722514.0760145.0156545.1515775.0307069.2266889.0511781.1044635.0276964.1967346.0770682.2858447.1240316.0918195.0493718.1783707.0951311.2584494.1053667.1094308.0138482.202003.0578011.2837374.0963352.1082266.0511781.1791234.0806808.2563421.06322l.0416951-.0096335.040792.012644c.4303476.1354714.853169.2601052,1.2940533.2974351l.0447056.0036126.0356741.0270943c.0578011.043953.1318589.0409425.2471601.0397383.1020552-.0054189.2182595-.0090314.3296472.0427488.1877032.0867017.3755569.0909164.5932144.0957332.0544896.0012042.0889596-.0018063.1231285-.0048168.1038614-.0108377.2220226-.0198691.3234757.043953.1380303.0867017.2903605.0806808.4655702.0752619.0693915-.0024084.1389335-.0030105.208325-.0018063.0912174.0036126.1825854.0012042.2722976-.0024084l.2000462-.0048168.2631156.3082728.0215249.088508c-.0124935.2980372.0269438.5310481.1244832.7321479l.0200197.0415446-.0057199.0451571c-.0248364.195681.0237828.3889536.0754124.5930639.0528339.2101313.1073235.4262835.0871533.6617027.1274937.2823827.129601.5713884.1317083.8513628.0009031.1186128.0015052.2372256.0130956.3528278l.1348693.303456v1.0223578c.1369767.3293461.1338157.6653153.1306547.9910489-.0012042.1348693-.0027094.2697387.006623.4034039.0025589.0349215.0012042.0728535-.000301.1107855-.0013547.031309-.003462.0782724.0015052.0933248.1435997.2035082.1345683.4256814.1267411.6213624-.0019568.0457592-.0037631.0915185-.003462.1366756.0075262.9597399.0108377,1.9194798.0139987,2.8792198l.0040641,1.130735c.0001505.0541886-.0046662.1113876-.009784.1691888-.0082788.0921206-.0174608.1962831.0082788.2438486.1345683.2492675.1299021.5039538.1258379.7285353-.0013547.0752619-.00286.1505238.0010537.2257857.0115903.2263878.0120419.4539799.0124935.6809698.0001505.12644.000301.25288.0025589.3787179.0004516.0325131-.0007526.0668326-.0022579.101152-.0021073.0517802-.0057199.1378798.009182.1619636.1240316.1962831.1205696.3973829.1174086.5743989-.0006021.037932-.0013547.0764661-.0006021.1150002.0072251.3817284.0103861.7640589.0135471,1.1457874l.0049673.54309c.0004516.0403404-.0030105.0830892-.0067736.12644-.0039136.0451571-.0103861.1204191-.000301.1414924.1432987.2324088.1365251.4756553.1305042.6906033-.0019568.0668326-.0039136.1336652-.0009031.1998956.0106872.2360214.0117409.4720427.0127945.7080641.0006021.1402882.0012042.2811785.0039136.4214667.0004516.0289006-.0001505.0590053-.0010537.0891101-.0015052.0608116-.0036126.145105.0138482.1728014.1145486.1860474.1131939.3732991.1119897.5382732v.0830892c.0039136.303456.0030105.6069121.0022579.8874885l-.0004516.2793722.1527817.3419901-.0001505.3702886.0004516.9735881c0,.0391362-.003462.0806808-.0072251.1228274-.0042147.0469634-.0112893.1252358,0,.1463092.1595553.2745555.1466102.5629591.1351704.8170433-.0033115.0722514-.006623.1445029-.0058704.2161522.0099346.9994782.0133966,1.9983543.0170092,2.9972304l.0054189,1.3649501c.000301.0493718-.0030105.101152-.0064725.1529322-.0064725.0957332-.0136977.2041103.0146008.2558905.1142476.2107334.1112371.4190583.1085277.6032995-.0006021.0493718-.0013547.0981415.0001505.1481154.0070746.2101313.006021.4208646.0049673.631598l-.0007526.2865974.015805,3.727572c.0004516.0981415.003161.1962831.006021.2944246.0064725.2306025.0132461.4690322-.0108377.7062578-.015504.1511259.0210733.2980372.0599085.4527757.0323626.1294505.0657789.2631156.0716493.4088227.0105367.2564926.0087304.5135873.0069241.770682-.0036126.5394774-.0075262,1.0976197.1121403,1.6346888.0656284.2950267.0543391.6032995.0433509.9007346-.0048168.1312568-.0096335.2631156-.0076767.3925661.0006021.0397383-.0027094.0824871-.0061715.1252358-.0036126.0451571-.009784.1210212.0004516.1414924.1446534.2312046.1378798.4732469.1318589.6869907-.0018063.0680368-.0039136.1366756-.0004516.2041103.0103861.2059166.0114398.4118332.0124935.6183519.0007526.1234295.0013547.2468591.0040641.3702886.0006021.0301048-.0001505.0614137-.0009031.0927227-.0015052.0608116-.0036126.1432987.0138482.1721993.1097319.1824349.1095813.3660739.1092803.5280376.0010509,1.5931442.000301,3.1646129-.0007526,4.7354796,0,.0216754.0019568.0451571.0037631.0686389.0069241.0897122.015504.2017019-.0480171.2938225-.0942279.1366756-.088508.2884037-.0820355.4636134.0027094.0698431.0051178.139084.0019568.208325-.0111388.2444507-.0133966.4895035-.0156545.7345563l-.0043652.3606551-.024987.037932c-.1174086.1764139-.1091298.3720949-.0994962.5990848.0040641.0939269.0078272.1878537.0030105.2805764-.0111388.2125396-.0118914.4256814-.012644.638221-.0004516.113796-.0007526.227592-.0027094.3407859-.0006021.0295027.0015052.0602095.003462.0909164.006623.1077751.0141492.2293983-.0519307.3335608-.0800787.1258379-.0775198.2613094-.0745093.4190583l.0010537.1119897c-.0037631.4196604-.0030105.8387188-.0024084,1.2577771l.0006021.5418858-.0213744.0361257c-.072703.1234295-.1097319.2287962-.1130434.3215189-.0108377.3082728-.0138482.6159435-.0168587.9236142l-.0058704.4804721c-.0004516.0276964.0010537.056597.0024084.0854975.0052683.1089793.0112893.2318067-.0541886.3365713-.0784229.12644-.0752619.2625136-.0714988.4202625l.0015052.1125918c-.0036126.7472003-.003161,1.4944005-.0025589,2.2241401l.000301.7977763-.1578995.2799743-.000301,3.4939591c0,.0385341.0039136.0788745.0075262.1186128.0105367.1168065.0224281.2486654-.0356741.3672781-.1128929.2306025-.1050656.4750532-.0969373.7333521.0024084.0776703.0048168.1547385.0042147.2318067-.0093325,1.1361538-.012343,2.2723077-.0153534,3.4084615l-.0042147,1.4444266c-.0001505.0433509.0036126.0891101.0073757.1354714.0109882.1372777.0233312.2932204-.050275.4238751-.0925722.164372-.0873038.3311524-.0811323.524425.0016558.0517802.0033115.1035604.0030105.1547385-.0088809,1.7322282-.0130956,3.4632522-.0174608,5.1948783l-.0040641,1.5582227c-.0001505.0457592.0048168.094529.009483.1432987.012644.132461.0269438.2829848-.0397383.4136395-.1079256.2095292-.0982921.4304981-.0880564.6647132.0033115.0764661.006623.1529322.0061715.2293983-.0100851,1.6100028-.0150524,3.2206078-.0200197,4.8312127l-.0067736,2.0615743c-.0001505.0415446.00286.0854975.0058704.1294505.009182.1378798.0197186.2938225-.0516297.4262835-.0802292.1493196-.0782724.3004456-.0760145.4750532.0006021.0469634.0012042.0933248.000301.1402882-.0099346.486493-.0127945.972986-.0156545,1.459479l-.0039136.5786136c-.000301.0319111.0033115.0650263.006623.0987436.0103861.1047646.022127.2227753-.0398888.3263357-.110334.1842412-.1002489.3871473-.0894112.6014932.003462.0710472.0069241.1420945.006623.2119375-.0058704,1.181311-.0042147,2.362622-.0027094,3.543933l.0013547,1.168667c0,.0481676-.0043652.0981415-.0090314.1487175-.0070746.075864-.0150524.1613615.0042147.2010998.1445029.2974351.1339662.593666.1237306.8802633-.0033115.0939269-.0067736.1878537-.0039136.2811785.0135471.4551841.015805.9103681.0180629,1.3655522l.0039136.60631c.0004516.0397383-.00286.081885-.006322.1240316-.0037631.0457592-.0099346.1222253.0004516.1432987.145105.2354193.1372777.4804721.1302031.6972264-.0021073.0656284-.0043652.1312568-.0019568.1962831.0114398.3082728.012945.6171477.0142998.9260226l.00286.4136395c.0004516.0409425-.0030105.0836912-.006623.12644-.0042147.050576-.0106872.12644.0018063.1499217.1455565.2691366.1392345.5406816.1332136.8031951-.0016558.0740577-.003462.1481154-.0013547.2215711.009483.3173042.0072251.6346085.0051178.9314414l-.0015052.3154979.1512764.341388.000301,1.7599246c0,.0397383-.0036126.081885-.0075262.1240316-.0042147.0457592-.0112893.1228274-.0007526.1439008.1538354.2570947.1432987.5274355.1341167.7652631-.0025589.0668326-.0051178.1330631-.0040641.1986915.0105367.656886.0132461,1.3143741.0159555,1.9718621l.0036126.7724883c.000301.0481676-.0037631.0987436-.0081283.1493196-.006623.075864-.0139987.1619636.0057199.2035082.1557922.3263357.1416429.6538755.1279453.9705776-.0037631.0879059-.0075262.1758118-.0073757.2631156.0076767,3.3271787.009483,6.6543573.0111388,9.981536l.0016558,4.8884118-.018966,1.2162325-.1312568.2396339v.7983784c.0001505.9705776.000301,1.9688516-.0010537,2.9671257-.0001505.0391362.0021073.0794766.0043652.1204191.0073757.139084.0156545.2974351-.0543391.4329065-.0740577.1426966-.0719504.2865974-.069542.4533778l.0007526.0915185c-.0027094,2.6727011-.0012042,5.3460042.0021073,8.0187053l-.0004516.0602095c-.0010537.1047646-.0022579.2131417.0308574.2757596.0860996.164372.0854975.3239273.085046.4642155l.000301.0800787c.0052683.2721471.0058704.5454983.0064725.8182475l.0078272,3.6155823c-.0004516.3757075-.0010537.7514149-.00286,1.1265203-.0006021.1192149-.0039136.2390318-.0070746.3588488-.0069241.2486654-.0139987.5063622.0058704.7532212.0203207.2540842-.0239333.4919119-.0665315.7219123-.0246859.1336652-.0496729.2661261-.0605106.4015976-.0111388.1372777-.0100851.2763617-.0093325.4142416.0004516.0698431.0009031.139084,0,.2077229s-.0049673.1372777-.0090314.2053145c-.0082788.1420945-.016106.2757596.0043652.3997913.028449.170393-.0258901.3064665-.0737567.4268856-.0307069.0764661-.0570485.1426966-.0585538.208325l-.0048168.2932204c-.006322.4792679-.012945.9741902-.1235801,1.4703167-.0504255.2263878-.0421467.4684301-.0332658.7243207.0040641.1234295.0082788.246257.006021.3678802-.0006021.0289006.0013547.0590053.003161.0897122.0061715.1077751.0130956.2293983-.0523823.3335608-.085347.1348693-.0811323.2805764-.0763156.4497652.0015052.0511781.00286.1029583.0019568.1547385-.0073757.366676-.0057199.7339542-.0043652,1.0885883l.0012042.461205-.1565448.2835869.0001505.5689801c.0001505.6020953.0004516,1.2300807-.0010537,1.8586682-.0001505.0319111.0016558.0656284.003462.0999478.0064725.1252358.0138482.2673303-.0550917.3877494-.0752619.1318589-.0717999.2685345-.0678862.4268856l.0018063.1131939c-.00286,1.5684583-.0022579,3.1375186-.0016558,4.7059769l.0004516,1.2722274c0,.0397383-.003161.0812829-.006623.1234295-.0049673.0614137-.0108377.1318589.003462.1649741.1523301.3558383.1399872.7146871.1280958,1.061494-.0042147.1246337-.0085799.2492675-.0048168.372697.0133966.4250793.0147513.8507607.0162566,1.27584.0007526.2324088.0015052.4642155.0042147.6960222.0004516.0349215-.0007526.0716493-.0019568.1083772-.0027094.0854975-.0058704.183037.0200197.2300004.1044635.1902621.1032593.3787179.1020552.5454983l-.0001505.0704452c.0030105.5153936.0025589,1.0307872.0019568,1.5245053l-.000301.4882993.15805.2763617.000301,2.109742c0,.0397383-.0036126.081885-.0075262.1240316-.0042147.0457592-.0112893.1222253-.0010537.1432987.1497712.2480633.1413419.5075663.1338157.7363626-.0025589.0770682-.0051178.1541364-.0013547.2300004.0111388.2257857.012343.4509694.0133966.6767551.0007526.1276442.0013547.2552884.0039136.3829326.0006021.0331152-.0007526.0674347-.0021073.1023562-.0021073.0511781-.0057199.1366756.0087304.1595553.1234295.1944768.1202685.3931682.1174086.568378-.0007526.0403404-.0013547.0806808-.000301.1210212.0075262.2871995.0100851.575001.012644.8622005l.0042147.4058122c.0004516.0403404-.00286.0830892-.006623.12644-.0037631.0445551-.0100851.119817,0,.1408903.1508249.2450528.1402882.5009433.1309557.7273311-.0022579.056597-.0046662.113796-.0043652.1697909.0076767,1.2409184.0093325,2.4812348.0109882,3.7221532l.0016558,1.1325413-.0054189,1.6184322c-.0004516.0873038-.0030105.1746076-.0054189.2619115-.0057199.1968852-.0109882.3829326.0055694.5671738.0171597.1932726-.0248364.3648698-.0654779.5310481-.0263417.107173-.0511781.2095292-.0578011.3100791-.0124935.1878537-.0115903.3769117-.0109882.5659696.000301.0903143.0007526.1800265-.000301.2697387-.0009031.0824871-.0049673.1655762-.0090314.2486654-.0085799.1758118-.0167081.3419901.0057199.5003412.0282985.1998956-.0236322.3775138-.0693915.5346606-.0314595.107173-.0612632.2089271-.0645747.309477-.006021.1860474-.006322.3714928-.006623.5569382-.0009031.5075663-.0018063,1.0325934-.1220748,1.5576206-.0514791.2245815-.0424477.4660218-.0331152.7213102.0046662.1240316.009182.2474612.0069241.3702886-.0006021.0289006.0015052.0596074.003462.0903143.006623.1077751.0141492.2300004-.0526833.3335608-.0864007.1336652-.0820355.2787701-.0770682.4467547.0016558.0523823.003161.1041625.0021073.1559427-.0070746.366676-.0055694.73275-.0042147,1.0873841l.0012042.4624092-.154588.2805764-.0001505,2.0073857c0,.031309.003161.0638221.006021.0969373.009182.101152.0195681.2161522-.0338679.3215189-.1183117.2324088-.1097319.4822783-.1005499.7459961.0033115.0969373.0064725.1932726.0040641.2890057-.0108377.4118332-.0084293.8242685-.006021,1.2246619l.0019568.5364669-.1538354.2721471.0001505.9519127c.0001505,1.0657087.000301,2.1548991-.0012042,3.2440895-.0001505.0367278.0016558.0752619.0033115.1131939.006021.1402882.0127945.2986393-.0552422.4365191-.0639726.1294505-.0645747.2582989-.0653273.4076185l-.0006021.0722514c-.0042147.2733513-.0055694.5461004-.0069241.8194517-.0012042.2191627-.0022579.4383254-.0048168.6574881-.0006021.0578011-.0203207.1059688-.0377815.1481154l-.0346205.094529-.2923173.2155501-1.2570245.0228796-.4208646.1824349c-.3249809.1420945-.6198571.2709429-.9200016.385341-.3058644.1168065-.577861.2552884-.8314936.4244772-.6878939.4593987-1.2388111.9374624-1.6828564,1.4612853-.0754124.3498174-.2123891.6785614-.3337113.9705776-.0784229.1884558-.1524806.3660739-.2042608.5334564-.0764661.354032-.015504.6869907.0435014,1.0085096.0419961.2281941.085347.4642155.0736062.7020431.0745093.1679846.1226769.3353671.1691888.4973307.0528339.1824349.1025067.3552362.1860474.5159957.16091.309477.360354.575001.6279854.8369125.2459559.2408381.5248766.5129852.8834243.6815719.3371734.157749.6717878.2661261.9943604.3209168.2390318.0397383.4949223.0361257.7417814.037932.0909164-.0012042.1807791-.0018063.2698892.0006021.1449544-.1258379.3090254-.1414924.4438948-.1541364.0575001-.0054189.1124413-.0108377.1622647-.0234817.1470618-.157749.3499679-.258901.6174487-.3070686.0865512-.0903143.1753603-.1800265.2644704-.2691366.2257857-.2263878.4592482-.461205.6434894-.7170955l.1204191-.1673825c.164071-.2287962.3296472-.4600008.502298-.6785614.2384297-.303456.3823305-.5551319.4526251-.7923574l.0481676-.1571469c.0847449-.271545.1646731-.5286397.1463092-.8019909-.021826-.328744-.0278469-.6502629.1371272-.9693734.0133966-.0258901.0004516-.0608116-.0453077-.1523301-.0331152-.0662305-.0707462-.1414924-.0870028-.2312046-.0033115-.5268334-.0013547-1.0374102.0006021-1.5612331l.0030105-.9103681.1294505-.0210733c.0638221-.0102356.12644-.0156545.1866495-.0210733.1061193-.0096335.1977883-.0174608.2582989-.0511781.1967346-.1077751.3901578-.1101834.5608518-.1125918l.0538875-.0006021c1.7114559-.0325131,3.4227613-.0614137,5.1342172-.0897122.0267932-.0006021.0559949-.0030105.085347-.006021.1116887-.0096335.2376771-.0198691.3431943.0457592.1357725.0867017.2846406.0776703.4571409.0704452.0731546-.0036126.1458576-.0054189.2185606-.0042147.2092281.0096335.4189078.0078272.628437.0048168l.3251315-.0018063.0383836.025288c.170393.1113876.3630635.1017541.5853872.0873038.0981415-.006021.1958315-.0102356.2923173-.006623.1919179.0090314.3848894.006021.5780115.0036126l.296833-.0024084.0341689.0180629c.2477622.1330631.5235219.1156023.8167423.0993457.0918195-.0054189.1834885-.0108377.2742544-.0120419.9791575-.0108377,1.958315-.0325131,2.937623-.0541886l1.0693213-.0234817c.0403404.0006021.0826376.0018063.1253863.0054189.0466624.0036126.1238811.0096335.1442018-.0018063.2492675-.1535343.5075663-.1529322.7374162-.1481154.0745093.0006021.148567.0006021.2223237-.0030105.2613094-.0162566.5229198-.0222775.7843797-.0276964.1386324-.0030105.2772649-.006021.4157468-.0108377.0319111-.0012042.0657789,0,.1000983,0,.0585538.0012042.1389335.0030105.1657267-.0132461.1922189-.119817.3857926-.1216233.5564866-.1234295l.0644242-.0006021c2.6687874-.0475655,5.3374244-.0933248,8.0059108-.139084.0337173-.0006021.0581022-.0030105.0824871-.006021.0891101-.0096335.2003472-.0222775.2930699.0403404.1392345.0921206.2963814.0842933.4779131.0716493.0624674-.0036126.1208706-.0090314.1869506-.006623.4565388,0,.9130775-.0036126,1.3699173-.0084293l.5969775-.006021c.0310079-.0006021.0642737-.0042147.0973889-.0078272.1029583-.0114398.2200658-.025288.3248304.0325131.1923695.1047646.404608.094529.6294906.0806808.0864007-.0048168.1721993-.0096335.2587505-.0078272.3720949.006021.7449424,0,1.1179405-.0048168l.495976-.0054189c.0323626,0,.0657789-.0036126.0993457-.0072251.0985931-.0096335.2104323-.0204712.3142937.0264922.2432465.1119897.5038032.1005499.7795629.0873038.1350199-.006021.2697387-.0120419.404307-.0048168.1849938.0108377.3699876.0078272.5543793.0078272.3683318-.0036126.7494581-.006021,1.1337455.0824871.2256352.0499739.4733974.0343194.735911.0168587.116656-.0078272.2333119-.0156545.3484627-.0174608l8.7905915-.1420945c.0529844-.0006021.1080761-.006623.1633184-.0120419.1455565-.0144503.3109822-.031309.4568398.0301048.2354193.0999478.4816762.0909164.7417814.0800787.101152-.0036126.2017019-.0084293.3024024-.0054189.3087244.0078272.6175993-.0024084.9151849-.0102356l.4219183-.0096335.2716955.1493196,2.0122025-.0355236c.0310079-.0006021.0635211-.0042147.0960342-.0072251.1020552-.0120419.2173564-.0222775.3228736.0289006.218109.1083772.4554851.0957332.7064083.0836912.0851965-.0042147.1789728,0,.2545358-.0084293.5268334-.0030105,1.0532152-.006623,1.5798981-.0132461l.7389215-.0090314c.0298037-.0006021.0617148-.0036126.0939269-.0072251.107474-.0108377.2301509-.0228796.3341629.0421467.1464597.0909164.3058644.0830892.4913098.0734556.0596074-.0030105.119817.0018063.1782202-.006021.4475073-.0024084.8963694-.0048168,1.3446293-.0096335l.6225665-.0072251c.0308574-.0006021.0638221-.0042147.0969373-.0078272.1038614-.0114398.2217216-.0240838.3263357.0337173.1895095.1047646.3999418.0957332.6228676.0836912.0888091-.0042147.1776181-.0102356.2653735-.006623.274706.0072251.549713.0030105.824419-.0018063.1732529-.0024084.3334103.0048168.5254787-.0102356.1091298-.0102356.2334625-.0204712.337926.0457592.1249348.0794766.2622125.0722514.4219183.0668326l.1044635-.0036126c2.8598022-.0487697,5.7197549-.1005499,8.5795571-.1523301.0391362.0018063.081885.0024084.1241822.006021.0462108.0030105.1240316.0096335.1449544-.0018063.2590515-.1589532.5278871-.1529322.7658652-.1469113.066381.0012042.1329125.0024084.1992935.0012042.8168928-.0264922,1.6340867-.0409425,2.45113-.0547907l.2938225-.0054189c3.3286839-.0578011,6.6575183-.113796,9.9862022-.1697909.0525328-.0006021.1068719-.006021.1615121-.0114398.1464597-.0150524.3124875-.031309.4586461.031309.2438486.1029583.4983844.0927227.7673705.0812829.091669-.0042147.1828864-.0054189.2742544-.0072251.4804721-.0042147.9621483-.0090314,1.4298258-.019267l.6090194-.012644.2756091.1511259,12.2801853-.2203669c.0445551-.0006021.0912174-.0054189.1380303-.0102356.1323104-.0138482.2823827-.0276964.4154458.031309.2172059.0963352.4487115.0879059.6931622.0830892.1180107-.0042147.2361719-.0078272.3535805.0006021.0668326.0030105.1384819-.0018063.2095292-.0072251.1582005-.0120419.3219705-.0240838.4699354.0451571.1693393.0800787.3440975.0770682.5292418.0746598.0532854-.0012042.1067214-.0036126.1606089-.0006021.2751576.0054189.5507667.0018063.8262253-.0024084l.3650203-.0042147c.0243849,0,.0501244-.0036126.0760145-.006021.0838418-.0102356.1883053-.0216754.2801248.031309.195982.113796.41665.0987436.6493598.0824871.0770682-.0054189.1539859-.0102356.2303015-.0114398,1.7808474-.0240838,3.5621464-.0584032,5.3432948-.0969373.0541886-.0006021.1089793-.0006021.1636194,0,.2072713-.0006021.4031028.0036126.5870429-.0963352.1740055-.0939269.4476579-.0981415.6231686-.0108377.1637699.081885.3401838.0776703.527285.0734556.0767672-.0024084.1541364-.0036126.2315056,0,.2888552.0132461.5862903.0036126.8736403-.006021.5420363-.018665,1.102587-.0373299,1.6590736.0963352.2303015.0553928.5018464.0289006.7128808-.0012042.1914663-.0270943.3633645.0210733.5141894.0626179.1109361.0307069.2158512.0584032.3191105.0584032.3297977-.0054189.6592944-.0042147.98849-.0006021.0257396.0030105.0510276-.0006021.0779713-.0024084.1097319-.0036126.2351182-.0102356.3412375.0541886.1124413.0680368.237075.0626179.3808253.0596074l.0800787-.0024084c2.4019087-.0403404,4.8038174-.0830892,7.1816423-.1258379l1.0426785-.018665.3290451-.1499217,1.6632883-.0295027c1.3188898-.0234817,2.6391342-.0469634,3.9593787-.0722514l.1122908.0006021c.1131939.0006021.2295488.0030105.3025529-.0331152.1884558-.0939269.3717939-.0993457.5334564-.1035604l.0737567-.0024084c.2897584-.0108377.5790652-.018665.8685225-.0264922.2498696-.0072251.4997391-.0138482.7497592-.0228796l.0817344-.0018063c.1205696-.0018063.2245815-.0036126.3198631-.0608116.1140971-.0686389.2482138-.0686389.366676-.0686389l.0492213-.0006021c1.288785-.0258901,2.5781721-.0487697,3.8677097-.0698431l.0386846-.0006021c.1199675-.0042147.2558905-.006021.3737507.0553928.0835407.0445551.1691888.0475655.2777165.0517802l.0639726.0024084c.1583511.0096335.3168527.006021.4752037.0036126.3531289-.006623.7166439-.0114398,1.0831695.101152.1857464.0571991.4202625.0319111.6472525.0072251l.0602095-.006623c.1758118-.012644.3335608.0276964.4724943.0674347.1196664.0349215.2328604.0650263.3437964.056597.0331152-.0030105.0705957-.006623.1107855-.006623.1165054,0,.2552884.0295027.3749549.1854454l.0319111.0415446-.000301.5870429c-.000301.4774616-.0006021.9699755.0012042,1.4618874.0001505.0433509-.0012042.0867017-.0025589.1306547-.0055694.1740055-.0103861.3245294.0859491.4437442l.0380825.0475655-.0043652.0602095c-.0087304.1228274.0308574.246257.0728535.3769117.0475655.1487175.1016036.3167021.0868522.5033517-.00286.0367278.0182134.0939269.0386846.1499217l.0182134.0511781c.1971862.5737968.4688817,1.1223056.830741,1.6768354.088508.1354714.1989925.2516758.3159495.3745033.1220748.1282463.2482138.2607073.3487637.4190583.1848433.2902099.4225204.5238229.6741962.7712841l.1317083.1300526c.3272388.3257336.6261791.5093726.9689219.593666.1374283.0343194.2614599.1017541.3812769.1661783.0422972.0228796.0854975.0463613.1302031.0686389.1013025-.0018063.2035082-.0048168.3064665-.0078272.2554389-.0078272.5150925-.0168587.7750472-.0078272.5301449.0132461,1.0310882-.1457071,1.5567174-.3148958.5647654-.1836391.9750933-.4961265,1.2305323-.9326456.1868001-.3197126.3815779-.6647132.5414342-1.0223578.056898-.1276442.0873038-.2643198.1195159-.4082206.0383836-.1715972.0781219-.3492153.1660278-.5226187.0287501-.056597.0215249-.1601574.0144503-.2601052-.0037631-.0535865-.0073757-.107173-.0070746-.1583511Zm-10.2679828-217.2624784c.003161-.1595553.0064725-.3191105.0052683-.4786658-.0010537-.1360735.0412435-.2564926.0785734-.3630635.037631-.107173.0702946-.2004977.0611127-.2980372-.0197186-.2071208-.0462108-.486493.1220748-.7333521-.0058704-.2884037.0824871-.5467025.1681351-.7971742.0441035-.1288484.088508-.2576968.1180107-.3895557.0675852-.3022518.237075-.5208124.4009955-.7321479.0958837-.1240316.1863485-.2408381.2531811-.3696865l.0188155-.0361257.0341689-.0222775c.1521796-.0987436.2963814-.2101313.4407338-.322121.3457532-.2673303.7029463-.54309,1.1688175-.6520692.1303536-.0903143.2735018-.1047646.4008449-.1180107.1142476-.0120419.2128407-.0216754.2843395-.0836912.0782724-.0674347.1794244-.0608116.2537832-.0541886.0174608.0012042.0341689-.0024084.0508771.0024084.0749609-.0012042.1503733-.006021.2259363-.0114398.1914663-.012644.3892546-.0258901.5816241.0204712.2587505.0620158.4753542.1192149.7213102.1041625l.0445551-.0012042.0382331.0234817c.1386324.0830892.2879521.1475133.432455.2101313.2969835.1282463.6042026.2613094.8024425.555734l.0185144.0373299.1904126.5984827c0,.094529.0022579.195681.0046662.3016497.006021.2739534.0127945.5840324-.016106.8929073-.0103861.1095813-.0385341.2137438-.0656284.3142937-.0374804.1384819-.072703.2685345-.0564464.3949745.0215249.1685867-.0358247.3082728-.0865512.4317023-.0383836.0939269-.0713483.1746076-.0708967.258901.0013547.2215711-.1350199.4539799-.2632662.5978806-.3236262.3606551-.6719384.7405772-1.0619456,1.0687192-.1955305.164372-.4234235.2835869-.6437904.3985871-.0912174.0475655-.1824349.0951311-.2710934.1457071-.1174086.0674347-.2358708.1330631-.3556878.1992935l-.2010998.1113876-.6245234-.2920162c-.0713483.0024084-.145406.0090314-.2206679.0156545-.2111849.0198691-.4505178.0403404-.6716373-.0210733-.3427428-.0969373-.6906033-.094529-1.0601393-.0879059-.2408381.0024084-.489353.0054189-.7431361-.0204712l-.0487697-.0132461-.404307-.1848433-.0194176-.069241c-.0237828-.0680368-.0406414-.1143981-.0401899-.1709951.0006021-.119817.0030105-.2408381.0054189-.3612572Zm-145.7082681.5780115c-.1080761.0469634-.2200658.0584032-.3317545.0584032-.0582527,0-.1165054-.0030105-.1740055-.006021-.0686389-.0042147-.1378798-.0084293-.2066692-.0054189l-.0462108.0018063c-.1160539.0072251-.2611588.0132461-.3778148-.0553928-.1181612-.069241-.2456549-.0656284-.3915125-.0662305-.1907137.0030105-.3668266-.0391362-.5381227-.0794766-.2066692-.0475655-.4012965-.0921206-.5989343-.0590053l-.0422972.0072251-.0398888-.0150524c-.2585999-.0999478-.5274355-.1565448-.812076-.2161522-.2738028-.0578011-.5570887-.1168065-.8295368-.2185606-.0242343-.0090314-.0478666-.0204712-.0714988-.0319111-.0201702-.0096335-.050576-.0240838-.0617148-.025288-.4807731.0144503-.7979268-.2426444-1.0223578-.4750532-.0590053-.0608116-.1216233-.1186128-.1842412-.1764139-.19252-.1788223-.3913619-.3630635-.5045559-.6340064-.3233252-.3696865-.4470558-.8170433-.5667222-1.2499499-.0319111-.1156023-.0639726-.2318067-.0999478-.3456027-.0581022-.1848433-.1154518-.3672781-.1335146-.5593465-.0159555-.1691888-.012644-.3353671-.0090314-.5123831.0015052-.075864.0030105-.1535343.0030105-.2342151l.0076767-.0481676c.3043592-.9254205.6901517-1.8719143,1.7498395-2.3927267l.0651768-.0156545.8758981-.0156545.0270943.0102356c.1431482.0523823.2721471.119817.3967808.1854454.2000462.1041625.3891041.2029061.599988.2185606l.0611127.0174608.2102818.1101834c.4413359.2293983.8977241.4666239,1.263497.8507607.1899611.1992935.3882009.391964.5888492.5816241.2122386.1998956.3782664.41665.4980833.8242685l.006322.0433509c-.0022579.0836912-.006322.2125396.0016558.3395818.0039136.06322.0055694.1258379.0070746.1890579.0052683.2004977.0100851.3895557.0943784.5725926.0651768.1414924.06608.2871995.0669831.4280898.0007526.1354714.0015052.2637177.0611127.3751054.066381.1240316.0699936.2613094.0731546.3823305.0033115.1282463.006322.2384297.0736062.3185084l.0489202.0578011-.0159555.0740577c-.0243849.1125918.0176113.220969.0662305.3468069.0392867.1017541.0839923.2167543.0933248.3450006.0054189.0728535.0331152.1523301.0624674.2360214.0228796.0650263.0454582.1306547.0609621.1974873.0248364.1077751.0418456.2179585.0599085.3371734l.0453077.2805764-.110334.0481676Zm.9785554,216.0510627c-.0367278.088508-.0737567.1818328-.1121403.2775659-.0942279.2366235-.2009493.5039538-.3249809.7592422-.0973889.2004977-.2179585.3889536-.3346145.5713884-.0463613.0722514-.0927227.1445029-.1375788.2179585-.1571469.2552884-.4118332.4371212-.6651648.4732469-.1023562.0150524-.2089271.0511781-.3218199.0891101-.1562437.0523823-.3337113.1125918-.5211135.1125918-.1344178,0-.2739534-.0307069-.4143921-.1174086-.2917152.0132461-.5260808-.1113876-.7527697-.2287962l-.1143981-.0590053c-.252579-.1258379-.4241761-.3010477-.539929-.5509172-.0263417-.0571991-.0547907-.1125918-.0830892-.1679846-.075864-.1487175-.1544374-.3028539-.2000462-.4852888-.0144503-.0578011-.0323626-.1150002-.0501244-.1715972-.0450066-.1432987-.0915185-.2920162-.0930237-.4630113-.0019568-.0012042-.018665-.0276964-.0298037-.0451571-.015504-.0246859-.0308574-.0493718-.0433509-.0740577l-.0326637-.0656284.0299542-.0668326c.4997391-1.1096616,1.1504536-2.0260507,1.9342312-2.7232771l1.4870249-.8694256.0397383-.0006021c.1217738-.0024084.2444507-.0072251.3662245-.0120419.2436981-.0096335.4843857-.0198691.7086662-.0114398l.0808313.0024084.0438024.0680368c.0153534.0240838.0276964.0409425.0370289.0535865.0239333.0325131.053737.0734556.053737.1348693.0015052.9946614.0015052,1.9893229.0015052,3.0309478l-.0117409.3215189Zm146.162549-14.5881672c-.0022579.025288-.0048168.050576-.0048168.0746598l.0001505,9.3908805-.024987.0385341c-.1181612.1812307-.2975856.1824349-.4034039.1794244h-.0422972l-2.0743689.0373299-.2814796-.1348693-1.1947076.0204712c-1.4001726.0240838-2.8126882.0487697-4.2249028.0812829-.1119897.0024084-.2286457.0307069-.3520752.0608116-.1020552.0246859-.2044114.0493718-.3072191.0614137-.1496207.0174608-.3004456.019267-.451421.0210733-.0648758.0006021-.1297515.0012042-.1946273.0030105l-1.1357023.0319111-.2492675.1463092-.9722334.0168587c-.7642095.0132461-1.5449766.0270943-2.3258942.0445551h-.1216233c-.1541364-.0054189-.2887047-.0042147-.4116827.0746598-.1053667.0680368-.2312046.0638221-.3418396.0584032-.0276964-.0006021-.0552422-.0006021-.0814334-.0018063l-1.1159836.0210733c-2.792518.0523823-5.5848855.1053667-8.3774036.1511259-.0626179.0012042-.126139.006021-.1899611.0102356-.0770682.006021-.1574479.0114398-.2393329.0114398-.1658773,0-.3380765-.0240838-.5025991-.1234295l-.2569499.0012042c-.22864.0012042-.4578877.0036126-.6865334-.0030105-.0478666-.0012042-.0955826-.0006021-.1428471-.0006021-.183338.0042147-.3907599.0042147-.6028479-.0993457-.0615642-.0295027-.1684362-.0228796-.271545-.0162566-.075864.0042147-.1524806.0084293-.2248826.0036126-.1014531-.0072251-.2035082-.0024084-.3054128.0012042-.243096.0090314-.5196082.0204712-.7848312-.1210212-.0233312-.0132461-.1016036-.0048168-.1532333.0006021-.0406414.0042147-.0811323.0078272-.1193654.0084293l-1.5166781.0264922-.2754586-.1300526c-1.6261089.0289006-3.2775058.0578011-4.9290532.088508l-.0538875.0006021c-.1332136.0012042-.2385803.0024084-.335066.0680368-.0936258.0644242-.2095292.0614137-.3028539.0614137h-.0522318c-.1780697.0036126-.3565909.0048168-.5351122.006623-.376159.0024084-.7651126.0054189-1.1435295.0331152-.1585016.0132461-.2947257-.031309-.4149942-.0704452-.1148497-.0373299-.2144965-.0674347-.3200137-.0535865-.205164.0307069-.4112311.0276964-.6112773.0216754-.0841428-.0012042-.1679846-.0006021-.2522779-.0024084l-1.033045.0090314c-.173554-.0174608-.3400333-.0006021-.5098242.006623-.1624152-.0018063-.3102296-.031309-.4523241-.0674347-.1446534-.0361257-.281028-.0668326-.420413-.0547907-.2047124.0234817-.4095753.0168587-.6082668.0120419-.0842933-.0030105-.1687372-.0054189-.25288-.0054189l-.072402-.0180629c-.233914-.1252358-.4944708-.1107855-.7703809-.0957332-.1088287.006021-.2170554.0084293-.325282.0102356-.2515253-.0054189-.5038032,0-.7562317.0048168-.2637177.0054189-.5277365.0108377-.7908522.0048168-.1130434-.0018063-.2281941.0054189-.3428933.0120419-.3025529.0216754-.6150404.0403404-.9245173-.1017541l-1.8943424.0337173c-.2847911.1511259-.5742484.1439008-.8546743.132461-.0925722-.0030105-.1849938-.0072251-.2769638-.0024084-.6988821.0270943-1.3929475.0337173-2.0441136.0385341-.0495223.0006021-.0991952.0024084-.1488681.0048168-.208626.0120419-.4438948.0204712-.6775077-.107173-.0334163-.019267-.122978-.0096335-.1949284-.0030105-.0492213.0054189-.0984426.0096335-.1448039.0102356l-.7852828.0090314c-.6293401.0078272-1.2588308.0150524-1.8880204.0156545-.0788745,0-.1578995.0042147-.2369245.0078272-.2798238.0144503-.5691306.0282985-.8599426-.1131939-.0257396-.012644-.1000983-.0042147-.154588.0018063-.0416951.0042147-.0832397.0090314-.1228274.0096335l-2.2303115.0391362-.2822322-.1541364-.7717357.0150524c-.6915065.0144503-1.3974632.0289006-2.1034199.0319111-.0937763.0006021-.1883053.006021-.2829848.0120419-.3105307.019267-.6317485.0385341-.9531169-.1125918-.0266427-.0138482-.0997973-.0042147-.1535343.0012042-.0428993.0042147-.0857986.0090314-.1265905.0096335l-8.5503554.1541364c-.1351704.0018063-.2518264.0036126-.3651708.06322-.1249348.0662305-.2712439.0650263-.3972324.0662305l-.0799282.0006021c-.3365713.0090314-.6732931.0162566-1.0098644.0234817-.6239213.0132461-1.247692.0270943-1.8714627.050576-.1140971.0042147-.2293983.0024084-.3446996.0006021-.31896-.0048168-.6210613-.0102356-.9060029.1210212-.0898627.0421467-.1871011.0343194-.265223.0295027-.0254385-.0012042-.0504255-.0006021-.0751114-.0030105l-.9222595.0162566c-1.0757938.0198691-2.1515876.0391362-3.2273814.0559949l-.0832397.0024084c-.1655762.0054189-.3523763.0132461-.5408321-.0969373-.028449-.0168587-.1127423-.0132461-.1743066-.0096335l-.088207.0030105c-.1642215.0006021-.328443.0036126-.4926645.006623-.306617.006623-.6130835.0114398-.9190985.0018063-.1404387-.006623-.281329.0024084-.4225204.0102356-.3526773.0162566-.7173966.0355236-1.0807611-.1125918-.0335668-.0144503-.1031088-.0072251-.1645225-.0012042-.0421467.0042147-.0841428.0078272-.1244832.0084293l-.682475.0072251c-.5464015.006623-1.0926525.012644-1.6390539.0150524l-.1079256.0024084c-.1771665.0048168-.3775138.0108377-.5802694-.0999478-.0412435-.0216754-.1344178-.0156545-.2172059-.0108377-.0404909.0024084-.0806808.0048168-.1190643.0054189l-.9994782.0120419c-.6049553.0078272-1.20976.0162566-1.8145647.0168587-.0668326,0-.1344178.0042147-.2021535.0084293-.2366235.0156545-.5053085.0307069-.7649621-.119817-.0198691-.0090314-.0940774,0-.1384819.0042147-.0444045.0048168-.0886585.0096335-.1302031.0096335l-.394824.006021c-.3153474.0048168-.6303938.0108377-.9457412.0024084-.104313-.0030105-.2087765.0042147-.3135411.0096335-.2900594.0168587-.5897524.0343194-.8847791-.1095813l-.2993919.0024084c-.265223.0042147-.5301449.0072251-.7944648-.0030105-.0841428-.0024084-.1687372.0018063-.2534821.006623-.2406876.0138482-.5135873.0270943-.7764019-.1216233-.0212239-.0114398-.0985931-.0024084-.1445029.0030105-.0424477.0048168-.0845944.0090314-.1243327.0096335l-1.6584715.0289006-.3209168-.1505238-3.9309297.0710472c-1.0438827.019267-2.0877655.0391362-3.1316482.0511781-.0740577.0006021-.1488681.0054189-.2236784.0096335-.2861458.0162566-.5823767.0331152-.8769518-.1180107-.0135471-.0030105-.0675852.0024084-.0999478.0048168-.0362762.0042147-.0725525.0078272-.1068719.0078272l-.3547847.0030105c-.2816301.0042147-.5631096.0072251-.8441376.0018063-.0544896,0-.1086782.0006021-.1630173.0030105-.2044114.0048168-.4371212.0150524-.6629069-.1192149-.0209228-.0096335-.0972384-.0030105-.1425461.0012042-.1812307.018665-.3460543.0132461-.5182535.0222775-.296833.0162566-.6037511.0325131-.8992293-.0276964-.5423373-.1095813-1.1034902-.094529-1.6458275-.0782724-.3191105.0090314-.6493598.0180629-.9764481.0024084-.1673825-.0084293-.3422912.0156545-.5379722-.0830892-.0585538-.0301048-.1661783-.0264922-.2613094-.0222775l-.0754124.0024084c-3.1411312.0529844-6.2821119.107173-9.4230926.1649741h-.1019046c-.1616626.0006021-.3011982-.0018063-.429595.0812829-.1035604.0668326-.2269899.0650263-.334765.0584032-.0295027-.0012042-.0590053-.0012042-.0865512-.0012042-.1594047.0048168-.3186589.0078272-.4777626.0108377-.3084233.006021-.6166961.012644-.9246679.0301048-.0873038.0048168-.1752097.0030105-.2634167.0018063-.2229258-.0030105-.4345623-.0078272-.625577.1065709-.1031088.0614137-.2214205.0523823-.325282.0457592-.0331152-.0024084-.0657789-.0018063-.0969373-.0042147l-.5740979.0132461c-.4878477.0108377-.9756954.0222775-1.4633926.0403404-.0529844.0024084-.1065709.0006021-.1598563.0006021-.1663288-.0024084-.309778-.0042147-.4402822.0842933-.1031088.0716493-.2281941.0644242-.3383776.0578011-.0307069-.0024084-.0608116-.0042147-.0892606-.0030105l-.1779192.0036126c-.3868462.0090314-.7735419.0174608-1.1602377.0198691l-.0802292.0018063c-.1655762.0048168-.3531289.0102356-.5414342-.0993457-.0293521-.0162566-.113796-.0132461-.1753603-.0108377l-.0883575.0024084c-.1753603,0-.3510216.0018063-.5265323.0036126-.2703408.0030105-.5408321.0048168-.8110224.0030105-.0540381-.0018063-.1058182.0018063-.1589532.0036126-.2066692.006623-.4404327.0168587-.6677237-.1180107-.0207723-.0102356-.097991-.0030105-.1440513.0018063-.0416951.0036126-.0832397.0078272-.1223759.0078272l-.3987376.0024084c-.2429455.0018063-.4860414.0030105-.7289869.0006021-.0397383.0006021-.0800787.0006021-.1199675.0018063-.1726508.0042147-.3677297.0096335-.5653675-.0987436-.0430498-.0246859-.1384819-.018665-.2227753-.0114398-.0382331.0024084-.0761651.0048168-.1124413.0054189l-.2628146.0042147c-1.2249629.018665-2.4497753.037932-3.6745876.0644242-.0526833-.0012042-.1062698-.0006021-.1598563-.0012042-.1908642-.006623-.3549352-.0090314-.492514.0987436l-.0457592.0355236-.0578011-.0030105c-.0541886-.0054189-.1082266.0006021-.1636194.0048168-.1363746.0102356-.2911131.0210733-.4657207-.0457592l-.0877554-.0331152-.0203207-.1631678c-.0096335-.0644242-.019267-.1330631-.0191165-.2010998l.0165576-4.3621805c.0006021-.1661783.0136977-.3462048.1047646-.5382732.0248364-.0523823.0207723-.1432987.0168587-.2312046-.0018063-.0397383-.0036126-.0794766-.0033115-.1180107l.0061715-1.1481957c.0036126-.789949.0073757-1.5798981.0177618-2.3698471.0009031-.0650263-.0018063-.1306547-.0042147-.195681-.0093325-.2372256-.0198691-.5057601.1293-.7700799.018966-.0331152.0106872-.1228274.0039136-.1950789-.0046662-.0493718-.0090314-.0987436-.0090314-.1457071l.0150524-3.3018907.1434492-.3046602-.000301-.4750532c-.0004516-.4852888-.0010537-1.0024887.0019568-1.5190865l-.000301-.0746598c-.0015052-.1649741-.003161-.3510216.1002489-.54309.0287501-.0529844.0258901-.1553406.0234817-.2456549l-.0015052-.0927227c.0022579-.5328543.0019568-1.0657087.0016558-1.5997672l-.000301-.6201582.1511259-.3070686.000301-1.4209449c.000301-1.1241119.0007526-2.2668888-.0007526-3.4102678-.0016558-1.2180388-.006322-2.4372818-.0138482-3.6559227l.0010537-.0951311c.0025589-.139084.0048168-.258901-.0627684-.366676-.06608-.1053667-.0621663-.2312046-.0585538-.3419901l.0013547-.0776703c-.0024084-.1655762-.003161-.3305503-.0039136-.4961265-.0012042-.3022518-.0024084-.6045037-.0149019-.9055513-.003161-.075864.0001505-.1529322.0036126-.2293983.0087304-.1932726.0162566-.3594509-.0864007-.5057601-.0612632-.0873038-.0526833-.1908642-.0457592-.2745555.0022579-.0270943.0051178-.0547907.0033115-.0794766-.0124935-.1812307-.0099346-.3630635-.0070746-.5454983.0057199-.3751054.0109882-.7291374-.116656-1.0681171-.0331152-.0873038-.0269438-.1758118-.0213744-.2540842.0019568-.0258901.0039136-.0523823.0036126-.0776703l-.0018063-.3022518c-.0006021-.2257857-.0010537-.4509694-.0135471-.6755509-.0048168-.0860996-.0021073-.1734034.0007526-.2601052.0069241-.2089271.012945-.3895557-.0889596-.5551319-.06322-.1029583-.0520812-.2221732-.0421467-.3269378.003161-.0337173.0064725-.0674347.0061715-.0987436l-.003161-.4034039c-.0019568-.3100791-.0039136-.6201582-.0138482-.9296352-.0019568-.056597-.0004516-.1131939.0012042-.170393.0046662-.1631678.0087304-.3040581-.0736062-.4304981-.0674347-.1035604-.060059-.227592-.0535865-.3365713.0018063-.0301048.0037631-.0602095.0033115-.088508-.0021073-.1728014-.00286-.3462048-.0036126-.5190062-.0015052-.341388-.0030105-.6833782-.0150524-1.0241641-.003161-.0873038.0001505-.1758118.0036126-.2643198.0087304-.2227753.0170092-.4335086-.0927227-.6213624-.0603601-.1029583-.0492213-.220969-.0394372-.3257336.003161-.0331152.006623-.0662305.006322-.0975394l-.0025589-.6183519c-.0012042-.4726448-.0022579-.9452896-.0162566-1.4173323-.003462-.119817-.000301-.2396339.00286-.3594509.0085799-.3148958.0165576-.6123309-.1000983-.8959178-.0540381-.1312568-.0421467-.2763617-.0314595-.404608.0039136-.0475655.0079778-.0957332.0079778-.1420945l-.0007526-1.1102637c-.0010537-1.0837715-.0021073-2.1681452.0037631-3.2519167.0004516-.0740577-.0025589-.1481154-.0052683-.2221732-.0108377-.2847911-.022127-.5798178.1291494-.877855.0130956-.0258901.0070746-.0957332.0021073-.1523301-.0037631-.0433509-.0072251-.0867017-.0067736-.1276442l.0039136-.5069642c.0025589-.3943724.0052683-.7887449.0141492-1.1831173.0012042-.0517802,0-.1041625-.0013547-.1559427-.0048168-.2071208-.0103861-.441938.1297515-.6719384.0111388-.0198691.0049673-.0975394.0013547-.1445029-.0033115-.0421467-.006322-.0848954-.0057199-.1246337l.0037631-.3323566c.0019568-.2185606.0039136-.4365191.0112893-.6550797.0015052-.0409425.0012042-.081885.0010537-.1228274-.0009031-.1709951-.0019568-.3654719.110334-.5629591.0240838-.0421467.0204712-.1342673.0174608-.2161522-.0016558-.0421467-.003161-.0836912-.0022579-.1240316.0025589-.1023562-.0025589-.2071208-.0075262-.3112833-.0109882-.2348172-.0224281-.4768595.0438024-.7086662.1019046-.3558383.1034099-.7255248.1047646-1.0825674.0007526-.220969.0016558-.4503673.0261911-.6749488.0212239-.0752619.0374804-.1168065.053436-.1571469.0275459-.0698431.0511781-.1294505.0543391-.1800265.012343-.1986915.0142998-.397985.0164071-.5978806.0010537-.1035604.0021073-.2071208.0045157-.3106812l.0009031-.0403404c.00286-.1523301.0061715-.3239273.097991-.5021475.0305563-.0590053.0289006-.1607594.0272448-.2595031l-.0007526-.0806808c.0027094-.5027496.0022579-1.0048971.0019568-1.5106571l-.000301-.5707863.1335146-.278168.0009031-4.2236986c.0015052-.0373299.0040641-.0999478-.0040641-.1192149-.1294505-.1908642-.1223759-.391964-.1162044-.5689801.0013547-.0415446.0030105-.0824871.0024084-.1234295-.0042147-.3383776-.006021-.6767551-.0078272-1.0157348-.0025589-.5045559-.0052683-1.0097138-.016106-1.5142697-.0015052-.0704452.0019568-.1420945.0055694-.2143459.0100851-.1974873.018665-.3684823-.0829386-.5238229-.0678862-.1023562-.0564464-.2257857-.0463613-.334765.0030105-.0325131.0061715-.0644242.0061715-.094529-.0004516-2.1813913-.0009031-4.3609763.0004516-6.5417655l-.0001505-.0475655c-.0006021-.1728014-.0015052-.3690844.1055172-.5695822.024987-.0469634.0207723-.1420945.0170092-.2263878-.0018063-.0391362-.003462-.0776703-.003161-.1150002l.0064725-1.1873319c.0036126-.7767029.0072251-1.554008.0176113-2.3307109.0009031-.0644242-.0013547-.1294505-.0036126-.1938747-.0081283-.2360214-.0174608-.5027496.1222253-.7688757.0263417-.0499739.0171597-.1493196.0084293-.2456549-.0054189-.0571991-.0103861-.1150002-.0103861-.1691888l.0030105-1.7930398c.0027094-1.5359451.0054189-3.0718902.0052683-4.6078354-.000301-3.0243247-.00286-6.0492515-.0105367-9.0729742-.0001505-.0559949.0021073-.1113876.0043652-.1673825.0079778-.18966.0147513-.3534299-.0749609-.5075663-.0686389-.1168065-.0599085-.2564926-.0520812-.3805242.0022579-.0367278.0048168-.0734556.0045157-.1083772l-.0043652-.7544254c-.0021073-.4979328-.0042147-.9958656-.0149019-1.4937985-.0016558-.0740577.0015052-.1499217.0046662-.2251836.009483-.2203669.0174608-.4100269-.0919701-.5816241-.0578011-.0909164-.0478666-.1974873-.0397383-.2829848.0024084-.025288.0051178-.0511781.0048168-.0752619l-.0033115-.3781159c-.0022579-.2950267-.0043652-.5894513-.0142998-.8838759-.0019568-.0553928-.0006021-.1113876.0007526-.1667804.0042147-.164372.0076767-.3058644-.0773692-.4323044-.0689399-.1023562-.060059-.2257857-.0523823-.3341629.0022579-.0319111.0046662-.06322.0042147-.0927227l-.0051178-.4323044c-.0027094-.2540842-.0052683-.5081684-.0117409-.7622527l-.000301-.1077751c.0009031-.1348693.0018063-.2516758-.0635211-.3570425-.0654779-.1047646-.0624674-.2293983-.0599085-.3389797l.0006021-.0782724c-.0030105-.1228274-.0039136-.246257-.0048168-.3696865-.0013547-.1806286-.0025589-.3606551-.0108377-.5406816-.0030105-.0656284-.0016558-.132461-.0001505-.1986915.0040641-.1788223.0075262-.3335608-.0827881-.4732469-.0665343-.1023562-.0561454-.2239795-.0469634-.3311524.00286-.0325131.0058704-.0650263.0055694-.0957332l-.0025589-.385341c-.0010537-.2691366-.0021073-.5376711-.012343-.8056035-.0036126-.0921206-.0015052-.1842412.0007526-.2769638.006021-.2444507.0115903-.4756553-.0972384-.6851845-.0541886-.1047646-.043953-.2203669-.034771-.3227231.00286-.0325131.006021-.0656284.006021-.0963352v-.4882993c.0001505-2.4396902.000301-4.8793804.0024084-7.3190705l-.0007526-.0662305c-.0024084-.1481154-.0052683-.3154979.0967868-.4889014.0224281-.037932.022127-.12644.021826-.1974873l.000301-.0674347c.003161-.1511259.003462-.3022518.0037631-.4533778.0004516-.2492675.0010537-.4979328.0135471-.7472003.0049673-.0987436.0021073-.1980894-.0004516-.2974351-.0075262-.2799743-.0153534-.5695822.1282463-.8640068.0204712-.0421467.0135471-.1258379.0069241-.2059166-.0040641-.0493718-.0079778-.0987436-.0076767-.145105l.0039136-.9115723c.0027094-.7285353.0052683-1.4570706.0165576-2.185606.0012042-.0722514-.0013547-.1445029-.0037631-.2167543-.0087304-.2607073-.0177618-.530446.1199675-.8122266.0332658-.0674347.0228796-.1854454.012945-.2992414-.0057199-.0644242-.0111388-.1282463-.0111388-.18966l.015504-7.3810864.1437503-.2974351-.0001505-.7219123c-.000301-.7815197-.0006021-1.5931442.0016558-2.4053707v-.0421467c0-.1812307,0-.3678802.09769-.5695822.0343194-.0704452.0305563-.1848433.0269438-.2956288-.0013547-.0403404-.0025589-.0806808-.0024084-.119817l.0073757-1.5720708c.003161-.7658652.006322-1.5317305.0124935-2.2975957.000301-.0469634-.0009031-.0933248-.0021073-.1402882-.0052683-.2101313-.0112893-.448561.1220748-.6863886.0200197-.0349215.012644-.1252358.0067736-.1980894-.0040641-.0487697-.0076767-.0975394-.0073757-.1432987l.0042147-.8164412c.00286-.6195561.0055694-1.23851.0156545-1.8580661.0012042-.0770682-.0012042-.1541364-.003462-.2312046-.0084293-.2805764-.0171597-.5701843.1273432-.865813.0203207-.0409425.012945-.1270421.006623-.2035082-.0043652-.0499739-.0082788-.0999478-.0079778-.1475133l.003462-.7237186c.0022579-.5798178.0045157-1.1602377.015805-1.7400554.0013547-.0680368-.0016558-.1366756-.0046662-.2053145-.0100851-.2354193-.0216754-.5021475.1342645-.7622527.0100879-.0198691.0033143-.0951311-.0009004-.1402882-.0039136-.043953-.0076767-.0879059-.0072251-.1288484l.0043652-.4395296c.00286-.3227231.0058704-.6460483.012644-.9687713.0009031-.0385341.0001505-.0770682-.0004516-.1156023-.0027094-.1764139-.0058704-.3769117.1208706-.5768073.0138482-.0222775.0096335-.1065709.0070746-.1565448-.0018063-.0367278-.0036126-.0728535-.0030105-.107173l.0171597-1.3059447c.0019568-.1523301.0040641-.3245294.0954321-.5033517.0298037-.0590053.0278469-.1595553.0258901-.2576968l-.0009031-.0836912c.0025589-.5057601.0022579-1.0121222.0019568-1.5196886l-.000301-.5593465.1493196-.3118854-.0018063-.2312046c-.0027094-.2300004-.0057199-.4816762.0058704-.7333521.0037631-.0806808.0013547-.1625657-.0009031-.2438486-.006623-.2432465-.0142998-.5184041.1351704-.7845302.012644-.0228796.0058704-.1005499.0015052-.151728-.003462-.0415446-.0067736-.0824871-.0067736-.1210212l.000301-.9380645c.0004516-1.5624373.0009031-3.1254767-.0012042-4.6885161l.0012042-.0963352c.003161-.1619636.006021-.3016497-.0800787-.4202625-.0627684-.0873038-.0552422-.1914663-.0493718-.2751576.0019568-.0270943.0045157-.0541886.0027094-.0788745-.0120419-.1655762-.0103861-.3317545-.0085799-.4979328.0039136-.3425922.0075262-.6659174-.1118392-.9753944-.0454582-.1174086-.0368783-.2444507-.0292016-.3564404.0027094-.0397383.0055694-.0788745.0054189-.1174086l-.0004516-.6869907.0001505-.2107334-.1497712-.2570947.0010537-.3275398c.0012042-.2360214.0025589-.4846867-.0033115-.7321479l-.000301-.119817c.0010537-.1565448.0019568-.2914141-.0716493-.417252-.0693915-.1186128-.0620158-.2601052-.0556938-.385341.0018063-.0349215.0037631-.0698431.003462-.1029583l-.0054189-.998274c-.0030105-.6526713-.0058704-1.3059447-.0164071-1.958616-.0010537-.0716493.0016558-.1439008.0043652-.2161522.0081283-.2137438.0159555-.4160479-.0877554-.5990848-.06608-.1156023-.0529844-.2522779-.0415446-.372697.0039136-.0403404.0079778-.0812829.0079778-.1192149l-.0001505-4.2068399-.1562437-.2763617.0007526-.9711797c.0010537-.8537711.0022579-1.7274114-.0045157-2.6010517-.0006021-.0698431.0016558-.1396861.0037631-.2095292.0073757-.2408381.0142998-.4684301-.0942279-.6797656-.0621663-.1204191-.0513286-.2576968-.0418456-.3787179.0043652-.0553928.009483-.1113876.0048168-.1637699-.016106-.1818328-.0130956-.3630635-.0102356-.5388753.0052683-.328744.0103861-.6400273-.1020552-.9416771-.060059-.1607594-.0498234-.3317545-.0400393-.4973307.0048168-.081885.0102356-.164372.0048168-.2432465-.0079778-.113796-.0054189-.2281941-.0025589-.3425922.006021-.2480633.0115903-.4816762-.0988942-.6942159-.0546401-.1041625-.0447056-.2203669-.0359752-.3233252.00286-.0319111.0057199-.0644242.0057199-.0951311l-.000301-1.5949505-.1490186-.2607073.0021073-.5214145c.0025589-.3847389.0052683-.7791113-.006322-1.1734838-.0030105-.1047646.0007526-.2101313.0045157-.3161.0099346-.2793722.019267-.5436921-.1031088-.7863365-.0520812-.1029583-.0424477-.2161522-.0340184-.3167021.00286-.0331152.006021-.0668326.0055694-.0987436-.0015052-.1318589-.0045157-.2643198-.0076767-.3961787-.0072251-.3100791-.0146008-.6303938-.0013547-.947698.0055694-.1336652-.0289006-.2661261-.0653273-.4058122-.0451571-.1728014-.0918195-.3522258-.0708967-.5569382.0240838-.2348172.0183639-.4696343.012343-.7182997-.0025589-.107173-.0051178-.2137438-.0052683-.3203147l-.0070746-3.2675712c0-.2450528,0-.4901056-.0099346-.7351584-.0024084-.0584032-.0009031-.1174086.0006021-.177016.0045157-.1601574.0082788-.2992414-.0749609-.4226709-.069241-.1017541-.0609621-.2257857-.0538875-.334765.0021073-.031309.0043652-.0626179.0037631-.0915185l-.0054189-.4015976c-.0024084-.2173564-.0049673-.4347128-.0112893-.6520692-.0012042-.0415446-.000301-.0830892.0006021-.1252358.0033115-.1475133.0019568-.2426444-.0611127-.3269378-.0599085-.0800787-.0612632-.177016-.0623169-.2552884-.0025589-.0879059-.0058704-.1432987-.0093325-.1980894-.0096335-.1601574-.0197186-.3257336.0037631-.4931161.0120419-.0854975-.0203207-.1661783-.0579517-.258901-.0367278-.0909164-.0784229-.1944768-.0812829-.3154979-.0064725-.2775659-.0447056-.530446-.1172581-.7742946-.0368783-.1240316-.0481676-.2504716-.0590053-.3720949-.0132461-.1493196-.0258901-.2896078-.0827881-.4154458-.0462108-.1023562-.0361257-.2113355-.0270943-.3076707.003161-.0331152.0064725-.0668326.0064725-.0993457v-.0963352l.5753021-.265524.4931161-.006623c.4208646-.0048168.8561795-.0096335,1.2911934-.0289006.1044635-.0042147.2096797-.0006021.3145948.0006021.2793722.0090314.543391.0144503.7812187-.1216233l.0711978-.0204712.2578473-.006623c.1931221-.0048168.3860936-.0090314.5784631-.0246859.0957332-.0078272.192821-.0048168.2896078-.0054189.2153996.0012042.4190583.006021.5995364-.1059688.0909164-.0571991.1965841-.0511781.281028-.0427488.025288.0018063.0510276.0042147.0743588.0030105l.3513226-.0102356c.2334625-.006623.4669249-.0132461.7002368-.0240838.3103801-.0150524.6242223.0307069.8864348-.1174086l.0730041-.0198691,1.5026794-.0276964.0246859.0084293c.4432927.1439008.8978746.1204191,1.3790993.0975394.1709951-.0090314.3418396-.0174608.5120821-.0180629.8853811-.0042147,1.7707623-.0198691,2.656294-.0355236.5909565-.0102356,1.1819131-.0204712,1.7728696-.0276964.0547907-.0006021.1098824-.0036126.1649741-.006623.227592-.012644.4851383-.0264922.7345563.1216233.0198691.0084293.0942279.0006021.1386324-.0042147.0438024-.0042147.0876049-.0090314.1286979-.0090314l.4651186-.006021c.3621603-.0054189.7243207-.0096335,1.0858789-.0030105.0943784.006021.1898105-.0030105.2850921-.0072251.2846406-.0138482.5793662-.0276964.8769518.1113876.0406414.019267.1271926.0102356.2030566.0024084.0499739-.0054189.0999478-.0102356.1475133-.0108377l1.0085096-.0132461c.8597921-.0114398,1.7194337-.0228796,2.5790752-.0270943.0675852,0,.1354714-.0048168.2035082-.0090314.2366235-.0144503.5044053-.0319111.7640589.1168065.0195681.0072251.0930237,0,.1371272-.006021.0444045-.0054189.0889596-.0102356.1305042-.0108377l.5263818-.0084293c.5036527-.0072251,1.0073054-.0150524,1.5106571-.0301048.0532854-.0024084.1068719-.0012042.1607594.0012042.1651246.0042147.3088749.0072251.4396801-.0800787.1032593-.0710472.227592-.0638221.337926-.0571991.0305563.0018063.0605106.0006021.0889596.0030105,2.6490688-.0487697,5.2979871-.0975394,7.9467549-.1432987l.0769177-.0024084c.1673825-.0048168.3570425-.0120419.5470036.0993457.0301048.0174608.1142476.0144503.1756613.0114398l.0876049-.0024084c.1571469,0,.3142937-.0018063.4714406-.0036126.2421928-.0030105.4840846-.006021.7262775-.0018063.0546401-.0012042.1085277-.0012042.1628668-.0036126.2053145-.006021.4378738-.0162566.6639606.119817.0212239.0096335.0993457.0030105.1458576-.0018063.0404909-.0036126.0808313-.0072251.1186128-.0078272l.501997-.0048168c.3263357-.0036126.6525208-.0078272.9785554-.0030105.0838418-.0024084.168884-.0030105.2536326-.0072251.2745555-.012644.558895-.0264922.8423313.1174086.0152029.006021.0705957-.0012042.1037109-.0054189.0346205-.0036126.069241-.0072251.1020552-.0078272l.0441035-.0006021,5.591057-.0999478.2394834-.1384819.6928612-.0108377c.5342091-.0072251,1.0812126-.0150524,1.6282162-.0349215.0924216-.0030105.1851443-.0012042.278168,0,.2674808.0054189.5206619.0102356.7553286-.1125918.104012-.0547907.2182595-.0463613.3195621-.0391362.0328142.0024084.0656284.006021.0966363.0042147l.6701321-.0150524c.5257797-.0114398,1.0515595-.0228796,1.5770381-.043953.0702946-.0018063.1404387-.0018063.2099807-.0012042.2179585.0012042.4214667.0042147.612933-.101152.1300526-.0704452.2829848-.0602095.4178541-.050576.0472645.0030105.0942279.0030105.1396861.006021l7.4539399-.1330631.2796733.1300526.3367218-.0078272c.3114338-.0078272.6442377-.0132461.9764481-.0120419.0809818.0006021.1619636-.0024084.2427949-.0048168.2753081-.0090314.5596476-.019267.8488039.1119897.0483181.0222775.1369767.0144503.2226247.006021.0711978-.006623.1429976-.012644.2105828-.0084293.1604584.012644.3210673.0042147.4910087-.0036126.3504195-.0132461.7131819-.0295027,1.0754927.1107855.0496729.0198691.1341167.0114398.2155501.0036126.0490708-.0048168.0982921-.0090314.1457071-.0096335l.7800145-.0108377c.6385221-.0096335,1.2756894.0036126,1.9160178-.0240838.2817806-.0132461.5722916-.0276964.8640068.1156023.024987.0120419.0973889.0054189.1503733-.0006021.0438024-.0048168.0874543-.0090314.1289989-.0090314l.4447979-.0054189c.3686329-.0048168.7374162-.0096335,1.105447-.0048168.0698431.0012042.1420945-.0024084.2134428-.006623.2328604-.0120419.4962771-.0258901.7506623.1228274.0177618.0072251.0838418.0006021.123279-.0036126.0522318-.0048168.1046141-.006021.1538354-.0078272.1828864.0090314.3672781.0042147.5516698-.0018063.3975334-.012644.8090656-.0240838,1.2181893.1089793.0626179.0198691.1484165.0138482.2393329.0072251.0717999-.0048168.1437503-.0096335.2129912-.0048168.0906153.0054189.1819833.0006021.2735018-.0030105.2345161-.0102356.4995886-.0240838.7530707.12644.0106872,0,.0654779-.0036126.0972384-.006623.0337173-.0036126.0672842-.0072251.0987436-.0078272l1.1653555-.0204712.2996929.1420945.119817-.0030105c.132461-.0042147.2829848-.0090314.432756-.0036126.0835407.0036126.167232-.0006021.2513748-.0042147.2309035-.0102356.4917613-.0216754.7375667.1113876l.2495685-.0018063c.2330109-.0036126.4669249-.0054189.6999358.0042147.0693915.0018063.1386324-.0006021.208325-.0036126.2120881-.0102356.4521736-.0204712.6851845.1192149.0180629.006623.0857986.0018063.1262895-.0018063.050576-.0048168.1016036-.0090314.148567-.0054189.1676835.0102356.3364208.0042147.5053085-.0018063.3681813-.0120419.7494581-.025288,1.1280256.1119897.0400393.0138482.1091298.0084293.1756613.0030105.0400393-.0036126.0800787-.0072251.1189138-.0078272l1.3247602-.0228796.2638683.145105.4822783-.0108377c.4192089-.0096335.8491049-.018665,1.2783989-.0162566.0967868-.0042147.1961325-.0042147.2945751-.0090314.3049613-.0180629.6206097-.0325131.9380645.1125918.0409425.0180629.12644.0096335.2021535.0024084.0510276-.0054189.1019046-.0102356.1505238-.0108377l.7729398-.0090314c.656886-.0090314,1.3053426-.0180629,1.970959-.0162566.0650263,0,.1302031-.0030105.1953799-.006021.2334625-.0114398.4982339-.0222775.7628548.1041625.0654779.0319111.1822844.018665.2953277.0072251.0648758-.0072251.1297515-.0138482.1916168-.0150524l10.199344-.1613615.2590515.1186128,5.7561816-.1029583c.1712961-.0024084.2885542-.0042147.3969313-.0704452.107474-.0644242.2325593-.0644242.3427428-.0644242l.0716493-.0012042c.1554911-.006021.3109822-.0096335.4666239-.0138482.2420423-.006021.4839341-.0120419.7256754-.0258901.0638221-.0030105.1274937-.0030105.1919179-.0024084.1812307.0036126.337926.0036126.4818268-.0921206.1026572-.0662305.22413-.0596074.3308514-.0529844.0325131.0018063.0650263.0024084.0946795.0030105l.4345623-.012644c.2762112-.0072251.5524224-.0144503.8283326-.0282985l.1205696-.0036126c.1586521-.0042147.2954783-.0072251.4338097-.0752619.1506744-.0728535.3258841-.0674347.4792679-.0644242.0460603.0006021.091669.0006021.1365251.0012042,2.4849978-.0523823,4.9696947-.1029583,7.454542-.1535343l.6440915-.0114398.2098302-.1210212,6.0695723-.107173c.1160539-.0042147.2470096-.0102356.3589993.0547907.1037109.0602095.218109.0541886.3514731.0499739.0388351-.0018063.0776703-.0036126.1165054-.0036126.2671798-.0012042.5345101-.0048168.8018404-.0084293.4133384-.0048168.8269779-.0102356,1.2389616-.0078272.0772187-.0042147.1538354-.0042147.2312046-.0084293.2491169-.0138482.5316502-.0301048.8028941.1234295.0209228.0096335.0988942.0018063.1455565-.0024084.0419961-.0048168.0838418-.0090314.1231285-.0096335l1.5166781-.0270943.3084233.1439008.2218721-.006021c.2321077-.006021.4870951-.0132461.7414804-.0078272.0767672,0,.1544374-.0024084.2321077-.006623.2385803-.0114398.5068137-.025288.7598443.1119897l.2495685-.0018063c.2331614-.0036126.4670754-.0054189.6999358.0042147.0585538.0024084.1165054.0030105.1743066.0042147.2202164.0030105.4478084.006623.6897002.0860996.1550395.0511781.3422912.0397383.5409826.0282985.1076245-.006623.2160017-.0150524.3213684-.0096335.0441035.0012042.0883575-.0006021.1326115-.0012042.1699414-.0072251.3638161-.0102356.555734.1065709.0263417.0162566.113495.0108377.1711456.0084293.0304058-.0018063.0602095-.0030105.0888091-.0036126.2662766-.0018063.5319512-.0072251.7998836-.012644l.3291956-.006021.1202685.1366756c.0623169.0686389.1193654.132461.1661783.2035082.0415446.06322.0674347.1294505.0999478.2137438.0152029.0391362.0326637.0836912.0547907.1360735l.0121924.0602095-.0018063.2763617c-.0021073.2360214-.0045157.5009433.0045157.7640589.0033115.0909164.0009031.183037-.0015052.2745555-.0064725.2450528-.0124935.4768595.0955826.6875928.0535865.1053667.0432003.2203669.0341689.322121-.00286.0325131-.006021.0650263-.006021.0963352v.6912054c0,1.1060491,0,2.2120982-.0025589,3.3187493l.000301.0553928c.0012042.1487175.0025589.3167021-.0894112.4931161-.0305563.0584032-.0292016.1595553-.0278469.2576968l.0004516.081885c-.0033115.3311524-.0049673.6623048-.006623.9928552-.0027094.5611528-.0054189,1.1217036-.0165576,1.6822543-.0018063.088508.0013547.1764139.0045157.265524.0103861.2914141.0212239.5930639-.1265905.9001325-.0204712.0427488-.0135471.1252358-.0069241.2053145.0042147.0499739.0081283.0999478.0078272.1475133l-.0040641.764661c-.0027094.612933-.0054189,1.225866-.0162566,1.8394012-.0012042.0668326.0013547.1336652.0039136.2010998.0087304.2348172.018665.5009433-.1273432.7634568-.0191165.0343194-.0109882.1240316-.0043652.195681.0045157.0499739.0087304.0993457.0087304.1463092l-.015504,3.4409747-.1442018.3010477.000301.6406294c.000301.6671216.0007526,1.3649501-.0019568,2.0627785l.0007526.0812829c.0025589.1649741.0054189.3522258-.1070224.5418858-.018966.0319111-.016106.1156023-.0138482.183037l.0018063.0800787-.0015052,1.0602898c-.0021073,1.3577249-.0042147,2.7154498.0075262,4.0731747.0013547.164372.0299542.328744.0603601.5027496.0373299.2143459.0760145.435917.0635211.6707342-.0233312.4401317-.0289006.8068077.0198691,1.1644523.0132461.0975394.0301048.1944768.0468129.2914141.0422972.2432465.0857986.4949223.0757135.7598443-.0085799.227592-.006322.4551841-.0043652.6689279l.0015052.2239795.1481154.2619115-.0019568.5954723c-.0024084.448561-.0048168.9109702.006021,1.3721752.0024084.1041625-.0016558.2089271-.0057199.3136917-.0109882.2805764-.0215249.5454983.0996468.7893469.0513286.1035604.0412435.2167543.0323626.3173042-.0030105.0331152-.0061715.0668326-.006021.0981415l.0036126.6900012c.0024084.5665717.0048168,1.1325413.0165576,1.699113.0015052.0740577-.0013547.1487175-.0043652.2233774-.0085799.2119375-.0165576.4118332.0901638.587645.0627684.1041625.0513286.2239795.0412435.3299482-.003161.0331152-.0064725.0662305-.0064725.0969373l.0001505,1.8664954.1532333.3522258-.0018063.3016497c-.0022579.2558905-.0048168.5364669.0051178.8170433.0030105.0836912.0006021.1685867-.0018063.2534821-.0064725.2269899-.012644.4413359.0952816.6334043.0581022.1035604.0478666.2203669.0386846.3239273-.00286.0331152-.006021.0662305-.0057199.0969373l.0022579.4064143c.0009031.3082728.0018063.6171477.015504.9248184.0033115.0764661.0006021.1529322-.0022579.2300004-.0073757.1932726-.0136977.360053.0823365.5147915.0719504.1156023.0594569.2558905.0484687.3799221-.003462.0397383-.0072251.0788745-.0072251.1162044l.0072251,5.5254286c.0039136,3.4566291.0078272,6.9138604.015504,10.3698874.0001505.0728535-.0019568.1463092-.0042147.2197648-.0079778.2625136-.015504.5111789.0927227.7447919.0603601.1306547.0475655.278168.0362762.4082206-.0042147.0487697-.0085799.0975394-.0084293.1439008l.0216754,5.3664755-.0001505.0529844.1335146.2384297-.0018063.6731426c-.0022579.5196082-.0045157,1.0512584.006322,1.5823065.0019568.0993457-.0012042.1998956-.0045157.2998435-.0093325.2847911-.0180629.5539277.0994962.8068077.056597.1216233.0460603.2576968.0368783.3775138-.0043652.0553928-.009182.1107855-.0052683.1637699.0144503.1902621.0105367.3817284.006623.5665717-.0076767.3672781-.0149019.7146871.1116887,1.0476458.0447056.1180107.0362762.2444507.0287501.3558383-.0027094.0397383-.0055694.0794766-.0054189.1180107l.0004516.6478545-.0001505.2414402.1497712.3419901-.0009031.1950789c-.0010537.1758118-.0024084.3763096.00286.5762052l.0004516.1083772c-.0007526.1354714-.0015052.2522779.0638221.3564404.0665315.1053667.0642737.2312046.0623169.3425922l-.000301.0746598c.0030105.1270421.003462.2546863.0037631.3823305.0007526.2215711.0012042.4437442.0170092.6647132.0106872.1487175.0362762.2956288.0617148.4431421.040792.2366235.0829386.4816762.0686389.7405772-.018966.3492153-.0149019.7231165.0127945,1.1764942.006322.1023562.0310079.2053145.0571991.3148958.0388351.1619636.079025.3299482.0656284.5184041-.0141492.2029061-.0084293.4136395-.0027094.6177498.0025589.094529.0052683.18966.006021.284189l.006623,1.4353952-.0001505.1848433.1222253.2155501.0004516.6045037c.0006021.4876972.0012042.9784049-.0021073,1.4691125l.0009031.1005499c.003161.1794244.0067736.3823305-.1101834.5888492-.022127.0391362-.0167081.1294505-.0117409.2095292.0025589.043953.0051178.0879059.0048168.1294505l-.0046662.8296873c-.0025589.568378-.0052683,1.1361538-.016106,1.7045318-.0012042.0662305.0015052.1336652.0040641.2004977.0093325.2372256.0200197.5057601-.135923.7664673-.0112893.0210733-.0042147.0993457,0,.1463092.0036126.0415446.0070746.0830892.0070746.1216233l-.016106,1.4107093-.129601.265524.0015052.1150002c.0025589.1354714.0052683.2890057-.0048168.441938-.0055694.0830892-.0064725.1667804-.0073757.2498696-.0025589.2444507-.0052683.4973307-.1162044.7616506-.0397383.0951311-.0320616.2257857-.0239333.3642677.0055694.0963352.0106872.1932726.0033115.2859953-.006021.0740577-.0036126.1487175-.0015052.2233774.006021.2077229.012644.44254-.1350199.66953-.0009031.0072251.0019568.0523823.0037631.081885.0027094.0415446.0048168.0830892.0018063.1216233-.0133966.1782202-.0103861.3570425-.0075262.5364669.006021.3799221.012343.7736925-.1303536,1.1668607-.0209228.0578011-.0152029.1408903-.009182.2287962.003161.0469634.0061715.0933248.0061715.1384819l-.0194176,2.6967849-.1122908.2035082c-.0007526.0668326-.003161.1342673-.0055694.2017019-.0064725.177016-.0124935.3450006.0117409.505158.0115903.0770682.0251375.1541364.0385341.2306025.0422972.2408381.0859491.4901056.0743588.7538233-.0108377.2486654-.0073757.4967286-.0039136.745394l.009784,1.2866777-.0001505.1667804c-.0007526.1288484-.0016558.2576968.0078272.385341.0067736.0909164.0046662.183037.0022579.2751576-.0054189.2041103-.0100851.3811263.0886585.54309.0624674.1029583.0516297.2215711.0421467.3263357-.0030105.0337173-.006322.0674347-.0058704.0981415l.0072251.3492153c.0067736.284189.0135471.5689801.0043652.8537711-.0030105.0963352.0290511.1932726.062919.2956288.043953.132461.0936258.2823827.0751114.4569903-.0233312.2203669-.0525328.4955244.0150524.7056557.0874543.271545.0978405.5412837.1079256.802593.006021.1583511.0118914.3082728.0340184.4563882.0133966.0903143.0314595.1794244.0493718.2685345.0413941.2047124.0841428.4160479.0754124.6436399-.0082788.2173564-.0016558.4347128.0048168.6520692l.0051178.1818328-.000301.0716493c-.0007526.0373299-.0019568.1005499.0067736.1192149.123279.1818328.1190643.3720949.1153013.5400795l-.0012042.0848954c.0022579,2.0633806.0018063,4.1267612.000301,6.1901418l.0001505.0590053c.0012042.1944768.0025589.4148437-.1300526.6322001-.0105367.0198691-.0043652.0963352-.0004516.1414924.003462.0433509.0067736.0867017.0061715.1270421l-.0045157.3660739c-.0027094.2540842-.0055694.5075663-.0124935.7610485-.0012042.0403404-.0006021.0806808-.0001505.1204191.0024084.1746076.0049673.3720949-.116656.5695822-.0152029.0246859-.0115903.107173-.0090314.1613615.0015052.0355236.0030105.0710472.0024084.1047646l-.0084293.612933c-.0027094.2173564-.0052683.4353149-.009182.6532734l-.0006021.0451571c-.0019568.1505238-.0039136.3215189-.0946795.4985349-.031309.0608116-.0301048.1637699-.0289006.2637177l.000301.0776703c-.0030105.3901578-.0025589.7809176-.0021073,1.1740858l.0004516.4834825-.1568458.3323566.000301.6352105c.000301.6641111.0007526,1.3619396-.0019568,2.059768l.0010537.088508c.003462.1631678.0072251.347409-.1032593.5346606-.019267.0325131-.0164071.1162044-.0141492.1836391l.0016558.0800787-.0010537,1.3191908c-.0018063,1.8809457-.0036126,3.7618915.0051178,5.6434393.0007526.1631678.0285995.3263357.0582527.4985349.0370289.2161522.0754124.4401317.060059.6773572-.0174608.2667282-.012343.54309-.0075262.8098182.0022579.1252358.0045157.2504716.0046662.3757075l-.000301,1.4980131c.000301.2986393.0004516.5972785-.0052683.8965199l-.000301.1083772c.0012042.1734034.0024084.3696865-.0985931.5725926-.03161.0638221-.0263417.1721993-.0212239.2775659.0022579.0469634.0045157.0927227.0042147.1372777-.0081283,1.3697668-.0144503,2.7401357-.0209228,4.1099026l-.0018063.7965721.0001505.2432465-.116957.2119375-.000301,8.8899372c0,.157749.0121924.2799743.0731546.4021997.0593064.1192149.0520812.2552884.0457592.3751054-.0019568.0361257-.0039136.0716493-.0037631.1059688l.0054189,1.2035885c.0036126.8640068.0070746,1.7286156.0173102,2.5926224.0007526.069241-.0019568.1396861-.0048168.2095292-.0087304.2161522-.0170092.4196604.0921206.5996869.0621663.1029583.0514791.2215711.0419961.3263357-.0030105.0331152-.006322.0668326-.0058704.0981415l.0025589.360053c.0012042.2763617.0022579.5527235.0183639.827881.006322.1065709.0298037.214948.0547907.3293461.0245354.1119897.0486192.2245815.0585538.3383776.0159555.1824349.0152029.366676.0141492.5515193-.0004516.0776703-.0007526.1553406.0001505.2330109.0009031.0764661-.0027094.1541364-.0064725.2318067-.0075262.1565448-.0147513.3040581.0195681.4304981.1339662.4955244.1318589.9964677.1297515,1.4817565-.0007526.164372-.0015052.3293461.003161.4937182.00286.1017541.0325131.2029061.0638221.3100791.0450066.1541364.0958837.328744.0696925.5268334-.0234817.1788223-.0159555.3618593-.0081283.5563361.0036126.088508.0072251.177016.0078272.265524l.0078272,1.6184322-.0001505.2534821c-.0004516.1950789-.0010537.3907599.0058704.5852366.0018063.0499739.0012042.0999478.000301.1499217-.0022579.1463092-.0042147.2733513.0642737.3907599.0699936.119817.0630695.2637177.056898.3907599-.0015052.0331152-.003161.0656284-.003161.0969373.0016558.6291896.0015052,1.2577771.0012042,1.8640871l-.0001505.5719905.151427.2619115-.0025589.341388c-.00286.233613-.006021.4762574.0061715.7182997.0052683.1065709.0016558.2137438-.0021073.3215189-.0090314.2534821-.0174608.4931161.104313.7032473l.0201702.0343194.003462.3835347c.0013547.258901.0025589.517802.0159555.7761008.0046662.0921206.0015052.1860474-.0021073.2799743-.0081283.2179585-.0159555.4238751.0946795.6032995.0562959.0915185.0465119.1968852.0386846.2823827-.0022579.025288-.0049673.050576-.0046662.0746598.0012042.1246337.0010537.2492675.0010537.3745033-.000301.271545-.0006021.5436921.0133966.8146349.0064725.1246337.00286.2504716-.0007526.3763096-.0082788.2847911-.016106.5533256.0985931.8062056.0591559.1312568.047114.2787701.0364268.4094248-.0039136.0475655-.0079778.0957332-.0078272.1414924l.0045157,1.4299764c.0037631,1.2812588.0075262,2.5631197.0174608,3.8443785.0006021.075864-.0025589.1523301-.0058704.2287962-.0099346.2342151-.0194176.4551841.0903143.6574881.062919.1162044.050275.2504716.0389857.3684823-.0039136.0415446-.0079778.0824871-.0078272.1216233l.0025589.8043993c.0015052.6448441.00286,1.2902902.0165576,1.9357364.0025589.1216233-.0015052.2444507-.0057199.3672781-.0114398.3359692-.0222775.6532734.1068719.9519127.0447056.1035604.0359752.2137438.028148.3112833-.0025589.0331152-.0054189.0662305-.0052683.0981415l.0036126.707462c.0022579.5605507.0046662,1.1211015.0153534,1.6816522.0015052.0848954-.0013547.170393-.0042147.2558905-.0087304.2510737-.0168587.4876972.0969373.7008389.0490708.0915185.0397383.1938747.0320616.2763617Zm7.0273554,16.0693216c-.022127.0782724-.044254.1553406-.0642737.233613-.078724.3070686-.2956288.505158-.505459.6966243l-.0930237.075864c-.2122386.0993457-.4158973.1493196-.6127825.1974873-.1731024.0427488-.3365713.0824871-.4854393.1529322-.06322.0307069-.1270421.0289006-.173855.025288l-.7687252.0132461-.6805182-.3124875c-.508319-.3901578-.8960683-.8874885-1.2710232-1.3691647-.1490186-.1908642-.2232268-.3907599-.2792217-.5653675-.0298037-.0927227-.0633705-.1842412-.0967868-.2763617-.1003994-.2751576-.2042608-.5599486-.2185606-.877855-.0022579.0024084-.0197186-.0204712-.0302553-.0343194-.015504-.0198691-.0295027-.0385341-.0394372-.0547907l-.0216754-.069241c-.0072251-.1083772-.0087304-.2173564-.0100851-.3245294-.00286-.2263878-.0054189-.4401317-.0651768-.6243728-.0662305-.2041103-.0714988-.3991892-.0764661-.5870429-.0025589-.0969373-.0048168-.1926705-.0168587-.2890057-.1223759-.1631678-.1302031-.3492153-.1372777-.5147915-.006322-.1535343-.0118914-.2859953-.0993457-.3925661l-.0856481-.1041625.3654719-.3925661.101152.0457592c.1384819.0626179.2826837.0897122.4220688.1162044.0815839.0156545.1615121.0307069.2391824.0517802.1125918.0307069.2138944.0806808.3120359.1288484.1053667.0517802.2048629.101152.3112833.1240316.1440513.0301048.2789207.0824871.4094248.1336652.0812829.0319111.1627163.0638221.2456549.0891101.0854975.0270943.1728014.0469634.2599546.0674347.1342673.0319111.2733513.0644242.4076185.1180107.2417413.0963352.429896.2059166.5743989.3359692.7905511.7098704,1.3815077,1.3721752,1.8598724,2.0844539.1258379.1878537.2056155.3829326.2829848.5713884.0483181.1186128.0955826.2348172.1536848.3431943l.015504.0445551c.0778208.4160479-.0270943.7839281-.1283968,1.1391643Z" stroke-width="0"/>
  </g>
</svg>