<?xml version="1.0" encoding="UTF-8"?>
<svg id="Layer_2" data-name="Layer 2" xmlns="http://www.w3.org/2000/svg" viewBox="0 0 65.0839531 214.6676473">
  <g id="Layer_1-2" data-name="Layer 1">
    <g>
      <path d="m37.98692,67.5778297c-.0929461.815862-.1680924,1.6030161-.2750852,2.3858182-.1771671,1.2960365-.4635539,2.5841144-.5394417,3.8851305-.0790907,1.356094-.284772,2.7015883-.3202189,4.0537832-.0193199.737065-.1465811,1.4682766-.1188208,2.1965377.0329207.863188-.1579942,1.7071518-.1379359,2.5547776.016431.6945928-.1556597,1.3816905-.0870635,2.0527526.0802424.7848544-.2054446,1.5521539-.0171658,2.3263747.010726.0440773-.0077367.0948745-.0104631.1426714-.0525627.9233332-.1823668,1.8510455-.1310121,2.7685985.0369054.6594545-.1668481,1.315793.0153034,1.9688441.0181151.0649124-.0110633.1422058-.0140605.2139196-.0308068.7332936-.1172291,1.4697315-.0773037,2.1992196.0565243,1.0324082-.0639115,2.0630697.0378086,3.0956219.0528243.5363034-.0200236,1.0838528-.0115699,1.6259409.0106186.6786686.0400297,1.3572626.0735848,2.0352782.0230153.4654069.079694.9292908.0978113,1.3947665.017372.4461389-.0165305.8946632.0089085,1.3400352.0588382,1.0299178.0724166,2.0600992.0948656,3.0909823.0229593,1.0542976.0811269,2.1066833.0679281,3.1634819-.0102064.815287.097622,1.6313541.1224443,2.4480101.017174.5651845-.0728725,1.1377148-.014594,1.6964953.0661533.6345487-.0672772,1.2607659.024501,1.897872.0658869.4574388-.0406895.9327008-.0092966,1.4107315.0583947.8893847-.0124681,1.7864645.0188796,2.6786467.0272212.7745241.0464013,1.5460224.0314013,2.3220302-.017103.8852767.0796745,1.7721577.1003358,2.658965.0131542.5649826-.0665929,1.1343521-.0253537,1.6959492.0650247.8857353-.0302315,1.7734777.0935241,2.660025.0607154.4349586-.0549114.8828937-.0036024,1.3395191.062509.5563584-.1049075,1.1453992-.0037067,1.6887938.1241481.6664629-.1153781,1.3047175.0092035,1.9706296.0879802.4702305-.0643836.9756462-.0066611,1.4790265.0742407.6473954-.0149156,1.3049346.0612607,1.9612187.0564772.486573-.0052438.9861969-.0028477,1.4799553.0014706.303218.0366983.6064156.0345878.9094551-.0020946.3042948-.0324769.5977934.0134821.9127883.063128.4325323-.0361135.8826166.0018192,1.3374886.052589.6304171-.0342597,1.2717302-.0471145,1.9086561-.006617.3271007.0289625.6549481.024991.9822266-.0039563.3280747-.1380164.6582577.0272202.9823394.0093206.0182923-.0025868.047036-.0034591.0709639-.0231234.6370272-.0358117,1.2746605-.0713749,1.911012-.0568578,1.0180613-.200191,2.0374108-.1702386,3.0521742.0212812.7208232-.0857402,1.4180262-.1220325,2.1264822-.0191519.3739037.0189924.7505215.0063705,1.1250632-.0126464.3756864-.1382271.750141.0079198,1.1258753.0156212.0401597-.0053393.0944415-.0089257.1421933-.0960461,1.2802269-.1999242,2.5599323-.2853011,3.8408804-.06145.9223119-.1007555,1.8487531-.1290759,2.7695783-.0204.6642599-.0801889,1.3218787-.1265205,1.9820899-.0831885,1.1848765-.1332644,2.3736843-.2645837,3.5533424-.6173586,5.5456532-1.2576235,11.0887499-1.8897127,16.6327603-.325246,1.0537944-.3014417,2.1682387-.5444956,3.2285897-.1382761.6032003-.1689985,1.2227845-.3375899,1.8080371-.1752667.6083605-.176196,1.258844-.4646465,1.8379447-.0506047.1015719-.0352952.2351216-.0548851.3531497-.1590421.9591953-.3173214,1.9185129-.4819396,2.8767552-.0153648.0893095-.073032.1713635-.1144526.2643778.1597265.1661911.3509597-.0304925.4959053.0015382.690076.1525339,1.427491-.2156847,2.0859897.199617,1.0737087.1357205,1.9804211.684783,2.8762665,1.2227741.9076068.5450863,1.6010759,1.3422406,1.9812538,2.3258276.2473235.6397851.3574322,1.3368144.3973187,2.046499.077082,1.3713965-.1820021,2.7061905-.3479019,4.0491465-.0823459.6667184-.2799832,1.3321306-.5182861,1.9630569-.2449647.6484924-.4452538,1.3117664-.746677,1.9467828-.5009779,1.0555242-1.1612935,1.9756903-1.9759162,2.7919663-.4355488.436416-.911325.8340354-1.3823679,1.2333417-1.1274134.9556998-2.46237,1.4720894-3.9037936,1.6394565-1.7756782.2061888-3.4620792-.1910556-4.9872625-1.1235488-.595354-.3639727-1.1343915-.8390531-1.6411206-1.3240641-.6156117-.5892167-1.2187055-1.2044771-1.7413308-1.8753785-1.3553996-1.7398929-2.4765726-3.6069397-2.8604714-5.8305871-.1275079-.7386273-.2733988-1.4792252-.1391159-2.2271322.0693816-.3864887-.0584153-.7686417.09139-1.1660586.1396523-.3705918.0558572-.8237859.188158-1.1991167.2123794-.6023494.1678474-1.2616488.4567086-1.8393963.0207057-.0413527.0322558-.0906689.0350539-.1370805.0389131-.6422017.2150709-1.2568338.3586797-1.8795699.2326762-1.0090829.3436616-2.0420215.6277577-3.0437635.1797364-.6338028.2511828-1.297826.3836596-1.945734.0751597-.367629.1753183-.7301503.2645214-1.0949083.08896-.3637088-.0212238-.7735495.2559122-1.0952712.0270373-.0313806.0205905-.0919449.0288416-.1391123.1425807-.8160951.2301067-1.6468303.4427779-2.4442068.2160416-.8099153.2453585-1.6438746.426678-2.4501014.238153-1.0588614.4055466-2.1341345.6612936-3.1831708.3131627-1.2846214.3996267-2.5873544.5525353-3.8844597.5578846-4.7328895,1.0971994-9.4681241,1.6148758-14.2055767.2200619-2.0139444.4525085-4.0324627.5300477-6.0546112.1008469-2.6313495.6223501-5.2184835.7396827-7.8384923.1199655-2.6787618.5031581-5.3239343.8287755-7.97526.1355166-1.1035321.3773059-2.2015951.4829089-3.3135841.1485416-1.5638974.3099359-3.1293495.3679485-4.6977522.0235803-.6376283.0970796-1.2764371.0836068-1.9108366-.0220556-1.0389856.1202476-2.0773423.055207-3.1065897-.0545399-.8632499.0126547-1.7267371-.0883476-2.5898604-.0650952-.5562823.0257847-1.129309.0206449-1.6945967-.0046514-.5123932-.029796-1.0257441-.0740498-1.5362406-.0323827-.3734192.052708-.7367921-.0218077-1.1240678-.0913683-.4750476.0381135-.9889666-.0204641-1.4749227-.0617454-.5122332.0283727-1.0226305-.0727425-1.5368685-.0754082-.3836259.0541938-.7828413-.0049699-1.1962439-.079015-.5520245.0171719-1.1273155.0135154-1.6924518-.0036058-.560002-.0378108-1.1198091-.0584649-1.6797055-.0025929-.0703734-.008275-.1409045-.0059056-.2111363.0214883-.636931.0520134-1.2736887.0633878-1.910792.0050048-.279477-.0376993-.5595079-.0414251-.8395205-.0037069-.2798693.0363964-.5478977-.0149495-.8416416-.0666524-.3812956-.0316593-.7973974-.0211638-1.1909301.0244498-.9172234-.1538447-1.8336316-.0023965-2.7486388-.1837931-.5261373.0387254-1.0673253-.0766636-1.610615-.0848529-.3994343.0227497-.8344251-.0043548-1.2642481-.059041-.9356238.0616996-1.8835764-.0116962-2.8170134-.0697859-.887487.0210605-1.7744872-.0909768-2.6614649-.0671099-.5314694.0598589-1.0859349.0079916-1.6211848-.0789499-.8143308-.0184808-1.630715-.1125358-2.445725-.0828464-.717677-.0390657-1.4490954-.0755959-2.1732094-.0363602-.7208022-.1065171-1.4398406-.1555462-2.1600823-.0411579-.6044609-.0751087-1.2094247-.1087078-1.814375-.0336227-.6052089-.008044-1.2199329-.1083371-1.8136001-.1173266-.6944178-.0530347-1.3943525-.1624374-2.0875057-.0904309-.5730006-.0844984-1.1606304-.1369299-1.7403623-.0543606-.6010748-.1359949-1.1996868-.1903903-1.8007655-.0734123-.8110253-.1265619-1.6238733-.1987419-2.435023-.0761715-.8560752-.1608989-1.7114302-.2486337-2.5664218-.0735219-.7164647-.1606023-1.4315346-.2347316-2.1479361-.0860359-.831318-.1658898-1.6632823-.2456217-2.4952327-.0463334-.4835637-.0871885-.967642-.1337471-1.4876606-.5170516-.0589045-.9887341-.1162418-1.4612588-.1657219-.9874265-.1033907-1.9272545-.3665748-2.8555063-.7254848-.9541736-.3689336-1.9484273-.6333749-2.9208746-.9564241-.3520969-.1169694-.705202-.2450787-1.0344589-.4137677-.7501866-.3843747-1.2447262-.974213-1.4188892-1.8243008-.1270498-.6200719-.148338-1.2435158-.1950639-1.8706963-.0627696-.8426142.1019053-1.655998.1448906-2.4831746.0132402-.2550677-.063322-.5185388-.02753-.767939.0838175-.5838677.2258409-1.1592154.3160051-1.7423865.0877444-.567664.0950168-1.1509395.2203736-1.7087664.141003-.6274465.3960092-1.2190343,1.1648008-1.5409643.1133941.0033939.3422577.0102504.5851966.0175276-.097144-1.0544339-.6180107-1.8019833-1.4313348-2.3483951-1.6277124-1.093554-3.2847746-2.1324843-5.0435546-3.0168069-1.7440692-.8769267-3.3763072-1.9605097-4.714184-3.3995487-.9898402-1.0646761-1.9154004-2.1961545-2.7935819-3.3554823-.7841069-1.0351652-1.5378987-2.1101823-2.0925263-3.2881675-.5165128-1.0970903-1.0460896-2.1944905-1.3476013-3.3861905-.2170083-.857692-.5597693-1.6831299-.787765-2.5385957-.274679-1.0306786-.4561229-2.0781258-.5847412-3.1442089-.1148568-.9521072-.0487214-1.9107427-.2124664-2.8538282-.0039781-.0228827.0034286-.0476065.0045115-.0715236.0324023-.7090228.0459095-1.4195494.1022973-2.1266562.0551813-.6918675.0700319-1.4039579.2562818-2.0637867.2052156-.7269738.1965384-1.4921074.4889877-2.2020771.1485945-.3607548.1768284-.7736237.2769676-1.1613882.3277935-1.2695508.825587-2.4652583,1.3797419-3.6446233.4804232-1.0224694,1.0899051-1.9603917,1.838912-2.8042906.9381794-1.0570503,2.0392313-1.8929292,3.3366738-2.4756512.9428477-.4234684,1.9178092-.7186359,2.9281055-.9235375.6826571-.1384522,1.3556355-.3247508,2.0700687-.498678-.0002434.0002768.0263728-.0390299.061269-.0685752.757947-.6420428,1.3848181-1.4404961,2.292048-1.9058771.1676034-.0859634.3051753-.2301774.4573223-.3465895,1.2249443-.9373439,2.5056046-1.7900731,3.8425486-2.5603827.7568701-.4360957,1.4679257-.9632913,2.2539392-1.3344253,1.0748927-.5075466,2.2032472-.8764445,3.3688212-1.1679016,1.4145804-.3537101,2.7807326-.1109366,4.1534138.0915725.6817482.100578,1.334679.3966164,2.0893024.6318669.1267333-.0651909.3403267-.1592218.5381228-.2793134,1.5192156-.9224224,3.1471717-1.4779665,4.9219221-1.7164577,1.1582578-.1556434,2.2776914-.0620797,3.3861337.1508976,1.0153766.195097,1.8953503.7616076,2.7216349,1.3859448.684658.5173038,1.2425487,1.1662668,1.7972126,1.8060528.4140754.4776156.7136424,1.0559911,1.0525131,1.5968163.2231906.3561986.4256031.7254068.6460681,1.1038259,1.4492994-.429739,2.8998959-.8745833,4.4432154-.778014.1288769.0528261.2556705.1451696.3869673.1521147.9013368.0476757,1.5873916.537532,2.2427162,1.0808021.6157553.5104737,1.2147714,1.0412757,1.816352,1.5686272.2472506.2167534.4924699.4376999.7203097.674367.7588013.7882164,1.5574667,1.557982,2.0314902,2.5583377.29646.625639.460797,1.3138799.7197357,2.0782669.0955399.0108843.3020658.0526536.5089948.054778.8254594.00847,1.4916546.4118449,2.1046431.8905084,1.1616944.9071528,1.9777803,2.0761426,2.5003779,3.4568686.6797507,1.7959088,1.1063388,3.6451474,1.2822227,5.558681.0625208.6800709.0563757,1.3537138.0606895,2.033487.0071375,1.1243738-.1368687,2.2291278-.2540001,3.339724-.0868096.8233624-.3663809,1.6023748-.536281,2.4047518-.1518376.7171264-.4382195,1.3735275-.6735324,2.0558457-.4398464,1.2754589-1.1441732,2.405753-1.9183105,3.478764-.8642023,1.1978574-1.8468394,2.3110452-2.7911512,3.4501284-.967705,1.1672996-2.0253277,2.2391876-3.191422,3.2199984-.7112806.5982852-1.4456886,1.1658921-2.2080081,1.6775599-1.7065455,1.1454339-3.3296913,2.3939048-4.9236913,3.6857755-.6658892.5396853-1.2180013,1.1778049-1.6968455,1.8842337-.5368163.7919347-1.0755177,1.5825954-1.6261449,2.3925528.3387332.195067.6544388.3768652.9229434.5314921.4159083.5991347.4784752,1.1921761.4466224,1.8588739-.035539.7444592-.08393,1.495425-.0165012,2.2506525.0583167.6531284-.0104858,1.3210632-.0612077,1.9795207-.0533097.6918645-.1062549,1.3892079-.239544,2.0684211-.3480003,1.7734318-1.2014004,3.1815931-2.9384408,3.9427713-1.67531.7341119-3.3995297,1.3134833-5.171368,1.7590138-.0647019.0162678-.1180476.0777439-.219895.1479502ZM30.9510159,5.7767076c-.4023021-.1097132-.7292271-.1638969-1.0274834-.2873354-.6631579-.2744518-1.309911-.5883011-1.9671907-.8773143-.7443326-.3272853-1.5066573-.6965429-2.2975815-.7803587-1.0366161-.109853-2.0910768.0412213-3.0870025.4353328-1.2762511.5050284-2.4718206,1.1657754-3.5765263,1.9683308-1.0448659.7590782-2.0430735,1.5848046-3.0355125,2.4127372-.6329634.5280552-1.2272865,1.1235597-1.5250305,1.9082078-.2349372.619049-.6769037.9746548-1.2469085,1.1628379-.5698395.1881269-1.1713393.287051-1.7640679.3977787-1.6488922.3080515-3.1236161.9426763-4.3459515,2.1354348-.6498493.6341261-1.1379397,1.3744522-1.5660862,2.1515885-.8372738,1.5198202-1.3090022,3.1837625-1.7051909,4.8577979-.3005934,1.2702132-.5186573,2.564477-.601727,3.8741419-.0106042.1671548-.0788331.3461006-.0390068.4982879.1586613.6061868-.0466039,1.212414.0448663,1.8249502.0994162.6659845.0151649,1.359501.1157993,2.0251742.2254384,1.4914155.5393896,2.9673781.9981267,4.4085897.7863659,2.4706048,1.9518909,4.7411356,3.5628656,6.7779707.1782005.2253185.3948084.4316473.5235039.682715.4655853.9083036,1.2037065,1.6000389,1.893339,2.3090682,1.1314586,1.163259,2.4684165,2.0997572,3.8811968,2.887198,1.6822492.9376316,3.2941373,1.9560829,4.737729,3.2373504.688134.6107635,1.194935,1.3209256,1.5022782,2.1928854.258942.7346049.3500642,1.4851699.3327705,2.2019693.7004658-.0449707,1.3794122-.0502791,2.0469204-.140368,1.0052139-.1356498,2.0038237-.1883803,3.0157991-.0835257.6335425.0656436,1.2744546.0600891,1.9120848.0861323.0475327.0019461.0959238.006894.1426565.0008311.7819467-.1014408,1.5769643-.1456056,2.3427831-.3188646,1.8095772-.4093743,3.6491503-.4375511,5.4842164-.4878411.944477-.0258755,1.8932545.1001759,2.8398538.1613563.2387787.0154361.4830056.0918347.7137465.0602072.80045-.1096693,1.5952595.0929908,2.3945758.0100089.451729-.0469149.9124581-.0260806,1.3471316-.2505705-.1137013-.482791-.1823008-.9246325.1080378-1.3295457.0249986-.0348701.0143803-.0936851.0261745-.1398752.1912619-.7492276.4977371-1.4481148.9075572-2.1039013.9646274-1.5435019,2.3243931-2.7228724,3.6650591-3.9076848.7652592-.6763194,1.6321468-1.2385302,2.4605045-1.8421953.4027242-.2934895.8186276-.5693948,1.2345808-.8441865.8485946-.5606316,1.7409952-1.0641357,2.540494-1.6872199.7243063-.5644766,1.3708936-1.2355183,2.0124545-1.8976171.8510479-.8783027,1.6832682-1.776678,2.4880501-2.6974885.8914817-1.0199915,1.8090019-2.0226153,2.361124-3.2947812.4645816-1.0704572.9133775-2.1551458,1.1079166-3.2991653.2619086-1.5401205.3555322-3.0994039.2901348-4.6733169-.0447013-1.0759072-.1842954-2.1287069-.3898907-3.1767694-.1339735-.6831134-.2873981-1.3673439-.5010401-2.0288021-.3599917-1.1144435-.6740171-2.2531724-1.4877321-3.1648129-.5063427-.5672793-1.0664747-.9506399-1.8563331-1.0225811-.9471829-.086276-1.6947812-.5342814-2.094711-1.4492462-.1124147-.257144-.2417438-.5072997-.3454655-.767761-.3426575-.8602841-.7756141-1.665725-1.359295-2.3906413-.2367355-.2940214-.4251015-.6266036-.6415841-.9373929-.3666754-.5264182-.6920024-1.0909789-1.1177646-1.5648769-.7811618-.8694813-1.6599526-1.5886313-2.9671074-1.3740823-.5500064.0902787-1.1077993.1271031-1.6321835.3405253-.6064132.246809-1.216219.485276-1.8068338.7203264l-1.4082284-.1604308c-.9246694-.5175809-1.5488643-1.2978396-2.2014689-2.0424186-.4256285-.4856095-.7942647-1.0211597-1.219835-1.5068155-.4182924-.4773259-.8815355-.932773-1.4657545-1.1900887-.6556818-.2887826-1.3176622-.4818317-2.0900209-.4394483-.8469016.0464763-1.6737412.1657244-2.4763565.3717283-.7891033.2025361-1.5106917.596404-2.124577,1.1852576-.5118122.4909427-1.0995803.9126853-1.891522.8029344-.0606378-.0084043-.1308398.0521137-.171361.0696687Zm-1.539191,62.5170408c.1516324,1.0153145.2970738,1.9529429.4305259,2.892295.1500637,1.0563581.3098679,2.1119811.4273311,3.1721547.1126228,1.016502.1186096,2.0474604.2762394,3.0556904.1978181,1.2650944.2302194,2.5422563.3783033,3.8103177.1133948.9711395.0418341,1.9632955.1426935,2.9367672.0397196.3833999-.0321564.7547485.0172184,1.1242159.0778489.5827158.0656065,1.1651426.0648281,1.7487518-.0006381.4703388-.0371542.9438196.005005,1.4102511.0613513.6788696.1179431,1.3539574.0379681,2.033957-.0139621.1188369-.0340486.2389004-.0297071.3576158.0212818.5832095.0657551,1.1660069.0712509,1.7492452.0053589.5652243-.0719207,1.1343189-.0284964,1.6951763.0368393.4757824-.0407669.9487219.005821,1.4086669.0289676.2859336.0160099.5595968.0169435.8399445.0009279.2796233.0431992.5592694.0410922.8387235-.0042291.5650854-.0880245,1.1368272-.026821,1.693487.097444.8864539.0452674,1.7743198.0844156,2.6598612.0360751.8161284.0062703,1.6405784.0240096,2.4625358.0163017.7547697-.0608949,1.5115723-.0981198,2.2674205-.0047265.0955705-.0474434.2005833-.0205123.2844984.1450109.4517206-.0009184.8941468-.0181258,1.3407068-.0172082.445792.0032697.8930262-.013833,1.3388214-.0299356.7801939-.076006,1.559759-.1152927,2.3395937-.0012054.0239076-.008977.0501301-.001994.0714309.1969373.6002814.0014902,1.2125307.0392955,1.8220912.0475283.7661127.0554915,1.5465019.0349028,2.3167092-.0213941.8000569.0198666,1.5948408.0236821,2.3918025.0043587.9155445-.0172183,1.8323449-.0289597,2.7480413-.0117506.9165516-.0159581,1.8322854-.0186455,2.7489339-.0028421.9632553-.0472716,1.9261511-.0382565,2.8913222.0079385.8506498-.0817838,1.7022138-.1294902,2.5533211-.0053404.0955359-.0339015.1922044-.0247646.2857175.0943865.9665995-.0226746,1.9295182-.0529798,2.8933346-.027532.8754733-.0973672,1.7495875-.1486278,2.6242996-.0014145.0238838-.0106218.0498456-.0042561.0712967.2138827.7233456-.0987011,1.4431544.0037804,2.1817199.0857905.6183815-.1441055,1.257645-.0658714,1.9095028.0500306.416864-.0926941.8537853-.1171652,1.2835232-.0240288.4218263.0168164.8477243-.013494,1.2687467-.1282148,1.7817169-.47877,3.5397634-.4788742,5.3388822-.00009,1.2325999-.2631719,2.4529458-.2894368,3.6972697-.0271597,1.2875098-.2786556,2.5690231-.3997301,3.856179-.1202045,1.277969-.1629432,2.5638452-.3043198,3.8390668-.5910599,5.33108-1.19017,10.6613841-1.8219357,15.9877738-.215943,1.8205009-.3243997,3.6530175-.7295709,5.4553327-.2528326,1.1246455-.4146927,2.2712889-.6907631,3.3962882-.2027781.82645-.3000103,1.6786943-.4466757,2.5190222-.138408.7929493-.2284082,1.5995343-.4409219,2.3722835-.1133661.4122842-.1352122.8460991-.2816105,1.2345298-.2254836.5982084-.2868335,1.2292388-.4689625,1.833834-.1419481.4711705-.188815.9725926-.3480351,1.4365345-.2063992.6014595-.4030065,1.1994091-.4654736,1.8351318-.0163798.1667131-.0007438.3528739-.0707045.4952638-.3295883.6707174-.2547189,1.4292818-.4948731,2.1255822-.1817135.5268761-.2118125,1.1089105-.3205494,1.6635728-.2416635,1.2327076-.4352642,2.4986606-.2929921,3.7568356.122419,1.0825322.3542084,2.1543445.8354273,3.160035.2759733.5767402.6082111,1.1119416.9295382,1.6601646.6586252,1.1236168,1.5698302,2.0302632,2.4297479,2.9815575.2976021.3292396.6422347.624698.9998762.8888723.5083968.3755337,1.0931884.5915621,1.6922838.8080196,1.1756178.4248,2.2569144.2458177,3.3168548-.2964477.8766347-.4484848,1.6214706-1.0831413,2.265629-1.8170082.536925-.6117356,1.0371748-1.2495935,1.3884618-2.0102052.3038579-.6579365.5160349-1.3429655.7671539-2.0152607.2117343-.5667792.3771439-1.1578847.4930796-1.7518724.2137713-1.0951113.2276744-2.2056659.0460877-3.3068729-.0954385-.5787879-.2264046-1.1840086-.7339892-1.559079-.9664322-.7141351-2.0012437-1.2952687-3.2356874-1.4042298-.190706-.0168358-.3806316-.0426921-.5722167-.0645183-.2867824.1138225-.5695263.2270634-.8530338.3383284-.4429939.1738632-.7199866.4802246-.8808081.9397823-.1444436.4128042-.3762195.7950568-.5442865,1.1392316-.2466598.0962022-.420935.1641773-.5321549.2075585-.5811142.7335462-.6704143,1.5907017-.9135698,2.4602531.014435.0480925.0916391.1669259.0741181.2695835-.1108849.6494498.106642,1.2554223.2478972,1.8650106.1389622.5996526.3539872,1.1809421.9762081,1.4841914l1.0336675.1177594c1.3359915-.3805822,1.8351565-1.4389434,2.1272096-2.6016494.1967836-.7834389-.1500109-1.5998163-.7016927-2.0263584-.3375298.2911849-.6815196.5879364-.9705127.8372318-.2861826.0561795-.4909066.0963761-.6782206.1331362-.2137019-.1419574-.4094803-.272022-.6016161-.399659-.0886065-.249643-.1745529-.4917978-.2492324-.7022157.6135613-1.5876984.7209515-1.4211141,1.6098129-2.0836921.1312777-.0251192.2453622-.0488604.3601328-.0685514.5670253-.0972552,1.0870558.023831,1.5003904.4222542.681705.6571234,1.0938731,1.483879,1.3504416,2.3832794.1012206.3549392.1862305.7368785.1654097,1.1000173-.0594416,1.0374866-.1699123,2.0587792-.7445349,2.9894846-.5163673.8363606-1.1876794,1.45526-2.0659601,1.8651949-.7381937.3445263-1.5039115.2903413-2.2890114.1929024-.8348493-.1036362-1.4568127-.5331183-1.9421873-1.1612546-.6985109-.9039888-.9831282-1.9915468-.9545588-3.0961759.0371995-1.4388622.2587577-2.850578.9841132-4.1646831.6907172-1.2513364.6248924-1.2868878.8062093-2.8195639.0277489-.2345867.0677676-.4693291.1239726-.6986261.1335995-.5451037.3070804-1.0816918.4156214-1.6313804.1743501-.8829687.3092466-1.7737158.4606842-2.6612014.0040307-.0236034.0007514-.0501404.0104843-.0707991.3906412-.8286691.252832-1.7646424.554015-2.624882.2308194-.6593016.0907438-1.420881.4048151-2.0841684.0612651-1.144457.4071733-2.2469708.5226403-3.379374.3124092-3.0636593.8053972-6.1075937.9358782-9.1919965.0815395-1.9274022.5128903-3.8260923.5093214-5.7686984-.0019188-1.0407873.2065158-2.073093.2217482-3.1252729.0168956-1.1676602.2522797-2.3308374.3613526-3.4988537.1104489-1.1828831.1826278-2.369367.2718172-3.5542308.1304589-1.7332302.4769057-3.4425075.4664477-5.1950928-.0073703-1.2309606.3045136-2.4477947.2713513-3.696117-.0257313-.9681347.1046304-1.9404131.1655613-2.9108563.0045109-.0716738.037078-.1579466.0087223-.2126211-.1573711-.3035542-.0266201-.6084098-.025822-.9124816.0008854-.3271534-.0341756-.6547476-.0258745-.9814446.0174267-.6844949.0883537-1.3693738.0720488-2.0525212-.0196377-.8215646-.0807287-1.6415668.0034288-2.46257.0073228-.0714064.0219038-.144228.0148973-.214601-.0768328-.7727878-.1102992-1.54549-.0157079-2.3193861.0116129-.0949625.0397522-.1959867.020138-.2853972-.1591722-.7248983.0314271-1.450024-.0087784-2.1787585-.0427509-.7747309.0604463-1.5575329.099899-2.3368103.0024282-.0478132.0237805-.1064639.0038456-.1417658-.1699152-.3008346-.0256474-.6078047-.0283526-.9114988-.0029231-.32704-.0322923-.6542329-.0257095-.9808785.0128619-.6366779.0878854-1.2753837.054288-1.9088628-.0436834-.8232624-.0412873-1.6426698.0025783-2.4639379.0038213-.0716641.024441-.144804.0153868-.214404-.0974008-.7489146-.0455644-1.498976-.0254221-2.2489936.0145504-.54163.0509003-1.0846252.0274574-1.6248459-.0356407-.8225756-.0938455-1.643273.002563-2.4650431.0111493-.0950771.0346912-.1920085.0259701-.2856067-.0697816-.7499168-.1098019-1.4996474-.02829-2.2514035.0102076-.0942488.0316659-.1945864.0112587-.2836989-.1443048-.629929.0307612-1.2622513-.027811-1.897331-.0538011-.5835158.0812694-1.1864722.0099416-1.7656822-.0533546-.4332461.0224572-.8473547.0013322-1.269073-.0245048-.4895244-.0756365-.9782336-.085-1.4678603-.0103591-.5419433.032391-1.0850214.0181193-1.626713-.0233878-.887824-.0841586-1.774637-.1104094-2.6624341-.0235907-.798023-.0033332-1.5975561-.0359346-2.3950521-.0448375-1.0964059-.1249393-2.1913387-.1821141-3.2873053-.0195473-.3746669-.0233921-.7506432-.0202578-1.125895.0047152-.5660981.1003264-1.144394.013876-1.6949971-.1081121-.688831.0735343-1.3564445.0024476-2.0437673-.0747579-.7223519.0830776-1.4660927.0491658-2.1962992-.022108-.4761608.0834764-.9586769.0079457-1.4094112-.0994465-.5933501.0476331-1.1678305-.0215055-1.7597492-.0813102-.6964495.0674989-1.4165911.0441322-2.1240671-.0164241-.4980046.0447476-.9937366.0189658-1.4830534-.0421925-.8007071-.0048641-1.5969802.007856-2.3949711.0094107-.5894933.0978284-1.1861569.0304828-1.7656106-.0478213-.4113072.0055583-.7999013.015656-1.1990845.0100779-.3986999-.0083584-.7981502.0028961-1.1967955.0166536-.5892242.0963101-1.1698851.0860827-1.7679976-.0190183-1.1115158.0897604-2.2293749.2061604-3.3382007.2625086-2.5004315.5621047-4.9969556.8466118-7.4950752.0180994-.1588729.0362163-.3177439.0588514-.5164309-2.2228548.1536382-4.3748882.3023777-6.5326689.4515129Zm-10.5431341-4.283125c.3929329.1618906.7111228.3035969,1.0368768.4250859.7612444.2839027,1.5177173.5847393,2.2916875.8294608.9574606.3027344,1.8875709.7153745,2.9092301.7872951.1133833.0079827.2225881.067675.3350152.0987728.1347451.0372683.2920034.1310611.4026128.093039.4091059-.140615.8021878.0119095,1.2048806.0095636.1929808-.0716258.390627-.1449975.6440876-.2390656,1.1248156.3736061,2.2902555.0001105,3.4571607-.0459463,1.2248768-.0483412,2.4432105-.2651861,3.6639506-.4121908.4599869-.0554014.9504175-.0417583,1.3679246-.2079238.3343438-.1330492.673416-.1544978.9980702-.2570412.5642245-.1782006,1.1630196-.146148,1.7186351-.3171203,1.0261887-.3157332,2.0463208-.6550096,3.0538502-1.0256101.3925148-.1443676.8116126-.331934,1.1006216-.6187162.6393466-.6344487,1.0576622-1.4379504,1.2007307-2.3257362.142684-.8853404.2537273-1.7756007.2051199-2.6912343-.038234-.7198505-.0254323-1.4426255-.1127066-2.2185978-.2075053.0264891-.3867815.0489471-.5659334.0723284-.8279069.1080066-1.6389062.3042328-2.4783074.3724263-.7183055.0583769-1.4423036.0360879-2.1582398.1477412-.3435265.0535747-.6997911.0283556-1.050367.0333199-.4462554.0063072-.8938159-.012656-1.3386497.014645-.6953863.0426894-1.3892306.1118238-2.0831872.1757463-.6239115.05747-1.2471598.1219802-1.8705151.18526-1.1766248.119441-2.3440687.2980717-3.5125672.4825494-1.2824197.202447-2.5808766.3067108-3.8743022.4340656-.3957591.038956-.8009969.0464406-1.1965419.0100644-.9531544-.0876316-1.9133865-.1562174-2.8509605-.3358262-.6804224-.1303463-1.439839-.1803355-1.875817-.903623-.1362757.5954043-.2845052,1.1179919-.3702201,1.6506407-.0975148.6060079-.103898,1.2195997-.1136031,1.8369353-.0167413,1.0643394-.2829058,2.1189681-.1920981,3.1947742.0194399.2302528.0333172.4609842.053562.7449178Z" stroke-width="0"/>
      <path d="m31.4671955,52.4073689c-.2121601.1276288-.4105412.2469675-.6406326.3853969-.2539757-.1588064-.5000735-.3126901-.6777294-.4237774-.1814952-.710105-.0364178-1.3224874-.0516732-1.930547-.0216217-.8614859.1920704-1.7126087.1327368-2.5529954-.0552871-.7832384.2185926-1.5511857.0209169-2.3255193-.0166992-.0654087.0098538-.1422818.0182437-.2136019.1022284-.8686717.0874259-1.7379473.0173132-2.6078439-.005702-.0706658.0079728-.1432817.0160624-.2146007.0905151-.7982421.0512092-1.5942245-.0023654-2.3938891-.0360925-.5385901.0594945-1.0870754.0114742-1.6235509-.0750499-.8386464.0439525-1.6808414-.1078556-2.5201246-.0649136-.3589018-.0070376-.745589-.0240563-1.1227705-.0494783-1.0953413-.0923026-2.1886534-.2057491-3.2809854-.0722982-.6960584-.0358569-1.4027232-.0734831-2.1032703-.0361666-.6736878-.1073144-1.3454422-.1583572-2.0184105-.0264557-.3488933-.0511046-.6983046-.0619935-1.0479358-.055055-1.7686777-.1937767-3.5250799-.5125057-5.2721316-.1059269-.5806315-.3792541-1.1877266-.0381585-1.9327986.180498-.2137159.5053084-.4129331.9810582-.3074619.1441883.1198796.3064709.2548007.4603192.3827101.835074,1.9214086,1.1876358,3.9601915,1.5135306,5.9990568.1355046.8477271.1060887,1.720832.1745502,2.5805836.0478692.6011827.1573848,1.1977322.1980074,1.7991441.047292.6998475.0416583,1.4030928.0733047,2.1042165.0357752.7921067.0831648,1.5837667.1340202,2.3750669.0240248.37395-.0410188.7398715.0138758,1.1255078.0786835.5524546-.0679996,1.1356969-.0000934,1.691324.0776785.6355042-.0848484,1.2606575.0303318,1.8982935.0732745.4056094-.0380461.8349598.0016736,1.2671734.0578264.6296941-.0992206,1.2808186-.0275742,1.9071307.0894894.7824079-.1907682,1.5514823-.0084012,2.3253739.0104373.0442872-.0066492.0949366-.0103396.1426722-.1004817,1.303665-.1322177,2.6177083-.3269045,3.9071412-.1178493.7804708-.2312661,1.5778207-.4996053,2.3403703-.1783602.5068941-.2397527,1.0549277-.369941,1.6610531Z" stroke-width="0"/>
      <path d="m38.4290182,48.3867218c-.1318056.1126587-.2403928.2054536-.359563.3073087l-.6525188-.0743374c-.088228-.119851-.2154402-.2926656-.3043995-.4135356-.1352611-.6552298-.0956082-1.2391505-.0370442-1.8283711.0392921-.3952614-.0460031-.8077041.0247617-1.1940926.1693375-.924665.2893783-1.8596553.5660653-2.7652144.1366588-.4472118.1691772-.9192282.3001767-1.3785952.306641-1.0753555.5713198-2.1604876.9497722-3.2168887.3448419-.9626735.5926112-1.9601241.9373351-2.9228463.4603411-1.2856717.9407204-2.566236,1.4722637-3.8237322.5222172-1.2354494,1.0960336-2.4507206,1.6893424-3.6540791.7174077-1.4550916,1.4677221-2.8943721,2.2264198-4.328518.3802823-.7188357.8029674-1.4158001,1.2225359-2.1129916.1557914-.2588916.3461171-.4996771.5405268-.7321456.4944204-.5911825.8434942-.6447916,1.5435894-.254004.213714.3989365.2379624.7924639-.0349585,1.1887601-.6351852.9222612-1.0390806,1.9653654-1.5129497,2.9695105-.6418324,1.3599614-1.2374376,2.7418503-1.8453266,4.1176658-.7948922,1.7989625-1.6109142,3.5893831-2.3628952,5.4062188-.4956557,1.1975532-.997809,2.3946486-1.3668418,3.6445129-.2951253.9995322-.7060086,1.964352-1.0237421,2.9579366-.2206281.6897862-.3328085,1.4147627-.5616439,2.1012791-.2587812.7762788-.352246,1.5966939-.6666388,2.3551621-.0179137.043189-.0239705.0917055-.0325265.1382953-.1363978.7443117-.2649902,1.4901526-.4111952,2.2325305-.0817273.4150501-.1924624.8243856-.300545,1.2801712Z" stroke-width="0"/>
      <path d="m9.4217792,21.3874313c.2218643-.2245874.3753982-.1949547.5766767-.1108439.585719.2447691,1.0041005.6850513,1.4110615,1.1400404.8939633.9994141,1.5096747,2.180183,2.1187432,3.3574321,1.061084,2.0509407,1.9957918,4.1620772,2.9204279,6.2777862.6557639,1.5005018,1.3711509,2.9750787,2.0193729,4.4787111.8577423,1.9897439,1.662048,4.0025558,2.3487665,6.0586988.426584,1.2773023.8161929,2.5670665,1.2137979,3.8538975.2752569.890787.5358746,1.7861029.8345489,2.7848291q-.0541215.4541476-.4733051.871349l-.7932319-.090368c-.5142788-.4020052-.6818645-1.0435989-.9006258-1.6235487-.6267604-1.6618002-1.1790354-3.3515175-1.7815832-5.022692-.8925472-2.4754809-1.7811435-4.952789-2.7133905-7.4134305-.6730367-1.7764305-1.4214583-3.524177-2.1231276-5.2899359-.7033837-1.7700809-1.5298078-3.4839863-2.3846718-5.1827141-.4016278-.7980938-.9017023-1.5480852-1.3812617-2.304593-.1358923-.2143947-.3351432-.4054084-.5435438-.5532983-.3474323-.2465532-.4707193-.5516045-.3811421-.9588531.0202161-.0919125.0228303-.1876928.0324881-.2724665Z" stroke-width="0"/>
    </g>
  </g>
</svg>