<?xml version="1.0" encoding="UTF-8"?>
<svg id="Layer_2" data-name="Layer 2" xmlns="http://www.w3.org/2000/svg" viewBox="0 0 175.6000649 248.0359913">
  <g id="Layer_1-2" data-name="Layer 1">
    <g>
      <path d="m119.129671,224.7677208c-8.322185-1.8330083-17.7680696-.7417137-27.333918,3.1521196-2.3744004.8032504-4.8448701,1.5626396-7.0245133,2.2329969-5.1250585,1.5770418-10.4113235,3.2038367-15.3669924,5.5153911-5.5445228,2.450994-19.4788228,7.3536365-29.1929485.0235672l-.2890261-.2179971.1739721-.3175032c1.0225568-1.8670499,4.0277084-8.2040214-.2359998-11.3823269-1.6519987-.8942462-3.5997337-.4942576-5.1802124,1.088676-1.7204092,1.7249917-2.8608022,4.8129561-1.5858795,7.1389127.6863961,1.6601818,1.8006033,3.1239699,3.2339504,4.2584711l.2955726.2337086-.2011399.3188125c-2.9617814,4.6853002-9.1877905,8.0554168-15.4925207,8.386013-4.6890644,1.1174804-9.4920371-.1237281-13.1307222-3.4126687-3.9827015-3.5998974-5.9356737-8.9476991-5.2242373-14.3059752,1.5122318-5.9736431,5.7001648-10.6000252,9.7502949-15.0745294,5.8855933-6.5019423,11.4446819-12.6425201,9.3198653-22.4072172-.815034-4.9065704-3.6170818-9.3588167-7.4978223-11.9230644l-.2500747-.1649707.0754479-.2906627c2.2719483-8.7015523,2.7868273-15.7841654,1.6205757-22.2906903-.5952367-4.1943158-2.2568915-8.3847037-3.8638833-12.437616-2.9432876-7.4223743-5.9857541-15.0948234-2.7167802-23.1325648,6.3209327-15.3481713,11.8978605-31.5414904,4.8000268-45.9973794-.7007984-.8268177-.0371512-2.5832324.6654475-4.4424266.4873838-1.2903069.9894972-2.6205472.9600381-3.5206852.8525125-4.312152.8566041-9.171588.0171845-14.4990957-1.3380961-4.900024-3.246225-8.4527869-4.9298104-11.5865764-3.3891014-6.3094764-6.0657845-11.2926404-3.0986023-23.4317379.0376421-.3305961.2147238-1.005536.4391037-1.8605034.5353366-2.040531,1.6467616-6.2760895.7369675-7.1258198-.0569542-.0530263-.2214339-.2075227-.6976888-.0890318-2.282259,6.0535099-4.2623989,11.9918022-3.602025,18.0544771.9448176,6.8070073,3.4889349,11.4844517,5.9492576,16.0087089,4.0898998,7.5205712,7.9528011,14.6234784,2.7447663,29.908149l-.1554784.4549788-.4296113-.2160331c-1.9550997-.9878605-4.7064125-1.9567364-6.710938-.9708398-1.3120739.6467901-2.1871717,2.083083-2.6010715,4.2689454-.2019582,1.445458-.1325658,3.3203636,1.3564261,3.979592,1.8361179.8143794,5.1003456-.4595614,6.9870349-2.722672l.4487597-.5381189.2618583.6494087c4.0065961,9.955199,1.9619735,20.7241228.3865684,26.2571893-.7492421,3.0925469-1.8691775,6.1824751-2.9524527,9.1702787-1.7456131,4.8162293-3.5496533,9.7935015-3.8052925,14.8676613-.2911537,5.0178602,1.6775299,9.9047913,3.5814036,14.6306795.7258386,1.8009307,1.4757353,3.6620887,2.0852106,5.4977156,3.5735479,9.2481815,3.6617614,19.9018876.2441829,29.9867065l-.1456587.430757-.4171731-.1800276c-3.4868073-1.5037215-7.9919162.6742852-10.0126442,3.6516144-1.6443066,2.4228442-1.4685342,4.9379934.4806737,6.9052041,3.5337781,2.0621343,7.6204047-.9754223,9.3985864-3.8021829l.0710291-.0824854c.2410733-.1833008.4778915-.7089814.6683934-1.1318826.3305961-.7332033.6428622-1.4258186,1.2160046-1.5338352.0490984-.009165.0962329-.0137476.1436948-.0137476.2371454,0,.4670898.1073619.6831229.3194672,2.7670242,2.0280928,4.7776052,5.7255324,5.4888779,10.1214791,1.1688701,8.5981182-4.3640327,14.8539137-9.7147803,20.9028411-5.7147307,6.4606996-11.6237276,13.1413602-8.8369003,22.5656415.9469452,4.772368,3.5864771,8.5090864,7.6390621,10.8278419,5.172193,2.9596538,12.4235411,3.3884468,18.9238468,1.1181351,5.9515488-2.0038709,7.5767071-4.2813837,8.6521265-5.7883784,1.7089529-2.3960037,2.4351188-2.8333071,10.9216199.576743,9.6124919,2.3488692,19.4956799-1.4159989,26.0905819-4.4535555,2.3271022-.7940854,4.6604236-1.6189391,6.9218976-2.4182617l.1862467-.0661192c8.8514662-3.1318256,18.0007962-6.3683946,27.1948058-7.9166319,9.3635629-1.2745954,16.7522229,2.3351216,23.8985004,5.8283118,5.0268616,2.4568858,10.2229492,4.9962569,16.0861208,5.8387861,2.9239756.240255,5.905069-1.3989781,7.1695174-3.8787765-2.825124,1.0238661-6.2377927,2.1374186-9.4869636.9642933-4.3114974-.9512004-8.3218577-3.0833818-12.1999795-5.1448615l.1179999-.2219249-.1183272.2219249c-4.2890758-2.2794768-8.7239739-4.6362017-13.5845555-5.3648225ZM10.5240927,74.9873752c-.1273286.6991617-.8497303,2.3580343-4.7959353,2.6532795l-.199667.0144022-.1369846-.1453314c-1.1980019-1.2726315-.1199638-3.245734.3404158-4.0889178.9567649-1.1711614,2.198628-1.5272887,3.3480224-.9917884,1.0204292.4739636,1.6277768,1.5502013,1.4441487,2.5583559Zm-.0494258,104.6615009c-.3422161,2.1708055-3.4894259,5.1893774-5.5887114,5.8577708-.2808431.0896865-.5423741.134857-.7770646.134857-.4934393,0-.7909758-.1990123-.9536553-.365947-.5566126-.5701965-.5381189-1.6830944.0566269-3.4021943,1.3682098-2.3370856,4.3555223-3.4728961,6.9693594-2.691249l.3507265.1047433-.0572815.3620191Zm27.9669605,54.39714l-.2374728.3940968-.3700386-.273642c-1.7051887-1.2601932-2.7049965-3.2424608-2.5470632-5.0492832.1297835-1.4853914,1.0196109-2.711543,2.5056569-3.4519474l.0790485-.0392787.1389486-.0072011c.9724764.2075227,1.6089558.7037443,1.948226,1.4867007.8196166,1.8951997-.4582521,5.1887228-1.5173054,6.940555Z" stroke-width="0"/>
      <path d="m38.0296916,6.1723157c4.0655142.7279662,8.0449425,2.2506723,11.8934416,3.7236254,2.5249689.9669119,5.1358601,1.9665561,7.7467513,2.7279091,7.1935756,2.0235102,14.9103769,2.8765137,22.9346981,2.5315154,2.9645636.0504077,5.559907-.3070289,7.9606569-1.0441601,2.5095848-.7698635,4.1601105.0052372,6.0710217.9021019,1.3452972.6330425,2.7306914,1.2844151,4.6270367,1.486046,6.6495649.7050536,12.4223955-2.4045141,18.0037421-5.413921,4.5614084-2.4595044,9.2751857-5.0014941,14.5133342-5.5402676,4.8296496-.8732975,10.6664717.922396,14.8494949,4.5792475l.3810039.3338694-.3986793.3116114c-.2140692.168244-.4497417.3495809-.701453.5440107-2.9301947,2.2591827-7.8002686,6.0135765-7.8519857,9.7948108-.020294,1.4867007.7474419,2.8752045,2.2819317,4.1268873,2.5429717,1.6830944,6.6377813,1.5115772,9.7169079-.4209373,2.4351188-1.5292526,3.6363939-3.8381885,3.2956507-6.3363169-.4266654-2.0189277-1.1336829-3.4224884-1.6498711-4.4470091-.5030953-.9970256-.8656054-1.7158267-.5369732-2.3442867.4304296-.8241991,1.8115687-1.1345012,6.3376262-1.7740902.5904905-.0988515,1.1865456-.1492592,1.7654161-.1492592,2.4937096,0,4.7694221.9472725,6.5811545,2.7390381,2.9637453,2.931504,4.4754862,7.9892976,3.7617586,12.5868752-.5505571,5.2018157-2.3868387,10.2661558-4.1627291,15.1635612-1.3942319,3.8453896-2.8346164,7.8177804-3.6229736,11.8006456-2.6246388,10.2373514-2.8423085,21.6301526-.6498996,33.8739934.3685656,2.6467331.8734612,5.6895268,2.2261231,8.426601.6350064,1.7662344-.0214397,3.277157-.7814835,5.0270253-.4883658,1.1240269-1.0418688,2.3986223-1.2606842,3.8545546-.6129122,4.0758249-.6327152,7.9500189-.0592454,11.5158747.398352,2.0863562.8569314,4.2486514,1.3004539,6.3402448,2.1999373,10.3728631,4.4746679,21.0979256,1.6174662,31.5283975-.8926096,3.3216729-2.3642534,6.4999784-3.7874534,9.5735405-1.7894744,3.8663382-3.6385215,7.860987-4.2934946,12.0893444-1.2459547,5.9291272,1.5654218,10.541107,4.5417691,15.4234556,1.8177878,2.9819117,3.6972759,6.0652935,4.5877579,9.4825447,1.0731282,4.1412895,1.4544594,8.4410032,1.8231886,12.5986589l.1512232,1.6863676c.0995062.9793502.2590761,1.9803036.4132452,2.9485248.3237224,2.0326753.6579191,4.1301605.4764185,6.2315736,1.8010943-3.558,1.5965175-7.7294032,1.3988145-11.7646401-.0227489-.4647985-.0453342-.9256692-.0646463-1.382612-.0600638-.5132423-.1201275-1.0559437-.1803549-1.5986451-.4062077-3.6679805-.8263267-7.4616531-2.000434-11.0988653-.8446568-2.8189049-2.5033656-5.3838072-4.1075752-7.8642603-2.5804502-3.9907209-5.2479682-8.1162989-4.5797385-13.3482283.6330425-4.7252335,2.647224-9.1539125,4.5951227-13.4366055,2.0305477-4.4653392,4.1295058-9.0805922,4.649131-14.0126938.9253419-7.9127041-.4949122-15.9275329-1.8683592-23.6785394l-.1833008-1.034995c-.2374728-1.1744346-.5107874-2.3816015-.7751007-3.5481804-1.1160075-4.929483-2.2698207-10.0259008-1.3446425-15.2028399.8482573-4.471231,1.413544-5.5546698,2.1035407-5.9160343.543847-.2834616,1.0641268-.053681,1.6148476.1911566.9395804.4183187,2.1032134.9354889,4.1424351-.6428622,3.4900805-2.7043419,4.3512671-5.5644895,3.9935032-7.3392343-.2248708-1.1161711-.943181-1.9141844-1.9711386-2.1897903-2.0176184-.5387735-4.7744956.9060298-7.3745852,3.8597918l-.4934393.5610315-.2214339-.7135639c-3.8228043-12.3243623-4.2977498-26.1138219-1.3369504-38.828353.7503878-4.0862992,2.1937182-8.1745624,3.5895867-12.1286232,2.5354433-7.18081,5.1568088-14.6051483,3.623792-22.2298082-.512915-4.3186985-2.639532-7.5965101-6.1553073-9.5126584-4.4617386-2.4326639-10.7474841-2.3403588-16.0132915.2350179l-.2230706.1099805-.2032675-.1446767c-4.6483127-3.2830488-9.6537346-6.4358231-15.2376998-5.8184921-4.9378298.4379581-9.7946471,2.8653848-14.4917309,5.2135993-7.7753921,3.8879415-15.809533,7.9061576-24.3942309,3.0395206l-.7801742-.4431952.8399106-.31423c4.0586404-1.5187783,5.7787223-5.517355,5.0448644-8.3513168-.6513726-2.5144946-3.0537591-3.7131511-6.4260034-3.2064552-2.5475542.4693811-4.5537163,2.2768582-5.3581124,4.8332501-.8104515,2.5753767-.1916476,5.2299655,1.6554356,7.1009432l.5062049.5125877-.6958885.1865741c-10.1105137,2.7056512-21.0917064.9138856-30.5004399-1.1953833-2.7151435-.534191-5.4597462-1.5894801-8.1141713-2.6100729-4.3519218-1.6732747-8.8357547-3.3976118-13.294711-2.8640755.0548266.009165.1029431.0170208.1332204.0216033.1451677.0216033.2829707.0432066.3970427.0726657Zm133.6109211,85.0260541l.0761026-.0130929c1.3677188-.1276559,1.7081346.5623408,1.7898017.9826234.3022827,1.5554385-2.2041925,4.5013447-3.9175643,5.0316078l-.0970512.0301137-.0608821-.011129c-1.7299016-.2893535-2.125144-1.0827842-2.1582036-1.6981513-.0903411-1.6850583,2.5783226-3.820513,4.3677969-4.3219717Zm-22.8931281-78.7322891l.2510567-.0903411.187556.1924659c2.8310159,2.8824056,3.6868016,6.5497315,2.1796433,9.3424505-1.1220629,2.0791551-3.2758477,3.2241307-6.0646389,3.2241307-.7058719,0-1.4456216-.0752843-2.1984643-.2245435-2.1308722-.8477663-3.1714317-2.0785005-3.1372264-3.6705991.0756116-3.4964633,5.8091634-7.7274393,8.7820737-8.7735633ZM92.8880295,2.9095609c1.6385785-.9603654,3.5241221-.9053752,5.1730113.1518778l.0819944.0713564c.7273115.9924431.9433446,2.0038709.6729759,3.0408298-.5553033,2.1315268-3.2049823,4.0214893-5.4995159,5.0793969l-.1700443.0792121-.1731538-.0752843c-1.706989-.7469509-2.6986137-2.0333299-2.7919008-3.62281-.1050707-1.7878377,1.0079909-3.7301719,2.7066332-4.7245789Z" stroke-width="0"/>
    </g>
  </g>
</svg>