<?xml version="1.0" encoding="UTF-8"?>
<svg id="Layer_2" data-name="Layer 2" xmlns="http://www.w3.org/2000/svg" viewBox="0 0 230.2276046 220.6416797">
  <g id="Layer_1-2" data-name="Layer 1">
    <g>
      <path d="m38.4149801,40.3659808c.0691597-4.2561547.6387944-8.3050535,1.300513-12.3465156.3157283-1.928361,1.3841695-2.7811125,3.417408-2.3632822,4.2852907.8806251,8.1166186,2.6695747,10.8195732,5.9494376,2.2304517,2.7065084,3.4729946,5.9041683,4.0309289,9.2951415.1791794,1.0890097.2804696,2.1890951.4184826,3.2839971.0289765.229859.0627967.4591992.0997579.7278689,1.0157787-.6524531,1.9462621-1.2907297,2.9198273-1.8658662,1.4306945-.8451723,2.9440454-1.4728445,4.708336-1.375681.2001542.0110203.5133629-.1826256.6106606-.3592994,1.9115482-3.4709468,4.4889861-6.4521044,7.6354926-9.0114797.4477401-.3641938.9781449-.6681144,1.5205354-.8967695.6566622-.276835,1.3334989-.2070818,1.8719055.2944406.5582492.5200031.6083367,1.1539912.3194142,1.8017558-.1495389.335259-.355703.6624755-.6008968.9447395-1.58981,1.83016-3.1915546,3.651438-4.8016925,5.4661664-.77748.8762732-1.5817232,1.7319828-2.4069412,2.6331399,2.5236645,1.2324641,5.3991417,1.3561588,7.6336965,3.0965088.1021159-.2876771.1745487-.5029123.2546682-.7156408.4760781-1.2639927.9171529-2.5406886,1.4378195-3.7886121,1.8240398-4.3718307,5.1432733-7.6053195,9.3200978-10.0433127,3.9065273-2.2802277,7.3816756-5.0311145,10.7691027-7.8960457,1.1460113-.9692353,2.1699023-2.0757278,3.1621439-3.1870791,1.3813391-1.5471318,2.9601085-2.7899589,5.0497465-3.4293602,1.2912599-.3951086,2.591143-.5088521,3.9160528-.2722653.4014832.0716936.6258554.0039916.8748458-.3031444,1.6390123-2.0217309,3.6343234-3.6954263,5.8797485-5.1172577.0960039-.060792.193557-.1199664.2939534-.1741455.784358-.4232019,1.4542571-.4058438,1.9185455.0479759.4630115.4525684.5138481,1.1291272-.0653589,1.7767908-.9782045,1.0938447-2.0426406,2.1219475-3.0899325,3.1610073-.7287715.7230596-1.4895499,1.4181922-2.2907627,2.1776728,2.8612699,2.4996524,2.7150594,5.7825209,2.9155456,9.0766474.2941407-.1572507.5054888-.2665472.7130234-.3817994,1.4765088-.8199519,2.9220661-1.6930849,4.4338337-2.4521141,4.45995-2.2392153,9.1615185-2.9202666,14.083799-1.6179977,1.0771197.2849686,2.1791469.7221865,3.0707794,1.3384463,3.2908954,2.2745255,6.0969703,4.9472206,7.4072982,8.7006016.0860102.2463598.1950723.4859204.2996057.7263206.0152203.0350093.0652057.0569391.1398092.118531.2060534-.0886656.4375761-.1753513.6563131-.2842756,7.5033532-3.7363457,18.2505958-2.1967218,23.8297682,2.4195203,2.0296675,1.67936,4.1790718,3.2345501,5.6766235,5.5717367.0418985-.2099012.0762038-.2821214.066806-.3490354-.3278671-2.3361372-.6148233-4.6783449-1.0071981-7.0051566-.2593246-1.5378775-.9456698-2.9546383-2.0167286-4.153392-1.1118847-1.2444546-2.273908-2.4591389-3.5111646-3.5952553-1.3904815-1.276791-3.1149422-1.813683-5.0922579-1.6825912-1.0850022.0719351-2.1904345.1144286-3.2670604.0043638-1.8069637-.1847283-2.9261692-1.3335835-2.9006657-3.0209781.034782-2.2993024.9189576-4.2171975,3.2378115-5.3585983.1914119-.0942253.3925791-.2556952.4814155-.4327393.7910489-1.5767299,2.2666553-2.1720597,3.977496-2.3677311,3.144106-.3595984,6.0399536.4825605,8.7949877,1.7722983,4.0163981,1.8802287,6.4352908,5.0750335,8.0977465,8.8328496,1.3149417,2.9723271,1.6012508,6.0669153,1.0996948,9.2347652-.0329604.2082262-.0618688.4170067-.1159572.7830696.5844507-.5152671,1.0781752-.9019609,1.5105417-1.3409766,1.2419556-1.2611653,2.7380431-2.2046891,4.324346-3.0321846,1.1544472-.602226,2.3300734-1.170298,3.5094111-1.729591.3377927-.160181.437491-.3122917.3935666-.6936239-.6509843-5.6511282-.6115204-11.2359622,2.0502848-16.5302838.2317952-.4610267.6049998-.8595962.9014389-1.2937254.183972-.2694063.3859223-.5365475.5133033-.8297209.9428606-2.1700877,1.9487648-4.3125909,3.5353571-6.1549414.5315881-.6172577,1.1361793-1.22201,1.8294537-1.6684426,1.655884-1.0663176,3.5327183-.2811196,3.7484759,1.5851426.0996472.8617939.0530328,1.8026171-.2172218,2.6251449-.8615153,2.6218799-1.7787874,5.2334979-2.8270497,7.7950412-1.0077429,2.4624593-2.1909452,4.8635127-3.3241452,7.2805502-.9898666,2.1113548-2.2530013,4.0716878-3.8334476,5.8533394-.1815544.2046821-.2250192.51537-.2443766.8516032,1.4323119-.6120227,3.1114691-.6802633,4.1387737-1.9518945.1099644-.1361287.2886246-.3129174.2628828-.4407739-.1606818-.79803.3662244-1.1226013,1.0074024-1.4281414.2550002-.1215207.4842416-.3414879.6496053-.5650388.6318482-.8542088,1.2186654-1.7371979,1.8479599-2.5931055,2.6489003-3.6027295,5.1817923-7.2870464,7.99592-10.7747356,2.9997001-3.7176669,7.0762815-6.2028797,11.7373476-7.8371663.6366493-.2232202,1.3599728-.3383734,2.0396782-.3267354,1.2947841.0221713,2.1541542,1.0244775,1.9153107,2.2069027-.1221713.6048751-.3771545,1.2044856-.6769815,1.7572349-1.289285,2.3770724-3.2221996,4.2686323-5.3447384,6.0103999-.4440797.3644255-.8762249.7414196-1.3847611,1.1727254.5993305.1071127,1.0849682.1527008,1.5428211.2829213,1.9142722.5444514,2.6651421,2.2004204,1.7665464,3.8599493-.5167764.9544293-1.2795127,1.7464165-2.2759339,2.2261358-1.8298623.8809815-3.6847854,1.743799-5.6059017,2.4280024-3.5989795,1.2817685-7.2283316,2.5009908-10.8961772,3.5983242-1.3563975.4058003-2.3745597.9673662-3.1485154,2.089817-.3419468.4959191-1.0272024.8947025-1.6474056,1.099044-3.6513994,1.2030343-7.1047302,2.7783287-10.4217589,4.6244352-.4773295.2656602-.938315.5632014-1.3760273.8825694-.770006.5618234-1.4034546,1.1628534-1.6020851,2.1637281-.1690751.851813-.6880137,1.6433885-1.050782,2.4621484-.0848014.1914402-.1639336.3850663-.2238445.5262676,2.2745209-1.5041315,4.4896586-3.1234716,6.8635883-4.5069535,5.0714193-2.9555253,10.5668969-4.7640683,16.6314006-4.7465776.966917.0027878,1.9594906.1033488,2.8942814.3257593,2.0092546.4780244,2.6236692,2.0299397,1.5078007,3.6577698-.322334.4702314-.7310528.8892101-1.1302036,1.3676741.0620561.0676545.12607.1497903.203074.2195039.8809578.7975311,1.1210782,1.7625728.3946221,2.6810662-.6183985.7818737-1.4116266,1.5038543-2.277313,2.0449041-2.1763037,1.3602058-4.6768142,2.0051905-7.2268334,2.4293686-1.8962768.315424-3.8164567.5100163-5.7289923.736446-3.6637425.4337689-7.3290854.8557571-10.994888,1.2741379-1.0837764.1236907-2.1693405.2447996-3.2579861.3152022-.4734308.0306178-.7299973.1662752-.9360847.5883981-2.7514588,5.6364569-6.1361618,10.922045-10.3518884,15.7176379-1.2883487,1.4655345-2.8051215,2.7573414-4.2197615,4.1264925-.1413584.1368058-.3000143.2581285-.4955462.4249581,6.8187956-2.3888907,13.136631-1.1905211,19.2896646,1.9885472.0787576-.1626876.1757489-.3490473.2604652-.5401034,1.2433176-2.8037353,2.6852997-5.5120059,4.4593201-8.0618101,1.9237551-2.7650394,4.3846485-5.0461343,7.3468255-6.8254257,1.0363448-.6224847,2.2113582-1.1264265,3.3981698-1.4315667,1.7302491-.4448684,3.1910779.3384031,3.8550523,1.8983095.2872796.6749531.424552,1.4051702.6590201,2.2099993.2006565-.2396597.3754009-.4478225.5495665-.6563971,2.2952913-2.7486138,4.5604825-5.5196049,6.8952718-8.2388681,1.8833719-2.1935064,4.1524958-3.9719781,6.9997712-5.0007937.8999407-.3251851,1.8604222-.5833611,2.8158643-.6818829,2.1750269-.2242835,3.7922471.9842472,4.1820001,2.9817714.2608909,1.3370841.0199533,2.6311164-.406846,3.8994174-1.3078082,3.886322-3.6116461,7.2349206-6.4676212,10.2806598-.1220862.1301849-.2454322.2594986-.3622406.3936909-.026593.0305544-.0284487.079744-.0412856.1204753,1.9262237,1.2679842,2.2551294,2.5821406,1.0966303,4.550532-1.1814828,2.0074437-3.0011983,3.4440711-4.982651,4.7271266-.3407891.2206602-.6890862.4312939-1.0908588.6821205.6830594.7594964,1.113451,1.577108.9976981,2.5602425-.1728206,1.468053-1.0935488,2.4816944-2.4288013,3.1259267-1.0863983.5241689-2.2503624.9294464-3.4149054,1.2894309-3.774422,1.1667381-7.685878,1.6637422-11.6331547,1.9619843-.4384614.0331283-.8760546.076093-1.4869621.1296543.2591543.2205731.421147.3471941.5694346.4864392,1.0116927.9501012,2.0822577,1.8538242,3.0131328,2.8683526.9603453,1.0466509,1.5429913,2.2986213,1.8456785,3.6636859.104227.4700611.2943279.9584961.5807903,1.3533988,3.4941056,4.8169921,2.2896901,9.2662146-.9858998,12.7848185-2.8230659,3.0325211-6.3664928,5.1515225-10.1891636,6.9009089-.6651151.3043878-1.0676197.6828253-1.3675319,1.3323877-1.5606292,3.3799766-3.3141856,6.6698976-5.525748,9.7348185-.6987735.9683879-1.331541,1.9790593-1.9692969,2.9842027-.6897162,1.0870178-1.2581123,2.2511583-2.0421809,3.273646-1.6246772,2.1187241-3.3664352,4.1594229-5.0432089,6.2439654-2.7569068,3.4272892-5.4716256,6.8843249-8.2580197,10.2906584-2.5766973,3.1499552-5.6171211,5.8695986-9.024195,8.2488668-1.8173149,1.269093-3.5033161,2.7003984-5.3126633,3.980088-4.9400716,3.493926-10.3853766,6.0466685-16.4235936,7.458016-.99145.231732-1.9808058.4720807-2.9765291.6867852-.362547.0781838-.4902855.23292-.581267.5890237-.4352267,1.7033964-.9442567,3.3903198-1.4123416,5.0866201-.9844357,3.5675797-1.7080315,7.1761837-1.9872243,10.8570317-.0353779.4662201.0620901.6541241.5890304.8013682,2.5666185.7172604,4.5087947,2.2938457,6.1627208,4.170859,1.2207765,1.38545,2.3271621,2.8609001,3.4318963,4.3304895.3519915.4682475.5180703,1.0545627.8037155,1.5703129.114493.2067372.2870242.4783056.4922263.5349477,2.7174258.7500165,4.829954,2.3193473,6.5614459,4.3196078,2.4593952,2.8412116,4.5302972,5.9199524,5.9259714,9.3492849.7477203,1.8372086,1.4148954,3.7032451,2.089936,5.5652108.1389579.3833477.1934038.8046153.2136636,1.2115322.0468357.9413261-.4026409,1.4976412-1.3605516,1.7908622-.1667086.0510349-.3608616.1255598-.4616324.2471438-1.9523401,2.3558732-4.64874,3.7546918-7.4660344,4.9682831-3.3400976,1.4387816-6.8279721,2.5135714-10.3956086,3.3417875-7.1198484,1.6528367-14.3441621,2.7017289-21.6710343,3.123234-2.8981971.1667267-5.7945385.4373605-8.6948041.4804281-4.9687161.0737804-9.9408627.0610296-14.9097746-.0157603-7.3504688-.1136009-14.6709822-.6591928-21.9539469-1.5987765-7.1521533-.922683-14.2120227-2.2012005-20.9047312-4.8456378-2.1885447-.8647262-4.3195705-1.8248538-6.1547786-3.2630493-1.3694472-1.0731741-2.3964112-2.3511055-2.6884791-4.0469149-.1678578-.9746207.0267931-1.8767598.5292344-2.753334.3200527-.5583268.5652295-1.1652175.7569734-1.7740406,2.1655695-6.8762151,5.882779-12.5877671,13.3445316-15.5241266,1.0049252-.3954491,1.9940002-.8306079,2.9631644-1.2964795.241227-.1159135.5033777-.4056815.5413264-.6450006.8292614-5.2307121,4.0368791-8.5401078,9.3966591-10.110294.4869741-.1426664.6128143-.3178355.6141252-.802271.0048691-1.7905612.1190132-3.5806156.1476832-5.3714619.02558-1.5982379-.0484446-3.1982974-.0030645-4.7956959.0446395-1.5712791.1573279-3.1423206.2996142-4.7088003.0388425-.4276033.0069547-.6056552-.4941927-.6955761-2.2355251-.4011355-4.4907907-.746611-6.6846047-1.2989346-2.4385651-.6139393-4.8383984-1.3783064-7.2169419-2.175683-1.7897515-.6000164-3.5085428-1.3806031-5.2781196-2.0359627-2.856588-1.0579048-5.403083-2.5861638-7.8069427-4.3430344-.3648709-.2666739-.7352069-.5286119-1.1188522-.7710355-4.2283804-2.6720932-7.5815064-6.1748734-10.2440862-10.1487048-3.0682767-4.5793282-5.8327128-9.3439786-8.5356163-14.1228529-1.731194-3.060858-2.8981545-6.3624924-3.8320473-9.7246891-.3302932-1.1891114-.7948454-2.3489672-1.2501318-3.5044355-1.2187505-3.0930756-2.1969295-6.2461354-2.7188772-9.5073077-.1167063-.7291796-.0171314-1.4883276-.0171314-2.3599202-.1297261-.0653538-.4095871-.210317-.6931935-.3486275-3.8262333-1.8659969-7.4389902-4.0154417-10.491023-6.8977568-1.916096-1.8095449-3.4854229-3.8334854-4.2311023-6.3183398-.8828348-2.9419112-.2517101-5.6710821,1.5415889-8.1631117,2.1807919-3.0305095,5.1430583-5.186116,8.8032001-6.5016504,2.0928941-.752234,4.2574123-1.3653813,6.2692206-2.2724228,3.9582067-1.7845739,8.148915-2.8847465,12.3737628-3.8851776,2.6974853-.6387677,5.4457391-1.0966958,8.1813774-1.5866434.4631306-.0829436.977698.0827614,1.5955219.1467293.5045652-.6033664,1.1080966-1.3250936,1.7724328-2.119524-.2222484,0-.3336088-.0124578-.440862.0018136-2.9363331.3905943-5.7859153-.1148443-8.6228055-.72895-2.1526518-.4659825-3.8981468-1.5828974-5.4501699-2.9994799-3.4190722-3.1206759-5.3741959-6.9468514-6.3024661-11.2750363-.6877711-3.206823-1.2982444-6.4261197-1.2063946-9.7091347.0519177-1.8558398.2280539-3.7119687.4333199-5.5597858.1730888-1.5582155,1.2486251-2.207956,2.8993931-1.8541014,1.8821588.403452,3.5944849,1.1481108,5.1512835,2.2156738,3.9718352,2.7236428,7.4271664,5.9472161,10.6045605,9.4421202.0998515.1098232.2078368.2132473.4167163.4265738Zm-.666924,24.3726732c-.3090971.0428221-.5330565.0600634-.7499548.1061009-1.5393523.3266582-3.0796622.6498475-4.6151795.9916086-5.2454657,1.1674429-10.4474369,2.4675734-15.3855846,4.5345895-2.5949481,1.0862021-5.0980209,2.3284709-7.1695699,4.1833722-3.1299816,2.8026345-3.1539443,5.8003324.060975,8.517687,1.3978448,1.1815243,2.9766993,2.2266941,4.6157669,3.1032683,5.5956526,2.9925501,11.6714141,4.9146347,17.8251116,6.6225771,15.059637,4.1797846,30.5657373,6.0446172,46.1199245,7.6555426.6181091.0640154,1.1155025.0583607,1.4517545-.53867.1289643-.2289918.4264248-.4003911.6840554-.538274,2.3360066-1.2503232,3.7728216-3.2137013,4.7231477-5.4559736,1.933187-4.5612474,3.0053864-9.311967,3.0608368-14.2257939.0182167-1.6143467-.2576135-3.2299844-.2995801-4.8472693-.0164802-.6349108-.2349533-1.0166667-.7589312-1.3960942-4.2590807-3.0841342-7.1609467-7.0481134-8.6707478-11.8657549-1.1397546-3.6368221-1.676297-7.3526437-1.4567002-11.151005.015365-.265779-.0596215-.6536569-.2523273-.7915873-.770704-.5516188-1.5396885-1.184316-2.4272265-1.5006507-2.5571867-.9114132-5.1458781-1.7674831-7.7767659-2.4678388-.9957913-.265086-2.2440291-.3051323-3.1916738.0201162-1.1802911.4050954-2.2229181,1.2325473-3.222123,1.9944078-.7434725.5668682-1.2862376,1.3552005-1.9835894,1.9821282-1.6191356,1.4556349-3.2503249,2.9017739-4.9274731,4.2989293-1.9715528,1.6424222-4.0127717,3.212252-5.9953822,4.8434361-3.5273894,2.9021699-6.6238255,6.1065972-8.5293255,10.2028997-3.3901511,7.287876-3.2837108,14.6042631-.38708,21.9761201.2465771.6275454.5522947,1.2491669.6732275,1.8988876.0553865.2975927-.1797923.7601775-.4459609.9635093-.3929622.3001824-.8376079.0772414-1.1610699-.2569326-.1234099-.1274843-.2144595-.281666-.3248707-.4205152-1.6977101-2.1348804-2.513773-4.5675278-3.0673488-7.1539054-1.4308307-6.6850877-.5780067-13.0697316,2.5440008-19.2139239.335771-.6608084.665098-1.32446,1.0396647-2.0709918Zm83.4760469-3.3859322c.4935543-1.546324,1.1174348-3.0727139,1.4441102-4.6523246.2904973-1.4047663.4164481-2.877484.3266924-4.3045048-.2573667-4.0917684-1.8622609-7.8226969-3.8764016-11.4122579-1.5813316-2.8181968-3.0670339-5.6353442-3.6285519-8.8471329-.3160688-1.8078699-.6939724-3.5923883-.8014341-5.4293791-.0830138-1.4194218-.2131188-2.8574748-.5520777-4.2384224-.6457151-2.6307283-2.8152344-3.6725243-5.5620198-2.8247226-1.3757975.4246493-2.3659876,1.3090759-3.327763,2.2721456-1.4837274,1.485726-2.9850501,2.9622016-4.567982,4.3549616-3.0945633,2.7227756-6.4348737,5.1597709-10.0052938,7.3337314-3.4361781,2.0922286-6.1004434,4.8347086-7.7537141,8.3825839-2.3747555,5.0961713-2.7452021,10.3512485-1.5554621,15.7503267,1.2087313,5.4852609,3.9293919,10.126775,8.6965066,13.6478103.964193.7121601,1.8968642,1.4611945,2.848399,2.1883388.1687857.1289811.3590058.2336802.6237103.4038362,2.2836548-5.1023725,6.3512299-8.4644821,11.5292342-10.705899,5.138319-2.224239,10.5183161-3.0457471,16.1620473-1.9190909Zm-.5039055,34.5693044c1.4859236-.880138,2.9833391-1.8326072,4.5466923-2.6797912,3.5224863-1.9088824,5.9875167-4.7062423,7.7387066-8.048109.6720272-1.2824061,1.161836-2.710702,1.386004-4.1205052.5510136-3.4654307-.3319531-6.7417773-1.9946301-9.8468592-.6765729-1.2635016-1.6834304-2.2718367-2.9291656-3.0750661-2.0227724-1.3042408-4.2032302-2.3151023-6.5866259-2.8885479-2.0916555-.5032607-4.209189-.9789766-6.3974443-.717102-3.4126496.4084058-6.6981991,1.2335333-9.7518939,2.7528271-4.0961857,2.0379743-7.1793592,4.9412926-8.9471314,8.9942819-1.0358681,2.3749202-1.8299474,4.8069498-2.2427437,7.3431083-.2792353,1.7156245-.529792,3.4474212-.1225629,5.1603926.7966756,3.3510853,2.3716824,6.3670146,4.8308563,8.9423363,1.4962407,1.5669232,3.2507675,2.7725077,5.5834883,3.0546331.7930153.0959082,1.4635187.4007158,1.6355477,1.2322028,9.0709967.0958449,18.0855045.0212012,27.1332791-.4567955-1.319266-1.5329317-2.0090503-3.2343719-2.3803822-5.0183677-.36522-1.7546214-.5157208-3.5479149-.7594845-5.317473-.1304965.1411617-.2985671.3176613-.4604918.4989445-2.5395147,2.8431678-5.6433907,4.9953212-9.2479544,6.5324186-.3369925.143696-.6784797.2955573-1.0353744.3782553-1.0036909.2325794-1.7108407-.3836329-1.5320954-1.3336944.079745-.423786.2017461-.8455287.3579333-1.2503707.1100835-.2853962.310076-.5407608.4699066-.8095414.2231975.2128434.4463951.4256868.7055664.6728227Zm38.047673-62.1701364c-5.3829765.0624116-9.637486,1.6573945-12.9551106,5.2195294-.3028234.3251296-.6597352.6064828-.9894921.9100708-1.8961236,1.7455929-3.868502,3.4261844-5.6690814,5.2533032-2.6191917,2.657798-4.0021141,5.9311113-4.6769334,9.4171176-.8676272,4.4820261,1.8671641,8.6660873,6.3297359,9.7509668,2.6503814.6443195,5.366258,1.0154391,8.1375509.5400401,1.1458325-.1965604,2.2248249-.0228247,3.1951639.7343908,1.2212191.9529839,2.6824395,1.3351437,4.2934286,1.1798453,1.8005453-.1735772,3.4987875-.6594224,5.1258141-1.3830424,3.1464384-1.399365,5.7779051-3.4602512,8.252827-5.6886877,3.0075826-2.7080488,5.0668055-5.9984292,6.4776149-9.6494435,1.3602622-3.5201522.5811649-6.5929255-2.2794751-9.2000926-1.078022-.9824929-2.1939757-1.9316635-3.3318916-2.854097-3.5201028-2.8535228-7.7023242-4.0604814-11.9101512-4.2299008Zm6.5529675,60.2454621c-.3922216.0906257-.5470468.130969-.7040001.1619669-1.2785593.2524659-2.3723805-.6702567-2.1275952-1.8606986.0600812-.2921518.4575294-.7571126.6799608-.7474188.9927098.0432815,2.1221132-.3292558,2.9009892.7082002,1.273571-2.7354591,2.3518824-5.4327212,2.4008122-8.3576367.0366548-2.1908256-.6995906-4.2241273-2.3159767-5.8302849-3.6462409-3.6231684-8.179211-5.0953873-13.4075155-4.0568225-6.0240864,1.1966589-10.6594788,4.6227997-14.8595083,8.6170878-.367978.3499501-.6974625.7784722-.8991745,1.2271737-.4254544.9464343-.7575267,1.9294183-1.1222529,2.8992396-1.0033845,2.6679828-1.427596,5.4018025-.8469759,8.1975072.320921,1.5450806.8175908,3.0590127,1.2485953,4.5836603.187411.662915.3152006,1.3093095-.361815,1.9811659,9.0920566-.4421123,17.9878322-1.0909936,26.6203163-2.3659313.2551534-.8113629.2483775-1.7035786.7222169-2.1062268.9838909-.8360171,1.2671185-1.9666332,2.0719235-3.0509821Zm-28.414971-15.2441475c4.924034-4.8021267,10.3759617-8.588941,17.2848706-9.4896467-1.0199838-.4809983-2.2491536-1.0648663-3.48418-1.6378129-.1578897-.0732498-.3470543-.1287277-.5204708-.1258607-1.2065777.0199499-2.4192673.1454146-3.617741.0695354-1.9869859-.1258132-4.008822-.1986829-5.9381442-.6099319-5.6780025-1.2103126-9.4542631-5.6006992-9.5054232-10.8291542-.0274613-2.8065151.8922113-5.4113537,2.0435429-7.9542599,1.5858773-3.5027169,4.1480523-6.1647282,7.8803204-7.8050992.2485477-.1092411.4632328-.3526864.6120482-.5799715,1.0544424-1.6102839,2.1383721-3.1933793,3.6849046-4.4553049.1305306-.1065128.1563064-.4749278.0642182-.6424346-.6029739-1.0968463-1.1896037-2.2084629-1.8961746-3.2478157-3.4347565-5.0524622-7.3735547-6.5238455-12.9193241-6.0306349-4.4489689.395663-8.0849266,2.559989-11.7620168,4.6350318-.1750168.0987672-.3125106.4351707-.2839257.6385816.3303187,2.3512204.9156547,4.6125555,2.3124525,6.6663931,1.8722205,2.7529063,3.2976543,5.7204696,4.27322,8.848206,1.3149417,4.2158194,1.881448,8.4698675.3000143,12.758121-.4043774,1.0965532-.7725427,2.2046535-1.1692248,3.341447,3.5341824,1.4957484,7.0592054,3.0295275,9.4186979,6.1042292,2.3521718,3.0651505,2.789765,6.6614076,3.2223358,10.3463818Zm49.9582838-8.8574682c.061341-.0844959.122682-.1689838.1840231-.2534717-.3469522-.2856576-.6726061-.5982899-1.0443466-.8525773-2.300501-1.5735521-4.9719764-2.2177369-7.7365614-2.5439832-5.1031198-.6022101-9.0688515,1.1931901-12.005423,5.0738297-.3772566.4985326-.3470713.7790978.2311993,1.1855475,4.5513231,3.1990181,6.569652,7.4557748,5.8832897,12.7420043-.3984868,3.0688886-1.3733033,5.9962275-2.8522637,8.7717606-.0671125.1259399-.1027798.2663809-.133578.3481761,4.3252313.8856185,8.0205552-.3011169,11.2735019-2.8909635,2.123339-1.6905031,4.1566669-3.486228,5.7390881-5.6358392,1.0832827-1.4715536,2.0385716-3.0470222,2.8502548-4.663333.9021369-1.7964614,1.3752271-3.7409669,1.0479389-5.7397305-.0846142-.5167402-.5280129-1.1722027-1.0082536-1.4070392-1.3309281-.6508612-2.7649936-1.1208669-4.1650602-1.6467385-.4933159-.1852826-1.0348637-.273572-1.5037147-.4978674-.7503251-.3589549-1.032344-1.1334593-.7493377-1.8264536.2685181-.6575613,1.005802-1.046239,1.8063849-.9060356.3368563.0589942.6559897.2077827.9814733.3200927.4013981.1385086.8009915.2815393,1.201385.4226218Zm-103.5880566,86.98491c-.3467138-1.6844049-.6199733-3.173176-.9630948-4.6478657-.9281-3.9888472-1.9874881-7.9489616-2.3878477-12.0343189-.4248585-4.3353998.136651-8.4969768,2.1091402-12.4661514.1655084-.3330256.2864454-.723026.5551251-.963929.3061092-.274467.7704742-.5869805,1.1370987-.5586277.3682078.0284478.7812254.4033214,1.0245976.724705.2111013.2787753.2603461.6906183.299146,1.0512839.6358406,5.9103853,2.1247436,11.7222489,2.3326016,17.6829405.1303858,3.7388998.4022153,7.4816486-.918898,11.1144395-.0200384.0550898.0076527.1252113.0185998.2525451,2.5500021.1800794,5.1006597.3602221,7.5177308.5309244-.1129267-1.2832693-.3143663-2.4591627-.3024233-3.6331394.04704-4.6243758.1136247-9.2495435.2680584-13.8716542.0936374-2.8022147.6407608-5.5459975,1.8762724-8.1314327.756735-1.5835864,1.5599142-3.1479436,2.2963043-4.6285732-8.0445689-.9612838-16.0689802-1.9201601-24.0516548-2.8740469.198307.6065106.4870593,1.1646314.552614,1.744595.3424405,3.029274.7913809,6.0593242.8939734,9.0981495.1406519,4.1660438.0436946,8.3408468-.0321857,12.5106129-.0356759,1.9599964-.261308,3.91692-.3938985,5.8756335-.0060524.0893823.068483.1809822.0846993.2746571.0379317.2192029.1183662.4491134.0797706.6584325-.0492873.267355-.1987752.5187439-.3732983.9427516,2.8145619.452899,5.540713.8915742,8.3775691,1.3480688Zm-3.6709016-43.4578496c-.0140456.037896-.0280912.0757841-.0421368.1136722.0707899.0453485.1370681.0989573.2130251.1348496,3.4695386,1.640181,6.6992291,3.6308031,9.8186914,5.7861165.1641208.113395.4847353.1438069.6838425.0804805.8113767-.2580731,1.6267798-.5230047,2.3990756-.8664369,2.7433804-1.219943,5.6366318-1.9968233,8.5992344-2.5685978,1.885151-.3638176,3.8136135-.6565317,5.5526475.3881946,2.6899645,1.615994,5.3676881,3.2570778,7.959461,5.0045239,1.8223373,1.2286864,1.2707448,1.2385227,3.2985907.2951851,2.7612141-1.2845207,5.5122472-2.5906781,8.3078177-3.8076908,2.8734428-1.2509251,5.8146109-1.2120866,8.7194478-.0624077,1.2795638.5064207,2.5340327,1.0787021,3.7575672,1.6939402,1.6137472.8114738,3.2087158,1.6604872,4.7651058,2.5630065.6613866.3835378,1.0647766.2702537,1.5096394-.242091.8321812-.9584486,1.6688911-1.9154557,2.5502745-2.8344006.9572297-.9979998,1.867811-2.0668973,2.9768355-2.8995485,1.9028655-1.4286602,4.0590797-2.3744055,6.6246086-1.9920794,1.5439107.2300847,2.7691648,1.04753,4.0010245,1.8791437,1.4266426.9630737,2.9170608,1.8439879,4.3670957,2.7776635.5651103.3638652.925376.2640446,1.3899197-.2183793,1.129097-1.172567,2.2693623-2.3543051,3.5457083-3.3811091,1.7232348-1.3863053,3.7768055-2.1698303,6.098792-1.9540804,2.7170172.2524501,5.3474624.849845,7.7718883,2.1688562,2.1617303-2.93651,3.9402964-6.0929357,5.5793086-9.4845147-.3483652.0979911-.5403389.1486063-.7299973.205874-2.6505347.8003307-5.3037422,1.5932643-7.9480798,2.4110026-.4280081.1323628-.8027961.4090711-1.2267693.5587386-.4135709.1459927-.8534454.2488862-1.2915153.3069696-.3756563.0497994-.7782291-.0509161-1.1464795.0182788-4.188095.786883-8.3517592,1.7029529-12.5609652,2.3722909-8.7298501,1.3881902-17.5237481,2.3161161-26.3690786,2.7874681-3.1553425.1681522-6.3104296.3582184-9.4685471.4601852-14.6323951.4724212-29.2304592-.1693877-43.8139245-1.2305475-1.9650322-.1429911-3.928115-.3091317-5.8921087-.4645569Zm142.0538377-53.6707361c-.0632478-.0839969-.1265127-.1679938-.1897775-.2519907-.6413822.150111-1.2877017.2842796-1.9229209.4543483-.8053328.2156311-1.4731719.068791-1.8867939-.4514972-.4075611-.512614-.3826535-1.1777307.0989152-1.8069947.214634-.280486.4657525-.5389947.7187438-.7914843.6496053-.6483031,1.3341969-1.2675645,1.9610569-1.9340751,2.5807152-2.7438778,4.5619637-5.8300276,5.964584-9.2314389.2557493-.620184.4200404-1.2841801.5331885-1.9418562.2613165-1.5189374-.1687687-1.8766569-1.7524327-1.5046106-.4257438.1000225-.8435028.2419841-1.2500424.3982171-1.9436062.7469516-3.6471262,1.8540183-5.0361095,3.2974884-2.4472734,2.5432704-4.8061871,5.1605787-7.1812575,7.7633344-1.0372301,1.1366747-2.017052,2.3185395-3.035095,3.4705865-.4199383.475209-.928117.798818-1.6386547.5884931-.7171094-.2122732-.8919389-.7660144-.9583534-1.3716776-.056591-.5160511-.0716582-1.0364581-.1406093-1.5508145-.068832-.5133822-.1398602-1.0322132-.2848961-1.52974-.2369708-.8130419-.5609392-.984655-1.3688087-.6280602-.8342242.368221-1.6495337.7996654-2.4029573,1.2957034-3.9981473,2.6322647-6.5593689,6.3660484-8.9507663,10.2216536-.0740417.1194061-.1023542.3673894-.0242095.4473948.4659908.4770701.3282587.9685146.0650354,1.4451095-.4858249.8796312-1.0109265,1.7404292-1.5066771,2.6154432-.065427.1154858-.0545821.2683925-.079064.4039549.1622311.0158791.3317829.0664784.4847694.0385534.1773833-.0323601.3403294-.1334795.5093535-.2051137,3.2444512-1.3751464,6.1443679-3.2205678,8.7255087-5.5075233,2.7643807-2.4493026,5.6923375-4.7132671,8.8737282-6.683187.3820406-.2365551.7956286-.5188943,1.2246582-.5727328.3729153-.0468057.9364252.094451,1.1435512.3463308.2089476.2541132.2021206.7867404.0711815,1.1238289-.1402688.3611328-.5207262.6495227-.8218981.9473055-3.0697749,3.0355386-6.5327759,5.6456201-10.1436218,8.0945742-2.6185447,1.7759334-5.349216,3.365824-8.4274693,4.3766855-.0777361.0255174-.141052.0890101-.1847211.117545.1440995,1.1043304.9072784,1.5780346,1.9398778,1.655767,1.3179551.0992028,2.6634566.2449105,3.9644038.1058,3.5035204-.3746043,7.0110077-.7845783,10.4741448-1.3916828,1.8503434-.3243773,3.6198011-1.0656741,5.4082076-1.6642412.3857351-.1290999.6959303-.4535326,1.0409246-.687989-.0385786-.0979674-.0771402-.1959268-.1157188-.2938941-.4277527,0-.8563397.0157841-1.283122-.0033659-.8222897-.0368823-1.3966957-.435729-1.5708272-1.0639951-.1714416-.6185882.160784-1.1922951.8646138-1.6143784,1.2878549-.7723185,2.6017921-1.5159675,3.823539-2.3720295,1.0708204-.7503016,2.0730472-1.5984597,3.0214239-2.4816152.5069019-.4720727.8360289-1.1093912,1.2453946-1.6721292Zm-38.3936718,57.681529c-1.3363591-.4137279-2.6510284-.8315741-3.9743634-1.2241405-.4186273-.1241817-.8589786-.1873972-1.2917877-.2673075-2.5642691-.4735379-4.7889919.0988702-6.6263622,1.8655613-.5493111.5281842-1.1063686,1.0494307-1.6607191,1.573069-.5541122.5233848-1.0871304,1.0683114-1.6692486,1.5632326-.832675.7079309-1.7770508.8361359-2.7498073.2636169-1.9414441-1.142662-3.9269488-2.2320717-5.7825189-3.4865289-2.2128734-1.4960256-4.3685599-1.5040562-6.5928911-.1510772-.5597815.3404702-1.0945533.7397525-1.5613102,1.1842724-.8110873.7724294-1.5455451,1.6139349-2.3389434,2.40317-1.0787881,1.0730949-2.1668208,2.1390937-3.2819743,3.1792742-.6692011.6242508-1.4632633.7087229-2.2968236.2638545-.8259331-.4407976-1.649057-.8861887-2.4696272-1.3355872-1.8414734-1.0085173-3.6457131-2.0814855-5.5288466-3.0172043-2.8215166-1.4020023-5.7634679-1.6365854-8.7147319-.3495304-2.6885174,1.172472-5.4182353,2.2937349-7.9795931,3.6780761-1.9218824,1.0387074-3.3844988,1.0205078-5.1559739-.3001111-2.2767341-1.6973141-4.7882938-3.1238042-7.2162268-4.6426704-.8385826-.5246045-1.7680106-.9614422-2.8103227-.7679468-2.4769905.4597892-4.9695503.8862996-7.3987687,1.5165694-1.8247548.4734429-3.5619672,1.23998-5.3359024,1.8814166-.9330543.3373973-1.6758203.1011353-2.5219279-.4027511-3.4988641-2.0836872-7.0503864-4.0919466-10.6097658-6.0858633-1.0617461-.5947735-2.2948913-.6341901-3.4564208-.3385219-1.7410345.4431656-3.4584808.979127-5.1568507,1.5505056-1.1977332.4029412-2.3376665.9522236-3.5216861,1.3937341-.7460603.2782051-1.437479.1075503-2.0986528-.3265473-.6413567-.4210616-1.3079104-.8312732-2.0184821-1.1345839-2.2571639-.9635331-4.5554772-1.8440433-6.8069207-2.8185769-1.2746521-.5517296-2.6049928-.7941612-3.9339546-.5098262-2.9371843.6284008-5.8746155,1.2895022-8.7508036,2.1204506-2.3561471.6807028-2.5631497.7631079-3.7569288-1.2582904-1.357053-2.2978452-3.5627205-3.7083454-5.820408-5.0875705-1.0123226-.6184219-2.0409977-.6667086-3.0509197.0033184-1.964879,1.3035993-3.9254634,2.6128772-5.8760328,3.934882-.1155358.0783105-.2034613.3052035-.1731909.4368774.1339441.5826483.3158177,1.1557692.4711409,1.7000939,1.8183279-.6893987,3.5476577-1.3635281,5.2951063-1.9941939.4206874-.1518375.910726-.255618,1.3530776-.2185218,3.5143185.2947653,6.7494869,1.2090929,9.2143854,3.751215.2170217.2238122.4904174.3998525.7122572.6201801.7230936.7182108,1.5064813.8375456,2.5014937.4370437,2.4759264-.9966059,5.0379056-1.7586367,7.6912664-2.249408,1.9300544-.3569908,3.8789383-.507474,5.6712095.3335642,2.3179005,1.0877069,4.6059648,2.2549043,6.7870014,3.5611409,1.2394529.7423185,2.3602076.9420864,3.7155411.4835801,1.1542684-.3904914,2.3297329-.7548634,3.5264871-1.0025458,2.3320398-.4826773,4.6674335-1.0255447,7.0980224-.6901273,2.4654561.3402326,4.8996032.7047789,7.0239637,2.0977526,1.6110232,1.0563842,3.3057667,2.0102077,5.0149985,2.9260638,1.0230994.5481895,2.1959335.7346047,3.3674993.4774978,2.2139545-.485861,4.4141953-1.0258932,6.6198501-1.5444945,1.4351636-.3374449,2.8875991-.5356763,4.3400175-.1584109,2.6682577.693121,5.2686623,1.5420077,7.6310661,2.9409688.8593105.50886,1.7688703.9655763,2.7070236,1.3318491.949543.3707237,2.0066923.5649952,2.9807598.1421913,4.2646223-1.8511157,8.8537238-2.7439095,13.3525419-3.865505,3.1757214-.7917061,6.0366678.0475819,8.3493757,2.352341.7351899.7326406,1.6477971,1.3175144,2.5151009,1.9257197.3220446.2258397.7374372.4329729,1.1264921.462276,1.4220118.1071701,2.8362602.0909504,4.0511971-.7896311.512469-.3714364,1.0577793-.7034167,1.5837492-1.0590136,1.4096857-.9530948,2.7914675-1.9440619,4.2306575-2.8567501,2.8365326-1.798877,5.9002296-2.0106987,9.0263572-.8164157,1.9722933.7534853,3.846693,1.7269656,5.7824508,2.5669505.2932383.1272546.737335.1840234,1.0169534.070866,1.8942849-.7666005,3.8006404-1.5205768,5.6310646-2.4073358,2.5394296-1.2302704,5.2120627-2.0758783,8.00542-2.5666971.9070231-.1593771,1.3085914-.6074926,1.5961604-1.269489Zm-125.2801337,34.46729c-.3289653-1.725445-.5738611-3.306703-.9387151-4.8636157-.831032-3.5461805-1.675667-7.0785807-1.8118839-10.734529-.1366085-3.6665766-.0262185-7.3031849.8241625-10.8953158.2648662-1.1188869.6373218-2.2111793,1.9048063-3.0293374-5.9022385-.3773129-11.6042292-.7418275-17.2063301-1.0999587.569873,1.8504346,1.2517151,3.6455101,1.6647072,5.4926025.8642648,3.8653783,1.7097851,7.7415432,2.3191519,11.6462351.3380396,2.1660209.1742422,4.398837.2655131,6.6004968.0110407.2662304.1199666.620972.3232704.7742034,2.3560365,1.7758147,4.8595349,3.3296386,7.7251887,4.3259753,1.6043579.5578199,3.1934784,1.1535913,4.930129,1.7832434Zm54.3258307-19.2392513c-.0471422-.0058131-.0942929-.011642-.1414351-.017471-.0918753.1605492-.199286.3151428-.2733276.4825189-1.3882427,3.1381707-2.3096689,6.3723604-2.5820857,9.7773-.3189886,3.9871207-.0285935,7.9475835.3177373,11.9141287.0535861.6137651-.0124963,1.2532535-.1411882,1.8591463-.1132928.5334429-.5540185.8569015-1.1750048.8169701-.6182878-.0397255-.9464444-.4196519-1.073953-.952683-.0550673-.2301956-.0556887-.4719064-.0775829-.7086754-.1055038-1.1410306-.181597-2.285134-.3196952-3.4227274-.4769379-3.9286413-.5264466-7.8593575.1680536-11.7622437.5862298-3.2944432,1.5691502-6.4901113,3.2954921-9.4568826.4906856-.8432478.8518621-1.7517544,1.3077146-2.7040414-3.9741931-.42971-7.840218-.8477304-11.6521545-1.2599061.0677765.5813416.1735697,1.0607718.170667,1.5396318-.0111343,1.8354504-.0619624,3.670679-.0891088,5.5060978-.0504876,3.4138098.1134204,6.8439976-.193174,10.2375486-.4035262,4.4665509-1.0307181,8.9296488-2.6057334,13.2648744,4.1527256.7267641,8.3600078.6034694,12.3880595.4219961.6152063-2.0870768,1.2295018-4.0526963,1.7670061-6.0363411.3566904-1.3163581.70154-2.6471301.8810685-3.9911915.5403219-4.0450616.4573932-8.1132331.3358689-12.1770645-.0332583-1.1121235-.2011247-2.2207464-.3072244-3.330985Zm-53.16963-10.0901303c1.2231345,1.2201331,1.6551349,2.608846,1.7535904,4.0313605.332864,4.8089377.7256048,9.6223896.7806381,14.4372355.0423922,3.7083295-.3776822,7.421997-.6223823,11.131562-.0337435.5114418.0302279.7702277.6479539.8859987,3.5782431.6705339,7.147514,1.3825197,10.6089401,2.0588191-.2542426-.4360299-.5685664-.832873-.7300143-1.2777255-.5567-1.5339137-1.0233888-3.0963702-1.5909848-4.6265458-1.3631224-3.6748132-2.0239131-7.4599168-1.9630828-11.3341969.0318537-2.0284231.1768385-4.0727491.5102643-6.0753855.4617091-2.7731334,1.3023687-5.4480618,3.646028-7.4542146.0178677-.015301-.0059332-.072735-.0120282-.1257182-4.296408-.5444989-8.59388-1.0891245-13.0289225-1.6511894Zm74.9564086,32.926993c-.0556887-.3299528-.0904708-.5208188-.1198729-.7123977-.6022077-3.9244755-.4945928-7.8667228-.0309344-11.7783525.5665404-4.7795871,1.9742853-9.3321782,5.1869679-13.243095.0370293-.0450792.0448268-.1109241.0945738-.2411407-4.871546-.0970962-9.6958817-.1932578-14.3316828-.2856497.1917354.566104.4733627,1.1285807.5652635,1.7167333.3508168,2.2452976.5735377,4.5090483.9660657,6.7473766,1.0314587,5.8818584.8791702,11.7154379-.6406672,17.5109235-.1311094.4999899-.2744768.997192-.4388871,1.592504,2.9518939-.4409402,5.8265114-.8703334,8.7491734-1.3069019Zm5.2771152,37.5573878c.5340397.8049637,1.0715695,1.50941,1.4932443,2.2694846,1.6442559,2.9638886,3.0696898,6.0222439,4.0305629,9.2367927.4948652,1.6555611.7292822,3.3799607,1.0489604,5.0785261.1000729.5317639-.1109007,1.0016904-.6720613,1.2350064-.5919076.2460984-1.1142341.0560877-1.4845275-.3949739-.2929149-.3568166-.5255783-.7632266-.7390205-1.1685755-.984674-1.8701389-1.7309472-3.8186834-2.2451357-5.8486588-.7079159-2.7948018-1.8543613-5.4345824-3.3659415-7.9361316-.652125-1.079209-.6586115-1.0651435-1.8606094-.5941557-.8890447.3483583-1.7899558.6704705-2.7048444,1.0114317,2.2715415,5.8265785,4.1859499,11.6574495,4.7430584,17.8446778,4.6154902-.8693197,9.085485-1.8040565,13.2110472-3.6741479-.6513929-2.2513642-1.2972527-4.4147716-1.9018099-6.588142-1.0839807-3.896788-2.6073253-7.5754502-5.7959005-10.4628022-.3996275-.3618535-.5272638-.8149902-.2368686-1.3009779.2883181-.4825347.8053839-.6853755,1.3039946-.5100796.6332783.2226243,1.3373636.5077988,1.7592257.9664.9754465,1.0603916,1.9130975,2.1801656,2.6634737,3.3850769,2.3539594,3.7798608,3.8734904,7.8444683,4.4941191,12.1881047.0425795.2979253.169705.5853965.3085097,1.0475141.6391179-.6417218,1.1751836-1.1199007,1.6221405-1.6617227.1541612-.1868903.1869003-.5629994.1030693-.7999901-.4061821-1.1482059-.9343992-2.2610421-1.3017984-3.41872-.8026088-2.5291733-1.9769241-4.8966252-3.466423-7.1275881-1.5110695-2.2632596-3.0960104-4.4802679-5.4471437-6.098527-.1938635-.133432-.3984187-.2534796-.6982116-.4431577-.115838,1.1480791-.992863,1.5576254-1.8088535,2.0214854-1.0256191.5829889-2.0485142,1.1701277-3.0522562,1.7438505Zm-49.3487553,23.847154c.0496704-.2371966.0997834-.3813203.1074958-.5273922.1568512-2.9682919.7768415-5.8725131,1.399309-8.7761957.2995972-1.3975197.5690175-2.8024365.9342034-4.1852413.1836911-.6955603.7595612-1.0108773,1.3224582-.9127358.6144232.1071384.9578256.5920016.8785998,1.3461997-.0744758.7088813-.1869854,1.4162737-.3256879,2.116966-.5338099,2.6965652-1.0747021,5.3919899-1.6348922,8.0838983-.199984.9609829-.4622964,1.9107197-.7173732,2.9522148h9.0064124c.1794604-5.0228027.3594825-10.0611598.5360487-15.0029593-4.8815226-.1033845-9.6053003-.2034268-14.2557598-.3019327-1.5659921,4.9867362-3.5770769,9.8817457-6.1600053,14.6695377,3.0236627.1824553,5.9590509.3596043,8.9091912.5376404Zm48.6740552-62.5297962c.4225431-.0609979.6252766-.0728459.8175057-.1209505,1.009207-.2525609,2.0036023-.5732318,3.0267698-.755592.9421456-.1679305,1.3551206-.7515213,1.6255455-1.4823403.1177278-.3181207.0967019-.6798.1466532-1.0206662.770704-5.2597142,2.2672171-10.3112656,4.7377807-15.1218823,1.1498164-2.2389302,2.6958722-4.1763236,4.4241464-6.0207233.3622576-.3865632.8307171-.5589287,1.379875-.3920753.570337.1732842.8786084.5715053.907687,1.1135015.0229327.4278251-.0005448.865439-.0722711,1.2886073-.2171366,1.2811627-.4393638,2.5626263-.7102653,3.8346655-1.1477053,5.3891864-2.8908423,10.5581402-6.5082769,15.0231705-.1005155.1240709-.1638995.274166-.2956048.4993088.1972685-.0516526.2849982-.0634531.3622576-.0964468,2.5031664-1.0698003,4.8311287-2.4101236,6.9955149-3.9900193.3249048-.2371491.5170147-.6317746.8058266-.9983324-1.0944171-.4818853-1.018043-1.2941986-.9354207-2.1079374.5654167-5.5689806,2.605095-10.5875067,6.4358526-14.9397755.3771885-.4285379.7238342-.880344,1.2017596-1.4644575-7.3088598,1.1545733-14.4739095,1.9175624-21.5381032,1.9083121.8462098,4.2343121,1.3311495,8.4163221,1.1607464,12.6625771-.1735016,4.3231875-1.5626892,8.3121456-3.967979,12.1810561Zm43.3686786-111.3264031c.1206901-.01165.2413632-.023296.3620533-.0349459-.01837-.205779-.0360078-.4116133-.0552801-.617321-.0348842-.3722245-.2202352-.8032095-.0820774-1.1070667.9459081-2.0804361,1.2076673-4.2916075,1.5921765-6.4885709.901541-5.1513443-.0249416-9.8656409-3.4649418-14.1116346-2.0607381-2.5435714-4.6394614-4.2631083-7.9542939-5.0204723-1.3895111-.3174693-2.7979881-.4369962-4.2077929-.0987692-.6947726.1666871-1.2010616.4488243-1.1967883,1.2693385.00412.7988537-.6902439,1.3910809-1.5009056,1.2940442-.6870262-.0822348-1.1049896.1931945-1.3643822.6656355-.3550731.6466875-.6737297,1.3282773-.868853,2.0284667-.1988007.7133005.0969573,1.0940387.881077,1.1788078.8021151.0867173,1.6229236.0915365,2.4308613.0510032,2.6022859-.1305611,4.8836508.6180576,6.761149,2.2583573,1.4524184,1.2689227,2.8035212,2.6450828,4.1238257,4.0358628,1.0566897,1.1130699,1.7630563,2.4435449,2.1917624,3.8736148.3862458,1.2884607.7292992,2.5918859,1.0053253,3.9043751.4837309,2.3001063.9016091,4.6122031,1.3470848,6.9192748ZM19.1899934,99.915348c.8830476,3.6685961,1.8840699,7.1764451,3.4057119,10.6133013.5037821-.3899687.9222774-.7687388,1.3968404-1.0714159,1.6815534-1.0724693,3.3593529-2.1527712,5.0839199-3.1631337,1.1110547-.6509245,2.336262-.5969039,3.4613666-.021415,1.0728251.5487676,2.1125537,1.1697001,3.0994878,1.8442017,1.9307268,1.3195497,3.6186646,2.8486482,4.4831976,5.0067415.0612559.1529067.1864151.2836539.2269303.3435272,2.8260069-.7694753,5.5832797-1.5236418,8.3428168-2.2705696,2.4785823-.6708902,4.8771217-.6333348,7.2325708.516661,1.4556872.7107028,3.0200364,1.2260095,4.5121316,1.8756986,1.3202875.5748949,2.6288704,1.180067,3.8979467,1.8455956.3960182.2076797.6811526.2851349,1.0761833.0958053,2.2457997-1.0763816,4.4577027-2.2266862,6.9551232-2.8182601-18.2122981-2.3435263-36.0476928-5.9709239-53.1742267-12.7967377Zm147.0675933-1.2870154c.2424528-.031188.3546815-.0406759.464748-.0604832,3.9657828-.7138549,7.9541577-1.3351912,11.8915088-2.165815,5.5567846-1.1722423,11.0000806-2.7076133,16.1431411-5.0490409,1.7617964-.802081,3.4135434-1.7589773,4.8609394-2.999472,3.206111-2.747806,3.2862476-5.3582597.2493479-8.2567549-1.6552371-1.5797849-3.6275985-2.7560584-5.6879791-3.8153175-.0669763-.0344272-.1634739-.0191024-.2475433-.0270935-.0852441.6375798-.1300539,1.2421421-.2550853,1.8319736-.125372.5915185-.3043216,1.1763606-.5051143,1.7504081-2.2770235,6.5094672-6.9804648,11.2421614-12.940333,14.9622201-3.6622443,2.2859418-7.6542967,2.8915891-11.853509,1.1205659-.6744618.8617246-1.35335,1.7291435-2.1201213,2.7088091Zm-45.0746841,58.6531164c-.4868464-1.5647532-1.14413-3.0424367-1.3901751-4.5771899-1.112106-6.9367537-.5077361-13.7431483,2.1465781-20.3461161.4390914-1.0922924.9500111-2.1595901,1.4316309-3.2472257-2.9393295-.1315154-6.0303686-.2698102-9.1302351-.4085009.2320931,1.0551012.4908558,2.0186501.6506183,2.9962012.5542654,3.3915552.3576438,6.8063946.4080208,10.2195074.0779063,5.279577-1.1688333,10.2860016-2.9943798,15.2164759-.2722465.7352858-.1101602.9326143.7509465.8672764,2.0141067-.1528037,4.0284688-.3039126,6.0410603-.4728885.7305931-.0613623,1.4564533-.171526,2.0859351-.2475398Zm3.7287099,38.04629c1.6581824-.4865105,3.3033407-.934626,4.9226891-1.4525778,2.3110395-.7391981,2.3150744-.7620387,2.1017002-3.0452244-.1930463-2.0655509-.4512302-4.1264133-.6054595-6.1942135-.0469038-.6287968.0702791-1.2975407.2653344-1.9054927.2695736-.8403492.8971826-.9147157,1.4407223-.1840076.3376054.4538652.6265024.9732902.7844261,1.5027416.7179947,2.4068765,1.2350775,4.8390169.6918102,7.353206-.034748.1607868-.0259972.3297152-.044946.6022814,2.0056793-.9384591,3.9943677-1.7163373,5.688592-2.9906098.1616863-.1215999.3225554-.2566634.4386657-.4142506.0949483-.1288227.2068876-.3239813.1666746-.4496994-.336618-1.0524877-.5114646-2.2070452-1.110744-3.1165814-.9892878-1.5014744-2.1613047-2.9267291-3.4442394-4.2231452-.8951396-.904515-2.1010703-1.544051-3.1746999-2.2938932-.4040369-.2821491-.730525-.2045831-1.0645893.1629727-.2948898.3244406-.6769985.5834007-1.0357319.8538761-1.4157636,1.0675828-3.1132737,1.5999644-4.7947463,2.1563746-.9987196.3305072-2.0091014.6305233-2.9657522.9291296.579922,4.2350724,1.1510762,8.4061531,1.7402939,12.7091136Zm-66.6226703,17.5288697c1.6053283-6.1997098,4.5314209-11.7344929,8.3508143-16.789529-1.4615608-1.1977202-2.8986398-2.3753875-4.4957195-3.6841585-.092667.1260825-.230663.3888916-.4396277.5868379-2.9372184,2.7827004-5.3233125,5.9365839-7.3115327,9.3596281-1.258589,2.1668604-2.513092,4.3357958-3.7625981,6.507218-.2368686.4116371-.4416451.8392404-.6820294,1.2993148,2.7162596,1.2741299,5.5322346,2.0543999,8.340693,2.7206888Zm84.4373414-100.9981615c6.0527905-.3717532,11.9665209-.9278229,17.7049961-1.7782935.1709479-2.5964437,1.8770726-4.7774092,1.6650775-7.2692804-6.1733444.5671177-12.3327453,1.1329524-18.5547812,1.7045369,1.2704894,2.5831226.4110853,4.9395186-.8152924,7.3430371Zm-1.6874654-7.183755c-5.8895549.1841105-11.6293751.3635404-17.1825504.5371335-.3306933,2.5185687-.651427,4.9612662-.9740504,7.4182985-.0512793-.0136933-.0067249.0096225.0369102.0082524,5.3852408-.1691897,10.7705328-.3373577,16.1551267-.5229572.1909011-.0065813.4941331-.1512594.5428927-.2921359.3458796-.9993145.8255585-2.0022404.9030222-3.0275317.1033587-1.3681612-.1569874-2.7605489.5186491-4.1210596Zm-72.5452367,110.23063c1.6420767-5.4955328,3.5266063-10.7518099,6.9703265-15.3652564-2.1029516-.7503174-4.2204425-1.5058144-6.5330823-2.3309419-2.9535283,5.31303-5.9307809,10.6687316-8.9430539,16.0874112,2.7748426.5248262,5.6100473,1.0610886,8.5058098,1.6087871Zm32.1754665-102.632957c-.2830233-2.542431-.5585812-5.0178212-.8379612-7.527504.0046904.0007286-.0857378-.0210349-.1772982-.0264916-5.1462611-.3068825-10.292982-.6074055-15.4383323-.9269121-.4452374-.027632-.5634504.1272625-.5987346.4945411-.1465766,1.525598-.2999206,3.0508475-.4773465,4.5735547-.0765018.6565872-.2175963,1.3066564-.3395548,2.0193471,6.0237969.612886,11.9485255,1.2025275,17.8692276,1.3934648Zm2.8067985-7.3846237c.0758378,2.5254035.149905,4.9920503.2273516,7.5712923,5.2193579.0908237,10.3824908.1806654,15.4761192.2693033.3930388-2.5895852.7644729-5.036694,1.140691-7.5154263-5.6725204-.1095064-11.320976-.2185535-16.8441618-.3251692Zm-17.8877593,93.0280621c2.9492635.1984215,5.6986963.3924396,8.4506318.5483321.1848062.0104541.4794661-.2296253.5690771-.4169433.7643196-1.5975885,1.5061152-3.204855,2.2294642-4.8189799,1.2404403-2.7679855,2.4629959-5.5429088,3.6914677-8.3155194.0487425-.1100371.0812517-.2262832.1240185-.3472654-2.7844021-.3422759-5.5128601-.6776775-8.2219352-1.0106873-1.6612213,4.9705007-3.8784191,9.7033295-6.8427242,14.3610633Zm-6.8749695-18.3047204c-3.7150048,4.2227967-7.9238448,8.1103186-10.6260843,13.1138447,1.9906888,1.2405027,4.2142284,2.1289089,6.5108221,2.8254037,2.6198556-5.1262505,6.279708-9.5140633,10.2998856-13.7105823-2.095035-.7549584-4.1199185-1.484637-6.1846234-2.2286662Zm-.0986002,36.5441979c.9584215-5.3560026,3.7412999-9.9896761,5.6052462-14.9337407-2.1475485-.3775663-4.2830093-.7529943-6.3774484-1.1211995-2.3866474,5.0435842-4.7589938,10.0569148-7.1531578,15.1163702,2.5345009.3001587,5.1763102.6130048,7.92536.93857ZM212.9637581,31.8388574c-.0504961-.081221-.1009922-.162446-.1514883-.243671-4.639206-.2279859-9.0496474.7132728-13.294742,2.4095771-4.2412981,1.6947679-7.9951369,4.1124271-11.6880773,6.8711544.2496033.0154594.3190993.0298535.3857861.0224565,4.7015005-.5216108,9.4063889-1.0186149,14.1027137-1.5779792,2.8472413-.3391278,5.6027691-1.0169518,8.151937-2.2962256.306637-.1538848.5899327-.3480256,1.0011542-.5933757-.8791872-.1598246-1.4649658-.4486738-1.5573945-1.1914794-.0875765-.70388.4397894-1.0397963.9646356-1.4444007.7564711-.5831869,1.3960317-1.2976318,2.0854754-1.9560564Zm-48.9781895,77.6738617c.0352417.0047281.1067977.0325423.1690581.0201003,4.7627563-.9524375,9.5259043-1.9032356,14.2834169-2.8779434.228935-.0469008.4791682-.2698022.5985814-.4724212,1.2607512-2.1394185,1.8015328-4.5034094,2.4716532-6.8717405-.1365574,0-.2276411-.014113-.3120339.0020116-4.9554962.9463868-9.9094942,1.8996796-14.8673398,2.835248-.3791294.0715312-.3748221.2558476-.4157842.5371018-.1548422,1.0633299-.2645342,2.1439802-.5647868,3.1743481-.3612531,1.2396711-.899515,2.4346906-1.3627649,3.6532952Zm-38.8942574,88.9429265c.4001893.7480524.9159101,1.440128,1.1557921,2.2068868,1.1232914,3.5905153,1.7748376,7.2415375,1.3304514,11.0025017-.141052,1.1937603-.2573326,2.3900707-.4002404,3.72862,2.7197582-.382334,5.3188775-.7477039,7.7833971-1.0941615-.7602847-3.0005887-1.4731719-5.8986958-2.2322649-8.7863013-.7580715-2.8838198-1.5624339-5.7571064-2.3558322-8.669279-1.9075133.5821336-3.6229337,1.1056293-5.2813033,1.6117332ZM42.7220457,57.3674147c-.0723136-.1130703-.0790811-.1391738-.0956889-.1468322-.0611197-.0282102-.1233758-.0580201-.1889433-.0736141-5.3895141-1.2822477-9.5322546-4.1698928-12.243462-8.6526633-2.8789631-4.7601441-5.5080165-9.6487505-7.5265838-14.796725-.0290872-.0741923-.0850185-.1392728-.1275682-.2072481-.0469166.0226743-.0759995.0285784-.0780042.0389929-.0163057.0846226-.0315728.1697639-.0397448.2553566-.4964741,5.2009101.320274,10.2251106,2.451985,15.0469258.8367014,1.8925835.4722135,1.9359362,2.9538986,1.6874619.1845636-.0184768.3708723-.024472.5565893-.0298179,1.0751405-.03099,1.9635042.324013,2.5758078,1.1584857.1506073.2052483.2930723.5636409.1976388.7354362-.0949143.1708528-.4915879.2642663-.7599612.2720594-1.0334676.0300396-2.0685441.0121885-3.2225273.0121885,1.4529164,1.7024381,2.988587,3.1757024,5.2433759,3.7703808,1.473904.3887253,2.9660885.7209668,4.4588348,1.0434354,1.9398054.41905,3.8712431.2513492,5.8443536-.1138227Zm81.6042819,121.6798613c.0525732.0584636.1051633.1169272.1577535.175375,1.281062-.6224768,2.5906578-1.2004129,3.8302639-1.8876416.5574491-.3090288.9165911-.7965371.9822224-1.526089.5036501-5.5991865,1.5676776-11.0917732,3.8411088-16.3343491.0380508-.0877192.0358887-.1905493.0626349-.3449053-2.6851805.5725665-5.2940721,1.1288658-7.7561742,1.6538504-.1475726,6.1758238-.5575512,12.22311-1.1178094,18.2637594Zm.8954971,36.5107923c-.2045041-3.9234934-.3402784-7.7428579-.6304181-11.5520218-.1332035-1.7486974-.5103069-3.4943378-1.6010465-4.9947826-1.5481159.3295726-3.0738779.6543934-4.636482.9870547,1.2551159,5.4547936.9106153,10.829566-.2290541,16.3038105,2.4283416-.2545884,4.6756395-.4902011,7.0970009-.7440608Zm-27.4393798-53.3505959c-1.2114127,6.1209241-2.4058175,12.1559346-3.6147106,18.2641554,1.9542894.2141343,3.8771337.4248156,5.8342408.6392508.3656371-6.3222759,1.6052262-12.4117744,2.5933563-18.5668642-1.6405275-.1147097-3.2535596-.2275028-4.8128864-.336542Zm-49.5910038-62.8608339c.1036566.7513787.2384009,1.4688608.2946514,2.1916334.1058954,1.360677.1524247,2.7326159,1.0543573,3.8967484.1792305.2313598.4559121.4980971.7306953.5495438,4.0491116.7581501,8.1051779,1.4842252,12.1607674,2.2122564.3513531.063065.7109633.0862936.9455421.1138069.1176512-2.2117416.2314036-4.3502968.3436323-6.4602538-5.1324028-.8274638-10.2903005-1.6590379-15.5296458-2.503735Zm69.6152369,62.4078874c0,.4952222.0341691.9278625-.0052096,1.3546422-.4707749,5.1023804-.9500622,10.2041272-1.4346273,15.3053989-.0551609.5807397-.1729398,1.156284-.2298032,1.7369445-.0413537.4223921.0874403.7364579.6614036.6396151,1.3241692-.2234479,2.6525266-.4266054,3.9727801-.6682688.4965507-.0908713,1.1198183-.8669913,1.0960855-1.3147266-.2559536-4.8290539.1576514-9.6323685.6325973-14.4333865.1033417-1.0447422.216711-2.0886291.3309997-3.1860693-1.6880783.1901216-3.3142877.3732738-5.0242261.5658505ZM223.2535223,14.8998886c-.0503088-.0852601-.1006177-.1705222-.1509265-.2557823-.503599.0249888-1.0074364.0467444-1.510763.0757762-.6478347.0373674-1.2972697.1300344-1.9423294.1075087-.6600416-.0230485-1.219772-.3130896-1.4939594-.910346-.2716506-.5917402-.1317393-1.1473901.3058879-1.6334115.2382817-.2646128.4837649-.5274991.7556028-.7613833,1.0549531-.9077047,2.1735287-1.7568607,3.1708693-2.7156538,1.2083483-1.1616259,2.3457364-2.3906984,3.4559356-3.6352956.4147116-.464939.6663579-1.0557823.9923693-1.5892173l-.1327949-.121291c-.5841442.2423207-1.1786397.4653033-1.7507472.7301656-3.223851,1.4924795-6.3105487,3.1804008-8.5582552,5.881797-2.0187545,2.4262343-3.9789601,4.8961857-5.9042645,7.3874728-.9557486,1.236721-1.7750759,2.5646934-2.7356255,3.9674956.3436663-.0801954.5438631-.1132644.7341684-.1733713,2.7248828-.8605485,5.4873567-1.6334808,8.1586618-2.6199812,1.7987747-.6642852,3.4905814-1.5948522,5.1828138-2.484395.5514563-.2898907.9531608-.8263807,1.4233568-1.2500876ZM79.2587769,110.4758087c.4823348-2.3627159.9432607-4.6205664,1.4165383-6.9389396-4.4855641-.4332264-9.0849231-.8774453-13.736932-1.3267488,0,2.067119.017008,4.0531635-.0116536,6.0386378-.0073974.5126219.226943.6682846.7168455.7307161,2.3713334.3021544,4.7389384.6296125,7.109378.9379364,1.5160067.197186,3.0346694.3766872,4.5058238.5583981Zm87.0433813,16.665672c-.6253787,5.4303691-2.1886639,10.5201729-4.5996059,15.4118245.2593246-.0978406.4468037-.2202008.624204-.354108,2.120632-1.6008198,3.9924609-3.4351456,5.6657615-5.4315729,3.3409148-3.986107,6.6286946-8.0107832,9.9361553-12.0211404.0774637-.0939441.1281811-.2070065.2035848-.3312516-4.0241274.9273556-8.0023214,1.8441304-11.8300997,2.7262484Zm-130.5055312-5.971019c-3.2422422-.4326245-6.5393305-.8725826-9.9137334-1.3228523.0578552.2427246.0631542.3737965.1188599.4824872,1.0076535,1.9663639,1.9810527,3.9492326,3.0470253,5.8879883.8025961,1.4597373,1.7122069,2.8693901,2.5980722,4.2884515,1.2817557,2.0532278,2.4978206,4.1487312,3.9074892,6.1239019,1.0814313,1.5152389,2.4186203,2.8724946,3.6420655,4.3000143-3.1058168-6.3330467-5.0702191-12.770064-3.3997787-19.7599909Zm-5.2507605-25.8088848c-.2116887,1.6288715-.3743751,3.1768507-.6320525,4.7110258-.0969615.5772788-.0105214.8536861.6330144,1.0226382,4.6713194,1.2263738,9.3336837,2.4822725,14.0002531,3.7243591.1898541.0505439.3933878.056555.6819443.0957102-.5565893-1.8406774-.7213826-3.6426273-.3541452-5.446066.1454615-.7143142-.1530631-.8464712-.7947603-.9908483-4.3126966-.9703361-8.6147569-1.9815778-12.9203371-2.9792846-.1974685-.0457445-.3956734-.0887092-.6139167-.1375344Zm71.801113,89.3218234c-.7848688,4.8855376-3.0875745,9.2922151-5.149598,13.9595159,3.1648509-.1109399,6.209199-.2176665,9.338638-.3273709-.097119-4.6053367-.4822071-9.088329.2784436-13.632145h-4.4674835Zm-11.6152699-1.5005399c-.7223616-.1571437-1.4196624-.3081418-2.1165971-.4606445-.6095115-.133337-1.3254546-.5136277-1.7985278-.3352432-.4962783.1871438-.7536705.9131476-1.1255558,1.3969495-2.1349671,2.7774417-4.2871719,5.5435265-6.4034796,8.3332122-.961503,1.2674457-1.8539186,2.5802557-2.8942303,4.0355579,2.4945007.503332,4.8088174.9703124,7.0520975,1.422958,1.8642017-5.1317468,4.7286808-9.6423316,7.2862931-14.3927898Zm-42.779844,25.9113902c.4731839-1.1777941.8522962-2.3127739,1.3739247-3.3878963,2.7794478-5.7286112,6.3005125-10.9696506,11.5894771-15.02816.1187578-.0911405.2540809-.2914469.2231805-.4027511-.2010821-.7242456-.4460631-1.4379421-.6956579-2.2140938-.6879456.3597627-1.3453143.7194146-2.0178182,1.0526461-5.111411,2.5329114-8.3658048,6.4506392-10.1079374,11.5523544-.4897066,1.4340773-1.1976395,2.8092158-1.8850914,4.1767354-.3089354.6145095-.813607,1.1438658-1.3108216,1.8229847.5976791.9698689,1.682809,1.713407,2.8307441,2.4281806Zm60.8325498-27.7115185c1.4634762-.0750951,2.8733491-.1626242,4.2847629-.2119168.5181043-.0181204.7144109-.1709558.7245578-.6854388.0307046-1.5561049.1014774-3.1126057.2046063-4.6661921.2893141-4.3586363.6034165-8.7158471.9045204-13.0738341.0158843-.2296887.00206-.4611514.00206-.7636702-1.3786407.1107498-2.6788727.2151955-3.9398878.316505-.2054405,6.4241556-.8899129,12.7125191-2.1806196,19.0845468Zm2.4378756,35.4065569c1.4715034-.1027984,2.8762434-.1876823,4.275663-.3209084.1283343-.0121964.3094972-.3291291.3197633-.5116953.1458701-2.5881913.2654876-5.1776656.3933963-7.766728.1188003-2.4049916-.0606089-4.7919102-.5007899-7.1627676-.0487255-.2624448-.0128539-.5992719-.4941331-.5324767-1.6714959.2320329-3.3440814.4573024-5.0570673.6907134,1.5101331,5.1291808,1.7004299,10.291989,1.0631677,15.6038627Zm-20.6984906-129.4522915c-.0593321.2942109-.1164168.5888258-.1783452.8825536-.9864191,4.6781271-2.1215514,9.2922468-6.4775979,12.7262202,5.2810394.3047442,10.3738336.5986225,15.4666278.8925087.016029-.0655676.032058-.1311353.0480786-.1967029-2.4410848-1.7300068-4.3426564-3.8914263-5.8641537-6.3447521-1.5328445-2.4716125-2.7047763-5.0670187-2.9946096-7.9598275Zm25.6104454,109.7938318c2.1854632-.4361408,4.2980594-.857741,6.3688763-1.2710096-.551286-4.3117514-1.0871644-8.5029008-1.627912-12.7322551-1.6679207.3158239-3.4247969.6484853-5.0626174.958607.107666,4.3664769.2133401,8.6519189.321653,13.0446577Zm-24.0451768-17.0025387c.8702065-6.1324711,1.7252523-12.1580888,2.591475-18.2625239-1.0510629-.0648786-2.0337791-.1255598-2.9301615-.1808872-1.7323773,5.7762722-2.6485427,11.6579722-5.1188254,17.2569053,1.8618182.4047786,3.6378561.7908983,5.4575119,1.1865058Zm16.2654145-17.6377979c-.7613743,0-1.5455791.0201954-2.3278176-.0075238-.4745118-.0168216-.6285369.1639231-.7012846.5848421-.460679,2.6652663-.9261336,5.3302792-1.4394113,7.9871031-.6492478,3.3606682-1.3455952,6.7134642-2.0452454,10.186878h5.3004139c-.4083528-6.2931787.7877971-12.5057185,1.2133451-18.7512995Zm.2493735,54.4519327c-.002392-5.2427026.8184336-10.4206058-1.120644-15.4800136-1.2000401.0928037-2.4332278.1881575-3.6762389.2842716.8094954,5.1749887.2081304,10.2169889-.8150115,15.195742h5.6118945Zm4.8587687-19.4015587c.7500187-4.4525488-.2383072-8.7906255-.0679212-13.1892407-1.6077288.1066632-3.1688177.2102219-4.688272.3110246v13.4332166c1.5988333-.1865577,3.2194671-.3756814,4.7561932-.5550005ZM44.0452956,55.0519163c-2.1014959-5.7588329-6.2498121-10.0460014-9.9127843-14.6236863-.0851505.1086828-.1017413.1739059-.0904452.2346385.5153633,2.7710703.5960873,5.5373174-.0687469,8.301351-.1166424.4849542.0222133.9106331.4214194,1.2874074,1.7831628,1.6829951,3.8124345,3.037178,6.182308,3.8903809,1.0648064.3833398,2.2050632.5852698,3.4682489.9099084Zm138.7367408,50.3294475c.1581621.0124261.2321867.0387434.2885054.0196885,2.66029-.9000958,5.3204267-1.8006668,7.974128-2.7173704.1398773-.0483184.2544214-.222949.3282247-.3627801.2816954-.5336884.4574273-1.1341008.8253372-1.6067913,1.3021048-1.67304,1.7880149-3.6169831,2.3437444-5.5893502-.1352635.0091473-.2040785.0000396-.2615548.019641-3.158424,1.0770627-6.3129322,2.1641202-9.477349,3.2256522-.3755031.1259716-.4641011.3123868-.4015513.6257476.3662585,1.8349752-.2021376,3.5067481-1.0254148,5.1363086-.2019163.3996624-.3847476.8076723-.5940698,1.249254ZM50.954962,51.8132757c-.1696029-.504322-.3350347-.9492141-.4686808-1.402224-.459998-1.5592094-.8972763-3.1243665-1.3772276-4.6781548-.0577743-.187021-.2945152-.3804333-.498832-.4641292-.6874008-.2815908-1.5314654-.3694446-2.0700934-.7983112-.99248-.790237-1.9053852-1.7055387-2.6768127-2.6874773-.908019-1.1558049-1.6304231-2.4378308-2.4430214-3.6799531-.1269298,2.7329683.0160716,5.4792023,1.4213436,7.9242519,1.4617737,2.5433536,3.2452174,4.9268549,4.8951767,7.3760624.129492.1922203.3154389.3515183.5014369.5548659.9542163-.7533903,1.8517309-1.4620023,2.7167108-2.1449306Zm26.3240986,127.1551987c-1.061661-.5767006-2.0735069-1.1263473-2.9882422-1.6232327-1.5255748,1.4780953-3.0334776,2.8836456-4.472889,4.3474853-1.8803074,1.9121928-3.7146302,3.8638418-5.5432582,5.8191339-.1842103.1969959-.3252793.5669435-.2613165.8040609.3712468,1.3760889,1.3629096,2.3547328,2.4579225,3.2559057,2.9948735-4.6892069,6.7467118-8.7131069,10.8077834-12.6033532Zm3.2699461-1.8893681c1.4506563.4647945,2.8842707.9241402,4.4469344,1.4248112-.0094063-5.9826452,2.4092225-11.4317365,3.318876-17.204825-1.0627251-.1230571-2.0797891-.2408239-2.9136303-.3373815-1.2909279,4.9994236-2.5509896,9.8793223-3.8091785,14.7519665.0900111.0192292.2972732.0635164.7309762.1561617-.6804971.4638758-1.1866329.8088919-1.7739778,1.2092672ZM18.2671882,91.2053852c-.42113,1.3174827-.8246051,2.6441047-1.2761205,3.9564237-.1525992.4435141-.0441671.6636516.4057224.8472948,2.8251514,1.1533062,5.6413945,2.3254851,8.4630047,3.4863389.1344591.0553274.2917572.0625819.3044748.0651558.4474889-1.7216119.8799235-3.3852986,1.3064803-5.0263824-3.0091191-1.0883642-6.0728289-2.1964724-9.2035617-3.3288308Zm178.3030424,8.8175368c.0539011.0408184.1077852.0816447.1616692.1224631.6447191-.3728145,1.3009982-.729536,1.9319782-1.1215005,1.8983028-1.1792038,3.7272457-2.4282677,5.0741093-4.1933432,1.3250205-1.7364772,2.0631897-3.6267402,1.7849164-5.7740705-.0870317-.6714763-.3439558-1.3238977-.5230926-1.9850387-.0675892.0074762-.1351784.0149604-.2027505.0224367-.8140837,1.677776-2.0854584,3.0140285-3.611612,4.1379841-.8537178.6287413-1.7912667,1.1581927-2.6637971,1.7662001-.2088455.1455334-.4428369.4281973-.4386487.6439948.0432945,2.2376313-.2720933,4.3967304-1.512772,6.3808741Zm-113.9490193,60.5845384c-.2681776-.0473443-.5135842-.1014837-.7623192-.1323866-.5928695-.0737012-1.3816966-.3801482-1.730181-.1396253-.4032112.2782843-.459964,1.0332902-.5971258,1.5960996-.9296833,3.8150086-1.8395325,7.6341672-2.7598861,11.4511399-.1067381.4426667-.2670028.8757822-.3451475,1.3220128-.0316324.1806496.025861.4972021.1527226.5601483,1.0335357.5128199,2.0930941.9802121,3.026923,1.4075144-.008504-.8883904-.1449252-1.7528949-.0006555-2.5747594.4378315-2.4942472.9473382-4.9791174,1.4999011-7.4539295.4478763-2.0059152.9983366-3.9920151,1.5157684-6.0362144Zm-58.2325283-44.4197433c.3449134,1.267905.3452582,1.2642936,1.4784539,1.3580001,1.6402551.135602,3.2792546.2846518,4.9200417.4142981,2.7708162.2189495,5.5425304.4281736,8.3141851.6378253.20633.0156178.4152096.0020591.4176952.0020591-.6733679-.7098-1.33375-1.4961998-2.093558-2.1880853-1.592185-1.4498376-3.6827595-1.8350465-5.7687925-2.1835552-.5649145-.0943876-1.2152008-.2634268-1.7124495-.0994246-1.8709436.6170755-3.6948983,1.3574774-5.5555758,2.0588825Zm114.8418265,17.8813937c-3.0376317,6.0838755-3.0946824,12.5740818-3.057568,19.0773715,3.966617-5.9469271,3.9774109-12.4489814,3.057568-19.0773715ZM52.1389731,50.6681585c.0631542.0289942.1263084.0579805.1894625.0869747,1.0479133-.9446603,2.1044413-1.8813454,3.1334483-2.8435004.1371448-.1282287.1893774-.3861395.1871557-.583076-.0077889-.6910658-.0569656-1.3817198-.0897302-2.0725599-.1340632-2.8271144-.6141423-5.5884434-1.8101814-8.2125785-.0895003-.1963703-.2059087-.3821202-.3690506-.6815304-.4721624,2.3025099-.9366806,4.4380477-1.3316177,6.5846731-.0988981.5375968-.2448789.9028915-.9357697.9200061.5781685,2.2687876,1.2851054,4.4716433,1.0262831,6.8015912Zm20.5244441,98.7009182c-.0404514-7.227868.588392-14.4544847-.3434876-21.7855471-.8001913,1.2643253-1.2227259,2.509073-1.3977172,3.8249717-.4434157,3.3345964-.4244839,6.6750059-.1675769,10.0228124.2096201,2.7315547.9049375,5.3572697,1.9087816,7.937763ZM31.9211574,46.7201377c0-2.733693.0075761-5.4674414-.0156843-8.2009642-.0016982-.199265-.1811458-.4453832-.3553157-.5878635-2.0207209-1.6530981-4.0547171-3.2921782-6.0908711-4.9288586-.1763278-.1417319-.3929622-.2400556-.7558923-.457342,2.5937563,4.7729385,3.955504,9.8518249,7.2177633,14.1750283Zm-16.6020921,43.1410357c-1.796953-1.1755845-3.5668023-2.3559128-5.3742853-3.4840421-.1991966-.1243322-.7423617-.0598496-.9061207.1055228-.6584881.6649821-1.2197678,1.4123059-1.8388324,2.1124675-.3383269.3826429-.3495314.6560407.0736863,1.027002,1.971523,1.7280348,4.1620042,3.17396,6.4764019,4.4674538.0723094.0404145.1697902.0418638.2394607.0577984.1215371-.769998.1561744-1.5366698.3797848-2.2522353.2236828-.7158111.636279-1.3805318.9499047-2.0339669Zm107.4502594,64.5624009c1.7194553-6.515011,1.1637598-13.0404602.0969913-19.568618-1.6414468,6.5114788-1.6951606,13.0344887-.0969913,19.568618ZM42.7000069,36.0513466c.2928723.7176247.3993636,1.4259952.8117257,1.9077419,1.4166915,1.6550582,2.9402233,3.2309664,4.4263086,4.8344155.0172378.0186075.0779744.0023205.1841422.0023205-.0818476-.2581246-.1497943-.5035736-.2370474-.7429244-1.5727425-4.3140204-3.1478089-8.6273122-4.7541672-13.0278203-1.125909,2.5889001-1.1698122,5.3145902-1.6716406,8.07919.5041609-.4278647.8904109-.7556633,1.2406787-1.0529233Zm31.6829252,123.0148981c-.3423554,1.4458619-.4636414,2.8244692-.4446926,4.2380502.0448438,3.3453989.0202682,6.6922709-.0397278,10.037559-.0096191.5364049.13597.7428095.5360061.80395,1.0506969-4.7887106,2.0971546-9.5580337,3.1588752-14.3969556-.9434225-.2005915-2.0200825-.4295041-3.2104609-.6826036Zm-36.0215765-37.0284591c-.0868955.018057-.1737953.0361141-.2606908.0541553-.064197.3113889-.172246.6211304-.1857085.9344042-.1146079,2.6669928-.1182683,5.3509815.7772161,7.905498,1.0354042,2.9536562,2.2870981,5.8417369,3.4504493,8.7563646.0663506.1662356.1829718.3151112.3664968.6240766,0-.3952274.0309174-.6120386-.0049117-.8188075-.2767624-1.5973034-.5732355-3.1916131-.8507087-4.7888057-.6303713-3.6285776-1.3871744-7.2321605-2.501349-10.7622481-.2054107-.6507661-.5242886-1.2705502-.7907935-1.9046374Zm99.6775752,4.6336894c.0216728-.0673179.0433286-.1346516.0649844-.2019696-.3149622-.3080943-.6581859-.5954387-.9401707-.9277674-1.4791647-1.7431694-3.5347272-2.0761475-5.6586451-1.7182539-2.3216971.3911725-4.5845388,1.0862734-6.8711474,1.6553869-.7305421.1818375-1.4551594.3842981-2.1824668.5773184.006129.0837752.012241.1675503.01837.2513413,5.1896919.1213148,10.3793838.2426296,15.5690756.3639444Zm-55.0271494,4.65672c-.072586.2235746-.1432142.4013414-.1878622.5845887-.6970199,2.860615-.7879759,5.7657865-.3300293,8.6407837.5645059,3.5440263,1.3684938,7.0550115,2.0665522,10.5806798.083133.4198261.1510627.8422341.2260407,1.2634541.561152-3.1810957-.7689419-18.411542-1.7747014-21.0695063Zm80.3182401-6.7184378c.0022984-.0691236.0046138-.1382631.0069121-.2074025-.936936-.4087702-1.867811-.8301961-2.8120166-1.2238395-2.3594245-.9836334-4.6574228-.8680525-6.8457461.4250057-1.1956136.7064737-2.3488179,1.4752125-3.5170383,2.2214433-.1607669.1026875-.297784.2375768-.4457822.3575452.0219622.0577984.0439245.1155809.0658867.1733792,4.5159281-.5820385,9.0318563-1.1640771,13.5477844-1.7461314ZM5.100159,77.6606426c-2.6199706,2.8341947-2.5267864,6.9925642.4290722,10.0055473.8727433-.9356714,1.748019-1.8740592,2.5635157-2.7483604-.7692271-1.097955-1.6035833-2.1596455-2.286715-3.2997574-.704745-1.1761864-.8563312-2.4950312-.7058729-3.9574296Zm53.1664548,48.4571307c-1.5432723,4.0022791-.8913856,15.4886303,1.0344721,18.9288762.0124368-6.3281523-.0651376-12.6520914-1.0344721-18.9288762Zm-8.0156264-85.1313828c.0871083-.1505426.1336206-.2005004.1461765-.256996.4738308-2.1321956.9599963-4.2622609,1.3960998-6.4011606.0546928-.2682302-.0740246-.6426722-.2590096-.8671655-1.0649128-1.292381-2.455905-2.2201128-4.005119-2.9523416-.2938597-.1388887-.599007-.2571069-.8678656-.3716305,1.1979885,3.6207133,2.379531,7.1917104,3.5897179,10.8492941Zm-6.1453298,77.6778652c4.9401737.1041289,9.8803389.2082578,14.8205126.3123868-.8564844-.5801061-1.7724626-1.0169439-2.6701985-1.484146-1.23203-.6411674-2.5459842-.9243303-3.9487578-.817572-.9241247.0703116-1.8478492.1587752-2.7664578.2752906-1.9144339.2428196-3.699478.8699216-5.4350985,1.7140406ZM205.1437913,4.4179325c-.1433333.1861538-.3219254.3569849-.4243648.5609185-.753662,1.5003181-1.5272943,2.9934114-2.2202963,4.5180273-.3374352.7424215-.5444079,1.5180841-1.4552616,1.8703745-.1571917.0608079-.2838235.287299-.3404316.460991-.6317972,1.9385913-1.2774016,3.8741236-1.8520799,5.8275903-.2349107.7985883-.3067051,1.6387118-.4526943,2.4599388l.2038912.0550858c2.6527139-5.0699253,4.9544747-10.2700037,6.5412373-15.7529263Zm-37.5743614,61.5313746c-.9000088.2954147-2.0035512.6616558-3.1106349,1.0183932-.3005591.0968507-.6384029.1183053-.913816.2539786-1.7804218.8770097-3.6549236,1.4914876-5.6375,1.8227867-.3011379.0503221-.600369.110536-.9004855.1661723,2.3939511.2274078,4.6649648.7822895,6.7049665,1.684492.6318142-.98673,1.1317188-1.9193047,1.7856314-2.7464913.6697118-.8471206,1.4902139-1.5910468,2.0718384-2.1993314Zm-15.217697,68.1564405c-1.5588246,1.4936022-4.84497,10.2101146-5.0623961,13.4280213,1.4450807-1.3017699,4.8757512-10.4016617,5.0623961-13.4280213Zm-80.8604092-13.979743c3.9083745.5180786,7.8167576,1.036173,11.7251321,1.5542516.0101214-.0684583.0202512-.1369167.0303811-.205375-3.6830489-2.04176-7.6124323-2.4419768-11.7555132-1.3488766Zm86.7020729,22.1201408c2.0961161-3.2991476,3.7946476-6.7420545,4.4746936-10.6680505-2.5243285,3.2553355-3.860313,6.8297895-4.4746936,10.6680505Zm-93.853775,42.2484795c.0529562.0366209.1059124.0732419.1588686.109847,2.4588248-2.5123517,4.9176582-5.0247035,7.4847108-7.6476466-1.151272.5561568-2.1687531,1.053248-3.1917249,1.5403287-1.081061.5147523-1.9230826,1.2778839-2.6270657,2.1811635-.1151229.1477351-.1686069.3415473-.2299139.5202169-.1584175.4616583-.2507695.950513-.4695065,1.3849273-.3305486.6564684-.7459922,1.2759673-1.1253685,1.9111632Zm32.8063103-49.6535758c-1.0743361,4.9482145-1.1048449,9.9429338-.9142927,14.9498019.8417748-4.9555323.9586513-9.9531344.9142927-14.9498019Zm10.3372044-9.8510963c.0151948-.0347836.0303896-.0695671.0455844-.1043665-.2131954-.1067583-.4182443-.2319537-.6409821-.3171228-.9866744-.3773446-1.9974818-.7048739-2.9643307-1.1212629-1.9568432-.8427568-3.7787633-.2020963-5.624178.4144249,3.061305.3761091,6.1226014.7522182,9.1839064,1.1283273Zm-16.3674963-45.1084926l.1491899-.0103353c.3250665-.9829048.656543-1.9640593.9668403-2.9509714.0375571-.1194378.0117472-.3423313-.0719476-.3933266-.3290674-.2005123-.693019-.3514628-1.0440827-.5208268v3.8754601Z" stroke-width="0"/>
      <path d="m43.1898242,75.9459289c.0606685-.6132265.0595108-1.1377043.1765916-1.6382327.1241632-.5308215.5044503-.8808983,1.1452451-.8384089.5194323.0344272.7139768.2967769.6366918.7924505-.0606941.3892955-.1200347.8138022-.0186679,1.1844942.9378723,3.4297285,1.9449768,6.8433165,2.8567328,10.2788818.3657903,1.3783301.5730525,2.7958393.7901806,4.2038368.0633074.4104729.1865087,1.0268515-.4445053,1.1493226-.5883664.1141949-.6993438-.4783531-.8717218-.8525456-2.1227431-4.6079739-3.5524417-9.3932237-4.270547-14.2797987Z" stroke-width="0"/>
      <path d="m49.298031,71.1842088c.8327431-.0800687.9803412-.7116532,1.2617301-1.2369705,1.6563948-3.0923232,3.299161-6.1910772,4.9762922-9.2736433,1.1836535-2.1755563,2.8145874-4.0637206,4.5084116-5.9070036.301538-.3281471.5421947-.7129916.8809919-1.0001223.202078-.1712647.5405688-.2031971.817727-.2977669.0961741.2624448.3077521.5441267.2618187.7829231-.0711815.3699713-.2827339.7303993-.495725,1.060851-2.9259053,4.5393255-5.8476735,9.0810824-8.8096377,13.6000225-.5277149.8051142-1.1893909,1.5460151-1.8702796,2.2485606-.5143077.5306472-.9293428.4966873-1.5313292.0231494Z" stroke-width="0"/>
      <path d="m87.1551093,49.4916158c-.0302279-1.6893903.241925-3.4525651,1.0911483-5.1077183.510375-.9947606,1.2069096-1.850981,2.2840038-2.3731343,1.2001337-.581793,2.4800635-.1952932,3.05315.9450206.1115562.2219749.1248187.5866716-.0023665.7794225-.0937906.1421517-.5368829.2173576-.7426043.1382947-.6323505-.2430374-.8436646.0928749-1.0249211.5281802-.6734488,1.61738-.983329,3.3070317-.8295424,5.0229017.217741,2.4294082.5621054,4.8493205.8744202,7.2708168.0718539.5570438.0184721,1.048813-.514478,1.3780767-.552997.3416502-1.1852283.3064469-1.6083588-.1071543-.4974019-.4862095-.9605411-1.0674561-1.2214149-1.686662-.8986978-2.1331856-1.1992058-4.3877414-1.3590364-6.7880445Z" stroke-width="0"/>
      <path d="m104.0717209,91.9383268c.0839247-.3084427.1333482-.6794515.2873477-1.0080262.1906373-.406711.5607349-.6830946,1.0612694-.5197497.4944907.1613571.8033409.4826219.6843192,1.048116-.0446736.2122019-.0158162.4830574.0932118.6696785.353345.6047999.6970454,1.2295655,1.1572137,1.7623432,1.2222492,1.4150857,2.4939474,2.7937247,3.769706,4.167794.2416441.2602589.6926615.3785721.8679933.6592244.2243467.3591212.3832324.8226565.3579248,1.2297635-.0295724.4756366-.5322095.6361463-.9964638.6181051-.3133193-.0121727-.6719932-.0858343-.9230606-.2485773-2.7673856-1.7938796-5.2536547-3.8104073-6.1089559-7.0407163-.1105858-.4176957-.1606988-.8492352-.2505056-1.3379552Z" stroke-width="0"/>
      <path d="m108.4040346,74.833053c.2889651-.6981659.4926349-1.440912.8823028-2.0864591,1.3776362-2.2822908,3.6360259-3.4518958,6.2748133-4.0489502.4594873-.1039705,1.0299094-.0118876,1.477309.1556073.251442.0941342.425216.5150137.4905238.8156633.0241244.1110983-.3462541.324797-.5648549.4486936-2.0997934,1.1901251-4.3066059,2.2567338-5.8742154,4.0912021-.3895231.4558214-.6248339,1.0480289-.8321727,1.6091672-.163227.4417876-.3837687.5430179-.8217109.3843377-.6545255-.237157-.8967229-.7099821-1.031995-1.369262Z" stroke-width="0"/>
      <path d="m104.803957,79.5523629c.2420187-.34207.4454757-.6548369.6757982-.949428.3752307-.4799212.8744202-.7205233,1.5097415-.5223236.6340785.1978275.9986685.7110434.8602554,1.2558512-.2623976,1.0327596-.5934058,2.0782225-1.1063941,3.0190734-.3941454.7229072-1.2455308,1.0325854-2.1582828.8527515-.9146503-.180214-1.3162696-.8181343-1.4686262-1.6181086-.0603876-.3171307-.116536-.6403042-.1176682-.9608958-.0039157-1.113161.6557088-1.5199749,1.8051761-1.0769202Z" stroke-width="0"/>
      <path d="m148.5284833,45.5191229c.6607396-1.9744658,2.1176356-3.427598,3.8595128-4.6659386.4024025-.2860655.8446776-.5428674,1.3065313-.7337493,1.6468437-.6806355,3.0906135.2019062,2.93967,1.8846558-.0910496,1.0153401-.479015,2.0090672-.7538833,3.007669-.0676403.2457539-.2146851.4725875-.3425257.7449637.1955319.0733528.3580014.1396015.5243695.1959307,2.7314374.9248173,3.3514533,3.5579057,1.2298849,5.3987257-.5491238.4764682-1.4393262.674763-1.8451848,1.214217-.3882377.5160749-.2594948,1.3420973-.5200281,1.974054-.4304597,1.0441561-1.2566652,1.8060444-2.3608716,2.2731197-2.109021.8921206-4.1564796-.0845988-4.7391938-2.2841916-.159456-.6019488-.1904415-1.2333591-.2898504-1.9164616-.2018312.0410877-.4364014.0840523-.6683839.1368058-2.449742.5572418-4.3771915-1.2012128-3.8251224-3.4908888.4583466-1.9010972,2.1395638-3.4950545,3.9824673-3.7298277.4744693-.0604475.9653847-.009084,1.5026081-.009084Zm2.6508752,2.5008206c.4781978-.7772763.9505219-1.5577482,1.4363468-2.3308745.4324686-.6882028.9215624-1.3488093,1.3048459-2.0593379.2235891-.4144843.2884373-.9030974.4247223-1.3583605-.061324-.0247849-.122665-.0495697-.183989-.0743546-1.3776617.9286545-2.5923092,1.99261-3.2341171,3.5221361-.2593756.6181843-.4305959,1.2322305.1106794,1.8223511.1045504.113993.0979107.3162516.1425502.4777908.0536968.2187792.2050319.4653766.14381.6514195-.2354896.715522-.2468793,1.5224974-.9912797,2.0492006-.2230103.1577852-.3926132.4947153-.4152223.76211-.0635543.7515371-.1034608,1.5159755-.0199363,2.2624677.0425965.3805442.288233.9460542.5890134,1.046247.3947583.1315154.9674958-.0438913,1.4000496-.2214917.2825126-.1159927.4945247-.4474582.6640084-.7219964.4609004-.7465397.3881867-.9993462-.3460498-1.5126888-.7373521-.5155126-.9322541-1.3511416-.4659568-1.9975915.4759164-.6597947,1.4614757-.8395652,2.2253697-.3948156.2141062.1246569.405484.2831153.6555811.4602644.2785287-.1762383.5983601-.3221201.8373738-.5434931.3349836-.3102405.7814638-.6470835.4659738-1.163491-.320955-.525341-.8581784-.7301854-1.4891924-.56393-.3731196.0983119-.7287885.2700596-1.073919.4409164-.7785696.3854108-1.2629814.3180533-1.8488282-.2801732-.0987279-.1008303-.2207119-.1819563-.331834-.2723049Zm-5.0906405,3.1571068c1.0257893.0102482,1.7507472-.4280548,2.1197638-1.27215.0692066-.1583317.2001287-.2979015.2445128-.459908.0601152-.2193495.1012476-.4548156.0815667-.678121-.018404-.2091092-.1418181-.4081841-.1926207-.617222-.1767364-.7271086-.5084852-.9324361-1.2664886-.6686292-1.2298168.4280152-1.9411036,1.3058169-2.1917965,2.4770771-.1592177.7438787.3493016,1.2103997,1.2050624,1.218953Z" stroke-width="0"/>
    </g>
  </g>
</svg>