<?xml version="1.0" encoding="UTF-8"?>
<svg id="Layer_2" data-name="Layer 2" xmlns="http://www.w3.org/2000/svg" viewBox="0 0 311.643334 408.4525903">
  <g id="Layer_1-2" data-name="Layer 1">
    <path d="m174.9902154,64.2411247c-1.0478516,2.5708008-1.7080078,5.3088379-2.8598633,7.8258057-4.0405273,8.8258057-8.831543,17.2512207-14.1132812,25.3898926-4.7524414,7.3236084-9.6044922,14.5836182-14.9487305,21.49646-2.4873047,3.2176514-4.9467773,6.4648438-7.5898438,9.5524902-4.0908203,4.7792969-8.078125,9.6652832-12.9350586,13.7336426-2.9584961,2.4777832-5.7099609,5.2246094-8.8071289,7.5085449-3.2954102,2.4304199-6.8041992,4.607666-10.3774414,6.614624-3.1601562,1.7747803-6.3823242,3.5070801-9.7563477,4.5780029-1.2807617-1.5905762-2.4482422-3.0898438-3.6689453-4.5441895-1.6010742-1.907959-3.0996094-3.9331055-4.8974609-5.6390381-5.1162109-4.8543701-10.8393555-8.8887939-17.1455078-12.0799561-3.3745117-1.7077637-6.8491211-3.1811523-10.324707-4.6704102-6.4887695-2.7802734-12.9667969-5.5349121-19.6743164-7.7943115-3.4003906-1.1452637-6.9580078-1.4875488-10.2949219-2.7344971-2.0634766.3320312-4.1196289-.4128418-6.1254883-.2175293-3.7509766.3654785-7.5366211.7792969-10.9931641,2.5510254-1.9702148,1.0100098-3.9506836,1.9361572-5.4799805,3.6477051-3.4189453,3.828125-5.3662109,8.0842285-4.9399414,13.3902588.2329102,2.9022217.5864258,5.7852783,1.7851562,8.3619385,2.1914062,4.7104492,4.5717773,9.3233643,8.3857422,13.0766602,2.6748047,2.6324463,5.4277344,5.112793,8.4335938,7.3579102,3.7568359,2.8061523,7.9194336,4.8554688,12.2216797,6.5585938,3.8544922,1.5258789,7.8232422,2.8649902,12.0083008,3.2700195,3.2392578.3137207,6.4233398.9626465,9.7348633.8721924,2.7001953-.0738525,5.4243164.1956787,8.1337891-.0809326,3.512207-.3585205,7.027832-.6982422,10.527832-1.1575928,6.5332031-.8577881,12.7783203-2.9075928,19.0869141-4.7841797.277832,3.2220459-.8769531,6.1348877-2.2705078,8.8001709-2.1367188,4.0878906-5.1743164,7.5637207-8.7207031,10.5683594-4.0214844,3.4073486-8.527832,6.114502-12.9458008,8.9321289-5.5385742,3.5321045-11.2734375,6.7563477-16.8125,10.2875977-4.1264648,2.6308594-8.1337891,5.4608154-12.0922852,8.3415527-4.934082,3.5905762-9.5732422,7.5239258-13.8686523,11.8927002-4.8579102,4.9412842-8.6538086,10.6104736-12.1660156,16.5140381-.4736328.7961426-.9379883,1.6000977-1.3618164,2.423584-2.4287109,4.71875-4.480957,9.5770264-6.2456055,14.6015625-1.3081055,3.7233887-1.8554688,7.5732422-2.8457031,11.3388672-.5380859,2.0456543-.4482422,4.2218018-.4951172,6.3671875-.0551758,2.5498047-.0727539,5.0725098.1132812,7.6210938.4433594,6.0664062,2.1196289,11.7983398,4.6342773,17.2750244,2.0517578,4.4700928,4.8891602,8.4403076,8.4487305,11.8814697,4.3139648,4.1708984,9.2353516,7.1169434,15.2841797,7.9464111.4448242.0609131.8413086.4732666,1.1435547.6529541.0170898,1.630127.2026367,3.0891113.012207,4.4968262-.3925781,2.8964844-.2885742,5.7729492-.0180664,8.6552734.5708008,6.081543,1.8125,11.954834,4.3681641,17.59375,2.6064453,5.7507324,5.8051758,10.9956055,10.1948242,15.5581055,3.171875,3.296875,6.7241211,5.8293457,11.065918,7.3994141,3.8867188,1.4055176,7.628418,1.5007324,11.3876953-.1499023,1.84375-.8095703,3.4179688-1.9418945,3.8320312-4.1379395.0737305-.3908691.3852539-.7365723.550293-1.036377-.1777344-.8120117-.3383789-1.5449219-.4819336-2.2001953-1.6567383-1.5004883-3.6728516-1.5180664-5.6069336-1.7736816-3.1987305-.4230957-5.9892578-1.6975098-8.4204102-3.8278809-3.6513672-3.1994629-6.5229492-7.0014648-9.0537109-11.1254883-2.4794922-4.0410156-4.019043-8.3977051-4.8286133-13.0202637-.5532227-3.1564941-.7148438-6.3491211-.7792969-9.5693359-.0522461-2.6013184.315918-5.0878906.5864258-7.666748,4.3120117-.7944336,8.2905273-2.1748047,12.1953125-3.8164062,5.0551758-2.1254883,9.7578125-4.8898926,14.1748047-8.0842285,3.6943359-2.6717529,7.109375-5.7270508,10.6914062-8.5577393,2.5581055-2.0218506,4.8637695-4.3179932,7.2993164-6.4682617,2.9604492-2.6134033,5.5634766-5.4468994,7.4785156-8.9517822.1303711-.9901123.265625-2.0196533.402832-3.0661621-.1152344-.3084717-.2719727-.6176758-.347168-.9453125-.609375-2.6467285-2.387207-4.255249-4.7670898-5.2681885-3.2016602-1.3625488-6.5566406-1.6850586-9.9921875-1.2637939-5.6679688.6950684-11.0727539,2.2856445-16.1494141,4.9053955-2.2749023,1.1739502-4.5610352,2.3636475-6.6884766,3.7772217-3.0087891,1.9990234-6.0610352,4.0026855-8.753418,6.3891602-3.0400391,2.6945801-5.8149414,5.6984863-8.2958984,8.9667969-2.9868164,3.9348145-5.4707031,8.1016846-7.0224609,12.8114014-.3046875.9239502-.8588867,1.7655029-1.2988281,2.6468506-.5073242-.2595215-.7807617-.4868164-1.0854492-.5422363-4.7875977-.8702393-8.3251953-3.7175293-11.2788086-7.3376465-3.5634766-4.3670654-5.472168-9.5289307-6.7163086-14.9665527-.6601562-2.8869629-.7939453-5.8271484-1.0878906-8.7597656-.2680664-2.6748047.7182617-5.2363281.25-7.8980713-.1289062-.7340088.5239258-1.5780029.6923828-2.3973389.3608398-1.7514648.6586914-3.4970703,1.1469727-5.239502,1.0078125-3.5983887,2.3291016-7.0487061,3.9941406-10.3620605,2.6943359-5.3608398,5.7016602-10.517334,9.3642578-15.3218994,3.578125-4.6937256,7.440918-9.1033936,11.9023438-12.9144287,4.140625-3.5371094,8.559082-6.7598877,12.9541016-9.9855957,4.5053711-3.3066406,9.1660156-6.4005127,13.6923828-9.6793213,3.2939453-2.3859863,6.4726562-4.9302979,9.7148438-7.3878174,3.6333008-2.7542725,7.2055664-5.5708008,10.3564453-8.8947754,3.2207031-3.3979492,6.2587891-6.9338379,8.355957-11.1496582,1.0458984-2.1031494,2.2568359-4.1843262,2.5957031-6.5598145.2949219-2.067627.987793-4.067627.8930664-6.208374-.0668945-1.5172119.1196289-3.0457764.2080078-4.87854.4116211-.2122803,1.0678711-.5820312,1.7495117-.8959961,1.5419922-.7099609,3.1079102-1.3684082,4.644043-2.0905762,4.3144531-2.0285645,8.574707-4.1501465,12.5595703-6.8006592,3.2011719-2.1295166,6.550293-4.039917,9.7104492-6.2258301,1.9692383-1.3621826,3.6689453-3.1080322,5.5615234-4.5894775,3.3129883-2.5935059,6.2861328-5.5385742,9.2700195-8.4941406,5.565918-5.5134277,10.484375-11.5751953,15.1606445-17.8212891,3.394043-4.5324707,6.347168-9.3817139,9.2011719-14.2897949,3.3046875-5.682373,6.4692383-11.4301758,9.2143555-17.4008789,1.1933594-2.5964355,2.2426758-5.260498,3.3300781-7.9050293,1.1870117-2.8879395,2.3427734-5.7888184,3.7260742-9.2132568-.3496094,4.1251221-1.019043,7.6647949-.9443359,11.2789307.0488281,2.3797607-.4453125,4.741333-.4824219,7.1572266-.0537109,3.4804688-.234375,6.963623-.2661133,10.4556885-.0351562,3.8146973.3105469,7.5809326.6123047,11.3702393.5737305,7.197876,2.1918945,14.1557617,4.5214844,20.9467773,2.1220703,6.1855469,4.7509766,12.1425781,7.9951172,17.8648682,3.2988281,5.8189697,7.2724609,11.1015625,11.9545898,15.7709961,4.675293,4.6630859,9.9912109,8.6224365,16.1264648,11.2890625,3.1699219,1.3775635,6.3720703,2.8082275,9.7866211,3.3377686,4.4042969.6829834,8.7998047,1.692749,13.3217773,1.3098145,1.8442383-.15625,3.6953125-.2280273,5.5429688-.3436279,1.1674805-.072998,2.3339844-.1558838,3.0292969-.2025146,3.5859375,2.9775391,6.7626953,5.6450195,9.9716797,8.2734375,7.1005859,5.8166504,13.6694336,12.1429443,18.8862305,19.7529297.9077148,1.3242188,1.6240234,2.7818604,2.3999023,4.1938477,2.0400391,3.7143555,3.7001953,7.5605469,4.871582,11.6680908.9267578,3.2503662,1.375,6.5727539,2.1088867,9.8465576.1489258.6623535-.1860352,1.4331055-.3251953,2.331543-2.7172852-1.2634277-5.1704102-2.3724365-7.8100586-3.0013428-1.8916016-.4505615-3.7260742-1.2147217-5.6362305-1.4951172-2.7001953-.3962402-5.3862305-.8242188-8.1816406-.7338867-2.7929688.090332-5.5727539.151001-8.3232422.6107178-9.2304688,1.5429688-17.5283203,5.0706787-24.590332,11.3774414-3.0166016,2.6942139-5.6088867,5.7033691-7.5322266,9.2092285-2.234375,4.0734863-3.4516602,8.434082-2.9882812,13.2011719.5048828,5.1933594,2.8144531,9.4976807,6.4160156,13.0461426,2.9868164,2.942627,6.8066406,4.7473145,10.8525391,5.7167969,3.4946289.8371582,7.1357422,1.291748,10.7407227.8652344,3.7558594-.4442139,7.4985352-1.1339111,11.0957031-2.359375,5.75-1.9589844,11.0839844-4.6414795,15.7128906-8.7028809,2.5849609-2.2680664,4.8999023-4.7297363,6.8662109-7.513916,3.4521484-4.8873291,5.8237305-10.2536621,6.890625-16.1751709.1298828-.7182617.565918-1.3813477.8554688-2.0594482,2.5292969,1.435791,4.3945312,3.4165039,5.9619141,5.6928711,1.871582,2.7175293,3.0878906,5.7507324,2.9570312,9.0338135-.2050781,5.1480713-1.3867188,10.0908203-3.7182617,14.7720947-3.0029297,6.0280762-6.1357422,11.9814453-9.2949219,17.9279785-3.1518555,5.932373-5.902832,12.0825195-8.6938477,18.1993408-1.0795898,2.3670654-1.7724609,4.9095459-2.6674805,7.362915-.8139648,2.2315674-1.3725586,4.5354004-2.0375977,6.807373-.8637695,2.9482422-1.3515625,5.9624023-2.0546875,8.9345703-.3515625,1.4863281-.1118164,3.0683594-.2392578,4.5661621-.3754883,4.4274902-.0146484,8.7956543.4555664,13.173584.8945312,8.3259277,2.6108398,16.4477539,5.7041016,24.2712402,1.8076172,4.5712891,4.2104492,8.732666,7.1591797,12.661377,2.9633789,3.947998,6.7089844,6.730957,11.277832,8.3764648,2.9077148,1.046875,5.8754883.4743652,8.7060547-.5441895.7402344-.2666016,1.3105469-1.0056152,1.9633789-1.5310059-.6557617-1.1516113-1.5185547-1.6147461-2.5332031-1.890625-2.1992188-.5976562-4.3510742-1.3547363-6.3496094-2.4448242-1.7915039-.9770508-3.4399414-2.1323242-4.734375-3.8132324-2.2607422-2.9353027-4.0092773-6.1071777-5.4794922-9.5100098-2.4335938-5.6330566-3.9018555-11.4934082-4.7080078-17.5371094-.4677734-3.5083008-.8344727-7.0168457-.8447266-10.5859375-.0073242-2.5407715-.0229492-5.0939941.1538086-7.6125488.3427734-4.8728027,1.5107422-9.6113281,2.7880859-14.3288574.6201172-2.2895508,1.2407227-4.5681152,1.9746094-6.8260498,1.6142578-4.9669189,3.3652344-9.864624,5.5292969-14.633667,3.2983398-7.2697754,6.4008789-14.6296387,9.5102539-21.9836426,1.0800781-2.5554199,1.8276367-5.2525635,2.9277344-7.7980957.6972656-1.6130371.7094727-3.342041,1.237793-4.9501953,1.168457-3.5588379,1.4697266-8.3231201,1.0297852-12.0944824-.4912109-4.2132568-1.8041992-8.1021729-4.0673828-11.6269531-2.8994141-4.5162354-6.8027344-8.0888672-11.3623047-11.2480469-.1313477-1.4624023-.2734375-3.0463867-.4165039-4.630127-.4169922-4.6208496-1.390625-9.1220703-2.8188477-13.5361328-1.1518555-3.5610352-2.6235352-6.956543-4.4731445-10.2236328-1.9858398-3.5063477-4.0551758-6.9404297-6.5878906-10.0765381-.6938477-.8590088-1.4980469-1.630127-2.2695312-2.4244385-2.0732422-2.1361084-4.0683594-4.3586426-6.2553711-6.3725586-4.0517578-3.7316895-8.2021484-7.3568115-12.3520508-10.9805908-.6508789-.5684814-1.3110352-1.0407715-1.5053711-2.0479736,3.9116211-1.3088379,7.7553711-2.5788574,11.2783203-4.6030273,3.0415039-1.7475586,5.9291992-3.6547852,8.4204102-6.213501,3.2421875-3.3306885,5.7265625-6.9544678,7.0053711-11.5117188.7739258-2.756958,1.1938477-5.418457,1.0185547-8.2645264-.1938477-3.1437988-1.390625-5.7758789-3.5351562-7.9801025-1.2470703-1.2818604-2.8286133-2.2196045-4.5708008-2.5692139-2.425293-.4865723-4.8833008-.8580322-7.3984375-.5081787-4.4990234.6258545-8.7573242,1.9854736-12.5244141,4.5025635-3.2729492,2.1871338-6.2636719,4.7150879-8.7021484,7.921875-2.8339844,3.7265625-4.9379883,7.6533203-5.4448242,12.3742676-.2973633,2.7700195.2851562,5.3388672,1.1948242,7.9216309.8520508,2.4180908,2.4707031,4.3930664,3.7421875,6.9221191-1.796875-.0610352-3.4165039.0280762-4.9907227-.1986084-3.7324219-.5374756-7.5136719-.6801758-11.1616211-1.9029541-3.0449219-1.020752-6.0546875-2.0859375-8.8461914-3.651123-6.1005859-3.4206543-11.0327148-8.2172852-15.4794922-13.5386963-2.1499023-2.5726318-3.8349609-5.4638672-5.5874023-8.3179932-3.4428711-5.6074219-6.0302734-11.6032715-8.2426758-17.7583008-1.3706055-3.8122559-2.5585938-7.7121582-3.4941406-11.6522217-.96875-4.0826416-1.7890625-8.2364502-2.1904297-12.4058838-.2983398-3.0927734-.503418-6.2268066-.6118164-9.3552246-.1025391-2.9476318-.012207-5.9044189-.159668-8.8553467-.1054688-2.1069336.2661133-4.2427979.3286133-6.3828125.1025391-3.5030518.7587891-6.973999.8505859-10.5096436.0830078-3.1851807.7426758-6.3557129,1.1582031-9.5313721.0644531-.4929199.1835938-.9786377.3466797-1.8260498,1.4980469,5.0557861,3.0268555,9.6953125,4.2275391,14.4182129,1.1123047,4.3762207,2.7099609,8.5717773,4.5288086,12.6549072,2.2856445,5.1304932,5.1044922,9.9624023,8.8681641,14.2553711,3.1098633,3.5474854,6.4301758,6.8201904,10.1293945,9.7071533,7.6630859,5.9802246,16.456543,9.6269531,25.8500977,11.6947021,4.0722656.8964844,8.2666016,1.4158936,12.5405273,1.3436279,5.0556641-.0855713,9.9033203-.8149414,14.6367188-2.5415039,7.2412109-2.6413574,13.1689453-7.0333252,18.1767578-12.8917236,4.0942383-4.7896729,6.1894531-10.3997803,7.7104492-16.3326416.796875-3.1088867.769043-6.345459.6259766-9.472168-.269043-5.8603516-1.762207-11.5039062-4.5449219-16.7419434-.1894531-.3562012-.2714844-.769043-.3989258-1.1416016.2324219-.2818604.3652344-.505127.5532227-.6622314,5.8325195-4.8687744,9.1083984-11.3050537,10.8642578-18.5018311.9316406-3.8203125,1.4477539-7.8256836,1.0283203-11.7731934-.5063477-4.7591553-1.2612305-9.4556885-3.199707-13.9713135-2.4697266-5.7523193-5.7138672-10.9174805-10.1699219-15.241333-4.5791016-4.4439697-9.7866211-7.8878174-15.9907227-9.9239502-3.8188477-1.2532959-7.6884766-2.1173096-11.5859375-2.8707275-3.8491211-.7441406-7.7993164-.7006836-11.7265625-.6101074-2.7963867.0644531-5.625-.2078857-8.3847656.1230469-5.5922852.6706543-11.1347656,1.6396484-16.5869141,3.1811523-5.3261719,1.5059814-10.4482422,3.4587402-15.3935547,5.9014893-4.6918945,2.3175049-9.1713867,4.9869385-13.2426758,8.3016357-2.0107422,1.6365967-4.0341797,3.2574463-6.2460938,5.0424805.3549805-2.7005615.7631836-5.1716309.9868164-7.6594238.3564453-3.9660645-.5756836-7.5895996-3.2333984-10.6623535-1.4848633-1.7166748-3.4663086-2.7575684-5.6323242-2.5009766-4.8266602.5718994-8.6542969,2.9196777-10.7509766,7.482666-.8681641,1.8891602-1.4262695,3.9207764-2.1860352,6.0588379-.3808594-.3551025-.7294922-.5919189-.9638672-.9125977-1.8291016-2.5064697-4.1220703-4.557373-6.4614258-6.5526123-1.9741211-1.684082-4.1420898-2.9876709-6.8374023-2.7833252-2.4882812.2883301-3.9423828,1.8635254-5.1801758,4.2531738-.0830078,1.3671875-.4248047,3.104248-.2368164,4.7822266.3041992,2.7199707,1.3769531,5.2380371,2.940918,7.5075684,1.7089844,2.4787598,3.4614258,4.927002,5.1689453,7.4064941.2431641.3529053.3393555.8067627.6826172,1.6566162-3.6704102-2.6280518-6.9033203-4.9451904-10.1386719-7.258667-1.9287109-1.3791504-3.9140625-2.6853027-5.7822266-4.1416016-4.7514648-3.7037354-9.7666016-6.9938965-15.0600586-9.8635254-5.1274414-2.7797852-10.5498047-4.8579102-16.1225586-6.5130615-2.4492188-.7272949-4.9912109-1.2423096-7.527832-1.5513916-4.6875-.5714111-9.3193359-1.6002197-14.1049805-1.4267578-3.2885742.1191406-6.534668.385498-9.8056641.7734375-7.8222656.9274902-15.0961914,3.5234375-22.1967773,6.7145996-3.4160156,1.5349121-6.574707,3.5554199-9.7827148,5.496582-3.4262695,2.0731201-6.3510742,4.6451416-8.9941406,7.5490723-4.0258789,4.423584-6.7172852,9.4899902-7.230957,15.6225586-.3564453,4.2546387.3110352,8.2143555,2.1025391,12.0753174,2.15625,4.6473389,5.4584961,8.3111572,9.7216797,10.9660645,5.0302734,3.1326904,10.5053711,5.3544922,16.3271484,6.6507568.6855469.1525879,1.2998047.6252441,1.7758789.8637695-.8833008,2.9873047-1.9335938,5.6899414-2.4550781,8.4909668-.8764648,4.7095947-1.3232422,9.4588623-.9799805,14.3034668.34375,4.848999,1.1235352,9.5488281,2.9443359,14.0507812,1.6264648,4.0224609,3.9804688,7.4974365,7.5922852,10.0617676,2.3813477,1.6911621,5.0463867,2.7225342,7.7807617,3.5505371,2.8203125.8540039,5.8330078.7830811,8.6772461.4943848,7.8525391-.796875,15.4155273-2.9542236,22.453125-6.5412598,3.7075195-1.8898926,7.1376953-4.3450928,10.6030273-6.6787109,1.4760742-.9941406,2.7241211-2.3277588,4.0722656-3.5114746,2.8237305-2.4797363,5.6518555-4.9545898,8.4633789-7.4477539,1.0825195-.9597168,2.1582031-1.9304199,3.1787109-2.9543457,2.3847656-2.3925781,4.7192383-4.8352051,7.1015625-7.2297363,2.2758789-2.2873535,4.7363281-4.4091797,6.8505859-6.8349609,4.0537109-4.6518555,8.1347656-9.3084717,11.8017578-14.2613525,3.4135742-4.611084,8.0712891-7.6446533,12.4418945-11.0823975.5268555-.4140625,1.0791016-.4962158,1.6420898.118042-.4482422,2.3944092-.487793,4.8619385-1.3330078,7.2630615-.640625,1.8200684-.5791016,3.8554688-1.3378906,5.7185059Zm-107.6870117,103.6784668c-2.8339844.3569336-5.6835938.8365479-8.5249023.8267822-3.137207-.0108643-6.2646484.2369385-9.4189453.0831299-3.3491211-.1634521-6.6889648-.3347168-9.9702148-.9487305-2.996582-.560791-6.0126953-1.2233887-8.8764648-2.2446289-4.6884766-1.671875-9.1264648-3.9169922-13.1660156-6.8886719-4.3608398-3.2080078-7.6762695-7.2590332-9.8056641-12.2270508-.7299805-1.7034912-1.237793-3.5118408-.9570312-5.4460449.081543-.5595703-.125-1.1606445-.2070312-1.8033447.4370117-1.1196289.8305664-2.321167,1.3642578-3.456665,1.2641602-2.6883545,3.4775391-4.4343262,6.1298828-5.5411377,2.7290039-1.1387939,5.5688477-1.7476807,8.5981445-1.8692627,3.3154297-.1330566,6.5048828.4390869,9.7163086.9118652,1.8154297.2670898,3.5400391,1.0957031,5.3398438,1.5288086,4.1157227.9907227,7.956543,2.7348633,11.8149414,4.3792725,4.703125,2.0045166,9.3081055,4.2525635,13.8842773,6.538208,3.0161133,1.5064697,5.8398438,3.3657227,8.6533203,5.2399902,5.9208984,3.9438477,10.7612305,8.9311523,14.7460938,14.7839355.2680664.3935547.3710938.8995361.6396484,1.5771484-6.668457,2.4313965-13.2670898,3.713501-19.9604492,4.5563965Zm-17.5332031,144.6662598c2.2783203-3.5725098,5.0180664-6.8461914,8.1948242-9.7021484,1.4018555-1.2600098,2.8012695-2.5274658,4.2670898-3.7106934,3.6162109-2.9195557,7.7124023-5.0512695,12.0375977-6.6337891,2.9101562-1.0646973,5.9882812-1.5015869,9.1630859-1.637207,2.3178711-.0991211,4.0532227.6538086,5.8740234,1.6125488.2822266,2.3260498-1.203125,3.8404541-2.4536133,5.2114258-2.9223633,3.2038574-5.8178711,6.4584961-9.2768555,9.1408691-2.3745117,1.8413086-4.5258789,3.9855957-6.9794922,5.7062988-5.4379883,3.8132324-11.0737305,7.3200684-17.4907227,9.3085938-2.1708984.6728516-4.3764648,1.2419434-6.5844727,1.7836914-.6069336.1489258-1.2797852.02771-1.9619141.0306396,1.0537109-4.2069092,3.0561523-7.7325439,5.2104492-11.1102295Zm231.7807617-39.1655273c-4.3461914,4.3840332-9.3520508,7.6529541-15.3022461,9.413208-3.2402344.9586182-6.527832,1.5196533-9.9189453,1.6912842-1.5532227.0787354-3.0595703.0510254-4.5722656-.1806641-3.2319336-.494873-6.1884766-1.6582031-8.7607422-3.7261963-2.9404297-2.364502-4.1865234-6.1798096-2.6420898-10.052124,1.2426758-3.1154785,3.3618164-5.4552002,5.5649414-7.7757568,4.0727539-4.289917,9.1884766-7.0391846,14.605957-9.1506348,3.7553711-1.4637451,7.7167969-2.3563232,11.7670898-2.7285156,4.3686523-.4014893,8.7094727-.1450195,12.9921875.7130127,1.8798828.3764648,3.6772461,1.1621094,5.78125,1.8498535-.9594727,7.8789062-4.0708008,14.4542236-9.5151367,19.9465332Zm-30.7949219-105.8029785c2.2050781-6.8503418,6.6401367-11.8024902,12.375-15.6879883,3.2978516-2.2344971,7.0224609-3.7016602,11.1777344-3.4727783,1.8549805-.7698975,3.5253906.1048584,5.1318359.7498779,2.6362305,1.0583496,4.0595703,3.1694336,4.5976562,5.9615479.7084961,3.6779785.4257812,7.2205811-1.1147461,10.6500244-.7543945,1.6789551-1.4287109,3.3737793-2.4765625,4.9301758-2.3876953,3.5455322-5.456543,6.262207-9.2216797,8.2344971-5.4858398,2.873291-8.8984375,3.8868408-15.1806641,4.8631592-2.1977539-2.2802734-3.9228516-4.7851562-4.9160156-7.6103516-.9672852-2.75-1.3666992-5.5302734-.3725586-8.6181641Zm-64.6987305-112.7098389c-.137207.072876-.1958008.1040039-.2539062.1351318-.1894531-.5452881-.3789062-1.0905762-.5683594-1.6367188.2075195-.1445312.3525391-.3231201.4575195-.302124.222168.0443115.4233398.1929932.5668945.2655029-.0776367.5910645-.1435547,1.0905762-.2021484,1.538208Zm9.1992188-6.3592529c-.7866211-.4575195-1.5717773-.9177246-2.2382812-1.774292,3.2275391-.3118896,6.4526367-.6453857,9.6826172-.9290771,2.9350586-.2576904,5.8720703-.5031738,8.8125-.6760254,2.6118164-.1533203,5.2290039-.2097168,7.8442383-.2895508,2.0258789-.0617676,4.0527344-.09375,6.0786133-.1386719.1694336-.0037842.3398438-.0205078.5073242-.0058594,4.0161133.3503418,8.0893555.3969727,12.0336914,1.1333008,5.222168.9748535,10.2832031,2.6621094,15.2075195,4.7265625,4.9267578,2.0649414,9.5390625,4.6401367,13.8955078,7.7336426,2.8022461,1.9899902,5.1948242,4.3994141,7.4614258,6.9182129,2.019043,2.2436523,3.7412109,4.7541504,5.7109375,7.2967529-3.9594727,2.2913818-8.0859375,3.1790771-12.253418,3.868042-3.5800781.5917969-7.1962891.7053223-10.8344727.7866211-4.7871094.1069336-9.425293-.8006592-14.0898438-1.4854736-3.503418-.5142822-6.940918-1.5880127-10.222168-2.9321289-5.8115234-2.3807373-11.0517578-5.7495117-15.9912109-9.6395264-4.1220703-3.2463379-8.3461914-6.3776855-12.6728516-9.3441162-2.8413086-1.947876-5.9458008-3.5118408-8.9321289-5.2484131Zm92.0317383,55.0241699c-.8198242,3.0380859-2.168457,5.7193604-3.9990234,8.1376953-2.0498047,2.708252-4.4277344,5.078125-7.4204102,6.9238281-2.8544922,1.760498-5.7587891,3.2802734-8.9003906,4.3859863-3.7680664,1.3261719-7.6542969,2.0046387-11.6489258,2.0532227-2.3666992.0288086-4.7382812.135498-7.0991211.0239258-1.159668-.0548096-2.4047852.0024414-3.4658203-.8010254-.3642578-.2756348-1.0004883-.1881104-1.5107422-.2752686-8.4663086-1.4459229-15.8925781-5.1088867-22.4111328-10.6346436-3.3935547-2.8764648-6.5869141-5.9951172-9.1835938-9.6115723-2.9824219-4.1535645-5.3662109-8.6584473-7.2524414-13.4375-2.1137695-5.355835-3.7368164-10.8275146-4.7280273-16.5028076-.7084961-4.0557861-1.5791016-8.0836182-2.3955078-12.1199951-.1826172-.9023438-.4433594-1.7890625-.7597656-3.0488281,1.8803711.2325439,2.9868164,1.3637695,4.2910156,2.0439453,6.0205078,3.1400146,11.4125977,7.2734375,17.1298828,10.8939209,3.9819336,2.5217285,8.2216797,4.5413818,12.6289062,6.2885742,3.2304688,1.2807617,6.5913086,2.0552979,9.8500977,3.1945801,2.2382812.7823486,4.6455078,1.1297607,7.003418,1.5075684,3.246582.5201416,6.5117188.9376221,9.7792969,1.3060303,6.0107422.6774902,12.0014648.7336426,17.9301758-.7539062,1.9619141-.4921875,3.9350586-.8918457,5.784668-1.7810059,1.0463867-.5030518,2.2124023-.7576904,3.4150391-1.1541748,1.4438477,2.2489014,2.1088867,4.8044434,2.7939453,7.3314209.8847656,3.2642822,1.2543945,6.6386719,1.2172852,9.994873-.0214844,2.0061035-.5053711,4.0219727-1.0488281,6.0351562Zm-93.4052734-71.1999512c3.2216797-2.2402344,6.5615234-4.3276367,9.956543-6.2995605,4.847168-2.8157959,9.9482422-5.1171875,15.2792969-6.8793945,4.4916992-1.4847412,9.1206055-2.3657227,13.8076172-2.8743896,3.7041016-.4019775,7.4301758-.2750244,11.1601562-.2510986,5.4667969.0349121,10.8007812.9719238,16.1381836,1.8127441,3.2133789.5063477,6.3359375,1.692627,9.409668,2.8864746,5.6279297,2.1862793,10.2700195,5.8397217,14.496582,9.9733887,3.6733398,3.5925293,6.6547852,7.7817383,8.0644531,12.8486328.8852539,3.1835938,1.3466797,6.4205322,1.0356445,9.7637939-.2797852,3.008667-1.0239258,5.8731689-2.2558594,8.6014404-.5097656,1.1287842-1.3227539,2.1206055-2.1186523,3.362793-.6010742-.6341553-1.0317383-1.0234375-1.3857422-1.4731445-1.4433594-1.8352051-2.8203125-3.7242432-4.300293-5.5291748-4.1728516-5.0897217-8.847168-9.6418457-14.1210938-13.6196289-3.3955078-2.560791-7.046875-4.6832275-10.8110352-6.5291748-3.1479492-1.543457-6.4951172-2.7429199-9.9272461-3.7155762-4.3793945-1.2412109-8.7788086-2.2132568-13.2929688-2.6601562-3.0410156-.3009033-6.0942383-.310791-9.1567383-.2875977-2.3710938.0180664-4.7368164-.0509033-7.0996094.2028809-3.6767578.3948975-7.3720703.6624756-11.0263672,1.206543-3.902832.5808105-7.7963867,1.2941895-11.6376953,2.1918945-2.4624023.5754395-4.8222656,1.5915527-7.2304688,2.4014893-.2241211.0753174-.4692383.0880127-.7041016.1297607-.0664062-.1019287-.1323242-.2038574-.1982422-.3059082,1.9638672-1.6650391,3.8134766-3.4938965,5.9179688-4.9570312Zm-124.1533203,25.7592773c-.7734375.1640625-1.387207-.1430664-2.0839844-.5770264-3.1074219-1.9356689-6.0737305-4.0457764-8.640625-6.6665039-1.597168-1.630249-2.3129883-3.753418-3.027832-5.8414307.0107422-2.8197021,1.3237305-5.0198975,3.152832-7.041626,1.5532227-1.7165527,3.1347656-3.3831787,5.0195312-4.7374268,3.2158203-2.3100586,6.340332-4.7657471,9.6865234-6.8684082,2.4213867-1.5214844,5.1152344-2.6252441,7.7314453-3.8183594,4.8642578-2.2177734,9.9741211-3.5778809,15.2675781-4.3383789,3.3461914-.480835,6.6870117-.6787109,10.0649414-.8171387,4.1333008-.1691895,8.1782227.1871338,12.2592773.6373291,4.5458984.5013428,8.7592773,2.0562744,12.8330078,3.9311523,5.2783203,2.4290771,10.3442383,5.2950439,15.3076172,8.3283691,1.9389648,1.1849365,3.8935547,2.3446045,5.9311523,3.5699463-.3183594.0983887-.3994141.1499023-.4746094.1428223-5.2202148-.498291-10.4375-1.0236816-15.6601562-1.487793-1.2597656-.1118164-2.5375977-.0241699-3.8071289-.0241699-1.269043-.0002441-2.4790039-.3369141-3.8232422-.0921631-1.4575195.2652588-3.0371094-.0356445-4.5693359-.0395508-3.8188477-.0098877-7.5708008.524292-11.3325195.9571533-5.0297852.5787354-9.909668,1.8378906-14.7709961,3.2949219-4.4169922,1.3237305-8.6079102,3.1157227-12.6123047,5.2873535-6.2670898,3.3988037-11.175293,8.3562012-15.1230469,14.2739258-.4223633.6337891-.8637695,1.2548828-1.328125,1.927002Zm1.2070312,36.263916c-1.4555664-4.2890625-.1015625-8.8990479.7631836-13.2570801.5195312-2.6191406,1.6782227-5.1027832,2.9780273-7.4708252.8486328-1.5457764,1.5405273-3.2005615,2.8886719-4.4777832,47.2939453,9.4100342,80.8413086-8.1419678,81.6699219-8.243042-3.581543,5.4194336-74.8979492,72.9384766-88.2998047,33.4487305Zm51.2045898-28.6894531c-3.4238281.3583984-6.8730469.4899902-10.3139648.6340332-1.8642578.0778809-3.7387695-.0987549-5.609375-.1383057-1.3535156-.0286865-2.7094727.0172119-4.0615234-.039917-1.3544922-.057373-2.7041016-.1196289-4.0610352-.1273193-2.5751953-.0145264-5.1450195-.5811768-7.722168-.87854-2.5444336-.2938232-5.0571289-.7016602-7.5878906-1.8028564.2578125-.335083.4458008-.694458.7329102-.9354248,4.0292969-3.3800049,8.6298828-5.7866211,13.3999023-7.9298096,4.4990234-2.0212402,9.2583008-3.2019043,14.0307617-4.2149658,4.0947266-.8691406,8.2988281-1.255127,12.4692383-1.7263184,3.2568359-.368042,6.543457-.8103027,9.8037109-.7233887,3.4833984.0927734,6.9794922.0405273,10.4526367.0588379,2.9775391.015625,5.9174805.9632568,8.8994141.3231201.0800781-.0172119.1713867.0137939.2573242.0251465,4.956543.6507568,9.9130859,1.3018799,15.2807617,2.0070801-2.1679688,2.3382568-8.8515625,11.5826416-45.9707031,15.4686279Zm52.8725586-33.8164062c-1.7597656-1.4599609-3.293457-3.2111816-4.8164062-4.9318848-1.8769531-2.1201172-3.7734375-4.2453613-5.4140625-6.545166-1.5708008-2.2032471-2.824707-4.6328125-4.2177734-6.9630127.1870117-.1414795.3745117-.2830811.5620117-.4246826,2.5717773,1.1525879,4.4121094,3.3095703,6.4267578,5.1612549,2,1.8378906,3.6948242,4.0076904,5.3945312,5.8890381,1.2661133.1662598,2.2832031.2999268,3.4018555.4467773,1.1586914-1.5424805,2.6884766-2.8842773,1.9990234-5.1486816-.0473633-.1557617-.0727539-.3492432-.0249023-.4980469,1.0253906-3.1748047,1.171875-6.7269287,3.7924805-9.2247314,1.1020508-1.050415,2.3076172-2.0324707,4.0541992-1.571167,1.2060547,1.0550537,1.3544922,2.6508789,1.2832031,3.9692383-.171875,3.1826172-.6381836,6.3647461-1.2163086,9.5047607-.3632812,1.9749756-1.0634766,3.9023438-1.7548828,5.7993164-1.0273438,2.8201904-2.1811523,5.5943604-3.3271484,8.5050049-2.4438477-1.0266113-4.3427734-2.4744873-6.1425781-3.9680176Z" stroke-width="0"/>
  </g>
</svg>