<?xml version="1.0" encoding="UTF-8"?>
<svg id="Layer_2" data-name="Layer 2" xmlns="http://www.w3.org/2000/svg" viewBox="0 0 171.8251256 191.260478">
  <g id="Layer_1-2" data-name="Layer 1">
    <g>
      <path d="m28.2726388,137.8489076c-1.9365234,1.5587158-4.0410156,2.9699707-6.0761719,4.3354492-.784668.5253906-1.5688477,1.0515137-2.3452148,1.5872803-4.2519531,2.9300537-8.6411133,6.2738037-11.9423828,10.8673096-2.4023438,3.3428955-4.7475586,6.8123779-7.015625,10.1677246l-.1347656.1988525c-.3251953.4805908-.5771484,1.1276855-.7109375,1.8223877-.1357422.7060547.0214844,1.3530273.4423828,1.8222656.4296875.4786377,1.0981445.7185059,1.8447266.6556396.277832-.0228271.5629883-.0837402.8378906-.1436768l.0786133-.0161133c.6918945-.1485596,1.3813477-.3103027,2.0708008-.472168,1.5009766-.3520508,3.0532227-.7155762,4.6035156-.9296875,1.4448242-.199707,2.9243164-.3044434,4.3549805-.4052734,1.2670898-.0894775,2.5776367-.1827393,3.8554688-.3406982l.8681641-.1065674c3.871582-.4729004,7.875-.9621582,11.5268555-2.6578369.0336914-.0152588.065918-.0198975.097168-.0198975.0375977,0,.0722656.0075684.1030273.0141602.0195312.0048828.0429688.0095215.0703125.0134277l.1181641.0170898.0258789.1169434c.0083008.0400391.0195312.0809326.0302734.1228027.0263672.0998535.0556641.2131348.0639648.3311768l.1328125,1.8898926c.1381836,1.9649658.2817383,3.9976807.4023438,5.9979248.2548828,4.2116699-.6523438,8.2587891-2.6972656,12.0310059-.6420898,1.1838379-1.105957,2.4588623-1.4746094,3.550293-.3041992.8994141-.1889648,1.7386475.315918,2.302002.5175781.5786133,1.3652344.7907715,2.3271484.5804443.3105469-.0675049.6733398-.1561279,1.0126953-.3016357.3466797-.1484375.6948242-.2940674,1.043457-.4406738,1.0961914-.4604492,2.2299805-.9372559,3.3071289-1.473877,3.1933594-1.5939941,5.9833984-3.8825684,8.6816406-6.0949707l.9716797-.7956543c4.659668-3.796875,10.0756836-8.3845215,14.9199219-13.6171875,4.3183594-4.6628418,8.4077148-10.0441895,12.8696289-16.9346924,6.8198242-10.53125,11.2026367-19.9349365,13.7915039-29.5946045,2.4091797-8.9858398,3.8115234-18.729248,4.2880859-29.7858887.2353516-5.4468994.3071289-10.9936523.3764648-16.3588867.0200195-1.5395508.0400391-3.0803223.0639648-4.619873.0683594-4.4316406.4697266-8.3598633,1.2270508-12.0111084.0200195-.0960693.0595703-.1817627.1054688-.2816162.0234375-.0495605.0493164-.1057129.0766602-.1713867l.1020508-.2445068.1816406.1922607c.1455078.1540527.2875977.3006592.4262695.4433594.296875.3063965.5776367.5957031.8374023.9060059,2.4990234,2.9890137,4.3237305,6.5803223,5.4223633,10.6759033l.203125.7564697c2.1293945,7.9316406,4.331543,16.1324463,5.5166016,24.4274902.1386719.9677734.3208008,1.947998.4980469,2.8967285.265625,1.4263916.5405273,2.9023438.6708984,4.371582.1816406,2.0439453.4331055,4.2355957,1.0419922,6.407959.0996094.3579102.1977539.7155762.2958984,1.0734863.7255859,2.6491699,1.4765625,5.3879395,3.0507812,7.751709.9467773,1.4206543,1.6166992,3.0964355,2.1088867,5.2746582.293457,1.295166.5761719,2.5939941.8598633,3.8920898.7929688,3.6340332,1.6123047,7.3918457,2.6455078,11.0202637,2.034668,7.1446533,4.6630859,14.5871582,8.5234375,24.1296387,1.6967773,4.1965332,4.0395508,8.217041,7.1616211,12.2897949,2.8037109,3.6561279,6.2792969,6.7658691,9.3168945,9.3942871,1.0092773.8735352,2.2192383,1.5625,3.3891602,2.2294922l.402832.2293701c.6396484.3673096,1.5986328.6337891,2.5332031-.1873779.6591797-.5766602.7807617-1.3751221.3813477-2.5113525-.1181641-.3387451-.1245117-.7384033-.015625-1.0172119.519043-1.3342285,1.0512695-2.6625977,1.5825195-3.9909668.5400391-1.3483887,1.0800781-2.6977539,1.6064453-4.0510254.4829102-1.2408447,1.1020508-2.4389648,1.7011719-3.5979004.8549805-1.6539307,1.7387695-3.3630371,2.2255859-5.2043457.0205078-.0808105.0869141-.1341553.1962891-.1569824l.1137695-.0380859.0585938.0980225c.1069336.1341553.2070312.2730713.3061523.4119873.2099609.2932129.4082031.5690918.6591797.7746582,2.0097656,1.6519775,3.7788086,3.7911377,5.5664062,6.7315674.4194336.6889648,1.0458984,1.3874512,1.862793,2.074585.5649414.475708,1.2617188.635498,1.9150391.4367676.6694336-.2045898,1.1738281-.7423096,1.3833008-1.4769287.0917969-.3197021.1259766-.671875.1586914-1.0125732l.0161133-.1655273c.0654297-.6452637.125-1.2902832.1850586-1.9355469.0537109-.5756836.1074219-1.1513672.1645508-1.7270508.6669922-6.7241211,1.2543945-13.8981934.4868164-21.1778564-.4306641-4.0860596-1.1000977-7.1407471-2.1704102-9.9031982-1.7661133-4.5581055-4.3979492-9.0202637-8.5317383-14.4680176-3.1665039-4.1728516-6.4868164-8.652832-9.2265625-13.5126953-2.5029297-4.439209-5.2539062-9.1286621-8.4111328-14.3358154-1.2670898-2.0897217-2.5991211-4.1888428-3.8881836-6.2186279-1.6206055-2.5532227-3.296875-5.1928711-4.8603516-7.8411865-2.8706055-4.8636475-5.0283203-10.1668701-7.1147461-15.2950439-.2875977-.7078857-.5751953-1.414917-.8647461-2.1210938-.0327148-.0788574-.0395508-.1589355-.0493164-.2797852-.0048828-.0665283-.0117188-.1512451-.0244141-.2634277l-.0463867-.3920898.3178711.2331543c.4228516.3101807.8359375.604248,1.2392578.890625.8647461.6157227,1.6816406,1.1971436,2.4560547,1.838501,1.1176758.9259033,2.2348633,1.8897705,3.3139648,2.8223877,1.2363281,1.067749,2.5136719,2.1706543,3.7983398,3.2202148,3.8012695,3.105957,7.59375,4.9083252,11.5952148,5.5107422,3.8754883.583252,7.1816406.1123047,10.1035156-1.4406738,2.6972656-1.434082,4.1992188-3.6845703,4.4619141-6.6898193.1103516-1.2589111.1040039-2.5455322.0864258-3.8624268-.0180664-1.3798828.4155273-2.5266113,1.2880859-3.409668,1.0009766-1.0124512,1.918457-1.8632812,2.8041992-2.6005859,1.949707-1.621582,3.0893555-3.559082,3.484375-5.9238281.5263672-3.1563721.3178711-5.9873047-.637207-8.6518555-.4863281-1.355957-1.1108398-2.6929932-1.7158203-3.9862061l-.0571289-.1236572c-1.2802734-2.7407227-1.2050781-5.4099121.2236328-7.9354248.5234375-.9239502,1.1010742-1.8365479,1.6591797-2.7186279.4575195-.7214355.9291992-1.4674072,1.3686523-2.2143555.5805664-.9887695.9736328-1.8110352,1.2382812-2.5874023.2939453-.8641357.5063477-1.7766113.7119141-2.6588135.0678711-.2940674.1367188-.5880127.2080078-.8812256,1.1274414-4.6228027.4941406-8.5585938-1.9355469-12.032959-.7675781-1.0980225-1.6831055-2.2095337-2.8808594-3.4989014-4.0537109-4.3630981-8.7768555-6.8248901-14.4399414-7.5252075-4.0444336-.4986572-8.2924805-.2122192-12.987793.8792725-5.550293,1.2884521-10.6484375,3.7901611-15.1523438,7.4347534-7.2021484,5.8284912-12.2416992,11.2963867-15.859375,17.2067871-.7070312,1.1551514-1.5068359,2.2762451-2.2807617,3.3609619-.375.5263672-.75,1.0524902-1.1166992,1.5834961l-.0888672.128418c-.1464844.2094727-.2983398.4263916-.402832.6518555-.2207031.4758301-.246582.9544678-.0732422,1.3846436.1757812.4385986.5522461.7888184,1.0600586.9866943,1.3930664.543457,2.9130859.8641357,4.9306641,1.0419922,3.206543.2856445,6.3647461-.6289062,9.9233398-2.8660889,1.3261719-.8326416,2.6240234-1.7672119,3.8789062-2.6702881.4931641-.3548584.9858398-.7097168,1.4824219-1.059082,2.0390625-1.4377441,4.1459961-2.9233398,6.5283203-3.8653564,2.9746094-1.1741943,6.2636719-1.8184814,9.7763672-1.9136963,2.4091797-.0646973,4.8613281-.0627441,7.2260742-.0627441,1.3193359.0047607,2.6362305.0029297,3.9541016-.0075684,4.4936523-.0343018,9.7739258-.3017578,14.8681641-2.026001.1098633-.0371094.2084961-.0238037.3203125-.0313721l.1333008-.0095215.0424805.1264648c.0102539.0324707.0224609.0620117.0336914.0895996.0292969.0722656.0595703.1464844.0615234.2331543.0092773.473877.0224609.9477539.0351562,1.4216309.0361328,1.3217773.0732422,2.6882324.0405273,4.0328369-.0146484.6033936-.2407227,1.2922363-.6049805,1.8431396-.6171875.9365234-1.3222656,1.8337402-2.0039062,2.7016602l-.4111328.5252686c-1.7270508,2.2125244-3.0029297,4.7332764-3.7929688,7.4927979-.5913086,2.0650635-.3632812,4.2717285.7177734,6.9448242,1.0922852,2.7043457,1.7099609,5.6486816,2.0029297,9.5454102.105957,1.4112549-.2529297,2.5455322-1.0961914,3.470459-.7480469.8183594-1.5844727,1.6862793-2.5581055,2.6540527-1.4086914,1.4007568-2.9155273,3.1593018-3.4082031,5.5849609-.1870117.920166-.390625,1.8994141-.6425781,2.8662109-.4575195,1.7490234-1.5898438,2.8071289-3.3652344,3.1450195-2.7504883.5214844-5.2480469.4671631-7.6401367-.1713867-3.0800781-.8183594-5.9946289-2.5368652-8.9077148-5.2526855-7.9238281-7.3863525-17.2719727-12.7248535-25.3710938-16.9718018-2.0146484-1.0562744-4.1855469-1.9869385-6.6323242-.8050537l-.3286133.1599121.0869141-.3549805c.0927734-.3758545.1801758-.7412109.2661133-1.1000977.1791992-.7469482.3476562-1.4539795.5380859-2.1618652.7900391-2.935791.8632812-5.831543.2182617-8.6081543-.3154297-1.3608398-.9921875-2.6407471-2.0112305-3.8035889-1.6533203-1.888916-3.8046875-2.3009033-6.0595703-1.1685791-1.5947266.8032227-2.8125,1.9851074-3.722168,3.6142578l-.2285156.4091797-.0898438-.4597168c-.2460938-1.2598877-1-1.8984375-2.4433594-2.0697021l-.1367188-.0162354-.0136719-.1369629c-.0727539-.7250977-.0664062-.7108154-.7866211-.7250977-.7319336,0-1.4770508.0209961-2.1977539.0408936l-.8603516.0218506c-.0161133.0009766-.0322266.0009766-.0478516.0009766-.6567383,0-1.1660156-.3234863-1.4750977-.9382324l-.128418-.2541504c-.3222656-.6374512-.6552734-1.2960205-.9375-1.9669189-1.9013672-4.519165-4.4306641-8.7127686-6.8793945-12.5714111-.7666016-1.2076416-1.7421875-2.4647217-3.0703125-3.954834-2.9580078-3.3192139-6.7407227-5.477478-10.0507812-7.1503906-4.6943359-2.37323-10.0297852-3.984314-17.3012695-5.2242432-3.5742188-.6090088-6.5449219-.6185303-9.3491211-.0209351-4.6074219.9763794-8.2670898,3.3505859-10.8769531,7.0570679-.3354492.4767456-.5869141,1.0353394-.8300781,1.5758057-.1333008.296875-.2670898.59375-.4145508.880249-.1342773.2615967-.2851562.5548096-.5151367.7593994-2.7719727,2.4606934-3.7260742,5.3518066-2.9160156,8.8383789.0917969.3967285.0283203.8364258-.0410156,1.1342773-.1889648.8060303-.3959961,1.6081543-.6030273,2.4104004-.3876953,1.4997559-.7880859,3.0517578-1.0532227,4.5961914-.8408203,4.9007568.5532227,9.0944824,4.1430664,12.4639893.6298828.5899658,1.2592773,1.1800537,1.8911133,1.7680664.7319336.682251.7382812.7984619.0952148,1.5701904-2.5742188,3.0869141-4.5078125,6.5754395-5.7470703,10.3695068-1.1020508,3.3734131-1.7705078,6.2529297-1.4511719,9.3408203.4833984,4.6761475,2.6113281,8.1912842,6.5048828,10.748291,7.1147461,4.6722412,17.6733398,4.1004639,24.0366211-1.3027344,1.8432617-1.5644531,3.8500977-2.9927979,5.7910156-4.3745117.8613281-.612793,1.7231445-1.225708,2.5732422-1.8518066.1469727-.1085205.3076172-.1903076.4633789-.2701416.0688477-.0352783.1381836-.0705566.2055664-.107666l.4663086-.2587891-.2280273.4824219c-.7202148,1.5244141-1.5029297,2.8900146-2.2412109,4.1394043-3.9609375,6.6936035-6.831543,14.4177246-9.0356445,24.3085938-.6083984,2.7329102-.543457,5.5695801-.4799805,8.3121338l.0195312.8831787c.0932617,4.5932617-.9462891,9.067627-3.1772461,13.6800537-3.4326172,7.0950928-8.6489258,13.3994141-15.9462891,19.2745361ZM166.9533029,14.6459047c-1.519043.2589111-2.9580078.7774658-4.3496094,1.2799072-1.6928711.6099854-3.4428711,1.2418213-5.2998047,1.3779297-2.0102539.1474609-3.5449219.217041-4.9760742.2265625-1.4707031.0113525-2.9628906-.0058594-4.40625-.0200195-2.3730469-.0247803-4.828125-.0476074-7.237793.0341797-4.7519531.1646729-8.4130859.9401855-11.5200195,2.4399414-1.8579102.8963623-3.6352539,2.0544434-5.3535156,3.173584l-.8066406.5251465c-1.050293.6794434-2.0986328,1.4018555-3.112793,2.1011963-1.340332.9239502-2.7255859,1.8793945-4.1347656,2.7491455-.890625.5490723-1.8920898.9373779-2.8603516,1.3122559-.4018555.1560059-.8037109.3121338-1.1977539.4787598-.1484375.0627441-.3027344.0864258-.4819336.1141357-.0874023.0133057-.1826172.0284424-.2871094.0494385l-.3369141.067627.1479492-.3103027c.0351562-.0732422.0620117-.1341553.0844727-.1855469.043457-.0998535.0751953-.1722412.1259766-.2416992,5.1054688-7.0351562,10.2583008-12.7971191,15.7524414-17.6169434,5.2016602-4.5628052,11.0283203-7.2700806,17.3193359-8.0475464,3.7949219-.4719849,7.6630859-.2503052,11.4960938.6508789,3.5058594.8259888,6.0703125,3.0527344,7.9130859,4.9006958.8442383.8469238,1.6000977,1.8061523,2.3305664,2.7330322.2714844.3444824.543457.6899414.8203125,1.029541.1298828.1608887.2172852.3483887.3183594.5653076.0512695.1103516.1074219.2312012.1762695.3643799l.1083984.2084961-.2319336.039917Zm-60.4106445,40.1915283c1.9956055,1.086792,4.0483398,2.1516113,6.0332031,3.1802979l.8354492.43396c.5087891.2635498.7666016.6650391.9980469,1.1865234l.3178711.7175293c.6987305,1.581543,1.4213867,3.2164307,2.2792969,4.7370605,2.4555664,4.3525391,4.4819336,8.9117432,6.4418945,13.3204346,2.6157227,5.8846436,5.9697266,11.2935791,8.9067383,15.8088379,4.3208008,6.6431885,8.2177734,13.3433838,11.581543,19.9140625,2.6259766,5.1290283,6.1328125,10.0345459,11.0361328,15.4377441,4.0610352,4.4743652,6.7563477,9.0467529,8.2402344,13.9779053,1.1347656,3.7692871,1.6757812,7.7231445,1.6083984,11.7531738-.0507812,3.0812988-.1782227,6.2130127-.3017578,9.2409668-.0507812,1.255127-.1020508,2.5102539-.1479492,3.7663574-.0053711.1569824-.0253906.3149414-.0522461.5224609-.0136719.1085205-.0292969.2302246-.0458984.3740234l-.0424805.3768311-.9584961-1.0562744c-1.0449219-1.1495361-2.4760742-2.5939941-4.2788086-3.5666504-.9311523-.5024414-1.8491211-.9020996-2.855957-.2502441l-.1870117.119873-.0698242-.2111816c-.0136719-.0418701-.0268555-.078125-.0390625-.1113281-.0273438-.0732422-.0512695-.137085-.0615234-.2103271-.0463867-.3131104-.1982422-.84021-.690918-.84021-.3549805,0-.855957.1645508-1.0361328.4082031-.1821289.24646-.3666992.4919434-.5522461.7375488-.8271484,1.0981445-1.6826172,2.2342529-2.2675781,3.4637451-1.9970703,4.1945801-3.4814453,8.1656494-4.5361328,12.1405029-.0302734.1131592-.0683594.2244873-.1206055.3720703l-.1879883.5517578-.1972656-.2207031c-.0869141-.0979004-.1645508-.1884766-.2373047-.2722168-.137207-.1588135-.2548828-.2958984-.3828125-.4213867-.3085938-.3017578-.6142578-.6062012-.9204102-.9107666-.7592773-.7546387-1.5439453-1.5349121-2.3535156-2.2581787-5.2915039-4.7303467-9.3789062-10.6911621-12.4941406-18.2230225-3.8203125-9.2371826-6.8022461-18.6464844-9.5288086-27.4935303l-.3105469-1.0067139c-.7382812-2.3999023-1.5019531-4.8826904-2.3354492-7.2930908-.7875977-2.2770996-1.934082-4.3305664-3.4077148-6.1044922-.1977539-.237793-.3193359-.5356445-.4023438-.7678223-1.2407227-3.4609375-2.0639648-6.7734375-2.519043-10.1287842-.1298828-.9592285-.3583984-1.9849854-.71875-3.2287598-.8442383-2.9110107-1.3071289-5.9398193-1.7543945-8.8679199l-.0258789-.166626c-.09375-.6147461-.2807617-1.2321777-.4614258-1.829834-.1621094-.53479-.3295898-1.088623-.4345703-1.6491699-.2441406-1.3122559-.390625-2.5910645-.4350586-3.8015137-.2558594-6.9819336-1.6767578-13.6763916-4.2226562-19.8979492-1.3666992-3.3381348-2.7426758-5.685791-4.4614258-7.6136475-.6293945-.7061768-1.3686523-1.3656006-2.1972656-1.9632568-1.1875-.8535156-2.2207031-.9866943-3.3476562-.4281006l-.3154297.1560059.0712891-.3443604c.0668945-.3255615.0761719-.6595459.0854492-.9821777.0214844-.7507324.0439453-1.5281982.7998047-2.1696777l.1103516-.0932617.1108398.0932617c1.5678711,1.3199463,3.1445312,1.8527832,4.8173828,1.6225586,1.6918945-.2302246,3.0605469-1.1657715,4.3056641-2.9433594l.1870117-.2663574.1147461.3044434c.5830078,1.552124,1.875,2.2553711,3.0151367,2.8747559Zm-16.0649414-17.434082c.2949219-.1085205.7026367-.098999,1.0400391.0285645.6787109.2521973,1.1591797.1540527,1.5107422-.3054199l.1323242-.1743164,1.1206055,1.3457031h0c.2631836.0389404.3828125-.0714111.4921875-.4150391.1503906-.4709473.394043-.9057617.6850586-1.2236328.8227539-.901123,1.9018555-1.5397949,3.2070312-1.8994141,1.8754883-.5177002,3.8657227.612793,4.6298828,2.630127.8295898,2.1887207.8027344,4.3964844-.078125,6.3824463-.7280273,1.6414795-1.715332,3.3400879-3.0195312,5.1918945-.6323242.899292-1.2885742,1.3255615-1.9677734,1.2836914-.6918945-.0494385-1.3413086-.6270752-1.8759766-1.6719971-.9125977-1.7813721-1.2104492-3.7445068-1.4985352-5.6429443l-.1064453-.692749c-.0722656-.4700928-.1474609-.9562988-.2441406-1.4283447-.0112305-.0561523-.0244141-.1113281-.0380859-.1665039-.0820312-.3416748-.1757812-.7288818.2485352-1.1086426,0-.0446777-.0791016-.3568115-.2021484-.614624-.0375977-.0791016-.1518555-.1542969-.262207-.2265625-.0366211-.0238037-.0732422-.048584-.1083984-.0732422-.0078125-.0009766-.0151367-.0029297-.0229492-.0047607l-.0317383-.0067139c-1.8129883.1541748-2.4780273.7175293-3.0576172,2.5532227-.4487305,1.4206543-.5483398,2.6682129-.3046875,3.8129883.2524414,1.1838379.5673828,2.3780518.8725586,3.5322266.1298828.4910889.2592773.9821777.3847656,1.4731445.0234375.090332.0498047.1807861.0825195.2930908l.1533203.5262451-.496582-.1265869c-.1381836-.0343018-.2529297-.0618896-.3637695-.0999756-.9228516-.3149414-1.8457031-.633667-2.7666016-.9572754l-.1308594-.0456543c-.2587891-.090332-.5263672-.1835938-.7758789-.3149414-.9238281-.4901123-.9790039-.6403809-.5917969-1.6130371.5522461-1.3873291.246582-2.6054688-.8837891-3.5227051-.3969727-.3216553-.3681641-.6014404-.1933594-.9487305.2368164-.4702148.4648438-.9440918.6918945-1.4179688.2949219-.612793.5986328-1.246582.9199219-1.8603516.6210938-1.1838379,1.5791016-2.0220947,2.8496094-2.4912109ZM26.4279122,14.3147279c.1103516-.2492676.3291016-.4320068.5410156-.6088867.0566406-.0476074.112793-.0952148.1660156-.1428223.1064453-.0952148.2226562-.177002.3393555-.2597656.1030273-.0722656.2055664-.1446533.2998047-.2275391.2421875-.2121582.4882812-.4499512.7519531-.7269287.1176758-.1226807.2148438-.2769775.2866211-.3968506.0693359-.1160889.1289062-.2416992.1894531-.366333.1259766-.2617188.2568359-.5318604.4682617-.7346191,3.2363281-3.1079102,6.7509766-4.8093872,10.7446289-5.2005005,2.1274414-.2074585,4.4233398-.0123291,7.2231445.6176147,4.2675781.9611206,9.8344727,2.3789673,15.0454102,4.8388672,4.5244141,2.135376,8.1323242,5.1414795,10.7250977,8.9355469,1.5488281,2.2666016,3.0439453,4.6247559,4.4897461,6.9038086.621582.9799805,1.2426758,1.9592285,1.8701172,2.9345703.0751953.1171875.1230469.246582.1455078.3083496l.1313477.3587646-.34375-.109375c-.8110352-.3187256-1.6230469-.642334-2.4375-.9659424-1.7353516-.6899414-3.5297852-1.4025879-5.3085938-2.0772705-5.1005859-1.9355469-10.5341797-2.5987549-16.6147461-2.0230713-3.3422852.3149414-6.3354492.7316895-9.1513672,1.2741699-4.2802734.8269043-8.6518555.2073975-13.3671875-1.8908691-1.4287109-.6356201-2.8203125-1.4472656-4.1357422-2.4141846-2.4482422-1.7984619-3.3134766-5.1746826-2.0585938-8.0267334Zm25.6064453,52.9515381c-1.737793,1.4654541-3.6162109,2.8167725-5.4326172,4.1241455l-.1137695.0809326c-1.8305664,1.3189697-3.9165039,1.9859619-6.206543,1.9859619-.1435547,0-.2880859-.0028076-.4335938-.0085449l-.824707-.0266113c-2.2177734-.0704346-4.5107422-.1428223-6.7041016-.8535156-3.8115234-1.2362061-6.496582-3.2717285-8.2075195-6.2235107-1.1162109-1.9268799-1.5581055-3.9044189-1.3510742-6.0445557.3852539-3.9880371,1.2226562-7.1254883,2.6347656-9.8728027,1.0708008-2.0830078,2.6015625-3.777832,4.2084961-5.4744873.1318359-.1398926.2954102-.2369385.4541016-.3311768l.0810547-.048584c1.1918945-.7183838,1.5131836-1.8288574.8603516-2.9698486-.4360352-.7613525-1.0454102-1.4511719-1.6342773-2.1182861l-.1347656-.1522217c-.3676758-.4168701-.7651367-.8250732-1.1489258-1.2189941-.5053711-.5196533-1.027832-1.0552979-1.4956055-1.6263428-1.3979492-1.7023926-2.1162109-3.708252-2.1347656-5.9616699-.0083008-1.0010986.0415039-2.0163574.090332-2.9995117.0180664-.3634033.0361328-.7279053.0507812-1.0922852.0058594-.1323242.0380859-.2589111.0717773-.394043.0161133-.0637207.0336914-.1313477.0498047-.206543l.050293-.2368164.2070312.1264648c.0488281.029541.0922852.0541992.1313477.0771484.0830078.0476074.1499023.0865479.2094727.1341553,6.0756836,4.8654785,13.1166992,6.7562256,20.9301758,5.6143799,1.0214844-.1484375,2.0419922-.3103027,3.0620117-.4709473,1.9985352-.3150635,4.0654297-.6414795,6.1103516-.8688965,3.4707031-.387207,7.0722656-.2265625,10.7026367.4786377,2.2172852.4300537,4.3706055,1.3417969,6.9833984,2.9556885.5766602.3568115,1.1577148.7060547,1.7387695,1.0544434.7236328.4348145,1.4472656.8696289,2.1621094,1.3178711.1767578.1123047.2851562.2949219.3891602.4719238.0419922.0714111.0839844.1428223.1303711.2075195.0498047.069458.0957031.1464844.140625.2236328.0800781.1379395.1630859.2797852.2607422.3330078,1.0102539.5500488,1.7954102.9401855,2.5463867,1.2646484.9360352.4035645,1.8007812.4082031,2.4365234.010498.644043-.4025879,1.0249023-1.1970215,1.0717773-2.2371826.0048828-.1008301.0195312-.2027588.0307617-.277832l.0283203-.227417,3.1381836.2625732-.1259766.2684326c-.0292969.0732422-.0742188.1826172-.144043.2834473-.8120117,1.1733398-1.2290039,2.3438721-1.2749023,3.5809326-.0117188.315918-.1518555.6280518-.2817383.8953857-.0908203.1846924-.2036133.3549805-.3125.5196533-.0776367.118042-.15625.2369385-.2260742.3597412l-.121582.21875c-.4824219.8649902-.9804688,1.760498-2.0288086,2.2591553-.3652344.1732178-.6625977.5671387-.9501953.9477539-.0688477.0904541-.1367188.1807861-.2055664.2674561-.4663086.5889893-.9199219,1.1894531-1.3735352,1.7889404-.7822266,1.0334473-1.5908203,2.1030273-2.4536133,3.0983887-2.8579102,3.2962646-6.8618164,7.3149414-12.5048828,9.1486816-4.5366211,1.4730225-8.8334961,3.9528809-13.1362305,7.5822754Zm-4.1191406,53.2122803c2.3491211-4.8902588,3.574707-10.3220215,3.6425781-16.145752.0732422-6.2424316,1.300293-12.2290039,3.7514648-18.3029785l.4541016-1.1257324c2.1318359-5.2889404,4.3354492-10.7587891,7.0454102-15.9030762.7294922-1.3845215,1.5708008-2.6958008,2.4414062-4.0300293.2290039-.3500977.6743164-.6650391,1.1074219-.7832031,5.0668945-1.3759766,9.5488281-3.9814453,13.3217773-7.7420654,1.1318359-1.1276855,2.2436523-2.3153076,3.3188477-3.4637451.5029297-.5368652,1.0053711-1.0734863,1.5117188-1.6064453.0419922-.0437012.0874023-.0827637.1513672-.1369629l.2573242-.2246094.3110352.3835449c.1220703.1494141.2397461.2939453.3549805.4405518.8549805,1.0895996,1.7036133,1.7585449,2.6699219,2.1049805.4477539.1607666.5830078.4300537.4379883.8725586-1.7856445,5.4468994-1.8979492,11.2602539-1.9970703,16.3883057-.1704102,8.8518066-.4428711,19.1376953-1.5283203,29.199707-1.6118164,14.9467773-5.2436523,27.5488281-11.1025391,38.5244141l-.5341797,1.0010986c-2.0141602,3.7788086-4.097168,7.6850586-6.4208984,11.3582764-2.0244141,3.1982422-4.4350586,6.2214355-6.7666016,9.1447754l-.2182617.2741699c-3.5322266,4.4295654-7.8354492,9.5795898-12.9731445,14.1862793l-1.2319336,1.1057129c-2.2724609,2.0422363-4.621582,4.1538086-7.0063477,6.1464844-1.0297852.861084-2.1679688,1.6195068-3.2680664,2.3532715-.5048828.336792-1.0092773.6727295-1.5058594,1.0200195l-.1220703.0856934-.3686523-.3930664.0996094-.2712402c.0473633-.1312256.0942383-.2625732.1499023-.3911133,1.7646484-4.0327148,2.4023438-8.2758789,1.9501953-12.9720459-.3261719-3.3829346-.5454102-6.831543-.7578125-10.1668701l-.019043-.2998047c-.0727539-1.1418457-.5107422-2.0068359-1.234375-2.434082-.6655273-.3950195-1.5356445-.3740234-2.4482422.0541992-4.5341797,2.1325684-9.6669922,3.4381104-16.1533203,4.1090088-1.7490234.1807861-3.5224609.4320068-5.2373047.6746826-.7954102.1123047-1.5908203.2246094-2.387207.3310547-.0605469.0076904-.1210938.0114746-.1962891.0153809l-.3310547.0217285.0200195-.2026367c.0029297-.0322266.003418-.0627441.003418-.0913086.0009766-.0789795.0019531-.168457.0522461-.2492676.3164062-.5043945.6298828-1.0107422.9438477-1.5168457,1.7421875-2.8100586,3.543457-5.7172852,5.7939453-8.255127,1.5244141-1.7194824,3.2753906-3.2468262,5.2036133-4.5410156.5976562-.4006348,1.1967773-.800293,1.7954102-1.1999512,4.050293-2.7044678,8.2382812-5.5002441,12.0522461-8.6776123,6.7290039-5.6048584,11.6245117-11.7122803,14.9667969-18.6693115Z" stroke-width="0"/>
      <path d="m142.6036935,54.0152894c-.1469727-.1351318-.3481445-.2045898-.5844727-.2045898-.1035156,0-.2138672.0133057-.3295898.0408936-.7304688.1723633-1.190918.7526855-1.1459961,1.4436035.0439453.6765137.215332,1.3151855.4819336,1.798584.6860352,1.2416992,1.6835938,2.2475586,2.9643555,2.9898682.855957.4957275,1.8134766.7250977,2.8452148.6794434,1.1660156-.0513916,2.190918-.5129395,2.8857422-1.3009033.6679688-.7564697.9873047-1.769043.8989258-2.8527832-.0957031-1.185791-.5712891-2.204834-1.4145508-3.0290527-.7231445-.7070312-1.5517578-1.048584-2.3818359-.9924316-.828125.0571289-1.5888672.5043945-2.1992188,1.2922363-.2973633.385498-.5766602.7983398-.8461914,1.1989746-.1293945.1904297-.2583008.3815918-.3901367.5710449l-.0507812.0732422h-.4311523l-.0141602-.1560059c-.0053711-.0600586-.0151367-.119873-.0239258-.1809082-.0229492-.1474609-.0463867-.3006592-.0229492-.4576416.059082-.3920898-.0273438-.7156982-.2412109-.9135742Zm1.3681641,2.1553955l1.5429688-.2103271.2182617.3502197-.0639648.0922852c-.0317383.0466309-.0634766.1065674-.0961914.1655273-.1035156.1914062-.2021484.3710938-.3789062.3710938h-.0024414c-.2861328-.0026855-.5668945-.0637207-.8378906-.1226807-.1015625-.0218506-.2026367-.0447998-.3037109-.0637207l-.1645508-.0303955.0864258-.552002Z" stroke-width="0"/>
      <path d="m150.1569162,34.5141908c1.1982422.5482178,2.5610352.465332,3.6420898-.2254639,1.0825195-.6898193,1.734375-1.8879395,1.7436523-3.2059326.0112305-1.6119385-.5947266-3.0773926-1.8022461-4.3554688-.1958008-.2064209-.4560547-.3967285-.7734375-.5632324-1.1108398-.5871582-2.1689453-.2607422-2.7617188.8525391-.1274414.237915-.2387695.484375-.3535156.7385254-.0556641.1218262-.1113281.2445068-.1699219.3701172l-.0639648.1369629-.3330078-.109375c-.1206055-.0408936-.230957-.0789795-.34375-.1075439-.1621094-.0418701-.3251953-.0628662-.4858398-.0628662-.3618164,0-.7089844.1047363-.9946289.307373-.3886719.2751465-.6264648.701416-.6694336,1.1999512-.050293.5825195.0273438,1.2076416.2119141,1.7177734.5400391,1.4833984,1.6015625,2.5959473,3.1538086,3.3066406Zm.862793-5.8713379v3.0004883l-.3530273.2692871-1.8535156-1.7290039,2.206543-1.5407715Z" stroke-width="0"/>
      <path d="m126.0592599,40.8918764c-1.2158203.0893555-2.328125-.2949219-3.3105469-1.1485596-.1884766-.1627197-.3457031-.4129639-.4086914-.651001-.1289062-.4804688-.2509766-.7011719-.6118164-.7011719h-.0356445c-.4814453.019043-.7915039.286377-.9492188.8183594-.1889648.6364746-.03125,1.2321777.5117188,1.9298096.6035156.7764893,1.4584961,1.3170166,2.6894531,1.7023926,2.4101562.7536621,4.4174805.5775146,6.1386719-.5482178.855957-.5585938,1.4414062-1.4121094,1.6069336-2.3427734.1420898-.7963867-.0380859-1.581543-.5063477-2.2104492-1.1108398-1.4892578-2.6557617-2.3800049-4.4677734-2.5750732-.6894531-.0733643-1.3339844.1322021-1.765625.5661621-.3720703.3730469-.5444336.8687744-.4858398,1.3978271.0493164.4462891.2119141.8974609.3701172,1.3342285l.0668945.1865234c.0219727.0627441.1547852.1655273.2070312.1712646.0283203-.0123291.1264648-.1275635.1801758-.2589111.0834961-.2045898.1450195-.4187012.2236328-.6898193.0356445-.1236572.0737305-.256958.1191406-.4044189l.0654297-.2160645.190918.1218262c.1386719.0876465.2670898.1636963.3862305.2351074.246582.1455078.4594727.2720947.6479492.435791.0488281.0427246.1000977.0847168.1513672.1274414.3735352.3093262.8383789.6947021.6196289,1.3894043-.2529297.8078613-.8183594,1.2684326-1.6337891,1.3303223Z" stroke-width="0"/>
      <path d="m55.4196115,118.0652162c-.2626953-.229248-.5649414-.3510742-.8564453-.3510742-.0756836,0-.1508789.0085449-.2246094.0256348-.3266602.0742188-.5893555.3112793-.7407227.6661377-.2226562.5206299-.3095703,1.1229248-.2329102,1.611084.2646484,1.6881104,1.2944336,2.9241943,3.0610352,3.6740723,1.6323242.6937256,3.2524414.6375732,4.4453125-.1502686,1.1308594-.7480469,1.7548828-2.0450439,1.7568359-3.6523438.003418-2.7519531-1.2543945-4.5029297-3.8452148-5.3516846-.565918-.1865234-1.2070312-.3359375-1.9604492-.4577637-.9013672-.1456299-1.7202148.0114746-2.4311523.4700928-.6616211.4262695-.8999023.840332-.7954102,1.3817139.1152344.5966797.6083984.7270508,1.1933594.8270264.0532227.0095215.1079102.0151367.1621094.020874.0839844.0095215.168457.019043.2504883.0371094,1.7382812.385376,2.9584961,1.4055176,3.6264648,3.0327148.1464844.3568115.105957,1.0125732-.1630859,1.2913818-.269043.2816162-.8789062.3605957-1.2788086.2568359-.8623047-.2207031-1.5336914-.8430176-1.9428711-1.7994385-.0898438-.208374-.0063477-.5338135.1269531-.7070312.2324219-.3026123.1914062-.5262451-.1508789-.8250732Z" stroke-width="0"/>
      <path d="m71.3639474,90.2805482c1.09375.3406982,2.144043.1818848,3.0366211-.4663086,1.5634766-1.1352539,2.3823242-2.6796875,2.5751953-4.8587646-.0297852-.1094971-.0566406-.2359619-.0849609-.3730469-.074707-.3577881-.1591797-.7640381-.3564453-1.0999756-1.0722656-1.8242188-2.6782227-2.7729492-4.7724609-2.8195801h-.0722656c-.9003906,0-1.6757812.3691406-2.2446289,1.0705566-.3496094.4300537-.3569336.9154053-.0229492,1.5244141.1171875.2141113.2348633.3339844.3496094.3549805.1083984.0151367.2412109-.0410156.4008789-.1779785.0766602-.067627.1723633-.0551758.2294922-.0446777.7944336.050293,2.5634766,1.5186768,2.7294922,2.246582.1674805.7346191-.0205078,1.394165-.5292969,1.8566895-.5732422.5205078-1.2348633.1083984-1.5913086-.1132812-.4931641-.3063965-.9228516-.7050781-1.2792969-1.0544434-.1826172-.1798096-.2485352-.5270996-.2045898-.7451172.1469727-.7269287-.0605469-1.1265869-.6928711-1.3388672-.1230469-.0408936-.2509766-.0617676-.3769531-.0617676-.1728516,0-.3417969.0390625-.4912109.1151123-.2456055.1256104-.4208984.3358154-.5063477.6090088-.1293945.414917-.152832.8764648-.0625,1.2332764.527832,2.0897217,1.8623047,3.4837646,3.9667969,4.1431885Z" stroke-width="0"/>
      <path d="m45.7482247,154.873932h.0751953c1.6630859-.0950928,3.1743164-.9316406,4.2558594-2.3580322.5322266-.701416,1.0146484-1.7918701.2910156-2.9995117-.7324219-1.2218018-1.7626953-1.8726807-3.0620117-1.9345703-.5385742-.0151367-.9580078.2131348-1.1801758.6738281-.2124023.4395752-.1435547.8677979.2163086,1.345459.3740234.4968262.4731445,1.0876465.2646484,1.581543-.1982422.4710693-.6435547.7832031-1.2211914.8574219-.6640625.0847168-1.4326172-.0305176-2.0571289-.3103027-.4995117-.2244873-.965332-.5290527-1.4155273-.8239746-.3554688-.2321777-.7236328-.4729004-1.1015625-.6689453-.1342773-.0695801-.3374023-.1057129-.5195312-.1057129-.1606445,0-.3046875.0285645-.3691406.0856934-.1503906.1351318-.2133789.6280518-.1152344.8935547.7280273,1.9536133,3.5957031,3.7635498,5.9384766,3.7635498Z" stroke-width="0"/>
      <path d="m61.9269357,134.7848207c.2485352.6280518.5395508,1.1057129.8662109,1.4207764.972168.939209,2.1972656,1.5480957,3.6411133,1.8079834.7768555.1397705,1.5483398-.0303955,2.1699219-.4796143.6079102-.4396973,1.0014648-1.0981445,1.1083984-1.8547363.2192383-1.5549316-.2172852-2.9622803-1.262207-4.0679932-.3569336-.3768311-.8256836-.6556396-1.2236328-.7270508-.4931641-.0865479-1.0737305.0761719-1.5244141.2283936-.074707.0341797-.2119141.3482666-.215332.5976562-.0039062.3044434.0263672.6184082.0561523.9221191.0302734.3187256.0620117.6489258.0571289.9772949-.0053711.2873535-.0913086.5651855-.1733398.8344727-.0356445.1152344-.0708008.229248-.1000977.345459l-.0410156.1665039-.5024414-.1256104c-.2958984-.0742188-.5927734-.147583-.887207-.2283936-.0834961-.0218506-.1367188-.0808105-.1933594-.1428223-.0253906-.0266113-.0556641-.0598145-.0957031-.0979004l-.1035156-.0980225.0776367-.1199951c.2954102-.4576416.2783203-.7260742-.0610352-.9591064-.1357422-.0932617-.3037109-.1380615-.4780273-.1380615-.2851562,0-.5874023.1190186-.7929688.3398438-.3964844.425293-.5112305.9219971-.3222656,1.3988037Z" stroke-width="0"/>
      <path d="m122.3092599,125.7170717c.4067383,2.5322266,2.8896484,5.0510254,5.4228516,5.5020752,1.0927734.1960449,2.2739258-.0827637,3.2446289-.762207.9008789-.6309814,1.4907227-1.5091553,1.6591797-2.4750977.2758789-1.571167-.0795898-3.0965576-1.0556641-4.5324707-.4790039-.7052002-1.1362305-1.0362549-1.9345703-.9781494-.4384766.0303955-.7841797.1940918-.9990234.4748535-.2226562.2911377-.2929688.6850586-.203125,1.1398926.0976562.4910889.1533203.9953613.2036133,1.4406738.0214844.1875.0415039.3674316.0629883.5358887l.0024414.0170898-.0014648.0170898c-.0107422.1474609-.0180664.2807617-.0249023.4053955-.0141602.2521973-.0263672.4700928-.0610352.6871338-.0532227.3339844-.152832.7346191-.4521484.8649902-.2871094.1274414-.6210938-.059082-.8461914-.2104492-.8486328-.5661621-1.597168-1.1760254-2.2260742-1.8137207-.8325195-.8459473-.793457-1.1218262-.2226562-2.1572266.1289062-.2341309.1533203-.4472656.0688477-.5994873-.0795898-.1427002-.2592773-.2283936-.5063477-.2416992-.0351562-.0018311-.0703125-.0018311-.105957-.0018311-.3051758,0-.6137695.0627441-.8608398.1778564-.8857422.4111328-1.3427734,1.3969727-1.1645508,2.5093994Z" stroke-width="0"/>
      <path d="m149.517756,146.7253724c1.2158203,1.3132324,2.7358398,1.6376953,4.1669922.8974609,1.4189453-.7355957,2.1279297-2.2944336,1.8056641-3.9710693-.6298828-3.2811279-3.09375-5.0424805-6.4389648-4.5838623-.2558594.0343018-.5058594.1218262-.7709961.2141113-.0654297.0228271-.1298828.0446777-.1958008.0666504l.453125,1.1114502-.1499023.0684814c-.784668.3579102-1.097168,1.0487061-.9560547,2.1115723.190918,1.4416504.8730469,2.777832,2.0859375,4.0852051Z" stroke-width="0"/>
      <path d="m119.5011544,90.5176088c.9106445.2644043,1.8125.1369629,2.6787109-.3787842,1.3574219-.8079834,1.9819336-2.3533936,1.5541992-3.8463135-.5087891-1.7738037-2.1157227-3.2021484-3.5952148-3.2021484h-.0336914c-1.184082.0180664-2.027832.8231201-2.0996094,2.0031738-.0141602.237793-.0107422.4775391-.0068359.7382812.0019531.1295166.0039062.2636719.0039062.4055176v.3330078l-.2714844-.1931152c-.0561523-.0400391-.1064453-.0819092-.1533203-.1228027-.0649414-.0541992-.1318359-.1113281-.1733398-.118042-.0913086-.0162354-.1879883-.0379639-.2861328-.0609131-.1801758-.041748-.3764648-.0865479-.534668-.0865479-.0795898,0-.1494141.0113525-.2026367.0408936-.1176758.0637207-.2890625.2702637-.4384766.890625-.0351562.1437988.0239258.3787842.1669922.6623535.7670898,1.5321045,1.8774414,2.491333,3.3916016,2.9348145Z" stroke-width="0"/>
      <path d="m57.7101388,37.997101c-.4780273-.4624023-1.2255859-.7070312-1.7680664-.831665-.565918-.1303711-1.1064453.157959-1.3725586.7346191-.2167969.4691162-.0917969.9144287.3935547,1.4017334l.3847656.3862305c.7543945.7641602.9140625,1.6206055.4873047,2.6169434-.1381836.3234863-.277832.553833-.5068359.6252441-.2294922.067627-.4716797-.0390625-.765625-.2246094-.8461914-.5366211-1.1669922-1.3902588-1.4458008-2.2915039-.1640625-.5300293-.5092773-1.1503906-1.2250977-1.1503906-.0234375,0-.0463867.0009766-.0703125.0019531-.7578125.0427246-1.0742188.7145996-1.2060547,1.2712402-.0405273.1704102-.0664062.3579102-.078125.574707-.0688477,1.2961426.4399414,2.6179199,1.3964844,3.6247559.9848633,1.0371094,2.331543,1.631958,3.6943359,1.631958h.0078125c1.5126953-.0028076,2.8842773-.7784424,3.6704102-2.074585.7475586-1.2321777.8051758-2.7148438.1557617-3.967041-.4345703-.8365479-1.0405273-1.6425781-1.7519531-2.3295898Z" stroke-width="0"/>
      <path d="m39.1159005,51.179474c-.5356445-.2692871-1.1547852-.4147949-1.7543945-.5566406-.2280273-.0541992-.4550781-.1074219-.6796875-.1674805l-.0361328.1257324-.1264648.0018311c-1.3662109.0303955-2.4277344.3206787-3.3408203.9154053-1.1435547.7451172-1.5444336,1.7490234-1.2260742,3.0698242.0483398.2017822-.0444336.4530029-.1508789.6014404-.347168.4815674-.644043,1.1932373-.0844727,1.8499756.6391602.7507324,1.2402344,1.255127,1.8364258,1.5424805,1.1411133.552002,2.5776367.5310059,3.9394531-.0523682,1.5288086-.6566162,2.7177734-1.9107666,3.1806641-3.3553467.5263672-1.6433105-.1000977-3.2401123-1.5576172-3.9748535Zm-3.1230469,5.7202148c-.3544922.1322021-.7177734.1968994-1.0712891.1968994-.5688477,0-1.112793-.168457-1.5566406-.4986572-.1625977-.1208496-.3798828-.315918-.4951172-.5605469-.1435547-.3054199-.0913086-.496582-.0219727-.604248.09375-.1445312.2651367-.2177734.5092773-.2177734.0083008,0,.0161133,0,.0244141.0008545l.0932617.0028076c.0742188.0039062.1450195.0085449.1992188-.0056152.1567383-.0390625.3095703-.0904541.4624023-.1408691l.0078125-.0029297c-.0766602-.1455078-.152832-.2901611-.2314453-.4348145-.0170898-.0305176-.0385742-.059082-.0664062-.0970459l-.1557617-.2218018.1235352-.1008301c.9462891-.7687988,2.934082-.7402344,3.7983398.0561523.1547852.1428223.25.4282227.2070312.6223145-.1982422.9020996-.8808594,1.6520996-1.8266602,2.0061035Z" stroke-width="0"/>
      <path d="m46.014338,20.0471498l.1655273-.0075684c.1225586-.0047607.2304688-.0095215.3374023-.0209961,1.7138672-.1712646,3.3027344-1.7736816,3.4003906-3.4276123.0498047-.8382568-.3505859-1.5577393-1.0195312-1.8336182-.628418-.2589111-1.1879883-.097168-1.7597656.5128174l-.140625.1484375c-.2431641.256958-.4941406.5224609-.7080078.802124-.0981445.1295166-.168457.3254395-.1831055.5111084-.0551758.6983643-.605957.8269043-1.0083008.920166l-.1054688.0247803c-.2719727.0684814-.5239258.0285645-.7124023-.1037598-.1289062-.0913086-.2900391-.2730713-.3251953-.6195068-.012207-.1188965-.0493164-.4805908-.2016602-.5947266-.0161133-.0113525-.0556641-.0408936-.1396484-.0408936-.0249023,0-.0532227.0028076-.0859375.0085449-.3208008.0627441-.7036133.3378906-.8344727.6013184-.3613281.7260742-.0102539,1.4008789.3481445,1.8395996.6782227.8297119,1.6235352,1.2370605,2.9726562,1.2797852Z" stroke-width="0"/>
      <path d="m154.7804513,9.6376649c-.2524414-.8621216-.9941406-1.4616089-1.8066406-1.4616089h-.0112305c-.7207031.0047607-1.2260742.4367676-1.6391602,1.4016724-.3813477.890686-.8828125,1.7453003-1.3232422,2.4627075-.1835938.2988281-.4125977.6062012-.7216797.623291-.0092773.0009766-.019043.0009766-.027832.0009766-.2900391,0-.5449219-.2502441-.8364258-.6242676-.1899414-.2435303-.5283203-.4586182-.7104492-.4586182-.0112305,0-.0214844.0009766-.0307617.0019531-.2553711.0407715-.6040039.3310547-.7456055.6203613-.2915039.5957031-.1430664,1.2237549.440918,1.8679199,1.1621094,1.2800293,2.5742188,1.7453613,4.1943359,1.3808594,1.8911133-.425415,3.315918-2.4084473,3.3920898-4.7199707-.0170898-.1151123-.0307617-.2312012-.0444336-.34729-.0317383-.2626343-.0610352-.5110474-.1298828-.7479858Z" stroke-width="0"/>
    </g>
  </g>
</svg>