<?xml version="1.0" encoding="UTF-8"?>
<svg id="Layer_2" data-name="Layer 2" xmlns="http://www.w3.org/2000/svg" viewBox="0 0 302.2968045 190.7439973">
  <g id="Layer_1-2" data-name="Layer 1">
    <path d="m27.5175781,187.4799366c21.0441571,4.4880664,42.4142976-2.4771183,59.2742037-32.1534014,10.2984785-19.7391272,4.7337766-39.0520399,30.326414-49.3924228,21.4923412-8.411348,15.4765539-21.7809054,29.2726343-29.4331247,13.3527112-6.4969922,6.3013378,3.8163305,12.3772363,4.8412536,1.7502856-1.418855.6412736-3.368395,2.6518555-4.6035156,10.4618107,4.2471179,15.4173745,19.0507751,10.9254547,29.2241222-6.2430736,19.5582915,7.8576715,25.2825894,25.863876,20.9220791,10.8907536-1.5230455,24.9401419-4.3825136,29.0691099,9.2990777,7.5565858,16.3326309-7.0302325,39.3120854,12.068801,50.6631045,17.1313522,8.0781399,44.3627975,3.1377102,58.3183639-10.5771336-.754156-5.8438426-14.2839402,2.2117063-17.5869141-1.6269531,6.8875101-4.7378367,15.0762706-11.1941862,17.0947347-19.5312454-.1783965-2.5688227-3.8143333-.5663806-4.8535355-.0459194-13.0648499,5.4875218-27.9078566,12.1746568-41.8281142,7.377981-6.769042-4.7646834-9.2651358-12.3047225-11.67871-19.5976912-6.0748622-19.6098685-16.7308092-32.3946435-35.6093721-31.1218072-23.6184795-.7920061-9.627027-10.1378431-15.8202452-20.6515955-4.8515434-6.6861773-12.793157-10.3158678-19.3413788-15.1484723,19.1613265-5.5943439,40.4768117,40.0685686,86.3301067,10.461428,14.3292783-8.0141885,28.5270828-11.5065728,35.9778554-28.7954952,6.4211389-10.2122906,16.5906041-23.3611818,9.5767359-33.3331861-4.9867488-8.6559889-16.8402644-12.7897779-30.2001277-10.532942-11.3925781,6.3144531-20.0224609,6.8740234-27.637207,7.3671875-9.3930664.609375-17.5058594,1.1347656-28.2851562,11.7382812-27.5228289,19.5902075-13.854181-5.8841305-42.5239258,28.3691406.1939231.1254059.2352283.3791479.1865234.5751953,8.1591231-1.5419392,10.6945797-12.0805317,17.4512245-16.1005239,10.6212312-2.6269228,15.1985654-1.2271404,23.5662066-8.5265201,16.9227068-14.7709861,18.9759948-11.8067333,38.8040101-15.0607658,24.8216818-12.3233422,60.3756007-5.264582,41.4056096,27.6839036.7461467-34.2659079-44.8801429-11.1520145-61.9011324-3.1135431-17.7314292,9.7269826-36.2139088,14.5505987-55.2371486,16.5962053-2.4845934,1.180722-4.8802552,2.2005808-4.662012-.8820763l-.0410156.0068359c.0012729-.0094535.0397611-.3434747.0410156-.3457031-.0908203-.1611328-.1943359-.3173828-.309082-.4697266l-.25-.015625.1230469-.1455078c-2.4048972-3.0134374-8.0334242-3.1976947-9.5986328.8759766-2.4774494-4.1463544-6.9158325-3.3632317-11.4916652-1.4127949.3052353,3.5428065-48.6917415-42.1173222-62.8547322-56.8419488-18.945619-11.6867022-57.4097049,3.7707872-52.2603373,24.8297716.2917933,6.5343471.5940393,13.2902065-5.9528357,20.4894252-6.6511079,15.0181605,1.7279749,33.6724152,19.2152123,33.2487976,10.6475729-2.2114082,19.3216548-.4233795,27.4444316,1.3246981,25.8729663-.0737336,43.9248836-23.7406301,70.8813717-11.6281832-17.5311261.1522595-28.472698,11.7808639-37.2742948,24.1105137-23.2390411,11.2429944-13.6307419,19.147242-19.2169743,35.9041126-41.7155342,59.0202433-35.3965829,23.234939-78.6439848,26.904319,22.2384605,15.7743454-2.6432349,13.2874613-10.7050781,25.4833984,9.1552734-.2626953,18.4887695,1.2910156,27.5175781,2.7910156Zm202.1938477-56.5263672l.0883789-.1142578c.1368076.0160753.284264.0201008.3393555.1757812l.0019531-.0009766c6.6526772,5.6440721,7.151251,14.2880808,9.1337208,22.096726,6.5550111,24.0910146,41.132847,11.8214793,52.4522167,4.840774-4.0442984,10.5264173-32.9066972,22.1439279-2.559082,19.9873047-14.9825056,12.0646222-49.9629847,18.7924929-55.8946466-7.0268736-2.2083062-13.2612177,3.4841579-27.342632-3.6414862-39.7709779l.0795898-.1875Zm-57.0576172-47.4453125l.0830078-.1181641c.1372317.0111726.2851353.0065668.3466797.1601562l.0024414-.0009766.0253906.0546875c3.7773438,1.8320312,15.3359375,8.3242188,11.6982422,17.5576172-5.9521663,22.4770292,36.4168404,6.3992231,41.9399414,23.9492188-16.4908848-11.2140073-49.4529384,15.3320474-52.490457-13.688486,4.5022624-11.3649291,5.505679-18.5538957-1.5256563-27.4453031l-.1010742-.2167969.0048828-.0029297c-.0361328-.0888672-.0429688-.1640625.0166016-.2490234Zm112.7631836-23.9355469c-3.3895041,12.6682793-18.4251466,15.9614941-29.0121817,21.1054837-28.647887,22.805465-43.9331085,16.621022-78.7749276-7.7793119,32.89066,5.5025068,42.3319572,21.0241565,77.8306702-8.040284,12.606586-4.4847825,19.2894511,5.2256436,30.1830017-6.1540519l-.2265625.8681641Zm-115.9614258,9.5214844c.9394531-1.6630859,2.0029297-3.5458984,4.1914062-3.1582031,8.4663086-.8603516,40.1381836-7.7099609,51.2890625-12.8798828,19.6895929-7.4043749,41.3913215-27.4256664,60.8593473-13.1736506,5.6119974,1.9113518,3.9273612,7.4518044,3.3984652,11.8181818-25.096736,27.0386647-22.407815-6.3095535-53.1854605,24.4388751-22.1707849,14.2291082-45.2331942-9.8135337-68.1582895-4.1263751l-.0019531-.0009766c-.1473731.2197889-.411555.0518998-.559082-.1113281l.1630859-.1914062h0l.1689453-.1982422.078125-.0195312c.0009766-.0009766.0029297-.0009766.0043945-.0009766.6889648-.5146484,1.2060547-1.4306641,1.7519531-2.3964844Zm-17.3549805-4.7304688c1.6271981-4.2438044,4.5868267-4.2712144,7.8125.5800781,3.4125327-.0016743,2.454104-5.6432185,6.6865234-4.3847656,5.4103902,5.4663046-4.7376908,10.3400307-7.4619141,14.6640625-.8045742-1.9128755-2.3390378-3.0245288-4.6733398-3.2236328-2.5248255-2.0388368-3.0214024-5.3309534-2.3637695-7.6357422Zm-42.4350586-32.1582031c-1.4058046,16.3032073,10.0621927,21.1891486,18.5185547,31.1904297-17.8647424-6.0650705-36.5223297,4.4779375-54.6762845,4.3630266-20.1889747-.8492018-39.5077831-12.5160983-26.4930936-34.7645773,2.3432062-6.0388789,6.2792414-10.188293,11.6781672-12.2898555,15.5161032-6.0097123,39.4014347,5.8088548,50.9726562,11.5009766Zm20.6303711,35.0136719c-21.1255912-2.5861424-38.4198881,17.6524718-59.6660265,13.0477821-13.0808032-5.7703631-32.1398768,6.7470549-39.6680099-11.0916945-5.2945262-16.3307295,9.6623791-30.0086387,6.4121203-46.3086265.1169322-12.9321475,17.9109126-18.4043673,32.2104551-20.0978359,14.8213507-.0340304,24.6349848,10.6549598,34.3545274,22.3585779.0200151.0510275.047964.1195931.0678711.1708984h-.0009766c.1463083.2678341-.1155663.4074452-.3476562.4726562C31.9572042-13.55421,6.7736745,90.8871421,100.6133298,66.6971448c10.5625049-3.161196,21.6172901-6.2577706,30.6991702.6499793l-1.0166016-.1279297Zm-5.8037109-8.5097656c-7.4008093-7.000771-11.8950451-16.1232183-11.7827148-23.8310547l.0024414-.0009766c-.109779-.3894113.3559647-.4517987.4545898-.1884766l.0048828-.0019531c10.9442955,9.1389581,33.9461674,26.2387332,34.659668,33.7070312-8.1071655.5850067-16.0842656-2.933503-23.3388672-9.6845703Zm-30.9584961,59.1025391c.3351982-13.3198916,13.5180325-16.9808091,21.3490872-24.861342,3.8567752-10.4532652,16.3922983-16.8260804,26.3589206-16.897447-14.932614,32.4214461-30.7313859,21.1312637-46.6694336,46.2021484l-.7548828-4.1884766-.2900391.0810547.0063477-.3359375ZM1.0390625,184.1459522c11.2710022-7.8968878,35.7392923-5.6611957,17.1020508-23.7832031,35.6894925,18.0356977,51.0384358,6.0222998,72.0869141-23.0703125-3.9712237,22.2692023-24.1419141,48.1222375-50.35951,48.1551984-13.1060753-.0853144-25.7453618-6.1746359-38.8294549-1.3016828Z" stroke-width="0"/>
  </g>
</svg>