<?xml version="1.0" encoding="UTF-8"?>
<svg id="Layer_2" data-name="Layer 2" xmlns="http://www.w3.org/2000/svg" viewBox="0 0 310.9960938 422.7358629">
  <g id="Layer_1-2" data-name="Layer 1">
    <path d="m106.2695312,172.968454l-.2211914-.8046875.6699219-.4931641c5.9755859-4.4003906,11.4907227-9.2236328,16.5605469-13.78125,5.9135742-5.3183594,10.6933594-10.3359375,14.6132812-15.3408203,3.0180664-3.8544922,5.9858398-7.8632812,8.8554688-11.7402344l.4614258-.6230469c1.1362305-1.5332031,2.2724609-3.0673828,3.4160156-4.5947266l1.8330078-2.4492188.3374023,3.0410156c.0791016.7080078.1674805,1.4091797.2553711,2.1054688.2055664,1.6240234.4116211,3.2558594.4921875,4.8837891.1176758,2.3505859.6367188,4.5927734,1.1860352,6.9658203l.0161133.0712891c.1264648.546875.2524414,1.09375.3735352,1.6425781,1.159668,5.2587891,3.277832,10.4326172,6.6665039,16.2832031,2.652832,4.578125,6.3339844,8.7832031,11.5849609,13.2324219,5,4.2373047,11.0742188,7.5185547,18.0532227,9.7539062,3.4658203,1.109375,7.137207,2.0439453,11.2231445,2.8564453l.2768555.0546875c3.8183594.7587891,7.4243164,1.4755859,11.1865234,1.5244141.3598633.0048828.6831055.0722656.918457.1210938l.9750977.1601562.1860352.7900391c.0820312.3505859.1733398.6826172.2612305,1.0039062.2114258.7724609.4072266,1.4892578.4697266,2.2714844.1879883,2.3710938.8476562,4.6240234,1.5649414,6.9160156,1.215332,3.8818359,3.6489258,6.6621094,7.4394531,8.5019531,3.9614258,1.9208984,8.1884766,2.7216797,11.4287109,3.2041016.9692383.1445312,2.003418.25,2.9155273.3427734.9311523.0966797,1.8857422.1943359,2.8208008.328125.9404297.1347656,1.8920898.3095703,2.7319336.4628906.9838867.1806641,2.0991211.3847656,3.1796875.5205078,3.7670898.4658203,6.9775391,1.3203125,9.8139648,2.6123047,4.012207,1.8251953,7.5649414,4.7675781,11.1801758,9.2587891,4.7680664,5.9228516,8.8398438,17.6533203,7.1044922,26.2753906-.9145508,4.5429688-2.0561523,9.3935547-4.2001953,14.0810547-3.7524414,8.2050781-8.7158203,15.1855469-14.7519531,20.7480469-.6254883.5771484-1.2900391,1.0849609-1.9331055,1.5761719-.2993164.2285156-.5869141.4472656-.8666992.6699219l-.7045898.5615234-.7402344-.5146484c-5.1000977-3.5488281-10.730957-5.5087891-17.2138672-5.9921875-2.3754883-.1650391-4.8422852.3798828-7.2275391.9150391l-.2929688.0654297c-4.3027344.9619141-7.4716797,2.953125-9.6870117,6.0859375-.8666992,1.2255859-1.6264648,2.5458984-1.315918,3.8896484.5258789,2.2792969,1.777832,3.9335938,3.7211914,4.9169922,1.6220703.8203125,3.3691406,1.2099609,5.2182617,1.6220703.5532227.1240234,1.0566406.2373047,1.5600586.359375,2.8916016.7041016,5.7915039.21875,8.5957031-.2490234l1.0444336-.171875c3.9365234-.6337891,8.0009766-2.0410156,13.1791992-4.5634766l.847168-.4121094.6079102.7197266c2.9960938,3.5585938,4.309082,7.5693359,3.9023438,11.9199219-.0541992.5771484-.0874023,1.1582031-.1210938,1.7392578l-.0043945.0761719c-.0649414,1.1445312-.1323242,2.328125-.3447266,3.5126953-.6044922,3.375-1.9467773,6.7080078-4.2246094,10.4892578-1.203125,1.9980469-2.3950195,4.0488281-3.5478516,6.03125l-.0849609.1474609c-1.4970703,2.5751953-3.0327148,5.2167969-4.6098633,7.7841797-4.8261719,7.8535156-8.0444336,14.6738281-10.1289062,21.4648438-1.1962891,3.8994141-1.8837891,7.3984375-2.1005859,10.6962891-.2768555,4.1855469-.1796875,8.0136719.2978516,11.7041016.5454102,4.2041016,2.1030273,8.2773438,4.7631836,12.4550781,2.84375,4.4658203,6.4951172,8.3632812,10.8520508,11.5839844,5.5107422,4.0722656,10.4736328,6.6054688,15.6186523,7.9746094,4.0683594,1.0839844,8.4155273,2.1328125,12.9116211,1.8896484,2.2900391-.1201172,4.0463867-.2607422,5.6958008-.4560547,5.269043-.6259766,10.3696289-2.4755859,15.5942383-5.6542969,2.503418-1.5214844,4.8232422-3.4433594,7.0668945-5.3017578l.7138672-.5917969c2.0732422-1.7138672,3.9277344-3.6191406,5.7211914-5.4619141l.0854492-.0888672c-.0327148-.1191406-.1191406-.1679688-.4072266-.28125-1.8496094-.7246094-3.8359375-.6103516-5.7075195-.3798828-.6289062.0791016-1.4272461.6591797-2.0683594,1.125-.956543.6953125-1.9072266,1.4335938-2.8266602,2.1484375l-.074707.0576172c-1.347168,1.0478516-2.7402344,2.1308594-4.1914062,3.1181641-3.7407227,2.5439453-7.9770508,5.4248047-13.0415039,7.0332031-3.9467773,1.25-7.5957031,1.2333984-11.4833984-.0537109-3.234375-1.0703125-6.3300781-2.6787109-9.7416992-5.0605469-4.7475586-3.3154297-8.824707-7.4501953-12.1181641-12.2900391-4.1723633-6.1318359-6.4365234-13.28125-6.7304688-21.2509766-.0888672-2.4277344.1630859-4.7871094.4072266-7.0683594.3618164-3.3974609,1.2197266-6.5810547,2.0678711-9.5498047,2.3652344-8.2871094,6.4765625-15.6953125,10.4848633-22.5732422.7734375-1.3271484,1.5688477-2.6435547,2.3652344-3.9599609,1.4008789-2.3144531,2.8496094-4.7080078,4.1401367-7.1298828,1.7929688-3.3662109,2.9970703-6.9570312,3.6811523-10.9794922.7260742-4.2685547.1123047-8.0576172-1.9301758-11.9248047-.7807617-1.4794922-1.8549805-2.7919922-2.8935547-4.0615234-.5249023-.640625-1.1196289-1.3662109-1.6508789-2.0996094l-.6606445-.9091797.8598633-.7255859c.5400391-.4550781,1.0698242-.9208984,1.5991211-1.3876953,1.1992188-1.0556641,2.4316406-2.140625,3.7705078-3.0830078,3.1674805-2.2275391,5.6181641-5.1992188,8.0561523-8.3037109,3.1206055-3.9765625,5.8139648-8.4257812,8.234375-13.6005859,2.3193359-4.9609375,3.565918-9.0449219,3.9233398-12.8515625.4711914-5.0117188.6679688-10.8837891-1.4443359-16.4335938-2.4526367-6.4394531-6.1201172-11.8232422-10.9008789-16.0029297-4.152832-3.6308594-9.3803711-6.0488281-16.9487305-7.8408203-4.5878906-1.0859375-9.2592773-1.8935547-13.8833008-2.4013672-4.2998047-.4697266-7.3012695-2.0361328-9.1743164-4.7871094-1.1220703-1.6464844-2.0742188-3.6806641-2.9116211-6.2167969-.5449219-1.6503906-.8842773-3.3144531-1.2436523-5.0761719-.1547852-.7597656-.3129883-1.5351562-.4912109-2.3261719l-.2749023-1.2070312,1.2148438-.2451172c.2348633-.046875.4526367-.0976562.6586914-.1464844.5117188-.1191406.9770508-.2265625,1.4858398-.2578125.5068359-.0332031,1.0219727-.0253906,1.5068359-.0166016l.0693359.0009766c.6850586.0087891,1.3295898.0166016,1.9121094-.09375,3.7397461-.7060547,7.03125-1.4111328,10.0620117-2.15625,4.2758789-1.0498047,9.7998047-2.6953125,14.6030273-6.1220703,3.8789062-2.7705078,6.1108398-5.9755859,7.0244141-10.0878906.9077148-4.0859375.0053711-7.5791016-2.7587891-10.6816406-4.487793-5.0351562-10.7011719-6.4091797-16.1875-7.0888672-2.9155273-.3574219-6.0732422-.0478516-9.9384766.9746094-5.6166992,1.4882812-9.6738281,4.0449219-12.7666016,8.0458984-4.440918,5.7470703-6.9755859,12.1132812-7.7495117,19.4648438-.0708008.6650391-.2719727,1.2548828-.4848633,1.8798828-.0947266.2773438-.1899414.5566406-.2783203.8574219l-.3217773,1.09375-1.1103516-.2568359c-.6303711-.1435547-1.2495117-.2802734-1.8579102-.4130859-1.3623047-.2978516-2.6191406-.5732422-3.8876953-.921875-5.2124023-1.4326172-10.0126953-3.5693359-14.2675781-6.3505859-.9731445-.6367188-1.9702148-1.2880859-2.8349609-2.1396484-.6401367-.6298828-1.2900391-1.2519531-1.9399414-1.8740234-2.4384766-2.3339844-4.9594727-4.7460938-7.0083008-7.6064453-3.418457-4.7714844-5.8989258-9.3417969-7.5834961-13.9716797-1.4614258-4.0146484-2.6254883-8.3808594-3.5576172-13.3486328-.8662109-4.6152344-1.6386719-9.1513672-1.5800781-13.8886719.0429688-3.4853516.0214844-7.015625.0004883-10.4287109-.0444336-7.3154297-.090332-14.8808594.4887695-22.3417969.2250977-2.9042969.1796875-5.8974609.1357422-8.7919922-.0185547-1.2431641-.0371094-2.4882812-.0361328-3.7294922l-.0004883-.6259766c-.003418-2.6083984-.0068359-5.3066406.8935547-8.0830078l.5605469-1.7275391,1.3779297,1.1835938c.4584961.3925781.9038086.7988281,1.3466797,1.203125.9448242.8623047,1.8232422,1.6640625,2.7856445,2.3066406,2.909668,1.9423828,5.03125,4.5771484,7.0830078,7.125l.0585938.0722656c.4492188.5566406.8969727,1.1123047,1.3515625,1.6582031,2.5473633,3.0566406,4.7705078,6.4257812,6.9204102,9.6835938.6137695.9306641,1.2265625,1.8603516,1.8466797,2.78125,2.9716797,4.4189453,6.2285156,9.1035156,9.9101562,13.4257812,2.7226562,3.1953125,5.996582,5.8779297,10.3037109,8.4423828,5.5283203,3.2910156,11.859375,4.1572266,16.7573242,4.5449219,2.6806641.2119141,5.4946289.1113281,8.6030273-.3095703,3.7299805-.5029297,6.7451172-1.2578125,9.4897461-2.3740234,5.7324219-2.3300781,9.9311523-6.2734375,12.4804688-11.7216797,1.6884766-3.6035156,2.1162109-7.7167969,2.3842773-11.2880859.0644531-.8496094.0424805-1.7841797-.0673828-2.8554688-.0791016-.7666016-.222168-1.5527344-.3598633-2.3125-.0639648-.3505859-.1254883-.6875-.1801758-1.0175781l-.1225586-.7324219.5991211-.4404297c.1425781-.1054688.2636719-.2060547.3710938-.2949219.3183594-.2666016.6420898-.5371094,1.0820312-.6757812,4.1054688-1.2949219,8.2524414-3.0839844,12.3266602-5.3173828,3.7597656-2.0615234,6.890625-4.3125,9.5722656-6.8828125,4.7338867-4.5371094,8.2568359-9.7207031,10.4711914-15.4091797,1.7382812-4.4648438,2.6757812-8.9023438,2.7861328-13.1894531.0703125-2.734375.065918-5.6708984-.4331055-8.6240234-.5805664-3.4423828-1.340332-7.0839844-2.9560547-10.3935547-3.3793945-6.9189453-8.6308594-12.4765625-15.6074219-16.5195312-7.3564453-4.2597656-15.8222656-6.5820312-25.8803711-7.0986328-3.3544922-.1738281-6.6381836-.1005859-10.2758789.0058594-2.7397461.0751953-4.8095703.2548828-6.7114258.5800781-2.8374023.4882812-6.5717773,1.1777344-10.2871094,2.1865234-5.9111328,1.6074219-12.2163086,3.5-18.2753906,6.4414062-5.6513672,2.7431641-10.5087891,5.6630859-14.8500977,8.9257812-3.5180664,2.6416016-6.5571289,5.1533203-9.2905273,7.6777344-1.690918,1.5605469-3.2861328,3.3232422-4.8291016,5.0273438-.7993164.8828125-1.5874023,1.7539062-2.3925781,2.6044922-3.9174805,4.1435547-7.0351562,8.1337891-9.5322266,12.1982422-1.0244141,1.6679688-2.0898438,3.2617188-3.2182617,4.9482422-.515625.7705078-1.0288086,1.5380859-1.5454102,2.3242188l-.4746094.7197266-1.7070312-.4306641c-.5756836-.140625-1.2299805-.3007812-1.8632812-.4873047-3.4633789-1.0214844-6.5991211-1.9013672-9.8994141-2.3271484-1.9829102-.2568359-3.5644531-.5439453-4.9770508-.9042969-2.2919922-.5839844-4.0795898-1.9208984-5.8076172-3.2148438-.4619141-.3466797-.9165039-.6865234-1.378418-1.0097656-1.4921875-1.0458984-2.9750977-2.1044922-4.4575195-3.1640625l-.0742188-.0527344c-4.2373047-3.0244141-8.5996094-6.1376953-13.0952148-8.8828125-5.6499023-3.4462891-11.6391602-6.2587891-18.3105469-8.5957031-4.4477539-1.5585938-9.4238281-2.8388672-15.6591797-4.0322266-3.5507812-.6796875-7.1547852-1.1357422-10.7114258-1.3544922-4.1655273-.2597656-9.0795898-.4267578-13.9399414.2666016-1.2231445.1748047-2.4628906.3203125-3.6616211.4609375-1.7827148.2109375-3.5644531.4208984-5.2949219.71875-3.7617188.6474609-7.4931641,1.6894531-10.9658203,2.7197266-1.7607422.5214844-3.5004883,1.2607422-5.1826172,1.9765625-1.0644531.4541016-2.2255859.9492188-3.3769531,1.3798828-4.953125,1.8515625-9.3920898,4.8447266-13.6850586,7.7382812l-.8051758.5419922c-.5146484.3466797-.9584961.7841797-1.2504883,1.2314453-.4301758.6572266-.8725586,1.3076172-1.3144531,1.9570312l-.0361328.0527344c-1.8144531,2.6679688-3.5268555,5.1845703-4.4838867,8.1503906-1.4169922,4.3945312-2.7641602,9.1015625-2.3330078,14.0751953.0546875.6298828.1606445,1.2568359.2729492,1.9199219.0874023.5175781.1743164,1.0351562.2387695,1.5556641.2792969,2.2636719.7641602,4.5576172,1.4824219,7.0117188,1.2666016,4.3349609,4.2265625,7.8007812,7.0893555,11.1533203l.3164062.3701172c3.6303711,4.2548828,8.6801758,7.3974609,15.8920898,9.8886719,4.3271484,1.4960938,9.2226562,3.1884766,14.230957,4.0527344,1.0351562.1787109,2.0771484.4287109,2.9960938.6494141l.0981445.0234375c1.9306641.4648438,3.9208984.9580078,6.0170898.8730469l.7978516-.0205078.3349609.7216797c.1030273.2226562.2109375.4423828.3188477.6621094l.0385742.078125c.2807617.5693359.5712891,1.1582031.8012695,1.796875,1.3378906,3.7265625,3.3740234,7.0205078,6.0522461,9.7910156,4.8374023,5.0019531,11.1489258,7.9365234,18.7597656,8.7197266,5.2978516.5498047,10.9018555-.1113281,16.6572266-1.9628906,4.9824219-1.6025391,9.3276367-3.4833984,13.2841797-5.75,6.3623047-3.6484375,12.1494141-7.9667969,17.199707-12.8349609,2.2558594-2.1757812,4.5239258-4.6113281,7.137207-7.6640625,2.2451172-2.6230469,4.4306641-5.3876953,6.5444336-8.0605469l1.4243164-1.7998047c1.1210938-1.4140625,2.2412109-2.8896484,3.3242188-4.3173828l.2368164-.3115234c.4780273-.6289062.9741211-1.28125,1.4956055-1.9619141l2.1699219-2.8359375v3.5712891c0,.3964844.0151367.7314453.0288086,1.0253906.0302734.6660156.0537109,1.1757812-.0849609,1.7324219-.3525391,1.4160156-.6889648,2.8349609-1.0258789,4.2548828-.8496094,3.5820312-1.7241211,7.2695312-2.8554688,10.8554688-2.9667969,9.4091797-6.5234375,17.4990234-10.8735352,24.7314453-3.4882812,5.7998047-7.1538086,11.3945312-10.8950195,16.6298828-4.0576172,5.6787109-8.043457,10.4648438-12.1855469,14.6308594l-.8168945.8232422c-2.9770508,2.9941406-6.0546875,6.0898438-9.1518555,9.0712891-1.1689453,1.1279297-2.4116211,2.1591797-3.612793,3.1572266-.5371094.4453125-1.0546875.8740234-1.5581055,1.3056641l-.8061523.6894531-.7890625-.7089844c-.3725586-.3349609-.7358398-.6542969-1.0893555-.9648438-.8271484-.7275391-1.5698242-1.3808594-2.2871094-2.0849609-1.328125-1.3056641-2.9052734-2.4140625-5.1137695-3.5927734-4.6811523-2.5009766-10.1342773-3.8310547-17.1616211-4.1855469-2.8491211-.1474609-5.4160156-.2177734-7.9707031.3701172-1.2080078.2773438-2.4213867.3359375-3.5942383.3935547-1.1577148.0566406-2.2392578.1103516-3.25.3544922-6.4487305,1.5458984-11.9960938,3.4814453-16.9594727,5.9160156-5.4604492,2.6787109-10.2739258,6.4716797-14.3071289,11.2744141-2.8623047,3.4101562-4.1025391,6.7519531-3.7915039,10.2167969.0644531.7265625.0454102,1.4179688.0288086,2.0273438l-.0087891.3427734.9990234,1.9316406c.925293,1.7919922,2.0024414,3.1113281,3.2924805,4.0361328,4.0205078,2.8808594,8.800293,4.5195312,14.2060547,4.8701172,4.6660156.2998047,9.3813477-.0244141,14.0185547-.9658203,3.8129883-.7773438,7.5415039-1.5742188,11.2333984-2.7802734,2.9316406-.9570312,6.0615234-2.1513672,9.8491211-3.7597656,5.6279297-2.390625,11.3330078-5.3164062,17.4399414-8.9462891l1.6376953-.9736328.1845703,1.8964844c.0141602.1523438.0229492.3007812.0297852.4453125.0097656.1875.0185547.3662109.046875.4619141,1.2792969,4.4453125.6391602,8.8144531-.1269531,12.9082031-.8818359,4.7128906-2.9492188,9.3291016-6.3203125,14.1142578-3.6655273,5.2050781-7.1831055,9.1376953-11.0703125,12.3769531-5.0561523,4.2089844-10.496582,7.8710938-16.1699219,10.8818359-3.9262695,2.0839844-8.0458984,4.1708984-11.6811523,6.0117188l-.2348633.1191406c-3.2368164,1.640625-6.5839844,3.3369141-9.8452148,5.0488281-7.7919922,4.0888672-14.690918,8.3613281-21.0908203,13.0605469-4.6298828,3.3994141-8.331543,6.4658203-11.3500977,10.3837891-4.8847656,6.3398438-7.1582031,12.7246094-6.9511719,19.5205078.112793,3.6757812.9462891,7.0556641,2.5493164,10.3300781,2.2045898,4.5029297,5.3251953,8.0712891,9.2749023,10.6044922,1.3925781.8945312,2.9453125,1.7724609,4.887207,2.7626953,2.9790039,1.5205078,6.355957,2.1777344,9.621582,2.8125l1.6411133.3203125.0458984.9462891c.0244141.5039062.0229492.9833984.0185547,1.5585938-.0063477.9912109-.012207,1.9169922.2084961,2.7011719,1.0488281,3.7255859,3.1845703,6.9697266,6.1762695,9.3837891,4.8510742,3.9160156,10.1181641,7.484375,14.6748047,10.5214844,4.4189453,2.9443359,8.5371094,6.2373047,11.9824219,9.0693359,2.7236328,2.2392578,5.1757812,5.1894531,7.4975586,9.0195312,3.8310547,6.3212891,5.074707,12.0654297,3.9140625,18.0761719-1.003418,5.1953125-3.2460938,9.9082031-6.6665039,14.0087891-3.9169922,4.6943359-8.4277344,8.7998047-13.4077148,12.203125-7.1660156,4.8984375-14.0336914,8.90625-20.9960938,12.2529297-7.4404297,3.5751953-13.8530273,5.9394531-20.1811523,7.4404297l-.2568359.0615234c-1.8818359.4492188-3.9921875.9511719-5.9560547.5585938-1.6386719-.3232422-3.3168945-.3291016-4.9399414-.3349609-.7324219-.0029297-1.4555664-.0058594-2.1713867-.0332031l-1.6928711.90625v.453125l.1118164.0634766c.4213867.2431641.855957.4931641,1.2470703.6064453,3.0947266.8916016,6.1748047,1.4404297,9.1547852,1.6318359,1.3125.0869141,2.6293945-.0498047,4.0239258-.1962891l.0639648-.0068359c.6972656-.0722656,1.394043-.1445312,2.0893555-.1904297,3.8032227-.2490234,7.5942383-1.0878906,11.1245117-1.9589844,5.9677734-1.4716797,12.2255859-3.7958984,19.6948242-7.3125,3.3579102-1.5810547,6.5874023-3.3066406,10.4033203-5.4101562,6.4995117-3.5830078,12.4467773-7.6855469,17.6772461-12.1923828,4.8710938-4.1943359,8.050293-7.8291016,10.3081055-11.7861328,2.3979492-4.2011719,3.6845703-7.7851562,4.050293-11.28125.5141602-4.9208984-.3286133-9.5507812-2.5048828-13.7597656-2.152832-4.1611328-4.6293945-7.6611328-7.5717773-10.7001953-1.1362305-1.1728516-2.4072266-2.2900391-3.6362305-3.3691406-.6318359-.5546875-1.2480469-1.0957031-1.8530273-1.6474609-3.2397461-2.9541016-6.8813477-5.5615234-10.402832-8.0830078l-.1884766-.1347656c-1.1962891-.8574219-2.3925781-1.7138672-3.5756836-2.5869141l-.9995117-.734375c-3.3950195-2.4912109-6.9057617-5.0664062-9.7866211-8.3652344-2.7016602-3.0927734-3.9140625-6.3261719-3.7060547-9.8828125l.0405273-.6992188.6274414-.3125c.1289062-.0644531.2519531-.1298828.371582-.1933594.3359375-.1777344.6694336-.3535156,1.0463867-.4873047.3227539-.1152344.6274414-.1523438.8725586-.1826172.1357422-.0166016.2299805-.0283203.3208008-.0498047,6.6572266-1.609375,11.6699219-3.765625,15.7749023-6.7880859,2.3193359-1.7070312,4.8979492-3.7841797,6.1699219-6.8544922v-2.3818359c-1.0908203-2.1855469-2.8896484-3.5185547-5.4975586-4.0742188-3.8491211-.8164062-7.7397461-.8066406-11.5634766.0263672-4.7460938,1.0371094-9.034668,3.3222656-13.109375,6.9853516-3.4589844,3.1103516-5.706543,6.0185547-7.0732422,9.1513672l-.4658203,1.0683594-1.0849609-.4257812c-4.5961914-1.8046875-8.1035156-4.34375-10.7226562-7.7617188-2.6220703-3.421875-4.21875-7.3242188-4.7460938-11.5996094-.4213867-3.4121094-.3125-6.8886719.3237305-10.3310547,1.0629883-5.7558594,3.503418-10.8027344,7.4614258-15.4287109,2.8842773-3.3701172,6.4350586-6.5039062,10.8554688-9.5800781,6.6875-4.6542969,13.6816406-8.5791016,19.6416016-11.8046875,3.4213867-1.8515625,6.9165039-3.6386719,10.2958984-5.3662109,2.7407227-1.4023438,5.5219727-2.8242188,8.230957-4.2617188,2.480957-1.3164062,5.0795898-2.8476562,7.9448242-4.6845703,4.5375977-2.9042969,8.8793945-6.4980469,13.6640625-11.3095703,4.5117188-4.5341797,7.8515625-9.2675781,10.2099609-14.46875,2.2744141-5.015625,3.3046875-9.3037109,3.2416992-13.4951172-.0117188-.7851562-.0092773-1.5673828-.0063477-2.3515625l.0014648-1.0322266c0-3.3388672-.5151367-6.2734375-1.5756836-8.9697266-.230957-.5878906-.3769531-1.1796875-.5180664-1.7529297l.2260742-.1235352c0-.0002441.0004883-.0002441,0-.0002441l-.2416992.0603027c-.0546875-.2207031-.1098633-.4423828-.1708984-.6621094Zm142.1455078,117.2480469c-3.9990234,2.3994141-7.4619141,3.9267578-10.8979492,4.8085938-1.734375.4453125-3.4311523.6630859-5.1870117.6650391-1.5175781,0-2.8061523-.4189453-4.0610352-1.3183594l-.3105469-.2216797-1.0253906-2.9140625.0600586-.3183594c.7255859-3.8574219,3.0825195-6.4375,7.6430664-8.3642578l.2836914-.0966797.1987305.0019531c5.0014648.0478516,8.8808594,2.6816406,12.987793,5.4707031l1.9331055,1.3115234-1.6245117.9755859Zm-20.4702148-109.1484375c.0766602-.8876953.1025391-1.7617188.1269531-2.6074219.0405273-1.3798828.081543-2.7695312.3286133-4.1972656.1323242-.7597656.25-1.5234375.3686523-2.2880859.2587891-1.6708984.5214844-3.3691406.918457-5.0488281,1.3076172-5.5292969,3.6621094-9.7480469,7.1982422-12.8955078,3.4609375-3.0820312,7.4448242-4.0498047,11.8398438-2.8779297.4116211.109375.8300781.2109375,1.2490234.3115234,1.4956055.3632812,3.0361328.7373047,4.4365234,1.4853516,2.956543,1.5771484,4.8447266,3.5898438,5.7724609,6.1523438.1357422.3740234.3505859.7578125.5776367,1.1630859.1191406.2128906.2353516.421875.3427734.6308594l.1274414.2988281.0068359.2177734c.0102539.3261719.0244141.6542969.0385742.9814453.090332,2.0898438.1835938,4.2490234-.6889648,6.3789062-1.3867188,3.3876953-3.6171875,5.9980469-6.6298828,7.7568359-3.6567383,2.1367188-7.0898438,3.484375-10.4946289,4.1220703-2.3813477.4453125-4.9516602.90625-7.6123047,1.265625-1.5844727.2138672-3.1235352.2880859-4.7524414.3662109-.6210938.0292969-1.2382812.0585938-1.8779297.0957031l-1.3964844.0830078.1206055-1.3945312Zm24.5390625-88.1074219c-.1967773.6796875-.3208008,1.3935547-.4516602,2.1494141-.1533203.8847656-.3095703,1.7851562-.5883789,2.6738281-1.4291992,4.5595703-3.4785156,8.1201172-6.2651367,10.8847656-1.3417969,1.3310547-2.9116211,2.3164062-4.4301758,3.2685547-.5942383.3730469-1.2089844.7578125-1.78125,1.1542969l-.2963867.2050781-.3618164.0097656c-1.1411133.0273438-2.1801758.046875-3.1723633.0654297-.8725586.015625-1.7080078.0322266-2.5439453.0527344l-.2666016.0029297c-2.902832,0-5.3466797-1.1308594-7.6005859-2.2890625-4.4135742-2.2724609-8.4370117-5.5117188-11.9580078-9.6279297-2.4345703-2.84375-4.6728516-5.9082031-6.8374023-8.8710938l-.605957-.8300781c-1.1665039-1.5957031-2.2993164-3.2333984-3.3950195-4.8173828-1.9223633-2.7802734-3.9086914-5.6513672-6.0654297-8.2792969-.3496094-.4248047-.6967773-.8564453-1.0444336-1.2880859l-.0605469-.0742188c-2.0395508-2.5351562-4.1484375-5.15625-6.9130859-6.9238281-.152832-.0966797-.2836914-.2216797-.3886719-.3701172l-.046875-.0107422-.1162109-.2363281-.3183594-.6386719.0068359-.0048828-1.4599609-3.0410156,3.4760742,1.7880859c.3447266.0673828.7104492.1513672,1.0786133.3398438,4.6118164,2.3662109,8.7573242,4.5136719,12.6743164,6.5634766,1.2192383.6376953,2.4296875,1.2949219,3.6396484,1.9521484l.1333008.0722656c2.3310547,1.265625,4.7182617,2.5625,7.1157227,3.6962891,6.6430664,3.1435547,11.9467773,4.9296875,17.1962891,5.7919922,3.6479492.5976562,7.2094727,1.1220703,10.7329102,1.0234375,2.1640625-.0595703,4.3266602-.1396484,6.5478516-.2207031l4.3886719-.1591797.1708984,1.0517578c.3037109,1.8623047.2426758,3.4316406-.1928711,4.9365234Zm-64.4570312-47.6826172c.0117188-.0644531.0263672-.125.0463867-.1796875l.034668-.0771484c.0073242-.0166016.0136719-.0302734.019043-.0429688l-.1171875-.8232422.6679688.0068359c4.9560547-5.265625,9.0458984-9.0507812,13.2514648-12.2646484,1.0234375-.7822266,2.0292969-1.6152344,3.0014648-2.4208984,1.0458984-.8662109,2.1274414-1.7626953,3.2509766-2.6132812l1.5737305-1.2011719c2.3959961-1.8339844,4.8500977-3.7119141,7.4448242-5.3212891,5.0053711-3.1044922,9.6318359-5.5976562,14.1430664-7.6210938,5.3012695-2.3759766,10.7441406-4.2294922,16.1767578-5.5078125,2.8515625-.671875,5.9228516-1.2685547,9.0390625-1.1132812,7.4370117.3720703,13.5708008,2.4921875,18.7509766,6.4804688,4.2895508,3.3017578,7.4082031,6.8837891,9.534668,10.9501953,1.7407227,3.3310547,2.8969727,6.8417969,3.4365234,10.4365234.2998047,1.9941406.4599609,4.0546875.5043945,6.4853516.1367188,7.5234375-2.1235352,14.8730469-6.7182617,21.8447266-3.3188477,5.0351562-7.0942383,8.8730469-11.5419922,11.7324219-1.230957.7929688-2.4375,1.6425781-3.7148438,2.5419922-.6459961.4550781-1.2626953.8896484-1.9047852,1.3349609l-1.3017578.9003906-.9008789-2.5498047c-.1611328-.4560547-.3081055-.8720703-.4580078-1.2880859l-.0688477-.1875c-1.8706055-5.1728516-3.8046875-10.5214844-7.418457-14.7626953-2.7709961-3.2519531-5.1791992-5.7714844-7.5776367-7.9296875-2.2075195-1.984375-4.9760742-3.4365234-7.6538086-4.8398438l-.4453125-.234375c-3.6469727-1.9150391-7.4926758-3.3710938-11.4306641-4.328125-4.890625-1.1884766-10.269043-1.5195312-16.4384766-1.0068359-3.5126953.2890625-7.234375,1.0214844-12.0668945,2.3759766-.6708984.1875-1.3442383.3671875-2.0175781.5458984l-.1728516.0458984c-2.0092773.5332031-4.0864258,1.0849609-6.034668,1.8476562-.387207.1523438-.7548828.1572266-1.0717773.1337891-.0151367.0078125-.0302734.0146484-.0454102.0214844l-.1469727.0712891c-.0810547.0273438-.1694336.0449219-.2714844.0537109l-3.1606445,1.5615234,1.8032227-3.0576172Zm-2.4658203,10.4414062c1.597168-.6611328,3.1469727-1.3027344,4.7016602-1.9306641,1.1616211-.4707031,2.3208008-.9453125,3.4804688-1.4208984l.1152344-.046875c3.2207031-1.3183594,6.5507812-2.6826172,9.8793945-3.90625,2.9233398-1.0751953,5.7988281-1.8964844,8.546875-2.4433594,4.9868164-.9931641,8.7929688-.6669922,13.5756836,1.1611328,7.3173828,2.7988281,12.9257812,6.6796875,17.1469727,11.8613281,3.065918,3.765625,5.421875,8.4033203,7.0024414,13.7822266.5170898,1.7587891.996582,3.5371094,1.5043945,5.4199219l.1538086.5683594c.2016602.7470703.4086914,1.5146484.6269531,2.3085938l.324707,1.1855469-1.1889648.3066406c-.3491211.0898438-.6733398.1787109-.980957.2646484-.6577148.1806641-1.2680664.3486328-1.8989258.4648438-2.3828125.4375-5.168457.9042969-8.0698242.9042969-1.652832,0-3.1879883-.1464844-4.6933594-.4492188-.7226562-.1435547-1.449707-.2666016-2.1767578-.3896484-1.9980469-.3359375-4.0424805-.6806641-6.0170898-1.4853516-2.6396484-1.0732422-4.9453125-2.1201172-7.0498047-3.1992188-4.3525391-2.2353516-8.546875-4.7763672-12.6030273-7.234375l-.5595703-.3388672c-4.5117188-2.7324219-8.6669922-4.9482422-12.7026367-6.7744141-1.9228516-.8681641-3.8945312-1.6826172-5.8012695-2.4697266-1.078125-.4462891-2.1557617-.8916016-3.2290039-1.3457031-.6347656-.2714844-1.2597656-.5625-1.9624023-.8916016l-3.5737305-1.6503906,5.4487305-2.2509766Zm-61.5483398-.2021484c1.6445312-.0087891,3.1782227-.0166016,4.6538086-.4238281.8735352-.2421875,1.7460938.0615234,2.4477539.3037109l.3095703.1054688c3.0522461.9960938,6.1010742,2.0117188,9.1289062,3.0195312l7.5625,2.5146484-4.0869141.9970703c-1.1787109.2871094-2.3637695.5585938-3.5507812.8300781l-.1254883.0292969c-4.112793.9384766-8.3657227,1.9091797-12.3500977,3.5703125-.980957.4091797-2.0117188.7910156-2.9213867,1.1279297-1.953125.7236328-3.7866211,1.4033203-5.5073242,2.3808594-.8198242.4658203-1.6411133.9287109-2.4619141,1.3916016l-.6279297.3544922c-2.3466797,1.3222656-4.7734375,2.6904297-7.1630859,4.0917969-3.2163086,1.8857422-6.8847656,3.4550781-11.5454102,4.9384766l-1.2739258.4111328c-2.0957031.6835938-4.2636719,1.390625-6.5068359,1.7363281-2.2680664.3505859-4.4926758.4580078-6.8476562.5712891l-.097168.0048828c-.9755859.046875-1.9648438.0947266-2.9692383.1621094l-2.2416992.1513672,1.1074219-1.9541016c.1376953-.2421875.2514648-.4677734.3569336-.6767578.2480469-.4912109.4804688-.9521484.8579102-1.3681641.6245117-.6894531,1.2397461-1.3916016,1.8549805-2.09375,1.7192383-1.9589844,3.4824219-3.96875,5.4570312-5.7314453,4.3686523-3.8994141,8.6879883-6.9824219,13.2045898-9.4257812,4.0761719-2.2050781,7.8188477-3.8447266,11.4423828-5.0146484,1.8544922-.5976562,3.7539062-.9677734,5.5908203-1.3251953.5698242-.1113281,1.1401367-.2236328,1.7080078-.3408203,1.5649414-.3242188,3.1049805-.3310547,4.5942383-.3378906Zm-54.059082,16.9287109c-2.3881836,3.0214844-4.4916992,5.7744141-6.0458984,8.8779297-.1547852.3105469-.3710938.4980469-.5795898.6787109-.0859375.0751953-.1938477.1679688-.3305664.2978516l-.4135742.3935547-.5678711-.0693359c-.5454102-.0673828-1.1098633-.125-1.6870117-.1835938l-.1772461-.0175781c-1.5805664-.1621094-3.1733398-.3251953-4.7749023-.6552734-1.3500977-.2802734-2.6762695-.6669922-3.9589844-1.0410156-1.2456055-.3642578-2.472168-.7236328-3.6757812-.9804688-3.2719727-.7021484-6.1855469-2.1992188-8.8896484-3.6728516-3.8847656-2.1191406-7.1191406-4.7109375-9.6123047-7.703125-3.8232422-4.5888672-5.5410156-8.8798828-5.40625-13.5058594.1005859-3.4453125,1.3383789-6.7255859,3.7832031-10.0292969,4.6123047-6.2333984,10.862793-10.8681641,19.1083984-14.1699219,4.2636719-1.7070312,8.3017578-2.8154297,12.3452148-3.3876953.6030273-.0849609,1.2060547-.1757812,1.809082-.2666016,3.2392578-.4863281,6.5869141-.9882812,9.9863281-.6972656,6.3920898.5478516,12.0737305,1.7236328,17.3701172,3.5927734,7.9140625,2.7929688,15.2539062,6.8671875,21.8154297,12.1103516,1.1787109.9414062,2.3720703,1.8662109,3.6914062,2.8886719l4.2358398,3.2958984-2.5595703.5322266c-.7631836.1582031-1.4667969.3085938-2.1313477.4521484-1.3618164.2929688-2.5380859.5458984-3.7563477.7607422-5.1079102.8974609-9.9916992,2.4023438-14.5151367,4.4755859-4.3359375,1.984375-9.3242188,4.375-13.6547852,7.6357422-4.1645508,3.1357422-8.1708984,6.2900391-11.4082031,10.3876953Zm83.1142578-5.375c-.0864258.2246094-.152832.4150391-.2109375.5830078-.121582.3486328-.2358398.6777344-.4238281.9990234-4.671875,7.9560547-8.7797852,14.1806641-12.9282227,19.5888672-3.0742188,4.0068359-6.7871094,7.8847656-11.3510742,11.8535156-4.1816406,3.6376953-9.0380859,7.0214844-14.8461914,10.3427734-3.8779297,2.2167969-7.7924805,4.0029297-11.6337891,5.3076172-3.1928711,1.0859375-6.644043,2.0908203-10.2475586,2.0908203-.203125,0-.40625-.0039062-.6098633-.0107422-3.9038086-.1240234-7.2460938-1.4775391-10.2182617-4.1386719-3.1157227-2.7910156-5.2460938-6.1191406-6.5126953-10.1757812-.1494141-.4824219-.2324219-.9755859-.3129883-1.453125-.0390625-.2333984-.081543-.4824219-.1342773-.7539062l-.2480469-1.2744141,1.2885742-.1572266c.215332-.0253906.3857422-.0507812.5273438-.0712891l.0844727-.0117188c.3046875-.0449219.5039062-.0761719.7338867-.0644531,5.706543.0908203,11.328125-1.3955078,16.5410156-2.9902344,6.1855469-1.8925781,11.605957-5.3144531,17.0737305-8.9521484,5.7895508-3.8505859,12.0366211-7.9082031,18.4882812-11.4931641,1.9492188-1.0820312,3.9472656-2.3037109,5.7104492-3.3798828,1.6669922-1.0185547,3.3901367-2.0703125,5.1289062-3.0576172,3.6396484-2.0644531,7.1235352-3.3183594,10.6503906-3.8320312.2919922-.0429688.6049805-.1367188,1.0390625-.2675781.3144531-.0957031.6142578-.1855469.9619141-.28125l2.309082-.6347656-.859375,2.234375Zm-58.0932617,103.2011719c-4.9975586,3.8671875-10.1362305,6.9931641-14.5039062,9.5400391-7.9467773,4.6367188-16.5932617,7.4960938-23.2382812,9.46875-3.3588867.9970703-6.5864258,1.5029297-9.5927734,1.5029297-.1796875,0-.3588867-.0009766-.5361328-.0048828-4.4145508-.0878906-7.4941406-2.0644531-9.152832-5.8740234-.0751953-.1728516-.1679688-.3369141-.2685547-.5166016l-.3886719-.7783203.0292969-6.2998047.112793-.2119141c.265625-.5.527832-1.0175781.7929688-1.5429688.6196289-1.2294922,1.2602539-2.5009766,2.0551758-3.7314453,2.0766602-3.2128906,4.9936523-5.9658203,9.1806641-8.6640625,4.6572266-3.0019531,9.7299805-5.0537109,15.5083008-6.2724609,3.0175781-.6376953,6.6206055-1.2558594,10.4350586-1.0771484,6.5166016.3349609,11.8105469,2.7060547,15.7358398,7.0488281,1.105957,1.2255859,2.0063477,2.6103516,2.8764648,3.9511719.3930664.6044922.7890625,1.2138672,1.2075195,1.8144531l.6572266.9443359-.9101562.703125Zm-47.2626953,135.5058594c2.6977539-5.2548828,6.0332031-8.7412109,10.4960938-10.9697266l.8500977-.4238281.6137695.7236328c1.4868164,1.7568359.668457,3.3378906.2285156,4.1865234-.0810547.1572266-.1376953.2675781-.1875.375-1.1240234,2.4658203-3.300293,3.8994141-5.2202148,5.1650391l-.1020508.0673828c-.9995117.6601562-2.0537109,1.1347656-3.2744141,1.6845703-.5673828.2558594-1.1625977.5234375-1.8007812.8330078l-3.2558594,1.5771484,1.652832-3.21875h-.0004883Z" stroke-width="0"/>
  </g>
</svg>