<?xml version="1.0" encoding="UTF-8"?>
<svg id="Layer_2" data-name="Layer 2" xmlns="http://www.w3.org/2000/svg" viewBox="0 0 164.4647074 142.837714">
  <g id="Layer_1-2" data-name="Layer 1">
    <g>
      <path d="m83.4949381,20.1823672c-2.5252779-1.4039663-2.1382547-7.2632427-.6708179-9.3287387.075106-.0752225.2063185-.1177744.2851391-.0230427.0069363.0052912-.0033335.0143347-.0102745.0090433-.0351975-.0231929-.0836331-.0103123-.1228206-.0174886-1.0839133,1.0529038-.5323304,9.1330793,1.8292594,8.0133183,1.4413795-1.0424126,2.072341-2.9184298,2.6525929-4.4933624.6104338,1.5126266.4536428,3.2616888-.555233,4.5663747-.7279598,1.0459669-2.1617743,1.9215499-3.4078454,1.2738963Z" fill="#423b30" stroke-width="0"/>
      <path d="m88.4702252,18.8508204c.7186854-1.1432553,1.3563088-2.3555865,1.4148774-3.7252948.0817112-.974398-.3191199-2.5734117-1.6036556-1.9854897-.0005828.000228-.0012246.0004902-.0018274.0007359-.9539035,1.9040378-3.4342014.3022515-2.2699467-1.4107628-.5244796-.6748322-1.7463913-1.1519674-2.5198161-.7262073-.0006696.007534-.0012826.0149958-.001925.0224747.0725951.1603087.3417914.1502476.4347247.2416927-.2258531.0437933-.6573518.1569132-.7795521-.1321216-.2515571-.4297577.2050257-.8535133.5606321-1.0359099,1.2329295-.6697245,2.846541-.5332351,3.9177858.3981404,1.6987306-.7213138,3.8763682.1445234,4.4258297,1.9471816.9135555,2.6850211-1.0691992,5.5453276-3.5771265,6.4055608Z" fill="#423b30" stroke-width="0"/>
      <path d="m78.7784841,13.1275472c-6.9145761-1.4154434-14.6005174-.4775483-20.8459769-4.2602726-2.2302273-1.2345171-4.0663799-4.3353556-2.0532197-6.551147,2.7086432-2.7948706,7.4656739-1.7333732,10.9515777-1.4448534,3.9338821.2980557,7.4449619,2.1956079,10.3224196,4.8156686,1.585879,1.4747879,3.5245894,2.7951875,4.6596549,4.6442253-1.0391211-1.2104033-2.6876364-2.009765-4.0240644-2.9580807-2.0878502-1.2965114-4.1637204-2.6912293-6.5202734-3.4522821-1.5396625-.4992823-3.1569716-.6264229-4.7650184-.7028915-2.5371872-.0132515-5.1691902-.3622641-7.6340176.3761558-3.6734047,1.5904948,3.2601527,4.4079223,4.7600181,4.6715528,4.4185078,1.1263892,9.1559446.8551711,13.397349,2.710967,2.0246116.8523331,4.0769632,1.6211589,6.1261427,2.2162011-1.4596568.1154926-2.920503.0805504-4.3745914-.0652433Z" fill="#423b30" stroke-width="0"/>
      <path d="m58.2503873,19.3934556c-6.8587548-.8428589-7.5426868-7.7725242-4.0642061-12.6582045.4384044-.712032,2.3488737-3.2428527,3.1740192-2.2877077-.8712317-.6558681-2.0789802,1.7478473-2.4079459,2.4130225-2.1814827,4.357215-1.8573279,10.2564035,4.2785752,10.0890013,7.1194639.434747,14.231853-2.6580089,21.2923169-1.2255386-2.1446505.3948634-4.1938475,1.4171164-6.3102589,2.0418184-5.1491728,1.4358752-10.6256513,2.2905181-15.9625004,1.6276087Z" fill="#423b30" stroke-width="0"/>
      <path d="m97.0429883,12.0595361c4.005348-1.6469602,17.2200796-4.9706285,17.9671443-9.249781-4.0045146-.2790511-7.7746263,1.5004547-11.3686008,3.0270829-4.2712146,1.8321225-8.764782,4.1301675-13.034842,5.4918709,6.5868558-3.5691846,12.6018032-8.4233238,19.8222152-10.6818793,2.4535287-.7220736,7.6351459-1.6637006,7.3699369,2.2930352-1.25901,7.464446-14.5418463,9.6411552-20.7558536,9.1196714Z" fill="#423b30" stroke-width="0"/>
      <path d="m97.4728054,19.4659235c-2.2786011-.4161382-4.5915943-1.0448535-6.7391544-1.8042725,1.3434993-.0428677,2.6880281-.0638491,4.0319646-.0749427,7.1404157-.3907023,14.8304754.0799021,21.3959604-3.1510205,1.3248702-.6406419,2.3665507-1.7660944,2.3320392-3.3042928.0746978-2.8548624-.6659088-6.2737978-.164763-8.8620185.2539701,1.7352197.557727,3.5790799.95484,5.256635.4201536,2.039995,1.2007094,4.2874344.2346221,6.2848546-1.226644,2.260941-3.7746376,3.3111436-6.0283908,4.2757509-5.0399136,2.0191773-10.6984684,2.2250741-16.0171181,1.3793064Z" fill="#423b30" stroke-width="0"/>
      <path d="m51.3293101,36.6335108c3.7367513-1.4843427,7.5048336-3.2131384,11.150941-4.9882928,3.0885931-1.5661715,5.103651-4.4208769,6.6319016-7.4365506,1.771418-2.9013937,3.3394492-6.7415629,6.859667-7.8061134.5870803-.139041,1.2635975-.0698192,1.7721815.1542489-.9235797-.2415599-1.9124796.0519482-2.6707004.6029916-3.814787,3.2607379-4.3601188,8.6828463-7.3274672,12.5506763-3.8384681,4.7749975-10.4023299,7.1000626-16.4165236,6.92304Z" fill="#423b30" stroke-width="0"/>
      <path d="m63.9121356,42.3094764c-1.2679655-.1898842-2.5981051-.5282373-3.7778611-.9439475,1.8421233-.3170699,3.7121476-.5136351,5.5373302-.923614,3.1400781-.5812001,5.4068343-3.0851824,6.8809949-5.7693961,1.2631679-2.3026146,1.7819722-4.8999003,2.6889755-7.3447192,1.3174076-3.4704533,3.3005453-7.009207,6.5246882-9.0179292.3363573-.2106344,1.2894647-.5353857,1.4929183-.1029357-1.5788617-.5457254-3.3264246,2.5672897-4.09722,3.6853081-2.6254459,4.10014-2.5929013,9.1007119-4.4792244,13.4807935-1.9014708,4.319071-5.7005581,8.0937498-10.7706016,6.9364401Z" fill="#423b30" stroke-width="0"/>
      <path d="m59.1488985,41.3306426c-.2144345-.2293375-.3834452-.5019407-.4916173-.7984345-2.0091654-.6375351-4.4569666-1.7396524-5.0666254-3.936952-.0301617-.2810279.1213386-.5533182.4075231-.3025683.1355392.0708435-.0858321.0449898-.1485307.0530404,1.4074922,1.442601,3.8239918,1.3505158,5.712697,1.6581941,1.401183-.784129,2.8555594,1.1356839,1.6519732,2.2384289.4502452.7527242,1.130087,1.3921505,1.5632123,2.1293689-1.2601674.0680111-2.7327959-.0786613-3.6286322-1.0410775Z" fill="#423b30" stroke-width="0"/>
      <path d="m98.1593706,44.5420253c-4.9250379-.72993-8.954633-5.2802966-8.6575725-10.3201135.2659184-6.5449936,3.0582805-9.7212411-2.3173727-14.8203945,7.6956943,4.8253119,2.8379546,10.8163866,4.9093275,17.5672751,1.2585361,3.2476427,5.9313197,6.5679056,9.434561,6.2261668.8054336-.084039,1.6637656-.2303961,2.4372455-.3195025-1.7317999,1.1055213-3.6967668,2.07664-5.8061888,1.6665686Z" fill="#423b30" stroke-width="0"/>
      <path d="m100.9226694,35.5952785c-6.6602004-3.1597821-1.897078-12.3499222-7.2179309-16.0544499-.6717966-.4729277-1.6299031-.7404032-2.287049-1.0161425,2.711963.0792087,5.1011317,1.896463,5.9664938,4.4534921,1.5010549,3.3610289.6856555,7.795201,3.8921986,10.1167101,2.1560526,1.2142951,4.8313139,1.4812061,6.694493,3.2187929-2.3454371.7578682-4.8875886.4349828-7.0482054-.7184026Z" fill="#423b30" stroke-width="0"/>
      <path d="m101.547156,43.8360475c-.5733251-.1165146-.3945723-.5703095.0730152-.6887816.0023152.0665002-.0970433.1614484-.1235139.2415323.8398657-.5252877,1.4952195-1.5019721,1.880393-2.3791587-2.1965504-2.110279,1.18068-4.7115887,2.3841516-1.903455.4457344-.0335667.9370427-.3640184,1.1595045-.722289.3717869-.6270439.3004409-1.4004147.4292373-2.057664,2.1074816,1.9879212.940197,5.3954344-1.9884921,5.4629615-.8523374,1.1512726-2.3487084,2.0983509-3.8142955,2.0468546Z" fill="#423b30" stroke-width="0"/>
      <path d="m41.722952,33.1286915c-1.2910338-3.0630439.3700027-7.6874935,3.9805699-8.0551228-.0061388.0698634-.1104499.158264-.1427692.2211929-1.3847541,2.5413906-3.8784219,5.1022822-3.23859,8.1410564.0052575.0002783.0104691.0005347.0156347.0007692.1058241-.0798941.0400711-.2846963.0890889-.3576038.3554114.9066988-.5095664.6975897-.7039342.0497081Z" fill="#423b30" stroke-width="0"/>
      <path d="m45.8547138,25.3361336c-1.2450731-1.2645012-.3864122-3.4001291.3413901-4.7448161,1.3819822-2.5713057,4.3399926-4.729772,7.3141233-3.5271673.4223574.1386952.9130079.2832017,1.2728799.4959918-3.2239529.0087027-6.2631632,1.5111008-7.9472359,4.2974034-.4133117.473773-1.5440975,3.2682357-.374429,3.1331421.3613185-.1874689.7407678-.5145187,1.0799803-.6671991-.4898888.4052102-.9282861,1.4163884-1.6867088,1.0126452Z" fill="#423b30" stroke-width="0"/>
      <path d="m126.0721875,38.0023619c.6410673-1.6841949,1.5860328-3.4066971.8993169-5.1849368-.7476282-1.7682-2.6878473-3.6043827-4.7182497-3.3697953-.5875641.355324-1.3695309.2230485-1.8006827-.3160089-.4808896-.5955674-.3697892-1.4637426.2113629-1.9455131.8570401-1.0835973,1.6387396-2.5402985,1.3165316-3.9657011-.5272606-2.0184283-2.9789239-3.7080972-5.0186676-3.1638028-.0083014.0220683-.017163.0443092-.0254551.0674199.0002231.052369.1063422.1042519.0862441.1333912-.2646738-.0867457-.1656436-.335237-.0138539-.4301959,4.2240869-1.9322586,8.8492511,2.5850374,6.9467689,6.9401846,3.2641816.8014583,5.966609,4.2683257,4.9169951,7.6603059-.4794357,1.4481985-1.6907452,2.6207059-2.8003105,3.5746524Z" fill="#423b30" stroke-width="0"/>
      <path d="m52.9296414,43.3893043c-.7158577-.2391547-1.4681099-.7575373-1.7270626-1.4683683-2.9576348-.9832505-5.3547935-3.1818364-6.6407065-6.0161553-.5575291-1.282769-1.9727359-4.0804182-.5343535-5.1183054.1699049-.0307285.3806434-.0419206.4993918.0391609-.2277495-.0152362-.4768148.0413975-.5859528.264071-.5432555,2.1653726,3.1407067,6.0730097,4.850598,7.2119675,1.1522195.7452069,2.467509,1.1752382,3.767637,1.5860813.8944165-.1071398,1.8016277.7591337,1.4373768,1.6672029,1.3700139.8432276,2.8075579,1.7057234,4.0188389,2.7234202-1.7120389-.1091227-3.4571247-.3464274-5.0857671-.8890751Z" fill="#423b30" stroke-width="0"/>
      <path d="m75.7076074,51.3446816c-1.1633529-.3850209-2.1798997-1.0719531-3.0670942-1.9013783-4.3853033,1.2485877-10.1122915,1.8262095-13.340533-2.0805848-.7606363-.8431605-2.011646-3.436817-.656392-4.1562327-.7264539.6253117-.1406215,1.8411454.3110246,2.5001219,1.5848621,2.2293781,4.4959059,3.0923343,7.1133684,2.7953237,2.1757815-.3184194,4.4420216-.6565686,6.4215191-1.6343379.8519349-.2724428,1.4622483.4774331,2.0268113.9837201,1.764122,1.4179968,3.8607451,2.1552463,6.0942693,2.2502913,1.5424783.0356372,3.1537447-.0994759,4.6574083-.1333283-2.9381697,1.4355909-6.3423929,2.5882451-9.5603818,1.3764049Z" fill="#423b30" stroke-width="0"/>
      <path d="m90.0226218,51.821042c-2.1763744-.2820882-4.4425933-1.0690158-6.0082843-2.6572656-.3415524-.3248746-.4710995-.9307413.2047287-.6634147.1576077.0723069.4061956.1130598.5135078.1976363-.2558743-.0242077-.512589-.0735667-.7714019-.0775236-.0007333.0046697-.0014277.009323-.0021846.014067,2.6867397,2.159347,6.7737511,2.0163134,9.8915326.8691736,1.4170942-.54015,2.7272705-1.2970643,3.9691324-2.1610913.4419879-.3296175.8891989-.7076012,1.471376-.723133.9864935-.0212803,1.548536.896619,2.3892426,1.249672,2.2289536.9641573,4.5937212-.1059066,6.749105-.7592836,1.2575398-.4059843,2.412712-.5518325,3.5935624-.9564162-1.6820952,4.6083328-9.0785821,6.4947133-12.8010092,3.3266643-2.7279331,1.686065-5.9777479,2.6856626-9.1993074,2.3409148Z" fill="#423b30" stroke-width="0"/>
      <path d="m116.3634218,45.2357706c-.9967224-.1032313-3.0472846-1.4471636-.8359606-1.5297479-.1617928.1401602-.5383189.1402169-.7072421.3310272-.0012024.018865-.0024049.0377301-.0036298.0566505,2.9604863,1.7076101,7.8644304-1.9388181,9.8291773-4.110057.5802473-.5445441,1.278194-1.0322621,1.744276-1.6489581,1.2960049,4.2036302-6.6379139,7.7289487-10.0266208,6.9010852Z" fill="#423b30" stroke-width="0"/>
      <path d="m40.5866125,51.5544867c-.4035435-.8961287-.6632914-1.8800735-.5761947-2.8661562.057701-.6568371.382235-1.3599129.8627951-1.8250051-1.2142675-3.0436606-1.3227573-6.7131931.4991807-9.5392937.5214606-.776917,1.4668378-1.8618922,2.4919802-1.3638289-1.7518417-.0390373-2.0314642,2.7099493-2.1617728,4.0577913-.0849233,2.1387649.4811024,4.1091845,1.3739192,6.0119945.3277667.5008921.8794202.8753936.6709475,1.580014-.1324096.5322124-.6046068.8775392-1.1231275.8991172-1.1681214.5747146-1.3881574,2.0713067-2.0377278,3.0453669Z" fill="#423b30" stroke-width="0"/>
      <path d="m36.7448543,67.3919989c-1.7000738-1.5692124-2.5043025-4.2849212-.7883815-6.1414689-1.3925777-3.6578822,1.0690109-10.8070316,5.1560845-11.6428717.2428731.0106502.5400094.0551037.6929657.196971-.2218558-.0613434-.4407687-.0498389-.645691.0096273-3.0161633,1.6397736-4.0699358,7.763578-2.784897,10.7636187.000167.0003516.0002905.0006436.0003789.0008907,1.3015631.6523698.7242339,2.7018069-.7329344,2.5356109-1.192872,1.1218724-.8824845,2.8469932-.897525,4.2776221Z" fill="#423b30" stroke-width="0"/>
      <path d="m31.7793061,83.391026c-1.8701008-2.2249803-4.8035902-6.1647741-1.1452465-8.2106584-1.1051476-3.0088422,1.587824-6.9713668,3.9568786-8.7054228.7007718-.5611642,2.3592979-.9424947,2.5006335.3267171-.446217-.9469794-1.5059471-.2533541-1.9641702.3329111-.470752.5495485-.8733126,1.2614831-1.1609507,1.8784152-3.0529081,6.997715.8915199,4.7045977-.0141805,7.5193926-.2308342.4178578-.5958956.6322505-.9997945.7363517-.5471253.1749629-1.264331.305994-1.5597526.8951161-.2286355,1.724973.5125547,3.5063628.3865829,5.2271774Z" fill="#423b30" stroke-width="0"/>
      <path d="m127.2574438,64.0372403c.124038-2.7959769,1.1867517-5.8844154-.1744644-8.5086218-1.8917525-.1707159-1.8942145-2.8961431.0472786-2.9913989,2.1152085-2.7018272,3.1562164-10.407544.8345829-13.0909013-.0002099.0000245-.000303-.0000004-.0004339-.0000277-.0236091.4732302.4923129.8644906.6732704,1.2215774-.4093985-.3097648-.8673993-.6177784-1.0639101-1.1103424-.1180399-.3094349.1476752-.6241672.4702694-.605424,1.9134998.6791515,2.5989207,3.8361105,2.9303955,5.6421304.5050283,3.202305.2297195,6.7290841-1.5867945,9.4920759,1.7045548,3.3611761-.3762249,7.0907564-2.1301939,9.9509324Z" fill="#423b30" stroke-width="0"/>
      <path d="m132.8540311,79.0868339c-.3602866-.9970772-.6093567-2.1238813-1.1871766-3.0061341-.5418255-.7566293-1.3086566-1.3165663-2.1373648-1.7259164-.6910841-.2401612-1.3462628-.8923827-1.1254804-1.6807694.0302053-.266464.3258643-.7053729.4842845-.7935117,2.7190068-2.404864,2.2738627-6.1134133.7072693-9.0396653-.1404778-.4281329-1.1502525-2.1916756-.4643768-2.298924.1157528.0098024.20886.1466617.2691725.2280532.0849297.1349932.2628171.321523.2964445.4456507-.1621845-.1282871-.3221371-.2621714-.4916813-.381381,2.7779549,3.8548713,5.4068498,7.0409201,2.2978194,11.7761884,2.1289358,1.4626156,2.3337033,4.2684455,1.3578532,6.4823339-.0029232-.0002005-.0058258-.0022087-.0067634-.0059242Z" fill="#423b30" stroke-width="0"/>
      <path d="m138.9115365,96.7220073c.0040196-2.7596583-.3312273-7.8503469-4.1900682-7.3708943-.5509397.2752242-1.2548762.0218466-1.5668309-.4853681-.3149751-.5124268-.2069753-1.233888.2673291-1.6107888.2139659-.5159143.4112891-1.2860259.5257088-1.7403035.5068957-2.3714456-.4692317-4.9330202-2.1898997-6.5718489-.0497379-.0565099.0062043-.1353784.073915-.1335061,2.9544687,1.2959272,4.7000883,4.7531031,4.1296158,7.9267675,4.9131725.6655676,5.0467207,6.5661883,2.9502301,9.9859423Z" fill="#423b30" stroke-width="0"/>
      <path d="m35.8937163,109.681547c-4.6259307-1.2834151-9.36106-6.9445612-7.3493302-11.8426785-3.0572982-3.5911083-5.10925-8.9609532-2.3588857-13.2931599.6451616-1.1261397,1.6259865-2.8419998,2.5832273-3.3257301-3.6621454,5.7578488-2.4433922,10.2437676,2.0299744,15.0135031,2.0338083.0718597,2.2535679,2.9606057.1393922,3.0824732-.515472,3.5771801,2.4496041,7.2153144,5.4888826,8.7892746,2.3540523,1.0457571,4.9239113.8804444,7.4239439,1.2009862-2.563112.3862048-5.348253,1.0512286-7.9572046.3753315Z" fill="#423b30" stroke-width="0"/>
      <path d="m56.651446,119.9338654c-.8182563-.3237021-1.5357306-.8591885-2.1530281-1.4828466-.4495311-.4521881-.7872317-.9802885-1.1188696-1.5155413-3.9768906,2.7991583-9.0117968-.6033406-10.6985517-4.4916274-.4419686-1.0176452-.8303577-2.125826-.8722555-3.241452.0147276-.193024.0098878-.3072855.1211588-.4554013.1872984-.0716704.3311326.1075178.4833257.2151467-.0944199.0220723-.2600234-.1698116-.3968264-.1223123.6204791,3.5831175,4.5704868,7.4204666,8.3803041,7.0233731,1.3494476-.1743794,2.1279976-1.6951906,3.4227459-1.6329329.9886005.1012361,1.3572315,1.1636825,1.8796231,1.8602782.606043.832625,1.3738455,1.5492384,2.3147518,1.9856759,2.4629494,1.0747083,5.3000118.440554,7.8672098.5741985-2.906051,1.1118414-6.1483514,2.5533536-9.2295879,1.2834414Z" fill="#423b30" stroke-width="0"/>
      <path d="m68.5440161,121.6718831c-.91258-.6749829-3.8248834-3.8529562-1.522324-4.3011904,1.0929582.2140368,2.1271482,1.0085646,2.8855887,1.7429357-.8866742-.4912265-1.8731089-1.002298-2.9005567-1.0309065,1.9311166,3.503814,7.3033126,4.3240518,10.9054148,3.5213233.8578011-.2102433,1.6895051-.4978219,2.4999534-.8435992.7868897-.4373845,1.7106708-.6602046,2.5413958-.1972063,2.3314571,1.5946103,5.1247012,1.9456983,7.884537,1.5926977,2.1542596-.2066147,4.368908-.5782075,6.3241961-1.4554242-3.6529937,4.2701286-10.5414093,5.7514727-15.2894704,2.4389889-4.2754351,1.932812-9.6326635,1.5374806-13.3287346-1.4676192Z" fill="#423b30" stroke-width="0"/>
      <path d="m99.4247727,121.8796028c-.4758001-.1196935-3.1166089-1.8816717-1.7948936-2.1557282-.0508529.0492461-.2149976.0551304-.2687178.1603558,1.0642291,1.9730988,4.9642068,1.970094,6.902674,1.496456,4.5928229-1.0944916,8.2236801-4.2957701,10.4783205-8.3512789.6263218-.6469041,1.6342311-.4157665,2.1951622.1891077.2237808.1841891.5035347.294967.7853112.3490487,1.8428047.1466845,3.6199886-1.0129207,5.152578-1.6976214,1.1471043-.6026293,2.2960111-1.3167481,3.4393789-1.8488685-1.7781984,3.6376409-6.0143141,7.8079621-10.3163381,5.7067962-3.4180393,5.0585114-10.6311234,8.6041846-16.5734754,6.1517326Z" fill="#423b30" stroke-width="0"/>
      <path d="m129.8339867,109.4498829c-.67545-.4239312.0378853-1.2648207.3640423-1.6012339-.5111711.8417851-.5692501,1.6980159.6676437,1.0875663.96904-.5531004,1.7041162-1.3659911,2.437043-2.1876562,2.0456447-2.3982506,3.6075788-5.1451355,5.2816844-7.8016599.2983424-.4477257.5943109-.9592468.8962894-1.3588184.0999877,2.8191159-1.1441186,5.400384-2.9738079,7.4794427-1.2931707,1.5361787-4.4943301,5.1465768-6.672895,4.3823594Z" fill="#423b30" stroke-width="0"/>
      <path d="m56.7018239,62.0239097c-.7839034-.5203195-1.4097825-1.1614963-1.9044595-1.9591788-.0356264-.0578456-.0695842-.1167593-.1022039-.176459-4.8260956,1.4776491-9.0279989-3.4152788-9.2877227-7.9308201-.0652055-.8570804-.1497553-1.7579179.1139965-2.5870226.1631801-.1368138.1496425.3084185.1612938.3982817-.0517843-.0101386-.0516043-.1618499-.0871665-.2248625.2072088,4.0184984,3.3564512,9.1388649,7.9243217,8.3808774.241072-.0481648.5213409-.1646352.6950911-.3244902-.010908.0102151-.0218206.0203542-.0327178.0303996-.0201565.0143043-.0399906.028307-.0591732.0417452.0308687-.02546.0617457-.0509006.0925943-.0763429.2694223-1.6607182,2.7142648-1.0564628,2.3172542.5382374,1.2271107,3.1750015,5.1632886,3.5932037,8.1057303,3.8305669.8866179.1095672,1.8461195.1818242,2.6952625.3173017-3.4477031.7824335-7.4504477,1.8600169-10.6321007-.2582338Z" fill="#423b30" stroke-width="0"/>
      <path d="m76.0588496,68.7993317c-4.0728937-.5535745-6.8267566-4.1986844-8.6645771-7.5810835-.0772615-.1417781-.0577929-.3268664.0897083-.3798019.2364958-.0033374.583882.0572749.7641394.1457006-.224566.0076257-.4570297-.0124001-.6794236.0250409-.0004704.0027734-.0009628.0055217-.0014181.0082818,2.7889931,3.4695058,8.2744588,8.0820576,12.345241,3.8518742.5149675-.491539.9560409-1.2766482,1.7909485-1.1339521.5455847.0492083,1.01067.3943634,1.2321156.8924565,2.0614298,3.2304953,6.8749051.4848679,9.9087921.8527716-2.4338581,3.6339797-8.2612052,4.944536-11.5030312,1.6452253-1.4856388,1.1711983-3.3837178,1.853458-5.2824949,1.6734865Z" fill="#423b30" stroke-width="0"/>
      <path d="m98.632453,67.3745932c-.9152362-.3694905-2.5793829-1.0900282-2.528429-2.2487381.1197816-.3196773.4928906-.2013391.7364388-.142141-.1119561.0560393-.3638566-.0159512-.4984332.100183-.0134231.0340729-.027291.0673976-.0406929.1005437.339624.7946565,1.3757685.9765697,2.1234732,1.1830862,3.2829915.5414138,6.302424-1.3979412,8.6387072-3.4998685.6619333-1.0903127,2.2512377-1.0044883,2.548937.3100398.030962.3059162.4329855.4585776.6731955.4955574,4.344963.0152999,4.9600989-6.0686135,11.1658268-6.2903412-3.0724862,3.3990657-8.2753266,12.2181263-13.5464886,7.9898607-2.6496076,1.7909414-6.1085632,3.0607655-9.2725349,2.0018181Z" fill="#423b30" stroke-width="0"/>
      <path d="m50.9822834,76.6667669c-.6412805-.5136582-1.1731393-1.1464178-1.6114974-1.8386849-.1086685-.1725097-.2077154-.3540711-.2986295-.5396033-6.5293019,1.9312923-10.5148922-6.0179514-10.4035979-11.5135588.0557432-1.0484104.3219382-1.1931107.9421633-.2890808-.1666906-.077948-.3656992-.298039-.5545819-.4093893-.0124559.002554-.024918.0050556-.037492.007531.3183101,3.8385735,3.7875617,10.417355,8.2822069,10.0521865.4693046-.056556.9348961-.2010675,1.3281401-.4677233.2284756-.3812992.6185016-.6363974,1.0791237-.6496,1.3995612-.028815,1.3199847,1.639434,1.8870136,2.5296222,1.4015579,2.805696,4.6149937,3.4050892,7.444787,3.636693.6858868.1074371,1.4490384.168486,2.0939776.2789767-.6849911.1721232-1.3797472.307256-2.0762834.4324257-2.7414704.5996362-5.8218373.7287163-8.0753301-1.2297946Z" fill="#423b30" stroke-width="0"/>
      <path d="m68.4035622,84.2420954c-2.1892657-1.1045046-4.1022482-3.0060426-5.0531137-5.2826728-.175389-.5076022-.4555695-1.1998028-.115715-1.6827659.3312161-.2842095.7935169.0336815,1.1587444.1176497-1.5420896-.3125396-.9472604.6548605-.4017715,1.50825,1.897318,2.4860833,4.9393137,4.2900739,8.0985571,4.1960816,1.7285615-.1731347,3.1236567-1.496599,4.1255947-2.8197027.4247888-.8430669,1.6742371-.9182393,2.2427204-.1917328,1.6043945,3.1874992,5.6904886,1.6630861,8.2997804.7908456.8579653-.1263402,1.9174201-.1981092,2.6533755.3267735-.2447035.6682919-.5964824,1.2857385-1.1567133,1.7545794-3.1125283,2.0246064-8.0578383,2.8519615-11.003843.1317058-2.32484,2.4043406-5.9801395,2.856023-8.8476159,1.1509886Z" fill="#423b30" stroke-width="0"/>
      <path d="m94.6939518,83.8123803c-1.0524959-.4822858-2.0787178-1.3087338-2.4460155-2.4397967-.089045-.6014857.449518-.159496.6575932.0297913-.1350115-.0015591-.3265721-.1893203-.4951851-.2012986-.0021448.0066065-.0043036.0131364-.0065215.0197004,2.7022166,3.9694331,8.910429,1.2899931,11.7502239-1.2993732,1.1904053-1.100706,1.9456524-2.1489304,2.6898687-3.5367243.8553746-.9139293,2.4457514-.1412117,2.2669523,1.0966706.0880628.1473535.2211561.2634064.3460422.3596346-.0226541-.0190218-.0452487-.0386791-.0707172-.0607973-.0200816-.0174798-.0401671-.0348983-.0603099-.0517144,2.500751,1.3548925,5.3530842-.57056,7.466551-1.8881464-1.2520904,3.4034148-5.772729,6.6890386-9.153202,3.9952827-3.0765054,3.4722274-8.4251212,5.7964644-12.9452803,3.9767713Z" fill="#423b30" stroke-width="0"/>
      <path d="m118.7118277,73.9381421c-.4419953-.2782921-.6343125-1.1754337.0260027-1.2082606-.8875964.559428.5635447,1.2735301,1.1366085,1.1879015,3.0489138-.1537391,4.4930024-3.3293032,6.1107084-5.453719.4726257-.5675041.9983574-1.1574929,1.6944984-1.4412485.3771961-.1359773.7370855-.1906236,1.1348096-.1919053-.1278478.1511317-.3643132.282744-.5156146.443741-.7777859.8036194-1.0463411,1.924579-1.716061,2.8059992-1.600833,2.4151188-4.7852922,5.842852-7.8709522,3.8574916Z" fill="#423b30" stroke-width="0"/>
      <path d="m48.6166277,86.2524363c-.6680561-.595507-1.1469899-1.420125-1.388674-2.2781118-5.353987,1.3942377-12.4337718-3.6877239-10.4031636-9.4930235.3122149-.1597237.184246.4479891.1884744.6182032-.0591071-.0998585-.03928-.3336608-.0929974-.4696385-.6700481,5.3067978,5.9345419,8.9313302,10.5022147,6.9199743.9085638-1.5828925,3.0404617-.167196,2.0408023,1.2923003.0293454.7984433.5442656,1.4082456,1.1012322,1.9129119,2.1515865,1.847666,5.0797592,2.0161759,7.7814003,2.1877871.8978898.0863624,1.8661708.1332856,2.7261318.2512686-4.0747346,1.0009455-9.0109755,2.2314838-12.4554206-.9416718Z" fill="#423b30" stroke-width="0"/>
      <path d="m77.5633447,96.1548608c-1.0255892-.1138601-2.0245988-.4927247-2.9215753-.9887372-.6814469-.3782851-1.3892371-.9584249-1.9072185-1.6531863-4.5144705,3.4892989-10.9194746-.4512448-11.3942479-5.6802361.0035673-.4648853.3104922-.9072907.7307371-.4335195.1917766.2363792.4837584.5019701.6203301.7280874-.3157738-.2071759-.5944127-.5030564-.9402556-.6466485.168856,2.152156,2.2521279,3.8555645,4.0479011,4.8039501,2.1399569,1.1523338,4.6648432.3873974,6.2076878-1.3833142.0001534-.0001039.0003034-.0003027.0004664-.0004817.1174239-1.0122592,1.4727189-1.510623,2.1864961-.7626005.2764348.3037145.4712842.6701157.4123196,1.0981138.890962,2.4706956,5.1381265,2.4997075,7.389157,2.6316113,1.0439358.024905,2.1776257-.0067872,3.1717165.1918181-2.3493283,1.2052497-4.880607,2.4817719-7.6035143,2.0951433Z" fill="#423b30" stroke-width="0"/>
      <path d="m93.9969235,95.7962902c-1.1960197-.1235487-2.31615-.7872121-3.0849352-1.6974719-.1237986-.1519232-.3618971-.5527894-.0664787-.6298237.4462744.0477085.7720643.4715904,1.1563037.6872216-.2395555-.0570542-.552171-.2302747-.8182274-.3241549,4.3029709,3.1909214,7.8684751-2.587123,10.2446461-5.5314956,1.109868-1.6849998,2.5692469-1.1182691,3.2864025.541688,1.8550426,2.3906504,5.8762204.3960777,8.1359446-.4708267.5473194-.2157509,1.1139547-.5089921,1.6291416-.7204645-.3420693.5358397-.7352617,1.036902-1.1513209,1.5145534-2.3849217,3.153878-7.9626899,5.2495252-10.6222978,1.3432507-2.3118861,2.4466485-5.0495653,5.4847356-8.7091784,5.2875236Z" fill="#423b30" stroke-width="0"/>
      <path d="m118.6997499,87.3591914c-.2855737-.23641-.6383084-.5983274-.6398194-.9936416.117497-.2437153.4065861.108122.5218369.220007-.0885052.0066898-.2268097-.1232953-.3425487-.1490647,2.9303788,2.6836872,6.4232076-1.1333368,8.4033284-3.2625682.778211-.6590248,1.6093161-1.4973895,2.6772567-1.5676705-.0173023.0664053-.10667.1261526-.14813.1956399-1.2275154,3.6948265-6.6702277,8.4727741-10.4719238,5.5572982Z" fill="#423b30" stroke-width="0"/>
      <path d="m51.336461,105.9087004c-1.949985-.4040574-3.4662697-1.697608-5.3336857-2.2868421-2.7393248-1.1006015-4.7792075-3.5370525-5.6406055-6.3338387-4.7425637-2.2113573-9.6308523-6.6998887-9.566011-12.3078498.1047652-.8589756.1304557-2.0292022.9350719-2.5345939.4368424-.1588454.5872706.3720173.6884401.6864004-.1416468-.1256901-.2294094-.5049462-.4959941-.5367503-.8162332.6219759-.4355316,2.1388825-.3144232,3.0187519,1.125912,4.4269077,5.2369811,7.2019886,9.1304008,9.0674075,1.0318923-.8491492,2.6464007.300985,2.1515317,1.5526839.7464605,2.5256029,2.7442924,4.5201542,5.2749941,5.2466008,1.1643511.4370415,1.8559426,1.5511183,2.8028262,2.3038838.9976107.8399672,1.9289392,1.7425737,2.852154,2.6632638-.8054855-.080378-1.6759188-.3233616-2.4846993-.5391173Z" fill="#423b30" stroke-width="0"/>
      <path d="m67.0553414,112.2988384c-.6106977-.3590012-1.1388884-.8614924-1.5065625-1.4665881-2.2830191,1.3970176-5.3827158,1.0194072-7.3245442-.8007397-1.3954581-1.2721166-2.2900908-3.0602559-2.2531283-4.970781-.0173179-1.0308297.5961868-2.1062156,1.7601095-1.5972231-2.2215039-.2450735-.9984001,2.9020035-.2496641,3.9127022,1.566654,2.3351054,5.0224042,3.3044366,7.2722696,1.3620399.1820596-.1511426.4198524-.2633877.5181199-.488099.2326907-.4555281.7997208-.6788116,1.2890444-.5579152.5489221.1368178.9337324.6801952.8686103,1.2458097-.0931096.3917835.1877582.7294399.467788.9674665,2.5109335,1.5330297,5.7087072,1.0985734,8.4590731,1.9653998-2.8599797,1.1812253-6.4257623,2.2064088-9.3011156.427928Z" fill="#423b30" stroke-width="0"/>
      <path d="m81.3181259,113.5640292c-.8007381-.3423796-1.8434625-.8341384-2.0178236-1.7773335-.0265556-.4962974.3822336-.6714781.8129525-.6198363.6139701.134107,1.3115009.4080448,1.8554986.6349005-3.3476906-.8196614-2.3891679.5108281.0437571.9895741,2.1403803.3416006,4.1710611-.1511439,6.1589816-.8594993,2.2582981-.8492849,4.310416-2.1517642,6.3233523-3.4632947,1.0045422-1.1439769,2.8454099-.771063,2.5918348.9217107-.0532999.2769394-.2200877.6140398-.0585858.8665597.9057035.6661534,2.1913202.0918815,3.1611464-.1808321,1.8836463-.5648132,3.4440412-2.1862065,5.4441603-2.0975336.5168845.1042418.8349174.5247123,1.1014588.9405559.4405051.4642279.9737616.8863506,1.3752526,1.3605933-.8186761.1791724-1.7164649.3454604-2.5327267.0834837-2.8167439,1.9242972-8.764452,5.0700166-11.0117202.9607919-3.9659104,2.1262925-8.8074339,3.8831387-13.2475387,2.2401596Z" fill="#423b30" stroke-width="0"/>
      <path d="m112.3238597,106.4515815c-.4724459-.7339853-.0374994-1.8613064.9475038-1.5519223-.0724914.0451961-.289226.0229717-.4035838.0637945-.6916727.241289-.380258,1.1661899.1013079,1.4697199.7135495.5129609,1.6547843.4938722,2.4617544.3037063,1.7469643-.4768658,3.2706528-1.5969587,4.4388414-2.9604001.4857882-.6159135.9372232-1.2473894,1.3697824-1.9018893.3816581-.754574,1.0973362-1.4806603,2.0156165-1.190133.472443.1283821.8370669.4856401,1.2760772.6933783,1.5916432.764142,3.3720534-.1269109,4.7123359-1.0271888,1.9458214-1.3596014,3.2809684-3.6601474,5.7296073-4.158699.7509582-.1800412,1.5425154-.2362681,2.3126177-.2599001-.3275591.3842652-.7646244.758198-1.1404738,1.1197049-1.6118981,1.3488927-2.4501793,3.3753328-4.1351231,4.6586532-2.3661409,2.11925-6.1453607,3.7316969-9.0133015,1.647023-1.9677968,2.7864024-7.9149668,6.6487952-10.6729622,3.0941524Z" fill="#423b30" stroke-width="0"/>
      <path d="m93.301334,13.1271905c-.294549-.0637984-.272306-.5173785.0136156-.5648819,1.9148897-.7468212,3.8511907-1.4536366,5.8778005-1.8284257,1.6033938-.3364154,3.2780134-.501737,4.9069915-.2618316-.5302789.765937-1.3012867,1.4070474-2.1446253,1.8465543-.9271541.4718775-1.9953749.532291-3.0138124.6104628-1.8746461.1234588-3.7624855.2877863-5.63997.198122Z" fill="#423b30" stroke-width="0"/>
      <path d="m57.2060413,30.5835066c-1.3435886-.3741577-2.396963-1.4596021-2.8102548-2.7733719-.1347304-.4273688-.1976322-.9122691-.1730136-1.394205-2.8636228-.4327991-4.7006788-4.0000011-2.8690668-6.4151707.4162803-.6109866.9233777-1.345026,1.7115557-1.4425906.2196338-.0223689.3623249.1734151.4691261.3233646-.1795316-.1451333-.4891189-.2572445-.7151833-.0363601-.7831697.7769426-1.2283103,2.0746004-1.1378521,3.1669926.2375769,1.5329764,1.6748422,2.6606189,3.203884,2.562486,1.0741307-1.308861,2.7566283.2838032,1.5354634,1.478242.0060178-.0214562.0114248-.0429892.0165834-.0647842-.0008193.0008191-.0016576.001637-.0024687.0024755-.1548764.5200594-.0113078,1.2166413.2711836,1.6346948,1.2121347,1.7222865,3.4952939,2.1321425,5.2884259,3.0355627-1.5021593.324665-3.2620672.3350628-4.7883827-.0773357Z" fill="#423b30" stroke-width="0"/>
      <path d="m80.7234917,36.4569741c-2.0241709-.2536726-4.5736339-1.3177947-4.9100366-3.5691632-.0287957-.2709586.0465242-.7680362.3067674-.9332509.5738726-.5128064,1.0692591.2430602,1.3545288.6972422-.2810817-.0906896-.577153-.5606944-.9254726-.4744926-.3380137.3958352.1065428.9892951.3970004,1.2727077,1.3230178,1.1908803,3.222262,1.2416047,4.9100845,1.216024.4985438.0288404.93889-.1811136,1.3913175-.3419774.8287655-.0792182,1.6132449.3955123,2.3854253.6516108.3195975.1558036.6718508.3315127.9399166.5448344-.8653471.5366576-1.9301209.9236747-2.9521804.7721941-.9126254.3989878-1.9324794.2843-2.8973509.1642708Z" fill="#423b30" stroke-width="0"/>
      <path d="m102.3644978,31.6566568c-.616083-.2623252-1.2300591-.5196671-1.7853227-.8993425-.2185189-.1472774-.4336039-.3864682-.2468736-.6533876.0589725-.0883735.1401975-.1074416.238946-.1351668.6452637-.0388815,1.3279702.1327167,1.9872623.1655712-.3887559.1048581-.9033.1404223-1.3371042.2183153,2.8856926.9455361,6.4452345.634908,7.9641271-2.3222831.2961228-.4568835.7940161-.7524605,1.3392607-.7754796,1.1984561.0220251,2.3998307.4119319,3.6086197.1586166,2.4711914-.4927955,5.0747746-1.9010323,6.1146866-4.3018642.2691369-.6846155.3585309-1.477915.4494385-2.1618247.4239969.9556212.71607,2.0410321.5616978,3.0930057-.7442578,4.6544332-6.0830991,7.1866856-10.3718245,5.7612779-2.0235236,2.5367793-5.6323657,3.2562463-8.5229138,1.8525618Z" fill="#423b30" stroke-width="0"/>
      <path d="m71.7801969,141.9137005c-5.9049865-.5542747-11.7607313-1.5197408-17.6272843-2.3819061-4.0347722-.6104321-8.0926361-1.1756638-12.0352818-2.2460374-5.2926701-1.3068567-10.3185784-3.4711715-15.3966805-5.4255299-3.4900083-1.3755406-7.009275-2.7272611-10.281742-4.5758504C3.6251702,120.5099076-3.3966508,103.8755568,1.6402221,90.1162163c3.1883802-8.6686189,10.4210369-14.8955256,17.6464086-20.2475075,4.0975769-3.0244106,8.5815652-5.4986175,13.3406518-7.3181255,2.2832982-.7330422,4.7085192-1.8887097,7.1439058-1.3509597-2.8736521-.3443935-5.7061338,1.2488041-8.3098656,2.3751227-5.2384927,2.4278633-9.8974226,5.7899812-14.220896,9.5651848-7.4964321,6.3086807-14.6145971,14.6058977-14.768839,24.8716178-.3307624,7.6575854,2.8783534,15.3400912,7.8775056,21.0145425,4.0487687,4.5929384,9.6983969,7.2274007,15.3024976,9.4128469,5.823087,2.2424775,11.5644665,4.8014902,17.6461875,6.2696,5.4319567,1.414004,11.0689027,1.9486182,16.5900795,2.8863193-.0293663-.0052434-.0587565-.010261-.0881613-.0149007-.0074815-.0011966-.0150053-.0024717-.0425243-.0063851.0606434.0100782.1213173.020272.1819583.0303879.0017117.0003364.0034353.0006357.0003395.0000974,6.7136138,1.0749625,13.3841571,2.6034467,20.1896905,2.9579687,4.7701628.2605147,9.5480254-.3028969,14.2794937-.8210402.0098128-.0017991.0138727.0105824.0038991.0146063-7.3731512,1.9856447-15.0089183,3.0201582-22.6323562,2.1581086Z" fill="#423b30" stroke-width="0"/>
      <path d="m95.4186244,142.6057713c-2.1564377-.2023042-4.4221407-.4086179-6.4907942-.869601.3211582.0204701.6403634.0335422.9524551.043509,7.6498244.2373683,15.3752087-.8688288,22.7492982-2.7758815,8.4053163-2.0771098,16.9626302-3.9415905,24.5983341-8.1893914,3.8920514-2.0964884,7.7340366-4.3771746,11.0173448-7.3646679,6.3216519-6.0806111,10.5934696-14.2195499,12.5673462-22.7177086,2.8081543-12.9179632.3277836-21.3721294-11.5182186-28.0442676-4.3532662-2.5498264-8.8349126-4.8828132-13.3594342-7.1122227-.944408-.349851-1.9393833-1.0674197-2.9508535-.8866704-.1749684.3186412.0910238.795404.0521861,1.1001246-.057958-.3278429-.1964982-.6357053-.2125107-.9639811.0561442-.4740166.6578926-.3410296.9784577-.2868858,3.8123078,1.0298131,7.3636396,2.8735605,10.9873336,4.4221304,5.2641263,2.4405714,10.7387092,4.9647169,14.6597099,9.3813806,10.3787782,11.8475332,2.8365061,33.2973112-6.2506247,43.9367119-3.5627069,4.3677314-8.3668374,7.5310878-13.2617981,10.2249818-6.7605479,3.8912787-14.2101644,6.3256267-21.8170039,7.9294764-7.4369081,1.6204012-15.0747499,2.9602737-22.7012279,2.1729636Z" fill="#423b30" stroke-width="0"/>
    </g>
  </g>
</svg>