<?xml version="1.0" encoding="UTF-8"?>
<svg id="Layer_2" data-name="Layer 2" xmlns="http://www.w3.org/2000/svg" viewBox="0 0 191.3070901 223.942011">
  <g id="Layer_1-2" data-name="Layer 1">
    <g>
      <path d="m79.8036632,95.0298481c1.9426011-8.5774923,1.6286994-9.0563261-3.4236666-16.0164228-6.418373-10.5253343.7703678-15.4110556,8.1660015-21.7633872,3.3383747-3.9199698,3.1032909-9.3974939,3.2115671-14.2509823.0106187-1.5436129.0326781-3.2389702.0833737-4.7001685.864874,4.1936919,1.9405801,8.4235215,2.0034359,12.7192897.2049404,4.910521-2.2679436,9.4110584-5.9934889,12.4871518-14.9047502,13.141913,11.1062786,15.8836894-4.0472227,31.5245194Z" fill="#423b30" stroke-width="0"/>
      <path d="m58.2390165,81.3740939c11.8199564-13.2131609-.336475-17.3517042,4.8278666-29.5816442,4.5783962-9.3383718,15.0807805-16.1890277,25.5966265-13.398885-3.3241251.1466747-7.2183361.2791342-10.3460157,2.0028878-5.6678724,3.140148-10.4183939,8.6175693-12.0719615,14.9325986-.8253451,4.0806544,1.4856213,7.8525451,1.9860007,11.8217033.9036493,6.5936154-4.2072564,12.076483-9.9925165,14.2233395Z" fill="#423b30" stroke-width="0"/>
      <path d="m114.715506,44.8338944c-3.5455416-1.5181281-6.1232081-4.7853919-9.9256189-5.8606527-4.4819718-1.3859427-12.4794104-2.1263727-16.3076143.7170347.0036994.0164076.0080496.0325754.011475.0487431-.0128109.0227103.1854158.0474415.1122839.0743992-.2023714.033466-.2717011-.1949726-.1404748-.3292132,4.3085106-4.1425852,12.9629712-4.6069639,18.4499493-2.8317953,4.9836529,1.3235323,7.664663,5.885658,11.2725808,9.145934-1.1269926-.1383511-2.3594698-.5698118-3.472581-.9644498Z" fill="#423b30" stroke-width="0"/>
      <path d="m123.163382,78.780705c-10.2903875-1.9204047-10.3868548-14.6178747-11.4698141-22.865092-.3682968-4.3713321-5.5770656-3.9986508-8.77774-5.0114669-4.2091061-1.2408094-14.3241142-5.6559863-12.4913992-11.1804381.008769.8418212.1052277,1.9335581.6708263,2.6789207,2.6306913,2.9551432,6.971332,3.9153456,10.6674533,4.9325462,4.8711634.8856661,11.6188866-.1490725,13.8944346,5.4236086,2.0300082,4.7703202,1.3328836,10.2246202,2.9989967,15.1220906,3.2839711,10.005396,11.5136504,6.2873522,16.783802.1973018-.2499242,1.0172006-.7322091,2.1352444-1.1180438,3.1568296-.6121838,1.7623577-1.6706945,3.3720462-3.0237878,4.65259-.2981793.2343302-.5981397.4666052-.9003267.6964824-.013162.008769-.0219224.0175379-.0350759.0263069-.8631613.507744-1.7246185,1.0220647-2.5815286,1.5438527-1.1172988.4437236-2.3106667.6901112-3.538845.6901797-.35719,0-.7169576-.0208263-1.0789517-.0637121Z" fill="#423b30" stroke-width="0"/>
      <path d="m124.6372542,68.8938957c-7.592182-5.1729051-.9309838-18.5602123-8.6929619-23.5260532-.0103789.0037679-.0225732.0093855-.0334403.013633.0013359.022128-.0256133.0287047-.0337742.0115778-.0306828-.2806071,1.0259782.2323777,1.091814.2673851,5.9466983,3.7487351,5.0855151,11.7503527,7.1233246,17.6675927,1.3546861,4.0409542,3.5960574,4.350677,7.4067919,4.6363537-1.9185892,1.1880928-4.7068822,2.2178303-6.8617541.9295109Z" fill="#423b30" stroke-width="0"/>
      <path d="m72.6870267,73.2485119c.036035-5.7012013-2.4255796-11.1057648-1.3592933-16.8450221.7198777-6.1333472,4.7306886-11.9974253,10.9917682-13.3596301-.8482609.4996601-1.9688395,1.002677-2.8148397,1.600303-4.9346699,3.337073-6.3955257,9.7430462-6.0508298,15.3456308.3604869,4.4228498,2.2475284,9.389273-.7668054,13.2587185Z" fill="#423b30" stroke-width="0"/>
      <path d="m74.2352296,94.3647422c-2.6563474-1.0829337-5.4531354-1.9807941-8.0450514-3.2460265-1.1968275-1.0196669-2.415646-2.0028535-3.6308336-2.9974809.0264439.0234981.0549088.0489144.083956.0737142-.0688844-.0569983-.137803-.1121469-.2067216-.1701728.0140098.0097966.0274373.020107.0406935.0305201.0276086.0230185.0557652.045489.0820721.0659386-.026855-.0208948-.0538127-.0437763-.0820721-.0659386-.0138043-.0115435-.02754-.0231898-.0406935-.0349046v.0043845c0-.0043845-.0043845-.0043845-.0043845-.0043845h.0043845c-1.1531197-.9514334-2.2974704-1.9204047-3.4900505-2.8192242-.1113248-.0843671-.2228894-.1682546-.3345911-.2519366-1.2756455-1.515148-2.5203941-3.0639333-4.0235876-4.3649266-2.9946036-2.7052276-6.8880268-4.0863405-9.8168631-6.8748733-1.5959527-1.5038785-3.1173692-3.0822933-4.4414838-4.8360875-.5349072-.7102867-1.3284991-1.6397976-1.3109612-2.4991567.2192243.6620573.8067453,1.210118,1.3153457,1.679258,2.5254637,2.1571669,5.2219223,4.099494,8.2033724,5.590219,4.3625631,1.6661045,8.6768968,3.5952781,11.97403,7.0151768,1.5871838,1.517032,2.9989881,3.2182124,4.8229341,4.4590218,2.8279932,1.8677908,6.2303539,2.6920741,8.8084314,4.9632376,1.9905564,1.7625632,3.7531196,3.7487351,5.5770656,5.6691398-1.8283305-.1666104-3.7092747-.7409781-5.4849914-1.3854974Z" fill="#423b30" stroke-width="0"/>
      <path d="m48.1660036,82.6839932c.0613828.0526138.1227656.1008432.1841484.153457-.0613828-.0482293-.1227656-.1008432-.1841484-.153457Z" fill="#423b30" stroke-width="0"/>
      <path d="m43.4027396,82.415786c-5.0465428-4.0030353-10.7902189-6.953794-15.2492406-11.6715005-1.2978077-1.363575-2.9288363-2.871838-3.4988194-4.6431702.1271501.2192243.298145.442833.460371.6357504,4.1301854,4.1170319,9.400337,6.5372679,14.530185,9.1767282.59629.6445194,1.218887,1.2715008,1.8765598,1.8590219,2.1352444,1.9028667,4.5774029,3.3716694,6.8529509,5.0860032.1271501.1052277.2586846.2104553.3858347.315683,1.4424957,1.2978077,2.7534569,2.7227655,4.2836424,3.9197301,1.4951096,1.1706576,3.0472174,2.25801,4.5247891,3.4505901,1.3679595,1.1268128,2.7446879,2.2448566,4.1126474,3.3716694,1.2232715,1.0172006,2.3939291,2.0738617,3.5865092,3.1217537.6269814.5524452,1.2583473,1.0961214,1.9116357,1.6091062.5656329.4479711,1.1642179.9516731,1.8041473,1.3065082.0799484.0938896.1603763.1870942.2413522.279922-10.3108028-2.8151822-18.2690893-10.6256294-25.8225645-17.8177956Z" fill="#423b30" stroke-width="0"/>
      <path d="m20.1487643,69.0352953c-3.143796.1206761-7.4791445-1.8595699-6.6688196-5.6163204.0920742-.3332209.3770658-.5699831.6664589-.3288022.0304174.0524768-.1667646-.0395289-.2306822.0180517-.3803541.6956603.3225337,1.6180807.7392482,2.1259959,2.0261632,2.1526796,5.1725454,1.0413838,7.7605565,1.2714323,1.66172.1052277,2.9989881,1.0084317,4.0819731,2.2099177-2.041783.2125105-4.246751.4071406-6.348735.3197249Z" fill="#423b30" stroke-width="0"/>
      <path d="m24.5036888,64.7019165c-7.5713214-.8125342-15.5130805-2.3274767-21.7030149-7.0416208-2.232097-1.4335555-4.7734031-5.6618095-.4428673-6.0416155-1.73069.530968-2.5245388,1.648087-1.1095317,3.2358531,3.5250236,3.2360243,8.452877,4.3337557,13.0156707,5.2567584,11.454948,1.6089349,23.1025393.9927092,34.6349865.8810076-7.3912835,4.0233135-16.1195439,4.4308994-24.3952432,3.7096173Z" fill="#423b30" stroke-width="0"/>
      <path d="m44.7333282,62.5281708c-1.4976786-.0747418-3.1031196-.3017074-4.4634063-.8155486,1.0435076-.4033727,2.0957841-.758516,3.1614196-1.1133853,2.5384116-1.176652,8.8108292-1.1766178,8.698785-4.853831-.4530749-2.1114038-2.5923613-3.5059785-4.5386618-3.9515518-.0035966.0047613-.0079811.009454-.0126054.0141811v.0000343c.0131535.008769,0,.0263069-.0175379.0219224-.0201755-.2613564.6301328-.1341721.7717037-.1315346,2.5290603.1693165,5.5071878,1.8481634,5.6824645,4.6214533.0724125,4.4463479-5.6280352,6.1350599-9.2821614,6.2082602Z" fill="#423b30" stroke-width="0"/>
      <path d="m9.4093096,54.7330693c-2.4344513-2.5251554-2.801515-6.0514464-2.7709606-9.3958497-.2848545-4.4414153.9622747-8.7571535,1.4073-13.1227652.0017298.0018155.0026889.0036652.0033055.0055149-.0122457-.0913891-.0207235-.1827782-.0290301-.2741331-.0119374-.0179147-.0238578-.0357952-.0357781-.0536757-.0027746.0007536-.0054121.0013016-.0079811.0016099-.0150032.0039734-.0521514.0885461-.0578033.0312052.1745059-.3179437.3224652.4248155.3508787.5525137.4189753,2.6287046.2607399,5.5481554.4254664,8.1419896.1259341,4.7048612,1.6822038,9.4479497.7256324,14.1197561-.0046414,0-.0092657-.002158-.0110297-.0061657Z" fill="#423b30" stroke-width="0"/>
      <path d="m44.7853597,53.3456194c-2.3936893-6.5366856.8227419-13.6254738.3184575-20.3296947-.0023635-.0009249-.0047613-.0017812-.0071933-.0027746-.0311024.027403-.0394261.0765572-.0610745.119991-.0604579.0364118-.0036994-.2275479.0528879-.2105581.8989565,1.1606213.8166789,3.0375921,1.135616,4.4898159.3941241,5.2662467,1.4806545,11.204176-1.4252318,15.943702-.0056519,0-.0107557-.0032541-.0134617-.0104817Z" fill="#423b30" stroke-width="0"/>
      <path d="m20.1479936,57.5991184c-4.5483385-.74961-8.9519377-2.6025689-12.6053445-5.4194639,5.8651047,3.228283,12.8291416,4.2713452,19.476467,3.5482477,6.3992594-.5497734,12.7925243-2.611749,19.2033958-2.0574198-4.6308388,3.1253503-10.3097238,3.6601891-15.7227308,4.1697485-3.4311339.3242464-6.948262.2983848-10.3517874-.2411124Z" fill="#423b30" stroke-width="0"/>
      <path d="m28.6804422,36.4438045c-3.8061787-.1695905-19.7345351-1.4463322-21.2909247-4.6609479.1223203-.2006587.4108571-.1325964.6270328-.1358505-.0632154.1034807-.3944324.011064-.4977247.1593486.0097452.0548061.0200385.1096464.0322499.1646237,2.9923086,1.6909385,6.9406063,1.2896553,10.2619397,1.7140941,4.524241.1691452,9.2225255.2583764,13.7196718-.0255191,4.2354301-.4496838,8.5195007-.8843302,12.747943-.517335-4.2505532,3.483782-10.3420765,3.303196-15.6001879,3.3015861Z" fill="#423b30" stroke-width="0"/>
      <path d="m17.3648387,31.5169445c-1.2807151-1.3758721-1.3868676-3.3204942-1.2497668-5.0991567.1313462-2.5093644.4235139-5.3673296,1.0172349-7.5895102.0000685,0-.004316-.0043845-.004316-.0043845.5901072,2.7244097.9642271,5.4813262,1.2012977,8.2559862.2312302,1.5269313.0657844,3.2497601-.9644498,4.4370651Z" fill="#423b30" stroke-width="0"/>
      <path d="m20.00012,32.3909643c-2.2072288-3.745207-3.6794739-8.3263435-2.7518299-12.627147-.3960766-.3234586-.2786375-.9581814.051021-1.2760908.6532883-.6357504,1.5871838-.315683,2.2158265-.0997128,3.9227101,1.6779906,1.1891204,10.7397288.496269,14.0089793-.0046585.0000343-.0092828-.0021237-.0112866-.0060287Z" fill="#423b30" stroke-width="0"/>
      <path d="m27.1916011,31.742814c-2.0478459-2.4939502-1.6560681-5.8886723-1.7402982-8.9136591-.1222175-4.0942189.6941189-8.4526373-.2564753-12.4256662-.0008221.0000685-.0015414.0000685-.0025348.0000685.0007365,0,.001216-.0002398.0017298-.0004453-.0004967-.0003083-.0010105-.0006508-.0015072-.0009934-.0123314.007159-.0256218-.0047613-.0177263-.0205523.2956616.0344936.4566887.6670926.5919398.9163917,1.0573118,3.0280353,1.5024741,6.2541603,1.8725007,9.4310626.0078099,3.5548586,1.8758747,7.9395154-.4348176,11.0204044-.0040248,0-.0084093-.0021922-.0128109-.006611Z" fill="#423b30" stroke-width="0"/>
      <path d="m29.1296293,31.0577039c-3.9466878-6.1956548.0676855-13.9444794-2.0713269-20.4687651-.002432.0345278.0890085.1883274.0235495.1686999-.3865712-.5527192.2508063-.2733795.4167659.06128,2.0481028,3.3367305,2.0902007,7.5177827,2.4243465,11.3251946.2579996,3.1214454.2416091,6.0059916-.78025,8.9197562-.0045044,0-.0093342-.002158-.0130849-.0061657Z" fill="#423b30" stroke-width="0"/>
      <path d="m26.1339125,11.8994204c-.6194456-.3483268-.3973097-1.5102497.3288364-1.5389202.457271-.0869704.9174365.363467.6620744.8110956-.1130033.1886014-.214463.3178067-.3902535.4427988-.1892351.2355976-.2444351.4960634-.6006574.2850258Z" fill="#423b30" stroke-width="0"/>
      <path d="m35.5519929,30.7884348c-3.0828414-3.8995888-1.4718341-9.5190949-1.6832485-14.0918392,0-.2315214.327158-.2521079.3756442-.0587795,1.2447657,4.5134853,2.6821748,9.5643441,1.3076043,14.1506187Z" fill="#423b30" stroke-width="0"/>
      <path d="m37.4603916,30.2250969c-2.5423165-3.6518996.0930504-8.1343853-1.0479948-12.0397972-.3036256-.6591115-.8398174-1.2808863-1.589787-1.2955812-.0245257.0151059-.0490514.0301776-.07356.0452835-.1182955.1927108.1142193.5054822.0629413.6496906-.4453849-.4324531-.6087927-1.0431297.1270644-1.2366636,5.6781999-.2308363,4.4822287,10.6903691,2.5213361,13.8770679Z" fill="#423b30" stroke-width="0"/>
      <path d="m28.6332747,9.3478211c-.5050037-1.6556913-1.4526177-3.1270973-1.7531605-4.8392046.0000343-.0000343-.0008906-.0052751-.0008392-.0052751-1.0014439,1.0574146-.5631152,2.5706787-.8020183,3.7614433-.3402258-.6200622-.8924141-1.1676776-1.179341-1.8457999-2.0741871-3.6981423,3.8104262-9.8599886,5.5636381-3.998685.9528206,2.3717669.9901573,5.9018258-1.8282791,6.9275214Z" fill="#423b30" stroke-width="0"/>
      <path d="m19.4268656,18.623714c-1.8021092-1.3961846-2.1820523-3.9662467-2.2009261-6.1119728-.2034162-3.706877,3.351785-3.6724177,4.2354473-.4165946.5042843,1.3870731.2343816,2.9830601-.8330522,4.0030353-.6790301-.5114776-1.1631732-1.2472834-1.4587149-2.0279273-.2391086,1.5175458-.3744625,3.1905696.257246,4.5534595Z" fill="#423b30" stroke-width="0"/>
      <path d="m37.7947771,14.2670425c-.2849916-.2762226-.5086003-.5919055-.7015177-.9338954-.1593144-.2825253-.277353-.575361-.371157-.8747734-2.2147304.0748445-2.9568902-3.4900162-.8565846-4.3034068,3.4289417-.9788706,4.472141,4.4735796,1.9292593,6.1120756Z" fill="#423b30" stroke-width="0"/>
      <path d="m29.8320719,50.7431532c-1.0541776-.4685234-1.9922691-1.2891758-2.5980646-2.2705469-1.297037,1.0799878-2.8069956,1.8342564-4.5618003,1.810176-1.5252872-.0192164-3.0909081-.8800827-4.0065634-2.1283252-5.274262,3.5522554-6.8974808-2.354914-6.7967061-6.5968695.6375145.9669161,1.0952308,2.1798086,1.7872591,3.1476838.4915248.5777245,1.0293961,1.771846,1.9094616,1.5448118.1671071-.1123524.3248458-.238886.3018102-.2334053,1.7048969-1.5352208.5198356-5.3223201,3.4942979-5.4498127,1.9186063-.0670347,2.2790761,1.8579942,2.6265295,3.3236455.9801894,3.3681412,3.3154589-1.0959159,4.546643-2.0610165.8155143-.6445194,1.8590219-.6576728,2.770875-.2234717,2.2708895.9756165.8605752,4.253225,3.1701886,4.6695798,2.4149609-.1570194,4.357014-2.4586688,6.6467944-3.0168686.8242833-.2206287,1.7226233-.7027851,2.5737273-.4470805-.0422349.106084-.103789.2341589-.1101259.3754558-.3546295,5.4477233-6.6363813,9.691597-11.7543261,7.5560442Z" fill="#423b30" stroke-width="0"/>
      <path d="m8.2315785,32.4984869c-1.0596068-2.0391626,2.0072551-3.3909885,3.6699514-3.1262752.8637436.0613828,1.7231028.6225969,2.240455,1.2889702-.9793673,1.1152007-2.5209764,1.0028826-3.869651,1.0895789-.4046401.7321406-1.3086833,1.539982-2.0407554.747726Z" fill="#423b30" stroke-width="0"/>
      <path d="m44.2242826,31.9000389c-.8263385-.162363-1.5813606-.6187948-2.2726707-1.0937236-2.7435576-1.4420847.4558837-1.4522923,1.718273-1.0988274.7760539.1885329,1.6485666.7409781,1.4994598,1.666036-.0371996.5194245-.5363801.6946327-.977706.5217538,0,.0000685.0326439.0047613.0326439.0047613Z" fill="#423b30" stroke-width="0"/>
      <path d="m98.7750581,86.8428148c-8.0959183-1.4083447-13.0694663-9.8621466-16.1436757-16.5470483,4.7078071,6.237513,12.9344378,17.8230364,21.6630921,11.7255529,2.6802223-1.8972491,5.2790576-4.0864433,7.9761327-5.8725045-1.2759195,6.0760748-7.1919264,11.1170343-13.4955492,10.694Z" fill="#423b30" stroke-width="0"/>
      <path d="m117.337257,103.2420237c-.0055491.0082552-.011064.0165103-.0166131.0247997.005198-.0082552.0106872-.0165446.0166131-.0247997Z" fill="#423b30" stroke-width="0"/>
      <path d="m117.320644,103.2668235c-.0018497.0029458-.0037337.0058574-.0055491.008769-.002021.0029116-.0040762.0058917-.0061314.008632.0039049-.0058231.0077756-.0115778.0116805-.0174009Z" fill="#423b30" stroke-width="0"/>
      <path d="m117.3089634,103.2842244c0,.0007878-.0002655.0015757-.0004796.0023293-.0013016.002158-.0026033.0042817-.0039049.0064397-.0031171.0046585-.0061999.0090773-.0092828.0135302-.0013016.0014044-.0025776.002706-.0038792.0040077.004393-.008769.013162-.0175379.0175465-.0263069Z" fill="#423b30" stroke-width="0"/>
      <path d="m113.4562252,106.9018703c.6001008-.1024188,1.1718308-.3423324,1.6517265-.7238854.6797922-.5378188,1.1358643-1.2614302,1.6084297-1.9843565-.0012417.002295-.0024748.0045215-.003708.0069535.1929088-.298145.3858347-.5919055.5787435-.8900506-.0032712.0055149-.006611.0107214-.0098223.0157225-.0062342.009043-.0120916.0181203-.0175379.0274715-.0028088.0046585-.0054121.0092143-.0077157.0138043.0024063-.0047613.0050781-.0092828.0077157-.0138043.0052408-.0087347.0112352-.017675.0175379-.0274715.004453-.0064397.009043-.0130507.0137015-.0197302.0030828-.0033569.0061999-.0073303.0092828-.0135302,0,0,.0028174-.0029458.0039049-.0064397.0022008-.0036309.0043845-.0072961.006611-.0109612.0111325-.0157567.0222307-.0335687.0333375-.0483664-.0039477.0049325-.0076129.0098651-.0111753.0147976.19624-.2924931.3885065-.5817322.5767654-.8829258-.0263155.0438449-.0569983.0876897-.0833052.1359191.0924852-.1390019.1848078-.2783463.2766336-.4178278.0736799-.054121.1466062-.1091326.2188132-.1653088,1.2671249-.9908937,2.2273101-2.3281618,3.2576727-3.5514333.1797639-.2060708.3595364-.4165261.5436762-.6182125,1.7274873-1.8897133,3.5777402-3.6566609,5.4192241-5.436762.9426644-.9075885,1.8765598-1.823946,2.7534569-2.7929173.8681367-.9602023,1.679258-1.968634,2.4947637-2.9726812,1.6398061-2.0168633,3.2752192-4.0381112,4.8448651-6.1119728.3639123-.4866779.7234401-.9689713,1.0829594-1.4556492,1.1399748-.9470489,2.2624031-1.9160202,3.336602-2.9376053,5.3841482-4.8843169,8.5146709-11.513659,12.8377736-17.2354126.1841484-.2192243.4866779-.6357504.7365936-.6006745-.0526138.0219224-.1315346.0964587-.1841484.1315346-3.2225969,5.3534568-4.85801,11.5881952-8.6067451,16.6741984-2.9156829,4.4239459-6.9844854,7.8306911-10.6279929,11.6145021-3.7399661,4.3011803-7.7868463,8.2910621-11.7241143,12.399325-3.2401348,3.7224282-7.2870149,6.7784146-11.6408091,8.9750419.2012068-.3636383.4032357-.7275163.6062836-1.0912916Z" fill="#423b30" stroke-width="0"/>
      <path d="m74.4360254,105.4434465c-.3551433.2411467-.7059022.6357504-.6006745,1.0961214-.2543002-.2543002-.0701518-.7848229.1271501-1.1048904.2009328-.2068244.4085792-.3987827.622871-.5773819.1688369.0342195.3407567.0512437.5127108.0512437.6839797,0,1.3679595-.2674536,1.8590219-.7892074.2091194-.2237115.3734006-.4907541.4881508-.7795136,4.201125-1.234815,9.380093.7615646,12.4680039,3.7083499,2.411467,1.8634063,4.6256322,7.1116441.315683,7.9797636-.0833052-6.9976389-9.5976388-12.7720063-15.7929168-9.5844853Z" fill="#423b30" stroke-width="0"/>
      <path d="m70.120664,120.6984846c-1.9869255-1.5650301-3.9318559-3.7999874-4.1431333-6.4146479.1549642.0437421.3122576.3001232.4513965.3904932,2.5290603,1.7546506,5.3352338,3.2302012,8.154595,4.4784094,2.9058863.9012516,6.0376421.9082993,9.0150503.3656164,4.2849097-.6674951,5.8543843-3.5491554,7.712447-6.9356566-.5349072,1.6090976-.8067453,3.2620572-1.5695088,4.7882007-3.5570851,6.1176161-14.06495,7.118983-19.6208467,3.3275847Z" fill="#423b30" stroke-width="0"/>
      <path d="m67.284861,114.041277c-1.7340298-2.5526869.6094777-5.4716238,2.5342669-7.1466343,1.7073803-1.5020288,4.2703861-1.7867464,6.3706575-1.3942664-1.8916657.5058943-3.8239907,1.1951833-5.0985058,2.765343-1.3776191,1.8814581-2.5677328,3.8559495-3.8064185,5.7755577Z" fill="#423b30" stroke-width="0"/>
      <path d="m110.6775318,119.4746223c.1314318-2.1274003,2.6370197-5.1762619.2539919-6.5376447-4.6194323-2.4327729-12.7690262-5.9387171-17.1705016-1.8103815.0047955.0168186.0101734.0330892.0158253.049668.0202782.0078441.0420637.0141811.0420294.020381.0669662.0174009.2960898-.038741.2981793.0263412-.6502055.2653984-.6028325-.2748524-.2938975-.6578784,4.0893891-4.6970856,11.4088766-3.1869044,16.6083284-1.3721042,6.617319,2.1002371,5.8091008,7.4491638.246045,10.2816185Z" fill="#423b30" stroke-width="0"/>
      <path d="m97.0564767,123.4176449c-4.7346963-2.5643845-5.3788046-9.0470091-2.2363274-13.1139277.2125105-.2988986.7305649-.7981476.9733558-.2586504-.0207235.060869-.1185524-.108105-.1981924-.1403378-.0366516,0-.0713507,0-.1057415-.0000343-1.1633958,1.4127634-1.2695141,3.6582709-1.2085766,5.4016177.1136883,3.9619735,3.8806807,6.3937788,7.5354577,6.5991303,4.2610006.350853,7.7244016-2.6963901,11.5807279-3.9596357.2818745-.0923825.5134301-.3567533.7190899-.4866094.0657673.9908937-.4822934,1.9204047-1.0347728,2.7182783-3.3377581,5.1992719-10.904558,6.4872574-16.0250205,3.2401691Z" fill="#423b30" stroke-width="0"/>
      <path d="m78.6502695,115.467271c-2.3512831-1.7585897-4.4528218-3.9656301-6.1732186-6.3532565-.0569983-.0745363.0350759-.1753794.1140651-.1272186,2.5338216,1.5228894,5.3940133,2.7354394,7.4535911,4.9063164.584541.743059,1.0554279,1.6116324,1.2144682,2.5254637-.9338954-.1622431-1.7932546-.464764-2.6089059-.9513049Z" fill="#423b30" stroke-width="0"/>
      <path d="m83.0615415,114.4425688c-1.6640493-1.7678982-3.3529325-3.8756797-3.9721384-6.2479946.0329864-.1349942.3008511.0259986.0984111-.0062684-.0048983.0049325-.0097623.0100021-.0146949.01538,1.3749815,1.9841852,3.4466509,3.4233926,4.9716298,5.296116.4346464.5850205.779171,1.3290044.8987853,2.0256323-.7234401-.2411467-1.4118043-.5699831-1.981993-1.0828652Z" fill="#423b30" stroke-width="0"/>
      <path d="m97.6262543,115.0093321c-.9537284-.3932335.2675906-1.1780907.794551-1.3117833,1.5859164-1.1162369,3.3904062-2.9507588,5.4708446-2.1257904-.7597834,1.5975284-2.4544898,2.223919-3.9372337,2.8718637-.7246047.2973657-1.5247733.6698843-2.3281618.56571Z" fill="#423b30" stroke-width="0"/>
      <path d="m101.5295426,117.7582332c1.239405-1.1787415,2.7790102-2.1069851,4.3582471-2.7578071.51963-.1620889,1.083379-.1719198,1.5608768.0351101-.2586846.4779089-.5875211.8593592-1.0785492,1.1137278-1.4992543.6783621-3.115725,1.0834132-4.6519391,1.6178066.0659728.0489487-.264131.119383-.1886356-.0088375Z" fill="#423b30" stroke-width="0"/>
      <path d="m79.2128196,147.337925c3.8830442-11.9421739,6.2824539-11.6397472.3161968-24.1452932-.277764-.5428199-.535421-1.1281144-.8637094-1.6266784.4724283.3219171.9053963,1.0465561,1.2930122,1.5434845,6.5833393,8.4065231,7.9598964,16.766127-.7454996,24.2284871Z" fill="#423b30" stroke-width="0"/>
      <path d="m96.738259,148.68773c-2.3016151-7.9989458,2.4675747-11.8584919,7.5410753-16.9592927.8597702-1.1363011,2.153947-2.3907349,2.0151164-3.8592978-.0123314-.0010362-.02456-.0024406-.0368228-.0030914-.0309312-.0084949-.1075912.1248123-.1062895.052237.0745363-.144688.1841484-.1666104.289376-.0263069.2762226.3551433.0789207,1.1925801.013222,1.5521421-.8501106,3.5726449-3.5986693,6.2711502-5.6198143,9.2133797-2.0727313,3.0042974-2.7992542,6.7355289-4.0958631,10.03023Z" fill="#423b30" stroke-width="0"/>
      <path d="m101.6897476,183.9887643c-8.1074275-12.9526951,6.8042077-20.7716372-6.8045503-37.1848217-.1448935-.2423798-.4702361-.4358453-.4473203-.5173693,14.6376392,11.5243119,7.1938446,22.6536433,7.2518705,37.702191Z" fill="#423b30" stroke-width="0"/>
      <path d="m113.027068,196.2511084c-6.9723596-.5876238-13.5480945-10.7372625-11.8641095-17.3142991-.0135988.7243992-.0624104,1.6557941.1269103,2.4112958,3.8285122,11.950018,14.712655,16.2926112,22.9262693,5.2270603,3.0727023-5.1763647,3.1084975-11.5076646,5.2882376-17.056094,1.4119756-4.7603524,4.2072307-8.8831732,7.6902163-12.3775054-.8466168,2.0883853-1.9728472,4.2715508-2.7159404,6.466294-2.43124,7.603794-1.6579949,16.0823271-5.2419008,23.339507-3.0877397,5.6747917-9.5925007,10.0748969-16.2096827,9.3037413Z" fill="#423b30" stroke-width="0"/>
      <path d="m67.7850006,196.3023863c-5.6248839-7.8817978-8.3712502-16.9936836-5.3360901-26.4907532,1.9783963-8.3781353,7.3480894-15.1366142,12.863738-21.506107,1.8932414-2.2925379,3.761546-4.8921267,6.0900846-6.6512303-.8901876.8958737-1.6244861,1.8934469-2.3578256,2.914347-4.9565581,7.8555594-11.1426904,15.1581598-13.2856762,24.3922288-2.8466272,9.1255873-.1732899,18.5141067,2.0257693,27.3415147Z" fill="#423b30" stroke-width="0"/>
      <path d="m95.5172825,222.6919881c-14.6911093-5.0803513-22.8941049-16.9668628-28.1443893-30.9629285-.090704-.1725021-.1821617-.3516837-.306914-.4954469-.008769-.008769.0043845-.0306914.017675-.0220252,1.7246442,2.135313,2.9489776,4.8538652,4.4763199,7.0943031,2.8551907,4.2146552,6.0373681,8.289966,9.784459,11.7464478,6.3899081,5.2080837,14.1116037,9.3627605,22.3830041,10.3457759,3.0243016.1502029,6.1015597-.5767654,9.051111-.7972913-5.0681484,3.815393-11.1909797,5.7945087-17.2612656,3.0911651Z" fill="#423b30" stroke-width="0"/>
      <path d="m110.3413994,220.6041852c-.1507852-.0391863-.6222887-.2681729-.4340641-.4954469.0419609-.0149004.0185656.0339455.0037679.051552,2.244103,1.600577,7.5011011-2.6925537,9.3469353-4.2132508,5.2754952-4.6725942,9.9636063-10.1017176,12.9662938-16.5256397,2.1610119-4.5767178,3.9479894-9.2626367,4.6081628-14.2833179.752179-5.4531696.889434-11.0278032,2.6222563-16.2968586,1.0591701-4.6367647,4.0218064-8.3269601,7.8391261-11.0096829-.8617912,1.8391547-2.0913311,3.6927987-2.8269998,5.6583841-2.7001237,11.5674374-1.4511619,24.2340106-7.5556674,34.8803978-3.5948671,7.4334499-9.3189842,13.5432305-16.0513703,18.2530585-3.0584441,2.0138833-6.6916754,4.5993253-10.5184407,3.9808046Z" fill="#423b30" stroke-width="0"/>
      <path d="m139.8758761,156.779298c-2.0313613-3.4547691-4.2587741-6.7832444-6.1385281-10.3166944-6.8013989-16.1599719,11.5012334-14.5918076.5309081-37.0315017-.3281513-.6848703-.7804127-1.9059153.1183897-2.3675879.0131363-.008769.0262983.0131535.0131363.0219224-.0087604.0043845-.0131363.008769-.0174951.0131877-.3064687.2338849-.3555544.6028325-.2539576.9642785,4.1573486,6.3964163,9.1077411,14.2703357,5.6556095,22.0630137-1.3184628,3.3877173-3.5585238,6.6512303-3.2718538,10.4373534.6084929,5.488117,3.2404345,10.6841777,3.363791,16.2160283Z" fill="#423b30" stroke-width="0"/>
      <path d="m151.6486308,137.8967233c-.8292158-4.1802302.636504-8.4392868-.0656645-12.5881748-1.6930622-5.9848827-8.6291128-15.8920388-15.1892965-16.4198555-.013222.022813-.0268807.044804-.0426802.0647054-.0271633.047784.0870046.2389545.0175379.2117912-.1578415-.2411467-.0569983-.3332209.166679-.4650295,5.9608451-.0302461,10.811833,4.8415424,14.2885588,9.238385,5.4799903,6.6067003,4.668518,12.8108844.8376423,19.9680432-.0052751,0-.0107557-.0032884-.0127767-.0098651Z" fill="#423b30" stroke-width="0"/>
      <path d="m152.8766978,135.4232569c-1.5190187-4.8170082,1.9576728-11.4746353,5.0600731-15.135518,7.0014753-7.4379029,14.782704,2.377316,26.2131605-2.7451332,2.537247-.8116436,4.8867146-2.2935997,7.1571588-3.5375947-1.7871574,2.9836766-4.1481001,5.6918843-7.3132191,7.2429303-11.0561653,6.2232291-19.3518174-5.9458334-25.7393963,2.2790847-2.2555095,2.7124123-6.3316081,8.4980835-5.0576068,12.0193049.0613828.016065.1199568.0350759.1814766.0543608.069775.0080154.3004743-.1123524.270468-.0502503-.2828678.2004875-.5426828.1593829-.7721148-.1271843Z" fill="#423b30" stroke-width="0"/>
      <path d="m148.8774989,164.3992255c8.9868252-27.9218424,39.7583777-4.7101021,40.4733228-47.1330823.1300617-1.4509222-.1674668-3.3865698,1.0261409-4.4369623-.3131139.3623794-.4777034.9910564-.4740382,1.5300142,1.9343802,15.2594825,1.2129953,29.6592976-15.0993803,36.1812883-10.060065,3.5661281-19.0385665,4.8040945-25.9260452,13.8587422Z" fill="#423b30" stroke-width="0"/>
      <path d="m144.1354381,152.4516395c-3.6183309-6.4628344-5.8977582-14.7073456-2.3675794-21.6768964,1.0957703-2.4217689,2.7639643-4.4964269,4.0632449-6.7993779.1286572-.3270895.3182177-.6357504.221622-.9841457-.0114408-.0038364-.0228815-.0076472-.0343223-.0114408-.0261014.0167501-.0531619.0344936-.0782014.0501732-.0244915.0267265-.0465852.055808-.0685076.0850607v-.008769c-.0666236.052374-.117559.2886225-.1885329.2630691.0526138-.1709949.1096121-.5129848.3245547-.5525479,1.1154405.3024867-.6932625,3.6975856-.9555096,4.4811155-5.310297,10.9250075.2812236,14.9170131-.9167685,25.1537592Z" fill="#423b30" stroke-width="0"/>
      <path d="m148.8494108,148.6569358c-1.5605343-4.0026927-1.1665472-8.3969063-1.1794609-12.6097718.0714534-1.6594678-.0260671-3.3453025.166679-4.9939718.0482636-.0625474.1085503.0429628.1359191.1008774-.0183943.0548403-.0560735-.0417554-.08125-.059122-.0006851-.0002141-.0013359-.000411-.001884-.0006508.3672349,5.8149924,1.84717,11.8291707.9599968,17.5626391Z" fill="#423b30" stroke-width="0"/>
      <path d="m156.775396,146.2134415c-3.2953519-6.9824388,5.2346989-21.3069897,13.2324801-20.1244802-.3121891-.0009249-.8672718-.0868077-1.2409122.069912-4.5890492,1.7148733-7.5790285,6.4611217-9.1812497,10.8385081-.8773767,3.1112378-1.5540603,6.2438927-2.797199,9.2260965-.0053436.0000343-.0108242-.0032541-.0131192-.0100364Z" fill="#423b30" stroke-width="0"/>
      <path d="m158.9011864,145.7129935c6.4941081-7.734301,14.6760034-4.6880769,17.8715055-17.620939.0140783-.0099336-.00918-.1334185.0350416-.0920399.0964587.3551433.0043845.8768971-.0353842,1.2318092-.47832,10.1744984-9.2797979,14.2043458-17.871163,16.4811697Z" fill="#423b30" stroke-width="0"/>
      <path d="m83.2505539,97.7586423c-1.2625263-.3401059-4.3258088-1.1149952-4.1696457-2.7489697.8189397,2.2084105,6.1412256,1.7441689,8.077524,1.1385961,5.436762-1.6632957,4.5418474-8.5224122,7.3556938-12.3676403,1.9160202,7.5668684-2.5385829,16.1077777-11.263572,13.9780139Z" fill="#423b30" stroke-width="0"/>
      <path d="m100.1082842,86.6924406c.1183811-.0920742.144688.0569983.1359191.2104553-.0043845.1490725-.0482293.298145-.0657673.2148398,0,1.7576991.3157515,3.8701991,1.3033911,5.4392283-.3302066.1995283-.6530143.4098124-.9570167.6420531-.24834.1907594-.4503346.4226233-.605059.6793212-.9559549-2.2461925-.8095884-5.2079125.1885329-7.1858977Z" fill="#423b30" stroke-width="0"/>
      <path d="m102.1551881,95.4970356c-1.9949409-.8725126-2.5999999-3.5514333-2.5167289-5.5201015.0444272-.4679068.0801196-1.0465904.3902535-1.4117358.0619651-.0413443.1239645.0797086.0503188.0410703-.0006166-.0002055-.0011989-.0003083-.0018155-.0004453-.0037337.0028773-.0074673.0061999-.0113038.0098651.0464824,1.5066188,1.9317427,4.9966008,3.7510644,4.3912335,2.9923771-1.0147686,5.6075515-2.8352207,8.825858-2.5607451-2.1271862,3.3664285-6.3588998,6.5787493-10.4876465,5.0508588Z" fill="#423b30" stroke-width="0"/>
      <path d="m107.0606738,92.7785518c-.0526138-.0569983-.0438449-.1403035.0130507-.1886699,2.1583315-1.2703704,4.4614538-2.3410755,6.5279851-3.790833,4.2643232-2.6780986,7.8571779-6.4842773,12.4876313-8.5382375,1.4888411-.5810471,3.1405333-.8306202,4.6913995-.7365593-2.1536045,2.4459264-4.4283646,4.8601679-7.282699,6.4932518-4.8977101,3.2606528-10.2907301,5.831811-16.1439155,6.7283698.121601.0617253.385732.0626159.4212189.1510592-.257383.0064397-.5075727.0871074-.7146711-.1183811Z" fill="#423b30" stroke-width="0"/>
      <path d="m131.5086678,75.9818618c2.3641625-3.4173297,5.3564797-6.3087951,7.8044955-9.6676878,2.4103367-3.2840139,4.5072425-6.8675087,7.558776-9.6240485,1.8983452-1.6415445,4.3041946-2.8299799,6.7259721-3.3495757-2.0211451,5.4638568-6.9947273,8.9223595-10.5187233,13.3679538-3.3485481,3.8028904-7.8994728,6.2945798-11.6062812,9.6127105.0024748.0092143.0047955.0178805.0071334.0256218.0111496.0119888.0972465.0192849.0462255.047236-.192121.004727-.127681-.205694-.0175979-.4122101Z" fill="#423b30" stroke-width="0"/>
      <path d="m156.5607617,55.4369163c1.2277587-2.2158436,3.1973518-3.8014517,5.007562-5.5109215.3169161-.3776138.4258089-.5035993.5813554-.9088559.2792712-1.2964376-4.0297875.0789207-4.2268153.8330865.0023293.0307599.0046928.0614856.0070563.0921427.0456946.1242385.3080101.1076597.3144156.2067901-1.0291552.1822302-.5558363-1.0406645-.1403378-1.4732556,1.3786809-1.655246,4.2957339-3.2984005,6.0989564-1.3680622,2.7684601,4.2633299-3.9317189,8.2595144-7.6421925,8.1290759Z" fill="#423b30" stroke-width="0"/>
      <path d="m151.0821073,53.262554c-.9505428-4.528968,3.2325305-8.9641492,7.3178776-10.202458.9853104-.2674194,1.8512805.3228077.7365936,1.1048218-.0365145-.1471885.2013095-.4016257.1726734-.5938923-.0169214-.006748-.0338085-.013496-.0507984-.0203468-1.7680095.7636541-2.7696932,2.6424061-3.9014728,4.1111402-1.1689107,2.0518365-2.6733373,3.9128793-4.2617199,5.6113194-.0054464.0000685-.0105502-.0031856-.0131535-.0105844Z" fill="#423b30" stroke-width="0"/>
      <path d="m163.4250849,21.3796714c-.3916921-.1505797-.5277824-.5012015-.7420399-.8122602-.3314397-.178291-.8254822-.2715641-1.1477761-.1304042-.0828257-1.0717669,1.6326385-1.6364407,2.3632377-.9119045.7318665.4994888.6940846,2.2073487-.4734217,1.8545689Z" fill="#423b30" stroke-width="0"/>
      <path d="m163.724737,22.2124839c.1666104-.6971332.1709949-2.1527824.5787521-2.6219223.9383142,3.4193506,2.0240566,7.3627501,1.7253293,11.1016201-.1425985.0689871-.2822855.1497576-.4187526.2410439-.5085661.3403114-.9337584.8240435-1.3744677,1.2679384-1.2499209-3.0948645-.8211319-6.7021314-.5108611-9.9886801Z" fill="#423b30" stroke-width="0"/>
      <path d="m160.1864915,32.2015065c-1.4093381-2.499465-1.8732029-5.4209368-1.3901217-8.2429698.3353104-1.643634.715459-4.4365855,2.7930543-4.5904193.7409781.0789207,1.0128162.8242833,1.1969645,1.438214-.6674352-.4628715-1.2345067-1.0030196-1.3856002.2454627-.0401112,3.7932308,1.1602102,7.8362745-1.214297,11.1497124Z" fill="#423b30" stroke-width="0"/>
      <path d="m157.023325,42.7439334c-3.0773608-2.9302407-1.5022001-10.0440342,2.7448935-10.9610425.3009881-.0152772,1.2411862.1535598,1.0303541.6311946-.7745125-.5749499-1.4140651.8520631-1.6367147,1.4565055-1.0367938,2.8974599.4581102,6.5840243-2.1385328,8.8733423Z" fill="#423b30" stroke-width="0"/>
      <path d="m169.7985511,46.3764112c.4779089-5.1517705.4735244-10.7332206-3.4900505-14.5959523-.289376-.3507588-.6971332-.6927487-.8418212-1.1268128.0394604-.1052277.1139966.0219224.144688.0701518,6.0374366,3.5777402,7.5018547,8.939966,7.721079,15.578077.0668977,1.5867385.1534227,3.1933784.2111746,4.8056702-.122012.9523925-.2182309,1.9106766-.2900954,2.8584105-.1008432,1.4205733-.2016863,2.8411466-.2586846,4.2617199-.0350759.2060708-.0657673.4121416-.0964587.6182125-.0394604.1841484-.0789207.3639123-.1227656.5436762-.1973018.8549747-.3595278,1.7143338-.5261383,2.573693-.0131535.0833052-.0306914.162226-.0438449.2455312-.0306914.0701518-.0657673.1403035-.0964587.2060708-.1753794.1753794-.3419899.3595278-.5086003.5480607-.3149636.3149294-.60088.6668871-.8780275,1.0000737-1.8870415-5.6161492-1.3563474-11.8155377-.9239961-17.5865825Z" fill="#423b30" stroke-width="0"/>
      <path d="m160.2828132,64.4379567c-.9733558-.4647555-2.4246205-.7629005-2.8762225-1.8107925.0920742-.4340641.7059022-.1096121.9733558-.0043845-.0569983.0438449-.1753794.0350759-.2937605.0306914-.0876897-.008769-.1797639-.0131535-.2499157.0043845,4.9128845,1.6023239,9.6697773-.7950648,14.4970273-1.1105765-.0269235.1392417-.053847.2785861-.080839.4178278-.0175379.0789207-.0350759.162226-.0482293.2411467l-.0920742.2104553c-.1797639.1753794-.3463744.3595278-.5086003.5480607-.3018787.3018787-.5770737.6377371-.8434997.9584896-1.4779484,1.002129-3.3792052,1.4005691-5.3049192,1.4006376-1.813019.0001028-3.6474124-.35254-5.1723228-.8859401Z" fill="#423b30" stroke-width="0"/>
      <path d="m158.8225397,64.3808899c-2.8615276-.8663127-2.047589-4.3333104-1.401768-6.501918.0033569-.2658094.3400374-.4097439.5292554-.1844567.4023793.697784.4605765,1.5950279.6619546,2.3764254.2647476,1.4137225.7463216,2.9204441.2147713,4.311662-.0016442,0-.0031513-.0005481-.0042132-.0017127Z" fill="#423b30" stroke-width="0"/>
      <path d="m164.0476818,20.2412466c-.7917764-.9215983-1.1096516-2.0139175-1.4549641-3.1590903-.1185866-.359288-.3658305-.7141916-.7660518-.7685524-1.1304779-.0324383-.9465008,1.6050985-.6770947,2.2352998-2.1327439-1.2797902-1.4437289-4.2653508,1.1134881-4.3362904,3.1113063.0879295,3.8601285,4.1691662,1.7846226,6.0286333Z" fill="#423b30" stroke-width="0"/>
      <path d="m79.9601003,37.7566154c-4.1082287-.5953994-9.357828-7.7789337-4.5728471-10.6192582,3.9324725-1.2809891,7.3867962,2.6336714,8.8347726,5.8929198.641505,1.3959448,1.0955391,3.0737984,1.2714665,4.5467115-2.4489407-1.799112-4.6174798-3.9052407-6.811538-5.992016-.6182125-.5034965-1.2839692-1.1682941-2.097668-1.277872-.3594251,2.7798323,1.458184,5.7034278,3.851154,7.0446008-.053984-.0844356-.254951-.1660624-.2384064-.2394683.2586846.0833052.6225969.162226.7498155.4209449.0008563.4335503-.6969277.2601918-.986749.2234375Z" fill="#423b30" stroke-width="0"/>
      <path d="m88.9941957,36.2970613c-1.2499209-1.9270841-1.650245-4.1794423-1.9672981-6.4098095-.5333658,2.0301538-1.4302329,4.1120651-1.43335,6.2170635.0192506.016065.0379532.0320616.0547718.0480923h.0398714c.1433521-.0387753-.1120099.1530802-.1797639.008769-.46914-.7015177-.4822934-1.7055649-.5393602-2.5298481-.0786125-1.9168765-.2519709-3.9323012.3157857-5.7874866.3289049-1.058682,1.5084-1.8336055,2.5955812-1.3636093,1.5608768.6532883,1.9817875,2.7139965,2.2404721,4.1915682.3301723,1.9159174-.228096,3.9458314-1.1145499,5.6335843-.0047955,0-.0098651-.0034939-.0121601-.0083237Z" fill="#423b30" stroke-width="0"/>
      <path d="m93.2421114,38.8975065c.1201966-2.6113037,1.5682072-5.0025952,2.0473492-7.4098148.0483664-.614513.0368228-.9963743-.1381798-1.4559575-1.5555333,1.4590403-3.1258641,3.0536229-4.115559,4.9527559.0064055.0419266.0127424.0851892.0190794.1270816.0156197.0123999.0318903.0247997.0499763.0371996.0254163.0166131.1614039-.034288.1289313.0263412-1.0442269.2590272.4372839-2.8372417.6097175-3.3146711,1.2184074-2.9516836,3.9883404-6.6905194,5.8662361-1.8372022.9532831,3.5755822-1.5392284,7.1039284-4.467551,8.8742672Z" fill="#423b30" stroke-width="0"/>
      <path d="m70.1922544,103.8296133c-2.9479842-1.3727893-4.5589401-4.3618438-7.1000235-6.2817004-1.6238696-1.307159-3.3659147-2.4733294-4.9002449-3.8903746-.3507588-.3288364-.8023608-.7935919-.8200016-1.3064054,1.2148108,1.3966299,3.4976206,1.7238906,5.1520445,2.6304173,3.3908857,1.7310497,8.2705441,4.4166841,7.6682254,8.848063Z" fill="#423b30" stroke-width="0"/>
      <path d="m114.0300105,108.2111873c-1.6841134-4.7434653,6.8072991-9.4382216,10.312524-11.0225966-1.5899926,2.4540788-3.5370467,4.6541999-5.1859558,7.064057-1.2179964,1.5382008-1.5091279,3.9794002-3.5259827,4.6995519-.6374288.2271369-1.2948705-.1404748-1.6005856-.7410123Z" fill="#423b30" stroke-width="0"/>
      <path d="m98.9332078,78.1003219c-1.7365303-.7818771-3.2575015-2.0416288-4.4458683-3.5207761-.041036-.0586425-.3137305-.3546638-.1884986-.460371.0321301-.0014729.0737827.0410703.0215114.0394604h.000411c-.000137.0000685-.000274.0001028-.000411.0001713.0000685.0009934.000137.0019525.000137.0029801,1.9817189,1.1320536,4.4008588,1.9133826,6.673461,2.0488564.6096833-.0230185,1.0735139-.1732214,1.5126475-.3902877,1.1182836-.5895078,2.2884959-1.1686024,3.5250236-1.3374736.0390493,3.6083288-4.2092774,5.1934231-7.0984135,3.6174403Z" fill="#423b30" stroke-width="0"/>
      <path d="m100.9182494,72.0021191c-1.349942-.1146817-2.1859058-2.4527429-.8418555-3.0339612-.239297.6721964.5691953,1.5475179,1.2539971,1.1136593,0,.0000343-.0163391-.0065425-.0163048-.0065082,4.285355-3.1686814,3.0161492,2.6061313-.3958368,1.9268101Z" fill="#423b30" stroke-width="0"/>
      <path d="m89.6638574,64.8423228c-.7251871-.1559233-3.1234664-2.4175642-1.5739618-2.6919713.0256561.0592933-.1890124.0930333-.1790446.2036731,2.2206049,2.4018417,5.4198749-.3653852,8.0316581-.3221569.0729948,3.0921927-3.957238,3.9456602-6.2786518,2.8104552Z" fill="#423b30" stroke-width="0"/>
      <path d="m104.5803909,64.345266c-.7997576-.6288654-1.2985613-1.5710845-1.8063738-2.4116041.9950384.1839086,2.2007377,1.2372813,3.5163916,1.3505243,1.5358716.1484559,2.6908067-1.0455285,4.173996-1.2276559.6323593,1.5966036-1.0479263,3.2201648-2.5912652,3.3717036-1.2113854.1909992-2.3448434-.3195194-3.2927486-1.0829679Z" fill="#423b30" stroke-width="0"/>
    </g>
  </g>
</svg>