<?xml version="1.0" encoding="UTF-8"?>
<svg id="Layer_2" data-name="Layer 2" xmlns="http://www.w3.org/2000/svg" viewBox="0 0 165.9380526 183.1429779">
  <g id="Layer_1-2" data-name="Layer 1">
    <g>
      <g>
        <path d="m2.0975543,108.0615859c-.7114158-.0671147-1.3467683-.4205854-1.6420729-1.0872581-.599558-1.3378196.8769654-2.2461052,1.789568-2.8862117,2.9967936-1.904065,6.5716825-4.8758828,9.4040276-6.081081-2.021673,1.9298622-3.6962546,4.2209552-5.7350383,6.1480559,2.8512386-.9177935,5.9800419-1.4380722,8.930834-1.1941522-3.5386399,2.9782147-8.0780754,5.0466757-12.7473183,5.1006471Z" fill="#423b30" stroke-width="0"/>
        <path d="m2.0851871,108.3726773l-.0170118-.0012151c-.8846112-.0826285-1.5748023-.5468064-1.8980256-1.271021-.6658886-1.4909587.7728196-2.4873613,1.7254778-3.1471743l.1725478-.1202974c1.0425774-.6634584,2.1216086-1.4314175,3.2662566-2.2455514,2.1191784-1.5067553,4.3112643-3.0669761,6.1922782-3.8677436l1.572372-.669534-1.2369975,1.1811017c-.9842514.9417221-1.9077466,1.9928054-2.7996485,3.0086501-.6610281.7533776-1.339068,1.5249822-2.0511314,2.2625632,2.7510435-.7558079,5.43404-1.0486531,7.85943-.8518028l.7509474.0619714-.5783996.4860501c-3.9029822,3.2856986-8.4985858,5.122968-12.9435139,5.1740032h-.0145815Zm8.0125357-9.2264458c-1.4046848.815349-2.921161,1.8943802-4.4036138,2.9478938-1.0984732.7825406-2.2358304,1.591814-3.2808381,2.2564875l-.1628268.1142218c-1.076601.7448718-1.9344794,1.4387083-1.5116158,2.3828606.3086418.6926214.9842514.863954,1.3706613.902838,4.0633788-.0510353,8.267712-1.6525703,11.9179482-4.5263415-2.473995-.0984251-5.2323292.3305141-8.0198265,1.2272765l-1.3050445.4192182.9964027-.9417221c1.0255657-.9684548,1.9757936-2.0511314,2.8968585-3.0997845.4884803-.5577425.9866817-1.1264211,1.5018948-1.6829484Z" fill="#423b30" stroke-width="0"/>
      </g>
      <g>
        <path d="m10.5122693,100.8491328c-1.5926283-1.9690474.3276561-7.171555,1.3962654-9.2481257,3.4670334-6.5487516,11.0046607-7.1893474,17.0918415-3.991367-.916238.2419625-2.0034611.3742344-2.984297.5683426-4.2985391.5599883-9.1658054,1.0330071-11.9882756,4.7700024-1.4306092,1.8785823-2.6253557,3.9644512-3.3657322,6.2170232-.0898708.49172-.3719098,1.1805196.0170059,1.5771604.1058629.0190508.1858763-.057467.2719194-.1033986.0134229-.0089486.0313202.0089486.0178973.0178973-.1209812.1591527-.2665188.2848879-.4566246.1924654Z" fill="#423b30" stroke-width="0"/>
        <path d="m10.6420989,101.1912872c-.106931,0-.1992805-.0303781-.2648973-.0631865l-.1045008-.0838436c-1.7862341-2.203022.4398753-7.7986737,1.35851-9.5849078,3.6210732-6.8423702,11.5485502-7.257943,17.514815-4.1253501l.7072029.3730434-.7728196.204141c-.5954114.1567512-1.2613.2685427-1.9077466.3766888-.3693981.0631865-.7412264.1251579-1.096043.1956352l-.5759694.0753378c-4.0317855.5176433-8.6006564,1.1045488-11.2253268,4.5761616-1.5213368,1.9964507-2.6368217,4.0573031-3.3172919,6.1266614-.009721.0595411-.0340235.1676873-.0607563.2806939-.0704773.2843393-.145815.5990567-.0850588.8177793.0923495-.0473899.2114318-.0473899.3086418.0085059l.155536.0887041.009721.3693981-.106931.0656168c-.1919898.2308738-.3815493.2989208-.5370854.2989208Zm11.1937336-15.2000015c-4.4959633,0-7.9444887,2.5286756-9.6529548,5.7560482-.9064834,1.7619316-2.2917262,5.482645-1.9101769,7.7306267.0048605-.0267328.0121513-.0546806.019442-.0801983.0243025-.1008554.0461748-.1992805.0631865-.2891998.7144936-2.1762893,1.8615718-4.2991131,3.4242229-6.3490293,2.7826368-3.6793992,7.4876016-4.2845315,11.6408997-4.8179715l.5540971-.0716924c.3426653-.068047.7193541-.1312335,1.096043-.19442.3329443-.0571109.6756096-.1142218,1.0061237-.1786234-2.2334002-1.0498682-4.3331366-1.5055402-6.2408832-1.5055402Z" fill="#423b30" stroke-width="0"/>
      </g>
      <g>
        <path d="m45.1158386,97.4155868c-7.387965-2.0812548-12.6827204-10.8436029-20.8995869-9.5389561-.0939606.0357945-.1879212.0760633-.2774074.1163321-.0178973.0044743-.0268459-.0178973-.0134404-.0270207,2.9714683-1.6877599,6.6890109-.5306605,9.6779569.5818355,3.3124249,1.3986074,6.1802849,3.6425454,9.4763507,5.0798136,5.1077431,2.1832202,10.6695591,2.7682366,16.0317439,4.0477853-4.5044799,1.0529667-9.5386065,1.4731676-13.9956167-.2597898Z" fill="#423b30" stroke-width="0"/>
        <path d="m51.8761584,98.9080669c-2.5274605,0-4.7997446-.3985611-6.860597-1.1968983-3.0183711-.854233-5.7062281-2.8130149-8.3065961-4.7073951-3.939436-2.8701258-7.6528587-5.5883609-12.4453126-4.8191866-.0243025.0170118-.1142218.0546806-.1992805.0923495l-.2794788.1251579-.2600368-.5285795.2284435-.1664722c2.9527543-1.6780879,6.530083-.7266449,9.9591664.5492366,1.7230476.72786,3.3367339,1.6841636,4.8945244,2.610089,1.4775923.8761053,3.0013593,1.7813736,4.5956036,2.4752101,3.5287237,1.5091855,7.3563681,2.2637783,11.0576396,2.9928534,1.6185468.3195779,3.2929894.650092,4.9236874,1.0389321l1.280742.3062116-1.2831722.2989208c-2.6514032.6197139-5.0767932.9295708-7.3053329.9295708Zm-25.3329307-11.4391889c3.97832.2588217,7.3004724,2.678136,10.5302752,5.0318336,2.561484,1.8652172,5.2080267,3.793621,8.1267575,4.6162607l.0267328.0085059c3.4436649,1.339068,7.5240554,1.5176914,12.4501731.5419459-1.1811017-.2576065-2.3743547-.4921257-3.5360144-.7217844-3.7328647-.7363659-7.5945327-1.4982494-11.1840126-3.0329526-1.6331283-.7108483-3.1739071-1.6258376-4.6660809-2.5116638-1.543209-.9137742-3.1350231-1.8603567-4.8094656-2.5663445-2.3427614-.873675-4.7875934-1.5857384-6.938365-1.3658008Z" fill="#423b30" stroke-width="0"/>
      </g>
      <g>
        <path d="m82.8057752,55.2977231c3.5265977-3.5144856,7.1353411-6.9436971,10.1434079-10.9167824,4.6346195-6.7766619,8.2015909-14.2403057,11.6195817-21.6830461,2.4367879-5.1450932,3.8246639-10.7515824,6.4431858-15.7986426.1165419-.2185073.5260114-.8056385.7874791-.3848608.0134229.0134229-.0044743.0313202-.0178973.022389-.0642483-.0468055-.1041676-.0984698-.1821884-.11212-1.3646655,1.6702646-1.4966228,4.212094-2.1802489,6.2553345-1.0809311,4.240006-2.1812277,8.5195642-3.7539488,12.6008195-3.0960849,7.8256437-6.203845,15.8839342-11.4050244,22.5807402-2.9126031,3.5756928-7.2485272,5.9143429-11.4543467,7.4361687Z" fill="#423b30" stroke-width="0"/>
        <path d="m81.5932609,56.0663968l2.3476219-2.3342556c3.0232316-2.9952837,6.1509639-6.0914228,8.7610529-9.5399482,4.6514994-6.7998408,8.2725725-14.4113852,11.5850039-21.6243685,1.115485-2.3536976,2.0243986-4.8483497,2.9065795-7.2603732,1.0401472-2.8543292,2.1167481-5.8058683,3.5408749-8.5520513.0899193-.1640419.4009913-.6865458.8311457-.6999121.106931.0024303.3135023.0267328.4714686.2563914l.1871293.1701175-.3621073.4726837-.1871293-.1178671c-.7655289,1.0656648-1.0936127,2.4861462-1.4119755,3.8628831-.1603965.6962668-.3280838,1.416836-.5492366,2.0790793-1.0061237,3.9467267-2.1532019,8.4451203-3.7595975,12.614215l-.2746183.6962668c-2.9989291,7.5860268-6.0999286,15.4296601-11.1742916,21.9633885-2.5639142,3.1471743-6.462036,5.6819256-11.5922947,7.5374218l-1.319626.4763291Zm28.0499507-45.4444684c-.6707491,1.6246224-1.2758815,3.2771927-1.8664323,4.8981698-.8846112,2.4266051-1.8008156,4.9346235-2.9260215,7.3114085-3.3221524,7.2324253-6.957807,14.8719177-11.6433299,21.7252239-2.6465427,3.4947002-5.7888566,6.6066359-8.8266696,9.616501l-.3110721.3074267c4.3501483-1.7570711,7.6941729-4.046367,9.9494454-6.8156374,5.0136067-6.4571755,8.1000248-14.2594945,11.0819421-21.8042071l.2746183-.6938365c1.591814-4.1326409,2.7340318-8.6115925,3.7425857-12.5631797.2114318-.6367256.3645376-1.290463.5249341-1.9818692Z" fill="#423b30" stroke-width="0"/>
      </g>
      <g>
        <path d="m54.0300687,95.044061c24.9965197-16.8052757,14.3245487-32.5037531,33.6247783-44.8458665.9421226-.5298216,2.3974279-1.3532176,3.3914945-.7561589-1.1185433-.331204-2.1791653.6608001-3.0376392,1.2531048-9.3879131,7.4900527-9.8951184,18.0927069-13.853033,28.3980639-3.3199054,8.3882886-11.1326505,14.9119421-20.1256006,15.9508567Z" fill="#423b30" stroke-width="0"/>
        <path d="m52.794793,95.4996407l1.0620194-.7132785c13.1719575-8.8558327,16.3094108-17.2244001,19.3447936-25.315919,2.639252-7.0355751,5.132689-13.6810949,14.2850122-19.5343531,1.0450077-.5869055,2.5639142-1.4496444,3.7207134-.7618835l2.0900154,1.2552244-2.3379009-.688976c-.8044129-.2418099-1.6258376.3718283-2.3549127.9076985-.1433848.106931-.2843393.2102167-.4180031.3037813-6.8047013,5.4279644-8.8801352,12.5206503-11.0795118,20.027694-.7898314,2.6939326-1.6063955,5.4789996-2.658694,8.2251827-3.4776884,8.78171-11.4780729,15.1198032-20.3825106,16.1477991l-1.271021.1470302Zm34.9372805-44.9815056c-8.9044377,5.7268852-11.3541301,12.2581833-13.9472074,19.1698156-2.843393,7.5823814-6.0561841,16.1477991-18.4747639,24.8541714,8.1461995-1.4447839,15.3373106-7.4304908,18.5573925-15.5633239,1.0450077-2.7194503,1.8567113-5.492366,2.6416822-8.1741474,2.2188187-7.5738755,4.3161248-14.7309631,11.2228966-20.2865157Z" fill="#423b30" stroke-width="0"/>
      </g>
      <g>
        <path d="m103.6760693,44.5720079c3.846616-10.5849666,9.0894624-20.6306737,12.6084486-31.3293508.5463905-1.55589,3.8611488-12.7153864-.3660198-9.1032174-2.5596654,2.3253495-5.291758,5.1130913-5.8980274,8.5977424-.0616616.3620174.1627881.762014.1160175.8232736-.8413806-1.8698959.4444601-4.0180556,1.2618961-5.7049765,1.4126945-2.1862613,4.7952054-8.4329968,7.8037353-5.4316589,1.9259734,3.4102481.45735,7.7776497-.242146,11.3871446-2.7247781,11.2141669-7.9576709,21.9169863-15.2839043,30.7610431Z" fill="#423b30" stroke-width="0"/>
        <path d="m102.7728936,46.1534052l.6124231-1.6865938c1.7279081-4.7572153,3.7693185-9.4779768,5.7426818-14.0444174,2.4205295-5.599297,4.9261177-11.3905839,6.860597-17.2766505.8773204-2.4982975,2.4205295-8.6893605,1.4314175-9.3686155-.2065713-.1433848-.6950516.0838436-1.300184.5990567-2.6659847,2.4229597-5.220178,5.1253982-5.7937171,8.4147422-.0243025.1506755.0315933.3426653.0753378.4836198.048605.1664722.09721.3244384-.0170118.4738988l-.3159326.416788-.2162923-.4775442c-.8092734-1.8032458.1871293-3.8045571.9915422-5.4109526l.2746183-.5565274c.1506755-.2393797.3013511-.4811896.4666081-.747302,1.2540092-2.0134625,3.3537456-5.3830048,5.6163088-5.6442567.7971221-.0911344,1.543209.2017108,2.2188187.8748902l.0510353.0668319c1.6793031,2.9697661.8773204,6.6127115.1701175,9.8267177-.1336638.6051324-.2648973,1.1981135-.3742586,1.7728677-2.785067,11.4562006-8.092734,22.1371514-15.3494619,30.9006345l-1.144648,1.3828125ZM117.2669073,3.1124545c.174978,0,.3450956.0437445.5030618.1518907,1.7838038,1.2212009-1.1616597,9.994405-1.1908227,10.081894-1.9442004,5.9067237-4.4522188,11.7101618-6.880039,17.3240404-1.7230476,3.9819654-3.4947002,8.0842281-5.0646419,12.2180842,6.5859787-8.4013758,11.4197469-18.4383102,14.0249754-29.1508542.106931-.5650332.2405948-1.16409.3742586-1.7740828.6804701-3.0912786,1.4508595-6.5932695-.0826285-9.3491735-.5297946-.5200736-1.096043-.7424415-1.6768728-.6683189-1.9660726.2272284-3.9661687,3.4375893-5.1594217,5.356272-.1676873.2697578-.3207931.513998-.4568871.7217844l-.2576065.5297946c-.0704773.1409545-.1433848.2843393-.213862.4289392,1.1616597-1.8640021,2.8190905-3.5250783,4.5226961-5.0731478.262467-.2247982.9332162-.7971221,1.5577905-.7971221Z" fill="#423b30" stroke-width="0"/>
      </g>
      <g>
        <path d="m114.9724168,48.206828c5.3567579-8.0099819,9.4935488-16.7052154,13.1908346-25.584018,1.5327407-4.1372017,6.6925326-15.6390005,4.7538879-19.3843677-2.5417857.7447984-4.3809469,2.9816229-6.2555093,4.7486795-3.2962056,3.4927782-6.1374644,7.4046563-9.0001859,11.2512723-2.2405123,3.2908224-5.0926773,6.4025849-6.5789532,10.0993638.1869424-.0513497.3289669-.1937413.4896926-.3032396-.0148561.1314504-.3581897.3247198-.5190902.4160762-.0268459.0178973-.0671147,0-.071589-.0357945-.0268459-.3489964-.0536918-.371368.1074185-.7561589.5593591-1.438282,1.3103446-2.7882312,2.0177055-4.156969,2.9240685-4.730188,15.7250087-29.3056154,22.260416-23.230337,3.337794,4.8825069-.6955198,13.9505765-2.2959956,19.1410595-3.6260114,10.560253-9.7190472,20.4479434-18.0986319,27.7944336Z" fill="#423b30" stroke-width="0"/>
        <path d="m113.4003789,49.9992765l1.3147655-1.9648575c4.6344876-6.9322894,8.6930059-14.8063009,13.1622365-25.5309961.2260133-.6124231.5395156-1.4046848.8991927-2.3111682,1.8542811-4.6879531,5.2712132-13.3153422,3.9734595-16.5743081-1.8737231.6379407-3.3683271,2.125254-4.8191866,3.5651774-.3548166.3511712-.7047726.698697-1.0547287,1.0304262-2.9989291,3.1763373-5.6697743,6.7718929-8.2507003,10.2495813l-.7144936.9611641c-.6513071.9563036-1.3755218,1.9235432-2.0730036,2.8591897-1.4800225,1.9806541-3.0037896,4.0196343-4.056088,6.2311622l.174978-.1178671-.0753378.6719643c-.029163.2648973-.3183628.4495963-.6634584.6464466l-.136094.0765529-.1968503-.0534655c-.0121513-.0048605-.0218723-.0109361-.0315933-.0157966l-.2940603.0801983.1215125-.3049964-.0072908-.0400991-.009721-.1227276c-.0267328-.2989208-.0267328-.4022065.1385243-.795907.4593173-1.1823168,1.0571589-2.3221043,1.6331283-3.425438l.3937006-.7545928c.3669678-.5941962.8675994-1.4605805,1.4824528-2.5274605C118.224426,15.0559204,126.3681953.9556073,132.4170887.0479087c1.2102647-.1822688,2.2577027.1567512,3.1617558.9964027,2.9478938,4.2966828.4811896,11.5072359-1.319626,16.7723735-.3305141.9696699-.6415861,1.8761534-.8919019,2.6866419-3.851947,11.2241117-10.1414351,20.881927-18.1904246,27.9369441l-1.7765131,1.5590057ZM133.0756865,2.8682144l.1190823.2272284c1.7108963,3.3075709-1.7643618,12.0832053-3.8397957,17.3264706-.3572468.9016229-.6683189,1.6878089-.8991927,2.3087379-4.0512275,9.7234321-7.7670804,17.1113934-11.876634,23.5807202,7.1011918-6.8071315,12.6761864-15.7455927,16.1976193-26.0000345.2478855-.8068432.5613879-1.7194022.8943322-2.6963629,1.7570711-5.1399797,4.1654493-12.1792001,1.4387083-16.1684563-.7242146-.6622432-1.5942443-.9356464-2.600368-.7837558-5.7524028.863954-14.0954526,15.3105779-17.6581998,21.4797686-.4982013.8627389-.9210649,1.5942443-1.2540092,2.1483414.5686786-.8080583,1.1592295-1.5978897,1.7424896-2.3804303.6950516-.9295708,1.4119755-1.8907349,2.0632826-2.8470384l.7217844-.9721002c2.5930772-3.4910548,5.2760737-7.102407,8.3114566-10.3176283.3596771-.3402351.7072029-.6841155,1.0571589-1.0316413,1.5699418-1.5602208,3.1933491-3.1739071,5.33683-3.8021268l.2454553-.0716924Z" fill="#423b30" stroke-width="0"/>
      </g>
      <g>
        <path d="m120.292515,59.6407781c7.0079018-9.4609702,13.724746-19.1571565,19.2171315-29.5752977,2.213081-4.4893441,4.3904635-9.1447272,4.6306782-14.170482.3150109-7.5320169-16.1574441,10.7610379-17.88376,12.2823218-.2134737.1738515-.4160063.5212225-.6040585.5994881,3.5717866-4.565722,7.3012664-9.0408217,11.5035117-13.046905,2.374366-2.3968511,7.7666125-6.4228591,9.0294524-.9173576.7158552,6.539507-2.391031,12.877459-5.1189639,18.6488686-4.9697735,10.0332104-12.0266393,19.2578635-20.7739915,26.1793639Z" fill="#423b30" stroke-width="0"/>
        <path d="m118.6472896,61.3412554l1.3949638-1.8846592c6.2068597-8.3795036,13.342075-18.4407404,19.1916878-29.5360489,2.3767849-4.8179715,4.3647298-9.2057887,4.5956036-14.0395569.0340235-.7934768-.126373-1.2734512-.4763291-1.4241268-2.3087379-.9939724-11.5874342,8.5423303-15.0797041,12.1305951-.8870414.9137742-1.5310578,1.5748023-1.8105366,1.8226878-.087489.0716924-.1628268.1628268-.2357343.2515309-.1433848.1689024-.2770486.3280838-.4520266.4022065l-1.105764.465393.7387961-.9441523c3.1666163-4.0487973,7.0112726-8.7683436,11.5339687-13.0796079.7363659-.7448718,4.5956036-4.4424978,7.3320656-3.6575269,1.1009035.3135023,1.8445601,1.2880327,2.2139582,2.8956434.7120634,6.4851233-2.2795749,12.8062048-4.9188269,18.3824144l-.2211528.4678232c-5.2128872,10.5254147-12.4283008,19.6145514-20.8637001,26.2916645l-1.8372693,1.45572Zm24.3729818-47.5648619c.213862,0,.4082821.0352386.5808299.1093613.6099929.262467.8967624.9429372.8505877,2.0231835-.2381645,4.9552807-2.2528422,9.4050693-4.6636506,14.293518-5.4097375,10.2605174-11.9033667,19.6279178-17.7578401,27.6052149,7.5362067-6.442594,13.9909519-14.8597664,18.756673-24.4847733l.2211528-.4629627c2.6027982-5.502087,5.5555525-11.7381097,4.8677917-18.0130164-.3086418-1.3342075-.9064834-2.154417-1.7716526-2.4010874-1.8688626-.5310097-4.7948841,1.5541452-6.7269333,3.503206-2.823951,2.6927175-5.3830048,5.5446164-7.6747309,8.2932297,5.6114483-5.6794953,10.8364868-10.4658736,13.3177725-10.4658736Z" fill="#423b30" stroke-width="0"/>
      </g>
      <g>
        <path d="m120.8403387,70.5064031c8.8543512-7.5096104,17.8587318-15.0291132,24.7549418-24.458501,2.2862692-3.2768577,7.441482-10.9499902,3.2047268-14.2179517-1.1243809-.6202517-2.4722328-.7089689-3.6999075-.433484.8900388-.3759472,2.1223975-.3743043,3.145547-.1523539,8.9791077,3.8098253-4.9263237,21.0802198-8.8637892,25.2173865-5.1563314,5.8571906-11.5344386,10.7479645-18.541519,14.0449041Z" fill="#423b30" stroke-width="0"/>
        <path d="m118.8490004,71.787687l2.6052285-2.2103128c8.4694228-7.1789598,17.2280455-14.603375,23.8917922-23.7131688,1.8251181-2.6185949,7.3903916-10.6043979,3.2638264-13.7880259-.9405069-.5164282-2.1799347-.6634584-3.4412346-.3754737l-.1895595-.5905509c.8748902-.3693981,2.1143179-.4325846,3.3318734-.1701175,1.7206173.7242146,2.7388923,1.9198979,3.0815576,3.571253,1.35851,6.5543855-8.296875,18.4978513-11.7842844,22.1638841-5.2542015,5.9662649-11.6992257,10.8498532-18.6375907,14.1136795l-2.1216086.9988329Zm31.5713836-38.221764c1.4241268,4.0609485-2.9576148,10.3480064-4.5688709,12.6591746-6.4061402,8.7586226-14.7030152,15.9436581-22.8346333,22.8431391,5.9784161-3.1775525,11.5169569-7.5702302,16.1320025-12.8122804,2.8020788-2.9454635,12.9605257-15.2170132,11.6336089-21.619508-.0801983-.3876249-.1992805-.7436566-.3621073-1.0705253Z" fill="#423b30" stroke-width="0"/>
      </g>
      <g>
        <path d="m113.7066755,89.9146804c7.4426005-4.7538529,40.8167474-22.3974681,30.6398172-33.0741582-2.1570734-1.6230921-5.1647557-1.6039714-7.5839609-.9261828,2.4067173-1.0500654,5.2362748-1.1697533,7.620035.0042646,9.0185725,6.4270713-2.8375885,18.162216-8.5597195,22.6624663-6.4692539,5.2451185-14.0706314,9.3599137-22.1161719,11.3336101Z" fill="#423b30" stroke-width="0"/>
        <path d="m111.9543798,90.6646574l1.5845233-1.0121993c.8943322-.5711089,2.1847952-1.3414983,3.6769689-2.232185,8.9165889-5.3222485,27.4691209-16.3981149,28.6720949-25.2102031.262467-1.9162525-.3329443-3.6514513-1.7667921-5.1545612-1.7351988-1.3013991-4.4692306-1.6258376-7.2737396-.8408667l-.2090015-.5856904c2.6441125-1.1531538,5.5166685-1.1531538,7.8837325.009721,2.2455514,1.5966745,3.3901994,3.5919102,3.4460951,5.9565439.1725478,7.316269-9.9275731,15.6374465-11.954402,17.2304757-6.870318,5.5689189-14.5596305,9.50957-22.2343614,11.391799l-1.8251181.4471661Zm30.8739018-35.0016822c.5856904.2187225,1.1616597.5200736,1.7060358.9283557,1.6088258,1.6829484,2.2577027,3.5894799,1.9709331,5.7025827-1.2442882,9.1097938-19.969368,20.2877308-28.9710157,25.6610145-.6585979.3937006-1.2783117.7630986-1.8421298,1.1033337,6.8970508-2.0243986,13.7479268-5.7025827,19.9329142-10.7186196,5.4899358-4.3161248,11.8499012-11.284868,11.7210979-16.7298441-.0510353-2.1580624-1.1081942-3.988041-3.1423138-5.4389005-.4350148-.2126469-.8967624-.3815493-1.3755218-.5079223Z" fill="#423b30" stroke-width="0"/>
      </g>
      <g>
        <path d="m105.0225579,105.4848709c3.2871171-1.3742084,6.5202628-2.7442571,9.7371192-4.2285755,5.9273814-2.9563675,12.0727195-5.5251127,17.5965388-8.8855666,2.6955552-1.7656758,5.6405622-3.4173616,7.2482738-6.228244.4707467-.9499876.2994993-2.1179231-.5682815-2.7519473-3.1787811-2.0654898-10.1643725-2.3342981-13.1533185-.000769.0314251.0468754.0650174.0957084.0957084.141605.0543909.0427507.295025.063759.2522045.1188489-.9977806-.1610753.0536918-.8903883.4431667-1.1364406,4.4237325-2.7461796,18.0395569-3.177846,14.4788688,5.1277377-3.5363066,5.7175081-10.0776127,8.7123267-15.7811037,11.8477716-6.3432915,3.1578514-13.3658572,5.2726635-20.3491764,5.9955797Z" fill="#423b30" stroke-width="0"/>
        <path d="m102.9575927,106.0104739l1.9466306-.8129188c2.9430333-1.2309219,6.3648259-2.6732755,9.7234321-4.2237753,1.8372693-.9162044,3.7304344-1.8117517,5.5628433-2.678136,4.036646-1.9089617,8.2118163-3.8823251,12.003007-6.191063.3159326-.2065713.6440164-.416788.9721002-.6270046,2.3549127-1.5152612,4.7924539-3.0815576,6.1679757-5.4899358.4180031-.8420818.2187225-1.8348391-.4787593-2.3451917-2.862835-1.8591416-9.3321617-2.2686388-12.4283008-.2588217.0461748.0376689.0826285.0850588.1020705.1506755l.0534655.1603965-.223583.2904149-.1774083-.0279479c-.3912703-.0631865-.6172836-.2247982-.6683189-.4811896-.0072908-.0303781-.0121513-.0619714-.0121513-.09721l-.0364538-.0571109.0437445-.0340235c.0364538-.2296587.2454553-.5589576.9988329-1.0365018,3.2055003-1.9879449,10.9895926-2.8348872,14.1805114-.0911344,1.0522984.9040532,2.0365499,2.610089.7533776,5.6041575-3.1811978,5.1448402-8.6030866,8.0574954-13.8451368,10.8753708-.6999121.3754737-1.3925335.747302-2.0730036,1.1215606-6.4984897,3.2358785-13.5729488,5.3198182-20.4675693,6.0330968l-2.0973061.2162923Zm29.1751567-24.5868438c2.678136,0,5.404877.620929,7.0744591,1.7060358.9575187.6999121,1.2369975,2.0207533.6756096,3.1508197-1.4605805,2.5566235-3.9613082,4.1654493-6.3818377,5.7195944-.3256536.2102167-.6513071.4192182-.9745304.63065-3.8300747,2.3306102-8.0198265,4.3124794-12.071054,6.2275168-1.8275483.8651692-3.7182832,1.7595013-5.5579828,2.6757057-2.6052285,1.2041891-5.2444805,2.3391161-7.6674402,3.3622515,6.1047891-.8906868,12.2824858-2.8373174,18.0032954-5.6855709.6707491-.3693981,1.3658008-.7436566,2.0681431-1.1191303,5.1691427-2.7789914,10.5156937-5.6515474,13.5875303-10.6141189.8894717-2.0839398.6926214-3.7280042-.6075626-4.8459194-2.1629229-1.8603567-6.7803988-1.9065315-10.2629477-1.0717405.6877609-.0911344,1.397394-.136094,2.1143179-.136094Z" fill="#423b30" stroke-width="0"/>
      </g>
      <g>
        <path d="m108.0510388,117.3806015c-2.7834772-.2677247-5.4860673-1.4516-7.9624249-2.7390487-.001608-.0612422-.0034256-.1224494-.0053832-.1837265,4.5457973.2609783,9.3703304.8714075,13.8694271-.4687542,3.1499165-.9351315,7.4631544-3.3915294,6.7069955-7.2036443-.5816695-2.0358125-3.0783275-4.2819177-5.2215235-3.7673717-.0044743.0134229-.0044743.0223716-.0044743.0357945-.0939518-.4071625,1.2170132-.3937396,1.5973298-.3310992,2.3937576.3400478,4.8591129,2.1745162,5.2528524,4.6667087.5019183,6.5376357-7.0503116,10.0562024-12.8923577,10.0565083-.4592463.000035-.9070971-.0216725-1.3404413-.0653669Z" fill="#423b30" stroke-width="0"/>
        <path d="m109.3904656,117.7570894c-.4690383,0-.9283557-.0230874-1.3706613-.0668319-2.9867778-.2879847-5.8836363-1.6331283-8.0757223-2.7729158l-.1676873-.087489-.019442-.7023424.3426653.019442c.6658886.038884,1.3366377.0838436,2.0122474.1300184,3.9175637.2673275,7.966361.5407307,11.7502609-.5856904,3.4193624-1.0158447,7.1716691-3.4181473,6.491199-6.8448004-.5249341-1.8421298-2.7316015-3.8021268-4.6101851-3.5700379v2.5043731l-.6124231-2.6562637c-.0218723-.0984251-.0145815-.1980654.0218723-.2879847l.0437445-.0814134c.0170118-.0243025.0340235-.0461748.0534655-.068047.4180031-.4483812,1.8129668-.2721881,1.8324088-.2721881,2.3427614.3329443,5.0743629,2.173859,5.5069475,4.9261177.1798385,2.2953716-.5540971,4.3331366-2.1702137,6.0804866-2.4399715,2.6331764-6.7682475,4.3355668-11.0284766,4.3355668Zm-8.2312583-2.9199459c1.9976659.9866817,4.4400676,1.9952356,6.9213533,2.2334002h.0024303c.4204333.0425294.8603087.0644016,1.3074747.0644016,3.3561759,0,7.9250467-1.2795269,10.5715895-4.1362863,1.494604-1.6149014,2.1726439-3.493485,2.0098171-5.5847155-.2989208-1.8980256-1.8712928-3.318507-3.5578867-3.9953317,1.1981135.7801104,2.1896557,2.0365499,2.5444722,3.2820532.7679591,3.861668-3.2492449,6.4960595-6.918923,7.5860268-3.8956915,1.1628748-8.0028147.883396-11.9689835.611208-.3037813-.0206571-.6099929-.0413143-.9113439-.0607563Z" fill="#423b30" stroke-width="0"/>
      </g>
      <g>
        <path d="m52.5676325,130.1202733c-3.9749029-1.9424287-7.9142561-4.1729-10.9664368-7.4319129-5.2343522-5.1531504-9.2872236-12.1415033-16.2420016-15.1270937-3.5926113-1.7768616-7.8242804-1.7863346-11.3243469-3.2577544-.0089486-.0134229.0044743-.0313202.0178973-.0223716.1567058.1284268.3504471.162858.5413919.2371386,0,0-.0044743-.0044743-.0045442-.0042296,7.0609032.3731857,14.4875116,1.3843106,19.7588817,6.6080712,6.2734066,6.0961818,12.2741947,12.7005478,18.2191587,18.9981523Z" fill="#423b30" stroke-width="0"/>
        <path d="m53.9710343,131.1501997l-1.5383485-.7509474c-3.6769689-1.7959551-7.8667207-4.0913266-11.0576396-7.4985378-1.5893838-1.562651-3.0985693-3.3306582-4.5591499-5.0403394-3.3415944-3.9139184-6.7998408-7.9615005-11.5777132-10.013847-1.9223281-.9490128-4.0536578-1.3937486-6.1120799-1.823903-1.125206-.233304-2.2747144-.4738988-3.3829086-.795907l.1215125.1227276-1.183532-.4629627c-.058326-.0206571-.1190823-.0425294-.1798385-.0644016l-1.300184-.0692621.5954114-.2466704-.1725478-.2393797.3937006-.3973459.2284435.1689024c.019442.0157966.038884.029163.0607563.0413143.068047.0279479.1385243.0546806.2065713.0814134.0048605.0024303.0121513.0036454.0170118.0060756.0170118.0048605.0315933.009721.0461748.0157966l.0850588-.0352386.0631865.0631865c7.2056926.3876249,14.5863632,1.4812377,19.842995,6.6904795,4.7803026,4.6454237,9.4463835,9.6335128,13.9593586,14.4575599,1.4289873,1.5261973,2.8482535,3.0451038,4.2675198,4.5469986l1.1762412,1.2442882Zm-36.5461063-26.1300529c.5978416.1373092,1.2054042.2648973,1.8275483.3937006,2.0973061.4374451,4.2675198.8906868,6.2457437,1.8688626,4.8969547,2.1009515,8.4013758,6.2044294,11.7915752,10.1730284,1.4508595,1.6999602,2.9527543,3.4582464,4.5299868,5.0111764,2.687857,2.8689107,6.1120799,4.9419143,9.3200105,6.5908392-1.0182749-1.0851068-2.0414104-2.1775044-3.0669761-3.2735474-4.5081146-4.8191866-9.169335-9.8024152-13.9399166-14.4381179-4.4546491-4.4157651-10.5302752-5.792502-16.7079719-6.3259419Z" fill="#423b30" stroke-width="0"/>
      </g>
      <g>
        <path d="m86.1773799,148.095748c-16.9300671-.6536342-31.7065214-12.2633934-41.5170473-25.3650563.0061172-.0343264.0666952.0040548.0369131.0230008,11.1690043,11.2173828,25.8134664,21.311014,42.1694232,21.5113793,5.054331.3336772,10.1520069-.6504183,15.1365317-.5816258-4.9305883,2.550009-10.1304743,4.9319516-15.8258206,4.412302Z" fill="#423b30" stroke-width="0"/>
        <path d="m87.7612366,148.4791005c-.5297946,0-1.0644497-.0230874-1.6039653-.0716924-14.8318185-.5759694-30.0451864-9.8668168-41.744412-25.490897l-.204141-.2114318.155536-.1032856.0218723-.155536.4982013-.0631865.09721.2162923c13.9642191,14.0006729,28.0572415,21.1844932,41.8902271,21.3546107,2.7996485.1883444,5.6697743-.0400991,8.4378296-.2588217,2.2042372-.1737629,4.4838121-.3487409,6.6977703-.3232233l1.241858.0170118-1.1033337.5698937c-4.4522188,2.3026623-9.208219,4.5202658-14.3846524,4.5202658Zm-39.997062-22.3315714c11.1475588,13.29347,24.9562419,21.1176613,38.4246899,21.6377349l.0170118.0012151c5.1983057.4726837,9.9956201-1.5201217,14.496444-3.7875453-1.7789433.0352386-3.5846194.1774083-5.3441207.3159326-2.7874973.2199377-5.6794953.4483812-8.5107371.2600368-12.9192114-.1579663-26.0547151-6.3526747-39.0832878-18.4273741Z" fill="#423b30" stroke-width="0"/>
      </g>
      <g>
        <path d="m115.1478675,180.9963867c-1.352265-2.7241926-2.707912-5.5754137-2.8546206-8.6622704-.2237157-3.2528257.1163321-6.5056514-.1389834-9.5613626-.5762776-9.29986-6.1520408-17.0429037-16.0538008-17.0784797,11.2906497-1.8669858,18.5640303,7.6609942,19.1685171,18.2326078.3204028,5.6832167-.5954682,11.4457826-.1211123,17.0695049Z" fill="#423b30" stroke-width="0"/>
        <path d="m115.594895,182.5961715l-.7266449-1.4617956c-1.4921738-3.0098652-2.7413225-5.7487574-2.8871375-8.7853554-.1093613-1.5930292-.0826285-3.2006398-.058326-4.7560001.0243025-1.6683669.0510353-3.2443844-.0801983-4.7948841-.6294349-10.1718133-6.8095618-16.7614374-15.7431624-16.7930306l-.0510353-.6184987c4.5664406-.7509474,8.8023671.2952754,12.2314505,3.0414584,4.2091938,3.367112,6.938365,9.1547535,7.3004724,15.4806954.1506755,2.6951478.0267328,5.4413308-.09721,8.0975945-.1336638,2.9551846-.2746183,6.0100094-.0243025,8.9639788l.136094,1.6258376Zm-15.6872667-36.7903465c7.2032623,1.6392039,11.9981465,7.9347677,12.5571041,16.9473515.1312335,1.5748023.106931,3.1654012.0801983,4.8495648-.0243025,1.5419939-.0510353,3.1374533.058326,4.7098254.116652,2.4496925.9939724,4.7268371,2.1361901,7.1340002-.1045008-2.4897916.009721-5.0136067.1239428-7.4693748.1215125-2.6404671.2454553-5.3708535.0947798-8.0331929-.3523863-6.152179-2.9940686-11.7709181-7.0671683-15.0310991-2.3257497-1.8615718-5.0403394-2.9102249-7.9833727-3.1070752Z" fill="#423b30" stroke-width="0"/>
      </g>
      <g>
        <path d="m152.0966673,139.0503995c-11.226078-.7195604-22.6600456-3.5746966-32.5191423-9.0744315-6.2614081-3.6966916-11.2537279-9.2120166-14.9844312-15.400586,1.1705572,1.470476,2.5417595,3.140898,3.8658416,4.5726083,6.0825841,6.6208562,14.1002737,10.9980716,22.7573357,13.1695816,9.1202932,2.4160505,18.4994325,3.6501045,27.7710134,5.2513494.2912498.072594.6548926.0446295.8768955.1565835-2.5068388.8194373-5.1143148,1.4063763-7.7675126,1.3248948Z" fill="#423b30" stroke-width="0"/>
        <path d="m152.6003187,139.3693067c-.1725478,0-.3426653-.0024303-.5127828-.0072908l-.009721-.0012151c-12.0589028-.7728196-23.3498464-3.9248545-32.6504148-9.1122241-5.8423221-3.4497405-11.0625001-8.8120881-15.1015763-15.5122886l.5103526-.3548166c1.5286275,1.9198979,2.7534738,3.3683271,3.851947,4.5555045,5.7888566,6.2992092,13.604542,10.8219053,22.6037595,13.0796079,6.9335045,1.8360542,14.1343366,3.0074349,21.0970042,4.1411468,2.2188187.3608922,4.4376373.7217844,6.6515955,1.1045488.1288033.0303781.2454553.0413143.3596771.0522504.2065713.0206571.4228636.0413143.6051324.1336638l.6707491.3390199-.7144936.233304c-2.8020788.9162044-5.1569915,1.348789-7.3612286,1.348789Zm-.4884803-.6294349c1.9782239.058326,4.0220645-.2393797,6.4304427-.9332162-2.0681431-.3536014-4.1605888-.6938365-6.2530344-1.0352867-6.9772491-1.134927-14.1926626-2.3099531-21.1528999-4.153298-9.0696947-2.2747144-16.9607179-6.8277886-22.822482-13.1683121,3.3415944,4.2833164,7.2202741,7.7780166,11.4221771,10.2593023,9.2130795,5.1387646,20.4116736,8.2628515,32.3757965,9.0308107Z" fill="#423b30" stroke-width="0"/>
      </g>
      <g>
        <path d="m150.2793271,147.2715305c-3.0394219-.7308861-5.9590861-1.9718089-8.6802026-3.4944037,5.4572639.0918283,11.0281334,1.09854,16.5517779.9010498,1.210861-.1960658,5.2778369-.1102149,5.0637341-1.7514489-1.2609873-1.9655868-8.5133596-6.1148394-10.6677065-4.9927742-.0980504.1674721-.0916885.3482973-.0573621.5143712-.4583724-.7662261.6842903-1.2028212,1.3738588-1.1681453,3.345458.1021751,11.8349429,2.1725237,11.7629345,6.3496796-1.0425499,4.9501284-11.4933571,4.4952865-15.3470341,3.6416715Z" fill="#423b30" stroke-width="0"/>
        <path d="m155.9151803,148.114563c-2.3184589,0-4.4619398-.2648973-5.7037978-.5395156l-.0048605-.0012151c-2.8579745-.6865458-5.8034381-1.872508-8.7586226-3.5262934l-1.0790312-.6027021,1.2345672.0206571c2.3573429.0400991,4.7730119.252746,7.1084826.4593173,3.0961391.2721881,6.2943487.5492366,9.4269415.4423056.2065713-.0352386.5662484-.0644016.9818212-.09721,1.1786715-.0935646,3.1496046-.2491007,3.6721084-.8955473.0850588-.1032856.1239428-.213862.1190823-.3414502-1.3414983-1.9454155-8.0951643-5.6855709-10.1268536-4.8665765-.0121513.0595411-.009721.1300184.0072908.2199377l.3693981,1.7983853-.9405069-1.5772325c-.1871293-.3159326-.1968503-.6452315-.0267328-.9283557.3207931-.5322248,1.183532-.7205693,1.6865938-.7096331,3.4582464.1057159,12.1342405,2.2443363,12.0564725,6.6649619-.2381645,1.1580143-.9113439,2.0730036-2.0049566,2.7789914-2.0098171,1.2953235-5.1472705,1.7011753-8.0173962,1.7011753Zm-5.5652735-1.1470782c2.7024385.6002719,9.7841883,1.1567992,13.244865-1.0778161.9502279-.611208,1.5310578-1.3937486,1.7279081-2.3245346.0534655-3.4473103-6.5470947-5.4121678-10.2459359-5.8727002,3.1471743.8457272,7.4754504,3.6235034,8.4013758,5.0670722l.0461748.1275881c.0437445.3280838-.0413143.6233592-.2478855.8785355-.6901911.854233-2.6659847,1.0097691-4.1071233,1.1239908-.3961308.0315933-.7363659.058326-.9696699.0959949-3.2176516.1142218-6.4280124-.1664722-9.5435935-.4410905-1.8907349-.1676873-3.8349352-.3390199-5.7524028-.4180031,2.5153092,1.3038294,5.0160369,2.2577027,7.4462874,2.8409628Z" fill="#423b30" stroke-width="0"/>
      </g>
      <g>
        <path d="m155.0321314,161.2218099c-5.5270702-.202987-10.7493277-2.7955369-15.3691697-5.5211277,3.4886447-.0814115,23.3439689,6.4883833,21.7810353-.232874-2.0475925-3.7177348-5.8304146-6.015819-9.0836248-8.5567744-1.1952708-.6704916-2.3519857-1.7807854-3.7308082-1.8334634-.0201344.0394386-.0402688.0773305-.0603683.11704.0166738.1088517.0455821.1980583.0870394.3044193.0044743.0134317-.0178973.0268546-.0268459.0089574-.0805376-.1476523-.2237157-.3355735-.0805376-.5055974.156601-.1744982.657724-.0894775.814325-.0492174,1.9193405.4924191,3.6775359,1.4599894,5.3962315,2.424903,3.3986254,2.2810608,8.0743176,4.339944,9.1051225,8.6668146.3426695,4.5248939-5.3571162,5.4814182-8.8323991,5.1769202Z" fill="#423b30" stroke-width="0"/>
        <path d="m156.2505549,161.5854412c-.4301543,0-.8457272-.019442-1.2369975-.0522504-5.7135188-.2126469-11.0454883-2.9320972-15.5074281-5.5652735l-.9380767-.552882,1.0887522-.0255176c.0243025,0,.048605-.0012151.0729075-.0012151.9891119,0,2.9964988.4313695,5.5190988.9745304,5.404877,1.1604446,13.575379,2.9163005,15.5463122.912559.4009913-.407067.5176433-.9623792.3548166-1.6963148-1.6282678-2.930882-4.3987533-4.9917344-7.0793196-6.9845398-.6440164-.4775442-1.2831722-.9538733-1.9028861-1.4374931-.3013511-.165257-.6367256-.3900552-.9769607-.6172836-.7144936-.4787593-1.4508595-.9721002-2.2285397-1.1130547l.0899193.2369494-.5419459.2539612-.155536-.2636822c-.1117915-.1956352-.3086418-.5370854-.0437445-.8518028.3062116-.3438804.9988329-.1834839,1.1300665-.1506755,2.0219684.5200736,3.8543772,1.5480695,5.4704938,2.4557681.6367256.426509,1.2977537.8335759,1.9685029,1.2479336,3.0086501,1.8542811,6.4158612,3.9564477,7.2883211,7.61762.1117915,1.4302024-.3062116,2.5967226-1.2345672,3.5141422-1.582093,1.5638662-4.3622996,2.0985213-6.6831887,2.0985213Zm-15.1817746-5.4303946c4.1289955,2.3476219,8.9165889,4.570086,13.9763704,4.7560001l.0145815.0012151c2.532321.2187225,5.8204498-.2697578,7.4365664-1.8676475.7922616-.7825406,1.1495085-1.785019,1.0571589-2.9770568-.8044129-3.3622515-3.9540175-5.3040216-6.9991213-7.1826052-.6780399-.4192182-1.3463588-.8299305-1.9685029-1.2479336-.8967624-.5030618-1.8712928-1.0498682-2.9041493-1.5176914.2770486.184699.5516669.3645376.8311457.5212887.6537374.5067072,1.290463.9793909,1.9296189,1.4545049,2.7437528,2.0414104,5.5822853,4.1520829,7.2737396,7.2214892l.0315933.0801983c.223583.9648094.0534655,1.7437047-.5079223,2.3148136-2.2090977,2.2504119-10.2507964.5200736-16.1222815-.7412264-1.562651-.3353746-2.9892081-.6428012-4.0487973-.815349Z" fill="#423b30" stroke-width="0"/>
      </g>
      <g>
        <path d="m146.4041175,170.0471131c-5.3803354-1.7296367-9.8076945-5.7823857-13.4767362-9.8475788,6.3248612,2.4845372,11.6898074,7.7861789,18.6086337,8.3978315,3.9495252-.0069212,3.8101224-2.705736,1.9780309-5.3246774-1.6798949-2.1505717-3.5275066-5.2577025-6.3575446-5.7590353,1.0255266-.9302726,5.0334625,2.3663874,6.4780365,3.9068444,7.0010767,6.8736637.1704783,11.393489-7.2304202,8.6266157Z" fill="#423b30" stroke-width="0"/>
        <path d="m150.7338863,171.1727793c-1.4046848,0-2.9284518-.2697578-4.4327768-.8311457-5.8617641-1.8870895-10.5715895-6.5726124-13.604542-9.9336487l-.8846112-.9818212,1.2297067.4836198c2.4035177.9441523,4.6976741,2.3075228,6.9140625,3.6247186,3.6210732,2.1519868,7.3636589,4.3780962,11.6068762,4.7535699,1.3901033-.0036454,2.3306102-.3742586,2.6927175-1.0705253.4423056-.8554482.0801983-2.2273245-.9964027-3.7656731-.252746-.3256536-.5225038-.6865458-.7971221-1.0583741-1.4508595-1.9551365-3.0937088-4.1715249-5.3587023-4.5737314l-.6245744-.1105764.4690383-.426509c1.426557-1.2868176,6.1120799,3.0681912,6.9140625,3.9248545,2.833672,2.7826368,3.7231437,5.550692,2.4278202,7.5848117-.9866817,1.5480695-3.0888483,2.3804303-5.5555525,2.3804303Zm-16.5986106-10.1195629c2.9794871,3.1702617,7.2324253,7.0489414,12.3626841,8.6978664l.0145815.0048605c3.8738192,1.4496444,7.8521392.8919019,9.2519635-1.2977537,1.1227757-1.7643618.2673275-4.2492929-2.3476219-6.8156374-.7169239-.7643138-1.7157568-1.6392039-2.7024385-2.3743547.8262852.8408667,1.5577905,1.8263332,2.2479817,2.7546889.2721881.3669678.5370854.7254298.7971221,1.0583741,1.222416,1.7485652,1.601535,3.3561759,1.0474379,4.4230558-.4836198.9283557-1.582093,1.4010394-3.2711171,1.4046848-4.4133348-.3888401-8.219107-2.6514032-11.8985062-4.8398438-1.7813736-1.0595892-3.6137824-2.1483414-5.502087-3.0159408Z" fill="#423b30" stroke-width="0"/>
      </g>
      <g>
        <path d="m135.4203864,177.9295246c-3.6445116-1.4302422-6.2529663-4.7493436-8.4028388-7.8118712,4.5878839,1.9848473,8.5163658,7.3042813,13.8492578,6.5722418,4.9361812-1.5922613,2.660958-8.9254509-.9227572-10.6399867,8.6410523,3.7189233,5.4924991,16.2476295-4.5236617,11.8796162Z" fill="#423b30" stroke-width="0"/>
        <path d="m139.3457327,179.1525066c-1.2467185,0-2.6125192-.3110721-4.0439368-.9356464-3.6113522-1.4192663-6.2384529-4.6454237-8.5399001-7.9201862l-.6318651-.9016229,1.0109842.4374451c1.6379888.708418,3.2079306,1.8457752,4.7268371,2.9442484,2.7607645,1.9976659,5.599297,4.0730998,8.9579032,3.6040614,1.9587819-.6367256,2.4788555-2.2090977,2.5590537-3.4132868.1701175-2.5432571-1.4994645-5.6442567-3.5748984-6.637014l.2576065-.5662484c2.9065795,1.251579,4.8361984,3.6818294,5.1642822,6.50092.2697578,2.3111682-.6099929,4.521481-2.2941564,5.7681995-1.0061237.7448718-2.2261094,1.1191303-3.5919102,1.1191303Zm-11.3541301-8.2057407c2.0754339,2.8324569,4.4449281,5.4789996,7.5434974,6.6941249l.009721.0036454c2.7899275,1.2175555,5.2809342,1.1774563,7.0234238-.1105764,1.504325-1.115485,2.2892959-3.1058601,2.0462709-5.1970906-.1701175-1.4581503-.8092734-2.8069393-1.8178273-3.9139184.8311457,1.3888881,1.3123352,3.0609004,1.2102647,4.5858826-.1336638,1.9745785-1.2151252,3.386554-3.0451038,3.9771049-3.6113522.4909106-6.5956997-1.6343434-9.4585348-3.7049168-1.1422177-.8275003-2.3160287-1.6756577-3.5117119-2.3342556Z" fill="#423b30" stroke-width="0"/>
      </g>
      <g>
        <path d="m123.1478609,180.7943435c-3.1004893-3.1150658-4.1805466-7.6246142-4.5145558-11.8793365.7431992.8952122,1.4274894,2.0379098,2.0938475,3.0606749,1.7925217,2.3571241,5.1382593,12.041006,8.8101412,7.3286104,1.1074187-1.5572358,1.689464-5.775814-.0834127-6.8619186-.1244768.0130384-.2648234.2597898-.2881825.2087547.3550874-.8692053,1.2219856.0860257,1.4719879.5501657,3.3548523,5.4871509-1.8416693,13.4077339-7.4898255,7.5930493Z" fill="#423b30" stroke-width="0"/>
        <path d="m127.1604569,183.1429779c-1.3925335,0-2.8652653-.7217844-4.2359265-2.1313296-2.6659847-2.6817814-4.17274-6.6297232-4.6028944-12.0722691l-.0753378-.9769607.6245744.7533776c.6027021.7254298,1.1616597,1.5978897,1.7011753,2.4424017l.4155728.6476617c.4082821.5370854.8967624,1.4508595,1.4605805,2.5092336,1.3050445,2.444832,3.0888483,5.792502,4.8969547,5.948038.6440164.0668319,1.2977537-.3171477,1.9466306-1.1495085.6853306-.9635943,1.2175555-3.2176516.8773204-4.8957395-.0923495-.4520266-.2891998-1.0352867-.7120634-1.3901033-.068047.0704773-.1919898.1591814-.3305141.1385243l-.1628268-.0255176-.1385243-.2794788.0510353-.1275881c.1871293-.4532417.4982013-.5358702.6658886-.5455912h.038884c.6172836,0,1.1786715.7837558,1.3317772,1.0644497,2.0389801,3.337949,1.0109842,7.4535781-1.2345672,9.1960677-.7728196.5990567-1.6282678.8943322-2.5177395.8943322Zm-8.1146063-13.1695272c.5200736,4.7329128,1.9393399,8.2081709,4.3234156,10.6007525l.0024303.0036454c2.0365499,2.0948759,4.1970425,2.5201697,5.9249506,1.1786715,1.8615718-1.4435688,2.7874973-4.70618,1.4921738-7.6018234.3548166,1.853066-.223583,4.240787-.9988329,5.3295392-.7849709,1.0085539-1.6282678,1.475162-2.4982975,1.3998243-2.1434809-.1859142-3.9442965-3.5627472-5.3927258-6.2761218-.5516669-1.0352867-1.0279959-1.9284037-1.4192663-2.4436168l-.4325846-.6707491c-.3256536-.5103526-.6585979-1.0316413-1.0012632-1.5201217Z" fill="#423b30" stroke-width="0"/>
      </g>
      <g>
        <path d="m115.6889361,180.8250344c-3.1769372-2.2970355-3.956796-6.4960736-3.4675927-10.1790975.481548.5847019.9013294,1.3857437,1.3063946,2.0719566,1.062964,1.4900512,2.5265538,8.4986084,5.0516831,6.764847.4287476-1.0699551,1.1678569-2.4713939.550926-3.5701873-.01968-.0065017-.0382064-.0141221-.0575369-.0209034-.0036703.0021672-.0074805.0041248-.0116052.0058026.0011535-.0013283.0012934-.003111.0012934-.003111-.031495.0067814-.1056445.1420944-.1208065.0805376.1744982-.4250598.5637635.0671147.6755514.2997091,1.1974992,2.8965935-.4290097,6.8858981-3.9283072,4.5504464Z" fill="#423b30" stroke-width="0"/>
        <path d="m117.6387356,181.8391485c-.5711089,0-1.2783117-.1919898-2.1216086-.7558079l-.009721-.0072908c-2.8482535-2.0559919-4.1897518-5.9711254-3.5943404-10.4719492l.0947798-.7096331.4544568.552882c.3961308.484835.7436566,1.0899673,1.0790312,1.6756577l.252746.4374451c.3086418.4277241.6415861,1.2916781,1.0279959,2.2917262.6901911,1.7801585,1.6331283,4.2176997,2.7243108,4.5555045.2503158.0789831.5103526.0328084.7801104-.1324486.0437445-.1057159.0899193-.2150772.136094-.3256536.3669678-.873675.7776801-1.853066.5030618-2.6477579-.0413143.009721-.058326-.0024303-.087489-.0085059l-.058326-.0145815-2.4326807.6075626,2.3427614-1.1725958c.1409545-.1992805.3475258-.2029259.4009913-.2175074.0631865,0,.1239428.0121513.1798385.0340235l.0631865-.0121513v.0400991c.3183628.1591814.5200736.5771845.5225038.582045.7898314,1.9041012.4423056,4.1703098-.7801104,5.1752183-.2989208.2442402-.7898314.523719-1.4775923.523719Zm-1.7716526-1.2698059c1.1495085.7655289,2.1361901.854233,2.853114.2648973.7995524-.6561676,1.1373572-2.0462709.9064834-3.4035658-.1093613.6124231-.3645376,1.2199857-.5905509,1.7595013l-.204141.4957711-.077768.0534655c-.4617476.3183628-.9332162.4058518-1.3925335.262467-1.377952-.426509-2.3038774-2.8166603-3.1180113-4.9249025-.3572468-.9210649-.6926214-1.7910946-.9696699-2.1775044l-.2721881-.4678232c-.1822688-.3159326-.3669678-.6391559-.5565274-.9392918-.3159326,3.9224242.9356464,7.2761699,3.4217926,9.0769854Z" fill="#423b30" stroke-width="0"/>
      </g>
      <g>
        <path d="m17.3489675,99.1879042c-1.4396627-.2404594-2.2267748-1.6405349-2.2640549-3.0200915-.0223716-.5548148-.1208065-1.7181363.6399142-1.8256247.6234151.0608227.771015.9756799,1.1095248,1.4140578-.1650253-.0103818-.3962913-.2366492-.5882498-.3262753.0945373.2292736.197499.4489344.3087101.6677213.0505283.0874938.1042725.1747079.0961453.1729951.2711329.5363233.7971968.8879414,1.2841279.5324782,1.22937-.9654729,2.2986085-2.0229139,3.8030614-2.4250428.2225272,2.4176322-1.797031,5.162134-4.3891789,4.8097818Z" fill="#423b30" stroke-width="0"/>
        <path d="m17.7991865,99.5289959c-.1628268,0-.3280838-.0109361-.4909106-.0328084l-.009721-.0012151c-1.6817333-.2819091-2.4885765-1.9174676-2.5250302-3.318507l-.0048605-.0984251c-.0267328-.6172836-.0850588-1.9028861.9113439-2.0438406.6756096.0571109.9380767.6160685,1.1470782,1.0656648.0850588.1810537.165257.3523863.252746.4666081l.4180031.5407307-.6002719-.0352386c.0121513.0206571.0218723.0400991.029163.0607563l.0024303-.0012151c.1312335.2600368.3280838.4495963.5127828.494556.106931.0230874.204141.0012151.3110721-.0741226.2090015-.1664722.4252938-.3414502.6391559-.5164282,1.0109842-.8287154,1.9685029-1.6112561,3.2662566-1.9575667l.3572468-.0959949.0315933.3681829c.1336638,1.445999-.4641778,2.9928534-1.5553603,4.0390763-.7801104.7448718-1.7206173,1.1397875-2.6927175,1.1397875Zm-.4034216-.6488769c.9599489.1336638,1.9004559-.2065713,2.6659847-.9405069.8457272-.8104885,1.3658008-2.008602,1.3828125-3.143529-.9939724.3584619-1.8056761,1.0219203-2.658694,1.7206173-.2162923.1774083-.4350148.3560317-.6585979.5310097-.2600368.1919898-.5443761.2563914-.8311457.1822688-.3693981-.0887041-.7047726-.3864098-.9210649-.8189944l-.09721-.1713327c-.116652-.2272284-.2211528-.4544568-.3183628-.6901911l-.3062116-.7351508.4374451.2017108c-.1215125-.2162923-.2405948-.3487409-.3985611-.3645376-.3086418.0522504-.3329443.7035575-.3013511,1.3986091l.0048605.1057159c.029163,1.1567992.6683189,2.4982975,2.0000961,2.7243108Z" fill="#423b30" stroke-width="0"/>
      </g>
    </g>
  </g>
</svg>