<?xml version="1.0" encoding="UTF-8"?>
<svg id="Layer_2" data-name="Layer 2" xmlns="http://www.w3.org/2000/svg" viewBox="0 0 186.5644828 162.4945977">
  <g id="Layer_1-2" data-name="Layer 1">
    <g>
      <path d="m124.8968592,97.2503381c5.5117188,1.9571533,10.8085938,4.4035645,16.0458984,6.9903564,4.9345703,2.4371338,9.8183594,4.9863281,15.0800781,6.6878662,3.4033203,1.1005859,6.8505859,1.9849854,10.4375,2.1968994,3.2548828.1922607,6.4150391-.2271729,9.3857422-1.6494141,6.7714844-3.2423096,8.2216797-11.1113281,3.0625-16.5662842-.1142578-.1210938-.2236328-.2492676-.3505859-.355957-.328125-.2749023-.2402344-.4775391.0341797-.760498.8535156-.8811035,1.7529297-1.7358398,2.4912109-2.7092285,3.8476562-5.0708008,2.7441406-9.9969482-.4306641-13.9365234-.7373047-.9154053-1.6962891-1.6530762-2.5576172-2.4672852-.1640625-.1542969-.3505859-.2839355-.6181641-.498291.3212891-.1994629.5673828-.3674316.8271484-.5113525,2.3359375-1.2943115,4.4814453-2.8364258,6.1484375-4.9482422,3.5712891-4.5247803,2.5009766-10.7663574-2.3613281-13.8817139-2.3076172-1.4788818-4.875-2.1403809-7.5810547-2.286377-4.9335938-.2661133-9.6650391.7037354-14.2626953,2.4255371-4.4306641,1.6588135-8.5625,3.9125977-12.640625,6.286377-3.0615234,1.7822266-6.1777344,3.4733887-9.2890625,5.1700439-5.6601562,3.0872803-11.7304688,4.1990967-18.1269531,3.6711426-1.3300781-.1097412-2.6582031-.2318115-3.9873047-.3546143-.2148438-.0197754-.4267578-.0737305-.6396484-.1120605-.0009766-.0512695-.0029297-.102417-.0039062-.1536865.2324219-.0467529.4638672-.1014404.6972656-.1387939,2.5947266-.4150391,5.1933594-.8056641,7.6816406-1.7015381,2.6601562-.9573975,5.0957031-2.2839355,7.1367188-4.270874,1.5-1.4604492,2.578125-3.1711426,2.9716797-5.2502441.3320312-1.755127.0498047-3.4029541-1.0175781-4.8779297-.0820312-.1140137-.140625-.2456055-.25-.4404297.3134766-.1306152.5878906-.2583008.8710938-.3608398,4.4873047-1.6231689,8.8144531-3.5668945,12.6894531-6.3986816,1.6914062-1.2363281,3.2216797-2.652832,4.3925781-4.4099121,1.8808594-2.8212891,1.8623047-5.8480225-.0166016-8.6762695-1.0644531-1.6038818-2.4775391-2.8010254-4.1953125-3.6513672-.2988281-.1479492-.6015625-.2879639-.9003906-.4355469-.0341797-.0169678-.0566406-.0588379-.1416016-.1525879.1923828-.1711426.375-.354248.5771484-.5111084,2.5263672-1.9544678,4.6582031-4.244751,5.9648438-7.197876,2.0087891-4.541626,1.4755859-8.748291-1.8330078-12.5078125-2.4667969-2.8031006-5.6162109-4.6254883-9.0263672-6.0184326-6.4003906-2.6143799-13.0214844-3.0325928-19.7841797-1.8814697-5.2666016.8964844-10.3916016,2.2485352-15.1660156,4.72229-.2626953.1361084-.4785156.2127686-.6884766-.1085205-1.3144531-2.0092773-3.3017578-2.9801025-5.5400391-3.5510254-4.2060547-1.0727539-8.3642578-.6259766-12.3867188.7312012-12.703125,4.2861328-22.2011719,12.3032227-27.9238281,24.5429688-2.0478516,4.3824463-3.1699219,8.9993896-2.8623047,13.8862305.1035156,1.6584473.4082031,3.2696533,1.3027344,4.7141113.0410156.0666504.0507812.1530762.1279297.4018555-.6552734-.112793-1.1962891-.1524658-1.703125-.3024902-1.9150391-.5662842-3.875-.7993164-5.8613281-.8657227-1.3125-.0438232-2.6240234-.0976562-3.9375-.123291-3.2841797-.0645752-6.3320312.927002-9.3193359,2.1445312-1.4287109.5817871-2.8369141,1.2155762-4.2382812,1.8597412-.7138672.3282471-1.3935547.7315674-2.2001953,1.1606445-2.1953125-6.0406494-6.3154297-10.3381348-12.3427734-12.802124.0283203-.0605469.0576172-.1210938.0859375-.1816406.3984375-.0368652.7958984-.0993652,1.1943359-.1069336,3.4707031-.0646973,6.5019531-1.3383789,9.2451172-3.3757324.5302734-.3933105,1.0390625-.8527832,1.4394531-1.3730469.7382812-.9616699.4277344-2.1662598-.7255859-2.5317383-.8056641-.2553711-1.7246094-.3308105-2.5673828-.2419434-.8515625.0895996-1.7109375.3955078-2.4980469.7556152-2.3974609,1.0961914-4.6601562,2.4238281-6.6455078,4.1835938-.1669922.1477051-.3525391.2740479-.6259766.4852295-.0654297-.3389893-.1308594-.5704346-.1513672-.8057861-.1337891-1.536377-.2607422-3.0731201-.3818359-4.6103516-.1552734-1.9588623-.7841797-3.7169189-2.2607422-5.0712891-.4511719-.4143066-.9951172-.7774658-1.5595703-1.0085449-1.328125-.5432129-2.5517578.151123-2.7041016,1.5734863-.0927734.8771973-.0488281,1.7980957.1113281,2.6665039.2109375,1.1425781.5947266,2.2532959.90625,3.3769531.0537109.1936035.1210938.3835449.0791016.6640625-.1796875-.1185303-.3720703-.2216797-.5371094-.3579102-.8671875-.7167969-1.7011719-1.4782715-2.6005859-2.1513672-.6103516-.4562988-1.2783203-.866333-1.9775391-1.1624756-.7324219-.3101807-1.5-.2150879-2.0703125.4180908-.5908203.65625-.6201172,1.4748535-.1728516,2.1533203.6474609.9821777,1.4472656,1.8649902,2.1982422,2.7770996.1796875.21875.421875.3864746.7675781.6956787-.3583984.0570068-.5625.1033936-.7685547.1199951-1.8486328.1497803-3.4931641.8129883-4.8662109,2.0549316-.4980469.4511719-.9677734.9990234-1.2646484,1.595459-.7148438,1.4385986-.0488281,3.0280762,1.46875,3.5603027.5966797.2094727,1.2685547.3453369,1.8955078.3105469,3.234375-.1796875,6.3769531-.7796631,9.21875-2.4421387.6025391-.3527832,1.1103516-.8642578,1.6855469-1.2700195.1445312-.1022949.4355469-.1750488.5625-.0991211,2.6279297,1.5739746,5.2998047,3.0856934,7.8427734,4.7888184,2.4238281,1.6228027,4.3486328,3.7789307,5.5947266,6.4470215,1.4716797,3.1529541,2.8642578,6.3431396,4.2890625,9.5183105.0234375.0527344.015625.119873.0390625.3393555-.2773438-.2541504-.4707031-.420166-.6503906-.5992432-1.3447266-1.3375244-2.6503906-2.7150879-4.328125-3.6663818-2.4140625-1.3691406-5.0185547-2.0083008-7.7744141-2.0686035-.4482422-.0098877-.9189453.0688477-1.3466797.2070312-.5820312.1879883-.9326172.6359863-.9453125,1.2674561-.0126953.6473389.3603516,1.078125.9423828,1.2576904,1.2539062.387085,2.5126953.7768555,3.7919922,1.0656738,3.7919922.8564453,6.9902344,2.7490234,9.7626953,5.4324951,1.5576172,1.506958,3.1269531,3.0028076,4.7314453,4.458252.953125.8641357,2.0576172,1.4882812,3.3710938,1.6677246.2402344.0328369.4667969.170166.6992188.2593994.2529297.0969238.4980469.2194824.7587891.2861328.7871094.201416,1.3505859.0356445,1.6132812-.4473877.2695312-.4974365.1044922-1.0054932-.5556641-1.55896-.3974609-.3342285-.8154297-.6518555-1.2548828-.9294434-2.4121094-1.5249023-4.296875-3.5881348-5.78125-5.9763184-1.3173828-2.1203613-2.4238281-4.3720703-3.6191406-6.5683594-.0869141-.1599121-.1367188-.340332-.2089844-.5251465,1.328125-.6297607,2.5693359-.6602783,3.6962891.3249512.4990234.4367676,1,.8942871,1.3994141,1.4191895,1.1728516,1.5424805,2.3554688,3.0837402,3.4267578,4.6971436,2.8359375,4.2713623,6.4462891,7.7008057,10.9707031,10.105835,1.3867188.7371826,2.9228516,1.2053223,4.4160156,1.7232666.4492188.1558838.9980469.145874,1.4775391.067749.8837891-.144043,1.2167969-.9708252.6181641-1.6237793-.4794922-.5227051-1.0888672-.9865723-1.7285156-1.291748-1.6542969-.7896729-3.3212891-1.579834-5.0488281-2.1816406-2.6328125-.916748-4.7519531-2.4915771-6.4697266-4.6311035-.9902344-1.2335205-1.9140625-2.5239258-2.8125-3.8271484-1.4111328-2.048584-2.90625-4.0220947-4.7490234-5.7077637-.3955078-.3623047-.8359375-.6765137-1.3007812-1.0490723.1367188-.1104736.2314453-.2109375.3457031-.276123,3.7822266-2.1474609,7.8212891-3.1669922,12.1826172-2.7889404,3.8398438.3328857,7.6787109.6800537,11.5224609.9727783,1.5351562.1169434,3.0839844.199707,4.6191406.1298828,2.421875-.1103516,4.6015625-.9976807,6.4609375-2.5513916.5371094-.4490967.9208984-1.1102295,1.2841797-1.7276611.1923828-.3271484.2539062-.8640137-.2001953-1.0369873-.265625-.1014404-.7382812.0394287-.9863281.2368164-1.3818359,1.1014404-2.9638672,1.7852783-4.6357422,2.2601318-1.765625.501709-3.4375-.0102539-5.0244141-.7346191-.3818359-.1743164-.6318359-.7504883-.8300781-1.192627-1.0898438-2.4377441-1.2060547-4.9904785-.8691406-7.6030273.8388672-6.5003662,3.6611328-12.06604,7.8994141-16.9863281,6.0117188-6.9783936,13.4521484-11.498291,22.5625-13.1342773,2.5742188-.4620361,5.1748047-.6762695,7.7773438-.2216797.7539062.1317139,1.5019531.3635254,2.2119141.6501465.4267578.1723633.8154297.4985352,1.1484375.8293457.3691406.3668213.3476562.7773438-.1123047,1.112793-.2685547.1962891-.546875.3924561-.7724609.6340332-.3388672.3635254-.6923828.7333984-.9375,1.1595459-.6503906,1.1309814-.4550781,2.4135742.4277344,3.2025146.8867188.7919922,2.1806641.854248,3.2324219.0839844,1.0966797-.8027344,1.8544922-1.8942871,2.5068359-3.0778809.2519531-.456665.5986328-.9073486,1.0078125-1.2233887,3.5439453-2.7346191,7.6435547-4.217041,11.9599609-5.1630859,6.6542969-1.4587402,13.2460938-1.4423828,19.7001953,1.0124512,3.109375,1.1828613,5.9726562,2.7724609,8.2734375,5.2431641,2.1484375,2.307373,2.8046875,4.9421387,1.8261719,7.9720459-.6455078,1.9981689-1.6396484,3.7845459-3.0947266,5.3005371-1.7480469,1.8225098-3.7773438,3.2733154-6.0205078,4.4224854-.3466797.1776123-.7519531.2380371-1.1220703.3735352-.6806641.2492676-1.3955078.4431152-2.0234375.7905273-.7900391.4365234-1.1083984,1.2387695-.9345703,2.0136719.1953125.8723145.7880859,1.3983154,1.6308594,1.5202637.6025391.0871582,1.2519531.0441895,1.8496094-.0825195.5820312-.1230469,1.1767578-.3466797,1.6748047-.668457.8359375-.5412598,1.6757812-.5179443,2.5722656-.2824707,1.4541016.3817139,2.7998047.9665527,3.8808594,2.0469971,1.7011719,1.7005615,1.8730469,3.612915.4853516,5.5756836-1.0341797,1.4642334-2.3603516,2.6428223-3.8066406,3.6778564-4.5390625,3.2473145-9.5263672,5.5726318-14.8808594,7.112793-.5498047.157959-1.1484375.1420898-1.7236328.2131348-.6367188.0786133-1.296875.0844727-1.9042969.2658691-.8720703.2607422-1.3808594,1.0688477-1.3457031,1.9014893.0351562.84729.5908203,1.588501,1.5058594,1.7653809.6835938.131958,1.4082031.1271973,2.1074219.0760498,1.7021484-.1248779,3.515625,2.0078125,2.8632812,3.5775146-.3857422.9300537-1.0283203,1.8353271-1.7685547,2.5229492-3.8847656,3.6087646-8.546875,5.5914307-13.7792969,6.2266846-1.546875.1879883-3.1220703.1439209-4.6816406.2370605-.9355469.0557861-1.8740234.1286621-2.7988281.2713623-1.0166016.1568604-1.6513672.7960205-1.7939453,1.668335-.1386719.8483887.3066406,1.6584473,1.1894531,2.151123.1816406.1013184.3671875.2042236.5644531.2687988,6.2001953,2.0357666,12.5068359,3.4631348,19.0898438,3.0179443,4.9902344-.3375244,9.7597656-1.614502,14.1679688-3.9891357,4.0175781-2.1638184,7.9462891-4.4912109,11.8994141-6.7719727,3.6679688-2.1162109,7.3173828-4.2570801,11.3740234-5.5861816,3.9902344-1.307373,8.0458984-1.8804932,12.1962891-1.0036621,1.2490234.263916,2.5078125.6896973,3.6376953,1.2791748,3.3447266,1.7440186,4.1708984,5.5799561,1.9189453,8.6124268-1.4335938,1.9301758-3.4091797,3.1572266-5.5683594,4.1231689-.0185547.0085449-.0390625.0151367-.0566406.0247803-1.6787109.8817139-3.3417969,1.2293701-5.2431641.4951172-1.1533203-.4453125-2.4882812-.505249-3.7490234-.5533447-.7597656-.0289307-1.5976562.1612549-2.2880859.4891357-2.0371094.9677734-2.1640625,3.5825195-.2207031,4.7280273.7294922.4301758,1.6259766.732666,2.4658203.7862549,1.359375.086792,2.734375-.1025391,4.1044922-.1271973.4755859-.0085449,1.0068359.0153809,1.4228516.2137451,1.8583984.8869629,3.5419922,2.0327148,4.8876953,3.6218262.7783203.9191895,1.3427734,1.9528809,1.6845703,3.1118164.4228516,1.4342041.2070312,2.7601318-.6181641,3.9987793-1.0087891,1.5159912-2.3105469,2.7404785-3.8222656,3.730835-.2470703.1616211-.7197266.1219482-1.0332031.0145264-3.2363281-1.1104736-6.4960938-1.309082-9.7578125-.2009277-.9931641.3378906-1.96875.8295898-2.8369141,1.4204102-2.3173828,1.5766602-2.1005859,4.2558594.3974609,5.5476074,1.4755859.7631836,3.0664062.9207764,4.6875.7973633,2.6386719-.2006836,5.1982422-.7636719,7.6152344-1.8671875.4882812-.2229004.8369141-.19104,1.2353516.1663818.9257812.8306885,1.734375,1.743042,2.2441406,2.8919678,1.1611328,2.6153564.3789062,5.2963867-2.0410156,6.8242188-2.0351562,1.284668-4.3164062,1.7424316-6.6855469,1.7904053-3.7890625.0767822-7.4121094-.8306885-10.9462891-2.0664062-2.9111328-1.0177002-5.7578125-2.2171631-8.640625-3.3161621-4.6757812-1.7823486-9.3710938-3.5140381-14.03125-5.3338623-2.8154297-1.0991211-5.5712891-2.3497314-8.3720703-3.4863281-3.4785156-1.4116211-7.0429688-2.4707031-10.8535156-2.4301758-.4951172.005249-.9912109-.1226807-1.4873047-.1800537-.890625-.1027832-1.6015625.2246094-1.9755859.9016113-.3798828.6851807-.3144531,1.5748291.3144531,2.1973877.5107422.5046387,1.1308594.9129639,1.7470703,1.291748,1.7548828,1.0786133,3.5878906,2.0393066,5.2851562,3.2006836,1.4980469,1.0253906,2.7626953,2.3508301,3.8017578,3.857666.2939453.4259033.5527344.8884277.75,1.3662109.4951172,1.2004395.1708984,2.3428955-.8945312,3.0908203-.2148438.1508789-.5820312.1575928-.8662109.1235352-.9296875-.1112061-1.8486328-.322998-2.7792969-.3996582-.9804688-.0808105-1.9052734.1767578-2.7158203.7628174-1.7011719,1.2293701-1.6904297,3.4642334.1279297,4.5028076.8173828.4672852,1.8271484.7127686,2.7753906.8129883,1.6728516.1767578,3.2724609-.2811279,4.7666016-1.0371094.4794922-.2427979.8779297-.2329102,1.3535156-.0092773,3.1103516,1.460083,6.0898438,3.1130371,8.5527344,5.5664062,1.6054688,1.5991211,2.8417969,3.4318848,3.5732422,5.5876465.9326172,2.7507324.3144531,5.0032959-1.9726562,6.7973633-2.4501953,1.9223633-5.3193359,2.8120117-8.375,3.1629639-.5791016.0665283-1.1650391.0714111-1.7470703.1114502-.9746094.0670166-1.8789062-.0751953-2.7685547-.5588379-.5634766-.3068848-1.2568359-.4577637-1.9052734-.508667-.8652344-.0678711-1.5351562.3817139-1.8740234,1.1954346-.3398438.8149414-.1699219,1.5963135.4726562,2.1750488.421875.3796387.9814453.605957,1.4775391.9031982.5488281.3282471,1.1660156.5809326,1.6308594,1.0018311,2.3955078,2.1697998,4.3271484,4.6779785,5.4111328,7.7689209.0205078.05896.0410156.1181641.0595703.1777344,1.2548828,3.9299316.2275391,6.6988525-3.2861328,8.8581543-2.4501953,1.5062256-5.1611328,2.2000732-7.9804688,2.5472412-4.1865234.515625-8.2695312-.0944824-12.3251953-1.1003418-10.2109375-2.5322266-19.5234375-7.0063477-28.0644531-13.0881348-5.8857422-4.1912842-10.5136719-9.5917969-14.4179688-15.6333008-2.5449219-3.9384766-4.7421875-8.0466309-6.0458984-12.5825195-1.8125-6.3049316-1.9755859-12.7043457-1.0341797-19.152832.6474609-4.4349365,1.6269531-8.7977295,3.8574219-12.7397461,1-1.7668457,2.1650391-3.4785156,3.4853516-5.017334,2.4550781-2.8613281,5.6757812-4.3059082,9.4550781-4.4326172,1.3613281-.0454102,2.65625.2644043,3.8261719.9824219,1.5234375.9353027,1.7236328,1.9736328.6972656,3.4243164-.3251953.4588623-.6767578.9050293-.9472656,1.3947754-.4736328.8557129-.3935547,1.6079102.1542969,2.0577393.5791016.4752197,1.3515625.3817139,2.1025391-.2542725,3.7890625-3.208252,3.3222656-8.390625-.9716797-10.8840332-1.7373047-1.0085449-3.6240234-1.3526611-5.5976562-1.2512207-5.5263672.2836914-9.9257812,2.7449951-13.3417969,7.0270996-3.0390625,3.8093262-4.9785156,8.1530762-6.2548828,12.8393555-2.2275391,8.171875-2.7675781,16.4178467-.8515625,24.6904297,2.4384766,10.524292,7.3623047,19.6972656,15.0517578,27.4238281,6.8945312,6.9284668,14.9199219,12.0512695,23.7802734,15.9909668,4.0654297,1.807373,8.1972656,3.4696045,12.578125,4.3120117,5.6708984,1.090332,11.4013672,1.637085,17.1699219.9088135,3.8154297-.4818115,7.3095703-1.864624,10.3095703-4.3197021,3.765625-3.0812988,4.9648438-7.0275879,3.7314453-11.7043457-.7753906-2.9382324-2.3359375-5.4663086-4.2734375-7.7766113-.1962891-.2348633-.3955078-.46875-.6875-.8151855.3769531-.0637207.6259766-.1166992.8779297-.1462402,2.3105469-.270874,4.5742188-.7143555,6.671875-1.7800293,6.0439453-3.0693359,8.1484375-9.230835,5.2128906-15.3312988-2.0253906-4.2092285-5.3857422-7.0429688-9.5117188-9.0422363-1.0859375-.5257568-2.2333984-.9244385-3.3574219-1.3681641-.3095703-.1224365-.53125-.230957-.3134766-.6230469,1.6582031-2.9929199,1.0449219-5.8112793-.7734375-8.4630127-.7724609-1.1275635-1.7460938-2.1177979-2.6318359-3.1679688-.1386719-.164917-.2949219-.315918-.4423828-.4733887.03125-.0489502.0634766-.0979004.0947266-.1468506.2451172.081543.4921875.1586914.7353516.2453613ZM28.6849451,31.2505823c-2.7119141,2.2202148-5.8662109,3.2565918-9.2548828,3.9121094.9628906-1.9824219,7.6220703-4.8046875,9.2548828-3.9121094Zm-12.7724609,4.1700439c-.4716797.0926514-.9550781.1306152-1.28125.1693115-.09375-.4472656-.0537109-.9477539-.2802734-1.1506348-.2558594-.2293701-.7792969-.3210449-1.1376953-.2453613-1.109375.2341309-1.4716797,1.0556641-1.0419922,2.2324219-.0683594.0661621-.1044922.1252441-.15625.1488037-2.5078125,1.1343994-5.0224609,2.2625732-7.7792969,2.6524658-.734375.1038818-1.4941406.081543-2.2382812.0374756-.5478516-.0324707-.7753906-.394043-.6943359-.9637451.1474609-1.0371094.8125-1.6650391,1.6611328-2.1337891,1.6357422-.9038086,3.3789062-1.4012451,5.2675781-1.3007812.4208984.0224609.8789062.053833,1.0761719-.425293.2001953-.4844971-.0878906-.8463135-.4326172-1.1412354-.5380859-.4602051-1.1269531-.8651123-1.6347656-1.3549805-.5966797-.5751953-1.1552734-1.1954346-1.6738281-1.8419189-.1494141-.1862793-.1015625-.5306396-.1435547-.8024902.2773438-.0297852.5849609-.149292.8271484-.0704346.4892578.1590576.9921875.3592529,1.4033203.6602783,1.4951172,1.0944824,2.953125,2.2382812,4.4267578,3.3615723.2480469.1889648.4853516.4020996.7578125.5463867.6337891.3347168,1.2597656.0058594,1.3037109-.7087402.0205078-.3397217-.0751953-.7019043-.1865234-1.03125-.2646484-.7895508-.6220703-1.5510254-.8457031-2.3508301-.3466797-1.2385254-.6298828-2.4960938-.9013672-3.7537842-.0654297-.2995605.0185547-.6312256.0410156-1.1009521.3662109.2362061.5986328.3586426.7988281.5205078.9150391.737793,1.5400391,1.6851807,1.9599609,2.7747803.8554688,2.2164307.8964844,4.5635986,1.0947266,6.8842773.0107422.1286621-.1015625.3704834-.1904297.3879395Z" stroke-width="0"/>
      <path d="m42.4349451,50.8208948c-.2949219.8374023.1318359,1.7800293.9248047,2.0446777.703125.2348633,1.4296875-.1171875,1.6582031-.8046875.2880859-.8623047-.1259766-1.920166-.8496094-2.168457-.6865234-.2359619-1.4716797.1846924-1.7333984.9284668Z" stroke-width="0"/>
    </g>
  </g>
</svg>