<?xml version="1.0" encoding="UTF-8"?>
<svg id="Layer_2" data-name="Layer 2" xmlns="http://www.w3.org/2000/svg" viewBox="0 0 166.4751226 165.1418305">
  <g id="Layer_1-2" data-name="Layer 1">
    <g>
      <path d="m79.6884523,137.5715183c-2.9570312,3.4157715-5.2001953,7.2116699-6.1650391,11.6755371-.5664062,2.6181641-.6162109,5.2183838.3808594,7.7663574,1.4775391,3.7767334,4.4423828,5.8708496,8.1289062,7.0792236,3.8056641,1.2474365,7.6865234,1.3419189,11.5947266.4986572,5.1923828-1.1208496,9.9404297-3.3256836,14.3652344-6.1845703,13.5556641-8.7600098,23.9589844-20.3742676,31.0136719-34.9025879,4.5253906-9.3199463,7.2705078-19.2281494,9.1123047-29.3901367,1.1210938-6.1843262,1.7304688-12.413208,1.0410156-18.7084961-.4443359-4.0578613-1.1386719-8.0649414-2.8564453-11.7980957-2.4013672-5.2197266-6.2470703-9.0922852-11.5400391-11.3172607-2.2236328-.9344482-4.6650391-1.3988037-7.0449219-1.8914795-1.1416016-.2363281-2.3779297-.1074219-3.5615234-.0170898-.7265625.0554199-1.3876953.4372559-1.8242188,1.0800781-.4238281.6252441-.3193359,1.090332.3623047,1.380127,1.2773438.5429688,2.5693359,1.0541992,3.8623047,1.5596924,2.8652344,1.1204834,5.7587891,2.1740723,8.5957031,3.3621826,1.8632812.7801514,3.3408203,2.1201172,4.6289062,3.6791992,2.4775391,3.0006104,4.0761719,6.3950195,4.8046875,10.2220459,1.1494141,6.0404053,1.0039062,12.0880127.1708984,18.1405029-2.0244141,14.7016602-7.0546875,28.3447266-14.6064453,41.0762939-5.6347656,9.5012207-13.0732422,17.3253174-22.3447266,23.3358154-4.9335938,3.1984863-10.1787109,5.8093262-15.9150391,7.298584-3.1933594.8294678-6.3574219.8103027-9.4257812-.5380859-3.9033203-1.71521-6.1005859-5.4519043-5.7548828-9.6888428.1865234-2.2950439.8242188-4.4586182,1.9150391-6.4761963,2.4677734-4.5625,5.8017578-8.3920898,9.9082031-11.5526123.3876953-.2991943.8183594-.5438232,1.2304688-.8132324.1962891-.1289062.4033203-.2442627.5888672-.3875732.5625-.4348145.7314453-1.0375977.4570312-1.5791016-.2578125-.5101318-.8642578-.8276367-1.4755859-.5767822-.9619141.394165-1.8867188.8907471-2.7958984,1.399292-1.2099609.677002-2.3603516,1.4650879-3.5908203,2.1021729-2.6035156,1.3487549-5.3466797,2.1741943-8.328125,1.9124756-1.6289062-.1431885-3.0888672-.6895752-4.2285156-1.9078369-1.3056641-1.3937988-1.7314453-2.972168-.8974609-4.770874.2695312-.5811768.5361328-1.1708984.8769531-1.7109375,2.7685547-4.3947754,6.6953125-7.4929199,11.2099609-9.911377.9960938-.5335693,1.4931641-1.2559814,1.2617188-2.1088867-.2431641-.8972168-1.0537109-1.324585-2.2041016-1.1623535-.0849609.0119629-.1699219.0240479-.2529297.0441895-1.0488281.2536621-2.0800781.1580811-3.1054688-.1357422-2.8046875-.8044434-4.859375-2.6186523-6.5546875-4.9006348-.5800781-.78125-.6083984-1.6652832-.3066406-2.5712891.4296875-1.2919922,1.2177734-2.3496094,2.1884766-3.2747803,1.7207031-1.6400146,3.7822266-2.7098389,6.0097656-3.4685059,1.3359375-.4547119,2.6972656-.8314209,4.0429688-1.2574463.5048828-.1599121.8984375-.4675293.8535156-1.0554199-.0439453-.583252-.4638672-.8314209-.9941406-.9233398-6.2783203-1.0878906-11.9912109,1.682373-14.9042969,6.6550293-1.9228516,3.2824707-1.7041016,6.7539062.5771484,9.7945557,1.5742188,2.0976562,3.6328125,3.4686279,6.1679688,4.1303711.2792969.0727539.5546875.1566162.9492188.2686768-.2470703.2141113-.3876953.3352051-.5273438.4580078-1.3808594,1.2133789-2.8085938,2.3774414-4.1298828,3.6525879-1.8789062,1.8138428-3.4082031,3.8928223-4.3154297,6.3769531-1.703125,4.6687012.7958984,9.1141357,5.6748047,10.0467529,2.2285156.4259033,4.4316406.1444092,6.609375-.4013672.4921875-.1234131.9833984-.2509766,1.5400391-.3931885-.0166016.1544189-.0068359.2072754-.0283203.2351074-.1445312.1850586-.2910156.3681641-.4443359.5456543Z" stroke-width="0"/>
      <path d="m122.5068117,20.0759128c-1.4443359-3.1691895-3.8710938-5.5629883-6.5283203-7.7260742-3.921875-3.1943359-8.3789062-5.4641113-13.0693359-7.2667236C94.4150148,1.8185886,85.5556398.3376316,76.497046.0372166c-7.3554688-.2440186-14.5917969.7261963-21.7333984,2.4910889-6.7929688,1.678833-13.4023438,3.8532715-19.6044922,7.1333008-2.7734375,1.4667969-5.3681641,3.204834-7.3613281,5.6906738-2.6025391,3.2470703-2.4951172,6.7832031.3046875,9.8835449,1.8066406,2.0004883,4.0996094,3.2624512,6.5927734,4.199707.2421875.0910645.4755859.2056885.7890625.3422852-.6884766.4255371-1.2900391.7515869-1.8408203,1.1469727-1.609375,1.1535645-2.7773438,2.6142578-2.9589844,4.6665039-.2041016,2.3066406.8134766,4.1535645,2.3261719,5.7658691,1.5146484,1.6135254,3.3867188,2.7287598,5.3535156,3.7042236,3.0869141,1.5316162,6.4111328,2.2232666,9.7714844,2.7969971,1.7675781.3018799,3.5341797.6113281,5.3007812.9173584l.0585938.1732178c-.1816406.1312256-.3613281.265625-.5449219.3930664-2.7714844,1.9182129-3.3349609,5.2561035-1.3417969,7.9780273,1.0625,1.4506836,2.4736328,2.4812012,4.0703125,3.2531738,2.8945312,1.3994141,5.9765625,2.0772705,9.1757812,2.1541748,4.0761719.0979004,8.1162109-.340332,12.1298828-1.0201416.6025391-.1020508,1.2041016-.3093262,1.7578125-.5704346.6582031-.3104248.9394531-.9171143.8066406-1.4552002-.1367188-.5537109-.6318359-.9118652-1.4052734-.8642578-.8496094.0523682-1.7050781.1552734-2.5371094.3322754-3.25.6905518-6.5244141.9023438-9.8251953.5383301-3.5527344-.3918457-6.9394531-1.3395996-9.9101562-3.4005127-.8046875-.5582275-1.4775391-1.3424072-2.1035156-2.1104736-.5332031-.6539307-.4541016-1.4522705.1142578-2.0620117.5625-.6032715,1.2128906-1.1356201,1.8779297-1.6274414.5644531-.4177246,1.2148438-.7163086,1.8076172-1.0991211.6269531-.4057617,1.0742188-.9509277.9316406-1.7559814-.1455078-.824707-.7441406-1.2427979-1.5097656-1.3751221-.8613281-.1488037-1.7353516-.267334-2.6074219-.2949219-2.15625-.0683594-4.2548828-.4206543-6.2871094-1.1430664-3.6142578-1.2852783-7.0917969-2.8813477-10.453125-4.7255859-.8007812-.4394531-1.5742188-.9685059-2.2539062-1.5760498-.578125-.5170898-1.0585938-1.1705322-1.4794922-1.8293457-.4775391-.7481689-.4746094-1.616333.1025391-2.2855225.6738281-.7810059,1.4121094-1.5698242,2.2753906-2.1109619,1.6396484-1.0272217,3.4794922-1.3687744,5.4228516-1.0664062.7578125.118042,1.2519531-.1705322,1.3925781-.7159424.1347656-.5266113-.1660156-1.1341553-.8212891-1.3493652-.5976562-.1960449-1.265625-.3707275-1.8740234-.3011475-1.2539062.1434326-2.3652344-.2159424-3.4765625-.6751709-.8105469-.3347168-1.6318359-.6483154-2.4189453-1.0327148-1.8320312-.895752-3.5810547-1.9328613-5.0136719-3.4128418-1.8935547-1.9567871-2.0673828-4.1564941-.3798828-6.2944336.7441406-.9440918,1.6650391-1.7866211,2.6279297-2.5146484,2.6611328-2.0125732,5.6611328-3.4337158,8.7128906-4.7436523,9.4345703-4.0495605,19.3632812-5.7648926,29.5546875-6.0756836,8.1455078-.248291,16.1796875.7587891,24.109375,2.6220703,5.6074219,1.317627,11.0429688,3.0894775,15.9990234,6.1015625,3.9726562,2.4141846,7.3945312,5.3753662,9.5009766,9.6466064.8779297,1.7813721,1.1523438,3.5498047.3808594,5.44104-.2207031.5402832-.3574219,1.1606445-.3447266,1.7402344.0283203,1.2436523,1.2070312,2.0286865,2.4033203,1.6887207.9697266-.2756348,1.5996094-1.0112305,1.9130859-1.8562012.5400391-1.4560547.7382812-3.0229492.2841797-4.5411377-.4941406-1.6535645-1.0380859-3.3094482-1.7519531-4.8768311Z" stroke-width="0"/>
      <path d="m42.6122804,116.399155c1.5683594-.7064209,2.6728516-1.7966309,3.6386719-3.1251221.2382812-.3287354.4667969-.664917.6992188-.9980469,1.9101562-2.7353516,3.7744141-5.5037842,5.7412109-8.197998,2.5224609-3.4564209,5.4082031-6.571167,8.9716797-9.0003662,4.1494141-2.8291016,8.6572266-4.3162842,13.7412109-3.7380371,1.9335938.2197266,3.8769531.3525391,5.8183594.4938965.5048828.0367432,1.0498047.0505371,1.5185547-.1030273.3271484-.1072998.7353516-.4907227.7802734-.798584.0507812-.3430176-.1748047-.854126-.4521484-1.0854492-.3564453-.296875-.8701172-.4699707-1.3417969-.5529785-1.7675781-.3115234-3.5380859-.7010498-5.3222656-.8143311-5.546875-.3519287-10.6816406,1.0338135-15.3984375,3.9632568-4.0390625,2.5076904-7.2841797,5.8530273-10.1474609,9.6071777-2.4121094,3.1633301-4.8486328,6.3083496-7.28125,9.4560547-.578125.7485352-1.1884766,1.4916992-2.1357422,1.7801514-2.1865234.666626-4.359375,1.4093018-6.5849609,1.916626-3.5009766.7980957-7.0136719.8212891-10.4033203-.5888672-.7392578-.3077393-1.4443359-.7497559-2.0820312-1.2375488-.7910156-.6044922-.8564453-1.2373047-.1748047-1.9731445.5429688-.5860596,1.1728516-1.1673584,1.8808594-1.5087891,1.3798828-.6650391,2.8378906-1.1691895,4.2705078-1.7231445.7255859-.2806396,1.2949219-.6799316,1.3378906-1.536499.0380859-.7519531-.4365234-1.4165039-1.2949219-1.7186279-.5205078-.1832275-1.0722656-.2911377-1.6181641-.3862305-5.2285156-.9101562-9.8164062-3.1833496-13.8916016-6.5336914-.5566406-.4575195-1.0566406-1.005249-1.4960938-1.5778809-1.0820312-1.4088135-1.1464844-2.8123779.0029297-4.1704102,2.1982422-2.5975342,4.9667969-4.1894531,8.4521484-4.357666.7207031-.0349121,1.4560547-.104248,2.1464844-.2949219.7509766-.2075195,1.1640625-.9066162,1.1259766-1.6130371-.0371094-.7053223-.5292969-1.3182373-1.2988281-1.4804688-.4726562-.0996094-.9892578-.154541-1.4589844-.074707-1.0722656.1817627-2.1230469.4892578-3.1943359.6843262-.5097656.0927734-1.0722656.1604004-1.5644531.0437012-3.7294922-.8843994-7.2314453-2.3579102-10.5703125-4.2233887-.4824219-.2692871-.9267578-.6164551-1.3564453-.9667969-.9775391-.7973633-1.2773438-1.855835-.8105469-2.9921875.3261719-.7924805.8037109-1.5754395,1.3886719-2.1988525,1.9736328-2.1053467,4.4335938-3.4772949,7.1650391-4.3424072,5.7548828-1.8226318,11.6074219-1.8964844,17.4306641-.5332031,4.2832031,1.0026855,8.4921875,2.3305664,12.71875,3.5649414,4.7460938,1.3857422,9.5449219,2.4458008,14.5214844,2.2219238,8.1113281-.3647461,15.1259766-3.4995117,21.2861328-8.6716309.6445312-.5412598,1.1669922-1.2451172,1.6738281-1.9272461.3173828-.427002.4414062-.9919434-.0546875-1.3922119-.5058594-.4074707-.8886719.0008545-1.2890625.3067627-2.0039062,1.5310059-3.9248047,3.1966553-6.0507812,4.5361328-7.3759766,4.6479492-15.5175781,5.6672363-24.0058594,4.6884766-3.90625-.4504395-7.6308594-1.7098389-11.375-2.8474121-4.4052734-1.3383789-8.8222656-2.6208496-13.4677734-2.7961426-5.0546875-.190918-10.0039062.4023438-14.7421875,2.2324219-3.2861328,1.2689209-5.890625,3.3786621-7.3867188,6.6582031-1.3056641,2.8601074-.6923828,5.7443848,1.7011719,7.7764893.7402344.6282959,1.5996094,1.1512451,2.4755859,1.5775146,1.7275391.8413086,3.609375,1.1832275,5.4990234,1.4526367.4775391.0678711.9550781.1330566,1.6298828.2270508-.3330078.260498-.5205078.385376-.6835938.5373535-.9472656.8881836-2.0166016,1.6831055-2.8085938,2.6945801-2.0019531,2.5583496-2.0117188,5.6037598-.1953125,8.2924805.953125,1.4101562,2.2226562,2.4785156,3.6464844,3.3753662,2.9189453,1.8375244,6.09375,3.0975342,9.3691406,4.1258545.2958984.0926514.5859375.1982422,1.0341797.3503418-.3183594.1992188-.4921875.302002-.6601562.4145508-.53125.3574219-1.0966797.6755371-1.5839844,1.0852051-2.7636719,2.3222656-2.9082031,5.5454102-.3710938,8.1030273,1.3955078,1.4055176,3.1123047,2.2452393,5.0078125,2.7363281,3.5126953.9100342,7.0361328.7730713,10.5576172.055542,2.609375-.5313721,4.9228516-1.7971191,7.3222656-2.8773193Z" stroke-width="0"/>
      <path d="m150.9013429,26.9018406c-2.0742188-.6717529-4.1230469-1.4504395-6.2333984-1.9786377-2.6181641-.6551514-5.3183594-.479126-7.7373047.6346436-4.6572266,2.1450195-9.1796875,4.5837402-13.7871094,6.840332-2.0458984,1.0018311-4.0791016,2.0880127-6.4355469,2.2526855-.2802734.0196533-.7207031.3010254-.7626953.5227051-.0537109.2790527.1445312.7185059.3798828.9187012.7246094.6174316,1.6230469.824707,2.5654297.8588867,2.5634766.0930176,4.890625-.7363281,7.1152344-1.8857422,1.7080078-.8828125,3.3808594-1.8378906,5.0429688-2.8066406,1.9550781-1.1397705,3.8798828-2.3327637,5.8222656-3.4945068.7333984-.4384766,1.4511719-.9211426,2.2275391-1.2659912,1.6152344-.7172852,3.3378906-1.130249,5.0576172-.5666504,2.2314453.7314453,4.4042969,1.6446533,6.5976562,2.4914551.2158203.083252.4003906.2485352.6591797.4145508-.1767578.1052246-.2441406.1586914-.3203125.1888428-3.4082031,1.3431396-5.5751953,3.8972168-7.0302734,7.1629639-.4511719,1.0135498-.9052734,2.0343018-1.4638672,2.9899902-1.2158203,2.081543-2.7636719,3.8809814-4.6005859,5.4689941-1.3681641,1.1833496-2.5644531,2.5686035-3.8154297,3.8851318-.3105469.3269043-.4228516.7633057-.1435547,1.1817627.2988281.4465332.7607422.5656738,1.2470703.4174805.3818359-.1166992.7597656-.2969971,1.0927734-.5185547,2.2607422-1.5031738,4.0878906-3.4804688,5.5732422-5.7000732,1.6699219-2.4967041,3.3125-5.0235596,4.4501953-7.8544922.7265625-1.8076172,1.9580078-3.3613281,3.5458984-4.5584717.6113281-.4614258,1.3164062-.7497559,2.1992188-.7811279-.0605469.3675537-.0859375.6589355-.1572266.9388428-.5400391,2.1315918-.9111328,4.3121338-1.8935547,6.315918-.125.2541504.0029297.6318359.0136719.9521484.3300781-.0710449.6699219-.1154785.9873047-.2250977.1455078-.050293.2763672-.2105713.3642578-.3515625.5302734-.8444824,1.2441406-1.6386719,1.5214844-2.5621338.4394531-1.4581299.5683594-3.0083008.8642578-4.5123291.0742188-.3752441.3164062-.7143555.4296875-1.0858154.0869141-.286499.1923828-.6253662.1181641-.8931885-.2783203-.9989014.3037109-2.5737305,1.2304688-2.9995117.9882812-.4541016,2.0058594-.847168,3.0175781-1.2490234.8027344-.3189697,1.1503906-1.1745605.5751953-1.6403809-.3105469-.2519531-.8554688-.3171387-1.2851562-.2929688-.4433594.0250244-.875.2607422-1.3369141.4125977,0-.1257324-.0244141-.2023926.0029297-.2421875.6513672-.9265137,1.2988281-1.8557129,1.9746094-2.7640381.0908203-.1225586.3251953-.1505127.5-.1966553.671875-.1777344,1.3955078-.2434082,2.0097656-.5378418,1.1904297-.5706787,1.2119141-1.3273926.1533203-2.0795898-.0273438-.0187988-.0263672-.0761719-.0380859-.1157227-.0400391-.0419922-.0810547-.0842285-.1210938-.1263428,1.2597656-1.2008057,2.4785156-2.4508057,3.7978516-3.5823975.7080078-.6074219,1.2998047-1.2296143,1.5400391-2.1361084.1728516-.6488037-.0429688-1.2188721-.5205078-1.440918-.4902344-.2286377-1.0703125-.0517578-1.4121094.5496826-.3134766.5522461-.5029297,1.1737061-.7685547,1.7548828-.1015625.2231445-.2197266.4748535-.4033203.6186523-.8720703.6802979-1.7705078,1.3271484-2.6582031,1.9875488-.1767578.1315918-.3496094.2701416-.5507812.427002-.0996094-.1700439-.1542969-.2587891-.2041016-.3500977-.2587891-.4758301-.6240234-.7956543-1.1933594-.6159668-.5712891.1806641-.6826172.6748047-.6210938,1.1958008.0439453.3791504.1845703.7462158.2480469,1.1242676.0332031.1936035.0683594.4543457-.0292969.5917969-.9130859,1.2896729-1.8535156,2.5594482-2.7900391,3.8322754-.0166016.0231934-.078125.0136719-.1484375.0236816-.2607422-.4760742-.5068359-.9724121-.7958984-1.4423828-.2685547-.4367676-.6259766-.8125-1.2041016-.6115723-.6171875.2143555-.6503906.7562256-.5517578,1.2824707.1494141.7962646.3525391,1.5823975.5341797,2.3726807.2792969,1.2138672.734375,2.4373779-.2080078,3.6008301-.7792969-.2601318-1.5058594-.5089111-2.2373047-.7454834Z" stroke-width="0"/>
      <path d="m144.934546,31.6132664c-.0029297-.7202148-.8720703-1.4071045-1.7880859-1.4144287-.6630859-.005249-1.15625.5042725-1.1494141,1.1885986.0068359.7988281.7050781,1.4074707,1.5976562,1.3935547.7763672-.0119629,1.3427734-.5058594,1.3398438-1.1677246Z" stroke-width="0"/>
    </g>
  </g>
</svg>