<?xml version="1.0" encoding="UTF-8"?>
<svg id="b" data-name="Layer 2" xmlns="http://www.w3.org/2000/svg" width="153.874" height="163.564" viewBox="0 0 15.387 16.356">
  <g id="c" data-name="Layer 1">
    <g>
      <path d="m.036,8.53c-.019-.189-.032-.371-.036-.544.005.177.017.358.036.544Z" fill="#728e0c" stroke-width="0"/>
      <path d="m8.805,16.072c.115.031.232.059.349.085.239.054.482.097.729.13.189.025.38.042.574.053.104.006.207.016.313.016h.042c.914,0,1.656-.23,2.333-.726l.125-.093c.222-.163.451-.331.69-.478.852-.521,1.279-1.114,1.388-1.925.124-.932-.038-1.592-.525-2.137-.013-.015-.026-.029-.039-.043-.128-.141-.249-.272-.187-.51.023-.089-.04-.231-.113-.333-.093-.129-.186-.262-.275-.391-.26-.374-.529-.76-.844-1.092-.966-1.018-2.096-1.827-2.972-2.418-1.62-1.093-3.059-1.817-4.527-2.279-.493-.155-.958-.232-1.4-.232-.439,0-.856.076-1.259.229-.903.344-1.671.83-2.283,1.446C.116,6.192-.136,7.226.081,8.831h0c.032.656.204,1.599.837,2.374.477.584.982,1.108,1.503,1.558.987.854,2.157,1.569,3.795,2.321.517.237,1.049.473,1.6.675.007.002.013.005.02.007.316.116.639.217.968.305Zm-5.543-3.037c-1.079-.799-2.085-1.623-2.532-2.919-.362-1.05-.434-2.08-.212-3.062.186-.823.774-1.341,1.382-1.778.137-.099.295-.171.448-.24.071-.033.145-.066.215-.102,1.026-.522,2.13-.562,3.378-.124,1.332.468,2.545,1.149,3.556,1.755,1.171.702,2.312,1.495,3.417,2.263l.247.171c.244.17.456.395.66.611.09.096.183.194.278.287.416.407.464.818.147,1.257l-.005.007-.009-.003c-1.156-.41-2.062.144-2.869.801-.615.501-.918,1.154-.876,1.889.02.351.083.743.398.999.16.13.354.227.533.268.117.025.231-.01.295-.095.057-.074.061-.169.011-.26-.636-1.16.079-1.873.77-2.562.04-.04.08-.08.12-.12.224-.226.526-.378.841-.526.316-.146.532-.102.659.146.004.009.008.021.012.031.002.006.004.013.006.017.156-.018.26.001.337.042.002.001.005.002.007.003.018.01.044.013.057.027.01.011.007.029.014.041.016.025.024.055.03.086.017.089.014.19-.003.296-.013.076-.024.148-.023.212.011.914-.351,1.522-1.108,1.858-.185.081-.344.235-.498.385-.055.054-.112.108-.169.16-.533.475-1.138.735-1.902.82-.23.025-.462.038-.695.038-.94,0-1.916-.21-3.015-.646-1.225-.484-2.645-1.104-3.899-2.032Z" fill="#728e0c" stroke-width="0"/>
      <path d="m.164,6.621c.046-.148.101-.29.167-.425-.066.138-.122.279-.167.425Z" fill="#728e0c" stroke-width="0"/>
      <path d="m.529,5.853c.073-.11.155-.216.244-.319-.09.104-.172.21-.244.319Z" fill="#728e0c" stroke-width="0"/>
      <path d="m.007,7.522c.012-.201.033-.394.069-.574-.037.185-.058.377-.069.574Z" fill="#728e0c" stroke-width="0"/>
      <path d="m7.424,2.818c.056-.029.116-.057.179-.085.146-.066.297-.135.409-.243.452-.436.886-.904,1.305-1.358l.064-.069c.093-.101.169-.235.208-.368.023-.076-.017-.212-.072-.252-.021-.015-.059-.022-.099-.022-.06,0-.127.017-.16.046-.637.565-1.269,1.143-1.88,1.715-.09.085-.137.176-.14.27-.002.113.06.236.185.368Z" fill="#728e0c" stroke-width="0"/>
      <path d="m5.001,2.366c.092.215.202.407.516.407h.032c.129-.825-.336-1.39-.787-1.936-.047-.058-.094-.114-.14-.171-.22-.272-.491-.608-.916-.467.093.131.185.256.274.378.208.285.404.554.579.837.086.14.146.295.213.446.006.014.014.028.02.042.037.085.085.167.12.252.03.071.059.142.089.212Z" fill="#728e0c" stroke-width="0"/>
      <path d="m6.938,0q-.395.194-.418.445c-.021.221-.038.445-.055.663-.012.15-.023.302-.036.453-.004.05-.012.101-.02.149-.014.093-.028.188-.02.279s.083.221.132.227c.011.002.022.002.033.002.088,0,.198-.04.274-.104.065-.054.118-.169.119-.262.005-.442,0-.89-.004-1.362-.001-.159-.003-.322-.004-.491Z" fill="#728e0c" stroke-width="0"/>
    </g>
  </g>
</svg>