<?xml version="1.0" encoding="UTF-8"?>
<svg id="Layer_2" data-name="Layer 2" xmlns="http://www.w3.org/2000/svg" viewBox="0 0 361.0935336 186.327159">
  <g id="Layer_1-2" data-name="Layer 1">
    <g>
      <path d="m359.6821129,105.2755145c-8.5464018-13.6809686-26.083865-19.4242129-38.7226055-20.9855117,8.7997263-7.6204147,20.5852398-5.331671,30.6325318-2.1624331,6.9450271-13.3760465-28.3236364-20.5133069-41.8678098-15.2163282-12.7976655,5.0050276-21.3711166,10.77888-24.8867408,13.0629051-1.2377129.8041153-3.6377379,1.9621427-3.6377379,1.9621427,0,0-.8512577-3.3068138-1.3720759-4.3830203-1.3119724-2.7110288-2.6912656-6.7427577-12.1766656-19.8265049-11.0518885-15.2444931-26.1782207-16.8508102-34.5857428-22.6347464-.4429649-.3047368-.8556114-.6108277-1.2345167-.9192595,2.8350402-3.3983314,10.0672398-6.9297633,8.8554987-11.9789041,6.0983937-2.8328303-11.8243783-24.4615446-16.0846567-21.9523178-9.3178798-.5366276-19.1451155.0134407-28.3803695-.1556224-5.0683572,5.8928002-16.954755,14.1299889-13.9633348,22.0946449,13.0283555,14.7739865,17.6957301,10.9164952-3.3301538,18.102511-11.6196306-.7761072-24.5201383-8.1058472-36.6103393-8.0147875-37.2098456.2802531-62.0566051,18.9201529-72.3016548,49.9833106-22.5224776,9.4952056-45.5294176-10.2262919-47.0646583-32.0947339-12.8957403-10.3265737-8.8462814,32.4823231-1.7989963,37.0649172.2505258.4750399.6506664,1.2766224-.1485266,1.1229523-5.6253559-.2545508-11.9297425-1.1080483-16.8566792,1.9074755-12.7446691,6.1058489,7.5818556,8.3365225,11.6050763,12.9438147,8.2753777,6.2791515,14.2968095,13.1056851,24.3165895,17.0073861,7.223352,4.7264008,14.5242662,2.4445887,20.1936794,2.875695,2.0548695.1562537,3.8954106.6689004,5.4402473,2.0008057,2.1714361,1.8721379,2.7456401,4.077407,4.5356163,11.7577614,9.1756985,39.3706982,66.9393331,61.670391,103.2724197,39.5690296.3222402-.1960182,1.6792256-1.0362515,2.0160611-.8627999,16.1622747,8.3226755,33.1178181,14.3954901,53.3593234,8.3190609,31.3576605-9.4134602,44.2087265-24.6749642,53.0723974-45.5751569,1.5757949-3.7156634,3.1974524-9.9114835,5.314122-12.2785393,2.4523893-2.7424887,6.2034423-3.7341283,9.8566106-5.8463229,10.5805736-6.1174928,23.185656-12.3711819,44.3987668-13.9359141,4.22945-.9600703,25.1250512,7.8859419,18.1543242-.9515097ZM239.1772301,19.5518817c-6.5685757,3.9014426-10.6896434,16.0628163-19.2480506,12.2745325,1.9267441-4.0723989,3.9519137-7.9267902,4.851566-12.4122282,3.5686345.4366563,9.4920323,1.6243813,14.3964846.1376957Zm-21.1738281-14.5341797c7.6800207-4.9673619,11.8504296,5.313235,15.8147114,10.8937713-11.8171391,1.3268352-10.7195601-.9963033-15.8147114-10.8937713Zm-11.9746094,4.8730469c5.0720437-12.7887503,10.8155302,2.3884972,15.5435646,7.3997954.8044589,4.7363166-3.4957803,9.691976-4.820888,14.3084167-10.5339349.9783214-19.233725-14.1917364-10.7226766-21.7082121Zm-14.8251953,5.2685547c5.166756-3.4553245,7.2820825-14.5026674,13.5090148-9.370105-4.1274228,5.0561033-4.5484775,13.3629697-12.03603,10.0435129-.8391414-.1239018-3.0847903.5563052-1.4729849-.6734079Zm3.4921875,13.9501953c-8.3154736-10.1638889-11.0347649-7.3957121,2.9080333-10.0198315-.0008068-.0006763,7.0480213,12.1946362,7.0480213,12.1946362-3.7097718,1.5203952-7.8534107,1.6191265-9.9560547-2.1748047Zm-12.0429688,15.8359375c25.7774154-10.6585336,66.1321887-8.4738889,82.1016106,16.8335299,4.1364245,6.5551669,20.3117001,23.7771294,4.3452166,26.9484197-.5427743.1078068-1.1211763.2012749-1.7367867.279627-.2511615-.4015012-.5028783-.8023087-.7552314-1.2023002-13.9344045-22.0866861-29.8090469-41.6855288-61.2848974-38.2171508-8.7683143,1.8359415-19.0692246,4.083598-22.6699117-4.6421256Zm18.8881991,18.1858696c-1.7681795-2.176235-2.7357489-3.390916-5.2482928-5.8728191-.2410094-.2380703-.7914975-1.0936336-1.1338953-1.2184358,5.8195651-3.4321841,15.1696927-1.5638957,22.9730814-.6537604,19.3363941,2.2552683,33.3854762,14.6995592,40.739888,32.1469267,3.2304668,4.1034773-1.4792045,4.0460929-5.0974163,4.2541115-11.6301354-.798873-19.0169429-14.166928-31.468992-13.9127185-10.5723205-.628105-12.5858803.2872458-15.2742623-5.653069-1.4658191-3.2389099-3.2482618-6.3310189-5.4901108-9.0902355Zm-135.0727694,54.3317085c-23.8220702,8.3040757-39.7729348-15.5411939-58.9017373-22.9837288,6.4894667-8.0466278,36.144795,9.2723236,20.6087123-5.965123-8.5120208-6.3399843-11.9583421-21.9022403-7.3135559-30.3527726,5.7874131,27.0908153,35.9044076,35.8323966,60.0242556,27.5593072,83.5404864-24.2275002,18.1419273,15.9348542,50.2795966,20.3537788,24.4363918-6.6573771,67.42864-50.154171,64.6870803,2.2220561-.5625879,3.1630769.9408622,3.6176273-4.1633809,4.1242873-21.1567475,2.1000722-40.7044904,11.8736577-60.3504032,19.6855037-9.7648621,5.7943705-22.6516891-1.9987686-28.4267499-10.4024074,4.5667991-23.0528261-24.8515283-6.1104751-36.4438175-4.2409013Zm106.4560547-54.1689453c-14.2051136,8.9828864-14.3297369,31.2566321-32.8204149,34.2167491,3.4198383-16.005915,14.9840119-48.8356275,32.8204149-34.2167491Zm2.2900391,3.578125c3.733916-1.5260335,6.3367094,5.8398847,9.1261547,7.9152104,5.579968,4.0035802-.6565598,4.4294661-4.4654498,5.2512617-5.072463,1.900983-10.3887653,2.6671875-15.6491227,3.4120763,2.7336841-6.0326967,5.3056296-12.7560852,10.9884178-16.5785485Zm-21.2861328-8.4472656c-9.9984303,11.0014166-16.4868087,25.7525358-17.957675,40.4627556-1.1140355,4.3101397-9.1974652,3.9059807-11.7870596.0762431,6.193865-6.4903817,8.2162575-21.385999-1.5636018-25.0391071-7.5595427-3.4152399-18.1742752,3.8424917-25.3100068,2.1404734,13.6277734-15.3278145,32.8229029-25.7024219,53.8737727-20.0067675,1.829176.6669062,5.2915201.2454755,2.7445705,2.3664025Zm-54.8349609,66.1582031c30.9490998,36.0124302,37.6396662-7.8345905,49.2494937,19.0846243,1.6323214,4.764555,16.9236402,14.6151373,8.9510455,15.8312872-42.553676,20.9864541-90.5153968-46.788736-59.8804004-44.7435512,4.8196639-.1983725-2.0052426,6.5492248,1.6798613,9.8276396Zm59.8408203,24.6474609c-4.7774745-5.1708177-9.2000886-10.6859987-11.6515092-17.9813753,7.95526-2.4476118,10.8402922-6.4255169,15.0333008,2.8470679,3.659054,5.5692524,8.9903802,9.5129364,13.9356794,13.8627312-6.6248306,8.1701675-10.1421895,11.2062816-17.317471,1.2715762Zm17.2998047-7.2158203c-13.4422961-10.1514539-18.2827571-20.0572431,2.1806191-23.5218131,3.8421687.0452507,17.287115-4.9577203,16.3301416-.1037308-2.1687988,8.0300315-8.3660568,31.0277772-18.5107606,23.625544Zm-.8300781,27.0712891c-34.4352806,22.9066618-86.6585806,5.5190349-99.8714233-33.4758299-3.3407189-12.8139394-11.2935183-13.9299582,5.6605468-17.7399087,4.3688039,48.3670841,70.979712,65.9937335,102.0577047,31.1502453C242.7233607,79.6534612,135.839104,6.1893611,87.4891753,79.6830952c-23.4590539,9.3553998.7470635-21.0940603,8.2615654-26.9183051,10.8400268-10.3321658,24.1540783-14.2639762,38.7950364-15.8792496,3.0420568-.3356169,5.8072118-.1734121,8.6361435-.1713591,2.4562332.0017825,6.4016227.9596754,8.8339106,1.3018168,2.477818.348546,4.9868127.6548297,7.1970793,1.4384445,56.8925756,20.1703563,78.2667345,95.7855446,16.1908822,129.6316188Zm76.8723244-22.5731516c-4.6096278,5.224795-10.3305421,9.4041096-16.8240152,11.9303634-10.1037916,3.9308305-22.127804,5.7952999-32.7857131,3.2380489-.4042516-.0969958-2.02665-.7424701-1.6491941-.5779425-1.304384-.5685622-2.6644457-1.6721167-2.3932724-1.8923176,9.3395226-7.5839732,18.0941774-25.4438457,17.9086978-40.4165416,31.2817406,21.1309851,59.4467588.8518637,35.743497,27.7183894Zm27.0534568-16.3487234c-10.2165172,37.7102164-65.9265034,64.8656693-95.7984037,40.2430674,9.0083645-12.0622144,20.9023482-1.2745373,32.8921511-3.2639521,18.9738448-1.5659963,35.9893186-8.7004754,45.6533831-25.6481716,3.5229984-2.959696,3.7454657-9.6407166,7.6393002-11.3896649,2.5084949.1344562,9.5555834-3.3962692,9.6135693.0587212Zm72.3798828-26.6875c-35.9843153-12.8548478-65.4972117,31.3688859-102.3214141,22.0873589-11.8555551.6790885-21.6478313-8.8411124-32.255778-10.8539951.2876736-4.2258431-.0853227-7.4235784-.2047814-11.9755564-.2872892-10.9471648-4.1037702-16.873031-4.5191298-21.3807695,9.0286155.0116116,18.2871334.6580717,25.5322402,6.8130269,22.8304309,17.4060105,42.3064811-3.0652871,63.9472746-13.9207801,6.7801011-3.4010463,12.9347564-5.3910632,20.3095617-5.4438113,7.5056672-.0536841,16.2451693,1.9159883,24.7215674,8.3830374.2236487.1706323.4476975.3440702.6721498.5203421-.292656.1822852-.5817201.4823909-.9018621.4238046-4.8524691-.888007-7.3651266-1.8371531-13.5712019-1.3129949-4.9096849.4146665-26.6150687,5.9880051-17.8198697,12.0394832,13.3490037.874259,31.0057368,1.6835201,38.5169426,14.6168818,1.5191264,2.1820262-1.5184034-.1830495-2.1056994.0039726Z" stroke-width="0"/>
      <path d="m150.4789879,115.9268817c2.4900065,8.7184477,3.5635047-4.5396581,3.7691506-7.3083849.5541579-.1758244,1.0134876-.1521884,1.2024304.4716548,2.3629682,4.6144768,5.0960403-1.040524,6.3723387-3.6690383,2.128025-3.3742857.1749098,18.5997533,3.9643176,6.7937545.2977157-14.411411.9671949-22.2659646-8.6206744-6.0255771-5.7794922-15.6748635-6.8000007,2.8157064-6.6875629,9.737591Z" stroke-width="0"/>
      <path d="m84.8168786,99.4971942c.8347541-1.9680752,3.0981647-9.5254186-.7555668-8.9119531-.6451207,2.275818-6.4525354,19.1831041-7.0412964,11.2807265,1.2254511-5.010828-1.1636829-15.6061767-4.1193383-5.5953196-3.0705442,13.2437295,8.3671617,15.9570061,11.9162015,3.2265462Z" stroke-width="0"/>
      <path d="m177.7592614,108.0919208c2.633463,1.0903041,2.5414458-3.691563,3.4934779-5.2212892,1.7259907-.4319985,3.4990008-.8576849,4.2094622-2.7730735.7346991,2.225413,1.9631141,7.0886201,1.6984271,9.3371362,7.0997658-2.6777118-6.2675753-43.6424126-9.4013672-1.3427734Zm4.5888672-15.5683594c1.7151956-1.0863141,1.9784637,5.0255776,2.4526149,5.5969546-6.101005,4.7460173-1.3876785-3.4866365-2.4526149-5.5969546Z" stroke-width="0"/>
      <path d="m95.3451989,102.4571552c1.0311228,6.9577106,15.5059424,4.4560521,12.7363176-2.9830226-.0324124-.0870581-.1343177-.5848231-.2884462-.8339679-.4410587-.7129601-.4078035-.7394989-1.0044366-1.210829-.0755846-.0597106-.584053-.5188227-1.0192751-.7236731-5.7082642-2.6867666-.7120916-7.9415385,3.8613968-7.0162268.3840592,1.0995509.9969438,2.3941559,2.5709236,1.9396378.1049337-.0303017.2214816-.0533946.3278331-.1148036.0428691-.0247533.0828065-.0470437.1201787-.0674656.6987318-.3818202.9917263-1.2983898.6545995-2.0197484-2.5032111-5.3561842-12.4385634-1.781904-13.3322878,4.6653091-.0691839,3.9080035,11.3300108,7.2042881,2.9257877,9.1380223-2.5175179,1.8361837-8.0228835-4.4777105-7.5525915-.7732322Z" stroke-width="0"/>
      <path d="m56.878402,93.392702c-6.7843583,1.0821919,1.23071,22.8212324-13.0545186,13.2541186-4.0809598,5.2904139,8.9429718,9.3351542,11.4300847,3.2364309,1.8452674-4.7170858,4.0623499-12.2216976,1.6244339-16.4905496Z" stroke-width="0"/>
      <path d="m118.2817223,111.4473895c3.8929547,2.9219558-6.1072198,10.6915912-2.8269446,13.8925588,4.79511-.4392689,4.3711554-9.7057562,7.3357992-11.5468207,1.9029599.8510337,5.4553368,3.5313319,6.738346.6281112-1.550731-3.8657461-19.6979113-10.1686349-11.2472006-2.9738494Z" stroke-width="0"/>
      <path d="m236.7105599,113.741958c-6.8889502-7.6338283-4.7580803-7.5011763-1.8183181-16.434307.4631722-4.2251928-6.4451861-8.2125453-8.5401396-5.3582796-3.3187656,4.5216465-2.7012448,11.7471175-3.9562524,17.2478067,1.8990228,5.6512677,2.956793-2.4682523,4.6634713-3.6983817,1.6840932,2.5069404,8.554812,14.6421651,9.6512389,8.2431616Zm-5.9121094-12.7304688s-1.0553734,1.3113239-2.3173828,1.0673828c-2.9681409-.5737291-1.0535427-4.8122078-.7213164-6.5833078.5703681-3.0406358,5.9558515,2.9759879,3.0386992,5.515925Z" stroke-width="0"/>
      <path d="m297.3022301,92.1700458c-1.5996335-4.5603281-9.4353444-4.09272-10.8344367.0829655.5415972,6.0759262,3.8976989,11.3936963,3.0648249,16.9197991,5.9932121,3.7822844,11.3065073-12.696124,7.7696118-17.0027646Zm-2.9345703,9.3486328c-2.8413649,5.8106074-2.6182094-4.3567876-3.6538351-7.0301223,2.3271676-6.1643888,6.7817811,4.1859689,3.6538351,7.0301223Z" stroke-width="0"/>
      <path d="m277.5698083,95.9405536c-.5545639-2.3599856-12.7919656,1.2530817-12.8103325,3.278627-.140434,7.7281718,2.618163,25.6958204,12.0993115,12.9017602-4.1488104-1.3950201-8.672062,5.0412064-8.2603287-4.0954446,5.8528385-1.8839387,7.1152563-5.0100417-.3566685-3.6455213-3.5331315-6.52857,10.2456442-4.3995343,9.3280182-8.4394213Z" stroke-width="0"/>
      <path d="m252.1674645,113.7296161c-2.2425294-3.8372305.3710023-12.0389108-3.784308-13.8230846-3.3420451,3.2117524,3.6309671,24.425848,3.784308,13.8230846Z" stroke-width="0"/>
      <path d="m204.2094567,19.2032489c3.6976932,1.4005583,10.3123812.8133905,12.6802925-1.880727.2208711-4.4411919-15.9837652-4.0489366-12.6802925,1.880727Z" stroke-width="0"/>
    </g>
  </g>
</svg>