<?xml version="1.0" encoding="UTF-8"?>
<svg id="b" data-name="Layer 2" xmlns="http://www.w3.org/2000/svg" width="42.44" height="49.928" viewBox="0 0 4.244 4.993">
  <g id="c" data-name="Layer 1">
    <path d="m.435,2.344c.345.735.851,1.368,1.339,1.979.089.111.162.257.205.407.037.132.089.214.154.246.062.028.147.02.255-.026.142-.061.278-.148.385-.247,1.119-1.041,1.604-2.327,1.44-3.825-.022-.204-.113-.436-.25-.634-.106-.153-.247-.24-.396-.244h-.011c-.154,0-.304.085-.424.241h0c-.096.125-.176.262-.269.419-.045.076-.092.156-.144.239l-.058.093-.087-.065c-.069-.052-.131-.102-.189-.147-.118-.094-.22-.174-.328-.238l-.112-.066c-.224-.135-.457-.273-.697-.356-.137-.047-.271-.07-.398-.07C.633.048.438.114.286.246.048.451-.048.785.023,1.162c.084.449.276.89.412,1.182Zm.088-1.951c.153-.153.409-.184.716-.086.257.081.489.231.713.377.109.071.203.157.294.241.055.051.109.102.167.147.217.176.401.187.596.036.042-.033.088-.061.148-.097.033-.02.069-.042.113-.07l.165-.104-.012.195c-.067,1.076-.417,2.043-1.102,3.044l-.075.109-.084-.103c-.031-.038-.061-.072-.088-.104-.061-.07-.113-.132-.157-.202l-.233-.368c-.287-.454-.583-.923-.857-1.396-.17-.293-.304-.604-.4-.921-.091-.302-.057-.551.095-.7Z" fill="#728e0c" stroke-width="0"/>
  </g>
</svg>