<?xml version="1.0" encoding="UTF-8"?>
<svg id="Layer_2" data-name="Layer 2" xmlns="http://www.w3.org/2000/svg" viewBox="0 0 155.9012933 120.353701">
  <g id="Layer_1-2" data-name="Layer 1">
    <g>
      <path d="m154.8831774,19.9852834c-.28125-.0290527-.5693359.0019531-.8535156-.0065918-2.3701172-.0710449-4.3066406-.9536133-5.3623047-3.1696777-.5507812-1.1552734-.9433594-2.402832-1.2695312-3.6447754-.6972656-2.6501465-1.9912109-4.8945312-4.1621094-6.5974121-2.671875-2.0952148-5.6367188-3.6220703-8.90625-4.5419922-2.8222656-.7939453-5.6708984-1.0100098-8.5507812-.3081055-4.3105469,1.0505371-7.2910156,3.7648926-9.3974609,7.5480957-1.2880859,2.3139648-2.0585938,4.8383789-2.8798828,7.3398438-.5537109,1.6865234-.9208984,3.3967285-.7578125,5.1884766.0195312.2104492-.0048828.4470215-.0839844.6411133-.8759766,2.1569824-1.6767578,4.3508301-2.6777344,6.4489746-1.09375,2.2932129-2.8212891,4.0761719-5.0849609,5.2758789-1.0644531.5646973-2.1708984,1.0556641-3.2763672,1.5383301-1.3056641.5700684-2.6835938.7375488-4.0908203.5402832-3.2636719-.4580078-6.3994141-1.3344727-9.2724609-3.0004883-4.3671875-2.5332031-8.7802734-4.9719238-13.3349609-7.1630859-7.4248047-3.5725098-15.2138672-5.1054688-23.4355469-4.5102539-2.3232422.1682129-4.5957031.5400391-6.8115234,1.2426758-3.4042969,1.079834-6.8349609,2.0876465-10.1953125,3.2919922-5.9736328,2.140625-12.0605469,2.5427246-18.2363281,1.3037109-3.0019531-.6022949-5.9375-1.5361328-8.9023438-2.3217773-.0576172-.0153809-.109375-.0534668-.1777344-.0881348.0410156-.0324707.0517578-.048584.0634766-.0490723.1669922-.0065918.3349609-.0180664.5019531-.0151367,1.59375.0292969,2.8496094-.6357422,3.8369141-1.8586426.3759766-.4665527.3476562-.7390137-.1230469-1.0981445-.9882812-.7541504-2.0712891-1.2929688-3.3105469-1.5021973-.5439453-.092041-1.0869141-.2099609-1.6210938-.3505859-.9677734-.2548828-1.5488281-.8859863-1.7480469-1.871582-.4189453-2.0744629.1660156-3.90625,1.4775391-5.4848633.5322266-.6401367,1.2900391-1.0976562,1.9697266-1.6047363.109375-.0820312.4042969-.0583496.5224609.0339355,1.0712891.8388672,1.6982422.9008789,2.890625.2487793,3.96875-2.1708984,8.1669922-2.9750977,12.6328125-2.0510254,2.4130859.4992676,4.8046875,1.105957,7.2226562,1.5803223,3.1552734.6188965,6.3398438.9133301,9.5566406.5559082,2.2275391-.2475586,4.3681641-.8730469,6.515625-1.4821777,3.0800781-.8737793,6.1806641-1.661377,9.0996094-3.0397949,4.0087891-1.8933105,8.2714844-2.5454102,12.6816406-2.3984375,3.6015625.119873,6.8212891,1.3105469,9.7392578,3.3791504,2.0849609,1.4780273,3.7988281,3.3374023,5.4121094,5.298584,1.5410156,1.873291,2.9550781,3.8234863,3.7773438,6.1381836.5332031,1.5007324,1.0507812,3.0073242,1.6103516,4.4985352.3525391.9396973.7226562,1.878418,1.1669922,2.7773438.8154297,1.6486816,1.9716797,3.0283203,3.46875,4.1132812,2.0429688,1.480957,4.3535156,1.8295898,6.7949219,1.6074219,2.2617188-.2055664,4.2119141-1.050293,5.7011719-2.824707.3759766-.4487305.7734375-.8806152,1.1494141-1.3303223.1279297-.1525879.2177734-.3366699.3251953-.5061035l-.0966797-.168457c-.3486328.0505371-.7275391.0317383-1.0371094.1687012-.4384766.1931152-.84375.4780273-1.2324219.763916-4.0849609,3-9.8271484.940918-11.1123047-3.4677734-.2158203-.7404785-.4423828-1.4780273-.6738281-2.213623-.8769531-2.7854004-1.7451172-5.5895996-3.2207031-8.1208496-1.9560547-3.3540039-4.4570312-6.2958984-7.3671875-8.8630371C79.6214586,2.2250295,74.8489977.1796193,69.3089586.0162892c-5.1660156-.1523438-10.1025391.7602539-14.8271484,2.8913574-1.5986328.7207031-3.2802734,1.2700195-4.9511719,1.8115234-1.5625.5058594-3.1689453.871582-4.7421875,1.3449707-3.0615234.9211426-6.1777344,1.3149414-9.3457031.8417969-2.4179688-.361084-4.8232422-.828125-7.2119141-1.3500977-2.3125-.5053711-4.6113281-1.0563965-6.9902344-1.1247559-3.2714844-.0942383-6.3964844.578125-9.4169922,1.8051758-.2509766.1018066-.5771484.2070312-.8095703.1313477-1.3720703-.4445801-2.6826172-.2539062-3.9785156.2687988C2.5892321,8.4298635-.2984632,13.0499806.071654,17.8356252c.2089844,2.6921387,1.3007812,4.8701172,3.7958984,6.171875.0625.0327148.1083984.097168.2353516.2141113-.2158203,0-.3320312-.0039062-.4472656.0007324-1.0351562.0402832-1.7832031.5576172-2.0888672,1.4433594-.3076172.8945312-.0234375,1.9262695.7822266,2.5168457.3964844.2910156.8701172.510498,1.3417969.6586914.9902344.3115234,2.0019531.5593262,3.0068359.8249512,2.8359375.7495117,5.6435547,1.6445312,8.5166016,2.2104492,5.8105469,1.1447754,11.6445312,1.2336426,17.3876953-.442627,3.7822266-1.1037598,7.5341797-2.3139648,11.2695312-3.5678711,3.1396484-1.0537109,6.3144531-1.6982422,9.6445312-1.8041992,5.9882812-.1904297,11.7148438.8227539,17.2177734,3.1784668,4.7900391,2.050293,9.3740234,4.5048828,13.828125,7.1865234,3.2070312,1.9304199,6.6191406,3.2355957,10.2490234,4.0236816,2.0791016.4511719,4.1992188.7321777,6.2841797.1779785,5.8769531-1.5622559,10.2939453-4.9667969,12.7304688-10.628418,1.6923828-3.9326172,2.640625-8.0852051,3.1816406-12.329834.0400391-.3134766.0556641-.6542969.1933594-.927002.9853516-1.9619141,1.8847656-3.9799805,3.0302734-5.8469238,2.3388672-3.8149414,5.90625-5.3193359,10.2792969-4.9377441,3.0722656.2680664,5.8046875,1.529541,8.4082031,3.1325684,2.2011719,1.3547363,3.6640625,3.1762695,4.1708984,5.7583008.375,1.9121094,1.2958984,3.5861816,2.5410156,5.0788574,2.2109375,2.6496582,5.7431641,3.7009277,8.7412109,2.5844727.4013672-.1491699.7890625-.3757324,1.1279297-.6369629.3525391-.2719727.4863281-.6806641.3486328-1.1303711-.1445312-.4697266-.4921875-.7119141-.9648438-.7602539Z" stroke-width="0"/>
      <path d="m147.4046618,38.357842c-.6962891-1.9543457-1.1796875-3.9526367-1.2998047-6.027832-.0927734-1.5949707-.1455078-3.1918945.5693359-4.6877441.5908203-1.2382812.2558594-2.5402832-.8349609-3.1599121-1.1025391-.626709-2.4824219-.2661133-3.1816406.9057617-.3125.5239258-.5380859,1.1208496-.6962891,1.7133789-.7021484,2.6291504-.5537109,5.2836914-.1611328,7.9401855.3369141,2.2722168,1.1367188,4.4116211,1.8779297,6.5681152.90625,2.6367188,1.6904297,5.3071289,2.0908203,8.0727539.4707031,3.2546387.3046875,6.5253906.1298828,9.7883301-.0976562,1.8112793-.4462891,3.5895996-1.1591797,5.2824707-.1035156.244873-.0029297.5756836.0029297.8664551.0029297.1574707.0576172.3371582.0009766.4689941-1.4570312,3.3879395-2.8320312,6.8215332-4.7832031,9.9665527-2.2558594,3.6345215-4.6445312,7.1791992-7.3291016,10.5197754-1.9179688,2.3859863-3.9306641,4.6791992-6.3271484,6.5922852-2.9726562,2.373291-6.4228516,3.8679199-9.9453125,5.2009277-3.0761719,1.1638184-6.3125,1.6835938-9.5214844,2.3081055-3.9121094.7612305-7.8466797,1.3054199-11.84375,1.0734863-6.7226562-.3896484-13.3320312-1.4648438-19.7832031-3.4199219-4.3652344-1.322998-8.7285156-2.6464844-13.1894531-3.6220703-4.9423828-1.0808105-9.9160156-1.8974609-15.3349609-1.8305664-3.4521484-.0302734-7.2021484.293457-10.8730469,1.2885742-2.8525391.7729492-5.5839844,1.8076172-7.9072266,3.713623-2.3486328,1.9267578-4.171875,4.3037109-5.8261719,6.8195801-.2675781.4077148-.4375.9130859-.5283203,1.3964844-.1767578.9428711.3037109,1.861084,1.1044922,2.2939453.8144531.440918,1.7871094.3188477,2.515625-.3522949.2675781-.2475586.4951172-.5454102.7138672-.840332.6083984-.8215332,1.2060547-1.6520996,1.8037109-2.4819336,2.2724609-3.1547852,5.3251953-5.0974121,9.0830078-6.0754395,4.2578125-1.1081543,8.5751953-1.3098145,12.9306641-1.1176758,4.9169922.2167969,9.7177734,1.1872559,14.4609375,2.4294434,3.5185547.9213867,7.0048828,1.9667969,10.4951172,2.9956055,6.1572266,1.8156738,12.4560547,2.817627,18.8417969,3.3200684,4.9238281.3874512,9.7646484-.2602539,14.6015625-1.1391602,5.3251953-.9680176,10.4882812-2.3664551,15.3525391-4.8059082,4.2236328-2.1181641,7.8798828-4.8937988,10.7011719-8.713623.9863281-1.3352051,1.9882812-2.6604004,2.9326172-4.0251465,2.5595703-3.6992188,5.0195312-7.4724121,6.8554688-11.5871582,2.7333984-6.1228027,4.6269531-12.5366211,6.2548828-19.0302734.7041016-2.8088379.4726562-5.628418.0283203-8.442627-.5527344-3.4953613-1.6386719-6.8447266-2.8222656-10.1652832Z" stroke-width="0"/>
      <path d="m15.4320055,51.8803029c.3994141-.0310059.5693359.0571289.7431641.4375.6123047,1.3398438,1.2080078,2.6970215,1.9521484,3.9643555,4.2421875,7.2216797,12.1748047,8.9763184,17.6630859,7.5161133.1308594-.034668.3974609.0791016.4560547.1958008,1.1064453,2.2104492,2.7001953,4.0263672,4.5107422,5.6772461,2.5195312,2.2966309,5.5390625,3.6789551,8.6933594,4.831543,2.7998047,1.0234375,5.6777344,1.4807129,8.6494141,1.1408691,2.2158203-.253418,4.4287109-.5405273,6.6308594-.8862305.6054688-.0952148,1.2353516-.3615723,1.7392578-.7131348.9023438-.6291504,1.0302734-1.6628418.3134766-2.4960938-.3652344-.4243164-.8886719-.8232422-1.4150391-.9709473-.7226562-.203125-1.5224609-.2529297-2.2773438-.1967773-1.234375.092041-2.4658203.2854004-3.6865234.5012207-3.3193359.5859375-6.5117188.2167969-9.5917969-1.1567383-1.6230469-.723877-3.2558594-1.4267578-4.890625-2.1264648-1.8076172-.7736816-3.4179688-1.8537598-4.8798828-3.1533203-.5957031-.5290527-1.1210938-1.1362305-1.6669922-1.6967773.8955078-.6313477,1.7119141-1.1591797,2.46875-1.7612305.3701172-.2949219.6767578-.699707.9287109-1.1064453.2978516-.4824219.1767578-.7460938-.3808594-.7805176-1.1152344-.0688477-2.2421875-.1467285-3.3525391-.0627441-1.6523438.125-3.2910156.4260254-4.9423828.581543-2.4785156.2329102-4.7841797-.4152832-7-1.4799805-3.1982422-1.5371094-5.8583984-3.6928711-7.8037109-6.6904297-.1962891-.3032227-.2666016-.5185547.0439453-.8127441.4355469-.4128418.5966797-.9743652.5361328-1.5649414-.0175781-.1691895-.1962891-.4169922-.3496094-.4606934-.7070312-.2016602-1.4228516-.4055176-2.1494141-.4975586-3.3173828-.4199219-6.4140625-1.5068359-9.4091797-2.9580078-2.2089844-1.0703125-3.5917969-2.7402344-4.0791016-5.1540527-.7275391-3.6003418-.3564453-6.9702148,2.0234375-9.9372559.0830078-.1025391.1669922-.3234863.1181641-.385498-.0878906-.111084-.3017578-.2285156-.4169922-.1931152-.3759766.1162109-.78125.2355957-1.0869141.4697266-1.1425781.876709-1.9560547,2.0178223-2.4667969,3.3632812C.4261461,34.9755177.033568,36.685967.0032946,38.4667287c-.0488281,2.8051758.4326172,5.4995117,2.28125,7.6970215,3.4150391,4.0603027,7.7587891,6.1347656,13.1474609,5.7165527Z" stroke-width="0"/>
      <path d="m16.4534899,91.0101857c3.5429688-4.0107422,8.0302734-6.4614258,13.1503906-7.8359375.2724609-.0732422.5625-.0849609.8447266-.1162109.6933594-.0771484,1.2480469.1772461,1.6708984.7236328.2363281.3046875.4521484.625.6943359.9243164.2988281.3686523.6533203.3977051,1.0029297.1047363,2.1796875-1.8239746,1.7158203-4.8649902-.90625-5.9465332-1.0371094-.4274902-2.1220703-.5031738-3.2138672-.3491211-2.6376953.3723145-5.0771484,1.3469238-7.4453125,2.5224609-3.4257812,1.7004395-6.5371094,3.8251953-9.0722656,6.7248535-1.03125,1.1789551-1.9433594,2.4396973-2.5693359,3.8867188-.3564453.8249512-.5908203,1.6765137-.4951172,2.5888672.1542969,1.4790039,1.3925781,2.6530762,2.7197266,2.4770508,1.2236328-.1621094,2.1220703-.9416504,2.9082031-1.8344727.2275391-.2585449.1416016-.5429688-.1865234-.6960449-.2558594-.1191406-.5234375-.2138672-.8613281-.3503418.09375-.2387695.1416016-.4572754.2568359-.6320801.4853516-.7412109.9199219-1.5327148,1.5019531-2.1918945Z" stroke-width="0"/>
      <path d="m47.8968493,35.2521291c-.4560547.1967773-.9042969.4597168-1.2792969.7819824-2.4189453,2.0786133-5.1572266,3.675293-7.9111328,5.2397461-1.9355469,1.0996094-3.9794922,2.0395508-6.2392578,2.09375-3.0292969.0725098-6.0644531-.0048828-9.0947266-.0878906-.90625-.0249023-1.8164062-.1928711-2.6386719-.7006836-.6113281-.3769531-1.3798828.1188965-1.4619141.8669434-.0615234.5632324.1386719,1.072998.5683594,1.3847656.7939453.5759277,1.5957031,1.1994629,2.4902344,1.565918,2.7421875,1.1230469,5.6318359,1.5998535,7.78125,1.6477051,3.0966797.0102539,5.3251953-.3286133,7.453125-1.1828613,3.9677734-1.5927734,7.5-3.935791,10.9384766-6.4311523.7246094-.5258789,1.2939453-1.2160645,1.6591797-2.0512695.3017578-.6877441.375-1.3859863.09375-2.1008301-.4101562-1.0405273-1.3378906-1.4680176-2.359375-1.026123Z" stroke-width="0"/>
      <path d="m23.2796618,113.8905568c-.9150391-.2128906-1.78125.1096191-2.6230469.4841309-.9179688.4082031-1.8339844.8356934-2.7871094,1.1433105-.5908203.190918-1.2607422.2946777-1.8740234.2297363-3.1142578-.3293457-5.2587891-3.0554199-4.9169922-6.1782227.0673828-.6162109.1328125-1.2375488.2705078-1.8400879.1796875-.7844238.4316406-1.5524902.6523438-2.3273926.0498047.0085449.0996094.0170898.1503906.0256348.0488281.1228027.0986328.2456055.1494141.3708496.0498047-.0251465.0742188-.0297852.0771484-.0407715.0146484-.046875.0273438-.0952148.03125-.1435547.1201172-1.3852539.6298828-2.5717773,1.7402344-3.4621582.3710938-.2976074.4091797-.7648926.0996094-1.1643066-.3486328-.4506836-.8300781-.6625977-1.3916016-.7023926-.8730469-.0620117-1.5605469.3574219-2.1748047.8945312-2.1699219,1.8999023-3.5332031,4.2768555-4.0498047,7.1142578-1.1083984,6.0861816,3.1308594,11.6706543,9.2685547,12.0405273,3.1630859.1906738,5.9257812-1.0654297,8.3417969-3.0678711.2988281-.2473145.5205078-.6157227.703125-.9672852.3076172-.5935059.2558594-1.2321777-.2392578-1.666748-.3935547-.3464355-.9179688-.6235352-1.4277344-.7421875Z" stroke-width="0"/>
      <path d="m49.0345446,54.3546681c-.2021484.3879395-.0976562.8903809.375,1.2453613.5166016.3876953,1.0791016.7475586,1.6738281.9902344,2.1875.892334,4.4951172,1.1711426,6.4667969,1.220459,3.7841797.0273438,6.9716797-.9104004,10.0068359-2.3654785,2.6894531-1.2890625,5.3203125-2.6994629,7.9726562-4.0649414.265625-.1367188.5205078-.3110352.7470703-.5053711.8125-.6936035,1.0839844-1.7084961.7128906-2.5791016-.3613281-.8500977-1.265625-1.3967285-2.3046875-1.2539062-.6181641.0849609-1.2392578.300293-1.8046875.5695801-1.1650391.5544434-2.3027344,1.1674805-3.4345703,1.786377-3.296875,1.8015137-6.7128906,3.2561035-10.4296875,3.9848633-2.9335938.5751953-5.8740234.7929688-8.8486328.5737305-.4580078-.0336914-.8828125-.081543-1.1328125.3981934Z" stroke-width="0"/>
      <path d="m126.7093493,17.9008107c.5351562,1.0117188,1.1347656,1.4343262,2.0429688,1.2458496,1.6845703-.3493652,2.9482422-1.3120117,3.5478516-2.9440918.6074219-1.6494141-.6621094-3.1152344-2.3896484-2.7824707-1.7519531.3376465-3.0615234,1.2419434-3.4804688,3.1088867-.0625.2773438-.1464844.5495605-.2128906.8259277-.1269531.5358887-.0507812.6181641.4921875.5458984Z" stroke-width="0"/>
    </g>
  </g>
</svg>