<?xml version="1.0" encoding="UTF-8"?>
<svg id="Layer_2" data-name="Layer 2" xmlns="http://www.w3.org/2000/svg" viewBox="0 0 220.0506957 165.6345523">
  <g id="Layer_1-2" data-name="Layer 1">
    <g>
      <path d="m220.0506957,99.3562865c-1.4077755-33.5082315-24.5379403-62.7646319-58.4628906-67.3286133h0c.2372955-.2602858.4607877-.5585206.753049-.8041491,7.7822375-6.5405134,24.3736347-21.0667403,12.6621831-29.2428399-8.3669729-5.8412233-13.7692734,2.6795218-19.6064118,6.9909644-.6458005.4770028-1.5582725.3880187-2.0898786-.2136331-12.1233156-13.7207147-25.6569313-8.4111215-22.6983689,3.0273254,1.4450168,5.5867499,7.7788357,12.2731607,18.288021,19.618797-13.5583404,1.9824028-24.9494719,7.9157275-36.120855,15.2259515l-.8838855.5783886s-.6349362-.76374-1.149555-1.1309808c-1.3765973-.9823634-1.5799568-1.7225838-4.3075615-3.3653458-.468946-.2824334-2.3946971-1.2705551-2.8897019-1.5324177-9.0816838-4.8043037-16.761163-6.6788261-24.0253943-9.0158303,7.8349778-7.3526622,18.8070373-12.3995852,6.96144-22.5874129-3.4474465-6.4239272-8.3082431-9.7817858-15.6965555-8.1459195-5.4691232,1.0754799-10.5612844-1.8584746-15.9533701-.4228942-7.1547933-.4993582-11.0764034,10.0467786-15.5401415,14.9546633-1.5026929,1.4813578.0383508,2.5439915.9769162,3.7886062-.9577341,4.7315335,5.798398,8.798516,8.9370119,11.6664725C13.5495968,42.0225253-9.5813189,85.7050218,3.8787185,120.9075665c14.0553164,37.2923333,53.3783322,56.1796018,100.3671894,29.9301811.4908347-.2741954,3.7029684-2.7664629,3.7029684-2.7664629,0,0,.6033699.5402333.9069228.8053292,43.0642903,37.608481,110.9748428,7.9420406,111.1948967-49.5203274ZM142.9705076,20.7675626c-3.2492819-2.698056-7.7530488-7.7657777-7.6858185-11.1120268.0855808-4.2596103,3.2892613-7.0985895,9.814304-1.9851419,2.9167744,2.285774,4.5291532,4.8997241,7.0307936,7.0215991,1.3586313,1.1523821,3.5387497,1.0895111,4.7956267-.173075,4.2133236-4.2324619,8.2992837-11.9129337,14.4195168-8.7088159.7419378.3884258,1.3482984,1.0330482,1.6528694,1.8131655,2.0704083,5.3030704-3.3652574,10.9993898-7.2103334,14.5149196-1.4926966,1.3647635-3.7229826,3.4873508-5.2781526,4.806889-7.3579239,6.243087-11.5300695-1.5407211-17.538806-6.1775135Zm-55.272351-1.0069793c-5.6137648,3.4407862-8.5305402,13.0518248-16.2772226,8.860115,6.329712-9.705555,3.6786239-11.5610095,16.2772226-8.860115Zm-11.3964844-14.4921875c3.0721255,3.0148264,4.3751152,7.4513696,8.0849609,10.2607422-2.2900037-.2229769-4.3149909-.2749038-6.2606324,1.0814761-2.6469785-3.32593-3.971289-7.3756688-6.4893676-10.8558901l4.6650391-.4863281Zm-12.6748047,1.6738281c.1140291-2.394697,4.0849551-1.0777197,5.4341793-1.138631,1.2866461,3.4213121,3.1740748,6.4157973,5.048375,9.5018493,1.5750404,3.798114-4.3839696,7.8564081-5.7770879,11.5415268-8.3473777,6.1061845-9.3942937-3.0849607-11.6223624-9.3754215.7521008-3.9618327,5.5352435-6.5973738,6.916896-10.5293236Zm-16.9414062,6.9267578c3.3424394-4.6695351,8.3104641-13.9589075,13.8186475-8.1102408-5.7318136,8.6863158-3.1143181,10.0345361-14.2248975,8.7205923l.40625-.6103516Zm-.2890625,8.4189453c-1.4001936-1.4182513-3.4827279-3.4289545-4.9560547-4.8828125,4.3872381.8410947,8.736536,1.6659488,12.7060459-.208065.6212777,4.1391095,2.3823043,7.7633455,4.0468979,11.5313038-5.8391051,2.9337697-8.0365556-3.2331036-11.7968891-6.4404263Zm57.0458984,122.5302734C19.5685774,200.2484652-40.2638265,71.7695521,48.3540157,37.0616125c20.3010792-5.3623612,42.5921469.6524317,59.8097214,12.1440964.1692292.11295.6646315.2131334.5062106.3404318-.8708154.6997404-1.7269699,1.2081193-2.5540496,1.976092-2.0963009,1.9464893-4.6982895,4.0761603-5.9574679,6.5842021C59.1432474,18.6199431-2.5030971,69.9555483,18.817223,121.2426469c13.9386895,27.0581773,53.260822,35.255582,76.1308832,14.6444668,1.6329215-3.939026-1.6586885-4.3240284-4.1951104-1.4727963-23.0168385,18.7494115-63.6046548,7.2377619-70.5729958-21.955437C10.3849583,67.1788835,61.5196997,26.4767268,98.3621167,60.8762353c-14.4390269,23.9586029-15.1753856,47.7920623-3.0838819,71.7876684,3.3826288,2.6644177,3.6761538,7.3811571,7.1906937,10.3172193.3102982.5928129,1.9441652,1.4739335.9733688,1.8370776Zm112.828125-43.3779297c-6.2569126,79.4178778-117.830208,77.618756-126.2622524.1680577,3.8494121-83.7584061,123.1356207-87.5919622,126.2622524-.1680577Z" stroke-width="0"/>
      <path d="m204.7684691,98.9490599c1.1516202-68.4267068-105.4205199-68.3684581-102.8737845.6354689.3078363,66.3715293,108.3391573,67.7686038,102.8737845-.6354689Zm-95.0957031,16.6259766l-.3779297.6357422c-.3359508-.7487568-.6503658-1.5065708-.9432803-2.2723045-4.3759065-11.4394466-3.9533094-24.6464153,1.1509381-35.8286508.3135176-.6868451,1.2721305-1.333982.993514-2.03674,5.0481797,12.733087,7.9575909,28.2342459-.8232422,39.5019531Zm8.0947266,13.1513672c-.0424128,1.1166402-8.6696384-9.8203003-6.0704746-9.8856894,9.3465844-10.4396035,10.5698901-33.362939,1.0887821-46.2048163-.085677-.1160469.1362216-.2552216.207215-.382498,2.5179778-4.5142105,8.1663333-9.256478,8.1663333-9.256478,0,0,2.6951699,3.5339842,3.4108791,5.2285358,8.7662033,20.755331,6.508601,43.8271833-6.8027349,60.5009459Zm82.7792969-31.46875c4.6116558,43.0934365-52.3780451,66.0525187-80.1681694,34.5937115,13.4002908-14.9228489,19.9638377-43.8514202,7.5091065-66.1569366-1.0550152-1.8894553-2.3614296-3.7785433-3.7080425-5.0338035.7154839.6669464-.313727.2510128.4728885-.3034462,29.5378754-20.8202618,75.1330991-1.0848123,75.8942169,36.9004748Z" stroke-width="0"/>
      <path d="m61.257727,16.8045287c8.938851,4.6809405,17.8333165-1.5122283,5.3958649-2.8981845-2.7334702.2051912-6.227105-.3492094-5.3958649,2.8981845Z" stroke-width="0"/>
    </g>
  </g>
</svg>