<?xml version="1.0" encoding="UTF-8"?>
<svg id="b" data-name="Layer 2" xmlns="http://www.w3.org/2000/svg" width="109.811" height="108.982" viewBox="0 0 10.981 10.898">
  <g id="c" data-name="Layer 1">
    <g>
      <path d="m7.972,5.119c-.412-.738-1.042-1.234-1.872-1.475-.615-.178-1.282-.283-1.928-.386l-.32-.051c-.318-.051-.653-.078-.977-.104-.151-.012-.303-.024-.453-.038l-.38-.037.35-.153c.792-.351,1.434-.659,1.882-1.184.436-.511.657-1.065.673-1.692-1.12.357-1.932.746-2.62,1.255-.716.528-1.244,1.015-1.49,1.673-.048.132-.254.244-.375.265C.147,3.243.009,3.332,0,3.486c-.006.119.079.148.336.174.041.004.08.008.116.014,2.082.307,3.196,1.537,4.091,2.821l.058.083-.085.057c-.354.236-.389.516-.395.806,0,.032.005.066.01.1.003.021.006.043.008.066l.324-.83.082.017c.318.063.509.103.753-.038.334-.188,1.092.052,1.356.36.505.59.699,1.302.575,2.114-.053.349-.261.653-.571.835-.305.178-.663.212-.982.093-.257-.098-.467-.235-.591-.389-.286-.352-.559-.741-.837-1.191-.253-.411.033-.754.262-.951l-.369.06c-.003.05-.016.099-.049.142-.331.434-.363.869-.109,1.456.177.408.357.746.553,1.035.417.612,1.139.632,1.672.538.802-.139,1.3-.517,1.48-1.124.215-.729.101-1.443-.358-2.25-.368-.646-.964-.978-1.772-.986-.352-.005-.494-.193-.608-.386-.674-1.125-1.602-1.833-2.833-2.165-.089-.024-.169-.06-.261-.1-.048-.021-.1-.044-.159-.067l-.232-.093.232-.093c.044-.018.077-.032.102-.044.048-.021.091-.027.126-.036,1.218.025,2.435.166,3.615.42.658.142,1.179.415,1.548.812.193.209.436.392.67.568l.044.032c.032.024.099.039.19.06.02.004.04.009.062.014-.004-.021-.008-.04-.012-.059-.022-.105-.038-.182-.07-.24ZM1.781,2.494l-.608.238.296-.319c.835-.901,1.854-1.605,3.028-2.092l.242-.101-.114.235c-.555,1.148-1.719,1.601-2.844,2.038Z" fill="#728e0c" stroke-width="0"/>
      <path d="m8.366,7.935c.047.036.091.071.132.104.085.068.159.128.24.176.48.288.952.312,1.442.082.506-.241.775-.618.798-1.122.026-.565-.106-1.084-.404-1.585-.211-.354-.554-.438-.805-.445-.013,0-.027,0-.04,0-.457,0-.974.241-1.192.56-.257.374-.402.823-.517,1.214-.108.363.093.652.287.932l.059.086Zm-.209-1.22l.535-.594c.026-.028.05-.058.074-.088.06-.073.121-.149.204-.209.19-.135.381-.19.552-.158.142.026.264.11.354.245.286.429.367.895.241,1.384-.08.309-.298.479-.601.479-.067,0-.139-.009-.213-.025-.683-.154-1.077-.495-1.141-.987l-.006-.046Z" fill="#728e0c" stroke-width="0"/>
    </g>
  </g>
</svg>