<?xml version="1.0" encoding="UTF-8"?>
<svg id="Layer_2" data-name="Layer 2" xmlns="http://www.w3.org/2000/svg" viewBox="0 0 267.434234 448.465682">
  <g id="Layer_1-2" data-name="Layer 1">
    <g>
      <path d="m153.5460783,362.1605488l2.3038569.2143684c.4257259.4760086.8166143.9130888,1.2449067,1.3919716-.5914595,1.836304-1.1417107,3.5446709-1.6884258,5.242143.5112684.4455839.9348542.814736,1.4445418,1.2589016-.0754229.8105847.114517,1.8055057-.2834957,2.4266154-.8804738,1.3740082-.4343877,2.4966919.1545795,3.7344598,1.8117076,3.8074185,3.6137302,7.6198577,5.3735423,11.4511891,1.519,3.30717,2.9253483,6.666023,4.4702209,9.960873,2.5302694,5.3964399,5.071636,10.7894166,8.2137139,15.8755602,1.5263007,2.4706514,2.8157762,5.1055761,4.5213859,7.4427235,2.7642791,3.7878144,5.3578636,7.719298,8.8399992,10.9617439,1.9028291,1.7718595,3.3632052,3.9677182,4.4372469,6.3382156.5324148,1.1751776.6897745,2.5185711,1.0228763,3.8092998-.4230249.9973538-.7229564,2.042995-1.2728432,2.9358395-1.5031531,2.4407149-4.0043435,3.1754041-6.6329271,3.2523738-5.7415551.16815-10.7253954-2.0745601-15.2552415-5.3572887-3.4354922-2.4896754-4.7635318-2.56215-8.1614079.0320349-1.1218024.8564028-2.2951416,1.6458452-3.2875911,2.35374-1.3019303-.1211415-2.3125942-.2151814-3.5723814-.3324016-1.1264089-.8746026-2.4190306-1.8782732-3.8181829-2.9646562-1.976843,2.8312677-4.3815384,5.0440468-8.304015,5.8757089-.7666659-.0713364-2.0252798-.1884474-3.189141-.296742-4.1778303-1.7016141-4.9928279-5.563565-6.0873357-9.0973532-1.2361525-.4287919-2.271107-.1108338-3.2870898.3010986-3.3025892,1.3388521-6.6228228,2.6377401-9.8956747,4.0453999-4.3941552,1.8898783-8.8933047,2.752123-13.9878705,1.551638-1.4384488-.9177444-3.4033012-1.8600375-2.9393545-4.2789778-.6726801-.6630657-1.2011643-1.1840124-1.6965882-1.6723662-.0542004-.7486989-.101454-1.4015349-.1713225-2.3668976-.0400358.1789254-.0091183.0394271.0223674-.0999873.2546898-1.1272085,1.0214309-1.8502139,1.8986624-2.5362432,1.5966674-1.2487066,3.1578173-2.5440941,4.7029946-3.8559122,2.6787449-2.2742486,4.8689292-4.9633506,6.8015104-7.8885583,5.323187-8.0573038,9.5707886-16.6746169,13.2832929-25.5510344,1.5472061-3.6993267,2.9046553-7.4877145,3.8912897-11.4043028.8663063-3.4390213,1.7827321-6.8592718,2.5791693-10.3196767.7755511-3.3696432,1.3566004-6.7929162,2.3284525-10.1202342.0695149-.2380375.0528221-.5010871.0875475-.8742881.6255846-.5764948,1.3005953-1.1985568,2.0508121-1.8898934-2.1046197-1.6276731-3.2980032-3.9104-4.3961294-6.3247781.4788925-1.1457853.9499742-2.2728883,1.4306342-3.4229429-.4614849-.6618315-.8904363-1.2770427-1.4655279-2.1018348.229072-1.2814548.4883842-2.7321117.8100291-4.5315422-.1239252-.3278443-.6644018-.6280349-1.4046992-.6646415-.5914296-.0292039-1.1836651-.0770238-1.7708188-.1530196-4.7520683-.6148356-9.5310838-1.0792928-14.2458265-1.9073495-4.0688234-.7145958-7.9099057-2.302589-11.57595-4.1910427-3.2306068-1.6640775-6.4410166-3.4034782-9.4910686-5.3700763-4.0479029-2.610002-7.8082355-5.6322776-11.3816456-8.8648614-2.6546678-2.4014881-5.2540039-4.8636513-7.8762183-7.3006589-.1233509-.1146312-.2321187-.2454234-.3428517-.3728328-3.812333-4.3868397-7.7512717-8.6726014-11.3950593-13.1940707-2.8282882-3.5095472-5.2960288-7.3078436-7.908729-10.9885388-1.6935293-2.3858174-3.3437052-4.8021404-5.0411386-7.1851586-3.3373952-4.6853775-6.1619289-9.6816075-8.8090395-14.7651337-1.7921838-3.4417578-3.4293453-6.9891116-4.8077576-10.6127217-2.3116991-6.0770642-3.9375526-12.3579785-4.7549645-18.8235844-.4668693-3.6929192-.7561739-7.3745873-.6055653-11.1239641.1099743-2.7380221.6008236-5.3205841,1.3265097-7.9227179.6319417-2.2660185,1.7369698-4.1165462,4.0203721-5.3832071.3759436.1582567.8734499.3676969,1.2442404.5237688.1182872.3512866.2265213.5107397.2134248.6595234-.1013912,1.1527584-.333927,2.2574102-.6497424,3.3914261-.4567934,1.6402325-.2478885,3.4658376-.3148224,5.212665-.0983443,2.5671813.4194738,5.0722947.7458775,7.60071.5582883,4.3245956,1.7019026,8.5169111,2.7868478,12.7207584,1.8168435,7.0396437,4.1543666,13.9133356,7.151429,20.5425934,2.4936126,5.5156229,5.2692062,10.8942421,8.674995,15.9252714,2.7125017,4.006915,5.4608622,7.9904092,8.1243724,12.0293515,3.7593673,5.7007413,7.9992022,11.0445188,12.6045447,16.0597951,5.4035219,5.884514,11.2172722,11.3439526,18.019517,15.7029147,5.3743742,3.4440003,11.0530704,6.1802267,16.9969722,8.4600557,2.9304684,1.1240402,5.9679575,1.8665069,8.9340844,2.8487925,2.8291091.9368881,5.8381819,1.16026,8.6205293,2.2605033.3039347.1202103.6677774.0947524,1.0048072.1263602,2.528439.2370635,5.0571058.4715128,7.2537677.6759069,1.5869407-.3752388,2.8649847-.6774612,4.1323906-.9771389.7578593.3256264,1.4973927.6433776,2.3546679,1.0117088.641607-.2225698,1.4174667-.4916813,2.2258305-.7720927,1.7778337.7182119,3.5625557,1.3764498,4.169311,3.6195367-.2715095.5136041-.5739429,1.0857828-.84345,1.5956046-.8620547.3393479-1.6339852.6432096-2.4194274.9523871q-2.4966355-.1814267-4.1586894-1.7138784c-1.5801779,1.3487749-3.1535551,2.6917336-4.8752382,4.1613145.8757702.3887792,1.6970757.9987653,2.7728437,1.0929409,1.0118551.0886008,2.0350528.1128674,3.0319241.2871981.8718797.1524689,1.7140539.4742517,2.638618.7412565-.0347984.8519118-.0616644,1.5104703-.0963643,2.360655-.4226379.2746315-.916844.5958394-1.4465783.9400957-3.3449735.2812643-5.7347801.6673103-7.6157896,2.7403996.3754172.2763678.7139725.7290109,1.1067915.7822115,2.8186678.3815777,5.628807.7487195,8.4847806.1038433,2.795472-.6312206,5.0565341-2.0587369,7.1915413-4.1874722-1.5368508-2.0533753-3.0558918-4.0829557-4.6733142-6.2440052.6757003-2.4990114,2.6406605-4.3434404,4.6080729-6.0569241,1.8107186-1.5770382,3.8638241-2.9376794,5.9751804-4.0956775,1.9656912-1.0781647,3.5134864-2.5578485,4.9072335-4.1949233,4.0826777-4.7954143,8.1313004-9.6227699,12.0662859-14.5384599,2.3233669-2.9023642,4.4599199-5.9587192,6.5820443-9.0136263,2.2188194-3.1941449,4.472006-6.3811234,6.4327898-9.7322584,2.323446-3.9708522,4.4409074-8.0693885,6.4817607-12.1940279,2.219192-4.4850047,4.2935918-9.0431356,6.3499996-13.6057001,4.1846537-9.2843835,7.7038719-18.8324339,11.0964282-28.423554.8229629-2.3265942,1.2167449-4.8039036,1.8088724-7.2116611.7868939-3.1997034,1.6490853-6.3833161,2.3384736-9.6037501.5398239-2.5217.8450939-5.0926331,1.2960935-7.6343178.2305062-1.2992112.6006057-2.5741788.8190185-3.8749494.2192938-1.306223.3380403-2.5981448.8038597-3.8864055.468489-1.295531.39693-2.7474269.9216672-4.1092992.5516412-1.4317967,1.3651046-2.3808222,2.7685653-2.8866428,1.5407914.5036144,1.9836344,1.5493674,1.8311849,3.0830154-.6003987,6.0389327-1.1356285,12.0843323-1.6950199,18.1273441-1.1836857,2.799962-.7007731,5.9098052-1.7073982,8.7781447-.6802667,1.9382946-.7937743,4.0708627-1.2049566,6.1076458-.2283439,1.1310551-.5039263,2.2567226-.8325337,3.3628839-2.1062382,7.0897987-4.4437005,14.0959174-7.2157811,20.9642401-2.2757018,5.6385286-4.8510428,11.1337757-7.5271569,16.5838353-1.2682034,2.5827519-2.7412562,5.0697986-4.199307,7.5549237-2.1730621,3.7037535-4.3332599,7.4195247-6.6530058,11.031993-1.9186028,2.9878363-4.0463151,5.8434192-6.1068624,8.7395742-2.059824,2.8950751-4.0735511,5.8275528-6.2495388,8.6343376-2.4372271,3.1437477-5.0089788,6.1856837-7.5708583,9.2312978-1.4954135,1.7778654-3.0782273,3.4832939-4.6397685,5.2050882-.3377487.3723828-.7391747.692147-1.1341987,1.0077011-2.8878675,2.3066307-5.5748594,4.8256408-8.0962721,7.5237021-.4016748.4298709-.8778144.790524-1.3171582,1.1857919-1.2355884,1.1117145-2.4698458,2.224855-3.6137155,3.2554992.8235658,1.9970514,1.5707026,3.8087744,2.4612991,5.9683282-.2850371,1.0475542-.6494645,2.3867339-.9680351,3.5573894-2.4609361,2.3667259-5.0089815,4.2234681-8.1351481,5.1817164-.188681.0578479-.3187984.3046018-.4761456.4634652-3.7701385.8200096-7.5630067,1.0586372-11.3932175.4562514-.1203143-.0189152-.2702739.1502471-.2932267.163986.0458467,1.0488254-.0219277,2.0472992.1513271,3.0026555.6136378,3.3833482-.2369012,6.6827017-.621655,9.9870422-.1160811.9972035-.4568135,2.0777116-.6723099,3.1279228-.2147438,1.0468087-.4989146,2.0803672-.7781907,3.112862-.6439692,2.3808892-1.2296293,4.7807222-1.9721848,7.1310757-1.5076377,4.7717829-3.5100707,9.3533528-5.661722,13.8653534-1.3775275,2.8886758-2.7313906,5.8051637-4.3546507,8.5577444-4.5336544,7.687768-9.3056061,15.2204445-15.3795978,21.8439765-1.2573224,1.3710646-2.5473846,2.7907682-2.5955758,5.0038569.3098645.1399852.7262407.4443791,1.178815.5138675,3.2126814.4933959,6.266235-.3292338,9.2354445-1.3622364,3.2893115-1.1444458,6.4670888-2.6069944,9.7594123-3.7416414,2.4410421-.8413002,4.9682939-2.0364695,7.5396273-.2454423,1.9922822,2.2543118,1.9511222,2.2679378,3.1434213,5.8277539.3282281.9799769.6267614,2.1181068,1.9712423,2.5604201,3.1439954-.7532584,4.8481299-3.554371,7.1436982-5.4819192l2.9765111.2769572c1.3002384,1.2963228,2.6520292,2.6440429,4.0874064,4.0750689.4598207-.2120451.946129-.3452913,1.319995-.6265692.9440353-.7103533,1.7816754-1.5721443,2.7666537-2.2141355,1.0265911-.6691862,2.132217-1.2690704,3.280493-1.691761,2.263819-.8332964,4.4279362-.1706997,6.5150857.7541382,2.3276737,1.0313967,4.3872078,2.6017631,6.909174,3.2626522,2.5927681.679445,5.1481486,1.0665683,7.8435761.1450401-.0861491-.4547054-.0544622-.833739-.2214357-1.0784647-.9426912-1.3818031-1.8975522-2.7583206-2.9145019-4.0863874-2.1966138-2.8686519-4.5536526-5.6233431-6.62328-8.5785892-2.5788019-3.6823779-5.1489493-7.4005364-7.3417618-11.3147583-4.7709552-8.5163647-9.4644094-17.086505-12.984065-26.224111-.1335324-.3467521-.4171965-.6362861-.7248122-1.0914452.0293605,2.9944693-.0253984,5.7881982.1068724,8.5732856.1363273,2.8713487.3910894,5.7413155.7115582,8.5989172.3100737,2.7648285.7612714,5.5143567,1.1660867,8.2683745.4172319,2.8384527,1.0250694,5.6619614,1.2318641,8.5146289.1972487,2.7216511,1.3001126,5.3115245,1.3111539,8.4489898-.591335-.4472359-.8677172-.604848-1.0793938-.8243095-1.9460089-2.0179955-3.2233319-4.4592172-4.2320908-7.019592-1.7851507-4.5309302-2.713544-9.2806886-3.315167-14.093739-.4439095-3.5511052-.8331628-7.1089376-1.2467988-10.663768-.6425419,2.0870943-.9030816,4.2375446-1.4974662,6.2920378-1.1152319,3.8548286-2.0930416,7.7525499-3.5205674,11.5177675-1.6520632,4.3573564-3.8583039,8.3788627-6.9837566,11.8572974-.7392089.822706-1.6077066,1.5857273-2.8824309,1.7063521.0041451-.3494441-.0828096-.6462228.0232724-.8358075,2.0487804-3.6619579,3.607211-7.5053438,4.8050615-11.5362208,1.3116516-4.4138659,2.5568909-8.8358956,3.6571739-13.307534.4196365-1.7056069.4372411-3.5200265,1.047729-5.1046594.8528781-2.2136808.834301-4.5475767,1.4009433-6.7948982.851422-3.3767839.7715557-6.9483056,1.5045337-10.4079491.548083-2.5870342.6182153-5.2789074,1.6040769-7.9297873.4876702-.3761368,1.0682358-.823902,1.6374312-1.2629276.3830068.3681668.6944983.6675452,1.4397647,1.3838725-.3784896-1.9251292-.7782108-3.18699-.8359624-4.463973-.0603401-1.333839.2084004-2.6821702.3519185-4.2245866.6841387-.8168854,1.4676683-1.7524495,2.2512008-2.6880443Z" stroke-width="0"/>
      <path d="m189.5214892,89.3203723c-2.550784-1.4706935-4.7599874-2.3726585-6.4837079-3.8401102-1.8176783-1.5473972-3.4029068-3.4908344-4.6768181-5.51824-2.1295487-3.3892724-2.7884336-7.3338981-3.4875151-11.2126655-.1305821-.7245219.0222529-1.5055955.0851144-2.2571528.1385551-1.6560853.3031607-3.3100025.461338-5.0099634-1.4248307.004876-2.2324513.7224267-3.0789587,1.3859991-3.7014115,2.9014239-6.7640401,6.418554-9.6913473,10.052026-2.2271704,2.7644675-4.448125,5.5464731-6.4587101,8.4662676-1.0516521,1.5272284-1.7364568,3.3337324-2.3937685,5.0860709-.2300198.6132392.0595248,1.4542177.211994,2.1700949.7756158,3.6419334,2.9398071,6.1406394,6.3299795,7.6837621,1.4444936.6574925,2.952264.6986949,4.4288381.5721408,3.046358-.261178,5.9742575-.0601951,8.8049048,1.2097372,1.4186869.6364728,2.9164942,1.0980134,4.3609576,1.6321652.49815-.093171.9767016-.2294022,1.4627199-.2644824,1.2389056-.0894335,2.5036109-.0080006,3.7172555-.222549,2.4254852-.4287841,4.8229408-1.0131706,7.2333742-1.5268517,1.5245821-.324891,3.051724-.638134,4.607714-.9628775.5213626.3066439,1.0155623.5973042,1.5397292.9056043-.182359.1863629-.3202482.4413386-.5266569.5213644-4.3932353,1.7031121-8.9319197,2.8779605-13.6043483,3.4804135-1.4748016.1901709-2.9960344.1875573-4.4830112.084869-2.2471148-.1551554-4.385878-.8516069-6.4361091-1.7575381-1.5157414-.6697494-2.9023654-1.3773718-4.7232622-.8469409-1.0639797.3099401-2.3426625-.096858-3.5233045-.198172-1.4215599-.1219791-2.841615-.2619716-4.3385771-.4012603-.2030821,1.0269034-.389166,1.9678457-.5902234,2.9845353q-1.4443412-1.0813326-.5915416-2.9881019c-.3870674-.2443695-.759634-.5906985-1.1994809-.7397397-3.6306-1.2301899-6.0769539-3.80079-7.6254576-7.1282385-1.3275165-2.852616-1.0196496-5.7396208.5991711-8.5460672,2.0331191-3.5247684,4.4217074-6.7865358,7.058525-9.8567091,2.6507172-3.0863514,5.2143621-6.2433107,8.3423551-8.9274004,2.2991301-1.9728562,4.6490153-3.6886166,7.8001915-4.6535914.5028466.0467887,1.256638.1169272,1.8296614.1702456,1.0361248-.3352198,1.8902289-.6115457,2.8343333-.9170056.2602173.4672202.4481524.804617.6756291,1.2130515,1.5787342.0911504,3.1531066.3195418,3.5777207,2.4919569-.172841.371899-.4112613.8849854-.6728052,1.4477839.6847595,3.5668109.9302595,7.2548827,2.0144205,10.8014744.7929407,2.5939321,1.3847193,5.2332572,2.8109393,7.6161382,1.3069073,2.1835166,2.7646448,4.1366395,5.0312581,5.429339,1.7394884.9920924,3.3027062,2.2138858,4.6427869,3.7423453.638553.7282874,1.5836301,1.1901762,2.4299225,1.8017121l3.8596649.3591326c.9283366-.6259766,2.3697944-.4855738,3.1938544-1.7452759-.7946072-1.5197629-2.1281829-2.5324376-3.2957176-3.5728371.2000214-1.482311,1.4925855-.8930279,2.3236558-1.3943767.3387213-.7191921.7184612-1.5254588,1.0239212-2.174008-.2859232-4.1218032-1.7357451-7.7293233-3.6087298-11.1148065-1.8603489-3.3626428-4.0307553-6.5688418-6.7302738-9.3618335-.2077102-.2148989-.5705372-.2811834-1.020411-.4906408-1.7408987,2.4415137-3.2930568,4.7987687-2.0221646,7.9928608.7333931-.0630581,1.4453197-.1665055,2.1586841-.1769669,1.5687725-.0230146,2.7050044.7396591,3.4965716,2.0484444.4283727.708281.8311173,1.4319433,1.3534012,2.3354655-.9154279-.0338573-1.7772896-.0657379-2.7964652-.103443-.4129787,1.5323114.2153808,2.9615344.5518035,4.5087512l2.5151284.2340267c.3155025.3473056.5874723.6467195.8211679.9039785-.475482,1.6344164-1.9755006,1.7130566-3.0654061,1.8451192-1.1477955.1390703-2.3862418-.4588505-3.2871767-.6662044-2.4912787-2.2250047-3.1984787-4.7668154-2.7269115-7.841803-.596448-.4103584-1.1508556-.8943408-1.7884942-1.2130984-3.0910256-1.5453239-4.2660256-4.3954452-3.1027398-7.6318099.2211434-.6152355.3606308-1.2655782.6346825-1.8550321,1.9440847-4.1820734,6.7444136-5.437854,11.0539777-3.2352811.943557.4822417,1.8438284,1.161601,2.5720651,1.9304241,4.2424166,4.4788224,7.2103328,9.7706636,9.5174845,15.4250317.9682395,2.3730005,1.6639469,4.8810238.8623941,7.7195112-.5991019,1.0736985-1.1269226,2.509541-2.8314482,3.0346619.3252913,1.0828264.6274775,2.0886567.9655427,3.2139238-2.8653996,3.123766-6.662018,3.3297374-10.3230641,2.8856066-3.6927634-.4479813-7.0368096-2.0773466-8.6102266-5.0329601Z" stroke-width="0"/>
      <path d="m131.009152,100.4869617c-.8688272.8157612-.883604,2.0140949-1.353403,3.0094373-1.0827384,2.2938963-2.0429894,4.6512937-3.2403744,6.8831006-.7351477,1.3702762-1.7562942,2.6061364-2.7621036,3.8085275-.7567562.9046939-1.7562175,1.5381752-3.2163433,1.5729657-.4051352-.2431362-.9516793-.5711603-1.464823-.8791168,1.1083921-2.0359503,2.3132794-3.9127956,3.1871062-5.9319239,1.3653187-3.1547343,2.73205-6.3040663,3.4289405-9.7304663.5763952-2.8339128,1.5499366-5.6129357,1.6459811-8.5126739.0787617-2.3784775.0074133-4.7732633-.1378992-7.1678466-.1362565-2.2455831-.4588169-4.3922635-1.0240159-6.5588544-.7850611-3.0094492-2.3673223-5.5440312-4.5907595-7.5964446-1.8740492-1.7299137-4.022206-3.1827001-6.1397138-4.6261778-1.0006916-.6821533-2.2136401-1.0554265-3.2569231-1.534871-2.8297163.5502737-4.968132,1.9885431-6.6387976,4.1943417-1.343006,1.7731645-2.793215,3.4510979-3.6150508,5.5806669-.3115439.8073103-1.0658388,1.4449155-1.5308777,2.0467199-1.0284156.1430936-1.8401625.2560421-2.8175929.3920359-1.5126055-.588488-3.1944403-1.2428342-5.098085-1.9834725-1.0794975,1.0921948-2.2979556,2.1195418-3.2598438,3.3464055-1.4385046,1.834784-3.1809596,3.1318425-5.3813803,3.8954167-1.1697445.4059191-2.2798268.9788948-3.4297315,1.4450269-2.0821409.8440156-3.3253128,2.3765999-3.8512818,4.529513-.0365859.1497141-.1976479.269181-.4749007.6279697.5911418,2.6101909,1.2681167,5.3886489,1.8220125,8.1911244.1410144.7134782-.1087607,1.5032201-.2025403,2.5110871-.3009961.2530071-.7495258.6300265-.8913314.7492078-3.2744732.5390115-5.7362922-.9990563-8.554913-1.6318168-.1511316.9597281-.2773717,1.7613832-.3676694,2.3347286,1.3793052,4.9343378,4.161563,8.7709062,7.4545627,12.2610015,2.2347877,2.3685272,4.9587557,4.1460537,7.8339229,5.6492246,3.2087647,1.6775941,6.5655968,3.0216162,10.0150921,4.147071,1.6521728.5390458,3.28022,1.0907136,5.0046423,1.4053395,1.4663124.2675416,2.8737608.8258282,4.3995863.8486968,3.4001375.0509406,6.8047565.0205844,10.0400079-1.1437894,1.3098884-.4714303,2.4787453-1.3305085,3.8750115-2.1035642l1.6594525.1544081c.236752.5612687.4847039,1.1490967.7477459,1.7727133-.3553107.6143397-.6824669,1.1799548-.9660563,1.6702663-1.9713701,1.2980046-4.0437609,2.1439971-6.2684446,2.4772118-4.5910927.6876887-9.2156376.5581501-13.7516235-.2938903-3.3044576-.6207157-6.5793697-1.4652515-9.7284074-2.79676-4.4049814-1.8625362-8.8211146-3.6597748-12.8170711-6.333728-5.4407997-3.6407845-9.293681-8.4909691-11.5216547-14.6492118-.7162992-1.9798153-.560635-3.9200123-.2339204-6.029626,3.0678447-2.5321575,6.1763778-1.0469744,9.4728377.1371182.0449091-.4826468.2035548-.9444635.1055008-1.3440181-.4876777-1.9871448-1.1955684-3.9333279-1.5233736-5.942648-.2377466-1.4572361-.003561-2.990441.0163268-4.2452089,1.409029-2.5699119,3.51606-3.8552936,5.8604371-4.8466767.8410878-.3556542,1.6667183-.7660753,2.5361602-1.0330367,1.9076669-.5857625,3.3389191-1.6975019,4.5737255-3.2789068.9887226-1.2662546,1.8215055-2.7992604,3.4770033-3.4211522,1.9373872-.7277906,3.8558181-1.4697315,5.9747333-.4916943.7991767.3688783,1.7348149.4442405,2.8199091.7040912.292792-.4198644.8255596-.9734326,1.1138503-1.6330824,1.3647645-3.1226724,3.5334082-5.5889767,6.175253-7.6753267,1.6861603-1.3316273,3.6914773-1.7891049,5.789366-1.9574586,5.0081726-.4019021,9.1258851,1.858123,12.9674301,4.5862607,2.0096837,1.427213,4.0697686,2.9011275,5.6122308,4.9204698,2.415446,3.1621526,3.9935966,6.6201237,4.2666803,10.6471435.2133861,3.1464643.6202523,6.3285889-.0012329,9.4138187-.4535751,2.2517496-.5474381,4.5912129-1.4251612,6.7747083-.3339279.8306671-.2749333,1.8181788-.3950151,2.7342109l.0568072-.0485855Z" stroke-width="0"/>
      <path d="m53.1897075,33.0547347c1.6265052.5317586,2.9419045.9618086,4.9086947,1.6048198.9714592-.1024438,1.7516651-1.5175309,2.6543488-2.6005987,1.2596324-1.5113567,2.2975388-3.2154999,3.3479887-4.8884476,3.17227-5.0520717,6.6539054-9.8598959,10.8921936-14.0941813,2.5308036-2.5283962,5.1542349-4.9792882,7.5103768-7.6615831,1.5908698-1.8110843,3.6253656-2.8475555,5.5576312-4.1162054,1.1781636-.7735181,2.3631115-1.1790031,3.7711553-1.0011239.2936072.037086.6211176-.1938046.9220239-.2974146,1.4132372.4656163,2.8180598.9284576,3.965797,1.3065962,3.7663967,2.7644943,4.7477709,6.7473936,5.7081122,10.7120194.3843282,1.5866014.6936592,3.1942144,1.0510387,4.7879664.4661774,2.0791515,1.1060784,3.9656797,2.6558746,5.4947087.9817182.9685641,1.3189846,2.2856548,1.6699423,3.5588528.369125,1.3391697.7147297,2.6928237.9404285,4.0613264.465835,2.8244883,2.1032306,4.7000959,4.7908307,5.4025651,5.1330005,1.3416539,8.1034233,4.8367543,10.3380711,9.3515995,1.3850801,2.7984115,1.8260769,5.7606539,2.244277,8.7563767.0997469.7145371-.1123162,1.471985-.1898557,2.3053165-1.5524897.1013757-2.9028691-.072386-4.0247385-1.1661282-.9011762-2.8738555-1.5994043-5.851793-2.7710449-8.6322591-1.2486811-2.9632392-2.6433281-5.9664067-5.4562804-7.8888754-.8629836-.5897887-1.8969709-.9310083-2.8516068-1.3882289-1.1112255-.532243-2.2859227-.9656956-3.3191049-1.6204638-2.5452485-1.6130186-3.7105426-4.1659993-4.4643603-6.9451117-.2780867-1.0251984-.44528-2.0811757-.7454712-3.0990751-.2300747-.7801243-.4203272-1.6637508-.920371-2.2575795-2.3464584-2.786572-3.1444276-6.0952272-3.6100504-9.57446-.3901539-2.9152672-.726203-5.857943-1.8214273-8.6236327-.3304758-.8344973-.8740868-1.5854555-1.3329747-2.3975244-2.5947655.2866642-4.6810171,1.3652922-6.5551545,2.9227446-2.0129904,1.6728467-4.1645332,3.2081845-6.0066052,5.0503942-2.5156673,2.5158291-4.8303178,5.2353228-7.1690793,7.9210952-3.4223412,3.9301089-6.2353777,8.3097846-9.2173578,12.5644711-1.5309992,2.1844097-3.163135,4.2865393-5.5599195,5.850693-1.0583953-.0984812-2.2272582-.2072411-3.5904736-.334085-.2666697.458912-.5875059.914435-.8120267,1.4130176-1.5102035,3.3535291-2.861838,6.7867449-4.5421469,10.0525376-1.2349822,2.4002547-2.7338995,4.7084296-4.4059386,6.8304257-1.5815037,2.0071209-3.9276891,3.0256356-6.4195285,3.6270283-1.2683469.3061089-2.5287937.644454-3.6480981.9311548-.4093513.9258727-.7063569,1.5976873-1.0904264,2.4663828.3033329,1.5904129.6345778,3.3566015.9778569,5.1204683.6022255,3.0945054,1.860709,5.9699668,3.246817,8.7591724,1.8003466,3.6227806,3.7579259,7.1759506,5.812647,10.6628947,1.257215,2.133548,2.5273672,4.3092885,4.6250971,5.8276014,1.2152001.8795468,1.7686149,2.2952466,2.7435894,3.417782-1.0448541.8504011-1.9746173,1.011774-3.1040415.6128647-4.1739738-1.4741435-7.3126421-4.0796139-9.5042852-7.9500099-3.2322896-5.7082047-5.5644541-11.7952499-7.8093824-17.914438-.9277243-2.5287981-1.4250114-5.2345647-1.5210342-7.9286125-.1145483-3.2141835,1.7447142-5.1665086,4.2962286-5.4999066.9737498-.1272285,1.9484491-.2959541,2.8994352-.5366476,2.4768501-.6268861,4.3706299-2.2560431,5.8456432-4.1468357,2.529729-3.2427746,4.3206014-6.943946,5.6885752-10.8335625.6503259-1.8491196,1.3230177-3.6919491,2.0506683-5.5117904.2967231-.742075.7660242-1.4156238,1.3474415-2.4640942Z" stroke-width="0"/>
      <path d="m198.3249726,215.027282c2.4508909.9264069,2.475017,2.9807817,2.6360024,4.8247167.492292,5.638308-.2917812,11.2384973-1.1339176,16.7715839-.5762775,3.7866618-1.6580323,7.5266933-2.8578972,11.2214433-1.3177079,4.0579227-2.7571265,8.0650821-4.1749915,12.0852538-1.8602956,5.2746118-4.2121822,10.3386285-6.4301111,15.4620203-3.0120388,6.9578303-6.5163983,13.6724114-10.0399709,20.3792827-2.3820457,4.5340319-4.810813,9.0397186-7.5999784,13.3435758-2.5658912,3.9592381-5.4072689,7.7184395-8.4067611,11.3552482-.7399042.8971154-1.7579146,1.56679-2.6956411,2.3823723-.5660459-.0526692-1.1262566-.1047955-1.7565207-.1634401-.0235544-.2626029-.1377285-.5392807-.051982-.7238435,2.9648055-6.3832684,5.9057195-12.7781853,8.9452814-19.1261591,1.8846619-3.9360278,3.9454785-7.7879188,5.8861857-11.6977413,1.8292622-3.6853601,3.672735-7.3661424,5.3887169-11.1041787,2.8796166-6.2729728,5.7262551-12.5626873,8.4646003-18.897762,1.8198647-4.2102195,3.5734934-8.4609557,5.0846172-12.7879261,1.2722037-3.6428447,2.1045107-7.4360375,3.2198325-11.1362047.9130014-3.0288516,1.2924379-6.161919,1.9843942-9.2191826.6731906-2.974397.7166606-5.9660892,1.1381452-8.9359093.0536745-.3783829-.1589545-.7944428-.2576226-1.2350897.2634158-.6321143.5457659-1.3097495.865119-2.0761507.6409609-.2581307,1.3171878-.5304668,1.7924996-.7219094Z" stroke-width="0"/>
      <path d="m47.8408231,130.9017891l2.934723.273069c.4005698.4366169.797846.8696407,1.2410527,1.3527327-.3148654.2198279-.5589193.4957598-.8579984.5812391-1.4906547.4259773-2.5931895,1.2804678-3.6466095,2.4466642-1.2877664,1.4256532-2.8769011,2.6037801-4.4295323,3.7646078-2.4075812,1.8000042-4.9605403,3.4106828-7.3318314,5.2545873-3.3680602,2.6189728-6.9880451,4.8450952-10.6263903,7.0447207-3.334996,2.0162111-6.8331969,3.7792417-10.0772605,5.9265697-3.8928712,2.5768065-7.4505563,5.5691706-9.667181,9.8387431-1.2594468,2.4258906-1.9394116,4.9446274-1.1769939,7.625541.2850668,1.0023926.8691192,2.0061578,1.5673896,2.7872844,1.0999154,1.2303695,2.4152815,2.2691459,3.6327386,3.3961988,1.526752,1.4133909,3.0867398,2.794234,4.5589587,4.2621424,1.641588,1.6367706,2.1744236,3.7125749,1.910406,5.9488491-.2825218,2.3929725-.259597,4.8090798-1.0685213,7.1654428-.4962666,1.4456306-.614371,3.1234853-.0343178,4.6781944.224423.6014822.5659641,1.1597582.7853369,1.5997304,4.2241963,1.3138388,8.2196344,2.6060201,12.246952,3.7904487,2.3784581.6994694,4.7945212,1.2866341,7.2168978,1.8191663,2.8662956.6301119,5.6068286-.0249787,8.2881509-1.0276882,5.0219144-1.8779434,10.1393173-3.4199607,15.4089947-4.465402,2.2708957-.450501,4.5359797-.8288359,6.8581414-.8175525,3.4917384.016987,6.1446482-1.7195579,8.5914629-3.9862269,1.5171954-1.4055145,3.1775071-2.6581433,4.7781401-3.9739014.3909412-.3213754.8073298-.6120134,1.1990751-.9324923,4.2220775-3.4539554,8.8870913-6.1270561,14.0561346-7.9154867.1582625-.0547408.301935-.1511458.512605-.2588966,1.0992855.5735469,2.5564716.7174439,3.0277679,2.4204536-1.704332,1.1000342-3.4316169,2.2154815-5.1595135,3.3299728-1.535726.9905243-3.1293284,1.9032355-4.5961584,2.9861783-2.9071769,2.1463363-5.7879627,4.3330163-8.5996416,6.6013138-3.4045379,2.7466059-7.2585013,4.3341276-11.6192768,4.4078916-3.6822431.0623018-7.2034047.8193771-10.6617207,1.9152941-3.6173401,1.1462927-7.170286,2.4919556-10.7723063,3.6881346-2.8353567.9415594-5.7352474,1.8095851-8.754338,1.239544-2.4289901-.4586115-4.8023611-1.2120834-7.1983796-1.8423093-1.5163262-.3988974-3.0167993-.8659259-4.5457037-1.2074562-3.4674795-.774539-6.9217456-1.6105097-10.1851198-3.0264333-2.2828734-.9905182-4.3286124-2.3368918-5.7253228-4.5221759-.9218439-1.4422765-1.0823315-2.9692628-.7432775-4.5348457.399288-1.8436899.8060959-3.7236845,1.542934-5.4463926.7916419-1.8508374.6433135-3.7689679.9316247-5.432551-.4440572-2.3809736-1.79468-3.8712702-3.5491419-5.1157726-2.1859421-1.5505653-4.1480307-3.3388524-5.8246388-5.4561265-2.7779481-3.5080412-2.9131713-7.3723783-.9662386-11.1160857,1.3980548-2.6882561,3.416175-4.8772585,5.6235395-6.9009906,3.658183-3.3537867,8.0075713-5.7419111,12.10372-8.4827328,1.5203825-1.017314,3.0853321-1.970409,4.5829263-3.0193447,2.7397685-1.9190043,5.4493412-3.8809698,8.1602528-5.8404233.615319-.4447485,1.199898-.9351442,1.7727588-1.4339784,3.2956628-2.8697188,6.9511898-5.2564267,10.5574742-7.6991073,1.1453505-.7758,2.5513662-1.1703539,3.7272558-1.6903423Z" stroke-width="0"/>
      <path d="m80.7458531,151.5977122c.0573724,5.7428813-1.6695727,10.265596-7.7356402,12.0866125-1.7841993-.1660155-3.6376183-.3384717-5.6878135-.5292375-.3366173.2722023-.8735808.5639611-1.2154645,1.0055499-2.5957694,3.352604-6.1008935,4.2969382-10.1723764,4.0836633-2.7801937-.145615-5.1219085-1.1479333-7.3771517-2.7025595-3.4519777-2.3796067-4.6959502-7.5856218-3.4384397-11.1036897,2.3180775-6.4851931,6.6053555-10.9678592,13.2970384-13.2350069-.0557729-.5741628-.0221297-1.1671661-.1810669-1.703754-.7397941-2.4975841,1.1851365-6.5204927,4.1668652-7.666956,4.296698-1.6520844,8.3665685-1.3274345,12.4874065.6970184,2.8234976,1.3871016,5.0273007,3.4935592,7.2921886,5.5225297,4.2778925,3.8323199,7.67597,8.4187637,10.6068966,13.3186237,2.0012953,3.3457369,3.404179,7.0753358,3.7054742,10.8972236.2769168,3.5129177.0479457,7.2321214-1.871094,10.453912-1.4601949,2.4514401-3.423904,4.4454144-6.108305,5.6259613-2.6001243,1.1434779-5.3042258,1.6993783-8.157412,1.8412247-1.6766086.0833544-3.3364958.1859686-4.9868269-.0698144-3.0267667-.4691363-5.9770029-1.228614-8.869509-2.2725084-4.9120076-1.7727025-9.4416944-4.2815152-13.9270232-6.8930439-.2018222-.1175301-.3796455-.2759396-.5469349-.3992945l.0842752-.9057216c2.9765323-1.1088571,5.9309371.0805676,8.7475499-.0539387.1923201.2378911.2918132.3294671.2787624.3499097-.0899596.1411512-.2033927.2674993-.5817839.7359676.1980001.1127562.4671447.2976149.7605568.4283335,3.1519244,1.4042358,6.268587,2.8984382,9.4761374,4.1633664,2.1349599.8419143,4.3740273,1.7619591,6.6153649,1.9114301,2.9553197.1971318,5.882821-.5840841,8.5653506-2.0346885,5.3247286-2.8794288,7.6457723-7.555745,7.5768063-13.333671-.0379445-3.1794999-1.0962401-6.277476-2.4399846-9.2296244-1.4590119-3.2053641-3.4059175-6.1417966-5.6200682-8.7985486-3.5110918-4.2129157-7.3008565-8.2561041-12.4232827-10.6384733-1.3604568-.6327444-2.6421901-1.5367284-4.4255768-1.0390986-2.6900841.750645-2.7293358.6115627-4.7140868,3.6985062-.0595928,1.6334585-.7788692,3.3704972.2762943,5.1262531,2.3127091.3911611,4.7221867.7632822,6.0486012,2.9997103.0365453.9509917-.3747802,1.4335413-1.1263883,1.5795715-1.9802525.3847311-3.9457716.5937168-5.8496-.4031564-.7236881-.378938-1.5255536-.6096445-2.568437-1.0155699-.7865529.4559915-1.77786.8912258-2.6054451,1.5350104-3.3069644,2.5724917-5.4741431,6.0183967-6.6337263,9.9378832-.9035496,3.0541165-.2160775,6.1282386,1.8316531,8.673545.6949936.8638687,1.8258687,1.3802206,2.7010095,2.0143925,3.1852214-.481942,5.2913624-2.5171546,7.1922224-4.5646161,1.1163495-1.2024303,2.2244142-1.8459287,3.7322065-2.0698638,1.5357116.2814248,2.7181118,1.1329451,3.5927822,2.3493322,3.0335126-.7498189,4.3367698-3.1008485,5.7450733-5.5674107.0927756-.9970776.2017885-2.16866.3478464-3.7383725-.4876645-.8386552-1.1434093-1.9663678-1.7561072-3.0200501l-2.4413393-.2271608c-2.8488333.8621573-5.04024,2.5856178-6.6508467,4.8708743-1.2618711-.1174141-2.3258855-.2164181-3.6229995-.3371114.3559433-.9829307.650902-1.7974116.8540005-2.3582768,2.4723419-3.2135592,5.807289-4.2036943,9.3499877-4.5864573,2.096353-.2264838,4.088881.4864823,5.9856168,1.3873861,1.4132231.6712636,1.9865173,1.9442677,2.4167636,3.2038839Z" stroke-width="0"/>
      <path d="m132.7670525,150.9485958c-.8980001,2.02925-1.840392,3.2607803-3.7821259,3.6847046-.5831193-.0542579-1.4152846-.1316888-2.4202368-.2251973-.5851519-.7176756-1.2227982-1.4997188-1.8601377-2.2813769.11575-1.2439878.2239163-2.4064714.35257-3.7891378.4859202-.1849676,1.0562335-.4020637,1.7911026-.6817948.3157473,1.8169436-.1705482,3.5923413,1.1416634,4.9005524,1.866064-1.5202185,1.9430278-2.2638595.4778711-4.9905196-.8810627-.1243957-1.8459628-.2606228-2.9261905-.4131309.655027-1.7036871,2.292557-1.4216093,3.3096319-2.1901685.7537514.2993239,1.4389575.5714035,2.4198092.9609068.4999575.6772552,1.1751852,1.5919002,2.0367412,2.7589628.458736-1.6980931.8387715-3.2245947,1.2872422-4.7308692.4435338-1.4896966.900654-2.9799894,1.4537046-4.4314517.5819551-1.5273241,1.2178277-3.0423915,1.9536848-4.5009506.7037877-1.3950372,1.5660981-2.7107253,2.359355-4.0609136.8174388-1.3913609,1.6356151-2.782281,2.5612583-4.3567506-.9696766.2188321-1.7314155.390739-2.5845583.5832702-2.9909092-1.2522735-3.4367538-1.8954419-3.0681294-4.7369363.4418903-.1471922.955207-.3181853,1.6381134-.5456712.2012774,1.2835631.037845,2.5696062,1.2852311,3.2031465.342902-.1350869.7276006-.286624,1.2683387-.4996353.6183447-1.1903085,1.2949762-2.4927956,2.0146486-3.8781539-.2792855-.3037919-.5059002-.5503-.7280613-.7919599-.4049079.2706693-.7546613.5044898-1.1048615.7385943-.093672-.1308758-.2637694-.2618711-.2467125-.3606783.247763-1.4349733.9445059-2.4773482,2.5745693-2.6555372.4376218.1883501.9610279.4136255,1.5143617.6517776.29278.7481404.5936343,1.5169374.8945195,2.2857373-.2795048.8338087-.9328967,1.6020557-.4814376,2.5235826.9314932-.552635,1.8618343-1.1046021,2.7582734-1.6364389,1.4762907.1420626,2.9046668.086366,4.2310547.5275072.0474613,1.4059831-1.266277,1.0069454-1.8563695,1.7018489-2.7900928,3.8680262-4.3942594,8.4417431-6.050738,12.9812618-1.0102979,2.7687507-1.9556823,5.5667952-2.7788216,8.3954684-.5077234,1.7448018-.8236939,3.5598908-1.0591147,5.3650809-.3375987,2.5887139-.4568441,5.2056512-.788214,7.7953632-.5879679,4.5950534.4578959,8.895612,2.4639339,12.9537897,1.1530033,2.3324842,3.0089066,4.1911477,5.2365175,5.62188.5588046.3589142,1.1067346.734629,1.6870121,1.1208103,1.7231088.0539684,3.4272509.5581013,5.2228886.0635183,1.1574562-.3188687,2.2311691.4935333,3.2916105.9358336.6046867.2522009,1.2059008.5989542,1.6919135,1.0328245,2.4116533,2.1526789,5.247162,2.4345922,8.1865102,1.6888786,2.872814-.7288056,5.6755944-1.7304144,8.8880244-2.7301822.7689725.114152,1.9802444.1369588,3.0800557.497519,1.3348001.4375833,2.4481475,1.3176831,3.4480877,2.3449377,1.3324494,1.3688332,2.879061,2.3400334,4.7199282,3.0772876,1.5182157.6080161,2.8471808.1216646,4.1462296.0033497,4.2573934-.3877754,8.3504566-1.713365,12.497647-2.7314176,3.3298379-.8174164,5.1220084-3.2088688,6.7154527-5.879642.5870059-.983863,1.0208241-2.0583916,1.4903245-3.0214081,1.7578688-1.1184925,3.3543616-1.1341918,5.0229031.266286-.6953488,3.0157422-1.7415269,5.9564103-3.7340812,8.4233797-1.1081401,1.371908-2.804395,2.1441645-4.4923214,2.5755669-1.9819152.5065191-4.042851.7303919-6.0805032.9928621-3.0193148.3888926-6.0470218.9610193-9.0735408.9735071-2.6859795.0110609-5.4805988.9179335-8.0980014-.4747025-3.7692018-.3510718-6.3615203-2.6354658-8.8053374-5.3504683-1.2753021.4297222-2.6369567.7693856-3.8950546,1.3365106-2.9181465,1.3154039-6.0296315,1.8420951-9.1475532,1.8395516-3.0854455-.0024982-5.9813112-1.0922826-8.5762492-2.8562064-1.3349586-.9074483-2.4768584-2.0168516-4.4967879-1.4593938-1.1141357.307459-2.6052482-.3517049-3.8164492-.8438283-4.7348086-1.9238588-8.467264-4.996063-11.2986714-9.3350679-2.2479127-3.4448789-3.0904663-7.246128-3.7821186-11.1220725-.3014026-1.6891393-.0764166-3.4712094-.0878419-5.2110966-.0031898-.482301.0031073-.9646494.0074368-2.0333Z" stroke-width="0"/>
      <path d="m210.0682718,160.8100476c-.0883381.9493862-.2065937,1.8702235-.2534673,2.7946797-.1091298,2.1504468-.8756633,3.9669725-2.3297231,5.6066362-1.5175203,1.7112249-3.1096857,3.2738423-5.223538,4.1976132-2.799762,1.2235291-6.5722412.8805702-9.2030429-.9042239-2.1050943-1.4281224-3.7869547-3.1874826-5.0865132-5.4001113-.8775575-1.4941043-1.9293939-2.9676684-2.9025115-3.3842325-2.8250457-.58513-4.9120569-.8574851-6.8956034-1.4653301-3.0445212-.9329648-5.7132826-2.4192401-6.4873633-5.9518309.1236527-1.3289194.2473068-2.6578542.3756073-4.0367242-2.2346514-.7891183-4.4637818-1.4059705-6.5457843-2.346297-4.607326-2.0808812-7.6899194-5.5729782-8.3444434-10.6394718-.2506369-1.9402072-.7102571-3.9987968.2388433-6.0864183.5479988-1.2053959.4606364-2.7605517,1.1398901-4.0184266.584223-1.0818033.9745369-2.3444258,2.3535295-2.7977992,3.0819821-.6068869,3.7633423-.454457,5.173256,1.0356981-.5541104,2.6735665-1.075637,5.2620175-1.6351111,7.8422869-.1554105.7167156-.5632807,1.3989181-.6153159,2.1144472-.211952,2.9144549.04335,5.8181124,1.4718655,8.4065843,1.3851578,2.5099169,3.7074543,3.9582185,6.4558415,4.7858682,1.4005787.4217678,2.7448706,1.0291032,4.2346418,1.5984292.1310774,1.8701729.2512692,3.5852379.414865,5.9195434.4591418,1.1774907,1.7236386,2.4154848,3.4075795,3.2953639,2.3337081.4531408,4.7112807.9147967,7.4316308,1.4430109,1.5186406.6114817,2.8072071,2.0158406,3.9913074,3.5559393.7718221,1.0039049,1.6303685,1.9415913,2.4050926,2.9434254,1.1413016,1.4759511,2.4745703,2.7000981,4.2213208,3.4283933,3.3690933-.8212825,4.2644006-1.4855386,6.4114597-4.8147835.0899455-.9666615.1907883-2.0504382.3100635-3.3323117-.3701615-.7220877-.8019101-1.6109616-1.2757988-2.4770147-.5853786-1.0698363-.5442103-2.0611587.2785054-2.9881313,1.373873-1.5479863,2.5394426-3.2358868,3.5656889-5.6256517.0976208-1.0491493.2455006-2.6384425.3910709-4.2029141-2.354183-7.1265533-6.6891712-12.8150466-12.7280237-17.1545073-1.609667-1.1566795-2.9644171-3.0797098-5.3770601-2.8247542-4.2300352,2.4944309-4.961978,11.1472653-1.1780346,14.4059343,1.3929869.437091,2.6291762.8249907,3.9925998,1.2528199-.5571163,1.1311896-1.6320067,1.0075013-2.2281658,1.0324726-5.168815.2164813-9.185748-2.9412264-9.9847048-8.1288861-.3861486-2.5074962-.3100861-4.9160362.6556438-7.3194314,1.1790803-2.9342083,3.4976624-4.3262666,6.3788696-5.000358,4.3762796-1.0238813,7.9031191.8461938,11.2362638,3.3758766,3.8417296,2.9157508,7.1391502,6.3792521,9.8768498,10.2970933,1.8390692,2.6318042,3.3248749,5.5306343,4.7634625,8.4114751,1.7344486,3.4733747,1.2953344,6.905095-.7787673,10.1390288-.6235468.9722776-1.3198013,1.8982896-2.1027764,3.0169899Z" stroke-width="0"/>
      <path d="m199.4605717,124.2128343c1.0141418-.0808925,2.0711274-.2694785,3.1184874-.2254303,1.7738202.074577,3.5654996.1670625,5.3056986.4888458,2.1237084.3927051,4.0433584,1.3087321,5.7649903,2.6875166,2.7606044,2.2107892,4.3700443,5.1828851,5.8613908,8.2644783,2.1073007,4.3543035,2.962598,8.9890064,3.4417984,13.7653035.3974887,3.9613076.6295766,7.9006209.3665232,12.1206556-.3695639.273865-.8396371.6221999-1.2012057.8901272q-3.6243751-.1009346-5.7372089-1.3571877c-.2354239-1.2022361-.6234636-2.620097-.7741457-4.0623643-.4013711-3.8416019-.6054971-7.704909-1.0646717-11.5387587-.564418-4.7128839-.9060335-9.4958968-3.0192321-13.8778474-1.1470919-2.3786123-2.6544886-4.4570274-5.3384037-5.2827707-.944512-.29058-2.0174145-.6612089-2.9245489-.4762904-1.9755928.40276-3.7827651.1156561-5.5963292-.588378-.230978-.089672-.4975042-.0884739-.7843123-.135376-1.0721825-1.057773-1.6139405-2.3350203-2.1127827-3.8187986-.9955733-2.9611281-2.0681853-5.9875744-4.3399009-8.3238664-.8106988-.8337546-1.7149565-1.5773706-2.591591-2.3758842-1.0147702-.0944219-2.0250019-.1884216-3.4193384-.3181613-.9884172.640462-2.2305478,1.4453-3.3258712,2.155017-.2413628.8700216-.4147807,1.495116-.5773756,2.0812055-2.1767509.9738979-4.0583383.8777595-5.8238227-.7134901-.4275861-.3853989-1.1713951-.4229215-1.6106708-.5678944-2.1183324,1.6125028-2.2161211,4.3515967-4.259886,5.7417092-1.7280979-.2456717-3.5648538.121856-5.0636864-1.1452908-.1729522-.4502252-.3501929-.9115927-.5926843-1.5428777.5095524-1.0788606,1.0670455-2.2592821,1.7193506-3.6403671-.4209681-.8885994-.941967-1.9883337-1.5116408-3.1908054.1233238-1.3253844.25564-2.7474119.4163134-4.4742002.6778352-.817751,1.4073057-1.9578315,2.3828824-2.8227554,2.3082189-2.0464381,6.2216919-1.4258717,7.7556508,1.2335688,1.179754,2.0453243,1.9132961,4.2263855.4259634,6.6212432.7068449.4254131,1.3143061.7910405,2.0261916,1.2195116,1.5809928-1.166095,3.0766349-2.4708333,5.0255314-2.692109,1.891425-.2147483,3.8121341-.175259,5.9344472-.2555259-.0725696-.4065313-.1633061-.9146822-.2934829-1.6438947.3218093-.5424558.7343987-1.2378924,1.1910572-2.0076712.8100279.0350491,1.5433509.0667901,2.4155056.1045195.0257778.6687742.0475309,1.232873.0755744,1.960969.3827396.2495477.8433712.5498897,1.3760229.8971929,1.3586336-1.2064887,2.3300976-2.4515914,2.3968308-4.432882-.7758848-.0264773-1.4933779-.050963-2.289347-.0781309,1.2090624-2.6516601,2.0150616-3.0780152,5.0984976-2.6857692.5286366.6458182,1.1676145,1.426435,1.6730999,2.0439463.6017595,4.0230704-1.8187335,7.4043235-5.3419062,9.091006,1.3021728,2.0061459,2.4305686,4.0819907,3.2684464,6.3268483.7995682,2.1421699,1.0517516,4.5067008,2.5537908,6.5811138Zm-29.8218944-17.2578483c-.5297684-.6031986-.6975945-1.460601-1.7084855-1.4384086-.5270671,1.5237964-.3849483,2.8586251.6996131,4.0430737,1.1035382-.5767781.9036515-1.5678809,1.0088725-2.6046652Z" stroke-width="0"/>
      <path d="m129.3477119,319.5953709c-.1902968.1687576-.3788463.3359725-.6532698.5793447-4.3237101.0659891-7.8976328-1.9719566-11.2445459-4.4687994-2.8217475-2.1050618-5.3640329-4.5364305-7.5549587-7.3012134-2.8725284-3.6249717-5.9291204-7.1307719-8.5083645-10.9539848-2.9193206-4.3272798-5.4950543-8.895403-8.0438444-13.4563993-3.4320669-6.1415633-6.4493947-12.4937855-8.9284235-19.0803294-2.6093058-6.9328071-4.5445151-14.0640155-5.4128093-21.4150538-.3463282-2.9319395-.5027189-5.9178273-.4045935-8.9197506.0703967-2.1531982-.0243336-4.327652.2622247-6.4700693.239181-1.7880355.7654294-3.5143864,1.3758172-5.2314821.3548368-.9981486.9259803-1.4997781,1.8372495-2.0526051.3132981.3261488.5884113.6125308.8759324.9118181-.0505365.5431256-.0929024,1.0421161-.1439845,1.5402337-.3058017,2.9811112.0186321,5.9487156.1063977,8.9267918.2101858,7.1319562,1.9204882,13.9850819,3.894344,20.7417799,1.5453186,5.2897861,3.675839,10.412648,5.9203482,15.4865245,2.514849,5.6849951,5.254503,11.2373398,8.3224218,16.6313462,2.8749256,5.0547437,5.7739742,10.100074,9.1895593,14.8278556,2.5931399,3.5893637,4.9527143,7.3646974,7.7619246,10.7750516,2.52661,3.0672185,5.3550244,5.9523981,9.0933108,7.6744107.658822.3034511,1.3430338.5522464,2.0015276.8563801.1181966.05456.1678065.2565231.253736.3981503Z" stroke-width="0"/>
      <path d="m261.2365073,158.9371694c-2.0451232-.5608815-4.0316491-1.0891812-6.0083669-1.6516039-3.1697094-.9018419-6.3298559-1.8371785-9.5000271-2.7374045-2.2234195-.6313737-4.4927821-1.1230815-6.6760791-1.868045-2.4261779-.8278678-4.9512487-.8000829-7.4253007-1.1954359-1.9765225-.3158526-3.708365-1.1478057-4.5082246-3.3082647,1.2052667-.6151533,2.3722214-.8406502,3.6455669-.7965185,3.2075955.1111267,6.2463558,1.0052643,9.2220896,2.0506399,4.1159501,1.4459403,8.2125533,2.9324643,12.4296076,4.0719638,3.5818283.967845,7.1766902,1.9080681,10.7004194,3.0592038,1.3766736.4497579,2.5990001,1.4056666,3.8357445,2.2156584.2695478.1765093.3003074.7147663.482297,1.1953802-.7426619.6395946-1.410371,1.2648474-2.1290675,1.8252681-4.1079205,3.2031895-7.4295613,7.1006178-10.5303799,11.2631297-3.4070038,4.5735339-6.9160226,9.0723875-10.9961846,13.1225354-3.9206821,3.891793-7.7663574,7.8469789-12.1113989,11.2785325-5.770632,4.5574155-11.9707754,8.3669127-18.8789931,11.0222176-6.875467,2.6426948-13.934597,4.4623089-21.248939,5.3867333-5.789825.7317637-11.5643366,1.5887865-17.3357876,2.4550854-3.1188005.4680931-6.2255594.8733743-9.394662.6511106-1.1481327-.0805387-2.3191583.1696314-3.467708.0915653-3.5865728-.2438074-7.0525838-1.1822264-10.5664166-1.8674123-3.356857-.6546431-6.53154-1.7319556-9.6821077-2.9852722-3.4904112-1.388557-6.4389991-3.4363728-8.5315141-6.606164.5728744-1.1906017,1.5690108-.5557131,2.5352561-.5639683,1.066817.9183092,2.1784153,1.9092442,3.3266068,2.8561465,2.0968217,1.7292177,4.7042098,2.3735301,7.206771,3.1567887,3.5545135,1.1124688,7.1126227,2.2592537,10.863123,2.6225531,1.1422195.1106215,2.248606.6424917,3.388542.7164078,5.1421502.3334853,10.2759212.1669789,15.3723187-.6256791,5.19401-.8078833,10.3789906-1.6726793,15.5678742-2.5128197,3.5720453-.5783405,7.1429475-1.2059768,10.5863942-2.3159584,4.0846979-1.3166789,8.1897921-2.6239723,12.1462499-4.2683079,6.0001662-2.4936635,11.8115657-5.3894158,16.7513641-9.7301642.5072243-.445722,1.0276765-.8786482,1.5637754-1.2892987,5.0073031-3.8352708,9.2087905-8.4530245,13.1099053-13.3634792,2.363261-2.9746765,4.4812561-6.1167354,6.539966-9.306741,2.3372546-3.6215824,4.7838151-7.1688603,8.0556366-10.0623149.6049715-.5350213,1.0520182-1.2470174,1.6616491-1.9860678Z" stroke-width="0"/>
      <path d="m151.6816087,316.7263859c.0753028-.8092937.137479-1.6200878.2279181-2.4277251.924172-8.2514777,2.2933127-16.4516306,2.8569396-24.7447175,1.507334-6.2337603,1.690977-12.6345901,2.1180217-18.9761859.3257244-4.8366758.7685318-9.6836337.8392363-14.5263036.0377797-2.5861489.3706506-5.1672258.2479901-7.7316243-.1244665-2.6028887.3009218-5.1698693.2140979-7.7375373-.1748924-5.1738361-.0572571-10.3244219.4563694-15.4706239.0751812-.7534339.1409853-1.5078334.2052507-2.1985057,1.1648403-1.516402,2.2483418-.7104684,3.3460546-.0013743,1.1855993,2.3037991,1.3503943,4.8625065,1.5843738,7.3845234.3349167,3.6103219.5517533,7.2262444.6204997,10.8600437.0578498,3.0584481.1376056,6.1144078.1731299,9.1744992.0320335,2.7629244-.3464668,5.5043924-.262107,8.2377701.2136074,6.918805-1.0897854,13.7034949-1.5241053,20.5607096-1.0690886,2.9599762-.8672038,6.1073858-1.3633327,9.1511525-.1984903,1.2178565-.559745,2.4084763-.7863993,3.6227821-.2120145,1.1359541-.3329117,2.2578767-.7370957,3.3860885-.4928774,1.3759056-.6155808,2.8991133-.935481,4.3541473-1.1339707,5.1579937-2.9152751,10.0696314-5.0956671,14.8531972-.3889895.8534638-1.0089734,1.6023716-1.5223029,2.3995257-.2211312-.0566036-.4422625-.1132072-.6633909-.1698415Z" stroke-width="0"/>
      <path d="m244.2579236,62.7430528c1.5010779-.9809509,2.1328786-2.495095,2.3264521-4.1159474.4296055-3.5969396.7197467-7.2111424,1.0273282-10.8216761.136778-1.6055264-.354547-3.074374-1.1326873-4.4434549-3.367944.5987501-6.6579668,1.1930927-9.952984,1.7591125-.4868936.0836456-.9995051.0698446-1.4961076.0376124-1.1823379-.0767298-2.3605648-.2217378-3.5433686-.2854268-4.2857612-.2307403-8.2814228-1.6651858-12.3286638-2.9000609-2.2858139-.6974454-4.6220826-1.2415451-6.8797303-2.0164558-2.0162273-.6920415-4.0845868-.9305709-6.169728-1.0175279-4.6589883-.1942884-9.2102526.5621935-13.6763988,1.8242882-1.4276927.4034506-2.7970404,1.0065224-4.2122476,1.4588592-4.6303864,1.4799781-8.7701226,3.9079262-12.8148169,6.5213069-.340281.2198737-.6177964.5359673-1.0362874.9062631.3816289.4000436.690563.723895,1.1264697,1.1808527-1.5204778,1.5037121-3.9219529,1.4308055-5.2299376,2.9999522-1.705331-.0730023-3.3316089-.0417582-4.4932974-1.459255-.5512377-1.0990598.1016146-1.9813238.7236459-2.70471,2.749762-3.1976288,6.0197261-5.7263968,9.9146368-7.4475848,5.6981205-2.5180398,11.6577109-4.025744,17.8124466-4.9355118,4.7400827-.7006759,9.4720685-.8939714,14.1931035-.124169,2.4386178.3976445,4.832012,1.1176571,7.2144586,1.8007006,2.926274.838954,5.8123603,1.8162957,8.7302269,2.6856972,1.8161413.5411255,3.6427462,1.0688615,5.4943101,1.4645751,1.9776402.4226527,3.9859967.082781,5.953039-.1621529,2.607031-.3246048,5.1854173-.8718323,7.7803598-1.2977856,1.5068719-.2473443,2.9129682-.0592441,4.3801809.5450184,1.300758.5356937,2.0250989,1.3420348,2.5285654,2.5431752.4882453,1.1649209.7772147,2.3472656.652285,3.616614-.2971272,3.0192484-.50161,6.0505586-.9047133,9.055435-.2860389,2.1326526-.8350037,4.2301516-1.2533829,6.2783493,1.8972644,2.1998157,1.7210068,4.7550888,1.8722094,7.7269525-.2613294.6130388-.6366019,1.7996878-1.2422027,2.8552095-1.6966641,2.9571119-4.2317653,5.1707404-6.9501282,7.1299502-2.0147802,1.4521143-4.1894183,2.7001692-6.3631861,3.9144399-3.4774102,1.9425465-7.1941489,3.3372887-11.0227996,4.4320463-1.5478671.4426053-2.7480719-.187444-3.945127-1.4313478,1.3257226-.6596767,2.512497-1.3709455,3.7851516-1.8619087,4.7394097-1.8283527,8.8717499-4.5914868,12.6917319-7.8819746,2.0895547-1.799893,4.1202269-3.5824452,5.647626-5.9667925,1.5868496-2.4770705,2.1091789-4.9412795,1.3071388-7.7322736-.202472-.7046088-.3454804-1.426109-.5135712-2.1303945Z" stroke-width="0"/>
      <path d="m117.2931617,227.8575536c.4012232-.3112257.8555452-.6636461,1.3473414-1.045135.5555675.3672634,1.0283878.6798548,1.4583211.9640547-.3127662,3.818033.4239739,7.4830134,1.1485809,11.0879554,1.370082,6.815981,2.986291,13.5881098,4.6850442,20.3324183,1.5610027,6.1973985,3.2945806,12.3545806,5.0823826,18.4919421,1.721476,5.9097211,3.4501535,11.8262202,5.4682955,17.6392462,2.1351807,6.1501201,4.0398746,12.3913731,6.7051241,18.3524482,1.5869433,3.5492232,3.1685385,7.0986928,5.3275146,10.3608001.2621877.3961773.2068519,1.0005873-.1199663,1.7381102-.8961713-.8211513-1.8764853-1.5690227-2.6739058-2.4762019-3.3821327-3.8479706-6.0485512-8.1702595-8.2304807-12.7836244-1.7307452-3.6594323-3.4999527-7.3101344-5.0078221-11.061904-1.4103657-3.5092912-2.5054668-7.144304-3.7280427-10.7278037-.9292346-2.723751-1.9086417-5.4330712-2.7444054-8.185269-1.263425-4.1605836-2.5058618-8.3310273-3.6029822-12.5370616-1.4458738-5.5430836-2.8657161-11.0986895-4.0623784-16.6983605-.8892051-4.1610161-1.68941-8.3593283-1.773403-12.6489074-.043474-2.2207808-.239284-4.4384663-.3059257-6.6592635-.0169604-.5654046.1685206-1.1444348.3107538-1.7046384.1826477-.7194365.4155587-1.4261659.7159541-2.4388057Z" stroke-width="0"/>
      <path d="m92.4754804,219.4822864c2.7717718-.6268528,5.3274126-1.2089226,7.8850455-1.7822806,3.3549367-.7521408,6.3901792-2.2058144,9.3038082-4.0011315,3.2474213-2.0010129,6.0804223-4.5120181,8.9355768-6.9891818,1.8475445-1.6029889,2.9048244-3.7665215,3.5925282-6.1010194,1.1938753-4.0527488.6226019-6.0265421-.0785068-9.93155-.6976777-3.8858222-1.6446336-7.7032967-3.1671-11.3632854-.9163715-2.2030028-1.5555341-4.5805819-3.9583611-5.7629898.8594436-1.0116094,1.7030944-.7891999,2.6069617-.3735604,1.8355977.8440877,3.2209512,2.2456085,4.0884077,3.9567073,2.6185444,5.1651243,4.2114733,10.6915836,5.1710127,16.3799099.5521649,3.2732344.3666307,5.5285931-.8088582,8.5485389-.9268642,2.3812929-2.3897557,4.5405852-4.3206514,6.2495139-3.7014079,3.2758952-7.4879916,6.457454-12.0325256,8.5780626-3.1543436,1.4719223-6.3784418,2.6891278-9.861576,3.1670376-2.1967676.3014431-4.3611309.8905275-6.5636775,1.0782025-1.7353957.1478628-3.5090278-.0935659-5.260002-.233112-.2568041-.0204535-.4822763-.4347009-.7853978-.7278126,2.9853999-2.6483154,5.2432821-5.7948915,6.7222201-9.4094776,1.206192-2.9479632,2.2063655-5.992624,3.0973531-9.0524672,1.1921726-4.0941904,2.4460689-8.1520822,4.1833118-12.05904,1.3946687-3.1364853,2.6575546-6.3311202,3.9795963-9.4996789,1.5306466-3.6684518,3.5494106-7.045135,6.1780924-10.2330318,1.4922154-.0367809,3.0615259-.159791,4.2600729,1.0565332-1.9969548,3.4555584-4.152068,6.7629239-5.8821758,10.277929-2.5644909,5.2101268-4.8584395,10.5539445-7.2074854,15.8672269-1.3903121,3.1447195-2.3574039,6.454513-3.5471653,9.6678424-1.559098,4.2110124-3.362727,8.412914-6.4819216,11.8354708-.0838113.0919757-.0241476.3135704-.0485828.8566442Z" stroke-width="0"/>
      <path d="m143.7756383,73.2452706l-2.7879629-.2594133c-.7339721-1.1215197-1.6893654-1.9539794-3.0314486-2.5643028-3.3049059-1.5029746-4.8445183-4.4959119-5.396183-7.867564-.436993-2.6707559-.5989845-5.4145505-.3462914-8.1448506.2871382-3.1024962.5752041-6.2049215.8531088-9.3082536.1765897-1.9719756,1.1504474-3.6219984,2.3253475-5.0990879.6366583-.8004292,1.7000358-1.2642103,2.8400934-2.0701436.4306011-1.0496597-.0159892-2.7872587,1.7468279-3.9557515.4381947-.0637992,1.240618-.1806305,2.1547175-.3137271.296226.1801311.7147537.4346288,1.4154328.8607084.5748195,2.4074185,1.1993734,5.02316,1.9245788,8.0604089,1.1863574,1.5509822,2.6850887,3.4106024,3.8668528,5.568197,1.4098746,2.5741106,1.9654268,5.2674165,2.0125674,8.042017.0813985,4.7927121-1.2077958,9.342245-3.3556137,13.6119026-.8447768,1.679311-2.2955995,2.8432402-4.2220273,3.4398605Zm-5.6174264-31.0297933c-1.459773,4.5751534-1.0963687,8.7315822-.8004631,12.7988152.2945263,4.0482536.9208251,8.145291,3.0253589,11.8085914l2.7941531.2599893c.4183784-1.1509044.9576736-2.3392358,1.2773784-3.583663.4721169-1.8375489,1.0073942-3.702435,1.1143038-5.5786784.1303311-2.2872681-.1700036-4.5978426-.2569461-6.8993357-.0830303-2.1974483-.7828822-4.1528825-1.9595007-6.025907-.7739076-1.2320015-1.7065412-2.4327295-1.8031179-4.0364517-.0413286-.686057-.5581933-1.3440964-.9941088-2.3162035-.9685774,1.4436718-1.7813057,2.6550527-2.3970577,3.5728434Z" stroke-width="0"/>
      <path d="m98.2367701,94.8606177c1.4055568.4310209,3.0206422-.2640979,4.0989309,1.2851304-.8539197,1.5697334-2.4119712,2.2809333-3.9355208,2.7828196-1.3762177.4533371-2.8305285.8854865-4.374527.7115292-.7123342-.0802643-1.4616292.1724369-2.1947341.2698832-1.9078705.2536022-2.9804762,1.5460021-3.3722956,3.2105268-.4015971,1.7061847-.5223726,3.5107255-.506627,5.2701138.0099216,1.1099421.4958703,2.2160421.7835246,3.3857461,5.8288183-.9418222,11.4802301-2.0664471,16.1783318-5.7856018,4.6261438-3.6621969,8.5267028-7.8691992,9.9687555-14.0352573-.1805091-.8947964-.4012606-1.9891495-.6166026-3.0566295-.9537531.0292917-1.6842071.1620048-2.3705211.0423978-.7139564-.1244113-1.3852417-.4925514-2.1882982-.7969747-1.2813902-2.7003991.0651116-6.3026901-2.6716901-8.7222692-6.0574991,2.0102313-9.9132169,6.3951426-13.0516408,11.790481.5981578.2624607,1.0824551.4749661,1.8172126.7973577-1.7488233,1.4469953-3.4721081.7509894-5.3060095.6750076-.3159452-.3897384-.6845073-.8443674-.9808859-1.2099461.0091221-2.749561,1.4176807-4.7844474,2.8862923-6.613469,2.6345818-3.2810916,5.7785288-6.0718811,9.9606495-7.2921384,2.5670001-.748998,5.1071721-.9313796,7.7828076.0839178,3.229924,1.2256183,3.8233593,3.7405426,3.9594787,6.2138449.0549356.9980012-.1627349,2.0106646-.2710127,3.174347.4675868.1128041.9209998.2363658,1.3804399.3306304,2.2314398.4578252,3.3986197,1.9898385,3.3440831,4.241-.0690927,2.8508862-1.2245639,5.3255333-2.8271004,7.5434691-1.7471386,2.4180436-3.7281515,4.689019-6.0569641,6.5898016-3.3152693,2.7059242-6.9632279,4.7545908-11.2785102,5.4870576-2.751276.4669911-5.3660691,1.5656351-8.1628008,1.8601479-.8998192.0947544-1.8014771.1724555-2.5615155.2445915-.8868243-.533206-1.5954744-.9592986-2.4217669-1.4561153-.4190861-1.0398529-.8796395-2.1825942-1.3473263-3.3430521.1535101-1.6498027.047776-3.3954112.5202818-4.968389.8786463-2.9250344,2.9902684-4.8340736,6.0973718-5.0817397,2.7495616-.2191414,4.8089242-1.6488687,6.9339774-3.0849322.2088904-.1411693.4146012-.2869907.784212-.5432869Z" stroke-width="0"/>
      <path d="m245.0321853,104.4084529c-1.664204.1014839-2.943254-.0068474-4.1132513.2982043-1.4464527.3771491-2.8298882.1533468-4.2351334.0391022-2.44442-.1987368-4.8902291-.4099893-7.3226027-.7174405-1.812996-.2292013-3.6056929-.8713456-5.4074583-.8728396-2.3010173-.0019057-4.6507598-.2907546-6.9215747.3058031-1.822061.4786837-3.310363,1.4434838-4.2927069,3.5250821-1.159839.9552733-2.7558126.3050638-4.409909.199522-.5796314-.4401475-1.2194137-.9259659-1.8859527-1.4321328,1.4553331-3.031237,4.1262304-3.9180586,6.8819992-4.6691184,1.5640322-.4262343,3.1500272-.261841,4.7311537-.1083805,2.9463393.2859473,5.96599.2729753,8.8158281.9594733,2.4740991.5959909,4.9626191.7317672,7.4349717,1.1309926,3.6854539.5951486,7.2980163.2637816,10.8322727-.8535784,2.0108836-.6357811,3.8871128-.671153,5.7695558.8224617.0290084.3442196.2309959.8779921.0839337,1.2871084-1.3013867,3.61979-2.5725941,7.2375359-4.7231174,10.5049444-1.8767931,2.8514288-4.5954431,4.2199971-7.7463767,4.7934628-5.720069,1.0410185-11.5040821.8936948-17.1904793-.1290264-3.2883121-.5914174-6.6313887-1.388471-9.5137745-3.304541-.3380584-.2247099-.6480356-.5012052-.931064-.7922148-.0863742-.0888205-.0390794-.3066019-.068105-.6375839,1.227621-.3306175,2.5850194-.2450089,3.6292297.2241352,3.4718088,1.5598652,7.1615585,1.6643868,10.8168416,1.8494925,2.2016014.1114821,4.4382988-.243915,6.6444948-.5098017,3.1697121-.3820297,5.6090226-2.2014052,7.5949241-4.4877692,1.9367173-2.2296746,3.5497215-4.7381612,5.5263007-7.4253576Z" stroke-width="0"/>
      <path d="m89.2120248,9.0445665c1.4255291,1.0227926,1.9953952,2.0893252,1.9978605,3.5414582.0073696,4.3248876-1.4901887,8.0939057-4.1356394,11.4590095-2.8075276,3.5712826-5.7276512,7.0614512-8.3931527,10.7349179-2.6603548,3.6663494-4.7484877,7.693838-6.4138926,11.9057486-.9579684,2.4227281-1.0205232,5.0440413-1.3011805,7.6113426-.4615654,4.2218874-.0810385,8.4014656.2738868,12.6132091.2622869,3.1129015,1.169478,5.9348329,2.4368075,8.7138856.1512787.3317382.2432333.6902481.5051774,1.4491615-1.4341041-.6828026-2.2752669-1.4145638-3.0751311-2.2061201-2.4739784-2.4482512-3.6546716-5.5824123-4.1802216-8.8633941-.6795413-4.24239-.9724626-8.5438441-.4077179-12.8563469.3984389-3.0426016,1.3102226-5.9321912,2.3226642-8.8103297,1.3999267-3.9796662,3.4218837-7.6647694,5.7403252-11.136542,2.0563821-3.0793095,4.5029899-5.9184048,6.9450914-8.7184422,2.2340216-2.5614834,4.6053069-5.0154512,6.1820815-8.0465812,1.0172466-1.9555165,2.0673915-3.9873138,1.208679-6.3474567-.0660287-.1814695.1189409-.4532874.2943623-1.0435202Z" stroke-width="0"/>
      <path d="m10.7370917,109.4134858c3.9652608,2.0224718,6.9150635,5.1934804,10.3008723,7.8067077,3.2103074,2.477807,6.516927,4.7881105,10.4426821,6.0746451,3.9961007,1.3095748,7.990102,1.3374543,12.0629547.4092979,2.4709573-.5630525,4.8369064-1.294792,6.6128865-3.1782297.9543779-1.0121085,1.7157177-2.2046917,2.6303389-3.402499.9338825.1685318,2.1119109-.2104483,3.0339087,1.0184039-.1364429,2.5798674-1.6376918,4.5128196-3.8053986,5.8510465-2.4792362,1.5305693-5.2504287,2.3555206-8.2139494,2.4603898-2.0621537.0729665-4.1208646.3333377-6.1809141.3296385-.9615331-.0017241-1.9107642-.5429693-2.8860547-.6460112-3.6089422-.3812568-6.906535-1.7236115-10.0214716-3.4206897-2.9796849-1.6234135-5.6931776-3.7043727-8.2392446-5.9567911-2.7341628-2.418822-5.3811585-4.9445154-8.5700467-6.7793314-.7677481-.4417457-1.3149452-.9625578-1.6822433-1.8194215.9848119-1.1028189,2.3057664-1.3984907,3.5767903-1.6254349,2.1834427-.3898381,4.3952891-.8272304,6.5991316-.8470166,2.6600077-.0238642,5.3029732-.178171,7.9550292-.2963017,2.6673388-.1188015,5.362875.2802467,8.0219658.1014891,4.7520859-.3194528,9.4136631.4427476,14.0876603.9406076,2.6993505.2875215,5.339529,1.1493933,7.9949303,1.7991344.2673336.0654293.455541.452444.6840773.6940305-.9932736,1.154182-2.2432388,1.0697954-3.5261666.949926-5.6478658-.5276598-11.2893478-1.2166338-16.9499633-1.4750695-2.7944235-.1275609-5.6460921-.4512534-8.4570811.0873531-.1609506.0308339-.3368036-.0211536-.5059556-.0255915-2.6759343-.0701213-5.3530213-.2186375-8.0275196-.1834561-2.2980578.0302118-4.62876.0553243-6.9372187,1.133174Z" stroke-width="0"/>
      <path d="m123.4152716,127.7565803c1.0045707.3457763,1.858886.6398231,2.6139251.8997045,2.5041004,2.0333232,3.7934111,4.5065257,2.4284414,7.5410395-1.3749003,3.0565645-3.3564344,5.5965375-7.5871013,5.1200851.8939401,2.1503929,1.9117571,4.1078806.6040611,6.2060697-.9127313,1.4644869-2.0885628,2.5752351-3.6096564,2.9909854-2.3724158.1758842-4.182823-.354073-4.9851692-3.1360886.0738713-.7939089.1901419-2.0434912.2787231-2.9954902.8048664-2.9030493,3.4192335-2.5902754,5.4086599-3.6760292-2.4994338-1.7384187-3.9487551-4.0970949-4.0440921-7.1107718-.9757081-.135202-1.8004887-.249493-2.6947839-.3734146-.339006-.9272325-.6724993-1.8394107-1.0477981-2.8659033.4544977-.083885.7639553-.1410057,1.0330284-.1906602.409534.4589219.7549957.8460429,1.3237672,1.4833951.2068197-1.1187801.3518951-1.9036452.5964288-3.2264327.7297475,1.1816485,1.2180449,1.9723358,1.7578438,2.8464284,2.2911393-2.5434567,5.3530476-2.5863697,7.9237224-3.5129171Zm.7517206,9.8217875q1.929087-3.1487071.4693525-6.2751841c-2.110914-1.416448-2.6837483-1.4679505-4.2410389-.4043076-1.9407013,1.3255072-1.9303108,3.0883969-1.1285994,5.0678038.7997509,1.0119915,1.5492843,2.149175,3.078762,2.3633899.5914137-.2440604,1.197886-.4943314,1.8215239-.751702Zm-7.3029898,10.4690616c1.2153824-.6713233,1.8741948-1.658473,1.7592985-2.9931872-.0725098-.842596-.6900257-1.2998022-1.6193191-1.0730269-1.1530661,1.252141-1.3518095,2.550029-.1399794,4.0662141Z" stroke-width="0"/>
      <path d="m57.5498677,177.5071035c-2.7947141,4.2168989-6.1127138,7.4905037-10.2021846,10.1004854-2.5344308,1.6175495-5.0023025,3.2957369-7.9195491,4.07769-2.530528.6783207-5.1131382,1.1850967-7.6941901,1.6501919-2.1476953.3870253-4.1861998,1.0559231-5.9769398,2.2560938-2.0813165,1.3949122-4.0368098,2.9757802-6.0483702,4.4739498-.5792292.4313948-1.1635461.8560533-1.8342695,1.3490372-.5482805-1.3794267-.219837-2.4112842.4983132-3.2478866,3.286634-3.8286919,6.8573866-7.2680643,12.1890844-8.0283794,1.5446823-.2202856,3.1156426-.3012853,4.6394554-.6147295,2.9616827-.6092286,5.56796-1.9983914,8.0513144-3.710608,3.6259563-2.4999768,7.3428988-4.8694982,11.030748-7.2799404.5525943-.3611819,1.1326204-.7109438,1.7480042-.9360001.4051374-.1481316.8963989-.063184,1.5185837-.0899039Z" stroke-width="0"/>
      <path d="m130.9523448,100.5355472c.7213027-1.1383136,1.4426041-2.2766118,2.0824705-3.2863907,1.652522-1.4416781,4.3087858-.7556894,5.3418172-2.9941386.8525678-.3239065,1.6968223-.6446489,2.5599774-.9725622.7036307.2877617,1.3809668.5647674,2.2054221.9019388,1.2313425,1.0417479,1.8362955,2.4902562,1.8298137,4.26111-.0095318,2.6062021-1.0523415,4.7840722-2.5724285,6.8190764-.8600719,1.1513992-1.8021926,2.1840573-3.2070565,2.6253034-1.0043083.3154148-2.0489224.5039119-2.9381942.7162421-4.5800693-1.2563087-5.7101217-4.4025703-5.2450145-8.1191647l-.0568072.0485855Zm4.2185405-.8306853c-.1211744,1.3022841-.221857,2.3843394-.3360053,3.6111135.3425651.4063691.72072.8549611.9791769,1.1615432l1.7498673.162821c2.2198481-2.0297948,3.4355158-4.4559143,3.3875298-7.5408841-.2358087-.2698577-.5040705-.576825-.7771567-.8893416-2.3785171.2466436-3.7936416,1.704148-5.003412,3.494748Z" stroke-width="0"/>
      <path d="m237.7605735,52.7143481c.1608299,2.4768185-1.0075766,4.4184405-2.6221259,6.114188-1.9505492,2.0486669-4.5493428,3.0565209-7.1535431,3.8975763-2.987517.9648553-6.1213628,1.131443-9.2605946,1.2896466-3.019525.1521884-6.103754.3273848-8.8771016,2.2754323.0603287.2746906.1357907.6183415.2389112,1.08778-1.0309506,1.0888755-2.1969982,1.9137452-4.0741465,1.425845-.2734878-.5428128-.6025411-1.1959727-.9967901-1.9784749.5488874-.8325707,1.020474-1.8263748,1.7406458-2.586726,1.9503772-2.0592014,4.3345426-3.2410745,7.2607523-3.2592218,2.81201-.0174332,5.6372669.0051689,8.4313636-.2561734,3.730352-.3489083,7.3189683-1.3185329,10.3552718-3.6571309,1.7165556-1.322102,3.4980146-2.592045,4.957357-4.3527413Z" stroke-width="0"/>
      <path d="m106.4162289,140.7257533c-.2664829.3896331-.5422581.635484-.6219443.9334689-.890739,3.3309432-3.1875172,5.0410647-6.449888,5.7800065-2.8309875.6412482-5.0707207-.6041479-6.9503241-2.3356171-2.9439494-2.711977-2.7040256-6.5601037.4159137-9.0801587,1.0173869-.8217813,1.6080786-2.0408775,2.970399-2.5762913,1.7057571-.6703889,3.3955353-.8325264,5.1800645-.2081948,1.908152.667599,3.4248849,1.8369162,4.3543364,3.5392266.6066561,1.111084.7167533,2.490681,1.1014427,3.94756Zm-13.2627957-1.0777286q.5142906,2.3286611,2.859649,4.7135536c.9126385.2999542,1.6906125.5556601,2.4665777.8106985,4.056795-1.0922719,4.7135663-1.8431206,4.7302819-5.6682991-.9383073-.8919188-2.0071385-1.9078952-2.8636184-2.7220358-1.0441932-.0971597-1.7154427-.1596178-2.3866921-.222076-1.9694655.3641863-3.351021,1.6568754-4.8061981,3.0881588Z" stroke-width="0"/>
      <path d="m226.6133544,172.9313279c.6850233-2.5553637,2.3795075-4.1804387,4.3312747-5.432597,5.4637766-3.5053028,11.331735-6.1256766,17.7562351-7.3676377,2.3425532-.4528559,4.6687985-1.1461229,7.0734132-.6969727.4410343.5260179.856395,1.0213858,1.2403306,1.4793056-.1567688.2466924-.2471563.5008792-.3263677.4973999-2.568279-.1122857-4.825364,1.05829-7.1556557,1.8117798-4.7155523,1.5247622-9.385062,3.2006329-14.0259439,4.9399992-2.8797344,1.0792937-5.7219774,2.2961726-8.0616366,4.3970291-.2147258.1928388-.5515425.2509793-.8316496.3716938Z" stroke-width="0"/>
      <path d="m69.0452336,85.9637172c-1.2662998,2.7828495-3.1066803,4.4997818-5.9311866,4.0788736-3.4732337-.5175776-5.2405364-2.8680926-5.3756016-6.6588246.1466518-.4413532.4045104-1.2173984.7273966-2.1891116.3487131-.3021284.8003269-.8495124,1.3806136-1.1542153.6370249-.3344747,1.4871682-.7655277,2.0783603-.592033,1.6094866.4723507,3.2806505-.2084657,5.2727678.6954997.5729358.8434425,1.4039663,2.0668068,2.1013349,3.0934094l-.253685,2.7264019Zm-6.5189267-.948308c.6044253.2923281,1.083363.5239455,1.6160739.7815877.4081862-.6668566.7355799-1.2017236,1.0546396-1.7229953-.4407118-.7627578-.8262278-1.4299381-1.281975-2.2186973-.5383532.3952173-.8599473.6313014-1.1749573.8625567-.0648918.6974041-.1253974,1.3476701-.2137813,2.2975482Z" stroke-width="0"/>
      <path d="m113.1291877,160.6439869c.3764612-.8739457.6669197-1.548191.9399263-2.1819708.7219735-.6496894,1.4089924-1.2679366,1.6987506-1.5286865,1.8052992-.3345198,3.0877345-.5721531,4.3701698-.8097865-.0111479-.0672795-.0222957-.1345591-.0334281-.2018371l2.3201584.2158852c.5530427.4705388,1.3821846,1.031615,2.0246044,1.7566656.9436907,1.0649937.9955982,1.6480674.7933046,3.6390836-1.3180735,2.3998172-3.0202073,4.2162101-5.6826738,5.0341788-.9562078.2937998-1.67514.317579-2.5861016-.1751014-1.8684455-1.0104941-3.2369947-2.2917331-3.4662264-4.5146988-.0410136-.3977661-.2348492-.7800182-.3784842-1.233732Zm3.7334876-1.2603117c-.3040104,1.6155993-.4519291,3.0890076.8580998,4.3500585l1.9899907.1851639c1.2657958-.836106,2.2283735-1.7122696,2.6335846-3.2026021-.1837014-.4491636-.3978993-.9728639-.6101318-1.4976061-2.1421158-1.2186711-2.4399848-1.2131342-4.8715433.1649858Z" stroke-width="0"/>
      <path d="m107.0779883,159.915913c-1.3189882-.3702264-2.5017254-.7022112-3.6138721-1.0143732-1.8106808-1.696733-2.7767736-3.6983803-2.1876341-6.0403906.5496045-2.1848659,2.0687005-3.6954812,4.4860183-4.3840567.8224554.0765275,1.8265123.1699526,2.8420543.2644464.4242919.2290286.8673851.4457613,1.2884044.6989174,3.9869446,2.397635,3.4608527,5.9448174.4163107,8.7479723-.8155669.7509091-2.0103898,1.0935078-3.2312815,1.7274845Zm-3.3566958-7.5066623c-.0641518,2.0976291.1533126,2.7587532,1.4380261,4.606141.7973084.0741876,1.6246728.1511719,2.4835133.231085.6515587-.564637,1.2823019-1.111228,2.0725337-1.7960199-.1452252-.9870088-.2971069-2.0192842-.428492-2.9122227-1.0595493-.6014901-1.9129777-1.0859648-2.848516-1.6170685-.9858522.5399343-1.9082904,1.0451215-2.717065,1.488085Z" stroke-width="0"/>
      <path d="m148.8923017,192.4846449c-1.0897685.871243-2.100165,1.8742635-3.2878864,2.5828242-1.7863169,1.0656173-3.4419894.6107037-4.9507567-.8615976-1.86629-1.8211681-1.9765212-3.9461695-1.3502816-6.4161426.4018385-.3123156.9118368-.7086985,1.3756611-1.0691953.2834805.2046561.5128798.2851898.5266906.3929616.2204588,1.7200074.6539953,3.369477,1.4389581,4.863368,1.6608086.4693283,1.7704616-.9571333,2.4240484-1.7358418-.1676788-.4787863-.3299677-.9422041-.5283631-1.5087247-.4978999-.1073153-1.0516209-.2266767-1.7207279-.3708973l.1436497-1.5438304c2.1403847-2.0866262,2.7205438-2.1218762,5.6411294-.3245047,1.38924,1.8818558,1.2374441,3.7650844.2878784,5.9915807Z" stroke-width="0"/>
      <path d="m71.8954592,121.8299075c.0654508,1.3426704.133414,2.7366554.1939549,3.9784746-.2587263.3845879-.3930671.5905493-.5336267.7922269-1.5982348,2.2930272-2.8408654,2.6820413-5.2329959,1.3824995-2.1041595-1.1431457-3.5223868-2.8913541-4.273571-5.2228499-.5217536-1.6194178-.2745526-2.897744,1.1985997-4.1552304.5390105.0930491,1.2252604.2115029,2.0385497.3519005-.2167761,2.7638177.6451723,4.829303,2.943892,6.2958742.8489333-1.5879322.2288945-3.0234114.0125552-4.4983593-.5715247-.7590395-1.1648353-1.547003-1.7912818-2.3789609,2.2471051-.5711693,2.5763559-.3619134,5.4439239,3.4544249Z" stroke-width="0"/>
      <path d="m238.2290034,105.7598791c-.6759825,2.214886-2.1742943,3.2404082-3.6085207,4.1233947-3.019685,1.8591167-6.3649326,2.6999034-9.9584722,2.4084751-2.6660777-.2162145-5.3056812-.4338102-7.7451166-1.7376916-1.1439808-.6114546-2.152358-1.1949442-2.2773984-2.6410266.1902337-.1451531.3897868-.2974229.5779784-.4410453,7.7686848,2.5654245,15.2862979,1.8299766,23.0115295-1.7121063Z" stroke-width="0"/>
      <path d="m49.2502368,116.1248759c-1.2821153-.2427288-2.5579648-.5270259-3.8475031-.7204343-3.9214197-.588208-7.7881774.0372153-11.6459166.6201017-1.7843117.2696102-3.5382693.7322607-5.3156425,1.0548996-.7265035.1318404-1.4785577.1246953-2.3145098.1880313-.2854303-.5456603-.5388995-1.0301813-.7320397-1.3994085.1410573-.338472.1604389-.5563082.2735009-.628215.6952617-.4421003,1.3622156-1.0497815,2.1292136-1.2387169,4.5050695-1.1096101,9.0214587-2.1514441,13.7391626-1.5014683,2.5819977.355758,4.9143759,1.3946615,7.2733702,2.3759384.3124601.129995.4923724.5763722.7336736.8762267l-.2933092.3730452Z" stroke-width="0"/>
      <path d="m152.9331552,113.431345c-.9501125.2045298-1.5887713.3420326-2.1670181.466507-2.049068-.3243701-3.0578713-1.8844027-4.1394777-3.3581479-.5803645-2.0348974-1.0109774-4.0466213,1.0595438-5.9209146.7163102.066651,1.6177136.2147513,2.5191103.2153291.8129746.0005357,1.6469108-.3150744,2.4332422-.2085932.8612475.1166299,1.6784968.5571837,2.3838839.8096701.3351145.7493356.5704168,1.2754803.8373634,1.8723618-.0863088.927577-.1794991,1.9291117-.3106341,3.3384441-.7856298.8364781-1.7903403,1.9062389-2.6160138,2.7853436Zm-1.2196729-5.6142606c-.672157-1.0918941-1.4544977-1.0821226-2.3874842-.8934706-.0679264.7300181-.1341753,1.4420078-.1653098,1.7766161.4516929.8437105.7568033,1.4136497,1.0104202,1.8873792,1.7158146-.5910568,1.439689-1.7678579,1.5423738-2.7705246Z" stroke-width="0"/>
      <path d="m135.4565938,83.6452614c.3483536-1.1634195.6967241-2.326853.9958073-3.3257246,1.7159497-.9022573,3.1333282-1.5195016,4.6381462.0983264-.4151865.5312403-.8060849,1.0313792-1.2272274,1.5702352-.0839119.9123595-.5561628,1.9638409.7650911,2.694603,1.1302902-.3778256,1.7272522-1.3374929,2.2761864-2.5017356-.289526-.4251683-.6066945-.8909519-.9549204-1.4023192.1371847-.1972014.2409533-.5234079.4150698-.5661319.7770717-.1906025,1.5742676-.3002851,2.286083-.425462.5393485.616709.9247483,1.0573867,1.3429262,1.5355299-.1009343,1.0847603-.2014825,2.1653709-.3103466,3.3353548-.9002071,1.6900047-2.2958028,2.9274232-4.2128824,3.5499189-3.1706899.2702121-5.1208778-1.1335751-6.013933-4.5625951Z" stroke-width="0"/>
      <path d="m103.0513534,175.5454674c-.1338307,1.4383038-.2658565,2.8572113-.3765398,4.0467451-1.2238586,2.3493175-2.5133096,4.2823818-5.5194538,3.5676822-1.5772633-1.1503314-2.3875179-2.8540148-2.9744614-4.8113452.182401-1.2691787-.1633602-2.9155038,1.9187654-3.5250764.4434785.7683326.7807144,1.4644129.6835718,2.320833-.1630437,1.4374924.3483445,2.5976758,1.5015255,3.5732879,1.6676563-2.2122797.9225682-4.4934917.4199797-6.8866706-.8551902-.1472574-1.6465063-.2835021-2.4974533-.4300081.2510963-.4317744.4484708-.7711452.6944499-1.1941098.7609706-.301874,1.5997873-.6346252,2.4754187-.9819959.8571569.5297479,1.6945694,1.0472875,2.5631955,1.584133.3745279.9224919.7451032,1.8352526,1.1110018,2.7365248Z" stroke-width="0"/>
      <path d="m129.6231196,180.6217867c-1.9911044-.2279149-4.0957937-.7657832-5.2555041-2.8616876-.8605766-1.5552784-1.3865596-3.2502305.3955723-4.9055963,1.0159952-.4329837,2.2005901-1.241315,3.4356834.1747956-.5513942.718611-1.0877629,1.4176452-1.6940346,2.2077789.3035775.6489989.6126452,1.3097789.9719868,2.078034.8165016.1219385,1.6321277.243749,2.4904147.3719474,1.3652787-.8265858,2.4073647-1.8152478,2.3289141-3.5570464-.3467069-.3877949-.6927336-.7760382-1.2147997-1.3617773.8431518-.4097985,1.4680655-.7135114,2.1100541-1.0255263.6566223.3679229,1.2267587.6873835,1.8221859,1.0210257.5556355,1.03456,1.1013674,2.0518899.4609078,3.260821-1.0037058,1.8946656-2.3661863,3.4030489-4.4528449,4.1393202-.3903593.1377402-.7868563.2582752-1.3985357.457911Z" stroke-width="0"/>
      <path d="m85.2692256,125.7305365c-.3251705,3.0751455-1.5653562,5.4898217-4.0523776,7.216347-1.1321227-.1053413-2.2250661-.2070371-3.5524212-.3305443-.6231724-.9123283-1.3188133-1.9307243-2.0901555-3.0599379.3768271-1.5380394.612163-3.1010106,1.1508991-4.552084.7543596-2.0319187,3.0934825-3.9405939,5.8290334-3.0743902,1.795615.5712903,2.0698173,2.2328001,2.7150217,3.8006094Zm-5.5700317,5.1248389c2.0865446-.2532701,2.4607471-1.8939633,2.8102996-3.3579271.379891-1.5908814-.3514017-2.8630223-1.6678599-3.7669819-1.3204543.1463826-2.3100597.6496762-3.0341008,1.503822.5797883,1.8806093-.2239203,4.1364898,1.8916611,5.621087Z" stroke-width="0"/>
      <path d="m174.7699521,196.0152836c-1.0944254-.1018337-1.8502236-.1721589-2.5683862-.2389822-1.7519324-.7740138-2.7843107-2.1002607-3.2691806-3.8516765.087234-.937521.1722457-1.8511579.25839-2.7769674.6556777-.5675712,1.2875107-1.114495,1.999513-1.7308206.5670334.3054521,1.0447744.5628163,1.4448495.7783368-.4762766,1.0987616-.8883529,2.0494018-1.3050726,3.0107873.7235834.8288733,1.3171517,1.5088082,1.9396471,2.2219127,2.5342026-1.3003272,3.9714901-3.3865978,5.1645486-5.694568-.1113385-.443035-.2232678-.8860784-.3375406-1.3384089,1.3694695-.4608016,1.7410762.5245448,2.3657572,1.2961576.0684276,4.0947368-2.1083131,6.6967564-5.6925256,8.3242291Z" stroke-width="0"/>
      <path d="m199.8466738,120.4341493c.3905163-1.403692.6936921-2.4935702.9653172-3.4699446.9795152-.3821347,1.7388086-.6783668,2.4694705-.9634193,1.4238002.8750362.2625376,1.7197681-.0809607,2.6338784,1.3560034.968099,1.9229443-.2295194,2.8349475-.8653716-.3633673-.5922886-.6918494-1.1277545-1.0974499-1.7889283.3086214-.2812408.6038751-.5503468.9257335-.8436571.847062.0788171,1.6746116.1558186,2.6966064.2509128.4582608.5356666,1.000862,1.1699635,1.3664617,1.597358.1465031,1.9905435-.2453578,3.4511907-1.6477009,4.5152988-1.5058489,1.142671-3.1268986,1.8623954-5.2997357,1.3688174-.8734117-.6788598-1.9073885-1.4825572-3.1326896-2.4349446Z" stroke-width="0"/>
      <path d="m93.0230171,62.5233561c.3271047,2.8406703-.6695392,4.5486606-2.6621314,5.684503-1.8982749,1.0820658-3.2804126-.1607356-4.7834283-1.1891453-1.1934038-2.0555936-1.7319996-4.2532333-.6586022-6.8043484.3086411-.2605354.7532786-.635886,1.233639-1.0413982.5993459.2413251,1.1215182.4515799,1.7088871.6880854,2.6566927-.668899,3.9205089.0141426,5.1616359,2.6623034Zm-1.8460243,1.4278434c-.713788-1.389649-1.5444399-2.1165643-2.7435202-2.4169875-.294586.228629-.5562101.4316687-.7999431.6208163-.3399254,1.4953763-.1165274,2.8062745.8988987,3.8725946l1.6096834.1497772c.3571467-.7682794.6931505-1.4910651,1.0348813-2.2262006Z" stroke-width="0"/>
      <path d="m132.7749546,113.5445368c1.7162584-.1881827,2.7466676.4369813,3.5382476,1.4932784.7419536.9900569.8875194,2.1337193.6282376,3.3159685-.3797221,1.7314739-1.2513311,3.2342803-2.5053952,4.4503438-.9036677.8762657-2.0998293.8677784-3.6551544.3459914-.7304498-1.1227267-1.7098314-2.4676528-2.5126273-3.9099519-.7141066-1.2829748-.5319792-2.5522255.6057659-3.59302,1.3551074.0141768.8975899,1.272453,1.410205,2.348665.1760671-1.1286487.2890585-1.8528458.4141666-2.6548853.7542132-.6524565,1.5144047-1.3100927,2.0765542-1.7963899Zm-2.6735471,5.7790758c.9166324.8132731.9576783,2.2955672,2.3644194,2.502842,1.6243458-1.3200937,1.3842921-3.0266389,1.5433026-4.6396694-.3828362-.3303403-.6761215-.5834084-1.0375104-.895243-.9469283,1.0003222-1.7900937,1.8910384-2.8702117,3.0320704Z" stroke-width="0"/>
      <path d="m109.3344479,53.2662508l1.3508966.1256977c.3233813.6560504.6450841,1.3087201.9629244,1.953535-.4160295,1.6345457-1.5955043,2.4388887-3.2933195,2.8937332-.5653975-.0526089-1.3165183-.1224989-2.0678863-.1922414-.6975945-.4339624-1.3949402-.8680876-2.1118472-1.314381-1.4840967-3.5388707-1.3761563-3.9731679,1.601228-6.214544,1.3601502-.1651909,2.5644538.1890393,3.5947562,1.4233026.0000043.3895244-.0000018.8787289-.0000079,1.3679335-.8848312-.1981895-1.5061681.3145822-2.2283727.6436193.0546509.4580376.0913676.7657684.1248534,1.0464722,1.3003926.5685715,1.7962974-.3134135,2.3970373-.8668812-.1576665-.413527-.2439643-.6398864-.3302622-.8662459Z" stroke-width="0"/>
      <path d="m218.5217375,126.9411062c.7748166.0720948,1.3611468.1266515,2.0084225.1868789,1.0968542-.9822018,2.2060266-1.961242,2.2919716-3.7273064.572159.053238,1.1229222.1044852,1.7784721.1654826.3068761.3851274.6709987.8421183.951047,1.1936049.2757461,1.785317-.730077,2.9451834-1.642539,4.3072083-.7995703.3381858-1.7107529.7235783-2.6514325,1.1214185-3.9019584.1743888-5.2087533-2.5498451-6.2705854-5.6228656.1579269-.1995655.2827538-.417574.4637569-.5689498.1791097-.1497693.4149279-.2322674.812242-.4432455.7438004,1.1156286,1.4643991,2.1964656,2.2586447,3.3877741Z" stroke-width="0"/>
      <path d="m104.6437455,209.0718997c1.4228093-2.4452452,2.9542455-4.7528282,3.8456324-7.4068094,1.0906167-3.2472345,2.6569927-6.3162126,3.3743345-9.7170837.2527618-1.1983584.5166919-2.4056302.7616204-3.6146855.1425382-.703713.5226966-1.3595198.7961427-2.0373479.8208911.4514498.7402809,1.1136269.7264443,1.8040151-.0639223,3.1873998-1.1721682,6.127765-2.0281081,9.1412766-.7022978,2.4726006-1.8397438,4.7377962-3.1171626,6.9050138-1.1106276,1.8842672-2.2287212,3.8737065-4.3589034,4.9256209Z" stroke-width="0"/>
      <path d="m226.0482669,137.1600536c.3768608-.4901747.824222-1.0720135,1.2939114-1.6829657l2.1899623.2037708c.804712,1.1076076,1.6874904,2.3227028,2.4817618,3.4160068-.3844437.8635138-.6497509,1.4593933-.9150874,2.0552546-.9108152.9286502-2.5756885,1.327162-3.6991271.7292147-.981312-.5222787-1.658499-1.3474239-1.5503467-2.5766937.0588442-.6692252.1238661-1.3379065.1989258-2.1445874Zm1.3964867,1.5708675c.3565746.1277903.7180321.2573216,1.1367475.4073886.3891597-.6012686.7317336-1.1305994,1.0936162-1.6897278q-1.6638569-.4996559-2.2303637,1.2823392Z" stroke-width="0"/>
      <path d="m63.6674529,105.5552229c-1.0254056.9414277-1.5666866,1.4383946-2.1724075,1.9945226-.0636647.6842171-.132831,1.4275605-.2088617,2.2446773.2373026.6954167.4994078,1.4634761.7843421,2.2984447-1.2726634.5844347-1.8642457-.4374714-2.6828742-.8498149-.3782224-.9662893-.7371645-1.8832538-1.1176004-2.8552059.5715522-1.1588206.7281335-2.567692,2.0856288-3.1407763l3.311773.3081526Z" stroke-width="0"/>
      <path d="m161.625752,185.6980377c.361335.4651959.7135753.9186938,1.0498822,1.3516565-.5528101,1.2077386-.6709105,2.6557069-2.2288691,3.028046-1.2449835.045647-1.4179794-.9312338-1.7565104-1.9052397.4038277-.8164739.8577882-1.7343047,1.2991694-2.6267192l1.6363278.1522564Z" stroke-width="0"/>
      <path d="m136.5691205,197.8862027c.3592779-.2915028.6115408-.4961808,1.0348517-.8396274.3223431.3398885.5803388.6119347.9333382.984146-.513067.4820743-.793198.7452857-1.1716247,1.1008459-.2752215-.4303019-.5101269-.7975553-.7965652-1.2453645Z" stroke-width="0"/>
      <path d="m139.058157,44.2732201c.5712184-.4107313.839015-.6032982,1.0751887-.7731199.2176046.0558491.4111779.0516843.5283503.1438588,1.3176733,1.0364874,1.9257383,2.5487758,2.2930983,4.0548441.8006707,3.282467,1.5239876,6.6099333.4836494,10.1818026-.122744.1541226-.3733957.4688324-.549049.6893899-.4338836-.2512836-.6403245-.2970869-.6972629-.4145999-1.3774172-2.843617-1.6892442-5.9641123-2.321202-8.9987928-.3315227-1.5920127-.5384779-3.2096485-.8127728-4.8833829Z" stroke-width="0"/>
    </g>
  </g>
</svg>