<?xml version="1.0" encoding="UTF-8"?>
<svg id="Layer_2" data-name="Layer 2" xmlns="http://www.w3.org/2000/svg" viewBox="0 0 179.7910955 364.199406">
  <g id="Layer_1-2" data-name="Layer 1">
    <g>
      <path d="m80.7380131,155.3923941c-.3710096-.2572942-.705969-.6652713-1.1190216-.7467265-2.2104495-.4359633-3.7527116-1.5224429-4.5182093-3.8498222.0392997-.2343634.1610207-.8037995.2245048-1.3785207.0779201-.7054486.3785073-1.5199878.1056603-2.103296-.7640328-1.6334566-.09197-2.7662815,1.1662451-3.8158372.1598355-.1333518.3360514-.2505335.5318972-.3953265h2.1821234c.3649768.4607688.8521408,1.0034522,1.2478675,1.596448.3680798.5515486.6387693,1.156687,1.0093528,1.8439579-.5349202.0596975-1.0577349.1180525-1.6801505.1875101-.3166613.5485371-.6411665,1.1106803-.9383177,1.625438,1.1448307,1.7025634,3.8019593,3.1851072,6.1166974,3.3952579-.2745516-2.4490117-.5460669-4.8709684-.8023204-7.1567312-.8816255-1.2682207-2.9142744-1.3955011-2.9177635-3.3620832,1.1575888-1.2686561.8733022-2.7107929-.4490363-4.2135584-.449236.300229-.8445898.5644532-1.2985003.8678025h-1.9341134c-.6015339-.2559638-1.2821199-.4775798-1.8850387-.8139587-2.5418531-1.4180933-5.320037-2.0353381-8.258549-2.392616-1.4312082-.1739886-2.8438919-.340116-4.2718906-.2889208-3.2901448.1179678-6.4692757.7583491-9.489863,1.9545361-4.3975669,1.7415192-8.3305429,4.137836-11.4569769,7.4480709-1.9004736,2.0122017-3.5823953,4.2179244-5.1539423,6.4574265-2.1440889,3.05542-4.0639526,6.2398742-5.7058821,9.5495407-1.661879,3.3498196-3.2577303,6.7267062-4.9290379,10.072583-1.0518486,2.1057633-2.1892349,4.1762838-3.3508322,6.3814501.4265565.041556.8290884.1111708,1.2323793.1150047,2.1815374.020778,4.3886842-.1607454,6.5386195.0815398,2.8119967.3168828,5.6232743.4318634,8.4214475.2690136,3.4827944-.2026884,6.885964-.7685809,9.8752553-2.6751389,1.7626251-1.1242017,2.9836447-2.6047863,4.0853937-4.2044393,1.6718803-2.4274717,2.7379919-5.095475,3.4048876-7.8738992.4688392-1.953242.78036-3.934434.987379-5.9411933.2213353-2.1455535.345267-4.4152914,2.0985167-6.1760526.2378622-.2388746.3747385-.5920403.6546037-.7602116,2.638937-1.585672,4.1463874-4.1750864,6.5011976-6.0159361.6241868-.4879567,1.0381583-1.1977109,1.6762751-1.9575718-.4520194,0-.7628609-.0786855-.9933053.0117073-3.9880168,1.5641562-7.9286236,3.2175805-11.6743036,5.2292138-1.0422334.5597243-2.1138584,1.0764776-3.1350903,1.6657121-1.2614512.7278593-2.5447031,1.4433946-3.7002144,2.2964421-.6422319.4741088-1.0312732,1.2261083-1.558749,1.8354919-.2760432.3189147-.6046635.6002886-1.0772316,1.0627264-.5245193-1.6425031.089746-2.8554045.7574008-3.9459961,1.0998578-1.7966208,2.727844-3.2536336,4.4934789-4.5072202,4.0127073-2.8489824,8.5362569-4.8958706,13.2626971-6.5736528,1.5442996-.5481864,3.1606464-.8348697,4.9998066-.5846144.4146907.2018055.9771912.475548,1.6256024.7910884.4521126-.1369317.9654586-.2924161,1.8142168-.5494926-2.6509893,5.767894-6.1481665,10.6541617-11.0871525,14.992485-.1152888,1.0303016-.2178328,2.2492138-.3950741,3.4590916-.2622996,1.7905495-.4396342,3.6049126-.9038123,5.354281-.6438699,2.4265768-1.0977803,4.9005269-2.1141247,7.2461807-1.4827332,3.4221314-3.3392061,6.6180026-6.4014369,9.1070464-2.3762113,1.9314602-5.2004733,3.1376734-8.2483612,3.8952968-3.6065397.896466-7.2858591,1.2562473-11.0348018,1.2446489-2.6591262-.0082362-5.3361244.1151136-7.9737696.4106379-2.309025.2587213-4.5728773.845549-6.859529,1.2749814-1.0368932.1947183-2.0806181.3593217-3.0976417.5335281-1.9285334-.2088202-3.5158482-.9234605-4.3882714-2.8016937v-2.1851745c.5065009-1.2242337,1.4400909-2.1020261,2.5964012-2.8096759.1768285-.1082077.3967788-.1797213.5316708-.3198822,2.4442765-2.5395375,5.5363249-4.5504089,7.4416461-7.5301912,1.2514765-1.957221,2.5380444-3.8960708,3.7761901-5.8601615,2.2990635-3.6470491,4.6501981-7.2696073,6.8339995-10.9731853,1.5893923-2.6955057,3.4513387-5.2167445,5.4103556-7.6836437,3.8767765-4.8818049,8.5750371-8.9101149,14.5418871-11.6878134,2.804246-1.3054349,5.6858128-2.4567883,8.7508003-2.8974684,2.7766124-.3992208,5.6307587-1.1560219,8.4967042-.2592051.2617403.0819026.5777756.0243337.8686144.0253738,3.4813961.0125176,6.6882672.8513059,9.8173779,2.8522357-.2559472-1.191313-.361208-2.1507541-.6762312-3.0495664-.6503555-1.8554717-.7832632-3.7930637-1.2361748-5.6725546-.500841-2.0784301-.7281424-4.1925748-1.1383984-6.279858-.3072192-1.5630556-.4916653-3.2666954.4490229-4.8834135-2.8456764-2.3347084-2.5116093-5.6389808-3.3651351-8.7798955-.4176072.5693514-.8382374.9886488-1.0683089,1.4813223-1.5974094,3.4206075-3.7931432,6.5232316-6.2769058,9.4405347-1.2358818,1.4515824-2.7380452,2.7484666-4.2786558,3.9468427-2.9298824,2.2790384-6.0209586,4.3874261-9.3568088,6.1573064-2.5686877,1.3628344-5.0453388,2.8839107-7.9242821,3.7403446-2.7443842.8164138-5.3959595.9912974-8.1104994-.1003706-2.1963198-.8832348-3.7933696-2.2435174-4.7076361-4.2549572-1.1322857-2.491112-.9727166-5.0051668-.5234806-7.6351939.4656164-2.7258987,1.4714934-5.2378491,2.7758133-7.6552221,1.0638209-1.9716133,2.4125411-3.8179537,4.0637662-5.462791,1.240463-1.2356386,2.4025265-2.5361874,3.7957934-4.0163608-2.270218.5393817-4.1725694,1.6477399-6.5443326,1.1459836-.2670406-.3944073-.597512-.8825092-.9261057-1.3678173.6405672-2.0153705,2.9123966-2.8636649,4.0601172-4.7139723-1.5783256-.2693038-3.0043267-.2531459-4.3879917.0068696-1.4328995.2692676-2.7945376.2817368-4.2317653-.0158073-1.0384113-.2149883-2.1647309-.0487884-3.2388994-.1578186-3.812227-.386933-7.635987-.8403847-11.022643-2.6189971-2.0671809-1.085633-3.8151036-2.5084975-4.4915346-4.769467-.3708231-1.2394967-.3985766-2.4465324-.0573181-3.6533079.7903347-2.7948301,2.3174016-5.2761638,4.317556-7.4794374,1.6509054-1.8185538,3.3844054-3.6078878,5.3118734-5.176531,1.5756088-1.2822924,3.4383942-2.3003425,5.2671802-3.2938713,4.232844-2.2995624,8.9183998-3.5772287,13.6633646-4.6278427,2.1332885-.472349,4.3826781-.4956366,6.5425481-.8893969,3.1399378-.5724234,6.3147539-.240979,9.5123561-.414369.0461315-.2406403.1759096-.4672029.1015452-.5982266-.9375853-1.6521241-.1736723-3.2004126.5126535-4.644164,1.4050928-2.9558355,3.815077-5.2146159,6.7596618-6.9416643,3.0080689-1.7642806,6.3543865-2.7535644,9.9019168-3.2791586,1.2098596-.1792436,2.4014078-.3941473,3.6119333-.3014928.7614493.0582885,1.5908972.1971916,2.2336884.5408209,1.1226306.6001495,1.8370828,1.9347861,1.2829056,3.2380924-.8019475,1.8859735-.7662702,3.8227431-.7068879,5.7329052,1.0246012,1.8148892,3.0841911,2.150869,4.8459906,2.6632381,2.5011152.7273635,4.7147742,1.8087453,6.6650416,3.3361772.6746065.5283517,1.1316199,1.3173538,1.5832131,2.0412341.5903206.9462945,1.076619,1.9461003,1.6725995,3.0422856.1708756-.1907634.3797192-.3867637.5418719-.6106474,1.6818684-2.3219913,3.2801301-4.698038,5.0620655-6.9545628,1.0178759-1.2889685,2.6185081-1.8999969,4.292719-2.391848,2.1999421-.6463075,4.2211646-.0472948,6.1845496.602393,2.0741059.6863215,3.9926912,1.7374676,5.657207,3.0819912,1.9968383,1.6129446,3.9947687,3.2331942,5.8704986,4.9593596,2.5753731,2.3700722,4.713802,5.0424535,6.0683419,8.1722112,1.6137232,3.7286071,1.1481734,7.2275917-1.5084891,10.4450936-.2406721.2914848-.7046239.4231555-1.0329512.6648299-.336371.2476006-.6335356.5391701-1.1079016.9501043h4.3451763c.9167169.4274066,1.6744506.7806873,2.4729622,1.1529922.7158372,1.2953906,1.9452734,2.5233554.4251448,4.0632625h-3.2322674c-2.0711761,1.2085958-4.2582669,2.5106563-6.3767198,3.953422-1.9338737,1.3170817-3.1188031,2.9719331-4.0685471,4.8770639-.7065416,1.4172709-.9487852,2.9406451-1.3464163,4.4361782-.4038769,1.5189598-.0893864,3.1127349-.7616224,4.5844665-.1290323.2824745-.0495274.655487-.0208684.9834482.1859243,2.1271097.3042494,4.2707644.8814924,6.3427725.326889,1.1733893.8037054,2.3622472,2.1735337,3.0347025,1.1764596-.3203176,2.2460869-.7759342,3.1583824-1.5525699.9954228-.8474478,2.045873-1.6415839,3.0488334-2.4402554h2.1020725c1.9577651.9220455,2.078474,2.6472252,2.5585665,4.183758.6157169,1.9704643,1.1418077,3.9642343,1.7710551,5.9309131.4049024,1.2654148.9892435,2.0080413,2.0741059,2.9414191,2.8382586-.4197812,5.2570989-1.7645709,7.6673095-3.1210074,1.5735846-.8856053,3.1817145-1.6832609,4.9672589-2.1881859.7919861-.2239623,1.4976487-.2495659,2.2965865-.0662284,3.1297234.7181839,6.2753477,1.3746627,9.550071.9760344,1.3521161-.2072843,2.1111816-1.214014,2.5227427-2.1642392,1.0048248-2.3200501,1.7068652-4.6356858,1.1769124-7.315348-.5007611-2.5320149-.9180486-5.1899073-.5536312-7.8114684.3006271-2.1625702,1.0217646-4.1922482,3.1570507-5.4759375,1.699727-1.0582031,3.4628449-.4326011,5.1910712-.1400037,1.5967036.270344,1.5851441.3265946,3.0627634-.3281668,2.6901691-3.8432913,2.9567569-8.2442509,2.3924185-12.5665613-.4497554-3.4448143-1.5001524-6.9167198-4.055869-9.9301121-.5746727.4441391-1.0260794.7497258-1.4219792,1.1061691-2.169059,1.9529034-4.3140402,3.9279031-6.4923415,5.8721651-.5051292.4508454-1.082998.8447568-1.6702157,1.2076887-2.1955873,1.3570413-3.9189927,1.5583509-6.6084426,1.1923894-1.3363217-.1818258-2.6900892-.1877399-3.991759-.6121955-2.5590725-.8344706-4.9106866-2.0109984-7.1412986-3.5121735-.5432436.21751-1.0713586.3963787-1.5659138.6330037-1.5723061.7522475-3.1565979,1.4883431-4.6864215,2.3074116-.7623149.4081343-1.4811884.309856-2.2776758.2906563.7598379-3.1390642,3.044998-7.1896519,6.8034361-8.6674971h4.2817588c1.1052913.6640135,2.4259784,1.420742,3.7037301,2.2331768,2.2272561,1.4161401,4.6371471,2.2586957,7.5089123,2.0853602,4.1840889-2.4334524,7.7658583-5.8034513,12.5926985-7.9718449.9039588.1280666,2.0230204.2866047,2.9849365.4228833,2.2372441,1.4714957,2.9487398,3.6279522,3.8798928,5.64605.8733821,1.8928249,1.5979022,3.8435151,1.9688185,5.8726307.4536707,2.4817752.9784564,4.9151912.3522454,7.5119953-.4675208,1.9388377-.6845413,3.9393443-1.4370013,5.8200447-.8405413,2.100853-2.2901409,3.7304152-4.796583,4.2782629-.8012017.1751255-1.6938674.1584475-2.5187474.0564199-1.3938262-.1724285-2.7669306-.4827925-4.1325772-.7322012-.8372653.9498866-1.1911087,1.8907991-1.2105788,2.9583149-.0466109,2.5553448.611695,4.9878236,1.4740503,7.395509.6976189,1.9477754,1.4971427,3.8851981,1.9333143,5.8844347.3756574,1.7219989-.0739382,3.4666747-.7350142,5.1455091-1.0459224,2.6562113-2.8957898,4.5774881-5.8402681,5.5763082-.3335477.1131664-.6532986.2597856-1.1195942.447211-5.2708691.7335437-10.2699033-.2152181-14.8613717-3.1762542-1.6574043.6838724-3.3691437,1.3111071-4.9983417,2.0821794-2.0956801.9918538-4.2124817,1.8612769-6.607324,2.03096-.1945407.0137754-.3762966.1765164-.5993099.2876509-.1842063-.0737148-.3703038-.19981-.5695055-.2201889-3.1807823-.3253488-4.5274383-2.4294189-5.5838814-4.7790275-1.0536198-2.34338-1.4632632-4.8226275-1.7701495-7.322278-.0499935-.4071668-.3374098-.7903022-.6172351-1.4112237-.7137596.5974586-1.2535407,1.0086649-1.7418367,1.465249-1.8484292,1.7283485-3.9784948,2.7678538-7.0361178,2.260655-2.0133652-.8025779-3.4348517-2.6105674-5.0912306-4.6774596-.312413,1.3941103-.5498757,2.3652224-.7458146,3.3431798-.8989248,4.4867445-2.1202507,8.9073695-3.2824074,13.3406088-.4090308,1.5602497-.7593718,3.1341781-1.0881252,4.7101747-.0927424.4445624-.0141697.9185865-.0141697,1.4935134.4980044.0678249.9775508.1331341,1.5138161.2061716,1.0408085.7752932,1.8209953,1.6583708,2.0501612,3.0324409.194008,1.1631212.5580259,2.2412558.0488482,3.4134235-.2809573.6467912-.4078189,1.3633303-.5014669,2.059817-.2283935,1.6988142-1.4802828,2.5871407-3.0043799,3.3006683-.7498764.3510613-1.4746629.7462911-2.1964529,1.114236v1.9380879c.2131184.2108642.4578524.4530042.7025997.6951201.1571853,1.0192837.3758704,2.0344432.4592773,3.0587097.201772,2.4776752.1249705,4.9919235.5689329,7.4300987.3942884,2.1654728.2091898,4.310337.373207,6.4588053.0786526,1.0302411.2626325,2.0539392.4019459,3.0802617.1392867,1.0260807-.2923037,2.1126449.4033576,3.0839626.0675326.0942872.0113997.2592777.0199894.3910572.1614336,2.4788846.2329081,4.966078.5075796,7.4345978.4137318,3.7182604.7354137,7.4775205,2.9814207,10.7858929.7101906,1.0461088,1.4260677,2.0890248,2.1772226,3.1888323v2.1120523c-.1866834.3502026-.4623803.8673792-.7075937,1.3273497,1.7250434,2.6436937,3.3333731,5.3157606,5.1630114,7.8563383,1.9713222,2.7373278,3.2154874,5.7377066,4.2741412,8.8129009.9710253,2.8205608,1.5804564,5.7263622,2.2668887,8.6162959.8036521,3.3835264,1.4677112,6.8087055,2.699731,10.098622.8642996,2.3080042,1.8749841,4.572227,2.6887042,6.8940188.6200317,1.7692514,1.0429659,3.5960233,1.5365089,5.4010738.7146652,2.6136998,1.418863,5.2297459,2.118373,7.8468321.6844347,2.560751,1.506385,5.0899358,1.8464582,7.7250909.1805574,1.3992141.6006416,2.7735623.9245209,4.1568119.5442024,2.324259,1.1219914,4.6422289,1.6404113,6.9711562.4631793,2.0806071.9243344,4.1642862,1.2745822,6.2620189.2573722,1.5414431.3725677,3.1054784.4843274,4.6634181.3290731,4.588385.5944091,9.1796001.4678404,13.7812163.8319649,2.0609418.1549347,4.258138.7582398,6.3749555.4603827,1.6153877.3564803,3.3606198.5407399,5.0447273.112612,1.0291768.2152093,2.0682951.4626999,3.0744202.5891886,2.3953976.9673497,4.8141131,1.3243627,7.2456969.3396737,2.3136643.5290739,4.6472359.9066223,6.942396.62709,3.8121969.1011856,7.6129525.4072729,11.2734384-1.2283442,2.5220976-2.1085447,2.9477686-4.7149207,2.3188649-.4979378,2.7900589-1.8286395,5.2452992-3.6294723,7.5268894-1.0537796,1.3351143-2.4802868,2.16742-4.1425653,2.5927041-.7659639.1959519-1.6850246-.0104253-2.5148321-.1394473-.6863258-.1067201-1.343593-.3677636-2.1305451-.5940238-.2702901.2774191-.5336018.5656264-.8174223.836055-2.2224352,2.1176399-4.4674301,4.1065238-7.8045587,4.8665782-2.0860783.4751126-3.9309917.1950327-5.8462609-.360894-.2004403-.0581494-.4096567-.0913362-.779814-.1721261-2.8186155,2.5335146-6.151669,4.1169733-10.3451067,3.6321127-4.0639526-.4698637-6.9217479-2.5675238-9.1380571-5.8023386-.7548305.6603248-1.3686697,1.1971183-1.9822425,1.7341295-2.6585136,2.3267746-5.8377777,3.5867107-9.4816195,4.1115067-1.5780326.2272761-3.133359.3770036-4.7070368.3098802-2.0682995-.08824-4.1444164-.4745804-5.9573813-1.3018791-1.7561396-.8013927-3.471115-1.9001843-3.8202841-3.9692535-.0605143-.3585961-.3921044-.6794579-.676684-1.145911-.7043442.2521178-1.41853.5077672-2.5357005.9076532-1.0915478,0-2.6148059-.0161822-4.137478.0039911-1.9821759.0262688-3.8134522-.610085-5.4954671-1.3784119-2.4557029-1.1217466-4.3101115-2.8685268-5.5521593-5.2007438-1.3113116-2.4622791-1.6151349-4.7829098.1074715-7.1504422.1543354-.2120857.2228135-.4756931.3639514-.7879196-1.3671648-1.1570378-1.7042017-2.745697-2.1694319-4.4085427-.6891358-2.4631499.3200039-4.7826195.132375-7.1792024-.1673731-2.1379341.4297527-4.2435765.7698925-6.3611921.3515795-2.1888269.6703849-4.4582745.4167416-6.6360956-.6587321-5.6557556-.3462792-11.3092617-.2401128-16.9570835.0331737-1.7642927.2336539-3.5956846.6712105-5.3842385.2876693-1.1757356.2599158-2.441864.5087915-3.6625178.3754709-1.8414786.5192589-3.7258435.9691608-5.549737.3905329-1.5831926.5748458-3.1803905.8195398-4.7761128.1273011-.830153.2946343-1.6555166.4072063-2.4871692.1126786-.8326444-.1429091-1.702902.3943683-2.496506.1314028-.1940894.032015-.5177813.0364764-.7819209.0394994-2.3429809.4327624-4.6466554.8397822-6.95599.2824755-1.602737.297058-3.2428696.5068871-4.8582089.1827814-1.4071238.4068068-2.8155537.7347212-4.1995532.2402194-1.0138412.1098952-2.0372853.4544698-3.07517.4457735-1.3427337.3234265-2.8327034.5503551-4.2454148.4187924-2.6071205.915758-5.1843439,1.9329681-7.6915413,1.4632366-3.6065211,2.7707261-7.266741,3.7505408-11.0212722.9758595-3.7394133,1.8107409-7.5223662,3.4486353-11.095628.571077-1.2458341,1.0962488-2.5094227,1.6884738-3.7467183,1.781709-3.7225297,3.5966582-7.4319492,5.37878-11.1543337,1.9769821-4.129382,3.4968709-8.4126278,4.642474-12.7773166.6216298-2.3684153,1.1880857-4.7567014,1.7948932-7.1332441.1124655-.4404382.0396859-.9212956.0409777-1.3835157.0073778-2.6417586-.0393796-5.2845694.0280331-7.9250218.1055271-4.1325628.0484887-8.2861214.51834-12.3875051.3312838-2.8916632.1376087-5.7634191.3571329-8.6345825.0821151-1.0738653.4560545-2.129323.7184207-3.288054.8590392-.2085179,1.593827-.3868605,2.3286149-.5652152.3812906.4631876.7625679.9263873,1.1817732,1.4356421.0796914.5143344.1621128,1.0917164.259716,1.6669699.226822,1.3366624.5922516,2.6666729.6622746,4.0096605.1133578,2.1744589.0931952,4.3587747.0207618,6.5359427-.0737518,2.2168978-.2788931,4.4302157-.4260771,6.6451059-.0043814.0658777.0132775.1373187-.0087229.1972581-.6628738,1.8063446-.27314,3.7534306-.8724765,5.5575136-.446506,1.3441245-.1367831,2.7665113-.5003615,4.0591988-.5570537,1.9805147-.2599424,3.9989692-.7148916,5.9831-.4206569,1.8345848-.3713159,3.7581111-.5276223,5.6425487-.0109203.131586.0149155.2697513-.0195633.3950725-1.0438448,3.7938861-1.9532372,7.6229908-3.468092,11.2961757-.5367314,1.3014679-1.1498114,2.5769573-1.8062796,4.0384813.4873105,0,.8031194.082725,1.0259729-.0129893,1.9127922-.8217353,4.0323105-.934938,6.0337433-1.0482374,4.7585086-.269195,9.5529608-.2699932,14.2918529.356661,3.0110653.3981686,6.0280435.8776594,8.9657299,1.5836522,3.3151682.7967727,6.7865096,1.3997704,9.4166172,3.7923622-.4433231-1.2315629-.9434849-2.4118217-1.5616389-3.5386721-1.8983561-3.460688-3.846-6.9032588-4.7576696-10.7189388-.3765629-1.5760086-1.5665264-2.7325868-2.3807791-4.0808597-1.3812812-2.2871053-2.1765035-4.720866-2.5995441-7.2956706-.4281546-2.6059353-.3940487-5.2194053-.4570667-7.8359231-.0121055-.5027239-.2214951-1.0015292-.2983498-1.3265273.1185782-.8658191.2814634-1.5642771.2967517-2.265396.0355442-1.6288728-.1529637-3.2466431-.2992021-4.8704484-.1678659-1.8639256.3195645-3.7685848.287909-5.6522967-.0605409-3.6021067.4254911-7.2186661-.3489693-10.8080738-.2739257-1.2695269-.3191916-2.5786747-.5452811-3.8586148-.0454923-.2575361-.4366777-.4647115-.6046635-.6316854-2.0345799.7043964-3.9290873,1.3602946-5.8366058,2.020704-.0544815,7.2794037.1765622,14.4496805-.4883759,21.6007153-.1506598,1.62031-.1008394,3.2868082-.5301925,4.8440707-.2857516,1.0363608-.2271683,2.061486-.4411124,3.0783387-.3058875,1.453965-.5593576,2.9209435-.7369719,4.392155-.1871229,1.5500301.1879086,3.1394633-.4115744,4.6699732-.1146229.2926338-.1392601.714737.0104142.974571.5752054.9985419.2865506,2.0593816.3883355,3.089913.1469709,1.4882282.0600881,3.0438942.5318173,4.4431808.4363847,1.2944291.1119861,2.4023398-.0834602,3.6068598-.1655886,1.0205415-.688936,1.656726-1.8233925,1.9235989-.3470782-.160564-.7257719-.335762-1.1199938-.5181441-.3355986-.6263639-.6768971-1.2633225-.8310061-1.5509492-.2264092-1.733549-.5663093-3.0888608-.5471456-4.4399879.0445467-3.1418822.1456391-6.2916983.4705306-9.4171685.120083-1.1551148.1670802-2.3418804.4121204-3.4768097.4123734-1.9099928.7725027-3.8131765.8357604-5.7615203.0139167-.4289003.1578112-.8543053.2454398-1.2996296-.2645503-.3683925-.4671213-.8173693-.823535-1.1137402-.8745007-.72717-1.4600404-1.623515-1.8890872-2.5876971-.5276755-1.1858706-1.0471609-2.3950469-1.3519696-3.6382808-.6917193-2.821226-1.4414626-5.6491522-1.8094358-8.5123332-.3833815-2.983084-.3449607-6.010796-.4938893-9.0188789-.0221202-.446824-.0602746-.8929829-.0998672-1.4682121-1.3261206-.3563344-2.6003166-.6987-3.8745125-1.0410897Zm55.5493601,185.5295098c-.0451194-.9958207-.0877617-1.6365527-.1001469-2.2777926-.0204289-1.0565825.1839933-2.1588573-.0840328-3.1583788-.3142908-1.1723008-.2477037-2.3274035-.3472913-3.4912382-.1051276-1.2278862-.2955132-2.4495317-.4257574-3.6758941-.171981-1.6199351-.1070986-3.2897472-.5302192-4.8518473-.6682141-2.4670201-.7867124-4.9896014-1.1217783-7.4773512-.3565868-2.6474913-.3596765-5.3544624-.4557216-8.0298915-.2107613-5.8725097-.0569985-11.7551545-.1214015-17.6330583-.0170463-1.5566819-.0982824-3.1502998-.4800925-4.658024-.7003357-2.7654591-1.3052655-5.5374734-1.6896857-8.3519628-.1488886-1.0900353-.3035836-2.180748-.5098702-3.2626559-.3868173-2.0289645-.8344952-4.0483744-1.2143076-6.0783548-.202904-1.0844236-.2380619-2.1975832-.4855792-3.2717992-.8251198-3.5812682-1.6678984-7.1602627-2.589889-10.7217447-.678655-2.6215369-1.3753151-5.2365429-2.6566359-7.7040226-1.7533695-3.3765117-2.9973483-6.9235047-3.8758443-10.5736137-.7834363-3.2549639-1.5775798-6.5077993-2.3675549-9.7638517-1.141528,0-2.2920053-.2141901-3.2980554.0410723-2.7731765.7036707-5.6376038.6964383-8.4485751,1.042408-2.841042.3496221-5.7432108.1253454-8.6289593.3903073-4.6127229.4235667-9.2387766-.2081188-13.860582-.348195-1.1339504-.0343478-2.2673548-.2188827-3.3897324-.3940324-1.1142939-.1738919-2.2089846-.4498597-3.3217737-.6336447-2.5368858-.4189225-4.8720927-1.3183758-7.155242-2.4433153-3.3812492,6.0052568-5.183427,12.492786-7.4549901,18.8545829,2.0645174.4556891,4.1612496.7988287,6.1697274,1.3895387,3.0931937.9097093,6.0852284,2.110601,9.1935507,2.9687644,4.9294641,1.3609477,9.9574637,2.3207516,15.1648487,2.0726249.6281021-.0299455,1.2498917-.1953956,1.8711487-.3130973,2.0412918-.3866791,3.4789856-1.710594,5.1240048-2.7178559,1.9841069-1.2148969,3.9968862-2.2353416,6.5581694-1.3438464.9055835.3152017,1.9522517.3710048,2.9397106.4001763,1.5518639.0458374,2.9328788.4417081,4.2926791,1.3256324.4296994,1.0087616,1.0881652,2.0533949,1.3047594,3.1688041.4329089,2.2293912.7009217,4.4921144.8927855,6.7512092.1935019,2.2782522.229086,4.5674619.3746985,6.850576.3892012,6.1018419-.0799177,12.2252842.4618742,18.3414216.2757369,3.1126624.3174337,6.232799.8981791,9.3312143.5733143,3.0586734,1.0177161,6.1463731,1.3008708,9.2377737.2076183,2.266932.5299528,4.5087078.8830239,6.7567726.2933824,1.8680135.3440685,3.7674963.5024124,5.6530223.0273273.3254335.0344122.6536729.0868828.9757684.2492486,1.5307759.5416455,3.0562545.7592519,4.590562.2009863,1.4173314.1257429,2.8932717.5345873,4.2535663.5507546,1.8322869.261687,3.6316289.3333346,5.4779936-.6014673.5000994-1.1703868.9731318-1.6942403,1.408696-1.4387059-.3683925-2.1077723-1.251325-2.4845084-2.2281576-.464591-1.2045926-.7430979-2.4767439-1.0009095-3.7367526-.3632189-1.7751534-.459264-3.6096415-.9848621-5.3397799-.7764447-2.5558649-1.0891507-5.1760956-1.6198226-7.7636475-.4297926-2.0957492-.4941157-4.2557917-.9676027-6.341043-.659105-2.9027537-1.0977404-5.835864-1.6877414-8.7468418-.3470649-1.712384-.51276-3.4581966-.9254931-5.1558255-.8681217-3.5708671-1.2653932-7.1761788-1.2629028-10.8259008.0065122-9.5771641.0095353-19.1543523.0138634-28.7315163.0003063-.651375.00004-1.3027257.00004-1.8656914-.8154247-.7473795-1.657937-.9673507-2.6398826-.9971027-1.9236858-.0582462-3.390558.7755835-4.8207808,1.7991969-1.6804967,1.2027301-3.3598881,2.4182559-5.3300117,3.2346697-2.0391611.8450289-4.2613832,1.0891645-6.4215062,1.2365215-3.507405.2392495-7.0042093-.0212134-10.505981-.6379503-5.6931107-1.0026661-11.0881247-2.6646652-16.2175097-5.0864526-.9108572-.4300492-1.8101283-.8803685-2.8819664-1.4028424-.485486,2.0572409-1.1407556,3.918409-1.3246823,5.8172146-.3156758,3.2588583-.3240924,6.5417359-.4860453,9.8135351-.1293786,2.6140626-.0997207,5.2254162-.3201238,7.8478964-.2957529,3.5192003-.2323754,7.074369-.5488103,10.6066795-.1747377,1.9504482-.1945673,3.9199329-.5087515,5.8507158-.4446682,2.7326836-1.1167177,5.4343331-1.6503727,8.1558899-.2121862,1.0821499-.3380623,2.1799497-.4605958,3.2745567-.1812099,1.6187015-.2040493,3.2599226-.5101498,4.8574591-.5429639,2.8336468-.5552825,5.7002869-.7607434,8.5492451-.3544427,4.9149312.1853383,9.8436257-.3958732,14.778827-.4828891,4.1003557-.3758305,8.2578449-.5381031,12.3897426-.0204422.5208774.0358505,1.0838914-.1619796,1.5510702-.4103625.9691165-.2433756,1.9091583-.2015722,2.6854916.9892302.7451542,1.8088499,1.3625442,2.6415606,1.9898273-.7162234,4.8897025,1.7919234,7.9118995,6.5358228,9.7116527h2.6407482c1.3708537-.865807,2.7787165-1.7550043,4.3409547-2.7416817h2.3117417c2.1520127,1.5804351,1.2667915,3.7878147,1.6096747,5.7624032,2.0993957,1.9187128,4.8655805,2.3752002,7.6308065,2.4827185,5.087595.1977902,9.6335444-1.0995898,13.0027813-4.6699974h2.3462471c.1855514.204297.4148238.3871144.5495161.6158177,1.2541666,2.1294681,3.4787193,2.9937512,5.8453553,3.5694642.7703453.1874133,1.6938407.0216004,2.5090257-.1409712,2.2021528-.4391683,3.9614885-1.6467361,5.2061199-3.2496183.8587063-1.1059514,1.7961184-1.7723233,3.4444935-2.0400912.6903743.3300293,1.5736778.718716,2.4208912,1.1640767,1.954489,1.027411,2.8514828,1.0766107,4.7448982-.0302599.9611704-.5619255,1.8387341-1.258122,2.6843627-1.9626393,1.0656321-.8878186,2.0600694-1.846147,3.1661598-2.8473376,1.4202746.1816081,2.8157522.3600716,4.2571749.5443888,2.2008344-3.3999746,4.3627819-6.7399373,6.3785043-9.8539785Zm-46.3088389-226.3834726c1.7503465-.0498406,2.8687022-.5116616,4.5037599-1.9581886,2.5852413-2.2871173,4.6223115-4.9160076,5.9014482-7.9931732-.000586-1.4478574-.2122528-2.2652629-.8566554-3.5625342-.9005895-1.8130932-1.7800443-3.634846-2.5685679-5.2482986.354496-1.607224.9215777-2.8831306,2.2644649-3.6616953,1.3174376-.7638157,2.6579276-1.558103,4.1051567-2.0625201,4.8428211-1.6879112,9.5263393-3.6793167,14.1111357-5.8662328.8098314-.3862981,1.5193028-.9808903,2.1920715-1.5589919.5853-.5029355.9519547-1.1862213.8050904-1.9379367-.1839134-.9412875-.4272224-1.8814926-.753845-2.7898533-1.5576037-4.3319737-4.5109247-7.891188-7.7251603-11.2876129-1.6504926-1.7440469-3.6056075-3.1853794-5.9404016-4.3824432h-1.7291052c-2.9760139,2.0571139-4.9588556,4.7753025-6.9610209,7.4939808-.9500504,1.2900388-2.0924839,2.4632225-3.0325729,3.5555074h-2.1423177c-.3181928-.5427681-.6446157-1.0995959-.8754196-1.4932957,0-.2744802-.0149022-.3440829.0031562-.4057276.0361434-.1234405.106153-.2395277.1347322-.3638571.5549762-2.4141378.2612875-4.6368167-1.7586965-6.478005-1.2295561-1.1207065-2.6080673-1.9821111-4.3224168-2.4168227-1.4247493-.3612629-2.7898765-.9125575-4.2061825-1.306094-2.4473795-.6800143-4.354059-1.87039-5.1662342-4.2507605,0-1.0738894-.0566656-2.1990345.0163138-3.3172073.0695169-1.0650848.2743385-2.1228888.4482505-3.3926152-5.491685,1.1387149-9.6532808,3.6631829-12.7768915,7.567877-1.0260395,1.2825887-1.7698432,2.7513874-2.6616698,4.1651026.6124541.4110672,1.0516622.7058598,1.6346715,1.0971528-.3673207.5237196-.6953417.9914063-.9098185,1.2971987.1315493.8910659.2425366,1.6428357.3393408,2.2986069-.6017336.6186538-1.0793624,1.1097188-1.4033482,1.4428262-1.1277844.1768006-1.9651696.4190132-2.8028343.419757-3.2366088.0028603-6.4253416.2773768-9.625261.7688348-3.4249436.5260175-6.828819,1.0745909-10.137768,2.0397889-3.5046083,1.0222649-6.9589035,2.1499075-10.0986948,3.9516139-3.7844603,2.1716349-7.2553089,4.6696043-9.6276981,8.1755613-2.5299341,3.7388268-2.4596714,4.8546109,1.5633035,7.3204639.413026.2531579.829075.562754,1.2939457.6757813,2.9329187.7131466,5.8463541,1.7403944,8.8308245,1.9693577,3.9192058.3006765,7.9316334.5383537,11.8805769-.4457174,2.0398003-2.1415443,4.3976469-3.9217047,7.5161969-4.9705227h2.2157898c.5558685.3186728,1.0929994.6266058,1.5679513.898897v1.325203c-1.5991806,1.3530622-3.4731792,2.2565248-5.5114214,2.8967791-.8328172.2615998-1.5686838.6336145-2.1313042,1.256459-.8904949.9858308-1.7746241,1.9764268-2.7229699,3.0335777,1.381228.2903358,2.4336492-.3702671,3.5254101-.7517819,1.1970882-.4183298,2.3379637-.9558974,3.7041297-.6772568.3502877.332424.6963804.660869.9504898.9020173.2261162,1.1687451-.1132379,2.0367411-.8715176,2.8381096-1.3546864,1.431651-2.7000506,2.8755536-3.9538976,4.3799276-2.5873321,3.1042568-4.666432,6.4249775-5.7643455,10.2607461-.7022134,2.4532931-.8116958,4.8936331-.6718498,7.3632777.1138505,2.0103876,1.8486556,3.3690495,3.8077923,3.0604634,1.5248429-.2401687,3.0417219-.5816755,4.5179297-1.0052059,3.6802249-1.055881,7.1419911-2.5748408,10.2526972-4.6395318,2.4919661-1.6540169,4.6689623-3.5906655,6.4241697-5.9914209,1.9873963-2.7183276,3.347929-5.7054148,5.1021109-8.5143046.8060226-1.2906314,1.6865961-2.5482454,2.6210917-3.765271.5376503-.7001876,1.3095937-1.3190652,2.2817376-1.3425281.7330299-.0177061,1.4761678.3102672,2.2084919.4829013.2816498.6723223.572422,1.1936593.7182609,1.7465383.4600631,1.7443008.8457085,3.5047113,1.2994724,5.2504755.3163017,1.2169167.5432969,2.4676732,1.2407959,3.6953054,1.7290386-.7108306,3.3730856-1.5988668,5.0372419-.1625595,1.2362014,1.6596407,2.4114491,3.3882915,4.689884,4.3698773Zm-8.6730799-.3443853c0,.3388461-.0797579.6979138.0169531,1.0122206.1892803.6152251.5571336,1.1890877.7107499,1.8087514.8682415,3.5023771,2.3513077,6.8625252,2.8118902,10.4641481.2273947,1.7780319.8086328,3.5162976,1.1271585,5.2877744.400521,2.2274682.6959676,4.4705019,1.0640473,6.885976,1.0497844.1979354,2.1173475.3992208,3.1985877.6030945.2159684-.2447766.3916915-.4439577.5441891-.6168095-.4853395-1.3657129-.6614222-9.2256915-.3190318-13.4238176.5517001-.7499677,1.2881127-.6659002,2.1228876-.4039013.1339065.2421884.3279411.4579992.3739794.697297.4511404,2.3449402.9711984,4.6836035,1.2833451,7.0445807.2821559,2.1339551.3047289,4.2954126.5025989,6.4401075.0367294.3981565.3622467.7743377.5361055,1.1237059,1.8287594-.0818905,3.4791854.1470183,5.167273-.1631159,0-.8595058-.151086-1.6172744.0277135-2.3042187.5890421-2.2630981.6974458-4.5876594,1.1954901-6.8651013.5232275-2.3926039,1.0491319-4.7802249,1.7209417-7.1418189.6177012-2.1714353,1.2041997-4.350345,1.8421567-6.5167974.3816901-1.2961948.7350275-2.6119582,1.2883923-3.8498706.4679603-1.0468587,1.2588277-1.869743,2.7865605-1.4431164.1731795.048353.4957537-.3445546.560716-.3928471-.2641774-1.6713843-.6301397-3.1261838-.6956879-4.5920496-.1138105-2.545367-.2125724-5.1134955.42083-7.6220474.3925305-1.5546259.7324972-3.1751174,1.4983679-4.5859178,1.7135372-3.1564377,4.466924-5.4829643,7.8486926-7.1958381.9199397-.4659572,1.822913-.9596346,3.0464629-1.6057666h-2.4789284c-.4240794.1921724-.8112963.3588682-1.1897237.5406032-2.0728807.995476-4.1231219,2.0318913-6.2207197,2.9822132-2.1588046.978036-4.3916407,1.8227263-6.5374076,2.8225442-1.4438464.6727577-2.9457035,1.3373215-3.8351729,2.640779.7244402,1.6038013,1.448654,3.1361132,2.1032844,4.6925533.2495549.5933223.4098298,1.2346469.4898142,1.8667315.3109481,2.4575261-.2695975,4.7678766-1.4882333,6.9646737-1.5923888,2.8705465-3.574791,5.4524988-6.1806077,7.6759638-2.5402551,2.1675289-6.4704743,3.1242003-10.0659739,1.3833101-2.0483501-.991757-3.5680125-2.4917409-5.2777009-4.2139938Zm31.5862745,105.3431202c-1.123989,0-2.0154294.1103968-2.861937-.0199072-2.9975348-.4614702-5.9627882-1.1214321-8.9727748-1.483076-2.6826048-.3223616-5.3886349-.6790951-8.078218-.7785587-5.7317579-.2119648-11.5152006-.5009702-17.1045953,1.1374934-1.2150667.3562014-2.5877183.5448967-3.6313367,1.7397171.9580408.64407,1.7374952,1.3414759,2.668262,1.763809,3.9946489,1.8124522,8.3463906,2.3975262,12.7216376,2.7932035,1.7264551.1561133,3.4825946.0245756,5.2237654.0699293,1.0634481.0276718,2.1134056-.0710177,3.191343.2774191.7731819.2499167,1.8034696.252142,2.5753997.000895,1.1496516-.3741977,2.2746394-.2657602,3.4093755-.2747342,4.5006037-.0355573,9.0016069-.0273331,13.5023971-.0477725.4699979-.0021286.9395429-.0864743,1.4604532-.1377057-.7487711-2.2843478-1.2849431-4.4832372-2.2984776-6.3767212-.7061687.5225948-1.3369609.9894107-1.8052941,1.3360093Zm-17.6634736-66.9666997c2.1525987.0016327,3.7795328-1.0871569,5.5754248-1.7063126-.740794-2.0394139-.1791857-4.0914664-.5022792-6.1411847h-5.0731456v7.8474973Zm-3.8958737.0165692c-.2183122-2.7275919-.420284-5.2509835-.6206577-7.7543954-1.0470277-.6466703-2.1478444-.6532617-3.4036091-.4535122,0,1.4338038-.068558,2.8121068.01951,4.1821011.086137,1.3398674.3320029,2.6712687.5103096,4.0258064h3.4944471Zm-.0173526,19.7839091c.1180188-.0055997.236051-.0111993.3540698-.016799,0-1.0397593.0131443-2.079688-.0023172-3.119278-.0622322-4.1851247.2701569-8.3856696-.569652-12.5392524q-2.0015793-.1911021-2.8479271.5271181c1.0241084,5.0601233,2.0449674,10.1041733,3.0658264,15.1482112Zm15.0646219-29.2145023c-1.3547263,1.0445849-.9456556,2.1600062-1.2592805,3.0700179-.3680265,1.0677697-.407153,2.053782-.2010129,3.3363465,1.6873419-1.9506901,1.7965579-3.9313741,1.4602934-6.4063644Z" stroke-width="0"/>
      <path d="m67.0908026,41.3206159c-.1156617.0438298-.5588249.127867-.8898823.3498065-4.7557918,3.1880976-10.2642834,4.9127633-15.743157,6.6871064-4.6504512,1.5060612-9.4042986,2.7801597-13.9517929,4.5059442-3.0061645,1.1408495-6.094737,2.0756001-9.0814182,3.2532707-2.0282142.7997479-4.2419264,1.0345164-6.4031815,1.2715648-1.0516755.1153555-2.2350867-.2844217-3.2737644-.6502744-1.8907785-.665997-3.4702094-1.704311-4.5783507-3.3464029-1.5400114-2.2820801-2.638937-4.6753128-3.1288444-7.326765-.302425-1.6366736-.7855405-3.2505042-1.2740495-4.852833-.5090844-1.6697939-1.6138964-2.924218-3.1543539-4.0116591-2.2717229-1.6036532-4.0645919-3.6135903-5.2638974-6.056709-.4871174-.9922983-.1806506-1.9368784-.3481103-2.9226397,1.9010862-4.1998797,5.6582125-5.8578938,10.340652-5.9650826,3.0142348-.069004,6.0667172.0631776,9.0486573.4472231,1.8001536.2318478,3.5800514.2052343,5.3652629.3372254,1.7069451.1262041,3.4087763.3094932,5.2075049.4764793.4106821-.3810582.7626212-.7076014.9955959-.9237689-.0040618-3.6795133,1.0098588-6.9698243,1.9832413-10.2752729.698418-2.37172,1.6809095-4.6308889,2.9032209-6.809051.7848613-1.398657,1.6896857-2.7270945,3.1486474-3.7509385,2.3683407-1.0680396,4.8274794-.4992422,7.2448281.0383578,3.1772399.7065915,6.2325456.606589,9.554772.3081916,2.7846294-.2501079,5.4442484-.9271341,8.1688563-1.354828,1.819597-.2856296,3.5844595-.9172803,5.4675938-.7077556,2.745383.3054575,5.5202641.4463198,8.1977417,1.1622308,3.757932,1.0048022,6.3169646,3.2617791,7.7607577,6.4723365,1.1809475,2.6260179,1.9730268,5.3818106,1.9267355,8.6682968.1634845.1024251.5680006.3886277,1.005504.6243729,2.1169747,1.1407588,3.0956441,3.0514894,3.6563601,5.0326118,1.1320194,3.9996918.8496904,7.9524033-1.1785371,11.7432749-1.6123116,3.0135284-4.2370922,4.8052903-7.7877255,5.5102823-2.8292694.5617683-5.6734143,1.0622215-8.5132843,1.579265-1.4566045.2651978-2.9088808.5899541-4.3812798.7287664-.8954357.0844213-1.8255366-.1343677-3.0243028-.2426268Zm-26.9495136-12.3885211c-5.4351393.0738448-10.9344552.0395605-16.4133421-.4327281-1.346949-.1161114-2.7553045-.1494523-4.0271833-.4426182-1.8953997-.4368825-3.8194184-.2996243-5.717415-.6188594-1.9680195-.331006-4.0560155-.0736997-6.3441854-.0736997-.7273833.5232086-1.6042945,1.1539628-2.610844,1.8779641.404696.7034954.6515674,1.3165586,1.0649995,1.8158931,1.1182492,1.350589,2.2343409,2.7131452,3.4848053,3.9605819,2.0451406,2.0402091,3.1441994,4.460264,3.498975,7.1269157.2306575,1.7334825.4544964,3.4721292.9587466,5.1402118.7560158,2.5009809,2.2487637,4.6333396,4.4977538,6.1118923.6643254.1893484,1.204253.3432424,1.8196236.51864.8130542-.2220816,1.7039886-.4295896,2.5674492-.7074683,3.7692251-1.2130163,7.1887086-3.0923137,10.7479316-4.7036498,2.5479925-1.1535244,4.9792845-2.5378988,7.5837161-3.5664225,4.8792708-1.9268795,9.7226778-3.9143514,14.4975935-6.0456336,2.8801019-1.2855367,5.855623-2.4084595,8.1002717-4.2506698,1.7180784-.4539566,2.8023949.3860713,4.1017741,1.0062944.2927831.7857699.5994697,1.6088658.9264519,2.4864345,1.4292505-.3894033,2.7652393-.8043225,4.1300869-1.1144326,2.6716046-.6070282,5.3534636-1.1796692,8.0424075-1.7200034,1.8268683-.3671014,3.3024368-1.0811732,4.2175822-2.6704735,1.4452314-2.5099095,1.8584572-5.1920994,1.523631-7.9325777-.1230129-1.0068114-.4169813-2.1898792-1.3987936-2.7941015-1.4852902.1426584-2.8288299.2717046-3.9239867.3768948-1.9472843-.7103498-3.1386194-1.7598148-3.7372501-3.2590579,0-1.2615885-.248303-2.5055027.0555868-3.6258887.5133061-1.8924666.3510335-3.7747574.3603823-5.6618209.0142763-2.8816446-1.3382927-4.4485008-4.4957828-5.3865402-.7357733-.2185871-1.4562183-.558394-2.2091178-.6341436-1.4855432-.1494606-2.925168-.7817236-4.4423933-.5007797-2.2802727.4222363-4.5487062.9033386-6.8080972,1.411065-3.6118534.8116419-7.2143046,1.6247539-10.9904149,1.3611359-1.4974223-.1045379-2.9961631.0432402-4.4901629-.3718885-1.2121635-.3368158-2.5203988-.388503-3.7639115-.5635378-.4262768.4080489-.869773.693349-1.1065432,1.0824129-1.2828124,2.1080189-2.0156159,4.3817146-2.2756515,6.7754084-.1058334.974249-.1864304,1.9549398-.1900261,2.9329682-.0034625.9440374.0702094,1.891933.1790259,2.8315424.0877217.7576113.2783338,1.505393.422801,2.254877.6820509.1868147,1.2100594.3917163,1.7600682.4711759,1.916015.2768205,3.309495,1.1151643,3.9336951,2.8648289v1.8346574c-.510283,1.7210375-2.0378826,2.2151895-3.5302576,2.8352009Z" stroke-width="0"/>
      <path d="m146.9312293,75.2793565c-.4519927-.2475401-.9387971-.514153-1.4107127-.7726022-.6277292-1.9781381.2962057-3.7432956.7243603-5.5400615-.4426439-.8439888-1.3181301-.9301728-2.1073462-1.2295673-1.5043341-.5706697-3.1380068-.7257186-4.6142944-1.4174825-3.0956308-1.4505726-5.1561796-3.6674946-6.3676373-6.5794943-.3973381-.955075-.6943961-1.9445704-1.0751141-3.0256983-1.8508263-.0803364-3.4455323.6298713-4.8328064,1.6046963-1.6271738,1.1433712-3.2469165,1.4197381-5.1718675.7671174-3.1459972-1.0665724-5.088394-2.9803205-5.5481375-6.0565608-.0656415-.4392288-.2568128-.8629829-.4188457-1.3876157.5760577-.559168.1298713-1.6526865,1.4113653-2.1482022,2.0559676,1.8967435,4.2192735,3.8113865,7.6866464,4.8486061.8637403-.1068108,2.361096-.0656116,3.6553347-.511075,1.5122712-.5205207,2.7922337-.1565003,4.1529529.2077317.255854.0684961.4929304.1948755.7743272.3090034.2555876-.4858826.4668017-.8874074.7268107-1.3817197-1.1816267-.7206209-2.3464469-1.4309858-3.5990553-2.1948922-.6831562.3720691-1.4623842.7964703-2.1402668,1.1656792-1.422432-.1704934-2.2337816-.792963-2.579608-1.949904.7448691-2.0584141,2.6156982-3.4857111,3.9037309-5.4775763.6759915-.1781491,1.4732246-.3882453,2.3659968-.6235218.3929966.4266568.7180212.7795262,1.1739825,1.2745037-.1168203.6455213-.2131584,1.4121369-.3996553,2.1602179-.3949676,1.5843839.2007466,2.7547194,1.9011395,3.4890129,1.2798293.5526855,2.5891965,1.0489933,3.8821834,1.5690846.1782401.3044801.3446278.5886539.5718227.9767178-1.1537933,1.3407805-2.9175238,1.5588045-4.6589343,1.8242381-.2875494,1.231968.4350796,2.187805.8105772,3.1963489,1.4100202,3.7869198,4.1337225,6.2339177,8.5666339,7.0864028,1.6358568.314591,3.3349978.7771799,4.4020949,2.0522581.4716759,1.1488499-.4016796,2.4600598.9029467,3.5678194.7082729-.2924644,1.5152277-.5293737,2.208665-.9288001,2.9008504-1.6708824,5.8352341-3.3006078,8.2197954-5.6081767,2.7296951-2.641553,4.8492134-5.5826698,5.6685534-9.1828354.1441742-.633421.1197501-1.2984746.1634578-1.8303337-.4191786-.7521084-.7731553-1.3872165-1.1432726-2.0512603-2.2708839-1.3332457-4.8179708-1.8460986-7.4754323-1.9163181-3.0138886-.079647-5.9888104.3097593-8.9627201.7351885-2.1355524.305496-4.1335893-.2604448-5.8999833-1.327767-.6173949-.3730488-.9827446-1.0901865-1.4164658-1.5957284v-2.6760218c.3443615-.4499141.7422323-1.0623152,1.2375598-1.6007898,2.1337413-2.3195482,3.5511127-4.5397055,3.0928608-7.9286017-.2569726-.3902529-.5820505-.8838879-.928303-1.4096817-2.0246185-.2969817-3.6081378.6091296-5.2227666,1.4078011-2.7483928,1.3594994-5.4467121,2.8107825-8.2519169,4.0651855-3.3324942,1.4901935-6.3840444.9270858-9.2134602-1.4700776-1.7991281-1.5242571-3.186855-3.3566075-4.6762203-5.1136194-1.393773-1.6442628-2.7517488-3.3161611-4.2152384-4.9078167-.5848072-.6360152-1.4100735-1.0896786-2.0445812-1.5653928h-2.1511205c-3.1098272,1.7022762-4.2274771,4.3251072-4.3180487,7.5070155-.0748838,2.6306832.5025855,5.133058,1.3175441,7.6284302.5205374,1.5938507.8845021,3.2298743,1.3115513,4.8204928-.1879752.7132071-.3686258,1.3985973-.6080328,2.3069399-.7621151.5827579-1.6892596,1.2917018-2.3597643,1.8044095-2.8364341.4350623-4.2713579-.7042089-5.2932956-2.6021377-1.1569096-2.1485952-1.7087562-4.4764613-2.5833102-6.7073099-.5724087-5.8889308.454523-11.3301909,5.4757574-15.5800715,2.2263372-1.8843257,4.8790178-2.9293006,7.9835446-2.7383739,1.8980365.1167312,3.5549081.8008787,5.0191435,1.9261236,1.6762485,1.2881793,2.8129822,2.9605251,4.0581063,4.5520719,1.236308,1.5802023,2.4058425,3.2053108,3.5532701,4.8404605.9879384,1.4078252,2.2318373,2.544602,3.8305917,3.3134187,2.3069208.321267,4.2168764-.5053877,6.0590997-1.5763835,2.0382022-1.1849575,4.0260913-2.462134,6.161404-3.4825878,2.1670614-1.0356079,4.5030142-1.7318165,8.2392654-.8729849,2.5788356.9386419,3.8060078,3.7696793,4.1045574,7.100659.0837931.9343696-.0914373,1.8878905-.1576248,2.9952569.3150099-.0439114.5976052-.1151499.8809463-.117738,2.1788606-.0199042,4.4011626-.2740025,6.5246495.0323553,2.1288937.3071318,4.2774173.7854615,6.2909291,1.6389111,1.8255499.7737421,3.4794384,1.713536,4.9773801,2.9439196,1.6653149,1.3678657,2.69499,3.1065668,3.1292439,4.9911979.3419111,1.4838198.2432291,3.1529666-.1172464,4.6488807-.9394897,3.8986167-3.3364894,7.0549335-6.4080956,9.8962843-3.1011975,2.8687384-6.5611126,5.2300362-10.4397002,7.1245906-1.3777921.6730117-2.7472741,1.3606212-4.1079667,2.0617037-1.2360416.6368558-2.5590725.8034245-4.2019343.6460474Z" stroke-width="0"/>
      <path d="m153.2932999,170.6577145c-.4165152.7681697-.7308592,1.3478375-1.0552445,1.9460943-2.1316105,1.2616777-4.5286635,1.6505216-7.0580382,1.863853-1.5684973.1322996-3.1288977.2935529-4.7063709.3053449-2.1524655.0160854-4.2373053-.4275094-6.3516564-.6832193-2.4968803-.3019464-4.8389857-.9687416-7.1832751-1.6883163-2.3799535-.7304959-4.5712792-1.7832082-6.4588615-3.3344477-2.1035108-1.7286992-3.1977753-3.983295-3.8900939-6.3709281-1.3658331-4.7103319-2.5791552-9.4575635-3.8145043-14.1983609-.2771352-1.0635367-.5143182-2.1602481-.5461867-3.2471026-.0812761-2.770696-.0423627-5.5444639-.0309496-8.3169256.0009988-.2443896.1528439-.4882712.2775214-.8603766-.991907-.2361413-1.4347506-1.0314747-1.5610396-1.9119763-.1543354-1.0759576.5588782-1.8393621,1.3024688-2.3716081,2.9286172-1.0842784,5.6415458-.0875386,8.3236711.2844096,2.5609636.3551492,5.0658876,1.108842,7.547293,1.8735527,4.7391318,1.460508,8.7692182,3.8541278,11.9525042,7.3351947,1.9178129,2.0972247,3.2411368,4.5509411,4.4271316,7.055901,2.0974913,4.4300948,3.5037027,9.0784313,5.2622394,13.6153309.4929304,1.2717401,1.1750213,2.4822831,1.6904848,3.7477221.6600905,1.6205761,1.2394243,3.2682919,1.8729066,4.9558583Zm-37.7229214-30.1815265c.5803192-.4133712.9661245-.68819,1.3252549-.9439966h2.6310398c1.0705862.6388695,2.3670356,1.2345018,3.4253697,2.0768337,3.4441207,2.7411375,5.8849346,6.1920533,7.9711594,9.8458632,1.6261883,2.8481358,2.7981732,5.8711794,3.8012668,8.9986935-.1543221.1248495-.3392476.2744318-.609511.4930364-.6166491-.9053311-1.1172237-1.6830674-1.6632373-2.4335431-1.4527957-1.9968662-2.8604454-4.0246696-4.4081942-5.9596129-1.5135497-1.8921779-3.0961901-3.7505038-4.8006848-5.5014686-1.4773264-1.5176052-2.9999586-3.0283046-4.9141757-4.1390333-.4743127-.275218-.9017481-.3940687-1.356431.0306953,0,.1253454-.0425491.2719162.0060994.3865823,2.4752528,5.8337596,3.9011474,11.9311266,5.1248837,18.042269.671064,3.3512104,2.4456083,5.5114585,5.7555427,6.8722248,3.7714891,1.5505138,7.6222434,2.7915828,11.8010853,3.0001491.2801716.0139931.5542704.1140735.8349214.1373671.9234022.07669,1.8505333.2041397,2.7723907.1818258.7699325-.0186494,1.5352038-.3216601,2.3012742-.3171126,1.1618637.0068817,2.2154302-.2392253,3.4057133-.7092583-.7849811-1.520145-1.655167-2.9313809-2.2587118-4.4311228-1.2591074-3.1287841-2.3621081-6.3091141-3.5579046-9.459293-1.0820392-2.8504458-1.9950804-5.7629233-3.5034097-8.4643068-1.4776194-2.6464028-3.3946332-4.9483478-6.1808474-6.6246907-2.9671977-1.7852159-6.2752944-2.635264-9.7009572-3.24599-2.0819632-.3711621-4.1554299-.7823805-6.2395771-1.1427665-1.3279717-.2296224-2.6685283-.3991362-4.1554033-.6179584.7446161,1.3325503,1.4162661,2.5345305,2.1930437,3.9246134Z" stroke-width="0"/>
      <path d="m142.3376035,95.5244577c-.3672674-.6059971-.6089783-1.0048068-.8861934-1.4622254v-1.8991503c.8487715-.7182202,1.8366832-1.0315231,2.9424806-.985081,1.351104.0567465,2.6809268-.0268856,4.0548835.3016984,1.6384403.3918554,3.400626.3919582,5.1142831.4768905,1.0975939.0544002,2.0803118.3581849,3.0531483.7704918.7604238.322289,1.3487868.7428442,1.3773926,1.7182437-.3562939.3754616-.7740342.8156579-1.2377463,1.3043161-.0177654.1330615-.0567055.3234984-.0665604.5151689-.0536159,1.0443068.0279666,2.1099237-.1746178,3.1292558-.47932,2.4117854-2.3429311,3.5620867-4.831448,4.056405-.6149978.1221525-1.2229373.2735852-1.9606416.4401238.0768947,2.7853663-.1112802,5.4878746-.8860602,8.0610948-.5503284.2582013-.9868463.4630183-1.4665659.6880812-.5358391-.2220998-1.0421402-.4319359-1.5053995-.6239451-.2808641-2.2464563-.0825413-4.3604074.8593988-6.426066-.379546-.7021106-.752167-1.3914375-1.1846631-2.191524-.3995488.1048939-.8604908.1143274-1.1414881.323317-.5571736.4143871-1.1247348.8782036-1.4941063,1.4288693-1.2827058,1.9122302-3.2892659,3.041185-5.2883415,4.2262453h-2.6168967c-.741087-.7753779-1.5766476-1.6496025-2.3062549-2.4129828-.0490347-2.8663256,1.0702666-5.1785265,2.7145133-7.2173358,1.668298-2.0685975,3.7681331-3.7712939,6.9308836-4.2218914Zm1.6053066-.1355529c.9480394.8016467,1.6237379,1.2175939,2.0593236,1.7854578.4273822.5572087.6105764,1.268898.936107,1.9907706,1.8213149.1534162,3.6701969.3091667,5.3760766.4528591,1.8659016-1.6283286,2.0753311-2.5260161,1.1273183-4.427422-3.0484339-.377185-6.1244881-.7577927-9.2611898-1.1458989-.1550146.1479133-.3529112.3367054-.5892153.5621372.1605813.3571871.3200705.7119735.3515795.7820962Zm-3.0427341,8.0301334c1.3157063-.5465899,2.5328639-.8424166,3.2429479-2.0107988-.2534835-.2456958-.4843274-.4694767-.7978457-.7733944-.7461476.9369698-1.966741,1.4524169-2.4451022,2.7841932Z" stroke-width="0"/>
      <path d="m67.0144805,43.2381979c.2147831.1835794.4102693.3506743.6258648.5349461q-.7496367.1875857-.6258648-.5349461Z" stroke-width="0"/>
      <path d="m75.3549449,310.7415143c-2.1287339-.5471463-2.9810212-1.9933346-3.8423643-3.4211639-1.7083168-2.8318085-2.8530676-5.8497241-3.9310582-8.9282563-1.2860485-3.672677-2.3860528-7.3795325-3.1799433-11.1470046-.4543499-2.1562207-.4850865-4.3853701.1571853-6.6006593.4087511-1.4098571,1.2300355-2.289379,2.6815128-2.8161584h2.1052553c3.4540022,1.1789527,4.162275,4.3101193,5.8493372,6.7756639.8248934-.5800428,1.5374411-1.1085154,2.2804991-1.598891,3.5961521-2.3732167,8.3527963-2.0466947,10.9740611,1.5846198,1.9846662,2.7493737,2.680514,5.6536754,2.0297323,9.0125778-.6866454,3.5441387-2.323168,6.5870412-4.4659918,9.4973175-1.3925078,1.8912345-3.2439867,3.2962781-5.5646377,4.1451288-.7094714.2594954-1.5070641.3203781-2.4689137.5132338-.1157016.4695734-.2511396,1.0192595-.4210298,1.7088041-.2582778.2160526-.5961004.5700045-1.0092595.8221707-.3438687.2098845-.7762316.3002048-1.1943848.4526172Zm8.4053335-22.4835511c-.4179268-.5144916-.9030532-1.1117325-1.2599863-1.5511427-1.9632252.2152544-2.8568497,1.2697567-3.4864434,2.5742482-.3119602.6463437-.7108165,1.2920344-.8321514,1.9730162-.2271683,1.2748605-1.0565763,2.0951929-2.0541831,2.7935421-1.1601058.0719611-2.2471523.1573469-3.422653-.8095443-.3189519-1.1497812-.7261315-2.5686606-1.1046654-3.9938291-.5369844-2.0216353-1.1310073-4.0201947-2.6167236-6.0690905-.2072055,4.4062932,1.5744768,8.1265734,2.7966151,11.901423,1.189777,3.6748298,2.6940178,7.3098935,5.3524515,10.6960322.5448417-2.5211058,1.3656999-4.6911382,2.6418402-6.7253758.9494777-1.5135053,1.7791654-3.0935534,2.5796613-4.6783666.9251335-1.8315854,1.6087026-3.7315037,1.4062381-6.1109126Z" stroke-width="0"/>
      <path d="m113.5920114,325.6519273c-.4328689,1.7582698-1.6490943,3.0064018-3.2993338,3.6723383-4.6600397,1.880519-8.9912327,4.4358033-13.9915321,5.6268019-1.659908.395387-3.34432.6243563-5.0375748.6990991-2.2467661.0992217-4.5029476.007305-6.753882.0496592-1.2811743.0240919-2.5493242-.0410239-3.844615.2891022-.9097253.231872-1.9829749-.053989-2.9816205-.1266515-.4230007-.0308163-.8432847-.1632973-1.2624634-.1547829-3.1003718.0632048-6.0517351-.7439931-9.0184268-1.3555779-2.6031265-.5365758-5.2416507-1.0692815-7.6427922-2.2216267-1.3750221-.6599377-2.7492451-1.32123-4.033549-1.9385474-.3964591-.6908266-.7250128-1.2633467-1.1032405-1.9224136.1899994-.5302868.4045561-1.1291483.5850336-1.6329002,1.6908843-1.4071721,3.4837-.6944549,5.1834537-.4070217,2.6343825.4455541,5.240279,1.0296848,7.8592399,1.551046,2.2741334.4526898,4.5500646.8979536,6.8237185,1.352651.2039561.0408062.3931165.1705055.5956076.185188,2.0009268.1446479,4.0013608.3510976,6.0055104.3905492,3.7757374.0743316,7.5544179.0193993,11.3307279.0786855,2.0534773.0322434,3.9373174-.43554,5.7644121-1.2347558,2.4946563-1.0912448,4.9999398-2.1634047,7.5179282-3.2094652,2.0856122-.8663875,4.2432049-1.040231,6.4296032-.3317709.3113077.1008423.5470524.3940082.8737949.6403933Z" stroke-width="0"/>
      <path d="m79.9127602,77.312046c-.3194845-.4197086-.6389691-.8394172-1.0264257-1.3484059.2767623-.3722929.5360655-.7210865.8129344-1.0935185,1.9646901.761421,3.6438817,1.7074435,5.0343653,3.0609229,1.873346,1.8235306,4.0488241,3.2947784,6.7128378,4.6532468,1.3739167-.2042849,2.9731639-.442071,4.9698025-.7389498.0299109.0138601.4653767.2157321.9065291.4202407.2163945,2.179472-1.143206,3.5666341-2.7255002,4.8201663-2.8606052.5124779-5.4095832-.1733114-7.7789493-1.5218382-.9838899.6352109-1.2727577,1.4472829-1.2630626,2.4157221.0204289,2.0420747.0062059,4.0844336.0062059,6.2698136-.582197.5018712-1.2118839,1.0446636-1.7458585,1.5049606-3.5161678.9519063-7.7588001-1.8609443-8.5378949-5.0830178-.1395797-.577249.0936613-1.2207748.0544682-1.8283562-.0403917-.6259165-.2033301-1.245302-.3077386-1.8395072.9804274-.5801939,1.8547949-1.0190176,2.6253133-1.5762807.7347878-.5314116,1.3489865-1.1982431,2.0387216-1.7836376.7169159-.6084644,1.555686-.9201467,2.8171772-.6982948.1814896.2014548.502226.5574869.8570416.9513439v1.7896182c-1.0301412,1.6690199-1.7135106,3.4514722-1.0680692,5.7055418.3219483-.323323.5893218-.4661689.623734-.6458237.3395006-1.772408.6403408-3.5509297.9955027-5.5746936.8039584-.4678076,1.745752-1.0158247,2.6543186-1.544509,2.3184137.7116893,4.5153594,1.3860978,6.6063784,2.0279848q1.9489756-.8268512,2.6932987-2.3379739c-.98654-.3234621-1.5625444.5194382-2.3692995.6904093h-1.7190639c-3.4806237-1.1586403-5.9491778-3.4111135-8.8859986-4.9935079-.853326-.4597831-1.7225264-.8952808-2.5844422-1.3419113l.0475431.0432916c-.1625389-.1471695-.3250779-.294333-.4876168-.4415025l.0437477.0384659Z" stroke-width="0"/>
      <path d="m80.3090862,77.671791v1.9860962c-.5224818.2477034-1.1039862.6013832-1.7426357.8123139-2.4504158.8093145-4.922033,1.5655591-7.379587,2.3573611-.8630744.2780783-1.7084366.6015041-2.6907417.9499168,1.958684.7986473,3.7329086-.3483885,5.7522001-.0517576-.380132.3731879-.5894283.7329148-.9136672.8726402-2.6892235,1.1588217-5.2217146,2.6022707-8.0645943,3.4897446-1.8693641.5835743-3.7472647.8368472-5.6877438.687936-.6812385-.0522716-1.3405966-.3394931-1.7758094-.4564874-1.0602652-1.0214123-1.1690817-2.0350237-.9940377-3.2484209,1.1109779-2.0136168,3.1177776-3.3486343,5.3173202-4.4915943,3.4751635-1.8058185,7.2880831-2.8393795,11.1517419-3.5659448,1.8291056-.343962,3.8744193-.4622261,5.7659569.2509749.2521784.0950854.5751121.0354544.8652718.0474762l-.0437477-.0384659c.1625389.1471695.3250779.294333.4876168.4415025l-.0475431-.0432916Z" stroke-width="0"/>
      <path d="m36.516238,38.0264997c-.3325889-.2817489-.7437904-.630092-1.1679631-.9894349.1102148-.2340883.1500605-.4405108.2801316-.5749632.772516-.7985384,1.7378814-1.236455,2.8544126-1.6292115,4.4795622-1.5757546,8.9264302-3.2312198,13.5193235-4.5186342,2.5048441-.7021196,5.0027631-1.5297509,7.4010813-1.362142,1.8787662.2370483,2.5387768,1.5916133,3.8453208,2.5817829.015568-1.1390898-.4878299-1.7182074-1.0953965-2.2752649-1.8797384-1.7234835-4.1967405-2.9073616-6.3448779-4.3019224-1.1063834-.7182504-2.125338-1.5490353-3.1695024-2.3444625-1.2582151-.9585007-1.8136441-2.1710302-1.5160268-3.6843298q.84447-.6970521,2.5101045-.5555851c1.0306207,1.4146343,1.9551149,2.971664,3.1912498,4.2871704.9506896,1.0117429,2.2398677,1.7932132,3.4795316,2.5385277.9412342.5658894,1.9320492.1713279,2.8428531-.3488813.8570283-1.0457793,1.0136276-2.5154427,2.3126872-3.5186228.4585183.3668898.875939.7009072,1.1350025.9082005.2018253.8214209.3922775,1.444607.5004681,2.0793584.1100417.6455939.139047,1.3025806.2147432,2.0678053.1543354.1535583.3893343.3873533.7387964.7350343,1.5092881-1.5923601,3.4776672-1.4270401,5.5231673-1.3242748.2169805.2305991.4754047.5052486.8632875.9174859-3.0286309.5606979-4.901138,2.3521242-6.8864568,4.1478863h-1.8182253c-1.1240156-1.98684-.3921709-4.1433933-.8291683-6.4247054-1.0680426.7099507-1.9944678,1.3257624-3.0456373,2.0244835,1.1598128,1.299424,2.3157636,2.5317639,2.7475138,4.2196267-.2179127.9161132-.7015609,1.7295367-1.8427693,2.354915-.7409138-.9573487-1.4245495-1.8406682-2.1764102-2.8121673-1.2939857-.1891972-2.5847751-.1285927-3.9364784.2647987-2.570965.7482292-5.0251763,1.726879-7.4802932,2.7271262-4.0087254,1.6332086-8.0447647,3.2111584-12.0731865,4.8042865-.1221739.0483107-.2877492.0061137-.5772829.0061137Z" stroke-width="0"/>
    </g>
  </g>
</svg>