<?xml version="1.0" encoding="UTF-8"?>
<svg id="Layer_2" data-name="Layer 2" xmlns="http://www.w3.org/2000/svg" viewBox="0 0 196.9761554 187.352681">
  <g id="Layer_1-2" data-name="Layer 1">
    <g>
      <path d="m80.763554,168.88768c3.1346534-8.6440556,9.7281102-15.7668738,12.4058569-24.4967565,1.4828011-1.2210061-.1325337,5.9229342-.3923356,6.4849903-2.015316,7.0720656-6.4313818,13.3594899-12.0135213,18.0117662Z" fill="#423b30" stroke-width="0"/>
      <path d="m120.9149247,169.8697684c-6.5403614-3.5124564-10.2993811-9.4027257-12.0488785-16.4957052-.6550528-2.8868555-1.6977111-6.7972701-1.2652509-9.3370687.0005355,0,.0008107.0000297.0013164.0000297-.000595-.000357-.0011007-.000714-.001666-.0010412-.0041352-.0037187-.0134244-.0077349-.0188909-.0121378.9024789,4.9366511,3.1116199,9.9103998,5.3707847,14.3118884,2.2446544,4.2304888,5.39152,7.6669651,7.9625853,11.5340348Z" fill="#423b30" stroke-width="0"/>
      <path d="m96.8741081,171.8913616c-3.3315203-.6796556-12.8658873-3.2485194-14.1957614-6.3099744.0458588-.0274885.3544348.0495626.2970035.0990061-.0769172-.0145772-.1514098-.0561669-.2266907-.0230261.6963302.9162826,2.1146792,1.1596925,3.1131,1.5538725,4.3459761,1.1898584,8.8329645,1.9277634,13.3371184,2.107093,6.8367997-.1965248,13.2567354-1.5997462,20.0546005-.7972254-6.9575898,2.8533279-14.806086,4.7937646-22.3793701,3.3702541Z" fill="#423b30" stroke-width="0"/>
      <path d="m96.683206,142.4856209c-5.3370488-.6245002-5.9681236-6.4558953-3.2635429-10.205306.635448-.987116,2.8560648-3.7117181,3.9944865-2.2733329-2.175725-1.1884305-4.0792129,5.1938053-3.7126701,6.8163097.274379,4.1178872,4.919099,3.2098451,7.8100004,3.7622327,1.1152766.1868265,2.3364017.3524416,3.377632.6550826-2.6296939.8364946-5.4256426,1.6379444-8.2059059,1.2450139Z" fill="#423b30" stroke-width="0"/>
      <path d="m104.1044482,141.8065306c-.8752953-.0735109-1.8425685-.1548458-2.6463983-.4111075,2.6294634-1.368831,6.3740249-1.7407287,7.8442718-4.5963176,1.1213232-3.5795414-2.8424768-6.2014484-5.9118153-6.6229979-1.558216-.2198483-3.1766968-.1879272-4.6780839.2294276-.1939143.0799367-.4934316.1645739-.4883444.4215495.076932.0850536.3104949.1726657.3131723.2524537-.3008337-.1142378-.5940367-.156125-.4265995-.5448312,2.2803166-1.8787661,5.8913329-2.0623796,8.6744223-1.263994,8.5483814,2.7573562,6.5400862,13.8695143-2.680625,12.5358173Z" fill="#423b30" stroke-width="0"/>
      <path d="m66.9314347,151.2192521c-7.7312388-2.4985659-8.2532521-13.1643931-4.3906746-19.1500094,6.0330071-9.5281791,19.6764703-10.4228636,27.3676663-2.3572561,1.739628,1.6210765,3.3391064,3.6484411,4.1355583,5.8183054-3.8598703-5.7900137-11.5667294-9.9739446-18.5637372-8.2211079-4.1521883,1.0518806-8.0672438,3.6241358-9.8242306,7.6152606-1.5670515,3.6671237-1.9308723,9.1154057,1.6243341,11.7333263,5.9966979,3.0924539,19.9697551-4.0172151,26.7673227-5.617229.0114238-.0038079.0228476.0152317.0115725.0232938-7.6838628,4.2536041-17.9885765,12.4069725-27.1278115,10.1554162Z" fill="#423b30" stroke-width="0"/>
      <path d="m53.0518057,178.6550148c7.6797276-5.8424917,15.7911047-11.2476667,22.1926478-18.5597806,2.4371035-2.5492887,4.7485455-5.3082513,6.9689244-8.0167292,2.5796331-3.0599972,4.6940742-6.6473925,7.8820833-9.1189161.2118457-.1554111.8278971-.4379712.9595383-.1562143-.7576884-.1804303-1.3134376.7603956-1.7994839,1.2296632-9.2420193,13.7768448-18.8110294,30.6059816-36.2037099,34.621977Z" fill="#423b30" stroke-width="0"/>
      <path d="m63.1345291,187.3161466c-.9779532-.2400779-1.4559374-1.2351371-1.785933-2.0981682-1.1310736-2.4091093-2.167767-4.8830724-3.6883499-7.0806037-.6097593-.7218998-1.2215713-1.7584297-2.2393442-1.8270319-.0219402.0157672-.0432557.0311179-.0653149.0454571-.0139971.0233236-.0279942.0467066-.0419765.0700302.0056375.1693933.2547593.3267678.2431273.4108992-.1713568-.106622-.5483416-.3617531-.3312005-.6019501,2.7929365-.9390707,6.8985223,6.1649161,8.3290239,8.2397608,6.6026939-6.6254969,12.6922993-13.9878278,20.0741756-19.7128092-3.8810073,6.6913026-8.3273133,13.1489532-14.1921023,18.2590733-1.2794637,1.1233387-2.5513116,2.3114122-3.9145498,3.3281289-.6587269.4912227-1.5006062,1.1690338-2.3875559.9672137Z" fill="#423b30" stroke-width="0"/>
      <path d="m137.6823613,181.4932895c-9.9555-1.2556642-16.295075-9.6542274-22.150954-16.9489676-.0615218-.1176888.2829766.1793296.3047532.1981312,4.6047962,3.9319829,8.9022212,8.2798035,14.0339989,11.5435546,2.727458,1.6824496,5.4097267,3.2428075,7.8122019,5.2072818Z" fill="#423b30" stroke-width="0"/>
      <path d="m141.3236922,174.8333428c-5.0929844-1.0963857-9.270668-4.4600354-13.0497983-7.8747947-6.435636-5.7170681-12.0358557-14.620866-15.6834861-21.2929207,6.7936704,8.8498027,13.857674,17.6759248,23.2841695,23.836557,2.9708382,2.0420013,5.9320375,4.1044107,9.1199276,5.803401-1.1773042-.0083893-2.4753018-.2390665-3.6708126-.4722425Z" fill="#423b30" stroke-width="0"/>
      <path d="m134.8588423,182.6121063c2.4879156-3.6188999,7.2163802-5.5314316,10.4043892-7.9508937-2.3483015,3.6849436-5.9797854,7.2023979-10.4043892,7.9508937Z" fill="#423b30" stroke-width="0"/>
      <path d="m125.7833604,149.4442222c-1.6027806-.3460454-3.335596-.6889374-4.8436842-1.1729013,2.3152201-.2970184,4.6304402-.5635733,6.8007508-.7733366,4.9028558-.1453557,8.1460798-2.5773126,9.4379788-7.3479322,2.6192891-9.0794981-2.6587666-11.484621-10.8124325-10.5337398-3.9173165.4286001-7.7526137,1.5115688-11.4164055,2.9204129-.8912039.5315034-2.568715.683523-2.9372213,1.6740603.1344749.0536977.1734615.027905.29475.054977.0152391.0038079.0114312.0266555-.00386.0266555-.1053204-.0278157-.2785142.0595584-.3579155-.041917-.1819847-.5192169.4856298-.8238809.841552-1.0624714,4.9884747-3.2151108,10.6887343-5.5153967,16.6214858-6.1152048,11.1085286-1.5355469,14.3010596,8.1780009,10.2242861,17.0018324-2.4567679,5.9018418-8.2087023,6.8830972-13.8492846,5.3695649Z" fill="#423b30" stroke-width="0"/>
      <path d="m120.8319238,148.3871058c-3.4877941-.6584145-6.1346907-3.3541299-8.4192986-5.8947317-.4907467-.6131656-1.0865684-1.304602-1.1728046-2.0829365.0968567-.0744926.2510704.0342714.0891516.0078241-.0132608.0104718-.0265737.0199916-.0399535.0291247,1.8025778,2.4257393,4.7489322,3.8175964,7.3040815,5.3303849,2.097603.9542132,4.3450539.858658,6.5609108,1.2393912,1.0002058.1970305,2.0972162.3788293,3.0272728.674033-2.3393171.6943816-4.905801,1.1318768-7.3493601.6969103Z" fill="#423b30" stroke-width="0"/>
      <path d="m134.5232092,94.4603926c4.4730062-1.3594005,9.2282453-2.45058,13.9257407-3.0424748,6.3052144-.8949523,27.8115874.1332477,29.4547677-7.3849702-.0756231-.8217092-1.0058284-1.2002112-1.6837883-.8553558.6389286-.5782993,1.8635344-.131433,2.0528003.7616748.3414938,4.5797472-7.7055204,7.0570422-11.2564131,8.08075-10.6123675,2.3121857-21.6671389,2.6225615-32.4931074,2.440376Z" fill="#423b30" stroke-width="0"/>
      <path d="m100.1334265,109.4823405c12.8807918-14.35681,26.1550793-15.0014505,44.0919067-16.0356302.5547675-.013536,1.2308234-.2302904,1.7097298-.1560358-1.4523972.3441117-2.8888487.7660182-4.3562694,1.0586039-7.0133403,1.4594181-14.2411442,2.217285-20.913132,4.9388898-7.2156439,2.6066381-13.32713,7.6659165-20.5322351,10.1941723Z" fill="#423b30" stroke-width="0"/>
      <path d="m54.8953931,91.944929c-5.0477355-.7357928-22.4454585-1.1431518-24.0164965-6.2643685-.552685-1.4977056.5657599-3.0014206,1.8126629-3.7355772.2740072-.34313,4.8586927-2.5902834,3.7697146-1.1424081-.0701194-.0160349.0990805-.1735582.1096564-.2789902-.0172547-.0284107-.0337359-.0560182-.0507228-.0841017-1.5375698.6833148-5.7085003,3.2195732-3.8706545,5.1611404.7756719.7687254,1.7634573.856278,2.7289455,1.1667134,4.1132016.8222744,8.0500932.8504769,12.156274,1.3540456,5.4312058.6757584,10.8707265,2.2960317,15.8980837,4.261101-2.84833-.053311-5.69666-.1865885-8.5374634-.4375547Z" fill="#423b30" stroke-width="0"/>
      <path d="m101.544591,109.4122731c-10.2482344-7.9889358-23.1559792-10.3192091-35.2765836-14.0778719-3.379283-1.0383743-6.8484094-1.9093783-10.0529145-3.4233866-.3465214-.1713568-.8643996-.3122501-.9786821-.727344-.0064259-.0498006.0937702-.012108.1180904-.0190099.041917.0355208-.044163.025525-.0708483.0298684,3.2313391,1.6776599,7.2943237,1.8217365,10.8701315,2.6509127,4.6797053.8731757,9.3525533,1.7995731,13.9862957,2.8905147,8.6410509,1.9980688,16.7932293,4.4950803,21.4045109,12.6763164Z" fill="#423b30" stroke-width="0"/>
      <path d="m72.7338986,125.3920116c-2.3595765-1.9688846-4.515295-4.1721799-6.9565783-6.0369935-2.7707583-1.9868756-5.7875445-3.5879977-8.7166888-5.3222633-7.2312698-3.7032395-13.9685799-8.5716752-18.4457956-15.4751731-1.4279729-2.0981757-2.6236623-4.3524689-3.6592104-6.6678378-1.0134592-1.9098543-1.467971-4.4683058-3.2344033-5.7830821-.025287.0156482-.0495626.0312072-.0748942.0467661-.0265067.0035699.0589485.2600398-.0076159.2149694-.0418872-.1485092-.1256616-.2779787.0685427-.3503294.1294695-.0456951.4341038.1370854.5141446.1979527,1.5923088,1.3392601,2.4917384,3.2956425,3.6480246,4.9920743,13.5760807,21.7752186,28.4082867,14.6724813,36.8644746,34.1839166Z" fill="#423b30" stroke-width="0"/>
      <path d="m125.7934157,126.2892248c5.776567-5.0089423,13.0667852-7.2300352,19.831331-10.4190259,10.6628523-5.3039377,22.3407554-10.8934328,28.1557586-21.8802044,1.3023411-2.2013393,1.7759521-4.8209258,2.7686015-7.0826564.0799665.0685427.0685427.0418872.0990061.0951982-.0002082.0371868-.0336466.0099363-.0342714-.0038079-.0185041-.011037-.0454869-.028857-.0683047-.0426607-1.9814314,16.5583798-15.7276938,25.4424911-29.3669176,32.4787979-6.6395386,3.5685043-14.3594875,4.4646466-21.3852035,6.8543593Z" fill="#423b30" stroke-width="0"/>
      <path d="m99.8174578,130.0856098c-2.8376797-1.1667729-4.8350271-3.5352742-6.8923493-5.708054-.8377441-.9215185-1.7516468-1.896348-2.265717-3.0463422-.0266555-.053311.0304634-.1066294.0837447-.0760916,2.9463841,2.9520663,7.4129942,4.7900087,9.0743217,8.8304879Z" fill="#423b30" stroke-width="0"/>
      <path d="m103.6396951,129.8338106c-1.6200725-1.9038151-.552328-4.5923312-1.182607-6.7900187-.0196569.0522177.0273769.1980494-.0321889.1908426-.0415525-.12407-.2091832-.3806068-.0151648-.4302884.4622467.0182662.7035444.7238633.8607181,1.0814738.5712338,1.8492324,1.4493851,4.1737343.3692426,5.9479907Z" fill="#423b30" stroke-width="0"/>
      <path d="m107.4421713,130.8805147c-1.0705855-1.9041721,4.0350499-6.3833067,5.5255189-7.4901717.7501618-.5331025,1.6145614-.8948482,2.4942225-1.1575803-.3143325.5774737-.8359591,1.1761216-1.310247,1.6867112-2.0940182,2.2307615-5.9486749,3.8026026-6.7591685,6.8444527.0129708.0346878.0951982.1021298.0496741.116588Z" fill="#423b30" stroke-width="0"/>
      <path d="m107.446827,85.67113c-1.1502991-2.1929202-2.0281157-4.5015656-3.3904911-6.5743576-3.1569581-4.653734-7.6074662-8.6783567-8.794915-14.3998872-1.0742819-4.0816226.0980839-9.9965542,4.5353015-11.4539791-.4967561.1922111-1.1146816.5946912-1.4735788,1.0774353-5.0341103,6.2261404.0338549,14.1407399,4.5919147,19.0170591,3.3185496,3.2412605,4.78838,7.7933407,4.5317688,12.3337294Z" fill="#423b30" stroke-width="0"/>
      <path d="m109.2783734,67.1608822c-1.5052322-2.2519133-2.5944483-4.9803233-3.3700458-7.4711841-.7316576-1.9712869-1.7138353-4.3051301-3.7660703-5.1634906-1.5406935-.5597059-3.320699,1.1492505-2.467619,2.5476227-1.7132775-1.7813665,1.0496717-4.4055642,3.0389867-3.7016331,5.3595989,1.8635939,6.6681278,8.8120804,6.5647485,13.788685Z" fill="#423b30" stroke-width="0"/>
      <path d="m108.4745213,61.9673447c-.6300187-.8002003-.0603319-1.9748866.2514943-2.7988269.7969576-1.925919,2.7452184-4.9584872,5.1254411-3.347228,1.5368559,1.3277173,2.1077475,3.6328226,1.7896666,5.5634123-.7064301-.5843979-1.3523201-1.2277295-1.8810271-1.9764335-.6161183-.5826725-.8483944-2.571214-1.9307681-1.8658846-1.0007115.8190317-3.686498,3.1331808-3.0693088,4.4203497.0973699.0493246.3293858.0588444.3162291.1035875-.2413423.0603914-.3975938.0863924-.601727-.0989764Z" fill="#423b30" stroke-width="0"/>
      <path d="m118.3611142,70.7857022c.2889563-1.7707459.679663-3.5206077,1.2546527-5.1649781.5508926-1.834023,1.7658075-3.5648452,1.6241407-5.539226-.3481874-2.3700186-3.966284-2.1287209-5.4804113-1.1486257.0021717.0119593.0043062.0238293.0065151.0356993.090111.0728266.3360496.1230734.356071.2029507-1.0979996.028024-.3167943-.7642035.1675191-1.069998,1.9171206-1.3804631,5.1964232-1.6855435,6.5461254.6016526,1.953348,4.3375868-1.6139961,9.0861917-4.4746127,12.0825251Z" fill="#423b30" stroke-width="0"/>
      <path d="m109.7172966,82.4253475c1.8819493-5.6720869,6.1571515-10.879577,11.1956052-13.9443936-4.3602558,4.1480233-6.4288531,10.2641504-11.1956052,13.9443936Z" fill="#423b30" stroke-width="0"/>
      <path d="m113.4034302,57.0906982c-1.2223448-1.0392073-1.7950215-2.454388-2.8830178-3.5658864-.2528107-.2269287-.7467703-.3121013-.9707836-.3524118-1.1015026-.038109-2.5418811.2037241-3.1491563,1.172455.012465.0565834.0245135.1135238.0374248.1696313.1085259.1519899.3768659.2692919.4462713.3905506-.5457832.0071399-1.13506-.4061095-.872194-1.0204651,2.7535185-4.7011546,8.7147403-2.0064805,7.3914556,3.2061265Z" fill="#423b30" stroke-width="0"/>
      <path d="m115.9991577,54.2952032c-.1786156-.2987736-.2940732-.7081853-.6398509-.8514586h-.0000223c-.2237827.0821977.0474132.3521143.0028262.3769551-.5064618-.0951982-.5597728-.8110886-.0571264-.9672137.475991-.1447013.9253265.0571189,1.2984141.3503889,2.2840724,1.7755653.9960111,4.3390742-.6042408,1.0913283Z" fill="#423b30" stroke-width="0"/>
      <path d="m144.5298484,48.3953248c-3.2206144-1.6618035-6.3560265-4.023403-7.43724-7.6424813-1.6175661-6.1719072-.6184908-13.950403,4.2765707-18.4113606.446896-.2432611,1.7906185-.8663036,1.9648907-.1103407.0356696.4383579.090825.8334304-.0760693,1.241444-.4192291.9645362-.9124747,2.0706202-1.3365232,2.9701837.1511569-1.2289789.698844-2.401791.6910199-3.5926906-.4298496.1145056-.7197579.473254-.9514465.7941314-1.6667419,2.4199679-2.3990838,5.5812322-2.6028971,8.426498-.6230722,6.2369097,1.5767499,11.643245,5.4716947,16.3246162Z" fill="#423b30" stroke-width="0"/>
      <path d="m143.3337129,48.9185281c-1.2554262-.5656855-1.2277592-2.3670734-.5237388-3.3534457-.0869874-.5592001.4568323-.5411125.8358996-.4925019,2.9187172.2037539,2.7683933,4.7675256-.3121608,3.8459476Z" fill="#423b30" stroke-width="0"/>
      <path d="m152.8974425,37.6040739c-.791216-3.0279571-1.0561645-6.1532543-1.0650298-9.2715009-.0986194-1.3691583-.1904261-2.9806257-.9380592-4.1437989-.5177592-.9361552-1.6458875-1.3762982-2.6222343-1.4698899-1.6788797.0332301-3.6227971-.0737489-4.9598557.9919354.1160228.3133806.6330085.409144.788836.630212-.7141947-.1341402-1.6352372-.4656977-.8073997-1.2567352,1.6655222-1.3639521,4.0798376-2.0544663,6.2338753-1.8773679,6.8722684,1.4678669,5.1097929,11.5209153,3.3813209,16.4056537-.0048789.0000595-.0096388-.0027964-.0114535-.0085083Z" fill="#423b30" stroke-width="0"/>
      <path d="m159.3432826,34.5645146c-.3786806-.7989509-.6538629-1.646542-.7235063-2.5323017-.1274763-1.0312047.4613543-2.7881171-.9349653-3.1201506-.9293724-.1205745-2.0529788.1561548-2.584631.9457941.0148747.0567917.0289165.1121851.0442077.1673108.0424227.0613433.2298739.1128099.2158322.1602305-.6249761.0502468-.6639479-.6072455-.3960542-1.001485.8529758-1.3822778,2.5513116-2.2314457,4.1202076-1.5841872,2.556369,1.3226302,2.0559835,5.1898486.2694406,6.9727323-.0043732.0000297-.0081811-.0032427-.0105313-.0079431Z" fill="#423b30" stroke-width="0"/>
      <path d="m154.3434139,46.8723322c2.044649-2.173226,4.2268296-4.217161,6.53845-6.1001813,2.1087293-1.977207,7.7637103-4.7596122,6.4542889-8.0769421-1.0745794-2.002018-3.6821769-3.5398556-5.9255819-3.0404518.2668227.2014632.6890267.4063773.8762101.607305-1.1493695-.2971076-2.0067779-.7361498-.3312897-1.2755963,2.4397512-.515885,5.100511.499493,6.7250385,2.3571371,4.8633485,6.8249668-9.3170473,13.7038099-14.3371159,15.5287295Z" fill="#423b30" stroke-width="0"/>
      <path d="m149.523321,46.6919911c-.5910023-.1311058-1.6480295-1.3235227-.4112562-1.2564972.0244243.0448027-.2816379.0738678-.3460157.132028-.0116915.0258225-.024216.0507823-.0352828.0772295-.0006545.0204676-.0018742.0409352-.0026774.0615218,2.0501824,2.1410669,6.959583-2.8468723,10.0714038-2.5514901-1.6426151,1.9485286-6.7217958,4.3926232-9.2761716,3.5372079Z" fill="#423b30" stroke-width="0"/>
      <path d="m96.0000399,46.9395362c-5.1863977-2.6252092-9.6705004-8.5497499-8.9331309-14.5690127.9901207-4.9356099,7.0024817-5.0858446,10.3461993-2.3917059,2.2780854,1.6064993,4.3232847,3.7038048,6.0735853,5.8071494-1.8124918-.5547972-3.5912329-1.1924169-5.3272389-1.9575129-2.1761043-.7894608-4.4373589-2.5479499-6.8352527-2.0180827.0521805-.0191289.104361-.0363836.1551433-.0545307.0511393-.0102338.1020703-.0204676.1516626-.0307014-.0499791.0091331-.0998094.0192181-.0935917.0091926-.0243648.0078539-.0485808.0160349-.0727671.024335-.0036592.0008032-.0073481.0015172-.000952.0002975-.7022057.2133927-1.1223867.789669-1.3199825,1.4566514.0232641-.0658058.0487296-.131076.0722614-.1978932-1.1633814,4.2632429,3.7668438,13.4131579,8.2557957,13.94957.355833-.2908007.1813749-.8947143.334882-1.2160082.6312905,2.2409953-1.4852331,1.8494629-2.8066138,1.188252Z" fill="#423b30" stroke-width="0"/>
      <path d="m100.4801562,32.4869032c-1.1229817-1.6519267-.000714-3.9281155.8341147-5.4946613,1.911669-3.5906974,6.2413722-3.3196206,7.2503243.7499535.3823026,1.4296389.4312106,2.9739619.2285947,4.4399248-1.4491545-1.5344462-2.1014704-3.8799214-3.4764001-5.4337047-1.6513614-1.3356604-6.4591678,5.4833565-4.1053329,5.7118322.0209734.0090438.1289936-.0341226.0951982.015202-.2758665.1268516-.5622346.2083056-.8264988.0114535Z" fill="#423b30" stroke-width="0"/>
      <path d="m113.2899584,38.6619341c-.3739132-3.1605503.7698038-6.2141217,1.0620623-9.2950922.0457249-2.3868865-2.5172485-3.0345615-4.3067143-2.1324693-.6475783.274379-1.9894563,1.1957191-.9137985,1.6602268-1.198047.0046112-.6329862-1.4442459-.0571859-1.9075933,1.926752-2.3016544,5.9735677-2.1953894,7.2123342.7309436,1.399949,3.7831763-.7563199,7.9909662-2.9966979,10.9439845Z" fill="#423b30" stroke-width="0"/>
      <path d="m108.9192382,48.2872749c1.728115-3.4483166,4.665961-5.9747875,6.975975-8.9868286.5287367-.8634774.9758707-1.6551991.9557304-2.6043251-.0253465-1.0071969-.8028778-1.7846984-1.7325848-2.0527706-.2403978-.1645441.4813831-.2192831.2844715-.132266,1.5627676-.0641695,2.7619153,1.3327152,2.8420231,2.8283681-.1153683,5.183631-4.9246026,9.0909814-9.3256152,10.9478222Z" fill="#423b30" stroke-width="0"/>
      <path d="m100.3724633,39.8282608c.208722-.4420469.4429096-.8653516.7008967-1.2719669-.9588243-.3025518-2.0263754-.6554098-2.7381381-1.3745429-.159933-.2475153-.1485092-.159933-.114275-.4265177.0482833-.0857676.1952827-.040013.2856541-.0570892.0162209.0507823-.1371375.0581006-.1836953.0929967.0071399.0388528.0139227.0777353.0195156.1166178.9803555.6563321,2.291718.6336927,3.4365358.6505012,1.1897469-1.6132524,3.1869976-2.8733493,5.2344504-2.7526856,2.0249549.5204366,2.40101,1.8461905.7997764,3.2558973-1.3906299.8978082-3.1902626.9032524-4.7931696.8210547-.8379821.3865939-1.7764578.7581049-2.647551.9457346Z" fill="#423b30" stroke-width="0"/>
      <path d="m102.8731711,48.2951585c-2.5235554-.5575639-5.4697015-1.7545027-6.5876556-4.2497664.0154697-.2249355.2818462-.1967925.4722425-.1522874-.0085976.0600046-.1765629.040965-.2462361.0682452-.0117808.0158267-.0235616.0314154-.0354018.0469149,2.2743444,2.3132566,5.8605794,2.1512115,8.7466614,3.0567843.7211561.2686077,1.5115093.5730039,2.1324098.9748593-1.4759885.4350558-2.9757171.5248098-4.4820203.2552502Z" fill="#423b30" stroke-width="0"/>
      <path d="m29.9669723,55.8072183c-4.0771007-1.0787443-8.3166482-3.4816062-10.0908153-7.4711841-.6726199-1.317424.1512908-2.6021534,1.4240311-3.1263385.0152317-.0076159.0228476.0114238.0114238.0190396-.1315669.0796392-.2569905.1765034-.3768807.2665549-2.0353374,1.5044587.0505294,3.715764,1.3897598,4.8818229,3.7116884,3.0777874,8.696489,4.2265024,13.4304572,3.992523,3.6823852-.1921814,7.0389992-2.0882914,10.3270704-3.4027107-4.1305456,5.0567199-9.9083025,6.6511409-16.1150463,4.8402927Z" fill="#423b30" stroke-width="0"/>
      <path d="m22.6597671,46.748872c-1.2027251-.5629188-1.0447704-2.2351346-.7805062-3.3127187,1.0143814-4.6652768,6.3568148-5.4863017,10.1556244-3.6978251-1.9560254.9480848-4.2934088.9330018-6.3811499,1.5620536-1.7553655.2289517-5.0847885,6.0265217-1.508817,4.995317-.3703656.3270653-.9622753.6371139-1.4851513.4531732Z" fill="#423b30" stroke-width="0"/>
      <path d="m47.1554377,52.9441623c-1.6674856-2.6589451-2.9901456-5.5044786-4.6728926-8.1524462-1.7239798-2.5449452-3.9309417-4.4900824-5.5011021-7.0968767-1.5057974-2.2499796-4.7976172-5.4592-7.0492478-2.2900223-.5188748.8802561-.0851131,1.3043045.6930429,1.5612206-.7275671.1034983-1.4339823-.3055862-1.485196-1.0813622-.0896797-1.9455536,1.8611396-3.5150743,3.7013504-3.587068,3.0513401-.0448324,5.490541,2.1977991,7.315297,4.4158873,1.5106615,1.6465718,3.2438934,3.1197936,4.4512593,5.0201578,2.0766147,3.3092083,2.438472,7.438073,2.5474888,11.2105097Z" fill="#423b30" stroke-width="0"/>
      <path d="m37.3926546,33.6172628c-1.1928631-1.0412898-.4510014-2.9810125.0190991-4.2381641,2.2334835-5.166763,7.5991215-2.4052716,7.2732908,2.4254715-1.1789404-.7179431-2.1646582-1.742127-3.1235271-2.7472414-.4176821-.4171168-.9471923-.4770917-1.4239567-.2617653-1.1448922.4360375-4.2578285,4.9082404-1.5909106,4.7188555-.2756583.1839408-.7883749.3602062-1.1539955.1028438Z" fill="#423b30" stroke-width="0"/>
      <path d="m47.6343442,50.3288002c-.4531434-6.7667174,2.6654305-13.9154474-1.0603443-20.1998372-.3224095-.6553206-.7868428-1.3457752-1.1444013-1.9052431,6.353706,5.5145042,5.7248476,15.2358463,2.2047456,22.1050803Z" fill="#423b30" stroke-width="0"/>
      <path d="m25.6957417,37.1589926c-1.3635208-.4650134-1.4060922-2.2517646-1.0395643-3.4156517.805585-2.8030811,3.9123334-4.4992154,6.7209331-3.8233083-1.3771906,1.7177622-3.7847084,2.371982-5.0801327,4.2008583-.9119243,1.1308058-.8743062,3.4640541.9256834,2.1165236-.2289219.5901098-.8520833,1.1587108-1.5269195.921578Z" fill="#423b30" stroke-width="0"/>
      <path d="m30.3135086,30.4147658c-.4264879-.0951982-.5521495-.632116-.6359388-.9786077-.2478872-1.3784401.6148762-2.7719334,1.7859181-3.4501016,2.0954164-1.1001639,4.9131045-.169066,6.3402295,1.6146804-.5381078.248259-1.1686917.3912051-1.7668934.5062759-1.3016717.3385486-2.7156773-.3076984-3.8956143-.0722316-.8541509.2822924-1.9356173,1.1986643-1.6574601,2.1563284.0936958.0643183.1897717.0923422.2943558.1246799-.0699409.0921043-.3271099.1251559-.4645969.0989764Z" fill="#423b30" stroke-width="0"/>
      <path d="m55.6278837,85.014084c-5.0877337-.4558804-12.0579967-8.4740376-10.1273625-13.6275026-3.0293256-3.2799943-5.594783-9.8379302-1.6655222-13.313765.3274818-.2322836.8682075-.3846007,1.2642618-.2818164.3988507.1023976.7462051.5218944.8682819.841433-2.4033826-1.6934271-2.4434997,3.0115949-1.7614492,4.3334218,1.2066074,3.164388,3.5559798,5.9244812,6.7876908,6.9952526,1.6599441,1.185515.5995701,4.0052856-1.4222015,3.8321141.4115091,1.479142,1.3836611,2.8561541,2.1607462,4.0829018,1.1976082,1.6684674,2.3383503,3.5854318,4.2093667,4.5699893,1.7500552.7865453,3.6986432.0862734,5.4878933-.1562143.1542806-.0113643.3536762-.1243824.4626186-.0862139-1.8012391,1.3971823-3.8763217,2.9331159-6.2643238,2.8103995Z" fill="#423b30" stroke-width="0"/>
      <path d="m56.2643729,67.1635002c-1.0178323-2.8224182-1.3897003-5.99823-2.950906-8.5774169-.4144989-.6651081-1.1042396-1.1041801-1.8054338-1.2927022-1.0714706-.2086923-2.269525.0645563-3.08698.767119.3329259.0615218.7664942-.0937107,1.0421525-.0321294-.4874148.1980122-.8834392.3807928-1.4051254.4188721-.159933.0114238-.3084422-.1256616-.2590135-.289462.4002935-1.4155972,2.031827-2.1643012,3.3776915-2.4218421,4.4716972-.3979582,6.1083624,4.7354557,7.5050241,8.070903,1.3739926-.4300578,2.8521379.2267502,3.7550482,1.2738411-.5712635.5422132-1.2877043.8940895-1.9470857,1.3327152-.6726199.4159566-.9367056,1.1428543-1.5143355,1.6526704-.9174577.7874378-2.3806986.2204731-2.7110363-.9025681Z" fill="#423b30" stroke-width="0"/>
      <path d="m75.103694,78.4798286c-.9512382-1.3698425-1.8160692-2.7493834-2.5636874-4.2344752-.6538034-1.0427475-1.01929-2.5663351-2.0767635-3.2239166-.1247989.0618193-.2347082.1500859-.2489284.2956796-.1903964.6511557-.7844331,1.1195308-1.4698601,1.1195308-.7235063,0-1.4393967-.5711892-1.5080435-1.3174835.3815663-4.1625708-.3829794-10.0724748-6.0194116-7.7703742.0000297.0002082.0000149.000476-.0000149.000714.001785.0050277.0035104.0099958.0053103.0149045.2633569.105075.6872715.1317305.8811039.2607241-.4205529-.0452786-1.3372371.2642047-1.2300202-.4418386,1.1323974-1.2689919,3.1871909-1.7721144,4.8361724-1.30603,2.5916072.6793879,3.748295,3.5853128,4.2191542,5.9596152,5.3503022-.4548391,5.5678152,6.8915163,5.1749887,10.6429499Z" fill="#423b30" stroke-width="0"/>
      <path d="m65.8533747,86.1071675c-2.1585744-.4990765-4.6259629-2.3493725-4.3637811-4.7789196.0761734-.6680831.8041868-.8316455,1.3594897-.6664766-1.8560524.142589-.4409313,2.2900818.5368434,2.8217042,1.6598995,1.1150684,3.7369605,1.2105045,5.6423524.8305448,1.9587177-.5184137,3.8913303-1.4163111,5.8422686-1.8093607-1.9689069,2.9502516-5.5584292,4.5371162-9.017173,3.6025079Z" fill="#423b30" stroke-width="0"/>
      <path d="m80.2890505,61.251246c-4.9297046-.3695177-9.9042714-6.7971511-6.8731014-11.3627673,1.3473073-1.7203504,3.769789-1.7909458,5.6091223-.8909659-1.9442893-.423632-4.3463331-.0257333-5.0303321,2.1742375-.5173576,2.7129701,1.3797193,5.2250719,3.4558878,6.7401809,2.6702945,1.7959437,6.0080622,1.4227965,9.0417907,1.953348-1.8911865.7441821-4.0893128,1.4953256-6.2033672,1.3859667Z" fill="#423b30" stroke-width="0"/>
      <path d="m87.9709944,52.2217865c-1.3885549-.920983-2.6346993-2.0358134-3.6881119-3.3242912-.6508582-.792882-1.7951851-1.2010442-2.7511535-.8605917-.7513964.2708686-1.6740156.7768173-1.8565284,1.6045656.4277523.211935,1.0445324-.0022015,1.445302.1013861-.5216861.2208598-2.0296255,1.0281405-2.2010418-.0495031-.1927317-1.793296,1.5151983-3.2166578,3.1148998-3.625177,3.4671331-.8086492,5.7836622,3.2204062,5.9366338,6.1536113Z" fill="#423b30" stroke-width="0"/>
      <path d="m90.0493793,50.6985261c-1.1210777-1.6135202-.9673029-3.7417353-1.8899519-5.4044015-.9978258-1.5968605-2.7296892.7838679-.6195915.8654706-.2942219.1542211-.8062692.2932699-1.1766794.1789429-1.001842-.3796028-.9603415-1.8004359-.3732067-2.5170105,1.0439077-1.3984317,3.1121777-.88454,4.1049164.3083827,1.6126872,1.8246519,1.805166,4.8702801-.0454869,6.5686159Z" fill="#423b30" stroke-width="0"/>
      <path d="m90.3616591,59.0762648c.7035147-2.3334268,2.3693343-4.1610238,3.400182-6.2984018.8471449-1.6184883-.6967615-2.5181113-2.0415253-1.6912852.2104773.2244.5960002.4115537.7431112.6212872-.4183961-.12111-.9776855-.117064-1.2680102-.4760207-.159933-.3046342.0990061-.7006587.3046045-.9062273,1.2071131-1.1959273,3.546341-1.0469124,4.2383426.6244109,1.2796125,3.583617-2.1774505,7.1471235-5.3767048,8.1262369Z" fill="#423b30" stroke-width="0"/>
      <path d="m88.996398,60.9886775c-1.1379754-.2230613-3.5623165-.894268-2.6388345-2.467448.9466568-1.3051078,2.5756169-.0095496,3.4194894.6852188-.7639358-.050574-1.8780224-.830991-2.4873206-.1852795.7707781.4583496,1.6837586.32888,2.4683404.7490015.4540061.2271964.9302054.5522685,1.2375468.9405879-.6289923.301689-1.318852.3880814-1.9992216.2779192Z" fill="#423b30" stroke-width="0"/>
      <path d="m99.7339809,99.170115c-1.7974014-3.5113557-3.2227564-7.2259595-3.9259736-11.1191492-.564436-3.2068107-.7635193-6.4899287-1.7610476-9.586012-1.6274131-4.9948113-6.4177566-8.4547897-6.6553653-13.948023-.051764.2057173-.0097281.5609554-.0981434.697892-.0723506-.7273142-.2018202-1.4660522-.1447013-2.1933664.0190396-.2437074.3579452-.2589391.449514-.0610161.8781438,2.467686,1.7379323,4.9248406,3.5624057,6.8429057,1.8516941,2.0123411,3.8460368,3.9289782,5.1198779,6.3858354,3.28407,7.0634681,3.6333879,15.3499652,3.4534335,22.9809335Z" fill="#423b30" stroke-width="0"/>
      <path d="m97.3041064,100.3782991c-3.9467089-4.6269595-7.4638955-9.6217708-10.821744-14.6837266-3.7486669-4.825537-4.7335666-20.8010733-11.3515815-21.1186485q.0036889.0001487.0074671.000119c-.0448919.0059796-.0660735.0568214-.0951536.0647645-.005221.0242755-.0424524.0108288-.030508-.0077646,1.225647-.713689,2.8118274.3898664,3.7470902,1.1996163,4.4099374,4.085728,5.591228,10.3585156,8.2471981,15.5165025,1.3964683,2.8435998,3.3711466,5.2248339,5.2252207,7.753774,2.4033082,3.3616268,3.9102064,7.3892541,5.0720111,11.2753634Z" fill="#423b30" stroke-width="0"/>
      <path d="m104.6799436,98.4781431c-.1309868-3.9498921,1.2534702-7.6847553,2.2197244-11.4543361.5017837-1.4866983.7003315-3.9601557,1.2148182-4.919813.0006842.0064556-.0071101-.0157672-.012346-.0221336.1988229,5.5807562-.3223351,11.6447919-3.4221966,16.3962826Z" fill="#423b30" stroke-width="0"/>
      <path d="m119.3233894,93.6058698c5.1224364-16.5812051,18.9563405-28.6036661,24.7668814-44.8877933-2.1828946,9.3035411-6.9179338,17.9495601-12.0178201,26.0309647-4.0577041,6.3907738-7.4265599,13.4422231-12.7490613,18.8568287Z" fill="#423b30" stroke-width="0"/>
      <path d="m127.2760681,61.7579384c-2.0394131-.9850038-4.2482194-1.8659441-5.7463415-3.6329714-3.8451443-5.0866478-.3514673-14.8399409,6.0395817-15.8521952,1.3623159-.1307488,1.9447801,1.4673017,2.0487247,2.5131431-.2764615-.6220012-.5061569-1.3118014-1.0488164-1.7354333-2.5791868-1.0586039-5.2437248,3.3660297-5.9569675,5.4236197-2.1787297,6.4665159.805823,8.8693778,4.6638191,13.2838371Z" fill="#423b30" stroke-width="0"/>
      <path d="m129.4948108,61.3684291c-2.1073013-.4485917-2.7525963-4.0189405-.1751944-4.0286984.5001773.0083893,1.0104693.556374,1.1424378.9558791-1.6574006-.9972606-1.713984,1.3796301-.0419467.6016228-.0000297-.0000297-.0105016-.0195454-.0104718-.0195156,1.1182218-.7133617,1.5470302-2.1822401,2.8816196-2.6156002.2741708-.0990061.4455276.0609268.6016526.3046045,1.6735248,2.5983455-1.833785,5.5812917-4.3980971,4.8017077Z" fill="#423b30" stroke-width="0"/>
      <path d="m134.4854869,51.3848159c-1.0224881-.5312952-2.586059-2.1228305-1.39745-3.1871761.5064544-.3274818,1.2033052.2398995,1.6297931.4760207-.2950549.0902598-.7448366-.012822-1.0830282.076932.3238226.5683035,1.1718005.7797625,1.7904698.6685888-.6301823-.9756328-1.6164058-1.7818722-2.4704527-2.5391739-1.7134783-1.0735679-3.9439125-.3976607-5.8147652-.776728.805109-1.0700277,1.792106-2.0001736,2.9586706-2.6653412,3.2559568-1.925086,6.3758396.7778585,7.7833449,3.6667965,1.6020369,2.5412563-.4565348,5.7324486-3.3965823,4.2800811Z" fill="#423b30" stroke-width="0"/>
      <path d="m126.4483496,52.1874854c.0913903-.6930429.3655611-1.4736681,1.0167167-1.8392291.0949899-.0539952.1894742-.0974592.2836014-.1318495-.0737489-.1357169-.2091385-.2721478-.2417737-.4011414,2.2300772-.52478,4.9792821,1.1798329,3.9679203,3.6591806-1.2127358,2.8087335-5.3369893,1.8118596-5.0264647-1.2869606Zm2.2511993.9534099c1.4497793-.3575882-.0831794-1.7418295-.5502456-2.3600227-.2674474.2238348-.3945965.6199187-.4014389.9519224.0179687.6006114.2967506,1.3288776.9516845,1.4081003Z" fill="#423b30" stroke-width="0"/>
      <path d="m165.3543048,62.4738884c-8.1460798-6.6466785.6900382-18.4399796-.2287137-11.4656706-.169423-.4148559-.0910928-1.1189358-.3918001-1.5463757-2.1687636,2.4412387-1.1009671,7.75425,1.0009793,10.0191638,1.1043586.9203583,2.2187129,2.727696,3.8384805,2.1436254-.2689052,2.0143046-2.941535,1.9495103-4.218946.8492571Z" fill="#423b30" stroke-width="0"/>
      <path d="m170.0221996,64.7362735c-2.8963158-1.2964804-1.9802415-5.1681613-3.0956668-7.6235904-.0872253-.147587-.2458196-.6029318.0761288-.4988088.0296899.0301659-.0555422.0329921-.0767535.0439102-.0015172.0063961-.0030939.0127923-.0047004.0192181,1.504072,1.3065655,2.4708096,3.0647571,3.3551711,4.826965.1008506.1977148.2844939.3554463.4561778.4928589.0011007.0002677.0022015.0005057.0032724.0007437.0766345-.0003867.1585645.0056524.2276427-.0312072-.1902476-.3944478-.5248395-.776252-.5756218-1.213301.4510312-.8261716,1.7588759-.9889902,2.5398878-.5445932,2.9185387,1.8534791-.1463375,5.6810713-2.9055382,4.5278046Z" fill="#423b30" stroke-width="0"/>
      <path d="m170.5289514,60.3183632c-1.9751543-2.5732965-1.7531045-5.8920543-2.9496566-8.7487736-.4323783-.0614921-1.1255997.0597666-1.4563836-.3063597-.5890983-.5370666.0519128-1.3599955.7350491-1.3519929,3.6549859.4558506,4.4502181,7.5349074,3.680392,10.4124811-.0039567.0000595-.0079728-.0018147-.0094008-.0053549Zm-2.97774-8.7985742c-.1798353-.3290585-.6362214-.9158959-1.0405758-.6563916.1705238.3828455.7078283.447491,1.0405758.6563916Z" fill="#423b30" stroke-width="0"/>
      <path d="m178.2338768,54.9501073c-.0381983-3.9147878,1.5717222-7.7280705,1.3820993-11.6066532-.4833093-4.2834428-8.7512131,3.8875075-8.198409,5.7620492.5408447-.1255724,1.0636613-.6426176,1.5306085-.8116836-.2970184.3046342-.5978447.5978447-.910065.8871877-.8212629.8441105-1.3778749.1637409-1.2949632-.7731283.7830052-3.6014667,3.4805353-7.1242759,6.8733989-8.6246292,2.2601539-.8606214,4.3947949.9782507,4.7373299,3.1947324.7927035,4.3576081-1.8287276,8.5191675-4.1199994,11.972125Z" fill="#423b30" stroke-width="0"/>
      <path d="m178.7997111,64.6840334c-.582018-.0869874-1.2637858-.1382159-1.7896666-.3045747,2.1164344-1.2497738,4.7088597-1.8526164,6.2491665-3.8612983-.0000595-.0000595.0186231.0151722.0186231.0151722.0826439-.1786454.2150884-.3488419.1784669-.5556005-.6495492-.6929834-1.6074215-.4236022-2.4440649-.4839936-2.1980073-.2879745-2.4194026-3.493625-.27426-4.0667776,1.1420808-.2181526,2.123128-.8588067,3.1227388-1.4192861.8439915-.5619668.7703021-.9352033-.0594096-1.452903-1.0469421-.5753243-2.3449993-1.2174362-3.5134679-.8021638-.0152912.026834-.0306122.0536085-.0459331.0804127.0324864.0711904.1970305.1015348.1837623.1591595-.1258699-.0074374-.3282553-.0153805-.3656206-.156244.1157848-.9273792,1.6582633-1.0818085,2.42565-1.2030969,3.7788328-.5102623,6.4492612,2.6834884,3.640379,5.8514165,1.9444529,1.4013472,2.1494562,4.2890059.6283973,6.0786725-1.9053026,2.3138219-5.1873496,2.5519066-7.9547612,2.121105Z" fill="#423b30" stroke-width="0"/>
      <path d="m172.4943777,63.9883131c.1699288-2.2102046.7777395-4.6429052,1.5154958-6.6182975.316058-.9586161,1.17186-4.2616662-.7387082-3.6212203-.7222866.2464443-1.267921,1.1153956-2.0601187,1.001485-.3084422-.0456951-.4569513-.4074483-.2704521-.6550528.6870335-.6570163,1.2482268-1.4711394,2.0563108-1.9609638,1.1832838-.6054308,2.6690896-.0650918,3.2749964,1.0890079,1.9813719,3.8171204-.9561766,8.2805472-3.7775239,10.7650416Z" fill="#423b30" stroke-width="0"/>
      <path d="m176.288234,65.8527698c-.6399104-1.1153064-.1817393-2.3203965.0227286-3.4614064.0330219-.7204421-.8476507-.9869375-1.4051551-1.1499942-.039537-.014369-.0349258-.0727969.0041352-.0792822.6004924-.2469501,1.2831527-.3635679,1.8809378-.054025,1.7300784.9204475,1.1006101,4.0168581-.5026465,4.7447078Z" fill="#423b30" stroke-width="0"/>
      <path d="m162.5762132,70.7530076c-3.7568778-.6073645-5.1901461-4.7392041-2.5590167-7.5205681,1.0941545-1.4561159,5.5798637-3.8878943,5.6966005-.6282783-.1235197.8264096-.7513518,1.502644-1.2568244,2.1400257.3416128-.9495127,1.2303177-3.3925662-.7919895-2.2771408-1.0964452.7927332-2.0729109,1.8550558-2.4408817,3.1683447-.6937866,2.7279043,3.930793,2.7921631,5.6396601,3.5906974.6484485.2409109,1.4108372.460313,1.9839006.7578966-2.0029403.5968034-4.1803312,1.1596033-6.2714488.7690229Z" fill="#423b30" stroke-width="0"/>
      <path d="m167.1868998,74.4991161c-2.0777304-1.9044994-1.1554086-5.4712485.5979637-7.2959599.6449083-.5609554,1.1552003-.3392328.6130466.4721533-.0490866.002142-.0146962-.1179863-.0274587-.1634732-.3402145,1.2781548-.1663588,2.6992556.3284933,3.9096114.8389638-1.373472.3348002-3.6590616,2.2769326-4.1497786,1.1275334-.3209964,2.2343016.3579452,2.6977681,1.3880194.4609973-.5232926.9726876-.9749783,1.6928024-1.0719912.6410111-.0857081,1.2202921.0384958,1.7628921.3475329,1.7397768-.4018851,1.9274957,1.8108184,1.1159013,2.8435106-.3653528.4792932-.9171156.8199242-1.4926779.9590921-1.1123314,1.0963262-2.7284993,1.8029646-4.2788316,1.2966887-1.0556885,1.7316849-3.5233447,2.8895925-5.2868318,1.4645945Z" fill="#423b30" stroke-width="0"/>
      <path d="m137.4943746,88.095709c-4.0300668-5.0336046-2.7395958-12.0812162,2.515642-15.6631375-.9930064-5.8471326,5.274932-15.8691821,11.9237524-14.1604042-.5222513.0528945-1.2232671.0091628-1.7633978.2206218-4.4930276,1.6468395-7.4060626,8.4021927-6.6699128,12.933835,3.441504.5902586,2.4026239,4.9758609-.8292953,4.2376881-3.8989016,2.8551426-3.6089636,8.3892517-5.1767886,12.4313968Z" fill="#423b30" stroke-width="0"/>
      <path d="m150.5511343,67.8415196c.3874269-2.8441948,2.1054271-5.1825005,3.1870868-7.7377688.2440644-.8439022.1344972-1.923777-.8417008-2.1210753-.6769484-.052359-1.6028104.0734514-1.9943427.6651974.1131371.1029033.406407.0779733.4598073.1801328-.8689215.1802518-.8908171-.3711837-.3732364-.9061083,2.1252402-2.0897789,4.8191706-.5533098,4.5696621,2.3075447-.39299,3.0883187-2.5357824,5.8782803-5.0072763,7.6120774Z" fill="#423b30" stroke-width="0"/>
      <path d="m139.175664,89.3552406c3.6685517-2.662872,8.133823-4.1695024,11.4832228-7.252734-3.5412539-3.1686124,2.8575226-6.1948143,3.5388739-9.3119007.3752594-1.2554559-.7830647-1.739509-1.7859776-1.7038989-.5273385.0598261-.9401417-.6764427-.4301768-1.0187694.42268-.2894025.9139027-.3655611,1.4127412-.4455276.448562-.0963584.8711825.0900515,1.2757153-.1142378.0270422.0475991-.1037065.1170343-.1423213.1728145,4.5621652,1.4335956,2.0146615,7.226733.0483131,9.9145945,1.2696464,1.334173.8751094,3.5010921-.1687685,4.8587969-3.57258,4.4735714-9.9688575,4.9296898-15.2316219,4.9008626Z" fill="#423b30" stroke-width="0"/>
      <path d="m160.3179038,87.0011678c-7.1960315-.5049967-2.1306248-9.3453093,2.478842-9.5731602-.8185855.3316765-1.4983006.9276172-2.0811218,1.5899884-.9816719,1.385104-2.1670382,3.149543-1.6569246,4.8773903.3494666.2789902,1.067261.1866777,1.3847767.0365026.423156-.1599032.8375954-.3286123,1.2458171-.5213589.3169207-.1776636.6248869-.3616639.9320201-.5572367.000952-.0006545.001904-.001309.0028559-.0018742.2245487-2.6412442,4.1267227-3.179709,4.510431-.3196874,1.2043762-.0261498,2.3276851-.6187585,3.3085835-1.2766078,1.0713664-1.2217498,2.2415605-2.4718509,3.9106228-1.3024898.5864209.4259227.738381.6712663,1.1499942.9977068,1.4649812,1.0170142,3.3093867.6956311,4.9845477.7575991-1.2736031,2.5579755-4.4699122,4.2526224-7.2144167,2.8750152-2.4277325,1.9560552-6.157449,3.1722121-9.0016141,1.4026264-1.2342743.5686902-2.5909379.9761385-3.954414,1.0155862Z" fill="#423b30" stroke-width="0"/>
      <path d="m38.8626784,83.0698691c-5.0942934-1.7381703-8.7038371-6.3208626-11.077381-10.9707887-.7932538-1.7451317-2.4728177-5.6792268-.9479806-7.2502648.2475153-.0761586.4188721.1294695.5711743.2780382-.110177.0128518-.308814-.2510852-.5019622-.1569283-1.5573383,4.3953602,7.1428247,13.3732639,11.0221957,15.1158966,2.3914084,1.1731095,5.0205446,1.739152,7.582685,2.2528058-1.9874259.9859856-4.44821,1.3939396-6.6487312.7312411Z" fill="#423b30" stroke-width="0"/>
      <path d="m47.2251407,82.835622c-4.9449066-4.0740067-9.0602799-9.1502125-14.4052421-12.735198-1.3209345-.8453302-2.6954179-1.7667595-4.2648643-2.028138-1.4904467-.198637-2.0643134.6287841-.8988048,1.6906604.4330923.4642399.8702305.9025384,1.4469531,1.1538319-1.3876476-.1964058-4.1454054-1.9947592-2.4522609-3.5378029,3.0403328-1.9072066,6.7206356.4832498,9.4434973,1.9957409,5.2431745,2.9553685,8.8708504,8.0379108,11.1307217,13.4609058Z" fill="#423b30" stroke-width="0"/>
      <path d="m82.9670203,92.9373702c-2.275103-1.4435021-4.9575799-3.1086971-6.0124651-5.6891929-.3189735-.9999975.0752066-2.0685378.92906-2.6618903,2.2455915-1.3074877,4.8713958.725321,6.3402147,2.3762659,1.538388,1.793534,2.6084157,3.9602449,3.4310471,6.1648864-2.8230876-1.5078502-4.8096359-4.3190231-7.330499-6.2521117-4.5437801-2.384328,3.156906,6.7789147,4.3640191,6.5645105.001071.0024692.078955-.0106205.0495031.0228476-.6044044.2042001-1.2898165-.2676854-1.7708798-.5253155Z" fill="#423b30" stroke-width="0"/>
      <path d="m131.8272261,91.1252726c-.3546728-1.4256822-.3498534-2.8808164-.3628539-4.3366348-.0008627.0000892-.001666.0001785-.002499.000238-1.3285206.714284-2.4149402,1.6094147-3.5102549,2.613012-.4221147.8204299-1.2524215,1.3681766-1.2119028.5086261.5761573-1.6917017,1.8604107-3.0500014,3.1682257-4.2267701.525494-.4607593,1.0243326-.7311221,1.7288885-.792168,3.2771384.1020108,1.2837477,4.7256681.1903964,6.2336968Z" fill="#423b30" stroke-width="0"/>
      <path d="m117.8650721,91.1756979c.0848156-3.5264386,1.3310195-6.8925576,1.3948321-10.3857958-.0033022-.0025585-.0065077-.0051169-.0097281-.0076456-.0260531-.0148152-.0520095-.0296304-.0779435-.0444457-.0005652.0002082-.0011082.0004165-.0017032.000595-1.6753841,1.0218634-2.3968451,3.0307535-3.1598289,4.7477422.1896824-.2719991.3662453-.6889969.5632461-.8829633-.2368055.6796259-.4809889,1.4036379-.7120825,2.0638969-.4417271,1.3137351-.8529758,2.6503177-1.3746619,3.9297815-.2284757.5673812-1.1309546.4645672-1.1959794-.1562738.0487221-3.8114382,1.3822109-11.7162501,5.8951408-12.4671556,6.4869537,1.0427772.7813392,10.2695053-1.3212914,13.2022642Z" fill="#423b30" stroke-width="0"/>
      <path d="m159.0747641,56.2430178c-1.2400755-.7096728-1.830215-2.0192132-2.467805-3.2136828-.4597478-1.0636018-2.1490695-1.1733475-2.3976558.0687212.0635745.1160525.1431543.2106855.2768185.2205921-.197328.1294695-.5730336-.156006-.4988683-.4531732.1408933-.9519819,1.0814515-1.6412169,2.0526516-1.4852406,1.8335172.5975174,3.0994152,3.0365844,3.034859,4.8627833Z" fill="#423b30" stroke-width="0"/>
      <path d="m160.8616343,53.1297988c1.6384204-7.7188184,7.1163031-14.6233055,13.6213445-18.9404246,1.6754882-1.0471801,3.5489887-1.7630706,5.4643466-2.2162735,3.6720919-.7817259,7.2044804-2.0599104,10.8450379-2.9700647-1.0314724,1.0249871-2.3024873,1.993004-3.4920483,2.9050919-3.0558026,2.6533522-7.1372764,2.9525423-10.6883773,4.547945-6.4060353,3.4810707-11.6931645,9.1892438-14.9578974,15.6658744.2278212-.2897298.4563266-.7273142.6854568-.9377022-.2198781.3141838-1.1024248,2.9519175-1.4778627,1.9455536Z" fill="#423b30" stroke-width="0"/>
      <path d="m75.4259697,60.1090165c-6.9112848-6.7975974-12.3066723-15.0905799-14.8018318-24.5114527-1.2621496-4.3852156-2.6367966-8.7501718-3.7011422-13.1868837-.0609268-.3465214-.0038079-.4150641.0799665-.7463538.0038079-.0152317.0190396-.0228476.0342714-.0190396.1294695.0418872.1028141.0152317.1637409.0685427.0114238.0076159,0,.0266555-.0152317.0190396-.0370083-.028381-.0910779-.0225798-.1360144-.0340334.3090223,2.5364667,1.9612018,4.8687629,2.8053718,7.3033675,1.7970295,4.2647006,3.4297678,8.8442693,5.4451582,12.8975407,3.2095179,6.1423065,7.6488328,11.7414181,10.1257114,18.2092727Z" fill="#423b30" stroke-width="0"/>
      <path d="m32.5957217,64.3047579c-8.2378122-1.2839559-19.5849313-13.1105764-26.9545359-10.4514231.0022461.0298387.0045219.0594096.0067829.0889806.0703574.0199024.3010643-.0104421.3112088.0472124-.1142378.0114238-.2284757.0190396-.3427135.0266555-.0190396.0038079-.0380793-.0076159-.0418872-.0266555-.0456951-.2018202-.0685427-.2018202.1257062-.3660073,7.0427634-3.046729,16.4187732,4.1560557,22.897055,6.8318092,3.150614,1.4580794,6.322127,3.0320625,9.1961159,4.878015-1.7478389-.2589391-3.4880619-.5902288-5.1977322-1.0285867Z" fill="#423b30" stroke-width="0"/>
      <path d="m1.5410293,57.4840155c-2.6942874-.8563375-1.4194348-3.0545531.5063949-3.9067852,3.0095273-1.5638981,6.7263028-1.4455548,9.6987921-.0418575-2.7496065-.4076565-5.6399873-.1334857-8.0315147,1.3587757,3.7150798-.7994566,7.5478791-.9495127,11.283485-.2201161-4.0420112,2.0299528-8.9087214,3.0231079-13.4571573,2.809983Z" fill="#423b30" stroke-width="0"/>
      <path d="m17.9033083,62.2537425c-5.2534826.2501333-7.3538226-5.4774364-1.3214104-6.3743521.7515154-.1093887,1.7291265-.0258225,2.3418161.3198362-1.5399349-.1127206-3.2868962.5545592-4.2240034,1.8353022-.9502862,2.8762647,4.7691469,1.7370696,6.33364,2.1250022,1.0167167.1218537,2.0182017.3465214,3.0006769.6246192-1.8520511.841433-4.027077,1.543847-6.1307191,1.4695924Z" fill="#423b30" stroke-width="0"/>
      <path d="m28.9936302,60.8681031c-2.8365046-.6657329-3.9158736-4.0904879-6.5992281-4.8130422-.2561724-.2172304.1448798-.411167.354167-.4037296,1.6604499.1879867,2.9485558,1.4353805,4.184868,2.4562027.9077743.7154442,1.7610179,1.6470775,2.0601931,2.7605692Z" fill="#423b30" stroke-width="0"/>
      <path d="m58.5365158,31.2565261c-3.465006-3.6842891-7.5387599-8.8069338-6.0353276-14.1579053.3466404-.7955594,1.6929214-1.2770243,2.2086725-.396084,1.7677859,3.6131285,3.0714359,7.5846484,4.6798391,11.1953672-1.8660185-2.5320637-3.4337989-5.2592243-4.9916876-7.990044.9830701,3.8958671,3.5695307,7.3362704,4.1385035,11.3486661Z" fill="#423b30" stroke-width="0"/>
      <path d="m64.5085812,45.0128437c-3.5671061-1.1431816-7.7450723-5.0536854-7.0674099-9.0780701,1.1564498-1.5841575,2.2650328.7150277,2.9016856,1.6031376-.6031549-.3166232-1.2025168-1.003389-1.8751813-1.317067-.2681019,1.198694,1.1515412,2.5253106,1.827255,3.5043943,1.5313076,1.6342258,3.2929651,3.2403383,4.2136506,5.2876052Z" fill="#423b30" stroke-width="0"/>
      <path d="m64.6137603,44.4106556c-1.2908726-3.3579378-1.6883251-6.9346233-1.7723226-10.4969397-1.3251737.2571839-2.0184397-.8575572-2.1347749-2.0311427-.1838515-1.2681292-.0438655-3.4056559,1.6299121-3.4501016,3.4440922.2049736,3.1922335,13.4902387,2.2771854,15.978184Zm-1.7767107-10.5649767c-.1089424-1.4342203-.0664305-2.7108281-.6186544-4.0185241-.9736395.8790066-1.298191,4.0081117.6186544,4.0185241Z" fill="#423b30" stroke-width="0"/>
      <path d="m71.6675003,48.5801878c-.4912227-.2208598-.9405582-.5064544-1.3365827-.8682075-.6675773-.6011766-1.0243028-1.3809093-1.4958463-2.1316661-1.9422068,1.7444177-2.3588179-1.7288587-.3204163-1.8287276,2.1276202-.0606591,3.606301,2.9894316,3.1528452,4.8286012Zm-3.4880619-3.164388c.1651242-.013774.3292519-.0366811.4933944-.0619086-.0908399-.0998689-.2268246-.1566903-.3597004-.1701073-.0862287.0543225-.1582819.1315223-.2038134.2225853.0360712.0014577.0721275.0035104.1081987.0056226l-.0380793.0038079Z" fill="#423b30" stroke-width="0"/>
      <path d="m187.9821125,32.3211691c.5914188-.7739316,1.2310019-1.5027333,1.9316309-2.173345-.9261297-1.5321257,1.9137515-3.6414797,3.0682081-4.349546.920864-.6680533,1.9976449-.9333588,3.1225008-.7464431.9696829.1329502.9759302,1.4294306.7502808,2.1554656-1.9421919,2.8551129-5.5839691,4.4948125-8.8726205,5.1138685Zm2.0899276-2.3226872c1.315996-1.2949334,2.9866946-2.1004589,4.4577745-3.1922632-1.5811825.5891876-4.2126391,1.2899058-4.4577745,3.1922632Z" fill="#423b30" stroke-width="0"/>
      <path d="m174.5180831,35.6552181c.3465214-3.0904309,1.7683362-6.1154428,4.4284713-7.8481689,1.6748337-1.1832243,5.048271-1.8830203,4.2729115,1.265184.0182662.0010412.0550067.0176712.0262985.0295114-.2673284.0213303-.1987262-.6614787-.2170816-.7767578-.0340631-.7528987-.8966182-.8168005-1.4471018-.5543807-3.3484478,1.584455-4.220374,5.759461-7.0634978,7.884612Z" fill="#423b30" stroke-width="0"/>
      <path d="m180.8978496,38.6311732c-.6109047-.106503-1.2712231-.3339969-1.7249913-.7349598.4812566-.410572.9651609-.735763,1.5403663-.9687309-.4715286-.3633299-.962305-.7083638-1.395665-1.0266233-.063872-.0390313-.1245311-.0780625-.1879569-.1170938.0070804.0277562.0786278.0897243.0318319.0980541-.2475153-.0990061-.3617531-.1370854-.5216861-.3427135-.0990061-.1256616-.0152317-.2932104.1294695-.3199254,1.4937489-.2033076,3.0207875.3116253,4.3029584,1.0624714.9868185.6017121.3258158,2.1369615-.6359239,2.3837628-.500564.1377994-1.0381066.0486106-1.5384028-.0342416Z" fill="#423b30" stroke-width="0"/>
      <path d="m80.1399909,43.412562c-4.9493542-1.4345773-9.0676281-5.8458237-10.1215167-10.8947194-.1361632-.9026871-.6691094-3.4467994.5637369-3.6669452.040132.0334979-.1595908.0708037-.2079783.0992739-.4614881.7850281.0772147,1.7707757.2634908,2.5613967,1.4029983,3.9173462,4.6830223,6.7922722,8.2878805,8.6674684,2.2162883,1.1956001,4.8216249,1.5129076,7.1205721,2.372815-1.8707189.67201-3.9150853,1.2349586-5.9061853.8607107Z" fill="#423b30" stroke-width="0"/>
      <path d="m71.2913484,31.0066903c-.5015755-1.1534749.0158713-2.6471643.2706009-3.8458286,1.307458-4.5079023,6.4203001-2.8350617,8.1375417.4415114.5711892.9139027.9900612,1.9153877,1.2946657,2.9473956-.6058919-.2172006-1.247736-.6289328-1.8353468-.9673327-1.4504337-.817336-2.5078328-2.2375443-3.9832561-2.9775913-2.1566259-.7790187-3.3167795,2.7017843-3.8700149,4.2309648.0130303.0317426.0257035.0648538.0370232.0984409.0216576-.0050574.0443118-.0101148.0670701-.0151722.1156658-.065538-.0560628.1382159-.1182838.0876121Z" fill="#423b30" stroke-width="0"/>
      <path d="m78.5578118,28.0896689c-1.212349-.9112847-1.099078-2.6097098-.5939624-3.8839079.8191061-2.4058369,3.7264143-4.0777254,5.9912091-2.4317189,1.5681225-1.6705796,4.454502-2.2768731,6.0951537-.39775,1.4940464,1.6064993,1.4716748,4.0411039,1.5193632,6.1078567-1.3537183-.9053943-2.2974299-2.3263464-3.6918752-3.165816-1.0319484.4838151-1.5539618,1.5727337-2.4161302,2.2634561-.8779207.644938-2.2186237.5865101-3.0006917-.1903964-.4729863-.4766157-.5926088-1.1760844-1.088755-1.6383907-.6610622.1023976-1.2665227.740642-1.6566717,1.1813501-.8726848,1.0951957-.5295995,1.89849.8376697,1.9306491-.5669053.3678518-1.3884062.6419928-1.9953095.2246677Z" fill="#423b30" stroke-width="0"/>
      <path d="m92.2608631,30.1463664c-.6705225-1.8136149-.3926331-3.8778092-.103171-5.681458.2620628-1.1034066-.2409109-4.0137344-1.5467327-2.0742794.0000297.026953.0686617.13417.0199916.1208422-.3350976-.369369.1332775-.8910551.4531137-1.0854082,3.3636497-1.1466623,2.6672749,7.3428153,1.1767984,8.7203034Z" fill="#423b30" stroke-width="0"/>
      <path d="m125.1012653,43.3711806c-2.8406621-3.4353459-4.3373116-7.6551546-6.1422768-11.6674313-.7996648-1.8278053-1.6869195-3.6479948-1.9573939-5.6472759-.3751999-3.2083577,1.28673-7.0227113,4.3754875-8.2858724-.1261079.1355384-.4527492.2788117-.6243812.4492462-2.8738253,2.7264466-3.0781444,7.1978165-1.0189182,10.4640368,2.5644609,4.5552039,5.0214965,9.4216463,5.3674825,14.6872965Z" fill="#423b30" stroke-width="0"/>
      <path d="m128.7582743,26.93548c-.9255347-2.0610707-.1935201-4.941649-1.6781359-6.5836692-1.5558062-1.4004547-5.4305587-.98664-6.2373857.990091-.0042839.0264472.0698814.0942462.0136476.0873741-.4129742-.7774718.7437359-1.5793083,1.2451403-2.0677345,5.9069587-3.6797672,9.7928301,2.199584,6.6649149,7.5825957-.0046409,0-.0084488-.0028559-.0081811-.0086571Z" fill="#423b30" stroke-width="0"/>
      <path d="m131.9598193,22.9863614c.3998324,0,.3998324.6168843,0,.6168843s-.3998324-.6168843,0-.6168843Z" fill="#423b30" stroke-width="0"/>
      <path d="m130.2018359,38.8775878c.9911025-4.9017848,4.9872847-8.1544989,6.3208626-12.6457117.1836135-.8469664.1393166-1.7474819-.2667037-2.479556-.3269463-.5861234-1.2426637-1.2133605-1.7711624-.5450989-.0617003.0724399-.0807995.3727009-.1251559.3432787-.0609268-.4607593.0913903-.7349301.4874148-.9710513.6158728-.2601588,1.3743942-.0225203,1.8775761.3769849,4.4954373,4.65659-2.5391144,13.1394036-6.5228316,15.9211544Z" fill="#423b30" stroke-width="0"/>
      <path d="m135.3877575,27.8499181c-.658831-1.4046791-.935947-3.1572779-.9368692-4.6113708-.0012792-.4059311-.1251261-.842028-.4906872-1.0656843-1.1990213.0103528-2.5324207.7340376-3.311499,1.6125979.0040459.0150532.0080918.0300469.0119593.0450406l.0635448.077646c.1187597.0746711.3657396.015797.4328543.0919258-.4574571.2639965-1.0793988.0185636-.8379524-.5711594,4.076119-6.6722035,8.4337568-.7934175,5.0686494,4.4210042Z" fill="#423b30" stroke-width="0"/>
      <path d="m129.1265723,29.0481957c-1.317781-.8861464-2.2324869-2.146511-3.1733128-3.386408-.2650377-.3021353-.6418441-.499731-.9781615-.6186098-.8376846-.4861653-4.4613444.0759206-2.9960583,1.3738587-.1099316.0382875-.3438291-.1261376-.4950381-.1676083-.0761586-.0342714-.1713568-.2018202-.1866405-.2208598-.4045105-.8545823.5971902-1.6317268,1.2337017-2.0332847,3.5997412-2.1546624,6.8384433,1.501692,6.5955094,5.0529119Z" fill="#423b30" stroke-width="0"/>
      <path d="m133.0936595,30.8948324c-1.1529394-.9692069-1.1430923-2.2483731-1.8457145-3.2503044-.8262311-.3068654-1.8372954-.1751052-2.6250605.1851307-.55209-.0158564-.0202594-.7903533.2360915-.9480848,3.3251242-2.8899792,6.3815217.684951,4.2346835,4.0132584Z" fill="#423b30" stroke-width="0"/>
      <path d="m125.8931358,28.9810215c-.5111251-.3929603-1.4024777-1.1293481-1.0089819-1.8278351.3427135-.4150641.8872472.1218537,1.1728418.3465809-.1785561.0417682-.4824466-.0993334-.7062814-.0895756,1.7214214,1.5121936,3.9485831.305497,5.8888711.3446175.501397.0378115,1.041022.0701194,1.5079394.2056579-.5369178.6397319-1.1728418,1.0928753-1.9344273,1.4355888-1.5745484.7064004-3.4851167.5316819-4.9199617-.4150344Z" fill="#423b30" stroke-width="0"/>
      <path d="m129.4526261,39.4297671c-.0228773-1.1604065.7318064-2.0538416,1.3783211-2.9436472.8232264-.9934824,1.6140259-2.2703282,2.5972448-3.0080547-1.2701522,1.9230928-1.8022506,4.8399952-3.9755659,5.9517019Z" fill="#423b30" stroke-width="0"/>
      <path d="m138.8246206,24.6625933c-.2246677-1.4546284-.3427135-2.9130648-.3498534-4.3867923-.5696719-4.2486657,4.9661626-12.5848146,2.6680187-15.3623707-.3686253.1258996-.4881585.6588608-.6883722.869457.079431-.4251492.197804-1.1393439.7160094-1.2186856,3.2256421,1.1029603.5131183,9.4886421-.0153507,11.9951213-.6525539,2.7131188-1.2431099,5.5718908-2.3304518,8.1032703Z" fill="#423b30" stroke-width="0"/>
      <path d="m141.6202346,8.2226088c-1.8424123-1.4972594-3.5588953-4.2495284-2.4523352-6.6371289,1.9034582-3.5088865,5.6544158-.5250775,5.6968087,2.4978816.0789848,1.1285151.0103231,2.3269414-.3845115,3.3661189-1.4362135-1.2629826-2.2111268-3.0026403-3.1709031-4.6016725-.0000595.0000595-.0160647-.0012495-.0160647-.0012495-.2994876.3867724-.3626754.8612462-.3927223,1.2482566.0044922,1.4560266.3141243,2.950668,1.0231723,4.1799445.0077944-.0080621.0153507-.0167489.0241268-.025525h-.0038079c.0127625-.0136252.0368596-.0361456.0380793-.0037782-.0474206.2008384-.1744507.0867196-.3618424-.0228476Z" fill="#423b30" stroke-width="0"/>
      <path d="m137.6887277,17.6388408c-1.4470126-1.4089333-2.3571073-3.7355772-1.5117473-5.6851172.6236374-1.4145559,2.5079369-1.4136932,3.0500312.0684832.4840233.9303839.2990413,2.2156785.9159256,3.0158491.226542-.033945-.0486403.131195-.1657044.0571487-.8957258-.5609554-1.2940112-1.6633802-2.0083249-2.4176177.0085381,1.7465596.5260593,3.2550345-.2687564,4.9665493-.0038079,0-.0080026-.0018742-.0114238-.0052954Z" fill="#423b30" stroke-width="0"/>
      <path d="m146.1603258,16.9230098c-1.003032-.5420347-1.3756437-1.6314888-1.6196783-2.6690896-.1813526-.4233047-.4571893-1.0792203-.989972-.8848672.0484023.2787225.4009034.4522807.4924424.6522861-.9155686-.1319982-1.5204639-.9960706-.434074-1.4470126,1.9357958-.5387623,3.3704028,2.9213054,2.5512819,4.3486833Z" fill="#423b30" stroke-width="0"/>
      <path d="m107.0343734,22.9877596c-1.8470458-4.1873818-2.5499952-8.7020967-3.7018636-13.0885023-.118373-.3820423-.2944079-.7945182-.6330754-1.0312642-.0757123.0401915-.1308752.1064435-.1976553.1563035-1.3133483,3.4147592.6773352,7.0688527,1.9125912,10.2166108.104837.4427906,1.9083668,3.4208281.7881518,2.9700944-.3308435-.4385959-.6510962-.909232-.9377692-1.368593-2.5190558-3.2899306-5.1623229-7.0894096-4.933996-11.4220877.211935-3.5518744,4.0663016-5.297958,6.3937488-2.2583094,2.8841483,4.6486766,1.9578401,10.7085772,1.3098677,15.8257479Z" fill="#423b30" stroke-width="0"/>
      <path d="m110.3322769,23.3570691c-.3261133-2.5479499.4126842-5.0104595.5860936-7.5224424-.000119,0,.0191363-.0172547.0191363-.0172547-.0330293-.117183-.02226-.2703331-.1346311-.3480387-1.5759094.6903357-3.9591962,4.3996441-2.9788631,6.0059054.2659674.1424998.5590216-.105551.7678106-.1249476-.2589465.2360915-.5407332.5331099-.9330985.3923058-1.646899-1.3084992-.5641981-4.5259007.28584-6.0812012.8985148-1.9632545,3.4496479-3.5546113,4.973176-1.2834204,1.3681766,3.1071501-.6054233,6.6429895-2.585464,8.9790937Z" fill="#423b30" stroke-width="0"/>
      <path d="m100.4709339,22.5502049c-.0070804.0744331-.0145698.1488959-.0224906.2230018.0106726.0711012.0213898.1391976.0320699.2102393.0014875.000357.0031534.000595.00505.000595q-.0038005,0-.0038005.0000297c-.0258523.1327717-.2188963-.4257739-.2366568-.5184137-6.8394846-2.806175-.1774331-8.0473117.2757178-1.9040531,1.042212.6708795,1.9430249,1.5668433,2.6950386,2.555774-.9124524-.0009222-1.8752334-.2686969-2.7449284-.567173Zm-1.1948266-2.8213473c-.1162905-.1678463-.2299036-.3390841-.3764494-.4799476.0288941.2192236.2070635.3594624.3764494.4799476Z" fill="#423b30" stroke-width="0"/>
      <path d="m161.4949403,24.9097516c.1825128-2.9485856,1.7301082-5.4546483,2.7456349-8.1415876-.0000297-.0007735.0000595-.001547.0001487-.0023205-1.5481011.7334426-2.6521622,2.0595237-3.8294366,3.256165-.4662629.7133022-1.5984074,1.5128778-1.3627324,2.412828.2320456.064467.5791025-.0728861.7554572-.0154102-3.0380421,1.3229574.4296711-4.3185174,1.0815407-5.049342,1.2311507-1.9007212,4.4237709-4.559815,5.5939352-1.1576398.118373,3.4509346-2.4800617,6.6218972-4.9845477,8.6973071Z" fill="#423b30" stroke-width="0"/>
      <path d="m163.8199777,28.2702182c1.0120758-2.0011256,2.7262383-3.3973261,4.4389431-4.7654134-1.0885616-.2368055-2.217047-.3291775-3.3282181-.3546728-.3069547.0723804-.4683156-.4117024-.1626699-.5309679.7806252-.3084422,1.6259852-.472183,2.452246-.6053415,2.3010296-.6472287,3.9889531,1.4844671,2.0677643,3.2404573-1.4155377,1.5564607-3.4378746,2.6516267-5.4680653,3.0159383Z" fill="#423b30" stroke-width="0"/>
      <path d="m69.3782068,26.4261101c-1.2375319-2.5561013-1.9157893-5.3086381-2.3970608-8.0908053-.1112034-.4677206-.1724872-.5837137-.3784277-.9298484-1.8678481,2.0192132-1.6976218,4.972291-2.2396268,7.4975123-.0456951.1523171-.209436.2551312-.3655908.2094955-.6269991-.1170938-1.0464364-.8237916-1.5345503-1.21104.4054699.1096862.8987156.4460928,1.3175728.6170628-2.5312308-14.3476472,9.5869491-12.4124464,5.6241457,1.9076528-.0047153.0088653-.0203189.0102041-.0264621-.0000297Z" fill="#423b30" stroke-width="0"/>
      <path d="m67.066869,28.4565091c-2.177867-.5141595-5.0979823-1.7081531-5.5137307-4.165873.1461441-2.0545853,2.4567084-2.0859709,3.4804014-.6169736,1.0212684,1.1432113,1.4773867,2.6785202,2.5474591,3.7509279-1.3315253-.6231019-2.284831-2.1897667-3.4765935-3.1340138-.2576747-.1976553-.5753243-.3234656-.9058554-.305616-.2100161.9313358,1.3258729,1.4381175,1.8807593,2.0457497.760351.6970293,1.4852555,1.5636898,1.9875598,2.4257988Z" fill="#423b30" stroke-width="0"/>
      <path d="m84.2624149,16.7928561c-1.6971904-1.2718181-3.7489198-7.9882888-2.4597577-9.7939605,1.3410451-1.3658859,3.2183535-.0181769,4.0897739,1.2032159,1.9530207,2.2610761,3.0991772,5.1336817,3.5110879,8.0726879-2.6746825-1.8605297-4.1238966-4.9212419-6.0824507-7.4552086-.1625955,1.9382947.0921191,3.9451619.3551488,5.840796.1982949.7683089.2571839,1.6713233.967883,2.1277689.1279226-.0063961.2593853.0052359.3497195-.0639018-.079193.2390962-.5275021.2471286-.7314048.0686022Z" fill="#423b30" stroke-width="0"/>
      <path d="m92.925287,16.2411825c-.9340133-.6426176-1.6111997-1.4942249-1.9852691-2.5619322-.0741058-.2042894-.1586537-.4020041-.2474558-.6006411-.5138918.4974106-1.0230831,1.0352794-1.4706039,1.5724362-.0606591.0960907-.1167665.1669241-.146516.2840774-.2743493.0630391-.0763371-.7971361-.0343011-.9633769,1.1010861-5.5407125,5.1285053-1.1589478,3.8841458,2.2694366Z" fill="#423b30" stroke-width="0"/>
      <path d="m66.1309072,56.5307246c-3.006716-.7896393-6.3766428-2.0740414-7.7223883-5.1102688-.8929739-1.845655-.759875-4.3666817,1.0851404-5.5823031,1.9388154-1.079012,3.9376056.3852254,5.2550742,1.7819615.422799.5651798,1.3192982.9864615,1.2869903,1.7631301-.0342714.3579452-.4797989.5140703-.7462497.3081744-1.1819451-.7923167-2.6634075-1.9369858-4.1164146-1.8847755-.0592163.0181174-.1200687.0361158-.180356.054144-.0070952.0031832-.0141459.0063961-.0212262.0096091-.0198429.0320699-.0397601.0637828-.0599154.0951387l-.0241565.012584c-.0946478.2492408-.17335.512434-.1675042.7815772,0,0-.0190843-.0123758-.0190545-.0123758.3094239,1.9488558,2.2188171,3.0502989,3.6860146,4.032655,2.5386086,1.4602808,4.9561073,3.1214596,7.2998125,4.8817634-1.8314199-.1672811-3.7423749-.6384824-5.5557667-1.1310141Z" fill="#423b30" stroke-width="0"/>
    </g>
  </g>
</svg>