<?xml version="1.0" encoding="UTF-8"?>
<svg id="Layer_2" data-name="Layer 2" xmlns="http://www.w3.org/2000/svg" viewBox="0 0 133.37141 210.2714988">
  <g id="Layer_1-2" data-name="Layer 1">
    <g>
      <path d="m64.5373247,65.1146937c-10.9435288-1.3563209-10.6073005-11.7128517.4926143-12.1633781,3.0212579-.0733538,6.7009991.7590868,8.264719,3.6058574.0502878.125873.1901064.3822488.1213267.4712496-.0096225-.0774817-.0669668-.1546567-.0965035-.2393065-2.4666973-4.1537799-13.6866279-3.1197975-14.6087945,1.8137365.0862954,3.5077641,8.2046971,5.1105037,10.9460111,6.7189053-1.6355118.137392-3.4418572-.0382667-5.1193731-.2070642Z" fill="#423b30" stroke-width="0"/>
      <path d="m73.1402245,74.1361008c-10.4075437-1.9774579-11.1222556-13.1620503.9139108-9.6033569.1277696.0388524.3443447.0223966.4069325.0893076-.9634734.1334873-1.9618388.0600776-2.9327871.0989022-1.8655026.0363422-5.6329337,1.3132569-3.5872261,3.6361472,1.8788904,1.9959218,4.7299283,2.4003442,7.2589904,3.0232103.618543.1455641,1.2124303.7482929,1.8494652.5567919.7607324,2.0183742-2.5076416,2.6189553-3.9092857,2.1989976Z" fill="#423b30" stroke-width="0"/>
      <path d="m79.9222754,58.351051c.3722359-3.0942492.2832351-7.2264413-2.5955825-9.1036861-2.8616087-1.2592038-5.3305373,7.4268954-3.6438731,8.9259355.1597887.0242932.3738815-.1657574.4772741-.1292757-.2532799.2616473-.6510084.4226911-.92847.1000178-1.9962007-2.821557-1.0108606-10.0154493,2.5599376-11.2814028,3.0605009-.9550503,5.6630283,2.022781,6.4760845,4.691048.8750305,2.4907953-.3003324,5.2525815-2.3276318,6.8081292-.001283.0006694-.0027054.0009762-.0041837.0009762-.0064986,0-.0136388-.0058293-.0135551-.0117422Z" fill="#423b30" stroke-width="0"/>
      <path d="m81.7772909,76.501581c-1.0180844-.4777204-2.1631295-.5145647-3.2380562-.7998358.2535589-.2728038.6467131-.5068109.9509503-.7620153-2.5230933-3.9628368,4.035326-6.8208755,5.3821639-2.4346224,2.705418-.3763359,7.9610954-2.6561901,3.8230461-5.4021898-4.701061,1.2972474-4.9621225-5.1215207-.1715866-4.3463407,1.0526416-.5746423,2.1831554-1.3798332,2.5164552-2.5890002,0,0,.0192449.0365096.0193007.0364817.2079289-2.2454643-2.8859856-3.5559879-4.7447665-3.7373923-.7380847-.000781-1.6958962-.0288116-2.069694.6683567.5629838.7166085,1.7950494.3383202,2.6124288.4951524-.99923.2516344-2.6096118,1.0264518-3.4486626-.0286164-.7815392-1.3339522.9324584-2.5203321,2.0561668-2.788227,6.3299904-1.6879472,12.4229127,4.6719147,6.9432341,10.0204418,6.3954511,6.9808315-4.1042731,13.1468217-10.6309801,11.6678074Z" fill="#423b30" stroke-width="0"/>
      <path d="m47.4621119,77.5832573c-.9025312-.6940166-1.6562907-1.5338484-2.2369854-2.5085062-4.5102015,2.3487733-10.505135-.4646394-11.4472159-5.4884852-.8373495-4.1803323,1.3871965-8.5320282,4.5162818-11.2203489,3.2028017-3.0350083,7.6480168-3.6268037,11.5527283-1.6067281-2.2413643-.4931721-4.8436129-.8773454-6.9927131.3034841-3.8704612,2.1283213-6.8160782,6.6632065-6.1970052,11.1456005.5043565,3.4491368,4.9058102,5.1674017,7.5580398,2.8586802.5375191-4.7958073,6.8152972-2.7549528,4.2746046,1.33861,1.29761,3.1164506,5.8615857,4.4543354,8.5542854,2.3886856.3586808-.2631534.6158376-.7163296.9211904-.9668204-.1431376,5.0063859-7.0612976,6.6490657-10.5032105,3.7558284Z" fill="#423b30" stroke-width="0"/>
      <path d="m47.3067858,57.3235115c-.8376284-1.8820142-.1987248-4.3957639,1.3174964-5.7549298,1.6885887-1.5588389,4.8637503-1.6316907,6.1939372.4211849,1.052279,1.6958405-.5572103,3.6416139-2.4347061,3.2345419.0435939-.3862931.2285405-.8052746.2963718-1.0888723.393489-1.2294718-1.3798611-1.5164722-2.2348936-1.2709181-1.0454178.2913235-1.8208209,1.1681948-2.2769535,2.0484688-.3792366.807729-.7423242,1.6943622-.5479504,2.5822226.0189381.0206116.038964.0415021.0594361.0634804.0667994.0077259.0940491-.1174777.1272117-.0888335-.0574838.4425496-.448351.0339157-.4999497-.1463451Z" fill="#423b30" stroke-width="0"/>
      <path d="m56.7360738,77.485666c-2.3802625-1.4855687-2.302195-6.2921142.7676215-6.8401762-.2272854.1851975-.6784812.3388222-.9136319.607275-1.2637501,1.4565898-.8225113,4.2756366.9492768,5.0976459.8229297.3410535,1.7648154.1089151,2.4312476-.292746,1.4941313-1.0076252,2.574692-2.9939804,2.2669963-4.7339168-.2969297-.9231986-.9144407-1.8075447-1.2673759-2.6525642,1.5030007.7211547,3.130954,1.8492978,3.177365,3.6879133.0679987,3.4823831-4.0802308,7.2011719-7.4114994,5.126569Z" fill="#423b30" stroke-width="0"/>
      <path d="m44.4061294,49.4262311c-1.0032184-.0393545-2.1356009-.5215654-2.8199393-1.2967453-5.8825878,2.0518995-14.2288327-.6314567-15.8479724-7.1322249-.7831708-3.8034386,1.2999249-8.7139346,5.430081-9.4285628,1.3451645-.2790514,2.8619155-.0071123,4.0877336.3856516-1.8268175-.2189738-3.7834964-.140209-5.3052679.9942653-2.3792863,1.7885787-3.0796063,5.4495212-1.9003387,8.1100902,2.3381468,4.2530447,8.3174891,5.447262,12.585874,3.7072419.8850992-4.048909,6.5004614-2.1941167,4.1553697,1.456032.1451737.0356171.2248867.0716246.374523.0687239-.0357007-.0025939-.071011-.0053272-.105624-.0076143-.0437892-.0090367-.0867695-.0180456-.1295825-.026915,2.9205428-.0155633,5.4645266-2.3425257,8.0148975-3.4593728-2.1630738,2.7698746-4.6016846,6.7041787-8.5397541,6.6294303Z" fill="#423b30" stroke-width="0"/>
      <path d="m53.7008702,44.8099873c1.8773564-2.185833,4.8396523-4.1366547,5.3671306-7.1081548-.8217025-.764163-2.2715984-.7007942-3.2431045-1.3567672-1.2324004-.5601947-1.4509-2.108156-1.6601397-3.2273181-.1278532-.428353-.3182385-.8404733-.6462669-1.1530778.0307919.0346409.0616117.0703416.0924035.1059308.0084789.0075306.0169578.0150612.0789321.0904511-1.0643838-1.2168092-2.8107073-1.0451947-4.1956167-.554979-1.4655429,6.8808694-9.2984503,2.736963-4.2395732-2.2094568-2.7688426-1.9754218-7.7663591-1.7765576-9.8807627,1.0373851.6688866-.0104034,1.3996081-.3481379,2.0221674-.3828903-.4355489.2356248-.8710978.4712496-1.3030766.7068187-.475517.3067474-1.2163908.549345-1.4601599-.1713077-.1282158-1.2411861.9544088-2.2447113,1.8314474-2.9561599,3.2956515-2.5712056,8.8112469-3.079941,11.9180472.0301504,4.1550908-1.7098976,9.4190519.6332138,9.9733615,5.3107346,3.4581456.7087153,5.7504951,3.733878,3.5561274,7.0011084-1.8408189,2.699282-5.2774883,3.8977945-8.2109169,4.8375326Z" fill="#423b30" stroke-width="0"/>
      <path d="m71.2415313,43.5395154c-2.3205474-.9889102-3.6521847-3.4272701-3.8556788-5.8513496-.000251-.0029007-.0004184-.0058014-.000781-.0087578-7.1960678-1.0627661-8.9852322-13.5806692-2.294776-16.4456807,1.2998134-.4331503,2.6765786.5313831,3.3487285,1.5172531-.5825634-.4113672-1.1562295-.8497332-1.8629924-.9715061-5.6079711.1822969-3.9588484,12.143157,1.0775763,12.5206086-.055113-.0025381-.1121226-.0051878-.1682676-.009232-.0265524-.0052435-.0533559-.010515-.0602171-.0049646.1591751.0167347.3185174.0245721.4776088.0209463,2.1934194-5.1132928,8.0889487-.3966407,3.3287584,2.6160268-.0746368,3.5273995,2.8172617,5.5176036,6.0766268,4.1358459,1.028962-.3505365,2.1170812-.7848303,3.1048479-1.1216165-2.2204459,2.6765507-5.5664132,5.3412197-9.1714338,3.6024268Z" fill="#423b30" stroke-width="0"/>
      <path d="m83.4214211,40.3136477c-1.2775283-.1093056-2.6362758-.2912956-3.8342305-.6461553,2.1231057-1.3676448,4.4710981-2.2891141,6.741776-3.3702326.4300543-2.4555687,1.3972094-5.523126-.3937958-7.6139895-.7266214-.7073207-1.8134297-.8110481-2.7672528-.6175668-4.1548677,6.1079486-8.9487226-1.087645-2.1596152-3.6162608.0831437-.3037351.1649485-.6014457.1261798-.904121.002566.0452953.0060245.0905906.0090367.1358859-.0032354.0455184-.0062476.0903396-.0103755.1349934-.3879386-3.606973-5.0846486-5.8787946-8.3968675-5.762042-1.8829067.1398465-3.4343544,1.4664354-1.2174228,2.6811527-1.0938648-.4191489-2.0142463-.7229119-1.4531871-2.0993982,3.4400721-4.9106633,14.3643281-.5193898,14.4092887,5.242708,7.440067.5573219,7.5784003,9.5025302,5.3047938,14.8071288-1.5113681,1.8202073-4.1974854,1.7252657-6.3583279,1.6278975Z" fill="#423b30" stroke-width="0"/>
      <path d="m20.6685746,75.1114559c-1.8371233-.7552936-3.3962969-2.5515144-3.6862538-4.5448424-6.6776821-1.6310771-11.1522526-7.981958-4.9890097-13.369756,3.014062-3.0446587,6.6386065-5.8590197,10.9958248-6.4761961,1.6882122-.242235,3.5319039-.0394382,5.1087605.357091-1.2835807-.0503157-2.624687-.0298715-3.8628469.2070085-4.8644057,1.0139844-8.4257767,4.9087667-11.1944101,8.7621027-2.992014,3.6986514,1.9598306,6.3497932,5.1810126,6.8770762,1.7168704-1.7635324,5.6649109-.9373952,5.5028631,1.864889-.0439844,1.1606921-.9885895,1.9638191-2.0515229,2.2517678,2.466767,2.719531,6.2892972,1.1970901,8.8024333-.6132995-1.4941592,3.8695129-5.7185318,6.5535105-9.8068511,4.6841589Z" fill="#423b30" stroke-width="0"/>
      <path d="m26.9858467,63.5969665c1.3130617-2.0520947,2.7307711-4.2992046,2.6558554-6.7511196-.1449505-1.0407042-.7766024-2.0911145-1.7054071-2.5422267-1.5198888-.5574613-3.3381995-.6453744-4.8159169.0498695-.0004184.0004184-.0008367.000781-.001269.0011156.6364073.1102539,1.4120336.0970056,1.9850582.2171051-.7497153.1392328-1.5279912.3320168-2.2955988.3249882-1.4654173-.557294.6063267-1.8290488,1.3244692-2.0384001,8.5860953-3.3871346,11.1799764,9.320847,2.8528091,10.738668Z" fill="#423b30" stroke-width="0"/>
      <path d="m107.3559644,62.1441699c-2.3776616-.635473-4.6232376-2.5811628-5.3408292-4.9695416-.0502251-.1670683-.0939585-.3334392-.1316674-.4994755-4.9887377.8383814-9.3371633-3.963813-8.8149286-8.8220129.1738737-2.6091655,1.4753048-5.7238032,4.2590971-6.3796647.7316488-.1812091,1.5312266.3138317,1.8635781.8925182-.4154115-.37271-.9029286-.6650098-1.4673279-.5676974-1.6339778.3809658-2.4757619,2.1391989-2.8123808,3.6167629-1.1522968,4.1294309,2.4662789,9.7718197,7.0766656,7.8283054,1.4232947-4.3496319,6.7901115-1.3292386,3.5068158,1.8545414.0121954.0879409.0244327.1738179.0366769.2595555-.0109055-.0501484-.0218039-.1015518-.0326955-.1527322-.0021685-.0344735-.0043719-.0692817-.0201026-.0928777.9045951,4.5008859,7.5924017,3.9184898,9.7235401.706233-1.7330473-1.9737762.739814-4.7073923,2.8962217-3.2351555,4.3234421-1.870774-3.1722051-7.3874014-4.6770745-8.9781758-1.8656699-1.5760478-3.5320573-3.051743-5.8606374-3.6554479-1.9012033-.3617767-3.8122243.4068768-5.574418.9956599,1.1324383-.9570585,2.5550078-1.9365973,4.0093523-2.4635177,4.939705-1.2928964,9.6013278,2.3684924,13.2875118,5.2305474,4.5702234,3.4843633,6.6432922,10.3241212.0235681,12.8021144-1.4744123,4.6886215-7.4711517,6.8031646-11.9509658,5.6300609Z" fill="#423b30" stroke-width="0"/>
      <path d="m106.2922221,81.8868967c-.924635-.3355869-1.7064879-.831827-2.4383459-1.4851504-.2439991-.2193364-.4577015-.471417-.64368-.7444718-6.0019063,3.6914276-10.8480573-2.5450437-6.8963839-8.027337.9063802-1.285812,2.3555858-3.1229492,4.1198991-2.7166861-1.2640011-.0064429-2.1021594,1.4346394-2.6383676,2.4419578-.7865038,1.7612453-1.6091267,4.5299206.1248619,5.9520368-.0213856-.014866-.042806-.0297041-.0642543-.0445701-.0308756-.0280028-.060754-.0545831-.0926267-.0811355.0669458.0502042.1369388.10356.2042751.1571111.1363531.0887219.2777963.1666499.2669745.1534574.7889303.4066536,1.913587.1457315,2.5740854-.335559.6559382-.5583817,1.4720903-1.144822,1.7349927-1.9885307.3177365-.881808,1.3851883-1.3316372,2.2562861-1.0924423.9175088.2534752,1.4922835,1.1567036,1.3780691,2.0920628-.0752993.286582-.0502251.5690919.083576.8360665,1.3177125,1.8779978,4.5716946,1.4229809,5.9198992-.2148459.3700325-.5458586-.0801384-1.2147731.1834753-1.8029148.164049-.5300164.4479814-1.0173313.5247589-1.5708321,0,0-.0490327.0567028-.0489142.0566191-.7157787-2.731831-4.9026864-6.1735766-7.6332065-6.77664-1.4086657-.253531-2.9475136-.251467-4.3133245-.3737141.8960953-.3641474,1.8171811-.6426131,2.749019-.906938,4.4115782-1.4408591,9.2938692,1.2434453,12.0418004,4.6590847.6961642.9103686,1.174547,2.0206613,1.2529283,3.1666269.1735948,1.0770185-.4996917,1.9786572-.4567462,2.9917491-.1341078,4.7767856-6.1372414,7.1344283-10.1890511,5.6549956Z" fill="#423b30" stroke-width="0"/>
      <path d="m65.7993734,100.360323c-1.3744781-.5319409-2.4062292-1.4887204-3.1416642-2.7561033-.127909-.2203056-.2419282-.4520465-.3424202-.692113-3.9432293,2.9377517-10.4161621,1.5173926-11.163925-3.806172-.7294384-4.986109,2.8150304-9.168059,5.9727042-12.5952733,1.1023158-1.0621246,2.2762562-2.3272134,3.8771551-2.5060518-.0603565.0971729-.3413046.0921525-.4607625.1746826-2.6742357,1.6676703-4.0555471,4.8034774-5.576203,7.4260586-1.5596199,2.8468822-2.830789,8.2100592,1.2323725,9.491039-.0275007-.0058572-.0550014-.0116585-.0825022-.017432-.0536627-.0199701-.1073532-.0380157-.1610159-.0558661,2.3536264.6773168,4.6439956-1.0114463,6.0306063-2.7799991.2275364-.9629156.5665817-2.0019184,1.420136-2.5822784.9817701-.7675657,2.5490321-.389138,3.0131137.7925562.5128354,1.0448878.0455463,2.2201043-.5845158,3.1124552-.0669389.9238191.1573342,1.9873104.8630094,2.6246521.4713612.409638,1.087924.4986667,1.6779343.3783998-.0593804.0119095-.1187328.0238818-.1781132.0367815-.0409164.0031587-.0818328.0063104-.0896702.0203954,3.4792314-.7855904,4.9907389-4.6547964,5.3086706-7.7933578.9893286-2.199667,4.102488-1.2262085,4.0536505,1.0602001.0372905.0459926.0758083.0908416.1156648.1344356.0016177.0003626.0032354.0007531.0048531.0011156-.0363143-.0408048-.0731028-.0821117-.1113695-.1247852,1.2602079.6089485,2.242229-1.3782713,2.6075757-2.3593162.8770107-2.558292-.8867448-4.9491531-2.7436569-6.5433302-3.5994145-3.3442938-8.4217185-4.4504865-13.0696189-5.5098777.9285258-.1197648,2.0300328-.1101144,3.0205049-.1498315,7.2781795-.6730703,18.1162796,3.5886764,16.9861284,12.3488546-.5229041,3.5791097-4.0256478,7.4891555-7.8977545,6.2534221-1.6400302,3.9968362-6.0000376,8.0499637-10.5808875,6.416739Z" fill="#423b30" stroke-width="0"/>
      <path d="m67.1600454,88.0752835c-1.9968422-.6601288-3.4419129-3.6117982-2.0741008-5.3872123.2710745-.1584778.5186089-.2695405.7854161-.1856159-.1431934.0297878-.2865541.0735212-.4193999.1408226-1.0966818,1.1854874.4505823,3.5906567,1.7545514,3.9790137.784914.2545629,1.6412016-.0846777,2.1992207-.5354831,2.6181186-2.3212447-1.7797093-2.7531399-3.2630746-3.4737368,1.5038375-.7298847,3.6779004-1.2189289,5.1265411-.0428688,1.8214624,1.4660449.7991943,4.1942779-1.0387797,5.1159983-.8549767.5297933-2.0908356.7567718-3.0703743.3890822Z" fill="#423b30" stroke-width="0"/>
      <path d="m77.6023415,67.1292748c-2.6737058-1.1441805-2.9176143-4.6290738-2.0992308-7.0687724.2220139-.6762778.7854718-1.6856323,1.5137109-1.7921488-.7140704.3908393-.9819932,1.2959365-1.1062764,2.0473532,1.8301923-.4175033,3.8670584-.7682909,5.6401017.0268034,2.8816067,1.3551774,1.8486005,5.0319342-.5246334,6.3440755-.9414394.6230893-2.3373101.927968-3.4236721.4426891Zm.8588815-1.3141494c.2951446.0273613.7075717-.0967824.9404353-.174571,1.001796-.4809837,1.9336687-1.3593332,2.0088912-2.4900143-.2391949-1.7484432-4.1034642-2.0141348-5.5125274-2.7499045-.2116105,1.9752266.1904969,5.0941316,2.5632008,5.4144898Z" fill="#423b30" stroke-width="0"/>
      <path d="m54.0807483,67.0790148c-1.3066467-.5462212-2.2634263-1.517281-3.0381321-2.6846949-.332463-.5021531-.6242886-1.0916614-.8109365-1.6706826-.292746-.0584599-.6726241-.0485865-.9205489-.1429145.2469486-.1505009.4981646-.2900684.7535085-.4203203-.1825479-.522179-.185337-1.8068753.4674285-1.7324895-.5762879.2218187-.2241894,1.1096791-.0401075,1.5250906,2.4485401-1.3691509,6.1736603-1.4699497,7.537205,1.4237618,1.0557096,2.3764414-1.6825364,4.7201664-3.9484171,3.7022494Zm.934634-1.4922905c1.4621401-.0570933,1.5136831-1.5951253.2351507-2.0759974-1.3304379-.6375369-2.8322951-.4931721-4.2433664-.6925384.7407344,1.0622641,1.7643691,2.0050422,2.9272088,2.5507614.3446794.1335988.7087153.2359874,1.0810069.2177745Z" fill="#423b30" stroke-width="0"/>
      <path d="m22.872509,61.802168c-2.5781924-1.4964742.3019919-6.6284541,2.7989372-4.4768157-.2596391.0304014-.6520822-.0902001-.9123628-.0086463-.0175575.0049925-.0348919.0098735-.052031.014615,2.4969871,1.0257545.6734329,5.6178445-1.8345434,4.470847Zm.7416687-2.4922178c.1293873-.441936.2617589-.8825611.349895-1.267599.0118538-.0606076.0220898-.121243.0135691-.157139-.1877775.3048508-.3001929.7238881-.3482774,1.0287667-.0123.1329015-.0176272.2641017-.0151868.3959713Z" fill="#423b30" stroke-width="0"/>
      <path d="m44.2279883,41.1666162c-1.5605124-.6873506-2.9016605-3.3427876-.6640615-4.0519492.0236517.0655443-.1499988.1467914-.1969676.2219302-1.2715038,1.2924222.7896834,2.5379035,1.9676123,2.6555486,2.6522574.0570933,1.1410846-.9930102.0678872-2.0063531,1.0000388-.5716022,2.5469403-.5264184,3.188131.5889226,1.1874955,2.691082-2.4189197,3.9304272-4.3626013,2.5919009Z" fill="#423b30" stroke-width="0"/>
      <path d="m72.5404522,33.5185995c-3.5317505-2.8739645.4515585-8.7255373,4.4412824-8.2470081-.3767822.1557723-.955887.2518296-1.3601978.4569415-1.7346371.7650555-2.8761122,2.5801029-2.9667307,4.4376007-.0359239.8377399.2844902,2.0452613,1.3076229,1.937183,1.8327862-.5136443,1.9862994-2.7366283,2.226582-4.2684406,1.1060253,1.0920797,1.6689812,2.7596664.7962657,4.1626772-.7665337,1.4794606-2.9161639,2.5585988-4.4448245,1.5210463Z" fill="#423b30" stroke-width="0"/>
      <path d="m108.117652,51.3897434c-2.3586747-.627022-3.613639-3.4358327-2.8774509-5.6799303.0831367-.2802507.3332231-.6202723.6166395-.7371922-.0890775-.0695606-.2436784-.0912042-.2775174-.1732043,2.3145369-.3074725,5.510833-.2648548,6.5510072,2.2490623,1.0792777,2.4198959-1.5701279,5.0669098-4.0126784,4.3412645Zm.5810573-1.6031301c1.0395606-.0018966,2.0824752-1.2587575,1.3539781-2.177633-.9959318-1.2115935-2.5573158-1.6165179-3.8389441-2.4400333-.6256553.1348818-.5224021,1.0395048-.4701619,1.5154681.1818785,1.1131097.8190528,2.2506521,1.7707283,2.788227.3631991.2094071.7663385.3203862,1.1843996.3139712Z" fill="#423b30" stroke-width="0"/>
      <path d="m106.3880632,76.2526521c-2.7001396-.2396969-3.3102177-4.4297912-.263767-4.6374969-.0021476-.0492001-.0551479-.1205736-.0219225-.157139.1246667.0310708.2528058.0680824.685454.099962-.045379.0231776-.0907301.0463552-.3031145.011017.0984768.0069728.2495913-.0640103.2350321.0238191,2.7047487.7596725,2.7064779,4.6486534-.3316821,4.6598378Zm-.0893425-1.6065607s-.0039536-.0144476-.0038699-.0143919c1.3761516-.208403-.0287-1.9648231-.1010219-2.7653004-1.5351872.581643-1.4333285,2.4294068.1048918,2.7796923Z" fill="#423b30" stroke-width="0"/>
      <path d="m65.99662,107.7888082c-8.8633756-.8025413-18.4995883-7.6328439-24.7584562-13.7163808-5.2051385-5.2643585-11.1766434-9.6241428-17.389714-13.6056946-.5212307-.3677175-1.1388533-.7461453-1.5315613-1.2673759-.1820737-.246335-.4426891-.5819219-.1856438-.8603876.0193286-.0150055.0262875.0204721.0071401.0285606-.1820598.2484548.1005757.5517157.2819381.7287133,4.6981184,2.8690557,9.9145808,4.9173014,14.3875754,8.2213482,5.5968425,3.9052415,10.3676593,8.9730717,16.4900835,12.1419298,5.4148245,2.6460656,10.4171104,6.0359336,15.9831889,8.375447-1.0367994.0837573-2.2018704-.0039884-3.2845508-.0461599Z" fill="#423b30" stroke-width="0"/>
      <path d="m45.7983742,130.332313c3.1487765-14.1559251,19.7406628-22.8153812,31.2099128-30.002754,5.7026617-3.3820306,11.3781015-6.8033877,16.9793787-10.3491953,4.363968-3.061477,9.4575138-4.2190453,14.7336355-3.7668733,2.154288.0683892,4.4226789.0631736,6.5117295.18199-3.984313,1.7270228-8.2630176,2.4986885-12.4012621,3.7249807-5.082752,1.8937843-9.419024,5.252191-14.0886237,7.9350172-3.9485007,2.3134073-7.971973,4.4947219-11.9955847,6.6830163-11.486152,6.4895769-25.3189019,12.4435382-30.801753,25.3217956.2941963-.3023127.5054163-.83721.7704385-1.09869-.2320547.4712496-.4319788.9567796-.7532854,1.370908-.0394939.0501763-.1252036.053328-.1645859-.0001952Z" fill="#423b30" stroke-width="0"/>
      <path d="m54.8563745,139.896678c-5.8066679-3.2726134-10.0598242-8.3410014-13.8881139-13.6765034-6.1061078-7.8611613-10.4370526-17.0256502-14.1870796-26.204531-1.6279533-4.1339493-2.5949131-8.4871791-2.806161-12.9272064-.2387486-2.5780669-.1234743-5.2368508-.5640436-7.786385-.1665383-.5902614-.200705-1.3116392-.6927336-1.6937486-.0026776.0032075-.0053133.0064429-.007949.0095667-.0054667.2915746.3714689.5513253.4256894.7701875-.2317758-.2126425-.8792002-.7584453-.4176567-.9780884.1856438.0571212.2570453.0606912.3855958.2356248.9586343,1.3971536,1.2139782,3.1372016,1.5351174,4.7696175.7052707,3.8388604,1.2595106,7.6610977,2.5408182,11.3232117,3.8324734,9.6336467,9.437488,18.4690753,14.9290691,27.2259345,4.8670694,5.8634823,8.5157118,12.673285,12.7474477,18.9323202Z" fill="#423b30" stroke-width="0"/>
      <path d="m80.4440081,143.9819572c1.7193527-10.7254476,9.6395318-15.9974134,15.4400079-24.2551317,5.4439151-8.7121774,9.8964376-18.0222514,14.087508-27.332702,1.4350578-3.2355739,2.8234048-7.9050341,4.0663968-10.4517234-1.9455503,8.697674-4.4967928,17.276922-8.1074963,25.4533165-2.5164552,6.0692775-5.0293682,12.2629706-9.0001331,17.5540419-5.0441715,6.7217223-11.448743,12.3665655-16.4862833,19.0321986Z" fill="#423b30" stroke-width="0"/>
      <path d="m37.4623932,156.1194244c-6.3312734-.1276859-15.8668966-3.1836963-14.2520103-11.1778985,1.314512-5.1307527,5.7689312-10.1633842,11.0389446-11.3277021,5.7811475-.9278564,10.6911135,3.210667,14.9765399,6.5045893,3.2696569,2.7474222,6.9622838,4.9485674,10.1746522,7.7507679.4277115.4420197.9905279.976917.9745463,1.6279812-.178169-.7484323-.9961619-1.3065909-1.6440744-1.7731827-2.6238363-1.696203-5.4926689-2.9780266-8.1306739-4.6568255-4.7572617-2.6974133-9.6026317-7.1559603-15.4188663-6.4219756-3.9105129.9640592-9.0267622,6.8625449-7.9726145,11.0274534,4.0850002,7.0846425,22.1485097,4.0353539,28.8428986,2.0315668.9387897-.2654405,1.9549218-.5865797,2.8132175-.9103407-.6925942,1.0067606-1.6208131,1.8492978-2.5276117,2.6633302-5.0252403,4.6931678-12.3828818,4.8335441-18.874948,4.6622364Z" fill="#423b30" stroke-width="0"/>
      <path d="m45.0513364,150.9511859c-2.913319-.9082768-5.5300988-2.5319906-8.1611869-4.0449206-2.1434941-1.2961038-4.4085381-2.7805848-5.5905112-5.0623635-1.4730735-2.6327336.2718834-6.2248964,3.2093283-6.5831867-1.9486184.674186-3.297827,2.9232762-2.5776206,4.9357654.9665973,2.4223782,3.5329498,3.5103579,5.6819106,4.6502153,2.9768273,1.3629033,5.9118177,2.967679,9.1261106,3.6975915,3.6858215.5846552,7.4530294-.1359696,11.1500073.5005075-4.0368879,1.3027698-8.5207601,3.3571516-12.8380383,1.9063911Z" fill="#423b30" stroke-width="0"/>
      <path d="m57.762414,153.2041809c-.9903606-.0688355-2.1231893-.2306323-3.023796-.5069504,4.0800914-.3274426,7.9067076-1.9523,11.8420716-2.969966,4.1155411-1.4771177,8.9145559-1.6958683,12.5487229-4.2164236-.0278633.0310429-.0556708.0631736-.0834783.0953042-.0168463.0144197-.0335531.0289511-.0879688.1008267.2340071-.212754.4716959-.5985451.4533714-.9031727-1.3665849-15.4877018-15.7070103-3.317323-21.0802212,2.7198378.2674766-.104592.5998002-.3800175.834393-.4207108-.3467712.2301303-.640075.6424458-1.0460593.7318092-.0892518.0142803-.1606533-.0749715-.1392886-.157139.4053985-1.2929242,1.4229809-2.3095862,2.1885105-3.4093918,3.0197518-3.7304753,6.2360529-7.6265963,10.7743129-9.5246479,5.2071746-2.3305883,10.4063444,1.0111395,11.8025776,6.2508352,2.837957,7.4829567-3.0184967,9.858896-9.292649,10.8746097-5.1684337.9027822-10.437973,1.4541354-15.6904987,1.3351794Z" fill="#423b30" stroke-width="0"/>
      <path d="m67.2872292,157.3987935c-3.5043334-1.7277759-7.1254473-3.522658-10.3245116-5.726676-.0000837-.238665.2973759-.1421614.4605952-.0856539.0079769.04973-.2137581-.0057735-.2749235.0106823.0016177-.0016177.0032354-.0024544.0045184-.0029286-.0239028.0054109-.0495348.0125789-.0742464.0187987-.0023708.0064708-.0047136.0129136-.0070844.0194959,3.1399908,1.3933325,6.5121478,2.3361944,9.7270543,3.5894295,2.253497.7071813,4.585954,1.4119081,6.9713764,1.3114719,2.9322014-.100743,5.4137368-2.1316404,7.2849571-4.181699.3784835-.417057.5641831-.805944.662639-1.2865093.0890845-.432955.0579021-.8814454.1320927-1.2744882.7248643.487315,1.2745439,1.2069078,1.4566177,2.0705866.4376129,2.3582563-1.6112186,4.1762044-3.3773169,5.3691945-3.761044,2.7217065-8.6763651,2.0896362-12.6417679.1682955Z" fill="#423b30" stroke-width="0"/>
      <path d="m56.4823754,160.9145623c-3.1956616-1.2477684-3.3821421-5.4891546-2.2991549-8.2719707.3678291-1.0563511,1.6095451-3.283742,2.9667307-2.4704068.4998102.4284088.2677555,1.2959365.1998683,1.8493257-.0881641-.1838867-.0727123-.562426-.1302519-.8089562-.813893-2.2932141-2.0764995,1.8469549-1.9651857,2.7225154-.2869725,1.8721407,1.2127371,6.6780447,3.3547809,3.6536071,1.2964385-2.3599856,2.32911-5.3686088,1.4969204-8.0375173,4.6885657,2.5739111,1.9721585,12.4734167-3.6237078,11.3634029Z" fill="#423b30" stroke-width="0"/>
      <path d="m23.8352712,199.3443062c5.3367152-18.5037999,21.1729175-13.6572584,26.6105013-28.9339913,1.8601196-5.2269773,2.2495086-10.9584227,4.6094942-16.0027964.0821396-.1811254.4123713-.6479961.6032587-.5033524-.2767364.021281-.3781767.3659046-.4987225.5625096-1.884357,5.7656679-1.496,12.0581168-3.4071047,17.8410772-2.2321045,8.0654643-10.0987324,11.9527159-16.6969246,15.9979433-4.44343,2.8834475-7.9656417,6.9811662-11.2205023,11.0386099Z" fill="#423b30" stroke-width="0"/>
      <path d="m33.1716117,196.2609346c1.4082822-3.9167605,5.6073017-5.3359761,8.8470871-7.3806239,5.4434967-3.5940036,9.3566314-9.2119597,11.7465721-15.2157627,1.4006679-4.0386451,1.5310593-8.3750565,2.5617784-12.4974868.0606912-.1713635.1535131-.585492.3605774-.6783139.0142803-.0035701.0249905.0142803.0106823.0214204-.2977106.4203482-.2833745,1.0471191-.3570073,1.5494117-.2316364,4.1540588-.0603287,8.3671912-1.0779668,12.4346758-1.6433213,5.4533981-4.5584812,10.7504381-8.8039395,14.605057-2.3908054,2.1709949-5.1584766,4.0043389-8.2259781,5.0604111-1.7315691.5748375-3.5410661,1.1955282-5.0618057,2.1012111Z" fill="#423b30" stroke-width="0"/>
      <path d="m27.8505295,199.5644793c.0052993-.7068745-.0561171-1.4136931-.098428-2.1205676-.7550425.0222014-1.5486865-.1579199-2.257848-.3820536.4419081-.7647766,1.0725699-1.4428115,1.6584105-2.123022.7622664-.6435057.8698985-1.6958962,1.6545894-2.2930467,1.7235085-1.3043039,4.0354655.6361424,3.0765941,2.5643165.8709862-.4410156,1.7829168-.9793156,2.7712413-1.0292967.0989859.0045184.1050104.1141866.0642613.0714015v.0035701-.0035701.0035701-.0035701.0035701-.0035701q-.0035701-.0035701-.0071401-.0035701s.0035701,0,.0034585-.0000558c-1.622654,1.5088579-2.6238642,3.7649209-3.4677681,5.7758761-.5113293,1.9045782-3.4072442,1.5199586-3.3973707-.4599816Z" fill="#423b30" stroke-width="0"/>
      <path d="m51.6035918,207.8144718c1.598556-9.0875092,7.2488659-16.8009308,9.0716949-25.8340523,1.369625-6.827653.3471059-13.8202546.4353258-20.7197275.0660185-1.7590698-.0051878-3.6223132.5356225-5.3051006.0464109-.1213825.1927839-.146373.292746-.0785416.1999241.1392328.1713635.1606533.2535031.4284088.2013186.8915699.3686937,1.7924834.5854083,2.6811806-.3302875-.7053125-.5775988-1.6793846-.8720461-2.4744511-.1658968,8.4275478,2.4703511,16.6973429,1.471902,25.1300785-.5491219,4.7882488-2.2864923,9.3359082-4.027126,13.7983321-1.847206,4.475979-3.5747029,9.5745453-7.7470305,12.373873Z" fill="#423b30" stroke-width="0"/>
      <path d="m95.7704151,208.1577008c-7.5141669-2.4105244-10.8019531-10.1224957-14.0732556-16.6364286-2.419617-5.0103743-4.6036649-10.1715842-5.7480685-15.6333496-1.0962913-5.7126188-1.5240028-15.2188028-1.1378213-19.1984859.836178,7.5071104,1.4400224,15.1313918,4.014826,22.2888861,4.3100264,10.3850076,9.6798067,20.6400981,16.9443195,29.179378Z" fill="#423b30" stroke-width="0"/>
      <path d="m52.0260597,210.1774138c-1.7881603-.6420553-.2076499-2.5607464.5176885-3.4808769-.1427471.3813842-.5106041.857208-.7035275,1.2746276-2.1892636,4.8066012,8.6480277-1.4684156,10.0928195-1.9208666,9.1741672-4.0537063,22.3196222-10.4032485,30.370583-1.1459376.9604891,1.1911214,1.9673961,2.4977123,2.6417982,3.8199781-1.1934921-.9463483-2.4359612-1.8263712-3.6686126-2.7225711-8.1151943-5.9600695-16.7371716-2.9792817-25.3056257.0161211-3.1463221,1.1589907-6.2793958,2.3450917-9.4504574,3.4348565-1.4313761.4285203-2.9819314,1.0587498-4.4946661.724669Z" fill="#423b30" stroke-width="0"/>
      <path d="m18.939976,177.5364596c2.9069598-6.2225257,9.2298241-10.964252,16.3185387-10.0432289,3.3876646.4566904,7.0282186,1.4268578,9.9632928-.9676571,4.1777942-2.8845632,6.1444861-7.9210995,9.9613125-11.1773965.1204342-.074079.4165829-.3182385.5676695-.1999241.0071401.0107102-.0035701.0249905-.0178504.0178504q0-.0035701-.0035701-.0035701h.0035701c-.0024544-.0030401-.0208905-.0070286-.0144476-.0072517-2.6115921,2.4105523-3.6912323,6.4061613-5.6726786,9.3820403-3.6462717,6.0213744-8.0770112,7.4933601-14.8089696,6.3972919-6.1305126-.4282972-11.7590255,2.9060394-16.2968672,6.6018459Z" fill="#423b30" stroke-width="0"/>
      <path d="m19.4286297,170.7177317c1.5612097-4.1530548,5.2693859-9.4362886,10.3460855-8.021954,1.5987512.4530925,3.0257763,1.3189746,4.7145603,1.1866309,4.5560825-.7296616,8.6340263-3.1435608,12.8602397-4.8765524,1.9658272-.9244537,3.7696624-2.1152682,5.5342825-3.3609448.4533993-.3034562,1.0924423-.731865,1.6315234-.4141285.0107102.0071401.0035701.0249905-.0071401.0214204-.0606912-.0214204-.1178124-.0357007-.167905-.0501763-1.3166039.3005834-2.0401015,1.8226059-3.0843199,2.6386465-3.5094096,3.1961357-7.7089869,5.6230881-11.8920526,7.8217231-2.6142975,1.3496549-5.6261003,2.1890684-8.5110261,1.1962534-1.31401-.3885243-2.6650316-1.081509-4.0282138-.4661177-2.644169,1.0969049-4.9883124,2.793359-7.3848354,4.3402047-.0067078,0-.0142663-.0088136-.0111983-.0150055Z" fill="#423b30" stroke-width="0"/>
      <path d="m22.3507623,175.526118c-1.0416664-.2665283-1.4469255-1.3300195-2.0836396-2.073041-.536013-.5969274-1.2236983-1.4412496-.6617604-2.2396072.3462971-.4891.9639197-.4855299,1.4958745-.4284088-.1144097.2265323-.4370411.409889-.5088191.6965547,0,0,.0000139.0000558-.0000279.0001673,1.5061106.5727178,3.2302746,2.0722042,2.2617389,3.8194203-.1360672.2516344-.2736126.2887854-.5033663.2249146Z" fill="#423b30" stroke-width="0"/>
      <path d="m91.0798691,42.3816404c2.6315622-5.5825064,4.5038493-14.6109421,10.2214816-17.621685.0158701.1088872-.0862675.2483711-.1144724.3770611-1.2402308,4.9005946-4.4340516,9.0434969-7.0542899,13.314141-.8895339,1.3940298-1.9010081,2.7035772-2.8953013,4.0235002-.0612212.080745-.1931465.0059687-.1574179-.0930171Z" fill="#423b30" stroke-width="0"/>
      <path d="m104.0388994,29.9756367c1.0769279-.8685597,4.1733038-3.4474912,2.977413-4.940981.0650702.0578463.1280764.1108117.1962703.1714193-.525749-.5480341-1.3089338-.7947875-2.0525688-.6296158l-.0073633-.0165953c-.0954367.0278912-.1895765.0596035-.2826494.0944396-.8291425,1.7381235-3.4211549,2.3549652-4.3334271.3660998-.5759253-1.2059316.1530669-2.5066375,1.1311274-3.2526712.5453565-1.3739203.765948-2.8966959.5123543-4.3600911-1.4024739,2.1207349-3.8347047,6.868151-2.079951,9.1270032.305548.0326327.4932837-.3439263.6863465-.4396489-.1213825.2570453-.3570073.8282569-.7391446.7570228-2.8585965-1.116624-1.730565-7.7388584-.7673147-10.0141105.5277293-1.9854068,2.5389843-4.2281379,4.6839637-2.8705339,1.9837334,1.383738,2.2622548,4.2394338,2.1318077,6.4749968,8.5406466,1.1457982,5.8516564,11.589712-2.0568641,9.5332663Z" fill="#423b30" stroke-width="0"/>
      <path d="m34.181273,52.1547988c-8.3786545-2.8517353-12.7630388-11.4453472-19.4783461-16.6888361-.1023188-.0142245-.2167416-.0941049-.3067883-.1621594-.0249914-.0249905-.0107111-.0749715.0286015-.0679151,1.1041287.3758339,2.0326824,1.2436126,2.9988334,1.8814842,6.0095624,4.48906,11.2204326,10.0832249,16.7576995,15.0374264Z" fill="#423b30" stroke-width="0"/>
      <path d="m9.6654423,36.0044301c-.6925942-.7604255-.9960504-1.7921766-.9746299-2.8025073.0142803-.7908827.3507318-1.6796357.9011785-2.3052073-2.3353577-8.8918525,7.858163-9.8364994,10.4552795-2.2394677,1.04281,2.9180326.1495108,6.1796011-.8068086,8.9536873-.5214119-2.7073146-.6209138-5.3983687-2.1559057-7.6978025-1.2698582-1.7870726-4.7375148-4.1423724-3.4895232.0230102,3.5290869,1.151237,2.2077833,6.2947639-1.4393112,4.724378,1.1884857,1.5477661,3.5528083,2.8333271,5.4858216,2.5883587.0164419-.0135551.0031796-.0784579.0351429-.055615.0837573.2200615-.3429641.388357-.4426891.4355768-2.5338035.8467209-5.7151709.3726543-7.5685547-1.6244111Z" fill="#423b30" stroke-width="0"/>
      <path d="m91.4266404,34.041392c-.9532095-2.1977983-.900021-4.7820849.3213135-6.8651667.5315434-1.268631,2.4888081-2.7391106,3.5773456-1.2317867.8218141,1.7634208.4241414,3.9761409.4462312,5.8119673-.4473469-.7592541-.7140704-6.5166941-2.0826913-4.7927951-1.5063756,2.0507559-1.1546118,4.8439754-2.2516283,7.085786-.0044068.0000279-.0088764-.0026497-.0105708-.0080048Z" fill="#423b30" stroke-width="0"/>
      <path d="m97.0551115,41.0052935c.4364693-1.4006679,1.0514144-2.7322215,1.8057039-3.990728.2015418-.4365251.442438-.9826347-.0905069-1.1873561-1.4713373-.3890264-3.0647403-.2668072-4.5525961-.1469587-.1411294.0378762-.2393971-.1774717-.1007988-.2585793.7390051-.4141285,1.6172431-.6319029,2.4382483-.8247984,6.4452647-1.5548505,4.5568286,4.6565466.4999497,6.4084205Z" fill="#423b30" stroke-width="0"/>
      <path d="m123.9240944,70.976391c-3.6188826-.0358681-7.1338147-1.2402378-10.3175109-2.8951897,4.2377324-.3743277,8.608478.0620021,12.8852302.0541647-3.2471208-2.1379996-6.7511754-4.2226991-10.5470555-5.0271369.3552502.1139355.854893.1604023,1.1426465.2889807-.6056852-.0350592-1.2843338.1154138-1.8244816-.1928955-.5165937-1.6345077,6.0065432.1605696,6.8261818.4783898,2.419087.8129447,4.9124483,1.7378167,6.9616144,3.2845229.5997723.4891.9674898,1.224535.8069481,2.0029504-.7824038,2.3133236-3.9502021,1.9528578-5.9335729,2.0062137Z" fill="#423b30" stroke-width="0"/>
      <path d="m119.1837347,85.0023711c1.1482247-.6364213,2.5430355-1.199433,3.7236698-1.767214,2.9374728-1.6421778-5.4455049-3.9993464-6.2674305-2.6742357.1365553.4259264.7911895.5676974,1.0265633.8391903-.8280617-.1144655-2.1268431-.6973914-1.0424892-1.5532049,2.493696-1.2538766,6.169114-.7718609,8.2076257,1.1640111,2.4387503,3.7779461-2.9884579,4.6114187-5.6479391,3.9914532Z" fill="#423b30" stroke-width="0"/>
      <path d="m12.8228651,85.5327221c-3.4926758-.1282995-5.3546493-3.3392734-3.1310935-6.2224699,2.2660062-3.1123506,6.3988956-3.8959816,10.024751-3.7772767,2.3880999.0418089,4.9093942.3557522,7.1864035.8138093-5.4601896-.0365096-13.4068225-.9467387-16.2258702,4.8482428-.3993322,1.1386302.4233047,2.0259606,1.4972691,2.1848289,4.8787418.4904667,8.9881608-3.0627879,13.3721128-4.6623201.0142803-.0035701.0214204.0107102.0142524.0213925-3.3326352,3.5238573-7.5784561,7.1395045-12.7378252,6.7937931Z" fill="#423b30" stroke-width="0"/>
      <path d="m17.3945667,50.3864692c-2.2828246-.687769-5.5241999-1.2146337-6.4224079-3.741576-.5138674-2.3228066,2.2714729-3.7247018,4.2484705-3.1990364,2.5689464.6151124,5.0722928,2.3204359,6.4724447,4.5698608.0464109.0821117.1713635.3641474.0571212.4783898-.0266919.0118816-.0184361-.0161211-.0071401-.0321307q-.0035701.0035701-.0035561.0035143c-.6124209-1.9161809-8.6967954-5.6950195-9.0609568-2.2357861,1.2742093,1.5976356,3.3914159,2.6060696,4.7160246,4.1567643Z" fill="#423b30" stroke-width="0"/>
      <path d="m32.3153799,30.7411663c-2.1682057-.7072928-2.7227106-3.4704735-3.3307665-5.412398-.3237052-1.3390284-.6784812-3.0893682.357091-4.2054344.8998257-.9607959,2.3958816-.6493349,3.270159.18199,1.4494496,1.3173569,2.4347898,3.1952153,3.1631683,4.9979627-1.7848691-.9734027-3.2401759-2.7161004-5.0265512-3.7331528-.193286.3679964-.1455641.83311-.1368063,1.2328466.2628466,1.9704014.4472074,4.2561964,1.8034168,5.8034047.468349-1.6191954.0166789-3.508796.1005757-5.1200983.1545172,1.4632,2.1741187,6.0459465-.2002867,6.2548794Z" fill="#423b30" stroke-width="0"/>
      <path d="m56.1854737,24.7007702c-.3489746-4.2625277,1.109456-8.9945479-.9570306-12.9330078-3.1606024-3.8955075-5.2562631,5.2001739-4.8483265,7.3494973.0459647.3927359.1273233,1.915121-.5676137,1.2566099-.3552502-.8761461-.346576-1.8517801-.4143795-2.7847406-.3251277-15.8950806,15.1185061-8.7666489,6.7873503,7.1116412Z" fill="#423b30" stroke-width="0"/>
      <path d="m41.9820219,86.8427437c-2.6039778-1.7867379-.1596771-5.0224791,1.7635324-6.2725346,3.3165699-2.5252967,8.2628782-.6245954,5.6065207,3.8170495.4563-.0395218,1.0055892-.172256,1.4158965-.1540152-2.517264,1.4940755-5.7754856,3.9314313-8.7859496,2.6095002Zm2.057645-1.542913c1.7857338-.2617031,3.5093818-.7077391,5.2936652-.9100618,1.1948867-2.8707571-.7308051-4.9512729-3.5707145-3.4376177-1.2999807.4854184-5.1136275,4.7059977-1.7229507,4.3476795Z" fill="#423b30" stroke-width="0"/>
      <path d="m105.6132388,35.6334493c-1.5246652-1.9442394,4.7032434-3.772591,6.0300485-4.1378262,2.0289171-.4458408,4.2627578-1.1605805,6.3083259-.5069504,2.8771162,1.8901584-1.0671799,4.0749315-3.0167117,4.3126761-2.5287831.6648145-5.1459813-.3805196-7.632823.3606889-.4665779.0940212-1.2308873.2951167-1.6888398-.0285885Zm3.066867-.3781488c-.179954-.0453232-.4409598-.0293415-.5711559-.1108117,2.4877273-1.0964587,5.162716-1.5862002,7.7330012-2.4158238-2.7236798.0648191-5.2671407.4354094-7.801251,1.229667-.7053683.3258807-1.7175119.4881238-2.0192946,1.2002139.8370706.3054923,1.7808319.0722103,2.6587003.0967546Z" fill="#423b30" stroke-width="0"/>
      <path d="m90.1181807,22.8858622c-.4288271-.4863946-.1921146-1.3699039-.1177566-1.902821.1199321.5004517.0580695,1.0891512.3787066,1.5051484.2528895-.0400518.3637291-.4449203.4639143-.6233682.4681816-1.4267183.645988-3.0308804.1249247-4.4197504-.0739953-.1539036-.1555213-.3052412-.2483153-.4501918-.0588504-.0796015-.1177845-.1592029-.1014961-.1531227-2.088939-2.3736802-2.5795451,1.4937409-2.9917769,2.9452823-.2956467.9886592-.6229777,1.8404005-.9461251,2.7739467-.2634881-.6133832-.3707019-1.3997754-.4889605-2.095605-.2949215-2.1362982-.440151-4.8905537,1.7633371-6.0691799,3.7744945-1.7014187,5.7207352,3.5004566,4.2664952,6.3727197-.3571537.776965-.9842873,2.6558275-2.1029473,2.1169417Z" fill="#423b30" stroke-width="0"/>
      <path d="m65.3777422,20.084359c-.0928219-3.0702628,1.1174328-6.3190292,3.6913997-8.1432528,1.1187995-.8579602,2.7755086-.701603,2.8990108.9281353.084343.9971939-.2083193,2.0228647-.5891178,2.938198-.0372069.1022491-.289929.650088-.4140727.542679.5915444-1.1921534.6013342-5.5306567-1.4530476-2.9848042-1.7069133,2.0135212-2.3554393,4.7954169-4.1341724,6.7190447Z" fill="#423b30" stroke-width="0"/>
      <path d="m50.6011822,25.5656483c-3.0534723-.5949471-6.593116-1.793878-7.7149556-5.0052423-.6078607-1.5229987-.4740945-4.1094608,1.4817197-4.5127396,2.5553076-.0230939,3.7887957,3.3640686,5.369836,4.9598076.5248286.6456254.8683366.532945,1.2989487-.0401075-.4239183,1.5945117-1.9588265.2171608-2.6347418-.4497455-.9723986-.8605549-1.8842734-1.7184602-2.922551-2.4822885-1.1174328-.9079421-1.0279021.6215832-.7852487,1.2999528.3352522,1.0209293,1.0664756,1.8005998,1.9247156,2.4054204,2.1787765,1.3367134,4.3984136,2.6004356,6.3991885,4.203482-.7501337-.0309313-1.6328342-.2301581-2.4169115-.3785393Z" fill="#423b30" stroke-width="0"/>
      <path d="m89.551069,86.8833533c-.6405771-.2008724-1.3641305-.4289945-1.8955972-.7817623,2.1910486-.7405112,5.3728134-.8244079,6.3759272-3.2685413-.0000558-.0000558.0179898-.0053272.0179898-.0053272.0594919-.4568857-.0078653-.6790948-.1803933-1.025113-.5070619-.8479202-1.5704765-.9549387-2.3615545-.5849341-.867974.3341086-2.3525386,1.9310748-1.0138449,2.5275838-.3249603.0529096-.7252826-.1581431-.8675277-.5355388-.3534372-.8675277.246335-1.8671482.7675657-2.5132198,1.3062562-1.6942785,4.0038648-1.5580022,5.2373529.1603186,2.4318333,3.5991077-2.5851791,7.6005459-6.079918,6.0265342Z" fill="#423b30" stroke-width="0"/>
      <path d="m4.1274503,55.1879105c-1.1726574-.6801547-.9587877-2.4911858.2820358-2.9704681,2.2903552-.8898407,5.988142.5484246,7.0329741,2.5812743-.5492753-.5171864-1.4061346-.6519567-2.1104152-.8501515-1.2511851-.2033826-2.6082172-.4376407-3.8122941-.0770913.6509247.5482293,1.4046145,1.0624314,1.942036,1.6877241-1.0875753.2068132-2.3664703.2181091-3.3343366-.3712876Z" fill="#423b30" stroke-width="0"/>
      <path d="m17.6610252,43.1167128c-.2364476-.9021965.6262271-1.7358085,1.520879-1.6459152,1.2892008.1582268,2.0901941,1.437819,2.9952494,2.2492575-.9426387-.0710668-1.9049407-.6081117-2.8676751-.7684303.1106444.3652631.2240639.7337058.1437094,1.1182696-.7177381.2488731-1.588292-.2001472-1.7921627-.9531816Z" fill="#423b30" stroke-width="0"/>
      <path d="m63.42653,33.3166951c-4.8764687-3.8924673-3.4689116-10.8821682-2.7062269-16.2867288.727486-3.6741908,1.469085-7.5488636,3.4346055-10.7815647.1210757-.1933139.3211113-.1415478.2748956.0535511-.0336647.0339994-.023847-.0845382-.0398565-.1120947-.0194681-.0024265-.0389361-.0048531-.0585715-.0073075-1.7797093,3.7120392-1.87797,8.0955589-2.4263109,12.1411489-.186369,4.9788015-1.0908246,10.5333051,1.5214647,14.9929957Z" fill="#423b30" stroke-width="0"/>
      <path d="m66.8236218,11.4216885c.9547156-1.5404307,2.2850698-3.0507389,2.5240137-4.8838599-.0343341-.1409342-.0370674-.3408862-.144058-.4286319-1.1575962-.2301581-1.9233489.8919046-2.5085341,1.7102602-.7242507.7625453-2.0255144.7922773-2.8017263.0946348-.4575829.9260992-1.415785,1.6716867-2.3357481.8300699-1.5675688-1.616741-1.3517468-4.3404557-.706735-6.3332258,1.055096-3.2958468,4.829723-3.1158649,6.0538676-.0503715,2.2405555-1.0376919,5.3474673.0365932,5.8130271,2.6206288.6449281,3.4939858-3.0073123,5.7009603-5.8941068,6.4404954Zm-4.0463709-3.067139c.3859584-.0682498.7061214-.3249882,1.0470913-.5038544-1.2797875-1.101507-.0169578-2.6506676-.4335686-3.9993743-.599326,1.030998-1.913838,3.7234467-.6135226,4.5032287Z" fill="#423b30" stroke-width="0"/>
      <path d="m127.0452307,66.0841359c.8495937-.8271692,1.9558701-1.5588947,2.7466691-2.499832-1.6363764-.6135784-4.0547662-.7152139-4.7208358-2.6231669-.487566-1.6982391,1.2218296-2.6415751,2.3238665-3.5539519-2.0004681.3387386-4.3613741.5847947-5.6935413,2.1165791.0806892.0882756.1995894.0807171.3064685.1092498.0142803,0,.0142803.0178504,0,.0214204-.146373.0285606-.3534372.0928219-.478585-.0393545-.0948301-2.0198804,4.8967177-4.5892173,6.7225032-4.8659258,3.2138466-.440653,3.61852,2.9013537,1.6997173,4.8230849,2.0924532.3973937,4.3364394,2.5027606,3.0343389,4.6911596-1.227352,1.9820878-3.8642414,1.9973722-5.9406015,1.8207372Z" fill="#423b30" stroke-width="0"/>
      <path d="m2.9493959,77.7164657c-2.994078-1.1656288-2.9261211-5.2805284-.7585708-7.226023-2.6994214-1.8631597-3.3239332-6.6998835.5441991-7.5183785,2.490098-.2513276,4.3682214,1.8609842,6.2940247,2.9632443-1.4202336-.2196432-2.7557895-1.0452783-4.1697755-1.2959644-1.0438559-.2661099-2.3494427-.1171988-2.5026351,1.1388254.0004184,1.0643001.8039776,1.8029984,1.6367669,2.2563698,1.3850768,1.0150164,3.0357893-.1028627,4.4929787.660324,1.3215267.6027008,1.4740636,2.6157757.2071061,3.3665788-.7609694.5043565-1.6949479.4310584-2.5583617.2414262-.8882509.4041992-1.8312801,1.0633239-2.1029822,2.0480505.0000139.0000279-.0368722-.0760314-.0368722-.0760314-.0533419.5271436.3344433.9664578.8125821,1.1100138,2.3739591.6044301,4.857168.7040296,7.2736751,1.1073362-2.8413597.7545405-6.1535786,2.1744813-9.1321351,1.2242282Z" fill="#423b30" stroke-width="0"/>
      <path d="m63.5060199,48.622379c-.8566781-.1997288-1.4914259-1.4038475-1.2102269-2.1598942.1560512.6140804.7229956,1.304778,1.4102067,1.2530956.5861614-.0914831.9935123-.5054442,1.2491909-.9838061.7211547-1.2180643-2.0547444-1.3147909-2.6629119-1.9684769,1.9286204-1.6411179,5.3963048-.5347579,4.2697794,2.3025297-.5646851,1.1306533-1.82414,1.8509434-3.0560383,1.5565518Z" fill="#423b30" stroke-width="0"/>
      <path d="m87.6465467,50.0298524c-1.6516329-.8845693-.6319587-3.3594108.7068466-4.0270981.9598197-.5622586,2.2094847-.5679763,3.1988133-.2141486-1.0363253.3071936-2.2070303.694184-2.7025731,1.7171493-.1631356.3327977-.314529.7250874-.2329473,1.0578851.0690307.2907936.3778141.3415835.415021.6521519.0624763.6945465-.8129168,1.0857484-1.3851604.8140603Z" fill="#423b30" stroke-width="0"/>
    </g>
  </g>
</svg>