<?xml version="1.0" encoding="UTF-8"?>
<svg id="b" data-name="Layer 2" xmlns="http://www.w3.org/2000/svg" width="55.538" height="49.534" viewBox="0 0 5.554 4.953">
  <g id="c" data-name="Layer 1">
    <path d="m4.937,2.59c-.094-.024-.188-.049-.282-.075-.073-.021-.148-.036-.224-.052-.192-.041-.391-.083-.56-.199-.006-.004-.02-.008-.032-.012-.35-.109-.583-.355-.767-.582-.074-.092-.167-.234-.192-.394-.014-.093-.013-.19-.012-.286,0-.043,0-.086,0-.128,0-.04-.001-.081-.001-.121,0-.175,0-.339-.072-.497-.039-.086-.069-.146-.131-.194-.067-.052-.109-.067-.187-.026-.081.044-.103.104-.111.186-.011.103-.023.205-.036.308l-.012.098h.008l-.057.477c-.014.112-.003.2.032.287.046.11.081.236.108.398.028.165-.038.317-.102.466l-.018.04c-.093.217-.265.34-.404.423-.274.163-.565.191-.815.196-.308.008-.608.022-.861.036-.113.006-.176.06-.207.175-.02.073.021.149.094.178.08.032.165.062.25.064.372.009.751.012,1.118.016l.336.003c.02.002.041,0,.061-.002.02,0,.04,0,.061,0,.078,0,.159.012.217.085.017.021.035.042.053.062.075.089.153.18.188.293.012.04.026.08.04.12.06.175.121.354.1.565-.01.097.012.198.034.296l.009.039c.015.069.06.1.096.112.067.023.152.006.22-.048.084-.067.095-.142.108-.235l.006-.043c.022-.144.051-.287.079-.43.026-.136.053-.271.075-.406.05-.308.127-.403.415-.513.07-.026.142-.041.212-.056.364-.075.716-.116,1.054-.125.055,0,.109-.008.164-.014.109-.011.221-.024.336,0,.073.011.143-.017.189-.084.036-.054.045-.111.027-.16-.018-.05-.062-.087-.124-.105-.16-.048-.325-.092-.484-.134Zm-1.237.156c-.083.078-.175.108-.264.139-.081.026-.156.051-.216.11-.089.089-.191.163-.3.24-.048.035-.097.07-.147.108l-.054.041-.023-.064c-.059-.164-.202-.263-.367-.378l-.079-.055.101-.111c.166-.181.321-.352.351-.611l.011-.098.073.067c.302.28.578.443.893.527l.086.022-.064.062Z" fill="#728e0c" stroke-width="0"/>
  </g>
</svg>