<?xml version="1.0" encoding="UTF-8"?>
<svg id="Layer_2" data-name="Layer 2" xmlns="http://www.w3.org/2000/svg" viewBox="0 0 191.2133531 143.4700474">
  <g id="Layer_1-2" data-name="Layer 1">
    <g>
      <path d="m89.3245297,36.3583385c-.2198093.0613093-.3112066.0753133-.392964.1112541-3.4811629,1.5301919-6.6417865.579532-9.6771276-1.2665035-.3123805-.1899879-.5892988-.4664378-.8234647-.7514137-.6273671-.763478-.399564-1.7957772.5390602-2.0926199.598015-.1891236,1.2798566-.1464232,1.9243171-.1486163,1.4144898-.0048045,2.8311368.0821082,4.243078.0293879,1.2947472-.0483532,2.3777306-.7292556,3.42107-1.4331104.1301325-.0877886.2255909-.3331519.2180336-.5001112-.0296596-.6551545.0962899-.8556789.7314795-.7840349.5232762.059011.6506742-.1614643.6837807-.6077334.0607821-.8193619.1712655-1.6352482.2232882-2.4549787.0993213-1.5652436-.2991764-2.9902534-1.2132455-4.2804974-.3818343-.5389718-.82957-.9484883-1.4508178-1.1769575-.2790758-.102627-.5539935-.2280579-.8106419-.3777164-.514326-.2999073-.8554107-.731012-.8468331-1.3556268.0091999-.6707623.3646934-1.1751925.9640559-1.3852366.6055375-.2122131,1.2672875-.3810909,1.9017541-.3725299,2.2117068.0298333,4.014612.9395738,5.1186305,2.8893392,1.814606,3.2047101,1.8788896,6.5802553.7248814,10.0183444-.1054184.3140561-.2895865.607273-.4704049.8888348-.1798001.2799547-.4015261.5329717-.6362011.8386007,1.0574544,1.0134997.9339519,2.2992292.7609208,3.5661928-.8744757,6.403269-3.2484353,12.1705745-7.378793,17.1754875-.4621495.5600074-.9705071,1.0929307-1.5167534,1.5705814-2.4554576,2.1470893-5.1231143,4.011359-7.9723319,5.584146-1.1961199.6602662-2.5486447,1.0526441-3.8541843,1.4957684-2.2098062.7500349-4.4970436,1.3071018-6.5416026,2.4696772-1.1643435.662072-2.2768365,1.4284165-3.3506074,2.2308572-.494379.3694691-.9556951.879826-1.2318227,1.42726-.9738306,1.9306494-1.861011,3.9049996-2.8555119,6.0212197.5329189.0143584,1.0038146.1289616,1.4131109.0174445.9310777-.2536845,1.9162455-.4784791,2.7272963-.9673891,1.642006-.9898171,3.208953-2.1117522,4.7584508-3.2453623,1.6160972-1.1823251,3.2205211-2.3737214,5.0487534-3.2160766,2.2735466-1.0475461,4.6391795-1.6082235,7.1319991-1.046615.9154542.2062458,1.8343362.5541031,2.6495703,1.0170989,1.9336959,1.0981996,2.579201,2.9380724,1.7094575,4.9836471-.3776083.8880898-.9882716,1.7117694-1.6319728,2.4423262-.6487427.7362874-1.4675777,1.3232867-2.2160281,1.970909-.5084066.4399222-1.0523375.8426691-1.5309533,1.3124038-1.3686461,1.3432665-1.6442863,2.9012111-.7527458,4.59491.4591156.8722013,1.0641753,1.6670084,1.5944208,2.5024199,1.2075509,1.9024924,1.6772488,3.9908297,1.4155458,6.2133937-.4983147,4.2321234-4.8008865,6.9380637-8.8628627,5.6383609-2.4017953-.7685276-4.2245747-2.3194888-5.8708313-4.1545783-1.722419-1.9199807-3.4476333-3.8641999-5.5852608-5.3273613-1.5483698-1.0598122-3.2488549-1.8976257-4.8846222-2.8289792-.1094181-.0622908-.2451894-.0783009-.4591739-.1433347.7370477.3910344,1.4127815.6991559,2.0372406,1.089334,3.1164504,1.9472533,4.707273,4.8623393,5.2522033,8.4165075.3968696,2.5884579.2023843,5.1782275.0198738,7.7726536-.1649918,2.345437-.3429935,4.6995707-.3018941,7.0461252.0227453,1.2988936.3335063,2.6435627.7732229,3.8752168,1.5751557,4.4119336,6.0802988,5.0102848,9.2171101,2.9487007,1.9974779-1.3127927,3.1131395-3.2924244,3.7290989-5.5536064.2802136-1.0286612-.2290684-1.8964156-.8050014-2.699706-.0909887-.1269-.3170967-.1800106-.4915779-.2202199-1.1298645-.2605293-1.5049968-1.1724499-.8827544-2.1687242.5998907-.9604923,1.8147101-1.2983704,2.9744463-.8273168,1.9269582.7826821,3.262473,3.103858,2.9369493,5.3690373-.1626875,1.1320469-.4480992,2.2931851-.9293757,3.3237921-1.3578623,2.9076803-3.3232159,5.3230616-6.2509671,6.8055391-5.1567976,2.6111906-10.6066959.7511074-13.0940478-4.4757324-1.6310808-3.4274893-1.9915576-7.0538004-1.5485449-10.784356.3545789-2.9857795.7687927-5.9591156.7935831-8.9814307.0248052-3.0243414-1.0530034-5.4534801-3.3877193-7.3450412-.1956852-.1585419-.4118901-.2917501-.6865974-.4844776-.0594659.2615612-.1134149.4332094-.13625.6088957-.5946575,4.5748612-1.2172551,9.1463658-1.7689945,13.7264176-.5148378,4.2737354-.6614066,8.5683808-.3998984,12.8664451.0871001,1.4313929.3957666,2.848121.5238443,4.278653.0795728.8886821.0433972,1.7925875-.0080104,2.6858041-.02159.3751187-.1464781.7847219-.3466327,1.1013924-.5461746.8640366-1.7828095.8658345-2.3556164-.0050958-.2484521-.3777358-.3874395-.8466826-.4963597-1.2936544-.4546807-1.8657294-.503942-3.7704997-.5038304-5.6798283.0001579-2.7812573-.2028794-5.5772566.0153117-8.3405449.3879829-4.9135193,1.014432-9.8086274,1.5670276-14.7085139.2113616-1.8741505.4690765-3.7440783.7541083-5.6085216.1465046-.9582792.3848426-1.9038054.6120986-2.8477869.0824708-.3425576.0120675-.5204876-.3301735-.6243792-.5198517-.1577953-1.0051736-.5284132-1.4745637-.2946073-.2306744,6.8734198-.9887442,13.5798008-3.2964365,20.0061922-1.1719474,3.2635704-2.6840471,6.4036884-3.9917183,9.620227-1.1764854,2.8938201-2.4899999,5.7176594-4.0504857,8.423629-.334737.5804578-.7054884,1.1463882-1.11644,1.6748655-.4163135.5353606-.9480684.6264274-1.3711395.3236705-.4033517-.288655-.4601721-.7494758-.1610635-1.3640978.5146384-1.0575383,1.033573-2.1129892,1.5480119-3.170618.0781824-.160743.141883-.3285274.2543556-.5913973-.5158915-.0202107-.9381897-.0578757-1.3596194-.0498509-2.762973.0526014-5.1668004,1.0100266-7.0659694,3.0247577-.5682793.602875-1.0424659,1.3971718-1.2803227,2.1878273-.5305857,1.7636919.0454779,3.4331474,1.6124794,4.4021917,1.4191764.8776188,2.9501305,1.6181028,4.5093925,2.2170716,4.0000007,1.5365058,8.1433211,2.5197309,12.4469738,2.6029218,4.0255083.0778052,7.8589243-.8513793,11.5059328-2.5307024.7232018-.3330302,1.4194064-.7687892,2.0397935-1.2670756.4976898-.399724.9431964-.9177929,1.2680402-1.4682189.6729338-1.140229.4858392-2.1795264-.479754-3.0806125-.4629952-.4320148-.9447737-.8621119-1.478405-1.1968302-1.6285655-1.0214853-3.2784395-2.0100073-4.9398884-2.9772134-.3214785-.1871572-.7279127-.2461503-1.1040806-.3166786-.3845865-.0720878-.4175774-.2368851-.2315987-.537337.34823-.5626256.9028087-.7577881,1.5088567-.8503082,1.4197937-.2167415,2.8238277-.0671666,4.123771.498896,1.3456586.5859315,2.7004767,1.2182143,3.9078437,2.0407829,2.811906,1.9156998,3.3765307,5.0061769,1.5767432,7.9061431-.8366834,1.3481399-1.999651,2.358647-3.3381142,3.1795926-2.5097986,1.5394187-5.3060483,2.2885902-8.1430645,2.9067304-3.3948112.7396731-6.81866.7902902-10.2552622.3386626-3.9565328-.5199321-7.8653491-1.2657994-11.5714935-2.7935254-1.1474224-.4729661-2.2682799-1.0835701-3.2781286-1.8038601-3.4912986-2.4901279-4.3542005-7.0224282-1.9333241-10.5666055,2.8939084-4.2367072,7.0147652-5.9148363,12.0777491-5.3692105.2394076.0258022.4760287.0965421.7083645.1652522.8368475.2474776.7095867.3831623,1.1246522-.4610628,2.0116985-4.091751,3.9461625-8.2244751,5.2089246-12.6161163.5758745-2.0027676.9379384-4.079446,1.2406163-6.1454983.4926515-3.3628331.8573564-6.7444177,1.273827-10.1183709.0154899-.1254336.0076104-.2537419.0106198-.3807107-.0496386-.0611334-.0992681-.1222791-.1489067-.1834125-.1448028.159609-.2703427.3436897-.4372696.4752126-3.0219131,2.3809821-5.0541855,5.4553656-6.3893735,9.03256-1.0321103,2.7652216-1.9870169,5.5665194-3.1714454,8.2661387-2.8426253,6.4790758-7.1092181,11.8089556-13.4807628,15.0791612-5.1758216,2.6565051-10.7328461,3.5675531-16.4901214,2.1876012-3.0987079-.7427297-5.6734526-2.3804322-7.4631384-5.0901928-1.248861-1.8908787-1.7260455-3.9479007-.9844369-6.1407916.8669774-2.5635981,2.7353041-3.9952245,5.3883579-4.3806222,1.770341-.2571493,3.5430565-.1768887,5.2947549.1999532.8236592.1771856,1.5599864.529949,2.0699655,1.2358947.7255073,1.0042735.3444969,1.9978355-.873834,2.194817-.5848982.0945609-1.1922887.0399364-1.7866239.0882224-1.4312801.1163155-2.8774532.1584688-4.2872014.4046804-2.0705196.3616395-2.5515365,1.6538857-1.3045783,3.341812,1.3832968,1.8724425,3.358241,2.8551236,5.5612173,3.31451,5.8962329,1.2295873,11.2169781-.0960685,15.9913685-3.7544829,2.8451465-2.1801061,5.0329034-4.9286285,7.028169-7.8619521,1.6568016-2.4357286,2.8471297-5.1211261,4.2308181-7.7048213,1.221991-2.281765,2.643922-4.4642454,4.0916398-6.6137312.6266629-.9304239,1.5347989-1.672826,2.3261769-2.489867.2440543-.2519715.52483-.4683643.7306053-.8172887-.2766201.1165694-.5630013.2143908-.8282831.3526807-1.9009067.9910224-3.4691633,2.3891347-4.8633905,3.9980485-1.3820884,1.5949228-2.6947462,3.2583263-4.1725721,4.7590199-.9712285.9862491-2.1018086,1.8752859-3.3003839,2.5660404-2.8581491,1.6472047-6.2325894,1.0696558-8.3753608-1.335811-1.7106882-1.9204112-2.109644-4.1116821-1.1284845-6.5122553.5730205-1.4019989,1.4661621-2.5980827,2.478816-3.7101927.5031655-.5526073,1.0082996-1.1034242,1.5134805-1.6541912.8727027-.951442.9908071-2.0324839.3135931-3.0863753-.4331073-.6739993-1.0336825-1.2735445-1.6600808-1.782221-.8820378-.7162783-1.8731684-1.2962711-2.7898566-1.972226-1.852078-1.3656943-3.0967642-3.1201736-3.080089-5.5024412.0227815-3.2558296,1.6747985-5.592665,4.4150848-7.1825508,2.1009844-1.2189661,4.4396598-1.5846072,6.8229893-1.4089832,5.2755618.3887289,9.8839013,2.3356469,13.6477799,6.1266258.4344321.4375606.8539031.8903892,1.2973154,1.3185396.7290623.7039773,1.5638453,1.2121238,2.5998618,1.3141523.5560509.0547664.8863107-.3219957.7510495-.852217-.286205-1.121938-.6489894-2.2309286-.8421638-3.3686964-.4682362-2.7576841-2.1801758-4.5529305-4.4302593-5.9619104-.9972456-.6244694-2.0431175-1.1763603-3.0092687-1.8445489-4.4258143-3.0608609-7.8860745-6.9690533-10.4651863-11.7109592-3.0224069-5.5569649-4.3738313-11.4476282-3.934157-17.7471733.0553456-.792933.3095131-1.5704733.4344467-2.3610085.0361726-.2288694.0274298-.5466423-.1034145-.7078293-2.0156611-2.4830922-.9987408-6.8264514,1.5722035-8.5682799.2107454-.1427801.4423409-.3955188.4823684-.6284231.5836033-3.3956749,2.8197271-5.2535802,5.8965823-6.2452781,3.4958971-1.1267589,7.0145906-.9254334,10.4769626.1857213,1.4721299.4724428,2.8940307,1.1042732,4.32858,1.6886532.3051447.1243039.4969367.1256205.725538-.1374433.9236246-1.0628708,2.0683404-1.8390699,3.3534538-2.384952,5.8917815-2.5026917,11.3811558-1.8832207,16.3860648,2.2010743.5581179.4554503,1.0641094,1.0042341,1.4844232,1.5887298.2804181.3899517.4656748.9090921.5185523,1.3896662.1220613,1.109395-.8321259,1.930573-1.9328042,1.7304884-.2541256-.0461976-.5026864-.1443427-.742262-.2458245-1.7193735-.7282649-3.4033771-1.5548683-5.1598088-2.1777016-3.6991067-1.3117178-7.4392039-1.5525446-11.1713209-.0623871-.496669.1983057-.8963454.4071631-.9343839,1.0765235-.0306005.538374-.4804973.9103342-1.0342695.9439364-.5126548.0311122-1.0531836.006936-1.5461304-.1249156-1.0444593-.2793914-2.048778-.7194981-3.1000726-.9606787-2.9826262-.6842453-5.9327313-1.5663312-9.0244896-1.6595906-2.3954954-.0722581-4.4484112.6642227-5.9970803,2.5703219-.1148581.1413681-.2136836.295754-.3102751.430563.2824692.2515278.62431.4279007.7528051.7036728.1510278.3241348.2108753.7541785.1381784,1.1023547-.0826659.3958982-.4826934.4435761-.8708933.4259179-.1569671-.0071298-.3975618.0863383-.4683506.2096493-.404581.7047404-.8203508,1.4111388-1.1308439,2.1591055-.2257432.5438036.0063372,1.0691007.5367143,1.3290781.8678683.425374,1.7447408.8623805,2.6634252,1.1475666,1.693636.5257644,3.4312261.9091859,5.128223,1.4251939.7376997.2243125,1.489132.5332281,2.111323.9764042.8745769.6229504.807453,1.5190392-.1548687,2.0051254-.6973915.3522786-1.5091962.6114933-2.283803.652753-2.4390692.1299116-4.8950387.2978603-7.2867001-.445149-.0495132-.0153864-.108771.0005913-.2617276.0043505-.020636.377009-.0680255.7572479-.0582936,1.1360312.2556988,9.9538867,4.0786748,18.2971381,11.3810282,25.0406126.9975149.921163,2.1516041,1.6729207,3.2343934,2.5015493.8748665.6695044,1.7801647,1.3026355,2.622077,2.0111696,2.6189759,2.2040453,4.2407486,4.9473692,4.3968206,8.4368923.0260819.58315.1537793.8462341.8374041.7883756.8192059-.0693333,1.4953945.4106303,2.116074.9070065.9918218.7932241,1.972442,1.6004439,2.9585657,2.400805.1258602.1021372.2563217.1985987.4038862.3125526.3674419-.9779943.7238833-1.9124286,1.0698968-2.8507133.680956-1.8465564,1.8009309-3.3527221,3.2851319-4.6604557,2.821502-2.4860607,5.9167757-4.5780649,9.407865-5.900917,5.6823006-2.1531594,9.8129537-6.0321052,13.2627093-10.8741521,2.3657034-3.3204737,3.8417985-6.9879031,4.8549861-10.8863461.0877279-.3375504.1826263-.6732391.3021501-1.11252Zm-42.0494098,37.1363258c-1.8274825-.1660972-2.6284616-.4439436-4.2575453-1.581274-.780236-.5447103-1.5303227-1.1335348-2.2827913-1.7168989-2.3643078-1.8329527-4.9600716-3.1774511-7.9029108-3.8155264-2.0384057-.4419674-4.0706245-.5302859-6.0996359.030057-1.760979.4863321-3.2125475,1.404729-4.1073149,3.0525947-.8689833,1.6003737-.5597633,3.3831658.8168383,4.5684687.5639081.4855327,1.1874408.9048691,1.8021545,1.3277035,1.2198564.8390714,2.3891263,1.7295264,3.3086778,2.9105775,1.9456938,2.4990055,2.0991677,5.4814849.3803037,8.1318648-.3950514.6091388-.8909477,1.1520288-1.3048165,1.7500447-.5503417.7952152-1.1622449,1.5686862-1.5740968,2.4341104-.6541768,1.3745957-.0276654,2.8214992,1.4151694,3.3100629.5910945.2001495,1.2919915.2328022,1.9159077.1464167,1.2796624-.1771953,2.3457531-.8876081,3.2628341-1.7487678,1.728059-1.6226817,3.3802211-3.3258447,5.0885362-4.9699976,2.7754378-2.6712429,5.8026553-4.9342344,9.6678265-5.7931371.0311004-.0069005.0557243-.0428816.082698-.066111-.4815492-1.6958085-.5709691-2.0481751-.3505253-3.0008966.1879272-.8121667.5067794-1.5937205.7586829-2.3916542.0527631-.1671037.1321063-.3668022.0862424-.5169868-.204006-.6679579-.4490652-1.3234094-.7062347-2.0606504Zm10.2957433,7.3646082c.1596606.0517429.2624472.0918601.3686128.1184513,1.7598918.4409081,3.3987709,1.1388669,4.8165636,2.2939561,2.3772721,1.9367784,4.6889786,3.9405873,6.655413,6.3143295,1.071029,1.2928772,2.3216582,2.3832213,3.8944354,3.0414643,2.6417732,1.1056324,5.1428028-.0467897,5.819228-2.7213389.4325118-1.7101431.2523819-3.3725836-.6318328-4.9331522-.4786359-.8447608-.9733401-1.6834733-1.3956624-2.5564076-.7285257-1.505909-.8691176-3.0816675-.3635073-4.6883356.3640379-1.1567527,1.1477407-2.0335239,1.972999-2.8852079,1.1686205-1.2060481,2.3740565-2.3843453,3.4506615-3.6692749.9733695-1.1617216.6867167-1.8728729-.7692261-2.3233322-.1423435-.0440306-.2896292-.0738227-.4361468-.1023684-1.1211458-.2184796-2.2308195-.1191594-3.3365493.1183538-1.9574337.4204671-3.6310882,1.4379049-5.3031326,2.4757605-1.9674803,1.2212385-3.9470935,2.4245359-5.9494204,3.5874569-1.1844127.6878877-2.4633527,1.1699506-3.8312939,1.3725495-1.2940792.1916763-2.5562524.1296602-3.8114701-.6032756.3031056,1.923724-.3822327,3.5176109-1.1496715,5.1603714Zm-3.896955-6.6205477c-.0126784.1055549-.0305208.1584555-.0232527.2076296.1727161,1.1684971-.3715181,1.7375824-1.5269049,1.6389002-.2724783-.023277-.6704392-.0185717-.8157832.1457088-.9185355,1.0382047-1.4621566,2.241781-1.3898736,3.6698672.0167285.3303802.1509917.4837387.4875837.4360203.8798287-.124738,1.7009498.0607016,2.5000029.4325507.4316769.200893.8991453.2977545,1.3413809.0082026,1.3474312-.8821974,1.9040907-2.1584707,1.7974027-3.7344128-.1010686-1.4926781-1.1475122-2.1986655-2.3705558-2.8044666Z" stroke-width="0"/>
      <path d="m116.0597831,94.0862739c-.1697334-.0297607-.3484524-.1099555-.5078382-.081595-1.9335356.3441644-3.7654266.9534593-5.3742525,2.1228853-1.9040627,1.3840475-3.7723311,2.8210481-5.7212249,4.1387742-2.3348844,1.5787034-4.8384052,2.8371881-7.6365114,3.3889879-4.2052767.829257-8.3432416-1.0156-10.3570437-4.6842015-1.7795038-3.2417651-1.5708291-6.4241183.7232589-9.3287399,1.0092641-1.2778731,2.2461089-2.3927096,3.4696478-3.4802805,1.4348629-1.2753979,1.4999684-1.3364366.632523-3.0375417-.1187792-.23295-.233735-.4683285-.3388868-.7076715-1.0975886-2.4980158-.4667971-4.6834204,1.8149076-6.1891348,1.9986458-1.3189384,4.2196883-1.995355,6.6007241-2.0804692,5.06268-.1809767,9.4976712,1.5009879,13.4119435,4.6479762.9606449.7723469,1.8854358,1.589246,2.8291561,2.382749.1496371.1258302.3123008.2361714.6106063.4599115-.0728844-1.1292802-.0920888-2.0963262-.2062165-3.052043-.217788-1.8238804-.8723268-3.5045665-1.7571628-5.1091834-.721573-1.3085955-1.7174782-2.2715118-3.1079646-2.8605787-2.9720002-1.2590623-5.480122-3.1809167-7.6929747-5.508736-1.10202-1.1592809-2.0125906-2.4533096-2.7557175-3.8680983-3.7833042-7.2027511-4.8776684-14.7968223-3.2942208-22.7729159.1317414-.6636238.1864643-1.2686034.0183471-1.9581303-.3487561-1.4303232.2074915-2.658637,1.2506619-3.6346343.60833-.5691652,1.3156272-1.0325639,1.9863072-1.5496506-.0820599-.6016293-.1965967-1.2437071-.2529161-1.8908559-.1780155-2.0454833.4175499-3.876114,1.9652771-5.2047325,2.5805989-2.2152876,5.6134868-3.3082708,9.0293156-2.7219989,2.1943003.3766149,4.0527482,1.5969476,5.7381965,3.0202897.3765035.3179442.6493091.8292183.8196578,1.3052307.3016128.8427856-.1342199,1.6509081-1.0168703,1.7776318-.6797595.0975911-1.4146119.0243626-2.0927347-.1221287-1.6421116-.3547437-3.2516135-.8712174-4.9013027-1.1761661-1.0297423-.1903566-2.1263651-.2562931-3.1616729-.1271403-1.8519569.2310204-2.8721805,1.3240093-3.2331873,3.1568996-.1216415.6175922-.259411,1.2128048-.0339073,1.866891.176105.5107857-.1470402.9294343-.6347528,1.1757649-.1305074.065913-.2958692.1102067-.3780509.2164081-.416165.5377629-.8439185,1.0717568-1.2011325,1.6482527-.2766806.446528-.4554171.953738-.6776982,1.4339696.492531.1773369.9736763.4583641,1.4795869.5139412,2.1113755.2319383,4.2205114.072379,6.3094159-.2592454,1.1762662-.1867507,2.3423746-.4645648,3.4938837-.7730018,1.383692-.370613,2.0388571-.1232248,2.8553085,1.0501085,1.3596729,1.9539974,3.2310611,3.1361129,5.6418521,2.9386759,2.430643-.1990699,4.8382585-.6793206,7.2559233-1.0366633.5335828-.0788652,1.0675049-.2275055,1.6003794-.2236326.9887659.007185,1.8042389.4332731,2.1967068,1.3748721,1.9196434,4.6057238,7.4866108,5.4024191,10.6758132,3.9590721,1.1338784-.5131673,2.298711-.7557283,3.5296669-.7430487.2045843.0021039.4134592-.0001327.6127236.0387315.9452778.1843569,1.3844379,1.1032032.8126406,1.8656275-.673637.8982377-1.4545622,1.7840141-2.5968533,2.0405119-3.6964902.8300736-7.3732467.9232455-10.9329997-.6457499-1.5552947-.6855128-2.7923636-1.7924474-3.8435552-3.1063312-.2700667-.3375585-.5309355-.441155-.955217-.357188-1.484157.2937171-2.9669793.6249166-4.4668999.7989134-1.3290821.1541825-2.6874573.2293503-4.0201998.1431907-3.0093196-.194566-5.2348225-1.7979846-6.976825-4.1691305-.6589468-.8969354-.6510555-.8170389-1.6985188-.5828163-3.4318754.7673517-6.8787635,1.4727558-10.4269147.9028726-.4286636-.0688452-.55188.0707586-.6133109.4666073-.5224995,3.36691-.3779992,6.6944187.4247456,10.0118541.6808589,2.8136829,1.5940578,5.539725,2.999365,8.0663282.7485183,1.3457604,1.6199199,2.651813,2.6115986,3.8275362,1.857208,2.2019006,3.8772407,4.2233953,6.5170377,5.5625243,2.7542766,1.3972004,4.4263619,3.7661618,5.1887621,6.7171153.5599135,2.1671811.9944317,4.3729418,1.3563896,6.5825578.1900684,1.1602768.104127,2.3657626.1419231,3.5231026.422395-.0925451.9449804-.3090406,1.4596521-.2916215.5338352.0180486,1.079421.2154784,1.5835107.4228287.4178485.1718573.7058948.1967732,1.1006544-.1046257.3647697-.2784829.8673596-.3764213,1.3906216-.5865519-.2168883-2.1307286.6517926-4.1313691,1.8480405-5.9806859,1.2629135-1.9523815,2.9505434-3.5399427,4.9533265-4.7192158,1.6056991-.9454554,3.2666217-1.8234691,4.9773875-2.5583405,2.985959-1.2826249,6.0527494-2.3766951,9.0420092-3.6520711,3.4254009-1.4614563,6.546362-3.4405672,9.3127361-5.9463894.5781422-.523682,1.1098738-1.1162483,1.5782096-1.7406631,3.2852868-4.38011,5.9045355-9.1215379,7.6738011-14.3162823.042073-.123531.0794973-.2488428.1132835-.3748828.0089886-.0335115-.0036024-.0728148-.0108655-.1715901-.1837057-.0588077-.3908572-.1199754-.5945076-.1911249-1.3608771-.4754789-1.634789-1.8245675-.5951076-2.8131202.6067104-.5768488,1.2252843-1.1569259,1.7358757-1.8151683.6420558-.8277288.5943407-1.452504-.0180558-2.3002144-.2513248-.3479183-.5320715-.6744956-.796111-1.0133804-.2140805-.2747841-.4288124-.4770615-.8420286-.4105532-.3585915.0577154-.5156814-.2251687-.5634855-.5586562-.3114128-2.172951,1.5165162-3.74326,3.6311912-3.1096226.2842348.0851714.5793873.1866951.8215738.3511914,2.0551382,1.3959276,3.3006069,3.2758589,3.3375516,5.8214966.0169375,1.1665366-.4277068,2.2096531-1.1732261,3.0826764-.5374761.6293702-.7495131,1.30126-.832518,2.1163989-.468106,4.5974882-1.938252,8.8806257-4.1065518,12.9520056-1.6636779,3.1238306-3.7286739,5.8975184-6.5246378,8.1004638-2.2022472,1.7351536-4.6351806,3.0771976-7.166033,4.2539614-3.2571742,1.5144719-6.5990863,2.7957788-10.0383324,3.8517242-2.0114476.6175685-3.9713488,1.4305422-5.9024454,2.2745938-2.0224004.8839534-3.352596,2.5158992-4.2892723,4.4758943-.7148063,1.4956998-1.4003803,3.0053769-2.1113382,4.5354772.2046281-.0838981.5006685-.1559301.7423281-.3120981,2.0377895-1.3168692,4.0794988-2.6285141,6.0914037-3.9842382,1.2699267-.8557314,2.4560403-1.8379176,3.7404277-2.6696858,3.3099555-2.1435265,6.9287584-3.3295584,10.9031238-3.2052404.8635467.0270079,1.7525159.2112954,2.5719739.4919719,2.2748411.7791459,3.4912431,2.7810255,3.1866526,5.171313-.1057437.8298282-.322479,1.6481857-.5293498,2.4614011-.1136426.4467529-.013871.7549803.3673431,1.0061946.4364986.2876369.8475475.6140631,1.2857314.8989037,3.8172843,2.4813834,4.8745001,8.1126173,2.4249196,12.0180205-1.7444934,2.7812756-4.3031,4.3158883-7.4766428,4.8334872-3.986312.6501207-7.6918914-.1460725-11.0639219-2.4003716-1.1959365-.7995118-2.3923805-1.5983484-3.5814974-2.4079064-2.9739645-2.0246981-6.3619067-3.0081703-9.7865668-3.8980983-.5239675-.1361443-1.0613692-.2199213-1.5875246-.3485007-.2969215-.0725722-.4907971-.0436584-.6029768.2902161-.1104236.3286935-.284686.6359105-.3918833.8679805.9296322.0984386,1.8772535.0720903,2.7491273.3162323,2.1235879.5946132,3.6146919,2.0402697,4.7234114,3.897919,1.0336754,1.7319052,1.5342517,3.6423119,1.7873468,5.6238432.2580176,2.0201084.4823013,4.0445434.741684,6.0644742.4911726,3.8249011,1.6366486,7.4059801,4.0415615,10.4903345,1.8028152,2.3121615,4.0152159,4.0170934,7.0102064,4.4507788,1.3224017.1914991,2.6699486.2651078,3.9108564-.3370711,1.6376063-.7946469,2.77337-2.0564125,3.2330183-3.8606542.2677048-1.0508787.8818612-1.6421384,1.8036295-1.7358161.9264101-.0941561,1.8817535.4116239,2.2225835,1.3678061.2300361.6453551.3414854,1.3896044.28238,2.0701815-.1448491,1.6680195-.8607693,3.1233921-2.0039769,4.3501823-2.5417713,2.7275687-5.7220497,3.655755-9.3575901,3.30376-4.6672294-.4519168-8.2438942-2.7985418-11.0780608-6.4015844-2.6480256-3.3664107-4.1984066-7.2248692-4.8687739-11.4295229-.3969129-2.489581-.6281117-5.0051762-.9911845-7.5007187-.1581038-1.0866718-.3883796-2.1747145-.7141826-3.2222271-.4539383-1.4594726-1.4096156-2.5361896-2.8517909-3.1217157-.5947013-.2414557-.6506267-.1832403-.7554551.4238971-.8170915,4.7322949-1.6651365,9.4593988-2.4541905,14.1963179-.6597212,3.9605441-.6786428,7.9216647.2009413,11.8624994.0812717.3641253.1329004.73524.1887636,1.1045541.0521796.3449893.0916855.6918836.1358643,1.0311484,3.1064177-1.0007649,5.8639506.194631,8.6260737,1.1745116,1.8005859.6387669,3.2422548,1.8516953,4.411922,3.3480331,2.2510099,2.8796665,1.8735259,6.2732677-.9517284,8.586915-2.1626501,1.7710142-4.6528016,2.9303462-7.3531193,3.5751784-8.1032486,1.9350668-16.1147201,1.7838333-23.9550993-1.2726826-.9335768-.3639477-1.8470557-.8284114-2.6876888-1.373095-3.2132775-2.0820278-3.9428993-6.0982877-1.7029198-9.2084284,1.0816267-1.5018353,2.5061482-2.6146698,4.1541009-3.4287776,2.1625309-1.0683107,4.4661614-1.6064116,6.8759327-1.5642367.7694932.0134836,1.5382252.2521863,2.3000534.4206567.2662084.0588772.4286659.103426.5676396-.214453,3.2041234-7.3288997,4.9388352-14.9835337,5.0930718-22.9852656.0330907-1.7164077-.0159622-3.4343783-.0214652-5.1516332-.0004703-.1466304.0212258-.300644.0688794-.4387253.1413555-.4096062.1409514-.870457-.2355666-1.0532713-.3185567-.1546839-.832498-.1809449-1.1446388-.0282622-1.4753247.7217153-2.6953756,1.7959322-3.4762652,3.2363558-.7622305,1.4059674-1.4058081,2.8844048-2.000948,4.3712657-1.484979,3.7100127-2.8327833,7.476733-4.389239,11.1557313-1.2232684,2.8914536-2.8981663,5.5459017-5.3137814,7.618796-3.6353213,3.1195463-7.807809,4.8784745-12.6756861,4.6444379-1.886829-.0907086-3.6970988-.5509275-5.3263889-1.5590467-2.5835309-1.5985693-3.4368875-4.425732-1.980009-6.7277191,1.2562006-1.9849081,3.0696304-3.0135301,5.4638769-2.8690229,1.0553607.0637043,2.0783624.2743553,2.9778596.8743555.7844718.523247,1.3159906,1.2192819,1.3724168,2.1956335.0639374,1.1064435-.7733478,1.9520237-1.8786244,1.8844031-.3886591-.0237765-.7700219-.1627923-1.1588079-.189412-.8891991-.0608473-1.7809605-.1084285-2.671595-.1070785-.2209574.0003335-.4415974.2076491-.6623855.3198341.1160232.2232676.1877842.4895089.3556862.6623838.7441085.7660907,1.695525,1.1642519,2.7247655,1.3333776,3.4845999.5726433,6.6576308-.2514399,9.4682664-2.3408804,2.7851201-2.0704856,4.8345381-4.7894862,6.2987753-7.9048125,1.6522335-3.5152955,3.1293624-7.1124589,4.7375961-10.6490457.6168843-1.3565523,1.3368964-2.672872,2.0966578-3.956181,1.0629892-1.7955311,2.6228706-2.9887969,4.6627834-3.5197766.1182175-.0307708.2276899-.0951194.3412319-.1438438.0016822-.0471601.0033621-.0943068.0050308-.1414693Zm-12.5590572-16.9083551c-.6872923-.0622561-1.3736461-.1633886-2.0620231-.1798319-2.5809571-.061671-5.0080006.5117093-7.2004213,1.9054293-1.1088201.7048592-1.2390139,1.2521107-.73529,2.4598585.2442081.5855301.5006878,1.1672087.7144164,1.7639447.5037491,1.4064105.250575,2.6914289-.7150242,3.8196129-.5092246.5949701-1.0796452,1.1371051-1.6007261,1.722423-.7182439.8067829-1.5087474,1.5696992-2.1051672,2.4606249-1.8229559,2.7231341-1.1350445,6.1237244,1.5471969,8.0079623,1.6986333,1.1932839,3.6057272,1.3623482,5.5785494,1.0535175,2.2021351-.3447322,4.147393-1.3561733,5.9950351-2.5372396,1.6039099-1.0252825,3.1296588-2.1720058,4.7176794-3.2231695,2.1410846-1.4172356,4.3560895-2.7083405,6.9202818-3.1952244.6264758-.1189539.8111303-.3714742.8376648-.9662288.071607-1.6048779.540359-3.0845092,1.5843963-4.3399435.2820348-.3391245.0603831-.483946-.1888713-.6548127-.7220583-.4949891-1.4695525-.9591142-2.1519046-1.5043792-1.3122656-1.0485755-2.5527125-2.1887096-3.884269-3.2110342-2.1586782-1.6573815-4.5465261-2.8587651-7.2515233-3.3815093Zm22.5600706,11.6183126c.0878807.0209117.1249569.0405582.1590882.036343,3.3501814-.4134924,6.5217303.2302429,9.4792101,1.7874494,1.8455355.971733,3.6153187,2.0970061,5.3685638,3.2314829,1.5165846.9813402,3.0637215,1.8611071,4.8338621,2.2861225,2.9509957.7085342,5.7731016.6149689,8.3462506-1.258729,2.4205001-1.7625028,3.2439103-4.5944441,1.9337326-7.2903943-.5059901-1.0411908-1.2024817-2.0335607-1.9902148-2.8831174-1.0077459-1.086861-1.3949145-2.2357357-1.1072591-3.678814.1450375-.7276462.1689625-1.4823505.2101435-2.2268935.034935-.6316487-.2790006-1.107272-.8710643-1.293077-.5810138-.182332-1.1966942-.352879-1.7978056-.3551261-2.3984993-.008981-4.667472.56351-6.7418808,1.7825988-.9318541.547624-1.8113302,1.1860505-2.7028124,1.8003048-2.5058577,1.7265672-4.9428317,3.5632908-7.5263364,5.1639007-2.3303463,1.4437692-4.8220698,2.6163464-7.7987785,1.6799105.0766233.4545936.1426082.846068.2053009,1.2180386Zm-2.9771166,39.9089685c-.0456266.1528331-.097417.3302792-.1516225.5069962-.1592178.5190881-.3734364,1.0141639-.9927408,1.08239-.6362779.0700858-1.0363707-.3414921-1.2488318-.858437-.2746131-.6681095-.5421822-1.3656942-.6399994-2.0744389-.2141271-1.5512855-.3274644-3.1168457-.4672148-4.6779075-.2651156-2.9612555-.3810923-5.9253207-.1701819-8.896812.1092954-1.5395866.1865012-3.0814508.2740775-4.5529612-.4431085,1.6962789-.8713963,3.4568688-1.3646874,5.1990576-1.0222932,3.6103789-2.0575378,7.2174309-3.1343457,10.8118035-.3415123,1.1399902-.8105524,2.2440991-1.2615339,3.3481643-.2870191.7026334-.6090989,1.3985356-.9993728,2.0469208-.1208241.2007352-.5412686.3527709-.779452.3045328-.1565911-.0317225-.3253625-.4625219-.3239194-.7136627.0024999-.4366765.1324121-.8726351.2132411-1.333625-.1382485-.0446396-.2573262-.1104862-.3800443-.1181628-.6500617-.040637-1.3168735-.173257-1.9489952-.0794027-2.8241775.4193012-5.2813662,1.5961411-7.1883704,3.7705539-1.2569054,1.433166-1.1342856,2.8250827.3609099,4.016144.5796097.4617026,1.2256996.8599951,1.8887379,1.1931686,1.9328852.9712628,3.9927716,1.5986183,6.1142444,1.9733999,4.3600723.7702668,8.7364303.774714,13.1096095.0870241,2.523113-.3967586,4.9893941-1.0262221,7.243997-2.2532573.8877515-.483132,1.721405-1.1297597,2.4403127-1.8425304.8670187-.859585.782559-1.9451975-.1319357-2.7626467-.4487834-.4012027-.9923478-.7524202-1.5543191-.9615679-2.9369599-1.0929954-5.8935617-2.1331696-8.9075629-3.2147437Zm-1.6619244-35.6383931c.3401189-.2734948.7258921-.4386828.8633622-.7236555.3100405-.6426929.7347254-1.3618759.6871091-2.0190742-.1142646-1.5767563-.4737966-3.1357498-.7467834-4.7765354-.3552981.2819224-.562595.5756071-.8198354.6290818-1.4360432.2985194-2.0278156,1.5061455-2.7420121,2.5421867-.27621.400691-.2716617.9949063-.3949953,1.5009707-.1175975.4825436.0186918.6902853.567549.7271151,1.4828752.0994768,2.1110596.6113013,2.5856058,2.1199107Zm-.4312148,2.2004155c-.0785061,1.673232-.1547288,3.2979363-.2309651,4.9226382.0252462.0028702.0504788.0057381.0757091.0086195.282703-1.6123322.565406-3.2246644.8561744-4.8829959-.2646922-.0182293-.4620104-.0318159-.7009185-.0482618Z" stroke-width="0"/>
      <path d="m130.6293567,19.4726617c2.2088058.5127829,4.7717254,1.2066578,7.0339453,2.6747709.6479617.420507,1.2454238.9558589,1.7615959,1.5320937.5220056.5827501.7322274,1.3292233.3265431,2.0811106-.4038479.7484678-1.1535265,1.010554-1.9152058.8967908-1.2494014-.1866097-2.488903-.4775489-3.7093267-.80993-1.3686346-.3727471-2.6897447-.9373655-4.0700692-1.2462948-2.7227689-.6093757-5.4606518-.5345081-8.1340428.2971464-.6106495.1899724-1.1747874.6301384-1.6724025,1.0575321-.6349857.545367-1.361594.4606259-1.7268216-.3154367-.321066-.6822263-.1624442-1.3609388.0878484-2.0142815.5287489-1.3802114,1.5717441-2.2933527,2.8239152-2.9955122,2.7737167-1.5553705,5.7345983-1.7905361,9.1940206-1.1579894Z" stroke-width="0"/>
      <path d="m181.9761344,27.72173c.4909322-.0268543.8564834-.0882027,1.2144167-.0583145.9049443.075583,1.8323831.0961039,2.6992072.3299736.4853446.1309459.9717105.5702268,1.2720719,1.0001873.4316248.6178633.0034753,1.3032306-.7550248,1.3813564-.1095051.0112772-.2162237.0510435-.3238214.079181-3.0515835.7980336-6.0978639,1.6172574-9.1572602,2.3841627-1.2286807.3079994-1.5832031.0254952-1.8689452-1.2061928-.0278847-.1201745-.2001229-.2397088-.3324509-.2975087-.9058613-.3956869-1.1231084-1.1937096-.4541534-1.9297221.6524085-.7178056,1.3717642-1.3745626,2.0577439-2.0620839,2.2821691-2.2872627,4.5688086-4.5701426,6.8389217-6.8693263.523999-.5307123.9768476-1.1309155,1.4844375-1.6787589.5751714-.6207841,1.2334351-.7762382,1.8015075-.4640653.5545344.304741.7643681.8934952.5948289,1.7150732-.052633.2550852-.1102345.5167127-.2172185.751846-1.0976386,2.412236-2.376723,4.7026876-4.415765,6.4741626-.1220792.1060531-.2270557.2317803-.438496.4500298Z" stroke-width="0"/>
      <path d="m152.9929573,22.292259c2.34962.4844594,4.1945076,1.4854065,5.8465591,2.8363377.8043062.6577126,1.5564221,1.3932325,2.2517201,2.1659046.5729659.6367017.8434793,1.4458843.8411481,2.3219287-.0027454,1.0323164-.6016315,1.9516927-1.4944189,2.300126-.887329.346309-1.782563.0990021-2.538896-.6705591-.614024-.6247623-1.2309732-1.2489294-1.8796731-1.8368884-1.6477145-1.4934358-3.6656574-2.1884237-5.7983077-2.6108867-.9427857-.1867616-1.8548259-.0164506-2.7503232.2976672-1.0526846.3692489-1.7397039.2388631-2.1736547-.3924425-.4427751-.6441434-.3345798-1.5454123.3819499-2.295025.4183935-.4376956.9132338-.8456975,1.4489631-1.1200375,1.9186627-.9825244,3.972306-1.2255845,5.8649334-.9961249Z" stroke-width="0"/>
      <path d="m64.8831177,37.3426185c-2.3977822-.5076895-4.6481463-1.3724234-6.5432556-2.9846821-.5056193-.4301641-.9307997-.9637225-1.34884-1.4851414-.3276923-.4087357-.3883407-.8994373-.0979483-1.3617163.3081418-.4905164.8028415-.6157336,1.3267933-.470782.6264976.173326,1.2447193.3902452,1.8461391.637805,1.4382716.592019,2.8953606,1.1018001,4.4603186,1.2272793,1.8920184.1516981,3.6510317-.4249071,5.4168823-.9775794.5850862-.1831085,1.1771739-.3929135,1.7804569-.4589253,1.4346145-.1569883,2.2396136.7743171,1.7931217,2.1503722-.2024336.6238952-.6300408,1.2394778-1.1095531,1.6975633-2.1225095,2.0276258-4.6731571,2.6039296-7.524115,2.0258067Z" stroke-width="0"/>
      <path d="m47.3890429,34.8424812c-2.4222919-.3270094-4.3547109-1.4959732-5.7617195-3.4891683-.6217256-.8807513-1.0379162-1.8663638-1.0256886-2.9728901.0069068-.6249529.2960061-1.120177.878793-1.388545.5857835-.2697464,1.1306873-.1418748,1.6209337.252271.1157398.0930465.2319367.195136.3172552.3149067.8221266,1.1542207,1.9863256,1.7498083,3.3438991,1.9514069,2.0838711.3094708,4.1773061.5541328,6.2656538.8339908.4970822.066619,1.007076.1097663,1.4810565.2591226.7518107.2368961,1.0847524.8286464.9734559,1.6105739-.1473443,1.0351092-.8272189,1.6587646-1.7231051,2.0461507-1.6807672.726805-3.4522052.9287891-5.2670206.7709299-.3705082-.032232-.7358095-.1242768-1.1035135-.1887492Z" stroke-width="0"/>
      <path d="m188.9790833,41.7287083c-.5412892-.1368955-.9997128-.1313135-1.0785672-.7290734-.0190346-.1442576-.3187694-.2981079-.5172295-.3648595-1.9964814-.6716418-4.0038822-1.3109653-5.9976989-1.990276-1.4471062-.4930508-2.8826665-1.0212005-4.313546-1.5597991-.3432956-.1292215-.6807373-.3218665-.9636239-.5548468-.8838332-.7279323-.7007173-1.9839772.3727396-2.3852309.4947917-.1849437,1.0536616-.2383469,1.5883027-.2701481,2.873398-.1709255,5.5438629.6235012,8.1083327,1.8176565,1.0955401.5101431,2.1730827,1.0825914,3.184154,1.7413034.5757051.3750777,1.0710078.9310892,1.4754804,1.496483.4762767.6657896.5224196,1.439651.0090143,2.1455639-.5048678.694153-1.2179959.7955719-1.8673583.6532271Z" stroke-width="0"/>
      <path d="m26.8215474,10.3117217c-.7489953-.1501426-1.5151782-.7035543-1.9787425-1.5865825-1.0489365-1.9980784-1.292785-4.1113803-.6945828-6.2941129.2397634-.874858.7715043-1.5718342,1.5585819-2.045097,1.4325482-.8613743,3.037506-.226139,3.4446773,1.3616034.0402101.1568118.0577378.3373032.0229278.4927207-.33752,1.5068691-.318102,2.9795993.234272,4.4507452.1907878.5081213.2508472,1.0972463.2341731,1.6452151-.0455558,1.4971758-1.0926183,2.2914527-2.8213067,1.9755081Z" stroke-width="0"/>
      <path d="m77.6960461,17.0934985c-1.3731521-.0608393-2.7458243-.1471216-4.1196349-.1726622-.783326-.0145576-1.3137015-.6352837-.9860765-1.3905504.2285581-.5268883.5939578-1.0613064,1.0389464-1.4156558,1.7756959-1.4140347,3.7899145-1.8152349,5.9502559-1.0531115,1.5505054.5469907,2.9178537,1.4373842,4.0464212,2.6389122.3578667.3810024.6339326.8787541.8190317,1.3713323.200907.5346549.0622508,1.0791303-.3981273,1.4757595-.43635.3759335-.9353618.3223408-1.428358.138068-.6811056-.2545803-1.340377-.5792802-2.0360537-.7803587-.9487388-.2742251-1.9229754-.4602897-2.8862768-.684152-.0000473-.0425268-.0000873-.0850558-.0001279-.1275814Z" stroke-width="0"/>
      <path d="m23.8413817,13.9097532c-.4643777-.244681-1.009857-.4586285-1.4716303-.7894115-1.2929197-.9261636-2.384747-2.0694347-3.0225315-3.5351221-.6903066-1.5863986-1.2677956-3.223285-1.8528927-4.8530878-.1476704-.4113415-.1938663-.8803602-.1880833-1.3215852.017843-1.3611844,1.2338222-2.1082235,2.4696061-1.5422728.2365676.1083437.4602574.2452266.6879933.3723378.4054824.2263156.5312022.4812815.1721285.8862204-.1000682.1128515-.092504.4146595-.0170302.5743506.4623317.9782468.9883645,1.9269231,1.4362753,2.9113334.7017416,1.5422825,1.3715101,3.0995738,2.0271974,4.6621015.2472664.5892485.4286015,1.1812983,1.1037409,1.4644972.172101.0721906.3493061.4323621.3126146.6185213-.0373688.1896256-.3125004.4106419-.5247013.4695124-.3307616.0917768-.6962915.0582569-1.1326868.0826049Z" stroke-width="0"/>
      <path d="m153.8044998,47.630988c-.9028204-.4307034-1.813494-.8459417-2.7053477-1.2982968-.4814041-.2441646-.9308645-.5513957-1.3943042-.8308887-.5409395-.3262446-.7490139-.7435429-.5947098-1.1902254.1591322-.4605867.6251034-.6673251,1.2512343-.6017926.8876375.0928958,1.7768517.1945515,2.66779.2272516,1.6806579.0616737,2.8642699-.7899806,3.7444543-2.1476269.0507445-.0782796.0984293-.1587632.1436437-.2403747.3488667-.6297779.8116935-1.0925608,1.601292-.9777792.8313751.1208559,1.2462279.6995653,1.4517024,1.4498925.5757757,2.1023927-.6347362,4.4405806-2.6824413,5.18172-1.1104703.4019342-2.2518804.5148733-3.4187097.2956026-.0215302.0441733-.0430603.0883467-.064604.1325177Z" stroke-width="0"/>
      <path d="m19.2127879,17.0440721c1.0420424.1913946,1.8975283.5731455,2.483674,1.4042192.7745123,1.0981461.3735153,2.1561833-.9406141,2.3541894-.8261895.1244783-1.6752375.0956978-2.5138155.1397551-1.5851241.0833099-3.1695268.1836856-4.7554217.2471002-.5741682.0229529-1.1672232.0352085-1.724337-.0799003-.9541223-.1971287-1.2819155-1.1520464-.6461855-1.8917271.3303248-.3843449.7698935-.7355418,1.2320428-.9352935,1.9768811-.8544361,4.0685539-1.2254568,6.2141264-1.3029355.240112-.0086686.4825276.0467177.6505305.0645927Z" stroke-width="0"/>
      <path d="m41.8807863,121.3789226c1.8640079.0200755,3.7280482.0379055,5.592015.0612672.8389587.0105168,1.6825921-.0137902,2.5140571.0734252.2924567.0306709.7136532.2992622.7876415.5457864.0779744.2597713-.1155.6873782-.3238265.9243253-.247646.2816491-.6108625.5250805-.9699677.6352192-2.6921025.8257126-5.3911055.977701-8.0438733-.1442416-.4830777-.2043053-.9141616-.573348-1.3082073-.9331866-.3160021-.2885694-.4333338-.7018729-.2043054-1.1252051.2297006-.4245901.6232026-.41928,1.0268661-.3559368.3133228.0491705.6250573.108429.9375002.1632121-.0026369.051773-.0052695.1035606-.0078997.1553348Z" stroke-width="0"/>
      <path d="m116.4100935,137.0074222c-1.7239374-.3236438-2.8715529-.8818544-3.8656956-1.745216-.5171476-.449097-.9314243-.9775961-1.0183867-1.6889676-.1259386-1.0300612.6601864-1.8686173,1.6126923-1.5856025,2.8963992.8606143,5.7380439.285502,8.5913477-.1967274.4046835-.0684073.8082121-.1733415,1.2153561-.1911109.763909-.0333665,1.4092837.2299948,1.756637.9583691.3446823.7227644.1614352,1.385952-.3356479,1.975158-.1433164.1698748-.3039515.3385055-.4888189.4579059-2.4067075,1.5543401-5.0473663,2.1652348-7.467484,2.0161914Z" stroke-width="0"/>
    </g>
  </g>
</svg>