<?xml version="1.0" encoding="UTF-8"?>
<svg id="Layer_2" data-name="Layer 2" xmlns="http://www.w3.org/2000/svg" viewBox="0 0 156.236179 298.1806474">
  <g id="Layer_1-2" data-name="Layer 1">
    <g>
      <path d="m152.2901262,156.1708722c-.024683,1.0340751-.0674951,2.0841769-.2661943,3.0949805-1.3695172,6.9663983-2.7702136,13.9267329-4.1914225,20.8827887-.2617507,1.2810761-.5240016,2.5918053-1.0255384,3.7884747-1.436838,3.4283059-2.1960777,7.0247118-2.8822768,10.6470149-.1287784.6797811-.2034433,1.3698441-.3032343,2.0562573,5.8228954.6629523,9.4857228,5.0575165,8.5884301,10.1815925-.3952197,2.2568886-1.6234765,3.9897894-3.5316744,5.1987979-2.247556,1.4239665-4.6318183,2.0381982-7.1910631.7623838-.0607691.1311698-.1134433.1990532-.1233216.2726855-.5445758,4.0559806-1.1003466,8.110568-1.6240098,12.1692608-1.3413201,10.3962875-2.474213,20.8175132-4.2317475,31.1616622-.8970924,5.280021-1.5664992,10.5892319-3.3186017,15.6811855-.0522235.1517984-.0965226.3281901-.0715772.4812329.2586826,1.587275-.575401,2.6809206-1.6865083,3.5983622-1.11479.9204618-2.2339263,1.8640658-3.4666032,2.6056227-1.3169654.7922779-2.4181785,1.6298127-2.5211466,3.2999743-.0080478.130609-.0798019.2608944-.1371036.3843063-3.454855,7.4413819-8.3346519,10.8706345-16.1298784,10.6635865-1.8523652-.0492083-3.6254112.1438234-5.3268664,1.0005534-1.7032388.8575954-3.4291414,1.7566356-5.2479473,2.2804971-3.9451929,1.1363442-7.986915,1.804319-12.1237752,1.7204316-1.6379043-.0332195-3.2777365-.0065378-4.9160783.0247474-9.8425506.1878366-19.6618458-.0815636-29.430028-1.429619-3.4664465-.4783852-6.7887207-1.2869099-9.7365213-3.3449844-3.0688667-2.1425911-5.7711585-4.6673207-8.2966279-7.4022656-.330698-.3581419-.6210418-.7661334-.8661824-1.1881584-.5460123-.940043-.6098461-1.8515266-.131232-2.2013172.7891539-.5767421,1.5138186-.1083852,2.0800086.3680258,1.2503178,1.0521322,2.4751077,2.1485014,3.6031818,3.3291853,2.5101836,2.6271994,5.4783698,4.4716295,9.0519877,5.1078561,3.1934703.5685615,6.4269798.9474499,9.6569375,1.2676777,5.0893907.5045777,10.1986526.4017107,15.3083504.3856057,6.6397815-.0209305,13.2713562-.0640727,19.8972763-.5849181,3.5065555-.2756304,7.0294556-.3498345,10.5459827-.4898508,1.5856608-.0631167,3.1804713-.0571351,4.6397199-.7988208,2.0686972-1.0514626,4.2040953-2.0016574,6.1627882-3.2312407,2.0026819-1.2572559,3.8310172-2.7934963,5.7231364-4.2241703.2539165-.19199.4345505-.4808965.6491226-.7249156-1.0665537.2145183-1.9983999.5937147-2.9539751.8985075-7.6124858,2.4281167-15.3770447,4.1856708-23.2571155,5.5211771-5.4293639.9201481-10.8678058,1.2747819-16.3220967.767234-8.6016198-.8003718-17.1120821-2.1876409-25.4581371-4.51003-5.71741-1.5909175-11.3529053-3.3962317-16.8155508-5.7220006-.7020831-.2989215-1.3655857-.8205228-2.0880862-.9111698-1.3879443-.1741697-2.0861789-.9931374-2.491054-2.1690403-.4708347-1.3674687-.9775344-2.7374815-1.2740937-4.1473554-1.0902909-5.1832186-2.1393813-10.3758885-3.1307114-15.5789729-1.4568222-7.6463058-2.8967713-15.2964591-4.2552215-22.9606925-.9054652-5.1086635-1.6598621-10.244172-2.4711016-15.3693393-.0713748-.4507912-.1348611-.7218322-.7370392-.6873316-4.3880641.2514146-7.1136929-1.4980067-8.6955158-5.5834099-.9286091-2.3983686-1.5093807-4.8672754-.9393486-7.4519967.6116333-2.7733829,2.8482317-4.5915046,5.4683607-4.5023856.4248762.0144544.8476394.0914866,1.374487.1512813-.0787397-.3354949-.1151056-.5999555-.2024525-.8463385-1.4769337-4.166345-2.8711826-8.3649782-4.4701016-12.4841422-1.2930938-3.3312507-3.1013586-6.4787879-4.2085909-9.8624178-2.1395247-6.5381139-3.9742284-13.1771554-5.8657208-19.7942439-.3715741-1.299813-.5084551-2.6836072-.6086308-4.039381-.1020481-1.3814205.2025736-2.6661425,1.4933266-3.513488.1791039-.1175678.2346156-.4554488.303327-.7035319.2817589-1.0175182.3451525-2.1576187.8591312-3.0359328,1.0967097-1.8740815,2.25992-3.7578632,3.6893743-5.3788785,3.3493506-3.7982131,7.4941298-6.5754327,12.059964-8.7415178,4.0710468-1.9313744,8.4234047-3.002136,12.7083573-4.306901,6.7109228-2.0434459,13.5036908-3.3905881,20.5468321-3.2573137.27016.0051129.5462862-.0377941.811839-.0946677,3.604861-.7720172,7.2648932-.8790302,10.9269785-.8252954,1.9246343.028239,3.8932555.0249773,5.563682,1.2856397.6159693.4648973,1.0234481.9938923.9065568,1.7875996-.121331.82386-.6431575,1.3449482-1.4392861,1.4836693-2.5269443.4402964-5.0546844.8862111-7.5947858,1.2388217-7.8714018,1.092719-15.7891423,1.9104435-23.6129924,3.2714422-9.0153546,1.5682626-17.5269553,4.6636983-24.9877528,10.1525105-1.8158538,1.3359135-3.4648047,2.909324-5.118075,4.4511971-.8270631.7713322-1.3389748,1.8230407-.90359,2.9728166.7722371,2.0393581,2.5363987,3.1603191,4.2799741,4.4783804.0702112-.4749099.1252687-.7675269.1552247-1.0626826.2367217-2.3316018.8757888-4.5457393,1.864614-6.6709122.442895-.9518977,1.1246423-1.5585312,2.1571184-1.6652492,1.8457545-.1907662,3.6958332-.3640457,5.5484524-.44815.5145353-.0233604.7193868-.1558846.8775588-.600624.7185938-2.0208854,1.9249822-3.7022859,3.471027-5.1927052,1.3983662-1.3480818,2.9284013-1.7493805,4.7976855-1.2608957,1.3406244.3503162,2.7166852.5965511,4.0916931.7764339,2.0026078.2619887,3.654276,1.0529555,4.7939854,2.7735098.065018.0981788.1884572.1576737.2846809.2351469,1.572989-1.9286893,2.1123912-2.3826124,3.6419586-2.4090646,2.9744578-.0514272,5.952889-.0421139,8.9258417.0570313,1.6978717.05662,3.0055962.8758278,3.7115632,2.521151.5918415,1.3792818,1.2502597,2.729838,1.8570912,4.1028764.7169732,1.6222747.7065973,1.625143,2.5189184,1.5239605,2.9810176-.1664362,5.9214469-.1691836,8.3226538,2.1716016.0778872-.2671067.1445683-.4684211.1952663-.6736764,1.1528832-4.6674627,2.4054174-9.2998427,4.050488-13.8293706,2.7016117-7.438573,4.8421947-15.0735419,8.2445631-22.2666718,1.833896-3.8771775,4.0049355-7.5131897,6.4495349-11.0067096.7730381-1.1047369,1.743401-2.0482068,3.0426595-2.5370119,1.306349-.4914723,2.3884726.3328388,2.1595544,1.7040642-.1224255.7333581-.4504874,1.4573697-.8044893,2.1223793-1.0393325,1.9523708-2.1484333,3.8675602-3.1969088,5.8152214-.0992537.1843881-.0595278.5789947.076989.7334257,1.0644612,1.2041963,2.2708678,2.2960225,3.2357133,3.5720649,1.3757394,1.8194704,3.0137884,3.3005677,4.9265528,4.5059972.1702023.1072643.3630031.1786797.583511.285203-.1013254-1.7422315-.1523659-3.4007805-.3029452-5.0502634-.3367948-3.6892504.7995589-6.9684264,2.7795855-9.9882431,1.8703561-2.8525611,4.030107-5.3508416,8.0984381-5.2095934-3.3102531-2.4166645-6.4455981-4.7056338-9.6112633-7.0167412-1.3506335,1.4540506-2.7000778,2.9805886-4.6899116,3.8547918.0129855-.6612212.0683802-1.3012879.3098753-1.8610812,2.2383644-5.1887618,4.5062609-10.3648,6.7708082-15.5422518,1.5212987-3.478135,3.1803379-6.9024523,4.55163-10.4385321,3.5075616-9.0447374,6.1108466-18.3187271,6.9987467-28.0398962.31435-3.4416511,1.0780943-6.8446333,1.6936713-10.2549803.190707-1.0565535.562207-2.0842842,1.8039263-2.4301514-.314753-1.4500999.2891497-2.4833295,1.3070768-3.3606043.132757-.1144113.2726953-.4105166.2153622-.5269909-.8611954-1.7494572-.5141814-3.5754116-.424507-5.3988477.2278309-4.6323961,1.8179447-8.7281713,4.6864507-12.3548674,1.4360087-1.815555,3.1583-3.2295365,5.3275953-4.091953,1.0957356-.4356189,2.2075732-.656236,3.3634873-.4138152,3.2041243.6719683,6.2680456,1.6773627,8.9423849,3.6714932,1.6779522,1.251177,2.8232726,2.8695282,3.2275552,4.8783851.3585416,1.7815344.6271621,3.6323918.5596965,5.4386119-.1857069,4.9724282-2.1482712,9.5540261-3.415983,14.2886802-.0829421.3097722-.1343862.6972593-.0229716.9782052.5873093,1.4810796.6706492,3.0122817-.1006133,4.3641491-.7386591,1.2947119-.9245054,2.6076745-1.1140164,4.0392458-.3214025,2.4277888-.9555368,4.8170381-1.509486,7.2106284-1.436381,6.2064928-2.6705751,12.4555541-3.1039529,18.8148498-.5265673,7.7268264-.4072796,15.4410848,1.0024471,23.102316.9555803,5.1932178,2.071551,10.3211968,4.1463651,15.2117789,1.0867312,2.5615647,1.9846183,5.2045242,2.9319209,7.8236847,1.6219359,4.4844269,2.5083934,9.1585653,3.4273676,13.8159305.4953342,2.5103846.7715184,5.0654536,1.0990686,7.6064813.0850296.6597299-.008441,1.3424684-.0157692,1.7711493,1.4483686.4957775,2.8469224.761389,4.0249973,1.4208659,2.6880772,1.5047222,4.66832,3.7592609,5.9903247,6.5463088,1.1624158,2.4506129,1.0601616,4.896067-.3809524,7.1998932-.6465448,1.0335724-1.4547947,1.9745091-2.2560878,2.8999685-.6028663.6962493-1.3116002,1.3008446-2.077116,2.047612,1.2676969.6563491,1.5910952,1.7369445,1.562366,2.9404503Zm-117.7278063-3.710955c.488883-.4030916,1.0088846-.8318345,1.5288662-1.2605762-.0816685-.0170975-.1633571-.0341938-.2450256-.0512912.1026501-1.0468474.2053196-2.0937059.3123443-3.1849229-1.2717494,1.1241304-2.0985664,2.9670219-4.2439624,2.6433465-.4166031-1.0398184.0177898-1.8032659.6714898-2.62679,1.1655582-1.4684512,2.1889488-3.0492646,3.2848468-4.5737142.3979164-.5535273.2561097-1.0473942-.2798413-1.2868084-.9791384-.4374123-1.9928329-.8321169-3.0298717-1.0964453-1.2871991-.3280886-2.6206452-.4705425-3.918777-.7615666-.7730058-.1732945-1.4427409-.1031464-1.8881307.5718483-1.0908922,1.6532571-2.1370331,3.336061-3.2405228,5.0687508,2.8555881,1.590867,5.6357963,3.1397379,8.4160044,4.6886088.8601049.6108245,1.7202087,1.2216291,2.63258,1.8695606Zm110.660018,54.1062585c1.7657965-.8003422,2.1144951-2.2347753.8853584-3.7531033-.2563705-.3166658-.554052-.6035499-.8553409-.8794009-.5158664-.4723627-1.0763557-.5829748-1.7238353-.2220003-.3534186.1970353-.7460712.3494511-1.1397795.4432216-.901072.2145951-1.6949339-.0154115-2.2618942-.7690564-.5454333-.7250324-.5512634-1.5266048-.1397262-2.3172145.1488013-.2858726.3264322-.6319282.5868316-.771381,1.0958899-.5868447.9980765-1.596829,1.0894974-2.6024055.4401146-4.8414945.3221757-9.7172575.7061128-14.544902.5183318-6.5174723.9904503-13.0898012,2.9990135-19.3942258.5801478-1.8209493,1.2522724-3.6124627,1.8601662-5.4248637.077064-.2297383.019578-.5046157.0244205-.758575-.2791143.019099-.5878233-.0316052-.8312165.0716526-.5241553.2223984-.9926959.5825568-1.5232309.7819357-1.4763313.5547936-2.9846235,1.0249491-4.4581846,1.5865366-1.9576791.7460906-3.8926309,1.5516005-5.8405025,2.3236479-6.0371529,2.3928194-12.3594899,3.6425208-18.7557273,4.5032911-4.1634045.5602839-8.3614304.8692142-12.5473627,1.2534052-1.6524076.1516413-3.3141115.2018531-5.2107752.31216,1.0938641,1.6759886.3068012,2.7985679-.5302798,3.9321737-3.3821126,4.5801627-6.1960248,9.5098458-8.979273,14.4660266-2.5929244,4.617284-5.3284122,9.1546889-8.0209648,13.7155729-.3598072.6094766-.8359312,1.150275-1.2581932,1.7228764-.0828259-.0383762-.1656319-.0767536-.2484389-.115151.0108238-.2495069-.0305621-.5151587.0408403-.7459206.5060756-1.6359212.8732537-3.3393475,1.5850192-4.8828057,3.0988133-6.7196014,6.2449901-13.4188474,9.4908019-20.0684684,1.3230514-2.7104526,2.9429319-5.2760182,4.4489786-7.9451113-5.8403184-.6413345-11.6583537.8410431-17.2834645,1.1542204-.430601,1.1477772-.738131,2.0881745-1.1329028,2.9904323-.5361312,1.2252787-1.1645784,2.4099472-1.708533,3.632013-1.7807978,4.0009633-3.8615294,7.8346715-6.2607944,11.5001018-1.2618493,1.927791-2.240906,3.9896803-2.7711947,6.2548853-1.2777926,5.4583993-3.8329176,10.3809889-6.4861841,15.2555102-1.0703752,1.9664026-2.1627401,3.9251849-3.3451106,5.8251835-1.3670864,2.196779-2.487193,2.4981928-4.4454089.8279673-2.610681-2.2267426-5.0417796-4.6724196-7.4582951-7.1147958-1.2045737-1.2174638-2.2804709-2.5824537-3.2841582-3.974773-3.5154073-4.8765-7.158068-9.6340783-11.2072834-14.0990112-4.9057387-5.4094658-9.0188792-11.4529373-13.2595582-17.387903-2.0155767-2.8209011-4.1590666-5.5504217-6.2468224-8.3196825-.0462178-.0613102-.1189521-.1026184-.3586573-.3036718.1266862.4699527.1923843.760758.283248,1.0434853,1.0195723,3.1725312,2.050715,6.341363,3.0634392,9.5160764,1.2199255,3.8242413,1.6286896,7.7996029,2.1427114,11.7530888.070902.5453629.2798604.8263631.7748914,1.09728.5557703.3041438,1.0697109.7764782,1.4534564,1.287171,1.5410467,2.0508968,3.1073759,4.090903,4.5093614,6.2362138,1.9193721,2.937095,4.0749021,5.6596217,6.4469209,8.2467327,3.9680471,4.3278875,7.9062731,8.6906408,11.673244,13.192533,2.2902443,2.7370603,4.1659449,5.8165371,6.352652,8.6457248,3.0559948,3.953909,6.2285149,7.8177612,9.350723,11.7204971.0678715.0848645.1299036.174438.2363723.3181295.1655126-.2344313.2756913-.3750289.3696264-.5257657,4.9257635-7.903661,9.8047573-15.8371121,14.8096387-23.6903356,1.1186909-1.7552907,2.6611573-3.2448605,4.0529197-4.8174639.226441-.2558534.6849851-.3062729,1.0362468-.4516515.0751143.3699998.2886707.7783081.1989433,1.1027157-.2533594.9158205-.5955356,1.8122535-.9657947,2.6896952-2.0549716,4.8697502-4.5934176,9.4804986-7.4265299,13.9397803-2.7374618,4.3087458-5.3808872,8.6773436-8.1272846,12.9802954-.6248211.9788937-1.5039166,1.795373-2.2652205,2.6872793-.5722682.6704379-1.3061001.7247615-2.000392.3409646-.8508299-.4702994-1.7638092-.9487897-2.410715-1.6457929-2.4122335-2.5989628-4.7746737-5.2481436-7.0645793-7.9555996-2.4862205-2.9395845-4.8596216-5.9743618-7.3024202-8.9510263-3.0503732-3.7169837-5.92603-7.5549478-8.6890517-11.4974743-3.3191514-4.7360259-6.9834026-9.2296814-10.4778151-13.8437532-.9546974-1.260598-1.8377345-2.575552-2.7495171-3.8685103-.1696921-.2406519-.3194387-.4953917-.6706397-.6791272.2468371,1.1101323.4574497,2.2298073.7475366,3.328505.7664296,2.9027493,1.5682903,5.7961022,2.3539274,8.6937859.2972969,1.0965346.2710533,1.2401276-.8464273,1.4567659-.8683647.1683572-1.7804883.1715572-2.6707558.1497548-.9154778-.0224206-1.0849235.0778693-.9573592,1.0037054.1266511.9190945.3169224,1.8292777.4705468,2.7448393.1389303.8279852.5213126,1.4913468,1.2749847,1.8991295,1.2427417.6723519,2.4408033,1.4666399,3.7510062,1.9634979,1.2227089.4636839,1.7567672,1.3391412,2.0316992,2.4464169,1.3027235,5.2465272,2.5922026,10.4965706,3.8400379,15.7563717,2.5349515,10.6853005,4.8317616,21.4221724,6.720804,32.2412857.7089043,4.0600063,1.236649,8.151574,1.8741883,12.2244898.0359332.2294501.2794743.538504.494187.6117217,8.541163,2.9128614,17.1649237,5.5720617,26.1870421,6.4536061,8.4313943.8238411,16.9056427,1.3733831,25.3513376.249529,11.976953-1.5936974,23.712759-4.2224352,34.9626431-8.7615182,1.6453746-.6638992,3.3433787-1.19691,4.9931459-1.8507624.3153861-.1250127.6787474-.4974437.7499807-.8160655,1.78049-7.9664274,3.6861806-15.909931,5.2265296-23.923444,1.3390895-6.9664326,2.1818604-14.026725,3.3860577-21.0210897.9955807-5.782742,2.2139787-11.5260897,4.0849997-17.1063589.0693644-.2068721.1349313-.4156278.2170651-.6174701.3564795-.876059.6271555-.9501271,1.2803507-.4279263,1.3082559-.6073932,2.5136318-1.1778763,3.7280899-1.7283233Zm-60.8591935-90.1862123c-1.5120079,3.7474774-3.0984847,7.4665551-4.5313042,11.2439715-2.8508704,7.5158317-5.2450564,15.171212-6.8325177,23.0671953-.3757838,1.8690734-.9399945,3.7016128-1.4542376,5.5406966-.1605797.5742788-.3759284,1.1549198-.6840089,1.6609211-.4014092.6592383-.602965,1.2926628-.4466634,2.0760837.0802915.4024995-.0704811.8510878-.1320144,1.419035.4874891.0033869,1.0146913.0120707,1.5418293.0096541,1.0106534-.0046311,2.0335884-.1210062,3.0297346-.0049447,3.5992462.419331,7.2245793-.2553641,10.8158428.3027598.0500591.0077717.1057753-.0209036.3165022-.0672227.1955989-1.2490079.4021162-2.5580691.6051948-3.867672.1503514-.969679.2662669-1.9459337.4545363-2.908097.1275751-.6520514.5122245-1.1300758,1.1952542-1.3279813.198176-.0574147.4082722-.1776467.5436361-.3304623.7241565-.8175901,1.6188008-.8968099,2.6216697-.7116795,1.9546718.360854,3.9183176.6728517,5.8741443,1.0277158,1.0736837.1948117,2.1605696.3622883,3.2043532.6686661,4.416984,1.2964591,8.9412107,1.6931019,13.5181118,1.8018161,3.1919023.0758286,6.3807566.2889706,9.5698689.4613997.4308728.0233056.8925567.0885636,1.2754516.2703256,1.062968.5045924,2.1074827.3532896,3.1913025.1075619,3.9892526-.9045005,7.7853751-2.3328943,11.298746-4.0528688.4545292-2.9027049.9273431-5.6927978,1.3165026-8.4945011.2284804-1.6449811.4995222-3.3139239.4482507-4.9626583-.201691-6.483494-.8868813-12.9119403-2.6826619-19.1781055-.0814984-.2843644-.1802373-.5637876-.3039876-.9481058-.2984826.153393-.527288.2776094-.7615989.3903906-3.6857965,1.7743683-7.2255856,3.9175296-11.2518073,4.8647779-2.733293.6430592-5.5167845,1.0810587-8.2880206,1.5505752-1.229843.2083712-2.4636405.1633347-3.555668-.7666498-1.18512,1.4167648-2.6535323,2.4234044-4.3202482,3.1702712-4.376089,1.9609508-8.2765528.8453369-10.8637371-3.2057883-.4589566-.7186571-1.0001522-1.1125204-1.7862237-1.3977784-2.4601282-.8927093-4.7700939-2.1190533-6.6153747-3.992762-1.6995918-1.7257841-3.2245696-3.6235929-4.8249217-5.4469869-.1375094-.1566782-.26352-.3234556-.4718698-.5805495-.3643761.9399953-.6786815,1.7797485-1.014066,2.6109966Zm-10.9999795,51.6781796c-6.1985044.4355972-12.3946749.0056302-18.5918055-.0076415-5.5320723-.0118538-11.0212303-.2949036-16.4928684-1.1062407-7.3044078-1.0831232-14.5388718-2.4575844-21.547022-4.8451767-1.2569853-.4282282-2.4983391-.9023326-3.8820759-1.4042742.1372769.2202289.1838227.3405976.2677193.4228866,5.2995376,5.1976653,9.4586012,11.2949679,13.6845712,17.339574,2.9884996,4.2745983,5.8819369,8.6205875,9.0098321,12.7906706,1.5099214,2.0130214,3.3730475,3.7910378,5.2331609,5.5051913,3.7297161,3.4370751,7.2216827,7.0579042,10.0074245,11.325955.6776114,1.0381778,1.5457393,1.9520311,2.4042346,3.0200762.1946854-.3442013.3114825-.518155.3968228-.7063939,3.1391964-6.9230041,6.6037415-13.6728953,10.7835167-20.0332523,1.4422707-2.1946776,2.0552846-4.6879158,2.7371705-7.1521481,1.4161753-5.1178347,3.7088163-9.8501408,6.205025-14.5002831.0886649-.1651921.1683912-.3351959.306806-.6120062-.2616469-.0196784-.3933201-.0460239-.5225117-.0369369Zm41.1917229-125.0494847c-.7616924,7.956397-2.6505563,15.659009-5.0918036,23.2351293-1.0963969,3.4025636-2.4748971,6.7132099-3.631781,10.0975694-1.2934209,3.7837505-3.191855,7.2367073-5.4411374,10.5171625-.1963084.2863105-.3745384.5850187-.5943763.9301116.2915617.1837265.5276855.3113091.7404825.4701428,1.1795459.8803484,2.5116932,1.6208089,3.4996323,2.6811754,2.9897465,3.208895,6.6873433,4.7194745,10.9716731,4.9984451,4.905096.319393,9.8111163.6252131,14.7179642.9163134.5869987.03483,1.1816581-.0593331,1.8619609-.0988984-.3728219-1.4532619-.7765143-2.8357695-1.0794106-4.2400135-1.4786817-6.8550689-2.3818798-13.7623324-2.0631524-20.8052556.2801873-6.1912828.3442617-12.3928412.6609012-18.5818245.2434658-4.7586836,1.256261-9.4126274,2.4362975-14.0236616.0727754-.2843523.1471787-.5682832.246339-.9508913-1.4377416-.0676749-2.7923069-.2312138-4.1379479-.1763414-4.2870511.1748172-8.0477217-1.2042431-11.4686428-3.6839589-.0391619-.0283861-.10122-.0251828-.3572004-.0826967-.4372966,2.9729315-.9897483,5.8721716-1.2697983,8.7974924ZM30.9362014,152.5166236c-2.5005965-1.5073779-5.034056-2.9605116-7.5644542-4.4178721-.4591173-.2644371-.9252243-.5153393-1.5197442-.2354333-.1921255.0904549-.5378975-.1188309-.8035917-.2174047-.4060794-.1506493-.8164956-.4892528-1.2026505-.4592885-1.6024034.1243505-3.1999051.3343615-4.7889388.5793465-.1936451.0298622-.4189245.4431983-.4708098.7097148-.3901791,2.004441-.7256238,4.0194986-1.1129833,6.0245173-.1078659.5584255-.3324927,1.0942982-.5315395,1.7298517.290948.1478447.5885545.3226411.903779.4557351,4.9223915,2.0785375,10.0690327,3.3479743,15.3741453,3.7539201,6.6120178.5059483,13.2440288.7511835,19.8677987,1.1014737.3389529.0179383.6816127-.034791,1.0306682-.0550915-.0111865-.1923461.0057569-.329736-.0234224-.3403556-.9478231-.3449199-1.1543235-1.2419028-1.4786131-2.025415-.6882728-1.6629681-1.3411337-3.3408335-1.991733-5.019101-.4696145-1.2113925-1.272161-1.9277752-2.6296594-1.9609874-.3987262-.0097418-.807235-.138062-1.1880486-.2761103-2.3075098-.8365549-4.4522978-.3784878-6.0940746,1.463366-1.250975,1.4034478-2.3813089,2.914086-3.5770087,4.3674338-.2417505.2938239-.5202478.5627064-.80932.8110483-.4437745.3812266-.946777.7738249-1.5266554.3343079-.5371277-.407148-.3919035-1.0069709-.1162114-1.4922679.5108206-.8991858,1.0910927-1.7590572,1.6474289-2.632098.1157301-.1816183.2531296-.3494042.4830109-.6636233-.6615168-.549146-1.2133906-1.135405-1.8773725-1.5356665Zm88.6243628-50.6886956c1.1336057,7.1893464-.5911609,13.910842-3.2031938,20.5756358.362216-.1060795.7155464-.2029634,1.064783-.3128579,3.7996408-1.1957557,7.6136017-2.3486198,11.3925216-3.6066875,2.4837069-.8268719,4.9138896-1.8138031,7.3746736-2.7108663.4659981-.16987.7393026-.3200549.5651279-.9241714-1.31551-4.5629292-2.5972818-9.1355873-3.8929218-13.7042519-.0423718-.1494036-.1206688-.2886004-.2179082-.5160484-4.218497,1.9020481-8.6429576,1.2252307-13.0830823,1.1992476Zm3.7739508-80.1485613c2.7957787.3345053,5.2523921,1.5911944,7.6948097,2.8913913,1.3443954.7156762,2.7322749,1.3496775,4.2093804,2.073858.1614989-.8222902.2780185-1.5374362.4444816-2.2407676.5530927-2.3369784,1.1101678-4.6732037,1.6923161-7.0030679.5564662-2.2271057.6382256-4.4744051.4093553-6.7485696-.1451013-1.4419089-.7083955-2.6946128-1.9311614-3.4542831-1.919719-1.1926709-3.9207134-2.2564481-5.9107427-3.3314021-.2265301-.1223618-.6445948-.0508853-.9039782.074847-1.4935189.7240001-2.5784882,1.90787-3.4859617,3.2632385-.8809925,1.3158006-1.7805443,2.6226558-2.5863869,3.9840806-.553299.9347402-1.0840653,1.9171107-1.4079587,2.9464571-.7588603,2.4115344-1.387277,4.8641136-2.0506487,7.2362301,1.244126.0971822,2.541105.1541954,3.8264953.3079876Zm-12.1819648,80.9410432c.4860575,1.0836625.1018013,1.55518-1.0713338,1.4290079-2.9346423-.3156159-3.0324287-.3658495-4.3673132,2.2324677-1.2064926,2.3483666-2.3705501,4.7567602-3.1846163,7.2586446-.9745387,2.9951221-.6566351,6.0411099.7236017,8.9213196.1404399.2930526.3339507.564158.5264986.8281839,1.3106628,1.7973091,2.209632,1.9463312,4.1643682.8920259,5.2388334-2.8256052,7.4022166-7.4240009,7.5876879-13.1343737.0519128-1.5983938-.0584958-3.2167908-.2690625-4.8028254-.1072137-.8075116-.552701-1.5887154-.9347474-2.3360778-.4102045-.8024573-.6903872-1.5885247-.5032959-2.508739.0376003-.1849113-.1279616-.552537-.285823-.6135476-1.3420273-.5188386-2.703922-.9862332-4.0440364-1.4633928.5643418,1.1125317,1.158576,2.1836694,1.658072,3.2973067Zm-45.7955985,50.3392669c-.3567711-1.1435045-.9630001-1.7521274-2.1056879-1.9682206-2.2405056-.4236919-4.5028018-.6430782-6.7444931-.2245428-1.0929378.2040569-2.1370923.7558134-3.1545858,1.2504193-.8124364.3949106-1.1493668,1.1485709-1.0106737,2.0551897.2884702,1.8856105.6050503,3.7669004.8985082,5.6517699.2625192,1.6861559.2556024,1.6678578,2.0018059,1.6632607,4.0638146-.0106777,8.1276662-.0000415,12.1915032-.0010296.2421592-.0000633.4842958-.026362.8359282-.0468124-1.6526969-2.6203871-2.0407209-5.5864029-2.9123051-8.3800342Zm-14.5374744-2.3694552c1.2938134-1.3065046,2.9413384-2.0256177,4.7181454-2.6464614-.9073702-1.7571266-1.7661549-3.4556562-2.6598381-5.1356305-.4399685-.8270932-1.2974575-.8863286-2.0775473-.885045-2.7294933.0044799-5.4588128.0763953-8.1883242.1160622-.6445282.009364-1.0824573.3146474-1.361782.878094-.0485064.0978462-.1042143.1928342-.1443294.2940106-.8825165,2.2257907-1.7633298,4.452264-2.6634317,6.7265199.3643069-.0644409.7515365-.1293431,1.1373212-.2018578,1.185171-.2227698,2.3273743-.0984066,3.44779.3578276.5003447.2037535,1.0269964.4004451,1.5576708.4612499,1.5260218.1748482,2.5707363.9895394,3.2615745,2.3054594.5033258.9587506.966448,1.9385799,1.4474639,2.9090205.2193914-1.8579535.0988398-3.7388085,1.5252868-5.1792494ZM116.460672,30.9685642c2.8263154.9290093,5.5737055,1.9023921,8.3647094,2.7284383,2.4766157.7330051,5.0485319.5173189,7.5693937.2994933,1.8626412-.1609518,3.3355108-2.4324336,2.9354949-4.2000911-.0434475-.1920232-.2793423-.4090647-.4765166-.4876167-4.0301594-1.6054323-8.0437992-3.2823075-12.4136995-3.7509241-1.8578028-.1992241-4.8232559.3425317-6.2621767,1.0732566,1.0583241,1.399191.3315899,2.9303063.2827947,4.3374437Zm-26.7986248,125.7044867c-.6528146,1.653114-1.2968767,3.2840621-1.9790056,5.0114276.8202687.1167897,1.4979679.156697,2.1446419.3196706.8105235.204254,1.5933287.5167504,2.3929576.7669959.2514388.0786782.5257492.1754882.7774276.1488651,6.8106189-.7202145,13.6448996-1.2636204,20.3654129-2.6701878.0768425-.0160841.1478292-.0601388.4520042-.1880271-8.2301465-.6380289-16.1789856-1.5460759-24.1534387-3.3887444Zm53.1512654-5.0985767c2.4917747-1.7082631,4.7342094-3.6869201,6.5240223-6.1369379.6322406-.8654493.5958995-1.76378-.0177716-2.66372-1.1327247-1.6611113-2.4423548-3.1232568-4.4109436-4.1562644-.4005549,4.4666093-.7700129,8.8322359-2.5629045,13.074482.3141791-.0766682.4058796-.0752468.4675973-.1175598Z" stroke-width="0"/>
      <path d="m23.688335,191.8392402c.0976721,1.2506922,1.1998449,2.7941826,2.2499235,4.3459139.3127116.4620902.8290488.2949849,1.0542267-.2693213.5320009-1.333172,1.0506198-2.6717391,1.5899285-4.0019488.5544874-1.3676714.3731201-2.6623816-.509874-3.4820487-.7498972-.6961244-1.8643305-.868563-2.8174396-.4358972-1.115171.5062095-1.7018092,1.6443311-1.5667652,3.843302Z" stroke-width="0"/>
      <path d="m40.415494,182.7409916c.575471-2.3433558,1.126237-4.5263116,1.6444866-6.716957.3637712-1.5376507.7335869-3.0775169.9893113-4.6346994.0694807-.4230255-.2650819-.9124065-.4141961-1.3713239-.4807212.1801867-1.0564203.2522818-1.4170928.5691067-.4102139.3603439-.7322176.9036838-.9125261,1.4292624-.9436945,2.7505641-1.4784379,5.583293-1.5008876,8.4995523-.0062022.8055993.2627687,1.510893.9623359,1.9716099.2271945.1496384.5170406.2040953.6485687.253449Z" stroke-width="0"/>
      <path d="m22.4922347,154.5138531c.3995923-.7287329.9044975-1.4232535,1.1567752-2.1998306.137459-.4231708-.0584834-1.0383279-.2935786-1.4616687-.108919-.1961627-.8301754-.3140106-.99333-.1634472-.3319928.3064481-.6656506.8248205-.6533342,1.2457846.0252176.8626692.2781609,1.7186884.4373607,2.5774437.1153825.0005753.230745.0011517.346107.0017181Z" stroke-width="0"/>
    </g>
  </g>
</svg>