<?xml version="1.0" encoding="UTF-8"?>
<svg id="b" data-name="Layer 2" xmlns="http://www.w3.org/2000/svg" width="136.528" height="94.872" viewBox="0 0 13.653 9.487">
  <g id="c" data-name="Layer 1">
    <path d="m11.968,4.175c-.045.124-.09.248-.135.372-.251.698-.511,1.42-.86,2.097-.187.36-.457.671-.825.947-.716.537-1.548.868-2.473.986-.952.122-1.936.248-2.912.331-.982.088-1.891-.23-2.734-.562-.81-.318-1.272-.93-1.456-1.924-.058-.316-.086-.644-.113-.959-.013-.149-.025-.299-.042-.447-.011-.108-.055-.196-.121-.24-.029-.02-.062-.029-.096-.029-.017,0-.034.002-.052.007-.055.016-.104.062-.131.125-.029.067-.026.143.007.206.158.305.17.628.182.939.003.085.006.17.012.254.045.624.263,1.228.646,1.796.171.252.43.4.705.558.063.037.127.073.189.11.914.551,1.953.79,3.172.738.533-.023,1.074-.086,1.598-.146.314-.036.639-.073.959-.102.788-.069,1.531-.302,2.207-.688.539-.309,1.296-.819,1.661-1.687.238-.567.469-1.162.687-1.768.094-.264.18-.536.262-.799.089-.285.182-.58.286-.866.131-.357.274-.717.412-1.064.136-.343.277-.698.407-1.051.12-.327.198-.639.233-.927.015-.117.013-.271-.078-.341-.078-.062-.216-.057-.398.018-.441.173-.804.293-1.14.377-.651.161-1.315.316-1.957.466-.443.103-.887.206-1.329.312-.519.124-1.038.252-1.556.38-.444.109-.889.22-1.333.327-.107.026-.241.049-.324-.004-.179-.111-.327-.079-.479.108-.145.183-.331.237-.511.29-.97.288-1.921.589-3.052.951-.141.045-.281.108-.442.183-.063.029-.131.061-.204.093.034.026.064.051.093.074.078.063.134.109.188.117.173.028.347.033.532.039.062.002.124.004.187.006.142-.249.387-.265.605-.277.099-.006.193-.012.279-.036.219-.062.439-.106.694-.157.113-.022.232-.046.359-.073l.109-.023-1.739,3.049-.045-.062c-.056-.075-.121-.148-.184-.219-.188-.211-.381-.429-.398-.769-.004-.077-.059-.162-.112-.244-.02-.03-.039-.061-.057-.09-.067-.12-.149-.14-.295-.065,0,.036,0,.072,0,.107-.002.091-.004.176.015.253.247,1.001.809,1.761,1.67,2.26.77.443,1.636.613,2.72.528.856-.065,1.711-.314,2.615-.761.579-.287,1.305-.704,1.784-1.392.187-.269.342-.567.492-.856.073-.139.145-.278.222-.416l.132-.238c.366-.657.732-1.314,1.102-1.971.055-.099.114-.194.174-.29.08-.128.162-.261.231-.396.063-.125.081-.213.054-.286-.024-.068-.09-.128-.195-.179,0,0,0,0-.001,0-.03.023-.072.057-.106.095-.604.663-1.029,1.442-1.398,2.187l-.017.033-.037-.007c-.736-.128-1.326-.485-1.951-.864-.245-.147-.497-.301-.762-.441l-.11-.058,5.624-1.606-.028.088c-.035.109-.068.222-.102.336-.078.262-.159.531-.259.796-.137.362-.284.727-.426,1.079-.179.444-.364.904-.531,1.361Zm-3.902-1.524c.239.192.511.354.775.511.062.037.123.073.185.11.341.207.764.42,1.322.436l.077.002-.033.069c-.044.094-.089.184-.132.271-.092.186-.179.361-.251.541-.222.548-.595,1.028-1.171,1.511-.02.017-.039.035-.059.054-.084.081-.196.188-.362.147-.115.22-.333.297-.528.365-.056.021-.111.04-.163.062-.941.413-1.844.617-2.739.617-.236,0-.472-.014-.708-.042-.729-.087-1.377-.396-1.93-.921l-.034-.033.031-.035c.717-.83,1.333-1.854,1.939-3.222l.019-.042.043.016c.031.011.061.021.092.033l.035.014-.003.037c-.001.022-.002.045-.003.067-.002.051-.005.104-.014.154-.051.271-.104.542-.157.813-.115.588-.233,1.197-.333,1.798-.042.256-.046.525.18.782-.038-.872.161-1.68.353-2.461.109-.443.222-.901.285-1.355l.004-.033.032-.009c.454-.117.852-.221,1.269-.329l.047-.012.013.047c.053.184.103.363.152.54.107.384.209.746.32,1.11.2.655.533,1.205.99,1.633.197.185.417.396.735.318l.004-.009c0-.02.002-.04.004-.062.002-.037.006-.096.004-.123-.511-.19-.749-.637-.931-1.04-.251-.553-.489-1.109-.741-1.698-.108-.253-.219-.512-.334-.777l-.026-.061.065-.009c.039-.005.073-.008.103-.01.047-.004.082-.007.105-.019.496-.245.962-.168,1.469.24Z" fill="#728e0c" stroke-width="0"/>
  </g>
</svg>