<?xml version="1.0" encoding="UTF-8"?>
<svg id="Layer_2" data-name="Layer 2" xmlns="http://www.w3.org/2000/svg" viewBox="0 0 154.3465566 272.0408725">
  <g id="Layer_1-2" data-name="Layer 1">
    <g>
      <path d="m153.880477,205.8045444c-1.0292969-2.3486328-2.4121094-4.0185547-4.2304688-5.1044922-3.6582031-2.1904297-7.5039062-1.7333984-11.1123047-.9169922-.9169922.2070312-1.5585938.8935547-1.7177734,1.8369141-.0869141.5175781-.0175781.8886719.2128906,1.1347656.2255859.2421875.5761719.3369141,1.0859375.2851562,2.4453125-.2470703,4.921875-.0175781,7.1083984.1845703,1.0644531.0986328,2.1904297.9619141,2.8681641,2.2001953.6757812,1.234375.7695312,2.5722656.2509766,3.5791016-.34375.6650391-.8134766,1.3232422-1.3974609,1.9570312-2.1220703,2.3056641-4.9677734,3.5976562-7.7011719,4.7226562-4.6689453,1.9208984-9.7275391,3.7568359-15.0869141,4.1699219-3.2138672.2490234-5.6074219-.0449219-7.7548828-.9482422-1.2900391-.5429688-1.6650391-1.3359375-1.2167969-2.5703125.359375-.9902344.8818359-1.9775391,1.5107422-2.8544922,2.5136719-3.5048828,6.25-5.3671875,9.2236328-6.5986328.578125-.2392578,1.1640625-.4570312,1.75-.6757812.5712891-.2119141,1.1425781-.4248047,1.7050781-.65625.7216797-.2958984,1.1777344-.7070312,1.3544922-1.2207031.1806641-.5234375.0683594-1.1484375-.3349609-1.8564453-.0820312-.1425781-.1113281-.3388672-.1425781-.546875l-.0234375-.1533203c-.1640625-.9716797-.3203125-1.9453125-.4775391-2.9189453-.3339844-2.0742188-.6787109-4.21875-1.0869141-6.3173828-.4501953-2.3212891-1.0292969-4.6533203-1.5888672-6.9091797l-.1533203-.6181641c-.40625-1.6396484-.8085938-3.28125-1.2109375-4.9228516-1.2021484-4.9082031-2.4462891-9.984375-3.7880859-14.9462891-1.2695312-4.6982422-2.6894531-9.4384766-4.0625-14.0234375-.4335938-1.4482422-.8681641-2.8955078-1.2978516-4.3447266-1.6005859-5.3955078-3.8398438-10.390625-6.6552734-14.8457031-.0205078-.0322266-.0390625-.0673828-.0566406-.1054688,4.5439453,1.0439453,8.7626953.5107422,12.8691406-1.6201172l-.0878906.4873047c-.0751953.4140625-.1572266.8271484-.2382812,1.2392578-.1757812.8867188-.3574219,1.8027344-.4648438,2.71875-1.1455078,9.8339844-1.1572266,17.8759766-.0361328,25.3085938,1.1337891,7.5166016,2.7119141,14.8583984,4.6914062,21.8212891.7421875,2.6103516,1.5771484,5.2392578,2.3857422,7.78125.6630859,2.0869141,1.3486328,4.2441406,1.9785156,6.3779297.4326172,1.4677734.7832031,2.9912109,1.1230469,4.4638672.2255859.9814453.4521484,1.9638672.703125,2.9384766.2255859.8789062.5419922,1.8212891.9931641,2.9638672.3193359.8056641.9736328,1.1591797,1.7509766.9609375.7167969-.1865234,1.0976562-.7529297,1.0722656-1.5947266-.0117188-.4306641-.0410156-.9951172-.1689453-1.5507812-.4902344-2.1259766-.9892578-4.25-1.4882812-6.3740234-.3144531-1.3339844-.6279297-2.6689453-.9394531-4.0029297-.3789062-1.6289062-.7539062-3.2587891-1.1289062-4.8886719-.7744141-3.3730469-1.5761719-6.8613281-2.4121094-10.2822266-.3505859-1.4365234-.7646484-2.8808594-1.1650391-4.2773438-.4257812-1.4863281-.8662109-3.0224609-1.2294922-4.5478516-1.640625-6.8876953-2.6230469-13.0693359-3.0039062-18.8994141-.4042969-6.2050781-.1162109-12.4970703.8564453-18.7001953.0820312-.5185547.2246094-.7128906.3017578-.7822266,2.1269531-1.8994141,3.9052734-4.1972656,5.4365234-7.0253906,3.4707031-6.4121094,4.6845703-12.9697266,3.609375-19.4921875-.6650391-4.0322266-1.5449219-8.0966797-2.3955078-12.0263672l-.2382812-1.1005859c-1.0908203-5.046875-2.6826172-10.1806641-4.8662109-15.6933594-.2314453-.5820312-.46875-1.1621094-.7070312-1.7412109-1.0292969-2.5087891-2.0947266-5.1025391-2.5185547-7.8525391-.2441406-1.578125-.5419922-3.4072266-.9960938-5.1464844-2.265625-8.6748047-4.9941406-16.3955078-8.3427734-23.6044922-.1582031-.3417969-.3085938-.6894531-.4580078-1.0380859-.6064453-1.4101562-1.234375-2.8681641-2.4951172-3.9560547-.0292969-.0332031-.0585938-.1660156-.0820312-.2705078-.2353516-1.0732422-.9101562-1.8369141-1.8994141-2.1494141l-.0654297-.0205078c-1.0654297-.3369141-2.1640625-.6796875-3.2578125-.6210938l-.8134766.0478516c-3.0126953.1767578-6.1279297.3583984-9.1289062.9238281-2.7929688.5263672-5.5732422,1.3339844-8.2626953,2.1162109-.8066406.234375-1.6142578.46875-2.421875.6962891-1.6982422.4775391-3.3037109,1.4101562-4.7724609,2.7714844-.5058594.4697266-.9423828,1.1396484-1.1972656,1.8398438-.2470703.6777344-.3867188,1.4765625-.4121094,2.3759766-.0195312.6396484-.0429688,1.2792969-.0673828,1.9189453-.0800781,2.1513672-.1640625,4.3769531-.0410156,6.5595703.1152344,2.0556641.2451172,4.1113281.375,6.1660156.2421875,3.8300781.4921875,7.7900391.6396484,11.6884766.1123047,2.9960938.5791016,6.0888672,1.4257812,9.4560547l.3564453,1.40625c.4980469,1.9580078,1.0136719,3.9824219,1.4238281,5.9902344l.2402344,1.1962891c.4931641,2.484375,1.0039062,5.0527344,2.0195312,7.4658203.3339844.7939453.5703125,1.625.8017578,2.4785156.4345703,1.5996094.8564453,3.2021484,1.2792969,4.8046875.8154297,3.0976562,1.6591797,6.2998047,2.5791016,9.4248047,1.1767578,3.9951172,2.5322266,8.2333984,4.4785156,12.1601562,1.4785156,2.9863281,3.3828125,6.3935547,6.2919922,9.0166016,1.0693359.9638672,2.3486328,1.7089844,3.34375,2.2509766.5185547.2822266.9394531.5371094,1.2382812,1.0263672,3.7636719,6.1630859,6.4160156,12.7949219,8.3066406,17.8837891,2.0341797,5.4775391,3.3242188,11.2763672,4.5722656,16.8837891,2.5029297,11.2402344,5.0097656,22.4794922,7.5322266,33.7148438.0957031.4277344.0478516.5214844-.3652344.7167969-.4462891.2119141-.8945312.4208984-1.3417969.6308594-1.9453125.9091797-3.9560547,1.8505859-5.8398438,2.9462891-3.3330078,1.9365234-5.7421875,4.2597656-7.3642578,7.1015625-1.0371094,1.8183594-1.4052734,3.4335938-1.1582031,5.0849609.3134766,2.0947266,1.4814453,3.7304688,3.5712891,5,2.9667969,1.8037109,6.2539062,2.6855469,10.0253906,2.6855469.2734375,0,.5498047-.0048828.828125-.0146484,4.0908203-.1347656,7.8330078-1.3076172,10.9541016-2.4375,3.8603516-1.3974609,7.9365234-3.0234375,11.59375-5.4384766,3.1943359-2.1083984,5.2646484-4.6865234,6.3320312-7.8818359.5380859-1.6132812.5107422-3.1191406-.0820312-4.4755859ZM116.0943442,59.579935c-.9257812-.359375-1.8837891-.7314453-2.7177734-1.2480469-3.5214844-2.1845703-7.5273438-3.2587891-12.6054688-3.3808594-.7304688-.0175781-1.4609375-.03125-2.1914062-.0449219-1.5087891-.0283203-3.0683594-.0576172-4.5996094-.1230469-.1835938-.0078125-.3662109-.0117188-.5488281-.0117188-2.7568359,0-5.2988281.8964844-7.5615234,2.6699219-.125.0996094-.2558594.1923828-.4287109.3154297l.2919922-15.0488281c.1484375-.0068359.2851562-.0126953.4179688-.0009766,2.9853516.2822266,6.1201172-.0830078,9.5732422-1.1064453,1.4228516-.421875,2.8808594-.8164062,4.2910156-1.1992188,1.1445312-.3095703,2.2880859-.6191406,3.4267578-.9462891,2.1113281-.6054688,4.1582031-1.2509766,5.9912109-2.4667969.03125-.0214844.0761719-.0380859.1298828-.0556641l7.4638672,23.015625c-.3085938-.1269531-.6201172-.2480469-.9326172-.3681641Zm-8.9746094-25.0722656l-.6064453.2548828c-.9384766.3964844-1.9091797.8076172-2.8916016,1.0693359-.7216797.1923828-1.4433594.3886719-2.1650391.5849609-2.9707031.8076172-6.0429688,1.6435547-9.1064453,2.1904297-1.6865234.3007812-3.4853516.2255859-5.2246094.1503906-.6015625-.0253906-1.203125-.0507812-1.7998047-.0615234-.1201172-.0029297-.3251953-.1845703-.5234375-.359375-.0537109-.0478516-.1083984-.0966797-.1660156-.1455078l.5351562-.3134766c1.6992188-.9990234,3.3046875-1.9414062,5.0839844-2.4511719,6.1894531-1.7714844,11.8076172-2.5820312,17.2099609-2.5068359.4248047.0078125.8681641.0664062,1.375.1855469-.5361328.6894531-1.0888672,1.1396484-1.7207031,1.4023438Zm-21.3623047,27.5390625c2.3554688-2.1972656,4.7792969-3.3251953,7.4101562-3.4472656l1.3417969-.0634766c2.2783203-.1103516,4.6220703-.2197266,6.9492188-.2119141,2.7646484.0146484,5.5693359.7666016,8.3378906,2.2353516.9589844.5097656,2.0966797,1.0839844,3.2675781,1.4785156,1.3740234.4638672,2.9492188,1.1044922,4.2070312,2.3447266.4775391.4697266,1.0039062.8876953,1.5136719,1.2919922.1572266.1240234.3134766.2480469.4667969.3720703-.1738281.2119141-.3408203.4208984-.5039062.6259766-.4921875.6181641-.9580078,1.2021484-1.4873047,1.703125-.34375.3242188-.9306641.5712891-1.4599609.6142578-.9716797.0791016-1.9667969.1162109-2.9296875.1513672-.9902344.0361328-2.0136719.0742188-3.0185547.1572266-.9521484.0800781-1.9101562.2216797-2.8359375.359375-.7246094.1074219-1.4492188.2148438-2.1767578.2939453-1.6347656.1777344-3.3242188.3623047-4.9980469.3955078-.03125,0-.0615234.0009766-.0917969.0009766-1.1181641,0-2.2607422-.4199219-3.3994141-1.2470703l-.5917969-.4257812c-1.0126953-.7255859-2.0605469-1.4765625-2.8876953-2.3808594-1.8056641-1.9716797-4.0732422-3.1914062-7.1357422-3.8388672-.0644531-.0136719-.1357422-.0283203-.3242188-.1279297.1201172-.0888672.2373047-.1796875.3466797-.28125Zm3.5244141,5.9130859c1.1533203,1.0253906,2.4365234,2.0800781,4.0371094,3.3183594,2.6132812,2.0214844,5.7373047,2.7363281,9.2822266,2.1269531.9306641-.1601562,1.9042969-.3544922,2.9765625-.5966797,2.2294922-.5029297,4.6103516-.9423828,7.0488281-.3554688.9628906.2304688,2.0126953.1298828,2.9384766.0390625,1.3769531-.1337891,2.6923828-.3417969,3.9111328-.6171875.5742188-.1298828,1.1191406-.3632812,1.6962891-.6113281.1933594-.0830078.3925781-.1679688.5996094-.2529297.0742188.1972656.1533203.3984375.234375.6044922.2607422.6640625.5302734,1.3505859.7216797,2.0625.4628906,1.7265625.9394531,3.4501953,1.4150391,5.1748047,1.2861328,4.6572266,2.6152344,9.4726562,3.6640625,14.2617188,1.3056641,5.9716797,2.1455078,12.0449219,2.7949219,17.1972656.4482422,3.5664062-.2900391,7.2548828-2.1943359,10.9609375-.6435547,1.2558594-1.2792969,2.5175781-1.9042969,3.7832031-.4667969.9472656-1.2226562,1.4492188-2.3769531,1.5800781-.9511719.1083984-1.9248047.2636719-2.8935547.4609375-.7314453.1494141-1.4599609.3144531-2.1884766.4804688-1.0947266.2480469-2.2265625.5058594-3.3466797.6972656-2.0615234.3535156-4.1679688.0566406-6.1474609-.2802734-.3046875-.0517578-.5986328-.15625-.8251953-.2958984-.3017578-.1855469-.6845703-.3720703-1.1103516-.3720703-.3369141,0-.7021484.1171875-1.0751953.4462891-.1152344-.1142578-.2285156-.2246094-.3398438-.3330078-.3427734-.3320312-.6660156-.6455078-.9433594-.9853516-.5517578-.6757812-1.1083984-1.3466797-1.6650391-2.0175781-1.5537109-1.8740234-3.1601562-3.8115234-4.6201172-5.8007812-2.7431641-3.7431641-4.4306641-8.1181641-5.9228516-12.2783203-1.7646484-4.9140625-2.9150391-9.0615234-3.6201172-13.0537109-.2275391-1.2900391-.4052734-2.6132812-.5761719-3.8935547-.1396484-1.0439453-.2802734-2.0869141-.4472656-3.1259766-.2333984-1.4511719-.4902344-2.8994141-.7470703-4.3476562-.2529297-1.4296875-.5058594-2.859375-.7373047-4.2929688-.5175781-3.203125-.9414062-6.0605469-1.2978516-8.7353516-.1005859-.7548828-.1220703-1.5273438-.1445312-2.34375-.0068359-.2685547-.0146484-.5410156-.0244141-.8193359,1.4736328.5029297,2.6982422,1.2128906,3.828125,2.2148438Z" stroke-width="0"/>
      <path d="m79.8384848,84.2645054c-3.2695312-1.5322266-6.6513672-3.1162109-10.1152344-4.5996094-2.5947266-1.1103516-5.5126953-1.6357422-8.6835938-1.5244141l-.2148438.0058594c-1.8447266.0566406-3.7519531.1142578-5.5068359.9912109-1.4492188.7236328-2.1416016,1.7421875-2.1162109,3.1152344.0039062.2011719-.1875.4892578-.2509766.5839844-.1972656.2988281-.4072266.5888672-.6171875.8798828-.3173828.4394531-.6464844.8945312-.9277344,1.3730469-.7480469,1.2705078-1.4794922,2.5507812-2.2119141,3.8310547-1.2099609,2.1171875-2.4619141,4.3076172-3.7685547,6.4121094-3.4384766,5.5410156-6.3642578,11.7373047-8.9462891,18.9443359-1.59375,4.453125-3.4052734,8.9160156-5.15625,13.2314453l-.6513672,1.6064453c-2.5615234,6.328125-4.0888672,11.6933594-4.8046875,16.8828125-.5947266,4.3046875-1.3144531,8.640625-2.0039062,12.6845703-.8007812,4.7060547-.4316406,9.1875,1.0976562,13.3193359,1.6943359,4.5771484,4.0185547,8.5566406,6.9101562,11.8291016,1.5097656,1.7089844,2.0136719,3.7802734,2.3085938,5.5810547.0400391.2402344.0234375.3378906-.3183594.4912109-.4316406.1933594-.8632812.6455078-1.0742188,1.1259766-.2734375.625-.3935547,1.3320312-.5,1.9560547-.2685547,1.5771484-.5146484,3.1601562-.7607422,4.7421875-.5039062,3.2421875-1.0253906,6.5947266-1.7421875,9.8427734-1.4570312,6.5976562-3.1679688,13.2568359-4.8232422,19.6972656l-.4248047,1.6542969c-1.3203125,5.1455078-2.7910156,10.5576172-4.4951172,16.5429688-.0917969.3232422-.1875.6445312-.2832031.9648438-.5107422,1.7177734-1.0390625,3.4892578-.9316406,5.4306641l-.4501953-.0742188c-.6083984-.0986328-1.1972656-.1953125-1.7851562-.2949219-4.4628906-.7539062-8.0878906-.4052734-11.4101562,1.1015625-1.5664062.7109375-3.3212891,1.6269531-4.3261719,3.5136719-1.6738281,3.1425781-.8330078,6.9707031,2.0449219,9.3076172,3.1005859,2.5185547,6.7148438,4.2587891,11.0498047,5.3212891,3.5644531.8720703,6.9785156,1.3056641,10.3310547,1.3056641,1.5986328,0,3.1826172-.0986328,4.7626953-.2958984,2.6328125-.3271484,5.7148438-.8408203,8.6152344-2.1679688,2.0986328-.9589844,3.4765625-2.3828125,3.9853516-4.1152344.4892578-1.6660156.1318359-3.5048828-1.0322266-5.3193359-2.5556641-3.9804688-6.2373047-6.6308594-10.9423828-7.8769531-1.7958984-.4736328-3.0400391-.1308594-3.9892578,1.1494141.8935547-2.9863281,1.8154297-6.1279297,2.796875-9.5302734.6005859-2.0839844,1.1894531-4.1708984,1.7792969-6.2568359.8212891-2.9072266,1.6708984-5.9130859,2.5371094-8.8603516l.7988281-2.7324219c1.2294922-4.2167969,2.5009766-8.5771484,3.9257812-12.8046875,1.65625-4.9121094,3.5693359-10.140625,6.2021484-16.9521484,1.4306641-3.6972656,3.7978516-6.6357422,7.0371094-8.734375l.2978516-.1923828c2.7099609-1.7558594,5.5117188-3.5712891,8.1855469-5.4785156,1.0292969-.7333984,1.9072266-1.6914062,2.7568359-2.6171875l.359375-.3916016c.4970703-.5371094.9599609-1.1162109,1.4072266-1.6757812.3896484-.4853516.7919922-.9882812,1.2109375-1.4560547,1.3525391-1.5117188,2.7070312-3.1806641,3.4560547-5.1367188l.3916016-1.0234375c1.4638672-3.8173828,2.9775391-7.765625,4.0927734-11.7597656,1.7451172-6.2519531,3.1005859-13.1875,4.2626953-21.8261719.7363281-5.4716797,1.5732422-10.9003906,2.4365234-16.4443359.3183594-2.0419922.6640625-4.0800781,1.0107422-6.1191406.4023438-2.3681641.8183594-4.8173828,1.1806641-7.234375.4453125-2.9619141.8222656-5.9824219,1.1855469-8.9042969.1191406-.9560547.2382812-1.9121094.359375-2.8681641.2109375-1.6611328.4101562-3.2851562.5361328-4.8925781.0380859-.4960938-.0888672-1.0898438-.3417969-1.5878906-.8515625-1.6826172-2.0986328-2.9179688-3.7060547-3.6708984Zm-27.5849609,28.2304688c3.6289062.53125,7.4912109.3994141,11.8017578-.4013672,2.9863281-.5556641,5.3769531-.4101562,7.5234375.4521484,1.8300781.7373047,2.9492188,1.9267578,3.4208984,3.6367188.0214844.0771484-.0273438.2744141-.1630859.5029297-.1044922.1757812-.234375.3417969-.3632812.5078125-.2382812.3066406-.484375.6230469-.59375,1.0019531-.3730469,1.2910156-1.3066406,1.7958984-2.6923828,2.1933594-1.9072266.5449219-3.9755859.6201172-6.3173828.2324219-2.1943359-.3623047-4.375-.5439453-6.5791016-.5439453-1.8134766,0-3.6425781.1230469-5.5087891.3681641-3.7675781.4951172-6.78125-.3037109-9.1962891-2.4423828-.7001953-.6191406-1.484375-1.1132812-2.3154297-1.6357422-.3046875-.1914062-.6132812-.3857422-.9228516-.5908203.7382812-.9677734,1.8369141-1.7568359,3.3476562-2.40625,2.4873047-1.0683594,5.2871094-1.3544922,8.5585938-.875Zm7.6708984-3.1787109c-1.9980469.2255859-4.1152344.1748047-6.4755859-.15625-2.7587891-.3847656-5.3671875-.2939453-7.7558594.2734375-.7998047.1894531-1.5800781.4785156-2.4052734.7841797-.2099609.0771484-.4238281.1572266-.6435547.2363281,4.2802734-8.6982422,8.1396484-16.0214844,12.1044922-22.9707031,2.5634766,2.5683594,5.7783203,3.5859375,8.890625,4.5703125l.9873047.3144531c1.8457031.5957031,3.7607422,1.0683594,5.6132812,1.5263672l1.0429688.2578125c2.9707031.7431641,5.8173828.5341797,8.4560547-.6113281.0322266-.0146484.078125-.0263672.1464844-.0410156l-2.2431641,19.1240234c-2.8066406-3.1035156-6.4746094-3.6396484-9.3964844-3.75-.4511719-.0175781-.9033203-.0253906-1.3544922-.0253906-2.4462891,0-4.8652344.2314453-6.9667969.4677734Zm19.5351562-19.265625c-.6054688.5234375-1.3173828.8701172-1.9042969.9277344-1.2978516.1230469-2.4150391.0556641-3.3300781-.2099609-4.3300781-1.2519531-8.3134766-2.4960938-12.1777344-3.8027344-1.1962891-.4052734-2.3691406-.9716797-3.5029297-1.5195312-.5205078-.2519531-1.0400391-.5029297-1.5644531-.7402344-.4394531-.2001953-.5488281-.4042969-.4345703-.8115234.0683594-.2470703.0283203-.4980469-.0175781-.7890625-.0078125-.0527344-.0166016-.1064453-.0253906-.1630859.4511719-.0078125.8994141-.0136719,1.3457031-.0195312,1.1835938-.015625,2.4072266-.03125,3.6044922-.0888672,5.0195312-.2324219,9.6787109.6328125,13.8486328,2.5957031,1.3515625.6357422,2.7304688,1.4541016,4.0976562,2.4316406.4326172.3085938.6699219.6669922.6865234,1.0361328.0185547.3837891-.1982422.7832031-.6259766,1.1533203ZM25.9888754,255.6375522c1.2753906-.3105469,2.3691406.1835938,3.2705078.703125.7910156.4570312,1.5820312.9511719,2.3466797,1.4287109.8330078.5195312,1.6943359,1.0576172,2.5625,1.5527344,1.265625.7216797,2.3388672,1.7802734,3.3769531,3.3310547.8037109,1.2011719.6757812,2.0244141-.4560547,2.9384766-1.4140625,1.1416016-3.0615234,1.8271484-4.8964844,2.0361328-6.3076172.7216797-11.8486328.1572266-16.9384766-1.7167969-1.7919922-.6591797-3.7099609-1.3867188-5.59375-2.2412109-1.4248047-.6474609-3.0625-1.4199219-4.4755859-2.3994141-.9785156-.6787109-1.5244141-1.6689453-1.4990234-2.7177734.0273438-1.0849609.6464844-2.0839844,1.7011719-2.7402344.3115234-.1953125.6601562-.3720703,1.0351562-.5263672,1.8408203-.7617188,3.7207031-1.1435547,5.6171875-1.1435547,1.1298828,0,2.265625.1357422,3.4023438.40625,1.1210938.2675781,2.2275391.4804688,3.2880859.6328125,1.0888672.1533203,1.703125-.2695312,1.9853516-1.4267578.015625-.0615234.0429688-.1757812.0625-.2011719,1.1640625-.9003906,1.5712891-2.2304688,1.8613281-3.40625.2705078-1.0996094.5146484-2.2070312.7587891-3.3144531.3261719-1.4746094.6621094-3,1.0595703-4.4794922.5107422-1.8994141,1.0712891-3.8212891,1.6123047-5.6806641.7138672-2.4482422,1.4511719-4.9794922,2.0859375-7.4951172,1.2724609-5.0439453,2.4892578-10.1914062,3.6660156-15.1689453.5195312-2.1972656,1.0390625-4.3955078,1.5644531-6.5908203,1.2304688-5.1435547,1.9121094-9.3505859,2.1445312-13.2382812.0507812-.8378906.0136719-1.6884766-.0205078-2.5107422-.0175781-.3955078-.0341797-.7910156-.0419922-1.1865234-.0019531-.1025391.0078125-.2080078.0302734-.3066406.4570312-2.1357422.1630859-4.2861328-.9248047-6.7675781-.1669922-.3789062-.3603516-.7314453-.5654297-1.1025391.1337891.0439453.2675781.0869141.3994141.1298828.7373047.2402344,1.4326172.4667969,2.1582031.6347656,3.3691406.7841797,6.7568359.640625,9.3310547.4306641.3388672-.0283203.7236328-.0761719.9980469-.2851562.3613281-.2744141.7880859-.6865234.7744141-1.0927734-.0146484-.4414062-.4111328-1.0185547-.8144531-1.1875-.65625-.2773438-1.4111328-.3505859-1.921875-.3808594-2.0986328-.1240234-4.1835938-.2060547-6.1240234-.2763672-1.8525391-.0683594-3.5078125-.6347656-4.921875-1.6855469-.6005859-.4472656-1.3271484-.8427734-2.2080078-.4882812-.0166016-.0263672-.03125-.0507812-.0439453-.0761719-2.8867188-5.8417969-4.1660156-10.5761719-4.1484375-15.3515625.0029297-.7587891-.0175781-1.5195312-.0380859-2.2792969-.0576172-2.1650391-.1181641-4.4033203.3945312-6.5478516l.2792969-1.171875c.9296875-3.9042969,1.890625-7.9423828,3.0830078-11.8330078.8779297-2.8671875,1.9443359-5.7333984,2.9755859-8.5039062.4804688-1.2900391.9609375-2.5800781,1.4248047-3.875l.296875-.8291016c1.1005859-3.0693359,2.2011719-6.1376953,3.2744141-9.2167969.1015625-.2880859.1943359-.3603516.2412109-.3769531.0732422-.0302734.2041016.0117188.3759766.1103516.3154297.1826172.6728516.3896484.9941406.6279297.4697266.3496094.9335938.7060547,1.3974609,1.0625.4355469.3339844.8710938.6679688,1.3105469.9960938,2.0429688,1.5283203,4.2265625,2.2158203,6.4482422,2.0478516.8564453-.0654297,1.7197266-.1865234,2.5537109-.3037109.6474609-.0917969,1.2949219-.1826172,1.9443359-.2490234.484375-.0498047.9697266-.1074219,1.4541016-.1650391,1.4101562-.1689453,2.8583984-.3417969,4.2851562-.2939453,1.8154297.0634766,3.6611328.2402344,5.4453125.4111328,1.2636719.1210938,2.5693359.2460938,3.8574219.3300781,2.2470703.1435547,4.2578125-.2470703,5.9970703-1.1699219.2021484-.1074219.4101562-.203125.6572266-.3173828l-.1201172.5253906c-.1679688.7333984-.3242188,1.4160156-.4638672,2.1025391-.2304688,1.1376953-.4453125,2.2792969-.6591797,3.4208984-.4296875,2.2861328-.8740234,4.6503906-1.4472656,6.9365234-2.1611328,8.6074219-3.6777344,15.8271484-4.7744141,22.7226562-.09375.5869141-.1748047,1.1767578-.2548828,1.7675781-.203125,1.4785156-.4121094,3.0068359-.8251953,4.4404297-1.046875,3.6298828-2.359375,6.7373047-4.0107422,9.5009766-2.4638672,4.1230469-5.7226562,7.2832031-9.9628906,9.6621094-2.4140625,1.3535156-5.1337891,3.0927734-6.9921875,5.7333984-1.8144531,2.578125-3.3261719,5.2880859-4.5644531,7.5996094-.6865234,1.2792969-1.2851562,2.6279297-1.8632812,3.9326172-.4482422,1.0097656-.9111328,2.0537109-1.4101562,3.0546875-3.0117188,6.0410156-5.6601562,12.3847656-7.8710938,18.8544922-.8466797,2.4736328-1.5517578,5.0390625-2.2333984,7.5185547l-.1464844.5332031c-.2685547.9755859-.4892578,1.9775391-.7021484,2.9472656-.1513672.6884766-.3027344,1.3779297-.4726562,2.0615234-.6308594,2.5527344-1.2841797,5.0566406-1.7832031,6.953125-.5283203,2.0097656-1.0605469,4.0195312-1.5927734,6.0292969-.6796875,2.5664062-1.359375,5.1337891-2.03125,7.703125-.1992188.7636719-.4248047,1.6298828-.4570312,2.4970703-.0195312.5048828.2832031,1.25.7167969,1.4921875.2373047.1328125.5019531.1611328.7617188.0830078.0771484-.0236816.1533203-.0605469.2285156-.1025391-.015625.0192871-.0322266.0395508-.046875.0585938-.0888672.1142578-.1660156.2128906-.2490234.2841797-.0644531.0546875-.1289062.1142578-.1933594.1748047-.1738281.1601562-.3535156.3271484-.5107422.3583984-1.4716797.2890625-2.609375.4628906-3.6884766.5644531-.7099609.0644531-1.1933594-.0888672-1.5625-.5039062-.2382812-.2695312-.578125-.3544922-.8759766-.21875-.2822266.1328125-.4316406.4384766-.3789062.7783203.0800781.5234375.3818359,1.1005859.7666016,1.46875.6503906.6259766,1.6699219.9638672,2.8896484.9638672.0888672,0,.1787109-.0019531.2695312-.0048828,1.5830078-.0625,3.1884766-.6689453,3.9033203-1.4746094.5849609-.6601562.6689453-1.6054688.2226562-2.5292969l-.1318359-.2722168c.09375-.1101074.1806641-.2297363.25-.3664551.3759766-.7470703.8007812-1.6201172,1.0761719-2.53125.0410156-.1347656.0810547-.2695312.1220703-.4052734.2001953.2382812.7255859.2412109.9189453.1933594Z" stroke-width="0"/>
      <path d="m30.0171957,40.4910679c1.2529297,2.6767578,3.1542969,4.9111328,4.6699219,6.5585938l.4335938.4707031c.9794922,1.0625,1.9921875,2.1601562,2.8994141,3.3046875.859375,1.0869141.7744141,1.7539062-.3378906,2.6425781-.8359375.6689453-1.1230469,1.4765625-.8525391,2.4013672l.0361328.1240234c.1640625.5664062.3496094,1.2080078.7314453,1.6845703l.4277344.5390625c.9316406,1.1757812,1.8945312,2.390625,3.0351562,3.3818359,1.5576172,1.3535156,3.2666016,2.5751953,4.9199219,3.7568359l.9384766.671875c1.2548828.9033203,2.2294922,1.9853516,2.9804688,3.3076172.6494141,1.1455078,1.3427734,2.5292969,1.5615234,4.1162109.0947266.6767578,1.5537109,1.8789062,2.2558594,1.8789062.0175781,0,.0351562-.0009766.0517578-.0029297.3408203-.03125.7119141-.2070312.9462891-.4492188.2695312-.2783203.4833984-.6474609.5869141-1.0146484.4882812-1.7285156.9541016-3.4726562,1.3828125-5.1845703.1074219-.4248047.1328125-.8876953.0693359-1.3027344-.0683594-.4570312-.1328125-.9150391-.1962891-1.3730469-.2021484-1.4443359-.4101562-2.9384766-.7910156-4.3701172-.3154297-1.1884766-.9394531-2.296875-1.5419922-3.3691406l-.1982422-.3535156c-.4501953-.8095703-1.2578125-1.2939453-2.1591797-1.296875-.5791016-.0029297-.9082031-.2558594-1.1367188-.875-.1767578-.4755859-.3203125-.9746094-.4267578-1.4833984-.1259766-.5986328-.2402344-1.2001953-.3554688-1.8017578-.1884766-.9921875-.3837891-2.0185547-.6298828-3.0175781-.4248047-1.7236328-1.0771484-3.6816406-2.7011719-5.1416016-.7919922-.7148438-1.6777344-1.0400391-2.4306641-.8837891-.4453125.0888672-1.0664062.3925781-1.5087891,1.2890625-.0498047-.0458984-.0996094-.0917969-.1494141-.1367188-.2119141-.1914062-.4111328-.3730469-.5546875-.5800781-1.1074219-1.6025391-1.9306641-2.8378906-2.6689453-4.0058594-.4746094-.7490234-.9335938-1.5068359-1.3935547-2.2646484-.7001953-1.1572266-1.4248047-2.3525391-2.1933594-3.4951172-.71875-1.0654297-1.7841797-1.8007812-3.0830078-2.1269531-1.4248047-.3603516-2.6201172.1191406-3.2861328,1.3066406-.4199219.7480469-.6738281,1.5664062-.7158203,2.3056641-.0927734,1.6523438.5966797,3.1162109,1.2636719,4.53125l.1210938.2578125Zm9.8994141,9.8037109c-.9003906-1.4541016-2.0419922-2.9726562-3.5908203-4.7802734l-.4150391-.4833984c-1.6611328-1.9316406-3.3789062-3.9287109-4.4150391-6.3173828-.4033203-.9306641-.5976562-1.9970703-.7226562-2.8212891-.0791016-.5253906.1328125-1.1601562.6826172-1.3027344.0751953-.0195312.1611328-.0292969.2529297-.0292969.3681641,0,.8300781.1494141,1.0732422.3671875.9980469.8955078,1.8398438,1.8105469,2.5029297,2.7207031.8710938,1.1933594,1.71875,2.4375,2.5380859,3.640625.6669922.9804688,1.3349609,1.9599609,2.0214844,2.9257812.4306641.6054688.9912109,1.2177734,1.765625,1.9287109.7783203.7167969,1.4892578.7539062,2.3076172.125.484375-.3710938.7636719-.3251953,1.2451172.2021484.9042969.9892578,1.4785156,2.2392578,1.8056641,3.9345703.1054688.5449219.203125,1.0927734.3007812,1.6396484.1826172,1.0253906.3720703,2.0849609.6113281,3.1181641.1738281.7480469.4775391,1.5478516.9277344,2.4433594.4873047.9638672,1.3037109,1.5117188,2.4267578,1.6289062.2949219.0302734.6875.2675781.8242188.4970703,1.6113281,2.7089844,2.3222656,5.4384766,2.1142578,8.1123047-.0585938.7578125-.3740234,1.5117188-.7070312,2.3085938-.0820312.1972656-.1650391.3964844-.2451172.5976562-.0791016-.1621094-.1572266-.3222656-.2333984-.4794922-.3359375-.6953125-.6533203-1.3515625-1.0117188-1.9873047-1.1992188-2.1318359-2.9873047-3.8251953-5.4648438-5.1757812-2.1992188-1.1982422-4.3134766-2.4160156-6.0205078-4.1337891-.7246094-.7285156-1.4267578-1.5712891-2.0878906-2.5039062-.3066406-.4316406-.4287109-.7451172-.3828125-.9853516.0458984-.2460938.2783203-.4951172.7529297-.8066406,1.7177734-1.1279297,2.1455078-2.7666016,1.1435547-4.3837891Z" stroke-width="0"/>
      <path d="m68.5640707,44.9432163c.640625.703125,1.28125,1.4052734,1.9082031,2.1191406.15625.1777344.3613281.3007812.5605469.4082031.2880859.15625.5947266.234375.8935547.234375.2558594,0,.5068359-.0566406.7382812-.171875.4941406-.2451172.8291016-.7226562.9189453-1.3085938.0732422-.4794922.0791016-.9736328.0166016-1.4296875-.2587891-1.9091797-.5126953-3.6201172-.7773438-5.2333984-.1777344-1.0800781-.3623047-2.1972656-.6611328-3.2802734-.1962891-.7128906-.4882812-1.1484375-.9189453-1.3710938-.4160156-.2158203-.9453125-.2148438-1.6494141.0019531-.0410156-.1621094-.0830078-.3212891-.125-.4794922-.1367188-.5234375-.2666016-1.0185547-.34375-1.5195312-.3740234-2.421875-.0087891-4.8847656.3144531-7.0576172l.0751953-.5058594c.2529297-1.6982422.515625-3.4541016.6777344-5.1943359.1591797-1.6972656-.3554688-3.2363281-1.4873047-4.4482422-.3994141-.4277344-.8857422-.6162109-1.3300781-.5253906-.4150391.0878906-.7373047.40625-.9082031.8984375-.3925781,1.1328125-.6572266,2.3046875-.7851562,3.4814453-.0878906.8027344-.0947266,1.6210938-.1015625,2.4130859-.0048828.5693359-.0097656,1.1582031-.0449219,1.7314453-.0244141.3964844-.125.8007812-.2412109,1.2685547-.0214844.0839844-.0429688.1708984-.0644531.2597656-.0361328-.0429688-.0703125-.0849609-.1044922-.1259766-.265625-.3193359-.4794922-.5761719-.7099609-.8173828-.6875-.7216797-1.6455078-1.4912109-2.9433594-1.0498047-1.3457031.4560547-1.5898438,1.6513672-1.6533203,2.6708984-.0117188.1738281-.0224609.3476562-.0195312.5214844.0947266,5.0273438,1.5898438,9.5429688,4.4433594,13.4238281,1.3173828,1.7919922,2.8447266,3.4667969,4.3222656,5.0859375Zm-1.6816406-20.6416016c-.0058594-.3261719-.0126953-.6513672-.0039062-.9746094l.0302734-1.1318359c.0332031-1.3232422.0673828-2.6923828.15625-4.0322266.0214844-.3271484.1503906-.6611328.3007812-1.0478516.0332031-.0869141.0673828-.1757812.1015625-.2666016.6503906.6005859.8603516,1.28125.9833984,1.9335938.2294922,1.2089844.0019531,2.3662109-.2392578,3.5917969-.0859375.4375-.171875.875-.2363281,1.3154297-.4804688,3.2744141-.7988281,6.0126953-1.0039062,8.6162109-.0849609,1.0839844.2138672,2.2197266.5,3.1992188.4414062,1.5048828,1.1992188,1.9931641,2.7685547,1.75.7978516,2.2226562.9833984,4.5205078,1.1787109,6.9492188l.0419922.515625c-3.1679688-1.8896484-6.7578125-7.9287109-8.3720703-12.7080078-.9472656-2.8056641-1.2158203-5.1132812-.7587891-6.4277344l.0146484.0107422c.1875.1552734.3681641.3046875.5380859.4658203.1494141.1416016.2910156.2919922.4326172.4433594.2558594.2724609.5195312.5537109.8310547.7841797.5517578.4072266,1.1748047.5166016,1.7001953.3046875.5019531-.203125.8486328-.6796875.953125-1.3066406.1083984-.6572266.0957031-1.3320312.0830078-1.984375Z" stroke-width="0"/>
      <path d="m77.8414145,23.3074741c-.0839844.4570312-.0292969.7900391.1669922,1.0175781.2734375.3173828.7519531.3447266,1.0908203.3261719.0751953,0,.1923828.0263672.2958984.0556641.0576172.015625.1123047.03125.1630859.0419922l.1347656.0273438.0996094-.09375c.0673828-.0634766.1308594-.1298828.1943359-.1953125.1191406-.1230469.2314453-.2392578.3515625-.3193359.4238281-.2792969.8544922-.5507812,1.2841797-.8222656.7695312-.4863281,1.5664062-.9892578,2.3183594-1.5361328,1.2089844-.8798828,2.3486328-1.8105469,3.3857422-2.765625.6611328-.6074219.9326172-1.4511719.7451172-2.3134766-.1728516-.7988281-.6513672-1.4355469-1.3486328-1.7958984-.8076172-.4150391-1.828125-.4121094-2.8017578.0039062-3.3115234,1.4208984-5.3007812,4.1582031-6.0800781,8.3691406Zm8.6533203-5.7382812c-.0019531.3388672-.1816406.8486328-.5791016,1.2226562-.4179688.3935547-.9306641.7685547-1.5244141,1.1142578-1.0830078.6318359-2.1806641,1.2402344-3.2626953,1.8417969l-.7460938.4150391c.7255859-2.109375,2.2060547-3.765625,4.40625-4.9287109.3837891-.203125.6933594-.3046875.9550781-.3046875.2470703,0,.4521484.0908203.6396484.2714844.0732422.0703125.1123047.2011719.1113281.3681641Z" stroke-width="0"/>
      <path d="m46.7252035,22.9012241c1.3769531.2666016,2.5087891.6015625,3.4589844,1.0205078,1.2011719.5322266,1.8134766,1.2011719,1.9863281,2.1689453l.5214844-.0537109-.0351562-1.1914062c.4824219-.390625.5263672-1.0380859.109375-1.7666016-.1757812-.3076172-.3486328-.6181641-.5214844-.9287109-.59375-1.0693359-1.2070312-2.1748047-1.9726562-3.1484375-.7373047-.9384766-1.7148438-1.8447266-3.0761719-2.8515625-1.1191406-.8271484-2.359375-.9736328-3.4873047-.4169922-.9130859.4492188-1.5644531,1.2626953-1.7871094,2.2314453-.2314453,1.0048828.015625,2.0693359.6767578,2.9199219,1.1132812,1.4326172,2.7841797,1.7558594,4.1269531,2.0166016Zm-2.9355469-3.4355469c-.3974609-.5947266-.0664062-1.1533203.1660156-1.4326172.1835938-.2207031.3896484-.3271484.6591797-.3271484.1621094,0,.3476562.0390625.5644531.1152344.3710938.1308594.7294922.2646484,1.0273438.4677734,1.7099609,1.1728516,2.8466797,2.84375,3.890625,4.6396484-.3291016-.1396484-.6533203-.2773438-.9755859-.4140625-1.4179688-.5996094-2.7558594-1.1650391-4.0712891-1.7988281-.4169922-.2001953-.8417969-.6210938-1.2607422-1.25Z" stroke-width="0"/>
      <path d="m73.9859457,12.1834507l.2617188-.2529297c.1220703-.1181641.2431641-.2314453.3632812-.34375.2851562-.2666016.5556641-.5195312.8085938-.8007812.1298828-.1435547.2275391-.3046875.3222656-.4599609.0957031-.1572266.1855469-.3066406.2978516-.4169922,1.6064453-1.5791016,3.4511719-2.7802734,5.2050781-3.84375.8242188-.4990234,1.8388672-1.2314453,2.3671875-2.4677734.3251953-.7626953.7705078-1.8076172.0205078-2.7617188-.7275391-.9287109-1.7949219-.8876953-2.7373047-.7822266-.0996094.0117188-.1982422.0361328-.3271484.0693359-2.1738281.5419922-3.5869141,2.0976562-4.4609375,3.2207031-1.203125,1.546875-1.8916016,3.2998047-2.5537109,5.4570312-.3173828,1.0361328-.2304688,2.0068359.2744141,3.0546875l.1582031.328125Zm2.3349609-4.4013672l-.2324219.1445312c.734375-2.1083984,1.8203125-3.7333984,3.3076172-4.9541016.453125-.3720703,1.0576172-.6757812,1.7001953-.8535156.1689453-.046875.3222656-.0703125.4570312-.0703125.1972656,0,.3515625.0507812.4433594.1503906.1591797.171875.1630859.5136719.0097656.9384766-.3828125,1.0585938-1.0263672,1.8691406-1.9140625,2.4101562-.3232422.1972656-.6542969.3808594-.9853516.5644531-.3017578.1679688-.6035156.3359375-.8994141.5136719-.6191406.3701172-1.2314453.75-1.8867188,1.15625Z" stroke-width="0"/>
      <path d="m133.9732504,209.7820835c-.1298828.0478516-.2773438.0654297-.4150391.0693359l-.5898438-.0126953c-.9638672-.0205078-1.9609375-.0410156-2.9365234-.0957031-.6982422-.0390625-1.5644531-.0869141-2.0146484.8242188-.3652344.7373047-.1894531,1.4824219.5224609,2.2128906,1.0839844,1.1113281,2.4267578,1.0830078,3.515625.9023438l.1767578.2392578.2099609-.1445312c.2119141-.1455078.4287109-.2861328.6455078-.4267578.5302734-.3427734,1.078125-.6972656,1.5517578-1.1337891.4003906-.3691406.5878906-1.0253906.6289062-1.5166016.0390625-.4443359-.046875-.7421875-.2646484-.9101562-.3007812-.2314453-.7304688-.1152344-1.0302734-.0078125Z" stroke-width="0"/>
      <path d="m53.067977,161.7772007c-.3779297.6230469-.3769531,1.3105469.0039062,1.9873047.5019531.890625,1.4375,1.3828125,2.5527344,1.3828125.3017578,0,.6152344-.0361328.9375-.109375l.0097656-.0029297c1.0214844-.2763672,1.7773438-.9697266,2.1289062-1.953125.2539062-.7138672.1308594-1.3671875-.3564453-1.8867188-.5859375-.625-1.2939453-.5644531-1.8496094-.4414062-.5048828.1123047-1.0644531.1787109-1.7119141.2041016-.6162109.0244141-1.3027344.140625-1.7148438.8193359Z" stroke-width="0"/>
      <path d="m62.1714926,129.34556l.2011719.1064453c.1787109.1005859.3808594.0791016.5625.0654297.0546875-.0058594.1103516-.0107422.1621094-.0117188l.1025391-.0009766c.4248047-.0019531.5517578.0068359.6064453.3388672.0605469.3681641.6826172.4912109.6884766.4921875.0878906.0166016.1757812.0244141.2607422.0244141.3496094,0,.6708984-.1337891.9072266-.3847656.3515625-.3740234.4726562-.9570312.3242188-1.5576172h-.0009766c-.203125-.8183594-.9287109-1.5048828-1.8935547-1.7919922-.9042969-.2695312-1.7783203-.1142578-2.3476562.4130859-.3710938.3457031-.6025391,1.0458984-.4931641,1.4980469.0908203.3759766.53125.6054688.9199219.8085938Z" stroke-width="0"/>
      <path d="m48.0591879,150.9939975c-.2587891-.9804688-1.4912109-1.4951172-2.8085938-1.1582031-.9667969.2431641-1.5585938,1.2216797-1.3193359,2.1816406.1210938.4833984.4365234.8984375.8876953,1.1679688.3339844.1992188.7197266.3027344,1.1083984.3027344.1796875,0,.359375-.0224609.5361328-.0673828.5703125-.1455078,1.0712891-.5234375,1.3730469-1.0361328.2617188-.4462891.3408203-.9394531.2226562-1.390625Z" stroke-width="0"/>
      <path d="m51.5464926,140.4744663c-.2695312.0771484-.4873047.2685547-.6474609.5683594-.2021484.3798828-.2431641.8339844-.1142578,1.2460938.1210938.3847656.3837891.6972656.7392578.8789062.4433594.2265625.9345703.3369141,1.4101562.4443359.2011719.0449219.4013672.0898438.5976562.1445312l.2421875.0664062.0957031-.2910156.0410156-.0166016c.1171875-.0458984.2333984-.0917969.3466797-.1455078.8857422-.4208984,1.2958984-1.2255859.9960938-1.9560547-.2734375-.6699219-1.0644531-.8984375-2.0693359-.5927734-.1386719.0410156-.4277344-.0292969-.6660156-.1679688-.3515625-.203125-.6767578-.2626953-.9716797-.1787109Z" stroke-width="0"/>
      <path d="m41.2037192,147.7283725c-.1318359-.6787109-.6230469-1.0917969-1.3125-1.1054688-.8212891-.0361328-1.40625.4453125-1.5673828,1.2402344-.0986328.484375-.1289062.9824219-.1582031,1.4628906-.0136719.2119141-.0263672.4238281-.0449219.6347656l-.0126953.1337891.4443359.3876953.1650391-.1005859c.1669922-.1015625.3310547-.2060547.4960938-.3105469.3583984-.2285156.7294922-.4648438,1.1074219-.6572266.7314453-.3720703,1.0283203-.9394531.8828125-1.6855469Z" stroke-width="0"/>
      <path d="m49.9537192,130.5164585c.4042969.15625.8300781.1943359,1.3232422.2382812.2099609.0185547.4326172.0380859.6699219.0693359l.1542969.0205078.0917969-.1259766c.0761719-.1025391.15625-.203125.2363281-.3027344.2167969-.2714844.4414062-.5507812.5712891-.8818359.0478516-.1201172.0273438-.2607422-.0615234-.4306641-.1074219-.203125-.3662109-.5273438-.6376953-.5878906-.5292969-.1171875-1.3183594-.265625-2.0878906-.1816406-.4414062.046875-1.0107422.5751953-1.0683594.9902344-.0605469.4238281.4121094,1.0410156.8085938,1.1923828Z" stroke-width="0"/>
      <path d="m42.1168051,168.9588413c-.2207031-.6523438-.7578125-.9355469-1.4472656-.7509766-.3027344.0810547-.5371094.2519531-.6748047.4931641-.1435547.2509766-.1738281.5683594-.0839844.8925781.1474609.5302734.5449219.8369141,1.0507812.8369141.0996094,0,.2041016-.0117188.3115234-.0361328.6484375-.1484375.9599609-.6533203.8554688-1.3876953l-.0117188-.0478516Z" stroke-width="0"/>
      <path d="m113.8043051,85.0457554c.1357422,0,.2705078-.0117188.4013672-.0371094l.0029297-.0009766c1.3027344-.2685547,2.2148438-1.140625,2.3232422-2.2207031.0644531-.6279297-.171875-1.2128906-.6318359-1.5654297-.4345703-.3330078-1.0126953-.4091797-1.5537109-.2041016-.5029297.1933594-1.0761719.2841797-1.5742188.3535156-.3222656.0449219-1.2998047.1826172-1.4287109,1.0712891-.078125.5400391.0292969,1.2792969.3867188,1.6474609.5917969.6103516,1.3564453.9560547,2.0742188.9560547Z" stroke-width="0"/>
      <path d="m99.3687582,113.892435c.4570312.3447266,1.0009766.5253906,1.5527344.5253906.1933594,0,.3886719-.0214844.5800781-.0673828.8779297-.2070312,1.4638672-.8378906,1.4580078-1.5693359-.0029297-.5859375-.2480469-1.3183594-1.3935547-1.4794922-.0986328-.0136719-.2529297-.125-.3291016-.2382812-.4306641-.6357422-1.0332031-.8398438-1.7441406-.5859375-.7314453.2587891-1.1123047.8525391-1.0742188,1.671875.03125.6757812.3779297,1.3115234.9501953,1.7431641Z" stroke-width="0"/>
      <path d="m113.5064535,113.4441929c.2763672,0,.5625-.0361328.8505859-.109375l.0654297-.0263672c.0332031-.0195312.0791016-.0410156.1298828-.0654297.1748047-.0849609.4140625-.2011719.6152344-.3818359.1943359-.1748047.5263672-.5244141.5585938-.9082031.0234375-.2988281-.046875-.9814453-.4189453-1.1835938-.4082031-.2216797-.9873047-.2958984-1.4414062-.1777344l-.1796875.0478516c-.4726562.1308594-.6855469.1875-.9755859-.2197266-.1835938-.2558594-.4726562-.3798828-.7666016-.3349609-.3115234.0498047-.5751953.2802734-.671875.5869141-.1376953.4365234-.1708984,1.0996094.0634766,1.5947266.3505859.7412109,1.1982422,1.1777344,2.1708984,1.1777344Z" stroke-width="0"/>
      <path d="m100.6490317,91.9197788c.1054688,0,.2119141-.0078125.3193359-.0253906.9853516-.1601562,2.1416016-1.3271484,2.3789062-2.4013672.2070312-.9355469-.2490234-1.3251953-.6679688-1.4863281-.5214844-.2060547-1.4775391.3818359-1.6845703.8994141-.0996094.2480469-.2246094.4853516-.3496094.7226562-.0009766.0009766-.0009766.0019531-.0009766.0029297l-.0693359-.0244141c-.0878906-.0273438-.1806641-.0703125-.2744141-.1123047-.2705078-.1210938-.5498047-.2480469-.8164062-.1435547-.3222656.1269531-.8115234.4902344-.4589844,1.4970703.2294922.6533203.8847656,1.0712891,1.6240234,1.0712891Z" stroke-width="0"/>
      <path d="m120.755477,101.3982944c.2714844.1767578.5712891.2685547.8710938.2685547.1044922,0,.2089844-.0117188.3125-.0341797.7597656-.1699219,1.1875-.8310547,1.0390625-1.6083984-.1074219-.5664062-.4179688-1.0673828-.8300781-1.3417969-.2910156-.1943359-.6044922-.2636719-.9111328-.1982422-1.0537109.2236328-1.4785156.7734375-1.2998047,1.6835938.0996094.5068359.3984375.9550781.8183594,1.2304688Z" stroke-width="0"/>
      <path d="m60.9957114,102.4227085c-.6230469-.4160156-1.3291016-.7949219-2.0966797-1.125-.3300781-.1425781-.8535156-.0878906-1.1464844.1191406-.28125.1982422-.4179688.7089844-.3652344,1.0439453.078125.4833984.4765625.9960938,1.0927734,1.4072266.4931641.3291016,1.2060547.6308594,1.8984375.6308594.1640625,0,.3271484-.0166016.4853516-.0546875l.09375-.0224609.0576172-.0771484c.0185547-.0253906.0488281-.0556641.0849609-.09375.1552734-.1630859.390625-.4101562.4296875-.7216797.0458984-.3613281-.2089844-.8886719-.5341797-1.1064453Z" stroke-width="0"/>
    </g>
  </g>
</svg>