<?xml version="1.0" encoding="UTF-8"?>
<svg id="Layer_2" data-name="Layer 2" xmlns="http://www.w3.org/2000/svg" viewBox="0 0 154.9046823 192.8870715">
  <g id="Layer_1-2" data-name="Layer 1">
    <g>
      <path d="m152.5495726,169.2197782c1.1632262,1.0291843,1.2230444,2.3318073.6098794,3.5799535-.9239839,1.880826-1.9611929,3.7152491-3.0728299,5.4927514-2.1098637,3.3737405-5.0314855,5.9069688-8.4173631,7.9684298-3.5112296,2.1378129-7.0246452,4.2528815-10.9642146,5.5297695-2.2486388.7287877-4.5485933,1.1733177-6.9239325,1.0853446-1.1020275-.0408359-2.2036188-.1250789-3.2029037-.6905863-.1253202-.070905-.364761-.0472782-.501289.0258724-.9793105.5248115-1.9573295.4436767-2.8655331-.0944843-.7136351-.4228994-1.4027813-.9225238-2.0060607-1.4907738-6.1189584-5.7634446-11.7430276-11.9858605-17.0658729-18.4858049-5.9251257-7.2354548-11.8423555-14.4774346-17.7878241-21.6961349-3.0502644-3.7034715-6.3111539-7.2441201-9.1993717-11.0679543-4.8722436-6.4505234-9.5527632-13.0470358-14.2550765-19.6242136-2.136459-2.9883054-4.1771768-6.044424-5.8726575-9.3215004-2.7299817-5.2766055-5.542335-10.5144673-7.8071497-16.0128663-.7349163-1.7842228-1.2556063-3.6675112-1.7445473-5.5393791-.549708-2.1045433-.4504588-4.2527775-.08007-6.3863717.5638875-3.2482384.3744651-6.4326317-.8458923-9.5173175-.5255112-1.3283462-1.1530843-2.6167495-1.6661323-3.9495366-1.6703386-4.3393093-4.2374747-8.1822508-6.6201442-12.131497-1.2225679-2.0263858-2.2707259-4.1585848-3.5070409-6.175954-2.0499604-3.3450182-4.3128589-6.5459582-6.8387745-9.555225-2.1392416-2.5485781-4.2463389-5.1244791-6.4090488-7.6528897-1.4989602-1.7524231-3.0804819-3.4340002-4.5978952-5.171013-.3993159-.4570856-.788119-.9652587-1.0153702-1.5183343-.205374-.4997973-.2015118-1.0912482-.2551288-1.6456423-.033067-.3421336-.0089856-.6908581.0033119-1.0361313.0486805-1.3677179.4128505-2.6568596.9856203-3.8922295.1093384-.2358137.2276731-.4674444.312444-.7547638-.7423623.4471977-1.5357197.6140615-2.2773246.2228901-.6722094-.3545823-1.3478275-.8029733-1.8463229-1.3656107-1.0133182-1.1436488-1.930133-2.3758626-2.8459014-3.6020591-1.0383208-1.3902709-2.0225735-2.8207837-3.0476765-4.2211031C-.0734993,9.1662748-.3175267,7.6790975.4600709,6.2004065c.9379858-1.7836963,1.9943265-3.5122618,3.1035535-5.1960919C4.2175511.0116421,5.4249432-.2675138,6.581454.2670332c.8582255.3966489,1.6668987.9494499,2.40605,1.5461579,2.9673245,2.3954647,5.1646151,5.4333565,7.0561892,8.70465.267644.4628266.4157374,1.0220159.5017335,1.5555178.0998163.6195035-.1300595,1.1725836-.6856718,1.5329556-.5397106.3500654-1.1499118.3492047-1.615945-.0208048-.9380845-.7447657-1.8012376-1.5840805-2.6925049-2.3874912-.1468706-.1324097-.2794711-.2806516-.5218587-.5260266-.1878929,1.8251277-.8777649,3.0501823-3.0849609,2.8324178.6081724.593039,1.0624944,1.0461385,1.5282832,1.4871241.3852895.3647416.797194.7019615,1.1741361,1.0747967.6906759.6831212,1.0226867,1.5068157.832179,2.6376655.3890946-.3877662.6585452-.6811666.9536178-.9460191,1.2165212-1.091932,2.5941521-1.9347588,4.1579092-2.399904.620337-.184523,1.3176917-.104967,1.9785702-.1620365.1605108-.0138631.3814652-.0423713.4626325-.1492089.7569386-.9962688,1.7821766-1.1361952,2.8605805-.7996.6869508.2144001,1.3471578.5901421,1.9434662,1.0031252,1.151478.7974538,2.1372067,1.7809759,2.7753512,3.050876.5909636,1.1759912.7866203,2.3677422-.0746556,3.5212492-.3701234.4957061-.4993379.4420163-.9310252-.0022558-1.6509106-1.6991085-3.4703199-3.1886349-5.422037-4.275687-.7078793.6641717-1.3131907,1.2515778-1.9392978,1.8158619-1.7876417,1.6111348-3.6768842,3.115704-5.1378051,5.0622695-.3081006.41052-.2955161.6386496.0846987,1.0098415,1.0803402,1.0547078,2.1021869,2.1693089,3.1482668,3.2591722.1662934.1732702.3387955.340582.5213972.5236374,1.1660679-2.5800951,3.5141811-3.8927969,5.5649873-5.4992504.3070554-.2405254.7334975-.3665203,1.1251483-.4538752,1.0818494-.2412818,1.9398228.5270734,1.7712177,1.623155-.0716981.4660946-.2471057.9913512-.5511866,1.3334435-1.2443158,1.3998431-2.5120855,2.7859442-3.8661637,4.0775525-.5184536.4945393-1.2912492.7224356-1.9936975,1.0960707.0168653.0292041.0668144.1544496.149075.2526207,3.2020146,3.8208314,6.2318395,7.7697416,9.0792502,11.865348,1.6302518,2.3449082,3.4182109,4.5818551,5.172147,6.8386708,2.2369384,2.8782654,4.1758224,5.9462453,5.9472726,9.125691.0773468.1388151.1770691.2651649.3436835.5117647.2543018-1.6385896,1.5245319-2.0373935,2.706755-2.5326606.9409225-.3941847,1.8845157-.7822039,2.8307848-1.1633515.3210701-.1293226.6478277-.2536162.982613-.3379966.895312-.2256746,1.5294461.2562575,1.5673421,1.1896225.0358146.8818001-.3814862,1.5873132-.9840798,2.1662427-1.0129305.9731358-2.1907721,1.7097374-3.5301369,2.1465994-.9580799.3125112-1.924253.3253754-2.9175015-.1312026.1913316.3762244.3856922.7509293.5735412,1.128891,1.5722892,3.1634034,3.1182329,6.325728,4.0442798,9.7704063.8286027,3.0820991.8871525,6.1654234.5287776,9.2932896-.0418295.3651768-.0576418.7361616-.1339577,1.094124-.8289961,3.8884767-.0063357,7.5838134,1.2868813,11.2287105.8885952,2.5044422,2.2382185,4.770525,3.7147742,6.94991,1.6593218,2.4490673,3.4667029,4.7972528,5.1698648,7.2173258,2.5729997,3.6560677,5.0456015,7.3844608,7.6790944,10.9959154,4.8117513,6.5985969,9.6227503,13.2013064,14.6053685,19.6703811,2.9246811,3.7971651,6.2217113,7.3052212,9.2768024,11.004782,4.8236961,5.8412381,9.5960973,11.7250263,14.3694362,17.6076457,5.4096313,6.666753,11.1160546,13.0601159,17.3286312,18.9936821.5157.4925309,1.0032598,1.019458,1.4599989,1.5670382.2977834.3570029.5650862.7576075.7602193,1.1784582.4581856.9882156.4436624,1.0341681,1.5248434.8454953.9424537-.1644487,1.8862877-.3657999,2.798833-.649534,5.5518041-1.7262328,10.688232-4.2733223,15.2275927-7.9339308,3.3817594-2.7270651,6.0854122-6.0808332,8.6100661-9.5869772.3459506-.4804246.7373971-.9335794,1.0355666-1.441731.5580747-.951072,1.3391945-1.3226829,2.4129823-1.0819844-.0004333-.0004043.0177129.044118.0177129.044118ZM9.1909129,8.7878616c-1.2983068-1.6083581-2.5263002-3.1295925-3.8574595-4.7786327-.5488579.9866323-1.0241025,1.8319155-1.4902945,2.6821559-.3069483.5598087-.2382271,1.0847052.1448991,1.5945541.7704299,1.0253056,1.5240303,2.063248,2.2904091,3.0916283.0754551.10126.1912821.1724358.3467051.3087349.060439-1.7041994,1.0689166-2.498238,2.5657407-2.8984404Z" stroke-width="0"/>
      <path d="m152.5495726,169.2197782s-.0181462-.0445223-.0177129-.044118c-.5213465-.5077162-1.1724456-.9363481-1.5422897-1.5378733-1.5165795-2.4666279-3.0663296-4.9250052-4.3854093-7.4983964-2.8465606-5.5534075-6.0980165-10.8525363-9.5847692-16.0188416-2.6836947-3.9764115-5.304613-7.995184-7.9851433-11.973758-.9119552-1.3535703-1.9110072-2.6491213-2.886901-3.9587882-3.2692828-4.3873518-6.4759077-8.8237388-9.838301-13.1386884-3.9143226-5.0232178-7.9504598-9.9520498-11.9659212-14.8957184-3.1278636-3.8508877-6.3045299-7.6621364-9.4603834-11.4902858-4.2298707-5.1309827-8.8004704-9.9392386-13.8797883-14.2318809-2.5090766-2.1204691-5.2261891-3.9848026-8.1460599-5.5287509-1.260397-.6664611-2.5772434-1.1393007-3.9942128-1.3007227-2.4087852-.274426-4.544535-1.1966474-6.558892-2.5316355-4.1388228-2.7429976-8.0230815-5.7933974-11.2628752-9.5640775-1.9655648-2.287647-3.7633382-4.729473-5.5161767-7.1878203-3.582431-5.0243341-7.3057242-9.9322014-11.3901287-14.5625307-2.052407-2.3267546-4.0676581-4.6863431-6.0911419-7.0384586-.278241-.3234222-.5469901-.6677391-.749774-1.0406433-.399428-.7344578-.4083986-1.4994947.0552286-2.2116555.4758945-.7309942,1.2019314-1.1095069,2.0461819-.9447181.6399753.12491,1.3430106.3581835,1.8254794.7692058,1.0179131.8671494,2.0427417,1.7846843,2.8287436,2.8548669,2.5976386,3.5369764,5.0500232,7.180381,7.6333227,10.7282042,3.3764498,4.6371207,6.7973363,9.242624,10.2526865,13.8212827,1.8956573,2.5119173,4.4777747,4.2835537,7.0159314,6.0657233,2.1354784,1.4994468,4.3213606,2.9367029,6.5623633,4.2715101.8873285.5285144,1.9617058.8870664,2.9888624,1.0125957,5.252344.6419326,9.6292284,3.0387721,13.567916,6.4375333,5.2546699,4.5343664,9.9849733,9.5824835,14.5657025,14.7750709,4.8890467,5.542072,9.8149116,11.055827,14.5582423,16.7212859,6.3976859,7.6414495,12.567766,15.4681431,17.9660983,23.8674403,3.5322723,5.4958699,7.0944623,10.9733503,10.5556453,16.5138039,4.0555219,6.4918925,8.0704189,13.0107845,11.9842624,19.5885931,1.1707537,1.9676289,1.9462413,4.1708227,2.8950035,6.2696322.1000093.2212545.1558784.4641617.2172617.7009063.4565542,1.7607049-.8617713,2.8336298-2.2630516,2.3017075Z" stroke-width="0"/>
      <path d="m103.100097,109.7775815c-3.1653612,1.6860893-6.562643,2.0756175-10.0377538,1.9355926-2.6244425-.1057452-5.2428804-.3603022-7.9336492-.5536349-.1263555,1.1374382-.3003397,2.3848155-.3973276,3.63817-.2597798,3.356643-.8878534,6.6437107-1.9691483,9.8257026-.5410692,1.5922549-1.3020118,3.1097803-1.9890482,4.7210282.3674204.2038986.9259127.4236901,1.3760631.7802636,1.4540105,1.1517156,2.9299692,2.2877733,4.2815349,3.5536431,1.5774079,1.4773503,3.1678846,2.9778577,4.5052934,4.6644848,1.5152106,1.9108532,2.8025996,4.0101573,4.098629,6.0840335.7650666,1.2242075,1.3894731,2.5415089,2.0106688,3.8485278.3701715.7788716.4687411,1.6076218-.1032591,2.3827237-.3186594.4318115-.6962834.521159-1.0837439.1521431-.5447733-.5188255-1.1129834-1.0341435-1.5553486-1.6360648-3.3070665-4.4997352-6.917329-8.7406055-10.8063794-12.7445183-1.2228341-1.2589627-2.5195564-2.4469232-3.7243305-3.7222959-.5643692-.5974413-.9884216-1.3270077-1.4815891-1.9926-.0817858-.1103941-.1787374-.2194346-.2914007-.2954205-.6306552-.4254535-.8666554-1.0418506-.7484182-1.7544564.1027589-.6193456.2778049-1.234888.4924807-1.8261316,1.4986582-4.1274195,2.5074319-8.3668174,2.9572506-12.7363233.0459339-.4461241.1031172-.9015068.0629681-1.3442305-.1459284-1.6092865.2708427-3.1205605.7459465-4.6236608.4305793-1.3621743,1.2611388-1.622128,2.4366431-.8023279.1699205.1184986.4139077.1504301.6294888.1808259,2.7601304.3891344,5.499127.0243653,8.2440397-.2211746,2.0106271-.1798643,4.0252873-.3272507,6.0411011-.4324009,1.2635238-.0659068,2.5337281-.0359295,3.7162482.4922064.5862569-.8509704,1.0787077-1.0213481,1.8890748-.4362243.8016924.5788739,1.6270723,1.2178891,2.197389,2.0073026,1.911152,2.6452205,3.7414993,5.3504774,5.5488692,8.0685939,1.9327474,2.9067128,3.8135114,5.8482148,5.6995929,8.785663,1.3352696,2.079579,2.6535182,4.1746596,3.49273,6.5171385.2597457.7249749.4251143,1.4903259.5632838,2.2499871.0903041.4963423-.0225679.9908748-.5130642,1.2838759-.5046676.3014757-1.0660687.2308136-1.4246554-.1428827-.854746-.8908443-1.8126149-1.7619131-2.3918508-2.8246398-2.9704524-5.4499386-6.6281829-10.4368883-10.1396571-15.5297507-1.6038828-2.3261972-2.8630728-4.8900577-4.2786476-7.3460871-.050053-.0868369-.1005251-.1734349-.1200234-.2070813Z" stroke-width="0"/>
      <path d="m97.7311789,98.5956125c.5504784.7356395,1.1100372,1.4647642,1.6469622,2.2101534.213329.2961701.406584.6148717.5563748.9470419.3086628.6846151.1950722,1.3279832-.2661322,1.7487082-.4875414.4447485-1.1607596.5098445-1.8172378.1062551-.4139709-.2544978-.7923875-.5744033-1.1598235-.8957628-2.3897583-2.0899657-4.4167821-4.5160426-6.5069585-6.8948438-5.3906816-6.1350443-11.3857032-11.6438852-17.7740933-16.7270061-.2716096-.2161194-.5532423-.4214413-.8100288-.654052-1.8896248-1.7115352-4.0733147-2.7007182-6.6311724-2.9987485-2.8838177-.3359984-5.2325121-1.8454539-7.1768522-3.9101522-1.7744647-1.8843193-3.3991428-3.9103534-5.0712553-5.8896272-.2309726-.2734115-.4018625-.621095-.5190787-.9623869-.276893-.8062355-.019043-1.6130851.6120493-2.0857979.6173243-.4624009,1.4474646-.5284298,2.1143037-.0159242.6582933.5059538,1.2498055,1.1098086,1.8180277,1.7197139,1.2661492,1.3590149,2.4386349,2.810415,3.7602571,4.111442,2.0509347,2.0189538,4.4918086,3.4743863,7.2191802,4.3849479,5.7254068,1.9114732,10.5714225,5.2255475,14.7938162,9.4349552,3.7425396,3.7310511,7.3081641,7.640464,10.9238737,11.4973966,1.4786042,1.5772717,2.8834898,3.2236251,4.3219122,4.8385497-.0113777.0117086-.0227465.0234291-.0341242.0351377Z" stroke-width="0"/>
      <path d="m120.9969039,160.3664129c.4870471.6488.6805978,1.297373.297109,1.9893262-.3835547.6920399-1.0562515.9348415-1.7803945.7961683-.9380701-.1795916-1.8710256-.4324889-2.771948-.7507559-2.8858672-1.0195346-5.7710643-2.0444652-8.6273844-3.1430526-2.3251328-.894289-4.7617193-1.2889794-7.1759133-1.7995714-.6978763-.1475864-1.4027161-.2849551-2.0795469-.5037567-.8489498-.2744528-1.3420133-.9118943-1.3422473-1.6389169-.000284-.8651762.475645-1.4891949,1.2493026-1.7031316.9719864-.2687863,2.004056-.5161743,2.9980013-.4754472,4.0096742.1643364,7.9862601.6321311,11.7194592,2.2358813,2.6460163,1.1367102,4.9273158,2.8720961,7.1764623,4.6401358.1426294.1121118.253654.2644256.3370998.3531208Z" stroke-width="0"/>
      <path d="m122.3718421,156.9729082c-.4228288-1.0756325-.9173356-2.1292384-1.2557201-3.2308085-1.2638522-4.1140622-1.3280739-8.3164269-.8082495-12.5514604.0695913-.5670264.1182716-1.1368068.1971352-1.7024769.042085-.3017463.1028579-.6057818.1991743-.8940997.2407867-.7208008.8095055-1.1392548,1.4449183-1.0964383.6251256.0421262,1.1273382.4838276,1.2707203,1.2175248.1366618.6992509.2184057,1.4109947.2913268,2.1206347.2523794,2.455884.4937455,4.9129287.7328827,7.3701654.2184784,2.2449805.7043216,4.4298766,1.4372925,6.5622467.1455898.423549.2874239.8537381.370336,1.2923172.1440721.7621567-.0515504,1.4386059-.7247124,1.8778421-.6886485.4493488-1.4139807.3808385-2.0704588-.0723331-.3627836-.2504303-.6555498-.6022762-.979879-.9084215-.0349201.0051134-.0698373.0102059-.1047664.0153074Z" stroke-width="0"/>
      <path d="m102.2811307,130.0326547c.0028338-.3192479.0026855-.5785181.0079458-.8376508.0119729-.5909978-.0185526-1.1872591.0505251-1.7716491.1092421-.9245292.6078519-1.6270399,1.5016285-1.916607,1.1140246-.3609124,2.2636483-.3616523,3.3611048.0800454,1.144209.4605357,1.3182664,1.5652265.2969039,2.270943-.6130414.4235601-1.3993788.627892-2.1356159.8289966-.4010939.1095629-.6130698.2299609-.6171538.6587615-.0021048.2212569-.0620657.4445389-.114784.6623453-.388234,1.6040855-1.3035977,2.2506038-2.9416288,2.074031-.4259639-.045906-.8496124-.1137585-1.2740778-.1732655-.3709215-.0519907-.5941348.107791-.6484422.4743931-.0716727.4839543-.1303761.9699361-.1870423,1.455944-.0425126.3646884-.0521442.7342709-.1124022,1.0956672-.2507792,1.5040118-1.2582741,2.0763675-2.6736871,1.5257086-.3018108-.1174187-.5952609-.2562449-.9798484-.4230668.0782522.4047394.1536773.7327002.2034035,1.0645161.1141684.7621899-.1341275,1.3186409-.7061694,1.6184846-.5306628.2781461-1.1513928.1884169-1.6588102-.3745593-.4578323-.507997-.867247-1.0782676-1.1977646-1.6764712-.2685469-.4860032-.1594377-.9755529.3360845-1.3509661.1580942-.1197776.2761678-.3801934.2921033-.585589.1020949-1.3168838,1.0564457-1.9396126,2.2654148-1.4091861.5001662.2194408.9531664.5467928,1.4262641.8273278.2929573.1737193.5833641.3517198.8749038.5277889.0849658-.0076646.1699347-.0153501.2549005-.0230146.0351092-.5850702.0462499-1.1727362.1094495-1.7547454.2764693-2.5461886.9631647-3.1084472,3.4922059-2.8953879.2378915.0200155.4776953.0173959.7745885.0272056Z" stroke-width="0"/>
      <path d="m89.0070038,119.3765137c.3747729-.1111831,1.0034978-.3412945,1.6520804-.4750887.4439704-.0915608.6473559-.2763915.6218258-.7266171-.0311211-.5493722-.0481599-1.0995487-.070587-1.649411-.0877442-2.1514115,1.6403359-3.4767401,3.6904473-2.8123175,1.1322311.3669345,2.0664899,1.0600512,2.8688432,1.9192026.4585926.4910626.6303445,1.1005928.3865655,1.7588996-.2622554.7081889-.8486134,1.1659597-1.544237,1.092462-1.1325963-.1196102-1.4208561.4392084-1.6910943,1.3820202-.4653149,1.6234856-1.703957,2.3751044-3.3601116,2.4324852-.4467684.0154703-.7650594.0735338-1.0481162.5108557-.3407565.5264376-.9522412.5975361-1.5448678.4248275-.7174339-.2090993-1.1406615-.7154911-1.2303348-1.4476429-.1152419-.9411077.3294377-1.6480059,1.2695864-2.4096755Z" stroke-width="0"/>
      <path d="m104.8216425,144.3122975c-.3062627.0641765-.6593575.2566581-.9089344.1655772-.5044706-.1841241-.6718659-.6791055-.6610267-1.2015138.0103332-.4972947.245132-.9199895.7340382-1.0028049.4651727-.0788056.9670412-.0242372,1.440033.0514353.4150434.0663893.8123819.2432857,1.2999051.3974218.0256155-.3804784.0414445-.716064.0719008-1.0503024.1262211-1.3847811.9320641-2.3091796,2.3206247-2.3982574.8518152-.0546643,1.7390765.1003441,2.5783278.2977235.7137214.1678625,1.0786726.7929829,1.0312818,1.4120717-.0453059.591841-.477755,1.0753603-1.1722508,1.2463884-.4938067.1216047-.9991641.199487-1.5020803.2800823-.3702171.0593502-.6031549.2209162-.5912501.6315127.002918.1004929-.0228217.2023097-.0393908.3028502-.2829601,1.7160339-1.4268719,2.3007218-2.9771929,1.5197448-.5267949-.2653873-1.05022-.5374811-1.575186-.8065162-.0162674.0515359-.0325319.1030509-.0487993.1545869Z" stroke-width="0"/>
    </g>
  </g>
</svg>