<?xml version="1.0" encoding="UTF-8"?>
<svg id="Layer_2" data-name="Layer 2" xmlns="http://www.w3.org/2000/svg" viewBox="0 0 201.680838 140.981419">
  <g id="Layer_1-2" data-name="Layer 1">
    <path d="m47.4181808,63.6445982c-.3392204-.3439721-.7613525-.7319345-1.1368261-1.1607282-.9049032-1.0334125-1.313332-2.2698911-1.1652716-3.6158069.1716204-1.5600521.3874176-3.1081401.0951153-4.6719056-.038176-.2042639-.0643247-.4580696-.195496-.5904236-1.4830397-1.4964539-1.1660909-3.8854617-.3032574-5.3679439.1768486-.3038629.3740664-.604634.6084702-.864914,2.3451076-2.6040214,4.9275691-4.8795276,8.0251058-6.6180326,4.4600432-2.5032267,8.9145439-5.026582,13.088591-8.0166261,1.6201824-1.1606025,3.4579274-2.0231091,5.219077-2.9800099,1.7435547-.9473446,3.5211328-1.8320733,5.2667492-2.7757746.1863671-.1007563.3065157-.397733.3765187-.6282262.5884977-1.9375121,1.1062003-3.8981807,1.7504634-5.8165567.4833851-1.4393714,1.3722591-2.6635487,2.4509813-3.7348811.9549203-.9483879,1.8675704-1.9522082,2.9071845-2.798605.907714-.7390064,1.9663561-1.2927453,3.0127991-1.9632481-.6296717-.5734535-1.322628-1.2078533-2.0194501-1.8379786-.4581146-.4142602-.9512021-.7942231-1.3770494-1.2389075-.978563-1.0218275-.9284956-2.2404372.1798287-3.1038804,2.6125167-2.0352916,6.1367327-1.3521638,7.6792852.8462501.4999842.7125583.8969848,1.4973396,1.401221,2.3508667.171572-.8317873.2727911-1.5951992.4908797-2.3236475.4671325-1.5602375.9331954-3.1265053,1.5270626-4.640372.2450363-.6246571.7482643-1.1985679,1.2596041-1.6550006.579538-.5173167,1.3388-.576635,2.0442146-.177997.7338153.4146886,1.0986815,1.1267668.8736638,1.9030454-.2462372.8495224-.6849116,1.6558986-1.1225839,2.4345215-.7118525,1.266368-1.4976749,2.4910004-2.2361409,3.7427602-.1405626.2382703-.2063926.5205953-.3383966.8653707.6543121-.0921171,1.213148-.1748261,1.7731189-.2489782,3.8037027-.5036905,6.8115457,1.0112083,9.2874086,3.7502841,1.5709024,1.7378975,1.7840696,3.8723515,1.5270811,6.0969468-.0404516.3501012-.0843993.6997986-.1244908,1.0499397-.0021226.0185704.0165985.0395254.0673132.1511814.3808658.0079941.8093333.0124091,1.2374783.026723,2.6233292.0876856,5.2465689.1774827,7.8698301.2668422,2.6000394.0885673,5.2151879.0317242,7.7966436.2994176,4.1536426.4307228,8.2487462,1.2285867,12.1474465,2.8163984.6741649.2745582,1.3446269.575463,2.0430468.7700507,2.6272134.731959,4.9826897,1.9782776,7.2160107,3.5305024,1.4646959,1.0179999,2.8043193,2.1317787,3.9173358,3.526563,1.8634387,2.335216,3.7260837,4.6823353,4.5850477,7.6030196.4273986,1.453305.6859145,2.9621837.9371602,4.4599503.3676018,2.1913966.6447052,4.3978114.9900594,6.5931604.2147373,1.3650935.5658575,2.7130315.7094592,4.083986.199678,1.9064611.2646174,3.8271273.3825934,5.7420029.0718963,1.1668317.165716,2.3335404.1912148,3.5015776.0166809.7645289-.0568402,1.5324439-.1154401,2.296887-.1149582,1.4990995-.2477259,2.996827-.3751251,4.51892,3.0559399-1.1658689,6.1985965-.9211843,9.2791264-.7435146,8.6847008.5008651,16.8197291,2.855368,24.0905631,7.773661,3.3512685,2.266946,6.0682178,5.1796021,8.2740016,8.5645573,1.2660445,1.9428349,2.0309404,4.078988,2.1238468,6.3994111.0766461,1.9149474.1123011,3.842034-.0122005,5.752133-.2019318,3.0979421-1.4433031,5.873751-3.4619992,8.1567917-2.4654935,2.7883352-5.04818,5.5095801-7.8417601,7.9620641-3.3075026,2.9036376-7.1845626,5.0350528-11.0761049,7.0833074-1.6985159.8940016-3.4432583,1.7004571-5.169238,2.5420875-7.1908714,3.5065173-14.7363553,6.0222956-22.4450843,8.103911-3.1301467.8452414-6.1817956,1.9952926-9.3292161,2.7593741-5.8756418,1.426426-11.7880226,2.7056294-17.7015065,3.969417-1.4806895.3164417-3.0236765.3414953-4.5380474.5003319-2.829868.2967961-5.6685915.5277295-8.4874049.9067214-3.6172064.4863471-7.2389297.751566-10.8896248.7845861-4.3479301.0393331-8.6986013.1224976-13.0409975.332925-4.316612.2091948-8.6058948.06972-12.8854744-.4881383-5.8729357-.7655513-11.7888329-.9288193-17.68718-1.3495369-10.119662-.7218134-20.1920743-1.9992956-29.7848169-5.5593462-6.3619661-2.3610541-12.5395364-5.1605004-18.1056826-9.1247419-3.9073388-2.7828148-6.9504525-6.2544932-8.3881218-10.9349111-1.161453-3.7811872-.9873489-7.4828736.4127101-11.2160389,2.3935434-6.3822196,6.7705992-11.1120997,12.2077836-14.9473557,2.8996041-2.0452991,5.964317-3.8598561,8.9886247-5.7232043.8573949-.5282644,1.8135656-.9183636,2.7610357-1.2744987,3.5514191-1.3348493,7.0854083-2.7295758,10.6909892-3.9018437,2.1941429-.7133621,4.5122818-1.0401399,6.765843-1.5777691,2.011928-.4799812,4.0116639-1.0110494,6.0070104-1.5170962-2.2030096-3.0002964-1.6062048-6.3486799-1.1826104-9.6300074Zm21.6631715,50.1183805c-.0057864.0750209-.0115722.1500499-.0173666.2250715,1.1604912.3060783,2.3047425.7227666,3.484765.8957428,2.6449128.3877036,5.2960955.4480734,7.9799539.1900116,3.8001864-.3654139,7.5034965-1.0882051,11.130607-2.2627659,1.3419956-.434583,2.7183001-.7620986,4.0717853-1.1626807,2.5749944-.7621163,4.997936-.3847206,7.3702884.815913,1.3632191.6899242,2.8498691,1.1822743,4.3920253,1.067009,1.601597-.1196942,3.2149108-.3491558,4.7728286-.734012,3.8495921-.9509761,7.6713503-2.0148361,11.502532-3.039931,3.3445812-.8948935,6.6684119-1.875946,10.0354611-2.6756393,2.9822607-.7083088,6.0235631-1.1651641,9.0149772-1.8388704,1.652186-.3720921,3.2382594-1.0307726,4.8842667-1.4387041,3.211534-.795906,6.4461842-1.4981318,9.6675459-2.2549891,2.5112714-.5900358,4.9970771-1.3107915,7.5299033-1.7814047,3.4673279-.6442712,6.9692766-1.1015364,10.4548693-1.6485093,2.751426-.4317574,5.442694-1.0868208,8.0703569-2.0333941,2.144134-.7723759,4.3593464-1.3200057,6.6614658-1.2816629,1.5382987.0256246,2.8822393.5051128,3.5528023,2.0615918.6316563,1.466154.3390478,2.8909726-1.0272989,4.1300248-1.0051089.9114727-2.0787714,1.82098-3.2740521,2.4355471-3.5989282,1.8504233-7.3808115,3.2779771-11.3063752,4.2792238-3.2062828.8178076-6.4660279,1.438449-9.6468428,2.3410627-5.4957435,1.559522-11.066119,2.6569227-16.7460082,3.2454231-1.8423385.1908856-3.7274084.3193008-5.4940817.8229362-4.8812502,1.391542-9.8632243,2.2098684-14.8787078,2.8109659-5.2120483.6246592-10.4467902,1.0626577-15.6740195,1.5567906-2.2275374.2105782-4.4298298.4812314-6.4928137,1.4386269-.5151325.2390603-1.0812054.3949923-1.6403293.5068676-.9895161.1980033-1.8791606.5695447-2.7197722,1.1396551-.6328511.4292005-1.3396793.7778898-2.0562159,1.0503242-3.2152671,1.2224532-6.5467096,1.9720443-9.9695213,2.3010826-5.6262471.5408629-11.2589579.9341416-16.9187988.8348928-3.0813313-.0540306-6.1165766-.4273696-9.1106081-1.1289015-.6780246-.1588834-1.3681979-.4006043-1.9612844-.7565574-.9714153-.5829978-.9844998-1.7109903-.1137786-2.438368.1392965-.1163737.2792474-.231973.3816272-.3169846-.6676725-.3198553-1.3201385-.5797436-1.9166182-.9338667-.5347541-.3174768-.8914067-.8140939-.7963833-1.4872175.0956902-.6778887.5774632-1.0055229,1.190229-1.1844814.123912-.036193.2456573-.0798017.4280131-.1395051-.6269983-1.0469643-.4970616-2.0280036.3332738-3.0172163-1.1451593.0921983-2.1320434.2047144-3.1217968.2429551-1.2326333.0476103-2.4701933.0896408-3.7010155.0334061-1.7592257-.0803896-3.4645991-.4474006-4.984748-1.3956232-2.154677-1.3440283-3.3419242-3.2652147-3.1725703-5.8417625.0816153-1.2417488.3843012-2.471479.6316554-3.6976303.0455702-.2258744.2710852-.4585328.4746912-.6002677.3885521-.2705174.4537746-.5685476.3466785-1.0205219-.5212899-2.2000256-.2922994-4.3300872.6530375-6.3897802.0826177-.1799999.054876-.4748999-.0362231-.6600754-.697138-1.4170686-1.0708016-2.9158494-.9485211-4.4820249.1042083-1.3347059.2280389-2.6369091-.3828184-3.8958068-.1194183-.2461059-.1066312-.5611034-.1337161-.8463336-.0875886-.9223237-.1968478-1.844257-.2359427-2.7689524-.0266147-.6294424.05028-1.2632694.0919676-2.1236763-.9092727-.8700679-1.2737544-2.3042206-1.6049071-3.7953065-.3408174.1126825-.6105845.2013667-.8800248.2910383-2.1979764.7314864-4.364253,1.5837762-6.6002896,2.1701655-4.939199,1.2952655-9.6670532,3.193537-14.1892764,5.4626245-4.947047,2.4822584-9.539687,5.6324978-13.6894774,9.3429149-2.929582,2.6193878-5.2946817,5.6464973-6.6604264,9.4133746-.9613599,2.6515362-1.0020133,5.2595407-.1847253,7.9151044,1.0612597,3.4482826,3.2551366,6.0652836,6.2349742,7.9715188,2.2795707,1.4582692,4.6420638,2.8313986,7.0973975,3.9604703,3.8450568,1.7681426,7.707248,3.5912071,11.7299463,4.8590774,5.7224314,1.8035749,11.6100042,3.0474307,17.6177488,3.599109,3.1198067.286494,6.2236241.8312365,9.3475262.969872,5.2286479.2320523,10.4527017.4427583,15.6461048,1.1313442,4.9347308.6542862,9.8760576.9112389,14.8611078.6154179,3.5205245-.2089113,7.0600277-.1768561,10.5896008-.1338407,4.1341256.050384,8.2497358-.0502166,12.3554571-.5971486,2.3817032-.3172666,4.7810222-.6256935,7.1780187-.6773454,4.1073677-.0885275,8.1251151-.6946685,12.133407-1.5256515,2.9379785-.6090968,5.9584102-.8718105,8.8523543-1.6308915,5.3117643-1.3932398,10.6028745-2.9007606,15.8168613-4.6204582,4.6056597-1.5190559,9.1571619-3.2449206,13.6199844-5.1439432,6.273643-2.6695796,11.7342787-6.7516671,17.3186815-10.5790221,3.0448492-2.0868426,5.3154379-5.0321932,7.6259963-7.867567,1.3589825-1.6676253,2.080434-3.6796948,1.9734626-5.9076283-.0423177-.881255-.0399831-1.7646373-.0588702-2.6470407-.0480507-2.2450681-.8191229-4.2127115-2.2091838-5.9716945-1.7257505-2.1838276-3.6928202-4.1156412-6.0379364-5.6080678-6.6453576-4.2291011-13.882139-6.6828696-21.7782189-7.1386306-2.8144023-.1624509-5.6941138.4291504-8.4711975-.7614653-.0709022.4010756-.130536.7383985-.1901697,1.0757213.0637271-.0416622.1274535-.0833325.1911805-.1249948.5452224.5082519,1.2700533.9208631,1.6014582,1.5429497.9392762,1.7631967,1.1019818,3.6430525.3359229,5.5479917-.1634965.4065843-.3600311.8225348-.4077432,1.2490953-.2151361,1.9230238-.3264804,3.8591235-.5919676,5.7743456-.118744.8566528-.4131775,1.7252369-.804265,2.4993388-.5752058,1.1385412-1.2742426,2.2200305-1.9825948,3.2845514-.9624924,1.446437-2.2952406,2.4773564-3.9788913,2.9003201-1.7940528.4506978-3.626474.7510606-5.4454814,1.0997522-5.8500672,1.1214516-11.729585,2.1083278-17.5442327,3.3898314-5.0387628,1.1104877-9.9750305,2.6842107-15.0113504,3.8079142-4.7335009,1.0561503-9.535794,1.8073418-14.313987,2.6580864-1.4324788.2550424-2.902117.3128061-4.3261243.601841-3.653446.7415713-7.2756709,1.643638-10.939337,2.3260734-3.0548927.5690442-6.1499471.924071-9.2289715,1.3615336-1.8739174.2662316-3.7511679.5089961-5.6269201.7623117Zm8.3195748-83.1242574c-.2666079.1788017-.4257956.2910195-.5902079.3949649-1.4333045.9062025-2.860692,1.8220225-4.3038453,2.7122868-1.0134749.6252058-2.1104155,1.1315378-3.0638094,1.8349233-4.3277475,3.1928852-9.0348416,5.7722551-13.679913,8.4404213-2.6091025,1.4986952-4.9620476,3.2848153-7.1677852,5.2933594-.4305544.3920527-.7874936.8959876-1.0738766,1.4068636-.3162328.5641234-.1513026.8421518.4977195.8541912.6796477.0126065,1.3653496-.0641137,2.0417729-.15251,4.6596047-.6088915,9.3124844-1.2724484,13.9777104-1.8338353,2.9131351-.3505531,5.8609884-.4341036,8.7636056-.8462824,7.0345766-.9989346,14.0564128-2.0800469,21.0091948-3.5834194,5.218889-1.1284687,10.5260224-1.886077,15.6949882-3.198179,5.6054504-1.4229058,11.273428-2.3126937,16.9893758-3.0437116,6.4782362-.8285087,12.9480207-1.7244128,19.4167514-2.6249435,1.2521723-.1743189,2.4825674-.5048741,3.7802465-.7752844-.1000622-.2149968-.1254656-.2990012-.1730553-.3676123-2.3246524-3.351759-5.4623697-5.6610933-9.2445686-7.1037597-1.9160787-.7308562-3.8648608-1.3792779-5.8140239-2.0187306-.9819794-.3221473-1.9833525-.6472074-3.0011842-.7857894-2.4901308-.339041-4.9923136-.5973627-7.4943642-.8394343-5.2023796-.5033244-10.408889-.9643476-15.6104007-1.4761348-.5286304-.0520096-.7365907.0282866-.8416181.5690946-.5298181,2.7281078-1.8196994,5.0974492-3.5621972,7.2281181-.9951183,1.216809-2.2032902,2.1564658-3.7538806,2.5931412-.1958383.0551531-.3854821.1986304-.5333656.3459708-.5930987.5908823-1.1328365,1.2395436-1.7562522,1.7951068-5.4898266,4.8922336-12.5661546,4.481568-17.8441354-.1448304-1.3761051-1.2062228-2.1960657-2.7935525-2.6628819-4.673985Zm-25.5332961,51.7343339c.3775155,1.1062012.7277135,2.0531902,1.0228417,3.0170361.3756643,1.2268758,1.1698077,1.8755983,2.4377417,2.1162787,1.7890048.3395915,3.5562594.1899039,5.339185.0197604,2.3282829-.2221925,4.6624638-.3819575,6.9919306-.5925682,4.2629547-.3854077,8.5302559-.734058,12.78475-1.1986591,4.7155972-.5149511,9.4062284-1.3039258,14.1311867-1.6743965,4.4669563-.3502501,8.8349186-1.1443285,13.1913205-2.098012,2.8868516-.6319757,5.7612228-1.3318171,8.6657338-1.868473,2.0365165-.376275,4.1163739-.5137558,6.1734524-.7839488,4.6175672-.6064761,9.2113292-1.3351372,13.7615374-2.3581308,4.0018732-.899726,8.0540307-1.5756672,12.0566978-2.472181,1.4048388-.3146408,2.7736776-.897292,4.0788243-1.5242888,1.9487475-.9361805,2.6921359-2.4535285,2.468249-4.5939828-.0413086-.3950012-.1025587-.7906512-.1054117-1.1863644-.0064604-.893889.1784937-1.7055475,1.0007268-2.251051.1356451-.0899928.224361-.364314.2126268-.5455239-.1611526-2.4874252-.3391255-4.9738084-.5257691-7.4594813-.0302285-.4024576-.1224103-.8002597-.2117447-1.3625814-.1663764.2809468-.2510009.4005575-.3123569.5311114-.5280753,1.1238724-1.336925,1.9677876-2.4887313,2.4503416-.8129059.3405695-1.615733.75736-2.4661403.9470787-3.3792877.7538729-6.7708775,1.4550905-10.1665346,2.1325881-5.0190346,1.001393-10.0955381,1.7650238-15.0549594,3.0012939-5.228344,1.3033039-10.491107,2.4129401-15.7627501,3.4963041-2.7658454.5684051-5.5593996,1.0007972-8.3359865,1.5185013-3.4481476.6429216-6.8679361,1.5065034-10.3420672,1.927341-7.5809387.9183104-15.1837391,1.6673439-22.786994,2.3861508-4.5256484.427852-9.0675546.6932659-13.6059873.9683743-.8838932.0535829-1.7497684-.0737474-2.3444665.7667725-.023789.0336219-.0712928.0509076-.1085676.0744976q-.9298116.5886122-.4693594,1.6262232c.0537207.1209848.1129635.2395301.1665437.360583.6228164,1.4071341,1.7240577,2.0824542,3.2423707,2.071567.7713918-.0055286,1.5444638-.0512919,2.3131256-.1197949,4.4415937-.3958167,8.8774118-.8686102,13.3242134-1.1906236,5.0470186-.3654722,10.0761842-.8469024,15.0504047-1.787425,6.9382435-1.3118854,13.868345-2.6667666,20.8038405-3.9932381,2.7092819-.5181644,5.4281775-.98664,8.1347452-1.5182659,3.4208676-.6719534,6.8115041-1.5346234,10.2552388-2.04446,4.7360178-.7011825,9.5075306-1.1671235,14.267914-1.6973493,2.3364968-.260261,4.6074489-.7315471,6.8160202-1.5633608,1.682063-.6335021,3.417852-1.1243929,5.1088299-1.6719508.6451583,1.1502637.3806164,1.8807353-.696524,2.2866233-1.671249.6297933-3.3359068,1.2777798-4.9947654,1.9395633-3.0488617,1.2163053-6.1856779,2.0665598-9.4547921,2.4467098-2.8280081.3288638-5.6703566.6119954-8.46481,1.1365873-6.7870939,1.2741239-13.5511784,2.6711294-20.3220608,4.0309506-2.6176794.5257264-5.2166109,1.1541452-7.8457245,1.6112972-3.4133695.5935105-6.858371,1.0051992-10.2717973,1.5984061-5.8329644,1.0136995-11.6730391,1.9194393-17.6020615,2.1537142-1.9388747.0766078-3.8752636.2766793-5.8060069.4836511-2.4798862.2658534-4.9504536.6180321-7.4297106.8905411-1.9130179.2102724-3.832953.3504957-5.8239713-.4337363Zm-2.2316753-18.2556618c.28771,1.8586415.5150699,3.6684555.8616281,5.455163.2634998,1.3585037.7014321,1.7896765,2.1119982,1.834213,1.6663112.0526038,3.343438-.0771611,5.0096268-.2076266,7.1514729-.5599373,14.3010824-1.1438248,21.4504872-1.7298529,4.0476072-.3317815,8.1144974-.5276258,12.1351278-1.0655176,5.7061301-.7633937,11.398665-1.6729784,17.057809-2.7299133,5.3078568-.9913262,10.560282-2.2766164,15.845914-3.3907495,2.6539026-.5594046,5.3302434-1.0114875,7.9913544-1.5377792,3.9161279-.7744905,7.8285524-1.5677757,11.7408508-2.3614197,1.8796985-.381315,3.7853626-.6764774,5.6261189-1.1981274,2.7864957-.7896661,3.2037055-1.3978912,3.47136-4.2537851.0205513-.2192663.020953-.4403567.0387366-.6599476.068444-.8454833.1854835-1.6697085.8591948-2.295029.094538-.0877576.1663384-.2781947.1434718-.401619-.1555181-.8397169-.3392809-1.6742039-.5248547-2.5628194-.2447385.0908615-.4465316.1662519-.6486412.2407351-3.3087676,1.2193257-6.5588397,2.6456057-9.9414286,3.6047059-4.1104379,1.1654805-8.3235191,1.9801338-12.5095257,2.8645917-2.99905.6336702-6.012051,1.2333957-9.0444496,1.6704738-6.004195.865413-12.0786532,1.1875619-18.0446763,2.3809069-2.6802659.5361173-5.393611.9315776-8.1067666,1.2730729-4.3546236.5480935-8.7143532,1.3217147-13.0848805,1.4193957-7.9441877.1775567-15.7196568,1.5143444-23.5165883,2.7637371-2.484383.3980978-4.9372026.971572-7.4742959.9053902-.4786623-.0124928-.9576593-.0123693-1.447571-.018199Zm102.0438574-25.3617145c-.7594832.1431137-1.4705262.2852062-2.184584.4102042-2.7164785.4755264-5.4477204.8785054-8.1477386,1.4335502-3.9118084.8041626-7.7987894,1.6980727-11.7653414,2.2490573-5.0905764.7071163-10.178023,1.4556249-15.180337,2.7115462-4.0858137,1.0258176-8.1945013,2.0048912-12.3402187,2.7380211-7.1055997,1.2565538-14.2488691,2.2997168-21.3747234,3.4424196-4.7123984.7556756-9.4487987,1.2520207-14.2153104,1.5259897-3.3475148.1924074-6.688185.5247863-10.0263567.8514255-2.2616788.2213022-4.5128379.5487328-6.7707749.8108671-.4936895.0573159-.9961888.0388075-1.5063417.055606.1156503,1.4364478.2277554,2.8145562.3372171,4.1928775.0911298,1.147504.20335,1.4134161,1.3609547,1.4542876,1.6436185.0580312,3.3046311-.0207153,4.9414453-.1968095,3.8157265-.410515,7.6152464-.9742196,11.432491-1.3674912,8.230657-.8479538,16.5252709-.9700338,24.7282158-2.1416368,3.429873-.4898791,6.860389-.9801343,10.2801822-1.5345612,4.2678431-.6919197,8.5208118-1.4752964,12.787882-2.1721815,3.6155073-.590469,7.2456225-1.09128,10.8621087-1.6760379,2.0905356-.3380271,4.1524397-.8998955,6.2525185-1.1227145,5.0033658-.5308661,9.8633679-1.7279158,14.7162551-2.9635676,2.2893489-.5829131,4.4342152-1.5031606,6.0062571-3.4028468.190823-.230587.5023882-.3572542.7269152-.5655625.1259098-.1168123.2860235-.3183777.2637913-.4544748-.2378612-1.4546375-.4289328-2.9263653-1.184507-4.2779677Zm-98.4555903,52.0241922c.0488349,2.0277703,1.2332275,3.6010792,3.2354509,4.1442095,3.7728445,1.023427,7.6145288,1.5157367,11.523613,1.3183985,3.3058664-.1668718,6.6056082-.4685508,9.9124536-.5990835,3.7371261-.1475216,7.4336675-.5197549,11.0956937-1.3075901,3.1262604-.6725696,6.2641626-1.3150916,9.4218639-1.8125465,6.4036072-1.0087986,12.8648766-1.6246993,19.1428572-3.4076144,3.6651984-1.040908,7.4624777-1.6085638,11.1546999-2.5651883,3.3701039-.8731806,6.675487-1.994503,10.0153075-2.9865089,3.5727408-1.0612053,7.1487647-2.1118574,10.7305317-3.1421558,2.0266962-.5829799,3.2954642-2.0777136,4.4243273-3.6919264.5379987-.7692982.8357672-1.706478,1.2256613-2.5322767-1.108461.5742082-2.1658503,1.2117156-3.2933144,1.6808678-1.1356438.4725354-2.3174472.8944238-3.5197097,1.1363481-5.4922561,1.1051399-10.9857106,2.2145362-16.5044822,3.1744037-4.2157343.7332407-8.4780999,1.1945751-12.704487,1.8718692-3.0674653.4915685-6.1375717,1.0228733-9.1575736,1.7418757-5.2173303,1.2421301-10.4233444,2.4556565-15.7664643,3.1036971-4.5060211.5465053-8.9881705,1.3557616-13.4422296,2.2428012-3.3158814.6603707-6.6155244,1.3496485-9.996276,1.5522774-3.8547737.2310459-7.7105075.446186-11.5659698.6657075-.2199267.0125168-.4433984.0228132-.66142-.0008521-1.7468128-.1896211-3.4927034-.387685-5.2705332-.586713Zm1.9643041,12.8227008c-.0514745-.0072977.0755298.0279123.2020002.0260662,2.1183267-.0309268,4.2388305-.016326,6.3544088-.1110609,5.0041675-.2241026,10.012305-.4139072,15.0071682-.7778563,6.3146031-.460091,12.6203191-1.050615,18.9240757-1.6463331,2.0399829-.1927776,4.0533087-.737809,6.093389-.8453516,4.8590897-.2561059,9.5514495-1.381269,14.2594943-2.4560885,4.9431557-1.1284961,9.8824945-2.2736734,14.8259513-3.4008477,2.3845134-.5437043,4.8087943-.9441762,7.154587-1.6195201,4.0226018-1.1580965,8.0161187-2.4261785,11.9859608-3.7551837,2.4050519-.8051409,4.7572479-1.7934682,6.544799-3.7132382.2332939-.2505408.3996141-.6260838.4562105-.9670788.2020619-1.2173635.3316955-2.4465331.5112734-3.6679168.1645363-1.1190604-.2888578-2.0511726-1.3354005-2.6307897-.0745841.1294659-.1562639.2560323-.2233543.3899144-1.4346518,2.8636384-3.6215563,4.9023363-6.7182047,5.7872507-2.7547835.7872062-5.5638908,1.3824648-8.3389898,2.1011061-3.2455498.8404795-6.4684082,1.7707731-9.7225446,2.5754287-4.5180148,1.1171838-9.087546,2.037596-13.5766008,3.2571691-4.5692661,1.2413653-9.1993115,2.1008849-13.8618721,2.8610098-3.8962034.6351898-7.7809909,1.3484999-11.6557772,2.1043236-2.8348189.5529638-5.626949,1.3362192-8.4705349,1.8302626-5.0558907.8784058-10.1841587,1.045535-15.300361,1.2219832-3.3387418.115139-6.6610027-.1973684-9.9034381-1.0612585-1.4420743-.3842037-2.8557652-.8748297-4.3480216-1.3375276-.066309,1.2863815-.2168726,2.5795951.2563065,3.8318023.2427276.6423466.5504036,1.2601644.8794749,2.0037348ZM90.5647644,15.1585416c-1.4150835-.0389871-2.671815.1694774-3.7298204,1.0672238-2.4281695,2.0603677-4.3923095,4.4408177-5.3931376,7.536194-.4682072,1.4480546-1.0067749,2.848327-.9547046,4.4214557.0902267,2.7253963,1.2275536,4.7517811,3.7393908,5.8942958.8991865.4089958,1.8471755.7406691,2.8038115.9882198,3.655039.9458078,7.6887609-.7379034,9.6339452-3.971585.6886213-1.1447653,1.9918277-1.3956884,2.9818583-.5237985.3187221.2806929.5841817.3170328.8621212.0723406.7057181-.6213007,1.5043895-1.1854192,2.0500737-1.9303865,1.3093848-1.7875736,2.0416258-3.8460707,2.406866-6.0287949.071439-.4269504-.0219726-.905414.1341205-1.2897043.4448248-1.0950968.4414934-2.2392696.4862964-3.3770801.053081-1.3480181-.4167736-2.5303198-1.4000764-3.4500234-.8355198-.7814598-1.6866594-1.5725577-2.6360001-2.2005978-2.0108497-1.3302783-4.1972025-1.1070684-6.3742354-.4558808-.4615763.1380667-.4973873.5738155-.0808735.825299,2.283531,1.3787387,3.9424698,3.4493498,5.839052,5.2545304.3401917.3237975.6079521.764507.795119,1.2001984.4919978,1.145215.2109048,1.9900905-.8440659,2.6675107-.9482812.6089144-2.0171006.7980756-3.1101951.6639638-2.2161484-.2718996-4.0568339-1.3469428-5.5602304-2.9422457-1.1264597-1.1953352-1.9112646-2.5956643-1.6493152-4.421135Zm66.2506837,72.4785186c-.3179076.1347355-.5280942.1975554-.7117193.3055696-2.9889875,1.7582812-6.2424133,2.8041901-9.5474256,3.8100253-6.7532496,2.0552731-13.5542968,3.8990087-20.4492569,5.4070634-3.6170044.7911032-7.2236358,1.6295393-10.835424,2.4445255-3.2037108.7229106-6.3993032,1.4855022-9.6155249,2.1478234-1.8340949.3777043-3.7187924.5107441-5.5517808.892722-3.9951306.8325507-7.9623293,1.7853485-12.0504551,2.1058202-4.3548726.3413883-8.7077633.7230085-13.0527663,1.1717694-5.37348.5549597-10.7518946.5047374-16.1360463.3097106-1.5879606-.057509-3.1751548-.1383933-4.7634287-.1820105-.1646402-.0045197-.4365879.1353625-.4859701.2710706-.5702773,1.5672373.0260505,3.1518309,1.6108281,3.6957122,1.2702666.4359381,2.6584001.7373281,3.9943226.7376061,6.056693.0012896,12.0630851-.7669141,18.0773762-1.38623,1.0314448-.1062107,2.0758497-.1643885,3.0870528-.375223,3.4979619-.7293369,6.9837399-1.5171163,10.4744917-2.2810986,3.749426-.8205858,7.4668275-1.8644398,11.2559427-2.4099817,6.90991-.9948334,13.7323733-2.4021019,20.5646974-3.7910674,5.6198266-1.142487,11.2493139-2.2452793,16.8957974-3.245676,2.8200991-.4996372,5.6869523-.7375305,8.5341546-1.0816765,2.9919453-.361638,5.6370465-1.3025847,7.1544326-4.1831746.1018663-.193397.2592112-.3568131.3811291-.5405366.7389261-1.1133584,1.0431285-2.3591127,1.1695728-3.8227433Zm33.8728066,10.778186c-.5456025-.0984929-.8812179-.1804746-1.2217107-.21705-2.1945813-.2358456-4.3607065.0004325-6.5142827.416152-2.3154638.4469501-4.6248985.9282839-6.9478522,1.3319749-1.1258631.1956575-2.2831878.2052629-3.4140682.3787-.9563366.1466693-1.893447.415876-2.8419432.61721-2.7596609.5857796-5.5493817,1.0559109-8.274482,1.7723351-3.8989572,1.0250375-7.7527945,2.222207-11.6226055,3.3571845-2.962701.8689403-5.9065759,1.805276-8.8834012,2.622101-4.233313,1.1616081-8.4917162,2.231414-12.7346643,3.35828-4.670452,1.2404054-9.1365532,3.2049945-13.9596057,3.9140439.1862709.0322467.3626217.0254034.5369331.0029035,2.4722976-.3191031,4.9377105-.709312,7.4177508-.9470555,5.6575084-.5423742,11.2042644-1.7375908,16.7750408-2.7803441,4.7729643-.8934235,9.5444107-1.7432357,14.3733096-2.3074326,3.4570891-.4039122,6.902391-1.0076243,10.3069084-1.7370766,4.0740656-.8729154,8.0936792-1.9971996,12.1469632-2.9706651,3.7947433-.9113748,7.4009208-2.3336456,10.9496537-3.921542,1.4438115-.6460348,2.6891854-1.5663097,3.9080562-2.8897192Zm-105.5828037,21.632401c.4507739.996085.1706272,1.4701708-.8890734,1.5939663-.1314014.0153556-.2639204.0303308-.3959074.0302532-2.9525301-.0020416-5.9051221-.0194611-8.8575545-.0040678-1.3548961.0070639-2.7128953.0323068-4.0630787.1341759-1.0595491.0799375-2.1092603.2903286-3.1633379.4427588.0037628.0669864.0075221.1339811.0112849.2009674.2089881.0340749.4170558.0757086.6270937.1011115,3.3086475.4001276,6.6265808.6330926,9.9623236.6147501,2.8664952-.0157563,5.7416127.1524536,8.597766-.0166403,3.7508597-.2220633,7.4303856-.9974652,11.0286935-2.096855,2.2067481-.6742207,4.4616724-1.1993014,6.4248705-2.5513203.689832-.4750635,1.6533656-.5527929,2.4918294-.8122735,1.1720076-.3627142,2.3439255-.7257375,3.5158866-1.0886264-.0126085-.0617006-.025209-.1234019-.0378102-.1851113-.7209341-.0096757-1.4453795-.0698155-2.1621527-.0198514-2.4448054.1704312-4.7398901-.2237294-6.8295748-1.5890707-1.2130089-.7925477-2.5772779-1.085666-3.9922812-.784941-2.1772789.462755-4.3357868,1.0140826-6.5011503,1.5324473-2.7864382.6670641-5.5428204,1.4654436-8.4311865,1.6372282-1.2019197.071484-2.3929941.3253279-3.5890002.4962561l.0129436.1761822c1.6051632-.0359062,3.2105823-.1053073,4.8153641-.0927552.7377024.0057713,1.4961458.0969807,2.2003991.3026664.2840403.0829553.6209755.5780784.6171924.8816957-.003607.2890797-.3894393.6083896-.6659695.846104-.1687432.1450585-.4484626.1611081-.7275701.2509497Zm7.6846135-104.6750086c.5578602.9879184,1.0675853,2.0131907,1.6924232,2.9627461.6282111.9546804,1.5415163,1.6269914,2.5830212,2.1020236.6803027.3102935,1.3778101.425743,2.1131489.1446446.8699493-.3325606.940172-.5830949.2715536-1.2223847-1.1138924-1.0650323-2.2140729-2.14614-3.3643806-3.1707126-.683758-.6090109-1.4523613-1.1228138-2.1556729-1.6587453-.4068678.3006385-.72031.5322456-1.1400933.8424283Zm-6.0962814-7.7488714c.8297514.7442686,1.5592179,1.4375153,2.3317663,2.0789023.5912419.4908658,1.2262912.9321337,1.8665344,1.3584216.1433643.09545.3897454.0362743.5886954.0482826-.0279685-.1915283.0106294-.4382139-.0948858-.5654843-.6030028-.7273137-1.1934794-1.4758601-1.87854-2.121401-.7499082-.7066569-1.6882829-.9791633-2.8135703-.7987212Zm-17.6201428,111.8046374c-1.3404762-.3727352-2.5363614-.743391-3.7536928-1.0196413-.3478744-.0789431-.7578898.1157551-1.1394135.1849741.0056888.0839577.0113817.1679151.0170705.2518728,1.5403323.5107498,3.1479119.5297423,4.8760358.5827944Zm2.988917-2.2920163c.0016913.056068.0033827.112136.005066.1682046,1.0927507.0969979,2.1854934.1939964,3.278236.2909949l.0149766-.1824198c-1.0994262-.0922599-2.1988524-.1845198-3.2982785-.2767797Z" stroke-width="0"/>
  </g>
</svg>