<?xml version="1.0" encoding="UTF-8"?>
<svg id="Layer_2" data-name="Layer 2" xmlns="http://www.w3.org/2000/svg" viewBox="0 0 105.6332176 90.2091328">
  <g id="Layer_1-2" data-name="Layer 1">
    <g>
      <path d="m105.5254088,32.6915499c-.0996094-2.4902344-.8691406-4.8339844-1.5292969-6.5966797-.6113281-1.6386719-1.1533203-3.4169922-.9707031-5.3164062.0664062-.6982422-.0634766-1.5234375-.3652344-2.3242188-.6533203-1.7353516-1.7099609-3.1660156-3.1416016-4.2509766-.3271484-.2490234-.6591797-.4912109-.9902344-.734375-.5986328-.4384766-1.1982422-.8769531-1.7685547-1.3486328-2.3476562-1.9453125-4.7666016-3.3183594-7.3925781-4.1992188-1.6220703-.5439453-2.7792969-1.2128906-3.6435547-2.1054688-1.2060547-1.2480469-2.6777344-2.2666016-4.7714844-3.3027344-1.5429688-.7626953-3.1982422-1.1806641-4.7998047-1.5849609-.4042969-.1025391-.8076172-.2041016-1.2099609-.3115234-1.2685547-.3398438-2.9472656-.7148438-4.6640625-.5927734-2.6279297.1875-5.0400391.4208984-7.375.7138672-1.0878906.1367188-2.3525391.2617188-3.578125.0078125-1.0712891-.2226562-2.0019531-.1982422-2.8447266.078125l-1.0576172.3408203c-1.5107422.4853516-3.0722656.9863281-4.5576172,1.6357422-4.4101562,1.9277344-8.3710938,4.4775391-11.3291016,6.4824219-2.3544922,1.5976562-4.8828125,3.3789062-7.9550781,5.6064453-2.3662109,1.7148438-4.2792969,3.8154297-5.6884766,6.2451172-.6347656,1.0947266-1.2275391,2.0644531-2.0361328,2.8466797l-.4414062.4238281c-.4492188.4306641-.8984375.8613281-1.3330078,1.3056641-2.3759766,2.4267578-4.3535156,5.1933594-6.1347656,7.8203125-.2929688.4316406-.5302734.9072266-.7207031,1.2880859-1.2285156,2.4570312-2.0556641,5.0839844-2.8544922,7.6230469l-.4785156,1.5087891c-.265625.8242188-.5234375,1.5556641-.9951172,2.1660156-.8632812,1.1171875-1.4589844,2.4472656-1.8212891,4.0664062-.2001953.8925781-.5322266,1.7255859-.9609375,2.4101562-1.75,2.796875-2.2138672,5.7871094-1.4160156,9.1435547.2880859,1.2109375.2734375,2.4482422.2578125,3.7587891l-.0058594.5761719c0,.0947266-.0146484.1845703-.0410156.2490234-.1552734.3837891-.2919922.7763672-.4287109,1.1679688-.3681641,1.0605469-.7167969,2.0625-1.4443359,2.8798828-.96875,1.0908203-1.4160156,2.4384766-1.2587891,3.7958984.1005859.8652344-.1328125,1.484375-.7773438,2.0664062-.0898438.0800781-.1689453.1708984-.2470703.2646484l-.0751953.0869141c-1.4765625,1.6337891-2.3193359,3.2988281-2.5751953,5.0898438-.2060547,1.4443359-.2314453,3.0849609,1.1201172,4.328125.4414062,1.0185547,1.1738281,1.8476562,2.1191406,2.3974609.8808594.5136719,1.8212891.9179688,2.7304688,1.3095703l.1367188.0595703c.6865234.2949219,1.4091797.4433594,2.1611328.4423828.4306641,0,.8720703-.0478516,1.3203125-.1455078l1.7802734-.3808594c1.2529297-.2666016,2.5058594-.5332031,3.7539062-.8212891,1.5634766-.3613281,3.0761719-.6660156,4.6601562-.6494141.9746094.0273438,1.8193359-.0908203,2.5537109-.328125l.8662109-.2744141c1.7939453-.5664062,3.6494141-1.1523438,5.3632812-2.1171875.4697266-.2636719,1.0419922-.46875,1.7011719-.609375,1.5234375-.3251953,3.2021484-.5029297,5.1298828-.5429688,1.09375-.0214844,2.1054688-.1337891,3.0068359-.3339844,2.3847656-.5283203,4.6054688-1.5761719,6.6513672-2.6308594,1.4404297-.7421875,2.4541016-1.8642578,3.0146484-3.3320312.234375-.6142578.5888672-1.1113281,1.0537109-1.4765625.5625-.4433594,1.1738281-.90625,1.8300781-1.2919922,1.4101562-.828125,2.3623047-1.9023438,2.9101562-3.2832031.3242188-.8173828.8554688-1.6005859,1.6728516-2.4667969l.1318359-.1396484c.2626953-.2753906.5341797-.5605469.7636719-.8974609.5546875-.8144531,1.3701172-1.3027344,2.6435547-1.5859375.6679688-.1484375,1.4365234-.3378906,2.1044922-.7177734,1.6123047-.9169922,3.2714844-1.9619141,4.2333984-3.7197266.0029297,0,.0361328-.0039062.1259766.0097656,1.3681641.2109375,2.7373047.4121094,4.1123047.5839844,2.0605469.2568359,4.0478516-.2001953,6.0839844-1.3945312.1669922-.0976562.3320312-.1992188.4960938-.3017578.3544922-.2216797.6894531-.4296875,1.0371094-.5830078,2.1777344-.9609375,3.7714844-2.5214844,5.4941406-4.5693359.421875-.5.8164062-1.0234375,1.2109375-1.5458984.2998047-.3974609.5986328-.7949219.9111328-1.1816406.6542969-.8105469,1.4697266-1.1484375,2.5712891-1.0751953,1.2177734.0849609,2.1992188.0878906,3.0859375.0087891,1.4785156-.1308594,3.0615234-.3349609,4.8408203-.6240234.7841797-.1259766,1.5341797-.4003906,2.1650391-.6523438,2.3134766-.9248047,4.1035156-2.4443359,5.3193359-4.5146484l.1953125-.2617188c.1611328-.2128906.3125-.4140625.4560547-.6220703,1.3427734-1.9492188,1.9785156-3.7158203,1.9990234-5.5585938.0302734-2.6865234-.0009766-5.1367188-.0966797-7.4902344Zm-55.4384766,40.0019531c-.9404297.5380859-1.8271484,1.1269531-2.4941406,1.5800781-.9287109.6298828-1.6455078,1.5244141-2.1904297,2.7333984-.2861328.6347656-.7294922,1.1347656-1.3955078,1.5761719-1.8476562,1.2246094-3.9501953,1.7910156-5.7626953,2.1845703-.6757812.1464844-1.3681641.2128906-2.1015625.2832031-.2646484.0253906-.5292969.0507812-.7929688.0791016-.5341797.0595703-1.0703125.1113281-1.6064453.1621094-1.1386719.1074219-2.3173828.2197266-3.4726562.4169922-.8378906.1435547-1.7363281.4628906-2.8261719,1.0058594-1.59375.7939453-3.3193359,1.3740234-4.9882812,1.9345703l-.7871094.265625c-.5107422.1738281-1.1064453.1982422-1.7363281.2226562-.2929688.0117188-.5849609.0234375-.8740234.0498047l-2.0712891.1855469c-.7490234.0664062-1.4990234.1328125-2.2490234.2021484-.4863281.0458984-.9726562.1074219-1.4570312.1679688l-1.1494141.1416016c-.8681641.1035156-1.7363281.2070312-2.5976562.3525391-.8691406.1464844-1.6044922.0996094-2.3085938-.1445312-.3681641-.1289062-.7675781-.2265625-1.296875-.3173828-.5117188-.0878906-.9326172-.3330078-1.2851562-.7490234l-.0820312-.1083984c-.0732422-.0996094-.1640625-.2246094-.2900391-.3359375-.2177734-.1943359-.2988281-.3642578-.1386719-.7548828.1035156-.2539062.0839844-.5.0693359-.6796875-.0029297-.0449219-.0078125-.0898438-.0068359-.1337891l.0087891-.9521484-.2597656.1054688c.6132812-1.0664062,1.4101562-2.0361328,2.3691406-2.8798828.4824219-.4228516.8994141-.9091797,1.2080078-1.40625.6669922-1.078125.7558594-2.28125.2519531-3.3876953-.4785156-1.0507812-.3740234-2.0400391.3310547-3.1123047.7070312-1.0761719.9853516-2.2675781,1.1484375-3.1865234.3457031-1.9511719.2705078-3.9091797.1982422-5.8037109l-.0292969-.7900391c-.0664062-1.9658203.4414062-3.8105469,1.5537109-5.6386719l.2519531-.4111328c.7236328-1.1777344,1.4726562-2.3964844,1.8115234-3.8427734l.0527344-.1992188c.0556641-.1992188.1191406-.4257812.1298828-.6787109.0429688-1.0195312.5029297-1.9169922,1.4892578-2.9111328,1.0791016-1.0839844,1.8691406-2.4150391,2.4863281-4.1875.453125-1.296875.8925781-2.5966797,1.3320312-3.8974609l.2714844-.8037109c.6269531-1.8574219,1.4033203-3.3798828,2.3730469-4.6542969l1.109375-1.4619141c1.046875-1.3818359,2.0927734-2.7636719,3.1669922-4.125.3203125-.4072266.7197266-.7666016,1.1416016-1.1484375l.3662109-.3339844c1.2978516-1.203125,2.3017578-2.4882812,3.0673828-3.9277344.921875-1.7324219,2.1972656-3.296875,3.8984375-4.78125,2.4833984-2.1660156,4.9375-4.2617188,7.6679688-6.0878906.7675781-.5136719,1.5302734-1.0332031,2.2929688-1.5527344,1.2548828-.8564453,2.5107422-1.7119141,3.7841797-2.5380859,2.8925781-1.875,5.9824219-3.2939453,9.1835938-4.2167969.6904297-.1972656,1.2675781-.2421875,1.8115234-.140625,1.4755859.2802734,3.046875.2695312,4.9453125-.0380859.7646484-.1230469,1.5361328-.1640625,2.3535156-.2080078.3818359-.0205078.7646484-.0410156,1.1455078-.0703125l.5068359-.0371094c.5234375-.0380859,1.046875-.0751953,1.5664062-.1416016,1.4277344-.1777344,2.8642578-.0712891,4.3867188.3339844l1.0341797.28125c.6611328.1816406,1.3222656.3632812,1.9882812.5244141,1.6591797.4023438,3.2675781,1.1132812,4.9179688,2.1738281.5273438.3398438.9970703.7138672,1.3964844,1.1123047,1.3359375,1.3330078,2.9560547,2.3691406,4.8144531,3.0791016,2.3632812.9033203,4.6171875,2.1767578,6.6992188,3.7851562.5097656.3935547,1.0361328.765625,1.5625,1.1376953.7294922.515625,1.484375,1.0488281,2.1640625,1.6259766.5625.4785156,1.0058594,1.1748047,1.4462891,1.9052734.1738281.2880859.2724609.7070312.234375.9960938-.3691406,2.8242188.4716797,5.4794922,1.2128906,7.8212891.5810547,1.8339844.7753906,3.4433594.6123047,5.0664062-.1953125,1.9355469-.2001953,3.8984375-.2050781,5.6298828-.0039062,1.7714844-.5605469,3.4277344-1.7011719,5.0634766-.9716797,1.3935547-2.2529297,2.546875-3.8085938,3.4296875-.5166016.2929688-1.1621094.4658203-1.7861328.6337891l-.0976562.0263672c-.5927734.1582031-1.1923828.2910156-1.7919922.4238281-.4365234.0966797-.8720703.1923828-1.3056641.2988281-1.3574219.3300781-2.4697266.4619141-3.5087891.40625-1.7880859-.0791016-3.3105469.5976562-4.5078125,2.0449219-.390625.4716797-.7578125.9638672-1.1240234,1.4560547-.4023438.5410156-.8173828,1.0996094-1.2558594,1.6103516-1.4941406,1.7421875-2.8134766,2.8320312-4.2792969,3.5351562-.6035156.2900391-1.1943359.6064453-1.7841797.9238281l-.2050781.1103516c-1.2021484.6455078-2.5273438.8925781-4.0507812.7587891-.6806641-.0605469-1.3603516-.1357422-2.0400391-.2099609-.4863281-.0527344-.9716797-.1064453-1.4580078-.1542969-.3466797-.0351562-.7519531-.0673828-1.1601562-.0488281-.8447266.0478516-1.5507812.4404297-2.0400391,1.1376953-.2363281.3369141-.4482422.6914062-.6591797,1.0458984-.3427734.578125-.7724609,1.0126953-1.3125,1.3261719-.3349609.1933594-.65625.390625-.9150391.6835938-.4990234.5634766-1.1513672.8066406-2.1083984,1.0380859-1.0146484.2441406-2.2988281.6542969-3.2392578,1.6630859l-.3632812.3876953c-1.2578125,1.3398438-2.5585938,2.7246094-3.3623047,4.5234375-.2763672.6191406-.765625,1.1230469-1.4941406,1.5400391Z" stroke-width="0"/>
      <path d="m60.2168151,57.9854952c1.6679688-1.8466797,3.7841797-3.0966797,6.2890625-3.7158203,1.9375-.4794922,3.9423828-.9755859,5.8681641-1.96875,3.0292969-1.5615234,5.5683594-3.3710938,7.7910156-5.5605469,1.3671875-1.3466797,2.6582031-2.6191406,4.2958984-3.4892578.4570312-.2441406.9189453-.5947266,1.4111328-1.0712891,2.2275391-2.1650391,3.59375-4.8125,4.0585938-7.8691406.2685547-1.7666016.0146484-3.4873047-.7539062-5.1162109-.6142578-1.3027344-1.5214844-2.3505859-2.4091797-3.2900391-.7451172-.7861328-1.2636719-1.5761719-1.5830078-2.4130859l-.1503906-.3925781c-.2832031-.7421875-.5771484-1.5087891-.8173828-2.2666016-.4726562-1.4990234-1.4072266-2.7167969-2.7763672-3.6210938-2.2919922-1.5126953-4.7890625-2.5664062-7.421875-3.1318359-1.9775391-.4248047-3.6513672-1.03125-5.1171875-1.8525391-2.6074219-1.4599609-5.3310547-1.984375-8.3251953-1.6162109-3.0146484.3759766-5.9365234.6210938-8.6835938.7275391-2.984375.1162109-5.9765625.9394531-8.8925781,2.4482422-3.8447266,1.9892578-7.0146484,4.6591797-9.4404297,7.9619141-1.3994141,1.9052734-2.8466797,3.875-4.3320312,5.7548828-2.5078125,3.1708984-3.9091797,6.8066406-4.2832031,11.1162109-.0380859.4375-.0810547.8759766-.125,1.3134766-.0576172.5839844-.1152344,1.1679688-.1611328,1.7529297-.0429688.5507812-.2333984.9628906-.5830078,1.2597656-.7607422.6455078-1.5429688,1.2666016-2.3310547,1.8808594-.2753906.2148438-.5595703.4189453-.84375.6240234-.5146484.3701172-1.046875.7519531-1.53125,1.2001953-1.296875,1.1992188-2.0625,2.7353516-2.7353516,4.2041016-.8769531,1.9111328-1.9306641,3.4755859-3.2226562,4.7832031-2.4042969,2.4335938-3.4667969,5.3056641-3.1611328,8.5371094.1708984,1.8037109.5449219,3.6005859.90625,5.3378906l.0283203.1376953c.2480469,1.1962891.9443359,2.1191406,2.0224609,2.6865234-.1162109.4150391-.0722656.9433594.421875,1.5332031l.1035156.125c.2080078.2490234.4169922.4980469.6494141.7197266l.4169922.3955078c.7666016.7207031,1.4902344,1.4023438,2.0205078,2.2529297.9394531,1.5058594,2.4316406,2.3027344,4.4345703,2.3681641.1035156.0039062.2060547.0048828.3095703.0048828,1.5146484,0,2.9912109-.3642578,4.3945312-1.0859375,1.3671875-.7041016,2.6650391-1.5615234,3.9335938-2.3994141,1.3837891-.9140625,2.7167969-1.4453125,4.0751953-1.6220703,1.6767578-.2177734,3.1533203-.3544922,4.5136719-.4160156,4.1318359-.1875,7.9589844-1.7089844,11.375-4.5244141,1.2763672-1.0507812,2.4677734-2.2265625,3.6201172-3.3642578.4628906-.4560547.9248047-.9121094,1.3925781-1.3613281,1.1611328-1.1123047,2.1904297-2.4345703,3.3359375-4.2861328.6015625-.9736328,1.2792969-1.8789062,2.0126953-2.6914062Zm-44.9804688.0712891c.2060547-.2666016.4042969-.5380859.6015625-.8085938l.2695312-.3671875c1.1318359-1.2890625,2.0175781-2.7763672,2.7089844-4.5458984.8769531-2.2470703,2.484375-3.9042969,4.7783203-4.9257812,1.3027344-.5791016,2.4863281-1.4414062,3.6181641-2.6357422.6201172-.6533203,1.0302734-1.3779297,1.2207031-2.1552734.3085938-1.265625.5761719-2.4101562.7294922-3.5966797.3955078-3.0449219,1.1025391-5.2451172,2.2929688-7.1337891,1.0478516-1.6640625,1.953125-2.9785156,2.8476562-4.1357422l.3574219-.4628906c1.1962891-1.5517578,2.4335938-3.15625,3.8193359-4.5332031,2.5371094-2.5224609,5.1123047-4.3056641,7.8720703-5.4521484.296875-.1230469.5927734-.2509766.8886719-.3798828.6298828-.2734375,1.2246094-.53125,1.8427734-.7451172.8623047-.2978516,1.7480469-.5371094,2.6318359-.7099609,1.6259766-.3193359,2.9863281-.5419922,4.2802734-.7011719,2.2626953-.2783203,4.6845703-.5615234,7.0625-.7431641,1.3476562-.1113281,2.7226562.2802734,4.4267578,1.25,1.3378906.7597656,2.8613281,1.3242188,4.6572266,1.7236328,2.6708984.5927734,4.7177734,1.3652344,6.4414062,2.4296875.46875.2890625.9052734.5996094,1.2998047.921875.4912109.4033203.8173828.8964844.9960938,1.5068359.1269531.4316406.265625.859375.4042969,1.2871094.1191406.3671875.2373047.7333984.3486328,1.1015625.4589844,1.5253906,1.2128906,2.8925781,2.3056641,4.1806641.6728516.7919922,1.2460938,1.5869141,1.7021484,2.3642578.4677734.7949219.6181641,1.7421875.4726562,2.9794922-.2460938,2.0888672-1.1191406,3.9248047-2.6708984,5.6132812-.2890625.3144531-.5966797.5703125-.8896484.7402344-1.7177734.9960938-3.1240234,2.3505859-4.4833984,3.6591797l-.7705078.7373047c-.9404297.8886719-1.6894531,1.5273438-2.4306641,2.0693359l-.4257812.3134766c-1.3994141,1.0292969-2.7197266,2.0009766-4.2460938,2.6933594-1.1621094.5283203-2.1513672.8681641-3.1123047,1.0703125-2.4931641.5253906-4.4013672,1.2587891-6.0039062,2.3085938-2.0263672,1.3261719-3.8066406,3.0644531-5.4414062,5.3115234-.5732422.7861328-1.2382812,1.5429688-1.8818359,2.2753906-.3144531.3574219-.6279297.7148438-.9335938,1.0771484-1.3369141,1.5820312-2.8925781,3.1289062-4.8964844,4.8681641-2.3759766,2.0615234-4.9150391,3.3583984-7.7617188,3.9638672-1.3398438.2851562-2.7304688.4023438-4.0751953.5166016-.8623047.0732422-1.7255859.1464844-2.5839844.2607422-1.8076172.2402344-4.1416016.7109375-6.1630859,2.2402344-1.1689453.8837891-2.5859375,1.5390625-4.2109375,1.9492188-.5458984.1376953-1.1777344.1933594-1.9355469.1835938-.546875-.0117188-1.0205078-.2802734-1.4072266-.7998047l-.1748047-.2353516c-.4238281-.5703125-.8632812-1.1601562-1.3515625-1.7080078-.7119141-.7998047-1.6152344-1.2783203-2.4052734-1.6640625-1.2246094-.5976562-1.8349609-1.3017578-1.9794922-2.2832031-.0585938-.3955078-.125-.7900391-.1914062-1.1845703-.1259766-.7441406-.2548828-1.5146484-.3222656-2.265625-.2685547-3.0136719.34375-5.4423828,1.8720703-7.4238281Z" stroke-width="0"/>
      <path d="m47.4531432,49.4923311c.8671875.3554688,1.7636719.5332031,2.6835938.5332031,1.171875,0,2.3837891-.2880859,3.6240234-.8652344,1.8857422-.8798828,3.4960938-2.2128906,4.921875-4.0742188l.0039062-.0058594c.8945312-1.1962891,1.421875-2.3945312,1.6113281-3.6630859.3945312-2.6445312-.8320312-4.8476562-3.28125-5.8935547-1.2402344-.5302734-2.5253906-.7734375-3.8271484-.7265625-2.1572266.0810547-3.7783203.8066406-4.9492188,2.2158203-1.2275391-.1708984-1.9814453.7324219-2.3125,1.1357422-1.1689453,1.4189453-1.9013672,3.0371094-2.1767578,4.8066406-.4248047,2.7333984,1.1328125,5.4824219,3.7021484,6.5371094Zm7.859375-8.7304688c-.1015625.3486328-.2705078.6953125-.4492188,1.0615234-.0703125.1445312-.1396484.2880859-.2070312.4326172-.8857422.9492188-1.7255859,1.6435547-2.6357422,2.1806641-.7558594.4462891-1.6074219.6445312-2.5996094.5878906-.9433594-.0478516-1.6416016-.7919922-1.6259766-1.7304688.0195312-1.1484375.4238281-2.1943359.8320312-3.0751953l.0244141-.0146484c.0869141-.0244141.2666016-.0751953.4169922-.2412109.4970703-.546875,1.1279297-.5859375,2.1123047-.4667969l.4912109.0595703c.7949219.0957031,1.5898438.1914062,2.3808594.3046875.2666016.0380859.5507812.1103516.8691406.2216797.4882812.1728516.5097656.2763672.390625.6796875Z" stroke-width="0"/>
      <path d="m55.7646666,22.7931124c.2734375.1191406.6035156.1083984,1.0195312-.0419922l1.7958984-.1572266c1.4091797-.1269531,2.8183594-.2529297,4.2294922-.3388672,2.9570312-.1767578,5.53125.4541016,7.8798828,1.9316406.9638672.6054688,1.6152344,1.3515625,1.9921875,2.2802734.2626953.6494141.5019531,1.3085938.7363281,1.9697266.5283203,1.4882812,1.4033203,2.6328125,2.6015625,3.4023438l.1855469.1416016c.1757812.1367188.3525391.2724609.5419922.3876953.5927734.3603516,1.1728516.5380859,1.7626953.5371094.1357422,0,.2724609-.0087891.4091797-.0273438.6738281-.0927734,1.1855469-.4042969,1.4394531-.8769531.1757812-.3291016.3095703-.8789062-.0556641-1.6367188-.2177734-.4521484-.5322266-.9111328-.9091797-1.3242188-1.1669922-1.2880859-2.3466797-2.7275391-3.0673828-4.53125-.5166016-1.2939453-1.4648438-2.4072266-2.7412109-3.2177734-1.6396484-1.0429688-3.34375-1.7519531-5.0664062-2.1083984-3.765625-.7773438-7.7109375-.3984375-12.4150391,1.1923828-.1513672.0517578-.6601562.2558594-.8300781.7216797-.1337891.3701172-.140625.8095703-.0175781,1.1474609.0917969.2509766.2724609.4453125.5087891.5488281Z" stroke-width="0"/>
      <path d="m25.4707213,66.0597139c1.6103516.9941406,3.4921875,1.5683594,5.7539062,1.7548828.1523438.0126953.3027344.0185547.4511719.0185547.7197266,0,1.3984375-.1445312,2.0244141-.4306641.6923828-.3173828,1.1855469-.8476562,1.4667969-1.5791016.1210938-.3183594.1123047-.6025391-.0263672-.8427734-.2128906-.3662109-.6123047-.4296875-.7441406-.4511719-.2900391-.0458984-.546875-.1113281-.7636719-.1953125-.4316406-.1679688-.859375-.3486328-1.2871094-.5283203-.2851562-.1201172-.5712891-.2402344-.8574219-.3574219l-1.2109375-.4853516c-.8085938-.3222656-1.6171875-.6435547-2.4160156-.9912109-.4267578-.1855469-.8388672-.4804688-1.1513672-.7167969-.4355469-.3300781-.6044922-.7265625-.5146484-1.2138672.1357422-.7412109.2958984-1.3691406.4902344-1.9199219.4951172-1.40625,1.3164062-2.6894531,2.0556641-3.7607422.2021484-.2929688.3583984-.8916016.0732422-1.3046875-.2324219-.3359375-.7314453-.5615234-1.1611328-.5205078-.3730469.0332031-.7685547.2109375-1.0595703.4746094-.4052734.3681641-.7910156.7578125-1.1767578,1.1464844l-.4433594.4443359-.0830078.1025391c-.9814453,1.4980469-1.6894531,2.9941406-2.1669922,4.5722656-.4921875,1.6328125-.3320312,3.1464844.4765625,4.4990234.5527344.9267578,1.3164062,1.6953125,2.2705078,2.2851562Z" stroke-width="0"/>
    </g>
  </g>
</svg>