<?xml version="1.0" encoding="UTF-8"?>
<svg id="Layer_2" data-name="Layer 2" xmlns="http://www.w3.org/2000/svg" viewBox="0 0 104.7980932 273.7460375">
  <g id="Layer_1-2" data-name="Layer 1">
    <g>
      <path d="m23.3786216,217.5096581c.2846456.6672092.6970744,1.3099565.8331969,2.00562.87831,4.4890746,1.7767905,8.9774152,2.5065039,13.4907869.509415,3.1508639,1.0608064,6.2676881,1.9770811,9.3380338.5799801,1.9435122.8229502,3.9952994,1.1560744,6.0081375.0904889.5466959.0338895,1.1486937-.0848351,1.689627-.2700712,1.2304213-1.0914122,1.4239034-1.9440187.508059-.0682577-.073331-.1434709-.1393474-.290799-.281448.1962401.8719588.3691559,1.6402804.5753006,2.556249,1.1119658-1.6241238,2.6908672-2.0801889,4.3057457-2.4644557,2.236835-.5322624,4.4697889-1.0088193,6.8161056-.780437,2.3078176.2246276,4.379782,1.1754187,6.4254103,2.2543018,4.7552771,2.5079703,9.7323868,3.933251,15.0083667,3.9653784,4.0941235.0249339,7.6628586-1.2546575,10.5462986-4.3490397.8683781-.9319014,1.8117748-1.7846484,2.712437-2.6830803,2.5333241-2.5270906,5.6632511-3.9636717,8.8315426-5.3595995,1.5384509-.6778082,2.9939278-1.5564342,4.4869608-2.344201,1.6271004-.8584907,3.2541876-1.7170398,4.8337289-2.5504644-2.4518958-2.1390649-2.9337137-5.2500031-3.2796554-8.2999435-.5619009-4.953704-1.3180273-9.866663-2.2143824-14.7734736-.654476-3.5826521-1.0023417-7.2212555-1.4347391-10.8404049-.1533918-1.2839011.2220667-1.9393079.966799-2.0801739.7437893-.1407151,1.3593037.3353892,1.6847156,1.5698551.5413958,2.0536146.9690752,4.1376298,1.4545745,6.2065045,1.151294,4.9060878,2.2905419,9.8151731,3.4769054,14.7127136.268213,1.107231.6585876,2.1934953,1.0802993,3.2523292.8283701,2.0798088,1.196889,4.2371059,1.2894633,6.4545011.0544221,1.3035561-.0472588,2.5549835-1.0632041,3.488772,1.9922721.7906451,2.2791658,2.3847046.6442411,3.7102303-1.9017688,1.5419132-4.0928202,2.513228-6.4022943,3.2489626-3.426528,1.091643-6.8251519,2.2754376-10.2261028,3.4488918-1.480584.5108461-2.6554689,1.5359327-3.7402496,2.6678772-1.1152767,1.1637074-2.2113172,2.3491307-3.2894335,3.5517163-1.9964241,2.2269081-4.5003373,3.3119886-7.3476048,3.8443481-6.8076506,1.2728609-13.1658122-.4050039-19.327947-3.6104571-.8827989-.459202-1.7771221-.8929569-2.653543-1.3658701-2.6055739-1.4058414-5.2943858-1.4694116-8.0213486-.7978106-1.1135961.2742325-2.2039996.6430477-3.3156694.9260945-.5856917.1491431-1.1944658.206236-1.9406969.3292916.597147,1.763102,1.22233,3.6682271,1.8878698,5.5583772.7493147,2.1280653,1.5865859,4.2251644,2.2813704,6.3709852.310629.9593774.366939,2.0047164.5620769,3.1483007.100874.0134499.3696505.0702964.6389905.082148,6.4231981.2823415,12.8343024.3203131,19.2281525-.2529121,2.8432037-.2549117,5.7408368-.0937288,8.5547404-.5024095,3.4003974-.4938221,6.7395615-1.3854511,10.1027951-2.1160778,5.5944329-1.2153205,10.8564496-3.3684199,15.9817848-5.9245447,1.1177045-.5573986,2.3162039-.9543062,3.5038413-1.3409126.5934398-.1931566,1.2565073-.3294946,1.8702746-.2585083,1.4227544.1645515,2.0791557,1.8810914,1.1500538,3.0059065-.4195307.5079291-.9898446.9413155-1.5760085,1.2154918-3.5657015,1.667868-7.1134851,3.3886224-10.7461665,4.8888595-8.1601772,3.3700573-16.7203189,4.8996953-25.5234718,5.2201676-4.4148085.1606874-8.8241071.468222-13.242716.4933189-3.1661232.0179702-6.3451979-.2834464-9.5150237-.5259337-1.0118234-.0774185-2.041332-.3265853-3.0085492-.6782797-.6800227-.24723-1.3518715-.7079348-1.8770298-1.2406902-.6925766-.7025792-.6100337-1.5661415-.014219-2.3335839.1261928-.1625752.2314836-.5138313.1508714-.6638064-1.6102276-2.9958218-2.3186504-6.3174406-3.3668502-9.5211595-2.0958989-6.4058523-3.5357098-12.9798212-5.1697627-19.506351-.9060195-3.6186821-1.9515592-7.2018928-2.9310382-10.801976-1.4160135-5.2045761-2.7764536-10.4254649-4.2604663-15.6099499-1.1540242-4.0316192-2.52199-7.9999493-3.6855362-12.0289754-1.983008-6.8666006-3.3689951-13.869672-4.5930525-20.9063632-.6955535-3.9985803-1.5545823-7.9748345-2.113389-11.990012-.6490852-4.66381-1.0738719-9.3571901-1.5526688-14.0414428-.6113108-5.9808114.3271511-11.7952237,1.2764962-17.6080957,1.2870827-7.8807257,2.5433042-15.7679991,3.8245286-23.6499843.3636082-2.2368728.7971809-4.4590987,1.1484846-6.6983786,1.0406516-6.6333237,1.4035396-13.3105254,1.0729257-20.0882556-.3190137-6.5397246-.1606434-13.0899291-.3912622-19.6337731-.2172321-6.1639587-.6502989-12.3336475-1.6119179-18.445393-1.0444763-6.6383643-1.4854592-13.3749488-3.3067961-19.890924-.239214-.8558015-.1838406-1.6709897.3470184-2.4137983C.6222977,23.1066506.3773658,19.687454.0103689,16.3297457c-.0450772-.4124195.0628809-.8715921.2065548-1.2622555.2727107-.741535.8323824-1.1458955,1.5996962-1.1306263.7714608.0153512,1.3431752.4471229,1.5976438,1.2136961.1949726.5873786.2739531,1.2179867.3771943,1.8337309.2791729,1.6650507.5181607,3.3369867.8233432,4.9972425.1972013,1.0727794.4277518,1.2360851,1.4642102,1.3203912,2.8125654.2287765,5.6139172.241567,8.3981193-.1819578.4093477-.0622705.8405669.0112022,1.2646432.021952.0916034.8204669-.4293086.9812653-.8487935,1.1686113-.5348373.238866-1.1113363.3760787-1.658553.5879875-.4497935.1741882-.9208375.3327351-1.3169386.6035112-1.5122847,1.0337798-3.1506824,1.4238205-4.9573706,1.0918834-.0959916-.0176331-.1957463-.0077653-.268095-.0099374.3928011,1.745344.7429947,3.4740836,1.1737069,5.1822213,1.2012903,4.7641239,2.1025832,9.5820869,2.6316177,14.4597684.430881,3.9728654.7419821,7.9566375,1.1341946,11.9332952.5127358,5.1988279,1.0467593,10.3959696,1.5984012,15.5914224.0305129.2873536.2732038.5830863.4738282.8215468.3396059.4036563.7245356.7646529,1.1281394,1.1826622.4641073-1.0794163,1.1596749-2.1189989,2.3405375-2.0829382,1.3596934.0415309,2.3536271-.3776016,3.1441171-1.4625258.0296308-.0406726.0764553-.0832609.1218539-.0922199,1.213386-.2396799,2.0416133-1.1302392,2.996546-1.8419656,1.2318068-.9180647,2.5819166-.7087353,3.7939272.247242.4688482.3698024.8424414.4466793,1.3112029.151029.1283886-.0809748.2858876-.179355.4235849-.1656812,1.2065744.1199183,1.4360559-.8822651,1.9396983-1.7008487.6399729-1.0401341.620773-1.9195595.1141292-3.0440536-2.2243875-4.937176-3.343674-10.2368947-4.7315003-15.4463363-2.0333263-7.6325861-4.0602862-15.2669324-6.0744161-22.9047083-.3178406-1.2052503-.5539814-2.4324936-.8445921-3.7237723-.6687488.1505062-1.2240309.3461132-1.7927458.3838021-.5804734.0384735-1.1598242-.1679014-1.3707825-.8429939-.2072396-.6630807.2265892-1.0582774.6572488-1.4091613,1.7843603-1.4537755,2.1599826-2.8165083,1.5267037-5.1675591-.3465748-1.2867039-.6100857-2.59981-.8432017-3.9126112-.0978201-.5510099-.0997449-1.1497211-.0063666-1.6960213.2424199-1.4184042,1.5469687-1.9982709,2.6892519-1.1726756.4506749.3257405.8824649.8171505,1.1131373,1.3336629.8232181,1.8432574,1.2795137,3.7753051.8119456,5.7859562-.2385242,1.0256756-.1507598,1.9191449.2183823,2.966652.9660684,2.7413593,1.7613246,5.550715,2.5311481,8.3592576,1.6127934,5.8839593,2.9630722,11.8514281,4.7986455,17.6603806,1.9176789,6.068818,4.2150224,12.0172756,6.4676387,17.9697587,1.5680929,4.14359,3.1919557,8.2797844,5.0566995,12.2860559,2.8495357,6.1220048,6.5105092,11.7433238,10.3332168,17.2459238,6.9281322,9.9727139,13.9353372,19.9094637,19.4725935,30.8278887,3.878739,7.6481095,7.1067182,15.6209727,9.8512107,23.7948596,4.3103461,12.8375037,8.2948628,25.7708636,11.2089862,39.0172837,1.1295179,5.1342449,2.2346014,10.2847098,3.0615757,15.4712696.7622825,4.780877,1.1232433,9.6214662,1.68578,14.4332006.7041766,6.0229886,2.2563567,11.8767339,3.6578897,17.7588593.6504204,2.7296589,1.3306667,5.4531781,2.0553117,8.1636362.4638676,1.7350941,1.124297,3.4201606,1.5288344,5.1666637.3593238,1.5512224.5004055,3.1547124.7065051,4.7387822.0407671.3131676-.0350487.6498723-.1013573.9639572-.2455623,1.1631171-.8294563,2.042901-1.9776785,2.2952189-1.1818757.2596667-2.1178122-.2931893-2.8020024-1.3135536-.9708558-1.4479041-1.5759495-3.113098-1.62938-4.8201583-.1296974-4.144139-1.2579171-8.1188567-1.8920426-12.1750251-.7403195-4.7354686-1.4422731-9.4765845-2.1763104-14.2129963-1.0768998-6.9484226-2.3940486-13.8493228-4.16916-20.660086-.3778085-1.44949-.666917-2.9222161-1.0226839-4.3778738-2.0506393-8.3905833-4.0585531-16.7922144-6.1801875-25.1645692-1.8086484-7.137261-4.2247573-14.0836523-6.6427349-21.0254083-3.661328-10.5112604-8.1513267-20.6389247-13.1797917-30.5177147-.0956398-.1878909-.2056289-.3678671-.3422169-.6107858-.4719549.6166757-.8871651,1.2059418-1.3471192,1.7525122-2.7562898,3.2751917-6.1229259,5.7164012-9.7041927,7.865854-.245974.1476415-.4751266.3847525-.6232724.6399485-.4222551.7273587-1.0220021.9320725-1.6592604.3815702-.5982971-.5168168-1.1709735-1.1048504-1.6333498-1.7570209-1.8851345-2.6589739-3.7046761-5.3693736-5.5840818-8.032941-2.3749692-3.365904-5.204849-6.2791062-8.1585113-9.0640955-.1349869-.1272725-.24246-.2876417-.4490094-.5365535-.12443.5306065-.1951131.786353-.2440456,1.0473217-1.1291061,6.0221209-2.7057706,11.9025101-4.5712551,17.6891737-.2775147.8608553-.5909968,1.7421015-1.0695214,2.4780832-.3129719.4813489-.9082344.8930468-1.4543963,1.0369045-5.8078795,1.5297944-11.4536986.807474-16.9131228-2.0421505-.9828582-.5129977-1.0702871-.9218598-.9924115-2.1049855.3133762-4.7605653,1.7374907-9.1759368,3.2333992-13.5878554.7367105-2.1727751,1.1031191-4.4990119,1.8716964-6.6557063,1.3616185-3.8207624,2.8866087-7.5725059,4.3774859-11.3370316.4496368-1.1353291.5185852-1.136944-.4256646-1.8476988-1.3257436-.9978775-2.679883-1.9524038-4.1881958-3.0460785-.0646013.5790834-.1187429.9092222-.1360896,1.2426092-.3372428,6.4846229-1.2937114,12.8580877-2.473886,19.1981677-.9417171,5.0590363-1.7273462,10.1552384-2.6681373,15.2145164-.9769391,5.2537092-.7853063,10.5641167-.4974837,15.8935909.4847258,8.975138,1.8411822,17.8668816,2.9043702,26.7877998.9764085,8.1927079,3.018383,16.1693979,4.8278901,24.193414,1.7022434,7.5483875,3.5054942,15.0740016,5.2060556,22.6227472,1.545013,6.8582314,3.0109589,13.7342778,4.5136783,20.6020276.2142864.9793413.4394439,1.9563384.6595648,2.9344075.1313416-.0277179.2626968-.0554184.3940384-.0831363-.2433794-1.0814143-.4770069-2.1651665-.7317472-3.2439012-1.4466876-6.1261748-2.9105958-12.2486376-3.7380956-18.4981241-.0498892-.3768108-.1480705-.7481135-.2282716-1.1209872-.4328904-2.012768.4083657-2.8845927,2.243198-2.3232837l-.0326967-.0214282Zm24.3291043-92.0831854c-.0525401-.1200689-.0852666-.2565455-.1606124-.3577535-1.3126533-1.7628961-2.6278953-3.5236751-3.9493605-5.2792481-.2792143-.3709373-.5852368-.7194326-.8789114-1.0782667-.0160737.2412364.062888.4035416.1671254.5451921,1.0644912,1.4465131,2.1153527,2.9048197,3.2084932,4.3269419.4971864.646812,1.0802851,1.2201218,1.62443,1.8267705.7399939,1.1341644,1.47999,2.2683386,2.3074636,3.5366005,3.1643947-2.7558049,6.2305166-5.4260371,9.1547197-7.9726701-6.1566026-9.1656671-12.614303-17.8438294-20.4279316-25.3237858-.0921805.1369876-.1479928.1946724-.1761731.2654114-1.6591551,4.1652506-3.0055927,8.4493742-4.064641,12.8452123-.16307.6768941.1981933.8113473.7020022,1.0336236-.1087517-.7725527-.0559486-1.3838851.5752313-1.7075365.6138628-.3147926,1.1539008-.0233015,1.6359404.3786409.4677014.3899882.9159575.8125769,1.3385556,1.2574408,4.0866692,4.3020644,7.6334885,9.0635788,10.7806364,14.1609572.2523358.4087297.5005534.8639398.5875031,1.3273223.0697666.371795.0081882,1.0116386-.2040622,1.1318138-.2953489.1671933-.8183049.0488137-1.1838148-.1111483-.3825687-.1674063-.69413-.5286802-1.0365939-.8055183Zm-24.3706602,6.1714532c.4490109.0074347.8534704-.0239924,1.2499928.0294229.6354029.0856151.9427959-.1495756,1.1353975-.8219144.8622276-3.0098465,1.8761578-5.9695816,2.6589815-9.0035002.998131-3.8683137,1.9204777-7.7668335,2.7044552-11.6956324.9994808-5.0087546,2.2360662-9.9138224,4.2754794-14.5443538.8142648-1.8488182,1.5238088-3.7535031,2.376732-5.5802809.6710561-1.4372756,1.492075-2.7921618,2.2372905-4.1893415.0789747-.1480816.185365-.3838344.1283475-.4953666-.5589428-1.0931644-1.1499084-2.1685852-1.7032789-3.1961311-.5075833.8396335-.9715764,1.6071979-1.4981721,2.4782909.4003371.83958.4368793,1.8318147-.0631183,2.8046625-.5209787,1.0136913-1.3396996,1.6441757-2.3275281,2.0816676-.2304826.1020695-.5220192.286798-.5926942.5079351-.5689019,1.7800943-1.8809105,2.3972116-3.4994216,2.3858586-.6543923-.0045971-1.0716623.1992728-1.5312726.6230486-1.7054668,1.5725348-3.1635986,1.5791522-4.9225028.0964159-.4358515-.3674283-1.183503-.1029528-1.399354.5015773-.663664,1.8587083-1.3697775,3.7010885-1.9740095,5.5829316-.7764956,2.4183351-1.3510828,4.9209747-2.2221227,7.2955053-2.4535399,6.6885599-5.0213155,13.3269852-7.5264085,19.9930719-.4665347,1.2414306-.8509922,2.5196201-1.2826159,3.808619,3.7631305.8124977,7.4879451,1.820477,11.3479835,1.4635088.644975-.0596343.8493429-.2473938.9192899-.9179383.9364347-8.9761252,3.7704284-17.3106062,7.094299-25.4757349.1507372-.3703023.3580795-.7133043.539063-1.069023.1164789.0569953.2329579.1139905.3494346.170976-1.2437227,4.4438656-2.5099337,8.8802095-3.7248485,13.3337139-1.2275555,4.4998261-2.1504085,9.0798906-2.7493985,13.8320111Zm-6.3773874-50.8386524c.5784364.7306712,1.1825071,1.3986134,1.6725016,2.1486877.289563.4432657.6333803,1.0772506.5428432,1.519301-.2288601,1.1174772.2659868,1.7795159,1.0073154,2.3575002.5843227.4555752.8439396,1.0057.7658099,1.7568456-.0666791.640971.235545,1.0646921.8238055,1.1843331.5760523.1171508,1.1724394.1091664,1.7451825.2394912.4288125.0975941.954202.2120604,1.2229265.5247262.4408658.5129242.8979482.6388352,1.4421178.4848482.5119227-.1448576.9910071-.4057479,1.4990462-.5685851.5695473-.1825724,1.1468966-.4013855,1.7358405-.4470388,1.321362-.1024001,2.0181842-.9236429,1.8402358-2.3284891-.0701421-.5539246.0489732-.9757374.5945523-1.1333357,1.2451351-.3596809,1.4840571-.7271195,1.7011912-2.050176.0816252-.4973114.3819689-1.0928681.7631326-1.351362.8207924-.5566717.9940715-.948241.4952658-1.9002644-.4018722-.7669811-.8130964-1.5302309-1.1784369-2.3160318-.4747636-1.0211457-.9039375-2.0650423-1.3655513-3.0929631-.0502173-.1118759-.1816488-.1874285-.2811146-.272211-.354718-.3023454-.7458126-.5662849-1.0610341-.9090067-.6634053-.7212463-1.4558861-.8893272-2.3246355-.5788567-.4020056.1436692-.9072881.1522541-1.327834.0411682-1.1458175-.3026402-2.2207163-.5843933-3.2802201.2881316-.3161303.260338-1.0150803.2494113-1.4385556.0735546-1.2079036-.5016426-1.972765-.1445397-2.4298062,1.1670793-.1493191.4285285-.5397663.8283195-.9194284,1.0708852-.5120763.3271472-1.1328754.4619415-1.6837474.7305586-.550495.2684198-.7325357,1.0103691-.3850914,1.3926303.8479017.9328618.8477333.9562033-.1763114,1.9685794Zm-3.5328463,9.5517179c2.612642.1824896,3.9812149,2.5740996,5.9893859,3.8857328.1995055-.3658206.3609386-.6618266.5467756-1.0025769-1.0478994-.5247937-1.7785772-1.3029486-1.8244961-2.5030919-.0253919-.6633584-.2580355-.9118092-.8054586-1.161036-2.1627071-.9845563-2.9834969-2.9788004-2.2332124-5.2509955.02361-.0715109.0152561-.1557457.015699-.1609705-.4671291-.5664592-.8967922-1.0874901-1.323981-1.6055282-.1210757,2.588977-.2418243,5.1708524-.3647124,7.7984662Zm37.4759311,12.2663182l.0991295-.0886605c-3.0188943-4.5960296-6.0377864-9.1920495-9.1277623-13.8963027-.4473363,1.051745-.8479418,1.9453562-1.1956393,2.8628646-.0525045.1385234.0889176.4678705.2295643.5752611,3.6394648,2.7793359,6.3483543,6.5540222,9.4404819,9.9175275.1888895.205471.3696699.4193447.5542259.62931Zm-37.4329014-25.9230403c.075752,1.3800727.1483618,2.7029414.2259485,4.1162778.1931226-.2937367.2873782-.5304618.4537853-.6741702.7701036-.6650247.7906404-1.4510946.5890595-2.4665526-.1720574-.8667827-.5642537-.9546028-1.2687933-.9755549Zm19.1201038-6.8441258c-.1037097-.036903-.2074195-.0738061-.3111314-.1107188-.1507475.5377365-.522835,1.1340643-.4018013,1.5998422.1948616.7499814.8544717.5372475,1.4695926.3420247-.2678632-.6482248-.5122616-1.2396864-.7566599-1.8311481Z" stroke-width="0"/>
      <path d="m23.4113183,217.5310863c-.7706835-1.2532483-.4389436-2.0803958.9605844-2.3495798,1.4513484-.2791893,2.9213898-.4760001,4.3568333-.8199863,1.684801-.4036861,3.181047-1.242466,4.4705162-2.4553199,3.2661417-3.0721162,6.553834-6.1191705,9.788146-9.228398,2.9085427-2.7960825,6.1868056-4.8772196,10.0091554-5.9989595,1.7798473-.5223218,3.595577-.6245591,5.3825877-.0865938,1.8005199.5420654,3.5864085,1.2017933,5.3113804,1.9862453,3.9521674,1.7972453,7.9592828,3.0444434,12.2594857,2.3443496.2204719-.0358902.4367565-.0965149.7064003-.1572-.216713-.6312872-.4938084-1.2240037-.6224651-1.846997-1.1012033-5.3317313-2.1800465-10.6680448-3.2566433-16.0047615-1.1310653-5.6066589-2.22278-11.2213145-3.3905403-16.8203492-.5671411-2.7192668-1.2731901-5.4097471-1.9043744-8.1160737-.0982971-.4214439-.207303-.8674026-.1716724-1.2844313.0272544-.3189012.2750534-.6100383.4247624-.9135333.2967681.2040354.7311546.3381437.86604.6244007.5309309,1.1267721.9793805,2.2964952,1.4374641,3.4590579,3.5064081,8.8990591,5.7808598,18.142895,7.5383988,27.5346552.5711032,3.0518273,1.2630343,6.0816991,1.8320281,9.1338579.2468302,1.3240262.32249,2.6790463.4905364,4.1480013.0495197.0115655.3068392.0335083.5338705.1356361.221425.0996045.5545645.2600181.5815763.4317951.0379639.2411257-.0917182.6194767-.274119.7577926-.4026556.3053243-.8605948.6356119-1.3361289.7088754-1.277635.1968013-2.5742807.3705059-3.8671469.3603684-2.6806188-.0210371-5.364761-.1219129-8.0454722-.273769-2.9372114-.1664131-5.8722428-.4257129-8.8081071-.6478546-1.3034816-.0985895-2.6061725-.2203945-3.9100629-.3052658-3.0168101-.1964156-5.6986613.8212771-8.101313,2.5581652-1.4745046,1.0659203-2.7770352,2.3937511-4.1586699,3.6015887-2.4720707,2.1610914-4.8775381,4.4149342-7.4365588,6.4552203-2.877054,2.293871-6.1771131,3.5280126-9.8869034,3.3574535-.60497-.0278116-1.2078518-.2025028-1.8119964-.3095564-.0002889-.0002623.0324078.0211659.0324078.0211659Z" stroke-width="0"/>
      <path d="m19.6409949,170.5693384c-.9485891-5.0866805-1.9295598-10.1678942-2.8262523-15.26339-.2723941-1.5478921-.2035466-3.1542714-.4848563-4.6997274-.3837313-2.1081869-1.0001903-4.1742473-1.4274421-6.2762814-.3237745-1.5928792-.5092824-3.2135209-.7512903-4.8225209-.0199559-.1327218-.0093635-.2717355.0006059-.4062818.074097-.9999179.639883-1.6797659,1.4125307-1.7024683.8169364-.023995,1.5321925.643926,1.5949215,1.6792682.0852578,1.4072009.0468153,2.8190401.0644984,4.2289381.0298545,2.3804572-.0393951,4.7662676.1335717,7.1393443.0951452,1.3052756.6039408,2.5880834.9187851,3.8828491,1.4868424,6.1146007,2.8931128,12.2505876,4.4805371,18.3384393,1.3121494,5.0321521,2.859435,10.0012987,4.2609703,15.0103264,1.1301953,4.039294,2.207405,8.0939704,3.2865337,12.147683.2233079.8388807.4097828,1.6988177.4960003,2.5588126.0367521.3664481-.2277639.7579786-.3553592,1.1381106-.362762-.1928249-.869003-.288604-1.0595154-.5979008-.4476052-.7267356-.8096366-1.5317972-1.091494-2.3468619-1.8228485-5.2711688-3.7504458-10.5109066-5.3691453-15.8472935-1.0709642-3.5306156-1.6846518-7.2050637-2.5022203-10.8153156-.252649-1.1156645-.5025494-2.2319272-.7537123-3.3479262-.0092239.0007256-.0184434.0014706-.0276673.0021961Z" stroke-width="0"/>
      <path d="m38.7038973,221.1329504c.8822669.1001722,1.7844119.1027177,2.6421354.3235402,1.2683996.326529,2.3084916.0246461,3.2758277-.8020012,1.1587945-.9903052,2.3194846-1.9820191,3.5269811-2.9041673,2.0865873-1.5934716,4.4355528-2.5217199,7.0628514-2.3227546,3.4066272.2579587,6.4957292-.7575194,9.561162-2.0315597,2.7171041-1.1292754,5.5045477-1.2130139,8.3311758-.1415985,1.04451.3959238,2.120318.6984434,3.1496879,1.1345202,1.1000971.4660298,1.5958728,1.1378132,1.4691732,1.7725282-.1219055.6104756-.7600866.9907802-1.9416038.8448959-1.6770176-.2070485-3.3829746-.4094664-4.9998405-.9161609-2.4888805-.7799511-4.8979381-.7171274-7.230586.1949271-2.8418645,1.1111146-5.7486616,1.510012-8.7852349,1.2472333-2.0860484-.1805259-3.9136124.5676481-5.5695327,1.797585-1.1574462.8596735-2.2921631,1.7533914-3.4306715,2.640945-1.4930211,1.1639362-3.1364417,1.6146963-4.9749222.9769525-1.7519893-.6077172-3.0423676.0127262-4.0548188,1.4831637-.3573169.5189087-.6864318,1.0660882-1.0921624,1.5383805-.2224264.2589111-.5597813.4445194-.8809851.5522037-.153265.051393-.4710276-.1025379-.5659403-.2608952-.0977432-.1630602-.1009608-.5124015.0028206-.6633449.6230632-.9064196,1.2536327-1.8122166,1.9503266-2.6537778.6727923-.8126737,1.4827008-1.4548624,2.5541565-1.8106156Z" stroke-width="0"/>
      <path d="m11.3312,5.1305643c-2.3637034.328871-4.3522345,1.7918841-6.4027158,3.113957-.1390331.0896465-.3003723.2539579-.32372.4089058-.1338479.8879448-.6252893.6645678-1.1237289.399711-.8467421-.4499133-1.322215-1.299112-1.0379875-2.31656.2448645-.8765013.6389493-1.7862326,1.2048279-2.4525596,1.5064-1.7737703,3.3599959-3.2366523,5.5252766-3.8252279,3.1876555-.8664808,6.4721693-.4797028,9.5506421.9412274,1.9253501.8886858,2.5099631,3.1272634,1.5165193,5.0481016-.5067044.9797355-1.1454855,1.8893089-1.8018744,2.7644832-.2481766.3309139-.6981298.513501-1.0878974.6877985-.1704364.076221-.5036754.0407516-.6121578-.0871587-.1173806-.1384214-.1417659-.4867352-.0619761-.6686488.276928-.6313316.6012495-1.2402002.9355481-1.8394679.9584383-1.7181811.7767411-2.1576188-1.0772007-2.4721976-1.7207485-.2919759-3.4234525-.2615989-5.2035557.2976361Z" stroke-width="0"/>
      <path d="m74.3040743,226.6284339c-1.9891591.0571384-3.989012.3085955-5.9649996.1270943-3.1722632-.2914103-5.931019.6548361-8.5662768,2.2791685-1.3521064.8333676-2.7349077,1.6150877-4.1267147,2.3747534-1.6575708.9047536-3.4486072,1.0815128-5.1997585.3358314-2.8069527-1.1952668-4.8725764-.355154-6.4936234,2.101309-.3327036.5041216-.6866138.9944998-1.0630547,1.4616324-.1104737.1371252-.367718.2771654-.4934831.2260246-.136705-.0556145-.2301734-.3234493-.2828533-.5155152-.0396435-.1445257-.0233715-.3341051.033172-.4719621.9176322-2.2378602,2.0915357-4.2287305,4.3744187-5.1645916,1.3361936-.5477903,2.7185884-.4925559,4.0726741-.114807,2.0036503.5589767,3.7842452.1669377,5.4920099-.9066521,1.432704-.9006917,2.8865716-1.7672731,4.357338-2.5984772,2.268707-1.2822247,4.7060782-1.9735181,7.3174169-1.9570215,2.1215504.0134005,4.2439291.0331206,6.3656292.1096669.5164211.0186055,1.0834046.1701134,1.5352478.4400122.6934127.4142366.6352381,1.3281492-.0654789,1.6830612-.4072471.2062688-.8560752.3241393-1.2861857.4817651l-.0054778.1087076Z" stroke-width="0"/>
      <path d="m77.0059842,237.6967831c-1.6289111-.0853987-3.2846104.0121056-4.8807199-.2974049-2.6508015-.5140338-4.8999069.1836652-6.9524671,1.8031145-.8085615.6379164-1.6001693,1.3026863-2.3673718,1.9949446-1.4051126,1.267933-3.0224938,1.7848099-4.881454,1.527438-.2795646-.038726-.56218-.0522341-.8398279-.103299-1.7982562-.330776-3.1917212.3410816-4.2839919,1.8019442-.3752786.5018776-.7359739,1.0422928-1.2050229,1.4276622-.2558994.2102416-.8657852.3120642-1.0602689.1379177-.2224495-.1991968-.3132237-.8224091-.1987687-1.1520558.8980971-2.5869254,3.9740776-4.847451,6.5981032-4.5379828,2.3655052.278998,4.165984-.4669472,5.9002715-2.0387665,2.9992924-2.7183202,6.5719787-3.8915716,10.5953557-3.5777629,1.326957.1034747,2.6568382.1678474,3.9849272.1950595.3174261.0064922.6840295-.1359816.9376981-.3365143.3966747-.3135125.5642229-.2219355.698488.2458568.2802062.9762291.0109693,1.7785275-.8324413,2.2683226-.3712893.2156284-.7917218.3392204-1.1898555.5046057-.0075437.0456452-.0150919.0912709-.0226538.1369202Z" stroke-width="0"/>
      <path d="m9.8115261,14.0250655c-1.7666893.5379277-3.5677043.5554749-5.3903127.2648638-1.1936941-.1903289-2.2915342-.6271772-3.1817223-1.5515093-.7108854-.7381351-.9486465-1.7103136-.6164543-2.441305.3353764-.7379534,1.0529187-1.0512187,2.0926454-.9187239,3.1519203.4016553,6.3042901.7981149,9.4555528,1.2070202.4308882.0559135.8623493.1452724,1.2833263.2643173.7825007.221287.9313532.5655188.3610718,1.1711686-.5332817.5663519-1.1951351,1.0449171-1.8816722,1.3861394-.6527818.3244518-1.4107248.4211748-2.1224348.6180289Z" stroke-width="0"/>
      <path d="m64.5860702,148.2932416c-.2636032-.3957185-.4607412-.6020031-.5572562-.8498792-1.821387-4.676857-3.6346991-9.3570761-5.435006-14.0425851-.1340853-.349013-.2549709-.7615268-.2059965-1.1116888.0558678-.3995481.3089922-.7622754.476408-1.1409961.3046602.1989244.7529679.3230455.8908168.6088504.9389819,1.9467445,1.9350579,3.8804862,2.6737991,5.9101978.7781788,2.1380393,1.3443876,4.3646418,1.8953992,6.579729.2665182,1.0714396.2931215,2.2044847.4102524,3.3112636.0174821.1651854-.0645639.3392873-.1484167.7351084Z" stroke-width="0"/>
    </g>
  </g>
</svg>