<?xml version="1.0" encoding="UTF-8"?>
<svg id="Layer_2" data-name="Layer 2" xmlns="http://www.w3.org/2000/svg" viewBox="0 0 98.3628635 120.8849506">
  <g id="Layer_1-2" data-name="Layer 1">
    <g>
      <path d="m97.5521832,34.1535053c-.6630859-.4052734-1.2802734-.1953125-1.7958984.0605469-.3857422.1904297-.8310547.3955078-1.2412109.4111328-.8720703.0332031-1.8154297-.0039062-2.8017578-.1103516-.8232422-.0869141-1.5644531-.0273438-2.2568359.1884766-1.1992188.3710938-2.2734375.9863281-3.1660156,1.5390625-.4619141.2871094-1.0009766.6044922-1.5390625.7333984-2.3486328.5644531-4.6777344.6884766-6.9199219.3710938-1.4443359-.2060547-2.875-.3291016-4.3359375-.4462891-.3066406-.0273438-.6259766.0009766-.9121094.0322266.1162109-.2304688.2333984-.4609375.3505859-.6914062.4355469-.8515625.8847656-1.7324219,1.2773438-2.6279297.7324219-1.6699219,1.5556641-3.9033203,1.4140625-6.3603516-.1230469-2.1123047-.3642578-4.2490234-.5976562-6.3154297l-.0253906-.2265625c-.0595703-.5234375-.3632812-.9443359-.8115234-1.1240234-.4804688-.1923828-1.03125-.0878906-1.4736328.2802734-.1484375.1240234-.2929688.2529297-.4375.3818359-.2392578.2138672-.4658203.4160156-.7119141.59375-2.9658203,2.1445312-5.1796875,5.0458984-6.765625,8.8701172-.0185547.0449219-.0371094.0898438-.0556641.1337891.2773438-1.1777344.5039062-2.3847656.7236328-3.5527344.1191406-.6367188.2392578-1.2724609.3671875-1.9072266.2626953-1.3056641.1855469-2.4716797-.2363281-3.5634766-.4648438-1.2041016-.7949219-2.3066406-1.0107422-3.3730469-.0761719-.3730469-.21875-.7265625-.375-1.1142578-.8066406-2.0039062-1.6162109-4.0048828-2.4335938-6.0039062l-.0302734-.0751953c-.7353516-1.7998047-1.4716797-3.5996094-2.2314453-5.3896484-.1689453-.3984375-.4111328-.7890625-.6992188-1.1279297-.421875-.4941406-1.0224609-.7363281-1.6083984-.6357422-.5917969.0976562-1.0898438.5224609-1.3330078,1.1357422-.0800781.2011719-.1259766.4072266-.1708984.6064453-.0351562.1523438-.0683594.3046875-.1191406.4511719-.0507812.1474609-.0976562.2988281-.1445312.4501953-.1318359.4267578-.2568359.8310547-.4980469,1.203125-1.3818359,2.1328125-2.8115234,4.3378906-4.3212891,6.4287109-1.6044922,2.2236328-2.5947266,4.5253906-3.0097656,7.0068359l-.2871094-1.3945312c-.3828125-1.859375-.765625-3.7197266-1.15625-5.5761719-.1289062-.6171875-.2714844-1.2324219-.4130859-1.8466797-.2431641-1.0517578-.4941406-2.1386719-.6738281-3.2148438-.2167969-1.2988281-.4101562-2.8056641.0390625-4.2568359.1748047-.5634766-.0947266-1.0224609-.7402344-1.2607422-.3896484-.1445312-.8964844-.3408203-1.3710938-.5791016-.4208984-.2128906-.8339844-.4726562-1.2333984-.7236328l-.0615234-.0390625c-.4921875-.3095703-.9335938-.3466797-1.3505859-.1074219-.4550781.2607422-.6689453.7138672-.6015625,1.2773438.0400391.3417969.1308594.6757812.2236328.9853516.0908203.3056641.1884766.609375.2861328.9121094.1357422.4228516.2714844.8447266.3886719,1.2724609.7451172,2.7324219.9628906,5.5048828,1.0771484,7.8574219.2011719,4.1386719.5517578,7.9482422,1.0712891,11.6455078.234375,1.6582031.4121094,3.4013672.5302734,5.1816406.1777344,2.6923828-.28125,5.3066406-.7529297,7.5078125l-.8144531,3.7734375c-.0146484.0693359-.0263672.1005859-.0234375.1074219-.0117188.0048828-.0371094,0-.0791016-.0068359-2.5458984-.4804688-3.9589844-2.6972656-4.0390625-4.6396484-.0566406-1.3457031.1162109-2.7773438.5117188-4.2558594.4111328-1.5283203.8632812-3.0761719,1.3007812-4.5722656l.2226562-.7617188c.9404297-3.2275391,1.2314453-5.9902344.9150391-8.6962891-.2460938-2.1054688-.5517578-4.1542969-1.5683594-6.0595703-1.5576172-2.9189453-3.6875-4.6113281-6.5107422-5.1728516-.4873047-.0966797-.9824219-.2451172-1.4599609-.3886719l-.3769531-.1132812c-1.1201172-.3291016-1.9052734-1.0498047-2.3349609-2.1425781-.2050781-.5244141-.3808594-1.0761719-.5517578-1.609375-.1064453-.3359375-.2138672-.671875-.3291016-1.0048828l-.0673828-.1962891c-.1396484-.4082031-.2851562-.8310547-.4970703-1.2207031-.3183594-.5849609-.859375-.9570312-1.5234375-1.0478516-.5996094-.0810547-1.1679688.1025391-1.5917969.5175781-.4707031.4628906-.6914062,1.1474609-.6044922,1.8789062.0488281.4189453-.0009766.8300781-.15625,1.2949219-.9863281,2.9638672-2.3505859,5.8574219-4.1708984,8.84375-1.3701172,2.25-2.1806641,4.6914062-2.4765625,7.4638672-.2861328,2.6982422.2138672,5.3046875.6806641,7.2734375.5878906,2.4746094,1.5966797,4.4589844,3.0849609,6.0693359-1.328125-.3232422-2.6923828-.3496094-4.0546875-.0820312-1.2294922.2431641-2.2333984.4267578-3.1582031.5771484-1.4052734.2324219-2.5332031.0898438-3.5488281-.4443359-.2910156-.1513672-.6435547-.25-.9921875-.2763672-.6660156-.0449219-1.265625.2275391-1.6123047.7441406-.3476562.5185547-.3769531,1.1845703-.0771484,1.7841797.1230469.2431641.3007812.4423828.4726562.6357422l.078125.0878906c.1445312.1650391.2949219.3251953.4462891.4863281.2197266.234375.4404297.4697266.6425781.71875.2929688.3613281.5654297.7382812.8369141,1.1152344l.2832031.3916016c1.1777344,1.6103516,2.6796875,2.8886719,4.5927734,3.9082031,2.1396484,1.140625,4.3554688,1.4375,6.5888672.8857422.2998047-.0742188.6162109-.1611328.9335938-.2734375-1.5458984,1.2636719-3.1455078,1.8955078-4.875,1.9277344-1.15625.0107422-2.3681641-.25-3.7802734-.8554688-1.9248047-.8251953-3.8085938-1.7021484-5.5576172-2.5283203-1.3037109-.6152344-2.5927734-.9443359-3.9404297-1.0048828-.9277344-.0400391-1.6435547.2138672-2.2011719.78125-.6503906.6630859-1.0478516,1.46875-1.1816406,2.3935547-.0878906.6103516.0488281,1.1542969.4072266,1.6162109.0498047.0654297.0898438.1894531.109375.3408203.0419922.3232422.0742188.6474609.1064453.9726562.0615234.6044922.1240234,1.2294922.2460938,1.8398438.4882812,2.4355469,1.6611328,4.2265625,3.4863281,5.3242188,2.8027344,1.6835938,5.6943359,2.1699219,8.6025391,1.4414062.0429688,1.4316406.75,2.5146484,2.1015625,3.2197266.8935547.4667969,1.9169922.7314453,3.1308594.8076172l.2939453.0166016-.2324219.3535156c-.2324219.3544922-.4638672.7080078-.6933594,1.0644531-3.6103516,5.6357422-5.0039062,11.2070312-4.2617188,17.0332031.5322266,4.1796875,1.90625,7.5732422,4.2001953,10.375.4072266.4980469.8242188.9873047,1.2402344,1.4775391.4521484.5322266.9052734,1.0644531,1.3447266,1.6054688,1.3398438,1.6533203,2.9082031,3.3037109,4.7939453,5.0439453,1.1376953,1.0498047,2.4257812,1.9082031,3.9384766,2.625,1.4492188.6875,2.5234375,1.2597656,3.4833984,1.8564453,1.40625.875,3.0556641,1.8720703,4.8447266,2.6259766.7880859.3320312,1.5625.7001953,2.3017578,1.09375.3886719.2080078.7802734.4101562,1.171875.6142578,1.1806641.6113281,2.4013672,1.2441406,3.5146484,1.9853516,2.1357422,1.421875,4.1367188,3.2226562,6.1171875,5.5068359,2.1230469,2.4482422,4.6328125,4.4570312,7.4589844,5.9697266,2.1728516,1.1630859,4.2734375,1.7421875,6.3525391,1.7421875,1.1445312,0,2.2832031-.1757812,3.4228516-.5253906,2.6660156-.8183594,4.6357422-2.1835938,6.0214844-4.1748047,1.5673828-2.2519531,2.6445312-4.4003906,3.2919922-6.5664062,1.015625-3.3945312,1.6396484-6.8251953,2.2402344-10.3330078.3173828-1.8525391.6660156-3.7119141,1.0371094-5.5263672.2460938-1.2060547.7431641-2.3173828,1.1972656-3.2460938.8261719-1.6884766,1.5722656-3.3984375,2.1289062-4.6992188.2265625-.5302734.4228516-1.078125.6123047-1.609375.1640625-.4589844.328125-.9189453.5126953-1.3691406,1.5166016-3.7109375,2.4892578-7.9199219,3.0605469-13.2451172.2548828-2.3798828.0732422-4.7861328-.1025391-7.1132812l-.0556641-.7441406c-.1083984-1.4589844-.2197266-2.9667969-.6923828-4.4482422-.1855469-.5869141-.3779297-1.1933594-.4960938-1.7958984-.0371094-.1904297-.0683594-.3837891-.0996094-.5761719-.1289062-.7998047-.2617188-1.6230469-.8271484-2.3251953l.6894531-.2724609c.4501953-.1767578.9003906-.3535156,1.3476562-.5400391,3.2958984-1.3779297,5.6542969-3.3652344,7.2089844-6.0732422.0683594-.1191406.1494141-.2324219.2294922-.3447266,2.0097656-2.7871094,2.8701172-6.0371094,3.5-9.1328125.0273438-.1318359.0390625-.2685547.0458984-.4013672.0410156-.7578125-.2304688-1.3193359-.8066406-1.6689453Zm-16.8564453,44.4785156c-.4560547.8232422-.6035156,1.6181641-.4394531,2.3623047.1972656.9003906,1.0224609,1.4980469,1.9609375,1.4228516l-.1943359.5869141c-.7080078,2.1416016-1.4394531,4.3564453-2.6787109,6.3125-.6494141,1.0224609-1.234375,2.1044922-1.7998047,3.1503906l-.5048828.9277344c-1.3378906,2.4384766-2.0078125,5.1640625-2.53125,7.5283203-.2285156,1.0351562-.4423828,2.0742188-.6552734,3.1152344-.0107422.0488281-.0185547.078125-.0166016.0898438h-.0009766c-.0136719,0-.0322266-.0009766-.0585938-.0039062-.6650391-.0888672-1.2871094.1503906-1.7050781.6435547-.4267578.5058594-.5615234,1.2070312-.359375,1.8779297.1845703.609375.5566406,1.0644531,1.1074219,1.3515625.0439453.0224609.0605469.0380859.0634766.0380859.0009766.0078125.0009766.0332031-.0146484.0878906-.6025391,2.1914062-1.5292969,4.1757812-2.7539062,5.8984375-.6328125.8916016-1.4238281,1.5908203-2.3505859,2.078125-1.6357422.8574219-3.0566406,1.4228516-4.6728516,1.328125-1.4023438-.0722656-2.7490234-.4423828-4.0039062-1.1005859-2.5664062-1.3457031-4.9121094-3.0527344-6.96875-5.0742188-4.1455078-4.0732422-8.9453125-7.2998047-14.2666016-9.5908203-1.2626953-.5429688-2.5449219-1.2734375-4.0351562-2.2978516l-.1328125-.0917969c-.8134766-.5605469-1.6552734-1.140625-2.5488281-1.6025391-1.7119141-.8857422-3.2255859-2.0625-4.6269531-3.5996094-2.5302734-2.7724609-4.8056641-5.6298828-6.7636719-8.4921875-1.2724609-1.859375-2.1054688-4.0410156-2.6220703-6.8652344-.5644531-3.0898438-.3496094-6.3417969.6552734-9.9433594.0019531-.0058594.0029297-.0117188.0048828-.0185547.2158203.2119141.4199219.4121094.6513672.5888672.4755859.3652344,1.0371094.4775391,1.5390625.3105469.4882812-.1630859.8554688-.5722656,1.0097656-1.1240234.1240234-.4453125.0996094-.9394531.0537109-1.40625-.0488281-.5009766-.40625-.8779297-.9101562-.9589844-.4697266-.0751953-.8896484.1123047-1.1777344.5332031-.0771484.1113281-.1455078.2294922-.2128906.3476562l-.3505859-.2207031c.0146484-.0488281.0292969-.0986328.0439453-.1484375.0791016-.2646484.1630859-.546875.2705078-.8193359.8916016-2.2539062,1.9287109-4.2060547,3.1699219-5.9677734.1230469-.1728516.2705078-.2646484.5634766-.3505859,1.0947266-.3164062,2.1835938-.6513672,3.2724609-.9863281l1.0791016-.3320312.0117188-.0029297c-.0029297.0185547-.0068359.0361328-.0107422.0546875-.5263672,2.6259766-1.1279297,4.7070312-1.8916016,6.5478516-.2070312.4980469-.4892578.9589844-.7880859,1.4472656-.1621094.2646484-.3232422.5283203-.4726562.7988281-.3242188.5859375-.6972656,1.2695312-1.0302734,1.9667969-.1552734.3222656-.1660156.6875-.1582031.8759766.015625.4111328.1875.7548828.4824219.9707031.3037109.2216797.6953125.2783203,1.1386719.15625.0712891-.0175781.1777344-.0419922.2685547-.1230469.3994141-.3603516.7246094-.3457031,1.2783203.0537109.6953125.5009766,1.5673828.5488281,2.3300781.5546875,1.9785156.0175781,3.9511719-.1494141,5.8173828-.4853516,1.9921875-.3603516,3.8691406-1.3076172,5.7382812-2.8955078,1.8681641-1.5869141,3.2890625-3.3925781,4.3447266-5.5185547,1.3583984-2.7373047,2.1630859-5.0888672,2.5322266-7.3994141.1054688-.6630859.1484375-1.3427734.1259766-2.0195312-.0166016-.4912109-.140625-.9833984-.3496094-1.3847656-.1982422-.3828125-.515625-.6435547-.8925781-.7333984-.3740234-.0869141-.7617188-.0009766-1.0996094.2441406-.2871094.2080078-.8046875.6445312-1.0400391,1.2265625-.4003906.9902344-.7060547,1.9716797-.9072266,2.9189453-.375,1.7587891-.8085938,3.3027344-1.3271484,4.7216797-.7089844,1.9384766-1.9394531,3.7011719-3.8720703,5.546875-1.5146484,1.4453125-3.2421875,2.2890625-5.28125,2.5791016-1.1816406.1679688-2.3925781.2890625-3.5644531.4072266l-.9775391.0986328c-.1484375.015625-.3076172-.0039062-.4755859-.0244141l-.0654297-.0068359c.1328125-.28125.2714844-.5605469.4101562-.8398438.1054688-.2124023.2089844-.4309082.3134766-.6479492.0439453.1574707.1083984.3122559.2128906.4584961.2558594.3583984.6201172.5458984,1.0488281.5458984.1113281,0,.2275391-.0126953.3466797-.0380859.2421875-.0527344.4804688-.1279297.7177734-.203125.1269531-.0400391.2529297-.0800781.3798828-.1162109,2.0947266-.5927734,3.8232422-1.7519531,5.1367188-3.4433594,1.5986328-2.0566406,2.6972656-4.1777344,3.3583984-6.4863281.3398438-1.1894531.7148438-2.4619141,1.1523438-3.7119141.3867188-1.1054688.8242188-2.359375,1.5732422-3.4296875.6416016-.9189453,1.4404297-1.421875,2.4394531-1.5380859l.1972656-.03125c.1640625-.0253906.3291016-.0517578.4892578-.1025391.1357422-.0439453.2451172-.1230469.3408203-.1914062.0341797-.0244141.0683594-.0498047.1025391-.0712891l.3066406-.1933594-.2617188-.25c-.0292969-.0273438-.0556641-.0595703-.0830078-.0908203-.0849609-.0966797-.1894531-.2167969-.3457031-.2773438-.859375-.328125-1.6894531-.3798828-2.46875-.1445312-1.9345703.5751953-3.3759766,1.7597656-4.2832031,3.5195312-.6689453,1.296875-1.2255859,2.7167969-1.6728516,3.8574219-.1816406.4619141-.3232422.9404297-.4609375,1.4033203-.1328125.4482422-.2705078.9130859-.4414062,1.3486328-1.0302734,2.625-2.4482422,4.3603516-4.4628906,5.4609375-.6982422.3808594-1.3271484.890625-1.9355469,1.3837891l-.4375.3515625c-.0761719.0609131-.1484375.1439209-.2226562.2175293.9775391-2.8046875,1.6230469-5.4567871,1.9501953-8.0856934l.0273438-.2421875c.0283203-.2636719.0556641-.5126953.1259766-.7402344.1230469-.3955078.2753906-.7324219.4521484-1.0009766.2919922-.4433594.5683594-.9902344.4072266-1.6894531-.0175781-.0732422.0058594-.2021484.0566406-.3212891.3710938-.8632812.9238281-1.6240234,1.6914062-2.3251953,1.5908203-1.4560547,3.4814453-2.5136719,5.7792969-3.2353516.1347656-.0419922.2724609-.0830078.4091797-.1230469.4492188-.1318359.9130859-.2695312,1.34375-.4863281,1.0957031-.5537109,1.8779297-1.1474609,2.4619141-1.8671875.2255859-.2783203.4335938-.5703125.6425781-.8623047.1816406-.2539062.3642578-.5087891.5576172-.7539062.0966797-.1210938.2353516-.2265625.3828125-.3378906l.2138672-.1435547c.0390625-.0136719.078125-.0292969.1142578-.0478516.1572266-.0791016.6357422-.3212891.6650391-.7509766.0214844-.3183594-.2167969-.5722656-.4052734-.7275391,1.1005859-3.2070312,1.7548828-6.5107422,1.9560547-9.8583984.2939453,3.1835938-.2109375,6.3300781-.8105469,9.2695312-.1191406.5839844-.3349609,1.1435547-.5634766,1.734375-.1386719.3613281-.2783203.7226562-.3955078,1.0898438-.1455078.4580078-.2773438.9462891-.2568359,1.4228516.0195312.4501953.2304688.8115234.5791016.9912109.3535156.1806641.7978516.140625,1.1855469-.1123047.3583984-.2333984.6289062-.5771484.7929688-.8251953.6337891-.9580078.9140625-2.0410156,1.1230469-3.0683594.734375-3.6230469.8916016-7.4755859.4785156-11.7802734-.0800781-.8291016-.1757812-1.6572266-.2714844-2.4853516-.0810547-.6914062-.1611328-1.3837891-.2314453-2.0761719-.0351562-.3457031-.0205078-.6464844.0429688-.8964844.6171875-2.4296875,1.2578125-4.7900391,2.3115234-6.9570312.4677734-.9589844.9990234-1.8115234,1.5800781-2.5332031,2.0195312-2.5068359,3.7666016-5.2089844,5.2792969-7.6035156l.1328125.3125c.4921875,1.1513672.9833984,2.3027344,1.4648438,3.4580078.7929688,1.90625,1.5751953,3.8144531,2.3574219,5.7246094.0917969.2236328.1572266.4599609.2207031.6933594.0673828.2509766.1269531.5039062.1865234.7568359.1611328.6835938.328125,1.3916016.6572266,2.0625.2714844.5507812.3339844,1.1806641.1816406,1.8203125-.1152344.4873047-.2294922.9755859-.3427734,1.4638672-.3984375,1.7138672-.8105469,3.4853516-1.3203125,5.1923828-.2822266.9462891-.7910156,1.9189453-1.4335938,2.7382812-1.2529297,1.5986328-2.6591797,3.1191406-3.9912109,4.5400391-.2900391.3095703-.6796875.5390625-1.0927734.7822266-.1552734.0917969-.3115234.1835938-.4619141.2792969-.171875.1103516-.3515625.2099609-.5302734.3095703-.2773438.1533203-.5634766.3125-.8261719.5107422-.6582031.4941406-.8984375,1.2529297-.609375,1.9345703.2763672.6513672.9462891.9902344,1.8173828.9394531.8984375-.0537109,1.5751953-.0585938,2.2001953-.0175781,2.9589844.2001953,5.2861328-1.0185547,6.9013672-3.6230469.8085938-1.3027344,1.5009766-2.6982422,2.1708984-4.0488281l.0791016-.1591797c.3623047-.7294922.7021484-1.4707031,1.0410156-2.2119141.4023438-.8779297.8183594-1.7861328,1.265625-2.6552734,1.203125-2.3339844,2.8330078-4.2666016,4.8466797-5.7431641l.0029297.0400391c.0195312.2949219.0371094.5712891.0595703.8476562.0253906.3291016.0537109.6582031.0820312.9873047.0517578.6044922.1035156,1.2089844.1396484,1.8144531.1035156,1.7294922-.2509766,3.5322266-1.1152344,5.6738281-.0419922.1044922-.0888672.2070312-.1357422.3095703-.0664062.1445312-.1328125.2890625-.1865234.4365234-.7080078,1.9462891-2.0625,3.5097656-4.1386719,4.78125-.3632812.2226562-.7207031.4541016-1.0791016.6855469-.5986328.3867188-1.2177734.7880859-1.8476562,1.1328125-.4111328.2255859-.859375.3798828-1.3339844.5439453-.2265625.0791016-.4541016.1572266-.6767578.2431641-.1464844.0576172-.2939453.1113281-.4404297.1660156-.3935547.1455078-.7998047.2958984-1.1835938.4941406-.6191406.3203125-.9130859.8818359-.7675781,1.4658203.1416016.5644531.6142578.9306641,1.2988281,1.0058594.8085938.0839844,1.6367188-.0498047,2.4599609-.4072266.3349609-.1445312.6591797-.3134766.9833984-.4824219l.3642578-.1875c.0585938-.0302734.1152344-.0673828.1708984-.1044922.171875-.1123047.1796875-.1064453.25-.0546875l.1474609.0722656c-.3798828.1777344-.7480469.3828125-1.1054688.6171875-.3339844.2177734-.6728516.4287109-1.0126953.6367188-.6435547.3916016-.9335938.9160156-.8642578,1.5556641.0742188.6826172.53125,1.1523438,1.2529297,1.2900391l.2646484.0517578c.4765625.0926514.9648438.1706543,1.4560547.2241211-.0683594.012207-.1396484.0209961-.2070312.0336914l-.1396484.0253906c-2.6494141.4931641-5.1650391.0058594-7.4726562-1.4414062-.4755859-.2978516-.9414062-.5634766-1.3857422-.7900391-1.8613281-.9492188-3.4833984-1.2304688-5.1113281-.8759766l.0048828-.0917969c.0175781-.3173828.0351562-.6318359.0380859-.9453125.0234375-2.0351562.2919922-3.5566406.8710938-4.9326172.2890625-.6865234.6191406-1.4169922,1.0371094-2.2978516,2.4042969-5.0498047,3.5068359-9.4140625,3.4697266-13.734375-.0048828-.6367188.0146484-1.2734375.0341797-1.9101562.0205078-.6914062.0419922-1.3818359.03125-2.0722656-.0146484-1.0693359-.4921875-1.9785156-1.3798828-2.6298828-.5429688-.4003906-1.1357422-.4902344-1.7148438-.2636719-.5371094.2099609-.8466797.6240234-.8486328,1.1347656-.0019531.2988281.0761719.6298828.2392578,1.0107422.0625.1484375.1708984.2558594.2666016.3496094.0537109.0537109.1279297.1259766.1386719.1630859.0527344.1796875.1074219.359375.1630859.5390625.1943359.6347656.3955078,1.2900391.4560547,1.9335938.4238281,4.5253906-.4677734,9.1123047-2.7246094,14.0214844-.6347656,1.3798828-1.2128906,2.8789062-1.7197266,4.453125-.2685547.8320312-.3378906,1.7060547-.3955078,2.6816406-.0498047.8613281-.0361328,1.7363281-.0234375,2.5810547l.0097656.6943359c.0009766.1259766-.0224609.1816406-.171875.2890625l-.1611328.1181641c-.5400391.3935547-1.0986328.8007812-1.5986328,1.2636719-.296875.2744141-.5439453.6738281-.6982422,1.1269531-.1181641.3486328-.0126953.7822266.1123047,1.0458984.1171875.2490234.3134766.3945312.5400391.3994141.2490234.0253906.4736328-.1533203.6220703-.4365234l.0507812-.0986328c.0869141-.1689453.1757812-.34375.2851562-.4248047.5302734-.3974609,3.3212891-2.2880859,6.0107422-.6083984.5341797.3320312,1.0517578.6914062,1.5693359,1.0498047l.421875.2910156c2.3261719,1.6035156,4.7167969,2.3896484,7.3095703,2.4033203.4570312.0048828.9150391.0009766,1.3730469,0l.8144531-.0029297c-.0087891.0146484-.0175781.0273438-.0263672.0371094-.1416016.1601562-.2802734.3242188-.4189453.4892578-.3740234.4453125-.7285156.8652344-1.1494141,1.2089844-2.0732422,1.6914062-4.546875,2.4736328-7.5332031,2.4746094-1.7285156-.0136719-3.7578125-.1474609-5.7001953-1.0341797-.7060547-.3232422-1.3505859-.4150391-1.9775391-.2919922-.5390625.1103516-.9785156.3955078-1.2373047.8037109-.2578125.4082031-.3261719.9267578-.1933594,1.4609375.1816406.7265625.6464844,1.3056641,1.3457031,1.6757812,1.75.9257812,3.3037109,1.3691406,4.8300781,1.3691406.2441406,0,.4873047-.0117188.7304688-.0341797,1.3691406-.1269531,2.8222656-.3378906,4.4433594-.6435547,2.5410156-.4794922,4.8720703-1.6728516,6.9287109-3.5478516,1.2285156-1.1191406,2.0087891-2.3320312,2.3867188-3.7060547.1552734-.5644531.3701172-.8769531.7900391-1.1533203.5478516-.3613281.8466797-.8984375.8193359-1.4746094-.0107422-.2246094-.0830078-.4331055-.1865234-.6289062.1074219.0639648.2119141.1131592.3203125.1835938,1.5332031.9951172,3.1767578,2.0244141,4.8828125,3.0595703,2.3466797,1.4238281,4.6494141,2.0869141,7.0361328,2.0195312-.2705078,1.2109375.2363281,2.2617188.6875,3.1982422.234375.4873047.5,1.0390625.8164062,1.5576172.7275391,1.1943359,1.1367188,2.4423828,1.2490234,3.8154297.0791016.9658203.1679688,1.9316406.2558594,2.8974609.0947266,1.0371094.1904297,2.0742188.2744141,3.1123047.1640625,2.0507812-.0234375,4.1630859-.5751953,6.4589844-.2822266,1.1748047-.6074219,2.3632812-.9228516,3.5136719l-.3212891,1.1816406c-.0224609.0820312-.0527344.1630859-.0888672.2529297-.0078125-.0087891-.015625-.0175781-.0224609-.0253906-.2236328-.2470703-.4150391-.4599609-.5683594-.6972656-.2255859-.3515625-.6494141-.5791016-1.0605469-.5458984-.4101562.0136719-.7724609.2333984-.9697266.5898438Zm-3.0390625-30.1572266c-1.5087891-.9033203-2.8330078-1.7724609-4.0478516-2.6591797-1.3779297-1.0048828-2.9316406-1.71875-4.7226562-2.1669922h.0390625c1.8994141,0,3.8339844.3916016,6.0615234,1.2246094,3.0537109,1.1425781,6.1025391,1.5449219,9.0615234,1.1962891.9609375-.1123047,1.9707031-.2929688,2.8388672-.8427734.4453125-.2822266.8632812-.671875,1.1748047-1.0976562.4023438-.5488281.3779297-1.3085938-.0595703-1.8476562-.4121094-.5078125-1.1308594-.6845703-1.7861328-.4462891-.5068359.1865234-.8710938.3652344-1.1806641.5791016-1.2685547.8798828-2.78125,1.2324219-4.7773438,1.0986328-1.8466797-.1210938-3.3359375-.4082031-4.6845703-.9042969-2.0761719-.7626953-4.2695312-1.0263672-6.6982422-.8027344-.9560547.0869141-1.8369141.2910156-2.6611328.6181641.0292969-.0273438.0546875-.0566406.0751953-.0878906.3056641-.4677734.7695312-.7558594,1.2597656-1.0615234l.2988281-.1875c.90625-.5839844,1.9335938-1.2460938,3.1132812-1.5068359,1.015625-.2265625,1.9365234-.2714844,2.8134766-.1435547.5742188.0849609,1.1484375.171875,1.7226562.2587891.8183594.1240234,1.6367188.2480469,2.4560547.3642578,2.4121094.3408203,4.8525391.2128906,7.2548828-.3798828,1.2949219-.3193359,2.3017578-1.1328125,3.1162109-1.8876953.515625-.4775391,1.1347656-.8652344,1.6748047-1.1904297.4228516-.2548828.90625-.2919922,1.5166016-.1123047.7470703.2177734,1.5224609.3857422,2.2734375.5488281.2216797.0478516.4453125.0966797.6689453.1464844-.6201172,1.8828125-1.2626953,3.8291016-2.4453125,5.4785156-.4873047.6777344-.9589844,1.3662109-1.4267578,2.0566406-.7246094,1.0664062-1.6621094,1.9238281-2.7871094,2.5488281-1.8964844,1.0527344-3.4306641,1.6826172-4.9726562,2.0429688-1.7958984.421875-3.5351562.1386719-5.1699219-.8369141Zm-55.046875-8.1113281c-.3789062-.1152344-.8154297-.1679688-1.2802734-.1572266-.7519531.0205078-1.5039062.0585938-2.2558594.0966797-.46875.0234375-.9365234.0478516-1.4052734.0673828-.3574219.015625-.7285156.03125-1.0742188-.015625-1.7207031-.2265625-3.1621094-1.140625-4.5126953-2.8701172.1962891-.0078125.3886719-.0195312.5791016-.0488281,2.7871094-.4238281,5.515625-.8105469,8.2402344-.8798828.6884766-.0166016,1.4296875.0195312,2.1162109.3916016.6044922.328125,1.2138672.6494141,1.8300781.9541016.2890625.1416016.4335938.3310547.4960938.6513672.0957031.4853516.2177734.859375.3847656,1.1787109.1757812.3359375.4609375.5625.8017578.6376953.34375.0751953.6933594-.0097656.9912109-.2402344.2460938-.1894531.4570312-.4550781.578125-.7265625.46875-1.0449219.5273438-2.078125.1748047-3.0693359-.5605469-1.5742188-1.7939453-2.5039062-2.8056641-3.1376953-.2011719-.1259766-.4042969-.25-.6064453-.3740234-.4511719-.2753906-.9179688-.5605469-1.3554688-.8652344-1.1318359-.7851562-2.5175781-1.9130859-3.1943359-3.6699219-.4648438-1.2060547-.7695312-2.5380859-.9306641-4.0722656-.3515625-3.3330078.2558594-6.4990234,1.8056641-9.4111328l.1162109-.2177734c1.2890625-2.4228516,2.6210938-4.9248047,3.5107422-7.5996094l.0068359.0117188c1.0732422,1.8378906,2.5976562,3.0898438,4.5302734,3.7216797l.1005859.0332031c.4511719.1474609.9179688.2998047,1.3935547.4052734,1.9267578.421875,3.3896484,1.5566406,4.6054688,3.5712891.9111328,1.5107422,1.2558594,3.1884766,1.4941406,4.7763672.4511719,3.0263672.3144531,5.5419922-.4296875,7.9169922-.3222656,1.0302734-.5488281,2.1035156-.7675781,3.140625l-.1777344.8349609c-.3378906,1.5527344-.6728516,3.2119141-.7246094,4.9414062-.0253906.8134766.0361328,1.4960938.1923828,2.1083984-3.5878906-3.9726562-5.8525391-8.0332031-6.9140625-12.3867188-.5947266-2.4404297-1.1367188-5.3359375-.640625-8.2939453.0634766-.3779297.1142578-.7578125.1640625-1.1376953.0322266-.2470703.0644531-.4931641.1005859-.7392578.0869141-.5830078-.1035156-1.1191406-.5087891-1.4355469-.3984375-.3105469-.9277344-.3623047-1.453125-.1425781-.3759766.15625-.7519531.4316406-1.0595703.7744141-.7822266.8740234-1.140625,1.9990234-1.0644531,3.3427734.2060547,3.6630859,1.1308594,7.4472656,2.8271484,11.5693359,1.1630859,2.8242188,2.9599609,5.4921875,5.8271484,8.6503906.4990234.5488281,1.03125,1.0800781,1.546875,1.5927734.5126953.5117188,1.0429688,1.0400391,1.5351562,1.5810547.4267578.4707031.8232422.9902344,1.2060547,1.4921875.2519531.3291016.5039062.6582031.765625.9785156.4121094.5048828,1.0068359.6337891,1.4169922.3037109.3710938-.3007812.3642578-.7539062-.0224609-1.3457031l-.1279297-.1972656c.7382812.3896484,1.5175781.6464844,2.3759766.7861328l-.0244141.0361328c-.3300781.4912109-.6259766.9316406-.9033203,1.3359375-.0029297.0019531-.03125.0185547-.1289062.0371094-.3261719.0625-.6542969.1162109-.9833984.1689453-.671875.109375-1.3671875.2216797-2.0341797.4169922-4.3798828,1.2802734-7.2607422,3.6025391-8.8095703,7.1005859-.0498047.1142578-.1757812.2431641-.3046875.3144531-.8701172.4785156-1.9003906,1.0371094-2.9433594,1.5585938-1.7041016.8544922-3.5673828,1.6738281-5.6347656,1.8876953-.9257812.0957031-2.0175781.1513672-3.0869141-.1513672-.6591797-.1865234-1.0605469-.6425781-1.3339844-1.5175781.3554688-.3710938.7158203-.7373047,1.0791016-1.1044922l.0400391-.0117188c2.7207031-.9404297,5.3789062-2.4013672,8.3632812-4.5976562l.4794922-.3535156c1.5429688-1.1396484,3.1376953-2.3173828,4.8964844-3.1484375,1.1259766-.5322266,2.6298828-1.1484375,4.2724609-1.1855469.6318359-.0136719,1.0371094-.421875,1.0585938-1.0654297.0214844-.6425781-.2783203-1.1757812-.8212891-1.4628906-.4355469-.2294922-.921875-.3925781-1.4052734-.4697266-.8769531-.1386719-1.6796875.1464844-2.4912109.4794922-1.9746094.8056641-3.734375,2.0185547-5.4541016,3.2050781-.5566406.3828125-1.1103516.7705078-1.6650391,1.1582031-1.3125.9169922-2.6699219,1.8652344-4.0361328,2.7460938-1.140625.734375-2.3759766,1.4082031-3.6708984,2.0019531-2.2646484,1.0400391-4.8183594,1.3457031-7.5927734.9052734-1.9238281-.3037109-3.3261719-1.4042969-4.0546875-3.1826172-.2900391-.7080078-.4980469-1.4726562-.6992188-2.2128906-.0820312-.3037109-.1650391-.6074219-.2519531-.9023438-.0009766-.0136719.0048828-.0605469.0283203-.1103516.0800781-.171875.1650391-.3417969.2490234-.5117188.1376953-.2763672.2744141-.5517578.3925781-.8359375.1386719-.3291016.3007812-.3076172.3779297-.3037109l.2529297.0224609c.4140625.0351562.84375.0712891,1.2021484.2109375,1.1015625.4267578,2.5429688,1.0048828,3.9326172,1.6835938,1.9628906.9580078,3.6474609,1.5458984,5.2998047,1.8486328,2.9091797.5341797,5.4902344-.1005859,7.671875-1.8857422.9550781-.78125,1.6767578-1.7324219,2.3349609-2.640625.1708984-.2363281.3789062-.4570312.6025391-.6367188.0302734-.0244141.0654297-.0478516.0996094-.0712891.1435547-.0976562.5253906-.3564453.2978516-.7861328-.1289062-.2412109-.5175781-.5527344-.8291016-.5097656-.2607422.0341797-.7480469.1328125-1.125.4150391.0058594-.1064453-.0019531-.2148438-.0244141-.3203125-.1015625-.4804688-.484375-.8652344-1.0253906-1.03125Zm36.8837891-1.1230469c-.5478516.3662109-1.1650391.5791016-1.9814453.6738281,1.5302734-1.2949219,2.8300781-2.8271484,4.0917969-4.3134766l.2978516-.3515625c.5078125-.5957031.9511719-1.1982422,1.3320312-1.8085938-.3320312.7773438-.6630859,1.546875-.9921875,2.3056641-.6835938,1.5742188-1.5820312,2.7167969-2.7480469,3.4941406Z" stroke-width="0"/>
      <path d="m71.9750347,68.9747943c.3251953.1552734.6533203.2314453.96875.2314453.6298828,0,1.2119141-.3017578,1.6318359-.8769531.5771484-.7890625.8037109-1.7421875.6533203-2.7539062l-.0029297-.015625c-.2011719-.9833984-.6152344-1.6884766-1.2646484-2.1552734-.390625-.2802734-.9023438-.4814453-1.4013672-.5517578-.7451172-.1025391-1.3847656.2509766-1.5908203.8837891-.1298828.3974609-.2988281.8623047-.5742188,1.2978516-.03125.0488281-.0449219.0957031-.0576172.1396484-.4414062,1.3701172.3398438,3.1816406,1.6376953,3.8007812Z" stroke-width="0"/>
      <path d="m28.1918316,81.9982318c-.5244141-1.2626953-1.5078125-2.1767578-2.7685547-2.5732422-.4814453-.1513672-.7373047-.3320312-.9453125-.6669922-.0761719-.1220703-.1621094-.2392578-.2509766-.3515625-.3535156-.4521484-.8574219-.6074219-1.3515625-.4248047-.5205078.1962891-.8339844.7324219-.7460938,1.2753906.046875.2822266.1328125.6953125.3496094,1.015625.7910156,1.1669922,1.6484375,2.4130859,2.5556641,3.6181641.3359375.4462891.8564453.6875,1.3984375.6875.2851562,0,.5751953-.0664062.8476562-.2050781.7841797-.4013672,1.1230469-1.2460938.9287109-2.3173828l-.0175781-.0576172Z" stroke-width="0"/>
      <path d="m54.9349957,85.1974506c.1201172.3945312.4287109.6689453.8251953.7333984.0576172.0087891.1162109.0136719.1738281.0136719.3779297,0,.75-.1933594.9824219-.5224609.1298828-.1835938.2275391-.3896484.2822266-.5957031.3310547-1.2509766.4384766-2.5947266.3388672-4.2314453l-.0410156-.1689453c-.0244141-.0878906-.0478516-.1738281-.0761719-.2578125-.2636719-.7890625-.8623047-1.2568359-1.6025391-1.2568359h-.0195312c-.7207031.0068359-1.3349609.5087891-1.5644531,1.2783203-.0810547.2714844-.1142578.5410156-.1464844.8408203-.1308594,1.2119141.2382812,2.3164062.5947266,3.3837891.0869141.2617188.1738281.5214844.2529297.7832031Z" stroke-width="0"/>
      <path d="m60.9271832,101.5949115c-.015625-.0664062-.0380859-.1630859-.0693359-.2568359-.2167969-.6513672-.6025391-1.1171875-1.1171875-1.3457031-.5136719-.2285156-1.1142578-.2041016-1.7353516.0673828-.0820312.0361328-.1904297.0527344-.3603516.0800781-.7929688.1318359-1.3037109.6845703-1.3652344,1.4785156-.0566406.7490234.2226562,1.4335938.8544922,2.0908203.4794922.4980469,1.0869141.7597656,1.6923828.7597656.3242188,0,.6484375-.0751953.9521484-.2294922.9189453-.4658203,1.3642578-1.4550781,1.1630859-2.5800781l-.0146484-.0644531Z" stroke-width="0"/>
      <path d="m46.95648,95.406435c-.5332031-.4462891-1.0849609-.9072266-1.5576172-1.4335938-.4560547-.5048828-1.1826172-.4521484-1.6650391-.1386719-.2451172.1589355-.4179688.3859863-.5185547.6455078-.1494141-.2387695-.3408203-.4421387-.5341797-.6337891l-.0976562-.0966797c-.1171875-.1181641-.2421875-.2285156-.3681641-.3398438-.375-.3291016-.6982422-.6132812-.7900391-1.0917969-.0458984-.2382812-.1953125-.4082031-.3994141-.4550781-.2158203-.0439453-.4482422.0517578-.6113281.2714844-.1699219.2285156-.3125.4658203-.421875.7060547-.0654297.1435547-.0644531.1435547-.1777344.1269531-.4804688-.0820312-.9023438.1503906-1.1220703.5996094-.2138672.4375-.1445312.8925781.1972656,1.28125.1503906.1669922.328125.2978516.4833984.4042969.4550781.3076172.7324219.5927734.9287109.9521484.296875.5458984.8505859.8632812,1.4677734.8632812.1103516,0,.2226562-.0097656.3349609-.0302734h.0009766c.5361328-.0996094.9785156-.4384766,1.2138672-.9287109.0322266-.0667725.0478516-.137207.0703125-.2061768.0244141.0450439.0361328.0982666.0634766.1407471.4199219.6552734.8457031,1.3085938,1.2900391,1.9482422.3925781.5644531.9306641.8564453,1.5703125.8564453.0957031,0,.1933594-.0068359.2939453-.0195312l.0234375-.0039062c.6542969-.1425781,1.1064453-.5341797,1.3095703-1.1298828.2421875-.7109375.0849609-1.3740234-.4326172-1.8212891-.1826172-.1582031-.3671875-.3125-.5517578-.4667969Z" stroke-width="0"/>
      <path d="m37.0697613,96.4074115c-.0205078-.0996094-.0507812-.25-.1455078-.3828125-.4375-.6113281-.9501953-1.3203125-1.4882812-2-.1767578-.2226562-.4931641-.3085938-.6660156-.3408203-.5244141-.0976562-1.1738281.2832031-1.5810547.6337891-.2587891.2226562-.6914062.6679688-.6767578,1.1484375.0146484.4648438.1855469.9775391.4462891,1.3388672.3349609.4619141.7578125.8544922,1.1669922,1.234375l.1455078.1347656c.3476562.3232422.7636719.4892578,1.1826172.4892578.2792969,0,.5585938-.0732422.8212891-.2226562.6601562-.375.9638672-1.1064453.8125-1.9550781l-.0175781-.078125Z" stroke-width="0"/>
      <path d="m61.8422222,92.4503803c-.0957031-.2539062-.1777344-.4736328-.2978516-.6865234-.3603516-.6357422-1.0546875-.9648438-1.7578125-.8417969-.7412109.1298828-1.2939453.7089844-1.3759766,1.4404297-.0488281.4394531-.0039062.8759766.1269531,1.2304688.4863281,1.3183594,1.1767578,2.1582031,2.171875,2.6445312.2207031.1074219.4365234.2021484.6337891.2021484.0878906,0,.171875-.0185547.2519531-.0625.2431641-.1347656.3066406-.4365234.3378906-.7128906.0742188-.671875.0722656-1.3388672.0703125-1.984375-.0009766-.2548828-.0019531-.5048828.0019531-.7470703l.0009766-.0576172-.0214844-.0537109c-.0537109-.1318359-.0996094-.2548828-.1425781-.3710938Z" stroke-width="0"/>
      <path d="m34.2181988,87.0421771c.0273438.0019531.0537109.0029297.0810547.0029297.4345703,0,.8447266-.21875,1.0849609-.5830078.2353516-.3544922.3652344-.8378906.3300781-1.2285156-.1259766-1.4863281-.4755859-2.6142578-1.0996094-3.5498047-.1171875-.1767578-.3076172-.4082031-.5771484-.4042969-.2939453.0058594-.4638672.2890625-.5195312.3818359-.1757812.2929688-.3203125.6064453-.4589844.9140625-.0712891-.1396484-.1484375-.28125-.2333984-.4179688-.1054688-.1669922-.4355469-.4208984-.7089844-.3212891-.234375.0908203-.4082031.3632812-.453125.5742188-.0419922.2011719-.0107422.4482422.0859375.6777344l.3037109.7216797c.3544922.8447266.7207031,1.71875,1.1357422,2.5546875.1962891.3964844.5810547.6503906,1.0292969.6777344Z" stroke-width="0"/>
      <path d="m64.7865582,67.9103412c.4121094-.6230469.3691406-1.4306641-.1103516-2.0566406-.1015625-.1337891-.2265625-.2490234-.3525391-.3632812-.0859375-.078125-.1728516-.15625-.2490234-.2441406-.0869141-.1015625-.2070312-.2519531-.2392578-.3828125-.1259766-.5292969-.6679688-.9863281-1.2070312-1.0205078-.5332031-.015625-1.1132812.2998047-1.1552734.8955078-.0195312.2773438-.0869141.3291016-.4794922.3701172-.0947266.0107422-.2353516.0341797-.375.1269531-.1455078.0957031-.3427734.2265625-.3427734.453125.0009766.1962891.1357422.4326172.3115234.5488281.2597656.1699219.5371094.3115234.8349609.4628906.2880859.1464844.2773438.2158203.2675781.2822266l-.0068359.0439453.0068359.0429688c.1328125.8310547.6464844,1.4150391,1.3730469,1.5625.1103516.0214844.2216797.0322266.3310547.0322266.5546875,0,1.078125-.2763672,1.3925781-.7539062Z" stroke-width="0"/>
      <path d="m69.4125347,95.5285053c-.4257812-.2900391-.9658203-.3808594-1.5595703-.2636719-1.1796875.2314453-1.9365234,1.2890625-1.7226562,2.40625.1835938.9619141,1.0429688,1.6376953,2.0029297,1.6376953.1210938,0,.2451172-.0107422.3681641-.0332031.5449219-.0996094,1.0195312-.4082031,1.3349609-.8671875.3310547-.4833984.4511719-1.0751953.3378906-1.6669922-.0996094-.5244141-.3623047-.9433594-.7617188-1.2128906Z" stroke-width="0"/>
      <path d="m56.8812847,109.4386615c-.2832031-.1416016-.53125-.2158203-.7587891-.2255859-.4794922-.0224609-.9638672-.0185547-1.3955078-.0214844l-.4716797-.0019531-.0214844.0039062c-.6757812.0996094-1.0644531.4121094-1.15625.9277344-.0625.3496094-.0107422.8466797.5859375,1.2314453.4599609.2978516.921875.5957031,1.3857422.8847656.1865234.1171875.3564453.2021484.5185547.2607422.2304688.0830078.4599609.1220703.6816406.1220703.6611328,0,1.2441406-.3496094,1.5107422-.9580078.3583984-.8193359-.0273438-1.7958984-.8789062-2.2236328Z" stroke-width="0"/>
      <path d="m47.1674175,103.399599c-.0351562-.0927734-.0683594-.1904297-.1035156-.2900391-.0839844-.2460938-.171875-.5-.2998047-.7470703-.1923828-.3720703-.5126953-.6396484-.8798828-.7353516-.2919922-.0761719-.59375-.0302734-.8378906.1308594-.1982422.1308594-.3408203.1484375-.6113281.0732422-.6259766-.1738281-1.2353516.09375-1.5214844.6582031-.2705078.53125-.1396484,1.1699219.3193359,1.5517578.4199219.3505859.9228516.7568359,1.4648438,1.1074219.2832031.1835938.5859375.2753906.8876953.2753906.3232422,0,.6445312-.1044922.9423828-.3134766.5351562-.3759766.7558594-.9306641.65625-1.6494141l-.0166016-.0615234Z" stroke-width="0"/>
      <path d="m71.9262066,87.9288959c-.1347656-.0214844-.2685547-.0214844-.4072266-.0175781l-.1425781.0009766-.0507812-.0009766-.1914062.0615234c-.1220703.0371094-.2480469.0742188-.3710938.1455078-1.0205078.59375-1.7685547,1.5117188-2.3515625,2.8876953-.2822266.6640625.1240234,1.3632812.6787109,1.6552734.2148438.1132812.4423828.1679688.6640625.1679688.4121094,0,.8046875-.1884766,1.0683594-.5419922.2470703-.3320312.4589844-.7353516.6464844-1.2333984.0458984-.1201172.0888672-.2402344.1308594-.3613281.1757812-.5019531.3427734-.9765625.7285156-1.3232422.09375-.0859375.1435547-.1923828.1914062-.2939453.1220703-.2617188.1259766-.5263672.0107422-.7441406-.1123047-.2138672-.3271484-.3564453-.6044922-.4023438Z" stroke-width="0"/>
      <path d="m42.0873394,85.2843646c.0263672,0,.0527344-.0009766.0791016-.0019531.6513672-.0273438,1.1455078-.3662109,1.3554688-.9296875.1162109-.3115234.1660156-.6425781.2128906-.9619141.0214844-.1386719.0419922-.2783203.0683594-.4189453l.0195312-.1005859-.0498047-.0888672c-.0849609-.1542969-.1640625-.3085938-.2421875-.4589844-.1816406-.3515625-.3535156-.6845703-.5791016-.9951172-.2128906-.2939453-.5332031-.4912109-.8769531-.5419922-.3203125-.0458984-.6337891.0341797-.8837891.2255859-.5947266.4560547-.9316406,1.1757812-.9257812,1.9746094.0029297.5039062.2431641.9990234.4765625,1.4804688.2519531.5224609.7402344.8173828,1.3457031.8173828Z" stroke-width="0"/>
      <path d="m67.838316,111.1935443c-.28125-.8320312-.8808594-1.5966797-1.7353516-2.2119141-.4091797-.2949219-.9267578-.2822266-1.3847656.0263672-.4707031.3173828-.6748047.8242188-.5322266,1.3232422.2080078.7333984.4433594,1.359375.71875,1.9150391.1767578.3544922.5634766.6142578.8554688.7685547.2216797.1181641.453125.1767578.6826172.1767578.3164062,0,.6289062-.1113281.9091797-.3320312.6171875-.484375.5791016-1.1591797.4970703-1.6240234l-.0107422-.0419922Z" stroke-width="0"/>
      <path d="m79.7015972,63.0851459c-.5058594-.0615234-.8583984.1738281-.9443359.6328125l-.0537109.2880859c-.0966797.5029297-.1962891,1.0234375-.1884766,1.546875.0087891.6171875.2392578,1.1523438.6464844,1.5048828.2919922.2529297.6503906.3867188,1.0273438.3867188.0693359,0,.1386719-.0048828.2080078-.0136719.4443359-.0576172.8154297-.2744141,1.0732422-.6259766.3125-.4267578.4228516-1.0078125.3095703-1.6367188-.2441406-1.359375-.8066406-1.9248047-2.078125-2.0830078Z" stroke-width="0"/>
      <path d="m74.7953472,79.3556537c.5-.7236328.6748047-1.5507812.5058594-2.3916016-.1445312-.7158203-.7353516-1.2519531-1.4707031-1.3339844-.7568359-.0791016-1.4775391.3378906-1.7460938,1.0302734-.1074219.2792969-.1435547.5732422-.1689453.7871094-.0087891.0673828-.015625.1269531-.0244141.1738281l-.0107422.0595703.0146484.0585938c.2099609.8583984.4599609,1.4775391,1.0595703,1.9072266.2558594.1845703.5400391.28125.8173828.28125.0664062,0,.1328125-.0058594.1982422-.0166016.3291016-.0576172.6152344-.2490234.8251953-.5556641Z" stroke-width="0"/>
      <path d="m51.807066,92.0167865c-.6904297.3808594-.9521484,1.2402344-.6220703,2.0429688.4003906.9746094,1.1953125,1.5722656,1.7578125,1.9365234.1835938.1181641.3955078.1767578.6083984.1767578.3017578,0,.6054688-.1181641.8242188-.3427734.375-.3876953.3652344-.8349609.3554688-1.2666016l-.2841797-.0576172h0l.2822266-.0058594-.0244141-.1103516c-.0810547-.1787109-.1572266-.3603516-.2333984-.5419922-.1757812-.421875-.3574219-.8574219-.6035156-1.2578125-.4462891-.7275391-1.3320312-.9716797-2.0605469-.5732422Z" stroke-width="0"/>
      <path d="m52.9828472,101.7628803l-.1083984-.4589844c-.0449219-.2041016-.296875-.3769531-.5068359-.3662109-.2167969.0244141-.3623047.2265625-.4140625.3417969-.0332031.0742188-.0615234.1503906-.0898438.2294922-.109375-.0771484-.2207031-.1474609-.3466797-.2011719-.3564453-.1513672-.7392578-.3056641-1.1455078-.3867188-.4228516-.0839844-.8417969.1123047-1.1113281.5195312-.2724609.4150391-.2695312.9033203.0068359,1.2734375.75,1.0048828,1.6923828,1.5703125,2.8027344,1.6806641.0400391.0039062.0800781.0058594.1201172.0058594.3115234,0,.6132812-.1191406.8242188-.3300781.2021484-.2021484.2988281-.4648438.2714844-.7382812-.0537109-.5341797-.1796875-1.0605469-.3027344-1.5693359Z" stroke-width="0"/>
      <path d="m66.4584332,83.343935c.2294922.1210938.4814453.1796875.7324219.1796875.3779297,0,.7548828-.1328125,1.0507812-.390625.5205078-.4521484.6826172-1.1572266.4326172-1.8847656-.0595703-.1728516-.0625-.2753906-.0556641-.3291016.0664062-.4638672-.0673828-.8984375-.3681641-1.1923828-.3164062-.3085938-.7646484-.4326172-1.2724609-.3466797l-.0175781.0029297c-.5927734.1386719-1.0117188.5615234-1.1796875,1.1904297-.0917969.3496094-.1357422.7089844-.1738281,1.0263672-.0927734.7490234.2333984,1.4169922.8515625,1.7441406Z" stroke-width="0"/>
      <path d="m59.7933941,75.4132709c.1796875.1103516.3564453.2587891.5087891.4287109.1308594.1474609.3076172.3115234.5322266.3115234.0136719,0,.0273438,0,.0419922-.0019531.2460938-.0224609.4013672-.2304688.5097656-.4101562.3798828-.6308594.4970703-1.3173828.359375-2.0986328l-.0107422-.0419922c-.0292969-.0869141-.0566406-.1738281-.0830078-.2617188-.0654297-.2099609-.1328125-.4277344-.2324219-.6357422-.3994141-.8466797-1.2626953-1.2158203-2.0517578-.8808594-.8193359.3476562-1.1796875,1.2744141-.8378906,2.1533203.2265625.5859375.6396484,1.0566406,1.2636719,1.4375Z" stroke-width="0"/>
      <path d="m72.5785503,56.0968646l.1347656.2138672c.28125.4443359.6572266.6679688,1.1162109.6679688.0341797,0,.0683594-.0009766.1035156-.0029297.5761719-.0400391,1.0087891-.3623047,1.1894531-.8867188.0800781-.2353516.1083984-.4794922.1376953-.7382812.0136719-.1181641.0273438-.2431641.0478516-.3769531l.0166016-.1074219-.0595703-.0898438c-.0751953-.1162109-.1474609-.2392578-.2207031-.3642578-.1796875-.3076172-.3662109-.6259766-.6279297-.8925781-.3076172-.3134766-.7089844-.4443359-1.1025391-.3662109-.4179688.0859375-.7705078.4033203-.9433594.8476562-.0195312.0517578-.0371094.1044922-.0556641.1572266-.0302734.0917969-.0595703.1787109-.0996094.2451172-.2333984.3925781-.2167969.796875.0488281,1.2001953.1064453.1630859.2099609.328125.3144531.4931641Z" stroke-width="0"/>
      <path d="m41.4017925,72.4406146c.0146484.0439453.0283203.0878906.0419922.1318359.0664062.2080078.1357422.4228516.2373047.6298828.2382812.4833984.7197266.7773438,1.2421875.7773438.0732422,0,.1474609-.0058594.2216797-.0175781.5595703-.0908203.9785156-.5380859,1.09375-1.1689453.125-.6884766-.1376953-1.2587891-.7597656-1.6474609-.1904297-.1191406-.1816406-.1572266-.1152344-.3017578.1181641-.2558594.0839844-.4599609.0351562-.5869141-.078125-.1982422-.25-.3583984-.4970703-.4609375-.2851562-.1191406-.6054688-.1064453-.8818359.03125-.2841797.1445312-.484375.4033203-.5625.7285156-.0917969.3769531-.1181641.7636719-.1435547,1.1367188-.0107422.1582031-.0214844.3164062-.0371094.4726562l.0429688.25.0820312.0253906Z" stroke-width="0"/>
      <path d="m75.9213238,85.7306537c-.7939453-.1923828-1.6005859.2929688-1.8300781,1.1083984-.1074219.3828125-.1484375.7773438-.1884766,1.1601562-.0166016.1630859-.0341797.3261719-.0566406.4892578l-.0107422.078125.0898438.2119141c.1328125.3242188.2988281.7285156.8125.8193359.0585938.0107422.1142578.0146484.1669922.0146484.5019531,0,.7753906-.4257812.9150391-.6435547.03125-.0498047.0605469-.1025391.0888672-.1533203l.1455078-.2666016c.2089844-.3808594.4179688-.7626953.6230469-1.1455078.1865234-.3457031.2119141-.7119141.0703125-1.0292969-.1435547-.3203125-.4365234-.5488281-.8261719-.6435547Z" stroke-width="0"/>
      <path d="m50.7963238,68.7824115c.1425781.1699219.2773438.3300781.4638672.4375.3828125.2226562.7929688.3974609,1.1894531.5664062l.1494141.0644531c.078125.0322266.1542969.0410156.2255859.0410156.0478516,0,.09375-.0039062.1357422-.0078125.0273438-.0029297.0556641-.0058594.0820312-.0058594h.3085938l-.0292969-.3896484c-.0009766-.0976562-.0019531-.21875-.0585938-.3388672-.1376953-.2900391-.2324219-.5175781-.2109375-.8046875.0351562-.4619141-.2392578-.8828125-.734375-1.1259766-.46875-.2314453-.9433594-.1787109-1.2636719.1376953-.1699219.1679688-.2714844.3837891-.3701172.5927734-.0410156.0878906-.0839844.1796875-.1337891.2705078l-.0986328.1806641.140625.1494141c.0761719.0800781.1425781.1591797.2041016.2324219Z" stroke-width="0"/>
    </g>
  </g>
</svg>