<?xml version="1.0" encoding="UTF-8"?>
<svg id="Layer_2" data-name="Layer 2" xmlns="http://www.w3.org/2000/svg" viewBox="0 0 170.1589867 251.7432912">
  <g id="Layer_1-2" data-name="Layer 1">
    <g>
      <path d="m52.1918008,221.1173841c-.4020097-.5751335-.6315111-1.0404229-.9828807-1.3793971-.9006338-.8688842-1.8137731-1.7346999-2.796943-2.5061035-2.2918782-1.7982166-4.4851766-3.6950389-6.2987862-5.9873053-.5157451-.6518597-.9877217-1.3585874-1.3527925-2.1024767-.25691-.5234994-.4088059-1.1511542-.4151893-1.7344189-.0150397-1.3740099,1.1031692-2.3405532,2.4453615-2.0768157.722197.1419493,1.7941854.0596459,1.6584205,1.369611-.0168795.162857.2420651.3854295.4143618.531942,1.8745335,1.594022,3.740967,3.1982243,5.6422416,4.7599326,1.9924871,1.6366202,4.1052273,3.1514635,5.6853382,5.2177018.73853.9657229,1.4332129,2.0269215,1.8640921,3.1533379.9561992,2.4996831-.1964436,5.1057265-2.6904755,6.0707344-1.1924617.4613877-2.510309.7316948-3.7889672.8135016-4.6207824.2956913-9.2083194-.1054662-13.6871829-1.2711847-7.6174163-1.9825723-14.9984807-4.6609843-22.0960858-8.0655594-3.9265819-1.8834857-7.4856634-4.4007824-11.0131638-6.9373633-1.5166924-1.0906176-2.8021106-2.4418488-3.7434629-4.0827767-1.8279565-3.1864364-1.2220893-6.2114462,1.7057262-8.4307089,2.2710171-1.7214094,4.8883371-2.4145222,7.6919428-2.5163131,2.9033603-.105414,5.7368157.4523769,8.5737029.9453194,2.4526139.4261567,4.887935.5109386,7.3320853-.0656929,1.2332887-.2909826,2.1043115-.8832601,2.8177347-2.018482,1.8399145-2.9277336,3.80277-5.7832508,5.8195045-8.5937363,4.0488165-5.6423457,7.365055-11.7103525,10.5760832-17.845562,2.220083-4.2418481,4.4238512-8.4963605,5.9039292-13.063692,1.0520454-3.2464831,2.0522921-6.5190757,2.8640423-9.8318501,1.1273615-4.6008023,2.050797-9.2514056,3.0790695-13.8768158.1060198-.4768987-.0096695-.8146654-.280345-1.2108319-1.7584746-2.5736562-2.6102946-5.5082615-3.0068701-8.5363433-.7260427-5.5438146.0412617-10.9805814,1.5661919-16.3272897,2.2801512-7.9946606,5.9572521-15.3610309,10.194792-22.4620002,2.9393673-4.9255963,6.0732825-9.736301,8.9597512-14.6918465,2.0551864-3.5283652,3.8758749-7.1955542,5.7434715-10.8304613,3.4737207-6.7608943,7.725603-13.0185988,12.2283999-19.1191737,1.0345599-1.401653,2.0171464-2.8416538,3.0511125-4.2437607.6144182-.8331859,1.3423413-1.5384808,2.3968231-1.8188861.1500138-.039891.3216174-.259376.3575177-.423276.1700229-.7762314.6927805-1.1796274,1.3930481-1.4150034,1.2219779-.410749,2.3935736-.1406675,3.5318347.3166764,1.0300743.4138822,2.0381985.8823942,3.0776652,1.3362776.4341529-.5821922.857665-1.1871322,1.3188201-1.7618607,1.7124316-2.1341931,3.9073352-3.5283783,6.5343866-4.283504,1.695464-.4873519,3.3757633-1.0289141,5.0555747-1.5688756,1.9031163-.6117416,3.1161545-1.866509,3.5159555-3.8593078.9085069-4.5283842,3.1196291-8.523105,5.1829232-12.5746413.7043922-1.3831945,1.3969101-2.7922617,2.2804897-4.0601363,1.6865688-2.4201124,4.1175648-3.6956378,7.0271227-4.0264348,1.4989437-.1704249,2.763199.3209461,3.5786602,1.6591593.8611326,1.4131815.8923582,2.8535292.0157618,4.2810077-.7982165,1.2998569-1.9623691,2.2262443-3.218315,3.0333367-.9957482.6398643-2.0193103,1.2446399-3.069801,1.7892313-1.7682101.9166758-2.8935044,2.3107386-3.4861181,4.2075748-.3219441,1.0304903-.9367504,1.9801173-1.180108,3.0221201-.3989082,1.7079417-.596296,3.4625349-.8907117,5.1954062-.3061912,1.8023973-1.0629304,3.3334909-2.7875126,4.1655405-2.6517205,1.2793836-4.7879692,3.123007-6.5795088,5.4627652-.7431697.9705795-1.8248117,1.7020202-2.8194416,2.4536643-.7935245.5996696-1.6793528,1.0806871-2.5407723,1.5861499-1.10326.6473661-1.7741566,1.608022-2.1442332,2.8093533-.3212281,1.0427095-.6771318,2.0757507-.9588906,3.1287991-.0597952.2235229.0565583.594568.2258394.7624104.9720255.963744,2.1861094,1.3680723,3.5389226,1.3919023,1.2538246.0220908,2.4666001-.1974247,3.566004-.8029176,2.2003904-1.2118611,4.100593-2.7956589,5.6689205-4.7665826,1.4863816-1.8679204,1.8770652-4.1227847,2.1736914-6.3840638.5770823-4.3995243,2.7134779-7.7175838,6.5635628-9.9648522,2.6913223-1.5709056,5.4946541-2.8425154,8.5659285-3.4114913.9374868-.1736755,1.9545521-.2069259,2.8886547-.0416102,1.3932263.2465744,2.0942328,1.4523803,1.7613948,2.8328471-.1777155.7370629-.473359,1.459974-.8119068,2.1415284-1.4984167,3.0166668-3.4650995,5.626242-6.3089951,7.5527497-1.803468,1.2217132-3.4948117,2.6157009-5.1857627,3.9945688-1.313346,1.070943-2.1204174,2.4815723-2.5534079,4.138007-.8415463,3.2193634-1.9078486,6.3617517-3.4522278,9.3246513-.0794961.152524-.1697966.3837269-.1106096.5112375.6077562,1.3093309.3211952,2.6450312.1555965,3.9776606-.0587394.4727386-.1376468.9429627-.0743238,1.4706939.3252305-.5168796.6465327-1.0362969.9770929-1.5497411.2137046-.3319271.4378774-.6572619.662788-.9817843.3694084-.533044.7463965-.971184,1.4687278-1.1497053.5954865-.1471781,1.1130218-.6372912,1.6407572-1.0099196.1178301-.0832056.1628297-.3055328.1919945-.4724347.1762926-1.0089683.7543569-1.4317805,1.7354412-1.0996619,1.3402645.4537165,2.6451447,1.0117609,3.9657622,1.5236498,3.982583,1.54371,7.867643,3.3793953,12.0513025,4.3348493,1.8443916.4212173,3.7574068.5477724,5.6429991.7773296.3270203.039807.6727648-.0741699,1.0098751-.1171107.0277872-.0601155.0555898-.1202225.0833924-.1803296-.4292244-.358683-.8113774-.8075726-1.2958638-1.0603653-2.055031-1.0722956-4.0752138-2.2581872-6.2317448-3.0769856-2.5305255-.9607991-5.166469-1.6789682-7.8026444-2.3105814-1.1839579-.2836711-2.479671-.0968735-3.7243463-.1346485-.238155-.0072263-.4747492-.0663344-.7120661-.1015092.0885902-.2470255.1223938-.536312.2748806-.7340649.8511574-1.1037222,2.017496-1.723249,3.3848015-1.6149305,1.867564.1479362,3.7440024.3782661,5.5732235.7739752,3.3942187.7342592,6.6494075,1.9227946,9.7473663,3.4981909.8186564.4163149,1.5984173.959108,2.2892465,1.5654873,1.140287,1.0008924,2.0053286,2.2014715,2.0291477,3.822531.0897931.0234308.1564175.0625195.2151485.0529975,1.7319555-.2808532,2.8816048.4663178,2.9649263,2.2203521.0843366,1.7759588-.0608344,3.570731-.2094319,5.3485733-1.0530152,12.5983442-2.7077238,25.1271635-4.3197209,37.6626255-.9853829,7.6625597-2.4099353,15.2331748-4.1479569,22.7525603-1.0041957,4.3445516-2.6503724,8.4625753-4.4221437,12.5362444-1.2323226,2.8333123-2.4610047,5.668243-3.7011718,8.4981189-1.9622057,4.4775089-4.9224131,8.1824877-8.7461893,11.2044153-2.6607774,2.1027931-5.3153231,4.2153381-8.0260563,6.2524372-2.3145469,1.7393873-3.8092033,4.0331166-4.8437295,6.6759439-2.5980708,6.6371543-4.5611569,13.4574152-5.9464352,20.4499257-1.1827607,5.9703263-2.4666362,11.920775-3.6282091,17.8950999-.8155549,4.1946801-1.4397691,8.4266962-2.2653981,12.6192049-.560503,2.8461409-1.2929218,5.660173-2.0163186,8.4711071-.1570119.6101357-.0003706.8341008.4801533,1.1459576,1.3608351.8831611,2.7699024,1.7301717,3.9855664,2.7912734,2.8168832,2.4587715,5.8975192,4.5129167,9.1054629,6.405882,1.0154714.5992215,2.0432753,1.2295029,2.9122848,2.0149815,2.344463,2.1190946,2.1624507,5.2754952-.4019213,7.1224767-2.1136959,1.5223677-4.5964032,2.1998479-7.0920534,2.7807344-4.1164276.9581743-8.2274936.6421975-12.307012-.2250381-7.7601667-1.6497183-15.3736051-3.8113886-22.8174886-6.5754542-3.0314573-1.1256298-6.0737611-2.2140069-8.870112-3.8563689-1.2169928-.7147544-2.3803215-1.5363525-3.4980695-2.3999813-1.0279931-.7942858-1.7522823-1.8548556-2.1376435-3.1156385-.5386239-1.7622137-.1950044-3.3517604,1.1583248-4.5932855.7585791-.6958928,1.6586601-1.2776329,2.5771933-1.7514046,2.4807108-1.2795449,5.1717865-1.9310222,7.9034767-2.4103032,1.8072273-.3170974,3.6243402-.5775145,5.4346922-.8773342,2.7497472-.4553982,5.1047406-1.6473937,6.9954611-3.7298883.8271252-.910994,1.7028395-1.7783543,2.5683627-2.6537734.2436687-.2464396.4955774-.5560685.8023435-.6551361.863419-.2788037.968237-.9324409,1.1210773-1.6950272.4928408-2.4591152,1.1185057-4.8915384,1.6143914-7.3501229,1.3270492-6.5794906,2.6552984-13.159266,3.90125-19.7543958.870944-4.6100944,1.7054645-9.2313817,2.3790268-13.8733883.8732282-6.0182422,1.918679-12.0209864,2.1602552-18.1164126.0036613-.0928237.0018542-.1861246.0107978-.2784317.3788649-3.9099821-.6242439-7.360963-3.3819348-10.2369176-.255787-.2667561-.4416434-.5992997-.6866853-.8777797-3.5471393-4.0310375-4.3107843-8.9027257-4.1315452-14.0120446.0942698-2.687097.4138645-5.3662615.6304096-8.0491264.0120483-.1492295.0121259-.2994281.0246162-.6301117-.2379226.291012-.372073.4368284-.485937.5970402-2.9578216,4.1620532-6.3732372,7.9260281-10.0200657,11.4855368-1.811358,1.767977-3.8732891,3.180332-6.1907694,4.2147842-.9969741.4450192-1.9864401.9081434-2.9676994,1.3868638-2.5579247,1.2478764-5.1934317,2.2460028-8.0084292,2.7700455-1.2504688.2327684-2.4634949.6668401-3.6933581,1.0101087-.0894606.0249701-.1805439.0853434-.2659711.0772981-1.1903473-.1125189-1.5321004.7673477-2.0163484,1.5979659-5.3045584,9.0987566-9.9893021,18.5217269-14.6182369,27.9714134-2.5680635,5.2425372-4.6997836,10.6459827-6.1785969,16.3302343-.996271,3.8294627-2.5316119,7.5205104-3.8719057,11.2569668-.2468907.6882706-.6626811,1.3345258-1.0923963,1.934356-.6520771.9102041-1.5801181,1.3094017-2.6883917,1.0194497-1.1027984-.2885233-1.7323885-1.0831807-1.8704612-2.1905634-.0762396-.6115184-.0873133-1.2770348.0714826-1.8643506.8600028-3.1809367,1.6724441-6.3813722,2.705472-9.5075914,2.2859181-6.9178096,5.1656362-13.5899879,8.7247773-19.9556219,4.3865415-7.8454743,8.7900495-15.6814561,13.2006161-23.5134502,1.0793102-1.9165596,2.4685328-3.5698274,4.1867488-4.9741536,2.8642235-2.3409798,6.1771147-3.5489315,9.7834455-4.0187407,1.2183831-.1587412,2.3352009-.5133046,3.4606315-.9814197,3.8441411-1.598935,6.5715251-4.4866582,9.2158164-7.5678983,6.6347482-7.731085,11.8096905-16.3716052,16.2749165-25.4802056,2.7021536-5.5120743,5.2224107-11.1026647,7.1868867-16.9212709,1.0322427-3.0574265,1.8501763-6.1869739,2.7764433-9.2804962,1.1256559-3.7594959,2.3053605-7.5033579,3.3845152-11.2760696,1.1242421-3.9304681,2.1658278-7.884756,3.2221745-11.8343436.2444138-.9138759.4774375-1.8435499.5697512-2.780345.0517176-.5248241-.123819-1.1081527-.327066-1.6127201-.2457334-.6100749-.7441523-.9051176-1.4508659-1.0171635-1.0724334-.1700286-2.1098274-.5497259-3.1756464-.7768823-.6248338-.1331725-1.2798845-.2250584-1.9144579-.1941572-2.365168.1151858-4.5948518-.2665967-6.5399985-1.6966398-.5345724-.3930057-1.0938703-.8606036-1.4059253-1.4245184-.5720011-1.033653-1.4118503-1.7528403-2.3002209-2.4631787-.4847711-.3876172-.9236393-.8326542-1.4630022-1.3245804-.2199569.6708559-.4107914,1.2615162-.6071763,1.8503282-.7033947,2.1089279-1.6663612,4.0739181-3.0718473,5.8199442-2.1570231,2.6796859-4.9321951,4.4136996-8.1767114,5.4354815-1.3505957.4253298-2.7302992.7575427-4.0878207,1.1621319-.3198517.0953276-.6943411.2393892-.890004.4839775-2.3208261,2.901158-4.8245915,5.6848606-6.8724298,8.7701412-6.3712909,9.599029-12.5731386,19.3065043-17.1107754,29.9649776-2.593755,6.0924553-4.4943537,12.34635-5.0310678,18.9773952-.2733576,3.3772838.4370047,6.6149522,1.3505918,9.8167786.3210653,1.1252162.7632192,2.247821,1.3508952,3.2543632.4268052.7310135,1.0921858,1.4136531,1.8092627,1.8687921,3.4704867,2.2028161,7.2322171,3.6843498,11.3273107,4.2444656.9701367.1327075,1.5343997.6012624,1.5941366,1.3622637.0640189.8154982-.4696342,1.5698199-1.4383394,1.6742728-1.0474171.1129338-2.1467397.1466497-3.1756421-.0435682-3.6174861-.668757-7.046264-1.8443334-10.0536277-4.0689746-.3900731-.2885533-.9958599-.2854703-1.5399291-.4274411-.0676515.193508-.1296432.2937114-.1348255.3967789-.2136185,4.2425472-1.1252739,8.3740375-1.995499,12.5111151-.8179804,3.8887376-1.6946389,7.7608445-3.0658931,11.5051743-1.6258655,4.4396083-3.6731124,8.6834486-5.9434838,12.8188525-2.9279194,5.3330805-5.8618001,10.6646406-8.9054249,15.9319482-2.3783934,4.1160807-5.3536613,7.8096548-8.5678806,11.3077352-.1413739.1538511-.3089789.2903749-.4215969.462898-1.3991305,2.1432336-3.513282,3.0983759-5.9184059,3.5553742-3.0617098.5817607-6.1409907.5422492-9.2341097.2839379-1.8039785-.1506512-3.6178267-.2148828-5.4284437-.2444846-1.5320467-.0250644-3.0044837.2840672-4.3170337,1.1429135-1.1113789.7271943-1.2212531,1.1557932-.2757011,2.0551824.9200845.875226,1.9077857,1.7158423,2.981078,2.3874182,5.9430136,3.7186434,12.1241652,6.9750241,18.7772379,9.2514491,3.9991225,1.3683383,8.0056612,2.7215339,12.0452877,3.9630266,3.5768597,1.0992446,7.2623382,1.5617961,11.0138574,1.3648304.4593448-.024095.9166135-.0875835,1.6192943-.1569633Zm59.9753016-70.467165c.0054758.0913738-.0059408.1648496.0158716.2265767.8647923,2.4448939,1.1024349,4.9846809,1.0681384,7.5502589-.1051289,7.8661373-1.0475421,15.6636938-2.1111993,23.4407986-.8213168,6.0052654-1.8222429,11.9876179-2.8355333,17.9645104-.9433611,5.5644633-2.0039811,11.1091102-3.0218696,16.6608624-.595061,3.2456215-1.7382969,6.3085576-3.1434669,9.2808248-.2143501.4534322-.4841665.8701069-1.0685155.8596835-.5882202-.0104839-.9585642-.3700274-1.1376605-.8800636-.1910112-.543977-.294997-1.1185546-.4368099-1.6798043-.0411879-.1629892-.0817014-.3261365-.145526-.5811257-.4157726.4845912-.760236.8881367-1.1068801,1.2897939-2.1634342,2.5067676-4.8268856,4.0843017-8.1536107,4.5233382-1.9791092.2612008-3.9489405.6101243-5.9097528.9879766-2.6286744.5065667-5.2164202,1.1692308-7.6095992,2.4243224-.2727596.1430469-.5203666.3340769-.971642.6278257,1.1774799.5984586,2.1463163,1.2037147,3.1936608,1.6029413,3.776201,1.4394578,7.5762476,2.8166503,11.3720808,4.2041932,6.6252521,2.4218642,13.4167761,4.2559363,20.322843,5.6666202,3.4063808.6958065,6.8222871.8528991,10.2108453-.1551191.252401-.0750703.4979977-.1728633.887178-.3093277-.3258024-.2184381-.5098701-.3453864-.6973897-.4669917-1.3837877-.8973815-2.7965109-1.7533662-4.146815-2.6985206-3.088913-2.1621494-5.9103503-4.5910665-7.6631274-8.0376045-.0863895-.1699299-.3362413-.3305592-.5303212-.3596225-1.0807652-.1618918-1.7518126-.8289146-1.9790596-1.8158378-.2263323-.9827449-.4109427-2.0316908-.3110347-3.0210445.202438-2.0049329.5249499-4.0073073.9472291-5.9787764,1.5809747-7.3807925,3.2869016-14.7352586,4.8210003-22.1255393,1.3030554-6.2773816,2.3341648-12.6146803,4.4014505-18.7095966,1.3649757-4.0243857,2.680435-8.068024,4.1580939-12.0510812,1.4426264-3.8885703,3.7654781-7.12112,7.481104-9.2232769,1.187744-.6719684,2.2683717-1.5370214,3.38079-2.3376733,3.0197485-2.1734995,4.9806175-5.2253948,6.839987-8.3473234,2.3367849-3.9234981,4.0545817-8.1460017,5.9014272-12.3082028,2.5483079-5.7429783,4.7818554-11.6059755,6.5264379-17.6347744,2.0441599-7.0640945,3.4026437-14.2905256,4.2409628-21.5900855.9486902-8.2605313,1.6371467-16.5506443,2.4909518-24.8225068.4792644-4.6432059.9379982-9.2942095,2.0411055-13.8478294.0173862-.071751-.0213044-.1570928-.0200628-.1491796-.9374501.2197722-1.8241249.5147695-2.7329984.6226026-1.9070127.2262738-3.7999412.0296837-5.6696709-.408408-5.4698146-1.281613-10.5439499-3.5761487-15.5461668-6.0566506-.212149-.105203-.4288349-.2013097-.5855083-.2745764-.2272485.5638607-.3655911,1.060325-.612157,1.4954707-2.770721,4.8895209-5.5769603,9.7589876-8.3317314,14.6574148-1.122131,1.9952955-2.4325558,3.8730312-3.1664761,6.1015021-1.6638216,5.0519576-3.6075106,10.0132892-5.2131002,15.0825086-2.2226464,7.017467-4.9678256,13.8091833-8.1890212,20.4180308-.3201718.6568984-.7640588,1.2801687-.458036,2.0836275.0505855.1327717-.0171669.3200273-.0556073.4758336-.4395795,1.7819116-.8823314,3.5630393-1.3276091,5.3435344-1.2517568,5.0052627-1.8529998,10.0812783-1.8480203,15.2465998.0040573,4.2236143,1.0259925,8.1322925,3.1613642,11.762015.1055278.1793561.231961.3464034.4359296.6484269.0931132-.3568342.1253953-.5391871.1879603-.7104722.3078536-.8426319.9828727-1.34259,1.7697017-1.3216123.8235347.0219904,1.2077402.4562063,1.5697151,1.4166928.2289075.6074915.5695287,1.2574656,1.0491495,1.6668758.803285.6857176,1.7183308,1.2690932,2.6561266,1.7630607,2.3925883,1.2603795,5.0345243,1.4566766,7.6601185,1.4854227,2.2938454.0251236,4.5904207-.188571,6.8856086-.3005647.5455409-.0266128,1.0438723.0605612,1.2718682.6294203.2179297.5438077.0244311,1.052068-.3975731,1.3766007-.5821494.4477016-1.1954111.9634758-1.8775383,1.1508347-1.580828.4342149-3.1974973.8347179-4.8240263.9851326-3.1714947.2932508-6.3340418.1635065-9.2610753-1.3178176-1.2986231-.6572435-2.5327461-1.4418951-3.852508-2.2011247Zm-4.6433694-108.7758881c.4433081-.4342144.7322301-.9379239,1.1423675-1.0726395.8352834-.2743747.8843012-.8528168.9074258-1.5423561.0805249-2.4002358,1.2180991-4.0761185,3.4474297-5.011798.941664-.3952251,1.897835-.7785083,2.7819484-1.2821385.9807826-.5586854,2.0920887-1.0779869,2.7865809-1.9136174,2.0194888-2.4298754,4.5052101-4.1416256,7.3841885-5.3115294,1.4566788-.5919514,2.2489233-1.5974281,2.5846578-3.1016905.3436207-1.5395394.736549-3.0736521,1.2148028-4.5761099.5592863-1.7569847,1.2746324-3.4640988,1.8415514-5.2189247.2750488-.8514493.6810214-1.5618903,1.3642287-2.125715,1.1816721-.9751931,2.3675277-1.9455241,3.5378301-2.9342347.9887665-.8353319,1.8035422-1.8126387,2.2373407-3.0525937.3559519-1.0173863-.157443-1.8306477-1.2135886-1.8422873-2.1510994-.0237161-4.147601.4646206-5.4893048,2.3052466-.9794625,1.3436755-1.8956653,2.7489053-2.6921678,4.2074628-2.0160903,3.691822-3.8732709,7.4490146-4.5422165,11.6827692-.1512696.9573564-.5840174,1.9161968-1.0772203,2.7637767-.9590167,1.6480963-2.5637392,2.4408595-4.365583,2.8439554-1.6522117.3696217-3.338492.6046785-4.9696506,1.0469579-3.1342528.8498228-5.6162215,2.6901178-6.9715175,5.645016-.8982993,1.9585342-1.3325684,4.1310094-1.9503919,6.2148756-.0462769.1561138.0462024.4268597.1691957.5472367.6112299.5982762,1.2543082,1.1640106,1.8720929,1.7283376Zm36.1767464-19.3713592c-.3796792.0305621-.6817802.0144916-.9621906.084812-.9448181.2369545-1.8986927.4555034-2.8188495.7696891-2.8768779.9822958-5.5824803,2.292284-7.8555998,4.3635279-1.2007589,1.0941044-1.8700443,2.4427845-1.9708252,4.0908306-.0721239,1.1795803-.251182,2.3528901-.3914873,3.5279271-.0732432.6135842-.1658115,1.2248607-.2496468,1.8371804,1.5394032-2.5329497,3.8681432-4.055841,6.3903423-5.3559368.6391874-.3294798,1.2601579-.6951034,1.882739-1.0557777,2.9570847-1.7130193,4.8505661-4.2542485,5.8237633-7.5064556.0643712-.215076.0898994-.4417785.1517547-.755797Zm-42.4840289,14.551591c-3.4186247,5.0397516-6.8432784,10.0883861-10.2898666,15.1693486.167169.0527936.2100727.0800996.2494814.075741.0679245-.0075143.1364878-.0279914.1999113-.05462,4.6375671-1.9471223,8.5220144-4.7770615,10.9286185-9.3353295.6424824-1.2169138,1.1892325-2.4743999,1.2226516-3.8731613.0076974-.3218871-.1562749-.7812984-.399126-.9495808-.6160214-.4268786-1.3215785-.724532-1.9116703-1.032398Zm27.2978087,2.947542c-1.8768517,3.0626814-4.0193774,5.8567962-7.280991,7.8048194,1.4169632.4655213,2.6753031.8789311,3.9813512,1.3080087,1.5791702-2.8136801,2.6700851-5.8777068,3.2996398-9.1128281Zm-23.0719757-5.1931878c-.8543766-.2229432-1.654734-.4317905-2.4550915-.6406378-.0232303.0370243-.0464607.0740487-.0696828.1110752.6238046.7083121,1.2476175,1.4166264,1.9224911,2.1829292.22144-.6078908.4003521-1.0990409.6022832-1.6533665Z" stroke-width="0"/>
      <path d="m103.5753949,17.0180859c-.1360384.408774-.3117986,1.0123026-.5366386,1.5969607-.4806757,1.2499507-1.1735953,1.3585926-2.389787,1.2739736-.2483041-.017266-.6123069-.4548635-.6646865-.7452871-.0919525-.509884-.0352809-1.0639042.0479472-1.5852635.5746385-3.5999752.0394885-6.9367272-2.254049-9.8809518-.3707382-.4759183-.7960443-.9423956-1.0291489-1.4849703-.3790007-.8821294-.7532789-1.8047342-.8856837-2.7446075-.1642949-1.1662637.2709171-2.2155645,1.3378305-2.863432,1.1081797-.672926,2.2373799-.5309091,3.3054684.0979926,1.7028604,1.0026613,2.7190048,2.5733257,3.1208653,4.4392344.8373627,3.8880361,1.1749527,7.8052975-.0521177,11.8963508Zm-.8758326-5.5743402c-.125223-2.7081122-.6441969-5.3142116-2.3782183-7.5235167-.3198659-.407536-.764021-.7455996-1.2105175-1.0177697-.4477641-.2729406-.7713664-.0531388-.6482962.4525822.1330377.5466527.3692997,1.0963368.6797937,1.5658388.6636293,1.0035105,1.5132473,1.8968351,2.0836018,2.9457293.6125271,1.1264188.9923028,2.3793883,1.4736365,3.5771362Z" stroke-width="0"/>
      <path d="m150.7236606,30.3511404c1.7119181.4563373,2.6226709,1.3920273,2.7680019,2.6425926.1463724,1.2595827-.5624568,2.4409275-1.8959927,3.123835-1.4586915.747005-3.0571417.688375-4.6278796.7647749-.9027993.0439117-1.8081558.0323784-2.7116345.0656832-1.7952418.0661974-3.4575708.4948117-4.6501898,1.9582902-.4801447.5891992-.9818246.2483508-1.3615215.0414574-.2901386-.158096-.5329397-.6483792-.5470726-1.0009201-.0151328-.3771524.1804695-.8309258.4249988-1.1396397,2.1396927-2.7011629,4.6569377-4.9179438,8.0004636-6.0258242,1.5901937-.5269263,3.2076389-.7257039,4.6008264-.4302494Zm-6.8867458,5.3285066c1.6332643-.1030955,3.2712279-.1617863,4.8973029-.3331084.5776224-.060857,1.150456-.3495803,1.6777144-.6255466.2452751-.1283745.3765002-.4746217.5594443-.7220979-.283791-.162336-.564099-.458399-.8519254-.4658838-2.3316456-.0606305-4.38061.7917345-6.2825363,2.1466367Z" stroke-width="0"/>
      <path d="m153.924328,42.584181c1.6455214-3.9997837,4.5702072-6.55188,8.1584586-8.4402293,1.5637728-.8229405,3.2472497-1.2650622,5.0407275-.9504874.4519222.0792674.9078136.2166566,1.3230559.4105413,1.9137238.8935668,2.2758478,2.7954883.8206202,4.3253672-1.9537422,2.0539315-4.4191612,2.6053058-7.1350119,2.3403649-1.4780367-.1441866-2.9098485.034332-4.3316346.441138-.7748988.2217144-1.2887194.7074325-1.6539657,1.3850101-.4639486.8606351-.5812712.9083971-1.5139137.5901458-.161192-.0550066-.3422973-.0516289-.7083363-.1018506Zm5.9542377-4.2356793c1.1443843.0282211,2.1998739.0505303,3.2551238.0811049,1.792366.0519249,3.2313163-.6825819,4.4380016-1.9610272.3381588-.3582878.3058641-.6414302-.1627139-.7552072-.487929-.1184791-1.009579-.2286487-1.5007655-.1809009-2.3111307.2246528-4.1625234,1.4553881-6.029646,2.8160303Z" stroke-width="0"/>
      <path d="m112.2458421,20.7000426c-.6745971-.3855654-.3676012-.7876753-.0043366-1.1683706.5071739-.5315236,1.1088298-.8772518,1.8663164-.6640567.7919937.222903,1.2089873.8142843,1.3905854,1.5936076.5414519,2.3235155-2.3678175,6.335092-5.1841116,6.1152033-1.5279374-.1193014-3.1286829-1.3940263-3.4961656-2.8795614-.1498168-.6056286-.0552438-1.1663529.4340728-1.5896082.4966592-.4296233,1.0604354-.4117377,1.6319304-.1497483.4841284.2219467.8638188.8123133,1.4987855.5113766.7909138-.3748555,1.4374263-.9276027,1.8629231-1.7688424Z" stroke-width="0"/>
      <path d="m102.8384112,69.4125114c2.3520108.6027824,3.8018668,3.1868279,3.0122654,5.3687151-.6061337,1.6748964-2.5206012,2.2238461-3.9158686,1.1227903-.4931838-.3891793-.5091703-.6325033.0196487-.9212577.3579597-.1954667.3694158-.4120192.2560408-.7384006-.2960025-.8521041-.8600613-1.2915152-1.6565074-1.1664807-.618901.0971511-1.1116259-.0295047-1.4569542-.5539681-.3788649-.5753993-.3689979-1.1833295-.0505071-1.7836727.6230068-1.174328,2.2206893-1.7303913,3.7918823-1.3277255Z" stroke-width="0"/>
      <path d="m76.8403449,94.8534213c-1.9732886-.5175883-2.981646-1.7697625-2.84019-3.210425.0993893-1.012204.9191094-1.7558373,1.82577-1.571496.3273109.0665638.7439035.2921426.8803768.5649194.228805.4573426.5685771.5924535.9887569.6359831,1.0528779.1090883,2.1177031.3480068,3.106675-.3185633.1331596-.0897495.4596368-.0022976.638119.1026153,1.1703127.6877997,1.2277409,2.132441.0849978,2.9333407-1.5285149,1.0712713-3.2394442,1.1534587-4.6845057.8636258Z" stroke-width="0"/>
      <path d="m93.4186512,101.4647615c.3383262-.120934.6700669-.3126105,1.0166521-.3448829.431619-.0401765.8838776.0089537,1.3123907.0941164,1.0487719.2084354,1.5309622,1.1169154,1.1335845,2.1124533-.1102105.2760937-.2601197.5558372-.4576695.7743601-1.1109354,1.2289014-2.5523721,1.4734225-4.0839201,1.1968922-1.4458772-.2610608-2.3903895-1.1873169-2.8391866-2.5816042-.2666742-.8284813-.1767416-1.6202693.4957756-2.2459483.8991652-.8365474,1.8340971-.514634,2.2243399.6227328.1138536.3318267.7159314.4961278,1.0942245.7372152.0345987-.1217735.0692079-.243553.1038088-.3653347Z" stroke-width="0"/>
      <path d="m122.8302409,7.636072c-.2409305-.1416719-.6338649-.3048793-.9419451-.5676095-.7031293-.5996495-.6804446-1.4547603.0565715-2.0162202.439314-.3346556.9549668-.5670224,1.4155535-.876268.8969501-.6022293,1.7960701-1.2036747,2.6624263-1.8482673.6919738-.5148531,1.3647592-.6471349,1.9952952-.2914837.6024486.3398094.9253225,1.0516624.8184998,1.8525375-.0301951.2263552-.0919986.4550131-.1790543.666232-.6297623,1.5279236-3.3486232,3.2633743-4.9917117,3.1893434-.2300546-.0103648-.4584299-.0581363-.8356353-.1082643Z" stroke-width="0"/>
      <path d="m71.6177021,122.6763391c-1.0906701-.3131299-1.7505987-.7714897-2.057457-1.5860358-.097392-.2585247-.0543579-.6517659.0858689-.8872255.0836925-.1405332.4799654-.112757.7375966-.1271911.2957479-.0165707.6151607.0764863.8867566-.0043039,1.2155542-.36153,2.4185742-.7654113,3.6242168-1.1597966.3738697-.1223087.7409689-.3646633,1.1125752-.3674895.3992766-.0030456.9231535.0990958,1.1638029.3635727.2155508.2369452.1573215.7580783.145206,1.1515257-.0056593.1836542-.1566185.3910218-.294575.5380787-1.5425912,1.644343-3.4905084,2.1552011-5.403991,2.0788653Z" stroke-width="0"/>
      <path d="m134.3651394,75.3491957c.7791802.2761531,1.568364.5279893,2.3318234.842348.2490246.1025314.5855293.3509971.6087748.5627279.0386191.3513808-.0381609.8225513-.2601117,1.0681945-.2738531.3031375-.7248679.5140622-1.1359677.6136761-1.8518319.4487385-3.4498414-.059734-4.7294365-1.4600727-.669296-.7324416-.9375786-1.6086805-.4999087-2.5712183.4531606-.9966263,1.329923-1.4020552,2.3351233-1.2744444.7284922.0924814,1.4336107.4552409,2.1162722.7689884.197984.0910068.4404429.4921483.3817416.6385169-.0862876.2151502-.4161976.3445416-.6593261.4799223-.1264515.0704119-.2893881.0753384-.4358432.1098483-.0177028.0738405-.0354221.1476768-.0531414.221513Z" stroke-width="0"/>
      <path d="m150.8768645,98.1586218c-.40162,1.1714363-1.1371995,2.3061355-2.5829798,2.728595-.5064973.1480097-1.1100716.1434565-1.6292226.028091-.8637699-.1919332-1.398995-.8083006-1.521307-1.7012186-.1234583-.9014659.2663167-1.599913,1.037728-2.0345297.6234471-.3512543,1.2931484-.6244488,1.9550868-.9017971.3741638-.156766.563-.3373126.4305282-.7834475-.0536423-.1805732.0127999-.5129109.142823-.600313.1389136-.0933661.4438712-.0352646.6306499.0531876,1.5350877.7269585,1.9869832,1.6054427,1.5366935,3.2114324Z" stroke-width="0"/>
      <path d="m121.7495552,110.5619853c-.9184875-.3001751-1.5733722-1.0610861-1.8276298-2.1574195-.2209081-.9524412.0066964-1.8027082.7526686-2.463162.5178929-.4585241,1.1050523-.6620197,1.7970269-.3670444.2072122.0883318.4451378.1209041.6724822.143003,1.582234.1538013,2.512671,1.6564624,1.9400014,3.1444423-.5252325,1.3646935-1.8553498,2.1005535-3.3345493,1.7001805Z" stroke-width="0"/>
      <path d="m148.8975953,73.3094591c.6486552.1110368,1.4447459.2466248,2.2405687.3837787.5921009.1020394,1.0811918.3622597,1.1716669,1.0080255.0912401.6512593-.2636242,1.0997189-.8135473,1.4066662-1.2965123.7236817-3.7836489-.0588371-4.3315404-1.4346079-.1423245-.3573539-.0448728-.9094961.1395548-1.271848.2171269-.4265983.6190534-.4051207,1.5932973-.0920145Z" stroke-width="0"/>
    </g>
  </g>
</svg>