<?xml version="1.0" encoding="UTF-8"?>
<svg id="Layer_2" data-name="Layer 2" xmlns="http://www.w3.org/2000/svg" viewBox="0 0 203.0654599 185.6611817">
  <g id="Layer_1-2" data-name="Layer 1">
    <g>
      <path d="m129.4091771,161.3070602c.6180604,1.7757862,1.1864319,3.649378,1.9297483,5.4620084.5156425,1.2574262,1.2476988,2.4427123,1.928069,3.6384601.6489236,1.140506,1.4155553,2.2263243,2.0232925,3.3839895.8206689,1.5632277.3735938,2.5272045-1.2851908,3.3033919-5.6587743,2.6478727-11.7058845,4.2049406-17.8531324,5.5097216-3.1713487.6731347-6.3278668,1.4127876-9.4689268,2.197742-2.4435789.6106577-4.9026071.9315488-7.4360182.8448241-7.1362859-.2443674-14.2949149-.3143077-21.3293396-1.5878828-2.37122-.429305-4.6795203-1.2205006-6.9614383-1.9859656-2.9701189-.9963397-5.8854141-2.1367153-8.4810024-3.8451359-.6823234-.4491204-1.3476862-.9434934-1.9221916-1.5031298-.9347798-.9106416-1.1141791-1.9981221-.5530637-3.1518437.4043333-.8313477.8672289-1.638464,1.2730647-2.4692414.9195868-1.882424,1.8202951-3.7726698,2.7275614-5.6602106.0389503-.0810375.0990328-.1679252.0950998-.2498753-.111919-2.3285786,1.205337-4.2411004,2.1399047-6.2645945.0844762-.1828844.1815823-.3608313.2824535-.5600928-.0893284-.0636176-.1541306-.1425205-.2364061-.163672-4.4408604-1.14238-8.3799721-3.2494864-12.3334283-5.3559898-2.2647365-1.2067309-4.3946451-2.5507515-6.4461052-4.0472328-3.1383643-2.289339-6.3467453-4.5045172-9.6192569-6.6282776-3.7246289-2.4171446-7.0100532-5.3028502-10.4676161-8.0066165-4.3143361-3.3737885-8.2810365-7.0644919-12.1088655-10.9014475-2.7928674-2.7995349-4.8460907-6.0355775-6.9066631-9.2747326-.9242579-1.4529071-1.6423233-3.0169495-2.464066-4.5258806-.1605737-.2948671-.3162687-.6147642-.5610756-.8444493C.8309525,104.3580718-.5673151,99.1877448.197834,93.3984901c.1603307-1.2130943.3993109-2.4180002.6261628-3.6228164.3480556-1.8485375,1.0720426-3.5896958,2.2950871-5.0701749,4.0677969-4.9240368,8.618906-9.4114192,14.7918423-12.1168232,3.1490277-1.3801151,6.4779893-2.4130463,9.7347334-3.5813036.7399401-.2654212,1.5034917-.5149053,2.2811226-.6421732,1.359366-.2224744,2.0486275-1.223336,2.9980479-1.924336l-.0416283-.192344c-.4941831,0-.9891264-.0166459-1.4824257.0026399-3.9259383.1534873-7.8630614.1971593-11.772092.5246826-1.7668589.1480447-3.5488667.710818-5.1975932,1.3587843-2.6318208,1.0343408-5.1633052.895829-7.7326571-.0292993-.8078888-.2908992-1.6153842-.5940607-2.3868858-.9569697-1.3202301-.6210216-1.4950865-1.6958812-.446156-2.6489237.4624582-.4201959.9421819-.8458589,1.4861422-1.1644604,2.3718475-1.3891672,4.05252-3.3330905,5.3870372-5.5666581.5121027-.8571109,1.0214568-1.7159654,1.5107435-2.5842387,1.803688-3.2007954,4.5894627-5.3623125,8.2796224-6.4801759,2.1023641-.636869,4.2448099-1.20304,6.4117243-1.6074374,3.3437878-.6240119,6.6049908-1.4930348,9.8315213-2.485545,4.5021892-1.3848978,9.0456884-1.4637599,13.6301707-.4424148,2.0015681.4459183,3.8176031,1.2399412,5.3012662,2.5983099.0794914.0727676.184384.1219555.3844118.2512685-.0703968-.3016053-.0960632-.4967277-.1616166-.6797018-1.1413744-3.186325-2.2338025-6.3887174-3.4474563-9.5515524-1.3035214-3.3970381-2.8304919-6.7454097-3.2699396-10.3488385-.1930013-1.5825908.146459-3.2226599.2775571-4.8343219.022352-.2747218.1826164-.553652.3329112-.8031157.3869926-.6422506,1.0056981-.9402628,1.66772-.814433.7257812.1379537,1.0298796.6218975,1.088769,1.2479015.0384995.4091353-.0037032.824194.0079544,1.2361769.0079279.2800097.0465158.559278.0606924.7186032,1.5405815-.3486993,3.0134883-.7386385,4.5122294-1.005013,1.4287862-.2539451,1.9964772.1488391,2.1280084,1.4847159.1328392,1.3494184.1667163,2.7084757.2045883,4.0642453.1292686,4.6279597,1.0186992,9.158623,2.1467455,13.6467469.989966,3.9387047,2.1391181,7.8434496,3.2251826,11.7614916.0817275.2948427.2213103.5760623.4138432,1.0673392.4572833-.7892564.8822275-1.4036702,1.1841782-2.0657403.9764434-2.1409847,1.3501344-4.4065242,1.4100137-6.7079219.058421-2.245553-.0369175-4.4944058.0160945-6.7401951.0883739-3.7432646.4728652-7.4579998,1.4482216-11.1071742,1.3679877-5.118157,4.3985781-9.1894012,9.0256609-12.2657152,1.2526218-.8328062,2.4858965-1.6924755,3.7702035-2.4815119.4636204-.2848332,1.0388593-.5207024,1.5839597-.565951,1.2223507-.1014517,2.2414299,1.0093353,1.7283329,2.0197951-.8795848,1.7321876-.4885266,3.3273096.1610775,4.9677821,1.2093407,3.0540422,1.0892109,6.1272153.3043017,9.2585919-1.1830027,4.719573-2.2197762,9.4720996-3.9416041,14.0605305-.4470928,1.1914376-1.0228267,2.3418431-1.6012916,3.6509994.6888814-.3371621,1.3042461-.604498,1.8722642-.9399409.1435954-.0848018.2076287-.3933816.1871858-.5883492-.2549753-2.4322017.7774851-4.3904405,2.6178696-6.0375574,4.8755708-4.3635407,10.6783824-7.0339501,17.3959551-7.9706156.8257244-.1151318,1.3239201-.3583911,1.676028-1.0820663.2653249-.5452924.7520132-1.0265475,1.2319225-1.4473707.4250413-.3726945,1.015597-.4577651,1.5419868-.1341487.4726443.2905651.8231524.6635162.6817666,1.2783049-.0728981.3169761-.0128067.6599394-.0128067.8895593,2.4812741.454779,4.9691328.8467877,7.421435,1.3781352,2.4780747.5369328,4.7853409,1.5142393,7.1923558,2.7785993-.1821391-.3165361-.2575649-.478713-.3613969-.6236045-4.356614-6.0793676-6.6033557-12.7644717-6.7784596-20.0452131-.0417343-1.7346727-.1119809-3.4692679-.1173192-5.2040343-.0060631-1.9691975,1.12741-2.8265162,3.1624397-2.2985745,3.3924999.8800957,6.7380333,1.8974525,9.856158,3.4539787,1.847517.9222685,3.4307697,2.1374445,4.7856414,3.6171292,1.4785722,1.6147989,3.0563805,3.1581786,4.4458982,4.8348352,1.3425688,1.6200216,2.503193,3.3684395,3.7364148,5.0649644.1702428.2342031.2985215.4943363.5946389.7285068.0181538-.225986.038853-.4518214.0540902-.6779744.5206979-7.7288107,3.5663664-14.4128474,9.6462136-19.8471983.7790583-.6963395,1.517708-1.4310548,2.2776934-2.1456004.1856921-.174588.374018-.348072.574523-.507772,1.3808209-1.0998365,3.0370954-.9061481,4.012982.5240369.9941818,1.4570156,1.5030895,3.0928112,1.6514841,4.789605.1451421,1.6597785.2387394,3.3377632.1469805,4.9979898-.2442015,4.4175073-.0535246,8.7976572.7899824,13.1598128.2441131,1.2624371.236742,2.5694139.2989811,3.8578505.1313367,2.7187826-.6480751,5.2064338-2.4110629,7.3922434-1.5960505,1.9788486-3.2607743,3.9106479-4.895837,5.8627352-.1164177.1389762-.237997.2742615-.389485.4483871.0770697.0491961.1300287.1011543.1947071.1216704,2.7575939.8743597,4.8502492,2.6014875,6.834777,4.4817768.2531458.2398454.7038093.4827543,1.0300299.4494952,4.1928938-.4274311,7.6262266,1.1704083,10.8138201,3.4038048,2.0123331,1.4099603,3.6962183,3.1121642,5.1261623,5.0424399,2.7230539,3.6758827,4.9363516,7.58418,6.5698233,11.7763287.1528137.3922083.5325412.8311522.9309175,1.0006417,2.8423882,1.2093301,5.2775619,2.9107355,7.5267077,4.9024534,1.2461787,1.1035559,2.7281624,1.9769786,4.0343353,3.0275742,2.8844231,2.3200479,4.8185374,5.2388415,6.1209805,8.531902,1.1439375,2.8923215.6017626,5.7083801-.5607,8.4578064-1.8282319,4.324126-3.6934785,8.6356066-5.6088557,12.9274593-.7135137,1.5987845-1.4331965,3.2364826-2.4601683,4.6672767-2.8857311,4.0204104-5.6614788,8.1493325-8.984015,11.851508-4.2849533,4.7745174-8.957182,9.2643523-13.9116874,13.4827042-2.1266473,1.8107075-4.1348264,3.7398181-6.2654156,5.5463702-4.3199882,3.6629196-8.8580696,7.0827918-13.7636463,10.0648689-1.1437077.6952314-2.3879243,1.2547212-3.6076942,1.8378884-3.0621253,1.463988-6.111718,2.9532504-9.2136156,4.3426051-2.8804635,1.290115-5.8220879,2.4641409-8.6481783,3.6520179Zm65.5939063-58.2532886c-.0640951-.0251195-.1281903-.050239-.1922854-.0753667-1.0954684.8329528-2.1511823,1.7157617-3.293529,2.4899122-4.2185248,2.8588017-8.7891311,5.1754031-13.5937747,7.0557575-6.1638285,2.4123212-12.5533864,4.1893947-19.1087327,5.4987547-7.3539725,1.4688604-14.632908,3.2733104-22.0125292,4.6132245-13.2558523,2.4068133-26.6696886,2.9161293-40.1457729,2.2532119-5.2285537-.2571919-10.4556933-.5664154-15.6880033-.7242211-6.7267027-.202879-13.4651425-.098767-20.1465402-1.0787949-4.1449993-.6080178-8.3224261-1.0283278-12.4669658-1.6386107-3.4510181-.5082079-6.8585255-1.2785778-10.3159867-1.7356178-3.8449753-.5082731-7.7226743-.8210978-11.4594602-1.8630649-5.6202527-1.5672038-11.0750484-3.5320667-16.358753-5.8967887-.1363259-.0610267-.284504-.0995492-.5303538-.1839925,2.8344029,4.5108398,5.8032402,8.7776219,10.1337416,12.1477765-.1298917-.2952582-.2565087-.552825-.3578086-.8185883-.4313474-1.1317227-.9144385-2.2510935-1.25332-3.4062165-.1400866-.4775234-.0785104-1.0690665.0966377-1.5445041.1974028-.5358288,1.0996401-.666812,1.3553092-.2720208.3809339.5882025.7438422,1.1884474,1.0745615,1.8018264,1.0649543,1.9750639,1.2266461,4.1425289,1.567114,6.2744533.0543863.3405597.2473346.7342754.5167163.9624613,2.4693866,2.0918864,4.9693272,4.1531209,7.4628953,6.2206782.099762.0827323.2249031.1394243.3816498.2346227,0-.1196253.0177826-.1884575-.0025454-.2457851-.9286726-2.6176934-1.8695773-5.2317366-2.7887399-7.8522655-.4985846-1.4214731-.951272-2.8597468-.6845242-4.3787811.0468738-.2669366.2960909-.5036614.4518743-.7543352.2861258.1626291.7099916.263645.8337937.4988868.4605844.8751174.9508434,1.765406,1.1993712,2.7020063,1.089971,4.1076239,2.4529165,8.132597,4.0998976,12.0767933.1418852.3397938.3334282.7209783.627641.9381321,1.9197345,1.4169266,3.8730324,2.7952492,5.8193966,4.1813773.1658413.1180772.3612555.2008584.5994823.3308965,0-.1545954.0192586-.2436015-.0028106-.3228302-.5994293-2.1517724-1.1780533-4.3088571-1.8121727-6.4519602-.8430916-2.849334-1.7544721-5.6816555-2.5817564-8.5347537-.2218671-.7651717-.2991799-1.5777958-.3264106-2.3720061-.0083389-.2432756.3338215-.6522764.5835204-.7035095.2461238-.0504835.6373897.2054211.8555801.4209943.1993428.1969475.2795324.5126077.3656526.7883113,1.3269251,4.2477978,2.6278038,8.5026027,3.9752161,12.7448601.6554551,2.0636952,1.3644878,4.1143051,2.1202307,6.1484239.1591861.428474.5734536.8197453.965758,1.123135,1.1826933.9146014,2.414775,1.7748085,3.6228253,2.6617565.5161993.3790171,1.0205111.7717876,1.530223,1.1583007-.4345602-1.0904951-1.0596381-2.0766501-1.4445713-3.136917-1.0241436-2.8209309-1.9156247-5.6825517-2.9143229-8.5116467-1.1454665-3.244891-1.8800418-6.557881-2.154532-9.9605777-.0627429-.7779148.2964003-1.5113428.8494993-1.6043086.5735862-.0964042.9752768.2491094,1.16446,1.1877304.4358152,2.1621363.7084052,4.3566355,1.2419805,6.4967566,1.372071,5.5031545,2.9649927,10.9438647,5.6318087,16.072793.6135263,1.1799574,1.3332621,2.1093063,2.6485296,2.6385842.6358341.2558557,1.2188065.6233193,1.9457721,1.0029394-.0696014-.2381425-.0941453-.3201578-.1175313-.4024338-.8604323-3.0263358-1.8704435-6.0249854-2.5374944-9.0871224-.6217813-2.8543041-1.0605484-5.7299228-2.2103369-8.4706961-.3950089-.9415542-.5123811-1.9844175-.7300766-2.9858903-.1095415-.5039222-.1044153-1.0342756.5680711-1.1951611.6549425-.1566813.8902084.315041,1.0536988.7758615.3146248.8867524.6670067,1.7674918.8952286,2.6739618.89362,3.5491607,1.7123887,7.1144865,2.6217585,10.6601111.7877375,3.0713928,1.6559033,6.1260828,3.1960517,8.9722065.1486862.2748074.294394.6447968.5522417.7600549,1.4581381.651869,2.9500649,1.2395338,4.4304843,1.8490508-.6530953-1.7566716-1.4280261-3.3336201-2.09475-4.9485534-1.7373126-4.2081346-2.8972032-8.5597022-3.7954721-12.9827418-.4071438-2.0047543-1.0725155-3.9642561-1.5868764-5.9517209-.1229669-.4751443-.3544501-1.1364321.3186816-1.3492188.7913877-.2501849,1.0258494.4785989,1.2014305.9697454.6475095,1.8112452,1.4231297,3.6106925,1.7908372,5.4748818,1.2926591,6.5533509,3.3339994,12.8739041,6.4280309,18.8982215.1109733.2160458.2219202.5337266.4131627.5966273,1.2127877.3988976,2.448219.739327,3.7757716,1.1282192-.0559905-.2354211-.0714928-.3194896-.0960809-.4012442-1.9783411-6.5753987-3.9714509-13.1470331-5.9300208-19.7274182-.8898019-2.9895568-1.5027183-6.0256862-1.4914849-9.1432278.0011048-.3083598.0211146-.6271162.1072878-.9224559.1499501-.5140091.5564753-.7863395,1.1331548-.7379256.6124039.0514286.9280362.454889,1.0585952.9626406.3058042,1.1893599.6200932,2.3786547.8621999,3.5797636.5106665,2.5334782.8364717,5.1060494,1.495471,7.604916.9506003,3.6045654,2.137704,7.155926,3.20915,10.7337342.8079771,2.6979977,1.5857716,5.4037194,2.4011375,8.0997942.0667555.2207389.2866959.5251063.4908423.5683546,1.8734308.3967466,3.7590938.7443949,5.7349513,1.1243735-.038853-.3689954-.0472936-.6538082-.1013573-.9310925-.5758664-2.9534134-1.1909483-5.9006671-1.7332293-8.8592624-1.0362609-5.6536598-1.5407936-11.3435282-1.220203-17.0809958.0209821-.3755951.0255249-.7727328.1663186-1.1148732.101154-.245834.4276133-.5895387.6340046-.5785067.2768942.0148126.6656986.2813908.7724208.5264914.1928246.4428303.2510423.9466058.2979293,1.4305008.3455588,3.5671835.6072688,7.142417,1.0243557,10.7022839.6188381,5.2818127,1.777456,10.510828,1.8038648,15.8520215.0007954.1616677.3116286.4297939.5155364.4654485,1.3975517.2443674,2.8048433.441657,4.2101373.6475181.1065807.0156111.2219467-.0197827.2056931-.0180717,0-1.7018535.0824699-3.3479764-.0168634-4.9847294-.2195603-3.6179929-.5749207-7.2290439-.7886832-10.847265-.1420134-2.4037823-.4150718-4.7763751-.9733412-7.1338945-.4564084-1.927367-.7397192-3.8910567-1.0478302-5.8455882-.0629285-.3992235.054868-.8440745.1897135-1.2387679.0613111-.179495.3530006-.3645141.5678059-.3984251.1185831-.0187235.3733551.2492397.4276751.4245631.110611.3570019.096673.7451608.186788,1.1094142,1.2940379,5.2310196,2.2748563,10.502061,2.6183822,15.869751.1874421,2.9287583.5684335,5.8467615.7743475,8.7748517.1056615,1.5023965.0185339,3.0163303.0185339,4.572942,1.9063357.3029823,3.7734648.5997234,5.6798005.9027057-.0481951-.451304-.1392381-.82188-.1187333-1.18716.1870178-3.3318113.3527266-6.6652847.603928-9.9932013.3599475-4.7685532.2066741-9.5063894-.6711784-14.2257139-.3205995-1.7234614-.5053282-3.4696549-.704587-5.2100962-.0439616-.3840035.0147776-.8365949.2083357-1.1669536.161051-.2748889.5769801-.5598483.9021224-.5836561.4764447-.0348398.6547657.3732811.6535725.7975834-.0014141.5066924-.0515006,1.0176868.0023245,1.5192787.1898991,1.7694473.4253065,3.5347229.6246802,5.3033554.2741632,2.4321365.6764283,4.8616657.7605421,7.3000108.1171955,3.3974984.059349,6.8040735-.0540725,10.2030548-.0825318,2.4731034-.3761303,4.9402101-.581629,7.4842315.7065756.0668442,1.5242395.1441989,2.322963.2197612.107659-1.342228.1936907-2.5610828.3050618-3.7779333.4625068-5.0534475.9452443-10.0990243.7549122-15.1878331-.1370551-3.664598.0041098-7.338566.0556192-11.0079549.0069911-.497795.1647719-1.0092131.3445424-1.4848463.1560839-.4129281.5827426-.6959973,1.0292521-.4911954.2940493.1348616.5689019.5249271.6249365.8356008.1177788.6530749.1062802,1.3289635.1119014,1.9957266.0366081,4.3373253.0523933,8.6747973.0965316,13.0120248.0551773,5.4216607-.8796644,10.7597092-1.4852981,16.1686431h1.4681253c.066729-.374047.1142523-.7237159.1927362-1.0673555.6905165-3.0231092,1.5618994-6.0217589,2.0411635-9.0728313.7809939-4.9719211,1.2688665-9.9823648,1.9571292-14.9675668.3284302-2.3788339.8142081-4.740085,1.269715-7.1025908.1347041-.6986697.5814787-.990897,1.1275867-.8678496.6620749.1491527.6579828.629479.602505,1.1158672-.121102,1.0617172-.2446699,2.1232226-.3750874,3.1839948-.4562228,3.7106328-1.1059595,7.4111951-1.3298241,11.1335932-.3413783,5.676278-1.3786467,11.2143864-3.0808536,16.6623643-.095745.3064207-.1993826.6107392-.3308342,1.0121952,1.4978573-.1155351,2.8662781-.2038893,4.2278227-.3476157.1721165-.0182021.3900948-.3066488.4478883-.504411.4577164-1.5660631,1.0251865-3.1202142,1.2905026-4.7159676.9793336-5.8902868,1.8896756-11.7908724,2.7567807-17.6962162.4892867-3.3323164.9943763-6.6542852,2.1883208-9.848155.1784447-.4773768.3814421-.9958182.7413012-1.3500173.2511483-.2472028.8245577-.3947749,1.1909218-.3209236.5126728.1033624.5573061.5865078.4598906,1.0476216-.2995997,1.4179858-.5520208,2.8448853-.8750596,4.2581781-.9410992,4.1174827-1.6666329,8.2613152-2.0259794,12.4606991-.4658653,5.4440507-1.2867817,10.8325175-3.2218594,16.0283063-.0343544.0922651-.015741.2013147-.0218659.3030149,2.4861263.0830419,2.65195-.0194731,3.4049354-2.075705.0308279-.0841826.0527645-.1711517.0837868-.2552691,2.0141538-5.4628558,3.4032826-11.0708719,4.6078684-16.7242872.8265729-3.8793565,1.5080036-7.7999569,3.1972802-11.4713827.5047537-1.0970296,1.1670938-2.134711,1.8026363-3.1760263.0996073-.1632158.4419489-.2005325.6720445-.2960567.0716784.2145466.2339137.4428955.1983131.6410814-.1139607.6343025-.2962412,1.2585506-.4610043,1.8847054-.9823562,3.7331043-2.081307,7.4439001-2.9249907,11.2034195-1.3332533,5.9410799-2.3870758,11.9389007-4.653686,17.6692146-.2843095.7187947-.5656671,1.4385508-.8751303,2.2258843.4251386-.031874.761806-.0950843,1.0923397-.0745193.8832262.0548833,1.3750937-.3459861,1.6534639-1.0782572.6689865-1.759784,1.4526407-3.4877755,2.0182724-5.2747893,2.7960934-8.8337273,5.5063318-17.6912461,8.85936-26.3651798.2726253-.7052857.6702238-1.3732058,1.053522-2.0370031.2080529-.3602936.6241234-.6233356,1.0126538-.3568715.2331183.1598752.3715963.6183166.3235691.9105927-.1330337.8098213-.3487582,1.6129127-.5980328,2.4008654-1.3090718,4.1381617-2.7454501,8.2449708-3.9316699,12.4124644-1.2359793,4.3423606-2.1876137,8.7560467-3.9589271,12.956229-.8356056,1.9814518-1.7540258,3.9332294-2.6190628,5.8631222,1.096529-.0159207,1.2227042-.0160837,1.7940631-1.1500226,2.1420082-4.2509917,4.3413415-8.4820704,6.3033494-12.8038987,1.3555434-2.9859392,2.3269756-6.1185542,3.5222811-9.1681926,1.6389161-4.1815077,3.3628387-8.3332435,5.6486456-12.2618287.3288721-.5652747.7099784-1.1140258,1.1456698-1.6118697.1427027-.1630528.5349276-.1405161.8130503-.2028464.0597997.2465836.2335955.5277788.159955.7338354-.3444982.9639279-.7492203,1.9099634-1.1469072,2.8572373-1.9481496,4.6404217-4.0840947,9.2221959-5.8075047,13.9323623-2.3645559,6.4624871-5.135142,12.7416824-8.6561858,18.7388189-.0278406.0474036-.0155907.1148181-.0272396.2194841.2435474-.0506627.4550296-.0804672.656772-.1389192,1.3569929-.3930475,2.7028496-.821326,4.0699181-1.1814077,1.4736404-.3881752,2.6287495-1.045438,2.9477935-2.5505233.0224492-.1058719.1020467-.2006302.1482708-.3031615,1.8777439-4.1657663,3.8512593-8.297589,5.6077774-12.5063754,2.2756075-5.4525081,4.3862222-10.9637289,6.5403565-16.4588172.178975-.4565511.7744094-.913363.2095731-1.4848626-.0266562-.0269691.0489463-.162678.102577-.2304999.3123622-.3950356.5828133-.8355194.968816-1.1572578.224881-.1874309.7016351-.3196363.9498844-.2236069.236742.0915807.4642391.5192725.4468807.7854107-.0326309.5000927-.2042525,1.0034282-.388442,1.4824183-1.6584133,4.3127843-3.4478275,8.5861009-4.9731365,12.9382062-2.0793272,5.9329484-4.536844,11.7155709-7.4406229,17.3418705-.0327016.0633732-.0328253.1410539-.0713249.3192778.5824244-.2660893,1.041555-.5099352,1.5282079-.6909131.9557177-.3554049,1.6750823-.9227981,2.1529853-1.7753136,1.2276536-2.1899038,2.5381219-4.3420347,3.7073015-6.5577832,3.364571-6.3764469,6.6577995-12.7833663,9.449456-19.3989497.6546331-1.5513482,1.4324541-3.0604911,2.2056261-4.566326.2856176-.556247.6879711-1.0715108,1.1065693-1.5542488.1432154-.1651712.5402482-.286035.7444123-.2212278.1842426.0584683.3414931.3899351.3696696.6159537.0373682.2997069-.0062221.6315159-.1122107.9190827-.697375,1.8923154-1.324857,3.8130664-2.152402,5.6569352-3.7072485,8.2600767-7.6301331,16.4290779-12.4461782,24.2061233-.0280704.0453015-.0150781.1122271-.0225199.1806194,1.2743551-.3604565,1.4222194-.5333192,2.0407216-1.582326,1.0017297-1.6990344,1.974028-3.4225772,3.1239932-5.0356691,2.8438377-3.9892045,5.1501317-8.2447915,7.4206131-12.5152727,1.7183368-3.2319035,3.2628425-6.5420744,4.914963-9.8044016.3551041-.7011629.7951086-1.3755849,1.2781555-2.0091052.4820217-.6321515.9406396-.5433899,1.2337697.073509-.1805659.3162631-.3473264.5510976-.4543932.8071489-.2771859.6628522-.4892691,1.3506039-.7958334,2.0009738-1.8449009,3.913903-3.7396673,7.8080069-5.5584776,11.7320945-1.9488743,4.2047288-4.2474437,8.2271109-7.0647666,11.994501-.5704574.7627925-1.1010896,1.550892-1.702534,2.401501.1833765-.035622.2782642-.0389625.3589045-.0719121,3.2374943-1.3230971,6.1759369-3.1120501,9.0723623-4.9647348.1491193-.0953776.2643174-.2538188.3569424-.4031508.3938157-.6350358.7445891-1.2940259,1.1622858-1.915015,3.6104341-5.3676737,7.1482175-10.7747988,10.1891133-16.4403218,1.2183204-2.2698822,2.3129404-4.5961468,3.4687389-6.8946765.1213848-.241369.2239088-.5235908.4287446-.6875562.2201614-.1762522.5506597-.235356.8330248-.3455787.1001553.2654538.2885519.5341992.2771505.7955139-.0129392.296513-.2031212.5869477-.3189379.8790935-3.0465346,7.6854158-7.1826514,14.8506465-12.1454471,21.6213468-.1262459.1722435-.2368127.3542317-.3546798.5316897.0566887.0504183.1133597.1008366.1700484.1512549,2.1438289-1.6712669,4.2876755-3.3425337,6.4461759-5.02524-.5727377-.7152422-.3921718-1.3242052-.0796152-1.8881926.5698918-1.0283278,1.107135-2.0863948,1.8133836-3.0335873,2.7260059-3.655994,5.0694206-7.5069311,7.1446115-11.5044463.2461282-.4741666.5908738-.9355575,1.0017651-1.2938467.2175983-.1897611.7738968-.2903207.9970101-.1629224.2042878.1166595.2938195.6277191.2078231.9055085-.16996.5489955-.5101981,1.0513696-.7554778,1.5826519-1.4392772,3.1174439-3.1095515,6.1178698-5.2360574,8.8918208-1.1277281,1.4710929-2.2391762,2.9527779-3.3541949,4.4321-.1324503.1757144-.2411611.3665999-.3608843.5504621.7109859-.4550519,1.2989962-.981967,1.9159075-1.4783933,5.2494739-4.2243975,9.9240889-8.9724836,14.5421743-13.7572997,3.2488073-3.3661133,5.7594952-7.2458935,8.148321-11.1620126,1.3746164-2.2534726,2.4694839-4.6519752,3.6902613-6.9852061Zm-95.0889607-57.0834344c-.1644891.0959398-.2911945.1521267-.3951503.2331316-1.473773,1.1485397-2.7649738,2.4472669-3.4514689,4.1335745-.6171854,1.516044-1.1669701,3.0609718-1.6376876,4.6210545-1.2855443,4.2605572-1.8064897,8.647706-2.300832,13.0249146-.4933523,4.3684986-2.0710634,8.3378307-4.5782602,12.0354923-.7282736,1.0740692-1.416554,2.1743091-2.0600774,3.2933946-1.0641986,1.8506233-2.144094,3.7371701-2.356354,5.8455964-.6789295,6.7439838,1.0928523,12.7830649,6.2778422,17.796564,2.2889533,2.2132716,4.814684,4.0327135,8.1389966,4.7210192,3.43381.7109891,6.8507124,1.493597,10.2930956,2.1662917,2.1374919.4177189,4.2782097.8778062,6.5095198.6412444,5.2487845-.5564752,10.5043922-1.0583767,15.7532651-1.6141022,1.0946376-.1158936,2.2384161-.2165509,3.2447947-.5882351,2.6483705-.978105,4.378091-2.9011863,5.4819912-5.2482114,1.9302255-4.1038352,2.3264453-8.4729856,1.7842703-12.8341024-.6951654-5.5917287-2.5529879-10.9482563-4.8264742-16.1621983-.5605586-1.2855523-1.3070036-2.5571067-2.2343505-3.6415318-2.7811037-3.2521914-5.6674358-6.4175686-9.7806968-8.3852832-1.8273304-.874156-3.2310247-2.2537659-4.3305588-3.8573331-.953349-1.3903487-1.8391913-2.8201406-2.7495333-4.2354214-2.0905518-3.2501871-4.172336-6.5051976-6.2723448-9.7501865-.3201045-.49465-.6677491-.9896015-1.0900417-1.4097729-1.4057095-1.3986757-3.0747906-2.3409795-5.2166927-2.4207622-.6574967-.0244921-.9590762.1588323-.9470385.8193868.0124885.6845578-.0575725,1.379447-.1854976,2.0546838-.1384692.730943-.6402886,1.1267037-1.2887614,1.1584799-.6781341.0332265-1.2372432-.3487564-1.4726859-1.0641779-.1373379-.4173441-.2011591-.8552451-.3092688-1.3335099Zm29.0050606,19.5656609c.2945619.2158177.4878019.3471187.6687567.4915213,3.7956135,3.028943,7.1304879,6.4067484,9.0440622,10.7589433,1.049315,2.3865661,1.9951338,4.8231595,2.7867955,7.291912,1.1139228,3.473574,2.3718563,6.9833892,2.3365739,10.6205049-.0257017,2.6498281,1.0192472,4.5961957,2.8221839,6.4722889,4.4148759,4.5940202,9.7948204,6.5118381,16.3491944,5.0951233,5.3800152-1.1628634,10.3042937-3.3870123,15.0180799-5.9838882,4.7282457-2.6048607,6.9633385-6.459114,6.6068557-11.6001254-.3126274-4.5083303-.6123862-9.0053679-1.9601166-13.3838638-.5710407-1.855129-1.0215805-3.7415373-1.5625358-5.6049281-.1210313-.4168879-.4244668-.7858262-.5868436-1.1960411-.4106615-1.0374044-.7535864-2.098372-1.1868562-3.1272864-1.2309592-2.92334-3.0973901-5.5227336-4.9295108-8.1401581-1.3417027-1.9168238-3.0563274-3.4943589-5.062898-4.8045989-2.3691164-1.5469892-4.868403-2.6926446-7.9290612-2.3232907-1.481913.1788432-2.6655874-.4605598-3.5506166-1.5595041-.2588553-.3214288-.5056552-.6518772-.7788815-.9625673-1.2265223-1.3947322-2.7242559-2.4457433-4.5788612-3.0376204-2.3601898-.7532108-4.6135956-.3578981-6.6535748.7933792-2.1422203,1.208996-3.863792,2.8581906-5.0543602,4.9444469-.4996452.8755411-1.3109102,1.4911852-2.3332684,1.8049633-2.2385045.6870266-3.9040414,2.0174974-5.3077181,3.7336176-1.9541242,2.3891082-3.0643172,5.021215-3.0439362,8.0269777.0050378.7453075-.1641974,1.3659706-1.1134632,1.6901941Zm-88.2232497,14.4462247c-.7589866-.229457-1.4368113-.447996-2.1234655-.63968-3.8146733-1.0649112-7.5475925-.9555439-10.9042267,1.1513914-2.1821163,1.3697023-4.2776219,2.9191684-6.1500496,4.6314755-3.0534948,2.7923486-4.3056658,6.370939-4.1049707,10.2747876.1004116,1.9531302.7658893,3.8796824,1.1442911,5.823459.1645819.8454433.7226701,1.3220787,1.4921301,1.7420056,5.3819287,2.9371586,11.2123377,4.8661714,17.1792495,6.4587962,11.5284916,3.07708,23.3551776,4.551546,35.2921652,5.318885,9.6599395.6209891,19.3368131.6963721,29.0158432.4126347.2596154-.0075937.5189391-.0234003.7784043-.0353775-.5445966-.2582837-1.0864799-.3544761-1.6203469-.479707-2.1462241-.5034985-4.4394993-.7235855-6.4071726-1.5788062-6.4615633-2.8084323-10.8644192-7.4023955-13.0246342-13.7395376-.0725799-.2129252-.1415538-.4269015-.2232724-.6738028-.3023396,1.3099467-.467359,2.5798064-.8941414,3.7698833-1.2743286,3.5534953-3.6214465,6.5177615-6.3528614,9.2210878-.9590851.9492457-2.3183759,1.3568288-3.7128254,1.5022173-1.248892.1302174-1.9570762-.6768826-1.6477632-1.7993332.0888865-.3225532.1946364-.6420428.3113812-.9570349.3046464-.8220267.4158142-.844873,1.1234858-.2378329.3862148-.2582023.780057-.5135202,1.1648312-.7799354,4.5083406-3.12186,7.1022497-7.1747962,6.5173947-12.4748354-.5611507-5.085183-3.1378251-9.2215196-8.0757411-11.7544519-4.0776163-2.0916175-8.4337442-3.6254074-13.0432741-4.4706307-2.6234731-.4810514-5.2562175-.7916274-7.8923912-.1700028-1.5825721.3731752-3.1115136,1.0361659-4.7390018.3323957-.5835999,1.2186674-.4639474,1.4462748.7180035,1.9078776.7936591.3099568,1.6322255.6012715,2.3067094,1.075104,1.4268153,1.0023772,1.3067385,2.703147-.2149026,3.5632074-.542334.3065429-1.1829762.5133165-1.8086728.6373334-1.7489968.3466542-3.4590521.1561354-5.0822891-.541907-.5173217-.2224581-.8611217-.6151064-.6509122-1.1870948.2058434-.5601335.7122145-.582165,1.2524008-.5097967.6205174.0831234,1.24381.209055,1.865715.2081832.8229668-.0011488,1.6457746-.1072652,2.4686442-.1682755l.15832-.2938813c-3.3422455-.6148538-4.9745948-2.2811668-4.1160539-5.5388009Zm4.3497025-1.6403869c.0423176.0754319.0846441.1508719.1269618.2263038.4585561-.0840522.9323228-.125508,1.3731758-.2591718,2.5890834-.7850359,5.2346698-.9961197,7.9310586-.6940418,5.2014732.5827435,10.0766463,2.1262699,14.8265899,4.1285636,5.0094971,2.1117017,8.268875,5.6353111,10.3073871,10.2448609.0676835.1530474.145805.3021757.1747945.3619313.220727-1.5038061.3162599-3.0862462.7050731-4.6048893.7518806-2.9367431,2.3546305-5.5498574,4.1563564-8.027711,2.8708298-3.9481805,4.5381256-8.2280561,5.0301787-12.9748711.5113736-4.9331378,1.108938-9.869657,2.5512202-14.6728218.0214593-.0714802-.0102612-.1565265-.0246588-.3207037-.7229618.5281128-1.4871541.793151-2.2641708.3920046-.5100125-.2632946-.9460575-.6800358-1.3448226-1.086739-.5040378-.5140661-.3263267-.9745282.3663464-1.2385235.3474767-.1324417.6782225-.3206303.9829838-.5259292.5754952-.3876863,1.2143786-.5491014,1.8237155-.2113038.4216828.233759.7161917.6624774,1.0667352,1.003306.0368733-.0817708.1176286-.2402446.180999-.4044137,1.2309857-3.1888997,3.4188999-5.634643,6.6224199-7.3103992.227506-.1190061.4216651-.4150546.4837805-.6605056.5087486-2.0108651.9837173-4.0290062,1.4644398-6.0458518.037651-.1580012.0413631-.3228669.0657391-.5251185-.2502468.0340209-.4172371.0459004-.578624.0802309-4.6497972.9890189-8.8883849,2.7824043-12.6698218,5.4818278-1.6385891,1.169732-2.7066147,2.5421719-2.1028635,4.5790447.0247472.08349.0122852.177124.0121084.2660159-.0020947,1.0458617-.5836353,1.8402594-1.6428491,2.2125139-.3370033.1184439-.6921869.1927188-1.0384086.2891474-2.912732.8112309-5.2269805,3.4374795-5.4976172,6.2080084-.0471433.482681.0814358.6915486.6163988.9222114,2.0252635.8732842,4.0888232,1.7235021,5.9503842,2.846686,1.0608313.6400385,1.813472,1.7539339,2.5996628,2.7267266.5027121.622032.3668943,1.3170352-.1201475,1.7787031-.475225.4504648-1.1995656.5295224-1.9449324.19113-.2800937-.1271701-.5611154-.2691936-.8026035-.4490633-.8992676-.669843-1.8131008-1.327228-2.6644473-2.0466419-1.4065226-1.1885451-2.943772-2.1520901-4.7969279-2.6409389-3.2114833-.8471543-6.5088569-.984444-9.8195852-1.0093028-.0788816-.0005948-.158099.0365019-.2371662.0560239.0990063-.0667545.1980215-.1335091.2970366-.2002636.6357281.7249218,1.2337962,1.4815627,1.9146967,2.1684264,1.6227067,1.6369241,3.1267508,3.3911839,5.2185046,4.5802831.5009532.2847884.4301852.668026-.1456901.8657149-1.3235842.4543757-2.6204062.5240715-3.8837311-.2182131-2.0319717-1.1939227-3.7916098-2.6767076-5.3981778-4.3135176-.8476875-.8636454-.8404401-1.4255225-.183677-2.4259524.0661987-.1008447.0984583-.2206004.2368303-.5404567-3.5250033.5483437-6.8842714,1.0708998-10.3674078,1.6127253.7849092.7503102.602832,1.4485073.1271827,2.0508951-1.0773323,1.3643655-2.193279,2.7056728-3.3593299,4.006217-.4691973.5233138-1.0796568.9550306-1.682365,1.3562503-.6645055.4423577-1.3003484.3532947-1.7610787-.0653694,1.8417103-2.0997979,3.3221385-4.4066871,5.0479436-6.7681826-1.5784888.5110351-2.8794736,1.1222713-3.9853005,2.0268999-1.2800381,1.0471328-2.7312558,1.8071551-4.2845379,2.4464766-1.5625976.6431509-3.1065907,1.329982-4.6258012,2.0562074-2.3158128,1.1070187-4.4744635,2.3907704-6.3586638,4.1159346-1.9677926,1.8017205-3.678555,3.7546633-5.1985124,5.876289-.4486749.6262851-.8831511,1.2097375-.4179221,2.0567696,4.4832532-1.7660904,8.9998664-1.2224479,13.4805653.2255461.1596634-.276168.2765937-.4684957.383802-.665321,2.1667819-3.9782865,4.9032876-7.5537155,8.6791653-10.3870066.5575094-.41833,1.1336233-.8386562,1.7667705-1.1413778.5660648-.2706357,1.19725-.1997666,1.6440246.2988351.4431156.4945196.3747604,1.0296558.0307218,1.549295-.1126703.1701739-.2518996.3257797-.3834926.484889-2.3253228,2.8114795-4.6580874,5.6177608-6.9725922,8.4368015-.5920316.7211005-1.1267648,1.4821901-1.6878271,2.2249066Zm-17.9208866-5.6992383c-.0856959,0-.1385399-.0135253-.1779365.0019881-1.1091413.4366136-2.2009595.9149762-3.3275652,1.3088304-6.4071726,2.2398577-11.6617506,5.9576769-16.0818853,10.7132263-.9949773,1.0704924-1.9602536,2.2437768-2.5770059,3.5186392-1.7652725,3.6489625-2.015537,7.5088785-1.4247692,11.4368037.2355178,1.5659246,1.154296,2.8423921,1.932877,4.1974121,1.4482039,2.5204174,3.6185078,4.3259755,6.3256484,5.5779427,2.1964741,1.0157965,4.4475554,1.9457483,6.7295,2.7867756,3.9629927,1.460566,7.9324064,2.9608441,12.1416776,3.6987045,3.1233481.5475126,6.3066152.7980397,9.4539636,1.237122,5.7452037.8014781,11.4020689,2.0736354,17.2118804,2.5576771,4.778942.3981643,9.5214172,1.144091,14.3356328,1.229512,8.346369.1480935,16.6905903.2436015,25.0299682.7488925,7.4404903.450864,14.8903669.3381969,22.3418079-.2918362,9.1941007-.7773933,18.3126342-1.9121633,27.2976744-3.882306,4.4113759-.9672685,8.7761211-2.1384915,13.2180421-2.9595568,10.2531024-1.8952486,19.8015118-5.4483528,28.9477974-10.0272752,4.3531847-2.1793362,7.6964909-5.2443086,9.8178529-9.3967777.2109695-.4129851.3228797-.8696666.5412734-1.2786185.4214088-.7891261,1.0005631-1.5219349,1.3104329-2.3434482.8014368-2.1248033,1.2918725-4.3046284.4280022-6.5254041-1.3522733-3.4763279-3.7056399-6.2518759-6.9720531-8.3882327-2.0034948-1.3103622-3.9716189-2.666637-5.9620507-3.994085-.546435-.3644163-1.1116425-.7056116-1.6778399-1.0437759-.1649045-.0984819-.3630762-.1496009-.6385651-.2592778.2395348.9454651.4995038,1.7780268.6494009,2.6271122.1117158.6327055.4482418,1.0169861,1.0309491,1.3392704,3.0965769,1.7126574,5.6591808,3.9325206,7.4354437,6.8612625,1.6858297,2.7796707,1.9737629,5.6808651.7837603,8.6836132-1.0781985,2.7205751-2.9421016,4.951348-5.2547415,6.8537829-3.1998433,2.6322616-6.7187659,4.8506744-10.5526315,6.640597-8.7067584,4.064946-17.9369546,6.7886742-27.3740017,8.9170463-18.0914652,4.0802637-36.5120147,5.7147842-55.0954623,6.0256536-11.9878254.2005325-23.9279241-.4279851-35.8273845-1.7649334-8.8283288-.9919073-17.5433686-2.5039182-26.0900129-4.7942186-5.8866426-1.5774862-11.5532873-3.6275258-16.7511767-6.6753879-3.0523591-1.7898166-5.6985863-3.9719068-7.6081877-6.8346438-2.518881-3.7761245-2.6737761-7.6642398-.2977216-11.5141666.8718999-1.4127468,2.0224618-2.7200618,3.2451439-3.9000355,3.0010308-2.896208,6.6440383-4.988184,10.521017-6.7508931.2897274-.1317247.6302925-.3036178.7769857-.5448239.7533876-1.2388168,1.4510631-2.5064359,2.1842596-3.7921674Zm26.9768893-16.3462804c-.2801379-.1626862-.3537872-.2178464-.437521-.2518959-.3305602-.1344298-.6554728-.2877053-.9981856-.3886396-4.0414501-1.1901503-8.0589484-1.1687706-12.0610505.1833-2.8551242.9645716-5.7414298,1.8387846-8.7542243,2.2971364-.7611873.115804-1.5198248.2600844-2.2862179.3291447-1.1408751.1028083-1.8782521-.2726645-2.0454545-.9718638-.1706891-.7137838.2890689-1.3006582,1.3668255-1.7153055.377677-.145307.7626412-.2847802,1.1575706-.3801415,4.0805462-.9852424,8.1565273-1.9878315,12.2489477-2.9295812,2.6415208-.6078793,5.3027156-.5793785,7.9548512.025478,2.115732.4825425,4.1595736,1.1016983,5.8549927,2.5066314.5063358-3.4204751-.0707769-5.374966-2.8885682-7.0194104-1.0155705-.5926838-2.2277395-1.0140447-3.4109012-1.2270025-4.2364489-.7625888-8.4380484-.6426702-12.5536074.7228034-3.2034847,1.0628661-6.4877688,1.8475272-9.8394359,2.431835-2.1238235.3702501-4.2325954.8797454-6.2895573,1.4935562-2.6267698.7838382-4.6142806,2.3635895-5.9226895,4.6299192-.5891283,1.0204326-1.1898303,2.0357321-1.7522714,3.0686307-1.3315519,2.4453685-3.137887,4.5259702-5.5039587,6.1869302-.128345.090106-.2383196.2024472-.4402078.3761736,1.7525365.4777842,3.3356654.9275564,5.1338914.2511544,2.0218387-.7605275,4.1199516-1.4372471,6.2539523-1.8373669,4.4178897-.8283249,8.9208346-.820829,13.4107783-.69273,4.9921211.1424308,9.5453822-1.2856664,13.7588692-3.5254344,2.5494349-1.3551911,4.9073356-2.9882287,8.0431721-3.5633215Zm87.3905519-14.0773515c.0291309-.0501168.0582619-.1002418.0873928-.1503668-.1774902-.1741093-.3569955-.346532-.53217-.5225968-1.8900114-1.8996646-3.8221107-3.7656546-5.6548324-5.7112074-1.3745457-1.4591849-2.6592946-2.9946329-3.9117661-4.5457122-.919304-1.138465-1.7556343-2.3379404-2.5625332-3.5478733-.4491079-.6734565-.308385-1.3455483.1985076-1.6924836.4916377-.336494,1.1904799-.3016746,1.7648438.2537332,1.2285375,1.1879748,2.4448074,2.3944002,3.5598791,3.6720492.9350185,1.0713642,1.712698,2.2588094,2.5718487,3.3872201,1.8378479,2.4138407,4.1778865,4.3998471,6.5700178,6.5896043-.0819661-.376198-.1116097-.5877381-.1746796-.7904378-.8570295-2.7543964-1.6593855-5.5247624-2.5925303-8.2571435-1.5528844-4.5470322-3.8523906-8.7208362-7.4662892-12.2103268-.8148533-.7867999-1.5922324-1.6174061-2.2927715-2.4919125-1.8341535-2.2896201-4.2181006-3.8875409-7.0729154-4.9052358-1.7912172-.6385434-3.6042826-1.2251-5.5464222-1.8819555,0,.6481251.0268153,1.1330345-.0039595,1.6148233-.5421396,8.4865272,2.1594903,16.0579233,7.5835554,22.8602491,1.1392356,1.4287042,2.4514715,2.7288002,4.1502227,3.5715466,2.714958,1.3468804,5.4792159,2.6132936,8.2618574,3.8380229.9607378.422852,2.038459.6198402,3.062744.9200034Zm-37.8872233-.9137378c.3037802.0407225.4641772.0757578.6258469.0818197,1.6831782.0632266,3.1961489.5833138,4.6270209,1.3839608,2.0777982,1.1626272,3.5878523,2.781561,4.8150286,4.6983441,2.7576822,4.3073497,5.5826237,8.5781242,8.3844089,12.8614381.2239441.3423848.4723703.6719451.7232181.9984662,1.2524715,1.6303,3.1061753,2.5132963,4.8281004,3.4003339.11214-1.2366495.1465739-2.458413.3479274-3.6563281.3835987-2.2820223,1.5368341-4.2885284,2.8046842-6.2463517.1529551-.2361707.2428227-.5888054.1786392-.8490365-.347185-1.4074508-.8349162-2.7885681-1.1209934-4.2050629-.7448542-3.6879495-2.7855758-6.675176-5.8246156-9.0618399-4.7982801-3.7682619-10.4500721-5.6272366-16.7071179-5.9627244-1.4072031-.0754523-1.0886188-.1249295-1.5844547.9762677-.2311385.5133328-.4602618,1.0289144-.65382,1.5548762-.4860519,1.3208402-.9513339,2.6481741-1.4438731,4.0258368Zm48.9058084-2.6346c1.8366106-1.7745803,3.2653702-3.6143223,4.5935857-5.5246565.8868145-1.2754328,1.3249984-2.6838939,1.1965252-4.1878548-.1645686-1.9269677-.2467469-3.8845955-.6974987-5.7610146-.9576975-3.9867072-.9492658-7.9799855-.6541382-12.0142145.1309655-1.79033.1037436-3.6018522-.0284239-5.392671-.0726683-.9844358-.5124607-1.945842-.8127145-3.0097347-1.0222699.8677478-1.8480826,1.6093969-2.7197484,2.3019925-5.4220146,4.3081523-8.0804254,9.9125508-9.0146661,16.3204235-.5985454,4.1053588-.1569147,8.1669438.6666532,12.2109379.5241979,2.5740092,1.4385348,5.0222864,2.6578274,7.3825842.210669.4078113.4631078.5806495.9533667.4601932.3419527-.0840196.6998674-.1128464,1.0800191-.1708013,0-.5972709-.0269214-1.1515299.0044015-1.7029942.1967576-3.4653774.4221512-6.9294307.6080378-10.3952847.2478251-4.6203416.4616936-9.242223.7082991-13.8626175.0330021-.6182392.1142258-1.2464838.2923877-1.8396605.066782-.2223684.4755521-.4969029.7246676-.4937904.2459868.0030799.5848284.2845969.7054178.5209347.1449123.2840184.1440992.6503902.1343948.9792987-.0911756,3.089216-.236795,6.1774665-.2908322,9.2671226-.0832212,4.7592566-.1070315,9.5193892-.153892,14.2791754-.0014672.1485009.0209114.2972055.0463302.6326322Zm-85.4467596,124.9130935c.8349515.141445,1.6033686.2282837,2.3464286.4054158,2.4499424.5841123,4.8828889,1.2295446,7.3366495,1.7991377,4.9383225,1.1463398,9.9829253,1.5327225,15.052885,1.7175298,3.5170842.1281967,7.0319942.4248564,10.5512173-.0001304,4.19376-.5064643,8.4020413-.6630803,12.6351935-.5780667,4.0689459.0817382,8.0568626-.6616626,12.0310799-1.3834231.2821353-.0512331.6769763-.4249216.7015467-.6751553.0793147-.8081103.056017-1.6323532-.0217245-2.4427123-.0376687-.3926728-.2812161-.78515-.8679183-.6466219-4.4798725,1.0576923-9.0615796,1.5004737-13.6454079,1.9370465-4.0546014.3861708-8.0995249.8528741-12.193766.7160407-4.01954-.1343564-7.9380585-.91364-11.8989212-1.4375079-6.3844494-.8444167-12.6723672-2.0796974-18.8954386-3.6207794-.3652416-.0904563-.7274958-.1911951-1.1070554-.2913473-.6792654,1.5098436-1.332449,2.9617078-2.0247685,4.5005737Zm5.3041121-112.7883426c.0342306-.0053123.0855368-.0023058.1241247-.0212819.1275451-.0627051.2552228-.1269501.3745306-.2018687,2.2879281-1.4366931,4.1842147-3.1970312,5.4939493-5.4785728,1.3984621-2.4361371,2.3059316-5.0408511,3.0547631-7.682393.9865191-3.4799985,1.7859231-7.0046956,2.7070831-10.5009325.9359376-3.5523302-.661633-6.6689634-1.9080592-9.9416994-.8359503.5720944-1.6303607,1.1052629-2.4127775,1.6529955-4.1372481,2.8962569-6.6863913,6.689125-7.6921513,11.3981426-.6363379,2.9793843-.9944735,5.9709333-1.0268923,9.0080159-.0366788,3.4381068.1074911,6.8962897-.9044027,10.2721559.1911453-.279859.3634121-.5640852.4902678-.8645905.9703892-2.2987171,2.055402-4.5644846,2.8634675-6.9111023.9099708-2.6425766,1.5401396-5.3660279,2.3460574-8.0404622.4705584-1.5614881,1.0358013-3.0992296,1.581706-4.6406457.1828815-.5163515.5762642-.8394099,1.2103483-.7133764.6499046.1291826.7681607.6082989.7676835,1.1298936-.0001414.1543999-.039675.3087916-.0613995.4631549-.5865873,4.1698605-1.9556002,8.1569221-3.4204731,12.1118816-1.1120314,3.0023406-2.3783878,5.9561125-3.5878258,8.9606856Zm32.1826579,118.9762668c-3.1778979.1635743-6.2732551.3229117-9.4158264.4846772-.1066426.4237809-.2406927.9154325-.3533099,1.4112558-.461402,2.0312671-.7920948,4.0874338-.5133533,6.1544206.1490486,1.1053403.4162738,2.270257.9732528,3.2409801,1.2746025,2.2214031,3.6923825,2.432935,5.555994.642271,1.8650256-1.7920654,2.8599852-3.9830774,3.4577971-6.3546272.4660774-1.848953.7782894-3.7098344.2954458-5.5789775Zm12.7681122-.6774041c-3.3909798.1795113-6.6895024-.1735145-9.9860187.3175831,0,.2770562-.0280969.5003697.0043926.7159267.2819144,1.8701046.5321789,3.7454563.8764914,5.6059629.3293228,1.7795179,1.4381017,3.1160588,3.0173772,4.1525506.9676052.6350521,1.9389666.6774204,2.9860367.1799024,1.2464261-.5922275,2.0490649-1.4993493,2.5055263-2.715939,1.0062019-2.6818162.7971591-5.4250339.5961945-8.2559866Zm-24.6003222.9570023c-2.6704043-.1443945-5.147383-.2804782-7.6249981-.4057743-.1226664-.0062086-.3076249.0470614-.3676102.130967-.4885355.6833356-1.0573313,1.3391971-1.4074506,2.0813269-1.0500044,2.2255747-1.3024431,4.5988193-1.1648312,6.9906407.1018346,1.769985,1.1667933,2.5671285,3.4939545,2.3290512,2.0831276-.21308,3.3828486-1.5174699,4.0891944-3.2153473,1.0678754-2.5669492,1.9673198-5.1934422,2.9817413-7.9108641ZM52.9016577,24.9376369c0,.1517234-.0081135.3059033.0011932.4591828.2100857,3.4593236,1.2631923,6.7240911,2.6186385,9.9321747.9263835,2.1925885,1.8264466,4.4018677,2.5723967,6.6504517,1.4042777,4.2329852,2.0423744,8.5467961,1.1375298,12.9639694-.0156084.0762141.0275401.1626617.0480095.2688758,1.2843777-.2077758,2.5332608-.4098075,3.8213064-.6181699-.203077-.4779634-.3913498-.8847155-.5503504-1.3009678-1.4420082-3.7750408-2.4866124-7.6415972-3.4893144-11.5385121-1.3550662-5.2663238-2.2318316-10.5475458-2.2566406-15.9537625-.0020151-.4408586-.0457999-.881546-.0705736-1.329595-1.282504.1560743-2.516035.3061844-3.8321951.4663529Zm133.4103287,71.1566917c2.3357078-1.7627905,4.5453465-3.6457849,5.5160185-6.3620335.3890784-1.0888411.5760962-2.3221093.4748803-3.4609205-.2831429-3.1858117-2.4701025-5.3520463-5.0026386-7.272781-.017924-.0135823-.0794914.0217463-.085254.02349.1865936,1.6195449.4854863,3.2262816.5352811,4.8395446.1271474,4.1197559.6063762,8.2905575-1.4382873,12.2327005Zm-104.7953276,73.1795381c-1.9094644-.3352474-3.7254465-.6649054-5.5486671-.9560409-.1674411-.0267572-.4533415.1497231-.5617075.3046444-.7431573,1.0624505-1.6199757,2.0817832-2.1307483,3.2364174-.5835115,1.3190721-.9730849,2.7460531-1.185663,4.1595251-.206789,1.3749494.7381371,1.9448358,2.0641872,1.3013589.830064-.4027923,1.636406-.9756281,2.2282697-1.6420816,1.5411383-1.7353571,2.9624296-3.5614638,4.4206473-5.3588904.2539501-.3130203.4547821-.6627055.7136816-1.0449329Zm62.0677982-66.5154675c-.5047891,1.5928447-.8676355,3.1176476-1.476999,4.5535259-.6051211,1.4259218-1.4582442,2.7624138-2.257383,4.2393405,4.4287873-.8528578,8.8498677-1.7042327,13.3481061-2.5704527-1.843858-.9332598-3.5697603-1.7622121-5.2467517-2.668128-1.6936957-.9149111-3.1626695-2.0940211-4.3669725-3.5542856Zm-8.7348994-51.9011709c.6785672-.34333,1.3799371-.6390689,2.0077725-1.0341208.5246221-.3300899,1.0835368-.705245,1.4171815-1.1846913.9672428-1.3899168,1.9625029-2.7449939,3.3164024-3.8465944.0387116-.0314992.0278406-.1147855.0535599-.2389247-4.2048609-.3487645-7.8492692-2.1625518-11.5129627-3.6913716.8962184,1.6092869,1.8820039,3.1831392,2.6640319,4.838795.783937,1.6597133,1.3645408,3.4010509,2.0540144,5.1569077ZM15.9380206,100.1794077c-.0962311-.2914288-.1561767-.5239575-.2484924-.7449978-1.7194637-4.1170183-1.1382236-8.102931.7573294-12.0322903,1.3344553-2.7662351,3.5795001-4.8123963,6.0629882-6.6834786.2277932-.1716324.4541502-.3448943.6811745-.5173985-2.9830537,1.5049875-5.7802077,3.2477835-8.0281647,5.590474-1.1355367,1.1833876-2.155871,2.524255-2.9185034,3.93613-2.1874414,4.0496201.2573572,8.1307475,3.6936685,10.4515612Zm104.3821251,68.551281c.8105402,2.2036573,1.5732124,4.3676512,2.421492,6.5027207.1589298.3999894.6137826.7440853,1.0137851,1.0092131.7697428.5101633,1.3444779.4014886,1.7924192-.3662251.3380285-.579354.5825128-1.2179748.7749574-1.8542817.6633477-2.1933096.3600889-4.3396882-.4132422-6.4814714-1.8302647.3896744-3.6066866.7679093-5.5894115,1.1900443Zm-47.5421161-1.2980835c-1.4762565-.3292181-2.9252559-.6384089-4.3650104-.980696-.528785-.1257198-.9038635.0063552-1.1596166.4256223-.7072915,1.1595229-1.5098685,2.2836519-2.0666973,3.5025556-.4114039.9005384-.6009318,1.9207836-.6794952,2.9019522-.0358569.4477516.3511976,1.0053674.7226701,1.3532438.1206954.1130093.8791959-.1966053,1.212496-.4577081,2.4468491-1.9167586,4.808126-3.9120779,6.3356533-6.7449697Zm54.6668945,10.1290569c.4648047-.1525259.8257067-.2545358,1.1725559-.3876374,1.3334301-.5116951,2.6633425-1.0312284,3.9924949-1.5522934.6658931-.2610377.9045794-.6602286.5275388-1.3016522-.4928044-.8383548-.9639373-1.6880512-1.4228734-2.5426852-.6290198-1.1712719-1.2590118-2.3428697-1.8459968-3.5321971-.2754006-.557958-.4511938-1.1577141-.6721329-1.7385184l-.2138685-.0033243c-.0373859.2680936-.1257156.5396745-.104486.8037431.2788121,3.4671291.5298367,6.9283756-1.4332318,10.2545649Zm-48.1506576-1.2143898c-1.690072,1.9490726-3.5161739,3.6608827-6.4665393,3.7734357,2.5641683.9614021,5.151758,1.709985,8.0229413,1.9130432-1.4992184-1.7170409-1.5804775-3.6582591-1.556402-5.686479Zm26.7450702,1.3966713c-.6719385,2.0453627-1.8035466,3.8493891-3.3939141,5.411916.0386321.0599675.0772553.1199186.1158874.1798861,2.2896781-.5139439,4.5793473-1.0278878,6.6269274-1.4874862-.5475398-.6005708-1.1640623-1.2227657-1.711876-1.8926902-.5611507-.68622-1.0550334-1.4192243-1.6370247-2.2116258Zm-41.3755654-1.0988873c-.0326574.0693863-.0653237.1387725-.0979811.2081588,2.0916566.8994955,4.183322,1.7990073,6.2749786,2.6985191.0362634-.0586964.072518-.1173928.1087726-.1761055-1.7206878-1.2746506-1.7571545-3.0261076-1.5276334-4.9248434-1.4951439,1.1030101-2.6737187,2.5069329-4.7581367,2.194271Zm27.1359605,2.4385569c-.6665736,1.4646725-1.6749232,2.7339292-3.2005769,3.6747827,1.6729435.0980826,3.3458957.196149,4.8668209.285318-.5642088-1.3409244-1.1157081-2.6516532-1.666244-3.9601007Zm31.3746454-.290337l.0830974-.1514015c-1.4712364-.5434876-2.4127245-1.5850962-3.1376572-2.8309201-.4576634,1.3468723-.8985871,2.6445321-1.3514602,3.9773088,1.4273632-.3223414,2.9167004-.6586643,4.4060199-.9949872Zm-48.0379432-124.310111c.2350804-1.1472931.4492847-2.1927148.6651683-3.2463413-1.4261789.9527492-2.8437228,1.8997298-4.3592301,2.9121532,1.3274996.1200979,2.5158052.2275993,3.6940618.3341882Zm-12.6660744,119.7823238c-.5730028.7586698-.1768185,1.3352536,1.2854294,1.9075354-.3910935-.5803644-.8246903-1.2238086-1.2854294-1.9075354Z" stroke-width="0"/>
      <path d="m131.5586094,88.3511453c.0473201,1.1809677-.0414338,2.3525493-.6872994,3.4210862-.2859004.4729688-.6136766.9553076-1.29638.9239714-.6597063-.0302526-.9508743-.5243486-1.1124026-1.0133033-.4697895-1.4222716-.8863549-2.8595757-1.3170439-4.2927082-.6821025-2.2698822-1.2716859-4.5672875-2.0613855-6.8047579-.8437368-2.3905748-2.1053647-4.5750849-4.3193342-6.1933017-.9267989-.6774122-.6355071-1.8555446.5192131-2.0951455.5468946-.1134819,1.2029065-.0195465,1.7481395.1490468,1.1741821.3630557,2.0738651,1.1282192,2.8362014,2.0036625,3.5340007,4.0584278,5.6382341,8.6225784,5.6902915,13.9014497Z" stroke-width="0"/>
      <path d="m176.8335232,75.0329198c-.1727882,2.0610227-.242858,3.6402689-.4642567,5.2012722-.0998548.7040798-.4263229,1.4097403-.8007298,2.0383557-.1618818.2717846-.7339831.517537-1.0673627.4690579-.3237636-.0470777-.7654474-.4513203-.8334667-.7591668-.2489741-1.1268341-.4173432-2.2748197-.5193369-3.4221372-.3483693-3.9185716-.557801-7.8501389-1.0219871-11.7563667-.2156008-1.8142436-.8945215-3.5818739-1.3672807-5.3697595-.062628-.2368796-.1620586-.4657011-.2206033-.7032406-.1535561-.6231645.0011313-1.1544224.6176361-1.5027876.5396826-.3049785,1.3187762-.2212929,1.7692629.302192.4574336.5315756.8526458,1.13389,1.1438315,1.7573397,1.1232029,2.404703,1.7463895,4.9483008,2.1379956,7.5234303.336968,2.2158056.4561432,4.4597534.6262976,6.2218107Z" stroke-width="0"/>
      <path d="m155.3671108,73.5370333c-.0130099.8705465-.7851037,1.5489284-1.7379755,1.5270272-.9254731-.0212656-1.6489034-.6934877-1.6553376-1.538157-.0065757-.8630588.7645282-1.5730457,1.7027991-1.5678311.9446875.0052472,1.7034355.7139305,1.6905139,1.578961Z" stroke-width="0"/>
      <path d="m168.6119152,88.3387526c1.069095-.0325992,1.8315904.5314697,1.8477645,1.366932.0152549.7876269-.7084582,1.4173585-1.6479488,1.433931-1.0042928.0177132-1.8678981-.6155464-1.8867589-1.3835046-.0190907-.7765541.708087-1.3875132,1.6869433-1.4173585Z" stroke-width="0"/>
      <path d="m156.2147541,89.6102826c.0139114.808697-.7077511,1.4805035-1.6008762,1.4902727-.9129758.0099891-1.6755419-.664938-1.6903902-1.4961228-.0145124-.812119.7010694-1.4790125,1.5984191-1.4896616.913241-.0108447,1.6785646.6652558,1.6928472,1.4955117Z" stroke-width="0"/>
      <path d="m140.4523856,79.2242618c.0176235-.6379527.6146665-1.1121926,1.377374-1.0940312.7100137.0168984,1.5072082.4662144,1.485961.837483-.0653502,1.1420785-.4961806,1.6956531-1.2951073,1.6640561-.7898233-.0312385-1.5864875-.7462607-1.5682276-1.4075078Z" stroke-width="0"/>
      <path d="m60.9675176,61.972538c-.1555447,1.2835072-.2549665,2.4581197-.4613843,3.6165345-.073066.4101089-.3512241.82166-.6399439,1.1561008-.2209038.2558964-.5078471.2624798-.661854-.1815238-.7958775-2.2946188-.9060731-4.6754163-1.0312761-7.047789-.0221929-.4206277.2411876-1.013344.5927299-1.2590069.7839105-.5478141,1.6591911-.2175287,1.8619499.7118854.2212396,1.0141262.241824,2.0654388.3397785,3.0037991Z" stroke-width="0"/>
    </g>
  </g>
</svg>