<?xml version="1.0" encoding="UTF-8"?>
<svg id="Layer_2" data-name="Layer 2" xmlns="http://www.w3.org/2000/svg" viewBox="0 0 93.559715 96.6221816">
  <g id="Layer_1-2" data-name="Layer 1">
    <g>
      <path d="m44.4507038,32.4802909c-.8112167-2.6824941.1574812-5.1599184,1.5865176-7.6404839-.237713.0525083-.3220875.064006-.4018433.0897813-4.4710333,1.4452568-9.0629643,2.025092-13.7460064,1.8200606-2.7838278-.1218883-5.43856-.7708518-7.8068305-2.3374222-.1263264-.0835646-.3384612-.1016347-.4932171-.0685755-3.7260225.7958336-7.2615812.29924-10.5422433-1.6477654-1.6484659-.9783239-3.1124768-2.2239068-4.4574506-3.5915968-.42387-.431028-.7438725-.9638931-1.1149003-1.4474731-.0706441-.0920688-.1419886-.2025087-.239612-.2520728-1.0887364-.5527247-1.6874162-1.5021157-2.0570184-2.6057318-.7727644-2.3074495-1.4876848-4.6344247-2.2743356-6.9369955-.4138745-1.2114292-.8885235-2.4065121-1.4148216-3.5732969-.2722662-.6036077-.6939636-1.1463314-1.0895847-1.6861986C-.1475006,1.8562729-.1397516,1.0287237.4660013.5057008,1.0514897.0001734,1.8933467.0759725,2.522664.7101166c.5361349.5402475,1.0346712,1.1190731,1.586274,1.6424325,1.0659327,1.0113421,2.3187337,1.5134163,3.8211121,1.4546475,2.3882176-.093415,4.7801565-.0897047,7.1687791-.1755595,1.4072888-.050582,2.6645991-.5208667,3.7733374-1.4465948C20.8258923.5538038,23.098515-.1828998,25.6477052.038456c1.8317224.1590518,3.2796333.9795498,4.3257721,2.5297849.8527801,1.2636967.4464713,1.0818603,1.8854183.6666149.8448833-.2438148,1.6880154-.5257044,2.5521727-.6638596,1.6315341-.2608287,3.1553481.2599969,4.6796437.7717274,1.941615.6518283,3.3457681,1.9071056,4.3640684,3.6527626.9956717,1.7068599,1.895608,3.4577183,2.5836942,5.3134594.1348963.3638042.2926128.7194489.447905,1.0753289.352312.8074024.9740937,1.3118982,1.8091047,1.5491297.4877172.1385738.9880485.2322515,1.4812546.3520712.8209248.1994386,1.5691917.51022,1.9541524,1.3368253.0673989-.0084057.1193709.0001423.1519102-.0210854,2.1556706-1.406654,4.5863108-2.2326408,6.9042619-3.2998212,3.5018538-1.6122436,7.1797021-2.7008652,10.8474921-3.8286121,1.1549095-.3551002,2.308637-.7185788,3.4775779-1.0216768.6851967-.1776691,1.3261978-.0184176,1.8572241.5106414.1023461.101974.3546268.1373015.5055575.0932071,1.0605314-.309832,2.1130948-.6470974,3.1673109-.9784225.955657-.3003454,1.9249076-.4211857,2.917252-.2211971.8964558.1806653,1.4713823.6933206,1.6059722,1.4210986.1408832.7617182-.2044842,1.4449996-1.0152959,1.9249459-2.0379578,1.2063288-4.1903668,2.0535762-6.6113317,1.9274687-.7426795-.0386739-1.497081-.1260692-2.2141494-.3134739-.915106-.2391523-1.8136523-.2098691-2.7048218-.0116509-2.8549753.6350087-5.7148758,1.2555975-8.5468449,1.9831292-1.5420757.3961738-3.0783286.8912296-4.5328448,1.5328983-1.8444623.8137012-3.3021744,2.1741073-4.5552709,3.7582881-.5151069.6512017-1.057018,1.3247147-1.7206368,1.8018208-.5819148.4183701-.9375978.8669757-1.2238845,1.519354-.4042293.921164-.9999074,1.7594256-1.5266707,2.6252575-.2870692.471858-.6056763.9244092-.9016328,1.3910082-.834409,1.3154881-1.0278334,2.7777533-.9692944,4.3778864.3941654-.2357156.7435496-.3584357.9693382-.8347373.4049626-.854285.9021253-1.684026,1.477402-2.4346241,1.4154811-1.8468866,3.2758956-3.1751694,5.4264659-3.9918968,5.6111726-2.1309898,11.4104886-2.8019635,17.2464702-1.2626022,6.0804586,1.6038379,11.0318157,5.0283822,14.596384,10.2854588,3.3810546,4.9864302,5.7096332,10.4202839,6.6891502,16.389126,1.1249861,6.8552669.3841125,13.5337348-2.1140142,19.9985138-1.119043,2.8959313-2.759229,5.5181516-4.5704844,8.0463002-2.1209533,2.960386-4.6198351,5.5010228-7.6010274,7.5946027-2.0954953,1.4715684-4.4025672,2.4521798-6.8220436,3.2104668-.8545586.2678335-1.7144912.5238465-2.5833877.739199-1.0503416.2603362-1.9729777.7579477-2.8426294,1.3814587-3.4001535,2.4377435-7.1872104,4.0341388-11.2301051,5.0085554-3.3953651.8183418-6.8281837.9938658-10.2538662.1175814-.6344177-.1623024-1.2728521-.3554477-1.8642836-.6312053-2.6144877-1.2189921-5.0704217-2.6896411-7.1207473-4.7538887-2.1263327-2.1407964-4.2967406-4.2409762-6.052538-6.7191393-2.2396675-3.1611161-3.86794-6.6429188-5.1776547-10.2553821-1.5640093-4.3138585-2.8260588-8.7318252-3.635787-13.2562971-.6869698-3.8385528-.8382452-7.6936216.1191685-11.5248303.11577-.4632717.2116915-.9438802.4126186-1.3714222,1.0347177-2.2016831,2.0502435-4.4149131,3.1721541-6.5722802.8581595-1.6501678,2.3985879-2.6815966,3.8428323-3.7663929,1.7236521-1.2946599,3.5906063-2.3123528,5.733132-2.7470145,1.4387828-.2918905,2.8850192-.2199713,4.3319669-.105148,1.5865559.1258996,3.0585566-.1178332,4.3370399-1.1705225.3411372-.2808908.798132-.4210845,1.322378-.6869534Zm.0842213,2.6787509c-.0954836.1003815-.1436085.1374957-.1746866.1856206-.8715397,1.3495324-2.174961,2.0144645-3.7025948,2.2835895-1.0143218.178687-2.0365459.3542711-3.0622997.4186-3.3997649.2132292-6.0886782,1.8625488-8.4935212,4.1073878-.2696941.2517554-.5345999.5438757-.697061.8694985-.9594166,1.9229867-1.9083588,3.8519111-2.8130726,5.8009906-.2414562.5201799-.3390631,1.1128536-.4629707,1.6809176-.7079895,3.245912-.4452126,6.4874788.1573061,9.7052787.6801292,3.6322846,1.7663811,7.1633614,2.8710425,10.6846862.8707188,2.7755698,2.1281824,5.3889685,3.470803,7.9599228,1.6271889,3.1158697,4.039376,5.6051529,6.464292,8.0934291,1.6788217,1.7226999,3.5807996,3.103699,5.6907806,4.234453,1.2186364.6530733,2.5015141,1.1018594,3.8697131,1.1891562,1.4718529.0939185,2.961475.172722,4.4268595.0542759,3.9894288-.3224487,7.8314402-1.3083247,11.5125063-2.8874927,1.743758-.7480754,3.4738567-1.5037246,5.3594938-1.8633642,3.3806386-.644788,6.4702186-1.9054256,8.888097-4.4797071.1019849-.1085956.2184718-.20374.3298037-.3033498,1.9680306-1.760854,3.7313472-3.6789976,5.1102995-5.9635119,1.749515-2.8984595,3.0423526-5.9801482,4.1412678-9.1680794,1.9417518-5.6330406,2.5678459-11.3753116,1.5794526-17.2668934-.8252481-4.9191791-2.7169816-9.4247272-5.3508035-13.637646-1.3336731-2.1332554-2.9114074-4.0506274-4.9205253-5.5860649-3.0026006-2.2946767-6.2869129-3.9794251-10.0773846-4.4895849-3.6685342-.4937588-7.2776046-.053663-10.8299036.8850622-1.7368736.4589704-3.3194783,1.2651797-4.6740782,2.4726031-.1346938.120055-.246064.2662793-.3955062.4302509.2886945.1252101.511424.2098582.7235587.3157504,1.4764279.7369717,2.1283192,2.4656421,1.4216266,3.9557676-.2488769.5247823-.6353644,1.0210037-1.0648655,1.4148572-.6464735.592816-1.3579052,1.1268084-2.0915716,1.6101422-1.7713283,1.1669271-3.6605991,2.0848131-5.7691572,2.4711693-.9064267.1661003-1.8171656.1997341-2.6962683-.1394385-.6572379-.2535832-1.1746378-.661293-1.2956888-1.4136697-.0697302-.4334249.0532088-.8067183.4246252-1.0585941.3898422-.2643804.8102426-.2482421,1.1704678.0323368.2686653.2092562.5274911.2284536.8354871.1732474,2.4407643-.4374855,4.5747201-1.5278363,6.4965248-3.0607182.2531618-.2019176.452086-.4746764.6618293-.7265357.0666273-.080002.0868371-.1986506.1458686-.3424451-.6162381-.0815343-1.0805879.1691813-1.5457805.3945868-1.1553692.5598279-2.3070062,1.1274542-3.456104,1.7000603-.1410693.0702938-.2763541.1728862-.3821917.2896413-.4576406.5048132-1.0676565.4376989-1.3872431-.1698326-.1373808-.261168-.2549458-.5327556-.4084267-.8563536Zm3.2741937-15.4947279c-1.9636417-.1328989-3.3751771-1.3107435-4.8351767-2.3948174-.6836152-.5075987-1.3779016-1.0010566-2.0733592-1.492424-1.6819464-1.1883572-3.4756516-2.1584068-5.5761379-2.2511323-1.7570123-.0775558-3.5303216-.104557-5.2796286.0438673-2.1397293.1815382-4.2607592.5782702-6.3921375.8651041-1.5859046.2134153-3.1883963.452978-4.7731627.1227529-2.0315605-.4233172-4.0443176-.9407719-6.0547653-1.4581225-.3892621-.1001735-.7737631-.3352652-1.0847415-.5978123-.5644193-.4765315-.7862568-1.1220857-.6191769-1.8571475.1715564-.7547408.6609427-1.2626487,1.4053625-1.408594.4831477-.0947257,1.0189844-.0893408,1.5013277.0126031,1.3560227.2865931,2.6966459.6460987,4.0432067.9773964,2.2722615.5590509,4.5613016.9958523,6.9165367.7378364,2.715203-.2974505,5.4187333-.2663176,8.1375481.0205984,3.5144733.3708855,6.6672439,1.5514336,9.4217939,3.7846052.8928714.7238761,1.8411132,1.3790235,2.7470692,2.0873085,1.3577137,1.0614781,2.9047474,1.3257435,4.5676497,1.1325107.0979845-.0113882.1892215-.0808667.2835942-.1233056-.1531798-.1298124-.29119-.1642616-.4305026-.1708121-.5669531-.0266564-1.1350718-.0326487-1.7013737-.0682362-1.8423116-.1157646-3.2594125-.9538839-4.1263827-2.5898178-.3811683-.7192464-.6097314-1.5192938-.9085281-2.2822871-.5980969-1.5273055-1.1639227-3.0683961-1.8068446-4.5766108-.4314822-1.0122095-1.1276183-1.8335529-2.1716666-2.2874011-.5475477-.2380195-1.1067409-.4493662-1.6616545-.6702979-1.358551-.5409014-2.7006189-.5241037-4.0496259.0644739-.6278617.2739353-1.2800867.5065015-1.9403673.6885376-1.2467977.3437448-2.2203387-.1562034-2.7157776-1.3434607-.1207281-.289302-.2372698-.581622-.3329778-.8798578-.3102178-.9666183-.9806662-1.5555762-1.9352724-1.8221894-2.3917145-.6679831-4.6133283-.3005178-6.5276577,1.2991911-1.4587628,1.2190113-3.1035293,1.8747387-4.9662478,2.0478219-1.9038386.1769112-3.8073269.3663352-5.7148321.4913756-1.0394076.068135-2.0884961.0493042-3.1299066-.0000958-.5068244-.0240405-1.0060557-.2081781-1.5665868-.3326987.1835083.6381909.3721278,1.2167101.5156816,1.8062043.809014,3.3221352,2.1841493,6.4067736,3.9132028,9.3415211.1523535.2585905.3728283.5173835.6257274.6697041,1.3938593.8394984,2.7957085,1.6674335,4.2183804,2.4568807,1.1336873.6290765,2.3682541.9867789,3.6511208,1.1740139,1.3895525.2028042,2.7787986.4077152,4.1684222.6100488,1.218527.1774119,2.4102771.4443917,3.5001081,1.0487984.1119393.0620797.2082547.1524411.3114436.2301775.1507063.1135209.2858653.2675708.4551725.3317957.2485376.0943016.520169.1308959.7840568.1811058,4.5157324.8593087,8.9778236.3869253,13.3592069-.7607168,2.3900564-.6260557,4.6876828-1.6064921,7.0228175-2.4388161.2882458-.1027456.5506725-.2779521.825062-.4195796Zm26.5751774-8.7435473c-.2119049-.2791615-.3804788-.4264037-.4528357-.6112965-.1798472-.4595121-.520563-.4948424-.9126215-.3901048-.6045216.1614816-1.2159713.3110605-1.801186.5283996-2.6004946.9657701-5.1928025,1.9536161-7.7875729,2.9347475-.1095807.0414321-.2143894.0954617-.3214199.1436194,3.6784284-1.1108616,7.26261-2.5657062,11.2756361-2.6053651Z" stroke-width="0"/>
      <path d="m64.9238338,47.8449218c1.8034298-1.2847055,3.5219159-1.3104042,5.0399345.6141312.031609-.0406221.063207-.0812443.094816-.1218664,0-.4373596.0508721-.8817677-.0086465-1.3108748-.2841524-2.0487003-1.2263581-3.7634159-2.7673173-5.1293054-.3455754-.3063104-.8031722-.5251818-1.2462669-.6737538-.7376667-.2473555-1.3355885-.6486516-1.801591-1.2638992-.4597967-.6070553-.9147667-1.2183409-1.3940892-1.8097559-.1895991-.2339535-.4391765-.419295-.6614462-.6267726-.0609086.0198377-.1218062.0396754-.1827147.0595131,0,.3920913-.0008975.7841882.000208,1.1762795.0016417.5813621.0464284,1.1663141-.0031303,1.7432107-.0659542.7675956-.4274325,1.3780439-1.2077079,1.6173221-.7827817.2400443-1.5012839.0113499-1.9637512-.621738-.3660424-.5011084-.652143-1.1161863-.7832195-1.7218845-.278472-1.2869054-.1816421-2.5883567.211292-3.8519002.5438429-1.7488036,1.9718942-2.605781,3.7828869-2.2829273,1.3427465.2393767,2.4765214.8710143,3.3665197,1.9000462.4478777.5178268.8153539,1.10453,1.2494957,1.6352937.1358814.1661003.3568158.3179887.5629418.3611664.688524.1442378,1.2500101.4724874,1.7024518,1.0033824,1.0573135,1.2406248,1.9026565,2.6121674,2.4086518,4.1626652.3876477,1.1878593.7457441,2.3926065,1.0022715,3.6139354.2445208,1.1640978.015312,2.324332-.4114639,3.4267278-.4573013,1.1812704-1.4955487,1.4884345-2.5235627.7495693-.45914-.3300062-.8780683-.7181793-1.3003677-1.096573-.3258635-.291989-.6371922-.3031036-.9469667-.0028293-.3535323.3426695-.696667.6962073-1.0400643,1.0491596-.1873554.1925816-.3569581.402987-.5499283.5894723-1.0464781,1.0113722-2.4133144.7327634-2.8118413-.6616487-.7057732-2.4694892-1.3508895-4.9629862-1.2097218-7.5721218.0174791-.3230726.069577-.657205.1799238-.9590499.1397121-.3821807.4643936-.550979.8673314-.4408127.3856557.1054326.5437444.3824981.4868088.7877343-.0203138.1444458-.0252828.3069781.0197666.4422575.5699465,1.7117604,1.1501485,3.4201116,1.7299455,5.1285885.0078366.0230883.0439439.036578.1085519.0872585Z" stroke-width="0"/>
      <path d="m77.7057118,55.6481569c.0680665-3.4413283-.4148568-6.7959782-1.6271725-10.0260693-.3559621-.948406-.798236-1.8649567-1.214844-2.7898475-.2236597-.4965662-.1817844-.9907683.1497924-1.3332408.3391507-.3502817.8558611-.4805155,1.3163911-.2211807.367903.2071821.7115521.4970423.9902649.8162951,1.337482,1.5320446,2.2322742,3.3122492,2.835351,5.244271.9703998,3.1088048,1.6638052,6.2710755,1.6291754,9.5462105-.0386466,3.6558819-.6552732,7.1975314-2.3220336,10.4966413-.2545245.5037735-.5560465.9919504-.8950111,1.4428379-.4187094.5569768-.9952886.9012169-1.7075521.9603524-1.2915023.1072166-2.2525989-.9575395-1.9954367-2.2273052.061215-.3022334.1713867-.611592.3305808-.8743471,1.8482821-3.0506379,2.4588562-6.4108971,2.5097611-9.9141737.0054177-.3734083.0007333-.746959.0007333-1.1204439Z" stroke-width="0"/>
    </g>
  </g>
</svg>