<?xml version="1.0" encoding="UTF-8"?>
<svg id="Layer_2" data-name="Layer 2" xmlns="http://www.w3.org/2000/svg" viewBox="0 0 94.8077811 54.4822794">
  <g id="Layer_1-2" data-name="Layer 1">
    <g>
      <path d="m80.480311,20.0306808c-.4990181-.0208408-.8895024-.0383581-1.2800889-.0527613-.1230479-.0045365-.2503366-.0208411-.3690234.0023358-1.7430429.3403715-3.4957255.2583779-5.2489842.1228075-4.4426392-.3435034-8.8903217-.6343867-13.3259993-1.0521906-5.1194392-.4822077-10.2296463-1.0646232-15.3410183-1.6292805-2.9861488-.3298803-5.9725822-.6676042-8.9484805-1.0773999-4.6816637-.6446734-9.3503378-1.3840914-14.0329905-2.0210299-2.2285998-.3031385-4.4770086-.459978-6.7157854-.6895699-.390693-.040068-.7906281-.0692411-1.1646359-.1779579-1.1305389-.3286175-1.4917912-1.505826-.7787059-2.4390813.0644299-.0843274.1231958-.2376054.0900029-.3213885-.213452-.5387465-.0536276-1.0248099.195872-1.4888284.4804789-.8935983,1.1357995-1.6575372,1.9227608-2.2847926.8347416-.6653336,1.7091392-1.284019,2.5919652-1.8852629,1.7476896-1.1902673,3.46657-2.4296243,5.4055078-3.309947,1.4674147-.6662582,2.945221-1.3158954,4.5385778-1.6046844.664825-.1204901,1.3601879-.073498,2.0418034-.0990603.0890722-.0033308.1796815.0268224.2683567.0213985,2.8439992-.1740487,5.6629039.21156,8.4883341.4053051,5.119159.3510161,10.2351161.7511375,15.3502015,1.1585214,7.4610495.5942214,14.9034072,1.3643567,22.3177351,2.4003113,2.9530964.4126119,5.9180419.7400545,8.8725858,1.1429599.9558671.1303458,1.8973142.3705773,2.8425301.5737.7588928.1630738,1.5206376.3202734,2.2681589.5269396.8547395.2363051,1.7088728.4880181,2.5377642.8006729.7664407.2891054.933681.6585178.8419432,1.4679851-.0080698.0712773.0571739.1853238.1218481.2252015.8463369.5218751,1.0758222,1.2868177.5745635,2.1523942-.2218938.3831757-.5171834.7414824-.8410509,1.045033-1.8277803,1.7131606-3.8447135,3.1902306-5.9075887,4.6006045-1.4778227,1.0103876-3.0178003,1.931881-4.681924,2.6067999-.8818051.3576334-1.8072606.6076474-2.6342353.8802651ZM18.8844805,10.7841821c.0060828.0290938.0121644.0581795.018242.0872657.1056133.0174281.2107626.0385743.3169036.0517191,2.869678.3553626,5.7433404.6813444,8.6083291,1.0711173,4.5929403.6248656,9.1572301,1.4405071,13.7670361,1.9630413,8.5983182.974626,17.1895406,2.0059048,25.8298265,2.556765,2.5821708.1646183,5.1593104.4070018,7.7397593.6003075,1.614324.1209302,3.2304212.218553,4.8461543.3196398.1045549.0065428.2260179-.0239864.3174693-.0761327,1.632328-.9305542,3.2614707-1.8666795,4.8902987-2.8033707.1097279-.0631025.2114281-.1401823.3168672-.2107572-.0092051-.0243068-.0184009-.0486065-.027606-.0729133-.7787452-.0037511-1.5574893-.0074941-2.3534945-.0113279.3305041.4949167.2803438.6607668-.2713744.8894021-.7944981.3292276-1.6356307.4353498-2.4819604.3953582-1.7184335-.0812279-3.4347329-.2075318-5.1519579-.3146204-3.2336611-.2016637-6.4686097-.3847218-9.7006814-.6092532-3.4230659-.2377954-6.8416588-.5416703-10.2655732-.7650903-2.1772749-.1420758-4.3667083-.116486-6.5402261-.294131-6.6948431-.5471915-13.386913-1.1316698-20.0752924-1.752964-2.608941-.2423537-5.2063424-.6124569-7.8057238-.9496577-.3181296-.0412682-.6152778-.2412328-.9234641-.3643633-.0780368-.0311817-.1766901-.0906475-.2392372-.0669087-.2767334.1049754-.5437563.2355552-.8142947.3568744Zm73.1165028-1.4215613c-.0092687-.0302921-.0185363-.0605761-.027805-.0908683-.1630998-.020899-.3275447-.0344989-.4890218-.0642045-.3359366-.061821-.6626863-.1374392-.8187944.3081556-.0355127.1013651-.1642994.2030912-.272316.2403007-.4733103.1630643-.9484631.3974771-1.4346407.4297235-.8830853.0585924-1.778291.0393394-2.6617087-.0314242-2.7702211-.2219081-5.5342441-.5275023-8.3063547-.7180492-3.8613962-.2654492-7.7280344-.4543693-11.5922447-.6792678-5.0453248-.293634-10.0839922-.6874902-15.0971343-1.3234722-4.0537669-.5142641-8.1123462-.9601684-12.1852947-1.2749293-3.1298179-.24188-6.2643491-.4252473-9.3918534-.6923837-.5963613-.0509329-.9101552.2064924-1.2847239.5914293.1126517.0222652.1845517.0456994.2574912.0495794,3.685135.1959938,7.3717271.367624,11.0553081.5892824,9.4093834.5662075,18.755094,1.7124442,28.0762776,3.091225,3.8393039.5679044,7.6916949,1.0481425,11.5400259,1.5538558,2.107364.2769355,4.2194162.5180144,6.3277373.7879922.6045178.0774044,1.2129744.1939741,1.6921682.606863.1845937.1590492.2916855.1346704.4537629.0049306,1.1504361-.9209611,2.3064662-1.8349604,3.456216-2.7567883.2438077-.1954602.469089-.4140315.7029051-.62195Zm-22.1693879,3.3225302c.0039758-.0214574.0079423-.0429219.0119099-.0643783-.0761684-.0139094-.151922-.0309568-.2285847-.0412522-3.0327176-.4076258-6.0576599-.8906471-9.0999965-1.2052885-5.6282288-.5820722-11.2680101-1.0514811-16.9004654-1.5938912-5.9795866-.5758327-11.9561295-1.183293-17.934718-1.7695719-.2266707-.0222235-.4797214-.017116-.6877698.0616512-.461773.1748477-.9035971.4028223-1.3513317.6138591-.0701733.033077-.1286791.0909219-.260069.1863113.2334613.0241001.3764174.0454994.520082.0527244,3.9990331.2011191,7.9810976.626808,11.9837103.8174527,4.4020381.2096674,8.7972073.6315016,13.1842275,1.0718528,5.8537109.5875833,11.6968131,1.2798431,17.5724425,1.6303584,1.0645018.0635034,2.127093.1592934,3.1905629.240172Zm-4.0269771-6.8441355c.0015418-.014158.0030847-.0283078.0046195-.0424565-.1062257-.0153617-.2120158-.0352357-.3187353-.0454457-3.0465631-.2914056-6.0897631-.6262349-9.1405222-.8638754-8.3011805-.6466325-16.6056874-1.2504861-24.9082272-1.8797673-.3252583-.0246545-.4399018.1353179-.5438965.442765.4258553.0127835.8255207.0366547,1.2250674.0349126,3.389745-.0147071,6.7737318.1188812,10.1419055.5010381,6.7873454.7700834,13.5780429,1.4861456,20.4120274,1.6915665,1.0432535.0313528,2.0852086.1064094,3.1277614.1612626ZM28.3215201,2.7321197c-.4339859-.2305973-.782605-.3333309-1.2292417-.1731625-1.2532861.4494368-2.4903101.9434356-3.5903844,1.6893263-1.7380175,1.1784435-3.4282767,2.4273535-5.1374609,3.6482334-.0439781.0314238-.0729548.0838484-.1650146.1929593,3.5185864-1.6101339,7.0271452-3.0407259,10.1221016-5.3573565Z" stroke-width="0"/>
      <path d="m78.7422957,43.2044139c.0013919.0461719-.0068261.0748314.003976.0888552.6629306.861772.4353685,1.688565-.1096126,2.4921113-.4924007.7260306-1.1212411,1.3255202-1.845836,1.8106258-1.5108662,1.0114768-3.1320009,1.8176268-4.8243715,2.4764433-.4840508.1884358-.9910134.2877694-1.5185701.1109823-.0912638-.0305835-.2537032.0550866-.3441058.1326795-1.1098495.9526829-2.2107344,1.9158089-3.3178373,2.8717133-.340475.293977-.6727803.6045564-1.0461808.8509351-.2841938.1875206-.6155696.342656-.9468793.411507-.6907871.1435562-1.3411894-.2080052-1.6282338-.8080598-.2838536-.5933537-.1613303-1.2945341.3735136-1.7516461,1.8384986-1.5713187,3.6923332-3.1246894,5.5406478-4.6845161.0922928-.0778887.1875833-.1522228.2642004-.3124738-1.3898492.0199344-2.7796902.0398677-4.2015258.0602633.0701992.0646507.1289121.1222248.19124.1755712.6034325.5164396.4899422,1.3879202-.2382468,1.711819-.2111997.0939409-.4526713.1409358-.6847389.1634687-1.9604627.1903471-3.9089694.1049949-5.8484891-.2485876-2.9883866-.5447945-5.9786886-1.0792937-8.9704922-1.6049813-.5739329-.1008473-1.1585463-.1409344-1.7485409-.160782.0729099.0189594.1448567.0436801.2188696.0560369,3.2520997.5431467,6.4795037,1.2114147,9.7040221,1.8963889.7472131.1587282,1.5164579.2122127,2.2661331.361493.4013708.0799321.8213585.1975402,1.165575.4082122.9431056.5772051.8950427,1.7498076-.0634545,2.3038007-.5092933.2943673-1.0738465.3680188-1.6358292.2815863-1.4780973-.2273233-2.9701139-.4108931-4.4209112-.7600936-4.0023725-.9633718-8.0580224-1.5651632-12.1418476-2.0428602-4.7723795-.5582405-9.5387684-1.1723625-14.300336-1.8170673-5.5309338-.7488783-11.0540302-1.5557528-16.5801094-2.3404221-3.0077763-.4270843-6.0164792-.8484618-9.019892-1.3045189-.4156596-.0631145-.9191766-.2080517-1.1772842-.4976119-.4142305-.4647072-.8565637-.8703907-1.3263366-1.2743465-.5708715-.4908895-.6077439-1.204639-.4508743-1.9093474.2272048-1.020675.7820037-1.8645483,1.5028227-2.5967179,2.6399189-2.6814995,5.6626128-4.7759281,9.2156587-6.0922593,2.1284525-.7885584,4.2960299-1.4159802,6.5233157-1.8271512.6682166-.123367,1.3654128-.1066978,2.0499496-.1185247.4350526-.0075159.7796242.1826227.9572609.6171697.0313756.0767457.1340794.1547296.217792.1752557,1.9556078.4794759,3.9042479.9928771,5.8729723,1.4116916,1.7484768.3719639,3.5298295.589121,5.2788125.9590323,4.8039976,1.0160363,9.6416997,1.8392178,14.5127545,2.4304736,3.024848.3671595,6.0753121.523409,9.1143277.7737245,6.0959721.5021132,12.1602261,1.2342103,18.1272953,2.6170036,1.8845276.4367156,3.7442457.9809023,5.6134418,1.4828527.2156643.0579169.4289939.1421112.6267178.2459089.6194184.3251537.927715.9658251.7906882,1.6047119-.1332085.6210119-.6675301,1.074789-1.3470876,1.1417065-.1312921.012929-.2632894.0188379-.3943639.0279437Zm-67.741906-3.4896974c1.2049703.2351584,2.3122341.4936577,3.4330165.6623272,3.9694997.5973727,7.9411757,1.1815191,11.9166534,1.7375969,4.2206979.5903739,8.439695,1.2031106,12.6724089,1.6943235,3.7756993.4381785,7.577018.655791,11.3525381,1.0952439,4.0773563.4745857,8.1378518,1.0940102,12.2058943,1.6488758.2803395.0382364.5622493.0649629.8434344.0970458.0063025-.0371224.0126056-.0742406.0189087-.1113589-1.0337437-.2073028-2.0615558-.4525983-3.1023162-.6149755-3.4896201-.5444485-6.9895712-1.0243-10.4750978-1.5930393-6.483535-1.0579282-12.9512312-2.2152818-19.4415186-3.2288093-5.5482507-.8664195-11.0568229-1.9230002-16.5477843-3.0859952-.142761-.0302364-.3356353.0227489-.4639111.102903-.72501.4530425-1.4376976.9258216-2.1536349,1.3933331-.063019.0411535-.1192129.0927581-.2585914.2025289Zm61.7489957,4.9662665c-.1303016-.0484163-.1688989-.070916-.2098843-.0768158-1.9820711-.2853059-3.9616354-.5899413-5.9472402-.8482819-2.8562305-.3716177-5.7221581-.6717507-8.5741451-1.0722259-2.8739522-.403562-5.7313605-.9243602-8.6043532-1.3355328-3.2515834-.465359-6.527431-.7755641-9.7662141-1.3130277-7.217881-1.1977804-14.3343339-2.8830939-21.4231407-4.6827025-.3127999-.0794154-.5522165-.0607356-.8180101.1193998-.623922.4228484-1.265081.8202275-1.8978108,1.2301643-.0801152.0519021-.1515103.1172717-.2732242.2126911.1573136.0321758.2534521.0562979.3510025.071142,2.4907131.3790506,4.9757974.8016491,7.4736662,1.1256267,4.4625323.5787948,8.9397397,1.0471721,13.397838,1.6566199,4.3136325.5897038,8.610752,1.3000771,12.9154267,1.9554129,6.7288974,1.0243888,13.459038,2.0406645,20.185552,3.080443.670222.103598,1.3184011.3482076,1.9785568.5207075.078266.020449.186412.0291641.2486341-.0089929.3041262-.1865137.5973838-.3907585.9633465-.6346276Zm-53.2376241-10.446625c.1594782.0393593.2729922.0729509.3886994.0950597.9941462.1899917,1.989359.3744744,2.9830092.567012,5.9072556,1.1446433,11.8065358,2.328152,17.7707037,3.1594849,6.149971.8572219,12.2988882,1.7128602,18.4726192,2.3899926,3.902072.4279801,7.7878208,1.0148072,11.7267416.9969224.1206494-.0005467.2412762-.0064439.3619118-.0098443-.187156-.1173299-.3717734-.1592841-.5573242-.1965905-5.1148386-1.0283676-10.2842175-1.6508902-15.4797424-2.0780497-3.0608576-.251656-6.1338433-.4031264-9.1800778-.7743873-4.7014354-.5729921-9.3779717-1.3293642-14.0162698-2.3119921-1.9906238-.4217144-4.016113-.6784168-6.0076958-1.0962242-1.672086-.3507847-3.3269931-.794814-4.9709539-1.2627285-.6533138-.1859506-1.0317439.1220368-1.4916212.521345Zm-15.632817,6.3330109c.2447996-.2920734.4373869-.6020325.7049845-.8198274.3015104-.2454032.666232-.4157284,1.0110661-.6048353,1.1729982-.6432759,2.3866329-1.221165,3.5168227-1.9320184,2.5136799-1.5810309,4.9863078-3.2273365,7.4750555-4.8479735.0510356-.0332313.0945545-.0779958.1666285-.1383537-1.7875832-.0141095-6.8391574,2.2836551-9.6947952,4.4335861-1.4751479,1.1106013-2.8009243,2.3911468-4.1239033,3.7643004.408277.0627571.7008924.1077347.9441413.1451218Zm3.7599539,1.0079752c.0082239.0286989.0164499.0573976.0246733.0860925,11.5913319,1.5285032,23.1444368,3.3417007,34.7638426,4.6626609-.8386024-.15717-1.6792367-.3059623-2.5260732-.3972412-3.8925449-.4195721-7.7530157-1.0635799-11.626817-1.6161364-3.9987555-.5703743-7.9898963-1.1681659-11.9414663-2.0109202-1.9018243-.4056033-3.8471764-.6652433-5.6524594-1.4168065-.7529999-.3134815-1.3568381-.3256637-2.010054.1531628-.3093869.2267883-.6856697.3623147-1.0316461.5391881Z" stroke-width="0"/>
    </g>
  </g>
</svg>