<?xml version="1.0" encoding="UTF-8"?>
<svg id="Layer_2" data-name="Layer 2" xmlns="http://www.w3.org/2000/svg" viewBox="0 0 148.2475064 171.4925106">
  <g id="Layer_1-2" data-name="Layer 1">
    <g>
      <path d="m66.6178249,31.7854697c-.1246165-.0339407-.2097344-.0671408-.2976727-.0794917-.7381732-.103699-1.037413-.5730742-.8786291-1.3083213.6843288-3.1686879,1.9045313-6.1122172,3.6020232-8.8591084,3.0184367-4.884452,6.2056418-9.6476082,9.9555183-14.0018163,2.239117-2.5999569,4.7959396-4.8284475,7.783751-6.5196108.6655719-.3767317,1.3892521-.7016955,2.1271753-.8862683,1.4763384-.3692678,2.8193353.0479083,3.819673,1.1895679.8798676,1.0041701,1.6068952,2.14363,2.4091262,3.2175121.5213332.6978977,1.0185628,1.4195856,1.5957807,2.068154.6138179.6897018,1.4287832.985337,2.3556238.8849139.7663631-.0830342,1.35819.1571619,1.731081.8703183.0563668.1077758.1589094.2109323.2653122.2694021.9213553.5062761,1.4577785,1.3221548,1.7652693,2.2911186.5543153,1.7467626,1.1302923,3.4900548,1.5903824,5.2625989.630279,2.4281873.2355902,4.7723366-.8724206,6.9809352-.2664703.5311611-.685463,1.0619553-1.1703724,1.3882621-1.1888335.7999822-2.0316647,1.919103-2.9810231,2.9479968-2.3394612,2.5354546-4.499524,5.2460751-7.1487865,7.4809371-.3814736.3218014-.7692223.6360431-1.1517911.9565432-.0187807.0157324-.0156185.0579967-.0368158.1477757.9272652-.055901,1.8443337-.0507245,2.7427382-.1770194,2.4152785-.3395275,4.8059187-.1842312,7.2101382.163699,2.0058476.2902789,4.0371675.3965023,6.0440357.6809465,1.1099239.1573152,2.1939685.5084044,3.2875518.7809004,1.9697462.4908001,3.9621791.9068083,5.9013991,1.5006037,3.4982095,1.0711773,6.9781255,2.2091972,10.4352872,3.4089845,1.06578.3698781,2.0380471,1.0213186,3.0426062,1.563695.468.2526815.9026963.5676217,1.3665812.8288029,2.1510095,1.2110484,3.6310875,3.0220989,4.6380821,5.2525818.2512149.5564301.29199,1.1261126-.0543258,1.6757303-.0567145.0900177-.0673617.2118155-.090437.3208582-.200006.9457306-.3249834,1.9153739-.6127023,2.8327562-.5057177,1.6124451-.8847617,3.2441916-1.1197486,4.9184947-.1076747.7671765-.3093087,1.5224212-.4963462,2.2759306-.6276024,2.5283251-2.38288,3.7686761-4.8067032,4.2363714-1.3903556.2682819-2.7608309.1192411-4.1095212-.2530772-2.0813712-.5745776-4.1700995-1.1301089-6.2253461-1.7905611-1.3302093-.4274557-2.6581369-.9259529-3.8964159-1.5703476-3.1151071-1.6210789-6.3603407-2.9266894-9.6014678-4.2478011-2.5843023-1.0533881-5.1627675-2.122914-7.7651654-3.1287884-1.1256797-.4350989-2.3068124-.7224836-3.4596737-1.0869241-1.3214668-.4177346-2.6476879-.8224175-3.9568956-1.2768705-1.484779-.5154011-3.0323897-.553952-4.5660057-.733249-2.2056041-.2578604-4.4040696-.5796964-6.6053391-.8761142-1.1486231-.1546722-2.3019922-.2818921-3.4434844-.4796893-1.0128264-.1755058-2.0169948-.4118414-3.0145794-.6637187-.3001132-.0757751-.4412124.0149884-.599808.230019-.7905052,1.071746-1.7351179,1.9616047-3.0087653,2.4155789-.4034407.1438072-.8384488.2483977-1.2640825.2682494-.6897775.0321753-1.2494232-.3594955-1.4418175-.9359136-.2156159-.6459787-.0282102-1.2117367.4815926-1.611146.6197844-.4855757,1.2993788-.8929901,1.9424933-1.3493519,2.4930225-1.7690579,3.7834375-4.139701,3.3970828-7.2612817-.336284-2.716946-1.6284124-4.9976823-3.4337199-7.0018965-.1027996-.1141359-.4180567-.2033246-.5076014-.1352084-1.5038931,1.1439847-3.2893668,1.4135221-5.0751411,1.6861893-.4414348.0673986-.8860332.1142341-1.3815453.1771718.1270167.774523.2024454,1.516641.3742225,2.2357136,1.0324444,4.3218981,1.8850353,8.6898917,3.2916503,12.9170137.1833462.551002.316974,1.1274812.3954662,1.702723.1275194.9344898-.2587699,1.5773878-1.0848378,2.021747-.1873814.1007927-.355414.2732096-.4808234.4498682-2.2949886,3.2328274-3.8406051,6.8788469-5.600534,10.4059617-.2358105.4725998-.4108674.9920425-.5211097,1.5101684-1.0042909,4.7198803-2.1569046,9.4159834-2.9264191,14.175939-.6655572,4.1169149-1.2508052,8.2655544-1.3772385,12.4596354-.0521891,1.7313722-.2014069,3.4677893-.4395183,5.1827198-.4777799,3.4411258-.2261187,6.8663541.163041,10.2844114.2400172,2.1081334.6583868,4.1960664.9870131,6.2945591.2050002,1.3090825.179032,2.6194906-.0335246,3.9237529-.0490799.3011649-.1177807.610751-.2443307.8849449-.4026229.8723375-1.4619727.9798279-2.0528984.2189534-.1176419-.1514646-.219899-.3257387-.28602-.5054989-1.2294065-3.3423622-2.2096596-6.7595527-2.7292917-10.2828235-.7057529-4.785241-.5461526-9.5713454.1664374-14.3456371.2486803-1.6661345.361685-3.3536712.6236141-5.0172467.2035905-1.2930578.5289274-2.5672382.8243538-3.8440573.320998-1.3873241.6634242-2.7696673,1.0085048-4.1511104.3842595-1.5383032.7808576-3.0734392,1.1745282-4.609318.1487126-.5801898.3532837-1.1503783.4483932-1.7391796.4609704-2.8538175,1.2907714-5.6149575,1.9821301-8.4119013.4095265-1.6567972,1.0355423-3.1831578,1.8900191-4.6502428,1.3171038-2.2614074,2.5430085-4.576754,3.829728-6.8564914.3804573-.6740724.8425019-1.3008297,1.2495443-1.9603416.0715772-.1159798.1137749-.3073138.0711434-.4292335-.3580509-1.0240825-.7387755-2.0401913-1.1137262-3.0583076-.0275876-.0749183-.0634103-.1467821-.1197494-.2758389-.2555231.2014859-.4693042.4245085-.7276145.5644658-1.228087.6653928-2.4347828,1.3857021-3.7113692,1.9424326-2.4617009,1.073558-4.9396882,2.1208659-7.460881,3.0412907-1.5960405.5826745-3.2767781.9391825-4.9318996,1.3467712-.4594264.1131371-.5977281.2915969-.7063699.762887-.420012,1.821964-.9834546,3.6355173-2.1605907,5.0973929-1.3933668,1.7303998-2.9146034,3.3651865-4.4729037,4.949046-1.6323515,1.6591242-3.5989924,2.8410533-5.7359717,3.7724898-1.5447998.673322-3.0155842,1.5175957-4.5214139,2.2815715-.4154559.2107824-.832344.4205416-1.2586984.6074806-1.5750351.6906151-3.0099377,1.6202049-4.3128579,2.7274965-2.1969216,1.8670522-4.3351859,3.8039402-6.5064425,5.7018006-.9215367.8055011-1.8741924,1.5749453-2.7943326,2.382013-.949292.8326286-2.0751595,1.045584-3.2827298,1.0083122-.2411102-.0074423-.4838601-.0608032-.7222731-.0439593-1.468095.103742-2.0241501-.9211071-2.5118815-2.0385117-.2002563-.4587961-.3561143-.9460963-.6161641-1.368064-1.1892754-1.9297741-2.0372866-4.0116401-2.825377-6.1276183-.2062002-.5536306-.5397168-1.0689457-.870184-1.5644391-.5582948-.8370893-.4953634-1.4628949.2168978-2.1486816.8241927-.7935539,1.7531912-1.4325127,2.7935947-1.8766864,2.7396805-1.1696466,5.0739431-2.9286958,7.1674283-5.0107972,2.2280641-2.2159505,4.4908545-4.4039641,6.3588173-6.9611576.5483406-.75066,1.2242327-1.4065495,1.8776389-2.1466249-.1380895-.0304053-.2873962-.0524021-.4301028-.0963635-1.6142967-.4973099-3.2558401-.9218449-4.8326632-1.5205889-1.392512-.5287587-2.5018479-1.547224-3.4645657-2.6731655-.8570947-1.002415-1.320238-2.2008897-1.4070009-3.5425679-.0877105-1.3563221-.239511-2.7086395-.3289954-4.0648845-.0283737-.4300632.0136537-.8746142.0917056-1.2995854.2574436-1.4017246.5155099-2.8046633.8303647-4.1938292.4150644-1.8312991.8940771-3.6475665,1.3278701-5.4746275.8399215-3.5376085,3.7389915-5.0687093,6.7561333-5.4453768,2.940875-.3671463,5.7535886.110322,8.4628723,1.4032171,1.2410069.5922223,2.5970142.9671294,3.9309591,1.3255143,2.2988543.6176255,4.4235681,1.5694598,6.3901897,2.9284045,2.8492056,1.9688123,5.9371932,3.4643918,9.2179249,4.5525982,1.0671424.3539741,2.1485202.5426402,3.2788638.4382165,1.5983128-.1476522,3.2046664-.2189878,4.7986959-.4000447,1.0653596-.1210072,2.0356955-.573024,2.9501077-1.1415209.5188308-.3225555,1.0585712-.6133502,1.6022062-.8922398.2407988-.1235308.341172-.2669037.2644384-.5334001-.0311023-.1080114-.0360124-.2239682-.0491523-.3367377-.2176354-1.8676683.8110335-3.1504521,2.6717925-3.3770125.9569003-.1165123,1.9086113-.2785207,2.8598131-.4369761,1.129923-.1882321,2.0386447-.7974843,2.9081987-1.5888474Zm6.4928414,16.2716092c.6223496.1127908,1.1542681.2405277,1.6933911.3009977,1.5825696.1775084,3.1683951.3244427,4.752227.490444,2.271772.2381044,4.5387801.5485026,6.8157666.7011746,1.5409183.1033198,3.033455.3501532,4.4984086.8207374,3.91222,1.2567282,7.8455725,2.4365119,11.6714562,3.9689419,4.5435522,1.8198877,9.0405807,3.7083768,13.1959658,6.3471784.7557917.4799539,1.587005.8811228,2.4337275,1.1648691,2.1993512.7370478,4.4300912,1.3775396,6.64156,2.0784053,1.2294256.3896274,2.4582346.4776965,3.7105296.1593922.9376672-.238345,1.8778669-.5308045,2.3288605-1.4729348.4083983-.85311.8302153-1.74954.9760393-2.6711533.3555827-2.2472312.8524372-4.4487126,1.5310278-6.615818.4201428-1.3417543.2223706-1.910858-1.100846-2.938879-1.0430125-.8103223-2.2749904-1.2205866-3.5363935-1.5062451-2.1540446-.4878061-4.269973-1.0529616-6.2982196-1.9797199-2.6507172-1.211185-5.4923779-1.8467244-8.2986332-2.5754328-2.1819281-.5665899-4.3329183-1.3333611-6.5476272-1.6735497-3.0473222-.4680897-6.139071-.6553364-9.2169993-.8904912-2.0357807-.1555368-4.0802495-.2000572-6.1216591-.2640131-1.4764227-.0462512-2.9547183-.0727226-4.4312002-.0515978-1.0925563.0156314-2.1832244.1747456-3.2752612.1773054-2.4282762.0056933-4.8569439-.0410436-7.2853131-.0782842-.9731488-.014925-1.9459187-.061102-2.9539027-.0942075.2287237,2.2833352-.0585338,4.4686131-1.1829048,6.6028805Zm-62.4670839.0360999c.4892289-.2831382.8793188-.5359234,1.2920655-.743134,1.8697727-.9386699,3.8680141-1.4728142,5.8991177-1.9337188,1.5685707-.3559427,3.0122238-.1536251,4.4532587.5413178,1.4207035.6851449,2.8821898,1.2857149,4.3361638,1.8982128,1.3963367.5882091,2.8771885,1.0132086,4.1939559,1.7433314,2.272634,1.2601384,4.682724,2.0773856,7.1657973,2.7340991,1.7484628.4624239,3.5018195.8772229,5.3325682.7277697,2.9631164-.2418886,5.8669679-.829551,8.7187986-1.6284813,2.205305-.6178162,4.2360175-1.6181101,5.7829956-3.4172699.3979957-.4628819.8599134-.8747812,1.3233856-1.2736732.2562006-.2205005.3062908-.4368095.2571997-.7609351-.2234098-1.4752496-.4185798-2.9547365-.624829-4.4325749-.0620976-.4449502-.1271582-.8894883-.1902793-1.3301517-.0778164.003936-.1167911-.0060741-.1384609.0090349-.1053335.0734544-.2007566.1621531-.3091886.2301138-1.1426909.7162198-2.2432857,1.5172545-3.4415894,2.1228461-1.7600232.8894792-3.7236828,1.0876462-5.6447058,1.4080847-1.9061794.3179612-3.7115161-.0300622-5.477764-.7548731-3.10634-1.2747464-6.0251276-2.8941068-8.7155359-4.9104144-1.7865922-1.3389527-3.7367184-2.2664024-5.8771531-2.8718973-1.4986521-.423946-2.9861663-.9423135-4.4074977-1.5803986-2.2154519-.9945942-4.5141642-1.302484-6.8874869-1.1399445-2.2999312.157515-4.0025678,1.2417382-4.5820264,3.7068051-.3259985,1.3868142-.7246866,2.7562681-1.0404256,4.1452895-.4735046,2.0830856-.9119047,4.1745767-1.342831,6.2672516-.0788519.382917-.0509372.7885024-.075533,1.2433103Zm64.3167356-8.5838686c-.0640258-.1984754-.1071491-.4006891-.192144-.5832301-.297304-.6384947-.199059-1.1617188.363455-1.5860868.2803484-.2115002.5946457-.389687.9159731-.531916,2.1316929-.9435644,4.1301687-2.1145259,5.9083388-3.6272577,3.919764-3.3346263,7.4554589-7.0337462,10.3841875-11.2970263,1.9401203-2.8241785,3.8280403-5.6823918,5.3426205-8.7679207.418458-.8524819.749584-1.7554284,1.0452524-2.6604965.2209935-.6765282-.0024991-.9835457-.6804437-1.1279734-1.1347156-.2417364-2.1521996-.721338-2.9145796-1.6139529-.5960852-.6979148-1.1025402-1.4726846-1.6656314-2.2001132-.6709991-.8667935-1.3036486-1.77408-2.0570451-2.5629082-.7485513-.7837614-1.4957295-.8457481-2.4089721-.27468-.8288997.5183297-1.645938,1.0820336-2.3735725,1.7330207-2.0537462,1.8374525-3.7484699,4.0130504-5.3384676,6.2460266-3.8879514,5.460203-7.5646964,11.0650291-10.9542172,16.8584251-.834468,1.4262873-1.4891131,2.9911863-2.9264074,4.0839053,1.5709373.0422315,2.4826062,1.0296702,3.3378465,2.0891567,1.2523771,1.5514416,2.1914953,3.2845802,2.8815775,5.154682.2946749.7985456.3964776.8620244,1.3322294.6683456ZM6.6467733,83.5032556c.8514076-.7646811,1.6910632-1.5141978,2.52553-2.2695328.8832371-.7994839,1.8448253-1.5301886,2.6268739-2.4205913,2.6856295-3.0577441,5.8222288-5.5055706,9.4363436-7.341049.6161177-.3129019,1.2353107-.6270895,1.8763167-.8817592,2.2297275-.8858518,4.4060962-1.8645984,6.4770448-3.0996981,2.5780286-1.5375138,5.0550218-3.2057369,7.3458777-5.149584,1.1074672-.9397167,2.1692838-1.9212717,2.7105931-3.3606664-.0935079-.0084564-.1714192-.0224522-.2491058-.0215171-2.3143689.0278056-4.6293891.1101847-6.9428924.0723443-2.7332145-.0447022-5.4650524-.1948712-8.1977142-.2922237-.1697504-.0060473-.3743472-.0015594-.5072121.0846256-1.4328261.9295098-2.8254817,1.8765852-3.7091825,3.4432056-.9658571,1.7122708-2.268033,3.180856-3.7125967,4.5038571-1.426184,1.3061736-2.8848897,2.5768271-4.3445482,3.8453114-2.3000151,1.9987757-4.8578406,3.5465842-7.7793029,4.4557114-.4669988.1453249-.9100203.3680727-1.3734355.5588639,1.3663301,2.6394491,1.9950911,5.5440411,3.8174104,7.8727024Zm40.2276937-28.5759312c-.0075987-.0413361-.0151974-.0826722-.0228018-.1240071-.284793.0277099-.5689781.0683497-.8544842.0809534-1.4435232.0637284-2.8960839.2520977-4.3293023.1513045-2.8607348-.2011929-5.596335-1.0655413-8.2769758-2.0452833-1.4776185-.5400415-2.8410158-1.3976899-4.3153798-1.949592-2.7423664-1.0265595-5.5270635-1.9377222-8.2969097-2.8886595-.6273323-.2153728-1.2643605-.1952104-1.9018438-.0174442-1.4251901.3974283-2.8441412.822315-4.2820824,1.1673815-1.3569697.3256319-2.5761129.8692339-3.6244213,1.8135765-.703825.6340292-.7297049.6078501-.1204765,1.3516918.0716531.0874857.1449563.175326.2279756.2513799,1.2977033,1.188833,2.7598945,2.1386424,4.4807965,2.4841765,3.4868043.7001045,6.9991489,1.2568903,10.5579967,1.4310943,1.0602654.0518987,2.120207.1134551,3.1795743.1825033,3.7009129.2412213,7.3956039.3229502,11.0500274-.4546311,2.179183-.4636818,4.3524022-.9553542,6.5283072-1.4344446ZM100.895373,11.9384114l-.1343855.0320122c-.0585681.1625105-.1109763.3276166-.176674.4871288-.5657264,1.3735594-1.045101,2.7928023-1.7233162,4.1073305-.8800223,1.7056536-1.9292571,3.3216526-2.8874134,4.9869324-2.4435195,4.2468492-5.5480091,7.9343736-9.3131919,11.0366693-2.0815267,1.715063-4.2542905,3.3181538-6.3937259,4.9614425-.3831745.2943144-.8044114.5384144-1.2778779.8519247.1703787.0211114.248314.0380256.3264624.03938,1.595692.0276206,3.1165486-.3478746,4.5851882-.9229757.8806331-.3448482,1.7113451-.8160531,2.5830888-1.186337,1.2199169-.5181744,2.2851554-1.2402615,3.1511571-2.2517358.5119726-.5979722.9889536-1.2302664,1.53732-1.7919892,1.7445117-1.7869936,3.5279273-3.5354368,5.2715944-5.3232514,1.4177751-1.4536784,2.7727767-2.9641962,4.5874493-3.9641179.3842822-.2117434.7332856-.6827158.872731-1.1097883.3237815-.9916694.6022265-2.0173911.7314942-3.0511465.2406302-1.924407-.4286208-3.7118767-1.0634714-5.4844836-.1755963-.4903136-.4482877-.9456238-.6764292-1.4169949Zm28.8714215,35.0763594c.0386812-.0645319.0773637-.129058.116045-.19359-1.1856765-.705177-2.3150972-1.5440071-3.5703343-2.0839734-1.847299-.7946598-3.7952906-1.346341-5.6811062-2.0541228-5.1413639-1.9296632-10.4490557-3.1548342-15.869746-3.9067124-2.1829366-.3027817-4.3683091-.5932745-6.558457-.833041-.8886352-.0972849-1.7948721-.0883508-2.6897497-.051452-2.3923596.0986501-4.7818164.2709483-7.1747724.3449622-.8597305.0265924-1.3915561.5891879-2.0676965.9312961.3239318.0311206.6260997-.0029735.9291751-.0248335,1.1370626-.0820209,2.2773467-.2574566,3.4110643-.2189681,2.2482595.0763343,4.4960565.2337813,6.7381734.4290748,1.9221284.167418,3.8358714.4358251,5.7536267.6569475,2.6409204.3045145,5.2604152.7158617,7.8212371,1.4709641,1.962181.5785755,3.9207908,1.1882935,5.9128337,1.6393133,2.3254331.5264958,4.5854193,1.2464783,6.6941319,2.3314809,1.9881951,1.0230007,4.1479403,1.0893289,6.2355749,1.5626543Zm-89.5731699,15.3273713c-.036461-.026551-.0729205-.0531084-.1093815-.0796593-.1089039.1165926-.2221192.2294189-.3260797.3503322-3.4687997,4.0344609-7.8493652,6.7863695-12.5970688,8.9989569-1.8784976.8754307-3.8370982,1.5766561-5.7214624,2.4403392-2.4673123,1.1308816-4.7598849,2.533307-6.714513,4.4749039-1.724643,1.7131416-3.5484865,3.3246559-5.3176749,4.9927221-.5807735.5475741-1.1275804,1.1316978-1.6899192,1.6991072.7374752.1503788,1.3897222.1530599,1.919641-.3887688.4167696-.4261329.8253551-.8645862,1.2763434-1.2517912,1.6374475-1.405854,3.2652829-2.8251317,4.9467588-4.176274,1.4290497-1.1483091,2.946292-2.1847544,4.3901616-3.3151459,2.2987627-1.7996847,4.9494914-2.991596,7.4678838-4.4075206,1.48218-.8333296,3.105769-1.4121153,4.5896393-2.2428113,2.6685687-1.4939132,4.8158069-3.6465301,6.9060919-5.8487798.3618154-.3811943.6547984-.8287246.9795795-1.2456106Z" stroke-width="0"/>
      <path d="m44.0535187,164.3120732c-.3164272.14697-.6104993.2701434-.8925543.4166765-2.5455391,1.3223085-5.1217283,2.5676167-7.9044422,3.3238263-4.1675115,1.1325233-8.3024502.9613986-12.3419047-.5376796-3.9580769-1.4688664-6.5028094-4.4748295-8.1712864-8.2605646-.6238911-1.4155995-1.1192517-2.9146011-1.4623818-4.4235369-.8350607-3.6722336-1.5048633-7.3755358-1.472137-11.1689019.0395118-4.5800937,1.2220578-8.8771433,3.1285889-12.983977.7409196-1.596017,1.5829458-3.149823,2.4650455-4.6720017,1.6524648-2.8515522,4.1302377-4.8889616,6.7823689-6.7262193,3.7334672-2.5863455,7.8448552-4.340177,12.1979587-5.5745076,2.2450549-.6365867,4.508909-1.0838578,6.8491219-.9864886.8639573.0359518,1.7267956.1805416,2.5831953.3198438,1.2157054.1977516,2.1648478.9619573,3.1626967,1.6086414.2756729.1786595.2026117.4520651.0231201.6807445-.4150823.5287924-.9364189.7829426-1.6318165.7529199-2.9209809-.1261872-5.7982593.2201736-8.5768768,1.1024309-4.8930579,1.5536454-9.4798928,3.7487016-13.6077159,6.8560876-2.0021822,1.5072444-3.5921398,3.347824-4.7916302,5.5660792-1.6557367,3.0619733-2.9837273,6.2397377-3.7139057,9.6622832-.5820363,2.7281998-.606162,5.4792737-.2424774,8.2270047.4792382,3.6207813,1.0687751,7.2233616,2.450461,10.6425579,1.4843322,3.6732151,4.048897,6.1532493,7.8392369,7.3071252,2.4139444.7348676,4.8528065,1.1754845,7.3783928.7180452,2.319179-.4200607,4.4878279-1.2493789,6.5491659-2.3810717,1.1279977-.6192935,2.2443036-1.2628947,3.3943357-1.8380828,1.2205635-.6104563,1.9747553-.2925062,2.5632576.9616594.717825,1.5297525,1.8710019,2.6707109,3.2737913,3.5551623.8146037.5136069,1.7445668.6424436,2.6950475.6320248,5.1368613-.0562688,9.8981461-1.4533179,14.3556737-3.981245,3.2742024-1.8568285,5.7872527-4.4870301,7.5554243-7.7797483,2.160067-4.0225039,3.5659345-8.3172606,3.4559181-12.955871-.0458142-1.9315786-.4474252-3.8603769-.7466352-5.7812499-.6375984-4.0932499-1.9788465-7.9560114-3.8892579-11.6246618-.959277-1.8421541-2.2845518-3.3638668-4.0819128-4.3839687-2.1798055-1.2371574-4.4087998-1.3280926-6.5988075.0237303-.9823204.6063606-1.7906269.6048612-2.4976945-.0054021-.7230337-.6240403-.9286064-1.7103115-.5044632-2.6798007.3121924-.7135875.8571846-1.2037483,1.5183127-1.5734731,1.1885064-.6646701,2.4815008-.9851391,3.8253892-1.0880561,3.1278446-.2395332,5.8621753.7451718,8.2748624,2.7457,1.9305063,1.6007213,3.320787,3.591995,4.4372252,5.829607,2.7596634,5.5310748,4.1263454,11.4427234,4.6274617,17.5426522.4166887,5.0722052-1.0146023,9.8250005-3.0913861,14.3879064-1.7490006,3.8426973-4.2802027,7.0745036-7.6490169,9.593082-2.6133113,1.9537617-5.5350826,3.3442085-8.6117403,4.4023052-2.847497.979298-5.7822521,1.5771478-8.7850862,1.7166275-4.2696165.1983551-7.9347018-2.030982-9.5887159-5.7169618-.1975928-.4403438-.3348903-.9079701-.5322066-1.4512537Z" stroke-width="0"/>
      <path d="m83.972204,137.1320646c-.9704825-5.2991027-1.4584048-9.9124437-1.4763186-14.5590666-.0171283-4.440174,1.3432589-8.4779783,4.0357618-11.9763088,1.8573264-2.4131862,4.2088972-4.2539721,7.1179211-5.2985121,1.2685713-.4555125,2.4853784-1.0693523,3.7715842-1.4591637,1.9536678-.5921068,3.9563391-.705872,5.9549864-.1310907.3228377.0928376.6482836.2079912.9409188.3707589.7065273.3929784,1.0522967,1.0960445.941327,1.8226562-.111888.7325821-.6385276,1.3000657-1.4394853,1.4425655-.9338638.1661287-1.8747345.3225802-2.8194661.3913018-1.4100539.1025658-2.7574597.4435336-4.0996665.8565181-.5948576.1830479-1.2303209.2297233-1.8339283.3892031-.4447621.1175202-.8938598.2693995-1.2959579.4892519-1.7697785.9676363-3.0832928,2.4023015-4.1210438,4.1260423-2.0331463,3.3771634-3.0571113,6.9923789-2.7348487,10.9819395.3004298,3.7193425.5866652,7.4323792,1.2689801,11.1130053.9693127,5.228803,3.4152472,9.6992945,6.7696259,13.7116671,1.5049739,1.800178,3.3708104,3.1875488,5.5724239,4.011918,1.9902579.7452335,4.0014229,1.4598336,6.0491315,2.0143205,2.1203129.5741325,4.2204213.3528039,6.1692025-.7603124,1.9561485-1.1173427,3.9260856-2.2113385,5.8607398-3.3651537.8998789-.5367083,1.7991498-.6441582,2.7732116-.3254796,1.2255043.400926,2.4550515.790338,3.67275,1.2144127,1.645139.572908,3.1238974.2828251,4.6034969-.6095049,3.6939619-2.2277445,6.5339397-5.2459525,8.6209579-9.0249656,2.3261642-4.2120427,4.2118931-8.5908791,5.1677626-13.3446253.5083376-2.5280102.5366703-5.0533945.0410047-7.5870566-.4200388-2.146988-.6254819-4.3619742-1.5747226-6.3604131-1.8862008-3.9709231-4.7357262-6.9611434-8.7886921-8.8016001-5.0950548-2.3136748-10.3274036-2.8468646-15.753879-1.6920279-.4082727.0868876-.8026078.2383919-1.2102368.3292996-1.2211167.2723214-2.2975974-.2704288-2.6840903-1.337212-.3814732-1.0529202.100528-2.1982045,1.2185787-2.7433632.5010983-.2443396,1.0487048-.4201965,1.594336-.5402848,7.6397668-1.6814534,14.8849561-.6055825,21.5561095,3.5569368,4.5576462,2.8437604,7.6177874,6.9737449,9.0167223,12.2158585.7395387,2.7712009,1.2946833,5.5982985,1.3806652,8.4868584.1078673,3.6234616-.7212729,7.0837626-1.8411934,10.4801156-1.6858,5.1124317-4.1362579,9.8043552-7.7351355,13.8257344-2.4423463,2.7290616-5.3284232,4.8608982-8.6992794,6.3007321-1.9725419.8425561-3.9697957.8841452-5.9741119.099731-1.2463157-.4877714-2.4914522-.9809865-3.7186135-1.5151904-.4288775-.1867162-.80067-.206809-1.1869936.0287732-.5218663.3182527-1.0365279.6484514-1.5566208.9696602-1.4513481.8963683-2.8927951,1.8096379-4.3587928,2.681133-1.852863,1.1014648-3.8922416,1.4646651-6.002294,1.2215286-3.8158488-.4396678-7.5019214-1.4157208-10.9688279-3.1226763-2.1169882-1.0423344-3.9044272-2.530387-5.3524326-4.4032853-2.3584674-3.0505283-4.4738144-6.252087-5.6653776-9.9699037-.5191543-1.6198241-.9405548-3.2711383-1.2061892-4.2047254Z" stroke-width="0"/>
      <path d="m108.9574656,105.7296548c.0371692.3043226.1008263.5932725.1017488.8821866.001806.5690993-.3016398.9891733-.7608731,1.1144798-.4355061.1188287-.9494499-.0502285-1.1880368-.5368067-.3690867-.7526695-.7461191-1.5269544-.9423816-2.3352244-.8638011-3.5575261-2.0385962-7.0118466-3.5207412-10.3461913-.8264133-1.8591779-1.899245-3.611796-2.9132111-5.3822246-3.3578364-5.8629144-7.0932212-11.4659601-11.583849-16.5203584-2.708671-3.0487118-5.4940799-6.0291671-8.284206-9.0029798-.7263792-.7741964-1.6267799-1.3796042-2.3988901-2.1141603-1.0535633-1.0023301-2.068188-2.0467539-3.0860489-3.086498-1.3236909-1.3521482-2.6343924-2.717196-3.9500852-4.0772842-.1685621-.1742447-.3517897-.3381597-.4963368-.53106-.2871723-.3832392-.340715-.8021081-.0931669-1.2278121.2300216-.3955594.6860922-.6080284,1.1703778-.45817.3928693.1215742.7989399.2969108,1.1167172.5525707,1.2331532.992122,2.4404132,2.0174751,3.6441142,3.0461521,1.5842702,1.3539226,3.1185614,2.7702646,4.7433449,4.0722243,1.7928674,1.436647,3.2827388,3.1651086,4.8233115,4.8441344,3.8791893,4.2278237,7.515493,8.6624525,10.6181487,13.501391,2.6136229,4.0762257,5.0383056,8.2689419,7.1893423,12.6211801,1.1190922,2.2642746,1.9393213,4.6279765,2.7885954,6.9927977.8379067,2.3331468,1.7779753,4.629306,2.6680789,6.9436829.1335289.3471651.2390181.7051771.3540469,1.0479701Z" stroke-width="0"/>
      <path d="m25.2161141,145.1952205c-.562181-3.078608-.4116888-6.1952873.5558009-9.2770048.7254395-2.3107287,2.1407901-4.1146522,3.9307833-5.6463062.7177528-.614175,1.5173985-1.1399245,2.3199226-1.6408497.3256567-.2032649.7524117-.2893421,1.1435458-.329523.6831812-.0701786,1.2846776.3618185,1.5006407.9915722.1672228.4876272-.001179.809856-.4828023.9578959-.132472.0407163-.274783.1042137-.3711352.1996974-1.1311962,1.1209939-2.1185356,2.3478748-2.7077939,3.8560173-.3532318.9040428-.7133634,1.8058567-1.0411179,2.7194285-.8458861,2.3578147-.9550267,4.7810632-.5535097,7.240839.1279757.7840108.286138,1.563164.4337514,2.343934.2039908,1.0789772-.0942589,1.8546003-.8716027,2.2563997-.7999682.4134983-1.8122365.2035797-2.5081829-.5470707-.7912537-.8534392-1.1010798-1.9274405-1.3483-3.1250295Z" stroke-width="0"/>
      <path d="m52.6549354,126.714244c-1.3956109.2939966-2.624802.3663295-3.8694918.2346255-2.7937849-.2956365-4.9588797-3.3592554-4.9810908-5.3029188-.0136888-1.197532.2851191-2.2540836,1.3054006-2.9753078.9611169-.6794049,2.2074334-.4760658,2.7717254.4258612.3924334.6272359.3045537.976798-.2846286,1.4176799-.1264527.0946272-.2053113.3539273-.1879834.5256658.0773805.7670033.9381699,1.6334622,1.8168981,1.7279208,2.345014.2520665,4.5358001-.0451696,6.2244004-1.9503284.3078738-.347352.6655789-.6611363,1.0408476-.9339076.5790075-.4208866,1.2216068-.5049351,1.8564913-.115422.6273245.3848618.9306071,1.000598.7808199,1.7000153-.1214187.5669152-.3665312,1.1479346-.7001544,1.6194968-1.4579579,2.0606936-3.5667932,3.0949152-5.7732342,3.6266193Z" stroke-width="0"/>
      <path d="m97.2942951,129.4705893c-.4862839-2.4365362-.6766367-4.7482076.0058589-7.0551518.2930029-.9904113.7029315-1.9146043,1.4168649-2.6743588.5592388-.5951178,1.2240282-1.0010856,2.0532592-1.0630317.8286688-.0618953,1.5411704.2036576,2.0134189.9151643.4727139.7121953.3537352,1.4525084-.0248764,2.1677719-.082588.1560376-.1740923.3197092-.3003039.43777-1.0538386.9856518-1.2234771,2.2798316-1.1973325,3.6159427.0365877,1.8703786.4871006,3.6462119,1.2271665,5.3726755.3774418.8805176.5927871,1.8437598.7791255,2.7897195.1223155.6209234-.1408176.9110494-.7349195,1.1362313-1.164403.4413143-2.5160804-.0080226-3.361166-1.1682733-.9202504-1.2634464-1.4642321-2.7010821-1.819859-4.2156022-.0296735-.1263548-.0560533-.2534835-.0572366-.2588573Z" stroke-width="0"/>
      <path d="m109.4819622,114.3628334c-1.7850266.2335244-3.7052743.3634833-5.561291-.4315206-1.5173157-.649936-2.6814643-1.6668834-3.2416815-3.2782992-.0730922-.2102426-.1058657-.4415927-.1169559-.6650488-.0219135-.4416165.1665723-.7939688.5471023-1.0104474.3986405-.2267577.8171173-.2067825,1.1836798.0683613.2420683.1816776.453391.413058.6507907.6459706,1.3751425,1.6225562,3.1397407,2.1148746,5.1374713,1.6830098.5701609-.1232501,1.1119963-.5588425,1.5709403-.9619094.4236531-.3720897.7113017-.8988295,1.076152-1.3429987.0827065-.1006814.2302091-.1824805.3592731-.2035232.8290613-.1351312,1.6168102.3881124,1.853653,1.2165076.2297815.8037252.0495252,1.5463712-.366357,2.2350247-.6756479,1.1188121-1.7063932,1.7252233-3.092777,2.0448733Z" stroke-width="0"/>
    </g>
  </g>
</svg>