<?xml version="1.0" encoding="UTF-8"?>
<svg id="Layer_2" data-name="Layer 2" xmlns="http://www.w3.org/2000/svg" viewBox="0 0 113.0340977 211.7280991">
  <g id="Layer_1-2" data-name="Layer 1">
    <g>
      <path d="m83.4353235,190.2273988c.4868323,1.6276483-.1888992,2.7167954-1.7535936,2.9831475-2.2864615.389214-4.6181556-.9551591-5.1905848-2.990276-.2369812-.8425635-.1765844-1.6297649.3680989-2.3560807.1191874-.1589303.2433612-.4112462.2010194-.5791249-.4296279-1.7032852-.8933209-3.3979773-1.371835-5.1861497-.6883012.2428033-1.3796457.4223071-2.0148731.7210651-4.5473926,2.1386685-8.9891438,4.4521365-12.8885358,7.6874865-1.8112017,1.5027614-3.2923475,3.2575096-4.3657852,5.3416012-.3881538.7535821-.701466,1.5620615-.928733,2.378924-.5336072,1.9181784-.0509062,3.5870818,1.3763338,4.9901367,2.4551708,2.4135206,5.4179071,3.7089112,8.8111744,4.1581605,3.9362957.5211611,7.7972885.0603228,11.6722341-.6169165,6.1151223-1.068789,11.9242384-3.0361982,17.3674582-5.9745509,3.4403921-1.8571991,6.7048825-4.0332109,9.6582249-6.6395189,1.8134621-1.6003945,3.2136726-3.4847772,4.1473183-5.703121,1.2655437-3.0069124.4587811-5.6135807-2.2843154-7.3918269-1.9539407-1.2666895-4.1776812-1.8258764-6.4165417-2.3368525-3.5635559-.8133522-7.1085838-.7019488-10.6607143.0933964-1.316696.2948413-2.6586353.4825342-3.9943664.6838937-.485916.0732151-.9957594.1101532-1.4797805.0478373-1.0037505-.1292123-1.4525128-.9140368-1.1133758-1.8741955.3096016-.8765772,1.0138327-1.3558209,1.8276599-1.6825273,2.6374895-1.05894,5.4139758-1.5024983,8.2201268-1.7660447,4.8710221-.4574562,9.512597.5355587,13.9231392,2.5241056,2.9931261,1.3494484,5.302723,3.4674282,6.1911348,6.7986113.4680428,1.7549026.3739061,3.4951081-.2075959,5.2117629-.6192382,1.8279634-1.5391047,3.5104705-2.8671328,4.8919858-4.4182531,4.5961035-9.2130361,8.770457-15.0309648,11.489537-7.3886231,3.4531283-15.1394272,5.8287381-23.2998474,6.5260288-2.415975.2064367-4.9007131-.0800055-7.3260039-.3723602-3.0969124-.3733295-5.8308935-1.7290985-8.3668569-3.5441624-5.8029844-4.1533419-5.4663433-9.7664832-2.852089-14.1944471,2.523042-4.2734249,6.0844487-7.5386534,10.4895306-9.8267299,3.6208629-1.880734,7.2636874-3.737421,11.3006809-4.6056576.514126-.1106044.5876324-.3757726.473082-.831619-.5573445-2.2179447-1.0871526-4.442819-1.6482542-6.6598001-.8320089-3.2872858-1.6822532-6.5699637-2.5240068-9.8547882-.020508-.0799972-.0255157-.1643514-.0495548-.2430482-1.4954007-4.8960844-2.0528853-9.9836412-3.0883237-14.9724482-1.5795782-7.6104846-3.2731875-15.2045277-5.206902-22.731454-1.0736956-4.179394-2.6827023-8.22635-4.142942-12.2998584-1.3108466-3.6567948-2.6779447-7.2972193-4.159297-10.8874965-.7430419-1.800873-1.7078688-3.5284487-2.7365184-5.1874201-.8040058-1.2966789-1.8595517-2.4376122-2.8064777-3.6452941-.237284-.3026274-.5965282-.5597579-.7081248-.9005569-.246007-.7512231-.7349657-.7068042-1.300572-.5340246-.6852516.2093448-1.3566081.4656914-2.0452025.6623489-7.4293954,2.121966-14.9499405,2.6045624-22.4730658.7320307-7.960221-1.981302-13.7036863-6.7971259-17.2584318-14.2333348C1.4303067,70.2666588-.0198467,62.5831681.0002049,54.5951449c.0135466-5.4006492.1787218-10.800747.2355419-16.2015221.0399884-3.8013601.7777534-7.502736,1.4509713-11.2187026.0802106-.4427422-.0783605-.9422025-.1838501-1.4021674-.1889901-.8240442-.5266604-1.6277753-.6080511-2.4590066-.0891703-.9106667.3081439-1.7317601,1.0216695-2.3419749.8709298-.7448369,2.0931891-.5010778,2.2945776.603456.337808,1.8527014,1.6444081,2.495953,3.1667256,2.805168,2.5355327.5150174,5.0926573,1.1262724,7.6603205,1.2354514,4.3969163.1869728,8.8258838.2558094,13.2109176-.0552857,7.4228516-.5266162,14.6894959-2.0494497,21.7328833-4.4899574,5.9112331-2.0482213,11.6172669-4.5502915,16.4787339-8.5961841,1.2720273-1.0586271,2.3936674-2.3598665,3.3554878-3.7124284,1.0234816-1.4392458.6961848-2.8937138-.7860774-3.8728953-1.0903895-.7203059-2.3020754-1.3194527-3.5380047-1.7455383-4.1267931-1.4226911-8.3940513-1.3736382-12.6740135-.9868881-7.594647.6862673-14.9809195,2.3945547-22.1374335,4.9555722-3.6981017,1.3234007-7.2169988,3.1529995-10.7995111,4.7918371-2.1796857.9971059-4.3083212,2.1067605-6.4964424,3.0840258-.8973873.400791-1.8814719.62623-2.8440836.8562686-.7531147.1799789-1.0914635-.1903629-.6827287-.8339806.5927454-.933406,1.2555418-1.9399217,2.1412792-2.5454581,1.9037485-1.3014868,3.919725-2.4634575,5.9769013-3.5114771,7.5337066-3.8379814,15.5777802-6.1268136,23.8589951-7.6469157C47.4897877.2685502,53.2054202-.2180336,58.9392876.0927629c2.7002458.146356,5.4074739.7216361,8.0404668,1.3847482,2.3342605.5878809,4.5104785,1.6591765,5.9498918,3.7717491,3.8608802,2.8685648,5.2227082,7.4175658,7.3742383,11.3659906,3.0539106,5.6044395,5.6073859,11.4836011,8.322956,17.2696593,1.7904182,3.8148934,3.6825955,7.5989384,5.1821663,11.5291982,1.9416032,5.0887811,2.3166807,10.3596302.6715407,15.6564106-.1957388.6302722-.3749294,1.2879222-.7017166,1.8517806-2.8848047,4.9772335-6.1460918,9.6172903-11.2330982,12.6586008-1.5580853.9315163-2.9908944,2.0699461-4.5149328,3.0615676-2.0762852,1.3509197-4.20145,2.6268624-6.2729236,3.9849008-1.033026.6772326-2.0449204,1.4063163-2.9741635,2.2175668-1.3464599,1.1754949-2.7579568,2.1815623-4.5118608,2.6652931-.2362566.0651669-.462717.4865492-.5335307.7814332-.7562938,3.1492065-.7010576,6.3343053-.3828223,9.5315101.450257,4.5234172.7487616,9.066919,1.8066306,13.5081851.6767883,2.8413713,1.4262582,5.6667015,2.0399317,8.5214178.4919437,2.2884664.731472,4.632821,1.2587605,6.9116932.6583247,2.8453606,1.5636152,5.6331443,2.2415681,8.4745698.9780597,4.0991857,1.7021113,8.2633116,2.7929543,12.3304136,2.4351578,9.0793783,5.0401564,18.1131191,7.5526738,27.1719005.574689,2.0720061,1.0173288,4.1806031,1.5921296,6.2525583.3966163,1.4296918.8945725,2.8328297,1.3869381,4.2339087.455379,1.2958393.7204524,2.5994435.4487631,3.9733286-.1097671.5550404-.3086247,1.0121343-1.0405255,1.026251ZM29.8398131,76.8513112c-.9555141.6021526-1.866548,1.1591847-2.7592824,1.7441611-.7352483.4817619-1.5022997.9353245-2.1608628,1.5096221-1.3975975,1.2187897-2.9944223,2.0785646-4.7230293,2.6658537-.702669.2387332-1.5250688.29319-2.2672215.2077313-1.08893-.1253743-1.5975871-1.0558776-1.0650106-2.0050565.416926-.7430782,1.0274076-1.4434853,1.7060908-1.9604124,1.5299515-1.1653139,3.2790728-1.911351,5.1916766-2.2393635,1.5163371-.2600616,2.7913426-1.0344079,3.9218846-2.0170785.3792758-.3296566.7223788-.9035376.7587052-1.3899303.1540586-2.0625066-.0136767-4.1053259-1.3052742-5.8417751-2.3460427-3.15404-3.2465279-6.8379537-3.942239-10.5943036-.0999899-.539906-.0328674-1.1712783.1530961-1.6899976.3072789-.8571251,1.2501019-1.0111935,1.8680976-.3380804.3076469.3350831.5471437.7663603.7104325,1.1949133,1.1347515,2.9782663,2.6867179,5.8165932,3.0747386,9.0489803.0039865.033144.0592725.0601302.0535626.0546947.0903229-1.7542619.3029027-3.5480673-.2285501-5.305888-.0385669-.127516-.0210737-.2737976-.0198648-.4112675.0221616-2.5213646.9869532-4.7168957,2.3544681-6.7689782,1.3664844-2.0505416,3.2883374-3.2213892,5.7269746-3.5122029,2.2886759-.2729441,4.4767806-.8275522,6.5845586-1.8081863,2.0622215-.9594619,4.153104-1.2074558,5.9620013.6486612.0454521.0466185.1422851.0431543.2683884.0775693-.3001601-1.1216764-.5980499-2.194547-.8737432-3.2730856-.6607681-2.5848951-1.3110649-5.1724668-1.9656665-7.7589336-.2023461-.7995224-.3602243-1.6143215-.6271153-2.3916993-.1247541-.363438-.3916233-.8018244-.7128564-.9516838-1.1218756-.5234386-2.2830821-.97216-3.455134-1.3741231-.5320902-.1824795-1.1487661-.3372948-1.6856193-.2499262-2.7438385.4465478-5.5689794.6647222-8.0995996,1.9158658-2.7573246,1.3632199-5.6115393,2.4311813-8.552157,3.2949223-.6588602.1935259-1.0283056.6258713-1.1193905,1.2883521-.2997443,2.1802804-.5717671,4.3644816-.8861749,6.5425955-.1539739,1.0666854-.3780387,2.1232644-.5819834,3.2485059,2.3024292,1.2677544,2.9855763,2.4052071,2.1156712,3.7709748-.1695678-.0713398-.3688097-.1123639-.5149281-.2233322-1.2393513-.9414161-2.6895285-1.0560661-4.1637953-1.089993-4.2186135-.0970958-8.2790709.6745887-12.2155731,2.176541-.984929.3757972-2.0095155.6476653-3.1049364.9955764.0425573.4677405.0997449,1.0953742.1567809,1.7230275.3819376,4.2038784.8032919,8.4076749,1.8974709,12.4968552,1.4630294,5.4676253,3.626693,10.5752539,7.7333877,14.6740862,2.8850166,2.879471,6.3458858,4.7788188,10.2832628,5.4733584,2.9882188.5270887,6.1207849.7047464,9.1431258.4629986,4.9064851-.3924498,9.7744182-1.2623273,14.6606957-1.9151409,1.1720743-.1566031,2.3555455-.3796275,3.5281587-.3499929,2.7026911.0683248,5.26416-.3424434,7.662376-1.6523295.9679105-.5286733,1.988797-.9746412,3.1190008-.401404.3618729-.7961926.8545458-1.295829,1.7251145-1.2949214.1738623.0001798.3628921-.1143302.5194159-.2154365,1.5495292-1.0009208,3.0753793-2.0398475,4.6460837-3.0060238.9595979-.5902909,1.9433522-1.183146,2.9894257-1.5837536,4.5338081-1.7362769,8.5468533-4.3065429,12.2509936-7.4072638,3.2624432-2.7309816,5.5523308-5.9805051,6.4696999-10.2681252.8446039-3.9475161,1.2864771-7.8795638.9832376-11.8878927-.0702037-.9278968-.4637762-1.8313248-.7388215-2.8591493-2.4383953,1.8912431-5.1309598,3.0032619-8.0984756,3.5497158.5194982,1.6156239.3588178,3.0551164.0845136,4.5058913-.1271921.6727809-.172043,1.3689779-.1787388,2.0552992-.0241351,2.4762853-.833976,4.7628871-1.6587056,7.0463633-.1107836.30673-.2646323.6301494-.4898308.8540115-.2128592.2115997-.5668725.4431139-.8200669.4054446-.2397275-.0356375-.5092818-.3762196-.6199585-.6431344-.1315324-.3173446-.1552038-.7007957-.1432085-1.0527842.0770307-2.2573634.2206502-4.5133704.2505502-6.7710343.0151644-1.1448708-.155752-2.2927578-.2532875-3.4383664-.0595731-.6997664-.4550231-.9215292-1.1525593-.9860756-2.1370217-.1977723-4.2649908-.4926845-6.3975449-.7405741-.7932265-.0922111-1.5936402-.2551969-2.3835318-.2205431-3.4905483.153076-6.98071.334791-10.4656648.5814432-.8084899.0572065-1.5927369.4234972-2.3941645.6233732-.7842915.1956146-.9403589.0317997-.8168252-.7702269.1701261-1.1046696.9466681-1.7195719,1.8346826-2.2011024,1.397946-.758041,2.8253431-1.4617417,4.3120227-2.2253036-.1590248-.2934887-.3416064-.6266365-.5207466-.9616149-1.7880196-3.3436313-3.317369-6.7807291-4.0046093-10.5477783-.2841415-1.5575605-.0334116-2.9544434.8933973-4.2345104.4039032-.557859.872826-1.0844358,1.1838039-1.6910408,1.3561702-2.6453516,3.3337498-4.5578296,6.2030242-5.4809382.8903834-.2864614,1.7603132-.6427925,2.6610482-.8886175.6951365-.1897143.9698324.1110048.704531.7842117-.1735061.4403195-.4792775.8782884-.8377136,1.1876729-1.8952017,1.6358811-3.7755608,3.2965172-5.7628403,4.8153961-1.2294558.939678-1.9389928,1.9053098-1.3468547,3.4867633.1217253.3250818.066206.7122843.130457,1.0638971.2268959,1.2414258.329503,2.5282815.7360084,3.7095467.9229823,2.6820584,1.9854371,5.3168194,3.0328807,7.9542487.1019509.2567345.4823512.5490851.753401.5702555,3.3507034.261512,6.7130348.3963583,10.0557906.7299139,2.2303127.2225659,4.3355051-.0011003,6.3454755-.9699168,1.0662076-.5139288,2.0620118-1.1838147,3.1491696-1.642038,1.5649401-.6595911,3.1841168-1.1905061,4.8467726-1.8007981-.0680436-.1955881-.128827-.460631-.2470307-.6969877-3.3150044-6.6295149-6.6263865-13.2608879-9.9644269-19.8788067-.5997443-1.1889948-1.0343246-1.3178647-2.3012924-.8311757-.4291301.1648442-.7924605.49462-1.2147434.6849734-.7677052.3460552-1.5356071.8218754-2.3425007.9190396-1.1062721.1332177-2.2550904.0228134-3.3742988-.0929842-1.0204285-.1055789-1.2643359-.6586757-.5950197-1.4476556.6705577-.790436,1.4871244-1.4647251,2.282327-2.1396907.9049581-.7681416,1.9729062-1.0540285,3.16291-.9238903.7248344.0792714,1.4565382.0959103,2.4360674.156099-1.3728377-2.7167238-2.6514108-5.2469307-3.9419811-7.8008713-.8321074.9431684-1.5005777,1.8220493-2.2906159,2.5730463-2.1663939,2.0593636-4.5658506,3.8153466-7.1902065,5.255633-8.0680131,4.4278766-16.6497398,7.3798211-25.6733815,9.1691508-7.0821404,1.4043435-14.2175053,2.2493136-21.4233094,2.3509811-3.0716675.0433519-6.1533017-.3345784-9.2229049-.6059337-.9040589-.079914-1.782414-.45043-2.7521348-.708983-.4527913,7.8286008-1.5297132,15.5516563-1.2996594,23.3130104,2.5670248-1.0185555,5.0132771-2.0875905,7.5292518-2.954178,1.7862134-.6152408,3.6484834-1.0640655,5.5119917-1.3788565,1.0189063-.1721281,2.1109621.0886675,3.0583671.1473158-.2374749-1.9056791-.555423-3.8084922-.6947122-5.7243023-.2182703-3.0020453.7133318-5.6881756,3.2631064-7.3469967,2.4145644-1.5708628,5.0904412-2.7548151,7.9934191-3.2537402,2.3077607-.3966336,4.6073524-.8498157,6.9249718-1.1755374.9634279-.1354037,1.9831893-.1206206,2.9430822.0359173,1.0703555.174546,2.0849486.3016097,3.1805936.0922644,2.0324913-.3883663,3.1530727.3717784,3.8553882,2.3043174.1338318.3682912.5184025.6576281.8194062.9503819.560661.5453237,1.2295865,1.0022147,1.6949194,1.6160939.4408795.5816535.6787286,1.3172381,1.0056255,1.9852576,1.6132279,3.2967649,3.2203449,6.5931994,3.6847492,10.3039631.1756792,1.4037894.2079103,2.7245233-1.3582061,3.4648956.228066.4167706.4213951.7700761.6147437,1.1233764.0332415-.0848137.0664999-.1696423.0997387-.2544657.5976196.126739,1.3469193.0739438,1.7581129.4213525.6523193.5511225.3605545,1.3644797.0133767,2.0593771-.1478129.2958847-.3425202.5714876-.4637459.8770179-.5774353,1.4555352-1.2970992,2.8790676-1.6656115,4.3874232-.5656433,2.315188-1.1144745,4.6051331-2.5497806,6.6297595.4568487.5224724.848839,1.107647,1.3681616,1.5397521,1.7520968,1.457797,3.3885534,3.1680729,5.3705428,4.2069985,2.4216041,1.269363,5.1486216,1.9494608,7.9703308,1.8870576,2.2279966-.0492773,4.4560892-.0960082,6.6844028-.1265188.8238102-.0112865,1.6485251.0465265,2.4724057.0368313.7586794-.0089136.9065815.5075273.6360091.9703661-.2957838.5060023-.7851812,1.023896-1.3124608,1.2448767-1.3179877.552343-2.6885357,1.0017317-4.0703056,1.3717541-.9696554.2596675-2.0018085.4912257-2.989702.437055-2.4709678-.1354676-4.8110322-.8896813-7.083246-1.856704-1.054161-.4486399-2.1270591-.8532872-3.1209643-1.2497659-.1349121.7537239-.0921185,1.4801047-.39361,2.0109608-.7849525,1.3821803-1.692595,2.6987841-2.6162966,3.9952295-.2357805.3309155-.6889001.5479436-1.0854453.7138232-.6074949.2541147-1.2124798.1822939-1.6341151-.3869909-.424986-.5738356-.2875594-1.1565616.1246741-1.6727413.2561731-.3207414.5778518-.5886143.8642755-.8858643,1.285267-1.3339168,2.5684894-2.6698482,3.8865023-4.0404966-.2624782-.1088553-.4622497-.1977289-.6662639-.2754193-4.5365015-1.7275874-7.8332218-7.1833539-6.0775872-12.3132206.3804439-1.1116523.9564273-2.1573569,1.4562929-3.2268987.6693652-1.4321548,1.3523299-2.8579532,1.9341472-4.0854215-.8634818-.7610979-1.5641421-1.3245452-2.1978723-1.955222-.4662772-.4640118-.8127691-1.0480308-1.2767001-1.5149184-.2243069-.2257277-.5832002-.3846483-.9032636-.4360518-1.0537368-.1692538-2.1295667-.2153147-3.1741076-.4232685-1.0089996-.2008715-1.973452-.2094865-2.9125076.2141129-.7771709.3505748-1.5994764.650912-2.2906259,1.132897-1.9817273,1.3819719-4.1519256,2.107934-6.5556985,2.2574053-1.1868835.0737948-1.7666186.7209732-1.8905659,1.9109618-.042409.4071253-.0225032.8237037.0008514,1.2341418.0703774,1.2365107.1842773,2.4711299.2279691,3.7083723.0379767,1.0756955.0531928,2.1264285.7066809,3.0739663.273054.3958968.4096542.9069872.5270208,1.3856261.5907593,2.4091967,1.1459169,4.8271048,1.7307985,7.2377803.4607219,1.8989536.8751143,3.8136507,1.4456476,5.6799252.395278,1.2930186,1.409494,2.158695,2.7231731,2.4287731,2.8361573.5830978,5.6980039,1.0449157,8.6151478.7815499.657532-.0593542,1.3064752-.2189064,1.9641942-.2690051.2752889-.0209709.6308171.0496534.8176939.2219736.0982402.0906048-.0444229.5107984-.1543084.746765-.440635.9462289-1.2659122,1.462078-2.2160624,1.7246186-3.8032934,1.0508829-7.6407222,1.4289953-11.510489.3597325-2.3256251-.6425848-3.982728-2.0880573-4.9082392-4.320276-.3886392-.9373488-.6826547-1.9139248-1.0350209-2.9162801Zm52.3332564,112.2316356c-.3397881-.9637523-.7475409-1.9249379-1.0154197-2.9236373-.4566701-1.7026357-.8059122-3.4337682-1.2367333-5.1437393-.4310588-1.7110158-.94826-3.4009665-1.3545665-5.1174768-.9843038-4.1583874-1.9318256-8.3255302-2.8829965-12.4916965-.6872919-3.0104195-1.3767502-6.020573-2.0288792-9.0386874-.8020609-3.7121027-1.4765652-7.4542201-2.37417-11.1424909-.7743122-3.1815866-1.7932928-6.3032624-2.6871147-9.4562559-.9613327-3.3911321-1.8826743-6.7937187-2.8585394-10.1806274-1.0458757-3.6298572-2.1631988-7.2353882-2.6446975-11.0062036-.2577455-2.0185862-.7030435-4.0134153-1.0694591-6.0179148-.4405851-2.4104465-1.1777763-4.8094097-1.2642495-7.2319647-.1341766-3.7590665.1724603-7.5339013.294567-11.301973.0120724-.3725649.0405706-.7446217.0626172-1.1378184-1.446666.745159-2.7623034,1.5653315-4.1827708,2.1143375-1.416621.5475167-2.9383251.8232341-4.4355848,1.2239001.0203664.054032.0435689.1635563.098333.2539595,4.0747957,6.7267733,6.6987382,14.1009682,9.1119159,21.5037622,2.047078,6.2797651,3.3687635,12.794265,5.0629324,19.1912826,1.7787287,6.7163719,3.5135718,13.4472269,5.461336,20.1151864,1.9706388,6.7461733,3.2034449,13.6233135,4.2681502,20.5508743.8160374,5.3097037,1.7852726,10.5958935,2.6972313,15.8906771.0233227.1353698.1473906.3159658.2678737.3621208.9162811.3508367,1.8434249.6734222,2.7102246.9843856Z" stroke-width="0"/>
      <path d="m78.8445929,66.7349579c.4603569,1.0366403.2768599,1.9058306-.0252398,2.7767618-.3585575,1.0337144-.6508353,2.0947457-1.0812271,3.0969523-.1577026.367235-.5908333.7495289-.9687793.8444878-.2768081.0695255-.8715683-.2507176-.9616296-.5190505-.1351878-.4027403-.0951961-.9978485.1220379-1.3602493.6570295-1.0960513,1.4608344-2.1029428,2.1543834-3.178801.3008187-.4666355.4717815-1.0169524.7604544-1.6601011Z" stroke-width="0"/>
    </g>
  </g>
</svg>