<?xml version="1.0" encoding="UTF-8"?>
<svg id="Layer_2" data-name="Layer 2" xmlns="http://www.w3.org/2000/svg" viewBox="0 0 265.8356113 110.0024752">
  <g id="Layer_1-2" data-name="Layer 1">
    <g>
      <path d="m13.2796277,17.1766838c.2714038.2998851.5125601.5731069.7669392.8463558,4.2933028,4.6121797,10.5024873,8.9668608,17.5968513,13.2373812,7.9670012,4.7958007,17.0285613,9.0904935,26.351876,13.3041981,16.2476782,7.3432064,33.2369042,14.0765104,50.9199842,20.2597659,4.6143779,1.6135077,9.2449039,3.2086397,13.8446475,4.8385133,2.3425612.8300626,4.7113201,1.6637112,6.9326159,2.5910323,6.197176,2.5871152,12.6786359,4.864159,19.223916,7.1039161,9.9286278,3.3975176,19.7642763,6.91509,29.724038,10.2695761,12.9581455,4.3643711,26.2165087,8.1114367,39.5782224,11.670655,7.7291021,2.0588277,15.1398863,3.2854383,22.6187155,4.1372905,11.6860924,1.3310711,17.8970812-2.2683665,15.7090519-7.31468-.3759976-.8671772-.9112144-1.7613345-1.5451147-2.6538305-.8467328-1.1921503-.2608221-2.0218883,1.6830751-2.0789057,1.9102723-.0560309,4.3673748.6990334,5.8292661,1.8191096.4527669.346907.8592454.7189303,1.1048834,1.0677585,4.2873125,6.0885268,2.5168857,10.9779744-6.7162923,13.0510437-2.9667938.6661204-6.5043423.840633-10.5535929.5224914-9.0050914-.7075086-18.1642526-2.0034487-27.6740526-4.629672-3.950019-1.0908358-7.9211706-2.1191813-11.8783791-3.1900417-13.8768964-3.7552354-27.4200144-8.0909671-40.781802-12.7332509-9.9887025-3.470378-19.9800297-6.9383624-29.9374586-10.4450127-2.6507074-.9334828-5.2314643-1.9696975-7.7546596-3.0219639-3.7829169-1.5776137-7.7466346-2.9350954-11.7365383-4.3010993-26.5134902-9.0773712-51.9299492-19.0249354-75.4552456-30.4094974-10.5971136-5.1282332-19.9945539-10.6256181-27.6872798-16.5303517C7.998795,20.4084138,3.8959427,16.1840116,1.3970214,11.9797422-.6976048,8.4557264-.6924794,5.3863494,3.1820622,3.4293847,9.4668346.2550933,18.2981244-.9859939,30.8344333.8652039c7.8730371,1.1625839,15.7721578,2.3876973,23.7657308,4.0674637,5.5967082,1.1760942,11.1134432,2.7404181,16.615738,4.3454043,14.250726,4.1568618,28.0485897,8.9658295,41.9072896,13.6980105,7.5650328,2.5831459,15.2373938,5.0293246,22.8220986,7.588956,3.7716447,1.2728303,7.4851986,2.632736,11.1694698,4.0069144,3.7406218,1.3951955,7.376727,2.8919302,11.122538,4.2814158,7.8118556,2.8977625,15.724377,5.7000788,23.4885229,8.6404907,10.9489799,4.1465686,22.0646387,8.1830544,32.4776062,12.7554423,9.2393128,4.0570297,18.2976768,8.2291474,27.3323716,12.4057945,4.8865485,2.2589981,9.1971087,4.76086,13.1745752,7.3277193,4.0939599,2.6420378,7.1590258,5.3697827,8.8107219,8.12652,1.063262,1.7746269,1.2282577,3.3648031-.4556013,4.5054672-.0420501.0284863-.0802035.0586182-.1227516.0868863-1.6876816,1.1212792-3.7750922,1.0184638-7.42033-.4050645-.1132668.1137513-.1879724.2427969-.3446424.3353576-.3758746.2220804-.6788075.4955478-1.2100192.6259741-1.5753237.3867942-4.1322082-.2596591-5.4814807-1.3585863-1.531203-1.2470967-2.982287-2.5024218-4.5657227-3.7436642-4.7353087-3.7119809-8.2484917-7.4835887-12.4044949-11.2235181-3.1396506-2.8253087-6.1863314-5.655535-9.340651-8.4799809-.4610599-.4128543-1.2091889-.8474837-1.9624336-1.2014346-7.8682937-3.6973016-16.0717363-7.1635091-24.6465684-10.3843417-5.3517179-2.0101845-10.6323964-4.0875274-15.9467602-6.1331524-.378081-.1455361-.7709715-.2780213-1.3961241-.5024216.2427152.2036578.3126781.2793823.4175987.3479536,4.8416975,3.1643126,9.6470496,6.3364941,14.5502641,9.487569,1.9533492,1.255322,4.1252747,2.463435,6.1950584,3.693757,2.2777441,1.3539401,4.2898834,2.7527064,5.9253896,4.2045021,2.1846562,1.9392743,4.3279794,3.8809544,6.4782834,5.8221562,2.3087574,2.0842265,3.6267984,4.1366498,5.1376323,6.197612,1.3168762,1.796383,2.7708604,3.6004914,4.1454671,5.4002757.3428364.4488707.6823625.9021167.9007712,1.3393549.3337294.668063.0883085,1.1645269-1.1362561,1.2836077-1.2547135.1220173-2.5789461-.2240018-3.8271702-.8304844-.986541-.4793448-1.9503205-.9783065-2.8378036-1.4935633-4.6759413-2.714757-9.3813178-5.4222393-13.9684688-8.1611417-6.1014201-3.6430397-11.6814746-7.3990996-17.0799359-11.1873765-8.3500194-5.8594597-16.0368561-11.796398-23.1365099-17.8026499-1.6617559-1.4058339-3.5643981-2.7935571-5.2220831-4.1996055-1.5821345-1.3419596-3.0323465-2.6955325-4.4504637-4.0469646-.5043887-.480656-1.1059146-.8468504-2.0325305-1.2135837-9.1667203-3.6280057-18.7721202-6.7222903-28.337546-9.88029-7.5847109-2.5040716-15.0796529-5.1341308-22.6374901-7.677662-10.5596381-3.5537674-21.1564179-7.0438376-32.0239594-10.0998702-6.4974438-1.8271331-12.9731372-3.2827248-19.4767808-4.3250031-3.9197454-.6281803-7.8351167-1.2351859-11.7660288-1.9089962-8.7538567-1.5005284-15.2936426-.9559879-20.7125201.7176073-4.4056206,1.3606917-5.3179657,3.7188719-3.3843631,6.9485807.0994315.1661111.2223655.3343455.3672258.5506886.1861952-.0274958.3152016-.0324423.4006628-.0613016,1.2453279-.4200121,2.737714-.272886,4.524572.53385,3.2133138,1.450747,6.384846,2.925747,9.5455274,4.4052331.2970742.1390565.3928056.3822428.5820063.5770814-.3738234-.0400868-.7442718-.0552038-1.1224982-.1276734-.3395524-.0650615-.6876808-.193173-1.148131-.2411215.2420535.1475176.461485.3043388.7296126.4411403,3.3184645,1.6931592,6.6341703,3.3875904,9.970167,5.0734212,5.1256343,2.5902028,10.5043257,5.0366376,16.1973085,7.3057025,7.8321682,3.1216809,15.3563053,6.4410707,22.7403649,9.8485197,4.5878358,2.1171022,9.1083312,4.2738333,13.7701644,6.3469258,6.8725873,3.0561923,13.9514448,5.9756277,21.1909297,8.7749744,2.7115287,1.0484925,5.3778122,2.1378493,8.1092384,3.1668626,1.2589476.4742858,2.6097123.895854,3.9449687,1.2595105,6.075028,1.6545457,12.2108413,3.1690956,18.2272428,4.9440692,7.4253849,2.1906543,14.7410657,4.6131969,22.1300269,6.88856,4.1815854,1.2876906,8.3994181,2.5238582,12.628628,3.7076437,7.2558874,2.0309807,14.4751908,4.1097272,21.496317,6.5733186,6.6737144,2.3416785,12.5631437,5.0533395,17.5804246,8.2652893,4.7347294,3.0310537,10.3249632,5.7034627,16.7487366,7.8762722,4.9104993,1.6609374,9.9777237,3.0159268,15.0630408,4.280624.678806.1688102,1.3599902.3277942,2.0364274.5053879.7666584.2012705,1.427051.4622151,1.4417887.8563456.0149481.3996375-.649043.3572446-1.4137236.24246-3.6115045-.5421455-7.2332879-1.3818651-10.8632723-2.2630627-9.9931204-2.4258568-18.2643239-6.1315412-25.5328345-10.5111738-4.5651977-2.7507491-9.3946081-5.3320868-15.3792114-7.3642103-4.8489433-1.6465071-9.8092681-3.0460734-14.8308717-4.3155191-6.1058026-1.5435307-12.2187864-3.0697071-18.3050545-4.687882-8.3332314-2.2155745-16.4331265-4.8873142-24.5122722-7.5769255-5.0380735-1.6772102-10.0876638-3.3410254-15.0933784-5.0591104-1.9780965-.6789341-3.8506904-1.489147-5.7720223-2.2389918-5.166203-2.0162477-10.3392894-4.0267754-15.4978751-6.0494208-9.6607044-3.7879209-18.8492593-7.87074-27.6280926-12.1866305-7.499228-3.6868114-15.5544953-6.985047-23.8350587-10.1320843-9.1335938-3.4712318-17.9784208-7.1533131-26.7515849-10.8925-2.8818925-1.2282791-5.5134517-2.5503647-7.6881479-4.0462568-.1304904-.0897457-.2784171-.1770359-.4279886-.2624893-.0376626-.0215138-.1132902-.0315475-.2878063-.0774844Zm148.9808244,27.2400183c.1839239.2392965.2747162.3731958.3918866.507598,5.2594284,6.0325377,12.0590382,11.9884213,19.9195848,17.8771466,2.393201,1.7928688,5.2117577,3.5299981,7.803255,5.2984129,6.3862523,4.3579279,13.2400695,8.6004276,20.6345325,12.7112389.2442238.1357715.5016632.2672336.8032471.4274288.0200293-.076092.0635967-.1110139.0344873-.1496746-1.5528729-2.0612938-2.7437091-4.1266389-4.7474771-6.1836969-4.0686917-4.1768751-8.703095-8.3069701-15.00146-12.3404037-6.7781661-4.3407029-13.0276873-8.7962298-19.5274169-13.1980871q-3.8912573-2.6352969-9.2353011-4.5903235c-.286625-.1053281-.5869272-.1968718-1.0753381-.3596393Zm70.7245644,28.5521124c-.0809729.0215917-.1619341.0431866-.2429083.0647831.4928711.4122357.956241.8278244,1.48379,1.2361279,2.1430085,1.6586465,4.0993342,3.3248677,5.388101,5.0162043,2.3459368,3.0787457,5.6904372,6.1287895,9.4597151,9.1675179.13897.1120369.3222879.2198537.6489804.4403595-.0303992-.2991659-.0425788-.4924506-.0711345-.6888418-.3726236-2.5629486-2.3220655-5.272053-4.6386778-8.0250573-1.1588641-1.377164-2.6953286-2.6538618-5.189694-3.843878-2.3154733-1.1046638-4.5615452-2.2434542-6.838172-3.3672155Zm22.24154,15.6212523c.101295.0131163.2025959.0262342.3038956.0393568-.2800806-.6482437-.5601613-1.2964875-.8402373-1.9447249-.092863-.0120342-.1857272-.0240637-.2785915-.0360931.271644.6471553.5432892,1.2943059.8149331,1.9414612Z" stroke-width="0"/>
      <path d="m97.7686864,23.7085009c.9020133-.1455229,1.8506584.1177617,2.8619779.4680098,6.5818672,2.2795048,12.415689,4.9865095,17.2944508,8.0973468,5.3206014,3.3925486,10.3967239,6.8410281,15.4809,10.2831786,3.7939544,2.5686231,6.6505813,5.210657,8.8073427,7.875871,1.0440397,1.2901535,1.9029189,2.5737053,2.9598056,3.864115,2.6753475,3.2665041,5.4416449,6.5361002,8.1137176,9.8024802.8253416,1.0089222,1.514997,2.0154119,2.1657508,3.0151664.2861844.4396458.4468076.8874558.4437253,1.2832695-.0086341,1.1065558-2.414594,1.2048394-4.7065081.1935412-.9401713-.4148468-1.8172628-.8814805-2.6439437-1.3491809-6.2532694-3.5378355-12.0925008-7.1561806-17.1257977-10.9721409-4.4930477-3.4063633-9.0165116-6.7994235-13.0348195-10.2596046-2.3469133-2.0209449-5.2307118-4.0037641-7.8218034-6.0095348-3.4409496-2.6636303-7.0504339-5.3174605-10.1869161-8.0038312-3.5919888-3.0765358-6.6905537-6.1850221-9.0862493-9.2874305-.2976327-.3854584-.5718384-.7805926-.6857035-1.1446141-.2884506-.9223766,1.4920277-1.1318264,3.3543993-.3831089.6853435.2755258,1.3107518.6435029,1.8269982.9940795.7011777.4761719,1.2712943.9761274,1.9826729,1.5323881Zm47.3438125,38.4995759c.088922-.0060855.1778558-.0121679.2667896-.0182503-1.4935048-1.9968276-2.9658741-3.9926108-4.4868186-5.9907997-1.3574155-1.7833722-2.7813185-3.5700171-4.1526047-5.3541199-1.693829-2.2037451-3.1548389-4.4193164-5.8296169-6.6195533-2.5602174-2.1059894-5.4340501-4.1885363-8.2880477-6.2644274-6.1554567-4.4772643-13.1745061-8.6857255-22.081237-12.2696023-.3352118-.1348821-.6835005-.259603-1.2059884-.4572663.096764.2125982.1300919.3235732.2020145.4377493.4260069.6760388.8837709,1.3548777,1.2883336,2.0289353.9959015,1.659305,2.5527115,3.3125697,4.7003355,4.9720264,3.0292925,2.3407277,6.0223681,4.6856229,9.0196029,7.0299682,3.5059072,2.7422079,7.1165605,5.475717,10.4585794,8.232135,2.3249486,1.9175415,4.7414732,3.8086993,7.4829593,5.6708138,1.4976694,1.0172696,2.8234618,2.0654299,4.3099716,3.0850496,2.4905601,1.708306,5.0452397,3.4053812,7.581076,5.1056533.2135089.1431601.4883167.2747262.7346509.4116885Z" stroke-width="0"/>
      <path d="m73.4479935,35.3062209c3.5357794.9057468,6.7646407,2.1826148,10.1020327,3.4080136-.6168792-.5205649-1.238779-1.0407605-1.8498165-1.5617449-4.3179485-3.6815694-8.5669288-7.3686663-12.9673747-11.0435709-5.2215292-4.360646-11.5553471-8.4727146-19.6314703-12.1569203-.5631038-.2568758-1.107984-.5343529-1.5945166-.8208448-.8881149-.5229754-1.1097754-1.0418599-.6459889-1.3467115.466597-.3067044,1.445889-.2940378,2.6179007.0486754.3470804.1014948.6908575.2268572,1.0168091.3567297,6.4363129,2.5644758,12.0337763,5.4230768,16.4368347,8.7499454,6.7588335,5.1068682,13.0046176,10.2515676,18.5757832,15.4550364,1.2811357,1.196567,2.6516538,2.3912943,4.0671735,3.580134.6934584.5824241,1.5537635,1.1550343,2.3939381,1.721823.9342747.630283,1.1963123,1.1304421.6508569,1.4206827-.5387901.2866921-1.6421995.2267317-2.8824826-.1647047-.3782268-.1193719-.7708168-.2399064-1.1146653-.3874425-3.946599-1.6933887-7.9073007-3.3784745-11.8138067-5.0966068-1.4057408-.6182531-2.5297464-1.3516773-3.3612073-2.1624938Z" stroke-width="0"/>
      <path d="m37.8315,11.0327326c.4780124-1.1889711,3.5748931-1.1631262,5.9582879.1440996,1.1556698.6338489,2.1478063,1.4097605,2.7781662,2.1155497,1.0804622,1.2097175,1.8835281,2.4196145,2.6881187,3.6210335,2.0742986,3.0972876,4.6779684,6.2026446,8.2686645,9.3169911,1.1357304.9850761,2.5397377,1.9525342,3.8233376,2.9277608.2807386.2132976.6107447.4233011.8499547.6384048.5419105.4873098.4850184.8991175-.1376574,1.0532005-.6683227.1653957-1.4749555.0431395-2.3916755-.3038297-3.2514579-1.2306363-5.8182745-2.7247289-8.0174254-4.3100567-4.7328522-3.411834-8.8283323-6.8588197-11.0957325-10.3733316-.7341546-1.1379949-1.5578812-2.2835969-2.2418706-3.4168822-.2912872-.4826548-.3291416-.9426483-.4821682-1.4129397Z" stroke-width="0"/>
      <path d="m188.3256335,91.412888c-1.8105571-.5684613-3.292498-.9555934-4.6169226-1.4746389-1.0330338-.4048695-1.9667019-.9549198-2.7540815-1.477592-.396686-.263334-.5017232-.6381125-.4982255-.9096595.0035331-.2739356.3477397-.3310582,1.1173701.0139251.5281064.2366989,1.2365389.3874842,1.8694902.5415395,3.5545629.8651773,7.1120253,1.7111866,10.6651683,2.5845877.7647747.1879962,1.5367061.4392068,2.267813.7018262.8525363.3062647,1.4954833.6936505,1.4349991,1.104861-.059519.4049063-.7787903.4400863-1.6360397.294213-2.723446-.4634398-5.4540077-.9562463-7.8495714-1.3790623Z" stroke-width="0"/>
      <path d="m169.9923005,67.2160981c-2.7666325-.6938351-5.4426441-1.5349274-8.020798-2.5382034-.9043431-.3519297-1.6811965-.7390609-1.981815-1.22823-.1540022-.2505778-.0738849-.3533747.6153282-.15552.7183099.2062054,1.4807113.3794303,2.2014482.4931105,3.1370891.494784,6.2722232,1.138906,9.3811772,2.08756.7852492.2396064,1.572348.6036418,2.2106989.9587067.7682336.4273121.8726436.9145391.4351928,1.1602017-.4688591.2633108-1.1912094.21192-2.1355645-.0605647-.8939164-.2579271-1.8031591-.4794983-2.7056677-.7170608Z" stroke-width="0"/>
    </g>
  </g>
</svg>