<?xml version="1.0" encoding="UTF-8"?>
<svg id="Layer_2" data-name="Layer 2" xmlns="http://www.w3.org/2000/svg" viewBox="0 0 277.270255 207.3039864">
  <g id="Layer_1-2" data-name="Layer 1">
    <g>
      <path d="m82.0454195,97.0274288c-.3764144-3.3069496-.7378542-6.521114-1.1088343-9.7341613-.9923797-8.5950258-1.9340698-17.1964521-3.0124017-25.7806999-.3955652-3.1489228.4132266-6.0810582,1.1337616-9.0423978.424397-1.7442524,1.5760011-3.1419992,2.738665-4.4605161,1.6533691-1.8749971,2.7234088-4.033885,3.5055222-6.3796919.4945495-1.4832964,1.088496-2.9337053,1.6494545-4.3944091.1176521-.3063725.2128224-.681539.4441114-.873359.856875-.7106225.6233117-1.5857526.5061527-2.4793292-.660446-5.0374453-1.086906-10.1182994-2.0315849-15.1012409-.6198902-3.2698305-.1223719-6.4977567-.4177551-9.7302818-.0190099-.2081127.2394806-.5955768.4330013-.6441582,1.2679782-.3183179,2.5521284-.5735478,3.8343262-.8329491.4024385-.0814135.8151317-.1119512,1.2230649-.166304,2.1262017-.283302,3.5078972.3760672,4.2400957,2.3924864.6137816,1.690282,1.1404236,3.4759658,1.2994165,5.255697.4788102,5.359854.7767999,10.7363429,1.1071839,16.1086907.107176,1.7427681.0715614,3.4938435.1459003,5.2392231.1077396,2.5301497,1.2934186,4.561,3.053823,6.291395.487807.4794845,1.0426971.89413,1.5873225,1.3117543,1.6248794,1.2459492,2.7594763,2.8505709,3.732031,4.6463684,2.213764,4.087634,2.8958465,8.5445474,3.4415487,13.0606643,1.0293127,8.5183623.9310026,17.0603033.4695921,25.5984805-.1325058,2.4520571-.7615034,4.8773857-1.1651294,7.314579-.0437661.2642368-.1027079.5259677-.1790695.9127374.6354684-.0760296,1.169336-.1317511,1.7007983-.2048421,3.0987966-.4260877,6.1718006-.9162395,9.3436279-.6309499,2.2851745.2055365,4.6110255.0098823,6.9163672-.0727891,2.8547472-.1023758,5.7044526-.2267302,8.6128382.5815785-.0778209-1.2961157-.1326467-2.4960144-.2427814-3.690811-.0141996-.1541222-.298523-.3747036-.4854421-.407752-2.4884366-.4399652-4.4518112-1.7772606-6.2106859-3.5132107-6.6001727-6.51414-8.4171941-14.4436781-6.8023782-23.3220814.395223-2.1729365,1.1482127-4.2907754,1.8632631-6.3908523.3027296-.8891184.8508973-1.7298617,1.4317512-2.4810601.9360746-1.2105862,1.9970369-1.1987012,2.9268219-.2115243,1.223719,0,2.3403626-.0424679,3.4528499.0075577,4.1856423.1882575,8.2804214-.3533287,12.2987684-1.4986734.7076034-.2017023,1.3769656-.5405698,2.0591689-.8275299.516337-.2172001.5273665-.5496974.2213563-.9759964-.5410126-.7537244-1.2530641-1.3582174-2.172383-1.3182855-1.4658362.0636716-2.9817886.1317712-4.3693108.5520221-1.801252.5455613-3.5002389,1.4316103-5.2351222,2.1897022-.2061604.0901084-.4067759.2676583-.5284131.457053-.1445417.2250596-.1559739.6974393-.3029409.7320476-.7658207.1803174-1.5632708.3788799-2.3365686.3356875-.9428876-.0526722-1.6098547-1.0107154-1.4057573-1.9744545.1311674-.6193568.3752168-1.342307.8171545-1.748469,4.0574939-3.7291025,8.7296551-5.6645208,14.3164858-4.4822532,1.9053989.4032134,3.6067708,1.3785557,4.625537,3.0738895,1.2056651,2.0063356,2.5355538,4.0449146,3.1921757,6.2536569,1.7576067,5.9122937,2.9492232,11.9639766,2.3234358,18.191398-.2048522,2.038579-.6494567,4.068926-1.1623519,6.0571373-.8677939,3.3641102-2.8441604,6.0335183-5.5714436,8.1497672-.4931105.3826135-1.0449514.7274687-1.6227963.9547021-1.0851046.4267217-1.9662628-.2976073-1.8022885-1.4389768.0896052-.623674.2266698-1.2425981.3815266-1.853733.0551277-.2175825.2259653-.4058299.34401-.6074618.1813036.1761813.3691686.3462843.5406705.5315429.068009.0735036.0997089.1806495.2005047.37256,2.4514433-2.4886077,4.9057647-4.8701299,5.3037752-8.6116004-7.6933482,2.7529753-15.467788,4.4052576-23.7705301,3.050663,2.2105035,3.3338191,4.7957407,5.9429269,8.8012265,6.6908144.2255729.0421157.5104196.0117139.7097872-.0940533.7727343-.4100062,1.0596239-.0263864,1.1714694.667581.4839326,3.0024892,1.0612743,5.9940594,1.4224224,9.0114023.8956395,7.4828504,1.2140379,15.0047874,1.2544428,22.5374421.0140788,2.6254408-.3775012,5.2020335-1.2248763,7.6987423-.3182374.9376948-.7439326,1.7814169-1.8828768,2.1024619.5287855.6215406,1.0173674,1.1628349,1.4666212,1.7350242.3212464.4091609.7058524.8224479.8588173,1.2991548.3755187,1.1702819,1.126063,1.2886083,2.2438941,1.2691455,2.6843222-.0468153,5.355411-.0826413,7.7925641-1.3635208,1.2295558-.6461961,2.3807171-1.4522002,3.5235459-2.2487849.7213703-.5028116.7936059-1.2393979.5258369-2.0647239-.5376917-1.6570121-1.5628784-2.4831231-3.3204448-2.5722453-.5161759-.0261852-1.0348074-.0040254-1.5604229-.0040254,0,.1763725-.0198049.3145441.0033008.4451077.1304227.7366869-.0880554,1.3160816-.7839651,1.6380123-.6371993.2947794-1.4139791.0484858-1.8383158-.6855242-.4226258-.7310916-.7793158-1.5173109-1.0455149-2.3189877-1.3661575-4.1141714-2.0531912-8.3763364-2.5398912-12.6626235-.7003779-6.168218-1.2918286-12.348965-1.9019069-18.5271157-.0886894-.8981453-.0392677-1.8118689-.0203383-2.7176927.0073665-.3523224.0171381-.7578303.1892538-1.0391246.187704-.3067751.5711024-.6920755.8577203-.6829479.2733643.008725.7022597.4461341.7663037.7563006.2269818,1.0992136.3260064,2.2247533.4762944,3.3399578.0319616.237166.0755969.4727621.1214662.7562201,6.1669399-1.1328156,12.2176064-2.8655353,18.6431174-1.7194258.0467952-.7311721.1212247-1.3774789.1080415-2.0219944-.0036832-.1791098-.2320839-.4133071-.4165274-.5195673-1.4029495-.8082483-2.3740149-2.010522-3.1977307-3.3689507-1.1645457-1.920474-.8070306-3.9259643-.320562-5.9166813.2133256-.8728759.5664128-1.7233405.9501333-2.5397704.4553724-.9689318,1.0810792-.9039218,1.970248-.3419268.7384178.4667441,1.7250614.5407912,2.5324945.769202.1443707-.171371.2054157-.2098235.2065428-.2499768.1733736-6.0674926.4193049-12.1342406.488602-18.2029911.0611658-5.355743-.1373665-10.7142032-.0975352-16.07054.0197848-2.6605925.2704258-5.3231877.5018254-7.9774503.2503793-2.8721772.0231661-5.7070641-.4217201-8.5390981-.0677473-.4313157-.1075585-.8792562-.0719539-1.3122474.1032714-1.2555447.8511086-1.9217017,2.113411-1.9351415.5308887-.0056557,1.0618781-.000946,1.5928273-.000946.0174501-.0740873.03488-.1481747.05231-.222262-.2195247-.1214762-.4318842-.2587974-.659661-.3620739-3.6747396-1.6661296-5.8015753-4.4823086-6.3684309-8.488041-.2781747-1.9656942.0232466-3.7982436,1.2333397-5.3920772.7946324-1.0466169,1.6148059-2.1077151,2.5897557-2.9756398,1.4734543-1.3117342,2.132592-2.9428127,2.3895529-4.8155758.029808-.2172001.0745502-.4325434.1177427-.6476704.1118656-.5571393.4841741-.9846611,1.0096084-.8615394.3894767.0912556.9074037.5210517.9879518.8843231.2889023,1.3030796.4168695,2.6103858.272036,3.990607-.1460412,1.3916785.1630887,2.83695.3203608,4.25346.3664918,3.3012185.8170538,6.5943057,1.1129805,9.9014767.0953011,1.0649425-.1207014,2.1762121-.3255938,3.2410288-.0898266.4668448-.5087491.870355-.874154,1.4565023.6483094-.029491,1.1627544-.0086898,1.6068155-.4801889.6452099-.6851065,1.3825006-.7968816,1.9579303-.3453232.5655071.4437742.6050365,1.2006837.2358477,2.0191112-.24255.5376917-.4174532,1.1364284-.4752176,1.7223644-.8636477,8.7591662-1.2174998,17.5117559-.6769501,26.3299193.4314817,7.0383063.2130036,14.1176314.2332513,21.1788926.0036631,1.2753748-.233835,2.551434-.3855721,4.085561,1.5128629-.5699854,2.9198378-1.0627235,4.2932611-1.6358788.5496471-.2293769,1.049017-.5214291,1.6247285-.1702439.5971668.3642476.6757827.9515321.6314833,1.5875641-.1201781,1.7261382-.1534077,3.4623801-.3626274,5.1773578-.3381128,2.7715625-1.302194,5.317693-3.1220131,7.6369022,7.7081617-.1912765,15.2365494.8219447,22.7662856,2.7942355-.1023255-.6794659-.309935-1.3584992-.2849776-2.0288677.0638025-1.7120191-.4435981-2.6742889-2.3326741-3.1545886-3.2559982-.8278519-5.7430461-2.9112033-7.5210615-5.7937761-.3892755-.6310506-.7779673-1.2675756-1.226577-1.8560879-3.315413-4.3494053-4.2167988-9.3889236-4.2547784-14.6872948-.0317402-4.4304464,1.0417914-8.6504857,2.3889692-12.8213548.207207-.6414964.6022589-1.0761582,1.3326461-.9484426.7461264.130473.9761373.7148894.8911814,1.3615887-.2644481,2.0126152-.6014136,4.0155795-.8817217,6.0262726-.4565398,3.2745553-.6174145,6.5564267-.2066636,9.8886458.3351742.0392878.6231708.0730508,1.0655211.1249079-.1956139.322303-.3494442.575792-.5614616.9251255.4997523.2214167.9730377.5035563,1.4851682.6461357,3.0370371.8454127,6.0516728,1.81203,9.1343377,2.4417018,3.4780992.7104111,6.9545681.1093598,10.3601902-.7263517,1.3785959-.3382838,2.7537502-.7788931,4.0422377-1.3664392.9268061-.4225957,1.7773713-1.089915,2.5334204-1.7873845.7472334-.6893382.6608888-1.1999893-.2173309-1.6965616-.8060243-.4557448-1.6718054-.8346951-2.5515749-1.1256403-2.704419-.8943816-5.522354-1.003993-8.3197394-.8401394-2.7909448.1634711-5.5666937.5913904-8.3473737.918222-.4218006.0495727-.7778063.4934124-1.0286083.5687576-.6792647.2040169-1.5136679.1467155-2.2158572-.0541013-.6713749-.1920212-.8544296-.8875485-.730991-1.5731431.1851076-1.028085.9312341-1.5919517,1.7976794-2.00386,1.8865198-.8968572,3.9012081-1.3533064,5.9710443-1.4477924,4.4736791-.2042383,8.8966182.2534789,13.2276174,1.3876631,1.2788467.3348924,2.4790172.9702703,3.7873902,1.4969928.1157501-3.5657119.7671994-7.1683366-.5271653-10.7161153-.271734-.7448182-.3127729-1.6102572-.29011-2.4153456.0206704-.7350264.5162766-1.2733823,1.2536679-1.4665809.7698762-.2017124,1.4841417.03646,1.8784087.6982041.3842035.6447872.6824649,1.3838994.8285664,2.1193183.4351448,2.1903463.5810451,4.4033656.3573541,6.6416141-.3548986,3.5510695-.5013424,7.1300953-1.0178806,10.6559759-.5728535,3.9101445-2.2359439,7.474216-4.4311106,10.7337163-.8233737,1.2225315-1.9296921,2.3938298-3.1701568,3.1654672-2.2050893,1.3717024-4.5846592,2.4769139-6.9451487,3.5780698-.9774053.4559561-2.0936061.6144357-3.2689399.942324.2402152,1.8237841.4919632,3.7352412.7492662,5.6888039.5278697-.2616303,1.036015-.4635339,1.4820284-.7591888.1782242-.1181352.2869702-.4361814.3114244-.6750984.1202384-1.1748809.1729107-2.3569573.3047423-3.5302985.1281483-1.140655.5260985-1.6297602,1.1905095-1.6025486.6840951.0280167.931073.502862.9222172,1.7266514-.0083326,1.1510607-.0017712,2.3022321-.0017712,3.5005609,1.9699058.2155094,3.8370031.4746138,5.7129965.6142244,4.6803226.3483171,9.3736271.5477652,14.0446511.9881028,3.7158992.3502896,7.2274696,1.6286532,10.7024088,2.9343795,4.7284864,1.7767172,9.5614921,3.3378244,13.8216847,6.1562626,1.6479751,1.0902672,3.2326711,2.2790055,4.8175683,3.4612429,2.5547147,1.9056404,5.1254504,3.793227,7.6171476,5.7790935,3.4990312,2.7887409,6.5249582,6.0541786,9.1812738,9.6473638,2.1933352,2.966955,3.4543897,6.3706449,4.2497265,9.9364976.6153616,2.7588825,1.1635394,5.5392606,1.5819587,8.3339893.618602,4.1318832-.1628673,8.1608773-1.2285897,12.1348041-3.0212777,11.2659033-9.2152481,20.4392068-18.3247894,27.681691-3.5009433,2.783377-7.3827893,4.9391553-11.2846012,7.0960405-11.0826876,6.126525-23.0252792,9.8908899-35.1649943,13.1993994-11.2757453,3.0730241-22.7177192,4.6823554-34.4043966,5.0070636-15.4680899.429791-30.9335029.6979626-46.4036054.3968231-6.8380431-.1330794-13.6868139-.3029912-20.5021337-.8274997-5.3308259-.4102276-10.6273655-1.328822-15.9218521-2.1350072-10.1018003-1.5381222-20.2121646-3.0374597-30.2772131-4.7923895-5.1591027-.899514-10.2345024-2.289059-15.335735-3.5073236-4.0583795-.9691734-8.1405038-1.8753091-12.1313272-3.0775325-2.4524748-.7388002-4.8170601-1.8559671-7.1103206-3.0212777-8.7734715-4.4582015-15.8092317-11.0485522-22.2033119-18.3923355-3.2875724-3.7758775-4.8309251-8.3478568-6.0685417-13.1045209-1.5846507-6.0905179-.2021275-11.8204009,1.7514076-17.5160883,1.8690848-5.4494743,5.2735169-9.9723437,8.7797963-14.4344499,4.2112412-5.359225,9.3959429-9.6359418,15.0471497-13.3428945,4.8455649-3.1784893,9.7591137-6.307889,15.2876467-8.2033855,10.0651189-3.4508976,20.2574704-6.4463122,30.8161627-8.0136084,3.046064-.4521521,6.0839263-.2799358,9.1167065.1480942.1611968.0227435.3229068.0418741.5566714.0720042Zm60.0464017,40.6814713c-.0265475.0765629-.0637119.1292754-.0581568.1770166.0252795.2176529.0688342.4331925.0946068.6508253.2967619,2.5056653.3637444,5.0580653-.4890146,7.4211513-1.1652301,3.229008-2.6437664,6.4018819-4.9293031,8.986787-2.2472653,2.5416523-4.7901554,4.8367292-7.3276615,7.1006295-1.2377173,1.1042655-2.7958256,1.8405297-4.143426,2.8323258-2.8717243,2.1135318-6.0000975,3.5726758-9.4941373,4.3905146-2.4204276.5665336-4.6983061,1.7875757-7.1285757,2.2559904-3.7638517.7254158-7.5998786,1.0871173-11.4117935,1.5494738-4.0665108.4932111-8.0684443-.2393699-12.0285137-.9563122-2.9869008-.540751-5.8628015-1.6713626-8.8379884-2.3052813-4.5551531-.9705823-8.7347472-2.8229668-12.6740959-5.196881-6.2450225-3.7633787-11.1332113-8.6733096-12.7182645-16.1454827-.0454567-.2142716-.1197151-.4226862-.1847856-.6325098-1.0983281-3.5418815-1.0971506-7.1516513-.0977214-10.6547281,1.1644049-4.0813242,3.564313-7.4698585,6.9041451-10.1195724,2.1513302-1.7068062,4.4387689-3.2434189,6.5718943-4.9715194,3.9024359-3.1614217,8.3171128-5.1885484,13.190141-6.2906603.4471807-.101138.8954383-.2700937,1.2960653-.4924664,2.2567854-1.2526515,4.4748465-2.5858309,7.0494567-3.1196985.0389658-.008091.0652918-.0771265.1084843-.1315196-.2252106-.6363741-.5072798-1.2663177-.6712743-1.9256265-.7220848-2.9031425-1.432194-5.8097468-2.0933243-8.7271895-.1457594-.643167-.4219717-.9098894-1.0638606-.994171-3.7798023-.496371-7.5483134-.6152911-11.3282465.0405659-5.7011518.9892098-11.1958816,2.7457094-16.7237856,4.3887434-8.4091031,2.4993957-16.5538084,5.5537722-23.7938321,10.6799975-5.6883058,4.0275551-11.2590802,8.1680526-15.6145512,13.7029255-3.0964896,3.9349811-6.189467,7.8845946-7.9078311,12.6683295-1.7752404,4.9420737-3.227901,9.9141768-1.9262051,15.289121.9663304,3.990129,2.1115266,7.8677684,4.7744086,11.0941398,6.2149276,7.5300985,13.2972265,14.0398407,22.1083353,18.4552725,1.664449.8341014,3.3775802,1.653973,5.1599128,2.1531014,4.0157154,1.1246139,8.0838414,2.0649856,12.1399415,3.0416864,4.5923477,1.1058354,9.156105,2.3902573,13.8010243,3.2053588,9.6568134,1.6945489,19.3536694,3.1649439,29.0445577,4.6594912,5.4017533.8330548,10.8122718,1.6363015,16.2408543,2.2618473,7.5711977.8724432,15.1941519.8398778,22.8026751.9599955,15.9654069.2521103,31.9268688-.0076281,47.8850904-.4962503,7.1499405-.2189209,14.2908239-.70231,21.2738918-2.2974117,6.0999574-1.3933691,12.1022588-3.2084584,18.1760915-4.7233943,10.1230946-2.5249066,19.5747137-6.6821095,28.7487217-11.556778,11.9763647-6.3637614,20.1361552-15.8668854,23.836617-29.0051995,1.1590108-4.1151174,2.0133599-8.310964,1.0656419-12.6054126-.7158555-3.2437409-1.5328288-6.467375-2.3925115-9.6764573-.6625593-2.4731804-1.8910081-4.6867632-3.5421231-6.6433651-3.0538431-3.6188269-6.2602686-7.0825152-10.1720434-9.8176882-.9449405-.6607177-1.8484799-1.3819068-2.757212-2.092962-4.7139749-3.6885567-9.6185319-7.0529688-15.3212436-9.0714511-2.719011-.9623906-5.4297297-1.9486115-8.155443-2.8915997-4.0017221-1.3844529-8.1256149-2.0569448-12.3575894-2.2626927-2.9582199-.1438071-5.9061952-.5315529-8.8527012-.8640301-.9409554-.1061798-1.8624681-.3845356-2.8343385-.5930005-.0361681.1761109-.0870491.3054769-.0856603.4342794.0603004,5.5739595-.0731615,11.1600958.2691377,16.716877.185168,3.0056189,1.1738846,5.9632752,1.8390403,8.933833.0395293.1764933.4163664.3680013.6534217.393643.8999568.0972937,1.8110639.0922016,2.7105577.1923131,3.0752783.3422589,5.7662323,1.5497958,8.0089993,3.6944036,1.6414137,1.569641,1.8843864,3.1204432.8804336,5.1427596-1.0897137,2.1950459-2.7079211,3.8702528-4.9414699,4.883947-1.1209508.5087491-2.2925208.9235456-3.4702296,1.286656-6.2665885,1.9321879-12.6549048,1.6249901-19.0369013.8584147-1.3192818-.1584394-2.6757984-.6991904-3.8328972-1.3755366-2.6235489-1.5335534-3.2055198-4.0919513-1.8508146-6.8134379,1.8266421-3.6696676,7.0052679-6.7080532,11.1165814-5.8113771.1511736.032968.3127125.0183558.5455613.0296068,1.5860847-10.4869095,1.7165678-20.9393617.3305651-31.2445348-.6452099.1333813-1.2449127.3835292-1.830104.3532583-1.4179039-.0733124-2.8275758-.2929781-4.243306-.4244473-1.6663913-.154736-3.3361639-.2731027-5.0036018-.4171211-2.9242054-.2525631-5.8478471-.5116876-8.7714889-.7706713-.4402973-.038996-.8793266-.092111-1.3818565-.1453669,1.2027668,1.1735626,2.3872785,2.1693438,3.3792356,3.3297233,2.210584,2.5859316,1.5846557,5.2139386-1.5503393,6.5184673-1.7963913.7474951-3.669567,1.3104863-5.5085067,1.9556157-.2724184.0955729-.546628.1860737-.6127451.2085253.2514259.9743762.5824339,1.8422305.6870941,2.7365718.3987351,3.4074335.8182614,6.8169501,1.0535858,10.2378485.2913377,4.2356376,1.5630796,8.1155313,3.7178918,11.7446431.4467983.7525067.8040921,1.5635023,1.1473976,2.3710361.8949854,2.1051388,1.0728675,4.3094834.7446169,6.5496138-.2793018,1.9061034-1.1097199,2.7441697-2.9829358,3.125012-.7798592.15854-1.5759609.2378403-2.3548942.4001843-5.1974445,1.0832731-10.4434151.8045349-15.6871114.5675399-.6011922-.0271714-1.2068526-.1111612-1.7953246-.2385246-3.4422934-.7451402-4.2398844-2.9680217-2.245786-5.8634053,1.9763263-2.869621,3.8515549-5.8109343,5.7054087-8.7620897,1.2242624-1.9489134,2.002914-4.1100655,2.3607311-6.3759382.6683559-4.2322966.5410327-8.4872862.0956836-12.7337622-.0843521-.8042933-.3205419-1.5926662-.4835904-2.3736928-.9030563-.0969113-1.722626-.1733434-2.539076-.2750047-1.4899584-.1855404-2.8990265-.5954158-4.1480451-1.4755777-3.1257366-2.2026439-3.0361515-4.9769738.2317015-6.9433776.9878512-.5944296,1.9953664-1.160782,2.9488005-1.8065152.988938-.6697446,1.6727917-1.6002139,2.1444065-2.8701142-3.1096149-.0811217-5.9367882.6567929-8.801941,1.2954515-2.874049.6406612-5.8136112.9874587-8.7625928,1.4692779.9939094,8.6342332,2.4372336,17.1129654,4.5055804,25.4309337,1.0265553-.0892832,1.9543678-.2403762,2.8817375-.237639,2.9918118.0088357,5.2838496,1.9195482,6.1284773,5.0373748.7429665,2.7424589-.2029401,4.8373733-2.9688067,6.439781-2.798593,1.6213673-5.7360016,2.897356-8.9638221,3.3940289-1.1613858.1786871-2.3239189.3497864-3.4738021.5225361Zm-55.8853646-21.7890212c.0661875.0804877.1323851.1609553.1985826.241443-.1826723.2848568-.3183078.7632746-.5561783.8210993-1.0306411.2505404-2.0887656.3945689-3.1412041.5477149-4.4029329.6407014-8.4493167,2.3354516-12.4233643,4.2258761-.9364067.4454498-1.8632531.9699784-2.6733731,1.6111629-2.7348207,2.164614-5.5308677,4.2726914-8.0896279,6.634147-3.9915781,3.6837967-6.4170023,8.1896186-5.8360427,13.8067303.2153283,2.0819123.9012902,4.1189013,1.4167415,6.1652291.8838753,3.5089538,2.8859843,6.3026359,5.5887075,8.6481308,4.6889269,4.0692078,10.0845515,6.7850992,16.0315742,8.4772127,1.6893461.4806921,3.3638888,1.0216041,5.0230948,1.5985433,5.2394897,1.8219324,10.6402065,2.3972414,16.1425442,2.0389211,1.8559973-.1208624,3.7033601-.4616721,5.5392707-.7884937,7.0369176-1.2526012,13.7110266-3.5023321,19.7362426-7.4324827,5.9404412-3.8748418,10.9089014-8.6719209,13.9342447-15.21129.5088799-1.0999382.8220554-2.3215036,1.0362465-3.520708.5844063-3.2719992.0242228-6.4497841-1.8373195-9.1450251-1.8360012-2.6582075-4.0880064-5.0344162-7.0032049-6.6319531-3.852199-2.1109958-7.6743685-4.2790716-11.5654125-6.3156983-1.3971027-.7312325-2.9193648-1.2985309-4.4488727-1.6876454-4.8153644-1.224987-9.6711841-2.2902867-14.4915098-3.4966563-2.7451358-.6870337-5.5130453-.9726352-8.3273373-.8625508-1.4193631.0555403-2.8359587.1819376-4.2538022.2762928Zm49.4223069,11.1828594c.0195433-.3301827.0414012-.5951541.0499249-.8605683.048516-1.5096828.0623533-3.0211972.1456286-4.5289276.4066551-7.3627328.0711387-14.7153618-.28536-22.0675078-.0090974-.1876839-.2023665-.5103995-.3369957-.5254042-1.141279-.1271521-2.2949159-.316597-3.4333369-.2592251-2.1900645.110346-4.3799982.5920445-6.5566481.5194969-3.9377587-.1312479-7.8400234-.074037-11.7473803.486056-1.8568627.2661689-3.7560626.2370251-5.7908074.3502694.0501463.5245286.1345789,1.1080091.1547763,1.6936935.0260644.7552037.0335617,1.5141812-.012519,2.2677646-.0396099.6478767-.1876537,1.2884775-.2464948,1.9360422-.047077.5181081.0043474,1.0457967-.0514344,1.5623752-.1920716,1.7789614-1.014137,2.6734134-2.7907838,2.9346915-1.1659748.1714817-2.3475479.2589232-3.5254479.3226754-2.4385217.1319624-4.8792575.2230067-7.3190774.330867.8879007.1917193,1.7937144.2223727,2.6662281.4087886,4.2946599.9176383,8.5588879,1.9936154,12.8751843,2.7896667,4.796908.8847106,9.3577671,2.2662752,13.5464485,4.8486846,3.268799,2.015272,6.6673565,3.8190096,9.9746483,5.7736189.9295132.5493452,1.7402975,1.2995976,2.6834467,2.0169425Zm-5.7938767-53.9719955c.1504993,1.5325973.0271815,1.6257952-1.4640852,1.2199351-.1323649-.0360071-.2684534-.0591028-.3995-.0990951-2.0303672-.6195782-2.5506088-2.6108588-.9850032-4.0665812.6680338-.6211179,1.4965902-1.1837871,2.3533344-1.4660979,2.4440567-.80535,4.9161502-1.5560352,7.4215437-2.1370501,3.2067778-.743681,6.4835873-1.0595635,9.7085095-.15537,1.7475231.4899706,3.4070511,1.2938111,5.1810612,1.9852224-.661714-4.4182696-.877958-9.0157598-2.4412791-13.2187313-1.3713301.6006186-2.5781425,1.2835866-3.8735939,1.6676995-3.9287116,1.1648879-7.9687454,1.5977986-12.0579896,1.3852982-1.9164184-.0995781-3.83493-.3439294-5.475116-1.4947587-3.5461384,3.6024033-4.6537953,15.7625774-1.466591,21.4603681.4763849-.0228139.9394157-.0555403,1.4029294-.0655535,4.9441468-.1068741,9.9159882-.0725778,14.7257373-1.400957,2.5270804-.6979425,4.9786645-1.6894467,7.4254584-2.6476006.9304692-.3643583,1.0021615-.8087112.2333519-1.4548167-.8415886-.7072512-1.7999337-1.3739466-2.8211151-1.7473318-1.7750769-.6490139-3.6951483-.7284852-5.5390191-.4055783-3.2146072.5629409-6.3983697,1.3043576-9.5900422,1.9941387-.7957494.1719647-1.5723883.4324377-2.3385914.6468603Zm-29.1707035,20.7396721c-.2196455-2.3452937-.4460335-4.6621178-.6515096-6.9808036-.2882985-3.2532408-.5136399-6.5127814-.8521552-9.7606484-.4462851-4.2820605-1.2339837-8.539405-.7901038-12.8753654.0039851-.0389054-.0585091-.0846238-.1223518-.1709684-3.4641311.5849397-6.9508044,1.1797517-10.4405772,1.7558355-.4764655.0786461-.5566009.3328898-.5125933.745271.1455682,1.3640341.3182877,2.7271725.399349,4.0954735.0740571,1.2501658.0513237,2.5065811.0538094,3.7602792.0012277.6233017-.1390974,1.2633892-.0405256,1.867359.75145,4.6044742,1.5355963,9.2037254,2.3331068,13.8005111.2703151,1.5581083.6083172,3.1044825.9037708,4.5974499,3.3371904-.2864871,6.5531762-.5625585,9.7197806-.8343932Zm56.8120903,46.6084174c.2621335.0675662.3647206.1045797.4704274.1191918.2719554.0375569.544555.0836879.8181407.0941137,5.9874276.2281391,11.9709304.3369655,17.9359567-.4366342.749065-.0971528,1.0508687-.4384456,1.1160599-1.1450427.1539712-1.6684845-.2169485-3.2342209-.9798809-4.6928416-.8138939-1.5559748-1.7022978-3.0738694-2.5857907-4.5923477-1.0321506-1.7739699-1.7997123-3.6464008-2.1202743-5.6774926-.4451882-2.8208333-.9539574-5.6375003-1.2423163-8.4756025-.2914182-2.8683832-.9080478-5.746367-.2268711-8.6703107-1.7975788.2610869-3.56859.5183094-5.3385546.775381.2182769.778551.5432064,1.503524.6094845,2.2514417.2444821,2.7589429.4424912,5.5234811.5829974,8.2897402.1293962,2.5472878-.290432,5.0419839-1.0197524,7.476118-1.5353447,5.124283-4.3217407,9.586671-7.4217349,13.8779194-.1725081.2388063-.3507927.4734665-.5978914.8063664Zm7.1147385-49.9768649c-.0111101.1662285-.0291036.2741795-.0239108.3810134.2232885,4.5943-1.831855,7.89655-5.742241,10.1558714-.5222744.3017534-1.0249049.6397454-1.5219602.9822559-.4129649.2845851-.4590758.6624084-.0143706.9142771.7079255.4009592,1.4295574.8922481,2.2030363,1.0367194,1.2309446.2299102,2.5091875.275055,3.7676255.277118,4.9656625.0081011,9.667843-1.2789373,14.2705963-3.0107613,1.286817-.4841942,1.3848152-.8252052.4662208-1.8504926-1.67412-1.8685565-3.5801228-3.382305-6.0754227-4.0645082-.6754406-.1846648-1.2596859-.7100992-1.878932-1.0902773-.323098-.1983612-.6057409-.4908764-.9518239-.6172334-.6057208-.2211449-1.0882243-.5169609-1.2518766-1.1816537-.164719-.6688993.0982397-1.1893723.5961202-1.5999522.5804614-.4786995,1.2648384-.5969052,1.9959501-.7885641,1.906043-.499702,3.8430613-1.3071654,4.6454426-3.341256.5870832-1.4883482.9271483-3.0833492,1.2731105-4.6537752.1763725-.8005296.1232977-1.651608.181203-2.5989034-2.6063202.9740743-5.1146221,1.4558331-7.7371042,1.3393282-2.6123985-.1160621-5.1863344-.4057695-7.7562248-1.3576639-.1145425.7950752-.1937421,1.4980897-.320079,2.19252-.3465258,1.9046844.4665831,3.3239972,1.8985557,4.4433881.6885835.5382653,1.4675772.9621088,2.2125363,1.4266792.6661822.4154506,1.3097617.532036,1.9411243-.1074679.1406874-.1424989.4301936-.138081.6511876-.2012897.0368323.2278774.1316706.4638056.1013392.6823642-.254123,1.8317443-.8186237,2.3389638-2.9301025,2.6322638Zm36.7453228,6.9284333c.0305125.4525546.0378186.9112379.0954219,1.3635208.9584658,7.5235069,1.0009337,15.0631858.4085168,22.6142566-.2004846,2.5554795-.6408021,5.0636204-1.5259253,7.4794993-.3815065,1.0413486-1.1502153,1.2917079-2.0456234.6893684-.1506905-.1013795-.3346509-.208636-.5067163-.2147546-3.89517-.1384735-7.4414996,2.3209199-8.6141968,5.2677681-.3726909.9365274-.2500372,1.5639451.6557564,2.0153726.8927111.4449466,1.8835008.869867,2.8579273.9416196,3.1736589.2337142,6.3592933.4009894,9.5407211.4074501,3.5377354.0071853,6.9995921-.6110343,10.3084639-1.9170927,1.6835998-.6645116,3.0269132-1.7476036,3.9364102-3.3499911.3414538-.6015344.3028503-1.0283466-.2293265-1.5035642-1.31741-1.1764005-2.8010686-1.8841247-4.5903752-1.9770106-2.028435-.1053244-4.0532673-.2815157-6.0790656-.4348027-.7536942-.0569794-1.423318-.2978588-1.6892958-1.0860909-.2692383-.7979735-.013324-1.5019339.6588761-1.9578699.4678511-.3173417.3758709-.6439217.2737065-1.0540487-.4903531-1.9687183-1.1416815-3.9160417-1.4217079-5.9149907-.9399289-6.7091702-1.122098-13.4581918-.7139434-20.221584.0661774-1.0963959-.0994674-1.2535975-1.3196239-1.1470554Zm-14.3557937-24.5139998c.1756278.5776336.2374377,1.0523178.4523332,1.4427305,1.1892214,2.160498,2.4187571,4.2987759,3.6287495,6.4478921,1.4623442,2.5973335,3.7560726,4.0798751,6.5413215,4.9226612,1.8919138.572461,3.7439159.5493754,5.5309885-.3479347,1.8645211-.9361953,3.7800438-1.7977398,5.5416557-2.9018846,1.0853864-.6803012,2.1301365-1.6190728,2.8253619-2.6822894,1.0122652-1.548085,1.7106303-3.304625,2.504518-4.9903281.2275353-.4831476.322776-1.0285781.5053275-1.6337554-9.2390784,4.4971271-18.3290362,3.5467321-27.5302558-.2570917Zm-17.1964722,5.2992769c.1044992-1.6215182.304219-3.258967.2992275-4.8957918-.0216365-7.0874866-.1503484-14.1748222-.1465444-21.2621477.0026366-4.9137349.0829633-9.8302373.2706069-14.7400777.1299799-3.4005098.503496-6.7916455.7628519-10.1873801.0217975-.2854657.0028782-.5740409.0028782-.8864365-1.1062178.1132997-2.1284861.2180051-3.2260493.3304243.0308144.3225999.0484657.6433431.0937916.9601263.3902818,2.7284455.465456,5.4613442.3413532,8.2188379-.3372272,7.4914346-.5895186,14.9866933-.8801921,22.4802513-.1074981,2.7720556-.1065722,5.5553622-.3729525,8.3124836-.350994,3.6325233-.9146293,7.2445573-1.3928861,10.864612-.0523703.3963199-.1691268.8036996.4532591.8045751,1.260652.0017712,2.5212838.0005233,3.794656.0005233Zm-1.1984999-57.699367c.4831275-4.3629507.0200263-8.56794-.7519632-12.8389256-1.1929449,1.2691053-2.3646558,2.5373602-3.3102203,3.9563258-.4166884.6253194-.5584426,1.5691227-.5069175,2.3472712.1986531,2.9995456,1.9186827,5.0161359,4.5691011,6.5353287Z" stroke-width="0"/>
      <path d="m198.5132674,49.6691313c2.1960523-.0901688,4.3914404-.2121683,6.5884185-.2567697,1.0653601-.0216365,2.1399383.0496834,3.1984553.1774694.7275492.087834,1.3105266.4966528,1.3235487,1.332948.0123177.7905064-.5177861,1.1786447-1.2102339,1.3537895-.4767875.1206209-.9698376.2338853-1.4579163.2444016-6.0195301.1298591-12.0345115.1257633-18.0098629-.7758137-.1888512-.0284897-.4320251-.0234278-.5489628-.1374772-.2861651-.2791408-.691361-.6093436-.7090123-.9372721-.0147531-.274099.4068463-.7484612.7142856-.8278419.7349761-.1897972,1.515902-.2611171,2.2795188-.2697515,2.6097619-.0294759,5.2200471-.0112812,7.830131-.0112812l.0016303.1075987Z" stroke-width="0"/>
      <path d="m237.923198,164.7134599c-.0247159,1.2468449-.4757006,1.6314509-1.7320656,1.3568991-3.0318041-.6625996-6.0462386-1.4055258-9.0814642-2.0513797-6.1692948-1.3127204-12.4468927-1.8035162-18.7159568-2.2895018-4.9279446-.3819895-9.8739631-.5254343-14.8073219-.8461373-1.7723396-.115247-3.5311539-.4389287-5.3549178-.6751185-.2690169.4392708-.5414353.981632-.9021305,1.4570106-2.1648555,2.8531371-5.1091677,3.9429715-8.5668179,3.4271579-2.2391039-.334027-4.4437101-.950878-6.6296989-1.5627375-.8196703-.2294071-1.6198175-.7066373-2.2926214-1.2420748-1.0721429-.8532622-.8298747-2.1320284.5062131-2.3911429,1.7115763-.3319338,3.4742952-.4409414,5.2209729-.5379131,1.2854886-.0713702,2.5818659.0740269,3.8708164.0355241.5708609-.0170475,1.1352811-.2497957,1.7026399-.3846262-.0046091-.1134557-.009198-.2269113-.013787-.3403468-.7836028-.0882567-1.565193-.2053151-2.3511506-.2594767-2.5182849-.1735145-5.0442985-.2628782-7.5540697-.5162363-.8686191-.087673-1.7343802-.4870522-2.5346481-.8800713-.6605869-.3244264-1.0919478-.931073-1.0038119-1.7471809.0908732-.841488.7127962-1.1942129,1.4144018-1.4320934,1.7570632-.5957781,3.5412576-.6335966,5.3660279-.3249497,1.0235162.173112,2.0748075.1873015,3.114868.253016.2548274.0160814.5146463-.0465537.7977923-.2730423-.4290866-.1333008-.8603067-.2601007-1.2868975-.4009491-2.110875-.6968959-4.2299618-1.3706659-6.3257014-2.110553-.7989798-.2820793-1.6382337-.6469408-1.5914184-1.7361715.0334913-.7787724.5872442-1.252259,1.9144963-1.4852084,2.9576765-.5191145,5.9397066-.7604971,8.9354431-.4051556,2.2352999.2651324,4.0396212,1.3463928,5.1214451,3.3264426.7867024,1.4399429,1.8747254,1.9129666,3.4494586,1.9792648,4.3320055.1823704,8.6597441.4814167,12.9854498.7868835.9221367.0651308,1.8233816.3855922,2.7433445.5309693,1.5416243.2435966,3.084275.5232606,4.6376333.6420701,4.3243371.3307865,8.6510694.6677319,12.9832761.8463184,3.3922779.1398421,6.7153391.5098762,9.9898139,1.4620222,1.8897603.5494861,3.8879444.7178279,5.7939472,1.2218673,2.0057519.530446,2.938415,2.0749685,2.585046,3.9820983-.2503995,1.3513239-1.1788963,2.1186038-2.3886069,2.5845227Zm-.5873046-4.1642876c-1.2164934-.3091299-2.2385806-.6003871-3.2752195-.8242593-1.2808192-.276645-2.6172693-.365586-3.8511121-.7733582-1.7961095-.5936446-3.5981766-.9028148-5.4856223-.962451-2.025738-.064044-4.0651019-.1819879-6.0638497-.4966528-2.6379195-.4152594-5.262837-.7881716-7.9416746-.6834108-2.1288484.0832853-4.2249703-.1812231-6.2618587-.8071916-2.450457-.7530702-4.9597653-.8633861-7.4957619-.8187646-1.1503361.0202477-2.304436-.0218176-3.4531619-.0937715-2.0541572-.1287119-4.1035042-.3739589-6.1587885-.432951-1.6471097-.0472983-2.8278777-.7351572-3.6903581-2.0827577-.2071466-.3236616-.4160443-.646981-.6408222-.9584054-.6919447-.9587275-1.5947192-1.6386966-2.7989352-1.6748647-1.9069889-.0572813-3.8169969-.0152361-5.7257168-.0152361.9263231.3863571,1.9062845.590223,2.8516074.8998763,1.2201767.3997214,2.4755755.7652873,3.601095,1.3619509,1.4082429.7466095,1.3536989,2.1296333-.0038644,2.9875851-1.0141571.6409631-2.1444065.8126259-3.3184321.7544187-2.0562102-.1019632-4.1115549-.2222016-6.1680268-.318328-.3337855-.0155984-.6715158.0536182-1.0074347.0836275,1.0157673.6735084,2.1117002.6274981,3.1994214.59926,1.8935643-.0491299,3.793549-.2409197,5.6775127-.1351123,1.2824495.0720143,2.609782.3894767,3.7928647.890477,1.1696177.4952842,1.2465832,1.738949.3499072,2.6629373-.9198623.9478589-2.0653881,1.4587213-3.3807854,1.4909245-1.2065104.0295464-2.415577-.0583682-3.6228523-.0429308-1.5726601.0201068-3.1446559.091155-4.7169336.1402849-.0139077.0911952-.0278356.1824106-.0417634.2736059.5961403.2434959,1.1737236.6206952,1.791742.7064965,2.2515826.312632,4.5120613.6683559,6.7778937.743047,2.6354238.0868478,4.6479987-1.2802556,6.2068919-3.3333461.2268308-.2988048.4210962-.6614926.502711-1.0233954.1824106-.809003.2559948-1.6760925,1.4374069-.9688111.0390463.0233674.1078604-.0069438.1625453-.0050921,6.9435184.2358477,13.8920082.3757502,20.8292471.7333861,8.6508077.4459731,17.125263,1.9603254,25.3523782,4.7370806.1436662.0484858.2992879.0615684.4619137.0936507q-.0627156-1.8240659,1.3330889-1.4123891c.2082335-.3480957.42645-.7128767.774747-1.2951294Z" stroke-width="0"/>
      <path d="m92.1444121,127.8026532c.063732-.3142019.1480841-.6800094.2112425-1.0493994.4940162-2.8890234,2.1300862-4.9401616,4.6486327-6.3437552.191025-.1064716.3918215-.198955.595768-.2781344,1.8653865-.7240069,2.9342286.074188,2.6891124,2.0567134-.1164043.9416196-.3610374,1.8673791-.5708408,2.9166779,2.8726703-.6912603,5.7102492-.4057192,8.4997549-.1331599,3.8173189.3730129,7.6141285,1.0170151,11.3914049,1.7012311,1.119723.2028193,2.2746078.7595712,3.1887843,1.451053,3.3546505,2.5374256,5.9850124,5.7213693,7.2210893,9.7831503.8434906,2.7717235.3150875,5.5560264-1.0340124,8.1303045-1.4953625,2.8533585-3.6233454,5.0814126-6.32865,6.8923155-2.4596148,1.6464656-4.9863027,2.9365029-7.8932492,3.541157-1.360844.2830655-2.6794515.8022806-3.989646,1.2887089-2.7138585,1.0075353-5.4606951,1.7839126-8.3876578,1.8870029-2.715197.0956836-5.4256641.4893467-8.1372583.4797864-3.0708705-.0108082-6.137313-.3015622-9.1453472-1.0587786-4.2865488-1.0790464-8.3638577-2.6768249-12.2557269-4.755376-3.9352025-2.101677-5.5061619-5.491278-5.2560643-9.8335683.0773479-1.342931.1617402-2.6889212.3293676-4.022634.8032769-6.3911744,4.6355301-10.2760394,10.4320032-12.5150225,2.649724-1.023496,5.4319336-1.1237685,8.202047-.9767008.9208687.0489085,1.8410027.1549776,2.7767653.1812835.9271382.0260845,1.8440721.4154204,2.8124806.6571452Zm-13.1591354,3.1399261c-2.5317599,1.5069254-4.655174,3.0861871-6.1418416,5.4455294-1.5794831,2.5066112-1.7904035,5.3172603-2.0621879,8.1350947-.3291663,3.4127671.9693847,5.9606386,4.0518584,7.4967481,1.4694691.7322791,2.9998223,1.3484457,4.5246205,1.9624991,4.7931342,1.9302758,9.7582533,3.235187,14.9146187,3.5831619,2.7560648.1859731,5.5386367.010466,8.3083173-.0466945,2.1215624-.0437761,4.1962391-.3930593,6.2249257-1.0502649,2.0855754-.675662,4.1949812-1.2777397,6.2942731-1.9109741.4546378-.137125.9105637-.269983,1.4878752-.4409414-.2477528-.1666311-.350682-.260624-.4715947-.3135579-3.4435714-1.5079921-6.8862975-3.0180574-10.3416432-4.4986768-.178667-.0766032-.5381244.0290633-.6945511.1762316-2.197119,2.0668372-4.8851949,3.1515997-7.7637221,3.7526712-2.8977082.6050968-5.6967943.3603128-8.1182283-1.6043198-2.9085768-2.3598857-3.0506731-6.5388257-.252865-9.0138376,1.9192362-1.6978095,4.1739888-2.2297649,6.6778929-1.60595.4387173.1093296.8732282.2355257,1.3322939.3600713-.983222-2.1515717-1.9326911-4.2292976-2.9394918-6.4324547-.3022264.6082366-.5437096,1.0647563-.759531,1.5330905-2.4345769,5.2830847-9.1330697,6.2463206-13.2406697,2.7416136-2.4263147-2.0701783-3.2140537-5.3216882-1.2108076-7.8211745.046604-.0581468.0596966-.1431429.1804583-.4478651Zm32.1429317,17.063272c.3485486-1.2217264.5827559-2.3221678.9749397-3.3630737,1.0300775-2.7339855,3.9057467-4.6528292,6.6635022-4.5280421,2.4594035.1112819,3.7867159,1.6215283,3.5064078,4.0664303-.3228163,2.8158016-1.8671577,4.8069413-4.3065751,6.1541392-.4278287.2362905-.8709236.4449064-1.2993158.6624184.6366559.8070507,1.2421955,1.5746526,1.8704988,2.3711166.2445828-.1302818.508568-.2272132.7210382-.3909661,1.7824936-1.3738258,3.7008644-2.6127206,5.291377-4.1828849,1.6550799-1.6339064,3.012291-3.5804045,3.3698363-6.0104327.2560954-1.7406396.4988164-3.4360943-.3884704-5.1416526-1.4680502-2.8219403-3.6381488-4.9222486-6.2552771-6.6308462-1.8390504-1.2006132-3.9592241-1.358791-6.0455844-1.7212775-4.7987295-.8337189-9.5933833-1.5766452-14.492184-1.2491192-1.9604159.131107-1.9535929.086566-2.7251699,1.9430967-.343074.825487-1.0435827,1.6389582-1.0207588,2.4419433.0232869.8188854.7843878,1.5974565,1.1362875,2.4300886.9460274,2.2383994,2.0831602,4.36125,3.5921285,6.273955.1882474.2386051.3954041.4622961.7209375.8406426-.5201611-2.5705948-.2666017-4.5733277.8249235-6.7695813.9321196-1.8754902,2.3317684-3.2776146,4.3677007-3.8854487,2.8326579-.8456542,6.0065482.3975275,5.1822285,4.4994417-.2299304,1.1441773-.7267844,2.2395668-1.1479611,3.3394446-1.0313254,2.6932284-3.11676,4.1595577-5.8035678,4.9035507-.2970336.0822387-.5963919.1561248-.8946734.2338954-.0264669.1087057-.0529238.2174114-.0793807.3261171,2.0767498,1.1277738,4.1534995,2.2555476,6.2371126,3.3870449Zm-8.6815315-.573256c-.9288088-.8663246-1.7841642-1.6728722-2.6526223-2.4650692-.1355852-.12366-.3219709-.2101657-.4998932-.265857-1.0199336-.3191934-2.0362141-.6551526-3.0692905-.9261017-1.4667822-.3846664-2.9293981-.4633226-4.3153806.3210451-2.0424232,1.1559113-2.2250552,3.7972926-.2547066,5.0611448.8179394.5246494,1.8521933.845614,2.8251103.9703407,3.0390095.3894969,5.5181374-1.0413486,7.966783-2.6955027Zm-10.0765913-14.8001768c-.0439371-.0889813-.0878642-.1779827-.1318014-.2669841-1.3575733.5009398-2.4921198-.2746323-3.7223096-.5219121-1.2002711-.241282-2.4291526-.4453492-3.6482626-.461974-1.627023-.0221799-2.8191628.8735703-3.5116307,2.3075556-.207197.4290665-.2137181,1.1112697-.0221195,1.5511846,1.1797416,2.7087664,5.1781327,3.6512917,7.3346255,1.6434667,1.367667-1.2733722,2.4765516-2.8246775,3.7014984-4.2513367Zm11.95818,9.0021841c2.0332554-.5345519,4.106493-.9349777,4.834324-3.3584243.1967511-.6551526.5195875-1.2726879.7125043-1.9286657.160593-.5460846.2479339-1.1197834.3082142-1.6875648.0597972-.5630919-.2814654-.9647656-.8082282-.9149111-.7148592.067687-1.4851179.1825918-2.104052.5148476-2.0082678,1.0780803-3.4279831,4.7017981-2.9427624,7.3747184Zm14.1512636,1.192019c-.4460838.1191315-.9088227.1961372-1.335333.3647608-1.7600923.6958292-3.3010222,3.0406801-3.2957188,4.9685004.0012781.4649327.5027613.7865212.8944722.5272458,1.187732-.7860784,2.4251776-1.5217992,3.499625-2.4443988.5838528-.5013424.9993034-1.2974642,1.2694877-2.0409942.3557641-.9790758.032183-1.3027576-1.032533-1.375114Zm-20.2422746-20.7504098c-2.8703959,1.3794614-3.7234267,3.6834546-3.8952304,6.4148437-.0522194.8301363.1561449,1.443928,1.0382994,1.8778854.2845549-.5054885.6158446-1.0014369.8471939-1.5402758.1354444-.3154498.2575345-.7675818.1307045-1.0391749-.3283914-.703256-.0517967-1.1470554.4279997-1.5871515.2159119-.1980694.5304359-.382694.6001557-.629853.3101061-1.0992338.5478155-2.2188964.8508772-3.4962739Z" stroke-width="0"/>
    </g>
  </g>
</svg>