<?xml version="1.0" encoding="UTF-8"?>
<svg id="Layer_2" data-name="Layer 2" xmlns="http://www.w3.org/2000/svg" viewBox="0 0 98.6259091 93.5494615">
  <g id="Layer_1-2" data-name="Layer 1">
    <g>
      <path d="m61.3153594,83.7775899c.4745491-.2058947.9616324-.3872184,1.421542-.621788,2.4355141-1.2422436,4.7609122-2.6582336,6.9142072-4.3534223,1.8726572-1.474246,3.9072195-2.7035823,6.0023741-3.8323253.7285374-.392495,1.4843995-.7219105,2.3320072-.7622846.0679209-.0032246.1343583-.0375493.1919569-.054605-.101455-.4035368-.2231458-.7849012-.2890769-1.1756729-.0832533-.4933904.0167892-.9675219.2845465-1.3957541.4350988-.6958916,1.2469428-.9570931,1.9979547-.6368273.233326.0995095.4602472.2198057.6759222.3534534.2789501.172867.2648613.3924773-.0190811.5507402-.625821.3488164-.6307156.3855128-.2698537,1.0342347.471511.8476344.9432086,1.6954286,1.3972997,2.5524436.9126949,1.7225401.6241154,3.468745-.8158681,4.791577-.4692991.4311014-1.003721.7913149-1.505577,1.1817846.4046561.2293729.3984468.2428043.163433.6844856-.0718739.1350778-.1137315.3200437-.0867533.4669895.0629907.3429712.0279288.6415531-.181155.9308965-.0575453.0796467-.0618537.248916-.0170646.3414877.120918.2498576.2902317.4757039.4246167.719743.4648131.8440633.3652858,1.5874978-.3948135,2.1672594-1.5416339,1.1759039-3.1840476,2.1643369-5.1180876,2.5858089-2.20448.4803942-4.4235907.5076035-6.658922.3267505-1.7884712-.1447161-3.5800515-.2505949-5.369029-.3895636-1.9555463-.1519115-3.8377707.2374478-5.7043962.7455665-.747805.2035495-.8814971.0996694-.7558798-.6573652-.0351863.0026472-.0726379-.0046903-.0994296.0089276-1.6609174.8441166-3.4835711,1.0869742-5.2809388,1.4244112-.0937666.0176065-.2052195.0304338-.2720656.0878459-.5458678.468775-1.2118986.5206173-1.8809763.5501362-3.1315079.1381781-5.735665-.9885129-7.8389699-3.2949987-.2705155-.2966454-.5535873-.434708-.978999-.4917381-.6370627-.085403-1.2908347-.282832-1.8624193-.5780028-2.1630621-1.1170439-4.3003275-2.2845087-6.4377172-3.4505789-.8083085-.4409706-1.5742663-.9606996-2.3887219-1.3890295-1.3759223-.7236072-2.8228081-1.011858-4.3563538-.54422-.3739203.1140247-.7178731.0340493-.9529268-.2724653-.7063205-.9210451-1.281072-1.9173041-1.4995675-3.073212-.1796537-.9504307.2611259-1.9229805,1.1236752-2.2578325.0332809-.0129162.0631018-.0347599.1478386-.082436-.1886613-.1111821-.3145583-.1982818-.4508354-.2637776-2.8406366-1.3651515-5.6886374-2.7151482-8.5221053-4.0949924-2.32059-1.1300844-4.6513313-2.2445166-6.9243985-3.4649253-1.2349816-.6630594-2.3485232-1.5456135-3.3456195-2.5523459-1.9366051-1.9553153-2.7820431-4.2749393-2.3645818-7.0231685.0964715-.6350684.1890655-1.2715226.2529556-1.910393.0282619-.282601.0433433-.5934684-.0430924-.8561356-.4843828-1.4719452-1.0014557-2.9331418-1.5077023-4.397896-.0870886-.2519807-.1849503-.5006346-.2622696-.7555423-.5096066-1.680074-.0008794-2.9072384,1.5794985-3.6722457.5384037-.2606285.9475814-.6233959,1.2659861-1.1052647.0864113-.1307695.1061475-.3062481.1523423-.462428.0099092-.0334941-.0070888-.0751385.0034067-.1082417.3820884-1.2049386-.0713964-2.3214939-.3750418-3.4497039-.231214-.8591026-.4333977-1.7154025-.3263352-2.6159718.1111887-.9352582.4903034-1.7387164,1.1257694-2.4330624.6958295-.7602992,1.3692022-1.5411764,2.0666861-2.2999255.2093169-.2276985.2824101-.4439954.2034895-.7526908-.2730605-1.0681108-.5493678-2.1367901-.771059-3.2162181-.1990502-.9691875-.1922656-1.9543737-.0091075-2.9301659.3404839-1.8139704,1.4493197-3.0812735,2.9296285-4.0789139.1105291-.07449.2197747-.1561532.3407238-.2091281,1.8312193-.8019836,3.1521813-2.2269234,4.4626101-3.6610085.6553621-.7172069,1.294459-1.4471611,2.1384868-1.9574739.0628397-.0379934.116512-.1192613.1388177-.1914239.1094854-.3542218.1688429-.7288083.3160019-1.0655657.3832743-.8770555.7837509-1.7478328,1.212245-2.6036486,1.1453768-2.2876201,2.8542501-4.0095228,5.1704674-5.1268243,1.7467912-.842622,3.4920723-1.6904829,5.2124938-2.5851138,1.9785893-1.0288782,3.9295652-2.1108845,5.8904147-3.1737342.1140691-.0618292.2280627-.1429639.3102011-.2416562,1.2461966-1.4973067,2.8944332-2.233688,4.7857185-2.3806959,1.0674712-.0829713,2.1579454-.0212775,3.2259363.0907774,1.4296745.1500016,2.8505325.1651608,4.284129.099072,1.7660811-.0814189,3.5368791-.1763314,5.3025472.0534146.1225836.0159542.2665269-.0237714.3818929-.0775769,1.186164-.5532187,2.4164597-.6453085,3.6524761-.2556694,1.0037654.316426,1.9974039.6827667,2.9605642,1.1064617,1.968569.8659737,4.0117303,1.3208954,6.1604061,1.4397725,1.3508584.0747365,2.700713.2927612,4.0318774.5468161.6898511.1316578,1.3369207.4846515,2.0060739.7301452.1305652.0479026.2853637.1114619.4095241.0829846,2.2121818-.5072837,4.1210202.1976955,5.7804541,1.5825921.9799673.8178401,1.834042,1.7968658,2.6859047,2.7556755,1.6987243,1.9120031,3.3559374,3.8608759,5.0344435,5.7909074.0924207.1062563.209368.2170053.3373571.2626139,1.7924775.638786,2.8329926,1.9665304,3.4176045,3.7118692.200165.5975502.3861969,1.2001506.5648112,1.8045409.2829653.9574395.8314492,1.7247742,1.5497442,2.4161799,1.1608558,1.1174125,2.293001,2.2676306,3.384026,3.453004.3741779.4065305.589089.9597847.8756964,1.446637.0427015.0725268.0667306.1598264.1210069.2211915,1.0632561,1.2021893,1.4387843,2.6719892,1.6168656,4.2095146.0807926.6976194.0765642,1.4048282.1484293,2.1038246.0555466.5402536.099625,1.0978739.269978,1.6072451.6413755,1.9177749,1.1322696,3.889462,2.0190345,5.7220471.1566374.3237125.2999855.6800618.3327911,1.0322049.0752229.8073757.1829938,1.6377234-.4364047,2.3307058-.0735706.0823161-.0727089.2758765-.0407472.4011251.5077189,1.9890359.2950819,3.9494235-.2579413,5.8858932-.1309383.4585283-.351206.9170521-.6305735,1.3030668-.9801627,1.3543273-1.9840258,2.6929091-3.0236171,4.0019365-.3089397.3889951-.761112.6659553-1.1565563.9831386-.0819919.0657712-.2034518.0823383-.412118.1616297.0800287-.2115.1076465-.3237835.1617363-.4214098.5692528-1.0276167,1.0893105-2.0874528,1.7261378-3.0716308,1.3408915-2.0722848,2.1543699-4.3051599,2.2847308-6.7760292.016887-.3199815.0023185-.6416286.0023185-1.0752706-.3775713.2760497-.6681494.4658036-.9335437.6859291-4.3679552,3.6229617-8.4685618,7.5031363-12.0094118,11.9686646-2.4566028,3.0981293-5.112278,6.0487532-8.1217531,8.6207398-1.7528496,1.4980263-3.7492674,2.711053-5.6358979,4.0525752-.5235133.3722502-1.0618259.7257747-1.5662581,1.1223471-1.0387652.8166587-2.0964959,1.6152311-3.0768452,2.4984782-.9888327.8908866-1.8942611,1.8744338-2.8342007,2.8194013-.1999607.2010267-.3911981.4107145-.6285126.6607142-.1589292-.3785573-.0242422-.6253857.1417314-.8378362.8652053-1.1075566,1.7013004-2.2415762,2.6237224-3.2999732,2.5309374-2.903996,5.4442963-5.4202406,8.2286978-8.0693156,1.6739757-1.5926323,3.1893064-3.3546582,4.7436877-5.0697808,2.7949637-3.084005,5.7081716-6.0449423,8.7717719-8.8663557,2.3864522-2.1977999,4.9317094-4.1931562,7.4483803-6.2294018.750088-.6069042,1.4216575-1.3117013,2.1164742-1.9847942.0724513-.0701906.0874284-.2328685.0764488-.3475994-.0135291-.1413894-.0892494-.2756677-.125866-.4162087-.1603683-.6154365-.0336229-.9021194.5390855-1.1961576-.7300031-1.2512156-1.6902941-2.3175231-2.6731573-3.4171648-.2310075.2528779-.4547485.4887489-.6685936.7332721-1.8998753,2.1723895-3.7510085,4.3898212-5.7106233,6.5068595-1.7616617,1.9031843-3.6483899,3.6902208-5.4682454,5.5400083-2.8308518,2.8774042-5.8215566,5.6133657-8.2302435,8.8748125-2.1676414,2.9350694-4.2244383,5.9517754-6.3765875,8.898544-1.7158155,2.3493116-3.5198678,4.6340158-5.2509713,6.9723922-1.5864762,2.1430172-3.1277192,4.3195329-4.6889672,6.4812226-1.3344334,1.8476599-2.6689733,3.6952221-4.0033179,5.5429264-.0256991.0355772-.0495149.0724957-.0524641.1312403,1.4725049-.8011308,2.9072828-1.6494137,3.9565212-2.9996946.3490029-.4491343.6711075-.9214715.9770803-1.4013327,1.1062419-1.7349499,2.4833501-3.2330739,4.0742235-4.5196802.6352905-.5137506,1.2010078-1.0309568,1.6559606-1.7257203.3824837-.5840966.9106517-1.1268775,1.4886989-1.5195947,2.6975062-1.8327184,5.4012483-3.6646106,8.3196351-5.1372665.7177088-.3621589,1.5130478-.5750269,2.2814795-.8300456.3512948-.116583.4904322.0253438.4779336.3946181-.0296521.8761672-.3121199,1.6256511-1.0021397,2.2115422-.8500417.7217506-1.6633336,1.4868779-2.5157916,2.2056526-1.0353096.8729515-2.3005962,1.3360146-3.5097943,1.8947142-.3960394.1829938-.7991943.3524585-1.2065065.5088027-1.1665677.4478018-2.2165079,1.0813867-3.175724,1.8842764-.4332422.3626386-.9314651.6475493-1.3992807.9690765-.059091.0406228-.1246401.0803751-.1666398.1360461-.7810104,1.0354251-1.5592581,2.0729288-2.336351,3.1112942-.0347599.0464502-.0531926.1051326-.0792292.158112.0187791.024713.0375493.0494172.0563194.0741214Zm-11.7570536,2.0441739c.2916353-.8878042.836175-4.3622433.9105718-5.6699028.1769976-3.1109655.3621634-6.221478.5375087-9.3325324.1602528-2.8431284.3138166-5.6835385.6856848-8.5130489.2895388-2.2031653.7307404-4.3709311,1.2487372-6.5226538.4482282-1.8619085.9634446-3.7063127,1.1442531-5.6201791.1311159-1.3880035.2115088-2.7814612.3709089-4.1659914.3454496-3.0004097.6289923-5.9991628.6102665-9.0279721-.0164872-2.6665083.122899-5.3336561.1682033-8.000955.0464058-2.7318619.2454782-5.4520247.6380976-8.1538658.3606399-2.4818666.7933225-4.9532022,1.1847693-7.4306761.27044-1.7116715.5269333-3.4255638.7842616-5.1392763.0485022-.3230351.1005755-.6498967.1006377-.9750016.0001599-.8725895-.0174466-1.7455742-.0534591-2.6173509-.0054454-.1319199-.1161122-.3198238-.2305899-.3772559-.8340786-.4184984-1.6867497-.799825-2.5235199-1.2131756-.9532111-.4708737-1.9622709-.6656177-3.0029814-.5107104-.7993275.1189771-1.5791209.3675843-2.3687258.553765-2.0370185.480301-4.0826404.8695003-6.192692.5895598-1.1537625-.1530663-2.3171456-.2508059-3.46107-.4572779-2.5665368-.4632452-4.8461287-.0508896-6.7522533,1.8856511-.839564.852962-1.8352545,1.5503483-2.6995671,2.3812889-1.3786006,1.3253636-3.017732,2.1702575-4.79024,2.8144889-1.5489936.562988-3.0797988,1.1760705-4.6291789,1.7379525-1.5629091.5667877-2.7070201,1.6101544-3.5993369,2.9846687-.5205818.8018926-1.0971855,1.5673396-1.6434219,2.3527827-.0516202.074228-.0968757.1755319-.0931891.2620587.0345068.8095876-.2642928,1.5235477-.6451464,2.2054794-.3959817.7090299-.8339587,1.3944704-1.238717,2.0987656-.4947073.8608215-1.1619018,1.5587784-2.007513,2.0647385-.6223033.372348-1.2886383.6705612-1.9307289,1.0105432-.5556304.2941981-1.1302487.5625549-1.6508394.9105851-.7996518.5345817-1.2163291,1.3267983-1.3444736,2.2772334-.1121059.8314669.0108952,1.6402817.1782235,2.4530629.1462329.7103179.2365395,1.4320641.3586412,2.1475476.0169891.0995495.047494.2269834.1181065.281917.2926746.2277029.3279209.5427454.274202.8553538-.0588867.3426781-.1505368.690082-.2927612,1.0062571-.550818,1.2245038-1.1834546,2.3923374-2.3346788,3.1841719-.5126491.3526051-.7234851.8734178-.6645717,1.4865181.0613207.6381953.1235497,1.278638.236384,1.9089673.1455511.8130965.3662008,1.6262463.1630399,2.4477951-.1819345.7357017-.4020711,1.4595309-.435714,2.2230548-.002585.0586468-.0305471.117045-.0512849.1738885-.3810224,1.044366-.9132056,1.9852384-1.8584796,2.6266627-.2536396.1721163-.3274234.3636957-.2128013.6455639.2145802.5276972.4121891,1.0624033.6326899,1.5875422.1572747.3745554.2347717.8297791.7678677.8852369.0313643.0032646.0586446.0411114.0887942.0614273,1.4393861.969725,2.9025525,1.8899084,4.5491169,2.4874986,1.6317272.592207,3.2077923,1.3103688,4.7110597,2.1864916,3.1843141,1.8558413,5.9431764,4.2256909,8.4020223,6.9534265,1.8616243,2.0652004,3.7375905,4.1172893,5.9872193,5.7724059,2.2470394,1.6532157,4.4504623,3.3580072,6.6253569,5.1061397,2.0205757,1.6240966,4.1632598,3.0958819,6.2428599,4.647234.5142659.3836207.9923727.815717,1.4870999,1.2255343-.6441559-.7635993-1.3408293-1.4757117-1.9658686-2.2459468-2.5667189-3.1629411-5.1213389-6.3358225-7.6613238-9.5202609-1.8286454-2.2926102-3.7489965-4.5140216-5.3382176-6.992939-.8427042-1.3144995-1.9440203-2.4080828-3.1481328-3.4071401-1.6474771-1.3669192-3.4048394-2.571809-5.2213903-3.696448-2.4777182-1.5339766-4.7573234-3.3163894-6.6998025-5.4957611-1.6133168-1.8100795-3.1834857-3.6590231-4.7528929-5.5076246-.5407022-.636885-1.0537977-1.3031601-1.5159703-1.9982478-.2322489-.3492916-.3797787-.782183-.459521-1.1976322-.0738082-.3845357.1645856-.7114683.5174927-.8828251.3286671-.159591.5551041.1008242.7553224.2988129.5258318.5199689,1.0525297,1.0419409,1.540026,1.5972249,1.1836856,1.3482734,2.3191909,2.7394926,3.5211581,4.0709323,2.6479801,2.9332039,5.6888439,5.4120192,8.9602577,7.6150157,3.2890913,2.2149,6.0516891,4.968015,8.2943358,8.2281204,1.4354975,2.0867777,2.775394,4.2390867,4.1746791,6.3510483,2.6198404,3.9542027,5.6694231,7.5615966,8.8806132,11.0435865,2.0677455,2.242127,4.2094346,4.3969589,6.631393,6.2592405.31375.2412409.6381953.4685796.9891925.7254105ZM83.9814946,16.4020072c-1.352564,1.3868931-2.6907283,2.7209267-3.9849386,4.0963338-1.4158656,1.5046975-2.7009706,3.1168551-3.7228843,4.9217602-.7226212,1.2762707-1.4282665,2.562184-2.13695,3.8462941-1.8723019,3.3925228-3.373153,6.9600712-4.9099455,10.5085429-1.2750403,2.9440903-2.1076976,6.0391238-2.9608929,9.1242526-.6168756,2.2305833-1.2840923,4.4482726-1.8499073,6.6916255-.4322118,1.7135681-.5966486,3.5050684-1.1391186,5.1779337-.757088,2.3347343-1.7070389,4.6116834-2.663679,6.875672-1.0428248,2.4679289-2.0585469,4.9432309-2.9079757,7.4848014-.0800909.2396597-.1497795.4828016-.2243095.7243179.1817057-.1871955.295073-.399726.4137969-.6092361.6692954-1.1811805,1.2877167-2.3951311,2.0203136-3.5357154,1.8151741-2.8260637,3.6898211-5.6138676,5.5268656-8.4259936,1.300846-1.9913189,2.5284501-4.0221147,3.4172847-6.243535.3682617-.9203788.8118351-1.8143124,1.2730239-2.6930557.9010046-1.7168105,1.7876539-3.444716,2.7780945-5.1098218.7046593-1.1846538,1.5596223-2.2811109,2.364875-3.4044751,1.7163929-2.3944915,3.3595528-4.8479231,5.1881583-7.1539469,2.3844624-3.00701,4.529425-6.1794117,6.7514938-9.2995002.2033541-.2855281.3704647-.5973903.5474535-.9010668.5331071-.9147158.991089-1.8802212,1.7852466-2.589602-.5008522-.4125222-1.0155267-.782254-1.4662156-1.2181479-1.1891932-1.150156-1.9256099-2.5715514-2.3744422-4.1510276-.2484096-.8741862-.4735453-1.7555501-.7454154-2.6223144-.1869557-.5960134-.5222963-1.1134506-.9799318-1.4940955Zm-10.9440503-9.7985159c-.1366946.3295576-.200396.6176862-.3576196.8395418-.7907819,1.1158846-1.6825657,2.1673283-2.3973963,3.3284994-1.7182318,2.7911284-2.8108557,5.8653375-3.6330664,9.0114005-.9128015,3.4926542-1.7041341,7.0216228-2.4126843,10.5619309-.8797915,4.3959062-1.637679,8.816632-2.4142922,13.2326054-.4202728,2.3897346-.8970249,4.759251-1.6959527,7.0583282-.5600054,1.6115135-1.1339752,3.2247059-1.566267,4.8726716-.8259061,3.1484526-.9267392,6.3970899-1.177796,9.6234748-.2052284,2.637438-.5237975,5.2585309-1.2864819,7.8072436-.8060432,2.6935976-1.591131,5.3934755-2.3861946,8.0903688-.5788023,1.9633368-.8340964,4.0149016-1.6144139,5.9234558-.0120101.0293945-.0015013.0680008-.0015013.2116421.309606-.4836899.58057-.8783347.8193947-1.2915542.1305918-.2259529.2722255-.4769387.2967342-.7275958.1377162-1.4082794.4475442-2.7785742.9208141-4.1054035.6146992-1.7233041,1.2567854-3.4378315,1.9316771-5.138439,1.0455963-2.6347109,2.1471657-5.2472404,3.1893775-7.8832482.6323235-1.599268,1.1966995-3.2253811,1.7932681-4.8388178.4577332-1.2378997,1.0470354-2.4444773,1.3471985-3.7192778.4571558-1.9415375.6780719-3.9373602,1.0693145-5.8961577.2985375-1.4946817.6865465-2.9726098,1.0679997-4.4494052,1.0404796-4.0281153,2.2567665-7.9980413,3.7690769-11.8805078,1.4079063-3.6144205,2.6983234-7.2744829,4.0530815-10.9097523,1.8518172-4.9690276,5.1505024-8.6878524,9.7701274-11.2577692.0505809-.0281397.0958497-.0658311.1765002-.1219685-.1065095-.0937088-.1913262-.1744615-.2823434-.247488-1.7144386-1.3755559-3.3788205-2.7981328-4.698872-4.582742-.8901404-1.2033885-2.0459239-2.1304919-3.2839924-2.9539884-.3289802-.2188242-.690846-.3881956-.9956905-.5570473Zm-20.809148,73.4748169c.0208222-.000986.0416444-.0019721.0624666-.002967.0175532-.0316242.0426304-.0612585.0515847-.0951568.6376801-2.413315,1.3174487-4.8166187,1.8968906-7.2438715.4670694-1.956479.7961029-3.9347041.7180819-5.9742321-.053086-1.3876881.0330632-2.7881325.1597642-4.1734755.178339-1.949941.8355443-3.7873319,1.5891145-5.5766203.96022-2.2799605,1.8337666-4.5892578,2.5261849-6.9623986.3181249-1.0903365.5846385-2.2035206.7688937-3.3237225.6490861-3.9461723,1.2396408-7.9019384,1.8777206-11.8499718.4021333-2.4881604.8814171-4.9641197,1.2634833-7.4551493.2017906-1.3156676.2645682-2.6523973.3988288-3.9787381.1988769-1.964767.7600461-3.8492389,1.2772523-5.744144.8433882-3.089999,2.1169539-5.9844478,3.901632-8.6478203.7206491-1.0754638,1.5517785-2.049073,2.6595039-2.7535014.0332853-.0211664.0520555-.0651693.0981326-.1253507-.1042265-.0255858-.1715434-.0446603-.2399262-.0584981-.6579426-.1331591-1.3643253-.0849833-1.9393789-.5336823-.0597839-.0466501-.1870001-.0171912-.2813752-.0076795-2.6638211.2685079-5.3217437.3969189-7.9512046-.2911622-.3463913-.0906441-.7017901-.1469058-1.0445392-.2173518-.0261965.058538-.0461215.0811502-.0435809.1008465.0186547.1440476.0379224.2882263.0641455.4310481.3353228,1.8263225.3466311,3.6417297-.1914506,5.4364213-.2714882.905495-.5196935,1.8200332-.8397017,2.7084103-.4391762,1.2191562-1.0087577,2.394878-1.3928581,3.6295309-.6571609,2.1124013-.921356,4.3112405-1.1728658,6.5007434-.3279231,2.854752-.1803466,5.7156246.0556266,8.5706342.1707172,2.0654047.3665739,4.1287175.5473824,6.1933005.2383539,2.7217395-.0087677,5.3921653-.7568392,8.0274224-.9987908,3.5183843-1.9598013,7.0477483-2.9057549,10.5807633-.3814976,1.4248732-.7714432,2.8578745-.9952464,4.312151-.3322048,2.158625-.3110983,4.3453475-.2750326,6.529867.0636481,3.8551551.0780833,7.7111274.1128965,11.5667533.0012881.142522.0001688.2850617.0001688.4276014Zm37.7855709-53.9236913c-.1713657.4089378-.2889081.7808727-.4752153,1.1143789-.3543062.6342067-.7483647,1.2461788-1.1251364,1.8678558-.6340202,1.0461604-1.3323103,2.0595507-1.8873056,3.1461163-1.0779312,2.1103626-2.2642817,4.1538791-3.6317072,6.0841927-2.2776065,3.215192-4.5838346,6.4106012-6.9142161,9.587791-2.1282356,2.9015931-3.8253253,6.036561-5.220884,9.3431345-1.4423286,3.4173558-3.1059376,6.7192211-5.3390216,9.6930835-2.7134071,3.6135145-4.9733449,7.4883636-6.9021083,11.5652876-.2290265.4841074-.4474642.9732249-.6708144,1.460024.4216141-.4375239.777013-.9107761,1.1398381-1.3782719,1.8357831-2.3654257,3.7583816-4.6691577,5.489112-7.1090246,2.1802911-3.0735939,4.2069651-6.2562735,6.29472-9.3953366.9861944-1.4828005,1.9052763-3.0069878,3.112831-4.3377168,2.0120612-2.2173162,3.967714-4.485702,5.9630304-6.7183506,2.0278377-2.2690386,4.1106802-4.4898682,6.1037757-6.7887321,2.1070225-2.4302508,4.2535663-4.8179689,6.6495591-6.967573.4501914-.4039055.6530391-.8010953.6155165-1.4299144-.085101-1.4264411-.0316952-2.8608947-.1077265-4.2881975-.0706569-1.3262786-.3690789-2.5921515-1.3531236-3.5957081-.1480917-.1510187-.1878795-.4077386-.279563-.6147659-.0420797-.0950102-.0636037-.2209206-.1370588-.2766626-.4326471-.3283451-.877855-.6401496-1.324502-.9616102Zm-38.9105208,63.383511c-.1498373-.0379224-.2174251-.071865-.2835027-.0691468-.6624731.0272625-1.270119-.1773618-1.8551884-.4523589-2.5854136-1.2151943-4.9171009-2.746568-6.6815253-5.0686083-.6535943-.8601508-1.4767377-1.6049-2.2885728-2.3281963-1.1942832-1.0640467-2.4266176-2.0883323-3.6802495-3.0822462-2.8783858-2.2820214-5.7049292-4.640154-8.6946791-6.7676079-2.4221982-1.7235972-4.6384129-3.6261908-6.5718223-5.8675982-1.7324937-2.008499-3.6284249-3.842008-5.7122889-5.4824318-2.5014274-1.9691198-5.2917297-3.4078152-8.2639619-4.5156028-1.0381655-.3869342-2.0472275-.829255-2.8554804-1.6233148-.0305648-.0300252-.0772438-.0436431-.1535749-.0850921,0,.141456-.0024962.2447586.000402.3479103.01907.6786049.0515003,1.3571477.0527839,2.0357704.000473.2502929-.0009416.5452416-.1249554.7420043-.2760741.4380569-.2325509.9007381-.2356089,1.3680829-.0027782.424439.0244221.8506191-.0048369,1.2730327-.0656646.94805.2449407,1.7683774.8160435,2.4987092.2978135.3808581.6087053.7586159.958732,1.0902255,1.2040658,1.1407353,2.555284,2.0805328,4.0208067,2.8568707,2.64818,1.402834,5.3790914,2.6266538,8.1089324,3.8616221,3.8762971,1.7536224,7.6709132,3.6868275,11.5268056,5.4868112,4.4600029,2.0819985,8.4898771,4.7661089,11.9787426,8.2519452,1.4377893,1.4365279,2.8037891,2.9491404,4.6053941,3.9839081.8537105.4903256,1.6837472,1.0043072,2.6176773,1.3288903.4233464.1471412.8669464.2625428,1.2560792.4751976.5462987.2985286.9560448.0738638,1.4638482-.2587763Zm8.8063631-3.7873408c.0053921.0262854.0107931.0525796.0161852.078865.1109422-.0069467.2219821-.0127207.3328177-.0210088.6042881-.0451977,1.2080522-.0988699,1.8128555-.1352644,2.770073-.166702,5.429719-.821349,8.0279732-1.7729434,2.0583693-.7538634,4.1280823-1.4768665,6.1951038-2.2069051.5708429-.2016218,1.1597098-.2318069,1.7587747-.1384357.1383202.0215773.2858612-.0159098.4382701-.0268717-.1156681-.535017-.1115907-.665671.1371565-1.1131086.3472263-.6245951.7305094-1.2292564,1.0740048-1.8557969.4744514-.8653919.2517941-1.7188447-.1162099-2.5476733-.0468855-.1056123-.2693296-.2090127-.3946803-.1926409-1.7518991.2286623-3.4153126.7285196-4.8794584,1.7508153-1.6594606,1.1586616-3.2978324,2.3474994-4.9504262,3.5160658-2.8499951,2.0152236-5.8959356,3.6355714-9.2757066,4.5790732-.0620402.0173133-.1179155.0567281-.1766601.0858294Zm4.6145172,1.3987743c.0818142.0166116.1705573.0361635.2598867.0525441,1.9453839.3565536,3.9138286.5009055,5.8795106.694346,2.3882467.2350227,4.6298584-.1886702,6.7958742-1.1475221.3408304-.1508722.6658664-.3498024.9704445-.5656729.1893009-.1341895.3263241-.3421184.4868257-.5169397-.1966206-.1236896-.3813644-.274997-.5921981-.3656145-.5184321-.2228616-.9752325-.5093179-1.1684509-1.0693056-.0798688-.2314871-.2095812-.3060438-.4397803-.3459826-1.0153313-.1761893-1.9821248.046086-2.9280961.359645-1.5175871.5030108-3.0108075,1.0814667-4.5355989,1.5603063-1.5570906.4889843-3.1398181.8963143-4.7284175,1.344196Zm-40.3505576-7.2119808c.4181852-.0957342.7205514-.1840242,1.0291669-.2323755,1.4734021-.2308564,2.8556226.1201985,4.1521469.7748277,1.1454079.5783226,2.2425934,1.2525392,3.3579761,1.8898462,1.1786843.6734793,2.3519455,1.3564726,3.5321622,2.0272425.1835223.1042976.3914868.1656005.5881518.246784.0209022-.0372117.0418088-.0744323.0627109-.1116529-.7003776-.5559636-1.3708012-1.1555703-2.1063607-1.6602512-3.061615-2.1006533-6.2576504-3.9857736-9.4779059-5.8301378-.1116617-.0639501-.2313317-.1139181-.3847356-.1886613-.1044797.5064131-.3908161.7642034-.8693005.8417093-.0850832.0137867-.2059258.2480365-.1908599.365117.0797267.619585.1976155,1.2342487.3068477,1.8775518Zm25.1835568,7.3848655c.0401254-.2760186.0538677-.5073192.1108267-.7274447.0697508-.2695694-.0119523-.4013516-.2679082-.5232112-1.669885-.7950192-3.1526766-1.8777384-4.5866017-3.0323226-.1085304-.0873662-.2162791-.1757007-.3243965-.2635821,1.4081195,1.8104304,2.9326976,3.4863871,5.0680797,4.5465607Zm10.1017504.1509521c-.9029766-.2188197-1.0801164-.1550028-1.4956012.5102151.4860173-.1658048.9478545-.3233571,1.4956012-.5102151Z" stroke-width="0"/>
      <path d="m38.4464253,89.6036415c.4065527-.0403563.8127101-.1084816,1.2197602-.1143178.5542935-.0079682,1.1125356.0014213,1.6628406.0610275.3893504.0421774.7021365.2777331.8572549.6532168.0326768.079096-.0323837.2805401-.0976352.3050133-.471973.1770154-.9486229.3505752-1.4367633.4738651-1.6319582.4121802-3.2478955.8799514-4.9266859,1.1076987-1.6560627.2246649-3.292045.5935306-4.9438349.8548742-1.2053872.1907044-2.4198841.119017-3.6254535-.0519134-.3319205-.0470632-.6353571-.0414046-.9492625.1132518-.256973.1266122-.5469738.2154086-.8312182.2520251-.9130946.1176135-1.8285433.2618233-2.7462838.2894678-2.1156303.0637191-3.6371082-1.7720639-3.257214-3.8702299.2276629-1.2573894.8702598-2.3033589,1.685666-3.2560636.3704825-.4328603.7596996-.8496597,1.138519-1.2754312.3869963-.4349656.5951296-.9338813.5644026-1.5272342-.0124942-.2412231-.0029759-.4861772.0244421-.7262544.0392237-.3434332.1787787-.6387194.5349459-.756324.3483145-.1150196.6539941.0053654.8961233.254086.6352105.6524884.8552472,1.4498261.7522022,2.3398599-.0826404.7138179-.3640688,1.3538343-.7759292,1.9390235-.0677743.0962938-.1312092.1956523-.2326908.3475283.3375169.0274491.6251459.0228565.9009291.0777635,1.9013011.3785662,3.8022601.7594598,5.6990974,1.1596743,1.5603108.3292023,3.125112.5780561,4.7255215.400632.6502453-.0720871,1.2954539-.2189974,1.9464677-.2454249.5105571-.0207423,1.0311611.0664463,1.53725.1600219.1514895.0280176.3464623.2233057.376372.3712909.0215373.106545-.1829138.2790389-.3138033.3899811-.1136827.0963382-.2655808.1475854-.4005921.2187575.0051922.0180418.0103845.0360924.0155722.0541342Zm-1.7671648.3104676c-.0102468-.0290569-.020498-.0581227-.0307492-.0871885-.0840084.0061827-.1679279.0158387-.2520384.018024-1.440703.0376026-2.8858698.1607059-4.3209054.0869665-1.4479828-.0744145-2.8869269-.3368951-4.3279453-.5309574-1.1761748-.1583873-2.3482678-.3472352-3.5248557-.5022114-.4516749-.0594907-.9123928-.1210424-1.3181949.2171674-.1007621.0839817-.3031479.0355061-.450338.0775947-.1190259.0340315-.2672376.0852787-.3276388.1777794-.096396.1476298-.1477897.3319294-.1877641.5076568-.0949569.4174568-.0064314.5622085.3806093.7366122,1.0069988.4537091,2.0349665.8461686,3.1147675,1.0906697.0784208.0177486.1884614.049586.2391223.013005.7014836-.5066441,1.5138561-.4369643,2.3084889-.4585149.4601672-.0124898.9274854.0297942,1.3795422-.0356927,1.7142254-.2483297,3.4262523-.5147278,5.1334112-.8075267.7353153-.1261058,1.4567505-.3331198,2.1844884-.5033839Z" stroke-width="0"/>
      <path d="m78.9117671,68.0049819c.1510676-.4168705.248232-.8641304.4629299-1.2451395.75739-1.3440361,1.7575488-2.4799212,3.1402179-3.2040259,1.9647404-1.0289048,3.9427256-2.0339671,5.9357234-3.0068812,1.0759768-.5252544,2.0780988-1.1463939,3.0022797-1.9029844.1854633-.1518315.3896524-.3323025.6096891-.3758746.2206674-.0436787.5113344.0056852.6998624.1261236.2362219.1509077.2152576.4461673.10396.6963624-.400632.9006048-.8644236,1.7623457-1.5300324,2.5029553-1.170192,1.3020364-2.5095289,2.3823393-4.059966,3.2074193-1.5728494.8370101-3.1437712,1.6803627-4.6820827,2.5782493-.6409224.3741068-1.2263427.8621673-1.779206,1.3623-.4452701.4027995-.7598417.5718556-1.1830282.4091688-.4140634-.1591779-.6527282-.5733835-.7203471-1.1476731Z" stroke-width="0"/>
      <path d="m26.4727284,41.2447647c.7249486.2844221,1.2404492.6838816,1.5641039,1.2961868.3453653.6533989.6544693,1.3258966.9963479,1.9812143,2.1353599,4.0930426,4.2023592,8.2147024,6.8843153,12.0069733,2.9162104,4.1235164,4.9442347,8.7205248,6.6195828,13.4723761.7004931,1.9868062,1.3905574,3.9773257,2.0793602,5.9682182.1225037.3540752.234805.7143154.3114803,1.080152.0258012.1231299-.073504.2724742-.1156325.409835-.1362948-.0530771-.3244409-.0676455-.3983002-.167084-.1639438-.2207562-.2888415-.4762724-.3977494-.7312556-1.0232906-2.3956819-2.0169647-4.8042711-3.0639468-7.1894885-1.419752-3.2344597-3.101727-6.3401575-4.8689674-9.3921031-.9325044-1.6103987-2.0852987-3.095038-3.1637717-4.6186567-1.2193694-1.7226911-2.4525077-3.4352243-3.4340029-5.3103777-.1794183-.3427758-.3398843-.6993605-.4695034-1.0636559-.621637-1.7470266-1.2357366-3.4967982-1.8395451-5.2500608-.2441679-.7089677-.4573779-1.4286619-.678716-2.145318-.0261432-.0846346-.014413-.1809729-.025055-.3469553Z" stroke-width="0"/>
      <path d="m37.6628077,52.2992376c-.147843-.1390264-.2742997-.2180558-.3458449-.3316674-.4763213-.756364-1.0087177-1.487211-1.3969355-2.2874535-1.3094094-2.6991273-2.0799421-5.5681724-2.7033824-8.4984671-.8229213-3.8678669-1.8735011-7.6853351-3.4922322-11.3068755-1.3695042-3.0639646-2.7733331-6.1161456-4.4783733-9.0173478-.9024303-1.5355178-1.4966716-3.2011166-1.9533255-4.9174962-.0784875-.2950086.0579806-.5621707.3159974-.5894354.3142607-.0332054.4098261.1513985.4417035.4398647.0186192.1685186.1226725.3346965.2132189.4871188,2.0740969,3.4914194,4.2224707,6.9457115,5.9582779,10.6212751,1.4886945,3.1523079,2.4991755,6.4883647,3.4343271,9.8422145,1.0219004,3.6649748,2.0237159,7.3355904,3.0601181,10.9964345.2569908.907778.6492638,1.7771051.9100832,2.684017.1371254.4768188.1329281.9960281.1725649,1.4976798.0081059.1025387-.0730199.2121351-.1361971.3801385Z" stroke-width="0"/>
      <path d="m46.0198943,33.2351486c.097724.4222671.2524382.8402968.2842222,1.2674719.2735713,3.6767139.7728245,7.317713,1.4893207,10.937268.6846588,3.4587026,1.2768259,6.9420472,1.4565684,10.4702341.1505479,2.9550566.1182398,5.9125827-.1864227,8.8646279-.1828517,1.7717086-.2933542,3.5519539-.3939696,5.3307691-.106012,1.8742917.1033915,3.7262155.5170641,5.5560824.0345023.1525866.0838218.3251427.044265.4652662-.0499235.17682-.1623048.4411838-.2873358.4656748-.1656804.0324503-.437786-.0811036-.5401604-.2219999-.1317644-.1813593-.1590314-.4488411-.1994055-.6846899-.2205697-1.2885872-.5105616-2.5719245-.6242842-3.8704075-.1253863-1.4317221-.1586494-2.8806954-.1030273-4.3171611.1153705-2.9794587.4041809-5.9526903.3034144-8.9394511-.1337454-3.9640009-.4302841-7.9096757-1.0284384-11.8381438-.4007564-2.6320415-.6087209-5.2949476-.8526578-7.9486729-.1118927-1.2172152-.1214866-2.4452545-.140772-3.6689634-.0096116-.6099867.0634171-1.2212793.0990609-1.8319811.0541875-.0119745.108375-.0239491.162558-.0359236Z" stroke-width="0"/>
      <path d="m28.1356001,54.9124067c-.0095139.0267651-.0184682.170735-.0858783.2074759-.0649983.0354439-.2005514-.0213197-.2876245-.0693067-1.0363045-.5712427-1.832745-1.4168783-2.6244774-2.274715-1.4027585-1.5198656-2.4009585-3.3123609-3.4633263-5.0625988-1.4772263-2.4337242-3.1786333-4.709323-5.1314391-6.7698731-1.2628748-1.332559-2.7074331-2.4955512-4.09535-3.7061262-1.0320095-.9001385-2.1084283-1.7491808-3.1551061-2.6327743-.3323492-.2805712-.6488507-.5844342-.9405592-.9066499-.1398015-.1544299-.2669688-.3706157-.2858101-.5696259-.0176931-.1868802.0619536-.4565517.1978332-.5613335.1105536-.085252.4091599-.0433189.5523792.0512516.5353745.3534978,1.0344501.7613252,1.5593048,1.1315323,1.4558622,1.0268928,2.9627339,1.9872637,4.3684927,3.0782443,3.4332212,2.6644385,6.1719009,5.9373357,8.3022729,9.7263022,1.3501477,2.4013005,2.8521626,4.7049658,4.5530632,6.8758674.3464135.4421254.5243127.9411033.5362251,1.4823297Z" stroke-width="0"/>
      <path d="m47.3418734,77.9873288c0,.0363767.0077595.0748054-.0012525.1087925-.0585713.2208628-.0794557.5984785-.1905623.6275888-.2203121.0577408-.5285589-.0162918-.7340538-.1433214-.6635213-.4101282-1.0700207-1.0529605-1.3602613-1.7551858-.6124163-1.481699-1.0883867-2.9969497-1.3080014-4.6015299-.2792832-2.0405584-.7153725-4.0595929-.9976759-6.0998227-.3407638-2.4627589-1.142472-4.7812547-2.0584226-7.0675401-.4768054-1.1901437-1.0355894-2.3474106-1.5546833-3.5207117-.0879125-.198717-.1750567-.3994239-.239713-.606349-.0793047-.2538017-.0364833-.4964817.2103185-.6339758.2706354-.1507656.4777693.0162207.6194251.2211382.819217,1.1850536,1.6963747,2.3290313,2.2923792,3.6604888,1.7613908,3.9348373,3.0534158,8.0122677,3.869195,12.2463266.4081517,2.1184019.8911664,4.2223064,1.3263186,6.3356537.0827203.4017158.0997094.8169696.1470302,1.2259785-.0066802.0008261-.0133603.0016434-.0200405.0024695Z" stroke-width="0"/>
      <path d="m48.5771793,15.9601571c.0807083,4.4501914-.624946,8.4867546-1.4702974,12.5001505-.1767445.839102-.6020229,1.6286803-.9398552,2.4296601-.1400924.3321426-.5618176.3303216-.7516115-.0062227-.1077487-.1910686-.152751-.432465-.1723384-.6558995-.1339497-1.527856.1771664-3.0173944.3958085-4.5165577.3917755-2.6862467.8929475-5.3625709.9325488-8.0873618.0455219-3.1319721-.1524534-6.2532088-.4830059-9.3677143-.0556887-.5247103.0109263-1.0621613.0167937-1.5937693.0023629-.2140605.1244225-.2662649.3093306-.2540638.4239016.0279798.7088966.2711706.8563799.6382597.1753498.4364269.318045.8897762.4317765,1.3465278.6448932,2.5898796.9994393,5.213793.8744705,7.566991Z" stroke-width="0"/>
      <path d="m42.4196336,74.9011296c.0000355.7070667-.4533316,1.1503114-.9956905,1.032769-.338845-.0734285-.7037977-.2391978-.9540195-.4735275-1.413627-1.3238535-2.6545781-2.7661733-3.4167295-4.599087-1.0619814-2.5539893-2.4412393-4.9540151-3.7949492-7.362542-.7181885-1.2777941-1.4552448-2.5449728-2.1779592-3.8202441-.106696-.1882793-.2267169-.3883288-.2561425-.5949697-.0236604-.1661246.0282619-.4237639.1429794-.505356.1069625-.0760757.3960083-.0369719.5093401.0614539.4563785.3963948.8838378.8274695,1.3073796,1.2600366,1.8778583,1.917846,3.2080633,4.212908,4.4990934,6.5362185.8294194,1.4926075,1.6557385,2.9829143,2.6725666,4.3677509.8014062,1.0914425,1.4755607,2.2771801,2.1887346,3.4318443.1485226.2404681.22017.5284079.2753968.6656532Z" stroke-width="0"/>
      <path d="m23.933081,37.8181704c-.0056497.3399554-.2029943.5329072-.4459408.409644-.3229263-.1638505-.6711431-.3734939-.8748658-.658862-.6252969-.8759096-1.1970237-1.7909141-1.7712422-2.702272-1.5693494-2.4907498-2.7506987-5.208101-4.4738873-7.6120976-.6332118-.8833848-.9728785-1.922945-1.2128891-2.9812043-.200698-.8849038.0916923-1.5382982.8121149-1.9559549.217203-.1259237.3302905-.0766975.465999.1322663.5527967.851201,1.1360406,1.6826102,1.6899343,2.5331182.3558252.5463697.7410094,1.0857173,1.0081181,1.6757168,1.3343445,2.9473193,2.6379843,5.9085808,3.9425257,8.8693005.2684812.6093338.4981162,1.2359676.7381579,1.8575247.0605301.1567262.092132.3246319.1219751.4328203Z" stroke-width="0"/>
    </g>
  </g>
</svg>