<?xml version="1.0" encoding="UTF-8"?>
<svg id="b" data-name="Layer 2" xmlns="http://www.w3.org/2000/svg" width="349.638" height="50.443" viewBox="0 0 349.638 50.443">
  <g id="c" data-name="Layer 1">
    <g>
      <path d="m3.437,31.503c4.478,3.386,10.899,6.306,19.083,8.677,10.846,3.142,23.996,5.449,39.085,6.86,29.768,2.78,62.729,3.814,100.77,3.151h.073c2.749-.048,5.592-.098,8.409-.098,2.645,0,4.953.043,7.055.132,2.516.108,6.319.246,10.296.214,12.202-.114,24.628-.278,36.645-.437l2.698-.036c19.534-.26,36.855-.991,52.957-2.236,2.006-.156,4.012-.319,6.018-.481l.097-.008c3.24-.264,6.162-.499,9.111-.714,10.864-.789,21.745-2.625,34.242-5.775,4.824-1.216,8.872-2.761,12.032-4.593,4.995-2.894,7.561-5.822,7.628-8.701.055-2.402-1.653-4.735-5.075-6.935-.347-.223-.898-.448-1.596-.65-2.062-.593-5.116-.463-7.263.309-1.193.43-1.653.889-1.685,1.174-.023.219.222.516.658.793,1.201.765,2.2,1.537,2.971,2.293,1.497,1.467,2.023,3.166,1.52,4.911-1.165,4.047-7.6,7.715-17.213,9.813-10.316,2.254-19.298,3.64-28.268,4.367-14.059,1.138-32.581,2.496-51.176,2.905-7.61.167-15.502.261-22.464.346-5.424.066-11.032.134-16.562.231-7.787.134-16.819.25-25.456-.118-2.835-.12-5.837-.097-8.739-.077l-.417.004c-3.696.028-7.398.075-11.103.121l-.706.009c-2.129.028-4.259.055-6.388.079-23.441.277-46.315-.35-67.975-1.85-12.016-.831-24.738-1.887-36.358-3.967-11.642-2.084-19.947-4.41-26.134-7.317-.296-.14-.584-.281-.886-.43l-2.021-.99,2.041-.164c.116-.011.194-.016.281-.005.225.035.446.074.65.121,2.832.675,6.29,1.105,10.566,1.318,10.451.518,22.873,1.069,35.774,1.236,12.865.168,23.065.663,32.105,1.56,12.37,1.226,24.921,1.992,37.307,2.273,3.85.087,7.702.168,11.556.249l9.072.19c.81.017,1.618.043,2.425.069,1.516.047,3.402.109,5.233.079,5.311-.089,10.882-.231,15.799-.358l3.95-.101c9.23-.233,20.693-.522,31.791-1.426,6.521-.531,13.12-1.144,19.501-1.738l3.86-.359c7.124-.662,13.397-1.038,19.179-1.153,8.389-.16,15.377.862,21.125,1.892,11.383,2.045,22.525,2.468,34.066,1.298,4.388-.445,9.055-.951,13.616-1.793.377-.069.637-.13.819-.182-.112-.009-.241-.015-.386-.015h-.011c-.233,0-.491.012-.768.036-.496.04-.99.09-1.485.14l-1.101.11c-5.734.551-12.528,1.134-19.44,1.279-8.247.173-15.962-.475-22.95-1.911-6.958-1.431-14.75-2.089-23.864-1.981-9.5.1-19.355.737-27.845,1.326-5.484.381-10.977.699-16.326.945-3.732.171-7.52.316-11.185.456l-.136.005c-5.706.219-11.607.445-17.42.775-5.074.288-10.209.717-15.172,1.131-2.897.242-5.512.459-8.197.663-1.65.125-3.319.188-4.964.188h-.217c-2.156-.023-4.328-.078-6.428-.13-1.466-.036-2.916-.073-4.372-.1-9.856-.182-19.422-.565-28.434-1.138-4.329-.276-8.603-.62-12.737-.951-1.996-.16-3.991-.32-5.994-.473-11.614-.888-21.349-1.42-30.639-1.677-7.316-.203-14.718-.711-22-1.51-4.215-.461-8.415-.936-12.615-1.411l-1.138-.129c-.265-.03-.5-.077-.758-.13l-2.71-.504,2.378-.545c.048-.011.095-.02.141-.03-3.255-.264-7.2-.573-11.15-.845-2.21-.16-3.974.211-5.192,1.089-.091.067-.194.114-.313.169l-.468.223-.485-.327c-.172-.113-.308-.203-.432-.296-1.836-1.38-2.75-2.836-2.717-4.329.039-1.739,1.309-3.44,3.883-5.2,6.323-4.324,14.239-7.224,24.196-8.867,3.61-.596,7.258-1.239,10.786-1.859l3.78-.666c7.844-1.373,16.137-2.363,24.645-2.945,14.551-.994,29.143-1.373,41.676-1.65,4.041-.089,8.078-.16,12.114-.23l.194-.003c5.682-.1,11.556-.2,17.35-.36l3.77-.105c11.065-.311,22.492-.632,33.496-.351,1.284.035,2.197.196,3.053.542,2.111.849,4.402,1.747,6.837,2.575,1.275.433,2.626.839,3.935,1.232,1.295.389,2.633.791,3.892,1.217,10.927,3.7,22.474,7.059,34.32,9.983,9.517,2.349,17.086,3.982,24.538,5.291,5.288.928,10.728,1.816,15.99,2.674l3.698.604c1.12.184,2.396.344,3.899.488,1.789.165,3.335-.022,4.578-.559.857-.371.904-.631.905-.641.007-.042-.034-.155-.227-.323-.387-.342-.92-.666-1.525-1.023-.857-.507-1.724-1.009-2.594-1.51-1.485-.859-3.019-1.747-4.468-2.64-.425-.262-.846-.526-1.265-.791-2.094-1.319-4.259-2.683-7.188-3.775l-1.74-.65c-2.682-1.001-5.455-2.035-8.216-3.039-2.376-.862-5.179-1.568-8.571-2.158-.905-.157-1.822-.308-2.739-.459l-.07-.012c-1.996-.328-4.052-.668-5.971-1.066-5.229-1.083-10.569-2.235-15.28-3.253l-5.638-1.214c-.112-.023-.207-.055-.368-.112l-3.211-1.079,3.959-.022c.355-.004.652-.005.945.001,2.266.039,4.529.082,6.793.125l.316.005c4.606.087,9.371.178,14.075.223,11.173.106,22.328.615,33.156,1.512.691.058,1.99.206,2.92.549,2.61.962,5.226,1.953,7.756,2.912,2.207.836,4.414,1.673,6.643,2.5,2.227.827,4.375,1.692,6.453,2.528,3.94,1.587,8.015,3.226,12.621,4.607,1.483.446,2.914.92,4.297,1.376.858.284,1.715.568,2.586.846,1.93.617,4.995.321,6.564-.628.351-.211.55-.449.78-.725.091-.11.179-.217.274-.32.04-.044.063-.094.105-.192.026-.062.054-.126.087-.19l.144-.278.312.007c4.684.106,7.035-.523,8.466-2.258l.106-.137c.51-.631.721-1.218.65-1.801-.097-.785-.705-1.587-1.856-2.454-2.869-2.153-7.389-3.887-13.434-5.149-6.607-1.378-12.44-2.234-18.358-2.69-12.456-.962-24.666-1.885-37.08-2.622-11.575-.687-23.715-.806-35.454-.92-2.596-.026-5.191-.051-7.784-.082-6.107-.074-12.36-.075-18.408-.077-4.496,0-8.54-.001-12.639-.026-2.511-.015-5.04-.07-7.487-.125l-.14-.003c-2.337-.051-4.755-.105-7.155-.124-4.657-.034-9.661-.048-14.71.061-4.302.091-8.688.215-12.929.335l-.53.015c-5.071.145-10.821.308-16.385.409l-5.925.105c-15.916.278-32.369.566-48.753,1.541-6.809.403-14.055.875-21.213,1.805-10.355,1.348-20.653,3.221-29.491,4.871-14.185,2.648-24.658,7.125-31.125,13.309C.633,23.877-.072,25.275.006,26.631c.09,1.579,1.245,3.218,3.431,4.872ZM330.629,12.794l2.643,2.597-1.564.323-2.597-2.609,1.518-.311Zm-31.302-6.167l.171.017c.968.098,1.934.198,2.898.299,2.391.247,4.387.452,6.482.637,3.112.274,5.603.953,7.839,2.14,3.675,1.95,7.298,4.141,8.9,6.942.078.139.147.274.23.442l.636,1.245-1.467-.329c-.245-.052-.417-.091-.565-.139-6.602-2.072-11.342-4.025-14.921-6.145-2.328-1.377-5.627-2.434-8.241-3.202-.527-.156-1.029-.327-1.513-.494l-1.759-.594,1.31-.82Zm-93.571-3.019c.21-.008.39-.015.584-.008h.147c6.875.022,7.005.022,12.651,1.323,2.852.659,5.728,1.342,8.507,2.002l.573.137c6.197,1.474,12.605,2.999,19.167,4.348,7.893,1.623,14.895,3.895,22.705,7.362,2.239.994,4.032,2.156,5.767,3.28.719.468,1.528.991,2.367,1.494.196.117.295.328.265.581l.047.576-.921-.09c-.299-.035-.562-.067-.82-.106-10.058-1.473-19.949-3.339-29.397-5.55-1.304-.305-2.636-.596-4-.892-2.461-.535-5.005-1.088-7.323-1.733-12.452-3.459-22.498-7.175-30.713-11.356-.13-.066-.247-.137-.401-.23l-1.82-1.066,2.616-.071Z" stroke-width="0"/>
      <path d="m146.84,20.146l.042.011c2.509.685,5.104,1.392,7.41,2.195,5.621,1.955,11.837,3.717,17.849,5.421l1.575.445c6.713,1.906,14.491,3.506,24.476,5.036,1.374.212,2.519.343,3.603.409,2.538.157,4.459-.543,4.876-1.105.101-.134.077-.202.061-.246-.117-.312-.421-.652-.857-.955-1.031-.717-2.279-1.555-3.718-2.343-2.273-1.244-4.611-2.501-6.875-3.716l-.609-.328c-2.012-1.083-4.024-2.164-6.013-3.252-.932-.51-1.834-1.06-2.632-1.547-.772-.471-1.571-.958-2.41-1.423-3.763-2.086-8.269-3.743-13.395-4.923l-1.213-.28c-6.818-1.572-13.868-3.198-21.105-4.672-6.805-1.387-14.71-2.037-23.459-1.912-1.376.02-2.468.122-3.326.554l-.178.091-.194-.056c-.334-.101-.647-.199-.953-.296-.627-.196-1.275-.401-1.963-.559-.861-.202-1.684-.315-2.448-.339-1.938-.063-3.244.519-3.398.835-.005,0-.001.016.027.05.246.299.734.604,1.132.835,3.84,2.242,8.663,4.372,14.339,6.33,3.509,1.21,7.383,2.323,11.13,3.4,1.353.387,2.704.776,4.043,1.169,1.366.402,2.799.792,4.184,1.171Zm-13.352-6.054c-3.216-.943-5.803-2.138-7.692-3.554-.44-.329-.902-.655-1.366-.979l-.229-.161c-.246-.171-.49-.342-.732-.515-.108-.077-.191-.159-.307-.273l-1.087-1.042,2.121.022c.281.003.526.004.767.012,10.675.328,20.522,1.767,30.989,4.528l.26.069c4.056,1.069,8.241,2.172,12.03,3.4,3.424,1.109,5.863,2.578,8.222,3.998l.183.11c.405.243.808.487,1.22.728,1.013.593,2.039,1.185,3.065,1.777,1.231.709,2.626,1.513,3.981,2.317,1.877,1.112,3.751,2.25,5.402,3.253l3.162,1.912-1.37.549-.452-.061c-.277-.035-.526-.069-.749-.118l-2.604-.588c-2.756-.62-5.604-1.261-8.364-1.914-1.048-.247-2.07-.52-3.057-.785-1.053-.282-2.137-.572-3.249-.828-3.454-.803-6.883-1.774-11.119-3.152-3.581-1.167-7.383-2.286-11.06-3.37l-.09-.026c-1.485-.437-2.969-.874-4.446-1.315l-1.217-.364c-3.763-1.126-8.027-2.401-12.211-3.627Z" stroke-width="0"/>
      <path d="m100.11,29.138c.58.091,1.19.157,1.829.195,4.117.247,8.323.463,12.391.671l3.528.18c.426.024.919.003,1.353-.017,1.504-.059,2.75-.373,3.177-.797.003-.003.005-.007.009-.009-.109-.081-.397-.239-1.107-.401l-.242-.055c-1.131-.258-2.302-.526-3.314-.866-2.355-.787-4.398-1.521-6.247-2.245-8.298-3.246-17.46-6.271-28.012-9.246-6.095-1.719-13.521-2.678-22.705-2.932-.496-.016-.921-.009-1.291.015-1.725.1-2.53.538-2.733.78-.005.007-.009.012-.013.019.085.074.371.237,1.017.347.65.109,1.374.194,2.153.249,10.261.744,19.446,2.499,28.079,5.367,4.644,1.54,9.226,3.124,13.657,4.654,2.011.695,4.021,1.391,6.038,2.082.652.223,1.311.445,1.97.666l3.779,1.271-5.406-.022c-2.7-.012-5.273-.03-7.91.094Z" stroke-width="0"/>
      <path d="m80.266,27.462c-.57-.164-1.155-.321-1.738-.479l-.059-.015c-1.325-.358-2.694-.726-3.904-1.153-5.005-1.76-9.453-3.978-13.595-6.777l-.136-.093c-1.36-.917-2.76-1.861-4.429-2.687-1.026-.508-2.472-.919-3.963-1.128-2.523-.355-5.077.277-6.077,1.099-.172.143-.296.29-.355.426.065.085.125.169.186.254.21.288.406.559.714.788.756.566,1.594,1.128,2.403,1.672l.192.129c.475.319.948.637,1.408.96,3.517,2.465,8.779,4.523,17.061,6.673,3.634.943,7.242,1.423,11.03,1.467,1.213-.005,2.084-.179,2.661-.529.07-.043.117-.081.149-.109-.055-.04-.156-.098-.329-.163-.218-.081-.485-.148-.744-.212h-.001l.043-.167-.074.159c-.151-.038-.3-.077-.444-.117Z" stroke-width="0"/>
      <path d="m261.114,41.576c-2.427.239-4.852.488-7.277.737l-.791.081c-1.829.188-3.657.375-5.486.561l-.409.042c-.715.074-1.455.149-2.089.108-.288-.023-.494-.016-.633-.003.091.082.223.157.414.2,1.388.308,2.609.469,3.733.495,1.132.023,2.328-.036,3.704-.106l.303-.016c.617-.032,1.265-.067,1.953-.094l2.333-.373c2.355-.375,4.876-.777,7.39-1.194.777-.129,1.14-.288,1.298-.381-.161-.063-.574-.186-1.509-.186l-.039-.172h0v.172c-1.116.004-2.064.046-2.895.129Z" stroke-width="0"/>
      <path d="m225.306,23.645h-.001c-3.615.172-7.36.619-11.785,1.403-.512.09-1.054.167-1.603.227.324.027.641.038.909.043,3.33.077,6.825-.066,10.378-.401l1.189-.104c.75-.067,1.526-.136,2.289-.183,1.139-.071,1.879-.276,2.199-.609h.001c-.074-.051-.266-.155-.694-.218-1.01-.147-2.039-.208-2.882-.159Z" stroke-width="0"/>
    </g>
  </g>
</svg>