<?xml version="1.0" encoding="UTF-8"?>
<svg id="b" data-name="Layer 2" xmlns="http://www.w3.org/2000/svg" width="142.146" height="457.09" viewBox="0 0 142.146 457.09">
  <g id="c" data-name="Layer 1">
    <g>
      <path d="m25,454.396l.155.048c12.89,2.344,26.148,2.645,36.254,2.645,5.1,0,10.245-.087,15.221-.172l.26-.004c5.081-.087,10.335-.176,15.58-.18,2.577-.348,5.252-.576,7.839-.795,6.139-.519,12.484-1.056,18.216-3.229,8.875-2.128,18.726-5.131,23.553-13.954l.069-.126-.024-.37c-.931-14.101-1.892-28.667-4.957-42.463-.66-3.892-1.447-7.776-2.207-11.532-2.128-10.499-4.325-21.347-3.801-32.519,2.02-30.255,4.443-61.55,7.409-95.68.325-4.727.811-9.528,1.28-14.171,1.739-17.254,3.536-35.087-2.226-51.862-.065-.701-.303-1.287-.533-1.853-.222-.543-.429-1.05-.465-1.576l-.044-.18c-3.709-8.942-7.995-15.332-13.479-20.084-7.067-5.971-15.956-14.095-21.997-23.984l-.024-.039v-.046c-.553-16.863-2.153-33.766-3.701-50.113-.828-8.754-1.681-17.764-2.367-26.68-.676-5.152-.202-10.542.257-15.756.524-5.956,1.066-12.086-.066-17.975l-.007-.036.008-.036c.436-1.825.03-3.709-.363-5.53-.398-1.838-.773-3.573-.288-5.187,1.828-7.567,1.317-12.906-1.564-16.309-2.908-3.433-8.159-4.825-16.052-4.26-10.027-.605-26.773-1.622-34.939,6.918l-.114.12-.02.164c-.066.577-.008,1.037.175,1.368l.133.241-1.196.065-.139.16c-.719.845-.787,1.805-.845,2.652-.017.242-.034.483-.065.722l-.073.352c-1.329,6.341-.307,12.675.682,18.802.293,1.811.589,3.646.82,5.449.671,4.895.428,9.95.192,14.839-.178,3.669-.36,7.46-.16,11.201l.008.172.113.129c.242.272.293.588.35,1.076.047.407.1.867.366,1.298l.027.044v.052c-.995,27.568-.73,55.96-.496,81.01v.14s-.136.03-.136.03c-4.849,1.053-10.004,3.343-14.142,6.284-1.13,1.057-2.31,2.134-3.503,3.222-9.002,8.21-18.311,16.702-20.571,28.563l-.016.044c-.35.699-.472,1.446-.592,2.169-.121.734-.235,1.426-.572,2.008l-.066.175c-4.196,20.244-1.438,40.938,1.229,60.951l.061.452c.348,2.618.697,5.23,1.026,7.832,5.324,42.775,6.861,75.669,4.987,106.652-1.014,8.709-1.712,17.57-2.387,26.14-.504,6.385-1.025,12.988-1.666,19.418-4.04,23.104.694,37.228,13.685,40.857l.042.017c.499.293.98.463,1.473.519l.069.024c.793.48,1.658.75,2.493,1.011.644.2,1.247.389,1.832.664Zm-11.217-9.546c-7.578-8.365-7.644-21.482-5.186-30.976.39-6.366.943-12.831,1.477-19.082l.004-.055c.277-3.22.62-7.227.917-11.072,5.621-38.665,2.402-78.423-1.031-108.741-.62-5.644-1.357-11.424-2.068-17.012-2.968-23.27-6.036-47.326-2.024-70.593.461-1.304.81-2.629,1.146-3.911.23-.881.459-1.747.664-2.479,7.22-13.229,19.113-23.835,32.639-29.132.768-.14,1.378-.465,1.969-.779l.039-.02c.147-.078.296-.157.449-.234l.042-.02.047.003c1.15.09,1.91-.331,2.235-1.213l.036-.101-.007-.106c-.114-1.596-.047-3.303.017-4.952.105-2.663.212-5.395-.398-7.894l-.005-.046c.317-10.686.268-21.63.219-32.214-.054-11.874-.109-24.151.358-36.032l.005-.144.272-.038c1.232-.173,2.464-.352,3.698-.531l.134-.02c11.1-1.614,22.576-3.283,33.981-1.292l.044.015c.523.25,1.054.387,1.524.507.818.21,1.513.389,2.047,1.054l.247.309.355-.176c.429-.215.701-.514.807-.89.195-.695-.269-1.432-.576-1.919l-.089-.14-.155-.058c-11.579-4.376-25.053-2.566-36.943-.97l-3.12.429c-.094.036-.27.118-.477.217-.391.187-.953.445-1.311.529l-.186.043-.024-.19c-.763-5.946-.908-12.379-.456-20.245-1.259-10.02-2.468-21.953-1.869-34.257l-.034-.253-.565-.632.422.03c.043.004.086.005.13.005,1.131,0,2.706-.952,4.519-2.047l.128-.078c1.396-.845,2.979-1.802,3.78-1.832,12.901-1.888,24.48-3.203,35.375-.098,3.499.463,5.261,3.731,5.209,9.71l-.013.066c-2.476,5.862-2.827,12.995-.991,20.085l.005.046c-.371,24.274,1.162,50.755,4.688,80.955.206,4.056.554,8.126.892,12.06l.013.145c.456,5.301.929,10.784,1.053,16.258l.024.148c.948,3.285,3.468,5.514,5.907,7.668l.671.593c2.043,2.078,4.067,4.057,6.025,5.974l.118.116c11.071,10.826,20.631,20.177,24.126,37.088.194,1.365.394,2.582.925,3.774,2.46,11.701,1.307,23.981.192,35.856l-.095,1.314c-.316,14.734-.643,29.979-3.238,44.526-.42,9.737-1.419,19.686-2.384,29.308-1.864,18.604-3.79,37.83-1.72,56.673,1.049,4.897,1.959,9.929,2.84,14.797,1.049,5.812,2.129,11.792,3.452,17.58,1.206,6.984,1.651,14.195,2.083,21.17.317,5.139.643,10.416,1.259,15.444-.307,5.339-8.568,8.967-14.055,9.749l-.133.019-.104.083c-.274.219-.627.285-1.034.362l-.397.095c-1.178.559-2.449.827-3.795,1.111-1.196.254-2.426.514-3.585.997l-.051.013c-1.752.151-3,.432-4.174.937-12.632,2.554-25.772,3.167-38.867,3.167-6.116,0-12.222-.134-18.263-.266l-.74-.016c-1.988-.043-3.965-.086-5.877-.118-2.527-.338-5.086-.566-7.562-.788-8.923-.8-18.139-1.626-25.608-7.366Z" stroke-width="0"/>
      <path d="m46.477,347.744c-.406-.902-1.29-1.046-2.183-1.064h-.077s-.05-.058-.05-.058c-.893-1.014-1.33-2.454-1.751-3.846l-.253-.754c-.277-.444-.421-1.019-.559-1.575-.141-.559-.286-1.139-.577-1.69l-.017-.05c-3.167-17.096-5.01-34.974-5.631-54.656-.516-2.314-.551-4.906-.585-7.411-.035-2.704-.071-5.483-.676-7.952-.054-.531-.066-1.089-.078-1.629-.042-1.754-.089-3.737-1.204-4.981l-.147-.163.192-.104c3.069-1.647,6.349-2.578,9.52-3.479,1.393-.397,2.803-.796,4.092-1.224,2.263-.424,4.511-.853,6.759-1.283l.28-.054c16.519-3.156,33.602-6.419,50.807-5.448l.195.011-.035.192c-2.882,15.515-3.135,31.961-3.38,47.867-.207,13.612-.421,27.662-2.288,41.086-.023.779-.498,1.643-.956,2.48-.791,1.446-1.775,3.245.218,4.542l.329.214-.382.097c-.437.11-.85.278-1.236.441-.219.093-.44.186-.664.266l-.052.011c-.999.04-1.9.35-2.679.921l-.173.126-.047.393c-.074.602-.157,1.275.143,1.933l.051.11.095.075c.672.519,1.463.761,2.489.761.212,0,.42-.011.623-.024l.235-.074c.485-.272.923-.445,1.345-.612.822-.325,1.598-.632,2.316-1.661l.089-.126v-1.69l-.806-.839-.597-.155.519-.19c5.039-1.838,4.563-11.722,4.181-19.663-.168-3.525-.328-6.855.04-8.846.797-7.75,1.045-15.748,1.284-23.482.196-6.356.399-12.924.906-19.304.68-7.711.624-13.095.582-17.027-.043-4.209-.067-6.525.939-7.467,1.076-1.015,3.811-.803,8.772-.42,3.439.266,8.135.628,14.344.758l.258.005.151-.21c1.026-1.431.463-2.402.036-2.854-.55-.584-1.668-1.057-3.32-1.407l.042-.34,2.602.104.141-.106c.757-.574,1.05-1.177.849-1.742-.845-2.379-11.544-2.899-39.476-1.93-3.696.13-6.017.199-6.911.184l-4.891.69c-8.128,1.134-16.533,2.306-24.702,3.944l-.164.032-.11.125c-.139.159-.34.195-.687.246-.327.047-.694.101-1.022.336l-.073.03-1.366.242c-1.161.496-2.372.867-3.654,1.261l-.054.017c-1.251.383-2.544.779-3.795,1.31l-.048.012c-.648.071-1.224.307-1.781.534-.538.221-1.048.429-1.582.476l-.141.032c-.726.26-1.451.537-2.251.843-1.335.511-2.7,1.034-4.164,1.467-.984.453-2.327,1.031-3.778,1.411-1.139.449-2.329.873-3.38,1.248-1.955.697-3.971,1.416-5.956,2.344-.804.471-1.939.85-3.142,1.252-2.987.995-6.362,2.119-6.525,5.343l-.017.321.288.145c.481.239.967.356,1.487.356,1.334,0,2.641-.803,3.795-1.512.758-.464,1.465-.897,2.201-1.144,1.327-.59,2.672-1.169,4.014-1.747l.327-.141c3.057-1.31,6.216-2.667,9.251-4.188,3.579-1.335,6.882-2.534,10.11-3.674l1.267-.117.126-.128c.157-.16.377-.204.719-.264.321-.055.685-.118,1.014-.348l.074-.03,1.473-.204.124-.175c.083-.12.25-.145.561-.186.307-.038.689-.085,1.027-.328l.077-.031,1.318-.19.113-.102c.155-.143.367-.188.703-.25.336-.063.713-.133,1.05-.378l.065-.03c2.75-.594,5.453-1.314,8.766-2.332,17.081-3.799,34.678-3.948,49.645-3.597l.004.344c-25.487,1.13-65.481,7.827-69.048,9.57l-.052.016c-.929.126-2.269.356-3.163.886-8.9,2.965-17.859,7.371-25.261,12.422l-.168.113-.038.199c-.164.836.173,1.584.924,2.051l.222.079c.48.062.827-.159,1.079-.324.16-.102.219-.139.274-.149l.183-.007.125-.087c4.048-2.866,8.883-5.157,13.487-7.258l.256-.117-.012.281c-.455,10.199.853,20.14,2.117,29.755.628,4.77,1.276,9.702,1.711,14.69.815,4.888.944,10.074,1.069,15.09.167,6.642.339,13.508,2.08,19.847.818,3.437,2.394,6.04,4.685,7.737l.095.07.116.02c.261.044.672.097,1.154.097.807,0,1.92-.152,2.651-.877.381-.379.796-1.072.607-2.219l-.044-.144Z" stroke-width="0"/>
      <path d="m9.77,221.259c1.186,0,2.437-.885,3.54-1.666.477-.339.971-.689,1.426-.928,6.923-4.232,13.362-7.134,19.675-8.869,4.342-1.606,7.721-2.583,10.94-3.164l.168-.031.114-.129c.136-.155.338-.191.685-.242.331-.047.706-.101,1.041-.347l.065-.03c.282-.063.574-.12.873-.176.998-.192,1.997-.385,2.875-.806l.043-.015c2.278-.416,4.636-.754,6.716-1.054,3.868-.557,7.869-1.132,11.703-2.157l.169-.027c14.98-2.37,30.475-4.817,45.863-3.316h.056c2.184.035,4.41.12,6.798.261l.095.005c2.811.167,5.718.344,8.72.212l.184-.007,1.649-1.571-1.608-1.61-.171-.02c-21.919-2.543-45.953-.862-71.443,4.988-5.004.272-9.53,1.026-13.867,2.309l-.048.007c-.624.001-1.187.182-1.684.342-.434.14-.885.286-1.343.295l-.203.044c-1.023.414-2.078.664-3.389.804l-.173.019-.121.122c-.234.231-.57.253-.995.28-.21.012-.451.028-.678.074l-.191.078c-.504.317-1.126.453-1.783.597-.65.144-1.303.289-1.912.619l-.055.017c-1.105.172-2.314.612-3.592,1.304-6.466,1.949-13.608,5.273-19.137,8.907l-.547.332c-.905.542-1.841,1.101-2.456,2.05l-.078.121v1.06l.079.122c.421.647.949,1.036,1.573,1.155.136.027.28.04.425.04Z" stroke-width="0"/>
      <path d="m48.609,351.161l-.14.128c-.217.196-.37.383-.484.592l-.104.19.07.204c.834,2.438,3.328,3.062,5.53,3.612,1.061.266,2.036.511,2.792.916l.167.056c.176.032.386.048.619.063.433.03.776.054,1.013.289l.126.129.853.067c3.866.308,7.866.627,11.878.627,8.805,0,15.225-1.635,20.205-5.147l.147-.102.044-.173c.241-.909.026-1.701-.623-2.29l-.29-.265.391-.035c.16-.013.309-.039.432-.065l.121-.026.094-.079c1.216-1.03,1.44-2.546,1.638-3.883.116-.773.223-1.502.496-2.13l.043-.175c.598-6.149-.214-7.348-5.443-7.999-4.626.194-9.396-.004-13.602-.178l-.672-.028,1.022-.506c.491-.25.999-.508,1.421-.678,3.156-.754,3.912-3.127,4.236-5.35l.027-.175-.094-.152c-.233-.381-.233-.815-.233-1.366-.001-.343-.003-.697-.051-1.077l-.097-.246c-.52-.768-1.179-1.3-1.817-1.814-.296-.238-.574-.464-.839-.713l-.038-.05c-.137-.281-.276-.592-.421-.917l-.028-.063c-.983-2.207-2.337-5.227-5.242-4.741l-.779.422-1.779-1.786-.176-.02c-1.473-.172-2.675.518-3.733,1.126-.382.219-.742.426-1.108.596l-.059.027-.062-.017c-1.885-.542-3.698-.003-4.973,1.486l-.139.163.024.212c.211,1.887-.254,3.077-1.608,4.104l-.187.143-.007.234c-.011.359-.117.654-.241.992-.074.199-.156.425-.214.66l-.055.221.13.183c.281.393.335.818.393,1.268l.02.163.114.117c.874.905,1.235,1.748,1.205,2.821l-.005.176.109.139c.449.578,1.044,1.206,1.592,1.68l.101.087.132.024c.753.14,1.454.114,2.137.089.315-.008.624-.007.948-.016h.079l.051.062c1.579,1.877,3.84,1.953,5.39,1.841l.081-.005.056.059c.022.023.044.042.066.061.028.023.055.046.082.071l.307.308-.434-.013c-6.193-.186-12.823-.159-19.284,1.323l-.129.028-.095.087c-.159.147-.374.202-.706.276-.504.113-1.131.253-1.513.991l-.063.122.009.139c.081,1.166-.101,2.574-.293,4.065-.405,3.148-.863,6.715,1.329,8.712l.14.128Zm37.005.015c-4.777,1.865-10.213,2.808-15.924,2.809-3.935,0-8-.448-12.074-1.349l-.063-.03c-.34-.247-.719-.304-1.053-.354-.301-.047-.538-.083-.689-.238l-.424-.44.413.005c5.167.07,10.459-.159,15.12-.366,4.95-.221,9.789-.409,14.632-.371l.892.008-.83.324Zm-16.965-18.375c-1.442-.09-2.68-.167-3.579-1.584l-.143-.226-2.75-.032-.818-.841v-.07c-.004-1.329-.627-2.215-1.126-2.926-.82-1.167-1.097-1.755.913-3.468l.173-.148v-2.664l.042-.048c.325-.377.824-.496,1.657-.403l.055.005.04.038.994.888.305-.169c3.489-1.931,4.193-1.599,4.876-1.274.816.385,1.598.615,3.576-.219l.094-.039.079.062c.6.473,1.12,1.068,1.603,1.637.44.748.597,1.576.764,2.453.257,1.354.546,2.883,1.977,3.958l.061.046.007.075c.061.663.055,1.348-.019,2.158l-.005.062-.9.885-1.294.094-.538.627c-.736.875-1.431,1.703-2.575,2.002l-.074.019-.065-.043c-1.064-.71-2.269-.785-3.333-.853Zm-18.27,14.004c.27-2.261.395-4.633.382-7.251v-.164s.163-.009.163-.009c14.047-.781,26.507-.775,38.086.023l.082.028c1.407.924,1.048,3.409.699,5.811-.157,1.089-.301,2.087-.292,2.96l.005.518-.315-.412c-.168-.221-.406-.414-.709-.576l-.215-.069c-2.727-.329-5.787-.494-9.32-.494-3.051,0-6.126.12-9.099.234l-.054.003c-6.403.249-12.998.504-19.267-.412l-.167-.024.02-.167Z" stroke-width="0"/>
      <path d="m28.552,425.818c-2.752-.274-3.811-3.737-4.585-6.267l-.182-.561c-.748-1.547-1.143-3.265-1.526-4.929-.303-1.322-.613-2.672-1.1-3.966l-.009-.044c-1.712-17.88-.476-36.03.719-53.584,1.095-16.069,2.226-32.686,1.119-49.167l-.011-.171-.641-.647h-.218c-.64-.028-.812.026-1.333.487l-.14.124-.023.184c-.044.354-.042.717-.035,1.12.011.718.02,1.338-.329,1.903l-.074.118v.14c-.015,3.643-.009,7.311-.003,11.06.024,15.476.05,31.462-1.482,46.915l-.25,1.976c-1.919,15.065-4.092,32.135.697,46.932.172.483.35,1.022.538,1.59,1.334,4.047,3.154,9.562,7.824,9.562.087,0,.175-.003.264-.007l.18-.007,1.392-1.274.022-.182c.113-.972-.406-1.212-.814-1.306Z" stroke-width="0"/>
      <path d="m75.531,226.812l.114.3c2.62,6.91,10.556,10.439,15.053,11.927,1.947.444,4.041-.272,4.563-1.563.414-1.021-.221-2.103-1.787-3.045-4.781-1.899-9.469-4.563-13.174-7.489l-.151-.118.134-.137c3.033-3.094,4.263-7.222,2.994-10.035-.613-1.364-2.402-3.575-7.398-3.031l-.151.016-.116.097c-.316.266-.643.309-1.104.347l-.186.013-.129.134c-.448.463-1.027.698-1.642.947-1.029.416-2.093.845-2.445,2.332l-.019.081.008.082c.137,1.323-.07,3.706-.311,6.466-.652,7.454-1.46,16.708,3.124,17.222l.234.026.168-.165c1.373-1.362,1.276-5.783,1.165-10.903-.133-6.033-.114-11.453,1.571-11.597h2.823l.854.83.008.056c.444,2.83-1.204,4.375-3.111,6.163h-.001c-.286.269-.574.539-.858.818l-.231.226Z" stroke-width="0"/>
      <path d="m20.759,222.475c1.206-.459,2.575-.978,3.896-1.525,2.633-1.128,5.369-2.107,8.014-3.053l.12-.043c1.001-.358,2.036-.729,3.152-1.153.441-.269.982-.425,1.553-.589.546-.156,1.108-.317,1.635-.602l.071-.02c.592-.038,1.099-.304,1.545-.538.434-.227.854-.432,1.271-.437l.134.003.112-.062c.851-.457,1.766-.691,2.734-.94.792-.203,1.611-.414,2.394-.757l.063-.015c.633-.019,1.079-.152,1.517-.297.452-.152.826-.261,1.309-.245l.086.005.079-.022c9.8-2.737,20.385-4.556,32.361-5.564,15.471-3.827,32.263-3.474,45.16-2.738l.21.012.582-.546.035-.145c.108-.457.054-.838-.16-1.13-.371-.508-1.085-.561-1.716-.608-.546-.042-.841-.081-.966-.184l-.155-.153-.202-.004c-3.023-.051-6.21-.09-9.513-.09-7.871,0-16.399.219-24.948,1.01l-.179.05c-.855.379-1.752.476-2.702.58-.992.11-2,.222-2.994.666l-.055.013-.317.03c-1.738.153-3.38.299-5.065.878l-.05.009c-8.88.367-17.479,2.164-25.794,3.901l-.212.044c-2.017.421-4.104.857-6.194,1.272-5.507,1.327-10.808,3.246-15.767,5.1-1.579.615-3.171,1.278-4.711,1.918l-.075.031c-2.191.912-4.455,1.855-6.732,2.674l-.186.116c-.246.215-1.596.781-3.334,1.497l-.042.016c-5.484,2.255-7.749,3.386-7.573,4.563.12.807,1.232,1.019,2.302,1.123l.156.015.136-.079c2.862-1.643,5.982-2.832,9-3.981l.013-.005Z" stroke-width="0"/>
      <path d="m32.206,221.478c-.686-.694-1.555-1.037-2.504-.953l-.152.007-.121.089c-3.474,2.567-5.128,6.451-6.726,10.207l-.07.164c-.188.441-.377.881-.568,1.317l-.036.13c-.176,1.006-.394,2.072-.624,3.201l-.009.047c-1.22,5.999-2.604,12.8.401,17.8l.233.389.67-.319c.358-.155.756-.327,1.057-.745l.354-1.898c.351-2.289.715-4.661.752-7.078v-.093s.079-.05.079-.05c.476-.304.936-.616,1.374-.913l.04-.028c1.834-1.245,2.778-1.797,3.194-1.548.239.141.608.785.368,3.509l-.013.148.071.13c.285.526.358,1.115.433,1.739.118.966.251,2.06,1.306,2.838l.12.09.148.005c1.066.048,1.231-.03,1.933-.958l.149-.198-.07-.237c-.498-1.713-.273-5.496-.036-9.503.406-6.867.865-14.645-1.752-17.291Zm-2.803,11.346c-.043,1.251-.087,2.532-.027,3.756l.004.081-.059.054c-.547.504-1.271.711-2.107.953-.334.095-.705.2-1.065.332l-.26.095.03-.274c.144-1.372.764-2.918,1.311-4.282l.327-.819v-.095c-.004-.434.204-.824.446-1.275.241-.448.511-.952.553-1.545l.022-.07c.183-.338.355-.659.516-.967l.286-.551.038.62c.078,1.307.031,2.67-.015,3.987Z" stroke-width="0"/>
      <path d="m97.656,233.434c2.858,0,5.533-1.233,7.531-3.474,2.589-2.898,3.825-7.15,3.228-11.099-.849-4.129-4.87-6.782-10.755-7.09l-.077-.004-.074.019c-5.905,1.549-11.174,6.801-9.817,13.838,1.487,3.858,5.268,6.934,9.622,7.805.095.001.218.004.342.004Zm-3.95-9.707c-.558-2.546.664-5.569,3.113-7.703l.051-.044h.067c4.578.141,6.977,3.016,7.269,5.629.261,2.325-1.065,5.449-5.66,6.599l-.044.012-.044-.013c-2.597-.745-4.283-2.336-4.751-4.48Z" stroke-width="0"/>
      <path d="m63.331,220.111l.081-.02h1.711l.233-.052c1.161-.514,1.119-1.569,1.081-2.501l-.005-.139-.075-.114c-.604-.924-1.432-1.233-2.164-1.506-.191-.071-.429-.159-.659-.264l-1.498-.062-.202.043c-.512.202-1.075.377-1.669.562l-.044.013c-2.128.662-4.537,1.411-5.756,3.809l-.059.25c-.026,1.391-.07,2.807-.114,4.215l-.009.303c-.18,5.612-.35,10.913.218,16.516l.013.132.078.108c.621.857,1.541,1.483,2.59,1.764l.164.044.155-.066c.553-.233,1.091-.433,1.686-.652.838-.311,1.69-.627,2.516-1.031.334-.083.581-.223.799-.346.295-.167.48-.249.709-.253l.102.009.093-.031c1.331-.426,2.247-1.353,2.579-2.608l.048-.179-.082-.164c-1.413-2.882-3.887-2.06-5.695-1.46l-.042.015c-.963.321-1.666.534-1.942.284-.195-.172-.46-.816-.015-3.181l.013-.071.061-.04c1.434-.945,2.66-1.532,3.977-1.899.122-.062.285-.133.455-.206l.094-.04c1.255-.539,2.972-1.276,2.717-3.139l-.016-.116-.066-.097c-.383-.557-.827-.92-1.256-1.271l-.12-.098-.145-.016c-1.781-.19-3.505.005-5.127.584l-.195.069-.032-.204c-.071-.446-.034-.967.003-1.469.062-.845.13-1.799-.301-2.598l-.036-.069.027-.073c.35-.967,1.801-1.456,3.203-1.93.706-.239,1.373-.465,1.92-.754Z" stroke-width="0"/>
      <path d="m42.854,239.424c.008-.719.016-1.44.019-2.161v-.079l.059-.051c3.548-3.07,6.603-8.451,5.576-12.14-.42-1.502-1.72-3.416-5.535-3.99l-.117-.019-.113.038c-.364.121-.754.227-1.132.329-1.104.299-2.218.6-3.084,1.267l-.149.116-.034.183c-1.15,6.112-1.747,19.756,1.984,25.126l.148.211h1.283l.124-.082c.492-.329,1.037-.741,1.256-1.456l.062-.203-.324-.609c-.073-2-.048-4.082-.026-6.095l.004-.383Zm-.016-13.304l.169-.039h.052c.481,0,.736.167.932.6l.027.059-.02.063c-.276.9-.522,1.553-.799,2.118l-.3.615-.027-.683c-.019-.491-.024-1.271-.034-2.563v-.169Z" stroke-width="0"/>
      <path d="m115.404,219.375c.074-2.111.149-4.294-.016-6.381l-.015-.19-.139-.13c-1.04-.976-1.926-1.458-2.688-1.458-.231,0-.451.043-.659.132-1.856.779-1.945,4.792-2.031,8.673-.043,1.993-.089,4.049-.429,4.817l-.046.222c-.04,1.927-.082,3.77.526,5.642l.091.169c.89,1.177,2.001,1.614,3.076,2.037l.32.094c.767.052,1.563.126,2.357.199l.173.016c1.856.172,3.774.35,5.733.35.832,0,1.598-.031,2.339-.094l.176-.015.859-.831.024-.167c.16-1.115-.063-2.055-.663-2.795-1.421-1.748-4.606-1.954-7.165-2.118l-.083-.005c-.498-.032-.967-.062-1.385-.104l-.132-.012-.02-.132c-.39-2.507-.296-5.258-.204-7.92Z" stroke-width="0"/>
      <path d="m122.603,263.86l-.592.182c-3.864,1.19-4.373,14.676-4.585,29.59-.044,3.178-.082,5.924-.208,7.39l-.015.163.086.139c.343.553.917,1.478,1.972,1.478l.221-.005.126-.101c.391-.311.881-.733,1.192-1.235l.156-.251-.492-.843v-.046c-.034-5.347.576-10.885,1.165-16.24.719-6.539,1.46-13.278,1.018-19.601l-.043-.619Z" stroke-width="0"/>
      <path d="m54.642,160.798c4.269-1.153,9.017-1.732,13.873-1.732,4.344,0,8.774.463,13.026,1.393l.075.038,1.384,1.19.233.117c.134.031.299.054.451.054.28,0,.522-.081.719-.239.547-.44.514-1.288.487-1.972l-.012-.403-.09-.125c-1.458-2.001-3.374-2.372-5.227-2.731-.75-.145-1.524-.295-2.275-.553l-.141-.028c-6.418-.516-13.243-.908-19.735.467l-.151.055c-.412.219-.88.393-1.376.577-.732.273-1.46.545-2.121.988l-.11.075-.73,1.52,1.454,1.382.268-.073Z" stroke-width="0"/>
      <path d="m60.34,314.655c.477.576,1.058,1.306,2.165,1.056l.198-.042.113-.165c.834-1.237.866-1.286,2.222-2.426l.043-.036.393-.026.051.04c.149.114.288.265.433.425.429.471,1.003,1.088,2.079.901.354-.114.724-.386,1.115-.674.689-.504,1.128-.796,1.448-.633l.052.042c.577.672,1.571.953,2.717.761,1.096-.19,2.36-.85,2.71-1.899l.094-.286-1.155-1.19-.34.221c-1.431.924-2.493.97-3.156.132l-.117-.148-.187-.032c-.793-.132-1.42.229-1.92.52-.323.184-.608.348-.904.401l-.086.015-1.443-1.389-.178-.013c-.697-.051-1.335-.036-1.906.035l-.234.089c-.607.385-1.079.901-1.536,1.401-.305.335-.578.633-.884.888l-.114.095-1.288-1.153-.233.039c-1.541.25-2.087-.313-2.781-1.026-.752-.773-1.598-1.623-3.568-1.296l-.171.059c-.982.511-2.114,1.169-2.787,2.379l-.063.195c-.034.242-.112.522-.188.792l-.022.077c-.295,1.05-.66,2.352.561,3.35l.148.121,1.08-.059.108-.319c.124-.367.223-.764.328-1.183.456-1.822.814-2.924,2.406-2.637l.061.011.039.047c.143.167.128.377.09.733l-.007.1-.032.042c-.664.853-1.327,1.856-1.212,2.836.056.476.303.897.71,1.216l.134.105h1.2l.128-.09c.811-.574,1.182-1.455,1.51-2.232.125-.299.238-.57.37-.824l.031-.058.059-.023c.836-.332,1.174.082,1.688.705l.028.035Z" stroke-width="0"/>
      <path d="m64.848,57.186c-.6-.715-1.373-.96-2.054-1.175-.391-.122-.792-.249-1.162-.46l-.242-.07c-3.548-.262-6.962.035-11.045.983l-.207.098c-.219.161-.553.247-.905.339-.52.132-1.161.295-1.688.936-.229.409-.639,1.135-.418,1.811.125.385.425.686.889.898l.143.065.153-.031c5.612-1.077,10.705-1.98,16.196-2.09l.51-.009-.066-1.171-.104-.124Z" stroke-width="0"/>
      <path d="m90.431,270.149c-2.836-1.391-3.981.331-4.262.894-.034.067-.056.141-.081.214-.016.05-.032.098-.05.145l-.129.343-.182-.317c-.375-.64-.806-.96-1.282-.96-.855,0-1.436.984-2.051,2.028-.346.585-.698,1.166-.947,1.378l-.23.198-.051-.299c-.034-.19-.061-.409-.089-.628-.117-.939-.246-1.977-.909-2.47-.208-.159-.58-.321-1.105-.238l-.137.023-.953.828-.055.004c-.266.024-.666.159-1.058.656l-.261.331-.051-.464-.862-.789-.151-.02c-.97-.125-1.669.16-2.279.41-.438.182-.847.351-1.335.363h-.052s-.627-.399-.627-.399l-.169.016c-1.313.132-2.028.928-2.25,2.507l-.061.425-.25-.348c-.358-.498-.845-.619-1.201-.707-.136-.034-.241-.062-.323-.093l-.081-.031-.024-.082c-.075-.256-.231-.468-.449-.613-.367-.242-.88-.276-1.368-.093l-.196.073-.083.191c-1.124,2.559-1.147,6.384-.378,7.719.269.468.602.597.834.624l.173.019.148-.094c.292-.188.514-.436.698-.78l.085-.156.153.089c.416.241.823.597,1.218.94.905.783,1.945,1.664,3.248,1.358l.203-.048.106-.179c.781-1.321.737-2.811.695-4.252-.017-.615-.034-1.194.012-1.751l.028-.081.315-.507.054.499c.05.459.073.923.097,1.415.061,1.29.122,2.586.65,3.788l.095.219.23.059c.418.11,1.108.292,1.65-.468l.09-.128v-1.923c-.003-1.69-.004-3.439.032-5.085l.003-.097.211-.12c.148-.082.282-.157.414-.247l.385-.261-.121.448c-.549,2.024-.57,4.911.276,5.822l.118.126.939.132.997-.948-.02-.235c-.059-.729.051-1.4.168-2.025l.116-.615.215.588c.281.768.685,1.333,1.27,1.778l.165.126.203-.031c2.557-.371,3.705-3.055,4.628-5.213.043-.101.085-.194.126-.286l.507-1.169-.07,1.009c-.13,1.853.631,3.743,1.732,4.303.253.129.518.194.787.194,1.033,0,2.082-.976,3.033-2.826l.061-.23c.077-1.3.161-2.682-.733-3.819l-.2-.156Zm-21.685,7.125c-.007.199-.017.391-.036.573l-.04.418-.265-.328c-.036-.046-.071-.093-.105-.141l-.028-.043v-.319l.028-.044c.044-.067.086-.136.124-.204l.347-.625-.024.714Z" stroke-width="0"/>
      <path d="m83.038,313.966l.194.012c.039.003.077.004.114.004.769,0,1.338-.495,1.842-.935.34-.299.694-.607,1.112-.785l.147-.062.074.141c.065.125.091.284.122.569.04.373.095.884.5,1.306l.151.157.218-.005c1.114-.034,1.864-.843,1.912-2.064.061-1.522-.953-3.283-2.695-3.472l-.186-.02-.151.108c-.418.293-.921.35-1.403.367l-.071.003-1.465-1.357-.141-.026c-1.216-.214-2.441.134-3.441.975-1.235,1.04-1.994,2.678-1.982,4.274v.226s.694.586.694.586l1.173-.075.13-.237c.529-.96,1.326-1.711,2.098-2.434l.05-.047h.448l.04.114c.109.309.013.714-.308,1.311l-.169.312.992,1.054Z" stroke-width="0"/>
      <path d="m69.232,303.223c-.799-.005-1.485-.011-1.937-.428-1.43-1.863-2.643-2.101-4.648-.94l-.04.016c-1.112.308-1.563-.207-2.318-1.224-.332-.446-.707-.952-1.206-1.339l-.211-.164-.251.087c-.194.067-.398.156-.607.246-.935.406-1.389.53-1.719.223l-.054-.051v-2.378l-.233-.144c-.55-.346-.658-.37-1.46-.297l-.139.011-.11.079c-.8.584-1.233,1.43-1.218,2.382.019,1.14.678,2.286,1.719,2.991l.121.082,2.735.059,1.235,1.148c.966.53,1.786.703,2.998.613l.194-.052c1.732-.788,2.62-1.001,3.741.317l.116.118.148.043c.859.251,1.832.537,2.8.537.932,0,1.711-.268,2.383-.816l.612-.5-.719-.328c-.623-.284-1.287-.288-1.93-.292Z" stroke-width="0"/>
      <path d="m66.166,261.673l.129-.004c.132-.007.27-.003.406.001l.1.003c.438.016,1.044.038,1.568-.2l.083-.036.077.047c1.388.842,2.991.834,4.933-.016l.077-.034.073.039c.316.167.655.207,1.046.13l.133-.028.811-.754v-1.483l-1.369-1.362-.187-.012c-.49-.034-.952-.012-1.396.009-.553.024-1.076.05-1.607-.034l-.056-.008-.04-.042c-.463-.475-1.107-1.005-2.083-.827l-.141.026-1.338,1.253-.097-.031c-1.962-.624-2.972-.149-3.26.504-.305.691.067,1.79,2.025,2.8l.114.059Z" stroke-width="0"/>
      <path d="m58.042,276.513l-.091-.112c-.994-1.204-1.993-1.794-3.047-1.794-.071,0-.143.003-.214.008l-1.514.82-.051.194c-.176.664-.495,2.031-.662,3.71l-.034.342-.253-.233-.233-.134c-.136-.039-.312-.063-.479-.083l-.218-.026-.036-.147c-.062-1.003-.506-1.872-.897-2.639l-.09-.178.437-1.157-.253-.223c-.683-.608-1.288-.609-1.674-.503-1.452.374-2.372,2.671-3.264,5.196l-.052.148c-.106.299-.2.563-.284.776l-.026.063-.257.122c-.471.222-1.003.472-1.44.933l-.124.132-.052.98.071.125c.286.502.664.814,1.19.983l.161.052.494-.182.07.134c.163.309.412.697.898.932l.136.067.908-.136.87-1.91.355-.25.097-.008c.042-.004.094-.009.144-.012l.182-.011v3.651l.16.147c.153.14.311.241.465.3l.539.206.391-.375c.178-.169.289-.398.324-.659l.011-.042c.268-.66.317-1.408.36-2.067.079-1.253.173-2.025,1.083-2.265l.214-.056.003.222c.017,1.709.285,3.224.792,4.5l.079.2-.212.032c-.843.132-1.685.276-2.503.428l-.566.105h.001s-1.377.258-1.377.258c-.923.176-1.846.352-2.778.518l-.272.118c-.476.34-.999.709-1.198,1.426l-.059.217.124.186c.48.726,1.299,1.08,2.503,1.08,1.522,0,3.373-.562,5.007-1.057.792-.242,1.436-.434,1.916-.531.947.03,1.688-.132,2.403-.297l.184-.043c.563-.132,1.095-.26,1.711-.227l.152.003.129-.089c.149-.102.355-.178.537-.243.455-.169,1.021-.379,1.319-1.036l.108-.233-.129-.219c-.226-.389-.588-.522-.853-.619-.168-.062-.274-.102-.339-.167l-.148-.145-.208.005c-.857.023-1.756.083-2.83.191l-.399.04.312-.402v-3.509l.048-.05c1.103-1.13,2.535-2.912,2.246-5.342l-.017-.144Z" stroke-width="0"/>
      <path d="m75.004,303.785c.6-.05,1.127-.094,1.534-.017l.235.043.179-.159c.265-.234.561-.281,1.022-.339.397-.05.889-.11,1.343-.413l.052-.036.063.008c2.714.315,4.854-.978,6.902-2.226l.133-.081c.434-.264.869-.529,1.314-.777l.19-.106.048-.214c.114-.492-.032-.792-.176-.956-.362-.409-.968-.358-1.46-.312l-.063.005c-.104.009-.202.019-.286.019l-.186.03c-.577.19-1.166.498-1.735.795-.924.484-1.795.939-2.683.939h-.145l-.05-.086c-.329-.574-.854-.975-1.478-1.131-.831-.207-1.75.026-2.458.633l-.141.19c-.452.941-1.247,1.626-2.089,2.298l-.067.032c-.269.069-.752-.044-1.299-.184-.754-.196-1.385-.36-1.848-.022-.165.117-.367.346-.399.777l-.011.159.083.136c.455.732,1.181,1.058,2.355,1.058.389,0,.795-.035,1.12-.063Z" stroke-width="0"/>
      <path d="m81.516,264.584c.051,0,.101-.003.152-.005l.079-.004.055.056c.974,1.007,2.171,1.595,3.32,2.08l.129.055.14-.022c1.225-.198,2.165-1.107,2.095-2.025-.019-.27-.2-1.157-1.699-1.252l-.059-.004-.046-.04c-.226-.203-.44-.441-.667-.694-.689-.764-1.45-1.607-2.618-1.607l-.246.012.004-.187c.015-.685-.09-1.643-1.162-2.07l-.105-.042-.987.07-.098.056c-1.228.718-1.68,2.079-1.151,3.471.412,1.088,1.517,2.15,2.863,2.15Z" stroke-width="0"/>
      <path d="m47.758,265.368l-.225.043c-1.058.199-1.135.838-1.119,1.103.056.955,1.626,2.028,2.472,2.086l.098.007.093-.032c1.564-.533,2.218-1.586,2.651-2.546l.048-.108.118.007c1.444.071,2.512-.756,3.458-1.491l.256-.2.094.04c.519.222,1.025.194,1.478.172.226-.009.432-.016.65-.004l.21.015,1.202-1.122-.327-.359c-.553-.604-1.13-.999-1.686-1.381-.516-.354-.992-.679-1.447-1.151l-.108-.113-.153-.03c-1.112-.217-1.99.106-2.433.877l-.062.171c-.104.512-.061.968.14,1.37l.047.093-.061.083c-.168.235-.343.394-.553.5l-.078.039-1.764-.884-1.073,1.013.011.227c.052,1.099-.008,1.88-.467,2.386l-.051.056h-.346l-1.073-.867Z" stroke-width="0"/>
      <path d="m68.367,286.669l-.125-.035c-1.07-.301-2.14-.066-2.943.643-.931.815-1.392,2.115-1.205,3.392l.024.168,1.309,1.255.144.026c.204.034.383.032.563-.005l.208-.046v.214c0,.241-.02.605-.062,1.284l-.004.055-.034.042c-.258.32-.315.706-.359,1.015-.044.311-.081.508-.211.641l-.094.097-.032.133c-.148.616-.188,1.279-.122,1.972l.083.238c.214.348.594.402.9.444l.2.036.16-.095c.827-.495,1.153-1.307,1.439-2.025.114-.288.245-.617.42-.935l.066-.222c.034-.364.122-.799.208-1.218.183-.904.368-1.825.233-2.686l-.74-1.358.804-.85-.098-1.436-.733-.742Z" stroke-width="0"/>
      <path d="m90.809,279.581c-1.965-1.006-12.776,1.45-13.237,1.6-.081.046-.199.104-.323.165-.659.327-1.478.733-1.645,1.485-.091.416.038.845.386,1.278l.143.179.409.008c1.265,0,2.452-.359,3.599-.707,1.057-.321,2.048-.624,3.112-.675l.117-.005.102-.058c1.049-.598,2.532-.737,3.842-.859l.164-.035c3.241-1.122,3.751-1.543,3.552-2.162-.026-.079-.1-.151-.221-.212Z" stroke-width="0"/>
      <path d="m59.104,280.233l.523.566c.484.534.983,1.084,1.611,1.538l.129.094h1.27l1.034-.966-.017-.235c-.063-.855-.713-1.229-1.189-1.502l-.065-.038c-.044-.026-.09-.051-.133-.078l-.046-.028-.366-.832.828-.99-.003-.183c-.017-1.029-.613-1.317-1.049-1.526l-.124-.059-.02-.159c.128-.541.383-.939.718-1.124l.077-.022c.49-.019.896-.211,1.142-.542.256-.339.308-.783.151-1.248l-.056-.167-.148-.091c-1.165-.737-2.999-.373-4.095.399l-.108.074-.574,1.205.2.562-.022.059c-.588,1.58-.165,3.281.173,4.648l.157.644Z" stroke-width="0"/>
      <path d="m56.796,291.234l-.098.105-.027.14c-.186.964,0,1.608.534,1.861.863.416,2.028-.534,2.366-.835l.276-.246.098,3.569.803.89.14.038c.117.032.334.091.582.091.43,0,.797-.182,1.091-.538l.106-.13.005-.168c.052-1.712.054-3.721.001-5.373l-.044-.198c-.479-1.178-1.104-2.328-2.967-1.976l-.151.028-.109.109c-.299.304-.605.608-.914.914-.555.551-1.128,1.12-1.692,1.717Z" stroke-width="0"/>
      <path d="m76.409,295.598l1.803-.976.574-1.226c1.53-3.23,2.976-6.278-.346-7.996l-.207-.108-.48.204c-.558.226-1.249.506-1.616,1.261l-.054.202c-.036.44-.105.757-.347,1.084l-.437.467.628.242.03.046c.022.034.039.078.07.165.098.28.246.702.831.888.184.034.379.03.578.023l.304-.012-.042.218c-.12.563-.399,1.12-.695,1.709-.508,1.013-1.03,2.051-.748,3.194l.153.616Z" stroke-width="0"/>
      <path d="m70.48,291.313c.003.312.004.627.004.944v.315c.003.952.004,2.031.055,3.101l.008.175.857.955h.893l.141-.125c.413-.371.473-.797.522-1.14.036-.253.062-.434.21-.601l.126-.14v-.19c.003-.682.015-1.373.027-2.071.023-1.346.048-2.846-.004-4.325l-.007-.191-.841-.854-.178-.019c-.063-.005-.125-.008-.184-.008-1.296,0-1.677,1.343-1.931,2.617-.042.214-.077.391-.116.545l-.051.202.468.763v.048Z" stroke-width="0"/>
      <path d="m70.58,283.288c-.335.136-.73.293-.978.379l-.087.03-.982-.752-.129-.017c-1.74-.23-3.025.3-4.425,1.155l-.214.13-.019.251c-.047.593.179.91.377,1.073.217.179.495.266.854.266.484,0,1.048-.153,1.642-.316l.09-.026c.795-.217,1.166-.319,1.33-.273l.051.022.694.436.223.078c1.053.148,1.974-.334,2.791-.761.806-.426,1.559-.831,2.427-.646l.402.081.152-.381c.246-.616.212-1.087-.101-1.399-.651-.654-2.109-.134-4.099.668Z" stroke-width="0"/>
    </g>
  </g>
</svg>