<?xml version="1.0" encoding="UTF-8"?>
<svg id="b" data-name="Layer 2" xmlns="http://www.w3.org/2000/svg" width="219.703" height="418.977" viewBox="0 0 219.703 418.977">
  <g id="c" data-name="Layer 1">
    <g>
      <polygon points="28.696 90.975 28.781 90.99 28.757 90.962 28.696 90.975 28.696 90.975 28.696 90.975" stroke-width="0"/>
      <path d="m27.856,86.094c-1.326.757-2.655,1.513-3.987,2.262-.485.273-.988.537-1.477.793l-.03.016h.001l-.153.079c-.608.32-1.365.717-2.056,1.124-2.945,1.735-5.827,3.903-9.344,7.029-2.044,1.82-3.779,3.817-5.156,5.936-2,3.08-3.982,6.465-4.93,10.347-.065.272-.143.542-.221.814l-.02.07c-.194.666-.394,1.352-.407,2.013-.007.363-.02.729-.035,1.096-.055,1.338-.11,2.721.245,4.043.289,1.077.507,2.211.701,3.211.122.639.245,1.263.381,1.883.358,1.629.841,3.289,1.267,4.755.176.608.352,1.214.522,1.825,1.221,4.361,2.691,7.741,4.629,10.632,1.622,2.418,3.428,4.262,5.521,5.635,2.375,1.557,5.105,2.561,8.849,3.253.643.117,1.311.217,1.9.305l.106.015c.988.148,2.012.3,3.004.526,1.283.292,2.618.491,3.911.683.586.086,1.17.175,1.755.27.159.027.293.128.36.27.07.151.062.323-.023.46-.101.178-.206.354-.305.523-.208.35-.399.672-.576,1.002-.479.892-.959,1.778-1.442,2.664l-.274.506c-1.132,2.097-2.304,4.264-3.411,6.412-2.059,3.986-3.624,8.155-5.343,13.186-1.313,3.849-2.266,7.867-3.189,11.753l-.02.086c-.218.916-.434,1.824-.654,2.729-.329,1.353-.608,2.746-.875,4.095l-.02.101c-.2,1.007-.407,2.048-.635,3.074-.422,1.9-.888,3.825-1.337,5.686l-.342,1.407c-.383,1.587-.772,3.171-1.162,4.757l-1.079,4.402c-.215.877-.434,1.774-.636,2.66-.533,2.347-1.04,4.65-1.6,7.199l-.008.043c-.49,2.219-.994,4.509-1.287,6.853-.069.542-.187,1.079-.29,1.552-.07.315-.139.631-.195.948-.169.944-.282,1.666-.366,2.34-.043.346-.069.711-.091,1.034-.043.625-.091,1.321-.257,1.98-.309,1.236-.437,2.522-.559,3.764l-.007.059c-.058.58-.116,1.147-.188,1.707-.118.912-.199,1.844-.276,2.745l-.004.046c-.09,1.031-.183,2.098-.334,3.144-.134.936-.187,1.935-.234,2.819l-.008.149c-.022.375-.043.746-.069,1.116-.003.038-.003.077-.001.117v.056c.004.134.008.307-.038.49-.397,1.516-.429,3.117-.461,4.667l-.02.873c-.163,5.717-.094,10.737.212,15.347.078,1.187.058,2.379.038,3.53-.032,1.756-.065,3.561.247,5.303.106.594.148,1.204.186,1.742.03.452.069,1.013.147,1.517.098.652.231,1.319.359,1.965l.011.05c.165.831.336,1.69.453,2.55.128.944.334,1.904.514,2.752l.038.173c.102.485.206.97.296,1.455.835,4.441,2.71,8.677,4.363,12.414.339.764.754,1.485,1.157,2.183l.042.073c.343.6.698,1.22,1.003,1.863.815,1.713,1.941,3.241,3.035,4.638.469.6.987,1.204,1.444,1.736l.065.075c.543.629,1.139,1.321,1.689,2.039,1.47,1.912,3.312,3.529,5.093,5.092l.173.152c.343.3.686.6,1.026.906.66.59,1.385,1.132,2.087,1.657.514.383,1.003.75,1.473,1.13,2.242,1.816,4.706,3.205,7.323,4.13l.445.157c2.505.882,5.097,1.795,7.559,3.031,1.206.605,2.534,1.231,4.059,1.912.086.039.178.063.274.091.338.098.789.231,1.007.749.02.051.031.1.036.153l.093,1.275c.067.925.134,1.834.204,2.746.028.374.046.75.063,1.128.04.874.081,1.777.277,2.617.101.433.117.877.13,1.233.016.405.031.781.134,1.123.305.999.37,2.037.428,2.953.02.309.04.617.067.923.108,1.198.093,2.403.078,3.571-.022,1.598-.043,3.25.249,4.839-.02,1.544.003,3.055.023,4.388.054,3.497.109,7.113-.581,10.674-.191.983-.278,2.009-.362,3.002l-.005.051c-.046.555-.094,1.127-.159,1.69-.227,1.965-.141,3.826.256,5.531.623,2.691,1.892,5.112,3.774,7.195,1.992,2.21,4.127,4.442,6.35,6.635,1.267,1.251,2.605,2.383,3.977,3.362,3.015,2.157,6.588,3.946,10.924,5.471,3.514,1.236,7.118,2.226,10.713,2.941,1.603.319,3.177.573,4.679.756,2.38.293,8.425.008,10.791-.256.062-.005.106-.008.16-.003.488-.308,1.003-.29,1.427-.274.198.007.36.013.507-.007.269-.031.534-.074.802-.116.383-.063.777-.125,1.173-.159,1.021-.087,2.045-.156,3.042-.223l1.231-.083c.081-.004.121-.005.167-.003,1.459-.374,2.908-.472,4.309-.569.116-.009.226-.008.336-.001.108.004.223.007.307-.013,1.426-.371,2.933-.577,4.263-.76l.636-.089c.272-.038.546-.062.82-.086.476-.038,1.014-.082,1.474-.229.734-.233,1.46-.293,2.162-.352.484-.042.943-.081,1.378-.168.663-.128,1.352-.169,1.906-.203l.075-.005c.518-.034.983-.066,1.431-.136.676-.105,1.372-.253,1.986-.385.799-.171,1.533-.328,2.286-.438,1.435-.208,2.874-.561,4.403-1.075,1.79-.602,3.518-1.395,5.14-2.353,2.735-1.625,5.414-3.649,8.19-6.189.374-.347.717-.756,1.048-1.151.307-.368.611-.732.951-1.069,1.829-1.811,2.793-4.129,3.495-6.157l.055-.16c.28-.81.543-1.571,1.177-2.218.001-.052.001-.106.001-.16.004-.293.009-.602.097-.906.303-1.027.46-2.172.48-3.498.05-3.312.04-6.701.032-9.691v-.235c-.004-1.212-.007-2.425-.007-3.638,0-.097.007-.198.013-.297.009-.12.024-.303.001-.352-.327-.702-.309-1.407-.293-2.028v-.061c.007-.254.012-.518-.011-.763-.024-.27-.058-.542-.093-.812l-.019-.159c-.078-.581-.167-1.244-.153-1.904.026-1.477.005-3.015-.012-4.372v-.069c-.039-2.883-.079-5.868.246-8.832.097-.881.097-1.818.097-2.645,0-1.103,0-2.243.184-3.384.11-.682.125-1.404.14-2.102v-.044c.016-.736.034-1.497.155-2.263.114-.726.126-1.471.139-2.192.011-.646.023-1.447.129-2.212.122-.881.132-1.818.141-2.644.012-.978.024-1.951.168-2.928.091-.609.102-1.252.113-1.873.012-.807.024-1.611.172-2.411.112-.609.128-1.241.143-1.853.017-.664.036-1.321.147-1.97.105-.633.122-1.315.137-1.915.019-.693.038-1.381.147-2.056.113-.714.132-1.469.151-2.197.017-.705.038-1.47.136-2.204.118-.874.139-1.787.159-2.671v-.07c.016-.777.034-1.658.126-2.527.151-1.393.168-2.836.186-4.232l.003-.132c.012-.971.024-1.947.081-2.913.117-2.05.109-4.201.102-6.1v-.081c-.011-2.687-.022-5.467.258-8.216-.001-2.604.003-5.258.007-7.912v-1.037c.009-6.353.017-12.921-.015-19.444-.004-.761.005-1.52.016-2.279l.003-.192c.032-2.25.066-4.544-.242-6.795-.129-.944-.133-1.946-.137-2.75-.008-.952-.016-1.908-.155-2.813-.125-.834-.14-1.676-.153-2.491-.011-.719-.023-1.491-.117-2.226-.125-.987-.143-1.978-.159-2.936v-.059c-.019-.945-.038-1.923-.159-2.862-.173-1.335-.222-2.699-.269-4.017l-.003-.1c-.02-.59-.04-1.181-.071-1.771-.003-.054-.001-.108.003-.161-.332-.761-.344-1.575-.355-2.362-.011-.577-.022-1.101-.144-1.598-.229-.92-.317-1.869-.402-2.788-.077-.81-.148-1.553-.292-2.274-.081-.399-.118-.812-.149-1.143-.038-.395-.066-.683-.118-.968-.122-.667-.269-1.346-.412-2.004l-.015-.07c-.254-1.175-.516-2.39-.664-3.599-.183-1.491-.55-2.975-.905-4.41l-.094-.377c-.11-.444-.221-.888-.323-1.331-.203-.873-.459-1.791-.663-2.53-.324-1.166-.659-2.372-.888-3.584-.471-2.476-1.135-4.827-1.785-6.999-.488-1.637-1.068-3.315-1.723-4.985-.857-2.188-1.801-4.461-2.635-6.465l-.027-.067-.679-1.638c-.745-1.801-1.51-3.607-2.204-5.245l-.912-2.168c-.566-1.356-1.144-2.741-1.762-4.072-1.159-2.499-2.559-4.954-3.782-7.059-.811-1.399-1.426-2.91-2.02-4.373-.109-.269-.219-.539-.331-.808l-.058-.14c-.923-2.239-1.967-4.776-2.87-7.323-.979-2.758-1.673-5.296-2.122-7.757-.12-.652-.251-1.303-.382-1.955-.295-1.459-.594-2.945-.752-4.439-.047-.437-.133-.892-.218-1.331l-.109-.568-.475-2.574c-.208-1.122-.416-2.242-.62-3.362-.082-.44-.156-.882-.229-1.326-.05-.299-.1-.596-.152-.894-.067-.391-.136-.779-.204-1.169l-.282-1.6c-.039-.227-.081-.452-.124-.676l-.03-.164c-.122-.647-.262-1.38-.336-2.098-.034-.327-.11-.667-.184-.998-.137-.612-.277-1.232-.215-1.9-.106-.098-.183-.211-.229-.339-.137-.389.048-.748.183-1.01.027-.05.05-.094.07-.137.085-.178.26-.281.467-.281l.061.008c.233.054.393.235.401.459l.024.737c.102.063.176.153.218.265.172.465.336.933.499,1.401l.071.202c.412,1.192.836,2.423,1.411,3.593.495,1.009.925,2.099,1.304,3.062l.234.593c.732,1.848,1.459,3.698,2.187,5.549.726,1.849,1.454,3.698,2.187,5.545l.62,1.576c.725,1.842,1.469,3.736,2.269,5.56l.12.27c.941,2.146,1.915,4.365,3.104,6.409,1.534,2.641,3.072,5.202,4.981,7.483.23.274.46.55.687.827,1.218,1.469,2.479,2.988,3.918,4.302,1.397,1.274,2.909,2.234,4.622,2.938,1.313.538,2.85,1.114,4.488,1.114l.215-.003c.336-.035.664.039.976.105l.186.04c.152.031.304.062.455.086,2.323-.137,4.715-.827,7.489-2.172.223-.116.511-.027.637.2.348.636.389,1.28.426,1.903.02.312.039.6.091.873.147.748.282,1.498.418,2.247l.113.62c.102.562.204,1.124.312,1.684.073.385.112.769.151,1.196.039.412.077.8.157,1.178.179.839.334,1.68.491,2.54l.047.246c.091.496.183.992.281,1.487.112.562.231,1.128.351,1.69l.046.222c.136.643.272,1.288.394,1.935.226,1.182.461,2.446.643,3.767.059.428.087.861.116,1.342.036.623.075,1.267.215,1.852.304,1.265.453,2.555.597,3.802l.026.229c.052.445.102.878.16,1.31.129.96.227,1.942.323,2.891l.011.113c.093.939.173,1.723.269,2.491.09.736.133,1.481.173,2.203l.009.18c.023.403.046.795.078,1.186.211,2.551.26,5.066.278,7.188.011,1.115.032,2.228.055,3.343l.005.312c.082,3.996.167,8.128-.25,12.222-.093.916-.109,1.863-.125,2.778-.016.935-.034,1.957-.132,2.936-.102,1.023-.179,2.058-.251,3.058-.098,1.319-.199,2.683-.359,4.039-.226,1.912-.407,3.567-.558,5.055l-.128,1.27c-.125,1.27-.282,2.848-.469,4.381-.144,1.171-.196,2.364-.247,3.518l-.015.368c-.019.405-.036.808-.061,1.212-.001.022,0,.048.001.075.008.137.017.304-.042.48-.347,1.075-.362,2.228-.377,3.345v.051c-.011.613-.022,1.248-.083,1.867-.145,1.454-.133,2.951-.121,4.398.015,1.775.03,3.589-.222,5.375-.086.607-.118,1.236-.151,1.845l-.004.073c-.039.726-.081,1.477-.204,2.214-.108.632-.155,1.294-.198,1.877l-.009.125c-.023.313-.048.627-.081.941-.05.487-.147.983-.233,1.421-.12.605-.234,1.19-.254,1.747-.081,2.197-.515,4.38-1.294,6.489-.225.605-.203,1.069.074,1.655.079.172.184.338.303.52l.073.11c.749.613,1.616.99,2.454,1.353.297.126.566.241.83.364,1.715.795,3.337,1.779,4.905,2.733l.418.253c.207.126.416.253.624.377,3.115,1.871,6.124,3.996,9.205,6.498.898.729,1.791,1.469,2.683,2.21l.16.132c1.127.935,2.528,2.095,3.883,3.166,1.669,1.318,3.127,2.592,4.458,3.895,1.611,1.576,3.276,3.166,4.745,4.567l.04.039c.686.655,1.376,1.314,2.062,1.972l.078.077c.047.048.077.078.108.105,1.485,1.247,2.858,1.966,4.695,1.462.804-.574,1.435-1.417,1.777-2.378.247-.695.433-1.466.566-2.356.381-2.52.65-4.603.846-6.556.07-.678.13-1.354.191-2.032l.032-.358c.108-1.206.221-2.454.37-3.694.067-.554.089-1.148.109-1.673.027-.734.052-1.452.161-2.179.118-.781.095-1.611.073-2.413-.015-.485-.031-1.034-.011-1.571.022-.601.074-1.225.121-1.774.063-.746.125-1.487.132-2.195v-.218c.036-3.759.075-8.019.011-12.187-.022-1.319-.015-2.641-.008-3.92v-.147c.015-2.776.028-5.615-.206-8.408-.16-1.915-.137-3.848-.116-5.717.024-2.142.048-4.338-.192-6.481-.112-.997-.108-2.028-.104-2.937.003-1.118.005-2.254-.161-3.341-.144-.945-.118-1.91-.094-2.842.019-.668.031-1.174.013-1.685-.032-.943-.101-1.911-.16-2.765l-.009-.143c-.038-.563-.075-1.104-.105-1.642-.077-1.37-.147-2.743-.215-4.118l-.087-1.74c-.003-.04-.003-.091,0-.143v-.051c-.295-.847-.332-1.742-.367-2.605-.023-.561-.048-1.189-.164-1.768-.121-.613-.152-1.233-.182-1.834-.032-.654-.063-1.26-.187-1.829-.108-.498-.147-.99-.182-1.424-.023-.304-.046-.585-.085-.859-.065-.456-.167-.931-.266-1.377-.091-.422-.195-.9-.266-1.369-.1-.67-.163-1.366-.218-1.981-.031-.355-.061-.678-.095-1.001-.031-.292-.051-.582-.07-.875-.046-.644-.093-1.292-.245-1.863-.238-.896-.346-1.799-.449-2.675-.09-.785-.182-1.575-.364-2.336-.182-.754-.309-1.521-.433-2.262-.095-.568-.184-1.095-.29-1.614-.121-.594-.265-1.202-.405-1.79-.226-.956-.453-1.92-.605-2.886-.152-.944-.338-1.906-.502-2.754-.148-.769-.317-1.639-.459-2.496-.132-.787-.273-1.575-.416-2.362l-.03-.172c-.229-1.271-.461-2.563-.643-3.846l-.058-.425c-.075-.542-.152-1.099-.265-1.627-.109-.512-.231-1.021-.354-1.529-.153-.624-.325-1.333-.457-2.029-.152-.806-.286-1.629-.418-2.425l-.026-.161c-.144-.886-.305-1.879-.488-2.816-.195-1.002-.43-2.017-.659-3l-.032-.143c-.137-.585-.274-1.174-.403-1.763-.143-.654-.277-1.313-.41-1.969l-.011-.052c-.262-1.292-.527-2.6-.857-3.842-.247-.928-.479-1.903-.664-2.687l-.013-.061c-.418-1.76-.85-3.581-1.456-5.33-.113-.324-.087-.641-.062-.947.011-.132.019-.219.019-.301,0-.144.063-.281.175-.375.05-.039.086-.074.12-.105.114-.109.242-.231.433-.29,1.212-.386,2.386-.929,3.585-1.661,2.185-1.331,3.614-3.069,4.364-5.315.558-1.673.944-3.294,1.181-4.952.165-1.158.366-2.678.46-4.17.2-3.177.046-5.799-.484-8.251-.453-2.09-1.017-4.507-1.992-6.744-1.189-2.729-2.91-5.2-4.575-7.59l-.772-1.112c-.317-.461-.639-.919-.962-1.377l-.097-.136c-.948-1.349-1.915-2.723-2.777-4.137-1.744-2.856-3.385-5.018-5.164-6.805-.78-.784-1.56-1.565-2.345-2.344-1.482-1.479-3.055-2.756-4.677-3.794-.785-.504-1.637-.955-2.458-1.391l-.066-.035c-.519-.274-1.166-.617-1.774-.97-1.334-.772-2.661-1.555-3.99-2.337l-1.339-.791c-1.108-.654-2.216-1.306-3.327-1.951-2.172-1.264-4.39-2.722-6.779-4.455-1.408-1.023-2.94-2.04-4.684-3.111-.709-.436-1.443-.841-2.259-1.288l-.055-.031c-.815-.446-1.658-.909-2.472-1.412-1.471-.914-3.099-1.569-4.637-2.14-3.003-1.115-5.892-1.873-8.828-2.317l-.654-.102c-1.38-.212-2.796-.432-4.186-.432h-.27c-.336.001-.676-.012-1.007-.027l-.054-.003c-.785-.034-1.599-.07-2.312.089-.773.173-1.54.21-2.282.245-.691.034-1.405.067-2.086.218-.646.137-1.298.237-1.965.335-.461.066-.923.136-1.38.219-.841.153-1.716.229-2.419.29l-.044.004c-.339.028-.672.058-.999.093-.175-.001-.311-.052-.399-.144-.592-.592-.861-1.214-.901-2.08-.011-.219-.059-.451-.106-.675-.044-.21-.093-.449-.114-.69l-.027-.23c-.051-.44-.104-.893.09-1.306.157-.331.156-.671.155-1.065,0-.145,0-.292.007-.436.046-.979.027-1.97.008-2.929v-.089c-.039-1.849-.078-3.762.316-5.654.168-.81.221-1.649.27-2.46.044-.718.095-1.532.234-2.318.217-1.224.42-2.239.904-3.222.869-1.762,1.572-3.752,2.212-6.262l.113-.438c.293-1.124.597-2.285.584-3.462-.03-2.578-.385-4.688-1.118-6.641-.508-1.354-.951-2.739-1.378-4.079l-.194-.604c-.148-.468-.312-.986-.124-1.436.202-.485.202-1.003.202-1.553v-.054c-.001-.262-.001-.52.02-.783.028-.329.07-.66.113-.988.066-.508.132-1.023.132-1.51.001-.476-.066-.995-.12-1.413-.046-.363-.091-.733-.113-1.096-.052-.871-.05-1.75-.047-2.598v-.055c.004-1.372.008-2.789-.212-4.17-.155-.953-.164-1.914-.173-2.843-.008-.724-.017-1.537-.104-2.31-.217-1.923-.698-3.632-1.47-5.225-.679-1.399-1.672-2.643-2.631-3.846l-.208-.261c-1.255-1.577-2.866-2.675-5.07-3.451-1.157-.409-2.384-.503-3.571-.594l-.141-.011c-.438-.035-.89-.071-1.337-.126-.494-.063-1.025.016-1.584.101l-.059.009c-.356.052-.726.106-1.087.129-.582.035-1.192.043-1.717.047-.96.011-1.954.022-2.94.187l-.916.152c-.949.155-1.806.297-2.67.473-4.503.928-8.393,3.252-11.564,6.908-.562.648-1.041,1.435-1.381,2.271-.675,1.665-1.033,3.54-1.126,5.9l-.003.069c-.082,2.062-.165,4.195.206,6.263.172.967.222,1.957.272,2.914.023.495.046.945.081,1.396.009.118.034.237.062.36l.027.139c.417,2.106.277,3.792-.44,5.305-.545,1.148-.97,2.376-1.381,3.564l-.243.705c-.246.703-.278,1.466-.311,2.204-.026.66-.054,1.395-.245,2.111.21.816.329,1.643.445,2.444l.015.106c.077.541.157,1.099.266,1.642.539,2.688,1.512,5.144,2.971,7.508.42.68.962,1.731.819,2.986-.027.235-.065.469-.105.705-.061.363-.121.729-.125,1.064-.012,1.029-.019,2.056-.026,3.085l-.004.512c-.019,3.46-.039,7.005-.266,10.517-.101,1.569-.075,3.166-.05,4.711v.07c.013.719.024,1.417.024,2.118v1.283c0,.156-.075.304-.202.395-.13.09-.288.116-.437.066-.742-.254-1.47-.499-2.191-.74-1.65-.557-3.203-1.08-4.778-1.672-2.245-.85-4.626-1.221-6.865-1.495-.456-.058-.944-.078-1.374-.095l-.073-.003c-.652-.026-1.309-.05-1.98-.167-1.22-.211-2.592-.312-4.295-.312-.102,0-.206,0-.309.001-.508.013-1.026,0-1.522-.011l-.394-.009c-.519-.011-1.044-.022-1.571-.022-1.397,0-2.458.083-3.44.269-.955.182-1.934.223-2.881.262-.432.017-.862.036-1.291.069-.098.007-.194.024-.29.042l-.061.009c-.061.011-.121.02-.182.028l-.951.13c-.888.124-1.798.25-2.692.354-.272.03-.535.035-.789.04-.475.009-.917.017-1.346.18-.53.2-1.089.246-1.631.292-.25.019-.48.038-.703.067-.23.032-.463.058-.698.082l-.095.011c-.524.055-1.118.116-1.658.26l-.477.129c-2.535.679-5.155,1.382-7.614,2.383-2.593,1.054-4.86,2.134-6.929,3.3-1.275.715-2.546,1.438-3.817,2.162l-.184.105Zm26.844,256.07h-.003s.047-.167.047-.167l-.077.157c-.097-.027-.192-.054-.29-.086-.659-.218-1.338-.502-2.14-.896-.873-.429-1.74-.867-2.608-1.306l-.235-.12c-1.516-.768-3.402-1.725-5.238-2.563-.523-.235-1.048-.469-1.572-.703l-.315-.141c-1.805-.807-3.646-1.629-5.408-2.569-1.7-.904-3.338-2.006-5.008-3.37-.424-.347-.858-.686-1.291-1.025l-.136-.105c-1.01-.789-2.056-1.606-3.003-2.505l-.472-.445c-1.573-1.49-3.195-3.026-4.574-4.771-.313-.395-.631-.788-.948-1.178-.99-1.218-2.012-2.479-2.858-3.857-1.637-2.674-2.924-5.149-3.936-7.57-.629-1.502-1.224-3.015-1.779-4.435-.728-1.853-1.218-3.762-1.658-5.558-.364-1.483-.608-2.996-.843-4.461-.118-.734-.237-1.466-.368-2.196-.598-3.287-.565-6.611-.533-9.825.012-1.108.026-2.359.008-3.546.258-1.153.245-2.249.231-3.307-.012-.828-.027-1.739.087-2.618.121-.94.137-1.915.153-2.856v-.055c.016-.92.032-1.871.143-2.795.077-.644.105-1.291.133-1.918.027-.613.055-1.278.129-1.918.173-1.517.307-2.996.463-4.773l.128-1.432c.087-.97.19-1.938.293-2.909l.022-.203c.09-.843.18-1.685.257-2.531.071-.777.148-1.553.225-2.332l.056-.566c.104-1.056.207-2.114.299-3.174.102-1.173.239-2.367.382-3.589l.007-.065c.066-.57.132-1.139.195-1.707l.097-.892c.129-1.214.276-2.59.492-3.901.112-.667.196-1.354.277-2.02l.012-.104c.12-.99.254-2.11.491-3.193.163-.746.243-1.565.308-2.223.081-.81.163-1.618.338-2.392.253-1.122.434-2.282.611-3.404.199-1.279.421-2.702.756-4.059.386-1.557.686-3.148.975-4.687l.027-.14c.25-1.315.503-2.649.804-3.952.666-2.881,1.245-5.79,1.806-8.602l.225-1.132c.229-1.146.518-2.304.773-3.326l.017-.078c.116-.461.23-.92.34-1.381l.367-1.556c.234-.994.499-2.119.777-3.214.126-.495.25-.991.373-1.487l.14-.563c.473-1.915.963-3.896,1.561-5.82,1.112-3.577,2.13-6.485,3.205-9.15.586-1.452,1.396-3.35,2.465-5.149.745-1.257,1.417-2.64,2.012-3.858.34-.701.797-1.641,1.268-2.532.757-1.43,1.547-2.835,2.309-4.193l.163-.289c.284-.506.566-1.009.845-1.512.109-.196.316-.293.503-.243,2.445.118,4.376.086,6.221-.109.636-.066,1.245-.108,2.036-.161,1.315-.089,2.675-.182,3.981-.459,1.311-.278,2.653-.498,3.952-.709l.71-.116c.413-.067.824-.134,1.236-.206.212-.044.438.074.531.29.023.034.124.2.074.42l-.62,2.643c-.23.98-.46,1.961-.686,2.945-.137.6-.29,1.3-.389,2.019-.044.323-.066.668-.085.974-.039.619-.081,1.295-.268,1.91-.215.705-.212,1.473-.21,2.216.004.913.008,1.83-.32,2.741,0,.004-.004.042.005.165.005.097.008.186.004.27-.03.515-.048,1.03-.066,1.545-.042,1.194-.085,2.429-.282,3.635-.098.596-.171,1.213-.241,1.809l-.023.203c-.122,1.083-.25,2.2-.519,3.314-.121.508-.148,1.083-.172,1.59-.027.57-.055,1.197-.198,1.791-.126.534-.145,1.108-.164,1.665-.026.797-.052,1.611-.359,2.419,0,.009.001.017.001.027.003.073.004.117.001.157-.031.628-.052,1.265-.074,1.903l-.004.129c-.048,1.403-.1,2.854-.264,4.279-.141,1.235-.148,2.479-.155,3.682v.043c-.008,1.224-.016,2.481-.159,3.718-.256,2.204-.225,4.442-.195,6.606.011.814.022,1.595.019,2.376-.04,15.425-.048,30.724-.024,45.47.005,3.858.112,6.99.336,9.858.048.621.061,1.249.073,1.857.017.988.035,1.992.204,2.938.118.662.153,1.322.186,1.962l.005.091c.04.773.082,1.549.258,2.285.206.858.249,1.746.289,2.605l.004.086c.017.363.039.795.077,1.197.038.383.094.776.145,1.126l.019.137c.04.276.082.553.113.828.024.203.035.403.044.605l.004.094c.015.386.031.785.156,1.179.156.496.179,1.001.203,1.489.016.366.034.744.106,1.085.163.776.212,1.594.257,2.314l.004.062c.027.421.056.898.109,1.345.109.919.273,1.88.49,2.859.071.32.106.636.14.941.043.402.078.707.145,1.007.229.995.339,2.009.445,2.991.061.562.129,1.194.222,1.798.129.849.296,1.712.457,2.547l.019.102c.105.537.208,1.076.307,1.615.128.713.249,1.426.37,2.14.164.968.363,2.144.574,3.252.156.816.328,1.642.498,2.446l.031.144c.195.919.391,1.852.562,2.768.149.789.269,1.594.385,2.372l.027.178c.078.526.149,1.011.227,1.495.184,1.15.397,2.409.631,3.739.172.986.356,1.942.514,2.748.16.824.262,1.665.36,2.477l.011.094c.05.422.098.824.153,1.222.319,2.309.584,4.57.327,6.833-.278,2.437-.594,5.199-2.353,7.684-.093.129-.241.204-.398.204-.05,0-.094-.005-.134-.017-.086-.026-.186-.042-.288-.059l-.05-.008c-.355-.059-.842-.14-1.126-.487-.196-.237-.422-.299-.736-.383Zm1.408-146.899c.02-.888.042-1.807.173-2.722.148-1.018.178-2.064.206-3.077l.003-.101c.012-.461.024-.9.046-1.337.022-.429.079-.85.134-1.257l.016-.117c.042-.295.083-.593.108-.889.017-.194.017-.394.017-.586-.001-.519-.003-1.1.289-1.674,0-.036-.004-.093-.008-.13l-.003-.047c-.005-.081-.009-.152-.005-.219.023-.559.048-1.122.074-1.682l.032-.68c.069-1.474.145-3.144.179-4.78.024-1.126.019-2.263.013-3.365l-.003-.373c-.005-1.136-.011-2.312.013-3.478l.005-.289c.034-1.661.069-3.378.317-5.046.1-.671.159-1.35.225-2.167.075-.906.152-1.844.325-2.77.237-1.257.554-2.538.888-3.849.118-.459.278-.9.42-1.288l.043-.12c.054-.151.109-.304.16-.455.056-.169.203-.295.381-.325,4.722-.75,8.525-2.245,11.627-4.568,1.577-1.183,3.205-2.535,5.12-4.256,1.236-1.112,2.437-2.362,3.497-3.464l.467-.485c.425-.441.822-.919,1.28-1.47.256-.308.511-.616.796-.949.139-.167.374-.221.572-.126.188.081.304.28.282.492-.043.399-.075.764-.104,1.107l-.007.077c-.062.713-.124,1.451-.276,2.141-.145.646-.25,1.31-.351,1.953l-.042.26c-.035.222-.07.442-.108.664-.067.397-.124.796-.182,1.198-.114.8-.231,1.629-.436,2.442-.832,3.316-1.563,6.021-2.297,8.513-1.056,3.591-2.254,7.025-3.562,10.21-1.123,2.737-2.476,5.966-3.985,9.166-1.545,3.269-3.225,6.513-4.851,9.651l-.222.432c-.303.58-.701,1.099-1.052,1.556l-.044.058c-.163.214-.325.429-.479.648-1.252,1.794-2.203,3.819-3.123,5.777l-.167.356c-.644,1.372-1.225,2.778-1.787,4.138-.173.421-.348.842-.523,1.261-1.257,3.008-2.343,6.192-3.32,9.731-.066.243-.172.449-.305.711-.089.171-.172.339-.272.543-.074.167-.246.277-.438.277l-.058-.003c-.268-.058-.429-.251-.429-.484,0-.238-.013-.464-.027-.667l-.004-.07c-.034-.508-.066-.984.098-1.412.187-.491.187-.997.187-1.533,0-.188,0-.379.007-.569.035-.858.056-1.717.078-2.574.042-1.785.09-3.801.285-5.763.069-.701.087-1.443.104-2.099l.172-.042-.172-.004Zm73.872-43.967c.496,1.4,1.022,2.82,1.53,4.192l.089.238c.569,1.536,1.278,3.445,1.928,5.309,1.064,3.053,2.25,5.761,3.626,8.282,1.594,2.914,2.715,5.99,3.801,8.965.476,1.3,1.013,2.596,1.53,3.848.356.855.701,1.685,1.029,2.522.328.831.66,1.662.994,2.492,1.536,3.841,3.12,7.805,4.258,11.882.51,1.816.994,3.649,1.423,5.265.621,2.344,1.24,4.689,1.846,7.036.118.46.239.92.36,1.376.445,1.682.951,3.589,1.284,5.46.156.884.364,1.777.565,2.641l.011.046c.184.795.35,1.512.492,2.231.106.547.183,1.105.257,1.645.104.757.217,1.591.418,2.345.117.434.145.862.173,1.275.036.578.067,1.093.289,1.549.078.156.081.315.082.41l.003.062.109,1.622c.062.932.122,1.852.198,2.772.039.502.101,1.015.155,1.459.043.354.085.71.121,1.066.028.296.028.581.028.857.001.523.003.975.173,1.426.165.44.137.912.112,1.327-.012.204-.023.379-.016.546.028.697.046,1.395.063,2.095.043,1.699.087,3.451.288,5.164.083.715.098,1.462.112,2.06v.047c.016.672.035,1.434.139,2.152.136.936.151,1.876.164,2.785.012.875.024,1.77.149,2.637.212,1.483.204,2.952.196,4.372v.063c-.004,1.005-.008,2.041.067,3.051.299,4.022.274,8.092.251,12.028v.074c-.017,2.878-.034,5.855.077,8.793.02.519.056,1.048.093,1.564l.016.229c.097,1.357.198,2.752.058,4.134-.276,2.725-.25,5.498-.226,8.179v.169c.012,1.142.023,2.437.005,3.684-.03,2.2-.024,4.407-.019,6.541v.274c.005,1.736.009,3.529-.008,5.308-.008.816-.077,1.654-.136,2.394l-.005.067c-.048.596-.098,1.213-.12,1.822-.019.518-.007,1.069.005,1.555v.047c.024.906.047,1.844-.086,2.774-.09.616-.095,1.276-.101,1.859-.007.815-.013,1.639-.191,2.444-.149.668-.152,1.382-.155,2.074-.004.937-.008,1.906-.346,2.858.001.03.001.05,0,.07l-.082,1.528c-.07,1.323-.139,2.617-.225,3.896-.028.416-.09.827-.151,1.224-.05.327-.093.611-.122.896-.019.164-.015.335-.011.518.011.492.023,1.04-.276,1.56.005.066.005.112.001.153l-.1,1.54c-.065,1.006-.129,2.011-.207,3.015-.035.428-.086.859-.136,1.28l-.008.07c-.048.395-.095.792-.13,1.187-.019.221-.013.46-.008.69v.061c.016.617.031,1.255-.278,1.899.003.071.004.11.003.149l-.104,2.543c-.065,1.553-.126,3.086-.202,4.618-.028.588-.013,1.214-.001,1.766.028,1.233.056,2.509-.262,3.762-.055.212-.042.336-.032.363.32.558.305,1.136.29,1.646-.007.19-.011.359-.003.529.039.689.063,1.381.087,2.075.044,1.26.094,2.691.253,4.035.118,1.01.204,2.035.288,3.029l.015.171c.081.979.172,2.087.3,3.162.164,1.373.172,2.75.18,4.082.005.835.011,1.772.062,2.679.035.621.126,1.24.214,1.838.046.307.085.574.118.835.019.132-.022.269-.109.374-1.139,1.362-1.973,2.645-2.626,4.033-.589,1.256-1.212,2.453-2.34,3.296-1.35,1.005-2.682,1.978-4.119,2.846-1.253.756-2.562,1.458-3.829,2.136l-.05.027c-.566.304-1.134.607-1.699.917-2.193,1.204-4.659,2.087-7.76,2.782-3.725.834-7.14,1.672-10.44,2.561-.964.26-1.959.426-2.922.586l-.051.008c-.64.105-1.267.21-1.879.338-1.21.253-2.444.393-3.636.529l-.745.082c-1.7.196-3.514.402-5.361.581-.896.087-1.86.157-2.565.208l-.087.007c-1.307.095-2.659.195-3.978.379-1.214.168-2.528.247-4.135.247-.832,0-1.66-.019-2.648-.047l-1.034-.026c-1.2-.024-2.469-.247-3.565-.453-.713-.134-1.443-.256-2.156-.373l-1.44-.238c-2.466-.417-4.806-1.12-6.968-1.82-2.601-.843-5.252-1.939-8.104-3.35-2.335-1.158-4.242-2.473-5.83-4.02-.736-.717-1.513-1.447-2.247-2.136l-.065-.061c-1.038-.976-2.215-2.084-3.299-3.19-1.2-1.221-2.405-2.585-3.092-4.279-.785-1.927-1.493-4.242-.788-6.782.034-.121.034-.289.034-.438.004-1.315.239-2.589.468-3.819l.083-.465c.118-.635.16-1.307.202-1.958l.003-.054c.03-.465.063-.991.128-1.499.336-2.613.301-5.272.268-7.843l-.005-.549c-.007-.502-.071-1.038-.128-1.512-.05-.421-.1-.857-.122-1.295-.02-.375-.007-.763.007-1.104.023-.635.043-1.175-.073-1.692-.191-.857-.202-1.697-.212-2.509v-.073c-.007-.394-.013-.803-.042-1.19-.027-.375-.09-.767-.151-1.144l-.009-.056c-.042-.256-.079-.49-.11-.724-.035-.258-.04-.507-.046-.748-.009-.394-.017-.763-.148-1.122-.243-.674-.293-1.38-.342-2.062-.013-.192-.028-.382-.044-.572-.147-1.525-.414-3.136-.82-4.926-.149-.651-.204-1.292-.264-1.973-.031-.342-.058-.632-.091-.923-.022-.212.091-.413.28-.499.086-.04.167-.086.249-.133.242-.136.51-.288.828-.301.987-.047,1.526-.66,2.236-1.591,1.034-1.354,1.446-3.029,1.844-4.648l.059-.242c.394-1.602.706-3.355.953-5.361.163-1.299.309-2.68.157-4.013-.104-.91-.128-1.826-.149-2.711-.02-.819-.042-1.719-.13-2.575-.139-1.323-.254-2.66-.366-3.952-.073-.858-.147-1.709-.226-2.561-.051-.541-.063-1.107-.071-1.52-.019-.799-.038-1.626-.217-2.378-.218-.916-.257-1.825-.293-2.704-.023-.578-.047-1.233-.136-1.855-.233-1.627-.32-3.304-.389-4.882-.031-.691-.075-1.382-.121-2.076l-.004-.069c-.056-.871-.11-1.723-.137-2.563-.02-.612.005-1.264.023-1.74.034-1.001.069-2.012-.106-2.938-.14-.738-.144-1.475-.148-2.189-.005-.943-.011-1.832-.312-2.68-.055-.148-.046-.292-.04-.37v-.063c-.03-.596-.044-1.202-.059-1.809-.035-1.365-.071-2.777-.305-4.115-.109-.613-.12-1.226-.13-1.82-.016-.873-.031-1.688-.325-2.449-.059-.156-.051-.297-.047-.381l.173-.065-.172.012c-.032-.448-.05-.902-.066-1.358-.04-1.018-.081-2.036-.28-2.972-.134-.641-.151-1.272-.165-1.883-.02-.807-.039-1.559-.307-2.266-.079-.207-.067-.41-.059-.559.004-.078.007-.118.004-.157-.031-.481-.054-.966-.075-1.448-.054-1.111-.106-2.25-.249-3.363-.163-1.265-.269-2.604-.348-3.581l-.008-.11c-.073-.877-.148-1.785-.247-2.684-.186-1.67-.276-3.365-.362-5.003-.061-1.173-.128-2.466-.233-3.69-.203-2.421-.198-4.866-.192-7.23.004-1.668.008-3.35-.056-5.011-.015-.346-.073-.715-.124-1.042l-.009-.052c-.038-.238-.073-.464-.097-.69-.16-1.447.172-2.811.494-4.13l.334-1.416c.422-1.801.854-3.646,1.185-5.498.157-.874.379-1.766.576-2.554l.012-.055c.093-.366.184-.733.269-1.099.073-.305.145-.608.219-.912l.151-.615c.243-.997.52-2.126.745-3.228.418-2.075,1.107-4.09,1.774-6.038l.077-.223c.222-.647.442-1.292.654-1.942l.175-.545c.623-1.923,1.265-3.911,2.033-5.834.74-1.853,1.798-3.568,2.821-5.225l.04-.067c3.511-5.689,6.188-10.449,8.421-14.981,2.589-5.245,4.805-10.679,6.631-15.303.933-2.363,1.802-4.906,2.655-7.775.582-1.953,1.232-4.281,1.635-6.74.116-.701.297-1.419.444-1.997l.016-.062c.118-.467.251-.995.35-1.501.056-.284.081-.573.106-.88.035-.421.069-.824.164-1.241.128-.551.16-1.169.187-1.713.031-.594.062-1.208.186-1.799.125-.608.148-1.245.171-1.863.031-.871.063-1.772.363-2.663v-.035c-.004-.074-.005-.114-.003-.152.028-.584.059-1.171.091-1.759l.008-.151c.071-1.342.144-2.729.176-4.079.015-.589-.038-1.201-.1-1.911-.035-.407-.07-.81-.1-1.257-.008-.108.023-.218.086-.309.196-.288.412-.596.633-.913l.118-.169c.491-.703,1.101-1.579,1.647-2.437.846-1.326,1.735-2.756,2.513-4.212.823-1.541,1.633-3.123,2.417-4.652l.087-.171c.589-1.154,1.178-2.304,1.779-3.45.375-.721.772-1.409,1.193-2.138l.035-.062c.218-.377.417-.719.617-1.073.074-.129.194-.214.338-.238,3.232-.6,5.892-.799,8.388-.631l.851.055c1.296.082,2.909.183,4.423.453.904.16,1.845.202,2.757.243l.114.005c.446.02.896.042,1.339.077.753.059,1.506.132,2.274.206l.8.077.69-.658c.102-.457-.044-.785-.313-1.163-.241-.338-.621-.558-1.131-.655l-.241-.046c-1.419-.27-2.862-.546-4.312-.546l-.264.003c-1.329.032-2.66.026-4.014.02-1.08-.004-2.362-.008-3.638.012-1.404.027-2.839.133-4.227.235l-.734.055c-.206.016-.417.074-.74.169-.2.058-.377.109-.577.159-.204.036-.387-.023-.503-.173-.113-.139-.136-.342-.052-.512l2.821-5.732c.074-.141.202-.235.351-.262.251-.047.49-.106.721-.163l.051-.012c.506-.12.974-.231,1.462-.231.03,0,.056,0,.083.001,1.274.026,2.551.175,3.858.338.666.082,1.331.206,2.011.335l.172.032c.249.047.498.094.748.136l.433.079c.386.073.732.134,1.068.175.247.028.59.069.824.007.933-.238,1.865-.29,2.768-.343.685-.039,1.387-.078,2.054-.199.1-.016.182-.009.25-.001l.086.008c.124.008.247.071.332.173.155.183.315.371.475.561.379.445.771.906,1.147,1.377.685.854,1.362,1.727,2.015,2.597.352.469,1.009,1.341.399,2.479-.063.118-.055.373-.048.596.004.124.008.221.005.313-.003.432-.001.869,0,1.309v.265c.005.936.007,1.852-.022,2.764-.013.428-.073.863-.124,1.247-.086.636-.165,1.229-.094,1.787.13,1.022.148,2.039.164,3.023v.066c.016.873.032,1.774.129,2.635.05.438.063.885.075,1.315.023.772.043,1.405.206,2.001.171.637.195,1.253.218,1.85.026.623.048,1.21.231,1.778.226.713.265,1.455.301,2.173l.007.133h-.001c.017.308.035.6.066.882.078.706.167,1.463.293,2.214.118.714.253,1.424.389,2.137l.016.086c.265,1.416.538,2.867.697,4.316.167,1.534.483,3.041.787,4.498l.009.044c.151.725.305,1.467.438,2.201.239,1.295.682,2.593,1.115,3.811Zm-17.882-58.864v.007c.019.672-.194,1.27-.667,1.876-1.101,1.409-2.176,2.449-3.84,2.945l-1.193.116c-.807.073-1.814.164-2.796.21-.038.003-.083.003-.13.003-.495,0-.988-.136-1.413-.264-1.875-.565-2.999-1.949-3.084-3.795-.059-1.265-.128-2.7.286-4.133.265-.914.647-1.961,1.475-2.805.101-.104.202-.206.303-.311.797-.831,1.622-1.692,2.972-1.997.12-.024.238-.055.36-.087l.058-.015c.352-.093.791-.21,1.241-.21,1.179.005,2.317.067,3.279.756,1.232.886,2.075,1.978,2.505,3.246.1.293.207.584.332.924l.274.736c.02.065.028.117.028.171l-.003.713c-.004.551-.008,1.237.011,1.915Zm.343,3.373l1.325-1.6c.094-.11.234-.175.386-.18.007-.001.013-.001.022-.001.133,0,.256.047.336.129l1.658,1.751c.143.153.172.378.075.562-.082.16-.247.261-.43.261l-.071-.007c-.222-.031-.448-.081-.668-.129l-.081-.017c-.663-.149-1.342-.304-1.976-.013-.196.104-.451.042-.592-.149-.139-.182-.132-.43.016-.605Zm63.917,66.19l-.026.016c-.547.356-1.112.725-1.826.897-.165.04-.368.153-.539.301-1.569,1.373-3.471,1.967-5.309,2.543-.284.087-.558.173-.832.261-.68.221-1.37.328-2.11.328-1.49,0-2.92-.444-4.255-.898-2.384-.808-4.376-2.043-5.92-3.669-.819-.863-1.571-1.797-2.298-2.7l-.118-.148c-.3-.373-.6-.745-.905-1.112-1.892-2.274-3.393-4.831-4.49-6.804-1.162-2.095-2.15-4.305-3.064-6.391-.966-2.2-1.859-4.473-2.721-6.672l-.141-.364c-.971-2.476-1.928-4.958-2.885-7.442l-.449-1.162c-.356-.925-.714-1.849-1.072-2.773-.284-.73-.574-1.459-.866-2.185l-.061-.155c-.563-1.415-1.146-2.878-1.661-4.341-.499-1.423-.97-2.882-1.424-4.293l-.086-.268c-.445-1.381-.906-2.811-1.393-4.199-1.348-3.835-3.144-6.97-5.492-9.583-.675-.754-1.326-1.553-1.9-2.259l-.027-.034c-.706-.869-1.435-1.767-2.214-2.605-.609-.654-1.329-1.248-2.024-1.822-.42-.347-.855-.706-1.265-1.076-.363-.327-.701-.699-.971-.999-.121-.133-.217-.238-.312-.34-.044-.024-.086-.056-.122-.094-.085-.058-.212-.169-.221-.385-.008-.145.054-.292.167-.39.094-.114.266-.169.418-.144l.132-.132.118.195c.499-.001.936.223,1.255.395.187.101.344.187.5.239.802.27,1.579.562,2.438.889l.315.118c.487.184.975.368,1.466.543,1.809.64,3.58,1.582,5.573,2.961,2.226,1.543,4.595,3.197,6.943,4.942.906.675,1.832,1.423,2.574,2.024l.061.048c.956.775,1.945,1.575,2.963,2.313,1.795,1.304,3.666,2.499,5.749,3.814,2.117,1.331,4.559,2.98,6.619,5.097.867.893,1.751,1.828,2.511,2.633l.215.229c.99,1.046,2.015,2.128,3.043,3.162.687.694,1.448,1.391,2.121,2.004l.101.091c.717.656,1.459,1.334,2.167,2.047,3.429,3.46,6.123,7.495,8.004,11.995,1.173,2.808,2.039,5.713,2.877,8.522l.242.806c.2.667.346,1.352.475,1.955.173.814.346,1.615.604,2.364.026.078.032.157.02.238-.091.469.013.953.125,1.467.171.787.347,1.599-.07,2.468.035.689.004,1.408-.02,1.988-.048,1.169-.097,2.363.233,3.482.086.288.067.572.048.846-.008.117-.016.231-.016.348,0,.182-.098.347-.257.43-.245.13-.494.293-.713.437Zm28.4,13.982l.063.305c.163.777.325,1.555.477,2.331.152.772.292,1.543.432,2.314l.079.436c.134.744.27,1.486.417,2.226.186.952.387,1.904.589,2.854l.03.139c.147.694.293,1.387.434,2.079.168.815.293,1.444.382,2.11.277,2.082.675,4.146,1.061,6.143l.065.335c.215,1.119.377,2.249.533,3.342.118.826.241,1.678.382,2.511.128.742.301,1.524.441,2.15l.013.056c.12.539.239,1.079.346,1.621.073.367.098.733.122,1.087.031.461.061.88.161,1.276.182.719.23,1.459.27,2.179h.001l.009.172c.02.364.042.74.079,1.101.027.264.079.538.129.804.061.323.11.585.144.853.026.198.022.393.015.561-.007.301-.011.539.134.719.151.194.141.41.137.514l-.173.056h0l.172-.011c.031.475.052.955.074,1.434.047,1.07.094,2.168.254,3.218.086.57.117,1.148.144,1.711l.008.171c.042.896.086,1.822.351,2.686.03.102.03.19.03.237.032.442.067.871.104,1.3l.008.093c.073.908.148,1.838.187,2.76.042.994.063,2.009.082,2.964l.003.133c.039,1.896.079,3.856.276,5.757.116,1.116.121,2.285.126,3.224.008,1.056.016,2.146.134,3.211.14,1.261.149,2.532.159,3.762v.063c.012,1.204.023,2.435.156,3.622.118,1.052.122,2.106.126,3.125.007,1.075.013,2.148.14,3.159.168,1.345.167,2.696.165,4.005,0,1.259,0,2.531.139,3.735.164,1.432.159,2.869.153,4.259-.005,1.356-.011,2.727.134,4.059.173,1.582.168,3.172.163,4.71v.09c-.004,1.326-.008,2.83.125,4.246.258,2.718.241,5.457.223,8.108v.157c-.009,1.107-.017,2.362,0,3.556.039,2.676.03,5.369.02,7.972v.156c-.005,1.192-.009,2.383-.009,3.575,0,.048-.007.095-.019.139-.233.785-.247,1.629-.262,2.442-.016.866-.034,1.74-.27,2.616-.151.549-.191,1.163-.23,1.756l-.004.069c-.023.343-.05.707-.095,1.062-.032.257-.141.48-.237.678l-.031.069c-.04.086-.075.161-.11.245-.062.151-.194.26-.354.292l-.081.008h-.003c-.144,0-.265-.051-.356-.141-.442-.44-.877-.88-1.309-1.315l-.429-.434c-1.416-1.436-2.598-2.626-3.841-3.782-1.22-1.132-2.497-2.215-3.733-3.263-.702-.596-1.399-1.187-2.086-1.786-3.201-2.791-6.82-5.131-10.32-7.394l-.477-.311c-1.015-.656-2.063-1.334-3.081-2.016-2.926-1.959-5.4-3.361-7.783-4.407-.871-.381-1.82-.702-2.655-.986-.432-.145-.845-.285-1.252-.433-.229-.082-.362-.315-.316-.55l.254-1.287c.186-.935.371-1.875.554-2.813.058-.303.118-.604.179-.906l.059-.296c.211-1.056.429-2.146.589-3.205.052-.338.079-.701.101-1.021.038-.531.073-1.031.182-1.545.145-.701.195-1.471.239-2.152.034-.508.066-1.002.126-1.491.086-.679.214-1.349.338-1.996.062-.319.121-.627.175-.936.008-.044.008-.086.009-.13l.004-.097c.03-.491.048-.979.067-1.467l.007-.168c.051-1.279.101-2.57.277-3.825.082-.592.108-1.197.133-1.783.042-1.005.086-2.044.395-3.066-.001.001-.001.003-.001.003-.003,0-.003-.017-.004-.039v-.13l.108-2.16c.061-1.222.124-2.476.202-3.71.032-.51.091-1.026.145-1.483.05-.424.095-.815.126-1.205.02-.219.017-.452.015-.678v-.067c-.012-.615-.023-1.252.274-1.896-.004-.069-.005-.118-.003-.164.031-.516.046-1.033.059-1.547.034-1.204.069-2.448.311-3.646.116-.581.128-1.206.137-1.758.017-.888.036-1.79.368-2.676.005-.024,0-.117-.003-.168-.005-.091-.009-.178-.004-.265l.034-.784c.036-.878.074-1.772.206-2.665.173-1.162.218-2.359.261-3.517.023-.613.047-1.241.087-1.859.362-5.417.324-10.936.288-16.274l-.004-.557c-.012-1.84-.024-3.735-.017-5.597,0-.549-.073-1.143-.13-1.621-.05-.414-.106-.877-.128-1.326-.02-.412-.003-.843.011-1.19.024-.633.047-1.216-.07-1.754-.121-.565-.126-1.119-.132-1.654-.007-.559-.012-1.085-.149-1.565-.23-.812-.253-1.612-.274-2.386-.019-.664-.038-1.352-.194-1.998-.231-.959-.26-1.951-.286-2.91-.015-.613-.031-1.163-.083-1.693-.089-.916-.143-1.845-.19-2.667l-.007-.121c-.039-.709-.082-1.462-.144-2.206-.132-1.582-.354-3.211-.534-4.455-.114-.797-.285-1.608-.451-2.392l-.009-.044c-.102-.483-.199-.936-.285-1.391-.129-.67-.276-1.45-.383-2.246-.338-2.493-.812-4.977-1.409-7.386-.137-.557-.217-1.114-.301-1.705l-.009-.073c-.04-.286-.082-.582-.13-.893-.032-.175.044-.359.192-.468,1.013-.741,2.341-1.42,4.061-2.079l.628-.241c1.612-.625,3.281-1.271,5.038-1.608.272-.051.541-.106.812-.161l.301-.062c.498-.101.999-.202,1.501-.293,2.184-.402,4.459-.35,6.286-.309,1.006.016,2.15.036,3.241-.001.332-.015.672-.073,1.083-.148.207-.038.425-.075.658-.112.207-.066.468.09.542.348.1.363.203.722.308,1.084.251.884.476,1.68.679,2.485.465,1.853.958,3.846,1.403,5.863.148.678.262,1.384.363,2.008l.035.212c.074.461.151.932.242,1.392.176.908.366,1.813.555,2.718Zm-76.034-91.544c2.133-.223,4.383-.594,6.879-1.134,2.711-.585,5.43-.87,8.315-.87h.246c1.552.012,3.072.265,4.542.51l.871.145c1.185.191,2.36.498,3.497.795l.082.023c.763.199,1.529.399,2.293.566,1.177.257,2.253.719,3.255,1.171,1.938.873,4.029,1.846,6.392,2.977,1.668.797,3.186,1.84,4.654,2.85l.097.066c.507.347,1.013.694,1.526,1.031,1.955,1.284,3.51,2.223,5.04,3.043,1.025.549,2.031,1.159,3.004,1.748l.109.066c.629.385,1.259.768,1.895,1.135,1.007.585,2.149,1.248,3.314,1.813,2.204,1.069,4.757,2.405,6.981,4.208,1.315,1.068,2.844,2.378,4.211,3.994,1.33,1.572,2.721,3.288,3.869,5.18,1.261,2.079,2.795,4.504,4.598,6.726,1.455,1.793,2.637,3.647,4.03,5.886,1.144,1.838,1.994,3.943,2.674,6.626.223.886.352,1.822.465,2.649l.016.112c.061.437.12.873.195,1.303.143.835.061,1.623-.019,2.384-.073.702-.14,1.349-.047,1.989.009.054.008.118-.008.18-.141.74-.269,1.502-.41,2.351l-.011.067c-.355,2.158-.721,4.39-1.517,6.537-.542,1.467-1.474,2.608-2.85,3.49-1.591,1.019-3.409,1.512-5.137,1.892-2.651.576-5.272.604-7.485.558l-.288-.003c-1.132,0-2.275.16-3.381.315l-.27.036c-.448.062-.897.124-1.346.176-1.969.229-3.77.888-5.675,1.584l-.27.098c-.343.124-.689.25-1.037.374-.056.019-.108.027-.161.027-.104,0-.2-.031-.281-.09-.114-.073-.198-.217-.206-.367l-.126-1.766c-.094-1.302-.186-2.578-.265-3.853-.035-.573-.061-1.147-.085-1.719l-.008-.234c-.05-1.135-.1-2.309-.229-3.443-.117-1.034-.375-2.07-.624-3.072l-.204-.842c-.094-.397-.184-.792-.273-1.189l-.038-.164c-.281-1.259-.598-2.684-1.068-4.008-1.045-2.94-2.48-5.664-4.388-8.329-1.634-2.286-3.42-4.399-5.417-6.728-.742-.865-1.626-1.651-2.481-2.411-.42-.371-.828-.736-1.225-1.109-.319-.301-.636-.604-.945-.914l-1.442-1.432c-1.069-1.06-2.173-2.154-3.256-3.265-3.311-3.396-7.05-6.297-11.111-8.62-2.37-1.358-4.521-3.021-6.313-4.468-3.714-3.008-7.254-5.608-10.823-7.949-2.101-1.377-4.516-2.415-7.831-3.366-.703-.2-1.389-.42-2.212-.683l-.748-.239c-.375-.12-.749-.243-1.126-.367l-1.01-.331c-.186-.061-.317-.225-.335-.42-.016-.194.083-.379.251-.472,1.789-.976,3.706-1.486,5.511-1.892,1.723-.387,3.415-.75,5.17-.935Zm-37.507-37.774c-.226-1.131-.352-2.29-.475-3.412l-.005-.052c-.043-.397-.087-.797-.134-1.197-.208-1.744.312-3.333.816-4.868l.143-.437c.296-.917.607-1.705.951-2.407.502-1.015.732-2.156.701-3.486-.008-.309-.007-.616-.005-.944l.004-.722c0-.163.082-.316.221-.406.143-.089.308-.104.456-.04,1.79.804,3.661,1.399,5.892,1.873,1.021.217,2.072.348,3.09.475l.067.008c.225.027.459.027.701.024.617-.023,1.197-.015,1.783.258.137-.008.227-.005.319-.003h.047c.117.005.206.011.285-.004l.853-.101c.823-.095,1.756-.203,2.64-.347,1.222-.196,2.418-.428,3.554-.686.336-.078.674-.155,1.014-.229,1.709-.378,3.472-.768,5.069-1.498.514-.238,1.011-.576,1.494-.902.161-.11.316-.214.469-.315v-.893l-.966-.672c-.104.03-.206.061-.307.09l-.221.066c-.515.156-1.048.319-1.598.382-.913.104-1.705.488-2.543.894l-.32.153c-2.173,1.041-4.372,1.676-6.723,1.942l-.089.011c-1.13.125-2.411.272-3.684.198-1.031-.051-2.082-.19-2.926-.301l-.143-.019c-.437-.055-.874-.112-1.313-.159-.748-.083-1.469-.208-2.335-.364l-.117-.022c-.495-.089-1.057-.188-1.6-.265-.49-.067-.98-.14-1.493-.218l-1.469-.221c-.215-.032-.386-.206-.413-.422-.043-.371-.083-.748-.125-1.131l-.031-.292c-.113-1.068-.242-2.278-.451-3.444-.254-1.413-.331-2.847-.238-4.387.109-1.782.339-4.114,1.166-6.35.485-1.315,1.374-2.483,2.641-3.468l.048-.038c1.552-1.208,3.152-2.454,5.139-3.12,2.06-.689,3.775-1.108,5.394-1.322l.685-.091c1.902-.261,4.271-.577,6.502-.409.312.026.627.047.939.067,1.486.097,3.007.196,4.476.763,1.315.506,2.324,1.212,3.085,2.158.923,1.146,1.61,2.121,2.165,3.066.87,1.487,1.187,3.08,1.384,4.442.12.832.134,1.668.148,2.474.012.836.024,1.69.151,2.505.344,2.208.293,4.427.243,6.574v.055c-.023.9-.047,1.92-.034,2.904.012.87-.204,1.719-.414,2.54-.081.316-.152.593-.212.873-.058.266-.144.524-.221.752-.12.366-.215.655-.245.941-.055.527-.043,1.072-.031,1.599v.051c.007.204.011.406.012.607.095.184.195.366.295.547l.112.204c.331.594.706,1.271.982,1.976.639,1.629.818,3.355.909,4.831.024.382.02.753.013,1.163v.047c-.004.317-.008.643.008.96.074,1.451-.371,2.785-.816,3.899-.251.621-.526,1.241-.792,1.841-.356.795-.686,1.54-.975,2.284-.5,1.307-1.052,2.839-1.247,4.466-.194,1.611-.292,3.238-.386,4.813l-.022.367c-.047.775-.095,1.548-.156,2.321-.225,2.87-.223,5.807-.222,8.646v.164c.003,1.782.004,3.624-.052,5.452-.008.212-.149.393-.35.452-.234.071-.473.148-.713.225l-.211.067c-.663.212-1.413.455-2.168.641-.641.157-1.291.29-1.849.402-.814.164-1.611.325-2.37.541-.619.173-1.243.461-1.794.715l-.097.044c-.25.114-.498.226-.744.331-.179.056-.344.036-.471-.052-.27-.192-.534-.387-.793-.58l-.229-.168c-.635-.468-1.235-.912-1.865-1.329-1.775-1.179-3.733-1.434-5.816-.749-.689.226-1.36.609-1.889,1.081-1.221,1.087-2.477,2.309-3.389,3.879-.085.153-.234.246-.397.246-.026,0-.051-.003-.077-.007-.143-.011-.281-.094-.363-.229l-1.868-2.984c-.05-.085-.075-.172-.075-.26,0-.546.003-1.103.005-1.669l.004-.955c.007-1.783.013-3.627-.019-5.491-.02-1.111-.075-2.246-.129-3.345l-.012-.249c-.047-.97-.101-2.068-.124-3.125-.019-.836-.001-1.701.013-2.466v-.051c.03-1.392.058-2.832-.091-4.22-.137-1.284-.152-2.524-.167-3.837-.009-.885-.022-1.867-.078-2.859l-.602-1.007c-.463-.771-.987-1.643-1.474-2.5-.62-1.087-1.062-2.282-1.318-3.556Zm-59.407,46.167c1.387-2.157,2.972-4.224,4.712-6.146.368-.406.738-.847,1.036-1.201.208-.25.418-.498.628-.742.557-.644,1.221-1.112,2.033-1.432l.356-.138h0s0,0,0,0h.001s.062.16.062.16l-.043-.168c2.25-.884,4.576-1.795,7.062-2.173l.242-.036c1.677-.253,3.411-.515,5.153-.515.929-.003,1.834-.003,2.741-.003l3.124-.003c2.438.001,4.965-.007,7.438.023,2.052.022,4.376.046,6.626.332.648.082,1.307.112,1.945.141l.082.004c.514.022,1.088.046,1.649.1,2.366.226,4.135.593,5.741,1.19,1.795.667,3.674,1.131,5.492,1.579.537.132,1.06.261,1.586.395.402.104.822.187,1.267.276l.745.151c.149.028.278.132.344.274l.41.906c.058.126.058.276-.004.409-.07.137-.183.229-.321.265-4.629,1.165-8.255,2.46-11.412,4.076-.144.069-.303.07-.438.001-.709-.336-1.498-.504-2.349-.472-.983.027-1.977.023-2.996.013h-.637c-.285-.001-.57-.003-.853-.005-.908.003-1.83.139-2.723.27-.656.098-1.339.196-2.015.247-1.205.091-2.388.364-3.534.628l-.195.046c-.39.089-.78.178-1.171.26-.838.173-1.697.397-2.456.594l-.063.015c-1.087.281-2.212.57-3.343.761-1.29.217-2.816.49-4.357.878-2.546.643-5.024,1.67-7.146,2.585-3.97,1.709-7.609,4.142-11.129,6.496-.572.383-1.109.744-1.649,1.101-.079.054-.163.106-.247.159-.526.338-1.013.65-1.306,1.157-.223.385-.651.555-1.026.707-.132.052-.265.106-.379.167-.066.036-.148.056-.229.056-.062,0-.121-.011-.176-.032-.13-.051-.233-.156-.282-.288-.721-2.107-.551-4.232-.387-6.287.184-2.309.99-4.591,2.394-6.781Zm45.543-.588c.027.172-.046.348-.19.456-2.415,1.783-4.143,3.285-5.605,4.871l-1.244,1.342c-1.509,1.622-3.068,3.3-4.512,5.019-2.275,2.704-4.802,5.098-6.992,7.132-.219.203-.437.41-.654.616l-.128.121c-1.178,1.116-2.395,2.271-3.842,3.194-.917.581-1.934,1.005-3.109,1.294-.835.204-1.822.414-2.811.414-.32,0-.616-.02-.904-.061-.237-.031-.475-.074-.71-.116l-.136-.023c-.274-.048-.546-.095-.819-.134-.132-.019-.276-.013-.457-.005-.382.012-.847.03-1.283-.245-.902.052-1.778-.182-2.488-.366l-.109-.028c-.32-.083-.64-.165-.962-.233-.105-.02-.212-.042-.32-.062-.485-.091-.972-.183-1.417-.403-.816-.406-1.646-.862-2.379-1.265l-.196-.108c-.471-.257-.94-.515-1.415-.765-.718-.378-1.217-.906-1.744-1.466-.32-.343-.611-.647-.944-.925-.114-.1-.175-.231-.175-.375v-.005c.004-.144.069-.278.175-.37.206-.165.391-.317.568-.463.342-.281.651-.535.966-.781,3.128-2.449,5.773-4.353,8.326-5.993,1.243-.796,2.539-1.543,3.794-2.263l.167-.097c.685-.395,1.349-.779,2.011-1.171,2.254-1.345,4.879-2.405,8.022-3.24,1.404-.371,2.836-.73,4.182-1.065l.274-.069c.503-.126.987-.251,1.473-.377l.069-.017c1.239-.319,2.516-.647,3.792-.902.609-.122,1.206-.261,1.868-.416.976-.229,2.193-.515,3.376-.67.869-.116,1.736-.164,2.575-.21l.717-.04c.246-.013.494-.066.791-.133.655-.141,1.329-.284,2.097.015.164.065.281.214.304.389Zm-49.025-2.122c.022-.028.059-.062.104-.089.151-.153.379-.196.57-.098l.054.034c.065.038.124.1.172.186.106.206.071.425-.089.58-.024.038-.052.074-.089.108l-.191.165h.007c-.028.169-.062.36-.176.539-1.109,1.744-2.261,3.854-2.379,6.279-.004.061-.017.118-.039.173-.28.565-.28,1.177-.28,1.824-.003.632-.005,1.272-.223,1.915-.095.277-.023.674.052,1.095.042.214.082.441.102.667.008.074.023.156.036.235.026.147.058.328.054.523-.04,1.676.398,3.22,1.068,5.023.448,1.202,1.1,2.348,1.938,3.406,1.989,2.516,4.546,4.301,7.6,5.301,1.389.456,2.881.752,4.431.88.543.047,1.07.149,1.58.247l.061.012c.562.11,1.201.235,1.806.249.293.005.59.015.886.027,1.214.043,2.469.085,3.712-.182.422-.091.857-.156,1.278-.219.615-.091,1.132-.171,1.623-.288,2.101-.507,3.848-1.768,5.459-3.015,1.097-.85,2.164-1.814,3.105-2.664l.106-.094c.504-.455,1.01-.908,1.522-1.352.417-.36.843-.71,1.27-1.056.699-.57,1.423-1.159,2.08-1.797.873-.843,1.751-1.775,2.456-2.523l.187-.198c.504-.533,1.022-1.08,1.544-1.608,1.072-1.084,2.184-2.107,2.928-2.784.402-.367.828-.724,1.205-1.037l.078-.067c.379-.317.808-.678,1.205-1.044,2.333-2.146,5.035-4.014,8.03-5.549,2.456-1.26,5.061-2.199,7.741-2.791l.168-.036c1.483-.329,3.003-.66,4.72-.545.073.005.145.027.208.065l1.029.576c.129.074.215.196.241.335.559,2.887,1.664,5.206,3.373,7.083.136.144.167.364.075.543-.49,1.038-.983,2.087-1.475,3.133l-.094.199c-1.006,2.14-2.145,4.564-3.314,6.933-1.243,2.518-2.567,5.031-3.849,7.462l-.698,1.325c-1.342,2.551-2.963,5.113-5.098,8.065-.932,1.287-1.822,2.644-2.684,3.955l-.032.05c-.861,1.31-1.751,2.665-2.686,3.962-1.493,2.068-3.322,4.026-5.437,5.82-1.662,1.409-3.346,2.682-5.147,3.891-2.169,1.458-4.7,2.54-7.736,3.31-1.763.448-3.655.831-5.955,1.208-1.455.239-2.963.628-4.291.971l-.334.086c-.533.137-1.066.273-1.599.401-.289.07-.578.147-.867.222l-.139.038c-.749.199-1.522.406-2.304.514-.371.052-.744.109-1.115.165l-.194.031c-1.349.208-2.745.424-4.172.424-.459,0-.878-.022-1.283-.065-1.014-.108-2.066-.13-2.994-.149h-.043c-.871-.02-1.774-.039-2.651-.113-.96-.082-1.908-.281-2.826-.473l-.03-.007c-.476-.1-.975-.204-1.465-.289-.461-.081-.925-.153-1.389-.226l-.382-.061c-.803-.122-1.528-.235-2.258-.371-.514-.093-1.029-.18-1.543-.266-1.697-.285-3.443-.58-5.104-1.197-2.949-1.099-5.315-2.816-7.233-5.25-2.764-3.509-4.168-7.632-5.176-11.202-.241-.857-.496-1.708-.753-2.558l-.017-.058c-.383-1.275-.769-2.559-1.1-3.84l-.145-.561c-.378-1.459-.758-2.932-.927-4.439-.026-.226-.065-.455-.102-.683-.1-.594-.202-1.204-.104-1.833.278-1.764.639-3.304,1.1-4.706,1.201-3.636,3.417-6.687,5.632-9.441,1.329-1.655,2.573-2.904,3.913-3.926.3-.229.589-.533.822-.777.196-.206.391-.409.596-.597,2.347-2.15,4.443-3.7,6.596-4.874.857-.468,1.685-.967,2.604-1.522l.168-.102c.533-.32,1.064-.64,1.602-.951.296-.169.623-.281.863-.363l.071-.026c.065-.022.126-.042.186-.065l.19-.21Z" stroke-width="0"/>
      <polygon points="58.961 327.157 58.961 327.157 58.962 327.157 58.961 327.157" stroke-width="0"/>
      <path d="m64.009,312.887l.005.108c.02.389.038.756.071,1.114.125,1.302.125,2.62.125,3.893,0,1.4,0,2.847.168,4.259.152,1.292.141,2.6.13,3.862-.012,1.384-.024,2.792.167,4.147.116.814.125,1.637.134,2.431.009.753.019,1.524.116,2.281.132,1.005.176,2.031.219,3.022v.059c.032.719.063,1.469.129,2.215.077.858.079,1.767.082,2.431.007,1.021.013,2.078.169,3.115.147.979.12,1.996.097,2.893v.048c-.013.494-.027,1.054-.008,1.582.022.64.067,1.287.12,2.006.059.835.122,1.7.133,2.563.023,1.75.019,3.517.015,5.225v.208c-.004,1.366-.007,2.733.003,4.096.004.771-.008,1.555-.02,2.314-.036,2.406-.074,4.871.402,7.527.066.097.137.21.211.331.211.342.473.768.802.966,1.417.863,2.938,1.536,4.107,2.027,2.581,1.087,5.362,2.009,8.264,2.741l1.089.277c2.304.588,4.684,1.194,7.042,1.549l1.945.293c1.302.199,2.604.395,3.905.582,1.052.151,2.098.386,3.022.596l.059.013c1.198.266,2.438.543,3.662.663,1.058.104,2.121.2,3.182.293l1.748.159c1.873.171,3.784.032,5.629-.105l.061-.004c.607-.046,1.217-.09,1.826-.125,1.829-.105,3.727-.168,5.401-.225l.083-.003c.8-.027,1.6-.054,2.402-.085h.005c.07,0,.124.003.178.005.031.003.051.004.067.005.441-.265.905-.274,1.279-.282h.048c.14-.004.242-.007.346-.017.25-.024.506-.074.754-.122l.054-.011c.293-.056.572-.11.858-.14,1.677-.169,3.32-.601,4.847-1.044,2.743-.792,5.085-1.92,7.157-3.448,1.026-.756,1.887-1.38,2.835-1.953.59-.355,1.046-.831,1.353-1.186l-.379-.928c-.118.026-.235.05-.351.074-.485.098-.974.198-1.424.352-.702.243-1.413.519-2.102.787l-.109.043c-.694.27-1.321.511-1.969.742-2.327.831-4.716,1.416-6.773,1.9-2.688.633-5.159,1.046-7.553,1.26-2.019.182-4.078.225-6.068.266l-.437.009c-.85.019-1.7.038-2.548.07-.211.008-.42.007-.632.001l-.18-.004c-.607-.007-1.182-.016-1.713.199-.382.156-.921.161-1.345.011-.678-.241-1.378-.225-2.117-.212h-.052c-.265.009-.529.016-.799.008-1.257-.02-2.437-.28-3.577-.53-.604-.132-1.239-.243-1.798-.343l-.12-.022c-.909-.16-1.942-.342-2.914-.613-.339-.094-.705-.116-1.058-.137-.397-.022-.878-.047-1.339-.194-.584-.19-1.229-.253-1.799-.308-.413-.039-.803-.077-1.194-.143-.925-.163-1.888-.208-2.817-.254l-.121-.007c-.381-.019-.756-.038-1.13-.065-.133-.015-.219,0-.366-.035-.842-.184-1.69-.374-2.538-.563l-2.511-.558c-3.729-.824-6.559-1.645-9.173-2.659-.633-.245-1.265-.55-1.774-.795l-.1-.048c-.225-.106-.451-.214-.678-.319-.171-.079-.281-.253-.281-.441v-2.988c-.001-.093,0-.187.003-.284.005-.225.011-.442-.027-.629-.339-1.713-.529-3.588-.577-5.733-.023-.975-.016-1.953-.011-2.898v-.098c.013-1.973.026-4.014-.198-6.002-.145-1.29-.118-2.672-.097-3.784v-.055c.012-.662.024-1.407.005-2.115-.024-.873-.071-1.75-.116-2.598l-.009-.165c-.052-.959-.112-2.047-.129-3.1-.023-1.237-.015-2.54-.007-3.665v-.233c.008-1.228.015-2.497-.013-3.752-.052-2.286-.024-4.688-.001-6.618l.172-.042h-.172c.039-3.614.079-7.348-.23-11.01-.059-.713-.112-1.426-.163-2.138l-.004-.062c-.11-1.501-.223-3.054-.417-4.579-.079-.637-.151-1.276-.222-1.916-.118-1.075-.229-2.04-.367-2.991-.136-.925-.192-1.872-.242-2.706l-.003-.044c-.024-.391-.046-.752-.074-1.109-.007-.094-.001-.19.005-.284.003-.043.007-.09.007-.122-.335-.593-.324-1.165-.313-1.768.008-.311.016-.658-.044-1.009-.027-.171.031-.336.156-.446.11-.102.281-.152.436-.113.217.059.395.109.559.156.34.095.562.159.783.196.424.078.845.14,1.268.2l.058.008c.781.117,1.564.233,2.325.434,2.029.542,4.119.849,6.141,1.144l.104.017c.391.056.784.114,1.177.176,1.368.208,2.823.323,4.107.422l.417.034c.557.044,1.112.091,1.668.144.612.058,1.244.081,1.855.104l.1.003c.808.03,1.641.061,2.479.169,1.026.133,2.097.159,3.132.183h.081c.629.013,1.415.03,2.181.081,1.857.125,3.727.147,5.535.168h.043c1.724.02,3.466.042,5.183.144,2.567.152,5.198.11,7.738.067l1.002-.017c.444-.008.886-.016,1.33-.02,1.044-.015,2.106-.098,3.135-.179.464-.038.929-.073,1.393-.104.089-.007.143-.011.191-.023.913-.253,1.85-.328,2.757-.402.527-.039.952-.075,1.37-.128.516-.065,1.054-.091,1.529-.116.761-.04,1.526-.079,2.24-.243.438-.102.866-.136,1.244-.167.377-.031.694-.056,1.007-.122,1.173-.249,2.566-.538,3.998-.797.541-.1,1.084-.18,1.627-.262l.172-.026c.663-.102,1.314-.202,1.941-.331,1.747-.358,3.533-.749,5.362-1.154l2.284-.5c.121-.028.265.001.377.073.122.087.195.211.21.352.005.04.013.085.022.126.028.155.056.309.02.485-.083.417-.172.834-.261,1.252l-.044.208c-.165.768-.371,1.724-.529,2.641-.066.383-.093.785-.118,1.175-.038.585-.079,1.22-.241,1.821-.108.398-.128.82-.148,1.229-.017.402-.038.85-.143,1.292-.219.914-.274,1.871-.328,2.795-.036.639-.074,1.292-.163,1.947-.16,1.177-.21,2.415-.254,3.509l-.008.217c-.02.464-.04.917-.067,1.368.005.066.007.169-.04.288-.339.924-.348,1.943-.358,2.928-.005.621-.011,1.261-.093,1.895-.164,1.276-.156,2.604-.148,3.887v.052c.009,1.38.019,2.807-.173,4.23-.11.811-.11,1.662-.11,2.485.001,1.03.003,2.074-.179,3.103-.134.757-.161,1.564-.188,2.345-.016.508-.034,1.057-.078,1.588-.074.853-.137,1.704-.2,2.555l-.007.083c-.11,1.506-.226,3.065-.402,4.609-.082.724-.112,1.455-.141,2.162-.027.631-.055,1.304-.118,1.957-.117,1.206-.095,2.45-.077,3.653l.003.116c.012.701.024,1.493.005,2.257-.038,1.545-.12,3.109-.199,4.624l-.082,1.537c-.02.405-.031.811-.042,1.218-.024.925-.05,1.861-.187,2.812-.304,2.111-.02,4.43.842,6.891l.042.125c.223.643.416,1.2.941,1.455h.828l.629-.605v-2.464c-.001-2.914-.001-5.757.001-8.603,0-.143-.009-.29-.019-.437-.024-.422-.051-.858.087-1.292.284-.877.293-1.781.304-2.735.005-.623.012-1.397.133-2.141.159-.955.156-1.966.153-2.945-.003-1.042-.005-2.122.176-3.197.1-.589.126-1.213.152-1.817.022-.507.044-1.045.104-1.56l.149-1.337c.134-1.212.285-2.561.463-3.879.152-1.142.202-2.306.25-3.433.022-.512.043-1.015.073-1.517.003-.043,0-.09-.003-.14-.015-.246-.03-.49.066-.73.274-.675.278-1.392.282-2.152.004-.66.008-1.326.176-2.006.182-.733.2-1.544.219-2.328l.004-.148c.011-.417.023-.849.062-1.275.176-1.941.226-3.934.274-5.862l.007-.272c.019-.722.038-1.435.063-2.148.003-.106-.005-.221-.015-.336-.024-.303-.055-.679.121-1.014.183-.352.175-.729.165-1.166-.007-.26-.009-.514.019-.776.028-.238.061-.475.094-.711l.03-.219c.062-.451.12-.877.149-1.298.023-.313.04-.624.058-.936l.008-.149c.032-.639.071-1.434.175-2.206.109-.827.122-1.7.133-2.47.016-.99.034-1.978.194-2.965.09-.559.109-1.153.128-1.725.019-.623.038-1.224.124-1.816.203-1.408.251-2.803.304-4.281l.015-.434c.017-.432.034-.866.056-1.304l-1.057-1.37c-.059-.071-.097-.169-.101-.273l-.039-.693-.438-.42c-1.267-.078-2.489.221-3.663.506l-.078.02c-.34.085-.679.167-1.019.242-2.054.452-3.931.765-5.738.959-.518.054-1.05.079-1.52.102-.807.04-1.626.079-2.399.241-.721.151-1.419.182-2.094.211-.281.011-.541.023-.803.04-.483.032-.967.085-1.463.14-.453.048-.905.098-1.36.132-1.103.081-2.208.152-3.311.221l-1.513.089c-.508.3-1.049.286-1.479.273-.221-.009-.425-.016-.619.005-.188.023-.379.056-.569.089l-.299.052c-.42.075-.846.155-1.31.125-1.309-.023-2.674-.015-3.961-.003l-.467.004c-2.505.024-5.105.04-7.671-.204-1.467-.139-2.957-.159-4.398-.179-1.337-.019-2.71-.038-4.049-.145-1.027-.086-2.079-.081-3.09-.071-1.446.023-2.944.016-4.394-.2-1.001-.149-2.052-.168-3.069-.187l-.122-.003c-.632-.012-1.349-.027-2.052-.079-2.573-.195-5.176-.241-7.694-.285-1.07-.019-2.132-.038-3.193-.067l-.132.005c-.086.001-.169.004-.253.009-.351.023-.718.044-1.072-.097-.389-.159-.8-.172-1.236-.187-.2-.007-.398-.013-.594-.032-.301-.027-.597-.074-.9-.124-.424-.065-.807-.124-1.17-.133-1.109-.026-2.24-.022-3.489-.017-.429.003-.857.004-1.284.004-1.107.566-1.104.581-.85,1.935.05.266.044.531.039.744l-.003.212c0,.29.003.58.005.873v.104c.005.722.011,1.469-.008,2.21-.069,2.77.13,5.482.313,7.534.004.055.004.113.001.172l-.172.052h0s.171-.002.171-.002c.336.986.385,2.036.433,3.053Z" stroke-width="0"/>
      <path d="m117.898,214.854c-.908-.012-1.875.058-2.882.225-.94.157-1.696.398-2.376.757-.347.186-.694.395-1.029.598-.194.118-.35.212-.508.305-.173.113-.421.089-.584-.065-1.205-1.138-2.717-2.32-4.788-2.452-.307-.02-.518-.217-.689-.374l-.044-.042c-.036-.034-.073-.069-.113-.098-.172-.124-.241-.346-.171-.551,1.221-3.448,2.382-7.149,2.009-11.168-.071-.101-.141-.206-.212-.312-.327-.488-.585-.874-1.151-.994l-1.201.009-1.288.791c-.159.105-.37.1-.534-.016l-1.487-1.065h-1.321c-.043.022-.086.043-.13.065l-.044.022c-.171.079-.34.157-.432.251-.391.397-.771.838-1.104,1.228l-.032.036c-.156.183-.313.366-.476.55-.113.132-.278.187-.464.156-.276-.07-.533-.139-.787-.207l-.075-.02c-.491-.132-1.101-.295-1.684-.417-.277-.058-.546-.087-.8-.087-.703,0-1.291.225-1.699.648-.511.527-.69,1.304-.49,2.13.455,1.871,1.041,3.685,1.608,5.44.25.776.537,1.483.839,2.232.141.344.281.694.418,1.05.054.137.043.29-.031.418-.07.125-.194.212-.338.237-2.711.481-4.781,1.972-6.614,3.51-.789.664-1.299,1.536-1.841,2.46l-.288.488c-1.766,2.94-2.749,6.331-3.004,10.371-.04.64-.035,1.3-.03,1.938v.048c.008.593.012,1.174-.013,1.755-.077,1.786.239,3.622.998,5.78.865,2.458,2.462,4.297,4.751,5.465.292.149.585.29.88.432l.633.305c2.191,1.062,4.047,1.623,5.839,1.763,1.608.126,3.731.221,5.874-.169,2.554-.468,4.642-1.382,6.384-2.793.155-.125.364-.145.539-.05,2.481,1.354,4.934,1.996,7.465,1.934.787-.019,1.582-.122,2.427-.317,1.642-.377,3.377-.862,4.945-1.857,1.111-.705,2.06-1.627,2.979-2.52l.091-.09c.277-.27.557-.542.842-.807,1.688-1.579,2.606-3.717,3.493-5.784l.034-.075c.769-1.795,1.062-3.718,1.341-5.865.296-2.284.067-4.622-.679-6.954-.655-2.054-1.817-3.675-3.549-4.958-2.866-2.119-5.943-3.197-9.408-3.291Zm-23.212-9.558c.713-.242,1.218.075,1.556.286.109.069.214.133.309.175h1.498l1.793-1.179c.13-.085.301-.104.448-.046l2.539,1.053c.182.074.3.25.3.448.024,1.725-.367,3.396-.745,5.01-.151.644-.338,1.446-.477,2.211-.043.231-.245.399-.479.399h-3.862c-.191,0-.364-.112-.444-.285-1.053-2.27-1.95-4.716-2.743-7.477-.071-.249.065-.511.308-.594Zm10.258,38.473c-1.477,1.24-3.136,1.709-4.564,2.005-.867.182-1.681.269-2.484.269-.359,0-.717-.017-1.064-.054-2.464-.26-4.737-.882-6.756-1.853-.375-.18-.748-.389-.995-.531l-.051-.028c-.323-.182-.628-.352-.937-.496-.986-.465-1.744-1.28-2.318-2.492-.619-1.313-1.252-2.89-1.248-4.653,0-.436-.007-.877-.013-1.314-.017-1.042-.035-2.121.056-3.195.139-1.611.334-3.476.894-5.233l.126-.395c.475-1.502.966-3.054,2.157-4.511.039-.047.086-.086.14-.116,2.597-1.564,5.574-2.401,8.454-3.209l.858-.241c1.241-.35,2.69-.204,3.853-.086l.581.055c1.478.14,3.007.285,4.461,1.088.125.071.21.186.241.323.031.139,0,.284-.087.398-.132.18-.269.36-.406.541-.317.417-.578.758-.806,1.13l-.518.83c-.936,1.491-1.903,3.034-2.352,4.777-.343,1.331-.715,2.883-.779,4.458-.017.409-.071.816-.129,1.232-.063.461-.132.958-.125,1.416.071,3.745,1.196,6.602,3.437,8.731.097.093.184.19.277.295l.145.159c.089.097.134.227.126.359-.008.133-.071.258-.173.343Zm2.778-2.938h-.016c-.139,0-.254-.043-.342-.122-1.388-1.204-1.912-2.739-2.296-4.086-.479-1.674-.321-4.17-.104-6.391.159-1.634.555-3.178.947-4.62.237-.873.52-1.579.866-2.158l1.623-1.949c.05-.059.11-.104.18-.134l.691-.273c.104-.048.235-.05.356,0,.039.013.083.028.122.039.109.034.226.07.34.161,2.05,1.587,3.019,3.701,2.801,6.11-.329,3.659-1.045,6.514-2.251,8.985-.795,1.631-1.49,2.982-2.581,4.267-.083.1-.207.163-.339.171Zm21.95-16.42c.437,1.697.37,4.793.079,6.974-.081.616-.2,1.225-.305,1.763l-.028.148c-.09.464-.182.944-.247,1.413-.257,1.811-1.037,3.552-2.383,5.32-1.251,1.639-2.557,2.865-3.989,3.744-1.863,1.144-3.682,1.7-5.562,1.7-2.968-.008-4.357-.414-7.082-2.068-.21-.126-.293-.39-.194-.615.031-.07.058-.141.085-.214.078-.208.16-.429.312-.628,2.232-2.996,3.439-6.497,4.322-9.525.78-2.668,1.006-5.039.69-7.25-.251-1.77-.963-3.546-2.115-5.28-.085-.133-.104-.296-.051-.437.052-.144.171-.256.319-.3.379-.112.761-.212,1.143-.315.835-.223,1.657-.444,2.423-.75,2.103-.839,3.989-.355,5.558.231.975.364,1.946.75,2.883,1.15,2.136.906,3.53,2.569,4.142,4.938Z" stroke-width="0"/>
      <path d="m99.917,45.628l.141.022.624.09c1.487.222,3.046.25,4.552.277l.66.013c.401-.004.851-.04,1.409-.113.385-.051.732-.095,1.092-.114.514-.031,1.099-.039,1.83-.031h.342c.149.001.295,0,.444-.001h.001c.046,0,.085.001.124.004h.008c.697-.351,1.408-.373,2.097-.393.379-.011.788-.023,1.159-.102.533-.112,1.077-.2,1.545-.273.71-.116,1.38-.225,2.027-.39,1.524-.391,2.949-1.174,4.356-2.391v-.89l-.582-.631c-.073-.001-.144-.003-.215-.003-1.806,0-3.386.471-4.825.979-2.094.741-3.994,1.37-6.045,1.583-1.387.143-2.801.188-4.169.231l-.854.027c-1.994.069-4.002-.027-5.946-.117-.871-.043-1.704-.082-2.536-.109l-.163.004c-.137.009-.352.02-.566-.059-.767-.301-1.594-.27-2.39-.235l-.222.009c-.215.008-.441.023-.644.016l-.35.334c.472.484.964.797,1.66,1.061,1.748.664,3.623.937,5.436,1.202Z" stroke-width="0"/>
    </g>
  </g>
</svg>