<?xml version="1.0" encoding="UTF-8"?>
<svg id="b" data-name="Layer 2" xmlns="http://www.w3.org/2000/svg" width="256.943" height="308.189" viewBox="0 0 256.943 308.189">
  <g id="c" data-name="Layer 1">
    <g>
      <path d="m170.497,2.097c.752.12,1.285.34,1.728.711l.278.232-1.009.919-.307,1.306-.122.069c-.04.02-.078.045-.118.07l-.036.023c-.137.084-.293.18-.475.242-1.053.353-2.009.657-3.063.79-.248.031-.494.07-.739.108-.944.149-1.903.297-2.903.034-.525-.137-1.072-.246-1.6-.352l-.05-.011c-.46-.091-.916-.182-1.362-.29-.264-.063-.526-.133-.791-.206-.93-.251-1.887-.508-2.919-.392l-.466.346h-1.684c-.613.263-.989.721-1.218,1.479-.041.137-.065.285-.091.441-.025.157-.054.332-.104.506-.335,1.148-.108,2.271.132,3.459.143.706.449,1.35.744,1.973.08.168.154.325.226.48l.05.113-.039.115c-.043.133-.089.262-.137.389-.09.243-.174.474-.212.701-.061.372-.107.757-.15,1.129-.069.587-.138,1.156-.258,1.71-.051.234-.066.486-.083.728l-.162.033.159.009c-.018.305-.036.619-.118.932-.113.431-.147.892-.179,1.337-.025.357-.053.742-.119,1.115-.061.346-.076.719-.091,1.079-.018.48-.036.966-.154,1.441-.133.538-.15,1.105-.168,1.656-.014.449-.029.949-.11,1.439-.122.724-.123,1.49-.124,2.231-.001.559-.003,1.136-.053,1.708-.078.887-.08,1.8-.083,2.683-.001.966-.003,2.059-.119,3.111-.071.642-.056,1.308-.041,1.954l.003.1c.005.274.011.549.009.823,0,.055.005.114.01.173.013.184.028.386-.054.58-.144.343-.135.714-.125,1.108.005.209.01.442-.009.673-.021.229-.046.459-.071.688l-.005.048c-.039.37-.08.752-.098,1.123-.05,1.102-.089,2.205-.128,3.306-.019.554-.039,1.105-.06,1.658-.005.132-.025.271-.056.411-.058.252-.118.505-.177.757l-.055.233c-.154.644-.307,1.288-.437,1.925-.129.64-.247,1.283-.365,1.926-.12.663-.241,1.326-.376,1.985-.179.877-.402,1.809-.806,2.682-.292.634-.697,1.34-1.483,1.772-.524.287-.961.604-1.301.942-.879.875-1.807,1.815-2.636,2.821-.766.926-1.446,2.038-2.143,3.498-.971,2.037-1.505,4.22-1.861,5.896-.286,1.345-.5,2.713-.708,4.037l-.132.831c-.089.564-.152,1.162-.208,1.689-.049.47-.098.94-.164,1.406-.04.293-.034.604-.026.904.006.238.011.471-.003.708-.018.303-.053.607-.089.917-.03.258-.059.516-.078.776-.051.721-.094,1.441-.135,2.162l-.059.98c.003.031.008.124-.043.218-.129.236-.128.508-.127.795,0,.135,0,.271-.01.407-.016.217-.048.435-.079.653l-.005.039c-.038.257-.07.489-.084.718-.015.272-.023.545-.03.818-.015.56-.031,1.196-.132,1.816-.09.561-.108,1.158-.123,1.684-.011.358-.023.717-.05,1.072-.069.88-.083,1.786-.097,2.662-.013.841-.025,1.77-.091,2.668-.122,1.658,0,3.361.124,4.828.074.889.06,1.782.046,2.647-.018,1.114-.035,2.267.14,3.389.064.4.071.803.079,1.193.008.386.015.817.086,1.222.089.503.073,1.016.056,1.513-.011.297-.021.603-.011.891.016.389.049.787.084,1.194l.006.078c.03.376.063.762.076,1.146.045,1.188.031,2.378.018,3.529-.02,1.761-.041,3.567.144,5.334.097.905.11,1.855.124,2.693.009.523.018,1.044.041,1.563.083,1.732.073,3.523.063,5.103-.011,2.04-.023,4.152.133,6.229.091,1.231.07,2.472.05,3.671-.01.545-.019,1.088-.019,1.632l.004.142c.004.139.008.298-.02.459-.222,1.222-.287,2.482-.351,3.7-.043.798-.108,1.617-.197,2.434-.023.216-.115.412-.177.541-.018.034-.031.064-.04.088l-.066.174-.18.028c-2.998.465-5.931,1.179-8.767,1.87l-.134.033c-.692.169-1.384.337-2.073.501l-.232.055-.316-.564c-.078-.14-.155-.279-.236-.419-.722-1.258-1.636-2.139-2.792-2.697-.738-.353-1.405-.523-2.08-.504-.224.006-.447.003-.672-.005-.474-.01-.92-.025-1.32.09-2.072.6-3.63,1.887-4.63,3.828-.118.227-.241.451-.371.689l-.412.761-.301-.316c-.034-.036-.068-.07-.098-.102l-.05-.05c-.102-.102-.191-.193-.268-.293-.124-.162-.244-.33-.365-.499-.218-.305-.421-.587-.647-.828-1.242-1.331-2.54-2.678-3.686-3.868l-.381-.395c-.081-.086-.188-.162-.301-.242-.055-.038-.104-.074-.153-.11-.333-.253-.668-.498-1.004-.743-.739-.541-1.505-1.102-2.218-1.716-.86-.736-1.687-1.534-2.487-2.305l-.054-.053c-.303-.293-.607-.585-.912-.876-.202-.193-.4-.39-.597-.588-.251-.251-.504-.504-.767-.746-.495-.455-.998-.901-1.489-1.334l-.719-.638-.058-.842-.627-.788.076-.174c.019-.04.034-.078.048-.114.039-.097.075-.182.125-.263.203-.328.41-.655.617-.983l.332-.529c.919-1.461,2.042-3.158,3.396-4.672.331-.372.657-.747.981-1.123l1.029-1.182c.535-.613,1.069-1.224,1.594-1.844.391-.461.846-1.013,1.268-1.594.479-.659.95-1.323,1.421-1.989l.044-.063c.445-.628.89-1.256,1.341-1.879.474-.652.707-1.203.496-2.077l-.668-.807-.857-.197c-.781.088-1.49.49-2.118.845-.472.269-.92.563-1.415.891-.247.164-.499.325-.749.484-.58.37-1.238.788-1.801,1.255-1.741,1.448-2.939,3.35-3.789,4.845-.916,1.614-1.75,3.2-2.477,4.71-.389.807-.752,1.647-1.104,2.459-.407.946-.83,1.924-1.306,2.873-.991,1.989-1.821,4.036-2.725,6.314-.607,1.532-1.364,2.629-2.381,3.453l-.361.292-.223-.714c-.051-.17-.1-.331-.158-.488l-.018-.049c-.466-1.262-.904-2.449-1.877-3.38-1.345-1.286-3.201-1.621-4.966-.899-.726.297-1.489.634-2.157,1.085-.843.568-1.597,1.188-2.24,1.845-.415.424-.776.932-1.124,1.426-.167.234-.323.455-.485.669-.12.16-.239.325-.368.504l-.4.555-.258-.337c-.679-.89-1.524-1.484-2.735-1.923l-.036.005c-.216.03-.524.069-.795-.053-.326-.145-.645-.076-1.018.003-.296.064-.619.137-.936.1-1.678.505-2.975,1.179-3.967,2.063-1.456,1.297-2.965,2.713-4.003,4.501-.694,1.199-1.12,2.414-1.266,3.612-.122,1.005-.213,2.07.124,3.091.054.168.034.33.023.417v.165s-.165.122-.165.122c-.306.127-.572.223-.832.316-.524.188-1.019.365-1.448.625-1.676,1.028-2.911,2.063-3.889,3.257-1.296,1.584-2.017,3.355-2.203,5.414-.018.193.025.41.071.639.038.197.07.367.081.545.056.843.356,1.628.671,2.35.199.455.489.859.795,1.286.172.241.342.478.503.731l.31.484h-.575c-.228,0-.452.009-.673.016l-.069.003c-.595.021-1.159.045-1.727-.063-.441-.08-.875-.097-1.278-.103-.08,0-.177.029-.279.06l-.056.016c-.142.044-.302.094-.465.07-.051-.001-.119-.003-.185-.003-1.025,0-2.022.311-2.985.61l-.269.084c-1.227.38-2.464.8-3.662,1.206l-.269.091c-.51.173-1.02.346-1.53.515-.3.099-.6.201-.9.302l-.04.014c-.825.278-1.677.565-2.529.81-.612.175-1.228.341-1.844.506l-.056.016c-1.246.335-2.535.681-3.781,1.102-2.597.879-5.248,1.735-7.812,2.563l-2.67.862c-1.099.357-2.201.709-3.302,1.06l-.974.311c-.617.198-1.235.395-1.852.594-.302.097-.604.198-.905.301-.538.183-1.079.367-1.623.52-1.168.327-2.539.747-3.853,1.377-1.554.749-2.969,1.762-4.15,2.655-.533.406-.811.902-.931,1.661-.054.35-.157.642-.305.866-.707,1.068-1.077,2.334-1.13,3.87-.02.589.039,1.203.095,1.796.03.296.058.578.076.859h-.003c.168.273.17.564.173.801.001.1.003.169.009.238.014.132.043.263.074.404.049.226.097.446.093.683-.016,1.026.232,2.048.471,3.034l.135.566c.456,1.966,1.024,3.935,1.573,5.84.188.652.375,1.302.559,1.955.449,1.59.924,3.22,1.453,4.982.08.269.179.54.276.803l.025.069c.147.397.298.808.404,1.232.417,1.692,1.075,3.315,1.666,4.68.451,1.045.963,2.087,1.456,3.096l.023.046c.31.629.619,1.26.917,1.896l.209.44c.342.719.729,1.534.994,2.356.48,1.503,1.161,2.953,1.761,4.194.073.152.148.301.223.45.293.59.585,1.176.748,1.801.183.707.436,1.359.775,1.992.539,1.008,1.114,2.025,1.671,3.01l.78,1.38-.026.118c-.025.115-.053.227-.08.337-.051.211-.1.41-.123.605-.076.663-.162,1.435-.197,2.208-.005.135.029.291.066.455.039.17.07.313.084.467.088,1.113.51,2.186,1.255,3.188.535.723,1.226,1.344,2.049,1.844.76.462,1.248,1.146,1.453,2.028.15.648.381,1.33.683,2.029.807,1.867,1.668,3.799,2.562,5.738.726,1.575,1.515,3.266,2.37,4.951l.038.071c.958,1.89,1.946,3.843,3.186,5.617.712,1.018,1.486,2.018,2.237,2.985l.029.039c.342.441.686.884,1.023,1.329l.671.88c1.528,2.004,3.108,4.075,4.44,6.282l.356.589c.897,1.485,1.826,3.019,2.593,4.623.46.955.924,1.777,1.419,2.517,1.04,1.555,2.342,2.888,3.697,4.229.302.298.627.588.94.869l.039.035c.252.223.504.447.749.679.236.223.506.397.881.561.623.273,1.201.086,1.741-.133l.08-.033.085.013c.209.031.41.068.602.103l.108.019c.429.08.833.155,1.222.157.379,0,.757.009,1.136.018l.137.003c1.08.023,2.195.041,3.272-.162.372-.071.751-.088,1.115-.104.44-.021.823-.04,1.186-.127.341-.08.672-.102.993-.122.241-.015.479-.029.714-.07.199-.035.399-.071.598-.109.424-.08.838-.155,1.248-.211.302-.04.605-.065.911-.09l.059-.005c.37-.028.731-.058,1.075-.109.494-.073.984-.162,1.474-.252l.063-.011c.499-.091,1.013-.184,1.522-.259l.558-.08c.887-.128,1.894-.273,2.85-.456,1.104-.212,2.252-.38,3.264-.529.495-.073.99-.145,1.483-.222.436-.069.871-.145,1.305-.224.202-.038.405-.079.607-.119.343-.07.698-.142,1.055-.196,1.053-.159,8.203-1.302,8.996-1.478.936-.217,140.183-43.21,143.036-44.53,1.435-.664,2.864-1.411,4.246-2.133l.069-.035c.38-.199.761-.399,1.142-.598,2.691-1.394,5.467-2.665,8.153-3.893l.603-.276c2.66-1.219,5.655-2.591,8.187-4.666,1.518-1.246,2.409-2.55,2.805-4.107.122-.478.254-1.098.202-1.657-.084-.866-.293-1.745-.518-2.644-.094-.376-.237-.744-.389-1.134l-.094-.242-.405.207-.108-.361c-.056-.191-.107-.385-.155-.58-.103-.407-.201-.792-.372-1.137-.48-.95-.925-1.963-1.316-2.856l-.016-.036c-.308-.698-.625-1.421-.958-2.118-1.178-2.477-2.186-4.318-3.266-5.973-1.006-1.54-2.092-3.049-3.141-4.509l-.333-.465c-.867-1.209-1.768-2.413-2.677-3.574-.978-1.25-2.037-2.543-2.888-3.583l-.269-.33c-.686-.838-1.376-1.672-2.091-2.532l-1.092-1.316-.005-.105c-.001-.018,0-.05.003-.09.001-.014.003-.025.003-.036-.09-.153-.185-.305-.282-.456l-.041-.068c-.15-.234-.31-.486-.451-.742-1.141-2.079-2.619-3.972-4.048-5.709-1.169-1.42-2.322-2.939-3.425-4.516-.465-.664-.964-1.325-1.448-1.964l-.09-.119c-.217-.285-.432-.57-.647-.856-.317-.422-.635-.845-.954-1.266-.622-.821-1.394-1.842-2.106-2.829-.384-.531-.744-1.08-1.142-1.691-.264-.404-.528-.806-.8-1.202-.613-.892-1.231-1.781-1.849-2.67-1.036-1.489-2.211-3.176-3.321-4.844-2.329-3.501-4.509-6.535-6.666-9.278-.813-1.034-1.588-2.123-2.337-3.177l-.572-.805c-.582-.812-1.213-1.663-1.984-2.356-.203-.183-.421-.358-.645-.536l-.414-.335v-.149c0-.029-.003-.058-.005-.085-.004-.093-.009-.183.016-.283.18-.699.297-1.426.409-2.128.093-.582.197-1.24.342-1.866.054-.236.074-.49.09-.716.019-.242.039-.515.102-.786.188-.813.292-1.542.315-2.223.015-.475.05-.895.333-1.235l.084-.103.134-.01c.292-.023.582-.039.87-.055l.133-.008c.753-.041,1.456-.08,2.151-.201.333-.056.672-.135,1-.212l.103-.025c.699-.164,1.423-.335,2.181-.298l.125-.028c.945-.17,1.826-.584,2.563-.965.541-.277,1.092-.584,1.578-.855l.051-.029c.518-.287,1.053-.584,1.592-.86,1.825-.935,3.453-1.805,4.89-2.994.385-.318.79-.615,1.181-.904l.043-.031c.563-.414,1.144-.841,1.662-1.322,1.231-1.149,2.213-2.473,3.013-3.616.153-.219.31-.437.465-.655.693-.969,1.405-1.964,1.87-3.069.297-.699.615-1.394.971-2.122.094-.192.206-.371.322-.554.142-.224.277-.439.362-.667.781-2.064,1.682-4.464,2.505-6.824.678-1.941,1.123-3.721,1.361-5.442.03-.214.048-.431.066-.647.026-.305.054-.643.117-.968.178-.941.326-1.793.332-2.69l-.004-.177c-.005-.157-.011-.337.024-.516.254-1.345.368-2.676.337-3.954-.008-.286-.005-.57-.003-.856.003-.321.005-.64-.006-.961-.011-.322-.005-.654.003-.966.014-.687.028-1.375-.142-2.025-.05-.197-.11-.568.035-.852.118-.223.11-.464.102-.742-.004-.097-.006-.183-.005-.271.005-.803-.034-1.651-.123-2.663-.041-.449-.075-.899-.109-1.347-.068-.909-.145-1.938-.281-2.928-.053-.38-.099-.761-.145-1.142l-.019-.16c-.105-.872-.213-1.776-.384-2.656-.081-.419-.144-.845-.207-1.258l-.008-.049c-.102-.692-.207-1.406-.394-2.082-.099-.35-.192-.702-.286-1.054l-.065-.241c-.43-1.618-.874-3.282-1.577-4.82l-.028-.06c-.056-.125-.11-.243-.179-.322-1.246-1.429-2.8-2.505-4.62-3.198-1.262-.481-2.676-.956-4.323-1.45-1.375-.412-2.876-.756-4.867-1.112-.204-.038-.409-.076-.613-.115l-.175-.034c-.504-.098-.988-.191-1.464-.259-.292-.044-.583-.097-.872-.149-.291-.054-.58-.108-.872-.149-.217-.03-.436-.049-.657-.065-.389-.033-.771-.063-1.146-.155-.377-.091-.782-.13-1.139-.164-.404-.039-.821-.079-1.235-.182-.298-.074-.618-.086-.926-.099-.321-.014-.684-.029-1.029-.117-.281-.071-.578-.076-.866-.081-.281-.004-.595-.008-.909-.079-.479-.109-.95-.125-1.449-.143l-.278-.011c-.817-.034-1.633-.079-2.45-.124l-1.198-.063c-.023.005-.107.005-.204-.02-1.069-.3-2.197-.217-3.282-.137l-.392.029c-.925.064-1.936.296-3.093.708-2.182.781-4.644,1.661-6.723,3.168-.109.079-.227.12-.332.155-.054.019-.083.029-.112.041l-.476.196.043-.514c.01-.124.023-.249.035-.372l.01-.095c.035-.37.068-.699.071-1.029,0-.104-.033-.231-.065-.353-.041-.164-.084-.331-.083-.516.001-1.57-.494-3.017-.925-4.101-.123-.31-.256-.618-.389-.926-.312-.723-.633-1.465-.832-2.237-.335-1.302-.777-2.465-1.352-3.556-.676-1.28-1.4-2.498-2.208-3.844-.217-.362-.51-.727-.848-1.054-.85-.826-1.792-1.708-2.967-2.779-.415-.379-.852-.749-1.315-1.142-.236-.197-.465-.392-.706-.599l-.059-.07-.446-.852.005-.086c.028-.491.029-1.003.03-1.496.003-.85.005-1.698.127-2.552.109-.768.175-1.553.239-2.311.045-.519.086-1.014.14-1.505.048-.435.058-.887.066-1.325v-.051c.013-.587.025-1.186.118-1.786.064-.415.071-.833.08-1.278.008-.445.015-.93.086-1.41.117-.766.134-1.563.152-2.334.006-.29.014-.578.025-.866.061-1.549.073-3.156.084-4.573.011-1.535.023-3.275.099-4.951.085-1.881.051-3.851-.103-6.023-.105-1.494-.089-3.046-.075-4.413.016-1.657.033-3.351-.127-5.007-.119-1.233-.144-2.483-.168-3.69-.01-.553-.021-1.105-.04-1.658-.003-.031-.001-.074,0-.115.001-.019.004-.07,0-.086-.155-.59-.197-1.189-.238-1.768-.029-.412-.056-.806-.118-1.181-.157-.948-.42-1.683-1.197-2.192-.233-.15-.495-.219-.773-.293-.256-.068-.519-.138-.778-.272l-.086-.046-.045-.084c-.64-1.188-1.837-1.686-3.112-2.129-1.201-.42-2.499-.525-3.755-.627l-.551-.044c-1.428-.123-3.103-.184-4.707.297l-.043.013c-1.386.415-2.817.843-4.081,1.595-.801.478-1.172,1.113-1.103,1.893.451.31.476.306,1.072.11l.18-.054c.104-.031.208-.063.308-.1,1.285-.485,2.696-.864,4.313-1.158.387-.071.771-.153,1.157-.237l.091-.02c.414-.088.841-.179,1.263-.252.182-.031.362-.064.544-.098.83-.15,1.683-.306,2.558-.306.02,0,.038,0,.058.001,1.049.005,2.067.168,3.052.326Zm-42.616,161.432l.554-.054-.014-.127.376-.039-.107-.122.307-.024-.016-.14.114.133.569-.044c.218-.296.545-.238.712-.207.015.003.028.005.039.006l.014-.003c.221-.233.511-.283.727-.32.078-.014.122-.023.163-.033l.33-.08c1.776-.436,3.613-.887,5.289-1.71.145-.07.291-.055.397-.043.03.004.053.006.074.006h.36l-.464,3.577-.412-.246c-.806-.481-1.689-.706-2.781-.706l-.663-.003c-.211-.003-.421-.005-.639-.004-.246,0-.495.004-.739.014-.322.013-.657.056-.98.098l-.335.044c-.228.298-.572.232-.724.206l-.01-.003-.09.015c-.061.058-.132.112-.223.145-.103.04-.208.039-.313.001l.009.108-.558.064.009.12-.516.055.011.135-.899.11-.08-.737.528-.051-.016-.147Zm-1.471,18.227c1.692-1.718,2.177-3.815,2.41-5.449l.024-.175.164-.07c1.701-.739,3.658-.514,5.234.613,1.565,1.118,2.409,2.89,2.26,4.739l-.019.211-.199.064c-1.661.544-3.315.904-5.307,1.318l-.133.029-.113-.079c-1.043-.728-2.365-.702-3.766-.669l-1.099.024.544-.554Zm-32.476,33.995c.066.484.191,1.025.618,1.377.536.432.798.489,1.674.056.015-.035.03-.071.045-.108.058-.135.127-.297.117-.401-.099-.996.301-1.812.688-2.602l.129-.264c.434-.905,1.005-1.713,1.654-2.601.489-.669,1.143-1.182,1.944-1.523.565-.243,1.194-.282,1.872-.117.961.232,1.809.618,2.52,1.146.89.66,1.486,1.619,1.826,2.929.242.931.259,2.251.055,4.033-.112.978-.323,1.929-.644,2.908-.455,1.384-1.235,2.609-1.864,3.524-1.001,1.456-2.305,2.682-3.871,3.643-.078.048-.16.088-.241.124l-.474.231-.061-.43c-.026-.178-.054-.356-.083-.535-.068-.412-.135-.831-.159-1.253-.051-.874-.33-1.736-.879-2.711-1.115-1.987-2.713-3.494-4.746-4.484-.749-.363-1.522-.548-2.296-.548-.08,0-.157.004-.236.003-.476,0-.909-.046-1.316-.139-.164-.038-.379,0-.658.056-.17.031-.318.06-.475.079l-.76.091.472-.6c.093-.115.178-.228.259-.336l.041-.054c.197-.261.401-.53.627-.77,1.11-1.176,1.987-2.629,2.681-4.447.267-.697.481-1.395.657-1.985.095-.325.197-.699.202-1.043.004-.394.02-.788.036-1.183.048-1.139.097-2.307-.164-3.424-.026-.118-.008-.219.008-.301.006-.029.01-.056.014-.085l.025-.257.261-.024c1.117-.103,2.029-.287,2.868-.577,1.198-.415,2.118-.935,2.814-1.592,1.143-1.075,1.879-2.32,2.187-3.701.117-.516.198-1.035.277-1.538.038-.242.076-.485.118-.729l.069-.399,1.846.813-.059.253c-.461,2.025.029,3.829,1.498,5.516.945,1.082,2.122,1.979,3.6,2.742l.159.083c.866.45,1.755.91,2.701,1.163,1.627.44,3.054.415,4.364-.084.673-.253,1.204-.668,1.577-1.232.471-.713.788-1.509.999-2.503.084-.396.103-.802.124-1.231.011-.248.024-.503.049-.767l.038-.402.587.206c.162.056.281.098.397.144,1.345.543,2.656.669,4.012.384.367-.076.741-.119,1.103-.16l.345-.061.056-.108.155.033.095-.049.103.105.241.12-.063.128.085.16-.231.135-.038.079-.049.006c-.054.089-.125.198-.231.283-1.199.948-2.321,2.068-3.336,3.329-.159.199-.34.375-.515.544l-.206.199-1.533,1.534c-1.141,1.138-2.281,2.277-3.414,3.425-1.134,1.149-2.166,2.424-3.066,3.788-.173.262-.328.549-.493.852-.097.178-.189.35-.29.53l-.44.773-.238-1.431c-.071-.429-.132-.786-.197-1.143-.264-1.424-.811-2.702-1.672-3.909-.756-1.059-1.78-1.931-3.222-2.744-.882-.5-1.935-.866-3.313-1.156-1.8-.373-4.726.511-5.953,1.493-.489.387-.831.91-1.103,1.371-1.015,1.722-1.647,3.618-2.084,5.078-.239.802-.315,1.564-.222,2.267Zm7.719,14.558l-2.899,1.38.869-2.227,2.03.847Zm-65.466,9.434c.073-.62.293-1.216.506-1.791l.05-.135c.572-1.539,1.572-2.876,3.056-4.091,1.816-1.486,3.859-2.176,6.339-2.921,1.944-.585,3.922-.577,5.785-.52l.305.008v.307c0,.239.008.475.014.706l.003.088-.16.004h0l.16.014c.016.599.033,1.164-.043,1.738-.086.663-.298,1.3-.504,1.915l-.113.345c-.663,2.044-1.809,3.998-3.502,5.973-1.276,1.491-2.929,2.522-5.201,3.244-.702.223-1.401.336-2.077.336-.772,0-1.528-.148-2.243-.44-1.349-.55-2.112-1.349-2.332-2.44-.135-.662-.149-1.426-.043-2.337Zm-3.65-2.176l-.055.207-.932.098c-.417.044-.813.085-1.209.134-.079.01-.157.014-.233.014-.447,0-.848-.153-1.221-.308-1.27-.535-2.148-1.506-2.767-3.056-.469-1.172-.437-2.385-.343-3.418.054-.592.358-1.161.628-1.662l.048-.089c.76-1.417,1.874-2.524,3.311-3.29,1.117-.598,2.359-.697,3.791-.303.366.099.734.194,1.103.29l.055.014c.323.084.648.167.97.256.234.061.416.134.57.226.865.528,1.721,1.063,2.578,1.598.093.056.145.137.177.184l.192.239-.258.237c-3.234,2.069-5.388,4.973-6.403,8.63Zm34.084-34.906c.015.187.051.384.086.574l.108.634-.328.038c-.279.031-.559.035-.831.039-.728.008-1.443.015-2.142.459l-.747.475.278-.84c.036-.108.061-.193.081-.263.043-.139.07-.232.123-.327.92-1.602,1.921-3.536,2.38-5.765.163-.791.291-1.527.392-2.248.094-.664.117-1.35.139-2.012l.02-.506,1.881.32-.12.351c-.085.247-.175.493-.266.739-.192.525-.41,1.12-.555,1.702l-.053.206c-.167.645-.322,1.252-.188,1.915.174.859.691,1.385,1.468,1.955l.221.162.063-.104.183.005c.05.001.118.014.18.063.515-.028.802-.178.991-.52l-.739-1.592.025-.108c.43-1.793,1.483-3.348,2.435-4.662.736-1.013,1.585-1.928,2.321-2.69.412-.426.909-.79,1.347-1.11.122-.089.243-.178.362-.267.984-.736,2.177-1.03,3.612-.885,1.322.132,2.492,1.367,2.556,2.7.054,1.134.051,2.07-.009,2.945-.04.582-.192,1.207-.437,1.806l-.076.193c-.412,1.013-.832,2.045-1.491,2.967-.232.328-.457.553-.752.753-.724.49-1.463,1.045-2.193,1.652-.229.188-.539.49-.717.859-.417.865-1.191,1.119-1.871,1.342-.139.045-.277.091-.412.142-.504.185-1.013.211-1.445.211l-.366-.004c-.168-.003-.333-.006-.489-.004l-.086-.009c-1.162-.412-1.96-1.188-2.462-2.38-.081-.198-.202-.385-.33-.583l-.179-.246c-.025-.02-.045-.043-.063-.066h-.365c-.1,0-.185-.001-.261-.004h-.105c-.041-.001-.083,0-.123.005-.648.073-1.021.47-1.055,1.118-.018.35-.016.618.004.867Zm2.889-26.795l.474.185c.219.089.442.182.667.276.496.209,1.006.424,1.523.584.872.269,1.59.427,2.261.495.559.06,1.129.045,1.73.03.278-.006.561-.013.852-.013h.39l-.081.381c-.097.439-.188.874-.278,1.303l-.045.211c-.228,1.088-.464,2.212-.751,3.328-.455,1.757-1.287,2.968-2.545,3.704-.608.353-1.119.811-1.634,1.287-.924.852-1.99,1.473-3.17,1.845-.313.099-.65.104-.949.109-.134.003-.268.005-.402.015l-.196.015-.1-.172c-.411-.712-.583-1.34-.556-2.037.01-.259.004-.526-.001-.787l-.003-.09c-.011-.437-.025-.932.035-1.42.11-.877.298-1.825.59-2.982.337-1.342.96-2.535,1.568-3.643.164-.298.362-.573.554-.838l.043-.06c.053-.071.104-.144.155-.218l-.129-1.508Zm10.777,4.177c-.021-.327-.081-.668-.139-.998-.06-.351-.119-.691-.147-1.036l-.54-1.019,1.505-.516.117.264c.063.143.12.288.177.434.191.489.37.949.782,1.247.521.376,1.12.553,1.762.511l.17-.01.102.138c1.608,2.195,3.976,3.122,6.295,3.796l1.434.419-1.481.197c-2.705.36-4.568,1.411-5.862,3.31l-.189.279-.266-.209c-1.361-1.068-2.721-1.617-4.156-1.678l-.419-.018.133-.397c.075-.226.16-.45.244-.673.187-.489.363-.949.431-1.424.132-.907.098-1.831.046-2.617Zm30.655,12.28l-.17.227-.243-.145c-.262-.154-.511-.104-.894,0-.288.075-.554.137-.836.098-.811.311-1.226.607-1.243,1.32l-.008.315-.315-.008c-2.166-.054-4.158-.786-6.094-2.238l-.086-.066-.028-.102c-.406-1.474-.975-2.752-1.741-3.909-.904-1.369-1.827-2.301-2.909-2.931-.102-.06-.164-.147-.212-.223h-.004c-.098,0-.223-.019-.331-.117-.025-.023-.048-.048-.066-.074-.107-.01-.277-.043-.381-.208-.124-.015-.254-.034-.385-.078-.373-.127-.746-.261-1.118-.394l-1.663-.598,3.064-.49.128.178.399.783c.114.011.257.045.36.172.124-.013.276.045.382.191h.62l1.59-.773c.389-.014.786-.031,1.188-.05l.269-.011c.877-.04,1.78-.08,2.706-.069,1.036.006,2.091.243,3.128.703.78.347,1.609.746,2.389,1.31,1.347.973,2.297,2.063,2.906,3.335.654,1.359.521,2.619-.405,3.854Zm2.785,5.339c.736,1.222,1.652,2.741,1.493,4.675l-.014.157-.852.51c-.236.035-.475.054-.711.054-1.392,0-2.507-.629-3.586-1.238-.142-.079-.281-.158-.422-.236-.555-.306-1.05-.678-1.43-1.074l-.182-.185c-.495-.505-1.052-1.073-1.092-1.958-.003-.025-.043-.1-.066-.145-.025-.045-.05-.093-.07-.139l-.043-.094.321-1.339.179-.049c.073-.019.142-.043.211-.066.18-.06.367-.123.566-.127,1.01-.028,1.97-.355,3.113-1.059l.153-.094.159.084c.874.457,1.595,1.196,2.272,2.324Zm-21.348-11.44c.633.074,1.307.277,1.949.589,1.804.875,3.086,2.193,3.811,3.918.343.821.712,1.785.719,2.846.001.044.028.117.054.187.048.13.093.252.1.391.093,1.672-.142,2.898-.763,3.973-.197.341-.472.643-.757.827-.672.439-1.386.827-2.017,1.172l-.271.149c-.803.441-1.626.894-2.646,1.087l-.253.048-.097-.238c-.389-.93-1.082-1.629-1.752-2.306l-.307-.313c-.024-.026-.058-.063-.071-.073-.135-.061-.276-.128-.415-.194-.379-.18-.768-.367-1.162-.491-.699-.222-1.434-.351-2.186-.384-.241-.011-.48-.008-.723-.005h-.815s.169-.429.169-.429c1.508-3.823,1.291-5.263.754-7.183l-.034-.115.055-.108c.48-.983,1.246-1.783,2.336-2.449,1.295-.792,2.707-1.087,4.319-.899Zm-18.526,20.998c.13-.044.257-.09.384-.135.303-.112.578-.209.86-.285.095-.025.198-.071.306-.122.249-.113.545-.236.871-.223.274-.459.726-.749,1.163-1.03.103-.065.198-.127.29-.188.78-.525,1.679-1.173,2.453-1.994.192-.202.45-.384.747-.525,1.464-.702,3.101-1.248,5.15-1.72.889-.202,1.672.342,2.111.925.691.917,1.097,1.956,1.207,3.089.016.16.046.32.075.48.065.358.13.717.075,1.099-.239,1.673-.555,3.028-.994,4.266-.401,1.13-.909,2.423-1.852,3.45-.907.986-2.044,1.673-3.378,2.039-.328.09-.653.137-.965.137-1.272,0-2.171-.738-2.881-1.46-.892-.91-1.468-2.01-1.71-3.271-.075-.396-.108-.797-.142-1.221-.015-.188-.031-.389-.051-.604l-.574-.719-1.857.153-1.727-1.989.441-.153Zm9.154,14.779v.004l-.16.003h0l.16.024c.004.228.008.464-.015.713l-.013.137-.109.085c-.643.49-1.073,1.142-1.243,1.884-.006.031-.019.064-.038.095l.006.961c.006,1,.013,2.012.045,3.003.009.276.073.569.139.879.041.192.08.363.113.545l.066.373-.456-.003c-1.424,0-2.648.222-3.744.679l-.523.217.09-.558c.298-1.84.226-2.914-.796-5.645l-.059-.155.097-.138c1.114-1.567,1.775-3.424,2.019-5.679l.056-.52.434.293c1.014.682,2.171.846,3.395,1.02l.882.129-.177.382c-.188.411-.18.828-.172,1.271Zm-9.154,6.351c.066.399.103.832-.08,1.302-.051.132-.051.323-.044.494.023.575-.103,1.113-.224,1.633l-.11.471c-.019.078-.033.135-.031.173.039,1.777-.632,3.32-1.28,4.811-.079.179-.159.36-.239.539-.365.811-.741,1.648-.88,2.534-.025.169-.108.307-.196.454-.039.063-.081.132-.122.212l-.466.899-.128-1.004c-.241-1.943-.851-3.602-1.864-5.072-1.013-1.475-2.383-2.378-4.073-2.685-.46-.086-.969-.085-1.429-.006-.341.063-.684.115-1.029.168-.934.143-1.899.291-2.792.643-.6.236-1.197.42-1.829.614-.276.085-.554.172-.837.263l-.441.143.03-.462c.129-2.049-.253-3.934-1.134-5.602l-.145-.273.271-.15c1.948-1.077,3.965-2.294,5.36-4.26l.219-.308.263.271c.134.135.266.271.396.405l.184.191c.38.394.752.777,1.133,1.152.729.718,1.555,1.308,2.455,1.753.202.102.402.206.602.311.684.358,1.392.729,2.162.885l.08.016c.945.189,1.821.363,2.781.191.961-.177,1.984-.395,2.977-.929l.386-.207.074.432Zm-17.279,9.595c1.262-.455,2.448-.707,3.625-.772.155-.009.315-.04.484-.073.196-.039.373-.074.561-.088.859-.065,1.623-.003,2.334.193.296.08.605.254.949.53,1.024.82,1.458,1.975,1.877,3.093l.023.063c.192.51.197,1.014.202,1.501l.003.287c.018.752.003,1.746-.279,2.75-.489,1.747-1.295,3.405-2.394,4.928-1.11,1.537-2.439,2.683-3.95,3.407-.658.317-1.237.464-1.824.464l-.119-.003c-.164-.005-.328-.009-.49-.011-.768-.013-1.563-.026-2.355-.371-.533-.229-1.045-.469-1.458-.866-1.03-.998-1.604-1.989-1.807-3.119-.021-.122-.044-.241-.066-.361l-.023-.113c-.152-.795-.306-1.6-.246-2.426.055-.772.112-1.57.31-2.344.051-.196.053-.422.054-.64,0-.127,0-.234.006-.34l.025-.099c.191-.357.363-.681.535-1.003l.08-.149c.441-.828.896-1.684,1.395-2.503.526-.865,1.384-1.515,2.549-1.935Zm-17.734,22.416c-.071-1.329.282-2.567.637-3.603.607-1.776,1.524-3.453,2.725-4.987.385-.49.763-.985,1.148-1.488l.733-.955.093-.03c1.464-.488,2.831-1.152,4.304-2.091l.484-.31v.575c0,.172-.001.336-.004.499-.005.345-.01.658.009.965.071,1.164.188,2.129.519,3.051.491,1.362,1.095,2.44,1.849,3.296.854.974,1.954,1.687,3.271,2.121.16.054.32.112.485.173l.762.278-.476.348c-1.721,1.261-2.865,2.38-3.71,3.633-1.001,1.485-2.32,2.688-3.917,3.573-1.315.728-2.568,1.119-3.829,1.194-.123.008-.247.033-.379.058-.185.036-.379.075-.582.075-.228,0-.431-.048-.618-.147-1.453-.097-2.436-.921-3.092-2.589-.335-.851-.465-1.587-.411-2.317.028-.386.028-.807-.001-1.323Zm16.715,7.692c.233-1.219.427-2.324.451-3.483.029-1.592.336-3.206.912-4.798.075-.208.199-.377.32-.541.074-.104.132-.18.179-.262.066-.113.124-.228.191-.362l.02-.043c.04-.081.084-.172.135-.272l.076-.153.172-.018c1.592-.172,3.27-.466,4.753-1.458l.402-.268.084.476c.03.17.064.336.099.496.078.365.15.702.159,1.057.025,1.068.402,2.087.821,3.123.593,1.469,1.428,2.805,2.48,3.972.465.516.9,1.038,1.36,1.589l.053.064c.216.261.434.523.657.785l.287.341-.415.159c-.704.264-1.273.713-1.91,1.305-.544.504-1.05,1.079-1.539,1.637l-.343.39c-1.224,1.379-2.475,2.159-3.826,2.386-.414.07-.816.105-1.196.105-2.112,0-3.567-1.1-4.21-3.183-.313-1.011-.37-2.007-.172-3.044Zm11.726-10.303c-.407-1.183-.603-2.43-.754-3.506-.011-.085-.043-.178-.081-.297-.025-.073-.049-.148-.074-.232l-.04-.132.073-.12c.237-.397.505-.801.782-1.212.43-.643.876-1.308,1.228-2.027.375-.767.649-1.579.914-2.366.138-.409.263-.781.4-1.149l.288-.781,1.006,2.591-1.149,1.053.198,1.214.584.592h.326l.499-.424.14.02c.1.014.209.025.321.036l.058.006c.31.031.653.068.989.149,1.793.431,3.543,1.346,5.348,2.797.404.323.693.76.974,1.181.063.097.127.191.191.283.608.879.884,1.894,1.127,2.791.283,1.048.336,2.197.167,3.615-.226,1.861-.879,3.468-1.943,4.776-.717.881-1.656,1.404-2.717,1.511-.064.008-.125.01-.189.01-.683,0-1.29-.372-1.792-.737-.993-.719-1.741-1.647-2.464-2.544l-.09-.112c-.109-.135-.218-.269-.328-.402-.201-.244-.399-.488-.597-.731-.347-.43-.694-.857-1.052-1.277-1.183-1.389-1.805-3.023-2.34-4.578Zm13.323-5.988h-.301c-.045.006-.074.009-.103.009-.129,0-.213-.056-.259-.103-1.29-1.263-2.967-2.182-5.275-2.889-.293-.09-.612-.133-.948-.179-.193-.025-.367-.049-.543-.079l-.237-.04-.025-.237c-.019-.172-.046-.342-.074-.514-.065-.404-.132-.813-.086-1.226.162-1.476.421-3.211,1.122-4.893.667-1.598,1.604-2.964,2.787-4.061.632-.587,1.367-1.067,2.067-1.508,1.199-.76,2.475-.869,4.011-.342,1.397.481,2.193,1.3,2.504,2.577.054.219.11.48.13.747.158,2.005-.264,4.082-1.331,6.535-.488,1.125-1.006,2.183-1.449,3.068-.15.301-.373.608-.683.94-.302.323-.614.627-.961.96l-.303.295-.043.94Zm4.357-28.415l-.104-.119.034-.154c.132-.613.528-.786.791-.901.048-.021.095-.041.14-.066l.113-.031.331-.003c.139-.001.272.001.409-.004,1.455-.07,2.801.297,4.142,1.129,1.048.649,2.123,1.409,2.891,2.566.757,1.137.8,2.29.125,3.427-.483.817-1.001,1.488-1.585,2.05-.628.603-1.282.896-2,.896-.401,0-.812-.086-1.336-.279-1.236-.455-2.079-1.336-2.505-2.619-.391-1.168-.775-2.425-.791-3.813-.013-.892-.232-1.592-.654-2.078Zm30.179-4.162l.01-.683.436.194c.266.118.528.236.788.353l.191.085c.777.351,1.478.666,2.19.964.766.321,1.534.63,2.305.94l.088.036c.703.282,1.407.565,2.107.859.451.188.902.396,1.339.597l.038.018c.351.162.702.325,1.057.48,1.657.717,3.37,1.458,5.041,2.153l.223.093c1.067.444,2.275.948,3.458,1.354.973.336,1.973.65,2.94.955l.058.019c.884.277,1.796.564,2.7.871,2.691.911,5.822,1.978,8.927,3.106,1.055.382,2.154.709,3.216,1.026l.02.173.046-.154c.741.221,1.508.449,2.258.696,2.161.709,4.274,1.4,6.371,2.058,2.206.693,4.427,1.308,6.602,1.829.444.105.897.239,1.296.357l.08.024c.306.09.613.182.921.261.617.162,1.235.316,1.854.47.852.212,1.82.452,2.766.712.44.119.87.285,1.283.444l.041.016c.231.089.46.178.692.259,1.367.483,2.72.915,4.227.915l.461-.008-.02.342c-.005.083-.009.165-.013.244l-.004.097c-.01.224-.02.457-.051.692-.034.257-.079.513-.124.767-.074.427-.145.836-.168,1.228-.094,1.633-.333,2.934-.754,4.093-.153.42-.331.835-.504,1.237l-.108.252c-.084.196-.177.389-.278.599l-.273.579-.375-.081c-.097-.02-.209-.044-.318-.071l-.095-.024c-.539-.133-1.097-.282-1.654-.228-1.694.124-3.241-.313-4.408-.713-1.498-.516-3.031-.905-4.473-1.26-2.017-.494-4.004-1.169-5.927-1.822l-.273-.091c-.575-.196-1.151-.39-1.727-.579-2.47-.811-5.384-1.785-8.269-2.873-.847-.321-1.653-.733-2.433-1.132-.519-.264-1.105-.565-1.687-.822-1.959-.867-3.96-1.755-5.886-2.762-.261-.135-.521-.274-.781-.414l-.079-.043c-.559-.302-1.063-.572-1.573-.818-.521-.249-1.064-.489-1.589-.719l-.091-.04c-.435-.191-.871-.381-1.303-.582-.743-.343-1.484-.696-2.225-1.047l-.236-.112c-.464-.221-.929-.441-1.394-.66-.645-.305-1.291-.613-1.936-.921l-.095-.046c-1.46-.696-2.97-1.416-4.473-2.082-1.362-.604-2.766-1.179-4.125-1.736-.785-.321-1.55-.635-2.314-.955-.481-.203-.955-.419-1.439-.64l-.836-.38-.102-.363c-.051-.184-.097-.347-.153-.505-.113-.312-.226-.623-.338-.934l-.143-.395c-.163-.442-.325-.886-.484-1.33l-.029-.084c-.104-.291-.207-.58-.268-.882-.236-1.154-.218-2.324-.202-3.454Zm65.956,18.821c-.045-.006-.086-.008-.127-.01h-.003c-.109-.006-.243-.014-.377-.065-1.049-.397-2.146-.673-3.206-.94-.556-.14-1.125-.285-1.683-.442-1.318-.376-2.74-.724-4.344-1.064-1.553-.328-3.187-.773-5.3-1.443-.88-.278-1.801-.495-2.693-.704l-.039-.009c-.554-.13-1.182-.277-1.782-.437l-.431-.115c-1.123-.3-2.285-.609-3.398-1.016-1.039-.381-2.129-.652-3.183-.914-.401-.099-.803-.198-1.206-.305-1.468-.386-3.003-.871-4.981-1.57-1.065-.377-2.122-.786-3.292-1.243l-.762-.297c-1.133-.439-2.262-.885-3.39-1.331l-2.272-.896c-1.409-.553-3.005-1.179-4.533-1.807-.737-.301-1.479-.64-2.132-.94l-.224-.102c-.376-.172-.753-.342-1.132-.509-1.044-.456-2.088-.906-3.135-1.357l-.976-.422c-.526-.227-1.052-.454-1.577-.683-.506-.219-1.013-.441-1.519-.663l-.441-.193c-1.132-.496-2.262-.99-3.398-1.474-.729-.311-1.456-.6-2.227-.906l-1.619-.647.175-.313c.02-.033.034-.061.049-.089.039-.078.075-.153.14-.224l.351-.379c.786-.85,1.574-1.702,2.37-2.543.901-.953,1.806-1.901,2.712-2.849l1.233-1.29c.32-.336.639-.674.958-1.011.768-.812,1.563-1.652,2.375-2.464,1.336-1.337,2.636-2.47,3.973-3.467.365-.271.719-.551,1.077-.833l.055-.043c.658-.521,1.325-1.049,2.029-1.506,1.666-1.087,3.395-2.117,5.067-3.114l1.01-.603c1.113-.664,2.263-1.352,3.447-1.941,1.723-.856,3.557-1.476,5.332-2.075l.478-.162c.297-.102.593-.207.91-.32l.77-.273.223.217c.107.1.221.208.321.338.288.376.574.756.86,1.136.236.313.471.627.708.936.395.516.791,1.031,1.188,1.545l.035.045c.785,1.016,1.594,2.067,2.373,3.118.889,1.201,1.935,2.634,2.949,4.17,1.018,1.542,2.029,3.15,2.921,4.568l.91,1.445c.464.731.915,1.47,1.366,2.208,1.052,1.72,2.131,3.484,3.335,5.122l.513.688c.457.609.976,1.3,1.435,2.009.488.753.95,1.562,1.359,2.274.183.32.366.638.55.954.607,1.035,1.206,2.118,1.735,3.073,1.006,1.817,2.044,3.692,3.207,5.449.642.973,1.236,1.994,1.811,2.983.389.668.825,1.417,1.265,2.128.457.736.948,1.439,1.423,2.118.227.325.456.654.686.989l.392.575-.691-.084Zm-52.041-43.79c-.915,1.034-1.988,1.87-3.191,2.483-1.45.738-2.697,1.083-3.924,1.083-.233,0-.478-.014-.726-.04l-.071-.016c-2.349-1.043-3.375-2.356-3.255-4.145l.02-.086c.609-1.252,1.424-2.415,2.502-3.588,1.193-1.297,2.522-2.431,4.062-3.465.534-.36,1.122-.565,1.689-.763.168-.058.327-.113.486-.173.207-.076.417-.113.64-.15.118-.02.227-.039.342-.063l.158-.031.117.104c.442.395.969.61,1.605.657.414.031.728.217,1.02.602.469.617.703,1.302.736,2.154.075,1.916-.627,3.645-2.211,5.439Zm-14.101-30.88c.677-.325,1.089-.89,1.527-1.488.118-.164.239-.327.365-.485.763-.968,1.731-1.593,2.959-1.913,1.038-.279,2.049-.085,3.087.582.791.506,1.124,1.293,1.423,2.123.113.312.183.637.239.899l.009.039c.023.103.045.202.068.293l.01.08c-.115,1.424-.598,2.683-1.063,3.902-.088.228-.175.459-.262.692l-.12.321-.31-.145c-2.065-.963-4.305-.953-6.599-.852l-.236.01-1.35-3.937.253-.12Zm-.37,7.774h.001c1.562-.396,3.036-.519,4.38-.358,2.612.316,4.392,1.271,5.605,3.005.817,1.168.866,2.381.155,3.816-.073.145-.158.277-.239.4-.063.097-.125.194-.179.295-.212.402-.514.696-.949.922-.643.34-1.322.523-2.074.561-.154.009-.31.013-.462.013-2.32,0-4.393-.91-6.337-2.782-.525-.506-1.011-1.062-1.483-1.598l-.484-.546c-.402-.45-.628-.985-.811-1.496-.066-.178-.128-.36-.196-.563l-.228-.669.312-.094c.295-.09.593-.185.894-.282.679-.216,1.381-.44,2.094-.623Zm-11.215-11.156l.045.015c.068.023.138.048.211.066l.075.034c.776.534,1.036,1.345,1.288,2.128l.041.132c.214.663.203,1.325.193,1.966l-.004.179c-.02,1.339-.887,2.538-2.208,3.056-.323.127-.648.188-.994.188-.659,0-1.263-.228-1.847-.447l-.118-.044c-.752-.283-1.4-.739-2.025-1.182l-.084-.059c-.15-.105-.3-.211-.452-.313-.802-.544-1.258-1.276-1.631-1.985l-.098-.182.572-.719c.338-.429.663-.838.991-1.247.708-.88,1.688-1.273,2.554-1.543.777-.242,1.569-.216,2.27-.194.198.006.396.011.594.013.226,0,.43.07.627.139Zm-9.741,2.296c.011-.073.02-.144.028-.214l.009-.076c.021-.199.045-.429.114-.648.113-.361.233-.719.353-1.079l.054-.159c.204-.604.402-1.192.566-1.773.347-1.232.66-2.499.965-3.725l.13-.526c.056-.227.115-.456.174-.683.236-.914.479-1.86.58-2.811.018-.179.142-.295.232-.38.031-.029.054-.05.073-.071l.208-.246.242.222c.624.577,1.227,1.186,1.81,1.776l.066.068c.882.897,1.882,1.915,2.962,2.784l.472.379-.58.169c-1.444.425-2.959.917-4.216,1.845-.1.075-.203.149-.305.222-.538.385-1.044.748-1.407,1.295-.534.798-.786,1.614-.77,2.494.003.163.003.326.001.491v.466s-1.841.721-1.841.721l.079-.538Zm-.202,4.412l-.08-.117.034-.137c.035-.154.048-.325.059-.516.025-.384.054-.815.317-1.251l.213-.347.283.291c.054.054.107.104.157.152.105.1.223.213.318.345.738,1.03,1.689,1.908,2.609,2.756,1.197,1.105,2.45,1.815,3.724,2.109.56.128,1.236.243,1.973.105,1.006-.18,1.715-.392,2.365-.707,1.755-.848,2.809-2.287,3.219-4.398.155-.793.145-1.595.135-2.371v-.063c-.004-.365-.008-.743.006-1.119.003-.088-.033-.206-.076-.355-.034-.11-.068-.221-.098-.346l-.224-.936.736.622c2.448,2.07,3.767,4.746,4.908,7.309l.12.272-.263.135c-.218.115-.44.227-.66.338l-.164.083c-1.641.825-3.19,1.603-3.982,3.291v.632l.348.713v.04c-.04,1.37.342,2.683.711,3.953l.045.154c.262.909.716,1.762,1.31,2.47,1.562,1.86,3.563,3.113,5.947,3.725.434.112.86.14,1.311.169l.048.004c.167.011.33.041.488.07l.05.009c.089.016.177.033.267.043.044.005.093.013.139.021.081.013.187.026.219.021.427-.218.867-.165,1.252-.123.149.018.297.035.449.039l.854.015-.662.544c-.088.071-.175.14-.264.211-.201.155-.379.297-.541.455-.162.158-.325.315-.489.47l-.1.097c-.526.499-1.123,1.065-1.629,1.671-1.13,1.354-2.379,2.96-2.871,4.915-.056.221-.102.441-.149.674l-.137.664-.159.061c-.117.046-.239.07-.366.07h-.005c-.291,0-.535-.127-.752-.239-.185-.097-.361-.187-.538-.187l-.481.02.262-.761c.068-.191.129-.366.184-.543.405-1.303.416-2.607.031-3.875-.302-.998-.736-1.871-1.291-2.593l-.219-.29c-.704-.925-1.423-1.87-2.389-2.535-.3-.206-.583-.436-.856-.658l-.036-.029c-.295-.239-.585-.476-.884-.678-.951-.647-2.063-1.08-3.4-1.327-1.159-.214-2.102-.213-2.973.003-.155.039-.302.033-.469.023l-.059-.003c-.046-.003-.097-.005-.149-.005h-.544l.271-.471c.069-.122.139-.238.208-.352.178-.296.313-.526.426-.768.223-.48.358-.976.415-1.515.219-2.134-.551-3.982-2.357-5.646-1.132-1.044-2.543-1.836-4.195-2.354-.358-.113-.723-.207-1.11-.307l-.04-.01c-.199-.051-.4-.103-.604-.159l-.103-.028-.066-.085c-.278-.371-.132-.756-.025-1.038.112-.296.133-.406.053-.523Zm2.029,7.942c.792.447,1.689.956,2.413,1.844l.071.089-.033,1.221c-.572,1.183-1.592,1.965-3.211,2.463-1,.308-1.948.459-2.898.459-1.597,0-3.109-.446-4.622-1.366l-.282-.169c-.389-.234-.79-.475-1.168-.746-.405-.291-1.159-.832-.909-1.931.073-.321.182-.653.484-.9.637-.523,1.265-1.03,1.931-1.493.395-.274.836-.465,1.262-.649l.051-.023c1.198-.524,2.086-.595,3.064-.247.342.122.688.231,1.036.341l.065.021c.919.291,1.869.592,2.744,1.087Zm-9.29-12.646c.775-1.179,1.208-2.342,1.326-3.556.02-.204.049-.407.079-.612l.01-.07c.034-.238.068-.483.085-.723.016-.224.094-.422.17-.614l.019-.05c.021-.055.044-.11.061-.167l.044-.134.13-.058c1.593-.679,2.751-1.938,3.871-3.155l.243-.262.015-.122.095-.044.076-.149.276.06.302.143-.083.239c-.001.049-.029.107-.083.155l-.011.093c-.021.198-.043.386-.09.577-.311,1.203-.627,2.404-.944,3.605l-.375,1.485c-.014.238-.03.505-.046.773l-.004.059c-.035.573-.071,1.166-.142,1.75-.053.435-.089.87-.123,1.305-.054.635-.107,1.271-.206,1.9-.124.798-.162,1.612-.198,2.4l-.009.168c-.016.32-.031.642-.054.968l-.019.257-.254.034c-1.632.213-3.136.691-4.469,1.417l-.346.189-1.364-4.8,2.014-3.062Zm-10.99-5.521c.632-1.792,1.707-3.281,3.197-4.425.931-.713,1.939-1.163,2.801-1.509.303-.12.59-.127.821-.132.147-.004.286-.006.4-.038l.097-.029.097.036c1.288.489,1.603,1.626,1.855,2.54.093.337.124.683.154,1.016.016.184.031.353.054.52.015.102.039.202.068.317.025.098.04.162.055.228l.009.098c-.031.159-.061.29-.091.422l-.015.065c-.083.356-.168.723-.193,1.089-.044.62-.248,1.212-.625,1.806-.348.551-.588,1.171-.818,1.768-.122.316-.261.673-.419,1.019-.071.16-.139.322-.216.503l-.328.781-.33-.305c-1.048-.964-1.995-1.578-2.979-1.933-.752-.268-1.542-.459-2.306-.643l-.04-.01c-.343-.081-.682-.163-1.009-.249l-.191-.049-.039-.194c-.031-.158-.068-.306-.102-.446-.079-.321-.152-.62-.152-.934-.001-.405.084-.86.246-1.315Zm-13.231,8.695c.503-5.016,2.825-8.241,7.1-9.859l.1-.023c.167.015.312.008.465.001l.04-.003c.488-.024,1.074-.045,1.602.372.582.702.706,1.466.825,2.207.05.298.098.587.167.865l.064.258-.242.107c-.039.016-.076.038-.115.058l-.038.019c-.13.071-.313.172-.52.202-1.045.15-1.908.734-2.702,1.32-1.757,1.297-3.145,3.022-4.123,5.125-.073.155-.158.293-.257.454l-.025.04c-.043.069-.089.144-.137.227l-.295.504-.261-.523c-.293-.597-.731-.917-1.379-1.008l-.301-.041.031-.302Zm-8.162,7.275c.99-1.71,2.373-3.019,4.227-4.002.511-.271,1.198-.584,1.987-.603.034-.001.104-.031.173-.059.055-.024.113-.049.174-.07l.103-.036.103.036c.194.068.404.107.604.144.362.066.773.142,1.133.405.069.051.164.09.264.132.09.038.168.069.242.107.081.04.159.084.239.128.342.191.653.363,1.153.307l1.41-.179c.18-.315.41-.582.63-.821,1.221-1.335,2.3-2.311,3.398-3.073.876-.61,1.742-.885,2.702-.842.283.016.568.009.842.001h.145c.3-.008.617-.009.932.015,3.302.263,5.625,1.799,6.905,4.561.509,1.1.58,2.232.212,3.361-.402,1.233-1.287,2.058-2.706,2.519-1.189.385-2.439.514-3.677.375-1.886-.212-4.011-.45-5.922-1.483-.979-.531-1.905-1.184-2.831-1.997-.142-.123-.287-.243-.431-.365l-.372-.311.108-.221c.011-.023.018-.036-.081-.201-.078-.129-.174-.291-.182-.498.033-.371.145-.689.3-.97l-1.179.709c-.528.316-.539.657-.48,1.174.524,1.011,1.375,1.796,2.275,2.626l.038.035c.301.278.605.559.901.854l.3.3-.371.201c-.65.357-1.077.929-1.527,1.534-.201.269-.4.538-.618.787-1.031,1.186-2.404,1.768-3.608,2.182-1.197.412-2.37.622-3.485.622-.389,0-.776-.026-1.149-.076-1.968-.262-3.147-1.273-3.606-3.092-.353-1.41-.122-2.75.727-4.216Zm-34.774,75.229c-.079.114-.179.192-.277.266-.048.036-.089.069-.133.105l-.348.298-.351-.984c-.115-.32-.224-.619-.32-.924-.247-.79-.658-1.518-1.055-2.222-.227-.401-.483-.855-.702-1.317-.353-.749-.703-1.547-.985-2.186-.239-.545-.479-1.089-.726-1.631-.135-.295-.272-.5-.419-.629-.406-.353-.625-.805-.801-1.24-.253-.635-.495-1.276-.734-1.916l-.031-.085c-.362-.963-.737-1.959-1.157-2.91-.726-1.649-1.301-3.366-1.857-5.027l-.025-.075c-.202-.599-.402-1.198-.612-1.795-.59-1.696-1.161-3.383-1.696-5.015-.6-1.831-1.282-3.907-1.898-5.949-.609-2.025-1.162-3.996-1.643-5.858-.179-.697-.307-1.431-.419-2.078-.061-.356-.124-.711-.193-1.065-.055-.287-.118-.574-.18-.86-.105-.479-.204-.937-.278-1.396-.153-.944-.263-2.042.35-3.119l.099-.174.199.015c1.139.104,2.151-.276,3.217-.671l.099-.036c.224-.084.447-.167.673-.244.79-.273,1.569-.553,2.319-.833.536-.199,1.072-.401,1.607-.603l.734-.278c1.038-.392,2.074-.785,3.116-1.162,1.554-.565,3.127-1.107,4.676-1.612.901-.295,1.807-.575,2.712-.855l.197-.061c.98-.305,1.993-.619,2.98-.948,1.809-.603,3.633-1.238,5.398-1.852l1.933-.672c.074-.025.157-.065.253-.125.797-.505,1.677-.812,2.529-1.109.305-.105.592-.204.872-.312.719-.268,1.424-.627,2.044-.942.534-.272,1.082-.407,1.612-.538.187-.046.373-.093.558-.144,1.961-.546,3.879-1.093,5.787-1.776.452-.164.921-.281,1.375-.394l.04-.01c.385-.095.864-.213,1.298-.366.614-.213,1.226-.489,1.819-.756l.103-.046c.221-.099.441-.198.663-.295.046-.02.095-.049.143-.079.114-.07.242-.147.402-.177.625-.117,1.028-.457,1.266-1.07l.104-.274.282.088c.226.068.445.144.663.221.509.177.958.332,1.409.391.934.122,1.788.13,2.543.026,1.182-.163,2.304-.452,3.335-.862.353-.14.706-.286,1.08-.441l1.499-.617-.278.693c-.701,1.735-1.044,3.61-1.084,5.899l-.005.367-.362-.061c-.348-.061-.671-.18-.954-.286-.321-.118-.623-.228-.942-.269-.808-.103-1.499-.093-2.297.029-2.161.332-3.912,1.548-5.661,2.87-1.082.817-2.02,1.82-2.87,3.067-.995,1.458-1.668,3.007-2.059,4.736-.059.267-.069.556-.079.837-.014.424-.028.896-.219,1.347.189,2.088.637,4.459,2.488,6.278l.259.258c.358.357.717.714,1.104.994,1.154.831,2.519,1.109,3.578,1.26.711.102,1.438.118,2.207.135.217.004.434.009.654.016l.46.013-.179.425c-.638,1.5-.407,2.746.728,3.922.686.711,1.574,1.023,2.431,1.253.302.081.749.129,1.255-.058-.039-.036-.076-.071-.115-.107-.333-.307-.676-.622-.953-1.018-.36-.516-.723-1.095-.941-1.83l-.045-.147.091-.128c.909-1.243,2.169-1.885,3.854-1.963,1.42-.068,2.733.231,4.021.924,1.06.574,2.018,1.396,3.014,2.587.719.857,1.286,1.875,1.735,3.111.645,1.78.875,3.374.704,4.874-.083.712-.3,1.465-.684,2.369-.666,1.554-2.835,2.759-4.744,2.049-1.46-.545-3.141-1.29-4.531-2.668-.455-.454-.833-1.015-1.158-1.718-.247-.534-.534-.886-.905-1.109l-.123-.074-.025-.142c-.253-1.451-.861-2.701-1.86-3.824-1.372-1.543-3.207-2.424-4.968-3.193-1.084-.471-2.228-.807-3.215-1.085-1.088-.308-2.296-.432-3.815-.38-1.698.064-3.315.555-4.805,1.458-.896.545-1.835,1.176-2.787,1.875-1.663,1.222-2.775,2.564-3.399,4.102-.019.051-.046.094-.071.128-.129,1.491-.086,2.776,1.589,3.447h1.34l.758-.605c-.01-.175-.112-.326-.227-.496-.185-.277-.437-.65-.238-1.164l.038-.069c.674-.795,1.549-1.316,2.396-1.821l.249-.15c1.117-.668,2.37-1.208,3.724-1.605,1.114-.322,2.974-.363,4.236-.098.252.053.509.091.767.129.446.066.907.135,1.351.283,1.515.5,2.856,1.006,3.928,2.133.44.46.644.942.662,1.563.045,1.464-.474,2.764-1.634,4.09-1.062,1.217-2.488,1.732-3.865,2.23l-.095.034c-1.153.416-2.352.424-3.385.402h-.051c-.785-.02-1.751-.043-2.671.127-1.038.189-2.134.081-3.252-.317-.491-.177-1.005-.307-1.501-.432-.257-.065-.481-.122-.698-.182l-.123-.033-.065-.112c-.09-.15-.172-.302-.249-.447l-.021-.038c-.168-.313-.323-.602-.52-.823-.406-.461-.817-.805-1.221-1.023l-.385-.213c-.935-.514-1.886-1.038-2.923-1.183l-.075-.01c-1.148-.16-2.227-.312-3.384-.134-1.048.163-2.074.528-3.231,1.146-1.318.704-2.425,1.618-3.291,2.713-1.102,1.399-1.76,2.84-2.012,4.405-.167,1.042-.204,1.984-.114,2.881.261,2.571,1.151,4.671,2.643,6.244,1.181,1.246,2.593,1.882,4.197,1.895h.218c.652.016,1.267.023,1.862-.313l.363-.204.45,1.874h-1.742c-.838,0-1.666.168-2.467.33l-.063.013c-.249.05-.499.102-.748.147-.959.178-1.934.465-3.068.904-1.026.397-1.924,1.019-2.83,1.676-.948.687-1.674,1.407-2.218,2.201Zm43.241-52.195h0c.009.232.02.515-.164.78-.163,1.273-.608,2.462-1.038,3.61l-.031.083c-.093.251-.187.501-.277.752-.366,1.021-.838,2.008-1.296,2.962-.187.394-.375.786-.556,1.181-.046.105-.12.175-.191.243-.029.028-.059.056-.093.091l-.09.098h-.138c-.14,0-.277-.003-.41-.005-.279-.006-.534-.011-.782.01-.11.009-.221.013-.328.013-.836,0-1.605-.253-2.35-.499-.128-.043-.253-.084-.38-.124-.608-.194-1.148-.659-1.519-1.311l-.038-.064c-.382-.668-.778-1.359-.797-2.223-.004-.127-.033-.258-.07-.417-.043-.183-.083-.355-.086-.54-.028-.986.197-2.013.686-3.137.62-1.435,1.357-2.619,2.253-3.622.932-1.049,2.05-1.84,3.418-2.419.717-.306,1.451-.405,2.262-.296l.083.024c.1.053.178.094.261.138.243.127.48.253.713.411.838.57,1.039,1.5,1.117,2.151l.008.065c.063.526.134,1.122-.139,1.707-.039.085-.033.221-.026.341Zm-38.252,62.375c-.061.003-.119.004-.178.004-1.647,0-2.632-.751-3.008-2.296-.18-.739-.049-1.396.08-2.032.054-.259.105-.52.135-.775l.018-.069c1.316-2.957,2.97-4.811,5.213-5.863.516-.242,1.03-.486,1.545-.731.875-.415,1.748-.828,2.629-1.231.361-.167.738-.303,1.103-.435l.187-.066c.124-.045.249-.09.373-.138l.302-.117.108.308c.778,2.248,2.431,3.868,5.053,4.951l.411.168-.296.332c-1.684,1.884-2.685,4.092-3.369,5.805l-.118.291-1.539-.602c-1.379.34-2.751.797-4.078,1.24l-.064.021c-.855.285-1.74.579-2.621.84l-.081.025c-.589.173-1.189.35-1.806.368Zm180.428-88.268c.757,1.34,1.623,2.624,2.462,3.865.321.478.643.954.959,1.434.664,1.008,1.317,2.02,1.971,3.036l.058.089c.719,1.117,1.535,2.383,2.344,3.601.573.864,1.196,1.721,1.797,2.549l.164.226c.189.262.38.524.568.786l.622.867c.635.885,1.288,1.796,1.944,2.683.673.907,1.386,1.839,2.119,2.767l.595.753c.975,1.233,1.978,2.503,3.002,3.72.846,1.004,1.602,2.092,2.332,3.143l.336.484c.306.44.608.884.909,1.326.609.895,1.237,1.819,1.891,2.697.583.783,1.212,1.558,1.82,2.307l.039.048c.389.476.776.953,1.156,1.436l.197.251c.64.818,1.3,1.661,2.067,2.37.148.138.244.298.338.455.045.075.079.13.114.182l1.207,1.761c.925,1.352,1.852,2.707,2.792,4.052.633.904,1.275,1.801,1.919,2.697l.148.207c.523.729,1.045,1.458,1.562,2.192.979,1.392,1.978,2.848,2.859,4.132l1.019,1.481c.658.951,1.404,2.028,2.092,3.094.422.659.812,1.349,1.189,2.017l.11.196c.15.266.302.533.456.797l.105.182c.144.252.283.494.436.709.521.739.862,1.564,1.192,2.361l.462,1.112c.175.419.35.838.521,1.258.05.117.031.232.02.293l-.165.035h0l.16.009-.008.144-.326.247c.078,1.077-.351,2.007-1.342,2.919-.31.285-.617.573-.921.86-.565.53-1.151,1.079-1.747,1.602-.368.325-.803.569-1.253.811-1.776.956-3.736,1.75-6.358,2.574-1.795.564-3.675,1.278-5.745,2.182-2.315,1.011-4.717,1.909-7.141,2.666-.9.281-1.802.556-2.705.831l-.147.044c-.792.241-1.583.483-2.373.727l-.239.074c-1.39.43-2.816.871-4.21,1.329l-.707.233c-1.958.642-4.177,1.369-6.303,2.114-1.097.386-2.2.822-3.267,1.243-.454.18-.895.355-1.339.526l-.911.355c-1.756.682-3.509,1.365-5.263,2.052-1.699.666-3.398,1.336-5.093,2.01-.785.312-1.565.634-2.345.955-1.998.823-4.058,1.673-6.159,2.34-1.219.386-2.477.825-3.586,1.211l-.226.079c-.732.253-1.463.506-2.197.751-1.871.627-3.79,1.251-5.703,1.856-2.579.816-5.177,1.617-7.154,2.223-.92.282-1.841.559-2.762.833l-.194.058c-.561.167-1.124.335-1.686.505-.724.219-1.448.447-2.171.676-1.548.489-3.148.994-4.758,1.411-1.943.501-3.897,1.087-5.787,1.653l-.602.179c-.435.13-.87.259-1.305.389-1.144.338-2.285.692-3.551,1.085-.696.217-1.392.434-2.091.647-.995.303-1.992.607-2.987.907-1.45.436-2.899.875-4.344,1.321l-.228.07c-2.464.761-5.013,1.547-7.507,2.352-.83.268-1.663.561-2.469.846l-.078.026c-.94.331-1.913.672-2.881.974-1.558.486-3.14.93-4.669,1.359l-.167.046c-.45.127-.9.253-1.35.381-1.629.464-9.181,2.513-11.406,3.091-1.639.425-2.975.754-4.206,1.038-.589.135-1.189.249-1.77.36-.426.083-.848.163-1.272.252-.479.1-.959.208-1.436.316-.584.132-1.168.263-1.756.381-.439.09-.889.163-1.322.233-.32.051-.637.104-.954.162-.269.05-.541.097-.813.142-.613.105-1.247.213-1.86.365-.531.132-1.077.203-1.603.271l-.103.014c-.288.038-.575.075-.861.124-.648.109-1.332.243-2.157.421-.478.103-.953.212-1.428.321-.5.115-.999.229-1.5.337-.415.089-.831.17-1.247.253-.563.109-1.087.213-1.608.33-1.206.272-2.41.559-3.682.88-1.528.384-3.067.719-4.556,1.044l-.884.194c-1.243.271-2.529.551-3.806.78-.728.13-1.466.313-2.18.49l-.065.016c-.365.09-.728.18-1.093.264-.302.069-.603.14-.902.212-1.047.246-2.111.496-3.183.654-.494.071-.995.169-1.48.262-.479.093-.936.18-1.395.252-.165.025-.35.038-.579.038-.112,0-.223-.003-.333-.005-.47-.014-.944-.008-1.424-.006l-1.37.003h-1.057s-.09-.157-.09-.157c-.129-.219-.262-.439-.395-.658l-.058-.095c-.353-.58-.712-1.172-1.021-1.782-.608-1.196-1.356-2.329-2.069-3.385-.341-.506-.788-.976-1.182-1.391-1.202-1.265-2.302-2.741-3.475-4.66-1.691-2.759-3.633-5.378-5.481-7.798-.219-.287-.44-.573-.662-.859-.886-1.142-1.801-2.32-2.547-3.601-.107-.184-.216-.367-.326-.55l-.058-.099c-.204-.343-.412-.696-.607-1.052-.271-.499-.535-1-.798-1.501l-.055-.104c-.367-.699-.758-1.441-1.156-2.157-.506-.912-.994-1.851-1.468-2.76l-.029-.055c-.826-1.589-1.673-3.221-2.633-4.751-.493-.787-.911-1.631-1.316-2.445l-.035-.073c-.184-.367-.37-.741-.566-1.118l-.193-.37.409-.084c1.354-.278,2.705-.771,4.13-1.506.901-.461,1.793-.891,2.74-1.346l.035-.018c.422-.203.848-.409,1.281-.619l.498-.242-.267,3.275c.446.554.642,1.196.568,1.862-.142,1.248.454,2.378.931,3.285.525.996,1.222,1.898,2.075,2.68.995.911,2.094,1.504,3.266,1.761,1.197.263,2.475.298,3.803.095,2.722-.409,5.843-1.877,7.766-3.653.076-.068.152-.108.222-.144l.563-.328-.01.561c-.004.231-.013.459-.021.684-.02.501-.036.949-.005,1.392.1,1.421.342,3.058,1.366,4.433,1.253,1.682,2.702,2.672,4.428,3.027,2.732.556,5.219-.018,7.388-1.723,1.656-1.302,2.929-2.641,3.895-4.093.184-.274.343-.575.496-.867l.055-.102c.053-.1.105-.201.159-.297l.164-.295.281.182c.254.163.503.326.749.489.573.377,1.1.724,1.657,1.033.718.399,1.582.578,2.49.528,1.125-.076,2.253-.456,3.351-1.128,1.973-1.206,3.341-3.087,4.186-5.75.196-.618.331-1.268.4-1.93.015-.145.033-.291.05-.435.041-.345.085-.699.094-1.049.044-1.702-.394-3.31-.78-4.522-.411-1.288-.95-2.487-1.604-3.558-.044-.071-.078-.147-.119-.242l-.273-.605h1.686c.605-.337,1.088-.681,1.517-1.079,1.583-1.469,2.79-3.201,3.588-5.149.389-.951.693-1.981.961-2.891l.127-.424c.267-.894.461-1.837.579-2.805l.016-.128c.073-.588.14-1.138.113-1.694-.011-.228-.061-.47-.109-.703-.026-.127-.05-.238-.07-.35l-.056-.326,4.313-.54v1.043c.499,1.347,1.251,1.867,2.454,1.684.569-.238.91-.674,1.003-1.322l.015-.108.078-.074c.83-.796,1.877-1.297,2.795-1.703,1.172-.518,2.374-.96,3.395-1.326,1.706-.615,3.469-.854,5.235-.692.875.079,1.743.325,2.558.57,1.043.313,1.312,1.273,1.43,2.074.129.88-.084,1.756-.654,2.678-.948,1.529-2.26,2.786-3.899,3.735l-.148.085c-.678.394-1.38.801-2.144,1.033-1.085.331-2.255.632-3.573.308-.382-.093-.79-.162-1.183-.229l-.159-.028c-.244-.043-.489-.084-.731-.134-1.692-.342-2.752-1.293-3.241-2.909-.173-.572-.251-.674-.942-.724l-.62.742c-.046,2.586,1.209,4.365,3.836,5.441l.976.399-1.035.202c-.276.054-.545.104-.808.152l-.1.019c-.528.098-1.025.191-1.517.308-1.775.426-3.304.961-4.672,1.638-.445.219-.905.55-1.45,1.044-.827.746-.866.828-.856,2.024l.045.103c.045.104.091.212.152.29.134.174.295.341.449.501l.109.114h1.241c.832-.81,1.915-1.132,3.046-1.415,1.057-.263,2.309-.554,3.587-.716,1.273-.16,2.504-.222,3.648-.182,1.127.04,2.176.297,3.119.766,1.506.749,1.998,2.158,1.315,3.767-.99,2.331-2.807,3.945-5.557,4.934-.995.36-2.099.358-3.277-.004-1.268-.389-2.238-.841-3.052-1.421-1.073-.767-1.85-1.777-2.309-3.004-.384-1.029-.535-1.147-1.476-1.147-1.37.421-1.594,1.59-1.726,2.96l.01-.003c.038.125.107.36.105.608-.003,1.006.488,1.854,1.033,2.705.782,1.219,1.914,2.202,3.365,2.92,1.142.568,2.325.944,3.516,1.12.915.135,1.613.177,2.261.134,2.27-.15,4.153-.82,5.759-2.048,1.805-1.376,3.232-3.155,4.363-5.436.668-1.345.905-2.799.724-4.446-.083-.749-.417-1.527-1.053-2.444-.94-1.352-2.404-2.241-3.704-2.967l-.726-.409.813-.175c.194-.043.384-.081.57-.119l.123-.025c.505-.104.926-.192,1.355-.303,1.756-.466,3.314-1.287,4.628-2.438,1.51-1.326,2.774-2.962,3.755-4.862.887-1.717,1.092-3.474.609-5.223-.187-.672-.604-1.278-.92-1.669-.432-.535-.981-1.042-1.588-1.464-1.428-.994-2.817-1.574-4.251-1.775l-.198-.028c-.397-.058-.795-.114-1.181-.12-.805-.01-1.611-.009-2.419-.009l-.852.016-.459.37-.375-.857.587-.123.046-.039h.029s.086-.076.086-.076c.144-.127.286-.253.422-.386l.352-.342c.672-.648,1.355-1.307,1.857-2.075l.279-.427c.53-.806,1.078-1.638,1.506-2.507.495-.998.921-2.009,1.374-3.079l.033-.08c.188-.444.376-.891.573-1.341l.35-.81.61,2.141c.201.707.4,1.41.598,2.113.346,1.235.785,2.677,1.42,4.023.454.965.993,1.753,1.648,2.411,1.36,1.365,2.95,2.563,4.727,3.559,1.542.866,3.182,1.731,4.877,2.571.724.361,1.49.681,2.231.989.385.159.733.305,1.08.456l.835.353c.643.269,1.301.545,1.935.854,1.177.57,2.463.924,3.707,1.266l.075.021c1.401.385,2.759.786,3.9,1.128.558.167,1.117.332,1.676.496,1.441.426,2.931.865,4.4,1.339.666.216,1.325.47,1.964.717l.045.018c.619.239,1.258.486,1.896.691.76.246,1.547.464,2.307.674l.063.018c.739.203,1.479.407,2.2.634,1.161.365,2.324.782,3.448,1.184l1.545.554c2.381.852,4.844,1.735,7.23,2.712,1.003.41,2.073.728,3.108,1.035.34.1.657.196.973.293.654.201,1.311.389,1.968.577l.193.055c.608.173,1.213.346,1.817.528l.199.06c.796.244,1.547.467,2.399.444.224-.008.5.033.729.073.247.043.467.079.66.058.407-.046.833-.148,1.209-.238.318-.076.63-.15.94-.203.469-.08.934-.262,1.463-.572.519-.303.837-.683.973-1.162.221-.763.332-1.361.36-1.936.01-.229.045-.454.078-.672.04-.267.075-.501.075-.732-.003-.317-.04-.658-.069-.932-.03-.282-.06-.561-.069-.841-.015-.449-.016-.899-.016-1.347v-.099c-.001-.427-.003-.855-.018-1.282l-.02-.587c-.029-.894-.058-1.817-.17-2.713-.288-2.301-.727-4.511-1.302-6.569-.125-.446-.387-.884-.642-1.306l-.024-.041c-.531-.889-1.068-1.771-1.603-2.652-.727-1.197-1.46-2.403-2.163-3.598-.572-.969-1.133-1.965-1.674-2.928l-.103-.183c-.447-.792-.894-1.585-1.354-2.373-.42-.723-.856-1.439-1.291-2.154-.634-1.04-1.288-2.116-1.889-3.203-1.048-1.896-2.238-3.739-3.39-5.521l-.094-.143c-.533-.826-1.067-1.651-1.588-2.485-1.178-1.891-2.247-3.589-3.376-5.224-.434-.628-.862-1.258-1.29-1.887l-.069-.102c-.936-1.376-1.905-2.801-2.905-4.161-1.444-1.963-3.152-3.876-5.078-5.69-.262-.246-.588-.343-.934-.446-.134-.04-.271-.081-.41-.132l-.264.117c-.316.142-.644.288-.986.412-.199.074-.404.115-.602.154-.142.028-.258.051-.371.08-2.167.561-3.888,1.117-5.413,1.743-1.814.747-3.572,1.602-5.23,2.54-.209.12-.424.233-.638.345l-1.194.629c-1.146.605-2.571,1.359-3.943,2.045-.055.029-.119.081-.188.137-.187.153-.402.31-.677.318-.094.075-.211.085-.327.02l-.271-.137.093-.196.004-.149.1-.055.088-.173.035.009c.081-.158.174-.336.296-.499.742-1.003,1.361-2.173,1.946-3.687.293-.763.323-1.548.33-2.351v-.058c.006-.811.013-1.573-.303-2.297l-.159-.363.39-.071c.202-.039.405-.074.61-.109.441-.076.895-.154,1.325-.266,1.544-.395,2.624-1.453,3.212-3.146.475-1.369.545-2.602.218-3.767-.059-.206-.088-.42-.114-.609-.025-.184-.049-.358-.095-.521-.182-.638-.511-1.23-1.01-1.807-.276-.32-.514-.679-.767-1.06-.127-.191-.264-.397-.419-.619-2.433-2.225-6.185-2.929-8.897-1.646l-.239.112-1.616-2.262.405-.526c.196-.257.395-.519.602-.776.807-1,1.894-1.658,3.324-2.012,1.404-.346,2.923-.701,4.645-1.082.263-.058.516-.073.81-.089.17-.01.32-.019.479-.033l.217-.018.094.194c.008.016.019.033.03.051.09.142.208.33.232.559.193,1.855.671,3.731,1.459,5.735.323.821.714,1.646,1.163,2.45.688,1.238,1.27,2.263,1.971,3.244.541.754,1.203,1.464,1.914,2.05.966.791,1.869,1.394,2.762,1.844,1.473.738,2.708,1.204,3.89,1.468,1.06.238,2.226.431,3.562.592,1.767.217,3.522.167,5.466.088,1.248-.049,2.317-.198,3.27-.454.521-.14,1.063-.201,1.587-.258.348-.038.77-.084,1.156-.16l.288-.058c1.618-.317,3.291-.645,4.843-1.305,1.593-.674,2.78-1.419,3.736-2.341.207-.198.456-.389.763-.582.639-.406,1.036-1.019,1.458-1.668.18-.277.353-.544.543-.795.767-1.015,1.505-2.147,2.322-3.561.392-.677.658-1.444.916-2.237.222-.682.39-1.421.539-2.073l.089-.39c.064-.273.113-.549.162-.826l.009-.051c.039-.227.079-.455.127-.681.105-.508.183-1.034.258-1.544l.01-.069c.112-.756.223-1.505.411-2.237.125-.483.198-.994.268-1.489.045-.312.09-.623.147-.932.073-.4.154-.797.237-1.194l.019-.095c.095-.465.189-.93.269-1.399.085-.501.157-1.014.228-1.538l.021-.157c.044-.313.086-.627.135-.941.043-.282.098-.563.162-.88l.143-.731.143-.069c.025-.013.051-.029.081-.048l.04-.025c.154-.099.392-.251.666-.272.513-.039,1.013-.193,1.496-.342.365-.112.741-.227,1.129-.301.736-.138,1.534-.226,2.362.07,1.117.397,1.906.854,2.559,1.48.599.573,1.218,1.109,1.874,1.676l.039.034c.295.254.592.513.891.776l.114.1-.008.152c-.024.592.348.949.818,1.402.196.187.419.4.61.647l.074.095-.008.118c-.01.178-.011.36-.011.544-.003.457-.005.929-.137,1.43-.102.394-.123.811-.144,1.252l-.003.051c-.016.291-.031.59-.075.889-.029.198-.053.4-.075.6-.054.474-.11.964-.248,1.454-.075.269-.097.564-.115.848-.015.204-.03.41-.06.613-.147.954-.327,2.074-.568,3.161-.098.436-.16.906-.216,1.321-.044.328-.098.737-.173,1.125-.104.54-.194,1.083-.285,1.626-.206,1.242-.411,2.488-.768,3.692-.068.233-.107.489-.143.737l-.01.064c-.018.112-.035.226-.055.343l-.046.259h-.712c-.134-.001-.264-.003-.396.001-.459.018-.92.028-1.38.038-1.128.024-2.271.049-3.371.185-.264.033-.531.045-.79.058-.582.029-1.107.056-1.599.257-.467.191-.964.36-1.361.496-.328.113-.657.226-.98.348-.159.059-.317.115-.476.173-.523.188-1.063.382-1.537.649-1.263.708-2.373,1.395-3.391,2.102-1.038.718-2.078,1.633-3.276,2.879-.822.854-1.411,1.653-1.799,2.444-.589,1.202-1.183,2.641-1.122,4.204.015.385.13.739.251,1.115.04.123.079.239.113.357.366,1.233.768,2.545,1.291,3.835.508,1.253,1.207,2.505,2.267,4.059.691,1.013,1.544,2.187,2.637,3.217.223.211.419.444.609.669.168.202.321.385.48.545,2.077,2.108,4.522,3.774,7.268,4.953,2.504,1.075,4.796,1.83,7.006,2.306,1.181.254,2.554.543,3.905.728,2.005.273,3.643.384,5.151.326.811-.029,1.639-.154,2.439-.274l.602-.09c.569-.083,1.213-.178,1.825-.32,1.573-.362,3.106-1.018,4.686-2.004.968-.603,1.978-1.266,2.746-2.157.134-.155.272-.31.409-.465.634-.716,1.287-1.454,1.673-2.325.548-1.238.907-2.192,1.167-3.094.466-1.622.645-3.091.55-4.492-.095-1.416-.325-2.543-.724-3.547l-.267-.681c-.231-.583-.469-1.187-.731-1.762-.524-1.153-1.238-2.277-2.25-3.539-1.067-1.33-2.277-2.495-3.425-3.557-.599-.555-1.271-1.05-1.92-1.53-.199-.147-.399-.293-.595-.442-.351-.264-.706-.52-1.06-.777l-.188-.135c-.445-.322-.905-.654-1.347-.996-.907-.697-1.992-1.196-3.41-1.569-.5-.13-1.043-.203-1.522-.266-.158-.021-.317-.043-.475-.066-.01.006-.019.013-.029.018-.056.033-.117.066-.191.102l-.538.259.093-.593.011-.079-.358-.179.379.056c.368-2.315.828-4.504,1.271-6.552.153-.708.288-1.44.409-2.086.285-1.519.574-3.068,1.068-4.662l.217-.698,1.644,2.909Zm-2.169-17.437c.01.128.021.288-.025.455-.114.395-.17.81-.224,1.212-.038.281-.078.57-.137.859-.083.405-.094.836-.105,1.255-.014.592-.029,1.196-.231,1.799-.004.016-.003.071-.001.109.004.064.006.118.004.168-.081,1.651-.37,3.25-.684,4.879-.071.37-.153.738-.236,1.105-.152.679-.308,1.381-.387,2.087-.064.57-.133,1.139-.202,1.708-.06.493-.119.986-.175,1.48-.044.39-.055.796-.064,1.153-.013.485-.026.975-.103,1.459-.089.574-.105,1.168-.122,1.741-.011.442-.024.87-.063,1.293-.045.5-.102,1-.158,1.499l-.016.148c-.065.575-.13,1.153-.183,1.731-.05.577-.169,1.151-.283,1.705l-.015.073c-.075.367-.154.747-.209,1.118-.07.472-.123.961-.174,1.433l-.01.098c-.06.545-.122,1.109-.211,1.663l-.073.459c-.193,1.235-.394,2.512-.8,3.751-.291.885-.421,1.681-.397,2.431.015.5-.029.963-.134,1.414-.122.511.031.964.43,1.278h.609c.33-.194.432-.535.55-.929h.001l.011-.039c.026-.085.053-.169.08-.252.165-.48.283-.994.397-1.49.048-.211.094-.415.144-.617.006-.029.008-.073.009-.119l.053-1.278c.039-.953.079-1.921.137-2.875.031-.508.086-.99.155-1.568l.014-.114c.023-.197.046-.396.068-.598l.043-.407,1.592.605c.604.231,1.208.46,1.814.688l.479.182c.519.198,1.052.402,1.58.58,1.238.416,2.459,1.09,3.734,2.059,1.569,1.197,2.873,2.424,3.986,3.749.795.948,1.716,2.08,2.528,3.294.826,1.231,1.351,2.553,1.605,4.042.142.827.184,1.555.132,2.226-.162,2.06-.852,3.701-2.112,5.016-.122.128-.232.266-.352.421-.145.184-.296.373-.472.545-1.42,1.379-2.931,2.517-4.491,3.384-.792.44-1.657.637-2.493.827l-.269.061c-.516.119-1.038.183-1.542.244-.501.061-1.069.13-1.603.263-.203.051-.407.043-.592.038-.119-.004-.213-.006-.311-.006-.504,0-1.01.008-1.515.015-.5.008-1.006.015-1.515.015-.924,0-1.671-.025-2.351-.08-.332-.028-.664-.044-.996-.06-.981-.05-1.975-.102-2.962-.405-.491-.15-1.009-.269-1.51-.384-.65-.149-1.387-.317-2.079-.572-.045-.016-.091-.031-.139-.045-.104-.034-.204-.065-.3-.11-.356-.164-.713-.327-1.07-.488-.889-.405-1.778-.81-2.638-1.246-1.321-.669-2.495-1.511-3.488-2.503-.281-.279-.597-.56-.851-.785-.331-.295-.648-.577-.944-.879-.207-.209-.416-.419-.625-.628l-.158-.158c-.842-.837-1.795-1.785-2.598-2.795-1.597-2.007-2.439-3.76-2.733-5.686-.199-1.315-.233-2.311-.107-3.231.217-1.567.807-2.977,1.753-4.192.964-1.238,2.131-2.267,3.566-3.148,1.429-.877,3.029-1.539,4.894-2.024.633-.163,1.285-.242,1.914-.317.272-.033.514-.061.756-.095,1.924-.267,3.757-.371,5.609-.323l.353.008-.049.351c-.019.135-.034.264-.048.39l-.006.054c-.038.331-.07.608-.14.884-.103.402-.162.827-.219,1.238-.053.372-.098.694-.165,1.018-.045.222-.066.442-.088.708-.033.38-.066.772-.206,1.173-.093.262-.104.565-.118.886-.009.219-.018.486-.063.744-.117.684-.144,1.42-.169,2.069-.013.315-.025.629-.045.942l-.005.089c-.026.414-.054.841-.139,1.281-.145.761.172,1.481.892,2.03.316.241.681.435,1.067.64l.053.028c.144.078.291.157.437.239l2.464-.15c.494-.315.693-.723.905-1.154.023-.048.046-.095.069-.142l-3.715-1.702.061-.252c.115-.481.234-.953.353-1.42.268-1.054.521-2.049.702-3.076.098-.558.219-1.117.336-1.656.183-.85.371-1.72.471-2.588.127-1.095.279-1.965.483-2.738.112-.426.162-.88.212-1.318.045-.405.097-.864.203-1.303.155-.649.266-1.327.363-1.925.081-.504.174-1.074.295-1.632.175-.815.312-1.639.422-2.337.081-.519.189-1.024.311-1.584l.031-.145c.055-.263.112-.525.163-.791.086-.441.154-.9.211-1.296.143-.993.318-2.167.535-3.34.075-.417.123-.85.168-1.292l.005-.046c.055-.519.112-1.057.228-1.582.097-.431.15-.885.203-1.322.066-.555.138-1.166.301-1.755.07-.254.085-.531.102-.826.015-.259.028-.495.066-.734.105-.637.135-1.305.163-1.95.015-.343.029-.662.051-.979.05-.723.105-1.445.162-2.182l.104-1.38h1.816v.315c0,.046.004.094.008.142Zm-4.9-1.153l-.462,5.239-.493-.64c-.286-.371-.565-.742-.842-1.112l-.133-.178c-.746-.995-1.449-1.935-2.235-2.851-.914-1.065-2.065-1.771-3.425-2.094-.743-.178-1.629-.36-2.563-.36h-.088c-.595.009-1.296.055-1.969.341-.124.054-.242.04-.335.033-.045-.003-.076-.005-.11-.005h-.389l.08-.379c.191-.924.236-1.882.278-2.81.034-.744.068-1.489.169-2.226l.069-.514,1.71,1.203c.993.702,1.959,1.384,2.934,2.053.46.315.871.546,1.257.707,1.859.77,3.495,1.619,5.004,2.601.262.17.56.307.877.451l.085.04c.132.061.267.124.404.191l.193.098-.018.213Zm-7.903-66.696c.164-.257.279-.564.401-.889.063-.164.127-.335.199-.508l.059-.137.139-.043c.415-.128.825-.264,1.235-.4.922-.308,1.876-.627,2.87-.816.594-.114,1.191-.259,1.768-.4l.041-.01c.366-.09.732-.179,1.1-.262l.262-.058c.782-.173,1.568-.347,2.35-.475.474-.078.971-.137,1.371-.183.531-.063,1.043-.123,1.534-.213,1.643-.296,3.299-.231,4.905-.164.361.015.697.028,1.033.039l.604.015c.785.016,1.595.034,2.394.158,1.057.162,2.159-.015,3.242.191.437.081.89.113,1.327.142.4.028.815.056,1.232.124.223.035.447.073.673.11l.061.011c.702.118,1.426.241,2.148.313.451.045.899.157,1.293.256.396.098.807.199,1.211.241.974.095,1.915.331,2.827.558l.165.043c1.727.434,3.685.925,5.313,2.213.277.219.545.452.807.683l.46.397v1.38c0,.762.155,1.511.322,2.208.06.252.049.505.035.772l-.003.048c-.005.109-.011.224-.011.346l-.019.103c-.389.816-1.077,1.4-1.742,1.965l-.172.145c-1.38,1.178-3.013,2.185-5.139,3.168-1.934.894-3.755,1.515-5.566,1.899-1.425.302-2.91.449-4.54.449-.699,0-1.434-.028-2.185-.083-.934-.069-2.015-.169-3.041-.499-.191-.063-.407-.078-.637-.093-.223-.014-.437-.03-.655-.078-.46-.103-.956-.154-1.395-.201-.469-.049-1-.104-1.509-.221-.894-.204-1.834-.345-2.662-.467-1.626-.242-3.18-.612-4.618-.975-1.334-.34-3.077-.822-4.733-1.553-.843-.373-1.621-.891-2.311-1.539-.851-.801-1.475-1.456-2.022-2.123-.544-.663-.864-1.46-.976-2.435-.104-.909-.134-2.087.549-3.155Zm-3.543,7.713l.158.05-.137-.084.074-.122c.105-.172.211-.342.313-.515.103-.174.243-.311.367-.432.051-.05.098-.095.14-.142l.094-.102h1.263l.273.365c.222.298.422.565.628.828l.054.069c.113.147.238.312.376.436,1.434,1.292,3.008,2.626,4.809,3.633l.338.189c.855.481,1.727.971,2.641,1.33.945.37,1.959.592,2.853.787,1.384.303,2.744.59,4.17.756.46.053.925.152,1.336.239.524.11,1.034.217,1.53.252.361.026.721.064,1.08.1.852.088,1.614.157,2.391.128.462-.026.93.025,1.443.08l.055.005c.282.03.573.06.854.071.691.028,1.409.018,2.03.008l.229-.003c.762-.011,1.53-.133,2.274-.251l.509-.08c.33-.05.657-.105.985-.16.45-.075.872-.145,1.295-.206,1.016-.144,1.999-.484,2.949-.812l.558-.192c1.983-.669,3.88-1.718,5.637-3.118.756-.602,1.508-1.207,2.255-1.809l1.496-1.203.094.524c.05.286.103.575.155.866l.025.139c.129.709.291,1.592.419,2.449.061.414.1.835.138,1.241.061.648.123,1.302.269,1.913.093.384.102.762.109,1.129.01.461.019.895.193,1.291.036.083.035.159.031.211l.065,1.125c.043.702.084,1.405.114,2.108.014.297.013.598.01.897-.001.306-.003.613.013.92.011.228.038.459.063.688l.005.048c.036.307.081.692.078,1.065-.008,1.123-.117,2.277-.325,3.434-.083.455-.115.934-.145,1.396-.018.246-.034.483-.056.719-.015.17-.034.342-.051.515l-.019.177c-.039.361-.076.722-.103,1.082-.011.145-.016.291-.023.435l-.004.085c-.015.402-.031.86-.139,1.317-.085.355-.107.729-.129,1.125-.02.348-.038.668-.089.984l-.044.274c-.135.855-.272,1.723-.549,2.543-.357,1.06-.776,2.109-1.181,3.123l-.049.125c-.183.46-.366.92-.544,1.38-.618,1.614-1.392,3.177-2.142,4.69-.175.355-.348.702-.519,1.052-.886,1.811-2.064,3.47-3.206,4.996-.462.617-1.005,1.178-1.529,1.722l-.059.06c-.249.259-.5.519-.741.786-.558.614-1.11,1.232-1.663,1.85l-1.296,1.445c-.909,1.005-2.012,1.926-3.371,2.816-.152.099-.303.199-.454.3l-.264.175c-.282.188-.564.376-.85.559-.53.34-1.124.534-1.815.592-.6.049-1.221.157-1.767.252-.223.039-.446.076-.668.113-.09.014-.178.035-.264.055l-.081-.145.036.155c-.194.046-.395.093-.61.094l-.757.009c-.602.008-1.212.015-1.827.015-.743,0-1.391-.011-1.981-.035-.827-.033-1.648-.192-2.441-.345l-.162-.031c-.671-.129-1.346-.283-1.998-.431l-.125-.029c-.362-.083-.724-.165-1.088-.244-1.471-.318-2.933-.822-4.341-1.496-1.453-.693-3.145-1.56-4.684-2.74l-.376-.286c-.404-.302-.862-.644-1.26-1.029-1.415-1.37-2.782-2.735-4.064-4.059-.999-1.03-1.773-2.272-2.366-3.8-.538-1.385-.985-2.853-1.331-4.36-.194-.838-.338-1.698-.478-2.529l-.044-.261c-.035-.212-.07-.425-.108-.637l-.063-.361c-.152-.867-.325-1.851-.461-2.805-.06-.421-.104-.842-.147-1.265-.066-.632-.134-1.283-.259-1.911-.138-.696-.145-1.379-.153-2.04-.004-.323-.008-.648-.026-.971-.011-.17-.038-.35-.064-.523-.044-.278-.085-.551-.075-.835.044-1.297.104-2.681.321-4.059.04-.262.063-.54.081-.786.026-.313.05-.61.1-.907.285-1.711.633-3.386,1.035-4.979l.259-1.033c.263-1.058.593-2.375.942-3.613.229-.808.523-1.604.807-2.374l.153-.414c.079-.214.155-.429.233-.644l.075-.206c.351-.979.704-1.961,1.127-2.901.328-.724.749-1.412,1.156-2.077Zm-12.335-85.742l.041.219c.041.232.088.464.134.696.135.676.266,1.334.311,2.017.024.382.112.773.197,1.152.04.183.081.365.115.546.018.086.029.154.031.223l.185,3.14c.019.303.029.609.039.914.024.707.048,1.421.175,2.092.134.707.138,1.399.142,2.068v.229c.018,1.682.033,3.637,0,5.56-.024,1.464-.084,2.582-.194,3.625-.039.373-.076.748-.113,1.122-.079.807-.16,1.632-.264,2.44-.048.372-.059.761-.07,1.136-.014.499-.029.993-.118,1.478-.135.747-.132,1.518-.128,2.262v.064c.001.375.003.762-.015,1.147-.019.429-.031.859-.043,1.29-.03,1.026-.059,2.052-.177,3.058-.054.465-.076.94-.099,1.4-.016.36-.031.684-.056,1.009-.036.469-.127.946-.206,1.369-.031.165-.063.331-.091.498-.028.157-.059.313-.091.47-.051.254-.112.54-.138.812-.105,1.068-.332,2.132-.533,3.069-.071.337-.094.677-.114,1.005-.021.328-.044.701-.119,1.055-.14.664-.185,1.278-.139,1.875.043.543.142,1.125.301,1.785.333,1.374,1.31,2.279,2.316,3.052.282.217.569.43.855.642l.033.025c.583.434,1.186.884,1.751,1.366,1.104.942,1.852,2.161,2.577,3.338l.135.219c.968,1.569,1.638,3.284,2.286,4.941l.262.669c.17.432.348.864.528,1.292l.31.749c.069.169.139.337.211.506l.038.088c.214.506.434,1.028.61,1.559.149.451.252.968.322,1.623.029.276.024.549.019.813-.005.233-.01.449.004.655.026.42.084.87.175,1.376.098.533.207,1.064.318,1.611l.217,1.055-.053.099c-1.161,2.274-2.033,4.764-2.878,7.171l-.361,1.024c-.37,1.045-.763,2.102-1.144,3.123l-.053.143c-.415,1.112-.855,2.294-1.261,3.447-.538,1.53-.966,2.81-1.182,4.184-.104.668-.254,1.342-.387,1.938-.11.489-.216.968-.305,1.446-.068.373-.103.766-.135,1.144l-.01.099c-.018.202-.036.404-.06.604-.023.189-.054.379-.086.566l-.01.065c-.028.169-.055.338-.074.508-.01.095-.01.193-.01.29.001.291.003.619-.172.93.003.026.004.064,0,.098l-.05.773c-.044.699-.089,1.399-.145,2.096-.024.293-.058.587-.093.879-.03.251-.058.486-.079.723-.014.157-.011.313-.009.479.005.362.01.767-.16,1.162v6.698c.191.495.179,1.001.168,1.45-.004.187-.008.373.001.559.019.353.03.708.043,1.064l.005.152c.026.837.053,1.702.157,2.543.242,1.997.747,3.764,1.542,5.403.407.84.773,1.707,1.128,2.545.162.384.325.768.491,1.153l.061.14-.133.226-.038.592c-.055.831-.118,1.773-.157,2.698-.024.572-.036,1.143-.048,1.713l-.003.147c-.024,1.202-.049,2.446-.179,3.673-.119,1.114-.117,2.253-.114,3.355.001.731.003,1.486-.031,2.235-.018.395-.05.79-.083,1.179l-.055.678-.155.08c-1.073.559-2.178.85-3.247,1.132l-.372.098c-1.251.335-2.494.604-3.974.906-.237.049-.472.068-.681.085-.238.019-.486.039-.721.098-.358.088-.738.11-1.043.129-.303.02-.579.038-.831.089-1.193.243-2.389.213-3.554.184h-.048c-.498-.014-1.006-.031-1.515-.02h-.009c-.35,0-.655-.069-.953-.134-.142-.033-.281-.063-.422-.088l-.261-.046v-.264c0-.366-.01-.729-.02-1.089-.023-.826-.046-1.678.055-2.514.05-.405.059-.822.068-1.227.01-.462.02-.978.099-1.475.091-.589.095-1.204.099-1.748.005-.579.01-1.173.098-1.758.07-.462.076-.942.083-1.407.005-.501.01-.985.078-1.465.133-.955.133-1.926.133-2.866v-.041c.001-.758.003-1.542.073-2.315.029-.326.039-.663.049-.989.016-.555.034-1.102.128-1.637.085-.478.099-.971.113-1.448.01-.376.02-.706.053-1.039.213-2.225.183-4.484.154-6.67v-.044c-.018-1.39-.036-2.827.009-4.242.019-.622.05-1.243.081-1.862.035-.693.071-1.405.09-2.103.021-.925.02-1.866.019-2.777v-3.799s.736.001.736.001c.29.003.565.004.84-.003l.48-.014c2.042-.054,4.083-.109,6.124-.177.302-.011.618-.089.887-.163l.397-.109c1.214-.333,2.472-.677,3.503-1.455.074-.055.145-.137.227-.231l-.338-.455c-.232.064-.459.129-.684.193l-.053.015c-.783.222-1.436.406-2.116.572-1.534.379-2.824.414-4.054.11-.039-.008-.135-.001-.219-.01l-.897-.054c-1.641-.104-3.329-.209-5.063-.093l-.737.327h-.986l-.637.407c-.575.726-.701,1.647-.787,2.604-.025.278-.063.554-.1.828-.028.197-.055.395-.076.593-.015.134-.013.272-.008.439.009.336.019.714-.182,1.097-.02.039-.008.188,0,.267.005.075.01.148.01.218,0,.737-.011,1.473-.024,2.21-.026,1.639-.054,3.32.053,4.959.182,2.815.164,5.657.147,8.406v.18c-.009,1.208-.016,2.458-.005,3.683.034,3.893.06,8.043-.021,12.206l-.004.234c-.025,1.322-.051,2.688-.198,4.027-.13,1.193-.125,2.409-.12,3.583.003.595.005,1.211-.01,1.817-.02.797.252,1.387.854,1.854l.15-.005c.177-.004.375-.008.539-.053.321-.091.607-.019.836.04.066.018.11.03.155.038,1.569.335,2.998.432,4.374.306.242-.024.485-.044.727-.064l.18-.015c.939-.075,1.909-.154,2.851-.367,1.407-.321,2.841-.723,4.383-1.233,1.485-.49,2.742-1.089,3.84-1.831.13-.09.271-.144.432-.206.094-.036.182-.07.281-.113l.489-.212-.051.531c-.021.234-.016.465-.011.688.01.476.02.9-.157,1.347-.013.03-.02.059-.023.084-.02.248-.038.5-.055.752-.038.521-.075,1.058-.148,1.585-.031.223-.05.447-.069.673l-.005.061c-.046.539-.091,1.077-.261,1.605-.004.013-.006.04-.009.061l-.056.841c-.043.63-.085,1.262-.137,1.893-.023.261-.053.519-.083.778l-.008.07c-.033.278-.065.555-.083.835-.009.127-.015.249-.021.373-.02.412-.041.837-.144,1.281-.078.335-.097.694-.115,1.042-.019.336-.039.716-.115,1.08-.048.227-.064.462-.08.691-.031.416-.063.847-.251,1.268,0,.055-.001.083-.004.108l-.226,2.701-.34-.059c-.065-.011-.13-.026-.194-.04-.124-.029-.227-.044-.3-.044h-.006c-.084.005-.203.055-.318.104l-.07.031c-2.05.86-3.915,2.012-5.469,3.025-.773.506-1.646.84-2.665,1.019-1.067.188-2.206.371-3.389.371-.337,0-.667-.015-.979-.046-1.559-.149-3.208-.139-4.533-.133-1.094.003-2.218.009-3.334-.045-.756-.036-1.499-.228-2.154-.399-1.834-.471-3.584-1.168-5.057-1.787-.202-.085-.409-.165-.613-.246l-.039-.015c-.642-.247-1.306-.503-1.905-.924l-.142-.099c-.247-.172-.479-.332-.682-.536l-.331-.327c-.52-.515-1.045-1.034-1.499-1.605-.828-1.043-1.199-2.317-1.508-3.533-.158-.622-.223-1.263-.286-1.885-.034-.326-.068-.652-.114-.973-.041-.297-.094-.59-.147-.885l-.015-.086c-.051-.288-.103-.578-.148-.867-.091-.599-.159-1.188-.217-1.694-.03-.269-.055-.539-.08-.81l-.009-.081c-.033-.356-.066-.711-.114-1.064-.258-1.919-.34-3.863-.4-5.689-.01-.295-.035-.592-.061-.89-.036-.424-.073-.846-.07-1.271.004-1.148.182-2.246.337-3.074.075-.396.109-.816.14-1.222.019-.238.039-.478.065-.714.018-.16.048-.321.076-.481.046-.252.09-.486.085-.711-.011-.435-.046-.882-.081-1.313-.033-.402-.064-.796-.078-1.188-.013-.33,0-.669.01-.97.019-.545.036-1.048-.051-1.53-.129-.711-.13-1.434-.132-2.073-.001-.313-.003-.627-.015-.941-.025-.57-.036-1.144-.048-1.718-.023-1.12-.045-2.277-.174-3.404-.183-1.613-.213-3.152-.09-4.576.114-1.31.214-2.853.094-4.37-.081-1.036-.083-2.084-.084-3.098v-.048c0-1.107,0-2.252-.105-3.363-.18-1.896-.211-3.894-.097-6.288.028-.587.038-1.172.045-1.824.014-1.016.029-2.053.139-3.068.054-.493.06-1.006.066-1.459.008-.525.015-1.122.094-1.698.128-.951.127-1.93.125-2.876-.003-.754-.005-1.612.073-2.44.035-.384.043-.78.05-1.163.013-.627.026-1.235.138-1.829.054-.287.061-.598.069-.899.011-.554.024-1.099.258-1.641-.009.011-.01-.013-.011-.031-.003-.045-.004-.09-.001-.134.018-.301.03-.607.041-.91l.003-.054c.028-.694.058-1.412.168-2.116.046-.302.083-.608.119-.914.081-.688.167-1.399.379-2.101.08-.261.109-.539.142-.833.019-.182.039-.357.068-.531.137-.816.281-1.633.431-2.445.074-.402.15-.803.228-1.204l.026-.139c.076-.392.152-.782.223-1.174.053-.29.1-.58.148-.872.081-.496.164-1,.271-1.494.296-1.375.579-2.587.865-3.706.546-2.126,1.113-4.196,2.032-6.161l.06-.129c.584-1.248,1.188-2.54,2.147-3.625.114-.13.227-.264.34-.399.332-.396.657-.783,1.055-1.088,1.544-1.177,2.682-2.641,3.383-4.35.395-.969.64-1.969.828-2.821.377-1.71.355-3.48.332-5.191l-.003-.203c-.01-.703-.165-1.42-.312-2.038-.049-.208-.046-.422-.044-.595v-.107s.001-3.919.001-3.919c-.001-4.383-.003-8.914.041-13.377.008-.83.038-1.711.3-2.566.009-.028.018-.078.014-.16-.029-.815.038-1.613.103-2.386l.011-.132c.025-.311.05-.622.069-.934.071-1.208.189-2.378.346-3.76.044-.385.036-.788.029-1.179-.008-.415-.015-.845.034-1.276.119-1.03.132-2.084.144-3.106v-.094l.041-.073c.143-.248.142-.548.14-.866-.001-.35-.003-.746.192-1.13.055-.109,0-.407-.021-.519-.254-1.425-.248-2.525.021-3.68.148-.638.372-1.356,1.158-1.801.157-.088.29-.295.43-.513.084-.134.163-.258.251-.371l.153-.199.228.105c1.114.511,2.369.778,3.775,1.049,1.099.211,2.131.016,3.221-.192,1.313-.252,2.855-.58,4.324-1.104l.071-.026c.867-.31,1.756-.628,2.547-1.226l.109-.081,1.921.313Z" stroke-width="0"/>
      <polygon points="83.639 308.145 83.565 308.138 83.49 308.189 83.49 308.189 83.639 308.145" stroke-width="0"/>
      <polygon points="178.359 148.592 178.356 148.59 178.357 148.592 178.359 148.592" stroke-width="0"/>
    </g>
  </g>
</svg>