<?xml version="1.0" encoding="UTF-8"?>
<svg id="Layer_2" data-name="Layer 2" xmlns="http://www.w3.org/2000/svg" viewBox="0 0 108.9111345 87.7544053">
  <g id="Layer_1-2" data-name="Layer 1">
    <g>
      <path d="m100.5324175,28.2418267c-.7457798-.1181247-1.4213089.2273385-2.1420077.1977963-.2482641-.0101839-.4887604.1793709-.7683922.1578288-.2353506-.0181291-.4565699.0433475-.6860398.1407093-.2063089.087529-.4963308-.0260195-.7061396.0576796-.4026009.1606272-.8129147.137878-1.2238869.1716671-.2615507.0214982-.4840317.2022957-.769237.1716012-.2315874-.0249221-.4811462-.0323186-.6828032.1416421-.0192989.0166586-.0571508.0202691-.0850404.0172951-.60112-.064297-1.1554244.2439203-1.7583109.2128966-.2527076-.0130043-.5099684.1130657-.7687213.1525283-.2604864.039748-.541369-.0426122-.7775754.1388766-.0220528.0169549-.0540458.0280936-.0819465.0292349-.2693844.0109741-.5391088.0304969-.8082738.024944-.2451153-.0050481-.4232493.184408-.6805759.1778894-.4088656-.0103815-.83364-.0630679-1.221144.1576203-.0692305.0394188-.1768503.0091194-.266433.0154844-.3220478.0228919-.6459168-.0252842-.9569821.1515517-.1381866.0785413-.3529546.01566-.5317908.0307822-.2917005.0247026-.5945481-.0491747-.869879.1365282-.0857975.0578552-.2314996.029169-.3500142.0358083-.5294978.0296848-1.0590613-.0150783-1.5839181.1595737-.2712385.0902726-.5940872.0273803-.8936434.0299811-.2995232.0026009-.5990793.0005707-.8687489.0005707-.1074224.0612901-.1854301.1058008-.3260743.1860541-1.2850971,0-2.6324358.0032044-3.9797416-.0008231-1.6477396-.0049383-3.2954573-.0141785-4.943164-.0262829-.2339792-.001712-.4616936.014815-.6971539-.0997541-.1717157-.0835674-.4073296-.0445547-.6144833-.0451911-4.1343417-.012675-8.2686943-.0203569-12.403003-.0391774-.3486977-.0015912-.7066663.0821956-1.0502622-.1237544-.1328106-.0796058-.3515941-.0162196-.5311983-.0171524-1.977259-.0102937-3.9545839-.014804-5.9317441-.0348865-.4392568-.0044664-.8861717.0744699-1.3171121-.131941-.1464811-.0701791-.3542273-.0120385-.5339741-.0132237-1.4080333-.009317-2.8161982-.0102498-4.2239902-.0338879-.3787268-.006365-.7703451.0829968-1.1379797-.1329945-.1117671-.0656687-.2936863-.0118959-.4434699-.0128287-.9586607-.0059809-1.9177932.0040714-2.8758066-.0238905-.5882833-.0171744-1.1881196.0877375-1.7641697-.1465255-.128773-.0523682-.296495-.0083951-.4462896-.0095803-.8388076-.0066503-1.6780759.0006365-2.5162472-.0261841-.4388289-.0140468-.8902312.0809885-1.3164319-.1419713-.1179661-.0617071-.2947286-.0106119-.4445122-.0119178-.8088498-.0070124-1.6181164-.0012949-2.4263573-.0274242-.3492078-.0112923-.7120862.0803849-1.0495271-.1351454-.1072469-.0685-.2922875-.0159453-.4417364-.0174268-.6291029-.0062552-1.2587435.0019314-1.8871387-.0223432-.4990517-.0192814-1.0093218.0823273-1.4949444-.1472608-.1225851-.057954-.2955131-.0083183-.4452911-.0099535-1.0774387-.0116983-2.1548829-.0238795-3.2083048-.0356437-.1024194-.0560225-.1809976-.0990079-.277602-.1518589h-2.2464678c-.0867191.1400399-.1770807.2859618-.274903.4439223.28667.2401781.6001106.4608663.860032.7327265.2432392.2544334.4297609.5631005.6827867.9038339-.0064677.258812.2798841.5115554.2194913.8567113-.0047397.027084-.0313896.050338-.055708.0873096-.6760118-.4332995-1.2719093-1.0372125-2.1688003-1.0855313-.0928193.265605-.1775196.5079889-.2654949.7597336.1925671.2831635.1401944.6195401.1750236.9268574.0980856.1954588.2209505.3714497.2784523.566711.2572718.8736443.8832149,1.4705449,1.5547777,2.0043667.3599161.2860826.8336509.4276807,1.3118458.4560158.8513426.0504587,1.6483156-.0976361,2.3161536-.6793487.5480781-.2274372.6605474-.7994597.990577-1.2495604-.0366998-.6457791.1709696-1.3349385-.1532451-1.9905833.0274837-.6586845-.2863628-1.252271-.3771249-1.8697699.1454608-.2247815.2898518-.4143144.5196398-.5102166.0509354-.0212677.1183171-.0031166.2475126-.0031166.1668662.1245884.3778107.2793335.4890457.5352265.1981955.4559828.4592524.8806677.5918765,1.3715919.053799.1991351.1046137.3927723.1322181.5975371.0231335.1716342.080981.3385824.1582755.6461083v.8220114c-.0247079.0476823-.1060948.1453733-.127418.2547626-.3216967,1.6502889-1.2294878,2.3874489-2.2926909,2.9455453-.4130074.2167924-.8616503.3656664-1.2502241.5272373-.3897367.087134-.7641791-.0500965-1.091987.1743667-.0625927.0428537-.1940976.0502392-.2593289.0132128-.3585775-.2035687-.7555774-.1191672-1.0974892-.1698344-.1383457-.063013-.2433653-.117576-.3532344-.1594091-.1912066-.0727909-.4235071-.0916114-.5716395-.2140818-.5892104-.4870613-1.2416608-.8861327-1.6759475-1.5697503-.7501136-1.1807312-.8318681-1.2596895-1.1558468-2.7203906-.2306822-.3516745-.1444185-.7454344-.1502882-1.1051529.2288445-.4298646.1713536-.9448.5204682-1.3155035.3363108-.3571066.7146097-.6096525,1.2045495-.6739824-.0719843-.3356524-.4066274-.3080416-.6307871-.4998681-.4435247,0-.9225205.0145077-1.4002051-.004236-.4394378-.0172402-.8974779.0941025-1.3102878-.1553706-.4193709-.0066174-.8395591.0006255-1.2578548-.0241539-.3498003-.02073-.7083175.073164-1.0492089-.1381414-.1318286-.0817128-.3515722-.0145735-.5301231-.029202-.4387795-.0359729-.8877187.0614218-1.3147148-.1574667-.1441935-.0739212-.3544851-.0116983-.5333049-.0267108-.3501569-.0294324-.7076976.0505904-1.0469652-.151837-.1349884-.0805386-.3525322-.0167025-.5315385-.0307493-.2921284-.0229138-.5949705.0503709-.8700929-.1371427-.0854574-.0582503-.2311211-.0291142-.3493614-.0380909-.3220807-.0244831-.6614141.0525218-.9509697-.1652912-.0196994-.014815-.0586429-.0029849-.0884636-.0055309-.4099024-.0347329-.8145934-.0141675-1.2259934-.1578288-.3475786-.1213511-.7505854-.0450814-1.1257683-.1865589-.2934395-.1106623-.6597026.0497015-.9450889-.1829704-.6379405.0311005-1.1905663-.290955-1.8216002-.4400375-.1725495-.1644791-.3902688-.3316468-.5579744-.539232-.5707508-.7065424-.4503435-1.0782445-.0150639-1.6612849.0883264-.1183113.213029-.2094508.3000114-.2929852.3263651-.8037066.781569-1.4792034,1.3459618-2.1005981.3986676-.4389292.7516661-.9205693,1.1900726-1.3253362.7663625-.7075739,1.4987789-1.4575187,2.3095871-2.1099151,1.0120592-.8143405,1.9977813-1.6618665,3.0543192-2.4250131.6205122-.4481913,1.2066835-.9542487,1.824195-1.4137652.8756281-.6515734,1.7353145-1.323756,2.6181948-1.9668464.8837799-.6437598,1.7913297-1.2517552,2.6967181-1.8591909.8515784-.5713421,1.7388144-1.0966809,2.6795312-1.5275112.9086524-.416136,1.7722063-.9320043,2.6855381-1.3363542.9346879-.4138315,1.87682-.8143405,2.832118-1.1847696.5984484-.2320573,1.2196025-.4123061,1.798538-.6941966.5537339-.2696215,1.1560882-.4053486,1.7200037-.6587394.4981411-.2238377,1.0417537-.3707364,1.5688432-.5384858.503369-.1601773.974959-.3964047,1.4755906-.5579427.4997045-.1612527,1.0151752-.282505,1.4990807-.4813329.462681-.1901035.951244-.287608,1.4235361-.4272857.4725335-.1397546.9280611-.342149,1.4296802-.4177602.4830333-.0728019.9443319-.2840194,1.4272225-.4036037.3654732-.090503.7344243-.1976207,1.1018504-.2697312.3441554-.0675453.6607065-.2844913,1.0338158-.2114261.0536509.0105241.1199848-.0050481.1714743-.028346.3765105-.170438.7843229-.2509217,1.1825022-.3000196.4099408-.0505575.7860673-.2455883,1.2140673-.2217527.2223384.0123897.4198481-.2189762.6764177-.1569948.2830549.0684013.4926773-.1842104.7664831-.1778894.2364258.0054431.4818813.0186998.67938-.1574996.4847997.0643299.914599-.2399037,1.3942091-.2084741.2447862.0160331.42066-.2065536.6784804-.177198.2029297.0231004.4092057.0005048.5991342-.1270685.0869056-.058382.2307865-.0508428.3468544-.04315.30423.0201593.5747225-.0929831.858688-.1706026.2511387-.0686317.5388016.0341074.7748325-.1519577.0407373-.032121.1150367-.038925.1707502-.032132.6016357.0733945,1.1580686-.2397282,1.7552059-.201747.2996439.0190619.5419614-.2085289.8588416-.1778565.2870815.0277863.5914431.0398687.8622538-.1493459.0820672-.0573284.2339134-.0116105.3534264-.019018.3809321-.0236381.7647935.0229906,1.1339092-.1584214.1447147-.0711228.3536019-.0116325.5850028-.0116325.1464921.1310741.3207531.2869934.4791054.4286904v.5243621c-.1250976.1308326-.2674534.2797176-.395228.4133706-.3802847.0357205-.6803894.2890126-1.0509534.2458517-.2868949.2491768-.7105063.0721105-.9977523.3201789-.3916951-.0273364-.7465369.1585202-1.1230035.1977524-.3537336.0368948-.6611453.2483647-1.0373157.212293-.1885241-.0180852-.3868018.1236885-.5862974.14928-.379418.048637-.7307817.2521398-1.1268106.1995522-.3170228.2263508-.6878501.1456147-1.0381606.1820047-.3440457.2962555-.8297012.0385299-1.1847075.3018193-.0422295.0313199-.1157608.0374435-.1717595.0305847-.6018441-.0737456-1.1578053.2219283-1.7557216.2115139-.2554286-.0044555-.5108022.1141631-.7698075.1527039-.2319933.0345244-.4760334-.0237588-.6920302.1273648-.0656318.0459045-.173131.0592379-.2563282.0483407-.6036325-.0791119-1.157136.2608861-1.7566103.2035138-.3826217.2100763-.8070998.1511676-1.2164701.1893573-.3413906.2952898-.8346384.0354791-1.1782891.3224945-.4551765-.061323-.8547821.214828-1.3070512.210186-.2251361-.0023155-.4500418.1459329-.6774929.1535709-.3037472.010162-.5408094.2171436-.8574811.2071352-.2828794-.0089219-.5694561.1104209-.8549467.1705697-.28571.0601707-.5462623.2339339-.8550674.1895109-.6506017.3502149-1.3941488.412361-2.079651.6697574-.6510076.244436-1.3319401.4303474-1.9936286.6568299-1.2985757.444482-2.5788343.9383363-3.8505901,1.4578699-1.0313472.4213048-2.0550089.8566345-3.0557894,1.3431032-1.0056903.4888391-2.0033329.9958294-2.9892195,1.5234289-1.0127669.5420084-1.9631825,1.1892909-2.9174546,1.826609-1.1540201.7707186-2.2885547,1.5692236-3.3664048,2.4465112-.4113836.3348293-.8591433.6246101-1.2765777.952438-.4198756.3297264-.8115762.695722-1.2354893,1.0198296-.6590223.5038626-1.2922286,1.0385623-1.9367301,1.5588311-.5588905.4511762-1.034145.9925371-1.6006936,1.4204264-.7693303.5810212-1.4110724,1.2862357-2.0774896,1.9664733-.6223445.6352549-1.1890742,1.325029-1.7903368,2.002117.1252347.230488.1639752.5038407.433014.6853295.2529654.0434243.5651498.0390896.8222021.1560181.3107581.1413568.6523242-.0052456.949686.1874039.2460698.1593981.5991122.0043128.837107.2362713.4276105-.0754466.8009448.174663,1.2147915.2008251.4384284.0277095.8536246.2371822,1.3055481.1885452.3427401.3040142.8286479.036357,1.1871377.2967493.062653.0455094.1728293.0463324.2577216.0371252.601696-.0652627,1.1563406.2691167,1.7570382.2020323.4406502.2304551.9260588.1505201,1.3653266.1852859.1050525.0599732.1827585.1043303.3049541.1740814.2849804,0,.6163924-.0224639.9432731.0064088.3187618.0281375.6101057.193692.9500645.172984.3191019-.019435.6312753.0137724.9567681.1312716.320413.1156446.7107916.0300799,1.0695008.0501185.1689179.0094377.3355702.0594464.5668175.1030463.0600363-.0683793.1752046-.1703612.2549458-.2950264.593023-.9271647,1.429938-1.5565266,2.3998775-2.0481422.7075659-.358632,1.4242273-.677505,2.182021-.9178807.2682598-.0850818.5491807-.0154185.7822822-.1183881.2287128-.1010271.446679-.1310302.6850743-.1484789.5142034-.037641.9923763.0878802,1.4633628.2713334.1354712.0527632.2771358.0896361.4288338.1378999q.5300134.4807842.9765882,1.3657976v1.7725398c-.1047234.2344387-.2086404.4670776-.3130621.7008468.0764936.0256903.1301061.0551775.186061.0606536.4677444.045685.9563677-.083743,1.3992067.1693845.3594388.0059479.7195743.0000329,1.0781409.0209385.409107.0238686.8335028-.0936526,1.2237717.1483911.0872951.054146.2348459.0113472.3546662.0127189.5092498.0058272,1.0187793.0031276,1.5276506.0202362.3212688.0107985.6546282-.0750076.9573112.1380207.0817051.057526.2325419.0194241.3516929.0206751.6290974.0066722,1.2585789.0002634,1.8871497.0214543.4691433.0158356.9468224-.0821518,1.4050051.1437381.1451316.0715728.3540737.014793.5338096.0148479,1.1676248.0003621,2.3352605.0001866,3.4357285.0001866.1455266.0834247.2234794.1281111.3502227.2007703,1.5084668,0,3.0662507-.004664,4.6239798.0041482.291097.0016461.5829182-.0429854.8743773.1143606.1644415.0887691.4078343.0375313.6157122.038497,2.0072333.0094048,4.0145214.0109521,6.0216559.0291581.3791327.0034349.7636415-.0641763,1.1387806.1331591.1647926.086706.4118499.0181182.621549.0181291,5.0031784.0002085,10.0063677.0001646,15.0626812.0001646.0630974-.0295531.1688521-.07909.3778929-.1770005,1.1517051,0,2.4089125.0018656,3.66612-.001679.2343083-.0006694.4675744.0273693.6939173-.1096856.113731-.0688622.2883322-.0390676.435691-.0500417.5578043-.0415148,1.1282369.0747113,1.6719538-.1634585.1269408-.0556055.2966377-.008044.4457629-.0195228.4388838-.0337672.8919098.0668978,1.3119884-.1632829.0933679-.0511501.2366014-.0044884.3552916-.0174926.3488951-.0382336.7039234.0438084,1.0477716-.1479302.1625215-.0906127.4113562-.0197643.620035-.0357644.2623955-.0201264.5427953.053729.7762807-.1372525.0207691-.0169769.0548358-.0237149.0830656-.0246477.2994025-.0098876.6008567.0006914.8977248-.0314955.2592466-.0280936.5110217-.1236227.7702354-.1537135.4079769-.047364.8206716.0211031,1.2244574-.1624489.2009877-.091359.4725884-.0241978.7119326-.0352596.2050911-.0094487.4194312.0311114.6013614-.1170383.0409129-.0333392.1105164-.0392542.1679305-.0431939.3851451-.0264804.7926722.0208178,1.1496863-.0923576.3590987-.1138448.7076757-.0942891,1.0571742-.09644.3344785-.0020631.6069788-.2244633.9501688-.1860321.2949919.0330209.6272213.0704424.8909663-.0302994.4370296-.1669812.8742018-.1440015,1.3143473-.1525613.272599-.0053114.4793797-.2185043.7698295-.1781089.2635146.0366533.5693903.0709911.800835-.0263158.4935879-.2075303.9972586-.1121329,1.4943026-.1627342.319656-.032571.6057939-.2144439.9498616-.1721829.2943995.0361595.602261.026623.8963643-.0162855.3168143-.0462117.6130241-.190312.950838-.1599688.2968461.0266779.5985527-.0022716.8981307-.0038848.3294207-.0017778.6588742-.000406.9648377-.000406.2048168.1162811.3931763.2048417.5597134.323954.1191949.0852464.2091615.2114041.3141812.3213971,0,.2170448,0,.4255847.0000549.6341466-.1051074.3397457-.4728846.3207167-.6671248.5276544Zm-79.7194197-.7613029c.7225366.0804617,1.3440856-.0053224,1.9516953.1880514.3276487.1042754.714659.0570431,1.0706967.0275558.3958424-.0327795.7526535.1275075,1.128994.1612308.4444793.0398578.8952562.0093609,1.3558417.0093609.10062-.1778455.2004721-.3543412.2813214-.4972453v-1.3110261c-.1014978-.1948882-.1695049-.3254575-.2374517-.4560487-.1559057-.0810324-.3118168-.1620538-.485266-.2521947-.3434149,0-.7026671.0123348-1.0607126-.0031934-.4238418-.0183815-.7882178.2277116-1.2011758.246565-.9335853.4366356-1.8632921.8806347-2.6488877,1.5661069-.0579078.0505245-.0742664.1486984-.1550554.3208374Z" stroke-width="0"/>
      <path d="m2.1446498,44.0542722c.0747162.1308656.1192772.208913.1911408.3347964v1.1940537c.5088767.1168407.5230849.1442429.8653807.0078684.1775196-.0707278.3433106-.0860475.5194423-.0868157.7487092-.0032703,1.4974349-.0013937,2.2377125-.0013937.2191676.1168407.4277696.226702.6351483.3388239.7399978.400092.8233706.492724,1.2313804,1.0927851.2251087.3310542.2330631.7205123.359543,1.0767301.1244667.3505332.1387517.6956232-.0808987,1.0204551.0181469.5360715-.2437439.9765809-.5453791,1.3715151-.2854138.3736884-.6073902.7344823-1.0592917.9400153-.1309015.0595452-.2359925.1758372-.332756.2505596-.2673766-.0146394-.5080648.069773-.7522805-.0590733-.0134127-.2902966.1690989-.4896622.31812-.6961719.2076255-.2876738.4525269-.5498988.6446716-.8468456.1751168-.2706091.3011799-.5729882.459044-.8812273v-.8710763c-.1226564-.3105657-.2303586-.63058-.5166062-.8160524-.2708271-.1754861-.5675032-.3110705-.8528841-.4640378-1.6597096-.082042-1.8599732-.0687524-2.4684277.163689-.1539472.2127869-.3075489.4250909-.4646614.6422454v1.515319c.246377.4123061.1333317.8707252.1622253,1.3096543.0270668.4111758.0169017.8141978.1468267,1.2254833.1038512.3287277.0275605.7129951.0406112,1.0722856.0095836.2635638-.0078282.5195665.1145429.7839314.0928193.2005179.0312579.4687566.0575787.7047207.0421636.3779683-.0815625.7722879.1501511,1.1362753.0687587.1080395.0065884.2938522.0228373.4419909.0511987.4668471-.0955512.9584188.171765,1.3984673v1.2728364c.0871141.1493459.1323607.2268995.1976579.3388348,0,.2354702-.0073509.5053112.0020846.7745815.0092326.2633772-.0510561.5373664.1335457.7779944.0456087.0594684.0241319.1719414.0297877.2602935.0320095.4994949,0,.9960049.1615615,1.4940842.1154261.3558556.0053815.7828779.1110595,1.1444839.1044656.3574468.0920184.7052913.0980746,1.0569878.0061825.3589393.2261236.6638423.1912999,1.0398353-.0290636.3137481-.0695651.6533073.1369578.9550937.0572495.0836442.013868.2332864.0252291.3518062.0363487.3793071-.0181579.7585484.1544574,1.1366923.1029954.2256046.0416754.5313855.0346427.800601-.0063854.2444799.1763841.4247178.1770862.6780208.0011301.408103-.0720008.8328208.1566846,1.221807.0529706.0901189.0139284.2352617.0143947.3550984.0010533.2688862.0003346.5377724.0003346.753237.0771684.130262.1229801.2076071.1917387.3236467,0,.2307843-.0065061.5004168.0018432.7695883.0081793.2636845-.0265457.5247792.1249275.7816598.0805147.1364953.0224258.3498967.0455155.5261619.0493884.3770465-.0860169.7763922.1595153,1.1341024.0565528.0824151.0038016.2350203.0156454.3538693.0436613.437733-.0836251.898292.1716663,1.308107.0074497.4494094.0108399.8989065.0240112,1.3481623.0068737.234318-.0240277.4683506.111641.6947453.0682704.1139107.046289.2878274.0477921.4348139.0049098.4793466.0018377.9587371.0018377,1.4456557.0534863.1079847.1053214.2126332.1906196.38486,0,.2592729-.0139339.5885823.0035328.9161797.0218443.4096175-.0386473.8184448.1436724,1.2271185.1001702.2245291.017922.5304857.017922.6218995.1229307.3628461.1884912.5563625.2632019.776897q.4394104.4922301,1.331035.9428027c.2897366.0499978.5982509-.0406479.8682552.1610991.0799167.0597208.2315435.0193363.349334.0331416.3779972.0442035.7748489-.0742943,1.1342768.1586189.0852489.0552434.2345003.0132786.3543151.0133006,2.7262535.000439,5.4525454-.0061455,8.1787167.0086256.3633337.0019534.6724131-.2084411,1.0419457-.1676835.3250869.0358193.6581117-.0001097.9876256-.0048066.3594607-.0051359.7453739.0717264,1.0729129-.0332953.7030018-.2254509,1.4168764-.0941793,2.1285402-.1778894.0639806-.0507001.1342862-.1064044.2004172-.1587945.2528832-.565449.2419939-1.2168687.608054-1.7363584.0664711-.6154907.4644639-1.0787054.7732745-1.5684115.2341108-.3712961.6067704-.6551948.9263715-.9868965h1.5701653c1.0641905.4372062,1.9083577,1.2242213,2.6876776,2.0863648.214192.2369737.3494108.5438521.5350494.8086998.1183281.1688029.2627246.319323.4112574.4969709.2057604-.0571748.3937084-.1266406.5878115-.1582019.1759178-.0286203.3610406.0008999.5376332-.0253501.2879427-.0427549.5703832-.1236995.8586386-.1629427.2617811-.0355998.5411825.0239454.7683154-.1676396.5130295.0639348.972046-.2401342,1.4851742-.2100653.3523073.0206532.667838-.2460163,1.0363941-.1762872.3785183-.2225538.8072863-.1432553,1.2130689-.2020323.3442542-.2861155.8382809-.0168561,1.1784976-.3179622.483121.0565822.912273-.2594266,1.3954818-.2021859.319634-.1896755.7243524-.0758746,1.0195967-.2258679.3058867-.1554365.6725119-.0096572.9268871-.266867.387888.0051578.7495211-.1690223,1.122422-.1940871.4195738-.0281594.7859796-.2638821,1.206859-.2399147.2958477-.2247266.6785243-.1409727,1.0079339-.2933145.3095292-.1431236.695596-.1107721,1.0246655-.2236292.7451325-.2555418,1.5433892-.3223518,2.2648452-.6545363.419497.0075501.7916628-.201747,1.2017682-.2641235.3930556-.0597647.7729454-.2426802,1.1696326-.348053.3913111-.1039462.7993429-.1577849,1.1788377-.3234931.2372816-.103595.5041754-.1512005.7628516-.1906632.2623406-.0399894.4938731-.1648961.760767-.2100653.4836806-.0818664.9472942-.2747244,1.4304043-.3936173.6209017-.1528466,1.2427908-.3094024,1.8608399-.4774152.6174786-.1678371,1.2405636-.3140335,1.8589748-.4791271.5340948-.1425749,1.0698244-.3022473,1.6108972-.3958779.6072312-.1050875,1.1723426-.3885034,1.7977097-.3948244.1962371-.1727974.4413524-.1452306.6760995-.1782625.2288774-.0321759.4486923-.1409507.6772516-.1605284.3830605-.0328783.7273367-.2661647,1.1248577-.2030419.2862367-.2507571.7091239-.0708704.9969953-.3164917.4833624.0536412.9130191-.2141696,1.3910823-.2265922.3165071-.0082305.6111919-.1724901.9449353-.1892804.281848-.0141565.5506399-.1991571.8555063-.1684956.2546167-.2122821.5915528-.0849172.8508653-.1925946.2592905-.1076335.5096941-.1528466.774251-.1523198.2450824.0005048.4183779-.2146305.6783597-.1808304.2018106.0261841.3982342-.028774.5984429-.1240068.2872241-.136583.6599055.0305518.9349841-.2145866.4571514.0780036.8585125-.1942407,1.305581-.2071243.2274621-.0065405.4495262-.1248408.679018-.1575435.2332551-.0332294.480817.0142004.6827922-.1542732.3854414-.0089109.7522092-.1664325,1.1230035-.1899389.3635641-.0230455.6713379-.2412536,1.035297-.2072779.3620171.0338001.6618475-.2776655,1.0348142-.1930336.1945036-.1803695.4426799-.1422018.6765055-.1775163.2287677-.0345683.4506343-.1136034.6763958-.1696149.2544192-.0631227.5098697-.1221631.7648045-.1832228.2549348-.0610816.5106706-.1191124.7644424-.1847152.2536182-.065559.5401072-.0853781.7493017-.2217417.2908118-.1896097.6694508-.0271059.9198215-.2890785.3314833.0078574.601526-.2597778.9423022-.2102409.5745908-.2116675,1.1637518-.3792632,1.7440478-.5722968,2.0754105-.6904434,4.1441831-1.4009694,6.2123524-2.112922.9375295-.3227469,1.8721516-.6536145,2.8108002-.9734642,1.5169039-.5168778,3.0393485-1.017536,4.5569985-1.5320874.5523076-.1872612,1.0566915-.5202359,1.6569228-.5648783.5141376-.2877177,1.1163657-.3446072,1.6334108-.6395019.2465526-.1406215.5590112-.1612747.8345835-.2565953.2755613-.0953206.5348409-.243185.8144069-.3203765.7687104-.2122601,1.4688266-.5821735,2.257955-.9165528h.5357186c.3127329.1147227.3302655.4276369.5137097.6507832-.0785343.1795794-.123375.3965583-.2491419.5448178-.2305451.2718053-.4836806.5384528-.7724626.7438871-.6005166.4272637-1.2714814.7410558-1.9401313,1.0441371-.2904388.1316667-.6008786.2206882-.8888378.3727885-.2827148.1493129-.5988928.2337912-.8890463.3707474-.5570693.2629822-1.1291366.4994291-1.7012149.715179-.5434974.2049514-1.0612447.5031603-1.6501424.5846975-1.5548216.6776477-3.1850835,1.1373507-4.7936877,1.6595839-.2636024.2251875-.6284062.0854879-.9249671.2802773-.2291846.150542-.5687101.1206926-.8420222.2188665-.6603225.2371273-1.3531646.3594221-2.013498.5902723-.4957164.1733022-1.009843.278302-1.5070186.4535137-.4637453.1634256-.9214891.3937929-1.4341236.3973046-.5602291.2545102-1.1698959.3691452-1.7349305.599293-.3035497.1236337-.661661.0364558-.9209406.2776435-.3083443-.0360607-.5380336.269808-.8548919.1967209-.4716448.1521443-.9455717.2911855-1.4268605.4148192-.5906312.1517053-1.194933.2624554-1.7706209.4729597-.3411273-.0645055-.604598.1993546-.9435968.2132039-.2777666.0113472-.5788258.1054387-.8454124.1977524-.2323444.0804398-.4564163.1030244-.6877842.1427724-.2284934.0392652-.4501077.1169395-.6772296.1663008-.4019755.0872876-.7938462.2149817-1.2174905.2050392-.2265844-.0053334-.4168748.2114919-.6771967.1630086-.2107963-.0392652-.4084377.0421623-.5866376.1600675-.5117568-.0517097-.9738454.2394538-1.4873795.2072998-.3224647-.0201484-.6001435.2394319-.9471406.1785259-.2674424-.046947-.4765162.234318-.7686884.1683859-.3033961-.0684561-.5703009.1144813-.8565266.1658618-.2592576.04653-.5378252-.0168342-.7719799.1643255-.0400681.0309688-.1154536.0199728-.1747219.0217945-.3245712.0099864-.6352196.0352706-.9524618.1599139-.2617262.1028269-.5945151-.0138712-.8527195.1854615-.5134464-.0611694-.9745475.2108774-1.4855473.2236951-.4005382.0100083-.7944386.1850664-1.2059045.208485-.2038842.1754312-.4555386.1238093-.6884864.1297133-.2439852.0061674-.4132103.2501864-.6794459.1775602-.2795769-.0762697-.5047569.1449453-.7680082.1709757-.2338914.0231333-.4771854-.027062-.6924581.1267722-.0651052.046508-.1695872.0514903-.2561307.0519073-.3275226.0016242-.6357243.0551336-.9514744.1667617-.2678922.0946841-.5964461-.0151881-.8514029.191585-.3990132-.0762477-.7453629.1530441-1.1252637.194987-.3491365.0385409-.6719962.2333083-1.0380837.1857468-.3132705.2116456-.722191.0710021-1.0186202.2350861-.301509.1669153-.6770102-.0028752-.9255157.2732319-.3962593-.0530925-.7508926.1282428-1.1225427.207212-.6266069.1331811-1.2437673.3080197-1.8642411.4680214-.5649468.1457135-1.1312761.2909002-1.7010723.4155215-.5991671.1310741-1.190281.2945655-1.7853228.4393352-.5931437.1443307-1.1858924.3056273-1.779091.4479169-.3371775.0809007-.6565153.3003379-1.0299977.2180105-.2427564.2854351-.6558351.0509196-.9109784.2985601-.5796377.0842807-1.1360597.2676132-1.7047039.3986654-.3993094.0920065-.7921127.2214564-1.2076709.2286334-.3195792.2669987-.7837304.0011413-1.0953881.2973529-.4858639-.0726482-.914215.2458627-1.3953612.2052587-.2453238-.020741-.4107856.2325841-.6796982.1777138-.2010097-.0409991-.4109941.0003512-.5959963.1309863-.0636898.0449936-.1718693.0307712-.2601792.0363241-.2939387.0185681-.5759293.0239454-.8649089.1571484-.2540461.1170712-.5944274-.0347658-.857931.1706026-.0404631.0315175-.1154755.0327685-.172363.0269742-.5712664-.0580747-1.0952455.2687984-1.6667972.202581-.3842016.2076071-.8076703.1460427-1.2177099.1870637-.2587968.0258988-.4871586.1916947-.7688311.1686273-.2327833-.019051-.458468.0170756-.687477.1341468-.1695433.0866731-.4127276.0170976-.6182576.0486809-.2295686.0352487-.4510841.1254773-.6808502.1561388-.2363381.0315175-.4865277-.0158246-.7159756.0361924-.3100559.0702559-.6060956.2023396-.9890245.3361352-.1502443,0-.3901482-.0098547-.6289164.0023704-.3509633.0179535-.7105557-.0639787-1.0459668.1463939-.1101049.0690487-.2929019.0174926-.4415937.0307273-.2621596.0233308-.5404858-.0470787-.7765879.1394583-.040496.0320003-.1128972.0257671-.1710848.0328124-.3226512.0391774-.6657753-.0641543-.968195.0910188-.3160463.1621745-.6488133.0508099-.9670375.1108599-.3139069.0592599-.624067.1384267-1.0080821.2251436-.1192168.1122207-.2929951.2757779-.4827864.4543916h-.5278959c-.1315488-.1030463-.2722424-.2132697-.3982671-.3119923-.4446548-.0929283-.8096013.2367981-1.2386436.1605284-.3886725-.0690926-.7529772.1138887-1.1296962.1557437-.4142417.0460252-.8375294.0104912-1.2583046.0104912-.1137585.0571529-.2181802.1096308-.3871365.194526-.3229749,0-.7118723-.009284-1.1000675.0032483-.2628179.008472-.5258881-.0268645-.7844929.114196-.1419773.0774549-.3486044.0342829-.5257071.0497344-.5870709.051183-1.1934683-.0975813-1.7596878.169593-.5092388.0063211-1.0193828-.0039726-1.5274586.023682-.4987006.0271718-1.0078517-.0793204-1.4959538.1458451-.1495477.0689609-.3547704.0197752-.5345008.0202581-1.0785249.0028752-2.1570607.0064747-3.2355801.0049603-.2684079-.0003731-.5658959.0502173-.7974997-.0473421-.2639754-.111211-.5223443-.0895044-.7807955-.1386023-.2568878-.0488126-.4889579-.2088801-.765781-.1817742-1.0381276-.508757-1.9520629-1.1362094-2.1504229-2.3912898-.0371716-.2352178-.2119264-.4186381-.1830438-.6761333.0264798-.2360738.0490648-.4949517-.0190521-.7152009-.2429484-.7854787-.1167098-1.5930592-.18605-2.3771333-.0502552-.0873535-.0950684-.1652253-.1602449-.2784995,0-.3546375.0052993-.7441944-.0018432-1.1335318-.0048439-.2639259.0431895-.5327024-.1269792-.7801673-.0579243-.0842149-.0250535-.2307404-.0341544-.3487554-.0452796-.587419.0783423-1.1914309-.1754515-1.7592503-.0224533-.0502392-.0002085-.1190026-.005963-.1784381-.0452631-.4677799.0733832-.9542816-.1707008-1.4012108-.03817-.0699047-.0006363-.1779113-.0112733-.2667134-.0452576-.377661.0730211-.7750314-.1630043-1.1331148-.0557739-.084588-.0141423-.2344277-.0145922-.3542643-.0010149-.2695886-.0003182-.5391771-.0003182-.787893-.2141207-.2145647-.1730871-.4628416-.1813103-.6990032-.0072851-.2096044-.0074387-.4194941-.0176806-.6289449-.0115146-.2354373-.2168855-.4163116-.1682267-.6798425.0374404-.2027346.0074661-.4179358.0074661-.6445719-.0506337-.09813-.1043065-.202142-.1656045-.3209471-.0628724-.4171896.0688464-.8777047-.1805642-1.2903729-.0403259-.0667222.0003675-.1780211-.013314-.2660769-.0542104-.3488432.0233145-.6996836-.1095673-1.0570207-.1092053-.2937095.0027209-.6691099-.1043997-.9643558-.1681718-.4635001-.1336389-.9324871-.1714414-1.3874055-.053404-.0897019-.0993857-.1669373-.1368316-.2298186-.0642055-.4506604.0580395-.9074992-.1823306-1.3252594-.0525043-.0912492-.0041527-.2364579-.0176148-.3550764-.0396073-.3488541.0587252-.7123367-.1604753-1.0453772-.070163-.10658-.0136102-.2932157-.0253168-.4424079-.0205881-.2624335.0430249-.5339205-.1365135-.7789272-.0592463-.0808349-.0191563-.2311904-.0338746-.3485798-.0473422-.3775513.0712492-.7754594-.1654344-1.1332464-.0559604-.084599-.0151572-.2344387-.0156838-.3542753-.0011849-.2695556-.000373-.5391222-.000373-.7688421-.0677548-.1175211-.1125297-.1951735-.1929072-.3345769,0-.2364798.0043722-.534985-.0013989-.8333037-.0045477-.2350422.0012398-.4615467-.1122773-.6942295-.0845028-.1732035-.0387734-.4079494-.0604313-.6142945-.0366614-.3492273.0563224-.7076727-.1442758-1.0483073-.0799058-.1356942-.0161172-.3518281-.0325855-.5299589-.0405179-.4382817.0789293-.8952851-.1630591-1.3123759-.0393878-.0678855-.0027045-.1771761-.0107137-.2664719-.0472599-.52738.0577707-1.0633747-.1607606-1.584269-.0860937-.2052367-.0082341-.4748582-.0282901-.7131817-.0394043-.4680543.0964509-.9575958-.1641508-1.3995757-.0053157-.3295727-.0132043-.6591455-.0153108-.9887291-.0026771-.4183309-.0006473-.8366946-.0006473-1.1938452-.0769764-.1384486-.1205444-.2168034-.1846237-.3320419,0-.6531426.0171376-1.3428728-.0055461-2.031308-.0174228-.5285872.1033739-1.0714735-.1460861-1.5841483-.0474026-.0974167-.0103626-.2364908-.0104614-.3563384-.0028252-3.3861315-.0093313-6.7722849-.0025673-10.1583945.000757-.3781219-.097175-.7809355.155379-1.1288568v-.8671806c.2493558-.5959459.3089971-1.163041.8593353-1.4822871h.6988216c.1449506.1330933.298448.274033.411806.3781219,0,.8624837.0127325,1.6416084-.005195,2.4200199-.0094355.4094528-.1941196.7956407-.1595318,1.2220375.0362171.4464025.0048769.898292.003264,1.3477782-.0015031.419527-.0032585.8390541-.0039388,1.2585811s-.0007351.8390541-.0000219,1.2585811c.0007625.4494972.0026496.8989834.0041966,1.3484805.0014428.419527-.0107686.8396906.0087224,1.2583836.0176861.3798997-.0729443.7673825.1354218,1.1385908.0772232.1375597.0179604.352728.0180482.5325049.0005541,1.1087194.0002798,2.2174389.0002798,3.2729122Zm24.913637,39.0232675c-.1348677.1432553-.3160134.2736929-.4131116.450397-.2951126.5370043-.5501023,1.0954518-.7381491,1.6808077-.0136651.0425135.0305393.1036389.0598333.1924629.2782878.0445766.5735211-.0043677.8666479-.0010755.3143238-.2403317.6860507-.1361441,1.0343754-.1722048.0878821-.0091085.2003788.0154734.2597075-.030025.2671955-.2048855.5747609-.1145691.864662-.1419823.2039171-.0192924.4100231-.0154954.6420878-.022848.0900599-.084566.1738496-.1632061.2189152-.205522-.0166932-.2855448-.1768119-.3941879-.3091672-.5021068-.6167599-.5027872-1.2688538-.9525916-2.0442348-1.2479033h-.4415663Z" stroke-width="0"/>
      <path d="m107.119887,52.8635277c.079829.1367147.1250976.2142574.2009329.3441572,0,.2466418.0136815.5459371-.0034999.8434547-.0208789.3616389.2265405.6616805.1860116,1.0394951-.0334522.3119374-.0777992.6586187.1425094.9508357.030073.0398797.0146141.1156446.0165341.1749154.0106424.3291557-.0567339.6864818.0506885.9799389.1179112.3221213.1447147.6324236.1450329.9558509.0002523.2443592.2195297.4158507.1797797.6790853-.0301718.1997716.0136047.3998835.1221133.5981187.1405126.256694-.0364365.598009.1730432.8553834.075967.506255.3937578.9105939.5781017,1.3722174-.0603764.1937469-.1209832.38824-.2095565.6725118-.0786002.0832711-.2204622.2335717-.3399863.3602013-.2289542.073153-.4232713.1352332-.670537.2142354-.1656155-.0485931-.3885024-.1139875-.7344462-.2154865-.1603162-.1765067-.4012623-.4417714-.6832091-.7521835-.1119207-.2338131-.2202757-.5462334-.3994959-.8105983-.1822045-.2687655-.0749576-.6689672-.4605526-.8786704-.0388502,0-.1416646-.0309029-.2093151.0048176-.6130351.3237675-1.2163933.1556889-1.7903807-.0722202-1.1327682-.4498044-1.9454964-1.4406845-2.3256495-2.7314415-.1057108-.3589503-.0672556-.7719148-.0371606-1.1555567.022382-.2853034.100258-.5804505.2189701-.8413806.3927484-.863186.824764-1.7062785,1.6406739-2.3534074.1551596-.0737127.3646942-.1803695.5801095-.2734295.1848596-.0798691.3764337-.1441881.5867583-.2235853-.0541885-.198762-.1227716-.3884705-.1542709-.5841488-.0283285-.1758811.0007351-.3608049-.0253114-.5373225-.0425257-.2880798-.1175821-.5712652-.1635199-.858961-.0461024-.2887712.0528828-.5985577-.1325253-.8687389-.0307752-.0448071-.03625-.1113866-.0410226-.1689346-.0269022-.324788.0167755-.6747067-.0922158-.9682955-.1219597-.3285082-.0919306-.6475239-.0963302-.9673956-.0038181-.2767546-.2265295-.4786113-.1825336-.7691164.0398925-.2633333.0084261-.5374652.0084261-.8194983-.0517967-.1025196-.1044162-.2066633-.1943609-.3846625,0-.2231025.0054419-.5216077-.0017225-.8197946-.0056394-.2345594.0375446-.4788308-.1247904-.6890388-.0319162-.0413173-.0276154-.1121438-.0359208-.1699442-.0587307-.4086078.0232816-.8192678-.1040212-1.236611-.1094741-.3588734-.0693511-.7636404-.0934117-1.148237-.014669-.2345704.0337924-.4786991-.1292229-.6884023-.0316639-.0407247-.0281201-.1126047-.0318285-.1706904-.0284273-.444087.0117615-.9059519-.100247-1.3275091-.1112405-.4186601-.0493939-.8274106-.0949478-1.2377523-.0259148-.2332644.0129574-.466891-.1248891-.6916067-.0687696-.1121219-.0399035-.288859-.0416151-.4365368-.0044764-.3881742-.0015031-.7764361-.0015031-1.0967687-.0834605-.1447148-.1283013-.222477-.1922434-.3333588,0-.2367761.0069669-.5063976-.0019858-.7754814-.0087663-.263498.0040924-.5186008-.1204785-.7820987-.0939493-.1987401-.0276483-.469031-.0534095-.7052145-.0476823-.4370306.0948929-.8917953-.1533712-1.3146146-.0660268-.1124292-.0170278-.2937205-.0170937-.4433956-.0005925-1.2573849-.0003291-2.5147808-.0003291-3.6704363.0952001-.2873885.1592959-.4809049.2712715-.8189386.0456416-.0436658.1960944-.1875795.3287404-.3144724h.7176268c.1262935.1174992.2767901.2575171.3977185.3700341.1010918.2279969.0601021.4570912.2135831.6202644-.0126392.3881742.171595.7510751.1825885,1.121603.0100719.3399213.2000332.6163905.2033795.9450524.0029733.2936437-.031214.6003355.1696201.8571173-.0522904.5106556.218224.9731899.2100502,1.4845917-.0055187.3454961.2180704.6714803.1716279,1.0358188.229821.3747309.0549784.8451447.2329149,1.1976531.1836637.3638227-.0259696.7915913.2675741,1.1079842.0318723.0343488.0222722.1151617.0183664.1735107-.0379725.567995.2659832,1.0939703.2029736,1.66461.3116906.4351651.0215701,1.0081642.3295413,1.4468958.0288113.0410539.0155796.1181357.0085468.1768907-.0719295.6011805.265281,1.1556884.1987825,1.7558044.2067368.4150057.0861047.8863632.2038403,1.3000301.1083769.3807996.1506722.7505703.1494324,1.1326538-.0008777.2725625.2204952.4772835.1778926.7690945-.0383456.2626749-.0710188.5704422.0287674.7995255.1895664.435187.1646719.877551.1438918,1.3134074-.0163915.3437731.2231832.6070516.1879097.9499798-.0334084.3249417-.0750673.6886986.0348017.9794671.1662628.4399936.1163642.8763219.1522631,1.3151743.011937.1460427-.0062538.3165794.063251.4310059.1209613.1991681.0814198.4036585.1028912.6074577.0429755.4078067-.0816502.8391199.1693787,1.2179551v1.2871356Zm-4.0733838,1.5159007c-.1102311.2229269-.2527076.4514286-.3395145.6994202-.165023.4714123-.3728789.9679223-.2040707,1.4604378.2172476.6338173.4131006,1.2980218.9683486,1.75598.1840806.151837.3513199.3241186.5020031.4644658.3153332.0838418.5957439.1583885.8759572.2328913.1236054-.1148215.2298978-.213555.3465143-.3218909-.1830493-.5474954-.2924027-1.0957262-.3650891-1.6391612-.0585661-.4378537-.295727-.8460226-.2161833-1.3029272-.1973232-.2573086-.1701796-.5630237-.1690935-.8565796.0012288-.3311201-.2505682-.6055153-.1936149-.9475216.0066817-.0401431-.0604642-.092599-.0928302-.1385474h-.5981687c-.1528775.1764189-.3290805.3797461-.5142583.5934328Z" stroke-width="0"/>
      <path d="m90.0103872,16.6343087c.1837076.3595868.4651277.6031888.7927271.8266534.755358.5152427,1.4784706,1.077586,2.2296484,1.5992486.7975546.5538604,1.5924759,1.1163683,2.426083,1.6119236.6570968.3906433,1.2869074.8246232,1.954899,1.2001772.3838285.2157938.766549.4334092,1.1609321.6302727.3761485.1877551.7209622.4149289.9922337.7999425v.5296516c-.3592084.3488102-.7593516.6184756-1.3112862.3124093-.5529988-.0227053-.9852448-.3546484-1.4692216-.5599729-1.113546-.472422-2.1423479-1.104231-3.1941241-1.6876007-.8212531-.4555219-1.5773462-1.0309902-2.3502038-1.5706173-.5803399-.4052059-1.141337-.8381103-1.7182428-1.2640571h-.195491c-.5029027.339175-.8695279.8577209-1.4057293,1.1978946-.503967.3196961-1.0374584.5424035-1.6314908.774362h-.9138859c-.3957656-.1337956-.6850084-.3808325-.9522095-.6675187-.2944653-.3159539-.4762199-.6668602-.4828138-1.1098607-.0025015-.1688797-.0734764-.3367498-.1273467-.5648344.0560975-.1868003.1313184-.437283.2171379-.7230693.1578696-.0876059.336234-.1865918.5572009-.3092159.1988154.1891597.4076478.3878559.6291084.5985687-.0414615.188644-.0781174.3554495-.1236274.5625299.0942127.1828387.1501566.4567181.4402662.5992271.1221133,0,.2785346.0293666.4180707-.0066942.2245327-.0580418.468858-.1171041.6500312-.2502962.4972195-.3655566,1.130146-.5517644,1.5027616-1.1530766-.0950684-.2988783-.3717379-.4999229-.6260583-.6779111-.7022118-.491451-1.3515627-1.0496461-2.0385241-1.5600712-1.3732974-1.0203015-2.7156221-2.0802632-4.1086134-3.0768937-1.0326089-.7387512-2.0733807-1.4665064-3.1442036-2.1414655-.916519-.577718-1.8738961-1.1025959-2.8626957-1.5602907-1.1982244-.5546176-2.381363-1.1428597-3.5895167-1.6745196-.5362014-.2359531-1.0579313-.5055307-1.6029867-.7182078-.5471071-.2134892-1.0617494-.4976403-1.6058503-.7123696-.8168425-.3223518-1.5907534-.7398925-2.4159453-1.0448834-.7937803-.2933693-1.5783775-.6151615-2.3618665-.9334199-.6783048-.2755365-1.3820088-.4764933-2.0515144-.7614456-.6745087-.2870592-1.3817126-.4678787-2.0619593-.7309926-.160788-.062179-.3487086-.0503819-.5181642-.0952218-.1376271-.0364119-.2663123-.1066897-.3769713-.1527917-.1084866.0622229-.1857263.1065251-.2769328.1588384-.2613203-.1096308-.5624343-.1604406-.746877-.469459v-.8948571c.2199027-.1407751.4405734-.2820331.6643381-.4252774.2458394,0,.4866319.016494.7244073-.0032703.5739764-.0477042,1.1159708.1185198,1.6404984.2924914.2781287.0922259.5778164.033405.8512383.2226306.2252897.1559303.5591758.1474913.8365255.2377419.2492406.0811092.4852385.2020542.7303648.2969249.2724564.1054387.5520662.1928799.8225368.3029497.6494167.2642442,1.3155761.4843069,1.9463302.7991305.4429981.2211162.9188669.3764978,1.3807909.5593584.0810687.0320881.1732846.0417233.2476936.0840064.7934402.4509128,1.6589635.7452259,2.4785709,1.1418281.975919.4722135,1.9653659.9232031,2.9592014,1.3568318,1.0243474.4469512,2.0263457.9372499,3.0065655,1.4647177.9305077.500735,1.8529953,1.0219805,2.7462876,1.5937945.5202817.3330405,1.0577118.6391617,1.559671,1.0024687.7640036.5529496,1.5415899,1.0873749,2.2995262,1.6484343.9012795.6671565,1.8017911,1.3365298,2.6929878,2.0159114.9866382.7521396,1.9916208,1.4710826,3.0416854,2.1293611.0503484.0315504.0972079.0709253.1392509.1130876.320413.3212763.6887388.5484392,1.1439811.6311287.1100995.0199947.2076146.1093455.3808004.2056647Z" stroke-width="0"/>
      <path d="m24.4539929,62.4462234c0,.1997716-.0135444.4103308.002315.6186402.0722531.9491018-.2539584,1.7945867-.6767633,2.6122633-.2451043.4739912-.5725611.8960313-.9351926,1.2840299-.429152.4591543-.8876309.8907418-1.3264653,1.3410511-.564113.5788593-1.2587325.9746494-1.9392481,1.3881517-.2752596.1672446-.5748322.2958165-.8683814.4310169-.1584675.0729774-.3244944.1618892-.4924907.1750581-.3534648.0277424-.6584408.2689082-1.0351434.1988498-.2025622-.0376849-.4179665-.0031386-.6274462-.0073746-.5498006-.0111057-1.1869237-.2551906-1.6182152-.6071723-.1595208-.1301962-.386928-.2143671-.4819032-.3783414-.1691757-.2920854-.4270839-.4949297-.625795-.7528639-.1634047-.2120845-.2789406-.4459416-.3419831-.7090335-.0337156-.1407093-.1006146-.2734514-.1654235-.4436151v-1.0354018c.3508865-1.0993805.6920577-2.1991341,1.7624691-2.8404138-.0617424-.2571989-.1220968-.5086034-.1741075-.7252531.1485822-.3175561.2727855-.5830075.420874-.8994991.0837403-.09092.201838-.226252.3273745-.3542973.8542829-.8712519,1.5494181-1.2119633,2.8247286-1.5268418.3786006-.0934879.7451161-.1575545,1.1288129-.1652363.2059579-.0041262.4053876.0078794.6030126-.1112549.1968131-.1186295.4013775-.0189522.6006976.1172248.7926064-.0555726,1.5516783.0855647,2.2776819.4974208.7259762.4118562,1.0580684,1.0728782,1.3605923,1.8928923Zm-7.1621152,6.6048538c.0944595-.0562969.1659227-.1221412.2492022-.1450989,1.434162-.3955268,2.5504948-1.3008422,3.6337923-2.2593158.0666521-.0589746.1514896-.1221631.1757312-.1997058.0760164-.243163.26414-.394166.4304905-.5593474.3886176-.3859135.6009993-.8829283.7801208-1.3721954.1673764-.457179.3427456-.9415627.253728-1.462885-.1600255-.3046616-.3235125-.6159187-.4477927-.8525412-.5738118-.4489375-1.1870335-.5808456-1.7840885-.6785695-.5232714-.0856525-1.0799292-.0722202-1.6068816.0026996-.4237375.0602366-.8495871.1836288-1.2645419.3246234-.8157564.2771716-1.4770882.724463-1.8456498,1.53775.2020739.0944756.3727199.2431191.6127773.2843596.1951015.0335148.384635.1384596.5587863.2418132.1237755.0734603.2336829.1881062.1969941.4388414-.0394646.0384311-.1239071.1206707-.2069947.2015714h-1.1441183c-.2282849.2518106-.4685892.5168778-.7424171.8189276-.1102311.2129186-.3217296.4630611-.3604866.7376099-.0455045.3223518-.1726482.6192877-.2256408.9073785.1962809.4267809.2155031.892783.5386535,1.2259991.3298485.3401078.644326.7019662,1.159045.8080853h1.0392906Z" stroke-width="0"/>
      <path d="m67.4339747,52.673907c-.2010755-.0709582-.3420708-.1126157-.4763516-.1699771-.2145925-.0916443-.4432395-.16663-.6332666-.296486-.5451542-.3725581-.9253072-.7170336-1.3005451-1.3042112-.3150479-.4930203-.5469315-1.0392208-.8156357-1.5618819.0511713-.3965583-.2469366-.7256702-.2130126-1.1210872.028153-.3278498-.2143182-.6042313-.1726263-.9473241.0357563-.2943899-.0019968-.5974932-.0039607-.8967556-.0021285-.3256769-.0004718-.6513868-.0004718-1.031945-.4420875.2281835-.6488133.6434965-1.0069794.8588732-.1951289.0427988-.2747385-.0917321-.3641675-.2099226-.210544-.4011455.1276978-.735876.1343356-1.1107277.2535524-.4679226.4590934-.9702927,1.005224-1.3310537.4151413-.2071352.9134799-.4557853,1.4078577-.7024491.1828847.092182.3677662.1853737.597258.3010402.8188174-.0716935,1.5398016.321858,2.2801614.6985642.9110881.4635988,2.3950445,1.908629,2.8073003,2.9926788.1682048.4423311.3538982.8675317.3335569,1.353781-.0124856.2987576.0019529.5985467-.0026112.8977543-.0116079.7607103-.3834884,1.6924951-.8966715,2.2455654-.1627738.1754312-.335455.3416003-.5009279.5145623-.3338312.348909-.7054923.6261355-1.2050378.6901033-.0819026.0104912-.155785.0836771-.2386421.1308985h-.7347863Zm.3758742-1.6321049c.4455654-.1024428.7690615-.4521748,1.0733024-.8163378.1689947-.2023176.29881-.4395108.3287514-.7097578.0197488-.1781198.0386308-.3451559.1375612-.5074292.0548577-.0899982.0326184-.2293796.037797-.3468239.0119261-.2703677-.2368428-.4782711-.1806575-.766318.014263-.0730872-.0512371-.1628769-.0833508-.2436788-.2438755-.6135483-.6383026-1.1412575-1.0955308-1.5907327-.5669875-.557394-1.2696382-.9487507-1.9979184-1.2780491-.2699988.132369-.4590714-.3122008-.7384618-.1183551-.091393,1.0464856-.0372374,1.4055456.1133361,2.6520113.0861705.7132036.3017394,1.3751255.5932095,2.0079332.3615563.7849849.848265,1.4883777,1.8119617,1.7175379Z" stroke-width="0"/>
      <path d="m49.2080104,43.0008071c1.0160639.3646787,1.6366913.9230494,2.0174807,1.7672064v1.2241445c-.1788472.513026-.3418075,1.0078679-.6839223,1.4352633-.1254048.1566765-.2373804.336223-.3791108.4845593-.3099791.3244039-.6253013.6440671-.9468115.9570471-.7300576.7106686-1.5743729,1.2291706-2.5605173,1.507736-.0831204.0234735-.1545671.0882972-.2039171.117565-.3728021.0887033-.7372659-.0311224-1.0780092.167914-.1304626.0762258-.3804054.0682367-.5151909-.0083183-.2841959-.1614173-.5842567-.0856964-.8427464-.140007-.130342-.0644396-.2323664-.12731-.3426633-.1674421-.8084274-.2941485-1.125121-.9867977-1.3837752-1.7189206-.0472106-.133631-.0651052-.3132104-.0151846-.4393901.203983-.5156378.2036099-1.0972296.5199415-1.5778272v-.7081556c.0907457-.2545541.1420705-.5231769.2734329-.7442053.4311488-.7254726,1.0240292-1.2781149,1.7823824-1.6752768.3679637-.1927044.7691712-.2861704,1.1373762-.483396.3708382-.040187.7446278-.0421952,1.1240568-.1654229.3251088-.1056033.7112634-.0332843,1.0699122-.0227602.3820731.0112045.7239794.2771607,1.0272658.1896865Zm-4.3067814,2.3257198c-.6178077.7479585-.9044394,1.5105124-1.115861,2.3077004-.0221625.0835674-.0729498.1600675-.0913052.244041-.0699436.3201241.109507.5652844.2573486.8177754.2640302.129845.5272266.2592729.7922004.3895788h1.13437c.101805-.0610925.1730103-.1285171.2560978-.1499714,1.1078738-.2859509,1.7710708-.8630653,2.4769142-1.45697.2987662-.2514046.5111643-.5662391.6648537-.9262978.1031325-.2416157.2323883-.4720598.3202375-.6479739v-.5826453c-.1070165-.0875839-.2301611-.2339558-.3873614-.3076246-.3416759-.1601553-.7007197-.2832293-1.0191249-.4082896-1.5264163-.0066503-1.509553-.2011653-3.2883697.720677Z" stroke-width="0"/>
      <path d="m57.3590678,7.4755625c.2827258.1802488.6590717.1197379,1.0361418.0126421.0556257-.0158026.1012454-.080341.1552693-.0859488.294586-.0305737.616546.0150454.8784258-.0908761.2685176-.1085882.5221468-.0915016.7845313-.1011478.2986235-.010985.5998693-.0222444.8964301.005059.2286909.0210702.4496468.1167749.6782719.150981.2058701.0307932.4231945-.0036434.6250599.0394627.2259151.048231.4437551.1427066.6583256.2331547.1889958.0796826.3622365.1986413.5536132.2704226.5826768.2185373.9674819.6725228,1.3898754,1.1384042.0332328.2910977.2148119.5630896.2407267.8985005.0270997.3505661-.220934.6105853-.2163479.9548961-.4476171.5051137-.9075882,1.0077911-1.5145889,1.3518715-.2555163.1448465-.4971866.2951691-.7972144.3591039-.2804108.0597427-.5333927.2452481-.8135401.3097755-.3978502.0916443-.7806584.2720248-1.209975.2181861-.3856279-.0483407-.7284887.1946907-1.1299156.1642816-.5008181-.0379373-.9748986-.2071572-1.4733688-.2339229-.2136599-.2069926-.5177253-.0597976-.7593297-.2040186-.3007739-.1795026-.6352854-.3013365-.9470528-.4637634-.8731485-.4548525-1.2107649-.9475216-1.4016369-2.0015024-.0151078-.0834906-.0796863-.1580263-.1149379-.2247266.1700041-.3787804.1671954-.8015777.3779588-1.1694498.2278571-.3976887.5126674-.7440078.8719855-.9979693.3272044-.2312562.6528289-.5056294,1.2312927-.5334157Zm-1.1415564,2.9395863c.4261019.6308434.9856068.8932659,1.5703134,1.1244672.2790942.1103441,1.1716952.3376935,1.4438225.3398005.3594827.0027874.7203258-.0186559,1.0781189.0060248.3951841.0272486.7582106-.0865304,1.1253734-.1922325.8661487-.2493744,1.6677517-.6041545,2.2152648-1.4028789-.0100499-.097702-.0219102-.2129954-.0315103-.3064504-.0888695-.0856854-.1432664-.1672994-.2194748-.2065756-.339701-.175091-.6792594-.3533864-1.0315447-.5000985-.2400903-.0999956-.504746-.139162-.7519239-.2243535-.3924961-.1353101-.8330475.0267547-1.2127398-.2137965-.0857975-.0543764-.2359211.0017888-.3542383-.0119068-.3624889-.0419538-.6951242.1204183-1.0403219.1464377-.3038131.0229138-.5797584.1098503-.8533229.2038759-.7286203.2503949-1.3890635.6183768-1.9378163,1.2376865Z" stroke-width="0"/>
      <path d="m70.8038849,73.2851956c-.1801637.0895483-.3095402.1538562-.4207039.2090996-.5803838-.2092532-.9305297-.6304812-1.1565655-1.2509761v-.6396555c.0881344-.2496158.1426849-.5143758.2680458-.7397608.4946521-.8893811.9439698-1.4365253,1.7438613-2.1183212.6338372-.5402745,1.3756563-.887735,2.1675385-1.1338829.7318569-.227514,1.4672906-.4152362,2.2465007-.3705718.4173466.0239234.8372057.004236,1.1629729.004236.3149382.092599.5461855.139568.7606902.2274482.7915092.3242613,1.3909396.8824235,1.882015,1.5720549.3892595.5466614.5709373,1.1403357.5533718,1.81941-.0154699.5978005-.0623623,1.1669368-.3563009,1.7087257-.2811788.5182606-.6764945.8918612-1.2066945,1.1246208-.0980527.0430402-.2311814.0061455-.4101383.0061455-.0577542-.0586892-.1401066-.1423773-.1989031-.202142.0222942-.1160616.0189808-.1819937.0474629-.228392.0463438-.0754795.1150915-.1368464.1715182-.2065097.1850132-.2284139.3910588-.430951.5499048-.6918701.1807233-.2968262.0380493-.6670468.2913274-.9182648.0963521-.4887404-.187789-1.3665109-.5510459-1.809248-.3704213-.4514725-.8576457-.7173299-1.4638017-.9782709-.4200566,0-.9287084.0115008-1.4366361-.0028094-.6757375-.0190071-1.1307055.0758965-2.1279203.4808171-.9328008.3787584-1.631798.8688815-2.2305262,1.5420299-.2149545.2416706-.3876686.5209382-.6084051.8222638v.8173913c.0762852.274044.4257399.5154073.3224318.9564325Z" stroke-width="0"/>
      <path d="m45.4717164,71.3787834c-.237512.5564722-.3048115,1.1294494-.6172811,1.594398-.1812499.2696983-.436876.4894208-.6473322.7188882h-.9749096c-.1705856-.1591018-.3668446-.342149-.4597626-.4288221-.4081525-.5477808-.4780961-1.080571-.6464435-1.5763787-.0093916-.0276766-.0357014-.0521267-.037797-.0793424-.0272753-.354813.0181908-.7345591-.0960888-1.0580303-.1173078-.3320309-.0656757-.646657-.0834935-.9674505-.0198695-.3578858-.0120248-.7184712.0071644-1.0766423.0058259-.1089065.0892096-.2136648.1536565-.3572712-.0415054-.0791229-.0946076-.1803695-.1628726-.3105437-.0891219-.4481583.0270668-.9036693.2410778-1.46925.1172968-.1206926.3239678-.3333697.5233647-.5385845h.87565c.7537561.5216186,1.089277,1.2729242,1.3937703,2.0505016.2025128.5171193.3140934,1.0592155.4735758,1.5879453.0417028.138295.0533985.2896052.0552417.4352309.0064184.5085815.0024796,1.0172507.0024796,1.4753515Zm-2.4365279-3.3733357c-.141127.2176593-.0677932.459703-.076724.6895875-.0092051.2373687.0204729.4768884.0024028.7131158-.0210983.2758438.0933679.5124663.1621156.7648914.0573044.2103945-.0436558.4541502.1199739.6598478.0347469-.0656248.0839433-.1155568.0842615-.165796.0033244-.5350728.0112678-1.0706724-.0078117-1.6051965-.0124417-.3479872-.2071428-.6630522-.2249606-1.0147706-.0006802-.0134981-.0349773-.0252842-.0592573-.0416794Z" stroke-width="0"/>
      <path d="m92.9430374,36.8398866v-2.0665566c.0896046-.2666365.154633-.460142.2561417-.7622028.189698-.1972257.4584241-.476625.78079-.8117945.0133304-.0747662.0386857-.2170119.0787208-.4415739.0982063-.0988762.2447423-.2464004.3750733-.3776171h1.0549799c.1616767.0879461.3417856.1859224.5469864.2975395.2229418.4521968.668233.8064392.7011037,1.3790323.2539913.2845791.1224205.6818508.3004887,1.0052231.1024194.1860212.0332986.4685591.0348017.7076837.0027977.4475328.0008119.8950876.0008119,1.2462243-.2345168.5132125-.2959355.9950722-.6697361,1.3367932-.2866645.2620604-.5548859.5338328-.9563787.659738h-.6925459c-1.019476-.3317785-1.384609-1.2195903-1.8112376-2.1724891Zm2.1428526-2.4155534c-.2724344.0042799-.0280323-.4008492-.3272593-.4356918-.2147131.0044774-.2896049.1723585-.3864069.3382751v1.8568425c.2477485.3149663.176982.7635745.5009169,1.0202247.0538264-.0130701.1076418-.0261402.1824129-.0442913.0309068-.1930775.0170608-.4177163.105283-.5900857.1629494-.3183133.0854464-.6417406.104098-.9635108-.2264637-.3503686-.1325911-.7499118-.1790447-1.1817627Z" stroke-width="0"/>
      <path d="m69.9471169,23.0237199c-.2664111-.4947212-.7086631-.7025259-1.0936875-.971039-.4113781-.2868946-.8825182-.4937116-1.3585955-.5966043-.451139-.0975045-.8934459-.3463521-1.466742-.1759909-.126074.0654822-.3388562.1676506-.543267.2844913-.2029955.1160396-.3975759.2468284-.5963584.3714717h-.3041971c-.0455977-.0495039-.1057328-.1147996-.1941634-.2108006.1360033-.2849522.2702511-.5662282.4061666-.8509938.2472547-.1689785.4905049-.3352134.7439805-.5084278.1871526-.036785.4078233-.0365765.5840373-.1250054.264502-.1327202.5281592-.0468592.7898416-.0755783.2956722.2687984.6861166.1134168,1.0239853.2282603.4423727.1503445.8440739.4074665,1.3104195.4887952.5593952.4298317,1.2846253.6419052,1.7236956,1.3974906.0446432.1328738.1280379.381052.2042353.6078198-.00655.0836552.0051127.1504981-.0186955.2003862-.0888037.1860541-.2032369.360739-.2820236.5505023-.1192278.2872239-.330068.4719501-.580669.644528-.4886178.3364754-1.0146266.5697618-1.5858052.7267566-.2542656.0698718-.5139291.1185198-.7623469.1885891-.7615459.2148171-1.5285886.1453733-2.2970467.1485118-.7801427-.312541-1.6862827-.4400485-2.0071894-1.4295568v-.7167482c.0874652-.1684956.1818205-.3502588.2926111-.5636822.1779475-.103628.3787378-.2205565.5427733-.3160856.2261784-.0055529.2977239.1405447.3893801.2200188.1578696.3970961-.2192334.5324061-.3319661.7771714v.2629493c.3103082.563737.9493788.4200867,1.4138921.6935601.3056234,0,.6346271-.0042909.9634663.0010425.4459385.0072319.8500095-.2462577,1.3007206-.2036455.3540518-.2101641.7729673-.2588559,1.1295206-.4828473.2332331-.1465365.4320046-.2979016.6040275-.5653393Z" stroke-width="0"/>
      <path d="m43.4964542,15.2911945v.9093538c-.1294972.2597558-.2729282.5474516-.4416925.8859572-.256427.1638316-.5743165.3256989-.8410787.5487465-.2773058.2318598-.6232057.1319081-.9230361.2704994-.3234192.1494885-.6918547.10151-1.0183021-.0866072-.342027.0614108-.6087123-.2126662-.9500152-.2121723-.2447971-.1946138-.4980753-.3959767-.8333767-.6625694-.2225468-.3177098-.4751776-.7395743-.5542166-1.283975.1420047-.2887383.2960781-.6020255.4237979-.8617264.365923-.3850027.8215164-.4403777,1.2340246-.5599181.2382032-.0690378.5363221-.0837979.7557969.1123962.3176043-.1613844.6315002-.3208813.9665602-.4911437h.7682386c.6768017.2759755,1.1313419.7533248,1.4132996,1.431159Zm-3.9344182.773945c.2998085.4633025.8441288.457168,1.2711742.6433318.5211265-.2148719,1.1202826-.2687106,1.4107213-.8639981v-.4258042c-.1589338-.2055879-.278008-.4588361-.631215-.4983207-.1251524.1674201-.2605303.348503-.3958972.529498-.1593398.0692353-.3186795.1384596-.4832966.2099885-.1752814-.0627057-.337397-.1207036-.4538819-.162383-.2598172.0820749-.4779425.150981-.7176049.226691v.3409967Z" stroke-width="0"/>
    </g>
  </g>
</svg>