<?xml version="1.0" encoding="UTF-8"?>
<svg id="Layer_2" data-name="Layer 2" xmlns="http://www.w3.org/2000/svg" viewBox="0 0 101.0202133 57.2457345">
  <g id="Layer_1-2" data-name="Layer 1">
    <g>
      <path d="m100.5741028,4.6193947c.1876204.1868086.3293373.3279217.3807568.379106.1367231.8794401.0569545,1.5654813-.2208209,2.2580178-.3758484.9371198-.4282743,1.9814894-.900971,2.8934634-.0262889,1.0344935-.6227399,1.9257469-.7210028,2.9557393-.0561285.5884965-.4502719,1.1411735-.5305247,1.7319491-.0764647.5628569-.458864,1.0453762-.3706457,1.6341006-.3783928.5168574-.1654899,1.2177506-.5399047,1.7358615.0325264.728584-.4346448,1.3633838-.3866811,2.0980834.0337702.5172373-.3542591.944147-.304577,1.4895689.0457231.5021574.0591381,1.0337149-.2670377,1.491772-.0502138.0705375-.0097883.2029901-.0184184.3062324-.042723.5109698.0356879,1.0775492-.1635246,1.5182853-.2470339.5465994.0051837,1.1481247-.3216187,1.6443944-.2914848.4427114.0109846,1.0551382-.422464,1.4545091-.0351753,1.2627624-.6915049,2.3337023-1.1356247,3.4561493-.544272,1.3755769-1.3796964,2.62174-2.2340899,3.8269557-1.3734399,1.9373702-2.945162,3.7092032-4.6534077,5.3682218-1.6752921,1.6269215-3.5283499,2.9819867-5.6574836,3.9232089-1.294222.5721631-2.6019064,1.1559495-4.0414435,1.3003673-.6510225.5158318-1.54812.0641941-2.2040129.5608437-.7775585.0135605-1.5554209.0175869-2.3325902.0431126-.9187248.0302358-1.8382471-.0764631-2.7488545.2469004-.4140428.1470007-.9236142.0249179-1.1866929.0249179-1.9725018.5622111-3.6346921,1.318258-5.2496784,2.193045-.4513447.2445453-.881309.5125272-1.3138556.7875742-2.1968829,1.3970003-4.3952042,2.7944563-6.6379859,4.1153733-1.1801516.6950815-2.509658,1.0993524-3.7813792,1.6101702-.5148786.2067506-1.1136651.2326561-1.593264.4911798-.4759864.2565485-1.0617282-.0004178-1.4648386.4143748-.9299752-.0252598-1.7832863.4572975-2.7257082.3950026-.4536375-.0299319-.9227123-.0567871-1.3535595.2208049-.1496492.0964431-.4020566.0413653-.607559.0416692-1.3480245.0020132-2.6966518-.0237024-4.0438028.0104078-.6284126.0159156-1.1601572-.3794669-1.8093426-.2952169-.5588453.0725507-1.1663283.0959493-1.7018943-.0473669-1.030322-.2758067-2.1073118-.3419-3.11125-.7022226-.9533921-.3422039-1.9350954-.6061974-2.8328764-1.1072152-1.2093266-.6748737-2.3417946-1.4461144-3.4409386-2.292375-1.649682-1.2701315-3.0320748-2.807827-4.5078695-4.2530678-.5926866-.5804058-1.1926742-1.1562154-1.7477598-1.7716431-1.4285953-1.5838089-3.1447116-2.8007618-4.933203-3.9268554-.3869991-.2436717-.8057201-.4394067-1.2188301-.6385983-.9151598-.441192-1.882304-.7592756-2.8138932-1.1561395-.8953672-.3814421-1.8799685-.4409641-2.7502953-.8729637-.7899957.1105734-1.4852294-.3522319-2.2633908-.3681474-.4468659-.0090404-.8866731-.2061048-1.3365343-.2704129-.4538084-.0648398-.9143789-.0039504-1.3483259-.2640694-.1963003-.1176765-.5077818-.0308056-.7636237-.0633584-1.2987838-.1652713-2.5132989-.5023093-3.3328471-1.7210855-.0157458-.2102452-.0347741-.4644006-.0579253-.7735578-.0569759-.0859973-.1252615-.2260468-.2264343-.3357465-.6962282-.7550213-.7552595-1.5402405-.4428037-2.540111.4077898-1.3048495,1.1185343-2.4078104,1.9245891-3.4414113.8529385-1.0936927,1.7366661-2.1735969,2.7627965-3.1306967,1.3655504-1.273702,3.2989772-2.6429735,5.1140067-3.6454649,2.3724199-1.3103952,4.8918139-2.2460337,7.4597485-3.0610708,1.0603848-.3365822,2.1054723-.71867,3.1928746-.9885891,1.0270751-.2549531,2.0794944-.4412299,3.0755241-.8215325.0473039-.0180427.0968388-.0490382.1437914-.0464173,1.0861895.0610414,2.1075634-.3992949,3.2011677-.3594869,1.6052169.0584964,3.2137994.0216513,4.8208914.0333505.4089255.0030008.8050437.0091543,1.2021682.2114607.2520562.1284262.6064197.0698538.9149937.0710313,2.0218421.0077489,4.0437458.0039124,6.0655594.0155357.5702571.0032667,1.1042518-.1327944,1.6515761-.2748951.5359315-.1391379,1.1445918.0885043,1.6501947-.2883037.036438-.027159.0983721-.0219931.1488944-.0282226,2.5588274-.3148929,3.833017-.7841936,6.2135471-1.4378718,1.2198222-.3349488,2.4479707-.6387882,3.646009-1.0487568.7906508.1085222,1.4843915-.3559923,2.2616605-.3772638.4463889-.0121931.8850733-.2021924,1.3335793-.2702609.4519476-.0686003.9016119-.0332746,1.3483045-.2568524.2956526-.1479503.7123965-.0425048,1.0725751-.0758554.4536945-.0419731.9309531.0823508,1.3531132-.2189436.1101209-.0785903.2972002-.0615352.4496548-.0665112.6217715-.0203978,1.2752909.0812112,1.8566939-.0800337.5528735-.1533441,1.0928448-.250319,1.6534654-.2611446.5192268-.010028.9493619-.411412,1.4865609-.3134115,2.2245389-.6013353,4.8509114-1.6610317,6.8575631-2.8897219,2.3089311-1.4137325,4.5644775-2.906891,6.8500628-4.353993,1.2852122-.8137266,2.7072613-1.4230957,4.101645-2.0487982,1.2006301-.5387746,2.4528411-.9616389,3.6757252-1.4520021.8362599-.3353287,5.0314113-1.7763152,5.7597435-1.9348062.5946851-.1294518,1.2169218-.0447649,1.800442-.3335434.4582469-.2267875.8642103.2448302,1.4271475.2880758.8300793-.5351281,1.7439717-1.1174901,3.1313203-.911879.0364665.0380796.2108237.2201592.3002667.3135635v.6274878c-.0636478.0995578-.0982439.2253441-.1766548.2654369-1.0531408.5388316-1.6639278,1.519102-2.3451792,2.4071077-1.0570904,1.377894-2.0025977,2.8379298-2.7305881,4.4221375-.403362.8777878-.8377885,1.7568291-1.1485745,2.6578255-.3165204.9175767-.8929866,1.7158246-1.0962531,2.6791919-.0813351.3854685-.4161315.7114529-.5384142,1.0954779-.2641136.8292434-.9153829,1.4907844-1.0089178,2.3876025-.5421263.6908272-.8489724,1.5159303-1.2914402,2.2606198-.599584,1.0090628-1.2255424,2.0205566-1.9770114,2.9161592-.7600896.9059344-1.4364326,1.8872304-2.324995,2.6907582-1.3364703,1.2085963-2.7696844,2.2880067-4.2989493,3.2277855-1.2155072.7470066-2.4725982,1.4286795-3.7672569,2.0406885-1.3792122.6520069-2.8373766,1.0918314-4.2438176,1.6679449-.6450128-.0964811-1.1653219.3798467-1.7872833.3892669-.4417463.438723-1.1330803.1056734-1.5850327.5128311-1.3848327.0443281-2.6538766.7015769-4.0504344.7422205-.5407402.0157257-1.0859996.2326561-1.6409048.3250348-.4903081.0815911-1.0162567.1590038-1.4742377.3427357-.4028209.1615488-.794154.1683481-1.1948198.2348592-.3469012.0575468-.6784981.2013947-1.0228645.2811625-1.9722264.4566137-3.9814937.7680881-5.879985,1.511638-.637655-.0627507-1.165659.3750227-1.7859637.39147-.4880295.4523974-1.2352358.1323006-1.7251451.5790763-.586188-.0674228-1.0698313.3415582-1.6390535.3529536-.4973194.4285811-1.2345997.1304014-1.7280265.5707957-.7338624-.0040644-1.3732785.3555365-2.0609906.5275311-.3940437.0985702-.8906985-.0131807-1.1982186.1881761-.5735989.3755545-1.2374289.0964051-1.7890682.3955344-.5345264.289899-1.1361754.0486204-1.6725721.2011668-1.5741335.4478773-3.1746747.2232359-4.7647819.2505849-.4044349.0069512-.8303357.0800337-1.1986459-.198128-.0728854-.0550398-.1986429-.0709554-.294689-.0596739-.9423933.1108393-1.8456097-.1792877-2.7207713-.403815-.8730872-.2239576-1.8027585-.3335814-2.6092073-.7992735-.9776398-.0682964-1.8664253-.4868116-2.7795819-.7737478-.9200824-.2890634-1.8600453-.5112357-2.7886629-.7252793-.7822153-.1802753-1.5738962-.4178694-2.4002871-.4417617-.710303-.0205117-1.4177816.0218032-2.1280206-.2444314-.4570696-.1713868-1.0252071-.0523809-1.5435842-.0528367-.7776772-.0006457-1.5586298.0535584-2.331973-.0020512-.5888962-.0423529-1.0594639.3672738-1.6543127.2962045-.5092368-.0608135-1.0713931-.0993299-1.5438714.0551537-.6538802.2136638-1.3044328.225401-1.9659699.2811625-.6070321.0512033-1.1694305.3878235-1.8022601.3079038-.6484307.3852026-1.3952263.2412027-2.1131838.349535.2173936.4195787.5890481.1968366.8673765.2884936.2880052.0948857.5729272.2252871.8690237.2630439.4085268.052077.7928296.0958733,1.1872341.2772121.3517266.1617007.7904609.069398,1.1820053.2859106.2952705.1632581.6716506.1850613,1.0042562.3380636.3108169.1430123.685246.1103075,1.0376751.2273003,1.6968364.5633507,3.2972446,1.3340217,4.8888281,2.1323835,1.2853237.6447898,2.4641604,1.4462664,3.6045083,2.3200278,1.6383794,1.2554314,3.1834471,2.6097749,4.6650854,4.0471908,1.8467965,1.791623,3.8586841,3.3914614,6.0303652,4.7730779.7706706.4903061,1.6143834.8751289,2.4509329,1.2495818.691448.3095371,1.4048413.671455,2.138566.7594275.9132373.1095098,1.7807277.46592,2.7199311.4289989.5545635-.0218792,1.1329522-.0999757,1.662366.2323902.1507932.0946578.4042213.0303118.6106113.0309955.7777009.002469,1.5609559-.0555336,2.3314936.0190303.693323.0671189,1.2972648-.2771362,1.9641565-.2819602.6738129-.0049,1.3474501-.0335025,2.0211632-.0517731.6689424-.4404323,1.5358158-.1070028,2.2007327-.5631607.8323294-.0040264,1.5810784-.3254907,2.3631608-.5558677.727359-.2142336,1.459522-.3973197,2.1831404-.6459673,1.1077646-.3806064,2.1958291-.7985138,3.2423764-1.3148394,1.8302532-.9028577,3.6363726-1.8370527,5.3692078-2.9381903,1.7544531-1.1148501,3.5985675-2.1157082,5.5674995-2.8493442.4336099-.1615868.9487069.0051659,1.3135707-.3670459.8184872-.0363893,1.5746177-.5018535,2.4075168-.3850506.5458385.0765011.9721475-.3008006,1.4916022-.299889.5111189.0008736,1.0387005.0464553,1.489599-.284885,1.0572423.0894159,1.9764607-.4494726,2.9639506-.6738861.9830656-.2233499,1.9544632-.5454599,2.8883689-.9282694,2.0881766-.8559086,4.1413014-1.789154,5.7082385-3.5052255.2445179-.2677919.5080904-.5185288.7685392-.7712788,2.5049347-2.431095,4.2996898-5.3499131,5.6420084-8.5326868.6650451-1.5768577,1.211871-3.2302925,1.3955419-4.9578733.0493403-.4640208.3707407-.8336116.322027-1.3320845-.0440901-.451106-.0353936-.9255345.260221-1.3398713.0757621-.1061292.0168424-.3041053.0319568-.4587029.0445269-.4549424.0065509-.9025158.2283022-1.3554071.1692875-.3457365-.0152853-.8784335.1760093-1.1965172.2645123-.4398625.1799872-.9017941.3122576-1.3400612.9948952-3.2969556,2.1076868-6.554521,3.2226621-9.8117257.3120772-.9117081.5531394-1.8502714,1.0386245-2.6935311.1254822-.217975.2844687-.4166159.4852098-.7067428Zm-38.1088178,17.1781691c-.153461.0057357-.3404073-.0435684-.4548955.0261714-.692929.4221237-1.4180997.792968-2.0253169,1.3513047-1.1069718,1.0178753-1.8756677,2.2540104-2.5396685,3.5922484-.2808088.5659716-.1696198,1.2036583-.5145842,1.739622-.1200421.1865047-.0634531.4998783-.0539164.7540337.0226622.6041082-.0452864,1.1937823.2376063,1.8003595.1984198.4255043.1425049,1.0001364.0391627,1.3884157-.2022697.3071441-.6114278.18829-.5870614.5633127-.3545771-.1915947-.7091495-.3831894-.9983747-.5394963-.8283229-1.548825-.9172532-1.8405093-.8982937-3.2721516.0074718-.5641863-.0392245-1.1649519.1341834-1.6837086.3678308-1.100264.684712-2.2387026,1.4146059-3.1841411.2817059-.3649187.5875124-.7143777.8377695-1.0998462,1.1743128-1.8087541,2.9634664-2.760688,4.8858351-3.5207613.3250271-.1285401.7264239-.0781725,1.0365548-.2271104.6474813-.3109425,1.3215457-.1926962,1.9807046-.2025343.980113-.0146621,1.9873694-.0766911,2.9366648.1133083,1.760083.3523078,3.3653569,1.9368004,3.8650355,3.6159129.1004275.3374178.0427989.7000575.2266787,1.0447684.1347768.252674.0758096.6026268.136837.9024019.0702841.3452807.2121339.6784062.2592147,1.0253962.0484384.356942.023735.7242917.0244281,1.0870833.0009019.4664898-.0839459.9503385.0135384,1.3948351.1081746.493117-.404264.8380558-.223802,1.3462148.1554263.0211195.3142134.089264.4416419.0515072.4356132-.1290719.8683686-.2758067,1.2876331-.4507261,2.5255652-1.0537328,4.8078181-2.5173962,6.826831-4.3444209,1.6832196-1.5231474,3.3417643-3.0913825,4.6825543-4.9472376.6880111-.9523137,1.3423471-1.9270004,1.9069267-2.9604114,1.3691486-2.5061147,2.2929717-5.2058753,3.3908957-7.8286979.77528-1.8520566,1.484795-3.3117126,2.6614718-4.9709591.1143172-.1612259.2759146-.3225278.0335613-.5808426-1.7047995.7100665-3.448268,1.3843134-5.1465071,2.1578902-1.7594944.8014766-3.5572686,1.5233753-5.2608243,2.4471245-.2653763.1439239-.5699722.2134169-.8460387.3400008-1.3856777.6353316-2.852548,1.1079369-4.1600331,1.8938018-1.0965379.6590531-2.2502582,1.2021009-3.3586256,1.8327984-.1322324.0752476-.2781077.1289959-.4031247.2140436-1.3175772.8965902-2.7975208,1.4415943-4.2807113,1.9769882-1.5742095.5682507-3.1449537,1.1545061-4.8370502,1.278678-.4804438.4186291-1.1289789.1049896-1.6278411.3579675-.5433321.2756168-1.10832.1672845-1.6636525.227908-.1530433.0166753-.3403219-.0167512-.4529777.0596359-.4207266.2854548-.8945626.1903412-1.3482476.252826-.448862.061839-.8920799.2736036-1.3330762.2605748-.8897111-.0262854-1.6870314.4717696-2.5748343.3823917-.4788204.4092469-1.146182.1081044-1.6170179.3869878-.5129228.3038394-1.1623361.0352878-1.6028054.4853302-.6200863.0138644-1.1459542.4589308-1.7841266.3899886-.8971117.3471799-1.8062998.651741-2.7392609.8948809-.929116.2421143-1.8356458.5713654-2.7764726.7712408-.4470487.0949617-.952495.0465692-1.3435955.240481-.5020237.2489136-1.0532073.0739941-1.4974363.2746292-.5509178.2487996-1.097269.2283259-1.655744.2663865-.155075.0105977-.3361113-.0329327-.461527.0323629-.7276011.3787831-1.5111456.2435197-2.2744916.2731858-.6728967.0261714-1.3471937.0190683-2.0208879.0212334-.5182062.0016333-1.0364504-.0048241-1.5546756-.0082047-.5700482-.0036845-1.1401249-.0058496-1.7101351-.0127249-.5181872-.0062675-1.0404141-.0627887-1.5533654-.0156117-.5849205.0537483-1.1015413-.235505-1.6520793-.2572702-1.1900348-.047101-2.3832074-.0102559-3.5749939-.019942-.5184815-.0042163-.955647.329631-1.4952527.2914564-.5023607-.0355157-.9985504.0133326-1.5013193.247888-.4395294.2050413-1.0329661-.037149-1.4797964.3205147-1.2294064.1136881-2.3406031.6495759-3.5021037.9998705-2.3905249.7209491-5.1441098,1.9382059-7.2659831,3.0922562-1.5331503.8338775-2.949102,1.8169588-4.3304456,2.8932545-1.2848561,1.001086-2.2813605,2.2193304-3.2889326,3.4481726-.3838329.4681231-.6519031,1.0336389-.9505819,1.5671716-.0613502.1095858-.0240056.2744772-.0326926.4233772,1.3387465.3550047,2.5590576-.2406709,3.8206084-.2936975.4496002-.3547768,1.0449357-.0994439,1.4827301-.3096131.5019857-.2410127.9967038-.2197413,1.5031612-.2706028.1523075-.0152698.3357078.0101419.4503953-.0655995.5705799-.37677,1.2250606-.1157013,1.8133728-.2681718.6473911-.1678543,1.2854448-.3034595,1.9605488-.2851509.512854.0139404,1.0559582.0493041,1.5361599-.0924547,1.2267339-.3620699,2.4573579-.1177525,3.685027-.1470007.354589.2950269.7827256.2046234,1.1898734.2299972.5644705.0350978,1.1677334-.0341102,1.6821753.1468108.5659136.1990017,1.1508958.0379847,1.6609514.2203871.4414282.1578643.9335544.1491278,1.3081781.3415962.4462892.2292755.921179.1401255,1.3335081.3256046.9341383.4201485,1.9320953.6186184,2.9153176.8396132.9881544.2221344,1.9080897.7462089,2.9596166.6870288.4771637.4242508,1.1290881.1111811,1.6254154.3690211.5453068.2833277,1.1120891.1576744,1.6680957.2200072.1531192.0171691.3389548-.0229048.4551186.0501398.6279806.3951545,1.3146673.1734,1.9723356.2088017.6715818.0361994,1.3469137.0027349,2.0206031-.0002659.4029348-.3060045.882885-.3006107,1.3378896-.257764,1.0452513.0983803,2.0108148-.3934452,3.0415213-.3627156.4805245-.4144887,1.1306261-.1196137,1.6252492-.3710343.3976182-.2021544.792597-.2010149,1.1990873-.2277181.4618308-.0303498.8401572-.3205147,1.3312486-.3294031.7042601-.0126869,1.3718354-.3831894,2.1000774-.344483.5492611-.4823294,1.3493963-.0294001,1.8992033-.5096783.6721277.0107876,1.2966334-.2744013,1.9462746-.3382535.8153446-.0800717,1.5742048-.4432431,2.4030451-.4235291.041128.0009496.0860251-.1566108.1291611-.240367.7293717.0975446,1.4124602-.1128145,2.1147076-.2647911.5413478-.1171827,1.0961582-.1072687,1.6484858-.2908866.5635923-.1873404,1.2371725.047025,1.7876821-.3385194.7425826.1394037,1.3948109-.3698947,2.1119496-.3145511.7390794.057015,1.3990452-.2872781,2.1098704-.3213123.7193128-.0343761,1.3766489-.4191229,2.1101458-.3471799.3570218-.2380879.7772073-.2243755,1.1714456-.3205147.4795799-.1169168,1.0063924-.2587516,1.2329477-.7466647.1362009-.693904-.0391817-1.3780839.3040833-2.012314.1053739-.1947094.0887879-.5606538-.029327-.7499694-.273636-.4384571-.19457-.8997429-.2221311-1.355521-.0463212-.7660369-.4371227-2.1958179-.8001543-2.9177166-.4865864-.9675835-1.1870632-1.6532449-2.2979181-1.8517528-.2441382-.0436064-.4713676-.1819466-.6283698-.245229-.8102464,0-1.5355974-.0052419-2.2606161.0080528-.0731323.0013674-.1442138.1147137-.3533951.2930138.5146792.2653989,1.0153927.5503599,1.26405,1.0274094.2779463.5332668.6566619,1.0406281.7086321,1.707335-.166876.3526497-.3393155.7170367-.5078625,1.0732189-.3459993.1811109-.6616558.3463442-.9799041.512945h-.8214398c-1.2148616-.3085875-1.7697194-1.0572654-2.3457014-1.7922688v-1.1311076c.0933165-.3280736.5733046-.4076895.6068374-.8137456.2877251.0406056.4672377.4269857.8215822.255219.1319571-.3328977.3722882-.562477.6951696-.7114529-.6603456-.1588899-.9514221-.0671189-1.5018747.473403Zm1.0422702.6226447c-.254686.5560576.2672466.8186077.3967827,1.2481383.1674647-.0540902.2984154-.0964051.428749-.1384921-.0068642-.5910415-.4576677-.8010587-.8255317-1.1096462Z" stroke-width="0"/>
      <path d="m95.6117698,15.2377248c.2074819.2685516.3294133.42634.4324896.5597421-.0486567.146241-.0576191.2570043-.1151052.3289093-.1288146.161169-.2668478.3216922-.427192.4498525-1.3997003,1.1189145-2.3252133,2.6112943-3.1249498,4.1619805-.9776446,1.8956251-1.9929708,3.7846028-2.5963335,5.8506651-.9678563,1.7972448-1.7196576,3.7076838-2.8416964,5.4242112-.3630695.5554499-.6958342,1.1360456-1.0212885,1.7072971-1.0190479,1.7885083-2.4925071,3.1588433-3.9958439,4.4859518-.8698212.7678601-1.9539885,1.2558112-3.0713372,1.6502821-.8252374.2914184-1.7077331.2469763-2.5240841.5549181-.2268401.0855415-.5414428.0858454-.7680835-.0002659-1.154195-.4387609-2.3489863-.2088777-3.5238307-.2486856-1.1390331-.0385924-2.2997694-.1179044-3.4159694.0514692-1.0214404.1549395-2.0331969.2282499-3.0571817.2541554-.1036175.0026209-.2322707-.0284125-.3066467.0207776-.549019.3629815-1.2090988.1751473-1.7861725.3757444-.6711403.2333019-1.381168.3325558-2.0444378.5786585-.4762665.1766667-.9214306.4395966-1.374845.6748737-.4529302.2350112-.9214069.4497765-1.3437949.7321925-1.4534268.9717619-3.0336271,1.6537007-4.7046611,2.1419177-.0964116.0281846-.1909243.1047237-.2829971.0995198-1.0859331-.0608514-2.1337858.2723121-3.207334.3042952-.5551901.0165233-1.12999.1173347-1.6595511-.2207669-.1509214-.0964051-.4058542-.0373769-.6130608-.0368831-1.8777564.0045961-3.5882617-.6533364-5.2856891-1.3486458-.4230906-.1733241-.8138826-.4255423-1.2227464-.6431945-.1368228-.2668423-.2750696-.5364575-.3936544-.7677082.0195909-.3559544.2836712-.4580192.4994128-.6452836h.7781567c1.2313859.6440301,2.5101707,1.2579004,3.8983832,1.6270734.8348548.2220584,1.6760137.4193128,2.5289688.5051202.8221518.0826546,1.6579276.0196761,2.4868249.0474808,2.1247238.0711833,4.0140534-.5835965,5.7443395-1.7876346.8383866-.5834066,1.7189787-1.1230168,2.610959-1.6011679,1.2434148-.666593,2.5422699-1.3001773,4.0150455-1.3383899.8818786-.3905204,1.8192876-.272616,2.7385536-.2829478,1.658858-.0186505,3.318447-.0285265,4.9769348.0015954.6571082.0119272,1.3541386-.1490139,1.9595235.2744013,1.0313806-.0004938,2.0822809.2108529,3.0882555-.0733864.9262346-.2616764,1.7917835-.6741899,2.6093972-1.2346538,1.3860384-.9500726,2.5120932-2.1598464,3.5746616-3.4167212.9193894-1.0875012,1.6005079-2.3623807,2.3410968-3.5865507.7417757-1.2261832,1.435056-2.4799433,1.9765177-3.7967959.8935087-2.1730651,1.961821-4.2616523,3.0557291-6.3286642.905756-1.7114374,1.9342219-3.3817374,3.3769396-4.7392336.3134444-.294913.6809761-.4693766,1.0440266-.6413332.2601071-.1232223.5973909-.0834143.972271-.1241719Z" stroke-width="0"/>
      <path d="m24.6057987,42.9438965c-.1731611-.17849-.3153384-.3250728-.374225-.3857723-.1188744-.5411296.0264265-.8427659.3834959-1.0578731.0859872-.0283745.1796929-.0801856.2767168-.0873647.2576292-.0192202.5173423-.0345661.7750569-.0237024.6151352.0259055,1.2528376-.0243862,1.8391965.1235262,1.024018.2583717,2.0364676.5436366,3.0057194,1.028435,1.7901932.8954507,3.4261707,2.0041093,5.0294651,3.1845589,1.4413932,1.0612538,2.9787422,1.923088,4.7867177,2.2413995.4927718.086795.9731492.247888,1.4840925.3118542.4953542.061991.9555378.3214263,1.4883268.2916083.4579763-.0256397.8360178.3578536,1.3318467.297458.4586314-.0558755.891852.1191959,1.3384593.2426841.4803014.1328324,1.0257744.0300079,1.4850419.0300079.3782931.1938358.6862785.3516241.9867018.505576-.0374918.1323386-.0644073.2273003-.0933497.329479-.3288484.1169928-.6615941.235353-1.1225895.3993708-.5192458-.0411754-1.1975588.1699434-1.8168429-.2307189-.0753159-.0487343-.2029152-.0155357-.3061577-.022335-.6143709-.0405296-1.265346.0307296-1.8327453-.1542937-.5677127-.1850993-1.1280722-.07426-1.6729471-.1974823-.6397341-.1447976-1.2774651-.3120061-1.9159555-.4538788-1.8909293-.4201864-3.4773196-1.3946452-4.9886171-2.5455048-2.0815356-1.5851383-4.3512517-2.815044-6.8882382-3.501655-.4853855-.131351-.9433333-.3795049-1.4821794-.334607-.5136586.0428087-1.0336781.0092303-1.7169898.0092303Z" stroke-width="0"/>
      <path d="m76.2309573,20.5471843c-.8811476,0-1.6065366-.0075969-2.3316787.0027349-.4585886.0065334-.8950468.0295141-1.355012.2090297-.4523606.1765528-1.0071424.0905934-1.4509679.1160052-.1070543-.1021028-.1697147-.1330223-.1777561-.1745016-.0377861-.1948994-.0605812-.3926476-.0853036-.5654778.1369225-.1509891.2406824-.2654369.3999822-.441116.4771209-.1113331,1.0471406-.1281983,1.5575096-.3720978.0858542-.0410234.2045957-.0166373.3081277-.0167133,1.2431443-.0008357,2.486298-.0005698,3.6900706-.0005698.9044933.3128418,1.503764.941678,2.0404313,1.6469394.1337894.6921187.6334966,1.3130162.3725445,2.0794709-.4406545,1.3137379-1.2424987,2.4314368-2.1541599,3.5745476-.2433597.1353774-.5541457.3082836-.8680743.4829371-.2627274-.0120791-.5183818-.0238164-.7395256-.0339583-.3182578-.2699191-.2300966-.5906616-.2258243-.8902468.7430194-1.338238,1.4843678-2.6734372,2.1616412-3.8932769v-.9839929c-.3705128-.2399872-.7529596-.4877232-1.1420047-.7397135Z" stroke-width="0"/>
      <path d="m24.5493046,32.658483c-.1628078.0886942-.3874833.2110428-.6388465.3479396h-.8076023c-.1403593-.1558511-.3074964-.3414442-.4313171-.4789487-.0170275-.4463959.3223355-.5894461.4676364-.8512365.1484672-.267526.2804432-.5441304.4333299-.8436016v-1.4722859c-.3075771-1.1817411-1.1754141-1.9612626-1.7538834-2.9169569-.2373832-.3921917-.4847351-.7783059-.7117983-1.1419712v-.7472345c.2944469-.6835722.8718909-1.0179892,1.4443173-1.1585325.6058975-.148748,1.2151559-.6621488,1.9300493-.2093715-.5106063.5171233-1.0163801,1.0293846-1.5201317,1.5395567,2.2291483,2.5460366,2.0170001,2.200528,2.7651083,4.2122342v1.5359102c-.2984249.713656-.4788109,1.4664362-1.1768619,2.1844985Z" stroke-width="0"/>
      <path d="m39.5956509,22.4071038c.2094424.4438889.1353797.7105413-.0349284.9919697-.447661.7398275-.9261871,1.4686014-1.2898168,2.2495662-.3824135.8212666-.7308765,1.6783907-.932719,2.5569762-.1460557.6357495-.0285057,1.3320465-.0285057,2.084029.1636765.480696.6761057.9380315.5155431,1.74456-.0673932.0700817-.2077382.2160948-.3776286.3928375-.4289626-.195811-.7895732-.3603986-1.1802987-.5387366-.2828025-.5383188-.5659753-1.0773213-.8899627-1.6940404,0-.2843153.0364285-.6499557-.0065081-1.0059481-.1585498-1.3144976.2776235-2.5229039.6889795-3.7199909.2466636-.7178343.6966174-1.3740575,1.217406-1.9261647.5988008-.6348758,1.3537968-1.0618995,2.3184393-1.135058Z" stroke-width="0"/>
      <path d="m54.0328669,25.3322654c.0112361.2299212.0208963.4275175.0287383.5879268-.2202513.2896331-.4429046.4506501-.7632938.5558677-3.1434489,1.0320435-6.1535878,2.3711931-9.0433143,3.9842122-.6262527.3495729-1.231628.71867-1.7681434,1.1988342-.1831535.1639039-.3463886.3950026-.6478942.34699-.0410758-.0301978-.1092949-.0540902-.1154185-.0888841-.0522407-.2968502-.0931931-.5957516-.1363955-.8863723.6464749-.7967665,1.3478631-1.4382136,2.2901425-1.8237201.607991-.2487236,1.1488166-.6569449,1.7375015-.959075.5390693-.2767183,1.1020777-.5067155,1.6542866-.7578702,1.1533358-.5245303,2.3159187-1.0190528,3.5206122-1.4245012.3982828-.1340479.8319307-.114068,1.1741609-.2870122.3946845-.1994575.7783086-.228022,1.1871012-.2672981.280111-.0268931.5547913-.1103835.8819166-.1790977Z" stroke-width="0"/>
      <path d="m82.5813224,19.2586683c-.3407017.056901-.5960997.1062051-.8300603-.1798574.5181445-1.1775628,1.0328617-2.4010491,1.747418-3.4923867,1.0313426-1.5751864,1.5374108-3.28104,1.7084452-5.1249109.2921019-.3060805.6533011-.2159619,1.0717396-.1616818.1144217.1029764.2664111.2397782.3990423.3591451v1.5061302c-.0146967.0395041-.0515049.1326425-.0841833.2271863-.7354906,2.1279013-2.0466784,3.9521152-3.1311684,5.8946893-.2185519.391508-.6142048.6841039-.881233.9716859Z" stroke-width="0"/>
    </g>
  </g>
</svg>