<?xml version="1.0" encoding="UTF-8"?>
<svg id="Layer_2" data-name="Layer 2" xmlns="http://www.w3.org/2000/svg" viewBox="0 0 77.6007827 258.5741198">
  <g id="Layer_1-2" data-name="Layer 1">
    <g>
      <path d="m77.6007827,251.5042795c-.206292.2350839-.4253868.4847377-.6375055.7264571-.2226662.0216968-.4099516.0399179-.6001414.058455-.5747377,1.0169416-1.4117785,1.7420294-2.4591916,2.2686511-2.2710814,1.1418212-4.6559398,1.9897523-7.0536009,2.8092108-.6291253-.0341953-1.1715008.319554-1.7913684.3845392-.7472284.0783613-1.476582.2960667-2.2444317.266611-.7655769-.0293855-1.5332423-.0041076-2.2999863-.003581-.6709032.0004213-1.3431227-.0265768-2.0123586.0066705-.7038008.0350028-1.4381298-.1543704-2.1013374.2418598-.6707453.0130251-1.3428068.0047045-2.0118409.0456405-.5613032.0343357-1.1564428-.1370621-1.672967.2309412-1.0381116-.0597189-2.089105.1977289-3.1184942-.1598823-.2597495-.0902278-.5653046-.0473608-.8496066-.0683555-.9415074-.0696194-1.9034167.1136801-2.8222933-.2687175-.2064324-.0858393-.4753343-.011375-.7133568-.0334931-.4673402-.0434287-.9462985.0555761-1.3962905-.2150021-.1819501-.109432-.4660327-.0462374-.7031777-.0669863-.6555118-.0572262-1.3205445.0670916-1.9636836-.2475122-.2740264-.1340428-.6618913-.0211702-.9952281-.0513983-.5134179-.0465182-1.0262653.0297366-1.5390777-.2162309-.315699-.1514213-.753248-.0396722-1.1349001-.0644585-.7048274-.0457108-1.4304693.0975654-2.1052159-.2473718-.1159444-.0592625-.2837579-.0131304-.4270628-.023382-.8472373-.0604211-1.7065841.0716908-2.5380615-.2609586-.2923575-.1169451-.6649976-.0213106-.9987381-.0494322-.4671472-.0393562-.9460879.0631595-1.3957991-.2130711-.179458-.1102746-.4659713-.0423755-.7030988-.0632297-.6559681-.0576124-1.3349005.1044466-1.962771-.2499698-.1482277-.0836977-.3766854-.0260853-.5682705-.0317728-.6222018-.0183615-1.2444212-.0359507-1.8666318-.0538558-.5573895-.4046912-1.2373222-.0906491-1.8045748-.2884483-.6974301-.2431588-1.4458168-.0871734-2.0930186-.3095833-.6782304-.2330125-1.4332553-.0649149-2.049455-.4839302-.9739706.0475715-1.8305489-.417611-2.7238068-.6814836-.5783355-.1708712-1.2018755-.2177054-1.7448257-.5343104-.4882555-.2846917-1.0630985-.3686001-1.5798377-.5768965-.5637295-.2272548-1.1273273-.4618121-1.6895299-.6969311-.5216576-.2181618-1.0232774-.48386-1.5427588-.7076742-1.0372561-.4468912-2.0701553-.9014008-3.0694945-1.4300237-.7539237-.3987931-1.480851-.8333613-2.1385698-1.3832948-.2875663-.2404906-.6197668-.4276519-.9643926-.661156-.5004396.3440244-1.0528975.3910342-1.8320582.2325561-.1684629-.1927435-.4513784-.5164403-.6780154-.775784-.4572665-.9610495-.4650368-1.907178-.4521331-2.8576248.0058573-.4312329.0143252-.8639755-.0129388-1.2938393-.0386101-.6087396.1129082-1.2281871-.2021327-1.8262187-.1190113-.2258856-.0244121-.5651704-.0244911-.8527761-.0004563-1.7255637-.0082134-3.4512328.0052738-5.1766912.0036548-.4675347-.0811251-.9380186.1761191-1.4005328.1235216-.222129.0424316-.5609925.0450948-.8470183.0178396-1.917254.0296245-3.8345081.0526282-5.7516919.0045016-.3753057-.0271982-.7454506.1636103-1.1169295.1194456-.2325561.073482-.557587.0761321-.841401.0147377-1.5816907.0305151-3.1634516.0295894-4.7452125-.002751-4.6973953-.0002282-9.3948959-.0309539-14.0921507-.0064672-.9892413.1676644-1.9982485-.2161332-2.9707081-.0821123-.2080858-.0158696-.4746968-.0180195-.7143448-.014198-1.5817258-.0231046-3.1634867-.0461391-4.7451072-.0061513-.4222453.0408477-.8418223-.1818229-1.2570811-.1220518-.2276059-.062759-.5595882-.0629696-.8444905-.0038873-5.2724662-.006103-10.5449323-.0020709-15.8173985.0002896-.3748844-.0479467-.7515243.1584901-1.1177721.1062831-.1885306.079471-.4608642.0848984-.6959832.0199193-.862501.0168744-1.7257042.0452747-2.5878541.0154177-.4681667-.069134-.938826.1943668-1.398321.1261761-.2199874.0505046-.5610979.0505266-.8473694.0002633-3.9304586-.0002589-7.8609522-.0071867-11.7914108-.0006625-.3752004.0126316-.7404652-.1605829-1.116754-.1290718-.2803734-.0688093-.6538886-.0706697-.9860113-.0180063-3.2114795-.0218323-6.4230292-.0543306-9.6343332-.0061469-.6073352.1224686-1.2294159-.2072836-1.8257447-.122609-.2217077-.0274132-.5644682-.0297824-.8520388-.0142112-1.7255111-.0095999-3.4514435-.0499167-5.1763402-.018682-.7993591.1618202-1.6249088-.2275978-2.3912838.1049142-1.2265195-.2388386-2.4759997.2061823-3.6892132.0778739-.2122988.0174447-.475399.0207573-.7150294.0132503-.9585568.0160495-1.9173945.0438444-2.87553.0149614-.5157206.0257415-1.0146947.1923046-1.538929.1811691-.5701733.0650229-1.2329443.0920237-1.8547616.0183266-.4221048-.0821079-.8642389.2033524-1.2485323.04975-.0669863.0417252-.1814738.048697-.2748965.045946-.6154979-.0094902-1.2600126.1602232-1.8387172.1681777-.5735261.1343632-1.13415.1436735-1.6951777.0088584-.5334853.3501059-.9724245.300878-1.520901-.0415673-.4630585.0102799-.925011.228019-1.3864369.1507681-.3195014.0473764-.7547893.0773562-1.1367831.0257415-.3280151.3294407-.5842166.2559631-.9439167-.1014086-.4964814.2709903-.8939403.285412-1.3739033.01404-.4674294-.0715384-.9612777.2512947-1.3814516.0485083-.0631946.0224246-.1851426.0275097-.280075.0277642-.5186697.0590252-1.0201013.2584025-1.5282562.1649441-.420367-.0211785-.9530624.3017862-1.3646875-.103361-.8232677.4114433-1.5586949.3377507-2.3777496.434605-.5162824.1792869-1.1930263.4205211-1.7722224.2492896-.5985582.3304893-1.2651911.5147297-1.8933805.1709331-.5827947.3710124-1.1576725.5755011-1.7298645.5087276-1.4234935,1.1795562-2.7752437,1.9379508-4.0765083.3310334-.5679439.8223601-1.0424125,1.3298812-1.501574.7823328-1.6603153,1.5368401-3.3344457,2.3536281-4.9776282,1.1817675-2.3774512,2.6016102-4.5953711,4.3055882-6.6499154,1.3869495-1.6723223,2.6072306-3.4816189,3.797194-5.3075918,1.0645771-1.6335805,1.8583175-3.389267,2.4164748-5.2354271.2954945-.9773572.7207234-1.9347905.763528-2.9927209.0184977-.4573534.3589072-.8894991.2570117-1.3721128-.1075642-.5094187.3228594-.8809503.2805814-1.377695-.040409-.4747319-.0844508-.9840277.0405231-1.4313578.3667872-1.3128503.2259481-2.6463267.2544669-3.9710962.0104598-.4863527.3592407-.8703828.2800637-1.3805739-.065216-.4202266-.0019305-.8603594.0042383-1.2916801.0068445-.4792433-.0873817-.9874508.0402159-1.4319722.3087931-1.0757126.2236139-2.1655737.2661465-3.2524682.3412607-.7177152.2355216-1.4875483.255125-2.2412493.0199281-.7665505.0069235-1.5341192.0353633-2.3002309.0191208-.5151413-.0566867-1.0255431.1942615-1.5422467.1518606-.3126377.0492981-.7519456.0504564-1.1343607.0185592-6.1353709.0311864-12.2707594.0584153-18.4060952.0031239-.7045321-.1128117-1.4189119.1981225-2.1118934.1076081-.2398235.0187522-.5675753.0206476-.8551634.0129344-1.9651766.0267814-3.9303708.0388646-5.8955474.0035012-.5686637.0689541-1.1145246.2304146-1.6746043.1525801-.5292724.0166989-1.1253906.2992371-1.6607717.1015884-.1924627.0491665-.4662533.0681468-.7177854.2983245-.3179917.5920684-.6310859.8366634-.8918163.330599-.1418368.5891288-.2527609.8814774-.3781846.4086353.1969916.8315125.4008644,1.2745108.6144271.1319413.2294842.3947269.4771368.3907343.7203834-.0103721.6310859.3901551,1.1724881.3073013,1.8116313-.0844333.6513608.1512814,1.3413581-.2395143,1.9566278-.0131713.7188562-.009907,1.4385023-.0450422,2.1562876-.0251755.5144392.098289,1.0427636-.2108726,1.5385428-.1098633.1761901-.0292823.4674821-.0472184.7053571-.0817657,1.0845072.1319676,2.1918697-.2674276,3.2541885-.0635663.1690631-.0164181.3802033-.0185855.5719112-.0113461,1.0065145-.0080818,2.0134503-.0385311,3.0193855-.0170235.5620107.1042736,1.1371167-.2140316,1.679695-.1059058.1805259-.0285539.4698519-.0313532.7094647-.0128993,1.1023772-.0150755,2.204965-.0409969,3.3070087-.0110214.46843.0803002.9447067-.1936911,1.3974433-.1087576.1797184-.0496052.4653756-.0543262.7030575-.0152422.7667085.1004389,1.561644-.0639962,2.2941396-.2861886,1.2748633-.1640754,2.5559233-.2824417,3.8275391-.0514831.5531459-.2609341,1.0907213-.2389878,1.6684253.0217972.5737719.0820991,1.1729972-.0483153,1.7195603-.2122239.8893938-.2584332,1.7756104-.2457094,2.6739919.2831876.3712332.720289.1030599,1.0697895.2659264.3757816.1751017.8268968.1858097,1.2079698.3530121.3753253.164657.7532656.1481036,1.124335.1296894.4925421-.0244879.8713247.3535036,1.3814871.2884658.4695866-.0598242.9882256-.0906491,1.4282843.0474135.9343996.2931879,1.8808386.2098939,2.8245836.2588521.7064333.0366529,1.3745022.3176758,2.1014514.2735624.7152083-.0433761,1.4369013.0064072,2.1550317.0340022.1823976.0069865.3666644.0717961.5420332.1330773.3707623.1295138.7311876.1436448,1.087673-.0352837-.0145753-.1008481-.0277817-.1922871-.0464813-.3216254-1.0728958-.4152588-2.1163251-.9656662-3.2609392-1.2387371-1.1398317-.2719299-2.2650354-.6325429-3.4515239-.6678265-1.1593561-.451859-2.3723452-.0457985-3.6321402-.2554817-.3540547-.1434342-.8215265-.2755109-1.0392787-.6913314-.2165413-.4899688.1993773-.7508748.3000795-1.1502295.3916907-.2047856.8092327-.4230703,1.2266167-.6416183.4509836-.1480509.947492.0307723,1.3960536-.2277288.1877855-.1082383.4615399-.1018837.6938411-.0919833.8947716.0380572,1.8089974-.1767869,2.6800853.2215497.1603548.0733584.3788002.018502.5703502.0250145.2873294.0097776.6468245-.0845403.8480534.0526446.5559065.3789745,1.2081014.1529134,1.7880427.4017597.6400502.2745981,1.342991.4080265,1.978294.7121681.5954731.2850252,1.2227644.531923,1.7587517.9062984.8219038.5740879,1.5494147,1.26728,1.9569005,2.2694411v1.7801569c-.4124173.6130052-.8904192,1.1321664-1.5544428,1.2716861-.5932793.1246865-1.1613744.3833981-1.7892887.3712156-.7661561-.0149034-1.5340847-.005512-2.2995564.0298946-.7998785.0369864-1.618948-.1328842-2.3950023.2304321-.1577661.0738499-.3784404.0132884-.5701133.0146225-1.4855237.010392-2.9710387.0251199-4.45658.0291397-.6707804.0018256-1.359181.0724631-2.007313-.0538207-.6041692-.1177175-1.2149898-.16399-1.809989-.2821112-.6790903-.1348152-1.3231507-.4462417-2.0286275-.69737-.0401721.0377588-.1439455.1352891-.3156902.2966811-.0063443.2218131.0054581.5047669-.0262198.7827529-.0851528.7472235.142796,1.5335399-.2742458,2.2396343-.0134784.6708458-.0170586,1.3420778-.0434627,2.0124146-.0221745.5625724.1005003,1.1360459-.2213938,1.6769917-.1064323.1788934-.0270622.4695886-.0291594.7091839-.012171,1.3899653-.0147069,2.7800886-.0396105,4.1698081-.0083801.4673241.0493595.9271175-.1856005,1.3978997-.1553793.3113563-.0414181.7505763-.0770623,1.1298317-.0569938.6066506.0219463,1.2101942-.2418221,1.8191971-.2155497.4977277.092594,1.146157-.293937,1.6538379.0359776.6258899-.179186,1.2060339-.3313273,1.796921-.1166727.4531229-.2096529.9171468-.3773699,1.3515219-.8025637,2.0784705-1.7012402,3.779283-2.9557131,5.6143314-.8268266,1.209492-1.6623493,2.4133492-2.5144084,3.6051292-.3863511.5404016-.8572803,1.0123424-1.2586982,1.5489348-1.2491422,1.6697945-2.386337,3.3926549-3.2910858,5.2801548-.7332103,1.5296429-1.5912672,2.9994792-2.395871,4.4948215-.9154938,1.701462-1.542693,3.5174643-2.1731039,5.3368544-.4899885,1.4140846-.8871988,2.8556939-1.3213255,4.2849101-.1601881.5273765-.3737063,1.0652153-.405586,1.6345284-.3908439.4616717-.1271984,1.137064-.5214689,1.5976122.0941472.7288795-.3648435,1.3748688-.322469,2.0883008.0217226.3657388-.2391194.6126015-.2860482.9396862-.0399307.2783722.0357231.5774056-.1583014.8302015-.055072.0717259-.1141894.1762252-.1037032.2569036.1192877.9174803-.3294802,1.7709059-.3019135,2.6701826.0207047.6751992-.1897292,1.3028445-.2828673,1.9537138-.0930986.6505884.099715,1.3373382-.2710078,1.9569789-.0644789.1077644-.0123245.282673-.022565.4259843-.0537251.7518929.0662032,1.5190227-.2665808,2.2470772-.091484.2001689-.0100518.4744159-.0314628.7125543-.0631758.7028118.0982539,1.4257229-.2461833,2.1073294-.0975432.1929893-.0264874.4720286-.0298746.7116414-.0135179.9585568-.0253861,1.9170961-.0388953,2.8756529-.0099948.7091488-.3269662,1.3728501-.2616844,2.1029935.059499.6655094.0072964,1.3409368.0059539,2.0119933-.0014347.7189966-.0016278,1.4379756-.0011276,2.1569722.0005046.7189966.0023956,1.4379756.00394,2.1569722.0014391.6710565.0026939,1.3421129.0050105,2.0131694.0024833.718979.0062873,1.4379756.0091787,2.1569547.0021192.5272536-.0114075,1.0551392.0100386,1.5816029.019055.467956-.0667341.9330157.1703013,1.4022707.1360787.2693494.0463584.6559249.0476703.989803.0173131,4.4097545.0270709,8.8195441.0547737,13.2292284.0041243.6566621-.1144307,1.3244887.2124565,1.9672831.1171334.2303443.0291375.5659428.0316603.8535133.0134653,1.5337681.01096,3.0679224.0466524,4.6011639.0130485.5605712-.0788436,1.1225819.1954944,1.6853298.151922.3116898.0416682.7532095.0426466,1.1362039.0182345,7.1419732.0303309,14.2839463.0603546,21.4258493.003159.7509274-.1151327,1.508736.1954198,2.256574.1362498.3281204.0302124.757598.0313005,1.1410488.0186382,6.5667619.0326914,13.1335588.0619517,19.7002504.0027071.6081427-.1271896,1.2324352.1988113,1.8251655.1015577.1846336.0201124.4707647.0201475.7104127.000158,1.102465.0100211,2.2050352-.0058003,3.3072896-.0067173.467956.0797606.9377377-.1796905,1.3999711-.1237234.2204087-.0354028.5616245-.0378247.8481769-.0149834,1.7734512-.0165409,3.547078-.04864,5.3202132-.0118945.6571537.0980126,1.3279293-.2221485,1.965317-.0970825.1932351-.0251141.4720286-.0285583.7116414-.0137592.9585568-.0720254,1.9194659-.0224816,2.8747576.028374.5471599-.3489739.9780418-.2777339,1.5289583.0608372.4704838.0003115.9567312-.0071341,1.435992-.0081871.5271834.0114514,1.0569297-.0346833,1.5807779-.0366884.416628-.1839113.8230044-.227453,1.2396675-.0446736.4274413-.0266366.8617637-.0283082,1.293102-.0005397.1392388.0234249.2785829.0387637.4460837.360965.0901927.7267431.154265,1.0724176.2755987.354296.1243178.6876196.3076524,1.0324298.4599163,1.1578644.5114199,2.3644784.8985921,3.5448814,1.3508549.7426478.2845161,1.4778456.5915366,2.2236042.8694173,1.9310931.7194003,3.8023538,1.5954531,5.7986936,2.1459483.9922709.2736326,1.9854149.541016,2.988795.7658133.5943543.13313,1.1688726.3986526,1.8017624.3206424.5553449.3927896,1.2560832.0822232,1.7949223.314007.9041346.3888575,1.8942205.0472204,2.7811209.4754341.2759833.1332353.6620843.0292099.9964654.0526271.4685161.0328261.9566443-.0794848,1.3930175.2170384.1028696.0699003.2801865.0588412.4185599.0432532,1.0596543-.1194729,2.0529343.3789921,3.1041383.3261544.6016419.3717949,1.3504498.0896661,1.9261352.3689512.5816788.2821288,1.2685262-.0218724,1.7723266.4418005,1.1967026-.0190637,2.2743545.619272,3.4660378.6279086.6151818.4207005,1.4233615.0979516,2.0359196.5287633.9628482-.1057807,1.8529164.4008644,2.8163.3291737.3736142-.0278056.7357594.0478172,1.1122869.1730128.4359695.1450316.9429377.0673725,1.4171575.1086596.7028794.0611583,1.4392355-.1546512,2.1021359.2465292.8450874-.0815561,1.699608.1696073,2.5481616-.1710818.3757816-.1508947.8504051-.0442713,1.2781173-.0794848.7503084-.061685,1.5152711.1168047,2.2529171-.2399288.2753515-.1332002.6619527-.0245757.9958423-.0511876.5146464-.0409712,1.0318112.0491514,1.5396569-.218232.2676294-.140924.6572054-.0435341.9907791-.0671267.6569685-.0465182,1.3278805.0708833,1.9630254-.2436854.195762-.0969686.4742637-.0563134.7111191-.0355645.9629009.0842595,1.8525303-.4340065,2.8154576-.330894,1.1260725-.4733978,2.3475119-.6050883,3.5008396-1.0068656,2.0331115-.7082009,4.0981554-1.3254366,6.1160072-2.0821568.1692263-.0634404.3672874-.0499588.6102327-.0792039-.0701651-.1636038-.1316956-.2722283-.1642684-.3889277-.164286-.5887279.0968587-1.253149-.3189107-1.798062-.0144086-.6228881-.0239909-1.2459869-.044893-1.8686293-.0141804-.422807.0554845-.8465268-.1976311-1.2523064-.1102933-.1767693-.0507021-.4647612-.0536593-.7024431-.0143296-1.1502471-.007178-2.301091-.0412514-3.4507413-.019463-.6566973.0816253-1.3122359-.2032032-1.9703024-.1580908-.3651946-.0415146-.8508451-.0429976-1.2821834-.014628-4.2659517-.0217796-8.5319736-.0494122-12.797855-.0036241-.5600095.1020184-1.1269353-.1903566-1.6851894-.1390139-.2654875-.0397509-.6578558-.0417077-.9927872-.0162601-2.7800359-.0271324-5.5601069-.050237-8.3400726-.0035012-.4212974.0677169-.8475098-.1758427-1.2572917-.1080644-.1818249-.056713-.4640239-.061118-.7009686-.0160671-.8626063-.0134433-1.7257393-.0409969-2.5878892-.0179976-.562783.0955425-1.1366954-.2220081-1.6779923-.1059409-.1806312-.0290717-.4697817-.0318358-.7093945-.0138119-1.1982399-.0162075-2.3966904-.0443577-3.5945792-.0110039-.4678156.0734996-.9387558-.1858287-1.3997605-.1245702-.2214269-.0450422-.5607468-.0483855-.8468077-.0151194-1.2941201-.0142068-2.5885563-.0450246-3.88222-.0156722-.6576101.1105565-1.3284559-.2191474-1.965949-.0984821-.1903913-.0220253-.4716424-.0245525-.7112904-.0136452-1.2941201-.012364-2.5885914-.0470605-3.8821498-.0150492-.5614138.1100739-1.1380295-.211206-1.6810467-.1062129-.1794727-.0276413-.4692199-.0307477-.7086221-.0124254-.9585919-.005186-1.9178509-.0414181-2.87553-.0284662-.7522615.122824-1.5202515-.2229119-2.2527823-.0930767-.1972374-.0205687-.4728361-.0232012-.712484-.012636-1.1503173-.0103545-2.3010559-.0433925-3.4507764-.0175149-.6095119.112487-1.2335587-.2178312-1.8230941-.103089-.1839665-.0240523-.4705891-.0267375-.710202-.0128642-1.1503173-.0134082-2.3009506-.0429888-3.4508115-.0132591-.5152116.0986225-1.0421141-.2038438-1.5397014-.1082136-.1780332-.0383293-.4671837-.0416726-.7057082-.014119-1.0065145-.0116445-2.0134152-.042006-3.0193679-.0212794-.7055326.1037734-1.4233531-.219709-2.109471-.0928485-.1969565-.0201036-.4727658-.0205336-.7124138-.0016322-.9107396-.016734-1.82176.0023166-2.7320782.0117673-.5623618-.105037-1.1361336.2076522-1.6798881.1048001-.1822813.0373992-.4705189.0292121-.7096754-.0437084-1.2775842.1362059-2.5574856-.216278-3.8330686-.1606707-.5813903-.0242717-1.2402994-.0618902-1.8616779-.0397158-.6560653.1277029-1.3309134-.225913-1.9660543-.1028696-.184774-.0249825-.4707998-.0281854-.7104127-.0128379-.9585568-.012873-1.9175349-.042243-2.8755651-.015795-.5154924.0766849-1.0356893-.2027908-1.5404387-.1231048-.2223397-.0372939-.5626251-.0393297-.8494232-.0115567-1.6296659-.0056862-3.2596303-.038303-4.8888574-.0140927-.7042512.0838717-1.413242-.2216308-2.1105944-.142208-.3245921-.0205511-.7582124-.0518692-1.1396444-.0460162-.5605361.1015797-1.1442085-.2409446-1.6752012-.0891279-.1381855-.0171025-.3758323-.0331345-.5666098-.0591261-.7033208.0771149-1.4214924-.2564852-2.106083-.1146457-.2352595-.0148912-.5683652-.0432433-.8537591-.065058-.654661.0893648-1.3225226-.2368993-1.9674411-.1364692-.2697181-.0158126-.6616124-.0450422-.9950692-.0907688-1.0356718.1554232-2.0945676-.2539229-3.1130188-.1002634-.2494607-.0113637-.5704717-.033661-.8567082-.0511233-.6560477.0815726-1.3288947-.2490966-1.9620344-.0997983-.1910935-.051018-.4733978-.0317217-.7107813.0781065-.9607511-.44141-1.8502151-.3255534-2.8134237-.4847937-.6070017-.0485873-1.4245292-.4676122-2.0465572-.0308267-.710202-.3958238-1.353014-.4029052-2.0748193-.0026237-.2668217-.1686823-.5302027-.2492545-.7984287-.3227103-1.0744487-.5141988-2.1839353-.8669021-3.2505899-.5886549-1.7801569-1.2373398-3.5344917-1.9836292-5.2583-.5612505-1.2964197-1.1215621-2.592857-1.7747222-3.8421616-.765691-1.4645525-1.585129-2.9012467-2.627479-4.1998782-.4419716-.5506532-.7911035-1.1748403-1.2032488-1.7507012-.7438061-1.0392704-1.5031615-2.0674114-2.256278-3.1000113-.251071-.3442526-.4971753-.6923144-.7555208-1.0310199-.6057311-.7941982-1.2374538-1.5595024-1.9703701-2.2498156-1.2145247-1.1439452-2.3484508-2.3680071-3.2092806-3.8144438-.6964298-1.1702061-1.5343217-2.2663165-1.8990029-3.6116769-.0365129-.1346747-.110732-.2600458-.1397072-.3956684-.1077134-.5040998-.2047213-1.0105168-.3040282-1.5163896-.089944-.4581433-.2041509-.9135833-.2585736-1.3760098-.050237-.4268269.0806512-.9090719-.0730345-1.2825871-.3253252-.7905996-.1782734-1.5968574-.2527646-2.3933727-.0262198-.2804436.0432609-.5698047-.132538-.834239-.0737277-.1109065-.1085032-.264013-.115532-.4002676-.0344507-.6682829.0871535-1.3846991-.1173133-1.9929822-.2091966-.6223966-.1824064-1.2220256-.1929277-1.8274475-.0092576-.5330465-.3556868-.9721436-.2903919-1.5224458.0558881-.4709753.1159444-1.0081119-.0525448-1.4241255-.2842406-.7017234-.2560727-1.4089939-.225562-2.1068554.0240874-.5510394-.3506763-.9711957-.3044494-1.5237623.0381275-.4556682.107029-.9593116-.1928926-1.3915803-.0491928-.0708833-.0673746-.1822287-.0591612-.2711224.0975519-1.0564207-.3966311-2.0486988-.3306868-3.1012225.0300983-.4802965-.3219468-.8737707-.2825558-1.3776423.0360566-.4613557.0811251-.9598734-.2431822-1.3798893-.0477712-.0618429-.01096-.187056-.0180678-.2826028-.0452791-.6099508-.0126887-1.2123358-.2484297-1.8194428-.1635401-.4212271.0317129-.9712308-.0898211-1.4214222-.3159623-1.170364-.0852055-2.3866495-.3125488-3.5336491-.2827664-1.4265128-.1617412-2.844863-.2479734-4.2644771-.0200948-.3307886-.0205862-.6464106-.1762463-.9695983-.1144965-.2376995-.0693666-.5595707-.0696123-.8439639-.0029133-3.4510924-.0039839-6.9021672.0038259-10.353242.0008512-.3742349-.0540366-.7518402.1527205-1.1190009.1062392-.1886534.0812655-.4604605.0863199-.6953162.0196034-.9104762.0084065-1.8219882.0455599-2.7316043.0307214-.7519807-.0546157-1.4977121.2030716-2.257083.1749125-.5154222.0334065-1.1382928.0334065-1.7144169.2952971-.4563879.5747026-.8882001.8211492-1.2690881.4407607-.1497888.7945433-.270034,1.1802056-.4010926.718534.1201049,1.2293018.5992955,1.6681408,1.1785969.0986049.5559896.3198057,1.0769414.4465785,1.6270504.1289226.5594653.2224381,1.1056071.2362061,1.6714621.0218674.8990134.3597847,1.7546859.2883473,2.6761159-.07013.9047361-.001834,1.8200923.003159,2.7307968.004721.8627819.0072833,1.7255637.0086785,2.5883456.0014654.910722.0002018,1.8214616.0005177,2.7321836s.000781,1.821444.001834,2.732166c.0005616.4793311-.0175237.9597329.0084679,1.4377299.0409004.7520509.3097583,1.4721709.2489211,2.2477969-.0597404.7618285-.0044226,1.5327149.0010969,2.2996165.0058705.8148242.0134258,1.6296659.0185943,2.4444901.0048701.7669192.0083187,1.5338208.0110916,2.30074.0027641.7669192.0018077,1.5338734.0066339,2.3007751.0023868.3785883-.0167778.7471182.1922783,1.1096621.1045895.181351.0292296.4678858.0311162.7068843.0163391,2.0610393.0223851,4.1222191.0525273,6.1830477.0103107.7052518-.1114867,1.4232478.2189017,2.1086459.0944807.195991.0225255.4725552.025702.7122032.0127062.9585568.0102492,1.9176051.0426905,2.8754949.0206301.6091082-.1463323,1.2483567.2361183,1.8120526.0144086.6708458.0173219,1.3422183.047157,2.0123795.0208231.467605-.0276238.9236944.1890667,1.3978646.1650757.3612098.0439453.8466672.0821781,1.2740032.058547.6541519-.11354,1.3341083.2509832,1.9594891.0844596.1449087.0342226.3772893.0222973.5679439-.0540454.8640633.2687877,1.6725505.4016416,2.5063506.1156022.7255618.4759046,1.4188944.8407613,2.080261.5691919,1.0317572,1.1271518,2.0697461,1.698125,3.1005028.0674361.1217549.1866272.214809.2925417.3331409.3295723.0466411.6526863.0923694,1.0060214.142381.4893216.701109,1.0213601,1.3710771,1.4498533,2.1018174.4857151.8282882,1.0804774,1.5532531,1.7322335,2.2485166.4539144.4842111.8440169,1.0276145,1.2800653,1.5293796.4363644.5020811.8706315,1.0035127,1.2911921,1.5200584.8391731,1.0306864,1.6889025,2.0522974,2.4745391,3.1245869,1.2558463,1.7140834,2.5252236,3.4175466,3.4224523,5.3649409.4934459,1.0709905,1.0994403,2.090337,1.586612,3.1638905.5424105,1.1952908,1.0643402,2.4065558,1.482277,3.6488739.2095037.6227302.6384883,1.1666953.6684989,1.8502678.3790108.4145566.1593018,1.0047591.4643655,1.4780867.2387245.3704257.2307392.8970649.345657,1.3509426.1267377.5005188.3229296.9790599.3095126,1.5167934-.0092401.370022.3311343.6713549.263628,1.0878424-.0538874.3324212.1180679.6344387.2255795.9505873.1185681.3486762-.0339593.7933556.0957004,1.1336585.245455.644269.1304671,1.3275255.2962974,1.9507121.199544.7498917.2492282,1.4911118.2548793,2.2470948.0032468.4337256.3465696.7685166.2752988,1.2367184-.0639348.4199457-.0778959.8824775.0309232,1.2872916.3527208,1.3121833.2404181,2.6468357.2622679,3.9730798.0080116.4863527.3392775.8765091.2694196,1.3844358-.0645842.4695008-.0030011.9564854.00437,1.4357463s.0280362.9586621.0217357,1.4377123c-.007529.5724553.3451392,1.0703761.2761149,1.6700227-.0651546.5658375-.1085207,1.180563.0435329,1.7154702.3207359,1.1282694.2088982,2.2661234.2520977,3.4005718.028826.7569309.3605043,1.4620949.2799671,2.2464102-.0729204.7101494-.1276064,1.4705384.0474378,2.1472473.3179542,1.229135.1603021,2.461974.2522732,3.6894238.045595.6083709-.105388,1.2244481.2113464,1.8266751.1393123.2648556.0366357.6590495.0373553.9945426.0069761,3.2594021.0117761,6.5187691.0191032,9.7781711.001834.8147891-.0018779,1.6299292.0208758,2.4442268.0130748.4685529-.0752195.94497.1950425,1.3978295.1079767.1809121.049456.4655687.0537909.7032506.0148649.8146838.0173833,1.6296835.0382416,2.4441917.0096174.3755866-.0378818.7511732.1679627,1.1162624.105976.1880039.0723501.461777.0789401.6974227.0174009.6228179.0066339,1.2467944.0370657,1.8688048.0252019.5148956-.0973238,1.0424301.2093984,1.5387886.1092315.1767693.0390225.4672539.0429274.7059188.014119.8626765.0157336,1.7256691.0409004,2.5879945.0123114.4217889-.0598895.8480716.1794668,1.2575024.1073361.1836154.0603283.4638133.0642507.7005122.0166901,1.0064443.0086609,2.0136258.0449193,3.0192626.0219551.6090555-.1102669,1.229135.210153,1.8254814.120718.2246919.0276501.5649246.0299316.8524952.0140751,1.7734512.0065637,3.547429.0503335,5.320143.0209109.8467024-.1530978,1.712012.2151987,2.5407741.0892069.2007131.0178659.4735031.0178221.7131511-.0006845,3.5470429.0002457,7.0940506-.0058266,10.6410935-.0006406.3750249.0508951.7497689-.1542386,1.117421-.1042999.1869156-.0619429.4632867-.0627151.6992483-.0047034,1.4379932-.0363023,2.8770045.0089242,4.3135583.029642.9415645.267375,1.8674005.2242282,2.8237806-.0431468.9565205-.0010618,1.9168327.0024921,2.8754949.0035539.9586621.006669,1.9172891.0081608,2.8759513s.0012636,1.9172891.0008073,2.8759513c-.0004651.9586621-.0025799,1.9173243-.0031502,2.8759864-.0005792.9586621-.0014479,1.9172891.0002106,2.8759513.0016497.9586621.0052124,1.9172891.0098631,2.8759513.0046508.958627-.0019042,1.9176051.0235083,2.8757406.0123816.4674645-.035144.9263276.1691561,1.4024989.1579066.3680032.0749738.8451225.0763515,1.2737925.0149526,4.6494376.0195859,9.2989454.0441208,13.9483128.0032029.6068086-.1649266,1.2488658.2349425,1.8091913v1.3244536Z" stroke-width="0"/>
      <path d="m18.5311276,139.6107744c.3090914-.1085718.6182092-.2171086,1.1174642-.3924209,1.9077472,0,4.0154552-.0143768,6.1227683.0080573.7038885.0074956,1.4173681-.0820126,2.1077168.2387527.279739.1299527.6621457.0294557.9963952.0535574.6092411.0438851,1.2158585-.0468342,1.8248539.223902.3636984.161708.851151.0301228,1.2806884.0616323.8460351.0620711,1.712674-.134113,2.5380878.2418773.1992194.090772.4731229.0168519.7126635.0198361,1.1019411.0137097,2.2041719.0166764,3.3057269.0455352.8014931.0210122,1.5670262.3243287,2.3885263.2707889.762453-.049678,1.5647271-.12179,2.2914131.0548915,1.2301267.2990334,2.4613854.1603036,3.6890901.2470733.2809587.0198536.5647868-.0267524.8367687.1300756.1538349.0887182.3666731.1332177.5437707.1138556,1.0608038-.1159797,2.0531362.382064,3.104112.3279975.5640146.3286822,1.2457638.1202102,1.7920617.3358442.5349518.2111402,1.1167534.1340954,1.6334531.4366572.2994126.1752948.7558981.056015,1.1126203.1647273.9100489.2773541,1.7844186.6387921,2.4047163,1.42072.1781681.2245866.3730614.4358848.5683846.6626656v.7476975q-.418086.8193005-1.0904897,1.2717563c.0428309.5613436-.1189893,1.1667304.2088017,1.7592149.1028345.1858623.0316164.4697114.034793.7087626.0108196.8146662.001913,1.630017.0339067,2.4438231.0277203.7047251-.1107408,1.4241606.2264746,2.108172.0959286.1945692.0255178.4722392.027694.7118521.016497,1.8210929.0202089,3.6423614.0545894,5.4631032.0114865.6084236-.1308356,1.2325405.202159,1.8238665.1033873.1836154.0237979.4704838.0272903.7100967.0132591.9104587.0176115,1.8211631.0428923,2.7312707.0130221.468588-.0902511.9502713.2078013,1.3925633.0913129.1355173.0294753.3717949.0448491.5613436.083977,1.0354787-.0732451,2.0782598.2554234,3.1122991.1670238.5255333.039707,1.1417509.0652335,1.7160494.0229028.5150711-.0905056,1.0400427.2139351,1.5351022.1086699.1767693.0351791.4674294.0393735.7062348.0126273.7187333.0182784,1.437607.0353458,2.156235.0089242.3760079-.0376185.7490316.1808708,1.1113473.1093543.1813334.0633206.4622334.0700598.6985812.0163654.57479.0098631,1.1504577.0363549,1.7246509.025939.5619405-.1142684,1.1418914.2267378,1.6748676.0883118.13801.0235083.3751302.0259741.5667854.0117059.9104587.0164619,1.8210929.0360039,2.731341.0090646.4226315-.0266497.8358539.1817571,1.2559225.135618.2733518.064865.654661.0671553.9877316.0158301,2.3003889.0150141,4.6008831.0462093,6.9010262.0089066.6559951-.1366359,1.3294389.2112411,1.9667565.1016674.1862485.0264391.4709753.026562.7105531.0021499,4.2652495.0042998,8.5305341.0033257,12.7957837-.000079.3783952.0173219.7481539-.2018957,1.1082929-.1084154.1781737-.0412075.466306-.044621.7047954-.0144349,1.0063389-.0131713,2.0130641-.0421377,3.0189466-.0203054.705322.0117498,1.3984966-.1993334,2.1120339-.1833804.6199039-.081169,1.3316156-.0643385,2.0017242.0232626.9266435-.2926997,1.7563887-.6702714,2.5717395-.3124084.6747077-.7667177,1.1902001-1.5557152,1.3085145-.0883118.0132358-.1670413.0904736-.2502549.1382557-.0944456.0112697-.1888648.0319835-.2832841.0320186-7.187148.002598-14.3742872.0039672-21.5614352.0036864-.5749395,0-1.1501774-.0034757-1.7247046-.0227852-.3751147-.0126038-.7507384.0377061-1.1152178-.171468-.186285-.1069042-.4627596-.0573667-.6985972-.0769921-.8934466-.074359-1.8122179.1140312-2.6775581-.2720177-.121771-.0543474-.2845652-.01299-.4278526-.0232767-.7044677-.0506961-1.4273453.0782209-2.1030836-.2632055-.1553618-.0785017-.3780456-.0189584-.5691129-.0323346-.5631284-.0393913-1.1227555.0188882-1.6792938-.2342413-.3217187-.1462955-.7556699-.0376008-1.1380153-.0613339-.2820556-.0174838-.5866191-.0048098-.8384798-.1089054-.5668227-.2342062-1.2093299-.2085773-1.7430093-.5392606-.2402294-.1488584-.5130669-.255236-.7276337-.4332692-.4419585-.3666691-.8546654-.7685517-1.1573905-1.0446419-.1986534-.5784413-.3854956-.966737-.4574595-1.375255-.0739822-.4199984-.0351878-.8597977-.0469595-1.2908551-.0103282-.3779739-.0270578-.7364629-.1805461-1.111909-.1356663-.3319121-.0708934-.7511732-.071964-1.1319207-.0166857-5.9427151-.0252765-11.8855005-.0501712-17.8281454-.0025491-.6081778.1156241-1.2275903-.2002899-1.8252357-.1194807-.226026-.0263777-.5650651-.0281854-.8526005-.016598-2.6358469-.025781-5.271764-.0550457-7.9074705-.0057125-.5142636.0947308-1.0357947-.1901811-1.5420536-.1244869-.2212513-.043138-.561484-.0455424-.8477556-.0153124-1.821128-.0148386-3.6424667-.0479994-5.4632437-.0128291-.7044443.1034751-1.4197019-.2132243-2.1102784-.1095079-.2387352-.0243288-.567312-.0262461-.8548474-.0140444-2.1086635-.016519-4.2175376-.0487628-6.3259202-.0085776-.5605712.1102669-1.137538-.2101092-1.6806254-.1058136-.1793673-.0253818-.4695008-.0276282-.7090083-.0139435-1.4856349-.0101395-2.971656-.0474729-4.4566941-.020108-.7997979.139286-1.6158509-.2187087-2.3963745-.0912427-.1988875-.0205774-.4730818-.0205906-.7126947-.0001623-2.9714453-.0023298-5.9428556.0040935-8.9143009.0008117-.374744-.0494122-.7503832.1560726-1.117105.1054319-.1881268.0697614-.4618121.0764743-.6974402.0122763-.4310574.0063663-.8625888.0122192-1.2938744.0097578-.7187859-.0956346-1.4660621.068432-2.1481601.1579899-.656785.1264218-1.3203635.2675724-1.9566102.2010577-.9063159.3603858-1.849039.9618523-2.616713Zm35.7541628,5.9125397c-.6489569,0-1.2236683.1350785-1.689622-.0324399-.6600046-.2372431-1.3096986-.1826148-1.9663073-.2296071-.2863553-.0205031-.6128828.0683555-.8546171-.040427-.7798714-.3509407-1.5962294-.1807366-2.3934228-.255078-.1904005-.0177472-.4233949.0548564-.56763-.0307196-.8169986-.4848606-1.81428-.0053364-2.6172298-.5144918-.9606106.0917551-1.8520565-.4152588-2.8140009-.3256804-.1379521.0128496-.3121276.0174312-.4160677-.0530484-.3918575-.2657158-.828371-.1845107-1.2512833-.206541-.3825384-.0199239-.8036869.0755527-1.1418148-.0532063-.9770111-.3721284-1.9807247-.1752421-2.9694768-.2463887-.476984-.0343006-1.0069954.1076766-1.4253271-.0553128-.7054856-.2748614-1.4080227-.1761198-2.1119113-.2160904-.6211488-.0352837-1.2449214-.0234522-1.8674567-.035898-.2378119-.0047571-.525036.0627031-.7033883-.0453597-.4522033-.2739837-.9296436-.171784-1.3973699-.2001689-.4297919-.0260853-.8618389-.0140257-1.2928593-.0208191-.4310292-.0067759-.8648839.0117963-1.29221-.0321941-.4165416-.042867-.8243784-.2040132-1.2395774-.2197768-1.0523623-.0400232-2.1067428-.032633-3.1602721-.0295259-.1258953.0003686-.2515229.0918779-.4212582.1583727.0941692.2465818.2146634.4560544.2490527.6788329.0434232.2812686.0183003.5733681.0197921.8607983.0029835.5748953.0047034,1.1498082.0056511,1.7247036.0160232,9.7255265.0317305,19.4510706.0481661,29.1766147.0006494.3827486-.1118114.8228288.0381406,1.1356772.2706612.5646789.1781023,1.126514.181371,1.6860671.03134,5.3657133.0444499,10.7314968.0632548,16.0972804.0013426.3832402-.1065595.8153157.0334328,1.139504.2828366.6549067.187961,1.3130785.1904268,1.9692843.0176202,4.6950079.0172166,9.3901563.0258249,14.0852344.0016673.9102129.0447175,1.8211982.0174974,2.7303228-.0174974.5846203.3789757,1.0768711.3046249,1.6622638-.0049842.0392158.0368024.084435.090295.1976236.1453319.1524394.341831.358524.5021858.526727.7433235.1883199,1.4041354.4841409,2.1353581.397143.7211402.3089865,1.4858923.2530944,2.2423344.2699463.3823804.0085313.8197715-.0892799,1.1343561.0631595.5142866.2492676,1.0252299.1840016,1.5395954.2029951.8613124.0318431,1.723985.0266471,2.5860784.0376359.2394528.0030544.524527-.0743941.709917.0278758.590015.3255926,1.2137788.2077698,1.8218002.2114562,3.8795871.023382,7.7593059.0263311,11.6389807.0376359.3831263.0011235.809882-.0940195,1.1407531.0409712.8363651.341286,1.6937463.1730479,2.5392374.2398235.2860307.0226096.6068982-.064634.855793.036372.8295469.3368272,1.6903153.1821409,2.5362275.2441418.609715.0446575,1.2289157-.0722876,1.8205717.2422109.2289755.12179.5646728.0523462.8517213.0517143.1808883-.0004213.3832755.0697949.6151818-.2007482.0411373-.4495594.1018429-1.0032143.2398477-1.5499881.1598985-.6334908.0887418-1.3334763.0654266-2.0027774-.0233942-.671548.339453-1.2702115.2787123-1.9556272-.0588716-.664421.0061688-1.3399011.0187522-2.0104661.004484-.2390862-.0677783-.5270781.0390664-.7072529.23976-.4042699.2115658-.8242683.2116009-1.2484094.0007634-8.6235355-.0018428-17.2471062-.0042471-25.8706417-.0000702-.2395075.0715779-.5159137-.0221306-.7119925-.3498075-.7318988-.1662428-1.5005558-.2288087-2.2507811-.0902336-1.0820671.1331522-2.1781424-.2510008-3.2541359-.1531154-.4289509-.1047826-.9559939-.0489734-1.4265831.0651984-.5498633-.2923399-.9856954-.2908833-1.5204973.001404-.5148254.1019219-1.0540158-.1267113-1.5532882-.2494125-.5446322-.1172606-1.126514-.1772994-1.6894375-.0050632-.0475364.0141892-.1072553-.0080555-.141907-.3907518-.6095471-.2026504-1.2994566-.274395-1.9525728-.0258951-.2355754.0433837-.5227247-.0681907-.6995994-.25466-.4037433-.1690157-.8318867-.2072397-1.251534-.0216831-.2380681.0703757-.535153-.0409706-.7069721-.2873294-.4433804-.2662693-.9233785-.2313359-1.3853661.0379783-.5023971-.2805551-.8974687-.2892072-1.3765891-.0127501-.7068316-.0183486-1.4034117-.2546775-2.1027653-.1752109-.5185468-.0874958-1.1014468-.2656902-1.6663364-.1800635-.5707877-.0671289-1.2337342-.0854775-1.856201-.0056072-.1904264.0472711-.4264582-.0442788-.5623266-.298421-.4429942-.2017992-.9256605-.2034665-1.3934059-.0101088-2.8265893-.0031151-5.6531434-.0082924-8.4797151-.00086-.4697641.0523869-.9445662-.0665937-1.5616966Z" stroke-width="0"/>
      <path d="m48.9260325,19.4453414c.1709989.2085422.3502112.4270902.4829598.5889737.1372765.5011683-.1880751.7852632-.3200602,1.150528-.2367501.1265121-.4858467.2596245-.7183234.3838546-.925335,0-1.8348487.0230485-2.742423-.0089877-.5118822-.0180456-.9785731-.3076524-1.5233704-.2589048-.5138654.0459741-1.0482117.0573491-1.5246516-.239648-.0713234-.0444469-.1891807-.0303334-.2829857-.0201345-1.1037839.1200346-2.1421237-.3964759-3.2407128-.329437-.4788881.0292275-.8754666-.3225207-1.3782228-.2755636-.4645673.0433936-.9440346.0322292-1.3841284-.2312396-.1445334-.0865239-.3751586-.0268753-.5661382-.0384785-.7040465-.0427617-1.4244671.0793268-2.0987751-.2627842-.1546071-.0784315-.3773962-.0330718-.5682793-.0272966-.5268875.0158689-1.0185609-.1283728-1.5234494-.2598527-.4938847-.1285835-1.0557055.0762548-1.5192988-.2720001-.62243.0147279-1.2005549-.2606426-1.8007752-.3089163-.9127078-.0734111-1.7328829-.4265811-2.5593673-.7315302-.9702895-.3579974-1.6392446-1.1074679-2.0503808-2.1076102-.150948-.5054866.1107057-1.1150863-.2567747-1.6287882-.0057915-.7612843-.011583-1.5225686-.0173745-2.283853.3497373-.4690268.1842843-1.0137292.2193142-1.5276944.0227449-.3338079.0181292-.6695819.0228326-1.0045133.0117234-.8339406.3769048-1.5186541.8222022-2.2047544.4465171-.6879435,1.0432801-1.0249111,1.8063298-1.2437049.3625752-.1039551.7086709-.2221817,1.0885768-.2609937.168419-.0171854.3238247-.1618308.4598463-.2349962.0917165-.5155802.1374081-.9863098.2638035-1.4342366.2043001-.7240346.5669631-1.3865949.879231-2.0694126.6034847-1.3196437,1.7448169-1.7810082,3.0528132-1.9770344.55624-.083373,1.1119534-.0913513,1.6749502-.2271056.5685777-.1370884,1.2186139-.1574248,1.8242397.1027351.2471749.1061669.5572579.0863221.8389712.0883232,2.1051282.0149648,4.2103616.0151404,6.3154284.0354329.3732018.0036074.7397871.0375481,1.1201054.1267052,1.0332766.2422284,1.7964053.8168254,2.4266275,1.6541802q.4597761,1.3538039.422456,2.9391634c.1008777.1065531.2278786.2407012.3923225.4143986h2.4694847c.2914098.1533171.5006853.2634162.7798188.4102734.1790105.3565404.3898216.7764159.6492815,1.2931547.0141015.6154628.0252808,1.3296847.0491489,2.0434677.01096.3278571.0524395.6451116.1309936.9743028.1165937.4885996.0500615,1.0249462.0306336,1.5398243-.0067831.179736-.1444193.3538898-.1540894.5342577-.0307214.5730697-.0801511,1.1527222-.0257547,1.7205784.0525887.5489505-.3969733.9707393-.2859078,1.5197424.1184453.5854278-.2617765,1.0872983-.3191476,1.6546629-.0581521.5749305-.4500183,1.0243143-.8045644,1.4717496-.2043966.2579393-.3713678.5455625-.5574158.8231624Zm-22.4909472-9.0389874c0,.7142394-.0058178,1.5287652.0016409,2.3431681.0073798.8055556-.0559145,1.6153067.0554143,2.4218805.3570469.1445928.6661208.2543232.9617338.3928422.5286162.2476702,1.090244.2943464,1.6598133.3096536.6106363.4362007,1.3774506.2070676,2.0464759.4979208.5428142.2359792,1.2417975-.1011816,1.801056.2950135.6221053.0090754,1.2441931.0195026,1.8663159.0268928.7664983.0091106,1.5331019.0109713,2.2994598.0261555.2358726.0046518.5119612-.0279109.6982374.0799412.4067925.2355052.8396294.1283377,1.2547231.2017839.4131193.0731302.8165159.2281325,1.2309691.2607128.7083111.0556464,1.359646.4147146,2.0828572.3608061.321824.268542.7510279.1394143,1.0839699.2763008.3628472.1491919.7157348.2115966,1.0928239.2595543.3587581.0456405.7088289.1594962,1.0239312.2341536,1.0597508-.8747362,1.6687989-2.0162414,2.394818-3.0795081-.0543174-.6196406.3657781-1.1567772.3096618-1.7973949-.0499387-.5701558.0106002-1.1491763.0001492-1.7238786-.0112671-.6191491-.048403-1.2378418-.0742455-1.8567277-.4051604-.5328885-.021569-1.2257822-.3546777-1.8020819-.3786949,0-.8070214-.1155057-1.1167095.0269981-.4683406.2154585-.9300648.1722228-1.3980368.2062075-.3818101.0277354-.8088905-.081995-1.1410602.0531888-1.0287662.4186818-2.0804791.1056754-3.1142559.2028371-.7638921-.3915081-1.589069-.2187938-2.388658-.2429481-1.1010285-.0332649-2.2037331-.0293504-3.3054286-.0166061-1.0391032.012007-2.0944753-.1329018-3.1005844.2693319-.7679023-.037355-1.4553289.4369556-2.2308655.3510285-.4427614.3879798-1.0467726.0955292-1.502793.3375821-.5432266.2883429-1.1278099.1041482-1.6951327.2567983-.1255179.2354526-.2578365.4836669-.4416031.8283935Zm4.408177-4.9422568c.315506,0,.5384793.064476.6920773-.0114628.5832934-.2883078,1.2007742-.2450195,1.8129725-.2470909,1.8177549-.0061615,3.6358784-.0194323,5.4532472.0087068,1.5057941.0233118,3.0202227-.1495079,4.5718838.2330652.020867-.2400166.0362408-.4169615.0508425-.5850065-.6261594-.8111378-1.5268453-.9452684-2.4050936-1.0726406-.564041-.0818019-1.190955.0875245-1.7068386-.0928083-.5202273-.18186-1.0200877-.1798062-1.5344708-.2244813-.1428925-.0123932-.3185948.0347044-.4243514-.0322468-.4789408-.3031937-1.0112425-.2619767-1.5261872-.2432641-.5358029.0194323-1.0147262-.2258505-1.5235196-.2592032-.9468601-.0620536-1.8987484-.0406025-2.7781725-.0119719-.5621105.6404773-.433881,1.4186135-.7370757,2.0518059-.0493244.1030072.0258512.2656806.0546859.4865984Z" stroke-width="0"/>
      <path d="m70.6400566,243.0851083c.2242896.2248675.4262555.4273359.634794.6364048v1.472013c-.1818273.4326373-.6469123.5873938-1.0236153.6723555-.7648837.1724862-1.3800655.5807584-2.0224236.9723894-1.08619.6622092-2.17066,1.3288421-3.2784366,1.9535909-1.1068025.624152-2.3036104,1.0402534-3.5276472,1.3717793-.2255444.0610881-.4679457.0835222-.7025723.0835222-1.2924996.0000702-2.5851483-.0269279-3.877446-.0145348-.6687797.0064248-1.2687192-.3478863-1.9544171-.2848672-.6160505.0565943-1.2753707.1121002-1.8593134-.0433936-1.5085582-.4016368-3.0327535-.1774013-4.5469013-.2485303-1.1466323-.0539261-2.298477.0132007-3.4467503-.0187828-.8461755-.0235575-1.6974932.1159621-2.540422-.1994141-.3805377-.1423634-.8531517-.0398126-1.2840141-.0460267-.8617336-.0124283-1.7235199-.0209244-2.5852097-.0355996-.3766503-.0063897-.7431304.0207138-1.1127695-.1713627-.2321696-.1207017-.558425-.073727-.8428235-.0780453-1.148984-.0174136-2.2983279-.0156933-3.447075-.0415329-.5144358-.0115857-1.0226237.0495375-1.5371297-.1973076-.3152164-.1512106-.7540115-.0344411-1.1359795-.058771-.7984657-.0508365-1.6053028.0872086-2.3924839-.2456515-.329353-.1392739-.7571529-.0381625-1.1392438-.0618254-.5637251-.0349677-1.0815392-.3912097-1.6655872-.2660844-.5535724.1185952-.9936837-.3386177-1.5197376-.2811809-.5930161.0647043-1.0844876-.2865524-1.6568385-.3485182-.6378477-.0690225-1.2774723-.308179-1.8695012-.5765805-1.3703735-.6213785-2.7959814-1.1311132-4.0786047-1.9369848-.9569602-.6012615-1.9384817-1.1694863-2.8525671-1.8305721-.5297613-.3830646-1.0564997-.8142625-1.3495855-1.4530195-.1165543-.2540072-.3366099-.4605131-.5108687-.6903659v-.7493125c.111162-.1310937.2334683-.2753178.3858334-.454966h1.0141075c.0400931.0154827.1442.0287184.2111315.0856638.6169324.5249365,1.3149592.9276968,2.0268155,1.2969639,1.3382525.6941576,2.6915542,1.3598074,4.0466285,2.0208581,1.6040787.7826301,3.2920379,1.3469579,4.9801857,1.9160604.5408047.1823515,1.1630504-.038303,1.6377704.3810283.9160159-.1079574,1.7594186.3781846,2.6713629.3241883.3301866-.0195903.6693237-.0312462.9617865.1936915.0657074.0505206.1791158.050345.2712272.0534345.6220088.020784,1.2752391-.0763601,1.8577866.0843297.6087234.1679221,1.2033278.2186182,1.817009.2424215.2355743.0091281.5108292-.020468.6962191.0891044.3618469.2138786.7409016.1489988,1.1135066.1842825.6088287.0576475,1.2330926-.0688821,1.8201505.247126.1897774.1021646.4709731.0300174.7097415.046448.7515193.0516089,1.5275649-.1028668,2.2420273.2638024.9094434.0189584,1.819001.0335634,2.7282601.0590518.3746672.0104973.7489044-.0538558,1.1156126.1554236.1854952.105851.4637161.0808891.6968773.0660033.9881905-.062984,1.9928254.1741362,2.9682132-.205874.2495704-.0972495.5689111-.0147454.8562054-.0157635,2.5855519-.0091983,5.1711039-.0171679,7.7566383-.0291748.5744481-.0026331,1.1525379.0166764,1.7221598-.0411467.557214-.0566996,1.0841893-.3250309,1.6631917-.2735273.853178-.3873478,1.7874548-.5423501,2.6278388-.9865731,1.4992742-.7925305,3.031876-1.5221473,4.5536581-2.2717407.3363116-.165605.688462-.2987349,1.028503-.4571427.9033624-.4208409,1.8515475-.3398816,2.9447224-.2577638Z" stroke-width="0"/>
      <path d="m37.7775341,179.7719971h.3016678c.2242282-1.3445705.7010717-2.6120436,1.2990369-3.8296281.2687088-.547195.5943762-1.0832608.9825131-1.5510062.6079775-.7326361,1.3300391-1.3423938,2.2980909-1.5760032.1329679-.0320888.2498512-.1308479.3684457-.1956224h1.9512845c.8324514.2351541,1.3517836.7934082,1.9033202,1.3170809.5363645.5092432.7270546,1.2041381,1.0040119,1.723703.3002111,1.6776412-.175869,3.085652-.9083115,4.4478117-.7650943,1.4229318-1.6232828,2.7724175-2.7705909,3.9255083-.3319679.3335973-.7402961.6131281-.9073725,1.0880004-.9281518.8117347-1.8499505,1.6309474-2.7902908,2.4282526-.1722362.1460497-.4199551.20296-.6810647.3232404-.1929013-.0611934-.4123998-.1308479-.6842676-.2170735-.3305376.315973-.7055119.674462-1.0827677,1.0351276h-.7830041c-.3417082-.173399-.6151818-.469571-.8384974-.8529867-.6217806-1.0675675-1.4694655-1.9693896-2.2323572-2.9324051-.9123831-1.1517216-1.9587257-2.1911324-2.8322179-3.3784888-.3637598-.4944627-.7746152-.9590834-1.1646913-1.4318493-.9150068-1.1089951-1.6049343-2.3187855-2.0729677-3.7800203v-1.094671c.2956832-.9005933.8412264-1.4522822,1.7530567-1.7443115h2.4888249c.3085825.1379047.6034057.2842704.908838.4034624.9580659.3739014,1.6975985,1.0392352,2.3485122,1.8014324.6113647.7158895,1.1734488,1.4613401,1.4324787,2.407925.1585384.579319.465085,1.1181934.7083199,1.6825212Zm.1567219,4.4321535c.2024837.4102032.3762379.79397.5824159,1.1594454.0577923.1024104.2110305.1509649.3554938.2476175.6643483-.8386626,1.2322327-1.7106077,1.8401225-2.5454786,1.3043371-1.7913563,2.43628-3.6994121,3.2964254-5.7544303.0541331-.1293383.1337138-.2480388.1633734-.3021755v-1.2370344c-.3466222-.1807366-.6665596-.3476054-.9538012-.4974117-.3087668.1531065-.5570648.2911165-.816902.4021283-.5958153.2544636-1.0185433.7035315-1.320878,1.2478828-.8904806,1.6031769-1.6671229,3.2483781-2.0702211,5.0625197-.1792474.8067493-.329467,1.6859969-1.0760285,2.2169369Zm-2.1625958-3.2372138c-.6137427-1.193079-1.0907881-2.1605884-1.6049518-3.1079808-.465085-.8569188-1.1472992-1.4815624-2.071476-1.795464-.0964287.0770272-.1635489.1306373-.230476.1844931.0030976.0477119-.012364.1099586.0119867.1409942,1.1667184,1.4852136,2.3366045,2.9679696,3.5086932,4.4489352.0198316.0250672.0707706.0255587.3862239.1290223Z" stroke-width="0"/>
    </g>
  </g>
</svg>