<?xml version="1.0" encoding="UTF-8"?>
<svg id="Layer_2" data-name="Layer 2" xmlns="http://www.w3.org/2000/svg" viewBox="0 0 163.1037652 154.9521858">
  <g id="Layer_1-2" data-name="Layer 1">
    <g>
      <path d="m158.4957243,66.9347739c.1670311.2521545.4229372.6004116.635784.9732533.1392232.2438321.2165524.5230977.3208474.7867827.4625206,1.1693939.9196205,2.3409699,1.3887716,3.5076994.3558982.8850291.6196291,1.7978738.8803434,2.7139111.2502404.879195.4471313,1.7684657.6208541,2.6645659.1585632.8179824.3473384,1.6306436.4845097,2.452056.0845568.5063226.0629046,1.0304999.1491306,1.5364091.2152662,1.2630695.0876806,2.5326469.1127169,3.7989014.0130158.6584468-.1534181,1.3009378-.2244079,1.9508861-.0979555.8968505-.2992564,1.7653113-.5192236,2.6346296-.2246988.8880304-.5280744,1.747916-.8657351,2.5983537-.6641585,1.6728225-1.4481849,3.2884826-2.2384896,4.9045867-.5080453,1.038876-.860835,2.153259-1.292424,3.2300952-.4091405,1.0207764-.7831995,2.059392-1.2589657,3.0486548-.5048603,1.0497174-1.0804194,2.0691768-1.7896891,3.0027779-.0378071.0497663-.081923.0948623-.1243699.1409689-.5071266.5507984-1.0220473,1.0946602-1.5195422,1.6540185-.4675126.5256243-.9190387,1.0655661-1.3732751,1.6028587-.4540221.5370476-.9127298,1.0706192-1.3504592,1.6207899-.3452558.4339318-.6650619.8883673-.990549,1.3377955-.8792715,1.2141453-1.8478775,2.3517271-2.9647105,3.3525969-1.0128444.9076766-2.1313159,1.673435-3.2928314,2.3827047-1.0379725.633824-2.0238206,1.3452835-2.9058025,2.1915408-.7512266.7207696-1.5249935,1.4186161-2.2621477,2.1533355-.6776184.6753368-1.4266246,1.2558266-2.1969768,1.8169151-.9468619.6896235-1.9421425,1.2887489-3.0114908,1.7708545-1.0203017.4599787-2.0877205.7777788-3.1574976,1.0870345-.641266.1853758-1.2992534.3122263-1.9469354.4763786-.2778493.0704079-.5618083.0548808-.8473292.1282134-.4917985.1262687-1.0201026.1091031-1.532803.1554241-.4299045.0388484-.8588291.0901919-1.2892389.1214911-.4103196.0298445-.8272236-.0412831-1.2296112.114876-.1095931.042554-.2484488.0112089-.3738753.0111477-2.320627-.0011791-4.6456793.0852765-6.9605028-.0314064-1.9384522-.0977104-3.8728312-.0473316-5.8084352-.0909575-.4547111-.0102442-.9031747.029676-1.3542414.1112622-.4221257.0763339-.8564096.047546-1.289928.107235-.7709494.1061171-1.527857.2327074-2.262653.48673-.9880837.3415655-1.8867564.8593037-2.8272176,1.4291053-.0501338.2881547-.0688154.6183428-.169328.9213968-.1536019.4630872-.3276156.926695-.556801,1.3560177-.6193841,1.1603211-.9890484,2.4009116-1.3140761,3.6671201-.3875496,1.5098799-.7074628,3.0394059-1.240866,4.5101005-.4118202,1.1354533-.8426435,2.2744591-1.5417609,3.2572906-.6939417.9755426-1.4681221,1.8984707-2.4310164,2.6478904-.8763774.6820897-1.5171075,1.5785574-2.0379083,2.5517571-.3669846.68578-.6684767,1.4066415-1.0351244,2.0926359-.4868678.9109229-1.0536834,1.772493-1.8218765,2.4768933-.4002744.3670458-.8581859.6546187-1.4327956.5936434-.2566871-.0272566-.5350876-.0861034-.7513797-.2169659-.8926395-.5401561-1.8702493-.8838653-2.8254566-1.2803422-.8419238-.3494668-1.6916112-.6812322-2.5252508-1.0493805-1.6892377-.7459896-3.3767451-1.4966956-5.0519257-2.2735557-1.2548925-.5819445-2.4826202-1.2222764-3.7346033-1.8107441-1.7531377-.8240079-3.5050197-1.6528853-5.2813562-2.4246003-1.3056618-.567229-2.6206414-1.1246578-3.9946209-1.5161734-1.1125991-.3170498-2.2246775-.6347428-3.3652452-.8463951-.6170413-.1144932-1.2207375-.299333-1.8333304-.4398884-.6529419-.1498349-1.3092986-.2848472-1.9641622-.4263673-1.3650905-.2950148-2.657055-.7702909-3.867242-1.4808929-.4902137-.2878331-1.0309899-.4947845-1.5607793-.7087644-.8436848-.3407539-1.6160965-.7653602-2.2893278-1.404804-1.1975464-1.1374746-2.5854375-2.0319516-3.9646539-2.9329213-.925692-.6046992-1.8363087-1.2366704-2.8616482-1.6639411-.5579342-.2324777-1.1451539-.393644-1.7096496-.6116205-.8142997-.3144313-1.6144274-.6658276-2.4305034-.9753282-1.5024149-.5698475-3.0028315-1.1474125-4.5217688-1.6704031-1.0744551-.3699552-2.1826441-.6407913-3.2667615-.9843168-.5816612-.1843192-1.1558728-.4026326-1.7133399-.6507752-1.6780365-.7469697-3.4323226-1.2764528-5.1725823-1.8457031-1.3091608-.4282508-2.6300281-.8209913-3.9363483-1.2574803-.6607591-.2207941-1.2997741-.4992099-1.813087-1.0050808-.3162382-.3116597-.4986433-.6560734-.4086658-1.1255307.1121121-.262414.2712495-.5330969.3439619-.8252636.1786688-.7179214.5056872-1.3737039.8223618-2.0300222.787847-1.6328563,1.4777078-3.3019118,2.1007057-5.0058344.5242538-1.4338828.9144295-2.9018518,1.3198414-4.3671716.151305-.5468631.1702851-1.1290679.2987971-1.6837404.3752688-1.6196567.2106953-3.2620528.2414662-4.8963485-.180514-.6591206-.0299287-1.3569977-.2369337-2.0148473-.036115-.1147841-.0123114-.2493217-.0114156-.3747022.0041115-.5781929-.1509375-1.1351164-.2200284-1.7018554-.0843578-.6919664-.2536245-1.3605196-.4133668-2.0321507-.2687535-1.1299867-.6532329-2.2279085-1.2820726-3.2059317-.3650475-.5677343-.8189011-1.0803888-1.3931357-1.4873242-.7231737-.5125013-1.3898511-1.1044297-2.0844283-1.6576629-.3708204-.295367-.7436468-.5887587-1.1252014-.8699767-.6566399-.4839891-1.2214342-1.0562253-1.713248-1.7059286-.3234352-.4272707-.6684767-.8381109-.9971641-1.2614923-.4063306-.523404-.5747935-1.1245659-.5602617-1.7190209-.4414963-.8209913-.9139319-1.5690329-1.2578249-2.3721236-.4258696-.994515-.9991778-1.87518-1.7047189-2.6814712-.0962634-.1099912-.2005889-.2131224-.3040493-.3165904-.8946608-.8947144-1.6731058-1.8874379-2.3704699-2.9371476-.9744554-1.4668128-1.9530107-2.9348813-2.8394448-4.4551049-.9248958-1.5861984-1.750412-3.229475-2.4881711-4.9163852-.431788-.9872951-.7993047-1.9920084-1.1076416-3.0217733-.209922-.7010928-.3504775-1.4150329-.478197-2.1360475-.2165563-1.2224984-.1282019-2.4494911-.097029-3.6717369.0184939-.7253558.2457423-1.4373512.418933-2.1489638.4124289-1.6946584,1.0950737-3.299791,1.6109514-4.9599652.3061242-.985159.6182816-1.9691925.8305197-2.9778182.3550521-1.6873619.8068462-3.3436237,1.4379331-4.9495755.5416223-1.37829,1.0581738-2.7669085,1.6256938-4.134403.5373003-1.2946979.9267869-2.6345453,1.3417156-3.9692477.3790893-1.21939.7307229-2.4527681,1.3697072-3.5768364.643693-1.1323525,1.326824-2.2381603,2.3132769-3.1060775.6177992-.5435632,1.2932508-1.0215037,1.9417597-1.5302764.7955952-.6241617,1.6161731-1.2138391,2.3730654-1.8910287.3879477-.347101.7176611-.7399028,1.0886806-1.0949665.8099279-.7750915,1.6441264-1.5256213,2.4849401-2.2674612.9318095-.8221092,1.9005685-1.6029888,2.8191478-2.4392776.9550618-.8695173,1.8927437-1.7609931,2.7947623-2.6850926.8593956-.88042,1.8145034-1.6374271,2.8519094-2.2773762,1.5406048-.950357,2.9782393-2.0411469,4.4266233-3.1177534,1.0091234-.7501049,1.9685953-1.5671877,2.980674-2.3130548.5576585-.4109742,1.1696772-.7515175,1.7727456-1.0966279.618963-.3542023,1.2439975-.7027963,1.8892141-1.0050808,1.3222838-.6194875,2.6755604-1.1584453,4.0843228-1.5625709,1.3018642-.3734542,2.5861648-.8085804,3.8759167-1.2236622,1.2704196-.4088572,2.5381671-.826033,3.8067185-1.2406899,1.2543872-.410021,2.3962795-1.029941,3.4309138-1.8478047,1.3122233-1.0372835,2.7874505-1.7646643,4.3695604-2.2817786,1.0223689-.3341618,2.0562146-.6163369,3.1267343-.7748847.6487386-.0960835,1.2966273-.1735046,1.9472111-.2503668,1.3712079-.1619971,2.7505621-.0015925,4.1121996-.1371139,1.4370832-.1430323,2.8697334-.0683943,4.3036162-.098656,1.4417842-.0304264,2.8904438-.0747911,4.325766.0292588,1.2272683.0889631,2.4507698.0688,3.6756646.1048577.6084355.2446589,1.2624417.0575261,1.8932644.2208821.6680632.1729993,1.3782977.1775739,2.0663746.2807051.5017518.0752046.9978992.1886871,1.4956543.2894295.3179379.0643479.6311902.1635934.9519151.2002253.9807642.1120202,1.9514986.2963662,2.9504237.2682979,1.0118797-.0284319,1.9898876-.2292237,2.9728262-.424859.5774732-.1149373,1.1467081-.2612924,1.7296633-.3608633.9611946-.1641791,1.9205516-.2626973,2.8924498-.2263679.9421302.0352154,1.8683965.1793464,2.7992566.3434834,1.6613379.2929399,3.2089636.8941632,4.73679,1.5626168,1.3641028.5968208,2.7257249,1.2038858,4.0584213,1.8667351,1.5183325.7551658,3.0167278,1.5532302,4.4991519,2.3769854,1.4111281.7841336,2.7923505,1.6222867,4.1832812,2.4425124,1.1616534.685045,2.3308099,1.3587127,3.4727252,2.0755048.7108929.4462394,1.4514006.8542046,2.0591776,1.4577936.2589227.2571311.579816.4726691.908136.6352289,1.0044071.4972767,1.8392717,1.2322373,2.7298287,1.8886169.695718.5127578,1.3827077,1.0380491,2.0598208,1.5751005.3896321.3090451.7545801.6496037,1.1258216.9813691.4181597.3737145.8512799.7338467,1.2398707,1.1365635.3422239.3546502.6273467.7638519.9471069,1.1409735.1481046.1746798.3116138.3379976.4805131.4929776.3052284.2800773.6418632.5289855.9265266.8279203,1.1050422,1.1604743,2.3511912,2.1439106,3.6858476,3.0239784,1.3347177.8800984,2.6801543,1.7461934,3.982654,2.672184,1.0412648.7402627,2.1001085,1.4645236,3.0315964,2.3504868.3758353.3574907.7665852.6995155,1.1555895,1.0428649.2006119.1770456.413229.3404553.6185113.5123252.0800243.0670008.1709971.1289331.2294304.2124486.5302947.7579718,1.2646926,1.32357,1.8778291,2.0029034.7602764.8423602,1.451324,1.7347548,1.9964261,2.7356705.7131898,1.3095283,1.1654968,2.7129847,1.5858616,4.1376034.4291236,1.4543483.838846,2.9166056,1.4293503,4.3223972.3509369.8354848.5828939,1.7207053.873958,2.5816629.4078236,1.2063282.820777,2.4109261,1.2319693,3.6161135.0260622.0763798.0822905.152507.0795189.2270799-.0233213.6291536.2777268,1.1506435.561747,1.6708548.7618689,1.3954862,1.3479632,2.8692357,1.9837472,4.3222211.3513044.8028151.6468551,1.6184394.9016434,2.4531356.173294.5677496.2329983,1.1550919.3238793,1.7381772.2390468,1.5333925.0687388,3.0758042.1267434,4.6126575.0161855.4290241.0934688.8557359.1651323,1.478106Zm-71.9236948-16.7290287c.0798099-.01114.1639533-.00967.2388018-.0353264,1.008664-.3458071,2.0355807-.5904584,3.1104569-.5841572.4806203.0028099.9613936-.0072659,1.4418761.001003.494172.0085062.9937188-.0514124,1.4780294.1168667.0727507.0252813.1734778-.0299364.3259465-.0611513-1.2587207-2.0078724-1.7376259-4.2074523-2.1099393-6.4283016-.5206324.8814459-1.0621054,1.7435902-1.5489426,2.635556-.6805125,1.2468533-1.5145809,2.3829497-2.3751556,3.5062754-.2036132.2657752-.5275997.4721983-.5505841.8594569-.0359543.0179006-.0719085.0357935-.0227547.0113314-.0271954.0477757-.0074726.0131077.0122655-.0215526Zm13.2953586,15.8041176c.0672535-.040594.1470633-.069068.1997697-.1237038.4922732-.5104954,1.0749068-.8890564,1.7045811-1.2070632.5459137-.2757131,1.1152711-.4846705,1.6965725-.6696098.7906109-.2515343,1.5235235-.6759033,2.3638395-.7841489.0799171-.0102901.1464049-.1248982.2403331-.2103661-.2318652-.6511886-.4545121-1.2813911-.6810943-1.9101926-.0758592-.2105039-.2091411-.4120116-.2337486-.6270711-.0643287-.5621145-.2800543-1.0686056-.5458218-1.5478784-.6681857-1.2049424-.6593962-2.4960801-.5439843-3.851891-.6725039.4647792-1.4089997.5721367-2.1825063.531558-.3287794-.0172421-.6591972-.0028864-.9641193-.0028864.2033988.5281356.399861,1.0173004.5807501,1.5121385.4035667,1.1040622.3178001,2.2594833.2140871,3.3820892-.080943.8763315-.365683,1.7455732-.6485701,2.5881708-.277788.8273691-.6692423,1.6164334-1.0067193,2.4240108-.069336.1659745-.1205417.3395289-.1801082.5095843-.0362299.0187581-.0724445.0375162-.0265829.0137661-.0232753.0463133-.0049766.0098997.0133221-.0265063Zm-39.3756799-19.5549677c-.4504083-.0242094-.8851822-.1246838-1.3240524-.2272484-.5293377-.1237114-.8959777-.4837594-1.3054551-.7839039-1.1330109-.8305005-1.8149245-1.9689704-1.9855464-3.3388002-.0953829-.7657124-.0737384-1.5590184.071587-2.3519951.2122879-1.1583764.6351945-2.2242105,1.1796228-3.2442365.2242854-.4202039.4563419-.8852588.9354309-1.1131656.1623071-.0772144.329055-.1450957.4459599-.1963014.1157718-.2431889.2080922-.4371168.2970208-.623932-.2942568-.1331824-.5848845-.2819531-.8878467-.3987661-1.0921336-.4210768-1.9530682-1.2700368-3.2030529-1.6590717-.7661259.068601-1.671475.0756295-2.5658219.24361-.621413.1167135-1.2589197.1543445-1.8750039.2913168-.8539826.1898777-1.7084628.3636234-2.5761503.4770907-.3006269.0393077-.5950981.125036-.8927697.1877109-.8355997.1759278-1.6353829.449635-2.4163774.8000665-.7946535.3565413-1.5347018.7865224-2.155196,1.3969179-.3389853.3334727-.6637144.6898609-.943049,1.0736359-.4451713.6116052-.789072,1.2761695-1.0211668,2.0089366-.2166903.684111-.2275776,1.3711849-.2451413,2.0715044-.0152668.6084202.1561591,1.1732987.3365812,1.7321133.3242391,1.0042692.8854655,1.8929275,1.555328,2.6931471,1.335223,1.5950645,3.0616859,2.583332,5.0697114,3.0900527.6867907.1733093,1.3732674.3521083,2.0674695.4902826.420671.0837376.8552612.1224635,1.284691.1319956.8769899.0194778,1.7547302.0060945,2.6321566.004946.1670694-.0002144.3578046.0441848.4962545-.0205114.2823282-.1319497.5695871-.0769158.8542965-.1066378.2840432-.0296454.5646564-.0982694.848983-.1179921.6760794-.0468952,1.3124147-.2481426,1.9482829-.4603539.8826786-.2945707,1.648927-.8071333,2.4189729-1.3060829.3356471-.2174789.7010162-.4136424.9410583-.7566932.0345302-.0191792.0690604-.0383584.0257866-.014325.0209631-.0445064.0041957-.008912-.0125641.0266901ZM14.5669094,84.3386033c-.020764-.0380521-.0415281-.0761042-.0136666-.0250516-.0548502-.0205803-.0135594-.0050838.0277313.0104126.001983.1034068-.0212005.2152202.010114.3088116.1793272.5360523.371609,1.0677558.543456,1.5554046.3336105.2788752.628143.5358073.9339609.7785445.6940948.5509056,1.4424962,1.0436076,2.0812433,1.6519512,1.4376651,1.3692479,2.8243235,2.7921668,4.2273742,4.1975986.7777482.7790498,1.3580083,1.6884721,1.8165247,2.6900463.7251184,1.5838862,1.0317632,3.2825412,1.4012285,4.9624076.1535559.698168.1563122,1.4253843.2412901,2.1381913.0927491.7778707.0558838,1.5685888.1271262,2.3556931.0844573.9332029-.0054896,1.8807692.0319806,2.8200359.0374013.9375364-.1624832,1.8459174-.2808276,2.7619395-.0957045.7406761-.3111008,1.4664989-.4840273,2.1964102-.394915,1.6669883-.9495799,3.2800146-1.6959983,4.8221431-.6130217,1.2665302-1.2362952,2.5288646-1.8907454,3.7742785-.4646338.8842022-.9887421,1.7371359-1.4910682,2.6123342.2981003.072031.6306313.1603701.9667071.2320336.8725263.1860495,1.7455426.3702003,2.6205189.5442446.5190322.1032383,1.0491968.157185,1.5621345.2831015,1.5957842.3917299,3.1706512.8602378,4.7390639,1.3495251.6790501.2118208,1.3573499.4267961,2.0310635.6548943,2.1858138.7400789,4.3558862,1.5176434,6.3392658,2.7290937,1.5347477.9374292,3.0854972,1.8494853,4.6037837,2.8127624,1.627604,1.0326131,3.2244371,2.1136756,4.8369964,3.1701.7020804.459994,1.402599.9231425,2.1182082,1.3613771.346588.2122189.7089252.4343146,1.0947827.5393905.7866755.2142096,1.6014422.3211383,2.4135522.3873046.6149281.0501185,1.2233789.144353,1.8097794.3014002,1.803417.4829478,3.6178362.9176758,5.4362826,1.3375046,1.0682381.2466113,2.1333524.5053962,3.1780932.8395503,1.8958216.606353,3.6781529,1.4782438,5.401293,2.4528523,1.3519828.7647018,2.6208405,1.6752419,3.939342,2.5006739.9164355.5736909,1.8522722,1.116588,2.7835457,1.6662993.703114.4150359,1.4089997.825723,2.1204285,1.226319.8359519.4706823,1.6618586.9641193,2.5236889,1.3826924,1.1134183.5407839,2.2497291,1.0372681,3.3917669,1.5156068,1.0804041.4525214,2.1782493.8640507,3.2743949,1.2778462.2977864.112426.5982679.2838978.951471.1544441.0965007-.1695577.2260463-.3358691.2928557-.5243993.46102-1.3011063.9559882-2.5930555,1.3445331-3.9159977.2583409-.8795472.7081366-1.6071922,1.3152399-2.2607083.4665019-.5021499,1.0011454-.9252556,1.5507189-1.3349014.3979469-.2966839.7628336-.6407607,1.1224681-.984623.208008-.1988816.3853445-.4324311.5604761-.6625506.2607296-.3425914.5542591-.6718608.7485162-1.0505596.2686616-.5237562.470376-1.0835432.6787362-1.6361945.4155871-1.1024544.7399717-2.2316754.9682844-3.3889187.1057956-.5362973.2709126-1.0621819.3547803-1.6012508.137646-.8847841.4909104-1.7230176.5325457-2.6292548.0147002-.3199899.140632-.6332574.1906586-.9535382.1098994-.7035581.4386175-1.3157299.7870737-1.9176269.4018669-.6941561.7740119-1.4248177,1.6961131-1.6910752.449612-.0493069.9039709.0847865,1.254724.4666244.1869989-.1274937.3558369-.2454629.5274925-.3591751.8025242-.5316422,1.6630683-.9513485,2.5824285-1.2273908.6590593-.1978709,1.3356518-.3471393,2.0129485-.4717083.6831463-.1256102,1.3745614-.2195231,2.0665124-.2800083.6373153-.0557077,1.277004-.0499807,1.9181016-.1157948,1.0295199-.1056731,2.0713206.0092489,3.109676-.1270802.81799-.1073728,1.6522575.0085292,2.4821149-.1256255.6478351-.104739,1.3164343-.0190184,1.9798731-.1226855.6278061-.0980933,1.2759781-.0207947,1.9164937-.1303418.5034821-.0861034,1.0233948-.0255569,1.540245-.1252733.583292-.1125485,1.1902881-.1025186,1.7870247-.1449349.0833471-.0059413.180491.0197075.2484335-.0145318.43972-.2215903.9319167-.0625218,1.3920791-.217119.3801229-.1276927.8203482-.0644053,1.216381-.1591451,1.1216718-.2683094,2.2511838-.5225465,3.3458134-.8797922,1.1209828-.3658514,2.2151989-.8165506,3.2292224-1.4444792.8679707-.5374764,1.7665822-1.0253702,2.6493298-1.5391884.617715-.3595732,1.2412948-.7104795,1.844233-1.0936343.5877174-.3734925,1.1613777-.7708269,1.7255288-1.1793089,1.0996522-.7962307,2.3006745-1.4087547,3.511252-2.0117388.9241531-.4603462,1.7872085-1.0229814,2.4947938-1.7917563.3936593-.4277148.7946381-.8499783,1.1659868-1.2966043.4341768-.5221943.8454151-1.0638663,1.2563931-1.604834.695473-.9154249,1.1868581-1.9569346,1.7951251-2.9257549.567183-.9033584,1.0567306-1.8444474,1.5138152-2.8049529.126238-.2652622.2680951-.5273394.3044321-.8419544-.1072809-.0076717-.1728959-.0298751-.2269192-.013613-1.0654589.3207708-2.1512836.4994702-3.2664016.4922579-.7107398-.0045785-1.4215408.0000153-2.1323112.0023122-.1459914.0004594-.3075406-.030212-.4351415.0206569-.4692888.1870295-.9753741.0752314-1.4547234.2156796-.3687609.1080618-.7757729.0775436-1.1565236.1544594-.7149201.1443683-1.4240214.3181676-2.1338731.4866994-.6306389.1497277-1.2686586.2780024-1.8865727.469932-1.5456657.4800843-3.0771365,1.0059077-4.6233534,1.4840779-1.028739.3181676-2.0807839.5458831-3.1512653.6880923-.5239093.0696116-1.0415557.1868917-1.561545.285184-.5791576.1094859-1.1573505.224071-1.7366765.3325463-.5595114.1047543-1.1270772.1759891-1.6783197.3132369-.8033511.2000147-1.5977902.4388625-2.3940515.6650619-1.7976517.5106638-3.5473747,1.1375205-5.2441156,1.9112415-1.5739789.717753-3.1259687,1.4836951-4.6986766,2.2043116-.6626119.3035899-1.3496629.5556985-2.0325795.8126153-.9095141.342132-1.8358723.6412353-2.7368573,1.0038711-1.3224981.5322854-2.6052138,1.1552833-3.8688499,1.8154145-1.4812298.7737975-2.9172257,1.6305134-4.4479156,2.3143794-1.8044506.8061686-3.5823949,1.6717659-5.3698483,2.5157876-.8836203.4172103-1.8022915.7784985-2.6346142,1.2816897-1.2283402.7426362-2.4951307,1.3815593-3.8262958,1.9159119-1.2791785.5134813-2.6041113.8145447-3.9644778.9156699-.8623969.0641297-1.7186841.1348591-2.575645.256733-.8361662.1189492-1.6211421.3691437-2.3829038.7110766-.7884059.3538922-1.4963128.8458898-2.2142648,1.3202165-.7519922.4968211-1.4534066,1.0630548-2.2289038,1.5315473-.717508.4334571-1.4256293.8783221-2.1695058,1.2679849-.7947453.4162762-1.558804.8920117-2.3593069,1.296099-.485796.2452332-.999997.4702842-1.5487435.526344-.6986198.0713573-1.4029511.0864097-2.1047177.1274937-.7219563.0422631-1.441432-.0119286-2.1692301.1072656-.8038334.1316587-1.612054.2340396-2.4163697.3807354-.9406985.171579-1.8756854.3726809-2.7741208.6761943-.9173772.3099141-2.1708227.2498423-3.022761.002986-.8640048-.2503476-1.6837787-.6077464-2.4849248-1.0026308-1.300777-.6411435-2.5840363-1.3179809-3.8720579-1.9848191-.3082833-.1596198-.6010548-.3492678-.9099965-.5074634-.6902973-.3534481-1.3716213-.7302635-2.0840072-1.0331031-.7349032-.3124254-1.4468068-.657329-2.0870008-1.0590122-.0986751-.1778878-.1771145-.3193008-.2451413-.4419403-.1031694-.0231835-.1866084-.0317892-.2623987-.0605312-.9314037-.3534328-1.556844-1.0865751-2.165356-1.8150164-.8045761-.9631546-1.3444489-2.1000779-1.9667577-3.1821511-.6414574-1.1153783-1.2900428-2.227051-1.9580984-3.3266266-.5728181-.9428346-1.1172082-1.9039833-1.4237611-2.9636692-.3937206-1.3610402-.7110001-2.7441767-1.0610029-4.1178653-.2249438-.8828394-.4525674-1.76329-.8019882-2.6096086-.4521539-1.0951655-.9851666-2.1502424-1.5946817-3.1620302-.4435482-.7362967-.9302093-1.4530697-1.4614764-2.1283452-.5890649-.7487153-1.2623804-1.4304987-1.876719-2.1601956-.4239096-.5035128-.8273461-1.0265339-1.2088931-1.5629078-.5827637-.819261-1.1453836-1.6531609-1.7036393-2.4894497-.351825-.5270484-.6700462-1.076484-1.0209678-1.6041603-.7830617-1.1774561-1.4087929-2.4449816-2.1121903-3.6678705-.6097371-1.0600688-1.3235011-2.0357798-2.1792217-2.9084975-.1462977-.1492071-.2896477-.3013083-.4344601-.4519702-.6781926-.7055947-1.3368308-1.4314328-2.0402741-2.1108887-.6707965-.647927-1.4001183-1.2349247-2.0803628-1.8735875-.3465115-.3253187-.6447879-.7026087-.9594795-1.0611407-.7058167-.8041014-1.4082647-1.6111888-2.1120754-2.4170512Zm-.2372399-.5166511c.0126483.076288.025289.1525759.0379296.2288486.0300665-.0120052.0601254-.0240103.0901842-.0360308-.0476072-.059444-.0952221-.1188879-.142837-.1783319.0011791-.1677661.0130005-.336252.001516-.5031453-.0323634-.4700851.1161546-.8869585.3311452-1.2595935.3884147-.3315663.7662943-.3182289,1.1578711-.0732254.1897169.1187042.3833768.2313292.5777641.3423005,1.0978912.6267648,2.0857682,1.4113272,3.0097682,2.2587023,1.4140299,1.2967881,2.7739676,2.6532804,4.1391193,4.0023768.6659501.6581253,1.2801891,1.3682832,1.9386819,2.0342792.8636143.8734833,1.5131261,1.8944741,2.0766418,2.9716165.6748161,1.289882,1.4594168,2.5116072,2.2308332,3.7430865.5639214.900204,1.0949971,1.8211874,1.6317997,2.7381129.2684472.4585393.4944323.9430337.7788431,1.3909.7790039,1.2267018,1.5636581,2.4503563,2.3744359,3.6561715.8914528,1.3257751,1.6819335,2.7051446,2.2783868,4.1869869.5437929,1.3509798,1.0325595,2.7232136,1.434748,4.1246335.3181294,1.1085029.6255857,2.2187668.8930224,3.3418474.2437861,1.0237317.5633931,2.0267759,1.0723879,2.9657211.57291,1.0568378,1.0849826,2.1465673,1.629832,3.2187638.315174.6201957.643203,1.2338834.9647701,1.8508481.4463887.856425.9662784,1.6697446,1.5680605,2.4206956.319607.398835.6499866.819261,1.1462105,1.0397029.4422236.1964775.8260292.4610353,1.0063977.9070641,1.006903.2833771,1.9959974.510281,2.948012.8432101,1.0915594.381746,2.1682654.8183116,3.2189552,1.3016575,1.6160965.7434324,3.2163061,1.5261879,4.6914031,2.5336422.5270178.3599407,1.1093528.5210458,1.7360027.5011852.5560584-.0176096,1.124811-.0147921,1.6627773-.1342925.802907-.1783932,1.6198558-.2306401,2.4278772-.3328678.9839875-.1244924,1.9860135-.1157029,2.9808348-.1421939.75213-.0200443,1.5052095-.0006738,2.2578142-.0065845.9955333-.0078095,1.9358414-.2297979,2.818497-.7055334,1.3157452-.7091626,2.6222875-1.4321066,3.845008-2.2962798,1.0896989-.770199,2.1689392-1.5557721,3.2724961-2.3055593.7752982-.5267268,1.5505198-1.0484617,2.4496979-1.3779149.9882828-.3621304,1.9818944-.6941408,2.9903899-.9954185.7939491-.2372093,1.5548686-.5862168,2.3278852-.8920883,1.3137699-.5198361,2.4500807-1.3147652,3.5066275-2.2418277.4480807-.393154.939864-.7364498,1.4109444-1.1034803.829153-.6460435,1.7894288-1.0729927,2.6905516-1.5977289.5800917-.3377985,1.1901503-.6319865,1.8085697-.8942933,1.0642951-.4514036,2.1435507-.8679248,3.2203869-1.2892542.9624502-.3765857,1.9189132-.7733688,2.898238-1.100724,1.3033879-.4356927,2.6230838-.8239314,3.9421212-1.210899.8347422-.2448657,1.6721487-.4962086,2.5245311-.6611419.9588977-.1855136,1.8961125-.4440994,2.8313214-.710556,1.6821939-.479288,3.2768449-1.1861537,4.8568723-1.9284683.9750985-.4580952,1.9522489-.9137864,2.9434411-1.3353608,1.7526017-.7454078,3.5421377-1.3954173,5.3689908-1.9344709.7368939-.2174253,1.4911065-.3779638,2.2409549-.5490681.8901282-.2031079,1.7832119-.3935368,2.6765251-.5823426.6955189-.1470021,1.4043446-.243365,2.0878277-.4324771,1.3446097-.3720684,2.6709207-.8099968,4.0137694-1.188864,1.3613924-.3841195,2.6722988-.9325598,4.0636889-1.2193976.7737363-.1594973,1.5353602-.3773972,2.3084227-.5405695.9148123-.1930627,1.8449834-.3189792,2.7522925-.5404777,1.1388221-.2780024,2.2556245-.6455995,3.3928081-.9311816.6515408-.1636317,1.3062973-.3264212,1.9976665-.3007877.9341523.0346221,1.8705556.0085904,2.8021966.0085904.145088-.4025407.3078469-.7574895.4010401-1.1298488.346343-1.3836877.8325371-2.7211464,1.3635668-4.039112.6477432-1.6076056,1.3592027-3.1895624,2.0432984-4.7825291.2894869-.6740964.5883452-1.3443188.8672511-2.0227793.4176084-1.0158457.7211677-2.0693453.9675953-3.1376064.1087509-.4714173.1576597-.9566314.244881-1.5057607-.3304637.2177622-.5746557.4063536-.8427048.5505841-1.2587972.6773121-2.5169666,1.3564617-3.7896219,2.0070685-.8691651.4443138-1.756338.8547712-2.6455475,1.2581235-.7949291.3605992-1.6120004.6728255-2.4035607,1.0402694-.5732316.2660891-1.12697.5765544-1.6783351.886882-.8895617.5006646-1.7658166,1.0249108-2.655317,1.5256979-1.156738.6512652-2.3014248,1.3281791-3.4867516,1.9234304-1.5600137.7834292-3.1734534,1.4460411-4.8149767,2.0519807-2.1730277.8021414-4.2736722,1.78606-6.3546551,2.8037432-1.9604719.9587905-3.9018947,1.956414-5.8575125,2.9252496-.4859031.2407159-.9941475.4363512-1.4425039.6311596-.1596657-.0782327-.2513123-.1231449-.3552091-.1740597v-.3943025c.1371254-.100528.2788293-.2188034.4338399-.3157789,1.058905-.6623516,2.1128181-1.3331405,3.1832689-1.9763971,1.487707-.8940024,3.0114143-1.7258504,4.5720405-2.484764,1.4100256-.6857035,2.8344605-1.3427262,4.2639027-1.9872232.9980523-.4499948,2.0330541-.8203482,3.0194841-1.2932202,1.3045057-.6253714,2.5918152-1.2904027,3.8598001-1.9870547.9845924-.5409677,1.9304589-1.1528332,2.8893566-1.74003.6975249-.4271482,1.3655269-.9082891,2.0864649-1.2903261,1.7689863-.9374445,3.5481556-1.8578154,5.3478899-2.7344225,1.360244-.66252,2.5773753-1.5200475,3.7136402-2.5019449.5523297-.4773127,1.1778542-.8064749,1.8563301-1.0508812.454313-.1636623.909606-.324553,1.3488973-.4811256.1025493-.9253934.093821-3.1651463-.1008802-4.0061667-.0759358-.3279601-.0585558-.6530874-.1289331-.9734524-.1219352-.5549712-.2311148-1.1127369-.3472771-1.6689943-.120312-.576141-.2433497-1.1516924-.3638455-1.7277875-.1329909-.6359448-.2453557-1.2769658-.4020048-1.9069845-.1485334-.5973644-.3427752-1.1833515-.5267881-1.8078883-.7510275.6185036-1.4567753,1.1920414-2.1537643,1.7760149-.6192157.5187719-1.2200101,1.0597472-1.8447384,1.5716667-.7819133.6406994-1.5811299,1.2602596-2.3706383,1.8917331-.693712.554864-1.3862603,1.1112286-2.0757613,1.6712989-.6571453.5337937-1.3091761,1.0738655-1.9643919,1.6100097-.6871582.562283-1.3511942,1.1567533-2.069575,1.6759539-.8458286.6113143-1.7301074,1.1713616-2.6146771,1.7266314-.7957407.4995161-1.6230102.9486688-2.4209559,1.4448314-1.2504824.7775338-2.4489475,1.6351379-3.7224756,2.3795656-.9240459.5401408-1.8147714,1.1408893-2.5696577,1.9168612-.2108408.2167209-.4665019.3403098-.782097.2844031-.2395215-.2729339-.2496432-.5927706-.1961559-.9172164.355255-.5081831.8316796-.8680932,1.3344114-1.1871031.6143462-.3898158,1.174072-.8385091,1.6938468-1.3473966.6843713-.6700233,1.3921557-1.3161434,2.0898337-1.9725689.0456778-.0429675.0866394-.0922438.1368804-.1288565.9472447-.690037,1.8634811-1.4293503,2.8521467-2.0539866,1.1124689-.7028767,2.0716269-1.5839857,3.007877-2.4782255,1.1877922-1.1344656,2.5058037-2.0899103,3.8087321-3.0715397,1.0516315-.7923106,2.1107968-1.574622,3.1687984-2.3584724.7141698-.5291233,1.431295-1.0525273,2.0678753-1.6789476.5036659-.4956191,1.0682917-.9341676,1.5363249-1.4599604.6862394-.7709494,1.3104164-1.5971623,1.9944814-2.4410921,0-.0224408.0203506-.1120278-.0030472-.1881627-.3773054-1.2273908-.5277681-2.4821532-.4990108-3.7648229.0201362-.8985502-.0147461-1.7984786.011408-2.6967226.0320648-1.1012447-.1908118-2.1595984-.5200811-3.1935514-.2620618-.8228595-.6053117-1.6198481-.9269094-2.466182-.3751156.2562889-.6793793.496668-1.0125994.6861246-1.3297717.7560118-2.5431361,1.6697217-3.6834129,2.6832781-1.2258749,1.0896759-2.4396987,2.1928959-3.6673805,3.280497-.5730938.5077161-1.1556508,1.0060608-1.7530764,1.4847517-.9875478.7912923-1.96283,1.594697-2.8565568,2.4932625-.9287622.9337695-1.8561157,1.8691468-2.7986594,2.7888822-.460729.4495737-.9323607.8936578-1.4389513,1.2891241-.6625813.51721-1.3820034.9617918-2.042058,1.4819418-.31094.2450341-.6277295.4205944-1.0686286.5267345-.0291707-.1930781-.0551411-.3650092-.076778-.5082444.1963856-.1991725.3401567-.3858958.5217655-.5222326.9125461-.6851139,1.7861825-1.415431,2.5842967-2.2306801,1.1085335-1.1323372,2.1926739-2.2886157,3.3053572-3.4167955,1.6588113-1.6819259,3.3458746-3.3361051,4.9960037-5.0264071.8263661-.8464717,1.6068859-1.7385447,2.3912799-2.624906.8238089-.9309137,1.6317691-1.875984,2.4376468-2.8225319.3069434-.3604996.5763707-.7530641.8851363-1.1118794.4814471-.5594807.8237476-1.2457661,1.4915199-1.6383153.1419489-.0834467.2607756-.206247.33371-.2652163,0-.1587163.0172881-.227547-.0025419-.2831245-.3742122-1.0485689-.7312282-2.1040209-1.1371224-3.1402861-.3407233-.8698925-.694447-1.7403822-1.1233562-2.568693-.6102424-1.1785203-1.2496555-2.3426084-1.8059359-3.5476809-.3828026-.8292525-.7140779-1.6822398-1.071538-2.5232678-.2542524-.5981836-.4939729-1.2036408-.7755738-1.7888316-.4170265-.8666462-.951226-1.6569126-1.6604039-2.3821611-.5379817.8985043-1.0519377,1.757142-1.5661694,2.6155958-.1785616.298085-.3413052.6072564-.5396202.8915983-.7869205,1.1283176-1.5792465,2.2529677-2.3805456,3.3711177-.9742563,1.3595626-1.9307039,2.7355863-3.1347582,3.9097348-.5356388.5223551-1.0858248,1.0316407-1.6533753,1.518945-.6738821.5786063-1.3670735,1.1354456-2.0670943,1.6822398-.1526678.1192478-.3696796.1560902-.5459596.2264598-.1242321-.067843-.2319877-.1266821-.3275696-.1788755-.093622-.1994022-.1803379-.3841195-.2581418-.5498261.1184439-.497893.3930621-.8732.7371083-1.2102712.4330436-.4242541.874448-.8423449,1.277785-1.2939016.4263367-.4773357.8619682-.9590661,1.2046208-1.4956543.592985-.9285632,1.1332483-1.8921618,1.6672486-2.8567635,1.1095595-2.0041973,2.0118307-4.1013122,2.7715712-6.2620591.37141-1.0562865.696698-2.1325332,1.2419532-3.1203719.046566-.0843578.0865934-.1723293.1350888-.2695344-.177796-.1275856-.3309997-.2306019-.4767614-.3432575-.7830464-.6051816-1.5322058-1.260696-2.3529827-1.8091746-1.5371824-1.027223-3.048517-2.0883943-4.5183081-3.20842-.3952825-.3012165-.779892-.6272701-1.1191606-.9890407-.8097365-.8634458-1.5895213-1.7549829-2.3877426-2.6422323-.5622217.5358685-1.0781837,1.0731841-1.4814135,1.7061123-.9154708,1.4369071-1.8478775,2.8637308-2.7303647,4.3207205-.9245666,1.5264559-1.8394861,3.0571074-2.8258088,4.5459246-.496132.7488761-.9296351,1.5472888-1.3090536,2.3616804-.162131.3480198-.3092403.6584622-.6131824.8713702h-.4480807c-.1199292-.1783549-.2327992-.3462129-.3040646-.4521922-.1276315-.7582858.2272407-1.3110289.5196677-1.8658316.5551013-1.0531245,1.151746-2.0843364,1.7301992-3.1251724.2587084-.4655296.4942179-.9454378.7765845-1.3960528.8175-1.3045516,1.6633133-2.5913864,2.4783786-3.8974311.4772055-.7646329.9611027-1.5307128,1.3616221-2.3361081.4409297-.8866293.7897228-1.8190742,1.1767364-2.7270954-1.6577088-2.1045492-3.5549698-3.8914668-5.6472842-5.4901757-.1142329.2332318-.2290323.4736223-.3489309.7114365-.6874185,1.3633295-1.3846065,2.7213302-1.9058208,4.1617209-.3056112.8445193-.7091932,1.6450222-1.1809014,2.4101834-.3541219.5744413-.7098976,1.1478719-1.0622279,1.7234233-.4589374.7496877-.9142917,1.501588-1.3728617,2.2514977-.6098749.9973326-1.4798057,1.8225808-1.8840461,2.8959104-.2748633.1668014-.4935595.3329903-.7698469.2043635-.1784697-.3230907-.3741203-.6232352-.2586165-.9968196.1304337-.2952598.2235044-.6121029.3733853-.8993159.5674434-1.0874479,1.1476575-2.1683573,1.7344102-3.2455457.3321022-.6096682.7025322-1.1987178,1.026243-1.8126046.3800463-.7207237.7706125-1.4407889,1.0804653-2.1925131.5202189-1.2620741.7562951-2.6086592,1.0054636-3.9421212.2058489-1.1014935.4784305-2.1771545.8748155-3.2296856-2.0085385-1.3667519-4.0806401-2.6326925-6.2038249-3.8847368-.1263452.5865575-.2256635,1.1244588-.3594201,1.6536548-.3518862,1.3922782-.7378892,2.7761803-1.0731152,4.1723479-.2290782.9541124-.5662183,1.8638257-1.0177597,2.7274706-.2930242.5604378-.6463498,1.0907708-.9921569,1.6219-.6596106,1.0131047-1.3364786,2.0149315-1.9994427,3.0258695-.3017065.4600553-.656349.8944924-.7637218,1.4575027-.0109333.0573768-.0295995.1132835-.0384655.1465274-.1793732.0579969-.33322.1077403-.4948458.1599949-.1025799-.0568561-.2099527-.116392-.3070812-.1702315-.0986905-.1959339-.1910261-.3792654-.3101285-.615732.0409156-.1582033.0659059-.3655682.1466193-.5483254.3958184-.8960849.7903965-1.7933795,1.2159369-2.6755222.5328366-1.1045522,1.1004025-2.1922834,1.6431311-3.2921423.2965767-.6010471.4826262-1.242137.6716923-1.8844098.1146157-.3893756.0951532-.7740732.1194239-1.1637435.025511-.40973.0978789-.8169373.1150138-1.2267018.0209631-.5009019.0258019-1.004342.0001684-1.5047654-.0219737-.4289819-.0531198-.8663246-.1581191-1.2802044-.1680571-.6624013-.0616031-1.3230264-.0647422-1.983617-.0010106-.2132985.0873284-.4270181.1316434-.6264318-.4765624-.2834001-.8832682-.5610005-1.3198184-.7787703-2.0848724-1.0400053-4.1542636-2.11126-6.288152-3.0519891-1.2123538-.5344789-2.4418118-1.0159796-3.7289682-1.324351-.6921961-.1658252-1.3876231-.3374693-2.1163706-.3271256-1.3443647.0190835-2.6885456-.0511674-4.0201701.2453672-.6565787.1462058-1.3418381.1587278-2.00592.277566-.7094841.1269616-1.4216327.198338-2.1394163.2335993-.1591604.0078171-.3183208.0155539-.4163987.0203429-.3460368,1.8339697-.6905729,3.6009577-1.7605184,5.1157683h-.7954803c-.063609-.0762267-.1430361-.1493947-.1952678-.2384879-.113605-.1937595-.2133368-.3956423-.3257474-.607444-.0021591-.5415228-.0942498-1.1075076.1264524-1.6435292.2627509-.638146.539957-1.270454.8188016-1.9018127.1376613-.311744.2930395-.6156669.4539914-.9514557-.4862247-.145578-.932621-.2724362-1.3747145-.4128194-1.587546-.5041023-3.2086574-.8635913-4.8513597-1.1288727-.7913765-.1277999-1.5943295-.1557074-2.3907745-.2335266-1.1136786-.1088122-2.2385202-.1018449-3.3583392-.1500149-.5150126-.022146-1.0372988.0638732-1.5437669-.1055429-.0751701-.0251511-.1751162-.027115-.2482038.0006738-.442905.1684016-.9037719.1104315-1.3553745.1000342-.533296-.0122808-1.0451083.0771034-1.6294415.2043788.5178455.1056922.846732.3387747,1.0715074.7517396.1756216.3226275.4319258.6002547.6294292.9124044.140096.2214372.2462132.4650243.3600479.7022986.4105952.855866.3501712,1.7977589.4683241,2.7040804.0661663.5075553-.0256335,1.0254238-.0850468,1.5413896-.0920294.7994961-.0668247,1.611051-.1219199,2.4188427-.1302347,1.9098021.0866087,3.8305566-.1440161,5.7427168-.0889975.7378318-.0962557,1.4855288-.1405401,2.2287392-.0025113.0417272.006707.0870298-.0064007.1248216-.1983763.572175-.1327,1.178505-.2247448,1.7658396-.098767.630325-.1003289,1.2758786-.1445367,1.9147711-.0028635.0412218-.0014547.0841128-.0126024.1232061-.1526219.5346512-.1803379,1.0882825-.2756136,1.71971-.1705684.2766166-.3856967.6254939-.6136265.9951276-.395114-.2961709-.4721983-.6881535-.4605759-1.105494.0346986-1.2457508-.0683866-2.4915935.0939895-3.7393502.0816015-.627117.0142868-1.2733826-.0719545-1.9177494-.1120432-.8372917-.0262001-1.6928056-.1304031-2.5437639-.092106-.7524593-.1927871-1.509386-.2442532-2.2632617-.0506085-.7419165-.2405475-1.4568634-.2949689-2.1953881-.0284357-.3859149-.079718-.7757346-.1284584-1.1618639-.0839137-.6648667-.2739292-1.317177-.3443677-1.9826944-.077735-.7345357-.2917302-1.4337412-.448387-2.1474823-.135418-.6169647-.3816848-1.21462-.3137729-1.8634428.0232217-.2218583.0967381-.4386328.1176323-.6605141.0695733-.7390951.2323016-1.4399735.7482712-2.0114364.1145544-.0122195.2291089-.0244391.3436633-.0366548-.0628587-.0616873-.1254877-.0884577-.1730337-.07192-.0601943.0209287-.1081384.077088-.1613654.1180496-.4730634.0103897-.940086.0233136-1.4162426.0856134-.750951.0982502-1.5090606.1574109-2.2593991.2797519-.8255239.1346064-1.6555804.2430588-2.4782408.3927444-.3428135.0623802-.6715852.2018943-1.0148044.308846.107189.2351727.1773136.4289322.2789211.6044657.2918068.5040832.4398884,1.0399249.5028084,1.6220914.0349513.3234084.0453639.6651308.1339174.9699496.0843195.2902679.0721841.5694034.1021664.8540094.029967.2845141.0984684.5659006.1149526.8506903.0297756.5147906.0569403,1.0280958.1037819,1.5426108.0692058.7600927.1267357,1.5290514.1388098,2.2919156.0373707,2.3617225.0102748,4.7244058.0171579,7.0866911.0031927,1.0967887-.0164688,2.1885701-.2435947,3.26938-.1508609.7178678-.2661274,1.4434916-.3847626,2.1676989-.0382359.2334194-.1059028.4226846-.331773.5421008-.1063774.056236-.1836454.1675058-.2531422.2338252-.2035979,1.2763992-.5716467,2.4729273-.9943696,3.6620593-.4326379,1.2169782-1.2184559,2.206195-1.9741002,3.2492284,1.1084876.6694031,2.2107429,1.2680078,3.1503542,2.0983859.4948917.4373465,1.0036797.8822958,1.3983191,1.4052174,1.045805,1.3857703,1.3665988,3.0362285,1.4950189,4.7158575.0578285.756364.0487557,1.523669-.086915,2.2937685-.1375695.7808337-.3751845,1.5086242-.732591,2.2446836.785818-.052224,1.4804871.2269574,2.1907062.5099288.059421-.3535247.1021818-.6554302.1624679-.9537985.0681263-.337186.1578205-.6699773.2275623-1.0068724.0946938-.4574368.2353871-.9145367.2552171-1.3761233.0301278-.7012229.1219275-1.3887486.2688683-2.0707387.1665947-.773208.2665485-1.5747062.5464956-2.3060952.3631564-.9487989.8319246-1.8653416,1.3363408-2.7494902.4553083-.7980529,1.0031055-1.5458724,1.5420519-2.2928038.3620692-.5018131.7586839-.9828238,1.1767364-1.4393342,1.0965131-1.197309,2.3520946-2.1900478,3.830859-2.8849006.4915535-.230977.9742716-.4807581,1.4971244-.7398263-.6396734-.7200805-1.0621054-1.5556725-1.4725934-2.4000847-.2592749-.5333419-.4466107-1.0893697-.5476134-1.6701045-.0702241-.4035743-.1081997-.8148509-.1293312-1.2242977-.0215144-.4170036-.0095092-.8360667-.0018222-1.2540426.002205-.1202278.0432431-.2393531.061159-.3597723.0568408-.381792.2394143-.7490062.1695577-1.1424053-.0207794-.1169815-.0140111-.2091028-.0065998-.3227921.0363371-.5588376.2453404-1.066837.3910562-1.5951793.3627123-1.3153165.7704134-2.6128396,1.4400692-3.8086173.1890202-.3375612.4341768-.6490793.6859332-.9450243.5729866-.6735949,1.3115802-1.0977649,2.1349909-1.4086092,1.4625482-.5521345,2.9615714-.9035498,4.5293486-.9253092.6061539-.0084105,1.2125069-.0017265,1.818768-.0008192.1462977.0002182.2957345-.0136207.4383725.0105619.6818753.1156187,1.3596468.2566756,2.0430993.361204.9593724.1467188,1.8470353.5079649,2.6925116.9490248,1.5344568.8004531,2.8045088,1.9625812,4.0390507,3.1519888,1.0151566.97805,1.8954388,2.0817294,2.7145773,3.2272202.5591132.781852,1.0704202,1.598663,1.5857084,2.4108648.5583782.8801673,1.0860392,1.7798813,1.6465918,2.6586169.5614714.8801444,1.1794927,1.7255135,1.7141974,2.6210701.7627724,1.2775553,1.2707565,2.6469793,1.2538512,4.1667282-.0051144.4598792-.0062629.9197966-.0112855,1.3796758-.0011331.103736.0232906.2267354-.0225863.3076861-.1907811.3366501-.0618481.6861552-.1056731.9919119.6083436.1603931,1.175787.3044704,1.7401066.4599098,1.3435991.3700701,2.6151058.9188473,3.7957163,1.6527092.7833833.4869597,1.5621115,1.000954,2.2607696,1.5988621.6252489.5350876,1.2479252,1.0797763,1.7931651,1.719197.8049895.944006,1.5835953,1.9006834,2.2795123,2.9272632.46298.6829319.6986733,1.4291589.676378,2.2508929-.0184824.6812168.0044254,1.3580696-.0972358,2.0443702-.1085978.7332418-.2870522,1.4199865-.6462885,2.0871463.2698713.0803075.5217349.1536401.7726185.2301961.9568611.2919829,1.8563913.72446,2.7708209,1.1221465,1.6646608.7239623,3.3268869,1.449854,4.9218136,2.3231995,1.6148179.8842252,3.0999983,1.9552732,4.4390648,3.2048828,1.2484611,1.1650528,2.4991579,2.3358019,3.5827011,3.668192.6799153.8360667,1.1913141,1.758344,1.5801193,2.7583946.2089573.5374993.2931313,1.0955713.4019282,1.6570274.0973429.5024103.1527137,1.0116806.0544214,1.4766666-.1245536.589264-.0205037,1.1895072-.2025872,1.7712986-.1143401.3653232-.0474847.7868669-.1590991,1.1536218-.2772061.9108846-.4574981,1.8456112-.8311743,2.7353872-.6001207,1.4289598-1.4962515,2.59046-2.7265977,3.5185179-1.4591794,1.1006551-3.1381117,1.6743691-4.9154588,1.8419285-1.4347403.1352496-2.8910563.0947628-4.3301761-.2052057-1.1138624-.2321714-2.2090585-.5128459-3.2893707-.8630247-.4572071-.1482041-.9189008-.2826268-1.4228117-.4368489-.3302494,1.8186761-1.3724788,3.2430651-2.3280996,4.7373566.5625586.0673836,1.0674036.153043,1.5755255.1826118.6979536.0406246,1.3830752.1689988,2.0741382.2455241.8192151.0907125,1.6014805.3196683,2.3667336.5725119,1.2005936.3966989,2.3637782.9019344,3.4484086,1.5735731,1.2283249.7606133,2.3095253,1.6708471,3.084165,2.905435.5436627.8664854.9809173,1.788556,1.3608106,2.7374851.5126238,1.2804035.8150653,2.5999309.8297349,3.9896978.0097542.9240153-.297618,1.7263404-.7839958,2.4757907-.6866222,1.0580322-1.4964659,2.0259184-2.3437798,2.95318-1.0666533,1.1673191-2.212412,2.2600652-3.4633232,3.2350412-.745224.580842-1.550382,1.0466855-2.4308173,1.4054931-1.1948819.4870057-2.4492385.7307382-3.7014819.9692031-.8445729.1608448-1.7146109.1872133-2.5728734.2774664-.1414129.0148686-.2804677.068111-.4212069.0706988-.6850297.0125871-1.3716979.0428144-2.054982.0096011-.4866535-.0236735-.9683762-.1416886-1.4536362-.2079008-.071587-.0097848-.1504934.0339636-.2535327.0598574.3191477.818036.0446059,1.5210275-.3641211,2.1783106-.2267354.3645805-.5138489.698413-.8103643,1.0113743-.6439763.6796856-1.3444719,1.3060216-1.905193,2.0632049-.4651085.6280511-.8899445,1.2944912-1.4165795,1.8666508-1.1521442,1.2517993-2.3560147,2.4499735-3.8090384,3.3746779-.898244.5716697-1.8180789,1.0998818-2.7377913,1.6338822-1.6443561.9547785-3.3806651,1.6934793-5.1551641,2.3506399-.7428352.275093-1.515959.4385715-2.3114393.528595-.900449.1019061-1.7954314.2398584-2.7046852.2328452-.4180984-.003231-.8370084.0141949-1.2541268-.0065845-.4307927-.0214531-.8595334-.0812646-1.2897136-.1182295-.5545807-.0476838-1.1137858-.0611131-1.6634817-.1410301-.6224007-.0904675-1.2321378-.2708207-1.8551357-.3540147-1.1254081-.1502637-2.1707461-.5172483-3.1605601-1.0584609-.7203868-.3939196-1.2953027-.951961-1.7815275-1.6069165-.8761784-1.1801971-1.1177824-2.5607457-1.2408048-3.9744004-.033933-.3899537.0596277-.7773654.0973889-1.1646393.0541305-.5550401.1754684-1.0899592.3540147-1.6030271.3363898-.9667837.736848-1.9112721,1.1258522-2.9037199-.4437013.1297293-.8605288.2816468-1.2903567.3712721-1.0105475.2106877-1.9635038.6748468-3.0489917.6617544-.0476072.5295597-.0619859,1.0439445-.1489162,1.5457422-.0707448.4084514-.0422784.8347115-.1408617,1.2226133-.3696337,1.4545244-.8838194,2.8642897-1.5348855,4.2179798-.3532644.7345357-.76853,1.4390126-1.1342895,2.167852-.8826097,1.7587574-1.7997955,3.4941171-3.0743495,5.0128936-.5634238.6713861-1.2101258,1.2441123-1.9204138,1.7557102-.9000585.6482333-1.8647904,1.1711779-2.8872664,1.5954014-1.1934655.4951826-2.444147.7478119-3.7209443.8899139-.1186353.0131996-.243388-.0248679-.3648867-.0420793-.1415048-.020029-.2830785-.0650331-.4237105-.0616031-.7776946.0189571-1.4963204-.231467-2.1722927-.5571226-1.2365249-.5957413-2.4322107-1.2597466-3.4913608-2.1618647-.9242603-.7872574-1.7337288-1.6529006-2.2961879-2.7291243-.4050597-.7750532-.7100737-1.5893835-.9701449-2.4300823-.4462355-1.442458-.5957719-2.9207324-.6710722-4.411211-.0247454-.4896701.0685244-.9854499.1096161-1.4782897.0427761-.5130526.0271571-1.0416476.1548269-1.5328336.0741825-.2853984.0591071-.5686684.1283282-.8469004.166342-.6686298.3083752-1.3432928.4685462-2.0135151.2355479-.9856337.4363129-1.9822312.7289849-2.9508678.3463201-1.1462028.7458212-2.2788233,1.1786581-3.3954572.2425764-.6258154.5527355-1.2370838.9138859-1.8029346.7907257-1.238906,1.7064492-2.385951,2.7638076-3.4122859.2671533-.2593056.5783537-.4739745.8394661-.7386242.4982835-.505044,1.0840179-.8790572,1.7379551-1.23102-.0310465-.4516333-.0005589-.9150267-.1133065-1.3902416-.0893727-.3767388-.0097236-.791009-.0309623-1.1872256-.0208636-.3892952-.104471-.7765538-.1080618-1.1651906-.0137279-1.4841851-.0094097-2.9685693-.0044407-4.4528463.0011638-.348594-.0420028-.6996227.1047926-1.042306.0524997-.1225477-.0059337-.2926107-.0147002-.4594581-.5257009.4596112-.9871343.9142611-1.4994902,1.301535-1.6712146,1.263192-3.4561568,2.3656311-5.1290635,3.6303084-1.0742024.8120793-2.2635488,1.4519978-3.5209143,1.9607322-1.1091307.4487698-2.2567423.6925942-3.4449785.7386242-.7514103.0291095-1.5048649.0058341-2.2574084.0047929-.1462671-.0001991-.2975338.0169052-.4379207-.0135211-.5149437-.1115531-1.0290758-.2292314-1.5383692-.3640445-.9244211-.2447432-1.845749-.5007565-2.7067371-.9321617-.7737899-.3877027-1.4782821-.8768981-2.176274-1.3880212-.9929072-.7270937-1.5863592-1.7218691-1.9449907-2.8468179-.2459758-.7716078-.4512581-1.5750355-.4098219-2.4096398.0178699-.359979-.1550642-.6339541-.4606448-.8205013-.674931-.412004-1.2607879-.9325521-1.8208888-1.4850886-.4464116-.4404014-.8575504-.9259064-1.3476569-1.3107609-1.0569909-.8300258-1.9713745-1.8028657-2.6978787-2.9095694-.7925556-1.2073159-1.5344185-2.4613049-2.0671938-3.8179045-.3672679-.935163-.6822275-1.8834795-.6315118-2.9093856.017602-.3559518-.0667099-.6867754-.1905438-1.0181962-.4672829-1.2506049-.9176835-2.507511-1.3843462-3.7583533-.2120505-.5683851-.4350573-1.1333784-.6744563-1.6907384-.6780777-1.5786416-1.6791773-2.9840275-2.4390402-4.5199849-.2622839-.5301722-.5843027-1.0308368-.8803817-1.544211-.5435708-.9424824-1.1726096-1.826455-1.8038457-2.712043-.8316949-1.1667984-1.5912516-2.3847566-2.4094025-3.5615466-.980703-1.4105922-2.0146865-2.7811952-3.2715697-3.9654042-.9555901-.9003265-1.6408725-2.0035236-2.336468-3.0994165-.0692211-.1090495-.1424848-.2155418-.2212381-.3343149-.6101965,1.4666903-1.2031355,2.8906429-1.7950562,4.3150165-.5601622,1.3479402-.9962148,2.7327458-1.2953449,4.1638111-.1941461.9288235-.4523759,1.842763-.724437,2.7538237-.5839696,1.9555871-1.3330409,3.8578017-1.8537575,5.8339156-.2250663.8541357-.2828067,1.7288364-.4125323,2.5947859-.0152821.102021-.0375889.2311991.0085866.3091408.1632948.2756289.0774747.5706897.1018832.855912.0142255.1662885-.0194472.3413587.019206.5001133.3170115,1.3019561.7411776,2.5692672,1.3234781,3.7769659.4158934.8625577.8627491,1.7105224,1.3094747,2.5577827.8590473,1.6292808,1.8645951,3.1720294,2.8480467,4.7258797,1.365213,2.1570489,2.9079616,4.1872166,4.5088908,6.1755959.5639214.700419,1.0216798,1.4855479,1.5456044,2.2193793.1718929.2407619.2579121.5402173.5012005.7307535Zm93.2688645,17.1510395c-.721183-.3772288-1.4133944-.7232656-2.0896959-1.0979524-.5715931-.3166976-1.1356217-.6499023-1.6835261-1.0058005-.7868746-.5111538-1.4538812-1.1653437-2.1081477-1.8335294-.4517252-.4613722-.8022486-.9888493-1.0878614-1.5620197-.5634467-1.1307063-.7667537-2.3526765-.8707423-3.5934813-.0380062-.4534708-.0061251-.912837-.0061251-1.391681-.2963776.1329603-.5410442.3124254-.8052499.3484103-.8546946.1164226-1.7158359.1891121-2.5759359.2614187-.7408293.0622768-1.4814901-.0439781-2.2305116.1085365-.8850597.1802001-1.7333383.4443751-2.5294924.8467626-.8740193.441726-1.733614.9213049-2.5582497,1.4488434-.848983.5431268-1.7171222,1.0775865-2.3959809,1.8446312-.5626199.6357228-1.1221006,1.275335-1.6544166,1.9362471-.2153274.26736-.4072111.5777641-.5183967.9000968-.2682635.7776717-.6231357,1.5148105-1.0608344,2.1999321-.6546493,1.024727-1.3520517,2.0287972-2.4492691,2.6394837-.0382971.1741056-.056167.3374004-.1101291.4877254-.4031226,1.1232337-.8019729,2.2482284-1.2248642,3.3640508-.3645805.9619296-.6166737,1.9424335-.5847774,2.9777263.0074573.2422778.0872365.4813859.1146463.7241078.1534487,1.3583452.8186025,2.3755078,2.010131,3.0490376.68186.3854211,1.4286459.5651771,2.1908976.6876023.6043776.0970673,1.2072699.2050832,1.8146182.2873891.369159.0500113.7357301.0614652,1.1030822.0949542.3884989.035403.7768295.1176782,1.1641799.111691.8900517-.0137968,1.7770255.0271648,2.6722529-.0843271.711291-.0886147,1.4451989-.1315209,2.1226795-.320342,1.1852962-.3303719,2.3594294-.7353932,3.4726793-1.2737731,1.046563-.5061312,2.0682121-1.0635907,3.1028465-1.5945592,1.8337591-.9411043,3.3057553-2.3262927,4.6932253-3.8157454.0422172-.0453256.0772986-.0974348.1145544-.1472318.4552777-.6086193.9139089-1.2148038,1.3645162-1.8268531.5343985-.7258228,1.107431-1.4244043,1.4974766-2.2491319.2441613-.5161764.5155026-1.0208682.8003498-1.5159284.1477371-.2567177.2808965-.4990415.2385415-.8089708-.0095551-.0699179.0498276-.1492684.0675291-.1973197Zm-51.0494447-37.8246777c-.3038962-.0479594-.6071645-.1415814-.9082202-.1349127-.9734983.0215067-1.9434365-.0385498-2.9228838.0860192-.9784367.1244541-1.9121526.3632177-2.8493062.6399874-1.1552373.341198-2.2486189.8337775-3.3191157,1.3654962-1.2783439.6349418-2.5178701,1.3486063-3.7690722,2.0375101-1.2516845.6891641-2.4006742,1.498403-3.324345,2.6202279-.4989955.6060467-.9958855,1.2113048-1.4389973,1.8571034-.3583406.5222479-.7063527,1.0570905-.9987643,1.617735-.3967678.7607511-.5780704,1.5965958-.7631782,2.4327008-.0866547.3914237-.0601254.780849-.1263988,1.163131-.112181.6469623-.2217894,1.2908391-.2387942,1.9499444-.0111323.4311985.0751931.8708878-.1005969,1.2936643-.0357093.0858737.000513.2042104.0119822.3066372.0273562.2440924.0814407.4872813.0852306.7314502.0064237.4133438.0117219.8222546.1308089,1.2244585.2031921.6862547.402357,1.3556961.940553,1.8921925.748677.7463265,1.6645995,1.2024464,2.6115992,1.5944214,1.1308442.4680485,2.340924.7042012,3.5423521.865291.9784137.1311994,1.9970463.1029627,2.9750389-.116147.954189-.2138115,1.8527546-.5941181,2.6849778-1.1206153.7948602-.5028696,1.5956923-.9963219,2.3953148-1.4916271.955927-.5921275,1.9119841-1.1840865,2.8704531-1.7720948,1.2615841-.7739354,2.2986149-1.8221138,3.3972335-2.7927563,1.0593261-.9359209,2.086664-1.9080947,3.12554-2.8670613.1687844-.1557992.3420402-.3120272.4828329-.4918521.3548493-.4531952.6757808-.9335015,1.0399555-1.3786958,1.0054789-1.2291212,1.6010977-2.6408465,1.9191352-4.1831664.1188037-.5761333.2987741-1.1454219.3558522-1.727152.084664-.8628793-.0797946-1.6645613-.7415643-2.3232531-.4911171-.4888355-1.0360738-.877434-1.6568437-1.1658873-.8701145-.4043093-1.7403209-.8096982-2.6240791-1.1824097-.2054124-.0866164-.4219879-.259007-.7170716-.159214-.0339177.3565566.0555392.6920276.0808129,1.0333787.0427225.5772665.1385112,1.1387608.2812716,1.6917796.2557683.9907558.5825034,1.9533744,1.2821568,2.7414051.5362437.6040025,1.0459198,1.2322526,1.5962436,1.8228641.3860259.4143085.5375606.8726564.1645581,1.3828302-.0357782.0489241-.0584257.1074417-.0540998.0993106-.4743267.4085816-.9333484.4036739-1.409505.1398051-.0515809-.0285812-.1213686-.022502-.1766781-.0464358-.6055414-.2621154-1.2111517-.5381119-1.6387976-1.0607425-.6635766-.8109692-1.2206609-1.6891994-1.5186387-2.7076482-.1702927-.5820134-.3534252-1.1617605-.4881771-1.7522495-.1177242-.5158548-.2190408-1.0427884-.2497887-1.5693774-.0425923-.7291303-.0146236-1.4625406-.0103973-2.194075.0005742-.0987747.0388101-.1973273.0714109-.3519705Zm14.0337378,39.8628004c.254482-.1873817.5375376-.3179226.8209454-.227302.3699399.1182754.7119648.0856134,1.0710174-.0050532.2360915-.0596124.479089-.0973276.7212137-.1265596.5471387-.0660591,1.0870651-.1875961,1.6255368-.2880935.9107851-.1699712,1.796733-.4730864,2.6930476-.7205246,1.2072546-.3332507,2.1306421-1.0982587,2.8598949-2.0596676.6642197-.8756577,1.1791711-1.8410174,1.3398781-2.9811257.148273-1.0518765.19611-1.5324814.1185051-2.5523237-.0530739-.6975402-.1462671-1.3837796-.2651397-2.0708459-.1211236-.7001127-.2694732-1.3916044-.4882766-2.0683346-.3111085-.9622358-.5954809-1.9335062-.92498-2.8892954-.3564035-1.0338687-.7029456-2.0758838-1.2570669-3.0275079-1.0528871-1.808141-2.5052065-3.2040559-4.357004-4.1818801-1.2108378-.6393825-2.4817474-1.1330492-3.7981511-1.4980431-1.198067-.3321788-2.4018073-.6607131-3.6641495-.6414268-.1009874.0015466-.2022427-.0289487-.3036971-.0420104-.1821984-.0234821-.3724512-.0897249-.5456304-.0595205-.6803823.1186736-1.3803266.1429442-2.0395697.3630875-.8792486.2935984-1.6907077.7113217-2.3773376,1.3544481-.6532941.6119038-.9996371,1.3731449-1.2206379,2.2252517-.0742284.28621-.0672305.5701384-.1257251.848003-.1226242.5824192-.2308622,1.164379-.2313828,1.7616822-.0014547,1.684797-.031192,3.3698697.1182831,5.0516501.0621696.6995002.0580658,1.4060596.1447052,2.1018542.0750093.6024482.261434,1.1902881.35305,1.7915267.1813255,1.1900431.7005645,2.2070219,1.4984336,3.0930617.6980532.7751757,1.5355746,1.3946363,2.3307563,2.0593308.7106402.5939956,1.4637503,1.1368774,2.1866177,1.7166628.5647866.4530267,1.1095595.9308907,1.6675472,1.3925079.6684384.5529882,1.3414706,1.1004331,2.0493163,1.6804482ZM28.0715392,58.2944201c-.576118-.1885072-1.1711013-.3363668-1.7271367-.5750155-1.1071018-.4751919-2.0451742-1.2220314-2.9334955-2.0171902-.9298648-.8323381-1.6240821-1.859584-2.2170441-2.9518555-.57536-1.0598391-.8943852-2.1804773-.8684225-3.4053186.0205726-.9703133.1315439-1.9130101.3720914-2.8564496.1507078-.5911168.3511283-1.1617682.5305627-1.7406961.5293989-1.7080034,1.1540046-3.3788123,2.0050931-4.957362.4704373-.8725569,1.0234867-1.6859838,1.7128269-2.4025194.8509124-.8844702,1.7143429-1.7598064,2.72891-2.4569484.9271621-.6370703,1.8612761-1.2729845,2.8412211-1.8221597,1.467456-.8224078,3.0950906-1.1111826,4.7562754-1.2014511.6876329-.037363,1.3789791-.0065156,2.0686332-.0066687.1816701-.0000383.3633402-.0000077.5692273-.0000077-.3403711-1.3590419-.6268261-2.6624298-.449344-4.0224441-.4256476-.0119056-.8574279.1025033-1.2774558-.2885528-.0727278-.2017986-.2343535-.4803217-.2653005-.7726567-.058464-.5524675-.0297985-1.1086484-.1247757-1.6661538-.1069287-.6276759-.1026718-1.274309-.1465197-1.9127115-.0028635-.0416736.0012939-.0844037-.0061404-.1251126-.1205264-.6601466-.2284198-1.3230111-.367911-1.979161-.1387562-.6527199-.2833235-1.3063968-.4723514-1.9457563-.3040646-1.0285093-.6467709-2.0455953-.970742-3.0599364-.5037271.4373848-1.0123237.8937842-1.5371288,1.3306943-.5703375.4748091-1.1585066.9281344-1.733813,1.3970634-.5447652.4440382-1.0580858.9310898-1.62912,1.3375735-1.2502604.8899368-2.3715111,1.9298771-3.5169636,2.941818-.6702529.5921351-1.3105848,1.2180271-1.9701725,1.8224201-.3516642.3222255-.6983901.6537458-1.0773339.941579-1.1434925.8685679-2.1447298,1.8942367-3.2011848,2.8587235-.7530488.6874798-1.4497085,1.445176-2.2513369,2.0689854-1.1642412.9059922-2.4072051,1.7101778-3.6037025,2.5756067-.8924634.6455229-1.6755175,1.3944602-2.2971143,2.324792-.4820826.7215276-.8368477,1.49887-1.1859393,2.2793439-.2692665.6020042-.4435099,1.2465088-.6527964,1.8512922.0603168.0648494.083707.114118.1174409.1227008.6267265.159413,1.091077.5608972,1.5146957,1.0185484.2956273.319385.5612876.6680249.8705509.9729471.5939573.5856272,1.058438,1.2534454,1.3970404,2.0141659.2148987.482787.4163375.9747157.6729403,1.4351691.7153795,1.2836957,1.4429939,2.5610213,2.1914489,3.8256757.6036809,1.0200337,1.2249561,2.0308874,1.8736488,3.0227763,1.0630318,1.6254526,2.0823228,3.2754515,2.9898999,4.9934464.2858195.5410519.5590367,1.0911995.8825178,1.6094125.7477506,1.1979062,1.3080965,2.4791136,1.7978585,3.7985339.2109633.5683468.3616481,1.1663926.7037495,1.7320214.6447266-2.4986833,1.8813893-4.5558473,3.8866126-6.1091616Zm81.558043,5.8556826c.1621004.2016608.3548263.4728644.5791423.7147594.7643343.8242606,1.5316852,1.6460712,2.3133075,2.4538859.7923106.8188399,1.6683052,1.5403292,2.6360843,2.1449059.3937206.2459605.81211.4542441,1.1950044.7152723.4405162.300313.8382947.6695103,1.4246646.6512345.0955667-.002986.1971359.0490849.2891194.0907508.889822.403046,1.835076.6422307,2.7577744.9492736,1.039366.3458607,2.1174425.4227229,3.1904046.5354398.4546958.0477604.9203402.0356403,1.3775474.0026797.4460901-.0321644.8931295-.1011328,1.330277-.1971359,1.0134875-.2225703,1.9209497-.6881765,2.7137351-1.3466233.7029303-.5838203,1.3016269-1.2658258,1.5837331-2.1662365.1938131-.6186491.4113455-1.2322909.5602004-1.8618886.1356247-.5736909.2376534-1.1631387.2736995-1.7506034.0459688-.7493048.0340095-1.5045434.0038588-2.2554867-.0289717-.7212979-.2474994-1.3983956-.6205019-2.0215849-.6762708-1.1298412-1.6256899-2.0354889-2.5163541-2.9796863-.8940177-.9477577-1.9174891-1.7664291-2.9218043-2.6014239-.9211212-.7658426-1.9120837-1.4102859-2.9743422-1.9524939-1.2529784-.6395586-2.5126178-1.26591-3.8168479-1.7962047-.8278974-.3366271-1.6468827-.7042089-2.4956973-.9778318-.83488-.2691363-1.7050251-.4447808-2.5916161-.4089185-.6325224.0255952-1.2605735.1170428-1.8864961.2308545-.5821283.1058492-1.1390212.2729645-1.684552.4934064-.5794026.2341391-1.0899745.5646488-1.5179956,1.0245203-.635784.6830927-1.1517307,1.4543253-1.4995897,2.3105129-.2061398.5074175-.4717848,1.0570675-.1935527,1.6470971.0322486.0684019.0099992.1654922.0037976.2485943-.0934688,1.2526185.2727654,2.4273719.5992938,3.610999.2826574,1.0246198.7279972,1.9798807,1.1884659,2.9314589.2298745.4750158.4327527.9630857.6992399,1.5604731Zm-21.6927608,11.8985555c.6101505-.2519401,1.2047433-.4730634,1.712314-.8651073.3580573-.2765783.7191618-.5493361,1.0825019-.8189394,1.0966356-.8137331,1.9857225-1.8437124,2.8262223-2.8946625,1.1389599-1.4241363,2.0306194-3.0246138,2.8226544-4.663978.7172477-1.4845526,1.3825546-3.0000293,1.9651729-4.5417825.4127237-1.0921719.7926322-2.2128331.5540447-3.4484928-.1055965-.5469014-.2287414-1.0727171-.4621072-1.5683208-.4276076-.9080135-.9489903-1.7615903-1.5408575-2.5746114-.6868672-.9435314-1.5534598-1.6453974-2.6656837-2.005897-.8566087-.2776502-1.7426791-.4308463-2.6462213-.4510667-.4596878-.0102901-.9204015.0133374-1.3795533-.0055662-.8530562-.0351121-1.6697599.1708287-2.4751323.3939886-.749435.2076634-1.4596388.5440379-2.0437118,1.0733602-.8478652.7683921-1.5596309,1.6618203-2.2498975,2.5705611-.5472765.7204787-1.0863454,1.4472432-1.621433,2.176787-.0690604.0941579-.099012.2196533-.1360229.3342077-.2109633.6528271-.4229679,1.3053862-.6260145,1.9607016-.1732787.5592128-.3343991,1.1221925-.5018896,1.6832122-.2662728.8919658-.4757049,1.7975446-.6891182,2.7034679-.1920521.8153103-.3608442,1.6411252-.411269,2.4647273-.0565499.9235559-.085399,1.8564296.0741442,2.7944024.2052823,1.206711.5425143,2.3312387,1.2757178,3.3264122.3835223.5205558.809859.9932594,1.3495557,1.3465697.2536858.1660588.547889.2715174.8271164.3968903.2782168.1249058.5540141.2609057.8431029.3542061.2883997.0930937.6097065.2333582.8842329.1815323.3229299-.0609676.5851602.0879716.8811856.0824513.7940103-.0148074,1.5884953-.0050532,2.3509462-.0050532Zm-18.4800762-32.2356891c-.0201056-.0063624-.0402265-.0127249-.0603321-.0190873-.046566.4920359-.0807516.9856796-.1440927,1.4755487-.0415434.3212914-.1336417.6356921-.1882163.9557279-.1061707.6227682-.2486556,1.2442348-.2900076,1.8719108-.0507234.7699158-.0451342,1.5473654-.0036061,2.3183071.0316667.5880466.1824281,1.1549847.5227991,1.6671415.2474612.3723593.5777871.6320401.9138094.9084423.8446648.6948069,1.8355048,1.0151719,2.8797862,1.2449009.7404924.1628967,1.4843382.0937445,2.2269897.1292776.4020354.0192404.7891256-.0604393,1.1526954-.1701396,1.5270301-.4607137,2.958126-1.1436686,4.3047111-1.9993432.5922653-.3763407,1.1278276-.8268791,1.677156-1.2628474.8393513-.6661338,1.5527861-1.4451607,2.2027037-2.2777207.6422766-.8227523,1.2321225-1.6911365,1.7887551-2.5749023.7832149-1.2434692,1.5196647-2.5143175,2.175049-3.8346183.7142617-1.4388901.9878081-2.9672524,1.0980596-4.5414533.0276701-.3951753.011362-.7939414.0048541-1.190893-.0232294-1.4147802-.6507752-2.5315443-1.7671029-3.3531482-.9054103-.6663559-1.8427324-1.2966809-2.8081073-1.8721787-.943049-.5621681-1.8926059-1.159946-3.0577046-1.1593794-.6110387-.3053203-1.2328881-.0528901-1.8188445.0464741-.6462273.1095855-1.2949352.303544-1.9094346.5824804-1.0258295.4656444-2.0531138.9367019-2.9067212,1.6792768-.9876396.8591812-1.8372811,1.853168-2.5877267,2.9295601-.5285337.758079-.9315032,1.5791622-1.2956243,2.4260703-.6019735,1.400103-1.1865978,2.8033834-1.5613153,4.2871397-.1481352.5865919-.363677,1.1561408-.5485322,1.7334532Zm-11.1417627,50.664705c-.1337872.1274018-.2235197.214378-.3148754.2996239-.60878.5679946-1.1112592,1.2275287-1.6311719,1.8734803-.6082135.755652-1.1562403,1.5645156-1.50181,2.4573389-.4965914,1.282976-.9425437,2.5984456-1.2566764,3.9360727-.4494436,1.9137987-1.076285,3.786544-1.3129124,5.7543966-.0832246.6921501-.0999461,1.3890625-.2023499,2.0799876-.0688154.4643275.0256718.9418699.0865551,1.4153698.0590458.4591825.0299134.9287622.2142938,1.3574264.5567627-.2128621,1.123318-.3324085,1.7298777-.3540147.8758721-.031192,1.731363.1022124,2.5684174.2898697.5811559.1302806,1.1690953.3107869,1.6924763.6616013.6093007.4084055,1.1554058.8590741,1.570702,1.4702812.2540227.3738447.5427439.7249653.8276753,1.0767443.5820747.7186105.7208232,1.5879441.8132737,2.4605852.0449581.4244685.0831098.8716152-.114164,1.2842163-.1048615.2193087-.2167439.4352793-.3806588.7631705.7825794-.3066525,1.4520743-.5917446,2.1372036-.8323074,1.1085182-.3892033,2.0346237-1.0602372,2.8867381-1.8387817.6432107-.5876715,1.1568988-1.2907396,1.6506114-2.0080791.9296427-1.3506888,1.7310491-2.7717243,2.3933854-4.2713753.5952053-1.3476569.9032819-2.7767928,1.0864985-4.2237068.1047696-.8273155.3735384-1.614282.458279-2.4419037-.0476379-.0220503-.1099606-.0389556-.1580272-.0749098-.759082-.5679027-1.5015804-1.1593258-2.2778356-1.7025445-.9070029-.6347121-1.8611612-1.2025077-2.7625979-1.8446158-1.6034023-1.1421449-3.3433021-2.0852399-4.8364605-3.3913687-.6754593-.5908718-1.2996822-1.2097812-1.8300381-1.931638-.4871664-.6630866-.8202716-1.3997661-1.0767061-2.1902698-.1607682-.0261082-.299601-.0486638-.4597031-.0746495Zm8.3042243-47.2295113c-.3154267-.061182-.6117277-.1552786-.9117039-.1690371-.5837744-.0267666-1.1716679-.0385038-1.7539186.0011791-.4205714.0286578-.8537299.1017453-1.1924243.4016449-.4039954.3577051-.792502.733349-1.203993,1.0820196-.3281822.2780866-.6659348.5501247-1.0256764.784616-.7008554.4568396-1.4200937.8854808-2.173556,1.3516918-.043312.9758948-.0899163,2.0089213-.1341317,3.0420474-.0062476.1459914-.009624.2930931.0007044.4386251.0394073.5548487.0713496,1.1108075.1336724,1.6632367.0338947.3004891.1228999.5948072.1877799.8917514.1428523.653853.2934835,1.3061059.4273014,1.9617964.1379523.6759493.2597267,1.3552061.3769685,1.9719181.3656524.3799315.6801143.7066742,1.0730923,1.1149955.0135977.0042033.1479821.0753079.2860416.0833318.6872424.0399738,1.3105083.2733014,1.9230016.5693804.7943625.3839817,1.5462169.8377894,2.2748037,1.3306139.7110996.4809878,1.2917196,1.0834819,1.6707629,1.8674777.2952598.6107018.4365656,1.2568678.5857038,1.9167387.1534411.6789199.0006814,1.307461-.0463286,1.9547908-.0230533.3174786-.150034.6274156-.229484.9405377.1353415.2544055.3126397.4489995.5523986.6342298.5263364.4066215,1.1570059.4993554,1.7501594.693758.4396128.1440774.911122.21986,1.3739182.2566029.5393751.0428297,1.0847376.0100069,1.5578699.0100069.1394835-.0609906.2150977-.0924505.289395-.1267816,1.2371757-.5718075,2.0720403-1.4942685,2.5088662-2.7951604.231268-.6887354.5326069-1.3539505.7882221-1.9944738.2778033-.1380671.496668-.246841.6917367-.3437858.2195384.0780949.4086199.145356.6198435.2204878.0923051-.4357616.2113614-.8680779.2718314-1.3084411.1579813-1.1504904.5102963-2.2500353.8571753-3.3496722.2130305-.6753138.4811103-1.3335539.7326063-1.9963802.3623448-.954947.8269327-1.8597754,1.3503826-2.7360227.2299817-.3849847.4727342-.7670446.6534702-1.1753123.1573535-.3554847.3063156-.7064675.5230671-1.0342975.2066757-.3125938.3545507-.6640819.5656518-1.0704278-.1852686.094824-.2949382.1387638-.3916993.2023576-1.2843235.8441059-2.6671844,1.472134-4.1478782,1.8802179-.6709267.1849164-1.3461563.3479892-2.0537723.3242391-.5635233-.0189189-1.1280726-.0067606-1.6921777-.0091493-.1044174-.0004364-.2128161.0129163-.3125938-.0098001-.5137263-.1169585-1.0344965-.2144393-1.5353755-.3736073-.7730932-.2456772-1.5339821-.5206018-2.240618-.9422834-.4806892-.2868455-.915532-.6166891-1.3476722-.968583-.4902213-.3991796-.8483552-.8784293-1.1592952-1.4160588-.3408075-.5892563-.5620992-1.2212811-.6875716-1.8811061-.0879716-.4626048-.1169356-.9397721-.1314597-1.4116871-.0080468-.2613575.1039504-.5260454.0984684-.7879082-.0120588-.5767765.1180764-1.1289377.2464352-1.6903173Zm35.4009043-14.5165248c-.0119439-.2710045-.001271-.5226154-.0389402-.766769-.0556005-.36027-.1641676-.7125007-.2169965-1.073031-.0978942-.6681321-.1444755-1.3447092-.2640678-2.0084543-.1005892-.5583476-.2475913-1.1134106-.5548716-1.6056303-.7807342-1.250559-1.5658938-2.4983464-2.3439942-3.7505362-.5822814-.9370847-1.1461875-1.8857228-1.7366918-2.8175323-.6403472-1.0104632-1.3370758-1.9785485-2.1675151-2.8480046-.8347881-.8739963-1.7449607-1.6647986-2.6928179-2.4056623-.8043923-.6287172-1.6813363-1.171844-2.6839212-1.43662-.7653296-.202124-1.5332624-.3881965-2.3303812-.4746368-.4094161-.0443992-.8175919-.0769655-1.2274827-.089365-.4337787-.0131307-.868277-.0029477-1.328317-.0029477.4715551.9651759.5143235,1.9594957.3499109,2.9014498-.2271948,1.3017953-.8216345,2.4767554-1.8074213,3.4117882-.3184126.3020357-.6163981.6262442-.9426509.919253-.7539063.6771054-1.618692,1.1697614-2.5543909,1.5601668-.5017059.2093248-1.0373447.2013622-1.5323589.3618625-.2176703-.0825279-.4217735-.2123568-.6477586-.046788v.6089179c.4213447.6715392.7690812,1.3852114,1.2655808,1.9732733.5205864.6165589.6869897,1.4469752,1.3487288,2.0329623.3081072-.0502257.6480189-.1200747.9914219-.1586704.7696019-.0865092,1.5398009.0129775,2.2878731.1452335.7756963.1371407,1.5241666.4300806,2.2386274.7806347,1.584315.7773348,3.0651925,1.7250312,4.4969622,2.7516723.6966368.4995238,1.3034185,1.0986875,1.7781127,1.8093353.5575667.8347039,1.0089549,1.7238521,1.0442201,2.7693662.4783999-.2548802.9144448-.5300574,1.3831212-.7279513.9726025-.4106947,1.9706242-.7306463,3.0204028-.919521,1.1207531-.2016302,2.2270816-.4752455,3.3614477-.6185496.3459143-.0437025.691507-.079963,1.0383554-.1152282.155516-.0158257.3038656-.1020439.4658129-.1600179Zm13.1015761,14.5983789c-.0268585-.1995706-.0593521-.3389087-.0618634-.4787827-.0075185-.4179147.0147461-.8370237-.0076717-1.2538818-.0384196-.7141622-.1070818-1.4256752-.3578276-2.1056288-.0558761-.1514887-.1066837-.3078239-.1337872-.4663871-.0815708-.4773127-.3174633-.8732766-.5986354-1.2575569-.416659-.56948-.9089476-1.076507-1.3410265-1.6275734-.5220258-.6657663-1.1610715-1.1895072-1.80785-1.6986857-.6713248-.5285108-1.411266-.9728858-2.2146936-1.2954865-.3400036-.1365205-.6612491-.3192395-.9997367-.4600476-.6945389-.2889127-1.3844228-.5946694-2.0954841-.8369548-1.0268096-.3498726-2.0828817-.6515791-3.1768988-.5514416-.7865224.0720081-1.5701813.1029704-2.3571325.1165145-.0208865.0003598-.0451725-.005436-.0621696.0030396-.2915388.1454938-.6063836.0936143-.9135261.1169203-.3261149.0247454-.6495501.0829107-.9748841.1200747-.4286489.0489701-.8600694.0780642-1.2863295.1421173-.2585399.0388407-.5087038.1311994-.7641352.1932541-.8567159.2081534-1.6400226.5898229-2.4051072,1.0142608-.1215523.0674296-.2351574.1491688-.3783466.2408767.0551105,1.1786811.10944,2.3396683.1635704,3.5006556.00294.0626137-.0071664.1283359.0083301.1875042.2456619.9391366.4827793,1.8807462.7459131,2.815021.2807127.9967507.6712023,1.9556637,1.1221006,2.8853294.3025027.6237176.6615094,1.2212658,1.0160447,1.8181708.4635466.7804739,1.0163969,1.5006157,1.6159817,2.1786321.565024.6389155,1.2721805,1.1157841,2.0220137,1.5093439.3908265.2051292.8249573.3839511,1.2572506.4414427.7565554.1006199,1.5218238.166633,2.2914562.1452028.4940801-.0137738.9858021-.0006967,1.4442342-.1987667.5734306-1.1417468,1.3277657-2.1389875,2.2616118-3.0033368.7017665-.6495348,1.5053013-1.1194821,2.4026572-1.4485218,1.3982808-.5127081,2.8369565-.765567,4.325276-.7461351.4160159.0054284.8321543.0008269,1.2606654.0008269Zm-10.2179771,49.4261588c.835814.4952898,1.5492029.9093916,2.2540473,1.3375658,1.2690261.7709187,2.640969,1.2260433,4.1102702,1.4341432.4065526.0575911.8281577.0457544,1.2153244.1551025.3984982.1125332.803933.1243546,1.1689116.0481279.7329585-.1530812,1.4798669-.0366433,2.2090891-.2065839.4365656-.1017683.9131739-.0434728,1.3416084-.1642136.2669466-.0752314.5351335-.0408543.7865377-.1212614,1.6539725-.5289778,3.1863468-1.2816744,4.4328785-2.5215298.5448571-.5419477,1.0518459-1.1220547,1.5734736-1.6872164.5215971-.5651005,1.0570216-1.1187012,1.5545164-1.7044126.4254026-.5008024.8161219-1.03246,1.1994451-1.5667819.1127169-.1571085.226567-.380031.2038123-.555086-.0650637-.5005727-.1629426-1.0037486-.3148601-1.484767-.3620233-1.1462947-.8504071-2.2489481-1.4480777-3.2858794-.7237096-1.2555662-1.757318-2.2379536-3.0300498-2.9477593-1.6916724-.9434624-3.533777-1.4483687-5.4241013-1.7776993-.8270552-.1440774-1.6726693-.1891733-2.5117756-.2546658-1.1221772-.0875734-2.2382139.0667022-3.3567926.1198067-.0208559.0009953-.0422172.0003216-.0624606.0045938-.7737975.1635858-1.5524951.307219-2.3200451.4962545-1.2694089.3126397-2.4374477.8296583-3.3458287,1.8136688-.5068969.5491294-1.0063058,1.1051647-1.5098339,1.6589185.0101676.0886913.0193706.1690065.0296148.2584327.5603689-.3297747,1.1288076-.5647789,1.7382078-.7382261.560522-.1595279,1.1116267-.0664878,1.6653499-.1058874.3365429-.0239338.6541746.0776508.9514251.1971053,1.2071934.4851528,2.0222127,1.3812071,2.5077331,2.566488.5574901,1.3609943.6938958,2.8073417.7515788,4.2598448.0120052.3020433-.0974042.6071186-.1080312.9122858-.0145318.417394-.1247986.809078-.2919063,1.1790027-.2652775.5871508-.6411588,1.0793781-1.1843315,1.4673717-1.0254467.7324532-2.1253592,1.2052946-3.4002654,1.2128744-.4128155.00245-.8256464.0003828-1.385464.0003828ZM39.3801876,47.535927c-.1382662-.1956506-.2399732-.3504392-.3524758-.4969436-.5774732-.7520305-1.014077-1.5839092-1.4146348-2.4395226-.5360217-1.1449701-.7429501-2.3627752-.8190466-3.6080437-.015841-.259229.1087203-.5261067.098813-.7868057-.0317969-.8364572.2185967-1.6181484.4552777-2.395889.2508147-.824184.6728484-1.5774549,1.153752-2.2917395.2050909-.3046082.4452249-.5856272.6972722-.9135873-.9252556-.4147143-1.8770788-.6086346-2.8388323-.6887048-.9659185-.08043-1.9286138.0413214-2.8890733.2186579-.8403925.1551638-1.5933801.4742884-2.3035074.9201105-.7326676.4599557-1.4269615.9685753-2.0777673,1.5457882-.9095218.8066663-1.9186681,1.4920712-2.7008647,2.451857-.5749389.7054875-1.0966585,1.4372899-1.5193125,2.2357792-.5319944,1.0050425-.899492,2.0822463-1.258491,3.1576584-.2108485.631596-.321613,1.296566-.5319255,1.9283764-.2225474.6685839-.1825276,1.3710701-.334759,2.0481601-.0752697.3347896.046788.6909251.083462,1.0364795.0745653.7024939.2742125,1.3671117.5922423,1.9711601.6913615,1.3131803,1.6540261,2.3905142,2.9329366,3.1914842.7279359.4558979,1.4976067.7263511,2.3294471.8542582.6235415.0958806,1.2565386-.0038205,1.8463998-.1449808,1.5618129-.3737222,3.0509517-.9736744,4.4433218-1.7804479.5123176-.29686.9926545-.6615017,1.446401-1.0440517.768262-.6477126,1.2733596-1.506044,1.7282851-2.383501.4399191-.8485083.8255009-1.7251843,1.2330795-2.5855523Zm18.3677957-16.290059c.1697185-.386761.348349-.7934055.5266197-1.2002108.2366963-.5401102.4727572-1.0805189.7097521-1.6204989.3033985-.6912926.4542058-1.4306365.6066592-2.1599736.1758589-.8413726.3622912-1.6928132.274289-2.5682566-.0166373-.1655381-.006952-.334246-.0025725-.5013077.0155348-.5931228-.1771528-1.1357749-.4891877-1.6162267-.4269339-.6573596-.9421838-1.2355525-1.5671724-1.7362018-.9692644-.7764237-2.0132625-1.4051026-3.1563951-1.8717423-1.3142829-.536504-2.7145466-.7348726-4.1077359-.8533586-.9607275-.0817087-1.942311-.1078054-2.918535.0758669-.5996919.1128203-1.1943154.2243581-1.7801646.3958605-1.0021714.2933763-1.802636.9079829-2.4698111,1.6651585-.4968288.5638525-.8773881,1.2329723-1.2882972,1.8690626-.6247206.967067-1.0068724,2.0401669-1.2958081,3.1458293-.2154193.8243142-.4086428,1.6514383-.5359068,2.4997322-.0816704.5443518-.1156187,1.0956479-.1991649,1.6400533-.090858.5920968-.0272107,1.2090462-.0161932,1.8148786.0028941.1592369.0530126.3193773.0938746.4758503.1786611.6839961.3618778,1.3667902.5338932,2.014074.1582263.0800166.2655072.1342619.3559365.1799857.2481732-.1343078.4838666-.2534102.7113217-.3866002.618251-.3620462,1.2925082-.5944856,1.966352-.8143992,1.1388833-.3716703,2.2777973-.7340993,3.4929609-.8227982.4049754-.0295612.8254091-.0361304,1.2247035-.1173949.7077308-.1440314,1.4147802-.2440617,2.1377549-.2428291.1586321.0002756.3171187-.0925041.476126-.0939741,1.190602-.0110405,2.3935385-.1159479,3.5683455.019294,1.0311584.1187118,2.0308415.5109012,3.1483559.810127Zm57.3019946,41.499102c-.4064301-.2442991-.8115434-.4813935-1.2102559-.7288011-.8082818-.5015681-1.5199862-1.1267097-2.2596977-1.7205522-.9350558-.7506371-1.6728378-1.6761836-2.4648268-2.5497129-.6308074-.6957716-1.1301551-1.5105077-1.6916112-2.2696663-.0568102-.0768009-.139407-.1345299-.1555313-.1497431-.4120193.1613884-.764518.3153042-1.1274601.4384873-.87944.2985138-1.7639178.5822278-2.6460682.8728249-.673193.2217664-1.2833282.5572604-1.7487123,1.0971102-.2794571.3241702-.5165745.6886052-.7448871,1.0524124-.7828474,1.2474046-1.4348782,2.5661281-2.0641543,3.8948356-.1895561.4002744-.3311834.830156-.4401181,1.2603132-.2536245,1.0014364-.5407533,1.9925597-.6635919,3.0287176-.0794883.6702759-.1407851,1.3428487-.2175325,2.0134386-.0419262.3662725.0357858.7382644-.1041571,1.1049121-.0629812.1649869-.0053748.3759961-.0015772.6259073.1245536-.1172495.187933-.1718087.2455241-.2319188.8281117-.8645407,1.8859755-1.1914213,3.0379512-1.2755493.2171956-.0158563.4421241.1003442.66252.096807.6658276-.0107036,1.2964665.1654463,1.9273811.3339627.2120505.0566417.3964003.0945713.5724812-.0458539.2132143.4251346.7257769.2981156.9447946.5254789.8156013-.3206866,1.5574871-.6588143,2.3293705-.901674.6548637-.2060403,1.3512401-.2762031,2.0165624-.4539838.6758268-.1805905,1.3686507-.2388784,2.0546145-.3070429.7349339-.073034,1.4838635.0007427,2.202765-.1773213.818771-1.7660846,1.555328-3.5499625,1.5462169-5.5333882Zm-29.9353361,21.3817212c.4307008-.4317727.8332109-.8503611,1.2527793-1.2511102.3289784-.3142323.6620147-.6287249,1.0230426-.9040322,1.0124769-.7720672,2.1485886-1.3365399,3.2865072-1.8933103.7659115-.3747481,1.5684357-.6436701,2.3940668-.8668376,1.03834-.2806515,2.1033089-.4235038,3.1436396-.6746477.0787227-.676179.1565419-1.3446709.2330596-2.0019846-.1755603-.2752461-.366663-.5439077-.5238634-.8311437-.1259165-.230043-.2191097-.4794259-.3122569-.7257156-.4624747-1.222843-.5130679-2.5173341-.6064449-3.7964131-.0507617-.6956185-.017824-1.3991919.0715257-2.1062107.1110019-.8783987-.0031697-1.7801799.1581191-2.6637543.0768239-.4207322.1211848-.8476048.2043176-1.2669283.1208786-.6096376.2635472-1.2149646.3969209-1.8221215-.1905821.0733632-.2986592.2177162-.4163528.3537391-.5010321.5790504-.9664009,1.1960151-1.5181947,1.7221677-.5951288.5675123-1.2527334,1.0757873-1.9186069,1.5612157-.7433099.5419017-1.5219003,1.0364872-2.3752168,1.3984569-.7738128.3282434-1.5644697.5797088-2.4174952.5767994-.8537912-.0029171-1.7076283-.0006431-2.4809664-.0006431-1.4357204,1.0777014-2.2063788,2.5075493-2.7102897,4.0353986.4041485,1.0960384.8215426,2.1525546,1.1830758,3.2278442.4442679,1.3212578.8589669,2.6532039,1.2527028,3.9904482.2055273.6980302.3685159,1.4121082.4952133,2.1287433.1032537.5840577.1239871,1.1827236.1847173,1.8100397Zm-43.8154874-29.5742852c-.4722365-.2900458-.9220935-.5678262-1.3734129-.8432254-.9587292-.58503-1.9022989-1.1972631-2.881861-1.7451138-.9772346-.5465415-2.0292719-.9425437-3.0844712-1.3106002-.9852968-.3436633-1.9949638-.6344901-3.0596493-.528618-.6345437.0631037-1.2132419.2186733-1.7127657.706613-.8580634.8381722-1.4454669,1.8407877-1.9706931,2.8906276-.6354931,1.2702588-.7791417,2.6525607-.839803,4.044793-.0113467.2606071.0982311.5248357.1017377.7880613.0088278.6617467.175522,1.2876081.3606451,1.9151156.3016299,1.0224684.7784373,1.9662371,1.3020021,2.8843417.6528654,1.14484,1.3544175,2.2586028,2.2924439,3.2045765.3645422.3676201.7164361.755139,1.022522,1.1714994.3843798.522891.8324146.9611639,1.4116105,1.3191293.066373-.4651008.0549114-.9178825.1204881-1.3653048.1036441-.7071183.1697185-1.4222375.2671074-2.1334596.0944565-.6897613.2705527-1.355788.4687223-2.0145258.5471464-1.8188139,1.6136541-3.3493736,2.7967836-4.796433.6177533-.7555754,1.3188154-1.4439509,1.9949102-2.1505563.4295677-.4489382.8854502-.8674195,1.433477-1.1804038.4526822-.2585246.8822652-.5574901,1.3502065-.8565168Zm3.7763611-54.3092235c.1935527.5993857.4170419,1.1664615.554573,1.7536698.1293236.5521689.374373,1.093841.2945784,1.6801534-.0510756.3751999-.1424772.7449139-.2182598,1.1295885.2667782-.0389709.5309378-.0468952.7762552-.1189722.8335937-.2449346,1.69351-.3129766,2.5491157-.3356241.867052-.0229538,1.7345634-.0153778,2.6081232.0770727.7151192.0756793,1.4267165.1775165,2.1236901.3177886,1.2792397.2574604,2.4984995.7232541,3.6408129,1.3638272,1.0255539.5750959,1.9793524,1.2535832,2.8385184,2.060418.7141392.6706281,1.354073,1.4011596,1.8471195,2.272323-.0468722-1.4821638.1270113-2.9517866-.0719009-4.4258346-.1044863-.7743258-.0099533-1.568941-.1370182-2.3536833-.098545-.6085657-.099035-1.2330221-.1428447-1.8504309-.0029554-.0416659.0113161-.0928908-.0079473-.1237459-.1544364-.2474305-.0891813-.5233657-.1154885-.7881073-.0261847-.2634591-.1079547-.5234997-.1149373-.7863769-.0225709-.8498328-.2633405-1.6483528-.5685688-2.4260703-.2224861-.5668883-.5326222-1.0991775-.7592198-1.6647067-.2386028-.5954848-.4561812-1.1910385-1.09404-1.5865545-.3999069.2189719-.8506674.4208968-1.2516538.6955151-.6601542.4521118-1.3250171.9096175-1.9221518,1.4390126-1.3735967,1.2177821-3.0216738,1.821264-4.7617497,2.2311318-.8686904.20462-1.7563227.3293344-2.6240408.5374802-1.1566002.2774435-2.3021445.6009246-3.4429649.9021258Zm10.8930842,41.199057c-.2529584.0570935-.4434563.114631-.6381958.1413364-.6068966.0832476-1.2119786.1900997-1.8147178.2874886-.477351.0771225-.9555978.012411-1.4145199.1107952-.4732242.1014621-.9423523.1032383-1.4165412.1061401-.4805207.0029477-.962343-.0210167-1.4413172.0065232-.8327362.0478905-1.65189-.1057956-2.4417506-.2871517-1.5851189-.3639603-3.1440224-.8466708-4.5407413-1.729158-.0806521-.0509531-.1704535-.0874356-.248043-.1266285-.0389479.0453486-.0628587.0601024-.0646733.0772144-.0542147.5104647-.100283,1.0218712-.1607529,1.5315703-.0383813.3235654-.0539467.6593273-.1562739.9639126-.2449116.7289772-.2225321,1.491918-.3269342,2.2371038-.0948087.6767379.0661127,1.3510257.2409303,2.0042203.2519325.9413034.5672902,1.8643846,1.0607425,2.7119358.554841.9530023,1.1476116,1.8839236,1.630345,2.8782166.0953217.1963243.2393225.3690212.3748859.5737675.7293983-.4812634,1.5379251-.5283194,2.2136217-.6999826.2718314-.1916387.4527588-.3864088.6746171-.4636614.842008-.2932079,1.7073833-.4965608,2.5873975-.6582478.3900379-.0716712.7874412-.0327692,1.1598694-.134216.6030378-.1642595,1.2300399-.0580429,1.8305052-.2110322.0962787-.024531.2297979-.0318198.3056725.0164535.2349813.1495057.4875799.0758669.7316723.0974042.124546.0109716.2581877-.0206569.3745644.0127631.8513105.2444063,1.7361788.2580652,2.6425003.4521463-.3089034-.6469929-.5871432-1.2297567-.861103-1.8035625-.3018673.1132375-.5746863-.0482504-.8472909-.1535253-.4362517-.1684858-.861838-.364412-1.2935035-.5449873-.5981071-.2502021-1.1830299-.5515564-1.8228105-.6704673-.6498794-.120802-1.3166793-.1538928-1.9424411.1247144-.2590146.1153201-.508566.278255-.7210682.4662799-.4616401.4084438-.9317023.8125311-1.1250942,1.4434609-.0826657.2696876-.2501026.5133971-.3573069.7258764-.173294.1216595-.3080383.2162615-.4528736.3179456h-.7614555c-.6516863-.3586621-.707815-.9174691-.6119651-1.5420366.0299976-.0594669.0724981-.130472.1030699-.2062929.4944017-1.225806,1.3236849-2.1704016,2.434477-2.8697027.2551864-.1606457.5443212-.2673754.8179058-.3987814.684287-.3286645,1.4083336-.4069967,2.1596138-.3852756.720494.0208406,1.4265251.0622539,2.1342176.2479512.6733691.1766858,1.3031582.4249202,1.9121526.7829086-.0164841-.2826268-.04309-.5391301-.0443916-.7957636-.005413-1.0655125-.0055509-2.1310632-.002473-3.196591.0010642-.3697715-.0454635-.7439913.114118-1.1013902.0363524-.0814024.0053595-.192879.0053595-.3396743ZM36.1443884,14.2051911c.010428.0676516.005704.1345337.0310159.1868994.545462,1.1283444.7795168,2.3453034.9562179,3.5674382.102266.7072638.1791971,1.4219389.2507304,2.1337046.0717707.7141775.1754072,1.4230721.2532494,2.1350828.0920065.8416099.102733,1.6920935.1493756,2.5386877.0082995.1506848.0198989.3011782.03391.5106026.0877725-.2154882.1716862-.3587999.2048306-.5130296.212931-.9906486.537507-1.9503272.8477197-2.9105341.4416647-1.3671117,1.0771195-2.6429597,1.9833338-3.7780684.7290155-.9131547,1.547863-1.7145535,2.5665645-2.3262621-.07994-.4694879-.1582876-.9499627-.2452714-1.4288641-.0288645-.1589269-.1157029-.3140562-.1146616-.47051.0044177-.6630483-.0563278-1.319271-.1225247-1.9780853-.0326927-.325357-.0888291-.6276377-.2014388-.915356-2.3954755.7254629-4.6685412,1.6288673-6.5930512,3.2482944Zm40.8495825,55.7661712c-.2775277.4144923-.5734153.8413037-.8536074,1.2781755-.5081985.7923872-1.1249947,1.4859461-1.9046111,2.0134156-.787533.532829-1.6409567.9149961-2.620695.9017583-.5349191-.0072276-1.065076.0168593-1.6013274-.1113005-.8151266-.194816-1.6168622-.4161078-2.3064321-.8976391-.4556299-.3181676-.8537682-.7186871-1.2713766-1.0769587-.4123562.9221242-.8365873,1.8708006-1.2685285,2.8367268.3255943,0,.6547488.0649489.9419541-.0170507.3313825-.0946326.653141-.0873284.9805805-.0900771.6401405-.0053595,1.275289.0173723,1.9161416.0992034.669005.085422,1.3354603.1851537,1.9909518.3261303,1.2513093.269144,2.452592.6974483,3.6440132,1.1740873,1.7618812.7048597,3.304515,1.7287828,4.6758148,3.0153803.5242462.4918674.9607199,1.0772956,1.4374966,1.6204224.2033835-.492166.3834458-1.0073548.6255398-1.4915276.2428903-.485773.5476134-.9406219.8379884-1.430514-1.3898435-.5898459-2.5228314-1.4309505-3.4178904-2.6199983-.9368167-1.2445487-1.3778689-2.6571469-1.6253531-4.1562007-.0764717-.4631638-.1232674-.9312199-.1806594-1.3740331Zm31.7439365,21.5907092c-.0172574-.1046624-.0651403-.2837906-.0731642-.4647103-.0228159-.5140326.0048388-1.0260439-.1219045-1.5381778-.1365741-.551901-.2478823-1.1090542-.5141245-1.6157214-.6143156-1.1689881-1.6716128-1.4002714-2.7688302-1.1635215-.5868293.1266209-1.091322.4301955-1.6501597.7919584-.0307173.3125632-.0923663.6760718-.097297,1.0403307-.0135518,1.0015283-.0164305,2.0036078.0035832,3.004937.0085751.4291389.0407471.8680779.1463743,1.2810313.0608221.2377146.1633867.4870669.3621611.6967439.3149826.3322553.6739433.5224393,1.1134795.5880696.5300497.0791821,1.0491968.1058262,1.5859534-.0327386.6296436-.1625445,1.1736738-.4507605,1.672164-.8800219.0797793-.1667708.1679499-.35109.2298592-.4805284.0368118-.4037504.0683713-.7500781.1119053-1.2276512Zm-48.8820674-47.2355981c.1144166-.0113084.2229302-.0025113.317624-.0345685.6096758-.2063465.9665387-.6715086,1.1896373-1.2406976.4400339-1.1226442.8307379-2.2559614.7694564-3.4954569-.0210856-.4266046-.1472624-.800189-.3566255-1.1557503-.2076404-.3526366-.4366115-.6928315-.6407071-1.0474052-.3988121-.6928928-.7996531-1.3813219-1.5089152-1.8275039-.1324014.0703466-.2572077.136666-.4031226.2141943v.4983524c-.1619243.4112307-.2811568.7131209-.3997079,1.0152714-.5326605,1.3575796-.9685676,2.7360074-.8489524,4.2230943.044292.55063.1545436,1.0766831.48771,1.5507189.3777111.5374075.8617461.9394505,1.3936027,1.2997511Zm.4875033,76.9426216c-.545906-.3468637-.4631484-.2709126-.6809029-.8135953-.0525686-.1310309-.0864786-.2694579-.1370182-.4014076-.3034751-.7921269-.6216351-1.5788483-.9110837-2.3760437-.3364127-.9264806-.9845005-1.5976523-1.8578843-1.9498448-.8185183-.3300656-1.6868336-.6003504-2.6061402-.5521153-.1988969.0104433-.4012085-.0441466-.6337627-.0726742-.2362063.1400348-.6564715.0139499-.815073.4603309.2421859.5336329.467658,1.1228203.76853,1.6705868.3981689.7248734.8941785,1.3940391,1.5399311,1.9182241.4906195.3982838,1.0155624.7641046,1.5616292,1.0817975.6817298.3966453,1.337941.8724421,2.1320279,1.0260592.5397427.1043715,1.0923863.3446893,1.639747.0086823Zm37.1518905-38.3146847c.039124.3896627.0214225.8366869.1401114,1.2439439.1637695.5619308.3617476,1.1340751.9485003,1.4417842.5002052.2623375.9875631.5491447,1.5070929.8399485.4522305-.9485616.9065282-1.8562995,1.3879753-2.7516647.50411-.9374905,1.1450544-1.7448688,1.9317146-2.4806066-.2411753-.0671616-.4330743-.1425461-.6318027-.1719542-.6684154-.0989125-1.3565536-.116591-2.0041437-.2891883-.6034589-.1608448-1.1226059.0033229-1.5508873.3128235-.4781855.3455621-.8437613.8481331-1.2528559,1.2874703-.1472318.1580885-.2785383.331015-.4757049.5674434Zm-64.6573664-25.2873216c.2878408.0764487.5191394.1449655.7537838.1989734,1.0511185.241895,2.0599816.6118426,3.0358151,1.0605511,1.1970334.5504233,2.2448137,1.3416773,3.2895545,2.1340568.263662.1999688.5005038.453601.8514254.5829245-.4056722-.791032-.8085191-1.5217089-1.160926-2.2759445-.6011926-1.2867123-1.0095674-2.6256104-.9447028-4.0701049.0157032-.3495357.037409-.6988112.056948-1.0590199-1.6688182,1.6263024-3.669953,2.662514-5.881898,3.4285633Zm44.8066489-37.722695c.715747.1591068,1.2859773-.1043255,1.832626-.357774.9685753-.4490837,1.7771021-1.134925,2.4599421-1.946009.3078469-.36566.5341995-.7898261.6572831-1.292378.1434189-.5855162.0431665-1.1559455.0939282-1.7298317-.2015613-.2256673.0046704-.6408142-.3576438-.7954114-.2071964.0460568-.4075633.0800396-.6017745.1355673-.940798.2689908-1.7144271.7541628-2.1545146,1.6725086-.2021126.4217275-.4189713.836373-.627898,1.2548504-.2906047.5820517-.6013457,1.1553292-.8626113,1.7502972-.1774591.4041256-.2848165.8390297-.4393372,1.3081807Zm22.1762139,69.286041c.069045-.3629114.1358851-.7142617.2102895-1.1053485-.7312129-.2122649-1.4340972-.4162915-2.1677448-.6292455-.0884003.3987738-.174274.7861855-.2696263,1.2163963.7622977.1773672,1.4831745.3451027,2.2270816.5181977Z" stroke-width="0"/>
      <path d="m22.9091016,84.4649486c-.1421862-.0070898-.2462744-.0122655-.3617323-.0180231-.3433341-.2329677-.4867377-.5973797-.5634161-.9838421-.1468643-.7402474-.3667243-1.458521-.7004037-2.1306727-.3354251-.6756583-.7148665-1.3313412-1.1058997-1.9770785-.6357381-1.0498399-1.2876464-2.0901936-1.9495233-3.1237943-.6180442-.9651453-1.2426882-1.9267609-1.8917867-2.8711268-.9528951-1.3863215-1.9486581-2.7433652-2.8920057-4.1360108-1.0224225-1.5093745-1.9929655-3.0538305-3.0102964-4.5667346-.7326829-1.0895994-1.5091755-2.1496452-2.2584267-3.2282194-.7478655-1.0765989-1.4664683-2.1667112-2.0338963-3.3587144-.397832-.8357528-.6008863-1.7182247-.8456525-2.5944184-.1599758-.5727033-.3416152-1.144618-.2246261-1.8035012.273711-.7199733.849829-.9531707,1.5777037-.810571.6706664.2589763.9146133.8618839,1.2004634,1.3891391.6386628,1.1779691,1.3154083,2.3504026,1.6567058,3.6589585.3417339,1.3102326.9062985,2.5257255,1.5134324,3.7189537,1.0482167,2.0601041,2.2192798,4.0507803,3.5404304,5.9516857.6900523.9928536,1.3561402,2.0028958,2.0115321,3.0190553.2983453.4625666.5402327.9612482.8152414,1.4392346.509056.8847611,1.023747,1.766276,1.5358808,2.6492685.5839734,1.0068724,1.1739418,2.0103454,1.7490109,3.0222786.3022348.5318336.5928701,1.0713619.8631549,1.6200242.6655673,1.351041,1.2201556,2.7408079,1.4515078,4.2430008.0763798.4959023.0973047.4926867-.0773981.8911083Z" stroke-width="0"/>
      <path d="m23.8519439,36.048985c.0959035.1752311.1749631.3196989.2309541.4220032v.6665166c-.3837214.0491998-.7285178.0700097-1.1065888-.3024491-.1209705-.3244305-.3174939-.7512496-.4396817-1.1983809-.3422699-1.252565-.9869046-2.3605089-1.6047651-3.4834058-.284985-.517945-.5519545-1.0460041-.844749-1.5594165-.1827956-.3205181-.3985288-.6222552-.6190013-.9625497v-.7022948c.0836917-.0778116.1900614-.1767164.2994785-.2784464h.6154794c.5005191.2041951.8712017.6480418,1.2087017,1.0808099.6788434.8704438,1.3267398,1.7692696,1.808853,2.7733781.2874427.598689.4410292,1.2253849.4498417,1.8867794.0072353.5432416.0014777,1.0866593.0014777,1.6574562Z" stroke-width="0"/>
      <path d="m70.4707074,45.2708469c.250072-.0863867.4603156-.1590073.6781084-.2342386.1446592-.2750777.2870369-.5458218.4371475-.8312662.6623822-.5662949,1.4689796-.7409977,2.3227248-.7631169.4590753-.011898.918763-.0048312,1.3781292-.0008039.8799606.0077176,1.6361179.3091638,2.2691303.9316717.4760724.4681404.9028225.9586373,1.022522,1.6442566.1004055.575115.358532,1.1413027.0998389,1.7370976.0271801.7673662-.296638,1.4297407-.6326908,2.0858141-.2069361.4039954-.4555686.7806117-.786798,1.0988712-.3763253.3615715-.7076466.7821277-1.1245506,1.0866363-.7372767.5385253-1.5637959.8844319-2.5114847.8248884-.1871214-.0117602-.375621-.0016997-.5296822-.0016997-.5817454-.2154116-1.0894998-.4807274-1.4509106-.9606433-.4090639-.5431804-.6792721-1.1552909-.8646632-1.8052622-.1220577-.4279598-.2616178-.8549549-.3341847-1.2922019-.166388-1.0027533-.2139646-2.0167461-.1572922-3.0318338.0096011-.1719695.1253346-.3380282.1846561-.4881694Zm2.9096306,5.5779252c.2031232-.008912.4023723.0225786.5744413-.0318505.9763695-.3089034,1.6950719-.9023937,1.9354509-1.9372195.0966539-.4160542.1323631-.8530944.1372938-1.2812686.0034454-.2987588-.0925807-.5986583-.1478137-.9192071-.9367248-.7609272-1.9831806-1.1169862-3.1791957-.9683686-.2757361.3834228-.5377826.7478119-.799232,1.1113817.0405021.1988586.0766861.3979316.1219505.5949144.1630192.7095377.2387253,1.4413784.5052431,2.1242567.1856361.4756589.3687302.9614702.8518618,1.3073615Z" stroke-width="0"/>
    </g>
  </g>
</svg>