<?xml version="1.0" encoding="UTF-8"?>
<svg id="Layer_2" data-name="Layer 2" xmlns="http://www.w3.org/2000/svg" viewBox="0 0 90.7615054 136.4147568">
  <g id="Layer_1-2" data-name="Layer 1">
    <path d="m80.7454705,12.4381604c.0743427.0561909.1154711.1120759.1651722.1211845,1.057211.1938022,2.0525098.570748,3.0348032.9953746.944249.408179,1.7991217.9529969,2.6068023,1.5855211.7998605.6264109,1.4628599,1.3762749,2.022756,2.2138295.699465,1.0463565,1.2380651,2.1784433,1.5814569,3.3896192.1391403.4907677.2250562,1.0002674.3027129,1.5110373.1606872,1.0569026.1593386,2.1145265.1484553,3.175083-.0027182.2653038-.0566117.5297477-.0785559.795284-.0207628.2512214.0024568.4993692-.0686135.7546653-.0737572.2649614-.0539248.5552935-.0872959.8348364-.0925337.7753811-.2617623,1.5311624-.4257113,2.2924298-.2362426,1.0969751-.5529438,2.1690473-.8491854,3.2492688-.384332,1.4014705-.8600581,2.7718856-1.3327315,4.1412971-.3656183,1.0592653-.7263124,2.120815-1.0482723,3.1921083-.5009531,1.6669442-1.0220208,3.3264604-1.5857538,4.9728299-.2869683.8380721-.6015159,1.6671533-.8698646,2.5110225-.2718823.854972-.543681,1.7139847-.736997,2.5885799-.1434162.6488752-.2970152,1.2990938-.3777665,1.9649264-.0633653.5225418-.1907442,1.0379797-.2482863,1.5652993-.0572808.5250196-.1701068,1.0437298-.2413026,1.5675523-.0472757.3478611-.0602917.7002439-.0962032,1.04983-.0199369.1940322-.059748.3859472-.0826541.5797651-.0212647.1799028-.0110087.3557544-.0660522.5409628-.0741231.2495095-.0343538.5248209-.091415.7920666-.0757331.354688-.0171246.7421721-.1167047,1.08651-.0999773.3456448.0169783.7087539-.1451621,1.0361293-.011636.0235281-.0040773.0563921-.0061787.0848548-.0300465.4073687-.0166228.8242093-.1025701,1.219435-.0871809.4009548.0001255.8178111-.1515185,1.2059068-.0098378.0251538-.0029482.0566326-.0048928.0851057-.0295238.4359986-.0547717.8723475-.0909237,1.3077973-.016121.1943353-.061243.3861563-.0803541.5803819-.0191633.1947012.0297538.3960255-.0776045.5819292-.025206.0436427-.0056246.1122458-.0096496.1691502-.028792.407468-.0198533.8223484-.0970605,1.2204962-.106501.5491331-.1129829,1.1092854-.2338485,1.6566098-.0721158.3265703-.0402084.6755449-.1060828,1.0042271-.0601871.3002666-.0518235.6080552-.1457371.9061263-.0656967.2085118-.044087.4399557-.0891255.6638567-.1208447.6006691-.1651304,1.2164711-.2783433,1.8190168-.1791082.9533079-.4038298,1.8980483-.5827708,2.8513824-.1712882.9126239-.3914516,1.8133086-.5938527,2.7186142-.1993901.8918401-.4004426,1.7832098-.6026659,2.674454-.1994633.8791064-.3429004,1.7708002-.5333728,2.6521125-.145988.6754717-.3580073,1.337572-.484968,2.0160442-.1887474,1.0086703-.4822184,1.9904722-.714321,2.9876947-.16581.7123974-.3880329,1.4118206-.5907685,2.1154047-.2830374.982356-.5652489,1.9650048-.8588245,2.9442245-.4603056,1.5354358-.9002038,3.0771129-1.4141101,4.5962395-.2787719.8240525-.5278005,1.6582773-.8126465,2.4801448-.3084212.889906-.6554093,1.7652801-1.0181526,2.6354374-.8162011,1.9579375-1.7827602,3.8425569-2.7517344,5.7259427-.593424,1.1534038-1.21817,2.2907074-1.8302764,3.4344721-.6256033,1.169002-1.2645884,2.3289504-1.9729712,3.4522553-.6222683.9867365-1.3000818,1.9300969-2.0185951,2.845669-.4092035.5214232-.8490181,1.0187171-1.2651948,1.5348294-.967521,1.1998536-2.087815,2.2538654-3.1833944,3.3303024-.5558084.546096-1.1411301,1.064111-1.7352127,1.5688068-.7192974.6110818-1.4560017,1.2022058-2.196156,1.7880712-.761074.6024254-1.530313,1.1948667-2.3053752,1.7792266-.7933892.5981809-1.6155703,1.155432-2.4856491,1.6375772-.7073582.3919639-1.4067135.802171-2.1345262,1.152536-1.0871164.5233364-2.2049013.981227-3.3453414,1.3772158-.7313777.2539422-1.46999.4889616-2.2123763.7087905-.9800717.2902092-1.9634157.5709675-2.9522432.8293948-.6424404.1678904-1.2949225.300392-1.9472216.4264327-.4241327.0819536-.8568695.1183356-1.2842169.1849523-.4946699.0771236-.9864386.1734523-1.4818141.2452336-.3194351.046293-.6425554.0720636-.9649596.091875-.6070411.0373334-1.2209248.0201774-1.8207261.1050583-.8520185.1205729-1.7024219.057333-2.5526004.0605949-.8646111.0033246-1.7319247-.0215678-2.5930388-.0938928-.3796745-.031897-.7622972-.0303392-1.1377428-.0792877-.5431635-.070809-1.0941105-.0789427-1.6307347-.1726264-.5500792-.0960255-1.1080517-.1187956-1.656108-.234413-.4632956-.0977505-.9430363-.1146974-1.4124374-.187221-.3833441-.0592358-.7622867-.1471067-1.1429492-.2234566-.326356-.0654563-.6507675-.1422348-.9788747-.1970378-.7795054-.1301807-1.5499415-.3022111-2.3082346-.5211514-.7301493-.2108066-1.4552908-.4407241-2.1759734-.6821313-.8936592-.2993361-1.7792998-.6230105-2.6336026-1.0238817-.7179592-.3369099-1.43607-.6743426-2.1438255-1.0319109-.8131379-.4107926-1.5675523-.9184784-2.293389-1.4674704-.7149509-.5407537-1.369861-1.1508319-1.9733241-1.8109249-.3890444-.4255754-.7578906-.8753637-1.0881069-1.3476398-.512704-.7332857-1.0309412-1.4694986-1.4621595-2.2511786-.5177118-.9384781-.9706835-1.9152514-1.4060392-2.8957152-.3250152-.7319475-.5798566-1.4948928-.8015673-2.2672055-.1869988-.6513843-.3876487-1.2976041-.4986374-1.9693121-.0926068-.5604711-.2342301-1.112819-.3278118-1.6731542-.0577198-.3456186-.0174043-.712711-.1081215-1.0465055-.1319109-.4853757.0171482-.9889424-.1493858-1.4654213-.0312331-.0893764-.0074254-.1983133-.0074515-.2982175-.0002666-1.0419577-.0120411-2.0841036.0048248-3.1257895.0082199-.5076336.0604511-1.0158108.0981347-1.5218448.0394138-.5292746.0844496-1.0635047.1656505-1.5880538.0743218-.4801171.0982497-.969131.2286709-1.4420553.0589143-.2136293.0697191-.4406928.1003197-.661933.0608771-.4401805.1566256-.8743182.2323247-1.3109964.0617527-.3562405.1301755-.7115192.1974665-1.0667769.1161506-.6131728.2340916-1.2260632.3592227-1.8374483.1026955-.5017999.2139299-1.0019062.3269911-1.5014897.0886132-.3915561.1809116-.7824118.2802382-1.1713543.1880966-.7365684.3791701-1.4724259.5754421-2.2068511.1069427-.4001707.2186423-.7994842.3430912-1.1944903.2406597-.7638863.471607-1.5317662.7438474-2.2845183.3390061-.9373595.7027948-1.8663448,1.0792467-2.7894232.520119-1.2753358,1.1104798-2.5190777,1.7563415-3.7358573.5039248-.9493822,1.0097001-1.8981477,1.5976302-2.7993551.5884999-.9020752,1.1631004-1.8143854,1.7841507-2.6937114.4946699-.700385,1.0452562-1.3617221,1.5799514-2.0332734.4828823-.6064818.9729521-1.2074331,1.4695404-1.8027494.2632155-.3155407.5499015-.6113746.8209161-.9205589.5501106-.6275896,1.0967189-1.2582634,1.6450784-1.8873794.0280967-.032242.0588699-.0621735.0888275-.0927637,1.3565419-1.3846072,2.7072396-2.775022,4.0724536-4.1510356.5910665-.5957554,1.2021588-1.1726977,1.8223727-1.7382027.6060584-.5525988,1.234474-1.0807129,1.8546513-1.6177501.42752-.3702131.851177-.7453189,1.2883988-1.1037967.5664877-.4644717,1.1418723-.9182537,1.7188513-1.3697094.4647122-.3636214.937762-.716574,1.406588-1.0749472.8260807-.6314788,1.6549475-1.2593664,2.4763759-1.8968408.4786952-.3715094.9427749-.7617797,1.4178633-1.1380146.4958878-.3927114,1.0005836-.7743461,1.4949974-1.1688766.4960028-.3958059.9825547-.803436,1.4761164-1.2023261.3940548-.3184576.7967503-.6263299,1.1876844-.948525.4144308-.3415622.8168911-.6975989,1.2293773-1.0415657.4327786-.3609033.8738843-.7118276,1.3062918-1.0731699.2717412-.2270896.5441306-.4549685.7990242-.7003641.9849906-.9482322,1.9826574-1.8845305,2.9369638-2.8629661.6614207-.6781429,1.2781271-1.4026937,1.8812583-2.1341812.7698872-.9337474,1.524725-1.8812583,2.2520463-2.8484133.9843738-1.3089682,1.9157584-2.6554684,2.7369516-4.0759402.552029-.9548866,1.1297868-1.8948701,1.6888152-2.8457683.6013068-1.0228258,1.2018242-2.046258,1.7879509-3.0777977.3720688-.6547873.7116028-1.3279747,1.0758202-1.9873306.5802303-1.0504364,1.1756093-2.09253,1.7523374-3.1448587.8306075-1.5155616,1.7413809-2.9890564,2.4432087-4.5726487.3713683-.837931.7805195-1.6585988,1.1024899-2.5197155.2188461-.5852825.4934467-1.151041.7666254-1.7141362.1432803-.2953425.2060079-.5978045.2446795-.9189776.056298-.4676892.1629036-.9261025.3310658-1.3704543.2795246-.7385783.4874876-1.5058492.86424-2.2051601.2934815-.5447631.6286142-1.0636902,1.0439859-1.5265154.2268857-.2528079.4333954-.5274058.6818699-.7566465.7036155-.6491575,1.4456935-1.259254,2.3331845-1.6371799.557272-.2373011,1.1287832-.4680446,1.7611088-.4581833.2346744.0036591.4830757-.0217586.7014932-.1000793.170525-.0611463.331139-.0535145.4978167-.0658797.3926225-.0291291.7848896-.0757593,1.1779303-.0836603.6705267-.0134786,1.3420779.0135073,2.0121342-.0087557.3455977-.0114818.6879336-.1010385,1.0335104-.139352.3188444-.0353496.6264083-.1092767.937234-.1868995.5932672-.1481574,1.1674234-.346042,1.7214022-.5980528.7601017-.3457885,1.5179139-.6982784,2.2628773-1.0752243.6509243-.3293643,1.2378351-.7640143,1.8175009-1.2052481.984792-.7495948,1.8899826-1.588932,2.7337629-2.4911966.5501106-.5882398,1.0609328-1.213289,1.5877192-1.8232587.3603596-.4172535.7184924-.8364373,1.076552-1.2556563.4771793-.558686.9456604-1.1250757,1.433723-1.6740638.1963688-.2208678.43235-.4071021.654688-.6041465.2543291-.2253946.511094-.4482018.771194-.6668872.386977-.3253341.7958983-.6123076,1.2789635-.7868197.5853426-.2114574,1.1308636-.2214794,1.663766.1661955.3268944.2378069.5109059.5428251.6144691.9160896.1462389.5270125.0132564.9332443-.1645136,1.3721519-.2756146.6805082-.6879231,1.2810257-1.1198445,1.8666192-.2593159.3515895-.5532052.6776228-.8294784,1.0168366-.0436689.0536151-.0838773.1127058-.1128783.1752047-.2338171.5040738-.6521161.837718-1.0594901,1.1905084-.5236291.4534827-1.0685542.8824493-1.4982592,1.4430432-.2274294.296712-.5626143.5110967-.850764.7607943-.0743113.0643873-.1612936.1150084-.2312662.1834155-.5874022.5743679-1.2119391,1.1056811-1.8647766,1.6033671-.5692843.4340018-1.1433778.8618041-1.7196772,1.2864621-.1455803.1072773-.3077207.1920876-.5025317.3120228Zm-61.4218423,119.1861166c-.0473489-.3104598-.1214563-.5838999-.1235159-.8578731-.0033977-.4506874-.0098796-.8995452.0539196-1.3544666.0740604-.5280619.0305013-1.0713979.1014044-1.6071334.0385252-.291077.0924918-.5741144.1620933-.8587722.2458347-1.0053353.7654858-1.8788903,1.3088793-2.7384048.3959262-.6262515.8148472-1.2389015,1.2445574-1.8426337.4798975-.6742485.9782056-1.3356588,1.4785471-1.9950304.416757-.5492324.8593472-1.0790506,1.2699935-1.6326845.500791-.6751685.9618755-1.3802686,1.4732936-2.0469793.6657594-.8679305,1.2858897-1.7666497,1.9000504-2.6704812.574036-.8447944,1.0693854-1.7360282,1.5317192-2.6443447.4736561-.9305535.9294715-1.8707462,1.3693644-2.8177447.2804028-.6036382.5151609-1.2283632.7748218-1.8417555.3352058-.7918837.648802-1.594337,1.0192137-2.3695351.4564583-.9552786.957725-1.8893344,1.4473976-2.828513.373637-.7166106.7278284-1.4461012,1.1473035-2.1354148.5887822-.967521,1.1548308-1.950912,1.8525029-2.8504676.5413078-.6979491,1.0463121-1.4240734,1.56635-2.1384676.65232-.8961161,1.3194071-1.7820389,1.9505357-2.692875.5809778-.838438,1.1181456-1.7071212,1.6829136-2.5569547.8128452-1.2231464,1.4960376-2.5221514,2.2241744-3.7945285.4362391-.7622867.8323848-1.5476676,1.2407572-2.3257094.6876095-1.3100555,1.3702008-2.6227351,2.0557351-3.9338674.2842763-.5437019.5635552-1.0901848.8576379-1.6285549.5953268-1.0898502,1.1913592-2.179481,1.8018608-3.2608525.5561063-.9850063,1.1367757-1.9561132,1.6975918-2.9385006.8054747-1.4109372,1.6718265-2.7816607,2.6402256-4.0873618.6935268-.9350647,1.3681308-1.8843005,2.0698958-2.8130663.7185238-.9509295,1.4290393-1.90602,2.0702304-2.9120818.593309-.9309246,1.1905803-1.8582111,1.7192695-2.8289887.487383-.8949504,1.0294227-1.7607847,1.4992733-2.6644699.7065742-1.3589307,1.3891445-2.7311911,1.9965882-4.138511.3300099-.7645606.644662-1.5357285.970051-2.3023016.7252983-1.7086528,1.2955236-3.4725582,1.8566011-5.2389883.3052639-.9610757.5792685-1.9322087.8587304-2.9013031.1799655-.6240874.3483473-1.2516143.5142931-1.8796117.158889-.6012545.3066125-1.205452.4616333-1.8077415.2447736-.9510079.4954226-1.9005261.7360039-2.8525847.1490721-.589906.2927915-1.1814587.4222927-1.775902.0769354-.3531773.1188897-.7138715.1815128-1.0703106.0624558-.3554878.1322089-.7096896.1967556-1.0648219.0770086-.4236727.1598195-.8465247.2248575-1.2720635.0444425-.2907346.042247-.5893912.0974787-.877499.0899514-.4693593.1654754-.9382716.1646913-1.4172491-.0000627-.0428011-.0098378-.0900716.0045791-.1277395.1758464-.4595973-.0261574-.9597427.1993379-1.4236682-1.2777194-.4812383-2.5177082-.9482636-3.7457682-1.410796-.1820773.5516814-.3455664,1.093052-.5388405,1.6235733-.4878639,1.3391533-1.0030666,2.6684609-1.4814168,4.0109413-.5616734,1.5763498-1.0852084,3.1663011-1.6465263,4.7427869-.3063825.8605181-.6470875,1.7092853-.989622,2.5563536-.4212054,1.041618-.8537331,2.0787979-1.2939345,3.1125488-.3863811.9073704-.7711418,1.8162777-1.1906012,2.7085255-.6228224,1.324786-1.2845985,2.6311667-2.0154901,3.9003709-.4872366.8460908-.9697478,1.6965516-1.4977051,2.5171854-.9351117,1.4535187-1.936997,2.8605563-3.0988689,4.1461428-.5323587.5890331-1.05075,1.1917146-1.6035579,1.7609206-.514795.530043-1.0645763,1.0263124-1.6033436,1.5327751-.3203917.3011657-.6479343.5947936-.9746301.8891847-.55803.5028349-1.1181613,1.0033332-1.6769963,1.5052742-.5589134.5020247-1.1273457.9939868-1.6735672,1.5094822-.8180463.7720199-1.6272533,1.553747-2.4265388,2.3451655-.4340227.429752-.8397187.8881078-1.2583157,1.3334424-.0293252.0311965-.0605792.0605949-.0893084.0923089-.5140475.5674548-1.0242738,1.1384171-1.5427383,1.7017998-.4716854.5125525-.9522625,1.0169242-1.4289766,1.5248557-.0097698.0103971-.0204962.0199108-.0300831.0304647-.543566.598254-1.0860291,1.1975169-1.6309333,1.7945426-.3638305.3986182-.7333797.7920301-1.0960237,1.1917146-.1996515.2200432-.3939189.4452301-.5843233.6733494-.3883466.4652715-.772459.9340872-1.1582599,1.4014914-.3055671.3701869-.631416.7256904-.9123207,1.1137233-.5910979.8165147-1.1717934,1.6412781-1.7324893,2.4788902-.7232179,1.0803888-1.4293425,2.1724136-2.1301666,3.267533-.5117945.7997351-.9883465,1.6222089-1.5070463,2.4173022-.7867191,1.2059172-1.5756232,2.4114476-2.4028383,3.5895765-.6692303.953125-1.3888675,1.8713734-2.1003814,2.7941173-.4813768.624286-1.0119583,1.211615-1.476728,1.8474951-.7005993.95853-1.3501489,1.9523129-1.8671132,3.0268367-.4949835,1.0288372-1.0371068,2.0366816-1.4926869,3.0824343-.7686954,1.764517-1.3621612,3.597292-2.0107855,5.4082065-.393255,1.0979421-.8495356,2.1699254-1.345392,3.2245228-.7889669,1.6780051-1.6824902,3.3026605-2.5461499,4.9424645-.1883553.3576101-.3609242.725497-.5746841,1.0674356-.8296091,1.3270547-1.5849801,2.7008832-2.4980797,3.9754453-.5146695.7183983-.9868358,1.4659336-1.5365387,2.1609031-.4782927.6046941-.9224721,1.2370197-1.3673075,1.8673066-.4151496.5882281-.8515141,1.1581606-1.3501306,1.6777542-.1339679.1396107-.2929954.2551863-.4580605.3968566.0820817.2018156.1507397.3977034.2394208.5840567.4076562.8566708.8366085,1.7032739,1.3702792,2.4893239.3623904.5337596.7208473,1.0771897,1.1452309,1.5598891.429705.488763.8928072.9522782,1.411554,1.3597462.7520464.5907476,1.5524715,1.0995103,2.3945425,1.5461517,1.2047254.6389956,2.4533549,1.1782439,3.7257634,1.6693592.9304228.359126,1.8823403.6508093,2.823662.9753515.1546288.0532976.323021.0666794.5014131.1017233Zm21.1877841-.0434598c-.122162-.3383109-.0211653-.633371.1358418-.8870833.4606924-.7444616.9905629-1.4391803,1.6116864-2.0603717.4541531-.4542001.9192521-.8981965,1.3575926-1.3672003.3468993-.371201.68647-.7547176.9838876-1.1656461.756406-1.0450837,1.305445-2.2042793,1.7329388-3.4152565.6762872-1.9157428,1.3206983-3.842766,1.9760553-5.7658793.5259448-1.543329,1.0403895-3.0906098,1.5746457-4.6310429.3626596-1.0456796.7544353-2.0812286,1.1262636-3.1237823.2599745-.7289052.4920719-1.4680768.7655224-2.1917547.4058894-1.0741683.8145702-2.1470717,1.1593211-3.2426824.3607046-1.1463155.7072432-2.2971057,1.0679479-3.4434317.2366294-.751968.474367-1.5040406.7348957-2.2479168.3979021-1.1361641.807806-2.2683137,1.228081-3.3963964.3192312-.8568904.6605321-1.7056157.9956543-2.5565366.3908975-.9925388.77685-1.987179,1.181558-2.9740933.3529996-.8608109.7314666-1.7111462,1.0944294-2.5679112.5196773-1.2266696,1.0342736-2.4555138,1.5533549-3.6824447.4164904-.9844783.8371521-1.9671898,1.2546357-2.9512395.5475597-1.2906936,1.0885957-2.5841994,1.6422713-3.8722584.4828353-1.1232527.9761251-2.2420413,1.4706172-3.3602339.4892021-1.1062117.9850742-2.2094647,1.4792527-3.3134705.3635169-.812129.7274834-1.6240646,1.0939589-2.4348607.5604711-1.2400254,1.1299959-2.476308,1.6137825-3.7490771.3885034-1.0220783.7719154-2.04619,1.1455942-3.0737518.2644177-.7271279.5144081-1.4596504.7609067-2.1931033.4584029-1.3639437.9210607-2.7266434,1.3598298-4.0969435.3200885-.9996427.6077468-2.0097401.9043229-3.0168108.3434336-1.1661793.6763499-2.3354636,1.0220731-3.5009633.3300204-1.1125263.6761826-2.2202696,1.0047289-3.3332088.2385426-.8080831.4656479-1.6196737.6873795-2.4325502.2072834-.7599867.4017912-1.5234652.6000418-2.2858983.1914028-.7360614.3824293-1.4722377.5698593-2.2093184.1839382-.7233747.3614783-1.4483751.5450088-2.1718491.1664372-.6560732.3429632-1.3096321.5041731-1.9669703.1253088-.5109372.2588245-1.0219424.3427959-1.5403547.0822568-.5078531.2427767-.9981686.2843338-1.5166384.0318552-.3973088.1650154-.7855064.2327926-1.1812417.0539144-.314754.0791413-.6338807.1662909-.9436035.0205015-.0728424-.0063146-.1589936-.0112073-.2364752-.7632904-.0463897-1.4991688.0263116-2.2357581-.0830148-.454336-.0674374-.9099998-.1181631-1.3551357-.233859-.6476729-.1683426-1.2939031-.3422758-1.9591921-.5187154,0,.1007092.0005855.1851379-.0001045.2695588-.0026868.328264.0464707.6677196-.0209301.9821679-.1011796.472182-.043763.9521213-.1424648,1.4229547-.0715826.3415204-.053308.7008346-.1026224,1.0483089-.0683522.4815546-.1852764.9568886-.2395985,1.4395828-.0608876.5409994-.1561917,1.0738704-.2633932,1.60648-.125957.625828-.2180621,1.2589795-.3599728,1.8809446-.175125.7676604-.4071126,1.5224825-.5775435,2.2910472-.3025561,1.3643828-.6881322,2.7068267-1.0588001,4.0524278-.3153526,1.1447526-.6985659,2.2710162-1.060661,3.4026117-.375247,1.1727082-.7865728,2.3324945-1.2135491,3.487963-.5248105,1.4201947-1.0879161,2.8233066-1.7316372,4.1922058-.6289174,1.3373734-1.3228519,2.64205-2.0342143,3.9385249-.5908104,1.0767925-1.1870676,2.149884-1.8205327,3.2014338-.61288,1.0173946-1.2318237,2.0324945-1.888749,3.0216042-.6123887.9220696-1.2740498,1.8116724-1.9218064,2.7099474-.6070568.8418358-1.2133818,1.6845863-1.8396855,2.5120679-.8713073,1.1511874-1.6726524,2.3479777-2.4002612,3.5939936-.5771462.9883674-1.1490651,1.9799131-1.7113971,2.9767697-.5966649,1.0577024-1.2004181,2.1122892-1.762907,3.1881721-.800676,1.5314526-1.5639977,3.082382-2.3481502,4.6225015-.5761792,1.1316686-1.160952,2.2589568-1.7404714,3.3889214-.6750117,1.3161819-1.3703681,2.621836-2.1205222,3.8964504-.5810458.9872802-1.1792475,1.9656948-1.8052742,2.9249253-.5283703.8095938-1.0970012,1.5937306-1.6672265,2.374982-.6539457.8959488-1.3192764,1.7840357-1.9983655,2.6610617-.5951229.7685908-1.2448658,1.4961265-1.8182327,2.2800019-.6771392.9257548-1.3720983,1.8410446-1.9543673,2.8344407-.4167047.7109233-.842233,1.4184174-1.3004529,2.1029219-1.1275809,1.6844034-2.2101077,3.3961141-3.228323,5.1487965-.6590528,1.1344391-1.3081946,2.2751824-1.9932061,3.3938559-.9048613,1.477695-1.81863,2.9508945-2.7695699,4.3991076-.8148368,1.2409401-1.512352,2.5429351-2.1838353,3.8627134-.4608074.9057134-.8757453,1.8317087-1.2441549,2.7775886-.3073548.7891132-.4344566,1.6294122-.6269362,2.4494605-.1333641.568218-.3013538,1.1203359-.5024167,1.6655851-.2725201.7390252-.511554,1.4878151-.7161767,2.2496209-.1115454.4152881-.1764684.8583749-.4915648,1.2125663.7325695.1269607,1.4236604.2852119,2.1275843.3819275.1923124.0264188.3939241.0286247.579211.0785872.5150772.1389103,1.0474778.1507658,1.5694759.2352808.5659023.0916346,1.1441567.1110174,1.7165408.1706818.6606575.068854,1.3282674.078169,1.9933211.095555.556284.0145528,1.1135195.014856,1.6698296.0009827.7648115-.0190587,1.5291421-.0574376,2.2936818-.0875677.0427802-.0016936.0961248.0121482.1265791-.0081755.1696311-.1132129.3590371-.0544998.5391176-.0748445.1939224-.0219128.3859577-.0604067.5798383-.0827586.3066805-.0353575.6173441-.0453311.9207-.0982628.5597863-.0977087,1.1163631-.214612,1.6726733-.3311599.6230994-.1305361,1.2459531-.2629227,1.8660364-.4069035.5250457-.1219111,1.0459932-.2615009,1.602455-.4017703Zm3.9464966-1.3390879c.0790368,0,.1401805.0166542.1864317-.0025614.5122859-.2127511,1.0284817-.4176404,1.5316721-.6504748,1.419902-.6570193,2.8094333-1.3718945,4.08755-2.2821242.5829224-.4151417,1.153179-.8485685,1.7204665-1.2850063.4351727-.3347772.8613441-.6817236,1.2827585-1.0337718.2934606-.2451604.5712916-.5089927.8575177-.7628931.4766566-.4228049.9765851-.822087,1.4272097-1.2709448.9988743-.9949434,2.0425152-1.946887,2.9548255-3.0268681.2560227-.3030789.5449356-.5796971.7870328-.8929797.6183582-.8002056,1.2425188-1.5977034,1.8209927-2.4265441.9037688-1.2949172,1.7416841-2.6333256,2.448896-4.0482825.4608074-.9219912.9115575-1.8490529,1.3633112-2.7755395.445481-.9136275.8895401-1.8279764,1.3285183-2.7447298.2763987-.5772507.5453224-1.1581397.8118729-1.7400218.1966092-.4291927.394703-.8582181.5731944-1.2950636.3405272-.8334825.6744994-1.6697983.9981634-2.5099509.3135125-.8137965.6176996-1.6313672.9135021-2.451771.6051332-1.6782874,1.1432628-3.37854,1.6600651-5.0859643.2881183-.9518913.6085623-1.8939554.904187-2.8436408.2914324-.9362617.5820076-1.8731089.8510045-2.815957.3222631-1.1295255.6297224-2.2634628.9275739-3.3997001.2209162-.8426826.4151835-1.6923489.623251-2.5384187.1915074-.7787109.3867366-1.5565018.578223-2.3352127.2080152-.8459549.4145563-1.6922652.6198742-2.5388787.1434267-.5913331.2923211-1.1815371.4226586-1.7757766.1010437-.460661.1733164-.9275426.2655678-1.3902214.070349-.3528741.157509-.7024028.227053-1.0554076.072534-.3681535.1393285-.7377027.1969019-1.1084647.0663449-.4273056.0803122-.8670261.1897092-1.2821992.1179906-.4477444.135753-.9066961.2319771-1.3557682.0932655-.435293.0931296-.8911553.1937237-1.3241065.0522939-.2249882.0123992-.4608701.0896064-.6630412.1083306-.2836908.0621631-.579488.1408653-.8659493.0842327-.3066282.0516457-.6433134.107306-.9603439.0725654-.4133697.1593595-.8232893.1650572-1.2451063.0005645-.0414211.0136433-.0825757.0196233-.1240438.0497953-.3449129.1053406-.6891359.1470858-1.0350263.038682-.3205485.0187974-.6551793.104776-.9611071.0924814-.3290899.0628949-.6647401.1404576-.9941593.0828736-.3519646.0369047-.7334895.112387-1.0882402.0568835-.2674025.0483316-.5314962.0796327-.7956369.0375738-.3170514.1184297-.6289592.1561395-.9460002.0448502-.377019.0613058-.7573469.0946978-1.1358348.025896-.2934972.0201983-.5971824.0983255-.8768482.1033646-.3700563.0713108-.7498719.1492603-1.120822.0688749-.3276942.0323361-.6782004.1067728-1.0039082.1120942-.4904567.1317907-.9924186.2368908-1.4833928.0902964-.4218536.1052987-.8594884.1887369-1.2832238.1228938-.6240142.2704187-1.2434649.4195536-1.8619434.1715809-.7115871.35071-1.4203933.5841612-2.1164188.4310118-1.2851004.824387-2.5827933,1.2527434-3.8688137.4324336-1.2982941.8216793-2.6087625,1.1901935-3.9262983.2083393-.7448641.4329145-1.4861998.6806467-2.2188268.5533097-1.6363697,1.0790925-3.2812756,1.5659005-4.9383977.1985851-.6759892.3715042-1.3596887.5476956-2.0420448.1727832-.6691571.3490164-1.3379693.4971058-2.0127745.1131292-.5155372.1879319-1.0396629.2733251-1.5610286.0383788-.2343451.045603-.4744794.0938823-.7063834.1063024-.5105974.1616595-1.0286699.1568922-1.5457649-.0071823-.7786586.0458016-1.5561698-.0619749-2.3381556-.0763813-.5542088-.1921765-1.0921555-.3373595-1.6279224-.1343207-.4956578-.3251799-.9694106-.5270896-1.4417991-.2289244-.5355866-.5334878-1.01631-.9186353-1.446441-.5799271-.6476729-1.3051732-1.1015463-2.0398807-1.5540842-1.5174016-.9346256-3.1632484-1.4179339-4.9314663-1.5247407-.0958582-.0057918-.190556-.0355169-.2851388-.0570115-.4066317-.0924265-.8087679-.221959-1.2205014-.2705964-.6120855-.072304-1.2070672-.235435-1.823575-.2934659-.3080343-.0289906-.61748-.037796-.9252635-.0668258-.3068843-.0289436-.61334-.0624035-.9028488-.0921259-.1792232.1101601-.337694.2007179-.4890662.3019079-.4067676.2719294-.8068965.5539135-1.2161941.8219354-.8767437.5741274-1.7589028,1.1399801-2.6363261,1.7130751-.6212751.4057927-1.2685507.7723048-1.8375528,1.2567632-.3744629.3188104-.7743304.60759-1.1545015.919963-.2379258.1955036-.4603683.4098569-.7097628.633703.5037026.0744446.980861.0337318,1.4379153-.1008111.8706277-.2562736,1.7029394-.6050835,2.4530987-1.1316896.6299838-.4422453,1.2633548-.8804472,1.9081736-1.3005784.6787649-.4422531,1.359328-.885076,2.0651599-1.2812531.4580683-.25711.9570455-.4459593,1.4489762-.6362251.2530013-.0978498.5133836-.2007362.8095311-.1162734.3629524.1035188.632566.2907607.7379589.5933665.0816086.5622667.015431,1.0448536-.1863114,1.5058623-.2451604.5601967-.4773989,1.1271758-.7491871,1.6743513-.5206286,1.048105-.8891219,2.1480858-1.1727239,3.278939-.0489798.1953233-.0566848.4009966-.0949905.6884511.1700336-.2142069.2744855-.365302.3983203-.4983368.4747434-.5099963.9512432-1.0185394,1.4355525-1.5194376.5820076-.6019497,1.1682597-1.2009095,1.8539874-1.6888858.4439337-.3159171.893701-.6236378,1.3085605-.9125402.2780819.0359978.5012981-.0377751.7226533.0840315.3204858.1763482.5108849.4539989.6065132.7790402.0778031.264457.0743113.5539814.0971651.8331872.0345106.4215373.0604276.8437751.0905577,1.2656757.0019864.0278615.0078096.055561.0132564.0830566.0511962.2582025.1184402.514382.1509017.7749028.0729522.5855491.2204666,1.1457536.5202523,1.6574671.2533777.4324676.5721384.7971136,1.0381209.9506734.419794-.1411528.8114756-.2728494,1.2259482-.4122092.3063302-.8414385.6203551-1.6982008.9290062-2.5568972.0605844-.1685465.1466153-.3463557.1400707-.516784-.0136328-.3550591.1424753-.592998.417609-.7880129h.5280619c.1192974.113516.3398895.2309473.4071126.4069558.133108.3485041.2345908.7262393.1837814,1.1082059-.0659372.4957624-.154174.9891568-.2500845,1.4801963-.1393807.7136362-.3310763,1.4055896-.8126361,1.985062-.1289261.1551384-.2289871.3562144-.2768378.5521806-.0968619.3967024-.3564391.6271689-.6960046.7974325-.2541409.1274311-.5284905.1577521-.8090188.1919308-.4257427.0518705-.8458294.1525013-1.2667212.2401003-.0901291.0187582-.1734314.0703699-.2413131.0990181-.0311965.5452754.0252479,1.0528593-.0775,1.5618467-.0658953.3264606-.0398111.6699543-.0832186,1.007664-.0569671.443066-.1029151.8864612-.1833737,1.3274415-.1049224.5751546-.1653918,1.158422-.2706382,1.7335086-.0920737.5030231-.2287257.9977243-.3293304,1.4993831-.1527626.7617326-.2836647,1.5278719-.4384032,2.2891758-.129543.6373908-.2878988,1.2689062-.4188426,1.9060357-.1285184.6253001-.222223,1.2580439-.361196,1.8808348-.1473994.6606157-.3289017,1.3136676-.4976703,1.9694689-.237769.923941-.4672474,1.850182-.7194438,2.770192-.2300639.8392639-.5095363,1.6654492-.7239915,2.5084036-.2694046,1.058889-.5667543,2.1094822-.873555,3.1574147-.3299472,1.1270164-.6754822,2.2495738-1.0250108,3.3707199-.2177902.6986077-.4524437,1.3920405-.6851109,2.0859175-.34266,1.0218744-.6726176,2.0485109-1.0407764,3.0611958-.3690056,1.0150528-.7996724,2.0078007-1.1642765,3.0243172-.4306145,1.2005749-.9360004,2.3707374-1.3961387,3.559117-.3205067.8277482-.6779495,1.6411475-1.0159153,2.4621786-.3748811.9107316-.7402275,1.8254255-1.1213186,2.7335329-.2956979.7046244-.6122946,1.400446-.9140771,2.102556-.4111585.9566482-.8195779,1.9145091-1.2244637,2.8738337-.3723406.8821801-.748518,1.7629592-1.1050721,2.6515375-.5936331,1.4794409-1.1676743,2.9667437-1.7599274,4.4467492-.4894844,1.2231359-1.0008398,2.4375318-1.4891532,3.6611382-.7090101,1.7766234-1.3996201,3.5606173-2.1102924,5.3365716-.5102786,1.2751476-1.0501855,2.5384396-1.5592827,3.8140472-.5700684,1.4283807-1.1108849,2.8684391-1.6821661,4.2963179-.4578801,1.1444024-.8501367,2.3116689-1.2609084,3.472715-.2584273.7304629-.5051245,1.4664459-.7994005,2.1825651-.6581903,1.6016761-1.2173023,3.2399224-1.8270773,4.8593504-.4436096,1.1781393-.8441149,2.3719815-1.2959836,3.5477267-.3520273.9159589-.6066282,1.8700248-.9725078,2.7798259-.5221236,1.2983045-.9505375,2.631036-1.5066386,3.9176628-.4183461.9679182-.8185011,1.9446497-1.2635848,2.9004929-.5765712,1.2382219-1.2271035,2.4383055-1.9172221,3.6183267-.505574.8644804-1.0181683,1.7222908-1.6272167,2.5565261Zm-39.7908669-12.1909838c.6194534-.6618389,1.1964741-1.2899513,1.7866075-1.9054763.5489136-.5725148,1.0530396-1.1813071,1.5426076-1.8044117.5553797-.7068669,1.1143349-1.4110051,1.598524-2.1692877.7066317-1.1066717,1.3946437-2.2252721,2.1059537-3.3288806.643282-.9980693,1.2315414-2.027377,1.7851648-3.0763811.571945-1.0837239,1.1074924-2.1857851,1.5859001-3.3146937.3190378-.7528358.6146312-1.5142652.8693575-2.2918261.2280776-.696245.4456639-1.3975396.7127842-2.0790018.3592619-.9165443.7110696-1.8355978,1.1271784-2.7312852.4227736-.9100207.86838-1.8076317,1.366249-2.675029.5220871-.909592,1.1067972-1.7825511,1.7246431-2.634277.6467738-.8915997,1.3682563-1.7184644,2.0776166-2.5567561.3929518-.4643829.789845-.9263194,1.2040668-1.3715808.5679462-.6104964,1.030604-1.3014827,1.5093045-1.9766617.6703437-.9454827,1.2939815-1.9246187,1.9221566-2.899322.6510759-1.010228,1.264855-2.0448466,1.9293599-3.0459582.7748009-1.1672875,1.5487811-2.3348363,2.3873811-3.4603054.8720496-1.1703716,1.7962205-2.2885956,2.8275616-3.3212749.5828492-.5836019,1.1394678-1.1933926,1.7079314-1.7913539.0196599-.0206792.0409141-.0399888.0592567-.0617606.4458312-.52894.8959958-1.0543203,1.335272-1.5886497.2764719-.3363036.5359237-.6865745.8041365-1.0297049.4417069-.5650973.8803453-1.1326618,1.3277394-1.693227.3957484-.4958617.7970587-.9874683,1.2043177-1.4739209.4712254-.5628548.9217141-1.1473715,1.43446-1.6702583.9869143-1.0064173,1.9511734-2.0373298,3.0227699-2.9585264.5477792-.4708961,1.0793381-.9606889,1.6172848-1.4429857.5699064-.5109529,1.1606331-1.0010384,1.7032948-1.5395183,1.0490041-1.0409227,2.1584986-2.0254115,3.0584619-3.2096668.3491-.4593751.7408757-.8877315,1.0714606-1.3594901.825788-1.1784216,1.562785-2.4136431,2.231618-3.6872538.3692669-.7031816.705351-1.4241831,1.0434527-2.1432296.6274224-1.3343415,1.2480597-2.6718874,1.8657698-4.010761.2153752-.4667979.4218222-.938107.6179087-1.4133051.2960847-.7175358.5722221-1.4433307.870335-2.1599988.3305535-.7946437.6845777-1.5795385,1.0132076-2.3749454.407489-.9862818.793661-1.9813715,1.1997699-2.9682387.3907407-.9495495.8043038-1.8897526,1.191009-2.8409069.3714624-.9136772.7514871-1.8228223,1.181903-2.7107262.2185221-.4507658.4285027-.9060322.6291265-1.3650415.3159589-.7228676.6207732-1.450615.9468418-2.2150606-1.2989527-.4551802-2.4355768-1.2231072-3.6535482-1.8759342-.0421739.1098543-.0855709.2090031-.1186388.311487-.1315189.4075151-.2494049.8197191-.3911693,1.2235829-.4858253,1.3840218-.9792615,2.7653829-1.4705127,4.1474993-.3163353.890008-.6722622,1.7641746-1.0912407,2.6106574-.3521841.7115349-.7199142,1.415511-1.0890871,2.1184522-.6161314,1.1731786-1.2390165,2.3428079-1.8588384,3.514042-.4042271.7638131-.799641,1.5324353-1.2141032,2.2906499-.5618511,1.0278336-1.1314805,2.0515532-1.7102158,3.0699724-.5310101.9344374-1.0826679,1.857129-1.6176612,2.7893291-.6135073,1.0689985-1.293579,2.0969001-2.0267236,3.0836627-.9228537,1.2420849-1.8966108,2.4470299-2.8690559,3.6513214-.5327664.6597846-1.0961282,1.2960934-1.6675401,1.9230871-.5844906.6413427-1.1891324,1.2647975-1.797909,1.8833335-.3082121.3131675-.64565.5975065-.9686971.8961526-.4171281.3856336-.8310309.7747956-1.2503388,1.1580352-.2403722.219693-.4854384.4345298-.7341482.6447456-.495778.4190465-.9989214.8294209-1.4923889,1.251149-.3124462.2670209-.6110818.5501315-.9193984.822087-.2013661.1776132-.4071753.3503284-.6141032.5214807-.4562388.3773588-.9164346.7499555-1.3712463,1.1290184-.4016971.3347877-.7950619.679617-1.1980292,1.0128364-.4232388.3499939-.8553065.6892875-1.2802024,1.0373002-.3713735.3041818-.7351309.6176944-1.1077642.9203028-.3930616.3191894-.7924953.6305431-1.1894146.9449809-.3859368.3057239-.7751668.6073705-1.1575072.9175218-.372811.3023993-.73856.6135125-1.1077276.9204125-.369084.3068425-.7375459.614443-1.1081615.9194298-.4350682.3580282-.8761216.7088898-1.3069818,1.0718736-.2924727.2463992-.5716053.5086111-.8571727.7632224-.4968549.4429666-1.0114407.8677057-1.4875746,1.3319056-1.0422191,1.016114-2.0710302,2.0462162-3.0935371,3.0822409-.639534.6479866-1.2576152,1.3171646-1.8853094,1.9768394-.0294977.0310083-.0603858.0608667-.0879598.0935164-.4372062.5176282-.8729225,1.0365213-1.3111898,1.5532504-.3565541.4203899-.727959.8287675-1.071607,1.2593716-.5964872.7474098-1.1732048,1.5105643-1.7645013,2.2621664-.711859.904877-1.3764631,1.8436165-2.0240995,2.7947655-.511439.7511212-.9837517,1.5267689-1.463712,2.2982243-.5908417.9496854-1.1194995,1.9329301-1.6548064,2.9123066-.3336429.6104127-.604715,1.2552838-.8978777,1.8874735-.2748096.592619-.5673555,1.1788084-.8061908,1.7858966-.3644212.9263298-.7010463,1.8641388-1.0272403,2.8047915-.2532784.7303793-.4927906,1.4668849-.7016474,2.2109807-.2353435.8384589-.4247495,1.6897143-.6427645,2.5331601-.249567.9655137-.4766932,1.935366-.6574741,2.9166557-.1556925.845129-.3538804,1.682647-.499513,2.5293337-.0990992.5761635-.1697226,1.157962-.2551314,1.7369064-.0775339.5255632-.1133043,1.0584864-.1685412,1.5879179-.0674426.6464079-.0710599,1.2995695-.0990704,1.9499502-.0520639,1.2088863.0668755,2.4137476.0883022,3.6209299.0010141.0570508-.0080135.1181161.0088864.1704518.122013.3778188.0795517.7767872.1552064,1.1613074.0538909.2738792.0557309.5577634.1048204.8328866.0777927.4359777.1756765.8683591.2823134,1.3860186ZM71.6836739,24.6312142c.0436584-.0670924.0835323-.1007771.0865955-.1375277.0220697-.2650738.0425607-.5291857.0755763-.7940321.0586608-.4705877.1229043-.9408487.1788782-1.4117709.0674844-.5677919.2088725-1.1157646.3590319-1.6613693.146333-.5316478.3051698-1.0648716.5197609-1.5714597.276336-.6523383.6146469-1.2783624.9234444-1.9170783.038682-.0800169.060323-.1682746.1129515-.3187137-.5098708.3552421-.9598473.6604955-1.4007073.9784068-.3863288.2785942-.755188.5816809-1.1445801.8557143-.7434893.5232266-1.5645309.915593-2.3478418,1.3717272-.7246606.4219947-1.4821696.7629192-2.2813506,1.0033384-.5596034.1683452-1.1322959.2936959-1.7265354.2779774-.4415814-.0116856-.8837169-.0041217-1.325591-.0020413-.1053196.000494-.210587.0133139-.3158753.0204649.2029133.1276794.413354.1943824.6249446.2572171.1190988.0353705.250879.0438623.3581641.1001995.283811.1490277.5470997.3401587.8377167.4724434.3510027.159775.6837936.3535484,1.0687633.4529482.468042.1208421.9281176.2972138,1.3652976.5050095.350365.1665313.7014096.3147985,1.0688888.4386646.3668101.1236439.7356693.2673555,1.0651147.4661288.2060079.1243.3959366.245738.6344479.2986618.4169713.0925258.829353.2057099,1.2629052.3150912Zm2.2616332.6380469c.1446917.0637522.2296039.1250893.3209771.1370964.3205903.0421373.6435329.0659607.9653255.0993056.2784374.0288495.5702148.0185412.8314125.1024002.3554878.1141329.722277.0972591,1.0774406.1315424.4854071.0468523.9856806-.0199212,1.47551-.0745178.2937847-.0327438.5798017-.1351126.8972347-.2130412-.0642853-.1161741-.0972591-.2109294-.158544-.280889-.4210381-.4806398-.6931609-1.0462127-.9252948-1.6313907-.2101061-.5296823-.3162412-1.0884101-.3982471-1.6504991-.0360056-.2467835-.0547612-.4960838-.0905473-.8301501-.2349776.2798592-.4023453.5035458-.5942917.7036547-.8768169.9141241-1.760241,1.8219127-2.6419506,2.7313375-.2367235.2441593-.4757993.4860448-.7590249.7751511Zm-4.0974192-11.413517c-.2118311,0-.424969-.014673-.6351274.004059-.2178634.0194116-.435455-.0227858-.6492098.0040825-.2891742.0363506-.5726298.1232362-.8621281.1509043-.5456883.0521502-1.0568764.2271262-1.5728319.3912791-.2733773.0869797-.5000435.2425127-.7079437.4360378-.3643742.3391917-.6529525.7388527-.9285567,1.1484744-.2201739.3272133-.4255963.6672518-.7233956.9307678-.3161367.2797468-.5199491.6292362-.6637417,1.015322-.0818595.2197766-.1860082.4446812-.1157115.7438265,2.0260492-2.0286394,4.3130558-3.6034393,6.8586463-4.8247535Z" stroke-width="0"/>
  </g>
</svg>