<?xml version="1.0" encoding="UTF-8"?>
<svg id="Layer_2" data-name="Layer 2" xmlns="http://www.w3.org/2000/svg" viewBox="0 0 178.9889127 262.2282974">
  <g id="Layer_1-2" data-name="Layer 1">
    <g>
      <path d="m172.498848,157.2328299c-2.1950601-4.5413141-4.4646863-9.2372583-6.049473-15.0087408-.9296705-7.6799614,1.9918074-15.5386065,4.8172429-23.1381603,4.4164074-11.8797149,8.5879837-23.1010491-.6676584-33.608336l-.0970733-.1099592.0910599-.1154571c8.6476022-10.9375021,7.8689538-24.9339312,7.116077-38.4685317-.1060075-1.9077918-.2157949-3.8801845-.2929381-5.7831656-.4420703-2.8472555-.7485815-5.8134044-1.0449558-8.6826517-.876409-8.4826635-1.7827132-17.2539697-6.3522043-24.7655562l-.0958707-.1573791.1621898-.0886546c2.9568711-1.6088402,4.6050561-3.6368999,4.4088477-5.425111-.0965579-.8803607-.655288-1.5497372-1.494414-1.7909601-1.001144-.2893301-2.5885078.0597903-4.0416871,1.8995448-.4717936.5965285-1.0064701,1.2734647-1.2322301,2.4012336-.0929499.4652648-.0302388.9532086.015463,1.3098887.0434682.3381245.0697554.5429234-.0292079.6714382l-.0381421.0494816-.060993.0144321c-5.4337016,1.2789627-10.1413289.1759347-14.6939826-.8899821-7.0207218-1.6452642-13.6514321-3.1984376-22.0607322,4.2148728l-.1084129.095527-.1147699-.0879673c-9.4198936-7.2064497-21.1614723-6.9556053-32.5169911-6.7143824l-1.6258496.033675c-9.3241948.0831566-18.6521694,1.815701-27.6731174,3.4912039-3.1539385.5855326-6.4150873,1.1909954-9.618851,1.7153632-10.0512999,1.6404535-26.3414087-1.0652296-28.8273452-2.0026316-1.3143558-.496878-2.8195939-.9222826-3.5973833-.9848219,9.0666498,4.0781111,19.006616,5.4910865,32.1259488,4.583236,1.275011-.0886546,4.5509355-.8927311,7.1832552-1.5394285,1.3349732-.3271286,2.4879982-.6102734,3.0568652-.7181709l1.0018312-.1910541c19.71465-3.752357,42.0590425-8.0064028,59.0680095,3.6582045l.1606435.1099592-.1259376.1491321c-1.3949353,1.6459515-2.6237291,4.518635-2.0246234,6.9370497.3329701,1.3449382,1.1836075,2.3002086,2.5283739,2.8403831,2.9585892.5532321,4.1751844-.0522306,5.390577-2.7015596,1.1135085-2.4273489-1.0442686-6.6594028-3.5291742-8.1685925l-.226619-.1381362.2151076-.1553173c8.2422996-5.9501661,14.3754446-4.4691534,20.8688778-2.9001734,4.6430264,1.1215836,9.444119,2.2795912,15.247902.6453229l.1240477-.0350495.0707862.1072102c4.5442349,6.9198686,5.3663516,14.9915596,6.1613221,22.7972869.1439778,1.4143499.2929381,2.8761198.4616567,4.3076509.1616744,2.1373316.3541029,4.2664162.5580428,6.5205793,1.2937385,14.3084382,2.760319,30.5260427-5.3000325,43.0950642l-.1049767.1635643-.1523966-.1202679c-2.6732107-2.1180887-7.0468371-1.1854974-9.5659332.8913566l-.1630488.1608153q-.9832756.9607683-.8824224,2.4019208c.2958589,1.369679.9999413,2.2252989,2.0890526,2.5187525,2.3993437.6439484,6.0314328-1.5346178,7.6261845-3.2884667l.1341846-.1477576.1297175.1518811c8.9487873,10.4660522,4.4191563,21.9897742.0388293,33.1348242-3.1846927,8.1019298-6.4777983,16.480132-4.8194765,24.6033664,1.1409983,4.358507,3.3341685,8.3988196,5.455178,12.3064939,2.4933244,4.5935447,5.0716953,9.3437813,5.9518842,14.6472499,1.5315252,9.9038858.051887,20.2235548-1.3791286,30.2030376-1.9818424,13.8211816-4.0303475,28.1117515,1.9593351,41.3783265.0977606-.0783459.1967238-.1539429.2943126-.2281653.665253-.5092484,1.1906517-.9105995.8688493-1.7758407-1.1489016-4.117284-1.5401158-8.4496757-1.9186159-12.6398077-.1066948-1.1834357-.2133895-2.3648096-.3362346-3.5393111-.5422362-9.9430588.8602588-19.9479696,2.2167083-29.6236902.413206-2.9475933.8405005-5.9962115,1.2054275-8.9912247,2.0115657-13.0315373-1.8512659-21.0235079-5.9408883-29.4848667ZM133.6734644,17.1090985c-.3309084,1.579976-1.5272299,2.5916004-3.0558343,2.5916004-.0195865,0-.0390011-.0006872-.0587594-.0006872-.8494347-.0144321-1.4844489-.4130342-1.8364901-1.1518224-.8860305-1.8596846.1730139-5.3770039,1.3195102-6.8401482l.0826412-.1051485.1237041.0515434c2.901376,1.2129872,3.8107728,3.6142208,3.4252284,5.4546625Zm35.7774526-11.0962557l-.0360804-.1353872c-.603401-2.2754678,1.1920262-3.6698876,2.3160152-4.2987167.4668111-.2611531,1.0815516-.1986138,1.4947576.1525684.3678478.3126964.4836486.7848336.3096038,1.2631561-.5248833,1.4439015-2.515488,2.9647744-3.9442701,3.0135688l-.1400261.0048107Zm-1.3892655,80.7004163c-.7387882,1.2006168-3.2907003,2.0143147-5.2199684,2.0143147-.146555,0-.2893301-.0041235-.4278099-.0137449-.9889454-.0687245-1.6289422-.3717995-1.8504068-.8769245-.2099533-.4783224-.0247408-1.0851597.5501395-1.8040178.5365664-.670751,1.4435579-1.0734765,2.5541456-1.1346413,1.5971571-.0893418,3.3130357.5394872,4.3686438,1.5985316l.0979324.098276-.0726761.1182061Z" stroke-width="0"/>
      <path d="m153.0767936,259.5053537l-.5707569-.1195806c-9.4580357-2.0074423-17.996366-3.5977269-26.7221423-2.7214897-3.7423919.707175-7.5404507.3601163-11.2130873.0261153-3.7800186-.3449969-7.6880366-.7009898-11.4988094.1147699-1.1671136.300326-2.3679022.6755617-3.6393052,1.0734765-5.5132502,1.7236101-11.7620242,3.6781346-16.5454203-.7332903-9.884643-10.3162328-23.8982532-8.4579226-37.450722-6.6614645-2.7556801.3656143-5.3584483.7106112-7.925136.9525214-2.8132369.3195689-5.6280201,1.2171107-8.3500252,2.0844137-5.8639169,1.8672443-11.9271347,3.7990897-18.0120008-.1834944-2.0155174-.6948046-3.360971-1.9717055-3.960764-3.7757233-1.078459-3.2458575.5614791-7.3878824,2.2936798-9.9485568.9530368-2.0637963,2.6094688-3.6272784,4.2112648-5.1392172,1.8399263-1.7366678,3.7422201-3.5317514,4.5418295-6.1089197,1.7871803-4.3763753,2.2433391-9.550642,1.4408089-16.2993866l-.0061852-.0529179.0238818-.0467327c8.7433011-17.3000152,10.4887312-31.7170381,5.1873243-42.8524667-1.3829085-2.8987989-4.1794797-4.1811978-6.8841319-5.4216748-2.9518885-1.3538724-6.0042866-2.7537902-7.0690007-6.2656115-5.9804049-13.2212168-2.6202929-24.995096.3444815-35.3828022,3.0876194-10.819296,6.0041148-21.0386273-1.9655203-31.0620937l-.0587594-.0735352.0290361-.0900291c4.5799716-14.1373143.7279641-28.8532887-2.9972467-43.0854427-.6965227-2.6610121-1.4169271-5.4127406-2.0545185-8.0730655-1.7114115-7.7576201-.0470763-15.6148907,1.5624512-23.2144445.3075421-1.4521484.6257365-2.9537785.9119739-4.420359.0613366-.435026.3960249-.6198949.6911965-.7827719.2250727-.1243913.4238583-.2343505.5235088-.4412112-.2030809-.1175189-.398602-.1367617-.5946386-.0549796-2.100564.8638668-3.7307088,11.5752654-4.426716,16.1495672-.186587,1.2253576-.321287,2.1112162-.4142368,2.5421188-1.1332668,8.8441543,1.4282667,17.5006907,4.365723,25.5352705,2.2153338,11.091445,4.717936,23.6336639,1.5878793,34.9367803l-.0690681.2494699-.2066889-.1560046c-2.8096288-2.1235867-5.8333345.4666393-7.0031971,1.6803137-1.1385929,1.7462892-1.4519766,3.3152693-.8619769,4.3914947.4078798.743599,1.2150489,1.1765632,2.2625819,1.1525096,1.6122765-.0178684,4.0994157-1.2033658,5.8029239-4.4835855l.1271403-.2446592.168375.2185439c7.4679464,9.6791568,3.8502894,20.8613181.3520412,31.6751161-.9587066,2.9633999-1.8641517,5.7625482-2.5398852,8.5177129-1.531697,12.0467154.0563541,21.8186502,4.7237776,29.0244127,1.2322301,1.4988811,3.0032601,2.1304591,4.8784077,2.7991484,1.803846.6432612,3.6690286,1.3085142,5.0350996,2.8307616,4.3219112,5.2216865,6.0072074,12.2453291,5.0134513,20.8812482-.9418691,8.1843992-4.1088653,16.1069581-6.5997843,21.3121507l-.1795427.3745485-.1441496-.3896678c-.9322477-2.5187525-2.6414257-5.722688-5.4907429-6.6848309-1.8172473-.6157714-3.8643779-.2116714-6.0836634,1.1944316-2.8252637,1.7909601-4.3945873,4.6066024-4.4189845,7.9280568-.3102911,3.2204295.6319217,5.3502013,2.7240669,6.1742079,3.221804,1.2720903,8.873534-.9250316,11.6290423-4.5158861l.2759288-.3594291.0388293.4515199c.5370819,6.2511794.5786602,15.180552-5.2350878,20.532815-4.1071472,3.3276397-8.2874859,9.4963496-7.9619036,14.3888459.1645951,2.472707,1.427064,4.4457871,3.7521852,5.8642605,7.5222387,4.9797763,13.2162343,3.1049723,19.8088026.934653,2.2347485-.7360393,4.5456094-1.4968193,7.0743269-2.0452407,8.9498182-1.3030163,19.5199879-2.6142795,30.1183347-2.5434933,7.1310246-.0783459,12.9492397,4.8821876,17.6135706,8.8709568,4.9952393,3.1001616,10.0913319,1.810203,15.99236.3188816,4.8976506-1.2391025,10.4485274-2.6431438,16.7682594-1.5517989,2.1852669.3772974,5.5381628.2797087,9.4200655.165626,1.9720492-.0570413,4.1085217-.1195806,6.2898369-.1195806,4.2353183,0,8.6417606.2343505,12.3547729,1.1937443,1.3683045.235725,2.7788746.5711005,4.2722577.9264061,6.4346737,1.5291198,13.088235,3.1111575,17.013434-3.3269524l-.1951775-.3071985c-3.0353888,4.1351524-7.5279085,3.188129-11.875935,2.2727188ZM7.6698673,91.9000744c-.2767879,1.975829-1.9026374,3.4362244-3.2958546,3.9564687-.4028973.1505066-.7898162.2247291-1.1437473.2247291-.486913,0-.9118021-.1408852-1.2315428-.4199066-.465093-.4047872-.9289833-1.2927076-.4975653-3.2211167l.0149476-.0412347c.5089048-.9971923,1.6617581-1.6926841,3.0084144-1.815701,1.2885841-.1140826,2.4512306.3250668,3.1108139,1.1848102l.0448427.0584158-.0103087.0735352Zm9.8660874,120.0321275c-.6460102,3.0747336-4.8754869,5.3735677-8.2380043,5.3735677-.3735176,0-.7362111-.028177-1.0822389-.0872801-2.4127449-.4095979-3.6015067-2.1936856-3.2678494-4.8979942l-.0015463-.0089342c-.214764-1.63633.2596068-3.2417341,1.371569-4.6423391,1.3951071-1.7565979,3.6697158-2.9867662,5.9364212-3.2101208,3.0300626.2206056,4.1516463,3.8059621,4.9706703,6.4236778.1054921.33675.2061735.6590678.3056522.9573321l.0151194.0453582-.0097932.0467327Z" stroke-width="0"/>
    </g>
  </g>
</svg>