<?xml version="1.0" encoding="UTF-8"?>
<svg id="Layer_2" data-name="Layer 2" xmlns="http://www.w3.org/2000/svg" viewBox="0 0 176.5164732 246.159603">
  <g id="Layer_1-2" data-name="Layer 1">
    <path d="m8.3660309,172.3896628c-.1307436-.1215747-.257647-.2721411-.4141503-.3795197-.7002882-.4804616-1.2610454-1.1094792-1.827022-1.7277748-.2864084-.3128776-.5361771-.6737749-.7363487-1.0483392-.5228664-.9784523-1.0003428-1.9798474-1.2042505-3.0851648-.1790025-.2396753-.1295552-.5447936-.2264206-.8137251-.0931712-.2587033-.0050837-.5778765-.0713575-.8524336-.0676208-.2801297-.0949255-.5559564-.121186-.8395425-.0235702-.2545591.1484218-.4499709.1376328-.6939139-.0105014-.2374533.0466655-.4602873.1220373-.6937375.098158-.3040073.2173997-.5735384.4336307-.8042375.0644032-.0687054.1198108-.1458402.1503865-.183473.0520974-.1759606-.0101862-.2739398-.0713784-.3812126-.3411697-.598139-.5216311-1.2621089-.7286391-1.9101545-.0906164-.2837095-.1486097-.5971691-.1772008-.8984076-.0359437-.3786909-.2249947-.7326753-.166808-1.1225643-.1610471-.3602272-.0696302-.7611556-.1600064-1.1203952-.1432538-.5693765-.1138494-1.1370778-.1240544-1.7070715-.0099091-.5534523.0138044-1.107557.0017769-1.6609035-.0053454-.2459357.096969-.4619979.1284103-.6923091.0321977-.2358662.0444556-.4705508.1718289-.6700892-.1766278-.2550882-.3333449-.4921888-.501248-.7210716-.1865931-.2543299-.2654189-.5590601-.3472989-.8476898-.067909-.2393931-.0870495-.5273703.1255425-.7197666-.1937179-.3778444-.3693132-.7128361-.538149-1.0512313-.3390108-.6794533-.6156059-1.559362-.7809599-2.3382582-.0589938-.27789-.1410455-.5477298-.1416386-.8359803-.0005353-.2600612-.1718703-.485126-.1355684-.7648942.0368316-.2838418.0029212-.5766685.0029317-.8655539.0000094-.2648138-.0170832-.5319289.0114587-.7938682.0357137-.3277879.1297312-.6453299.1516466-.9800482.0213242-.3256805.1921493-.6278802.2970505-.9373013.1035778-.3055327.2491429-.6147951.4748392-.8727754.1057406-.1208693.1483761-.2949077.2333247-.4366302.0841528-.1403999.185549-.2704746.2747949-.398486-.7270733-.9282106-1.0993567-1.609586-1.6072438-2.9324029-.2348454-.2890088-.2577635-.6585736-.352819-.9949585-.0889506-.3147469-.1508213-.6442806-.2343711-.9595301-.0873862-.3297101-.1100059-.6525337-.127053-.9839808-.0121121-.235487.0148149-.4670856-.0883547-.7043273-.0698043-.1605124-.074132-.400611-.0036004-.5585928.0952537-.2133376.0788106-.4188278.0958613-.6306665.0152531-.1895041.004072-.3894569.062673-.565444.1259885-.378347.1640316-.7808184.3574967-1.1422624.2345805-.4382614.4000359-.9123215.7158899-1.3085415.0854839-.1072287.128526-.2523107.1738482-.3858594.0218523-.0643849.0037672-.1423133.0037672-.2230721-.2723351-.5435856-.5514708-1.092347-.8227604-1.6449527-.2092546-.4262432-.4474464-1.210765-.4847015-1.6896571-.0186789-.2401074-.1815643-.436736-.1501335-.6910041.0263033-.2127822.0031497-.4327946-.0102215-.648848-.005695-.0920275-.0328367-.1858449-.0666666-.2724144-.0819508-.2097137-.0998314-.4458708-.0185808-.629529.1155147-.2611017.0643433-.5181561.0941935-.7758013.0324838-.2803854-.0106009-.5579315.1135122-.84396.1075267-.247805.0734582-.5501105.1719343-.8274362.2685971-.7564559.4962076-1.5235368.9806518-2.1863516.2222366-.3040602.3814862-.6541914.5727032-.9893947-.1830906-.6444393-.509189-1.2455057-.709178-1.8960995-.0968497-.3150731-.1719598-.6343433-.2554602-.9515856-.077812-.2956219-.1994925-.5874434-.154448-.9053734-.2239946-.7008973-.0989792-1.4230005-.1354703-2.1355015-.0150709-.2942728.1113591-.5570762.1284403-.8367915.0175493-.2873599.0934712-.5571997.1467213-.8349663.0494319-.2578568.1365111-.5009621.2245875-.7412106.0968023-.2640643.1959449-.5289486.3110425-.7884543.4095977-.923458.9804952-1.7361955,1.6232143-2.5017598.0344121-.1706525.0206474-.3250897-.0363167-.4932469-.1731339-.5110757-.267285-1.0479688-.5002852-1.54014-.0045218-.6687578-.3761487-1.2777334-.3184604-1.9566223-.2443602-.8217489-.1074709-1.6640425-.1329822-2.4974921-.005149-.1682189-.0532123-.3709139.0205738-.498793.1911515-.3312707.0876216-.6991602.1949311-1.0431457.1463783-.4692194.2488858-.9547775.4391192-1.4095186.1460345-.3490731.3164001-.6912598.5102124-1.0160586.1698394-.2846177.3811548-.5456136.5854575-.8082318.233641-.300348.4797772-.5909704.7364506-.9053734-.0817464-.3456872-.1622427-.6884912-.2441721-1.0309424-.0217619-.0909782-.0744225-.1829969-.0674853-.2709507.0305829-.3877552-.1837887-.7356908-.1602885-1.1247598.0217195-.3596011-.0034981-.7218651-.0030303-1.0829564.0004992-.3851629.0001344-.7705461.0133614-1.1553916.0072523-.2110098.0026953-.4156976.0906247-.6304196.0862318-.2105778-.0063047-.4982728.0894059-.7000155.0985943-.2078268.0741734-.4193568.1423689-.6205617.1203998-.3552277.2123853-.7203662.3392215-1.0730897.2726679-.7582811.6195208-1.4843345,1.0146127-2.1857079.339216-.6021774.7505784-1.1554092,1.2065193-1.656821.0008441-.234473.0460826-.4511348-.0776429-.6524102-.0352771-.0573838-.0623861-.1366349-.0543647-.2010021.0426886-.3426452-.1588879-.6391224-.162532-.9796779-.0045383-.4240653.0814087-.8645399-.1217623-1.2719668.0347807-.4010342-.0961883-.8140778.0925778-1.2052717.029098-.0603024.0224655-.1400472.0241691-.211001.0080881-.3369227.0069124-.6741893.0214991-1.0107946.0132964-.30682.1999898-.5881136.1412301-.9073309.1638416-.5628869.2242443-1.1483905.4118644-1.708932.2617054-.7818853.5073645-1.5648729.8711524-2.3104481.5051871-1.0353687,1.2035364-1.8813171,2.2064902-2.4630954.0389267-.0225814.0681872-.0618278.1230411-.1129733-.0164661-.1228664-.0177906-.2673047-.0570071-.4005933-.1268483-.4311501-.2577902-.858619-.2364999-1.3173941.0133796-.2883299-.0383889-.5869188.0200694-.8637948.0537057-.2543695.0688991-.5216698.1452361-.7615435.2140019-.6724743.4379982-1.3455526.8382488-1.9421265.3959972-.5902342.8022875-1.1740845,1.1039807-1.823466.1693243-.3644551.256069-.764008.4784786-1.1046869.0319316-.417708.3206882-.7324372.4486737-1.1143905.1194433-.3564621.3133042-.6873669.4627243-1.0345531.1539755-.3577627.4470109-.6147422.661718-.9284618.1010819-.1476963.2907709-.2445734.4561998-.3355736.1634609-.0899201.3449846-.1491071.522505-.2104191.0873751-.0301688.1836052-.0346878.2673858-.0493379.1143282-.1333812.0815701-.286562.066606-.420459-.0570148-.5101675.1766741-.9827111.1741342-1.4838672.1963391-.4537933.2516834-.9521366.4705767-1.4034566.1426598-.2941361.2573935-.6067492.3879851-.9095176.1996956-.4629811.5039419-.8651086.820488-1.2465726.2555588-.3079707.5980883-.5402746.956523-.7328075.2293131-.1231795.4615883-.2408392.7176474-.3740397.1211701-.2051154.1958322-.4434593.2566145-.7024271.1068494-.4552085.2500734-.9072824.4303002-1.3388425.5529688-1.3241174.9493076-2.2519621,2.0833995-3.3585315.2411809-.2353327.4734626-.4797738.7138083-.7159839.2116911-.2080472.3249604-.4553937.3749195-.7497546.0388826-.2291076.117613-.4554113.2068823-.6712795.3006475-.7270277.6895593-1.413072,1.1736511-2.0262095.4896698-.6202002,1.0683289-1.1680975,1.7405857-1.6005526.1783028-.1147015.3654936-.2172438.5553181-.3118988.1892625-.0943729.386503-.1728877.5811561-.2562344.0852208-.0364821.172705-.0676826.2788381-.1089217.1785143-.6440205.4368875-1.24812.7480914-1.832592.3830473-.7194007.8389563-1.380959,1.4078457-1.9664163.5516686-.5677387,1.1543696-1.0724041,1.7965394-1.5341684.1939171-.1394366.3560766-.3230617.5353424-.4888117.0596715-.1262656.120207-.2543563.2025033-.4284917-.1009651-.716319.2940293-1.3738147.4594395-2.0826609.2968039-.5400762.559219-1.0962134.9419159-1.5909107.2503666-.3236437.5116334-.6308979.8009067-.9166707.425758-.4206133.9119986-.7568439,1.4182634-1.0768018.3647421-.2305162.7551327-.3872085,1.1399387-.5653249.2584811-.1196459.5375198-.2100399.7200474-.5410638.0086259-.177109.0202358-.4154044.0318413-.653702.2128746-.2009448.1122775-.4960354.2283985-.7402803.2226333-.4682627.3896016-.9622083.6987626-1.3876007.6814887-.9377069,1.4707283-1.7574102,2.5063983-2.3110587.2920458-.1561236.5696256-.3438091.8720383-.4750653.560863-.2434403,1.1302726-.4694508,1.7053461-.677174.4726516-.1707274.8172329-.4661134,1.0578276-.9034137.3086849-.5610793.6077258-1.1286571.9928624-1.6439476.0991514-.1326582.1810157-.2806036.2930287-.4008281.2952502-.3168939.5993071-.6258147.9059336-.9318136.8045387-.8028907,1.765811-1.3589341,2.8214832-1.7560435.2640349-.0993228.4902736-.3014116.7922412-.2988237.2236338-.2201954.5763694-.0514398.8017883-.2662543.2163347-.0105897.4326649-.0211784.6552276-.0320734.184035-.1089625.3087246-.2581985.410763-.4673203.2282178-.4677094.475715-.9224043.8073244-1.3401927.6239021-.7860406,1.2300455-1.3407736,2.0947538-1.7958156.8172373-.4300579,1.6837175-.7353525,2.5453801-1.0558197.3531719-.1313499.7224804-.2084308,1.0816953-.314554.3335664-.0985469.6725808-.2405515,1.0373538-.217786.2859015-.1501068.617912-.073523.9021033-.1642488.3073097-.098106.6087395-.0921928.9257242-.1171538.2190013-.2964816.4249338-.6118793.6676706-.8957916.4232544-.495039.9709649-.8492566,1.510477-1.1954458.4561051-.292668.9571908-.5233033,1.4574919-.7364965.4310429-.1836786.8861738-.3135957,1.332701-.4590016.26515-.0863413.5547143-.0718488.8335238-.1565308.2660977-.0808249.5725391-.033169.8612791-.034227q1.068622-.003916,2.1487526.3948091c.0870081.0319566.1809628.0449964.2736613.067304.581998-.5331193,1.2613666-.8622187,1.9929137-1.0834342.3825449-.1156769.7658655-.2385952,1.1762142-.241732.2097628-.0016037.4359751.04928.6263087-.0975632.5706746-.0270254,1.142839-.1075114,1.7081362.0516508.067385.0189707.1370973.0323974.2066597.0403789.3069615.0352207.6298525-.0510942.9210079.0920242.2618266.1287003.5855462-.0264115.8210852.195225h.7952296c.4315233-.3440731.9990067-.5934613,1.5637309-.8268523.5417424-.2238938,1.0637207-.5012035,1.6458817-.6395335.3164381-.0751925.6348861-.1662622.9516591-.2514262.2951753-.0793549.5867451-.1755635.9052283-.1652929.1811832.0058429.3633008-.0917318.5484069-.1126958.190219-.0215437.3854716-.0187924.5769335-.0048526.3539388.0257706.7221498-.0885063,1.0599917.1023003.362719-.017885.690194.1542212,1.0432953.1954019.1360042.0158603.2695753.0859663.3953713.1490718.2748205.1378632.5439463.2870748.7781718.4118234.282772.0294794.4430979-.1435034.6259208-.2410497.6719813-.3585659,1.4104749-.5211044,2.1241267-.7568822.3440039.0609568.6434458-.1576236.9799742-.1538175.5775242.0065318,1.1551629.0029277,1.73274.0056195.0464396.0002163.1048593.0011804.1372648.0272326.2275258.1829043.51564.0519385.7611404.1565091.2369319.1009265.5093458.1320377.727968.2594178.3464193.2018422.7242832.3584111,1.02354.6373622.1230632.114712.2471754.2282937.3951509.3648456.0988649-.0247235.2144966-.0392599.3182012-.0824658.2403963-.1001627.4832698-.1783143.7365983-.2456315.2320834-.0616705.4574318-.1127644.6944606-.1233991.1195282-.0053624.2294211-.028469.3461019-.0674327.2990276-.0998557.6214514-.0974111.9165914-.0125083.1647953.0474039.3252799.0942208.4866373.0759547.4165988-.0471622.8050324.100576,1.1938979.1845267.5016235.1082929,1.0030354.2583266,1.4821266.4476922.4392103.1736003.8538697.4121078,1.2718966.6359409.7343945.3932231,1.4137366,1.0248782,1.8806803,1.7228553.1039778.1554182.2163831.3051987.3186331.4487497.3336105-.1166573.6588287-.2865879,1.001907-.3384955.6869587-.103936,1.3835527-.0926767,2.0746634.0048595.1156759.0163255.2270145.0677829.3426904.0790879.4982824.0486992,1.4830875.2843141,1.9764774.5142368.4936103.2300213.9916723.4512638,1.4343383.7825803.5401909.4043022,1.0384733.8423194,1.3946689,1.4238949.0376594.0614795.0852186.1168871.1366036.1864974.1827788-.0405502.3393846-.075292.4959904-.1100338-.0021333-.0138048-.0042667-.0276085-.0064-.0414121.1924757,0,.3849603-.0014725.5774096.0004442.1684185.0016775.3541063-.0375986.501835.0195945.3988446.1544174.8418543.1299556,1.2263298.322493.3175753.1590366.641912.3095093.9411512.49875.2602663.1646048.5245259.3296351.7410677.5605316.1284141.1369357.3036293.228777.4419607.3578784.191268.1785176.4020974.3364554.5324862.5788465.0774434.1439765.2131743.2565816.3099852.3685861.4646252.0909308.9018697.204982,1.3571241.1880129.5597082.1771487,1.1355134.2981558,1.6807467.527486.9381187.3945732,1.7512171.9531826,2.4423014,1.7046401.463585.5040934.7645167,1.0748873.8854642,1.7465493.1257959.0972915.2740976.0476152.4127905.0598362.1413375.0124535.2804976.0407222.4187674.0625453.7264782.1146607,1.4253994.2884037,2.0899229.6237205.3261615.1645795.5929423.3925111.8878532.5906056.2854343.1917339.4716334.4581524.6979339.6994149.3845636.4099795.6548265.8781584.8834984,1.375404.1561474.3395327.2637043.7014263.4005107,1.0737929.371552.2219148.8572372.1210853,1.2604895.32889.4213503.0000617.7691977.235659,1.1262396.3994559.6692485.3070272,1.2902768.7142976,1.8271443,1.2252498.3450088.3283676.6861477.6581879.96929,1.0552697.2417627.3390675.3645173.7144342.5236884,1.0808005.0741288.1706326.1099194.3579258.166197.548164.2432173.037258.4820092.0466971.7023592.115354.2132713.0664459.4274153.0374432.6370458.0747409.1374323.0244485.2684117.0852116.4022297.1298807.7056209.2355421,1.3522756.5617164,1.887715,1.1004546.6104321.6141889,1.1113063,1.3051886,1.5495557,2.0465006.1081651.1829462.2063953.3719477.3188711.5521164.379768.6082261.5555826,1.2977225.7845365,1.9655235.0452054.131869.0599184.2792678.0620781.4199101.0073344.4809245.0028121.9620298.0028121,1.4578315.3622694.2829865.74693.5571335,1.1002782.8670022.3432369.3009895.6476684.6457663.9812084.9584345.441899.4142317.7606468.9245888,1.0590661,1.435508.2464084.4218698.3961294.9042536.4745161,1.3984395.0181245.1141813.0688836.2231779.1286698.4095519v1.432197c.1438852.1389009.3206695.1957689.4937337.2580111.4709017.1693607.9157451.3808864,1.306744.7040892.3478033.2875187.7175746.5483558,1.0746694.8248262.0755834.0585301.1450488.1281878.205787.2021968.5425005.6609499,1.1110947,1.3026294,1.4344793,2.1147894.1656945.4160856.2931654.8409665.4203542,1.2697933.1538113.5186719.112326,1.0388384.1392483,1.5584626.0553079.1071846.1098929.2129717.17823.3454095.6413037.4011444,1.2744972.8592671,1.8381195,1.419209.4798582.4767142.8875711,1.0055791,1.2243551,1.5808412.2354421.4021805.3761713.8576359.517024,1.3103093.1612692.5183192.1197133,1.0378376.1472879,1.5896807.1411171.2585049.395671.4488379.6406866.634793.8635403.6553817,1.6029948,1.4541921,2.0751483,2.3370591.2894982.5413018.5124576,1.112001.6004354,1.7277043.0128881.090286.0717575.1740075.127559.3027508v.760265c.3077284.259876.5971914.5466496.9279633.7730415.422558.2892204.734465.6652749,1.0538298,1.0567334.4113801.5042554.738044,1.0516193,1.0018717,1.6355534.2417363.5350283.4801403,1.0787373.5012268,1.6850588.0030678.0882228.0690423.17425.1204891.2957189,0,.2510851-.0111779.5404951.0031383.8286398.014281.2871175-.2313341.5325329-.1030169.8613524.6674149.3007095,1.1833458.8409445,1.661917,1.4047969.5411253.6375617.8747711,1.4021649,1.1590153,2.1849496-.0126766.4305241.2086432.8267881.1731523,1.264494-.0252121.3109289.0018512.6257463-.0071405.9384608-.0067526.2349492.0396341.4709829-.0993497.7007077-.0655162.108278-.0248242.2809982-.0317355.4245371-.0057653.1202256.0330049.2701616-.0245245.3550205-.1570025.2316294-.0876957.5096605-.2024724.7506232-.1098929.2307344-.1293397.5043833-.2380867.735876-.1091348.2322951-.2794662.4358278-.4060908.6265223.0200462.2019632.1635083.2697251.2536018.3759134.0932847.109971.2003215.2086644.2894276.321695.0877839.1113641.1581838.2362541.2407842.3519564.069201.0969917.1601761.1811893.2155369.2849263.5675716,1.0633112,1.1177415,2.134223,1.3213423,3.3417343.1866223.3055238.0678963.6661566.1629265.9743081.1096461.3554746.0792858.7054559.1160637,1.0576239.0265697.254374-.1331656.4523869-.1387017.6929175-.0048661.2109481-.000335.4182987-.0841519.6326592-.0831293.2125176-.0628539.4654896-.0824417.6491478.3363785.4195244.6405279.7868848.9315247,1.1643853.5396972.7000773.9881902,1.4460492,1.122255,2.3416177.1476582.2095814.1189552.4534538.143656.6896639.0218446.208973.0861442.4131141.1198367.62132.0744021.459626-.1740868.8848112-.1500031,1.3399579-.1607402.2947137-.1569144.638849-.2826045.9435617-.0722335.1750876-.1553981.345652-.2392503.530668.7885211.8605544,1.3073434,1.8977484,1.6410773,3.0141052.2081672.6962858.4177624,1.4099507.354168,2.161989-.0242424.2868485.0002116.5775503-.0050953.8663563-.0052892.2881006-.0200286.5760249-.0306424.8640285-.198717.2067158-.108694.497876-.2172294.7437588-.1124142.2546649-.2012911.5250425-.3247069.7803423-.0813486.1682541-.2108118.3263947-.143991.6309486.2091545.4208382.4832786.9181587.6767593,1.4514014.1525243.4203973.3258.8328324.4819739,1.2519248.1483281.3980539.2640922.8048459.3649581,1.2122375.0784219.3166867.1665055.6438838.1824262.9686561.0317884.6483895.0313123,1.3001473.0039846,1.9488277-.0126589.3007977-.1015712.602918-.1879975.8949248-.1063139.3591162-.246144.7083039-.3788159,1.0824714.1950498.2555202.4201426.5044626.5915319.7861089.2334145.3835316.4343883.7877754.6336872,1.1908553.2407313.4868895.3794683,1.0086872.5251871,1.5310845.0913629.3276291.092791.6551525.1478874.9793869.0474622.2792126.1342235.5501634.1156053.83889-.0138226.2142018.03133.4507292-.0459988.6374471-.0884715.2135757-.0483085.4261815-.1017122.630305-.0532804.2036032-.1448372.3968548-.2084493.5981831-.0419085.1326494-.0640704.2715239-.0943249.4043231.5726845.7408402.8514808,1.597612,1.1694175,2.4359641-.0242953.3393122.2201914.6332764.1649364.9778174.2416481.6999538.1108274,1.4221187.1227987,2.1354133.001481.0892588-.0615845.1778299-.0723393.2693548-.0721806.6140985-.2585032,1.1977681-.5108356,1.755391-.2537781.560806-.552268,1.1013936-.8467557,1.6815451.0885773.1431686.1991049.2948548.2807004.4607811.0931437.1893542.1632262.3903563.2384393.58814.066715.1754492.1453662.3494435.1844361.531444.0396517.1846722.0096264.3854097.1444494.5448376-.0118479.4785923.2033892.9266763.170067,1.4132219-.0311537.4552526-.02493.9153283-.0004937,1.3714273.019676.3669725-.1330422.6964974-.178089,1.0492121-.0345564.2706509-.164813.5475975-.3163147.7801748-.1937452.2974559-.3762418.6083496-.6496607.8532007-.266631.2387583-.5055287.5084658-.7732881.7815856.0271338.0817375.0354556.186277.0891767.2556613.3386529.437459.5575044.9310498.7155295,1.4562422.0134523.0446867.0705233.0836774.0693068.1241846-.009362.3137946.1278235.6037998.1496152.9074543.0292319.4071711.0304661.8198444-.0013928,1.2266187-.0199228.2545062-.1737694.4981141-.120542.7640301.060368.3016618-.1417871.5459045-.1541816.8348781-.0109311.2552557-.0787393.5123454-.1517485.7596742-.1061552.3596805-.2282134.7157458-.3645173,1.0651628-.1284582.3292604-.2339258.6678584-.3655752.9928511-.1138246.2810908-.1445551.5480648-.1154643.872555.1640725.3292251.3465163.6876447.5220311,1.0494237.2252867.4644139.37566,1.1732292.4999926,1.6863506.1725353.7120866.1202422,1.4242173.1242621,2.138711.0009344.16836.0509884.3769097-.0279449.4969855-.1732758.2636058-.0632241.5639097-.1817738.829861-.1333067.2991048-.2148493.6208879-.3316711.927946-.1005839.2643817-.2071446.527917-.3330992.7808361-.1262367.253501-.2715147.4986608-.4238803.737666-.1269243.1991151-.2761869.3839813-.4148533.5741909.1168395.4566016.2926541.8993247.2794486,1.3803153.2409781.6748506.0950125,1.3759595.1450135,2.0636483.0319471.4396016-.1530532.8393485-.1751094,1.2657769-.1384549.1591017-.0802026.3725539-.1459656.543806-.1011128.2633942-.2071093.5277583-.3205461.7848216-.2404492.5448641-.538181,1.0642635-1.0015191,1.4621587-.0912395.078334-.1904129.147445-.2726255.2105778.0834643.4025508.1618157.7472946.241366,1.0886172.0382589.1641629.0717398.3244108.0735382.4888382.0065939.6017718.0077752,1.203667.0034556,1.8054387-.0028915.4046317-.1453133.7871846-.2064393,1.1832458-.0319294.2067334-.0954709.412444-.1729584.6074149-.1655182.4165353-.3080811.8502645-.5347606,1.2326763-.4232633.7140705-.8276263,1.4490383-1.4338799,2.0349387-.2044647.1975985-.4348467.3683568-.664929.5610529-.008022.2272251-.0576704.4609575.0690952.6893288.0427548.0770114.0387526.1840197.0423845.2778548.0064881.1682718.0074578.3371431.0019394.5054678-.009362.2861431.0320705.5912967-.0550434.8527157-.0881541.2645934.0060297.5444056-.1018004.7719128-.1251436.264029-.0518346.5751431-.2396382.8110446.0028033.4443983-.2671423.8018039-.3903641,1.2064886-.0957001.3142531-.2133154.6324388-.3828181.9114045-.3570771.5876815-.687232,1.1901234-1.0354056,1.7823723-.0840638.1429658-.2237176.2520902-.3216568.38839-.0823007.1145736-.1411171.2460239-.2263622.3987417.0341862.0905021.0669795.2029772.1175095.3068288.2641979.5429066.4479993,1.422057.4904543,1.8339014.0215272.2088496.098239.412056.119061.6209232.0213862.2145633.005589.4328828.0050953.6495622-.0002645.1203579.0445707.2738164-.012465.3550249-.1937099.2757209-.0313476.6241328-.2132801.892641-.0467922.4084232-.2281958.7674336-.4173746,1.122335-.1894256.3552541-.3660336.7146348-.5907208,1.054141-.422223.6379056-.8592736,1.2580881-1.4017212,1.8008184-.4055619.405778-.8101717.8066535-1.3894678.9633745-.0572297.0154834-.0951359.1024938-.1318786.144694-.0870081.3092448.3237725.6043288.0020099.8567012-.0497718.3195788.0051658.6017894-.1225519.8845643-.1132781.2509087-.0788098.5503309-.1648482.8290321-.0820539.2657925-.1542168.5422012-.2334145.8125788-.193181.6595965-.48111,1.279779-.7994522,1.8877406-.2652734.5066141-.591955.9714865-.9235556,1.4347012-.8003161,1.1179616-2.144508,2.0452904-3.1930132,2.5809315-.0619018.0316369-.1252494.0603994-.212998.102529,0,.2379471.0078986.4764409-.001957.7141763-.0128352.3095799.0193763.638611-.0768528.9222676-.1000726.2949782.019341.634167-.2073738.8907894.0221972.2957012-.1233453.5532936-.2074619.8202676-.0912924.2897054-.2103358.5729564-.3453526.8511639-.2910497.5996556-.6119484,1.174446-.9999147,1.7188163-.3803851.5337012-.8489596.9674657-1.3444211,1.3847064-.4775662.4021629-1.0327433.6662448-1.5752967.9208921-.0894236.4433931.0237664.8692749-.1018533,1.3011172-.1098577.3777386-.0995436.7943973-.2306112,1.1770207-.1372031.4005052-.2377693.8137251-.4444555,1.1899294-.2052757.3736649-.36353.7762157-.5959572,1.1309937-.2342784.3576525-.5659495.6518724-.7966842,1.0113236-.2276845.3546898-.5870007.5498548-.863029.8408651-.2971676.3132656-.6804794.5112168-1.0368689.7531494,0,.0791629-.0092738.1525768.0014634.2229398.0812252.5322728-.1629794,1.0317977-.1553981,1.5583392.0018865.1325436-.0797795.2682614-.1313144.3992884-.2178994.5542811-.5023022,1.0731867-.8600494,1.5489398-.1861463.2475757-.3642.5131037-.5961864.7118309-.4863464.4166058-.9699952.8396307-1.5380781,1.1534958-.7677079.4241006-1.5588648.7833579-2.432772.9843776-.43058,1.4391099-1.2090956,2.6721742-2.2838356,3.71256-1.0508942,1.0173371-2.2341078,1.8328786-3.6500131,2.2384273-.1115679.3076753.0452936.6477811-.1767402.9154606-.0432396.6439191-.3940666,1.1645176-.7217531,1.6789263-.5469171.8586058-1.2959539,1.532028-2.1301653,2.1068008-.42939.2958599-.8954609.5302095-1.3743317.7383184-.1523568.0662189-.296621.1333724-.4695177.1525239-.1592064.0176172-.3108667.1034637-.4556158.1555923-.1569937.3069699-.2872679.6141691-.4626593.8929585-.3025009.4808143-.5919021.9757365-1.1048446,1.2829709-.2649561.1587313-.4634968.4024626-.7261697.5788817-1.1084765.7445435-2.3116041,1.2763402-3.5699515,1.6978661-.2893219.0969035-.5763605.2180902-.8744361.2663745-.2812293.0455508-.57562.0097697-.882035.0097697-.3651432.7016379-.8965011,1.2533267-1.4771195,1.7477904-.9603423.817834-1.9925391,1.525362-3.2073912,1.9341732-.4477525.1506898-.9090631.2481048-1.3642822.3437738-.4150385.0871691-.8645276.0452158-1.2950547.0117272-.3005703-.0233662-.5947759-.1284523-.9492613-.210278-.0775668.07389-.2020933.1770187-.3083191.2964419-.4491541.5050093-.983518.9039626-1.5528439,1.2590933-.5411959.3375487-1.0642231.7120601-1.6975224.8705269-.6386238.3877199-1.383059.4550498-2.0784893.6660684-.3111929.0944346-.669178.0354813-1.0059797.0441929-.1202599.0031037-.2406784.0004938-.3551906.0004938-.1903865.0854938-.3208722.2245799-.3910958.4102043-.1707898.4515404-.4657976.8255404-.7503239,1.2039491-.1124935.1495965-.2701748.2659336-.4114682.3927458-.0524164.0470322-.1266158.0714564-.1742102.1219274-.472321.5010062-1.0842341.7574699-1.7155676.9738848-.3577912.122668-.7175835.2427967-1.1099928.2126763-.263193-.0201743-.5293832.0023631-.7938544-.0060135-.2141705-.0067718-.4365216.0009523-.6397963-.0544741-.4073074-.1110467-.8309673-.174056-1.2114934-.3753755-.2301528-.1217687-.4705668-.2246857-.6973168-.352168-.205646-.1156317-.3990297-.2530778-.6281952-.4004523-.0676495.0270342-.171592.0404367-.2343137.0984378-.3174166.2935674-.6718579.5348651-1.0530981.7303828-.3770793.1933485-.7384231.4288267-1.1648775.512028-.4427982.2985757-.9745968.3530851-1.4677311.4949045-.3773967.1085602-.7745751.2148454-1.1819794.2131525-.625718-.00261-1.2519209-.0137552-1.8770131.0065425-.4598825.0149367-.8876592-.0862873-1.3105082-.2518786-.4645282.3622552-.9004416.7680508-1.4561564,1.0131224-.4122528.1817977-.808964.3947562-1.2753435.393028-.4093349.1869118-.8440758.1160197-1.2704068.1210104-.2372933.0027687-.4444996-.1512365-.6940375-.1313091-.235495.0187811-.4800874.015166-.6902116-.1316971-.250296.0409658-.4640962-.0953164-.6869675-.1614295-.6096123-.1808278-1.2027485-.4054958-1.7729383-.6988516-.6202701-.3191203-1.1898516-.6964709-1.6848371-1.1871078-.1000461-.0991784-.2036008-.1948299-.3161207-.3022085-.1771545.1173952-.3269549.2271722-.4864521.3203548-.4688125.2739222-1.1698671.4994896-1.7322287.5826027-.1849033.027334-.3632832.0968683-.5476928.1302863-.1623006.0293973-.3285593.0011639-.4879331.0929357-.0944572.0544212-.2302145.0492012-.3475212.0499066-.7460572.0044087-1.4925024-.0102282-2.2379954.0108278-.2515214.0070892-.4509965-.1633517-.6923097-.141361-.2249253.0204917-.4134781-.0902023-.617555-.1457697-.7554545-.2056577-1.4797024-.4959803-2.1540022-.888585-.5117391-.2979938-.9880051-.6568454-1.4806544-.9877282-.1561386-.1048568-.3141549-.2069097-.4756577-.3131421-.1926961.118806-.3722.2283537-.5505799.3397355-.1612383.1007127-.3100689.2326566-.4841161.2991224-.350232.1337251-.6863328.2974824-1.0509383.4049668-.6622667.1952002-1.3341026.1691006-1.9924818.1055093-.5291011-.0510705-1.0587664-.1817448-1.5693287-.3902241-.5754085-.2349668-1.1081195-.5268236-1.6109815-.8832946-.5741082-.4069948-1.0374948-.9184408-1.4002226-1.5190311-.0572826-.0948402-.0614082-.2218112-.0964803-.3587987-.2545891,0-.4916973-.0000176-.7288055,0-.2407005.0000176-.4814185.0021515-.7220925-.0004761-.2646916-.0028745-.5293391-.01014-.7940043-.015501-.2608128-.220418-.5994966-.0895674-.8940372-.2034533-.4384742-.1695768-.8920493-.2985404-1.3195263-.5023288-.538062-.256499-1.0500127-.5587604-1.5078764-.9350705-.6725631-.5528174-1.1839365-1.2310892-1.4102986-2.0996939-.3400546,0-.6531736-.0158008-.9640448.0038973-.417617.0264523-.9707533-.1322967-1.5960218-.2987873-.4826527-.1285581-.9122278-.3760809-1.3185831-.6759263-.6359615-.4693164-1.2660608-.9426006-1.7939102-1.5350435-.9214046-1.0342137-1.7374386-2.1400248-2.2766554-3.4285684-.0713696-.1705467-.1328174-.3452552-.206911-.5391151-.3801911-.0083942-.7371978-.0113921-1.0937548-.0256763-.3071995-.0123268-.6131208.0198392-.9152691-.1199699-.1619259-.0749305-.3811212-.0166826-.5709126-.043611-.1614543-.0229077-.3169979-.1149263-.4765524-.1187884-.5757699-.0139139-1.0976115-.2791421-1.6624723-.3349212-.6782755-.2673268-1.3976573-.4272749-2.02855-.8192624-.5472873-.3400353-1.102147-.6734574-1.5333618-1.1559118-.7335349-.8206908-1.3081633-1.7454273-1.6470013-2.7993568-.1073761-.3339865-.1531943-.6877769-.232577-1.0576327-.2993538-.1453817-.6395979-.2092728-.99928-.1997324-.457683.0121328-.8830333-.1450996-1.3063561-.287889-.5853897-.1974575-1.1259751-.4794388-1.6297253-.8483952-.3704413-.2713299-.7019471-.5766421-1.022848-.898778-.5762614-.5784938-1.0364436-1.2405591-1.4067879-1.9665508-.2145143-.4205207-.4625183-.8263693-.5694845-1.2942572-.1700008-.1729274-.0380077-.425917-.1899104-.653724-.4826108-.2539243-1.0252304-.4968797-1.521677-.8125083-.5008565-.3184149-.9862552-.6719232-1.3997863-1.10664-.4115828-.4326535-.784823-.9020052-1.1005779-1.4047572-.30141-.4798973-.5586967-.9935301-.780898-1.5155217-.2295071-.5391328-.4494693-1.0943309-.5702801-1.6643952-.1220362-.5758485-.2930398-1.1603381-.164921-1.6965082-.1019128-.2072977-.2338729-.2513319-.3551333-.3282552-.3031466-.1923081-.6640673-.239834-.9623743-.4508174-.2680591-.1895923-.5772509-.3240052-.8462863-.521057-.3847046-.281805-.7964219-.5360114-1.1022616-.9062552-.3179036-.3848631-.6443847-.7741525-.8864603-1.2066473-.2038278-.3641597-.376568-.7622137-.4721227-1.1768796-.1491965-.647446-.2095005-1.1431089-.1340979-1.5543184.084736-.4621214.2045793-.922779.46165-1.326529.1532295-.2406805.3332226-.4643081.5153931-.7151639-.0751778-.0719149-.1518675-.1625581-.2447049-.2314398-1.2314714-.91375-1.6209892-1.5110601-2.2577684-2.5482717-.3224546-.5252189-.6192993-1.0605249-.8115062-1.6500404-.072769-.2232043-.2014333-.4307666-.2538718-.6572157-.0477553-.2062573-.0827128-.4126732-.1440394-.6184543-.0598181-.2007199-.0287261-.4296203-.0310523-.6462116-.0033576-.312666-.0008573-.6254201-.0008573-.9788579-.3930771-.3224004-.5918668-.816529-.8486642-1.266641-.3880424-.6801411-.791666-1.348308-1.2156047-2.0069699-.6291054-.9774294-1.1495938-2.0179916-1.6199303-3.0795746-.1693716-.382306-.24089-.8086286-.3502011-1.2166815-.0545355-.2035944-.1078268-.409446-.1354323-.6177489-.0251625-.1898392.0001091-.3862915-.0236319-.5764834-.0378853-.303584-.177192-.5930249-.1214279-.9103288.0447327-.2545239.0941651-.5088714.1233519-.7653527.0270148-.2374004.0266369-.4778516.046476-.7162749.0035702-.0429056.0466831-.0825488.086261-.1480622-.1490962-.1424367-.2875015-.311555-.4596048-.4328299-.8143051-.5737147-1.4641399-1.3107987-2.0376585-2.1081234-.5403925-.7512624-.883549-1.6115964-1.1908345-2.4830051-.0869773-.2466587.0238655-.535694-.171376-.7558122-.0018402-.3574761-.1035789-.7029253-.138413-1.0527303-.049849-.500583-.0830181-1.0230155.0078667-1.5117126.088391-.4752946.0913596-.9456338.1297177-1.4185829.0053421-.0658485.0615999-.1275882.1082048-.2183195Zm115.5506326,59.3317439c.0723481-.0350581.1134544-.0595882.1576372-.0756712.8344494-.3044305,1.8981436-.8442863,2.6631099-1.3263527.4827408-.3042189.9474894-.6305342,1.4095405-.9652437.3344039-.2422676.6099913-.5358879.9169176-.8007282.172932-.1491909.2952282-.3510923.3310805-.5410197.0645376-.3418693.2380691-.6126877.3879752-.886751.2307258-.1127925.4431685-.2166618.6481621-.3168983h.7290788c.0711845-.038779.1305827-.0820197.196954-.1057033,1.080038-.3852334,2.022917-.9787873,2.7307682-1.7518817.2886078-.3152054.5733369-.6564574.6594811-1.0822334.0742875-.3671929.2212492-.7273672.1606874-1.1223527-.0319118-.2081618.0077752-.4272749.0141223-.6121587.217679-.2775902.4257933-.5065259.7017245-.6804585h.8534025c.2999797-.1134803.5235827-.1886577.739622-.2814346.9754872-.4189336,1.8015884-1.0532769,2.5690495-1.7761825.264101-.2487749.4535618-.5543869.6920628-.8211494.4156467-.4649077.751893-.9736203.9416448-1.5759917.0632859-.2008786.1848328-.383029.2752701-.5758309.1667788-.3555363.4657095-.5385861.8341673-.5922489.357465-.0520757.6853631-.1850073.9990684-.3394886.8835953-.43514,1.6651258-1.0087489,2.347571-1.7297676.5017469-.5300861.833418-1.1534958,1.1553216-1.7910311-.0071934-.2662158.1964427-.4842884.1640725-.7598682-.0453289-.3857448.0507063-.7539077.1937804-1.1768091.1410642-.1145913.3042552-.3098444.5130394-.4051255.6477566-.2955954,1.1441349-.7711545,1.6288944-1.2690041.7160408-.7353558,1.2377017-1.555306,1.5887667-2.5848111.4694031-1.3764533.409141-1.3270228.40632-2.1425995-.0008286-.2399751-.0001234-.4799326-.0001234-.6990633.0907635-.1663143.1698554-.3112199.2358476-.4321421.4209889-.2362365.8221254-.4392137,1.1673723-.7371898.4400478-.3798195.731027-.8866981,1.1338737-1.2972022.0308892-.0314782.0337101-.0886151.0588517-.1279056.3833294-.5989326.7264606-1.2183039.9705065-1.8888163.1045861-.2873599.2575511-.5667137.3040436-.8629792.0512881-.327056.2370994-.6300404.17823-.9751016.1832372-.2816463.1183205-.6016307.1332009-.9072074.0140341-.2881888.0030149-.5775944.0030149-.8523101.0311889-.0562905.0654104-.0958454.0759007-.1409378.0374302-.1605301.0667679-.3229471.0991734-.4846411.3998319-.487251.3625251-.4758942.9917516-.793445.1688504-.0852293.3336634-.1813921.490278-.2873952,1.0109163-.6842323,1.7643344-1.6073464,2.3380592-2.6650497.5717677-1.0540705,1.1283729-2.4471534,1.3591075-3.9946295.1349111-.2193952.1583072-.421861.0145102-.6667386-.0729035-.1241141-.0522225-.324305.0532451-.4794741.0655338-.0964274.1059965-.20989.1427215-.2849792.1858289-.1307095.3397284-.2389346.4770902-.335556.0173487-.1723983.0315592-.3136006.0502126-.4990664.0953651-.1011712.2099655-.2227282.3245659-.3443029.0172429.0235073.0344859.0469969.0517288.0705041.1945562-.0799212.3891123-.1598247.5143088-.2112656.117245-.1587137.1844537-.2565342.258609-.3487292.2695401-.3350975.5713798-.648557.8066279-1.0059979.6518469-.9904263,1.2087342-2.0361026,1.7044249-3.1131514.2467787-.536223.2952458-1.1043475.1629617-1.6737064-.1010952-.43514-.2369583-.865113-.4883739-1.2458672-.02493-.0377386-.0301663-.0884564-.0473564-.1418548v-.6134989c.1785826-.2407863.378763-.5053797.573284-.7740643.3496369-.4829481.5750294-1.0354305.8603138-1.554389.2506927-.4560197.3802264-.9628454.573284-1.443307.1493507-.3717075.1189199-.7923164.2942585-1.1595622-.046757-.5049211.2002509-.976918.1577959-1.4850487-.0279978-.3347801-.0054479-.6736514-.0083394-1.0106711-.0010226-.1195643.0314005-.26514-.0238016-.3537552-.1702785-.2733402-.0705409-.5636805-.1012538-.8026857.0769586-.2148278.1403237-.3917759.1969716-.5499253.2173176-.2190954.4232104-.4214907.62295-.6297935.1497562-.1562095.3326055-.298611.429293-.4843589.2725902-.5235788.5201446-1.0613008.7526776-1.6041016.0913453-.2132583.2017319-.4347873.1677221-.6845321.1640548-.2055342.071634-.4745892.156738-.6834564.0949244-.2330799.1036164-.4605519.1219172-.6961006.0182655-.2349844.0115482-.4624388.1055381-.6998921.0827415-.2090436.0288617-.4742894.0260407-.7146172-.0050248-.4270456.0059945-.8483599-.1046742-1.2760933-.0814544-.3147821-.0159912-.6676027-.0159912-.9744139.2273671-.4388257.3978749-.657833.6044553-.7973247.193322-.0856172.3665449-.1623465.598831-.2652282.1047447-.1480622.2614828-.3302126.3741261-.5364699.2959863-.5419367.3867498-1.1543423.5644862-1.7369979.0020981-.6980228-.0082512-1.3963807.0114248-2.0939097.0102788-.3642655-.2131567-.6861193-.1554334-1.0522188-.2256746-.4298319-.1260251-.8877209-.1266422-1.3273049.0536506-.0690934.0944836-.12914.1426334-.1825736.4404533-.4888558.5804244-.7072635.8467557-1.3006234.1744218-.3885487.2526674-.8063184.382871-1.2078112.0802732-.2475404.0932847-.5056089.1783534-.7551421.0816131-.239305.0318589-.5238433.0376418-.7885249.00573-.261084-.0030149-.5170363.1070191-.7720892.045417-.1052448-.043936-.268667-.0720219-.4056369-.045276-.2351784-.0416969-.475903-.0470743-.7164248-.0020981-.0938527-.0111603-.1914881-.0395812-.2801737-.1714951-.5354912-.2738596-1.0924969-.5182229-1.606015-.0794445-.1669492-.1410114-.3579611-.148575-.5405436-.0189179-.4562489-.0263052-.9160337.0123416-1.3700783.015092-.1773273.1293926-.3484383.1223227-.5468745-.0136286-.3822178.1905716-.7338127.1697849-1.1188786.1657298-.2094139.1332185-.4657894.1122026-.6936317-.0256881-.2785337.1638785-.4880181.1512725-.7647795-.0295493-.648557-.0058711-1.2994595-.0075107-1.9494185-.0002997-.1185944.0196936-.2606608-.0359669-.3510923-.1375028-.2234248-.0707701-.4695104-.1203833-.6763231-.1467061-.2966182-.2646211-.5847718-.425379-.8466141-.1729584-.2816815-.3860446-.5387007-.564592-.7831815v-.6741276c.0767999-.1414933.132478-.2760825.2164184-.3898185.0849453-.1151027.1973595-.2100576.2986486-.3129393.1350874-.1372256.274512-.2703599.4060027-.4109274.3470628-.3710461.6509125-1.1027074.658864-1.6110057.0064-.4090581-.0038259-.818363-.0066821-1.2275622-.2097892-.3865648-.0513057-.8533153-.2694519-1.2380549.0254765-.2228428-.102488-.4109626-.1388604-.6183221-.036725-.2093257.0043019-.4344082-.1435502-.6177313.050001-.432001-.2487181-.8270394-.1285464-1.2744621.10478-.2011079.2142498-.4112272.3184656-.6112681.0573707-.0251208.1010423-.044237.1634201-.0715446.020346-.0501712.0490666-.1131717.0718632-.1782443.1940096-.5539725.3201758-1.1309849.570322-1.6660352.0998963-.2136727.2151842-.4247796.2781616-.6497386.0567536-.2026421.2038652-.3825617.1623447-.6133314-.0441123-.2452656.1143535-.4586473.1253904-.6917977.0170137-.3602183.0020804-.7219621.0007052-1.0830534-.1921584-.3307152-.1068428-.700668-.1501265-1.0524746-.0026623-.021735-.0277157-.0398019-.0354203-.0619865-.1854234-.534098-.3308072-1.084279-.650842-1.5629595-.1710014-.2557671-.3367488-.5152464-.4977711-.7774149-.0864439-.1407261-.1579017-.2906488-.227614-.4205825v-.5024611c.2099126-.3649798.4443321-.6934025.5578746-1.1344854v-1.6787147c-.0592219-.1845135-.1064197-.2938672-.1278235-.4080529-.0262699-.1399943-.0077928-.2911691-.0488727-.4251675-.2360768-.7701053-.5336322-1.5145518-1.0075841-2.1739014-.2218663-.308654-.4627387-.6036322-.6815196-.8873418v-.9114927c.1308913-.2626271.2528084-.4685845.3381064-.688738.0928263-.2395607.1802223-.4880887.2173176-.7404523.0381355-.2595586.0144396-.5284549.0146512-.7932686s-.0274865-.5322375.0010402-.7937183c.0300253-.2750949-.1556273-.5002655-.1345937-.7642769.0214038-.2688522-.0974985-.5081307-.1438852-.762055-.1588537-.8697422-.6020751-1.6317707-.9016228-2.4477883-.3178309-.3653148-.4540819-.83039-.6858392-1.2218661v-.7244486c.1501618-.3634543.2779676-.6429844.3808082-.9314113.0785277-.2202241.0888065-.457889.1624152-.6851934.0635768-.1963641.0174016-.4291354.0152683-.6457619-.0032441-.3316234.0103669-.6585648-.116434-.9843687-.0830765-.213417.0222148-.4711151-.1051326-.6994689-.1145475-.2053755-.0168198-.4799678-.1911182-.6748594-.31568-1.2578501-.4834196-1.738056-.8893694-2.5234595-.1413463-.2734725-.2898861-.5432417-.4210065-.788278v-.7826436c.1091348-.205737.1978355-.3729772.2899037-.5465482,0-.5998584.0021157-1.2015772-.0015515-1.8032697-.0008815-.1429481.0128705-.2996514-.0386291-.4261815-.1863402-.4575098-.2808591-.95021-.5425182-1.3791955-.3339102-.5474211-.6767769-1.0881851-1.0776666-1.5895793-.2526674-.3160166-.4789767-.6477635-.6430491-.9981239-.0055713-.068291-.0116716-.1162137-.0130644-.1642687-.0117245-.4044554-.0588341-.8132754.1418929-1.1924688-.0445707-.2269518.1214764-.4044642.1431271-.6181722.0488903-.482807-.2026664-.9319491-.1489805-1.414959.0072815-.0655752-.0285796-.136388-.0465101-.2042292-.0538974-.2039206-.1051326-.4086348-.164284-.6110389-.0658159-.2252764-.1393717-.4482956-.2092427-.6723994-.3049957-.9781172-.6661808-1.8221742-1.1831871-2.5620622-.2750585-.3936276-.4871045-.8102863-.6814491-1.235542.0954004-.2755622.187257-.5409403.2830277-.8175254-.0497895-.1260363-.1013596-.2566489-.1554863-.3936805.0174545-.0680617.0305719-.1374108.0529101-.2036561.339746-1.0069149.3956005-1.2766444.3899939-1.9323391-.0086744-1.0110679-.0275922-2.0225899-.0048132-3.0330715.0072463-.3213555-.1230632-.6004447-.1536703-.9064403-.020681-.2068392-.0839227-.4214995-.179041-.6064582-.2502696-.4866999-.503078-.9852725-1.0593835-1.2015728-.2843147-.1105441-.4611519-.3277526-.623426-.5306769v-.5362495c.2300999-.1967962.0763238-.5096164.2275963-.7408931.0893001-.1365202.0783514-.3278363-.0058182-.4813698-.0610203-.1113377-.0904109-.2223094-.0774346-.343139.0315768-.2941802-.0767117-.5631426-.1605463-.8312938-.3180777-1.0171916-.8459976-1.9039559-1.6459258-2.6246306-.3395521-.305925-.7309917-.5349357-1.1095079-.7761143-.3188535-.2031756-.5523914-.4411403-.7117565-.8352881,0-.0921333-.0150744-.2383174.0028915-.3803221.0494721-.3910485-.1598763-.7377321-.1771722-1.1159821-.450785-1.1589803-.9667335-2.2753547-1.9264499-3.1231856-.3235962-.2858566-.6179781-.6047829-.9315071-.9143055,0-.2564681.0006876-.4962272-.0001763-.7359774-.0011813-.3318086-.0293377-.6520267-.1150588-.9827331-.2029661-.783014-.3418265-1.2114572-.7468594-1.8176597-.1056792-.1581582-.2472371-.2926284-.3502364-.4522282-.4666351-.7230952-1.1256578-1.215134-1.8826726-1.5926345-.3045196-.151867-.567501-.3533055-.7663062-.6292513-.0574412-.2063498-.1363039-.4065672-.1665408-.6138825-.0940252-.6443467-.3949834-1.4415347-.7226171-1.9784367-.3362022-.5509437-.7360165-1.0552697-1.1437999-1.5480713-.4266131-.5155726-.9005121-1.0057598-1.4864021-1.3457334-.387984-.2251398-.7597652-.4808011-1.1750417-.6623607-.2608657-.1140446-.5151375-.2587209-.6406337-.4877139-.0665916-.2198581-.1211061-.3998174-.1758851-.580729.0417322-.1588327.0851216-.3168278.1245265-.4758104.0444826-.1794567-.095612-.3142575-.1192196-.4752593-.024119-.1645729-.0201344-.3332635-.0222854-.3763498-.1480637-.3781574-.2216371-.6582606-.3595278-.9019523-.5508752-.9736247-1.3476651-1.7373484-2.1892903-2.4510706-.3428138-.2907194-.7357697-.5225802-1.0804171-.816734-.3226706-.2753969-.3765768-.3952764-.5804685-.8432965-.0991293-.2178522-.0936814-.4688975-.2565638-.6715859.0666181-.5047051-.0607735-.9810291-.2987367-1.4315181-.0882335-.1670351-.1832636-.3321348-.2915257-.4866669-.7502798-1.0709118-1.4606611-2.1762446-2.5097834-2.9963469-.2439313-.1906901-.481445-.3967313-.7488253-.5481508-.2429528-.1375893-.5163805-.2684598-.7875073-.2971848-.3357879-.0355761-.6498723-.1155634-.9535985-.2211036-.25808-.1738488-.3908402-.4216031-.4820621-.7279954v-.680313q-.3863002-.766715-.9724459-1.3307371c-.0346887-.0333828-.0696947-.0664393-.1051414-.0990131-.8568582-.7873081-1.8465029-1.3550115-3.0426752-1.5891671-.2311401-.0452488-.4467299-.1624391-.6903174-.1546885-.469077-.2245248-.8360714-.5360445-.9744646-1.0687912-.0884715-.3405577-.1592857-.6991977-.3231907-1.0038883-.3567686-.6631829-.8868129-1.2019762-1.4908715-1.6350706-.3773085-.2705187-.8392009-.4340356-1.2796278-.6024176-.4621921-.1767056-.9449682-.2978086-1.3773643-.3181702-.4935485-.1825792-.8901628-.3949623-1.1378935-.8128522.0013135-.2608437-.1692648-.4828599-.1834752-.7529267-.0079515-.1509808-.1092935-.3219551-.2177407-.4378668-.2782585-.2973765-.5602548-.6005715-.883851-.8441683-.61015-.4593207-1.3283065-.7075732-2.0457224-.9499312-.4449315-.1503019-.9013407-.0733775-1.3528045-.0951125-.0957971-.0046115-.1920085-.0006723-.2791312-.0006723-.2491941-.156419-.5510691-.1993753-.7586809-.4406168-.093223-.1724138-.1657474-.384571-.3010199-.5431965-.5933302-.6957722-1.247284-1.3282142-2.1129664-1.6765092-.3024656-.1216926-.6126183-.2358507-.960307-.2243892-.6483384.0213745-1.2978933.0061391-1.9022692.0061391-.3155036-.1654491-.5668223-.3146201-.7359812-.6084289-.2039534-.35426-.5276554-.6152172-.9010851-.7997517-.2976348-.1470802-.588182-.3118779-.8953022-.4354167-.3261879-.131211-.675772-.2085476-1.0151389-.2891201-.4340974-.103068-.8751237-.2116083-1.3368486-.1922453-.2780646.0116644-.5796311.0772153-.8395183-.1069422-.2383688.0078266-.4935485-.034701-.7103548.0377055-.214814.0717342-.4230164.0787782-.6335814.0806398-.2447688.0021636-.4371387.1780933-.6904144.1612311-.1562444-.0104035-.3183687.0677674-.4854913.1080113q-.7347647-.3326418-1.2648972-.8811508c-.2172823-.2251591-.4297867-.4549622-.6488673-.6783307-.2520239-.2569872-.5369733-.4528333-.8663788-.6185635-.4054209-.2039785-.8366885-.3157377-1.2514978-.4802979-.707243-.2805672-1.4615779-.4069028-2.2061718-.4701281-.9077936-.077083-1.8273911-.0204498-2.7417346-.009374-.1357309.0016439-.270642.0706133-.4110363.109864-.0828384-.0358528-.1694587-.1056069-.2557704-.1052305-.4195079.0018285-.7201576-.2167687-.9937439-.4978496-.0839316-.0862339-.1728174-.1676672-.2562905-.2543277-.5401733-.5608231-1.2488267-.7544643-1.9788663-.8424236-.4981149-.0600142-1.0094089-.0090362-1.5148142-.0104652-.2883874-.0008151-.5380488.1941873-.837905.1551366-.0817982-.0106537-.1721827.0696593-.2623996.0944738-.6406778.176208-1.229759.47696-1.8220842.7564179h-.8836041c-.1786796-.1079545-.3664303-.2100322-.5419363-.3300357-.2783643-.1903308-.6035032-.2654646-.9120603-.3771192-.1521276-.0550505-.3407069-.0081638-.4939188-.0615837-.4704962-.1640537-.9465374-.0730066-1.4210975-.0681383-.2118608.1600319-.4628621.0877483-.6967086.1161068-.0953475.0115619-.2228536-.0253925-.2824811.0240132-.1882972.1560117-.4193757.0852011-.6194238.1553465-.643675.2257008-1.2913258.4405363-1.9250747.6937171-.1315083.0525342-.2647709.1028492-.3904611.1673702-.6104145.3133394-1.2444366.5576703-1.8931717.6755103-.18716-.0462772-.3447708-.0955826-.5061193-.1222613-.1641342-.0271411-.348535.0062262-.4937601-.056766-.1631733-.0707725-.3201934-.0888201-.4871574-.0892456-.7219559-.0018417-1.4444584.0145234-2.1656297-.0096215-.320405-.0107275-.591479.1823119-.9074322.1564845-.0673938-.0055092-.1403149.0199792-.206598.0429679-.7007989.2430623-1.3811637.5202624-1.8724114,1.1167338-.0761387.0924507-.1693176.1708917-.2548756.2555456-.2264195.2240266-.5364355.2981376-.7779779.4428503h-.6509433c-.5702955-.3375917-1.101552-.6990644-1.7331631-.8402644h-1.0149053c-.2053595.206945-.525359.0479503-.7381013.2313368-.9141628.2172223-1.6942255.7131711-2.4711322,1.2080806-.5000852.3185703-.9773032.6730452-1.4827349,1.0238984-.0728021.2125716-.1486984.4341767-.2279313.6655174-.3007422.4077707-.6857554.7009392-1.2072268.8101011-.2511511.0525761-.4909568.159591-.7356991.2425531-.623285.2112843-1.2595463.3916448-1.8651519.6452185-.4138925.1733043-.8438643.2962755-1.2565931.4710292-.4109305.1739954-.8301342.3320356-1.2511584.4841837-.4201735.1518427-.8211513.3590445-1.2248135.5538546-.57216.2761265-1.0334397.6569909-1.2858911,1.2726655-.1240505.3025215-.3376259.5683173-.5135243.8553687-.3215025.1181899-.6291384.2312789-.9272581.3408729-.1556273-.0526863-.2885108-.0976728-.4406296-.1491721-.122975.0413174-.2542145.0928321-.389584.1288193-.1365331.0362947-.2822255.0422741-.4151134.0874259-.5398206.1834267-1.0368381.4446066-1.5170577.7591011-.7949475.5206051-1.7906881,1.2469286-2.3074917,1.790858-.2129892.2241654-.3982054.4747479-.5957677.7135525-.2894497.3498865-.6038294.6824358-.8625309,1.0537729-.4888896.7017371-1.0951785,1.2289686-1.8804951,1.5951166-1.0104403.4711041-1.9462141,1.0732881-2.8439273,1.7472569-.7527261.5651199-1.2438504,1.298095-1.675885,2.0965902-.0774787.1431972-.1189772.3058743-.1699524.4627143-.1449034.4458069-.2597902.9021176-.5023111,1.3183354-.2294917.3938612-.5338218.6609543-.9538145.8104494-.0663051.0236043-.1424439.0243449-.2041385.0553558-.6817885.3427312-1.3326216.7283459-1.8843783,1.2690724-.3094739.3032842-.5731649.6400152-.8390819.9786683-.4266197.5433056-.8092946,1.3023516-1.1053515,2.0547074-.1990741.5059043-.2794618,1.0432537-.4811453,1.5450138-.3020888.3768612-.6443891.6913789-1.0922209.9074102-.3160766.1524732-.6123715.3639481-.8623127.6292799-.3134232.3327278-.658637.636098-.96395.975688-.2703886.3007404-.5521049.6076706-.7454424.9579209-.3987013.7222839-.8173056,1.4429014-1.0231543,2.2531745-.1430345.5630192-.5078516.9133135-1.0375499,1.0743241-.259334.0788322-.4690064.2120591-.6947824.3442103-.3810925.2230633-.661286.5498592-.9734905.8451724-.2799974.2648535-.4822957.5776649-.6674017.9191639-.3398011.626897-.615155,1.2794748-.811245,1.9575658-.196284.6787523-.5825335,1.1865788-1.1462109,1.5828604-.1162841.0817508-.2397219.1570692-.3423003.2539551-.5939605.5610088-1.0745041,1.1990246-1.4334016,1.9426555-.2995588.6206896-.4604114,1.2839937-.7057091,1.9197479-.1041739.2699852-.1709485.543321-.1522819.8097528-.125007.2567282-.2427566.4897552-.3526298.7264414-.1364736.2939951-.3464964.5105731-.645707.6373854-.3737647.1584139-.709103.3806968-1.0475135.6277964-.1917507.3097738-.4073933.6184279-.5806184.9598916-.1730488.341111-.2891103.695576-.4036952,1.0545466-.1069706.335124-.2803698.6535609-.2798894,1.016376.0005069.3816888-.185765.7334424-.1458422,1.1262544.0381619.3754857-.0302633.7616273.1051458,1.0591846-.0599691.2680013-.1059458.4734826-.1597375.7138765-.1529011.1421722-.3261989.3033063-.4765458.4431066-.372276.0146325-.7007075.0544652-1.0388601-.0943156-.1966774.5800853-.4329117,1.1482759-.5776443,1.7389024-.1529805.6242871-.4023355,1.2063298-.646313,1.7921817-.3133626.752466-.8038246,1.3983514-1.3032167,2.0333692-.5315749.6759396-.9751478,1.4028659-1.3087759,2.1939478-.0995492.2360513-.1801937.4895524-.2117793.7422819-.0355041.2840799-.005708.5763247-.0043196.8650205.1962465.3321481.1198687.6940814.1274147,1.0008662-.1469496.3323817-.3320799.5511245-.6108861.730515-.338189.2175921-.6053655.5315939-.8423667.8721053-.3554309.5106745-.5935848,1.078292-.8823479,1.6218379-.2124834.3999585-.3028006.8469756-.5340466,1.2348983.0162369.2944403-.1002037.5713781-.2143203.8164585-.1271194.2730228-.0340848.5636717-.1803865.8308397-.1324295.2418268-.0578578.5504632-.169094.8269689-.0842709.2094756-.0557674.4780633-.0290325.7148905.0311239.275668-.1553221.4969855-.1381221.7665078.0183581.2877215-.0091438.5782469.0069609.8662417.0170677.3052417-.0916902.6283651.1116604.9111488.0105366.2882858.0173234.5767832.0343878.864681.0039978.0674798.0481057.1315825.0646776.199459.1179271.4830098.2686464.9601032.2289473,1.4691333-.0149069.1911265-.0024154.3843957-.0024154.5653999-.2062774.3189263-.3892137.6243885-.5946657.9138558-.2757021.3884429-.5360058.7898828-.7019141,1.2327292-.1570102.4191011-.3379223.8286265-.4868946,1.250849-.0937866.2658102-.2083374.5219035-.2602563.803585-.0894307.4852054-.3068089.9443993-.2968519,1.4505108-.1792394.2301437-.1514835.5095679-.1267447.7616317.0296286.3018646-.1459381.5501634-.1412709.8382728.0074072.4572982-.0002061.9148433.0041879,1.3722209.0008953.0932443.0015785.2010197.0458705.2765762.1324031.2258848.0846555.4712738.0849371.7044419.0003234.2680233.1729364.4875244.1491733.7637214-.0307884.3578553-.0075135.7203573-.0075135,1.036515-.188679.3821297-.3798898.7038247-.6135682,1.0115-.3421587.4505-.6745918.9188376-.893522,1.4507048-.1076582.2615513-.1886449.532361-.3221945.7856151-.0973205.1845576-.004962.4359336-.1772576.6069211.0244958.3388625-.2144327.6348283-.1606521.9778703.0570963.3641862-.1707782.6861898-.1370373,1.0548376.0431625.4715825-.0056204.9432619.1159095,1.4188916.0916985.3588781-.0080689.760847.1613678,1.1198221-.0540423.2974383.1097376.5549248.162662.8323651.0567349.2974471.1469678.592196.2219644.887042.1101139.4329269.2520641.867.208106,1.3279486-.013541.1419958-.0021041.2863812-.0021041.3748905-.1958531.339709-.2819555.6752474-.5477226.9009294-.354578.3010975-.5522471.7065493-.7686219,1.1075394-.272837.5056177-.3648545,1.0660622-.555095,1.5957162.045893.3178418-.1515166.5952204-.1490141.9071457.0023168.2887796-.0099768.5776296-.012249.8664797-.0024617.3129569-.0022055.625958-.0004793.9389237.0015939.2888589.0322336.5802749.0034964.8658802-.032406.3220213.1319651.6018688.1429105.9084595.011995.3359704.1389689.644792.2175341.9633304.0896831.3636131.2507732.708974.3605642,1.0684517.1095761.3587635.1940708.7251893.2814591,1.0574652-.0628732.2595762-.1182356.4881504-.1806179.7456986-.2380255.3452552-.5290906.6989222-.7436225,1.0941545-.3500463.6448802-.5250818,1.35575-.6481461,2.076945-.0239788.1405233.0168647.3083366-.0462054.4227427-.1517292.2752448-.1030031.5650648-.1006662.8452826.0024358.2920773-.1729006.5404906-.1428397.8378055.028914.2859756.0291628.5795342-.0002083.8654217-.0305636.2975.1097681.5557624.1349519.8373293.0638046.7133651.2215696,1.2256841.5537446,1.9613308.1835424.4064746.418547.7965311.4798703,1.25114.2770982.4083439.0632704.7924751-.1182411,1.1318226-.1671138.3124455-.3366033.6240005-.4988042.9402992-.1631212.3180799-.2213076.6690135-.3596135.9942972-.1102924.2593999-.0210195.5633366-.1716645.8298874-.0625853.1107292-.0219457.2833833-.0179526.4275923.01643.593404-.0659842,1.1876104.1174001,1.7785103.0813599.2621509.0763831.5534699.1497419.8330617.1973286.7520295.399695,1.4150736.7126708,2.0638423.2571654.5330664.5120989,1.0672085.7710203,1.5994196.1780614.3659938.3284017.7362728.2575065,1.0709206-.1735782.408529-.3485945.7105524-.5840123.9901971-.2243798.2665332-.3982875.587708-.4290313.9609232-.0093355.1133216-.0707553.2223491-.1272913.3893952.0260462.7008091-.1178202,1.4706675.1290681,2.2195051-.016184.3600685.0584545.7053413.1488472,1.052016.1480675.5679305.254934,1.1472443.441109,1.7045762.2757753.8255581.5160378,1.664307.8862752,2.4560943.049368.1055799.0967591.2162562.1189326.329666.094704.4844647.3292419.9344533.3519939,1.4361296.164219.2124647.0249019.4056722-.0391801.6037469.0510947.1985508.1888377.3746877.0526655.6090373-.0770429.1325612-.0643079.321889-.0760814.4867749-.0185564.2598672.0085746.5195052-.1183442.7699377-.0816732.1611649.0872924.3109377.1019756.4751359.0448831.5919668-.0367316,1.189612.1433111,1.7772582.0880858.287501-.0509531.6255965.1496334.9042271.0144435.3317998.0039052.6674792.1518543.9785581-.0545096.2968651.1306163.5486027.1563953.8332821.0253691.2801649.0918439.5573319.1514488.8334056.0295101.1366878.1025392.2650519.1243386.4021805.1301353.8187157.369676,1.602779.7047939,2.320447.1008379.593889-.010995,1.1209242-.2715136,1.6129543.0517603.7968838-.089088,1.5849325.1307789,2.3682551.0871101.3103382.0004171.6658392.160078.9756483.1744289,1.0523247.5525721,2.0409699.9689307,3.0139024.3586937.8381846.9018774,1.5620425,1.5156439,2.2293101.2288327.2487749.4468533.493723.5473126.8249056,0,.2887707-.0013366.5776473.0003306.8665062.0022215.3851276.0252154.7712251.0053267,1.1551359-.0213212.4115975.2088327.784222.1571513,1.196419-.005654.0450923-.003914.1077137.0223625.1375519.1875027.2128174.0960638.5017645.2189594.7466245.112672.2245093.209636.4744305.2914596.7175622.4118032,1.223612,1.1266958,2.2431005,2.0370084,3.1395507.2058124.2026597.4009448.4166587.613058.6123527.3246794.299528.5306482.6595788.6429698,1.0869948.0503845.1917085.0810974.3678278-.0066909.5494315-.1141299.236166-.0930147.5039865-.1935182.7508745-.0765354.1879875-.027849.4274512-.0325807.6440601-.0026281.120305-.001924.240751-.0003317.3611089.0041399.3128776.016595.6258257.0125631.9385975-.0040319.3126483.2004394.5862531.1569088.9071016-.008173.0602407.0567977.1273413.075331.1947417.3349361,1.2182863.9043314,2.3314864,1.5530808,3.4043557.5392311.8917417,1.1359663,1.749113,1.5598698,2.7075144.0373002.0843299.1171128.149861.1812361.2291297h.5087375c.3359642.1244844.5851737.2606079.7179273.5615114,0,.056749.0143647.1324554-.0024309.2004554-.0842467.3410933-.1766477.6801763-.2779235,1.0644927.0336969.072779.0989442.1746556.1278081.2859668.0355107.136917.0189972.2888236.0624903.4219844.2816062.8621857.7257884,1.6484004,1.231165,2.3904221.5484289.8052603,1.1492875,1.5765383,1.7578772,2.3381877.229128.2867427.3859652.5854772.4996312.9287925.072066.2176494.0779701.4044201.005514.6187894-.1576593.4664772-.3430893.9253184-.4277239,1.4145622-.0116341.0672593-.0535448.1292635-.068185.1631048v.8557137c.0536837.1537583.0863888.267168.1323436.3749523.101472.2379824.1641165.4892085.2567181.7310529.2000129.5224149.5259011.9614875.872878,1.3773879.4621591.553946,1.0495278.9662666,1.7087951,1.2683869.3220072.0165944.5719661.2156566.8515535.3391006.0416154.0183579.0715966.0630799.1316163.1182946.0628451.1181535.1405221.264223.2247666.4226369-.0186204.2775197.082131.5483558.1218422.8264222.0450225.315223.1769826.5829906.2776238.8722552.1428692.4105923.3606408.7655996.5715473,1.1366369.2118939.3727479.4454979.7255508.6891141,1.0763433.4140027.596111.943322,1.0833267,1.4489498,1.5941732.3373571.3408641.7293212.6064979,1.1163685.886363.484407.3502458,1.075119.512945,1.5722224.9935477.1090114.185307.2645021.4496182.4076886.6930321v.7819118c.2068206.3523973.409952.7279668.6417533,1.0849315.2197903.3384481.4447486.6794004.7113377.9803568.586679.6623122,1.1975078,1.2933049,2.0275384,1.6789792.365357.1697707.7479327.2910456,1.1104181.4646255.1445155.0692344.3305251.0505415.4769932.1172365.1332097.0606639.2706067.0845944.403433.1295104.3467543.1172894.6299009.3360851.7947404.5951058.067288.2180902.1158566.3754813.1823909.5911203,0,.1060384-.0019394.274557.0003482.4430581.0084364.6211525.1372295.9603942.4905954,1.5262614.3759642.6020539.893614,1.0704533,1.4265058,1.5112894.4547255.3761691,1.0145086.6038879,1.5434378.8717085.4247178.2150747.8947997.294361,1.3201081.4982904.3182056-.0302614.5842063.2150923.9049418.171499.2921781.1737562.6315582.2052168.9503016.2506795.3036513.0432936.6031021.109971.927214.1706348.1070015-.1249253.2125308-.2481224.3630143-.4238008.1860008-.0985259.4555938-.1917967.6499163-.421279.157029-.1854305.3901966-.257557.6361334-.3184149.1074511.0472967.2121473.1015415.3222651.140444.480559.169806.7888825.5197168,1.0053979.9619989.1143624.2336265.1923215.4871452.3235301.7099969.2163964.367528.3746991.7639772.6348023,1.1123184.3136568.420027.6207373.844974.9816095,1.2236649.4125349.4329004.8269078.8632261,1.3165115,1.2196971.3063885.2230809.5599374.5169481.8880163.721583.3222783.2010021.6232409.4363039.9463655.6357894.3626617.2238745.765341.3626784,1.2078218.5015882h.611393c.2461616.0863932.4235674.1486618.5988178.2101546.1992724.1782707.3963013.3545135.5310581.4750653.1019767.392834.1787457.6885705.2744503,1.0572271.242296.2355311.520343.5378983.8330477.7987002.216057.1801929.4729557.3163164.7240804.4483662.4178903.2197832.847862.4132199,1.2935649.5749492.4005547.1453465.8265464.1728568,1.2305832.3082573.2181638.0730965.4770902.0274575.7176848.0298558.3128149.0031214.6256828.0007583.8637827.0007583.2487886.083889.4270142.1439886.6026437.2032241.3052249.2484751.5358713.5296099.6101368.9381037.0567977.3124191.2672084.5477562.5378416.7278257.4555453.3031079.9363071.5560622,1.4384639.7711369.3501658.1499844.706216.271612,1.0942.2615249.3569625.2188662.7499404.0824958,1.1258781.1141857.3416325-.1592427.7321377-.1628402,1.0649592-.3735591.2391754-.1514129.4997722-.2626006.7185399-.4558081.1556802-.1374637.3577647-.2223402.4978064-.3059824h.5137094c.3425978.1009595.5220708.2565871.7150755.3977541.3254915.2381234.6172773.5231909.9837472.707334.3383796.1700705.665026.371972,1.0025329.5339481.4615574.221529.9361969.4360747,1.4532473.5359056.3009847.0581068.6137379.0888444.9008206.1758724.5720057.1733683,1.141931.051,1.7110894.0804502.2663489-.1750436.5926691-.1357355.8814708-.2498153.2810089-.1110467.6184806-.0906784.8860107-.2208765.2452977-.119388.543338-.0001587.7465068-.2158506.2646652-.0046732.5295066-.004832.7939161-.015695.1632879-.0067012.3333813.0492189.4673315-.0305612.1287403-.2238568.2460382-.4278216.3557636-.6186307.089785-.036945.162521-.0532749.219301-.0926183.2457473-.1704056.4730351-.1357884.7367129-.0115332.2071181.0975736.3438716.254277.5022141.3965726.2480128.222834.4660445.4705332.7477674.6660508.5329358.3698029,1.1098341.6312749,1.7148271.8394367.6022073.2072272,1.230138.3432977,1.8563409.4139077.6657312.0750363,1.3482646.0595705,2.0186239.0134201.4177272-.0287977.8360274-.1643216,1.154872-.4843589.1694851-.1700882.3431047-.3360145.5206824-.5095238h.8550246c.2711974.2157624.4739607.5048506.8392185.5588133.329194,0,.6669301.0135788,1.0028326-.0053963.1848945-.0104398.3649493-.0909077.5503551-.111999.2145055-.024389.4340357-.004973.6483913-.0301027.1372384-.016083.2667809-.0900259.4039134-.1169367.1626356-.0319015.3353295-.0205799.4938659-.0638558.5437523-.1484855,1.0814925-.3137064,1.6143578-.5029813.663924-.2358485,1.2686173-.5361877,1.7301747-1.0807697.2047292-.2415622.4463067-.4270985.7522809-.5210747.1668581-.0040737.3191973.0106691.4843012.0837479.2325594.102917.3896942.2744336.5528058.4459678.1675457.1762251.3460843.3385539.5794636.4082998.2914728.0871514.5697931.2264844.8891314.2150218.1877859-.0067541.3715344.0240716.5615242.0736608.2427677.0633797.535889.0786514.7676462-.0008994.2367996-.0813319.4754769-.0347407.5704454-.0673475.3204579-.1416608.5251342-.2111597.7084419-.3174979.390849-.2267666.7947448-.4453153,1.0893911-.7985238.3046959-.3652355.5859693-.750028.8933187-1.146724.2099479-.1094595.4408147-.2298174.6763538-.3526089.6045346.0534689,1.1767607-.110694,1.7392282-.2952604.3795035-.1245197.7499713-.2865664,1.1077889-.4652956.8500703-.4245591,1.6526079-.9252832,2.422361-1.4872707.436936-.3189792.8014797-.6697894,1.0088006-1.1688558.1560416-.3756577.4203013-.6281006.8030665-.7599388h.5965478c.4089647.1734564.7218677.3783382.7622335.8175695.090693.018111.1584306.0387261.2273848.044334.8774862.071333,1.6866266-.2133994,2.4754915-.5295923.7021917-.281417,1.3820805-.6244149,2.0054536-1.0638226.5433997-.3830467,1.1277735-.7133828,1.5959072-1.2286203v-.5756193c.1729143-.1728568.3416942-.3415695.5065689-.5063848h.7843955Z" stroke-width="0"/>
  </g>
</svg>