<?xml version="1.0" encoding="UTF-8"?>
<svg id="b" data-name="Layer 2" xmlns="http://www.w3.org/2000/svg" width="365.438" height="512.881" viewBox="0 0 365.438 512.881">
  <g id="c" data-name="Layer 1">
    <path d="m365.414,230.474c.005-.323.004-.646.002-.938v-.291c-.365-.958-1.08-1.554-1.712-2.081l-.082-.069-2.157-.706h-.713c-.635-.004-1.295-.003-1.956.002h-.278c-.491-.008-.958-.009-1.353.246l-.142.049c-.987.084-1.847.503-2.756.946l-.406.197c-.961.458-1.855,1.09-2.899,2.046-.34.312-.782.726-1.186,1.171-.19.207-.364.429-.539.649-.204.257-.408.513-.632.751-1.47,1.568-2.211,2.763-3.174,5.112-.082.2-.224.356-.362.506-.056.061-.115.125-.169.194l-.136.169-.204-.069c-.078-.026-.157-.046-.233-.066-.192-.052-.391-.104-.568-.222-.971-.649-1.901-1.371-2.802-2.071-.411-.319-.822-.638-1.237-.951-.324-.244-.631-.51-.938-.776-.436-.379-.847-.735-1.307-1.031-.416-.267-.766-.59-1.104-.902-.265-.244-.514-.474-.789-.676-.635-.466-1.371-1.036-2.012-1.736-.182-.199-.351-.412-.52-.624-.245-.309-.478-.602-.749-.851-.494-.45-.873-.973-1.24-1.48-.11-.152-.22-.303-.333-.453-.442-.588-.854-1.208-1.252-1.809-.208-.314-.417-.629-.631-.94-.432-.628-.796-1.3-1.148-1.951s-.716-1.322-1.141-1.935l-.048-.068-.007-.082c-.029-.345-.201-.655-.383-.983-.128-.231-.26-.469-.351-.734-.125-.362-.259-.722-.393-1.081-.108-.291-.217-.58-.32-.872-.039-.109-.083-.218-.128-.328-.136-.333-.277-.677-.278-1.048,0-.174-.073-.345-.149-.525-.098-.231-.208-.492-.183-.801.023-.274-.06-.539-.146-.821-.057-.186-.114-.371-.147-.562-.057-.334-.055-.669-.053-.994,0-.14.002-.28-.002-.42-.003-.114-.009-.226-.015-.327l-.002-.027-.266-.595v-8.605c0-.081-.007-.166-.015-.253-.023-.261-.049-.556.094-.806.21-.363.209-.761.209-1.182,0-.209,0-.417.022-.625.006-.055.003-.115,0-.174-.006-.175-.014-.393.119-.571.23-.308.217-.652.174-1.104-.031-.329.086-.589.19-.818.08-.178.149-.332.136-.488-.038-.418.077-.793.19-1.156.111-.357.215-.694.152-1.031l-.032-.177.136-.115c.161-.136.178-.315.194-.618.015-.278.033-.595.239-.888.094-.136.098-.333.1-.561.003-.264.007-.563.155-.86.213-.425.299-.943.377-1.48.042-.296.127-.572.209-.839.094-.303.182-.589.204-.889.029-.379.185-.723.336-1.057.082-.18.164-.361.221-.546.088-.279.156-.563.224-.847.071-.295.142-.588.232-.877.202-.648.437-1.316.701-1.985.172-.439.284-.89.402-1.369.061-.249.123-.5.194-.747l.144-.517c.169-.609.344-1.236.575-1.846-.047-.37.084-.681.2-.959.072-.172.14-.335.159-.494.06-.514.148-1.1.439-1.554.128-.199.156-.418.188-.672.029-.225.061-.481.175-.734.127-.281.194-.592.266-.922.099-.459.202-.935.477-1.376-.006.015-.012-.026-.013-.056v-.086c.009-.5.194-.928.373-1.341.065-.15.131-.3.186-.453.448-1.244.91-2.483,1.372-3.722l.28-.752c.125-.337.246-.675.367-1.014.31-.868.63-1.765,1.023-2.621.168-.367.317-.742.466-1.116.165-.413.33-.826.519-1.232.222-.474.407-.985.585-1.479.122-.337.244-.673.378-1.005.121-.299.265-.59.408-.879.215-.435.417-.847.54-1.275.115-.404.302-.758.483-1.1.17-.323.331-.628.42-.952.154-.557.409-1.052.656-1.529.097-.187.193-.374.283-.564.253-.533.51-1.065.767-1.596.56-1.157,1.14-2.353,1.659-3.547l.423-.978c.542-1.256,1.103-2.554,1.71-3.812.035-.072.079-.126.115-.169.153-.688.473-1.268.782-1.829.082-.149.165-.299.244-.45.217-.418.396-.868.569-1.304.136-.342.271-.684.426-1.018.172-.37.371-.729.571-1.088.296-.531.575-1.033.766-1.57.148-.415.342-.809.529-1.189.275-.559.535-1.086.655-1.665l.026-.076c.548-1.104.985-2.282,1.409-3.422.278-.748.555-1.496.865-2.232.113-.269.202-.547.291-.826.106-.329.215-.671.363-.998.223-.492.405-1.016.581-1.522.21-.604.427-1.228.719-1.824.192-.391.314-.816.444-1.266.065-.224.129-.448.203-.668.081-.244.165-.486.249-.729.127-.365.253-.73.369-1.098.077-.248.163-.493.249-.738.14-.399.285-.81.386-1.224.044-.181.078-.365.113-.549.09-.479.183-.972.437-1.435-.038-.359.082-.671.189-.95.079-.207.154-.404.152-.588-.006-.389.098-.742.199-1.083.111-.375.215-.73.156-1.088l-.022-.132.081-.106c.178-.233.182-.518.186-.847.004-.27.009-.55.113-.825.203-.533.225-1.069.249-1.635.003-.076,0-.115-.004-.156-.012-.144-.029-.342.092-.505.209-.284.209-.61.208-.989,0-.158,0-.316.015-.473.004-.052.002-.108,0-.165-.005-.178-.01-.399.119-.579.181-.251.176-.536.17-.867-.002-.153-.005-.306.01-.457.008-.094,0-.195-.008-.295-.018-.238-.038-.507.099-.738.224-.376.216-.788.208-1.223-.002-.135-.005-.27-.002-.404.021-.795.026-1.589.031-2.383l.01-1.274c0-.059-.002-.12-.006-.182-.011-.232-.024-.496.115-.719.152-.245.149-.508.144-.814v-.203c.006-.675.004-1.35.002-2.026l-.002-.564c0-.086.008-.178.017-.27.009-.096.026-.274,0-.318-.316-.511-.295-1.038-.276-1.503.006-.144.012-.288.007-.43-.027-.827-.031-1.655-.036-2.483l-.007-1.033c0-.087.006-.18.015-.273.01-.118.023-.279-.006-.333-.328-.586-.316-1.176-.304-1.747.003-.158.006-.316.002-.473-.01-.303-.09-.59-.176-.893-.032-.115-.065-.232-.094-.35-.056-.228-.059-.457-.061-.678-.002-.233-.004-.453-.073-.619-.194-.462-.261-.912-.202-1.337.023-.17-.049-.332-.133-.52-.098-.22-.211-.469-.18-.773.038-.381-.062-.758-.169-1.157-.105-.396-.213-.805-.195-1.247-.199-.315-.243-.662-.281-.973-.038-.302-.07-.563-.226-.769l-.074-.098.014-.123c.031-.263-.062-.53-.161-.814-.103-.295-.217-.625-.199-.99-.257-.473-.371-.977-.481-1.464-.072-.32-.14-.621-.245-.912-.177-.488-.321-.994-.462-1.482-.104-.362-.208-.724-.325-1.082-.95-2.906-1.769-5.089-2.656-7.078-.762-1.71-1.668-3.726-2.613-5.709-.142-.298-.29-.593-.437-.889-.166-.333-.333-.665-.491-1.001-.137-.291-.266-.584-.396-.877-.171-.388-.343-.777-.532-1.157-.21-.424-.441-.836-.673-1.249l-.324-.584c-.804-1.468-1.892-2.976-2.852-4.306l-.22-.305c-.192-.266-.423-.52-.646-.764-.286-.313-.581-.638-.817-1.009-.38-.599-.888-1.069-1.425-1.567-.276-.257-.551-.513-.809-.785-.512-.249-.893-.625-1.262-.99-.169-.167-.337-.333-.517-.486-.279-.236-.563-.466-.847-.696-.31-.252-.619-.503-.923-.76-.678-.574-1.351-1.153-2.024-1.732l-.886-.762c-.027-.023-.054-.049-.082-.076-.019-.019-.05-.049-.062-.057-.383-.093-.649-.357-.885-.589-.134-.132-.26-.256-.4-.341-.169-.102-.339-.201-.509-.299-.27-.157-.538-.312-.799-.48-.223-.142-.437-.295-.653-.448-.199-.141-.4-.283-.605-.416l-.648-.423c-.863-.567-1.755-1.153-2.699-1.6-.316-.149-.642-.268-.988-.393-.331-.119-.662-.24-.982-.387-.189-.087-.372-.188-.555-.289-.428-.236-.832-.458-1.298-.487l-.128-.036c-1.196-.645-2.496-1.131-3.754-1.6-.608-.227-1.216-.454-1.816-.7l-.09-.036c-.319-.128-.717-.286-.935-.745l-.031-.134.002-.606c.002-.489.005-.989-.006-1.49l-.002-.18c-.002-.366-.004-.68-.215-.931l-.086-.102.015-.132c.029-.257-.082-.494-.211-.768-.082-.176-.164-.352-.215-.536-.092-.33-.32-.643-.562-.976-.083-.113-.165-.227-.242-.341l-.331-.494c-.383-.575-.777-1.169-1.214-1.707-.84-1.035-1.974-1.83-2.971-2.495-1.638-1.091-3.134-2.04-4.864-2.594-.266-.086-.527-.199-.788-.312-.44-.191-.856-.372-1.284-.408-.335-.028-.648-.115-.952-.199-.425-.117-.828-.228-1.236-.165-.347.055-.643-.063-.899-.165-.215-.086-.402-.158-.597-.135-.393.055-.789.03-1.171.008-.145-.009-.29-.018-.434-.022-.141-.003-.326-.008-.475-.123-.186-.146-.396-.151-.724-.141-.099.002-.195.004-.295.002-.503-.018-1.025-.036-1.53-.01-.651.029-1.305.012-1.939-.003-1.28-.035-2.487-.065-3.696.257-.372.099-.818.111-1.361.04-.174-.026-.34.048-.532.13-.224.095-.481.198-.787.178-.308-.031-.625.065-.958.162-.37.109-.748.23-1.178.186-.319.25-.686.285-1.014.316-.249.024-.483.047-.676.157-.408.236-.881.322-1.339.404-.212.038-.425.076-.629.13-.476.127-.955.295-1.417.458-.798.282-1.624.572-2.507.681-.961.391-1.968.669-2.941.939-.605.167-1.211.334-1.808.529-1.037.337-2.079.72-3.087,1.09-.535.196-1.07.393-1.607.584-.567.201-1.128.464-1.672.718-.455.213-.911.426-1.379.61-.449.177-.892.368-1.334.559-.533.23-1.067.46-1.609.666-1.146.435-2.288.88-3.43,1.325-.738.287-1.476.575-2.215.86-.769.296-1.533.608-2.296.918-.452.184-.903.368-1.355.549-.42.168-.845.328-1.271.488-.472.178-.945.355-1.411.545-.478.194-.964.364-1.45.535-.42.147-.841.295-1.255.458-.818.322-1.899.736-3.009,1.081-.799.249-1.592.515-2.385.78l-.771.257c-.681.227-1.362.457-2.044.687-1.585.534-3.224,1.087-4.851,1.595l-.261.082c-.771.241-1.567.489-2.383.674-.556.125-1.121.32-1.667.508-.3.103-.6.207-.903.301-.186.057-.369.138-.551.218-.341.149-.695.303-1.081.335-.291.023-.569.105-.864.19-.29.086-.59.173-.916.207-.479.05-1.009.158-1.578.32-.215.061-.438.099-.66.136-.326.054-.634.104-.903.239-.346.174-.705.168-1.02.162-.245-.006-.472-.009-.649.073-.466.211-.909.291-1.352.248-.205-.023-.4.048-.625.127-.206.073-.419.149-.664.161l-.4.02c-.648.035-1.318.07-1.98.002-.416-.042-.818.042-1.244.131-.37.077-.741.177-1.157.154-.91-.008-1.822-.006-2.731-.005l-1.228.002-.511-.282-.464-.004c-.434-.005-.9-.012-1.367.011-.55.021-1.072-.074-1.575-.172-.199-.039-.4-.078-.6-.108-.437-.066-.935-.073-1.48-.025-.361.038-.677-.067-.956-.156-.2-.064-.388-.123-.573-.13l-.306-.01c-.719-.021-1.462-.044-2.21-.287-.203-.067-.443-.065-.696-.062-.392.005-.841.006-1.256-.251-.116-.005-.233-.008-.35-.011-.563-.015-1.144-.03-1.708-.289-.426.048-.815-.079-1.16-.191-.3-.098-.581-.195-.868-.167l-.077.006-.072-.031c-.827-.355-1.711-.625-2.566-.886-.988-.301-2.009-.613-2.973-1.062-.722-.144-1.309-.514-1.878-.872-.377-.237-.733-.462-1.122-.621-.228-.094-.4-.261-.617-.472-.111-.108-.241-.234-.404-.376l-.601-.523.797-.021c.281-.008.529.003.758.012.4.019.715.029.935-.067.73-.32,1.404-.22,2.083-.253.525-.026,1.05-.027,1.582-.023h.458s13.095-.01,13.095-.01c.132-.022.272.01.411.021.27.021.529.041.701-.033.651-.282,1.291-.268,1.914-.261.259.006.52.01.78-.01.199-.015.406-.005.613.007.316.019.614.034.829-.057.489-.208.956-.224,1.407-.238.167-.006.335-.01.503-.027.09-.009.183-.008.278-.004.107.003.207.006.267-.015.08-.028.158-.061.235-.092.263-.108.558-.234.92-.196.125.004.274-.048.446-.127.196-.09.419-.191.696-.192.176,0,.375-.074.586-.152.114-.041.228-.083.342-.116.133-.038.268-.07.403-.102.258-.061.501-.118.714-.218l.346-.161c1.613-.75,3.136-1.457,4.32-2.73.237-.255.486-.499.735-.743.229-.224.458-.448.677-.68.132-.14.244-.296.358-.452.09-.124.182-.249.28-.367.542-.652.899-1.397,1.276-2.186.123-.258.248-.517.378-.772.095-.186.161-.387.227-.587.04-.12.08-.24.124-.358.073-.191.087-.412.103-.646.023-.364.05-.776.312-1.154-.022.02-.028-.024-.032-.054-.031-.224-.065-.41-.108-.593-.015-.063-.036-.123-.058-.184-.047-.132-.1-.282-.103-.451-.022-1.156-.569-2.122-1.384-3.217-.416-.558-.986-1.115-1.696-1.659-.86-.657-1.86-1.128-2.725-1.503-.365-.157-.755-.244-1.168-.334-.41-.09-.833-.183-1.24-.354h-.993c-.901.003-1.794.003-2.69-.024-.234-.021-.409.059-.624.128-.215.07-.439.142-.689.15-.295.009-.578.095-.877.186-.281.086-.571.174-.892.204-.322.031-.651.181-.998.338-.159.073-.319.145-.479.207-.168.065-.339.127-.509.188-.405.146-.789.283-1.142.474-.358.192-.727.364-1.097.536-.747.346-1.451.674-2.067,1.168-1.73.856-3.232,1.999-4.686,3.105l-.734.557c-.923.694-1.793,1.503-2.632,2.285-.303.282-.605.563-.911.84-.627.569-1.242,1.175-1.837,1.76-1.023,1.006-2.079,2.048-3.249,2.956-.195.151-.386.306-.579.46-.441.355-.897.722-1.378,1.044-.21.14-.418.284-.626.428-.578.4-1.175.813-1.825,1.154-.494.26-.946.586-1.424.932-.272.197-.545.394-.825.578-.157.103-.33.136-.496.167-.062.012-.126.023-.189.04l-.172.045-.126-.124c-.119-.117-.243-.226-.366-.334-.283-.249-.577-.508-.776-.837-.245-.407-.574-.736-.922-1.085-.191-.191-.382-.383-.559-.586-.169-.194-.333-.391-.499-.588-.315-.377-.641-.767-.986-1.119-.821-.839-1.574-1.584-2.466-2.2-.493-.341-.943-.742-1.379-1.129-.392-.349-.798-.711-1.224-1.016-.299-.214-.578-.449-.856-.684-.266-.224-.531-.448-.814-.65l-.253-.182c-1.659-1.186-3.373-2.414-5.106-3.546-3.047-1.991-5.36-3.083-8.248-3.897-.143-.04-.291-.066-.44-.092-.257-.045-.524-.092-.777-.204-.178-.079-.363-.09-.578-.103-.136-.009-.273-.018-.408-.042-.172-.031-.341-.077-.511-.124-.222-.062-.432-.12-.635-.135-.556-.039-1.131-.04-1.687-.04h-.472c-.27-.004-.547,0-.822.005-.455.006-.911.012-1.366-.003-.471-.018-.942.074-1.433.169-.207.04-.414.08-.622.112-1.796.278-3.351.79-4.623,1.523l-.232.132c-.579.327-1.127.636-1.478,1.148-.249.363-.471.744-.692,1.126-.087.151-.174.301-.264.45,0,.122.003.243.006.362.006.328.011.65-.011.969-.073,1.024.193,2.011.837,3.107.782,1.333,1.504,2.404,2.483,3.31.193.179.379.365.566.55.249.247.496.495.761.724.388.336.827.675,1.424,1.099l.237.169c.967.688,1.966,1.399,3.059,1.88.249.109.496.222.745.335.786.358,1.6.728,2.436.982.172.052.341.122.511.192.25.105.487.204.713.225.258.024.476.119.669.204.212.093.393.173.599.154.315-.023.584.076.825.168.23.087.424.164.632.128.372-.073.695.045.978.148.157.056.305.109.446.125.182.021.373.011.563.004.357-.015.726-.032,1.064.115.363.158.731.175,1.121.193.148.007.296.014.446.028.04.002.085,0,.13-.003.137-.01.304-.02.459.071.404.239.859.234,1.342.227.214-.003.429-.005.642.011.075.005.156,0,.237-.006.215-.012.46-.028.667.103.28.178.574.175.935.177h.094c2.75.003,5.501.006,8.252,0l.195.003c.219.004.443.01.577-.056.408-.207.794-.208,1.167-.21.641-.004,1.262-.002,1.886-.002h.903s.931.85.931.85l-.428.195c-.457.207-.9.429-1.341.648-.868.433-1.767.881-2.718,1.194-.304.1-.595.243-.903.395-.245.12-.491.241-.744.341-.238.094-.488.166-.738.237-.388.112-.755.217-1.057.404-.308.19-.64.232-.932.267-.301.037-.56.069-.747.25l-.062.061-.085.019c-.912.207-1.841.5-2.84.897l-.079.031-.084-.014c-.245-.044-.471.048-.737.149-.204.077-.416.158-.656.188-.302.038-.6.108-.898.177-.188.044-.376.088-.566.124-.16.031-.315.085-.47.137-.291.098-.603.206-.982.193-.329.218-.7.228-1.003.236-.216.006-.42.011-.567.086-.451.229-.899.239-1.295.247-.158.003-.316.006-.474.024-.076.009-.159.004-.241-.002-.04-.003-.101-.01-.119-.003-.483.321-1.04.303-1.531.297-.182-.004-.363-.009-.542.005-.15.011-.305.002-.46-.008-.205-.014-.397-.027-.517.027-.668.303-1.333.287-1.974.266-.244-.007-.487-.015-.73-.002-.107.005-.217.014-.328.023-.457.036-.931.075-1.348-.1-.367-.157-.738-.17-1.132-.186-.145-.006-.291-.011-.437-.023-.075-.009-.161,0-.244.006-.21.01-.445.028-.652-.089-.358-.205-.756-.211-1.178-.218-.169-.002-.337-.006-.504-.019-.038-.005-.079,0-.122,0-.144.004-.333.012-.491-.104-.233-.171-.502-.231-.794-.182-.336.062-.606-.068-.822-.169-.144-.068-.26-.119-.374-.115-.379.041-.722-.066-1.022-.161-.228-.073-.453-.165-.643-.134-.377.011-.716-.094-1.035-.198-.265-.086-.515-.166-.771-.166-.22,0-.416-.082-.589-.154-.115-.048-.223-.094-.316-.107-.298-.041-.572-.12-.838-.197l-.23-.065c-.429-.118-.849-.266-1.269-.415-.594-.21-1.155-.408-1.74-.523-.806-.158-1.569-.429-2.306-.689l-.718-.249c-.547-.186-1.114-.379-1.642-.663-.289-.157-.6-.265-.93-.379-.342-.119-.697-.243-1.035-.426-.387-.21-.807-.362-1.251-.522-.229-.083-.458-.165-.683-.257-.358-.145-.715-.295-1.072-.446-.745-.314-1.514-.638-2.285-.904-.207-.072-.412-.148-.617-.224-.221-.082-.441-.164-.664-.241-.496-.169-.991-.381-1.427-.568-.292-.125-.58-.261-.868-.396-.568-.266-1.155-.542-1.749-.721-.421-.127-.823-.294-1.213-.454-.406-.169-.79-.328-1.196-.446-.278-.082-.559-.157-.841-.233-.452-.122-.904-.245-1.349-.389l-.487-.161c-.585-.197-1.191-.4-1.791-.497-.45-.073-.871-.214-1.278-.35-.409-.137-.797-.267-1.208-.332-.407-.063-.804-.17-1.189-.274-.592-.161-1.15-.312-1.738-.315h-.104s-.083-.065-.083-.065c-.169-.128-.441-.271-.775-.211-.346.063-.637-.061-.868-.16-.142-.061-.265-.115-.383-.122l-.296-.02c-.419-.031-.816-.061-1.195-.008-.367.049-.674-.061-.943-.163-.207-.077-.379-.128-.576-.135-.521.029-1.046.019-1.555.013-.316-.006-.634-.01-.949-.006-.157.003-.314,0-.471,0-.698-.01-1.366-.01-2.011.233-.245.094-.513.082-.747.069-.134-.006-.27-.015-.4.003-.195.028-.387.08-.579.131-.196.052-.393.105-.592.137-.128.021-.256.031-.384.04-.264.02-.492.037-.706.161-.238.136-.495.161-.722.181-.224.021-.418.039-.588.149-.237.154-.518.193-.789.23-.152.021-.308.04-.453.087-1.288.408-2.491.902-3.932,1.505-2.228.934-4.353,2.02-6.317,3.23-1.387.855-2.83,1.659-4.227,2.437-.839.467-1.677.935-2.508,1.416-.876.505-1.865,1.002-3.023,1.517-.328.146-.647.311-.967.475-.659.34-1.34.691-2.1.881-1.684.909-3.468,1.601-5.152,2.232-.206.077-.409.157-.613.237-.315.124-.63.248-.949.359-.519.182-1,.329-1.47.452-.212.055-.413.156-.625.262-.291.146-.592.297-.959.353-.316.049-.62.168-.943.294-.338.132-.688.268-1.077.332-.533.088-1.073.275-1.596.457l-.382.132c-.6.201-1.215.342-1.812.479-.332.077-.664.153-.994.239l-.405.11c-.55.151-1.119.307-1.702.37-.262.028-.521.097-.796.169-.484.13-.985.269-1.548.175-.197-.029-.344-.008-.382.019-.434.287-.883.273-1.287.266l-.236-.004c-1.661.009-3.322.01-4.938.006h-1.577c-.067.03-.128.065-.183.098-.209.12-.497.287-.858.079l-.077-.064c-.435-.494-.738-.954-.807-1.593-.036-.337-.116-.673-.261-1.09-.286-.826-.521-1.68-.749-2.507l-.178-.642c-.411-1.466-.894-2.883-1.478-4.333-.116-.289-.253-.571-.388-.852-.211-.437-.43-.891-.572-1.365-.251-.843-.697-1.567-1.17-2.333-.213-.346-.426-.692-.62-1.048-.345-.632-.763-1.165-1.243-1.586-.528-.462-1.071-1.004-1.662-1.656-.977-1.08-2.074-1.854-3.355-2.366l-.227-.09-.603-.002c-.661,0-1.32-.004-1.979.007-.2.003-.428.044-.659.115-1.989.63-3.513,1.533-4.659,2.759-.646.692-1.084,1.499-1.547,2.353l-.098.18c-.035.337-.115.661-.195.975-.12.482-.234.937-.179,1.408.04.337.029.666.019.983-.003.099-.006.198-.007.293.018.027.035.052.052.077.079.115.161.233.195.385.348,1.58,1.038,3.019,1.666,4.218.307.584.603,1.15,1.01,1.567.48.492.93,1.018,1.364,1.526.508.594,1.034,1.209,1.603,1.763,1.479,1.439,3.25,2.502,4.788,3.353.524.29,1.068.545,1.615.758.218.086.448.145.676.205.363.096.738.195,1.078.385.163.091.37.108.588.125.3.024.666.053.972.307.346-.015.619.093.881.182.183.061.357.119.526.14l.161.019c.404.047.82.095,1.254.256.253.092.571.081.911.068.18-.007.36-.015.538-.006.125.006.225.052.305.087l.115.043.122.137.434.86-.012.094c-.034.263.048.574.136.904.069.262.141.533.168.821.028.298.105.592.186.903.13.5.265,1.015.199,1.576.298.494.305,1.035.266,1.551-.018.236.057.467.136.713.071.22.144.447.161.701.014.19.021.38.029.571.025.602.049,1.171.241,1.733.185.539.129,1.169.06,1.658-.029.204.046.396.134.617.093.236.198.502.18.818-.029.526-.01,1.071.008,1.597l.017.513c.002.067,0,.136-.002.207-.004.14-.008.313.032.379.25.406.244.814.238,1.173l-.002.167c.005,3.612.002,7.222-.002,10.832,0,.061.005.126.01.191.018.238.038.508-.113.729-.187.276-.178.578-.166.928.004.13.008.26.003.389-.024.608-.027,1.216-.031,1.826l-.006.758c0,.055.004.111.008.167.013.173.027.368-.055.558-.26.606-.252,1.244-.245,1.919.004.325.007.65-.018.973-.004.051-.002.107,0,.162.005.178.011.4-.118.584-.174.249-.17.53-.167.856,0,.101.002.201-.002.302-.013.317-.01.635-.006.931l.002.45-.326.555v.245c0,.291.002.618,0,.945,0,.049.004.103.009.156.015.181.032.406-.082.601-.222.382-.225.809-.228,1.261-.002.177-.003.353-.016.528.008.169.018.328-.088.464-.26.334-.245.726-.197,1.244.034.358-.077.659-.174.926-.072.196-.14.382-.14.563v.204c.003.586.006,1.192-.295,1.774.04.508-.077.981-.19,1.439-.111.446-.215.867-.17,1.292.018.165.021.377-.115.53-.182.205-.187.441-.18.81l.002.145c.002.272-.103.498-.196.697-.104.224-.166.368-.123.525.096.353-.042.64-.153.871-.062.128-.12.249-.114.337.032.446-.086.84-.201,1.222-.103.343-.199.667-.175.998.017.239-.075.453-.157.642-.044.104-.087.203-.105.29-.028.138-.039.28-.05.422-.016.209-.034.425-.098.642-.115.391-.209.786-.303,1.181-.066.277-.132.553-.205.828-.082.313-.158.63-.234.945-.154.642-.313,1.307-.532,1.947-.052.154-.072.329-.092.516-.037.341-.079.723-.342,1.056.019.41-.114.779-.233,1.109-.056.153-.111.304-.149.459-.073.295-.14.591-.207.888-.182.81-.371,1.646-.69,2.449-.109.273-.178.563-.25.871l-.056.233c-.044.175-.085.351-.125.526-.116.499-.236,1.014-.415,1.514-.129.363-.229.734-.329,1.106-.093.344-.186.688-.3,1.027l-.094.28c-.427,1.266-.855,2.533-1.253,3.809-.161.512-.336,1.019-.512,1.526-.304.877-.618,1.785-.839,2.701-.183.76-.452,1.512-.713,2.239l-.169.477c-.141.404-.259.814-.378,1.224-.14.485-.284.987-.467,1.477l-.084.217c-.14.358-.286.729-.297,1.12-.014.479-.242.948-.474,1.388-.068.128-.076.291-.086.479-.015.29-.032.643-.301.936-.019.462-.176.874-.327,1.273-.121.319-.236.62-.271.925-.041.354-.148.669-.251.973-.057.168-.115.335-.158.506-.031.125-.069.248-.105.37-.089.298-.173.578-.178.866l-.002.136-.1.09c-.146.131-.164.299-.183.586-.015.239-.033.508-.184.763-.101.17-.128.388-.157.618-.039.309-.083.659-.314.974.02-.031.028-.004.032.028l.006.077c.017.4-.093.761-.199,1.11-.112.368-.219.715-.154,1.065l.027.147-.098.113c-.166.19-.183.409-.198.752-.006.13-.011.26-.029.388-.03.221-.082.441-.133.661-.065.27-.125.524-.14.775-.027.457-.132.881-.233,1.292l-.056.224c-.078.325-.071.681-.064,1.058.004.184.007.369.002.551-.004.123-.01.309-.119.459-.182.252-.173.548-.163.892.004.14.007.282,0,.42-.025.428-.031.856-.039,1.284l-.013.645-.073.084c-.195.224-.195.477-.177.871.006.136.011.271.006.404-.019.418-.023.836-.027,1.255-.002.291-.006.583-.013.874v.158c.003.236.006.504-.132.732-.14.229-.138.475-.136.76v.108c-.006,1.932-.006,3.864-.006,5.796,0,.073-.005.151-.01.229-.007.119-.019.299.014.35.245.383.257.772.269,1.114l.008.206c.01.17.01.344.01.517,0,.383,0,.743.11,1.044.146.393.161.765.175,1.125.008.19.015.381.045.571.249.313.266.688.28.991.004.103.008.208.025.31.02.121.067.242.111.362.078.209.166.446.155.7-.007.149.06.294.136.462.091.201.195.429.174.697-.016.196.065.38.157.593s.196.45.205.727c.223.309.27.654.312.962.029.21.056.408.134.576.187.402.334.822.475,1.228.132.379.27.771.436,1.134.399.875.799,1.722,1.313,2.473.335.49.663.984.991,1.477.872,1.312,1.774,2.667,2.76,3.884l.108.133-.401,1.162c-.254.73-.501,1.438-.727,2.153-.146.463-.358.893-.563,1.31-.173.351-.336.682-.461,1.028-.282.782-.546,1.575-.811,2.368l-.052.157c-.126.38-.256.759-.386,1.137-.282.825-.574,1.679-.826,2.525-.184.615-.337,1.238-.491,1.861-.164.663-.333,1.349-.538,2.019-.161.527-.243,1.128-.307,1.7-.039.345-.108.684-.177,1.02-.061.298-.123.594-.16.895-.023.182-.035.365-.048.547-.032.47-.066.955-.257,1.45-.127.329-.085.779-.031,1.211.041.33-.075.594-.177.826-.077.177-.144.33-.124.477.077.578-.052,1.114-.175,1.633-.112.468-.218.911-.169,1.358.01.095.027.257-.085.386-.175.204-.185.453-.197.768-.005.125-.01.249-.025.373-.027.223-.098.425-.167.62-.094.27-.176.502-.13.738.071.359-.058.663-.162.906-.071.167-.133.312-.127.444.018.429-.091.819-.196,1.197-.11.395-.214.768-.159,1.144l.019.13-.08.103c-.175.228-.178.508-.182.833-.002.278-.006.565-.121.845-.178.428-.201.863-.226,1.324-.01.171-.019.343-.036.515l-.042.128-.255.429v.383c.002.441.003.925-.003,1.408l.003.163c.009.241.019.513-.128.74-.16.25-.155.522-.15.836l.002.174c-.005,3.776-.003,7.552,0,11.327v1.029c0,.081-.006.166-.013.252-.009.1-.024.287.005.333.312.496.297,1.01.283,1.462-.004.156-.009.31,0,.464.031.5.036,1.002.04,1.505l.006.563c.304.546.289,1.125.276,1.64-.005.215-.011.43.007.642.013.155.007.318,0,.479-.01.24-.019.466.052.621.192.417.27.836.244,1.317-.027.484.072.96.177,1.464.119.577.242,1.174.172,1.804.379.494.316,1.069.27,1.493-.018.159.054.312.136.49.107.231.229.493.183.825-.052.374.053.747.165,1.143.111.393.224.798.198,1.239.238.33.245.701.249,1.006.004.206.007.4.077.546.222.462.295.831.238,1.199-.021.139.034.261.126.451.09.183.19.391.191.652.002.562.08,1.044.246,1.519.155.441.223.92.289,1.384l.04.273c.035.231.095.457.154.682.094.356.191.724.199,1.113.003.171.077.344.154.528.118.279.252.596.182.988-.038.209.046.421.143.667.103.261.22.557.199.901-.006.103.051.231.116.379.071.161.152.344.178.557.049.399.167.786.291,1.196.153.503.31,1.022.339,1.58.051.031.105.104.131.203.099.387.218.767.337,1.146.133.427.266.852.37,1.28.084.342.193.676.301,1.008.136.416.276.845.367,1.288.087.42.203.833.317,1.245.111.399.222.797.308,1.2.023.104.081.215.141.333.12.232.268.516.203.87.09.333.17.671.251,1.007.14.589.286,1.199.483,1.768.077.221.1.442.123.656.034.318.063.592.263.793l.116.116-.031.161c-.056.285.046.554.163.864.074.197.152.4.192.622.145.797.279,1.438.421,2.021l.136.579c.108.471.22.957.367,1.416.103.322.155.646.205.96.052.327.102.634.204.919.076.211.098.422.118.609.021.199.039.372.112.497.202.343.238.685.27.988.01.094.02.189.036.284.026.162.079.32.131.478.056.169.111.34.144.513.03.154.05.308.069.463.031.237.06.462.125.684.037.126.077.252.118.378.145.455.295.926.319,1.425.007.171.078.344.153.527.115.282.246.603.181.994-.036.213.048.429.144.677.101.258.215.551.202.889-.004.092.051.216.109.348.078.177.166.378.178.618.009.166.066.345.126.535.061.19.123.385.147.596.024.201.081.399.14.608.051.178.1.353.131.528.033.186.094.367.153.547.098.3.2.611.201.952,0,.241.083.475.171.722.094.269.192.546.207.869.006.147.061.312.118.488.082.249.174.53.157.844-.009.178.062.355.144.56.104.261.222.556.186.91-.008.077.044.182.104.304.088.178.198.4.183.678-.016.303.073.61.168.935.107.368.218.747.193,1.166.233.327.32.73.244,1.148-.024.134.03.257.121.447.09.19.194.407.176.671-.029.437.073.867.181,1.322.128.533.258,1.086.179,1.681-.013.094.008.185.023.207.256.341.259.7.261,1.015l.004.181c.005.128-.002.26-.008.391-.011.219-.022.425.032.582.304.869.299,1.745.293,2.592-.002.365-.005.729.018,1.092.005.069.006.14.006.213,0,.144.002.309.047.382.224.37.22.734.215,1.056l-.002.136c.005,6.146.006,12.291.007,18.437v3.073c0,.066.007.136.014.206.019.222.041.475-.082.697-.205.375-.212.788-.22,1.225-.002.14-.004.278-.013.418-.002.036,0,.076.003.116.008.14.019.331-.094.492-.182.258-.251.518-.206.774.061.344-.069.617-.174.838-.067.139-.123.26-.124.37-.004.79-.244,1.516-.475,2.218l-.065.196c-.154.473-.287.952-.42,1.429-.079.282-.157.565-.241.846-.184.625-.404,1.246-.616,1.847-.258.731-.525,1.487-.726,2.244-.082.312-.201.612-.316.901-.103.259-.207.518-.281.785-.107.385-.287.722-.462,1.048-.136.253-.263.492-.353.743-.169.471-.407,1.087-.757,1.688-.277.472-.536.953-.796,1.435-.263.487-.526.976-.806,1.454-.273.466-.571.916-.87,1.367-.175.264-.35.529-.521.797-.12.19-.234.383-.349.575-.168.285-.336.569-.522.841-.214.315-.454.613-.692.91-.306.379-.594.737-.834,1.135-.144.24-.357.432-.544.6-.071.065-.103.103-.136.14-.131.149-.327.375-.696.399l-.165.01-.209-.266c-.094-.115-.19-.232-.268-.362-.659-1.091-1.356-2.024-2.13-2.852-1.062-1.137-2.439-1.942-3.77-2.72-.256-.149-.511-.299-.764-.45-.902-.54-1.956-.843-2.977-1.136l-.203-.058c-1.286-.37-2.954-.73-3.772-.609-.122.017-.248.015-.373.009l-.085-.002-2.157.868c-1.719,1.599-1.739,1.632-2.822,4.467l.002.13c.004.17.008.361-.007.55-.133,1.636.5,3.592,1.652,5.106.082.108.155.223.228.337.136.215.266.417.449.546,1.463,1.035,2.674,1.662,3.925,2.03.251.073.508.114.76.154.291.047.592.095.879.189.481.155.977.229,1.562.232,1.044.005,2.086.006,3.048.003h1.042c.218-.079.42-.147.609-.211.406-.136.757-.255,1.074-.409.263-.128.51-.291.772-.463.211-.139.423-.278.643-.4.308-.17.63-.316.954-.462l.703-.325.391.864c.237.521.463,1.018.684,1.516.08.181.165.36.251.539.216.455.441.926.579,1.425.247.889.567,1.776.877,2.635.42,1.165.854,2.37,1.123,3.617.06.278.154.551.253.841.138.401.28.815.334,1.261.256.404.262.85.269,1.245.006.386.011.718.219.988l.061.079.003.101c.004.136.013.272.022.408.022.329.044.67-.002,1.012-.024.18.045.35.126.547.086.211.183.449.174.732-.011.324-.002.65.006.974.005.179.01.358.011.537.005.561.008,1.122.006,1.683,0,.174-.007.349-.013.522-.013.338-.024.657.006.971.036.377-.064.718-.153,1.018-.065.221-.127.429-.129.626-.003.383-.106.733-.203,1.071-.111.379-.215.737-.163,1.099l.019.128-.078.103c-.182.24-.201.531-.222.868-.016.256-.033.521-.124.785-.132.379-.245.762-.359,1.144-.069.232-.137.462-.21.691-.062.198-.094.405-.127.612-.064.395-.134.839-.4,1.232.019.365-.098.692-.203.985-.099.278-.194.541-.163.8l.015.129-.082.102c-.169.211-.208.474-.253.78-.034.231-.069.469-.165.707-.237.589-.431,1.214-.619,1.817-.087.282-.175.565-.267.845-.085.257-.166.516-.248.774-.199.635-.406,1.291-.663,1.922-.225.55-.383,1.138-.537,1.705-.087.324-.175.649-.274.97-.044.14-.109.272-.177.404-.122.242-.195.4-.162.594.053.315-.08.579-.187.792-.103.206-.165.338-.128.475l.027.097-.036.094c-.246.655-.408,1.355-.565,2.032-.073.316-.146.633-.228.947-.046.178-.103.355-.158.533-.123.389-.24.756-.247,1.13-.008.367-.107.705-.203,1.03-.115.388-.223.755-.158,1.126l.027.157-.111.113c-.199.203-.219.446-.233.827-.012.301-.025.642-.195.971-.111.215-.117.493-.123.789-.007.373-.016.791-.236,1.18.037.504-.077.973-.189,1.429-.109.446-.211.868-.169,1.294.014.136.036.365-.106.529-.203.229-.217.502-.174.926.037.357-.074.657-.172.922-.059.158-.115.308-.132.454-.017.14-.029.278-.041.417-.035.409-.071.831-.236,1.277-.118.318-.1.709-.082,1.124.009.199.018.397.013.591,0,.037.003.077.006.116.012.142.029.337-.084.502-.244.36-.229.759-.212,1.222.006.182.013.363.003.542-.024.486-.025.973-.027,1.46,0,.272,0,.545-.006.817,0,.061.002.125.006.19.012.231.026.493-.113.714-.174.274-.167.571-.159.914l.004.25c-.007,1.069-.006,2.136-.005,3.198v1.126s.299.516.299.516v.083c0,.206.005.42.01.642.014.557.027,1.132-.031,1.72-.029.291.056.571.144.867.081.27.165.548.174.86.004.155.005.31.005.464.003.631.005,1.228.245,1.809.116.283.124.571.132.85.007.271.014.528.122.76.133.287.154.586.174.875.022.303.041.59.196.817l.049.125c.179,1.104.579,2.177.965,3.215.157.422.314.843.458,1.27.193.571.463,1.137.725,1.685l.223.471c.336.723.681,1.441,1.045,2.148,1.018,1.979,1.877,3.45,2.787,4.77.405.588.83,1.164,1.256,1.738.232.315.465.63.694.947.692.957,1.554,2.148,2.577,3.114.338.319.667.647.997.976.806.804,1.64,1.636,2.597,2.299.381.265.703.596,1.014.918.192.198.384.395.59.577.266.234.544.455.822.676.32.255.642.511.945.784.651.589,1.395,1.096,2.114,1.587,1.182.806,2.396,1.571,3.756,2.367,1.743,1.021,3.577,1.862,5.452,2.5.636.217,1.267.447,1.915.684,1.044.38,2.123.773,3.34,1.154h1.127l.082.061c.312.23.674.224,1.098.211.182-.003.363-.007.542.006.096.006.199,0,.3-.007.239-.018.505-.034.741.088.392.203.817.214,1.266.227.195.005.389.01.581.031l.123.04c.054.031.107.069.16.107.039.028.097.071.12.079.476,0,.958.102,1.424.199.586.123,1.14.24,1.708.168.199-.025.474-.061.677.088.37.267.816.229,1.288.188.366-.032.673.08.944.178.199.072.387.14.575.144l.197.002c.47.003.955.006,1.452.278.102.056.406.037.605-.062.394-.196.762-.199,1.118-.203l3.962-.04c.101.009.186.007.28.015.139.012.292.025.358-.007.695-.341,1.392-.311,2.07-.281.216.009.433.018.649.015,1.186-.022,2.371-.018,3.529-.013l1.303.003.564-.312h.438c.298,0,.624.002.952,0,.186-.002.371-.008.557-.014.385-.012.784-.025,1.18.002.238.011.491-.051.749-.122.224-.062.456-.127.705-.139.261-.012.513-.078.78-.149.274-.073.559-.147.859-.161.22-.01.424-.09.639-.175.2-.079.408-.161.648-.198.327-.048.703-.167,1.059-.334.212-.098.432-.165.652-.232.222-.066.43-.129.625-.227.693-.349,1.49-.665,2.437-.965,1.061-.336,2.136-.793,3.487-1.481l.161-.082.15.099c.089.059.183.116.28.174.232.141.496.301.726.504.483.427,1.052.797,1.846,1.198.807.408,1.628.903,2.51,1.512,1.311.906,2.388,1.446,3.841,1.931l.571.191c.84.285,1.709.579,2.578.766.197.042.388.111.58.182.321.117.626.229.933.174l.128-.021.105.074c.197.141.446.173.733.21s.609.079.905.25c.341.016.638.104.909.199.266.093.512.181.757.155.441-.05.825.062,1.195.169.274.079.534.153.795.154.6.002,1.199.086,1.886.265.391.103.824.09,1.281.077.222-.006.446-.011.664-.006.155.005.331.025.471.133.171.132.365.136.676.127l.181-.002c2.491.003,4.982.002,7.475,0,.082.015.149.004.227.009.124.006.313.018.37-.017.44-.275.891-.262,1.289-.258.124.003.247.005.368,0,.224-.015.454-.003.683.007.398.018.776.034,1.084-.075.484-.171.944-.203,1.39-.232l.346-.026c.073-.006.149-.005.23-.005.076.005.197.003.232-.014.4-.266.818-.268,1.188-.27.104,0,.208,0,.312-.008.1-.01.208,0,.315.006.102.006.267.018.309-.009.572-.353,1.173-.336,1.688-.293.222.019.428-.055.666-.139.235-.083.517-.19.801-.174.094,0,.192.006.292.013.242.014.495.028.627-.044.391-.217.793-.22,1.149-.224.253-.002.492-.004.679-.086.468-.206.922-.229,1.362-.253.208-.01.416-.021.624-.054l.521-.299h.082c.111,0,.23.006.356.012.294.013.598.028.878-.028.103-.021.203-.063.303-.103.241-.097.513-.203.839-.146.154.031.309-.039.487-.115.187-.081.387-.172.646-.163.278.01.542-.065.823-.147.308-.09.618-.176.975-.165.331.013.656-.073.995-.166.293-.082.595-.165.923-.186.172-.011.354-.066.547-.125.195-.059.397-.12.613-.144.214-.023.422-.079.642-.139.174-.047.345-.093.517-.123.182-.032.358-.089.535-.144.32-.102.651-.198,1.009-.19.244.016.5-.065.761-.148.274-.086.56-.182.872-.169.312-.006.611-.082.931-.175.389-.111.79-.227,1.235-.191.303-.215.642-.245.945-.271.224-.019.434-.037.602-.129.305-.167.638-.18.932-.192.31-.012.578-.023.784-.19l.086-.069h.109c.323,0,.641-.072.977-.146.209-.047.417-.093.627-.123.34-.048.671-.124,1.001-.2.258-.059.517-.118.777-.165.181-.032.358-.082.534-.13.214-.06.429-.118.647-.153.119-.019.237-.029.355-.039.272-.023.507-.043.727-.174.22-.132.458-.137.667-.142.219-.006.358-.014.458-.103l.064-.056.084-.016c.883-.172,1.774-.396,2.635-.613.542-.136,1.082-.273,1.626-.398,1.249-.288,2.54-.587,3.804-.949.099-.028.195-.065.291-.101.236-.089.497-.173.817-.188.156-.002.34-.068.533-.147.17-.069.363-.148.581-.183.542-.087,1.091-.231,1.623-.37.411-.107.822-.215,1.239-.301.27-.195.579-.206.831-.215.256-.009.419-.02.534-.136l.09-.09.126-.002c.259-.003.516-.081.788-.162.261-.078.533-.16.823-.178.21-.014.419-.076.64-.142.278-.083.569-.16.873-.158.304.021.581-.074.882-.165.336-.1.69-.19,1.076-.187.265.016.513-.069.787-.152.32-.098.677-.209,1.073-.176.347-.215.725-.233,1.062-.249.243-.012.473-.023.656-.107.298-.136.576-.169.846-.201.091-.01.183-.021.275-.037.153-.025.303-.072.454-.117.242-.073.492-.149.763-.159.332-.012.659-.093,1.006-.178.479-.118.971-.241,1.511-.183.5-.291,1.054-.3,1.58-.261.261.02.498-.056.757-.134.215-.065.439-.133.684-.155.182-.015.375-.009.567.002.278.014.54.025.731-.053.557-.226,1.099-.249,1.624-.27l.289-.013c.048-.002.095,0,.144.002.849-.389,1.649-.266,2.435-.308.111-.007.229-.006.345-.002.235.006.457.009.603-.061.442-.212.86-.215,1.264-.216,1.307-.006,2.544-.004,3.716-.005h1.115s.699-.296.699-.296h5.225c.069,0,.143-.007.216-.015.228-.022.486-.045.707.082.404.232.85.215,1.325.204.224-.007.446-.014.668.003.176.011.36.002.543-.01.367-.023.747-.047,1.095.097.481.198.98.205,1.508.212.337.005.686.01,1.043.066l.103.036c.038.021.077.047.119.074.065.044.134.088.188.103.169.047.352.056.546.065.311.015.662.032,1.015.208.156.078.357.107.569.136.255.036.541.077.81.214.397-.036.732.09,1.036.203.199.074.387.144.575.167.329.04.633.161.927.278.277.11.538.214.793.241.387.04.738.145,1.078.247.194.058.387.116.584.16.415.093.819.186,1.201.317.166.056.336.108.507.159.733.22,1.491.449,2.054,1.128.08.097.216.181.375.278.092.057.189.117.287.185l.31.217-.694.662c-.322.306-.634.603-.943.902-.182.176-.362.354-.541.533-.222.22-.445.441-.671.656-.14.135-.262.285-.386.435-.261.319-.532.648-.954.871-.127.068-.27.249-.294.373-.111.562-.378,1.03-.635,1.482-.118.207-.236.413-.337.627l-.062.129c-.098.205-.201.416-.213.597-.028.429-.128.829-.224,1.216l-.073.299c-.072.307-.049.655-.031.935.006.099.012.19.014.27.044.164.08.312.112.446.064.265.113.473.197.646.109.224.261.435.421.658.075.104.149.208.22.314.997,1.487,1.022,1.508,2.687,2.34.023.012.072.023.123.035l.077.019h2.318c.136-.055.269-.106.398-.155.295-.112.575-.219.822-.354.956-.527,1.722-1.334,2.462-2.114l.226-.238c.161-.169.274-.412.395-.688.241-.549.347-1.132.461-1.748.067-.366.135-.731.23-1.09.031-.117.01-.274-.028-.333-.214-.32-.224-.642-.232-.927-.002-.081-.005-.161-.013-.242-.009-.086-.011-.176-.014-.266-.004-.151-.008-.293-.049-.389-.237-.543-.42-1.109-.598-1.657-.284-.876-.552-1.704-1.025-2.463-.114-.183-.15-.385-.186-.579-.013-.075-.027-.153-.046-.228l-.053-.209,1.341-.926c1.905-1.311,3.956-2.441,5.94-3.535l.494-.272c.967-.533,2.001-.96,3.001-1.371.789-.324,1.574-.588,2.401-.81.161-.043.321-.09.482-.138.63-.186,1.29-.376,1.994-.352.092-.02.21-.063.338-.128.091-.046.187-.093.287-.133l.115-.022h1.514c.068-.019.146.004.222.011.075.007.201.019.238.004.589-.358,1.22-.325,1.775-.295.119.006.236.012.354.015.289.006.579-.002.869-.008.843-.025,1.717-.044,2.593.261.167.059.393.044.634.03.303-.02.619-.039.913.08.35.14.701.172,1.073.206.116.01.232.021.349.035.154.018.295.067.42.11.108.037.211.073.299.082.49.044.966.147,1.426.245.231.049.461.098.693.14.144.027.291.031.439.038.345.015.73.031,1.088.266.341.008.663.079.975.149.259.057.504.111.743.126.494.029.943.154,1.379.274.154.044.308.086.462.123.314.077.634.126.955.176.583.091,1.186.186,1.755.434.354.155.736.235,1.14.32.525.11,1.067.224,1.566.513.6.023,1.135.22,1.653.41.226.084.451.167.682.234.496.145.994.278,1.494.412l.836.226c.261.071.516.165.77.259.5.185.957.355,1.482.352l.129-.002.092.09c.151.147.352.169.667.193.286.022.633.048.929.263.357-.032.665.082.941.186.211.078.416.129.601.151.395-.005.757.094,1.108.193.384.108.747.211,1.114.153l.139-.021.108.09c.307.261.724.249,1.088.202.358-.05.636.071.885.174.176.073.367.138.483.133.596.002,1.162.077,1.753.265.308.098.669.086,1.052.073.19-.008.382-.012.567-.006.165.003.337.006.478.116.227.177.504.171.831.161.114-.002.227-.006.336-.002.397.014.793.009,1.171.008l.552-.003.513.289h4.695c.071,0,.146.006.222.012.079.009.211.02.248.002.658-.354,1.361-.32,1.978-.295l.297.012c.432.016.823-.08,1.253-.18.506-.116,1.032-.238,1.592-.181.292-.245.642-.259.927-.27.298-.012.472-.027.598-.173l.09-.104.137-.003c.337-.007.664-.11,1.01-.218.235-.074.471-.147.713-.195.4-.078.799-.216,1.22-.363.207-.072.414-.144.622-.209.288-.09.566-.214.86-.345.312-.139.634-.283.973-.385.475-.143.918-.338,1.387-.545l.408-.178c.253-.109.508-.215.763-.32.351-.145.701-.291,1.048-.444.809-.358,1.592-.813,2.349-1.253l.165-.096c2.683-1.558,4.7-3.017,6.348-4.592.882-.845,1.749-1.705,2.616-2.564l1.17-1.155c.166-.159.324-.309.447-.475.46-.621.926-1.237,1.392-1.854,1.123-1.487,2.286-3.023,3.337-4.594,1.25-1.869,2.282-3.589,3.156-5.258.538-1.03,1.031-2.068,1.466-3.086l.396-.917c.284-.653.569-1.307.83-1.964.086-.215.175-.432.264-.648.193-.466.387-.936.551-1.416l.341-.999c.446-1.309.893-2.619,1.357-3.924.103-.289.195-.587.287-.883.069-.224.139-.449.212-.669.058-.173.128-.348.2-.522.137-.337.266-.655.295-.954.027-.288.125-.533.219-.772.108-.274.202-.51.175-.768-.029-.282.082-.516.178-.721.077-.161.144-.301.139-.446-.01-.32.092-.618.19-.907.037-.111.075-.22.104-.329.031-.112.056-.227.082-.341.063-.285.128-.579.266-.856.132-.269.19-.569.251-.886.064-.337.131-.684.292-1.018-.048-.347.089-.636.202-.873.069-.146.135-.284.151-.414.048-.4.138-.995.373-1.529.129-.294.251-.571.241-.869-.008-.234.066-.435.132-.613.039-.105.075-.204.08-.276.027-.4.133-.767.236-1.122.093-.319.18-.621.21-.934.028-.302.091-.595.152-.878.092-.429.179-.835.139-1.22l-.01-.103.275-.458c-.01-.59.097-1.161.201-1.713.124-.659.241-1.282.169-1.918-.006-.051-.018-.234.101-.376.198-.24.186-.535.174-.878-.006-.136-.01-.274-.004-.408.024-.469.025-.939.026-1.408v-.408c.004-.659.005-1.32,0-1.981-.002-.197-.01-.395-.018-.592-.018-.415-.036-.844.01-1.271.037-.348-.048-.684-.139-1.04-.067-.262-.136-.533-.158-.821-.026-.337-.027-.674-.027-1.011-.002-.715-.002-1.39-.243-2.051-.16-.441-.114-.943-.073-1.386l.01-.111c.015-.179-.056-.354-.14-.555-.107-.261-.23-.556-.178-.92.073-.511-.095-1.013-.273-1.544-.057-.17-.115-.341-.163-.51-.2-.694-.454-1.395-.701-2.072-.122-.335-.244-.67-.36-1.005-.111-.321-.244-.636-.377-.951-.308-.728-.625-1.48-.688-2.321-.349-.721-.654-1.468-.949-2.191-.345-.844-.701-1.717-1.124-2.538-1.52-2.947-3.076-5.962-4.958-8.725-.163-.239-.32-.483-.475-.728-.419-.654-.814-1.272-1.337-1.803-.662-.671-1.198-1.359-1.638-2.106l-.094-.16.097-.158c.119-.197.241-.392.364-.588.268-.429.546-.873.785-1.322.313-.587.612-1.181.91-1.776.286-.57.571-1.139.87-1.702,2.148-4.041,3.504-7.242,4.397-10.378.499-1.754.945-3.518,1.353-5.164.043-.171.097-.341.151-.513.139-.434.27-.845.194-1.266l-.027-.147.098-.112c.167-.19.184-.411.198-.755.006-.129.011-.258.028-.385.033-.241.087-.479.141-.717.056-.245.112-.488.14-.736l.036-.345c.048-.479.097-.973.243-1.478.11-.379.096-.805.082-1.257-.007-.214-.014-.429-.008-.639.003-.157.006-.329.115-.471.186-.245.174-.536.162-.873-.006-.145-.01-.29-.002-.432.025-.424.031-.848.036-1.273l.011-.649.065-.082c.236-.295.22-.643.202-1.048-.008-.184-.016-.368-.002-.549.016-.211.004-.429-.007-.646-.022-.419-.044-.851.105-1.255.186-.504.194-1.01.203-1.546.003-.201.006-.401.019-.603.03-.486.056-1.061.015-1.636-.024-.332.073-.62.16-.873.07-.207.137-.404.135-.607-.028-2.831-.027-5.663-.024-8.494l.004-3.423c.004-.15.01-.336-.036-.412-.235-.388-.229-.776-.225-1.117v-.218c-.011-.522-.015-1.046-.019-1.569l-.007-.874c-.002-.176.007-.355.017-.535.021-.38.04-.74-.059-1.038-.179-.536-.212-1.056-.245-1.558l-.019-.294c-.019-.261-.02-.522-.021-.784,0-.579-.002-1.127-.215-1.666-.229-.584-.138-1.295-.072-1.816.038-.293-.048-.576-.14-.876-.081-.263-.165-.536-.175-.841-.006-.179-.006-.359-.006-.538,0-.607,0-1.18-.236-1.736-.191-.45-.142-.977-.069-1.522.026-.187-.046-.362-.129-.566-.082-.201-.175-.428-.18-.695l-.003-.269c-.006-.646-.012-1.257-.241-1.859-.198-.523-.131-1.126-.072-1.657.027-.241-.051-.466-.141-.727-.086-.252-.185-.537-.18-.856.008-.492.015-.934-.148-1.379-.145-.398-.153-.823-.159-1.234-.002-.165-.005-.331-.018-.493l-.002-.023.002-.034c-.299-.429-.31-.912-.284-1.292.019-.265-.064-.521-.152-.793-.045-.14-.09-.28-.123-.423-.052-.22-.056-.441-.06-.654-.005-.238-.009-.463-.083-.631-.149-.339-.166-.667-.182-.958-.008-.149-.015-.296-.043-.444-.08-.43-.186-.857-.295-1.282-.027-.107-.069-.214-.109-.32-.087-.231-.186-.492-.172-.768.015-.302-.077-.597-.176-.91-.101-.32-.205-.65-.204-1.015-.246-.284-.261-.626-.274-.907-.012-.263-.025-.43-.143-.55l-.082-.083-.006-.118c-.014-.255-.092-.508-.174-.776-.078-.255-.16-.52-.187-.8-.019-.187-.09-.375-.167-.575-.11-.287-.233-.609-.203-.977-.215-.333-.229-.697-.243-1.022-.01-.252-.019-.469-.114-.629-.168-.282-.189-.579-.207-.842-.023-.316-.044-.503-.212-.649l-.139-.119.039-.18c.058-.274-.04-.535-.153-.838-.098-.261-.199-.531-.211-.842-.005-.14-.062-.298-.123-.466-.059-.162-.117-.325-.145-.492-.017-.103-.031-.205-.045-.307-.039-.278-.075-.54-.178-.8-.195-.492-.295-1.038-.366-1.505-.031-.208-.087-.415-.141-.62-.087-.331-.178-.673-.182-1.026-.005-.407-.098-.804-.195-1.225-.133-.573-.271-1.166-.181-1.804.006-.04.015-.107.011-.132-.264-.337-.265-.767-.266-1.146,0-.23,0-.447-.069-.618-.224-.556-.249-1.096-.272-1.617-.006-.134-.012-.268-.022-.403-.003-.047,0-.098.002-.149-.314-.472-.304-.994-.296-1.453.003-.156.006-.311-.006-.464-.01-.123-.002-.254.007-.384.01-.158.022-.322-.02-.402-.267-.517-.279-1.029-.291-1.523-.003-.126-.006-.251-.013-.376-.004-.057-.002-.119.002-.182.002-.045.006-.114,0-.136-.261-.359-.261-.779-.261-1.149,0-.236,0-.458-.077-.628-.214-.471-.239-.928-.263-1.37-.01-.193-.021-.386-.049-.579l-.31-.517v-2.176c-.339-.554-.313-1.152-.29-1.681.007-.159.015-.317.011-.474-.033-1.715-.058-3.391-.006-5.049.015-.484.01-.969.006-1.453-.012-1.169-.024-2.378.257-3.585.13-.559.107-1.157.082-1.789-.011-.296-.023-.592-.019-.884,0-.066-.006-.139-.013-.211-.02-.227-.043-.484.096-.703.235-.37.222-.768.207-1.228-.007-.233-.015-.475.012-.72.013-.111.008-.228.004-.345-.008-.262-.018-.559.125-.814.198-.355.195-.719.171-1.158-.018-.304.09-.552.186-.77.085-.194.152-.347.129-.509-.069-.498.058-.949.181-1.385.111-.392.215-.764.165-1.135l-.02-.145.1-.107c.149-.161.16-.362.165-.675.005-.274.01-.584.187-.86.108-.17.126-.36.146-.58.02-.213.043-.454.158-.695.221-.458.426-.885.437-1.274.008-.303.117-.55.212-.77.082-.187.153-.349.152-.516-.005-.543.408-.818.629-.966l.078-.052h.094c.044,0,.09-.006.136-.011.163-.021.369-.044.533.095.165.139.386.158.64.18.241.021.514.044.768.183.313.174.651.161,1.043.147.166-.006.333-.012.496-.005.576.027,1.155.021,1.734.016l.587-.004c.153,0,.306-.008.459-.015.318-.015.648-.031.98.011.218.026.423-.048.66-.136.233-.086.521-.179.796-.177.302-.016.579-.086.882-.182.22-.071.446-.144.691-.185.26-.043.52-.167.796-.299.274-.131.558-.266.877-.342.328-.077.658-.279.977-.475.798-.489,1.537-1.052,2.285-1.737,1.08-.991,1.939-2.203,2.625-3.707.184-.403.293-.822.408-1.266.11-.42.223-.856.407-1.278.077-.18.064-.436.048-.706-.007-.128-.014-.257-.012-.381ZM183.855,19.235c.07-.076.13-.149.186-.218.129-.158.252-.308.429-.41.659-.379,1.265-.866,1.85-1.338.498-.401,1.012-.815,1.567-1.172.157-.1.298-.245.446-.398.062-.064.123-.127.187-.188.194-.186.39-.371.586-.556.466-.438.948-.892,1.387-1.363,1.155-1.239,2.463-2.341,3.729-3.406.363-.306.726-.612,1.086-.921,1.918-1.649,3.994-3.167,6.17-4.512l.082-.051c1.043-.645,2.121-1.312,3.308-1.769.295-.114.589-.232.883-.35.869-.349,1.768-.711,2.701-.944.161-.04.321-.083.482-.127.68-.184,1.383-.378,2.154-.33.507.03,1.028.022,1.532.015.517-.007,1.049-.015,1.576.016,1.82.107,3.295.791,4.382,2.034.484.554.726,1.081.762,1.657.008.139.05.297.123.473.207.487.214.959.023,1.404-.019.045-.044.091-.068.138-.023.045-.06.115-.063.141.059.736-.238,1.344-.525,1.931-.055.111-.109.223-.161.336-.904,1.959-2.137,3.62-3.666,4.937-.776.668-1.7,1.424-2.827,1.928-.293.132-.58.277-.868.421-.639.323-1.3.656-2.032.844-.283.215-.617.236-.888.254-.291.019-.475.039-.608.179l-.101.108-.148-.01c-.304-.023-.626.066-.958.161-.416.119-.841.241-1.327.165-.158-.024-.308.041-.497.124-.23.101-.487.22-.821.178-.374-.041-.886-.1-1.249.029-.871.312-1.745.296-2.589.282-.187-.002-.377-.012-.563-.006-.215,0-.425.07-.648.144-.302.101-.646.214-1.037.162-.312-.04-.637-.025-.98-.011-.178.008-.356.016-.533.016-.864.002-1.73.002-2.629.002h-1.132s-.655.312-.655.312h-1.388c-1.276-.002-2.6-.003-3.925.003l-.299-.002c-.547-.01-1.057-.013-1.522.225-.078.04-.157.053-.236.053-.09,0-.181-.018-.27-.036-.066-.013-.141-.028-.227-.037l-.613-.067.42-.452Zm-7.922.846c-.093.034-.189.068-.305.068l-2.153.002c-3.589,0-7.18.004-10.767-.014-.195,0-.381.006-.572.014-.188.007-.377.015-.567.015-.523,0-1.055-.055-1.583-.314-.056-.03-.197-.018-.31-.01-.119.009-.239.016-.352.005-.185-.017-.372-.013-.559-.01-.48.005-1.027.019-1.542-.31-.031-.011-.158-.002-.233.003-.076.006-.153.005-.218.009-.444-.005-.87-.098-1.282-.187-.533-.116-1.038-.228-1.554-.146l-.115.018-.098-.063c-.36-.229-.782-.234-1.228-.239-.196-.002-.392-.005-.584-.024l-.124-.04c-.053-.03-.105-.067-.157-.104-.04-.03-.102-.074-.126-.082-.876-.048-1.684-.343-2.467-.629-.4-.147-.814-.298-1.225-.409-.68-.185-1.3-.546-1.9-.896-.162-.094-.324-.189-.486-.278-1.776-.989-3.354-2.267-4.692-3.798-.312-.357-.548-.775-.776-1.178-.103-.184-.209-.37-.323-.555l-.047-.075v-1.855l.045-.074c.093-.153.184-.312.277-.473.225-.392.458-.797.743-1.177.369-.493.854-.906,1.482-1.26.995-.563,2.193-1.187,3.525-1.548.078-.074.191-.153.35-.162.435.01.864-.083,1.314-.182.503-.11,1.023-.228,1.58-.193,1.057.056,2.218.056,3.549-.003.61-.025,1.193.083,1.754.189.29.054.579.109.872.144.608.072,1.153.289,1.68.499.226.09.452.181.683.258.625.211,1.217.49,1.79.76.245.115.49.231.738.341.758.337,1.466.764,2.153,1.177l.141.086c.797.479,1.571,1.01,2.32,1.523.769.528,1.565,1.073,2.378,1.557.239.142.433.33.621.512.079.076.158.153.241.224.304.266.603.538.902.811.668.608,1.358,1.236,2.09,1.773.885.649,1.74,1.416,2.772,2.489.779.81,1.513,1.68,2.224,2.521.161.19.246.395.328.593.032.077.065.155.101.229l.161.331-.468.141ZM30.589,34.746c-.223.015-.428.025-.622.025-.432,0-.808-.048-1.207-.186-.308-.107-.638-.159-.989-.214-.299-.047-.609-.096-.916-.182-1.111-.311-4.832-1.384-6.05-2.176-.27-.175-.544-.341-.818-.508-.718-.437-1.462-.888-2.106-1.486-.159-.147-.339-.274-.518-.4-.233-.165-.475-.336-.683-.551-.831-.86-1.686-1.793-2.689-2.936-.199-.226-.325-.492-.448-.747l-.111-.226c-.288-.561-.572-1.123-.86-1.693l-.406-.877v-1.362l.126-.195c.057-.085.128-.185.174-.295.46-1.079,1.136-2.033,2.065-2.919.973-.927,2.224-1.621,3.936-2.185.346-.114.836-.146,1.15.038.261.155.541.164.864.174.18.006.359.012.538.041l.097.032c1.445.771,2.567,1.541,3.341,2.797.134.218.317.412.511.619.262.28.533.569.722.952.213.435.437.866.659,1.296.619,1.196,1.259,2.433,1.689,3.754.112.344.221.689.33,1.034.317,1.002.646,2.04,1.037,3.026.093.233.119.466.146.691.041.353.076.579.261.76l.109.107-.017.151c-.024.208.061.409.159.642.091.215.195.459.217.742.03.376.175.755.343,1.194.08.21.164.429.24.659l.124.379-.398.027Zm-13.247,346.172c-1.172,1.188-2.632,1.785-4.177,2.418-.4.164-.804.329-1.209.508l-.065.029-.071-.002c-.293-.01-.587-.012-.88-.015-.688-.006-1.401-.013-2.097-.111-.761-.108-1.511-.438-2.078-.714-.779-.379-1.464-.952-2.291-1.915l-.048-.078-.994-2.361.01-2.996c.261-1.017.709-1.953,1.366-2.861.223-.307.494-.559.756-.801.106-.098.21-.195.306-.291l.09-.091,1.839.013c1.248.368,2.731.866,4.269,1.762,1.72,1.483,3.193,3.349,4.305,5.432.204.383.433.754.671,1.14.112.182.227.368.341.56l.123.206-.169.171Zm77.44,117.04l-.187.097-.159-.138c-1.663-1.45-2.981-3.165-4.027-5.243l-.029-.09c-.028-.171-.03-.347-.031-.522-.002-.359-.012-.59-.186-.791l-.054-.063-.015-.082c-.19-.985.063-1.956.793-3.054.362-.543.905-1.074,1.615-1.579.613-.436,1.398-.768,2.334-.986.479-.113.986-.086,1.477-.061.213.011.429.023.647.023l.123.026c.199.086.407.159.618.232.617.216,1.318.462,1.849,1.065.139.157.287.308.436.458.479.486.975.989,1.245,1.768l.017.102-.027.985c-.734,1.65-1.558,3.379-2.847,4.804-1.065,1.176-2.14,2.294-3.593,3.049Zm146.355,5.568c.01.098.06.212.111.333l.859,2.159-.712,1.723.232.178-1.927,1.781-1.41.441h-1.382l-.079-.053c-.175-.119-.387-.21-.61-.307-.414-.18-.885-.384-1.234-.821l-.068-.085v-.109c0-.105-.01-.212-.019-.319-.024-.282-.049-.572.06-.849.15-.379.221-.779.297-1.202.09-.505.185-1.027.422-1.53.412-.872.815-1.542,1.266-2.107.445-.559.96-1.061,1.506-1.595.248-.242.504-.493.768-.762l.287-.292.203.355c.135.234.273.457.408.675.473.761.919,1.481,1.022,2.385Zm102.711-261.965c-.272.529-.503,1.014-.581,1.582-.044.32-.168.613-.288.897-.115.273-.224.53-.249.78-.027.291-.121.55-.212.801-.114.316-.212.588-.167.876l.019.121-.069.101c-.238.353-.243.768-.248,1.209-.002.186-.005.373-.023.556l-.043.13-.214.358c.067.621-.056,1.227-.175,1.813-.103.512-.202.995-.184,1.49l.003.107-.062.086c-.224.308-.235.674-.246,1.098-.012.424-.025.904-.288,1.348-.062.106-.043.338-.026.543.01.12.019.241.019.355-.003.439-.002.878-.002,1.286v.54s-.295.51-.295.51v1.517c0,3.205,0,6.431.003,9.657v.091c-.002.103-.005.275.027.323.232.348.246.705.258,1.019l.007.157c.017.28.018.56.019.84,0,.666.002,1.295.224,1.916.136.384.114.793.092,1.188-.01.19-.022.382-.012.567.006.115.008.229.009.344.004.37.007.691.172,1.012.145.284.131.612.118.902-.006.137-.014.276,0,.407.026.249.019.502.01.755-.015.483-.029.938.22,1.345.14.231.105.516.077.745-.064.548.044,1.035.158,1.55.108.488.22.993.19,1.525.276.471.28.976.284,1.425.002.132.002.265.01.395.004.06,0,.126-.003.193-.002.042-.006.106-.002.128.295.314.301.752.305,1.104.002.249.006.464.1.642.142.266.171.569.197.836.01.108.015.219.019.328.011.328.02.588.206.801l.102.115-.031.151c-.048.229.037.455.136.717.093.249.199.529.183.84-.013.254.073.496.163.753.07.201.144.408.178.638.098.659.276,1.322.449,1.963.094.349.188.698.271,1.05.104.444.222.885.34,1.328.174.649.352,1.32.487,1.996.036.18.089.354.142.529.092.301.187.613.208.964.027.421.168.889.387,1.282.144.258.159.526.172.764.016.284.032.451.18.579l.12.104-.015.159c-.028.299.072.596.178.912.118.353.241.718.211,1.136-.003.042.036.136.066.211.036.086.069.174.09.262.042.174.089.346.136.52.123.457.251.93.283,1.416.018.253.092.502.171.765.111.368.224.749.197,1.188-.015.242.056.508.132.789.054.201.107.403.136.605.017.12.027.241.038.36.027.315.05.587.194.854.157.293.135.642.115.952-.006.086-.011.17-.012.252-.003.183.066.37.14.568.097.263.207.561.175.914-.039.427-.056.876.203,1.27.137.208.119.453.104.668-.006.078-.013.157-.007.23.009.12.009.242.008.364-.002.306-.003.571.165.793.123.162.121.358.119.514l.015.451c.023.621.044,1.208.253,1.788.111.308.103.618.093.918-.009.303-.018.588.105.835.237.477.21.98.186,1.423-.006.122-.014.244-.015.363-.002.237.074.472.155.721.102.312.217.667.179,1.07-.053.56-.097,1.019.178,1.423.14.206.125.45.112.665-.005.078-.01.157-.004.229.019.213.015.429.012.645-.007.466-.014.906.227,1.291.087.138.075.292.067.395,0,.215.006.368.014.52.017.36.034.731,0,1.103-.02.225.052.45.129.687.075.23.152.468.159.738.012.466.018.934.023,1.401.005.499.01.998.025,1.496.003.103,0,.207-.002.312-.007.323-.014.602.152.859.146.227.132.5.12.74-.002.058-.006.115-.006.17l.002,3.68c0,2.892,0,5.783.015,8.675.002.359-.076.683-.151.995-.041.171-.083.341-.108.515-.056.381-.052.77-.048,1.182.002.256.005.513-.006.768-.006.109-.005.219-.004.328.003.399.006.851-.265,1.297-.044.073-.036.247-.03.4.005.123.009.247-.002.363-.016.176-.011.354-.007.533.01.457.02.97-.278,1.45l-.034,1.872-.31.611v.274c.004.321.006.69-.005,1.058-.002.073-.002.145,0,.218.002.353.006.751-.273,1.129-.01.018-.025.103-.01.21.083.598-.048,1.151-.176,1.685-.108.454-.211.885-.18,1.32.019.265-.082.486-.169.681-.076.168-.141.313-.127.462.051.52-.012.947-.199,1.344-.047.101-.047.272-.047.437,0,.253,0,.538-.158.773-.153.225-.164.481-.176.777-.013.297-.027.634-.207.95-.094.167-.119.377-.144.599-.035.292-.073.62-.277.918-.006.326-.084.626-.16.918-.056.216-.11.42-.128.618-.03.324-.128.607-.223.882-.084.245-.164.476-.189.718-.036.341-.162.667-.284.982-.079.203-.159.407-.207.608-.15.627-.358,1.236-.559,1.825-.148.435-.296.868-.421,1.309-.152.535-.361,1.047-.563,1.542-.214.521-.415,1.013-.556,1.533-.144.531-.382,1.018-.611,1.489-.189.387-.367.754-.497,1.141-.283.843-.721,1.61-1.144,2.353l-.071.125c-.136.238-.275.474-.415.71-.36.611-.733,1.242-1.031,1.891-.063.134-.17.207-.266.27-.031.02-.064.043-.098.069l-.189.151-.65-.492c-.354-.267-.713-.537-1.062-.816-.596-.477-1.276-.794-1.996-1.131-.299-.139-.597-.278-.889-.429-.822-.425-1.515-.728-2.178-.956-.164-.056-.341-.067-.53-.078-.224-.013-.457-.027-.687-.119-.734-.291-1.493-.277-2.293-.256-.215.006-.428.015-.644.009-.787.025-1.52.358-2.124.711-.4.234-.784.546-1.155.847l-.153.123c-1.035.835-1.708,1.989-2.057,3.528-.032.145-.077.289-.121.433-.072.234-.14.455-.149.665-.029.635-.023,1.274-.018,1.952l.005.815.911,2.199.311.308c.305.3.623.613.918.946.123.139.295.216.493.306.136.061.274.124.408.211.374.003.722.096,1.055.195.321.096.631.182.936.169.628-.036,1.257-.027,1.864-.02.24.003.478.006.713.007l.589-.198c1.01-.338,1.997-.668,2.983-1.002l.2-.065c.217-.069.421-.135.595-.232,1.409-.805,3.217-1.929,4.691-3.487.203-.214.349-.471.504-.744.169-.298.345-.606.609-.889l.149-.158.199.086c.034.015.07.027.107.039.11.037.247.083.362.184,1.035.897,1.735,2.041,2.412,3.147l.109.178c1.444,2.353,2.659,4.744,3.656,6.773,1.02,2.074,1.887,4.228,2.578,6.403.203.638.445,1.278.678,1.898.236.624.471,1.248.675,1.884.057.179.123.356.188.533.197.534.401,1.087.399,1.716,0,.108.056.228.123.367.104.22.234.494.173.837-.049.277.015.534.19.766.119.157.109.345.102.483-.002.04-.006.082-.002.119.021.216.021.433.021.651,0,.466,0,.906.228,1.299.104.181.09.38.077.54-.005.062-.011.125-.005.183.023.192.023.386.024.579.002.4.002.745.198,1.077.154.261.132.576.112.854-.008.114-.018.228-.011.336.007.11.008.22.008.329.002.32.003.596.167.848.148.227.134.501.123.743-.003.057-.006.113-.006.167.004,1.627.004,3.255-.003,4.883l.002.167c.008.312.019.7-.261,1.047.002,0-.007.031-.01.102-.007.186,0,.375.009.565.019.45.038.917-.122,1.348-.132.358-.162.713-.194,1.09-.013.155-.026.311-.046.467-.044.337-.119.67-.195,1.002-.092.404-.179.784-.207,1.177l-.007.105-.071.079c-.101.113-.108.25-.113.482-.002.131-.006.261-.031.388-.029.149-.084.299-.14.447-.066.174-.128.338-.116.461.053.542-.099,1.012-.248,1.466-.059.18-.118.358-.16.539-.039.164-.066.332-.094.501-.077.468-.157.951-.445,1.391-.096.751-.302,1.479-.502,2.182-.194.683-.394,1.389-.483,2.094l-.052.137c-.147.213-.187.486-.23.774-.046.311-.098.659-.295.977.008.474-.131.901-.266,1.314-.075.229-.151.458-.196.693-.094.488-.27.964-.439,1.425-.056.152-.111.303-.164.454-.124.356-.241.713-.359,1.069l-.253.762c-.232.683-.477,1.36-.722,2.038-.355.984-.722,2.001-1.04,3.011-.088.282-.216.54-.341.789-.182.366-.354.712-.38,1.09l-.03.113c-.245.507-.484,1.017-.724,1.526-.539,1.148-1.097,2.337-1.713,3.474-1.04,1.921-2.245,3.717-3.391,5.373-.761,1.098-1.563,2.194-2.337,3.253-.401.548-.802,1.097-1.2,1.647-.662.917-1.426,1.734-2.019,2.345-1.278,1.317-2.351,2.408-3.541,3.465-1.868,1.659-3.955,3.173-6.203,4.504-1.038.614-2.129,1.154-3.185,1.676l-.746.37c-1.435.718-2.966,1.247-4.447,1.759l-.527.182c-.542.188-1.094.351-1.646.514-.274.081-.55.161-.823.246-.051.015-.1.036-.149.056-.099.041-.199.081-.303.103-.142.03-.285.064-.428.098-.408.098-.83.199-1.264.214-.217.008-.429.079-.654.155-.298.1-.637.211-1.025.183-.512-.043-.932-.052-1.312.187-.221.137-.488.118-.725.098-.07-.006-.14-.011-.206-.011-2.127.002-4.256.003-6.386-.002h-.118c-.387.009-.813.004-1.238-.249-.057-.035-.212-.029-.336-.027-.101.002-.199.002-.291-.004-.16-.015-.323-.01-.483-.01-.463.003-.984.011-1.469-.314.009.01-.061.015-.107.019-.067.005-.136.009-.196.006l-.105-.005c-.581-.024-1.182-.05-1.798-.278-.178-.065-.397-.067-.63-.069-.356-.002-.755-.006-1.127-.232-.479.044-.918-.076-1.343-.195-.296-.083-.576-.161-.86-.18-.67-.041-1.316-.19-1.867-.43-.341-.148-.703-.226-1.087-.308-.445-.095-.903-.194-1.338-.409-.724-.055-1.387-.294-2.028-.525-.539-.195-1.048-.378-1.587-.458l-.127-.049c-.472-.317-1.025-.436-1.61-.563-.304-.065-.608-.132-.902-.224-.234-.074-.466-.161-.7-.247-.607-.227-1.18-.44-1.799-.44h-.107s-.065-.029-.065-.029c-.685-.318-1.41-.483-2.178-.659-.516-.118-1.048-.24-1.565-.412-.188-.062-.403-.074-.63-.086-.36-.019-.764-.04-1.132-.282-.444.027-.839-.082-1.226-.191-.325-.091-.634-.162-.948-.174-.276.003-.553-.078-.81-.158-.141-.044-.282-.088-.425-.114-.101-.018-.203-.027-.303-.036-.249-.023-.53-.05-.822-.188-.228-.109-.5-.134-.789-.161-.316-.029-.644-.06-.978-.197-.174-.071-.398-.073-.634-.074-.358-.002-.759-.004-1.131-.237l-.465-.009c-.441-.007-.882-.015-1.321-.039-.124-.005-.247-.002-.372.003-.383.014-.812.031-1.211-.235-.161-.002-.324-.011-.487-.02-.425-.024-.822-.046-1.161.059-.459.144-.891.163-1.308.181l-.281.013c-.225.013-.457.003-.688-.006-.395-.016-.772-.032-1.076.078-.342.125-.691.139-.998.151-.289.011-.563.022-.77.124-.399.195-.793.241-1.175.286-.278.033-.541.064-.789.151-1.263.446-2.399.852-3.523,1.322-2.457,1.027-4.709,2.503-6.886,3.931-.398.261-.797.522-1.196.78-.35.227-.662.536-.991.864-.163.161-.329.327-.506.488l-.143.132-.181-.072c-.07-.028-.147-.052-.224-.076-.211-.065-.449-.14-.645-.298-.584-.471-1.258-.906-2.121-1.37-.428-.23-.836-.498-1.231-.758-.237-.156-.475-.312-.716-.459-.025-.015-.095-.028-.152-.039-.076-.015-.153-.03-.224-.054-.251-.086-.503-.174-.754-.261-.319-.112-.638-.224-.958-.331l-.337-.113c-.496-.166-1.009-.339-1.517-.47-.215-.056-.441-.085-.665-.115-.394-.053-.801-.107-1.169-.287-.238-.115-.5-.159-.776-.205-.324-.054-.658-.11-.99-.282-.18-.094-.408-.109-.671-.126-.292-.019-.623-.041-.949-.186-.172-.076-.42-.064-.687-.052-.26.012-.529.027-.795-.04l-.267-.067c-.391-.1-.769-.209-1.147-.184-.68.015-1.37,0-2.035-.018l-.373-.006c-.36,0-.747.002-1.14-.232-.073-.045-.259-.036-.412-.031l-.186.005c-1.675-.004-3.35-.005-5.008-.002h-1.563l-.443.246-.145.036c-.219,0-.443-.002-.671-.006-.518-.005-1.056-.012-1.591.013-.229.01-.461.005-.691,0-.572-.014-1.115-.027-1.617.226-.207.103-.429.088-.628.074-.085-.005-.17-.012-.252-.006-.212.021-.425.022-.642.015-.426-.004-.834-.012-1.203.203-.232.136-.505.117-.747.098-.104-.007-.207-.016-.303-.007-.155.011-.311.008-.466.006-.341-.01-.63-.016-.868.173-.144.114-.325.101-.374.096-.642-.069-1.278.043-1.95.163-.629.111-1.282.224-1.96.186l-.032.017c-.099.052-.223.118-.367.146-.233.045-.467.085-.701.124-.451.076-.918.154-1.362.275-.213.058-.419.062-.619.056-.249,0-.466-.002-.646.117-.266.176-.548.192-.798.206-.208.012-.388.023-.542.118-.281.174-.596.177-.875.18s-.52.006-.692.163l-.109.098-.145-.022c-.387-.059-.776.048-1.185.159-.324.09-.658.182-1.017.198-.19.008-.391.068-.603.13-.178.053-.358.105-.538.134-.12.019-.24.031-.359.043-.275.027-.513.05-.748.166-.271.133-.564.139-.822.144-.291.006-.541.01-.727.177l-.082.073-.11.006c-.462.022-.855.103-1.237.258-.181.073-.363.092-.54.111-.215.022-.4.04-.53.157l-.102.091-.136-.014c-.632-.063-1.229.141-1.855.356-.324.112-.659.227-1.005.305-.186.041-.372.08-.559.119-.772.161-1.569.326-2.268.691l-.111.034c-.672.07-1.31.269-1.984.478-.714.222-1.451.451-2.234.515-.482.278-1,.383-1.503.486-.275.055-.55.111-.814.196-.416.136-.844.228-1.257.316-.575.123-1.118.24-1.632.463l-.085.037-.092-.016c-.242-.042-.466.044-.729.144-.246.093-.524.197-.839.197-.015,0-.028,0-.043,0-.229,0-.462.077-.71.158-.222.073-.451.149-.705.182-.162.021-.324.069-.489.117-.22.064-.446.129-.697.153-.199.019-.404.079-.619.142-.175.052-.351.103-.529.136-.438.08-.868.194-1.299.307-.561.148-1.141.3-1.738.38-.257.187-.546.196-.782.204-.144.005-.281.009-.362.055-.348.197-.697.232-1.006.264-.096.01-.192.019-.288.034-.171.026-.339.076-.507.124-.218.063-.443.128-.682.154-.262.029-.518.098-.789.17-.32.086-.651.176-1.013.203-.205.015-.418.068-.643.123-.297.073-.603.149-.934.152-.347.21-.723.23-1.058.248-.249.014-.483.026-.669.115-.449.214-.905.216-1.298.213-.199,0-.409-.003-.613.03-.157.023-.303.077-.452.128-.276.097-.585.207-.958.17-.404-.04-.707-.023-.968.178-.158.123-.351.117-.503.107-.043-.002-.084-.006-.12-.002-.157.01-.316.011-.474.012-.431.002-.837.003-1.181.227-.123.083-.267.066-.344.057-.551-.056-1.078.049-1.638.161-.55.111-1.115.224-1.722.179-.182-.02-.364.052-.574.128-.268.098-.569.205-.932.161-.298-.04-.62-.028-.903-.019-.095.003-.187.006-.274.007l-.573.324-.632-.002c-.448-.002-.92-.005-1.392.006-.094.002-.187.002-.282,0-.346-.006-.643-.006-.918.164-.222.138-.488.124-.724.112-.066-.002-.131-.01-.193-.006-.377.006-.753.007-1.13.01-.711.005-1.423.009-2.135.034-.17.006-.351,0-.529-.006-.46-.013-.899-.031-1.296.198-.134.077-.281.098-.427.098-.095,0-.19-.009-.279-.018-.074-.007-.148-.015-.217-.015h-3.426s-.583-.275-.583-.275l-.542.003c-.515.006-1.071.01-1.626-.011-.169-.008-.339-.003-.511,0-.569.014-1.16.023-1.747-.295-.092-.052-.319-.026-.487-.008l-.105.01c-.554.052-1.08-.068-1.584-.182-.498-.113-.969-.22-1.45-.161l-.122.015-.098-.071c-.286-.206-.622-.212-1.012-.22-.161-.003-.323-.006-.482-.023-.249-.026-.479-.095-.701-.161-.256-.077-.499-.15-.751-.15h-.002c-.333,0-.646-.098-.948-.193-.103-.032-.205-.065-.307-.092-.481-.13-.984-.228-1.471-.323-.688-.134-1.398-.272-2.086-.505-.441-.149-.889-.278-1.337-.408-.66-.19-1.343-.387-1.995-.648-.782-.313-1.685-.694-2.503-1.263-.588-.408-1.211-.794-1.908-1.181-.367-.204-.684-.49-.963-.742-.115-.104-.228-.206-.341-.299l-.111-.091-.002-.143c-.013-.722.479-1.035.805-1.243.925-.593,1.644-1.32,2.406-2.089.257-.261.518-.524.789-.784.165-.451.441-.851.708-1.239.269-.39.546-.792.701-1.236l.086-.13c.384-.342.515-.82.653-1.326.093-.341.189-.694.367-1.025.066-.123.068-.357.02-.441-.269-.479-.288-.979-.307-1.462-.007-.201-.015-.408-.041-.623l-1.359-2.206c-.149-.073-.299-.142-.446-.211-.391-.183-.776-.364-1.144-.573-1.291-.735-2.528-.993-3.892-.805l-.52.207c-.538.206-1.121.429-1.709.64-.467.169-.952.376-1.329.751-.154.153-.311.303-.468.453-.178.169-.355.337-.527.511-.859.864-1.337,2.076-1.693,3.148-.354,1.07-.302,2.132-.247,3.256l.024.534c.019.499.283,1.042.479,1.408.2.373.381.755.564,1.146l.218.46,2.105,2.121v.914l-.174.085c-.439.215-.877.426-1.312.636-1.017.49-1.977.953-2.942,1.458-.723.379-1.494.62-2.24.853-.493.154-1.003.314-1.484.51-.274.111-.55.124-.819.136-.284.013-.553.026-.785.16-.225.13-.487.116-.718.103-.149-.009-.299-.016-.388.019-.37.147-.707.286-1.147.279-.358-.008-.715-.004-1.071.012l-.077.003c-.571.023-1.11.044-1.662.208-.488.145-1.015.109-1.479.077-.147-.01-.289-.02-.423-.023l-.575.323h-1.087c-.773,0-1.567-.002-2.362,0l-2.194.013c-1.606.013-3.213.024-4.818.009-.213.002-.405.006-.608.014-.749.028-1.522.056-2.27-.347-.086.018-.14.02-.186.016l-.203-.014c-.446-.029-.908-.059-1.393-.256-.215-.087-.5-.077-.806-.065-.22.008-.441.016-.651-.006-.219-.024-.42-.087-.616-.149-.14-.044-.282-.09-.425-.114-.095-.017-.191-.019-.287-.023-.268-.009-.602-.02-.897-.266-.107-.002-.263-.005-.418-.007-.32-.006-.641-.011-.956-.049-.205-.024-.406-.078-.606-.133-.197-.053-.383-.104-.563-.119-.381-.032-.765-.036-1.148-.039-.235-.002-.47-.004-.703-.012-.126-.006-.22-.056-.29-.094-.796-.194-1.529-.429-2.239-.655-.339-.108-.678-.216-1.019-.318-.821-.245-1.629-.547-2.411-.839-.529-.199-1.059-.396-1.594-.578-1.257-.426-2.462-1.091-3.474-1.686-1.511-.887-2.822-1.713-4.009-2.525-.293-.2-.55-.436-.8-.663-.382-.349-.743-.679-1.202-.864l-.095-.06c-.712-.659-1.437-1.305-2.161-1.952-1.701-1.517-3.458-3.085-5.03-4.798-.938-1.024-1.799-2.131-2.517-3.079-.929-1.227-1.701-2.322-2.36-3.349-.993-1.546-2.026-3.222-2.854-4.993-.174-.374-.354-.746-.534-1.118-.321-.665-.643-1.33-.935-2.008-.431-.993-.758-1.998-1.111-3.114-.057-.179-.087-.366-.115-.549-.031-.208-.062-.406-.139-.553-.237-.453-.287-.889-.304-1.292-.009-.195-.078-.392-.151-.602-.107-.307-.228-.653-.18-1.057.02-.172-.047-.358-.125-.572-.092-.253-.197-.54-.171-.871.033-.429.044-.882-.209-1.274-.125-.195-.107-.426-.091-.612.004-.053.009-.107.009-.157v-1.801s-.302-.513-.302-.513l-.002-8.453c0-.367.07-.726.221-1.13.065-.172.061-.395.056-.63-.003-.166-.005-.334.012-.496.023-.22.015-.446.006-.671-.019-.529-.04-1.129.323-1.691.002-.02-.012-.135-.019-.197-.07-.617.055-1.144.176-1.654.113-.476.22-.926.169-1.38l-.012-.113.063-.094c.237-.353.241-.769.244-1.21.002-.187.003-.374.021-.559l.043-.132.204-.339c.031-.196.041-.393.052-.589.024-.437.049-.89.266-1.358.075-.163.073-.383.07-.614-.003-.327-.006-.726.22-1.088-.036-.448.081-.855.194-1.249.101-.351.196-.683.174-1.015-.019-.282.088-.507.182-.705.088-.184.141-.303.126-.433-.043-.375.035-.764.238-1.188.058-.121.061-.299.065-.488.003-.162.008-.325.038-.479.029-.148.086-.292.146-.435.056-.135.109-.263.116-.37.019-.303.115-.573.209-.833.111-.307.207-.572.164-.851l-.026-.164.123-.112c.134-.123.149-.289.163-.571.015-.273.031-.605.261-.887.033-.244.102-.474.167-.697.067-.226.13-.439.149-.64.03-.339.137-.633.241-.918.086-.233.166-.454.196-.684.047-.346.192-.659.333-.961.075-.161.15-.322.207-.487.086-.248.157-.502.228-.756.062-.222.125-.444.196-.663.15-.464.316-.923.481-1.383l.062-.171c.059-.164.124-.326.189-.487.122-.303.236-.588.312-.882.126-.49.28-.971.433-1.452.247-.775.503-1.576.625-2.386l.061-.142c.187-.245.233-.543.287-.889.046-.297.094-.605.239-.908.11-.23.147-.512.187-.81.04-.301.081-.612.201-.907.108-.267.171-.547.238-.844.075-.334.153-.68.302-1.022.08-.183.121-.406.165-.642.038-.209.077-.42.143-.624.052-.16.086-.325.12-.492.047-.222.094-.447.174-.671.085-.233.078-.521.072-.826-.003-.148-.006-.296,0-.44l.045-.148.209-.405c.006-.103.01-.209.021-.314.019-.196.015-.395.013-.595-.006-.476-.013-1.013.267-1.518-.026-.375-.006-.749.014-1.111.037-.698.073-1.358-.21-1.991-.105-.235-.09-.491-.076-.717.006-.099.013-.199.006-.294-.016-.221-.013-.446-.01-.671.009-.509.016-.991-.232-1.424-.118-.204-.093-.459-.057-.659.072-.417-.041-.826-.161-1.259-.078-.278-.158-.567-.192-.872-.039-.356-.141-.707-.25-1.079-.089-.305-.178-.61-.232-.918-.144-.811-.384-1.618-.617-2.399-.17-.571-.346-1.161-.486-1.755-.241-1.023-.63-2.041-.976-2.916-.422-1.066-.872-2.099-1.35-3.193-.2-.459-.402-.922-.603-1.391l-.079-.184.195-.217c.082-.098.192-.228.321-.333.513-.42.912-.934,1.336-1.477.349-.448.709-.91,1.138-1.316.184-.412.484-.706.776-.991.182-.178.353-.345.487-.532.916-1.283,1.871-2.663,2.594-4.165.303-.63.626-1.25.95-1.871.257-.492.513-.983.759-1.479.545-1.098.959-2.278,1.359-3.42.193-.549.386-1.098.593-1.643.011-.608.216-1.15.415-1.676.119-.315.231-.612.303-.919.031-.134.075-.266.119-.4.064-.194.124-.376.142-.563.02-.225.106-.42.182-.592.08-.183.149-.341.141-.514-.009-.235.076-.449.151-.637.056-.139.107-.27.109-.374.003-.31.111-.584.205-.826.102-.261.19-.487.148-.72l-.023-.132.078-.107c.19-.259.213-.575.24-.94.028-.38.06-.81.311-1.203.019-.037.008-.18.002-.266-.009-.12-.016-.241-.004-.353.02-.186.016-.376.013-.567-.009-.463-.019-.988.295-1.492.026-.044.009-.224,0-.321-.009-.091-.017-.182-.017-.267-.002-7.018-.005-14.035-.011-21.052l.002-.128c.002-.161.006-.361-.046-.449-.215-.359-.212-.712-.209-1.023v-.164c-.006-.415-.007-.83-.009-1.246-.003-.701-.006-1.403-.03-2.103-.006-.186.002-.376.01-.567.021-.487.041-.948-.222-1.348-.093-.14-.079-.298-.07-.402,0-.286.006-.512.013-.738.016-.492.031-.956-.082-1.377-.181-.672-.268-1.329-.266-2.008,0-.157-.062-.309-.136-.486-.099-.241-.213-.515-.178-.852.039-.369.041-.758-.203-1.101-.136-.19-.119-.425-.107-.613.003-.055.008-.109.006-.159-.014-.475-.089-.844-.245-1.194-.118-.263-.134-.533-.149-.794-.012-.199-.023-.388-.079-.563-.211-.659-.326-1.362-.437-2.083-.029-.194-.094-.384-.161-.586-.111-.329-.226-.67-.212-1.075.006-.198-.069-.415-.148-.645-.086-.246-.181-.521-.19-.822-.22-.278-.236-.605-.249-.874-.014-.28-.028-.444-.161-.566l-.12-.11.023-.161c.04-.285-.056-.554-.168-.865-.092-.255-.186-.52-.211-.817-.015-.182-.078-.371-.147-.571-.103-.303-.219-.645-.175-1.03-.205-.606-.351-1.228-.492-1.831-.077-.333-.156-.664-.243-.994-.037-.141-.062-.288-.086-.434-.04-.241-.077-.468-.175-.634-.153-.261-.167-.531-.178-.749-.008-.165-.015-.307-.077-.401-.203-.308-.227-.621-.247-.896-.01-.123-.017-.245-.047-.364l-.14-.556c-.193-.775-.387-1.55-.596-2.319-.1-.37-.19-.743-.281-1.116-.15-.623-.306-1.268-.511-1.882l-.028-.085.021-.086c.033-.138-.027-.27-.13-.474-.091-.181-.201-.4-.206-.659-.214-.322-.269-.678-.317-.996-.037-.241-.072-.47-.169-.668-.189-.386-.259-.809-.327-1.217-.032-.195-.064-.389-.11-.578-.048-.197-.111-.39-.172-.584-.043-.133-.086-.266-.124-.4l-.048-.168c-.215-.746-.437-1.518-.598-2.299-.089-.428-.221-.841-.362-1.278-.105-.328-.211-.657-.297-.991l-.068-.262c-.194-.754-.395-1.533-.667-2.277-.196-.534-.41-1.16-.455-1.81-.015-.211-.086-.419-.162-.64-.1-.289-.213-.617-.203-.994.006-.207-.069-.433-.149-.673-.079-.237-.167-.503-.186-.789-.215-.269-.224-.585-.229-.824-.003-.17-.007-.317-.072-.41-.226-.327-.235-.659-.243-.953-.002-.115-.005-.23-.025-.343-.028-.158-.082-.308-.135-.46-.091-.261-.195-.559-.192-.9,0-.168-.06-.356-.123-.555-.059-.182-.116-.366-.141-.552-.017-.119-.025-.238-.033-.358-.021-.31-.04-.578-.21-.795l-.081-.103.017-.129c.048-.368-.054-.73-.162-1.113-.08-.282-.162-.572-.19-.883-.025-.272-.086-.542-.15-.829-.095-.421-.194-.856-.175-1.32-.256-.358-.268-.76-.278-1.119-.01-.316-.018-.59-.18-.805-.119-.159-.119-.347-.118-.498,0-.037,0-.073-.002-.107l-.014-.215c-.025-.399-.048-.776-.226-1.142-.121-.249-.123-.516-.123-.751-.002-.256-.002-.477-.139-.65-.164-.204-.132-.505-.115-.667.048-.457-.058-.908-.169-1.386-.112-.479-.228-.974-.19-1.501-.309-.621-.303-1.262-.297-1.884.002-.132.002-.264,0-.395-.002-.178-.069-.36-.138-.552-.099-.273-.212-.583-.167-.95.056-.464.119-.989-.027-1.362-.262-.669-.263-1.327-.265-1.964,0-.272,0-.545-.023-.817-.008-.1-.01-.201-.013-.301-.006-.277-.013-.517-.151-.735-.144-.228-.134-.5-.125-.742l.004-.162c-.006-.718-.005-1.436-.004-2.107v-.594s-.306-.538-.306-.538v-2.049c0-2.631,0-5.277.003-7.922v-.109c-.005-.254-.01-.542.136-.785.114-.191.119-.401.125-.644.002-.082.005-.165.01-.249.022-.312.018-.625.015-.939-.007-.751-.015-1.529.301-2.299.03-.074.023-.207.015-.335-.007-.111-.012-.222-.004-.329.01-.122.008-.245.006-.369-.006-.393-.012-.836.304-1.246-.006-.002-.006-.032-.013-.082-.078-.607.052-1.173.178-1.72.113-.492.22-.956.175-1.426l-.012-.121.073-.096c.178-.235.195-.527.214-.865.019-.358.042-.764.284-1.134.009-.015.033-.09.02-.241-.046-.497.072-.956.186-1.401.112-.435.218-.847.161-1.261l-.014-.099.047-.088c.18-.34.194-.727.209-1.137.011-.335.024-.68.129-1.019.086-.272.106-.558.127-.86.025-.358.051-.728.194-1.076.165-.401.181-.805.199-1.233.008-.205.017-.409.041-.615.026-.223.099-.416.169-.604.086-.227.16-.424.139-.636-.058-.575-.009-1.017.149-1.35.081-.168.084-.364.088-.572.004-.241.009-.514.144-.765.125-.232.147-.5.169-.783.026-.317.052-.646.224-.96.088-.162.107-.364.128-.578.031-.316.066-.67.323-.98.313-1.989,1.052-4.129,1.646-5.854.236-.688.449-1.301.596-1.799.162-.551.416-1.074.662-1.579.083-.172.167-.343.246-.516.174-.377.36-.749.558-1.145l.403-.813.281.145c.612.317,1.136.673,1.6,1.086.471.42,1.057.755,1.741.995.291.102.573.223.855.344.329.142.639.276.965.379.223.07.441.157.66.242.349.138.679.267,1.017.329.349.065.671.187.982.307.393.15.765.292,1.148.3.279.006.503.103.7.189.167.072.31.112.459.13.48-.012.961-.009,1.428-.007l.508.002.383-.141c.306-.114.6-.224.902-.314,1.178-.351,2.211-.861,3.157-1.559.98-.722,1.485-1.262,2.315-2.274.468-.571.839-1.222,1.199-1.852.312-.546.634-1.111,1.023-1.634.073-.378.241-.705.402-1.023.168-.329.326-.64.366-.979.024-.202.132-.371.209-.496.023-.036.045-.069.061-.101.023-.137.023-.352.023-.58,0-.4.002-.851.291-1.278.019-.042.01-.182-.019-.228-.258-.381-.264-.789-.268-1.115-.002-.132,0-.261-.023-.383l-.672-1.313c-.863-1.056-2.029-1.914-3.529-2.573-.441-.194-.892-.349-1.393-.517-.451-.153-.935-.309-1.42-.428-.195-.048-.406-.062-.63-.078l-.239-.019c-.112-.01-.225-.011-.337-.013-.355-.006-.758-.011-1.153-.261-.091-.056-.341-.062-.446-.01-.521.266-1.039.277-1.587.289-.224.005-.457.01-.698.035-.132.092-.287.193-.475.229-2.009.387-3.563,1.597-4.819,2.731-.356.321-.694.663-1.032,1.003-.349.353-.7.705-1.069,1.037-.475.427-.897.976-1.328,1.726-.184.318-.382.63-.579.94-.428.672-.831,1.307-1.101,2.02-.06.16-.181.27-.278.358-.03.027-.061.054-.086.082l-.09.098-.132.002c-.416-.025-.603-.275-.718-.443-.025-.036-.049-.073-.077-.107l-.063-.078-.039-.771c-.116-.185-.254-.393-.404-.621-.743-1.126-1.755-2.663-2.082-3.957-.424-.722-.671-1.506-.91-2.264l-.081-.255c-.119-.376-.211-.7-.266-1.056-.015-.098-.061-.207-.111-.323-.069-.161-.146-.345-.16-.549-.015-.228-.091-.458-.171-.701-.115-.349-.244-.74-.192-1.173-.269-.514-.279-1.048-.29-1.565l-.005-.169c-.273-.511-.288-1.045-.303-1.563-.013-.469-.025-.911-.232-1.299-.111-.208-.094-.437-.08-.638.006-.081.014-.161.007-.236-.018-.229-.015-.46-.012-.692.006-.505.012-.982-.221-1.417-.105-.195-.086-.414-.07-.591.005-.054.01-.108.01-.16l.002-4.576c0-.425.078-.83.247-1.277.073-.196.06-.451.044-.722-.01-.186-.019-.372-.006-.552.023-.305.019-.612.015-.918-.009-.706-.017-1.436.274-2.168.064-.159.049-.381.035-.616-.01-.17-.02-.341-.007-.506.015-.19.009-.383.002-.575-.015-.492-.031-1.044.282-1.562l.035-1.571.274-.531c.031-.173.034-.359.036-.555.004-.385.009-.821.248-1.252.077-.14.078-.328.079-.546.002-.299.003-.664.234-.989-.032-.445.084-.847.197-1.239.088-.306.171-.595.178-.885.01-.533.174-1.027.333-1.503l.103-.315c.058-.186.087-.382.117-.577.055-.358.116-.759.344-1.122-.024-.345.097-.642.205-.908.086-.213.169-.414.165-.613-.003-.241.093-.458.177-.651.041-.093.083-.185.109-.278.182-.661.377-1.318.571-1.975.226-.767.453-1.534.661-2.306.082-.303.187-.599.294-.894.163-.457.318-.888.385-1.352.082-.571.291-1.115.493-1.642.069-.178.137-.357.2-.535.119-.336.245-.67.371-1.003.154-.408.308-.816.448-1.228.12-.355.225-.716.331-1.076.103-.353.206-.706.323-1.055.1-.299.214-.594.328-.889.176-.456.341-.887.462-1.336.053-.199.131-.389.208-.579.127-.308.245-.6.237-.906-.006-.201.077-.383.144-.53.501-1.102.872-2.248,1.23-3.355.312-.96.633-1.953,1.032-2.909.011-.503.17-.954.324-1.391.059-.168.119-.336.168-.505.136-.464.282-.927.428-1.387l.145-.464c.062-.197.097-.404.132-.61.072-.416.145-.846.404-1.24,0-.533.18-1.007.354-1.467.17-.452.332-.878.312-1.327l-.005-.112.068-.089c.19-.251.216-.562.245-.921.029-.353.061-.747.275-1.107-.036-.356.091-.659.204-.931.087-.208.169-.405.169-.603,0-.268.084-.508.165-.741.082-.235.161-.456.131-.67l-.02-.139.092-.107c.152-.176.162-.407.174-.674.01-.224.021-.454.113-.683.143-.354.19-.711.24-1.089l.019-.149c.031-.221.091-.437.153-.654.048-.169.096-.338.125-.509l.036-.233c.039-.274.078-.556.208-.857.079-.182.092-.405.106-.641.019-.333.04-.708.253-1.056-.032-.508.082-.983.193-1.444.106-.441.207-.857.177-1.281-.02-.286.081-.529.17-.745.082-.197.153-.367.129-.542-.052-.409-.068-.936.284-1.395-.004-.004-.005-.088-.005-.139l.002-.129c.008-.154.01-.309.012-.465.009-.592.017-1.203.293-1.801-.04-.638.076-1.253.187-1.848.116-.621.226-1.208.17-1.809-.036-.376.064-.713.159-1.037.089-.301.173-.585.138-.872-.052-.439-.04-.884-.027-1.313.005-.19.01-.38.01-.571l.033-.14.293-.579-.003-.563c-.006-.538-.01-1.118.011-1.696.007-.183.003-.368,0-.553-.012-.588-.024-1.194.28-1.806.047-.094.031-.278.015-.454-.01-.107-.019-.212-.019-.314l.002-2.838c.003-3.783.006-7.566,0-11.348l.002-.238c.005-.437.01-.851-.189-1.257-.153-.314-.13-.661-.108-.998.01-.157.022-.317.009-.467-.025-.298-.018-.597-.01-.897.015-.595.029-1.156-.227-1.684-.113-.233-.096-.488-.081-.713.007-.102.015-.204.007-.3-.017-.182-.013-.367-.009-.553.01-.405.018-.755-.208-1.06-.105-.141-.093-.304-.084-.412-.002-.243.006-.428.015-.613.018-.376.035-.731-.075-1.01-.137-.346-.167-.692-.193-.997-.019-.23-.038-.446-.098-.646-.14-.471-.202-.937-.261-1.389l-.058-.42c-.03-.203-.082-.402-.132-.602-.09-.351-.183-.713-.179-1.106-.209-.301-.245-.636-.278-.935-.029-.27-.054-.502-.19-.688-.139-.19-.132-.422-.127-.609.002-.09.006-.184-.009-.244-.032-.134-.099-.271-.164-.404-.031-.064-.061-.124-.086-.183l-.061-.14.075-.134c.231-.415.592-.419.808-.421l1.04-.003c.646,0,1.291-.002,1.938-.019.138-.002.275.002.413.006.412.018.764.027,1.081-.186.191-.126.424-.108.609-.094.057.004.113.002.169.008.211-.002.429.002.646.012.462.017.902.036,1.277-.085.368-.118.723-.15,1.067-.182.266-.024.517-.048.756-.108.107-.027.211-.057.317-.088.314-.091.638-.185.994-.195.332-.22.705-.231,1.01-.241.217-.006.422-.013.567-.089.301-.156.619-.196.9-.231.312-.04.581-.073.791-.245l.108-.089.138.023c.244.035.479-.047.751-.149.244-.09.521-.194.83-.2.128-.002.28-.065.441-.133.111-.046.224-.092.337-.125l1.405-.412c1.487-.434,3.024-.883,4.511-1.402.313-.109.622-.231.931-.352.578-.227,1.175-.462,1.804-.619.548-.138,1.065-.364,1.611-.604.296-.13.593-.26.894-.375.5-.191.995-.426,1.475-.654.555-.264,1.129-.537,1.725-.749.52-.186,1.027-.434,1.517-.675.492-.241,1.001-.491,1.533-.684.966-.351,1.901-.822,2.805-1.276l.605-.303c.457-.227.902-.478,1.346-.728.303-.171.607-.342.914-.506.228-.121.463-.232.698-.341.547-.257,1.065-.499,1.492-.884l.09-.056c.965-.396,1.896-.914,2.796-1.416.884-.493,1.797-1.002,2.758-1.405.411-.172.819-.348,1.228-.525,1.456-.628,2.961-1.278,4.534-1.719.266-.194.571-.207.82-.216.266-.01.423-.023.535-.149l.087-.098.132-.005c.254-.01.506-.082.773-.158.225-.065.449-.128.676-.159.29-.039.573-.103.858-.167.509-.115,1.031-.241,1.608-.22.301.021.596-.056.918-.122.384-.078.779-.158,1.206-.134.486.029.988.021,1.472.01.23-.004.459-.008.688-.009l2.362.031.482.235.766.029c.646.015,1.312.032,1.981.29.146.055.332.052.535.051.312-.003.671-.01,1.019.201.143.086.33.086.555.082.297-.007.633-.008.949.204.119.08.292.086.492.092.286.01.633.021.922.277.63.03,1.218.21,1.787.384l.387.116c.278.082.558.153.839.223.45.114.914.232,1.362.391.6.213,1.212.404,1.818.593l.33.103c.261.082.519.174.777.267.441.158.897.322,1.357.423.324.07.61.21.889.344.311.151.605.294.923.328l.101.029c1.538.738,3.194,1.277,4.796,1.797.523.17,1.046.341,1.567.518.492.168.955.377,1.402.579.191.086.384.128.588.172.251.054.51.111.753.234.767.389,1.615.624,2.436.851.27.075.542.15.81.23l.215.065c.488.147.994.299,1.508.377.375.057.731.188,1.075.314.281.103.546.2.821.261l.278.059c.49.101.996.205,1.46.479.433-.023.814.087,1.189.188.248.067.481.13.716.156.268.029.513.11.751.187.341.112.638.207.951.148l.112-.022.1.056c.291.165.634.182.996.2.291.014.593.029.887.122.278.088.566.113.87.14.306.027.621.055.93.152.627.195,1.299.267,2.174.245.323.014.539.094.751.184.206.087.369.155.551.13.484-.066,1.046-.114,1.533.051.812.275,1.636.253,2.507.224.415-.011.831-.023,1.244-.004.334.019.614.019.88-.136.228-.13.497-.122.73-.124h.169c.229-.006.457-.002.686,0,.453.009.881.015,1.292-.055l.458-.078c.492-.086,1.001-.174,1.517-.228.379-.039.773-.128,1.156-.213l.45-.098c.205-.042.413-.073.621-.103.35-.051.68-.098.975-.201.303-.105.596-.144.88-.182.221-.03.43-.057.626-.115.443-.132.877-.22,1.358-.316.187-.037.38-.128.584-.225.269-.128.546-.259.86-.291.872-.091,1.713-.389,2.527-.677.35-.124.7-.248,1.054-.358.765-.236,1.532-.551,2.274-.855.366-.15.732-.3,1.1-.442,1.726-.669,3.199-1.435,4.503-2.341.453-.316.946-.575,1.423-.826.194-.103.387-.204.579-.31.106-.06.206-.052.282-.045h.09l.147.052c.303.194.612.385.923.578.7.433,1.424.881,2.111,1.375,1.091.786,2.364,1.401,4.006,1.937l.916.302c1.107.366,2.253.746,3.398,1.048.092.024.186.067.278.111.057.027.144.069.174.07.433-.06.828.067,1.176.178.278.09.564.186.801.163.368-.017.677.084.987.177.321.098.623.19.928.139l.111-.018.097.056c.426.251.906.252,1.461.254.318,0,.646.002.998.048l.098.031.435.216.32-.002c.338-.003.708-.008,1.077.007.153.007.305.004.458.002.492-.004,1.052-.015,1.573.27l.684.008c.579.006,1.158.011,1.736.037.144.007.298,0,.45-.005.45-.015.955-.037,1.425.252.367-.021.733,0,1.087.015.734.034,1.426.065,2.097-.181.23-.085.475-.082.691-.076h.175c.343-.004.686-.006,1.029-.007.641-.003,1.282-.006,1.922-.032.174-.006.362,0,.546.007.456.019.889.036,1.269-.205.186-.115.407-.101.582-.084.062.005.126.008.181.008.609-.036,1.253.039,1.759-.129.32-.106.64-.111.923-.117.265-.005.515-.01.716-.094.517-.216,1.019-.242,1.506-.266.182-.01.363-.019.545-.039.198-.022.399-.076.61-.133.182-.049.366-.098.55-.13.164-.027.33-.033.496-.037.282-.006.525-.013.742-.151.245-.156.508-.166.74-.175.183-.007.341-.013.473-.082.241-.126.502-.143.755-.159.125-.009.252-.016.37-.041.103-.023.203-.065.304-.107.184-.075.393-.16.623-.161.237,0,.473-.081.722-.165.29-.098.607-.204.976-.195.295-.208.628-.239.927-.266.278-.025.517-.047.683-.202l.092-.086.126.002c.385,0,.803-.127,1.216-.271.253-.089.506-.176.767-.234.655-.145,1.333-.332,2.014-.554.974-.319,2.078-.68,3.122-1.094.627-.249,1.28-.423,1.911-.592.661-.176,1.345-.359,1.978-.625.961-.404,1.961-.733,2.929-1.051.872-.287,1.773-.583,2.634-.931.927-.374,1.848-.759,2.769-1.144,1.036-.433,2.072-.866,3.114-1.283,1.741-.7,3.487-1.4,5.24-2.013.487-.169.973-.388,1.442-.599.21-.094.419-.188.63-.279l1.131-.487c.878-.38,1.757-.759,2.641-1.127.529-.22,1.071-.406,1.608-.552.235-.065.457-.172.691-.286.267-.13.543-.264.862-.344l.163-.04c.454-.111.924-.227,1.304-.479l.07-.047.084-.004c.677-.037,1.299-.265,1.958-.505.341-.125.682-.249,1.031-.348l.149-.041c.45-.127.914-.258,1.375-.304.195-.019.384-.088.584-.16.289-.104.59-.213.942-.192.19,0,.356-.062.559-.142.273-.109.583-.232.956-.175.202.029.405-.049.642-.14.257-.098.55-.211.871-.188.274-.165.57-.195.835-.221.214-.021.399-.04.532-.122.294-.181.597-.207.865-.23.234-.021.436-.039.608-.149.239-.155.533-.158.793-.161.125-.002.252,0,.368-.023.103-.02.203-.064.304-.105.185-.077.412-.157.628-.156.312.023.625-.077.955-.17.387-.109.779-.22,1.224-.186.431-.259.907-.268,1.332-.275.417-.007.778-.014,1.077-.222l.077-.053.521-.013c.326-.009.652-.018.978-.019.649-.004,1.297-.002,1.915-.002h.717s.596-.282.596-.282l.888-.005c.615-.005,1.187-.008,1.758.01.199.007.396.008.596.005.625-.002,1.269-.006,1.935.225.299.104.668.082,1.061.064.238-.014.478-.027.709-.013.139.008.279.006.418.003.42-.003.902-.01,1.374.234.353.182,1.019-.103,1.599.327.848.057,1.621.368,2.333.697l.601.277c1.227.561,2.495,1.14,3.615,1.943l.235.168c.752.537,1.53,1.091,2.189,1.798.86.924,1.455,1.928,1.819,3.068.019.003.1.103.089.249-.031.423.075.835.187,1.272.048.184.095.369.132.555.043.206.031.413.023.596-.004.073-.008.146-.008.217v.13l-.093.091c-.543.533-1.082.22-1.404.031l-.032-.018c-.22-.029-.448-.028-.69-.027-.542.002-1.095.004-1.634-.321.022.015-.006.02-.035.022-.039.003-.077.006-.114.006h-1.282c-1.389.002-2.777.002-4.166.009-.174,0-.356.066-.549.135-.288.103-.616.218-.994.152-.302-.055-.589.048-.918.169-.198.072-.395.142-.6.183-.287.057-.571.22-.871.391-.14.08-.28.161-.423.232l-.244.127c-.149.079-.297.157-.45.224-1.322.575-2.378,1.514-3.232,2.869-.337.535-.938,2.229-.944,2.776-.009.716-.006,1.431-.005,2.135l.002.826c.069.192.135.384.2.575.286.839.555,1.63,1.079,2.297.599.763,1.423,1.243,2.517,1.825.17,0,.347-.004.53-.007.5-.006,1.066-.018,1.623.019.549.04,1.068-.106,1.615-.256.232-.063.462-.126.696-.176.743-.158,1.474-.471,2.114-.902l.582-.39c1.336-.892,2.717-1.814,3.843-2.993,1.317-1.377,2.953-3.253,3.931-5.565.045-.107.108-.207.182-.323l.057-.091.062-1.185.642-.671.178.049c1.395.385,2.704.95,3.97,1.496.7.302,1.339.606,1.977.911.764.365,1.554.742,2.347,1.065.76.31,1.486.684,2.188,1.044l.69.353c.524.263.978.602,1.418.931.207.155.415.31.629.456.952.65,1.818,1.433,2.624,2.181,1.155,1.07,2.315,2.199,3.546,3.45.156.159.317.313.478.468.503.483,1.022.982,1.413,1.619.179.291.436.54.708.802.349.338.709.686.939,1.161.823.776,1.415,1.715,1.938,2.546.155.246.321.486.487.726.291.42.592.856.834,1.323.308.596.645,1.176.982,1.755.487.839.992,1.707,1.4,2.616.168.374.34.746.513,1.118.247.534.494,1.069.729,1.609.127.291.281.571.435.851.297.54.604,1.098.732,1.747.371.567.614,1.183.849,1.78.157.398.319.81.515,1.19.492.957.935,2.04,1.316,3.219.138.425.302.838.466,1.252.217.547.441,1.113.604,1.704.243.885.576,1.781.898,2.648l.104.278c.226.608.419,1.275.589,2.041.064.289.161.572.263.871.108.314.219.638.293.979.027.124.052.251.076.378.074.391.152.795.319,1.115.146.279.18.563.21.812.028.236.052.441.159.632.178.322.21.674.241,1.014.024.273.048.529.142.762.103.254.136.518.168.774.031.242.059.47.143.682.091.229.101.462.11.686.011.268.02.499.168.677.109.132.09.293.08.37-.048.456.057.897.169,1.364.123.521.252,1.059.172,1.636-.02.15.045.294.128.476.1.221.224.496.18.83-.059.433-.105.884.023,1.205.277.694.275,1.383.274,2.048,0,.294-.002.588.023.881.019.222.015.446.01.67-.01.458-.018.891.2,1.291.136.25.108.539.084.793-.009.089-.018.177-.018.26l.002,1.481c.002,1.693.005,3.387-.005,5.081,0,.106.003.211.007.317.016.459.035.98-.292,1.475-.003.019.005.117.01.182.008.091.014.183.008.267-.026.37-.018.743-.01,1.115.016.826.032,1.68-.295,2.519v2.03l-.347.584c-.002.094-.005.193-.009.293-.01.293-.022.596.02.885.054.377-.065.691-.17.968-.071.189-.139.366-.142.541-.002.091.002.184.006.277.015.387.033.824-.278,1.231-.003.01-.011.055-.019.127-.014.136-.016.275-.019.415-.008.339-.016.688-.153,1.015-.09.212-.108.433-.128.667-.014.152-.027.303-.056.453-.032.165-.086.328-.139.489-.057.172-.111.334-.132.491-.039.307-.125.599-.279.944-.046.101-.061.241-.077.388-.022.207-.046.441-.166.651-.075.13-.083.297-.092.492-.014.287-.031.638-.3.929-.113.863-.41,1.668-.697,2.449-.096.26-.191.519-.28.78l-.411,1.217c-.227.676-.454,1.351-.688,2.023-.113.324-.224.648-.333.973-.242.711-.484,1.422-.752,2.125-.236.619-.462,1.243-.687,1.866-.316.872-.63,1.743-.976,2.604l-.382.96c-.747,1.879-1.518,3.822-2.527,5.638-.195.708-.567,1.411-.927,2.091-.131.248-.262.496-.387.747-.151.306-.274.624-.4.942-.145.37-.295.754-.488,1.123-.177.34-.316.697-.463,1.074-.11.281-.219.562-.345.835-.098.215-.212.423-.327.63-.244.444-.474.864-.54,1.339-.02.144-.106.243-.161.309-.605,1.151-1.14,2.299-1.657,3.41-.541,1.161-1.1,2.362-1.701,3.524l-.14.27c-.299.573-.583,1.115-.752,1.72-.094.338-.267.634-.434.919-.208.357-.405.693-.429,1.077l-.042.138c-.637,1.081-1.081,2.278-1.512,3.437-.249.669-.505,1.361-.798,2.029-.634,1.448-1.191,2.964-1.73,4.43l-.306.83c-.432,1.168-.843,2.342-1.253,3.517-.243.696-.486,1.391-.734,2.086-.257.72-.444,1.478-.625,2.21l-.157.629c-.026.101-.046.206-.067.312-.062.314-.126.638-.312.918-.126.19-.157.429-.19.682-.039.301-.083.639-.295.941.02.379-.104.716-.214,1.017-.084.229-.164.446-.178.661-.015.241-.109.466-.191.663-.036.085-.071.17-.099.256-.107.324-.187.654-.268.984-.072.293-.143.586-.232.875-.159.521-.306,1.047-.453,1.572l-.157.563c-.088.312-.163.632-.238.952-.084.361-.169.722-.27,1.071-.136.464-.251.934-.365,1.403-.119.492-.24.985-.384,1.471-.149.506-.246,1.05-.34,1.575l-.077.43c-.044.235-.107.463-.169.693-.095.348-.185.676-.207,1.025-.042.648-.203,1.266-.332,1.671-.09.286-.121.577-.154.886-.031.284-.061.578-.143.868-.075.269-.11.544-.147.835-.039.306-.078.622-.169.928-.205.686-.228,1.393-.253,2.142-.008.239-.016.483-.03.732l-.032.122-.227.45.002,2.14c.003,2.066.006,4.161-.012,6.255-.002.233.072.464.149.708.101.319.216.68.168,1.093-.065.558-.119,1.015.182,1.377l.074.09-.002.116c-.019.813.189,1.582.408,2.396.08.296.16.592.228.891.139.602.976,3.165,1.258,3.736l.349.707c.515,1.047,1.048,2.13,1.634,3.156.787,1.38,1.714,2.976,2.755,4.448.55.78,1.152,1.6,1.908,2.291.665.608,1.313,1.251,1.94,1.872.312.31.625.62.941.927.341.33.756.706,1.254.99.282.162.512.374.733.579.192.178.374.346.584.479.42.266.803.586,1.173.896.29.242.58.486.891.704.454.319.894.659,1.333.999.517.4,1.051.814,1.598,1.18.566.378,1.169.697,1.809,1.036.285.152.574.305.864.466l.16.089v.182c0,.068.009.142.017.219.025.228.056.513-.071.759Zm-17.995,155.271c-.086-.39.063-.713.183-.973.069-.15.135-.292.152-.429.037-.302.157-.581.282-.877.057-.133.118-.274.175-.429l.07-.11.249-.259c.226-.237.484-.508.764-.755.824-.732,1.673-1.143,2.595-1.256.123-.015.257-.069.4-.126l.103-.04c.485-.187.937-.179,1.302.023.234.13.465.177.697.14.6-.093,1.132.113,1.599.292l.187.071c1.82.676,3.747,1.47,5.51,2.688.096.067.16.149.211.215l.2.232-.116.195c-.508.851-1.069,1.746-1.844,2.499-.151.147-.282.324-.42.513-.203.274-.412.559-.704.768-.434.312-.813.618-1.157.934-1.27,1.161-2.578,1.818-4,2.01-.588.278-1.194.289-1.779.3-.185.003-.369.007-.553.019-.069.005-.136.006-.203.006-.601,0-1.142-.174-1.667-.341l-.323-.103c-.793-.242-1.336-.81-1.721-1.278l-.056-.101-.43-1.374.019-1.493c.035-.094.076-.187.119-.282.11-.245.205-.457.156-.68ZM45.222,180.103c.134,1.355-.22,2.624-.562,3.851l-.145.527c-.18.667-1.491,3.47-1.919,4.025-.633.822-1.392,1.554-2.257,2.174-.611.438-1.283.768-1.933,1.086-.27.132-.541.265-.81.407l-.128.035-.167.011c-.133.009-.278.019-.425.021-.157.002-.297.004-.424.004-.919,0-1.14-.085-2.171-.486l-.326-.127c-1.063-.41-2.099-.82-3.092-1.335-.696-.362-1.591-.867-2.341-1.575-.141-.132-.303-.245-.462-.359-.079-.056-.159-.112-.236-.17-.032-.025-.068-.046-.103-.067-.113-.069-.254-.154-.339-.307-.331-.603-.747-.943-1.348-1.102l-.42-.111.88-1.309c.45-.667.868-1.286,1.27-1.917.855-1.337,1.804-2.581,2.967-4.037.971-1.215,1.881-2.067,2.864-2.68.228-.142.437-.308.648-.473.345-.27.701-.551,1.144-.751.601-.27,1.228-.428,1.833-.579.366-.092.733-.184,1.092-.301.198-.063.483-.09.698.021.236.123.509.168.799.216.367.061.747.124,1.107.346.247.153.521.261.81.376.32.127.65.257.966.457,1.159.732,1.952,1.604,2.496,2.747l.03.133c0,.112-.003.232-.007.358-.008.278-.017.592.013.889ZM313.489,22.335l-.092.218c-.62,1.479-1.358,2.596-2.324,3.516-.74.706-1.472,1.42-2.187,2.15-1.156,1.178-2.57,2.148-4.587,3.144-.879.435-1.653.66-2.435.709-.215.014-.427.058-.648.104-.327.067-.682.14-1.094.14-.228,0-.474-.023-.742-.081-.128-.045-.232-.077-.35-.115-.362-.114-.857-.27-1.285-.55-.443-.29-.81-.665-1.164-1.028-.144-.149-.287-.295-.432-.432l-.069-.064-.064-.288c-.022-.102-.039-.187-.066-.27-.033-.101-.077-.201-.121-.302-.15-.341-.336-.766-.126-1.215.084-.178.144-.364.205-.549.109-.33.221-.671.448-1.002.692-1.008,1.499-1.746,2.538-2.321.887-.491,1.782-.968,2.678-1.442.333-.177.686-.295,1.027-.41.425-.143.828-.278,1.177-.514l.087-.059.105.006c.312.024.613-.073.935-.169.365-.11.741-.219,1.166-.196.086-.008.218-.048.39-.115.126-.048.272-.105.449-.161l.094-.015.395-.002c.337-.003.707-.006,1.077.006.157.005.311.002.467-.002.536-.013,1.135-.025,1.694.285.453-.04.838.082,1.217.2.24.075.466.146.693.171.248.028.429.203.588.358.054.052.109.106.165.15l.187.146Zm48.836,208.518l-.006.181c-.013.396-.027.805-.152,1.234l-.151.531c-.245.881-.498,1.792-1.019,2.609l-.213.342c-.333.54-.677,1.098-1.199,1.542-.207.176-.398.365-.591.553-.386.379-.785.772-1.303,1.071l-.328.191c-1.128.659-1.302.76-3.355,1.337-.112.031-.219.082-.357.144-.086.039-.182.082-.294.129l-.057.024h-4.489l-.073-.044c-.199-.12-.412-.211-.625-.303-.478-.207-.972-.42-1.361-.918l-.122-.156.779-1.541c.617-1.226,1.24-2.462,1.888-3.684.154-.291.376-.529.591-.76.107-.114.213-.228.309-.349.189-.236.372-.475.556-.713.489-.637.995-1.295,1.589-1.883.798-.79,1.729-1.417,2.628-2.024l.452-.305c.301-.207.687-.494,1.215-.475.37-.236.771-.299,1.161-.361.25-.04.487-.077.702-.159.377-.142.787-.108,1.186-.079.158.013.316.026.471.026l.107.019c.758.28,1.676.747,2.053,1.889l.015.097.003.542c.004.432.008.864-.01,1.294Z" stroke-width="0"/>
  </g>
</svg>