<?xml version="1.0" encoding="UTF-8"?>
<svg id="b" data-name="Layer 2" xmlns="http://www.w3.org/2000/svg" width="338.742" height="494.894" viewBox="0 0 338.742 494.894">
  <g id="c" data-name="Layer 1">
    <g>
      <path d="m.207,419.077c.052,1.087-.19,2.181.165,3.267.132.404.07.907,0,1.347-.078.486.317.829.246,1.302-.136.901.368,1.747.231,2.654-.008.049-.019.123.005.147.431.434.127,1.057.38,1.57.251.507-.003,1.186.334,1.717-.11.616.266,1.137.297,1.744.032.619.239,1.255.49,1.824.244.553.222,1.147.407,1.711.379,1.154.576,2.374,1.106,3.478.216,1.364.778,2.618,1.189,3.913.412,1.297.842,2.599,1.341,3.872.301.768.614,1.54.873,2.325.322.973.653,1.939,1.015,2.896.38,1.003.712,2.029,1.147,3.008,1.429,3.213,2.736,6.493,4.568,9.489.685,1.121,1.355,2.256,2.087,3.343.574.851,1.238,1.634,1.853,2.454.498.663.982,1.337,1.473,2.006-.025.347.473.534.257.939-.492.127-.979.322-1.478.365-.851.074-1.63.413-2.415.686-.881.305-1.703.804-2.542,1.237-.418.215-.841.435-1.218.718-.575.431-1.058.984-1.678,1.367-.498.307-.715.92-1.121,1.33-.519.523-.866,1.159-1.26,1.777-.404.632-.655,1.288-.836,2.004-.046.182-.184.338-.242.44-.018.593-.032,1.096-.047,1.584.312.623.288,1.373.749,1.914.477.561.949,1.125,1.321,1.566.284.132.427.169.537.255.459.36,1.032.456,1.515.741.512.302,1.16-.011,1.609.465.332.023.663.052.995.066.475.021.958-.019,1.425.058.543.089.991-.343,1.516-.239.537.107,1.015-.264,1.511-.228.551.04,1.016-.192,1.508-.318,1.232-.314,2.664-1.067,3.386-1.704,1.094-.964,2.102-2.005,2.612-3.464.048-.137.124-.262.192-.404.021-.703-.002-1.412.075-2.109.085-.771-.334-1.443-.301-2.192-.577-1.184-.937-2.483-1.704-3.565-.116-.164-.196-.341.046-.588.549.014,1.16.023,1.771.047.665.026,1.368-.063,1.985.136.598.194,1.188.261,1.791.329.045.005.1.013.131.042.269.26.613.309.935.261.424-.063.679.362,1.068.336.675-.044,1.247.442,1.918.41,1.012.632,2.203.732,3.269,1.236.752.355,1.551.651,2.35.893.803.243,1.581.556,2.372.831,1.011.352,1.955.925,3.04,1.03.319.4.86.142,1.18.404.411.335.903.206,1.342.413.492.231,1.048.395,1.598.484.6.097,1.138.491,1.778.391.129-.02.303.01.402.091.416.344.971.072,1.358.316.451.284.912.22,1.373.285.188.026.427-.044.561.054.514.376,1.094.258,1.649.321.189.021.414-.042.564.046.796.464,1.669.249,2.503.356.33.042.729-.077.984.08.539.334,1.102.246,1.658.282,1.044.068,2.091.095,3.137.146.234.011.517-.031.691.09.352.245.724.213,1.096.226,4.993.169,9.987.333,14.98.497.237.008.523.097.703-.01.547-.326,1.115-.165,1.671-.169.951-.005,1.903.037,2.854.052.234.004.51.056.694-.052.366-.215.736-.153,1.107-.15.809.006,1.617.03,2.426.043.236.004.524.084.7-.027.5-.316,1.02-.157,1.53-.174.523-.017,1.046.007,1.57.014.615-.412,1.294-.168,1.944-.209.284-.018.613.1.848-.014.736-.354,1.492-.148,2.237-.191.237-.014.525.092.705-.016.589-.352,1.207-.156,1.81-.199.236-.017.514.084.706-.015.684-.348,1.395-.166,2.093-.203.19-.01.423.07.562-.02.536-.346,1.111-.164,1.667-.199.284-.018.613.098.848-.016.689-.335,1.396-.165,2.094-.188.379-.013.758.021,1.043.03.261-.127.43-.209.487-.236,1.205-.079,2.284.146,3.364-.188.481-.148,1.046-.064,1.561.01.542.077.988-.276,1.518-.255.65.027,1.293.062,1.953-.177.467-.169,1.041-.071,1.558-.009.538.065.975-.308,1.518-.263.693.056,1.384.048,2.094-.164.654-.195,1.407.065,2.075-.274.95.139,1.846-.408,2.799-.246.133.023.309.02.411-.054.348-.255.731-.168,1.103-.172.379-.004.758.021,1.024.03.28-.136.449-.218.64-.311.565.019,1.136.038,1.706.056.565-.391,1.197-.182,1.801-.218.237-.015.514.084.707-.014.684-.348,1.394-.167,2.093-.2.19-.009.42.074.564-.013.678-.406,1.397-.138,2.093-.194.377-.03.801.092,1.123-.053.426-.193.83-.154,1.249-.153.666.003,1.332.026,1.998.043s1.332.033,1.998.054,1.332.044,1.997.07c.713.028,1.427.104,2.139.081.674-.021,1.288.319,1.928.33.955.016,1.823.51,2.778.458.084-.004.169.071.257.101.616.215,1.24.406,1.874.548.455.102.856.402,1.347.384.118-.004.232.175.363.215,1.253.387,2.447.915,3.606,1.55.443.243.952.351,1.367.776-.046.257-.072.553-.154.831-.25.844-.571,1.667-.546,2.578.011.401-.02.803-.024.943.293,1.324.711,2.324,1.417,3.129.742.845,1.713,1.344,2.806,1.688.423.014.898.03,1.354.045,2.377-.936,2.441-1.004,3.169-3.277-.075-.207-.157-.387-.204-.576-.288-1.166-.989-2.609-1.793-3.298-.872-.748-1.637-1.643-2.629-2.23-.335-.198-.596-.453-.812-.887.837-.806,1.68-1.62,2.526-2.43.176-.169.343-.36.546-.483,1.336-.806,2.635-1.676,4.031-2.376,2.617-1.312,3.508-1.633,7.019-2.847.968-.335,1.976-.538,2.908-.989.958.068,1.773-.638,2.732-.567,1.284-.623,2.696-.693,4.049-1.011.671-.157,1.352-.415,2.068-.337.283-.24.628-.264.948-.197.417.088.699-.308,1.087-.262.761.091,1.457-.417,2.225-.271.513-.378,1.147-.063,1.645-.273.608-.256,1.208-.148,1.785-.228.188-.093.356-.176.42-.208.772-.065,1.421.059,2.075-.219.368-.156.856-.084,1.271-.004.462.089.8-.278,1.233-.252.522.031,1.052-.029,1.568.041.584.079,1.102-.219,1.661-.226.523-.007,1.046.015,1.57.025s1.054-.03,1.568.048c.541.083.99-.255,1.52-.233,2.947.121,5.896.206,8.827.303.138.089.261.167.483.31,1.419.047,2.94.094,4.46.15.281.01.614-.036.831.104.404.26.825.199,1.241.228.854.059,1.711.088,2.566.129.885.473,1.854.272,2.784.376.331.037.727-.077.985.079.628.378,1.293.234,1.941.31.378.044.816-.074,1.128.091.724.382,1.485.314,2.224.31.549-.003.976.349,1.499.358.571.01,1.14.058,1.711.092.045.003.099.014.131.043.362.33.809.236,1.226.268.427.032.855.032,1.22.044.182.12.303.2.527.348.417.014.989-.105,1.448.083.552.226,1.096.247,1.653.311.183.021.394.029.538.13.392.277.829.187,1.245.215.432.028.754.367,1.212.354.504-.015,1.054-.079,1.495.319.632-.081,1.183.339,1.78.352.814.017,1.535.489,2.348.437.428.417,1.042.15,1.472.408.508.305,1.131.146,1.586.55.499-.086.879.306,1.348.371.457.063.903.222,1.35.351.448.13.857.413,1.348.367,1.507.77,3.163,1.103,4.702,1.781.94.414,1.925.708,2.862,1.136.448-.055.804.236,1.202.366.441.144.905.264,1.301.502.385.232.813.139,1.211.356.61.332,1.283.588,1.952.752.687.168,1.317.471,1.98.687.531.173,1.122.186,1.619.426.478.231,1.015.192,1.46.468.5.309,1.158-.016,1.607.468.631-.074,1.182.277,1.78.373.46.074.91.081,1.368.299.406.193.977-.017,1.4.155.685.279,1.377.285,2.077.339.14.011.317-.013.412.067.375.314.812.235,1.23.263.522.034,1.046.038,1.512.054.178.114.299.192.533.343.931.031,1.975.062,3.02.103.282.011.613-.036.832.102.36.227.726.202,1.098.219.903.04,1.807.063,2.711.09.237.007.523.096.702-.011.501-.297,1.018-.165,1.529-.172.618-.008,1.243.074,1.853.007.648-.071,1.28-.294,1.945-.224.475-.28,1.036-.121,1.504-.284.838-.291,1.743-.322,2.539-.753,1.499-.261,2.802-1.067,4.138-1.745.66-.335,1.33-.766,1.809-1.412.057-.077.093-.169.144-.264.007-.241.015-.489.021-.704-.255-.531-.752-.611-1.226-.868-.363-.012-.791-.035-1.218-.034-.105,0-.21.08-.337.132.485.305.923.58,1.432.899-.358.364-.638.643-1.043.818-.688.297-1.34.663-2.058.91-.566.195-1.132.443-1.703.648-.613.22-1.282.266-1.883.498-.585.226-1.251-.091-1.771.374-.557.042-1.1.013-1.669.199-.563.183-1.225.029-1.843.023-.285-.003-.623-.114-.845.009-.554.307-1.116.191-1.671.162-1.408-.075-2.819.012-4.22-.357-.814-.215-1.703-.113-2.559-.156-.236-.012-.532.056-.698-.067-.479-.355-1.006-.233-1.515-.281-.521-.049-1.045-.061-1.568-.09-.54-.431-1.184-.26-1.784-.337-.236-.03-.514.046-.704-.062-.436-.248-.893-.327-1.363-.298-.493.03-.904-.34-1.354-.318-.825.039-1.538-.481-2.351-.429-.494-.349-1.099-.228-1.618-.426-.266-.102-.518-.199-.799-.255-.316-.063-.612-.224-.925-.307-.899-.238-1.792-.493-2.657-.849-.388-.16-.769-.405-1.169-.45-.437-.05-.802-.256-1.2-.388-.441-.146-.907-.262-1.302-.501-.385-.233-.87-.025-1.197-.386-1.264-.478-2.523-.973-3.794-1.429-1.315-.471-2.564-1.145-3.941-1.424-.653-.394-1.416-.458-2.095-.766-.728-.331-1.533-.399-2.242-.782-.54.067-.967-.36-1.492-.371-.707-.015-1.333-.488-2.056-.422-.264-.266-.605-.328-.93-.274-.424.07-.686-.313-1.069-.336-.56-.034-1.101-.104-1.649-.32-.507-.2-1.128-.027-1.628-.381-1.094.048-2.101-.594-3.165-.432-.161-.107-.282-.186-.513-.34-.41-.013-.984.109-1.44-.082-.599-.253-1.192-.249-1.796-.311-.189-.019-.429.041-.558-.06-.468-.367-1.002-.243-1.511-.3-.331-.037-.724.07-.985-.084-.628-.368-1.291-.242-1.939-.318-.283-.033-.615.056-.847-.07-.76-.415-1.575-.25-2.363-.348-.189-.024-.425.047-.562-.049-.607-.422-1.289-.248-1.936-.32-.473-.052-1.006.08-1.413-.108-.78-.361-1.579-.239-2.368-.324-.378-.041-.828.084-1.125-.092-.59-.351-1.201-.232-1.802-.29-.71-.069-1.426-.069-2.138-.107-.234-.013-.512.028-.691-.089-.308-.203-.624-.212-.953-.223-5.088-.169-10.177-.337-15.265-.504-.19-.006-.423-.076-.562.013-.539.343-1.112.165-1.669.183-.57.019-1.186-.156-1.702.019-.663.224-1.303.151-1.956.173-.331.011-.662-.018-.889-.025-.273.132-.441.213-.592.286-1.174-.206-2.266.368-3.404.209-.044-.006-.102,0-.135.027-.423.343-.959.061-1.367.247-.465.211-.914.202-1.381.219-.14.005-.315-.027-.415.047-.578.429-1.34-.041-1.897.451-.719-.13-1.367.321-2.085.278-.308-.019-.623.179-.941.228-.368.056-.728.022-1.104.186-.416.182-.907.236-1.352.294-.472.061-.888.295-1.362.324-.412.026-.818.158-1.224.258-.451.111-.939.159-1.336.383-.403.227-.823.127-1.23.271-1.314.466-2.677.784-3.987,1.262-.744.272-1.522.42-2.247.774-.714.349-1.521.485-2.211.891-.701.412-1.493.559-2.193.954-1.111.627-2.271,1.172-3.323,1.893-1.575,1.078-3.192,2.132-4.279,3.834-.128.2-.34.34-.532.526-.192-.054-.385-.073-.544-.161-.664-.365-1.283-.865-1.984-1.097-.709-.235-1.368-.6-2.099-.785-.712-.181-1.36-.645-2.072-.829-.721-.186-1.416-.537-2.184-.499-.43-.416-1.047-.145-1.472-.4-.548-.329-1.111-.188-1.659-.296-.136-.027-.304-.017-.402-.098-.291-.244-.627-.201-.954-.219-.76-.042-1.521-.071-2.281-.11-.235-.012-.522.042-.694-.079-.395-.28-.819-.216-1.236-.236-.808-.04-1.617-.057-2.41-.084-.142.078-.269.148-.496.274-1.04-.034-2.18-.073-3.32-.109-.238-.008-.514-.09-.707.008-.685.345-1.395.162-2.094.193-.284.013-.617-.093-.843.03-.366.199-.725.181-1.1.196-.652.026-1.296-.071-1.955.186-.417.163-.947.073-1.415.008-.541-.076-.991.269-1.517.256-.651-.016-1.299-.087-1.954.185-.37.154-.856.084-1.272.007-.462-.086-.8.301-1.232.256-.947-.1-1.847.405-2.799.24-.669.34-1.385.213-2.085.235-.048.002-.107-.016-.14.008-.52.371-1.103.184-1.661.213-.284.015-.615-.098-.847.018-.595.297-1.204.18-1.809.201-.19.007-.421-.064-.561.026-.491.316-1.014.176-1.525.196-.333.013-.716-.115-.989.02-.648.32-1.302.16-1.954.186-.38.015-.804-.123-1.133.013-.839.345-1.684.13-2.523.175-.332.018-.721-.122-.988.017-.649.337-1.304.149-1.955.182-.38.019-.809-.125-1.132.018-.698.308-1.398.152-2.096.19-.19.01-.424-.075-.563.015-.536.344-1.109.178-1.666.204-.285.013-.613-.098-.848.016-.689.335-1.396.162-2.094.194-.238.011-.507-.08-.708.01-.779.351-1.584.157-2.378.194-.19.009-.416-.072-.565.01-.632.35-1.299.176-1.95.194-.426.011-.853-.023-1.179-.034-.269.129-.438.21-.621.298-.906-.03-1.809-.061-2.713-.089-.238-.007-.525-.099-.705.007-.592.349-1.207.169-1.811.18-.713.013-1.427-.025-2.141-.036-.236-.003-.52-.077-.698.034-.456.284-.927.169-1.39.156-2.758-.079-5.516-.176-8.196-.265-.207.113-.334.182-.505.275-1.381-.046-2.806-.091-4.231-.142-.186-.006-.415.022-.55-.077-.301-.223-.625-.206-.953-.22-.618-.027-1.236-.05-1.854-.074-.618-.024-1.236-.048-1.855-.073-.665-.027-1.335-.118-1.995-.067-.639.049-1.178-.317-1.788-.341-.903-.036-1.806-.081-2.709-.123-.238-.011-.527.064-.703-.053-.614-.406-1.29-.24-1.937-.324-.328-.043-.727.057-.977-.107-.449-.295-.92-.283-1.375-.258-.55.031-.954-.412-1.498-.375-.416.028-.815-.07-1.222-.282-.398-.208-.898-.086-1.361-.31-.4-.193-.89-.342-1.33-.379-.537-.044-.944-.437-1.489-.425-.409.009-.778-.278-1.2-.365-.444-.091-.9-.232-1.338-.383-.703-.243-1.361-.641-2.07-.849-.764-.225-1.495-.543-2.224-.843-.694-.285-1.431-.413-2.104-.748-.588-.292-1.232-.412-1.826-.712-.578-.291-1.23-.433-1.855-.596-.631-.165-1.264-.348-1.878-.545-.543-.174-1.134-.146-1.62-.403-.458-.243-.976-.072-1.362-.305-.498-.301-1.006-.228-1.513-.299-.279-.04-.608.016-.828-.123-.36-.228-.728-.199-1.099-.215-1.234-.052-2.469-.086-3.747-.128-.462-.552-1.009-1.065-1.391-1.69-.923-1.506-2.095-2.805-3.059-4.275-.429-.654-.946-1.246-1.344-1.918-.992-1.671-1.917-3.386-2.784-5.131-.629-1.266-1.162-2.585-1.721-3.889-.557-1.299-1.141-2.581-1.611-3.926-.337-.964-.745-1.913-1.058-2.887-.328-1.023-.776-1.994-1.091-3.023-.27-.883-.655-1.734-.89-2.629-.248-.948-.656-1.832-.899-2.782-.156-.611-.35-1.217-.627-1.797-.246-.515-.255-1.155-.497-1.673-.276-.592-.323-1.23-.484-1.841-.335-1.272-.743-2.52-.977-3.826-.189-1.054-.462-2.094-.648-3.151-.11-.627-.368-1.235-.259-1.897-.301-.389-.19-.855-.234-1.297-.047-.486-.184-.963-.213-1.45-.036-.592-.071-1.167-.2-1.758-.135-.619-.021-1.3-.021-1.953,0-.097,0-.215-.049-.287-.251-.362-.158-.771-.156-1.164.003-.704.022-1.408.038-2.111s.033-1.408.052-2.111c.019-.704.04-1.407.063-2.111.023-.704.046-1.407.071-2.111.025-.703.095-1.409.066-2.11-.029-.716.252-1.355.337-2.037.073-.587.092-1.161.297-1.745.171-.486.248-1.046.341-1.571.096-.536.258-1.047.364-1.573.272-1.345.734-2.629,1.109-3.939.401-1.402.94-2.761,1.443-4.128.52-1.415,1.119-2.796,1.663-4.201.755-1.951,1.68-3.828,2.491-5.757.283-.673.628-1.312.888-2.001.274-.726.662-1.404.936-2.138.323-.867.758-1.688,1.056-2.563.314-.924.747-1.792,1.048-2.722.193-.6.361-1.226.64-1.78.485-.961.727-2.02,1.188-2.984.461-.965.652-2.044,1.148-2.993.018-.625.521-1.064.604-1.639.137-.94.549-1.769.846-2.641.485-1.427.879-2.887,1.383-4.307-.098-.533.393-.904.352-1.422.329-.358.147-.927.376-1.247.319-.448.149-.975.401-1.418.183-.322.138-.788.317-1.115.206-.374.047-.818.269-1.143.247-.361.123-.792.259-1.146.217-.565.308-1.139.335-1.735.401-.451.135-1.105.383-1.556.316-.575.162-1.179.319-1.805.046-.077.121-.204.196-.328.051-.499.007-1.036.18-1.478.152-.389.251-.766.215-1.153-.046-.489.297-.833.324-1.283.047-.789.071-1.57.327-2.345.165-.501.126-1.098.092-1.646-.035-.572.301-1.035.313-1.588.031-1.407.127-2.814.128-4.221,0-1.439.254-2.88-.105-4.323-.128-.516-.057-1.107.012-1.651.073-.573-.308-1.046-.231-1.602.138-1.005-.355-1.953-.238-2.958.01-.086-.042-.197-.096-.272-.192-.269-.09-.583-.143-.871-.053-.286-.226-.565-.218-.843.017-.61-.413-1.126-.287-1.746-.289-.464-.302-1.031-.507-1.529-.222-.539-.374-1.111-.6-1.647-.399-.947-.841-1.873-1.246-2.817-.567-1.32-1.368-2.478-2.22-3.596-.446-.586-.961-1.115-1.454-1.659-.391-.431-.771-.866-1.28-1.169-.394-.234-.73-.58-1.096-.881.106-.114.16-.212.24-.253,1.105-.569,1.994-1.471,3.003-2.189.308-.22.548-.551.804-.846.188-.218.329-.485.529-.688.787-.798,1.34-1.766,1.945-2.713.611-.958.988-2.002,1.444-3.02.237-.529.449-1.08.594-1.643.121-.471.118-.958.297-1.443.181-.488.104-1.09.105-1.643,0-1.139.145-2.272-.136-3.418-.159-.651.051-1.389-.257-2.044.125-.522-.225-.946-.27-1.443-.048-.527-.211-1.055-.391-1.555-.167-.464.009-1.015-.351-1.418.032-.723-.584-1.249-.538-1.976-.432-.877-.552-1.868-.928-2.776-.314-.758-.644-1.531-.87-2.325-.456-1.602-1.067-3.146-1.663-4.683-.654-1.683-1.172-3.414-1.747-5.12-.432-1.28-.835-2.593-1.079-3.943-.243-1.346-.776-2.631-.764-4.031-.215-.296-.288-.645-.22-.994.086-.435-.213-.755-.243-1.148-.042-.539.006-1.064-.186-1.615-.169-.487-.034-1.092-.033-1.644,0-.1.035-.222-.006-.299-.354-.658-.189-1.369-.184-2.057.008-1.155.061-2.309.093-3.376-.111-.224-.177-.357-.243-.489.017-.554.033-1.107.049-1.661.403-.576.245-1.255.29-1.89.067-.952.082-1.908.125-2.863.011-.248-.035-.549.079-.732.26-.416.215-.863.24-1.306.031-.552.036-1.105.051-1.59.115-.192.192-.32.264-.439.055-.605.003-1.244.197-1.784.159-.443.153-.873.234-1.307.081-.431.287-.855.286-1.281-.002-.862.492-1.615.419-2.479.361-.416.137-1.001.335-1.421.248-.525.254-1.052.305-1.592.009-.098-.004-.227.048-.288.246-.288.303-.647.253-.987-.065-.449.328-.723.31-1.128-.023-.513.194-.958.306-1.434.111-.473.092-.968.318-1.434.097-.201.172-.565-.11-.838-.127.15-.285.277-.369.446-.624,1.261-1.297,2.498-1.676,3.881-.167.609-.415,1.193-.61,1.794s-.398,1.2-.575,1.809c-.175.601-.266,1.235-.528,1.824-.189.425-.099.952-.317,1.433-.212.469-.011,1.097-.367,1.565.051,1.058-.477,2.028-.416,3.088.011.199.049.452-.044.593-.391.59-.228,1.261-.308,1.894-.038.297.036.65-.094.883-.21.377-.214.759-.233,1.155-.033.703-.059,1.406-.086,2.11-.025.653-.048,1.306-.069,1.96-.023.703-.044,1.407-.063,2.111-.019.704-.036,1.408-.051,2.111-.015.653.012,1.311-.048,1.959-.065.709.139,1.371.207,2.056.069.691-.148,1.411.105,2.081.266.705-.1,1.509.345,2.173.023.493.052.965.204,1.459.151.494.182,1.059.254,1.59.193,1.414.583,2.776.915,4.147.551,2.275,1.295,4.497,2.08,6.694.344.962.753,1.912,1.056,2.887.305.981.847,1.865,1.012,2.896.843,2.127,1.566,4.301,2.149,6.522.322,1.225.843,2.397.912,3.691.383.548.089,1.289.505,1.782-.012.408.002.763-.04,1.111-.044.372.224.678.21.998-.061,1.437.056,2.87-.322,4.308-.402,1.527-.876,3.007-1.63,4.362-.495.889-1.06,1.738-1.686,2.552-.757.982-1.596,1.87-2.533,2.608-.807.634-1.655,1.289-2.622,1.605-.74-.287-1.452-.516-2.123-.839-.474-.228-1.002-.178-1.472-.456-.26-.154-.652-.063-.985-.073-.423-.012-.83-.04-1.24.199-.219.128-.548.044-.867.058-.322.316-.634.621-.905.887-.015.504-.027.899-.037,1.239.516.978,1.455,1.106,2.305,1.496.57.019,1.188.046,1.806.058.515.01,1.043.099,1.513-.23.713.116,1.346-.535,2.252-.139.768.466,1.648,1.121,2.375,1.988.347.414.709.814,1.074,1.21,1.228,1.333,2.119,2.918,2.851,4.578.506,1.149.955,2.342,1.314,3.564.412,1.405.72,2.834,1.005,4.271.019.094.082.18.094.274.073.536-.017,1.069.153,1.624.167.55.084,1.185.114,1.841.04.077.107.209.241.473-.021.724-.046,1.577-.072,2.429.366.707.19,1.468.18,2.206-.024,1.609-.059,3.218-.143,4.824-.052.985.058,1.983-.313,2.954-.168.441-.12.998-.086,1.495.04.576-.336,1.023-.341,1.585-.005.488-.02.971-.2,1.465-.18.494-.14,1.078-.196,1.623-.005.05.012.119-.013.148-.32.372-.324.845-.284,1.281.046.493-.328.823-.329,1.281,0,.849-.487,1.615-.388,2.484-.281.377-.167.895-.347,1.261-.235.478-.143.998-.321,1.434-.26.64-.335,1.323-.56,1.969-.222.638-.348,1.317-.543,1.971-.347,1.166-.523,2.389-1.054,3.492-.026.86-.415,1.614-.696,2.383-.301.824-.515,1.674-.798,2.502-.519,1.52-1.065,3.026-1.64,4.524-.68,1.769-1.345,3.544-2.042,5.306-.374.947-.726,1.908-1.088,2.861-.38,1-.775,1.995-1.22,2.964-.467,1.018-.868,2.066-1.359,3.073-.361.741-.737,1.494-1.014,2.261-.284.788-.711,1.491-.992,2.273-.28.778-.625,1.53-.923,2.302-.42,1.088-.847,2.173-1.268,3.26-.369.952-.686,1.922-1.015,2.888-.203.598-.41,1.195-.619,1.791-.225.644-.561,1.253-.561,1.968-.374.34-.145.91-.381,1.246-.287.409-.179.866-.329,1.283-.331.923-.611,1.868-.587,2.847-.092.153-.169.28-.253.42-.091.67-.064,1.358-.325,2.031-.17.439-.077.992-.1,1.494-.021.452-.073.907-.046,1.356.03.518-.31.91-.312,1.438-.008,1.96-.1,3.92-.154,5.88-.007.247-.053.539.049.733.205.388.122.779.141,1.171Zm167.062,68.45c.166-.304.322-.591.513-.94,1.802,1.276,3.473,2.591,4.515,4.662-.006.208-.014.455-.022.735-.239.649-.872.797-1.408,1.099-.32-.01-.651-.021-.909-.03-.966-.465-1.804-.997-2.416-2.038-.099-.324-.198-.648-.343-1.123.02-.684.045-1.531.07-2.364Zm-146.1-11.758c1.094,1.56,2.096,3.115,2.524,4.97.197.852.491,1.713.255,2.794-.026.06-.177.276-.206.508-.08.639-.421,1.097-.839,1.514-.583.581-1.134,1.184-1.861,1.599-.898.512-1.966.988-3.118,1.206-.703.517-1.605-.008-2.311.492-.808-.021-1.617-.052-2.425-.061-.621-.006-1.183-.291-1.751-.471-.655-.207-1.251-.657-1.837-1.061-.264-.182-.472-.462-.577-.83-.106-.372-.324-.71-.483-1.044.013-.428.025-.83.038-1.275.051-.098.132-.22.184-.354.741-1.899,2.019-3.353,3.5-4.611,1.282-1.09,2.722-1.897,4.334-2.326.449-.119.923-.2,1.33-.414.401-.212.823-.117,1.233-.253.649-.216,1.362-.233,2.01-.383Zm-12.326-171.847c-.401-.152-.781-.296-1.295-.491.927-.29,1.723-.06,2.619-.051.004.234.006.329.009.463-.436.208-.9.052-1.332.079Z" stroke-width="0"/>
      <path d="m309.699,143.822c-.212.201-.4.431-.542.586-2.251.676-4.403,1.333-6.151,2.915-.021.439-.04.834-.061,1.257.233.252.464.501.66.713,1.086.207,1.995-.167,2.855-.695.851-.523,1.699-1.044,2.464-1.72.884-.782,1.928-1.175,3.117-1.045.614.067,1.235.061,1.853.099.475.029.984-.028,1.413.139.441.172.902.239,1.335.411.606.241,1.217.484,1.791.799,2.491,1.364,4.671,3.102,6.241,5.633.824,1.328,1.586,2.669,2.2,4.122.363.858.663,1.735.946,2.617.417,1.295.812,2.6,1.007,3.967.068.478.105.998.27,1.432.19.502-.022,1.053.187,1.453.302.58.028,1.193.27,1.749.27.618.021,1.284.107,1.915.079.186.155.365.234.552-.029.613-.06,1.215-.087,1.818-.009.201-.083.443-.004.596.343.676.157,1.379.132,2.065-.071,2.009-.153,4.019-.287,6.025-.075,1.134.023,2.286-.389,3.398-.182.492-.149,1.096-.122,1.644.031.627-.415,1.119-.367,1.728.071.92-.486,1.716-.443,2.627-.413.44-.188,1.071-.414,1.552-.13.277-.203.544-.26.839-.065.332-.222.643-.308.972-.173.66-.328,1.327-.581,1.959-.271.678-.407,1.402-.674,2.081-.372.948-.634,1.943-1.084,2.861-.469.958-.698,2.034-1.272,2.943-.031.627-.537,1.04-.66,1.618-.116.548-.479.955-.674,1.458-.21.544-.434,1.09-.722,1.59-1.046,1.812-1.843,3.76-2.81,5.616-.47.903-.936,1.818-1.335,2.755-.364.856-.788,1.675-1.217,2.487-.455.862-.856,1.745-1.249,2.638-.293.667-.729,1.242-.955,1.969-.228.733-.675,1.389-.982,2.111-.283.666-.56,1.348-.886,2-.305.608-.448,1.302-.757,1.887-.347.658-.552,1.36-.765,2.049-.259.837-.737,1.599-.796,2.504-.272.423-.214.977-.432,1.387-.253.476-.092,1.03-.321,1.431-.27.473-.261.954-.297,1.443-.036.501-.34.899-.356,1.424-.064,2.159-.191,4.316-.292,6.421.093.188.159.322.2.406.019.649-.076,1.284.084,1.836.165.57.036,1.198.358,1.717-.013.811.314,1.533.554,2.273.24.742.437,1.506.797,2.199.772,1.483,1.732,2.839,2.742,4.139.684.881,1.483,1.69,2.333,2.394,1.211,1.002,2.467,1.951,3.804,2.768.808.494,1.621.98,2.41,1.456-.268.689-.473,1.389-.683,2.093-.15.502-.433.999-.519,1.509-.092.543-.485.985-.412,1.563-.351.511-.223,1.165-.44,1.697-.135.332-.27.649-.242.993.037.439-.318.714-.339,1.123-.028.543-.106,1.061-.309,1.59-.187.489-.113,1.089-.156,1.64-.008.1.015.229-.036.294-.404.521-.252,1.153-.322,1.737-.06.498.056,1.067-.135,1.489-.327.722-.266,1.463-.324,2.198-.098,1.252-.146,2.508-.218,3.763-.014.249.042.559-.076.734-.247.364-.233.754-.252,1.149-.146,2.962-.288,5.924-.43,8.886-.012.251-.106.55-.011.745.333.683.125,1.38.124,2.068,0,.803-.055,1.607-.08,2.411-.008.249-.082.548.02.738.261.487.13.981.128,1.471-.003.703-.039,1.407-.061,2.11.364.606.148,1.269.159,1.907.009.552-.169,1.155-.014,1.647.254.805.087,1.583.117,2.371.012.301-.1.638-.006.898.318.884.111,1.778.134,2.667.004.151-.058.33,0,.448.33.669.142,1.373.153,2.062.006.349-.029.7-.042.952.115.277.19.457.207.498.071.941-.054,1.714.149,2.524.199.789-.082,1.665.184,2.507.128.404.058.908-.023,1.345-.09.486.27.835.228,1.307-.065.737-.123,1.491.164,2.206-.155,1.001.337,1.959.175,2.961-.016.098-.041.225,0,.297.447.764-.052,1.699.404,2.457-.153.952.299,1.86.183,2.81-.012.098-.031.223.013.295.341.558.018,1.219.211,1.749.235.646.112,1.279.188,1.916.064.13.13.264.215.437-.207.966.284,1.917.195,2.915.294.399.232.875.167,1.303-.074.486.315.835.232,1.305-.151.85.335,1.653.193,2.507.318.444.084,1,.235,1.442.186.544.176,1.069.179,1.612,0,.1-.036.232.01.296.255.354.229.761.195,1.155-.04.463.345.83.223,1.302-.107.416.22.784.188,1.148-.083.958.325,1.862.209,2.812-.012.097-.029.223.016.294.351.557.008,1.224.209,1.749.248.648.105,1.281.187,1.913.065.134.131.268.209.429-.164,1.122.346,2.234.156,3.386-.008.046-.001.108.023.143.315.455.207.981.149,1.458-.064.528.236.951.23,1.456-.007.538-.07,1.069.098,1.627.151.5-.064,1.122.079,1.627.198.695.155,1.373.157,2.065,0,.097-.008.216.038.289.294.464.107.977.154,1.465.052.536.209,1.076.172,1.603-.082,1.152.337,2.267.168,3.415.286.611.192,1.263.191,1.906,0,.146-.015.324.054.434.234.372.142.776.145,1.169.004.448.259.824.238,1.302-.03.681.291,1.344.215,2.047.393.446.073,1.063.365,1.572.231.403.011.952.185,1.455.169.487.186,1.05.308,1.575.11.474.156.965.234,1.448.086.531.306,1.038.257,1.594.318.448.142.969.194,1.457.429.434.111,1.057.369,1.571.205.408.168.948.281,1.429.121.516.405,1.021.276,1.591.434.784.425,1.702.642,2.549.229.889.531,1.773.597,2.718.037.525.264,1.036.406,1.553.129.47.293.932.379,1.411.095.53.366,1.015.351,1.571.405.437.05,1.102.415,1.551.193,1.008.466,1.994.756,2.974-.108.567.296,1.042.258,1.596.398.441.107,1.063.385,1.566.2.362.214.843.293,1.275.088.481.172.963.228,1.449.056.487.328.935.235,1.449.346.487.043,1.131.272,1.578.267.52.088,1.069.325,1.592.229.506.063,1.15.249,1.738.141.443.069.959.216,1.45.136.453-.082.999.233,1.444-.174,1.002.309,1.959.182,2.962-.037.293-.088.646.027.885.214.444.139.879.132,1.322-.012.753-.043,1.507-.066,2.26.344.557.186,1.173.142,1.757-.095,1.234.033,2.487-.39,3.699-.174.498-.14,1.096-.12,1.646.02.574-.368,1.021-.36,1.576.013.906-.513,1.709-.447,2.627.006.085-.055.19-.111.264-.227.302-.145.673-.221,1.007-.086.38-.275.743-.306,1.124-.057.701-.333,1.333-.512,1.989-.319,1.171-.764,2.305-1.174,3.448-.542,1.512-1.126,3.005-1.744,4.481-.297.71-.643,1.446-1.291,1.93-.094.07-.115.248-.188.418.161.055.317.169.403.126.378-.191.772-.329,1.105-.644.714-.674,1.216-1.51,1.726-2.341.253-.412.507-.846.642-1.308.128-.437.371-.794.536-1.199.183-.45.359-.904.548-1.351.171-.402.448-.782.512-1.201.076-.5.326-.93.396-1.411.059-.402.42-.66.366-1.116-.054-.45.433-.778.337-1.266.277-.537.349-1.124.385-1.721.404-.444.156-1.102.411-1.548.325-.569.184-1.175.353-1.799.046-.075.123-.202.233-.384-.032-.847.3-1.693.391-2.57.157-1.497.224-3.008.259-4.515.036-1.539.269-3.071-.027-4.625-.145-.757.069-1.573-.181-2.358-.1-.314.025-.701-.006-1.048-.035-.387-.21-.774-.185-1.151.051-.757-.365-1.45-.221-2.207-.359-.533-.077-1.19-.287-1.731-.134-.347-.115-.678-.156-1.019-.04-.338-.211-.632-.234-.997-.059-.927-.446-1.803-.445-2.75,0-.09-.098-.176-.114-.27-.141-.868-.357-1.717-.565-2.569-.116-.473-.05-1.041-.278-1.427-.302-.513-.021-1.119-.374-1.573-.342-1.371-.646-2.753-1.035-4.109-.443-1.546-.695-3.142-1.168-4.682-.27-.88-.42-1.804-.733-2.676.08-.513-.136-.976-.259-1.445-.136-.517-.258-1.043-.399-1.558-.126-.458-.174-.956-.283-1.435-.271-1.188-.491-2.389-.699-3.591-.066-.384-.175-.763-.215-1.149-.04-.393-.086-.771-.176-1.161-.109-.465-.262-.969-.245-1.436.021-.573-.349-1.026-.277-1.604.04-.316-.16-.659-.195-.996-.041-.393.052-.808-.22-1.15.07-.508-.211-.975-.203-1.448.01-.564-.22-1.068-.228-1.603-.013-.893-.342-1.75-.239-2.655.014-.124-.119-.266-.159-.347-.106-.638.031-1.215-.153-1.828-.176-.591-.031-1.289-.028-1.939,0-.048,0-.108-.024-.143-.314-.456-.141-.971-.158-1.462-.01-.301.113-.661-.004-.893-.272-.536-.144-1.076-.167-1.616-.008-.199.054-.441-.032-.588-.279-.476-.13-.977-.147-1.468-.01-.301.109-.66-.008-.893-.245-.487-.219-.982-.154-1.463.071-.527-.275-.955-.213-1.455.136-1.099-.327-2.163-.162-3.263.007-.049.021-.114-.001-.149-.289-.454-.234-.968-.178-1.454.06-.52-.264-.971-.2-1.452.14-1.058-.333-2.063-.188-3.114.006-.046.005-.111-.02-.144-.265-.351-.226-.77-.17-1.156.069-.475-.215-.865-.209-1.303.01-.599-.061-1.171-.182-1.76-.116-.567.006-1.164-.199-1.757-.17-.492.054-1.065-.158-1.615-.207-.536.041-1.191-.28-1.732.057-.552-.111-1.071-.188-1.606-.083-.58.054-1.193-.221-1.751.151-.952-.304-1.86-.188-2.81.012-.097.03-.224-.015-.295-.349-.557-.012-1.222-.211-1.749-.245-.647-.107-1.28-.187-1.913-.065-.134-.131-.268-.242-.493.017-.362.039-.814.061-1.266-.463-.757.051-1.696-.41-2.453.149-1.001-.329-1.959-.179-2.962.022-.143.038-.331-.03-.438-.264-.418-.203-.881-.147-1.314.062-.478-.287-.833-.232-1.306.057-.488.004-.964-.154-1.463-.142-.449-.015-.994-.007-1.496,0-.05.017-.113-.006-.148-.329-.503-.236-1.08-.162-1.604.089-.627-.238-1.157-.217-1.759.019-.537.037-1.06-.134-1.618-.166-.542-.013-1.192-.005-1.795.001-.097.002-.215-.046-.288-.24-.367-.148-.773-.14-1.166.011-.5.045-1,.062-1.363-.129-.318-.202-.498-.288-.711.038-.789.077-1.592.115-2.395-.37-.604-.136-1.269-.169-1.907-.015-.299.091-.653-.026-.887-.246-.492-.132-.981-.132-1.471,0-.603.03-1.206.048-1.809-.366-.606-.147-1.269-.159-1.907-.01-.552.169-1.154.015-1.647-.268-.855-.088-1.683-.111-2.521-.011-.401.138-.86,0-1.192-.251-.6-.128-1.182-.125-1.77.004-.804.056-1.608.079-2.412.007-.247.065-.539-.035-.734-.199-.392-.12-.78-.118-1.174.002-.301.023-.602.036-.904.03-.703.06-1.406.091-2.109.029-.653.061-1.305.092-1.958.034-.703.068-1.406.103-2.109.036-.703.073-1.406.111-2.108.035-.653.115-1.307.093-1.957-.025-.715.264-1.353.344-2.035.07-.598.077-1.203.113-1.805.038-.652.138-1.308.1-1.956-.038-.632.343-1.123.372-1.729.041-.887.03-1.776.37-2.64.227-.577.041-1.257.337-1.889.28-.6.032-1.393.447-2.002.005-.504.206-.956.32-1.43.126-.522.298-1.043.376-1.565.088-.595.357-1.116.46-1.706.106-.606.473-1.159.626-1.783.053-.216.269-.388.388-.549.251.013.47-.039.623.044.7.379,1.457.369,2.206.414.902.054,1.809.048,2.707.141.585.061,1.09-.268,1.661-.254.263.007.54-.14.794-.256.472-.215.931-.46,1.095-.542.667-.551,1.079-.892,1.317-1.088.335-.644.56-1.075.781-1.499.03-.618.059-1.22.085-1.77-.09-.282-.187-.509-.233-.747-.247-1.278-1.025-2.156-2.076-2.661-1.343-.645-2.91-.745-4.502-.069-1.81.768-3.203,2.047-4.313,3.7-.377.56-.795,1.097-1.056,1.74-.052.129-.19.22-.289.329-1.403-.852-2.801-1.627-4.105-2.585-1.318-.967-2.446-2.158-3.659-3.249-.143-.128-.305-.283-.361-.46-.157-.504-.542-.813-.833-1.201-.879-1.174-1.517-2.493-2.111-3.841.046-.474-.17-.892-.368-1.26-.249-.464.04-1.027-.33-1.429.064-.702-.353-1.334-.258-2.045.093-.697-.299-1.344-.187-2.058.077-.492.024-1.005.068-1.505.166-1.882-.024-3.798.541-5.646.155-.506.031-1.099.372-1.567-.022-1.123.71-2.031.795-3.124.579-1.23.962-2.543,1.457-3.809.497-1.27,1.053-2.508,1.607-3.747.815-1.82,1.695-3.61,2.595-5.386,1.319-2.602,2.64-5.202,3.878-7.849.351-.751.798-1.451,1.167-2.194.388-.783.697-1.611,1.11-2.378.391-.728.72-1.486,1.086-2.226.945-1.917,1.713-3.916,2.522-5.896.403-.987.755-1.999,1.129-3-.065-.529.255-.952.413-1.402.163-.465.248-.944.396-1.407.148-.462.332-.912.459-1.381.281-1.036.541-2.079.789-3.124.124-.522.141-1.057.333-1.585.18-.495.111-1.09.156-1.642.008-.097.004-.22.057-.285.308-.384.247-.851.275-1.293.054-.852.086-1.707.123-2.492.115-.192.192-.319.296-.492.111-2.313.225-4.671.337-7.03.01-.201.08-.435.008-.597-.323-.727-.125-1.476-.135-2.215-.006-.452.153-.958.009-1.346-.355-.956.012-1.97-.341-2.928-.176-.479-.024-1.051-.189-1.605-.16-.537-.057-1.163-.241-1.745-.144-.459-.169-.961-.236-1.445-.073-.534-.24-1.042-.286-1.591-.057-.688-1.512-4.943-1.808-5.709-.249-.643-.602-1.228-.881-1.849-.688-1.543-1.673-2.863-2.652-4.195-.645-.878-1.454-1.581-2.258-2.262-.759-.642-1.533-1.295-2.408-1.779-1.069-.591-2.132-1.188-3.309-1.527-.853-.245-1.672-.626-2.581-.618-.38.004-.762-.023-1.139-.071-.367-.046-.76.078-1.099-.148-.009-.113-.017-.207-.021-.247.98-1.19,1.994-2.305,2.88-3.525,1.393-1.917,2.623-3.96,3.809-6.026.529-.921.988-1.89,1.442-2.862.701-1.497,1.401-2.992,1.953-4.553.42-1.19,1.027-2.316,1.185-3.603.376-.334.163-.908.402-1.238.293-.404.184-.866.356-1.274.452-1.08.659-2.245.903-3.386.154-.717.538-1.391.444-2.165.334-.359.337-.833.316-1.271-.023-.485.344-.811.35-1.272.007-.547.151-1.06.316-1.585.16-.51.105-1.094.151-1.644.008-.096.016-.215.07-.28.284-.337.218-.754.255-1.146.033-.35-.044-.755.098-1.042.397-.799.264-1.661.379-2.491.027-.199-.04-.451.053-.593.416-.633.27-1.355.337-2.039.069-.699.092-1.404.134-2.107.448-.774.284-1.65.366-2.484.054-.549.061-1.104.088-1.656.027-.552.053-1.105.078-1.657.025-.552-.017-1.119.088-1.653.115-.583-.225-1.061-.195-1.61.033-.602.014-1.209.071-1.808.059-.607-.125-1.172-.176-1.757-.065-.735.113-1.475-.161-2.216-.128-.345.023-.797-.006-1.196-.029-.387-.169-.767-.186-1.153-.029-.641.098-1.295-.196-1.905.158-1.249-.347-2.462-.149-3.644-.104-.245-.18-.424-.264-.622.024-.502.048-1.003.072-1.505-.352-.605-.155-1.267-.174-1.906-.007-.251.089-.538.003-.747-.341-.83-.107-1.678-.138-2.516-.007-.201.081-.446,0-.596-.339-.623-.13-1.276-.153-1.914-.013-.351.117-.746.006-1.047-.348-.939-.082-1.882-.113-2.819-.013-.401.144-.861.006-1.193-.249-.6-.14-1.181-.129-1.77.021-1.055.075-2.11.116-3.165.01-.251.1-.541.014-.747-.31-.734-.13-1.479-.108-2.216.036-1.206.111-2.41.169-3.615.012-.251-.042-.536.052-.747.443-.993.272-2.062.392-3.093.046-.399-.056-.87.112-1.188.327-.615.283-1.259.32-1.895.053-.896.525-1.709.441-2.625.322-.364.255-.836.331-1.274.082-.481.237-.947.339-1.425.245-1.148.537-2.284.85-3.413.064-.23.195-.444.207-.699.031-.699.32-1.333.51-1.984.287-.98.523-1.977.862-2.942.224-.64.349-1.317.582-1.957.234-.64.367-1.321.611-1.95.81-2.081,1.404-4.257,2.43-6.244.244-1.025.826-1.882,1.344-2.746.358-.598.821-1.186,1.45-1.567.283-.172.514-.444.758-.683.045-.044.039-.147.056-.221-.052-.023-.101-.067-.132-.056-1.316.493-2.42,1.321-3.29,2.465-.82,1.078-1.529,2.244-2.148,3.462-.439.866-.708,1.824-1.255,2.634-.055.715-.538,1.241-.749,1.9-.429,1.341-1.09,2.596-1.364,3.999-.731,1.596-.992,3.358-1.596,4.999.089.581-.46.99-.377,1.569-.316.526-.259,1.152-.42,1.71-.094.323-.309.628-.267.981.052.443-.331.73-.324,1.124.019,1.011-.551,1.91-.47,2.928.008.099.021.231-.028.295-.33.426-.297.938-.317,1.432-.023.551-.178,1.06-.32,1.585-.129.472-.086.997-.117,1.498-.038.602-.074,1.204-.111,1.806-.013.201.045.452-.048.594-.386.589-.262,1.257-.306,1.892-.084,1.203-.122,2.41-.178,3.615-.012.251-.102.54-.016.747.326.784.114,1.58.107,2.368-.008,1.005-.069,2.009-.107,3.014-.009.251-.103.552-.005.744.298.582.138,1.178.138,1.767,0,.603-.041,1.206-.055,1.809-.006.248-.066.542.035.735.229.439.105.881.132,1.322.042.687-.218,1.401.16,2.058-.017.703-.036,1.406-.05,2.11-.002.097-.003.215.044.288.239.367.146.773.137,1.167-.011.5-.045,1-.064,1.406.112.233.177.367.293.608-.031.648-.187,1.285-.051,1.842.121.498.21.977.142,1.462-.073.525.212.956.222,1.455.011.542-.146,1.088.084,1.631.222.522.027,1.088.067,1.632.007.098-.013.22.033.29.274.413.15.872.155,1.314.004.351-.123.761.006,1.042.273.592.13,1.179.151,1.768.009.251-.077.525-.007.75.354,1.134.082,2.279.103,3.418.005.25-.093.55.005.742.275.535.171,1.083.123,1.617-.133,1.483.017,2.983-.414,4.454-.218.747-.123,1.596-.171,2.399-.039.652-.081,1.304-.122,1.956-.452.771-.274,1.652-.387,2.483-.027.199.035.45-.059.592-.385.585-.257,1.255-.34,1.889-.032.249.037.551-.074.742-.373.642-.267,1.355-.356,2.038-.02.149.029.348-.046.443-.339.429-.323.948-.307,1.434.018.531-.336.923-.36,1.424-.018.35.025.745-.114,1.037-.154.324-.309.634-.267.985.054.444-.322.727-.327,1.124-.008.511-.241.955-.328,1.428-.1.536-.315,1.047-.366,1.567-.046.474-.327.816-.389,1.265-.133.974-.623,1.85-.738,2.837-.021.182-.195.337-.261.52-.233.639-.441,1.289-.675,1.927-.805,2.197-1.709,4.345-2.783,6.414-.877,1.689-1.864,3.3-2.885,4.896-1.532,2.395-3.198,4.656-5.239,6.593Zm17.226,117.149c.839-.797,1.864-1.079,2.869-1.45.126-.046.288-.034.42.002.673.18,1.356.378,1.905.834.489.406.797.964.83,1.661.009.188.116.37.191.592-.108.322-.23.687-.434,1.293-.263.235-.695.621-1.061.948-.611.221-1.136.411-1.811.655-.54-.078-1.222.123-1.914.186-.654.059-1.322-.051-2.011-.088-.189-.092-.39-.226-.61-.287-.226-.063-.479-.02-.702-.088-.211-.064-.399-.212-.636-.345.725-1.656,1.801-2.809,2.963-3.912Z" stroke-width="0"/>
      <path d="m38.042,21.097c-.166.324-.026.797-.316,1.119-.404,1.622-1.137,3.107-1.787,4.619-1.005,2.337-2.259,4.544-3.562,6.704-1.028,1.704-2.109,3.382-3.134,5.088-1.147,1.912-2.438,3.736-3.389,5.779-.65.796-1.04,1.755-1.5,2.671-.482.96-1.108,1.826-1.588,2.789-.651,1.306-1.328,2.594-1.914,3.939-.641,1.471-1.274,2.941-1.814,4.457-.359,1.007-.696,2.022-1.066,3.025-.387,1.048-.561,2.167-.918,3.231-.166.495-.209,1.05-.333,1.577-.123.52-.276,1.048-.345,1.573-.083.639-.22,1.256-.342,1.883-.123.633-.076,1.301-.113,1.954-.014.246.014.538-.1.726-.197.327-.203.665-.196,1.01.023,1.038-.213,2.077.128,3.118.132.403.068.907-.005,1.346-.082.488.308.83.252,1.301-.047.395.048.767.203,1.154.138.343.024.766.23,1.15.177.328.102.758.21,1.149.17.618.496,1.175.61,1.797.123.665.541,1.142.804,1.714.54,1.174,1.265,2.198,2.096,3.155,1.216,1.401,2.628,2.56,4.033,3.73,1.22,1.016,2.38,2.107,3.506,3.233.823.822,1.541,1.748,2.213,2.724.636.923,1.231,1.865,1.729,2.873.905,1.835,1.734,3.704,2.265,5.708.175.659.273,1.345.572,1.964-.076.707.276,1.337.317,2.039.039.68.254,1.352.206,2.052-.01.146-.029.332.04.438.271.415.167.871.17,1.313.004.653-.154,1.352.017,1.948.176.608.145,1.178.139,1.767-.011,1.055-.057,2.11-.09,3.165-.008.251.06.55-.045.745-.351.653-.238,1.361-.307,2.047-.025.249.043.56-.074.736-.272.41-.204.861-.276,1.297-.079.482-.232.951-.307,1.433-.069.438.001.909-.318,1.276-.059.896-.471,1.696-.623,2.557-.079.448-.366.832-.343,1.267.026.491-.297.827-.369,1.271-.07.427-.211.869-.43,1.232-.241.402-.175.856-.341,1.276-.356.904-.812,1.774-1.051,2.719-.242.957-.686,1.824-1.041,2.723-.445,1.128-.897,2.262-1.428,3.355-.529,1.091-.909,2.259-1.43,3.351-.671,1.406-1.203,2.875-1.84,4.297-.255.569-.525,1.147-.725,1.749-.138.416-.241.845-.39,1.256-.15.411-.385.792-.498,1.211-.129.479-.271.95-.535,1.356-.253.389-.13.856-.35,1.275-.332.634-.586,1.35-.697,2.063-.078.502-.269.952-.417,1.405-.153.468-.222.952-.37,1.415-.148.462-.327.916-.436,1.389-.22.951-.5,1.885-.734,2.831-.164.665-.416,1.313-.414,2.017-.253.28-.289.643-.251.986.048.441-.338.716-.317,1.128.04.809-.493,1.51-.389,2.33-.496.552-.088,1.402-.575,1.958.102.917-.408,1.731-.398,2.635.002.195.004.435-.094.577-.28.407-.229.867-.233,1.306-.004.513-.377.897-.342,1.433.035.537-.084,1.06-.264,1.594-.184.546-.102,1.192-.138,1.794-.003.048-.006.108-.033.14-.35.427-.217.956-.274,1.443-.034.299.063.667-.069.891-.415.701-.202,1.47-.316,2.198-.046.294.039.657-.096.88-.256.423-.215.863-.233,1.304-.04.954-.06,1.909-.086,2.788-.117.202-.191.331-.283.492-.025.821-.05,1.673-.075,2.526.365.705.153,1.468.198,2.205.024.392-.026.773.123,1.176.147.399.079.881.162,1.314.046.243.207.46.324.706.217-.212.143-.426.149-.618.069-2.11.13-4.22.196-6.33.009-.301-.068-.667.065-.891.331-.557.23-1.16.305-1.744.019-.148-.022-.343.053-.437.346-.435.291-.964.266-1.443-.031-.583.406-1.005.351-1.581-.077-.805.468-1.513.369-2.331.393-.516.147-1.197.363-1.717.26-.627.245-1.258.32-1.894.075-.128.151-.255.226-.383.052-.496-.022-1.062.185-1.469.325-.641.036-1.421.513-1.986-.054-.761.293-1.448.362-2.182.065-.692.446-1.314.378-2.029.314-.369.293-.835.305-1.279.011-.411.405-.685.315-1.129-.096-.473.246-.84.312-1.276.059-.388-.008-.788.235-1.153.244-.365-.008-.916.362-1.259-.012-.56.273-1.041.371-1.569.072-.387.053-.773.275-1.142.192-.32.004-.803.301-1.124.102-.837.493-1.581.692-2.383.247-.996.506-1.982.855-2.944.364-1.004.671-2.032.982-3.055.174-.571.471-1.073.661-1.621.318-.919.575-1.865.986-2.744.433-.925.73-1.908,1.136-2.846.538-1.243,1.013-2.524,1.556-3.767.546-1.248,1.061-2.51,1.596-3.762.439-1.027.789-2.093,1.23-3.121.343-.8.525-1.671.917-2.455.414-.829.567-1.759.886-2.626.184-.501.21-1.098.485-1.522.294-.453.155-.966.398-1.419.243-.455.364-1.027.423-1.538.065-.558.484-.992.39-1.57.319-.529.303-1.136.36-1.726.41-.446.134-1.093.385-1.556.283-.523.182-1.071.259-1.607.021-.148-.025-.341.048-.44.36-.487.241-1.057.28-1.596.047-.651.063-1.305.092-1.958.402-.578.23-1.254.284-1.89.031-.35.054-.706.025-1.054-.032-.387-.174-.767-.184-1.153-.02-.753-.026-1.512.046-2.26.073-.762-.262-1.473-.203-2.203.074-.915-.355-1.753-.257-2.656-.38-.472-.088-1.096-.297-1.581-.427-.991-.336-2.146-.917-3.082-.069-.111-.008-.303-.056-.439-.628-1.804-1.307-3.579-2.254-5.235-.704-1.232-1.475-2.406-2.278-3.568-.791-1.145-1.77-2.081-2.661-3.114-.437-.14-.653-.563-.977-.847-.325-.283-.693-.519-.987-.832-.8-.851-1.724-1.54-2.623-2.253-.456-.362-.883-.742-1.274-1.172-.592-.653-1.181-1.311-1.758-1.979-.252-.291-.445-.634-.656-.958-.805-1.239-1.311-2.616-1.761-4.013-.474-1.473-.695-3.121-.775-4.778-.004-.1.03-.226-.015-.296-.325-.505-.19-1.067-.183-1.607.013-1.005.058-2.01.091-3.015.008-.251-.06-.557.051-.743.356-.6.276-1.261.285-1.896.006-.428.234-.749.301-1.13.069-.393.062-.801.093-1.201.004-.045.042-.086.059-.132.527-1.416.674-2.943,1.163-4.376.33-.966,1.161-3.66,1.544-4.552.249-.581.446-1.186.695-1.767.269-.626.667-1.209.835-1.86.228-.881.736-1.591,1.086-2.393.351-.804.734-1.607,1.206-2.337.897-1.389,1.676-2.853,2.454-4.312.849-1.592,1.795-3.119,2.735-4.644,1.044-1.694,2.088-3.39,3.144-5.077.49-.784.907-1.61,1.39-2.395.814-1.324,1.622-2.651,2.295-4.062.313-.657.538-1.366.895-1.992.317-.557.568-1.147.739-1.745.192-.667.569-1.234.742-1.905.219-.85.601-1.652.663-2.548.468-.395.241-1.031.468-1.537.229-.512.164-1.172.224-1.732.14-.387.271-.749.418-1.155.243.116.456.31.658.297.96-.059,1.822.52,2.779.446.141-.011.314-.036.423.033.651.417,1.379.263,2.075.338.331.036.706-.059.989.075.861.408,1.764.282,2.65.335,1.472.088,2.947.12,4.42.184.28.012.602-.023.829.109.318.184.632.182.959.195.856.033,1.712.064,2.568.084.326.008.646.059.971-.126.187-.107.457-.065.69-.062.571.007,1.141.031,1.712.048.618.019,1.236.036,1.855.053.571.016,1.141.031,1.712.047.571.016,1.142.032,1.712.047.618.016,1.245-.028,1.852.064.59.09,1.091-.236,1.662-.237,1.552-.004,3.1.221,4.661-.099.822-.168,1.707,0,2.563.015.237.004.523.093.703-.014.545-.324,1.112-.163,1.669-.184.475-.017.998.142,1.416-.021.659-.255,1.303-.151,1.954-.185.236-.012.523.08.701-.03.497-.306,1.016-.167,1.527-.191.332-.016.72.116.988-.024.6-.312,1.207-.159,1.811-.201.188-.013.422.056.558-.038.444-.308.929-.226,1.383-.176.499.056.899-.255,1.373-.267.51-.013,1.012.066,1.54-.129.468-.173,1.026-.075,1.544-.097.048-.002.112.019.14-.006.325-.284.715-.266,1.088-.226.443.048.831-.254,1.227-.226.589.042,1.098-.319,1.656-.266.814.078,1.556-.408,2.368-.281.322-.286.714-.197,1.086-.244.366-.046.726-.24,1.084-.227.674.025,1.29-.239,1.923-.37,1.041-.217,2.091-.429,3.115-.72.984-.28,1.998-.397,2.972-.746.96-.344,2.006-.385,2.95-.824.494.109.897-.241,1.364-.301.408-.052.838-.166,1.192-.377.43-.256.973.031,1.341-.385.941-.094,1.762-.602,2.657-.86,1.744-.501,3.441-1.164,5.155-1.762.833-.291,1.659-.668,2.51-.861.906-.205,1.765-.617,2.705-.674.27-.016.527-.186.799-.234.278-.049.636.072.835-.073.521-.379,1.123-.04,1.65-.323.527-.282,1.119-.089,1.681-.088.856,0,1.716.117,2.567.061,1.016-.067,1.934.42,2.924.45.081.002.157.143.24.15.812.073,1.467.604,2.225.841.592.184,1.167.703,1.635,1.256-.047.079-.081.213-.143.23-.702.189-1.227.715-1.836,1.078-.407.242-.701.691-1.103.946-.868.552-1.507,1.32-2.118,2.153-.332.453-.453.975-.609,1.471-.142.453-.11.98.171,1.442.091.149.062.379.074.468.872,1.27,2.001,1.94,3.277,2.379.487.509,1.182.217,1.739.508.613.32,1.309.114,1.961.205.629.088,1.184-.256,1.799-.291.39-.022.772-.331,1.145-.536,1.221-.667,1.848-2.534,1.722-3.519-.049-.381-.16-.766-.246-1.142-.161-.705-.317-1.427-.734-2.055-.647-.975-1.213-2.012-2.021-2.858-.142-.149-.241-.304-.138-.576.952-.402,1.936-.838,2.934-1.232.563-.222,1.151-.373,1.726-.559.531-.172,1.067-.419,1.594-.489.605-.08,1.164-.425,1.79-.332.431-.378.995-.193,1.482-.393.51-.21,1.076-.301,1.626-.357.512-.052,1.033,0,1.512-.26,1.087.087,2.13-.434,3.158-.23.232-.115.4-.198.6-.297.651.021,1.316.044,1.982.065.615-.406,1.293-.185,1.944-.202.618-.017,1.236.023,1.855.03.421.005.782-.251,1.232-.23,2.709.126,5.42.197,8.119.287.134.083.256.159.465.289.433.015.954.028,1.475.05.523.022,1.088-.071,1.558.109.734.28,1.477.265,2.222.339.095.01.218-.022.28.029.454.377.996.257,1.505.318.142.017.322-.031.42.044.417.317.897.324,1.362.304.496-.022.893.377,1.352.331.557-.056.983.374,1.498.355.816-.029,1.536.478,2.349.427.31.278.691.272,1.065.331.362.058.714.301,1.066.291.421-.013.688.3,1.064.366,1.284.227,2.489.761,3.732,1.148,1.197.373,2.347.911,3.521,1.366.914.354,1.81.774,2.731,1.078.937.309,1.804.774,2.719,1.123,1.173.447,2.351.894,3.504,1.404.686.303,1.36.621,2.073.86.747.249,1.433.686,2.185.95.483.169.927.482,1.417.597.502.118.943.398,1.48.452.485.049.935.406,1.417.576.483.171.957.361,1.473.448.445.075.849.464,1.29.509.486.05.873.407,1.347.382.494-.027.893.351,1.349.34.46-.011.776.381,1.209.358.719-.038,1.339.48,2.063.403.356.305.793.356,1.209.308.466-.053.783.328,1.212.346.515.022,1.006.098,1.51.295.47.184,1.033.098,1.556.133.094.006.215-.017.277.035.456.385.999.253,1.509.298.521.045,1.045.06,1.567.088.641.452,1.376.277,2.073.329.996.074,1.996.092,2.994.137.236.01.527-.052.695.07.439.316.916.211,1.379.248.569.045,1.14.052,1.711.073.57.021,1.141.041,1.711.06.571.019,1.141.038,1.712.054.571.016,1.148-.021,1.71.059.585.084,1.103-.199,1.662-.216,1.504-.048,3.004.185,4.519-.123.999-.203,2.048.055,3.086-.203.711-.177,1.477-.022,2.228-.227.617-.168,1.315.068,1.934-.268.997.136,1.942-.411,2.941-.247.046.008.104.017.141-.004.432-.244.911-.184,1.368-.266.504-.09.992-.279,1.516-.231.503-.358,1.123-.115,1.632-.34.326-.144.64-.127.961-.182.318-.054.606-.211.937-.269.912-.159,1.837-.322,2.713-.616,2.029-.681,4.139-1.099,6.079-2.069.94-.169,1.722-.743,2.583-1.112.872-.374,1.637-.946,2.466-1.398.454-.247.825-.664,1.277-.918.637-.359,1.091-.973,1.699-1.335.764-.455,1.316-1.128,1.921-1.698.029-.333.156-.663-.308-.744-.362.272-.745.552-1.121.844-.755.587-1.576,1.075-2.332,1.652-1.259.962-2.619,1.714-3.987,2.468-.956.527-1.971.91-2.979,1.248-1.01.339-1.987.803-3.056.986-.862.147-1.686.51-2.543.732-.895.233-1.814.395-2.68.753-.544-.165-.987.301-1.511.27-.709-.042-1.36.418-2.081.274-.51.481-1.185.109-1.768.401-.575.287-1.314-.078-1.916.324-1.184-.14-2.322.423-3.438.23-.236.115-.405.197-.481.234-.903.039-1.69-.033-2.489.202-.528.155-1.142.081-1.702-.008-.593-.094-1.094.261-1.661.24-.951-.035-1.902-.046-2.853-.058-.233-.002-.505-.041-.69.067-.323.188-.644.143-.969.133-2.948-.092-5.896-.19-8.844-.291-.234-.008-.518.032-.691-.09-.352-.247-.724-.189-1.095-.228-1.544-.161-3.116.071-4.642-.433-.483-.16-1.042-.123-1.561-.089-.587.038-1.088-.276-1.643-.341-.696-.082-1.39-.061-2.077-.343-.504-.206-1.087-.127-1.64-.344-.549-.215-1.217-.05-1.767-.406-.682.098-1.26-.334-1.918-.419-.678-.088-1.343-.342-1.998-.6-.518-.204-1.116-.194-1.619-.423-.559-.255-1.165-.299-1.72-.588-.489-.255-1.09-.259-1.602-.476-1.461-.619-2.948-1.161-4.42-1.749-.782-.313-1.52-.732-2.309-1.018-.835-.302-1.636-.69-2.452-1.035-1.331-.562-2.71-1-4.023-1.613-1.316-.615-2.684-1.083-4.022-1.634-.902-.372-1.825-.705-2.738-1.059-.502.088-.892-.277-1.337-.407-.402-.118-.786-.301-1.213-.323-.35-.433-.888-.249-1.32-.446-.851-.387-1.78-.527-2.663-.825-.433-.146-.904-.171-1.352-.347-.426-.167-.912-.075-1.358-.339-.305-.181-.774-.042-1.092-.209-.368-.194-.739-.23-1.1-.2-.419.034-.699-.337-1.069-.32-.956.043-1.817-.542-2.778-.439-.134.015-.312.002-.406-.08-.331-.289-.721-.209-1.09-.244-.426-.041-.901.063-1.273-.101-.867-.382-1.764-.264-2.649-.348-.379-.036-.825.084-1.126-.09-.592-.341-1.199-.248-1.801-.275-1.901-.085-3.804-.133-5.706-.195-.238-.008-.504-.089-.708-.004-.925.383-1.871.128-2.806.165-.427.017-.913-.146-1.271.019-.613.28-1.211.143-1.814.181-.237.015-.513-.08-.706.019-.45.23-.913.259-1.379.205-.49-.057-.91.217-1.372.243-.654.037-1.296.018-1.95.217-.43.131-.91.173-1.366.249-.505.084-1.005.186-1.509.28-1.188.221-2.367.485-3.525.826-2.368.699-4.725,1.443-6.953,2.571-.203.103-.427.157-.623.227-1.098-.979-2.378-1.495-3.55-2.207-.237-.144-.533-.174-.782-.301-.383-.194-.875.018-1.2-.374-.025-.03-.086-.034-.132-.038-.284-.023-.573-.018-.853-.069-.271-.049-.532-.154-1.034-.306-1.319-.044-2.888-.096-4.434-.146-.149.084-.275.156-.51.289-.318-.01-.776-.135-1.161-.009-.414.136-.813.232-1.236.213-.433-.019-.764.342-1.228.287-.403-.048-.795.215-1.217.28-.448.07-.914.164-1.357.298-2.226.672-4.425,1.445-6.619,2.22-1.538.544-3.101.997-4.635,1.546-.661.237-1.362.297-2.017.543-.658.247-1.374.266-2.015.546-.61.266-1.298.168-1.881.515-.494-.117-.911.2-1.361.305-.452.106-.961.109-1.346.323-.449.249-.916.146-1.366.315-.822.309-1.708.478-2.567.597-.784.109-1.547.432-2.36.344-.117-.013-.249.131-.473.259-.33-.011-.757-.025-1.185-.039-.456.381-1.049.075-1.496.297-.517.257-1.021.141-1.53.192-.047.005-.109-.017-.14.007-.421.327-.912.279-1.371.218-.499-.066-.899.309-1.372.254-1.043-.121-2.04.388-3.085.236-.089-.013-.206-.008-.273.043-.386.296-.823.167-1.242.183-.332.013-.719-.108-.985.033-.51.27-1.028.243-1.526.172-.596-.085-1.09.3-1.661.256-.473-.036-.948-.036-1.315-.048-.275.136-.443.219-.51.251-1.1.068-2.081-.102-3.069.195-.526.158-1.143.077-1.702-.013-.592-.094-1.094.264-1.662.237-.665-.031-1.335.009-1.997-.053-.67-.063-1.298.155-1.946.209-.519.044-1.046-.011-1.569-.021-.523-.011-1.054.032-1.568-.046-.542-.083-.989.281-1.52.234-.662-.059-1.331-.042-1.997-.059-.666-.017-1.332-.036-1.998-.053-.713-.019-1.435.026-2.138-.074-.68-.097-1.289.239-1.948.211-1.188-.049-2.378-.071-3.567-.108s-2.378-.066-3.566-.125c-1.172-.058-2.348-.006-3.506-.35-.535-.159-1.135-.073-1.705-.098-.523-.023-1.051-.107-1.567-.053-.597.062-1.077-.319-1.644-.35-.888-.049-1.798.036-2.639-.384-1.009.101-1.91-.487-2.886-.449-.154-.191-.274-.341-.368-.459-.018-.942.095-1.83-.188-2.714-.145-.452,0-.963-.168-1.466-.165-.494-.207-1.048-.346-1.569-.541-2.025-1.561-3.964-2.852-5.37-.602-.655-1.752-1.436-2.767-1.962-.46-.239-.945-.425-1.393-.661-.517-.273-1.081-.261-1.599-.52-.483-.243-1.135.029-1.627-.377-.57-.025-1.14-.051-1.711-.074-.428-.017-.856-.029-1.215-.041-.239.101-.414.242-.585.236-.525-.016-1.012.172-1.514.241-.692.096-1.248.368-1.762.836-.542.494-1.048,1.018-1.335,1.719-.146.356-.209.749-.323,1.176.07.283.235.619.214.942-.029.445.162.816.345,1.116.379.623.718,1.278,1.213,1.832.943,1.057,1.919,2.054,3.152,2.732.165.09.298.242.46.338,1.058.627,2.095,1.305,3.191,1.848.71.351,1.448.657,2.165,1.001.762.366,1.562.617,2.36.866.845.262,1.617.768,2.517.839.573.457,1.406.199,1.977.841-.006.194.051.468-.033.678-.168.418-.329.836-.278,1.286.061.533-.321.926-.335,1.43-.011.397-.088.764-.28,1.139Zm112.166-8.185c.654.89.943,1.911,1.313,2.984-.015.484-.031,1.035-.048,1.622-.293.308-.6.62-.895.946-.305.335-.713.568-1.099.62-.466.064-.902.263-1.365.279-.474.017-.95-.023-1.424-.045-.091-.004-.185-.03-.269-.067-.642-.285-1.344-.374-1.981-.667-.341-.157-.662-.366-.986-.563-.549-.332-.901-.874-1.328-1.391.01-.329.02-.674.032-1.099.168-.554.583-1.015,1.015-1.481,1.366-1.475,2.979-2.559,4.808-3.461,1.035.542,1.591,1.454,2.228,2.322Zm-111.712,1.613c-.568-.389-1.272-.276-1.855-.62-.444-.263-.965-.332-1.458-.469-.535-.149-1.019-.454-1.571-.589-.489-.119-.941-.404-1.413-.606-.128-.054-.279-.053-.402-.116-1.213-.626-2.463-1.186-3.621-1.91-1.689-1.058-3.255-2.088-4.494-3.776-.201-.446-.401-.893-.642-1.429.014-.454.03-1.004.048-1.611.398-.515.833-1.057,1.504-1.235.626-.166,1.242-.415,1.906-.393.903.029,1.807.087,2.709.069,1.247-.025,2.376.456,3.531.834,1.229.402,2.241,1.199,3.202,2.063.316.284.547.678.799,1.036,1.048,1.489,1.711,3.144,1.906,4.998.386.472.046,1.097.284,1.582.262.535.096,1.081.138,1.62.011.144-.027.292-.041.417-.157.203-.39.23-.528.136Z" stroke-width="0"/>
      <path d="m302.599,40.024c.556,1.36,1.222,2.669,1.987,3.916.719,1.171,1.47,2.33,2.201,3.495.441.703.893,1.359,1.558,1.871.073.056.176.075.273.114h.514c.228-.209.478-.438.636-.582.025-.546.091-.934-.21-1.249.702-.793,1.418-1.574,2.101-2.381,1.086-1.282,1.985-2.675,2.621-4.218.126-.303.23-.616.369-.914.436-.94.757-1.914.951-2.927.025-.135.153-.258.157-.389.02-.574.013-1.148.016-1.722,0-.096,0-.191,0-.264-.327-.601-.37-1.296-.891-1.858-.238-.127-.538-.285-.804-.426-.385,0-.733,0-1.076,0-.167.129-.31.266-.479.365-1.071.629-1.89,1.484-2.607,2.472-.539.743-.887,1.565-1.328,2.348-.106.188-.275.343-.454.561-1.073-1.473-2.133-2.844-3.554-3.962-.445-.208-.927-.433-1.297-.606h-1.079c-.608.355-.876.851-1.004,1.221-.222.962.065,1.68.326,2.386.341.921.701,1.837,1.073,2.748Zm1.015-4.08c1.061.743,1.654,1.889,2.569,2.757.276.649.894,1.004,1.365,1.515.501,0,.992,0,1.514,0,.149-.192.319-.366.434-.568.397-.696.837-1.368,1.157-2.107.283-.653.688-1.25,1.218-1.756.458-.438.921-.871,1.355-1.282.264.013.416.052.457.309.202,1.268-.209,2.441-.674,3.575-.535,1.307-1.123,2.6-1.839,3.83-.406.697-.829,1.385-1.258,2.069-.298.475-.619.937-.953,1.44-.142-.073-.316-.106-.373-.203-.485-.82-1.026-1.602-1.693-2.369-.13-.015-.323-.037-.579-.066-.118-.153-.283-.329-.404-.529-1.079-1.794-1.759-3.761-2.628-5.646-.113-.244-.061-.558-.094-.934.237-.019.332-.027.426-.034Z" stroke-width="0"/>
      <path d="m322.026,230.563c.322,1.238.895,2.372,1.544,3.477.506.861,1.035,1.711,1.709,2.458,1.136,1.258,2.403,2.372,3.991,3.01.067.251.125.433.481.402.304-.274.63-.642,1.03-.908.531-.354,1.006-.711,1.347-1.269.319-.523.826-.923,1.195-1.437.536-.746.951-1.545,1.328-2.353.58-1.241,1.086-2.522.953-3.939-.04-.427-.006-.86-.006-1.202-.463-1.113-1.155-1.849-2.279-2.075-2.364.798-1.708.523-3.267,2.043-.236.412-.374.856-.678,1.134-.353.324-.255.809-.696,1.233-.991-.943-1.904-1.813-2.695-2.566-.596-.278-1.035-.483-1.428-.665-.498,0-.942,0-1.336,0-.349.188-.647.349-.923.498-.174.327-.33.618-.493.925.074.409-.114.86.222,1.234Zm2.612-.408c1.186,1.133,2.386,2.28,3.615,3.454.475,0,.821,0,1.119,0,.6-.326.908-.845,1.07-1.377.14-.462.382-.861.557-1.295.371-.918,1.009-1.617,1.787-2.205.172-.009.321-.017.528-.027.144.146.312.314.452.455.17,1.28-.161,2.075-.708,3.608-.59,1.653-1.561,3.132-2.309,4.711-.315.204-.635.412-1.001.65-.007-.002-.089-.021-.169-.046-.784-.247-1.144-1.053-1.901-1.336-.356-.452-.736-.888-1.063-1.358-.489-.705-1.069-1.387-1.377-2.163-.394-.994-1.013-1.903-1.224-3.019.183-.015.373-.03.625-.05Z" stroke-width="0"/>
      <path d="m33.63,213.304h1.135v-.01s.008-.005.014-.006c.083-.307.167-.614.264-.974-.312-.326-.646-.674-.978-1.02-.151.107-.267.19-.449.32-.597-.354-1.272-.684-1.706-1.255-.61-.803-1.349-1.498-1.927-2.332-.72-1.039-1.028-2.22-1.477-3.353-.099-.251-.015-.57-.015-.936.13-.22.296-.503.469-.798.367,0,.715,0,1.134,0,.589.437,1.121,1.008,1.651,1.575.226.241.42.536.537.838.166.431.47.717.837.964.434.178.764-.064,1.32-.458.249-.388.657-1.023,1.215-1.892.619-.707,1.593-1.407,2.714-1.874.623.157.628.714.921,1.169-.044.405.019.924-.174,1.33-.238.502-.024,1.037-.302,1.522-.231.404-.328.878-.505,1.313-.159.391-.379.762-.508,1.161-.117.357-.438.651-.364,1.067-.381.496-.518,1.116-.941,1.6-.342.392-.549.891-.879,1.295-.23.281-.407.655-.838.737-.002.005-.003.011-.004.016h-.01c.022.176.044.352.071.576.575-.341,1.123-.582,1.562-.946.676-.56,1.407-1.123,1.876-1.832.624-.942,1.271-1.896,1.689-2.956.24-.609.462-1.225.683-1.841.19-.531.093-1.106.345-1.65.167-.362.103-.856.037-1.277-.201-1.281-.489-2.531-2.142-3.028-.268.029-.68.009-1.041.13-.498.167-1.076.216-1.427.679-1.019.505-1.917,1.138-2.488,2.129-.1.174-.279.262-.505.213-2.159-2.217-2.117-2.125-3.236-2.548-.394,0-.792,0-1.087,0-.977.321-1.568.95-2.054,1.546-.074.286-.092.481-.174.647-.247.501-.243.999-.054,1.511.064.174.119.354.157.536.286,1.405.958,2.663,1.763,3.831.594.862,1.308,1.661,2.1,2.391.825.76,1.638,1.504,2.79,1.89Z" stroke-width="0"/>
      <path d="m34.78,213.288c-.006.001-.009.005-.015.006v.01h.011s.003-.01.004-.016Z" stroke-width="0"/>
      <path d="m25.029,427.237c.552-.617,1.218-1.157,1.764-1.833.568-.703.946-1.524,1.578-2.176.19-.846.902-1.452,1.115-2.303.22-.882.555-1.737.841-2.609-.034-.326-.062-.513-.071-.7-.016-.326.045-.671-.044-.976-.226-.773-.703-1.402-1.567-1.535-.457-.071-.966-.094-1.442.061-.371.121-.765.192-1.115.353-.341.157-.639.399-.928.586-.696-.09-.787-.735-1.186-1.07-.415-.349-1.044-.362-1.323-.864-.522-.158-1.044-.317-1.531-.464-.801.156-1.628.104-2.257.634-.145.204-.248.434-.425.582-.377.316-.501.776-.486,1.162.025.644-.008,1.298.196,1.95.259.83.648,1.59,1.043,2.355.792,1.535,1.656,3.023,2.813,4.342.506.576.976,1.166,1.694,1.531.189.096.288.358.422.534-.167.221.459.58.908.44Zm-2.677-4.589c-.509-.932-1.073-1.841-1.511-2.804-.412-.905-.691-1.866-1.043-2.84.109-.333.227-.692.35-1.065.18-.081.359-.161.554-.248.423.128.848.257,1.307.396.328.296.685.617,1.131,1.019.376.484.616,1.153.738,1.778.36.366.773.377,1.187.508.206-.182.417-.366.659-.579.108-.281.228-.593.347-.9.026-.044.042-.094.076-.125.213-.195.431-.385.72-.642.342-.064.767-.144,1.239-.232.119.207.213.371.309.537-.138.462-.255.873-.385,1.28-.146.457-.303.912-.459,1.366-.14.409-.303.812-.423,1.226-.122.421-.578.626-.668,1.089-.09.46-.233.97-.531,1.318-.292.341-.398.751-.747,1.359,0,0-.277.556-.839-.168-1.136-.468-1.232-1.652-2.01-2.273Z" stroke-width="0"/>
      <path d="m7.801,27.927c.566,1.284.726,2.736,1.701,3.852.543,1.136,1.332,2.096,2.272,2.951.398.362.784.736,1.181,1.1.108.099.232.181.331.257.215.042.412.065.598.121.18.054.35.143.482.199.317-.177.569-.318.803-.448.155-.474-.062-.753-.461-.933-.303-.023-.595-.046-.849-.066-.932-.878-1.859-1.661-2.538-2.682-.425-.639-.755-1.32-1.113-1.987-.244-.454-.394-.955-.594-1.431-.182-.435-.176-.907-.343-1.359-.172-.466-.038-1.035-.038-1.509.262-.356.489-.665.738-1.004.359-.112.677-.531,1.221-.294.693.505,1.289,1.117,1.369,2.052.346.583.33,1.263.549,1.883.103.291.26.504.615.616.201-.012.448-.026.69-.04.157-.261.409-.496.431-.749.071-.815.675-1.349,1.054-1.995.161-.274.468-.496.757-.667.409-.243.863-.416,1.344-.64.183.328.339.609.478.857,0,.427.093.839-.024,1.185-.139.411-.294.813-.237,1.236.061.46-.319.812-.284,1.226.045.549-.279,1.003-.316,1.514-.042.57-.435,1.058-.368,1.645-.387.468-.14,1.128-.522,1.597.063.581-.199,1.107-.304,1.659-.033.176.006.364.013.561.339-.055.449-.255.549-.464.717-1.488,1.574-2.91,2.161-4.462.232-.613.341-1.278.673-1.841.31-.525-.031-1.161.4-1.638.055-.061.052-.18.052-.273.005-.766.101-1.547-.02-2.295-.134-.824-.36-1.686-1.377-1.995-.137-.042-.261-.125-.354-.171-.246,0-.445,0-.66,0-.647.306-1.361.542-1.948.947-.639.441-1.161,1.039-1.807,1.636-.186-1.339-1.136-2.09-1.989-2.791-.518-.151-.935-.272-1.296-.378-.822.219-1.539.498-2.111.978-.324.51-.63.992-.986,1.553,0,.635-.006,1.21.004,1.784.004.236-.018.496.074.704Z" stroke-width="0"/>
      <path d="m312.08,448.8c.004.084-.071.171-.11.256-.295.641-.496,1.323-.698,1.985-.208.679-.671,1.257-.756,1.969-.751,1.542-1.604,3.023-2.937,4.328.218.058.271.092.305.079.92-.364,1.743-.88,2.399-1.594.452-.492.844-1.04,1.216-1.593.947-1.408,1.313-1.802,2.161-4.721.356-.412.083-.966.289-1.366.24-.465.217-.917.234-1.386.015-.382.003-.766.002-1.1-.397-.846-.472-1.819-1.267-2.22-.477-.147-.799-.247-1.13-.349-.398.144-.839.237-1.206.448-1.148.661-1.823,1.334-2.743,2.54-.222.291-.452.611-.893.765-.407-.715-.949-1.252-1.579-1.74-.129-.018-.278-.025-.419-.061-.181-.048-.355-.12-.475-.162-.371.107-.696.2-1.065.305-.208.344-.427.705-.564.932,0,.787-.071,1.42.024,2.028.071.453.221.905.323,1.362.2.89,1.555,4.027,2.054,4.787.55.838,1.059,1.722,2.001,2.25h.602c.096-.089.27-.251.354-.329,0-.602,0-1.032,0-1.303-1.135,1.035-2.343-2.968-2.542-2.985-.762-1.289-.903-2.755-1.313-4.136-.111-.377-.156-.844.062-1.214.27-.104.438-.01.558.151.285.383.595.756.821,1.171.215.397.502.69.874.894h.793c.411-.402.83-.776,1.125-1.3.299-.533.767-.979,1.167-1.459.473-.568,1.175-.842,1.726-1.272.189.021.333.038.488.055.14.252.279.5.428.768,0,.506.063,1.042-.017,1.556-.086.553-.32,1.084-.294,1.661Z" stroke-width="0"/>
      <path d="m223.284,479.991h0c-.001-.012,0-.009,0,0Z" stroke-width="0"/>
      <path d="m221.622,478.341c-.048.027-.13.111-.22.12-.893.094-1.527.594-2.116,1.19-.295.298-.55.648-.941.86-.957-1.007-2.27-1.351-3.353-1.939h-1.364c-.608.323-.836.846-1.086,1.465.114.179.234.293.264.426.294,1.306.867,2.724,1.483,3.636.16.236.313.477.458.721.78,1.312,1.803,2.462,2.675,3.713.054.077.138.139.218.195.078.055.168.094.251.14.149,0,.297,0,.498,0,.134-.165.28-.349.431-.53.151-.182.268-.426.464-.532,1.124-.607,1.856-1.523,2.379-2.627.263-.555.579-1.088.822-1.651.466-1.083.966-2.165.816-3.389-.008-.065-.016-.128-.018-.148-.299-.89-.797-1.44-1.662-1.65Zm-.474,4.097c-.782,1.46-1.186,3.078-2.048,4.504-.046.077-.125.135-.194.208-.448.035-.608-.274-.653-.603-.042-.307-.113-.557-.44-.737-.098.05-.218.11-.377.191-1.297-1.692-2.449-3.475-3.077-5.525.146-.3.448-.268.638-.182.847.381,1.692.769,2.313,1.492.342.398.694.806,1.162,1.052.466-.119.713-.42.928-.739.238-.353.416-.744.665-1.089.334-.462.764-.822,1.368-.929.37.851-.28,1.567-.284,2.356Z" stroke-width="0"/>
    </g>
  </g>
</svg>