<?xml version="1.0" encoding="UTF-8"?>
<svg id="Layer_2" data-name="Layer 2" xmlns="http://www.w3.org/2000/svg" viewBox="0 0 428.4230166 619.3471056">
  <g id="Layer_1-2" data-name="Layer 1">
    <path d="m425.8116377,222.3394837c-4.0517106-21.5295817-14.8990227-40.1235544-32.2400648-55.2641316-2.7308041-2.3848481-5.9152881-4.1734842-9.2864788-6.0672817-1.6873403-.9482356-3.432263-1.9276631-5.0977918-2.9819513-.7267603-.4607498-1.9804873-1.6023755-2.0694784-2.9632362-.2207327-3.4311156-.3934801-6.9165942-.5601202-10.2871083-.2198603-4.4444086-.4475727-9.0394299-.7878326-13.5408753-1.2336604-16.2625965-4.990479-32.4681563-11.1675055-48.1657328-11.1954242-28.4533055-36.6948526-38.5595005-57.0650805-38.5595005-.2059009,0-.4091844.0008912-.6142128.0026736-9.2629223.0926847-17.9020348,2.7163741-27.4275679,5.8765652-2.0590088.6808759-3.27522.2031933-4.3413678-1.7084282-2.076458-3.7261024-4.2262029-7.4976559-6.3052783-11.1435504-2.2256489-3.9052333-4.527202-7.9432553-6.7493611-11.9429557-6.1473628-11.0633425-12.7422982-17.5423581-21.3849005-21.0073392-7.2501539-2.9061994-13.83113-5.2429228-20.9748437-4.4194551-7.2222352.8332709-14.2743404,1.7307082-21.136249,3.5282562-11.2181082,2.9365002-19.3023352,7.3131777-25.4427183,13.7734782-6.6996308,7.0484917-12.7414258,15.3045578-18.4700071,25.2414249-.5601202.9705155-1.0486986,2.021239-1.5207002,3.0363145-.2224776.479465-.4423379.9526916-.665688,1.4107678-.270463.5525433-.8680991.8510949-1.4631177.7307831-1.0548058-.2156701-2.0886725-.4375786-3.1085798-.6568135-2.2108171-.475009-4.2994896-.9241732-6.4186983-1.272632-7.5110199-1.2334192-15.8002753-1.1754913-26.0900847.1818046-1.344463.1773486-2.7124824.300334-4.0360063.4188635-2.9271079.2620125-5.6919379.5106569-8.3128119,1.2993679-5.8926041,1.7743769-11.3542122,5.2420316-17.7074759,11.2424734-8.1932847,7.7364972-14.3266881,17.4327406-20.2576804,26.8090437l-.6639431,1.0498322c-5.7503929,9.084881-9.1137314,16.9791204-10.5847013,24.843059-1.5006335,8.0172248-2.5022192,16.2937885-3.4706513,24.2985365l-.2146255,1.7708121c-.5383087,4.4399526-.8602469,9.1757833.4152916,13.7253534.4510625,1.6193083-1.5023785,3.1762327-1.5224451,3.1922743-12.8853819,10.1302573-22.9937193,20.7185908-30.9008366,32.3692333-8.4820694,12.4963902-14.0488091,26.1397533-16.5449211,40.5495475-1.8640137,10.7603349-2.1196449,22.230064-.7817254,35.0642186,1.9377367,18.5957551,6.5377892,34.7148686,14.0618961,49.277949.6683054,1.2904559.4920682,3.0514648.1378489,4.1672458-.3760308,1.1835121-.84716,2.3287026-1.3034573,3.4355715-.6124679,1.4883021-1.1909098,2.8937227-1.5398943,4.347268-1.8818992,7.8336379-4.0141947,16.712652-5.6426439,25.4668982-1.631939,8.7729614-2.9183833,16.0888128-3.3938747,23.7023245-1.1080259,17.7250538,2.9764019,34.4091874,7.117976,48.3912061,3.386895,11.4340812,8.3363683,20.657098,15.1310975,28.1975315,5.5174457,6.1234273,10.591681,11.3217901,15.5106182,15.8918578,2.7595953,2.5621967,6.2887015,4.4916422,9.4033886,6.193832,1.8941136,1.0346819,2.6435579,2.1353124,2.8660356,4.2046762.1989212,1.8563672.3812656,3.7180816.56361,5.5806872.5897839,6.0218306,1.1987619,12.2495281,2.4106108,18.2080836,2.8660356,14.1067865,8.7795787,28.3641857,18.6087285,44.8700795,7.1410963,11.9910805,15.4224996,20.2204106,25.3179564,25.1585434,9.5202984,4.7500898,18.3783987,6.9700662,27.0593892,6.790044,3.2001883-.0659487,6.4797706-.7557366,8.9793724-1.3483839,2.4097383-.5721497,4.8194766-1.4588925,6.9683489-2.5639791,1.3147993-.6755287,2.2430982-1.0738946,3.0588495-1.0738946,1.0897042,0,1.9804873.7093943,3.3310575,2.4151489,1.8260616,2.308205,3.6285668,4.6404724,5.431072,6.9718486,4.5193499,5.8471556,9.1931254,11.8939398,14.1836044,17.4354142,12.182178,13.5266161,25.6817727,20.3371577,41.27004,20.8192962,15.1703582.4562938,27.6544079-3.585293,38.1317964-12.3956847,7.1646527-6.0245042,12.8766573-13.8955724,18.5214823-25.5212613.6556547-1.3497207,3.0320214-5.1382069,4.0353519-7.912509.1971763.1399182.3950069.2784996.5921832.4193091,1.1507765.8225765,2.2387359,1.5997019,3.3991095,2.2342355,7.925439,4.3312264,16.5706587,6.6866649,25.6948597,7.0003669,9.5316404.3172668,18.7657715-2.904417,28.1839919-9.8798304,10.7417443-7.9557321,18.664566-18.716067,25.6250628-29.159135,10.0289434-15.0461101,15.0761324-31.8059956,15.0019732-49.8126683-.0052348-1.2779791-.0619448-2.5924974-.1160374-3.863347-.0750317-1.7244698-.1518083-3.5077587-.1055678-5.2830268.0305361-1.2138128.9457481-2.9828425,2.2090722-3.5790546,11.5810522-5.4550281,21.7618038-13.7716958,31.1250592-25.4250119,12.2266736-15.2198939,19.2909932-33.7960426,21.5951637-56.789864,1.0940666-10.9091651.8794411-22.2826447-.6377693-33.8049546-1.7841835-13.5471137-4.5437788-27.7733208-12.5843827-40.0308697-.4833436-.7361302-.7660211-2.0150006-.338515-2.9365002,1.5974768-3.4489395,3.2769649-6.9228326,4.9014879-10.2826523l.9579626-1.9838086c4.4914311-9.3067895,7.7736308-17.2669776,9.1896356-25.8715025,1.253727-7.6090557,1.8557253-15.1771163,2.2788691-21.5777064.9335337-14.0907449.1858343-27.7234137-2.2221591-40.5174643Zm-2.4455092,59.0838099c-1.3278862,8.1856614-3.7960794,15.9390914-7.3356552,23.0455109-1.3025848,2.6147774-2.5406075,5.3329339-3.7384969,7.9610793-.8497774,1.8670616-1.6995547,3.733232-2.5798683,5.5833608-.7459545,1.5676188-1.5041234,3.0808744-2.5781233,4.3740039-.8314557,1.0025987-.8305832,1.6531739.0034898,2.783214,6.3270898,8.5822449,10.4294032,19.1447336,12.5425046,32.2908078,2.1296782,13.2494532,2.6932882,26.8233029,1.6725084,40.3454629-.9370235,12.4348975-3.273475,23.0695733-7.1428412,32.5118251-7.7221555,18.8408348-19.5501143,33.4814494-35.1558307,43.5163484-3.2830721,2.1112501-6.9203635,3.6610449-10.4372553,5.1591501l-.7607863.3243964c-1.433454.6131448-1.8478732,1.272632-1.771969,2.8242091.0619448,1.2512432.136104,2.5033776.2102632,3.7564031.2303298,3.8740414.4676393,7.8799802.3167035,11.8395767-.6648156,17.3783775-6.289574,33.4600607-17.195341,49.1665491-8.5527388,12.3190416-17.0766863,20.831773-26.8246971,26.7903285-15.5149805,9.4823557-34.9359704,8.3380564-49.4781565-2.9151114-.5627376-.4357962-1.5529812-.7111767-2.3242371-.6434456-.2992542.0276272-.5042827.1149647-.6098505.2611213-.0635806.0882287-.1007693.2187893-.1203997.3689563-.973885,1.2971399-3.0070472,4.9916047-3.5866887,5.7927925-1.0923216,1.5087996-1.9612931,3.2172278-2.6679869,4.6885971-2.8939543,6.0351986-6.7092279,11.8074935-12.0068133,18.1653061-9.7131124,11.6568809-23.1498899,17.1947905-40.9716582,16.9782292-12.635858-.1648718-24.2334869-5.3284779-35.455085-15.7858052-9.5866055-8.9342684-17.433523-19.800656-24.3565039-29.3881731-.429251-.5944296-.9021251-1.1585585-1.4037903-1.7565529-.4685118-.5587817-.9536003-1.1371697-1.4072802-1.7503145-.7511892-1.0177491-1.4980162-1.3991822-3.0972378-.3493499-.3856279.2522093-.7616588.5766057-1.1595012.9206084-.4615321.3983659-.9396409.8109909-1.4945263,1.1683617-.2783152.179131-.5575028.3707387-.8375629.5641289-1.0757449.7405862-2.2954459,1.5792044-3.6878942,1.8501288-.8942729.1737838-1.7876733.3627179-2.6828187.5525433-5.0803425,1.0738946-10.3343049,2.1878932-15.7932956.5266985-1.6821055-.5115481-3.3764255-.9910131-5.0716179-1.4713693-4.2802955-1.2120304-8.7054195-2.4659472-12.8871268-4.2305209-9.0753431-3.832155-15.309952-11.3716973-20.695656-18.9495611-11.5513885-16.2519021-19.2133442-34.6159456-22.7721141-54.5805821-.926554-5.1956893-1.2842631-10.5473383-1.6297578-15.72253-.1169098-1.7520969-.2338196-3.5033027-.372541-5.2491612-.1282518-1.6184171-.531329-2.1406596-2.0520291-2.6584462-3.1382435-1.066765-5.7713319-2.4712944-7.8233611-4.1752666-8.3363683-6.9183766-15.1424395-13.7841725-20.8082036-20.988624-8.388716-10.671215-12.3322414-23.3485186-14.8309707-33.201613-3.5954133-14.1825384-4.9900428-27.5389355-4.2645912-40.8320575.4776726-8.7506815,2.0751494-18.0744038,4.8831663-28.5032127.779108-2.8946139,1.4020454-5.9059747,2.0049162-8.8184126.6211925-3.0042313,1.2641965-6.1100593,2.0851827-9.1347882.654346-2.4106929,1.8531079-4.6271044,3.0126091-6.7704376.2966369-.5471961.5915288-1.093501.8768237-1.6406971.6534736-1.2521344.7398472-1.9579639-.0759041-3.4302244-3.1705246-5.7161494-5.4511386-10.4992136-7.1768672-15.0523485-6.6987584-17.6635611-9.6271749-36.1862379-8.7049833-55.0546999,1.2175198-24.8929662,9.2118833-45.4573795,24.4406965-62.866949,8.0737575-9.2319288,15.2357928-16.1431759,22.5382944-21.7479254,1.0399739-.7985142,2.2055823-1.4232446,3.2350867-1.9740054.5260942-.28251,1.1804402-.7281095,1.310437-1.2530256.1317417-.5338281-.247779-1.2619376-.5897839-1.7779417-.6142128-.9286292-.9736669-2.0230214-.9858813-3.0024489-.2416718-19.2088999,1.7580097-33.6169117,6.4832604-46.7184259,1.6821055-4.6645348,4.2331825-9.0260619,6.7005033-13.2432148.5513956-.9419972,1.1019187-1.882212,1.6410998-2.8242091,5.126583-8.9440716,11.6700432-19.1839463,21.3360427-27.321483l.3777758-.318158c4.9119575-4.1378362,9.9905551-8.4164819,16.6893135-9.2613384l1.9499512-.2477533c13.0127613-1.6549563,26.4678604-3.3669492,39.7973252.4732266.4641494.1336798.9274264.2762716,1.3907034.4197547,1.106281.3413292,2.1514897.6639431,3.2124027.8617893,1.4081526.2629037,1.8496181.0704047,2.48477-1.8652792.9099772-2.7707372,1.7841835-5.2375756,3.2656229-7.3809088l1.6855954-2.4409936c4.4338487-6.4273261,9.0186331-13.0729959,14.0422657-19.2071175,6.4160809-7.8363114,15.4547806-11.3324845,24.2675129-13.9436971,6.8113059-2.016783,14.0300512-2.931153,20.1939908-3.558557,9.1076242-.9313028,17.3331899,2.3144434,23.484915,5.2429228,8.3747566,3.9872236,13.1305435,11.2273231,17.2843321,18.3016595,2.4655758,4.1984378,4.899743,8.5056018,7.2545163,12.670174,1.5835174,2.8028204,3.1679072,5.6047495,4.7723637,8.3950931.8000471,1.3920526,1.75103,2.8340123,2.9070413,4.4069783,1.2284256,1.671889,2.2701445,1.9936118,4.4652573,1.3786846,1.8382761-.5151129,3.6713174-1.0605266,5.5052312-1.6068315,4.6170655-1.3742286,9.3911741-2.7947996,14.2115232-3.6922368,14.1251495-2.6290366,27.8367523.2834012,41.913044,8.9084237,9.7070051,5.9478611,16.7940088,15.1699867,22.3018574,29.0218904,4.8639721,12.2361601,8.0057055,25.1139835,9.3370815,38.2760992.7363574,7.278421,1.1280925,14.6994338,1.5076132,21.8762581.1561706,2.953433.3123412,5.9077571.4920682,8.8594077.0401332.6683991-.0122145,1.3403631-.0636897,1.9909382-.0689244.8680277-.145701,1.85102.0994606,2.2351267.1936864.3038988,1.3017124.6015592,1.9630381.779799.5496507.147939,1.117623.300334,1.6506969.5124393,6.1089745,2.4329728,11.6124608,5.9942034,16.3569057,10.5856599,12.4002934,11.9999925,20.7174676,24.5106418,25.4278865,38.2466897,3.6634653,10.6863654,5.5287877,22.4252366,5.8681751,36.9419745.3140861,13.4606674-.3167035,24.5222274-1.9865945,34.8111181Z" stroke-width="0"/>
  </g>
</svg>