<?xml version="1.0" encoding="UTF-8"?>
<svg id="Layer_2" data-name="Layer 2" xmlns="http://www.w3.org/2000/svg" viewBox="0 0 429.8806607 654.4499682">
  <g id="Layer_1-2" data-name="Layer 1">
    <path d="m52.4246723,37.6595423c.9560026-.8123768,1.976087-1.6768465,2.9938183-2.5444405,5.7517014-4.9032281,12.2933122-7.9674703,19.5083833-9.4177999,3.5556496-.7147304,7.1658033-.9490034,10.7754555-.9126105,6.0972487.0614718,12.1957052.1721793,18.2893074.3962848,4.3512511.1600251,8.6807029.6695926,12.9926855,1.3565931,2.825731.4502008,5.6515532.9741187,8.5266262.9647277,1.4264374-.0046591,2.8528976-.0008099,4.4637803-.0008099.2503675-.3124337.5733919-.7103565.8911744-1.1129656,2.3314457-2.9537562,4.9735633-5.5625926,7.7907706-7.9794244,4.6115554-3.956166,9.4451722-7.551615,14.7008961-10.4907418,3.4143243-1.9093693,6.8209226-3.8212107,10.4417309-5.2669965,2.8642246-1.1436788,5.798428-1.9825237,8.8241477-2.4468109,2.6174238-.40164,5.2207401-.1757692,7.7966848.3642522,4.3158571.9047771,8.3444371,2.5832904,12.0284441,5.1749768,4.2486472,2.988904,6.9777684,7.0981443,8.1049521,12.3883148.7487209,3.5140518,1.0709818,7.0583178.5084383,10.6481037-.0173437.1107985.0672554.2397116.1367216.4654156.5688565-.2289617,1.138488-.444201,1.6979319-.6861421,1.4390293-.6223255,2.8664125-1.275754,4.3113673-1.881885,2.9310014-1.2295121,5.9352978-1.2350175,8.9958188-.6490363,4.6240333.8853446,8.4927819,3.2609151,11.891882,6.6234349.9106491.9008657,1.8450916,1.7763917,2.7969919,2.6275546,1.0063929.899889,2.1229334,1.6168762,3.4482369,2.1179385,2.2380038.1969974,4.5112648-.0409428,6.7421578-.7552728,4.066481-1.3020887,7.994759-2.9072504,11.4477819-5.6351509,1.7582134-1.3889943,3.2948781-3.0277371,4.8630624-4.6353922,1.6584128-1.7001631,3.2962-3.4238309,4.9786114-5.096625,1.8264032-1.8159604,3.8720533-3.3315594,6.0359644-4.6480742,3.8424709-2.3377459,7.8498555-4.2516681,12.1147753-5.5985487,3.4395081-1.0862124,6.8500719-1.1518155,10.3222619-.4464366,2.2062791.448214,4.3219422,1.2227177,6.4215151,2.052023,4.2619342,1.6834165,8.359365,3.7519677,12.4039669,5.9519616,2.545633,1.3846689,5.0959381,2.7818802,7.9069007,3.4844443.9656203.2413435,1.9449378.5018267,2.9286539.5648273,3.226939.2066704,6.460077.475219,9.6907309.0910854,2.162179-.257089,4.3192529-.5668414,6.4746403-.8836975,2.2173098-.3259529,4.4251158-.7282284,6.6452973-1.0281287,5.0339701-.6799694,9.8338339-2.2448739,14.5132258-4.274102,2.8780357-1.2480665,5.7477073-2.5183121,8.6141425-3.796335,4.5530402-2.0299864,9.2638378-3.4550612,14.1518105-4.1951662,2.230027-.3376536,4.4837564-.3604333,6.7017499-.0251775,4.7405167.7165337,9.4437934,1.6640887,13.9978819,3.2933466,1.8558033.6639174,3.7143414.9518455,5.6860128.6596011,1.597949-.2368482,3.2204208-.1126912,4.8363289.1185818,2.3235602.3325623,4.0548349,1.6296916,5.359604,3.593626.7505898,1.1297668,1.4607032,2.3311061,1.9573588,3.6028138,1.1918183,3.0516058,2.387283,6.1006333,3.3629084,9.2511745.7994531,2.5815675.7954875,5.1009959.0978178,7.6152313-.5715003,2.059509-.6733748,4.1679019-.9253491,6.261086-.4186201,3.4783171-.728027,6.9715578-1.1493363,10.4494684-.182417,1.5058744-.4281466,3.0198112-.8188708,4.477269-1.3204947,4.9255224-1.4443851,9.9185468-.9310923,14.9652839.0803601.7896941.1767193,1.5813356.1940858,2.3738628.1134522,5.1732539.769734,10.2889671,1.3698138,15.413501.439542,3.7541547.489636,7.4999497-.0583898,11.2778243-.5518547,3.8042154-1.2920063,7.5406559-2.2748336,11.2437064-.7426586,2.7979291-1.3112417,5.6548489-1.8276795,8.5120719-.3987921,2.206385-.5802063,4.4565337-.8867872,6.6827561-1.1315596,8.2164879-1.5596606,16.4713525-1.082286,24.7621064.1979603,3.4372894.6052761,6.87305,1.5150819,10.184047,1.326238,4.8261168,2.7617802,9.6201176,4.2417189,14.395834,1.2854426,4.1479431,2.7114127,8.2432897,4.2679738,12.2902256.8692839,2.2601827,1.5513192,4.613571,2.1683097,6.9692889.7574726,2.8922874.9888896,5.843978.5577802,8.851092-.4407271,3.0740397-.7519117,6.1688995-1.1476954,9.2506073-.770828,6.0021437-2.4394738,11.7549301-4.370532,17.4255761-1.2296509,3.6108519-2.6418099,7.1434459-4.2507896,10.5865227-1.8565326,3.9726577-3.5422715,8.0276015-5.1273209,12.1328971-1.276463,3.3060225-2.7314686,6.5351461-3.9671362,9.8574268-1.876634,5.0454814-3.7433768,10.1011059-5.406872,15.2287276-1.6066551,4.952397-2.7017951,10.0581794-2.9203125,15.3252092-.0519173,1.2504264.048681,2.5119908.1340551,3.7641886.2986041,4.3807389,1.1366191,8.6231616,2.5540656,12.771311,1.3856306,4.0548952,3.0663099,7.9670821,4.7771186,11.8588613,1.9301466,4.3908578,3.5975162,8.8666465,4.8797225,13.513826,1.1037549,4.0001026,2.297442,7.9729545,3.3483224,11.9884174,1.0704804,4.0904449,1.827087,8.2393222,1.7431259,12.5294033-.0508689,2.6033038-.5085067,5.1334456-.9716143,7.6644124-1.2599169,6.8852315-2.6334685,13.7476773-3.8256058,20.6458668-.6967125,4.0314785-1.1433196,8.1125324-1.6818189,12.1743677-.4604183,3.4727056-.9257593,6.9454112-1.324278,10.4264643-.3233092,2.8244154-.566623,5.6597021-.8162727,8.4930959-.2497408,2.8338306-.5206769,5.6676128-.6796195,8.5079467-.2480087,4.4321828-.5188537,8.8898448-.0257079,13.3031972,1.015965,9.0922717,2.7454165,18.0232231,5.826039,26.620226,1.3726399,3.8305804,2.7766854,7.6629565,3.5247226,11.7106689.2158738,1.1681647.4446471,2.3404546.554863,3.5227421.4434164,4.7557455.5916017,9.5181883.061854,14.2796605-.3440944,3.0922634-.9420775,6.1358978-1.541975,9.1818132-.943764,4.7922415-1.8406702,9.5955483-2.6975104,14.4062805-.2887585,1.6211136-.4533076,3.2742098-.5730956,4.9210454-.2354282,3.2343165-.4976127,6.4723215-.5624295,9.7129957-.0528289,2.6429544.0722466,5.3005169.2842459,7.9364827.3554442,4.4195159.9554784,8.8090876,1.6753463,13.1812363.9975501,6.0589261,2.9296567,11.7509504,5.6870156,17.1468812,2.3783946,4.6542166,4.5939723,9.3962275,6.5379301,14.2771369,1.289864,3.2384417,2.3657686,6.5523507,2.9107404,10.0324817.3805596,2.4299961.4440545,4.8771725.0423452,7.3154675-.3327902,2.0199009-.6321236,4.0503332-1.0698423,6.0453857-1.0098115,4.6028212-3.1518663,8.644273-5.8639172,12.3097476-3.3970945,4.5912706-7.2288994,8.7502183-11.6267347,12.290529-3.2000003,2.5760288-6.7146039,4.51294-10.4220169,6.1152717-4.5391834,1.9619052-9.2609662,2.9854931-14.1177611,3.4671729-2.9090539.2884741-5.8036585.7388508-8.7107068,1.0540175-3.217458.3487993-6.4417989.6244124-9.6629034.9351141-5.140813.4957541-10.2913121.9011417-15.4192712,1.5182258-4.9777682.5989817-9.8007189.0143169-14.5382956-1.6063599-2.1663041-.7410348-4.0217428-2.0793525-5.7568919-3.6039846-1.1992936-1.0537748-2.3360951-2.1876759-3.5159254-3.2670271-1.705658-1.5604972-3.5222384-2.9396304-5.6209908-3.8567877-2.812011-1.2288296-5.5745661-1.1152163-8.2927021.3145357-1.5252238.8022821-2.8213324,1.9394349-3.9981088,3.2261631-1.1717396,1.2812442-2.2982624,2.6093217-3.4475532,3.9139583-.6808957.7728717-1.3385905,1.5721934-2.0563161,2.3045409-3.8711416,3.9496293-8.5322099,5.8604788-13.8592231,5.828108-2.2318503-.0135404-4.465934-.2890565-6.692041-.5211849-2.9066153-.3030337-5.803499-.7117214-8.7096585-1.0204333-5.459359-.5798601-10.8134932-1.7240985-16.0844869-3.3239551-.8351662-.2534825-1.6600993-.563893-2.4624696-.9180794-3.905191-1.7238073-7.7738257-3.5307984-11.5180685-5.6331551-1.4819442-.8320807-3.0183355-1.5617105-4.5586239-2.2669772-2.3291439-1.0663446-4.7786912-1.3775316-7.3023995-1.2277134-6.5443343.3887897-12.7624194,2.0682387-18.6162631,5.2334942-1.3855166.7492367-2.7873059,1.4643068-4.173096,2.2129611-3.6508693,1.9723395-7.5415882,3.0539717-11.5925031,3.512793-2.906433.3292409-5.8163757.6304789-8.729099.8881352-5.4040687.47804-10.811009.4774091-16.2181089.0184422-.9918296-.084203-1.9885365-.1174959-2.9836935-.1405001-4.9160167-.1133222-9.8049124-.6527066-14.7032777-1.0437287-.4341519-.0347004-.8698423-.0576075-1.3051224-.0648387-4.1107747-.0683816-8.1823836-.6184915-12.2580606-1.1209916-2.346066-.2892991-4.6977385-.5326384-7.0383233-.8650825-3.0181987-.4288285-6.0268709-.9332699-9.0415598-1.3908779-1.4145976-.2147055-2.8303461-.4301389-4.2513252-.5860721-3.5898015-.3939341-7.1493939-.9845682-10.6834607-1.7582164-5.0728169-1.1105572-10.1839678-1.7206042-15.3774274-1.5200215-2.6720304.103276-5.3506928.0399903-8.0260164.0126183-3.4306083-.0350401-6.8433259.1602526-10.2159432.8561526-2.0768505.4285374-4.1163129,1.0080092-6.0732386,1.893378-2.3487895,1.0625591-4.6533479,2.2207747-6.8265234,3.6461589-2.911464,1.9096847-6.1141309,2.8702782-9.4413548,3.5230818-2.2175947.4350892-4.4372918.4548417-6.6782697.5057517-5.0720078.1152634-10.0365118-.6891055-14.9950902-1.6500872-6.3692503-1.2343623-12.0273245-4.1748177-17.225818-8.1841899-2.3341208-1.8001966-3.9390495-4.2007338-4.7592763-7.1640477-.4230614-1.5284661-.6417926-3.0875558-.7805909-4.67989-.3689733-4.2328619-.2201812-8.471936-.2832773-12.7089231-.0660675-4.4367933-.1895419-8.8725674-.2992308-13.3085357-.0689135-2.7869002.129081-5.5508448.461421-8.3157115.8728962-7.2619367,3.4350382-13.9139236,6.3734381-20.4422509.8587289-1.9079376,1.6456357-3.8531478,2.4386904-5.7936503.7034956-1.7214777.9912342-3.5338559,1.0342232-5.4107815.1048687-4.5783611-.1470857-9.1341063-.5870549-13.686891-.34363-3.5558409-.5686885-7.1245912-.873919-10.684897-.4694035-5.4752805-1.2385079-10.8955743-2.3197228-16.2808766-1.4828444-7.3857418-3.4210533-14.6419032-5.2378104-21.9326194-.6685745-2.6830418-1.5519288-5.3066319-2.3679622-7.9465773-1.422224-4.601074-2.6339755-9.2597555-3.0068888-14.1029556-.2436813-3.1648187-.3447126-6.3400718.1236169-9.5127042.356427-2.41466.5483078-4.8564493.8413425-7.2823202.1267136-1.0489216.282699-2.0978432.4964077-3.1301184.7353542-3.5522495,1.4553389-7.1094007,2.2758677-10.6397623.432041-1.8588718,1.0212354-3.6804224,1.6081165-5.4936256,1.4590851-4.5078441,3.1295058-8.9285248,4.9116266-13.3027119,1.1470658-2.8153885,1.8146746-5.7543394,2.0125351-8.828646.263344-4.0917309.6107772-8.1772983.913421-12.266263.0439377-.5935946.0841291-1.1941778.0502735-1.7866077-.1660988-2.906386-.3424563-5.8123351-.5447012-8.7161003-.2117828-3.0406739-.622164-6.0577613-1.2172755-9.0366055-.6722381-3.3648675-1.4589427-6.7037219-2.186679-10.0561653-.3499516-1.6120624-.7100052-3.2227174-1.0116348-4.8453597-1.1231555-6.0420612-2.6963082-11.9686649-4.052835-17.9505465-1.0939492-4.8240299-2.3082106-9.617145-3.4716886-14.4232667-.7163638-2.9591887-1.112968-5.9702824-1.3024245-9.0154213-.0205601-.3305028-.013814-.6636262-.0470913-.9924061-.307766-3.040407-.3029742-6.0722481.0736197-9.1111749.4305567-3.4743799.7195317-6.9760106,1.5183438-10.382106.9181244-3.9148562,1.9379439-7.8027285,3.2747796-11.587058,1.159652-3.2827029,2.2708566-6.5850855,3.4561539-9.8571599,1.0065097-2.7785285,2.0704435-5.5340285,3.1413655-8.2854276,1.2221299-3.1398976,1.8679166-6.4376696,2.4570226-9.7567715.6939406-3.9096875.9404707-7.8652863,1.2191985-11.8251316.209612-2.9778736.3081705-5.9489041.2513618-8.9296168-.1657313-8.6963478-1.962424-17.0481186-4.6442715-25.2247132-2.5846422-7.8802341-5.4016728-15.6572164-8.7051032-23.2317719-1.3875735-3.1816351-2.70157-6.3997904-4.0351095-9.6079239-1.9751313-4.751596-3.2525144-9.7101444-3.9345454-14.8555289-.5569413-4.2016923-.8053445-8.4279296-1.0518447-12.6571516-.1897926-3.2562651.1109794-6.4840177.4841192-9.7027554.24314-2.0973458.5755271-4.1867323.9600537-6.2603217.23971-1.2926856.5874424-2.5730077.9970686-3.8177073,1.3572077-4.1240168,2.8653812-8.1835832,4.5641649-12.1664327,1.3130051-3.078359,2.343898-6.273765,2.8805171-9.6223501.1773318-1.1066019.3042363-2.2259798.389126-3.3451029.3300411-4.3511829.9200417-8.6878426.8545326-13.0630731-.1015982-6.785474-.8972994-13.4697832-2.9969065-19.9134101-1.4363542-4.4081291-1.8841549-8.8798776-1.1525128-13.4937216.3097858-1.9535577.5131104-3.927432.727782-5.8966412.3129252-2.870442,1.2096919-5.5562743,2.4335681-8.0922157,2.1308503-4.4152633,4.2609144-8.8380855,6.9915112-12.8903417,2.4538035-3.6414877,5.4080172-6.7673534,8.7948673-9.3896271,2.214327-1.7144467,4.6311526-3.1434283,7.3963115-3.6192479,1.5309557-.2634255,3.0897046-.4590458,4.6373716-.4708694,2.4840468-.0189699,4.9726858.0805691,7.4530291.2412282,2.2311267.1445222,4.4537182.4385713,6.9515192.6944805Zm357.6796737-21.5513067c-.55737.0653453-1.0501511.1506493-1.5457582.1767262-3.0553704.1607652-6.1114701.1643748-9.0486933-.8873769-2.9520828-1.0570659-5.9739052-1.7961321-9.0036588-2.5272238-3.2525557-.7848622-6.4745719-.9632475-9.7874319-.2447559-3.5491998.7697535-7.0041828,1.8015494-10.3512289,3.2503412-3.1666803,1.3706947-6.3152192,2.7888203-9.471165,4.1874694-4.7833633,2.1198646-9.7199258,3.6818359-14.8434407,4.5231135-3.6251158.5952477-7.2633134,1.0995981-10.8925315,1.6673889-2.9021711.454047-5.816125.63441-8.7450981.4872701-2.2981485-.1154424-4.5989407-.2133466-6.8904799-.4204173-1.3563673-.1225645-2.710296-.3770813-4.0420949-.6859358-3.247405-.753101-6.2304149-2.2518837-9.1639688-3.8589534-3.4842919-1.9087687-6.9975963-3.7512882-10.6473488-5.2754987-1.6763719-.7000798-3.3885024-1.304309-5.0908102-1.9324402-2.1900065-.8080847-4.3906563-.7416626-6.6083307-.0954169-4.3506813,1.2678251-8.4168204,3.2327271-12.2608411,5.714437-1.753792,1.132254-3.4383685,2.3936729-4.9275602,3.914838-1.6164095,1.6511246-3.2182329,3.3184528-4.8266884,4.9784132-1.6078858,1.6594144-3.1803319,3.3557223-4.9894826,4.7829689-2.6694094,2.1058995-5.5892434,3.6761152-8.6783896,4.9622551-4.340266,1.8069972-8.7631939,2.9195442-13.466744,2.5689553-1.8932029-.1411249-3.6803833-.5405249-5.3722984-1.4660721-2.0166602-1.1032168-3.7057038-2.6552148-5.3575756-4.2732163-.9144551-.895694-1.8215716-1.8166307-2.8251385-2.5889474-2.0770557-1.5984431-4.2953454-2.9163138-6.8650227-3.4301673-.687072-.137394-1.3642529-.207911-2.0288077.0171834-1.4189278.4806425-2.8630394.9067381-4.2313719,1.5206433-2.691129,1.2073906-5.338044,2.5265413-8.0020292,3.802356-.3920461.187752-.7774145.3913801-1.0645548.5364725-.7433879,1.2287569-1.4132074,2.3441915-2.0907301,3.4543241-2.4821152,4.0669736-5.7217486,7.3139812-9.5232646,9.9484243-2.1953851,1.5213925-4.5072536,2.8180517-6.9366539,3.8530143-4.1397759,1.7635974-8.4718372,2.7266174-12.9101033,2.8005377-4.6284889.0770809-9.1648235-.7774459-13.5381816-2.4622092-4.1717513-1.6071061-8.0931123-3.7437931-11.7866345-6.3572218-2.7976642-1.9795526-5.5880696-3.9708439-8.3940297-5.9369531-.7193665-.504047-1.4301979-1.0479267-2.2818873-1.2961556-.1712039.1443462-.3137485.2645357-.4979204.4198259,0,.375589-.0244089.7715796.0063472,1.1626442.0362145.4604047.1078571.9189287.1853684,1.3741708,1.1007693,6.4644654,2.8130594,12.7545371,4.8652959,18.9389487.6404308,1.9299347,1.4344597,3.8108279,2.2690219,5.6573786,2.6520201,5.8678436,6.9970721,9.7118612,12.7562659,11.7465826,1.7639339.6231991,3.591055,1.0701301,5.4140055,1.4696089,1.641183.3596341,3.3101479.6159132,5.003157.353513,3.2962456-.5108901,6.4258226-1.5646042,9.2988215-3.3681131,1.8735914-1.1761543,3.6867533-2.4621667,5.51735-3.714959.9415533-.6443712,1.8465047-1.3500201,2.7945989-1.9828224,4.7574958-3.1753987,9.9757517-4.3108892,15.526342-3.8965899,1.4943651.1115447,2.9383628.5131832,4.3454395,1.0682252,1.6245458.6408162,2.9284944,1.7013673,3.9367106,3.2081578.8013675,1.1976236,1.4220958,2.4877916,1.9102503,3.8540213.4642015,1.2990858.8845081,2.6161223,1.357051,3.9116409.5956584,1.6329858,1.62801,2.7910072,3.2332292,3.2696417,1.6166602-.1741691,3.0394852-.7907861,4.376093-1.6815905,1.378292-.918589,2.6362261-1.9908302,3.7817108-3.2186164,2.5170762-2.6978744,4.5954993-5.7424187,6.336255-9.0551083,1.2450574-2.3693493,2.4788106-4.7454931,3.7320271-7.1099406,1.9118913-3.6071392,4.3526185-6.7777332,7.1571314-9.627998,2.5180106-2.5591033,5.4523395-4.3816852,8.83462-5.3262388,3.4409439-.9609513,6.9355144-1.5710771,10.5006677-1.5848299,2.8620594-.011035,5.7276742-.0322677,8.5853579.1030637,1.8558261.0878975,3.7318903.2981441,5.5411777.7285802,1.9305797.4592945,3.8107462,1.1901072,5.6792439,1.9025445,1.2006611.4578203,2.1904167,1.2559772,2.5721386,2.7462365-.1083243.323587-.2316222.6919022-.368754,1.1015667-1.48142,1.035636-2.9325056.7983874-4.3758879-.0824922-.5340551-.3259408-1.0251269-.761406-1.5914081-.9925457-2.1618372-.8824145-4.4033507-1.4189051-6.7275262-1.457027-2.7997952-.0459234-5.600069-.0647902-8.400206-.0754854-2.6885308-.0102645-5.3201077.466004-7.9453715,1.0424608-3.278446.7198809-6.0123304,2.4456416-8.3620771,4.928313-2.3967412,2.5323197-4.5091452,5.3017666-6.1622022,8.4484162-1.2751867,2.4273086-2.5297479,4.866914-3.8089458,7.2918021-1.9613699,3.7180408-4.3178855,7.1182517-7.2077496,10.0858487-1.6700133,1.7149381-3.5292124,3.154718-5.6238169,4.212612-2.4032821,1.2137847-4.9321183,1.8726063-7.6018468,1.37957-3.6974991-.6828449-6.458778-2.6437006-7.6670967-6.6298866-.3244032-1.0701726-.6933851-2.1273507-1.0905591-3.1694657-.3264316-.8564923-.6876874-1.7031751-1.0987181-2.5168622-1.1225344-2.2223884-2.9429437-3.1234088-5.2542425-3.0535834-3.7490745.1132615-7.2458329,1.1176368-10.3994997,3.3322419-.7787819.5468947-1.5425903,1.1179159-2.3202099,1.6667276-1.5032763,1.0609575-3.0025187,2.1288855-4.5197201,3.1669359-2.4204663,1.6560688-5.0206147,2.9097407-7.7657577,3.8174404-3.053832,1.0097563-6.1744522,1.6267858-9.3759568,1.2700454-3.9033335-.4349375-7.7401182-1.2761847-11.4500838-2.6701687-6.7817567-2.5481532-11.827145-7.1888779-14.8317376-14.198509-.8760755-2.0438999-1.6758477-4.1381821-2.3355367-6.27075-.9522763-3.0783772-1.7423738-6.2135308-2.6085354-9.3223011-.118432-.4250734-.2763604-.837674-.4159991-1.25605-.4917783,2.5532491-.8204092,5.0762264-1.008615,7.6110272-.3700986,4.9847072.1792377,9.921762.8556322,14.8425223.5041309,3.6674887,1.1012935,7.3212246,1.5572676,10.9951134.1864054,1.5019494.2634608,3.0569382.1251781,4.5601434-.4940346,5.3701967-3.1460547,8.5555566-7.1167576,9.9351023-.9360379.3252128-1.9374625.4609688-2.9187058.6099014-2.2953908.3484111-4.60016.0998545-6.8938073-.0209415-2.7931859-.1471247-5.5837622-.4053633-8.3665669-.708215-4.2141307-.4586393-8.3159715.227348-12.3796036,1.279679-5.8439525,1.5133726-10.9759455,4.5573346-15.6885436,8.4609435-.4885648.4047082-.9359468.8755654-1.358464,1.3592836-2.6611649,3.0466555-3.142186,6.0641554-1.4926388,9.8572934.6780697,1.5592111,1.4474789,3.0826784,2.2833915,4.5527726,1.5783319,2.7757257,3.2294516,5.5047152,4.8606979,8.2461167,1.267586,2.1302626,2.4090254,4.3336871,3.319344,6.6612686,2.1573588,5.5161323,2.3296567,11.0614202.0737964,16.5983121-2.6660934,6.5437969-6.8272128,11.806835-12.2247349,15.9832543-1.6742581,1.2954883-3.5200334,2.2522598-5.5358846,2.7791958-1.1476156.2999761-2.2741214.5961304-3.3492397,1.1698754-1.2070823.6441649-2.4407957.3408158-3.5655693-.3579597-.8286594-.5148029-.9878014-1.6444939-.3365564-2.3902848.3314854-.3795929.7469034-.7229081,1.1867815-.937844.7302377-.3568192,1.4913055-.7029857,2.2738593-.866041,2.2666802-.4722647,4.2022852-1.6213199,5.9470065-3.1598078,4.1789019-3.6850451,7.5196863-8.0691448,9.8015223-13.3474947,2.0487382-4.739099,2.0253549-9.5027066.1542932-14.2497891-.7428409-1.8846665-1.6983877-3.6842929-2.6636776-5.4568141-1.0289215-1.8893862-2.2221414-3.6766248-3.2744121-5.5524828-1.4023647-2.4999549-2.7695576-5.0238968-4.0853802-7.5763997-.474463-.9203847-.7979774-1.9380881-1.1188651-2.9374222-.961102-2.9931854-.6159878-5.8627962.7743377-8.6303686.9563957-1.9038002,2.2809985-3.4582431,3.8531256-4.7974466,2.0963024-1.7857098,4.366105-3.2984151,6.7058921-4.6764199,6.883711-4.0540823,14.2743448-6.1321972,22.1454755-6.0618987,2.6682927.0238171,5.3361409.3582995,8.0001718.6009593,2.981141.2715121,5.9648801.3981078,8.9494967.1801507,2.8929865-.211284,4.8793806-1.785455,5.8670053-4.7169805.3587716-1.0649493.6180617-2.1593818.5283802-3.3022613-.1500655-1.9124268-.267962-3.8311142-.509783-5.7312443-.450698-3.5413116-1.0080224-7.0671294-1.470093-10.6069304-.4801208-3.6781657-.7454049-7.3705695-.5619168-11.0931359.15002-3.043871.5498149-6.0528475.9540882-9.0640261.120939-.9008445.2022677-1.8077191.3245855-2.9193865-.4559741.2349312-.7312746.3542956-.9859952.5114846-2.5883086,1.5973572-5.2949239,2.9145272-8.1034821,4.0154569-7.8341413,3.0708912-15.8877004,5.2899309-24.0416639,7.1385442-3.8378216.8700934-7.7172933,1.4382937-11.6144619,1.8517254-2.2878129.2426963-4.5933171.3411373-6.8931122.3946135-1.4262722.0331595-2.8560997-.1582992-4.2855055-.2160158-3.613521-.1459417-7.1881553-.6465491-10.7341302-1.368171-1.7076351-.3475132-3.4082221-.7638933-5.0219252-1.4884333-1.2691187-.5698261-2.467552-1.2622621-3.4472398-2.3196768-1.5056295-1.6251054-2.0566409-3.5843898-1.7333886-5.8181226.3654151-2.5250641,1.2778874-4.8322318,2.5576551-6.9816888.3298274-.5539682.6702183-1.1008023,1.03581-1.7001904-.3323743-.4456145-.6326991-.8482662-.9515242-1.2757176-.6542819-.056382-1.2708793-.1491388-1.8882801-.1556481-2.3018235-.0242721-4.6048834.0224642-6.9056699-.0369146-3.3918071-.0875335-6.3544192,1.1703183-9.0024737,3.2831154-3.1007581,2.4740024-5.8487101,5.3455606-8.1096499,8.7231011-2.6092875,3.8979306-4.6628488,8.1379389-6.7003112,12.3818783-.7884423,1.6422796-1.4336991,3.368562-1.787904,5.2080877-.6883284,3.5747319-1.0373655,7.1945197-1.3059542,10.8209261-.2032762,2.7445379.3422199,5.4143972,1.1524473,8.0028744.7678509,2.453073,1.5027778,4.9174055,1.9386419,7.4569382.50247,2.9276308,1.0130535,5.8696635,1.2475729,8.8299321.4245827,5.3594468.1238391,10.7225215-.3678737,16.0697018-.1514073,1.646508-.2956983,3.2945811-.4906559,4.9355564-.5041736,4.243721-1.8281012,8.2293489-3.4112561,12.1326302-.8625521,2.1266227-1.7297706,4.2523839-2.5318645,6.4051411-.7332945,1.9681051-1.4023732,3.9643466-2.0620565,5.9622747-.7260043,2.198814-1.0101477,4.5014136-1.3065154,6.7962845-.4832973,3.742325-.8437725,7.4872707-.6593129,11.2823014.1768988,3.6394129.4075894,7.2692044.8167598,10.8883067.568358,5.0271727,1.7023191,9.8937045,3.6036868,14.5384573,2.0121477,4.9153914,4.0762098,9.8067109,6.1150682,14.7097024,3.6297394,8.7286944,6.7016103,17.6731862,9.1698602,26.8518934,1.2713835,4.7279124,2.0754489,9.5440316,2.3651105,14.4502019.2030454,3.4390972.3091534,6.8837756.1054612,10.3290363-.1093727,1.8499419-.2662242,3.6970446-.354655,5.5479814-.1296849,2.7144177-.3917897,5.4113397-.8300098,8.0882664-.5338015,3.2607907-1.0571991,6.5302444-2.1231755,9.6522336-.934303,2.736427-1.9138028,5.4587554-2.973244,8.142598-2.3625864,5.9851332-4.4083419,12.0843166-6.2268823,18.2821412-1.5499859,5.2825601-2.2667315,10.7048922-2.8103872,16.1707575-.2830067,2.8452842-.1280468,5.7023131.1072788,8.5349547.2076207,2.4991541.5271552,5.0125524,1.0714205,7.4502651,1.3079199,5.8579552,2.7996128,11.6691255,4.1735831,17.5107497,1.162535,4.9426906,2.2686032,9.9004504,3.3903656,14.8539394.5536181,2.444677,1.1055981,4.8901062,1.6236569,7.3434947.6951884,3.2922394,1.3865137,6.5859834,2.0247338,9.891108.6774116,3.5080369,1.0045497,7.0701384,1.2777336,10.634715.3092929,4.0356765.2893796,8.0778563.0153353,12.1141638-.1702895,2.5081811-.459538,5.0069955-.6404052,7.5145457-.293254,4.0657178-1.1699933,7.9572544-2.7541596,11.6844616-1.0758761,2.5313308-2.0776397,5.1042536-2.9870751,7.7082368-1.0607516,3.0373252-2.1223465,6.0879967-2.9371919,9.2058851-1.3492879,5.1628317-2.4215546,10.4045763-3.1379098,15.7143143-.3621162,2.6841095-.6974646,5.385642-.8164379,8.0907173-.2197197,4.995639.3702752,9.91683,1.7054956,14.7200397.6348898,2.2839148,1.3090338,4.556182,2.0047093,6.8200531,2.0120878,6.5475946,3.6447272,13.210307,5.191115,19.8918983,1.1741241,5.0732416,2.1880379,10.1946755,3.0913911,15.3308632.7669165,4.360501,1.0723407,8.7963722,1.4017351,13.2203531.1523503,2.0462052.276198,4.0969239.5007835,6.1345389.5594838,5.0761536.7233663,10.1661873.6242522,15.2716542-.0363142,1.8707621-.2730785,3.7093475-.9053103,5.4493159-.7169849,1.9730675-1.4665776,3.9426892-2.3503791,5.8351937-2.0806822,4.4556237-3.9319957,9.0040891-5.2410751,13.7860903-.9959747,3.6382967-1.5719191,7.3596801-1.623278,11.1500275-.0412769,3.0463522.0147484,6.0949368.0695943,9.1417258.0405077,2.2502822.1795653,4.498623.218395,6.7488567.0434306,2.5167227-.024067,5.0361147.0443565,7.5516241.0665746,2.4475646.1695573,4.899303.3903083,7.3354627.3298901,3.6406748,1.9275855,6.518718,4.864333,8.500133.6829811.4608111,1.3656061.923515,2.0319528,1.4108246,3.8041284,2.7822897,8.0201393,4.5151724,12.5358255,5.3633658,4.1004505.7702025,8.2222731,1.3196815,12.4173393,1.2852238,2.8349328-.0232953,5.5661962-.5007529,8.269957-1.2579488,1.1300269-.3164285,2.2255657-.8361089,3.277278-1.3912176,1.6692384-.8811466,3.287927-1.870665,4.9290587-2.8122339,4.3822408-2.5141505,9.0829421-3.9082801,14.0030554-4.5652089,2.8496157-.3803936,5.7087465-.3996123,8.5712162-.4016992,2.4265401-.0017957,4.8563848.0800778,7.278982-.0256249,5.8145753-.2537252,11.5542602.3336573,17.246757,1.546617,3.7211787.7928669,7.4625613,1.4238797,11.2429389,1.8014099,1.4215032.1420531,2.8348587.384713,4.2484193.6067953,2.5212355.3960695,5.029788.9116732,7.5615186,1.1983516,5.8710621.6648395,11.7212593,1.5661754,17.6298349,1.8310144,2.0508691.0920166,4.103288.1970398,6.147901.3840821,3.4077948.3118179,6.8113391.660229,10.2352697.7173997,1.0555183.0176171,2.1086094.1678721,3.1644354.2053388,3.668213.1301142,7.3377935.3438491,11.0056191.3190977,2.8565441-.0193157,5.7122677-.3300174,8.5663276-.542539,1.6126034-.1201166,3.2247966-.2690613,4.830654-.4653731,3.731594-.456152,7.3400726-1.372824,10.6863666-3.2793542,1.3695859-.7802971,2.7603216-1.5295338,4.1841495-2.1883068,2.1642758-1.0013603,4.3336339-2.0089326,6.5581455-2.8399457,4.4318847-1.6555713,9.0506533-2.3564216,13.7157555-2.7036679,2.4920748-.1854892,4.9604244.0504733,7.4134359.619996,3.0059145.6977928,5.7845827,1.9893257,8.5308424,3.4057315,2.852305,1.4709557,5.7247114,2.8977473,8.5828737,4.3559876,4.5934254,2.3435121,9.4997674,3.4948847,14.4939905,4.2861986,2.273922.3603499,4.5610397.6350409,6.8475422.8948811,3.646106.4142204,7.2926906.8351383,10.9465227,1.1574876,3.9145808.3454021,7.3696777-.9407924,10.3271163-3.6753751.9364254-.865859,1.7796367-1.8480977,2.6462313-2.7969949,1.5176117-1.6619775,2.950647-3.4192233,4.5424425-4.9953478,4.4953796-4.4511588,9.7966622-5.7487582,15.7389339-4.3293435,3.6675977.8760992,6.8218114,2.8039349,9.6672792,5.3549698,1.1897899,1.0667328,2.3303518,2.1959263,3.5248821,3.25635,1.388958,1.2332461,2.8298561,2.4376641,4.5739165,3.0170389,2.9867019.9921877,6.0269848,1.5273984,9.1917507,1.071489,2.833252-.4082025,5.6862179-.6747401,8.5359931-.9356965,3.7183982-.3405489,7.4427676-.6062129,11.1633537-.9200207,1.6121248-.1358895,3.2246143-.2801266,4.8310415-.4756619,3.6451488-.4436793,7.2784008-1.0238791,10.9318455-1.3579247,4.0002283-.365834,7.8518611-1.2787691,11.5881272-2.8253376,3.2610795-1.3499169,6.3543281-3.0120401,9.1914089-5.211849,3.7453368-2.9041049,6.9783837-6.3808872,10.0701737-10.0265122,1.930329-2.2761497,3.5139654-4.8016082,4.8998695-7.4791173.9671017-1.8684811,1.6822747-3.8423251,2.1121078-5.920707.333793-1.6136882.5621105-3.2517395.8616718-4.8738723.5002109-2.7083755.4310638-5.4163627-.1738021-8.0778563-.4519401-1.9888404-1.0117259-3.9637036-1.6902514-5.8777562-1.958316-5.5244434-4.518535-10.7528903-7.1275718-15.9515871-1.6727937-3.3333703-3.2133557-6.7193978-4.2857961-10.3397862-.9935389-3.354142-1.7055668-6.7622515-2.2748336-10.2267066-.7511823-4.5712754-1.2817505-9.1677389-1.6309956-13.7836637-.2998348-3.9630727-.0922569-7.9306588.1702011-11.9034864.2885762-4.3671984.7703266-8.6859135,1.6206486-12.9680839.7839098-3.9475424,1.4383683-7.9243982,2.2328986-11.8693685.8624923-4.2824131,1.4473023-8.5875877,1.4927014-12.976674.0641787-6.211268-.6097887-12.2775709-2.7182955-18.1247035-1.1358442-3.1497253-2.2312577-6.3253666-3.1518663-9.551821-2.1556837-7.5546331-3.5583617-15.2777692-4.3331097-23.1353874-.3198906-3.2441685-.2479175-6.485328-.1408923-9.7248375.0828215-2.5083752.3653809-5.0092765.5580081-7.513575.1725258-2.2418376.3182041-4.486393.5230928-6.7248333.1625435-1.7758336.3816535-3.5463286.6034529-5.3153191.2301408-1.8355764.5096006-3.6641642.7395135-5.4997407.5255542-4.1951526.9691529-8.4032632,1.5672727-12.5864284.6355878-4.4455291,1.3560026-8.879459,2.1398669-13.2982954.9109909-5.1352898,1.9271383-10.2494681,2.9054074-15.3711447.5242323-2.7444105.7336335-5.5142032.4255484-8.295862-.3499744-3.1596986-.9851519-6.2649686-1.8521568-9.3125341-.8828672-3.1032802-1.743445-6.2142769-2.6680648-9.3034586-1.1129623-3.7186414-2.0788333-7.4924151-3.6266427-11.0521385-1.3583273-3.1238092-2.7013848-6.2556747-4.0079316-9.404308-1.5842746-3.8178407-2.9991229-7.7043057-3.9535529-11.7639085-.5754203-2.4474433-.8040568-4.9514021-1.1118228-7.4455332-.277819-2.2509859-.3065353-4.5059028-.092348-6.7402908.468395-4.8860781,1.4547321-9.6783196,2.9620651-14.3158897,1.564948-4.8148817,3.2516441-9.58822,5.0073505-14.3284109,1.3907357-3.7549918,2.949667-7.4400976,4.4644754-11.142044,1.4896931-3.6405049,2.9550456-7.2947443,4.5458839-10.8852856,1.8585837-4.1949827,3.6505274-8.414741,5.0627776-12.805526,1.3903255-4.3224762,2.6490573-8.6823221,3.3668285-13.2038522.621731-3.916482,1.0249901-7.8590742,1.4496725-11.8023215.2602245-2.4159218.0659564-4.7715426-.5388184-7.0712061-.6528632-2.4824106-1.3673524-4.9622247-2.2690903-7.351551-2.2045926-5.841515-4.0538777-11.8105234-5.8412632-17.8029122-.940391-3.1527585-1.8769987-6.3157088-2.6132759-9.5265601-1.1854824-5.1692622-1.530215-10.4578645-1.577255-15.7676267-.0264372-2.9805064.1181015-5.9515127.3394907-8.9252974.2357017-3.1658743.4255029-6.3338597.8674606-9.4768148.2023361-1.4389246.5109225-2.865607.636545-4.3111319.3741326-4.3060724,1.3129738-8.4902447,2.4288533-12.6232763.9811864-3.6341836,1.7626804-7.2918203,2.2497638-11.0415343.4474731-3.4449817.3861661-6.8598614.0322261-10.2935716-.3118683-3.0254349-.6436101-6.0498627-.8801779-9.0823772-.2109054-2.7033585-.3015213-5.417303-.4503448-8.1262548-.0253433-.4619759-.0625378-.9242248-.1176913-1.3831492-.4215829-3.5051371-.3629651-7.0052268.192217-10.4838837.2492394-1.562032.6582418-3.0947204.979044-4.644407.1872942-.904454.3686172-1.8118079.5094183-2.7254163.7246539-4.7029002,1.0382999-9.4558551,1.5160847-14.189021.1123583-1.1133903.3191158-2.2172137.5111504-3.3197753.1131332-.649552.3023418-1.2838133.422768-1.9322279.2693864-1.450827.2058003-2.8641298-.1872942-4.3113078-.8497294-3.1281316-2.1409153-6.0700156-3.2557465-9.0848008-.38334-1.0365915-.9915333-1.9859194-1.5491768-2.9405403-.6022677-1.0310436-1.3978008-1.852966-2.639394-2.3149753Zm-216.9364707,16.729215c1.2847816-2.678222,1.6663668-5.4371253,1.6401346-8.2178347-.0217424-2.3067248-.3512051-4.6188974-.9891859-6.8503674-.974805-3.4097384-2.8033961-6.1881455-5.5505447-8.2308079-2.8789702-2.1406788-6.0084332-3.723757-9.443611-4.5854134-1.8963024-.4756543-3.7712499-.6162606-5.7205863-.2102951-3.3841266.7047723-6.5805716,1.9471984-9.6803155,3.4995043-5.9796713,2.9945382-11.6512803,6.540245-16.9522096,10.7573007-4.6061654,3.6643614-8.7105587,7.8830763-12.4520553,12.5163543-.0327617.0405636-.013344.1288827-.0253661.2894872.2907071.025998.5816649.071339.8730444.0746513,1.1193323.0127366,2.23879.0133342,3.3582022.016058,3.6698995.0089269,7.3447105-.030745,10.9839679-.5440526,3.8385167-.5414106,7.5576556-.000543,11.2575478.9998042.7212239.1949984,1.4453993.3785525,2.1627944.5883987,1.1360266.3322954,2.2674494.6824476,3.4008778,1.0248225,1.6112132.4866999,3.1960006,1.1853723,4.8389612,1.4177252,4.0110653.5672599,8.0416053.7719314,12.0809881.0831049,3.444203-.587337,6.8170482-1.4395585,10.2173562-2.6284403Zm-134.2820435,7.2393724c.8191386.1129521,1.664327.2198013,2.5067634.3472281,5.4189795.8197658,10.737281,2.1729647,16.0583288,3.4975358,2.6682585.6642026,5.3602649,1.1307041,8.0743784,1.4756633,2.7134183.3448622,5.4393943.588335,8.1445624.9924425,1.8397814.2748245,3.4689651-.1664768,4.9340783-1.2820086.9565724-.7283133,1.8094811-1.6101029,2.7164039-2.4134467,1.0977267-.9723442,2.1692897-1.9835201,3.3147289-2.8880955,1.3111049-1.0354237,2.8055384-1.6779142,4.4096637-2.0411943,2.3822463-.5394936,4.7825542-.826263,7.2208657-.7310129.6719732.0262497,1.3458608-.0032213,2.0704008-.0074193.2171386-1.0059101.4036693-1.8985679.6034643-2.7878496.2119196-.9432645.7129737-1.8029872.8166943-2.8782799-.4341975-.0961479-.7837845-.2001155-1.1400149-.2471734-.8628911-.1139895-1.730591-.1868663-2.5933112-.3021146-4.0708112-.5437917-8.1448815-1.1130779-12.2462892-1.2409323-7.0842125-.2208357-14.172231-.4514808-21.2587567-.0872059-1.5489831.0796228-3.1084614.2141049-4.6326596.5045354-6.9372522,1.3218776-13.1168494,4.4092241-18.5333846,9.2148847-.2260441.2005402-.5402656.3643053-.4659165.8744431Zm-3.5452001,3.2961341c-1.0610508,1.131062-1.9290926,2.3444463-2.572338,3.7004116-.556937,1.1740128-1.0377017,2.4086359-1.3911801,3.6676949-.4946727,1.7619716-.0372116,2.9387568,1.431628,3.8765402.7384138.4714396,1.5407215.8842829,2.3646233,1.1371163,1.4880749.4566434,2.9994647.8701783,4.5268422,1.1307041,5.1031001.8704149,10.2328539,1.3674976,15.4059272.8557158,2.0405563-.2018748,4.0793691-.4268751,6.1162105-.6677272,3.0910379-.3655064,6.1231389-1.0852296,9.1614504-1.7657389,6.8742643-1.539683,13.6438394-3.4887393,20.241937-6.0592779,2.0346193-.7926606,3.9902688-1.8258033,5.9501345-2.8201932.8289443-.4205902,1.5754318-1.0254079,2.3456672-1.5373596-.39657-1.3613583-.7570282-2.5987903-1.1283803-3.8735797-1.84026-.2299506-3.6267567-.1302416-5.4149399.1276998-1.7721955.2556301-3.3475703.9577361-4.6951062,2.2232013-.6515413.6118548-1.3140791,1.2104664-1.9735516,1.8127118-.8954704.8177577-1.7560141,1.6852122-2.6967355,2.4391322-2.0912087,1.6759426-4.4389612,2.6371791-7.0900697,2.5908371-1.179591-.02062-2.3639909-.0503701-3.5359584-.1805026-2.7780756-.3084935-5.5504877-.6753953-8.3243357-1.0263239-2.7766512-.3512866-5.520837-.8801759-8.2465395-1.5583739-5.1976132-1.2932437-10.3808854-2.6731716-15.6798204-3.4448664-1.5951286-.2322983-3.1960234-.4196985-4.7954651-.6278218Zm134.2981451-4.5976283c-.3507037-.1030455-.4716313-.1790891-.5807533-.1632494-.3676828.0533852-.7306935.142502-1.0964163.2125337-3.1808333.609137-6.3623732,1.1947359-9.6192364.9662777-2.0442826-.1433938-4.0902517-.2611202-6.1363348-.3725254-2.4948894-.1358289-4.9223297-.6359206-7.3026958-1.4364737-2.0665377-.6949961-4.0739791-1.6147559-6.2563963-1.8819245-.3029343-.0370784-.5961484-.1817341-.889089-.2910827-2.1573132-.805279-4.3576667-.9233633-6.6128091-.5828812-1.535115.2317645-3.0848958.4126249-4.6330698.473478-2.4195661.0950923-4.8433371.0688608-7.265319.094971-.7255884.0078197-1.4592332-.0846458-2.2084328.1247696.1105122.1684484.1564925.3028881.2465843.3665681,3.2595753,2.3040131,6.5265804,4.5961359,9.7854947,6.9011985,3.4816026,2.4625671,7.1638205,4.5179206,11.1169973,5.9606428,4.0273265,1.4697788,8.1061942,2.3202289,12.4335151,1.4747472,6.9040062-1.3489099,12.7251224-4.7120909,17.5776099-10.0550672.4696029-.5170475.8817048-1.0932859,1.4403511-1.7919826Zm-64.9441467-2.9040382c-.3295653.3162829-.358726.6274699.0945245,1.0058434.2072019-.097525.4549941-.2141534.6666743-.3137896-.053695-.6382865-.3481967-.7508989-.7611989-.6920539Z" stroke-width="0"/>
  </g>
</svg>