<?xml version="1.0" encoding="UTF-8"?>
<svg id="Layer_2" data-name="Layer 2" xmlns="http://www.w3.org/2000/svg" viewBox="0 0 435.937356 648.7148913">
  <g id="Layer_1-2" data-name="Layer 1">
    <g>
      <path d="m223.688688,24.9615536c-.8955536-.1050693-1.7984178-.5215939-2.5916223-.9306136-.6321135-.3244608-1.2047423-.7086276-1.7485569-1.1426174-7.8287545,5.1792169-24.7511185-8.8584848-25.1034001-17.4506777-.4424651-8.7572725,8.5944013-4.9841368,12.8593609-2.1015798,4.2715278,2.6450069,8.0853408,6.1138156,10.6612567,10.5352783,2.9148327-4.7323371,12.3805139-14.755989,18.2157765-13.4997805,3.675225.9817585,5.5531174,5.1520188,5.5379821,8.7998213.30659,8.1858208-10.2416373,16.5603171-17.8307969,15.7901694Zm-8.0681208-6.5446631c.1626618-.0063653.3145289-.0676948.4666531-.121435-.0842723-.8198057.0880989-1.6818047.718499-2.2422755.064425-.0574817.130078-.1098478.1967591-.1575929.0142786-.0764915.0298708-.1525469.0463769-.2277649-2.5478156-3.9363124-6.0231117-7.1431277-10.1319206-9.2824777-1.6189929-.7940312-6.5383977-3.3003285-7.4087638-.8053363-.1135434,5.4033869,11.1651484,12.8852029,16.1123964,12.8368825Zm8.0733468-.0751301c5.3812888-.6679514,12.9362369-5.9398093,12.0204934-12.1946542-2.5511854.4128528-4.7556864,1.8837695-6.8771717,3.3128429-2.8815635,2.0919311-5.8697882,4.2259199-7.8880106,7.2562571.8228469.76536,1.4781774,1.8648954,2.7446889,1.6255542Z" stroke-width="0"/>
      <path d="m194.3797844,37.3777925c-1.2421808-2.044131-.6838876-5.5044985,2.1674338-5.3508742,2.5204293.1136516,5.1109379-.3872304,7.4804995-1.2801067,5.3258022-2.6100089,10.6047991-5.6303511,13.0404992-11.294469.7617631-1.8978065,1.6945553-1.710322,3.0703266-.5141806.9934762.660003,1.0496482,2.6372051-.5220826,2.0813699-1.1581369,5.448248-4.8076319,10.0060328-9.0657949,13.3148942-1.8201783,1.6146706-3.6034322,3.3046838-5.8775843,4.2294195-1.8503062.6862777-3.6537786,1.9291748-5.587843,2.2096649-1.9402328.0001686-3.8648733-1.7504339-4.7054543-3.3957179Z" stroke-width="0"/>
      <path d="m239.4796446,38.4240292c-5.458793-.0089268-10.0213186-.2379523-13.7916105-4.9040733-2.4537482-2.8289936-4.7304133-5.8427287-6.4334215-9.2161663-.5942466-1.185518-4.5040119-7.0299159-.8382393-5.8565605,1.2433516.6641,3.4948863.5265667,3.8576198,2.1980594-.0579711,1.5397823-1.8678403.2686427-2.6692979.1170376,2.135307,3.2281758,4.8215964,6.0207312,7.7017892,8.5423609,2.182255,2.358146,5.5207621,1.9812715,8.1485379.6729461,2.3796137-1.2495739,5.1393808.9643877,6.2102184,3.0545085,1.2484633,2.0359078.6824598,5.5833664-2.1855962,5.3918876Z" stroke-width="0"/>
      <path d="m231.0236315,637.1735121c-8.650402.8726261-18.7167553-2.3198499-24.2182128-9.4960463-2.5531558-3.4182108-2.9061227-9.2571192,1.0818892-11.6893088,5.6105745-2.9018352,12.3821131,1.2767793,16.5561752,5.1589484,1.0933121-1.3026949,2.365992,2.5006722,3.1056233,3.1446906.3151001.4254954.7458853.6464223.9138302,1.2154498,4.8783681-2.7265243,14.5960381-8.6975902,19.6840445-4.509184,3.4973994,2.9718423,3.5386931,8.8117475.6689808,12.2482516-4.1626106,5.1301012-11.9198293,6.2679218-17.7923304,3.9271987Zm5.7844593-4.2908956c4.3110509-.039401,10.3449001-3.2584375,9.2209462-8.4435359-5.2013499-.1741383-10.1186986,2.4694798-14.6003788,4.9088225,1.2387539.7470355,2.1606658,1.9867005,2.5166312,3.425364.9462711.1515648,1.9091054.1336819,2.8628014.1093494Zm-12.0864891-1.3106102c-.1279077-.6198032-.0674521-1.2495153.3128155-1.78565.3956599-.5575356.9535532-.741055,1.5354631-.7002469-.0651961-.2987321-.0969517-.6071972-.0879562-.9245745.0187335-.6844747.3677881-1.2482254.8274732-1.7196886-4.3853567-3.3777544-9.3491394-8.163918-15.295318-6.5072006-8.0543277,6.0920832,7.9686847,11.6687288,12.7075224,11.6373605Z" stroke-width="0"/>
      <path d="m205.6309185,648.7148913c-1.9592519-.0750495-3.7174611-1.9062569-4.1596407-3.7974452-.5346763-1.7510569.7168712-3.6170333,2.587967-3.1704889,7.4733888.7347813,19.6848156-1.4240639,24.3460062-7.9896625-1.0003299-.7994529-.5923904-2.2822665-.528051-3.3956373.2255733-1.9179247,2.1336221-1.3873601,2.8693982-.1165026,1.8009594,3.0108328.114343,6.8121478-2.1052648,9.0701991-5.9958396,6.0424802-14.739795,8.9748628-23.0104149,9.3995374Z" stroke-width="0"/>
      <path d="m242.3243694,648.3524844c-8.3323605-.9000075-16.3361706-9.0087523-18.7770395-16.9988252-.5408161-3.1454528,1.3988455-2.5433566,3.5492307-2.0977503,1.6479499.548858,4.1891974.3067648,4.7189904,2.4391668.1900767.8105344-.3033916,1.6886134-1.2062558,1.4784748-1.3698885-.3071752-2.7144754-.6747418-4.0752542-.979044,3.6831354,7.9735385,12.7339092,13.7688245,20.0563161,6.5889928,1.7106901-1.3321283,3.9769889-.142594,5.2125158,1.3171771,1.3217982,1.4645203,2.2121829,4.5352755.1681162,5.7524843-2.9989907,1.4547873-6.2708739,2.8060298-9.6466197,2.4993237Z" stroke-width="0"/>
      <path d="m12.1776848,309.9503186c-11.1740047-2.2173898-15.4141445-16.6075418-9.525837-25.8994008,1.4660977-2.2041975,4.215163-3.244483,6.7113401-2.4769554,6.2953474,1.9040582,9.5724566,8.6969452,12.0815773,14.4119047,4.2551074-2.3108498,9.5072035-9.8081759,14.7663674-7.0080973,4.7437638,3.1128532,3.6633881,10.2487398.0147783,13.8205089-3.8261783,4.1497967-9.9088461,4.8015839-15.1811178,4.3117394-1.7999456,3.1254299-5.7102962,3.4943157-8.8671083,2.8403005Zm1.855061-5.8528923c1.8104903-.0437105,3.4564555-1.6982584,3.2930727-3.5949289-.5716579-1.7084311-1.0719942-4.4959331,1.5700459-4.2051164-1.9003241-4.1864419-9.3754763-14.7003175-12.116517-5.6156362-1.8125393,6.2257357-.481153,13.762111,7.2533984,13.4156815Zm7.9930583-1.8960548c5.2592068.2371974,11.5863241-2.2688397,12.3238779-8.2792479-4.4268432,1.5932184-7.2064718,5.6219099-11.6209569,7.0949905-.0459557.4834242-.2785897.8543621-.7221543,1.0366503.0069108.0493099.0133291.0985318.0192333.1476071Z" stroke-width="0"/>
      <path d="m6.5787295,322.676395c-1.6182469-1.0095328-2.9182131-3.0200967-2.5440568-5.0208397.2156639-.9531284.9211408-1.6323263,1.8678689-1.7711678,2.7960954-.4201305,5.6803683-.532265,8.33633-1.6074954,3.7685071-1.5846581,6.1656407-5.453928,5.6669464-9.6430964.0173628-1.5929253-.6348478-3.4413706.1537805-4.9150669.3070469-.4840692,1.0856302-.285188,1.5096474-.1538514.8005152.2476633,1.6046858.4840692,2.4051153.7318204,1.1784268.2444385,1.7809122,2.6427386.0768474,2.2889213-.6761201-.2123373-1.3548389-.4193976-2.0319728-.6323798.9402813,5.6930896,1.6481427,11.135643-2.5920007,15.7399874-1.9395403,2.6233606-9.9248702,7.0656743-12.8485056,4.9831684Z" stroke-width="0"/>
      <path d="m35.3444146,319.5538381c-5.3129586-.8160459-9.599279-4.6335141-12.187246-9.3284749-1.5608291-3.136101-4.0629032-7.1377629-2.4707397-10.6758183,1.1212696-1.1728241,2.7472305.2005228,3.6589331,1.0169498,1.5073486,1.0455331,1.2701026,3.7712072-.9209695,2.7133613,1.3996594,5.1776521,7.366185,11.8501375,12.7679637,7.872339,2.1237413-1.748653,5.0772404.2251484,6.3456367,2.1314346,1.0666825,1.5461953,1.6616931,4.070467.1206256,5.5048503-.5665747.506584-1.2245324.6266632-1.9482859.6603768-1.7623929.1821416-3.5964214.4495054-5.3659179.1049813Z" stroke-width="0"/>
      <path d="m409.2994169,314.2281685c-5.5304145-.2576894-11.0444371-2.2268296-15.4546957-5.6812752-2.5404479-2.0038212-4.7884701-4.6042858-5.5851586-7.8612575-1.2232759-4.6220807,1.9559392-9.2406142,6.7878733-8.6834891,6.1354843.3493026,12.077465,4.6516315,14.4178983,10.4820089,4.4238804-2.9825427,8.0019824-7.6840997,13.4134562-8.8682691,3.9763035-.9027925,7.1988113,3.3056952,6.7042864,7.1486392-.91126,6.460969-9.0224737,11.09847-14.5338405,13.0697502-1.8642992.6130898-3.826264.2366697-5.7498194.3938925Zm-1.2739649-5.2848908c.0154209-.0577529.0331263-.1142746.0533163-.1697115-1.6631423-1.1012339-3.5811291-3.5341564-2.2924572-5.5664729-.5492405-.6101582-1.7980751-1.3278775-1.2936408-2.3003839.9600071-.8448344,1.8118968.8800725,2.5372494,1.362324-2.0765363-3.6973304-11.1831394-7.9866136-13.5112645-2.8522028-1.2921844,5.6620731,10.2304144,9.5748776,14.5067968,9.5264472Zm5.7407668-1.1618891c.1502679.1763077.2886275.361117.4152787.5535486,3.9053389-1.5579511,11.0832178-5.326256,11.0771351-10.227984-5.3213187.9677865-8.6317542,5.6378872-13.0182532,8.3403429.5639189.3768891,1.0864584.8147853,1.5258394,1.3340925Z" stroke-width="0"/>
      <path d="m394.5781841,334.1223793c-3.8224659-.1929006-8.1189526-6.2504786-4.3497174-9.1670892,1.5633064-.9227275,3.2644869.2497154,4.9265155-.0316908,6.5255184-.5575356,14.9942396-3.8718497,15.929659-11.432323-.7320065-1.1361202-.7968313-2.566106-1.2196777-3.8385172-.3746133-1.1257129-1.0176927-3.7408943,1.027345-3.0209176,3.6880472,2.1269199,3.866958,8.2471174,3.3152045,12.0871883-1.9378054,8.8030405-11.2195784,14.915733-19.6293289,15.4033494Z" stroke-width="0"/>
      <path d="m431.6787178,332.2641717c-10.1375749-1.3238318-15.6846668-7.1187073-20.3165863-16.0715537-.6224611-1.6168473-3.6481814-5.8176835-1.4581588-6.9798072,1.9251831-.3138007,3.076295,1.9922999,4.3789599,3.0960257.6950535.71426,1.4527615,2.2591947.3966023,3.0316473,2.9828559,4.6326346,7.9702268,9.8531177,13.8774249,8.0569138,2.8511501-1.384663,6.0239399,1.3809105,6.9997963,4.0150594,1.2359553,2.9458095-.6644116,5.9385249-3.8780382,4.8517146Z" stroke-width="0"/>
      <path d="m22.1362347,38.0811395c-2.5806707-2.510691,1.9277247-9.4238936,2.965079-12.2628455,4.3569138-10.2281031,14.7542449-15.5647974,24.9838454-17.4977339,8.0313035-1.6743877,16.5792494-.5801475,23.6244088,3.8571843,4.5494606,2.6402925,7.5734246,7.5062437,12.6394277,9.2919964,5.7235611,1.9087414,11.990951,2.7924015,17.9595042,1.7724614,5.0952314-1.3452583,9.6465197-4.1265599,14.4382453-6.2686235,3.9174328-1.8383331,8.2537854-2.3822842,12.5157894-2.5630131,6.9290744-.2148914,14.0670875-.6490773,20.7111611,1.7558281,7.7482375,2.9698872,15.2546383,7.5242036,23.6063606,8.0811638,3.830362.4063446,7.7060585.4776196,11.4829328-.4070811,3.2712121-.4990681,7.8044094-3.1275919,9.7760266.8668582.6689237,1.3021085.5994726,3.1933555-1.0783196,3.5123598-2.495099.436969-4.9539875,1.0133769-7.4494578,1.4293409-11.8741235,1.6264575-23.228292-2.8037028-33.7342261-7.9883176-5.3981376-2.4681496-11.2277743-2.6361021-17.0186304-2.2456359-4.3597695.260676-8.8338677.476293-12.9251996,2.196469-4.5856854,2.0025606-8.538315,5.227006-13.1057096,7.2800564-7.680614,3.6705958-16.7153102,2.5283706-24.6586789.3297853-5.0846795-1.4857892-9.3994143-4.9962984-13.2287054-8.5591407-4.5624613-3.3830057-10.2934615-4.5898421-15.8448298-4.3528425-13.0998268.4867589-28.7175555,5.6159715-33.0304198,19.715294-.4308781,1.260758-.9911345,3.5486093-2.6286039,2.0564365Z" stroke-width="0"/>
      <path d="m25.0021631,267.4834806c-1.3268814-.6154058-2.5331372-2.2815043-2.1968477-3.8387811.5665747-2.6229794,1.1368047-5.2384539,1.7947767-7.8389185,1.1706022-4.6596348,3.235587-9.0602609,4.0142132-13.8244226,1.1134235-10.502281-2.7916583-14.1274349-7.3697833-22.5070762-2.3191153-4.3534417-3.9219949-9.1115936-4.5509742-14.0380058-1.6790416-14.3730901,2.67084-28.6648423,8.2575478-41.6974343,2.6056939-6.1923739,5.8963106-12.179681,7.4242204-18.7811918,2.2451236-10.0242803.5253238-20.5489003-1.3088618-30.5114041-.9224116-3.7409529-2.1411112-7.6939059-4.0498668-11.0023569-6.4456297-9.9526315-15.5013225-19.5372421-14.7277653-32.3837128.316278-4.8448106,1.1766135-9.7050708,2.5186659-14.364713.9556807-3.1495424,6.1072983-18.7580467,10.0045984-13.0771086.2302852.3752474.4130512.791772.6140939,1.1857818.0950383.1876237.1096596.4690593-.1206827.5516943-.6999511.073591-.8050058-.9409036-1.1540818-1.3851687-1.6641133-2.033775-3.907295,4.6682684-4.3073385,5.8110434-1.4686679,4.8111409-2.1557254,9.9000822-2.0902294,14.9368114-.4829093,16.3662548,8.4759033,22.8775817,15.1146652,36.3389232,4.1106223,8.5890762,4.9352969,18.3409724,5.7020646,27.7495611.4964597,7.2276903.3430647,14.6098038-2.0906935,21.4904489-2.3129327,6.4724316-5.5539742,12.528749-8.2026252,18.8524155-4.8668596,11.7996404-8.5684857,24.7571682-6.7509846,37.6621467,2.7340728,16.4359541,15.9940055,21.1887705,11.3056069,40.7495828-.9363546,3.2687275-2.0810983,6.4845099-3.1129268,9.7241264-.7522179,3.0365138-1.4823325,6.0692752-1.9899223,9.1583236-.2239883,1.3578093-1.7402182,1.5011656-2.7268692,1.0394353Z" stroke-width="0"/>
      <path d="m36.5762505,628.9986885c-15.0408306-6.5816638-24.8908203-16.8546481-23.189754-34.5564173.4956386-9.7798858,1.7666193-19.6659549,5.008132-28.9202597,5.2430078-15.5179465,16.2066637-30.1097354,14.7784471-47.243767-1.0846736-9.6042817-5.4687595-18.5454895-10.6225332-26.5148945-2.9928009-4.5494645-6.2165867-7.7768268-8.9518803-12.3118677-3.9350134-6.6818079-6.2312544-14.4764883-5.947428-22.3159932.0840581-9.0368666-.1393627-18.5477762,3.4581404-26.9765074,2.1984184-5.0819347,5.6161717-9.4524531,8.3069446-14.2519262,4.2237659-8.4164184,5.5408379-18.2608292,4.6548367-27.6256855-.393204-4.7207591-1.6239762-9.3095073-2.6718823-13.9104217-1.5811689-6.4575097-2.3637716-13.0718024-2.1204001-19.7305092.3565937-6.5964978,1.0231328-13.1862528,1.3634203-19.7870308.3902626-2.8221537.6884282-14.9680624,4.0319044-11.1821385.5809247.6326437.8865866,2.1243988-.3569649,2.0432222-1.3664046,6.4532295-1.1211554,13.1829401-.7835094,19.7436428.5300786,5.8920294.6069117,11.8377368,1.4555458,17.6957887,1.446536,8.8233274,4.6691295,17.2549023,5.6323779,26.163188,1.1400674,11.7445992-.8444076,24.3693588-7.4675916,34.2151767-7.8572831,10.7577278-9.7785253,15.9338848-10.1765341,29.4115993-.9343878,16.9360886,2.3709895,21.9761597,12.2634794,34.7179496,5.5836594,8.1516931,10.0170707,17.3749814,11.9234846,27.1905157,2.889274,14.1222606-2.988553,27.9494243-8.3776451,40.6656211-5.3013215,11.3964399-8.6273064,23.6624571-9.2374022,36.3013178-.2164492,6.9746182-1.3135024,14.9003713,3.3917592,20.6464646,3.5962572,4.7669321,9.1219098,7.3287579,14.3768259,9.6772791,1.7545539.7880196,3.2642013,2.8518804,3.1544418,4.8703597.0030128,2.0194174-2.292293,2.947803-3.8962149,1.9852934Z" stroke-width="0"/>
      <path d="m67.9714855,644.6821542c-4.3348819-.2588621-8.8655804-1.1571692-12.3808424-3.947251-3.3643728-2.8753333-6.9436314-5.5025929-10.1907912-8.4996471-.5921619-.6829503-1.0856302-1.45596-1.0892856-2.3940785,0-.6116533.4313278-1.7449005,1.2173646-1.5912249.9273234.3487456,1.6954834,1.3006427,2.1986968,2.1526303,4.1029903,2.2290283,8.2538068,4.6054584,12.7531639,5.8760227,7.9888104,1.1985051,16.4603087,1.3427994,24.1934251-1.3393401,5.5663823-2.8899328,10.0805034-8.4463503,16.7809346-8.5351198,13.6647452-1.4853934,19.4275438,10.0018095,32.3164329,10.0182852,11.8966409.9398775,20.2675394-11.2860937,32.0100142-10.2663589,3.254906.4930986,6.1546176,2.3627688,9.1163983,3.7411581,3.3297687,1.9679968,6.6171299,4.3451306,10.6418378,4.2144975,2.8463953-.0187037,5.8653618-.3610584,8.5887042-.9571154,1.3999878-.3489801,2.7890097-.7054651,4.1670655-1.1369997,1.0198345-.3227128,1.6375837.8443067,1.7143454,1.7111282.0840724.9193562-.3070469,2.3828211-1.334192,2.6267905-5.0376887,1.2370266-10.3540813,1.9302375-15.4875793.9079815-4.1301554-.7896613-7.056568-4.1020406-10.6590864-6.0336853-11.0777205-7.9469781-19.0738201,1.7100728-29.0084677,6.3789715-5.695318,2.7844531-12.4016034,3.4221392-18.4776316,1.677356-4.5012418-1.3369948-8.3212518-4.2145562-12.522486-6.2491594-4.6005637-2.1472947-10.0951389-3.0055559-14.9574579-1.3182911-3.6975853,1.4675692-6.4886939,4.4421086-9.5301206,6.9109434-5.6876218,4.3270718-12.9980204,6.5455462-20.0604426,6.0525063Z" stroke-width="0"/>
      <path d="m426.6273788,42.1821247c-2.2426249-.4634159-4.231976-2.6400708-4.452152-5.0021067-.0450061-.8285639-.1212253-1.6426969-.240937-2.4600986-.5690877-3.2601378-3.091773-5.7426432-5.8432014-7.2483344-10.2253597-4.7055366-29.0173347-3.1953124-39.5962896.3800809-7.5125978,2.3797539-14.0926604,7.7350311-22.0563762,8.4842213-16.5711677.6482766-15.1580436-11.738298-33.847127-14.1119468-7.7401129-.5693134-15.2488269,1.312087-22.6056738,3.4918348-9.4714784,4.0512503-17.6559412,8.7747376-28.3652026,6.5447345-7.6391061-1.3517189-14.0085024-6.3433689-21.1204427-9.1410362.0113658.000022.022703-.0002455.0267581-.0027667-.5686594-.0094801-1.0700095-.4450163-1.26951-.9842439-.9677461-3.1701701,6.3208776,1.5310424,7.5372141,1.7935104,15.679041,7.788185,22.8897607,5.5804458,37.8179761-1.9058941,2.7861825-1.2542938,5.7177497-2.1135444,8.7252218-2.5854107,4.5037263-.943597,9.0077096-2.0645461,13.6344317-2.0567058,7.0743305-.2837809,14.3950525,1.4322267,20.5831677,4.9756946,6.5851744,4.3724862,9.502006,8.8570611,18.3144701,6.987444,4.4742267-1.2230244,8.4842277-3.712802,12.7665786-5.4598206,5.6551809-2.4409258,11.6262328-4.1784643,17.7612887-4.6347014,11.7934066-.7726542,24.7344126-1.7245642,35.4345928,4.3157081,2.6318309,1.6098114,4.912751,3.8425335,6.6894367,6.3979465,1.8390832,2.5991399,6.1228334,12.9794362.1057758,12.2218908Z" stroke-width="0"/>
      <path d="m411.7492528,285.3608245c-3.8806655-.3162925-4.406489-8.1696639-4.5835436-11.2688851-.0171058-4.3174561.4259876-8.6339154,1.4218912-12.8334616,1.0916558-4.4992458,2.990652-8.8061187,3.4389142-13.4584831.2504466-6.6136038.7557661-13.2688513-1.1333207-19.5645208-1.602287-5.7563393-5.8306362-10.4607693-6.7614008-16.4308677-.5557801-6.6199068,1.6032865-13.0870322,4.0684004-19.1113216,2.7535702-6.5457514,5.4501688-13.1282068,7.7639011-19.8514678,2.6181805-10.1665226,4.5141211-21.2080165,1.8846319-31.5614446-1.1888074-3.8887505-3.9059671-6.9935711-5.3390813-10.7805798-1.9973472-5.3800072-2.6065006-11.2322619-2.7154178-16.953583-.3306066-8.0074501,2.1166877-15.7423987,6.4186574-22.3751899,4.1313119-8.2050999,8.8727769-16.3253001,10.8746075-25.4166875.7638192-4.1124552,3.5884968-16.1434883-.4299571-18.1793228-.0013422.0009308-.002513.0017297-.0036839.0026311-.0041694.4799722.635112,1.3095402-.089384,1.4409867-.7094178-.0505705-.7389459-1.0056631-.8882144-1.5461-.0328979-.1988811-.1169703-.5591187.0365532-.7392374.2997363-.3527326.3509108-.3227128.8409522-.4317764,5.1772762,1.0426088,5.2014071,14.4462267,5.4717866,18.8901968.0620833,4.9727099.0447777,10.0052688-1.0636126,14.8710844-1.1491985,4.5790299-2.7762732,9.0502128-4.7701078,13.3100552-2.9593533,6.1727247-7.4193871,11.7958219-8.2260707,18.8140846-.672579,6.1854773-.5289934,12.7639309,1.6383833,18.63947,1.8448518,3.7098631,4.1434773,7.2336122,5.070558,11.347306,2.3656493,9.5704948,1.5725589,19.6122329-.0548869,29.2430165-.9342486,6.3491863-3.4298902,12.2870662-5.8305791,18.1694359-2.6606165,7.4645213-11.3402325,19.4745054-7.5410407,27.1868659,2.1536407,4.3197574,4.3951518,8.6050096,5.5675674,13.3399137.7054769,2.4015835.8882429,4.9795186.9468137,7.4824188.0402085,4.6817099.3067042,9.4064413-.4058548,14.0530304-.6331701,4.4387079-2.5370781,8.5278493-3.60783,12.852224-.9839666,4.0730175-1.4147804,8.3014696-1.4166367,12.4925435.0486615,1.8753576.477105,3.9429415.8645976,5.6768191.3832375,1.1384655.0029414,2.7986128-1.4475927,2.6908465Z" stroke-width="0"/>
      <path d="m416.9427781,635.8854167c-1.3244826-1.4583639-2.170518-4.2329081-.6505614-5.8464134,2.9647221-2.9014834,6.5376552-5.334142,8.5944585-9.0665639,1.8034438-3.4703936,2.4640003-7.4048042,3.2112849-11.2221844,1.07178-5.8385566.8331275-12.3736663-1.972531-17.5889604-7.1141393-11.2163212-13.9150061-17.1743707-10.2315566-31.7682704.8047702-4.6901236,1.8886299-9.3127614,3.6439263-13.7264919,2.8317312-6.7993073,5.7093538-14.5873329.0040266-20.7250321-1.9914644-2.5848097-4.0144845-5.1410655-5.4904915-8.0901584-1.5781847-3.391709-3.6512084-6.4605292-6.0238257-9.3137581-1.060043-1.3583956-2.0981541-2.7393061-3.1326098-4.1164642-2.8767374-3.8500385-4.320589-8.6044233-5.6146011-13.2049859-2.8894453-9.8897043-.6610705-20.4561145,2.639113-29.9372096,1.7907073-4.6321948,4.0252791-9.0796389,5.6217404-13.7941243,2.8862183-7.9667665,6.2745007-15.8619721,7.2487579-24.3722611.4772478-3.8413902,1.0792905-7.6794384,1.244294-11.5516986.067909-3.3841161-.7236678-6.6820718-1.4141807-9.9650176-1.4040144-7.3095558-6.0069484-13.5392199-6.5743512-21.0588557-.5834234-4.670775-.9461855-9.4041986-1.0379968-14.1168078.0422932-3.8803221,1.1790123-7.5923986,2.236942-11.2799667,1.996262-6.9135819,4.4245086-13.6917228,6.2031648-20.6686863.2698369-.8981899.4522888-1.8457189.9321924-2.6452304.3074467-.5650112.9001227-1.1231038,1.6009448-.8857012.9557807.1394865,1.3808545,2.2019401.0811024,1.9217945-1.4648698,1.960316-1.5311224,4.8441803-2.2852322,7.1778968-.4313278,1.7674153-.8370684,3.5423356-1.2465215,5.3135034-1.450991,6.455868-2.7857827,12.9992155-3.095,19.6313911.3450851,6.4080825,1.6866449,12.7636011,2.8551196,19.0604873,1.186637,4.6553839,3.9023975,8.7415645,4.9736063,13.4525026,1.2036571,4.5983346,2.2097556,9.2894843,2.5148321,14.0492633.2156354,3.7937807-.3853793,7.5689749-.7347195,11.3362244-.6622699,6.1883576-1.5894362,12.395331-3.5423484,18.3082042-2.7307815,9.1860861-5.1314134,18.4535246-8.7718843,27.3215885-1.5675614,5.1847173-2.9825132,10.534954-3.2922445,15.9746343.0933249,5.7268619,1.0541602,11.786023,3.9091941,16.7780449,2.4169666,3.8081163,5.312209,7.2898847,7.3218643,11.3579184,1.0895711,2.2054581,2.0091413,4.505842,3.3352802,6.5782045,3.0255203,4.3754435,6.7402114,8.7146522,7.2137753,14.2854932.7222685,7.077694-2.6853185,13.4481638-4.9610412,19.8857678-1.222305,3.8597715-1.8627571,7.8813098-2.5711468,11.8624503-.8774483,4.1072002-.6389101,8.4118158,1.3736866,12.1471107,2.4774507,4.6487292,6.0761995,8.5729377,8.5491096,13.2248916,4.0768819,7.4567525,4.3133355,16.3373344,2.8292753,24.5749533-.6353975,4.512702-1.3889076,9.108662-3.6989846,13.0774311-1.9336361,3.305402-4.8002356,5.9150133-7.5483228,8.4955429-1.3490703,1.2054237-3.1962352.3197225-4.2475397-.8704567Z" stroke-width="0"/>
      <path d="m397.5442769,639.4965281c-7.6072934-.3343806-15.6109607-1.0170964-21.9209009-5.8612474-4.4685724-2.9381286-7.5425257-7.4242701-11.4196501-11.0381373-8.5990276-7.4222766-18.1640023-4.0928353-27.0235286.8127625-2.460402,1.3647866-5.1244454,2.2719472-7.5774797,3.6474049-2.4122261,1.397738-4.262161,3.5853132-6.5941413,5.1113389-6.5795201,3.9829582-15.6946333,2.8913986-22.7545424.8104758-4.9129223-2.2034646-9.4054256-5.5331404-14.9140795-6.0241282-.815622-.1894413-1.6568312-.0424499-2.2805203.5626366-2.7489154,2.7687396-5.3120376,5.8369149-8.8201745,7.6265519-5.2616913,2.635644-11.6131251,2.4062154-17.1653858.9416365-1.253775-.4277821-1.3524686-1.9512866-.8407523-2.9833342,2.0282746-3.6822912,6.7719955-2.1603111,10.1419156-2.3069508,2.4726531-.0265605,5.20689-.2152396,7.1338152-1.9932674,3.3789156-3.1521369,6.316594-7.3190836,11.0859593-8.2332215,4.1845711-.6371584,8.5351166.6453083,12.3878531,2.27054,2.8549768,1.3020499,5.4639904,3.116723,8.4156333,4.1933899,4.7638538,1.140928,8.9404003,1.6504437,13.629834.848411,2.2722958-.7684363,3.8403998-2.8354633,5.8555381-4.0925421,3.9974358-2.8569814,8.8456761-4.0380726,13.0312752-6.558973,14.6277937-7.7758887,28.6099092-8.2526288,39.8685538,5.5459809,3.7942514,3.9900527,7.6086071,8.1171879,12.348073,10.9378759,4.0478107,2.0290331,8.5223515,2.9407085,12.9380931,3.7152426,2.1482148.2741651,4.4388443.4806685,6.5270319-.0166516.2027846-.9653826,2.7091637-1.5976745,2.4153959-.132861-2.0531194,3.5609221-10.8530754,2.2634455-14.4678163,2.2170673Z" stroke-width="0"/>
      <path d="m132.3802202,640.3631151c-5.7122096-.6855888-11.5786423-1.6584763-16.540326-4.7058371-3.3646941-2.1523957-6.7549041-4.3100097-9.9752844-6.6682639-.4093959-.36399-.3399448-.8968413-.0328836-1.3097894,1.529666-1.8098066,3.8008624.3538466,5.3879284,1.0621261,3.1706908,1.8232334,6.2173863,3.9072051,9.5686443,5.3747743,3.3390355,1.1423352,6.7183651,1.4401879,10.1793684,1.7823666,2.9154038.0581633,5.9003444.1415386,8.763617-.5135613,1.7624928-.7564753,3.5190743-1.6194858,5.0893058-2.7454039,3.0858902-2.7220682,6.2807404-5.3348456,9.8973947-7.2828488,2.1021092-1.3059196,4.4632607-2.2754065,6.9524627-2.2593412,5.4260808.1300467,10.8842598,1.8653315,15.6666329,4.4695485,4.2383157,2.6091422,8.8394078,4.6144292,13.5624105,6.0788322,2.4566039.3456967,4.6719282-.0824958,7.0282107-.2001124.179482-.8950824,1.4955973-.3091101,2.1317373-.4722841.2684662-.0568148.6298289-.0892385.7340626.2374613.514315,1.4349696-6.451898,3.1300911-7.7055873,3.9626127-7.1876598,2.7369608-15.593755,1.1688957-22.03433-2.8558674-2.1262115-1.2000881-4.4053896-2.0314371-6.7586165-2.6154159-2.51893-.5255809-5.1998793-2.0380625-7.5898307-.4042705-3.3131627,1.4275819-6.1052565,3.7331255-9.1333327,5.6611936-4.6246517,2.7003156-9.8631117,4.2284521-15.191584,3.4040804Z" stroke-width="0"/>
      <path d="m183.1575787,639.5167563c-2.0762221-.506584-4.2621039-.8743265-6.2103898-1.7936827-.5592641-.2626732-.9979025-.7692572-1.1697883-1.3734055-.5307497-2.8868839,2.8167958-5.0120742,5.322204-4.7319286,5.727145.3984659,10.9526971,4.5854062,16.7826337,2.6636703.4914122-1.0002103,2.610413-2.1362718,2.9195731-.442147.1352469,1.6285738-1.6339283,2.8181081-2.8329021,3.4668757-4.5686653,2.6856575-9.6911832,3.858247-14.8113307,2.2106177Z" stroke-width="0"/>
      <path d="m398.3718072,641.9787311c-2.6100703-.1109325-5.2197979-.43816-7.6358792-1.5123644-2.7965773-.7966972-5.4916909-1.7648355-7.943126-3.3995071-1.915388-1.0769601-3.8636739-2.1389103-5.6182278-3.482296-.2595278-.1988811-.3838087-.5816335-.3948317-.9044049.0197616-1.5677133,1.8763503-2.97237,3.3446755-2.4991478,1.6197925.6185133,3.1404345,1.473022,4.7191332,2.1949629,2.8842479,1.5655439,5.8364334,2.8278411,9.035867,3.5275016,2.2370562.8961377,4.6243233.9664966,6.9743233,1.3172357,2.47885.3672734,5.0003359,1.0693379,7.5100562.6123569.6860866-.1462879,1.3345347-.4053845,1.9316371-.7812182.3033916-.1613564.7822386-.2551682,1.0162648.0825544.3343476.8186257-.5274799,1.5885279-1.0564448,2.1051966-3.2753386,2.7694432-7.8318101,2.8760369-11.8834474,2.7391302Z" stroke-width="0"/>
    </g>
  </g>
</svg>