<?xml version="1.0" encoding="UTF-8"?>
<svg id="Layer_2" data-name="Layer 2" xmlns="http://www.w3.org/2000/svg" viewBox="0 0 438.4629443 669.4866748">
  <g id="Layer_1-2" data-name="Layer 1">
    <g>
      <path d="m180.3415955,43.1771403c-4.3565152-.0969326-8.7512388-.0094184-13.0213036-1.0611925-7.172622-1.6582749-14.4944495-7.2160469-12.2897753-15.9804467,3.2417862-11.9771482,16.3916141-24.5839989,28.1510346-25.9360291,6.9415293-.9167728,13.2473864,1.3275853,18.1016718,6.7120532,2.0136878,1.820455,3.9177461,3.7942992,5.2908077,6.2141448,1.7289108,2.3390814,3.2652304,4.9610034,3.8296211,7.9217476.1632162,4.1699427-3.495695-1.3843661-4.7968193-1.9298829-.8087266-.5470451-1.5407154-1.0965562-2.4265845-1.3826484-.5144323-.1369089-.7252067-1.216968-.0356966-1.023075,1.9495512.6950325,3.5607527,2.175659,5.2335648,3.4058002-2.7867597-5.1317849-7.4317221-8.9917457-12.4381295-11.4415438-5.1069244-1.8360041-11.0595-.6085193-15.4894596,2.5490509-6.6700652,5.245481-12.9841138,12.0115379-15.9021052,20.4164145,4.5741972,2.1792596,9.7090592,2.3639143,14.6071211,3.0813862,7.1114299.9367623,14.2499322,1.5699288,21.4132742,1.7724399,2.1014779-.0697246,4.2891969,4.0141301,1.6361667,4.8564481-7.1623233,1.6455957-14.5556555,1.8244567-21.8633886,1.8253332Z" stroke-width="0"/>
      <path d="m215.5744059,37.684094c-4.4227869-.8096209-10.0746908-4.8006803-8.7985319-10.2486752-1.2094128-2.0754006-1.7136441-5.2291817.1926051-7.0436369,1.2896533-1.1903468,2.9436962-.9431502,4.4762759-.604681,3.8118008.8328625,7.2484946,3.186935,9.2666619,6.7655184,2.8957193,4.4289866.8345152,12.3814666-5.1370111,11.1314747Z" stroke-width="0"/>
      <path d="m242.3945644,49.5085605c-8.0804282-.9729282-26.4304549-13.8556903-26.0607485-23.296271-2.6416291-3.3939473,6.9114287-9.6093381,9.1917522-11.3495785,11.0692684-7.815482,24.3021976-13.9555894,37.8320585-12.9335255,10.8698672.6932016,18.9065609,12.5416403,16.8229592,23.7571278-3.5680929,17.3369902-22.2320902,26.6044868-37.7860214,23.8222472Zm4.1273204-9.7723408c8.8493695-.3579746,17.6730061-5.3482788,22.1521288-13.611307,2.0859182-3.7505385,3.5282936-8.8787413.9422887-12.7501428-3.1211184-3.1773476-8.0515695-2.7306425-12.0774101-2.7967572-12.6325069.8867585-25.1842151,5.1652248-35.9984025,12.1557679,1.605773-.5659209,3.2133741-1.1285217,4.8211007-1.683262,1.2003421-.4145297,2.6971974,2.0802547,1.3289502,2.5480268-1.4912454.5117408-2.993529,1.0036755-4.4868676,1.5216408,1.7249615,1.5628093,2.1227451,3.8564939,3.8159733,5.3861085,5.1571061,5.4606519,11.9609706,10.0024219,19.5022385,9.229925Z" stroke-width="0"/>
      <path d="m184.6154141,83.43141c-4.0076713-.2035733-7.5048875-3.469629-8.5453347-7.5451497-1.0717341-3.951343-.5144323-8.1156554.7466274-11.9338108.79593-2.1675163,3.4519884-2.3748034,5.183746-1.4338816,2.4884883,1.254976,4.6884457,4.1983836,4.4317598,7.2446067,7.5514828-7.8586913,14.0244355-16.4379889,18.7391164-26.3243387,2.042393-4.2050761,4.0041408-9.2153907,2.7721211-13.9761003-.0928836-.308045-.1321805-.6807415.1214213-.9166479,1.4903104-.6545771,2.1732059,1.7779625,2.3007116,2.9797648.2490386.6319261,1.2494493,1.8405304.2644587,2.2391573.3709902,5.977932-1.2332896,11.7794095-3.6050035,17.1390305-2.6213526,7.9252293-6.9471671,14.9331126-11.5670386,21.685287-2.9139444,3.4803176-6.007488,10.851256-10.8425855,10.8420827Z" stroke-width="0"/>
      <path d="m237.120991,75.5647413c-7.1350694-1.7307329-12.0471141-7.9439473-15.3795232-14.5159608-3.0128426-5.5433324-5.2732246-11.5385339-6.6378574-17.7791197-1.0855773-5.3664026-3.5252794-11.0502686-1.8966483-16.5506554.2699709-1.0825214,1.0380749-2.1197816,2.2040462-1.950937,2.3942371.0414359,4.548297,1.164903,6.2268307,2.943404,1.00743.9355442,2.0005702,1.8901034,2.9937104,2.8408597.3465273.3308632.6644751,1.0230119.3429549,1.4831779-.33581.4867872-.975278.2015603-1.3074039-.1180646-1.9573241-1.6752789-3.3760181-3.765524-5.6415215-4.7475252-.7549585-.107428-1.609471-.4758238-2.3347894-.1143136-.7896782,1.4102129-.5552224,3.0537734-.4151295,4.5903311.9885491,5.2256832,3.6816716,10.7575916,5.6191937,15.4303432,8.9817454,19.803057,13.7320949,24.7049928,32.834303,12.5309006,4.3289125-2.0587141,9.2125031,3.2989088,9.0525524,7.8459006-.0785938,1.5668463-.8895393,3.0652382-2.3613874,3.5444193-3.0115727.9849835-5.844523,2.4947844-8.8525233,3.487218-4.6385152,1.6335701-9.6651991,2.4997685-14.4468075,1.080022Z" stroke-width="0"/>
      <path d="m248.5253577,649.8976408c-4.2154873-.7948322-8.195193-2.6735266-12.0391458-4.6168724-.9741895-.4921352-1.9387222-1.0188542-2.8938494-1.5576359-9.9763648,8.2486424-32.1562638,7.8665573-42.9478163,1.4739693-4.8126859-2.8181604-9.0752011-7.5403885-10.1743565-13.4170723-1.5490743-9.3494399,3.3692918-19.4842045,11.4318578-23.529613,10.2495453-4.6142578,21.7885207,1.5305393,29.4587036,8.8904623-.2180728-1.3709311-.4345268-2.7338996-.6147958-4.1097033.000614-.5852499.7294211-.2229523.7252765.1900918.2294181,1.637024.4439742,3.150212.7476601,4.7437389,2.914391,2.954178,5.8793265,5.8317606,8.6181652,8.9589762,9.6959835-4.2435223,19.3167503-9.1210802,29.8203301-10.5879782,4.8180586-.7665472,9.8551807-1.1056701,14.525513.6389676,6.8264435,2.1560181,13.0168241,9.6399554,10.9498566,17.5358673-4.1479736,12.5594307-26.5011921,17.7801522-37.607399,15.3868016Zm6.9454786-8.458819c6.7840765-.3600989,13.5377873-2.3171118,19.1805508-6.4302617,10.7990323-8.2317071-.2452429-12.7123242-8.465164-12.0084081-10.4856338.4784087-20.4639802,4.2084632-30.2598248,7.9203938.62956.8395178,1.1652875,1.867107,1.3921937,2.8979051.1989406.8985241.3207667,1.8523703.2347209,2.7830418,5.5220539,3.1407045,11.5616381,5.463402,17.9175234,4.837329Zm-42.5606245-4.0334052c2.4513265-.1692346,4.8604674-.5181027,7.2657708-1.0498132,1.7150675-.4286128,3.4243019-.9282352,5.0957326-1.5366004.0148201-.1358393.0362408-.2705496.0648901-.4034772.2048575-.9449923.7931111-1.6068375,1.532496-1.9382949-1.4754903-.5456152-2.92395-3.1691083-1.325294-4.3785297.7787097-.4785869,1.871683-.3724588,2.7445602-.4440032-1.9274188-1.3130538-3.5746517-2.9716481-4.9060719-5.0055534-.5375416-1.1545746-1.3532875-1.8826757-2.3832267-2.5270507-8.6187792-6.6334858-22.3620659-10.0299437-28.462591,1.8464875-1.3650794,2.7836361-3.566837,9.0854268-1.4809188,11.7404136,6.2907858,4.4613643,14.6132333,3.5822713,21.8546528,3.6964215Zm16.4616676-9.9547745c.1334923-.0431406.2663147-.087529.3990535-.1332247-.3467506-.3454216-.7461948-.7404609-1.0650636-1.0227166-1.561857-1.3664744-3.1553358-2.6949186-3.1661926-1.8475571,1.1351729,1.2710423,2.4095875,2.221026,3.8322028,3.0034984Z" stroke-width="0"/>
      <path d="m200.0611532,669.2742316c-4.3130737-.7396884-8.6578249-5.6420253-7.2377354-10.4429879,1.5872967-3.4363896,5.9657211-1.8492803,7.7909344.6165654,10.6951383,1.7132628,22.8504305-3.196502,28.2972956-13.4819614,1.7596533-3.470914,2.9068274-7.8726778,1.2939514-11.5917986-.2978528-1.3140046,1.064031-1.5871093,1.790075-.7570991,1.7154722,2.6412603,3.1182995,5.5808798,4.8439588,8.2679547.3250927.5476356.5787364,1.5021949-.096484,1.9054344-1.6770963.6304108-2.3254675-1.8369205-3.1191368-2.9283887-.2558765,17.7316042-17.8187787,30.4394718-33.5628589,28.4122812Z" stroke-width="0"/>
      <path d="m267.1113193,667.7349572c-9.914461-.1210432-19.1099112-2.246637-25.2716005-11.2716908-3.5414949-4.8684663-5.9192095-10.5206528-8.317047-16.0864393-.611949-1.069066-2.5967781-3.6184-1.4213594-4.6554969,1.9482953-.645207,3.3517087,3.6252336,4.2552586,5.0135754.5271871.8266231,1.5417062,1.5541894,1.4458641,2.6649104,5.6801626,10.6055672,13.0371703,18.9236743,25.3754806,14.4781757,2.7615014-1.3424678,5.7766465,1.0344228,7.0375528,3.5899962,1.590604,2.8715216.5463611,6.9103936-3.1041493,6.2669693Z" stroke-width="0"/>
      <path d="m13.0115742,642.0655484c-6.965243.1657881-15.0148807-6.2713665-12.5611225-14.3260547,3.6027289-9.3497965,19.379419-15.7066122,28.0699611-18.2833994-1.328106-26.4395808-6.6809849-52.5740876-6.2028039-79.1421393-.0044132-9.5906349-.5274767-19.1653446-1.0073812-28.7394602-.8460629-19.5360504-.9080225-39.1018714-.661119-58.654055.3026079-13.4824071,1.2729319-26.9329936.9899166-40.4299591-.2191892-13.6998034,1.0304032-27.344671,1.525222-41.023231.8058135-16.948181-.3186281-33.8964809-.4395191-50.8464149.0141188-17.5952004.1909689-35.2773653-2.8069559-52.6498807-2.568366-13.1518707-3.1729363-26.5613667-4.3625542-39.900581-1.3796334-13.26611-2.1135724-26.5870965-2.0864093-39.935551-.0349273-15.2187851-.3475443-30.4750954,1.3109266-45.6173001,1.564634-15.3659369,4.2983652-30.5790695,7.4521939-45.6591111,1.4809013-7.0387308,3.0746068-14.0464135,4.5762486-21.0801826,1.3947405-6.8034855,3.001567-13.6536101,2.6784804-20.6733778-4.9578306-.9599073-9.7009898-2.8135774-14.3461266-4.8599466-3.5093996-1.8616327-8.4980111-2.8466534-9.7777879-7.3515222-1.0571652-5.5673148,5.4399085-7.8964374,9.4955366-8.7276101,10.3720586-2.1320338,18.0498818,4.9812014,19.9410354,15.5963263,8.5530099.3587099,17.185887.7002246,25.6900164-.5249586,12.4730028-2.082379,24.3796122-6.8235405,36.5675239-10.2074844,9.6244788-2.7894149,19.7182738-4.5909049,29.3798097-6.860646,4.1635612-1.0849949,8.3849514-1.8856412,12.6107234-2.6317453,1.1789075-.2205755,2.4435536,2.2627999,1.0002153,2.5286793-16.3851949,3.2022306-32.621261,6.9939877-48.3815707,12.6644187-9.6203691,3.5052601-19.1015523,7.6747719-29.1368764,9.6560291-8.874394,1.671021-17.9551771,1.5761608-26.9400344,1.6402328.440032,7.7358729-1.3048153,15.2842833-2.9040364,22.7674556-4.8483337,21.6593343-8.9560789,43.5490413-10.9496368,65.7390758-1.6136261,15.5551597-1.3198202,31.2183045-1.3824672,46.8418296-.08921,12.8138175.4483421,25.6148443,1.7037676,38.3573402.7744325,8.0038673.9130742,16.0747777,1.8220944,24.0617245.7503045,8.3567613,2.4487797,16.5736722,3.3687371,24.9060109,1.61813,15.3985078,1.1423527,30.9095019,1.1752164,46.3740872.2777159,17.1340836,1.1155593,34.2787741.0787194,51.4054893-.2912381,7.8265661-1.0931897,15.6340873-1.3896155,23.4608614-.4206277,8.8726357-.3028695,17.7469351-.3428398,26.6287813-1.4265959,33.0664113-1.4744437,66.285419.3499393,99.2931805.6369596,12.678513.0182844,25.4086044,1.0397948,38.0644775,1.2728237,18.1539777,4.1652672,36.1280841,5.5209235,54.2705933,10.6175702-2.0755009,21.598274-3.3403038,32.3540776-1.846131,10.659065,1.9921909,20.0555142,8.2094237,29.6154936,13.2842635,10.1003189,5.6905733,20.3163586,12.4337526,31.9898799,13.2864027,5.52017.2406602,11.1459643.88557,16.5958576-.3714486,2.9155632-.7743315,5.7867219-1.7804694,8.7627655-2.278012,3.3320742-.5393165,6.725815-.4454887,10.085143-.6540609,2.8884907-.2093446,5.7306373,3.3181393,4.7440838,6.2978094-.3822518.908923-1.2467839,1.4109223-2.1649028,1.369089-2.6800329-.1240737-5.3634847-.1588951-8.0436013-.0971554-3.9541265.2011444-7.732603,1.4755737-11.6048563,2.2348714-7.4479376.8945428-15.0842521.0965018-22.4671879-1.1373422-9.6841149-2.3029693-18.471141-7.5636226-27.1931304-12.422403-6.2810314-3.2861702-12.5548481-6.6303365-19.07194-9.3675043-6.6465722-2.9853746-13.8605006-3.8440264-21.0219064-3.4814317-7.4854658.2016792-14.9709874.95551-22.3142844,2.5384598.1887047,7.4705673-.258664,15.8442342-4.718372,21.9684118-4.0062724,4.7866418-10.6706091,4.513953-16.2152655,4.544199Zm3.0562762-6.4136829c2.9691324-.2526041,6.2806895-.553043,8.4480169-2.9906038,3.2261009-4.3734788,3.8820949-10.3281841,4.0609545-15.72741-6.1667619,1.8027527-12.1181688,4.5538848-17.4654074,8.2996267-9.9983943,7.8710139-5.2909717,11.2701458,4.9564359,10.4183871ZM28.6398874,38.7075311c-.655401-2.821956-1.6126458-5.6283433-4.1879055-6.8950478-3.4700669-1.4852131-7.6896255-.607043-10.9568488,1.1210828,5.156186,2.4735112,9.7343394,4.4861211,15.1447543,5.773965Z" stroke-width="0"/>
      <path d="m421.3464644,654.1453821c-9.6647246-3.7992814-6.2011816-17.4845264-5.6123977-25.8930148-13.5473882-3.4387665-26.574204,3.3575957-39.1000399,7.7639944-4.6652527,1.6282889-9.6474206,2.5849874-14.5469756,1.8598575-9.833132-1.9520809-20.0035811-1.3719413-29.5406187,1.8669882-8.3605583,2.5836207-16.5820702,5.6676363-24.8677745,8.5074264-3.3552532,1.1009163-6.6944584,2.382001-10.1956516,2.8216069-4.8661471.7351129-10.6711499-1.4064656-11.8497224-7.0162246-.884041-3.177368,1.1649805-6.3922314,4.4368115-5.6400644,1.7982246.5368208,3.6457378.2235466,5.4383247-.1682839,14.019314-3.7689166,27.6550924-9.3448644,41.9894237-11.6894293,8.3513759-1.0531408,16.7896628.0477161,24.9521457,1.8741189,6.7476264.7169891,13.2490331-1.5562691,19.6820051-3.3991913,11.1242366-3.1812899,23.0063064-6.9346973,34.3645662-2.8957659,1.6440233-15.6301358,4.2762747-31.0913934,5.471621-46.7337108,1.3588974-16.7066295,1.0144074-33.5370356,2.8941843-50.1960679,2.4804224-23.0014084,7.0811757-45.7946607,8.1056586-68.9451002.2634959-13.9064147-.0721188-27.8186527-.1071734-41.7267906-.3446016-24.6065227.2988017-49.2393695-.7896503-73.8281249-.5414769-14.00975-2.0938725-27.9401415-3.0829658-41.9169419-.8170577-14.6142824-.8028237-29.2701901-1.5865292-43.8868494-.9631931-16.8664903-3.3615329-33.5490241-5.96914-50.1999898-1.9563891-14.0481962-2.5769343-28.2385899-3.5045983-42.39232-.4489282-6.9890835-.7197922-13.9926215-.7249834-20.9964863-.4932489-13.91512,1.1687204-27.7562742,1.3109484-41.6545777-.2679614-12.5473903-.2644169-25.3464488-3.6742337-37.4712056-2.4713517-9.0223426-8.3736758-16.6472815-10.1161926-25.9095342-8.0911176.170891-16.1317465-1.0636883-24.2098024-1.3125413-10.0238114-.2539336-20.0419849-.5353575-30.0620843-1.0006264-12.9916216-.1425837-25.6843856-3.0282645-38.4829834-4.9943208-6.7238194-.6877979-13.4821911-.7482229-20.2306827-.7409919-.8217465-.0715518-1.7819253.248619-2.4761801-.333838-.4122827-.3697848-.6948409-.976371-.48362-1.5198842.3498765-.6937104,1.3880351-.3058873,2.0103945-.4106264,6.0506923-.0817353,12.0957468-.4431118,18.1440388-.4997115,9.6910435-.0921342,19.3207972,1.6150823,29.0154132,1.2855487,13.8804352-.2233646,27.7513531-1.3577951,41.6404403-1.1296916,8.3052132.3367683,16.5259437,1.8480659,24.8443582,2.0664687.5951473-8.5068619,5.7523651-17.2683891,14.7171134-16.0084755,5.6105278.5093732,12.6376423,4.3833782,13.9178621,10.6599219,1.0187335,7.1257139-4.3904255,10.2713894-10.0455251,11.6907273-4.2372569,1.3514406-8.6348273,1.9472974-13.0483062,2.1167474,1.5619407,7.7780627,6.6462303,14.0794523,9.2475298,21.4619781,5.7108633,15.0876773,5.2634701,31.8177787,4.9547605,47.8078648-.188921,6.9291487-1.1497139,13.8076771-1.7256035,20.7112743-.6074555,8.5428421-.6808023,17.1137909-.7074561,25.6795403.560288,15.9951222,1.3649538,32.0264771,3.3258364,47.9052356,2.3681415,16.2445471,5.7874755,32.3123427,7.0487446,48.7281151,1.7571973,17.2943157,1.6146343,34.7227178,2.7970584,52.0634127,1.2556592,15.6970452,2.9523482,31.3532674,3.2939634,47.1156771.7145452,22.7562619-.2991087,45.5242597-.3499044,68.2833144-.2867726,16.0777934.453003,32.1881799-.3504347,48.2451755-1.9457834,24.3885024-7.0271704,48.3647331-9.0954496,72.7366567-.8706444,15.6003058-.7765327,31.264134-2.2074651,46.8305096-1.4623588,13.5226657-3.5399878,26.9596444-4.8880004,40.5056036,7.9042619,4.1208747,12.6848098,15.2259455,9.0067246,24.0429025-1.469085,3.7242311-4.8919636,7.430279-8.9777822,5.8797144Zm-.3119193-6.6539271c.3187292.0905595,1.1324377-.4069237,1.1303445-.4806073,2.2730251-2.2093793,3.7794255-5.6139186,3.4063001-8.9277201-.5477008-3.2257971-2.0530405-6.5078672-4.8925497-7.872143-.3411408,5.6461255-1.2906301,11.7606766.2201799,17.2526607.0437346.0164005.0904834.0185397.1357251.0278096Zm-11.1454201-619.6548393c5.350409-.0990829,10.9637835-.7451515,16.0018267-2.5517704.4715351-.289171.878794-.6542614.9716776-.7987764.2536437-.3156511.4679905-.6617264.4571616-.6959239.7559353-1.3735958.8494888-3.051987-.5806063-3.9433303-1.3484312-1.1002497-2.8507847-2.0215269-4.5152658-2.4491518-7.0490237-2.1325194-11.5134659,3.5351699-12.3347937,10.4389527Z" stroke-width="0"/>
    </g>
  </g>
</svg>