<?xml version="1.0" encoding="UTF-8"?>
<svg id="Layer_2" data-name="Layer 2" xmlns="http://www.w3.org/2000/svg" viewBox="0 0 432.2397814 639.3203465">
  <g id="Layer_1-2" data-name="Layer 1">
    <g>
      <path d="m4.4877128,606.7868576l.1339128.2638663c2.078777,5.9589256,13.1584955,10.3071538,18.5963558,11.3089291,2.0024342-.0680945,4.1375296-.7562421,6.2213127-1.4286755,3.1976371-1.0299297,6.5016534-2.0958709,9.907043-1.2198086l.9186167.2389856-.0100122.9710017c-.0150183,1.3396288.0387972,1.3429026.5844605,1.3821879l.3228925.0916657c5.8208258,2.7080668,10.4677246,6.0735078,14.97195,9.3354974l.0625761.0451781c8.6079639,6.2365418,16.7416012,12.1227896,31.6422144,11.4706535l.0362941-.0006548h.0062576c.6583002.0229164,1.2903185.0340473,1.9023125.0340473,13.0270858,0,16.0232279-5.1810766,22.8315041-16.951608,2.0687648-6.2227919,1.9461157-19.6478892-2.0887891-24.4203987-1.3266126-1.109155-2.7833835-1.9668841-4.3390245-2.5535447l3.2589616,4.4444772c2.5643673,3.4990109,2.5067973,7.8367631,2.4517303,12.0350524l-.0012515.0477971c-.0162698,1.293796-.0325396,2.5155689.0300365,3.6496046.3579351,4.2415031-1.6470021,7.206234-3.6143937,10.0609659l-.088858.128332c-.7196248,1.044989-1.46428,2.1253349-2.1213287,3.3399055-3.4679657,5.4115504-9.1085724,8.1556288-16.7641285,8.1556288-7.0535744,0-14.5539418-2.2752738-20.0381084-3.9396611-1.1551542-.4177337-2.2389717-.9873706-3.3202862-1.5550432l-.1576917-.0838086c-.3979838-.2082121-.7959676-.417079-1.200209-.614815l-1.1326268-.5604703,1.2878155-2.4487838.9173652.2488069c9.0923026,2.4553314,22.79521,3.2213948,31.4882773-2.7041383,4.4078582-3.0040161,7.0410591-7.4897429,7.8357752-13.3622409.3203895-.9873706.7046065-1.9275988,1.0863205-2.8619343,1.1176086-2.7453879,2.1726411-5.3382178,1.2277424-8.4280069l-1.1526512-3.7681153-.1514341.978204c-.3591866,2.3171781-.4655659,3.6915089-.5694422,5.8967239l-.0788458,1.6447447-1.5193469-.5375539c-3.5831056-1.2728438-10.3525846-2.1718225-12.9983008,2.5181879l-.1914828.3371988-.3466714.1636888c-2.4730062,1.168083-4.8834363,2.7872922-7.2262843,4.3606686-4.8846878,3.2829418-9.935828,6.6771919-16.3411143,6.6771919-.5994787,0-1.2152272-.0307735-1.8297242-.0916657l-3.9498014-.4000553,3.4992537-1.916468c3.9710773-2.1737867,7.7794567-5.1457199,11.4626841-8.0200945,8.0260064-6.2614224,16.3098263-12.7441521,27.3319749-12.3368945.5681907-.0111308,1.0512779.1172012,1.466783.2258905.1113854.0281545.2165132.0549994.3128803.0720231l1.0575355.1964265-.5406572-1.7691481c-11.721749-3.8375193-26.4834434,7.860989-30.7311069,11.5446409-5.5943005,5.0180426-11.9307531,10.7065544-20.6338326,8.2525325l-1.0224929-.2920207.1514341-1.0764173c.441787-3.0983008,1.0325051-3.4466305,3.840919-3.8479954,11.4676902-1.9557533,17.463729-12.2799308,20.0280962-18.2814155l.1226491-.1983908c2.0875376-2.699555,5.2013228-4.0326363,8.2124831-5.3225037,1.3879372-.5938628,2.69828-1.1549879,3.9610651-1.8771827,10.1072865-5.0475066,18.3823457-6.2155896,27.6561189-3.9036495.6920913-.1433914,1.4742922-.1617245,2.1038074-.1761291,1.5694078-.0386305,2.5218155-.1466651,2.7358257-.553268.7521643-2.565985-1.0024686-3.6875804-5.4916757-5.3801222-.7559189-.2848184-1.5368682-.5794582-2.2151928-.8917764l-2.9335661-1.3461764,3.074988-.9585614c7.2075115-2.2458098,7.2187752-3.9704346,7.2175237-3.9868034-.0387972-.5002329-1.6470021-2.1351562-8.2775622-3.0505037-12.4613981-.2632115-25.8589342,4.2493602-34.9124397,11.76071-1.4392496,1.4470086-2.9698602,2.8265775-4.4479069,4.1603135-2.8759961,2.5941395-5.8496108,5.2760161-8.1724344,8.5275296-1.286564,1.68403-2.2902841,3.6561521-3.2614647,5.5627988-1.8059453,3.5474628-3.6732152,7.2154005-7.4765886,9.5816853l-2.5531036,1.5864715.7621765-2.9549095c2.4880245-9.6425775,1.7959331-19.4514627.6758215-28.6494615l.0200243-.2317833c.8848256-5.4626213.2753347-11.1511331-1.9786553-18.4601636-1.5881806-7.636408-3.5155235-13.6712852-6.0698786-18.9996818-1.697063-4.1203735-4.7407629-7.4773026-7.6918502-10.7314351-3.3015133-3.643057-6.7156636-7.4105175-8.3338807-12.1443965-13.1534894-22.5209544-8.2412681-47.6753335-3.4892415-72.0034118,1.1664179-5.973985,2.3728845-12.1515988,3.2664707-18.1792737.7809493-3.5919861-.4655659-6.6097521-1.785921-9.8036472-.4668175-1.1314167-.9486532-2.301464-1.2815579-3.3471078-1.4392496-2.8141372-1.9398581-5.8495815-2.4241969-8.7855031-.2490527-1.5098651-.5081177-3.0714559-.8873286-4.5335239-7.2738421-26.1790708-4.1074931-43.1359168,5.2338623-69.0832043,6.1074242-17.8983838,12.9607552-41.5514096,11.7305097-65.8028815-.0300365-7.2193291-3.0512091-13.9344968-5.9810206-20.4453809l-.088858-.2409499c-.8485315-4.3881683-3.2714768-8.1687239-5.8483593-12.1921936-2.1713896-3.3844288-4.4166189-6.8840945-5.5842883-10.6600668-7.8482904-16.6726823-8.5216089-37.1043134-1.848497-56.058817.3804625-8.510506,3.3290468-16.4828034,6.181264-24.1931987,2.9773693-8.0567608,6.0573634-16.3878639,6.1111788-25.1753313-.2265254-11.3547619-2.4329575-22.9367238-6.5642295-34.4414246-.6883367-2.9280645-1.6257262-5.9189856-2.6181827-9.0840714l-.0187728-.0602375c-3.6131422-11.5164864-7.3489334-23.4251711.0926126-33.8573831,8.9446231-15.5301348,24.9540843-20.685676,36.127667-17.7530282,1.0925781.2121406,1.8159575.2998778,2.6507222-.2841637l.2452982-.1172012c1.8660183-.5964818,3.7282821.0556542,5.3953086.6396957.9574138.3345798,1.8622638.6501718,2.9085356.7516588,6.9046433,1.9786697,14.2736011,2.0912876,21.4010152,2.1999769,1.437998.0209522,2.8759961.0432138,4.3102395.0792254,5.6305946.130951,11.635394-.5519585,16.0269825-1.0508818l.177716-.0196427c4.6806899-.5290421,9.9808828-1.1261787,15.267309-1.0698697,2.4367121.0720231,4.8396331-.6599931,7.1561991-1.368438l.4142536-.125713c.5143753-.157796,1.0262475-.3129729,1.5443774-.4622571,12.5790411-3.6044265,25.930271-3.1611573,38.8447198-2.731638,3.4354261.1139274,6.9884952.2311285,10.6028889.2736876,4.455416.4969591,8.9934325,1.2793913,13.3812663,2.0349787l.1126369.0196427c10.9720877,1.8883135,22.3158773,3.8414478,33.403105,1.5177222,2.3440995-.449162,4.7345053-1.2217729,7.266333-2.0389072,5.8796473-1.8974801,11.9582865-3.8584715,18.049441-1.7141487,8.8207225,4.3076334,19.3773051,6.6601683,31.3793949,6.9934386,2.9585965.1722006,5.6443613-.8531458,8.500333-1.9413487l.146428-.0556542c2.0474889-.7785037,4.1650631-1.5838524,6.4403289-1.9557533,1.3616552-.1983908,1.9336005-.7202305,2.1839048-1.9937291.0525639-.2926755.0225274-.457019-.0250304-.5152922-.3629412-.4602928-2.2402232-.5179112-3.5055113-.5565418-1.2590305-.0392853-2.5618642-.0811896-3.6707121-.3863055l-1.8021908-.4963043,1.1851907-1.4758179c.8097343-1.0109418,1.8835396-1.7927193,2.9223024-2.5483066,1.994925-1.4548657,2.9410752-2.2903331,2.7958987-3.4885349-1.3065883-.3961268-2.7408318.1571412-4.2902152.7516588-1.6382415.6279101-3.3290468,1.2780818-4.9873126.9978467-7.6029922.3863055-14.7178911-1.5714121-21.6162768-3.4616899-5.6180794-1.5367101-11.42639-3.1251458-17.3410799-3.3831193-8.1311342-.6743977-16.0369946,1.7036726-23.6938023,4.0044818l-2.2452293.6665406-.2265254.0301187c-3.0612212.0851182-6.1850185.5041614-9.2061911.9094548l-.614497.0831539c-3.6932395.4949948-7.0122742.9074905-10.4890005.8577291-7.0322985-.3941625-14.1409398-1.5858167-21.0155466-2.7381856-12.0809356-2.0225383-24.5748733-4.1151354-36.9311437-1.847064-7.8182539,1.3435573-15.4224977,4.2388841-22.7776887,7.0392714-8.3564081,3.1821095-16.99566,6.4729083-26.2206239,7.5584922l-.2252738-.0209522c-7.2888604-1.3140934-14.5789723-3.6319262-21.6325466-5.8738075-12.9319702-4.1059689-26.3044758-8.3514005-39.9911134-6.5881452-9.7017935,1.5596265-20.5287048,4.0241245-26.2093602,13.6064645C5.5102058,31.3154506,3.4502016,39.8848846,6.667863,57.6758885l.3679473,2.7447331c2.0549981,15.3592437,4.1788298,31.2403272,10.1786232,45.6141646,4.5029738,18.1799284,1.610708,36.6564609-1.1864422,54.5240712-.4943509,3.156574-1.0550325,6.7335008-1.584426,10.3935815-4.0799596,15.3042443-7.3914851,31.8381186-4.0223896,49.0332954,1.2727972,5.3310155,3.3077709,10.5625083,5.2889292,15.6512645,3.2677223,8.3972334,6.6480814,17.07994,6.7319334,26.6897797-.175213,2.9666951-.3191379,5.9844611-.4593083,8.9236564-.5957242,12.4874881-1.2114727,25.400567-4.4391462,37.8572817-.6345213,2.3211066-1.3166005,4.7063792-1.9774037,7.0130812l-.0613245.2108311c-4.1838359,14.5899066-8.5090937,29.6774269-5.4128299,44.6097704.7659311,5.1522674,2.5843916,10.1172749,4.3427791,14.9192483l.7271339,1.9943839c3.4491929,9.0631193,3.7871036,19.2825359,3.835913,28.9585059,1.3040853,14.5741924-2.8021563,28.4255353-6.7769881,41.833609-3.3340529,11.2414893-6.7807427,22.8660103-6.8733553,34.5867802.9561623,18.4889728,8.0522884,37.0067549,21.7063864,56.6330372,1.9911705,3.9370421,4.251418,7.8747389,6.4365743,11.6827942,3.5893632,6.2529106,7.3026271,12.7192714,10.0960228,19.7330074,2.1738926,8.2250328,4.9372517,20.4715711,3.8546858,31.8210949l-.0675822.713683-6.4928928,2.9647308-.5444118-.9598709c-2.962351-5.2275642-4.3077365-11.0732172-5.6093187-16.7342293-1.1151055-4.8438778-2.2677567-9.8527538-4.4979677-14.4687769-1.819712-5.3978006-7.4002458-9.6301371-13.5727491-10.2927492-5.06741-.5499942-9.3125704,1.4181994-11.6591729,5.3814317-1.2052151,2.7532449-1.6920569,5.7415469-2.2064321,8.9053233-.4755781,2.9169337-.9661745,5.9327354-2.052495,8.7501464-1.7471238,6.8448092-.3516775,14.0955665,3.749558,19.4233083ZM120.3773388,15.2647856l3.7921097-1.7822432c19.2346317-9.023834,38.3691417-12.2687999,55.3272561-9.3800207,4.5305073.5611251,9.0497509,1.4522467,13.4200635,2.3145591l.0475578.0098213c8.5441363,1.6787919,17.3798771,3.415857,26.3069789,2.723781,6.5779962.2344023,12.9232095-1.4129614,19.0531611-3.0013971l.0475578-.0117856c6.5517143-1.7062916,13.3312055-3.4688922,20.3284614-2.9974686,6.2463431-.1244035,12.4063312,1.8621233,17.8354308,3.6207954l.1739615.0563089c6.5479597,2.1200968,12.7342298,4.1223377,19.1745587,3.3523458l2.0737709-.2501164-.8272556,1.9629556c-.4467931,1.0593937-.4292718,1.5773049-.3579351,1.7030179.1827221.3195205,1.4542678.4642213,2.314063.5624346.7409006.0805349,1.5806715.1715458,2.3828967.3908888l3.752061,1.0181441-3.6569454,1.3343908c-3.3378075,1.2165349-6.7557123,1.8071239-10.4477003,1.8071239-4.3114911,0-8.4289963-.7771942-12.7892967-1.6002213l-.1501826-.0288092c-2.0750224-.3915435-4.2213815-.7961821-6.6268056-1.165464-1.1751786-.4406501-2.3253267-.9009429-3.543057-1.3887354l-.2465497-.098868c-7.3276575-2.9385406-14.2498221-5.714702-22.091855-2.5509256-2.2364687.4190432-4.5229982.9186213-6.5417021,1.3592715l-.0838519.0189879c-6.7156636,1.4633775-13.6578525,2.9752069-20.7377089,2.4887239-2.078777-.0137499-4.1650631-.4314836-6.1937792-.8380865-2.7583531-.5519585-5.3665236-1.074453-8.1461525-.5729107-4.455416-.0883919-9.0134568-.6816-13.4400878-1.2564749-6.2225642-.8086225-12.6591385-1.6440899-19.1382646-1.0227274-1.3015822-.0340473-2.6056675-.0746421-3.9673227-.1178559l-.2891014-.0098213c-10.7968747-.3385084-21.9692059-.6907666-32.3192875,3.1316934-3.1212943,1.0384415-6.4903897,1.293796-10.2987692.780468l-4.1362781-.5617798ZM18.5660766,151.3595492l2.4116817-9.6982317c2.0612557-8.2800322,1.0863205-16.3806616.0550669-24.9566431l-.2753347-2.3296184c-.3066227-4.8975677-1.8272212-9.6510893-3.3027649-14.2651481-1.2452637-3.8859712-2.5318277-7.9048576-3.103773-11.985291-1.9861644-8.5177083-3.4103957-17.2855331-4.7883207-25.7646108l-.6808276-4.2061464c-.1376673-2.2471193-.4905964-4.5747735-.8310102-6.8271308-.9348865-6.1684472-1.8998094-12.5470708,1.116357-18.6317094,7.8395298-16.0971527,12.6503779-21.4262039,29.4095003-25.7246708,12.9157004-3.573653,25.5310356.4111862,37.7283628,4.2676934,5.1249799,1.6185545,10.4239214,3.2921083,15.5939561,4.3344784l.9236228.1879147.1251521,2.5882467-1.1188601.130951c-6.9534526.8413602-13.8142927-.7817775-20.454865-2.3499158l-.0775943-.0183331c-6.3840104-1.5092104-12.4113373-2.9365764-18.5725769-2.3171781-17.4424531.5434467-32.9200177,14.9801406-35.2365837,32.8693578-.2540588,1.72397-.290353,3.1605026.3541805,4.5642974.8510345,1.7344461.9286288,3.5932957,1.0049716,5.3951815.060073,1.4221279.117643,2.7650305.5794544,4.0103746.5944726,1.945932,1.3003307,3.9854939,1.8672699,5.623691,1.4918135,4.3187642,3.0349393,8.7848484,3.6356695,13.1992069,5.273911,15.4148979,6.9359313,28.6998777,5.0761706,40.6380263-.7746917,2.4834859-1.4154707,5.1699458-2.0337222,7.767359l-.0150183.0602375c-1.1926999,5.0232807-2.4254484,10.2167976-4.7507751,14.6298466l-4.6393897,8.8077648Zm40.9723061,472.2080254l.5681907-2.4507481,1.0863205.1551769c9.9758767,1.424747,16.7178223-3.2456207,23.2582729-7.7732518,5.8471078-4.0476957,11.3700715-7.8701556,18.6326499-6.888023l1.1839392.1571412-.143925,1.2126063c-.8898317,7.5362305-3.8809677,13.0505775-8.8908077,16.3911377-3.7307852,2.4880692-8.557903,3.7504369-14.3486923,3.7504369-5.2626473,0-11.2636922-1.0266559-17.8391854-3.0511585-.6482881-.2114859-1.2715457-.5015424-1.8209636-.7568968-.2478012-.1152369-.496854-.2304738-.7484098-.3378536l-.9373895-.4085671Zm-6.5642295-15.3684103l3.2802375-2.4854501c3.8284038-2.8972911,6.154982-7.0543308,8.411475-11.0863123,2.3478541-4.1976346,4.7758055-8.5380057,8.8119619-11.6166639,5.979769-5.9746397,13.4238181-12.3879654,23.2995731-14.6560368,1.5656532-.2383308,3.2264221-.7202305,4.9848096-1.22963l.0463063-.0130951c3.9548075-1.1576069,8.0472823-2.3538444,11.9244955-.9998109l3.9197649,1.3546882-4.0173835,1.0096323c-3.7708338.9454663-7.0172802,2.9608023-7.0297955,3.9468634-.0037546.2671401.6583002,1.1471308,3.7157669,1.9956934l1.1100994.3110086-.5644361,2.5941395-1.0199899-.0543447c-11.136037-.6141602-24.641204,5.5176207-33.0914761,11.8759469-.9599169,1.5491504-1.814706,3.0262778-2.5030427,4.2153129-3.7045032,6.40154-6.1512275,10.6306028-15.0457897,14.3273498-.4893448.2389856-.9999656.2488069-1.5130893.2370213l-.290353.0019643c-.1126369.0006548-.2315315.0019643-.3566836.0085118l-4.0724505.2632115Zm-35.6858799-238.3688104l.0763428,1.1006432-2.400418.4557095-.3579351-.9611804c-7.3188969-19.6275918-1.8021907-40.1063652,5.0160976-61.0971571,3.0449515-12.7441521,3.7770915-26.0396079,4.4854525-38.9147111.1664523-3.0446109.3554321-6.4964795.5782029-9.8160876.1038763-9.5685902-3.3891198-18.4660564-6.769479-27.0806685-.9035984-2.3021187-1.8384849-4.682808-2.7233105-7.1276634-2.1626289-6.9096299-2.9385721-14.1806847-3.689485-21.2212656l-.3178864-2.9326478c-.1426734-1.1903447-.3366592-2.8206847.8435254-4.5204288l1.757136-2.5280092.4192597,3.0714559c1.6908053,12.4207031,7.7769537,23.4245163,13.6641102,34.0669047,1.1689209,2.1148588,2.4942821,4.5125717,3.7533125,6.8762374,13.9081568,27.6300079,3.9823409,58.5442672-4.7758055,85.8226716-.9974625,3.1048484-2.0287161,6.3164219-2.9998967,9.4468057l-.0112637.0353568c-3.9135073,10.9887538-7.415264,22.8745221-6.5479597,35.3240344Zm31.4720075,216.1110675c-.4004868-9.3839492-3.7858521-19.2052748-10.0647347-29.1942177-1.9336005-3.3962144-3.7057547-6.954808-5.4303512-10.4184622-2.7258135-5.4698236-5.5429881-11.1249429-9.0247205-16.1593544-9.7468483-12.9811734-15.3123638-31.045865-15.6702989-50.8941093.3641927-2.6334248.996211-5.2367308,1.6082049-7.7536092.7496613-3.0812772,1.5256045-6.2686248,1.7633936-9.4828172l.0675822-.2704138c2.3002963-5.8941049,4.4278826-12.6210582,6.5041565-20.5710938,2.0362252-6.7204057,2.4579879-13.8009267,2.8659839-20.6647238.1864767-3.146098.379211-6.398921.7258824-9.5934708l.3566836-3.2868703,1.8334788,2.723781c4.6744323,6.944332,3.0887547,14.3679446,1.555641,21.5492979-.2715801,1.2728438-.5531724,2.5889014-.7834524,3.8388288-.6808276,4.5184645-1.6382415,9.1207377-2.5681218,13.5842028-2.1238317,10.2109048-4.3215032,20.7694846-3.3277953,31.0131272.3754564,2.5005095.6057363,5.0632207.8285071,7.5421233.5181298,5.7670824,1.053781,11.7305913,3.4066411,16.8887515,1.4129676,2.3453326,2.5393368,4.8739965,3.6294119,7.3201613l.0250304.0576184c1.1952029,2.6884242,2.431706,5.4685141,3.9122558,7.7693233,1.8872942,2.0978351,3.6619515,4.2958478,5.3777873,6.4211827l.05757.0726778c1.3729189,1.6971251,2.7921441,3.4518686,4.3039819,5.2007193,4.9898156,6.7721314,6.7544608,15.0665682,8.4615359,23.091246l.2590649,1.232249c1.7971847,5.9569614,3.192631,11.3809521,2.0675133,17.4099365.1113854,2.0258121.4117505,4.1439446.7083611,6.233268.7196248,5.0750063,1.46428,10.322868-.2916045,15.3775769l-1.8234666,5.2563735-.5093692-5.5523227c-.088858-.9637994-.1664523-1.9007539-.2465497-2.8638985l-.0100122-.128332c-.1626978-1.9564081-.3166349-3.803472-.5681907-5.7487493Zm-12.0058444,19.8986604l-2.7320711-2.175751c-4.2676878-3.4001429-5.8934141-8.7252657-7.470331-13.8912829-.9035984-2.9542547-1.8372333-6.0093418-3.3578318-8.7815746-1.140136-3.7098421-4.5492801-6.8015954-8.1073553-7.3502801-2.6019129-.4033291-4.9159759.6678501-6.5141687,3.0262778l-1.6958114,2.507057-.4818357-3.0092542c-.3429169-2.1331919.143925-4.1164449,1.4079615-5.7363089,1.5193469-1.9420034,4.0762051-3.2056807,6.8383127-3.381155.436781-.0353568.8622982-.0523804,1.2778033-.0523804,12.4088342,0,15.5952076,15.2361498,17.7265485,25.4293762l.0350426.1649983h-.0012515c.2215193,1.0541556.4330264,2.0624784.645785,3.0125279.3066227,1.4123066.6495396,2.8265775,1.0112293,4.324657l1.4179737,5.9130928Zm-4.1588055,6.1848161c-9.6417205-.9716565-12.8205848-5.6354766-17.2184308-12.0887423l-.0725882-.1047608c-.7409006-1.0868934-1.5080832-2.210453-2.402921-3.4512138-.4355294-.6999331-.969929-1.4188542-1.5368682-2.1796795l-.0425517-.0576184c-1.7070751-2.2903331-3.6431787-4.8870916-3.5380509-7.9801544l.1401704-.4629118c.1814706-.3280323.2503043-.4498167-.4330264-1.1870709l-.5606816-.6089222.3429169-.7555873c2.2189474-4.910008,4.5542862-7.2389717,7.1436839-7.1387942,5.0361219.2088669,8.5891911,10.0878109,11.4451628,18.02868l.0262819.0746421c.8673043,2.4108081,1.6157141,4.4929291,2.2339656,5.7958916,1.5130893,2.8940173,3.4754748,5.1398271,5.5530003,7.5165879l.1514341.1728553c.7459067.8551101,1.5168439,1.7403389,2.2890326,2.6831862l1.9135762,2.3289637-2.959848-.3096991c-.3366592-.0360115-.6382759-.0602375-.9186167-.0805349-.525639-.0399401-1.0687992-.0805349-1.555641-.195117Zm-29.5747011-21.5466789l.8335132-4.0038271,1.524353,3.2980011c1.6908054,3.6541879,4.1763268,6.9318916,6.5855054,10.1113821,1.432992,1.8909326,2.9147932,3.8453764,4.3215032,6.0388057,1.7158358,3.6974017,4.9710428,4.9990547,8.7406251,6.5076103l4.5517832,1.8588496-3.2864951,1.0181441c-.9273773.2867827-1.8847912.4321383-2.8484626.4321383-4.1738237,0-8.0184973-2.6543769-11.4126232-4.9984-.9148621-.6324934-1.6732841-1.1530236-2.3841482-1.6080784-2.959848-1.6984346-3.9548075-4.7103078-4.9184789-7.6292057-.4405355-1.3330813-.8560406-2.5915204-1.4792982-3.7425798l-.0050061-.0091666c-1.2139757-2.5692588-.7096126-4.9610789-.2227708-7.2736737Z" stroke-width="0"/>
      <path d="m363.7722732,53.1187935c1.3613424-2.0592046,2.6749705-4.2153129,3.9106914-6.468325,1.4542678-4.8982225,4.570556-6.9698674,9.4602499-8.8915734l2.1839048-.8551101-.5869635,2.3158686c-1.7621421,6.9404034-1.4142191,13.5822386-1.0450203,20.6195457.232783,4.4313821.4730751,9.0133579.1188945,13.7799746-.3829655,2.3374755.3691988,4.5656069,1.1664179,6.9240345.5581785,1.6512922,1.1351299,3.3582386,1.3166005,5.0913752,1.2702942,7.2566501,3.5155235,14.1230662,6.6743634,20.4093694,1.8897972,3.7753176,4.7395114,7.0320691,7.4966129,10.1847146,3.6131422,4.1256115,7.3501849,8.3926501,9.0948057,13.8146766,12.2961973,22.8077371,6.6167934,49.2925784,1.6082049,72.6535835-.3591866,2.0441452-.6858337,3.8440668-.9786897,5.4521452l-.031288.1807124q-2.3065539,12.6904622,1.641996,23.7027872c.6420305,1.7914098,1.4417526,4.0208507,2.4104301,6.9043919.5293935,4.2323366,1.3629068,8.5458628,2.1688865,12.7166524,1.8560062,9.5960899,3.7733369,19.5182477,2.314063,29.7402834-2.3078054,11.2185729-5.7895378,22.3192898-9.1561302,33.0546534-6.4928928,20.7046639-13.2073049,42.1144989-11.544033,64.9399144.0175213,6.3491596,2.431706,11.9689221,4.9885641,17.9193359l.8610467,2.0375977.0638276.2946398c.1564402,2.0336692,1.0800629,3.7281752,2.0600041,5.26554.7459067,1.3527239,1.5018256,2.699555,2.2577445,4.0483504,5.1399982,9.1593683,10.4539579,18.6297452,12.6328566,29.5098097,1.2465153,11.4235112,2.1851563,24.6286108-2.4880245,36.7540194-.6220061,2.3957487-.9499047,4.9303055-1.2665396,7.3823631-.6395274,4.9407815-1.3015822,10.0491804-4.2076148,14.3699089-1.2515214,3.0609798-2.1638804,6.3530882-3.0449515,9.5378167-.7771948,2.8088991-1.581923,5.7133925-2.6044159,8.438483-5.245126,17.6993382.4217627,35.6193289,5.9021747,52.9500401,1.2878155,4.0751954,2.6206857,8.2898536,3.7558156,12.3532633,2.8009048,8.4692564,1.7896755,17.5467803-2.844708,25.5603273-5.4215905,9.3754374-14.9268952,16.1259619-25.4021289,18.0509417-2.606919.970347-5.0949434.4544-7.5266494-.0484519-2.107562-.4321383-4.0962294-.8407055-5.9947873-.0890467l-.3253956.0556542c-.0538154.0006548-.1088824.0006548-.1639493.0006548-3.1826188,0-6.4953958-.9133833-9.1648909-1.6499827l-.6858337-.1892242c-2.8935174-.7994559-5.8921625-1.627721-8.8920592-1.5268888-11.3925989-.9029072-22.9065954.0595827-34.0451354.9893349l-.0688337.005238c-3.3478196.2815447-6.3739983.5329706-9.5128138.7555873-4.6318805.0864277-9.2312215,1.2708795-13.6953982,2.4199746-5.8070591,1.4974248-11.8118585,3.0446109-17.9680921,2.2994997-16.3573841,1.2034398-32.5946222-.9284426-48.3137304-2.9948496-8.6805521-1.1405833-17.6564633-2.3191424-26.3808186-2.9202075-3.019921.3103539-6.0798907,1.1314167-9.0535055,1.9302179-5.4591362,1.4666513-11.107252,2.9837187-17.0895241,1.5687931-7.4515581.3123182-14.4250351-1.5818882-21.1632261-3.410619l-.0625761-.0170236c-5.4791605-1.4862939-11.1460492-3.023004-16.93809-3.3255008-1.4555193-.0890467-2.9210508.1833314-4.3527913.4478524-1.1038418.2029741-2.2452293.4131504-3.3515742.4681499-.4981055.0595827-.8485315.221962-.8535376.3948173-.0087606.3136277.4117505.9664184,1.1188601,1.0908219,1.7220934.1807124,3.1225458.9271331,4.4904586,1.6552207.4092475.2186882.8335132.4439239,1.2702942.6554098l3.1237973,1.4974248-3.3565803.8184438c-.4593083.1099988-1.2077181.2396403-1.9986796.3771389-6.8858705,1.1739758-7.8069902,2.0912876-7.8820815,2.4160461,0,.002619.0387972.3313061.8973408,1.0004657,1.584426.2344023,3.2314281.3653533,4.8421361.4936853,2.3378419.1866052,4.7557811.3791032,7.0510713.8852288,4.5680529.7320161,8.8820471,2.3800346,13.068386,3.9796011,5.1324891,1.9603366,10.9495603,4.18323,17.139585,4.18323l.11514-.0006548h.1389189c7.6267711.9592161,15.0971021-1.1320715,22.3233864-3.1533003,4.541771-1.2708795,9.2374791-2.5856277,14.268595-3.1657406,3.5593267.3843412,7.2162721.6881475,10.7530715.9808231l.0563185.0045833c9.2662641.7673729,18.8479116,1.560936,27.9952812,3.8512691,27.3494962,6.8755827,46.9508236-.3535677,71.7697436-9.5070432l5.1425012-1.8902778c2.4091786-.9160023,4.8771787-1.3612357,7.5441707-1.3612357,5.5079455,0,10.8481871,1.9367654,16.0119642,3.8093648,3.0449515,1.1058813,6.1950307,2.2484288,9.3726434,2.9686594,19.8028224,5.9294616,42.2701338,10.3209037,58.7626822-2.0415262,6.3639861-7.502838,15.0795808-17.7779088,16.1946863-29.4004656-1.9886674-22.631608-4.4141158-44.6163179-12.1547754-64.8253323l-.0538154-.2671401c-.0688337-.9232046-.3091258-1.9655746-.5694422-3.0858605-.3429169-1.4856392-.6970974-3.0223493-.7108641-4.5800115,0-1.1497499-.0800974-2.3518801-.6758215-3.383774l-.1113854-.3810674c-1.3366248-12.6105821.6057363-25.208069,2.4855214-37.3976436.7258824-4.709653,1.4780467-9.579721,2.0549981-14.5584783,2.8409535-11.301072,5.4478725-22.3264921,6.1224425-32.9433451-.3942292-3.5199631-.7646795-7.0995089-1.1226147-10.5611988l-.7096126-6.9528438c-1.3316187-4.9460196-3.1913795-9.8593014-4.9923187-14.6147872-4.0311503-10.6391146-8.1987164-21.6396541-6.766976-33.7644079l.1564402-2.8717556c.7096126-12.9720069,1.4417526-26.3866281,4.9084668-39.299707l1.0362597-3.4806778c4.2026087-14.0602097,8.5466393-28.5990454,6.7281788-43.2138326-1.4517648-7.863608-3.7082578-15.497397-6.9071464-23.3596956-3.5730935-14.4733602-2.8910143-29.6898673-1.9723977-42.8170511.7434037-9.3034144,3.6444302-18.344272,6.4515926-27.0911445,3.4216594-10.6639953,6.9597103-21.6913797,6.4152985-32.9295952-1.4893104-17.6783861-6.7219212-33.5581601-15.1283901-45.917971-4.7970814-6.695525-8.6229821-14.067412-12.3312399-21.2140633l-.0475578-.0923205c-.6132455-1.1831424-1.2264909-2.3662847-1.8284727-3.5166893-.7759432-1.3841522-1.6357384-2.8102086-2.4667486-4.1897775l-.0638276-.1067251c-3.1600914-5.2406593-6.4278137-10.6600668-7.3464304-16.8062524-1.2390061-2.6412818-1.4492617-5.4213717-1.6520082-8.1124149l-.0037546-.061547c-.0838519-1.0999885-.1702069-2.2366432-.3404138-3.383774-.1289067-1.3618905-.3366592-2.7761614-.5381542-4.1445994-.5894666-4.028053-1.1977059-8.1922951-.1977404-12.1339204l.1451765-.5735654,6.4315682-2.9450882.528142,1.0161798c2.1851563,4.2140034,3.5818541,9.6563273,5.0611524,15.4168622,3.6143937,14.0765786,7.352688,28.6298189,23.1919422,25.5603273,7.0510713-.943502,8.1386434-7.3581371,9.290043-14.1597325.4868418-2.8724104.9899534-5.843034,1.9423611-8.1922951,1.7158358-6.4611227.2878499-13.8808068-3.8371645-19.878363-2.1726411-5.3290513-10.2462053-9.1318685-16.4812847-10.7654824-.4317749-.058928-.8773165-.1460104-1.2965761-.2291643-1.1388844-.2213072-2.2139413-.4301741-2.9923876-.1663078-2.2902841,1.1589164-4.7157325,1.6185545-7.059832,2.0624784l-.0425517.0078571c-1.2965761.2455331-2.638207.4989233-3.6932395.7896346-.7696856.3935078-1.7233449.3797579-2.5506005-.0379758-.8197465-.4138052-1.3866857-1.1779043-1.5606471-2.1358109l.0112637-.2560092c.028785-.2180334-.0037546-.3162467-.0187728-.3345798,0-.0013095-.0926126-.1113084-.5394057-.1538674l-.2315315-.0556542c-5.1074586-1.8614686-9.582899-5.2681591-13.9156659-8.5668149-2.3190691-1.7658743-4.7182355-3.5919862-7.1837326-5.1398271-5.4478725-3.7307942-13.7855077-6.5292173-21.7576988-7.3037925-9.1448665-.8858836-16.4474936.9238594-20.5862748,5.0867919-8.5528969,10.1644172-11.1110066,16.299472-8.4139781,30.5142039.2703286,3.3222271,1.6495051,5.7899988,4.0974809,7.3339112,4.7520266,2.9968138,12.631605,2.0362882,17.9493193-.1263677,6.6580936-2.4428911,12.221106-6.9940933,17.6013963-11.394702,1.6958114-1.3874259,3.6181482-2.9601475,5.4253451-4.3233475,3.780846-3.5756173,8.3851931-3.1873475,12.8418606-2.8121729l2.2940386.1879147-2.1150711,6.5730858-.028785.091011-.6783246.1453556c-14.0120331,3.0380634-17.2509704,8.5380057-20.6826419,14.3627066-.6579874,1.1183216-1.4117161,2.3544991-2.2358429,3.5946052.0879194-.0792254.183035-.1545222.2697029-.2344023l.0838519-.0772611.0988702.0569637c.5118722.2979135,1.0215543.5964818,1.532175.8957049.7590477-1.2014755,1.4257957-2.4572957,1.9783424-3.7602582,2.5155579-5.4789902,6.7306818-9.0670478,12.5264772-10.6633406l5.0286128-1.3861164-3.9222679,3.5029395c-3.4141503,3.0531228-5.7319678,7.1191516-8.1874527,11.4241659-.6439077,1.1301072-1.2593434,2.2006317-1.8769692,3.2338351.2703286.0216069.7193119-.0438686,1.1010259-.101487.5328352-.0805349.9924564-.1420818,1.2931344-.0766063Zm-38.8162477-10.0537636l1.1539027-1.4856392c.6883367-.8865383.6683124-1.8359331.6445335-3.0505037-.0137667-.7104092-.028785-1.4450444.0963671-2.2530121l.2252738-1.4535562,1.3591522.4792807c4.510483,1.5982571,10.3062784,1.7887908,13.042104-2.4749741l.350426-.3182109c1.9123246-1.098679,3.8459251-2.3839631,5.7144465-3.6273429,5.7932924-3.8519239,11.779319-7.8321798,19.2196134-7.8321798.1163915,0,.232783.0006548.3491745.002619l.9261258.0176784.5419087,2.2359885-.8297587.451781c-3.9385377,2.1449775-7.7594324,5.1228034-11.455175,8.0030709-7.7431626,6.0401152-15.7491447,12.2851688-26.1605509,12.2851688-.4805842,0-.9699291-.0137499-1.4505133-.0399401-.5056146-.0072023-.9436471-.1525579-1.3804281-.296604-.1689554-.0549994-.3516775-.1152369-.5531724-.1676173l-1.7934301-.4760069Zm46.3838845-30.2071238l-4.5793166-.9467758c-6.4002802-1.3199862-22.329644-3.6613902-31.96761,3.1127055-4.0261442,2.830506-6.5154202,7.0242121-7.4040003,12.4789763-.3354077,1.3494501-.8410224,2.6183654-1.3291157,3.8453764-1.0425173,2.6255677-2.0287161,5.1057798-1.1726755,7.831525l.3554321,1.1294524-2.5155579.9349902-.4618114-1.0358225c-2.2927871-5.1620887-2.0675133-10.8826835-1.8510001-16.4160184l.0275335-.6874928c.3366592-4.7960807,3.2639677-8.414257,6.094909-11.913268l.0713367-.0877372c.6332698-.7850513,1.2878155-1.595638,1.9749007-2.5037833,10.1060349-10.5657821,28.7824881-3.4171666,37.7709145.0242259.5106207.2173787.8735619.5892795,1.1914483.914038l.0488093.0497614c.0613245.0602375.1213976.1204749.1852252.1761291l3.5605783,3.0937176Zm3.8033734,6.6470732l-3.9936046-.4910663c-9.9107976-1.2217729-16.4762786,3.3235366-22.8227434,7.7208714-5.3777873,3.7242467-10.4564609,7.2422455-17.1758791,7.2422455-.5769513,0-1.1726755-.0274997-1.7696512-.0818444l-1.1977059-.1099988.1038763-1.2243919c.6157485-7.3456968,3.3891198-12.795223,8.2425196-16.1973302,9.347613-6.5521337,23.7563784-3.6954374,31.5120562-1.4103424,1.346637.3594605,2.7671137.8014202,4.0298988,1.8961706l3.0712334,2.6556864Zm51.9218664,31.4315157c-2.0937952-4.2709671-4.6694262-7.8393821-7.9021058-11.8962443-3.367844-5.2210167-6.5479597-10.1526317-13.1384712-11.4634512l-4.1988541-.8335032,4.0073714-1.5321268c3.0411969-1.1543331,7.4878523-.1499389,12.1935726,2.7532449,4.6769353,2.8822317,9.6642479,7.8230132,10.2537145,12.3198708,1.2189818,3.1284196,2.3027993,6.5148126,1.0049716,10.4917948l-.9186167,2.8167562-1.3015822-2.6563412Zm-31.151618-15.3193037l2.2164443,1.1052265c3.0850001,1.5452219,4.5693045,5.2092311,5.0661584,6.7236795.9849473,3.7563297,2.5017912,7.4164103,3.9735803,10.9717302l.028785.0674398c.7934645,1.9177775,1.6144625,3.9003758,2.3666269,5.9432115,1.0950812,3.2737752,4.2414059,5.8790455,7.65055,6.334755,1.5644017.2082121,4.4754404.1086893,6.4578502-2.9208622l1.4505133-2.213072.7096126,2.5614017c.6082394,2.1953936.120146,4.2611458-1.4129676,5.9733302-2.2151928,2.4717003-5.8270834,3.349072-8.2475257,3.349072-.6357728,0-1.2177303-.0530352-1.785921-.1636888-11.0684549-2.7552092-13.5276943-14.5394904-15.6978324-24.93831l-.0100122-.0458329c-.4768296-2.2837856-.9261258-4.4405487-1.4717891-6.4755273-.175213-.8145153-.3416653-1.63034-.5193814-2.5037833l-.7746917-3.76877Zm-1.3879372-7.6423008l2.6870163.1597602c11.8882014.7123735,14.8868465,5.1555412,20.3284614,13.220159l.0901095.1316058c.5193814.7726109,1.0662962,1.5805787,1.6908054,2.4933072.4580568.780468,1.0800629,1.5969475,1.7471238,2.472355,1.7871725,2.3499158,3.812134,5.0128046,3.3277953,8.2001521l-.1026248.2907112c-.0988702.192498-.1714584.3313061.3904747.7438017l.8022252.5918986-.410499.9212403c-2.1814017,4.8982225-4.4779434,7.2802213-7.0222863,7.2802213l-.143925-.0019643c-4.9372517-.1787481-8.4627874-9.8678132-11.0384183-16.9424414l-.0375456-.1047608c-.6032333-1.654566-1.1251177-3.0832415-1.6294808-4.2951931-1.1313753-3.800853-3.5718419-6.6110616-6.1775094-9.6137683-.936138-1.0803458-1.903564-2.1973579-2.8271867-3.3883573l-1.6745356-2.1587274Zm-9.6041749,4.252634l1.5168439-4.4575723,1.3303672,1.0980242c1.3090913,1.0777268,1.3328702,2.2536668.9173652,2.9948496-.3366592.6010651-.9849473.9598709-1.7333571.9598709-.3091258,0-.6207546-.058928-.9248743-.1754744l-1.1063449-.419698Zm-73.3366484,593.0332467l-3.3152801,1.6002213c-14.2160311,6.8683804-29.3594395,10.4983423-43.7919837,10.4983423-6.0448481,0-11.9695502-.6364219-17.6164146-1.8935516-9.3113189-2.4710455-19.4486419-3.1349671-28.4157924-3.7229372l-1.5656532-.1021418.5056146-1.5281983c-2.1776472,1.109155-4.4779434.451781-6.5391991-.1374986-1.7458723-.5008876-3.3928744-.972966-4.8947-.4079124l-.2252738.0851182-.2390406-.0098213c-5.7194526-.2370213-10.8869843,1.494151-16.349875,3.3327032l-.3729534.1250582c-.8047282.2717233-1.6157141.5441014-2.4667486.8204081-15.6390109,4.447751-27.2093258,1.0502271-40.6106164-2.8815769l-.3103773-.0916657c-1.7784118-.5205303-3.7933612-1.1111193-5.8796473-1.6938513l-1.0838175-.3038063.5519209-2.8383631,1.2690427.3921983c1.140136.3509487,3.0474545-.0576184,3.4028866-.4007101-.028785-.0654755-.1001217-.1957718-.2728317-.3908888-1.5193469-.7444565-3.1025214-1.5825429-4.3765702-2.2569406l-1.4004524-.7392184.6783246-2.2634882.964923-.0039285c4.6969596,0,9.0585116,1.4784369,13.2874022,2.9116957,2.3215721.7876703,4.7219901,1.6021856,7.0060165,2.1194421,1.7145843.2069026,3.3866168.4386859,5.394057.7215401,6.1287001.8616576,12.4639012,1.7547435,18.5588102,1.1274882,2.6156796-.3627343,5.3102051-1.0109418,7.9171241-1.6381971l.0475578-.0117856c5.0799252-1.2243919,10.3313088-2.4874144,15.5789378-1.8215285,8.3589111-.3018421,16.6665099,1.007668,24.7400741,2.2798571l1.0112293.1597602c7.2713391,1.1451666,14.8004915,2.3315827,22.2795832,2.2019412,2.7208074.0019643,5.4991848.0216069,8.5153513.0595827,13.2673779.1505937,25.7938551.2946398,38.3315961-4.153766l.2102556-.0425591c1.6883023-.1584507,3.7082578-.2625568,5.8783958.1748196l3.5981239.7241591Zm102.326889-88.3775258c3.4504444,10.4328668,5.3565114,21.3227526,7.2050084,31.8826419.5957242,3.4086547,1.2127242,6.9338559,1.8998094,10.5795319.1576917,2.6281867.6007303,5.3676818,1.0312536,8.0259873,1.085069,6.7190962,2.2076837,13.6673567-.9123591,20.3628817-1.0187384,1.6526017-1.9436127,3.4649637-2.9360691,5.4108957-2.7883896,5.4658951-5.6731463,11.1177406-11.3663169,13.9737821-.7108641.2029741-1.1601603.4314836-1.3841826.7123735-2.3828967,2.4252127-5.5004364,3.2109187-8.5153513,3.9710893l-.1514341.0379758v-.0006548c-1.40671.3548772-2.8572233.7267781-4.2601787,1.3108196-3.6857304,1.1340357-7.4715825,1.6853395-11.575321,1.6853395-9.4564954,0-18.8378994-3.0040161-27.9126808-5.9091642-4.8358785-1.5484957-9.8357063-3.148717-14.6991183-4.2251343l-1.1964544-.261902.5556755-2.4527124.8560406-.0929752c6.9809861-.7359447,13.7417045.8551101,20.2809036,2.3950939l.0838519.0196427c6.1186879,1.4417706,12.4451284,2.9326478,18.724011,2.3243804,9.3738949-.2684496,19.0869522-5.0324472,25.9815833-12.7448069,6.3389557-7.0955804,9.5566171-15.6964426,9.0635177-24.2213532l-.2140102-.6193983c-.585712-1.6827205-1.1901968-3.4237141-1.1025903-5.1830409.0325396-3.0537775-.9611684-5.8011297-2.0149494-8.7200276-.5644361-1.5622455-1.1476451-3.1775262-1.5644017-4.8556634-.5356511-1.0201084-.7521643-2.0827758-.9624199-3.1120507-.2202678-1.0829648-.4280203-2.106347-1.0112293-2.9044934l-.2778377-.3823769.0450548-.4773164c.1414219-1.4574847-.3967323-2.8704461-.9786897-4.3966801-.2127586-.5617798-.4330264-1.1425475-.6032333-1.6833752-6.4565987-18.2912368-5.4691483-39.390718,2.7808805-59.4137818l.4843388-1.1752853,2.3053023,1.0927862-.1802191.9493948c-2.7621076,14.5407999-.1526856,28.7476748,2.5218155,38.0975768Zm1.0612901-266.2954223l-.645785-7.2841498,2.9423267,6.6660611c7.7594324,17.5827918,2.7458379,35.6723641-2.1025559,53.1661093-2.7333226,9.8606109-5.5592579,20.0564564-6.0123086,29.9249244-.0062576,4.4163227-.3566836,8.8693118-.6983489,13.2077187-.585712,7.4465291-1.1914483,15.1457936.0062576,22.6650005.8948378,5.5366086,3.0987669,10.8794097,5.2313593,16.0506651,2.0399798,4.9447101,4.1500448,10.0576922,5.2025743,15.5681106.2027465,1.9891458.5394057,4.0817429.8673043,6.1160668.8134889,5.0553637,1.6557628,10.2829279.7383976,15.3677555l-1.2990792,7.1937936-1.0763084-7.2317694c-1.7971847-12.0573141-7.6593107-22.8175584-13.3299539-33.2288183l-.0488093-.0883919c-1.5406228-2.8298513-3.1338095-5.7552968-4.6381381-8.703004-13.070889-27.1212633-3.4053896-57.2766614,5.1224769-83.8832872l.0901095-.2828542c1.0362597-3.2371089,2.1088135-6.5842167,3.1112821-9.8462063,4.33527-12.9183169,7.5692012-23.7257036,6.5391991-35.3777243Zm-35.0488555-224.6772277l.177716-1.1032622,2.3228236.1623793.1677039.9428473c.4793327,2.6989003.7208763,5.4685141.9561623,8.1831285.3616897,4.1557302.7358946,8.4528876,2.0437344,12.5071308,1.5093348,6.1520784,4.8296209,11.7377936,8.0447793,17.1454155.645785,1.0868934,1.231497,2.0755735,1.8647668,3.1814547,3.8221462,8.6263977,8.3914507,16.9358939,13.5840128,24.6980149,12.6441202,18.7351607,17.4074105,41.8120021,12.4338647,60.2158568-.1276552.6076127-.3178864,1.2198086-.4730751,1.718732-.3754564,1.2126063-.6996004,2.2602144-.4405355,3.3569291l.0876065.3725556-.1339128.3588058c-1.7446208,4.6605464-3.3002618,9.5816853-4.805842,14.3476472l-.2140102.6750524c-.4280203,1.3474859-.852286,2.6897337-1.2753003,4.0031723-2.2389717,7.6036703-2.7758744,15.6473359-3.2952557,23.4258258-.1977404,2.9477072-.4017384,5.9949371-.700852,9.0094294l-.2878499,2.9044934-1.8334788-2.2379527c-4.7445175-5.7906536-3.5956209-13.0538512-1.8510001-19.362416.3366592-4.0555527,1.1864422-8.0809867,2.0149494-11.9996956.5456633-2.5836634,1.1100994-5.255064,1.5318621-7.9952138,4.395343-17.7386235,4.4867041-35.0162995.2740832-51.3406522-.9874503-2.921517-2.3853997-5.7395827-3.7370428-8.4640184-1.0037201-2.0238478-2.0424829-4.1170997-2.9060326-6.2260657-1.8397364-3.7929959-4.6982112-7.0765925-7.4665764-10.2554282l-.0375456-.0438686c-1.4780467-1.6971251-3.0049028-3.4505591-4.4053552-5.3159562-4.6331321-6.3792784-6.3827589-13.9482466-8.0773188-21.276265-.8372678-3.6221049-1.7033206-7.3686132-2.9072841-10.8636956l-.0926126-.2651758.031288-.2789256c.4981055-4.6192968.031288-9.3767469-.4192597-13.9783654-.5181298-5.289766-1.053781-10.7595896-.175213-16.2019135Z" stroke-width="0"/>
      <path d="m325.8771452,61.2868626l-3.3715985.165653,2.7683652,1.9655746c1.5118378,1.0711792,3.0099089,1.3186767,4.4579191,1.5570075.818495.13357,1.5906836.259283,2.3528601.5342801.3616897.1132726.3691988.1152369.3554321.7176115-.3779594.8295746-1.4767952,1.0803458-2.8647324,1.3972473-1.4104646.323449-2.8484626.6534455-3.9310286,1.7069464l-1.9511218,1.8902778,2.6795072.1244035c2.4379636.1132726,4.8997061.0078571,7.3188969-.3116634,9.528145-1.2564749,18.666441-6.6339781,25.509134-14.8904391l-.041926.0622017.1301582.096249c.4718236.3509487.9436471.7045164,1.4129676,1.0574294l.0703981.0530352c-3.9964206,4.9159008-9.5566171,9.1744276-15.6455813,11.819638-4.9184789,2.7846732-22.9829382,4.8347112-24.1743865,2.7499712.0071962-.002619-.1379802-1.2008207,5.1650286-4.5374524l2.3415965-1.4718893-2.6632374-.6632669c-4.0023653-.9906444-5.1362436-2.5646755-5.0573978-3.1709787.0763428-.5971366,1.5168439-1.8169452,5.5079455-1.7547435,7.6931018.1643435,15.5101042-2.7872922,22.1344067-5.6976784,1.71521-1.0279654,3.223919-2.0762282,4.5786909-3.1821095.4871547.3863055.9796283.7660634,1.4724149,1.1451666-4.8030261,5.0186974-14.3806061,7.9264645-28.5547112,8.6375285Z" stroke-width="0"/>
      <path d="m355.6470837,51.2219681c-.2978621.4105314-.6298281.8053487-.9827571,1.1909994-.4855903-.3725556-.9708677-.7470755-1.4508261-1.1274882.3501131-.2920207.698036-.5846963,1.0281248-.8852288.4693205.2736876.9373895.5473752,1.4054585.8217176Z" stroke-width="0"/>
      <path d="m360.8897067,57.0872637c-.4280203-.3214847-.8560406-.6423147-1.2853124-.9618352.5450376-.8197533,1.0659833-1.6584945,1.584426-2.5181879.3069356.0733326.7856425.002619,1.3366248-.0798801.3576222-.0543447.7734402-.1145821,1.043143-.1034513-.8535376,1.2787366-1.7208419,2.528664-2.6125508,3.7137706l-.0663306-.0504161Z" stroke-width="0"/>
      <path d="m354.4318565,52.6493341c-.4927865-.3791032-.9852602-.7588611-1.4724149-1.1451666.0441161-.0353568.0838519-.0733326.1276552-.1093441.4834001.3830317.9718063.7601706,1.4611512,1.136-.0375456.0399401-.0782201.0785706-.1163915.1185107Z" stroke-width="0"/>
      <path d="m359.2890109,56.3022125l-.1301582-.096249.041926-.0622017c.2919174-.352913.5828961-.7058259.8663657-1.0685602-.2309057.3620795-.4467931.7346352-.6852079,1.0908219.4990441.3705914.9952724.7438017,1.4927521,1.1170121-.0344168.0425591-.0675822.0864277-.1023119.1296415l-.0703981-.0530352c-.4693205-.352913-.9411441-.7064807-1.4129676-1.0574294Z" stroke-width="0"/>
      <path d="m360.0671443,55.0752015c.3767079-.4825545.7505999-.9677279,1.1116638-1.4679608.002503.0006548.0071962,0,.0100122,0-.5184427.8596934-1.0393885,1.6984346-1.584426,2.5181879.4292718.3195205.8572921.6403504,1.2853124.9618352l.0663306.0504161c.891709-1.1851066,1.7590133-2.435034,2.6125508-3.7137706.0096993.0006548.0250304-.0019643.0344168-.0013095-.784391,1.3226052-1.7189646,2.6072346-2.7283166,3.8604357-.4974797-.3732104-.993708-.7464207-1.4927521-1.1170121.2384148-.3561867.4543023-.7287424.6852079-1.0908219Z" stroke-width="0"/>
      <path d="m354.548248,52.5308234c-.4893448-.3758294-.9777511-.7529683-1.4611512-1.136.0431775-.0360115.0832262-.0733326.1264037-.1093441.4799584.3804127.9652358.7549326,1.4508261,1.1274882-.036607.0405948-.0788458.0779158-.1160786.1178559Z" stroke-width="0"/>
    </g>
  </g>
</svg>