<?xml version="1.0" encoding="UTF-8"?>
<svg id="Layer_2" data-name="Layer 2" xmlns="http://www.w3.org/2000/svg" viewBox="0 0 432.6391622 641.2483079">
  <g id="Layer_1-2" data-name="Layer 1">
    <g>
      <path d="m238.2735368,20.4650581c-.1553155.5794871-.3030891,1.4243539-.4503914,1.9704917-.4013692,1.4886366-.9934064,3.0863357-1.8520018,4.2462526-2.1682892,2.9285456-4.7902693,3.3715718-7.9456014,2.0061978-.8616593-.3727925-1.2382817-.8934765-1.9832775-1.3412754-.310631.3001431-.6108919.6514884-.9297718.962414-2.9354393,2.8623774-5.9055241,5.4990288-9.7153496,7.1476945-5.2870903,2.2878986-10.5268082,3.4226562-16.3036491,2.9075697-6.2984087-.5615751-12.0021876-2.4955359-17.5994375-5.394562-1.8446956-.9554613-3.4350885-2.3015682-5.0323163-3.6163292-.8930052-.7349204-1.7346313-1.5745432-2.6184449-2.324842-1.7374595.1141887-3.1282285.1959709-4.299576-1.2692741-1.5804943-.6337532-3.2161385-1.1705226-4.9038688-1.3845823-4.5724976-.5798406-9.0613276-.7743974-13.6255763-.1956763-7.1925923.9119777-14.3109442,2.0171571-21.3937079,3.5347238-2.2486573.4817962-4.470918,1.0222776-6.6293084,1.8686764-7.338009,2.8774611-12.1167298,7.3861474-15.4184214,14.5334884-1.6236244,3.5146318-2.0511544,7.1259527-2.0697734,10.9153326-.0160265,3.2770627.4070256,6.6513449.6693414,9.8419706.2625515,3.1906257.5463146,6.1905245.4404927,9.336606-.1883112,5.6044972-2.3276113,9.7220665-6.3424815,13.5522197-1.8053364,1.7224347-3.8871297,2.9212983-6.094071,4.0238851-4.4018627,2.1993994-8.8855076,3.9849973-13.6050718,5.4182482-.119963.036472-.2828203.0851996-.4096181.2184198-.1267978.1331612-.2526528.3567661-.3601245.5813136-1.6526134,3.4487582-3.6726576,6.5856481-6.3952746,9.3066742-4.623641,4.620636-9.8551099,8.1046289-15.5473404,11.2461735-3.001195,1.6563255-6.0714453,3.043677-9.099744,4.6357787-2.5868632,1.3600122-4.9583117,2.905095-7.1522904,4.8696946-2.1939787,1.9646585-4.4487637,3.8964981-6.5875924,5.9515413-2.6535617,2.5496842-5.2236914,5.1255881-7.4897893,8.0724581-4.1661791,5.4178358-6.7744895,11.2162417-8.2807435,17.8833773-.3726158,1.6496085-.6125417,3.3060518-.8541174,4.9649108-.4817373,3.305109-.1501305,6.5601942.1501305,9.8587041.2535956,2.783718.6024073,5.5155266,1.0494991,8.2709626.593687,3.6598129,1.3106365,7.2116237,2.6139669,10.7184779,1.915872,5.154695,4.8399985,9.2105153,9.0238539,12.7814754,1.1402373.9730787,2.4379112,1.6992199,3.552459,2.7038802,3.5116857,3.1656433,6.3391819,6.4874269,7.7318363,11.0772473.8958334,2.9527031,1.2064644,5.9021067.8628377,8.9837877-.9163379,8.2209387-4.2585671,14.7156129-9.3528682,21.1338667-.2828203.3563536-.5302881.5821385-.797082.9207569-.0047137,2.5385481.111714,5.1219939.0256895,7.6570068-.0862602,2.5349539-.3004966,5.0096318-.9007827,7.4698151-.7883617,3.2312222-2.1562693,6.1691362-3.7004683,9.0969747-.6339889,1.2019864-1.3730927,2.333032-2.115496,3.464549-3.6799638,5.6078557-7.4459521,11.1406462-11.2626124,16.6592956-1.8305546,2.6469626-3.5324259,5.3823065-5.1254114,8.1892982-1.869678,3.2937962-2.9830474,6.8172661-3.6401333,10.5190307-.3704946,2.0873318-.6090064,4.2856707-.6662776,6.3154957-.0575068,2.0299429.1022867,3.869807.3459835,5.8006449.7857691,6.2247575,2.434376,12.0516811,4.4893013,17.9531986.0641059.1840689.1124211.3653096.1897253.5480822.9250581,2.1877331,1.976207,3.8655646,4.1666505,4.9269658.4734884.8986616.5227462,1.2904856.1746416,2.2508963-.8326702.5662299-1.6766532.7963749-2.6804296.6058247-1.3646081-.2591341-2.5574028-.7863583-3.6146795-1.6880838-1.3568305-1.1574422-2.3181839-2.5544568-3.0714287-4.1529808-.5517353-1.1708761-.9938778-2.3815828-1.4084452-3.5970032-1.2034005-3.5275944-2.4758563-7.0727471-3.1284642-10.7352704-.6528436-3.6624054-1.3919474-7.1929458-1.2986167-10.9326554.1890183-7.5861839,1.8979601-14.3491249,5.5984284-20.9906889,1.5479699-2.778474,3.3933725-5.3272744,5.1310678-7.9656345,3.6191574-5.494374,7.4082428-10.8564117,11.0304641-16.3485468,1.4225862-2.1571531,2.6321145-4.418773,3.6450826-6.8043624,1.2790549-3.0119186,1.869678-6.1049713,2.1213881-9.3533395.0992228-1.2815885.1133638-2.5348361.0497292-3.8037566-.5679975-.2016273-1.0626974.1781179-1.4963552.3876406-2.1638112,1.0456103-4.4020984,1.9490445-6.6960069,2.3753372-2.2936728.4262338-4.461255.6694004-6.7101479.17582-3.0681292-.6735248-5.2479668-2.1860244-6.3660499-5.2028334-1.2630284-3.4073957-.7876546-6.6012621.6250329-9.8896965.4051401-.9427933.9773799-1.8216575,1.6431861-2.6170897,2.0516258-2.4512273,4.2934482-4.089523,7.5595516-4.4786366,2.815712-.3354956,5.3846633-.2967257,8.2277147.5051289s4.9392213,2.7206137,6.4261492,5.3251532c.1567296.2743357.2781067.6024662.4181027.8749165s.2698577.5324682.4169243.7984961c.2017452-.2233102.5218035-.4470918.6731124-.7015123,2.142364-3.6002438,3.9896521-7.1561202,4.9415781-11.2597842.8510535-3.6697705.7834123-7.2219349.0890884-10.9171003-.2375691-1.2639712-.7070508-2.4780953-1.3417468-3.6082571-1.5896859-2.8303833-3.5545801-5.151749-6.1282451-7.137678-1.0247523-.7907774-2.1027691-1.4995959-3.0869839-2.3504726-4.503678-3.8934932-7.7308936-8.2925276-9.8360196-13.8614366-1.6259812-4.3015204-2.4513452-8.6763384-3.1046601-13.1826678-.4751381-3.276827-.7883617-6.5384524-1.062226-9.8354893-.3356135-4.0423274.0334671-7.9676967.8560029-11.930363.3424483-1.6494317.6549647-3.2939141,1.1751185-4.8970929,2.0784937-6.4066464,5.1140985-11.9839221,9.4898004-17.0967833,3.3023987-3.8587887,6.9340473-7.2462692,10.6797669-10.6336318.9589966-.8673157,1.9351981-1.6935635,2.9165846-2.5318311,2.021694-1.7266181,4.1866836-3.1724781,6.5331495-4.4164751,3.191156-1.6917369,6.4226139-3.2019975,9.5986862-4.9431101,5.2425461-2.8739848,10.0325797-6.1259472,14.3557241-10.290064,1.5849722-1.5268173,2.931904-3.2229144,4.1572231-5.0604216.2052804-.3079206.3627171-.734508.5394798-1.0642293-.7923683-.1817121-1.595578-.0187368-2.3672061.0704694-3.896557.4503914-7.452787.3804523-11.2581344-.6698717-.8206503-.2264919-1.5071967-.3521702-2.3693273-.8981313-4.132712-2.6165005-6.2696553-6.5463478-4.3212589-11.5748932,1.6773602-4.3295667,5.1581714-7.3340024,9.7398607-8.6862371,3.1727727-.936312,6.4633872-.8481664,9.6500652.2074016,4.225807,1.3999017,6.5385703,4.348009,7.9001144,8.5186071.5416009,1.6590947.4727813,3.4507026.7325046,5.1774385.0657557.4374877.0353525,1.0089026.0718835,1.4666591.3615387-.0896776.8291349-.1276816,1.1562638-.280051,3.0513956-1.4214078,5.9682159-2.4689036,8.9955718-4.0677812,3.0273559-1.5989365,5.7659994-3.7683452,7.7763805-6.6516984,1.2693919-1.8210683,1.9512246-3.7879069,2.1001766-6.0124655.2771639-4.143141-.1173704-8.1741556-.4532196-12.3324392-.2528885-3.1320583-.8180578-6.0408654-.5783676-9.3259413.9696024-13.2909645,7.4784765-22.5984635,19.7811607-27.7896896,3.965848-1.6734714,7.8268168-2.2106533,11.8892951-3.0100332,4.5635416-.8979545,9.0617989-1.4941751,13.6366534-2.2015206,3.5564656-.5499088,7.0881844-.9514547,10.7030996-.9034342,3.019107.0400662,5.9979121.4115036,9.0226755.7990853,1.4617097.1873685,3.065301.4632361,4.5456297.6591481-.1795909-.4796161-.4433209-1.0853819-.6431806-1.5348895-.7449959-1.674532-1.6127829-3.266398-1.9964758-5.047459-.7075222-3.2846046-.0822536-5.9887793,1.9210571-8.6578962,1.0292303-1.3715607,2.2561992-2.4512273,3.77518-3.2375268,3.7558539-1.944213,7.5395185-3.0013718,11.7921935-2.7788275,3.0469176.15944,5.9750508.8512892,8.8694811,1.7711034,5.6542854,1.7968518,11.1636253,3.9335594,16.6065025,6.302592,3.6938691,1.6078925,6.9404108,3.9228358,10.2805189,6.1393222.5373586.3564715,1.0117897.9005471,1.6042983,1.1186722.667456.2457002,1.5432562-.0015909,2.239937.1498359.4444993-.4634718.0080132-.9954097.2750428-1.5281136.2667938-.5327039.3942987-1.0780757.8154653-1.6038269s1.0122611-.9850985,1.4619454-1.6392973c1.0978142-1.5964029,2.555046-2.3980807,4.5673126-2.3421058,2.7659828.0769507,4.5286605,1.1571476,5.7466733,3.6571025.0523218.1071771.125148.379922.3023821.3568839.2642013-.034292.6603855-.231677.9823293-.4125642,4.4188319-2.4833392,8.9491422-4.8742316,13.5987083-6.9353436,3.9439294-1.748301,8.0163065-3.0826237,12.2088821-4.0331946,4.6210484-1.0478493,9.2041518-1.4238236,13.9298438-1.164277,5.4122383.297197,10.4678873,1.3010913,15.3684565,3.7103081,4.0426809,1.9874609,6.0768661,5.0487553,6.9437104,9.4156779.1232625.6210852.1246766,1.3485816.2451109,1.9711988.8107516-.0531467,1.655913-.5344126,2.4532306-.4572262.7973176.0772453,1.4407339.1986224,2.2133047.2649084,2.6271651,2.0212815,5.4360423,3.6074322,8.4765965,4.8989194,1.7414662.7396341,3.4723266,1.4727279,5.1247043,2.3558344,3.617272,1.9333715,6.9757633,4.1236382,9.9102599,7.000628,3.474212,3.4060995,5.5993711,7.2366062,6.586414,12.0101419.8020313,3.8795289.7704497,7.8725984.7812912,11.8460472.014141,5.177085.3431553,10.500117,1.8114642,15.4481765,1.9380263,6.5315587,5.4449983,11.2602556,10.8093929,15.2328206,2.3957238,1.7741673,5.0271313,2.2650373,7.8487354,2.6879126.7138856.1070593,1.4541678.2058107,2.0648241-.1075306.375444-.1926124.0374737-.5928621-.0306389-.878275-.8562385-3.588224-1.4126875-7.0597256-.7452316-10.7811697.6676917-3.7214441,2.2352233-6.9565551,5.5112254-9.1143564,3.8293872-2.5224038,7.6290783-2.6877948,11.7356294-.630218,1.845874.9248814,2.6684098,2.6798994,2.7445356,4.7325857.0537359,1.4531073-.1541371,2.97362-.686782,4.4003897-2.0132094,5.393855-5.2187421,9.2722644-9.846154,12.6997521-.524396.3883477-1.1666338.6174321-1.553155,1.190379.8366768,1.5989954,1.7202546,3.0244688,2.935675,4.3866611,1.7372239,1.9468644,3.3917228,3.7217387,5.2927467,5.6107428,2.3429307,2.3279059,4.1555733,4.7957489,6.8220976,7.0452311,3.4822253,2.9375605,7.8317662,5.7368336,11.1777663,8.9383007,1.9309558,1.8474059,3.0820345,3.8378129,3.9215395,6.1920564.839505,2.3542435.9696024,4.4778117,1.4211721,6.8229814.0999298.5189164.259959.993701.3622457,1.4921129.2173003,1.0603405.4105608,2.171412.5995791,3.2029991.0775399.4244662.1894896.9682472.2531242,1.2727504.0638703.3045032.1352824.3722623.1522516.5644622.292719,3.3272633.8590667,6.4755249.4317724,9.8045558-.0487865.379922-.0584495.7673269-.0707051,1.1646305-.0381807,1.220134-.3349064,2.2605593-1.109127,3.2245642-.2762212,1.5454952-.7072865,3.0522794-1.1949159,4.5360845-.4878651,1.4837461-.839505,2.994537-1.1442439,4.5078025-.4833871,2.3997894-1.1355236,4.7328803-1.6033556,7.1251867-.8762716,4.4800507-1.7805896,8.9223921-2.1930359,13.4719695-.1095929,1.2075839-.1135995,2.3811115-.0622205,3.6006563.2059875,4.9034563.7720995,9.6441142,2.0264076,14.4200068.4944642,1.8826406,1.2307398,3.6054289,2.309935,5.2829658.5328806.8281922,1.3184141,1.6016469,2.1972782,2.1002355.1748772-.3290143.3214724-.7397519.4817373-1.0647596.6665132-1.3502903,1.321478-2.6492605,2.3910102-3.7287503,1.7860104-1.8029796,3.6660585-2.5630003,6.2170978-2.157978,2.0624672.3274824,4.0657779,1.0334137,5.997205,1.843635.53783.2255492,1.0829662.5243371,1.5609325.8579472,1.2517156.8738559,1.7115343,1.8021547,2.1093683,3.259681-.2255492,1.2055806-.8475182,2.1297549-1.877927,2.7694002-3.2571474,2.0214583-6.6634826,3.2726436-10.4780217,3.5677784-.5060127.0391235-1.0193316.0420695-1.5277011.0950394-.3525827,1.1579725-.365781,2.2186665-.2924834,3.4333209.3794506,6.299646,1.2036362,12.4105684,2.9778623,18.498924.8673157,2.9767429,2.1746526,5.8439517,3.2795374,8.7564119.8838135,2.3293789,1.9090372,4.6730167,2.7207315,7.0325631,1.4228219,4.1361883,2.7853088,8.461336,3.92861,12.6420097,1.5696528,5.740251,3.4329674,11.795552,5.4963774,17.1817473,2.893959,7.5544844,5.5027408,14.8942611,7.6599528,22.4334261,1.0784882,3.7695236,1.730389,6.9417071,2.2333378,10.684127.1204343.8967761.1383463,1.7112987.1491877,2.5741363.046194,3.6571025.0313459,7.2577588-.5547992,10.8592399-.6655705,4.0901711-1.2828259,8.2010824-1.9886983,12.2669781-.5710614,3.2895539-1.2554866,6.6307225-1.9505175,9.8293026-.1192559.5486714-.2538312,1.1999831-.556449,1.4622989-.7018658.6084172-1.4371986.8040346-2.3643779.5305238s-2.0565751-.5404225-2.4143428-1.727443c-.3059173-1.0143822.1649785-2.3332677.3221795-3.5175778.2420471-1.8258409.7478241-3.6949297,1.024988-5.6021993.74641-5.1366063,1.786246-9.9599891,2.3243117-15.235531.6613282-6.4856593.5524424-12.2414064-1.173233-18.8763713-2.0749585-7.9777722-4.8623885-16.0217715-7.8725395-24.1238668-2.3351532-6.2845033-4.55435-13.3719218-6.3613362-20.1076414-1.5639964-5.8290448-3.4768045-11.9657155-5.843775-17.5585464-3.465256-8.1885323-5.4558398-16.4031075-6.29888-25.1770779-.2429898-2.5301813-.1614433-4.7839058-.2719789-7.2753172-.2924834-.2073427-.5962795-.4366628-.9153951-.6332229-3.5220558-2.1699979-5.9439405-4.931974-7.2154536-8.8335394-.8175864-2.5082038-1.4581745-4.8227936-1.9245923-7.320922-.6898459-3.6953422-1.0146179-7.3424281-1.038422-11.0679967-.0113128-1.7636793.1852473-3.4761564.357532-5.2124375.2663225-2.6816081.8765073-5.2789592,1.2785836-7.9472512.2135293-1.4181083.6436519-2.8121179.9726662-4.221388.5866165-2.5130354,1.150843-5.0378549,1.7061136-7.5670935.2967257-1.3523525.7303835-2.687618,1.089801-4.0308967.1138352-.4257624.259959-.8331415.3594175-1.2732807.2995539-1.3246008.5279313-2.5976458,1.2503015-3.7778314.0643416-.104997.125855-.2345052.1395247-.3565893.2363907-2.0853875.5130832-4.2093681.2804635-6.2807324-.0973373-.8651945-.2038663-1.8278442-.2877697-2.5806766-.084139-.7527734-.1642715-1.2442327-.2854128-1.8872954-.1939676-1.0325299-.3436267-1.9884626-.5637552-2.9934764-.2887124-1.3168821-.4555764-2.6413651-.7904828-3.9452846-.5107264-1.9886983-.8753289-3.8613813-1.4605313-5.8727641-.7082292-2.432844-2.2670406-4.319668-4.3059395-6.0042755-4.076855-3.3686847-8.9180319-6.3924464-12.6404188-10.1363983-1.8673212-1.8780448-3.2375857-3.6906285-4.9691531-5.4892479-2.7245025-2.8302066-5.0424507-5.5929487-7.0973761-8.9140253-.2326197-.3760921-.5109621-.7198956-.774692-1.0727728-.7428747.0587441-1.4822142.2693864-2.2364017.2620212-5.7259332-.0560338-10.6069406-1.2883644-15.157284-4.9243732-3.4464014-2.7536094-6.0316148-6.1368475-8.1650228-10.062865-1.85483-3.413111-2.7153108-7.2224652-3.3896016-11.0799576-.6742908-3.8575514-.7492382-7.6956589-.8121657-11.6473659-.0631632-3.9517659-.0113128-8.2073869-1.0766027-12.0182141-1.0652899-3.8107682-2.8310315-6.608038-5.6981225-9.320992-2.8670911-2.712954-6.2901597-4.8587354-9.8918766-6.6135176-1.8416317-.8971886-3.7824862-1.6527902-5.6816247-2.5439099-1.5981705-.7498274-3.1355347-1.6828988-4.8058244-2.4465137-.7883617-.3604781-2.0643527-.3782722-2.9227124-.6851322-.4805589,1.1860188-.7546589,2.3499423-1.2743413,3.5241769-1.2889536,2.9126369-3.2734096,5.0788049-5.9901345,6.7096766s-5.5571837,2.4282482-8.6003304,3.050394c-2.0612888.4213434-4.1129146.6031143-6.181981.8962458-.709879.100578-1.4251788.1406442-2.138593.1393479-2.1437781-.0038299-4.2882632.017853-6.4310985-.007483-4.902219-.0579192-9.64653-.6649224-14.3597307-1.9796834-2.5779073-.7191296-4.9592544-1.7994443-7.2390219-3.1261073-2.2795318-1.326663-4.2411265-2.7906117-6.2885099-4.4613728-1.168755-.9535169-2.4636007-1.9976542-3.6604021-2.9484019Zm-14.5932931-.1377571c-.3945344-.0026514-.8548244.039477-1.2389887.0272804-1.7911954-.0570354-3.1946913-.5778962-4.6085572-1.6623354-4.2887346-3.2897896-8.714637-6.1382027-13.6941602-8.2463337-4.1598156-1.7611457-8.3797306-3.3309753-12.6281632-4.809831-2.0101455-.6998035-4.0879321-1.18814-6.1442716-1.6138435-1.1376448-.2355658-2.3778119-.1356948-3.4162339.0832552-1.0381863.219009-1.9005526.4097359-2.8133552.7335652-2.0492689.7269661-3.8753455,1.6922672-5.2854405,3.3425827-1.7424089,2.0388399-2.2505427,4.2312278-1.4251788,6.7819725.9276507,2.8662662,2.2057629,5.5151731,4.1800844,7.8169181,3.2111891,3.7440697,6.8859679,6.7195753,11.3380312,8.8659459,3.2260372,1.5552172,6.6297798,2.4069777,10.1386373,2.996776,1.9889339.3343172,3.9455792.4239359,5.9571388.0788362,5.7068428-.9789708,10.3604156-3.0982378,14.7182054-6.9699302,1.6460143-1.4624168,3.0245277-2.9925926,3.6014812-5.1657133.5993434-.7650879,1.1885524-1.2525405,1.3207709-2.2591452Zm16.6437405-4.4119971c.3002609.1725793.7487668.3993069,1.0004769.5986364,2.0011895,1.5854436,3.7949774,3.2121319,5.7907462,4.7933921,5.5442211,4.3929656,11.3208263,6.8643439,18.3463189,7.7698403,1.5519765.1999775,3.1074883.0919166,4.6613503.1782357,3.5364325.1964423,6.9785915-.1635055,10.4759006-.6980948,1.8055721-.2760444,3.5604722-.635403,5.3184362-1.2206643,2.2969724-.7646755,4.2324062-1.7566088,5.9451189-3.6141492,1.7127128-1.8575993,2.7254452-4.1213992,2.8051063-6.7173952.0351169-1.1392356.0443085-2.3034537-.157908-3.4438088-.5856738-3.3031057-2.0285288-5.5408037-5.1268255-7.1037395-3.0985324-1.5629358-6.5206583-2.3790492-10.0335224-2.6832578-4.2960408-.3719676-8.5218478-.0903847-12.7547253.8475182-3.6837347.8161723-7.2847445,1.8839958-10.7672055,3.3865966-4.6137423,1.9905837-9.0599135,4.2702923-13.5001926,6.6791555-.6273898.3403271-1.3735641.8442187-2.003075,1.2277348ZM75.0847946,94.2429824c.0556213-2.2139529.213765-4.2560924-.15343-6.49108s-1.3054515-4.2716475-3.0179286-5.8514936c-1.1293958-1.042134-2.3832326-1.6498442-3.9922446-1.6120759-4.471625.104997-8.1808136,2.7643919-9.916152,6.6919414-1.5616396,3.5340167.0843747,6.2460869,2.9139921,7.863937,1.354945.7746331,2.3943097.8669032,3.7464266.8829886,1.7831822.0211526,3.4079849-.226433,5.1701912-.4306529,1.7619706-.2042198,3.5321902-.5299346,5.2491453-1.0535646ZM27.1799807,249.9999135c-.2677366-1.7536628-.6502511-3.475744-1.3450463-5.1035517-.3306641-.7746331-.7336831-1.5203949-1.2691562-2.1308155s-.9924637-1.1318705-1.7711623-1.4792092c-2.0158019-.8993686-5.3160794-.8699082-7.0938408.4131534-3.5979459,2.5966441-4.8197297,6.1694897-4.3222016,10.3819806.2326197,1.9722593,1.4416766,3.0584072,3.1145588,3.8702194,5.0572988-.7251985,8.9201531-2.516276,12.6868485-5.951777ZM368.4208517,67.095295c-.4421424.2416346-.9311859.3859908-1.340804.6826576-1.2349821.894596-2.2328665,1.9118065-2.9290758,3.2856062-.9316573,1.8392749-1.4878706,3.6638195-1.474908,5.7341232.0091917,1.4889312.0600993,2.9726773.1696922,4.4519455.074476,1.0056619.2870626,1.9967115.8345556,2.8064614.0881457.130392.1588507.0519093.2872983.0400662s.3518756-.0928004.496821-.2118796c3.7101313-3.0446197,6.2116771-6.4702809,7.6809287-11.0697643.236155-.738927.3207654-1.5190398.319587-2.2993293-.0018855-1.2229622-.5062484-2.0485619-1.6358799-2.5627646-.7579585-.3449819-1.6252741-.5506747-2.4082151-.8571224ZM230.8678866,24.8661548c1.0568053-1.536716,1.6792457-3.2871971,1.7087061-5.1082065.037238-2.3109367-.4423781-4.2678766-1.4888133-6.2626437-.3325496.6491905.1564939,1.0757778.0605707,1.7744619-.0959232.6986251-.8588311,1.0685305-1.2719844,1.6159057-.0740047,1.3782188-.245818,2.5912823-.2366263,4.0059732.0094273,1.4146319.4534553,2.7573214,1.2281473,3.9745094Zm172.9592417,178.8662978c2.5913412-.2579557,4.9825871-1.1727027,7.0467041-2.7662185-1.1301029-.7640273-2.2206109-1.242465-3.5929966-1.3275468-1.7728121.8909429-2.592991,2.3712717-3.4537075,4.0937653Z" stroke-width="0"/>
      <path d="m232.4967473,625.5949894c-.0815476-.5597434-.6554685-.5477938-.9802685-.8228243-1.3530778-1.1458422-.9980628-2.9451356.2662082-3.7945042.9488986-.6376286,2.0328928-.8004837,3.142624-.7192923,1.6059698.1175126,3.2017343.3155553,4.679514,1.035131.2273435.1106168.4683332.1930834.7244069.2972766,2.9197115-1.5298363,5.811824-3.0666629,8.7233336-4.5657042,4.6526928-2.3956415,9.4797468-4.326192,14.6569841-5.2369618,1.6422655-.2889638,3.310928-.4629656,4.9751831-.5800059,1.4095248-.0990922,2.8301269-.0390607,4.2458267-.0513409,3.0460867-.0264025,6.0361507.4267861,8.9485559,1.2662832,4.2404531,1.2223576,7.9301297,3.3818876,10.6561302,6.9419334,2.4605465,3.2134592,3.6826767,6.9343763,3.9551542,10.9314575.2065795,3.030389-1.2000464,5.3429026-3.7365312,6.9553944-1.3667477.8689697-2.8559582,1.4790622-4.43843,1.8273491-3.0885811.6799482-6.2039126,1.0968157-9.3778594.8571145-.2564272-.0193178-.5145043-.0254579-.7717564-.023852-5.8416855.0372186-11.5134173-1.0648398-17.1000662-2.6464421-4.7053924-1.3320298-9.443121-2.499882-14.2658147-3.3182192-.8845796-.1501497-1.7523077-.4000057-2.757229-.6338973-.4235527.3288747-.921936.7160333-1.4205314,1.1029085-1.7319915,1.3439794-3.6614885,1.7727964-5.8148408,1.3448768-1.9561296-.3887173-3.8942528-.8100245-5.6575434-1.8875223-.3710181.2636948-.6863199.4732621-.9862549.7030446-4.935022,3.780193-10.5284822,5.7604785-16.6831598,6.47859-5.1793585.604283-10.1328584-.2796592-15.0243491-1.7345859-3.3809976-1.0056584-6.348365-2.8236084-8.7755382-5.4185206-1.8479258-1.9757985-3.091315-4.2728673-3.2390199-7.0471185-.0402789-.7561803-.0061279-1.5163753-.0061279-2.3201179-.2301953-.2550987-.5668032-.1760327-.8547653-.0681082-.8411661.3153664-1.6828508.6377703-2.4960173,1.0181748-3.2134243,1.5029615-6.5243287,2.7145503-9.9813825,3.5306204-4.1592001.9818063-8.297695.8945221-12.4072477-.2178801-1.9829154-.5366944-3.9542233-1.1359235-5.8912387-1.8193669-3.8789449-1.3685399-7.7277926-2.8224748-11.5944936-4.2261079-3.8869583-1.410954-7.5420361-3.298004-11.0473821-5.47057-1.1973949-.7421052-2.3170132-1.6346908-3.3818343-2.5626057-3.4549797-3.0109767-6.6656583-6.2433758-9.2622314-10.0659829-3.7523222-5.5240363-6.1183582-11.5891596-7.3823347-18.1222077-.4767237-2.4639858-.7799701-4.9572553-1.4516421-7.3897376-.9844284-3.5651468-2.7220292-6.6482464-5.3323075-9.2676719-2.1472716-2.1548068-4.4328913-4.1198365-7.0720059-5.6481141-.3335675-.1932251-.6727797-.3777595-1.0178723-.5491635-.1104428-.0548361-.2482607-.0543165-.4711968-.0985254-.1463261.4651855-.3258841.9341023-.4413117,1.4184166-1.2274214,5.1499609-4.3747474,8.6771806-9.1951667,10.6738555-2.6269531,1.0880778-5.3898386,1.7113479-8.2812441,1.504095-1.2928009-.0926687-2.5580854-.3024721-3.758509-.7954299-2.7111287-1.113394-4.1445462-3.1249469-4.2681581-6.0850078-.1491838-3.5725622,1.2290359-6.4442525,4.0778292-8.5056349,2.7889524-2.0180237,5.8652778-3.5068156,9.3491174-3.8641238,1.5310331-.1569983,3.0837377-.1064131,4.6268262-.1389086.7033129-.0147835,1.4072033-.0024561,2.2191089-.0024561.0669468-.3619841.1874535-.7195757.190541-1.0781591.0194442-2.2625897-.214746-4.4945259-.6914815-6.7143236-1.0841239-5.048082-2.5244883-9.9964578-4.2537576-14.849945-.7955843-2.2329281-1.8970312-4.3710149-3.0075284-6.4738195-2.4502234-4.6395746-5.6113842-8.7872306-9.0376337-12.7414253-2.4109992-2.7824695-4.9619728-5.39925-7.9835717-7.5440437-2.1565459-1.5308754-4.0960478-3.3366396-5.8152238-5.3562219-3.0147168-3.5415782-6.3342415-6.775536-9.8321103-9.8276987-3.0451027-2.6570692-5.4789695-5.7840471-7.4314518-9.3173125-1.3838998-2.504369-2.3388732-5.1539756-2.9515528-7.9388539-.1102896-.501365-.2241676-1.0019271-.348292-1.5559555-.4875535-.1890215-.9566998-.3856-1.4356919-.5540284-2.4901311-.8757238-4.9285878-1.869102-7.2513753-3.1341099-2.3621826-1.2864984-4.2616944-3.0564609-5.8102626-5.2673318-2.2631411-3.230935-3.5701098-6.8397711-4.3708645-10.6515149-.7166145-3.4112185-1.0044499-6.8792569-1.1538901-10.359481-.111633-2.5997299.4574739-5.1180794.8544883-7.6598087.4435714-2.8398089,1.6628528-5.4002419,2.7598422-8.0112602,1.1471112-2.7303257,2.2557671-5.4772769,3.349887-8.2294236,1.1699433-2.9429158,2.0032139-5.9946062,2.46232-9.1192225.9745472-6.6325655.0951703-12.9807013-3.2753304-18.8683749-1.3117767-2.2914483-2.6821628-4.5490786-4.0164534-6.8276798-1.9230893-3.2840234-3.5632896-6.7125288-5.0952949-10.1917374-.9695418-2.2018969-1.3996908-4.5576984-1.6450938-6.9317786-.0900147-.8708117.1472895-1.7755831.2330736-2.6424746,1.4340156-1.5224682,3.0101975-.8319636,4.5432104-.6480668.7477988,1.0992009,1.9667503,1.8501857,1.6520701,3.409589-.2883304.3348967-.5781633.671541-.8536575.9915125,0,.2225088-.0211647.4174814.0033026.6065265.2252164,1.7403718.7318959,3.4039212,1.4864589,4.9798321,1.8359411,3.8343205,3.6803375,7.6600921,5.9977691,11.2443678,1.2915459,1.9975723,2.4644942,4.0860185,3.5271647,6.2155091,2.4983271,5.0065653,3.5140193,10.3369042,3.1739822,15.9260731-.2365235,3.8875035-1.1414488,7.6353899-2.3493436,11.3192301-1.0852139,3.309623-2.4753123,6.4986634-3.8502854,9.6931827-.254636.5916721-.4832993,1.1968053-.7742075,1.7701042-1.7854511,3.5186708-2.28222,7.3568171-2.7637752,11.1950106-.0875665.6979435-.0410832,1.4178498-.0073534,2.1252397.2214867,4.6447229.6961805,9.2465121,2.1998769,13.6889886.8809677,2.6027055,2.2783547,4.8950511,3.9917092,7.0130644.2015417.2491002.4377587.473451.6767216.6883083,2.1462699,1.9296058,4.7096171,3.0733698,7.4747593,4.0740689.2123891-1.30865.3418107-2.5122094.6159497-3.6818092.2779042-1.1856113.646318-2.3571948,1.0712554-3.4990224.4631363-1.2444621,1.3688335-2.1743608,2.4438245-2.9235507.9167509-.6388566,1.9400499-.9796809,3.0700207-1.0117513,3.0722597-.0870953,6.0166948.5444876,8.8551061,1.6542447,1.9663113.7687439,3.2080153,2.3246522,4.0357591,4.2172756.4308472.9851126.3584973,2.0359717.105081,3.0437083-.9079009,3.6103004-2.908917,6.2385582-6.575514,7.4603491-1.8625148.6206252-3.7132158.9986208-5.6754144.7858891-.5609994-.0608345-1.1341189-.0093047-1.7627191-.0093047.2205852,1.671815.7846426,3.1689669,1.471481,4.612133,1.7908778,3.7627644,4.1374756,7.1193831,7.2850491,9.8894779,3.7261609,3.279253,7.2977349,6.7142764,10.531664,10.4946583,1.8087665,2.1143764,3.9313086,3.8984613,6.1931004,5.5108587,1.6314298,1.1630346,3.1351881,2.469323,4.5213858,3.9144728,4.653341,4.8511728,8.8739374,10.0363686,12.1897559,15.9147847,1.8709524,3.3168967,3.5126759,6.7338776,4.5881382,10.4085548,1.0129229,3.4609063,2.0736313,6.9046676,2.9467565,10.4084603.8324929,3.3407015,1.2085665,6.7147015,1.2976207,10.1382947.0132574.5096306.0436138,1.0188833.0705293,1.6297787.5780572.2751722,1.1398166.5668754,1.7200893.8151727,5.8381974,2.4982288,10.4603805,6.5028671,14.1893344,11.5813663,1.5035285,2.047638,2.3982662,4.4164991,3.0639636,6.8458168.4923143,1.7966485.8232775,3.641001,1.1612641,5.4760489.5020364,2.7256025,1.045813,5.4350045,1.9043021,8.0786599,2.0862052,6.4242262,5.4825224,12.0073967,10.1679168,16.894749,4.3228374,4.5091678,9.3606189,7.8700372,15.1133798,10.1277148,5.3229389,2.0889185,10.7384202,3.9422451,16.1228616,5.8720871,2.5123622.900426,5.1119285,1.3161599,7.7780764,1.0307857,1.2724612-.1362636,2.5425183-.3710998,3.7879698-.6690849,2.8228442-.6752723,5.5075759-1.753148,8.1583217-2.9256289.9365957-.4142224,1.9061169-.7654377,2.8835807-1.0719245,1.1227883-.3520182,2.2694045-.4238105,3.4211822-.0596065.2979788.0942746.6281289.0863869,1.0142309.1341854.2523734-.3820576.4841242-.7540549.7364269-1.111552,2.5505317-3.6136066,5.8765436-6.088928,10.2617084-7.0053184,1.8621142.0258358,3.7439789-.1096249,5.5815345.1165207,2.5468078.3133826,5.0766934.824808,7.5845186,1.3835124,4.4360731.9881354,8.5493967,2.7908295,12.3460045,5.2880193,1.0163993.6685182,1.9585336,1.4617754,2.8774057,2.2637232.6278225.54803,1.1783397,1.1959079,1.3912355,2.2034555-.1020288.3031806-.2431345.7224096-.3555099,1.0562908-.7843892.7580223-1.6596828.8540445-2.5857669.7856057-.9349695-.0691-1.722729-.4291477-2.4127728-1.0761754-3.9132727-3.6694345-8.6852702-5.6820738-13.7744314-7.0183544-1.8607707-.4885652-3.7794969-.7650126-5.6800044-1.0897309-2.2166107-.3787042-4.2162245.2845241-6.0270296,1.5037172-.9014077.6068335-1.6929853,1.3820482-2.5118791,2.106536-1.6280772,1.4403794-2.3633257,3.3423547-2.6937585,5.4273529-.1651929,1.0425936.0638004,2.0368691.4644915,3.0157471.8116817,1.9831194,2.2088566,3.4609063,3.9129663,4.6775962,2.0660068,1.4750003,4.3300612,2.4529336,6.8291896,3.0139051,7.117246,1.5977083,13.7939698.5178489,20.0966351-3.0726614,1.7380251-.9901191,3.3720887-2.1301518,4.4939342-3.7531292.1607384-.7639735-.1837178-1.3417595-.3367728-1.9584172-.2124952-.8561227-.1586408-1.6622741.5675809-2.3391523.876967-.4244717,1.8073641-.5523281,2.7923699-.3755396.5049825.090685,1.0198403.1262032,1.53022.1866599.3349109.1874628.6934848.3425719,1.0004668.5682452,1.0463079.7692635,1.3314889,1.5953468,1.0002547,2.8533171-.111362.4228658-.270262.8331208-.3886475,1.1921766.8194594,1.4438745,1.9911998,2.0675225,3.5146792,2.0210465,1.0064061-.3791292,1.5960002-1.0950208,1.8487271-2.0913273.2667503-1.0516149.0734164-2.0531169-.4766294-2.9645479-.6049608-1.0024939-1.4145685-1.8117626-2.5021452-2.3792048-.516814.254154-1.0275472.5053325-1.7269242.8492741h-2.3182152Zm17.3642475-2.5136264c-1.8236736,1.3985793-3.9518546,1.1261938-5.9445392,1.354701.5425745,1.4852495,1.0657285,2.9173161,1.508089,4.1282437.8548124.6566158,1.5483443,1.1892954,2.2933974,1.7616025.1866639.0450591.4327445.1244084.6850236.1623827,4.1301045.6213809,8.211469,1.4827463,12.2439521,2.5639754,3.0989984.8310426,6.1785527,1.7233448,9.3342337,2.3384911,4.9743346.9696206,9.9451339,1.0909589,14.9333976.171404,1.4015586-.2584049,2.729253-.7226457,3.9198483-1.5278526,1.4437937-.9763275,2.2218429-2.3064207,2.0525019-4.0846488-.0790022-.8298618-.1899164-1.6667139-.3950582-2.4726765-.8060724-3.1670776-2.051842-6.1033337-4.6198852-8.2869047-2.2384824-1.9032978-4.7184023-3.3447635-7.6588306-3.8249214-1.3281893-.2167937-2.6684458-.3952353-4.0103049-.4847867-2.6362981-.1758438-5.2660677-.021396-7.8709959.4220629-5.705765.9712264-10.9452943,3.1942359-15.9515173,6.0291326-.1057291.0598899-.1788627.1776386-.3086083.3108794-.0568005.3880088-.121143.8273113-.210704,1.4389152Zm-158.8412388-61.541598c-.9917111-.3132882-2.0235243-.1892576-3.0383208-.2046552-3.3568751-.0509158-6.268255,1.2159814-8.9476249,3.1149338-.4670134.3310001-.8891402.7516933-1.255421,1.1944909-1.254384,1.516517-1.7840783,3.2648946-1.4596436,5.2217531.3087143,1.8619227,1.7712215,2.8841122,3.6218695,2.5938259,3.9192591-.6147684,7.1710061-2.285072,9.4374881-5.7012498,1.1473704-1.7294377,1.6488765-3.6017514,1.8069281-5.6145324.013658-.1740962-.0943572-.3577805-.1652754-.6045664Zm-42.5388664-98.9076257c-1.5682481.9518614-1.927146,1.3438849-2.3896637,2.7409528-.5884922,1.7775196-.9108528,3.6046798-.8791942,5.4832753.007324.434721.0740705.8684029.1088873,1.2520664,4.5951853,1.8243735,8.3300077-.4216378,9.519295-5.676831-.4657407-1.3555512-1.3125044-2.4431094-2.7357992-2.9576521-1.1391096-.4117664-2.3025774-.7740339-3.6235252-.8418114Z" stroke-width="0"/>
      <path d="m428.641536,350.423156c1.3370511-.1075939,2.5524879-.1553452,3.5843246.5166445.5048411.5532727.5023428,1.1029558.2327171,1.7841321-.2352154.257106-.5354804.5902788-.8412604.9183033-.498289.5344981-.8235368,1.1630346-.9090911,1.8846176-.4120276,3.4744855-1.4651705,6.7928464-2.4488328,10.1266757-.3091739,1.0478599-.6779766,2.0832507-1.095425,3.0928057-.9113537,2.2037153-1.7731188,4.4171839-2.3558308,6.7399941-.3122379,1.2447219-.805436,2.4443138-1.2254299,3.6613343-.3597052,1.0421685-.5577763,2.108992-.6239572,3.212609-.1040793,1.7352-.2863594,3.4658184-.3879404,5.2011129-.0602887,1.0299827.030215,2.0497162.2989923,3.0647264.2630736.9938504.3446684,2.0350271.5900654,3.0347343.4760402,1.9399024,1.0678497,3.8342733,1.9834929,5.6332361,1.5268261,3.0000189,2.6080628,6.1646405,3.1294491,9.5054365.0595816.3817742.1356142.763454.1589943,1.1479676.1408464,2.3153948.2523263,4.632726.4049099,6.9473178.1722399,2.6125769-.3227023,5.1316822-1.0090223,7.6258019-.6660509,2.4203909-1.3615626,4.8327052-2.024031,7.254088-.6115601,2.2350535-1.1672624,4.4856463-1.7985259,6.7148904-1.7993743,6.3542288-4.795849,12.0711123-9.1339471,17.0641221-.3330254.3832856-.6610072.7708694-.9377034,1.0939345.6383341,1.4390569,1.2693619,2.7714173,1.8244985,4.1348089.7588172,1.8636231,1.1554309,3.8242129,1.2934491,5.8254693.0526053.7621787-.0532652,1.5410775-.1406107,2.3062318-.284851,2.4955839-.5738502,4.991026-.899475,7.4815089-.4808482,3.6781251-2.1072756,6.8809572-4.2735199,9.812065-1.0684625,1.4457166-2.2995017,2.7766128-3.5153627,4.1058086-1.9991896,2.1855074-4.0492404,4.3241138-6.0715744,6.4884614-2.4236144,2.5937314-5.0515692,4.9592391-7.8709488,7.1128651-.3578197.2731884-.7040436.5614438-1.0594121.8378912-1.5734921,1.2238691-3.0965473,2.5213252-4.7340048,3.6523366-2.9363274,2.0281785-5.5133738,4.4258037-7.8107544,7.1455967-1.6364676,1.9373991-2.8799982,4.1074145-3.8816199,6.4275324-.3828968.8868705-.7452416,1.7846988-1.1737202,2.6493232-1.0363148,2.091658-1.7463448,4.302151-2.2751317,6.5589784-.9101752,3.8844334-1.7986908,7.7777464-2.2265095,11.8751006.3427122.0269221.7027944.0858201,1.0614626.0779796,1.4778504-.0322593,2.958859-.172018,4.4323257-.1130728,3.7535006.150197,6.4676696,2.0027678,8.0674173,5.3750202,1.650326,3.4789961,1.3775421,8.3607751-2.8261202,11.3748691-1.1906425.8537611-2.5408921,1.2348741-3.9597737,1.389558-1.8700332.2039467-3.7293663.050349-5.5574944-.3802156-1.5530345-.3659044-2.8352413-1.191043-3.8338462-2.4458961-1.2197498-1.5328119-2.1318813-3.2187019-2.5363433-5.1533616-.2100205-1.0047137-.4060648-2.0123559-.6302265-3.1270723-.4166942.1578485-.7980826.2333721-1.1019064.4294783-1.2428471.8025146-2.5107949,1.5783906-3.6795421,2.4810365-2.2418527,1.7314214-4.3941444,3.5677918-6.4074281,5.5751883-3.3896238,3.379715-5.7469866,7.3886985-7.5789564,11.7744969-1.2063628,2.8880797-1.6898271,5.9276788-2.2517044,8.9668057-.2682351,1.4507231-.7186797,2.868573-1.1059838,4.2960109-.2528448.9319296-.5088949,1.8651345-.8201429,2.7784076-.4561482,1.338406-.9100102,2.6819131-1.4586655,3.9835256-1.4073094,3.3385761-3.6998347,5.9806729-6.416832,8.344858-4.4916716,3.9082382-9.3564119,7.2573942-14.5580192,10.1191659-5.2114355,2.867156-10.6831871,5.0519078-16.5560304,6.1668604-2.7759661.5270118-5.5026972.3936766-8.2100313-.3374236-1.0258739-.2770614-1.9361905-.7426248-2.1764261-1.9889761.0381577-1.0590775.6428121-1.7231559,1.6273701-2.1170686,1.3157686-.5264923,2.6206485-1.1185423,4.0904384-.9009928.6884175.1019261,1.3645558.2869801,2.0068023.425747.2615888.4963584.4670605.8861621.6602058,1.2526332.1691524.02201.2983323.0691945.4165764.0496406,2.4192306-.3985887,4.7292439-1.1457477,7.0341428-1.9894957,6.1040756-2.2343923,11.5772884-5.5906803,16.8163229-9.3485799,2.1908029-1.571353,4.2171908-3.3850049,6.2378043-5.179528,2.7297244-2.4241222,4.291715-5.5892634,5.3828269-9.014368.4102129-1.2876319.8411897-2.572241,1.1686058-3.8818357.4366098-1.7463939.8928051-3.499967,1.1442122-5.278384.669539-4.7359274,2.4320519-9.0488,4.7594589-13.1777994,2.4116886-4.2784879,5.7638146-7.7099216,9.4504745-10.8786051,3.1453109-2.7033563,6.5383757-5.0021727,10.269486-6.8041112.3466481-.1674365.6828553-.3568359,1.0212308-.540898.0537602-.0292837.0931434-.0849699.1513345-.1400894.3444327-2.0785748.700579-4.1648011,1.03417-6.2546642.6504955-4.0753914,1.4846618-8.1224909,2.8125447-12.0213773,1.1820164-3.4705416,2.6885263-6.8401018,4.5493442-10.0118081,1.6734705-2.8523253,3.8843539-5.2806039,6.3297457-7.503755,1.6717735-1.5198704,3.4390473-2.8959202,5.3170467-4.1540322,1.2779409-.8560754,2.4281867-1.9044785,3.6287752-2.8752799,1.300614-1.0517566,2.602972-2.1016711,3.8877949-3.1725565,2.5283064-2.1073389,4.8032024-4.4703433,6.9960794-6.922285,1.4594197-1.6318097,2.9937878-3.1972115,4.5161359-4.7714457,1.9837285-2.0514165,3.630095-4.3240193,4.9103928-6.891112.6726972-1.3487498,1.1542996-2.7323094,1.3848013-4.1953128.3403789-2.1605691.5836076-4.3365357.8642163-6.5065039.0329961-.2553821.0160267-.5186518.0637768-.770397.632819-3.3370647-.4256503-6.3371309-1.7741558-9.3961895-.4895215.2138654-.9025861.3605672-1.2839273.5663559-2.8140531,1.5190675-5.8080766,2.0269977-8.9628856,1.6028094-1.8483972-.2485807-3.6871783-.5586099-5.4563848-1.1789989-1.5440313-.5414648-2.9391556-1.3472856-3.9956924-2.6076648-.5707863-.6809401-1.0756745-1.4568633-1.435144-2.2678324-.7467029-1.6844258-.1199174-3.4104156,1.5088197-4.2790547,1.4342484-.7649182,2.9756399-1.1891065,4.6123433-1.2681724,2.2627346-.1093415,4.4994493.1214801,6.7256053.4766628,1.2690791.2025297,2.5509324.3891896,3.7846113.7347371,1.6588579.4646187,3.2768477,1.0757031,5.0404919,1.6668084.2444543-.2682291.6090147-.6252066.9245993-1.0213866,2.5436732-3.193244,4.5934412-6.6578344,6.0749212-10.487668,1.1426567-2.9538263,1.9332916-5.9994711,2.7798785-9.0349139.7780021-2.7895543,1.4536218-5.6097147,2.3010101-8.3774007.9792786-3.1980144,1.2478673-6.4318305.8854753-9.7387141-.0631169-.5758495-.144806-1.1557609-.1349071-1.7323661.0619385-3.6160626-.8618594-7.0119309-2.2535899-10.3054006-.3257663-.7711055-.6487514-1.5467925-1.0338637-2.2886616-1.170892-2.2554577-1.7890041-4.6816581-2.2723034-7.1536261-.0617028-.3159804-.1161936-.6349364-.2032563-.9442571-.8220284-2.9206696-.6107587-5.86982-.2561444-8.8241658.0383227-.3192866.0705175-.6402736.0841402-.9614022.0630226-1.4901617.3488164-2.9331388.8139679-4.3514609.7819145-2.3843295,1.5125907-4.7854735,2.2884716-7.1718339.258407-.7949339.560416-1.5787212.8919331-2.3461662,1.3581687-3.1432492,2.2497718-6.4381123,3.1475499-9.7286538.3041774-1.1147401.4584108-2.2702648.6893367-3.4054563.4143845-2.0376248,1.268042-3.7791066,3.3039988-4.827368Zm-51.3290466,206.9480295c4.7974045-2.3687194,3.7518508-8.8952023-.0750427-10.7762067-2.0555659-.2299714-4.1039669.0586146-6.0378005.9281038-.4009975,3.3704103.9612721,8.3925621,3.4419934,9.8268013.8438058.3494205,1.7299881.1348939,2.6708498.0213015Zm16.8039022-102.6558428c.7012153,1.5178395,1.3322903,2.3148752,2.5928375,2.7896015,2.6502979.9981958,5.3417467,1.3856378,8.0006708-.0105327.7050335-.3702969,1.4953855-.6354559,2.0526434-1.3220166-.7069189-.7665713-1.5705225-1.066729-2.4294594-1.2554199-1.9366855-.4254636-3.8838354-.8612237-5.8502645-1.070602-1.1179567-.119024-2.2874345.166917-3.4227378.3422885-.3367493.0520022-.6359772.3477201-.9436899.5266812Z" stroke-width="0"/>
    </g>
  </g>
</svg>