<?xml version="1.0" encoding="UTF-8"?>
<svg id="Layer_2" data-name="Layer 2" xmlns="http://www.w3.org/2000/svg" viewBox="0 0 439.0687843 666.956014">
  <g id="Layer_1-2" data-name="Layer 1">
    <g>
      <path d="m6.9539844,71.8633794C-2.0289541,64.2007894-.8823514,49.8408359,2.4754857,39.3693885c5.0759745-12.4200654,16.9851835-19.9513436,28.7054153-23.8662504,2.7574333-.9677225,5.6386389-1.5451305,8.5476789-1.3918982,6.1906334-.1459163,12.3915919.7213088,18.2188008,2.9877481,7.0925462,2.3323491,12.6389017,7.9232919,17.3533743,13.8090868.0493137-.0652887.0982752-.1305306.1469578-.1957842.0270932-.0794089.0552945-.1588218.0704922-.1374716.2171859-.6369353.808158-.9615589,1.5498085-.7127234.3033308.1009857.5930782.2781304.8470659.5076625.5839273-1.3898515,2.4638075-.6328184,2.6659498.6762609.1624638.7864335-.2303142,1.3945387-.6579419,1.987139-1.8711182,2.6609684-4.0005244,5.1107005-6.0525917,7.6120543-8.3597254,9.9765887-17.3640956,19.61866-28.7052318,25.6825489-11.4418771,6.0941603-26.3218049,15.3599903-38.2112793,5.5356183Zm15.3974449-1.0917575c4.0493464-.3103862,7.8149995-2.2124193,11.6361159-3.5359509,7.4806349-2.9676439,14.868968-6.5034776,21.4614349-11.2991438,7.4589941-6.1398448,13.8907951-13.6089787,20.0079496-21.2174003-1.4032396-.4056534-2.5156897-1.5945843-3.5664095-2.6051459-1.87864-1.8487749-3.9420964-3.4744744-6.2016776-4.7577937-16.9133814-8.7342941-35.7430999-1.4866928-47.7523343,12.7747455-5.1482169,5.7872661-7.765495,13.3395117-8.6946441,21.1506078-1.8111565,8.3230629,7.632425,9.952434,13.398909,9.4778241-.0000807.0000859-.2893879.0120852-.2893439.012257Z" stroke-width="0"/>
      <path d="m107.8962743,58.5298985c-8.7027126-.2385236-16.7968484-4.2390772-23.4041093-10.0989011-4.3730044-3.8107299-9.4276537-6.874516-13.0937841-11.5074897-2.1979831-3.0318116-3.4641716-7.4235254-1.6757273-10.999294.4959552-.9919358,1.2248589-1.6478934,2.2957299-1.7999929,3.1726849-.2888329,5.9762728,2.7466582,6.5997172,5.9583292.0280619-.0341423.0562631-.0684096.084347-.1025988.1438244-.1738677.3135017-.2741659.4934454-.3175615,7.7086888-8.7668819,16.7117088-23.5903054,27.7608226-26.8643552,10.0834895-3.5421712,20.436568,4.0426173,24.0727506,13.9907704,1.3826629,3.4477769,1.9838206,7.1635364,2.6148601,10.827061,3.7608171,23.641597-3.4186445,31.8026079-25.7480522,30.9140326Zm6.9098359-5.7313635c13.3670056-.4627904,14.9215033-10.0801055,12.4769222-21.9959847-1.01099-4.8722081-1.7388371-9.9612889-4.0451636-14.3686404-5.1422838-9.2133686-17.0523551-5.5399423-23.6680772-.2045532-7.2374639,5.727434-14.2608461,11.8997807-20.5712414,18.7702989,12.1145985,11.5526117,18.3361557,19.0215737,35.80756,17.7988794Z" stroke-width="0"/>
      <path d="m72.0292223,51.2641109c-3.1237822-1.1057488-5.6335278-4.1637618-5.8423773-7.7076028-.9063892-2.4748867,2.7102807-21.9255596,6.7004287-16.8327173.785233-3.3534549,4.1812019-1.1811111,5.4353336.642021,5.1326633,5.0723514,3.4302611,27.1831256-6.293385,23.8982991Zm-.3744834-6.6618267c2.5958978-1.5658205,2.8184407-5.83281,3.2299755-8.6051931.1192556-1.7703464.4329994-3.6881851-.3232177-5.3460974-.4061044-.7168638-1.034781-1.1565423-1.3484882-1.9782196-.3164884,1.9524947-.2490637,3.9385303-.2633001,5.9124162.0037572.2679827-.2479776.3719759-.4583828.3039803-.2780355-.0879943-.4921979-.3999741-.4921979-.7079542.0036765-.8649518.0072576-1.7260738-.0043663-2.5856393-.7626088,4.2255801-1.3559439,8.7612943-.3962857,12.9876536.0187568.0063433.0373742.0127023.0562631.0190535Z" stroke-width="0"/>
      <path d="m107.3170509,204.3211041c-4.3382427-1.6057867-3.5961225-6.0163919-3.4943396-9.9192799.1402506-6.9548312,1.8190012-13.7674996,1.7575352-20.7313615-.1676887-4.1169523-1.0760078-8.3368198-3.9670542-11.2760984-2.6091729-2.7154336-5.847903-4.9438051-7.3868361-8.6018808-3.2029116-9.7077624,2.356352-19.8645738,3.2174269-29.5435646-6.9203664-.9281196-12.7383216-5.8138503-16.8181369-11.6178575-3.991146-5.383386-4.7760047-12.5638197-3.4156578-19.1187549,1.3401665-4.682986,3.2930119-9.1640241,5.1398842-13.6471168,2.1372582-4.5300584,4.2234342-9.4651062,3.3848147-14.6578639-.8571562-3.7765993-2.9210675-7.1420456-5.0116979-10.2524693-1.7737897-2.757345-4.3262078-6.0184777-3.4452387-9.5713806.1578039-.355977.3494229-.8999418.7740053-.943978.5937534.0247718,1.1287265.4040754,1.6681981.6359979.2141625.1039933.4170532.3719759.3945612.6360526-.2476914.7803323-1.124984-.2499526-1.6213868-.2217825-.0127394.0153584-.0256182.0309355-.0385777.0465907-.0343215.0782762-.0664781.156154-.0798486.1631535-.8079378,4.5094582,3.9098444,7.4561659,6.1954987,10.5953377,14.1397707,14.0734955,4.6697674,26.0234565,1.4282927,42.1152901-.2367279,2.8822666-.5101916,5.9499431.6337694,8.6627363,1.8165502,3.2950055,4.6591268,6.0899965,7.9403459,7.657067,15.0828296,3.6136021,9.4529196,15.7741979,6.050126,26.9491075-3.5515714,14.6017113-1.8254223,9.939763,6.0104182,19.8008123,5.762602,7.6039923,5.0446764,18.1845888,4.2830583,27.3503237-.3960729,4.4008402-.2955594,8.8415684-.2366912,13.2589232.0430908,1.8174293-1.8548491,2.9024372-3.3624694,2.2319962Z" stroke-width="0"/>
      <path d="m430.8736907,666.9479615c-10.9028238-1.3009783-14.9441421-14.0507782-18.4003002-23.4577944-3.6905451,3.2991615-7.2444207,6.7644997-10.9024422,10.1062835-3.1913023,3.1856688-7.4110306,5.0242373-11.8126913,4.6921338-5.7422895-.3352908-10.6101997-4.0804234-15.9369036-5.9965494-10.1913853-3.7905047-21.1093261-3.6950734-31.6436179-5.3831516-6.213852-.6488955-12.6376101-1.2005473-18.7956025.153865-6.3482025,1.7331378-12.683695,3.7380706-19.2361972,4.4182141-16.6872061,1.6773289-33.4728047.7448268-50.2041877.7517638-7.4758723-.0346853-14.9781333-.2463591-22.3593115-1.6078959-7.2281296-1.3714737-14.3412818-3.3998425-21.6232162-4.4552117-11.1276709-1.113178-22.3314845-.6748313-33.4954362-.8526948-14.1415319.1389285-28.3446766-.6829558-42.4530391.6038359-15.0135115,1.9731848-30.0980803,2.6160182-45.2182474,2.248167-6.3315958-.037935-12.2425206-2.6425165-18.136237-4.7995644-3.6238468-1.2690429-7.4016082-1.8376936-11.0725819-2.9157488-2.7804574-.8550072-5.3979153-2.2300432-8.0877954-3.3549704-3.860061-1.6114582-7.9822773-2.3141002-12.1199114-2.3472856-6.1854782,9.4059538-19.425046,29.8276322-30.5863815,16.2455112-2.6219472-3.445652-2.985768-8.4888256-1.3976624-12.5151901.7251466-1.8598796,2.6300652-2.6958255,4.287076-3.2954117,7.2815528-2.9808071,14.8697532-5.1124816,22.7304817-4.7478177,8.9721915-15.0639626,14.9888033-34.0240481,9.6536822-51.6609067-2.3331188-7.8684283-4.7439581-15.6952968-7.7063883-23.3229906-2.5646658-6.3077793-5.8801331-12.268581-8.0221906-18.7702228-3.223015-10.4415118-3.6729037-21.5523552-5.0496702-32.3779671-.8099229-8.1874701-2.1914006-16.2804151-3.5392063-24.3824221-.9424461-6.9029595-.8411329-13.9066313-1.0296038-20.8626498-.1234311-9.669843-.9075963-19.4053692.1353559-29.0381208,1.1221771-12.0435643,5.4880523-23.3509576,8.1718636-35.0377637,2.4813462-9.7826794,3.0800016-19.9086803,3.2013008-30.0019959.2626873-16.8991251.2152889-34.0232981-3.7421374-50.4967633-1.3862366-6.7600938-2.0938482-13.6383049-2.626352-20.5266716-.9203871-10.4869463-1.8924471-20.9842982-1.9274988-31.5220225-.3934934-9.7983659,2.387962-19.5542345,6.962184-27.9941258,2.134-3.8796083,5.3129152-6.9310046,7.5194254-10.7550227,3.6614485-8.1563628-1.5452807-17.724806-4.2280977-25.461696-3.31222-7.2589677-7.0404549-14.4316442-8.2095497-22.5154804-.914997-5.8283572-.859908-11.7536143-.860341-17.6428582-.0237799-6.8701335.3645877-13.7526881,1.6157326-20.5025169,2.7928482-13.7105971,3.5996302-27.8477525,13.9953629-37.9378729,4.6772452-4.8559357,10.6388339-8.1956337,14.3828169-14.0511688,2.6820354-3.6654659,4.7806279-8.2891745,6.0001004-12.6151602,1.612478-4.7286784,1.6273822-16.9001875,7.7402951-13.1951773,1.8422051,1.1048191,3.4970327,3.9254803,2.5961107,6.1758659-.4084233.8052916-.7731394,1.5964279-1.0784148,2.4474666-.9273328,3.2502272-1.4684482,6.6424607-2.6225801,9.8156851-2.2743093,6.9361683-6.2679723,13.0596314-11.1737484,18.1830576-3.8087292,3.8276742-8.4039683,6.7087533-11.9378176,10.879499-6.3590779,6.9871025-8.1552092,16.5734196-9.6100778,25.8219383-1.1514057,6.1353842-2.3327336,12.2831582-2.71304,18.5348005-.2696294,10.5279593-1.1932013,21.4260509,1.6548533,31.6572638,2.1658338,6.809075,5.6785302,13.0197512,7.8173882,19.8473718,2.6884858,8.1955321,6.1433964,18.1979473.9882705,26.0983891-1.488702,2.3760806-3.4510213,4.3836382-5.1023522,6.6315552-2.6766124,3.515335-4.3233532,7.72675-5.7843419,11.9360713-3.4713302,9.3767057-2.4565719,19.5298299-1.8017708,29.3452259,1.0127953,10.723431,1.9442229,21.9562041,3.6520371,32.5179268,1.7474083,8.7670576,4.4610463,17.3154107,5.2758015,26.2782681,1.6030739,17.4500894,2.2542682,35.3330571-.552688,52.6686227-2.1567782,10.8562662-6.3193885,21.092135-9.5774735,31.5978301-3.5906334,11.0551908-3.9587068,22.7810257-4.072565,34.3658697-.1961798,10.3814532-.9497515,20.8627748,1.0103369,31.1140489,2.9892225,16.0445867,2.9048791,32.658449,6.9342983,48.48155,1.6150611,5.4927695,4.2606726,10.5298185,6.8137695,15.5782418,3.0252831,6.1975989,5.473981,12.7044903,7.709874,19.2667531,1.8047648,5.4208367,3.8027338,10.7908017,5.0460193,16.3989387,1.6005165,8.6986871,1.1051484,17.8307211-.9693742,26.3903546-1.775228,6.5921359-4.6004566,12.8251075-7.6306235,18.8573421,5.618697.3650389,10.7620375,2.7824449,15.8884338,5.0511731,3.8480114,1.4925284,7.9909952,1.8814407,11.8696076,3.2616639,3.9791111,1.2995409,7.7804212,3.175607,11.8335983,4.2367883,3.6731385.9748119,7.4448384.9831864,11.2095229.9588754,7.0459697-.0177489,14.0980962.0665582,21.1344526-.3919746,8.3376296-.5535892,16.600342-2.0188069,24.9480398-2.4561535,16.3508747-.5815249,32.7281088-.1401159,49.0882886-.3916622,7.1316743-.0219361,14.2877118-.2576083,21.3937019.456033,7.2184723.8911923,14.284571,2.7600089,21.4425459,4.0397386,11.382253,1.9519987,22.9727097,1.0341831,34.450097,1.0840548,13.2696477-.2560459,26.6409462.3224791,39.8229445-1.568086,5.0456157-.6985798,9.9489849-2.1836712,14.8711402-3.51596,7.0545042-1.784572,14.4154872-1.1258646,21.5590496-.3518522,9.6823972,1.5696484,19.6250417,1.6606425,29.0433463,4.719882,4.8327742,1.4455939,9.2754122,3.9734929,13.8660795,6.0814814,6.3851291,3.0174297,12.0096527-.1385535,16.7516955-4.8696849,3.3407405-2.8961876,6.620426-5.8839317,10.0325834-8.684188-4.4174528-15.6187392-2.5946357-31.9968043-3.8067552-48.0161426-.7297844-8.1475977-3.3807786-15.9455306-4.1069231-24.1024402-.4628739-6.335215-.1976071-12.7188644-.1838404-19.0667661-.0216335-10.9376672,1.9653867-21.6964084,3.5502358-32.4619617,2.7738675-18.8642792,5.1671095-37.7746804,7.6499674-56.6842691,1.0824949-7.2510307,2.1708605-14.5136232,3.7270901-21.6706288,3.0858649-13.794326,7.3236749-27.3066078,9.607546-41.3012959,2.2571302-12.3864484,1.3167351-25.1773706-.3187486-37.5871612-1.5456623-8.8607078-4.3705461-17.3900308-6.3466174-26.1487453-2.2966986-9.0516642-3.9242569-18.264068-5.277537-27.5233125-1.2729692-7.0845103-2.3589572-14.2187361-2.2784701-21.4534866-.1158579-7.2171892-.3505677-14.478938.6461565-21.6386309.8350164-6.8309642,2.5204889-13.5258434,3.8025577-20.2747191,4.4212394-20.7385016,7.7378221-42.7386872,2.6452116-63.6751136-1.5651823-5.1814928-3.822107-10.0713951-5.5834288-15.1717213-1.7535138-5.0598288-3.2021631-10.2278381-4.6886783-15.3830513-5.312673-16.8125135-3.9917991-21.3887252,1.4235521-37.9375214,2.1725337-6.3499484,4.9901965-12.4394137,6.8748026-18.9058077,2.4050714-8.2627309,3.7653082-16.9046326,3.5062644-25.5671032-.2060316-13.1497584.13256-19.7393866-9.3932368-29.840186-8.9986096,3.1087363-18.8333217,3.595947-27.9196392.609898-2.6605928-.8120959-5.2736623-1.8650766-8.0367572-2.2135032-10.641872-.5546594-21.4578684.2346645-31.8838755-2.5701969-8.0973133-1.9624785-15.8052243-5.3570713-23.8471476-7.5337781-5.5185872-1.4789941-11.3385458-.7250273-16.5525913,1.6036189-5.4600858,2.595914-10.6229097,5.8495941-16.2029923,8.1655653-10.4190209,5.1412122-21.8695499,2.0736373-31.8200025-2.7874876-7.4228307-3.0828474-14.2271851-7.5193727-21.0887493-11.7675431-14.1905814-8.9753137-41.7905327,9.7265307-57.5615309,11.9478635-5.3682097.5471833-10.802758-.103134-16.1599602-.5845364-3.2394126-.1063955-6.7703632-.9345684-9.7854277.485203-.3191009.492347-.3077118,1.1084869-.4114467,1.6790632-.4511325,1.3256056-2.2337942-.1032511-1.9462483-1.1478984.0193439-3.4656507,3.2833546-3.307532,5.7183371-3.475986,7.3678518-.1582905,14.8953567,1.0129384,22.1593561-.4448267,3.4932315-.8703187,6.8196769-2.2736341,10.1716011-3.6112468,12.8634259-4.8191803,29.3431033-14.407634,43.1219739-11.2830315,6.8721314,2.2310822,12.5132691,7.298348,19.0151954,10.4396408,9.5519507,4.5288397,19.9097698,10.0229412,30.6144874,7.3506962,7.5666037-2.1219135,14.2039372-6.6974064,21.4045039-9.8104276,14.0059779-6.5657938,28.0544007,2.7575676,41.7222567,5.8848418,10.1070236,2.5643731,20.5236376,1.4797831,30.8036701,1.5024965,4.2119203.0702455,8.2167816,1.7319504,12.2580706,2.8231376,7.343782,1.7209199,15.0240714,1.5462788,22.3169546-.3784677-5.2748071-9.0912827-1.1209772-22.5844876,7.581163-27.491008,6.0665272-3.4353421,16.155293.1435923,16.0624482,8.3715891-.0118588,9.7596848-8.7149089,19.2842715-16.6997106,23.0354389,2.8799801,3.1998417,5.4346364,6.765236,7.193698,10.7942096,2.2022393,5.2007962,2.2214071,11.0404183,2.2806129,16.6349156.0231305,4.3801853-.0002055,8.7855486-.3911048,13.1470945-1.2793682,18.423128-11.5605162,34.1852642-14.4333928,52.1952081-.6154235,4.2069465-.1904743,8.3620916,1.1338047,12.3131328,2.4931316,8.3291172,5.3435528,16.5226182,8.66084,24.5184445,2.470412,5.6057153,5.416408,10.9968977,7.1829547,16.9263733,3.5184167,12.799781,4.1601702,26.4444136,2.9830106,39.6734637-1.3370477,14.6406463-5.0395102,28.8572262-8.0404557,43.173206-1.2498387,6.0433901-1.4617703,12.2581442-1.6077154,18.4228077-.5242225,9.5039474.1512875,18.6523241,1.4689912,27.9181307,1.3562154,15.3151964,4.990402,30.2087638,8.1832307,45.1651396,1.9824997,12.9354441,2.7896597,26.2501449,1.4086993,39.3014566-2.8737572,20.930583-10.3045427,40.7977347-13.1204443,61.7440042-2.5214576,16.0218069-3.9239927,31.7663504-6.4888934,47.70885-1.8248132,15.5494312-5.2817932,30.9591839-5.286255,46.6810415.0749686,7.7486235-.4366026,15.5823041.9434478,23.2361212,1.303849,7.1979717,3.4043787,14.2595772,3.7309354,21.6249755.7445492,14.0419038-.552343,28.2922315,2.8851463,42.0415917,8.3432655-6.0631701,18.9847265-2.2771651,22.705124,7.6073827,3.2929532,6.6745056,4.2586216,23.8477692-5.9252199,23.4144222Zm-.5826358-4.7240693c3.0712763-.3660388,4.0495372-4.1165461,4.4094687-6.891054.762895-5.8204358-.9196422-14.3827567-6.2538606-17.1510775-4.4841438-2.0144321-9.3921801-.3226666-13.0147133,2.8100056,1.9945346,6.1097921,4.3526405,12.3876358,7.9273277,17.600611.9050829,1.0933667,1.7360779,1.7082644,2.6338224,2.363847,1.5114069.865569,2.6856312,1.2258582,4.2979551,1.267668Zm-415.2229102-12.4826297c6.2564584-.378538,12.8684893-9.9420441,16.5153529-14.9223468-5.7416254.0960563-11.2023386,2.0671162-16.4151367,4.4816475-1.2717694.6697692-3.2108627,1.298666-3.5720197,2.9088118-.9273071,3.4112167-.1331874,7.6911898,3.809852,7.5155136-.0000807.0000625-.3382329.0160615-.3380485.0163739ZM411.5111271,27.8811223c6.4635614-2.0959112,11.7518417-7.2435547,15.2727535-13.2750784,2.0151407-4.4415094,3.2308707-9.8046116-2.9100674-10.4754041-10.3546196-1.632742-17.9078381,15.3376324-12.3626861,23.7504825Z" stroke-width="0"/>
    </g>
  </g>
</svg>