<?xml version="1.0" encoding="UTF-8"?>
<svg id="Layer_2" data-name="Layer 2" xmlns="http://www.w3.org/2000/svg" viewBox="0 0 400.7148874 622.4109296">
  <g id="Layer_1-2" data-name="Layer 1">
    <path d="m199.1268905,72.6505789c-.3787814.3926717-.7829241.761457-1.1321938,1.1819458-2.0544851,2.4733979-4.0714633,4.9825963-6.1473995,7.435271-4.2187818,4.9844105-9.0964335,9.1520613-14.3010518,12.898607-3.211363,2.3116997-6.44042,4.5961753-9.6850519,6.8546132-3.6499543,2.5406205-7.4238973,4.8318528-11.527865,6.4700471-3.4358467,1.3715134-6.9904285,2.1221087-10.6291876,2.44197-4.5909006.4035799-9.1765477.2778915-13.7483455-.3307113-2.1935573-.2920209-4.3551234-.7470368-6.4477378-1.5246119-5.3278642-1.9796743-9.2433806-5.6856108-11.7776445-11.0321721-1.6541323-3.4897845-1.9681124-7.1364703-1.0042513-10.9247357,1.1897647-4.6761959,3.1909494-8.8851013,6.2371472-12.4994695,1.2342726-1.4644889,2.5298295-2.8703899,3.7957109-4.3047242.2795424-.316733.5515704-.6409785.9267147-1.0778004-.569876-.2080813-.9951859-.4065512-1.4396861-.5190114-4.5397521-1.1485583-8.8845103-2.9154123-13.1982059-4.7650023-1.3212569-.5665225-2.5918348-1.2982262-3.8208319-2.071074-2.6545718-1.6692908-4.5404183-4.0778559-5.7075413-7.1132584-1.4149801-3.6799511-.7587424-6.8124923,2.0050622-9.4956519,1.4698314-1.4269382,3.1718465-2.4770669,5.014747-3.2560666,1.051741-.4445757,2.1309294-.8153642,3.1965962-1.2228544.373506-.1428183.7434841-.2960417,1.3360237-.5328065-.8114529-.3508066-1.4041999-.6242498-2.008448-.8650034-1.6503423-.6575617-3.0674851-1.6778761-4.2759048-3.0405222-1.3787294-1.5547024-2.0844118-3.3699368-1.9711269-5.5298754.2058941-3.9253069,1.1125339-7.6488006,2.8682862-11.1126346,3.4154331-6.7381468,8.2634748-11.9115362,14.7919057-15.2286837,2.8767291-1.4616986,5.9100386-2.3655581,9.0564474-2.8435613,5.9410139-.9025607,11.8908093-.759198,17.8464698-.1570444,3.1555725.3190494,6.2588386.8953171,9.2975109,1.8661972,3.9819232,1.2722596,7.5727994,3.3966259,11.0556225,5.7479579,3.1782469,2.1456826,6.0874367,4.686261,9.0822565,7.1012803,2.3768643,1.9166978,4.7453404,3.8494525,7.1855752,5.6717982,4.5629835,3.4075835,8.6843394,7.3373764,12.4918353,11.6561051,3.3061676,3.7501042,6.6184953,7.4940857,9.9226095,11.246228.6525569.7410303,1.299063,1.4899743,1.9143971,2.265805.6910904.8713821,1.3100507,1.8011543,2.2256357,2.4539597.3272287.2333109.5318668.6615854.8037418,1.0155784.4655036.064891.7326821-.3304555,1.0488794-.5761573,6.4118257-4.9819509,12.6212414-10.2333621,18.5229354-15.8886585,2.8946633-2.7738384,6.0600439-5.1493737,9.3969684-7.2625017,1.327832-.8408728,2.7177894-1.6168518,4.1588627-2.1999197,4.1379576-1.6742536,8.0587603-3.8211034,11.961454-6.0132927,6.4535484-3.6250104,13.1276813-6.6695548,20.1805738-8.7119861,3.1043693-.8989912,6.196462-1.8722887,9.3922063-2.3542684,4.0760288-.6147415,8.1693146-1.082987,12.2858866-1.1928423,3.0475521-.0813303,6.082915.1730876,9.0483977.9918228,5.7661279,1.5919479,10.4277606,4.9057302,13.8025632,10.1749443.5021584.7840424.9305047,1.6266392,1.3427736,2.4699688.8907698,1.8220782,1.0929832,3.7617654.6209263,5.7376253-.3221608,1.3485079-.7509221,2.6734842-1.20937,3.9781733-.4173367,1.1877371-.9491598,2.329408-1.4095737,3.5007189-.1808059.4599583-.304729.9452682-.4754646,1.4851249.2824259.2815721.5179082.5603881.7930162.7839101,3.1455896,2.5554827,5.1949631,5.9468812,6.3998986,9.8900215,1.2791627,4.1861238,1.9948499,8.4947787,1.8669293,12.9274416-.1548329,5.3643657-2.243286,9.668491-6.2826162,12.8666965-1.0491852.8307205-2.1642749,1.5925322-3.3217208,2.2384706-5.7171746,3.1906058-11.6170556,5.9103451-17.8897545,7.6302288-.5191752.1423531-1.0459959.2528654-1.5676832.3852406-.5181485.1314856-1.0343092.2719082-1.5430428.4062197-.2506423.6153244.1636799.987302.3850289,1.3890444,1.9402171,3.5218695,3.428933,7.2560068,4.6381282,11.1212635.4906901,1.5684307.8829495,3.1668299,1.046127,4.8165488.527629,5.334246-1.1571619,9.6299227-5.4027686,12.6180118-3.4532894,2.4304455-7.2602611,3.7685482-11.4331915,3.8858868-2.8842217.0811021-5.7109708-.3503181-8.522975-.9342088-4.6805063-.9718758-9.353935-1.9824653-14.0305311-2.9756574-5.1338207-1.0902844-9.9694001-3.0108241-14.4636831-5.8834701-3.5788072-2.2874644-7.192762-4.5153175-10.7251936-6.8811976-2.218012-1.4855494-4.3372875-3.143525-6.4590095-4.785429-2.4600477-1.9037007-4.883091-3.8621516-7.3037532-5.8226609-.9011022-.7297907-1.7644355-1.5149189-2.6200359-2.3054257-2.4007184-2.218102-4.5130692-4.7084669-6.2310417-7.5662914-.2497249-.4153835-.5235222-.8143641-.7659948-1.1897373-.434004.1306192-.3507114.418977-.3294787.6332276.0625404.6303261.1354351,1.2617337.2475623,1.8838787,1.0318408,5.7251152,3.3023448,10.8367782,6.7056325,15.3962634,2.3775196,3.185204,4.9297724,6.2052618,7.5370511,9.1748138,2.1808984,2.4839282,4.7032681,4.497862,7.5515558,6.0244858,4.9033844,2.628107,9.9343181,4.9513429,15.113728,6.8916057,4.5447872,1.7025038,9.2571644,2.3920226,14.0597807,2.4351669,3.5190847.0316198,7.0403101-.0360854,10.5569701.0727407,3.2764374.101395,6.5487244.3666455,9.8216666.5799484,2.8560861.186137,5.7081311.4631563,8.5662487.5888098,5.4412147.2392127,10.6972983-.8217544,15.7391542-2.9534805,2.8217905-1.1930749,5.5959821-2.5381551,8.3130943-3.9822348,5.6016834-2.9771227,11.2453299-5.8525596,16.943631-8.6151584,3.9590085-1.9193768,7.8288264-4.0473002,11.7391875-6.0805734,3.6455199-1.8955719,7.331714-3.6883648,11.2418567-4.8918362,2.8672049-.8824705,5.7655162-1.5827114,8.7550496-1.8396703,2.5183503-.2164776,5.0033224-.0796484,7.4725229.4634005,3.998525.8793888,7.7971302,2.3295737,11.3464475,4.4973853,3.8952885,2.3791258,6.7867843,5.7351396,8.7394964,10.0383287,1.5978721,3.5211485,2.5523401,7.2462965,3.1438857,11.0811311.3185346,2.0649396.5744196,4.1475207.7299952,6.2330207.4980517,6.674535-.5139107,13.1671777-2.2487907,19.5538317-1.3114924,4.8279454-3.1119056,9.4627994-5.0264337,14.0474968-2.6159073,6.2644195-5.270348,12.510651-7.871838,18.7818387-.9631184,2.3217124-1.8655094,4.6746027-2.7218088,7.0435064-2.1002927,5.8103224-4.4264562,11.514284-6.9868351,17.1102569-2.0951374,4.5790688-3.7938869,9.3118524-4.9996962,14.2464957-1.5587707,6.3789904-2.2501451,12.8479211-1.8542377,19.4339114.344311,5.7272666,1.3472298,11.3288913,2.8964764,16.822155,1.3380989,4.7444361,2.8300258,9.4314936,4.5816386,14.0234476,4.422131,11.5929672,8.3048808,23.3915155,11.8524069,35.3175199,1.8233498,6.1297068,3.0319989,12.4065928,3.868682,18.7625342.4217275,3.2038457.7711063,6.4277401.9580505,9.6553791.3790872,6.5455206-.5807545,12.9093001-2.6036744,19.1000835-1.1189124,3.4241958-2.4870692,6.7329601-3.9819669,9.9852763-1.9919009,4.3335995-4.0214616,8.6478714-5.9810328,12.9979611-3.1472498,6.9867094-5.9458634,14.1364136-8.5870664,21.3534045-2.1084625,5.7613867-3.4698912,11.7350296-4.2369781,17.8669692-.3389373,2.7091393-.6821997,5.4162319-.626715,8.1538395.206473,10.1876477,2.4806469,19.7137798,7.9982295,28.1990981,3.2590056,5.0120008,6.4830602,10.0497719,9.7494492,15.0562837,2.2134902,3.3927039,4.3661657,6.8142483,6.0108722,10.5777842,1.8253594,4.177117,3.0221689,8.5484882,3.7387517,13.0750395.4063053,2.5661001.7429271,5.1426665.8151446,7.753981.1508572,5.4502822-.6013756,10.7623165-2.1103411,15.9573144-1.8669074,6.4272749-3.7929694,12.8351057-5.6434499,19.2676835-2.3916093,8.3137178-4.7963688,16.6241794-7.0768776,24.9727384-1.686735,6.1751072-2.5961163,12.4980449-2.9205489,18.9367629-.1992207,3.9528129.0646157,7.8664121.2595111,11.7952223.1257362,2.5353525.2755449,5.0716353.3129862,7.6091741.0796883,5.4024629-.3360538,10.7863656-.6475983,16.1731059-.1429496,2.4714849-.298132,4.9423186-.477649,7.4110125-.1011831,1.3918761-.2250844,2.7845896-.4136887,4.1653482-.0927949.6795176-.2574141,1.3891782-.5604392,1.9870123-.8754351,1.7270763-2.9779996,1.7675925-3.9294094.0874516-.267812-.4729365-.4348341-1.0536989-.5000614-1.6048766-.1489786-1.2580938-.2607344-2.5268864-.2921029-3.794051-.1792986-7.2434589.1149888-14.4756608.5099787-21.7045599.0138493-.2535632.0334219-.5068937.0430771-.760643.1353914-3.5529544.3131172-7.1048853.3920628-10.6593282.080562-3.628079.5298134-7.2121531.9634679-10.8008324,1.0695442-8.850894,3.2015986-17.4269201,5.8504472-25.8755367,3.1350169-9.9994872,5.6340568-20.1973686,8.2586144-30.3553386.8062321-3.120441,1.576552-6.2519065,2.3262072-9.3883493.8133097-3.4032167,1.1210532-6.8919779,1.1415432-10.3812042.0133688-2.2709974-.2775109-4.5609737-.6048707-6.8140157-.7884071-5.4269773-2.2235387-10.6507226-4.6383029-15.5367093-1.1414121-2.3094668-2.4860643-4.4774295-3.8981719-6.6072484-3.6801214-5.5503864-7.3451265-11.112309-10.9863212-16.6916753-3.399028-5.2083483-5.9677951-10.8383714-7.3923103-17.0196189-1.1968532-5.1935094-2.0566913-10.4431181-1.9455035-15.8165545.0802125-3.8782464.5488617-7.7188608,1.1302715-11.5461248.9763998-6.4278796,2.7929341-12.5834498,5.1201461-18.5941201,3.7282227-9.6291901,7.6452682-19.1626021,12.0878018-28.4485911,1.4329034-2.9951247,2.7232942-6.0724214,3.9725302-9.1609286,1.3232884-3.2717137,2.2921737-6.6813962,2.9463252-10.1750649.8213047-4.3864426.9556476-8.8009815.5232601-13.2663631-.6560302-6.7738717-1.7758164-13.4559192-3.3670478-20.0381881-.9649096-3.9912823-2.2058447-7.9079051-3.3535917-11.8478794-2.7221583-9.3439257-5.933281-18.4966441-9.4186817-27.5477697-2.6724842-6.940053-4.8491885-14.0609401-6.3104896-21.4118761-1.3558802-6.8204815-1.7345742-13.720972-1.1909552-20.6536055.4939449-6.2989815,1.9714546-12.3868232,4.0792181-18.28683.8888475-2.4880449,1.8881402-4.9414115,2.9875237-7.3321898,2.7277505-5.9319173,5.3358374-11.9151543,7.6608213-18.0425934,2.5244667-6.6531838,5.4298556-13.1279407,8.3255893-19.6061399,2.5374423-5.6766447,4.9211002-11.4255416,6.7514838-17.4150467,1.4249958-4.6628107,2.4394484-9.4234695,2.9124665-14.3031299.2521277-2.6007319.1242508-5.2014405-.2249533-7.7886941-.5444491-4.0338917-1.3988699-7.9749707-2.8558458-11.7657656-1.8503494-4.8145602-4.9680656-8.3005768-9.3727648-10.5129863-4.8462177-2.4341668-9.903583-3.6691534-15.2752889-2.9348157-3.6196999.4948226-7.1282556,1.4999231-10.5426183,2.8759835-3.852255,1.5525452-7.5478423,3.4758062-11.2624341,5.3568997-3.7680668,1.9081895-7.5648809,3.7521859-11.3276395,5.671993-4.8916977,2.4957899-9.7473958,5.0719261-14.6477875,7.5478882-2.6367686,1.33223-5.2920832,2.6447484-8.0130837,3.7617102-7.1936794,2.9530154-14.6721221,3.7909111-22.3297105,3.1621782-4.1022202-.3368166-8.20787-.6290469-12.3275657-.601381-3.6980556.02484-7.3967229-.0198278-11.0944072.0274914-6.2227845.0796135-12.2305111-1.1274397-18.0129567-3.5059491-4.0569805-1.6687675-8.0674106-3.4763644-12.0441786-5.3527713-4.0213086-1.8974093-7.5585678-4.5761615-10.5724359-8.011719-2.6471447-3.0175342-5.2768576-6.0518493-7.5901111-9.3740919-2.6520379-3.8088666-4.7025254-7.9310007-5.8255227-12.5556269-1.0686048-4.4006012-1.5092714-8.865791-1.3581083-13.3967207.0613608-1.8381759.2196233-3.6742295.3803542-5.5066199.1266755-1.4441262.1252556-2.8540101-.5337672-4.4140853-.2080895.4356649-.3629224.6884489-.4558265.9648343-2.3859297,7.0964542-5.7124563,13.6766647-9.6096452,19.949056-1.8490824,2.9760063-3.9616735,5.7260106-6.2326581,8.3383427-2.119057,2.4375742-4.5858328,4.4411581-7.189114,6.2513483-4.1089264,2.8571442-8.481995,5.1829501-13.0499809,7.0692883-3.1098741,1.2842013-6.2893224,2.3760091-9.423968,3.5938891-2.6303682,1.0219512-5.2626369,2.0450885-7.8549523,3.1698651-3.5341573,1.5334152-7.0558196,3.0707843-10.7850035,4.0262513-2.7541931.7056601-5.5274126.9095898-8.3410769.8334999-5.4892614-.1484235-10.9578252-.6079399-16.4044682-1.3182982-4.7431013-.6186155-9.4106866-1.6664416-13.9257545-3.3603282-1.6823443-.631175-3.3498345-1.3547092-4.93614-2.2191196-3.7140785-2.0238769-7.4286921-4.0593945-11.0396324-6.28084-2.6797365-1.6485676-5.2172989-3.5646882-7.7819702-5.4184298-4.4925682-3.2472458-9.0822128-6.3256822-13.8369026-9.1177959-2.3594325-1.385544-4.8428099-2.4396383-7.5130387-2.9643015-2.6697209-.5245701-5.3431498-.4649414-8.0160928-.1220252-3.6448318.4675987-7.0876742,1.6979335-10.4122729,3.3097761-3.8021277,1.8433742-7.4804414,3.9382124-11.0346792,6.2803341-5.444404,3.5876559-10.0939567,8.0785288-13.7696219,13.680607-.9903801,1.5094474-1.9709413,3.0265119-2.9360338,4.5543916-3.1731299,5.0234904-4.7074213,10.6208123-5.2488832,16.6046308-.4800765,5.3054405.1391295,10.5136724.9000946,15.7290447.691287,4.7378074,2.0064957,9.2770694,3.8070017,13.6529993,1.5104673,3.671014,3.4302682,7.1148864,5.4705025,10.4779592,3.6574961,6.0289049,7.2045634,12.1268175,10.3652912,18.4716064,2.3756192,4.7687876,4.697949,9.5636944,6.482951,14.6287941,1.8718552,5.3115458,3.1496417,10.7749923,3.836609,16.4065738.4541827,3.7232059.7855291,7.4439697.6236896,11.2013422-.2401843,5.5764823-1.3118146,10.9411969-3.5543688,16.0163442-1.2262175,2.7750769-2.7631383,5.3398513-4.5945596,7.6964164-1.8628116,2.3969417-3.7477352,4.7768583-5.6904153,7.1003034-2.3032269,2.7547025-4.4841472,5.6055553-6.4914976,8.6120069-3.2500712,4.8676591-6.3857872,9.8117453-9.0933289,15.0500969-1.9278177,3.7297415-3.7226469,7.5276999-5.1434895,11.51347-1.489292,4.1777682-2.5058553,8.4785734-2.778525,12.9476067-.243491,3.9908637.3471945,7.8483636,1.8810325,11.5172844,1.1926863,2.8528763,2.7028861,5.5120333,4.3883159,8.0629457,4.2205594,6.3878519,8.4340084,12.7810532,12.6559576,19.1678817,1.6476718,2.4925803,3.3230861,4.9644373,4.9641882,7.4618554,5.4705954,8.3252307,9.3109179,17.408546,11.1686835,27.4021255.6030958,3.2442688.9386854,6.5156103.9653683,9.8341664.0507499,6.3106572-.5536128,12.5519579-1.5691468,18.7556264-.9213738,5.6284881-1.9514342,11.2346482-3.2591858,16.7781966-1.1942318,5.062332-2.9653462,9.9131985-4.800066,14.740388-2.5271536,6.6490205-5.0594843,13.2958083-7.5645805,19.9542252-2.7402837,7.2835099-4.6040346,14.8110005-5.5176754,22.6046603-.3992168,3.4054495-.7294928,6.8092245-.7080116,10.2484917.0311419,4.9862305.7587233,9.8639372,1.958034,14.6664262.5993823,2.4001281,1.5212994,4.6779635,2.6104462,6.8730455,3.0193947,6.0853763,6.6071963,11.7666145,10.7549511,17.044924,1.3395078,1.7046087,2.7053272,3.3857729,4.059509,5.0772639,3.7442565,4.6770797,5.8802538,10.12485,6.6889379,16.1631978.3798518,2.8363628.3002564,5.7003101-.0486747,8.5496511-.5942215,4.8522155-1.572489,9.6288877-2.5007274,14.4144447-1.2908604,6.6551142-2.3546431,13.3484653-3.1189559,20.0955433-.1641932,1.449464-.3717202,2.8935785-.5215071,4.3445775-.209067,2.0252956-.2767955,4.048591.0884479,6.0716073.1306348.723476.3606779,1.4934224-.1990568,2.3046291-.3572265-.0721941-.7820504-.0724732-1.1334389-.2436086-1.6736066-.8151607-2.4795055-2.351518-2.7618331-4.1819082-.1920994-1.2454412-.2710013-2.5322359-.2272361-3.7937719.2846322-8.2037055,1.3700572-16.3033065,2.8426191-24.3537856.8886837-4.8584953,1.7953453-9.7175488,2.5086569-14.6070243.9079941-6.2239034-.0981195-12.1380978-3.0428501-17.6413626-.8903111-1.6639065-2.0060015-3.1513282-3.1682531-4.6024202-1.0449911-1.3046106-2.0997029-2.600476-3.1393913-3.9098779-4.17713-5.2606797-7.6500193-11.0188102-10.6984533-17.0842773-2.3357996-4.6475415-3.7744836-9.5870691-4.4139012-14.7996504-.4870012-3.9700706-.8650262-7.951724-.6600496-11.9627759.4823265-9.4381688,2.0717885-18.6484052,5.1056524-27.5511654.6302265-1.849369,1.2999422-3.6838992,1.9744391-5.5156849,2.8505895-7.7415145,5.7014522-15.4829359,8.5687554-23.2174728,2.1324749-5.7523159,3.5729529-11.7081429,4.5803444-17.7830529.7357239-4.4366343,1.4173939-8.8857351,2.0109492-13.3462325.6795839-5.1070346.8553055-10.2565391.4693263-15.3958099-.382495-5.0928935-1.6388849-9.9945564-3.3641316-14.7558781-2.2250732-6.1408011-5.2489296-11.8187598-8.9058905-17.110443-4.7725448-6.9059329-9.4831499-13.8560335-13.9097426-21.0216001-1.5398863-2.4926966-3.2309328-4.8810094-4.7344537-7.3972435-1.1495082-1.9237959-2.1928118-3.931578-3.1435226-5.9757362-2.9735857-6.3936432-3.4793293-13.1124855-2.178157-20.0485846,1.19193-6.3537783,3.5596661-12.229922,6.3941618-17.9149513,2.2400858-4.4928033,4.7803978-8.7930969,7.5398909-12.9417455,2.8603485-4.3002935,5.6327216-8.6735254,8.823114-12.7126502,1.8040066-2.2839059,3.6890394-4.4950827,5.50938-6.7646381,1.2003209-1.4965157,2.3899818-3.0063353,3.5157097-4.5663929,3.388215-4.6954771,5.278343-10.0380496,6.0048978-15.886981.5762818-4.6391918.3080111-9.2365882-.3144716-13.8494282-.7498081-5.5564103-2.0382383-10.9516864-3.8875938-16.2005043-1.5122204-4.291967-3.5196745-8.3343713-5.5559086-12.3590294-3.3399499-6.6014687-7.0788381-12.9463391-10.9006285-19.2407038-1.6171361-2.6633551-3.1377802-5.4005209-4.575271-8.1786446-3.0202957-5.8370928-4.9687318-12.0802541-5.9256082-18.6665933-.3553724-2.4460751-.7335886-4.8936969-.9548039-7.3555412-.580293-6.4579876-.0314532-12.8084051,1.8525611-19.0008398.9435513-3.1012993,2.3034918-5.9986922,4.0062934-8.6947138,1.5965123-2.5277354,3.2669788-5.0058838,4.9797905-7.446249,3.2843614-4.6794637,7.3392422-8.5001688,11.8879832-11.7266565,4.4763761-3.1751506,9.2161133-5.8537574,14.1383604-8.1538918,2.8982622-1.3543429,5.8990127-2.3745555,9.028634-2.9850771,7.1436722-1.393574,13.8716952-.2235889,20.2399195,3.4757364,3.2509559,1.8884955,6.3467622,4.0398575,9.4221986,6.2222346,3.2252233,2.2886738,6.3697643,4.7060713,9.5895593,7.0036764,4.6622881,3.3269291,9.5503159,6.2496388,14.5786391,8.8953524,3.548793,1.8672082,7.3609746,2.9338853,11.204328,3.8589303,5.3625094,1.2907021,10.7923759,2.066463,16.2841494,2.3535299,2.1443091.1120939,4.2877881.2418642,6.4316167.3642267,3.5088287.2002665,6.8961154-.5020676,10.185572-1.7078532,2.1385422-.7839246,4.2160403-1.7584054,6.3142578-2.6649018,2.8159253-1.2165426,5.6059977-2.503849,8.4423365-3.6632225,4.1264893-1.6867114,8.1647273-3.552966,11.9496799-6.0066698,5.8717017-3.8065291,10.9319287-8.5622513,15.1205652-14.3837726,2.327212-3.2344886,4.3869616-6.6486717,6.3454843-10.1381596.3276874-.5838384.7924046-1.1332368.7329005-1.8972697.0402592-.0347888.0805184-.0695659.1207994-.1043372-.0253832.0508545-.0507882.1016974-.0761932.1525461Zm-83.6848508-32.5426348c-.2025629,1.7070857-1.2790426,2.5490575-2.6010749,3.1472521-.5483484.2481265-1.1067779.4709072-1.6557816.7174463-.9330496.419006-1.879315.8103636-2.7887399,1.2817708-1.1349899.5883331-2.1416223,1.3778746-2.9312308,2.4465054-.9268239,1.2543492-1.1195568,2.6070989-.5536238,4.1079639.7141362,1.893874,1.8162285,3.4545771,3.5141042,4.4062297,1.5245843.8545197,3.1025671,1.6230705,4.7096139,2.2845978,4.7323757,1.9480486,9.6433292,3.2822846,14.5416129,4.6529375.4557173.1275142.9168629.2329795,1.3070689.3314207.2505986-.1288923.4233112-.191469.569035-.2965214,3.8829464-2.799068,8.1169537-4.8082804,12.5796388-6.2823924,4.2672435-1.4095584,8.5459662-2.7802752,12.8270154-4.1418107,3.367725-1.0710671,6.7352644-2.1461638,10.1235013-3.1398269,4.1600641-1.2200256,8.4083795-1.8735868,12.726706-1.6607143,2.6756516.1319042,5.3548202.3989922,8.0077537.7933675,5.6643549.8420358,11.3123921,1.8081086,16.9679438,2.7175298.5232601.0841315,1.0524619.126392,1.5439821.1839973.1704953-.2251937.27596-.3644825.3883274-.512906-1.2003046-1.1779976-2.4035144-2.3097227-3.554691-3.4985413-2.6151864-2.7007198-4.9433378-5.6732896-7.2247858-8.6924781-3.8962278-5.1561012-8.1285312-9.9614568-13.0154886-14.0881466-2.2411234-1.8924756-4.3960707-3.9001733-6.6130779-5.8256293-2.8630982-2.4865389-5.6898255-5.0268731-8.6387065-7.3936574-4.938958-3.9640147-10.4450067-6.5659968-16.6311145-7.4155333-6.6999857-.9201077-13.4083924-1.3839756-20.1440282-.4922453-2.6089826.3454012-5.1684768.9404675-7.6193826,1.9857621-5.3206884,2.2692443-9.4230942,6.1070778-12.6257632,11.109688-1.5009924,2.3445536-2.4787137,4.9200094-2.9518628,7.6976767-.2114535,1.241339-.3049911,2.5153067-.3428037,3.7781742-.0687224,2.2943838.9591536,3.8731296,2.9674269,4.6977477.9436878.387488,1.9017055.742074,2.8692801,1.0553502,1.3677963.4428575,2.7607791.799124,4.1226119,1.2605737.7322015.2481003,1.479006.5443369,2.1188386.9843307,1.3276245.9129681,1.1717867,2.6313167-.2700838,3.2992051-.4819087.2232197-1.0224477.3029349-1.7222212.5008756Zm180.6917541,37.4954488c.5132335-.080509.9249563-.1253744,1.3289242-.2114422,5.2856828-1.126143,10.3417375-2.9949968,15.2364933-5.3753553,2.276402-1.1070246,4.5564302-2.2057576,6.6547788-3.6845737,3.485357-2.4562972,5.3068499-5.8703,5.4689789-10.336833.1277459-3.5187994-.2199947-6.9751558-.9885889-10.384065-1.0070692-4.4666667-3.1089566-8.211532-6.5963669-11.0039393-.1428404-.1143645-.2773798-.2404483-.4174896-.3587929-1.1164222-.9430063-1.4174813-2.1470011-.9905549-3.570436.1811335-.6039307.3741723-1.2058205.5990382-1.792447.4278657-1.116171.9089225-2.2097988,1.318155-3.3333194.3655656-1.0035509.681326-2.0289414.9882831-3.0551343.456045-1.5244636.3445294-3.0228691-.3537915-4.4340962-.5261217-1.0631854-1.0527458-2.1441577-1.7192832-3.1072884-2.4904987-3.5987095-5.8246053-5.9322168-9.8245283-7.2328211-1.7299651-.5625104-3.4856846-.8908479-5.2890905-.6411471-2.4930764.3451984-4.9964851.2986845-7.4993041.3373312-.7730068.0119374-1.552414.0307433-2.316552.1422237-4.5003339.65655-8.8952468,1.7741397-13.1732487,3.4184117-3.1376383,1.2059731-6.2576263,2.4908272-9.4553147,3.4861984-4.2851887,1.3338915-8.2173504,3.3593499-11.8855885,6.0337325-1.1789408.8595348-2.4041479,1.6513004-3.63652,2.4227208-2.3120957,1.4472428-4.6398102,2.8664679-6.9706266,4.2793929-1.7678214,1.0716428-3.4418867,2.2915579-4.9685462,3.7150858-2.465618,2.2990762-4.9305588,4.6037372-7.3049984,7.0076826-2.5092194,2.5403996-5.0246862,5.0586862-7.897527,7.1377146-.2323149.168106-.428805.392317-.8295837.7649167.6549598,0,1.0565468.0479705,1.4451363-.0074136,3.8979316-.5555329,7.7879993-1.1789047,11.6920473-1.6789837,2.8978744-.3711926,5.8080472-.7041599,8.7217588-.8486644,4.9776116-.2468531,9.6978309,1.0228466,14.2254484,3.1562648,7.6233146,3.5921331,14.6984446,8.1059505,20.9749662,14.0022359,4.7049064,4.4198592,9.2430092,8.9929331,12.9026406,14.4632408.1360031.2032843.3071756.3798738.5608543.6896002Zm-167.6073574-8.1849302c-2.5781602,2.3390632-4.8478232,4.7516636-6.9198384,7.3830326-2.2237571,2.8240882-3.6877123,6.0465638-4.6043568,9.5823709-.7301045,2.816285-.5401786,5.5187026.707004,8.1344711,2.5909064,5.4339664,6.643092,8.8518708,12.266183,10.1102205,2.1612167.4836237,4.3502958.7374078,6.5488882.9427098,3.1555616.2946608,6.3153391.3133489,9.4672636.0938128,2.9768855-.2073371,5.9064889-.769109,8.7565132-1.7727442,3.9298899-1.3838753,7.5648699-3.4081126,11.1014957-5.6565843,2.1489401-1.3662105,4.2958487-2.7364331,6.42834-4.1314142,2.3861263-1.5608834,4.768124-3.1297095,7.1285614-4.7340803,5.3092965-3.6087106,10.0401322-7.9521252,14.2152034-12.9637887,2.7282747-3.2749524,5.3383714-6.6611556,8.034513-9.9669371,1.7435959-2.1378489,3.0447778-4.5341975,3.937186-7.1904937.0902391-.2685183.3570463-.5493985-.0106601-.9265219-2.3342896.8357967-4.6493999,1.8015556-6.8612081,3.0592946-2.3646315,1.3446151-4.7412336,2.6689895-7.1489422,3.9231701-4.3378336,2.2595892-8.7238559,4.4042702-13.4291773,5.6849363-1.3849332.3769432-2.7647985.7814476-4.1614621,1.101774-3.4932646.8011998-6.9853278,1.6145173-10.4956966,2.3228986-3.4130958.6887512-6.8785525.6215344-10.3379038.6190516-5.5970634-.0040063-11.0207698-1.0303707-16.3146769-2.9371822-2.200056-.7924488-4.4259429-1.5041387-6.6443372-2.2379821-.5057409-.1673035-1.0290884-.2742748-1.6628919-.4400142Zm164.8877986,12.2342597c-.9837613.0996099-1.8687205.1895502-2.7537453.2787171-.7116023.071694-1.4223308.1569943-2.1351126.2112968-5.2353315.3988817-10.4806677.4589465-15.7256544.4668602-2.2636012.0034132-4.533166-.0439409-6.7898644-.2178789-4.6404655-.3576678-9.2259925-1.1559487-13.7857212-2.1375988-6.419493-1.3820262-12.2699839-4.0544289-17.344934-8.5293523-.7801936-.6879488-1.6070468-1.3168329-2.3758376-2.0183414-2.4605282-2.2452097-5.2158463-4.0085052-8.0686776-5.60591-2.1137051-1.1835506-4.308868-2.1707246-6.6345509-2.7904158-.3313354-.0882831-.6936899-.231049-1.0770805.1992373.0307569.2855202.0405868.6563174.1137218,1.0123687.6509404,3.1682894,1.536839,6.2627449,2.6992872,9.2595442,1.4997035,3.8663265,3.6385516,7.2794339,6.5920636,10.0634304,1.4713714,1.3868988,2.9901669,2.7211523,4.5381465,4.0103077,1.5955566,1.3287993,3.2652968,2.5560932,4.8805789,3.8587268,6.2914632,5.0737577,13.0725898,9.3051714,20.0405295,13.2127351,2.3835487,1.3366839,4.9093479,2.2937907,7.5372477,2.9223143,2.4401911.5836232,4.8842924,1.152396,7.3372625,1.6710119,3.680602.7781565,7.3645898,1.541544,11.0583203,2.2445875,2.5876843.4925317,5.1910311.760329,7.8203071.2416549,2.4264292-.4786348,4.7382409-1.2621291,6.8249464-2.6905559,2.0170001-1.3806889,3.1844507-3.3606306,3.611399-5.8686079.3370587-1.9799534.2068225-3.9210535-.3363596-5.8331156-1.2649858-4.4528919-3.0094555-8.6854686-5.2109313-12.7033701-.2074997-.378705-.4676225-.7247436-.8153412-1.2576461Zm-75.6071296-25.2086658c.3630098.2407536.5435535.4071966.7532158.4923863,2.3566146.9574382,4.4891714,2.3434939,6.5582485,3.8543019,2.8096668,2.0516067,5.384747,4.4021828,7.8626415,6.8867331,1.3872269,1.3909516,2.8152809,2.7448119,4.3034942,4.0106507,3.2535663,2.7673958,6.9276368,4.6774053,10.9315792,5.8955586,2.8747849.8746208,5.8161078,1.3677107,8.7643772,1.8179992,3.1274806.4776637,6.2688324.785012,9.4324436.891111,5.0749501.1701992,10.1319878-.1756417,15.1857925-.5293904,2.9101291-.2037029,5.804705-.6615389,8.7050479-1.0165436.2720717-.033306.5351653-.1499121.7488906-.2122213.1177849-.563935-.1622818-.8418323-.3831503-1.1219333-.9195607-1.1661707-1.7894473-2.388621-2.8006451-3.4585485-2.1128532-2.2356098-4.2723223-4.4240806-6.4682497-6.5673486-6.5002735-6.3444226-14.0348563-10.9041055-22.1821081-14.361241-3.2982599-1.3995514-6.759457-2.1215215-10.3147378-1.9611722-2.4966151.112594-4.9896915.4317691-7.4714962.7668762-2.9548445.3989747-5.8934369.9323714-8.8435193,1.3738683-4.4280727.6626844-8.8343447,1.4389453-13.1538072,2.6972136-.4895542.1426089-.9697809.3215184-1.6280174.5416999Zm-83.9061233,8.8029119c1.5936016.6522181,2.9312635,1.171055,4.2482389,1.7438398,4.7187121,2.0522696,9.5980458,3.4164682,14.6773866,3.9398638,3.8064474.3922298,7.6031413.4749018,11.4125267-.0793519,3.4893326-.5076903,6.9145302-1.333922,10.3520262-2.1070024,7.6462512-1.7196104,14.5447694-5.1744491,20.7741072-10.1784955.6654451-.5345596,1.3515113-1.0434594,2.0530652-1.5226698.6935151-.4737156,1.418792-.8947161,2.378874-1.4941376-1.5004899-.2418293-2.7260903-.4537018-3.9556881-.6349603-4.5433018-.6697666-9.0814483-1.3871838-13.634995-1.9668356-2.0651451-.262884-4.1627946-.3522893-6.2439954-.3311648-3.8324204.0388822-7.5856112.7640329-11.2793853,1.8288202-5.1166728,1.4749784-10.24145,2.9205582-15.3389107,4.467754-3.0911971.9382442-6.1563994,1.9855063-9.1972125,3.0958162-2.0792347.7591951-4.0722825,1.7632373-6.2460378,3.2385239Zm74.0884324-13.0454839c.012211.0338642.0160993.0864224.0384243.0977028.0460698.0233107.1019695.0246539.1538062.0350388-.014461-.0607451-.0289219-.1214845-.0433829-.1822238-.0496086.0164902-.099239.0329862-.1488476.0494823Z" stroke-width="0"/>
  </g>
</svg>