<?xml version="1.0" encoding="UTF-8"?>
<svg id="Layer_2" data-name="Layer 2" xmlns="http://www.w3.org/2000/svg" viewBox="0 0 428.2384013 648.7148913">
  <g id="Layer_1-2" data-name="Layer 1">
    <g>
      <path d="m332.7607365,22.6538081c.6871298.0439052,1.2732188.1109198,1.8596351.1143079,6.9693069.0402965,13.9395737.043519,20.8972539-.4439464,2.0152318-.1411915,4.0339101-.4176202,6.0170323-.8212759,1.3895728-.2828505,2.7560232-.7961922,4.0728257-1.3641229,4.2429721-1.8299391,7.9898583-4.4526766,11.2248655-7.9404645,1.7968772-1.9373257,3.7765091-3.6827453,5.4435515-5.7628869.6184168-.7716572,1.2347396-1.5452465,1.8567775-2.3135549.3108881-.3839415.6436334-.7481485.9474102-1.1381548,1.3806729-1.7726618,3.1424301-2.4155895,5.2570012-2.0366981.2345839.0420253.4733561.0571351.7082454.0974069.1163104.0199407.228258.068745.342038.1050234,1.6725394,1.3935018,1.9492237,2.3182886,1.296734,4.482626-1.152284,1.265215-2.5470485.9001022-4.0190332.4879474-.2497226.2981199-.5277593.6191417-.7946275.9503857-1.8234026,2.2630827-3.6709311,4.4979129-5.7994193,6.4540862-.9454906.8689581-1.7893297,1.8622721-2.7206851,2.7499501-4.3352002,4.1320409-9.3292598,6.9908698-14.955915,8.5388526-1.6633777.4576176-3.3889243.7183225-5.101819.8981876-2.3683511.2486856-4.7497467.4044309-7.1289174.4770458-4.8219281.1471721-9.6457758.2533075-14.4694271.2913888-2.1392424.0168879-4.2799244-.1721978-6.4199085-.2686335-.4735742-.0213386-.9469958-.0462451-1.4189994-.0694388-.6729073.56834-1.3074226,1.1420858-1.9776033,1.663931-3.4197033,2.6628917-7.235368,4.3649621-11.3856975,5.2109587-3.1604264.6442182-6.3592011.9403392-9.5658069,1.2259187-4.9550131.44129-9.8703472.0446658-14.8005801-.3698479-4.158946-.3496707-8.2912138-.8961321-12.3986578-1.6387428-3.5182792-.6360921-7.0196528-1.392461-10.4449623-2.4801959-4.732274-1.5027683-9.4355358-3.1027765-14.0089629-5.0993276-1.7605575-.7685682-3.5117787-1.5664501-5.2377616-2.4186857-5.589463-2.7598965-11.4370469-4.6289214-17.4587036-5.9708783-3.9172071-.8729733-7.856577-1.4091864-11.851986-1.5844035-3.047977-.1336635-6.0694068.0834933-9.0814786.5389189-.2188345.0330849-.4235555.1858167-.6286911.2959207-.0395045.0212137-.0501496.1033221-.0735338.1560269,1.17148.9710841,2.3699435,1.9073153,3.5065871,2.9220607,1.2665875,1.1307604,2.1385007,2.5559318,2.4248702,4.3185021.214908,1.3226506.1851542,2.6536914-.0383484,3.9758194-.5620504,3.3244275-2.231056,5.8019815-4.9731185,7.5086941-2.506017,1.559793-5.1508342,2.1399462-8.0489297,1.7880778-3.1116947-.3778056-6.070672-1.1660082-8.8466765-2.7502491-2.3321186-1.3309218-4.1066587-3.2658756-5.4440751-5.6291537-1.6690274-2.9492405-.9535835-6.9857689,1.5523899-9.3543018,1.1667246-1.102727,2.4986658-1.9409576,3.9530033-2.5470596.83062-.3461607,1.671536-.6642706,2.5049699-1.0030252.2604549-.1058683.5115082-.2379147.947912-.4430929-.3323527-.2358912-.4963477-.398279-.690271-.4832384-4.8613017-2.1295672-9.8525909-3.8151343-15.0904616-4.4358104-4.4991516-.5331387-9.032965-.8669593-13.5536685-.4244195-4.7398979.4639988-9.470983,1.103598-14.0368407,2.649251-2.6840709.9086217-5.2179766,2.1460255-7.3551249,4.1585268-1.3369583,1.2589833-2.6628789,2.531452-3.9829753,3.8104616-.57239.5545759-1.120556,1.1377136-1.6747971,1.7132535-3.0273413,3.1436769-6.8136884,4.8133707-10.7273945,6.2079714-4.125342,1.470026-8.3556841,2.5345207-12.6411928,3.2898735-2.4609936.4337678-4.9635095.6534068-7.4561548.8156843-2.4350899.1585295-4.8816211.1668123-7.3227316.1540643-1.5425519-.0080535-3.0843622-.1755974-4.6229113-.3656673-.1172483.0186966-.2456216.0106606-.3501635.0599279-4.7515573,2.239108-9.6906246,3.840713-14.767467,4.9967139-3.5478694.8078573-7.091507,1.620139-10.6801515,2.2155805-3.4202487.5675126-6.7704265.2255732-10.0949787-.6166987-4.5143066-1.1437-8.9692474-2.511118-13.3645769-4.1036098-2.3800814-.8623359-4.6156419-2.0209467-6.7720898-3.3828428-1.6819575-1.0622361-3.3932707-2.0717847-5.0192979-3.0608078-.643508.2188203-.796029.7256705-.9787237,1.179392-.7096142,1.7623206-1.1468088,3.6011783-1.2126205,5.5209397-.0999283,2.9149189-.1204986,5.8337193-.2642941,8.7458598-.0998411,2.0220064-.2857969,4.0451973-.5499765,6.0504348-.3083304,2.3403834-1.0712681,4.5522246-2.110203,6.6326841-1.4774655,2.9586034-3.9172999,4.7006131-6.8017509,5.8096721-1.8074868.6949749-3.7073735.9276087-5.6067939,1.0727689-1.2030553.0919329-2.3400888.399028-3.4808879.7734079-1.489163.488708-2.6683569,1.3970742-3.4824639,2.8022774-2.3309052,4.0233246-3.4772177,8.325769-2.4953938,13.0550658.3587472,1.7280279.8150778,3.4428405,1.3563097,5.1162301,1.3365057,4.1322586,2.7514532,8.2357058,4.1279979,12.3533323,1.0418688,3.1165203,2.4202757,6.0600444,3.9932822,8.9065319,2.2640628,4.0969905,4.6129752,8.1447891,6.7588734,12.3109687,3.3897559,6.5810999,6.1342861,13.4594067,7.5704256,20.8467498,1.0982025,5.6489971,1.9660475,11.3316482,2.1074435,17.1283139.1094881,4.4884702-.4368891,8.8461336-1.6738264,13.1220428-.0696837.2408963-.1356972.4829887-.2200888.7839697.1522483.309168.2953731.6549629.4825451.9712032,1.5979313,2.6999917,2.7308993,5.6251096,3.6779278,8.6369055.6847303,2.1775891.9962455,4.4429247,1.1360928,6.7185493.1547515,2.518286-.5430398,4.8713912-1.4560881,7.1768375-1.4005505,3.5364049-3.4221247,6.6595329-5.5086271,9.752096-1.979801,2.9344197-3.9391653,5.8851902-5.8618091,8.862229-.7740054,1.1984892-1.5133953,2.4401782-2.1180204,3.7414873-1.952024,4.2013317-3.9869863,8.3776493-5.1961684,12.9103643-.844698,3.1664206-1.5089126,6.3869569-2.2836596,9.5750702-.7335329,3.0185429-.9370569,6.1221614-1.3710367,9.1892924-.7825291,5.5304883-.984248,11.1019699-1.0861505,16.6794204-.1265382,6.9260006,1.3949144,13.4396301,4.4397121,19.5565657,1.2848346,2.5812042,2.6386467,5.1140991,4.4667529,7.3174687.3852999.4644198.8065077.8950928,1.2432387,1.3766763.2819768-.2094488.484931-.3328234.6571061-.493568.4027781-.3760695.7663134-.8037463,1.1886582-1.1514341,3.5403628-2.9146314,4.445291-3.040886,8.9330613-2.6665352.4680881.0390191.9375668.1907754,1.384872.3562116,1.3716475.5073872,1.9697449,1.6830689,1.5561745,3.1473755-.2926846,1.0362814-.7208919,2.0341941-1.4650862,2.7978762-.941586.9662561-1.9004538,1.9218981-2.9197182,2.7920001-1.8177529,1.5518208-3.901504,2.0871021-6.2040788,1.6266074-.4064182-.0813129-.823446-.1024483-1.2232083-.1499215-.6344253.4099092-.8197023,1.1064693-1.0917729,1.724666-1.2394813,2.816387-2.2223905,5.7378932-3.0943937,8.7031798-1.0364754,3.5245599-1.6041155,7.1432997-1.8856451,10.8160159-.208154,2.7154716-.3854389,5.4336374-.5786124,8.1504329-.1361417,1.9146982.1447799,3.8032443.4053466,5.6787608.8635559,6.2158071,2.2528124,12.3025494,4.0087154,18.3038214,1.9111153,6.5317455,3.7625484,13.0840224,5.5685737,19.6496308,1.6560101,6.0202705,3.1279022,12.0896865,4.0667724,18.2964589.8901222,5.8846328,1.6323478,11.7777662,1.9407164,17.7389043.3188991,6.1646411-.5652188,12.1537892-2.1780216,18.0125022-1.2133295,4.4077147-3.2168692,8.4504152-6.1026372,11.9351431-.2356719.2846069-.4685516.5719545-.6982248.8620427-.0366224.0462655-.0493506.1139914-.0956965.2266822.032216.1318287.0424739.3287821.1236697.4835113,2.2347861,4.2589312,3.4092519,8.8984377,4.3223111,13.631079.5885212,3.050455.8092535,6.1495444.9894451,9.2479371.1655656,2.8469519.2595115,5.699478.3398021,8.5509822.1352991,4.8049195-.5477679,9.4804721-2.1450884,13.9814145-2.4606828,6.9336883-4.9223963,13.8675624-7.4635387,20.7679916-.7800041,2.1181315-1.7928717,4.1422456-2.7493891,6.1827571-1.5700971,3.3493689-3.0337518,6.7472329-4.1038229,10.3168273-1.0328325,3.4453372-1.8268083,6.956403-2.1090986,10.5713338-.172475,2.2086186-.2980753,4.424019-.3629763,6.6390479-.1101644,3.7599981.7099742,7.2901554,2.4816293,10.5581416.2677979.4940093.5337608.9894121.7880397,1.4913645,1.6319579,3.2213956,4.0658835,5.5888776,6.9828096,7.442051,1.0734358.6819511,2.1325429,1.3928878,3.2310944,2.0258793,2.6487737,1.5260636,4.9229034,3.5724743,7.0222541,5.8260578,2.3360669,2.5077183,3.9953273,5.4624372,5.0192543,8.864807,1.9211114,6.3837053,2.3436035,12.9200959,1.964875,19.5449761-.2038812,3.5663892-.991392,7.0090787-2.3767657,10.280874-.0971416.2293764-.1691485.4707836-.2764225.7730885,1.7931198,2.5195169,3.0783252,5.2307847,2.4472456,8.3598817-.6206037.9592187-1.3619186,1.1716869-2.1593818,1.1442806-.8903894-.0305185-1.8135265-.056206-2.4237141-1.082454-.3833748-1.0872849.118579-2.4696747-.7446742-3.6215733-.182602.1214236-.3988461.2198539-.5599072.3809004-.4774134.4772868-.9505678.9620987-1.3942628,1.4745491-2.4889151,2.874544-5.6491724,4.3374339-9.1909913,5.0538518-1.4869571.3006791-2.9503255.3292466-4.4327999.021925-1.6579461-.343693-2.9697206-1.2371832-3.9645346-2.6858589-1.4698389-2.1403817-2.4086382-4.5071668-2.718182-7.1451345-.1030695-.8783006-.1948368-1.75832-.2784403-2.6389896-.1363026-1.4359481.2606812-2.7608777.7843996-4.051387.5501074-1.3555874,1.5012369-2.2631524,2.8066445-2.7488933.9590451-.3568851,1.9397729-.5825454,2.9612214-.6436288,3.6434541-.2177636,7.0907571.6833911,10.4508765,2.0605319,1.495429.6128781,2.9633673,1.3017504,4.5402376,1.9987982.1705064-.4479761.3581473-.8278546.4623457-1.2321664,1.115468-4.3279114,1.3450784-8.7323744.9638577-13.1847752-.1457697-1.7025784-.2892326-3.405993-.4746758-5.1039728-.2836483-2.5970906-.9906067-5.0951935-1.852911-7.5200892-.8721041-2.4525342-2.3162274-4.5469291-4.0733819-6.4093928-2.5193588-2.6704836-5.479435-4.6613386-8.5559033-6.4838078-1.7258493-1.022346-3.3184935-2.2365358-4.7975077-3.6245927-.3125405-.2933398-.6426-.5735338-.9154996-.9055211-3.4391666-4.1834479-5.9105299-8.8715424-6.6644667-14.4635322-.2893116-2.1459094-.3571357-4.2775582-.0870528-6.4381462.2192408-1.7538142.2121568-3.5392617.4196209-5.295352.5141422-4.3519267,1.4794423-8.5961793,2.9760574-12.6865853,1.1019354-3.0117146,2.3411113-5.9592336,3.7472107-8.8306189,1.6519992-3.37357,3.0462156-6.8773894,4.3148317-10.432398,1.8808134-5.2705935,3.7094867-10.5622758,5.5682465-15.8418344.9887144-2.808258,1.5193395-5.7074212,1.7759225-8.6954457.1529191-1.7808024.1841672-3.5338733.026719-5.3068255-.0783055-.8817845-.0555594-1.7737418-.077782-2.6611004-.1111323-4.4377222-.3296287-8.8689412-1.1252569-13.2362897-.6008814-3.2984118-1.3679473-6.5571079-2.6188944-9.6587986-.2288388-.5674487-.3643833-1.2092659-.890144-1.6319725-.1627434.0422707-.3551125.0459403-.4992544.1366132-2.1117245,1.3277167-4.4242272,2.1805156-6.6643822,3.2031403-1.8395611.8397461-3.7398022,1.1824636-5.7532726.9158333-1.4482624-.1917508-2.4701908-.9162049-2.9864407-2.338775-.2745002-.7564589-.4974561-1.5814335-.5255289-2.3841579-.1690626-4.8339515,2.5052917-8.7668413,6.7202878-9.9874413,1.6761987-.4854622,3.3725504-.7042477,5.1233708-.4093286,1.7024487.2867901,3.1799932,1.0072029,4.4664584,2.2099192.396144.370356.8047272.7256618,1.2210324,1.0998732.7824991-.6608622,1.2170296-1.4995864,1.6688802-2.3102075,2.1154191-3.7951617,3.6393749-7.8284327,4.272216-12.2138972.3250642-2.2526544.7321341-4.495554.961341-6.7589851.1458733-1.4405933.0635431-2.9116586.0273598-4.3674879-.0298792-1.2023447-.1531809-2.401763-.2159169-3.6035967-.191731-3.6732272-.5790269-7.3243435-1.1688433-10.9470781-.619682-3.8061242-1.1863542-7.6286922-1.9873812-11.3931032-1.1830712-5.559892-2.7164069-11.0260221-4.2169239-16.4995611-1.9669582-7.1750491-4.2896097-14.2376629-5.9883364-21.4970211-1.022501-4.3695782-1.8284879-8.7891379-2.2729873-13.2625579-.2116932-2.1304411-.103822-4.3087734-.0075721-6.4586544.0932751-2.0834789.3887955-4.1556933.5400704-6.2374302.3936845-5.4175421,1.6770821-10.6023632,3.5160815-15.6505248.8183689-2.2464299,1.6370323-4.4901192,2.7875603-6.5765477.086243-.1564014.1099435-.3518916.156183-.5072479-.0464931-.0844716-.0653373-.1534982-.1083375-.1918437-4.1707035-3.7182617-6.8367536-8.5692143-9.0428766-13.7427711-2.57921-6.0485129-3.7149047-12.4036506-3.404941-19.0515475.1003509-2.1522732.08756-4.3103296.1454316-6.4651576.0782974-2.9152818.3953614-5.8085224.7522654-8.6969553.178302-1.4429855.3728661-2.8837181.5598827-4.3254959.1464377-1.1289052.2283589-2.2723962.4501273-3.3842538.9020842-4.5227744,1.8321172-9.0400909,3.1642901-13.4485255.821461-2.7183981,1.8036858-5.3664689,3.0276631-7.9126489,1.0297158-2.1420075,2.0015655-4.3156018,3.0370675-6.4543576.3805336-.7859787.8386828-1.53547,1.3151992-2.2616195,2.6939088-4.1050149,5.3789531-8.2171137,8.1188342-12.287267,1.5063822-2.2377668,2.5660291-4.7131085,3.5460452-7.2268887.3808008-.9767541.5897046-2.0711693.6728855-3.1301653.2732377-3.4786196-.8972988-8.4555945-2.6986478-11.7707869-.1921946.2593607-.3784177.4692043-.5205826.7086954-2.3890659,4.0245381-5.7393309,6.9062356-9.6240494,9.1371044-1.3693679.7863968-2.8421653,1.290695-4.3875448,1.540417-1.3805583.223059-2.7426078.0601079-4.0649264-.3324285-1.8788938-.5578101-3.209747-1.8728688-4.1230243-3.6859316-.934971-1.8560883-1.5822677-3.8148106-1.9579669-5.8880702-.557385-3.075829-.7295819-6.1525754-.2358314-9.2557177.5128633-3.2232537,2.1797421-5.5646648,4.8228742-7.1473874,1.4190976-.8497912,2.9808728-1.3216896,4.5730153-1.5394416,2.7435158-.3752218,5.4697034-.2224087,8.1017923.8131063,1.2377826.4869719,2.3837324,1.1510277,3.4053418,2.0464456.82163.7201108,1.6396854,1.4448552,2.5797907,2.2737665.1640931-.6572855.3501417-1.1738468.4167006-1.7073281.3531138-2.8304617.5760438-5.664268.2634488-8.5241798-.2062317-1.8866648-.2855406-3.7888908-.484721-5.676624-1.1659557-11.0502232-4.3686814-21.3801729-9.6982594-30.954256-2.1246518-3.8167384-4.2713653-7.6203194-6.3414148-11.470491-1.3302806-2.4742386-2.5380776-5.0228572-3.4254867-7.7261934-.9618645-2.9301462-1.9171113-5.8628123-2.8942181-8.7871985-.458621-1.3726002-.9891261-2.7182006-1.4386031-4.0939828-.7627659-2.3347106-1.4559572-4.6890932-1.7511463-7.1586692-.2346289-1.9629146-.3207437-3.9192215.1195783-5.8549272.6601777-2.9022173,1.4746842-5.73841,3.0935116-8.2442122,1.1880638-1.8390348,2.7439302-3.1320757,4.6824026-3.9520567,2.069286-.8753278,4.2284306-1.2704655,6.4299182-1.4968225.8860594-.0911084,1.7860358-.1880289,2.6408499-.4347897,2.6613956-.7682808,4.6811755-2.3704955,5.8279761-5.1440428.8483408-2.0517236,1.3318866-4.1766312,1.6497796-6.3846459.4632509-3.2176505.257232-6.4533299.3901425-9.6782907.0888497-2.1558296.2268401-4.2961271.610733-6.4162066.0418468-.2310893.0056443-.4782013.0056443-.8751884-.6066184.2105259-1.0946769.3786766-1.581991.5492398-2.2064938.7722988-4.446188,1.3724725-6.7421315,1.7937623-2.4002045.440419-4.7500576.2103197-7.0993626-.2390324-2.946699-.5636194-5.7375286-1.6749109-8.4321654-3.0263961-1.9469578-.976487-3.6473614-2.3931579-5.2845737-3.8697015-.538373-.4855377-.987276-1.1007035-1.4113565-1.7085852C.2130491,22.6649418-.0171189,21.7054821.000985,20.6448109c.0995261-5.831118,4.769274-10.3118555,8.4058923-11.0237663,2.2578854-.44201,4.4769521-.1975689,6.6865544.5610762,3.2406951,1.1126618,5.9811406,3.0795625,8.5735069,5.3350765,1.9426714,1.6902456,4.0140297,3.1742012,6.2012703,4.4734461.5444495.3234112,1.0963075.7049503,1.7579971.7062742.0496969-.1809103.1329869-.3128406.1044928-.406016-.4253743-1.3908149-.6208872-2.8233344-.8347291-4.2652805-.204023-1.3756979-.0246603-2.6584614.338286-3.9303436.4716519-1.6528132,1.2266385-3.1576079,2.3483998-4.4350353,1.100782-1.2535354,2.2777863-2.4067695,3.5835075-3.4230551,1.8805544-1.4636941,3.9728647-2.208742,6.2779235-2.4769603,1.7479437-.2033912,3.4450781-.1183274,5.1184301.4227675.4487939.1451239.9270963.3251168,1.2836839.6317213,1.7270572,1.4849746,3.6127596,4.79703,2.2611261,7.9611759-1.1093875,2.5970601-2.6746856,4.8056351-4.7869554,6.5281847-1.79234,1.4616415-3.5968901,2.921692-5.6430809,3.9938803-.6847303.3587954-1.3062774.8542766-1.8850261,1.2395638-.0791017.5401383.2254495.6958052.4513898.8655265.8753489.6575497,1.7393655,1.3403921,2.6595469,1.9203884,1.8944333,1.1940706,3.8206545,2.3311048,5.7367433,3.4860605,2.453517,1.4788981,5.1359028,2.3532127,7.8065964,3.2179757,2.9569323.9574449,5.9792238,1.6849647,8.9409769,2.6269471,2.9943754.9523556,5.9776205.9479717,8.9986958.261689,3.3737965-.7664053,6.7724824-1.4237082,10.1190337-2.3060763,2.5933479-.6837714,5.1242216-1.6371054,7.6796247-2.4817317.2654284-.0877261.5088033-.2510894.8514193-.4243846-.3142365-.5679103-.7740245-.7281382-1.1751338-.9481662-1.3785678-.7561831-2.7071824-1.5906686-3.9396752-2.6015992-1.5742908-1.2912873-2.5673461-2.9587079-3.0345507-5.008167-.4534621-1.9891799-.1259302-3.812459,1.1433404-5.3365572,2.5270999-3.034438,5.5599819-5.1402294,9.4688671-5.5267577,1.6843733-.1665612,3.3381421.0327235,4.9470839.5281698,1.7132982.5275805,3.0883432,1.6299185,4.1186562,3.1779013,1.1452818,1.7207002,2.0187329,3.5804959,2.4365733,5.6647557.546759,2.7273719.0399299,5.1560388-1.7400963,7.2444531-.3520504.4130389-.700218.8298229-1.2019209,1.424855.534936.0409787.8580725.0949493,1.1796383.0858884,3.5723225-.1007093,7.1550283-.1634562,10.6880208-.7523858,2.6990678-.4499154,5.3762455-1.0891662,8.0324822-1.778233,2.5408425-.6591319,5.042235-1.482083,7.4885044-2.4924329,2.8789976-1.1890654,5.3925512-2.9271762,7.5327316-5.3010219,1.5682484-1.7394549,3.2662553-3.3273568,5.0224391-4.8555426,2.390132-2.0798223,5.0985033-3.4983192,7.9878406-4.5330765,3.90762-1.3994389,7.9562871-2.1332064,12.0398888-2.6576035,2.7786439-.3568212,5.5598946-.7346486,8.3640387-.6779955,4.2277026.0854137,8.456125.2476085,12.6572585.7858162,5.1116133.6548526,10.0065298,2.2291733,14.7959119,4.1887506,1.6644684.6810264,3.2938168,1.4593654,5.0862222,2.2588295.5127734-.0744643,1.1618166-.1400477,1.8003892-.2659858,5.1710337-1.0198507,10.3636628-1.5490802,15.6348211-1.1271532,3.5048202.280541,7.0024855.5477635,10.4593811,1.2661441,5.3214606,1.1058567,10.5776111,2.4673812,15.6430667,4.5542016,1.9403892.7993886,3.8501956,1.6900627,5.7442526,2.6085321,6.2977302,3.0539069,12.8322476,5.4030376,19.4957709,7.3344089,4.3654339,1.2652891,8.8182315,2.1340904,13.319739,2.6723997,3.0167181.3607493,6.0310802.7782388,9.0574618,1.0039484,4.0414795.3014194,8.0871908.3193757,12.1315933-.1509957,2.6059889-.30308,5.2101455-.5828851,7.756256-1.2651584,3.0343435-.813115,5.8084066-2.2138473,8.2953802-4.2208034-.0821284-.5305316-.4804673-.5552175-.7676876-.6969375-1.0794264-.532619-2.1648734-1.0518716-3.2552066-1.5587827-2.4237141-1.1268236-4.5673628-2.7140781-6.6007218-4.4922705-2.5003455-2.1865455-3.6542655-5.1217113-4.014845-8.4295992-.1698847-1.5583574.3431286-2.9715067,1.4146149-4.150003,1.9552006-2.1505559,4.3175093-3.5692111,6.952445-4.4940313,1.9300713-.6774076,3.9410931-.9823384,5.9599023-1.1556989,1.3147084-.112894,2.6081921.1560226,3.878008.529948.9387938.2764388,1.7369769.7995019,2.4600775,1.4874844,2.0871732,1.9858934,3.2264781,4.5248227,3.7616104,7.3901083.2781894,1.4893686.4569741,3.0023735.6247864,4.5117437.1491181,1.3409669-.088258,2.6658762-.4287908,3.9436316-.403487,1.5138818-.9319444,2.9900044-1.4959798,4.7648814ZM29.601259,170.2850284c-1.207857-2.1621092-4.4116652-5.4328361-6.3543367-6.5314087-2.3965016-1.3552158-4.8275069-1.2891041-7.2095406-.0751001-1.7649202.899494-2.8446929,2.5042577-3.2052234,4.5469291-.6634838,3.7591388-.2371361,7.4458716.894095,11.0460193.2624618.8352519.6426927,1.6376744,1.0410262,2.4131087.4975202.9685438,1.1997996,1.7216583,2.2104776,1.981948,5.3881749-1.7471484,10.536705-7.1015168,12.6235019-13.3814963Zm3.7451875-145.6437708c-.6327211-.0391381-.8657672-.074354-1.0971391-.0646486-2.3265998.0976261-4.4747203-.5321196-6.4489424-1.8240979-1.3155073-.8608988-2.638933-1.7154483-3.899489-2.6623691-1.6984704-1.2758858-3.3813713-2.5835007-4.9940923-3.9782523-1.6166202-1.3981281-3.5652985-1.9844273-5.4375909-2.7673374-.6321158-.2643252-1.2918559-.2156471-1.8859314.1887373-2.6665641,1.8151095-4.354433,4.2347214-4.285491,7.8377142.4306532.5188404.8020427,1.1122292,1.2993011,1.5395896,1.944951,1.671578,3.939547,3.270335,6.3528997,4.1370692,1.0125458.3636496,2.0070844.7844807,3.0212526,1.1425793,2.3061031.8142763,4.6391352.9353341,7.0295208.4016932,2.7471832-.613299,5.3746068-1.5924947,7.95536-2.734325.6974504-.3085787,1.4448568-.5203558,2.390342-1.2163527Zm170.7739455-7.705961c-2.5377122.7121677-5.0862004,1.5298639-7.4665926,2.8614883-.2616765.1463941-.4945371.3503877-.744587.5213081-2.3018195,1.5732987-2.5753408,4.8393108-.9621999,6.962732,2.7003111,3.55455,6.2294099,5.1359486,10.3868725,5.4105453.5205608.0343797,1.0927109-.0289566,1.5735709-.2298409,2.8793575-1.2028557,4.8065276-3.1447249,5.0422459-7.2989579.0967217-1.7048168-.4961295-3.0551088-1.7146616-4.1735857-1.8196725-1.6702658-3.869937-2.9173576-6.1146483-4.0536892Zm123.4604545,4.2572735c.1313181-.184217.3457681-.4078741.474534-.6778518,1.0406636-2.1819294,1.7195915-4.4710742,1.4336146-6.9456466-.1882081-1.6285729-.4363383-3.2645097-.8349173-4.8465209-.5219569-2.0717688-1.5951228-3.7987124-3.493019-5.0543584-4.0186406-.0397754-7.5705128,1.2563966-10.2638218,4.6508812-.0305827.4515267-.1021969.7718387-.0650265,1.0771397.282923,2.3247308,1.0383513,4.4101287,2.739423,6.0075356,2.8542718,2.6803922,6.1927412,4.4400534,9.7331612,5.8169736.0488844.0190102.1141944-.0098535.2760517-.0281524ZM33.899466,606.082863c-.636713-.9597297-1.4807048-1.4362733-2.3529997-1.83882-1.4160955-.6535694-2.8315311-1.3229786-4.2889307-1.8566108-1.2873377-.4713875-2.6190035-.8335681-3.9547675-1.1178963-1.0425368-.2218977-2.1292599-.3159151-3.1425473.4148098-.7903029,1.2369044-1.0227082,2.6275626-.7935422,4.1258019.085913.5617352.1707845,1.1237491.2487055,1.6868315.2652594,1.9168117.9688094,3.6374597,2.0189047,5.211972.4230402.6343386.9032458,1.170572,1.7153242,1.4362733,1.3246963.0734395,2.5942423-.4782158,3.8383617-1.0707018,2.2320185-1.0628515,5.4716911-4.4504034,6.7114915-6.9916595ZM98.1223058,27.1048588c1.4701415-.9076462,2.605509-1.9659107,3.2481608-2.9706256.5157182-.8062634.8364879-1.6831995.7398643-2.6737671-.2413462-2.4742792-1.1772715-4.6288314-2.7813815-6.4224456-.7127063-.7969064-1.6334494-1.3087907-2.7074769-1.2255355-.9470285.0734133-1.8709454.2862385-2.7138792.8304123-1.0224274.6600551-1.9749747,1.4040797-2.8240163,2.2999998-1.3394996,1.4134425-1.5727093,2.6503411-.7263289,4.4473463.2866531.6086307.6779354,1.2140591,1.1545744,1.6593613,1.9408909,1.8133037,4.2298185,2.9953028,6.6104834,4.055254ZM46.0361855,5.3239247c-1.6162384-.260355-2.9963932-.004529-4.261661.8050325-1.6447979,1.0523956-3.0794432,2.3849447-4.2484528,4.0024404-2.0317993,2.811302-1.8581136,5.8263524-.7093525,8.9682003.2690059-.0842597.4430297-.1112827.5931894-.189948,2.0335171-1.0652786,3.879235-2.4485075,5.6923634-3.8778189,1.5972605-1.259143,2.8218513-2.8709353,3.8179987-4.7021925.7309425-1.3437162.8289621-2.6098037-.1139817-3.8750724-.2556777-.3430789-.484252-.709054-.7701035-1.1306414Zm-28.2715094,429.2749207c-1.1233591.138657-2.16835.3922345-3.0036544,1.1685746-1.6819956,1.5631782-2.3859356,3.5704305-2.1940219,5.9214687.0268199.3285498.28406.635825.4755293,1.039022,1.7825947-.7875348,3.4939979-1.4933155,5.1623218-2.3000347.9672988-.4678107,1.8740539-1.0825004,2.7892672-1.6645813.2774805-.1765148.4922167-.4648379.8031239-.7675608-1.2133049-1.4741775-2.2994609-2.8865284-4.0325659-3.3968885Zm12.1597084-139.5495121c.593612.2227571.9265428.1187062,1.203467-.1392145.9766242-.9097017,1.9454336-1.8291814,2.9030253-2.7614816.1763033-.1716607.2503443-.4199427-.0328077-.6545216-1.5561364.7973128-2.8241363,1.9843054-4.0736846,3.5552177Z" stroke-width="0"/>
      <path d="m408.5157961,637.6493816c-.0137862.600522-.0249112,1.0902578-.0363415,1.5799935-.0290994,1.2482386-.4331754,2.3435131-1.14526,3.3324142-.9204486,1.2782925-2.0787531,2.2517718-3.3381421,3.1194816-1.9159797,1.3200522-3.9344399,2.3449531-6.2000487,2.8037987-1.4268742.2888805-2.8554062.2846534-4.2688867.1024715-2.3664315-.3050455-3.8972695-1.8219117-4.6224859-4.1796854-.8462822-2.7518197-.5131442-5.3700921,1.0443937-7.7961026,1.2367028-1.9261949,2.9016075-3.3503444,4.6940783-4.6158163,1.236441-.8729123,2.5378867-1.6414021,3.9155929-2.5240227-.2000748-.319817-.3377189-.6570532-.5686381-.8890309-1.136011-1.1414935-2.4458332-2.0021891-3.8699588-2.6873918-2.789049-1.3418379-5.7334549-2.0886814-8.7289483-2.6483263-.8201058-.1532427-1.6428729-.300261-2.4696537-.4011067-3.3335176-.4064486-6.6546015-.1136198-9.9718461.2485608-5.3597871.5851467-10.5250402,2.0531926-15.580876,3.9793875-1.4536177.5537921-2.859289,1.2514901-4.2808842,1.8982312-.2642069.1201694-.4995761.3121061-.8023931.5055292.2053537.6536623.4113617,1.2358825.5711685,1.832131.4368401,1.6298822.467161,3.258278-.1683577,4.8405011-.8513429,2.1196179-2.3781018,3.2732353-4.5386779,3.429776-.5913243.042921-1.2060764.0659144-1.7814986-.0555093-1.5731128-.3318943-3.1385909-.7146528-4.6906317-1.1446058-.505553-.1400506-1.0025333-.425122-1.4307788-.7518603-1.5965189-1.2184633-1.8656338-3.1718786-.6654252-4.8200626.3612776-.4961925.7953691-.9525298,1.2609596-1.3384005,1.3116545-1.0871455,2.6570329-2.128165,4.0791735-3.2589283-.2093892-.2380628-.4035306-.5510514-.6723402-.7493519-1.6274943-1.2007654-3.4013581-2.1128825-5.3057547-2.6617972-1.9496164-.561921-3.9233586-1.0628051-5.9138101-1.4165315-1.0355156-.1840399-2.1414237-.0932277-3.19559.0453829-5.0504478.6638816-9.8766514,2.2719317-14.632266,4.1243619-2.680548,1.0440852-5.3183848,2.2122418-7.9775118,3.3188969-4.500395,1.8730081-9.0999111,3.365952-13.8922381,4.1310509-2.7060699.4320897-5.4031963.9294435-8.1122983,1.3376573-4.8553248.731654-9.72581.7348127-14.6118048.3500568-2.9296598-.2307235-5.7798743-.8171243-8.565215-1.7674709-2.6280425-.8966489-5.0744647-2.1801904-7.1903664-4.1089401-.2198161-.2003908-.4790276-.3518684-.7496041-.5475211-.3566095.1468325-.6920815.2651903-1.0120877.4197801-3.9919407,1.9287961-8.1942304,3.0367054-12.5286453,3.6035038-1.8306229.2393634-3.6684007.4440277-5.5087307.5623391-1.243356.0799891-2.4971388-.0052025-3.7456865-.0398552-1.9050074-.0528151-3.8121744-.0785026-5.7136917-.2000192-4.0408687-.2581297-8.0703289-.6492494-12.065258-1.3791847-.7615144-.139168-1.5382328-.1828787-2.3010996-.3153112-3.2078056-.5568114-6.1669793-1.8965589-9.0615191-3.3890847-2.1943-1.1314136-4.3344367-2.3835541-6.4851095-3.6088921-1.3840103-.7885568-2.8689088-1.2331419-4.3986343-1.5015838-1.5262353-.2677916-3.0615669-.5781325-4.6009122-.6384727-3.1013332-.1215165-6.1926321.0667969-9.1603349,1.1842752-.6572233.2474459-1.3580303.455687-1.8267837,1.071027.9424149.7434526,1.8965219,1.3996232,2.7438075,2.1861826,1.4202428,1.3185658,2.1363848,2.999916,2.064138,5.0481383-.0441508,1.2523263-.4480305,2.3552188-1.0837673,3.3709223-.7180179,1.1471141-1.8496226,1.7228776-3.0484787,1.7202299-3.3475002-.0074322-6.5120711-.7364384-8.9381738-3.4783641-.4437332-.5015344-.8199749-1.0916978-1.1374289-1.6946817-.6806839-1.2926924-.7556029-2.6486515-.1846961-4.0202646.2375833-.5707468.4874368-1.1356407.7077983-1.647673-.1521065-.4735243-.4829541-.4419838-.7619397-.4705049-2.7036813-.2763386-5.3553481.0913696-7.9506701.8666414-4.1480282,1.2390877-8.0667623,3.0559362-11.7068707,5.5235671-1.4059876.9531336-2.8143529,1.9062208-4.177782,2.9258262-3.2903266,2.4605238-6.9640935,3.7964159-10.9158753,4.3846748-3.733449.5556501-7.4811205.4850906-11.233002.3785314-3.2367959-.09202-6.3756159-.7065238-9.456117-1.7742992-3.1091534-1.0778088-5.9042775-2.6774977-8.2346511-5.1465686-.1650748-.174889-.3617248-.316008-.5845402-.5080376-1.7478947.3663147-3.4947314.7339301-5.2421898,1.0982009-3.8588011.8043038-7.7441385,1.4004129-11.6734195,1.6215674-1.0096228.0568099-2.0266949.0766446-3.0353687.0173728-2.9111509-.1710336-5.820175-.3845236-8.72921-.5942511-1.8576555-.133919-3.6168769-.7335585-5.3730498-1.3368676-.3394585-.1166391-.6774773-.2451698-1.0029914-.3996203-2.7028906-1.2826125-5.5930895-1.7031359-8.4890091-2.0859872-1.7981315-.2376912-3.5763308-.0344668-5.3004922.5209975-2.1050877.678235-4.1850623,1.4445416-6.278327,2.1647686-1.0175956.3501497-2.040203.6838092-3.0615778,1.021417-.3386568.111994-.7232041.1395396-1.0136583.331244-1.2984027.856933-2.612124.6797214-3.946661.1570982-.166389-.0651247-.3262994-.1489228-.5784379-.2652368-.1327033-.2611955-.2982034-.5869583-.4233974-.8333823.0105796-.877.3673581-1.4623325.9683841-1.8130396.6720511-.3920952,1.3873478-.7115406,2.1064292-.9982843,1.1675426-.465674,2.3494168-.8920502,3.5325999-1.3114123,2.0304904-.7196231,4.0590776-1.44705,6.1024272-2.123334,2.3664424-.7831684,4.8073729-.9546665,7.2492305-.6466946,2.5389065.3201886,5.0786038.7067561,7.580907,1.2557637,1.56045.3423923,3.0839968.9560136,4.5676737,1.596205,2.4062905,1.0382324,4.8922662,1.535679,7.4721605,1.6602149,3.8146612.1840864,7.6224184.1816245,11.4124738-.3702631,3.5971464-.523831,7.1694253-1.2041563,10.7094527-2.0675461.1084356-.0264308.2007401-.1277874.4012075-.261149-.0483172-.3682192-.1127656-.7864665-.1565674-1.2071756-.1176846-1.1300665-.3004066-2.2594827-.3233764-3.3922899-.0467575-2.3060269.8626969-4.183355,2.5368288-5.6137755,3.2794852-2.8018478,7.0225759-3.624314,11.0851819-2.6863699,2.1768164.5025563,3.1810184,1.9634023,3.323178,4.323963.1176628,1.9538334-.5727936,3.5992303-1.6677731,5.0824194-.8887206,1.2038776-1.9315983,2.2556737-3.1773537,3.0317351-1.1283435.7029471-2.3016559,1.3240935-3.456143,1.9793351-.3498145.1984863-.7030211.3902371-1.1348222.6294612.9849515,1.216791,2.1227731,2.0190509,3.3341393,2.6888318,2.9981219,1.6576136,6.1960023,2.5906803,9.571064,2.7689138,3.0999044.1636014,6.1976492.0068748,9.2769179-.3642709,3.415886-.4117441,6.6201359-1.4978212,9.4612323-3.6577589,1.4041662-1.0674967,2.8595726-2.0616932,4.3193526-3.0426047,4.3085767-2.8953542,8.9227298-5.0498106,13.8662798-6.3854704,3.9271214-1.0610399,7.8802448-1.1896635,11.8580066-.3499639.2918448.0616408.5857618.1140379.8803115.1587704.234693.035721.4718073.0532332.7671205.0852381.2785602-.1589098.6009877-.3169835.8987004-.5167704,3.2582824-2.1865542,6.8572066-3.1198996,10.6611791-3.3735236,4.6839786-.3122454,9.2677671.3859172,13.8042636,1.5098986,1.1472669.2841889,2.2784352.749259,3.3387529,1.3015646,2.0832686,1.0851946,4.0931124,2.3293454,6.1687462,3.4321915,1.5415703.8190288,3.1383509,1.5203501,4.7117255,2.2712813,2.0556961.9810973,4.248491,1.2712784,6.4555083,1.2043421,2.2227014-.0674472,4.3921993.2066617,6.5629842.6237941.6402959.123003,1.290059.2582226,1.9365718.2650045,3.3340848.0348385,6.6753899.1782335,10.0012946.0042271,5.1923456-.271647,10.2947753-1.1677385,15.1127988-3.4014408.5391461-.2499078,1.0587907-.5474282,1.667675-.8646904-.1942723-.4714339-.3807135-.8525202-.5109846-1.2543237-.2904705-.896045-.5868525-1.7925545-.8201712-2.7064369-.6724929-2.6336477-.0378903-5.0368507,1.3100403-7.2402667,1.3229103-2.1625854,3.1534024-3.564206,5.6179952-3.98603,1.4871453-.2546459,2.9278493-.3367717,4.4222367.012356,3.0293045.7077316,4.76903,2.6532966,5.3287027,5.8403183-.0926644,2.1845104-1.0518758,3.9167247-2.4300401,5.3785462-.9660827,1.0248544-2.0529912,1.926102-3.1238667,2.8317159-.9238515.7814033-1.9012773,1.4909929-2.9641254,2.3171287.3130694.3477807.526974.6347102.7854875.8647833,2.0487594,1.8232588,4.4413672,2.9206701,6.9765709,3.7089482,2.4169737.7515351,4.8999337,1.0478478,7.4038129,1.1279298,3.2203484.1030754,6.4207156-.2013663,9.6232641-.5560217,3.5588308-.3940926,7.0621676-1.1314601,10.5753424-1.7956203,4.0559419-.7666318,7.9296309-2.2223682,11.7466043-3.8569884,4.4696377-1.9141175,8.9419803-3.8213603,13.5735407-5.269618,2.6295913-.8222804,5.2829813-1.5268997,7.9846449-2.0063233,2.3078837-.4095609,4.6415292-.359347,6.9471225-.0573209,2.7772479.3638064,5.5104758,1.0292673,8.176714,1.9458902,2.3905792.8219552,4.6544429,1.9364606,6.6555831,3.5916587.2296977.1899392.486946.3421601.7526362.5265716.2511841-.0963864.4772171-.1642052.6883296-.2668626,6.4340219-3.1284931,13.1702937-5.1649168,20.1712086-6.1529818,5.819008-.8213049,11.6301631-.7657028,17.4160579.4916403,3.1551693.6856672,6.2897028,1.4091922,9.2384714,2.8266063,1.1339605.5450592,2.2301398,1.1790262,3.4503515,1.8294369,0-.2866043.0412714-.5211833-.0061078-.7333727-.8828855-3.9526315-1.5088498-7.9604937-1.8350947-11.9978059-.3825677-4.7340813-.6651853-9.4864644-.2261202-14.2458151.1744655-1.8906596.2609785-3.7903773.4045122-5.6845207.4339607-5.7256301,2.096204-11.0335239,4.8733865-15.9424014.7026611-1.2420141,1.5420066-2.3963746,2.376902-3.6808916-.1659582-.4626547-.3434777-.990945-.5434652-1.5094341-1.0872357-2.8190812-2.0998251-5.6715608-2.4720968-8.7091488-.2535618-2.068568-.4561233-4.1603616-.4672047-6.2430973-.0247803-4.6634289.836117-9.1715247,2.2003424-13.6088753,1.4277031-4.64378,3.1273351-9.1699919,4.8719031-13.678738,1.8467868-4.7728216,3.054652-9.7178846,3.8903764-14.7897131.3531629-2.1431687.4471361-4.2834575.3142037-6.4376816-.0580243-.9412886-.1779993-1.9046879-.4426425-2.8001291-.7714614-2.6102363-1.8128448-5.0926851-3.3608719-7.3082714-2.4594012-3.5201238-5.2381542-6.7388252-8.1466984-9.8359637-.161072-.1715445-.3683452-.2939436-.6368712-.5038569-.3925147.5379522-.7564972,1.0189086-1.1021999,1.514265-.679495.973758-1.4503893,1.8510367-2.3793015,2.5579786-1.321078,1.0054378-2.7600369,1.4119793-4.3870731,1.0476155-.9986287-.2236629-1.9681579-.5110569-2.8632591-1.0286169-2.1237765-1.2281716-3.0001179-3.7801115-2.1438014-6.1835003,1.2476532-3.5016826,3.8010277-5.3382265,7.3022486-5.2063514.9464068.0356746,1.8892362.1781406,2.9624675.2843282.1188407-.2997965.3491928-.674426.4123215-1.0786914.195014-1.2472166.3939981-2.5011687.469735-3.7607413.2381614-3.9628508-.4120598-7.8295011-1.2124024-11.6760844-.5024119-2.4147693-1.1647614-4.7759339-1.8734867-7.1325462-1.5446678-5.1357919-2.7283199-10.3695495-3.3425485-15.734021-.4321283-3.7738871-.9442254-7.5408993-1.2552444-11.3263528-.5678964-6.912042-.4468743-13.7891527,1.1089185-20.5926845.7612526-3.3289303,1.5583232-6.6375615,2.6764906-9.8495275,2.0325518-5.8384602,5.3385406-10.7190488,9.83538-14.6920725.2284325-.2018772.4488376-.414206.6688064-.6265812.0425802-.0410629.0655718-.1051657.1095045-.1786051-3.3801116-4.5552903-4.8837261-9.8970239-5.664611-15.5392275-.4870551-3.5194734-.6588157-7.0588048-.7171454-10.6131632-.058766-3.5796975.3897226-7.0862807,1.2199063-10.5343818,1.0674289-4.4338435,2.5639759-8.6970947,4.6406785-12.7251399,1.549336-3.0052579,3.2568209-5.8916237,5.1000739-8.7051308,5.2773752-8.0553704,8.931946-16.8651791,10.5767385-26.5684547.2956185-1.7443149.6363477-3.4898143.7832844-5.2510839.6959862-8.3416263-1.5687065-15.5190212-7.559606-21.1572068-.9343657-.879369-1.9667182-1.6417969-2.965216-2.4420827-.2295232-.1839238-.5062947-.3008881-.7559301-.4455606-.5533249.5455237-.7128263,1.2426412-.9971453,1.8584457-.8524773,1.8464845-1.9734369,3.4494946-3.4892671,4.7540321-1.7839199,1.5352842-3.716478,1.7837056-5.8742401,1.0998035-1.8758426-.594553-2.7541036-2.3767722-2.5600058-4.061374.342387-2.9714181,1.4568897-5.6161677,3.4751318-7.747561,1.2401057-1.3096704,2.7629163-1.9537172,4.5374127-1.8144331.290994.022854.5813773.055277.9250731.0883968.6478216-1.2746461.5425926-2.623382.3903334-3.917677-.5150638-4.3779858-1.6640321-8.5821742-3.6923957-12.4327756-2.1933184-4.1638687-3.897793-8.5409952-5.506942-12.9771148-1.2685507-3.4970375-2.175693-7.1085541-3.0388589-10.729872-.9949204-4.1744828-1.9058582-8.3725629-2.7986907-12.5735462-1.3652288-6.4236069-1.5679212-12.9420673-1.1761481-19.4828011.1510813-2.5222111.4298161-5.0384765.8872918-7.5359523.7924897-4.3259256,2.4899403-8.1900558,5.0030031-11.6460885,1.0900715-1.4990986,2.3514673-2.8587622,3.5603359-4.2569338.3183047-.3681263.7309316-.6438611,1.154858-1.0090958-.4848301-.5758564-.8619007-.965931-1.1753192-1.4072413-.7879525-1.1097673-1.6798252-2.1669866-2.2914362-3.3814667-1.4358614-2.8513764-2.6246614-5.8332461-3.3549823-8.9866603-.7582859-3.2742456-1.0745838-6.6078094-1.0722279-9.9851071.0054534-7.8773459,2.2530442-14.9597828,6.6397682-21.2671686,4.7952936-6.8948783,8.2572064-14.5088455,10.8507615-22.5908208,1.0604049-3.3043344,1.6211029-6.7466871,2.1768273-10.1814683.1918728-1.1859126.3721844-2.375878.5020192-3.5708486.4342224-3.9950938-.5635773-7.3901185-3.6986344-9.8829143-1.1491865-.9137546-2.3325767-1.7559451-3.6700585-2.3290435-.1653911-.0708788-.320966-.1680317-.4871423-.2363963-5.1842309-2.1329088-8.1212201-6.4057696-9.8749499-11.789321-.607859-1.865994-.9222809-3.7943256-.994964-5.775211-.0720287-1.9620727-.2197507-3.9134615-.0641321-5.8864444.1152197-1.4600331.2884636-2.8912026.6356496-4.3073799.9479774-3.8661161,2.1272667-7.6528875,3.417282-11.4018564.2453599-.713027.5324275-1.4116367.832496-2.1009794.3813461-.8758184.9727141-1.5774561,1.6406915-2.2284678,1.0937362-1.0659405,2.3367213-1.1596415,3.6680953-.7213215.6694608.2204113,1.1328698.6829614,1.2086505,1.45164-.0365597.6499665-.3719663,1.0884142-.7982485,1.4536141-.7738172.6629787-1.2056402,1.5574269-1.5373821,2.5192789-1.4362104,4.1646497-2.795026,8.3594143-3.7656023,12.6766477-.499707,2.2225365-.630807,4.5072423-.4716546,6.7971622.0658772.9472227.1433593,1.8938996.2358491,2.8385791.4439513,4.5350027,2.1975939,8.3962472,5.3567332,11.4793923.6895293.6729454,1.5641256,1.1475961,2.3938294,1.6358628.6740416.3966822,1.4069801.6807143,2.1164907,1.0081784,1.7643312.8143082,3.3322961,1.9565508,4.8008779,3.2623308,2.1994698,1.9556217,3.4424113,4.4779838,3.9319532,7.4639586.2686132,1.6385221.3046057,3.2584115.049866,4.9075477-.7918789,5.1265713-1.5755123,10.2544781-3.2290303,15.1696612-1.5473291,4.5996978-3.2946457,9.121938-5.5456394,13.3776989-1.603172,3.0309919-3.3859576,5.9760025-5.3094849,8.788116-2.896154,4.234103-4.7695535,8.8831436-5.7322769,13.9907512-.4138921,2.1959374-.353032,4.4176668-.3696977,6.6302105-.0423185,5.6300334,1.347996,10.8976075,3.7218005,15.8933837.6466001,1.3607668,1.4166654,2.6298735,2.604113,3.6997973.4504081-.3346466.8757742-.6511191,1.301533-.9670109,2.0016637-1.4852097,3.995998-2.9818581,6.0080014-4.4511234,1.2513179-.9137894,2.6168958-1.1566366,4.0814203-.6608855,1.114939.377405,1.6650792,1.0906875,1.7595322,2.3441169.077133,1.0246802-.0061078,2.0279347-.4374072,2.9703846-1.6697473,3.6488054-4.3372071,5.8096256-8.1906747,6.1124995-1.2407601.0975128-2.4939977.0152709-3.9689927.0152709-.1407853.1175449-.4847428.3621225-.7818883.6597358-2.0062882,2.0095517-3.7424362,4.2544371-5.1613702,6.7730482-1.5191023,2.6964034-2.4737546,5.6031033-2.9515171,8.7049566-.7352071,4.7728449-.8714115,9.5749308-.746812,14.3978501.1135182,4.3932683.7663134,8.7002766,1.7563911,12.9544466,1.273437,5.4717042,2.3408223,11.0035861,3.9648481,16.3748627,1.5139542,5.0070522,3.2071294,9.9466571,5.6213327,14.5666076,1.1293797,2.161308,2.1315422,4.3836064,2.9606352,6.7020823,1.0457461,2.9241772,1.6723213,5.9491769,2.0310685,9.0339825.1296167,1.1144821-.0280523,2.269702-.0840698,3.4046924-.0341165.6909162-.124425,1.3786969-.1969772,2.1476977.3431723.2581297.6557182.536698,1.0042566.7479351,1.7123711,1.0379072,3.3224799,2.2316584,4.8511366,3.5524074,5.4500956,4.708835,8.4751247,10.7884935,9.3056574,18.208364.380081,3.3959131.0211592,6.6934423-.5099594,10.0079728-1.0268992,6.4079528-2.878485,12.5452109-5.3950816,18.4569248-1.7010281,3.9959474-3.8543838,7.7233367-6.1866552,11.3272353-1.5217635,2.3515259-2.9552254,4.7481096-4.273424,7.238339-2.5371451,4.7930279-4.2742529,9.8767479-5.3536793,15.2469097-.6551946,3.2595554-.6537113,6.5459596-.5792832,9.8400514.1047491,4.6389955.5821189,9.2275218,1.822181,13.6998269.5764038,2.0787408,1.4269614,4.0293458,2.3946583,5.9253938.3099719.6072575.6296727,1.2269639,1.353973,1.6470692.3089685-.0930883.696946-.2166952,1.0882828-.3265524.8615517-.2418718,1.7235834-.4822571,2.5877527-.7132593,1.0294732-.2751309,2.0202926-.0177444,2.9694479.359347.4262386.1693149.8410469.500977,1.1440821.8683136.9708381,1.1769359.7606854,2.7521449-.4731816,3.6122831-.8550513.5961092-1.8041193,1.0003746-2.835992,1.0516568-.9492862.0471945-1.9026298.016165-2.8538356-.0013935-.4737487-.0086864-.9467558-.0642886-1.519015-.105816-1.4032282.9869502-2.6899278,2.2030909-3.8463564,3.5702911-2.8988153,3.4273141-5.1790393,7.240499-6.5762905,11.6488639-1.3166716,4.1539514-2.3077528,8.3912827-3.000336,12.6994523-.6347771,3.9488225-.593462,7.9503673-.4667248,11.9473133.0986413,3.1087513.4315175,6.1934873.8020877,9.2723705.4158553,3.4547204.8078902,6.9191491,1.4032718,10.3412607.6498721,3.7349609,1.5228542,7.4245853,2.6846053,11.0283679,1.4746897,4.5744747,2.4217073,9.2913226,2.8710684,14.0872305.3858398,4.1184626.1815332,8.2391084-1.3348206,12.2151514.312764.3468981.5703832.6823227.8736365.9615413,3.8923396,3.5841801,7.2966643,7.6506172,10.3788451,12.0215889,2.1741224,3.0832496,3.6693605,6.5272861,4.281495,10.3430723.4549454,2.8360823.282574,5.686193-.1940106,8.5090367-.7376502,4.3685098-1.6250293,8.6997192-3.1290801,12.8559002-.8769085,2.4232235-1.7977061,4.8284703-2.7048047,7.2392912-1.8605731,4.9446913-3.6305322,9.9298417-4.552595,15.1823657-1.1765408,6.7022216-.6282766,13.2485992,1.9403237,19.5473916.0445871.1092998.1473294.1917508.2635961.3377007,1.0135928-.1696865,2.0594699-.3542838,3.1082263-.5178852,1.3705513-.2137687,2.7312429-.1604891,4.0728257.2298873,1.403359.4082138,2.6977808,1.0622477,3.6794384,2.2218572,1.9022371,2.2470338,1.464699,3.8016649-.0058897,5.5162742-.7875598.9182487-1.8110997,1.4530887-2.9218941,1.7359769-.8036147.2046643-1.6470175.3483845-2.4686502.3285034-1.1855716-.0287533-2.3752006-.1795342-3.5476404-.3804359-.5736116-.0982444-1.135662-.3787172-1.6601929-.6653216-.5232657-.2858147-.9932189-.6823227-1.5540477-1.0779017-.1794827.2266358-.4011529.4380355-.544774.6982091-2.1633028,3.9189079-3.6446238,8.0878166-4.2489491,12.6156542-.875338,6.5584085-.8746835,13.1431549-.5767964,19.7302702.1436647,3.1766166,1.0590525,10.4775487,1.9380551,13.2356858.30622-.2182281.6122654-.3887971.8654346-.6239799,2.7505698-2.554727,6.0047294-3.5519429,9.5809892-3.4075723,3.1845304.1285771,6.2783161.736392,9.0219491,2.6162285.6461202.4426806,1.2781487.9428679,1.8175129,1.521372,1.4869926,1.5949973,1.7718351,3.5301108,1.1930755,5.6304515-.2692676.9771954-.6993891,1.8854106-1.3061574,2.6870202-3.000336,3.9638728-6.8445983,6.2329709-11.6577791,6.4197515-1.5383855.0597363-3.0861509-.1511524-4.6294663-.2410356-.5790214-.0337236-1.1576065-.0752511-1.849928-.1206804Zm-1.0643314-5.2885237c1.8549888,1.8338497,4.131897,2.1666266,6.4726321,2.1501364.9346274-.0065496,1.9076469-.1703368,2.7931936-.4854158,2.1931439-.7805672,3.9821246-2.223483,5.3666366-4.1984517.6456403-.9210358,1.1514551-1.9207136.9526455-3.2061596-.7663134-1.7099642-2.3220625-2.4058971-3.8595319-3.0574691-1.9042003-.8069515-3.8740161-1.1729875-5.909491-.5059008-1.9480458.6384727-3.41401,1.9452863-4.6439069,3.6153024.1321907.680604.464936,1.2719287.2160423,1.8080693-.3698722.9783567-1.2706012,1.233049-1.8948641,1.9431496.1699719.6497139.3426924,1.3100652.5066437,1.9367393Zm-11.8500882,12.8665375c2.7099964-.5116607,5.0488118-1.9268452,7.0791386-3.9763217,1.2055529-1.2169768,1.3250917-2.6263549.6053287-4.1534868-.3720535-.7894394-.7959363-1.5511937-1.14081-2.2180482-.9299593-.3970655-1.7426049-.74401-2.5788528-1.1010345-1.2234837.6316908-2.2794823,1.5575111-3.3411088,2.4771069-.7949329.6884543-1.4277903,1.5203501-1.9751819,2.4345576-.8590213,1.434694-.9551323,2.9579705-.4965658,4.558031.2791274.9738044.795151,1.6854379,1.848052,1.9791958Zm-139.9415796-21.6592986c.1781957-.0104051.3197226.0268488.4056029-.030472,1.6137953-1.0763689,3.1311743-2.286889,4.3940752-3.815368.3871922-.4686469.7126082-1.0120338.986064-1.5661046.320617-.6496675.2925646-1.3415127-.0385883-2.0012601-.2832284-.5642436-.6065502-1.0884926-1.2833622-1.3626016-.8999219-.1175682-1.8266746.0438965-2.6128166.6957936-1.1532002.9563388-2.0175659,2.1740124-2.3358706,3.7041172-.3121096,1.5005154-.226382,2.9990334.4848955,4.3758955Zm-150.898061,4.8698583c2.4058706-1.0694941,3.8969205-2.1191534,5.1235999-3.539912.612309-.7092645,1.0986333-1.4953129,1.3727981-2.41319.2459707-.8234881.2449345-1.606192-.4458382-2.218234-1.6248875.010498-3.0768692.4615863-4.3906832,1.4250321-2.2193203,1.6274203-2.7860933,3.7956727-1.6598766,6.7463039Zm70.0122139,6.2812338c.8470675-1.5164482.8373822-2.4908565-.0045372-3.6682104-.6113492-.8547498-1.6813085-1.6144604-2.9278275-2.0547255-.2032595.2666303-.435204.5444553-.6371111.8450415-.1363353.2029456-.2545216.4281878-.3384387.6608158-.1999221.554303-.2177656,1.1300665.0902867,1.6354099.9039793,1.482771,2.0610841,2.5568173,3.8176279,2.5816687Zm221.4221975-151.530642c-1.9215204.4067273-2.8441939,1.7631973-3.4438074,3.7041172.1195824.3409059.2476721.8158237.455338,1.2472631.0914864.1900321.3449174.2916675.5710812.4699011,1.6406479-1.1197543,2.6065997-2.7378379,3.418809-4.4884934.0441944-.0952716.0056715-.2340215.0056715-.4459787-.3264194-.157795-.6901837-.333613-1.0070924-.4868093Zm19.2753222,89.0888461c-.7272233.1512918-1.653867.3128958-2.5628415.5509121-.3036896.0795246-.7225116.1466931-.7739045.7999838.4992707.5448734,1.0645495,1.1617927,1.5307944,1.67062,2.3193576.2183674,3.0321839-.1160353,3.6471106-1.6123236-.3458772-.7121909-.9268618-1.1046112-1.8411589-1.4091922Zm-67.6997385,59.7315964c-1.4392643.5312632-2.92449,1.7533961-3.8526388,3.1329989,1.0000029.7013213,1.0637424.7208773,2.9641908.8991573.6780553-.3199099,1.0300621-.9583826,1.1667464-1.721066.1420068-.7923658.1597631-1.5928141-.2782985-2.3110901Zm55.093153-359.1222081c1.2807664-.9563388,1.8814705-1.87835,2.8673164-4.3464919.1239451-.310248.4384543-.6393088-.0170583-1.038093-1.5607663,1.3848053-2.3891613,3.1906681-2.8502581,5.3845849Z" stroke-width="0"/>
    </g>
  </g>
</svg>