<?xml version="1.0" encoding="UTF-8"?>
<svg id="Layer_2" data-name="Layer 2" xmlns="http://www.w3.org/2000/svg" viewBox="0 0 467.4418458 647.7133977">
  <g id="Layer_1-2" data-name="Layer 1">
    <g>
      <path d="m425.5507242,328.19846l-.4892578-.0200195c-.5112305-.0224609-1.0576172-.0473633-1.5976562-.0375977-.8129883.0126953-1.3930664.3852539-1.7734375,1.1376953-1.1850586,2.3427734-2.269043,4.9121094-2.1787109,7.8227539.0678711,2.1987305.0761719,4.4331055.0839844,6.5932617.0063477,1.6772461.0126953,3.3544922.0458984,5.03125.0258789,1.3330078.1523438,2.6904297.3759766,4.0341797.3105469,1.8657227.3671875,3.7094727.4057617,5.753418l.012207.6870117c.0371094,2.0820312.0751953,4.234375.3105469,6.3393555l.0517578.4624023c.2807617,2.4985352.5712891,5.0825195.3911133,7.6694336-.0249023.3569336-.0541992.7133789-.0830078,1.0703125-.0654297.8012695-.1328125,1.6298828-.1474609,2.4379883-.0727539,3.9277344-.6342773,8.1005859-1.7172852,12.7558594-1.4638672,6.2963867-3.1064453,11.9365234-5.0205078,17.2431641-.9614258,2.6645508-1.9008789,5.4838867-2.7919922,8.3789062-1.2241211,3.9750977-1.8076172,8.1020508-1.7338867,12.2661133.0673828,3.8291016-.0981445,7.7080078-.2583008,11.4594727-.0444336,1.0439453-.0888672,2.0883789-.1289062,3.1328125-.0834961,2.2011719-.2373047,3.9624023-.4833984,5.543457-.8930664,5.730957-2.4741211,11.2314453-4.699707,16.3491211-2.1943359,5.046875-5.0263672,9.9204102-8.6586914,14.8994141-2.4121094,3.3066406-4.3012695,6.3500977-5.7753906,9.3032227-.1430664.2871094-.2998047.5678711-.4570312.8481445-.1635742.2919922-.3271484.5834961-.4731445.8837891-.371582.7646484-.7514648,1.5258789-1.1313477,2.2871094-.9223633,1.847168-1.8754883,3.7573242-2.6860352,5.6801758-1.9980469,4.7402344-3.496582,9.6425781-4.9814453,14.6665039-1.4111328,4.7758789-2.8730469,8.921875-4.4692383,12.6748047-.6010742,1.4135742-1.2084961,2.8242188-1.8164062,4.2353516-.9760742,2.2666016-1.9521484,4.5332031-2.9013672,6.8105469-3.5537109,8.5263672-7.3994141,15.7050781-11.7563477,21.9453125-2.2270508,3.1894531-4.4394531,5.9135742-6.7641602,8.3271484-3.0483398,3.1655273-6.5795898,5.4975586-10.4960938,6.9321289-1.9067383.6987305-3.9155273,1.2802734-6.1416016,1.7773438l-1.2714844.2788086c-1.4731445.3198242-2.996582.6499023-4.4658203,1.0898438-2.3100586.6918945-3.8637695,2.1103516-4.8886719,4.4633789-.2387695.5478516-.4155273,1.0004883-.5566406,1.4248047-.362793,1.090332-.7104492,2.1347656-1.0073242,3.1694336-1.9750977,6.8793945-4.9848633,13.3286133-8.9458008,19.1679688-1.6713867,2.4638672-3.2426758,4.3764648-4.9458008,6.0175781-2.1279297,2.0507812-4.2514648,4.105957-6.375,6.1606445-3.652832,3.5351562-7.3061523,7.0703125-10.9804688,10.5830078-2.4765625,2.3671875-5.125,4.331543-7.8710938,5.8383789-5.6801758,3.1176758-10.9873047,3.640625-16.2255859,1.5996094-.6801758-.2651367-1.3666992-.5141602-2.0532227-.7636719-.8027344-.2915039-1.6049805-.5830078-2.3974609-.8989258-2.3911133-.953125-4.7280273-1.3911133-6.9541016-1.3027344-4.2270508.1694336-7.9277344.8364258-11.3139648,2.0390625-3.9389648,1.3989258-7.940918,3.2807617-11.8950195,5.5922852-2.5078125,1.4658203-5.1748047,2.734375-7.9262695,3.7705078-3.2734375,1.2319336-6.7084961,1.4960938-10.2094727.7841797-4.0566406-.8242188-7.65625-2.706543-10.7114258-4.40625-2.1542969-1.1992188-4.3120117-2.4707031-6.3979492-3.7006836l-1.4838867-.8740234c-3.9604492-2.3276367-8.5576172-4.0185547-14.4667969-5.3217773-3.3149414-.730957-6.9741211-1.1196289-11.5151367-1.2231445-2.8647461-.0654297-5.2050781-.2207031-7.3652344-.4892578-3.2827148-.4082031-6.222168-1.7353516-8.9101562-3.1079102-4.8979492-2.5019531-9.0449219-5.0668945-12.6777344-7.8413086-.7275391-.5561523-1.4711914-1.0922852-2.2211914-1.6176758-7.3925781-5.1723633-13.2460938-10.8588867-17.8945312-17.3852539-1.2333984-1.7319336-2.6450195-3.8125-3.7597656-6.1113281-1.1806641-2.4335938-2.1591797-4.4658203-3.1113281-6.6118164-2.7250977-6.1420898-4.3457031-11.9350586-4.9541016-17.7104492-.0913086-.8662109-.1679688-1.7338867-.2446289-2.6020508-.1166992-1.3286133-.237793-2.7021484-.4130859-4.0410156-.8120117-6.2026367-2.90625-11.2192383-6.4023438-15.3359375-1.9428711-2.2890625-3.8847656-4.4624023-5.7714844-6.4594727l-1.6962891-1.7875977c-2.706543-2.8461914-5.5053711-5.7895508-8.0415039-8.8945312-4.1298828-5.0556641-7.5380859-10.7006836-10.1293945-16.777832-.7348633-1.7236328-1.4765625-3.4438477-2.21875-5.1645508-1.2084961-2.8027344-2.4169922-5.6054688-3.5957031-8.4208984-1.8076172-4.3188477-3.3540039-8.1450195-4.7280273-11.6977539-1.0673828-2.7597656-1.5913086-5.675293-1.5566406-8.6650391l.0146484-1.6826172c.0209961-2.8164062.0424805-5.7285156.3881836-8.5961914.1816406-1.5029297.3320312-3.0097656.4819336-4.5166016l.1347656-1.34375c.0761719-.7509766.1479492-1.5024414.2202148-2.2539062.078125-.8154297.15625-1.6308594.2392578-2.4458008.0605469-.5883789.128418-1.1762695.1962891-1.7636719.1196289-1.0371094.2397461-2.0742188.3164062-3.1142578.4770508-6.4697266-.0209961-12.2880859-1.5219727-17.7885742-.7421875-2.71875-1.5756836-4.8999023-2.6235352-6.8637695-1.8603516-3.4853516-4.1308594-6.8081055-6.9414062-10.1582031-2.3295898-2.7763672-4.0488281-5.2021484-5.409668-7.6337891-3.4614258-6.1845703-5.1049805-13.0063477-6.3735352-18.9150391-.3061523-1.4238281-.5170898-2.8837891-.7216797-4.2954102-.112793-.777832-.2250977-1.5561523-.3535156-2.3310547-.8950195-5.4013672-1.3125-10.2978516-1.2768555-14.9692383.0224609-2.9589844.1381836-6.2177734.3647461-10.2548828.1225586-2.1782227.3461914-4.2993164.6655273-6.3046875.6142578-3.8613281,1.7583008-7.6220703,2.902832-11.1113281.8842773-2.6943359,1.7270508-5.1074219,3.0917969-7.3544922.4033203-.6645508.65625-1.2202148.65625-1.8833008l-.4111328-.6025391c-1.2119141-.2807617-2.262207-.5229492-3.2739258.0341797-.0361328.0356445-.0732422.0708008-.1103516.1049805-.0668945.0625-.1425781.1333008-.1660156.1757812l-.4477539.8100586c-.8769531,1.5800781-1.7832031,3.2138672-2.362793,4.9448242l-.7094727,2.1054688c-.675293,1.9970703-1.3735352,4.0625-2.0161133,6.1044922-1.2666016,4.0219727-2.0234375,8.2802734-2.3139648,13.019043-.1166992,1.909668-.184082,3.8583984-.2490234,5.7421875-.046875,1.3618164-.09375,2.7231445-.1586914,4.0839844-.0800781,1.6777344.0551758,3.3867188.1865234,5.0395508.046875.5932617.09375,1.1870117.1318359,1.78125l.0200195.3149414c.0620117.9833984.1259766,2.0004883.25,2.9853516.1098633.8735352.2402344,1.7451172.3706055,2.6162109.1679688,1.1210938.3413086,2.2802734.4677734,3.4301758.5185547,4.7285156,1.6621094,9.4233398,2.8203125,13.7924805,1.8203125,6.8666992,4.6762695,12.7358398,8.730957,17.9428711.4511719.5791016.9165039,1.1479492,1.3818359,1.7163086.3251953.3979492.6508789.7958984.9716797,1.1972656,3.737793,4.6748047,7.715332,10.4257812,8.8706055,17.6298828.0014648.0058594.0390625.1455078.0405273.1513672.8916016,3.625,1.253418,7.4179688,1.0761719,11.2724609-.125,2.7148438-.3852539,5.4633789-.6376953,8.1210938-.0966797,1.0229492-.1938477,2.0458984-.2836914,3.0688477-.1166992,1.3310547-.2280273,2.5317383-.4052734,3.7436523-.472168,3.2250977-.7109375,6.1499023-.730957,8.940918l-.0014648.2163086c-.0039062.7197266-.0083008,1.4643555-.0996094,2.2001953-.3212891,2.5883789.059082,5.2021484.3950195,7.5083008.2924805,2.0097656.8930664,4.0688477,1.9467773,6.675293,1.2836914,3.1738281,2.6743164,6.5244141,4.3764648,10.5444336.9438477,2.2304688,1.9013672,4.4550781,2.8583984,6.6801758.9111328,2.1176758,1.8222656,4.2358398,2.722168,6.3583984,3.0732422,7.25,7.2504883,13.8447266,12.4145508,19.6010742,1.4907227,1.6616211,3.0483398,3.3173828,4.5546875,4.9189453,1.2207031,1.296875,2.440918,2.5942383,3.6411133,3.9091797,2.0244141,2.2163086,3.9970703,4.3964844,5.875,6.7021484,1.0039062,1.2319336,1.8989258,2.6445312,2.5888672,4.0849609,1.6445312,3.4321289,2.5888672,6.7543945,2.8862305,10.15625l.0644531.7382812c.1845703,2.1289062.3759766,4.3305664.6757812,6.4736328.5927734,4.2333984,1.3935547,7.6669922,2.519043,10.8066406,1.472168,4.1044922,3.1777344,8.1083984,5.0698242,11.9013672,1.1860352,2.3779297,2.3730469,4.4194336,3.6298828,6.2412109,3.5615234,5.1640625,7.8959961,9.9423828,12.8818359,14.2026367,1.7988281,1.5366211,3.7402344,2.9614258,5.6176758,4.3393555.9541016.699707,1.9082031,1.3999023,2.8496094,2.1176758,3.9311523,2.9956055,8.2412109,5.4716797,11.9726562,7.5576172,2.2924805,1.2817383,4.7211914,2.2070312,7.0043945,3.0166016,1.7182617.609375,3.6489258,1.019043,6.0761719,1.2895508,2.4145508.2700195,4.8901367.3466797,7.284668.4213867l1.5839844.0512695c2.8823242.1000977,5.6884766.4262695,8.340332.96875,2.7495117.5625,5.3798828,1.515625,7.8125,2.4614258,1.6376953.6367188,3.1645508,1.3452148,4.5385742,2.1064453,1.6635742.9213867,3.3271484,1.9018555,4.9355469,2.8496094,1.0927734.644043,2.1855469,1.2880859,3.2856445,1.9189453,5.0532227,2.8969727,9.1894531,4.5068359,13.4116211,5.2202148,3.6000977.6088867,6.8222656.5888672,9.8505859-.0595703,3.71875-.7958984,7.3251953-2.2285156,11.0244141-4.3808594,2.9365234-1.7089844,5.9711914-3.2070312,8.8129883-4.5712891,3.034668-1.456543,6.2553711-2.4443359,9.5717773-2.9370117,3.2348633-.4799805,5.847168-.1782227,8.2216797.9511719,1.4516602.6904297,3.0532227,1.1777344,4.6015625,1.6489258l.7392578.2255859c1.8134766.559082,3.75.8959961,5.9199219,1.0302734,5.0649414.3134766,10.0742188-.9238281,14.8823242-3.6772461,3.0361328-1.7397461,5.8837891-3.9013672,8.7055664-6.6083984l1.6298828-1.5629883c4.234375-4.0605469,8.612793-8.2592773,12.8808594-12.4267578l.2827148-.2758789c1.7099609-1.668457,3.4785156-3.3935547,4.956543-5.2719727,3.5869141-4.5576172,6.5224609-9.6054688,8.7246094-15.0039062,1.4194336-3.4794922,2.543457-7.0473633,3.5463867-10.3842773.4907227-1.6323242,1.1835938-2.9248047,2.1801758-4.0673828.0537109-.0615234.121582-.1088867.1977539-.1381836.1547852-.0595703.3164062-.1254883.4824219-.1933594.3994141-.1625977.8515625-.3476562,1.3168945-.4848633.7089844-.2089844,1.4804688-.3916016,2.3588867-.5576172,4.0039062-.7573242,7.184082-1.6308594,10.0092773-2.7495117,4.0668945-1.6108398,7.6513672-3.9711914,10.6533203-7.0161133,2.1367188-2.1674805,3.8964844-4.1987305,5.3798828-6.2104492,4.9707031-6.7402344,8.8271484-13.3173828,11.7905273-20.1079102,1.9599609-4.4892578,3.9003906-8.9873047,5.8413086-13.4858398l.8886719-2.059082c1.9111328-4.4282227,3.3686523-9.0375977,4.7783203-13.4956055.3515625-1.1118164.6899414-2.2280273,1.0288086-3.3442383.5854492-1.9306641,1.1914062-3.9267578,1.859375-5.8710938,1.3613281-3.9633789,3.0141602-7.8217773,4.9121094-11.4677734.2539062-.4873047.5249023-.9663086.7958984-1.4453125.3427734-.6049805.6850586-1.2099609.9912109-1.8330078,1.4360352-2.9228516,3.2197266-5.8305664,5.3007812-8.6416016,2.265625-3.0600586,4.4570312-6.5307617,6.699707-10.6098633,2.4008789-4.3691406,4.2744141-9.0483398,5.7280273-14.3041992,1.2104492-4.3798828,1.8544922-8.0332031,2.0263672-11.4975586.1796875-3.5986328.2714844-7.2651367.3603516-10.8105469l.0146484-.5913086c.0390625-1.5239258.0429688-3.0488281.046875-4.5732422.0019531-.7045898.003418-1.409668.0087891-2.1142578.0205078-2.7416992.3408203-5.340332.9526367-7.7236328.6499023-2.5317383,1.4570312-5.5029297,2.5180664-8.3383789,1.8740234-5.0102539,3.5786133-10.4614258,5.2114258-16.6650391,1.7705078-6.7304688,2.7133789-13.4267578,2.8017578-19.902832.0317383-2.2954102.0356445-4.5424805-.2607422-6.7998047-.4570312-3.4780273-.4912109-6.9428711-.4873047-10.4824219.0009766-.7856445-.0917969-1.5991211-.1816406-2.3857422-.0410156-.362793-.0825195-.7250977-.1157227-1.0878906-.0454102-.4951172-.0996094-.9902344-.1538086-1.4848633-.1162109-1.0615234-.2363281-2.1591797-.265625-3.2519531-.0571289-2.140625-.081543-4.2822266-.105957-6.4238281-.0200195-1.7324219-.0395508-3.465332-.0771484-5.1972656-.0351562-1.6416016.2729492-3.1503906.9423828-4.612793l.0727539-.1586914c.328125-.7158203.6572266-1.4316406.9467773-2.1621094.1572266-.3969727.2431641-.8330078-.5195312-1.4213867Z" stroke-width="0"/>
      <path d="m40.7684976,291.3952374c.7827148.519043,2.6303711.4794922,3.4086914-.0727539.5048828-.3574219.8271484-.8925781,1.0136719-1.684082.4418945-1.8701172.7539062-3.3886719.9824219-4.7792969.1757812-1.0722656.2924805-2.1796875.4052734-3.2504883l.2753906-2.4726562c.1542969-1.3378906.3085938-2.6757812.4301758-4.0166016.1191406-1.3100586.21875-2.6220703.3178711-3.934082.0688477-.9111328.1381836-1.8227539.2138672-2.7333984.1357422-1.6386719.2734375-3.2783203.4511719-4.9130859.3339844-3.0673828.6806641-6.1333008,1.0532227-9.1967773.4111328-3.3730469.8535156-6.9663086,1.3466797-10.5507812.3251953-2.3662109.6708984-4.7299805,1.0170898-7.09375.2714844-1.855957.5429688-3.7114258.8046875-5.5688477.2055664-1.4604492.3959961-2.9228516.5869141-4.3857422.1738281-1.3339844.3476562-2.668457.5327148-4.0009766.1821289-1.3110352.3754883-2.6206055.5688477-3.9301758.21875-1.4804688.4375-2.9609375.6396484-4.4438477.2265625-1.659668.4418945-3.3208008.6567383-4.9814453.3237305-2.5039062.6479492-5.0078125,1.0117188-7.5058594.5742188-3.9448242,1.5864258-7.0166016,3.1860352-9.6679688,1.3740234-2.277832,2.7324219-4.5029297,4.2387695-6.6845703,1.6479492-2.3847656,3.4125977-4.7431641,5.1191406-7.0234375l.5991211-.8007812c2.690918-3.5996094,4.9560547-7.8637695,7.128418-13.4189453,1.328125-3.3959961,2.1186523-7.0117188,2.8833008-10.5083008l.21875-.9975586c.5947266-2.7050781,1.0981445-5.4824219,1.5849609-8.168457.2651367-1.4619141.5297852-2.9238281.8100586-4.3823242,1.2563477-6.5361328,3.4599609-12.9506836,6.550293-19.0649414,2.3808594-4.7099609,5.0019531-9.3813477,7.5371094-13.8984375l1.1489258-2.0488281c2.0473633-3.6572266,3.8618164-7.6044922,5.3930664-11.7314453,1.6811523-4.5297852,3.5351562-8.940918,5.5107422-13.1113281,3.0664062-6.4736328,6.6708984-12.6669922,9.4677734-17.3398438,1.8686523-3.1210938,4.0209961-6.1787109,6.3984375-9.0893555.3457031-.4228516.6835938-.8520508,1.0219727-1.28125.5200195-.6601562,1.0400391-1.3198242,1.5859375-1.9575195l.7734375-.9077148c1.6474609-1.9389648,3.3505859-3.9438477,5.362793-5.6269531,5.3217773-4.4521484,10.684082-7.5063477,16.394043-9.3364258,4.2207031-1.3525391,7.6484375-3.0258789,10.4794922-5.1152344,1.1899414-.878418,2.3911133-1.7416992,3.5922852-2.6054688,1.0478516-.753418,2.0952148-1.5068359,3.1357422-2.2700195,2.2016602-1.6147461,4.206543-3.5615234,6.1289062-5.9501953,1.0288086-1.2783203,2.1499023-2.5092773,3.2333984-3.6992188l.3032227-.3325195c2.1269531-2.3383789,4.6279297-4.1831055,7.4335938-5.4829102,6.7583008-3.1318359,12.234375-4.7207031,17.7553711-5.1508789,3.1040039-.2426758,6.7661133-.3071289,10.3774414,1.0527344.5380859.2026367,1.0874023.3764648,1.6367188.5507812.4545898.1445312.9091797.2885742,1.3583984.4482422,1.7607422.6259766,3.6894531,1.0512695,6.0698242,1.3388672,3.3461914.4052734,6.9316406.5615234,11.6152344.5029297,1.3881836-.0170898,2.7797852-.1787109,4.0854492-.3432617,4.0214844-.5058594,7.9780273-1.5996094,11.6855469-2.6767578,2.9897461-.8691406,6.480957-1.840332,10.0791016-2.3686523,2.5097656-.3681641,4.7407227-.0195312,6.8188477,1.0664062,5.3432617,2.7919922,11.0751953,5.0209961,16.4882812,7.0649414,2.8764648,1.0864258,6.2045898,2.3886719,9.2910156,4.0966797,2.0332031,1.1254883,3.8745117,2.5019531,5.6298828,4.2089844,2.90625,2.8256836,5.7270508,6.0507812,8.6230469,9.859375,5.0454102,6.6347656,10.3422852,11.8276367,16.1928711,15.8759766,3.5898438,2.484375,7.3022461,5.0532227,11.4291992,6.8725586,1.4814453.6533203,2.8852539,1.472168,4.0629883,2.1875,2.4985352,1.5166016,4.1362305,3.6020508,4.8676758,6.1992188l.0454102.1625977c.5859375,2.0820312,1.1918945,4.234375,1.3608398,6.4702148.1450195,1.9228516.3129883,3.84375.4814453,5.7641602l.1630859,1.8754883c.0473633.5488281.1015625,1.0976562.1552734,1.6464844.1049805,1.0688477.2133789,2.1738281.2714844,3.269043.1318359,2.519043.5244141,5.1611328,1.1992188,8.0771484,1.0268555,4.4355469,3.4291992,7.9829102,7.1396484,10.5429688.527832.3642578,1.0634766.7177734,1.5991211,1.0712891.5654297.3730469,1.1313477.746582,1.6879883,1.1318359,4.6225586,3.1992188,8.1435547,6.9350586,10.7636719,11.421875,1.487793,2.5483398,2.7485352,5.184082,4.1259766,8.1181641,3.2138672,6.8486328,5.2749023,14.0493164,6.8676758,20.1899414.1835938.7084961.3632812,1.4179688.5429688,2.1274414.7539062,2.9799805,1.5332031,6.0610352,2.6171875,8.9887695.4189453,1.1313477.8496094,2.2587891,1.2802734,3.3857422l.7431641,1.9521484c1.1884766,3.1445312,2.6704102,5.9487305,4.5307617,8.5732422,2.394043,3.3764648,4.6411133,6.9365234,6.6230469,10.078125.8364258,1.3256836,1.4863281,2.7148438,2.1889648,4.2626953,1.1821289,2.6035156,1.8081055,5.3979492,2.4140625,8.1005859l.1079102.4814453c.6601562,2.9345703.8989258,5.6645508.7299805,8.3457031-.1826172,2.902832-.2797852,5.9360352-.2880859,9.0161133-.0073242,2.4682617.6469727,4.690918,1.9443359,6.6069336.8320312,1.2285156,1.7851562,2.4086914,2.6074219,3.4013672,1.703125,2.0551758,3.6733398,4.890625,3.796875,8.6035156.0463867,1.3833008.1206055,2.765625.1948242,4.1474609l.081543,1.5400391c.0112305.2250977.019043.4506836.0263672.6762695.019043.5673828.0366211,1.1030273.1152344,1.6308594.1967773,1.3222656.4091797,2.6420898.621582,3.9624023.2148438,1.3334961.4291992,2.6674805.6279297,4.0039062.0805664.5429688.1186523,1.0922852.1557617,1.6420898.0292969.4375.0585938.8745117.1123047,1.3085938.2871094,2.3208008.5859375,4.6396484.8847656,6.9584961l.4770508,3.7119141c.1123047.8686523.2241211,1.7368164.3242188,2.6069336.0610352.5288086.1303711,1.0576172.1992188,1.5864258.1679688,1.2817383.3413086,2.6069336.3891602,3.9262695.1489258,4.0732422.2363281,8.2148438.3203125,12.2207031l.0981445,4.3237305c.0449219,1.6235352.0913086,3.3017578.0161133,4.956543-.0874023,1.9277344.7055664,3.2211914,2.4951172,4.0712891.1450195.0688477.2861328.1479492.4267578.2270508.2006836.112793.3901367.2197266.5761719.28125,1.0014648.331543,2.0751953.5810547,3.1479492.1621094.9951172-.3886719,1.0688477-.9150391,1.0219727-1.3305664-.1289062-.5449219-.5371094-.8149414-1.1918945-1.206543-.4448242-.265625-.9487305-.5673828-1.3071289-1.065918-.0615234-.0849609-.0942383-.1875-.0942383-.2919922l-.0024414-.2705078c-.0029297-.2216797-.0058594-.4560547.0048828-.6894531.152832-3.203125.0976562-6.4672852.0444336-9.6235352-.0273438-1.6416016-.0551758-3.2832031-.0551758-4.9248047,0-5.831543-.7763672-11.6953125-1.5268555-17.3657227l-.0263672-.2006836c-.2211914-1.6713867-.4365234-3.34375-.6513672-5.0161133-.2612305-2.0351562-.5229492-4.0698242-.7958984-6.1035156-.0922852-.6865234-.2172852-1.3686523-.3417969-2.0507812-.0864258-.4750977-.1733398-.949707-.2495117-1.4262695-.0834961-.5214844-.1708984-1.0424805-.2583008-1.5639648-.2460938-1.465332-.5-2.980957-.6611328-4.487793-.2026367-1.8930664-.2548828-3.777832-.2905273-5.5454102-.0786133-3.9057617-1.5722656-7.4672852-4.5654297-10.8881836-.1381836-.1582031-.2807617-.3129883-.4233398-.4682617-.2172852-.2363281-.4345703-.4726562-.6386719-.7192383-2.0786133-2.5043945-3.027832-5.1616211-2.9013672-8.1235352.0517578-1.2114258.0683594-2.425293.0854492-3.6386719.0219727-1.5844727.0444336-3.2231445.1479492-4.8364258.1386719-2.1655273.0161133-4.2988281-.3647461-6.3393555-.359375-1.9301758-.8183594-3.9936523-1.487793-6.6899414-.7866211-3.1679688-2.0175781-6.1035156-3.659668-8.7241211-2.0048828-3.2006836-4.4023438-6.9785156-6.9780273-10.7314453-1.684082-2.453125-2.9804688-4.9394531-3.9633789-7.6000977-.2280273-.6171875-.4609375-1.2324219-.6938477-1.847168-.3959961-1.0454102-.7919922-2.0908203-1.1621094-3.1450195-.5102539-1.4541016-1.0986328-3.171875-1.5957031-4.8896484-.6289062-2.1748047-1.1972656-4.4003906-1.746582-6.5527344-.5668945-2.222168-1.1533203-4.5195312-1.8061523-6.7568359-2.2275391-7.6362305-5.3540039-15.0302734-9.293457-21.9765625-2.9052734-5.1235352-6.9179688-9.3286133-12.2680664-12.8554688l-.8232422-.5390625c-.8208008-.5351562-1.6694336-1.0883789-2.4814453-1.6733398-2.4536133-1.7675781-4.1542969-4.0537109-5.0546875-6.7954102-.7319336-2.2290039-1.1914062-4.2006836-1.4038086-6.027832-.5327148-4.5717773-.8842773-9.1025391-1.1982422-13.3505859-.2607422-3.5249023-.8505859-6.7763672-1.8037109-9.9414062-.9677734-3.215332-2.9882812-5.7602539-6.0058594-7.5644531-1.3022461-.7788086-2.6933594-1.5927734-4.121582-2.2387695-2.9838867-1.3486328-5.746582-3.1289062-8.418457-4.8500977-7.0820312-4.5629883-13.1591797-10.2958984-18.6118164-17.5473633-2.6484375-3.5214844-5.7241211-6.96875-9.1425781-10.246582-1.5546875-1.4907227-2.9663086-2.5712891-4.4433594-3.4008789-3.0019531-1.6870117-5.7246094-2.9780273-8.3237305-3.9477539-5.9790039-2.230957-12.7553711-4.7597656-19.0332031-7.9511719-2.7548828-1.4003906-5.7739258-1.9648438-8.9614258-1.6816406-3.3168945.2954102-6.3457031.8359375-9.2587891,1.6513672l-.6132812.171875c-3.1142578.8720703-6.3349609,1.7744141-9.5297852,2.5673828-2.1625977.5361328-5.0009766,1.1499023-7.9575195,1.1113281l-1.1367188-.0126953c-1.777832-.0185547-3.6166992-.0380859-5.4257812-.1289062-3.4765625-.1738281-6.237793-.6870117-8.6884766-1.6142578-1.0751953-.4067383-2.2104492-.7397461-3.3076172-1.0620117l-.6196289-.1821289c-1.9765625-.5854492-3.9018555-.9213867-5.7211914-.9980469-4.2426758-.1796875-8.3779297.1567383-12.2929688.9956055-4.9501953,1.0605469-9.9692383,2.8740234-14.9169922,5.3901367-2.6210938,1.3330078-4.9980469,3.140625-7.0649414,5.3735352-1.487793,1.6079102-2.9291992,3.2485352-4.2832031,4.8769531-1.5698242,1.8881836-3.1171875,3.4033203-4.7299805,4.6308594-2.9975586,2.2807617-6.2055664,4.6816406-9.5683594,6.7597656-.9243164.5712891-1.8305664,1.0449219-2.6938477,1.4082031-1.5791016.6640625-3.043457,1.21875-4.4765625,1.6962891-3.5478516,1.1821289-6.6376953,2.5732422-9.4458008,4.2529297-4.9296875,2.9482422-8.621582,5.8730469-11.6191406,9.2041016-2.8613281,3.1791992-5.4575195,6.4741211-7.6196289,9.277832-1.1513672,1.4931641-2.1054688,2.8525391-2.9174805,4.1557617-.8637695,1.3867188-1.6923828,2.7939453-2.5214844,4.2016602-.7050781,1.1972656-1.4101562,2.394043-2.1362305,3.578125-2.5068359,4.0883789-4.5283203,8.2324219-6.9106445,13.2250977-2.0029297,4.1982422-3.6948242,8.6220703-5.3305664,12.8999023l-.2753906.7192383c-1.3032227,3.4052734-2.8530273,6.7285156-4.605957,9.8774414l-1.1748047,2.1069336c-2.4775391,4.440918-5.0390625,9.0327148-7.3994141,13.6333008-3.472168,6.7695312-5.9379883,14.1044922-7.3286133,21.8017578l-.215332,1.1918945c-.8691406,4.8208008-1.7675781,9.8056641-2.9848633,14.6542969-1.7797852,7.0898438-4.5219727,13.1582031-8.3823242,18.5517578-1.3413086,1.8745117-2.7075195,3.7333984-4.0791016,5.5859375-2.2441406,3.03125-4.0048828,5.6069336-5.5424805,8.1064453-2.4140625,3.9257812-3.9077148,8.4726562-4.5649414,13.9003906-.4384766,3.6171875-.9296875,7.2358398-1.4047852,10.7358398-.1704102,1.2563477-.3564453,2.5107422-.5424805,3.765625-.1601562,1.081543-.3208008,2.1630859-.4711914,3.246582-.1704102,1.2280273-.331543,2.4570312-.4926758,3.6860352-.1713867,1.3066406-.3427734,2.6132812-.5253906,3.9179688-.2670898,1.909668-.5419922,3.8183594-.8164062,5.7270508-.3139648,2.1811523-.6274414,4.362793-.9306641,6.5458984-.4316406,3.1103516-.8862305,6.4438477-1.2875977,9.7451172l-.1152344.9453125c-.5703125,4.6811523-1.1601562,9.5214844-1.6552734,14.2885742-.2382812,2.2871094-.4169922,4.6225586-.590332,6.8808594-.109375,1.4301758-.2192383,2.8603516-.34375,4.2885742-.0751953.8652344-.1933594,1.7265625-.3061523,2.5458984-.0498047.3598633-.0981445.7119141-.1411133,1.0517578-.0151367.1206055-.0742188.2319336-.1650391.3120117l-1.0537109.9306641-.206543,1.347168c-.1616211,1.0463867-.3051758,1.9741211-.4277344,2.9047852-.1367188,1.0400391-.2519531,2.1499023-.3417969,3.2988281-.0581055.7416992.1601562,1.25.6875,1.5996094Z" stroke-width="0"/>
      <path d="m363.5761148,128.1291241c1.9057617,2.3696289,3.0087891,4.9189453,3.2783203,7.5776367.2177734,2.1508789.2915039,4.34375.362793,6.4643555.0634766,1.8959961.1381836,3.699707.3666992,5.4916992.4555664,3.5742188,1.3618164,7.0786133,2.7705078,10.7138672.3959961,1.0224609.7382812,2.0776367,1.0688477,3.0986328l.3681641,1.1298828c1.4501953,4.4345703,2.949707,9.0205078,4.7670898,13.4003906,1.2172852,2.9335938,2.1079102,5.6469727,2.7236328,8.2949219.546875,2.3510742.8745117,4.8535156,1.03125,7.8754883.0405273.7783203.0698242,1.5566406.0991211,2.3349609.0683594,1.8017578.1386719,3.6645508.3535156,5.4858398.5507812,4.6694336,1.2109375,8.8491211,2.0180664,12.7773438.9370117,4.5600586,2.0185547,8.1772461,3.4042969,11.3828125,2.3095703,5.3427734,4.0678711,10.2055664,5.3745117,14.8671875.15625.5566406.3227539,1.1118164.4897461,1.6669922.5097656,1.6982422,1.0375977,3.4541016,1.2553711,5.269043.2724609,2.2729492.7836914,4.5488281,1.2783203,6.7495117.2861328,1.2719727.5717773,2.5439453.8164062,3.8242188.4018555,2.1020508.7661133,4.1669922.8110352,6.3173828.0126953.6137695.0869141,1.2490234.1591797,1.8632812l.0507812.4414062c.065918.5917969.1420898,1.1826172.2182617,1.7734375.1484375,1.1513672.3022461,2.3413086.3774414,3.5249023.1518555,2.3876953.6025391,4.7192383,1.2324219,7.4853516.7138672,3.1318359,3.6640625,4.2138672,6.1005859,3.8891602.9223633-.1225586,1.3876953-.5371094,1.4882812-1.3374023l-.4111328-.6538086-.1445312-.0517578c-.2182617-.0786133-.4272461-.1538086-.6376953-.2250977-1.1245117-.3774414-1.800293-1.184082-2.0083008-2.3979492-.019043-.109375-.0444336-.2182617-.0698242-.3271484-.0351562-.1503906-.0698242-.3007812-.0927734-.4526367-.3608398-2.4072266-.7700195-5.1347656-.9575195-7.8481445-.1616211-2.3486328-.4594727-4.7373047-.7475586-7.046875l-.2133789-1.7226562c-.2294922-1.8896484-.6450195-3.8017578-1.046875-5.6508789-.1611328-.7407227-.3222656-1.4814453-.4726562-2.2231445-.1088867-.5371094-.2368164-1.0717773-.3652344-1.6064453-.2382812-.9916992-.484375-2.0175781-.6030273-3.0556641-.315918-2.75-1.0527344-5.4067383-1.9116211-8.3457031-1.4760742-5.0458984-3.3144531-10.1323242-5.4638672-15.1181641-1.5214844-3.5288086-2.5366211-6.7514648-3.1025391-9.8515625-.2109375-1.1542969-.4370117-2.3056641-.6635742-3.4570312-.3999023-2.0351562-.8134766-4.1391602-1.1308594-6.2275391-.4326172-2.8452148-.9331055-6.6040039-.9677734-10.4482422-.0175781-2-.1855469-4.1557617-.4985352-6.4072266-.5161133-3.7084961-1.5595703-7.4873047-3.1015625-11.2314453-1.2587891-3.0556641-2.7070312-6.7006836-3.9072266-10.565918-.7783203-2.5078125-1.7167969-5.2182617-2.9536133-8.5292969-1.8208008-4.8769531-2.7802734-9.9829102-2.8515625-15.1767578-.0219727-1.5727539-.0605469-3.1459961-.1025391-4.71875-.0742188-2.7949219-.8964844-5.5244141-2.5141602-8.34375-1.5014648-2.6171875-3.6425781-4.6767578-5.706543-6.5620117-1.5830078-1.4458008-2.8857422-2.8261719-3.9829102-4.2202148-2.1357422-2.7143555-4.2553711-5.4418945-6.375-8.1694336l-2.1191406-2.7260742c-.4731445-.6079102-.9379883-1.222168-1.402832-1.8364258-.984375-1.300293-2.0024414-2.6450195-3.0786133-3.8935547-1.128418-1.3100586-2.3579102-2.581543-3.5473633-3.8110352-.5722656-.5922852-1.1450195-1.1845703-1.7094727-1.7836914-.4580078-.4853516-.9111328-.9770508-1.3398438-1.4882812-1.0205078-1.2167969-1.706543-2.6513672-2.0400391-4.2641602-.3764648-1.8237305-.7431641-3.7705078-.7329102-5.7519531.003418-.5751953-.0219727-1.0688477-.0761719-1.5083008l-.1625977-1.3027344c-.375-3.012207-.75-6.0244141-1.1616211-9.0317383-.1918945-1.4033203-.4433594-2.828125-.6865234-4.2055664l-.1791992-1.0166016c-.472168-2.706543-1.0410156-5.5654297-2.331543-8.1547852-.1962891-.3925781-.3339844-.7983398-.4555664-1.15625-.0478516-.1416016-.0932617-.2758789-.1391602-.3979492-.0336914-.090332-.0410156-.1889648-.0200195-.2832031.0732422-.3300781.1933594-.6240234.3095703-.9086914.2695312-.6601562.440918-1.0800781.0336914-1.6606445-.8803711-.1054688-1.6645508-.4794922-2.425293-.8422852-.3574219-.1704102-.7172852-.3422852-1.0878906-.4848633-.815918-.3129883-1.6298828-.7670898-2.3544922-1.3129883-.8535156-.6430664-1.9536133-1.5102539-2.8969727-2.5136719-2.0595703-2.1904297-4.5356445-4.190918-7.5698242-6.1157227-.6674805-.4233398-1.277832-.9042969-1.9501953-1.4428711-.8837891-.7089844-1.7548828-1.4331055-2.6264648-2.1567383l-.5854492-.4863281c-2.1821289-1.809082-4.7827148-3.0195312-7.2675781-4.0576172-1.3608398-.5688477-2.7114258-1.1611328-4.0620117-1.753418l-1.0253906-.4492188c-1.2841797-.5615234-2.5014648-1.3891602-3.7211914-2.5297852l-1.3652344-1.2695312c-.8017578-.7436523-1.6035156-1.4868164-2.3950195-2.2412109-1.2167969-1.159668-2.4975586-2.0478516-3.9135742-2.715332-.4248047-.199707-.8525391-.394043-1.2802734-.5878906-.65625-.2983398-1.3120117-.5961914-1.9584961-.9140625-.4746094-.2333984-.9511719-.4638672-1.4282227-.6948242-1.5229492-.7368164-3.0976562-1.4985352-4.5961914-2.3520508-2.1074219-1.2001953-4.0610352-2.1552734-5.9726562-2.9199219-.8486328-.3393555-1.7060547-.6567383-2.5639648-.9736328-1.9643555-.7270508-3.9956055-1.4785156-5.9013672-2.4980469-1.5102539-.8081055-3.0258789-1.2260742-4.5043945-1.2416992l-.8476562-.0102539c-2.8881836-.0351562-5.8706055-.0722656-8.7587891.4082031-1.6816406.2797852-3.4277344.4453125-5.1889648.4931641-3.8198242.1035156-7.8642578.7563477-12.3637695,1.9960938-3.6533203,1.0068359-7.5629883,2.0332031-11.6582031,2.5551758-.4492188.0571289-.8989258.1245117-1.3481445.1918945-1.1157227.1669922-2.2695312.340332-3.4228516.3544922-4.3666992.0532227-8.8027344.003418-13.0932617-.0449219l-.4057617-.0043945c-.84375-.0097656-1.6894531-.0981445-2.5078125-.1835938-.2958984-.0307617-.5917969-.0615234-.8876953-.0888672-.3833008-.0356445-.7666016-.0859375-1.1494141-.1367188-.7426758-.0976562-1.4428711-.1899414-2.1430664-.1743164-2.7524414.0634766-5.2612305.9819336-8.0209961,2.0849609-.1777344.0708008-.3691406.1821289-.5698242.3320312-.3652344.2734375-.7358398.5419922-1.1064453.8110352-.8891602.6459961-1.809082,1.3134766-2.640625,2.0366211-3.6738281,3.1938477-7.496582,6.8442383-11.6855469,11.1601562-3.7836914,3.8979492-7.6855469,6.8305664-11.9282227,8.965332-1.9707031.9912109-3.9580078,1.6835938-6.0761719,2.1157227-.9956055.2036133-1.9716797.5151367-2.9023438.9267578-2.0249023.8959961-3.5820312,1.7675781-4.9003906,2.7426758-.6738281.4985352-1.3979492.9326172-2.0986328,1.3520508-.3154297.1889648-.6308594.3774414-.9418945.5722656-.9199219.5756836-1.8525391,1.1308594-2.7851562,1.6860352-2.0795898,1.237793-4.2299805,2.5180664-6.1850586,4.0136719-1.7602539,1.347168-2.9477539,2.6889648-3.7358398,4.222168-.4638672.9013672-.8540039,1.7055664-1.1928711,2.4584961-1.6503906,3.659668-3.5454102,7.3979492-5.6318359,11.1113281-.6020508,1.0712891-1.0966797,2.0332031-1.5117188,2.9404297-1.7978516,3.9291992-3.5664062,8.3291016-5.565918,13.847168l-.1972656.5449219c-.9057617,2.5053711-1.8422852,5.0957031-3.0551758,7.543457-.4570312.921875-.9013672,1.8505859-1.3457031,2.7792969-.9321289,1.9477539-1.8959961,3.9619141-2.9658203,5.8842773-2.2329102,4.0126953-4.1533203,7.1855469-6.043457,9.9853516-1.0532227,1.5600586-2.1411133,3.0966797-3.2290039,4.6337891-1.3950195,1.9702148-2.8374023,4.0078125-4.1767578,6.0615234-1.6098633,2.4677734-2.7568359,4.9916992-3.5068359,7.715332-.7573242,2.7504883-1.4370117,5.2973633-2.0776367,7.784668-.3735352,1.449707-.6162109,2.5610352-.7861328,3.6035156-.2207031,1.3510742-.394043,2.737793-.5620117,4.0791016l-.2539062,1.9614258c-.1118164.8154297-.2275391,1.6586914-.2675781,2.4804688-.1699219,3.4614258-.9541016,6.8569336-2.331543,10.0913086-1.7670898,4.1489258-3.9785156,8.4301758-7.1694336,13.8818359-.1645508.2807617-.3540039.5463867-.5439453.8115234-.1567383.2192383-.3139648.4379883-.453125.6669922l-.6557617,1.0732422c-.828125,1.3525391-1.684082,2.7514648-2.4741211,4.1513672-.7827148,1.3876953-1.5380859,2.7910156-2.2929688,4.1943359-.5205078.9672852-1.0410156,1.934082-1.5703125,2.8964844-1.6123047,2.9287109-3.4545898,5.6069336-5.0444336,7.8408203-1.4916992,2.0966797-2.1723633,4.2202148-2.0800781,6.4907227.1137695,2.8129883.0249023,5.6723633-.0615234,8.4370117l-.0263672.8525391c-.0527344,1.7451172-.1494141,4.0410156-.4306641,6.328125-.3076172,2.5024414-.6879883,5.034668-1.0556641,7.4838867-.1523438,1.0136719-.3041992,2.0273438-.4521484,3.0415039-.0908203.6220703-.1772461,1.2451172-.2636719,1.8681641-.199707,1.4345703-.40625,2.918457-.6616211,4.3725586-.8564453,4.8710938-1.6381836,9.6499023-1.8012695,14.5620117-.0297852.8955078-.1220703,1.7954102-.2109375,2.6655273-.0371094.3618164-.0742188.7236328-.1069336,1.0849609l-.1416016,1.5991211c-.1313477,1.4951172-.262207,2.9902344-.4257812,4.4819336-.1396484,1.2714844-.3520508,2.5498047-.5571289,3.7856445l-.0214844.1298828c-.0708008.4267578-.1616211.8500977-.2529297,1.2734375-.0878906.4106445-.1767578.8208008-.2451172,1.234375-.3388672,2.0556641-.8950195,3.8154297-1.7006836,5.3793945-.0966797.1879883-.1625977.4091797-.2392578.6645508-.0180664.0595703-.0361328.1196289-.0546875.1806641.0292969.0458984.0581055.0927734.0864258.1386719.1181641.1918945.2294922.3730469.3466797.4545898.4863281.3393555,1.2260742.4594727,1.9824219.3193359.7016602-.1298828,1.2988281-.4711914,1.5976562-.9125977.3632812-.5361328.6333008-1.1791992.894043-1.8007812l.0952148-.2265625c.6831055-1.6171875,1-3.3852539,1.3066406-5.0957031l.1640625-.9042969c.2807617-1.5107422.4731445-3.0708008.6591797-4.5795898l.1538086-1.2319336c.0615234-.4829102.0966797-.9692383.1323242-1.4560547.0263672-.3598633.0527344-.7192383.0888672-1.078125.0654297-.6494141.1455078-1.2978516.2250977-1.9467773.1572266-1.2773438.3198242-2.5976562.3603516-3.8891602.1225586-3.9282227.7094727-7.8491211,1.2768555-11.6411133l.109375-.7319336c.3237305-2.1704102.659668-4.3388672.9956055-6.5073242.3066406-1.9790039.6137695-3.9580078.9106445-5.9384766.0761719-.5068359.1259766-1.0185547.1757812-1.5297852.0708008-.7226562.1435547-1.4702148.2905273-2.203125.6582031-3.2763672.8198242-6.5908203.9296875-9.7050781.1083984-3.0859375.1381836-6.125.0893555-9.0327148-.0292969-1.7519531.3725586-3.2480469,1.2285156-4.5742188l.1733398-.2700195c.3037109-.4731445.6083984-.9472656.9467773-1.3950195,1.859375-2.4604492,3.6020508-5.2553711,5.4853516-8.7958984l.7890625-1.4887695c1.8920898-3.5795898,3.8491211-7.28125,6.277832-10.6567383.5395508-.75.9829102-1.5703125,1.465332-2.4873047l1.0341797-1.9594727c1.2294922-2.3256836,2.5009766-4.7299805,3.6723633-7.128418,2.2695312-4.6484375,3.4365234-9.1606445,3.5668945-13.7944336.0151367-.5302734.09375-1.0522461.1699219-1.5571289.0317383-.2114258.0639648-.4233398.0908203-.6352539l.1557617-1.230957c.1362305-1.0878906.2729492-2.1757812.4282227-3.2607422l.0585938-.4111328c.1269531-.902832.2583008-1.8364258.4907227-2.7421875l.1943359-.7587891c.769043-3.0058594,1.5639648-6.1137695,2.4682617-9.1396484.5546875-1.8544922,1.1967773-3.371582,1.9638672-4.637207,1.3916016-2.296875,2.940918-4.5429688,4.4384766-6.7158203l.8178711-1.1875c.6206055-.9033203,1.2641602-1.7915039,1.9082031-2.6796875.847168-1.168457,1.7231445-2.3764648,2.5244141-3.597168,2.7456055-4.1835938,5.3920898-8.9541016,8.0917969-14.5844727,1.6323242-3.4052734,2.8554688-6.2680664,3.8486328-9.0083008,1.2519531-3.4541016,2.605957-6.9335938,3.9150391-10.2988281l.4360352-1.1201172c1.015625-2.6132812,2.2358398-5.1953125,3.7299805-7.8930664,1.1699219-2.1108398,2.2709961-4.3115234,3.3354492-6.4394531l.7143555-1.425293c.3422852-.6801758.6606445-1.371582.9794922-2.0634766.3139648-.6801758.6274414-1.3608398.9624023-2.0302734l.0458984-.0917969c.5976562-1.1948242,1.215332-2.4306641,2.3676758-3.2807617,1.8808594-1.3876953,3.6450195-2.6054688,5.3935547-3.7231445,3.1801758-2.0336914,6.3505859-3.9633789,8.7568359-5.4169922,1.5053711-.9091797,3.5449219-2.0097656,5.9794922-2.4550781,1.4521484-.2661133,2.9902344-.7666016,4.5712891-1.487793,5.2744141-2.4042969,9.6171875-5.4047852,13.2768555-9.1723633,1.0581055-1.0898438,2.1240234-2.1728516,3.2133789-3.2319336.769043-.7475586,1.5458984-1.4873047,2.3227539-2.2270508.9882812-.9404297,1.9760742-1.8813477,2.9477539-2.8383789,2.0615234-2.0317383,4.2895508-3.9570312,6.6235352-5.7231445,1.8676758-1.4125977,4.0356445-1.9086914,6.1328125-2.3886719.4990234-.1142578.9262695-.065918,1.3046875-.0239258l.3115234.0317383c.5410156.0449219,1.0820312.1000977,1.6225586.1552734,1.0131836.1035156,2.0610352.2109375,3.0844727.2387695,1.7548828.0483398,3.5107422.0693359,5.2666016.090332,2.3696289.0283203,4.8203125.0581055,7.230957.1567383,2.5424805.1025391,5.0986328-.277832,7.5673828-.6474609.7294922-.1088867,1.4584961-.2177734,2.1875-.3154297,3.4731445-.4638672,6.9150391-1.402832,10.1425781-2.3251953,4.0756836-1.1645508,7.8144531-1.7744141,11.4306641-1.8652344,1.7373047-.043457,3.1567383-.168457,4.4667969-.3935547,2.1948242-.3774414,4.5996094-.5839844,7.5678711-.6503906.0571289-.0009766.1142578-.0019531.1708984-.0019531.9189453,0,1.753418.1674805,2.546875.5097656.3745117.1621094.7426758.3378906,1.1103516.5141602.3461914.1655273.6923828.331543,1.0439453.484375l.1191406.0517578c.9648438.4204102,1.9633789.8549805,2.9580078,1.2324219l.9277344.3505859c3.3046875,1.2460938,6.7216797,2.5351562,9.7421875,4.5996094.2939453.2006836.6303711.3579102.9863281.5244141l1.2988281.6137695c1.5883789.7519531,3.1767578,1.5039062,4.7758789,2.2319336,2.2026367,1.0029297,3.9589844,2.1850586,5.3701172,3.6132812.8969727.9091797,1.8647461,1.7890625,2.8007812,2.6401367l.6420898.5849609c1.1772461,1.0766602,2.4541016,1.9375,3.7949219,2.559082.347168.1611328.6933594.3256836,1.0390625.4902344.6621094.3154297,1.3242188.6303711,1.9970703.9208984.6606445.2856445,1.3291016.5541992,1.9970703.8222656.6157227.2475586,1.2314453.4951172,1.8413086.7553711,3.1474609,1.3442383,5.7207031,3.4008789,7.8227539,5.2348633l.1147461.1000977c.684082.597168,1.3911133,1.2148438,2.1445312,1.7001953,3.1142578,2.0039062,5.7592773,4.1254883,8.0854492,6.4868164,2.3491211,2.3847656,4.5986328,3.7763672,7.0791016,4.3808594.2104492.0512695.3203125.2021484.3793945.2836914.0698242.0810547.1611328.2460938.1694336.3530273.015625.2050781.0229492.4179688.0302734.6342773.0151367.4575195.03125.9306641.1391602,1.3535156.1005859.394043.2763672.7788086.4619141,1.1860352.1445312.3168945.2885742.6347656.4023438.9614258l.0449219.1289062c.3710938,1.0644531.7543945,2.1655273,1.027832,3.2856445.9570312,3.9243164,1.4780273,7.9199219,1.8618164,11.3115234.1000977.8857422.2314453,1.7685547.362793,2.6513672.2719727,1.824707.5527344,3.7114258.5473633,5.6142578-.0068359,2.4042969.3764648,4.7543945.7524414,6.7358398.371582,1.9580078,1.0839844,3.5800781,2.1782227,4.9580078.7084961.8925781,1.5166016,1.7885742,2.4711914,2.7387695,2.2094727,2.2011719,5.0507812,5.1621094,7.4282227,8.5522461.5283203.7529297,1.1318359,1.4838867,1.7158203,2.1914062.2822266.3422852.5649414.6845703.8413086,1.03125l.5317383.6645508c.4819336.6015625.9638672,1.203125,1.4360352,1.8125.6621094.8554688,1.3208008,1.7143555,1.9790039,2.5727539,1.222168,1.5932617,2.4443359,3.1865234,3.690918,4.7607422,1.0917969,1.3793945,2.4160156,2.7666016,4.1674805,4.3662109,1.5883789,1.4506836,2.8974609,2.8232422,4.0014648,4.1953125Z" stroke-width="0"/>
      <path d="m41.8397867,317.8674054c.0361328-.2255859.2202148-.3979492.4477539-.4189453l4.8867188-.449707c.0151367-.0014648.0307617-.0019531.0458984-.0019531.0410156,0,.0820312.0048828.121582.0151367l1.722168.4321289c.0986328.0244141.1870117.0786133.2539062.1547852l2.5507812,2.9057617c2.5952148,2.956543,4.4765625,6.5258789,5.7519531,10.9111328,1.5117188,5.1958008,1.9267578,10.4399414,2.1337891,14.8842773.1206055,2.5839844.1870117,5.2104492.2514648,7.7509766.0478516,1.8798828.0952148,3.7597656.1640625,5.6386719.1264648,3.4511719,2.074707,5.7333984,5.4863281,6.4257812,1.2583008.2558594,2.4858398.402832,3.6469727.4370117,1.8022461.0537109,3.3647461.7080078,4.7773438,1.9995117,1.0864258.9946289,2.0083008,2.097168,2.7392578,3.277832l1.2919922,2.0761719c1.1699219,1.8774414,2.3398438,3.7553711,3.4755859,5.652832,1.0991211,1.8374023,2.2631836,3.6816406,3.3891602,5.4648438,1.9487305,3.0869141,3.9638672,6.2792969,5.7231445,9.5634766.1645508.3071289.359375.5986328.5541992.890625.1674805.2514648.3344727.5029297.4863281.7636719l.1894531.3251953c.7993164,1.3696289,1.5986328,2.7402344,2.3613281,4.1308594.5463867.9956055,1.0561523,2.0117188,1.5654297,3.0273438l.3359375.668457c.3706055.7368164.9394531,1.1040039,1.7900391,1.15625.5161133.03125.9145508.0566406,1.2949219.0117188.9555664-.1108398,1.4072266-.5283203,1.5307617-1.4306641-.3525391-.7358398-.6967773-1.4863281-1.0444336-2.2426758-.9575195-2.0854492-1.9472656-4.2412109-3.1796875-6.2558594-.7568359-1.2363281-1.4814453-2.4921875-2.2060547-3.7480469l-.8886719-1.5341797c-.2231445-.3837891-.4423828-.7695312-.6616211-1.1557617-.4277344-.7524414-.8554688-1.5053711-1.3139648-2.2387695-3.2001953-5.1196289-6.605957-10.5615234-9.9741211-15.8618164-.6484375-1.0205078-1.4277344-2.0625-2.3164062-3.0976562-2.2485352-2.6171875-5.1645508-3.9765625-8.6669922-4.0390625-.7773438-.0141602-1.5351562-.1240234-2.4345703-.2851562-1.6049805-.2871094-2.621582-1.3500977-2.9404297-3.0737305-.1103516-.5961914-.1313477-1.2001953-.1518555-1.7841797l-.0166016-.440918c-.0913086-2.0366211-.125-4.1049805-.1577148-6.105957-.0541992-3.284668-.1098633-6.6811523-.4213867-10.0043945-.2202148-2.3579102-.5634766-5.4536133-1.262207-8.4931641-1.4833984-6.4501953-3.8745117-11.25-7.5244141-15.1044922-.159668-.1689453-.2905273-.3642578-.4223633-.5668945-.0512695-.0786133-.1030273-.1586914-.1586914-.2373047-.0854492-.1210938-.1132812-.2739258-.0751953-.4169922.0380859-.1435547.1381836-.262207.2724609-.3251953l.1113281-.0566406c.0878906-.0473633.2089844-.112793.3725586-.112793.2719727.0004883.484375.0043945.6875.0454102,6.0791016,1.2333984,11.7631836,1.4560547,17.3754883.6835938,3.0737305-.4238281,5.7109375-1.2739258,8.0620117-2.5986328,3.7797852-2.1308594,6.3901367-5.440918,7.7573242-9.8388672.5942383-1.9116211.9077148-4.0195312.9326172-6.2651367.0405273-3.6220703-.2456055-7.0825195-.8505859-10.2861328-.5942383-3.1464844-1.9658203-5.9506836-4.0771484-8.3349609-1.0273438-1.1606445-2.2827148-1.9311523-3.730957-2.2910156-3.5249023-.8779297-6.5751953-.4541016-9.3227539,1.2949219-3.1948242,2.0327148-5.9970703,4.309082-8.3295898,6.7666016-3.5249023,3.7133789-7.0761719,7.5205078-10.5107422,11.2021484-1.6723633,1.7929688-3.3447266,3.5854492-5.0209961,5.375-.1875.2006836-.3647461.4121094-.543457.6254883-.4731445.5649414-.9624023,1.1484375-1.6894531,1.6289062-.1381836.0913086-.3115234.1079102-.4638672.0463867-1.7709961-.7177734-3.7382812-.6586914-5.6020508-.5361328-.1499023.0078125-.3012695-.050293-.4038086-.1640625l-.3647461-.3994141c-.253418-.2768555-.4960938-.5410156-.7280273-.8144531-1.4448242-1.699707-2.8867188-3.4023438-4.328125-5.1049805l-.90625-1.0703125c-2.2436523-2.6494141-4.9414062-5.1523438-8.7470703-8.1162109-3.7788086-2.9418945-7.8920898-4.2553711-12.5766602-4.0063477-3.4750977.1826172-6.2602539,1.6303711-8.2788086,4.3017578-1.7631836,2.3339844-2.890625,5.1142578-3.3515625,8.2641602-.1401367.9604492-.2158203,1.9555664-.2885742,2.9174805-.0732422.9667969-.1489258,1.9667969-.2910156,2.9487305-.4321289,2.9887695.0297852,6.0219727,1.4536133,9.5458984.5913086,1.4638672,1.5419922,2.7285156,2.90625,3.8676758,1.675293,1.3984375,3.4287109,2.3168945,5.3613281,2.8076172,5.3369141,1.3554688,10.0991211,1.2807617,14.559082-.2265625,2.8300781-.956543,5.2900391-2.1474609,7.519043-3.640625l.3286133-.2202148c.878418-.5883789,1.7563477-1.1767578,2.640625-1.7558594.2250977-.1469727.4614258-.2763672.6953125-.4038086l.2910156-.1606445c.222168-.1259766.5009766-.0639648.6508789.1411133l1.890625,2.6005859c.0830078.1142578.1137695.2583008.0849609.3964844-.0288086.1376953-.1147461.2573242-.2363281.3286133l-1.4208984.8334961c-.4863281.6210938-.375,1.1733398-.2358398,1.8666992l.0561523.2875977c.0180664.0991211.0063477.2011719-.034668.2929688-1.4951172,3.3730469-2.7949219,6.9667969-3.8632812,10.6816406-1.2363281,4.2988281-2.2607422,7.7807617-3.2246094,10.9584961-.4560547,1.5039062-.9697266,2.9541016-1.5273438,4.3110352-.7573242,1.8422852-2.0703125,3.0922852-3.9038086,3.715332-.456543.1552734-.9091797.3227539-1.3618164.4902344-.6015625.2226562-1.203125.4453125-1.8134766.6401367-3.5493164,1.1352539-6.152832,3.324707-7.9589844,6.6928711-1.0234375,1.9091797-1.6572266,4.0571289-1.9360352,6.5664062-.3569336,3.2006836-.4213867,6.4868164-.4570312,9.5786133-.0185547,1.5727539.2924805,3.1166992.9243164,4.5878906.4179688.9741211.8989258,1.9477539,1.3642578,2.8896484l.1430664.2895508c.2089844.4238281.4287109.8422852.6484375,1.2607422.3325195.6333008.6645508,1.2666016.9609375,1.9165039,1.0991211,2.4018555,1.0185547,4.7114258-.2387695,6.8647461-1.8725586,3.2075195-3.7709961,6.3012695-6.3950195,8.8920898-.5688477.5615234-1.1210938,1.1391602-1.6738281,1.7172852l-.519043.5419922c-.409668.425293-.6464844.7573242-.644043,1.1943359.0825195.4194336.3642578.7265625.9067383.9101562,1.4628906.4956055,2.5844727.2924805,3.5249023-.6391602,1.074707-1.0644531,2.1469727-2.1328125,3.2084961-3.2104492,2.5795898-2.6210938,4.4995117-5.7397461,6.1899414-8.7192383.3334961-.5874023.5839844-1.2294922.7646484-1.7236328.46875-1.2783203.5742188-2.5175781.3217773-3.7900391-.3027344-1.5249023-.7734375-2.871582-1.4384766-4.1162109-.7666016-1.4360352-1.5366211-2.9291992-2.3540039-4.5649414-.7861328-1.5727539-1.1464844-3.2573242-1.0712891-5.0078125l.078125-1.8925781c.0854492-2.090332.1733398-4.2514648.3134766-6.3769531.1621094-2.4604492.8803711-4.7260742,2.1352539-6.7348633,1.5126953-2.4213867,3.4277344-3.9521484,5.8535156-4.6791992.6645508-.1992188,1.3173828-.4360352,1.9707031-.6728516.3955078-.1430664.7905273-.2861328,1.1884766-.4213867,3.1416016-1.0703125,5.2460938-3.1826172,6.2543945-6.2773438.6147461-1.8876953,1.1958008-3.7866211,1.7763672-5.6850586l.6171875-2.0131836c.40625-1.3173828.8076172-2.6367188,1.2084961-3.9560547.8637695-2.8398438,1.7563477-5.7763672,2.6884766-8.6503906.2954102-.9111328.6518555-1.8085938.9960938-2.6767578.6445312-1.6245117,1.253418-3.1586914,1.5170898-4.8081055Zm9.7543945-8.1899414l.0722656-.1342773c.237793-.4555664.4799805-.9091797.7216797-1.362793.4052734-.7602539.8105469-1.5205078,1.1967773-2.2900391.3945312-.7866211.6635742-1.4453125.2529297-2.1621094-.1069336-.1870117-.0820312-.4208984.0610352-.581543l.4580078-.5170898c.2539062-.2880859.4545898-.515625.6635742-.7353516l1.6298828-1.715332c3.1728516-3.3388672,6.3457031-6.6777344,9.5258789-10.0092773,2.4912109-2.6098633,5.5219727-5.6015625,9.1152344-8.0053711.5869141-.3920898,1.2036133-.7460938,1.7998047-1.0878906l.0883789-.050293c1.0283203-.5898438,2.1123047-.4941406,3.1357422.2788086.8857422.6689453,1.6337891,1.5356445,2.4248047,2.8105469,1.2641602,2.0380859,2.0332031,4.4140625,2.3520508,7.2646484.2207031,1.9726562.3261719,3.9838867.4287109,5.9291992l.0302734.5688477c.0966797,1.8203125-.1196289,3.7158203-.6606445,5.7939453-1.4975586,5.7548828-5.1699219,9.3349609-10.9160156,10.6401367-2.0551758.4663086-4.2133789.7001953-6.453125.7001953-1.6103516,0-3.2631836-.1206055-4.9501953-.3623047-3.1625977-.453125-5.9648438-1.081543-8.5664062-1.9208984-.5712891-.184082-1.1303711-.4042969-1.6430664-.6064453l-.6206055-.2412109c-.1157227-.043457-.2109375-.128418-.2675781-.2387695-.4624023-.8959961-.1113281-1.5395508.1206055-1.965332Zm-10.2177734,1.7866211c2.1196289-.7402344,2.2470703-.7856445,3.6303711-.3305664.2353516.0776367.378418.3154297.3364258.5595703-.1606445.9360352-.6005859,1.7719727-1.4277344,2.7104492-.0966797.1098633-.234375.1694336-.375.1694336-.0654297,0-.1313477-.0126953-.1938477-.0390625-1.3164062-.5537109-2.0454102-1.3452148-2.2939453-2.4916992-.0532227-.246582.0854492-.4946289.3237305-.578125Zm-4.7250977-3.3393555c-.8818359,1.0195312-1.8022461,1.6899414-2.5859375,2.2114258l-1.2680664.8457031c-1.4736328.9848633-2.9975586,2.003418-4.5297852,2.9599609-3.0131836,1.8808594-5.9443359,3.0351562-8.9609375,3.527832-.7875977.128418-1.5751953.1928711-2.3608398.1928711-1.8515625,0-3.6904297-.3574219-5.4916992-1.0693359-2.9223633-1.1538086-4.8564453-3.2275391-5.7490234-6.1630859-.7138672-2.3476562-.9677734-4.7001953-.7543945-6.9926758.2299805-2.4702148.4526367-4.3466797.7226562-6.0830078.3901367-2.5083008,1.3569336-4.8232422,2.8725586-6.8798828.4677734-.6352539,1.0229492-1.2055664,1.6044922-1.6489258,1.6274414-1.2416992,3.293457-1.5576172,5.0966797-.9614258,1.4575195.480957,3.0004883,1.0634766,4.4121094,2.0605469,3.3134766,2.3393555,5.8701172,4.5126953,8.0444336,6.8398438,2.8847656,3.0869141,5.7138672,6.3642578,8.4091797,9.7402344.1132812.1416016.2167969.2919922.3476562.4833984l.222168.3217773c.1318359.1879883.1191406.4414062-.03125.6147461Z" stroke-width="0"/>
      <path d="m427.333439,311.080296c.1777344.1030273.3369141.1958008.4897461.2973633,4.2158203,2.7998047,9.1411133,4.5673828,15.5,5.5625,2.6918945.4223633,5.3774414.1479492,7.9746094-.1176758,4.9829102-.5073242,9.0234375-2.9985352,12.0092773-7.4042969,1.7792969-2.6240234,2.9555664-5.5507812,3.4960938-8.699707.4418945-2.574707.7163086-4.7392578.6191406-6.9345703-.0917969-2.0742188-.2109375-4.5351562-.3964844-7.0585938-.2060547-2.7910156-1.1240234-5.4243164-2.8071289-8.0493164-.9047852-1.4106445-2.1391602-2.28125-3.7734375-2.6611328-1.6279297-.378418-3.1074219-.4404297-4.5205078-.1904297-2.300293.4067383-4.3417969,1.0683594-6.2402344,2.0234375-2.3271484,1.1699219-4.6420898,2.625-7.2861328,4.5791016-.8691406.6420898-1.7490234,1.2700195-2.628418,1.8984375-1.2963867.9257812-2.637207,1.8833008-3.9155273,2.8691406-2.359375,1.8203125-4.6962891,3.6694336-7.0332031,5.5180664-1.4868164,1.1762695-2.9736328,2.3530273-4.4667969,3.5219727-1.0620117.8320312-2.2470703,1.6845703-3.7167969,2.284668-.1762695.0722656-.3798828.0371094-.5224609-.090332-1.7456055-1.5634766-3.9682617-1.5385742-6.3261719-1.5092773l-.1416016.0014648c-.15625.0073242-.2832031-.059082-.3789062-.1669922l-1.5854492-1.7768555-1.3896484-.6455078c-.1025391-.0478516-.1860352-.1289062-.2368164-.2299805-.7705078-1.5395508-2.0634766-2.6020508-3.3461914-3.5205078-1.0913086-.7817383-2.2788086-1.5942383-3.737793-2.5581055-4.6850586-3.09375-10.0214844-5.3891602-16.3139648-7.0170898-1.9375-.5009766-4.0166016-.7475586-6.355957-.7543945h-.0449219c-1.7514648,0-3.2597656.2695312-4.6098633.8232422-3.0605469,1.2563477-5.5249023,2.8789062-7.534668,4.9604492-2.0966797,2.1713867-3.7250977,4.3544922-4.9790039,6.6738281-.9985352,1.8481445-2.1020508,4.0537109-2.7163086,6.4018555-.6923828,2.6474609-.1826172,5.0532227,1.5141602,7.1513672.5664062.7001953,1.1928711,1.3413086,1.8623047,1.9052734,3.8540039,3.2460938,8.3852539,5.5180664,13.4677734,6.7519531,3.7192383.9038086,7.7358398,1.309082,12.2661133,1.2241211.8681641-.0151367,1.6225586-.0712891,2.3066406-.171875,3.4404297-.5058594,6.652832-1.4213867,9.5473633-2.7216797,1.4560547-.6542969,2.9082031-1.3974609,4.3125-2.1162109.6225586-.3183594,1.2451172-.637207,1.8701172-.949707.0625-.03125.1235352-.0678711.1845703-.1044922.2089844-.125.4936523-.2944336.847168-.2978516.1240234-.0957031.2900391-.1293945.4492188-.081543.2348633.0712891.3833008.3027344.3500977.5458984l-.0219727.1611328c-.0087891.0649414-.0302734.1259766-.0615234.1811523-.0039062.0410156-.0073242.0825195-.0107422.1235352-.0234375.284668-.0478516.5791016-.1313477.8774414l-.0600586.2138672c-.9814453,3.5102539-1.996582,7.140625-2.3564453,10.8291016-.065918.675293-.1821289,1.3481445-.2944336,1.9985352-.0541992.3139648-.1083984.628418-.1572266.9428711-.550293,3.5449219-.8217773,6.4443359-.8544922,9.1240234l-.0541992,4.9399414c-.0009766.081543-.0219727.1621094-.0610352.2338867-1.1948242,2.1948242-1.6416016,2.6235352-3.6777344,3.5302734l-1.171875.5200195c-1.8637695.8261719-3.7905273,1.6806641-5.6450195,2.5927734-4.4467773,2.1875-7.8681641,5.6279297-10.1689453,10.2246094-.965332,1.9291992-1.9770508,4.2573242-2.1621094,6.8969727-.1088867,1.5551758-.1704102,2.8496094.1040039,4.1733398.2368164,1.1455078.4248047,2.3144531.6069336,3.4448242.1586914.9848633.3173828,1.9697266.5083008,2.9482422.4174805,2.1396484.043457,4.2329102-1.1113281,6.2216797-1.0078125,1.7338867-1.9379883,3.2807617-3.1220703,4.6577148-3.2451172,3.7729492-6.574707,5.5678711-10.4790039,5.6489258-.1591797.0029297-.3173828.0219727-.4755859.0405273-.5517578.0615234-.8891602.2416992-1.15625.6005859v.8041992c.4125977.5029297.9135742.7353516,1.6899414.793457,2.7631836.2041016,5.0224609-.1367188,7.1103516-1.0771484,4.8647461-2.190918,8.5493164-6.0302734,11.2631836-11.7373047.6411133-1.3476562.9487305-2.8544922.8896484-4.3569336-.0664062-1.6748047-.2773438-3.28125-.6274414-4.7749023-.4467773-1.9077148-.6879883-3.4755859-.7602539-4.9350586-.121582-2.4672852.362793-4.921875,1.4404297-7.2963867,2.2250977-4.9052734,5.4663086-8.3452148,9.9082031-10.5170898,1.1943359-.5839844,2.4072266-1.1303711,3.6206055-1.6767578.6538086-.2949219,1.3076172-.5893555,1.9589844-.8901367.2265625-.1044922.4555664-.2050781.6850586-.3056641.6230469-.2734375,1.2114258-.5317383,1.7504883-.8676758,2.3164062-1.4428711,3.4692383-3.3725586,3.5239258-5.8989258.0078125-.34375.0092773-.6875.0102539-1.03125.0014648-.3120117.0024414-.6245117.0083008-.9365234l.0146484-.8686523c.0327148-2.0532227.0668945-4.1762695.3842773-6.2661133.0839844-.5532227.175293-1.1064453.2670898-1.6591797.2143555-1.2954102.4360352-2.6352539.5512695-3.9516602.3574219-4.0849609,1.4072266-8.0810547,2.4521484-11.8242188.0996094-.3574219.2358398-.7045898.3691406-1.0410156l.1606445-.4140625c.0732422-.1992188.2626953-.3266602.4682617-.3266602.0288086,0,.0576172.0024414.0864258.0073242l4.5014648.784668c.1665039.0292969.3076172.140625.3740234.2963867.1694336.3969727.3334961.7949219.4970703,1.1923828.3500977.8500977.7124023,1.7294922,1.1176758,2.559082,1.0166016,2.081543,2.4770508,3.8789062,4.0102539,5.6889648,1.4975586,1.7666016,3.0917969,3.6801758,4.6083984,5.703125,1.8208008,2.4282227,2.8945312,4.762207,3.2836914,7.1347656.237793,1.4541016.3925781,3.0087891.4731445,4.753418.1123047,2.4296875.1518555,4.6289062.1206055,6.7236328-.027832,1.8754883.4301758,3.7885742,1.3989258,5.8486328,1.2524414,2.6645508,2.9755859,4.5605469,5.2680664,5.7958984,1.3598633.7324219,2.6411133,1.2080078,3.9179688,1.4536133.309082.0595703.6206055.1098633.9321289.1606445.4770508.0771484.9541016.1547852,1.4243164.262207l.1201172.0268555c.8217773.1860352,1.7529297.3964844,2.5292969,1.2275391.0327148.0351562.0600586.0751953.081543.1181641,1.2988281,2.6040039,1.8535156,5.0058594,1.6962891,7.3432617l-.0493164.7475586c-.0942383,1.4370117-.1914062,2.9233398-.3950195,4.3793945-.3549805,2.5415039-.5708008,5.2133789-.6591797,8.1689453-.1293945,4.309082,1.4228516,8.0673828,4.7446289,11.4892578,1.9453125,2.0029297,4.1074219,3.0913086,6.6103516,3.3271484,1.300293.1225586,2.6430664.1362305,3.9418945.1499023l.3696289.0039062c.5874023.0053711,1.0810547-.1923828,1.4233398-.5595703.1357422-.1459961.2353516-.3867188.3408203-.6420898.0195312-.0483398.0395508-.0961914.0600586-.1445312l-.5893555-.762207c-.315918-.03125-.6308594-.0639648-.9443359-.0966797-.8881836-.0927734-1.7275391-.1801758-2.5834961-.2250977-1.2851562-.0678711-2.4238281-.4941406-3.3852539-1.2680664-3.5771484-2.8803711-5.3740234-6.2460938-5.4931641-10.2890625-.0834961-2.8476562.2148438-5.6694336.527832-8.3154297l.097168-.8188477c.1757812-1.4814453.3515625-2.9628906.5009766-4.4472656.2602539-2.5786133-.190918-5.1875-1.4199219-8.2089844-.6567383-1.6152344-1.7407227-2.6064453-3.3139648-3.0302734-1.3032227-.3515625-2.4858398-.6166992-3.6152344-.8105469-3.3286133-.5708008-5.7998047-2.3183594-7.3457031-5.1943359-1.0234375-1.9038086-1.5512695-3.949707-1.5693359-6.0810547-.0288086-3.2993164-.0805664-5.8452148-.168457-8.2548828-.1279297-3.4985352-1.0454102-6.6186523-2.7275391-9.2729492-.7758789-1.2236328-1.6108398-2.3964844-2.4824219-3.4858398-1.2915039-1.6137695-2.7407227-3.3388672-4.4316406-5.2734375-1.2724609-1.4570312-2.4204102-3.1337891-3.5087891-5.1264648-.1816406-.3330078-.2978516-.6806641-.4208984-1.0488281-.0551758-.1655273-.112793-.3378906-.1791992-.5166016-.0537109-.1430664-.0385742-.3027344.0405273-.4335938s.2133789-.2182617.3647461-.2373047l2.0498047-.2597656c.1118164-.0126953.2226562.0097656.3193359.0668945l.262207.1538086Zm-17.3901367-7.7797852c.0493164.293457.1000977.5976562.1435547.9179688.0209961.15625-.0327148.3134766-.1455078.4238281-.0605469.059082-.1245117.1308594-.1938477.2070312-.1962891.2167969-.440918.4863281-.7514648.6928711-3.9658203,2.6328125-9.324707,5.8554688-15.6157227,7.4199219-1.7368164.4316406-3.3754883.6435547-4.987793.6435547-.2148438,0-.4287109-.003418-.6430664-.0112305-2.8242188-.0986328-5.2958984-.3759766-7.5571289-.8486328-3.0673828-.6411133-5.862793-2.0083008-8.1933594-3.2607422-.8740234-.4697266-1.6074219-.925293-2.2426758-1.3925781-1.1264648-.8286133-2.0170898-1.5478516-2.8027344-2.2636719-2.1547852-1.9609375-2.7387695-4.4394531-1.6889648-7.1674805,1.6635742-4.3208008,3.8022461-7.8188477,6.5380859-10.6938477,1.5292969-1.6069336,3.2719727-2.909668,5.3276367-3.9819336,1.9614258-1.0219727,3.8300781-1.2661133,5.7182617-.746582l1.2539062.3413086c1.6000977.4326172,3.2543945.8803711,4.8515625,1.4326172,5.1362305,1.777832,10.0986328,4.4960938,14.7485352,8.0795898.0786133.0605469.1376953.1430664.1689453.2373047l.9887695,2.9594727c.4536133.4985352,1.0087891.5917969,1.7036133.7080078.4575195.0771484.9755859.1640625,1.4868164.3920898l1.9038086,1.3334961c.1577148.1113281.2373047.3041992.2041016.4946289-.0463867.2636719-.1020508.5253906-.1577148.7856445-.1201172.5639648-.2333984,1.097168-.2426758,1.6191406-.0087891.5258789.0810547,1.0595703.1850586,1.6782227Zm8.9189453,3.1586914c-.0800781.2832031-.1640625.5795898-.2280273.8989258-.03125.1572266-.1362305.2895508-.2817383.3564453-.0664062.0302734-.1376953.0454102-.2084961.0454102-.0849609,0-.1694336-.0214844-.2456055-.0644531-1.284668-.7236328-1.8388672-1.6201172-2.2460938-2.480957-.0605469-.128418-.0639648-.2763672-.0087891-.4072266.0546875-.1308594.1625977-.2324219.296875-.2788086l2.4375-.8476562c.128418-.0439453.2666016-.0351562.3876953.0249023.1206055.0600586.2114258.1665039.2524414.2949219.2856445.8945312.0712891,1.6538086-.1557617,2.4584961Zm7.7592773-2.3603516c-.3466797-.652832-.6591797-1.378418-.3520508-2.4316406.015625-.0537109.0405273-.1049805.0732422-.1503906l1.1416016-1.5981445.0620117-1.3676758c.0048828-.1113281.046875-.2172852.1186523-.3017578.1152344-.1547852.2294922-.309082.3920898-.4375,1.9165039-1.5107422,3.8354492-3.0185547,5.7612305-4.5166016,5.1943359-4.0380859,9.9067383-7.6577148,14.9814453-11.0615234,1.5664062-1.0512695,5.5668945-3.5258789,8.8701172-3.8012695.0371094-.0043945.0766602-.0024414.1137695.003418,1.1899414.1738281,1.8081055,1.0097656,2.2944336,1.7797852,1.3847656,2.1962891,2.1879883,4.640625,2.3867188,7.265625l.1054688,1.3510742c.0947266,1.1889648.1889648,2.3779297.2514648,3.5688477.1503906,2.871582-.0986328,5.809082-.7397461,8.7314453-.5576172,2.5449219-1.6455078,5.0170898-3.2338867,7.347168-1.1884766,1.7436523-2.8237305,3.2006836-4.9985352,4.4550781-.6953125.4008789-1.5141602.7036133-2.3681641.875-1.6831055.3388672-3.2192383.5083008-4.6538086.5083008-1.5712891,0-3.0205078-.203125-4.409668-.6103516-2.2695312-.6655273-4.4833984-1.3339844-6.6171875-2.1948242-2.3071289-.9311523-4.4892578-2.296875-6.4858398-4.059082-1.15625-1.0209961-2.0371094-2.1186523-2.6933594-3.3549805Z" stroke-width="0"/>
      <path d="m390.8920328,455.7492413l-.7128906.9902344c-.5214844.7275391-1.0610352,1.4794922-1.690918,2.1494141-1.5629883,1.6645508-2.8901367,3.5839844-4.0566406,5.8686523-1.612793,3.1586914-2.8779297,6.4516602-4.0361328,9.5532227-1.0883789,2.9165039-2.2475586,5.859375-3.3681641,8.7060547-1.7397461,4.4174805-3.5385742,8.9853516-5.1103516,13.546875-.3823242,1.1103516-.7539062,2.2260742-1.1005859,3.3481445-1.8916016,6.1220703-3.1801758,12.5048828-4.4257812,18.6777344-.2358398,1.168457-.4716797,2.3364258-.7114258,3.503418-1.0112305,4.9233398-2.0004883,9.3530273-3.8725586,13.7041016-1.1733398,2.7260742-2.7563477,5.0546875-4.8383789,7.1181641l-.3955078.3911133c-.4282227.4233398-.8569336.847168-1.2783203,1.2773438-3.1503906,3.2172852-6.1567383,5.8081055-9.1914062,7.9204102-1.7480469,1.2172852-3.5292969,2.671875-5.6054688,4.5776367-1.2373047,1.137207-2.6103516,2.2436523-4.1967773,3.3823242-.7631836.5473633-1.6958008,1.0102539-2.7724609,1.3764648-2.5180664.8579102-5.1547852,1.2138672-7.8598633,1.5317383-.6806641.0800781-1.3647461.1308594-2.0493164.1811523-.6992188.0517578-1.3984375.1035156-2.0942383.1879883-2.6899414.3251953-4.6420898,1.1542969-6.1425781,2.609375-.8764648.8505859-1.6274414,1.894043-2.4345703,3.3823242-1.2099609,2.2314453-1.9350586,4.7021484-2.6362305,7.0913086-.1845703.6298828-.3696289,1.2592773-.5629883,1.8857422-.4082031,1.3232422-.7998047,2.6513672-1.1918945,3.9794922-.5175781,1.7548828-1.0356445,3.5102539-1.5913086,5.253418-.6982422,2.1889648-1.8496094,4.2583008-3.5195312,6.3266602-1.0307617,1.2758789-2.0131836,2.6342773-2.9633789,3.9472656-.3417969.4726562-.6835938.9443359-1.027832,1.4145508-.6821289.9291992-1.4545898,1.9829102-2.1635742,3.0366211-1.105957,1.6425781-2.5493164,3.0043945-4.2905273,4.0483398-.1621094.097168-.3183594.2041016-.4746094.3110352-.2314453.1577148-.4638672.3149414-.7089844.4477539-1.4619141.7924805-2.7827148,1.9189453-4.0375977,3.4443359-1.3994141,1.699707-3.0556641,3.440918-5.2128906,5.4790039-1.5688477,1.4819336-3.2358398,2.4614258-5.097168,2.9941406-2.137207.6113281-4.2099609,1.6606445-6.3369141,3.2075195-1.4291992,1.0395508-3.0415039,1.8007812-4.7915039,2.2631836-.684082.1806641-1.3657227.3696289-2.0478516.5581055-1.0371094.2866211-2.074707.5737305-3.1186523.8339844-1.5581055.3886719-3.0986328.5185547-4.3999023.5942383-2.1743164.1279297-4.3857422.4165039-6.4511719.7094727-.5620117.0795898-1.112793.2358398-1.6958008.4013672-.4467773.1269531-.8945312.2539062-1.3476562.3461914-4.8808594.996582-9.6245117,2.8706055-14.5024414,5.7285156l-.5810547.3466797c-.7626953.4604492-1.5517578.9365234-2.4262695,1.2607422-.1479492.0561523-.3139648.0361328-.4477539-.050293-1.5068359-.9873047-2.5195312-2.2490234-3.2338867-3.2373047-2.2895508-3.1708984-5.3364258-5.3393555-9.0551758-6.4458008-2.1572266-.6416016-4.4785156-.9858398-6.8989258-1.0224609l-2.2270508-.0297852c-1.5068359-.0185547-3.0136719-.0375977-4.5200195-.0732422-.7900391-.019043-1.6337891-.059082-2.449707-.2192383-2.0400391-.4013672-4.125-.5776367-6.4003906-.5327148-1.3291016.0234375-2.612793-.0014648-3.8076172-.0776367-.9458008-.0600586-1.9604492-.1850586-3.1938477-.3935547-1.4331055-.2421875-2.8642578-.4956055-4.2954102-.7485352-1.5556641-.2753906-3.1113281-.5507812-4.6694336-.8115234-1.3500977-.2260742-2.9331055-.5913086-4.4370117-1.590332-2.5283203-1.6801758-5.1474609-3.2880859-7.6801758-4.8432617-1.7587891-1.0800781-3.4575195-2.4194336-5.1928711-4.0952148-2.3520508-2.2719727-4.8896484-4.6088867-7.5429688-6.9467773-1.4868164-1.3100586-3.2548828-2.5629883-5.5629883-3.9428711-1.7124023-1.0244141-3.6831055-1.3208008-6.3876953-.9594727-.7158203.0957031-1.1445312.4477539-1.2753906,1.0463867.7480469,1.684082,1.1054688,1.902832,4.2998047,1.828125h.0107422c.0947266,0,.1875.0268555.2680664.0776367.2363281.1499023.4711914.2939453.7036133.4360352.5322266.3261719,1.0351562.6337891,1.5249023.9921875,1.0083008.7373047,2.0488281,1.4980469,2.9931641,2.3525391,2.9589844,2.6767578,5.5244141,5.050293,7.8427734,7.2568359,1.3725586,1.3066406,2.715332,2.3642578,4.1054688,3.2333984.8349609.5224609,1.671875,1.0415039,2.5092773,1.5610352,1.9882812,1.2333984,4.0449219,2.5092773,6.0410156,3.8085938,1.5507812,1.0087891,3.3579102,1.6547852,5.5258789,1.9741211,1.1157227.1640625,2.230957.3359375,3.3408203.5351562,1.4511719.2602539,2.9008789.5268555,4.3505859.7939453l3.2402344.5932617c.2197266.0400391.4467773.0473633.671875.0566406l7.9707031.3339844c.1938477.0083008.3886719.012207.5834961.0161133.5424805.0112305,1.1035156.0224609,1.6586914.1259766,2.2607422.4204102,4.7480469.6362305,7.6030273.6586914l1.3574219.0048828c1.1845703.0019531,2.4101562.003418,3.6181641.0576172,4.6499023.2075195,8.4560547,2.2460938,11.3120117,6.0585938,1.1181641,1.4931641,2.4755859,2.887207,4.034668,4.1435547.4848633.3911133,1.1699219.6337891,1.7763672.8193359,1.3901367.4257812,2.8300781.2314453,4.4047852-.5942383,1.2539062-.6577148,2.5219727-1.3701172,3.7675781-2.1171875,1.8833008-1.1293945,3.9960938-2.1640625,6.4594727-3.1625977,2.0327148-.8242188,4.1665039-1.3725586,6.2299805-1.902832l.8369141-.2158203c3.019043-.7841797,5.8110352-1.1674805,8.534668-1.171875.6342773-.0009766,1.2807617-.0947266,1.8857422-.1962891,2.90625-.4858398,5.7641602-1.2758789,8.2143555-1.9775391,2.5-.7163086,4.6040039-1.7050781,6.4321289-3.0229492,1.5751953-1.1357422,3.2324219-1.9672852,5.0668945-2.5429688,2.5913086-.8134766,4.6821289-2.0332031,6.3911133-3.7290039.3388672-.3359375.6796875-.6699219,1.0209961-1.003418,1.3666992-1.3369141,2.7802734-2.7197266,3.9936523-4.2294922,1.2783203-1.5898438,2.6303711-2.7714844,4.1328125-3.6113281,2.7329102-1.5273438,4.9624023-3.6445312,6.6264648-6.293457.2192383-.3486328.4633789-.6821289.7075195-1.0151367l.1064453-.1445312c.4384766-.5996094.8710938-1.2041016,1.3037109-1.8085938,1.0083008-1.409668,2.0507812-2.8671875,3.1630859-4.2407227,1.7138672-2.1166992,2.9750977-4.3603516,3.8564453-6.859375.4482422-1.2705078.9116211-2.5844727,1.3037109-3.8950195.7705078-2.5761719,1.7792969-5.9765625,2.7485352-9.4375.4726562-1.6884766,1.2114258-3.3891602,2.3950195-5.5141602,1.2353516-2.2177734,2.9936523-3.4228516,5.2265625-3.5830078.2739258-.0200195.5478516-.0566406.8212891-.0932617.3891602-.0522461.7783203-.1035156,1.1689453-.1142578,3.1845703-.0864258,6.2456055-.6669922,9.8613281-1.512207,2.1347656-.4990234,4.0439453-1.3935547,5.6733398-2.6582031,1.5107422-1.1728516,2.9824219-2.3974609,4.3745117-3.6401367,1.3696289-1.222168,3.0092773-2.6411133,4.7910156-3.9013672,1.4145508-1.0009766,3.2543945-2.3432617,4.9404297-3.8510742,2.2709961-2.03125,4.4824219-4.2124023,6.6210938-6.3217773l.0751953-.0737305c1.9082031-1.8828125,3.2817383-3.7524414,4.1987305-5.715332,1.637207-3.5068359,2.7763672-6.7490234,3.4824219-9.9116211.7827148-3.5058594,1.6850586-7.6645508,2.4423828-11.9291992,1.6801758-9.4614258,4.5253906-19.1767578,8.6967773-29.7021484l1.1118164-2.7905273c1.3339844-3.3393555,2.7138672-6.7919922,3.9389648-10.2294922,1.0058594-2.8217773,2.3183594-5.7841797,4.0131836-9.0556641.7353516-1.4194336,1.7094727-2.7836914,3.1577148-4.4238281.8364258-.9467773,1.5932617-1.9438477,2.4248047-3.0556641.3603516-.480957.6982422-.9785156,1.0366211-1.4760742.2890625-.425293.578125-.8500977.8803711-1.265625,1.8828125-2.5869141,3.8300781-5.2612305,5.262207-8.2148438,1.5258789-3.1489258,2.5063477-6.0839844,2.9960938-8.9736328.8920898-5.2553711,1.3178711-9.6430664,1.3398438-13.8081055l.0400391-6.2900391c.0185547-2.6953125.0366211-5.390625.0483398-8.0859375.0126953-3.0087891.3422852-6.043457,1.0068359-9.2773438.3242188-1.5766602.6591797-3.1508789.9946289-4.7250977.4838867-2.2734375.9682617-4.546875,1.418457-6.8271484.5664062-2.8642578.8647461-6.0078125.9389648-9.8935547.0625-3.296875.1689453-6.6484375.3261719-10.246582.0380859-.8647461.1240234-1.7353516.2070312-2.5766602.0820312-.828125.1669922-1.6845703.2036133-2.5224609.1181641-2.6977539.1923828-5.4448242.2646484-8.1010742l.046875-1.7294922c.0244141-.8657227.1005859-1.7900391.4941406-2.6870117.0952148-.2167969.152832-.4492188.2177734-.7006836.0175781-.0668945.0351562-.1347656.0537109-.2041016l-.4711914-.7143555c-1.3017578-.2636719-2.3945312-.3735352-3.4013672.3535156-.6625977.887207-1.0063477,1.9145508-1.050293,3.1386719l-.0688477,1.9921875c-.0605469,1.7641602-.1210938,3.5283203-.2011719,5.2919922-.0805664,1.7714844-.1953125,4.1113281-.3701172,6.4936523-.0405273.5566406-.0854492,1.112793-.1298828,1.6694336-.1767578,2.2045898-.359375,4.484375-.2851562,6.7255859.0307617.8974609.0107422,1.8076172-.0102539,2.590332l-.0273438,1.1879883c-.0258789,1.2299805-.0532227,2.5019531-.1455078,3.7543945-.2773438,3.7626953-1.0498047,7.4941406-1.7973633,11.1030273l-.2431641,1.1777344c-.1533203.746582-.3139648,1.4916992-.4746094,2.2368164-.3300781,1.5336914-.671875,3.1196289-.9404297,4.6855469-.4980469,2.9101562-.7319336,6.121582-.7358398,10.1069336-.0014648,1.3647461.0073242,2.7294922.0161133,4.0947266.03125,4.862793.0639648,9.8911133-.3969727,14.8408203-.2773438,2.9765625-.7744141,6.0014648-1.4785156,8.9902344-.824707,3.5-2.4765625,6.9858398-5.1982422,10.9702148-1.2739258,1.8642578-2.6147461,3.7260742-3.9111328,5.5263672Z" stroke-width="0"/>
      <path d="m139.8158609,597.2604718c-.2807617-.3129883-.5800781-.6459961-.8955078-.9624023-.5141602-.5166016-1.0341797-1.0273438-1.5541992-1.5380859-.9243164-.9067383-1.8793945-1.8447266-2.7871094-2.8032227-.9931641-1.0473633-1.871582-2.0053711-2.5654297-3.1162109-3.472168-5.5571289-5.890625-10.9291992-7.394043-16.4238281-.2685547-.9829102-.4077148-2.0009766-.5419922-2.9858398l-.1044922-.7504883c-.0727539-.5004883-.1259766-1.0043945-.1791992-1.5078125-.0756836-.7197266-.1538086-1.4633789-.2919922-2.1723633-.2275391-1.1660156-.3652344-2.4038086-.4208984-3.7836914-.1879883-4.6542969-1.2573242-8.9873047-3.1791992-12.8789062-.387207-.7841797-.8266602-1.5664062-1.2519531-2.3232422-.3066406-.546875-.6137695-1.09375-.9067383-1.6479492-1.6669922-3.159668-3.9907227-5.8925781-7.1040039-8.3549805-1.2407227-.9814453-2.3476562-2.0869141-3.2905273-3.2866211l-1.0820312-1.3793945c-1.2207031-1.5581055-2.4418945-3.1166992-3.6875-4.6552734-.8041992-.9936523-1.5063477-1.7641602-2.2089844-2.425293-.8452148-.7949219-1.7631836-1.5532227-2.6503906-2.2866211l-.6293945-.5214844c-2.6386719-2.1958008-4.652832-4.7285156-5.9863281-7.5288086l-.1806641-.378418c-1.1386719-2.3901367-2.315918-4.8623047-3.3378906-7.3564453-1.769043-4.3164062-2.9970703-8.277832-3.7548828-12.1103516l-.1445312-.7324219c-.7314453-3.6933594-1.487793-7.512207-1.8818359-11.3369141-.1166992-1.1367188-.2353516-2.347168-.2890625-3.5498047-.0258789-.5810547-.0219727-1.1625977-.0180664-1.7441406.0039062-.5996094.0083008-1.1992188-.0224609-1.7973633-.0253906-.5019531-.046875-1.0048828-.0688477-1.5078125-.0751953-1.7539062-.1533203-3.5673828-.4008789-5.3144531-.2900391-2.0483398-.3232422-4.0629883-.3320312-5.9511719-.0087891-1.8745117-.0141602-3.7485352-.0200195-5.6230469-.0131836-4.6757812-.0273438-9.5112305-.0991211-14.2646484-.0332031-2.21875-.2304688-4.2949219-.5869141-6.1708984-.659668-3.4760742-2.1577148-6.6665039-3.3891602-9.0576172-1.4301758-2.7758789-2.9594727-5.5639648-4.4379883-8.2597656l-.9423828-1.7197266c-.5029297-.9194336-1.0229492-1.8696289-1.6538086-2.6899414-1.6298828-2.1206055-3.2924805-4.1821289-4.9418945-6.1274414-1.1865234-1.3994141-2.5385742-3.0981445-3.5712891-5.0883789-2.2773438-4.390625-4.7709961-9.0727539-7.5717773-13.5625-1.2387695-1.9858398-1.8383789-4.1547852-1.8330078-6.6298828.0078125-3.7265625.4003906-7.019043,1.2011719-10.0654297l.3178711-1.2109375c1.0429688-3.9692383,2.121582-8.0732422,3.1254883-12.121582.8515625-3.4350586,1.1577148-6.0913086.9921875-8.612793-.0976562-1.4921875-.4013672-2.9873047-.6953125-4.4331055-.1420898-.7001953-.2841797-1.3999023-.4052734-2.1035156-.1191406-.690918-.4267578-1.2495117-.9389648-1.7055664-1.1064453-.3066406-2.2670898-.4477539-3.3334961.3686523-.0063477.0478516-.0131836.0952148-.0200195.1420898-.0268555.1879883-.0522461.3657227-.027832.4892578.1054688.5356445.2285156,1.0683594.3515625,1.6015625.1689453.730957.3432617,1.4868164.4711914,2.2451172.2075195,1.2324219.3603516,2.5229492.4667969,3.9448242.215332,2.8730469-.4287109,5.7036133-1.0498047,8.1308594-.9936523,3.8847656-2.0595703,7.8188477-3.090332,11.6235352l-.1503906.5551758c-.9785156,3.6123047-1.4560547,7.4970703-1.4194336,11.546875.0249023,2.7172852.6816406,5.0820312,2.0083008,7.2299805,2.4135742,3.9077148,4.715332,8.0317383,6.8427734,12.2578125,1.277832,2.5395508,2.9262695,4.9477539,5.0400391,7.3623047,2.203125,2.5170898,4.6953125,5.5634766,6.4760742,9.0727539,1.1704102,2.3046875,2.3774414,4.4833984,3.8339844,7.0917969,1.4345703,2.5688477,2.4912109,5.2246094,3.2514648,7.2504883.769043,2.0498047,1.1904297,4.171875,1.253418,6.3081055l.0322266,1.0883789c.1025391,3.4516602.2084961,7.0209961.2470703,10.534668.0297852,2.7285156.0249023,5.4580078.0200195,8.1875-.0029297,1.6708984-.0058594,3.3417969-.0009766,5.0126953.0024414.8432617.0048828,1.6855469.1303711,2.4750977.4018555,2.5253906.6108398,5.2885742.6577148,8.6967773l.0097656.7900391c.0273438,2.2949219.0551758,4.668457.409668,6.9897461l.0751953.4912109c.3632812,2.3833008.7392578,4.847168,1.1923828,7.2548828.7070312,3.7514648,1.425293,6.7734375,2.2617188,9.5107422,1.315918,4.3076172,3.1313477,8.3901367,5.0322266,12.5410156,1.6445312,3.590332,3.4511719,6.2006836,5.6860352,8.2143555.3344727.3017578.675293.5957031,1.0166016.8901367.4594727.3959961.918457.7924805,1.3618164,1.2055664.4375.4077148.8994141.7880859,1.3618164,1.168457.9082031.7485352,1.8476562,1.5224609,2.6064453,2.5043945.6459961.8359375,1.3012695,1.6640625,1.956543,2.4921875.7333984.9267578,1.4667969,1.8535156,2.1860352,2.7900391,1.703125,2.2172852,3.3251953,3.9023438,5.1054688,5.3027344,1.2900391,1.0151367,3.15625,2.6049805,4.4614258,4.6845703l.1743164.2773438c2.3696289,3.7739258,4.8193359,7.6757812,5.7436523,12.2851562l.1191406.5874023c.2841797,1.3974609.578125,2.8427734.6582031,4.324707.0737305,1.3632812.1738281,2.9438477.4296875,4.4448242.3012695,1.7617188.6044922,3.5356445.6601562,5.3320312.0170898.5639648.1079102,1.1806641.2700195,1.8330078,1.6000977,6.4575195,4.2602539,12.578125,7.9072266,18.1918945.6396484.9853516,1.4765625,2.0073242,2.5581055,3.1254883,1.2646484,1.3076172,2.6049805,2.5917969,3.9008789,3.8339844l1.3168945,1.2661133c.1835938.1772461.3842773.3374023.5859375.4990234l.2104492.1708984.0073242.0024414c.9682617.2773438,1.8037109.5166016,2.6811523.1762695.6967773-.2714844,1.0561523-.6049805.921875-1.5454102l-.265625-.2929688Z" stroke-width="0"/>
    </g>
  </g>
</svg>