<?xml version="1.0" encoding="UTF-8"?>
<svg id="Layer_2" data-name="Layer 2" xmlns="http://www.w3.org/2000/svg" viewBox="0 0 437.8133678 673.982961">
  <g id="Layer_1-2" data-name="Layer 1">
    <g>
      <path d="m269.9103151,53.5861509c-9.0240171-.5147241-15.1508798-6.7197446-22.5432414-11.3062804-6.6267643-4.4649403-14.5671596-4.9394716-21.9183065-7.26947-3.8715458,3.0487566-8.3157846,4.3899965-12.502258,6.6139436-.8042651.7597137-1.0654891,1.9653121-2.2409612,2.3432433-5.0328793,2.2145343-10.5667455,1.9590537-15.8968104,1.660349-5.2298067-.3375765-10.4492374-.8169951-15.6634728-1.3366298-11.3914587-1.5370975-31.6242326-1.6368364-36.4247149-14.8686751C137.8685057,14.0709742,161.8062734.2537763,173.7845638.0298036c9.520489-.432066,18.4621925,3.8932092,26.395902,9.1022709,8.7375548,5.357509,17.2215844,11.4345571,24.3045031,19.0889908,2.8570106-3.8377215,6.8389591-6.4288544,10.660506-9.0281715,12.5984062-8.740891,26.9651073-15.0834516,42.1518473-15.5742068,7.9559087-.4713067,16.2749059-1.1964514,23.739509,2.3821056,4.7832758,1.9893081,7.9348961,6.3068064,10.9180399,10.5366003,3.34794,4.0870207,8.1886674,8.5895774,6.7611172,14.613102-4.1452008,15.7181412-35.1650046,23.9336735-48.8056732,22.4356558Zm6.0994827-6.1440802c10.3912214-.9581055,30.5976427-7.5351607,36.2596536-17.2896237.5573243-.8531056.0130532-1.5970017-.5279762-2.2716001-1.4162046-1.635138-2.9076028-3.188003-4.2619854-4.886419-2.2072717-2.6413278-3.7432998-5.9836129-6.6050282-7.9328272-6.4051775-3.9964712-14.0708758-4.2247727-21.3024018-4.3281839-10.2217897-.4600674-20.45342,1.5280756-29.7579516,6.1011596-7.4290902,3.9296884-14.3923445,7.8803475-20.6018102,13.3963731,6.7321454,2.0266722,13.8013017,3.1297317,19.8887731,7.0396703,9.8473266,6.0285699,14.5060032,11.5341275,26.9087266,10.1714509Zm-71.9072954-6.4282382c1.4594308-.1869995,2.9455469-.5039942,4.2492071-1.259637,1.6467492-5.0277103,7.8469531-4.9273513,11.5161158-7.5487868-6.6186024-4.6767349-13.0806527-9.5657844-20.0615332-13.6278713-9.906891-6.3104912-21.4070159-13.2344721-33.3090706-9.6971537-10.1577536,2.8278786-30.6544432,15.996914-13.1675392,25.0897924,7.2696293,3.1156973,15.1830353,3.8781686,22.892611,4.9496045,9.2591202.9673719,18.5608443,2.5561779,27.8802092,2.0940519Z" stroke-width="0"/>
      <path d="m179.7640348,68.0699508c-12.5451368-.8135713-35.0177721-3.0404492-33.0866156-21.356625,1.3757858-12.7089497,17.7924251-24.1562942,29.085999-24.9836303,7.3772969.0386254,14.497494,2.6307019,21.7612913,3.7391033,8.4524963,1.4565961,17.089547,2.0010105,25.2842055,4.8278473.43889-.5275839,1.0697582-.8487112,1.7711747-.718531,1.2209993.2250394,1.947104,1.6984006,1.7835333,2.9403714,2.4860207-7.3130637,7.966386-3.4696537,5.1293894,1.0822814-2.550708,3.2461433-3.6125937,7.4460631-5.5012766,11.1096911-9.9835608,15.8673279-28.4890229,24.5095728-46.227701,23.3594918Zm-.5550378-5.7857679c18.11249,1.5848083,39.2576162-7.5763472,45.8153516-26.666922-1.2158474,1.0546555-2.9731874.6420312-4.3749495.3380656-4.8892357-1.0902152-9.8551556-1.6819321-14.8261405-2.1219551-6.3568863-.5813529-12.6736288-1.5414919-18.919852-2.922347-4.6317453-.8606966-9.4466557-2.2726631-14.1250858-1.034016-7.3780928,2.6880873-18.3967237,9.1010472-20.4950254,17.6195437-2.0805308,12.2631727,18.9918329,13.9830332,26.9257016,14.7876307Z" stroke-width="0"/>
      <path d="m269.2128203,65.4736186c-19.8805823.3906676-37.1475492-14.776481-47.0160764-32.1263787-.8150318-1.4473759-1.744909-3.1629305-1.2372652-4.8861956.3809897-1.9283236,2.6894747-2.9121331,3.9581574-1.2661689,1.0339848.948454,2.5824005,1.5791737,2.6036735,3.2775242.0416343.0525635.0832976.1051963.1250333.1575596.0499988.0631971.0999687.1261786.1498084.1891639-3.225251-6.7489072,15.5935324-9.2637291,19.6073325-9.232895,9.6961.284054,19.6488655-.8373265,29.1887896,1.258574,29.4639497,10.4966876,23.4086049,43.6672615-7.3794531,42.6288164Zm6.9100862-8.0737056c19.6550882-2.679622,17.9575587-20.7880779,1.9294489-28.3159133-4.3148062-2.0988006-9.1638981-1.8451994-13.7999703-1.87343-6.2903611.0931184-12.5959461-.0940158-18.8779427.2763936-4.5396056.4266163-8.9771875,1.651722-13.1322144,3.6425764-1.1856166.5988882-2.7004151,1.564862-3.8333267.462307,11.6266487,15.3399558,28.3798937,27.9876494,47.7140053,25.8080663Z" stroke-width="0"/>
      <path d="m142.3004003,673.9206816c-13.3431502-1.8928409-20.6281916-15.2221578-27.8079967-25.815769-14.5084634-17.6437149-34.4706646,4.8662224-49.4908383,10.5619992-17.1213805,4.9385665-32.4775197-11.4073288-40.2254302-26.0218944-10.225545-20.253034-7.1126431-43.9760605-8.8582358-66.0863795-1.2660615-13.4239682-1.6270101-26.8924274-1.7557716-40.3725948-.6040598-16.0045407-1.9915097-32.3039423.7415494-48.1655817,3.3631259-18.2736759,12.3202307-34.4585531,18.3973261-51.7191336,5.9670834-18.3190912,7.6686179-38.1805486,5.7490675-57.4216272-1.7661241-19.7620612-12.278457-36.4681984-21.1355894-53.3443813-12.5534326-21.0942658,7.7951381-46.8072494,14.3784664-67.0128345,5.9081847-15.1534956,5.7994462-32.0621224,3.0312034-47.9780353-3.0606022-15.0772846-11.1721946-28.3035851-19.1676773-40.9236335-8.2099169-11.6806837-21.0662726-24.150236-14.2162125-40.0449818,8.3397601-18.3057578,25.1641052-31.8639771,43.7119687-36.4486411,11.5458799-2.1767331,22.9004401,2.3427118,34.1387186,4.5472903,10.8991691,2.2224951,21.8669763,4.0597915,32.9092897,5.229707,19.9732212,2.0854094,39.5402073-3.2369616,58.726493-8.4966939,16.4198953-4.8318758,34.4052971-9.6209013,45.7497815-24.1258183,6.6281101-7.6405496,9.3830247-17.7049825,9.2868186-27.9308725.2222814-1.084546,1.1966149-2.0034523,2.2757795-1.8073674,3.5002809.7041192,1.45069,11.200853,1.3877393,13.9852862-5.027192,26.36509-29.8604239,39.2647018-52.4616813,44.4156021-18.9670433,4.6983719-38.0685698,10.1650153-57.7005761,9.5836663-12.7054081-.2591202-25.2927582-2.6046435-37.7729906-5.0167185-10.9992392-2.0267531-21.7710849-6.4322976-33.0816302-5.5946629-18.4782667,3.2122897-35.6805209,16.6316748-43.5152312,34.7343113-4.905829,13.9278045,8.0538984,23.1794749,14.2312864,33.5986807,12.4651333,18.7120389,22.6151952,39.9840377,22.0095363,63.4790015,1.632408,22.5837757-10.2786987,42.1677187-18.4043972,61.9256513-2.6510187,8.3107651-7.8060786,17.8503948-3.6030661,26.4672977,14.6704766,27.7817243,26.8502746,47.495135,24.6794601,81.0922444-.6644419,12.7258533-2.2372601,25.5323389-6.1124383,37.6397854-5.7869863,18.0233676-15.6377499,34.4969744-18.9833219,53.4151233-1.8667477,12.3060231-1.2915458,24.8907006-.9296457,37.3080129.6626077,14.0186198.1956955,28.0809913,1.7553067,42.0449524,2.412475,20.6398348-.8059311,42.172325,5.5122405,62.1421445,5.6400035,15.7696687,19.8083372,34.1245622,37.2532124,31.3073924,14.3810134-5.380519,27.637798-20.0702633,43.9477971-16.6723067,15.9092559,5.0381476,18.4788202,30.1217248,36.521992,31.6408903,13.3085779-.3771262,22.711197-14.5501706,36.3821689-13.8628396,12.8678935.6792586,21.4601695,12.4600779,35.6937043,8.236141,18.919085-7.6017432,37.2765766-18.5616968,57.4901468-7.9667915,4.078198,1.7742803,8.3160161,3.0785085,12.6551922,3.9044889,1.315165.2839539,2.0820358,1.6603413,2.0825857,3.026438-.4249395,7.855379-16.1979467-1.4679577-19.8836502-2.4544632-5.440974-2.4287052-11.3509966-3.389083-17.2195729-2.7774853-12.2299922.7524654-22.5012887,8.5696389-33.9494031,12.2689883-19.9208853,5.8832307-26.972372-12.529834-43.5171125-7.7322584-10.5279621,3.5981046-19.1673426,14.2078608-30.9063621,13.238671Z" stroke-width="0"/>
      <path d="m310.9363997,671.7870222c-31.3226621-10.6015605-15.3451155-44.3582398-55.4407152-43.4314459-12.6573629,1.8167378-24.4202747,8.0957662-35.8727017,13.8250037-10.3002105,6.2082248-27.652255,18.1658375-34.3125496,1.1322414-.9460273-1.7984977-.1044549-4.7127838,2.0636715-4.7644846,2.7808908.6957732,3.8115617,4.5098627,6.3051364,5.9603814,5.0782183,2.2209777,12.1253492-2.2817369,16.8045463-4.496614,22.9685427-13.0000093,56.5855512-30.6078602,76.9029396-3.8148906,5.8325424,11.1187533,10.074644,23.8233471,22.3627246,28.6599293,12.1734378,4.4655566,25.762646,1.4963654,37.6003752-2.9018384,9.7697886-3.3786073,19.8848079-5.6293484,29.4382484-9.7005246,9.2696844-3.5916959,13.7716353-12.9449193,19.7657948-20.504205,8.5637673-9.9186046,16.7625068-20.244222,23.1409989-31.9340258,7.5219679-12.5406794,11.869248-29.7299942,4.1104404-43.2555153-6.6313373-9.9794871-16.2762083-17.9978561-20.0482774-29.9375368-3.5770808-12.461526,2.8572711-24.8574864,6.7173266-36.3735779,5.7943378-17.4970239,15.0264543-33.7701129,18.4987618-52.0758322,9.9605801-55.4618649-33.1749493-53.095367-19.63998-106.7214838,3.2032544-15.8882601,9.0964901-30.9200985,15.1256126-45.7876837,5.6608242-14.3102148,11.254501-30.1033614,6.3149915-45.5879208-8.2063515-23.1555502-35.8372321-32.7962091-29.1613518-62.3538929,4.8775717-25.79092,23.7042276-45.8824891,29.8640273-71.1685252,1.7944882-11.4042323-1.1598285-23.0524028-5.5468761-33.4231429-6.7430568-17.5440029-25.3407455-22.9038362-41.3768725-17.7876175-21.0013089,4.731047-36.50425,21.495386-55.2300399,31.2778678-21.5285037,13.000302-75.961601-1.5236254-91.3246322-21.8030566-4.8150551-5.9981633-20.0752666-32.7020007-7.535079-28.8474718,1.852099.5911084,4.4463805,1.3959524,3.7456008,4.0499628-.296462,1.4078801-1.6893531,2.1914415-2.9277905,1.5559461,11.2694645,31.4430415,44.0911657,40.4256089,72.5454716,43.8730402,18.9430642,3.0688955,34.0947254-10.9394258,48.836179-21.2812806,16.295137-10.8310906,36.1873543-20.4492497,55.682041-15.1797349,20.9724239,6.625956,29.1638119,33.5189766,28.477576,54.7088873-1.2156014,13.0609072-8.0730695,24.4870846-13.6882797,35.8605368-12.6331956,25.792784-29.2625651,49.9313273-3.6242577,73.7930649,7.9640706,8.3216722,15.7885785,17.8147773,17.5097543,29.9848317,5.2376792,30.9150455-16.9460626,56.9476313-22.3132033,86.2070496-7.8759395,29.4099298-.8005025,38.3758285,13.9696046,62.0244158,10.2773022,19.5176994,8.8402876,44.1103964,1.7296272,64.5640713-4.1855183,11.558888-9.488811,22.6013842-13.8449765,34.0862026-3.5035948,10.3927237-9.7765612,20.7619695-8.6412474,32.1598394,3.1617793,13.5147373,15.2727583,21.4841169,21.3006942,33.2797256,6.3854674,13.6526472,3.7901294,30.2099058-2.9380507,43.1648078-7.1035405,14.1014397-16.853098,26.3396171-26.9375248,38.0930147-5.7883756,7.8150167-10.4235216,17.2307863-19.719052,20.8672198-8.8598241,3.9756006-18.4057973,5.7732356-27.5556581,8.8298067-13.0985394,4.8805803-27.3147085,8.5163975-41.1330286,5.1744553Z" stroke-width="0"/>
    </g>
  </g>
</svg>