<?xml version="1.0" encoding="UTF-8"?>
<svg id="Layer_2" data-name="Layer 2" xmlns="http://www.w3.org/2000/svg" viewBox="0 0 417.1773451 633.9341627">
  <g id="Layer_1-2" data-name="Layer 1">
    <g>
      <path d="m12.6207932,60.8745742C4.1171479,59.5012297-.6960663,49.7618591.081822,41.2082922c.0852209-7.4350829,1.5578186-14.8598823,4.8748097-21.4404402,2.2278232-4.451849,4.8852732-9.2282718,8.9701492-12.0133239,10.1640001-6.8216555,22.3052697,3.0966023,27.8024607,12.2458778.44467.1651369.8750277.3753337,1.2874798.630522.1428729.0879443.2858743.178518.4285238.2718796,7.943103-7.6974624,17.0711919-15.9012215,28.4257168-15.74825,9.2930359.8848387,17.2953236,9.3065252,18.44956,19.127806,1.1898244,5.3972719-2.0653191,10.4120459-6.118488,13.3336078-5.5260999,4.0828691-12.6045355,5.5768092-19.243241,4.9866935-6.5827487-1.2553999-12.3633373-5.4087116-17.4284654-9.879006-1.4858967,5.2436755-6.5130074,3.4774055-8.3388641-.4614843-.5817266,3.6377051-1.0476858,7.304247-2.3696878,10.7422224-3.8184637,10.1882554-13.115675,20.1247731-24.2009826,17.8701774Zm3.2618971-10.9480861c5.6636471-.7273415,10.5450056-4.6528538,14.4802857-8.8293077,3.6065737-3.8210748,4.9346998-9.0521833,6.2368675-14.1186195.8066162-1.904515.190672-3.8554875.2946951-5.8460162.0311352-.6776639.0035865-1.8627797.6451035-2.2480907-4.8394873-4.5804256-13.4436573-8.474133-18.421179-2.1171179-6.6457771,9.0238542-9.7642954,21.3007905-8.0927632,32.6295772,1.580534.4357594,3.2264715.590087,4.8569903.5295748Zm47.0008091-17.2346307c5.050024-.3046786,10.2505406-1.4892865,14.4143035-4.6931087,3.5599182-2.7891628,4.8855439-5.6694036,2.4464465-9.9723099-3.3819243-5.3626062-10.1717179-5.0546679-15.4476804-3.7987205-6.3025723,1.5606215-11.628841,5.7523512-16.5799713,10.0018015,2.8027861,2.3724575,5.7330704,4.540683,8.94391,6.2481338,2.1375168,1.0222301,4.4119921,2.315342,6.8085112,2.1847943.0000203-.0000936-.5855195.0294132-.5855195.0294096Zm-20.2647755-1.4925606c.0454002-.0393437.0906515-.0789755.1356592-.1189532.1914874-.2513991.3558457-.5231598.3454921-.5424841.194025-.4204729.3534027-.8593876.3811206-1.0032336.0478363-.1857182.0914568-.3721028.1310576-.5592834-.4820377-.5292471-.9244679-1.0915669-1.2709073-1.7065215-.1703877-.0212765-.3424807-.0594244-.5162926-.1168749-.4534807-.1515613-.8711908-.3817739-1.2521017-.6694839.5428871,1.6042884.9568212,3.4417106,2.0459721,4.7168345Z" stroke-width="0"/>
      <path d="m75.7276698,79.1239466c-11.5126778-2.4797729-18.9541659-13.0405814-24.9563621-22.9710407-4.6559242-7.2041931-6.808403-15.6981123-8.1735144-24.2213439-.0727594-.6122676.0900831-1.449525.6340461-1.7741006,1.4999992-.9016452,2.8702537.5278819,3.753429,1.7449827.398627.5294596.8360089,1.0246253,1.2634094,1.5303015,1.1471852,1.2243874.7966382,3.6926162-1.1815889,2.9215043,1.2842181,4.7836896,3.4971132,9.195453,6.3185155,13.1503317,4.2732471,5.8245668,8.7297462,11.6470157,14.325513,16.0941246,5.3404051,3.5599001,12.5065891,3.503948,18.3120941,1.3114204,4.4741272-1.9416543,7.6857789-5.5718422,10.2328988-9.8387114.8453948-1.1913399,1.555665-2.4527586,2.6851341-3.3676084,3.0382729-2.1355165,6.887361,1.8966088,6.7633817,5.2376927-.3376084,5.0835957-3.016483,9.7471147-6.0150333,13.5876903-5.9182847,7.0789041-15.6214719,8.4455419-23.9619229,6.5947566Z" stroke-width="0"/>
      <path d="m23.1687932,621.2577542c-1.0457843-1.8159404-.8124223-4.9172738,1.5555331-5.2448461,1.2583104-.2256238,2.5839632-.3128189,3.689954-1.0472634,3.3673616-3.697061,3.5577392-9.3355242,4.4901414-14.1377096,2.1755206-13.0282052,2.2548237-25.826349-.830937-38.5952165-2.5644538-9.3343715-8.2521138-17.9854746-8.1081582-27.9711873-7.9354156-10.0856441-13.6559229-23.4384249-14.3541308-36.6596926-.2243905-11.9610017.7526819-24.1916281,5.1170246-35.3309614,4.4930682-11.9554403,14.3861728-20.5419107,18.405114-32.8077206,2.1392492-5.2621353,4.0384168-10.6842244,5.0245934-16.3367206,1.0621842-9.8846574-.1336426-19.6715444-7.7322956-26.3776146-3.2845092,7.9331698-11.5617998,16.4680032-19.9034841,17.4455047-9.1552451.642783-10.260324-13.0712553-8.0864461-19.9502172,4.4083057-12.0971828,16.2416608-11.9455855,25.0470322-5.2118526,3.8451902-16.1867946,6.3214422-32.9954235,4.7460005-49.7080109-.6600824-8.3577633-1.9675757-16.7282918-5.340801-24.3783224-10.5567905-22.7162558-16.0806979-28.4702395-14.5648468-55.6481415-13.112239-12.2393287-10.8266962-31.5328163-7.2267288-47.7716082,2.0975793-8.7790863,4.1122876-17.6597032,7.2586896-26.095167,4.0285538-10.6853194,11.4537265-19.3922665,15.8893729-29.875605,2.7102771-5.9147731,6.358749-12.2236099,4.7479663-19.0521883-6.3978457,8.6648336-20.2898948,14.4855247-28.3773357,5.2023868-3.8036168-4.1946724-4.9263256-10.6096072-3.4303646-16.1401931,3.9708359-11.4663654,19.5201439-12.5082619,27.391401-5.0560339,2.3804778-4.1704964,4.2705065-8.7087049,5.0507751-13.5340578.6502261-7.3983074.3462635-14.8587621.3134568-22.2806837.3093289-9.5812034,1.0842888-19.1546988,1.961235-28.6991051.349938-3.7031122.8973658-7.3840942,1.7496867-10.9949758.3248289-1.3487795.8664945-2.7009376,1.8570934-3.6404461.5783837-.4264557,1.3506435-.5826202,2.0061547-.2914056,1.0474388.4579976,2.7784856,1.5964434,2.0753073,3.0134287-.4365563.6380861-1.2680922.2508084-1.7082418-.1589956-3.4937533-.7376105-3.13672,19.986755-2.8721721,23.0268199.3623894,5.1682767.4967155,10.3643601,1.1779922,15.4984979,1.6496527,9.9909138,3.5322274,20.0593912,3.0490664,30.2482301-.5515692,6.6176216-3.0998667,12.8981329-6.4160829,18.4769989,3.2038222,7.9544067,1.4047326,16.267319-2.9837744,23.2272664-2.6022241,4.9747315-5.1276184,9.9878018-7.937625,14.8346365-3.2436801,5.3683053-6.5755553,10.7321154-8.7727813,16.7045336-3.0857743,8.4309542-4.329319,17.4203345-5.8867011,26.272165-1.690749,11.9041923-3.693417,25.1415822,2.2477674,36.021376,1.0362021-6.9946554,4.9645189-14.5424782,12.5432564-13.6440314,2.7191013.1741021,5.3956412,1.1042888,7.5253861,2.9395643,5.2663702,4.5889666,7.6314428,13.1036869,4.2894136,19.6700605-3.913551,7.4578614-13.4969986,8.0851417-20.3132682,5.3691554-.6759274,29.019805,10.7802623,33.9709944,18.5880512,57.8529156,3.4119836,12.0551989,3.5213325,24.9374258,2.6194564,37.400073-1.0654459,11.8183947-3.9073423,23.4294345-6.8786484,34.848161,9.8171986,8.5204257,12.3602109,19.6681442,10.8871581,32.6413987-1.2568454,7.7750314-4.2236176,15.1307714-7.2866207,22.2738832-3.4152758,8.3043109-9.4388931,14.8440591-13.7314196,22.5821494-4.6157617,8.838489-6.6503651,18.9547638-7.0915501,28.9921999-.1276537,4.9003304-.4131051,9.8320118.2752128,14.7015098,1.6334084,8.8233033,5.0198023,17.2986331,9.9890141,24.5789922,1.3137428-4.3556059,4.4457665-8.0867842,8.6740567-9.2684998,5.8871359-1.21566,13.1853147.540748,16.4920232,6.2775866,3.0861701,5.1292392.4912206,12.3119144-4.5456482,14.7575268-4.5114881,2.4550638-10.2414016,1.8660214-14.7387432-.3271689,2.1252211,8.0266178,6.6963202,15.0689049,9.0392916,23.0177215,1.6727148,6.1709123,2.608443,12.5781678,2.7993214,18.9987359.4394865,6.6036029-.3077996,13.1786211-1.309175,19.6886319-1.3209158,7.0905816-1.7505529,16.6173241-7.5672302,21.2889186-3.5687797,1.9687767-8.4258411,2.9880893-10.5777886-1.6153859Zm14.9943654-84.979267c3.1565881-.1154341,6.7706225-2.0470391,7.9156219-5.284496.359439-1.4072241.9066367-3.0602428.024084-4.3681117-2.1781868-2.7524377-5.8740315-2.6613237-8.8327205-2.5084874-4.4454281.915808-6.6831211,5.7538973-6.9030538,10.1729545,2.3558288,1.7314539,5.0500206,2.0400658,7.7960684,1.9881406ZM7.9690443,399.702078c7.3178676-.6081758,15.6552564-9.6189803,18.2258648-16.6430561-2.8805024-2.0602653-6.2567288-4.1004464-9.803925-3.9213305-5.4888964-.1269026-9.8807751,4.7258825-10.8156997,10.2626277-.2503506,2.3466606-.5417621,10.5009303,2.6602652,10.2868037.0001133-.0001153-.2666711.0146382-.2665053.0149551Zm15.579824-156.1882483c5.2954584-.0087022,10.5695294-4.3188088,8.2260843-10.319221-.6048598-1.4989432-1.7911586-2.566579-3.2981042-2.8983296-1.3896387-.4191186-3.3167068-.5145837-4.5287001-.0598494-4.5251068,2.0333807-5.3495508,7.9090226-5.9982781,12.5031616,1.8020332.6352622,3.711798.7621071,5.5989981.7742384Zm-13.2586189-119.1174045c5.8742142-.1687424,10.8937053-3.9754528,14.5901861-8.5853682-5.192342-3.2861115-16.2825456.880855-14.5901861,8.5853682Z" stroke-width="0"/>
      <path d="m404.0980659,234.9738672c.0770903.0597629.1442736.1213701.2025786.184562-.0684014-.0614919-.1336088-.122004-.2025786-.184562Z" stroke-width="0"/>
      <path d="m376.7992196,435.6067233c-1.0138133-1.6897582-1.9876739-3.4190221-3.0380022-5.0879756,3.8047368-4.710841,7.6387884-9.5059379,9.4027164-15.5262614,2.2001053-7.8119438,2.1619933-16.0406722,1.7011838-24.1071128-.2182782-8.0000501-2.969276-15.5906925-6.4859798-22.5727556-4.3724928,3.5186943-10.2382854,5.8349835-15.6917748,4.2711194-5.1451282-1.9253233-8.3430766-9.8774247-4.3135923-14.4952499,4.6219536-4.9497774,13.4570222-7.1480393,19.1599724-3.1609235,5.3356885-8.1697146,7.054196-18.2168039,8.609861-27.8471086,2.8826577-16.7119535.751847-33.6378318,1.1087145-50.4825663.2286724-6.7423198.5786104-13.4772629.4123032-20.223271-.4261621-6.1300522-.661764-12.285923.1593777-18.3975335-5.7722448-7.3988477-10.567435-17.5492109-11.423224-27.1979574-.2702492-4.3264448-.2945023-8.6971499.1870956-13.0088413.6236519-5.4956545,2.4530308-10.7478774,3.8181355-16.0738674,3.4404797-12.80967,6.1117887-25.8590832,7.9342381-39.0412774,1.115644-10.1171681.8939011-20.4777678-2.0926986-30.2297955-6.9849013,2.6150464-17.1538921-.0368908-18.1205525-9.0254139-.4157679-3.4523038-.0173237-7.3361456,2.4461014-9.8737364,6.6626812-5.9566994,13.5852173.9110318,16.8108835,7.4135939,3.2048778-4.4038931,2.3386946-11.105641,2.359483-16.0332883-.3430085-6.6611759-.4919921-13.3998074.6028635-19.9982812,1.257698-7.2881969,4.3932812-15.0595688,1.3581753-22.3145705-3.7869529-8.6418246-14.7909443-11.8580734-16.4470866-21.8609023-10.6020824,3.8949068-20.9581687,5.0604282-31.0821179-1.0290521-4.1542146-2.3494845-8.7588445-4.5846299-13.2318146-5.8718662-6.950254-1.7814773-14.2019397-.7524252-21.2145589.0700788,1.2403743,3.3748474-1.7531548,5.982517-4.1715383,7.5500695-4.7155013,3.2863276-9.8571648,6.1780009-15.5497208,6.7496965-2.7544626.6454628-5.6197966-1.7593471-5.5816845-4.7801129.7206644-6.384549,9.6631398-10.4233009,14.8498448-11.6920963-6.2538427-2.0322857-12.8160466-2.2388338-19.3020264-2.1540015-4.9025969.051637-9.8398411.092209-14.6558197,1.1728981-12.396814,3.7879444-23.7923201,10.6040305-36.0297564,14.9046568-7.0334076,2.4490702-14.5934545,2.1576899-21.8174224.9294664-7.158138,4.2674311-15.3279779,5.9308809-23.3280459,7.3988477-11.0698213,1.8626212-22.2782319,2.1576899-33.4450657,1.3278092-13.2976445-.4757983-23.7264902-3.4301736-35.2363326-10.6003431-2.8237572-1.4716551-5.6613734-2.8547897-8.5994668-4.060883-1.195326-.6012025-3.1494421-.7044765-3.6067801-2.2167036-.0693014-.8593876,1.1987908-.730295,2.2382106-.6012025.4815979.0590137.9146895.1217158,1.1468266.0848323.5266394.0368836,1.0082372.6196443.9320131,1.1839632,17.7810087,6.0489084,20.098915,8.2803654,39.5533896,6.9451795,16.27385-.4057195,32.637783-1.5380456,48.5235828-5.510408-3.1667658-3.1793652-3.6241105-8.7008374-.8869716-12.3375591,3.1321184-4.11252,7.6813126-7.638591,12.7710051-8.0369337,11.7835562-.5458771,14.0702799,13.6690575,6.340461,21.1748667,7.8095077.5311237,15.2171064-2.4343168,22.3094145-5.5731101,8.0069975-3.175676,15.9273767-6.6906819,24.0833577-9.4090023,4.4417874-1.3683811,9.1122473-1.5823059,13.7064829-1.6597614,11.0698213-.0700788,22.9434606-.2655618,32.8629906,5.705891,8.1386573-.8962712,16.6029996-1.8958164,24.6030676.4389147,6.2919548,1.7519704,11.7904857,5.5251605,17.7359672,8.1807788,8.4920601,3.5813963,17.5072948,1.2392885,25.8087946-1.6634498-.2945023-8.8004231,6.0563529-18.751615,15.1270234-17.1914392,3.7003346.5458771,9.8121233,3.3637832,9.3998201,8.1291427-2.5777612,5.8423603-15.5947623,9.2319611-21.2041647,11.4154694.0346473,4.1088317,3.267243,7.4467963,5.9350873,9.7704623,3.9775133,3.3121462,8.0416448,6.7165013,10.4288457,11.5814465,4.9303148,9.5491608.2182782,20.1421272-.2563902,30.1486444-.9805194,11.8359432,5.6856265,29.0568903-3.2256662,38.0712463,3.6448989,9.1618759,6.3092784,18.8880852,6.5240919,28.8909141.2702492,16.1328812-2.9969939,32.2694507-7.1685322,47.7162972-1.6318891,5.8312952-3.8908949,11.4781724-4.9025969,17.4865088-1.2507685,10.3569114-.0138589,17.1545566,4.8783438,26.2352958,1.9229267-3.2715742,5.5782198-3.526071,8.8212097-3.002324,4.0225548.5458771,7.7852546,2.9027383,10.1724555,6.3919257,2.3975951,3.4818107,2.425313,9.0659858-1.2473038,11.5630047-4.2546919,2.8547897-10.023472,1.4273948-14.1776866-1.017987-.2702492,6.9230494,1.5522003,13.6543041,2.0164745,20.5257165.4504153,5.8681788.6375108,11.7658644.7934238,17.6487966.5301041,15.0780106,2.2867236,30.2814254-.2910376,45.2561619-1.9437151,12.3670669-4.940709,25.1914903-12.3725608,35.2053843,3.877036,6.4398744,7.2031795,13.4256259,8.9840521,20.8687338,1.5487356,6.29234,1.3339221,12.7875398,1.1780092,19.2200375-.1974898,5.0678049-.8904363,10.1466749-2.2208937,15.0153085-1.8605615,7.2881969-6.3058137,13.3260402-11.4855892,18.3237663-.860932.8739681-1.6914122,1.6405704-2.4556023,2.3729402-.4794595-.7903461-.9580257-1.5812109-1.4352926-2.3729402Zm18.4323785-199.7320032c1.8189847,1.5601758,4.3343807,2.2351454,6.5414155,2.1871967.4053737-.0331952.8107475-.1069624.7795649-.1143391,1.0983203-.1881063,2.7406036-1.7113985,1.7496901-2.7883992l.0727594.0663905c-1.3027395-1.3757578-3.1355832-2.0175322-4.9303148-2.1134296-.2771786-.0663905-.5474278-.0958973-.8107475-.0958973-1.6007066,0-2.8965166,1.1470796-3.4023676,2.858478Zm-19.1080014-137.6052956c-1.8120553,1.6486964-1.8224495,4.4112699-1.3581753,6.7054362,1.1502913.5790723,2.4461014.64547,3.6968699.5901374,1.7219722-.1585994,3.4474091-.4094078,5.0377215-1.1470796-.9424073-2.0544158-1.9783624-4.0867015-3.3885087-5.8202229l.0242531-.0332024c-.5127805-.6712813-1.2992748-.9626616-2.0788397-.9626616-.7206644,0-1.4378641.24712-1.9333209.6675929Zm-86.2718467-75.5117688c5.4396305-1.4458366,10.6748417-4.2379242,14.9918988-8.0479979-5.588614,1.006921-11.2188048,3.3969775-14.9918988,8.0479979Zm-88.9985914-4.0129343l-.2182782-.1217158c.0762241.0405719.1524482.0774555.2321371.1180275,4.5595884-2.1060528,11.1460454-5.5472907,11.0836802-11.6330826-.297967-.1807296-1.3269927-.4094078-1.4482583-.390966-.2321371-.0553254-.4885273-.0811439-.7657059-.0811439-5.0515804,0-16.869784,8.7229676-8.8835749,12.1088809Zm177.5744853-2.5707861c4.0814552-1.5159145,8.2114167-2.9359327,12.0745938-5.0014136,2.1065575-1.2356002,4.6080946-2.4269401,5.9212284-4.6510204-1.3962873-1.7298403-3.7107288-2.4822654-5.7237386-2.7367622-.3811206-.051637-.7622412-.0737672-1.1329676-.0737672-6.0563529,0-10.5327877,6.3587305-11.1391159,12.4629633Z" stroke-width="0"/>
      <path d="m376.5354127,591.5358067c-2.518184-1.2402106-5.0608648-2.4472837-7.4630074-3.9281597-1.3191699-.7302374-2.567746-1.8271207-2.9970209-3.4042975-.3845853-1.1323261-.2009545-2.7072553,1.1606584-2.8880425,1.3540068-.1338183,2.6969426-.3314336,3.9580783-.903936,8.9539793-4.8573956,12.3530717-17.5978512,8.4003259-27.1708134-4.175409-9.522305-9.8601152-6.7743048-17.7183187-7.0679327-1.7402703-.1282281-3.8721908-1.9127598-2.9727407-3.9317328.2910376-.6085792.9770546-.9847918,1.5522815-1.2205586,4.5347668-1.9185229,9.8400848-1.2218265,14.1518094-3.7285273,1.8503297-1.3891281,2.1208225-4.0507976,2.1105366-6.2845599-.2298634-5.8019036-.7754234-11.5853077-1.4160471-17.3474462-.6204849-5.5762798-1.3157864-11.1488135-2.1225007-16.700024-.6974399-4.8888043-1.8112432-9.7999116-4.2832759-14.0451837-2.9016596-4.8958928-6.6405664-9.4410458-7.7722889-15.2597199-1.1865086-9.0721235.3144245-18.9754244,4.9618763-26.7700502,1.1547575-1.9137971,2.6472183-3.7542594,4.4020784-5.1813372,2.5792229-4.7382731,6.0318021-9.1641019,10.3715423-12.157522,1.0505449-.8030825,2.45747.0537117,1.5696052,1.4494674-1.7718319,2.4854063-3.4626485,5.0560771-4.668159,7.920347,12.552375.1001044,14.8586149,14.9690311,6.9063764,23.3013217-4.580079,5.4528926-12.6108153,2.0795716-15.7188701-3.4286176-4.0091831,20.7439059,3.4879032,17.8372487,9.4997018,33.4594363,2.9350618,8.3483119,2.8569699,17.4213863,3.3779791,26.2021006.3070349,5.5049331.4285171,11.0131511.3220036,16.5236743.1362614,7.1335164-1.4387303,13.2881192-9.1049659,14.128604,8.7296379,3.2098518,12.237734,14.0184143,11.6867061,23.1131001-.4560725,7.4001155-4.3307536,15.0099488-10.4029144,18.809016.9144729.4170151,1.8363625.8159341,2.7627996,1.2002726,2.8670123,1.0611523,3.5181384,6.8835148-.554249,5.3111213Zm-.9439231-142.8764717c2.9830267-1.3010397,5.0528797-4.8897264,5.8366672-8.1309004-2.0025614-.917047-4.336465-.3992072-6.0501272.9591174-.1494166,1.660453-.2265069,3.3038185-.2108073,4.9683345.0331044.7275576.0661277,1.4549423.1466827,2.179042.0911928.0214386.1840639.0261643.2775846.0244066Z" stroke-width="0"/>
      <path d="m387.6859785,613.0624515c-5.7456368-.85933-14.9911138-2.4739666-17.6178956-8.7049301-.7727166-1.6564189-.2369552-4.7568302,1.9714871-4.3069657,2.0568873-9.1556014,7.7198307-16.8830011,14.5689307-22.6478482,5.9832958-4.6012275,12.2255262-11.5847891,20.1925169-10.7254015,4.4656346,1.0392527,8.0181496,4.9580763,9.0985237,9.6488041,2.0060262,8.014573,1.5748023,16.6800838-.7660037,24.5494277-1.5524439,5.2848418-6.1591039,8.2113239-10.8547642,9.8223875-5.3382059,1.7708732-10.9898888,2.8391142-16.5927948,2.3645261Zm1.4639579-4.5845147c5.5070304-.4967758,14.6906565-2.1231691,17.4532937-7.8222597.8224951-2.3998537,1.1258487-4.9064969,1.019254-7.4509457-.170584-5.3615481-.6537247-10.7337579-1.8212043-15.9619488-5.5346129,1.1611991-10.3477223,4.4567476-15.0833894,7.5518569-6.4715254,4.4160604-13.4611095,9.404969-15.8118224,17.6411318.2127833.6021822.2207955,1.2515639-.1468451,1.8332872-.0292608.0471995-.0587651.0941684-.088486.1411374,1.321173,1.7309352,3.7794821,2.2254635,5.7136963,2.8980126,2.8791388.7297764,5.7927355,1.3188764,8.7655033,1.1697284Z" stroke-width="0"/>
      <path d="m354.0882209,633.7743149c-4.9625801-.8275755-7.5398811-6.1286115-8.6758804-10.8510938-2.0074878-11.0275011,3.7140311-22.2179816,11.5654946-29.1083544,1.9849941-1.9444566,4.3587421-3.254919,6.9397786-4.057137,5.1489448-2.0836922,11.9448558-2.5926857,15.6674134,2.5445641,4.5279185,5.7568941-.9329064,10.4743049-6.2498366,6.5618784-5.5295241.4064687-9.8270649,3.3302422-13.5249634,7.5606744-4.595156,5.6033661-8.5270864,13.8063336-5.5709114,21.2087544.0887296.0146382.1767284.0292187.2642941.0437416.0890274.0065123.1780548.0130245.1781089.029795,7.8589884-1.4022679,16.3884297-12.8178535,18.7891648-20.5753364-.5909806.4134996-1.1965238.8061369-1.7853389,1.2150261-.7899591.5495655-2.2486116-1.0474939-1.3165985-1.6892683.7968885-.5489315,1.5970523-1.0943476,2.3972973-1.6362482.5610702-.5639731,1.3999145-.7830847,2.0412961-.226373,2.6172267,2.2339352-1.8350091,9.5982045-2.8897496,12.2529007-3.1038592,6.479409-9.8225716,18.4034118-17.8295691,16.7264764Z" stroke-width="0"/>
      <path d="m64.3452579,618.795256c-4.2985559-.2247017-14.9241809-4.6607023-12.1056411-10.6777986,1.0913908-1.6560731,3.2707078-.7819321,4.2720697.5089359.428896.6348588,1.5054873,1.6917464,2.0406667,1.9695259,6.5425389,3.9672909,14.7592948,1.8399147,20.4247216-2.9057351,3.171726-2.3992774,5.648631-5.7098099,8.9769873-7.8715915,4.1301848-2.3417044,9.0724231-2.4571961,13.6227406-2.7243716,5.7576754-.1762344,11.5371136-.3295894,17.1945621-1.5891063,3.3110665-.8098829,6.5311702-1.9343713,9.6505666-3.3704683,2.7770645-1.1462727,5.3432811-3.41421,8.4159578-3.4326518,3.748286.2586462,5.0217918,4.4557103,6.9625971,7.1880349,1.9069294,2.5189761,4.4198351,4.3996357,6.953042,6.14008,8.1479282,5.2216786,18.1360626,6.9281209,27.5039016,6.9794121,9.4375938-.6730678,19.4848046-2.3875207,27.3711726-8.167467-2.0131586-6.2246241-3.6585819-13.1624269-2.2780212-19.7121452.5735216-2.7035093,3.2557796-4.0624966,5.6889694-3.3823979,2.7742088.8783481,4.3482532,3.979278,5.0239302,6.7791458,1.1835852,6.1439989-.2949624,13.1365507-4.6795818,17.5062761,3.7238569,9.7846971,22.2476989,1.8135775,28.895276-1.0163734,11.9491326-6.2024363,22.6193727-12.9038384,36.5460286-10.9702739,12.5867788-10.3588708,44.5503734-10.8622742,60.4900932-10.5066933,9.545393.7411872,28.1732041-.3930984,35.3920831,5.7764309,3.1116819,2.8698889,3.3640931,8.2696461.8073098,11.6219608-.6911601,1.018621-1.8530365,1.2279353-2.9449687,1.4237641-.9805194.1881063-1.8848146-.8999595-2.2243585-1.7409053-.3915148-.96635-.3603322-2.5265257.8592537-2.7330738.439615-.0852933.8847791-.1086337,1.3111307-.2487337.9366959-.9282562,1.3512458-2.2952541,1.5182567-3.529183-.0000541-.0000576.0290171-.0063394.0291254-.0064546-.9663356-8.4964802-32.4090023-3.3215976-38.8051156-2.7845956-14.3407997,1.9707938-28.7977492,4.0963834-42.5162234,9.1350849,3.3374851,3.6404101,4.7615715,9.2630825,3.1013689,14.1015176-.9343139,3.1473226-3.2389026,6.2388012-6.5069035,6.609827-8.9477266.1033893-17.4454169-10.231853-15.2106371-19.6967002-9.9538525.2885564-18.8470908,5.3153284-27.8488726,9.2731678-3.6423274,1.5138984-7.4042693,2.6521605-11.2291719,3.5000796-8.1585525,2.0402963-19.7199327,3.6058317-23.9812293-6.1241163-4.7169766,3.6321689-10.3205864,5.648952-15.9325332,7.0830319-8.439453,2.3720757-17.2281538,2.8866018-25.8711733,1.667311-10.2536196-.8201988-20.9787811-4.6751676-27.6318125-13.4174999-14.1277322,6.9311177-24.5039167,4.6366127-39.1337645,4.4834882-3.2493171.1440189-6.7360158.378806-9.4607304,2.4744277-7.3009973,6.944949-14.0551826,13.8247178-24.6910732,12.3868342Zm218.794628-9.327744c2.4361132-.4800053,3.6152321-3.6460579,3.428326-6.0421079-.3005926-2.1170027-2.3969184-3.1712393-4.0491087-3.9612973-1.7085734,1.2343899-5.2900785,3.2495593-4.6235506,5.8491607,1.124766,2.1902512,3.2555766,3.9281021,5.6426963,4.0619203-.1316598.0295069-.2667844.0590137-.3983631.0923242Zm-75.1898311-10.8165731c3.1157016-3.2390706,4.0305805-8.0642506,3.7450919-12.5489491-.2208496-2.9433103-2.1353311-6.7386891-5.0784862-4.1230088-2.129931,4.1971794.0023008,12.2856349,1.3333943,16.6719579Z" stroke-width="0"/>
    </g>
  </g>
</svg>