<?xml version="1.0" encoding="UTF-8"?>
<svg id="Layer_2" data-name="Layer 2" xmlns="http://www.w3.org/2000/svg" viewBox="0 0 421.1743716 654.4499682">
  <g id="Layer_1-2" data-name="Layer 1">
    <g>
      <path d="m31.8626912,628.4616307c2.5596336,1.2753348,5.0765378,1.7789414,7.7044106,1.7247876,2.3591149-.04857,4.651946-.4667338,6.9090496-1.2277276,4.0558095-1.3674686,8.1112065-2.7358036,12.2695472-3.7375292,3.375746-.813174,6.7885248-1.349658,10.2111199-1.8484027,5.2636064-.7669146,10.55643-1.1719371,15.8607652-1.3821503,4.0742327-.1614988,8.1407458.057716,12.2005112.483678,5.2983448.5559312,10.4897449,1.6838232,15.5913009,3.267522,1.9490016.6050307,3.8726064,1.3422449,5.7448863,2.1788133,2.9799983,1.331366,5.6832986,3.1602734,8.0260587,5.5587828.2156754.2208032.4670669.4021343.7552029.6471022.4642977-.2607567.8932411-.4983116,1.3193588-.7414984,4.8479379-2.7660335,9.8182261-5.2370368,15.0753957-6.999708,4.6672666-1.5649736,9.4408789-2.5576976,14.3283419-2.8947511,2.5397072-.1751215,5.055272.1652534,7.5676722.4717401,4.5600618.5561719,8.9377456,1.8950472,13.2580123,3.5097943,5.062257,1.8920628,10.12526,3.8060278,15.3589316,5.1030723,5.8357588,1.446124,11.7299971,2.4724956,17.7391823,2.7297865,3.0911815.132376,6.1737731.1720889,9.2476391-.1207751,6.2347165-.5939111,12.3281058-1.8939882,18.1417794-4.4540927.56506-.248867,1.1119003-.544571,1.6213744-.795941.0502512-.5279156-.2745843-.6226006-.527626-.7918013-.5217938-.3487988-1.0714146-.6636131-1.5480434-1.0734975-1.8987618-1.633039-2.5110213-3.8918074-1.7355754-6.3614148.1749862-.5572791.3832019-1.1207196.6744462-1.6157097,1.9787839-3.363266,4.7071759-5.7238437,8.3451299-6.726532,2.2924524-.6318429,4.5338625-.3716156,6.6116567.9402068.2650224.1673233.5288014.3408081.7750841.5371098,1.8972246,1.5120232,3.1285026,4.0087797,1.9985859,7.1638062-.2376928.6637094-.5208896,1.3088861-.8214924,2.0582789.4669312,0,.8355754.0529986,1.1867911-.0078944,6.3429045-1.1004541,12.7302281-1.6961944,19.1479782-1.9848704,4.7472096-.2134864,9.4923846-.4790087,14.2384187-.7223881,8.6755036-.4449279,17.1292963-2.1567667,25.4307758-4.8645066,4.420091-1.4415991,8.8840584-2.7541437,13.3755137-3.918042,5.1693827-1.3396455,10.4282364-2.0601563,15.7744136-1.8552863,2.6657533.1021943,5.2795148.5436082,7.8586226,1.2270537,5.6796253,1.5049952,10.9915558,3.9003758,15.8087056,7.4796795,1.6242226,1.2068844,3.152464,2.5318963,4.5295675,4.050755,1.4352891,1.5831212,2.5791079,3.3471402,3.1071181,5.5143045.1051138.4313052.3226654.8316104.4653489,1.1886406.2132566.0539132.3406139.1317503.4455468.1060452,3.9662481-.9731324,7.9426232-1.9041932,11.8899735-2.9583397,2.0297132-.5422123,4.0469483-1.1953797,6.0013865-1.9893953,8.121701-3.2993886,13.8267796-9.2225184,16.7877331-17.9799395.6659467-1.9696592,1.1417843-4.0270717,1.5454212-6.0796705,1.3464962-6.8471146,1.9665093-13.7724032,1.5656754-20.7664311-.4403928-7.6845976-2.3439695-14.8753122-6.6013714-21.2292658-1.3260612-1.9790459-2.6341739-3.972629-3.911815-5.9873923-3.1287738-4.9339198-5.6330588-10.1938697-7.0749033-15.9691715-1.7383333-6.9627871-2.6102577-14.0436056-2.2856483-21.2601696.2106797-4.6834162.9573266-9.2629532,2.422138-13.7014015,1.0084141-3.0554315,2.3335259-5.934105,4.0460893-8.6107485.3460843-.5409607.6835334-1.0881792,1.0254584-1.6333759-.3396192-1.6964351-.7037876-3.3531092-.9988748-5.0236466-.599578-3.3938328-.4633144-6.8076424-.1035314-10.2114396.2695886-2.5504771.8652786-5.0356808,1.5008439-7.5093799,1.2534084-4.8783218,2.4957402-9.7598688,3.3013413-14.7524672.7001708-4.3388052,1.3167027-8.6899816,1.7083137-13.0738428.4497061-5.0351513.9481037-10.0666443,1.3084292-15.1092086.5672979-7.9394816.6004822-15.8775673-.0934948-23.8228254-.3776862-4.3233533-.8499975-8.6224457-1.6319988-12.8811514-.5813131-3.1661461-1.393108-6.2634566-2.6084945-9.2281985-1.1516401-2.8091399-2.7499573-5.2668816-4.9496157-7.2013769-.7671724-.0509287-1.1564324.5590842-1.6796956.8653301-2.7868037,1.6308487-6.2249511,1.0084888-8.2536696-1.5278602-.5719094-.7150232-.9738735-1.5090628-1.0515899-2.469463-.1895665-2.343104,1.3362787-4.3609722,3.5982368-4.6775916,1.0455317-.1463598,2.0954941-.105973,3.116115.2394081.7598483.2571465,1.5196062.5145096,2.3769729.8047982.2208972-.5026679.4549505-.9524576.6215954-1.4289392.7145024-2.0422253,1.0862209-4.1767288,1.4115537-6.3163829.4939217-3.2480266.7140051-6.5211807.7385543-9.8134209.0489627-6.5753826-.1547998-13.1420044-.6196966-19.6967845-.3716281-5.2400454-.7622444-10.4806443-1.27312-15.7067541-.4469483-4.5721721-1.0842769-9.1229956-1.615904-13.6861181-.2885769-2.4771167-.5910785-4.9549796-.7843522-7.4415792-.4988497-6.4178792-.9613503-12.8388392-.8356659-19.2894274.1668257-8.5579425.8542473-17.0555937,2.5713769-25.4331678.9919124-4.8394273,2.4532426-9.5050329,4.8579294-13.7765429.8225549-1.4611667,1.791817-2.8290444,2.6998644-4.235239.4167931-.6453934.8476918-1.2803892,1.3438288-2.0279769-.3478927-.1884553-.5867835-.3727709-.8532978-.453761-2.7248204-.8275909-5.0858342-2.366691-7.2203446-4.2927624-3.4102075-3.0771412-6.3841815-6.5779339-8.7418497-10.6409878-1.5673482-2.7010007-2.8184508-5.5503829-3.37526-8.6933993-.3899382-2.2009803-.526021-4.4111788-.3648013-6.6649411.3536344-4.9436193,1.5298237-9.7104564,2.5985483-14.5005677,1.1277239-5.0546587,2.66451-9.9819838,4.3132818-14.8657089,1.0655146-3.1559531,2.4685689-6.1589156,3.9052143-9.1430566,1.0689506-2.2204757,2.114618-4.4569569,3.0808058-6.7295767,2.0097755-4.727028,3.0767368-9.7024898,3.1579344-14.8916426.0524891-3.3544329-.1845934-6.7002975-.6493545-10.0192897-.7287889-5.204003-1.7462903-10.3419503-3.2487166-15.3622635-.9760888-3.2616855-2.1272316-6.4453292-3.7156478-9.4326112-1.1002361-2.0691458-2.408394-3.9739407-4.009017-5.6404588-.2161953-.2250513-.4606922-.419259-.659346-.5983156-.6973226.0364756-1.0204401.5801681-1.4269252.9499184-1.7463807,1.5885726-3.6480585,2.9197461-5.7007837,4.0100794-2.0087808,1.066987-4.1353343,1.7065799-6.3637013,1.9730649-1.4908977.1782744-2.9657909.0329255-4.4060984-.3672111-.7088512-.1969154-1.4083438-.5053154-2.0529964-.8788445-2.964073-1.717555-4.2308635-4.8888638-3.3358367-8.351135.7465113-2.8876509,2.4771588-4.9577956,4.9120008-6.3654704,1.3128146-.7590081,2.741503-1.1663653,4.2427538-1.2802689,3.2715929-.2482652,6.3946703.368908,9.3646658,1.8295211,1.28171.6303266,2.5274778,1.3434965,3.8701311,2.062166.2562968-.2576399.5324409-.5056644.7767569-.7851704,4.1405787-4.7371849,6.6778671-10.3549111,8.0916362-16.6053527.6105189-2.6990331.9283016-5.4191562.9239614-8.1955511-.0054252-3.4630715-.6327623-6.7878041-1.8109409-10.0032361-1.1984327-3.2705185-2.8528106-6.2637033-4.9279148-8.9861248-2.7597679-3.6207555-6.2123826-6.1818347-10.4492591-7.4310674-1.7179434-.5065249-3.480419-.8638198-5.2393229-1.1854696-2.4161702-.4418411-4.8149345-.145373-7.1343096.6165294-2.0597328.6766161-4.0798162,1.4979492-6.0964184,2.314234-3.5740041,1.4467438-7.1199101,2.9728469-10.7013966,4.3979111-2.1995002.8751741-4.4810343,1.4711671-6.8149445,1.7842064-3.9805345.5338906-7.7380244-.3675782-11.3294118-2.1450153-4.9847667-2.4670441-9.3531145-5.8530307-13.0638118-10.1757161-1.790325-2.0856206-3.5251545-4.2251814-5.2901166-6.3355865-1.1515045-1.3769004-2.3765434-2.6703406-3.7780605-3.7653101-1.0511378-.8212218-2.185485-1.4712213-3.3868338-2.007967-2.0034008-.8951057-4.083433-1.0334357-6.1790401-.6169235-3.1958884.6352034-6.1531798,1.952336-8.7746045,4.0055696-1.787635,1.4001925-3.5502688,2.8571262-5.1926207,4.4430062-4.2291682,4.0837918-9.1873965,6.5788936-14.7057569,7.8944527-4.4056463,1.0502956-8.864392,1.6963448-13.3872458,1.7430435-.9244813.0095491-1.8504998-.0344539-2.7741222-.0871636-.759464-.0433351-1.4687899-.3235992-2.0346863-.8500046-.4070729-.3786617-.7519817-.8629173-1.0302055-1.3599893-.2528608-.4517272-.3243156-.9877178-.1423896-1.4437172.3449088-.5725504.8413171-.6201938,1.3315994-.7054078,3.0435073-.5289506,6.0914905-1.031805,9.1268374-1.6098852,3.1584317-.6015227,6.2857136-1.3634431,9.3568218-2.3632071,3.69354-1.2023926,7.0926031-3.0144732,10.1638017-5.527539,1.8100593-1.4811074,3.6446225-2.9315516,5.5127317-4.3282151,3.2237153-2.4101435,6.791503-3.9862186,10.6499925-4.8342556,4.7105893-1.035319,9.0717939-.1677836,13.0801327,2.6680421,1.9668936,1.391555,3.6694881,3.1019768,5.2410861,4.9684067,1.7303989,2.0549906,3.4694103,4.1017558,5.1960115,6.1603477,3.1319837,3.7341837,6.9583966,6.4666899,11.1074974,8.7297967.7124002.3885838,1.4547747.7202881,2.1989351,1.0365646,3.1253378,1.3282792,6.3028935,1.6237486,9.6111067.7751399,3.0713568-.787848,6.0253479-1.9181469,8.9637415-3.111559,2.938823-1.1935866,5.8396921-2.4950296,8.7906993-3.6521767,2.9084192-1.1404557,5.9023309-1.8693182,9.0388809-1.8474641,3.6365751.02535,7.0890541.9699253,10.4603356,2.2880837,5.0077561,1.9579921,9.051811,5.2858896,12.15052,9.9205853,2.9770031,4.4525704,5.0417994,9.3287321,6.024082,14.6984398.7154971,3.9113269.6966896,7.8457293.0475612,11.7637111-.5256141,3.1726866-1.2759683,6.2874828-2.279138,9.3345867-1.4053599,4.2689347-3.537836,8.0855887-6.2060984,11.5817963-.4645803.6087252-.9339077,1.2133708-1.4407595,1.8715084.2186367.3095192.3717185.5897112.5798664.8113327,2.8835535,3.0702336,4.9114583,6.7242937,6.4874416,10.6946482,2.050962,5.167034,3.4312302,10.5442811,4.4477822,16.0343968.7520721,4.0615857,1.3521023,8.142366,1.6621088,12.2788525.4837494,6.4549325-.1820616,12.737728-2.3035063,18.802091-.9672728,2.7650467-2.0572462,5.4982629-3.3014769,8.133569-4.0953685,8.6740844-7.0167178,17.7920016-9.2939117,27.1636356-.6950168,2.8603574-1.4132717,5.7161899-1.8141508,8.6489931-.4122721,3.0158872-.5319888,6.015793.2427789,8.9930746.5138594,1.9742563,1.273979,3.8389533,2.2228965,5.6152472,2.1250615,3.9779481,4.8487065,7.4438657,8.0262622,10.5093819,1.3796353,1.3309328,2.9123977,2.4336252,4.6242829,3.2314917,1.486874.6930006,3.0246095,1.1242577,4.8419702.9490159.3857337-.4230257.8525293-.9358023,1.3201387-1.4477847,1.1882604-1.3008714,2.5763048-2.2469509,4.2526097-2.6523104,1.0981564-.2655463,2.2019641-.2957281,3.2899031.0797626,1.7126991.5911673,2.7804742,2.0160149,2.8826945,3.9285358.1040287,1.9457834-.5656704,3.5455358-2.2596524,4.3729582-2.0475712,1.0001612-4.2107902,1.5050193-6.478264.8676407-.4123625-.1159373-.8202944-.2496853-1.1915608-.3633602-.8634249.5321757-1.6900487.978283-2.4478626,1.5312779-.4977194.3631676-.9497313.8346189-1.3302657,1.3365166-2.5515296,3.3649267-4.320425,7.1751905-5.5715276,11.2718679-1.2641684,4.1394228-1.9761391,8.4054694-2.5500377,12.7016254-1.1159241,8.3537464-1.3824383,16.7538967-1.0809313,25.1730128.1975235,5.5153635.6617421,11.0124109,1.328593,16.4893372,1.0071935,8.272973,2.0230673,16.5451276,2.9576079,24.8275595.3604159,3.1940894.5665294,6.4117418.741719,9.6249174.3935098,7.2175749.6691114,14.4400598.5150801,21.6738327-.0758176,3.5599287-.4788215,7.0797354-1.2041744,10.5479635-.3596926,1.7195888-.9253177,3.3903189-1.4298639,5.1980701.2390717.2782063.5094741.6268126.8122922.9399421,2.4264781,2.5092961,4.2357915,5.4567329,5.5507309,8.7657969,1.5966444,4.0179738,2.5428041,8.2242586,3.2766113,12.4992826.7887828,4.5958073,1.1927362,9.2358041,1.5601598,13.8858615.4823027,6.1048941.475476,12.2133023.1903803,18.3197849-.2633948,5.6420112-.6555935,11.2753578-1.2857789,16.8907495-.5124127,4.5665883-1.0276737,9.129807-1.7296981,13.6685722-.8132416,5.2576393-2.0414678,10.4113996-3.338278,15.5513927-.559567,2.2181411-1.11398,4.4482682-1.4842066,6.7075661-.5208218,3.1784691-.7521626,6.3912115-.1886623,9.6072753.1008188.5752822.1073743,1.1830086.5533732,1.6947984.5127292-.3484619,1.0205757-.7116536,1.5444266-1.0464928,2.0259607-1.2948784,4.2149948-1.8184617,6.5663787-1.5319999,3.538062.4310645,6.8571257,4.7767052,4.8475763,9.3434378-1.6932135,3.8478105-6.7424725,6.1733446-10.5144523,4.8463109-.8884714-.3126481-1.6954288-.7827516-2.4204652-1.4130059-.3727131-.3241047-.7480484-.6446954-1.1052997-.9523373-.6586678.3873564-.8563721,1.0418716-1.1522731,1.6024721-1.7404129,3.2967892-2.8309288,6.8510136-3.526669,10.5385769-1.066871,5.6551526-1.0752348,11.3569496-.501065,17.0716955.2890742,2.8777588.7678505,5.7225921,1.3904406,8.5381583,1.2875873,5.8233423,3.5801527,11.1759073,6.7404833,16.1107417,1.3211785,2.0629482,2.6671322,4.1081821,4.0243432,6.1445107,4.0568946,6.0869391,6.3464309,12.8920784,7.1429899,20.2645093.4942382,4.5743864.5528759,9.1680276.2568393,13.775869-.244723,3.8087716-.6252575,7.5894794-1.28709,11.3387058-.4565781,2.5867722-1.0467524,5.1411484-1.9774954,7.5833179-3.8031748,9.9786984-10.3889035,16.9364794-19.9111721,20.6767523-3.5389662,1.3900928-7.1910484,2.3464736-10.8740092,3.1831383-1.7491385.3973688-3.4956096.8084084-5.2387352,1.2344667-.4710002.1151431-.9253629.3074975-1.4769277.4947976.120214.651964.2040338,1.2224807.3320691,1.7815889.6794645,2.9665711.368599,5.8674837-.4726277,8.7409103-.8891043,3.0370433-3.7708043,5.3309516-6.9084393,5.1931361-1.1796253-.0518433-2.3379565-.1883109-3.4708344-.5317666-1.0238308-.3103376-1.9362184-.8375793-2.7157332-1.6255296-1.5204652-1.5370062-2.1355503-3.3423747-1.4794595-5.5313449.281072-.9376556.5543678-1.8802211.887522-2.7973705.3539961-.9743839.8181695-1.8852755.9021249-2.9759096.0715678-.9307239.5593861-1.7585796,1.1995178-2.3933107.7174863-.711461,1.4919827-1.3723785,2.3043653-1.9565179.7617923-.547748,1.6054152-.9664895,2.4475009-1.4622498.3306224-.7802966.243864-1.5627112-.1418245-2.256506-.4673381-.8406601-.9481489-1.717904-1.5965992-2.3894597-1.1462601-1.1870521-2.3626865-2.3202391-3.6568745-3.318547-5.7555785-4.4393147-12.1818507-7.1713636-19.2173985-8.19167-2.942372-.4267804-5.9140629-.2834291-8.8693651.0412532-6.6034963.7254207-12.9549004,2.6428997-19.2681696,4.7010823-4.8407947,1.5781631-9.7016628,3.0690542-14.6966018,3.9584768-3.2819461.58438-6.5884639,1.1153283-9.9041594,1.3592853-5.7240443.4211002-11.4658789.5592045-17.1963431.8921664-5.8527127.3399417-11.700633.7527142-17.4937134,1.7942489-2.9185689.5247386-5.8548827.9393404-8.7860427,1.3818133-.9289798.1402223-1.7742302.4255288-2.5867258.9666339-6.0926207,4.0572534-12.7462326,6.5329742-19.7740947,8.0164042-6.0437485,1.2756237-12.1329332,1.457388-18.2481138,1.1160022-4.4445045-.2480968-8.8169664-1.1083485-13.1701237-2.0693023-4.4181017-.9752504-8.7065631-2.4251772-12.9805346-3.9399442-3.8025192-1.3476844-7.5959964-2.7364775-11.4421435-3.9292097-4.0436819-1.2540103-8.2021978-1.835454-12.4263702-1.8328546-3.859518.0023587-7.6102829.7881429-11.3141986,1.821735-2.1433604.5980509-4.2623186,1.3309328-6.3394121,2.1543117-3.3550397,1.32997-6.5983649,2.9454872-9.7782602,4.6985792-.6492189.3579448-1.3325715.6726628-1.8919011,1.2614233.0255325.6142248.2926797,1.1389153.4382793,1.6956649,1.0929799,4.1791356.6217424,8.0711356-1.914834,11.5642264-.8868212,1.2212291-1.9809539,2.1436254-3.4191252,2.5610672-1.9177274.5566051-3.5542473.0459706-4.8862423-1.4734175-1.4369845-1.6392005-1.9097478-3.6499684-1.70377-5.8387942.3137477-3.3340951,1.6637703-6.1536567,3.8619481-8.5292049.4260499-.4603798.8524841-.9203745,1.3687736-1.477798-.4663209-.4676484-.8396104-.8930328-1.2605742-1.255695-2.3303725-2.0075428-4.9701525-3.4140503-7.7885242-4.4519266-4.2667718-1.5711833-8.6530229-2.6483391-13.0970187-3.4500084-6.7938201-1.2256577-13.6344892-1.3732931-20.4849351-.7453974-6.2095231.569217-12.3891565,1.4232109-18.5166852,2.655704-4.1273717.8302144-8.1577109,2.0599156-12.1563295,3.4186233-2.1719559.7380807-4.331705,1.5143819-6.6065367,1.8727599-4.3021318.6778616-8.4887911.3589557-12.5376382-1.421478-.3375113-.1484537-.6792272-.2860767-1.0939519-.460091-.3204331.3267041-.6468114.6102295-.9184684.9442985-2.0769353,2.5534135-4.6994817,3.2314676-7.7056934,2.5267938-3.1712093-.7433757-5.8022552-2.5363731-8.0899662-4.9198157-.8793672-.9161385-1.7014191-1.9118951-2.4447007-2.9560292-3.8254436-5.3738896-6.369426-11.3774559-7.5997107-17.9929364-.6177257-3.321724-.5454656-6.6817167-.1026993-10.0110945.7935667-5.9671749,2.4797104-11.6513058,5.1351529-16.9850012,1.0975659-2.2046146,2.252043-4.3794808,3.4434059-6.5284012,2.8363682-5.1162617,5.1844998-10.4390782,6.5493203-16.2366674,1.0430649-4.4308427,1.4941076-8.9149727,1.4962353-13.4669274.0020627-4.4085554-.3348919-8.792561-.7560619-13.1750262-.5973175-6.215368-1.5432879-12.372346-2.7200225-18.486338-.6184251-3.2131756-1.3980104-6.3949661-2.2095256-9.5605346-.3548466-1.384172-.9580415-2.6983051-1.4793804-4.0305375-.1359754-.3474991-.3879066-.6435401-.5652041-.9287984-1.3793725.4309201-2.6667451.8738263-3.9749087,1.2301826-1.2657507.3448516-2.5726145.4006902-3.8622561.2184445-.7211003-.1019536-1.4634-.3098081-2.1142591-.6484019-2.1522626-1.1195643-2.7622418-3.693821-1.4533011-5.8423082.5926905-.9727473,1.4183932-1.6618247,2.4084845-2.0796517,3.1062436-1.3110042,6.2198042-1.5935187,9.3114378.0812548.1608156.0871275.3388507.1382487.6083036.2458343.2940134-.2648002.6497303-.5172774.9260467-.8455219,1.3252305-1.5742159,2.422997-3.3126743,3.2878771-5.220911,1.5678201-3.4592988,2.5712469-7.1069086,3.1758179-10.8787592,1.0007114-6.2433354,1.276604-12.5315824.9449729-18.8542953-.0791207-1.5084129-.0547298-3.0227948-.1252521-4.531978-.2759717-5.9057043-.4877901-11.8166555-.8796808-17.7138877-.4964902-7.4712556-1.3616388-14.9021244-2.3546589-22.3199963-.9334697-6.9729921-2.3980692-13.8181331-3.9883785-20.6401203-1.2805656-5.4932206-2.2033092-11.0526773-2.7088527-16.6835208-.3236063-3.6043829-.2790601-7.2266006.0036959-10.8321629.2514367-3.2062921.5384453-6.4161704.9807907-9.5975036,1.2545414-9.0226546,3.5555866-17.717137,7.460815-25.8805267.1085045-.2268444.1902164-.468202.3191588-.7892982-.2933946-.2648002-.5496151-.5397814-.8441908-.7553618-5.560081-4.0697208-9.377254-9.6242195-12.1082767-16.1026788-2.1435497-5.0849006-3.3220645-10.4158282-3.8010584-15.966885-.3356605-3.8899301-.1667805-7.7529277.1573316-11.6102933.3241036-3.8573415.7690542-7.708329,1.3056177-11.5391231.8570023-6.1186372,2.3810447-12.0768105,4.0374062-17.9993145,2.0947537-7.4900048,4.2505441-14.9633062,6.1855164-22.5004369,1.4139951-5.5078301,2.5773418-11.0921494,3.7315448-16.6707405.7568503-3.6580554,1.1264213-7.3913245,1.3458746-11.1320788.1345767-2.2939564.3007554-4.5945557.2674326-6.8890898-.0620793-4.2745667-.3932612-8.5316839-1.3603023-12.7013125-.236246-1.0186457-.5318164-2.0232595-.8386526-3.0208934-.1089256-.3541661-.3323376-.6684268-.5417739-1.0752545-.611847.3610496-1.14307.6778857-1.6771893.9890897-1.8290363,1.0656271-3.7680464,1.6042051-5.8675557,1.4237404-1.1994047-.1030848-2.293464-.5159296-3.2800642-1.227511-1.80256-1.3001012-2.3177645-3.4823202-1.3349309-5.5436318.5531584-1.1601677,1.407061-2.004101,2.5148641-2.5152771,2.8736327-1.3259988,5.7792743-1.8920989,8.7372608-.2563281.1612451.0891613.3496022.1227487.6102505.2109352.2744374-.2964381.6001714-.5895427.8602291-.9381731,3.0149119-4.0418737,4.815121-8.7022324,5.9587815-13.6571037,1.7119079-7.4167888,1.5752261-14.8366825-.1441274-22.245974-.7270652-3.1331724-1.627475-6.1980628-2.8103751-9.1677147-1.4460661-3.6302805-3.0008656-7.2051797-4.7761978-10.6696653-1.536755-2.998931-2.9968334-6.043243-4.5713333-9.0192008-3.4715775-6.5616396-5.4811496-13.6263924-6.4466253-21.0452632-.4327721-3.3254787-.4807514-6.6675645-.1865657-10.028189.4128824-4.7165463.9853117-9.4020684,1.9869273-14.0176659,1.6693001-7.6923957,4.9286806-14.5338181,9.6825219-20.6025616,3.8441183-4.9073964,8.3202445-8.9581694,13.6287955-11.9524673,2.3442916-1.3223013,4.6943023-2.633176,7.033519-3.9655559.6933101-.3948988,1.4077391-.7707565,2.0570145-1.4371495-.4055753-.4250655-.7446407-.7915485-1.0948222-1.1455552-1.7050811-1.7236835-3.3378711-3.5192802-4.5724325-5.6657366-.5127348-.8914503-1.002695-1.8243675-1.3328992-2.8034658-1.2251124-3.6326663.7679353-7.2094278,4.3293258-7.8360177,4.7809364-.8411505,9.5048966,2.1998822,11.3654444,5.4534055,1.1248192,1.9669455,1.325903,4.0671064.9228312,6.2679273-.2751494,1.5023537-.8735577,2.8688836-1.6804981,4.1330297-.3418176.5355032-.6810751,1.0728567-1.0369192,1.6336678.2493909.2434967.4143348.4402586.6105133.5909086,5.8912318,4.5239843,12.3983286,7.5765757,19.5125196,9.1106335,6.6924248,1.4431154,13.4604807,1.7120193,20.2679881,1.335247,3.6992478-.2047376,7.3910585-.468557,11.0706737-.9236478,4.0535151-.5013381,8.0375873-1.3667224,11.9546241-2.5801354,2.6904268-.8334516,5.1506204-2.1921051,7.4865877-3.8133536,1.4990468-1.0403975,2.9699616-2.1267023,4.4565869-3.1875158,1.9006606-1.3562467,3.8877066-2.5466593,5.9913498-3.5104321,3.6591011-1.6763801,7.4371164-2.3073806,11.3930904-1.5338291,4.5862272.8967935,8.9961459,2.2972237,12.9561889,5.0146451.6605101.4532405,1.3986575.8292005,1.7894773,1.5888795-.1426157.4948126-.4981489.4501899-.7739878.3946912-1.3328201-.2681728-2.6742302-.5125811-3.9841061-.8804511-3.1669765-.8894226-6.3772869-1.5405412-9.6159103-2.0184608-3.6954162-.5453261-7.2547722-.0476794-10.6179272,1.7774041-1.9283518,1.0464627-3.7726466,2.2290831-5.5583036,3.5307819-1.8321671,1.3356081-3.6765635,2.6588389-5.574715,3.8836122-2.8175692,1.8180164-5.8747639,2.9976855-9.0897763,3.7954738-4.9419413,1.2263256-9.9335008,2.0190415-14.9964473,2.328314-2.8954777.1768785-5.788548.4391515-8.6863089.52522-6.9301967.2058327-13.8245417-.2019035-20.5989101-1.8938137-6.9843755-1.7443552-13.4271042-4.8188248-19.3224049-9.1813043-.5045687-.3733726-1.0193607-.7310858-1.5686593-1.1241644-.2950759.142927-.5969954.2314866-.8357676.4138015-2.2648855,1.7293305-4.7367038,3.079879-7.1805596,4.4825536-1.2490456.7169065-2.5070823,1.4177053-3.7375917,2.1693244-7.6379148,4.6653589-13.1478915,11.4056459-16.9170569,19.8096893-1.8470017,4.1182306-2.9410581,8.4943418-3.7050912,12.9710708-.662635,3.8825832-1.1151244,7.7925924-1.3507036,11.7302561-.1976902,3.3043406.2162151,6.5587574.7665535,9.7964587,1.0092053,5.9372579,2.9012731,11.5301456,5.7471326,16.7600341,1.4536445,2.6714087,2.8211832,5.3958159,4.2376083,8.0903302,2.0813913,3.9595238,3.9994211,8.0077275,5.6116658,12.2071167,2.9776049,7.7557076,4.6255573,15.792281,4.207114,24.217667-.3642645,7.3345953-2.187932,14.2470435-5.5811376,20.6470038-.9048375,1.7066039-2.091185,3.2445488-3.1564453,4.8538202-.2449547.3700512-.5234864.7149028-.7299474.9946495.6141075,1.6913205,1.2446093,3.255199,1.7509215,4.8633874.7277971,2.3116707,1.1122733,4.7174007,1.3985954,7.1274389.7153614,6.021425.6390127,12.0532235.2086791,18.1001129-.5061228,7.1118185-2.0390265,14.0075271-3.606451,20.9048483-1.4370438,6.3235794-3.1725062,12.5528829-5.0012176,18.7600195-1.9747941,6.7029932-4.0142246,13.39039-5.4184317,20.2708393-.7742054,3.7934881-1.3164681,7.6201425-1.717319,11.4740904-.4418056,4.2476342-.7853412,8.5033073-.7111682,12.7810992.1614938,9.3140504,2.6413058,17.8468655,7.6378385,25.5287193,1.7776775,2.7330598,3.9717468,5.0162817,6.4674389,6.9885162.193432.1528823.4144902.266148.7134852.4552532.5275497-.4315459,1.053404-.8649691,1.5824738-1.2939156,1.423817-1.154295,3.003615-1.8103747,4.8197663-1.6473837,2.0354379.1826549,3.4759432,1.3200057,4.2638727,3.2883412,1.3098138,3.2720228-.854592,6.7851144-4.2906597,7.0605047-1.1927871.0955755-2.3316695-.1811867-3.4570594-.5501308-.5199233-.1704522-1.0327062-.3655986-1.5729203-.5581937-.6394365.8328378-.9641109,1.7616603-1.3220686,2.6582312-2.1306337,5.3366317-3.710118,10.854739-4.7983564,16.5376424-.8149935,4.2559378-1.4097595,8.5397468-1.5985093,12.881007-.1112172,2.5580346-.2886814,5.1185242-.2654321,7.6761737.0413645,4.5498608.7545926,9.0300195,1.6337987,13.4662535.8912405,4.4969344,1.9394057,8.9587771,2.9256273,13.4342907,1.2413316,5.6331059,2.1660559,11.325757,2.8427598,17.065197.422645,3.5845987.8562789,7.1678978,1.2492151,10.7562031.2071504,1.8917258.3717213,3.7904315.4959929,5.6903887.3214899,4.9151464.6465176,9.8305335.9007403,14.749916.2305128,4.4606874.4023541,8.9255628.5412738,13.3906788.219442,7.0529954-.1839661,14.0549177-1.723137,20.9458367-.6447148,2.8863272-1.6046297,5.6555377-2.807476,8.3306408-1.2099387,2.6909883-2.8098298,5.0925303-4.7304055,7.2583467-.3749821.4228813-.7388284.8569303-1.0560742,1.2257059.0319156.1957721.0277195.2687956.0551452.3240565,1.9491712,3.9277656,3.057045,8.1569153,3.9699214,12.460677,1.5775855,7.4374636,2.9201343,14.9214272,3.7037858,22.5024827.4655919,4.5041068.8205741,9.0227509.8849309,13.5626714.13608,9.5991402-1.9816801,18.6204951-6.0914057,27.1278459-1.0150544,2.1012651-2.1763723,4.1223824-3.2682191,6.1816722-.8793644,1.6585514-1.7791016,3.3055019-2.6283955,4.9813826-2.5784354,5.0881017-4.1163658,10.5309231-4.8549879,16.2466798-.5128309,3.9685374-.2686053,7.8644365.8925601,11.6842313,1.3968632,4.5951334,3.2767667,8.9297988,6.0763394,12.7684152,1.4499485,1.9880956,3.0896783,3.7550028,5.1530307,5.0310116,1.0787923.6671752,2.2039788,1.1799278,3.47661,1.2238767,1.0506009.0363432,1.9442885-.30485,2.5945556-1.2219031.0673632-.0950219.0758006-.2373623.1390893-.4504155-.2853104-.354479-.6040708-.7460714-.9183101-1.1417554-1.007233-1.2682587-1.8023962-2.663069-2.2319837-4.2730986-.5335683-1.9995521-.3010606-3.9023012.6582185-5.7052148.3705939-.6964905.864363-1.2723022,1.5125506-1.6974459,1.6827303-1.1038236,3.4964319-.9028046,4.9061433.5808179,1.1949685,1.2575724,1.7657702,2.8363131,1.9397448,4.5787187.1307762,1.3098489.107736,2.6238857-.1490638,3.9245886-.0984848.4988892-.1560431,1.0069244-.2589472,1.6873372ZM371.5626399,95.571196c.7361129,1.2449124,1.6993168,1.688336,2.7720651,1.7397581,1.160863.0556701,2.3607877.0891853,3.4888733-.1547837,3.0124027-.6515308,5.6501482-2.1780311,7.9759884-4.3113552.0745969-.0683903.0693977-.2354488.1009996-.3566331-2.1972623-1.654159-5.1219119-2.6365095-7.763636-2.6499036-1.2524137-.006342-2.4753956.166168-3.583001.7850742-1.8592706,1.0389112-3.0991611,2.5418245-2.9912895,4.9478433Zm-130.3150232,527.6953731c.1769302.7758199.5653313,1.1225007,1.0377104,1.2834218.8713367.2967149,1.7614809.6884517,2.6552419.7253726,3.7777214.1559149,3.5161577.279145,6.0012509-2.7247321.4390591-.5307557.7878334-1.1741995,1.0680916-1.8198577.4913448-1.1317911.2618802-2.0257866-.6522932-2.7726763-.6942709-.5672915-1.4741925-.9210966-2.3718416-.9636976-1.2056438-.057042-2.3198046.2536325-3.3458281.904345-1.4460717.9171493-2.6622947,2.1159949-3.5911614,3.6085708-.3637389.5844763-.5833476,1.2706174-.8011704,1.7592535ZM36.4717157,14.0899196c.3379182,1.8229143,1.2576807,3.0573721,2.148164,4.2970376,1.6605321,2.3116647,2.9902779,3.6699693,4.3589441,4.5007372.8598025-.8347092,1.5012678-1.8544018,1.8451029-3.0540296.5139216-1.7930305.1273572-3.3470499-1.2334424-4.5921579-1.3953911-1.2767669-3.0150984-1.9904031-4.8401335-2.1325329-.4749787-.0369931-.9877757.0500171-1.4374027.2185769-.3062032.1147941-.5327291.4705246-.8412324.7623687Zm330.6778635,630.9892845c.4005174.748767.911393.972314,1.4546843,1.1044494.5371427.1306431,1.0840056.2308638,1.6317728.2939229,1.5705581.1807535,2.4612448-.4485863,2.83979-2.0690616.495278-2.1201828.5270156-4.2634712.121073-6.4074817-.0338173-.178491-.1614457-.3368609-.3021852-.61745-.7833576.790646-1.4860602,1.5859612-2.2736224,2.2707064-.8009896.6963942-1.6856633,1.2839032-2.621289,1.9846779-.4838399,1.0160222-.8463807,2.1768397-.8502235,3.4402367Zm39.6706186-151.9765027c.8216055,1.2870802,1.8697142,2.0651144,3.2596574,2.0050878,1.4707791-.0634442,2.7254986-.7784193,3.64946-2.0237649.5781936-.7792857.54085-1.5636258-.0582308-2.326545-.1901994-.2422241-.4771487-.3983797-.6700156-.5537169-2.5495856-.2241728-4.0307631.457636-6.1808711,2.898939Zm-280.5508143,148.2607795c-2.0111883,1.3991425-3.5029789,4.1501573-3.5213568,6.4168684-.006499.8028727.1287248,1.5565978.7728801,2.0148115.7968416.1590438,1.2246094-.3346948,1.5987128-.8525498,1.6546943-2.290972,1.9851133-4.8047689,1.1497639-7.57913ZM417.6363831,224.6817596c-1.3935149.0196157-2.0121716.1772636-2.8757774.8028486-.5174763.3748889-1.0847742.7320636-1.3440097,1.5031179,1.3576179.5485663,2.5105692.2306231,3.5981464-.4155886.6255287-.3716397.9614407-.9571028.6216406-1.890378ZM28.6337202,326.8366384c-.7136943.2810223-1.4867214.4683464-1.9175975,1.2992588,1.4798833.9109156,1.9032093.9357301,2.9992239.1908862.2004113-.7937508-.1826832-1.1977384-1.0816264-1.490145Zm-.0947437,298.703766c.1273346-1.5252127.3749284-2.9313832-.8185764-4.0751603-.5269987.6883073-.5858737,1.368672-.3715546,2.0972216.2139348.7272018.3849651,1.4859331,1.190131,1.9779387ZM13.6145011,177.9011623c-1.3021393-.2923585-2.4529713.1816921-3.5921306.6734089-.1837259.0793053-.3007017.3339125-.498423.566064,2.024254.3323601,3.2184596-.0383409,4.0905536-1.239473Z" stroke-width="0"/>
      <path d="m202.2962025,27.0250805c-1.7879967.8517496-3.2493947,1.5370001-4.7020219,2.2426487-1.7959989.8724574-3.5964058,1.7360486-5.3741172,2.6494433-3.4265962,1.7606194-7.0479354,2.1971053-10.8080927,2.0714143-4.6046617-.1539293-9.0594741-1.0818372-13.4473302-2.497978-1.1794896-.3806714-2.3821269-.6794561-3.5646004-1.0502865-2.4109145-.7560627-4.507844-2.0725635-6.3353318-3.9261169-1.5290777-1.5508966-2.9159693-3.2065929-4.0116957-5.1342799-1.0522907-1.8512849-1.2643266-3.7965208-.6992553-5.8719153.9134727-3.3549714,2.504884-6.2607429,4.8695032-8.6991727,4.0799292-4.2073167,8.9752362-6.4774199,14.6125786-6.7480582,7.6916839-.369269,15.1275683.9252709,22.1638395,4.4000186,2.594502,1.2812542,4.939466,2.9709471,7.1082685,4.9435155,2.0976415,1.9078185,3.7956247,4.1269614,4.7059552,6.950771.055812.1731629.1922113.3168751.281298.4586138.5669363.0606703.754943-.4306885,1.0401743-.7306044,5.6380997-5.9282895,12.3545311-9.8122205,20.0615187-11.6114034,7.6190084-1.7786511,14.5813157-.1312689,20.6514896,5.2387667,4.0340182,3.5687407,6.3605817,8.146969,6.9670996,13.6820114.3275029,2.9890269-.5395163,5.5826797-2.6315969,7.6547348-1.556136,1.5412723-3.3657658,2.6752235-5.3351912,3.4858703-3.7618752,1.5484507-7.6710454,2.4510988-11.6843347,2.8593947-5.5521551.5648606-10.9604738-.2307916-16.2519919-2.0022057-2.6463129-.8858966-5.2565932-1.8936573-7.8846637-2.841554-.3399131-.1225922-.6889135-.2166454-1.1639825-.3644613-.0167278.4140422-.0949189.7355414-.0313307,1.0212932.7598709,3.415019,1.9694027,6.6257698,3.7979756,9.5672075,2.306332,3.7099829,5.5437007,5.6379136,9.6833979,6.0697122,3.8353871.4000524,7.6449365.0621445,11.4615161-.1978841,2.0319059-.1384353,4.059562-.4265637,6.0917391-.4584603,1.7819837-.0279674,3.5788642.1130973,5.3484378.3528664,1.7867986.2420857,3.4558472.9559115,4.9976516,1.9734981,3.054629,2.016063,5.5363541,4.5971671,7.0905461,8.1024245.7203798,1.6247113,1.1306626,3.321357,1.202479,5.1247097.1492616,3.7482757-.5570578,7.3181205-1.9252549,10.7499573-.657628,1.6495017-1.5835334,3.1210359-2.8321947,4.3391422-.6973226.6802745-1.4809514,1.1793923-2.4718014,1.1839232-1.1939343.0054575-2.0032878-.7570887-2.0631914-2.0253955-.0212036-.4493204.0503868-.9179677.1582584-1.3558135.1085498-.4404813.2926458-.8652399.4818732-1.2769474,1.7746597-3.8613489,2.3604712-8.008612,2.481612-12.235734.1047069-3.653338-1.1057744-6.7972088-3.5443688-9.4235193-1.6764179-1.8054407-3.6732858-2.8891492-5.9979731-3.2233686-1.3989853-.2011394-2.8286005-.231634-4.243658-.221056-3.5884488.0268182-7.1287035.5911553-10.6673759,1.174001-2.6846737.4421721-5.3810569.7309564-8.110308.6447375-3.9096901-.1235068-7.1805823-1.7523038-9.8941227-4.6744687-3.1591099-3.401986-5.1251445-7.5215705-6.2322751-12.1307959-.1029889-.4287961-.2239489-.8526942-.3286558-1.2488717-.5819461-.0216555-.67205.4302101-.8668157.7189583-1.7693023,2.6227183-3.733551,5.0640815-5.9189682,7.3039683-2.1042422,2.1566825-4.4332019,3.9656733-7.0628096,5.3438823-2.7073241,1.4189388-5.5758226,2.1192682-8.5667957,2.2138569-3.392892.1072968-6.7836138.0580649-10.1746748-.2438487-2.8886849-.2571826-5.7909329-.3602012-8.6892363-.4698688-2.1106282-.0798528-4.1867271.2908121-6.2225323.8528748-2.6298903.7260946-4.9228061,2.1166989-6.7401442,4.2827259-2.6275054,3.1316501-4.5235659,6.7160202-5.6056614,10.7645307-.2015924.7542065-.3116793,1.5411038-.4097516,2.3206483-.1923469,1.5286785.2152346,2.8417525,1.2680678,3.940576.5152836.5377897,1.2119506.9324027,1.4460491,1.9018646-.2187271.216862-.4324019.558657-.7304164.7029228-1.849946.8955059-3.8580487.3981029-5.1896934-1.2657616-.7325187-.9152479-1.1913573-1.9803817-1.4594766-3.1512598-.5418446-2.3662037-.3264744-4.7103005.2232933-7.0224406.9520935-4.0042067,2.6570842-7.6355763,5.0771312-10.8583974,3.0498707-4.0616038,7.1429899-6.1024572,11.9003718-6.8850463,3.5700482-.5872803,7.1376664-.3692389,10.7144849-.2370735,3.3293264.1230074,6.662134.279163,9.9908726.2288481,1.9619883-.0296583,3.929786-.3593287,5.8757699-.6844262,3.1214046-.5214713,5.878912-1.9918262,8.3010047-4.1048065,3.8038529-3.3184567,6.9201035-7.2935528,9.5183353-11.7322537.0902396-.1541369.1186316-.3493073.3011001-.9107983Zm-1.4197368-5.2904927c-2.5777064-4.0892643-5.8838625-7.1732981-9.8604863-9.4439955-3.5643292-2.0352606-7.4001909-3.2526117-11.3562893-4.0595459-3.0962225-.631548-6.2120209-1.0098457-9.3775507-.8875813-3.7944831.1465583-7.0811311,1.661229-9.9836616,4.1575704-1.5958419,1.3725109-2.9052658,3.0272054-3.4857199,5.0800749.0644585,1.1332141.3008628,2.0692571.8454652,2.9058286,1.6987969,2.6095499,3.8313295,4.6634033,6.7429359,5.5565565,2.2468014.6892159,4.5284486,1.2827389,6.8259871,1.7401131,1.6285176.3241889,3.3103833.3393821,4.9667052.5113987,4.8793364.5067385,9.7462853.3573612,14.5569022-.6124107,3.6679058-.7394134,7.1080198-2.1553978,10.1257121-4.9480088Zm51.4528335,3.7706322c-.0551339-.5958306-.0519918-1.2571301-.1863113-1.885086-.428932-2.0051239-1.151188-3.9054061-2.3560632-5.5135463-3.3301402-4.4447602-7.6610539-6.9064611-13.0326846-7.1688515-2.5666977-.1253752-5.0198272.5021896-7.4189532,1.396826-5.3431934,1.992488-10.1820893,4.9707474-14.6953811,8.5775823-.6901793.5515718-1.3674738,1.1213725-2.0566359,1.6744125-.6738132.5407411-1.3551314,1.0708439-2.0198347,1.5951042.1058824.2059711.1383433.3549694.2263676.4278033,2.1467172,1.7760141,4.3364068,3.4711886,7.0004421,4.2980184.708806.2199879,1.3944869.523096,2.0984327.762489,3.2499372,1.1052166,6.6078139,1.6256951,9.992568,1.8154321,2.5808485.144675,5.1786508.0551166,7.7644949-.0515785,1.4702592-.0606643,2.9578113-.2427777,4.3905913-.589982,1.9184734-.4649016,3.793658-1.1346191,5.6832647-1.7314214,1.9028985-.6010113,3.378063-1.8290428,4.6097026-3.607202Z" stroke-width="0"/>
    </g>
  </g>
</svg>