<?xml version="1.0" encoding="UTF-8"?>
<svg id="Layer_2" data-name="Layer 2" xmlns="http://www.w3.org/2000/svg" viewBox="0 0 406.4003302 620.1226479">
  <g id="Layer_1-2" data-name="Layer 1">
    <g>
      <path d="m10.7001995,194.7582073c1.8895088-.2776739,3.3453599-1.1709856,4.4517432-2.7317335l.7855083-1.1098464.8164839,1.0843717c.0917353.1222784.1798965.2267245.2601152.3226791.2247713.267484.4427916.5273256.5929039.883971,1.4355978,3.422097,2.120237,7.067522,2.0352528,10.8360745-.0337554,1.4664917-.0091338,2.963553.0146935,4.4122124.0579799,3.5460737.1179454,7.2135767-.638573,10.8539067-.2370821,1.1412651-.4058592,2.3377253-.5690765,3.4959736-.1429641,1.0147409-.2831483,2.0091021-.4650304,2.9932735-.2597181,1.4036542-.5678852,2.7928727-.8665213,4.1362369-.1798965.8109436-.3498649,1.5777311-.5110967,2.3470661-.1640116.7820723-.3161095,1.5666921-.4682074,2.3530101-.2863253,1.4766816-.5825787,3.0034633-.9574623,4.5022229-.7735946,3.0934738-1.604772,6.0765574-2.4697048,8.8660335-.5778132,1.8621982-.7950392,3.8679037-1.005117,5.8065259-.1048403.9697357-.2100778,1.9377731-.3562189,2.9007155-.200944,1.3246827-.4122132,2.6485163-.6230852,3.9723498-.236685,1.484324-.4654276,2.9176986-.6814622,4.3527716-.1437583.9569983-.2783829,1.855405-.2704404,2.707108l.0083396,1.1217345c.0127079,2.0184428.025813,4.1048181.2323167,6.1062778.3049901,2.9610055.7513558,5.8430396,1.3271834,8.5662816.8796263,4.164259,2.8644446,7.8665774,5.1756975,11.930636,1.0972495,1.9275832,1.987201,3.7184523,1.7664009,6.1122219-.0059568.0636867-.0047655.1095411-.0019856.1384124.0198561-.0212289.1092087-.0152848.2406562-.038212.3709124-.0636867.7426191-.1069936,1.1607891-.1545463l.239862-.0288713c.9546825-1.3416658.7160119-3.12744.4817096-4.0912316-.3621757-1.4885697-1.0491976-2.9737429-1.7139807-4.409665-.2748088-.5927106-.5452492-1.1777788-.7986133-1.7662436-.2513785-.584219-.5242017-1.1599465-.7966277-1.735674-.4777384-1.0079477-.9717587-2.0515599-1.3593503-3.1529147l-.2628951-.7413128c-.8415026-2.3632-1.711598-4.8087681-1.8291462-7.5311609-.0929267-2.1543077-.2180203-4.3069172-.343511-6.4586774l-.0087367-.1503005c-.0849842-1.4622459-.1699684-2.9236427-.2438332-4.3858886-.0234302-.4593932.0667166-.8882167.13939-1.2329739l.061554-.305696c.1318447-.7438603.2712347-1.4962121.4106247-2.2477148.2926793-1.5845243.5861528-3.1698978.8252205-4.7348916.136213-.8865184.230331-1.7823776.3248462-2.6773876.1298591-1.2236332.2640865-2.4871767.5011686-3.7311897.4257153-2.2400724,1.0071027-4.4580668,1.5698252-6.6030339l.1993555-.7608434c.2910908-1.1149413.6072003-2.2239385.9241041-3.3329357.4844894-1.6966129.9729501-3.4068122,1.3589532-5.097481,1.3025618-5.7003815,2.321181-11.3617018,3.0272648-16.8251689.0607597-.4704322.155672-.9383169.2505843-1.4062017.1370073-.6699838.2660721-1.3017555.2728232-1.9012594.0639367-5.7980344.0659223-10.9006103.006354-15.5998373-.0500374-3.9596125-1.3287719-7.9056385-3.9084796-12.061406-.4860779-.7829215-.9189415-1.7713386-.4459686-3.1605571,1.8422513-5.4108194,2.2111781-11.1706418,2.3263436-15.5828542.0250187-.9637916.0575828-1.9275832.0897497-2.8913748.1179454-3.5426771.239862-7.1965936-.003177-10.7723878-.1842648-2.7105046-.3431138-5.0456825-1.0484034-7.3367043-.0992806-.32183-.1564663-.6453582-.2156375-1.0054002-.0476547-.2904112-.0845871-.5273256-.1604375-.7498044-.126285-.3719301-.2466131-.7498044-.3669412-1.1276786-.3562189-1.1200362-.6925816-2.1772349-1.1989128-3.1011162-1.8962599-3.4662531-4.3218841-6.5096268-6.444901-9.0299205-1.6103317-1.9122984-3.1047037-3.847524-3.6940335-6.5019844-.2271541-1.0232325-.5297614-2.0659956-.8224407-3.0739432-.3272289-1.1268295-.6627974-2.2825302-.9145731-3.4671023-.3133297-1.4783799-.5103024-2.9873294-.7005241-4.4461787-.0861756-.6614922-.1723512-1.3204369-.2688519-1.9768342-.1731454-1.1803263.123108-2.308854.8569903-3.2658524.5456463-.7098941,1.0825559-1.4308272,1.6190684-2.150062l.0913382-.1231276c1.4570424-1.9564545,2.9641223-3.9799922,4.6320368-5.8192633.4737671-.5213815.959448-1.0291766,1.4463201-1.5369716.9538882-.9969087,1.9347808-2.0218395,2.7758863-3.1240434,2.5117998-3.2921762,5.0938903-6.9087299,6.9643372-11.0432684,2.7218776-6.0179657,3.6856939-12.6931778,2.9466489-20.406058-.022636-.2369144-.1064288-.5171358-.1949871-.8134911l-.0631425-.2122889c-.2315224-.7965079-.4471599-1.5972617-.6631946-2.3980154-.5079197-1.8868237-1.017825-3.7812898-1.6992872-5.5305504-.3407311-.8746303-.651678-1.7653945-.9614336-2.6536112-.8041731-2.308854-1.5634713-4.4903348-2.8227467-6.3075277l-.3057843-.4415609.1509065-.5247782c.3292145-1.1446617.687419-2.2740387,1.0436379-3.3974715.8101299-2.5517125,1.5726051-4.9531246,1.9792585-7.4360555.4161844-2.5372769.4805182-5.1441846.5488233-7.9039402.0309756-1.2448621.0623482-2.5067073.126285-3.7863848l.052023-1.0300257,2.0753622.0050949c.7954364.0050949,1.5575144.0076424,2.321181-.0084916l1.7100095-.0331171c1.8958628-.0339662,4.0438984-.0721782,6.0970217-.1970041.8327659-.0509493,1.7306598-.3456063,2.5983725-.6300734l1.9339866-.6241294c1.9935549-.6360175,4.0534293-1.293264,6.0005209-2.1076042,1.0579343-.4424101,2.1186485-.9408644,3.1444159-1.4231848,2.3708213-1.113243,4.7662642-2.2383741,7.3642396-2.8743917,2.0634485-.5052476,4.1276912-1.1523041,6.124026-1.7772826,1.6067576-.5027001,3.2051757-1.0020036,4.794857-1.4350729,2.2826601-.6215819,4.6022526-.9918137,6.3678592-1.2448621,3.611432-.5196832,6.7391688.9281271,9.7624623,2.3258372l.5234075.2420093c.9245012.425427,1.4510856,1.2822249,1.4820612,2.412451.0369324,1.3569506.3931513,2.6493654,1.0583315,3.8407307.8057615,1.4427153,1.8549592,2.2655471,3.2071613,2.5168972.8875688.1604904,2.139696-.5060967,2.282263-1.0724835.7013183-2.7877778.3216692-4.6100657-1.2703949-6.0918422-.1663943-.1536972-.3133297-.3345673-.5075226-.5833699l-1.0233847-1.2618452.9113961-.6971567c.2061066-.1579429.3991081-.3158859.5857557-.4687339.4471599-.3659861.8891573-.7285755,1.3939-1.0138918,3.9763876-2.2451674,7.8975751-3.2930254,11.9962764-3.1631046,1.3772208.0339662,2.7921683-.0127373,4.0419128-.054346,1.8196153-.06029,3.6336708-.1188818,5.43343.0050949,3.391029.2284229,6.7939717.8168877,9.9888222,1.4002576,1.7973764.3294724,3.5832363.9043507,5.1645781,1.6634958,1.1937502.5740292,2.2616126,1.3739337,3.2945282,2.1483636.3284203.2462551.6270564.469583.9280753.6861177,3.0459296,2.1976147,6.0982131,4.1854879,9.9431531,4.3833412,2.7306143.1375632,5.3079393.2708806,7.7502426-.6530006,3.7547932-1.4223356,7.0318481-2.7690964,10.0186064-4.1175555,5.3627422-2.4209426,11.3743826-4.2389847,18.3780349-5.5577233.80735-.152848,1.627408-.2572941,2.4204616-.3574945,1.6258195-.207194,3.1583152-.4024997,4.6320368-.9884171,1.1611862-.4602423,2.5924157-.5740292,3.8306436-.3065452,2.75881.5978055,4.8715017,2.2689437,5.9492921,4.7060203.5015657,1.1344719,1.0118681,2.046465,1.8112757,2.7427726.8037759-1.4062017.7386478-3.0527143-.1981641-5.0312469-1.792611-3.7880831-4.8234498-5.2953343-9.5353083-4.742534-.826809.0976529-1.6480584.3583437-2.5177566.6343192-.6604147.2088923-1.3430683.4237286-2.0404154.5714817-.9050422.19106-1.8140556.3124893-2.6932848.4296727-.7283227.0976529-1.4077993.1885125-2.0817161.3133384-6.7288436,1.238918-12.5276263,2.8659001-17.7275483,4.9743534-.6306305.2555958-1.2755575.4704322-1.9212786.6844194-.6338075.2097414-1.2346538.4084438-1.8212038.6479057-.7692263.3133384-1.5285245.6555481-2.2878227.998607l-.103649.0467036c-1.3537906.6122412-2.7540445,1.2457113-4.204733,1.7212384-3.112249,1.0189867-6.2006707,1.1973094-9.1798836.5222307-2.518948-.5689342-4.9636341-1.828232-7.4734483-3.8500714-2.6090948-2.1008109-4.8949319-3.38898-7.193874-4.0530196-2.272732-.654699-4.3266496-1.2321248-6.4409298-1.6567026-2.0860845-.4186337-3.9342926-.6530006-5.650656-.7166873-1.8978484-.0704799-3.8405717-.0645358-5.7193582-.0568934-1.4479086.0033966-2.8501482.011039-4.2515935-.0135865-4.6880311-.0866139-8.6441654.7277263-12.0975426,2.4982157-.3589987.1851159-.7096579.4627898-1.0809674.7565976-.2057095.163887-.4122132.3269249-.6230852.4780746l-.7366622.534968c-.8478565.6156378-1.6961102,1.2321248-2.5646171,1.8129472-.5444549.3634386-1.2600697.2895621-1.7072296.114636-.6155399-.2377636-1.2374337-.5358172-1.8454282-.8856693-3.9211875-2.2579047-7.9551579-3.0051616-11.9879368-2.2205419-2.7631783.5375155-5.5489926,1.3688388-8.2434688,2.1738383-.8025846.2394619-1.5674425.4687339-2.3330947.6912127-1.4562482.4237286-2.9236158.9230321-4.3429316,1.4062017l-.2053123.0696308c-.5960809.202099-1.192956.4041981-1.7910225.6020513-.6997298.2309703-1.4014453.4542982-2.1031607.6776262-1.5698252.5001526-3.1531526,1.0045511-4.6689692,1.5811277-1.1123401.4228795-2.2266658.9179372-3.3044563,1.3968609-1.2005013.5332697-2.3783666,1.0571987-3.572514,1.5081003-4.0732855,1.5403682-8.9459785,3.0603567-14.1987178,2.6459688-.5281729-.0424578-1.0623027-.0339662-1.6250253-.0229272l-.1286677.0025475c-.2990332.0067932-.6052147.0127373-.9157645.0127373h-1.0174278l.0055597-3.503616c.0055597-1.8180421.0107223-3.5596602-.0146935-5.3012783l-.0075453-.8126419c-.0083396-1.2032535-.0166791-2.4472664-.2227857-3.5774925-.6207025-3.4076614-2.3473911-6.1937409-5.1312198-8.2826636-.6616061-.4976052-1.3637187-.6580956-2.0336643-.4627898l-.4304808.1163343c-1.1357703.2904112-1.2664236.4568457-1.2954136.9867188-.0270043.4984543-.3153153.9739815-.8335601,1.3747829-.6258651.4823204-1.0027343,1.1336227-.810527,2.7461692.1143713.9654899.1405814,1.9207899.1659972,2.8438221.0119137.4288236.0222389.7999046.038918,1.1658906l.0436835.9569983-.8832004.1655853q-4.1439733.780374-5.9461151,2.4328308l-.2553498.2335178c-.8534162.780374-.9800983,1.7993607-1.1270336,2.9805361.0166791.2606908.6989356,1.1106955.9233098,1.3900677l.27878.3507013c.369721.4755271.8772436.9018032,1.4312295,1.2049518,3.9311156,2.1568552,7.5139548,3.9765956,11.5618244,4.4020226.4161844.0450052.7422219.2343669,1.0043228.3863658.0794245.0458544.1596432.0934071.2434361.1333174l.6695485.3192825-.0738648.7829215c-.0698936.7370671-.1469353,1.4656425-.22358,2.1891231-.1759253,1.6617975-.3375541,3.1919759-.4189642,4.7433831-.1926044,3.6683521-1.0213991,7.3902011-2.6083006,11.7132522-.5809902,1.5811277-1.3895316,2.5092548-3.4474204,1.8987119-1.5638684-.4644881-3.1150289.0195306-4.4465806.5086442-1.2592754.4627898-2.0686111,1.0988073-2.5471437,2.0014597-.3244491.6122412-.732691,1.1183379-1.1278279,1.6083007-.1505094.1876634-.2871196.3566453-.41817.5290239-.4884607.6453582-.6739169,1.1650415-.6199082,1.7373723.061554.6513023.3450994,1.0894666.8466652,1.6711382.4864751.5629902,1.0809674.8805743,1.7691807,1.2491079.4006966.2139872.7954364.4262761,1.1738941.6818719,1.6023893,1.0843717,3.2893656,1.2083484,4.8770614.3557962.7823313-.4194829,1.4931806-1.1259803,2.2457277-1.8732372.3927541-.3889133.758504-.7515027,1.1409329-1.0920141l.9245012-.8236809.6056118,1.1115447c.1016634.1613396.2577325.4101421.3721038.7132907.3959311,1.0453105.7866997,2.0923194,1.1778653,3.1401774.6425442,1.7229367,1.2858826,3.4458734,1.9510628,5.1594694,1.1969272,3.0841331,1.8168354,6.3321532,1.8942743,9.9291763.0818072,3.804217-.5297614,7.5897527-1.8696527,11.5722924-1.390723,4.1328403-3.497855,7.9582862-6.263416,11.3710425-.3943426.4874153-.7668435,1.0283274-1.1274308,1.5514073-.6723284.9756798-1.3641158,1.9802308-2.2624069,2.7954202-3.2246347,2.9304359-5.7678071,6.3661195-8.5234401,10.2280791-1.2378308,1.7348249-1.6285994,3.6114587-1.2298884,5.9058771.1183425.6810228.2259627,1.3637439.3335829,2.046465.3462908,2.1959164.7037011,4.4631618,1.4324208,6.5631236.3395397.9782272.6171284,1.9887224.8855832,2.9652513.2704404.9841713.5500147,2.0014597.8911429,2.9644022.3423196.9646408.8788321,1.9632477,1.5519547,2.8862799.6965529.9544509,1.4439374,1.8893712,2.1667003,2.7928727.8911429,1.1149413,1.8124671,2.2672454,2.6595294,3.4772921,1.2592754,1.8002099,2.6853423,3.8381833,3.6034895,6.096088.8645357,2.122889,1.4673676,4.546379,1.7914196,7.2033869.2994304,2.4404732.3359656,4.9293482.3713095,7.3358551l.025813,1.5734853c.013105.6818719-.0496403,1.3459116-.1104001,1.9878732-.0667166.7022517-.1294619,1.364593-.0885583,1.9946665.2160346,3.3482205-.1683799,6.6446425-.5400866,9.8332217-.1211224,1.0419139-.2350965,2.0209903-.3315973,3.0009159-.1119885,1.1412651-.3796491,2.2145978-.6631946,3.350768-.1250936.5001526-.2525699,1.0113443-.3681326,1.5395191l-.3077699,1.4062017-1.1786596-.7047991c-.2454217-.1460548-.4650304-.2861654-.6675629-.4152371-.3744865-.2377636-.6461183-.4109913-.9193386-.5298731-.353439-.1536972-.7052896-.3209808-1.0579343-.4891136-.9300609-.4432592-1.8077016-.8610438-2.680974-1.0054002-1.8517822-.3090926-3.7293774.2428585-5.5847337,1.637172-1.5340842,1.1531533-2.8096417,2.8242915-3.90014,5.1076709-.3887829.8143402-.9086163,2.3487644-.0198561,3.4815379.6433384.8202843,1.7239088,1.4452628,2.593607,1.8978627h.0003971c1.3764266.7175365,2.9927151,1.0954107,5.0871392,1.189667.7839198.038212,1.6897562.065385,2.5300674-.0585917ZM20.9443715,19.4406951c-.0035741.3141876-.1104001.5477054-.1882361.7183856l-.4419973,1.0886175-.8498421-.2411602c-3.4776017-.9833222-7.1688553-2.1891231-10.6003908-4.3323918l-.7688292-.4797729.343511-.8780269c.7247486-1.8520083,2.3573191-1.8995611,2.8938316-1.915695.8442824-.0195306,1.7648124.0619884,2.9037597.2683332.5369096.0951054,1.2692035.1282225,1.708421-.2606908.3312002-.2929587.5055369-.8287759.5190391-1.5930159.0142964-.7718824-.1044432-1.5675412-.2299339-2.4099036-.0718792-.4814712-.1429641-.9629424-.1918102-1.4444137-.0758504-.7438603-.133036-1.4911172-.1969728-2.3283846l-.2577325-3.2505676,1.6524267.944261c.1532893.087463.2914879.1536972.4114189.2114397.3431138.1647362.7025097.3379639.9654048.7098941.7473845,1.0563496,1.4348036,2.1432687,2.0082485,3.0679991.2752059.4441084.431275.9739815.4284952,1.4537544-.0206504,3.5571128-.0639367,7.1142255-.1088116,10.6713383Zm-8.0318025,33.4210657h-.0003971c-.3558218.1817193-.7394421.2734281-1.1405358.2734281-.7902738,0-1.6218483-.3676844-2.3418314-1.0351207l-.6016406-.5595935.3633671-.7574468c.9102048-1.8970136,2.4363465-2.1670451,3.6622637-2.3835797.1834706-.0322679.3613815-.0636867.5373067-.1002004l1.1711142-.245406.0401094,1.2754317c.0524202,1.6465127-.5794017,2.9669496-1.6897562,3.5324873ZM2.7990503,190.6100823l.4622506-.9739815c1.186602-2.5024615,2.7993165-3.9791431,4.6630124-4.2695543,1.8756096-.2861654,3.8457343.6538498,5.7034733,2.74532l.4856808.5477054-.3097555.6784753c-.6214967,1.3620456-1.6623548,2.3385745-3.0093943,2.8251406-.6441327.2326686-1.3533935.3507013-2.1083233.3507013-1.5289216,0-3.2488591-.4891136-4.9739593-1.4146932l-.9129846-.4891136Z" stroke-width="0"/>
      <path d="m401.544984,596.3901199c-2.830292-2.7172979-6.2475311-4.6109149-10.4474986-5.7878445-.9106019-.256445-1.8664757-.4500525-2.7905798-.638565-.509111-.103597-.9558738-.1936075-1.3978712-.2904112l-.9872465-.2156855.5905212-3.247171c.2898994-1.6167922.5794017-3.2301879.9074249-4.8316953.7346766-3.5885315,1.9832297-7.018271,3.7111097-10.1915654,1.4967547-2.7487166,2.6249797-5.4515789,3.4490089-8.2622839.4336578-1.4758324.7739917-2.8098558.5504118-4.1846387-.0925295-.5663868-.0555971-1.0937124-.0198561-1.6032058.019459-.2759756.0369324-.5162866.0313727-.7548993l-.0059568-.3532487c-.0210475-1.293264-.0373295-2.313949-.7025097-3.1877301-.4888578-.6436599-.9475343-1.3399675-1.351805-1.953907-.4173757-.6334701-.8375313-1.2703368-1.2854855-1.8571033-1.4344065-1.8808796-2.9510173-4.1362369-2.7858143-7.1099798l.0559943-1.0232325h.9586537c.5392924,0,1.0726279.0059441,1.6027864.0118882l.2072979.0016983c1.1333876.0118882,2.2036327.0203797,3.2909541-.0305696.6091859-.0297204,1.235051-.114636,1.8402657-.1970041.8172781-.1129377,1.6091404-.2207805,2.418476-.2377636,1.2263143-.0237764,2.1408874-.7557485,3.199616-1.6023566l.5794017-.4576949c.1675857-.1290716.337157-.4517508.3427167-.5672359.0206504-.3991031.0516259-.8058487.0826015-1.2134433.0992806-1.2898673.2013411-2.6162484-.0905439-3.6861844-.7692263-2.821744-2.6881222-5.0006773-5.7038704-6.4756605-1.316064-.6419616-2.7695323-.2938078-4.3087791.0730274l-.4574851.1086919c-.6461183.1511497-1.2207546.5324206-1.7457505.922183-1.0765991.7973571-1.9240585,1.8655948-2.9053482,3.1019654-.3228606.4075947-.6564435.8279267-1.0138537,1.2575994l-1.4876209,1.7942658-.2811627-2.379334c-.1155626-.9790764-.2370821-1.9233374-.3554246-2.8446712-.2684548-2.0889228-.5210247-4.0547179-.6631946-6.0451386-.1501123-2.1042076-.2053123-4.85717.7064809-7.4929489.2358908-.6801736.5504118-1.3679897.9614336-2.1033584.1739397-.3124893.3995052-.5290239.5805931-.7022517.0687022-.0670833.1659972-.1613396.1906188-.1970041,1.0881156-2.3351779,2.8636503-3.9137581,4.580808-5.4405399l.0901468-.0798206c.3260376-.2904112.651678-.5799733.9705674-.8763286,2.4129163-2.2332792,4.2253834-4.7637629,5.5414473-7.7341091.0492432-.1120885.0937209-.2284229.1385958-.3447572.1381986-.3591928.2998275-.7795248.5686794-1.1506058.7215716-.9969087.9959832-2.2358267,1.2866769-3.5477721l.1930015-.8483064c.0448748-.1868142.0603626-.3761759.0774389-.5663868.035741-.3897624.071482-.7277263.1600404-1.0614445.8859803-3.3414272,1.1353732-6.9775115.7855083-11.4432207-.1767195-2.2502623-.5913154-4.5438316-.992012-6.7626751-.1743368-.9629424-.3482764-1.9258849-.5051398-2.8905256-.0504346-.3116401-.142567-.6147886-.233508-.917088-.1775138-.5901631-.3109469-1.0130426-.4451743-1.4359221-.2537613-.802452-.5071254-1.6057532-.7219687-2.4192443-.2331109-.8805743-.4455714-1.7670928-.658032-2.6544604-.2505843-1.0453105-.5011686-2.0906211-.7859054-3.1257417-.3538361-1.2839233-.8224407-2.5364277-1.1913675-3.4840854-1.5694281-4.0326399-1.9963348-8.3030434-2.4097393-12.432487l-.1008691-1.0045511c-.6735198-6.6166204-.593301-12.4494701.2462159-17.8305691.1759253-1.1276786.4130074-2.2137486.6639888-3.3635053.1163569-.5324206.2323167-1.0648411.3447023-1.6108482l.304593-1.4809273,1.2140035.7846198c1.5980209,1.0325732,3.1420332,1.0249308,4.9664139.6988551.8542105-.1511497,1.3116956-.5409121,1.6333648-1.3900677.6413528-1.6932162,1.2890596-3.7193015,1.2290941-5.9101229-.0262101-.960395-.2295368-1.6838755-.658032-2.3462169-.2760001-.4245778-.4304808-.4627898-.7819342-.3634386l-.5567657.1596413-.4138016-.4322202c-.5841672-.6079954-1.0122652-.4942086-2.2917939.2572941-.9709645.5672359-1.7949937,1.1633432-2.6678689,1.7934166-.4026822.2921095-.8152925.589314-1.2461704.8899151l-.9209271.6419616-.6056118-1.1862704c-.8994825-1.7611487-1.8299405-3.5834366-2.1027636-5.7241578-.3391426-2.6595553-.0635396-5.2800495.2029296-7.8147789l.1421699-1.3866711c.3752808-3.8534681,1.4975489-7.4861557,2.5828847-10.9991124l.499183-1.6244346c.453911-1.4945138,1.1167085-2.8794866,1.7580613-4.218605.7978191-1.6668924,1.5483806-3.2344336,1.9137333-4.9650127.1501123-.7090449.376075-1.3773304.5940953-2.0226886.1163569-.343908.230331-.6801736.3312002-1.020685.6254679-2.1059059,1.2390222-4.3561682,1.2755575-6.685402.0178705-1.1650415.1727483-2.3861272.460265-3.629291.554383-2.3954679,1.1016178-5.2248543.9582566-8.0423526-.1445526-2.8591069-.9352235-5.7445376-1.6325706-8.290306-1.2517301-4.5718537-3.1698318-8.9789712-5.7006934-13.0990741-2.1126917-3.4399293-3.3834837-6.5673693-3.9990235-9.8425624-.0770418-.4067455-.1437583-.818586-.2104749-1.2295773-.0671137-.4126896-.1246965-.76424-.1894274-1.1140921-.0218417-.1180326-.0548029-.1749261-.0671137-.1885125.0079424.0101899-.0432864.0101899-.1310504.0399103-.3840175.1358649-.3788549.2632382-.3732951.398254.0270043.6844194.0929267,1.4223356.2025325,2.2562064.0464633.3540979.0667166.714989.0853813,1.0767293.0468605.8822727.0837928,1.5794294.5392924,2.1042076.2728232.3150367.3053872.6801736.3105498.8669879.1759253.6623414.3486736,1.3442133.5214218,2.0269344l.0309756.1231276c.4106247,1.6252838.833163,3.2981203,1.4089906,4.8401869.777963,2.0829787,1.6837994,4.1659573,2.5594545,6.1810035.5635168,1.2966606,1.1004264,2.5313328,1.6139058,3.7778932.2005469.4865662.3022102.9688865.4006966,1.4359221.081013.3838183.155672.7379162.2728232,1.0274783.6075974,1.506402,1.1643632,3.1597079.7350737,5.3437361-.2533642,1.288169-.1775138,2.6858791-.097295,4.1651082.0329612.6139395.0659223,1.2210857.0762475,1.8239862.0015885.0866139.0484489.2844671.0829986.4279744.1151655.4831695.272426,1.1438126-.0706878,1.7569029-.4304808.7667875-.4197585,1.6422669-.4074477,2.6553095.0079424.6895143.0158849,1.3943135-.1115914,2.1254364-.83634,4.7926341-1.7397937,9.4570458-3.582442,13.8293479-1.371264,3.2556625-2.9279842,7.1481918-4.0756682,11.3438695-1.4491,5.2953343-1.8648872,10.6857739-2.0654341,14.7905921-.0099281.2004007.0178705.4024997.0428892.6045988l.0369324.305696c.4340549,3.9494226,2.1968817,7.4470945,4.0375444,10.6390704l.2208001.38212-.0965008.4381643c-.2061066.9340711-.4185671,1.8528575-.629042,2.7606048-.4785326,2.0651464-.930458,4.0165059-1.2696006,6.0103233-.3490707,2.0592023-.567488,4.317107-.66796,6.9027858-.1207252,3.1121552-.1151655,5.8837991.0174734,8.4745728.1235051,2.4107527.4626477,4.8614158.8287947,7.3689722.5690765,3.8942275,1.6603692,7.4742675,3.2432994,10.6390704l.1675857.3184333c.3649556.6784753.8220436,1.5276309.5472348,2.3861272-.1739397.5426104-.0599655.807547.4642362,1.6184906l.2148433.3371148c.3812376.6139395.6155399,1.2049518.6993327,1.7619978l.317698,2.0676939c.4098304,2.6544604.8339572,5.3997804,1.1194883,8.1340614.2386706,2.2910218.2990332,4.6177081.3574102,6.8688196l.0329612,1.2414655c.0409036,1.4554527.0873669,3.105362-.1195339,4.7314949-.1310504,1.0334224-.4277009,2.008253-.7148205,2.9508157-.1143713.3753268-.2208001.7251789-.3169038,1.0758801-1.1532437,4.2050185-2.7246575,7.3502908-4.9453665,9.8994559-.9427688,1.0809751-1.9399434,2.073638-2.9045539,3.0331838l-.5226132.5171358c-1.4256698,1.4079-2.8970086,2.8608052-3.5959442,4.7866901-.184662.5069459-.5071254.8907642-.8212493,1.2397672-1.4983432,1.6600992-1.8362944,3.858563-2.1941018,6.1852493l-.1366101.8737811c-.1286677.7948096-.0802187,1.6609483-.0289899,2.5788855l.0341525.6631905c.032564.7192348.0885583,1.4342238.1445526,2.1483636.0679079.8703845.133036,1.708501.1616289,2.5474668.1513037,4.3179562.9975717,7.5744679,2.6635006,10.2476097.7140262,1.1455109.8327659,2.1695925.8546076,3.1045128.113577,4.8860413,1.3577618,8.7581908,3.8040364,11.8372289.551206.692911,1.1329905,1.4342238,1.6591778,2.2120503.2684548.3965557.5972722,1.0147409.6373816,1.7101994.1056346,1.7687911.2251685,3.7744966-.2648807,5.8158666-.4193614,1.7450147-1.0507861,4.0266958-2.2191205,6.1988358-.4459686.8287759-.8454738,1.7297299-1.2314769,2.6001144-.2664692.600353-.5321441,1.1998568-.8156896,1.7883217-.7676378,1.5921667-1.3176524,3.3066119-1.6810195,5.2384408-.2219915,1.1837229-.4749585,2.3606525-.7283227,3.5392805-.2648807,1.227879-.5214218,2.4200934-.7450018,3.6157045-.2033267,1.0954107-.2748088,2.0141971-.2176231,2.8090067.0949123,1.3246827-.3649556,2.2230893-.5670909,2.5474668l-.2462159.3940082-.4372319.076424c-1.4757072.2547467-2.9256014.485717-4.3556395.7132907-3.2754664.5213815-6.3694477,1.0155901-9.4419845,1.735674-2.7254517.6402633-5.4532861,1.6303787-8.0909738,2.5865279-.748973.2734281-1.455454.5298731-2.1635234.7795248-1.4220957.5010018-2.8525309,1.075031-4.2365028,1.6303787-1.0043228.4008014-2.0086456.8033012-3.0197195,1.1837229-1.5154194.5706326-2.7965366,1.4486594-3.9164221,2.6816334-.6409557.7031008-1.3077244,1.3773304-1.967742,2.04137l-1.2640409,1.2856216-.5472348-.1494514c-.1906188-.0526476-.3848117-.0951054-.5790046-.1375632-.5325413-.1171835-1.0547574-.2343669-1.5718108-.4959069-2.6158459-1.3127945-5.605384-1.6184906-9.1417599-.9187863-3.5427298.6946093-7.1104783,2.1279839-10.9077636,4.3816428l-.978907.584219c-2.5217279,1.511497-5.1272486,3.0722449-8.088591,3.8568647-4.0919502,1.0767293-8.1148011,2.019292-12.3409787,1.8783322-1.5952411-.0662341-3.4486118-.3006011-5.1105694-1.555653l-.4288923-.3243774c-1.8295433-1.380727-3.7166694-2.8039118-5.6419193-4.0453772-4.8877837-3.1486689-10.0992222-4.3646597-15.486586-3.6004197-2.1921162.3090926-3.9791674,1.0733327-5.3115134,2.270642-1.3371114,1.200706-2.7937568,2.1466653-4.2023503,3.0620551l-.7513558.4908119c-1.679431,1.0988073-3.9418379,2.3351779-6.5624493,2.1891231-1.7318512-.098502-3.4879269-.1460548-5.0374989-.1885125-3.8413659-.1086919-7.8070312-.2224788-11.7028029-.9153897l-.3526448-.0628375c-2.8600762-.507795-5.8174475-1.0325732-8.6747438-1.9190916-2.5340387-.7880164-5.0581492-2.1585535-7.9432442-4.3103138-1.1349761-.845759-1.8775952-1.9360747-2.2707464-3.3303882-.0409036-.1460548-.0762475-.2972045-.1107972-.4466558-.0579799-.2530484-.1076202-.4687339-.175131-.6147886-.1787051-.3855166-.6747111-.7370671-1.186602-.6708329-.1695713.0050949-.5853586.0339662-.7120406.3345673-.560737,1.3195878-1.0448293,2.4608529-.4630448,3.4730464.5230103.9136914,1.1738941,2.0498616,1.9657564,2.6153992,3.1916735,2.2808319,6.5338564,3.9655566,9.9336221,5.0117163,4.9588686,1.5250834,10.0186064,1.9819291,16.0902122,2.1976147,1.3017675.0458544,2.6043293.0832172,3.9060969.1188818,1.6234368.0458544,3.2468735.0917088,4.8695161.1545463,1.7640181.0696308,3.3493311.0798206,4.8949319-.4959069,2.8843007-1.0767293,5.7173726-2.635779,8.9150029-4.9030244,2.022942-1.4333746,4.3465057-2.1619501,6.9055631-2.1636484,5.9171252.0458544,11.3997984,2.379334,16.2994958,6.9325062,2.026119,1.8834271,4.3238697,2.9397767,7.0239056,3.2284896,3.686091.3974048,7.2792554-.3719301,10.7544743-1.1191871,4.4616713-.9578475,8.5440905-2.9244919,13.3051921-5.5840472,3.5308161-1.9717393,7.793529-4.0046178,12.6372321-4.1268962,2.4764559-.0577426,4.5780281.4908119,6.4306046,1.6949146l.6667687.4330694-.2196087.8016029c-.0472576.1715294-.0845871.3311707-.119931.4806221-.0845871.354947-.1703656.714989-.3319944,1.0665394-.4400117.9663391-.4348491,2.0328785.0166791,3.4594599.3200807,1.0104952,1.491195,1.9190916,2.3354774,1.8307795,2.4172846-.2768247,3.5451125-1.4079,3.4513916-3.4594599-.0440806-.9782272-.2942678-2.0040072-.5595456-3.0909263-.1381986-.5689342-.2748088-1.1310752-.3943426-1.7152943l-.0849842-.4109913.1981641-.3651369c1.3982683-2.5831313,3.8683702-4.4648601,7.3416036-5.5959353l4.0828164-1.331476c2.7528531-.8984066,5.5053092-1.7968132,8.2625307-2.679935,1.3986654-.4483542,2.9839784-.9544509,4.5621432-1.3060013,2.3394486-.5179849,4.7126527-.9323728,6.8066796-1.2975097.739045-.1290716,1.4510856-.2088923,2.376381-.3073943l2.5022689-.2887129-.3355685,2.5780364c-.103649.8049995-.191413,1.4877206-.2891052,2.1687434-.7958335,5.5330978-.3800462,10.4887698,1.2715862,15.1472374.0957065.2700315.2259627.5247782.3554246.7812231.175131.3464555.3304059.6589447.4554995.9850205.9538882,2.4897242,2.4546142,3.4475717,4.8587937,3.1045128l.2231828-.0305696c.5333355-.0713291,1.0626998-.1426581,1.5845188-.256445,1.1599948-.2462551,1.9899808-.9629424,2.4677192-2.1330788.9376062-2.2927201.9066307-4.7399865-.1040461-8.1773683-.0857785-.2921095-.1656001-.5859174-.2613066-.9425627l-.6040233-2.2078045,3.0292504.4245778c1.0940725.1511497,2.1126917.2921095,3.1289282.4517508,1.3708669.2122889,2.8036848.0475527,4.2551676-.4942086.5611341-.2122889,1.0952638-.8117927,1.4288467-1.6049041.3022102-.7200839.3744865-1.4673409.1890303-1.9513595-.674314-1.7560538-1.6393217-3.2233946-2.9510173-4.4835415Zm-12.3489212-59.9291558c.058377-2.6383264,1.3931057-4.2602136,2.4653365-5.5636674.1822792-.2216296.3526448-.4279744.5158621-.6377158,1.4010482-1.7908691,4.3437259-1.7492605,5.9389669-.523929.8093356.622431,1.640513,1.3229844,2.2365939,2.2239385.5885355.8890659.8188666,2.0362751.9086163,2.8412746.0814101.726028-.1028547,1.4265814-.5198333,1.9725884-.4288923.5629902-1.0579343.9085965-1.7707692.971434l-.3685297.0339662c-1.9216758.1732277-3.8667818.3481538-5.7991798.3761759-.777963,0-1.4383777-.202099-2.0769507-.398254-.2474073-.0755748-.492829-.1511497-.7374565-.2105906l-.8117184-.1944566.0190619-.8907642Zm7.919814-122.2206624c.5369096-1.6465127,1.58849-2.6162484,3.3092218-3.0493177l1.6011979-.4024997-1.2195632,5.506774-4.0748739-.8771777.3840175-1.1777788Zm2.5014746,187.5487494l-.6981413-.103597c-.376075-.0560443-.7545327-.1205801-1.1329905-.1868142l-.1405814-.0237764c-.9403861-.1630379-1.8160412-.3141876-2.6920934-.3532487h-.0003971c-1.5698252-.0696308-3.1209857-.0186814-4.6090037.1579429-.3661469.0441561-.6866248.2309703-.9034537.5281748-.2263598.3107909-.3216692.7098941-.2684548,1.1259803.1219166.9629424.4102275,2.0074038.8327659,3.0229939.8700954,2.0838278,1.4907979,3.8891326,1.6925361,5.9305026.1385958,1.4062017.0035741,2.7920236-1.9038052,3.4017173-.2688519.0866139-.5396895.1290716-.8061587.1290716-1.1381531,0-2.0987924-.7829215-2.5697797-2.0940177-.2287426-.6368667-.4022851-1.2805266-.5698708-1.9038068-.0873669-.3243774-.1743368-.6470566-.2692491-.9680374-.8538134-2.8905256-1.0186192-6.0510827-.5174506-9.9487069.1810879-1.4112966.3212721-2.8225932.4757528-4.5056196.0627454-.6844194.2331109-1.6558534.9836724-2.1959164.5456463-.3974048,1.2366395-.4534491,2.1130888-.1749261l.479724.1494514c2.4013997.7523519,4.8850038,1.5301784,7.2574136,2.6103043,1.0210019.4653373,1.8259692,1.2618452,2.6047265,2.0328785.314521.3141876.6258651.6232802.9495199.9035015l.6536636.5672359-.9614336,1.8987119Z" stroke-width="0"/>
      <path d="m35.5553024,596.2797297c-.7592982-.2700315-1.5444094-.5485545-2.3231666-.7744299-1.2032812-.3498521-2.4434947-.6470566-3.5379643-.9102948l-2.2520817-.5536494-.052023-.8016029c-.0405065-.6232802-.0738648-1.2397672-.106826-1.8494609l-.0059568-.1103902c-.0770418-1.4197881-.1493181-2.7597557-.2930764-4.0963266-.3192865-2.9550615-.7318968-5.9423908-1.1306077-8.8329164-.064731-.4687339-.1183425-.8899151-.1711598-1.3093979-.1922073-1.522536-.3796491-3.0119549-.7501644-4.3756988-.3601901-1.3238336-.6520751-2.6680469-.9344292-3.9681041-.2974448-1.3688388-.6048176-2.783532-.9848638-4.137086-.1548778-.551102-.3026073-1.1064497-.4499398-1.6609483-.8291918-3.1138535-1.6115231-6.0510827-3.6034895-8.3582385l-.392357-.4559966.1659972-.5927106c.0631425-.2267245.1306533-.447505.1969728-.6640397.1409785-.4593932.2565411-.8355691.3232577-1.211745.6683572-3.766005,1.3597474-7.6610817,1.2346538-11.5960687-.0766446-2.3852781-.1826763-4.9166109-.5516031-7.3205703-.3343771-2.1780841-.8625501-4.3765479-1.3732496-6.5036827l-.38918-1.6346245c-.434452-1.8486117-1.0734221-3.3465222-1.9546369-4.5803453-.6357931-.8916134-1.3041503-1.7560538-1.9721103-2.6204942-.8156896-1.0546512-1.6289965-2.1059059-2.3930602-3.2072607-1.7493246-2.5194446-3.018131-4.5166586-4.1141891-6.4756605-.9542854-1.7059536-1.6710915-3.4203987-2.1305622-5.0957827-.4316722-1.5768819-.7644608-3.1936742-1.08613-4.7578188-.2541584-1.2355214-.5079197-2.466797-.8033788-3.6607097-.3860031-1.5598988-.4594707-3.1231943-.5301585-4.6355404-.0254158-.5502528-.0508317-1.0920141-.0913382-1.6286804-.181485-2.4133002.1691742-4.8469801.5083168-7.2016886.0774389-.5366663.1548778-1.0724835.2251685-1.6066024l.0933238-.7098941c.2902965-2.2298826.5905212-4.53534,1.3061359-6.7032342l.2080922-.6334701c.7473845-2.2825302,1.5189936-4.6397861,2.9482374-6.7032342.4348491-.6266768.9062335-1.2202366,1.3621302-1.7934166l1.2008984-1.5352733,1.3764266.9493559c.3661469.256445.6556492.4593932.9554767.6436599,2.1504183,1.3178895,3.9438235,1.5352733,5.6470819.6895143,1.0579343-.5264765,2.136519-1.3051521,3.1197943-2.2511115.1227109-.1180326.3399369-.611392.4002995-1.4333746.0730705-1.0062494-.3081671-1.9708901-1.2751603-3.2276404-1.6095375-2.0914702-4.062166-2.8251406-6.4012175-1.9241866-.5551773.2156855-1.1012207.4610915-1.6929332.7277263l-1.9053937.8423623-.3744865-1.0342715c-.1032518-.2844671-.2096807-.5612918-.314521-.8321725-.2315224-.6012022-.4705902-1.2219349-.6473097-1.8655948-.9816868-3.5723976-1.8482081-7.247543-2.6496013-11.2351776-.6862277-3.4127563-.9300609-6.9443944-.7243514-10.4981106.0250187-.4322202.045272-.8652895.0651281-1.2983589.064731-1.4011067.1270792-2.756359.317698-4.0971757.1941929-1.3671405.4741643-2.7257894.7450018-4.0394331.175131-.8500047.343511-1.6668924.4924319-2.4897242.716409-3.9664058,2.4851926-6.8934451,5.4080142-8.9492508,1.0420494-.7319721,2.0475636-1.6397194,2.9089223-2.6247399,2.3092673-2.6459688,3.9315127-5.6910408,4.8210671-9.0494511.0643338-.2437077.1060317-.4984543.1481267-.7523519.0917353-.5485545.1918102-1.1480584.4531168-1.7152943.9900264-2.1483636,1.1147228-4.469955,1.2469646-6.9282605.0524202-.9841713.106826-1.9972139.2211972-3.0094074.006354-.06029-.0274015-.2462551-.0472576-.3574945l-.0413007-.2437077c-.0488461-.3235283-.1100029-.6394142-.1707627-.9553-.1397871-.7277263-.2831483-1.4775307-.2970476-2.2672454-.0321669-1.9309798-.4650304-3.8704512-1.2866769-5.7649173-.5627226-1.2966606-1.0793789-2.6383264-1.578959-3.9358362-1.0265617-2.6680469-2.0860845-5.4227076-3.5872075-7.8470468-.2072979-.3371148-.2307282-.6954584-.2434361-.8882167l-.1286677-1.0402156c-.1207252-.9417135-.2418476-1.8859746-.3514534-2.8319339-.1560691-1.3382692-.3049901-2.6773876-.4340549-4.0190534-.2660721-2.7750405.1497152-5.4541264.5516031-8.0457492.1961785-1.2669401.3991081-2.5763381.5126851-3.8526189.3677354-4.1489742.8740666-7.3086822,1.6424986-10.2476097.0230331-.0883122.0266072-.1808701.0329612-.2734281l.0206504-.2640874c.0472576-.5094934.1060317-1.0147409.165203-1.5199885.1342274-1.14636.2585267-2.2137486.2513785-3.2751931-.0150907-2.0659956-.1612317-4.1659573-.434452-6.2421427-.0766446-.5808224-.2013411-.7990554-.243039-.8330216-.0281957-.011039-.1755281-.0135865-.4670161.0976529-.4277009,1.4011067-.6179226,2.963553-.5972722,4.895382.0087367.8941608-.113577,1.85031-.3848117,3.0085583-.2315224.9901154-.4110218,2.0108004-.5845643,2.9983684-.2728232,1.549709-.5547801,3.1520655-1.0408581,4.7221542-.6786823,2.1933689-.8077472,4.5395858-.8458709,6.7473903-.0285928,1.6303787-.2621008,3.2429252-.4876664,4.8019749-.1536864,1.063992-.3125354,2.1636484-.3995052,3.2335845-.1902217,2.3462169-.291885,5.0915369.3943426,7.6585343l.4693988,1.7840759c.8323688,3.1894284,1.6929332,6.4866996,3.0900101,9.4893137,1.1953387,2.5686957,2.1551838,4.9650127,2.933941,7.3248161.3943426,1.1939128.5198333,2.439624.6413528,3.6437266.035741.3557962.071482.7115924.1143713,1.0631428.3470851,2.8446712.4471599,5.0567215.3248462,7.1728173-.1322418,2.2884743-.7303083,4.4198548-1.3085186,6.4816046-.3673383,1.3085488-.7469874,2.6587062-.9864523,4.0054669-.1322418.742162-.5960809,1.3076996-.9689789,1.7619978-.1691742.2063448-.3117412.3770251-.4233326.5595935-1.3954885,2.286776-3.0888188,4.15322-5.0323363,5.5483826-2.749279,1.9734376-4.4592885,4.4079667-5.2281177,7.4428487-1.3847661,5.4702603-2.1389018,10.3953627-2.3045018,15.0572269-.1211224,3.4178512.0857785,6.723614.6147456,9.8272776.2684548,1.5760328.6755054,3.1741436,1.0690538,4.7204559l.2732203,1.0775784c.829986,3.2981203,1.6881677,6.7083292,2.6138603,10.0387174.324052,1.1641923.1171511,2.0600515-.6921845,2.9958209l-.4638391.5290239c-.8248234.9391661-1.6730771,1.904656-2.2342112,2.9465699-1.9478858,3.618252-3.2830117,7.3944469-3.9684451,11.2241386-.5714593,3.1953725-.8597702,6.5223641-1.1385502,9.7398146l-.1052375,1.2058009c-.1008691,1.1472092.0154878,2.390373.1278734,3.5927773l.1282706,1.418939c.165203,1.8604999.3355685,3.7838373.6751082,5.6154659.1937958,1.0453105.5087139,2.1135483.8133069,3.1461215.2740145.9281271.5504118,1.8638965.7608867,2.8251406.687419,3.1367807,1.6905505,5.7275545,3.0661828,7.9200742,1.2580841,2.0057055,2.6027408,3.9986737,3.903317,5.9262569.8089385,1.1990077,1.6178771,2.3980154,2.412122,3.6080621.2450246.3727793.5087139.7404637.7735946,1.1089972.8470623,1.1811754,1.6925361,2.3598034,2.1222226,3.7609101,1.0404609,3.38898,1.8017448,6.8127753,2.2620097,10.1754314.2211972,1.6167922.1806907,3.2463218.1413756,4.8223546-.0262101,1.0436122-.0528173,2.1237381.0007942,3.1563113.1052375,2.0184428-.2076951,3.9383836-.5099053,5.7954869-.1223137.7515027-.2422447,1.4877206-.3351714,2.2290334-.0996777.7990554-.3069757,2.4608529-1.9764787,2.7741913-.4189642.0798206-.8387227.1655853-1.2584812.2513501-1.4077993.2904112-2.8485597.5876157-4.3238697.6190344-.8017903.016134-1.4213014.2632382-1.8418541.7345196-.596478.6682854-.7005241,1.6456635-.6826536,2.3479152.0460662,1.8137963.9816868,2.9661005,3.0332216,3.7362846,2.0753622.7837706,3.8842551.3354165,5.3770386-1.3297777.1513037-.168982.2938706-.4220303.4912405-.7710333.1258878-.2233279.2668663-.4721305.4388204-.7523519l.9582566-1.5624463.7966277,1.6634958c.1663943.3464555.3125354.6249785.4364376.8610438.2557469.4865662.4531168.8618929.5631197,1.3170403.3224635,1.3365709.6576349,2.6705943.9928062,4.0046178l.0289899.1154852c.9098076,3.6216486,1.847811,7.3553857,2.5316559,11.0967652.8514306,4.6533726,1.7743433,10.1592975,2.1651119,15.7161717l.0127079.1817193c.1092087,1.5437649.1695713,2.3929205-.4050649,3.0688483-.5762247.6776262-1.3867518.6963076-2.8584877.7302738l-.2223886.0033966c-3.9287329-.0883122-7.8896326.4432592-12.1273268,1.6490602-3.2718923.9357695-5.4683768,3.9910313-5.5962502,7.7867568-.0238273.7115924.0917353,1.6439652.7803457,2.0498616.5166564.3039977.9721559.687816,1.4129618,1.0597462,1.2823085,1.0801259,1.9121448,1.4758324,2.9863612.9680374.4102275-.1851159,1.0059113-.1341666,1.3557762.3243774.0901468.1239767.1107972.1341666.1187396.1341666.0667166,0,.3554246-.1273733.479724-.1817193.2680577-.1171835.6008463-.2632382.9673904-.3175842.2279483-.0322679.4642362-.1188818.7148205-.2088923.2116663-.076424.372898-.1341666.5396895-.1885125l1.3093129-.4160862-.0015885,2.2553572c-.0011914.5060967-.0019856.9544509.0023827,1.402805l.0019856.9867188c-.0011914.8202843-.0023827,1.6201889.0575828,2.3929205.0591713.7591451.4098304,1.2091976,1.1365646,1.457151.2684548.0917088.5301585.2105906.7922594.3311707l.3804434.1698311c1.5297159.6351684,3.8024479.1018987,4.3123532-.7506535.3899743-.6487549.8101299-1.2822249,1.2310797-1.915695,1.1699229-1.7645453,2.2751148-3.4305886,2.7091697-5.3819481.1910159-.8610438.4876664-1.6116973.774786-2.3402728.2251685-.5723309.4209498-1.0716344.5662967-1.5964125.3081671-1.1174888.5917125-2.2434691.8760522-3.3694494l.259321-1.0223833c.1147684-.4517508.2243742-.9051999.3391426-1.3790287l.4582794-1.8851254,2.1281795.7183856c5.2964227,1.7815284,10.2989748,3.4645548,15.0076563,6.3771585l.797422.4925102-.3804434.8984066c-.1747339.409293-.343511.7931113-.5047427,1.1582482-.3296117.7489552-.6072003,1.3790287-.8434882,2.0362751-.5631197,1.5641446-.3832232,2.9958209.5504118,4.3765479.6890075,1.020685,1.4141532,1.609999,2.4252271,1.970041,2.087673.7455586,2.9160705.5587444,4.0224538-.9035015,1.5090655-1.9955156,1.9594024-4.0419806,1.3772208-6.259975-.1449497-.5519511-.2946649-1.102204-.4467628-1.65925l-.492829-1.8154947.7259399-.4143879c3.1015267-1.7781318,6.0449986-2.6425722,8.9976044-2.6425722,1.1226653,0,2.259627.13077,3.3791153.3872149,1.3545848.3107909,2.7139351.7506535,3.9132451,1.1378685l.7902738.2547467c4.697562,1.4962121,8.3856386,4.2576661,11.2735134,8.4389083,2.4466717,3.5409788,5.7729697,6.3194159,9.8863646,8.257189,1.4832525.6980059,3.1062922.8610438,4.9644283.4891136,4.3802611-.8644404,8.1453795-2.1076042,11.5105956-3.7991221,1.9542398-.9833222,3.3771297-2.1483636,4.4779533-3.6632572l.5730478-.8033012c.8438853-1.1922144,1.7104066-2.4166968,2.7985222-3.4136055,1.7608412-1.6184906,3.6622637-3.2879304,5.8424662-4.3493749,1.7171577-.8372674,3.6610723-.9578475,5.5410502-1.0733327l.3653527-.0237764c3.5613946-.2309703,7.3936266.0101899,11.713128.7268772l.7402363.1137868c.9106019.1341666,1.8541649.2734281,2.7754891.6045988l1.4510856.5145883c2.1599493.7540502,4.3949547,1.5352733,6.5203543,2.7631523,2.6511898,1.5318767,5.407617,2.7529624,8.4769768,4.0793435.6330133.2734281,1.2596726.5672359,1.886729.8627421,2.084496.9816239,4.0478696,1.9072035,6.2332347,2.0311802.9526969.054346,1.8581362.1681328,2.690902.3379639,2.9351324.5910123,5.5831452,1.0597462,8.2613393.840664.233508-.022078.4658247-.0152848.69695-.0067932.1703656.0101899.33398.0186814.4964031-.0016983.885186-.0781223,1.763621-.1511497,2.642056-.2241771,2.2703493-.1885125,4.6181375-.38212,6.9146969-.6827211,2.4482602-.3192825,4.7217865-1.5573514,6.9206538-2.7546607.7648579-.4177846,1.5241561-.8304742,2.2929853-1.2091976,3.034413-1.5047037,5.1312198-4.4546702,6.9452753-7.4165249.5690765-.9306745.949917-2.1008109,1.3184467-3.2318862l.2489958-.7557485c.116754-.3481538.0401094-.5876157.0007942-.6504532-.755327-.0390612-1.1564207.1120885-1.501123.5791241-1.2807201,1.7339757-2.642056,3.3915274-3.9581199,4.9947332-2.8386316,3.4611582-6.7566422,5.8082242-11.9776116,7.1736664-4.6225059,1.2108959-8.4511639,1.6660433-12.0439311,1.4079-.6238794-.0407595-1.2553042-.0390612-1.8847434-.0390612h-.1926044c-1.1468898.0135865-2.4569969.0186814-3.7190522-.2428585-.810527-.1647362-1.6266137-.3124893-2.4427005-.4602423-3.2174865-.5808224-6.5370334-1.1820246-9.6131443-2.9244919-.7866997-.4432592-1.6357476-.8236809-2.4565998-1.1922144-1.111943-.4976052-2.3724098-1.0614445-3.5030175-1.8188913-2.3045018-1.5454632-4.4549202-2.6340806-6.5743629-3.3303882-3.2778491-1.0784276-6.5985874-1.8358744-9.8696854-2.2536589-3.2019987-.4075947-6.610104-.5162866-10.1298006-.3243774-5.6065754.3073943-10.1639532,2.6629519-13.5450541,7.0038353-1.0253703,1.3178895-2.036047,2.6459688-3.0399727,3.984238-.829986,1.1039023-1.8748153,1.9598511-3.1948505,2.6187958l-.8053644.4058964c-2.0193679,1.0240816-4.1082322,2.0821295-6.5044694,2.4455681-.7473845.1154852-1.507477.2972045-2.2421536.4738288-.8113213.1953058-1.6389245.3923099-2.4840012.5162866-.8518278.1375632-1.8652844-.0152848-2.70361-.4058964-2.4633508-1.1361702-4.8294067-2.3351779-6.6915141-4.4920331-.3129325-.3617403-.6357931-.7132907-.9582566-1.0648411-.8093356-.8797252-1.6254224-1.7679419-2.3263436-2.832783-1.8513851-2.8191966-3.8636048-4.8164105-6.1522217-6.1020321-1.737808-.9782272-3.5375672-1.8087014-5.7054589-2.7529624-6.3988348-2.7903253-12.7118911-2.5016124-18.7632437.8559488-.9058364.5027001-1.9323981.8593455-3.3076333.098502-2.8104359-1.5675412-5.9608087-2.865051-9.9145603-4.0793435-.6659744-.2037973-1.3251978-.4381643-1.9836269-.6708329l-.1008691-.0356645Zm-21.3048277-137.7364333c1.8930829-1.3977101,3.4779988-1.8596507,5.0581492.4271253l.5472348.7905639-.6830507.6614922c-.9034537.8720828-1.6746656,1.4529052-2.5018717,1.4529052-.8832004,0-1.6687087-.6733804-2.5765308-1.6855738l-.8260148-.922183.9820839-.7243297Zm9.9328279,140.6116741c-.0476547.3158859-.1012662.6249785-.1544807.9289762-.1147684.6589447-.2176231,1.2465604-.2501872,1.812098-.1485238,2.6018127-1.2048697,4.753573-2.2262687,6.8357025l-.4400117.9035015c-.1020605.2139872-.2331109.4245778-.3665441.6317718-.0945152.1477531-.2537613.3957065-.2676606.4840187-.1858533,1.2244824-.9086163,1.7917183-1.546395,2.2927201-.2029296.1596413-.4114189.3226791-.6218938.5230798l-1.4213014,1.3603473-.2628951-2.0209903c-.3514534-2.6935215.1632173-4.8384886.7207773-6.8017363.0540087-.1902109.1143713-.3804217.1747339-.5672359.116754-.3634386.2275512-.7064975.2660721-1.0172884.1294619-1.0359698-.1024576-1.4214865-.992012-1.6541551.042095.0169831-.1473324.0815189-.5210247.2802213-.6886104.3685335-1.3553791.7404637-2.0221478,1.1140921-.995189.5587444-2.0960125,1.1769296-3.2051757,1.7288808-.992012.4976052-2.3628789.4942086-3.4922952-.0101899-.8375313-.3685335-1.4316266-.9578475-1.6718857-1.65925-.2493929-.7234806-.1465382-1.609999.2902965-2.4931208.5968751-1.2058009,1.6969044-2.1772349,2.8028906-2.4744394,3.5490838-.9578475,7.2208784-1.4486594,10.9125291-1.4588493.518642.0050949,1.0333127.0050949,1.5769734.0033966l2.9065396-.0016983-.1886332,1.2601469Zm22.8516198,9.0469037l.6751082-1.3773304.9777156,1.151455c1.1464926,1.3518557,1.0769962,1.8698406.2815599,3.4968227l-.5841672,1.1939128-.9681846-.8627421c-1.4955633-1.3365709-.7152176-2.9244919-.3820318-3.602118Z" stroke-width="0"/>
      <polygon points="35.7848392 595.9010063 35.7844421 595.900794 35.7844421 595.9027046 35.7848392 595.9010063" stroke-width="0"/>
      <path d="m366.2479422,19.9060324c2.4303897,1.0232325,4.9417924,2.079582,7.4774195,2.865051,1.9447089.6029005,3.9704307,1.0775784,5.929436,1.5369716.8843918.2063448,1.7695778.4143879,2.6523812.6334701l.7863025.1953058v.8635912c0,.5086442.0059568,1.0291766.0119137,1.5565022l.0011914.1163343c.0154878,1.3340234.0317698,2.7003148-.0313727,4.0793435-.103649,2.2553572.0234302,4.846131,1.7532958,6.9588301.5456463.665738,1.0507861,1.3951626,1.4963576,2.0379734.4189642.6037496.816881,1.1777788,1.2477589,1.7212384.8045702,1.0155901,1.8811693,2.336027,3.0753166,3.541828.6401615.6462074,1.3311546,1.2652418,1.9991146,1.8647457,1.1949416,1.0716344,2.4065623,2.1577044,3.4609226,3.4611582,2.2080011,2.7274878,3.0880245,6.0324013,3.608255,8.6078902.3474822,1.7169926.5202305,3.4747447.6870219,5.173905l.0917353.9289762c.2192116,2.1568552.3506592,3.9222497.4141988,5.5551759.1020605,2.6434214-.1894274,5.3955346-.9177501,8.6605379-.1453468.6504532-.2573354,1.3110962-.369721,1.9717393-.2112692,1.2448621-.4237297,2.4990649-.8303831,3.7048658-.5861528,1.7416181-1.329169,3.4161529-2.0479607,5.0354926-.317698.7166873-.6107744,1.3781795-.8931285,2.0447667-1.1397416,2.6884266-2.3370659,4.8121647-4.4763648,6.4391468l-.726337.5519511-.6072003-.6971567c-1.1699229-1.3476099-2.8199669-1.288169-4.5466555-1.1056006-.7235572.0772732-1.4177273.3430589-1.7695778.6776262l-.3661469.3388131c-.9836724.8958591-1.329169,1.3119454-1.0650825,2.1517603.1060317.3354165.1961785.6784753.2859282,1.0215342.1409785.5375155.2720289,1.0393664.4618535,1.4817765.3780606.8831218.6044204,1.1472092.7275284,1.2125942,1.0765991.578275,2.3509652,1.1089972,3.6416133.6453582l4.2118812-1.5072512.959448,2.7291861c.4435858,1.2779792.8919371,2.5695448,1.3796036,3.8135578,1.669503,4.2627611,2.3064875,8.8380114,2.8688129,12.8740479.3649556,2.6162484.4554995,5.2520273.5289672,8.1790666.0718792,2.8098558.035741,5.5534776-.1076202,8.153592-.0822044,1.4868714-.4054621,2.9083579-.9344292,4.1124605-.7342795,1.670289-1.6758569,3.2250929-2.5868559,4.7280983l-.184662.305696c-.4562937.7540502-.9463429,1.484324-1.4359949,2.2137486-.5301585.7897147-1.0650825,1.5862226-1.5412324,2.3954679l-.2509814.4262761c-.7620781,1.2898673-1.5499691,2.6238908-2.009837,3.9935787-.5817845,1.7297299-.8629472,3.6539165-1.1012207,5.4779027-.0353439.2691823.1239022.8432115.4173757,1.2686385l.4543081.6580956c1.4483057,2.1016601,2.9383094,4.2636102,4.567703,6.1954392,1.8347059,2.1755366,3.9144365,4.6406353,5.4624199,7.47172,1.3466424,2.4642495,2.2715407,4.5175077,2.9109079,6.4629232.5170535,1.5743345.8061587,3.2182997,1.0857329,4.8079189.1147684.6513023.2263598,1.2856216.3522477,1.9139967.0659223.3252266.0067511.6122412-.0250187.7659383l-.0460662,1.1056006c-.0337554.8958591-.0679079,1.8036065-.0524202,2.6884266.0115166.7022517.0532144,1.4036542.094118,2.1033584.0496403.8415132.0976921,1.6584009.1040461,2.4761377.0067511.9094456-.0198561,1.8205896-.0472576,2.7308844-.0428892,1.4495086-.0869698,2.9440224.0214446,4.3706038.2061066,2.7308844-.291885,5.3692108-1.5674425,8.3030434-.1640116.3778742-.3721038.7183856-.6075974,1.0911649-.2037238.3243774-.3911657.622431-.4924319.9018032-.6425442,1.7755843-1.7314541,3.1214959-2.7850201,4.4224023l-.4638391.5765766c-.5567657.6980059-1.1214739,1.3943135-1.6865792,2.0889228-1.5940497,1.9598511-3.2421081,3.9867855-4.678103,6.1028812-2.2723349,3.3490696-3.1054979,7.2874533-2.4089451,11.3897239.0806159.474678.1143713.9544509.1437583,1.3781795.0623482.8814235.1163569,1.6405686.5055369,2.3292338l.8808177,1.5641446c1.7858599,3.181786,3.6300967,6.4680181,5.874236,9.3347674,2.4788386,3.1665012,2.5622343,8.7301686.1755281,11.6724927l-.3756779.4517508c-.3919599.4653373-.7608867.9026524-1.0015429,1.3654422-1.1262394,2.1602518-2.1277823,4.1133097-2.9811986,6.1461882-.9781127,2.3317812-1.6381303,4.2321915-2.0777449,5.981452-.6040233,2.4005629-.94674,4.8427343-1.2024869,6.9155231-.2168289,1.746713-.4241268,3.7999713-.3204779,5.7844479.0730705,1.3849728.3474822,2.8225932.6131571,4.2118117.103649.5409121.2057095,1.0767293.298239,1.6133956l.1747339,1.0571987c.1949871,1.2015552.395534,2.4404732.7346766,3.5681518.0178705.06029.1119885.2666349.5921096.6317718.0901468-.0900105.1691742-.180021.2080922-.2428585.233508-.371081.382429-.7905639.38918-1.0954107.0536115-2.2179944.0540087-4.47505.0544058-6.6573798l.0007942-1.5658429c.0007942-.5392138-.0099281-1.0758801-.0206504-1.6125465-.0361381-1.8460643-.0734677-3.754966.3379512-5.7233087.2712347-1.2958114.50236-2.5975669.7334853-3.9018699.3967254-2.2409216.7986133-4.5107145,1.3946942-6.745692.9288695-3.4806888,2.327535-6.5300065,4.2750237-9.3203318.855799-1.2270298,1.5726051-2.5678465,2.3545393-4.0666061.1207252-.2318195.1552749-.5375155.1437583-.6181853-.4467628-1.0487072-.3407311-2.0447667-.2466131-2.9227935l.0508317-.5171358c.1374044-1.7042553-.6592233-3.2785897-1.3684841-4.458916-.541278-.9001049-1.1135315-1.778981-1.6853879-2.6570078-.6079945-.933222-1.215592-1.866444-1.7870512-2.8242915-.38918-.6521515-.7338824-1.3408167-1.0670681-2.0065547-.3963283-.7956588-.7700205-1.5454632-1.2231373-2.2426199-1.2215488-1.8800305-2.4843983-3.8237476-1.6973016-6.5198166-.5845643-2.9491174.5238046-5.5016791,1.6901533-7.613529.910999-1.6465127,2.0602715-3.1172502,3.1714203-4.5387366.4642362-.5952581.89154-1.1421143,1.303356-1.6983112.3856059-.5205324.7831256-1.031724,1.1810423-1.5437649l.0655252-.0840664c.7545327-.9688865,1.5348785-1.9708901,2.2004558-3.001765.9332379-1.4444137,1.7342339-3.0476194,2.5086228-4.5981775l.0980893-.1961549c1.147684-2.2961167,1.7040526-4.7875392,1.6524267-7.4037876-.0055597-.2912604-.0206504-.5833699-.035741-.8746303-.0277986-.5332697-.0524202-1.0325732-.0432864-1.5318767.0726734-3.7838373.0865727-7.8461977-.2962534-11.9187479-.0869698-.9255796-.145744-1.8562541-.204121-2.7869286-.0901468-1.4435645-.1830735-2.93638-.3935484-4.3723021-.4336578-2.9584581-.8994825-5.6035777-2.2107809-8.0041406-.3518505-.6436599-.6917874-1.2958114-1.03093-1.9471138-1.1131344-2.1364755-2.159155-4.1455776-3.614609-5.8956873-.6274535-.7548993-1.2012956-1.5531056-1.7564728-2.3258372l-.966199-1.3357217c-.8530191-1.173533-1.7354253-2.3886747-2.5511149-3.629291l-.2974448-.4398626c-.5845643-.8534014-1.2473618-1.8214387-1.3275805-2.9499665-.1755281-2.4982157.4674132-4.8919854,1.8100843-6.7405971.4431887-.6096937.8538134-1.2491079,1.2640409-1.888522.9812897-1.5293292,1.9736988-3.0747924,3.3799096-4.3230511.1858533-.1647362.3661469-.5485545.4340549-.6937601.3077699-.6563973.6044204-1.3204369.9010709-1.9836275.4157873-.9298254.8323688-1.8596507,1.2775431-2.7733422,1.3696755-2.8064592,1.6579864-5.6044269.8812148-8.5526951-.0988835-.3719301-.077836-.8058487.0579799-1.1879687.4578822-1.2941131.3522477-2.6892758.239862-4.1659573-.0254158-.3354165-.0508317-.6699838-.0694964-1.0028528-.0635396-1.1217345-.2124605-2.2765861-.356616-3.3923766-.1088116-.8449098-.2176231-1.6889705-.2954591-2.5364277l-.0913382-1.0189867c-.3609843-4.0598129-.7017155-7.8929012-2.3668501-11.450014-.1763224-.3778742-.2474073-.7667875-.304593-1.0801259-.0333583-.1842668-.0575828-.3286232-.1020605-.4644881l-.1580548-.4823204c-.3125354-.9569983-.6346017-1.942868-1.0102796-2.8625035-.3093584-.7548993-.6624003-1.4911172-1.0714365-2.3428203l-1.0186192-2.1509111.6203053-.5528003c.2350965-.2080431.4968002-.4075947.7624752-.6071462.4642362-.3507013.9403861-.7107432,1.1695258-1.1005056,1.3879431-2.3598034,2.7179064-4.6830931,3.7293774-7.1583816.939989-2.2995133,1.750516-4.906421,2.476853-7.9684761.7998047-3.3635053,1.3390971-6.3780076,1.6480584-9.2158856.252967-2.3232897.1104001-4.7883884-.0428892-6.9172214-.1477296-2.0430683-.4741643-4.1277453-.7898766-6.1436407l-.145744-.9374678c-.1826763-1.1820246-.4455714-2.4600037-.8280004-4.0216009-.7616809-3.116401-1.7405879-5.3343954-3.0804792-6.9792098-1.2588783-1.5454632-2.7016243-2.9839327-4.0967157-4.3756988-.755327-.7540502-1.4844439-1.4817765-2.1941018-2.2290334-.9709645-1.0215342-1.7290714-1.8978627-2.3851177-2.756359-.2446275-.3209808-.50236-.6309226-.7608867-.9408644-.9622278-1.1540024-1.9034081-2.2816811-2.4180789-3.8228985-.13939-.1536972-.2132548-.3642877-.2327138-.425427-.0913382-.2861654-.1930015-.5714817-.295062-.8584963-.2712347-.7625417-.5516031-1.5505581-.6778881-2.4107527-.1104001-.7540502-.1131799-1.4962121-.1155626-2.2128995-.0019856-.611392-.0039712-1.1472092-.0635396-1.6787806-.2990332-2.6714435-.4229355-3.7770441,1.903011-4.1158571.3558218-.0526476.7803457-.114636,1.3116956-.240311.3312002-.0789715.6278507-.0509493.8669184-.027173,3.0058202.2360653,6.0581037-.1358649,9.6044076-1.1582482,4.9938154-1.4418662,7.4249993-6.7355021,7.1771949-10.9838276-.038918-.6674363-.2462159-1.0605953-.7922594-1.5055529-1.2858826-1.0461597-2.7286287-1.418939-4.4183849-1.1421143-.6052147.1002004-1.2052668.245406-1.8474139.3999523l-2.2608184.523929v-1.3433641c0-.2963553.0059568-.5774258.0119137-.8474573.0115166-.5188341.0214446-.9629424-.0166791-1.3832745-.243039-2.6824825-1.5475864-4.5141111-3.5788679-5.0253028-2.6901078-.6835702-4.7472023.136714-6.1121123,2.4370765-.1779109.2997519-.3657498.5935598-.5535888.8856693-.3097555.4831695-.5837701.9102948-.8156896,1.3671405-.1886332.3719301-.395534.7430111-.6032291,1.1157904-.5500147.9858696-1.0638912,1.9072035-1.2290941,2.8251406-.0968979.5375155-.2013411,1.075031-.3061814,1.6133956-.4813125,2.4693445-.972553,4.9887891-.6687543,7.4895523.0802187.6614922.1127828,1.6142448-.5293643,2.2468657-.6504866.6377158-1.5634713.5171358-2.1921162.3727793l-.6810651-.1536972c-1.3668956-.3065452-2.7810488-.6232802-4.1316625-1.1888178-3.6332737-1.5242343-7.2971259-3.143574-10.8402528-4.7094169l-3.8266724-1.6881213c-3.7651184-1.6533059-7.6596987-3.3635053-11.6765928-4.1515217-.4002995-.0781223-.8017903-.163887-1.2036783-.2505009-1.0821588-.2318195-2.1917191-.469583-3.2556102-.534968-4.7885031-.2929587-8.6791122-.0551951-12.2448751.7506535-3.7583673.8517031-6.837258,1.8044556-9.6465026,3.689581-1.455454.9756798-3.1237656,1.4877206-4.7368771,1.9819291l-.2942678.0900105c-1.3641158.4194829-2.7691352.5536494-3.9636796.6300734l-.4348491.0280221c-1.8605189.1239767-3.7829889.2496517-5.8480259-.3863658l-.7823313-.2411602.0857785-1.4121457c.0266072-.3676844.0500374-.6835702.0440806-.9977578-.0067511-.3668352-.0055597-.7353687-.0043683-1.1056006.003177-.9697357.0059568-1.8808796-.1385958-2.7393759-.3391426-2.0175937-1.5134338-3.4136055-3.306839-3.9307412-2.5185509-.7277263-4.6717491-.6589447-6.5815111.2088923-.7378536.3354165-1.5563231,1.2287281-1.5511605,1.9734376.0238273,3.3218967,1.2382279,5.7479342,3.7123011,7.4182232.0865727.0577426.1834706.1086919.2807656.1604904.5234075.2776739,1.4363921.7608434,1.5869015,2.0048563l.0917353.7616926-.6397643.3473046c-1.7679894.960395-3.5558348,1.075031-5.2849062,1.1854212-.3391426.0212289-.6675629.0424578-.995189.0696308-3.2929397.2708806-7.1303344.5247782-10.9963219.0789715-2.7496762-.3175842-5.1856256-1.5038545-7.4460468-3.6275927-1.8712412-1.7577521-3.5689399-3.3185-5.394512-4.6211047-2.5380099-1.812098-5.48863-2.7487166-7.7752614-3.3626561-5.0402787-1.3527049-9.4713715-1.1455109-13.5450541.6326209l-.4785326.2097414c-1.6357476.7158382-3.3266952,1.4554527-5.0688715,2.0133479-2.3934573.76424-4.9195535,1.1718347-7.7232383,1.2448621-.7938479.011039-1.5015202-.1205801-2.2802774-.2853163-.567488-.1188818-1.1036034-.2318195-1.624231-.2377636-3.5840305-.0450052-6.5926306-1.5191394-9.874848-3.2955728-3.4339182-1.8562541-6.2920088-2.0906211-8.996413-.7362179-1.7274829.8627421-3.5971356,2.0269344-4.3711273,4.115008-.2585267.6988551-.3411282,1.5276309-.4288923,2.4056578-.0186648.1902109-.0373295.3753268-.0571856.5578952.4046678.2513501.8089385.5010018,1.215592.7472569l.0957065-.1766244c.3907685-.726028.7596953-1.4121457,1.2842942-2.0354259,2.5729567-3.0544127,6.7935746-3.880641,10.5015073-2.0566548.4030793.1987024.8025846.4058964,1.2016927.6147886,1.4260669.742162,2.7703265,1.4427153,4.2559618,1.6881213,4.2861431.7064975,8.6977769,1.4342238,13.061756.780374,2.0777449-.3090926,4.1892452-.9680374,6.1740635-1.6167922.6965529-.2267245,1.3756323-.5799733,2.0940269-.9544509.5242017-.2734281,1.0488005-.5451579,1.5869015-.7752791,3.3580678-1.4384696,6.4111456-1.8324778,9.3351585-1.2024043l.7108493.1511497c1.3494222.2827688,2.7457049.5757275,4.0967157,1.0724835l.236685.0857647c1.8621074.6827211,3.7873573,1.3892185,5.4771135,2.5508634,1.4677647,1.009646,2.8136129,2.2137486,4.1153804,3.3779409.75215.6725312,1.4483057,1.2958114,2.1643176,1.8876729,1.4637935,1.211745,3.0423554,2.4149985,4.8282153,2.6663486,2.4824127.3490029,4.9203477.5298731,7.2458971.5392138,2.502666-.0203797,5.1244687-.2233279,7.4214252-.4237286l.210872-.0178323c3.1531526-.2751264,6.4560204-.7362179,9.125875-3.0476194.9808926-.8491556,1.9875981-.6054479,2.651984-.4441084,2.2226946.5332697,4.5307706.6886652,7.0564696.4797729,3.591973-.2972045,6.5477557-.8440607,9.2974319-2.5500142,3.0725368-1.904656,6.1835944-3.0832839,9.2469973-3.5027668,1.5662511-.2131381,3.1603008-.3702318,4.7019304-.5213815l.2406562-.0237764c.700127-.0687816,1.400651-.1384124,2.0999838-.2131381,3.9728135-.4347677,8.1020932.1358649,12.2806161,1.6855738,3.057049,1.1336227,6.0862994,2.4795343,9.0154749,3.7804407l-.0540087.446019.0001986.0001061.1558706-.4011199c1.6536181.7345196,3.3072362,1.4690392,4.9723708,2.1678942Zm19.2191404.065385c.0901468-.9085965.1493181-1.8087014.2080922-2.6969182.1409785-2.1483636.2744116-4.1778455.8045702-6.1767578.4551024-1.7144451,1.5003288-3.1622554,2.5106084-4.562513.2958563-.4101421.5603398-.7769774.8097328-1.1446617.6953615-1.0308749,1.9721103-1.2779792,3.1749944-.6139395.9634192.5324206,1.445923,1.4095983,1.4344065,2.6077568-.0202532,2.0566548-.6592233,3.8755461-1.2771459,5.6341473l-.1957814.5587444c-.2029296.584219-.3117412,1.0504055-.3423196,1.4647934-.0397122.5043984-.0409036.7965079-.0039712.8712336.0007942-.0084916.0150907.0127373.0953094.0424578,1.2108265.474678,1.3641158.2097414,1.4550568.0517985,1.0067055-1.7254842,2.5368185-2.4294341,3.8866379-3.0501669.4189642-.1936075.8097328-.3727793,1.1846164-.5799733,1.1949416-.6563973,2.7929625-1.2907165,4.561349-.3761759l.4781355.2479534.0822044.562141c.4074477,2.7656998-.9634192,4.5608147-2.3581134,5.9508824-1.8438398,1.839271-4.1169689,2.2332792-6.1029785,2.4591546-1.368087.1553955-2.7377625.2309703-4.1868625.2309703-1.5964324,0-3.3298721-.092558-5.2995997-.283618l-1.0289444-.1002004.1100029-1.097109Zm-81.1428484-5.0422859l-.3959311.6156378-.6794766-.1740769c-3.5459068-.9145406-5.4977638-3.0000667-5.9671626-6.3763093v.0008492l-.1143713-.8211335.7108493-.3345673c2.2183263-1.0444614,4.2249862-.2105906,5.5406531.5069459.8303831.4509016,1.1691286,1.5675412,1.3911201,2.6001144.2696462,1.2575994.3975196,2.6103043-.4856808,3.9825397Z" stroke-width="0"/>
      <polygon points="398.3548989 226.7226528 398.3552961 226.7224405 398.3545018 226.7221221 398.3548989 226.7226528" stroke-width="0"/>
    </g>
  </g>
</svg>