<?xml version="1.0" encoding="UTF-8"?>
<svg id="Layer_2" data-name="Layer 2" xmlns="http://www.w3.org/2000/svg" viewBox="0 0 348.2621053 178.3009015">
  <g id="Layer_1-2" data-name="Layer 1">
    <g>
      <path d="m233.0540101,98.0665614c-.6938477.074707-1.2563477.3476562-1.5825195.769043-.246582.3178711-.34375.7075195-.2822266,1.1269531.0644531.4418945.293457.8076172.6625977,1.0576172.4594727.3120117,1.0932617.402832,1.7368164.2490234,1.4140625-.3369141,2.1132812-1.1445312,2.2680664-2.6176758.0141602-.137207.043457-.2724609.090332-.4829102.0258789-.1162109.0571289-.2573242.09375-.4379883l.0195312-.0942383-.0327148.0048828c-.2958984.0429688-.5947266.0893555-.8959961.1362305-.6767578.1054688-1.3764648.2138672-2.0776367.2890625Z" stroke-width="0"/>
      <path d="m234.3914124,124.1871669c.2119141-.4858398.559082-.902832.8945312-1.3066406l.1748047-.2119141c.5053711-.6186523,1.0180664-1.2319336,1.5307617-1.8457031.9501953-1.137207,1.9331055-2.3129883,2.8491211-3.5053711.4311523-.5605469.9853516-1.4204102,1.1801758-2.3300781.0795898-.3701172.1616211-.7412109.2441406-1.112793.4243164-1.9135742.8632812-3.8925781.8901367-5.8310547.128418-9.1567383-1.1606445-15.9238281-4.1811523-21.9404297-.2333984-.4643555-.3930664-.8876953-.4887695-1.2944336-.097168-.4130859-.1870117-.8842773-.0249023-1.2548828.8793945-2.0170898.9936523-4.1601562,1.1040039-6.2329102l.0581055-1.0419922c.152832-2.6523438.3105469-5.3955078-.2539062-8.0644531-.0551758-.2592773.0595703-.5200195.1606445-.7504883.0356445-.0810547.0717773-.1621094.0976562-.2407227.121582-.3657227.2607422-.7290039.3999023-1.0917969.293457-.7651367.597168-1.5566406.7070312-2.3461914.2373047-1.706543-.4516602-2.980957-1.9912109-3.6860352-.3022461-.1391602-.5336914-.5849609-.5595703-.9140625-.0493164-.6176758-.0756836-1.2382812-.1015625-1.8583984-.0410156-.9711914-.0834961-1.9750977-.21875-2.9438477-.5834961-4.1796875-2.0859375-7.234375-4.5927734-9.3388672-1.9521484-1.6381836-4.0395508-3.1870117-6.059082-4.6845703-1.0932617-.8115234-2.1870117-1.6225586-3.2661133-2.4516602-.328125-.2524414-.597168-.7036133-.6538086-1.097168-.0908203-.6347656-.1464844-1.284668-.2001953-1.9135742-.0913086-1.0732422-.1860352-2.1826172-.4619141-3.2143555-1.1308594-4.230957-2.4121094-7.8549805-6.6557617-9.355957l-.2475586-.0878906.190918-.4692383c.0585938-.1459961.1123047-.2807617.1723633-.4121094,1.2924805-2.8413086.7875977-5.6206055-1.421875-7.8266602-1.5800781-1.5771484-3.4990234-2.3291016-5.8320312-2.2558594-.5141602.0136719-1.0043945-.0341797-1.2504883-.7558594-.965332-2.8320312-2.8808594-5.3110352-5.8549805-7.5776367-2.9604492-2.2563477-6.8613281-3.3129883-10.4345703-2.8242188-3.2631836.4448242-6.1142578,2.1665039-8.2451172,4.9780273-.0844727.1118164-.1474609.2490234-.2202148.4082031-.0380859.0830078-.0771484.168457-.1210938.2548828l-.1479492.2885742-.2416992-.2167969c-1.3603516-1.2202148-2.8198242-1.9506836-4.5932617-2.2983398-5.362793-1.0493164-10.5410156.1088867-15.3950195,3.4448242-3.2495117,2.2329102-4.6806641,5.3754883-4.1381836,9.0878906.0195312.1347656-.0024414.2587891-.0258789.3901367-.0097656.0556641-.0205078.1152344-.027832.1806641l-.0258789.2163086-.2172852.0043945c-3.6674805.0761719-6.1914062,1.7919922-7.5019531,5.1005859-1.3388672,3.378418-1.1025391,6.5048828.7021484,9.2924805l.1484375.2294922-5.887207,3.0957031-.1293945-.1132812c-2.4790039-2.1767578-2.9780273-2.487793-4.8535156-3.0273438-5.8344727-1.6796875-10.7392578.0981445-14.1821289,5.1430664-.2275391.3330078-.6894531.5800781-1.4125977.7558594-.7080078.171875-1.4321289.3144531-2.1328125.4526367-.6196289.1225586-1.2397461.2446289-1.8549805.3876953-.5537109.128418-1.1025391.2822266-1.6513672.4360352-.8398438.2348633-1.7080078.4780273-2.5849609.6264648-3.8330078.6474609-7.4291992-.3632812-11.0800781-1.5507812-4.0864258-1.3286133-8.1240234-2.4848633-12.0014648-3.4365234-2.8647461-.7026367-5.6552734-.3125-8.0722656,1.1293945-2.4897461,1.4848633-3.6318359,3.8955078-3.0556641,6.4477539.3969727,1.7543945,1.359375,3.3164062,2.8608398,4.6425781,2.1035156,1.8583984,4.9736328,4.1601562,8.5263672,5.4750977l.2270508.0839844-.0766602.2294922c-.8999023,2.6958008.3579102,4.8164062,1.6894531,7.0615234l.5844727.9926758-.5717773-.137207c-.5366211-.1293945-.9589844-.3154297-1.3461914-.4951172-3.5688477-1.6552734-7.6142578-3.5317383-11.9760742-4.2075195-3.3554688-.5209961-6.0620117-.2519531-8.5209961.84375-1.4941406.6660156-2.4960938,1.7060547-2.8203125,2.9287109-.3222656,1.2158203.0092773,2.5429688.9594727,3.8378906,1.0952148,1.4921875,2.078125,2.503418,3.09375,3.1821289,2.0322266,1.3588867,4.1713867,2.6367188,6.2397461,3.8730469,1.0419922.6225586,2.0844727,1.2456055,3.1181641,1.8808594.1308594.0805664.7841797.5053711.7866211.9741211.0063477,1.4443359.734375,2.6152344,1.4165039,3.5986328,2.0205078,2.9145508,4.8706055,5.0600586,9.2412109,6.9570312.309082.1347656.6210938.2631836.9555664.4013672l.7397461.3071289-.1352539.2441406c-.8510742,1.5341797-.8481445,3.0546875.0083008,4.7861328l.1923828.3891602-.4331055-.0288086c-.2211914-.0146484-.4262695-.0258789-.621582-.0361328-.3979492-.0209961-.7529297-.0395508-1.1049805-.0834961-3.152832-.3930664-6.1411133.3046875-8.8808594,2.0722656-.4863281.3139648-.9804688.6162109-1.4746094.918457-.4243164.2592773-.8486328.5185547-1.2675781.7856445-.6977539.4443359-1.2929688.4370117-1.9887695-.0283203-4.925293-3.2939453-9.2880859-5.4511719-14.5947266-5.2446289-.5805664.0302734-1.2744141-.5356445-1.7275391-1.0092773-.7426758-.7758789-1.4741211-1.5859375-2.1811523-2.3696289-1.0825195-1.199707-2.2016602-2.4399414-3.3793945-3.5737305-2.1821289-2.1000977-4.559082-3.3613281-7.0649414-3.7490234-1.9541016-.3022461-4.1743164-.3618164-6.9838867-.1865234-1.4702148.0917969-3.1000977.4291992-5.1293945,1.0620117-6.1030273,1.9042969-11.7875977,5.5014648-17.3769531,10.9960938-1.8105469,1.7792969-2.9946289,4.1572266-3.5200195,7.0683594-.0673828.3745117-.3222656.6865234-.5683594.9882812-.065918.0805664-.1308594.1601562-.190918.2397461-.1972656.262207-.4072266.5166016-.6171875.7705078-.4116211.4980469-.800293.96875-1.097168,1.4980469-.3022461.5390625-.5595703.8071289-1.2055664.8710938-2.4223633.2397461-3.894043,1.7504883-4.0390625,4.1445312-.0537109.8964844-.5126953,1.1157227-1.1552734,1.3271484-1.1088867.3642578-2.3652344.7763672-3.4394531,1.4072266-1.7246094,1.012207-2.3105469,2.5654297-1.7416992,4.6162109.0717773.2583008.137207.5185547.2070312.7949219l.1630859.6391602-.2192383.0751953c-.2514648.0859375-.4921875.171875-.7255859.2553711-.4956055.1777344-.9633789.3452148-1.4443359.4775391-1.6064453.4418945-2.456543,1.2724609-2.675293,2.612793-.262207,1.6054688.3496094,2.9179688,1.7231445,3.6953125.9814453.5561523,2.4575195,1.3208008,3.9355469,1.5429688,2.4951172.3735352,5.0634766.5756836,7.546875.7709961.6245117.0488281,1.2490234.0981445,1.8730469.1499023.6660156.0551758,1.3500977.0756836,1.8486328-.1450195,1.4794922-.6538086,2.9233398-.4199219,4.3188477-.1938477.277832.0449219.5561523.0898438.8354492.128418.0874023.0117188.1762695.0263672.2651367.0405273.2827148.0458984.5507812.0893555.7958984.0551758.9443359-.1362305,1.4047852.4189453,1.8540039.9516602.4077148.4838867.8056641.9819336,1.2041016,1.480957,1.1074219,1.3862305,2.2519531,2.8193359,3.6142578,3.9101562,5.1020508,4.0854492,10.8789062,6.9033203,15.8569336,9.1206055.3095703.1381836.6679688.2753906.9794922.262207.9804688-.0507812,1.6293945.4482422,2.2646484,1.0058594,3.1655273,2.7817383,6.659668,4.8554688,10.3847656,6.1640625,1.5585938.5478516,3.1777344,1.0175781,4.7431641,1.472168.9272461.269043,1.8549805.5385742,2.7763672.824707,7.1972656,2.2353516,14.6689453,3.581543,22.2070312,4.0009766,8.8583984.4916992,17.6904297-.8764648,26.253418-4.0708008,2.6313477-.9814453,5.6494141-2.1962891,8.168457-4.1948242.8999023-.7148438,1.550293-.7895508,2.5771484-.2983398,5.4291992,2.6015625,10.8706055,3.5092773,16.1713867,2.6938477,1.9267578-.2958984,3.8671875-.7451172,5.7441406-1.1801758,1.1479492-.2661133,2.3344727-.5410156,3.5092773-.7788086.9174805-.1855469,1.8168945-.2333984,2.5986328-.1411133,1.6386719.1948242,3.2988281.4272461,4.9042969.6518555,1.5283203.2133789,3.0571289.4272461,4.5888672.6137695,8.3139648,1.0107422,15.2202148-.1987305,21.112793-3.7001953.0708008-.0419922.1381836-.0546875.2167969-.0688477.0356445-.0068359.0795898-.0151367.1357422-.027832l.1704102-.0400391.3393555.5195312c.171875.2636719.3359375.515625.5039062.7641602,2.0439453,3.0200195,5.0117188,6.6430664,9.8588867,7.8647461,1.9750977.4970703,3.6230469.902832,5.3442383,1.2231445.28125.0522461.5634766.1069336.8457031.1621094,2.0966797.4072266,4.2636719.8286133,6.3686523.2304688,2.4667969-.7016602,4.9296875-1.6225586,7.0439453-2.4311523,4.5922852-1.7548828,8.0810547-5.0874023,10.3696289-9.9057617,1.5180664-3.1967773,2.140625-6.5195312,2.7973633-10.53125.1308594-.796875.4345703-1.1787109,1.1601562-1.4594727,2.3007812-.8896484,3.737793-2.1386719,4.5214844-3.9316406ZM19.7000062,99.9791591c.1040039-.1464844.1884766-.265625.3173828-.3481445,1.25-.800293,1.8725586-2.0317383,2.53125-3.3354492.1552734-.3071289.3110352-.6142578.4746094-.9160156,2.5102539-4.6181641,6.40625-8.2568359,11.5795898-10.8149414,1.8144531-.8974609,3.7338867-1.6464844,5.590332-2.3706055.8237305-.3212891,1.6474609-.6425781,2.4643555-.9775391.140625-.0576172.2861328-.1044922.4321289-.1513672.2177734-.0698242.4233398-.1357422.6020508-.2368164,2.3129883-1.3105469,4.8266602-1.2680664,6.9824219-1.0537109,1.2998047.1293945,2.4033203.7353516,3.1064453,1.706543.7163086.9897461.9506836,2.2563477.6601562,3.565918-.1635742.7358398-.315918,1.4750977-.46875,2.2143555-.3842773,1.8608398-.7817383,3.7851562-1.3500977,5.6289062-.3959961,1.2866211-1.0722656,2.4980469-1.7255859,3.6694336-.2089844.3740234-.4174805.7480469-.6171875,1.1235352-.3325195.6259766-.7045898,1.2402344-1.0644531,1.8344727-.2890625.4770508-.578125.9541016-.8496094,1.440918-1.7675781,3.1689453-3.8183594,5.1142578-6.4541016,6.1225586-.097168.0366211-.1586914.0600586-.1967773.0883789-1.3588867,1.0136719-2.9267578,1.5844727-4.4428711,2.1367188-.8349609.3041992-1.6987305.6181641-2.5078125,1.0014648-.9311523.4404297-1.8320312,1.0522461-2.6264648,1.5917969-.7978516.5410156-1.6601562,1.0517578-2.7368164,1.0517578-.2929688,0-.6020508-.0380859-.9296875-.1230469l-.2470703-.0644531.0693359-.2456055c.0859375-.3032227.1743164-.5947266.2607422-.8793945.1816406-.5986328.3530273-1.1640625.4672852-1.7358398.2231445-1.1181641.0766602-2.0117188-.4238281-2.5839844-.4990234-.5708008-1.3623047-.8354492-2.4907227-.7617188-1.2553711.0864258-2.9360352-1.28125-3.2006836-2.6015625-.1972656-.9829102-.7392578-1.5048828-1.7583008-1.6938477-.3544922-.0654297-.6308594-.1411133-.8706055-.237793-.5869141-.2363281-.7978516-.5908203-.8710938-.8461914-.074707-.2583008-.0839844-.6757812.2944336-1.1987305Zm209.7666016,23.8388672l-.0004883-.5800781c-.0009766-.1767578-.0019531-.3579102.0014648-.5395508.1713867-9.6767578-.1435547-18.1630859-.9633789-25.9438477-.1777344-1.6879883-.465332-3.3959961-.7436523-5.0483398-.2226562-1.3212891-.4526367-2.6879883-.6264648-4.0405273-.1762695-1.375-.2993164-2.7783203-.418457-4.1352539-.1230469-1.4008789-.25-2.8500977-.4360352-4.2641602-.3554688-2.7070312-1.8110352-4.9682617-3.0390625-6.6362305-1.1181641-1.5175781-2.6347656-1.8339844-4.3862305-.9145508-.1313477.0688477-.2631836.1342773-.3974609.2011719l-.4594727.230957-.0854492-.2856445c-.4541016-1.5166016-1.2216797-2.496582-2.2202148-2.8339844-1.1508789-.3896484-2.5922852.0356445-4.2827148,1.2617188l-.2036133.1479492-.1464844-.2045898c-.1269531-.1772461-.2504883-.3569336-.3740234-.5371094-.2617188-.3818359-.5327148-.7768555-.8310547-1.1298828-.4790039-.5664062-.9765625-.8647461-1.4794922-.8881836-.4941406-.015625-.9990234.2197266-1.5068359.71875-.5375977.5283203-.9433594,1.2329102-1.2363281,1.7875977-.3613281.6831055-.684082,1.40625-.9960938,2.1054688-.1455078.3261719-.2910156.6523438-.440918.9760742-.0292969.0639648-.0698242.112793-.1162109.1689453l-.2421875.3085938-.8188477-.6850586c-.6074219-.5087891-1.2822266-.7368164-1.9082031-.6381836-.5854492.0913086-1.0961914.4584961-1.4770508,1.0620117-.4047852.6411133-.9135742,1.6118164-1.0400391,2.5947266-.46875,3.6367188-.4619141,7.2446289.0200195,10.7241211.2915039,2.1054688,1.168457,4.1547852,2.8442383,6.6445312.3950195.5874023.4458008,1.065918.1870117,1.765625-.3959961,1.0708008-.6342773,2.1923828-.6884766,3.2431641-.0605469,1.1796875-.0512695,2.3862305-.0419922,3.5532227.0068359.9389648.0146484,1.9106445-.0141602,2.8666992l-.012207.4047852c-.0859375,2.8500977-.1743164,5.7973633-.4082031,8.6870117-.3920898,4.8598633-1.2963867,9.1826172-2.7641602,13.2148438-.425293,1.168457.0170898,1.5917969.3862305,1.809082.6210938.3637695,1.2490234.1831055,1.8681641-.5400391,1.4589844-1.703125,2.5219727-3.8422852,3.3457031-6.7329102,1.0644531-3.734375,1.2963867-7.6616211,1.5205078-11.4589844l.0073242-.1269531c.1088867-1.8447266.3515625-3.6894531.7207031-5.4824219.5161133-2.5024414.4453125-4.9882812.2919922-7.3012695-.0195312-.300293.0356445-.59375.0898438-.8779297.0507812-.2675781.0986328-.5205078.0810547-.7592773-.0332031-.4604492-.0830078-1.1567383-.3745117-1.4682617-4.1650391-4.4575195-5.2407227-9.9858398-5.7827148-15.2958984-.1005859-.9838867.0732422-1.9912109.2412109-2.965332.0678711-.3935547.2651367-.7265625.4560547-1.0488281.0795898-.1337891.1591797-.2680664.2270508-.4038086l.0712891-.1411133.7558594.0166016.2456055.824707c.1401367.4765625.2802734.9526367.4360352,1.4238281.0712891.2148438.137207.4326172.2036133.6508789.1918945.6333008.3901367,1.2875977.7163086,1.8334961.168457.2817383.8237305.5688477,1.1337891.4892578.2939453-.0727539.652832-.597168.8164062-1.0415039.1254883-.3427734.0644531-.7993164.0053711-1.2407227l-.0185547-.1381836c-.3330078-2.5854492.9091797-4.5556641,2.1103516-6.4609375l.4145508-.6616211.8110352.0180664.0415039.1928711c.0761719.3505859.1616211.7001953.2475586,1.050293.1987305.8129883.4047852,1.6542969.4838867,2.5019531l.0102539.1162109c.0825195.9091797.1630859,1.4370117.8623047,1.7089844.7612305.2958984,1.2749023-.1030273,1.8139648-.7910156.0795898-.1015625.1616211-.2016602.2441406-.3007812.6220703-.7412109,1.4404297-1.1113281,2.2529297-1.0239258.8198242.0917969,1.5498047.6489258,2.0019531,1.527832.2026367.3930664.4892578.640625.8286133.7158203.3491211.078125.7294922-.0341797,1.1015625-.3227539.862793-.6694336,1.2978516-1.0068359,1.7246094-.9238281.394043.0756836.6293945.4755859,1.0566406,1.2021484l.2783203.4692383c1.1040039,1.8334961,1.6625977,3.8544922,1.7080078,6.1791992.0131836.6894531.0063477,1.3798828-.0004883,2.0703125-.0102539,1.0317383-.0209961,2.0986328.0405273,3.1396484.0229492.3920898.0405273.7871094.0581055,1.1835938.0698242,1.574707.1420898,3.2026367.5830078,4.6748047,1.5693359,5.2333984,1.6333008,10.6235352,1.6948242,15.8369141.0717773,6.0483398-.0952148,12.0400391-.2724609,17.6586914-.0727539,2.2915039-.3325195,4.6767578-.7939453,7.2929688-.2529297,1.434082-.7875977,2.8686523-1.5058594,4.0385742-1.8041992,2.940918-4.3134766,5.1147461-7.4580078,6.4604492-.5893555.2524414-1.175293.5136719-1.7617188.7753906l-1.0136719.4501953c-4.9394531,2.1738281-10.2421875,2.3105469-16.2128906.4174805-1.90625-.6044922-3.5288086-1.7797852-4.8237305-3.4941406-1.784668-2.3632812-3.3691406-4.5073242-4.6811523-6.8149414-3.9384766-6.9262695-7.3168945-13.9160156-10.0424805-20.7749023-.7016602-1.7661133-1.7998047-3.4238281-2.8618164-5.0273438-.3725586-.5625-.7446289-1.1240234-1.1010742-1.690918-.362793-.5776367-.9472656-1.0688477-1.4707031-1.4736328-.8632812-.6669922-1.9375-.7109375-2.6738281-.1098633-.753418.6176758-.9082031,1.6259766-.402832,2.6313477.6630859,1.3198242,1.4077148,2.6303711,2.1274414,3.8974609.5556641.9785156,1.1196289,1.9448242,1.6835938,2.9111328,1.0776367,1.8466797,2.1918945,3.7563477,3.2045898,5.6816406.9990234,1.8979492,1.9174805,3.875,2.8056641,5.7871094.4033203.8681641.8066406,1.7358398,1.2182617,2.5996094l.7480469,1.5610352c.4765625.9912109.9536133,1.9829102,1.4179688,2.9799805.2773438.5942383.534668,1.1982422.7954102,1.8105469.1186523.2792969.2382812.5600586.3613281.8427734l.1005859.2324219-.2338867.0976562c-4.8769531,2.0380859-10.2260742,3.8754883-16.253418,3.5180664-3.7001953-.2182617-7.5493164-.1835938-11.4399414.1025391-1.5419922.1132812-3.0981445.5327148-4.6035156.9384766-.7783203.2094727-1.5834961.4267578-2.3823242.6005859-3.6113281.7871094-6.8759766,1.3925781-10.246582.8374023-4.2983398-.7084961-8.7431641-1.4414062-12.5395508-4.0615234-.7788086-.5371094-1.7045898-.671875-2.6049805-.3769531-1.1777344.3837891-2.418457.8144531-3.5063477,1.4790039-7.7641602,4.7402344-16.5390625,7.1367188-26.1118164,7.137207-.8051758,0-1.6147461-.0170898-2.4306641-.0507812-8.0585938-.3349609-16.2407227-1.7333984-24.3188477-4.1567383-4.5878906-1.3759766-9.0454102-2.8129883-13.1416016-5.2558594-1.4667969-.8745117-2.9970703-1.8935547-4.2519531-3.4174805-.5581055-.6772461-1.5180664-1.105957-2.5356445-1.5214844-5.0112305-2.0454102-9.8686523-4.9448242-14.4375-8.6176758-1.3603516-1.0932617-2.5170898-2.46875-3.6357422-3.7993164-.2231445-.2651367-.4458008-.5302734-.6694336-.7924805-1.4707031-1.7226562-3.2827148-2.5600586-5.5390625-2.5600586h-.0019531c-.9633789,0-1.9404297-.0410156-2.8852539-.0805664-.8583984-.0361328-1.746582-.0737305-2.6176758-.0795898-1.2832031-.0078125-2.6455078.1235352-3.7133789,1.1391602-.1953125.1870117-.5297852.3071289-.7958984.2895508-2.7456055-.1928711-4.9628906-.3662109-6.9775391-.546875-.3554688-.03125-.7509766-.1914062-1.0849609-.4379883l-.0908203-.0673828c-.4208984-.3085938-.8974609-.6591797-.9052734-1.0834961-.0087891-.5166016.6074219-1.0463867.9345703-1.2543945.4052734-.2578125.847168-.4541016,1.2744141-.644043.2636719-.1176758.5283203-.2348633.7841797-.3671875,1.0541992-.5439453,1.3051758-1.1401367.9580078-2.2783203-.6289062-2.0664062-.2460938-2.9257812,1.7075195-3.8310547,1.1289062-.5219727,2.2954102-1.0620117,3.7290039-.4541016.3725586.1567383.7060547.0664062.9208984-.0380859.4223633-.2050781.7568359-.6318359.8950195-1.1420898.0761719-.2807617.1108398-.5732422.1474609-.8828125.0234375-.1982422.0473633-.3969727.0820312-.5927734.1479492-.8339844.5957031-1.4580078,1.2290039-1.7124023.6411133-.2573242,1.4091797-.112793,2.1083984.3979492.0332031.0239258.0668945.0517578.1000977.0795898.0400391.0332031.1000977.0834961.1264648.0898438,1.6166992.4033203,2.3608398,1.5375977,3.1650391,2.9785156.4335938.7773438,1.137207,1.3999023,1.8818359,2.059082.2729492.2416992.5458984.4833984.8046875.7329102l.527832-.4423828-.0947266.6494141c-.0292969.1987305-.0634766.3969727-.0976562.5947266-.0708008.4091797-.1435547.8325195-.1645508,1.2436523-.1254883,2.5097656,1.3051758,4.2583008,3.7348633,4.5629883,3.2089844.4052734,5.8442383-.7641602,7.8374023-3.4663086.340332-.4614258.7631836-.8115234,1.1611328-.9604492,2.2680664-.8525391,4.2866211-1.6923828,6.0209961-3.3374023l.2695312-.2558594.1352539.3457031c.5712891,1.4594727,1.6860352,1.4614258,2.9746094,1.3203125l.6166992-.0678711c2.5541992-.28125,5.1953125-.5717773,7.8041992-.7246094,3.2783203-.1958008,6.3925781.2294922,9.253418,1.2529297,1.128418.4033203,2.1669922,1.0732422,3.171875,1.7211914l.4228516.2714844c.7768555.4960938,1.5375977,1.1044922,2.2612305,1.8076172,1.34375,1.3051758,2.918457,1.3212891,4.956543.0507812.574707-.3583984,1.1083984-.8237305,1.6245117-1.2734375l.2026367-.1757812c5.2641602-4.5629883,11.5214844-6.6079102,18.6025391-6.0839844,2.3657227.1757812,2.4541016.2446289,3.1958008,2.4545898.2363281.7055664.4946289,1.2807617.796875,1.7797852.4711914.777832,1.140625,1.125,1.987793,1.0405273.8154297-.0849609,1.3945312-.5737305,1.7211914-1.4526367.5302734-1.4262695.65625-2.9946289.3969727-4.9360352-.046875-.3496094-.1245117-.706543-.199707-1.0512695-.0649414-.2988281-.1298828-.5976562-.1782227-.8989258-.3706055-2.3149414.2260742-4.331543,1.7729492-5.9931641.887207-.9526367.871582-1.4013672.5004883-2.046875-.4174805-.7265625-1.2963867-1.0839844-2.1918945-.8857422-1.3842773.3051758-2.4511719,1.1865234-3.0039062,2.4829102-.5249023,1.2324219-.9233398,2.5512695-1.309082,3.8271484-.1542969.5107422-.3085938,1.0214844-.4707031,1.5283203-.0756836.2363281-.128418.4799805-.1777344.7080078-.0229492.105957-.0449219.2089844-.0683594.3061523l-.0527344.2207031-.2250977-.03125c-9.3852539-1.3110352-17.8535156,1.5473633-25.8984375,8.7333984l-.1811523.1616211-.746582-.7924805c-.4516602-.4814453-.9291992-.9907227-1.4165039-1.4907227-2.0776367-2.1313477-4.8447266-3.4287109-8.4594727-3.9658203-.496582-.0737305-.9931641-.1508789-1.4897461-.2285156-1.6918945-.2641602-3.4414062-.5371094-5.1660156-.6518555-1.2299805-.081543-2.4995117.0058594-3.7290039.0908203-.5102539.0351562-1.0205078.0703125-1.5297852.0942383-.1816406.0087891-.3681641.0429688-.6259766.0908203-.1464844.0273438-.3125.0581055-.5107422.0898438l-.609375.0991211.7426758-.9951172c.2167969-.2900391.3950195-.527832.5703125-.7670898,1.5771484-2.1518555,2.9345703-4.6123047,4.2714844-7.7431641.6972656-1.6328125,1.3647461-2.8623047,2.0996094-3.8696289,1.734375-2.375,2.5947266-4.8012695,2.6303711-7.4165039.0014648-.1196289.0219727-.2387695.0600586-.4428711.0209961-.1123047.0473633-.253418.078125-.4414062l.0820312-.5039062,1.4492188,1.5664062c.762207.8261719,1.4697266,1.59375,2.1899414,2.3491211.3022461.3168945.6181641.6225586.934082.9282227.5810547.5615234,1.1816406,1.1425781,1.6884766,1.7915039.4365234.5585938.6801758,1.4316406.5795898,2.0756836-.2880859,1.8452148-.7475586,3.6630859-1.1591797,5.1982422-.4282227,1.597168-.2167969,2.012207.3847656,2.293457.7080078.3325195,1.5009766-.1079102,2.1220703-1.1738281,1.3105469-2.2509766,2.3935547-4.746582,1.449707-7.7402344l-.0908203-.2880859.2998047-.0356445c1.3706055-.1601562,2.828125-.2749023,4.2807617.2246094,2.1894531.7519531,4.0888672,1.9042969,5.6455078,3.4262695.2841797.2773438.6513672.8999023.5375977,1.3540039-.4428711,1.765625-.9223633,3.5527344-1.3857422,5.28125-.3535156,1.3198242-.7070312,2.6396484-1.0488281,3.9624023-.0424805.1645508.0654297.5083008.1923828.6123047.6333008.5175781,1.3793945.5634766,2.2172852.1352539,1.2866211-.65625,2.2138672-1.640625,2.7558594-2.9257812.3535156-.8369141.6474609-1.7202148.9321289-2.5742188.2094727-.628418.418457-1.2563477.6523438-1.875.1606445-.4233398.4858398-.8305664.8496094-1.0629883,1.2719727-.8139648,2.4501953-1.5136719,3.6020508-2.1381836,2.6801758-1.4536133,6.293457-3.1542969,10.4833984-3.4067383.2299805-.0141602.4804688-.1523438.7705078-.3129883.1611328-.0888672.3310547-.1826172.5151367-.2666016l.1298828-.059082.1166992.081543c2.9321289,2.0493164,6.4990234,3.3657227,10.6020508,3.9135742,1.8798828.2504883,3.8061523.4213867,5.6689453.5864258.8457031.0751953,1.6914062.1503906,2.5361328.2324219l.1362305.0136719c.140625.0136719.28125.027832.421875.0366211,1.1303711.0708008,1.8032227.3774414,2.1225586,1.7929688.5683594,2.5151367,2.362793,4.3217773,5.3330078,5.3706055.7734375.2729492,1.6074219.4414062,2.4135742.6040039.5327148.1074219,1.0839844.21875,1.6196289.3598633.3588867.0947266.8227539.4267578.9467773.7983398,2.1323242,6.3613281,7.0058594,6.753418,10.7202148,5.9589844,4.6103516-.9838867,7.8999023-2.3613281,10.6669922-4.4663086.203125-.1547852.4331055-.2573242.6552734-.3569336l.1396484-.0634766c.4169922-.1918945.8413086-.3710938,1.265625-.5498047.8574219-.3613281,1.7441406-.7353516,2.5380859-1.2138672,6.1943359-3.737793,10.7685547-9.2016602,14.7890625-14.550293,1.8530273-2.4643555,3.8525391-4.8793945,5.7866211-7.2143555l.4643555-.5605469c1.4936523-1.8046875,3.1801758-2.8242188,5.1557617-3.1162109.5053711-.0751953.9716797-.0883789,1.3876953-.0395508q1.4951172.1782227,1.7900391-1.3930664l.1103516-.5859375.340332.4897461c.0571289.0820312.1289062.1625977.199707.2436523.1914062.21875.3896484.4448242.4091797.7299805.1157227,1.6855469.8413086,3.159668,2.2172852,4.5053711,1.1513672,1.1254883,2.409668,2.1870117,3.6264648,3.2133789l.6264648.5288086c.5126953.4350586.8427734.503418,1.0004883.5253906.7392578-.0004883,1.3066406-.140625,1.4804688-.3657227.2719727-.3505859.2978516-1.1157227.1513672-1.5834961-.1108398-.3535156-.4868164-.7558594-1.0874023-1.1645508-.9038086-.6137695-1.8510742-1.2021484-2.7670898-1.7705078-.4643555-.2880859-.9282227-.5761719-1.3891602-.8691406-1.2319336-.7822266-1.9755859-1.6542969-2.3408203-2.7451172-.1479492-.4418945-.2460938-.9501953.4643555-1.3798828.7348633-.4438477,1.1621094-1.0922852,1.1733398-1.7797852.0112305-.7016602-.4082031-1.3803711-1.1503906-1.8618164-.4667969-.3032227-1.0297852-.5019531-1.574707-.6943359-1.6586914-.5849609-2.7451172-1.8105469-3.2421875-3.6479492-.1679688-.6210938-.1074219-1.1645508.1757812-1.5712891.2949219-.4233398.8154297-.6801758,1.5053711-.7431641l.5200195-.0429688c.5375977-.0424805,1.0932617-.0864258,1.6201172-.1904297.7060547-.1396484,1.1542969-.3901367,1.3696289-.7670898.2250977-.3935547.2084961-.9453125-.0507812-1.6865234-.2421875-.6928711-.496582-1.3837891-.7509766-2.0742188-.6870117-1.8681641-1.3979492-3.800293-1.8569336-5.7641602-.4111328-1.7617188-.6259766-3.5927734-.8339844-5.3642578-.1147461-.9785156-.2333984-1.9902344-.3837891-2.9760742-.0463867-.3027344-.3520508-.7265625-.4755859-.753418-.4960938-.0610352-1.1088867.0771484-1.2597656.2822266-.3212891.4389648-.5219727,1.1245117-.5239258,1.7885742-.0141602,4.5498047.9257812,8.7724609,2.7939453,12.5498047l.2348633.4731445c.1611328.3242188.3222656.6479492.4794922.9741211.0473633.0981445.0341797.1918945.0239258.2675781-.003418.0253906-.0078125.0546875-.0097656.0888672l-.0151367.2587891-.3969727-.0356445c-.1147461-.0083008-.2275391-.0166016-.3383789-.0375977-2.015625-.3793945-3.8061523.0727539-5.0390625,1.2724609-1.2451172,1.2114258-1.7490234,3.0131836-1.4194336,5.0737305.34375,2.1513672.9833984,3.3583984,2.9760742,5.6142578l.2436523.2763672-.3466797.1245117c-.0463867.0166016-.0893555.0351562-.1308594.0532227-.1074219.0463867-.21875.0947266-.3491211.1040039-2.28125.1601562-4.3115234,1.0234375-6.2070312,2.6391602-3.3051758,2.8183594-5.8657227,5.3500977-8.0571289,7.96875-1.5424805,1.8427734-3.2822266,3.5654297-4.9643555,5.2319336l-.480957.4765625c-1.581543,1.5693359-3.2109375,3.1416016-4.7866211,4.6625977-1.1982422,1.1557617-2.3964844,2.3120117-3.5854492,3.4775391-.4995117.4892578-.9775391.5703125-1.578125.5771484-1.0493164-.0166016-1.9604492.1430664-2.6567383.4482422-1.2529297.5483398-2.5024414,1.1704102-3.7104492,1.7719727-.9604492.4785156-1.9541016.9731445-2.9467773,1.4296875l-.3369141.1557617c-1.2094727.5585938-2.4594727,1.1367188-3.7661133,1.387207-1.0410156.2001953-2.0966797-.0966797-2.8935547-.8139648-.8642578-.7773438-1.3203125-1.9501953-1.2207031-3.137207.1035156-1.2397461-.4589844-2.0522461-1.6259766-2.3486328-.3110352-.0791016-.6323242-.1166992-.9716797-.1572266-.3916016-.0463867-.7963867-.0942383-1.1855469-.2109375-1.5151367-.4541016-3.2973633-1.0092773-5.0288086-1.6787109-.4287109-.1665039-.7768555-.487793-1.1450195-.8276367-.1679688-.1547852-.3422852-.315918-.5332031-.4697266l-.2929688-.2363281.7333984-.3935547c.2084961-.1103516.3647461-.1928711.5170898-.2827148.8525391-.4990234,1.2353516-1.1582031,1.1708984-2.0151367-.0673828-.8945312-.5883789-1.5214844-1.4667969-1.7651367-.9863281-.2739258-2.0410156-.4013672-3.0332031-.4980469-1.6328125-.1606445-3.2670898-.3066406-4.9013672-.4521484-2.9130859-.2602539-5.9257812-.5292969-8.8803711-.8793945-2.3994141-.2841797-4.6831055-1.0722656-6.7866211-2.3417969-.9013672-.543457-1.9174805-1.2412109-2.5766602-2.6503906l-.1572266-.3364258.3710938-.019043c.2124023-.0112305.4082031-.0161133.5927734-.0205078.3662109-.0087891.6821289-.0166016.9794922-.0712891.1435547-.0258789.2910156-.0483398.4399414-.0712891.5146484-.078125,1.046875-.1586914,1.4038086-.4130859.4316406-.3076172.6552734-.7583008.6303711-1.269043-.0297852-.6118164-.4130859-1.1875-1.0249023-1.5390625-.7407227-.4257812-1.5737305-.7397461-2.3789062-1.043457l-.2792969-.1054688c-3.5629883-1.3535156-7.2817383-2.9990234-10.340332-5.8525391-.4379883-.4086914-.9482422-.9003906-1.4091797-1.4472656-.4931641-.5849609-.9204102-1.3198242-.3505859-2.3344727.4638672-.8276367.0444336-1.6235352-.503418-2.0922852-.6191406-.5302734-1.3496094-.9692383-2.0561523-1.3935547l-.3408203-.2055664c-1.0512695-.6367188-2.105957-1.2675781-3.1606445-1.8979492-1.7373047-1.0390625-3.5336914-2.1132812-5.2836914-3.1987305-.5473633-.3393555-1.0117188-.8051758-1.4609375-1.2558594-.1157227-.1162109-.2314453-.2324219-.3481445-.3457031-.3618164-.3520508-.5043945-.7260742-.4013672-1.0537109.0566406-.1791992.2421875-.4946289.847168-.5922852l.7011719-.1166992c1.3774414-.230957,2.8051758-.4677734,4.2036133-.4208984,2.9145508.1030273,5.6030273,1.21875,7.8945312,2.2563477,1.3769531.6230469,2.7548828,1.2993164,4.0878906,1.953125l1.3066406.6396484c4.1835938,2.0351562,8.6738281,2.7460938,13.7285156,2.1762695.3422852-.0380859.8198242-.0410156,1.1479492.1713867,3.8823242,2.5019531,8.2495117,2.6513672,12.3891602,2.4438477,1.0927734-.0551758,2.2036133-.1982422,3.2783203-.3364258.6938477-.0888672,1.3881836-.1782227,2.0834961-.2460938.3081055-.0288086.8481445.125.9960938.4335938.7060547,1.4741211,1.9682617,2.4624023,3.7519531,2.9365234,1.6723633.4453125,3.6162109.9272461,5.5209961,1.0131836,1.8051758.0800781,3.6552734-.0014648,5.4438477-.0805664.8623047-.0380859,1.7250977-.0761719,2.5864258-.0976562.4902344-.0087891.7958984.0693359.9550781.2563477,1.8955078,2.2226562,4.5532227,3.1186523,7.1132812,3.8457031,4.0039062,1.1367188,8.7563477,2.246582,13.6591797,1.8740234.9941406-.0766602,1.8339844-.2104492,2.5678711-.4101562.9804688-.2670898,1.5703125-.9794922,1.5385742-1.859375-.0292969-.8056641-.6337891-1.6621094-1.7319336-1.7382812-.4399414-.0307617-.8813477-.0644531-1.3237305-.0981445-2.1704102-.1665039-4.4150391-.3378906-6.5732422-.1293945-4.3413086.4169922-8.1083984-.1425781-11.5161133-1.7099609-.6552734-.3007812-1.5561523-.8188477-2.1245117-1.5761719-1.265625-1.6865234-2.9741211-1.9838867-4.6313477-2.0537109-2.2768555-.0966797-5.2709961-.2460938-8.2431641-.5517578-.9980469-.1025391-1.9716797-.4487305-2.9130859-.7832031l-.5063477-.1782227c-.3613281-.1254883-.7304688-.6694336-.7050781-1.0400391.0493164-.7124023-.078125-1.2270508-.378418-1.5288086-.2890625-.2900391-.7685547-.4189453-1.434082-.3745117-1.4628906.0922852-2.9335938.2451172-4.0512695.3676758-6.5141602.7133789-11.6494141-.1455078-16.1616211-2.7021484-.6679688-.3779297-1.171875-.699707-1.5766602-1.4013672-.3041992-.5263672-.8979492-1.0625-1.6289062-1.4716797-.8442383-.472168-1.7294922-.9106445-2.5854492-1.3349609-.8720703-.4316406-1.7734375-.878418-2.6381836-1.3632812-.7578125-.425293-1.5205078-1.0229492-2.3310547-1.8276367-.5800781-.5766602-.5517578-1.3325195.0756836-2.0224609.6582031-.7246094.9414062-1.3798828.8413086-1.9482422-.1025391-.5820312-.6137695-1.1186523-1.5195312-1.5957031-.9179688-.4838867-1.8671875-.9501953-2.7851562-1.4013672-.4570312-.2246094-.9140625-.4492188-1.3691406-.6767578-2.1977539-1.0986328-4.0830078-2.5004883-5.6040039-4.1665039-1.0473633-1.1469727-1.4453125-2.315918-1.121582-3.2915039.3110352-.9370117,1.2709961-1.6044922,2.703125-1.8798828,1.7822266-.3413086,3.6806641-.3115234,5.347168.081543,3.2236328.762207,6.3520508,1.8286133,9.2529297,2.8671875,4.2675781,1.5283203,7.9291992,2.012207,11.5219727,1.5224609,1.1748047-.1606445,2.3540039-.5161133,3.4946289-.8598633.3789062-.1142578.7578125-.2285156,1.1367188-.3364258.6367188-.1806641,1.2680664-.3813477,1.8989258-.5825195.7397461-.2348633,1.5048828-.4785156,2.2685547-.6850586,1.1220703-.3051758,2.2382812-.2163086,3.3144531.262207.4423828.1962891.9418945.2124023,1.3681641.0424805.3984375-.1582031.7114258-.46875.8813477-.8740234,1.262207-3.0151367,3.8852539-3.753418,6.53125-4.1025391,2.2890625-.3017578,4.9057617-.3339844,6.9550781,1.7226562.3022461.3032227.5332031.9824219.3671875,1.3710938-1.7597656,4.1191406-.1274414,8.8652344,3.8813477,11.2856445.0805664.0483398.1567383.105957.2280273.1601562l.1733398.1279297.0087891.1152344c.0244141.1401367.046875.2607422-.034668.3720703-1.1157227,1.4946289-1.4716797,3.5405273-1.003418,5.7612305.5449219,2.5820312,2.1352539,5.0087891,3.9584961,6.0375977.2314453.1308594.4624023.2641602.6938477.3974609.9799805.565918,1.9936523,1.1513672,3.0488281,1.5249023.7817383.277832,1.4936523.2084961,2.0043945-.1928711.5327148-.4189453.7875977-1.1616211.6982422-2.0366211-.0234375-.2280273-.0644531-.3569336-.1289062-.4067383-.059082-.0444336-.1816406-.0537109-.3569336-.0263672-.3623047.0600586-.840332-.0595703-1.1318359-.2832031l-.1665039-.1279297c-1.527832-1.1723633-3.1083984-2.3847656-4.6000977-3.65625-1.7983398-1.5322266-2.2070312-3.465332-1.1821289-5.5898438.2402344-.4980469.7202148-.9995117,1.2841797-1.3408203.5004883-.3037109.7983398-.7416992.815918-1.2016602.0170898-.4365234-.2167969-.8515625-.6582031-1.168457-.1381836-.0991211-.2958984-.1796875-.4589844-.2602539-1.7329102-.8564453-3.0102539-2.402832-3.5043945-4.2426758-.4936523-1.8374023-.1630859-3.8139648.9072266-5.4233398,1.2402344-1.8637695,2.7070312-3.0898438,4.4848633-3.7480469.6401367-.2368164,1.1489258-.1293945,1.703125.359375.6918945.6098633,1.4125977,1.1694336,2.175293,1.762207.3144531.2441406.6318359.4907227.9511719.7441406l.2416992.1918945-.237793.1962891c-2.1240234,1.7592773-3.0151367,4.1977539-2.6474609,7.2490234.3764648,3.1254883,2.0498047,4.9472656,5.1162109,5.5703125l.3691406.0751953-.4194336.6157227c-.1435547.2124023-.2709961.4008789-.4042969.5849609-1.2485352,1.7304688-1.7739258,3.6621094-1.5625,5.7407227.3725586,3.6577148,2.7163086,5.9047852,6.5996094,6.3276367,1.0253906.1113281,1.7797852.3857422,2.3730469,1.4067383.8520508,1.4682617,2.3388672,1.9140625,3.4365234,2.0297852,2.7021484.2817383,5.2910156-.3652344,7.6899414-1.934082,1.6147461-1.0551758,2.4848633-2.6791992,2.5166016-4.6967773.0214844-1.3735352-.7265625-2.5219727-1.8623047-2.8583984-1.1269531-.3310547-2.1010742.1367188-2.9775391,1.4370117-.5239258.777832-1.1572266,1.6860352-1.8837891,2.5263672-.3574219.4130859-.8901367.7353516-1.628418.9848633l-.5576172.1884766.2514648-.5322266c.0732422-.1542969.1503906-.3076172.2275391-.4604492.1708984-.3393555.3325195-.659668.4516602-.9975586.2578125-.7285156.0957031-1.4077148-.480957-2.0175781-.3598633-.3808594-.6601562-.4384766-1.1450195-.2216797-2.1538086.9580078-6.5444336-.2275391-7.9658203-2.1513672-.6479492-.8769531-.784668-1.8598633-.3842773-2.7675781.3720703-.84375.9282227-1.6289062,1.4736328-2.3515625.1865234-.246582.4243164-.4433594.6538086-.6333008.2397461-.1982422.4658203-.3852539.6157227-.6113281.425293-.6401367.6206055-1.1655273.5361328-1.440918-.0976562-.3178711-.7182617-.6806641-1.2373047-.8344727-.6108398-.1811523-1.2539062-.3120117-1.8759766-.4389648-.7192383-.1464844-1.4633789-.2978516-2.1757812-.5292969-1.0927734-.3544922-1.9423828-1.222168-2.3305664-2.3813477-.3999023-1.1933594-.2285156-2.4921875.4584961-3.4746094.1640625-.2358398.5888672-.4521484.8710938-.3623047.6918945.2133789,1.1938477.0205078,1.5712891-.612793.3115234-.5209961.546875-1.3110352-.0986328-2.1113281-.3666992-.4550781-.5507812-.875-.3378906-1.5629883.2670898-.862793-.1914062-1.6162109-.7270508-2.3022461-.246582-.3144531-.5092773-.6191406-.7724609-.9228516-.5019531-.5810547-1.0214844-1.1821289-1.418457-1.8535156-.7548828-1.2773438-1.4331055-2.6928711-2.0166016-4.2075195-.4921875-1.2773438-.394043-2.6699219.2998047-4.2558594.3935547-.8989258,1.0883789-1.4780273,2.065918-1.7216797.7182617-.1782227,1.7333984-.2753906,2.2412109.9594727.1723633.4194336.4423828.7670898.6875.8857422.4287109.2075195,1.0429688.3920898,1.4770508.2788086.4277344-.1098633.4853516-.5102539.4443359-1.2592773-.0258789-.4677734-.0678711-.9389648-.1103516-1.4111328-.1108398-1.2338867-.2255859-2.5097656-.0341797-3.7324219.668457-4.2685547,2.9233398-7.0595703,6.7026367-8.2954102,2.1938477-.7163086,4.2070312-1.0234375,6.1479492-.9536133,2.4291992.0942383,5.109375.5927734,6.5688477,3.5771484.5654297,1.1552734,1.5864258,1.5415039,3.0390625,1.1484375.3383789-.0913086.4780273-.2006836.4951172-.2666016.0053711-.0214844.0185547-.1416016-.2636719-.4125977-.7832031-.7514648-.4902344-1.4433594-.0571289-2.0786133,2.230957-3.2768555,7.8769531-5.0161133,11.6132812-3.5839844,3.4135742,1.309082,5.6889648,3.9169922,7.6391602,6.5400391.2558594.34375.1044922,1.0004883-.0512695,1.3339844-.3974609.8486328-.4321289,1.6762695-.0976562,2.3310547.3266602.6401367.9960938,1.0854492,1.8847656,1.2543945.3881836.0737305.5063477.0058594.5390625-.0258789.0551758-.0537109.0693359-.1904297.0395508-.3759766-.0756836-.4667969.0800781-.7324219.2241211-.8730469.1967773-.1923828.4960938-.2666016.8237305-.2050781l.6762695.1235352c1.1323242.203125,2.3027344.4135742,3.3642578.8671875.9936523.4243164,1.4082031,1.4589844,1.199707,2.9926758-.1850586,1.3583984-.8642578,2.2392578-2.0185547,2.6181641-.3564453.1171875-.7353516.1499023-1.0913086.1679688-.6791992.034668-1.1108398.1914062-1.2485352.4541016-.1508789.2875977.0493164.7241211.2446289,1.0395508l.065918.1069336-.0463867.1166992c-.1176758.296875-.2373047.5683594-.3500977.8242188-.2211914.5024414-.4121094.9360352-.5058594,1.3798828-.4023438,1.8979492-1.8198242,3.074707-3.7021484,3.074707h-.0195312c-1.8256836-.0078125-3.6494141.0053711-5.4736328.0185547l-.7817383.0058594c-.940918.0068359-1.6289062.402832-2.0444336,1.1772461-.4448242.8295898-.3930664,1.6699219.1489258,2.4301758.3701172.5195312.762207.8901367,1.1333008,1.0717773,3.3603516,1.6469727,6.2128906,1.6884766,8.7207031.1274414,1.5966797-.9936523,3.0273438-2.1855469,4.137207-3.4472656,1.6108398-1.8330078,1.972168-3.7119141,1.0737305-5.5844727l-.1303711-.2719727,3.0522461-.809082.1020508.109375c.1733398.1855469.3525391.3652344.53125.5439453.4008789.4018555.8154297.8173828,1.1479492,1.2885742l.0371094.0522461c.6977539.987793,1.4189453,2.0092773,1.8911133,3.1303711.4863281,1.1552734.8427734,2.3803711,1.1875,3.5654297.1030273.3525391.2055664.7055664.3115234,1.0566406.3178711,1.0522461.6162109,2.1098633.9213867,3.1899414l.4750977,1.6743164-.2451172.0654297c-1.2250977.3291016-1.7783203,1.3422852-2.3642578,2.4145508-.253418.4643555-.6933594.8730469-1.175293,1.1157227-1.0585938.5336914-1.0610352,1.0947266-.9711914,1.4702148.1860352.7773438.9355469.8535156,1.5322266.7822266,1.9243164-.2314453,3.5458984-1.6376953,4.0341797-3.4990234l.3120117-1.199707.2924805.1962891c.1464844.0976562.2910156.184082.4296875.2675781.3007812.1796875.5844727.3500977.8164062.5888672.6791992.7011719,1.3798828,1.387207,2.0810547,2.0732422,1.7036133,1.6674805,3.465332,3.3916016,4.8876953,5.3286133,2.7329102,3.7231445,4.0239258,8.137207,3.8369141,13.1201172-.0854492,2.2646484-1.4833984,3.8325195-2.6918945,4.9458008-1.6010742,1.4746094-3.0390625,2.9853516-4.2734375,4.4902344-1.1674805,1.4228516-1.2568359,2.8237305-.2392578,3.7475586,1.2402344,1.1254883,2.7202148.3007812,3.7446289-.5898438,1.5136719-1.3173828,3.1928711-2.9658203,4.1694336-5.2041016.0522461-.1201172.1254883-.2226562.1850586-.3046875l.2167969-.3286133.2182617.2041016c.1420898.1328125.2856445.2592773.4272461.3842773.34375.3022461.668457.5883789.9448242.9331055.2915039.3642578.4697266.8588867.4541016,1.2602539l-.0161133.4228516c-.0634766,1.6699219-.128418,3.3964844-.3359375,5.0830078-.0610352.4990234-.1040039,1.0024414-.1469727,1.5068359-.1552734,1.8300781-.315918,3.7226562-1.3730469,5.4775391l-.0908203.1503906-.1723633-.0341797c-.0922852-.0180664-.1914062-.0415039-.2954102-.0654297-.2368164-.0551758-.5053711-.1176758-.7666016-.137207-.409668-.0317383-.9458008-.059082-1.4643555.0019531-1.1459961.1367188-1.9394531.7270508-2.1220703,1.5791016-.1835938.8520508.0722656,1.515625.7602539,1.972168.7304688.4853516,1.690918.3793945,2.637207-.2915039.1982422-.1411133.3920898-.2880859.6064453-.4506836l.6806641-.5117188.0605469.4160156c.0883789.6083984.1679688,1.2080078.2470703,1.8017578.1791992,1.34375.3481445,2.6132812.5986328,3.8837891.246582,1.2485352.5722656,2.4824219.9169922,3.7890625.1357422.5151367.2744141,1.0405273.4121094,1.5810547l.0585938-.2856445.2929688.9003906c.1279297.3930664.2597656.7543945.3842773,1.0961914.2597656.7138672.484375,1.3305664.5932617,1.9873047l.0878906.5268555c.5820312,3.4946289,1.184082,7.1079102.5976562,10.6850586-.6103516,3.7231445-1.9194336,6.9189453-3.890625,9.4990234-.3354492.4379883-.8242188.8198242-1.3413086,1.0478516-.6943359.3046875-1.4106445.5498047-2.1689453.8095703-.3198242.1098633-.6474609.222168-.9853516.3427734l-.3339844.1196289Z" stroke-width="0"/>
      <path d="m332.4304749,123.9029872c-3.0458984-1.1450195-6.6811523-2.1987305-10.5576172-1.3261719l-.2675781.0605469-.0356445-.2719727c-.0117188-.0913086-.0249023-.1748047-.0371094-.253418-.0268555-.1713867-.0493164-.3217773-.0527344-.472168l-.2045898-9.965332c-.1391602-6.8330078-.2783203-13.6660156-.4335938-20.4985352-.0830078-3.6694336-.1757812-7.2568359-.3964844-10.8012695-.2163086-3.4848633-1.2539062-5.7016602-3.3632812-7.1889648-1.8359375-1.2939453-3.6699219-2.5922852-5.4916992-3.90625-.0551758-.0395508-.5390625-.3999023-.5361328-.8095703.0024414-.3955078-.1333008-.4545898-.6362305-.4658203-.4755859-.0107422-.9506836-.0078125-1.4257812-.0058594l-.8173828.0019531-.0634766-.3491211c-.0175781-.0898438-.0307617-.1591797-.0351562-.2294922l-.3378906-5.2250977c-.2436523-3.7792969-.4873047-7.559082-.7421875-11.3374023-.0170898-.2568359-.0415039-.5126953-.0649414-.7680664-.121582-1.2958984-.246582-2.6362305.5161133-3.9755859.4453125-.7827148.0249023-1.7353516-.6391602-2.2041016-.7060547-.4985352-1.625-.4428711-2.3408203.1411133-.3374023.2753906-.6357422.5898438-.9521484.9228516-.2749023.2890625-.5595703.5888672-.8696289.8569336-.2861328.2480469-.6186523.421875-.9404297.590332-.1328125.0693359-.2636719.1376953-.3881836.2099609l-.4091797.2387695.1494141-2.0634766c.0952148-1.3134766.1855469-2.5532227.2675781-3.793457.0234375-.3491211.0356445-.699707.0478516-1.0498047.0200195-.559082.0405273-1.1376953.1054688-1.7060547.0712891-.6181641.2807617-1.496582,1.2768555-1.9848633l.2709961-.1328125.0800781.2915039c.0458984.1679688.0859375.3305664.125.4887695.0786133.3208008.1533203.6240234.2631836.9033203.6386719,1.6264648,1.1860352,2.9907227,1.78125,4.3608398.1049805.2416992.2358398.3857422.3886719.4282227.2280273.059082.5087891-.0913086.7045898-.2314453.8291016-.5932617,1.2485352-1.3710938,1.1816406-2.1904297-.1655273-2.0136719-.4614258-4.0537109-.7470703-6.0263672l-.034668-.2397461c-.0449219-.3105469-.2548828-.6333008-.4580078-.9458008l-.0371094-.0561523c-.4555664-.7021484-1.0566406-1.125-1.7382812-1.2231445-.6782227-.0957031-1.4023438.1499023-2.0380859.6958008l-.2539062.21875c-.390625.3378906-.7949219.6875-1.2197266,1.0024414-1.5981445,1.1860352-2.4951172,2.7006836-2.6660156,4.5014648l-.1469727,1.5131836c-.2480469,2.5322266-.5043945,5.1513672-.5517578,7.7255859l-.0463867,2.3759766c-.1357422,6.7094727-.2758789,13.6474609.5400391,20.4423828.0356445.2900391-.1230469.6328125-.4995117,1.0786133-.2636719.3125-.5463867.6118164-.8291016.9106445-.4775391.5048828-.9711914,1.0268555-1.3452148,1.6000977-.34375.5258789-.5375977,1.1870117-.7250977,1.8261719-.0581055.1977539-.1157227.3950195-.1777344.5883789-1.5981445,4.9887695-2.3984375,10.4125977-2.4458008,16.5805664-.0424805,5.5131836.0053711,11.1206055.0517578,16.543457.0209961,2.4262695.0415039,4.8520508.0546875,7.2783203.0048828.8188477.003418,1.637207.0019531,2.4599609l-.0009766,1.4233398-.277832-.03125c-.3095703-.0351562-.6132812-.0791016-.9125977-.1230469-.6323242-.0922852-1.2270508-.184082-1.8222656-.1704102l-.1650391.0024414c-2.9291992.0439453-5.9580078.0888672-8.9243164.2890625-1.3798828.0932617-2.8227539.4018555-4.171875.8925781-.6699219.2436523-1.3989258.8657227-1.902832,1.6225586-.234375.3525391-.2773438.7163086-.1210938,1.0244141.171875.3398438.5639648.5551758,1.0483398.5776367l.4423828.0200195c1.621582.0756836,3.2973633.152832,4.9291992.0512695,3.8041992-.2392578,7.737793-.4863281,11.8491211-1.4443359l.3066406-.0712891v.3149414c0,.9013672-.0068359,1.7949219-.0136719,2.6831055-.0151367,2.0351562-.0297852,3.9575195.0327148,5.9179688.0883789,2.784668.2124023,6.0185547.5581055,9.1616211.4033203,3.6586914,1.9248047,5.2885742,5.6132812,6.0151367,3.734375.734375,7.8500977.7915039,12.5830078.1757812,5.2148438-.6796875,7.4814453-2.8149414,8.3647461-7.8779297.4584961-2.6313477.777832-5.3369141,1.0864258-7.953125.1010742-.8569336.2021484-1.7133789.3081055-2.5688477.1137695-.9179688.1860352-1.8398438.2626953-2.815918.0361328-.4604492.0732422-.9306641.1157227-1.4155273l.0288086-.3305664,2.1108398.8081055c1.2602539.4804688,2.4677734.940918,3.6679688,1.4208984,4.3447266,1.7363281,7.769043,3.4726562,10.7768555,5.4648438,2.934082,1.9433594,4.3266602,4.5678711,4.1386719,7.8012695-.3515625,6.0424805-2.3173828,11.2607422-5.8432617,15.5087891-2.8505859,3.4350586-6.4243164,6.4399414-10.6225586,8.9306641-5.0839844,3.0175781-10.8388672,5.1977539-18.1108398,6.8608398-14.9663086,3.4223633-30.199707,3.3852539-45.277832-.1088867-8.2529297-1.9130859-14.6738281-4.4370117-20.2075195-7.9433594-3.0947266-1.9609375-5.2568359-3.90625-6.8037109-6.1225586-2.8779297-4.1245117-3.2856445-8.5322266-1.2104492-13.1010742,1.0424805-2.2954102,2.6162109-4.3886719,5.1035156-6.7866211,5.7270508-5.5219727,12.9443359-9.0795898,23.4013672-11.5356445.2641602-.0620117.5327148-.0595703.7905273-.0615234.1123047-.0004883.2236328.0004883.3339844-.0043945l.2363281-.0112305.0239258.2353516c.0078125.0766602.0170898.137207.0239258.1875.0151367.1040039.0268555.1860352.0136719.2788086-.5317383,3.5541992-1.6391602,6.8764648-3.1386719,10.7714844-.1171875.3032227-.6508789.5922852-.9765625.5332031-2.168457-.3823242-4.3105469.0825195-6.7426758,1.4638672-2.3022461,1.3071289-3.6020508,3.1074219-3.6611328,5.0698242-.059082,1.9780273,1.1455078,3.8710938,3.3916016,5.3310547,2.8681641,1.8623047,5.8012695,2.7661133,8.7133789,2.684082,3.2924805-.0927734,6.6489258-.3774414,9.9765625-.8461914,4.3725586-.6152344,7.7861328-1.7402344,10.7426758-3.5390625,1.5698242-.9555664,2.7148438-2.0576172,3.5014648-3.3691406,1.7631836-2.940918,1.2905273-5.8203125-1.296875-7.9008789-3.519043-2.8300781-6.7895508-3.8256836-10.2871094-3.1313477l-.2695312.0537109-.1601562-1.5683594c-.0566406-.5673828-.1035156-1.1357422-.1503906-1.7041016-.0996094-1.206543-.203125-2.4541016-.3984375-3.6606445-.8725586-5.3867188-1.8491211-12.4926758-1.6572266-19.6894531.0209961-.7807617.2001953-1.2470703,1.0869141-1.4770508,2.6665039-.6904297,5.0175781-1.972168,6.987793-3.8105469,3.9077148-3.6464844,7.112793-7.9160156,9.5253906-12.6904297.3754883-.7426758.6806641-1.5439453.9760742-2.3183594l.1757812-.4589844c.2246094-.5834961.121582-1.0117188-.3154297-1.3095703-.3945312-.2709961-.7236328-.1650391-1.3085938.1743164l-.1806641.1049805c-.6992188.4077148-1.421875.8286133-2.2060547.9707031l-.8671875.1591797c-1.8754883.347168-3.8144531.7060547-5.7338867.7060547-4.4360352,0-8.4116211-.1801758-12.1547852-.5517578-2.5742188-.2553711-5.1464844-.8774414-7.6337891-1.4790039l-.8378906-.2021484c-.4018555-.0966797-.9506836-.2753906-1.0751953-.7104492-.128418-.4501953.2666016-.9248047.625-1.2880859,1.2617188-1.2783203,2.9018555-1.824707,4.4868164-2.2241211,5.1689453-1.3041992,10.722168-1.8652344,17.4819336-1.7700195.4013672.0058594.7797852.1674805,1.1459961.3242188.15625.0668945.3125.1342773.4692383.1870117l.1889648.0639648-.0048828.0498047c.4414062-.2436523.6743164-.5102539.5834961-.9150391-.1005859-.4521484-.5244141-.9946289-.9448242-1.2094727-.7773438-.3969727-1.6625977-.5390625-2.2685547-.5883789-4.1484375-.3374023-8.4375-.1938477-13.1079102.4438477-3.5512695.4853516-7.2373047,1.3339844-10.1342773,4.2348633l-.2373047.2373047-.1591797-.2954102c-.3652344-.675293-.8100586-1.0541992-1.2861328-1.0952148-.0288086-.0024414-.0576172-.0039062-.0864258-.0039062-.4306641,0-.875.2758789-1.2905273.8022461-.3164062.4013672-.6025391.9057617-.9008789,1.5869141-1.1733398,2.6826172-1.3745117,5.6484375-.6152344,9.0678711,1.3837891,6.2304688,5.1552734,10.7329102,11.2094727,13.3823242.3896484.1704102.8496094.4916992.9726562.8813477.2871094.9033203.4331055,1.6850586.4462891,2.3896484.0625,3.4316406.0830078,6.9199219.1025391,10.293457l.0097656,1.6567383c.0014648.2177734-.0600586.4238281-.0966797.546875l-.0566406.2441406-.1850586.0161133c-.4780273.0405273-.9487305.0639648-1.4116211.0869141-.9746094.0483398-1.8950195.09375-2.7783203.2944336-7.9770508,1.8129883-14.7021484,4.8725586-20.5595703,9.3540039-4.2353516,3.2407227-7.2944336,6.737793-9.3530273,10.6914062-3.0805664,5.9169922-2.7597656,11.7880859.953125,17.4501953,1.6591797,2.5302734,3.8984375,4.7456055,7.046875,6.972168,4.9433594,3.496582,10.8168945,6.1894531,17.9560547,8.2329102,8.4921875,2.4311523,17.5991211,3.8618164,27.0688477,4.2514648,11.8798828.4902344,22.1079102-.6577148,31.2626953-3.5039062,9.9423828-3.0917969,17.2734375-7.2685547,23.0717773-13.1455078,5.5610352-5.6362305,8.9116211-11.6679688,10.2426758-18.440918,1.0488281-5.340332.484375-12.4907227-8.1635742-16.2285156-2.8193359-1.2182617-5.1323242-2.1621094-7.2788086-2.9692383Zm-34.5483398-32.0332031c.0947266-1.2817383.175293-2.5649414.2558594-3.8481445.1176758-1.8745117.2387695-3.8134766.4052734-5.7177734.1333008-1.5234375.3544922-3.0615234.5683594-4.5493164.0839844-.5859375.168457-1.1723633.2480469-1.7592773.112793-.8295898.5268555-1.3217773,1.3041992-1.5493164.737793-.2167969,1.1533203-.7407227,1.2016602-1.5166016.050293-.8139648-.3154297-1.40625-1.0571289-1.7119141-.7832031-.3217773-.7988281-.8061523-.737793-1.4057617.590332-5.796875.3984375-11.7338867.1518555-17.3183594l-.1425781-3.0888672,3.0400391.3398438.0004883.7148438c.0004883.3369141.0009766.6552734-.0009766.9731445-.0332031,5.527832.7045898,11.050293,1.5068359,16.1948242.2104492,1.3500977.8012695,1.9750977,1.9155273,2.0258789.2626953.012207.4755859.2387695.6542969.4506836.203125.2392578.3925781.4960938.5820312.753418.3735352.5078125.7265625.9873047,1.1806641,1.3276367,1.5844727,1.1884766,2.9189453,2.027832,4.1982422,2.6411133,2.0136719.9663086,3.0014648,2.3466797,3.1079102,4.34375.1430664,2.6762695.2915039,5.3520508.4394531,8.0283203l.2119141,3.840332-.5478516.2548828-.1235352-.1313477c-.6894531-.7348633-1.2890625-.515625-2.1943359-.0698242-3.065918,1.5126953-6.4785156,2.2753906-10.1669922,2.2753906-.6430664,0-1.2944336-.0229492-1.9536133-.0693359-.2905273-.0205078-.5805664-.0444336-.8710938-.0683594-.6733398-.0551758-1.3696289-.1123047-2.0512695-.1230469-.2714844-.0043945-.6601562-.0405273-.9018555-.3046875-.2426758-.2651367-.2436523-.6591797-.2236328-.9321289Zm18.7407227,45.9248047c-.6445312,4.0209961-1.4619141,4.796875-5.4663086,5.1875-1.0332031.1005859-2.0605469.144043-3.078125.144043-3.0654297,0-6.0478516-.3955078-8.8857422-.8183594-1.4921875-.222168-1.6870117-1.28125-1.7036133-2.0585938l-.1523438-7.0810547c-.1054688-4.8779297-.2114258-9.7558594-.3100586-14.6342773-.0092773-.4482422.0219727-.8925781.0551758-1.3632812.015625-.2241211.0317383-.4550781.0444336-.6953125l.0175781-.340332.3188477.1186523c.0898438.0332031.1660156.059082.2329102.081543.1391602.046875.2431641.0834961.3374023.1357422,1.8603516,1.03125,3.9365234,1.34375,6.1762695.9306641l.4609375-.0854492c1.5561523-.2861328,3.1650391-.5825195,4.6884766-1.0444336.8837891-.2675781,1.7192383-.953125,2.2709961-1.4458008.2348633-.2099609.3959961-.855957.2827148-1.1333008-.1030273-.2519531-.659668-.5654297-1.027832-.5786133-2.190918-.0795898-4.421875-.1196289-6.5791016-.1582031-1.1552734-.0209961-2.3110352-.0419922-3.4663086-.0683594-.8500977-.0200195-1.7475586-.0805664-2.6679688-.1801758-.690918-.0751953-1.027832-.4492188-1.0009766-1.1118164.1357422-3.3740234.2573242-6.7480469.3789062-10.1225586l.1621094-4.4790039c.0039062-.1054688.0283203-.1992188.0595703-.3178711.0151367-.0585938.0332031-.1259766.0517578-.2084961l.0522461-.2319336.2338867.0405273c6.2998047,1.0917969,12.9003906,1.6860352,18.2866211-3.925293l.3916016-.4082031.0380859.5649414c.0322266.4819336.0688477.9624023.1054688,1.4414062.0766602,1.0073242.1557617,2.0493164.190918,3.0751953.0639648,1.8803711.1313477,3.7612305.1992188,5.6420898.2080078,5.796875.4233398,11.7910156.5297852,17.6894531.1049805,5.8276367-.3081055,11.6948242-1.2275391,17.4389648Zm-60.7670898-51.1816406c-.0014648-.0708008.0092773-.1425781.0297852-.2543945l.0966797-.6132812.3349609.2558594c2.7407227,2.0883789,5.9736328,2.4150391,9.1000977,2.730957l.9296875.0957031c7.1289062.7583008,13.4946289.5239258,19.4638672-.7158203.0996094-.0219727.1933594-.0073242.2753906.0048828.0302734.0043945.0625.0092773.0966797.012207l.25.0205078-.0214844.25c-.0019531.0253906-.0014648.0507812-.0009766.0756836.0014648.0878906.0029297.2080078-.0712891.3144531-2.0874023,2.9672852-4.3813477,6.0693359-7.4506836,8.5263672-2.9624023,2.371582-5.8730469,3.5356445-8.8583984,3.5356445-.4287109,0-.8583984-.0239258-1.2905273-.0717773-6.5947266-.7304688-12.7358398-7.4829102-12.8837891-14.1669922Zm11.3837891,30.3554688l.0473633-.7163086c.2192383-3.284668.4458008-6.6811523-.3994141-10.0048828l-.0600586-.2348633.2333984-.0668945c.4501953-.1293945.8789062-.2255859,1.1767578.0136719.2080078.1679688.2954102.4628906.2666016.9018555-.3583984,5.4438477.137207,10.9521484.6162109,16.2788086.0986328,1.097168.1972656,2.1938477.2885742,3.2905273.2387695,2.8647461.7333984,5.7626953,1.2119141,8.5649414.1464844.855957.2924805,1.7119141.4316406,2.5678711.1157227.7099609.3891602,1.496582.8115234,2.3369141.168457.3339844.628418.706543.8422852.6982422.1416016-.0043945.5185547-.4052734.6704102-.8237305.1625977-.4462891.2387695-.9326172.3193359-1.4477539.0356445-.2270508.0717773-.4580078.1162109-.6914062l.0458984-.2402344.2412109.0405273c2.2519531.3798828,4.2348633,1.4541016,6.4306641,3.4824219.3178711.293457.6357422.6459961.5834961,1.0336914-.0517578.3818359-.4282227.6245117-.7895508.8115234-1.2197266.6303711-2.5415039,1.2734375-3.9438477,1.7080078-4.5981445,1.4257812-9.1245117,2.144043-13.4956055,2.144043-1.0014648,0-1.9941406-.0375977-2.9780273-.1132812-1.1425781-.0869141-2.2587891-.5229492-3.3383789-.9448242-.2895508-.1132812-.578125-.2255859-.8652344-.3310547-.3803711-.1396484-.6948242-.4013672-1.0273438-.6782227-.1489258-.1240234-.3027344-.2524414-.4692383-.3740234l-.2104492-.1538086.1625977-.2036133c1.215332-1.5244141,2.7353516-2.25,4.6425781-2.871582l.4545898-.1479492-.1376953.4580078c-.0541992.1811523-.1113281.34375-.1645508.4936523-.1015625.2895508-.1821289.5180664-.190918.7348633-.0092773.2124023.0585938.4428711.1298828.6865234l.0219727.0761719.1025391-.0351562c.2597656-.0888672.5053711-.1728516.6777344-.3168945.1938477-.1621094.3349609-.4145508.4838867-.6816406.0507812-.0908203.1010742-.1811523.1538086-.2680664l.074707-.1245117c.3833008-.6396484.7792969-1.3012695,1.7280273-1.5332031.4121094-.1005859.5112305-.4233398.3789062-1.2319336-.0668945-.4086914-.1411133-.8647461.0292969-1.2143555,3.3959961-6.9868164,4.2797852-14.4716797,4.6962891-20.8720703Z" stroke-width="0"/>
      <path d="m174.5750062,32.5812099c-.4067383.2114258-.8085938.4580078-1.1977539.6962891-.25.1538086-.5.3071289-.7539062.4536133-.4912109.2836914-.8666992.4736328-1.2197266.3720703-.3251953-.0947266-.5405273-.4057617-.8242188-.9462891-2.1157227-4.0375977-1.9824219-7.6015625.4072266-10.8959961.8901367-1.2280273,1.8950195-1.7753906,3.2143555-1.7568359.2089844-.0083008.5600586-.1303711.6137695-.2089844.0576172-.1904297-.03125-.5761719-.1860352-.7636719-.9453125-1.1464844-2.1743164-1.3540039-2.824707-1.3754883h-.0161133c-1.6152344,0-3.234375.6796875-4.5615234,1.9160156-2.2495117,2.0942383-3.5419922,5.0957031-3.5458984,8.2348633-.0043945,3.1220703,1.2705078,6.1079102,3.4975586,8.1923828.5898438.5522461,1.3193359,1.03125,2.0527344,1.3486328,1.90625.8242188,3.6069336.2114258,4.5493164-1.6416016.5-.9833984.9008789-2.0449219,1.2885742-3.0717773l.0522461-.1376953c.0522461-.1381836-.0073242-.4189453-.0683594-.4746094-.0610352-.0356445-.3227539-.0219727-.4775391.059082Z" stroke-width="0"/>
      <path d="m187.3523499,34.6520106c-.503418-.4399414-1.1391602-.6328125-1.7016602-.5161133-.4179688.0869141-.7460938.340332-.9238281.7133789-.1533203.3222656-.2050781.7045898-.246582,1.0112305-.0141602.1074219-.027832.2045898-.0429688.2856445.1816406,1.8735352-.3808594,3.1616211-1.8203125,4.1723633-1.3022461.9150391-2.5874023,1.9858398-3.8188477,3.1816406-1.0410156,1.0107422-1.2978516,2.0351562-.7631836,3.0449219.5356445,1.0102539,1.4648438,1.4038086,3.0195312,1.2817383.2407227-.0195312.4892578-.0776367.7036133-.1308594,4.628418-1.1494141,7.4082031-4.9458008,7.0820312-9.671875-.1020508-1.484375-.5888672-2.5878906-1.487793-3.3720703Z" stroke-width="0"/>
      <path d="m229.2659242,59.0777919c-.0786133-.2397461-.1108398-.4868164-.1420898-.7255859-.0136719-.1035156-.0273438-.206543-.0449219-.309082l-.0058594-.0361328.0043945-.0361328c.0854492-.6987305-.0893555-1.3286133-.4921875-1.7739258-.4052734-.4487305-1.012207-.6958008-1.7265625-.6708984-1.1723633.0258789-2.0717773.5546875-2.6728516,1.5727539-.1225586.2070312-.2172852.4321289-.3178711.6704102-.1103516.2607422-.2241211.5307617-.3793945.78125-.0444336.0717773-.4487305.7016602-.9311523.7231445-1.949707.0839844-2.7236328,1.4902344-3.5429688,2.9785156l-.1689453.3051758c-.3217773.5786133-.2402344,1.2182617.2246094,1.7548828.4052734.46875.9140625.5834961,1.7553711.4003906.0859375-.019043.184082-.0288086.2875977-.0288086.3046875,0,.6577148.0854492.8911133.2817383,1.2539062,1.0561523,2.6914062,1.2714844,4.2714844.6401367,2.4160156-.9658203,3.8134766-4.0161133,2.9902344-6.527832Z" stroke-width="0"/>
      <path d="m69.2649476,118.5655849c.7177734,1.1367188.9331055,2.4199219.6577148,3.9213867-.0810547.4379883-.206543.8681641-.3286133,1.284668-.0463867.1586914-.0927734.3173828-.1362305.4760742-.1655273.6010742-.3334961,1.2016602-.5009766,1.8017578-.3417969,1.2241211-.684082,2.4487305-1.0063477,3.6782227-.2924805,1.1181641-.0009766,1.9873047.8203125,2.4472656.796875.4458008,1.7929688.2290039,2.5371094-.550293.3603516-.3774414.6972656-.8505859,1.0019531-1.4067383,1.0556641-1.9291992,1.6303711-4.0332031,1.7563477-6.4321289-.065918-.4106445-.1240234-.8227539-.1821289-1.2348633-.1318359-.9331055-.2685547-1.8974609-.4936523-2.8173828-.3408203-1.3896484-1.0961914-2.4033203-2.2451172-3.0136719-.3774414-.2001953-.7109375-.3007812-1.0102539-.3007812-.3383789,0-.6323242.1289062-.8955078.3867188-.4697266.4609375-.4624023.9868164.0253906,1.7597656Z" stroke-width="0"/>
      <path d="m196.2097718,17.3419521c.3476562.1201172.6762695.2338867,1.0151367.2944336.6762695.121582,1.2885742-.03125,1.6791992-.4199219.3476562-.3457031.4838867-.8505859.3837891-1.421875-.1445312-.8208008-.6206055-1.7163086-1.2138672-2.28125-1.3828125-1.3173828-3.1264648-1.9946289-5.1831055-2.0126953h-.0244141c-1.6645508,0-3.1386719.5185547-4.3823242,1.5415039-.4379883.3603516-.8330078.9165039-1.112793,1.5668945-.2392578.5585938-.0727539,1.1411133.456543,1.5986328.4189453.3618164.8286133.2807617,1.5161133.1044922.7402344-.1899414,1.3813477-.2827148,1.9487305-.2827148.2685547,0,.5209961.0209961.7592773.0625.8881836.1547852,1.7573242.4492188,2.5976562.734375.3544922.1201172.7084961.2402344,1.0644531.3505859.1660156.0512695.3305664.1079102.4956055.1650391Z" stroke-width="0"/>
      <path d="m208.4085023,100.2096278c2.2182617,1.4121094,4.7583008,1.8491211,8.2373047,1.4135742.2744141-.0341797.5664062-.1806641.7905273-.3051758.8691406-.4804688,1.2573242-1.0957031,1.1870117-1.8808594-.0961914-1.0742188-.956543-1.3959961-1.4609375-1.4921875-1.5830078-.3022461-3.203125-.5644531-4.7700195-.8183594-.565918-.0917969-1.1318359-.1831055-1.6972656-.2768555l-.0268555.1201172-.1704102.0244141c-.2441406.0351562-.4907227.0625-.7368164.0898438-.5244141.0581055-1.065918.1181641-1.5664062.2568359-.4360352.1210938-.7524414.390625-.8911133.7587891-.1411133.3735352-.0761719.8105469.1782227,1.1987305.2290039.3500977.5668945.6821289.9267578.9111328Z" stroke-width="0"/>
      <path d="m206.6130921,48.9479091c-.2021484,0-.4223633.0454102-.652832.1362305-.6220703.2456055-1.1870117.6181641-1.7851562,1.012207-.3051758.2011719-.6103516.4023438-.9228516.5859375-.3076172.1801758-.6210938.3520508-.934082.5239258-.440918.2416992-.8969727.4916992-1.3256836.762207-.4819336.3046875-.7333984.5273438-.7460938.6630859-.0351562.362793.1630859.8989258.3925781,1.0620117.340332.2426758.7802734.3798828,1.2460938.5253906.1879883.0585938.3798828.1181641.5712891.1865234.3007812-.0878906.6040039-.1660156.9057617-.2436523.7280273-.1870117,1.4160156-.3642578,2.0439453-.6699219,1.4003906-.6835938,2.1801758-1.6733398,2.3164062-2.9418945.065918-.6162109-.0991211-1.1245117-.453125-1.394043-.1816406-.1381836-.4052734-.2080078-.65625-.2080078Z" stroke-width="0"/>
      <path d="m222.1057679,54.8107021c.1972656-.0507812.4013672-.2128906.5991211-.3701172l.105957-.0839844c.5537109-.4306641.8823242-1.1225586.8793945-1.8515625-.0029297-.6879883-.2988281-1.3081055-.8129883-1.7011719-.3154297-.2407227-.9633789-.3481445-1.2871094-.2128906-.1450195.0610352-.3500977.4326172-.4799805,1.1245117-.0283203.1499023.0219727.3393555.0756836.5395508.0532227.199707.1079102.4067383.1025391.6240234-.0009766.0429688-.0327148,1.0483398-.4897461,1.1879883l-.1557617.0498047c-.465332.1547852-1.2460938.4111328-1.6586914-.5341797-.1875-.4296875-.5893555-.8564453-1.1147461-.6513672-.387207.1533203-.730957.5932617-1.0336914.9814453l-.0732422.0932617c-.0517578.0654297-.0620117.2431641-.0727539.4311523-.0073242.1220703-.015625.2568359-.0341797.4013672.0234375.097168.0449219.2055664.0673828.3212891.0615234.3110352.1308594.6635742.2763672.9697266.3139648.6606445.8891602,1.0791016,1.5380859,1.1196289.6162109.0410156,1.171875-.2661133,1.5361328-.8354492.5805664-.9072266,1.1879883-1.3867188,2.0322266-1.6030273Z" stroke-width="0"/>
      <path d="m305.7805726,108.0714442c-.0537109-.0083008-.1069336-.0126953-.159668-.0126953-.2397461,0-.4648438.0854492-.6337891.2436523-.1772461.1665039-.2675781.3911133-.2470703.6162109.050293.5581055.3588867.840332,1.0600586.9643555l.465332-.171875c.5351562-.1958008,1.0878906-.3979492,1.6123047-.6337891.0078125-.0961914-.0004883-.2539062-.0180664-.3427734-.6733398-.2753906-1.3681641-.5527344-2.0791016-.6630859Z" stroke-width="0"/>
    </g>
  </g>
</svg>