<?xml version="1.0" encoding="UTF-8"?>
<svg id="Layer_2" data-name="Layer 2" xmlns="http://www.w3.org/2000/svg" viewBox="0 0 364.6569544 313.2907796">
  <g id="Layer_1-2" data-name="Layer 1">
    <g>
      <g>
        <path d="m141.4425949,231.436957c-3.6762695-5.1835938-8.8476562-8.5234375-15.3706055-9.9257812-.8935547-.1923828-1.418457-.5078125-1.4555664-1.546875l-.1923828-5.4726562c-.2558594-7.3603516-.5205078-14.9697266-.9399414-22.4619141-.171875-3.0722656-.6328125-6.2216797-1.0786133-9.2666016-.1513672-1.0341797-.3027344-2.0673828-.4433594-3.1005859-.0566406-.4140625-.2338867-.8427734-.4208984-1.296875-.1118164-.2705078-.2236328-.5419922-.3120117-.8144531-.0986328-.3027344-.1591797-.6386719-.1791992-.9980469-.0458984-.8164062-.0864258-1.6308594-.1274414-2.4462891-.0786133-1.5703125-.1572266-3.1416016-.2719727-4.7128906-.0449219-.6152344-.2055664-1.2646484-.3603516-1.8925781l-.125-.5136719c-.1347656-.5751953-.4487305-.8837891-.9594727-.9433594-.28125-.0341797-.5019531.0117188-.6508789.1357422-.171875.140625-.2226562.3613281-.2348633.5214844l-.0361328.4570312c-.1040039,1.3037109-.2114258,2.6513672-.125,3.9726562.1025391,1.5722656.2695312,3.1767578.4311523,4.7285156.1362305,1.3085938.2724609,2.6171875.3745117,3.9248047.1030273,1.3330078.159668,2.6816406.2143555,3.9863281.043457,1.0371094.0869141,2.0751953.1533203,3.1132812.2246094,3.5136719.456543,7.0283203.6884766,10.5419922.2783203,4.21875.5566406,8.4384766.8217773,12.6572266.1416016,2.2529297.2109375,4.3095703.2119141,6.2871094.0004883.8798828-.0908203,1.7236328-.1879883,2.6171875-.0424805.3935547-.0854492.7900391-.1206055,1.1933594l-.0327148.3789062-.3798828-.0019531-.1733398.0019531c-.1523438.0039062-.3134766.0058594-.4741211-.0087891-8.4624023-.7880859-16.9682617-.4296875-25.2802734,1.0693359-4.3129883.78125-8.4384766.3691406-12.6113281-1.2529297-5.8774414-2.2851562-9.5336914-6.2949219-11.1777344-12.2597656-.8178711-2.9697266-.7768555-6.0039062.121582-9.0175781.6337891-2.1259766,1.4379883-4.2304688,2.2163086-6.2666016.2695312-.7050781.5395508-1.4111328.8027344-2.1181641.3461914-.9306641.7114258-1.8554688,1.0766602-2.7792969.652832-1.6523438,1.328125-3.3603516,1.8740234-5.0712891,1.1484375-3.5986328,1.296875-6.9423828.4541016-10.2226562-.1035156-.4023438-.2592773-.7998047-.4238281-1.2216797-.15625-.4003906-.3115234-.8007812-.4238281-1.2050781-.0776367-.2802734-.046875-.6171875.0668945-.8886719-.0761719-.1123047-.1513672-.2255859-.2265625-.3388672-.3554688-.5371094-.6943359-1.0488281-1.1083984-1.4638672l-.2441406.1669922-.2412109-.234375c-.2041016-.1972656-.3979492-.390625-.5874023-.5800781-.3813477-.3798828-.7441406-.7412109-1.1328125-1.0810547-2.3037109-2.0097656-5.1386719-3.5498047-8.6660156-4.7089844-4.706543-1.5449219-9.6201172-2.4462891-14.6040039-2.6787109l-.3920898-.0234375c-.2177734-.0136719-.3994141,0-.6499023-.0283203-4.0253906,0-7.1469727-1.8154297-9.2783203-5.3964844-1.7631836-2.9619141-2.6455078-6.0947266-2.6225586-9.3095703.0302734-4.3173828.9101562-8.5166016,2.6157227-12.4814453,1.8930664-4.4013672,3.8837891-8.8496094,5.8085938-13.1513672,1.4272461-3.1894531,2.8544922-6.3789062,4.2568359-9.578125,1.3652344-3.1142578,2.7958984-6.4345703,3.9677734-9.7851562,1.140625-3.2617188,1.3056641-6.3300781.5043945-9.3818359-.2011719-.765625-.4511719-1.4814453-.7441406-2.1269531-2.1430664-4.7275391-7.1015625-6.9404297-12.6293945-5.6269531-4.0786133.9648438-6.5761719,3.3583984-7.4233398,7.1142578-.2504883,1.1113281-.331543,2.3974609.965332,3.5078125.8637695.7402344,1.9667969.9667969,2.8798828.5927734.0991211-.0410156.1269531-.0712891.1274414-.0712891-.0361328.0224609-.1333008-.09375-.3129883-.2705078-.550293-.5458984-1.2729492-1.4121094-1.1894531-2.625.0571289-.8271484.5419922-1.2470703,1.4414062-1.2470703,1.434082,0,2.4838867.5546875,2.9550781,1.5625.4472656.9541016,1.0600586,2.2607422.9741211,3.4199219-.1494141,2-.5458984,3.6308594-1.2133789,4.984375-1.9443359,3.9433594-4.1181641,7.8242188-6.1772461,11.4619141-4.3671875,7.7099609-7.184082,14.2324219-8.8657227,20.5273438-2.0473633,7.6630859-2.4819336,14.1982422-1.3691406,20.5654297.7861328,4.4931641,2.3364258,8.3085938,4.7397461,11.6660156,2.0429688,2.8544922,4.8408203,4.7275391,8.315918,5.5693359,1.1943359.2890625,2.3959961.5439453,3.5981445.7988281,1.3876953.2949219,2.8227539.5986328,4.2260742.9550781,2.6704102.6767578,5.0742188,1.3085938,7.4501953,2.1826172,3.0009766,1.1035156,5.065918,2.8251953,6.1381836,5.1171875,1.2729492,1.8544922,1.6425781,4.0166016,1.034668,6.1943359-.144043.5146484-.331543,1.0400391-.5727539,1.6064453-.5561523,3.4345703-1.1132812,6.8691406-1.6865234,10.3007812-.8408203,5.0234375-1.5810547,9.9501953-1.4086914,14.9951172.1518555,4.4492188,1.2011719,8.2177734,3.2075195,11.5205078,2.5795898,4.2460938,6.074707,7.8447266,10.3881836,10.6962891,2.9140625,1.9248047,6.3486328,2.8496094,10.809082,2.9101562,3.6904297.0517578,7.1899414-.4990234,11.0615234-1.1679688l1.6342773-.2851562c4.7373047-.8310547,9.6367188-1.6894531,14.7231445-1.6894531h.0234375c4.2382812.0029297,8.0078125.5,11.5239258,1.5185547,7.425293,2.1474609,12.3896484,6.4921875,15.6225586,13.671875,2.1591797,4.7949219.2651367,6.0751953-1.4057617,7.2041016-.8676758.5869141-1.6171875,1.0927734-1.831543,2.0537109-.0112305.0410156-.3369141,1.1669922.2739258,2.1787109.2963867.4902344,1.4814453.7832031,2.1464844.5273438.2578125-.0966797.8330078-.328125,1.3837891-.5488281.5302734-.2128906,1.0385742-.4169922,1.2260742-.4863281,1.0522461-.3916016,1.9575195-1.9433594,2.4438477-2.7773438l.0634766-.1074219c.9414062-1.609375,1.0751953-3.5898438.3964844-5.8857422-1.3603516-4.6015625-3.5849609-8.3447266-6.7998047-11.4453125-4.7041016-4.5361328-10.4799805-7.3291016-17.6567383-8.5410156-6.4648438-1.0888672-13.2290039-.9082031-20.6801758.5615234-4.3217773.8525391-8.9399414,1.7011719-13.6977539,1.8984375-4.8979492.2060547-9.0458984-1.3583984-12.6674805-4.7734375-5.9604492-5.6191406-8.9282227-11.7353516-9.0732422-18.6962891-.1225586-5.8818359.8999023-11.5537109,1.8041992-15.8369141l.309082-1.4482422c.4326172-2.0126953.8793945-4.0947266,1.1894531-6.1630859.1733398-1.1572266.2250977-2.3710938.2753906-3.5449219.0288086-.6787109.0576172-1.3564453.1083984-2.03125.0185547-.2392578.1074219-.828125.5375977-1.1298828,2.7353516-1.9228516,5.4941406-3.8242188,8.2524414-5.7246094l1.1367188-.7822266c.0942383-.0654297.1870117-.1025391.340332-.1630859l.8222656-.3427734.0786133.5263672c.0654297.4404297.1376953.8632812.2080078,1.2734375.1503906.8779297.2919922,1.7080078.3408203,2.5400391.1884766,3.2197266-.7011719,6.2246094-1.5966797,8.7402344-.4179688,1.1728516-.8613281,2.3388672-1.3046875,3.5039062-.6484375,1.7021484-1.3188477,3.4628906-1.8911133,5.2177734-.9580078,2.9384766-1.6044922,5.3535156-2.0341797,7.6015625-1.0996094,5.7509766.6176758,11.2890625,5.1049805,16.4599609,1.9433594,2.2412109,4.3583984,4.0292969,7.1787109,5.3164062,5.3427734,2.4355469,10.9223633,3.2304688,17.0522461,2.4267578,6.0537109-.7939453,10.7226562-1.2539062,15.1396484-1.4902344,3.5244141-.1914062,8.1611328-.2558594,12.7724609.9306641.2211914.0576172.4760742.0537109.7460938.0498047.2631836-.0039062.5356445-.0078125.8149414.0419922,5.9775391,1.0585938,10.3588867,4.2695312,13.0234375,9.5439453,1.9741211,3.90625,3.1625977,8.1347656,3.5332031,12.5673828.0449219.5371094.0375977,1.0712891.0307617,1.5878906-.003418.2421875-.0068359.484375-.0048828.7265625.0053711.6240234.3984375,1.1328125.9785156,1.2675781.5458984.125,1.3925781-.0048828,1.6762695-.2607422.4638672-.4160156.8286133-1.1142578.9770508-1.8681641.496582-2.5195312.0224609-5.1357422-.4467773-7.1337891-.7597656-3.234375-1.684082-6.6503906-3.8603516-9.71875Zm-80.2006836-54.6855469l-.2314453-.3232422c-2.6958008-3.7568359-4.2788086-4.9443359-8.9145508-6.6845703l-.206543-.0771484c-.7963867-.2998047-1.6201172-.609375-2.4389648-.8095703-.8291016-.203125-1.6577148-.4101562-2.4868164-.6171875-2.8217773-.7041016-5.7397461-1.4316406-8.6245117-1.9941406-4.3583984-.8505859-7.3295898-3.0693359-9.0834961-6.7841797l-.2060547-.4228516c-.1010742-.2041016-.2016602-.4082031-.2944336-.6142578-2.3911133-5.3095703-3.3432617-11.0576172-2.9101562-17.5722656.4291992-6.4755859,2.4316406-12.5263672,4.2744141-17.6884766,1.90625-5.3388672,4.8374023-10.2939453,7.671875-15.0849609l1.6113281-2.7353516c1.065918-1.8144531,2.1679688-3.6904297,3.1181641-5.5878906.9912109-1.9794922,1.3530273-4.0273438,1.074707-6.0888672-.2421875-1.8027344-.8676758-3.2070312-1.9677734-4.4179688-1.0600586-1.1669922-2.4438477-1.8417969-4.2299805-2.0615234l-.7675781-.0947266.5063477-.5839844c1.4868164-1.7167969,3.4111328-2.5986328,5.8837891-2.6962891,3.0571289-.1191406,5.3803711,1.2304688,6.5454102,3.8007812.2905273.6416016.5268555,1.3515625.703125,2.1083984.5878906,2.5263672.3867188,5.1337891-.6152344,7.9716797-1.2387695,3.5087891-2.75,7.6533203-4.565918,11.7841797-1.7949219,4.0820312-3.7089844,8.1933594-5.5605469,12.1699219-1.0698242,2.2978516-2.1396484,4.5957031-3.1928711,6.8994141-1.9882812,4.3496094-3.1220703,8.0078125-3.5683594,11.5126953-.559082,4.3955078.1772461,8.5996094,2.1879883,12.4960938,3.2426758,6.2851562,7.6000977,9.0087891,14.5703125,9.109375.1264648.0019531.253418.0097656.3798828.0175781l.2104492.0117188c4.8525391.2363281,9.0761719,1.0039062,12.9135742,2.3466797,1.7368164.6064453,3.5888672,1.4853516,5.5039062,2.6123047.7919922.4667969,1.4257812,1.0966797,2.0966797,1.7636719.2949219.2939453.5961914.59375.918457.8847656l.394043.3554688-10.6992188,7.0947266Z" stroke-width="0"/>
        <path d="m54.7365402,103.6322695c1.9555664,2.7685547,10.5922852,10.6142578,13.8466797,13.3525391,6.1499023,5.1728516,12.7158203,10.625,21.2895508,17.6777344.4643555.3818359.9248047.7695312,1.3852539,1.1572266,1.9375,1.6308594,3.9399414,3.3173828,6.3041992,4.5917969.2084961.0166016.4150391.0214844.6166992.0136719.6704102-.0302734,1.1333008-.2001953,1.3037109-.4755859.0229492-.0371094.0405273-.0791016.0537109-.1289062-5.565918-6.2910156-12.2973633-11.7841797-18.809082-17.0986328l-1.5405273-1.2578125c-4.2563477-3.4814453-17.2084961-14.0732422-22.1645508-19.2734375-.3076172-.3232422-.6455078-.6289062-1.0043945-.9101562-.5751953-.4501953-1.1230469-.5625-1.6289062-.3359375-.5097656.2294922-.6616211.6054688-.4643555,1.1484375.1884766.5214844.4692383,1.0527344.8120117,1.5390625Z" stroke-width="0"/>
      </g>
      <g>
        <path d="m118.1823303,90.0183206c.3840994.4811446.7138042,1.0219751,1.1630645,1.4316726,1.1183701,1.0199425,1.8406604,2.1741987,1.547235,3.8083512,1.4983894.1233755,1.9387281,1.1217758,2.2037436,2.3852633.1370448.6532904.4151154,1.4938373.9113552,1.8172818,2.1141003,1.37793,4.3042673,2.5504585,7.0372183,2.0768545,1.82384-.316083,3.5721217.1723474,5.145133,1.2150927.2440299.1617663.6353321.2189364.9306307.1667515,1.8648237-.3294663,3.7177768-.7264024,5.5832212-1.0518838.7964864-.1389702,1.5865188-.0425718,2.0294846.7745189.428402.7902641.1534219,1.524476-.3406475,2.1698073-1.8925281,2.4719904-6.0909244,2.8317028-8.3400439.7437935-.1644006-.1526259-.4083492-.2685292-.630474-.3024936-2.1176213-.3238479-4.2457588-.5836191-6.3568659-.9440623-4.0100698-.6846431-8.0095947-1.4255037-9.6935032-6.1776238-1.2412139.7590979-2.5585425,1.3273973-3.576172,2.2326161-2.8067963,2.496772-5.1533277,5.3828337-6.6519103,8.881928-.1955237.4565361-.39129.9169087-.6359266,1.3476854-.6041961,1.0639899-1.4682432,1.6463367-2.759303,1.4733303-.4220437-.0565551-.8688814-.0064148-1.294902.057778-2.7392242.4127437-4.9913119,1.7891667-6.7440526,3.8427314-1.4979981,1.7551132-3.288453,2.789219-5.5131006,3.1892324-3.2389771.5823943-6.1513149,1.9664545-8.8747313,3.7508237-2.0264845,1.3277089-4.0350435,2.693818-5.960556,4.1621854-3.4713944,2.6472458-6.061898,5.9999995-7.8952664,9.9841084-.9152972,1.9890265-2.0818608,3.8689855-3.229472,5.7401984-.3138815.5117185-.9596322.8279535-1.4734835,1.2061596-.3386043.2491693-.7836398.3835737-1.0610845.6811939-1.7590444,1.8869705-3.9667622,2.7499841-6.4660214,3.2085334-2.0623608.3783656-4.1287671.9273304-6.0685566,1.7100328-1.1835188.4775317-2.2621833,1.4171296-3.1550987,2.3678554-1.5509362,1.6514123-1.6085458,3.5673159-.373485,5.6587793,1.2520128-1.1018306,1.8135467.488242,2.6425744.7913943.6196793-1.828161,1.1613585-3.5655097,1.7994477-5.2666929.5587952-1.4898074,1.5228363-2.7096613,2.8773481-3.568451.7252417-.4598185,1.5385641-.6005108,2.268925-.0254249.7364425.5799121.7429125,1.3862048.4682242,2.2093498-.1288086.3860364-.2989925.7582405-.4911141,1.2382885.2452028-.0829175.3613015-.114271.4710963-.1605755.8138498-.3431853,1.5984808-.3177377,2.2541893.3098428.6384465.6110548.6895479,1.4251912.3559025,2.164449-.3908307.8659757-.9637443,1.6480174-1.4257506,2.4840972-.3922227.7098577-.7390518,1.444815-1.105964,2.1686614.0934861.0462095.1869722.0924191.2804367.1386213.2493682-.3142295.4552058-.6802625.7562134-.9329917.9149831-.768222,1.7977003-1.6131111,2.8231471-2.2011542,1.0777217-.6179986,2.3163295-.8533413,3.3680798.1712829.7737176.7537949.8212095,2.2103289-.0187358,3.5701446-.7117881,1.1523808-1.6674915,2.1516651-2.4230823,3.2804233-.4152506.6204064-.8149427,1.3449942-.9107587,2.0640124-.1524295,1.1440713.4401264,1.4766506,1.4681714.9443513,1.4052296-.7275443,2.0131014-2.0007616,2.4446241-3.4594448.4186958-1.4153804.8214613-2.8984526,1.5806425-4.1377397,1.8830256-3.0737903,4.8574063-4.9854524,8.085861-6.2826037,2.0390803-.8192964,3.9993311-1.6841378,5.7854789-2.9308019,4.1292867-2.881987,8.5397687-5.1874159,13.3103768-6.8295481,2.247862-.7737709,4.1686423-2.1286666,6.0432775-3.6148926,2.4034624-1.905564,5.0064672-3.5603886,7.5385378-5.3013571.2691782-.18507.6376369-.2281797.9623856-.3295849,1.1846848-.3699705,2.3906072-.6823028,3.5521572-1.114173,4.8750079-1.8126017,8.3340314-5.4070415,11.5706178-9.2740454.4565038-.5454292.9771855-1.0405309,1.3992564-1.6099891.2052537-.2769279.4402187-.7500989.336675-.9994202-.4248346-1.0229327-.931789-2.0188619-1.4893081-2.9777526-.6992634-1.2026845-.7438716-2.0891013-.0215516-2.8132992.7078531-.709676,1.8478142-.7525121,2.9182838-.0421392,1.591797,1.0562654,2.6915785,2.4813572,3.0457113,4.3963985.1693856.9158494.2200568,1.8555902.4211157,2.7631106.206208.9308431.4019877,1.9005371.8266319,2.7397625,1.360368,2.6887369,2.8026933,5.3370479,4.261993,7.974079.4420324.798779,1.0418487,1.5102526,1.6421839,2.3653831.61311-2.3159104,1.9947762-3.9359249,3.4676607-5.5062312.677709-.7225263,1.3106262-1.4895182,1.9321723-2.261831,2.3865121-2.9652146,4.92722-5.7539389,8.3077098-7.646014.2981613-.1668794.5287293-.6021123.6259871-.957768,1.1005857-4.0242098,3.2270757-7.5297872,5.5575608-10.9161389,1.5738799-2.2869437,3.7369404-3.7967789,6.519509-4.3066845,1.0828033-.1984189,1.8726783.1155519,2.2571518.8715.3700755.7276391.1411933,1.6260183-.6243728,2.3460877-.2704686.2544138-.5968651.4488429-.8714368.6994737-.7328048.6688822-1.5869818,1.25651-2.152445,2.0482055-2.6638272,3.729721-5.7265696,7.228334-7.1176046,11.7310936-.385684,1.2484811-1.3045329,1.932569-2.3752702,2.6025211-3.1633362,1.9792897-5.912959,4.4000919-7.8629281,7.6657031-.8370473,1.4018372-1.901285,2.6701071-2.8904637,3.9777394-.292084.3860602-.6804067.6992771-1.0859767,1.1076351.6676244.2263001,1.2396014.4365276,1.8217016.6134147.7583207.2304527,1.3656239.6461302,1.1895348,1.5089115-.1702864.8344556-.9113424.9118192-1.6360594.8721803-.2479584-.0135705-.4957876-.029934-.7436273-.045628-4.7276836-.299389-9.3622528.2262455-13.6467189,2.28566-2.843007,1.3665576-5.4816915,3.1626744-8.191155,4.8006949-1.2756133.7711429-2.4492089,1.7281606-3.771775,2.3980881-.7827836.3965099-1.759887.484884-2.6612056.5488434-.7594925.0538763-1.5340692-.1542943-2.3047311-.1997458-2.5705167-.1515734-5.1472549-.221951-7.7124387-.4342252-4.3857156-.363006-8.6815377.0346779-12.8837439,1.3354865-.6455003.1998137-1.2332328.5862505-1.8476741.8863639.0201282.136023.0402275.2720602.0603341.4080758.6769393.0815768,1.356071.1482456,2.0302676.2481983,1.0339087.1532908,2.0907449.2379485,3.0882373.5244201.8242086.2366542,1.2306524,1.1537603.7850066,1.6835405-.6597469.7842954-1.3833177,1.6283622-2.2664665,2.088822-2.1737461,1.133386-4.4573577,2.055181-6.6887104,3.0797015-.4925901.2261845-.9516074.5254639-1.4260863.7910612.0335671.1240375.0671341.2480751.1007085.372091,1.0132789-.1326821,2.0252053-.2769781,3.0401614-.3953158,1.4747179-.1719229,2.9501251-.3406309,4.4282094-.4791488.6395511-.0599841,1.2106841.1235114,1.3401854.8545923.1241939.7013453-.398534,1.0009794-.9311605,1.2134247-1.0360758.4132151-2.0991772.7600503-3.1276571,1.1904335-.5532874.2315513-1.0580056.5792668-1.5846428.8745465.0376316.1005561.0752706.2010907.1129022.3016468.3684873.1249036.7333992.2619866,1.1062893.3719861.624836.1843648,1.277109.2982833,1.8729536.5486727.2897312.1217691.6593298.4796531.667005.7402224.0098815.3354138-.2291935.7826931-.5049592.9932263-.2898753.2213056-.7488181.298008-1.1355151.3026475-1.9045306.0228183-3.4303298-.685984-4.3710234-2.503173-.2977487.2248155-.5406116.4088522-.7841682.5919566-2.9542582,2.221048-5.8754972,4.4879566-8.874558,6.6467685-2.0162339,1.4513801-4.1010438,2.8187379-6.2291933,4.1008187-3.4049478,2.0511872-6.8574367,4.0249533-10.3179544,5.9816931-1.5932654.9009066-3.2973899,1.6086861-4.8744237,2.5348329-4.6628772,2.7383842-9.3188643,5.4911247-13.9182385,8.3342424-4.6142536,2.8523309-9.1571024,5.8202-13.7642591,8.7584815,1.1339561,2.2076698.1561867,3.83408-1.2071545,5.3110189-.5174521.5605441-1.1801124,1.0140476-1.8398169,1.4113096-2.392579,1.4408-5.0490274,1.7637491-7.7873081,1.8775171-4.8557028.2017743-3.8249312-.6959005-7.9206232,3.0633608-1.7861401,1.6394364-3.8150921,2.7553308-6.396703,1.7379808-.6476052-.2552163-1.2304837-.4867616-1.2885694-1.2710015-.0561979-.7588851.4215799-1.1727353,1.0765482-1.3112549,1.7382688-.3676275,3.0072678-1.4695667,4.1768065-2.6736419,2.2624989-2.329334,4.1480676-4.9450607,5.6767394-7.8176221.6270924-1.1784209,1.2597161-2.3613861,1.9938455-3.4736415,1.29093-1.9557761,3.0505308-3.3477553,5.3358262-3.9860566,1.4164104-.3956089,2.7392276-.1842259,3.77651.9262758,1.0371673,1.1104867,1.1376643,2.4339814.6727902,3.8327474-.08181.2461768-.1663587.4914253-.2662933.7862496,1.2713774-.7650296,2.4272586-1.5480755,3.6598889-2.1817722,1.8494836-.9508555,3.8281102-1.6677662,5.6192301-2.7116359,5.5582415-3.239421,11.0685894-6.5620323,16.5688746-9.8995705,3.774665-2.2904354,7.2234393-5.0529474,10.8236668-7.5921518,6.0897832-4.2950407,12.4503202-8.2069202,18.7098666-12.2600414,1.4809307-.9588905,3.0128591-1.8389959,4.5245605-2.7573079-1.3506175-1.1950491-1.6500723-2.2229531-.7503548-3.5504393.5545847-.8182586,1.3391264-1.5751591,2.1873803-2.0779319,1.3020778-.771765,2.7477799-1.3013108,4.1328387-1.932962.3429304-.1563924.6870791-.3102081,1.1932745-.5385846-.3748355-.1880253-.5321313-.278343-.6980124-.3482263-.9218332-.3885356-1.8029458-.8886219-1.8626718-1.9948556-.0626296-1.1599415.7597527-1.8447765,1.6634627-2.4000114.2894682-.1778319.5982616-.348416.9214515-.4427404,1.1610224-.3389595,2.3141683-.791926,3.5024328-.9350636,4.2489125-.5117229,8.5113045-.9110736,12.767423-1.3641203.2899058-.0308848.6114008-.0904904.8477549-.2446857,1.2602969-.8221341,2.4036024-1.9033527,3.7637654-2.4758133,2.6925886-1.1332385,5.0703911-2.7474114,7.519287-4.2798822,2.2892012-1.4325061,4.6656625-2.7267415,7.0191334-4.0545065.5475332-.3089086,1.1843401-.5366965,1.7200875.0239079.5700841.5965495.1703157,1.1419165-.1815187,1.669993-.0179247.0269215.0275521.0961057.0288635.1001806,2.0371059-.5321742,4.0664576-1.0623246,6.1618014-1.609703-2.6863905-2.878535-4.3477855-6.3605206-5.9432414-9.9745513-.2500257.2940399-.4271871.502631-.604585.7109976-4.0858315,4.7991866-9.1760065,8.0464151-15.2250093,9.7761426-.6905734.197458-1.4631861.0971191-2.1949461.165144-.5004981.0465208-1.0945315-.0039488-1.4765798.247492-1.5269584,1.0050279-3.1361404,1.9565085-4.4414145,3.2121358-2.7103267,2.6072346-5.8225413,4.3988248-9.3948625,5.5007776-2.5575612.7889308-4.7772246,2.1729666-6.7783556,3.9766285-2.7679948,2.4948621-5.5977389,4.9254944-8.4781398,7.2896703-1.5699892,1.2885835-3.426511,2.0935242-5.5170522,1.7398598-.6816146-.1153054-1.1894866-.1390938-1.6931562.3116353-.4149049.371283-.919903.6818073-1.225182,1.1284277-.9945949,1.4552518-1.8563738,3.0033904-2.8843567,4.43302-.8233638,1.1450697-1.7382185,2.2494627-2.7566319,3.2206868-.7255446.6919348-1.729793.8030112-2.7024371.3386149-.9129103-.4358544-1.1335724-1.2514965-1.1810236-2.1637841-.011537-.2216565-.0522935-.4417976-.0976857-.8088422-.2239068.3240139-.3442017.5030759-.4694684.6785774-.8202461,1.1493481-2.1160476,1.3721321-3.1091862.3758137-.5905646-.5924445-.979823-1.4081114-1.3684321-2.1699452-.2013056-.3946978-.2041323-.8906511-.2956004-1.3358222-1.5936821.2046372-1.9159156.0657684-3.052001-1.154412-.1469602-.1578336-.4813165-.2886704-.6720788-.2339406-1.1103939.3184713-1.9351066-.0633734-2.6296437-.9150095-.1362854-.1671256-.3952951-.3766917-.5652161-.3511043-1.2376408.1865292-1.8529275-.5618633-2.2797546-1.5147286-.7884001-1.7599894-.783006-3.6135572-.1064852-5.3595338,1.5050675-3.8843526,4.3905168-6.3782534,8.2829785-7.7673931,2.0166011-.719714,4.027808-1.4562824,6.0238836-2.2306285.4751335-.1843307.9869156-.46522,1.2942706-.8510805.6342025-.7961756,1.1139128-1.7130691,1.7079835-2.5439806,1.0602438-1.4829579,2.078366-3.0072645,3.2602532-4.3892701,1.5322268-1.7917627,3.3165017-3.3727849,4.7997905-5.2006817,3.7592376-4.6326167,8.3688644-8.2036927,13.4726478-11.198919,2.2845066-1.3407073,4.6280041-2.5401763,7.1978302-3.2648575.6413073-.1808476,1.2515787-.5441256,1.8145041-.9166723,1.5017909-.9939047,2.9413325-2.083475,4.4586517-3.0519091,2.0713427-1.3220241,4.3535749-2.0885324,6.7927234-2.4406009.4317029-.0623027.9277777-.4471474,1.1800741-.8256936.5488003-.8234649.9705874-1.7332458,1.4247815-2.6177731,1.9105008-3.7204917,4.411573-6.9175004,8.1104686-9.0164619.9533311-.5409756,1.995422-.9255497,2.8333441-1.3074807-1.2682025-1.7017534-2.6577221-3.3696667-3.8296141-5.1785891-2.6723702-4.1250223-2.1606739-8.9162767,1.2276472-12.3864647,1.6187424-1.6578917,1.8171218-3.6604847,1.4774762-5.7961509-.0497383-.3128011-.2516877-.6585037-.4877574-.8751037-1.3283555-1.2189497-1.8659612-2.7915233-1.9354617-4.5098188-.1016012-2.5130208-.1194404-5.0310795-.1040593-7.5465687.0089401-1.4642121.1524723-2.9275923.2374014-4.425971-2.1098777.8626876-3.770818.0672907-5.185332-1.4472339-.5020582-.5375729-.97558-1.1579855-1.2671649-1.8257455-.9796727-2.2435104-1.5463178-4.5967892-1.4374619-7.0645461.1051729-2.3837654,1.1658756-4.2271816,3.2858165-5.385393,1.0627701-.580627,2.1531232-1.1136119,3.2498161-1.6280635.5108552-.2396413.7119253-.5727424.7714175-1.1384255.3049399-2.9009088,1.5253375-5.3702867,3.739807-7.2776923,1.2919366-1.1127964,2.6459946-2.1683472,4.0563319-3.1255859,2.6149056-1.774834,5.4844246-2.4453646,8.6045827-1.6170018.552546.1466923.886849.0090852,1.2689502-.4335897,2.4544306-2.8437179,5.3565515-5.1246558,8.9025813-6.4238873,3.8091271-1.3956473,7.7333134-2.2715975,11.8326844-2.3358348,3.5544319-.0556982,6.2697924,1.2877593,8.1058971,4.3344688.3239183.5374746.6704686.672553,1.2911165.5727975,8.0538378-1.2945043,15.9591875,2.5701168,19.8836076,9.6844956.0949642.1721423.2390477.3171842.4203815.5531265.6234234-1.0861723,1.1243691-2.1286262,1.7763795-3.0659971,3.050327-4.3853872,6.1388544-8.7442422,9.2205489-13.1077634,2.1773865-3.0831351,4.6003235-5.9426731,7.5372133-8.3449807,2.6297629-2.1510306,5.2945806-4.2490134,8.5086252-5.4752817,3.1552761-1.2038242,6.2705507-.1804734,8.1915996,2.6214523,1.6662289,2.4302719,1.3312706,5.4586084-.8373036,7.9668396-.1920411.2221317-.241087.6437966-.2178661.9626954.0892819,1.2266427.5044534,2.4939148.3099848,3.66498-.6250964,3.7642142-1.3779764,7.5136099-2.2600739,11.226316-.5216802,2.1956913-1.6366595,4.1776001-3.3445319,5.7163556-.6781057.6109224-.655589,1.1167353-.2662698,1.8399464,1.1119988,2.0656235,1.4618233,4.297511,1.1015988,6.5960013-.579302,3.6965644-1.5888799,7.2761733-3.1746988,10.6813981-.175687.3772327-.3776409.8462846-.3031921,1.2201671.9346905,4.6946858.6589014,9.4029974.2287561,14.114951-.2122182,2.3245752-.9507373,4.5085473-2.565403,6.1807973-2.6047516,2.6976435-5.3120547,5.3085475-8.1198644,7.7935562-1.9214017,1.7005133-1.993796,1.5763334-1.943281,4.1270093.0565485,2.8546731.0498053,5.7108765.040679,8.5663083-.0018118.5724084-.1381564,1.1443775-.1867984,1.518748,2.3656941.4450679,4.644286.7512215,6.8550472,1.320684,2.7585742.7105775,2.9215567.713652,3.9967184-2.0010639.1601217-.4042965.2955932-.8186074.4349819-1.2308212.6770838-2.0024793,1.3704751-3.9996955,2.023366-6.0100627,1.6209793-4.9911919,4.6035704-8.9871934,8.8492469-12.0306573,1.9945433-1.4297681,4.0629087-2.7578322,6.1153119-4.1053352,3.2701413-2.1469966,6.840728-3.5907375,10.7123254-4.1134414,6.3718863-.8602748,12.7647228-1.5641131,19.1433738-2.3759709,8.48693-1.0802109,16.9922142-1.6772605,25.5594596-1.5256187,13.1223035.232273,26.2148735-.3657821,39.2810542-1.65136,6.8106673-.6701053,13.6394117-.9280634,20.4600429.0625792,6.3005202.9151,12.3986191,2.6343614,18.4182857,4.6336233,1.5713025.521861,3.0968556,1.3307498,4.4729747,2.260178,2.9348313,1.9821754,3.6005807,5.5627487,1.5160661,8.4188493-1.0474174,1.435117-2.4425929,2.6301467-3.7623129,3.8448749-.4260161.3921294-1.0935892.6058524-1.6849426.7143415-.8576014.1573343-1.6163352-.1512497-2.0123074-.9961913-.3719136-.7936136.0066954-1.3759525.5347699-1.996294,1.1659661-1.3696835,2.2483602-2.8108438,3.3556193-4.2300343.5418314-.6944752.3749474-1.2860312-.3576262-1.694675-1.0554823-.5887776-2.0866044-1.2725001-3.2144333-1.6721266-8.4019369-2.9770483-17.0203649-5.019085-25.9765907-4.9020447-5.5824475.0729506-11.1628.5989925-16.7359664,1.0274987-11.3528095.8728834-22.7249182.9312548-34.0968948.8176283-6.5740796-.0656734-13.0963391.2446083-19.6038601,1.2315336-4.4207184.6704335-8.8939583.9868407-13.3302652,1.5647067-3.5705776.4650954-7.1503208.9421943-10.6740065,1.6667811-6.5332728,1.3434502-11.8028746,4.9734475-16.3686125,9.672442-2.4107552,2.4811272-4.1943693,5.3862911-5.0790912,8.7876027-.3049172,1.1722382-.6958702,2.3221773-1.0499584,3.481559-.7882343,2.5808366-1.8364864,5.0168944-3.7685217,6.986172-1.9423851,1.9798098-4.2410927,2.5991999-6.9093367,1.8897058-.8110519-.2156418-1.6359322-.3956651-2.4248275-.6755732-3.89346-1.3814187-7.4483784-.4558874-10.9044742,1.4665291-.8194274.4558175-.9534966.8519834-.4948691,1.6518076,1.8739659,3.268087,3.0070271,6.8234611,3.8032043,10.4779541.4543105,2.0853145,1.066987,4.0863578,2.1118925,5.9467324,1.3672603,2.4343435,2.0530392,5.0587207,2.1746974,7.834296.129914,2.964072.8900001,5.7842607,2.1248809,8.4479645,1.6119144,3.4769579,4.3937774,5.7413966,8.0164539,6.8743617,2.1304591.6662862,4.3453386,1.0614236,6.5198226,1.5885372,4.1074474.9956691,8.2515612,1.8983798,12.0681317,3.7944943,4.5392039,2.2551506,8.7107232,5.0537171,11.3355148,9.5194032,2.7378899,4.6580937,4.6811744,9.5110671,1.9140128,14.9650029-.7836147,1.544437-.7499953,3.0858722.3960638,4.6979717,2.1672489,3.0485376,3.2833348,6.4730565,2.5498355,10.2962783-.0058349.0304064-.0125641.0625291-.0087559.0925739.1088563.85951.1014078,1.7619398.3919694,2.5551392.1034306.2823524.934334.287999,1.4258119.4432442.2045091.0645848.3925389.1849143.5834367.288449,2.7303552,1.4808297,5.4144021,3.0561459,8.2021006,4.4196154,2.9487534,1.4422713,5.809417,2.9672467,8.0907473,5.3864543.8251129.874956,1.80638,1.3200126,3.0220305,1.4510015,3.9897465.4298961,6.6451155,2.5423686,7.8016335,6.4369046.6506051,2.190943,1.8871985,3.9167945,3.7705977,5.2680106,4.2635163,3.0587595,6.9844152,7.3449625,9.2093972,11.9872976.2379234.4964008.3773672,1.0572705.4667253,1.6039038.1751283,1.0712783-.1288455,2.0751715-1.0958881,2.5716984-.9465529.4859938-.8794324,1.1193328-.669046,1.9034593.0724239.2699189.1454604.5397329.2218645.8085487.6708658,2.3605491.5037451,2.9076131-1.359911,4.3984021.0545335.2309897.1160673.4709396.1675962.7130278.5887678,2.7665057-1.1225689,5.0538342-3.9253412,5.2526075-.1826486.0129548-.4287423-.0133869-.5349731.0909364-1.2127569,1.1908924-2.7971075,1.2482395-4.3308706,1.4266663-.7069528.0822397-1.1748094.3827543-1.5628791.9850867-.7839066,1.2167454-1.965652,1.6728561-3.3815676,1.493771-2.5066926-.3170801-4.3664585-2.057599-4.7862688-4.5400007-.1545345-.9137725-.2267799-1.8574243-.1962748-2.7828363.0466014-1.41435-.4240074-2.5949933-1.2499573-3.7108667-2.6468379-3.5758857-4.8635734-7.4029836-6.6611236-11.4721558-1.8682362.6902337-3.8066027,1.4289654-5.7611939,2.1219034-1.7980753.6374428-3.6582937,1.156813-5.5681517.9132704-2.828132-.3606428-5.6329177-.9033257-8.4494236-1.3574206-.3225577-.0520197-.7152534-.1546923-.9760695-.0284788-2.4491547,1.1850523-4.9984937,1.0879956-7.57825.6627007-1.0210555-.1683357-2.0358856-.3745426-3.0535427-.5635082-.0653032.0611211-.1306245.1222602-.1959277.1833813.1234454.1368804.2650404.2614247.3676556.4124493,2.3479556,3.455775,3.5553668,7.3074094,3.8355903,11.4447227.0644367.9514391.4665676,1.2984243,1.3031776,1.4598723,2.4993065.4822676,4.9950398.98412,7.4872762,1.5018568,4.5446223.9441046,8.0183504,3.3649605,9.9084219,7.6632373.9074181,2.0636131,1.4554201,4.2890416,2.1076643,6.4587824.2006637.6674981.5515842,1.0414578,1.1857087,1.2959272,1.6105864.6463037,3.2010205,1.3435488,4.7928008,2.0358648,3.8323846,1.6668757,6.9631945,4.1096628,9.0862718,7.8131986.6595527,1.1505169,1.6600136,2.1963909,2.7217161,3.0047433,1.6712932,1.2725162,3.4840539,2.3780516,5.3134456,3.4199121,3.1005367,1.7658004,4.7267691,4.8363418,4.182428,8.2451066-.2795226,1.7503825-.9759551,3.3488455-2.0683485,4.7375051-.8584781,1.0913106-.9091444,2.1139172-.0723255,3.2130634.2622872.3445173.4712462.7314954.6876798,1.1087459.7385893,1.2875146.9169231,2.6734558.3786634,4.038331-.4400946,1.1159479-.9620284,2.2532485-1.6944231,3.1876783-1.0827339,1.3814757-1.3173481,2.8301384-.9579124,4.4626358.1135949.5159491.24379,1.0283893.3485793,1.5460418.5701996,2.8163733-.9738837,4.9137023-3.8109042,5.2761069-.4215978.0538754-.8923124.3468098-1.1850064.6698422-.8927265.9852418-1.9802324,1.5283036-3.2410435,1.1410847-1.0686367-.3282335-2.0443375-.9680406-3.0464968-1.4977134-.2671499-.1411859-.4504581-.4732611-.723615-.5653223-1.3314051-.448797-1.9328561-1.5253333-2.3347102-2.7241913-.2743643-.8184825-.3528825-1.7006462-.5740104-2.5398629-.1066494-.4047099-.24675-.8748764-.5325896-1.1453708-1.2892866-1.2199636-2.1235879-2.6961923-2.4782467-4.404028-.7325789-3.5276809-1.3949284-7.0700714-2.0672882-10.6099889-.1013405-.5336252-.10108-1.0865447-.1387354-1.5247509-5.5361926-.5935307-10.927649-1.3628873-15.9194989-3.6850983-4.8408768-2.2520197-9.6532183-4.5863265-14.3506633-7.1206865-6.6110096-3.5668141-12.7387753-7.755534-16.8496873-14.3280986-1.5793844-2.5251186-3.4166369-4.8883562-5.1192811-7.3372345-1.185786-1.7055523-2.3100248-3.4549387-3.5308603-5.1345058-.3909981-.5379256-.950597-1.0009634-1.5231234-1.3509634-2.3839929-1.4573326-4.7443175-2.9703051-7.2209717-4.2554131-4.294534-2.2284381-7.7321737-5.3155189-9.9812931-9.6019959-3.2965561-6.282728-5.4899229-12.9179602-6.0171546-20.0431445-.1483-2.003947-.0319962-3.9683541.695082-5.8744774.1304943-.3420697.097929-.7872777.0221303-1.1608304-.827782-4.0789159-1.1006464-8.1913759-.6736579-12.3308541.077019-.7466906-.1547135-1.0598867-.7487578-1.3572925-2.8464153-1.4250848-5.1536032-3.4480022-6.7583188-6.2250093-.7148796-1.2371164-1.4822243-2.4493906-2.1132091-3.7284639-2.153578-4.3654533-4.7571671-8.4469903-7.6801274-12.3279424-1.451907-1.9277226-3.2416671-3.4558566-5.3133374-4.7444784-1.5569305-.9684751-2.89852-2.3042095-4.2511259-3.5673697-.4177141-.390061-.6705869-1.0541473-.7968872-1.636575-.2036844-.939352.5001498-1.7505842,1.4610595-1.730754.4756275.0098294.9963482.1511135,1.4112468.384646,1.7534214.9869226,3.2131345,2.3180271,4.4445894,3.9152687.6810775.8834007,1.3707431,1.7813968,2.1800574,2.5412472,4.6783403,4.3924163,8.5879377,9.3820657,11.8724721,14.8884264,2.1009607,3.5221694,4.6025947,6.7193684,8.0651309,9.04036.356548.2389977.7503435.4217654,1.1215137.6397544.543187.3189945,1.1067139.6111769,1.6166379.9773419,1.0821747.7770894,2.162819,1.6467497,3.5604305,1.5669038,1.8860917-.107757,3.7594472-.5296327,5.6432997-.5676583,4.3976239-.0887165,7.9303785-1.888044,10.744468-5.1633032,2.5229029-2.9363533,4.5775022-6.184518,6.2065615-9.7055002.9637706-2.0830916,1.9046212-4.1901324,3.0600931-6.1669887.9515028-1.6278967,2.37432-2.8780008,4.242412-3.4678371.756313-.2388012,1.5170655-.2115303,1.9984933.5362787.4889469.7595296.1569517,1.4252261-.3883366,2.0162921-.1683783.1825018-.3397135.3659606-.53099.5230661-1.6075017,1.3203454-2.5502191,3.0740372-3.4105788,4.9309198-1.3169365,2.8423469-2.7220437,5.6474504-4.1922339,8.4139044-1.0156034,1.9110541-2.2041551,3.7301633-3.2653394,5.5065202.7880975,1.1344173,1.7224125,2.1727762,2.30558,3.3806337,1.3366068,2.7684471,2.6380723,5.5689307,3.7086158,8.4475799,2.3194543,6.2369739,5.748122,11.8386871,9.600957,17.1981154.7904377,1.0995326,1.883116,2.1132429,3.0563325,2.7792017,2.5531054,1.449238,5.3812093,2.2438965,8.2695789,2.7854361,2.4741984.4638517,4.8930051.6556961,7.2904532-.5192349.708049-.3470002,1.7064339-.1992354,2.5590313-.127261.9234295.0779526,1.8395219.3003613,2.7457279.5150192,4.7205283,1.118217,9.3262809.8567942,13.7518971-1.2089537.7870878-.3673789,1.4245031-1.0478105,2.1514663-1.5543596.4690137-.3267847.9698154-.8432784,1.4658633-.8544877,1.9374882-.0437666,3.2284167-1.1583233,4.4387558-2.4310077.5744506-.6040447,1.0062647-1.3427718,1.5719964-1.9565757.2347998-.2547598.6942232-.5239937.9727651-.4573946.3049353.072925.6201393.4890403.7432663.8244456.1165997.3176377.0933454.772246-.050326,1.0823695-.3224206.6959649-.6424001,1.4559389-1.1711896,1.9802798-1.0885124,1.0794041-2.3131912,2.0215107-3.4877409,3.0251585.3389247,1.0088265.9618553,2.1307257,1.0582503,3.2961501.229281,2.7718337,1.3772066,5.1152901,2.8030226,7.4124894,1.441311,2.3221657,2.8303221,4.6735092,3.2361894,7.4725264.1718878,1.1855802.8281479,2.1959237,1.8143029,2.9533042.4680552.3594981.8781994.3575171,1.4537942.1738692.6328077-.2019282,1.4217653-.309768,2.0297846-.111822,1.2647879.411695,2.3387948.032013,3.5194658-.3462061-.4269068-.5880111-.7874798-1.0846579-1.148042-1.581301-.0084847-.053556-.0194563-.1065845-.0328968-.1590315.2475292-.8613453.4950388-1.7227212.7884138-2.7437185-1.0978442-1.2233982-1.8704866-2.9004156-2.1387737-4.7804682-.0610757-.4280173.095125-1.1443342.382503-1.2993137.3549269-.1913938,1.0330556-.0766209,1.4290656.1523123,1.6398443.9478712,2.6795211,2.4451504,3.4674647,4.1644267.4751325-1.514728.4768709-1.49755,2.1952266-1.671828.3380465-.034281.7854938-.1664736.9598743-.4117573.4749289-.6680715.0108074-3.2724787-.6054838-3.8689073-.6814042-.6593705-.7142366-1.3169093.0547287-1.865575.6274824-.4477087.6510334-.9178917.3787895-1.5156978-.1798738-.3950304-.3559364-.7976163-.5884149-1.1619134-2.3554649-3.6911404-5.2664087-6.9174743-8.5281758-9.8060517-1.8001062-1.5941255-3.132162-3.4164064-3.9210357-5.6728016-.3273711-.9363433-.6534332-1.8955393-1.1539587-2.7414687-.3604573-.609195-.9339958-1.3509374-1.5437624-1.5012961-1.3603655-.3355199-2.8184123-.5366513-4.2082405-.4282742-1.9719132.1537489-3.6338528-.2764924-5.0238243-1.665747-.4813191-.4810532-.8494851-1.0765849-1.3377777-1.5490869-.8606653-.832841-1.6533365-1.8523745-2.6867659-2.3694465-3.8101892-1.9064291-7.7073776-3.6390028-11.6185334-5.4586779-.2342136.5523787-.4291763,1.181989-.751815,1.7374522-.6516729,1.1218854-1.2966518,2.2627488-2.0905557,3.2818965-.5742815.737173-1.4519515,1.0917108-2.425521.6892689-.768306-.3175987-1.1732792-1.2606762-1.0306507-2.3994868.0573595-.4579298.1683091-.9246933.346809-1.3487735.4090358-.9718152.9089713-1.9056784,1.3102813-2.8803769.8964049-2.1772098,2.034985-4.3042826,2.5667917-6.5709866.9105673-3.8809586-.2300078-7.4433875-2.6049175-10.6010456-.8089165-1.0755157-1.0620778-2.2455257-.7362633-3.5163679.3234606-1.2616988.7599262-2.4940246,1.1071813-3.7502065.1638542-.5927326.3869885-1.227363.3240827-1.8152771-.5136914-4.799955-2.2338612-9.0971995-5.9853597-12.2563954-3.2189499-2.7106884-6.9984644-4.4906465-11.1048423-5.4828036-3.4720205-.8388965-6.9688863-1.5744927-10.4443387-2.3996827-5.8640596-1.392355-9.8965666-5.0753582-12.3837109-10.4103888-1.1587771-2.4856752-1.9527381-5.1662079-2.6751153-7.822837-.5997676-2.2057706-1.2250957-4.334821-2.5343414-6.256969-1.9962815-2.9308182-3.1012599-6.1718843-3.3378821-9.7574944-.1339011-2.0292266-.6025766-4.054678-1.1090014-6.03359-.2692774-1.052247-.8127467-2.095498-1.4596741-2.9758098-1.0033076-1.3652837-2.2574418-2.5436764-3.301249-3.882394-1.2432807-1.5945544-2.6544744-2.9612029-4.4780874-3.8550991-.8360127-.4097889-1.9062001-.5488949-2.5207702-1.161377-1.3878282-1.3830947-2.850339-1.0009964-4.5060316-.8317314-3.6032117.368343-8.3321849-3.0610909-9.4930571-6.6186794-.1034356-.3169501-.2067703-.6339141-.316785-.9711737-.5246625.3981144-.9676429.7931425-1.4645392,1.101256-2.285726,1.4173597-5.3669401.8489557-6.8625017-1.242695-.5765866-.80639-.6504683-1.7660312-.1453488-2.4386428.5628307-.7495291,1.3376405-.845828,2.1780465-.5949684.6250696.1865837,1.2400048.4080307,1.855911.6239886,1.4235238.499147,1.7040171.4066624,2.5103028-.8553411.1170503-.183179.2340213-.3677553.332945-.5609373.3316876-.6475892.8258287-1.0216935,1.5772414-.8661163.7895599.1634709,1.1266814.7533482,1.1690439,1.4908466.0297968.5185224-.0657723,1.0442447-.1111593,1.6434268.6847375.1683662,1.4066148.2534069,2.0527812.5211661,2.4650164,1.0214404,4.9094632,2.0930677,7.3537415,3.1638445,1.1942653.5231814,2.1493885.0037295,2.4248739-1.254565.1032552-.4715835.386156-.9745339.7367305-1.3040562.4830175-.453991,1.1435022-.712977,1.6644253-1.1341046,1.0383145-.8394253,2.024449-1.7430826,3.0497572-2.5991057.5894806-.4921688.7469513-1.0485142.3613068-1.7224202-.3649749-.6377853-.7982463-1.0134414-1.6579968-.8235859-1.4575401.3218276-2.6366635-.8204647-2.5128267-2.3146828.092077-1.1107833.9729418-2.0243263,2.2444656-2.3037235.6815188-.1497511,1.4469612-.1243645,2.0383309-.4362772,1.4232322-.7506528,2.8478013-1.5470967,4.1200042-2.523017,1.4570043-1.1176822,1.1334475-2.7230399-.5461042-3.5265846-1.2304398-.5886716-2.4133964-.4301272-3.5902001.1283813-.50448.2394162-.985006.541791-1.5077078.727368-.7419898.2633944-1.4376235.1117823-1.9087353-.5558849-.498157-.7059731-.3792156-1.4430696.1630111-2.0559214.3200134-.3617113.7404181-.7021237,1.1845629-.8732653,1.1250162-.4334591,2.2784293-.8047254,3.4424232-1.1197539.4633544-.1253941.6235414-.2685874.6995002-.7679475.1380922-.9082133.2633233-1.8937407.7088697-2.6650898,1.1293494-1.95522,2.457646-3.7943377,3.6576327-5.7104138.6858616-1.0951143,1.5333387-2.1795395,1.8646555-3.3901193,1.2819291-4.6841071-1.3085044-10.5572099-5.5561523-12.8790731-.4228508-.2311373-1.0309584-.3778262-1.4791522-.2663763-2.6373283.6557905-4.4967656-1.0532665-3.8735668-3.7099566.3821587-1.6291026.3254763-3.2167619-.1491106-4.7842447-1.0328282-3.4113298-3.0283437-6.1928717-6.1375394-7.907327-3.2453563-1.7895309-6.6958799-2.6423396-10.310768-.7613543-1.3943976.7255902-2.8577779.2436646-3.7714269-1.0553938-.2138158-.3040276-.3894383-.6356193-.5739329-.9594777-1.6947787-2.9750279-4.2102602-4.3812443-7.6575814-4.019864-1.2361324.1295928-2.4841058.180919-3.7087967.3788218-5.0766735.8204111-9.0469801,3.3333866-11.618002,7.8503168-1.2058332,2.1185152-2.3778561,2.5813534-4.5863453,1.486568-1.9211288-.9523326-3.8033929-.9656987-5.7466067-.1006901-2.2353528.9950417-4.0852213,2.4721784-5.5942151,4.3772572-.355895.4493399-.5820949,1.0014118-.8679572,1.5062193.0532839.0638127.1065677.1276254.1598534.1914326,1.2467458-.50327,2.1170591.0545643,2.9412734.8740821,1.3641015,1.3563477,2.7624259,2.6786165,4.1603296,4.0004241.5622292.5316309.9423523,1.1266417.5887852,1.8933221-.3472695.7529956-1.0597123.933406-1.8138178.8503875-1.9323403-.2127507-3.6920975-.8349983-5.079179-2.2781725-.207803-.2162266-.4332026-.4155782-.7290854-.6977231-.5288629,1.4555483-1.6435533,1.8657791-2.9401505,2.0853783-.7850218.1329511-1.5945176.3484601-2.2866327.7233163-.4675184.253219-.9313413.7936429-1.0847975,1.3001283-.8870975,2.9278941-.5191787,5.6897059,1.5560892,8.0250977.5113961.5754904,1.3970875.8258807,2.1279184,1.1913378.1198671.0599481.329015-.0587395.4969012-.0948497-.0490366-.1896138-.0543244-.4089958-.1579906-.5614946-.1363825-.2006006-.3656493-.3350641-.5281839-.521353-1.2531925-1.4364379-.6557276-3.339073,1.209896-3.7149452.6874129-.1384851,1.4244254-.1224948,2.1294768-.0640617,1.9195234.1590666,3.8344681.3749064,5.750482.5751088,1.3092185.1368121,2.4487347-.260057,3.4758185-1.0550014.4198801-.3249631.6388996-.605904.2056266-1.1314248-.5805851-.7041615-.7064345-1.5390729-.2054426-2.3444115.526986-.8471295,1.3644461-1.0238527,2.2896999-.8485438.9763093.1849816,1.9562757.3633592,2.918231.6088448,1.9871077.5070975,3.9006591.3453885,5.6929528-.6458407.9742029-.5387873,1.8675986-1.222896,2.8026098-1.8335215.7784746-.508346,1.5184437-1.1199185,2.3660404-1.4600314.44439-.1783191,1.2926616-.0575517,1.5791969.2650786.3262979.3673926.2901487,1.1103982.2899218,1.6901176-.000102.2671291-.2564203.5617889-.4527205.7971242-3.3017924,3.9583725-7.2249041,6.5563871-12.6858012,5.7099035-.5011911-.0776853-.7421263.0498095-1.0343006.4950058-2.00645,3.057318-6.1823117,6.650227-11.2010076,5.1627688-.712516-.211176-.950776.0479405-1.2100316.6827086-1.6473622,4.0333462-1.9262323,8.1863795-1.2824126,12.4554011.1499162.9940692.5239169,1.7990708,1.1374153,2.5892666.597492.7695399,1.2151737,1.6366207,1.4461953,2.555824.6502264,2.5868059.1248622,5.0780676-1.2412853,7.3361087-.4243547.7013823-.4972105,1.2591819-.4703653,2.0701211.0443795,1.3401749.4305911,2.1710012,1.6830346,2.697879.7557397.3179311,1.1015559,1.0522411.7983997,1.8685134-.2965682.7985387-.9953478,1.0653163-1.8151352,1.0051363-1.4675359-.1077242-2.3911576-.9170433-2.9645022-2.2490645.318013,2.0714628,1.2783833,3.8619515,2.4026142,5.5844445l-.0198699-.0376288Zm65.9860474,108.7165235c-.9832507.095835-2.010314.1429684-2.9699954-.0378375-.8790961-.1656555-1.695794-.6665069-2.5373105-1.0259427-.4680884-.1999203-.9307518-.4125471-1.6149238-.7169179.0565824,1.6116793.1060435,2.9927887.153355,4.3739628.0839312,2.4504612.1631453,4.9010785.2551713,7.3512062.0090736.2417619.0516314.4993935.1494551.7179619.7550441,1.6867515.9570843,3.4735699.9018291,5.2869883-.177821,5.8364154,1.1887793,11.3506651,3.5279535,16.637126.8262459,1.8673258,1.8613326,3.6546031,2.9292885,5.3999858,2.3005976,3.7599341,5.9408594,6.0853673,9.5682663,8.2745982,2.6431527,1.5952091,4.8716293,3.4780414,6.7114398,5.9170362.4881868.6471534,1.2525657,1.0799271,1.8533858,1.6498827.5780144.5483292,1.1842986,1.0921284,1.6462612,1.7329892,1.7256788,2.3939372,3.4093468,4.8185443,5.0864138,7.2470926,3.2764855,4.744587,7.624669,8.249963,12.734127,10.7990113,5.8658332,2.9263856,11.6983519,5.9599564,17.7411918,8.4766857,3.9286573,1.6362067,8.2081269,2.4289596,12.3275268,3.6097024.5221024.149638.7641555-.0106074.9724262-.5188639.449069-1.0958603,1.2374993-1.6022983,2.1123493-1.4801309.9186657.128268,1.6350059.8666771,1.7417691,2.0321539.0899893.9823391-.0149548,1.9817632-.0182314,2.973648-.0058542,1.7644574-.0953039,3.5355358.0259,5.2916841.1388617,2.0118791.3848789,4.0259167.7464434,6.0094476.230466,1.2642902.7548224,2.4750526,1.1482606,3.7095728.3197441,1.0032626.6258666,2.0112121.9654061,3.0077454.347846,1.0209142.6180724,1.9944337,2.0240845,2.2200244.8544964.1371221,1.6123792.8808374,2.4118587,1.3551043.4935037.2928255.9130462.3200193,1.4556775-.0294143.4286347-.2760158,1.0327805-.3126356,1.568459-.3782574.393016-.0481769.8055292.076143,1.2021017.0412166,1.2375239-.1089621,1.9892171-.9657591,1.8729583-2.1942222-.0816851-.8632103-.2753878-1.7161148-.4260207-2.5724033-.2761166-1.569539.047331-3.0158587.8378139-4.3875117.3869123-.6713878.734914-1.3695004,1.0458955-2.0794162.5604709-1.2794513.6771461-2.5500085-.0496571-3.8437459-.4846399-.8626151-.9024239-1.7726502-1.2537323-2.6980422-.5643259-1.4865097-.3132257-2.8851311.4361806-4.2962159.5125102-.9650383.8998686-2.0548654,1.0697285-3.1320347.4233742-2.6847364-1.3113523-4.3227431-3.133962-5.8509048-.9032607-.7574113-1.8457768-1.4701881-2.7942139-2.1710999-2.42673-1.793377-4.4321625-3.9901777-6.1250602-6.4669585-2.4862063-3.6375831-6.0655806-5.7159286-10.1879-6.7216274-2.7043657-.6597946-4.4413438-1.8398484-4.8922666-4.6795739-.1444616-.9097812-.5411203-1.7809445-.8362258-2.6651434-1.6334186-4.8939457-5.0012033-7.8174735-10.0550111-8.7897545-2.6767307-.5149762-5.3616216-.9882172-8.0456667-1.4642729-1.0407922-.1846183-1.670021-.8051706-1.9202003-1.7910561-.19821-.7810569-.2774938-1.5915953-.4584687-2.3778212-1.0469471-4.548523-3.290354-8.4205798-6.6273046-11.6726442-.7553344-.7361438-1.5675327-1.4404257-1.5239263-2.6584083.0062114-.1731588-.2515332-.4072033-.4412297-.52829-3.5370461-2.2575337-5.9501293-5.4990063-7.9683599-9.0841311-2.2512144-3.998999-3.8592896-8.2648229-5.3368825-12.5984767-.8396163-2.4624669-1.8402278-4.8796118-3.4637883-6.98729-.5768845-.748911-.9211336-1.6770071-1.4338266-2.6402252-3.8843523,3.0243458-8.4219355,3.9669215-13.1088132,4.4238088Zm.7311709-109.8390448c-1.601078,2.304483-4.0302955,3.2199217-6.9488798,2.7890823-.1776193.5240076-.3606548,1.0639941-.5602938,1.6529635,3.37406,1.4245856,6.6610062,3.0121931,8.9313405,6.0540446,1.2405087-.766309,2.3755202-1.6804241,3.6684852-2.2057851,1.2719399-.5168125,1.7527373-1.2834973,1.7310698-2.5607378-.052592-3.1001925-.0723871-6.2009643-.1262609-9.3011344-.0107678-.6192744-.1297848-1.2358849-.1720126-1.8555452-.0955062-1.4019822.4287279-2.4961896,1.6826396-3.1769949,3.2055137-1.7404313,5.7117484-4.2648177,7.9365347-7.0936476,2.2612293-2.8751328,3.5437107-6.121117,3.4661252-9.8203904-.0618644-2.9492821-.1755218-5.8976921-.2892014-8.8456108-.0591364-1.5338203.5070483-2.7218576,1.6299546-3.7865862.72116-.6838224,1.4021353-1.5734435,1.7068253-2.5004189.7251287-2.2061396,1.3248982-4.4679402,1.7711491-6.747224.4479729-2.2880523-.0988171-4.4292485-1.5147258-6.3377729-1.0777242-1.452644-.9551005-2.6618439.5503039-3.5576776,2.5559502-1.5209704,3.613126-3.8923905,3.9305354-6.6310643.3602624-3.1088038.569801-6.2409954.6879385-9.3689475.0456093-1.2078974-.2585111-2.4520544-.5516869-3.643174-.288171-1.1707758.0019391-2.0336725.8582836-2.8435977.4736798-.4480052,1.0056423-1.0207876,1.1289419-1.6164749.3180355-1.5366728-1.2062819-2.9708226-2.7684118-2.6018037-1.0729238.2534634-2.1547732.6624175-3.1019157,1.2227979-5.175296,3.0618639-9.455364,7.0837688-13.0130364,11.95371-3.1487952,4.3102556-5.6399022,8.9944313-8.3254806,13.5755439-1.0616532,1.8110404-2.4280011,3.4453712-3.6833811,5.1395905-.3141378.4239575-.5138686.7798473.1369725.9832445,8.0467143,2.5148067,11.3941598,11.6204597,9.9667081,19.2881158-.2945235,1.5822107-.7309792,3.1477943-1.2274702,4.6804061-.8176504,2.5240624-2.6894229,4.282786-4.5935147,5.9974851-.2494297.2246171-.4982402.449961-.7925098.7157929,2.1022319,1.9434796,3.6366874,4.1267139,3.030225,7.1220008-.6195773,3.0599374-2.9979894,4.2188538-5.7686071,4.9034466,1.3886399,2.8339995,2.5573036,5.6327314.6233559,8.4163633ZM21.2159042,206.6213397c.9869593-.4980462,1.9116671-1.0094759,2.4901215-2.0014952.3563918-.6112428.2245725-.9097092-.4880238-.9726231-1.4855188-.131202-2.835422.176647-3.9842117,1.1762363-.9168677.7977556-1.8156891.8733562-2.4806273.208532-.6340541-.6338721-.5014503-1.5566759.1724121-2.5165958.7710691-1.0983879,1.4212846-2.2816169,2.1240057-3.4279593-.0957252-.0918063-.1914288-.1836054-.2871324-.2754044-.27733.1297517-.6260457.1928486-.8199503.4004765-.9863199,1.0563435-2.038233,2.0752589-2.868548,3.2479285-1.3057892,1.8442826-2.4539658,3.8002192-3.664273,5.7117753-.0605565.0956672-.0777616.2187711-.1390147.3994783,3.3422964-.7385406,6.8219922-.3743068,9.9452419-1.9503489Zm31.7702886-47.2597154c.605909-.3314709,1.2296731-.636959,1.808584-1.0117686.1681531-.1088181.2557202-.4070171.2980747-.6337509.1736721-.9294148.3156494-1.8647646.4859351-2.8990914-2.1556262,1.3134218-3.2024724,3.2822123-2.5925938,4.5446109Zm7.2619119,3.6741373c1.4368524-1.0447545,2.8522541-3.1241791,2.8877848-4.0730352l-.2838991-.201462c-.8219198,1.3492647-1.6438612,2.6985222-2.6038857,4.2744972Z" stroke-width="0"/>
        <path d="m202.14009,132.8126667c1.5936968.2458136,3.1797195.5739173,4.7824077.723306,7.2586198.6766049,14.4899826.4080504,21.5928694-1.263348,8.1272265-1.9124619,15.1085621-5.9193636,20.7794172-12.1103577.0628678-.0686182.1377764-.1347418.1755277-.2165737.8128152-1.7621181,2.2196738-1.7213256,3.8713327-1.4682345,5.1641288.7913649,10.3499495,1.3092512,15.5901587.7843114,2.8900136-.2895065,5.5884045-1.1506213,8.1614588-2.4572802,2.0786427-1.0555956,3.6186515-2.6242699,4.4121299-4.8354424.2317776-.6458733.6587887-.7080233,1.2081262-.7679453,4.2830511-.467214,8.4999273-1.1871064,12.3340597-3.3258643,2.9526887-1.6470669,5.5746578-3.727938,7.9777832-6.0914247,1.0856489-1.0677468,1.8443772-2.3324372,2.1703582-3.8404547.6181463-2.8596019-1.5404606-5.952927-4.2439118-5.9807272-.5861434-.0060287-1.2465232.1845401-1.749185.4887039-1.1857335.7174868-1.0951102,1.8595456.1259304,2.5060552,1.3613526.7207925,1.720461,1.9109073.6721142,3.0240611-1.0079229,1.0702497-2.1825079,2.0488401-3.4416233,2.8050194-3.8286626,2.2993895-7.9296256,3.8288572-12.462689,4.0444285-1.3557609.0644725-2.7184282.3078425-4.0426728.6192198-1.2972724.305037-2.2077209,1.1490369-2.4273576,2.5320577-.0654218.4119579-.0093407.8793575.120012,1.279682.4916508,1.5217514.2944262,2.6142036-1.0328888,3.5354284-1.0032484.6962904-2.1553596,1.2486235-3.318213,1.6306823-2.9948571.9839834-6.0710037.8301296-9.132803.3266918-3.860166-.6347208-7.7103885-1.329914-11.5700044-1.9680666-2.5584081-.4229872-3.3601368.2164137-4.4687541,2.4982297-.642193,1.321772-1.6825728,2.5822854-2.8371405,3.5021051-9.5696154,7.6239305-20.3978941,10.6901666-32.5537438,8.6877611-2.7571674-.4541765-5.4994132-1.0063499-8.2646667-1.4000014-.9620454-.1369497-1.9941268-.0422437-2.9565153.1427292-1.5628989.3003956-2.6063331,1.3811474-2.7568419,2.6743154-.1810895,1.5559523.7026882,2.5056568,1.9375903,3.2121669.4284881.2451471.8999571.4151634,1.35179.6194909-.0013565.0297486-.0027059.0595117-.0040554.0892747Z" stroke-width="0"/>
        <path d="m108.8566416,163.7032199c.0165373-.1490789.0598509-.3917639.0675285-.6355651.0266917-.8455397-.2290535-1.5566877-1.0894046-1.8609129-.8530485-.3016537-1.5251312.0672987-2.0330391.7367173-.2792117.3679444-.4985792.7867307-.7078019,1.2013346-.7839632,1.5535509-1.837005,2.875322-3.280071,3.86592-2.9608214,2.0324519-6.148165,3.510965-9.7624965,3.8918991-.7524352.0793005-1.5199107.0160082-2.2690191.0183969-.0145533-.21751-.0407314-.2877379-.019339-.3375857.3044285-.709805.5811138-1.4366351-.1720805-2.030039-.7121574-.5610539-1.4977249-.3671978-2.1886878.0232674-.4970861.28087-.9980745.6655999-1.3177627,1.1281322-.8437565,1.2207647-.3615697,2.7039068,1.0443808,3.1690764,2.689124.8897563,5.4942967.9879667,8.1838545.2973188,2.8734417-.7378521,5.6748117-1.8166672,8.4240364-2.9495328,1.164832-.4799952,2.1164076-1.4774571,3.2834489-2.3259122,1.9283305,1.3033126,4.2191522,1.054341,6.5710367.8629715,3.5552716-.2893275,7.1394668-.2284202,10.6931966-.5303634,8.1076368-.6887668,15.3426821-3.7031048,21.8407612-8.5503709.3482198-.259734.7422287-.4970952.999714-.8331439,1.6682279-2.1776691,4.1101883-2.8671357,6.5644069-3.7166762,9.9129912-3.4314203,18.611719-8.8174892,25.704439-16.6204857,1.1785062-1.2964933,2.1342398-2.8134939,3.0659388-4.3077478.3925184-.6295182.6011889-1.4609283.6192708-2.2071971.0129424-.533751-.3057251-1.2096331-.7012208-1.5858038-.5141375-.489028-1.1856666-.1854016-1.6934614.227494-.504516.4102445-.9853243.8552353-1.43927,1.3212684-4.6277827,4.7511766-9.6797817,9.026928-14.9140336,13.0772503-3.2326093,2.5014116-6.9306478,4.252287-10.6614124,5.9014683-.9662452.4271482-1.928978.862375-2.8903035,1.3005431-1.7359291.7911824-3.2118804,1.8489373-4.5366548,3.2984868-2.6977195,2.9518426-6.1274314,4.9251551-9.8082103,6.4553117-6.3489882,2.6394188-12.9696924,3.5471382-19.7969779,3.064727-1.0778682-.0761597-2.1415316-.3555856-3.2113098-.543562-1.4843234-.2607663-2.9682605-.523878-4.5694566-.8066854Z" stroke-width="0"/>
        <path d="m243.3084246,106.8003706q.6167655-1.8727604,2.5119853-1.8719402c5.9596716-.0137367,10.6709906-2.7132459,14.6395314-6.911634,1.5583709-1.6486278,2.032155-3.8152595,2.3587619-5.9801012.1003796-.6653488.370086-.8132156.9810972-.9338,5.5581415-1.0969103,10.5532401-3.4571127,14.9430708-7.015402,2.0998128-1.7020662,3.3338371-3.9735778,3.0457816-6.7682549-.0925483-.8977982-.5414672-1.8344287-1.0633034-2.590411-.487767-.7066586-1.3822233-.8135937-2.2056875-.4575774-.8404672.3633737-1.2908119,1.1096556-1.1111159,1.9583472.4973322,2.3487411-.7540253,3.8021397-2.4382424,5.0180753-3.2181378,2.3233534-6.8050353,3.8351091-10.680237,4.681413-.7868025.171824-1.5730299.3751453-2.3308479.6445944-1.3664789.4858731-2.1266058,1.4523267-2.145776,2.9454073-.006763.5274009-.0483207,1.0542532-.0682221,1.5815823-.0866289,2.2956152-.9881028,4.2059145-2.7171259,5.7179128-2.1140589,1.8487122-4.506342,3.1982779-7.2277546,3.9203094-1.1699108.3103903-2.3486312.6485438-3.5449408.7857328-2.4406735.2798952-3.9232319,1.5399215-4.4560613,3.931957-.6325359,2.8396021-2.4358992,4.7530582-5.0189399,5.8411105-1.5526559.6540354-3.2655126.9358408-4.9163825,1.3445492-.6297577.1558884-1.2899527.1846409-1.9318584.2966104-1.2951982.2259336-2.3575491.856427-2.9703786,2.0322055-1.9261685,3.6955389-5.0134813,4.8224857-8.964521,4.2208048-1.1624698-.1770218-2.3521675-.1704823-3.527023-.2746847-.2557571-.0226932-.4973035-.1757921-.7527159-.239576-.3288605-.0821167-.6853071-.2400954-.9944305-.1807801-1.0043553.1927099-1.9930201.467792-2.9868556.7145793-1.2626564.3135249-2.0068145,1.0988155-2.0883206,2.1980597-.0787992,1.0630293.5622597,1.9967561,1.8385928,2.3872288,4.8899281,1.4960413,9.6827173,1.4153648,14.2775219-1.070984,1.8980611-1.0270704,3.2651942-2.5504468,4.0755768-4.5604783.0232283-.0576402.0539596-.1131939.0697489-.1727546.526388-1.9861947,1.7927563-2.827127,3.8615662-3.0989775,2.032006-.2670036,4.0721085-.9004716,5.9632469-1.7119983,2.9054476-1.2468094,4.5828472-3.3707859,5.5742592-6.3811257Z" stroke-width="0"/>
        <path d="m313.7002296,94.1413867c2.2192507.6291927,4.4573877.8630499,6.7472203.8483963,1.9242874-.0123048,3.8517984.0733171,5.773783.1856694,4.6774806.2734586,9.3106801-.0892226,13.9236852-.8495591,2.8888786-.4761545,5.6191133-1.4188017,8.0636501-3.0158296,1.9978175-1.30518,3.9461952-2.7131395,5.7652091-4.2541194.9903868-.8389981,1.7105051-2.0191905,2.4585565-3.1099338.2570105-.3747485.3610756-.9656891.2903952-1.4197897-.0600316-.3856686-.4050408-.8718708-.7502654-1.0208167-.2598806-.1121137-.7247753.2281061-1.0873897.39144-.1033906.0465701-.1545265.1976071-.2527807.2687698-4.6369117,3.3584644-9.2233283,6.7057177-15.2801907,7.1789449-6.4439769.5034619-12.7822226-.2110794-19.1183071-1.1226313-2.5852825-.3719322-5.1387275-.3074319-7.70457.020114-.4581738.058493-.921176.1708437-1.3514485.337197-.9026596.3490004-1.5087088.9864749-1.6134348,1.986532-.1045124.9980618.3186328,1.8083559,1.1649661,2.269973.9461985.5160835,1.9769628.8771229,2.9709214,1.3056432Z" stroke-width="0"/>
        <path d="m226.9657531,100.7869323c.196526-1.0254924.3229355-1.9842105.5791507-2.9068751.1471447-.5298896.3867056-1.1529416.791622-1.4683715.9197686-.7164489,1.9336975-1.3334957,2.970423-1.8737075,1.9271825-1.0042167,3.9498101-1.8327804,5.8403041-2.8983822,4.5416964-2.5599711,6.7796823-7.2281949,5.909655-12.1407424-.12337-.6966123-.3573463-1.3829332-.6174259-2.0435963-.3009296-.7644558-.908882-1.2072982-1.7461916-1.1311686-.8870455.0806501-1.2688333.7293305-1.3654111,1.53312-.1813476,1.5091217-.2698139,3.0306317-.4871177,4.5339426-.3649343,2.5245991-1.640082,4.472009-3.9241926,5.6703672-1.3460861.706228-2.7258991,1.3513416-4.1099661,1.9812373-2.234219,1.0168052-4.0727055,2.5110048-5.3948934,4.5702036-.3995414.6222211-.6997754,1.4230634-.7241065,2.1528009-.1644092,4.9315712-2.7419969,8.2547319-6.9271066,10.4666989-3.0659038,1.6204236-6.4227003,2.2697108-9.8507025,2.5968648-2.6119446.2492482-4.7103712,1.4915173-6.3833021,3.4644277-.4146254.4889778-.7100605,1.0862867-1.0144504,1.6582014-.1421467.2670766-.2025994.5877736-.2524598.891974-.1712835,1.0451078.2338403,2.0067846,1.071751,2.4947394.9078396.5286917,1.82156.4321522,2.6149689-.2037338,3.3556819-2.6894132,7.1557885-4.5782388,11.0851912-6.244175,4.3656034-1.8508778,7.9995308-4.6161434,10.6159542-8.6141303.5228559-.7989494.9010529-1.6925519,1.3183064-2.4896953Z" stroke-width="0"/>
        <path d="m149.0776629,75.5825467c2.3841866.6902148,4.9722402.7541621,7.4926152-.2248014,2.7578917-1.0711939,4.6591018-2.9784704,5.0739116-6.0227207.3195413-2.3452176-1.6339643-4.8031447-3.9871302-5.0189475-.65472-.060029-1.4464816.1477033-2.0028208.5028765-1.0847769.6925046-.9992408,2.0612715.0595602,2.7973447.1525001.1060262.3315074.1752019.4789167.2869554,1.1827455.8966956,1.2503633,2.4854292.1150979,3.2205638-2.2869836,1.4809325-7.6611664.9454065-8.702474-3.3628912-.2879532-1.1914199-.1168469-1.4470455,1.079328-1.5839436.3982447-.0455871.8074964-.0807356,1.2038388-.0413429,1.187559.118041,1.8796216-.5168924,1.8229656-1.71687-.0678461-1.4368432-1.3066912-2.7453122-2.9295146-3.0941122-2.6922314-.5786518-5.0899233,1.0238388-5.7672219,3.8545308-.9831771,4.1090011,1.8423457,9.090024,6.0629276,10.4033583Z" stroke-width="0"/>
        <path d="m173.0964377,47.4663929c-1.49489-.3764125-2.6228777.300724-2.6835366,1.805947-.0393208.9764215.0964734,1.9840657.3135797,2.9414847.4186078,1.8461144.9386093,3.669787,1.4388944,5.4966576.4259128,1.5553236.4531223,3.063963-.3854077,4.5076952-.5833919,1.0044581-.8997219,1.0806723-2.0430244.8381666-.4455085-.0945009-1.2607975.0072384-1.3759182.2609006-.1776143.391359-.0562952,1.1051572.2159972,1.4809423,1.0667021,1.4722524,2.9685474,1.8571732,4.7786351,1.0086407,2.7761891-1.3013579,4.1801782-3.6313191,4.629677-6.5615798.6123656-3.991853-.8761041-7.3801946-3.2510862-10.4498665-.4188265-.5413299-1.0855485-.8908685-1.6378103-1.3289884Z" stroke-width="0"/>
        <path d="m148.2768706,60.2534257c1.9604877.5552034,4.1628455.3041462,6.1132436-1.2640938,1.5707235-1.2629466,1.9808122-3.4870389,1.0167997-5.2211763-.7646897-1.3755792-2.1995309-1.7899867-3.5807111-1.0931059-.6252511.3154783-.7859376.7346335-.5622968,1.359276.0732294.2046301.2255492.430275.1886518.6158719-.116481.5859267-.1368432,1.3509444-.514138,1.6797159-.3719719.3241326-1.1927376.3954298-1.7135186.2375847-1.5796371-.4787604-2.9626092-3.3933861-2.4201217-4.977363.0917137-.2678052.4820352-.5484052.7780858-.6086958.7596841-.1547325,1.299197-.485515,1.3396536-1.3003818.0403127-.8116759-.3952281-1.3554017-1.1559568-1.6112352-1.1248955-.3783049-2.0823379.0064183-2.9232665.7371735-.9805616.8521075-1.4785291,1.9823073-1.7089065,3.2339177-.6191007,3.3635896,1.5086871,6.9721586,5.1424814,8.212512Z" stroke-width="0"/>
        <path d="m160.9585377,80.2611724c1.3199116.157326,2.7610669.4796962,4.1994633.4677688,2.6224693-.021768,4.6432102-1.2410362,5.5683627-3.7513728.5269365-1.4298636.8177712-2.9860132.9445881-4.5078188.0654739-.7859694-.2910842-1.736834-.7534627-2.4093425-.8872275-1.2904752-2.2919927-1.0461805-2.8656519.416338-.3499464.8921794-.5269292,1.8568952-.9194828,2.7268187-1.3958755,3.0931753-2.7897261,3.9092155-6.2003874,3.7376596-.4642401-.0233517-.925922-.1040413-1.3901057-.1200412-.6104335-.0210239-1.3250982.0331656-1.3993372.7483903-.0463878.4468751.2489186,1.0813846.6027638,1.3835374.5974863.5101758,1.3630924.8234694,2.2132498,1.3080624Z" stroke-width="0"/>
        <path d="m126.3678907,74.4533303c-.8046771,1.3475483-.6378507,2.0390864.5558228,2.6970735,1.8632865,1.0270839,3.3445723.7346423,4.0983776-.808383.4579943-.0763868.9644777-.0592117,1.3576236-.2618968.2905685-.1497989.590703-.5850724.592685-.8950557.0015957-.2506832-.442056-.7286333-.676385-.7214158-2.1754471.0668354-3.6825955-1.3711536-5.379208-2.3427509-1.0351632-.5928141-2.030585-.7491432-3.100244-.2752945-.641073.2839939-1.0729616.7794295-.9358899,1.5441383.1390532.7758146.695907,1.051298,1.4283908,1.055824.6463306.003993,1.2926872.0050015,2.0588272.0077609Z" stroke-width="0"/>
        <path d="m105.7301718,124.0715891c-.5510888-.0863765-1.2191709-.2926728-1.8800041-.2715414-1.0682125.034159-1.5942964.8406812-1.3447911,1.8686998.4676197,1.9267147,3.5771454,3.7407004,5.488195,3.1920875.7415003-.2128684,1.2663794-.678719,1.3978611-1.4594078.1303159-.7737032-.1489251-1.4312806-.8303893-1.8275467-.8807813-.5121992-1.7994241-.9592287-2.8308716-1.5022912Z" stroke-width="0"/>
        <path d="m118.1823303,90.0183206c.5192342.2544013,1.0562584.4792992,1.5495698.7766995.2186489.1318141.4433233.3869971.5021782.6263035.1980578.8054437.6466108,1.3492947,1.4584568,1.5082989.8419677.1648989,1.5184592-.1447147,1.9978232-.8700048.1358665-.205567.2954986-.3956374.4475321-.5902428.560635-.7175886.6090187-1.4359035-.1014989-1.9624306-.9594476-.711003-1.9861199-1.4109299-3.0926796-1.8248162-1.5869767-.5935713-2.8249496.5660665-2.7412408,2.3743699-.0002708-.0005486-.0201407-.0381774-.0201407-.0381774Z" stroke-width="0"/>
        <path d="m124.2090888,70.7683023c.3249585-.1977053.6262676-.4772831.9789167-.5792205,1.6903292-.4886992,3.2307553-.0772516,4.6855518.8436453,1.0450904.6615485,2.0827273,1.3553709,3.1961106,1.881477.7638782.3609476,1.6436273.52418,2.4899759.6343783.2541491.0331111.5701889-.4092246.8578881-.6337562-.2312051-.2801041-.4244808-.7569354-.6994786-.8099638-2.8256799-.5450531-5.2095919-2.1272791-7.7726981-3.2741203-1.4321318-.6407856-2.7631791-.6891545-4.0623116.1344932-.3539853.2244698-.7055855.7745519-.6910065,1.1613604.0126655.3366339.5434558.6537584.8452851.9794993.0572543-.112594.1145123-.2251987.1717667-.3377927Z" stroke-width="0"/>
        <path d="m84.9106067,142.7175328c.8797157.0915526,1.7551993.3208482,2.5896302.2177477.5019265-.0620123,1.1242412-.5478479,1.3612859-1.0122599.3189031-.6247675-.1588566-1.2109027-.7461428-1.5120042-.5160001-.2645807-1.1005819-.3971225-1.6577242-.5792656-.626468-.2048005-1.2517473-.5321234-1.8859133-.5531377-.4291557-.0142242-.9767715.314575-1.2859891.6572744-.4868233.5394796-.4616613,1.260413.0680966,1.7702426.4310751.414833,1.0157709.6700262,1.5567566,1.0114027Z" stroke-width="0"/>
        <path d="m72.4564038,151.1254961c-.1359614-.6496775-.1046842-1.4081705-.4421556-1.9267263-.7363244-1.1313652-1.6508162-2.1484836-2.5166212-3.1922778-.14755-.1778679-.4173624-.3627986-.6262697-.3578791-.3882751.0091533-.886386.0456525-1.1191655.2846285-.1501947.1542135-.0015233.7438396.1752766,1.0423102.3757462.634308.9509631,1.1606044,1.2680112,1.8164397.2927709.6055333.4334701,1.3149977.4977995,1.9923006.0703326.7403076.1931626,1.3696425,1.0271983,1.5468067.6623332.1406971,1.3180244-.3699117,1.7359265-1.2056025Z" stroke-width="0"/>
        <path d="m275.0903911,243.6002933c-.0084847-.053556-.0194563-.1065845-.0328968-.1590315-.7402996-.7632635-1.3810785-1.6786838-2.2491712-2.2467224-.8538687-.5587214-1.4318059-.1176834-1.416708.9095923.0174215,1.1853443.5653591,2.1580328,1.4746428,2.8870007.8063329.6464207,2.2121151.2875753,2.2241332-1.3908391Z" stroke-width="0"/>
        <path d="m171.2102545,178.7331621c.9940001.3206772,2.0005917-.1063065,2.312406-.9808903.3119529-.8749215-.2326758-1.8491089-1.2189324-2.1803603-1.0106567-.33945-2.1685286.1638448-2.4625505,1.0703765-.2735489.8434378.3220895,1.7531016,1.3690769,2.0908741Z" stroke-width="0"/>
        <path d="m188.9372651,36.1994623c.0667291.2826059.0364999.8072096.2695086.9830491.3207826.2420929.9176619.4117644,1.259698.2738274.8215915-.3313412,1.6843023-.7327822,2.3159013-1.332043,2.2247055-2.1107369,4.4220278-4.2580731,6.5111202-6.5019591,2.4077817-2.5861576,4.6790502-5.2990499,7.0401474-7.9294792.2867826-.3194945.7409009-.5283578,1.1566042-.683824.7365345-.2754583,1.3307885-.7444016,1.3016294-1.5163841-.0220246-.5831567-.2898102-1.2831826-.690894-1.6946444-.5269893-.5406232-1.3645734-.5612795-1.9832533-.0895716-.70504.5375351-1.357947,1.1765358-1.9162777,1.8663319-1.0710089,1.3232841-1.9179938,2.8545173-3.109548,4.0483593-2.9996006,3.0053606-6.1573651,5.8521793-9.2106883,8.8050223-.8425474.8148273-1.5528307,1.7689953-2.2983612,2.6800458-.2319114.2833688-.3801409.6352043-.6455867,1.0912697Z" stroke-width="0"/>
        <path d="m190.5726277,67.1457417c.8498447-.3482343,1.7105248-.6724024,2.5474281-1.0493415,2.2587478-1.0173201,4.2658987-2.4185687,6.0229583-4.1547792.4448981-.4396247.7923685-1.0344778,1.0202658-1.6217724.2474326-.6376217-.0210406-1.2314269-.6315356-1.5876132-.6364532-.3713142-1.2703222-.3186602-1.7885247.2165781-2.3073542,2.3832196-4.6042118,4.7766807-6.891608,7.1790408-.2128247.2235134-.3325668.5356354-.4955099.8066139.0721766.070421.1443532.1408419.2165261.2112737Z" stroke-width="0"/>
        <path d="m196.2068218,51.8254098c1.7500526-1.8057582,3.467619-3.5613538,5.161275-5.3397497.3367691-.3536215.6463999-.7641407.8533572-1.2027729.2864281-.6070515.2393001-1.2483575-.3614117-1.6621314-.5974345-.4115271-1.1818657-.2396676-1.6805669.246975-.132232.129024-.2524536.2733284-.3612876.4229053-1.2012425,1.6504702-2.4033443,3.3003547-3.5963402,4.9567817-.6643193.9224039-.6557759,1.7059828-.0150258,2.577992Z" stroke-width="0"/>
      </g>
    </g>
  </g>
</svg>