<?xml version="1.0" encoding="UTF-8"?>
<svg id="Layer_2" data-name="Layer 2" xmlns="http://www.w3.org/2000/svg" viewBox="0 0 314.3210866 309.3885902">
  <g id="Layer_1-2" data-name="Layer 1">
    <g>
      <path d="m312.381924,171.5681185c-.6181641-2.1728516-1.2568359-4.4208984-1.8295898-6.6474609-1.4677734-5.7070312-3.6503906-10.3779297-6.6733398-14.2802734-.4277344-.5517578-.5175781-1.5058594-.3564453-2.109375.7573242-2.8447266.2646484-5.4101562-1.5063477-7.8427734-1.581543-2.171875-3.7734375-3.8388672-6.7026367-5.0957031-3.0244141-1.2988281-6.2958984-1.9287109-9.4604492-2.5380859l-1.5180664-.2958984c-1.0166016-.2011719-2.0400391-.3867188-3.0644531-.5732422-3.0942383-.5605469-6.2944336-1.140625-9.2939453-2.1796875-7.4453125-2.578125-13.8935547-6.9257812-18.6801758-10.4248047-1.0009766-.7314453-1.8710938-1.5009766-2.5864258-2.2880859-.4863281-.5341797-.8637695-1.296875-1.0102539-2.0380859-.1513672-.7705078-.2470703-1.5585938-.3393555-2.3203125-.1054688-.8691406-.2143555-1.7666016-.40625-2.6220703-1.7714844-7.9023438-4.8481445-14.2138672-9.4057617-19.2958984-3.909668-4.359375-6.8027344-9.6816406-8.5986328-15.8193359-.0722656-.2480469-.1289062-.5-.1889648-.7666016l-.1987305-.8486328h.4667969c.0883789,0,.1586914-.0039062.2163086-.0068359.1308594-.0087891.2431641-.0136719.3691406.0292969,3.4116211,1.1191406,6.5634766,1.1933594,9.6313477.2255859.4311523-.1357422,1.09375.0058594,1.4428711.3115234,1.6894531,1.4824219,3.315918,2.9697266,4.8344727,4.4208984,1.0913086,1.0439453,1.6367188,2.3867188,1.6220703,3.9902344-.0185547,2.0166016.5209961,3.7666016,1.6040039,5.203125,2.3632812,3.1367188,5.1166992,5.0253906,8.4189453,5.7744141,3.7529297.8525391,6.5957031.2861328,8.6870117-1.7304688,4.0488281-3.9003906,6.1123047-7.7275391,6.4936523-12.0458984.4643555-5.2529297-.4819336-9.0703125-3.0683594-12.3789062-1.9033203-2.4345703-4.2915039-4.4287109-6.6005859-6.3574219l-1.0053711-.8417969c-1.7387695-1.4638672-2.9189453-3.1591797-3.6083984-5.1816406-1.1411133-3.3476562-2.3583984-6.640625-3.6181641-9.7861328-.4804688-1.2011719-1.2470703-2.3144531-1.9887695-3.3916016-.1845703-.2685547-.4824219-.4863281-.7978516-.7158203-.2084961-.1523438-.4174805-.3056641-.6040039-.4765625-.3149414-.2900391-.6191406-.5908203-.9233398-.8925781-.3017578-.2998047-.6035156-.5996094-.9169922-.8867188-.4951172-.4541016-1.0048828-.8925781-1.5146484-1.3310547l-.9467773-.8203125.6357422-.7753906.5927734.3144531c.2382812.1240234.4760742.2480469.7075195.3837891,3.8554688,2.265625,7.699707,3.2285156,11.7495117,2.9453125,2.8295898-.1982422,5.6152344-1.1923828,8.7675781-3.1289062.5258789-.3232422,1.090332-.9189453.7915039-1.9238281-.2250977-.7558594-.7817383-1.1269531-1.7529297-1.1660156-.581543-.0224609-1.2055664-.0400391-1.8188477-.0078125-2.6357422.140625-5.3818359-.4316406-8.6210938-1.7988281-.5615234-.2373047-1.0805664-.5615234-1.5825195-.875-.2236328-.1396484-.4472656-.2792969-.6743164-.4101562l-.5585938-.3242188.5629883-.3164062c.4448242-.2490234.7783203-.2333984,1.0708008-.1806641,5.1132812.9267578,9.4042969-.6992188,13.1259766-4.9833984.918457-1.0556641,1.1357422-1.8339844.7504883-2.6845703-.4228516-.9345703-1.2509766-1.0107422-2.4658203-1.0205078l-1.7104492-.0087891c-1.5039062-.0058594-3.0073242-.0117188-4.5102539-.0546875-.6005859-.0166016-1.1967773-.1083984-1.7729492-.1982422-.2592773-.0400391-.5180664-.0800781-.7773438-.1132812l-1.1679688-.1494141,1.0449219-.5429688c.6914062-.359375,1.3613281-.5371094,2.0092773-.7089844l.4838867-.1308594c2.4443359-.6943359,4.3022461-2.3046875,5.7973633-3.7890625.5498047-.5458984.6860352-1.0908203.4165039-1.6679688-.2822266-.6064453-.7583008-.8496094-1.5097656-.7617188-.8144531.0927734-1.4272461.1972656-1.9863281.3388672-2.4848633.625-4.8999023.4785156-7.3833008-.4482422-3.2050781-1.1982422-5.9375-3.2324219-8.246582-5.0439453-4.4536133-3.4941406-9.4428711-5.7783203-15.253418-6.9833984-8.5151367-1.7695312-15.4389648,1.4208984-18.9960938,8.7451172l-.2250977.4628906-.3657227-.3623047c-1.7612305-1.7441406-4.0107422-2.7158203-6.1865234-3.65625-.7529297-.3251953-1.5058594-.6513672-2.2426758-1.0068359-.5131836-.2490234-.9316406-.3076172-1.2446289-.1748047-.3012695.1269531-.5395508.4482422-.7084961.9541016-.1914062.5742188-.315918,1.1191406-.3701172,1.6181641-.1210938,1.1279297-.215332,2.2597656-.3095703,3.3876953l-.1386719,1.6289062-.3051758.0302734c-.171875.0283203-.2895508.0488281-.4204102,0-.2470703-.0927734-.4887695-.1962891-.7280273-.3056641-4.3081055-1.9609375-8.7841797-2.5605469-13.3022461-1.7851562-8.8051758,1.5107422-15.2866211,5.6777344-19.2641602,12.3857422-4.6962891,7.921875-6.6240234,16.4648438-5.730957,25.3935547.1806641,1.8037109.3725586,3.6054688.5639648,5.4082031.3256836,3.0595703.6621094,6.2226562.9360352,9.3408203.5385742,6.1318359-1.5405273,11.1826172-6.1791992,15.0117188-1.831543,1.5117188-3.8886719,2.8105469-5.878418,4.0664062-.9125977.5761719-1.8286133,1.1542969-2.7329102,1.7578125l-.2998047.2001953-.2817383-.4042969c-.0961914-.140625-.2485352-.3632812-.4086914-.5791016-.8022461-1.0761719-1.6005859-2.15625-2.3989258-3.2363281-1.847168-2.4980469-3.7568359-5.0820312-5.6855469-7.5820312-4.1918945-5.4355469-8.4086914-10.1435547-12.890625-14.3955078-10.4077148-9.8769531-21.9907227-17.9150391-34.4267578-23.8935547-3.8496094-1.8505859-7.8193359-3.6210938-11.6582031-5.3339844-2.6977539-1.203125-5.3950195-2.40625-8.0751953-3.6455078-8.9545898-4.1435547-16.6079102-7.2451172-24.0849609-9.7597656-5.5234375-1.8574219-10.621582-2.7529297-15.5629883-2.6992188-2.855957.0234375-4.9257812.5195312-6.7119141,1.6103516-1.1464844.7001953-1.8452148,1.6660156-1.9672852,2.7197266-.1166992,1.0087891.3115234,2.0498047,1.2050781,2.9316406,1.4418945,1.4238281,3.0253906,2.6923828,4.9589844,4.1601562.8916016.6767578,1.8417969,1.3164062,2.7607422,1.9345703.8891602.5986328,1.8085938,1.2177734,2.6831055,1.8740234,1.7211914,1.2958984,2.9770508,2.7011719,3.8393555,4.2978516l.4160156.7695312-.8413086-.2402344c-1.0795898-.3085938-2.1210938-.6982422-3.1279297-1.0742188-.3964844-.1484375-.7919922-.2958984-1.1894531-.4394531-.3066406-.1103516-.6132812-.2275391-.9204102-.34375-.9916992-.3779297-2.0175781-.7685547-3.0410156-.9287109-2.2890625-.3574219-4.1850586.5332031-5.4887695,2.5830078-1.121582,1.7617188-.9604492,3.5966797.4780273,5.4521484.7089844.9140625,1.4770508,1.7021484,2.2836914,2.3447266,2.0898438,1.6630859,4.2348633,3.2412109,6.2529297,4.7148438l.777832.5654297c2.5683594,1.8642578,5.2246094,3.7919922,7.3188477,6.3300781.2431641.2949219.4516602.6113281.6933594.9775391.1210938.1835938.2519531.3828125.4018555.6005859l.4638672.6757812-1.4160156-.1738281c-.3442383-.0410156-.6049805-.0722656-.8647461-.1113281-.4873047-.0712891-.9746094-.1503906-1.4614258-.2294922-.9628906-.1572266-1.9580078-.3193359-2.9370117-.4130859-1.9956055-.1943359-3.9199219.6015625-5.1523438,2.1220703-1.1694336,1.4433594-1.5219727,3.2832031-.9667969,5.0478516,1.328125,4.2177734,3.3164062,6.9824219,6.2573242,8.6992188,2.1743164,1.2695312,4.4370117,2.4794922,6.625,3.6494141,1.1650391.6220703,2.3300781,1.2451172,3.4882812,1.8798828.6972656.3818359,1.3793945.7910156,1.9838867,1.1533203l1.8959961,1.1181641h-1.3564453c-.5966797,0-1.2060547-.0097656-1.8232422-.0214844-1.40625-.0234375-2.8603516-.0498047-4.2963867.0517578-2.3500977.1640625-3.956543,1.5390625-4.5229492,3.8701172-.6674805,2.7431641-.2099609,5.0966797,1.3588867,6.9960938,3.0737305,3.7197266,6.3046875,6.2548828,9.878418,7.75,1.8608398.7783203,3.7358398,1.5214844,5.6108398,2.265625,1.0253906.40625,2.0512695.8134766,3.0742188,1.2255859.2402344.0966797.4697266.2177734.7260742.3544922l.9663086.4951172-.5634766.3447266c-.2641602.1621094-.5151367.3085938-.7553711.4501953-.4892578.2861328-.9116211.5341797-1.3081055.8222656-1.1645508.8457031-1.8745117,1.9814453-1.9985352,3.1972656-.1186523,1.1582031.2905273,2.2890625,1.1831055,3.2685547,1.5991211,1.7548828,3.2841797,3.2861328,5.0083008,4.5507812,3.472168,2.5478516,7.7050781,3.4580078,11.7426758,4.1708984l5.7802734,1.0302734-.8842773.5048828c-.5429688.3095703-1.0844727.5986328-1.6191406.8837891-1.1533203.6162109-2.2431641,1.1982422-3.2319336,1.921875-2.3359375,1.7099609-2.8745117,4.3251953-1.4394531,6.9951172.105957.1972656.2084961.3964844.3110352.5957031l.5615234,1.0810547.1767578-.1494141c4.6625977,4.6298828,10.6088867,5.7177734,16.8032227,6.5019531l.4760742.0595703-.5600586,1.3779297c-.3652344.9013672-.7055664,1.7412109-1.0644531,2.5732422-.1220703.2841797-.4165039.4941406-.6508789.5966797-3.0219727,1.328125-6.0512695,2.6445312-9.0810547,3.9580078-.140625.0625-.2734375.0332031-.371582.0146484l-.4086914-.0605469-.0258789-.2939453c-.421875-4.7841797-2.2260742-9.3134766-5.6787109-14.2548828l.0727539-.0615234-.6801758-.6210938c-3.0239258-2.7646484-6.1308594-5.0683594-9.4995117-7.0439453-7.793457-4.5722656-15.4804688-6.1123047-23.5009766-4.7070312-13.1455078,2.2998047-22.9257812,9.7548828-29.9008789,22.7890625-2.6479492,4.9472656-3.640625,10.4492188-4.3193359,15.6582031-.9580078,7.3662109-.9208984,13.5068359.1171875,19.3261719.6025391,3.375,1.918457,6.5917969,3.1914062,9.703125.3632812.8886719.7270508,1.7773438,1.0751953,2.6708984l.4848633,1.2402344c1.3120117,3.3564453,2.6689453,6.8271484,3.7983398,10.3144531,1.1479492,3.5429688,1.6967773,7.0849609,1.6323242,10.5283203-.0546875,2.8984375-.4794922,6.609375-3.3051758,9.6044922-3.4394531,3.6464844-8.3637695,3.9365234-12.2543945.7177734-.9384766-.7763672-2.3115234-.8496094-2.9975586-.1591797-.734375.7382812-.6459961,1.953125.2148438,2.953125.25.2900391.5200195.5634766.796875.8447266l.6035156.6210938-.1806641.2490234c-1.1708984,1.6181641-1.6513672,3.5878906-1.5112305,6.1982422.0712891,1.3261719.1704102,2.7294922.5268555,4.0166016,2.8461914,10.2783203,9.5039062,17.3222656,19.7885742,20.9365234,7.8378906,2.7548828,15.3720703,1.8466797,22.3930664-2.6972656,6.9506836-4.4980469,11.831543-10.7617188,14.921875-19.1494141,3.8007812-10.3203125,4.3222656-21.7128906,1.5942383-34.8300781-1.4379883-6.9160156-4.2431641-13.5322266-6.9555664-19.9296875l-.8632812-2.0400391c-.3457031-.8212891-.6967773-1.640625-1.0478516-2.4599609-1.3603516-3.1748047-2.7675781-6.4580078-3.8476562-9.7939453-1.8779297-5.7958984-.8710938-11.3144531,2.9916992-16.3994141,1.8310547-2.4111328,4.1264648-3.6357422,6.7558594-3.6357422,1.1577148,0,2.3798828.2373047,3.65625.7158203.7114258.265625,1.3491211.5146484,1.9482422.8730469,2.6689453,1.5996094,5.3271484,3.2148438,8.0214844,4.8515625l3.1796875,1.9306641-.5629883.7958984c-.1665039.2333984-.2949219.4130859-.4150391.5966797-.3632812.5576172-.7397461,1.1083984-1.1157227,1.6582031-.8168945,1.1953125-1.6616211,2.4316406-2.3491211,3.7128906-5.0454102,9.4023438-5.7709961,19.1054688-2.1567383,28.8408203,1.8613281,5.0136719,4.8681641,9.5244141,7.5405273,13.3583984,2.8764648,4.1289062,5.7758789,6.8720703,9.1245117,8.6337891,1.2880859.6777344,2.4106445,1.6757812,3.4321289,2.6533203,1.6333008,1.5625,2.3173828,3.7773438,1.8764648,6.0771484-.4033203,2.1035156-1.7197266,3.8886719-3.3544922,4.5498047-.6342773.2568359-1.2675781.5625-1.8798828.8583984-.6757812.3271484-1.3740234.6650391-2.0898438.9443359-3.3144531,1.296875-6.2304688,3.3652344-8.6669922,6.1494141-4.2451172,4.8476562-5.9423828,10.1933594-5.0454102,15.8876953.6748047,4.2851562,2.6713867,7.9140625,5.621582,10.2177734l.1538086.1201172-.0131836.1943359c-.0253906.3769531-.0551758.7333984-.0834961,1.0742188-.0625.75-.1162109,1.3984375-.1113281,2.0546875.003418.4667969.0698242.9316406.1401367,1.4238281.0439453.3085938.0878906.6181641.1162109.9277344.1748047,1.9208984.3452148,3.8427734.515625,5.7646484.3242188,3.6503906.6479492,7.3007812,1.0009766,10.9492188.3720703,3.8447266,2.7773438,6.7666016,6.4345703,7.8164062l.3374023.0966797-.0800781.3417969c-.0239258.1005859-.0419922.2041016-.0610352.3076172-.046875.2607422-.0957031.53125-.2158203.7900391l-.2866211.6210938c-.6523438,1.4169922-1.3276367,2.8828125-2.059082,4.2949219-.7680664,1.4824219-1.5058594,3.2714844-1.1557617,5.3056641.8056641,4.6777344,4.5629883,8.5654297,9.1362305,9.453125,4.6337891.9042969,8.8647461-.6542969,12.03125-2.1103516,2.2133789-1.0185547,3.7661133-2.9599609,4.6137695-5.7695312.5375977-1.78125.1665039-3.5673828-.296875-5.3925781-1.0732422-4.2333984-3.6430664-7.6679688-8.0869141-10.8076172-.6186523-.4375-1.1694336-.4375-1.6386719-.0019531-.1704102.1591797-.6899414.6425781-.1166992,1.6464844.2114258.3691406.4770508.7294922.7895508,1.0703125l.5830078.6367188c.8662109.9492188,1.762207,1.9306641,2.6918945,2.8388672,2.3188477,2.2646484,3.355957,5.1738281,3.3613281,9.4326172.0004883.4726562-.0512695,1.1533203-.5058594,1.6035156-.309082.3066406-.7695312.4755859-1.3339844.4541016h-.0053711c-.2070312,0-.449707.1054688-.7060547.2167969-.1333008.0576172-.2670898.1152344-.3999023.1611328-2.4077148.8417969-5.2841797,1.6816406-8.3349609,1.5625-2.7104492-.1074219-5.09375-1.1416016-7.0839844-3.0722656-1.4345703-1.3925781-1.8178711-3.0498047-1.0249023-4.4345703l.1582031-.2753906.2958984.1162109c.159668.046875.2924805.0859375.40625.1943359,2.6591797,2.5253906,6.0673828,3.4619141,9.3544922,4.0986328.6733398.1308594,1.2412109.1699219,1.734375.1289062.8217773-.0722656,1.2885742-.4257812,1.4272461-1.0800781.1411133-.6679688-.1289062-1.1640625-.8496094-1.5625l-.2016602-.1113281c-.34375-.1923828-.6689453-.3740234-1.0092773-.4941406-1.2705078-.4472656-2.5444336-.8847656-3.8183594-1.3222656-1.1298828-.3876953-2.2592773-.7763672-3.3862305-1.1708984-.5336914-.1865234-1.0566406-.4023438-1.4931641-.5830078l-.7666016-.3095703.3959961-1.6640625c.3188477-1.3476562.6181641-2.6113281.9501953-3.8671875.0961914-.3603516.5371094-.75.9257812-.8193359,2.5698242-.4628906,4.7207031-1.7919922,6.3916016-3.9501953,1.7285156-2.2333984,2.34375-4.4580078,1.9941406-7.2148438-.3344727-2.6376953-.7729492-5.4199219-2.1054688-7.8935547-1.8808594-3.4941406-3.09375-7.2773438-4.2666016-10.9365234-.3833008-1.1962891-.7666016-2.3925781-1.1728516-3.5810547-.1020508-.2988281-.2128906-.7382812-.0019531-1.1103516.2089844-.3681641.6308594-.4990234.9750977-.5722656.4619141-.0976562.918457-.2216797,1.375-.3447266.5878906-.1582031,1.1958008-.3222656,1.8115234-.4306641,3.5654297-.6279297,6.6630859-1.7363281,9.4702148-3.3876953.9604492-.5654297,1.9189453-1.1347656,2.8769531-1.7041016l2.1875-1.296875c.1977539-.1171875.4003906-.2265625.6469727-.3603516l1.0371094-.5693359-.0546875.6826172c-.0161133.203125-.0336914.3828125-.050293.5478516-.0283203.2910156-.0532227.5322266-.0527344.7744141.0097656,5.8359375,1.7832031,9.796875,5.5800781,12.4658203,1.1972656.8417969,2.7001953,1.3427734,4.1538086,1.8261719l.6147461.2070312c2.034668.6894531,2.262207.8388672,2.371582,3.03125l.078125,1.5791016c.1601562,3.2617188.3261719,6.6337891.6035156,9.9375.565918,6.7402344,3.6503906,10.2197266,10.3144531,11.6337891.6323242.1337891.6806641.3027344.7089844.4033203l.0610352.2138672-.0668945.0644531-.2988281,2.6484375c-.2275391,2.0136719-.4501953,3.984375-.6665039,5.9560547-.1176758,1.0771484.2919922,1.9404297,1.3691406,2.8837891,1.1811523,1.0351562,2.3598633,2.0683594,3.2666016,3.2988281,3.2524414,4.4189453,7.7822266,6.0654297,13.8417969,5.0419922,1.6450195-.2783203,3.3085938-.8369141,4.8110352-1.6152344,2.4863281-1.2871094,3.8466797-4.1318359,3.097168-6.4775391-1.8833008-5.8916016-4.2641602-10.2480469-7.4936523-13.7119141-1.5024414-1.6113281-3.2431641-3.1054688-5.7851562-3.1289062-.2119141,0-.3256836-.1533203-.394043-.2460938-.0195312-.0263672-.0424805-.0576172-.0717773-.0908203l-.2177734-.2490234.2236328-.2431641c1.2290039-1.3388672,1.0688477-2.9443359.7133789-4.4804688-.9790039-4.2294922-2.394043-7.8681641-4.3251953-11.1240234-.5209961-.8779297-1.0380859-1.7587891-1.5546875-2.6396484-3.2299805-5.4990234-6.5693359-11.1865234-10.8168945-16.1181641-.7553711-.8769531-1.0664062-2.3251953-.8325195-3.8740234.2480469-1.6425781,1.0581055-3.0390625,2.1679688-3.7353516,2.5-1.5673828,4.9658203-3.2910156,7.3505859-4.9580078,1.0878906-.7597656,2.1757812-1.5205078,3.2705078-2.2695312,6.1020508-4.1748047,13.8188477-10.0244141,19.3769531-18.2578125,3.0507812-4.5185547,4.8994141-9.0898438,5.6518555-13.9746094.2446289-1.5898438.3364258-3.1767578.4335938-4.8574219.0410156-.7021484.081543-1.4091797.1347656-2.1210938l-.0693359-.0820312.0991211-.2138672c.0854492-.1845703.2915039-.234375.4179688-.2470703l.340332-.0927734-.0068359.0898438c.2524414.0029297.5053711.0107422.7563477.03125,7.6806641.6367188,15.2333984-.2451172,22.4467773-2.6181641,3.5966797-1.1845703,7.1914062-2.8330078,9.1259766-6.8486328l.1713867-.3554688.3427734.1953125c2.1547852,1.2265625,4.5996094,2.7333984,6.3486328,5.0976562.3007812.40625.6064453.8105469.9125977,1.2138672.8706055,1.1494141,1.7709961,2.3378906,2.5419922,3.5878906,2.4150391,3.9111328,4.4438477,7.4941406,4.8129883,11.7451172.0825195.9472656.0078125,1.9082031-.0644531,2.8369141-.0581055.7509766-.1186523,1.5283203-.0922852,2.2773438.1005859,2.8203125-1.0981445,5.1191406-3.7734375,7.2353516-1.8305664,1.4482422-3.9291992,2.0830078-6.284668,2.7089844-4.1943359,1.1132812-7.2460938,3.1083984-9.3295898,6.1005859-1.1582031,1.6621094-2.8691406,2.6318359-4.4750977,2.5253906-1.3969727-.0908203-2.6010742-.9794922-3.3901367-2.5019531-.425293-.8203125-1.0517578-1.3466797-1.8120117-1.5214844-.8115234-.1875-1.7148438.0478516-2.5400391.6630859-.3168945.2353516-.6328125.4736328-.940918.7207031-4.1137695,3.3095703-8.2753906,7.0878906-10.8427734,12.2802734-.6230469,1.2607422-1.1523438,2.6386719-1.5732422,4.0966797-.1665039.578125-.0483398,1.2128906.3017578,1.6162109.137207.1582031.4345703.4189453.8710938.3525391,1.5200195-.2099609,2.6503906.3554688,3.6762695.9550781.5327148.3115234,1.1489258.5087891,1.6914062.5419922,1.6083984.0996094,3.25.1484375,4.8378906.1962891.6601562.0195312,1.3208008.0390625,1.980957.0625.0888672-.0009766.1933594-.0039062.296875-.0097656.3442383-.0214844.7348633-.0429688.9804688.2099609,1.2338867,1.2695312,2.8496094,1.2529297,4.3979492,1.1259766,8.690918-.7080078,16.5932617-3.8105469,23.487793-9.2236328,2.1518555-1.6884766,4.2226562-3.5664062,6.2255859-5.3818359.7080078-.6416016,1.4160156-1.2832031,2.1289062-1.9189453,1.6186523-1.4423828,3.4853516-2.4023438,5.706543-2.9345703,1.4838867-.3554688,3.0380859-.9140625,5.0395508-1.8105469,1.9970703-.8955078,3.340332-2.4853516,3.8847656-4.5966797.5585938-2.1669922.8964844-4.0654297,1.0322266-5.8037109.2993164-3.8164062-1.0029297-7.4462891-2.2626953-10.9550781-3.8955078-10.8583984-2.859375-20.2666016,3.1606445-28.7802734,2.3476562-3.3212891,3.8325195-6.5253906,4.5400391-9.7949219.1235352-.5693359.6499023-1.0800781,1.0629883-1.3447266,2.3286133-1.4863281,4.7929688-3.0166016,7.324707-4.5478516,7.0805664-4.28125,13.9194336-7.0712891,20.9077148-8.5283203,5.1352539-1.0703125,10.277832-.5947266,15.2885742,1.4160156,5.1918945,2.0830078,8.3461914,7.6396484,7.4990234,13.2119141-.1259766.8300781-.2470703,1.6621094-.3681641,2.4941406l-.1391602.953125c-.2426758,1.6582031.2929688,2.9892578,1.6386719,4.0693359,1.7294922,1.3876953,3.0371094,3.2060547,3.8852539,5.4052734.3989258,1.0341797.5996094,1.8574219.2832031,2.515625-.3178711.6591797-1.0766602,1.0126953-2.1186523,1.3408203-.6005859.1884766-1.2177734.3378906-1.8149414.4814453-.4545898.109375-.9091797.21875-1.3579102.3457031-2.8813477.8154297-4.3305664,3.0546875-3.7822266,5.8447266.3320312,1.6914062.9702148,3.2167969,1.796875,4.2978516,1.2475586,1.6318359,2.840332,3.0644531,4.3808594,4.4501953l.3876953.3496094c2.7680664,2.4970703,6.2646484,3.4160156,10.6884766,2.8046875,1.4760742-.2041016,2.5703125-.90625,3.4438477-2.2089844,2.8212891-4.2080078,4.1191406-8.8779297,5.0161133-12.890625.9160156-4.09375.7744141-8.1943359-.4321289-12.5371094-.2998047-1.0791016-.6064453-2.1572266-.9125977-3.234375Zm-48.6767578-105.4990234c.6762695-.2636719,1.3530273-.5263672,2.0273438-.7949219.3452148-.1347656.7993164.0400391,1.0200195.1914062,2.9428711,2.0166016,4.8505859,4.1083984,6.0024414,6.5830078.5078125,1.0917969.9589844,2.4130859.4545898,3.9404297-.3095703.9384766-.4755859,1.9287109-.6293945,3.1269531-.2954102,2.2988281-1.3520508,4.3173828-3.2299805,6.171875l-.5737305.5605469c-.5761719.5605469-1.1723633,1.1396484-1.7080078,1.7441406-1.3139648,1.4824219-2.9853516,2.1757812-5.2524414,2.1757812-.0356445,0-.0712891,0-.1069336-.0009766h-.0126953c-3.637207-.1611328-8.3134766-2.2392578-9.5239258-7.5615234-.3603516-1.5849609-1.2124023-3.1132812-2.0366211-4.5908203l-.284668-.5107422c-.4526367-.8183594-.4492188-1.390625.0126953-2.109375,1.7158203-2.6689453,4.2329102-4.7539062,7.6953125-6.375,2.0107422-.9414062,4.112793-1.7597656,6.1459961-2.5507812Zm-45.0507812-55.6054688c.7973633-2.6787109,2.9145508-5.1103516,5.8085938-6.6699219,3.2709961-1.7626953,7.0844727-2.1904297,10.4604492-1.1728516,4.449707,1.3408203,8.7060547,3.5449219,13.0117188,6.7382812,1.4399414,1.0683594,2.8549805,2.1083984,4.3325195,3.0869141,3.3120117,2.1923828,6.9887695,3.2236328,10.9213867,3.0849609.1552734-.0078125.3085938.0058594.4624023.0195312l1.2509766.0742188-.8725586.609375c-2.7675781,1.9345703-5.7797852,1.9863281-8.621582,1.7558594-1.862793-.1503906-3.5483398-.7373047-5.1533203-1.7939453-.2841797-.1865234-.9594727-.2041016-1.246582-.0322266-.0996094.1191406-.1748047.7880859-.0576172.9775391l.2490234.4111328c.5952148.9863281,1.2109375,2.0058594,2.0556641,2.5966797,3.6464844,2.546875,7.8798828,3.5048828,12.9389648,2.9375,1.4130859-.1582031,3.0917969-.3222656,4.8344727-.3398438l.9414062-.0097656-.6845703.6455078c-.2636719.2490234-.5244141.5058594-.7861328.7626953-1.7275391,1.6992188-3.5073242,3.4404297-6.2631836,3.2636719-2.0058594-.140625-4.0195312-.5078125-5.9663086-.8623047-.9912109-.1806641-1.9829102-.3613281-2.9765625-.5136719-.4414062-.0673828-.8911133-.0742188-1.3671875-.0820312-.0922852-.0019531-.1845703-.0029297-.2763672-.0048828,0,.1113281-.0019531.2236328-.0039062.3349609-.0078125.4921875-.015625.9560547.1376953,1.3193359,1.8261719,4.3203125,5.0600586,7.0888672,9.6113281,8.2294922.6201172.1552734,1.2573242.2382812,1.9321289.3261719.3193359.0410156.6420898.0830078.9672852.1337891l.8823242.1367188-.722168.5253906c-1.347168.9804688-3.7397461,1.2382812-5.9541016.640625-1.3647461-.3671875-2.9643555-.8369141-4.4819336-1.5244141-2.6977539-1.2236328-5.2998047-2.5625-7.4892578-3.7099609-.5615234-.2919922-1.1806641-.3056641-1.7006836-.0332031-.5825195.3046875-.9707031.921875-1.0654297,1.6933594-.2495117,2.0371094.3989258,3.828125,1.9277344,5.3242188.5532227.5419922,1.1821289,1.0390625,1.7905273,1.5205078.2836914.2236328.5673828.4482422.8457031.6777344l.2885742.2382812-.2426758.2851562c-.9018555,1.0585938-2.3339844,1.7099609-3.9296875,1.7851562-.1040039.0048828-.2080078.0078125-.3120117.0078125-1.6655273,0-3.2963867-.6289062-4.4130859-1.7128906-1.7333984-1.6835938-2.1601562-3.8808594-2.5732422-6.0058594l-.1420898-.7285156c-.4570312-2.3408203-.9296875-4.7617188-1.7236328-7.0117188-1.0327148-2.9296875-3.3198242-4.7226562-6.6142578-5.1855469l-.1679688-.0273438c-.1542969-.0263672-.3300781-.0566406-.4145508-.0263672-1.6713867.5888672-2.2319336-.6386719-2.6386719-1.5361328-1.3623047-2.9960938-3.3862305-5.9150391-6.3691406-9.1845703-.5537109-.6064453-.6674805-1.1416016-.4204102-1.9746094Zm-14.6728516,9.1972656c.2705078.0234375.5405273.046875.809082.0664062,1.387207.1005859,2.2407227.9160156,2.4692383,2.3574219l.0424805.2705078-.4477539.2226562c-.1772461.09375-.3637695.1904297-.5595703.2578125l-.8852539.3056641c-1.0981445.3789062-2.2329102.7714844-3.3647461,1.1181641-4.8432617,1.484375-8.8022461,4.4199219-12.4580078,9.2382812-3.7441406,4.9355469-6.4033203,10.8310547-8.6220703,19.1162109-.4609375,1.7216797-.8486328,3.4970703-1.2236328,5.2158203-.1748047.7998047-.3496094,1.6005859-.5317383,2.3984375l-.7280273,3.1855469v-3.2675781c0-.9462891-.0097656-1.8994141-.0200195-2.8564453-.0219727-2.1074219-.0444336-4.2871094.0415039-6.4414062.2993164-7.5214844,2.0869141-14.0087891,5.4643555-19.8349609,3.8208008-6.5908203,9.4165039-10.4248047,16.6308594-11.3955078,1.1186523-.1523438,2.2700195-.0517578,3.3833008.0429688Zm-51.0214844,65.7539062c.4814453-.2841797.9599609-.5556641,1.4326172-.8222656,1.0268555-.5810547,1.996582-1.1298828,2.9111328-1.7695312,2.9438477-2.0605469,5.6674805-4.7509766,8.5722656-8.4667969,1.6806641-2.1513672,2.7446289-4.8017578,3.3486328-8.3398438.7543945-4.4267578.6650391-9.0644531-.2724609-14.1796875-1.7666016-9.6289062-.2143555-18.4316406,4.6137695-26.1640625,4.9755859-7.9667969,12.2680664-11.8613281,21.7080078-11.6005859.3212891.0097656.6313477.0693359.9306641.1269531l.2016602.0380859c.1201172.0214844.2211914.0673828.3613281.1298828.0751953.0341797.1704102.0761719.2978516.1289062l.9052734.3740234-1.6289062.5566406c-.4443359.1542969-.8261719.2861328-1.2114258.4091797-7.4541016,2.3710938-12.8193359,7.2353516-15.9472656,14.4580078-3.3134766,7.6484375-5.1538086,15.7421875-5.4702148,24.0556641-.2333984,6.1279297-.6069336,12.6083984-1.1103516,19.2617188-.2929688,3.8740234-1.0859375,7.4785156-2.3564453,10.7128906-.9316406,2.3701172-2.0966797,4.2441406-3.5620117,5.7294922-1.3183594,1.3359375-2.6259766,2.6835938-3.9819336,4.0791016l-2.1650391,2.2275391-7.9287109-10.7373047.3515625-.2080078Zm22.6342773,20.6601562c-.6796875,1.4833984-1.578125,2.8242188-2.5288086,4.2421875-.4233398.6318359-.8520508,1.2724609-1.2661133,1.9335938l-.3095703.4951172-8.5258789-13.3603516.3608398-.1845703c7.112793-3.6386719,9.9707031-10.5244141,12.2880859-17.2646484.144043-.4199219.2749023-.84375.4072266-1.2705078.2314453-.7509766.4711914-1.5273438.7900391-2.3027344l.5288086-1.2890625.2050781,1.5683594c.0249023.1591797.0488281.3193359.0527344.4794922.0375977,1.5996094.0708008,3.1992188.1040039,4.7998047.0678711,3.2822266.1381836,6.6767578.2495117,10.0117188.1450195,4.3330078-.6479492,8.4179688-2.355957,12.1416016Zm-84.059082,27.2324219c-1.2587891-.2460938-2.5180664-.4921875-3.7739258-.7548828-2.8457031-.5927734-5.4467773-1.6728516-7.7314453-3.2099609-.7661133-.5146484-1.4370117-1.2529297-1.8413086-2.0263672-.4580078-.8759766-.5727539-1.7353516-.3320312-2.4853516.2299805-.7148438.7792969-1.3085938,1.5888672-1.7167969,1.581543-.7978516,3.2495117-1.4707031,4.8623047-2.1230469.5854492-.2363281,1.1699219-.4716797,1.7519531-.7138672.3295898-.1376953.6674805-.2558594,1.0053711-.3730469.4262695-.1494141.8291016-.2900391,1.21875-.46875,1.1196289-.5146484.9736328-1.2490234.9257812-1.4902344-.1240234-.6220703-.5693359-.8095703-1.4018555-.9541016-.7875977-.1357422-1.5761719-.2666016-2.3652344-.3974609-4.234375-.703125-8.612793-1.4287109-12.7504883-2.9931641-2.4824219-.9384766-4.7192383-2.3320312-6.6479492-4.1425781-.8447266-.7929688-1.4204102-1.8544922-1.9770508-2.8808594l-.1699219-.3125c-.2006836-.3662109-.2373047-.7402344-.1069336-1.0830078.1489258-.3916016.5083008-.7060547,1.0126953-.8857422l.3041992-.1074219c.6831055-.2431641,1.3657227-.4863281,2.0429688-.7441406l.4169922-.15625c.5244141-.1943359,1.0664062-.3955078,1.5576172-.6494141.9462891-.4892578,1.3862305-1.1708984,1.3457031-2.0839844-.0400391-.8798828-.5239258-1.4707031-1.5698242-1.9160156-1.3823242-.5878906-2.7666016-1.1699219-4.1508789-1.7529297-3.8066406-1.6015625-7.7426758-3.2587891-11.5615234-5.0078125-1.6914062-.7744141-3.4477539-1.9404297-5.2192383-3.4658203-1.8271484-1.5722656-2.6123047-3.8476562-2.3339844-6.7636719.1225586-1.2900391.8037109-2.0859375,1.8691406-2.1826172,1.8027344-.1621094,3.6162109-.1523438,4.9956055-.1220703.7348633.0146484,1.4736328.0898438,2.1879883.1611328.574707.0585938,1.1499023.1162109,1.7260742.1445312.8071289.0410156,1.3408203-.2578125,1.5776367-.8808594.2978516-.7851562-.2539062-1.3212891-.6088867-1.5703125l-.9057617-.6396484c-1.6484375-1.1650391-3.3530273-2.3710938-5.1225586-3.3740234-.6630859-.375-1.331543-.7421875-1.9990234-1.109375-3.0200195-1.6591797-6.1425781-3.375-8.722168-5.8808594-2.25-2.1865234-3.5410156-4.3515625-4.0629883-6.8134766-.2402344-1.1298828.0327148-2.2460938.7475586-3.0634766.6611328-.7558594,1.6240234-1.1484375,2.6635742-1.0664062,1.4726562.1113281,2.9492188.3720703,4.3769531.625.6279297.1113281,1.2553711.2226562,1.8837891.3212891l.3217773.0546875c.2080078.0361328.4160156.0732422.6259766.0947266,1.5112305.15625,2.3603516-.1474609,2.9306641-1.0439453.6274414-.984375.5693359-2.0712891-.1767578-3.3222656-1.5458984-2.5947266-3.8447266-4.4628906-6.0981445-6.0957031-1.1611328-.8408203-2.3461914-1.6494141-3.5317383-2.4580078-1.6103516-1.0976562-3.2753906-2.2333984-4.8530273-3.4375-.9370117-.7148438-1.6611328-1.6962891-2.3613281-2.6455078-.1733398-.234375-.3457031-.46875-.5205078-.6972656-.2314453-.3027344-.2807617-.6992188-.3242188-1.0498047-.0170898-.1357422-.0332031-.2724609-.0620117-.4003906l-.0854492-.3828125.387207-.0615234c.1298828-.0205078.262207-.0537109.3950195-.0869141.3491211-.0859375.7084961-.1757812,1.0776367-.0966797,1.2202148.2675781,2.4223633.6425781,3.4833984.9746094.6298828.1972656,1.2558594.4091797,1.8813477.6201172,1.1054688.375,2.2490234.7617188,3.3886719,1.0527344.8149414.2080078,1.7768555.2568359,2.7802734.1376953.9780273-.1152344,1.8208008-.625,2.3120117-1.3974609.4814453-.7568359.581543-1.6689453.2827148-2.5703125-.3554688-1.0693359-.9448242-2.0537109-1.6166992-2.7001953-1.6469727-1.5839844-3.4262695-3.0800781-5.2890625-4.4433594-1.472168-1.0791016-3.019043-2.1123047-4.5146484-3.1123047-1.1064453-.7392578-2.2128906-1.4794922-3.3017578-2.2431641-.5771484-.4042969-1.0883789-.8974609-1.5830078-1.375-.2211914-.2128906-.4423828-.4267578-.6689453-.6318359l-.1860352-.1679688.3286133-.8789062.2402344-.0136719c.2724609-.015625.546875-.0458984.8212891-.0751953.6196289-.0673828,1.2597656-.1367188,1.8945312-.0498047,1.6035156.2216797,3.2026367.4785156,4.8017578.7353516,2.0249023.3261719,4.1186523.6621094,6.184082.9160156,7.7011719.9472656,14.8432617,3.4775391,20.2050781,5.5761719,2.5620117,1.0019531,5.1264648,1.9970703,7.6914062,2.9921875,5.0029297,1.9423828,10.1762695,3.9501953,15.2436523,5.9785156,5.8842773,2.3554688,11.6591797,5.4228516,17.1640625,9.1191406,7.2490234,4.8652344,13.2285156,9.1044922,18.8461914,13.9794922,2.0170898,1.7509766,4.0366211,3.5654297,5.9892578,5.3203125l2.1557617,1.9345703c.1850586.1650391.3510742.3505859.534668.5566406l.9443359,1.0224609-.9882812-.1103516c-.3613281-.0400391-.7084961-.0878906-1.0454102-.1337891-.6796875-.09375-1.3217773-.1816406-1.9506836-.1894531-.0483398,0-.0961914-.0009766-.1435547-.0009766-4.0546875,0-6.1518555,2.1572266-6.2333984,6.4121094-.0273438,1.4287109.2651367,2.9091797.5483398,4.3398438.1347656.6806641.2695312,1.3623047.3730469,2.0429688.0341797.2226562.0634766.4472656.0927734.6708984l.0698242.5166016c.1347656.9257812-.25,1.5664062-1.1445312,1.9042969-.5708008.2158203-1.1396484.5166016-1.6450195.8720703-1.7719727,1.2470703-2.4887695,2.9785156-2.1303711,5.1464844.1557617.9443359.0405273,1.5839844-1.0092773,2.0625-1.9731445.8964844-2.8569336,3.1982422-2.2514648,5.8632812.4848633,2.1357422,1.0429688,4.2207031,1.6333008,6.4287109.2578125.9638672.5185547,1.9384766.7763672,2.9287109l.0800781.3085938-.293457.1240234c-1.2075195.5087891-2.722168,1.5947266-3.0830078,3.8710938-.2958984,1.8623047.3242188,3.4648438,1.8959961,4.8974609l.2373047.2167969-.1821289.2646484c-1.6870117,2.4492188-1.8032227,5.0751953-.3554688,8.0292969.5302734,1.0820312,1.1000977,2.1279297,1.7036133,3.2353516.2763672.5078125.5566406,1.0214844.8369141,1.546875l.1767578.3320312-.3344727.1699219c-1.4287109.7285156-2.5117188,1.9394531-3.2192383,3.5986328-.5688477,1.3359375-.6176758,2.6337891-.1401367,3.7529297.4643555,1.0898438,1.3969727,1.9248047,2.6958008,2.4169922,1.1972656.453125,2.5014648.7373047,3.6186523.9550781.4643555.0888672,1.0053711.015625,1.2626953-.171875.3022461-.2207031.5820312-.7636719.5541992-1.0751953-.0458984-.1337891-.5195312-.4814453-.8266602-.5185547-1.4135742-.1738281-2.6186523-.8261719-3.6850586-1.9951172-.6069336-.6669922-.6650391-1.2548828-.6069336-1.6318359.0864258-.5585938.4794922-1.0556641,1.137207-1.4375l.2749023-.1582031c.5761719-.3291016,1.171875-.6699219,1.5947266-1.1171875.4287109-.4541016.6279297-.9541016.5761719-1.4443359-.0551758-.5234375-.4013672-1.0292969-.9746094-1.4248047l-.1303711-.0878906c-.3212891-.2158203-.6855469-.4599609-.8735352-.8291016-.1875-.3691406-.378418-.7373047-.5693359-1.1054688-.7529297-1.4541016-1.5317383-2.9570312-2.1147461-4.515625-.7900391-2.1113281-.1733398-2.8623047,1.6069336-3.84375.5224609-.2880859.9204102-.5800781,1.2177734-.8945312.3857422-.40625.5605469-.8359375.5048828-1.2441406-.0566406-.4169922-.3491211-.7949219-.8447266-1.0917969l-.1879883-.1074219c-.1982422-.1103516-.4223633-.234375-.6064453-.4160156-.5830078-.5751953-.8203125-1.09375-.7270508-1.5859375.0947266-.4980469.5175781-.8994141,1.2924805-1.2294922.7641602-.3261719,1.5585938-.6884766,2.1352539-1.2207031.628418-.5810547.9399414-1.3105469.8764648-2.0556641-.0654297-.7724609-.5390625-1.4990234-1.2993164-1.9931641-3.1464844-2.0449219-5.2514648-7.0244141-4.5053711-10.65625.2929688-1.4277344.8486328-1.8876953,2.2875977-1.8925781.3447266-.0126953.6904297.0097656,1.0356445.0195312.4853516.0146484.972168.03125,1.4560547.0087891.9047852-.0410156,1.659668-.4433594,2.0712891-1.1054688.4199219-.6748047.4462891-1.5507812.0727539-2.4033203-.1020508-.2324219-.2348633-.4697266-.3671875-.7080078-.3525391-.6347656-.7172852-1.2910156-.6103516-1.9384766.1005859-.6074219.6665039-1.0556641,1.2138672-1.4892578.2231445-.1767578.4472656-.3525391.6318359-.5380859,1.4106445-1.4179688,1.8686523-3.1494141,1.4003906-5.2910156-.1264648-.578125-.2651367-1.1533203-.4033203-1.7285156-.2998047-1.2451172-.6098633-2.5322266-.7871094-3.8261719-.1308594-.9560547-.1391602-1.5546875.190918-1.9775391.3574219-.4580078,1.0136719-.5605469,1.9741211-.6650391l.4277344-.046875c1.4169922-.1542969,2.8818359-.3134766,4.2919922-.5869141,1.7421875-.3388672,2.206543-.9716797,2.159668-2.9453125l-.0209961-.890625,1.0244141.9746094c.2275391.2128906.4223633.3964844.6088867.5878906,2.8984375,2.9707031,5.2573242,6.3457031,7.8227539,10.1298828,1.6552734,2.4423828,3.3198242,4.8789062,4.9838867,7.3154297,2.1069336,3.0849609,4.2138672,6.1689453,6.3027344,9.265625.8886719,1.3173828,1.7817383,2.6318359,2.6748047,3.9472656,2.9785156,4.3847656,6.0585938,8.9189453,8.9189453,13.4892578,2.5483398,4.0712891,4.7832031,8.4423828,6.6333008,12.1826172,1.6918945,3.4199219,1.5874023,7.6943359-.2729492,11.1542969-1.7661133,3.2851562-4.871582,5.3613281-8.7436523,5.8466797-2,.2568359-4.0185547-.3378906-5.8271484-1.7080078l-.1621094-.1230469.0234375-.3359375c.0019531-.0996094.0039062-.2246094.0830078-.3457031.5458984-.8408203.796875-1.5527344.2451172-2.3007812-.5742188-.7783203-1.3154297-.7460938-2.4814453-.4208984-1.8618164.5234375-3.71875,1.0664062-5.5756836,1.6083984-4.0400391,1.1806641-8.2172852,2.4013672-12.3803711,3.3925781-9.7446289,2.3193359-17.8007812,3.4033203-25.3134766,3.4033203-.1088867,0-.2167969,0-.3251953-.0009766-3.9086914-.0166016-8.0888672-.2138672-12.1772461-1.53125-.9697266-.3115234-1.9785156-.7998047-2.9995117-1.4501953-.7075195-.4492188-1.1821289-1.1669922-1.3364258-2.0205078-.184082-1.0195312.0996094-2.1201172.7788086-3.0185547.3183594-.421875.6645508-1.0146484.5058594-1.4423828-.1557617-.4208984-.7851562-.6386719-1.2851562-.7470703-1.6171875-.3505859-3.2412109-.6689453-4.8657227-.9873047ZM13.8633693,224.1423373c.1274414-.0869141.2290039-.1591797.3149414-.2207031.1738281-.1240234.2944336-.2080078.4248047-.2724609,4.8774414-2.4199219,7.675293-6.5693359,8.3154297-12.3349609.8242188-7.4189453-.6040039-14.8789062-4.2436523-22.1738281l-1.3647461-2.7421875c-.9355469-1.8828125-1.871582-3.7646484-2.8193359-5.6416016-2.5742188-5.0966797-3.4716797-10.8251953-2.7436523-17.5136719.7900391-7.2597656,2.0751953-12.9501953,4.043457-17.9082031,5.9658203-15.0263672,21.2719727-24.2587891,37.2241211-22.4453125,6.6948242.7597656,12.8676758,3.4404297,18.3486328,7.9667969,2.1679688,1.7910156,4.0249023,4.2285156,5.0942383,6.6875l.5415039,1.2451172-1.6108398-1.1699219c-.2797852-.2001953-.4936523-.3525391-.6977539-.5175781-4.7758789-3.8417969-10.371582-6.2587891-16.6323242-7.1826172-6.3041992-.9277344-12.347168-.0214844-18.4785156,2.7763672-10.1923828,4.6533203-16.7026367,12.2412109-19.9023438,23.1982422-2.8217773,9.6630859-2.0795898,19.7207031,2.206543,29.8945312,1.2578125,2.9873047,2.6655273,5.9736328,4.0263672,8.8623047,1.0449219,2.2177734,2.1254883,4.5107422,3.1333008,6.7919922,1.9873047,4.5,3.1650391,8.3984375,3.7060547,12.2685547.7607422,5.4472656-1.6665039,9.7636719-6.6591797,11.84375-1.0898438.4541016-2.2910156.7011719-3.3974609.7011719-.0424805,0-.0849609,0-.1269531-.0009766-2.7607422-.046875-5.5756836-.5224609-8.6044922-1.4550781l-.7348633-.2265625.6367188-.4306641Zm34.4516602-49.6298828c.9970703,2.5615234,2.0283203,5.2099609,2.984375,7.8388672,2.1777344,5.9833984,4.4975586,13.1025391,5.1914062,20.53125,1.1435547,12.2529297-.7045898,23.8457031-5.4936523,34.4550781-3.359375,7.4414062-9.246582,11.9804688-17.4970703,13.4902344-1.2016602.2207031-2.4199219.3300781-3.6508789.3300781-3.996582,0-8.1386719-1.15625-12.3613281-3.4570312-7.8505859-4.2753906-12.5102539-10.71875-13.8500977-19.1523438-.121582-.7666016-.1337891-1.5585938-.1455078-2.3251953-.0053711-.3603516-.0107422-.7246094-.0273438-1.0917969l-.0200195-.4453125,1.9443359.2753906c1.0615234.1464844,2.0224609.2802734,2.9770508.4472656.5644531.0996094,1.109375.4902344,1.4951172,1.0722656.4116211.6201172.5742188,1.3525391.4350586,1.9589844-1.1147461,4.8515625-.1069336,6.9814453,4.3144531,9.1132812,9.8813477,4.7685547,19.4658203,2.8798828,26.9892578-5.3203125,5.9169922-6.4482422,8.4814453-14.7167969,7.6220703-24.5761719-.4926758-5.6513672-2.1137695-11.3789062-5.2568359-18.5712891l-.4614258-1.0556641c-2.4750977-5.6552734-5.0341797-11.5039062-6.6914062-17.5976562-1.5078125-5.5449219-1.6196289-10.1884766-.3530273-14.6132812,1.0385742-3.6289062,3.0522461-6.8037109,5.9853516-9.4355469.4960938-.4453125,1.0634766-.7880859,1.6645508-1.1503906.2788086-.1689453.565918-.3417969.8569336-.5332031l.8857422-.5810547-.3339844,1.0058594c-.2319336.6982422-.472168,1.3671875-.706543,2.0175781-.487793,1.3564453-.9492188,2.6376953-1.2392578,3.9423828-.9760742,4.3886719-.5800781,8.9882812,1.2114258,14.0615234,1.1098633,3.1435547,2.3408203,6.3066406,3.53125,9.3662109Zm15.2709961-35.3671875c-4.9833984-2.2685547-11.4624023-.9814453-15.4038086,3.0634766-.6870117.7050781-1.2675781,1.0205078-2.3813477.6796875-1.2841797-.3955078-2.6259766-.0810547-4.2182617.9804688-4.4086914,2.9414062-7.3417969,6.9960938-8.7177734,12.0537109-1.296875,4.7685547-1.1201172,9.7998047.5556641,15.8349609,1.5356445,5.53125,3.9262695,10.84375,6.2382812,15.9814453l.4433594.984375c2.4516602,5.4589844,4.5556641,10.4150391,5.4677734,15.8037109,1.3388672,7.9101562.3476562,15.1240234-2.9462891,21.4423828-2.2226562,4.2646484-5.1723633,7.0595703-9.0161133,8.5429688-.8847656.3408203-1.9282227.6933594-2.9614258.7236328-.4536133.0136719-.9033203.0205078-1.3481445.0205078-4.784668,0-9.0463867-.7900391-12.9921875-2.4052734-2.0097656-.8222656-3.2001953-2.1054688-3.6396484-3.9208984l-.1337891-.5537109.5600586.1044922c.6010742.1123047,1.1962891.234375,1.7885742.3554688,1.4042969.2871094,2.730957.5576172,4.0932617.7060547,1.125.1210938,2.3813477.0322266,3.5366211-.2548828,3.1264648-.7783203,5.9199219-2.0166016,8.3022461-3.6787109,4.7744141-3.3310547,6.8056641-8.0732422,6.2104492-14.4970703-.3022461-3.2626953-1.1879883-6.5380859-2.6318359-9.7353516-2.3823242-5.2744141-4.6113281-9.9296875-6.8149414-14.2314453-3.8852539-7.5839844-5.5410156-14.1494141-5.2104492-20.6591797.5214844-10.28125,4.5390625-18.390625,11.9418945-24.1025391,5.3901367-4.1601562,12.0014648-6.5068359,19.6499023-6.9755859.9003906-.0527344,1.8691406.0039062,2.8027344.1748047,4.5625.8310547,9.3984375,1.7988281,13.9643555,3.6669922,2.2270508.9101562,4.7109375,2.2041016,6.25,4.8867188.4785156.8349609,1.168457,1.0615234,2.234375.7412109l.5649414-.1708984-.0947266.5830078c-.027832.171875-.0380859.3417969-.0478516.5-.0249023.390625-.0478516.7587891-.2929688,1.0166016-.659668.6972656-1.3603516,1.3349609-2.1025391,2.0107422-.2729492.2480469-.550293.5009766-.8295898.7607422l-.3154297.2919922-.2407227-.3554688c-.1469727-.2167969-.2856445-.4326172-.421875-.6435547-.2827148-.4394531-.550293-.8544922-.8564453-1.2294922-3.0161133-3.6904297-6.7124023-6.5488281-10.9863281-8.4960938Zm83.1337891,164.5898438c-.3935547.0996094-.8203125.1474609-1.269043.1474609-2.730957,0-6.2758789-1.7607422-8.0874023-4.1835938l-.137207-.1835938.4248047-.8359375,10.0561523,4.8046875-.9873047.2509766Zm-6.2070312-16.3691406c.3681641-.1542969.7368164-.3085938,1.1123047-.4335938.3691406-.1210938,1.0375977-.2783203,1.3837891.0273438.1796875.1601562.3652344.3183594.5522461.4775391.7758789.6621094,1.578125,1.3476562,2.0761719,2.2255859.9589844,1.6904297,1.7905273,3.4824219,2.5947266,5.2158203.2832031.6103516.5668945,1.2207031.8554688,1.828125.3012695.6318359.5820312,1.2753906.8442383,1.8769531l.8242188,1.8457031,2.1079102,3.3349609-4.6884766.7363281.5449219-.7265625c.1762695-.234375.3447266-.4384766.4990234-.625.2924805-.3544922.5234375-.6337891.644043-.9306641.1196289-.2919922.1420898-.6572266.1665039-1.0439453.012207-.1943359.0249023-.3925781.0488281-.5917969l.0629883-.5273438-.4072266-.25c-.5141602-.3164062-1.0268555-.6445312-1.5419922-.9736328-1.1357422-.7265625-2.3100586-1.4785156-3.5219727-2.1074219-2.8110352-1.4599609-5.6962891-1.7392578-8.5761719-.8291016-.2573242.0810547-.5078125.2226562-.7729492.3720703-.2724609.1542969-.5546875.3134766-.8676758.4199219-.4125977.1386719-1.0239258.2158203-1.496582.0117188-.4472656-.1943359-.5385742-1.0263672-.4604492-1.3984375.2133789-1.0126953.4482422-2.0205078.6831055-3.0283203.2333984-1.0029297.4667969-2.0048828.6791992-3.0126953.1591797-.7548828.5292969-1.0683594,1.277832-1.0800781l.5595703-.0078125c1.0205078-.0126953,2.0756836-.0253906,3.065918-.2080078.5864258-.109375,1.1518555-.3457031,1.7504883-.5976562Zm102.9584961-147.4589844c-.4526367,3.6318359-1.1494141,7.2890625-1.8237305,10.8261719-.2875977,1.5097656-.5751953,3.0195312-.8457031,4.53125-.0307617.171875-.1381836.2939453-.1899414.3525391l-.4550781.6826172-.2041016-.8017578c-.4584961-1.7529297-.9106445-3.5058594-1.3623047-5.2568359-1.0273438-3.9873047-2.090332-8.109375-3.2104492-12.1376953-1.46875-5.2822266-4.1821289-10.1015625-6.6098633-14.2050781-.4179688-.7070312-.9970703-1.3535156-1.6303711-1.8193359-.8735352-.6416016-1.9204102-.7744141-2.8007812-.3486328-.8598633.4140625-1.3984375,1.2890625-1.4399414,2.3417969-.0410156,1.0507812.1650391,2.1904297.5654297,3.1269531,1.7104492,3.9990234,3.6494141,8.53125,5.7949219,12.8925781.2602539.5292969.5249023,1.0576172.7900391,1.5849609,1.6967773,3.3828125,3.4521484,6.8808594,3.9414062,10.7841797,1.159668,9.2509766.0556641,16.6298828-3.4755859,23.2216797-1.5864258,2.9619141-3.2270508,6.0253906-4.0541992,9.3925781-.9501953,3.8671875-.9003906,7.7597656.1484375,11.5703125.996582,3.625,1.4570312,7.3740234,1.9023438,11,.1279297,1.0410156.2558594,2.0830078.3959961,3.1240234l.0322266.2382812c.1064453.7890625.2158203,1.5976562.2963867,2.4199219l.0068359-.0253906.1645508,2.0703125c.1494141,1.8857422-.2519531,3.6103516-.8999023,5.6191406-.8618164,2.6738281-2.5761719,4.1533203-5.3959961,4.6552734-2.9345703.5214844-5.3828125,2.2246094-7.7504883,3.8710938-.4321289.3007812-.8637695.6005859-1.2978516.8945312-1.2631836.8535156-2.519043,1.7177734-3.7753906,2.5830078-3.0048828,2.0693359-6.112793,4.2089844-9.2724609,6.1533203-3.5576172,2.1904297-7.2705078,3.828125-11.0351562,4.8681641-.3388672.09375-.6845703.1640625-1.1069336.25l-1.7792969.3779297.7045898-.828125c.1625977-.1914062.3061523-.3535156.4345703-.4980469.2255859-.2548828.4013672-.4511719.5498047-.6679688.4018555-.5830078.4663086-1.2929688.1679688-1.8505859-.2729492-.5117188-.7724609-.8242188-1.4228516-.7910156-.8413086.0126953-1.7177734.2431641-2.565918.4667969-.2851562.0742188-.5693359.1494141-.8535156.2167969-.1928711.0458984-.3842773.0966797-.5761719.1484375-.5649414.1503906-1.1494141.3056641-1.7915039.3330078l-.8530273.0361328.5585938-.6455078c.253418-.2929688.5117188-.5820312.7695312-.8710938.5678711-.6376953,1.1547852-1.2958984,1.6762695-1.9775391,1.1899414-1.5537109.8569336-2.2285156.434082-2.6425781-.3818359-.3740234-1.0175781-.65625-2.5541992.4970703-.6352539.4775391-1.2612305.9667969-1.8876953,1.4560547-.8637695.6757812-1.7275391,1.3515625-2.6147461,1.9951172-.8085938.5859375-1.6665039,1.1328125-2.4960938,1.6611328-.3759766.2392578-.7543945.4794922-1.1313477.7265625l-.3535156.2314453-.1811523-.3818359c-.0517578-.109375-.0927734-.1865234-.121582-.2412109-.0673828-.1259766-.1591797-.2988281-.0458984-.4941406.3183594-.5458984.628418-1.0966797.9384766-1.6474609,1.6206055-2.8779297,3.2958984-5.8535156,6.074707-8.0058594,1.5522461-1.2050781,1.762207-1.203125,3.277832-.0175781,2.6674805,2.0859375,5.3564453,2.59375,8.2202148,1.5507812,1.3691406-.4980469,2.3535156-1.4853516,3.3955078-2.5302734.4160156-.4169922.8461914-.8476562,1.300293-1.2421875.2197266-.1904297.4160156-.4189453.5668945-.6601562,1.5820312-2.5244141,3.9609375-3.9882812,7.7138672-4.7470703,4.2709961-.8642578,7.3227539-2.6455078,9.3295898-5.4433594,1.6625977-2.3203125,2.7915039-4.2626953,3.5527344-6.1142578.5527344-1.3447266.7900391-3.0996094.6679688-4.9404297-.3208008-4.8291016-2.1079102-9.4248047-5.4633789-14.0488281-1.6342773-2.2529297-3.4277344-4.453125-5.1621094-6.5800781l-.418457-.5146484c-1.8569336-2.2792969-4.2387695-4.2617188-7.4975586-6.2382812-2.8017578-1.7001953-5.0317383-3.9414062-6.8168945-6.8535156-.4912109-.8007812-.9902344-1.5966797-1.4892578-2.3935547-1.2392578-1.9775391-2.5200195-4.0214844-3.6582031-6.1054688-.9150391-1.6748047-1.5581055-3.515625-2.1796875-5.2958984l-.1352539-.3867188c-.5273438-1.5048828-.5439453-3.1679688-.0483398-4.9453125.3808594-1.3691406.0776367-2.2939453-.9023438-2.75-1.0351562-.4794922-2.1743164-.0566406-2.9052734,1.0820312-1.4643555,2.2792969-1.3984375,4.7744141-1.1411133,6.9150391.5180664,4.2998047,2.1015625,8.1933594,4.8413086,11.9033203,1.4882812,2.0146484,2.9707031,4.0986328,4.4042969,6.1132812.6201172.8710938,1.2421875,1.7460938,1.8706055,2.6230469l.1660156.03125.0732422.5302734-.1640625.1044922-.21875.3955078-.1435547-.1982422c-.6865234.3408203-1.3740234.6845703-2.0620117,1.0292969-1.9609375.9804688-3.9882812,1.9951172-6.0078125,2.9443359-3.1220703,1.4667969-6.5795898,2.2744141-10.2763672,2.3994141-4.2407227.1445312-8.5527344.2089844-12.7231445.2705078-1.7514648.0253906-3.5024414.0517578-5.253418.0830078l-1.8696289.0283203c-1.4433594.0195312-2.8867188.0390625-4.3286133.0927734-.3847656.0146484-.8447266.1494141-1.2949219.3789062-.4550781.2324219-.7294922.5761719-.7524414.9433594-.0214844.3447266.1801758.6806641.5683594.9443359.9863281.6708984,1.871582,1.1035156,2.7055664,1.3222656,2.2827148.5986328,4.6254883,1.1328125,6.8916016,1.6494141.8413086.1923828,1.6821289.3837891,2.5224609.5791016.199707.046875.4013672.0839844.644043.1298828l.7939453.1523438-.0732422.3642578c-.1113281.5507812-.2124023,1.0966797-.3125,1.6386719-.2197266,1.1865234-.4272461,2.3066406-.7280273,3.4326172-3.4677734,12.9853516-9.9375,22.6025391-19.7797852,29.4033203l-1.3613281.9433594c-3.5112305,2.4384766-7.1420898,4.9589844-10.9975586,6.9003906-2.5419922,1.2802734-4.4003906,3.6132812-5.2333984,6.5712891-.9121094,3.2412109-.4692383,6.8808594,1.1557617,9.4990234,3.0839844,4.9667969,5.815918,10.1738281,8.0810547,14.6113281,1.0366211,2.03125,1.9121094,4.1767578,2.7592773,6.2529297.5058594,1.2402344,1.0292969,2.5234375,1.5805664,3.7646484.5922852,1.3339844,1.2636719,2.671875,1.9130859,3.9658203.2832031.5644531.5678711,1.1318359.8486328,1.703125l.1630859.0908203-.0795898.2841797c-.0239258.0830078-.090332.1943359-.1958008.2666016l-.2563477.28125-.1040039-.2128906c-.7304688-.0244141-1.4648438-.0449219-2.1992188-.0654297-1.9555664-.0546875-3.9780273-.1103516-5.9648438-.2578125-2.7763672-.2041016-4.6098633-1.7851562-5.1630859-4.4521484-.4467773-2.1552734-.7773438-4.5634766-1.0410156-7.5800781-.1152344-1.3154297-.137207-2.6542969-.1582031-3.9492188-.0161133-.9755859-.0317383-1.9501953-.0864258-2.9228516-.1459961-2.6210938-1.4819336-4.3476562-3.9707031-5.1318359-5.5673828-1.7529297-8.8681641-5.7060547-10.0908203-12.0839844-.1123047-.5849609-.0795898-1.1816406-.050293-1.7080078.0117188-.2138672.0229492-.4179688.0229492-.6054688v-.1660156l.1240234-.109375c.9853516-.8740234,1.9785156-1.7441406,2.972168-2.6142578,2.1538086-1.8857422,4.3808594-3.8359375,6.5112305-5.8193359,6.144043-5.7226562,11.3125-12.3867188,15.3613281-19.8085938,1.8041992-3.3076172,3.6264648-6.6044922,5.4492188-9.9023438,1.8500977-3.3486328,3.7006836-6.6972656,5.5322266-10.0566406.5454102-1,1.0317383-2.1582031,1.4863281-3.5410156.1762695-.5371094.3237305-1.5341797-.6733398-2.1728516-.6484375-.4179688-1.5385742-.1757812-2.2675781.6113281-.4946289.5341797-.9067383,1.0996094-1.2250977,1.6816406l-1.2602539,2.2978516c-2.2158203,4.0371094-4.5073242,8.2128906-6.6923828,12.3535156-4.1474609,7.8603516-9.2680664,14.7558594-15.2192383,20.4960938-5.934082,5.7236328-13.9521484,12.9951172-23.3613281,18.46875-2.0029297,1.1650391-4.1762695,2.0908203-6.277832,2.9873047-.9169922.390625-1.8344727.78125-2.7397461,1.1923828-2.4785156,1.1240234-3.4868164,2.6855469-3.2705078,5.0634766.2685547,2.9462891.8701172,5.3085938,1.8930664,7.4345703.8691406,1.8066406,1.4628906,3.2109375,1.9248047,4.5546875l.3613281,1.0458984c.8662109,2.5029297,1.762207,5.0917969,2.3969727,7.7060547.3896484,1.6083984-.1152344,3.7060547-1.3183594,5.4746094-1.3007812,1.9111328-3.2236328,3.1708984-5.2758789,3.4560547-.0366211.0048828-.074707.0078125-.1137695.0078125-.4208984,0-.9658203-.2900391-1.1801758-.6455078-2.2177734-3.6835938-4.3867188-8.1826172-3.6586914-13.6289062.3642578-2.7216797.1860352-5.4785156-.5297852-8.1933594-.3950195-1.4970703-1.0058594-3.1757812-2.5449219-4.2773438-.2807617-.2011719-.4516602-.5644531-.5180664-.8378906-.2314453-.953125-.4443359-1.9111328-.6567383-2.8701172-.4228516-1.9072266-.8603516-3.8789062-1.4477539-5.7607422-1.1020508-3.53125-.527832-6.7695312,1.7548828-9.8994141,3.2456055-4.4521484,6.3857422-7.1464844,10.1826172-8.7373047,4.1542969-1.7412109,6.4282227-4.7841797,6.7587891-9.0449219.222168-2.8583984-.6186523-5.5439453-2.4301758-7.7646484-1.4399414-1.7666016-2.9282227-3.1669922-4.4238281-4.1630859-4.6645508-3.1064453-8.0898438-7.5576172-10.472168-13.6064453-1.53125-3.8876953-3.1728516-8.5449219-3.7416992-13.6074219-1.0751953-9.5654297,1.4589844-17.8642578,7.746582-25.3681641,4.3808594-5.2285156,9.690918-9.2529297,16.2333984-12.3046875.3759766-.1748047.9501953-.2490234,1.3203125-.0576172,4.0131836,2.0908203,8.3212891,3.0556641,13.5556641,3.8603516,8.8984375,1.3691406,17.984375.9384766,27.0024414-1.28125,7.065918-1.7402344,12.8325195-3.5332031,18.1489258-5.6435547.4277344-.1708984,1.3193359-.0791016,1.6083984.3574219,1.8754883,2.8076172,4.7734375,4.3857422,8.1591797,4.4433594,4.0981445.0576172,8.0947266-2.0869141,10.737793-5.7666016,1.5561523-2.1660156,2.425293-4.40625,2.6572266-6.8476562.5664062-5.9765625-.5639648-10.9326172-3.456543-15.1513672-.7006836-1.0224609-.9160156-1.8876953.1743164-3.0380859,2.0991211-2.2158203,2.8554688-5.0166016,3.65625-7.9814453l.2524414-.9287109c1.6972656-6.1503906,2.4072266-13.0126953,2.2333984-21.5957031-.1586914-7.8554688-.1640625-15.5341797,1.4912109-23.0996094,1.3046875-5.9658203,3.1801758-10.8759766,5.7348633-15.0126953,1.0478516-1.6962891,2.2148438-3.140625,3.4697266-4.2919922,4.215332-3.8681641,9.4169922-8.125,16.0297852-10.3652344,1.2729492-.4316406,2.5229492-1.0361328,3.7319336-1.6210938l.5136719-.2480469c.6650391-.3203125,1.171875-.2539062,1.746582.2246094,1.2919922,1.0761719,2.5639648,2.1191406,3.9204102,3.0576172,1.0229492.7070312,2.0654297.8984375,3.0981445.5644531.9077148-.2919922,1.4716797-.9912109,1.4365234-1.7802734-.0361328-.8242188-.4741211-1.2734375-1.5107422-1.5488281-.7348633-.1953125-1.3364258-.4726562-1.7885742-.8232422-3.4467773-2.671875-5.6933594-5.375-7.0703125-8.5078125-.0488281-.1132812-.1201172-.2138672-.1884766-.3144531-2.6884766-3.9785156-3.4189453-8.5322266-3.8081055-12.8613281-.0112305-.1289062.0043945-.2441406.0224609-.3779297l.0795898-.7568359.4814453.2451172c2.1005859,1.0693359,3.6376953,2.2080078,4.8378906,3.5839844,2.644043,3.0302734,4.8256836,6.2734375,6.484375,9.6396484.8852539,1.796875,1.8500977,3.5957031,2.7836914,5.3349609l.8579102,1.6035156c.2158203.4052734.4824219.8203125.7929688,1.2333984.6176758.8242188,1.3295898,1.125,2.175293.9160156.8227539-.2011719,1.2768555-.7685547,1.3886719-1.7353516.0126953-.1083984.0439453-.2148438.0947266-.3691406l.2006836-.6689453.3896484.1845703c2.2758789,1.0732422,4.6992188,2.5898438,5.418457,5.7011719.2001953.8652344.3706055,1.7373047.5410156,2.609375.184082.9453125.3686523,1.8896484.5913086,2.8242188,1.0327148,4.3291016,3.5351562,7.0546875,7.4384766,8.0986328,3.5454102.9501953,6.574707.3681641,9.003418-1.7314453.1079102-.0927734.2304688-.1669922.3530273-.2402344l.4379883-.2783203.2021484.3017578c2.3828125,3.5644531,3.8701172,6.7207031,4.6796875,9.9345703.5634766,2.2373047,1.2739258,4.5585938,3.1899414,6.1787109.3251953.2753906.6552734.546875,1.0146484.8417969l1.1557617.9550781-.7407227.1611328c-6.6484375,1.4453125-10.1811523,6.3515625-13.5029297,11.6855469l-.2758789.4414062-.3251953-.40625c-.1816406-.2275391-.3696289-.4541016-.5585938-.6816406-.4238281-.5097656-.8618164-1.0371094-1.25-1.6015625-1.1611328-1.6875-2.762207-2.2919922-4.7514648-1.796875-3.1420898.7792969-6.3920898.6865234-9.6625977-.2744141-4.9072266-1.4414062-8.7016602-4.609375-11.2773438-9.4160156-2.059082-3.8417969-3.0932617-8.1357422-3.074707-12.7626953.0009766-.1552734.0083008-.3144531.015625-.4746094.0200195-.4179688.0390625-.8125-.0717773-1.1337891-.1791992-.5136719-.5258789-.9804688-.8432617-1.1347656-.5214844-.2519531-.9980469.1025391-1.2416992.5693359-.2133789.4091797-.371582.9033203-.4575195,1.4277344-.8242188,5.0439453.6611328,9.7021484,2.0473633,13.1972656,1.640625,4.1367188,4.8369141,7.1191406,7.9277344,10.0039062l.8984375.8408203c.5102539.4804688.8154297,1.1523438.9819336,1.6318359.234375.6757812.4375,1.3623047.6401367,2.0498047.2641602.8945312.5371094,1.8193359.8779297,2.6923828,2.2890625,5.8613281,5.2744141,10.6220703,9.1269531,14.5517578,3.7143555,3.7890625,5.2070312,8.6396484,6.2661133,13.3164062,1.6518555,7.2890625,2.1455078,14.6503906,1.4663086,21.8789062-.1835938,1.9550781-.2607422,3.9580078-.3354492,5.8955078-.0932617,2.4238281-.1894531,4.9306641-.4951172,7.3798828Zm65.1914062,48.0068359c-.4624023,2.1435547-1.6918945,3.9462891-2.8803711,5.6884766-.9423828,1.3818359-1.9169922,2.8105469-2.527832,4.421875l-.1660156.4375-.3867188-.2646484c-1.0180664-.6962891-2.1108398-1.2978516-3.1669922-1.8798828-2.1333008-1.1738281-4.3393555-2.3886719-5.9760742-4.4238281-1.0083008-1.2548828-1.6035156-2.0654297-1.371582-2.7431641.2104492-.6171875.9760742-.8955078,2.6118164-1.2861328,2.2792969-.5439453,3.7641602-1.5361328,4.6723633-3.1210938.4282227-.7470703,1.1220703-.9462891,1.9560547-.5595703.3618164.1669922.7182617.3476562,1.0742188.5292969.3237305.1640625.6469727.3291016.9750977.4824219,1.1401367.5351562,2.2832031,1.0615234,3.4541016,1.6015625l1.7939453.828125-.0620117.2890625Zm1.7983398-6.4375c-.0419922.5683594-.0854492,1.15625-.1210938,1.7705078l-.0395508.6796875-.5478516-.4052734c-.4570312-.3378906-.902832-.6855469-1.3427734-1.0292969-2.5620117-2.0019531-4.7739258-3.7285156-7.9985352-2.6289062l-.2685547.0917969-.1572266-.2363281c-.3588867-.5380859-.6992188-1.09375-1.0390625-1.6494141-.7397461-1.2080078-1.5043945-2.4570312-2.4536133-3.4775391-1.894043-2.0361328-1.8500977-3.9296875-1.2011719-6.1455078,1.543457-5.2792969-.125-10-5.1015625-14.4326172-2.7236328-2.4257812-6.0263672-3.4414062-10.1469727-4.2197266-8.3242188-1.5742188-16.762207-.3544922-26.5566406,3.8339844-1.7705078.7568359-3.4912109,1.7392578-5.1557617,2.6884766-.7670898.4375-1.5341797.875-2.309082,1.2939453-.2421875.1308594-.4794922.2695312-.7773438.4433594l-1.2373047.7138672.2519531-1.3457031c.0571289-.3203125.1025391-.5722656.1635742-.8203125.3652344-1.4755859.7246094-2.953125,1.0844727-4.4306641.871582-3.5791016,1.7724609-7.2802734,2.7373047-10.9013672,1.4023438-5.265625,1.6176758-10.6835938,1.7280273-16.2353516.0166016-.8261719.012207-1.6533203.0078125-2.5458984l-.0043945-2.0585938.9213867.6181641c.1977539.1279297.3476562.2265625.4858398.3388672,7.3461914,5.9863281,14.5722656,10.1162109,22.0908203,12.6240234,2.9643555.9882812,6.1352539,1.5664062,9.2021484,2.125,1.2075195.2207031,2.4145508.4404297,3.612793.6845703,2.3535156.4794922,4.4594727.984375,6.3930664,2.3232422l.3242188.2236328-.2460938.3085938c-.7573242.9511719-1.0756836,1.9628906-.9199219,2.9267578.1474609.9130859.7143555,1.7148438,1.6386719,2.3173828.4506836.2929688,1.0263672.4814453,1.5395508.5039062.5922852.0253906.9526367-.0458984,1.1044922-.2216797.1533203-.1777344.171875-.5585938.0566406-1.1630859-.0380859-.2011719-.0551758-.4052734-.0727539-.6220703l-.097168-.9833984.609375.3212891c.8989258.4736328,1.5688477,1.4716797,1.7919922,2.6699219.0898438.4824219.1347656.9794922.1337891,1.4775391-.0048828,2.3457031.8623047,4.2275391,2.7290039,5.9228516,3.2861328,2.9824219,5.0273438,7.0576172,6.296875,10.6503906,1.4936523,4.2294922,3.0253906,9.265625,3.0556641,14.5566406.0068359,1.125-.0766602,2.2519531-.1650391,3.4443359Z" stroke-width="0"/>
      <path d="m226.3145412,212.9704623c-.1879883,0-.3847656.0214844-.5908203.0644531-1.262207.2646484-1.9707031,1.1152344-2.3681641,2.8447266-.309082,1.3417969.0083008,2.6123047.9707031,3.8837891.1577148.2089844.3041992.3242188.4243164.3349609.1210938-.0019531.2900391-.1054688.3979492-.2060547.1855469-.1728516.3740234-.3447266.5625-.515625,1.284668-1.1669922,2.4985352-2.2695312,2.9741211-3.9736328l.1225586-.4394531-.1767578-.3105469c-.6513672-1.1455078-1.3813477-1.6826172-2.3164062-1.6826172Z" stroke-width="0"/>
      <path d="m115.9034084,156.0056185c-1.9790039-.7949219-4.3525391-.2773438-6.6845703,1.4541016-2.2314453,1.6552734-3.6660156,3.4726562-4.515625,5.7177734l-.2368164.6259766-1.1381836-1.5136719c-1.6689453-2.1992188-3.5493164-3.7675781-5.7480469-4.7929688-1.0297852-.4804688-2.0703125-.7216797-3.0620117-.7216797-.7890625,0-1.546875.1523438-2.2436523.4609375-1.5649414.6904297-2.7597656,2.1386719-3.3637695,4.0751953-.9462891,3.03125-.4702148,6.0068359,1.4150391,8.84375.8525391,1.2832031,1.9667969,2.4462891,3.0444336,3.5693359.2802734.2929688.5600586.5849609.8359375.8789062.5292969.5644531,1.1025391,1.1123047,1.6572266,1.6425781.6860352.65625,1.3950195,1.3339844,2.0385742,2.0585938,1.4638672,1.6484375,1.9038086,3.65625,1.237793,5.6523438-.4570312,1.3720703-1.0830078,2.7021484-1.6884766,3.9882812l-.4750977,1.0166016c-.3945312.8544922-.5200195,1.4589844.0058594,2.0195312.5097656.5429688,1.1206055.5966797,2.1049805.1767578.1030273-.0429688.2070312-.1005859.3110352-.1572266.2763672-.1503906.5878906-.3369141.9365234-.3076172,1.3642578.0498047,2.3867188-.6308594,3.300293-1.3740234,1.3144531-1.0683594,2.6186523-2.1835938,3.8759766-3.3154297,4.8950195-4.4052734,8.3798828-8.9423828,10.6547852-13.8691406,1.6621094-3.6005859,2.1884766-6.9960938,1.6083984-10.3779297-.4980469-2.9082031-1.8730469-4.9501953-3.8706055-5.7509766Zm-2.7124023,14.5888672c-1.3442383,2.0048828-2.9223633,3.8886719-4.4487305,5.7109375-.4365234.5214844-.8730469,1.0419922-1.3041992,1.5664062-.7553711.9169922-1.546875,1.78125-2.3847656,2.6972656-.3818359.4169922-.7695312.8408203-1.1621094,1.2783203l-.3876953.4326172-.2260742-.5351562c-.0488281-.1152344-.0898438-.203125-.1230469-.2744141-.065918-.1416016-.1137695-.2431641-.1367188-.3710938-.4257812-2.3808594-1.5878906-4.5029297-3.5517578-6.4863281-.4472656-.4511719-.90625-.890625-1.3652344-1.3310547-.7119141-.6816406-1.4482422-1.3867188-2.1289062-2.1279297-.9057617-.9863281-1.7543945-2.0615234-2.5219727-3.1962891-.9985352-1.4755859-.9697266-3.0898438.0844727-4.796875.7558594-1.2255859,1.6723633-1.0410156,2.3081055-.6708984l.1220703.0712891c1.019043.59375,2.0722656,1.2080078,3.0224609,1.9443359.6381836.4931641,1.2402344,1.0429688,1.8227539,1.5751953.5009766.4570312,1.019043.9306641,1.5507812,1.3583984.8276367.6660156,1.5556641.9287109,2.1669922.7851562.6113281-.1455078,1.1445312-.7119141,1.5839844-1.6835938,1.3154297-2.9042969,3.453125-4.9306641,6.3549805-6.0234375.5551758-.2080078,1.1342773-.3671875,1.6064453-.1123047.4682617.2539062.6513672.8242188.769043,1.3496094.7001953,3.1279297.1293945,6.1845703-1.6508789,8.8398438Z" stroke-width="0"/>
      <path d="m236.9341701,57.9470248h.0424805c1.5859375-.1083984,3.4472656-.7666016,5.3842773-1.9042969.859375-.5058594,1.2011719-1.1992188.9384766-1.9042969-.2700195-.7216797-1.0151367-1.0185547-2.0454102-.8095703-.5200195.1044922-1.0366211.2275391-1.5532227.3496094-.6879883.1630859-1.3754883.3261719-2.0703125.4492188-2.2602539.3945312-4.0742188-.734375-4.7392578-2.9609375-.0615234-.2050781-.0961914-.4228516-.1293945-.640625-.0444336-.2861328-.0859375-.5566406-.1977539-.7568359-.5307617-.9492188-.8295898-1.0351562-.8842773-1.0429688-.0327148-.0048828-.0673828-.0068359-.1035156-.0068359-.4125977,0-1.0195312.2900391-1.1289062.5126953-.4257812.8681641-.6396484,1.8173828-.5869141,2.6025391.2348633,3.4921875,3.2714844,6.1123047,7.0737305,6.1123047Z" stroke-width="0"/>
      <path d="m217.8692287,23.0798373c-.6777344-1.3417969-1.3549805-2.6835938-2.0185547-4.03125-.3271484-.6650391-.6240234-1.3457031-.9208984-2.0253906-.2685547-.6162109-.5371094-1.2324219-.8295898-1.8369141-.0957031-.1982422-.2817383-.3798828-.4458008-.5410156-.0317383-.03125-.0625-.0605469-.0917969-.0898438-.1416016.0068359-.2167969.0390625-.2392578.0712891-.0400391.0566406-.0585938.2685547.1240234.7041016.3979492.9482422.7919922,1.8994141,1.1860352,2.8496094,1.0161133,2.4482422,2.0664062,4.9794922,3.1625977,7.4394531.315918.7080078.9414062,1.3291016,1.5458984,1.9296875l.1298828.1289062c.0175781-.0146484.2446289-.0498047.3803711-.0703125.0229492-.0039062.0458984-.0068359.0693359-.0107422v-.0097656c.0073242-.1865234.0146484-.3789062-.0361328-.4814453-.6630859-1.3466797-1.3393555-2.6865234-2.0161133-4.0263672Z" stroke-width="0"/>
      <path d="m86.0796779,37.9294467c-2.5849609-2.1796875-5.0180664-3.2402344-7.4995117-3.2402344-.7919922,0-1.5878906.1083984-2.3964844.3222656-2.597168.6865234-4.684082,2.3105469-5.8764648,4.5712891-1.2661133,2.4013672-1.4160156,5.2626953-.4223633,8.0556641l.0800781.2080078c.1835938.4570312.4345703,1.0849609-.2993164,1.734375-1.6699219,1.4804688-2.2885742,3.4697266-1.8388672,5.9121094.6967773,3.7841797,1.5654297,7.7685547,3.8134766,11.2333984.0888672.1367188.0957031.2822266.1010742.3886719l.03125.2255859-.1816406.2109375c-.2041016.140625-.4101562.2763672-.6152344.4121094-.4394531.2900391-.8549805.5644531-1.2460938.8759766-2.5117188,2.0019531-3.0913086,4.7705078-1.5888672,7.5966797.269043.5068359.5688477,1.0429688.9335938,1.53125,1.1347656,1.5185547,2.2832031,3.0253906,3.4633789,4.5751953l1.59375,2.09375-1.0170898.6269531c-1.5844727.9541016-2.4975586,2.2080078-2.5703125,3.53125-.0732422,1.3222656.6958008,2.6689453,2.1655273,3.7910156.0849609.0654297.1757812.1220703.2661133.1796875.1274414.0820312.2548828.1640625.371582.2597656l.1201172.0976562c.4863281.3984375.9731445.7958984,1.4594727,1.1943359-.6079102-.7197266-.9956055-1.6474609-1.3730469-2.5478516l-.159668-.3798828c-.4052734-.9472656-.0322266-1.7919922,1.0234375-2.3173828.9638672-.4804688,1.7958984-1.0185547,2.4726562-1.5996094.8491211-.7294922,1.246582-1.4023438,1.1811523-2-.0654297-.5996094-.5996094-1.171875-1.5888672-1.7021484-2.6943359-1.4443359-4.5375977-3.3222656-5.6352539-5.7431641-1.0366211-2.2880859-.7460938-3.7490234,1.1118164-5.5830078,1.0058594-.9921875,1.9140625-2.0605469,2.7001953-3.1748047.4248047-.6015625.578125-1.1435547.4550781-1.6123047-.1298828-.4951172-.5654297-.9208984-1.2949219-1.2666016-.3725586-.1767578-.8735352-.4824219-1.1503906-.9335938-2.046875-3.3378906-2.9658203-6.6142578-2.8085938-10.0166016.0898438-1.9472656.9609375-3.1767578,2.5888672-3.6552734,1.019043-.2998047,1.6469727-.7421875,1.8657227-1.3154297.2211914-.5800781.043457-1.3408203-.5283203-2.2626953-.7670898-1.2353516-1.1005859-2.6005859-1.019043-4.171875.0791016-1.5185547.4760742-2.5117188,1.2128906-3.0371094.7353516-.5244141,1.800293-.5742188,3.2563477-.1572266l.5.1445312c1.0668945.3085938,2.1704102.6279297,3.2651367.8759766.9975586.2255859,2.0703125.4433594,3.1533203.5048828,1.1743164.0820312,2.03125-.4716797,2.5-1.5595703.4799805-1.1142578.2700195-2.1630859-.5756836-2.8769531Z" stroke-width="0"/>
      <path d="m79.5108302,100.2819857c-.7651367.9541016-1.6162109,2.0722656-2.0341797,3.2695312-.5405273,1.546875-.1538086,3.4160156,1.0341797,5,1.2285156,1.6376953,3.0537109,2.6113281,4.7753906,2.5117188.1186523-.0058594.328125-.1914062.4960938-.3408203.0283203-.0253906.0561523-.0498047.0844727-.0742188-.0195312-.0322266-.0385742-.0654297-.0576172-.0976562-.0859375-.1464844-.2304688-.3925781-.3066406-.4296875-1.9121094-.4042969-2.8540039-1.8857422-3.3950195-2.9648438-.3071289-.6132812-.137207-1.5419922.125-2.2050781.1796875-.4560547.472168-.8476562.7543945-1.2265625.1791992-.2392578.3598633-.4794922.5063477-.7353516,1.1625977-2.03125.7382812-3.5029297-1.3745117-4.7695312-.7133789-.4277344-1.3754883-.8515625-1.9907227-1.2753906.4492188.3710938.8984375.7412109,1.3466797,1.1123047,1.0932617.90625.3793945,1.7978516.0361328,2.2255859Z" stroke-width="0"/>
      <path d="m100.9903224,118.607181c-.2583008.328125-.5361328.6572266-.8188477.9902344-.6166992.7275391-1.2543945,1.4804688-1.7412109,2.3046875-.840332,1.4238281-.8295898,3.1914062.0297852,4.7285156.8930664,1.5976562,2.4624023,2.5703125,4.1982422,2.6015625.7426758-.0214844.9355469-.2148438.9887695-.6132812.0532227-.4013672-.0366211-.5410156-.7324219-.6972656-1.3574219-.3027344-1.9584961-1.4580078-2.3305664-2.4316406-.46875-1.2265625.4091797-2.0771484.9335938-2.5849609.2006836-.1943359.4067383-.3857422.6132812-.5761719.5224609-.4824219,1.015625-.9384766,1.4306641-1.4628906.9150391-1.15625.7294922-2.2822266-.5507812-3.3476562-1.7485352-1.4560547-3.496582-3.0791016-5.1953125-4.8232422-1.4047852-1.4414062-2.4345703-3.2753906-3.1484375-5.6064453-.5302734-1.7324219-.1098633-3.1757812,1.2485352-4.2910156.2294922-.1875.4604492-.3730469.6918945-.5585938.5014648-.4033203,1.0029297-.8056641,1.4829102-1.2324219,1.3378906-1.1904297,1.4736328-2.3779297.4399414-3.8486328l-1.3164062-1.8632812.3452148-.203125c.2202148-.1298828.425293-.2451172.6186523-.3535156.375-.2099609.6992188-.3916016.9916992-.6015625.324707-.234375.6567383-.4628906.9887695-.6914062.9003906-.6201172,1.8310547-1.2597656,2.5942383-2.0195312.7197266-.7158203,1.0620117-1.4433594,1.0170898-2.1601562-.0473633-.7490234-.5366211-1.5039062-1.4150391-2.1816406-3.4394531-2.6533203-6.0981445-5.8085938-7.9013672-9.3808594-.4506836-.890625-.7021484-1.8789062-.9458008-2.8349609l-.1362305-.5283203c-.2353516-.8945312-.1577148-2.0615234,1.5483398-2.5458984.8486328-.2402344,1.6870117-.5888672,2.4248047-1.0078125.8623047-.4902344,1.3598633-1.0605469,1.4794922-1.6953125.1206055-.6416016-.1411133-1.3642578-.7773438-2.1474609-1.0078125-1.2412109-.9697266-1.9423828.1645508-3.0009766,3.1655273-2.9541016,3.2885742-3.6611328,1.3168945-7.5634766-.7133789-1.4111328-1.0986328-3.0634766-1.4077148-4.390625-.1191406-.5117188-.0639648-.9443359.1635742-1.2841797.2597656-.3876953.7158203-.6298828,1.3945312-.7402344,1.4321289-.2333984,2.9785156-.6699219,4.7290039-1.3359375,1.0742188-.4082031,1.6982422-1.3144531,1.590332-2.3076172-.0991211-.9023438-.9150391-1.9326172-2.0610352-2.0224609-.4165039-.0322266-.8193359-.0478516-1.2075195-.0478516-1.0917969,0-2.0703125.1269531-2.9199219.3808594-2.6704102.7949219-3.7866211,2.734375-3.1430664,5.4609375.5444336,2.3095703,1.284668,4.5546875,2.125,7.0390625l.0546875.1621094c.7216797,2.1259766.6621094,2.2929688-1.2788086,3.5712891-2.0356445,1.3398438-2.862793,2.7919922-2.6264648,4.5859375.137207,1.0400391-.1455078,1.5097656-1.1196289,1.8642578-1.4331055.5224609-2.4433594,1.3808594-2.9208984,2.4833984-.4697266,1.0839844-.409668,2.3789062.1733398,3.7441406,1.3183594,3.0878906,3.1362305,6.1357422,5.4033203,9.0605469.8051758,1.0390625,1.5249023,2.1191406,2.2866211,3.2626953.3466797.5195312.6987305,1.0478516,1.0664062,1.5830078l.262207.3818359-.4306641.1699219c-.2094727.0830078-.3955078.1474609-.5625.2060547-.2949219.1025391-.5078125.1757812-.6796875.2880859-.3803711.2480469-.7734375.484375-1.1674805.7197266-.9780273.5869141-1.9892578,1.1943359-2.7558594,1.9785156-1.5878906,1.625-1.5209961,3.7441406.1743164,5.5292969.2958984.3115234.5893555.6259766.8964844.9541016l.7021484.75-.2568359.2519531c-.265625.2607422-.5263672.5068359-.7797852.7451172-.5253906.4960938-1.0214844.9638672-1.4584961,1.46875-1.5297852,1.7666016-1.753418,3.6591797-.6645508,5.625.6699219,1.2089844,1.4228516,2.3369141,2.0712891,3.28125,1.3813477,2.0117188,2.7792969,4.0126953,4.1728516,6.0078125l1.8061523,2.5878906-.1689453.2138672Z" stroke-width="0"/>
      <path d="m145.4546779,100.7868685c.4140625.1269531.828125.2578125,1.2421875.3886719,1.5610352.4931641,3.175293,1.0029297,4.7880859,1.2910156.8608398.1552734,1.5478516-.0351562,1.9370117-.5322266.4199219-.5351562.4365234-1.3486328.0454102-2.2314453-.1835938-.4140625-.3608398-.6992188-.5585938-.8964844-1.6342773-1.6367188-3.5136719-2.4609375-5.6030273-2.4609375-.4599609,0-.9296875.0400391-1.409668.1201172-.609375.1015625-1.3266602.4970703-1.9672852,1.0839844-1.8608398,1.7070312-2.4853516,3.8925781-1.8569336,6.4931641.0766602.3173828.1552734.6337891.2358398.9501953-.027832-1.0810547.1977539-2.1318359.6728516-3.1767578.6186523-1.3613281,1.1083984-1.4443359,2.4741211-1.0292969Z" stroke-width="0"/>
      <path d="m133.7417873,139.895267c.3173828-.0488281.7407227-.375.7988281-.5683594.0332031-.1103516-.0102539-.375-.40625-1.0136719-.0698242-.1123047-.2397461-.2167969-.4365234-.3388672-.1201172-.0742188-.246582-.1533203-.371582-.2441406l-.3261719-.2382812.5004883-.5771484c.1479492-.1767578.2744141-.3261719.4165039-.4599609.9277344-.8710938,1.2890625-1.3691406,1.2885742-1.7773438-.0004883-.40625-.3579102-.8984375-1.2749023-1.7548828-.3881836-.3632812-.5634766-.7402344-.5209961-1.1181641.0419922-.3769531.2915039-.7011719.7412109-.9638672.4765625-.2783203,1.0092773-.4375,1.5141602-.5673828.2807617-.0732422.5742188-.1181641.8662109-.1621094.4677734-.0712891.9101562-.1386719,1.2695312-.3242188.4882812-.2529297.9614258-.7910156,1.0546875-1.2011719.0410156-.1796875-.2773438-.7265625-.7075195-1.1083984-1.5307617-1.3583984-2.659668-2.9804688-3.3549805-4.8212891-.1923828-.5087891-.3510742-1.0898438-.0712891-1.5371094.2856445-.4560547.8984375-.5712891,1.5180664-.6279297l.4438477-.0380859c.659668-.0556641,1.3413086-.1132812,1.9672852-.2753906.6142578-.1591797,1.1870117-.6337891,1.0825195-1.3330078-.0732422-.4892578-.4829102-1.1074219-.9526367-1.4375-.5654297-.3964844-1.2700195-.890625-1.1416016-1.9697266.0732422-.6142578.4291992-1.3945312,1.7084961-1.6201172.4794922-.0839844.9643555-.1396484,1.4492188-.1943359.4541016-.0507812.9082031-.1025391,1.3574219-.1796875.2050781-.0351562.4130859-.0673828.621582-.0986328.7333984-.1113281,1.4921875-.2265625,2.1240234-.5195312.4770508-.2197266.7558594-.5644531.784668-.96875.0322266-.4462891-.2490234-.9082031-.7514648-1.2333984-.0722656-.046875-.1533203-.0898438-.2338867-.1328125-.2373047-.1259766-.5063477-.2695312-.6679688-.5263672-.2885742-.4609375-.5410156-.9111328-.7573242-1.3544922.0913086.3359375.1816406.671875.2709961,1.0087891l.1079102.4052734-.4155273.0546875c-5.887207.78125-6.8188477,1.7382812-6.6430664,6.8261719l.0087891.2441406-.5107422.2353516c-.2211914.1015625-.4467773.2041016-.6679688.3164062-2.0292969,1.0263672-2.484375,2.3193359-1.5224609,4.3232422.5234375,1.0888672,1.1123047,2.1738281,1.6816406,3.2216797.262207.4833984.5244141.9658203.7817383,1.4511719l.1899414.3583984-.375.1552734c-3.0283203,1.2490234-4.2978516,2.0771484-4.6831055,3.0537109-.2885742.7304688-.1147461,1.6669922.5991211,3.2353516l.0737305.1621094-.0810547.1582031c-.1455078.2841797-.3012695.5556641-.4541016.8222656-.3115234.5419922-.605957,1.0546875-.7563477,1.5878906-.2714844.9609375-.0214844,2.0322266.6523438,2.7958984.5966797.6757812,1.4033203.9941406,2.2109375.8701172Z" stroke-width="0"/>
      <path d="m264.2266506,85.817142c-.109375-.1074219-.2182617-.2138672-.3198242-.3222656-.4228516-.4492188-.8613281-.8876953-1.2993164-1.3251953-.918457-.9179688-1.8676758-1.8662109-2.6616211-2.9208984-1.8754883-2.4921875-2.2651367-4.8701172-1.1923828-7.2695312.1918945-.4287109.1640625-.8671875-.0786133-1.234375-.3168945-.4785156-.9506836-.7617188-1.7036133-.7636719-.2324219.09375-.4858398.1904297-.7543945.2929688-.8125.3095703-1.7338867.6601562-2.5854492,1.1357422-.2182617.1210938-.4941406.8251953-.4082031,1.1630859.1162109.4521484.6508789,1.0185547.9121094,1.046875,1.7128906.1826172,1.925293,1.2705078,1.9077148,2.3105469-.0029297.1806641.0400391.3769531.0859375.5859375.03125.1435547.0625.2880859.0820312.4326172.6411133,4.734375,4.046875,7.34375,6.9418945,9.0878906.3564453.2138672.5039062.2324219.5673828.2236328l.1503906-.0224609c.3183594-.0449219.9106445-.1298828,1.0249023-.296875.1699219-.2509766.1875-.84375.0356445-1.2431641-.1162109-.3066406-.4018555-.5859375-.7045898-.8808594Z" stroke-width="0"/>
      <path d="m267.1260646,79.145267c.3833008-.0068359.7871094-.1621094,1.2148438-.3261719.1826172-.0703125.3652344-.1396484.5473633-.1992188,1.0234375-.3320312,1.0483398-.8984375.9550781-1.3544922-.1376953-.6777344-.6005859-.9433594-1.5112305-1.2021484-.2050781.1201172-.4145508.2363281-.6240234.3525391-.6137695.3388672-1.1933594.6591797-1.6542969,1.0966797-.1625977.1542969-.2197266.8886719-.0507812,1.2050781.1000977.1884766.6708984.4404297,1.1230469.4277344Z" stroke-width="0"/>
    </g>
  </g>
</svg>