<?xml version="1.0" encoding="UTF-8"?>
<svg id="Layer_2" data-name="Layer 2" xmlns="http://www.w3.org/2000/svg" viewBox="0 0 232.2593252 373.6251059">
  <g id="Layer_1-2" data-name="Layer 1">
    <g>
      <path d="m170.9954115,373.6251059c-.0784341-2.0592974-.1866474-4.1180215-.2289844-6.1780486-.0839444-4.0847957-.1196247-8.1705555-.1974466-12.2555076-.0811958-4.26286-.2028787-8.5249904-.2803619-12.7879286-.0756594-4.1618275-.4864713-8.2973609-.8824327-12.4360736-.2165568-2.2634212-.3527777-4.5349991-.4985732-6.8045964-.2392625-3.7242629-.4836315-7.4485258-.6772873-11.1752905-.2968538-5.7129652-.6260921-11.425748-.8032821-17.1429349-.1520744-4.9071543.1450269-9.8106343.6476123-14.6942569.4982866-4.8416148,1.0621889-9.6765322,1.6071373-14.5132999.605119-5.3709347,1.0451369-10.7525016,1.140102-16.1598414.0430665-2.4524045.1248745-4.9042617.2061354-7.3557802.0623852-1.8824057.1993746-3.7634303.2191101-5.6459403.0465707-4.4428528.1198462-8.88766.0384941-13.3290274-.0852732-4.6548205-.2519766-9.3119342-.5430335-13.9580117-.2777045-4.4329632-.8064997-8.8496001-1.1417043-13.2797098-.3219042-4.2542865-.5567767-8.5155438-.7932645-12.7757718-.2108902-3.7990536-.3057511-7.6055732-.5745192-11.4000794-.2335437-3.2972003-.5664165-6.591482-.9852659-9.8704538-.6213894-4.8643256-1.398149-9.7086896-2.0302465-14.5717644-.4167521-3.2061095-.7843151-6.4237763-1.0151102-9.6476583-.3373019-4.7116301-.6150194-9.4308827-.763316-14.1517509-.1361036-4.3334942-.0961114-8.6735424-.0790855-13.0104895.0124275-3.1627921.0441347-6.3285485.1949455-9.4868845.1490131-3.1209146.4644821-6.2337051.6948343-9.3509583.1204975-1.6308276.2002343-3.2646977.3243924-4.8952061.2427797-3.1884998.5541583-6.3726216.7435935-9.5641117.202032-3.4037575.36854-6.8128312.4203996-10.221566.0810655-5.3276173.0474695-10.656922.0723636-15.985458.0144336-3.0903859.007282-6.1816839.0833843-9.2707603.1025206-4.1616125.550576-8.295628,1.091434-12.4223175.5592779-4.2673097.9306708-8.5563676.9048778-12.8619668-.0232007-3.8728654-.1675111-7.7455582-.3009572-11.6168592-.0378818-1.0988105-.2328533-2.1916938-.3393341-3.2888941-.0436657-.4499527-.043809-.9041312-.0668142-1.4257004h22.1386386c.1266201.6669934.2840876,1.3483284.3824917,2.0380945.838767,5.879813,1.6102768,11.7646836,1.4732613,17.7271943-.0800364,3.4824653.0011985,6.9730317-.2056665,10.4471124-.2787466,4.6812318-.7634593,9.3502319-1.1633157,14.0241833-.1332247,1.5574246-.3050867,3.1120218-.4114502,4.6711793-.3433984,5.0346894-.7296679,10.0678021-.9698683,15.1076904-.143607,3.0134714-.0561974,6.0385001-.0524588,9.0583104.0043379,3.5162367-.0135348,7.0333529.0580993,10.5484495.1042532,5.1160145.3064415,10.2300093.4149674,15.3459651.0633491,2.9864151.0187846,5.9750062.035055,8.9625549.0238259,4.3735997.0518986,8.7471995.0921904,13.1206689.0157233,1.7058789.1135803,3.411862.0971405,5.1170373-.0388849,4.0367941.5278964,8.0093777,1.1495203,11.9817007.5824915,3.7223997,1.1893171,7.4436527,1.6458919,11.1824568.6416851,5.2547225,1.247195,10.5173019,1.6952373,15.7912302.4150847,4.8862286.6243074,9.7906336.8823415,14.6892535.1439457,2.7329216.265811,5.4698304.2869144,8.205801.0471308,6.1110497.1073014,12.2244447-.308148,18.3279371-.106142,1.5593335-.2989641,3.1127384-.4061353,4.6720197-.1607632,2.3392673-.2933366,4.6806975-.4155536,7.0223623-.1648146,3.1579385-.309138,6.3169716-.4608607,9.4755616-.1500943,3.1242176-.356334,6.2470801-.4321888,9.3730958-.0852862,3.5140412-.0616817,7.0308968-.0677261,10.5465797-.004885,2.8411336.0223539,5.6823453.0249593,8.523505.0042467,4.6157052.0246987,9.2315668-.0099134,13.8470114-.0208037,2.7715287-.1816842,5.5421975-.1925355,8.3135699-.0151762,3.8751472-.0205562,7.7529265.1035367,11.6252854.1103757,3.443863.4107337,6.8814457.6127788,10.3226507.2540479,4.3269663.4869663,8.6551574.7405843,12.9821759.3430988,5.8534518.7565681,11.7035159,1.0272772,17.5602251.2048979,4.4326114.2621766,8.8729364.3305149,13.3106555.0432228,2.807126.0247118,5.6166494-.0383638,8.4234887-.0494887,2.2021033-.264339,4.4006364-.3083694,6.6027137-.0703184,3.517898-.0669054,7.0373856-.0799713,10.5562738-.0049892,1.343548.0304826,2.6872524.0475346,4.0309047h-23.9042074Z" stroke-width="0"/>
      <path d="m128.5227572,373.6251059c-.0909398-.8440401-.1459779-1.6937612-.2788769-2.5311301-.6695363-4.2192365-.9752614-8.4704479-1.1689953-12.7329692-.0999934-2.200227-.2588287-4.3984996-.3189993-6.5996386-.0649384-2.3757896-.0603921-4.7539246-.0594411-7.1310173.0011985-3.013986.0408128-6.0279721.0428711-9.0419581.0026184-3.8291002-.0546863-7.6586173-.0149547-11.4872223.0456588-4.3999068-.0063701-8.7958264-.1865432-13.1925018-.2150197-5.2469437-.3545493-10.4969886-.5644234-15.7441929-.1803294-4.5086529-.4218716-9.0148302-.6207772-13.5228056-.1503418-3.4075883-.2076856-6.8207532-.429388-10.2234163-.3031197-4.6524491-.1282224-9.3029698-.1346706-13.955054-.0036866-2.6623656-.1208232-5.3249137-.2085193-7.9866799-.0971015-2.9474302-.2154235-5.8941567-.3308536-8.8409614-.1223343-3.1229407-.3314138-6.244839-.3611669-9.3685354-.0521201-5.4743647.0293493-10.9499021.004846-16.4247229-.0147984-3.3034937-.1078616-6.6070004-.1957401-9.9096993-.0736924-2.7701346-.1377059-5.5422366-.2992377-8.3080192-.4025529-6.8928207-.0641568-13.7918566-.2330227-20.6860845-.1505763-6.1478456-.2295706-12.2979454-.4399397-18.4436411-.1604897-4.6885805-.4645342-9.3725355-.7279874-14.0572462-.2255974-4.0111646-.4496968-8.0229677-.736559-12.030028-.4043115-5.6474908-.2962676-11.2983693-.1180615-16.945352.2140818-6.7838921.5239753-13.5653542.8605347-20.3444839.1284308-2.5869104.4601963-5.1632538.6715425-7.7466918.1332116-1.6284823.1369503-3.2706979.3343839-4.8902092.5982279-4.9069849.8410988-9.8401336,1.145951-14.7678097.212753-3.4391593.3061158-6.8858889.4384286-10.329791.1282354-3.3380877.1842244-6.6798464.3680581-10.0146929.3128376-5.6752735.6379204-11.351358,1.0833444-17.0172273.233674-2.9721915.7621436-5.9201233,1.1071312-8.8848716.5708717-4.9059816,1.3001748-9.7982324,1.2521582-14.7595391-.0178206-1.8412827.077405-3.6836596.1205496-5.503297.8400175-.2162221,22.0728926-.2822639,23.5094185-.0896952.037465.0843112.1161205.1786714.1157949.2727574-.0066567,1.9191507.0770793,3.845272-.0573829,5.7559112-.2618509,3.7210491-.6259488,7.4354591-.9861778,11.1488845-.483879,4.9880201-.9782054,9.9753171-1.5173178,14.9575911-.4126487,3.8135133-.9586132,7.6130686-1.3396068,11.4293833-.3386957,3.3924966-.5466289,6.7984789-.7862822,10.2003406-.3371716,4.7862416-.6519893,9.5740632-.9730077,14.3614286-.1569334,2.3405768-.306715,4.6816422-.4588936,7.0225382-.182088,2.8013929-.4302087,5.6005121-.5279485,8.4048627-.1225427,3.5163279-.1999086,7.0380241-.1525043,10.555466.0517032,3.8364945.2539697,7.6713734.4161919,11.5058744.3668726,8.6723697.1935907,17.3490522.2519896,26.024067.0227317,3.3748967.2226273,6.7495457.3828565,10.1223576.2092228,4.4035551.4258578,8.8072405.7008918,13.2070169.2816646,4.5059949.6524843,9.0063479.9547182,13.511144.1428124,2.1284853.2070082,4.2621043.3234414,6.3924919.3123687,5.71505.6658107,11.4280803.9394247,17.1449415.1648536,3.4442279.22393,6.893837.3074055,10.3415829.1127075,4.6559671.1607372,9.3138626.313007,13.9684225.2358364,7.209352.5682533,14.4155769.7951013,21.6251635.1049566,3.3354817.0604702,6.6757062.0784602,10.0138199.0375301,6.9649924.0461668,13.9302193.1165244,20.8948469.0419722,4.1547132.187442,8.3082798.2704485,12.4627064.1135933,5.6836483.2879174,11.3676093.2879305,17.0514401.000013,3.3013177-.2773267,6.603313-.453709,9.9037187-.1649579,3.0865356-.3479838,6.1722634-.54814,9.2567403-.1632513,2.5157029-.3664297,5.0287739-.5465377,7.5434084-.1775417,2.4790112-.3523348,4.9582569-.5210052,7.4378675-.1737249,2.5535934-.3543148,5.1069002-.5033019,7.6619789-.1757701,3.0142988-.3624435,6.0289623-.4669181,9.0461276-.0946524,2.7332995-.111952,5.4701691-.1147788,8.2055013-.0034521,3.339573.0030222,6.6801624.0842831,10.0184064.0492411,2.0226838.2481728,4.0417194.3798733,6.0623966h-20.2758902Z" stroke-width="0"/>
      <path d="m54.4624003,373.6251059c-.2468115-4.5382304-.4720898-9.0777638-.7460555-13.6143525-.3211422-5.3178516-.6443752-10.6361461-1.0417499-15.9486294-.3577799-4.7830591-.7645991-9.563799-1.2485367-14.3355744-.368996-3.6384491-.9208421-7.2580051-1.3358746-10.8922846-.2214289-1.9388505-.2472805-3.9013631-.4996153-5.835132-.4292903-3.2898776-.3783231-6.5836121-.3133652-9.885034.040409-2.0539552-.0249202-4.1098128.0036931-6.1641849.0538201-3.8652446.1545299-7.7298378.2096787-11.5950824.0319025-2.2357461.0091187-4.4723.0178662-6.7084369.0098678-2.5229996-.0181007-5.04725.0524392-7.56866.1052888-3.7636909.3098284-7.5245413.4191555-11.2881801.0721422-2.4838583.0654595-4.9704007.068384-7.4557704.0035107-2.9849818.0613691-5.9730127-.049417-8.9543462-.2228488-5.9967528-.5392948-11.9900658-.8266065-17.9843169-.154784-3.2294978-.3777695-6.4564679-.4839636-9.687373-.1831627-5.5727913-.2540348-11.1494264-.4565944-16.7213708-.1883735-5.1817169-.5082716-10.3585085-.7297851-15.5391961-.1472545-3.4439021-.216153-6.8911008-.3332375-10.336371-.1291538-3.8006041-.2455088-7.601951-.4177486-11.4006918-.2301503-5.0758503-.50848-10.1495116-.7665662-15.224098-.2453395-4.8238943-.8216694-9.6245697-.7532789-14.4723735.100306-7.1105345.0106885-14.2235317.0569986-21.3351216.0245229-3.7660232.0992704-7.5343266.2722332-11.296037.1695368-3.6869783.5380833-7.3644319.7372364-11.0505047.2970362-5.4976749,1.0444204-10.9797728.6872527-16.5020022-.1880608-2.9076504-.3979935-5.8169034-.7177679-8.7122081-.3624175-3.2813888-.8508623-6.5490702-1.2998556-9.8206053-.2848366-2.0754543-.5692889-4.1517685-.9114042-6.2181736-.1443235-.8717413-.4160747-1.7250065-.665485-2.5762391-.8590952-2.9320974-1.6910688-5.8731788-2.6142556-8.7851811-1.0075417-3.1780793-1.5610943-6.38671-1.476277-9.747383.0916172-3.6303951.348798-7.2340955.8031258-10.8341118.5869858-4.6511901,1.0996474-9.3117612,1.6457291-13.9681261.0410017-.349573.0933693-.6978132.1462449-1.0895928h23.8515467c.0224125.2505376.0660326.4530538.0546407.6524258-.2980067,5.2170738-.5776782,10.4353651-.9122639,15.6501246-.254849,3.9719305-.5725782,7.9399227-.8766292,11.9085713-.5273493,6.8831624-.6986381,13.7764326-.5194355,20.6753903.039445,1.5187133.2747344,3.0402312.5207121,4.5439505.4360187,2.6655742.928339,5.322526,1.4355619,7.9757252.6403825,3.3497558,1.3895253,6.6802732,1.9575051,10.0417818.3959874,2.3436518.6090857,4.7215002.8275965,7.0911072.3295054,3.5733786.5892915,7.1531613.8843346,10.7297517.5063632,6.1381841.5636027,12.2885966.4481987,18.4403707-.0999934,5.3300539-.3136909,10.6579905-.4133651,15.9880639-.1030091,5.5084244-.1404285,11.018191-.1855857,16.5275405-.0419722,5.1209592.2659217,10.2278333.5741414,15.3379518.2438479,4.0429833.2999672,8.0988529.3734772,12.1501882.1043834,5.7527971.1614471,11.5065584.2135281,17.2601373.0382531,4.2257904-.0042988,8.4525972.0637204,12.6777491.0634859,3.9435533.1853317,7.8872631.3568746,11.8276111.1296423,2.9780761.3297268,5.955201.589057,8.9248208.2038232,2.3339903.5332634,4.6575567.8299804,6.982791.3957269,3.101181.7925741,6.2025184,1.2277069,9.2983312.533791,3.7977246,1.1336993,7.5862762,1.6497348,11.38632.1763758,1.2988039.1807854,2.6206444.2724416,3.9313575.178434,2.5517432.3660975,5.1028349.5443166,7.6545781.2573892,3.685278.5381159,7.369279.7564639,11.0569023.2266135,3.8273542.4451178,7.6567671.5633227,11.4884471.0798736,2.5892167-.0604767,5.1844271-.0302872,7.7761194.0483618,4.1525242.1711,8.3041885.2332572,12.4566085.0323389,2.1600954-.0158015,4.3212853.0044747,6.4816674.0349247,3.7227254.090041,7.4452684.1459779,11.1677593.0405132,2.6960345.0639549,5.3928507.1516966,8.087504.1757831,5.3984535.4110333,10.7950307.5827,16.1936145.1480621,4.6561756.4851621,9.2977579.9728319,13.9286558.5882689,5.5861598,1.3497611,11.1462081,2.6323433,16.6231006.0484335.206834.0712043.4196877.1059206.6297271h-27.3190942Z" stroke-width="0"/>
      <path d="m7.0808463,373.6251059c-.1841935-4.0457065-.3502065-8.0923511-.5588203-12.1368067-.1446247-2.8038425-.3008514-5.608597-.5360169-8.4058986-.3570504-4.2471722-.7950427-8.4874908-1.1832726-12.7321352-.2459615-2.6891287-.4816872-5.3794561-.6894787-8.071738-.199495-2.5847866-.4732149-5.1713452-.5061629-7.7597801-.0509998-4.0066694-.045439-8.0163095.4553846-12.0113564.3223439-2.5713138.4990014-5.1626935.6834685-7.7491739.27775-3.8944052.6236691-7.7894358.721873-11.6897304.1054093-4.1863494.0317332-8.3815591-.1087783-12.5680388-.076086-2.2668611-.4796111-4.5211875-.6905876-6.7853645-.3325927-3.5693133-.6014031-7.1396951-.4550915-10.7342861.0936868-2.3016765-.0137204-4.6111188.0608968-6.9140722.0839477-2.5908845.308104-5.1770262.4048163-7.7677022.1431103-3.8334782.2798864-7.6685199.3230701-11.5040046.0472318-4.194949.0294942-8.3919047-.0409024-12.5866192-.0894287-5.3288747-.2629354-10.6563292-.3936654-15.9845524-.0244235-.9954066-.035664-1.9917903-.0229027-2.9873402.0506318-3.9500552-.3419622-7.8769435-.5870135-11.8120536-.156777-2.5175401-.3128409-5.0381553-.3533166-7.5592656-.0706099-4.3981738-.0257165-8.7980806-.0781345-13.1966844-.0482739-4.0506056-.1024571-8.102827-.267143-12.1497192-.0980834-2.4102272-.4219221-4.8109297-.6303893-7.2171047-.2113478-2.4394138-.4186686-4.8793098-.6042967-7.3207823-.2775986-3.651101-.5255695-7.304443-.8032332-10.955544-.2396044-3.1506419-.4992164-6.2997723-.7574816-9.4489679-.1449243-1.7671447-.3978405-3.531032-.4366309-5.3000138-.0584104-2.663851-.0166759-5.3324058.0725069-7.9959441.0426122-1.2726011.2771069-2.5403291.4511378-3.8066369.3675516-2.6744442.7011116-5.3550124,1.1424973-8.0175018.6448034-3.8895321,1.4301818-7.756223,2.0431935-11.6503611.3863167-2.4540723.61046-4.9366536.8294952-7.413339.2722414-3.0782813.5048895-6.16139.6774452-9.2467334.1308245-2.3391631.2406319-4.6877466.1784194-7.0273136-.0716488-2.6945035-.3923937-5.3814823-.5128407-8.0758489-.1126424-2.5197161-.0875121-5.0452825-.1556323-7.5673928-.0498339-1.8451472-.1637333-3.6884735-.2281474-5.5333406-.0532925-1.5263976-.0391226-3.0558441-.1210414-4.5803784-.1161466-2.1615385-.2994705-4.3193895-.4401351-6.479726-.0414984-.6373104-.0069498-1.2799499-.0564905-1.9163091-.3508644-4.5067001-.1921007-9.0179231-.1034048-13.5266103.0831465-4.2267017.4017404-8.4408142.8794919-12.6422728.1165211-1.0247202.1902835-2.0542816.3045835-3.0792876.0584771-.5243931.1631276-1.043635.2563862-1.6242178h21.7646843c.0337295.2534162.0954959.5212899.1013254.7903756.1039373,4.7990808.2050868,9.5982321.2980295,14.3975385.0474695,2.4511829.1524717,4.9043806.0975965,7.3536661-.0771966,3.4455406-.2973521,6.8876251-.4213538,10.3324491-.0984074,2.7338989-.1345469,5.4699867-.2169574,8.2045371-.0523676,1.7376551-.1701783,3.4737044-.2023186,5.2115126-.0438546,2.3710371-.0197942,4.7432794-.0544714,7.1145705-.0134892.9224759-.1054484,1.8439126-.1653747,2.7655904-.2076693,3.1939853-.2508921,6.3860878-.0258158,9.5835521.1022242,1.452229.0466097,2.9148363.0995472,4.3713977.1782451,4.9043985.0549013,9.8047513-.1633165,14.704368-.1123265,2.5220745-.2165699,5.0445529-.3399235,7.5660931-.2570049,5.2534977-.5468275,10.505497-.7759454,15.7601739-.0882335,2.0236415.0213899,4.0563583-.0796782,6.0789249-.2734121,5.4715503-.0833647,10.9389832.0736891,16.4061685.1040024,3.620429.288331,7.2388123.4627626,10.8568698.1676967,3.4784179.3663613,6.9553374.5560961,10.4326608.2420991,4.4370806.52052,8.8724804.7236072,13.31132.1606948,3.5122952.2040121,7.0298153.3491855,10.5429575.171621,4.1531236.3972771,8.30398.5979478,12.4558919.029193.6039542.0554679,1.2081691.0732332,1.8125403.0710024,2.4156085.1738616,4.8309695.1981468,7.2470992.0350094,3.4830304-.0145867,6.9669469.0227838,10.4499252.0255357,2.3801676.208376,4.759788.1958085,7.1389784-.0225233,4.2633942-.1261251,8.526593-.22152,12.7893228-.0588354,2.6289313-.1109652,5.2598953-.2606101,7.8845529-.4228909,7.4170981-.3793392,14.8392518-.3740373,22.2631775.0029766,4.1713392.4957789,8.2923054.9895908,12.418275.5994068,5.008239,1.3916975,10.001155,1.5179822,15.0518189.141171,5.646253.1509769,11.2956331.2399041,16.9433454.036882,2.3423814.1622841,4.6834598.1910732,7.0258413.0410148,3.3373319.0966097,6.6766965.0251091,10.0126212-.0958118,4.4700067-.2610009,8.939805-.4815797,13.4054859-.2311338,4.6793164-.6055554,9.3515185-.8394574,14.0307307-.2552138,5.1053626-.437507,10.2146082-.6186864,15.3233325-.0867908,2.4473229-.1047221,4.8972778-.1402526,7.3462424-.020058,1.3824548-.012522,2.7653526-.0174168,4.148042H7.0808463Z" stroke-width="0"/>
      <path d="m96.0813329,373.6251059c-.1466813-1.3389616-.3413141-2.6747439-.4305735-4.0175101-.2190189-3.2946465-.3475149-6.5956255-.5930953-9.8880569-.18498-2.4798712-.5390864-4.9469211-.736077-7.4261929-.1744023-2.1949109-.2852991-4.3976135-.3366636-6.598909-.0978179-4.1929164-.2245813-8.3884909-.1676804-12.5806255.0525499-3.869779.3408712-7.7359878.504357-11.6046723.1095029-2.5908845.1862306-5.1831762.2706961-7.775077.1539242-4.7228878.3414835-9.4451763.4400179-14.1692628.0659805-3.1630462-.0302221-6.3291414.0053931-9.4932039.0432098-3.8380907.0390282-7.6816017.2526931-11.5117443.3350222-6.0057173.2546341-12.0122424.1208753-18.0131648-.0988601-4.4352434-.4992115-8.8651446-1.1521647-13.2685173-.7345138-4.9533578-1.3432022-9.9254262-2.0074366-14.8892338-.5276814-3.9433449-1.1309702-7.8784289-1.5620126-11.8322757-.3617205-3.3179176-.6311269-6.6539205-.7472996-9.9886856-.1620333-4.6511982-.1274668-9.3089634-.2088645-13.96338-.0379014-2.1672748-.1705333-4.3327515-.2249331-6.4999221-.0865107-3.4454266-.1706766-6.8913483-.204227-10.3375567-.026288-2.6996307.1039405-5.4023624.0231551-8.0994914-.1042727-3.4811411-.327154-6.9594157-.5416396-10.4362961-.1531751-2.4831025-.422295-4.9593645-.5581706-7.4431446-.2154431-3.9379375-.3403827-7.8807482-.5437369-11.8194284-.3683837-7.135278-.7435935-14.2703475-1.1586195-21.4030196-.3822702-6.5697224-.5482898-13.1417119-.4733989-19.7225943.0602944-5.2987174.0775939-10.5985358.0460301-15.8974617-.0216049-3.6253542-.0251286-7.2595361-.2801144-10.8725837-.322497-4.5695018-.5948279-9.1491016-1.3652044-13.6817618-.3087277-1.8164688-.3017323-3.68462-.4905552-5.5238907-.3775415-3.6772679-.7961174-7.3502947-1.1882358-11.0260902-.3842503-3.6019528-.9373405-7.1884133-.9086555-10.8270578.0406761-5.1600289.4089621-10.2932556,1.0606583-15.4127295.3587895-2.8185384.6496184-5.6512181.8202234-8.486604.1535464-2.551946.0994658-5.1163141.1414641-7.6751294.0068846-.4199078.0370286-.8394338.0554158-1.2371774.8554282-.2200133,24.4454758-.266509,25.7238177-.0485397.0147984.4245358.041881.8755524.0444473,1.3267088.0196834,3.4491327.1769946,6.9050743.0132482,10.3456498-.1856965,3.9022678-.6906267,7.7883617-1.0012628,11.6859135-.3584443,4.4974115-.7543536,8.9953573-.9516699,13.501059-.1818015,4.1514981-.185983,8.3141953-.1463687,12.4707979.0270826,2.8415766.3606067,5.6803225.3850449,8.5218144.0425193,4.9394941-.0417247,9.880187-.0849475,14.820274-.0289064,3.3052397-.0891421,6.6101992-.1164462,9.9154454-.0290888,3.5202499-.0248811,7.0407733-.0547905,10.5610167-.0612909,7.2160428-.1450009,14.4318967-.2000519,21.6479851-.0217026,2.8431402-.0843873,5.6906844.0371914,8.5291078.1763953,4.1183472.5201324,8.2292284.7598899,12.3452043.1838206,3.1556323.3211226,6.3140138.4723373,9.4714963.4014456,8.3830184.1139972,16.7732031.2622026,25.1587493.0313815,1.7754316.1721617,3.5487133.2201392,5.3241189.101726,3.7652154.2234741,7.5308738.2481337,11.296923.0279424,4.2644887.0602748,8.5333815-.0982478,12.7933229-.1471242,3.9536123-.1064286,7.8911589.2876178,11.8221516.2622156,2.6159016.6477556,5.2191904.93566,7.8328248.4239298,3.8485926.7850576,7.7041432,1.2187706,11.5515892.4935709,4.3782774,1.0660579,8.7476946,1.5494158,13.1270404.3117825,2.8247682.6656023,5.6561556.7519176,8.4921294.1599425,5.2558561.2209599,10.5182531.1612843,15.7760897-.0382075,3.3670137-.3804335,6.729962-.5611016,10.0961157-.207386,3.8641241-.4562492,7.7279876-.55692,11.595317-.0840487,3.2280646-.0298313,6.4622792.0525109,9.6914643.109529,4.2954083.2411644,8.592302.4867188,12.8815081.1725003,3.0129176.4742652,6.0238286.856327,9.0180355.4987034,3.9085034,1.1361028,7.7992863,1.7094756,11.6983301.4286846,2.9151946.8440168,5.8323436,1.2775864,8.7467825.2928415,1.9685583.6410208,3.9294031.9048126,5.9016358.5979673,4.4706061,1.2302081,8.938476,1.7139828,13.4219815.4341819,4.024051.6886857,8.0675164,1.0224443,12.1024082h-25.18479Z" stroke-width="0"/>
      <path d="m210.2666094,373.6251059c-.631902-4.855739-1.4514155-9.6873469-1.2621627-14.6236357.1549403-4.0419278.0845437-8.0919862.1906336-12.1364419.0940011-3.584063.3000063-7.1651291.4441083-10.7480194.0913697-2.2710045.1205757-4.5451362.2483161-6.8138996.1675762-2.9770337.4347551-5.9484386.6038424-8.9254202.1873769-3.2988421.3606328-6.5999253.4520546-9.9024418.1042401-3.7641078.2244511-7.5336621.1313097-11.2957634-.1099198-4.4393087-.3988273-8.8759072-.6858849-13.3087531-.4363183-6.7378581-.9251604-13.4724326-1.4164256-20.2066163-.2922684-4.006513-.61046-8.0113843-.9569718-12.0135454-.2697321-3.1154356-.6459449-6.2220891-.8874349-9.3394009-.1315182-1.6974617-.108539-3.4090476-.1069757-5.1142229.0037257-4.0879228-.0657591-8.1793636.0760502-12.2630648.4048196-11.6584721.0501009-23.3201235.2481598-34.9780874.0549208-3.2324295.3093855-6.4626701.5176053-9.6909952.2126749-3.2972264.4810782-6.5908305.724861-9.8860504.2595191-3.5082951.5783621-7.0135672.7570631-10.5259927.1172669-2.3046603.0339217-4.6196402.0366573-6.9300076.0070605-5.9340016.024829-11.8680163.0131049-17.8019788-.0071908-3.623491-.0783429-7.2468386-.0893636-10.8703426-.0118804-3.9069919.0287891-7.8141272.0179509-11.7211321-.0159708-5.7598853-.063753-11.5196729-.0855598-17.2795451-.0154497-4.0891606-.0867582-8.1801585.0079463-12.2670649.0872272-3.7647007.2242687-7.5383984.5858394-11.2843363.6297135-6.5238707.7657911-13.0557743.6678819-19.5971863-.074487-4.9758113-.2805964-9.9496452-.3560995-14.92545-.0588028-3.8742319-.0263141-7.7502847.0008077-11.6252821.0398098-5.6886208.0895199-11.3769875-.3104016-17.0568523-.2122059-3.0139844-.4531228-6.0259431-.678642-9.0389973-.0317071-.4236849-.0497101-.8483968-.0786816-1.3534963h19.019798c0,.2792422.0289194.5212998-.0048199.7542685-.1810459,1.2492454-.1127596,2.4490578.3010484,3.6739155.2653811.7855301.2469092,1.6799041.2783818,2.5283548.0400182,1.0804166.2634532,2.0936039.6805961,3.0969301.2658501.639431.4419719,1.3654103.4472347,2.0541995.0125578,1.6363726.2137431,3.2304726.4949908,4.8441417.3584183,2.0565351.4328532,4.161588.6595188,6.242479.1232592,1.1314386.2558195,2.2590856.0326972,3.3886235-.3959874,2.0047891-.1338369,4.0406754-.294535,6.0499646-.2427667,3.0355698-.2024098,6.0906744-.6793194,9.112019-.1761739,1.1161857-.1345404,2.2671901-.1857876,3.4026044-.082251,1.8219184-.7126158,3.5412766-.9866728,5.323526-.1645801,1.0700669-.15382,2.1737571-.1474629,3.2618963.0093272,1.592341.129486,3.1845746.1191948,4.7763065-.0084153,1.3077032-.1685402,2.613869-.2011853,3.9222172-.0167264.6697805.1080179,1.3422451.1525694,2.0145728.112473,1.6983412.2635313,3.3959201.3124077,5.0962939.0936624,3.2568407.0765713,6.5173819.2040512,9.7725288.0804272,2.0543396.3810588,4.0991479.5067409,6.1528947.1191948,1.9468378.1605678,3.89935.1965999,5.8501032.0354067,1.9155925.0134176,3.8321947.034078,5.7481585.0049502.4607705.0254282.9333459.1301113,1.379041.5107011,2.1745063.4302739,4.3836196.329108,6.5781526-.0862111,1.8697799-.3745454,3.730198-.5717966,5.5949289-.1332898,1.2601056-.2742133,2.5194946-.3932779,3.7809553-.2628018,2.7840243-.4992636,5.5706023-.7754309,8.3532845-.1561127,1.5731059-.3882235,3.1386154-.548166,4.7114086-.0644304.633636.0384029,1.286582-.0476519,1.9153058-.4638829,3.3898157-.3589133,6.7998535-.2939618,10.1979822.0493454,2.5816855.3895262,5.157664.5964693,7.736496.0878264,1.0945759.1420698,2.192344.2537092,3.2843661.1945677,1.9035921.3620657,3.8129694.649879,5.7033102.3894219,2.5577759.8996801,5.0969324,1.317318,7.6507473.1079918.6603209.0694847,1.3453852.0882693,2.0193482.0643001,2.3037613.0995244,4.6086301.1919884,6.9112187.1103367,2.746681-.2483942,5.4582991-.5152604,8.1792985-.2736141,2.7896401-.4851165,5.5854041-.7634463,8.374536-.313033,3.1370258-.6791892,6.2686964-1.0051447,9.4044844-.2051454,1.9733402-.4214678,3.9469802-.5581445,5.9256626-.3106882,4.4970825-.557884,8.998517-.8649247,13.4958601-.1914673,2.8044679-.1697126,5.6003101-.0085195,8.4074882.1218263,2.1222571.0072429,4.2572572.0338435,6.3861334.0186022,1.4882563.0415293,2.9802911.1614276,4.462658.2858592,3.5347324.5921183,7.0688133.9654652,10.5951806.2234089,2.1102958.6006118,4.2039396.8872265,6.3080332.3096982,2.2736626.6457365,4.5456313.8727147,6.8280499.1637464,1.64675.1374584,3.3114809.2507391,4.964433.1439717,2.1004974-.0864456,4.195366-.0351201,6.2926842.041373,1.6914159.1417832,3.3817373.161636,5.0732053.0119586,1.0198373-.114401,2.0407691-.1179182,3.0614403-.0065394,1.9013249.0343385,3.802728.0493193,5.7041571.0093272,1.186227-.0487722,2.3760763.0258972,3.5578472.0781345,1.2363915.3045917,2.4626719.4192793,3.6977344.1238845,1.3340624.188862,2.673493.2885688,4.0099268.0497622.6670963.1196638,1.3327334.1807333,1.9989958.0032567.0354148.0206604.0733053.0126881.1053845-.2845305,1.1395024-.1593173,2.2922951-.1387871,3.4454005.0220413,1.2396229-.1093206,2.4860733-.0254282,3.719468.1144531,1.682269.4421282,3.3509089.5370933,5.0333603.0592978,1.0514996-.1445449,2.1174621-.2249461,3.1773528-.1571288,2.070946-.5903988,4.1187512-.4995502,6.212421.0126099.2911364-.3156644.627929-.2486287.8805494.3090989,1.1647801-.3638634,2.2058819-.3282483,3.3563553.0410864,1.3279384-.4114372,2.6661964-.4231352,4.0019526-.0159187,1.8199933-.4984559,3.5697563-.5974332,5.3709608-.0756073,1.3763048-.2451636,2.7472934-.3287172,4.1233376-.081313,1.3391961-.1280009,2.6814412-.1504851,4.0230347-.02436,1.4526851-.0436396,2.9075852.0089885,4.3588631.0591154,1.6295768.2112419,3.2555834.3038882,4.884222.0805314,1.4161497.094939,2.8371204.2113982,4.2499345.118778,1.4416359.3153778,2.8773823.4982996,4.3131027.1837294,1.4420528.3751707,2.8835584.5948018,4.3204775.2831236,1.8525937.5942286,3.7009397.9034318,5.549416.034573.2066255.0786295.4597933.2145507.5931135.6399265.6275641.5742195,1.4132571.5589001,2.194963h-21.9833336Z" stroke-width="0"/>
    </g>
  </g>
</svg>