<?xml version="1.0" encoding="UTF-8"?>
<svg id="Layer_2" data-name="Layer 2" xmlns="http://www.w3.org/2000/svg" viewBox="0 0 115.3758226 92.9814725">
  <g id="Layer_1-2" data-name="Layer 1">
    <g>
      <path d="m6.1008467,26.3763683C-3.3199782,22.0063754.5484651,8.5446111,6.5691645,2.7763201c.6365815-.5922302,1.6579429-1.5394209,2.5522029-1.3771664-.3784551.050087-.7430464.2542561-1.0398265.5003507-3.6948782,4.0870581-5.8865455,10.0068262-5.2513763,15.5411131.3073788,3.2318171,2.2609612,5.9510682,3.275241,8.9362307-.0015419.0001259-.0030632-.0000542-.0045589-.0004798Z" fill="#423b30" stroke-width="0"/>
      <path d="m13.1636916,44.2237799c-8.5973819-.5527442-9.9176726-10.7066322-8.9252729-17.5497738.2042316-1.2513363.3524135-2.5235692.7829176-3.7221072.0752952-.2148478.1175908-.2801783.2832162-.2529533.1297617.201203.1420775.2659077-.0360141.0645435-.0122389.0050781-.0250728.0105091-.0382305.0167275-.3733037,4.6700791.3313232,9.5539124,1.9719773,13.9511082,1.1654053,3.1303536,3.5947582,5.3896046,5.9614063,7.4924552Z" fill="#423b30" stroke-width="0"/>
      <path d="m48.8694199,19.0996557c-5.9895751-5.9963094-13.6682765-9.5852117-21.2716004-13.078494C21.5586972,3.2778264,14.1088701-1.3078521,7.6174769,2.2229877c-.0064394.0359303-.012817.0733621-.0193369.1088653.0013201.0709367.1885741.1935077.121815.1862614-.5985188-.3640564.4416847-.9359923.7092856-1.0944151,8.1818907-3.9329888,16.9126739,1.2355722,24.6384797,4.0303032,7.2161882,2.8554402,12.9318587,6.0606769,15.8016997,13.6456532Z" fill="#423b30" stroke-width="0"/>
      <path d="m12.4449587,43.2222591c8.8624105-1.2047731,16.9251198-6.4025524,25.1579949-9.8821962,4.8289539-2.0610005,9.9540083-4.6750679,15.3338734-4.2440692-1.8751672.4371607-3.6901937,1.3941205-5.4509556,2.2578975-4.2985777,2.0811678-8.7669805,3.771534-13.16133,5.6322264-7.0072768,2.6991764-14.2444137,6.3003414-21.8795827,6.2361416Z" fill="#423b30" stroke-width="0"/>
      <path d="m54.0234999,33.3013146c-6.0349096-2.2591507-5.4298531-11.0917364-1.9027354-15.2834865.2809845-.2868894.7901361-.5302965.8565765.0897302-.0406473.0311079-.1104815-.2049387-.1894015-.2496549-.0564259.0041219-.1148115.0066083-.1715595.010513-2.0696537,2.6210422-2.0189495,8.1197357-.3184701,10.9159361,1.2557575,2.1803191,4.3399322,2.5954603,6.225456,1.0975609-.0447046.0365829-.0874217.0747688-.1324885.1110161-.0461586.0307059-.0910678.0599401-.1380772.0917807,1.9646983-1.5361413,1.6732842-4.550521,1.9719686-6.7576748.1637014-2.0160098-.0888426-4.0216688-.5967622-5.9731719,6.5654724,4.8485626,4.2284282,18.9542598-5.6045066,15.947451Z" fill="#423b30" stroke-width="0"/>
      <path d="m15.0915101,54.064867c-4.7554035-.6193919-5.8166576-7.1564897-3.2988452-10.5295593.3172847-.412206.9276432-.5187623,1.1208211.033115-.0259653.0431786-.2121571-.2465483-.3779978-.2822777-1.8462666.8725872-1.3568954,5.2735181-.5340142,6.8438059,1.065266,2.4060066,3.8796951,2.6010041,6.0710545,1.7833493,4.3523882-1.5263376,7.8027876-4.729783,11.3614791-7.5516447,5.1136103-4.2029109,10.8444517-7.580907,16.5953924-10.8339323.0109776-.0086882.024168.0097132.0131552.0183434-5.0587753,5.3813762-10.7864406,10.0659-16.6819397,14.4954158-4.1175346,3.0352092-8.8900861,6.5599121-14.2691054,6.0233846Z" fill="#423b30" stroke-width="0"/>
      <path d="m0,80.238726c2.9725686-3.2686277,5.6936187-6.7717927,9.1117881-9.5916115,6.4593824-4.990942,13.547277-9.1601734,19.6655438-14.5986279,3.8711739-3.5190405,7.3090148-7.5126666,10.1375642-11.9116911,2.9832248-4.3952841,5.1776766-9.5097381,8.983946-13.2585016.2053376-.1570198.5000001-.31744.7296032-.129688-.3307493-.1267453-.6334573.1729058-.8920921.4308515-4.6118616,6.4499921-6.8563217,14.3135872-11.8105764,20.572531-5.6723521,7.8355181-13.6802906,13.503377-21.4579996,19.0771327-4.6306081,3.3673523-9.1597377,7.2678059-14.4677771,9.409605Z" fill="#423b30" stroke-width="0"/>
      <path d="m4.2904571,79.1836306c-.8108992-.1817551-.9955418-.8075274-.2386342-1.203871.5851868-.2353129,1.3668569-.4223945,1.9329116-.4694825-.6007878.2981586-1.2238322.5348289-1.7481962.949614,5.2872735-1.1760826,9.569548-5.1732155,15.1074834-5.3288715-2.899294,2.6226103-6.6929182,4.1218733-10.42926,5.2425853-1.4953702.3799335-3.06668.9406489-4.6243047.8100257Z" fill="#423b30" stroke-width="0"/>
      <path d="m19.2145185,92.9814725c-1.4929401-2.9747051-1.0583852-6.401741-1.0976654-9.6224948.017778-2.5203409-.2229053-5.0220662-.4629094-7.5277732-.0272614-.2860602-.3449463-2.6014688.5433589-1.9805794.0125582.0106615.0022127.0270896-.0097132.024168-.0855724-.0266723-.159507-.0744435-.2540386-.0513216-.0222152.0283545-.0445143.055681-.0668152.0841034.1824495,1.9650308,1.1887713,3.797513,1.5529687,5.7530552,1.0634517,4.3800925,1.0462265,9.0378264-.2051857,13.3208425Z" fill="#423b30" stroke-width="0"/>
      <path d="m22.2474546,91.5433996c3.0904046-3.3405849,5.027857-7.3394271,7.7842784-10.9130485,6.3680754-8.6959695,12.4274945-17.7534742,15.9624376-28.0099024,1.3677499-3.9747091,2.0743505-8.0212665,2.2678254-12.1719114.2263562-2.2251988-.1781072-5.0388736.5938553-6.9456619-.534729,2.8866148.227618,5.9863408.1001133,8.9500225-.0164493,11.5614-5.16234,22.4637446-11.1203614,32.1250897-2.5419197,3.8820366-5.1247162,7.7599554-7.8359402,11.5247344-1.9250869,2.5490929-4.614164,4.769247-7.7522083,5.4406775Z" fill="#423b30" stroke-width="0"/>
      <path d="m96.6513942,82.9017857c-10.5006868-2.1239892-20.6322993-7.5153263-26.4615436-16.7601681-6.7796959-10.2901028-10.0244877-22.3466534-11.7724651-34.4152879-.0167651.1673657.153429.5589589.0781028.6592188-.1092484-.4312984-.2497726-.863938-.2745143-1.3099306-.0027682-.0815851.1078799-.1101017.1450243-.0391465,1.4232462,4.0590693,2.0874311,8.3838759,3.5590817,12.4330261,4.1837885,11.7483283,10.0790425,24.3988288,21.2100383,30.9217633,2.6232761,1.4959714,5.4543236,2.5308541,8.1341411,3.9093515,2.6251633,1.2332789,4.8910909,3.1286586,7.4531495,4.4400463.2223069.1267461.508074.1491797.6623955.2886923-.9229566.0868926-1.8184935.0671814-2.7334102-.1275651Z" fill="#423b30" stroke-width="0"/>
      <path d="m92.5304902,66.2181944c-13.4569921-3.7220797-23.3103692-18.5060774-28.6920896-30.6655642-.9111041-2.5283498-2.4184564-5.0471684-2.5844296-7.7479888.072102-.1188667.1188575-.1187899.2281204-.0692476.0307621.0487106-.0778703-.004292-.1037263.0029636-.0251127.028652-.0527108.055194-.0780555.0839867,4.4481973,12.7627623,16.2660539,28.7239486,28.7067036,34.5684184,4.0039351,1.6800982,8.3159923,1.5208481,12.5308064,2.0006251-2.8974782,1.8615999-6.5891314,2.6807876-10.0073295,1.826807Z" fill="#423b30" stroke-width="0"/>
      <path d="m98.1871415,81.5733127c-2.6975192-2.8598788-4.5236906-6.5103994-7.8185694-8.7341981-.4854324-.3176341-1.0272023-.3718414-1.5775978-.416883-1.5586598-.2427855-1.8765841-2.6088195-.424426-3.2414006,4.0550074-1.6175507,9.0169074-1.0493266,12.6964697-3.5267592.4188583-.3744534.6866528-.9547308,1.0558935-1.2860519-.8255216,3.846356-5.1717797,4.9346493-8.3154724,6.3507244,3.2261587,2.5353515,4.1116925,7.0180269,4.3837023,10.8545684Z" fill="#423b30" stroke-width="0"/>
      <path d="m100.9901607,47.3101883c-13.0081899.7343925-27.5802435-6.6127459-36.0894193-16.2548897-.3649426-.3042838-1.8549066-2.6303429-.486919-1.5729244-.0885224.0378185-.2981035-.1973138-.4418096-.2046286-.0065487.0208051-.0131017.0411844-.0198627.0608807,4.4897541,5.5762388,11.5160432,8.8075184,17.9908333,11.5211801,5.187912,1.8648898,10.919321,3.5390818,16.3685838,3.4160521,3.903296-.2592314,7.9113573-.689425,11.6305738-1.748719.8354611-.3416755.011842-1.2996585-.0194675-1.8528874,1.2483046.6492818,2.1676838,1.91777,1.046771,3.1791231-2.4940691,2.759038-6.4878668,3.1354432-9.9792837,3.4568131Z" fill="#423b30" stroke-width="0"/>
      <path d="m100.773659,40.3174963c-10.098888.5542209-20.4851635-1.1713968-29.0565939-6.7931654-1.0948949-.8030036-7.2485973-4.4408668-5.1868806-5.8407588.636479-.1183988,1.2854066.1429057,1.9094841.245296-.5441559.1010271-1.5273102-.3217702-2.0161619.1761256-.0115391.7313993.7560901,1.1991625,1.2442492,1.6358818,1.4568061,1.0817256,3.053354,1.9523179,4.6816335,2.7459944,6.9716859,3.5185481,14.7605899,5.0404784,22.501346,4.9057698,3.7539899.0464555,7.4940361-.453397,11.243267-.3806215,1.7727155-.0381502,3.772908.5534299,5.3438654-.3972598-1.6634941,3.1411573-7.4513774,3.488217-10.6642089,3.702738Z" fill="#423b30" stroke-width="0"/>
      <path d="m61.5805484,18.8897989c-.5709175-.6998329,2.6160685-1.84671,3.192344-2.079895-.7345223.408546-1.6284558.9498773-2.3435277,1.5257527,12.1909797-5.2271836,34.2054671-22.3663143,47.2963315-13.5034373.5033351.4164575,1.0793252.9496058,1.4370309,1.4253772-1.1797599-.4763448-2.4455812-.9454773-3.7070604-1.0763979-9.5876117-.4035637-18.8576463,2.8249078-27.4801715,6.5417587-4.4629714,1.9681353-8.8871527,4.0605364-13.4217064,5.8569263-1.4842808.5318149-2.9596718,1.1344579-4.5098359,1.431273-.1581213.0129459-.3045548-.0117379-.4634045-.1213579Z" fill="#423b30" stroke-width="0"/>
      <path d="m109.2405832,37.7179578c-.063921-3.0667148,1.0019605-6.2679575.0403661-9.2590668-.8796382-1.9430241-3.2079701-3.6436617-2.2146225-6.0024851,2.2217634-3.7922754,7.4305799-5.9919545,6.4066274-11.2384601-.309105-1.9882865-1.2596091-4.052926-2.9339569-5.1072954,3.6557863,1.319841,5.3748857,5.8314895,4.6885698,9.4694648-.5867259,3.1744922-3.0990904,5.4047434-4.8605078,7.9387633,4.6981662,4.8245283,3.3882231,9.8907486-1.1264761,14.1990793Z" fill="#423b30" stroke-width="0"/>
      <path d="m47.2625515,22.0658696c-5.0227342.1510098-10.052583.6046751-14.9549885-.6093843,5.8701513-2.2991988,12.267283-.2024257,18.3087627-.1089768.2333993.0143846.5386524-.1460485.6995275-.1193181-1.1692475.7023929-2.6973187.7368435-4.0533016.8376793Z" fill="#423b30" stroke-width="0"/>
      <path d="m39.9017315,26.1750043c-.7091623-.0086988-1.4806033-.1125049-2.1163371-.3453036.6154573-.5255549,1.2733305-.961076,2.018708-1.2792015,2.1473347-.7701401,4.5252826-.861348,6.7822891-.6707344.274474.0175732.7348045.1117292.8422762.3439102-2.5134086.292526-4.8871328,1.9866502-7.5269363,1.9513292Z" fill="#423b30" stroke-width="0"/>
      <path d="m64.7167686,22.7632062c-4.2836192-.8962392,5.5953705-3.5695412,6.6239154-3.3265829.9562877.0066835,1.9748724.1418608,2.833205.4893292-.7674195.3821366-1.5476365.7029861-2.3840945.9076302-2.6316097.5009563-5.3100042.491736-7.804004,1.3728858-.0024444.0050998-.004861.0101669-.0072777.015234.2003984.2061771.6027848.3499586.7382557.5415037Z" fill="#423b30" stroke-width="0"/>
      <path d="m69.9881283,27.2661421c-1.5879407-.3221745-3.1295357-.9548351-4.5984219-1.6385707-.422015-.257773-1.1320375-.5389532-1.0651725-1.1169103.236341-.4179817.9274116-.2272302,1.3467573-.254026-.2210902.1556891-.711542.1350608-.976674.3302309.0027253.0110082.005458.022107.0081629.0332386,1.691622.8623092,3.6558986.86774,5.4136078,1.5446239.5764203.2526178,1.1451912.5904413,1.5570113,1.0337917-.5652026.1004635-1.109332.1377256-1.6852709.0676218Z" fill="#423b30" stroke-width="0"/>
    </g>
  </g>
</svg>