<?xml version="1.0" encoding="UTF-8"?>
<svg id="Layer_2" data-name="Layer 2" xmlns="http://www.w3.org/2000/svg" viewBox="0 0 171.6657914 121.5507278">
  <g id="Layer_1-2" data-name="Layer 1">
    <g>
      <path d="m7.2530129,47.2989093C-1.0602266,45.6485894-.2017201,35.2367662.2919779,28.7180738c.3891061-4.6758841.8342757-9.3611178,1.4987913-13.9969104.0043408-.0475489.07907-.6036882.1823597-.5006879.0056987.0085481-.0056987.0199456-.0142469.0142469,0-.0003784-.0001447-.0005788-.0002337-.0008682-.005298.0017586-.0105961.0035172-.0159943.005298-.2133578,6.2362708-.0247428,12.5460909-.069587,18.806804.054049,5.2055332,1.2626497,10.777678,5.3799458,14.252953Z" fill="#423b30" stroke-width="0"/>
      <path d="m10.2571289,46.9741256c3.8467061-5.2100298,1.9029233-17.8894402,1.6979244-24.3849592-.1536768-2.4999444-.3941481-4.9971952-.3305159-7.5023931.0028494-.0598368.0142469-.9773342.2080041-.8434137.0134232.0169404-.0153376.0210586-.022795.0085481,0,.0028494.0028494.0028494.0028494.0028494-.0039847,0-.0093606,0-.0153376.0000223.7322549,7.6816141,3.2827311,15.3343338,3.1180909,23.2849462.1531537,3.6700118-.5505741,8.3518395-4.6582203,9.4344Z" fill="#423b30" stroke-width="0"/>
      <path d="m5.9916655,39.0894048c-2.2265495-4.8086915-1.2626497-10.3474007-1.5299785-15.4920509.0942964-2.9125466-.3666116-5.8989097.216708-8.7704076.0173522-.1124611.163171-.3766735.2507335-.2478507-.0103512.0284269-.0221605-.0161835-.042006-.0162948-.4701796,1.2854001.0858707,2.8578966.1787535,4.2191167.4029634,2.7028285.7283147,5.4142273.9461914,8.1378028.1351114,4.0265615,1.2372947,8.2633754-.0204019,12.1696846Z" fill="#423b30" stroke-width="0"/>
      <path d="m9.7416488,37.7134258c-1.5879454-3.298525-1.2038814-7.114567-1.2963969-10.6766144.0067784-3.8072713-.0838895-7.6129175-.0826874-11.4174507.0465694-.3436386-.0588128-.9227509.1653414-1.1568223.045256.0343928.0363851.1018427-.0050977.0284047.757543,7.6562591,2.2777936,15.5282691,1.2188406,23.2224827Z" fill="#423b30" stroke-width="0"/>
      <path d="m6.3756516,115.380549c-3.7133311-2.0024398-3.759689-6.8481731-3.7783212-10.5598347-.0505875-4.6953623.4890789-9.3842244.2772015-14.0818127-.2835569-7.0576464-.1474772-14.1262228.4981947-21.1620315.4464274-7.7107979,2.2832586-15.4326148,2.1484255-23.1169669.9673168,6.8324348-.0766214,13.8131482-.0287052,20.6949796-.2283504,8.2537366-.0072236,16.3140554.564053,24.5017333.2821211,4.7953184-.3384518,9.8956697-.1539105,14.6343959.1213543,2.457137.0688746,5.0899778,1.1448905,7.3540032.6738205,1.0040247,1.9142874,1.2933472,2.9098308,1.8808741-1.1371327.1680016-2.4379483.2259017-3.581659-.1453402Z" fill="#423b30" stroke-width="0"/>
      <path d="m9.9837229,115.4186148c-.5992694-.0309646-1.2310061-.3446626-1.6868052-.6781502.4783047-.1588302,1.1525927-.2535717,1.4903211-.6268393,1.4323326-2.3738152,1.4650997-5.6698693,1.8690536-8.189136.1923214-1.7651852.2233083-3.5403654.1880919-5.3140764-.1070963-5.3585088-.2774018-10.3515579-.7464572-15.625949-.8003727-7.0564889-.8186821-14.1586344-1.2338554-21.2420587-.2147157-3.566633-.3558597-7.1362045-.2621532-10.7107845.0256443-1.7096224.2251003-3.4220942.5243621-5.1060501-.158307,2.725668.0161947,5.6044006.3132082,8.3743006.85992,7.1461773,1.903324,14.2630594,2.5561527,21.4329666.745667,6.3342402,5.9494415,37.1800361-3.0119184,37.6857772Z" fill="#423b30" stroke-width="0"/>
      <path d="m4.4117451,16.5858984c-.7068443-.1944473-1.1519026-.7893202-1.5755239-1.3389816-.1920209-.2229633-.5095142-.2900125-.6758462-.0019812-.2134245.2919715-.2332477.7389442.0145919,1.0075865.0148924.0129112.0555405.0202127.0370307.039958-.7327224.0485283-1.0930342-1.0339654-.8748236-1.6185094,1.0263745-2.4792419,4.2979084-.1355677,3.077543,1.9131298-.0010685-.0000223-.0021482-.0003784-.0029718-.0012021Z" fill="#423b30" stroke-width="0"/>
      <path d="m4.2561204,16.9363265c-.1705282-.8260281.4986287-1.5331395,1.1225964-1.9688261,1.6831545-1.2000748,3.467239-.0379322,3.4136352,1.9516854-.7188985-.1464087-1.2631505-.7198-1.8864615-1.0709404-.773337-.1718082-1.5034549.1650854-2.0904586.6170223-.2224513.1674451-.4762122.6115239-.0691974.7047295-.13756.0928049-.4606631-.0101954-.490114-.2336707Z" fill="#423b30" stroke-width="0"/>
      <path d="m8.2842068,15.8145426c-.211499-1.0687144,1.4803371-1.4666468,2.1912217-.9374207.2996291.1935791.5695736.7276358.1253946.9232184-.58224.3073091-1.0638615-.0894213-1.6301628-.0235741.0503871.0274029.1373374.0262454.1598875.0691418-.2589811.1848529-.6721844.3735792-.846341-.0313653Z" fill="#423b30" stroke-width="0"/>
      <path d="m162.4065913,64.7979189c-5.4531613-7.0523706-4.4309273-17.3602363-4.8094039-25.8267853.0331239-6.6662364.7306855-13.3286439,2.0171541-19.8687511,1.0737453-4.4618252,1.8315443-9.2596089,4.1432076-13.2551836.0398912-.0427406.1054267-.0085481.1140194.0427406.0147366.4034531-.1855653.7979796-.2679299,1.1910592-.0056542-.2736064.1280436-.6921522.1495474-1.0126619-1.6852692,4.217781-2.1910993,8.8388148-2.8392866,13.3105237-.7660355,6.3835476-1.0532432,13.1026532-.8547667,19.4669008.1935791,5.391744.6496343,10.7754074,1.1311111,16.1473839.2727605,3.2730365.3405888,6.6559074,1.2163474,9.8047737Z" fill="#423b30" stroke-width="0"/>
      <path d="m165.6947206,64.0624919c-1.1612521-.8231565-1.3112671-2.4632587-1.1255014-3.7754385.1168242-1.8036517.1225229-3.6130021.1509944-5.4223525.0970344-5.2348283.5060304-10.4598841.7668814-15.688702.0188993-7.3374858,2.5270357-26.2170378-1.2607798-31.6198231-.0256221.0074573-.0501089.0148702-.0742617.022283-.0754193.1529756.1153105.4017835.0837893.5138217-.0598368-.1339204-.3561713-.6411084.0060327-.6326939,4.6298045,4.8669033,3.6632222,24.6020011,3.9431729,31.8190564.0143359,5.2356519-.2072695,10.4727285-.2163296,15.7086476-.2404157,2.4546216.8522958,8.4919484-2.2739982,9.0752012Z" fill="#423b30" stroke-width="0"/>
      <path d="m163.1121222,64.4722447c-.5454096-.1194955-2.1669019-1.1716701-1.4730801-1.7722863.135167-.063354.4138711-.0155157.4957682.0541603-.1330523.0310537-.2746304.0176305-.3841753.1023993-.0071234.0166287-.0142691.0332798-.0214371.049953.3890059.6688453,1.4334561.7265228,2.0981163.7737822,1.2418359-.2491196,2.3750395-.9845466,3.6614859-.7779005-.9515117,1.299647-2.8036027,2.0950443-4.376678,1.569892Z" fill="#423b30" stroke-width="0"/>
      <path d="m160.6253784,120.2223422c-2.612361-4.828882-2.3299839-10.4244673-2.3871271-15.7378314-.5280908-7.0742974-.2623647-14.1695422.5463446-21.2127859.2877864-2.5872342.7322883-5.1431142,1.2366269-7.6961503.5599236-2.8280227,1.2926794-5.6388379,1.632823-8.4940186.017163-.9744625.3383183-2.1785443-.2431315-2.9965585-.0060327.0014915-.0117091.0018476-.0162726.0018922l-.003072.003072c-.0002671.0015137-.0008904.002649-.002649.002649h.0028494c-.0028939.0111971-.0158051.0187213-.0199456.0028716-.0086149-.125684.2074475.0880188.2278829.1090107.6727854,1.4374185.5285805,3.1505581.5016006,4.7035542-.3156346,5.3573735-.9943859,10.6923972-1.0398645,16.0647521-.2012813,7.0392368.1483454,13.8437567.4841927,20.8118038.2237201,4.8329112-.9359738,9.6510858-.9202577,14.4377392Z" fill="#423b30" stroke-width="0"/>
      <path d="m163.5821571,121.5507278c1.5786182-1.6678836,2.712267-4.1480382,3.7527771-6.2277895,1.4520883-4.5278282,1.0044477-9.405795,1.1220065-14.0997549.1153995-10.8275809.7407919-21.6747847-.917297-32.4287327-.1190057-1.8486851-.5483035-3.9075335-.0000668-5.6645045-.2664829,2.8115053.7490729,5.5654221,1.2309282,8.3144638,2.0246782,8.3196283,2.3524004,16.9360363,2.5466028,25.4412075-.0731932,7.241698,2.9815771,24.2606554-7.7349507,24.6651102Z" fill="#423b30" stroke-width="0"/>
      <path d="m161.7311569,119.1977041c-.6188477-.6110565-1.7488681-2.8906198-.7236734-3.4477163.1210092-.0143136.6103219.1491022.1795104.1111255-.4230648.0033168-.1827827.5974997-.105449.8206633.4311231.9041632,1.1336489,1.9133079,2.182195,2.0337384,1.2591325-.1204304,2.4483663-.8098891,3.7102814-.8313707-1.0854544,1.6215813-3.6265143,2.9978274-5.2428644,1.3135599Z" fill="#423b30" stroke-width="0"/>
      <path d="m162.1588741,66.7430819c-.8419-.5277124-1.6137901-1.8285391-.9459911-2.7438772.4894239-.4897356.6555556.1663543.9118209.4929411-.1107025.0210586-.2838686-.0948751-.4054343-.140888.0215929.1875019.2279051.3989342.3285235.4998642,1.2941486.9622191,2.8709859.2188673,4.313925.4729733.498306.0885976,1.0016651.2502549,1.4360828.4872647-.3162802.6980958-.9345936,1.1340495-1.6155932,1.4446532-1.3082619.4927408-2.8671125.2496316-4.0233337-.5129313Z" fill="#423b30" stroke-width="0"/>
      <path d="m59.5104942,67.5662829c3.1256261-6.0000401,6.8284724-12.4237683,13.0729574-15.5803146,2.12981-.9302528,4.3867843-1.5521502,6.6020365-2.2453041.3512072-.09256.8302131-.2887214,1.1482797-.2108312-.3323802.0524017-.6446924.2322015-.957127.3615807-2.5791535,1.3546754-5.3494709,2.425883-7.6717748,4.2141303-1.9514183,1.6134784-3.4348941,3.6747533-4.9435024,5.6883234-2.0170873,2.9065585-3.8327153,6.3702135-7.2508694,7.7724155Z" fill="#423b30" stroke-width="0"/>
      <path d="m62.8333057,72.7434337c5.4049001-3.2466131,5.5254418-4.9729533,7.6392742-10.4315017,1.9689374-3.8161533,5.1150601-7.0908817,8.7391981-9.3800616.3547077-.2132353,1.479853-.731242,1.404673.0371086-.0583231-.0330349.030653-.1969405-.1622138-.2671508-.9901062.0968341-1.6098666,1.0881257-2.3138894,1.7060385-2.0035083,2.2316583-3.8285303,4.7004822-5.1630375,7.4083861-1.0764611,2.1725116-1.3581926,4.6315185-2.3023806,6.8554079-1.230572,3.0820174-4.5968809,4.9175631-7.8416241,4.071773Z" fill="#423b30" stroke-width="0"/>
      <path d="m63.9186488,71.6842692c-1.7935008-.7937724-3.4760987-2.5547725-3.5901403-4.590403-.0028494-.1082761.0455899-.5670248.2564434-.5698741.0194781.0022038.0022929.023997-.0056987.0199456-.0005565.0008459-.0011353.001536-.0017141.0023374-.0038066.00512-.0086817.0109077-.0155825.0156715.0001558-.0004897.0002003-.0009127.0002003-.0009127-.0001558.0004007-.0003784.0007569-.0005343.0011576-.1139971.1950706.0036062.4736411.0689414.6627236.8252713,1.6860483,2.5576441,2.4611662,3.9634747,3.5417678.4201709.3645191.8545441.8153652,1.1169311,1.2793897-.6183134-.0284937-1.2138319-.1424685-1.792321-.3618033Z" fill="#423b30" stroke-width="0"/>
      <path d="m104.4384813,62.5139257c-4.766463-.1041356-6.8628875-5.0304972-10.0089489-7.8285793-1.8793381-1.6734043-4.0100385-3.4232518-6.5367458-3.8355869-.0013579.0021148-.002688.0041405-.0040125.0061662.0144082.0277814.1436261.066426.1059665.0895548-.057761-.0312095-.1502097-.0260005-.165219-.0911799.0569874-.1567154.3504782-.1139748.4644697-.1112145,3.4078251.2433318,6.4674037,2.2322371,8.9099155,4.5106874,2.5257223,2.2978394,4.4599107,5.3030351,7.2345745,7.2601521Z" fill="#423b30" stroke-width="0"/>
      <path d="m99.3571629,71.5511724c-3.0200881-.3831736-6.5950911-8.8979169-8.3714067-11.5200949-1.1762169-2.2020071-2.8735459-4.12787-4.1342588-6.2345344-.034326-.1210315.2924612-.0735271.2507224-.0398912-.0488177-.0010685-.0969454.003161-.1455405.011865-.0101286.0105293-.0195672.0211922-.0294509.032701,2.1259867,1.9997463,4.3972914,3.9456438,6.1671735,6.3181011,2.2041663,2.7532267,4.1538928,5.7792807,6.4914898,8.4117431,1.3591721-1.3397608,2.7853489-2.7321236,4.4161017-3.6930738-.4732627,2.4507037-1.5146631,6.8098625-4.6448304,6.7131842Z" fill="#423b30" stroke-width="0"/>
      <path d="m82.7947448,58.6532509c-3.2477651-1.0168914-3.4927942-6.2929911-3.0258035-9.1123766.0302746-.2025502.1300471-.47235.3761169-.4758672.1111255-.0113975.2251003.0655355.2507891.176661.1114594.6300448.0694701,1.3242896.0767772,1.9451407,2.6931673,12.3614829,7.0362316-.5540245,3.556126-2.1338002-.897396-.2912814-1.9359304-.0969454-2.8066524-.1362133.7210744-.5307398,1.4879559-1.1094515,2.3678271-1.3363771,6.7652297-1.0677349,5.0403086,11.851401-.7951803,11.0728327Z" fill="#423b30" stroke-width="0"/>
      <path d="m74.2359976,49.7313369c-1.832457-.5579201-3.3869891-1.9057393-5.262899-2.230946-.4998197-.6130599.9727039-.4830351,1.2794565-.4275392,3.3409985.584032,6.6208913,1.7120711,9.9043681,2.2509361-1.7450615,1.3012052-3.9890244,1.2229811-5.9209256.4075491Z" fill="#423b30" stroke-width="0"/>
      <path d="m88.3136475,49.2060733c-.2173758-.0933837-1.5925255-.8708167-.9374207-.985771,1.4074556.6436461,3.1381366.6709823,4.6302441.4843485,1.7783468-.3400991,3.5699332-1.0425135,5.3767459-1.031539-1.2197088,1.2913882-2.8190071,2.2838597-4.6216571,2.4106122-1.5307131.1882143-3.0805037-.1785531-4.4479122-.8776507Z" fill="#423b30" stroke-width="0"/>
      <path d="m69.40903,53.0239406c-1.5816901-.9426742-1.5242575-3.1154975-.2452017-4.2911523.2243879-.2537053.7553058-.7229388,1.0998571-.4502006.099728.076933,0,.2336484-.0342147.313453-.049864-.0022038-.0275365-.1174698-.0652461-.1481673-.0011576-.0000223-.0022929-.0000223-.0033836-.0000223-.9825654,1.3597286-.085214,3.1485546-.7518109,4.5760894Z" fill="#423b30" stroke-width="0"/>
      <path d="m96.7596721,55.8205757c-.2127233-1.7989101.819439-3.3816688.8376037-5.1395079.009305-.8277867-.3370271-1.6095828-.3846873-2.4255936,0-.0455899.0398912-.0740836.0826318-.0683849.1196736.0142469.1738116.1282217.2450459.2165522.0056987.0085481-.0028494.0170962-.0113975.0142469-.0428519-.0214371-.0857928-.0427851-.1292902-.0636434,1.8858159,2.1745596,1.6413266,5.7042398-.6399063,7.4663308Z" fill="#423b30" stroke-width="0"/>
      <path d="m71.8824396,49.394666c-2.1484255-1.1625433-3.9064873-2.9804418-4.6615705-5.3397207-1.1283508-3.2824751-1.8121998-6.7159668-3.3793537-9.8445758-2.2567016-4.5418969-5.4166537-8.7532669-6.0577622-13.9305735-.6781502-3.9634747-.4331043-8.0038824-.8662087-11.990152-.1160896-.5983233-.1184938-1.280525-.3511849-1.8493974.0263344-.0093495.0526688-.0187213.078981-.0280485.1277097.2625205.2296415.5416698.2323128.5496392,1.6098945,5.6531515,1.2793675,11.8391354,3.8523492,17.2329941,1.8777353,3.9150354,4.8296834,7.2288535,6.4224816,11.3034537,2.2025636,4.4393196,2.0031076,9.7391491,4.7328048,13.896381h-.0028494Z" fill="#423b30" stroke-width="0"/>
      <path d="m57.1029095,6.9743922c-.1046699-.2953106.1069627-.5918232.3421694-.8477768.1868787-.0662479.3738909-.1323399.5610812-.1979422-.0655355.022795-.1339204.0455899-.199456.0655355.213035-.0720134.4264929-.1440268.6403738-.2150162-.4533171.3185285-.8737773.6878782-1.2529885,1.112568.0598368.0484393.1652635.0370418.2649915.0256443.0854811-.0113975.1681129-.0199456.2108534.0113975-.1349444.0297626-.2657483.0802499-.3962406.0802721-.0568761,0-.1136854-.0095944-.1707842-.0346822Z" fill="#423b30" stroke-width="0"/>
      <path d="m79.5673538,9.800968c-2.8517359-.183495-5.0031889-2.0694668-7.3681443-3.4884312.6971831.2529039,1.4072107.466206,2.128146.6533073.7294389.1909078,1.464571.3675688,2.1911661.5698741.7237457.2023053,1.4417816.4274056,2.1683656.6097653.9459966.2364978,1.9318789.3105814,2.9149118.3105814.5356817,0,1.068514-.022795,1.5956476-.054138,1.5500577-.0911799,3.0858685-.3134308,4.6188299-.561326,1.6326894-.2649915,3.2482771-.6211628,4.8866708-.8519618.8491125-.1196736,1.698225-.2165522,2.5444881-.3447739.8206188-.1225229,1.6383882-.2421965,2.4647057-.3276776,1.4645766-.0854811,2.920605-.0484393,4.3851815.022795.8462631.0427406,1.7039237.1111255,2.5017475-.2421965.1283552-.0568316.2561762-.1187609.3807694-.1869677.4481526.0849246.8967504.1688475,1.3430999.2610513-2.4647057.253594-4.9750013.2421965-7.3599246.9744848-1.7124718.5470792-3.3537093,1.3107105-5.1459635,1.5785514-1.2366269.1880585-2.4761032.1168242-3.7184232.0427406-.9545448-.054138-1.9090839-.1111255-2.8579244-.0455899-2.3849177.1510166-4.6872093,1.0998571-7.0835356,1.0998571-.1966066,0-.3932132-.0056987-.5898142-.0199456Z" fill="#423b30" stroke-width="0"/>
      <path d="m101.3020142,33.5865798c1.6155932-4.4849095,2.5758311-9.1664256,4.0432571-13.6997744.9061222-3.344716,3.1904048-9.750747,2.4010623-13.4815972.0575885-.0038511.1165793-.0102399.1776182-.0187213.0307866-.0042518.0612837-.0096611.0914247-.01605,1.771574,5.3237821-1.1687985,15.023641-1.9720094,20.2551302-1.0770621,7.4340082-4.2028218,14.4292133-7.9810874,20.8232012-2.0373001-4.9778507,1.5244133-9.400074,3.2397345-13.8621886Z" fill="#423b30" stroke-width="0"/>
      <path d="m57.9439859,109.1775803c-3.3875679-10.2667502,5.4191915-16.214589,7.8650646-25.1486128.7067552-2.7911144.8827707-5.6740988,1.1758106-8.5025.0536928-1.2083335.3677024-2.4918192.0870394-3.6619311-.0117091.0022706-.0230176.0044521-.0337027.0071012-.0406926.0536483-.0543829.1191171-.0762429.1842964-.0028494.0113975-.0199456.0056987-.0171853-.0028939.2493867-.9688306.5716995,1.1674184.5500844,1.3819893.3478013,4.8146741.8542324,9.8317036-.6981403,14.4947711-1.3487318,4.2042743-3.9512758,7.8450299-5.5850337,11.9293135-1.013352,3.2291162-1.9846312,6.2775199-3.259502,9.3248106-.0034949.0000223-.0070566-.0021148-.0081919-.0063443Z" fill="#423b30" stroke-width="0"/>
      <path d="m108.3046099,104.1624652c-2.7571223-2.402999-3.8287529-5.8594192-4.3000121-9.3714245-1.0156894-5.4501784-2.1288138-10.9006907-2.5531029-16.4380587-.0945635-1.8289677-.2039526-4.4936691.2794164-5.8778789-.0804725,5.2287734,1.7390288,10.2929956,2.9292421,15.337812,1.329365,5.4018448,2.8599446,10.8796265,3.6444565,16.3495501Z" fill="#423b30" stroke-width="0"/>
      <path d="m59.4442018,108.7377977c8.7950502-4.5058568,13.1700363-4.1540709,22.7257127-3.9928366,6.0296469.1961168,12.1541689-2.3316757,18.065745-.5208338,2.1211784.5689392,4.0895148,1.6580889,6.1799512,2.2914283.6706706.1732774,1.4133324.2863618,2.0461821.4608857-1.7929665.8538095-3.7821612.9955212-5.7215142.6810664-2.0675524-.2103192-3.9744047-1.1388579-6.0363028-1.3638468-3.8698907-.1239476-7.7139589.6508363-11.5869883.6233889-11.1369213-.1495697-14.4384293-2.3611489-25.6727857,1.8207479Z" fill="#423b30" stroke-width="0"/>
      <path d="m100.870624,112.0985637c-4.3669723-.0531141-8.288953-2.486076-12.6678125-2.2334837-5.574215.2162405-11.2312844,1.1025061-16.7775623.2502549-2.9436671-.3266536-5.7524788-1.4980121-8.6042092-2.051725-.0017586.0123992-.0159832.0409152-.0237299.0174969-.0170962-.176661.5442298-.0712343.5784223-.0684072,3.1568356.5096589,6.3273171,1.0751477,9.5368438,1.0058279,5.25444.0220158,10.3803466-1.3636242,15.5974331-1.755012,3.0975331-.3875144,6.0405546.6699138,9.0126041,1.3447026,1.727854.3553922,3.545285.381504,5.1373932.5300275,1.7582621.147032,3.4812855.5948729,5.2473165.6235447.4680091-.001536.974507-.0918032,1.41449-.0822088-.6077396.6598074-1.2890509,1.2271661-2.1142108,1.6013463-1.9783537.9050759-4.2009519,1.0117715-6.3369782.8176358Z" fill="#423b30" stroke-width="0"/>
      <path d="m60.4532575,91.206844c-12.0896796-3.2637761-16.8250221-24.1170738-16.2723332-35.1184496.2872522-8.9897869,4.1876178-17.5520569,10.7219817-23.7212339.5646651-.5293374,5.5059637-5.6289986,5.1116153-3.2708772-.0421618-.0304749.0358175-.3438389-.0291838-.4415189-.0228172-.0206357-.0453896-.0412268-.0663592-.0618402-.0281598-.011531-.0563196-.0214816-.0845239-.0326787-.8473316.2173313-1.427646,1.0427806-2.0366545,1.6016135-2.0193357,2.1624498-3.8734969,4.4888497-5.5133543,6.9524868-7.1075772,10.3856669-6.3338617,23.898763-2.6061725,35.4073046,1.0102577,3.1523835,2.2085962,6.2329706,3.6015823,9.2354505,1.0515068,2.1229815,1.9376834,4.2910633,3.3571598,6.1568223,1.0946926,1.2696173,2.5715793,2.2536964,3.8162423,3.2929209Z" fill="#423b30" stroke-width="0"/>
      <path d="m112.9146914,95.1228143c4.6062526-4.9300124,6.5180023-11.4920686,9.1062994-17.5677507,2.5624747-6.8821652,2.6868898-14.3205588,2.6367587-21.5798205-.13303-3.2834323-.376206-6.5956477-1.3565899-9.7530398-2.2215742-7.4180695-7.4863431-13.3031554-11.7028553-19.6295598-.0633762-.090334-.1923548-.2383677-.1253723-.3618701.0085481-.0199456.0341924-.0256443.0484393-.0085481.0911799.099728.1681129.199456.2450459.3105814.0085481.0085481-.0056987.0199456-.0142469.0113975-.0708781-.0828098-.1424685-.1682687-.2257236-.2386125,6.2941709,7.5210031,14.0933883,14.9524736,15.3417688,25.2304431,1.2400105,9.7350977,1.3851726,20.0832553-2.59315,29.2401756-2.272618,5.7322271-5.6709823,11.5508981-11.3603743,14.3466039Z" fill="#423b30" stroke-width="0"/>
      <path d="m82.0123532,47.2909845c-3.347276-1.6612722-3.2547828-5.9501762-3.4562867-9.1835218-.0886867-2.8537338-.0232402-5.7689072.6525449-8.5509615.1082817-.276389.0484449-.1966066.2108813-.3619146.1629706-.0470146.1710457.3192186.2136638.4331934-.071891-.0171185-.091831-.2398146-.1722367-.3077988-.3402995,3.8438901.4042545,7.7293633.8134286,11.5570254.3125626,2.2143172.2285507,4.6621493,1.7380048,6.413978Z" fill="#423b30" stroke-width="0"/>
      <path d="m85.4131161,47.1086693c.6211294-3.466905,1.6641939-7.1892517,3.8639693-9.9869776.2025112,3.44923-1.5168169,6.5852742-3.2321213,9.4581967.0766937-.0575439.5572801-.1980535.3197584-.062419-.2908974.1144868-.6575591,1.092333-.9516063.5911999Z" fill="#423b30" stroke-width="0"/>
      <path d="m75.3681327,78.1820142c.2147658-7.1948837,3.0744654-13.9984018,6.3255529-20.3160578.2873913-.4586151.5047449-1.0468544.8748236-1.4360383.0843737-.0157828.0317271.082142.0171018.1253723-.0331462.0138239-.0054483-.0518229-.0075464-.0633985-2.6751362,7.0738522-4.1617731,14.7749889-7.2099319,21.6901223Z" fill="#423b30" stroke-width="0"/>
      <path d="m89.9424191,69.9570608c-3.2753516-3.2131997-3.4309763-8.0559056-4.7917734-12.1953512-.0836557-.1928223-.0768161-.3895847.1530646-.1851423-.0078803.0409152-.0950087-.0274029-.1353674-.0351942,2.1096474,3.8553544,3.6582581,8.2058093,4.7740761,12.4156877Z" fill="#423b30" stroke-width="0"/>
      <path d="m52.9537583,109.6208355c-4.7210066-1.9465877-8.2537366-5.7122537-11.9472779-9.1038062-3.4543611-3.0301277-6.174297-6.72939-8.1607981-10.8673664-4.1209469-7.8950275-6.6603373-16.6445768-7.4168452-25.5161148-.3366932-5.4774255.6028979-10.9237082,1.8123667-16.2441512,2.0442677-8.9442637,4.0585613-17.3535804,10.6564462-24.1599702,4.4615469-5.0854144,9.5519477-10.1287561,15.7056758-12.9532616-6.7605327,4.3523915-11.8116879,10.9080812-16.3266828,17.4696255-2.686823,3.8981172-4.1004337,8.4456239-5.1177147,13.0199992-1.6654349,7.0561327-3.6028289,14.1460126-3.5213659,21.451532.6160095,10.1757039,3.9321093,20.4398106,9.1688966,29.1149814,1.9080655,3.0595786,4.495283,5.5979227,6.7617126,8.3827151,2.6878248,3.3249485,5.1008856,6.7746683,8.3855867,9.4058173Z" fill="#423b30" stroke-width="0"/>
      <path d="m112.0693633,113.1361353c5.5669358-3.9613599,10.9696321-8.1039442,15.9755312-12.7164076,3.8270833-4.3670391,6.446256-9.6825847,9.2555352-14.7317364,3.5895393-7.5282823,4.7997872-16.0757267,4.020373-24.3478506-1.0261074-8.2136228-2.6183046-16.1577574-5.0987708-24.0349095-1.3430553-4.2646175-2.768787-8.5561483-5.1197182-12.3873721-3.6842363-6.4107057-9.2372592-11.2171266-14.6999703-16.042714.0325897.0351497.0651348.0706103.0976577.104937.0085481.0056987-.0028494.0199456-.0113975.0113975-.0854811-.0683849-.2279497-.1424685-.2563321-.2565769,1.4370401.7766984,2.8903749,2.0426642,4.3308432,2.9920619,5.1471211,3.5549239,9.809582,7.8574959,13.2015353,13.1524949,5.446817,8.9906328,8.2933384,19.5742864,9.8759634,29.9020978,3.0514089,14.6655108.2874525,28.0812163-8.0072437,40.5001763-4.6455873,9.1725028-13.8694901,15.1831835-23.5640065,17.8544018Z" fill="#423b30" stroke-width="0"/>
      <path d="m59.834855,111.9090583l.0028494-.0028494c-.0002894.0009572-.000512.0018922-.0008014.0028494h-.002048Z" fill="#423b30" stroke-width="0"/>
      <path d="m59.836903,111.9090583h.0008014c-.0005788.0008904-.0009795.0017363-.001536.0026268.0002671-.0008904.0004675-.0017363.0007346-.0026268Z" fill="#423b30" stroke-width="0"/>
      <path d="m81.5465869,121.2085807c-5.8052089-.9777126-11.3366388-3.311414-16.5686177-6.0426917-.7827756-.5379745-5.6826915-2.3896871-5.1418008-3.254204-.1398195.4715931.7096269.6392385,1.0785981.8350882,2.359279.8206188,4.7584491,1.5329614,7.140523,2.2937434,4.0461064,1.2708193,8.120701,2.5843792,12.3520276,3.0545254,3.3451557.3818157,6.6390282.3761169,9.9642439.3675688,1.0514178,0,2.105685-.0028494,3.1656509.0085481,5.1060723.0740836,9.092342-3.6471945,13.8878329-4.8410809,2.7382453-.7493845,5.6503021-1.2138319,8.4170411-1.5870995-3.0630735,1.7409655-6.2971093,3.1428559-9.3658816,4.8610265-.4372671.2786596-.8586178.5422709-1.2671463.7922141-2.2772705.6144846-4.5527379,1.2344231-6.8307653,1.8491526-1.3306561.3561713-2.6613123.7123427-3.9976671,1.0542672-.3590207.0455899-.7151921.0911799-1.0742128.1310711-1.1653926.1339204-2.3336346.253594-3.4990328.3647195-.5812661.0284937-1.1653871.054138-1.7466587.0797824-.8747624.0113975-1.7495081.0199456-2.6242704.0256443-.9468147.0060994-1.8941804.0089488-2.8417576.0089488-.349315-.0000223-.6988583-.0004897-1.0481065-.0012243Z" fill="#423b30" stroke-width="0"/>
      <path d="m117.0451659,24.0678562c-1.2470894-.9636883-.7913682-3.4334249.8034335-3.598733-.6170891.3436831-.9133346,1.2753828-.6354319,1.9176042.6529066,1.5323827,2.3117078.3976208,2.3593235-.8617788.0000223.0000223.0113975-.0100841.0113752-.0100841.0630201-.4241778-.3769183-.6078954-.6268838-.820552.8827039-.8261617,2.1629618-.1268415,2.2596178.9943191.2332032,2.060006-2.4961378,3.7862572-4.1714342,2.3792246Z" fill="#423b30" stroke-width="0"/>
      <path d="m126.5175205,37.9795526c-2.6146761-1.8883982-.7838441-5.5920013,2.242388-3.9946619-1.0758823-.060371-2.7862171.5651104-1.9689374,1.9316507.5339676.7913905,1.3988629.8547667,2.2560561.733891.5010218-.1454292.6354987.6587834.4508239,1.0014425-.5562951,1.2063746-2.1085343.9922934-2.9803305.3276776Z" fill="#423b30" stroke-width="0"/>
      <path d="m132.530405,54.7015967c-.6356545-.5300497-.8197506-1.7886702.017074-2.2138943.5781996-.2806185,1.0221895.261363,1.2537454.7351154-.1917092.0070789-.4464608-.0988375-.6637921-.1011304.0276923.1399531.1791319.2696885.3010093.3047714-.0132229-.0050977-.0263344-.0099505-.0396018-.014603-.0123547-.0068563-.0246426-.0138907-.0364185-.0209251.480809.2053328,1.0406214-.0590354,1.5329614.1338982.2877864.1310711.353322.5185855.2792383.7949744-.3311058,1.2117617-1.9110373,1.0441831-2.644216.3817934Z" fill="#423b30" stroke-width="0"/>
      <path d="m132.725854,71.75931c-1.6921923-.0506654-2.0167534-2.6156333-.4958795-3.2168505.5289367-.2663939,1.0868791-.0265348,1.4161595.4330598-.2017711.0458348-.4603292-.0514445-.6576704.0637547-.2269479.1353674-.3224686.4535174-.3054169.6685113.012889.0984814.0276701.2329806.1210983.2882984.2848035.0112639.7031045.0250656.9417393.2102969.6561567.6471633-.2518131,1.6492291-1.0200302,1.5529293Z" fill="#423b30" stroke-width="0"/>
      <path d="m127.4395368,87.6981556c-1.1536167-.4133368-1.296575-1.9667336-.8576383-2.9605184.1666437-.5035539,1.1114994-1.8995731,1.3733744-.7721349-.0552066.0177418-.1462083-.0741671-.2161292-.0938066-.1145091.6692459.0011576,1.3717884.2472052,1.995628.1271977.2368539.4276282.3169035.6328497.4744202.9940074.6683333-.3632948,1.7378323-1.1796617,1.3564118Z" fill="#423b30" stroke-width="0"/>
      <path d="m119.3554268,99.8605832c-1.4486379-1.4673814.5925355-3.5407438,2.2196375-2.7582354-.6211851.1624141-1.2685933.5211677-1.444631,1.1596494.0059436-.0237967.0120208-.0486842.017074-.0712343-.0303859.1053599-.0503537.2267921-.0410265.3319294l-.0131116-.0156493c.0103958.0364185.0230844.072837.0339031.1092556.0059881.0125773.0121766.0253549-.0082587.0132674.0245536.0327232.0491739.0629088.0341702.0712565.3930796.2839576.9667826.2200694,1.3392265.5584544.1111255.1168242.0797824.2991839.0228172.4359315-.3844424.8392065-1.5913068.7640098-2.1598007.1653748Z" fill="#423b30" stroke-width="0"/>
      <path d="m86.7483858,115.5609275c-.3618701-.0142469-.6809996-.2393471-.9288336-.4815882-.8260671-.6626345-.1926108-2.6032341.9203078-1.8805179-.053153.0691195-.1942024.0717908-.2529707.1571161-.209874.2816202.0513109.6476531.3421749.7346257,1.0934182.3159462,1.1154118,1.4006215-.0806784,1.4703643Z" fill="#423b30" stroke-width="0"/>
      <path d="m50.691625,98.7555839c-1.4194096.09768-2.5138351-2.0370775-1.2337998-2.8264422-.1838512.3459982-.0756641.8776952.1709845,1.1796395.1659091.1765942.3585532.3097578.5556273.347601.3991568.0941628.7259885-.1896835.9783582-.4637796.3362257-.3832181.5750609-.6595403.4918504-1.1517691.7731144-.1725205,1.2721995.681801,1.10284,1.3648931-.2090058.8731095-1.1893451,1.5327166-2.0658606,1.5498573Z" fill="#423b30" stroke-width="0"/>
      <path d="m41.1247738,86.1081845c-.2095623-.3802352-.2676628-.7767874-.2695327-1.198984.0034281-.0298739.0343038-.0546055.0672273-.04047.4112221.1763939.8361567.5380191,1.3005819.4296539-.017764.0029162-.0370641.0060549-.0554069.0091269.0193446-.0045634.0382216-.0095944.0570542-.0146698.0740836-.6078732.6321819-.8993104,1.1653258-.5979449.8006732.4131643.661054,1.5956476-.0740836,1.9974089-.7426395.404299-1.7635379.188615-2.1911661-.584121Z" fill="#423b30" stroke-width="0"/>
      <path d="m36.7346281,68.2210371c-.9436203-.5011331-.7777669-2.618683.4530388-2.3933824-.4127358.1462974-.3815263.7216699-.170517,1.0003963.0377876.0512442.0793706.0987262.1239365.1432031.0016807.0014024.003417.0027826.0050977.004185.4862184-.3823722.6724626-.9792263.7117416-1.5753013.000679-.1750137-.0568427-.436488.1103686-.5498395,1.0468321-.58352,1.9792775.8495577,1.564427,1.7866667-.3317736,1.0399758-1.6968114,2.1500728-2.7980932,1.584072Z" fill="#423b30" stroke-width="0"/>
      <path d="m37.8318028,51.5225671c-1.9772963-.0564977-1.5775608-3.1878448.3276442-2.1853783-.1826714.0934727-.4923067.0679397-.6450708.2721372-.1051596.1186941-.126708.4180784.0463023.4719048,1.0613683-.0902672,1.0307599-1.5667309,1.2626274-2.3397341.9208365-.1313382,1.5495457.9016032,1.4845444,1.7209754-.0861935,1.2183063-1.2843093,2.142571-2.4760475,2.060095Z" fill="#423b30" stroke-width="0"/>
      <path d="m43.9074737,33.7706091c-.8504036.0083255-1.553931-.953582-1.1682197-1.7409433.180423-.3662554.7957313-1.0105694,1.222291-.7180637-.3453972.1107693-.6408635.8551451-.2635223,1.1019273.6176234-.1486125,1.2727338-1.0230131,1.9419352-.9766218,1.0371042.9888652-.6143956,2.4740774-1.7324842,2.3337014Z" fill="#423b30" stroke-width="0"/>
      <path d="m54.3976101,24.2565157c-.2592927-.0655355-.561326-.2649915-.5185855-.5698741.0247316-.1745017.1638166-.3044152.3159908-.3436608.520166-.5115288.93702-1.53403,1.7982423-1.4259097,1.5726078.8640494-.285271,2.7978372-1.5956476,2.3394447Z" fill="#423b30" stroke-width="0"/>
      <path d="m53.6833752,22.4461191c-.5527779-.2023053-.3134308-.9516898.0142469-1.2565725.6299781-.5865029,1.9074756-.5773315,2.3820962.1966734-.7668592.3675243-1.4538469,1.32262-2.396343,1.0598991Z" fill="#423b30" stroke-width="0"/>
      <path d="m119.0707791,11.7729774c-1.3027635-.3738909-6.0946036-2.6470877-5.9009355-4.1260892.2695994-.2808188.765056.1421569,1.0970522.1796439-.1710958.0621074-.4696787.0148256-.686409.0345486,1.7208418,1.1336711,3.7552925,1.4593453,5.5217688,2.4785518.8348656.4672968,1.5842501,1.0998571,2.2510029,1.7809012-.7361616.0039401-1.5439805-.16001-2.2824795-.3475564Z" fill="#423b30" stroke-width="0"/>
      <path d="m58.5597393,112.6749602c-3.0511418-.9066119-5.3972869-3.4848472-7.3398454-5.8841064-.1110142-.2002128.0008904-.2355183.1624364-.1652858.0111304.0348825-.0868613.0126886-.1168465.022795l.0028494-.0028494c-.003673.0018254-.0073683.0032946-.0111526.0046525,2.8733232,2.0261252,5.9422291,3.7750155,9.0636257,5.3151004.5318751.3172151,1.1470275.6363669,1.6155709.9887539-1.1255682.0627529-2.285507-.006233-3.3766379-.2790602Z" fill="#423b30" stroke-width="0"/>
      <path d="m70.7587858,2.2588284C75.0522588.2883438,80.0143878-.2005681,84.7103066.0676957c3.7526157.2194015,7.4311588,1.2622712,11.1723826,1.4588778.0484393.0056987.1082761-.0028494.1624141-.0113975.0797824-.0113975.1567154-.022795.1966066.0085481-.6781502.1738116-1.3961917.1909078-2.0942875.2023053-1.6697312.0313431-3.3565587-.0313431-5.0433862-.0940292-2.7923777-.1025773-5.5847666-.2051547-8.2831207.1253723-2.7654924.3770185-5.5109501,1.0186278-8.2935164,1.1631109-.5869481-.2274711-1.1741411-.457413-1.7686133-.661655Z" fill="#423b30" stroke-width="0"/>
      <path d="m89.2677193,120.5342593c-1.7602878-.1097676-3.5401706-.5586102-5.1031617-1.3163202,3.8968539-2.0752101,8.3568982-2.0299986,12.5867446-2.8802463,5.5738143-1.0434707,11.120671-3.2040061,16.3998648-5.0012467,4.4158568-1.4261991,8.7112609-3.4683075,12.3463679-6.3483534-3.2101055,3.9829083-7.7641123,6.9579852-12.466086,9.0267397-7.3794695,3.7009541-15.4604852,6.3289644-23.7637296,6.519427Z" fill="#423b30" stroke-width="0"/>
      <path d="m81.3526627,11.6809294c-3.6335988-.2854045-6.8465314-2.2794743-10.4168375-2.8918219-3.2705211-.4648704-6.6561745-.1135964-9.9048578-.2992952,10.9078586-7.6859327,14.5865075,1.3382693,23.8503905-.3717761,6.768541-1.6959321,13.8311794-5.5662012,20.8221327-2.5776343.5647987.2658374,1.3901813.554581,1.5812894,1.1968025.0029607.0711675-.1230572.1492358-.0740614.0655355h-.0028494c.0014915-.0029607.0029607-.0059659.0044521-.0093272-.0019144-.0100173-.0038066-.020747-.005721-.0309869-2.1443296-.4931192-4.4409224.5141556-6.6121206.7127656-1.4578761.2244992-2.9211838.4222634-4.374118.6899261-4.9635648,1.1106535-9.6646871,3.7727672-14.8676992,3.5158118Z" fill="#423b30" stroke-width="0"/>
    </g>
  </g>
</svg>