<?xml version="1.0" encoding="UTF-8"?>
<svg id="Layer_2" data-name="Layer 2" xmlns="http://www.w3.org/2000/svg" viewBox="0 0 101.6415006 150.4156853">
  <g id="Layer_1-2" data-name="Layer 1">
    <g>
      <g>
        <path d="m3.5398035,62.8871258c1.1952661-2.1779449,2.4590712-4.3292065,4.0061023-6.2777681,1.4219639-1.8165124,3.3531558-3.1943745,4.6229909-5.1312668,2.2959689-3.9322289,2.1406176-8.6830456,2.4189243-13.0918625.1228822-6.7658545-.1930569-13.5461371.3763975-20.2969289.1528734-1.8160486.2611444-3.8552308.9343414-5.5028306-.2402836.9543233-.2906718,1.9598404-.3437209,2.9217316-.1253723,6.2126102.4979858,12.4040056.9251743,18.5959869.1981592,5.8952918.8981859,12.2311381-1.5908277,17.7552811-1.238428,2.6508953-3.6088439,4.4199491-5.8246165,6.2060431-1.841914,1.5815386-3.6618809,3.3450751-5.5247655,4.821614Z" fill="#423b30" stroke-width="0"/>
        <path d="m2.5263105,64.0858984l.7412264-1.348789c1.144648-2.0839398,2.42539-4.2918223,4.0342158-6.3210814.6318651-.8080583,1.3706613-1.5359183,2.0827246-2.2406909.8991927-.8870414,1.8275483-1.804461,2.5250302-2.8676955,1.8980256-3.2541054,2.0827246-7.1425061,2.2601329-10.9033187.0340235-.6841155.0656168-1.3645856.106931-2.037765.0413143-2.2297548.0340235-4.5141902.0267328-6.7232879-.0145815-4.453434-.029163-9.0575434.3499561-13.5802395l.0437445-.5322248c.1336638-1.6537854.2867696-3.5299388.9137742-5.0622117l.5881206.1932049c-.223583.9016229-.2770486,1.8615718-.3305141,2.7899275-.1020705,4.9710773.2746183,9.955521.6391559,14.7759228.09721,1.2843874.19442,2.5699899.2843393,3.8543772.0267328.7946919.0607563,1.5857384.09721,2.3804303.2308738,5.2444805.4714686,10.6675844-1.7157568,15.5244399-1.183532,2.5311058-3.3440246,4.2614442-5.4364703,5.9358867l-.4787593.3839796c-.6926214.5966265-1.3925335,1.2260614-2.0900154,1.8554962-1.1179152,1.0073388-2.2747144,2.0499163-3.4363741,2.9685509l-1.2054042.9550884ZM15.2389506,18.5575864c-.3426653,4.3525786-.3280838,8.7890008-.3135023,13.0832533.0072908,2.212743.0145815,4.5008238-.0267328,6.7512358-.0437445.6829004-.0753378,1.3609403-.106931,2.0414104-.1822688,3.8361503-.3693981,7.801104-2.3524824,11.2010243-.7436566,1.1324967-1.6963148,2.0730036-2.6173797,2.9831324-.6999121.6914063-1.4216965,1.4058999-2.0316894,2.18358-1.2151252,1.5310578-2.2431212,3.172692-3.1666163,4.783948.7169239-.6148534,1.4289873-1.2564395,2.1264691-1.8846592.7023424-.6330802,1.4046848-1.2661605,2.1118876-1.8712928l.4860501-.3924854c2.0365499-1.6294829,4.1387165-3.3136465,5.259062-5.7086583,2.1264691-4.7183313,1.8883046-10.0660974,1.6598611-15.2376703-.0364538-.7983373-.0704773-1.5905989-.09721-2.3755698-.087489-1.2734512-.184699-2.5566235-.2819091-3.8410108-.2916301-3.8385806-.5881206-7.781662-.6488769-11.7162374Z" fill="#423b30" stroke-width="0"/>
      </g>
      <g>
        <path d="m41.668914,65.4064601c-1.5809527-2.0014887-2.9469745-4.2190068-4.8455874-5.9407729-1.7723007-1.4260287-3.9199981-2.1184507-5.5949891-3.6616611-8.0824281-9.5891535-2.0279034-29.6776209-1.7214487-41.3919143.0342024-.556003-.020458-1.1921534.0312973-1.6873684.4031052,2.6248712.4124798,5.3091145.4090131,7.9622314.2977149,8.7751554-2.4457296,26.9927917,4.0648152,33.3416013,1.0228014.8161221,2.1237727,1.5272688,3.1227472,2.3752497,2.6501141,2.2369508,3.6383224,5.8284494,4.5341525,9.0026344Z" fill="#423b30" stroke-width="0"/>
        <path d="m42.3897087,66.8247907l-.9648094-1.2248462c-.4666081-.5905509-.9137742-1.2005437-1.3633705-1.8105366-1.0474379-1.4241268-2.1288994-2.8980737-3.4460951-4.0925418-.7801104-.6257895-1.6720123-1.1264211-2.5371815-1.6112561-1.0450077-.5869055-2.1264691-1.1920378-3.0621156-2.0535616-6.0391724-7.1619481-4.3793113-19.7457849-2.9138703-30.8483841.5200736-3.9442965,1.0134144-7.6686553,1.0936127-10.780591.0145815-.2576065.0121513-.5200736.009721-.7788953-.0024303-.3171477-.0048605-.6452315.0243025-.9307859l.2478855-2.4108084.3693981,2.3950118c.3888401,2.5408268.4155728,5.0257579.4107123,8.0088904.0704773,2.0523465-.029163,4.6709414-.1312335,7.4438571-.3499561,9.3139349-.7874011,20.9074447,4.1022628,25.675596.4180031.3305141.8724599.6622432,1.329347.9939724.5929811.4325846,1.2054042.8797507,1.7789433,1.3670159,2.6902873,2.2734993,3.7061319,5.8727002,4.6004641,9.0490376l.4520266,1.6088258Zm-12.7733964-49.1032104c-.2090015,2.3379009-.5468064,4.8920942-.8967624,7.5434974-1.4484293,10.975011-3.0888483,23.414248,2.746183,30.3380315.8530179.7825406,1.8567113,1.3451436,2.9187308,1.9393399.8846112.4969862,1.8008156,1.0109842,2.6343915,1.6805182,1.377952,1.2503639,2.4788555,2.7486133,3.5433052,4.1982577.116652.1579663.233304.3147174.3475258.4726837-.7922616-2.6744906-1.8324088-5.4425459-3.9758897-7.2518674-.5565274-.4738988-1.1592295-.9137742-1.7424896-1.339068-.4617476-.3365897-.9259254-.6743945-1.3730915-1.0316413-5.1108167-4.9807983-4.6685111-16.7274139-4.3136946-26.1652915.1020705-2.7607645.2017108-5.3684233.1312335-7.4086185.0024303-1.0474379,0-2.0316894-.019442-2.9758417Z" fill="#423b30" stroke-width="0"/>
      </g>
      <g>
        <path d="m2.7140383,145.5526007c-3.3206378-13.3329151-2.3785454-26.9344938-1.9454612-40.417548.1205873-7.7644628-.5702967-43.6154624,6.3790449-46.3254124-4.7483876,3.0170395-2.6881616,24.6188115-3.009032,30.6707118.497107,10.0754822.1230286,20.1698843-.2268321,30.1808433-.1423026,3.773643.063327,7.5399621.0239856,11.3139956-.1480274,4.8579648-.6567915,9.8018628-1.2217052,14.5774097Z" fill="#423b30" stroke-width="0"/>
        <path d="m2.822801,147.2770168l-.4107123-1.6489249C-.5649681,133.6700446-.1202323,121.3462445.3099221,109.4295114c.0510353-1.436278.1020705-2.8713409.1482453-4.3039736.0121513-.8031978.0170118-1.9150374.019442-3.2613961.0413143-12.2205144.1336638-40.8391437,6.559246-43.344732l.2794788.552882c-3.4679674,2.203022-3.1374533,15.2449611-2.9187308,23.8759956.068047,2.7328166.1288033,5.0925898.0510353,6.549525.4860501,9.8145665.136094,19.8004656-.2017108,29.4570657l-.0243025.7169239c-.0826285,2.2066674-.0461748,4.4510037-.009721,6.6224325.0243025,1.533488.0510353,3.1204416.0340235,4.6843077-.155536,5.0828688-.7072029,10.23743-1.2248462,14.6106657l-.1992805,1.6878089Zm2.1143179-85.467048c-3.7328647,8.005245-3.8057722,30.6539641-3.8373655,40.055388-.0024303,1.3512193-.0072908,2.4654891-.019442,3.2747625-.0461748,1.4399234-.09721,2.8749863-.1506755,4.3112643-.4058518,11.3006646-.8287154,22.9658668,1.6793031,34.3005549.4495963-3.9503721.8821809-8.4001607,1.0158447-12.7867628.0170118-1.5492847-.009721-3.1313777-.0340235-4.6612204-.0364538-2.1787195-.0729075-4.4315617.009721-6.6552409l.0243025-.7157088c.3378048-9.6444489.6877609-19.6157665.2017108-29.4364086.0753378-1.4642259.0170118-3.813063-.0510353-6.5325132-.1798385-7.0902557-.4107123-16.1793924,1.1616597-21.1541151Z" fill="#423b30" stroke-width="0"/>
      </g>
      <g>
        <path d="m40.5766824,147.073449c-2.0481417-5.3872601-2.7266973-11.1176918-2.6155211-16.8522737-.3003515-7.8480524.5441139-15.6517466,1.2749863-23.4519742.8605291-12.3062504.186734-24.6661725,1.212172-36.9700853.1734778-2.5637414.3286704-5.2433951.4597187-7.7495953.3232507,11.5753353.5726037,23.1558767,1.3057953,34.7170404.3687319,7.9774223-.3430007,15.9395072-.7244762,23.9008597-.2035301,8.807893.8568183,17.7115333-.9035201,26.4130838-.0038816,0-.0077877-.0023436-.0091548-.0070553Z" fill="#423b30" stroke-width="0"/>
        <path d="m40.8416391,147.3912386h-.4471661l-.1093613-.2077864c-1.8980256-4.9917344-2.7607645-10.5424265-2.6343915-16.9680087-.2746183-7.13157.4107123-14.3481987,1.0717405-21.327878l.204141-2.1471263c.4058518-5.821665.4690383-11.7660576.5322248-17.514815.068047-6.3794074.1385243-12.9751072.6780399-19.4517246.155536-2.2625632.3062116-4.7960993.4593173-7.7403477l.6221441.0072908.1239428,4.5542894c.2673275,9.887474.5443761,20.1127528,1.183532,30.1521174.2819091,6.1181555-.0753378,12.3152942-.4204333,18.3095069-.106931,1.8749382-.213862,3.7498764-.3037813,5.6248147-.0631865,2.7121595-.0048605,5.4899358.0534655,8.1765777.126373,6.0185152.2576065,12.2411715-.9648094,18.2839893l-.048605.2491007Zm-.048605-78.0973135c-.0121513.1774083-.0218723.3523863-.0340235.5261492-.5395156,6.4596057-.6099929,13.0443693-.6780399,19.4116255-.0631865,5.7584784-.126373,11.7113769-.5346551,17.5597747l-.204141,2.154417c-.6610281,6.9590222-1.3414983,14.1562089-1.0693102,21.2634763-.1142218,5.9164447.6099929,11.0637152,2.2163884,15.7091389.9842514-5.6321054.8627389-11.4294679.7436566-17.0482069-.058326-2.6927175-.116652-5.4777845-.0534655-8.2106012.0899193-1.8846592.1968503-3.7620277.3062116-5.6393962.3426653-5.977201.6974819-12.158543.4180031-18.2390297-.5808299-9.140172-.8627389-18.4334497-1.1106245-27.4873478Z" fill="#423b30" stroke-width="0"/>
      </g>
      <g>
        <path d="m22.9918763,149.9163759c-6.435109-.3373126-12.9986534-1.1556318-18.8835461-3.940334-.6984032-.4105023-1.9131752-.7365117-2.1529217-1.5812457.0749963-.3249841.753088-.1062448.9374784-.0780723-.1799594.0661589-.5101556-.0306381-.7286019.0516576-.0179923.0192129-.0365339.0382305-.0548069.0567111,2.0857009,1.5434545,5.039035,1.7592154,7.5386438,2.3663634,4.4833616.7404422,9.0206389.7871196,13.5531191.7718615,3.6232841.0494116,7.301546-.1304379,10.8290097-.9768075,2.7667344-.7253062,5.3171463-1.356159,8.0949641-1.8107754-6.089667,4.8928019-11.4815411,5.7948573-19.1333385,5.1406413Z" fill="#423b30" stroke-width="0"/>
        <path d="m26.9916418,150.4156853c-1.2977537,0-2.6319612-.0704773-4.0220645-.1895595-5.9006481-.3098569-12.7709661-1.0243506-18.9948375-3.9698141-.1919898-.1105764-.3888401-.2029259-.5954114-.3001359-.7047726-.3317292-1.504325-.7072029-1.7230476-1.4763772l-.0048605-.155536c.136094-.5711089.8675994-.4082821,1.183532-.3365897l.1045008.0218723,1.2054042.1822688-1.144648.416788c-.0072908.0036454-.0145815.0060756-.0218723.0085059,1.4216965.7995524,3.1593256,1.1410026,4.8483497,1.4715166.6464466.126373,1.2831722.2515309,1.8931651.3997762,4.4279163.7315054,8.8801352.7776801,13.4805993.7643138,4.3088341.0558958,7.7573594-.2491007,10.7562885-.9684548,3.0499643-.7995524,5.4753543-1.3828125,8.1170365-1.8153971l1.1665202-.1907747-.9210649.7412264c-5.1837242,4.163019-9.9227126,5.3963711-15.3275896,5.3963711Zm-21.6948458-4.2444324c5.8277406,2.5007277,12.1949968,3.1447441,17.7116653,3.4339439l.009721.0012151c6.8290038.5844752,12.0394607.0473899,17.9206668-4.3064038-2.1629229.4009913-4.2748105.9174195-6.831434,1.5881687-2.81423.6743945-5.9759859.9939724-9.8911193.9939724-.3329443,0-.6731794-.0024303-1.0207052-.0072908-4.6126154.0133664-9.1037182-.0328084-13.5996815-.776465-.6245744-.1506755-1.251579-.2746183-1.8883046-.3985611-.8044129-.1579663-1.6185468-.3183628-2.4108084-.5285795Z" fill="#423b30" stroke-width="0"/>
      </g>
      <g>
        <path d="m37.732364,144.8212157c-4.0608847-5.393998-9.4365487-11.4380862-16.6285054-11.7191759-5.7140873-.1329769-12.1746834,3.567989-14.5631526,8.7620701.0053708.0132318.0103999.0265856.013598.0417704.0004028,0,.0007812.0000244.0013427.0000244h-.0013305.0013305c.0093745.0031248.0093745.0218739-.0031248.0187491-.2687368-.040623.4124798-1.4405543.4530784-1.5218247,1.0688685-1.9840823,2.6374194-3.6793361,4.3372872-5.1432535,9.6908697-8.305403,23.310697-1.9299834,26.3894766,9.5616402Z" fill="#423b30" stroke-width="0"/>
        <path d="m38.4478424,146.2879049l-.9623792-1.2795269c-4.201903-5.5810702-9.4366625-11.323752-16.3944696-11.5947249-.0996403-.0024303-.1968503-.0036454-.2964906-.0036454-5.599297,0-11.6408997,3.6660328-13.9180443,8.4718531l.0340235.1275881-.2648973.2636822-.1992805-.0558958h-.1579663l-.058326-.1859142c-.1676873-.3220082.1774083-1.1397875.4982013-1.7692223.9745304-1.8105366,2.4180992-3.5214329,4.4109046-5.2384049,4.1970425-3.5955555,9.567896-4.7402035,14.7467598-3.1374533,5.8544733,1.8129668,10.508403,6.7378694,12.148822,12.8548098l.4131426,1.5468544Zm-17.6460485-13.5000413c.1045008,0,.2065713.0012151.3086418.0036454,6.6224325.2588217,11.6797837,5.210457,15.7796162,10.4233442-1.9247584-5.1193226-6.0853471-9.1535383-11.1888731-10.7344163-5.0379092-1.5602208-10.0660974-.4896955-14.1562089,3.0147257-.5929811.5115677-1.1373572,1.0219203-1.6331283,1.5347032,2.9916383-2.5748504,7.0404356-4.2420022,10.8899523-4.2420022Z" fill="#423b30" stroke-width="0"/>
      </g>
      <g>
        <path d="m11.0407782,112.3336985c-.0097407.0023436-.0209829-.0036375-.0156242-.0156242.0781212-.121869.0937454-.1468678.2593623-.2343635,1.5238144-.7668325,3.0673055-1.5018794,4.6341354-2.1718173,5.2420768-2.1895166,10.8494554-4.083491,16.5117508-4.3902387-6.8804485,2.9321803-14.5705497,3.7535023-21.3800178,6.7980063.0041502.006738-.0010375.0165519-.0096065.0140374Z" fill="#423b30" stroke-width="0"/>
        <path d="m11.1609904,112.6969831l-.1288033-.0400991-.0996403.0243025-.2648973-.2904149.019442-.0546806-.1020705-.1506755.2260133-.1008554c.0850588-.1239428.155536-.184699.3280838-.2758334,1.7084661-.8603087,3.2322331-1.5735872,4.6587901-2.1823649,4.5032541-1.8810139,10.459798-4.0828208,16.6156224-4.4157651l1.7619316-.0947798-1.6234073.6926214c-3.3658969,1.4338478-6.9748188,2.3792152-10.4622282,3.2929894-3.6283639.9502279-7.3758101,1.9320491-10.8267658,3.4631069l-.1020705.1324486Zm19.1528038-6.6746829c-5.0549209.6172836-9.8813983,2.3646337-13.7284848,3.9503721,1.7813736-.5395156,3.5773287-1.0097691,5.346551-1.4727318,2.7826368-.7290751,5.6430416-1.4775923,8.3819338-2.4776403Z" fill="#423b30" stroke-width="0"/>
      </g>
      <g>
        <path d="m33.683173,77.6506836c-7.7386339-.8420241-15.478513-1.8457102-23.2801321-1.4530537-.8874442-.0364972-1.8800103-.0059812-2.6748687-.4281772-.4950929-.5875932.714357-.5247545,1.056247-.5499486-.2169693.1393242-.6899442.0996777-.9341339.3026219.0100337.0132318.0200796.0265368.0301255.0400127,2.6361255.3347736,5.2360102-.6917629,7.8567678-.9176063,3.8630185-.5119378,7.7717256-.4090375,11.6556048-.2434695,4.2041882.0514135,8.2530374.2991064,12.049482,2.2777203-1.6015572,1.2224986-3.8207354,1.2282356-5.7590924.9719006Z" fill="#423b30" stroke-width="0"/>
        <path d="m35.5339722,78.0926469c-.5856904,0-1.2151252-.0449596-1.8907349-.1336638l-2.3889362-.2636822c-6.8192828-.757023-13.8524276-1.5407788-20.8369674-1.1871773l-.3864098-.0121513c-.7946919-.0243025-1.6963148-.0522504-2.4496925-.4520266l-.0923495-.0741226c-.233304-.2782637-.2090015-.4994165-.1482453-.6367256.174978-.3876249.7728196-.4034216,1.2540092-.416788l.1676873-.0060756,1.2175555-.0862739-.7630986.4896955c1.1883925-.0315933,2.3865059-.2709729,3.5554564-.504277.9599489-.1919898,1.9514911-.3900552,2.9381728-.475114,3.9054125-.5200736,7.9201862-.4046367,11.6943652-.2442402,4.007483.048605,8.257991.2673275,12.1804153,2.3123833l.4350148.2260133-.3888401.2964906c-1.0231354.7813255-2.3719244,1.1677353-4.0974023,1.1677353Zm-21.5490308-2.2941564c5.8204498,0,11.6579114.6488769,17.3374067,1.2783117l2.4010874.2648973c2.2163884.2940603,3.890831.0887041,5.103526-.6233592-3.6745387-1.7631467-7.6601494-1.959997-11.4391889-2.0061717-3.7571672-.1591814-7.7379174-.2721881-11.6093064.2405948-.9672397.0838436-1.9417701.2782637-2.8847073.4666081-.9016229.1810537-1.8226878.3645376-2.7510435.4581022l.2721881.0085059c1.1883925-.0595411,2.3792152-.087489,3.5700379-.087489Z" fill="#423b30" stroke-width="0"/>
      </g>
      <g>
        <path d="m23.6784149,28.955905c-1.7473752-.0346663-3.5460784-.0117182-5.2122931-.6062203-.1683999-.0780479-.5145499-.1614667-.4624407-.3781553.0551731-.0681607.1655192-.0021239.2437747.0062741.0120355.0453347-.1225892.0081051-.1609174.0365705,2.3256183.4225134,4.7183598-.4540305,7.0637037-.3428299.9714855.0519506,2.0130848.2759874,2.8467109.7155655-1.3910694.4594501-2.8607239.6073432-4.3185381.5687953Z" fill="#423b30" stroke-width="0"/>
        <path d="m24.1093648,29.2725607c-.1433848,0-.2891998-.0024303-.4374451-.0060756l-.4471661-.0085059c-1.6185468-.0267328-3.2905591-.0546806-4.8629312-.6148534l-.1190823-.048605c-.126373-.0498201-.3596771-.1433848-.4811896-.3220082l-.4034216-.0729075.3378048-.2697578.0072908-.0328084.0558958-.1178671c.165257-.213862.4131426-.1433848.4982013-.1178671l.2162923.019442.029163.0826285c1.1495085.1445999,2.3208892-.0109361,3.5481657-.1761932,1.0182749-.136094,2.0608524-.2697578,3.1131508-.2272284,1.115485.0607563,2.1726439.3268687,2.9794871.7509474l.6464466.3414502-.6950516.2296587c-1.1883925.3924854-2.5274605.5905509-3.9856107.5905509Zm-4.0876813-.8457272c1.0474379.1737629,2.1434809.1919898,3.2127911.2102167l.4520266.0072908c1.2491487.0315933,2.3476219-.0741226,3.3707574-.3159326-.5808299-.1895595-1.2394277-.3098569-1.9247584-.3463107-.9818212-.0522504-2.0049566.0899193-2.9989291.2223679-.6950516.0923495-1.4022545.1871293-2.1118876.2223679Z" fill="#423b30" stroke-width="0"/>
      </g>
      <g>
        <path d="m16.1373909,14.6067311c-2.5007684-.7088763-4.3678033-3.2884617-3.3312819-5.8653128.1806186-.4903568.6095526-2.1331717,1.31246-1.8342118.2093647.2624871.1406181.7093402.146819,1.028099-.1200747-.1316342-.1847688-.4442653-.2896953-.6388114-.2873882,1.1831207-.4076582,2.6136657.017797,3.7418086.7513547,1.2185185,1.7348148,2.2384156,2.1439011,3.5684284Z" fill="#423b30" stroke-width="0"/>
        <path d="m16.6047514,15.0628863l-.5516669-.1567512c-1.4824528-.4204333-2.7510435-1.4581503-3.3974901-2.775346-.5492366-1.1191303-.5978416-2.3646337-.1385243-3.5056363l.0729075-.2162923c.2600368-.776465.5540971-1.5541452,1.0644497-1.7838038.058326-.0267328.116652-.0449596.1774083-.0546806l.0315933-.136094.068047.126373c.0947798-.0182269.2065713.0170118.3086418.0595411l.1215125.0935646c.2381645.2977057.2260133.6999121.2162923,1.0231354-.0024303.068047-.0024303.1324486-.0024303.1932049l.0121513.8238549-.4763291-.5249341c-.1190823.8092734-.1531058,1.833624.174978,2.6987931.2090015.3317292.4690383.6950516.7266449,1.0547287.5540971.776465,1.1276362,1.5796628,1.4216965,2.532321l.1701175.5480215Zm-3.0086501-7.4961075c-.1798385.3317292-.3329443.7922616-.4155728,1.0389321-.0315933.0959949-.058326.1786234-.0826285.243025-.5054921,1.2588697-.2162923,2.3293951.116652,3.0086501.4763291.9733153,1.3439285,1.775298,2.3865059,2.2285397-.2819091-.6051324-.6804701-1.1616597-1.0936127-1.7412745-.2648973-.3718283-.5346551-.747302-.7776801-1.1434328-.4836198-1.2588697-.3232233-2.7085141-.1336638-3.6344396Z" fill="#423b30" stroke-width="0"/>
      </g>
      <g>
        <path d="m30.6290504,11.9874261c-.454592-.9577167-.1534349-1.9904785.0537327-2.9676522.1255554-.8322101.1192813-1.6445238.1618329-2.4664561.0031248-.0531224.0687466-.0687466.1031199-.0311996.9110881,1.632,1.4360135,4.2024549-.3067232,5.4728027-.0040769-.0000244-.0097163-.0029295-.0119623-.0074947Z" fill="#423b30" stroke-width="0"/>
        <path d="m30.7439485,12.3057672h-.2940603l-.1020705-.184699c-.4544568-.9575187-.2308738-1.9745785-.0315933-2.872556l.0631865-.2928452c.0850588-.5771845.106931-1.1811017.126373-1.7643618.0072908-.2175074.0170118-.4350148.0267328-.6537374l.0121513-.2126469.2381645-.1154369c.1433848-.0473899.2964906-.0036454.3961308.1032856,1.1081942,1.9709331,1.4411385,4.6247666-.3548166,5.9334565l-.0801983.0595411Zm.3693981-4.686738c-.019442.4738988-.048605.9575187-.1215125,1.4472141l-.068047.3159326c-.1628268.7327205-.3159326,1.4314175-.1506755,2.0875851.9040532-.9405069.8505877-2.4776403.3402351-3.8507318Z" fill="#423b30" stroke-width="0"/>
      </g>
      <g>
        <path d="m24.0769549,6.8913871c-2.3123865-.2499877-4.6247731-.4406034-6.8809124-.5749718-.6652506-.0077633-1.3283162-.0240711-1.9928588-.0063473-.1918363.0724574-1.2299567.299375-.9507956-.1344416,2.5660728-1.0612028,5.5132549-1.1888821,8.2715058-1.2590691,2.8025358-.0263903,5.8412051.0298081,8.2027347,1.6966209-2.1657873.6380302-4.4368673.5992138-6.6496737.278209Z" fill="#423b30" stroke-width="0"/>
        <path d="m26.9892116,7.4270394c-.9259254,0-1.9053164-.0765529-2.9503241-.2272284-2.2334002-.2418099-4.5421381-.4337997-6.8630273-.572324l-.4155728-.0060756c-.4982013-.0060756-.9988329-.0133664-1.5067553-.0012151-.2187225.0656168-1.0012632.2734032-1.271021-.0619714-.058326-.0716924-.1725478-.2697578.0072908-.5516669l.0534655-.0814134.0899193-.0376689c2.5444722-1.0510833,5.4170283-1.2066194,8.3843641-1.2819571,3.0888483-.0340235,6.0221606.0838436,8.3892246,1.7534257l.5249341.3706132-.6172836.1822688c-1.1665202.3438804-2.4326807.5152131-3.8252142.5152131Zm-11.1354076-1.436278c.3062116,0,.6099929.0048605.9162044.0085059l.4277241.0060756c2.3476219.1397394,4.6685111.3341594,6.9140625.5759694l.009721.0024303c2.2285397.3220082,4.143577.2928452,5.8350313-.0911344-2.1191784-1.2054042-4.7122556-1.2892479-7.4292756-1.2649454-2.3719244.0607563-4.6830926.1725478-6.7852593.7630986h.1117915Z" fill="#423b30" stroke-width="0"/>
      </g>
      <g>
        <path d="m15.7218717,5.2057764c-.7301155-.6229187-.7788558-2.1229915-.0624481-2.7748394.8349322-.6553878,1.1821563.5002196.9468652,1.1155458-.0989087.3908011-.2879497.8158779-.374945,1.2006735.077877-.0067624.1826204-.0697964.2436648-.0413798-.0472633.3557931-.3761656.7635368-.7531369.4999999Z" fill="#423b30" stroke-width="0"/>
        <path d="m15.9655955,5.6019213c-.1433848,0-.2867696-.0473899-.4204333-.1409545l-.0243025-.0182269c-.4180031-.3560317-.6731794-.9660246-.6853306-1.6319132-.009721-.6585979.213862-1.2455034.6148534-1.6100409.5540971-.4410905.9550884-.2405948,1.1033337-.1324486.4350148.3207931.5322248,1.0948278.3450956,1.5881687-.038884.1579663-.1093613.3584619-.1774083.5577425-.0267328.0765529-.0534655.1518907-.077768.2260133l.1725478.0801983-.0315933.2284435c-.0413143.2940603-.2260133.6537374-.5492366.7946919-.0899193.038884-.1798385.058326-.2697578.058326Zm.1506755-3.0536097c-.087489,0-.1968503.0741226-.2648973.1275881-.2478855.2260133-.4009913.6513071-.3937006,1.125206.0072908.4508115.165257.8724599.4155728,1.1203455l.0534655-.243025c.048605-.2150772.126373-.4410905.2065713-.6683189.0631865-.1822688.1288033-.3657527.1725478-.5407307.126373-.3378048.0315933-.7874011-.1215125-.9004078-.019442-.0145815-.0437445-.0206571-.068047-.0206571Z" fill="#423b30" stroke-width="0"/>
      </g>
      <g>
        <path d="m25.911069,2.8547931c-3.1127623-.4559347-5.9953723-1.1931055-9.113005-1.3981492.0390362.0304917.1714638.0333236.1602582.0793906-.2007226.0223134-.8826593.0957717-.6780917-.2657584,1.9013715-.8780819,4.1673248-.8627018,6.2434925-.959157,1.084334-.0124994,2.1811552.1062448,3.2498527.2781114,1.0124503.1656169,2.1623939.7562129,2.5936227,1.7343143-.7631461.3325765-1.608051.5854449-2.4561295.5312483Z" fill="#423b30" stroke-width="0"/>
        <path d="m26.1434844,3.172886c-.0850588,0-.1701175-.0024303-.252746-.0085059l-.0267328-.0024303c-1.1227757-.1640419-2.2309699-.3681829-3.3002801-.5650332-1.8153971-.3329443-3.5384447-.650092-5.3538417-.7983373l-.0072908.0230874-.2114318.0230874c-.4009913.0437445-.8092734.0510353-.9915422-.2199377-.048605-.0741226-.1117915-.2223679-.0315933-.4228636l-.155536-.1215125.2090015.0133664.0364538-.0644016.0899193-.0413143C17.8879236.184893,19.871008.107125,21.7884756.0305721L22.51026.000194c.9696699-.0048605,2.0657129.0814134,3.3124314.2819091.9891119.1616117,2.3208892.7606684,2.8288115,1.9162525l.126373.2855544-.2867696.1251579c-.8675994.3779039-1.6379888.5638181-2.3476219.5638181Zm-.2017108-.6282197c.6148534.0328084,1.241858-.087489,1.9855146-.3766888-.4666081-.7035575-1.4046848-1.1410026-2.2042372-1.271021-1.2102647-.1956352-2.2552724-.2734032-3.1957793-.2746183l-.7144936.0303781c-1.4994645.0595411-3.0402433.1202974-4.4327768.5370854,1.8153971.155536,3.5821892.4799745,5.2955157.795907,1.0620194.19442,2.1580624.3961308,3.2662566.5589576Z" fill="#423b30" stroke-width="0"/>
      </g>
      <g>
        <path d="m27.5314973,3.5463852c-.3072115-.3748595-.2585322-.8336261-.2620965-1.2822613-.4708021-.7457642.6914212-1.1060004,1.1339287-.5613982.3281089.3281089.5968457.8062104.5593231,1.2842632-.0131829.7840436-.904814,1.2526729-1.4311554.5593964Z" fill="#423b30" stroke-width="0"/>
        <path d="m28.1435805,4.1960214c-.3232233,0-.6270046-.1591814-.8554482-.4568871-.3353746-.4107123-.3329443-.883396-.3305141-1.300184v-.0923495c-.2017108-.3876249-.1215125-.7825406.2162923-1.0243506.3912703-.2819091,1.096043-.2782637,1.4703015.184699.4252938.4216485.6683189.9927573.6294349,1.5031099-.0072908.5152131-.3329443.9769607-.8068432,1.1337118-.1093613.0352386-.2162923.0522504-.3232233.0522504Zm-.3426653-2.4424017c-.1045008,0-.2017108.029163-.2648973.0741226-.0461748.0328084-.1190823.0862739-.0048605.2709729l.048605.0741226v.2685427c-.0024303.3596771-.0024303.6683189.1919898.9076985l.0072908.0085059c.1385243.184699.3232233.2515309.4933408.19442.1798385-.058326.3742586-.262467.3791191-.5698937.0315933-.4107123-.2211528-.8129188-.4690383-1.0595892-.09721-.1202974-.2454553-.1689024-.3815493-.1689024Z" fill="#423b30" stroke-width="0"/>
      </g>
      <g>
        <path d="m70.2064785,95.0309587c-6.3036702-2.4076272-12.0272907-7.095477-13.8836937-13.8022463-2.2254279-7.8275517-2.1195493-16.1644229.0184317-24.0020754,1.2280892-4.5740431,3.2043594-10.0415727,5.8440004-13.4784158-5.3829878,11.5875174-6.5346403,25.4081771-2.4971187,37.5829703,2.1378101,5.5391508,6.2077276,9.8575974,10.5183804,13.6997672Z" fill="#423b30" stroke-width="0"/>
        <path d="m71.6790871,95.9270399l-1.5845233-.6051324c-7.2445766-2.7680553-12.3724051-7.8740115-14.0711501-14.0103939-2.1969464-7.7184754-2.1896557-16.0761068.019442-24.1664105.9089137-3.3914145,2.8847073-9.6675363,5.8933573-13.5863152l1.7157568-2.2334002-1.1859622,2.5541932c-5.5142383,11.8681281-6.4182914,25.4836063-2.483716,37.3529495,2.2163884,5.7366062,6.5179317,10.0782486,10.4306349,13.5668732l1.2661605,1.1276362Zm-11.2885134-48.7131552c-1.8202576,3.5056363-3.0766971,7.5921024-3.7474462,10.0928301-2.1799347,7.9833727-2.1872254,16.2255672-.0218723,23.8371116,1.514046,5.4704938,5.8617641,10.1025511,12.0443212,12.9082753-3.5797589-3.3233675-7.2518674-7.3879614-9.266545-12.6093545-3.5992009-10.848638-3.2103608-23.1165423.9915422-34.2288625Z" fill="#423b30" stroke-width="0"/>
      </g>
      <g>
        <path d="m85.6628185,97.7922245c8.5857176-8.2477642,12.2567533-14.225718,13.0621032-26.2736375,1.0457373-8.9634762.3998156-19.4722135-3.7882846-27.0757955,5.9709228,8.4186787,6.8844278,19.3715348,6.2004587,29.4005837-.4292636,11.3863554-4.7158453,19.4457988-15.4742773,23.9488493Z" fill="#423b30" stroke-width="0"/>
        <path d="m84.2459122,98.723043l1.2005437-1.1555841c8.1267575-7.8059645,12.139101-13.6981067,12.9678164-26.0692966,1.2297067-10.5448567-.1385243-20.3460568-3.7498764-26.9065179l.5249341-.3292989c5.0816537,7.1643783,7.1279246,16.8477113,6.2578949,29.6016657-.4593173,12.2375262-5.4364703,19.9341293-15.6653944,24.2150155l-1.5359183.6440164Zm13.0091307-49.7119882c2.1045969,6.2481739,2.755904,14.1744358,1.7789433,22.5442183-.7971221,11.9021516-4.4959633,17.8975795-11.896076,25.2320753,8.9020074-4.2966828,13.2618767-11.6372543,13.6871706-22.9561458.6950516-10.1657376-.4763291-18.3423153-3.5700379-24.8201479Z" fill="#423b30" stroke-width="0"/>
      </g>
      <g>
        <path d="m78.7694373,101.1129844c-3.4401388-.5873491-8.1753801-2.621136-9.6149579-5.987432-.0253406-.2613092.2135393-.3488781.3655826-.2624566-.0593721.0063229-.1146428.0123041-.1796054.0294846-.0197012.0194387-.040916.0388958-.0611054.0584261,1.3958299,2.8057705,7.0340787,4.172598,9.9979469,4.3860153,3.4678718.2205214,6.1708825-2.4942136,9.0885677-3.8335704-1.9175084,3.4753849-5.3855268,6.4714293-9.5964285,5.6095331Z" fill="#423b30" stroke-width="0"/>
        <path d="m80.216557,101.5725117c-.4884803,0-.9891119-.048605-1.504325-.1531058-3.8689587-.6634584-8.4135271-2.8275964-9.8449446-6.171621l-.0218723-.0935646c-.0218723-.2272284.0704773-.4313695.2454553-.5455912.1725478-.1117915.4009913-.1202974.5832601-.0170118l.8287154.4666081-.7509474.0899193c1.523767,2.3087379,6.4061402,3.6526664,9.548454,3.8786797,2.3135984.1348789,4.3112643-1.0936127,6.2506042-2.2929413.8724599-.5383005,1.7740828-1.0948278,2.6854268-1.514046l.8578784-.3937006-.4568871.8275003c-1.6525703,2.9964988-4.6539296,5.918875-8.4208178,5.918875Zm-9.285987-4.4680155c1.9830844,1.9442004,5.1885847,3.2395239,7.8934535,3.7024866l.009721.0012151c3.7401554.7643138,6.8387248-1.6987451,8.7027269-4.5348473-.5443761.3025662-1.0911825.640371-1.6574308.9891119-2.0243986,1.2503639-4.133856,2.5626991-6.6200022,2.3840757-2.3451917-.1676873-5.9832766-.9842514-8.3284683-2.542042Z" fill="#423b30" stroke-width="0"/>
      </g>
      <g>
        <path d="m78.2732702,50.1515934c-4.375591-.1054147-8.9726798-.4719983-12.8087953-2.7685653-.6015818-.3646061-1.41558-.8531076-1.7686144-1.4062054.0730677.0762658.1682535.1502612.2622186.2269664,4.134221,2.7799173,9.4760731,2.6847315,14.2433197,2.5948678,5.4417313-.2883159,10.9708484-.3152921,16.3554963-1.1157167.2365118-.0124506.5148856-.1173282.699868-.0875445-5.1940078,2.8364331-11.2427833,2.5998724-16.9834928,2.5561978Z" fill="#423b30" stroke-width="0"/>
        <path d="m81.5580552,50.4862169c-.7630986,0-1.5261973-.0072908-2.2844354-.0145815l-1.0085539-.0085059c-4.1654493-.1008554-8.9457519-.4094972-12.9605257-2.8130149-.6391559-.3864098-1.4824528-.8979775-1.8712928-1.5055402l.4884803-.3827644c.0558958.0595411.1288033.116652.2017108.174978,4.0706695,2.7413225,9.3880575,2.639252,14.0735804,2.5505479,1.368231-.0729075,2.755904-.1288033,4.143577-.184699,4.0147737-.1640419,8.1680718-.3317292,12.1706943-.9271405.1142218-.0072908.2065713-.0267328.2940603-.0449596.1701175-.0340235.3402351-.0668319.5030618-.0425294l.8919019.1470302-.7946919.4337997c-4.2748105,2.3354707-9.0842762,2.6173797-13.8475671,2.6173797Zm-3.2808381-.6452315l1.0012632.0085059c4.7560001.048605,9.6553851.0935646,14.0444174-1.6841636-3.6186429.4605325-7.3442169.611208-10.9579993.7582381-1.3852428.0558958-2.7680553.1130066-4.1460073.1859142-3.0864181.058326-6.4207217.1202974-9.5314423-.5954114,3.1471743,1.0668799,6.5349435,1.2527941,9.5897683,1.3269167Z" fill="#423b30" stroke-width="0"/>
      </g>
      <g>
        <path d="m63.3040096,43.6126321c-.1764318-.1778477.5057857-.2486694.6188173-.3093842,3.3544252-.930301,6.7961265-1.5499484,10.2557468-1.9435082,5.5915713-.651262,11.5952074-.5510472,16.6429273,2.1060246-9.0915461-1.036082-18.3385716-1.0321759-27.4057536.09106.078878.0382305.2716419.0253406.2820907.0870807-.1312436-.0093745-.2624871-.0187491-.3938283-.0312729Z" fill="#423b30" stroke-width="0"/>
        <path d="m64.0651125,43.9828667l-.4690383-.0340235c-.106931-.0085059-.2162923-.0157966-.3232233-.0267328l-.1093613-.0121513-.2090015-.2077864.0024303-.0279479-.6002719-.3001359.7266449-.0899193c.1312335-.126373.3499561-.1774083.5662484-.2272284.058326-.0133664.1117915-.0243025.1433848-.0352386,3.2127911-.8967624,6.6807585-1.5541452,10.3504367-1.9709331,7.0209936-.8202095,12.5303713-.1202974,16.8246239,2.1386204l1.465441.7728196-1.6452796-.1883444c-8.9992174-1.0219203-17.9935744-1.0158447-26.752197.0206571l.029163.1883444Zm13.3469355-1.5942443c3.8397957,0,7.7014637.1895595,11.5655619.5686786-3.9054125-1.5675115-8.7659134-1.98916-14.7637715-1.2892479-2.5104487.2867696-4.9261177.6853306-7.2129833,1.1908227,3.4436649-.3135023,6.918923-.4702535,10.4111929-.4702535Z" fill="#423b30" stroke-width="0"/>
      </g>
      <g>
        <path d="m58.4153091,74.4224728c12.2132679-4.3497133,26.0874895-5.5639848,38.3231928-.6374687.0093745.0031248.0062497.0218739-.0062497.0187491-6.4713621-.5416971-12.8668491-1.8857961-19.3771986-1.8594791-6.3318182.1683999-12.8785429.9131632-18.9397445,2.4781987Z" fill="#423b30" stroke-width="0"/>
        <path d="m58.4925482,74.7243198l-.1822688-.5941962c13.7333453-4.8896639,27.4156554-5.1144621,38.5437722-.6330802l.2721881.1093613-.184699.5759694-.2989208-.0814134c-2.3379009-.1883444-4.7657211-.504277-7.1133431-.8092734-3.9175637-.5103526-7.966361-1.0365018-11.983565-1.0365018h-.1871293c-6.8824693.1834839-13.2327137,1.0146296-18.8660343,2.4691345Zm19.0458728-3.0912786c4.065809,0,8.1340483.5285795,12.071054,1.0413623,1.5869535.2065713,3.2079306.416788,4.8337682.5941962-8.7367504-2.9491089-18.8854763-3.124087-29.3015297-.5492366,3.832505-.6075626,7.917756-.9721002,12.207148-1.086322h.1895595Z" fill="#423b30" stroke-width="0"/>
      </g>
      <g>
        <path d="m74.4913513,80.0856959c-5.7419302-.075094-11.3996604-1.5847855-16.6304828-3.7589464,5.6297042-.378082,11.1425685,1.0978221,16.7179297,1.5436743,5.5948915.3624822,11.3136783.117963,16.7491781-1.3374832,1.8029877-.5268052,3.4599193-1.2743271,5.1935196-1.9625014.2785813-.0779747.732093-.3295493.9062055-.1624188-.0300828.2458375-.073025.257751-.0431864.0156486-.0163322-.0082027-.0338851-.0151848-.0517064-.0219716-2.4204867,1.1051704-4.6350997,2.6979389-7.2047734,3.5030508-5.0205544,1.6657874-10.3584273,2.3190757-15.6366839,2.1809477Z" fill="#423b30" stroke-width="0"/>
        <path d="m75.8761297,80.4147512c-.4617476,0-.9259254-.0060756-1.3925335-.0182269-5.2371897-.0692621-10.8705103-1.3414983-16.7419954-3.7826848l-1.2248462-.5079223,1.3220562-.0887041c3.6672479-.2466704,7.3029026.2879847,10.829196.805628,1.9442004.2843393,3.9540175.5783996,5.9346716.737581,6.3259419.4058518,11.7794239-.0267328,16.6447854-1.3281319,1.3463588-.3937006,2.5930772-.9040532,3.9127032-1.445999.4131426-.1689024.8262852-.3390199,1.2467185-.5054921.0947798-.0279479.1676873-.0571109.2454553-.0862739.3232233-.1215125.7144936-.2721881.9915422-.0109361l.1117915.106931-.019442.1543209c-.019442.1603965-.0413143.3596771-.2284435.4398753l-.165257.0704773-.1482453-.1081461c-.009721-.0072908-.019442-.0157966-.029163-.0243025-.8044129.3827644-1.601535.8226398-2.3743547,1.2479336-1.4484293.7971221-2.9430333,1.6209771-4.5713011,2.1301145-4.4279163,1.4703015-9.2495332,2.2139582-14.3433382,2.2139582Zm-16.5500056-3.8349352c5.3125275,2.0584221,10.4087627,3.1325928,15.1696233,3.1945642h.0024303c5.5361105.1470302,10.7635793-.582045,15.5317306-2.1653532,1.0838917-.3390199,2.1191784-.8299305,3.1228718-1.3572949-.5686786.2102167-1.1470782.407067-1.7376291.5796147-4.9406992,1.3232714-10.4525072,1.7667921-16.8562171,1.348789-2.0049566-.1603965-4.026925-.455672-5.9808464-.7424415-3.0256618-.4435207-6.1339521-.9004078-9.2519635-.8578784Z" fill="#423b30" stroke-width="0"/>
      </g>
      <g>
        <path d="m73.771953,135.7160229c-.7208631-7.3620411,1.4871585-14.5737966,1.1745517-21.8911377-.0672086-3.5943061-.2895122-7.1906628-.0713344-10.782259.0093745-.1718666.2624871-2.9561049.7312141-2.6436203.0151604.0296677-.024364.0112848-.0374982.0031248-.0196035-.0035399-.0449929-.0036558-.0690396.0050291-.6193544,1.974189-.0170158,4.3603085.1284117,6.3821575.3659244,2.828743.7680775,5.6367351.9718761,8.4839587.4291537,6.8806682-.221742,14.0565124-2.8281815,20.4427469Z" fill="#423b30" stroke-width="0"/>
        <path d="m73.5844035,136.9982726l-.1215125-1.251579c-.3912703-3.9904712.077768-7.985803.5297946-11.8486861.3864098-3.2942045.7849709-6.7014156.6415861-10.0600218-.0170118-.9526582-.0461748-1.8968105-.0729075-2.8421779-.077768-2.6113041-.1579663-5.3113124.0024303-7.9724366.0024303-.0230874.1385243-2.3318253.6804701-2.8446082l.0218723-.019442c.0243025-.0206571.0510353-.0376689.0753378-.0498201.145815-.0729075.2989208-.0595411.4374451.0303781l.0704773.0473899.1409545.2928452-.2551763.2345192c-.3572468,1.3475739-.1628268,2.8980737.0243025,4.3987533.0704773.5662484.1409545,1.1227757.1798385,1.6537854l.1676873,1.2868176c.3110721,2.3488371.6294349,4.7790875.8044129,7.1971867.4884803,7.8266216-.4714686,14.7504051-2.853114,20.5830062l-.4738988,1.16409Zm1.523767-32.0768757c-.0461748,2.028044.0145815,4.0682393.0753378,6.0561841.0267328.9465826.0558958,1.8943802.0729075,2.8409628.145815,3.4011355-.2576065,6.8338643-.6464466,10.1523713-.3961308,3.3829086-.8044129,6.8666727-.6294349,10.3382854,1.9806541-5.4680635,2.755904-11.857192,2.3087379-19.0167098-.1701175-2.3962269-.4909106-4.8167564-.7995524-7.1583027l-.1701175-1.3050445c-.038884-.5383005-.106931-1.0826766-.1774083-1.6392039-.009721-.0887041-.0218723-.1786234-.0340235-.2685427Z" fill="#423b30" stroke-width="0"/>
      </g>
      <g>
        <path d="m80.6739886,134.040568c-4.4350668-4.6800194-1.7767744-26.1698096-.2217543-32.6046501.012652-.0062253.0220265.009399.0094234.0156242-.6958094,6.9665283-.6091437,14.1423236-.4094953,21.1771347.3531077,3.8115073-.1804111,7.7189084.6218262,11.4118912Z" fill="#423b30" stroke-width="0"/>
        <path d="m81.2129597,135.0637932l-.7655289-.8092734c-4.5956036-4.8495648-1.8105366-26.6343298-.2964906-32.8910096l.029163-.126373.2697578-.1628268.3305141.1871293-.0243025.3864098c-.7072029,7.2105531-.5735391,14.6021599-.3937006,20.9718463.1409545,1.5176914.1409545,3.0864181.1409545,4.6041095,0,2.2443363,0,4.5664406.4738988,6.7512358l.2357343,1.0887522Zm-1.4508595-28.2711035c-1.2734512,8.4013758-2.0730036,21.0654109.3596771,25.8894581-.2405948-1.8081063-.2405948-3.6575269-.2405948-5.4583425,0-1.5031099,0-3.0584702-.1385243-4.5664406-.1409545-4.8787278-.2503158-10.3395006.019442-15.864675Z" fill="#423b30" stroke-width="0"/>
      </g>
      <g>
        <path d="m59.4621083,142.7491006c3.9383321-3.890605,10.425465-3.9331566,14.0525087-8.1120287-1.9824223,4.2314574-9.6175945,7.3743452-14.0525087,8.1120287Z" fill="#423b30" stroke-width="0"/>
        <path d="m58.5460137,143.2172835l.6974819-.688976c1.9344794-1.911392,4.4765213-2.9175157,6.9335045-3.8920461,2.707299-1.0729556,5.2639225-2.0851549,7.1011918-4.2031182l1.4630108-1.6865938-.9453674,2.0231835c-2.0487011,4.3732357-9.7331531,7.530131-14.2825819,8.287154l-.9672397.1603965Zm13.0334332-6.4875536c-1.5845233,1.0632346-3.3999204,1.7825887-5.1740032,2.4849311-2.0462709.8117037-4.153298,1.6464947-5.8739153,3.0062198,3.6186429-.8226398,8.3624918-2.8604048,11.0479186-5.4911509Z" fill="#423b30" stroke-width="0"/>
      </g>
      <g>
        <path d="m94.3342009,141.5594861c-5.5930849-.3964893-9.847344-3.0718219-12.9546073-7.6706197-.0275194-.1254089.5970532.4870122.6675637.5555391,2.1043828,2.0713095,4.5888373,3.9599864,7.4589602,4.7373896,2.7787943.7091693,5.4850641,1.129925,8.0433736,2.396733-1.0154226.0873981-2.1567728.0385479-3.2152902-.019042Z" fill="#423b30" stroke-width="0"/>
        <path d="m96.2999545,141.9377566c-.6610281,0-1.3317772-.0328084-1.9830844-.0668319l-.0048605-.0012151c-5.5190988-.3912703-9.9567361-3.0183711-13.1889692-7.8071796l-.0461748-.1032856-.0510353-.2272284.204141-.1300184c.2308738-.1324486.4058518.0109361,1.0158447.601487,2.542042,2.503158,4.9382689,4.026925,7.3393564,4.6782321.6513071.165257,1.300184.3159326,1.9442004.4666081,2.1459112.4969862,4.1703098.9672397,6.1582546,1.9514911l.9964027.4933408-1.1081942.0947798c-.4131426.0352386-.8408667.0498201-1.2758815.0498201Zm-1.9466306-.6877609c.6027021.0315933,1.222416.0619714,1.8299786.0644016-1.5407788-.6051324-3.1301626-.9745304-4.7948841-1.3609403-.6488769-.1506755-1.3026142-.3025662-1.9612121-.4702535-1.8081063-.4896955-3.6016312-1.4435688-5.4364703-2.8944283,2.804509,2.8057241,6.2773369,4.3695903,10.3625879,4.6612204Z" fill="#423b30" stroke-width="0"/>
      </g>
      <g>
        <path d="m73.1905118,146.6653391c-4.910721-.2947609-9.8371394-1.6789459-13.955614-4.3245437,4.5172832.2427859,8.725817,1.4471214,13.1462543,2.1248225,5.7139042.7763535,11.5570013.8287435,17.2616225-.0469948,2.1307121-.2656852,4.369146-.9297395,6.3748154-1.3311603-7.1538238,3.0193099-15.073943,4.2197881-22.8270782,3.5778762Z" fill="#423b30" stroke-width="0"/>
        <path d="m77.2662329,147.1457833c-1.3633705,0-2.7316015-.0571109-4.0974023-.1701175-5.2639225-.3171477-10.1414351-1.8287635-14.1027434-4.3732357l-.9891119-.6342954,1.173811.0619714c2.9235913.1567512,5.7621238.7229995,8.5058766,1.2698059,1.523767.3025662,3.0985693.6172836,4.6709414.8578784,5.9346716.805628,11.7065164.7910465,17.1697195-.0461748,1.3609403-.1701175,2.7680553-.504277,4.1314258-.8275003.7630986-.1810537,1.5091855-.3572468,2.2285397-.5018467l3.0183711-.6051324-2.8361023,1.1968983c-5.8982179,2.4885765-12.3505328,3.7705336-18.873325,3.7717487Zm-16.7614374-4.3987533c3.6599572,2.0839398,8.024687,3.3270129,12.7053494,3.6077068l.0072908.0012151c6.1120799.5054921,12.2776253-.1433848,18.0494701-1.8858744-.5297946.1032856-1.0595892.1919898-1.5845233.2576065-5.5093778.8457272-11.3468394.8615238-17.3422672.0461748-1.5942443-.2442402-3.1763373-.5589576-4.7049649-.863954-2.3160287-.4617476-4.6976741-.9368615-7.1303548-1.1628748Z" fill="#423b30" stroke-width="0"/>
      </g>
    </g>
  </g>
</svg>