<?xml version="1.0" encoding="UTF-8"?>
<svg id="Layer_2" data-name="Layer 2" xmlns="http://www.w3.org/2000/svg" viewBox="0 0 122.7851562 162.4807129">
  <g id="Layer_1-2" data-name="Layer 1">
    <g>
      <g>
        <path d="m92.7105996,104.4511992c-4.0956797-1.3652197-8.4335702-2.6816736-11.6684908-5.6728877-5.9293543-5.7386601-9.7259894-13.8357251-10.1707835-22.0858905-.600886-7.398934.3737558-14.8037897,1.0412134-22.1670918.3027123-2.5448012.5276552-5.1281029,1.062446-7.635715.0338441-.1813559.0186253-.5550092.2647035-.5707249.0136463.00209.0105728.0284399.0131135.0367179-.0027661.0226618-.0218012-.0012294-.020915-.0147937-.0211917.0024998-.0423833.0061879-.0636672.0086467-.5967266,4.4200958-.3810911,8.9489519-.5317071,13.4134084-.0520494,5.9249131-.1980039,11.9528493.6949704,17.7950703.8986448,7.3579492,4.8466745,13.9985325,9.7470683,19.4270375,2.7428,3.0220104,6.453475,5.0342183,9.6320484,7.4662228Z" fill="#423b30" stroke-width="0"/>
        <path d="m94.0507812,105.1611328l-2.1523438-.7163086c-3.9052734-1.2944336-7.9433594-2.6330566-11.0263672-5.4829102-6.0693359-5.8740234-9.8037109-13.9846191-10.2509766-22.2561035-.5048828-6.2185059.109375-12.5285645.7021484-18.6311035.1162109-1.1916504.2324219-2.3823242.3398438-3.5717773.0625-.5266113.1210938-1.0478516.1796875-1.5695801.2265625-2.0102539.4599609-4.088623.8876953-6.0957031.0039062-.0236816.0078125-.0593262.0117188-.0974121.0166016-.1442871.0449219-.395752.1943359-.546875l.0097656-.0703125.1074219-.012207c.0478516-.0227051.1044922-.0373535.1699219-.0415039l.2421875-.015625.0546875.3244629-.0195312.0097656-.0302734.2324219-.0859375-.0021973c-.3798828,2.9580078-.4042969,6.0136719-.4287109,8.9711914-.0107422,1.3723145-.0224609,2.7915039-.0693359,4.1818848l-.0136719,1.4416504c-.0556641,5.3884277-.1113281,10.9602051.7050781,16.3071289.7929688,6.4858398,4.1416016,13.15625,9.6855469,19.2973633,1.8476562,2.0354004,4.1777344,3.6342773,6.4306641,5.1806641,1.0566406.7248535,2.1484375,1.4743652,3.1689453,2.2546387l1.1875.9084473Zm-21.5224609-53.8103027c-.0664062.5490723-.1279297,1.0961914-.1884766,1.6381836-.0585938.5229492-.1171875,1.045166-.1796875,1.565918-.1064453,1.1835938-.2226562,2.3754883-.3388672,3.5681152-.5908203,6.0805664-1.203125,12.3684082-.7011719,18.5490723.4404297,8.1535645,4.1201172,16.1430664,10.0957031,21.9265137,2.8007812,2.5893555,6.4628906,3.9128418,10.0742188,5.1171875-.6230469-.4438477-1.2568359-.8789062-1.8779297-1.3054199-2.2773438-1.5625-4.6318359-3.1784668-6.5195312-5.2575684-5.6132812-6.2185059-9.0048828-12.9836426-9.8095703-19.5646973-.8222656-5.3793945-.765625-10.9719238-.7099609-16.3803711l.0136719-1.4470215c.046875-1.3903809.0585938-2.8063965.0693359-4.1755371.0117188-1.3959961.0234375-2.8137207.0722656-4.234375Z" fill="#423b30" stroke-width="0"/>
      </g>
      <g>
        <path d="m90.8433165,105.9947832c8.4524823-2.8207383,17.4770829-6.7532777,21.9365398-14.9203361,3.3866686-6.7441955,5.8115221-14.0914387,6.6850259-21.6006493.8465186-6.757683.8732989-13.5110016,1.340386-20.2657546.0085853-.7544576.6169296-5.6663104,1.2483045-4.0493726-.0506919-.0369023-.0946837-.1878307-.154719-.2644833-.0279482-.005983-.0558964-.0119661-.083865-.0179696-.5049524.6513321-.384513,1.6678142-.4853026,2.4488471-.1124279,3.5360398.1895928,7.072346.2990292,10.6062138.177975,4.9177949.1546371,9.8599163-.322654,14.7631992-.3327146,3.3074138-1.048139,6.5607343-2.027268,9.7354916-1.3099176,4.3086975-2.7313,8.7031401-5.3163229,12.4341205-6.0092699,8.246723-13.1847824,10.9150782-23.1191538,11.1306931Z" fill="#423b30" stroke-width="0"/>
        <path d="m89.1972656,106.2807617l1.5673828-.5229492c8.2919922-2.767334,17.3662109-6.6901855,21.7958984-14.8032227,3.5869141-7.1416016,5.8271484-14.3811035,6.65625-21.5095215.5488281-4.3859863.7558594-8.8459473.9560547-13.1591797.1083984-2.3249512.2197266-4.7290039.3837891-7.0952148-.0009766-.0292969.3056641-4.4423828,1.1689453-4.6005859.234375-.0407715.4208984.1179199.5605469.4775391l.3105469.7944336-.6894531-.5009766c-.0224609-.0158691-.0410156-.0339355-.0576172-.0532227-.1728516.3916016-.1972656.8864746-.2207031,1.3684082-.0117188.2363281-.0234375.467041-.0507812.6806641-.0751953,2.3806152.0429688,4.8300781.1572266,7.1989746.0546875,1.1228027.1083984,2.2453613.1435547,3.3676758.2060547,5.7045898.1025391,10.40625-.3242188,14.795166-.3144531,3.1296387-1,6.4213867-2.0371094,9.7849121-1.3652344,4.489502-2.8007812,8.824707-5.3496094,12.5026855-5.6445312,7.746582-12.3994141,11.0012207-23.3183594,11.2385254l-1.6523438.0358887Zm31.8583984-57.0864258v.0163574c-.1640625,2.375-.2753906,4.7763672-.3828125,7.0983887-.2011719,4.3227539-.4082031,8.7927246-.9599609,13.1958008-.8349609,7.1845703-3.0927734,14.4799805-6.7089844,21.6818848-4.2294922,7.744873-12.5449219,11.7226562-20.46875,14.4946289,9.7568359-.526123,15.9853516-3.7736816,21.2255859-10.9645996,2.5039062-3.6137695,3.9257812-7.9086914,5.2783203-12.3596191,1.0283203-3.3327637,1.7070312-6.5917969,2.0175781-9.6875.4257812-4.3654785.5273438-9.0461426.3222656-14.729248-.0341797-1.1208496-.0888672-2.2404785-.1425781-3.3603516-.0849609-1.7663574-.1728516-3.5773926-.1806641-5.3857422Z" fill="#423b30" stroke-width="0"/>
      </g>
      <g>
        <path d="m90.3926828,108.5651968c-1.2590412-.7784717-2.7015487-2.6496684-1.7780292-4.1228698.5728968-.7881634,1.8828964-.2122546,2.0456884.579638-.4379505-.6996472-1.8682461-.8509854-1.5683768.3200108,1.3686415,3.3902134,6.4369755,2.5359701,8.9744618,1.1048549.4264557-.3886929.6218881-.9131722.9447266-1.3147737.7874463,4.4560966-5.7545193,5.2167626-8.6184708,3.4331397Z" fill="#423b30" stroke-width="0"/>
        <path d="m93.9638672,109.7128906c-1.3476562,0-2.7001953-.3105469-3.703125-.9355469-.8632812-.5339355-1.8535156-1.5864258-2.1201172-2.7351074-.1484375-.6357422-.0605469-1.21875.2617188-1.732666.2949219-.4091797.7597656-.5727539,1.28125-.4592285.6005859.1298828,1.1142578.6013184,1.2216797,1.1210938l.2802734,1.3623047-.7373047-1.1791992c-.2138672-.3410645-.7363281-.5019531-.9912109-.3908691-.1523438.0651855-.1943359.2390137-.1230469.5163574.3623047.8916016,1.0527344,1.5351562,2.0429688,1.8815918,1.9892578.6958008,4.8095703.0583496,6.5664062-.9326172.1875-.1794434.3457031-.4394531.5126953-.7145996.109375-.1813965.2236328-.3688965.359375-.5388184l.3457031-.4301758.0957031.5432129c.2695312,1.5229492-.2451172,2.7724609-1.4892578,3.6132812-.9951172.6726074-2.3974609,1.0109863-3.8037109,1.0109863Zm-4.7685547-5.3769531c-.1337891.0307617-.2705078.1037598-.3789062.253418-.2392578.3828125-.3056641.8381348-.1894531,1.3395996.2333984,1.003418,1.1474609,1.9597168,1.8974609,2.423584v.0004883c1.8710938,1.1645508,5.1884766,1.1337891,6.9628906-.0654297.8730469-.5900879,1.328125-1.4172363,1.3378906-2.4177246-.1611328.2629395-.3349609.5290527-.5908203.7617188-1.8974609,1.0788574-4.8886719,1.7487793-7.0234375,1.0019531-1.1308594-.3959961-1.921875-1.135498-2.3505859-2.197998-.1835938-.7080078.1523438-.9978027.3349609-1.0996094Z" fill="#423b30" stroke-width="0"/>
      </g>
      <g>
        <path d="m88.2279277,150.1407674c-1.0003566-3.2065217-.8572758-6.6548238-.6187737-9.9715195.3761736-6.4582235,1.1548297-12.876,1.8697624-19.3005176.4358401-4.0588594.5183118-8.1642513,1.2249256-12.1877247.0457334-.2914889.2921036-1.1298526.6609008-.6530122.0078681.0078681-.0026227.0209816-.0104908.0131135-.042578-.0420247-.0855452-.0746651-.1285125-.1127763l.0052454.0052454c-.0280711-.007028-.0582527-.012048-.0887211-.0186253-.4575184.5124722-.3159333,1.372801-.4072362,2.0157732-.1087193,3.5906248-.0046307,7.1920888-.1045803,10.7832873-.1408474,4.8499734-.6077296,9.8704635-.7765867,14.6818749-.1811305,4.9460504-.4839298,9.9500461-1.6259329,14.7448813Z" fill="#423b30" stroke-width="0"/>
        <path d="m88.2597656,151.0839844l-.2705078-.8686523c-1.0146484-3.2512207-.8671875-6.7543945-.6289062-10.0639648.3242188-5.5810547.9599609-11.2248535,1.5751953-16.6828613l.2949219-2.6274414c.1572266-1.4641113.2705078-2.9619141.3798828-4.4104004.1933594-2.5629883.3945312-5.2133789.8476562-7.7929688.0136719-.0856934.1503906-.8789062.5859375-.9904785l.0039062-.0009766.0058594-.0065918.0117188.0026855c.1123047-.0222168.3066406-.0129395.4970703.2329102l.0585938.076416.5.4580078-.6123047-.1503906-.2236328.0646973-.0732422-.0725098c-.1582031.2995605-.1728516.7080078-.1865234,1.1054688-.0078125.2121582-.015625.4194336-.0429688.6086426-.0527344,1.8061523-.0527344,3.6750488-.0527344,5.482666,0,1.7282715,0,3.515625-.0488281,5.2727051-.0742188,2.5500488-.2412109,5.184082-.4023438,7.7314453-.1445312,2.2956543-.2949219,4.6696777-.375,6.9523926-.1660156,4.5385742-.4423828,9.7988281-1.6328125,14.7939453l-.2109375.8852539Zm2.1777344-38.5249023c-.1318359,1.3110352-.2314453,2.6213379-.328125,3.9094238-.1103516,1.4521484-.2236328,2.9538574-.3818359,4.427002l-.2949219,2.6289062c-.6142578,5.451416-1.2490234,11.0883789-1.5732422,16.6594238-.2119141,2.9399414-.3515625,6.0292969.3447266,8.9279785.9951172-4.6582031,1.2451172-9.5048828,1.3994141-13.7248535.0800781-2.2895508.2304688-4.6669922.3759766-6.9663086.1611328-2.5429688.3271484-5.1726074.4013672-7.7138672.0488281-1.7497559.0488281-3.5336914.0488281-5.2585449,0-.9506836,0-1.9182129.0078125-2.8891602Z" fill="#423b30" stroke-width="0"/>
      </g>
      <g>
        <path d="m93.0847242,146.4811532c-.5737779-.7917492-.611971-1.7721896-.6452056-2.7144779-.119456-2.0439468.078968-4.0852299.3146835-6.1135224.3108724-2.6883328.5698029-5.3815217.7505031-8.0793822.4042242-4.1679065.1443921-18.1267758,2.7691858-20.5500516.1652303-.09704.3461969-.0367179.5062023.0288293-.1040476-.0183179-.3320999-.0630268-.4766559.0309807-1.8868714,2.0556465-1.1377617,12.0179046-1.2649218,15.2200619.1306639,5.126853-.0648095,10.2604472-.6977621,15.3506644-.1267504,2.3136959-1.3388902,4.5709423-1.2560292,6.8268978Z" fill="#423b30" stroke-width="0"/>
        <path d="m93.3652344,147.2932129l-.4824219-.6652832c-.6230469-.8586426-.6601562-1.9179688-.6933594-2.8525391-.1230469-2.1047363.0888672-4.1931152.3164062-6.151123.3339844-2.8837891.5791016-5.5227051.75-8.0671387.0957031-.9909668.1542969-2.541748.2226562-4.3376465.2314453-6.1032715.5488281-14.4616699,2.625-16.3793945.3310547-.1987305.6289062-.0773926.7714844-.019043l2.1503906.8786621-2.2880859-.4008789c-.1416016-.0249023-.2324219-.0292969-.2773438-.0146484-1.3476562,1.5549316-1.2480469,7.7382812-1.1816406,11.8395996.0214844,1.3051758.0400391,2.4326172.0097656,3.1899414.1367188,5.3591309-.0976562,10.5361328-.6992188,15.3713379-.0585938,1.0725098-.3535156,2.1508789-.6376953,3.1938477-.3398438,1.2402344-.6601562,2.4118652-.6162109,3.5930176l.0302734.8212891Zm1.5380859-33.9558105c-.6044922,3.4572754-.7871094,8.2719727-.9248047,11.9008789-.0693359,1.8039551-.1279297,3.3615723-.2246094,4.3596191-.1708984,2.545166-.4169922,5.1918945-.7519531,8.0839844-.2246094,1.9362793-.4335938,3.9997559-.3125,6.0700684.0195312.5761719.0410156,1.1623535.1875,1.701416.1005859-.9118652.3496094-1.8200684.5917969-2.7062988.2783203-1.0175781.5654297-2.0700684.6220703-3.1064453.5996094-4.8276367.8339844-9.9799805.6972656-15.3305664.0302734-.7597656.0117188-1.8803711-.0097656-3.1782227-.0390625-2.4382324-.0869141-5.3691406.125-7.7944336Z" fill="#423b30" stroke-width="0"/>
      </g>
      <g>
        <path d="m90.4995579,161.9337137c-6.0698789-.6326658-31.3534394-7.6466156-21.3329235-16.5465148,2.268859-1.90898,5.0399913-3.0728048,7.8524927-3.920983,2.5681187-.7638215,9.4430908-2.4131538,9.7013401.2019277q-.000082.000041.0025766.0025612c-.907143-2.6025622-7.7073681-.014261-9.5835387.6477873-3.2278516,1.3568394-6.8876093,2.9557051-8.537167,6.1796022-.9565697,3.9021733,7.1227101,6.7761853,9.9871943,7.7929338,9.4410982,3.2252494,20.1102159,4.4722221,29.6047312.81228,2.416801-1.1201404.5218361-4.5854286-.4413314-6.1936378-2.8388924-4.6919555-8.5616319-5.4680914-13.4135928-6.5558782,3.5685777-.0563676,7.2859529-.3653344,10.6535864,1.0386112,4.4233742,1.8909899,8.6622986,7.0938194,6.9527466,12.0803987-2.3260923,4.9411943-16.5821467,5.1717668-21.4461147,4.4609117Z" fill="#423b30" stroke-width="0"/>
        <path d="m95.5517578,162.4807129c-2.0449219,0-3.8427734-.1181641-5.0830078-.2990723-2.6220703-.2741699-8.0078125-1.5769043-12.8310547-3.453125-4.328125-1.6835938-9.7207031-4.4172363-10.8349609-7.8811035-.6132812-1.9069824.1259766-3.8068848,2.1982422-5.6472168,1.9941406-1.6779785,4.5175781-2.939209,7.9462891-3.9731445,1.2041016-.3579102,7.3056641-2.072998,9.3369141-.7072754.3974609.2670898.6269531.6330566.6816406,1.0883789l.4736328,1.3581543-.9638672-1.2438965c-.1142578-.3034668-.3291016-.5273438-.6552734-.6833496-1.8642578-.8903809-6.5195312.7729492-8.2714844,1.3991699l-.3261719.1162109c-3,1.2614746-6.75,2.8378906-8.3974609,6.057373-.8847656,3.6345215,7.1933594,6.5014648,9.8486328,7.4436035,7.6259766,2.605957,18.9257812,4.8640137,29.4306641.8146973.4755859-.2214355.7841797-.5578613.9277344-1.0222168.4707031-1.5292969-1.0078125-3.9985352-1.4941406-4.8098145-2.5009766-4.1340332-7.2226562-5.1445312-11.7890625-6.1218262-.4941406-.105957-.9833984-.2106934-1.4648438-.3186035l-2.0546875-.4606934,2.1054688-.0332031c.4541016-.0070801.9101562-.0183105,1.3681641-.0297852,3.1464844-.0773926,6.3984375-.1574707,9.3857422,1.0876465,4.7783203,2.0429688,8.7675781,7.5095215,7.0927734,12.392334-1.7949219,3.8164062-10.3632812,4.9265137-16.6298828,4.9267578Zm-14.1748047-21.7644043c-1.4238281.2233887-2.9453125.5908203-4.2861328.989502-3.3603516,1.0134277-5.8271484,2.2441406-7.7626953,3.8728027-1.9052734,1.6918945-2.5966797,3.4145508-2.0488281,5.1157227,1.0537109,3.2766113,6.3134766,5.9240723,10.5390625,7.5681152,4.7861328,1.8615723,10.1191406,3.152832,12.7080078,3.4226074l.0097656.0012207c5.3564453.7819824,19.0263672.2587891,21.1826172-4.3198242,1.5742188-4.5947266-2.2539062-9.7902832-6.8242188-11.7441406-2.6582031-1.1081543-5.5800781-1.1296387-8.4394531-1.065918,4.2988281.927002,9.0146484,2.097168,11.5117188,6.223877.5146484.8596191,2.0791016,3.4726562,1.5429688,5.2148438-.1845703.5991211-.5917969,1.0483398-1.2099609,1.3349609-10.6601562,4.1091309-22.0830078,1.8305664-29.7910156-.8024902-3.0546875-1.0839844-11.1611328-3.9611816-10.1494141-8.0891113,1.7509766-3.4362793,5.5947266-5.052002,8.6835938-6.3503418l.3369141-.1206055c.9287109-.3317871,2.4414062-.8725586,3.9970703-1.2512207Z" fill="#423b30" stroke-width="0"/>
      </g>
      <g>
        <path d="m93.5552741,54.3250612c-7.1162967.0691943-14.0411515-2.7915198-19.0986104-7.7897989,3.648939,2.7694112,9.8150742,5.7650101,15.2358596,5.8500021,9.1352459.2439934,18.0732562-2.1473182,27.0421448-3.5362447,1.6971967-.2284006,3.4474826-.5108535,5.1116086-.7265709-4.0441477,2.9428375-8.9090172,4.3779277-13.8294757,4.9387355-4.7978676.6081804-9.6141352,1.3392386-14.4615268,1.2638768Z" fill="#423b30" stroke-width="0"/>
        <path d="m94.2470703,54.5803223c-.2314453,0-.4609375-.001709-.6923828-.0053711-.0830078.0007324-.1660156.0012207-.25.0012207-7.0380859,0-13.9589844-2.8574219-19.0234375-7.8632812l.3271484-.3769531c3.7246094,2.8273926,9.8339844,5.717041,15.0878906,5.7993164,6.625.1745605,13.2265625-1.052002,19.6240234-2.2397461,2.4169922-.4484863,4.9150391-.9123535,7.3759766-1.293457.7841797-.1057129,1.5751953-.2219238,2.3632812-.3378906.9287109-.1367188,1.8544922-.2729492,2.7548828-.3896484l.9707031-.1257324-.7910156.5759277c-3.6728516,2.6713867-8.3652344,4.3486328-13.9492188,4.9848633l-1.8583984.2397461c-3.9023438.5073242-7.9306641,1.0310059-11.9394531,1.0310059Zm-.6904297-.5053711h.0029297c4.2158203.0690918,8.453125-.4870605,12.5625-1.0214844l1.8632812-.2402344c5.0742188-.5783691,9.3945312-2.0244141,12.8613281-4.3029785-.5664062.0795898-1.1396484.1640625-1.7148438.2485352-.7900391.1162109-1.5830078.2329102-2.3642578.3381348-2.4482422.3791504-4.9433594.8422852-7.3554688,1.2902832-6.4238281,1.1928711-13.0595703,2.4255371-19.7265625,2.2480469-4.0117188-.0629883-8.5048828-1.7231445-12.1005859-3.7592773,4.5498047,3.3415527,10.0966797,5.2001953,15.7197266,5.2001953.0830078,0,.1650391-.0004883.2490234-.0012207h.0029297Z" fill="#423b30" stroke-width="0"/>
      </g>
      <g>
        <path d="m117.9568071,47.3597748c-2.6196507-1.4262796-5.615434-1.2575045-8.460289-1.6026564-4.072772-.3504998-8.1534736-.6523566-12.2380888-.8338354-4.6155487-.2247124-9.2483705-.2018048-13.8677098-.0639694-3.5031331.3090488-7.1864541.4551415-10.4532774,1.8091943,1.1487698.1040681,2.4090968.0896022,3.5072105.2349574-1.0680961.0160641-2.1234065.0689484-3.1866721.1311557-.286095.0120276-.8833953.0456719-.8077057-.3567082.0865492-.2150617.1022906-.2727612.2910945-.411826,1.6741097-.9829607,3.6255857-1.3668589,5.4840786-1.8569767,7.9535539-1.6945125,16.1812623-1.7467207,24.281114-1.487114,5.1579771.2851576,11.7444877.4033841,15.4502452,4.4377786Z" fill="#423b30" stroke-width="0"/>
        <path d="m119.1591797,48.2988281l-1.3212891-.7194824c-1.9326172-1.052002-4.1298828-1.2192383-6.2548828-1.3811035-.6962891-.0529785-1.4160156-.1079102-2.1171875-.1928711-4.7451172-.4082031-8.6308594-.6728516-12.2177734-.8322754-4.1474609-.2019043-8.5478516-.222168-13.8496094-.0637207-.4248047.0378418-.8671875.0739746-1.3115234.1103516-2.6728516.21875-5.4248047.4440918-7.9560547,1.2741699.1064453.0048828.2138672.0097656.3203125.0146484.6806641.0305176,1.3837891.0620117,2.0263672.1472168l-.0292969.4978027c-1.1142578.0166016-2.2304688.0754395-3.1757812.1306152-.3085938.0129395-.7421875.0317383-.9628906-.2219238-.0419922-.0478516-.0849609-.1166992-.1044922-.2092285l-.3007812-.0270996.2910156-.1203613c.0009766-.0234375.0039062-.0478516.0087891-.0734863l.0273438-.0808105c.0869141-.2167969.1357422-.3195801.3613281-.4863281,1.4550781-.855957,3.0849609-1.2670898,4.6611328-1.6650391.3037109-.0766602.6074219-.1530762.9082031-.2324219,8.1601562-1.7392578,16.5292969-1.7460938,24.3525391-1.4953613l.8886719.0473633c4.9775391.262207,11.1708984.588623,14.7382812,4.4711914l1.0175781,1.1081543Zm-29.1992188-3.7944336c2.59375,0,4.9912109.0561523,7.3105469.1691895,3.59375.159668,7.4853516.4248047,12.2470703.8344727.6982422.0844727,1.4130859.138916,2.1035156.1916504,1.6962891.1291504,3.4365234.2617188,5.0820312.8354492-3.5283203-2.8000488-8.9140625-3.0837402-13.3261719-3.3164062l-.8837891-.0473633c-7.7861328-.2487793-16.1181641-.2424316-24.2158203,1.4821777-.2900391.0771484-.5957031.1540527-.9013672.2312012-1.4130859.3566895-2.8710938.7246094-4.1611328,1.4038086,2.7949219-1.072998,5.8623047-1.3239746,8.8320312-1.5671387.4423828-.036377.8837891-.0725098,1.3222656-.111084,2.3574219-.0705566,4.5351562-.105957,6.5908203-.105957Z" fill="#423b30" stroke-width="0"/>
      </g>
      <g>
        <path d="m78.6865316,65.271243c-4.3085285-2.2205285-3.6394112-13.6008087-4.4243577-18.0415789-.0216988.0885777.0297308.2831905-.0182975.3302763-.0298589-.1946948-.1235539-.6068691.0471062-.5191314,1.3105886,3.4708205,2.1054164,14.8757706,5.2271305,16.4811111,3.466743.1129197,4.8651769-7.1453719,6.6438822-9.5515796.1793274-.2756912.3192169-.5919319.4138954-.8605542,1.2918865,4.1934369-2.4846839,13.8733036-7.8893592,12.1614566Z" fill="#423b30" stroke-width="0"/>
        <path d="m79.9492188,65.7219238c-.4433594,0-.890625-.0705566-1.3378906-.2124023l-.0390625-.0161133c-3.3339844-1.7180176-3.7783203-8.392334-4.1357422-13.7553711-.0947266-1.4216309-.1796875-2.6896973-.3085938-3.7124023l-.0556641.0546875-.0888672-.5612793c-.0478516-.28125-.09375-.546875.0927734-.6838379.0087891-.0068359.0185547-.0129395.0283203-.0185547l.1953125-.8061523.1464844.8291016.0449219.0227051.0332031.0900879c.4345703,1.1494141.8007812,3.0898438,1.2255859,5.3369141.8330078,4.4106445,1.8681641,9.8911133,3.8330078,10.9838867h.0146484c2.1464844,0,3.4853516-3.192627,4.6679688-6.0131836.5712891-1.361084,1.1103516-2.6467285,1.6953125-3.4382324.1367188-.2102051.2744141-.4970703.3798828-.795166l.2509766-.7138672.2236328.7233887c.9414062,3.0551758-.6572266,8.4121094-3.2880859,11.0227051-1.1103516,1.1013184-2.328125,1.6630859-3.578125,1.6630859Zm-1.1669922-.6826172c1.9160156.5966797,3.4462891-.3962402,4.3925781-1.3354492,2.28125-2.2634277,3.7910156-6.8681641,3.3242188-9.8098145-.0390625.0712891-.0820312.1425781-.1269531.2128906-.5585938.7553711-1.0859375,2.013916-1.6455078,3.3464355-1.2578125,3.0004883-2.6914062,6.3833008-5.2158203,6.3183594l-.1064453-.0273438c-2.2148438-1.1391602-3.2412109-6.5705566-4.1455078-11.3623047-.1494141-.7873535-.2910156-1.5366211-.4296875-2.2250977.0361328.4909668.0703125,1.0085449.1064453,1.5478516.3291016,4.9511719.78125,11.7280273,3.8466797,13.3344727Z" fill="#423b30" stroke-width="0"/>
      </g>
      <g>
        <path d="m91.3570386,65.8877833c-3.6609666-1.0930732-4.9410099-7.3104793-5.0957289-10.6798135.0187943-.6663921.0017673-1.3600563.2308389-1.9959185.0327223-.1010561.16208-.4060068.2701231-.3435537-.0026278.0026432-.0052505.0026432-.0078732.0026432h.0026227c-.0146912.0073354-.0293825.0169041-.044212.0245878-.853101,2.9256465,1.7400154,9.4443151,4.1989025,11.2451086,1.0412339.6885007,2.2326995.0069461,2.9564837-.7304435,1.6961722-1.6483693,2.5272619-3.8626279,3.6105-5.9022923.542285-1.1699922,1.4280212-2.2008992,1.7022577-3.4540393,1.0730341,3.8217096-3.1496418,12.6067835-7.8239145,11.8337211Z" fill="#423b30" stroke-width="0"/>
        <path d="m91.9462891,66.1860352c-.2109375,0-.4208984-.0170898-.6298828-.0517578l-.0302734-.0070801c-3.8212891-1.140625-5.1132812-7.3930664-5.2744141-10.9077148l.0058594-.2753906c.0126953-.6018066.0253906-1.2243652.2392578-1.8168945.0283203-.0881348.1455078-.4118652.3603516-.4951172l.1113281-.0432129.0820312.0322266h1.0029297l-.8876953.4453125c-.7568359,2.9416504,1.8720703,9.2163086,4.1337891,10.8728027.8642578.5700684,1.9267578.0126953,2.6298828-.7038574,1.2832031-1.2468262,2.0800781-2.8620605,2.8505859-4.4243164.234375-.4765625.4697266-.9528809.7177734-1.420166.1972656-.4260254.4472656-.8459473.6894531-1.2521973.4238281-.7104492.8232422-1.3813477.9892578-2.1381836l.2138672-.9780273.2705078.9638672c.7128906,2.5378418-.8251953,7.1789551-3.2910156,9.9318848-1.3378906,1.4936523-2.7724609,2.2678223-4.1835938,2.2678223Zm-.5322266-.5424805c1.8007812.2880859,3.3574219-.958252,4.34375-2.0588379,2.0791016-2.3210449,3.4785156-6.012207,3.3349609-8.5009766-.2060547.4558105-.4638672.8876953-.7158203,1.3110352-.2363281.3950195-.4794922.8037109-.671875,1.2182617-.2519531.4750977-.484375.9470215-.7167969,1.4191895-.7890625,1.6000977-1.6054688,3.2548828-2.9462891,4.557373-.8378906.8544922-2.1396484,1.5056152-3.2675781.7597656-1.6064453-1.1762695-3.3564453-4.4360352-4.1054688-7.4208984.4355469,3.2817383,1.7666016,7.8122559,4.7451172,8.7150879Z" fill="#423b30" stroke-width="0"/>
      </g>
      <g>
        <path d="m104.034,64.1369646c-3.7207355-.7725502-4.2382687-6.4592275-3.9837435-9.5704508.0632522-.5988985.3836934-2.6581512,1.3061269-2.0981015.0104908.0078681.0026227.0209816-.0078681.0157567-.1141286-.067678-.2303471-.0761199-.3574458-.0458563-1.3824927,1.7614119.1145794,6.5707744,1.1164112,8.3892096,1.7831926,3.2546729,3.8751472,1.3069056,5.2738884-.9987993,1.2256427-2.0509543,1.742008-4.2742899,2.2123735-6.5503665-.1373026-.8828471-.2268639-2.0372671.7008151-2.3914345.4170099-.1599849.8786057.0760584,1.1096086.4248575,1.5409204,3.4879091-2.8870436,13.4129371-7.3701663,12.8251851Z" fill="#423b30" stroke-width="0"/>
        <path d="m104.4111328,64.411377c-.1367188,0-.2734375-.0087891-.4091797-.0266113l-.0185547-.0029297c-3.8701172-.8034668-4.4501953-6.5605469-4.1826172-9.8356934.0634766-.6008301.2822266-2.0202637.9501953-2.3510742.1601562-.0795898.4169922-.1335449.7353516.0598145l.2138672.1296387-.2460938.423584-.2167969-.1003418c-.0371094-.0212402-.0683594-.0341797-.1083984-.0356445-1.1650391,1.6799316.1630859,6.1577148,1.1972656,8.0349121.5712891,1.0422363,1.1982422,1.5778809,1.8642578,1.5927734.8632812.0224609,1.9472656-.9030762,2.9775391-2.6008301,1.1835938-1.9812012,1.6865234-4.0837402,2.171875-6.427002-.1054688-.6821289-.3105469-2.1694336.8662109-2.6186523.5517578-.2119141,1.1269531.1000977,1.40625.5202637.9980469,2.2490234-.2910156,7.0563965-2.7373047,10.324707-1.4179688,1.8937988-2.9873047,2.9130859-4.4638672,2.9130859Zm-.3349609-.5209961c1.4042969.1777344,2.9658203-.7763672,4.3984375-2.6916504,2.3115234-3.088623,3.5996094-7.7529297,2.7011719-9.7858887-.1445312-.2102051-.4863281-.4106445-.7910156-.2924805-.7275391.2775879-.6835938,1.2272949-.5439453,2.1193848l.0068359.0449219-.0087891.0441895c-.4794922,2.3178711-1.0117188,4.5686035-2.2421875,6.6279297-.796875,1.3139648-2.0097656,2.8845215-3.4169922,2.8427734-.8574219-.0187988-1.6289062-.6418457-2.2919922-1.8518066-.5625-1.0219727-1.40625-3.2871094-1.640625-5.3413086-.0664062,3.1513672.6669922,7.6191406,3.8291016,8.2839355Z" fill="#423b30" stroke-width="0"/>
      </g>
      <g>
        <path d="m21.3152053,103.7647884c-2.8985486-.3557862-5.2054522-2.4113302-7.3094958-4.2802934-6.2135738-5.6846488-7.9638091-14.3455337-9.6751643-22.240548-1.6973606-8.6647369-4.1910805-17.5283076-2.9137726-26.4106059.0472087-.1390033.1363806-.5874856.3750466-.5743721.0891719.0026227.1626076.0944173.2229298.1494941.0078681.0052454,0,.0183589-.0078681.013134-.0701983-.0426804-.1275802-.1094569-.2082898-.122427-.0343615.0185433-.068723.0387463-.1032075.0573716-.5933765,1.8737579-.1372821,3.9822068-.0320462,5.9189096.4421919,4.8663243,1.6197654,9.6167784,2.9291912,14.312463-.0027354-.0100195-.0053376-.0201006-.0078169-.0302431-.0044873-.0160641-.0089746-.0321025-.0129189-.0487608,2.4140144,8.2142005,3.6234086,17.0697186,8.6121292,24.2077551,2.3967209,2.7034133,4.7726139,5.7232313,8.0240596,7.4202025,1.9794139.6814317,4.0840927.4579487,6.1368603.5762982-1.899821.5310155-3.9975844,1.1551576-6.0296368,1.0516222Z" fill="#423b30" stroke-width="0"/>
        <path d="m21.7636719,104.026123c-.1542969,0-.3076172-.0036621-.4609375-.0114746l-.0175781-.001709c-2.9697266-.364502-5.3398438-2.4709473-7.4316406-4.3293457-6.1376953-5.614502-8-14.2175293-9.6425781-21.8078613l-.125-.5788574c-.2832031-1.4465332-.5878906-2.8937988-.8935547-4.3457031-1.5205078-7.2302246-3.09375-14.706543-2.0224609-22.1535645l.0302734-.1101074c.0644531-.2272949.2197266-.7145996.6054688-.6779785.1640625.0043945.2802734.1186523.3496094.1870117l.1474609.1452637-.0791016.217041-.1376953.2053223-.2119141-.1306152c-.3583984,1.3129883-.21875,2.7629395-.0820312,4.1672363.0478516.4934082.0947266.9824219.1210938,1.4609375.4453125,4.9057617,1.6542969,9.7119141,2.8974609,14.177002l.0019531-.0004883c.5917969,2.0151367,1.1201172,4.1027832,1.6308594,6.121582,1.5751953,6.2241211,3.2041016,12.6601562,6.9453125,18.0134277.2890625.3242188.5966797.6760254.9052734,1.0297852,2.0820312,2.3864746,4.2363281,4.8544922,7.0292969,6.3122559,1.3642578.4665527,2.8710938.4846191,4.3271484.5019531.5712891.0068359,1.1416016.0136719,1.7089844.0463867l1.4980469.0864258-1.7333984.4846191c-1.6650391.467041-3.5341797.9914551-5.3603516.9914551Zm-.4267578-.510498c1.4306641.0722656,2.9160156-.2319336,4.3222656-.5983887h-.0146484c-1.4960938-.0178223-3.0429688-.036377-4.5175781-.5439453-2.9121094-1.5161133-5.0966797-4.0200195-7.2099609-6.4414062-.3076172-.3527832-.6142578-.7036133-.9208984-1.0495605-3.8105469-5.4509277-5.4511719-11.9321289-7.0371094-18.1999512-.5039062-1.9880371-1.0234375-4.0429688-1.6035156-6.0249023l-.0029297.0007324-.0009766-.0031738c-1.2578125-4.5109863-2.484375-9.3723145-2.9375-14.3569336-.0214844-.3898926-.0556641-.7802734-.09375-1.1733398-.1171875,5.9399414,1.1386719,11.9121094,2.3613281,17.7233887.3056641,1.4541016.6113281,2.9038086.8935547,4.3476562l.125.5742188c1.7060547,7.8845215,3.4707031,16.0375977,9.4746094,21.5297852,2.0458984,1.8181152,4.3515625,3.8669434,7.1621094,4.2158203Z" fill="#423b30" stroke-width="0"/>
      </g>
      <g>
        <path d="m28.8153389,103.9864479c3.7527714-1.234105,7.8631833-2.0968926,11.0502191-4.6478613,6.815403-5.572057,8.8195379-14.9513629,9.3597739-23.3415304.4695459-8.3424261-.1140671-16.7139785-.8946288-25.020573-.1784463-3.00652-1.0446147-6.0249446-.9229663-9.0221213.0681903-.1888347.1232671-.257025.3068563-.2622704.0104908,0,.0104908.0157362,0,.0183794-.0530483.0005327-.110215.0189736-.1597595.0520238-.3261373,2.0134988.70311,4.1113954.9623069,6.1270457.3488196,1.7677023.6714122,3.5380273.9786168,5.3135977,1.6700681,12.005877,3.6748997,24.7537897-.126361,36.5392828-3.6488161,10.6309656-9.2024322,14.8229887-20.5540573,14.2440268Z" fill="#423b30" stroke-width="0"/>
        <path d="m30.7978516,104.2885742c-.6455078,0-1.3095703-.0175781-1.9951172-.0524902l-1.3388672-.0683594,1.2734375-.4189453c.7373047-.2421875,1.4873047-.4702148,2.2421875-.6994629,3.0507812-.9265137,6.2050781-1.8845215,8.7294922-3.9057617,5.5224609-4.5151367,8.5546875-12.0922852,9.2675781-23.1625977.4775391-8.4973145-.1474609-17.0283203-.8945312-24.980957-.0732422-1.230957-.2646484-2.4816895-.4492188-3.6911621-.2695312-1.7568359-.546875-3.5732422-.4746094-5.3647461l.0146484-.0737305c.0722656-.2019043.1787109-.4182129.5351562-.4282227l.2246094-.0061035.0664062.4460449-.21875.0698242c-.1513672,1.1936035.1787109,2.4553223.4990234,3.6767578.1923828.7319336.390625,1.4885254.4863281,2.2290039.3183594,1.6118164.6386719,3.3518066.9765625,5.3027344l.1992188,1.421875c1.6396484,11.7294922,3.3359375,23.8583984-.3339844,35.2368164-3.5283203,10.2792969-8.8857422,14.4694824-18.8095703,14.4694824Zm-.515625-.5039062c.1650391.0021973.3300781.003418.4921875.003418,9.6855469,0,14.9140625-4.0917969,18.3583984-14.126709,3.6337891-11.2648926,1.9453125-23.3361816.3134766-35.0097656l-.1982422-1.4140625c-.3359375-1.9389648-.6552734-3.6750488-.9755859-5.2995605-.0488281-.3723145-.1230469-.7490234-.2099609-1.1242676.0214844.1401367.0429688.2800293.0644531.4194336.1865234,1.2207031.3798828,2.4831543.4541016,3.7285156.7480469,7.963623,1.375,16.5170898.8945312,25.0495605-.7226562,11.2185059-3.8144531,18.9116211-9.4521484,23.5209961-2.6015625,2.0830078-5.8027344,3.0551758-8.8984375,3.9953613-.28125.0856934-.5625.1708984-.8427734.2570801Z" fill="#423b30" stroke-width="0"/>
      </g>
      <g>
        <path d="m29.8769806,109.8459983c-3.149652-.1891215-5.8749998-2.8522313-6.7901082-5.7700506-.0298947-.113227-.0290854-.2092426.0760789-.2833135.163458-.0236658.2721465.2294456.3933748.3253177-.0913746.0016187-.2217619-.1732829-.339425-.2134635-.0013318.0018441-.0026739.0036882-.0040672.0055937,1.3023978,2.5445553,4.1899946,4.7300257,7.1523179,4.4459541,2.3846012-.2763879,3.9475686-2.4368196,5.3710206-4.1279717.2753839-.3671785.5271634-.7500933.7737386-1.1408761.027395.5348267-.0751773,1.1579442-.2256755,1.7020528-.7058966,2.890199-3.3309567,5.2906696-6.4072549,5.0567572Z" fill="#423b30" stroke-width="0"/>
        <path d="m30.2802734,110.1113281c-.1396484,0-.2792969-.0053711-.4199219-.0158691-3.4453125-.2077637-6.1347656-3.1474609-7.0117188-5.9448242-.0830078-.3095703.046875-.4758301.1708984-.5625l.1074219-.0427246c.2519531-.0368652.4121094.1647949.5068359.2854004.0253906.0327148.0605469.0773926.078125.0910645l.5458984.4331055-.5.0092773c1.3320312,2.1333008,3.8798828,4.0002441,6.5839844,3.7429199,2.0537109-.2380371,3.5087891-1.9956055,4.7919922-3.5463867l.4111328-.4938965c.2246094-.3000488.4599609-.6467285.7529297-1.1130371l.4208984-.668457.0410156.7890625c.0253906.5080566-.0576172,1.140625-.234375,1.7814941-.7480469,3.0625-3.3886719,5.255127-6.2451172,5.2553711Zm-6.2939453-4.5732422c1.1767578,2.0805664,3.3154297,3.902832,5.9052734,4.0583496l.0039062.0002441c2.7832031.2106934,5.4160156-1.8815918,6.1455078-4.8666992.0673828-.2443848.1201172-.4851074.1582031-.715332-.0898438.1281738-.1767578.2480469-.2626953.3632812l-.4169922.501709c-1.34375,1.623291-2.8671875,3.4628906-5.1259766,3.7246094-2.5039062.2424316-4.890625-1.2062988-6.4072266-3.0661621Z" fill="#423b30" stroke-width="0"/>
      </g>
      <g>
        <path d="m32.3347409,145.5203421c-2.7870427-5.8868224-2.858788-12.5754545-3.6875317-18.9333596-.5143368-5.6942996-1.3765609-14.1020525-1.4386452-18.4639571,1.125939,6.3521474,2.0663422,12.7389432,3.0756221,19.1091627.70102,6.0741408,2.6092009,12.169878,2.0505548,18.288154Z" fill="#423b30" stroke-width="0"/>
        <path d="m32.5009766,146.4545898l-.3916016-.8273926c-2.1923828-4.6291504-2.7226562-9.7888184-3.2363281-14.7788086-.1435547-1.3925781-.2919922-2.8325195-.4736328-4.229248-.0947266-1.0471191-.2001953-2.1748047-.3095703-3.3513184-.5068359-5.4206543-1.0800781-11.5644531-1.1308594-15.1413574l.4960938-.0471191c.8212891,4.6335449,1.5556641,9.3615723,2.2666016,13.9335938.2675781,1.7272949.5361328,3.4543457.8095703,5.1801758.2304688,1.9916992.5947266,4.0136719.9472656,5.9692383.7294922,4.0471191,1.484375,8.2321777,1.1054688,12.3806152l-.0830078.9116211Zm-4.8564453-34.3120117c.2255859,3.3959961.6123047,7.5356445.9423828,11.0786133.1103516,1.1772461.2158203,2.3054199.3095703,3.3432617.1816406,1.3935547.3300781,2.8369141.4736328,4.2329102.4755859,4.6213379.9658203,9.3896484,2.7851562,13.7075195.1826172-3.7595215-.5039062-7.5644531-1.1689453-11.2539062-.3535156-1.9631348-.7197266-3.9931641-.9501953-5.9902344-.2724609-1.7158203-.5410156-3.4433594-.8085938-5.1708984-.5078125-3.2668457-1.0273438-6.6135254-1.5830078-9.9472656Z" fill="#423b30" stroke-width="0"/>
      </g>
      <g>
        <path d="m36.7686981,143.2083468c-2.3989133-6.1590509-2.5686924-12.8733978-3.566918-19.3425424-.2148568-2.3465207-2.2130599-16.0687729-.4202883-16.0938116-.0577405.0166992-.1175094.031288-.1754343.0457129-.0385619.0541547-.0848076.1170382-.1187798.1630994-.494103,1.8415068.0879835,3.8294753.2502018,5.6909392.5152383,3.2808179,1.064285,6.5565749,1.6314447,9.8296067,1.1848269,6.5026455,2.2150782,13.1366312,2.3997739,19.7069957Z" fill="#423b30" stroke-width="0"/>
        <path d="m37.0585938,144.6428223l-.5234375-1.34375c-1.7568359-4.5136719-2.3330078-9.3803711-2.8896484-14.0871582-.2060547-1.746582-.4199219-3.5529785-.6904297-5.3081055-.0371094-.3947754-.1181641-1.072998-.2226562-1.9431152-.8076172-6.706543-1.4160156-13.0695801-.4189453-14.2099609.0341797-.0395508.0693359-.0725098.1054688-.0998535l.0380859-.0537109.0820312-.0205078c.0888672-.0412598.171875-.0537109.2382812-.0546875l1.8652344-.026123-1.8867188.5412598-.0390625.0529785c-.328125,1.2717285-.1259766,2.6496582.0693359,3.9829102.0761719.5195312.1552734,1.0566406.2001953,1.5769043.46875,2.9782715,1.0019531,6.1923828,1.6289062,9.8088379,1.0810547,5.9309082,2.2119141,12.9165039,2.4033203,19.7424316l.0400391,1.4416504Zm-4.7373047-32.2929688c.1396484,3.168457.6337891,7.2751465.9072266,9.5510254.1054688.8764648.1875,1.5598145.2226562,1.9421387.2705078,1.7485352.484375,3.559082.6914062,5.3103027.4902344,4.1467285.9951172,8.4182129,2.3134766,12.4387207-.3076172-6.2700195-1.3408203-12.6015625-2.3330078-18.0456543-.6279297-3.6213379-1.1611328-6.8378906-1.6328125-9.8359375-.0400391-.4536133-.1035156-.9123535-.1689453-1.3605957Z" fill="#423b30" stroke-width="0"/>
      </g>
      <g>
        <path d="m17.2372391,159.84305c-7.923485-.7723453-7.9759698-7.1318281-2.7225816-11.7445492,3.1096558-2.8799541,7.0548066-4.8319218,11.1570431-5.8355977,1.345365-.2220897,3.0297043-.6238552,4.2330131.1548829.3252153.4589732-.6189581.5350316-.8628798.5901083.1778009-.1510104.6237527-.1538175.7787586-.3902911-.0145376-.0307143-.0290751-.0614081-.0436742-.0921634-4.5355051-1.4745332-18.9945526,7.9741053-16.6118673,13.2766385,2.2036653,3.01363,6.8297561,2.9024929,10.0412773,4.1327459-1.9857146.0734357-3.9893168.0812833-5.9690893-.0917741Z" fill="#423b30" stroke-width="0"/>
        <path d="m20.7509766,160.2336426c-1.296875,0-2.4521484-.046875-3.5351562-.1416016l-.0029297-.0002441c-3.390625-.3303223-5.6464844-1.7199707-6.3535156-3.9130859-.8066406-2.5014648.53125-5.6696777,3.4902344-8.2680664,3.0078125-2.7856445,6.9042969-4.8242188,11.2626953-5.890625l.4248047-.0732422c1.2626953-.2202148,2.8369141-.4938965,4.0029297.2609863l.0683594.0654297c.1474609.2077637.125.3793945.0800781.4868164-.1357422.3283691-.6357422.4130859-.9667969.4689941-.0507812.0085449-.09375.0158691-.125.0227051l-.9912109.2231445.7744141-.6577148c.0927734-.0786133.2109375-.1240234.3300781-.1623535-3.1445312-.4228516-10.0341797,3.1911621-13.7529297,7.3359375-1.4072266,1.5678711-2.9082031,3.8310547-2.0634766,5.7087402,1.4355469,1.9543457,4.046875,2.5356445,6.5722656,3.0976562,1.1894531.2646484,2.3125.5146484,3.3300781.9042969l1.1425781.4379883-1.2236328.045166c-.8798828.0327148-1.6972656.0490723-2.4638672.0490723Zm-3.4912109-.6396484c1.3310547.1164551,2.7724609.1604004,4.4580078.1313477-.59375-.1584473-1.2177734-.2971191-1.8603516-.4401855-2.6162109-.5822754-5.3203125-1.184082-6.8945312-3.3354492-.78125-1.7255859-.0380859-3.8859863,2.1210938-6.2929688,2.9462891-3.2827148,8.375-6.6584473,12.171875-7.3930664-.3828125.045166-.7646484.1115723-1.1328125.1757812l-.4101562.0700684c-4.2578125,1.0424805-8.078125,3.0397949-11.0283203,5.7722168-2.8115234,2.4692383-4.09375,5.4348145-3.3496094,7.7436523.6416016,1.9912109,2.7460938,3.2585449,5.9248047,3.5686035Z" fill="#423b30" stroke-width="0"/>
      </g>
      <g>
        <path d="m26.2973384,160.2718416c-1.8112843-.3028198-3.7051735-.630248-5.4552237-1.0361524,7.3689471-.1408474,14.8621756.1897977,21.8380757-2.4499946,5.7185186-1.9547339,15.4309027-7.7889998,7.2247496-13.4662517-3.2848544-1.903919-7.4236653-2.2884114-11.1128669-1.8094607.3486967.1990181.7957037.2948083,1.1800528.4554079-.1924614.0137487-.515935-.1340038-.7501547-.1704553-2.2180287-.595907,2.339841-.9211222,2.8325815-.9363872,1.9093283-.1521168,3.8553745-.0288497,5.7201168.4091418,1.9171964.451105,3.7242393,1.3559378,5.0881682,2.7878316,6.5296307,7.6866323-5.7531465,13.9979639-12.0199741,15.7808288-4.7217887,1.4298243-9.7304869,1.2897555-14.5455251.4354918Z" fill="#423b30" stroke-width="0"/>
        <path d="m33.140625,161.1679688c-2.1572266,0-4.4443359-.2167969-6.8857422-.6496582-1.7949219-.300293-3.6962891-.6279297-5.4697266-1.0390625l-1.9609375-.4550781,2.0126953-.0385742c1.0117188-.0192871,2.0253906-.0297852,3.0390625-.0402832,6.2626953-.0644531,12.7382812-.1313477,18.7158203-2.3935547,3.296875-1.1269531,9.6572266-4.2658691,10.1894531-8.0976562.2382812-1.7199707-.7763672-3.378418-3.0185547-4.9291992-2.6542969-1.5373535-6.1552734-2.1955566-9.9189453-1.8764648.0761719.0273438.1513672.0556641.2246094.0861816l.9658203.404541-1.0449219.0754395c-.1542969.0153809-.34375-.0441895-.5224609-.0983887-.0986328-.0300293-.1982422-.0610352-.2832031-.0742188-.28125-.0742188-.7373047-.1965332-.8076172-.4816895l-.3544922-.2023926.4082031-.0529785c.4726562-.5925293,3.4804688-.6918945,3.6171875-.6962891,1.9833984-.157959,3.9355469-.0185547,5.7851562.4155273,2.0986328.4941406,3.9013672,1.482666,5.2119141,2.8588867,1.7529297,2.0627441,2.3125,4.1726074,1.671875,6.2817383-1.4589844,4.8056641-9.0546875,8.560791-13.8046875,9.9121094-2.4033203.7277832-4.9775391,1.0910645-7.7705078,1.0910645Zm-10.0429688-1.7143555c1.0839844.2077637,2.1806641.3942871,3.2402344.5715332l.0029297.0004883c5.5214844.979248,10.2412109.8395996,14.4296875-.4284668,4.6484375-1.3225098,12.0664062-4.9633789,13.4667969-9.5776367.5878906-1.9360352.0615234-3.8881836-1.5644531-5.8022461-1.234375-1.295166-2.9511719-2.2346191-4.9560547-2.7062988-1.6904297-.3974609-3.4726562-.5397949-5.296875-.4277344,2.8632812.1013184,5.4863281.7888184,7.6103516,2.0197754,2.4267578,1.6777344,3.5126953,3.4975586,3.2460938,5.4196777-.5654297,4.0732422-7.125,7.3408203-10.5146484,8.4995117-6.0537109,2.2907715-12.5742188,2.3581543-18.8808594,2.4230957-.2607422.0026855-.5214844.0053711-.7832031.0083008Z" fill="#423b30" stroke-width="0"/>
      </g>
      <g>
        <path d="m20.8089211,52.4546842c-4.8961063-.5010184-9.6368482-1.9707569-14.4274727-3.0477047-1.4045296-.361175-2.8093255-.7474296-4.1359935-1.3375994-.1704757-.0760584-.5166726-.2045709-.4720969-.4433189.2668396-.1797781.8413142.2330723,1.1382637.3253382-.2686837-.0249157-.6505842-.2059027-.9653189-.2435836,2.7780579,1.076333,5.8328726,1.164337,8.7310626,1.6771166,3.3347166.4662675,6.8256581,1.1920393,10.1656508,1.2990989,5.9201287.2598321,11.3016504-2.1002529,16.8981108-3.5090341,2.6605485-.6227487,5.4533796-1.0890777,8.1409133-1.2718474-8.0198387,3.3392141-16.2156443,7.1734635-25.0731193,6.5515344Z" fill="#423b30" stroke-width="0"/>
        <path d="m22.7265625,52.7712402c-.6416016,0-1.2871094-.0217285-1.9355469-.0671387l-.0078125-.0007324c-3.5097656-.3591309-6.9863281-1.2250977-10.3476562-2.0625-1.3457031-.3352051-2.7373047-.6818848-4.1083984-.9899902-1.3710938-.3520508-2.8164062-.7451172-4.1835938-1.3530273-.1982422-.0866699-.5117188-.2233887-.6005859-.4782715l-1.5429688-.5979004,1.6337891.1967773c.3085938-.2075195.7294922-.0002441,1.0683594.166748.1074219.0529785.2060547.1032715.2841797.1274414l1.5917969.4931641c1.1474609.2404785,2.3183594.3930664,3.4658203.5427246.8818359.1149902,1.7939453.2338867,2.6777344.3903809.9345703.1306152,1.8916016.2832031,2.8535156.4370117,2.4072266.3845215,4.8955078.7819824,7.2753906.8583984,4.3007812.1867676,8.3945312-1.0422363,12.3583984-2.2321777,1.4589844-.4382324,2.96875-.8913574,4.4716797-1.2695312,2.8857422-.6757812,5.6376953-1.1057129,8.1845703-1.2790527l1.5136719-.1027832-1.4013672.5830078c-.6533203.2724609-1.3085938.5478516-1.9648438.8242188-6.8027344,2.8618164-13.8193359,5.8132324-21.2861328,5.8132324Zm-1.8964844-.5656738c8.0615234.5646973,15.65625-2.6237793,22.9882812-5.7084961.1630859-.0686035.3251953-.1369629.4882812-.2053223-2.0625.2192383-4.2441406.5966797-6.5087891,1.126709-1.4873047.3745117-2.9912109.8259277-4.4453125,1.2624512-4.0019531,1.2021484-8.1474609,2.4443359-12.5205078,2.2529297-2.4091797-.0773926-4.9130859-.4772949-7.3359375-.8642578-.9589844-.1530762-1.9121094-.3054199-2.8525391-.4370117-.8818359-.1557617-1.7880859-.2739258-2.6640625-.3881836-.9101562-.1186523-1.8339844-.2392578-2.7519531-.4033203.4101562.1147461.8173828.2211914,1.2167969.3237305,1.3691406.3078613,2.7636719.6550293,4.1113281.9909668,3.34375.8327637,6.8017578,1.6938477,10.2744141,2.0498047Z" fill="#423b30" stroke-width="0"/>
      </g>
      <g>
        <path d="m1.841118,47.4257727c-1.0743865-.8454736,6.5653138-3.0617402,7.3228142-3.3649903,5.3282173-1.9285683,35.9149666-8.4241858,37.2634666-1.0620311.1350897,1.365773-.8873139,2.5498008-1.5552838,3.656008.0422296-1.0789557.5870349-2.3393493.1595956-3.3742723-.5449282-.6889925-1.5538905-.6825382-2.3487951-.8584437-3.9733756-.6194908-8.0023813-.3771366-11.9971381-.1551903-9.5415498.6312725-19.2424084,1.6753749-28.2994546,4.825488,1.0403221-.1533462,2.1382617-.4932527,3.116315-.6996882-1.1491745.3395992-2.4732096,1.1063712-3.6615198,1.0331199Z" fill="#423b30" stroke-width="0"/>
        <path d="m2.0039062,47.6806641c-.0595703,0-.1191406-.001709-.1787109-.0053711l-.078125-.0048828-.0605469-.0480957c-.2089844-.1643066-.2099609-.3591309-.1914062-.4606934.1191406-.6696777,1.9091797-1.4851074,6.6054688-3.0085449.4833984-.1564941.8369141-.270752.9707031-.3244629,2.3662109-.8564453,9.6337891-2.5979004,17.1455078-3.6479492,6.5214844-.9118652,15.0634766-1.5598145,18.7041016.5310059.9951172.5712891,1.5849609,1.3256836,1.7529297,2.2421875.1201172,1.2116699-.5703125,2.2634277-1.1796875,3.1916504-.1416016.2160645-.28125.4287109-.4082031.6384277l-.5009766.8305664.0371094-.9694824c.0146484-.3796387.0888672-.7797852.1601562-1.1665039.1328125-.7163086.2695312-1.4562988.03125-2.0695801-.3691406-.4389648-1.0068359-.541748-1.6230469-.6413574-.1933594-.0310059-.3828125-.0617676-.5615234-.1013184-3.8457031-.5993652-7.8251953-.3779297-11.6757812-.1638184l-.2539062.013916c-8.2226562.5441895-16.9052734,1.4016113-25.1953125,3.8398438l.0703125.276123c-.3496094.1032715-.7148438.246582-1.1015625.3986816-.8134766.3198242-1.6523438.6496582-2.46875.6496582Zm.3164062-.760498c-.1513672.0983887-.2519531.1853027-.3017578.260498.1181641-.0007324.2382812-.0097656.359375-.0256348l-.0576172-.2348633Zm34.4833984-7.1105957c-9.6464844,0-23.7041016,3.0927734-27.5546875,4.4863281-.1308594.0524902-.4951172.1711426-.9941406.3327637-2.8505859.9248047-4.7392578,1.6350098-5.6455078,2.1225586,9.1533203-3.1315918,18.8916016-4.1271973,28.0595703-4.7338867l.2568359-.0141602c3.8759766-.2155762,7.8828125-.4382324,11.7949219.171875.1855469.0405273.3662109.0693359.5488281.098877.6904297.1113281,1.4726562.2375488,1.9580078.8515625l.0351562.0595703c.3115234.7558594.1591797,1.5827637.0117188,2.3828125.5214844-.8068848.9931641-1.6425781.9042969-2.5444336-.1367188-.7446289-.6445312-1.3835449-1.5068359-1.8781738-1.6689453-.958252-4.5009766-1.3356934-7.8681641-1.3356934Z" fill="#423b30" stroke-width="0"/>
      </g>
      <g>
        <path d="m8.1650406,63.0184635c-4.8306105-1.5686842-5.1741027-9.4133139-6.4069886-13.5805647.7153834,1.2834856,1.1246994,2.9920542,1.7006082,4.429849,1.0433648,2.4565923,2.2079989,6.3505697,4.8166978,7.4221901,1.0384268.2423132,1.9156699-.4662266,2.6396693-1.107785,1.7324802-1.5564312,2.1982355-3.8793886,2.5245265-6.0711493.091641-.765768.285178-1.5350808.1600157-2.2654628,1.2242699,1.2751872,1.5156666,3.2803877,1.363765,4.9859237-.5333924,3.1021667-3.3770179,6.6327767-6.7982939,6.186999Z" fill="#423b30" stroke-width="0"/>
        <path d="m8.7402344,63.3059082c-.2001953,0-.4033203-.0129395-.6074219-.0395508l-.0449219-.0100098c-3.8955078-1.2651367-4.9658203-6.4157715-5.8251953-10.5541992-.2441406-1.1711426-.4736328-2.2773438-.7441406-3.1931152l-.6396484-2.1606445,1.0976562,1.9677734c.4658203.8356934.8046875,1.8469238,1.1328125,2.8249512.1835938.548584.3740234,1.1159668.5820312,1.6335449.1542969.3630371.3125.7629395.4785156,1.1804199.9267578,2.3310547,2.0791016,5.2319336,4.2001953,6.1037598.8671875.1965332,1.6494141-.416748,2.3789062-1.0637207,1.6640625-1.4946289,2.1191406-3.7446289,2.4433594-5.9208984.0214844-.1826172.0507812-.3725586.0791016-.5622559.0869141-.5720215.1689453-1.1120605.0820312-1.6242676l-.1376953-.8029785.5644531.5876465c1.5644531,1.6293945,1.5224609,4.1662598,1.4316406,5.1813965-.5498047,3.2023926-3.28125,6.4521484-6.4716797,6.4521484Zm-.5195312-.5322266c3.1367188.390625,5.9541016-2.831543,6.4960938-5.984375.0712891-.8120117.1132812-2.7258301-.8339844-4.1838379-.0175781.3295898-.0673828.6586914-.1171875.9816895-.0273438.1843262-.0556641.3691406-.078125.5537109-.3378906,2.2734375-.8173828,4.6206055-2.6054688,6.2272949-.7929688.7028809-1.7333984,1.4294434-2.8632812,1.1652832-2.3564453-.9645996-3.5527344-3.9748535-4.5136719-6.3935547-.1640625-.4140625-.3212891-.8100586-.4765625-1.1745605-.1601562-.4013672-.3095703-.824707-.4521484-1.2453613.828125,3.9829102,1.8779297,8.8769531,5.4443359,10.0537109Z" fill="#423b30" stroke-width="0"/>
      </g>
      <g>
        <path d="m20.2529591,64.1581922c-3.3774584-1.1016585-5.9824589-9.104634-6.4726279-12.4265136-.0236043-.1914574-.2098163-1.531659.3724239-1.1959529.0078681.0052454.0026227.0183589-.0078681.0157362-.0537552-.026309-.1089549-.0365744-.166849-.0387668-.029864.0252845-.0595436.050569-.0874713.075874-.0234302,1.9771293,1.129453,3.8025721,1.8724363,5.5886538,1.1141266,2.0990645,2.2274131,4.276175,3.9131559,5.9560372,1.0716101.9908288,2.1897322.4802211,3.0804885-.4056175,2.4452922-2.4471055,3.0920038-5.8724385,3.777892-9.1173582.1494941-.7107527.309479-1.41626.4380325-2.1296354.2437168.7297673.3354704,1.6068158.4456957,2.3997329.5307287,3.3976717-.47892,6.9420304-2.8297744,9.4680014-1.0679117,1.2202949-2.6852695,2.2675937-4.3355341,1.809809Z" fill="#423b30" stroke-width="0"/>
        <path d="m21.0419922,64.513916c-.2910156,0-.578125-.0375977-.8554688-.1147461l-.0107422-.0031738c-3.5761719-1.1665039-6.1650391-9.3935547-6.6425781-12.6276855-.1074219-.8510742-.0380859-1.2949219.2207031-1.467041.0869141-.0561523.265625-.130127.5234375.0178223l.1962891.1130371-.1757812.4077148-.1552734-.0332031c.0458984,1.369873.6650391,2.6923828,1.2646484,3.9733887.2041016.4370117.4072266.8703613.5859375,1.3012695l.1513672.2824707c1.046875,1.9763184,2.1298828,4.0200195,3.7080078,5.5925293.796875.736084,1.7167969.6000977,2.7275391-.4060059,2.3027344-2.3034668,2.9785156-5.5200195,3.6337891-8.6306152l.1962891-.9279785c.1113281-.5178223.2226562-1.0344238.3164062-1.5554199l.1738281-.9626465.3095703.9279785c.2148438.644043.3125,1.3781738.4072266,2.0881348l.0488281.3562012c.5498047,3.5168457-.5322266,7.1345215-2.8945312,9.6728516-1.1269531,1.2880859-2.4716797,1.9951172-3.7294922,1.9951172Zm-.7167969-.5952148c1.9140625.527832,3.6035156-1.1948242,4.0751953-1.7351074,2.2636719-2.432373,3.2978516-5.8937988,2.7705078-9.2646484l-.0488281-.3630371c-.0400391-.2976074-.0800781-.5996094-.1298828-.8950195-.0302734.1452637-.0615234.2902832-.0927734.435791l-.1962891.9260254c-.6699219,3.1821289-1.3623047,6.4724121-3.7695312,8.8815918-1.2021484,1.1965332-2.4199219,1.3439941-3.4277344.4125977-1.6376953-1.6323242-2.7382812-3.7099609-3.8027344-5.7189941l-.1611328-.3034668c-.1865234-.4455566-.3857422-.8720703-.5878906-1.3022461-.1386719-.2956543-.2773438-.5935059-.4111328-.8942871,1.0380859,3.8898926,3.2597656,8.9921875,5.7822266,9.8208008Z" fill="#423b30" stroke-width="0"/>
      </g>
      <g>
        <path d="m29.9783338,57.7585287c-1.6739304-1.5444447-2.5185332-3.8174272-2.8587266-6.0269936-.0230101-.3556017-.1040066-.764805.0682313-1.088422.2045709-.2307979.4170099.0603222.5664938.1941211-.0980236-.0001024-.2431226-.1742664-.3774132-.1897772-.0290751.0194859-.0581503.0379882-.0873278.0562652.0473726,2.1630339,2.216451,6.1004293,4.4039703,6.6587989.1324158.0246288.2666859.0396479.4028616.0467784.0715097-.0021719.1449556-.0023973.1348951.0056757,1.9110495-.2675977,3.2002723-1.9439562,3.9590942-3.5621029.8633613-1.8774461,1.1994362-4.0158921,1.8082108-5.9373709.2281752,1.2431616.3068563,2.5309091.2647496,3.7951342.0729235,3.8436338-4.4855815,9.1300414-8.2850391,6.0478933Z" fill="#423b30" stroke-width="0"/>
        <path d="m32.4306641,58.9299316c-.9189453,0-1.8095703-.328125-2.609375-.9772949l-.0126953-.0102539c-1.9121094-1.7648926-2.6523438-4.3310547-2.9365234-6.1728516l-.0175781-.2116699c-.0302734-.3286133-.0634766-.7009277.1123047-1.0319824.1542969-.1843262.2841797-.2160645.3720703-.21875.0048828-.0002441.0097656-.0002441.0136719-.0002441.2207031,0,.3837891.1623535.5039062.2814941l.5517578.4987793h-.6542969c-.0712891,0-.1337891-.0219727-.1904297-.052002.2392578,2.0856934,2.1904297,5.5744629,4.1914062,6.0852051.1064453.019043.2294922.0327148.3544922.0390625.0400391-.0012207.0849609-.0029297.1289062.0019531,1.9902344-.3034668,3.1875-2.2663574,3.7255859-3.4147949.5458984-1.1860352.8828125-2.5036621,1.2089844-3.777832.1816406-.706543.3681641-1.4372559.5878906-2.1289062l.3037109-.9567871.1806641.9875488c.2226562,1.2163086.3125,2.5112305.2685547,3.8483887.0488281,2.5678711-1.8222656,5.5996094-4.1689453,6.7451172-.6386719.3112793-1.2832031.4658203-1.9140625.4658203Zm-2.2880859-1.3605957c1.5224609,1.2316895,3.0058594.9221191,3.9824219.4453125,2.1523438-1.050293,3.9335938-3.9350586,3.8886719-6.2993164.0302734-.9030762-.0019531-1.7797852-.0957031-2.623291-.0898438.3342285-.1757812.670166-.2607422,1.0009766-.3310547,1.2956543-.6748047,2.6352539-1.2392578,3.8642578-.5869141,1.2497559-1.9042969,3.390625-4.1523438,3.7053223l-.8759766.1228027.2255859-.185791c-1.5986328-.4291992-3.0908203-2.4128418-3.9140625-4.3237305.4042969,1.4628906,1.1328125,3.0839844,2.4414062,4.293457Z" fill="#423b30" stroke-width="0"/>
      </g>
      <g>
        <path d="m41.452806,57.3789128c-2.9254621-.3778537-4.1230747-3.7993756-4.6840054-6.3130118-.086037-.2657537-.2793179-1.9978446.2596477-1.2142913.0493191.1271806.1883224.2973081.1887937.4012942-.1229392-.1554772-.2284006-.3130443-.3665433-.450224-.0000615,0-.0001229,0-.0002459.0000205.2020711,1.9202494,2.886101,7.1961663,5.3134543,6.0209491,3.3768335-2.32767,2.3590195-7.2253029,3.1784096-10.7112654,1.0131013,3.293911,1.7380944,7.1841592-.4038554,10.1918266-.7430652,1.1494819-2.0517124,2.1689965-3.4856552,2.0747021Z" fill="#423b30" stroke-width="0"/>
        <path d="m41.6445312,57.6352539c-.0693359,0-.1376953-.0021973-.2080078-.0068359l-.015625-.0014648c-2.3525391-.3039551-4-2.4931641-4.8964844-6.5065918h0c0,.0002441-.2851562-1.2463379.0429688-1.6162109l-.0390625-.371582.2685547.2648926h.0068359c.1435547,0,.2871094.1044922.4306641.3125.0419922.0893555.0693359.1328125.0947266.1767578.0673828.1154785.1376953.2348633.1376953.3662109v.7233887l-.1113281-.1413574c.5351562,1.5942383,1.8056641,3.875,3.1972656,4.6491699.5439453.3024902,1.0361328.3405762,1.5019531.114502,2.2402344-1.5476074,2.4384766-4.3815918,2.6308594-7.1223145.0849609-1.2160645.1650391-2.364502.4140625-3.4213867l.2109375-.8977051.2714844.8815918c.9785156,3.1845703,1.8134766,7.2456055-.4394531,10.4104004-.6923828,1.0708008-1.9667969,2.1860352-3.4980469,2.1860352Zm-.1669922-.5053711c1.4228516.088623,2.6298828-1.0009766,3.2509766-1.9614258,1.9052734-2.6767578,1.4599609-6.0849609.6699219-8.973877-.1035156.7329102-.1582031,1.5095215-.2138672,2.3164062-.2001953,2.8588867-.4072266,5.8151855-2.8789062,7.5185547-.6474609.3161621-1.3076172.2744141-1.9960938-.1083984-1.2636719-.7028809-2.40625-2.4782715-3.0820312-4.0361328.8789062,3.2321777,2.3046875,4.989502,4.25,5.244873Z" fill="#423b30" stroke-width="0"/>
      </g>
      <g>
        <path d="m114.9478283,63.8191052c-4.1589729-1.6171837-4.2559105-7.7867254-4.015134-11.5714917.0177237-.1346594.1539609-.2120087.2806908-.1574237.2995415.1469329.1459084.6192244.1333276.904423.4862452,2.9919312.9285601,7.2438052,3.6635278,8.9785598,1.5623118.622052,2.8917767-.9288059,3.4558015-2.2143815,1.0821931-2.5905756,1.1173333-5.4482367,1.4862124-8.1957442.9049557,2.8318643,1.6583274,6.2444322.3093766,9.0929343-.8866378,1.9787275-3.0394677,3.7775539-5.3138026,3.1631241Z" fill="#423b30" stroke-width="0"/>
        <path d="m115.8583984,64.1904297c-.3212891,0-.6474609-.0412598-.9755859-.1298828l-.0253906-.0085449c-3.1884766-1.2399902-4.59375-5.2167969-4.1738281-11.8203125.0195312-.1586914.1005859-.2802734.2236328-.3503418.125-.0705566.2714844-.078125.4052734-.0209961.40625.1992188.3447266.6552734.3046875.9570312-.0087891.067627-.0185547.1320801-.0205078.1884766l.1171875.7114258c.453125,2.9018555,1.015625,6.5134277,3.4296875,8.0446777,1.453125.5759277,2.6630859-1.1228027,3.09375-2.1035156.8027344-1.9226074,1.0234375-4.0473633,1.2363281-6.1020508.0703125-.6784668.140625-1.355957.2304688-2.0266113l.1484375-1.1005859.3378906,1.0576172c.8798828,2.7526855,1.7089844,6.2946777.296875,9.276123-.8027344,1.7929688-2.6123047,3.4274902-4.6289062,3.4274902Zm-.8320312-.6091309c2.1103516.5603027,4.1601562-1.1369629,5.0068359-3.0275879,1.1542969-2.4382324.7138672-5.3178711.0253906-7.7734375-.0302734.2753906-.0595703.5515137-.0878906.8276367-.2167969,2.0908203-.4414062,4.2529297-1.2744141,6.2473145-.6943359,1.5825195-2.1708984,2.9909668-3.7792969,2.3500977-2.6464844-1.6738281-3.2285156-5.4094238-3.6972656-8.4108887l-.0869141-.5524902c-.2138672,5.7658691,1.0947266,9.2421875,3.8935547,10.3393555Z" fill="#423b30" stroke-width="0"/>
      </g>
      <g>
        <path d="m59.0846284,40.1063599c-5.2401006-.656475-3.2259051-9.6130492-1.2268106-12.6324778-2.1518874-2.0243789-4.8954609-3.2706037-7.4020485-4.7906962-2.4439296,1.1288793-5.2718189,1.7330847-7.9151764,1.0311733-.4310045-.1470046-1.2444934-.359669-1.1985141-.9179873.0367179-.0917946.1494941-.1337579.2308184-.1704655.0339517.0118431-.1536331.1009434-.1914369.1829643.4649152,1.1874086,3.3445414.8499097,4.427841.7049336,5.6727852-1.0249752,9.8356717-5.768268,12.0455864-10.8174747-.6122989-2.9711442-1.0949173-12.2353226,3.1681441-12.4448213,4.2093575,1.1012589.4988874,8.524914-.5583695,11.0706373.7052409,4.4283942,3.540773,9.3320101,8.7262475,8.0899243,1.4661477-.1951558,3.1761352-1.0369412,4.5074442-.0383263.572651.455326.7476345,1.2600964.5326138,1.9436591-1.689431,3.606945-9.4569369,1.0281511-13.0577042,6.5848919,1.9835426,2.3048341,2.4703,5.5468647,1.654004,8.4324945-.4603255,1.7555108-1.7260464,3.764338-3.7426392,3.7715709Zm.0918766-3.1262014c1.4095393-1.8514854,1.5820231-4.6296458.6638719-6.7421107-.8684633,2.0755626-1.5346095,4.5717414-.6638719,6.7421107Zm-6.6459722-13.8716951c2.2024769.7232106,4.4621001,1.4251629,6.3896849,2.7446902.5696594-.7451347,1.2223439-1.4316069,1.9400221-2.0208137.9892715-.812782,2.0815047-1.4383891,3.2545704-1.9297465-2.8738891-1.1892015-4.6755431-3.9731298-5.6331168-6.8246644-1.3690923,2.2050894-3.0475203,4.2010284-5.1092727,5.8091146-.8169312.636354-1.7036305,1.1969569-2.6385014,1.6614726.6007221.1780263,1.198678.3662565,1.7966135.5599472Zm7.6639296-16.7797715c.0570233-.2114555.1112805-.4240277.1622183-.6375936-.0131135.044586-.0236043.0917946-.0340951.1363806.129414-.5759908.2316995-1.1520124.2975949-1.7351234.0133389-.1853514.0233175-.3700983.0280506-.5550092-.285342.9014212-.3977699,1.8495491-.4537687,2.7913456Z" fill="#423b30" stroke-width="0"/>
        <path d="m59.0693359,40.3564453l-.015625-.0019531c-1.3955078-.1748047-2.3994141-.909668-2.9853516-2.1845703-1.3642578-2.9694824-.0644531-8.1879883,1.4658203-10.6547852-1.5224609-1.3886719-3.3642578-2.4248047-5.1464844-3.4282227-.6542969-.3686523-1.3085938-.7368164-1.9482422-1.121582-2.0009766.9064941-4.9707031,1.7851562-7.9628906.9907227l-.1337891-.0441895c-.4892578-.1606445-1.3085938-.4296875-1.25-1.1359863l.0175781-.0732422c.0712891-.1782227.2402344-.2519531.3408203-.2958984l.0898438-.0395508.2587891.0734863.0458984.3046875-.1503906.1149902c.2792969.3730469,1.1992188.7919922,4.0810547.4057617,4.8574219-.8779297,9.2744141-4.8381348,11.8173828-10.5979004-.4326172-2.1958008-.9267578-8.7272949,1.1806641-11.4477539C59.3671875.4555664,60.1201172.0456543,61.0107422.001709l.0390625-.001709.0371094.0095215c.8447266.2211914,1.4492188.6962891,1.796875,1.4123535,1.1367188,2.3374023-.7216797,6.6120605-1.8320312,9.1660156-.1240234.2849121-.2353516.5422363-.3291016.7648926.5195312,3.1665039,1.9677734,5.8149414,3.8828125,7.0939941,1.3222656.8825684,2.8476562,1.125,4.5263672.722168.3828125-.0522461.7529297-.1391602,1.1455078-.230957,1.1621094-.2717285,2.4804688-.5817871,3.5712891.2358398.6328125.5029297.8808594,1.3928223.6210938,2.2185059-.828125,1.7734375-2.875,2.1516113-5.2441406,2.5895996-2.7275391.5041504-5.8134766,1.0742188-7.7412109,3.902832,1.8349609,2.2380371,2.4423828,5.4819336,1.5830078,8.5180664-.4755859,1.8164062-1.8046875,3.9458008-3.9814453,3.9536133h-.0166016Zm-7.4375-17.2724609c.3320312.1904297.6669922.3786621,1.0009766.5671387,1.8681641,1.0517578,3.7998047,2.1391602,5.3955078,3.640625l.1542969.1445312-.1171875.1755371c-1.4794922,2.2358398-2.8505859,7.5039062-1.5429688,10.3493652.5068359,1.1022949,1.3740234,1.7397461,2.5771484,1.8952637,1.8837891-.0175781,3.0546875-1.9401855,3.4853516-3.5852051.8339844-2.9477539.2197266-6.0900879-1.6015625-8.2058105l-.1220703-.1418457.1015625-.1572266c2.0371094-3.142334,5.2958984-3.7446289,8.171875-4.276123,2.2333984-.4128418,4.1630859-.7695312,4.8701172-2.2788086.1826172-.588623-.0019531-1.2766113-.4619141-1.6418457-.8974609-.6730957-2.0429688-.404541-3.1513672-.1447754-.3867188.0905762-.7871094.1843262-1.1679688.2351074-1.8027344.4328613-3.4550781.1647949-4.8964844-.7973633-2.0419922-1.364502-3.578125-4.1687012-4.109375-7.5009766l-.0107422-.0698242.0273438-.0654297c.0986328-.2392578.2216797-.5217285.359375-.8376465,1.0048828-2.3127441,2.8759766-6.6176758,1.8408203-8.7480469-.2802734-.5766602-.7509766-.9489746-1.4375-1.137207-.7314453.0461426-1.3300781.3811035-1.8271484,1.0234375-2.0263672,2.6147461-1.4941406,9.0651855-1.0703125,11.1188965l.015625.0778809-.03125.072998c-2.5361328,5.793457-6.9355469,9.8308105-11.8271484,10.8835449,1.5615234-.2004395,2.9892578-.713623,4.0947266-1.2241211l.2714844-.1313477c.9121094-.4536133,1.7851562-1.0036621,2.5957031-1.6350098,1.9082031-1.4880371,3.6083984-3.4206543,5.0507812-5.7436523l.2792969-.451416.1699219.5036621c.640625,1.9089355,2.2070312,5.314209,5.4921875,6.6733398l.5546875.2294922-.5537109.2321777c-1.2207031.5109863-2.2646484,1.1298828-3.1923828,1.8920898-.6894531.5654297-1.328125,1.2314453-1.9013672,1.9797363l-.1435547.1884766-.1962891-.1340332c-1.7978516-1.230957-3.9257812-1.9274902-5.9824219-2.6010742l-.3427734-.1123047c-.2744141-.088623-.5478516-.1762695-.8212891-.262207Zm-.2382812-.5974121c.4052734.1245117.8095703.2529297,1.2138672.3840332l.34375.1125488c2.0175781.6608887,4.1015625,1.3430176,5.9150391,2.532959.5576172-.7038574,1.1748047-1.3344727,1.8359375-1.8769531.8320312-.684082,1.7529297-1.2565918,2.8027344-1.7409668-2.2089844-1.1079102-3.9921875-3.296875-5.0878906-6.2521973-1.4130859,2.1801758-3.0566406,4.0080566-4.8916016,5.4382324-.671875.5244141-1.3876953.9946289-2.1318359,1.4023438Zm7.7148438,14.9956055l-.1640625-.4089355c-.7363281-1.8354492-.5185547-4.1030273.6660156-6.9318848l.2265625-.5405273.2333984.5375977c.9902344,2.2790527.7041016,5.1547852-.6943359,6.9931641l-.2675781.3505859Zm.7255859-6.5529785c-.8349609,2.1962891-1.0263672,4.0065918-.5830078,5.5029297.9501953-1.532959,1.1728516-3.6608887.5830078-5.5029297Zm-.03125-22.2128906l.1416016-2.4023438c.0703125-1.1748047.2128906-2.0541992.4658203-2.8520508l.5351562-1.6914062-.046875,1.7734375c-.0048828.1887207-.0146484.3774414-.0292969.5666504-.0595703.5319824-.1484375,1.0666504-.2734375,1.6374512l.0039062.0009766c-.0517578.2163086-.1054688.4311523-.1640625.6452637l-.6328125,2.3220215Z" fill="#423b30" stroke-width="0"/>
      </g>
    </g>
  </g>
</svg>