<?xml version="1.0" encoding="UTF-8"?>
<svg id="Layer_2" data-name="Layer 2" xmlns="http://www.w3.org/2000/svg" viewBox="0 0 89.3355602 101.4231204">
  <g id="Layer_1-2" data-name="Layer 1">
    <g>
      <path d="m43.4083523,34.617264c-3.6406224-1.1480212-2.8196852-9.5581854-1.0066515-12.0279479-.8550123,2.6687776-.4603792,5.8309904.2859535,8.509541.9331706,3.4145877,2.4153835.5642245,4.2864284-.0439004.3665421,1.9836703-1.5595351,4.0244372-3.5657304,3.5623073Z" fill="#423b30" stroke-width="0"/>
      <path d="m47.2001697,30.6454027c-.0602062-.3144104.0066896-.9632999.4348229-.6689321-.0001045.0465135-.1208828-.0148425-.1554283-.0015679-.0119158.005383-.0233351.010949-.0350158.0171421-.0557117.5915054.5668899,1.1347204.9998574,1.429245.8154235.6413115,1.5882794-.1100384,1.7929127-.8996443.5863053-1.8941449-.2131521-3.9679416.1036101-5.8667639.9432311.8830249,1.7091884,1.9667373,2.0468555,3.2276713.987419,3.6345077-3.6669365,7.7939125-5.1876145,2.7628499Z" fill="#423b30" stroke-width="0"/>
      <path d="m49.5668447,26.7044808c-2.5047783-.6548736-4.4583978-4.6547997-7.2755221-3.0546829.0641782.0306257.2284127-.0302338.2447447.0211401-.1619088.0997689-.4092666.1861063-.4348229-.0468532.3657059-1.0042736,1.678432-1.2766912,2.6390665-1.1940644,2.2678992.2624616,4.35207,2.0534405,4.8265338,4.2744604Z" fill="#423b30" stroke-width="0"/>
      <path d="m39.2471706,26.4490746c-1.3721745-.1370058-2.3997571-1.1744398-3.5688662-1.8095844-1.8900684-1.1669663-3.6929109-2.2230319-5.7525184-2.9488255-3.6794011-1.1877667-7.5636184-1.3487871-11.2859007-1.6537902-2.5077311.0162275-5.7977776-.8759956-7.7297604,1.1474463-1.079061,1.3609381-1.9916664,2.9592257-3.0337257,4.2846777.1137229-1.0435749.3077208-2.0704258.5386943-3.0936968.6507448-4.9233237,4.7595335-5.6186484,8.9672026-5.0141035,3.0898555.2705623,6.1592241.7873325,9.1747103,1.5119502,3.3256894.76891,6.2999144,2.4951882,8.880447,4.7027504,1.2632075.9272911,2.3624156,2.39994,3.8097173,2.8731757Z" fill="#423b30" stroke-width="0"/>
      <path d="m26.7650888,32.6309022c-5.6123246-1.140417-12.0154572-1.2555249-16.5165272-5.2247469-1.1205051-1.010127-1.8931519-2.4450424-1.7459811-3.9936808.1003437-1.0569541.4916843-2.4617664,1.6490082-2.7995642-.9184588.4819635-1.2242197,1.7950816-1.1305395,2.7995381.0868339,1.4371889.9689181,2.5947741,2.1504395,3.3293478,3.4930596,2.3064165,7.7246387,2.4402343,11.7404526,2.9522487,5.3727801.8314158,10.8678541.9733081,16.1185493,2.4985591-3.9840384.6526524-8.2019248,1.0382703-12.265402.4382983Z" fill="#423b30" stroke-width="0"/>
      <path d="m13.2655112,52.171173c-8.494202-.1536775-11.5670461-9.223654-12.5432026-16.3023821-1.0340893-5.8131428-1.091212-11.9175698.7122838-17.5870695.6643853-1.6814109,1.3941247-4.0929793,3.3582489-4.5555012-1.7121934.650771-2.2342422,3.0432897-2.6656941,4.6961392-1.1621059,5.9632664-.3911838,12.0127918,1.1808681,17.8008225,2.3456917,9.7817115,6.6046563,15.2722387,17.0771456,10.7450114,6.3321864-3.4889309,11.6719106-8.5594516,18.173427-11.7851108,1.6348974-.7969488,3.4471471-1.4734851,5.1810817-1.8262299-1.2750449.9004283-2.488786,1.8656096-3.6729467,2.879212-4.5262604,4.4857832-9.2215112,8.8304058-14.6431827,12.2256826-3.5414546,2.5366845-7.7989297,3.8591314-12.1580289,3.7094258Z" fill="#423b30" stroke-width="0"/>
      <path d="m43.2564778,23.6197992c-5.2547978-2.3100226-10.0013964-5.5888588-14.5599027-9.0409448-2.6444234-1.9802732-4.7977634-4.399289-7.8569932-5.5822999-5.1075224-1.5598225-10.7552548.1584072-14.9812157,3.150715-.7135119.4915537-1.4087059,1.1353737-2.0336331,1.6456373,3.6581564-4.3266443,9.2291938-7.0275633,14.9244327-6.8669088,3.7054539.0793865,6.7410872,2.3982676,9.5458776,4.5725388,5.1686433,3.7974356,10.7502899,7.2539377,14.9614344,12.1212624Z" fill="#423b30" stroke-width="0"/>
      <path d="m45.7243328,19.7861719c-.3244448-.2341354-.080275-.4582364.1405335-.6522082-.0102957.1050735-.2422622.2487689-.2045549.422489,3.8275126.8238639,9.5171594-9.0022445,11.6972055-11.7981503,1.5151905-2.0302883,3.1006215-4.0505423,5.0873492-5.6425061,4.4391129-3.5709567,10.9611424-2.295363,14.9178999,1.3945951.6987478.5742327,1.498571,1.1824882,2.1004767,1.7894895-1.5063059-.4922592-2.9901389-1.0424251-4.4686934-1.558516-11.5149667-4.1798916-14.2782869,4.240516-21.0954942,11.238551-1.8967841,1.7888623-5.3888769,5.4603718-8.1747222,4.8062561Z" fill="#423b30" stroke-width="0"/>
      <path d="m65.8238631,36.9171738c-4.1714774-.116937-7.6375696-1.6782229-10.3790181-4.8530047,1.4838069.5862792,3.0781226,1.4222157,4.7071405,1.7708057,2.7485561.4731573,5.52455-.0729844,8.2606677-.3757925,4.7283851-.7104023,9.8852955-1.3795696,13.8339523-4.2670914,4.3041715-4.1661727,6.3208978-11.3396264,2.6718611-16.5398362-1.9958736-2.9686852-5.1087506-5.1005977-6.899625-8.2060796-.0407646-.0651973-.4690025-1.003751-.1907315-.9966694.0778971,1.0884683,1.2475549,1.8619251,1.9434021,2.5854975,2.6221596,2.298943,5.727537,4.1948648,7.6261242,7.1980693,3.8190984,6.026138,1.628835,14.3883776-3.39154,19.0420537-5.1609868,3.7281357-11.8979714,5.1126703-18.1822333,4.6420477Z" fill="#423b30" stroke-width="0"/>
      <path d="m59.415635,30.5585165c-2.4890735-.1059619-5.1101878-.7297917-7.4086866-1.5655191,4.2170502.2694647,8.2224377-.3920723,12.2866727-1.2595752,3.7858595-1.0622326,8.4684367-1.3036324,11.1665074-4.4890496,1.5075602-2.1093874.6479749-5.2203046-1.2679633-6.7767824-.0000261.0000261.0108183-.0174295.0108183-.0174295-.2277071-.1365354-.6677562-.2876782-.886422-.2776961-2.947728.2293795-5.4203127,2.1938695-7.9939989,3.4786352-2.5824663,1.4092546-5.2525505,2.6661645-8.0308439,3.6425039-1.5720519.5886833-3.2946194,1.0335405-4.9803942,1.0602988-.0836198,0-.9499207-.0033448-.9365416-.1705844.0029528-.0118374.0163581-.013144.021715-.0040503.0109751.0058011.0201733.0116284.0251121.0174818,1.6919418.0972341,3.3475873-.813725,4.8197136-1.4719695,5.2599979-2.4761908,9.3295375-6.5791,14.5164204-9.0907247,4.9210503-2.5168771,9.3872613,2.9366222,9.1882462,7.6225703-.0267583,2.5152831-1.4181915,4.7930859-3.3848504,6.2818055-4.9565887,3.3165435-11.4075675,3.096336-17.1455047,3.0200852Z" fill="#423b30" stroke-width="0"/>
      <path d="m42.4616979,70.566297c-2.5039421-7.8812429-2.8896122-16.1186015-.9635873-24.1427036.6340731-2.8617825,1.3950132-5.7124332,2.4450947-8.4522876.5987176-1.555328,1.314503-3.237758,2.6792301-4.2745649-.371507.4084304-.8261373.9366722-1.0741222,1.4988323-2.5364232,6.6084975-3.2423309,13.8168364-3.3878816,20.84764-.0610686,4.8477001,2.0310461,9.8177464.3012664,14.5230838Z" fill="#423b30" stroke-width="0"/>
      <path d="m38.884313,101.4231204c-6.776521-7.0190707-9.8071371-15.4645642-3.2113132-23.8015349,1.4605502-1.9648297,2.9352634-3.97599,4.3014277-6.0005295,1.0703332-1.6389477,2.0537019-3.3113434,3.0070196-5.0205056-.7660879,2.2657041-1.8105512,4.5955865-2.9400193,6.7665128-2.5021391,4.9295952-6.6999044,9.7947771-5.4543094,15.6910954,1.1163764,4.2026257,3.4266864,8.1143592,4.2971945,12.3649618Z" fill="#423b30" stroke-width="0"/>
      <path d="m47.906783,77.2431537c.3657843-2.6815819.6779213-5.2867562.4417215-7.9698015-.3217794-4.0334263-1.7641945-7.8719402-2.1775898-11.8949141-.4294398-4.0079223.0849263-8.0506252.8962473-11.977776.693208-3.0621564,1.1930452-6.4190987,3.1141575-8.9840049-.7700598,1.2487047-1.1360009,2.8334302-1.4586426,4.3015845-.784432,4.5095365-1.295375,9.2046044-1.0468413,13.7167539.3619691,7.5883385,5.9800165,16.0269072.2309474,22.808158Z" fill="#423b30" stroke-width="0"/>
      <path d="m44.5334564,98.5486381c-6.1657569-6.2116172-2.8458686-15.8402783,1.2608557-22.2664064.7350963-1.2846873,1.4187664-2.5972827,2.1741405-3.8699758.0747874-.1407425.3875777-.67408.5351143-.5719593-.4609541.4887054-.5697904,1.3062455-.8361978,1.9199625-1.6823516,5.1719097-4.4455673,10.2551563-4.0913069,15.8351305.148608,3.0013753,2.0092005,5.9658011.9573942,8.9532485Z" fill="#423b30" stroke-width="0"/>
      <path d="m43.9097313,101.0321979c-1.7645865-.6295263-3.706473-1.2975438-5.004252-2.6996647-.1614384-.2011578-.3743814-.4175502-.4744639-.6418864.5251322-.0936542,1.0402301-.0903094,1.5619653.020121,2.0166217.4722427,3.3470647,2.2819577,4.9542892,3.382969.0350942-.0084142.0370279-.106563.0730105-.0816861-.0048604.5179723-.9749021.0380209-1.1105491.0201471Z" fill="#423b30" stroke-width="0"/>
      <path d="m59.4525583,75.8851423c-.2801785-3.326813-.2332992-6.6755502.1536514-9.9908916.6285856-4.3922597,1.0157974-9.1156538-1.0733906-13.1708213-1.2258399-2.4221777-2.8698048-4.6236514-4.3283951-6.9045638-1.6136789-2.7008406-3.8692703-5.4728102-3.71264-8.7801556.0937848-1.1016122.7482664-2.2101231,1.4650709-2.930011-.6925547.939024-1.1435005,2.1093351-1.0639311,3.2713365.7565761,4.1058881,4.1564781,7.0631801,6.4487054,10.368853,7.6918702,8.4946463,4.8090521,18.2933169,2.1109291,28.1362538Z" fill="#423b30" stroke-width="0"/>
      <path d="m67.9590943,93.9203876c-8.0863465-3.3235989-9.1150267-13.7724395-8.0340842-21.3833553.1885365-.9181191.4588897-1.9346482.8530002-2.7259788-.243229.9007157-.3795554,1.8460896-.4383244,2.7561342-.1178516,4.8639537.7000805,9.8532326,2.7611775,14.2606484,1.283433,2.5576417,3.43497,4.6791801,4.858231,7.0925516Z" fill="#423b30" stroke-width="0"/>
      <path d="m65.5905378,94.8276623c-1.7902995-.4094756-3.9994819-.9878893-4.789715-2.8062799,2.6361136-.0026131,4.553463,2.2878373,7.0073378,2.8631414-.6455447.2855616-1.5205474.0620354-2.2176228-.0568615Z" fill="#423b30" stroke-width="0"/>
      <path d="m58.408304,101.024855c-.769302-.1839635-1.3379165-.9164728-1.4315707-1.6790852-.0159139-.1220849-.0202778-.2415305-.0150516-.359147-4.25008-7.6620545-4.1692301-16.8607794-2.7844342-25.2285326.8589058,7.4085037,1.7526184,14.673704,5.1052229,21.356597.8298479-1.144781,1.4440875-2.9394967,2.9422666-3.291353.0257131.0388571-.073298.103976-.0951959.1512995-.4596998,1.2538525-.0897345,2.7265537-.2727573,4.059845-.2060966,1.968279-.7425698,5.5278948-3.4484798,4.9903764Z" fill="#423b30" stroke-width="0"/>
      <path d="m53.6343984,75.2316014c-.397011-4.2756101.3676919-8.5347315.2753181-12.8046189-.3415084-7.3590112-9.121664-12.8256806-4.5467995-20.5329683.2203643-.336439.6034213-.7719674.9532917-.8428351-.5878209.3741201-.8468855,1.0656819-1.076866,1.7081954-2.4887599,12.3914327,12.9413111,10.9830403,4.3950558,32.4722269Z" fill="#423b30" stroke-width="0"/>
    </g>
  </g>
</svg>