<?xml version="1.0" encoding="UTF-8"?>
<svg id="Layer_2" data-name="Layer 2" xmlns="http://www.w3.org/2000/svg" viewBox="0 0 133.9158043 156.3470451">
  <g id="Layer_1-2" data-name="Layer 1">
    <g>
      <path d="m30.2879905,112.1976361c-8.0352472-6.3173843-10.8878758-16.6125342-13.4396412-26.0699044-3.3341476-12.9440605-3.3416753-26.9900723,1.6502161-39.5096693.460882-1.2152745.9924385-2.5165158,1.6424103-3.5932219-.286755,2.7303823-.3389962,5.6660634-.5824074,8.2673308-.7924226,9.0175732-2.0108894,18.0835825-.8096818,27.1245216,1.7668397,11.767228,4.7681183,23.8744357,11.539104,33.7809432Z" fill="#423b30" stroke-width="0"/>
      <path d="m33.6299439,110.9586765c12.1103382-1.1709318,11.7730618-16.1119538,13.5027776-25.2950192,1.5945869-9.283336,2.1405192-18.6857207,2.325181-28.091998.2380254-4.8442094.0664832-9.9990032,1.8454641-14.5389306.0627965,4.0507983.7933494,8.0411685,1.0994232,12.0767053.9216405,10.6079998.2894531,21.3033308-1.2234716,31.8277478-1.2670729,9.7643143-4.5198259,26.0584171-17.5493743,24.0214947Z" fill="#423b30" stroke-width="0"/>
      <path d="m28.6771947,50.2261133c-3.511539-1.0996498-6.3587612-3.5858692-8.6764453-6.3586376-.011719.0000618-.0233968.0000618-.0350849.0000824-.0267539.0120691-.0277013.0835571-.0567208.0659065-.0243854-.2159467.2098092-.1849707.3480069-.1028965,3.5263165,1.7932332,7.0746189,3.391548,10.9312608,3.9714427,6.5962511.3969012,13.8756436.800908,20.0111259-1.9431087.3215207-.1704095.6613922-.3879421.9220524-.5756932-.3848939.7908779-1.1810443,1.502668-1.8900746,1.9961222-5.9883255,3.4680613-14.8782255,5.0573551-21.5541204,2.9467822Z" fill="#423b30" stroke-width="0"/>
      <path d="m25.8581063,46.6801999c-.0663596-1.3777752.1929413-2.8121682-.5473946-4.0050139-1.8434457-2.1217771-4.4185771-3.178876-6.3120706-5.2455388-4.893732-4.8486581.0037999-11.6026935,4.2573945-14.9793713.4649703-.3431257,1.2641895-1.1133666,1.8690875-.7381115-.4446629-.0064053-.7052818.5462-.957024.8775037-1.6168922,3.2351231-4.2697211,6.4388376-4.1945568,10.2001004,1.3848704,5.3464581,9.8290468,7.4005162,5.884564,13.8904313Z" fill="#423b30" stroke-width="0"/>
      <path d="m37.2392098,47.9057723c1.9868953-8.1966461,1.6260367-6.6876964-4.6839537-11.3940377-3.5580237-2.7078094-3.253165-7.5632023-1.1682131-11.0907442.0052725-.0369076.0553615-.0369076.0686663-.0079088.1459417,1.2951449-.1432436,2.7424515.0122957,4.0056317.9593925,8.8450835,14.904794,6.0269426,5.7712048,18.4870589Z" fill="#423b30" stroke-width="0"/>
      <path d="m19.1490728,44.2830161c-.625916-2.0997602,4.8451156-2.4986386,6.2191012-2.174976-1.6156564.6430208-3.4118554,1.0843471-5.049467,1.7611244.3161143.0682132.7096069.0941845.9817287.2082645-.6906794.1166133-1.5144385.6995356-2.1513629.2055871Z" fill="#423b30" stroke-width="0"/>
      <path d="m51.1450056,47.3865939c-1.5173734-3.9671588-7.1415037-2.547636-9.8491277-4.9930345-.1001779-.192447.0579977-.4560729.2769308-.4532101,3.4490926.4848246,9.822312.5955269,9.5721969,5.4462446Z" fill="#423b30" stroke-width="0"/>
      <path d="m32.6353325,111.9992164c-1.0095021-.3839671-2.0435337-.9058023-2.7759608-1.6266546,1.6446141.3117377,3.3102153.7640828,4.9700702,1.077221.7705704.1331723,1.613844.1345316,2.3508227.2119512-1.4422606.6259469-3.0394838.8856597-4.5449322.3374824Z" fill="#423b30" stroke-width="0"/>
      <path d="m29.3030592,145.3517726c-.0793555-6.3409664.610047-12.7002837.6119418-19.0548845.0676983-2.8844182-.0929282-5.761669-.2471287-8.6399908-.0448164-2.1636483-.5393211-4.4915685.1863094-6.5738223.6813289,3.1141023,2.2621579,6.0593809,2.6629723,9.2901789,1.3885468,8.4040867-.9304349,16.9647426-3.2140948,24.9785187Z" fill="#423b30" stroke-width="0"/>
      <path d="m36.0028659,146.6383909c-5.0040945-2.8291597-3.2030554-30.8222001.8438296-34.5403147-.6863131,3.0114323-.1484544,6.1728637-.350396,9.2427468-.1734988,4.0419215-.5258514,8.0797856-1.0127562,12.0951797-.1267464,4.1945362-1.7084404,9.4980727.5193225,13.2023882Z" fill="#423b30" stroke-width="0"/>
      <path d="m22.4079736,153.2951936c-11.4426952-1.1335093-2.1909583-11.8046763,7.2118074-9.4672614.7608286.3105843-1.4754816.6279241-1.6807597.7514576-4.3035497,1.2772678-13.8612574,5.1235294-5.5310477,8.7158038Z" fill="#423b30" stroke-width="0"/>
      <path d="m41.3306848,153.6437153c8.9152739-5.0574581-.0879646-7.3987038-5.4316834-8.553262.527911.3196465-.2157408.1061918-.4601921.0674718-.5599168-.4569791.5276638-.7456496.8726431-.7672339,3.0108556-.5339661,6.3941653-.149237,8.9448289,1.6316387,4.6662619,3.996446.5706884,7.010391-3.9255965,7.6213854Z" fill="#423b30" stroke-width="0"/>
      <path d="m26.0287424,155.9548088c-2.1898873-.6320844-5.0835015-1.6269429-5.8786839-3.9703306-.071766-.3964275.2949521-.570915.5984206-.3400775-.0450636.0482353-.1951347.0012769-.2713906.0469996-.0100301.0125634-.0201942.025168-.0303376.0379374,1.1306155,2.8596826,21.0299167,2.7798946,22.9368386.8458274-1.596214,3.3147257-13.9512919,4.4554847-17.3548472,3.3796436Z" fill="#423b30" stroke-width="0"/>
      <path d="m29.2905576,146.6231088c2.7018366.8017113,5.7052777.594147,8.2461789-.5957947-2.0249769,2.5911137-5.9551045,3.1181596-8.2461789.5957947Z" fill="#423b30" stroke-width="0"/>
      <path d="m27.0672227,34.4390373c-7.1708321-12.215665.2383343-13.8677348,8.1670293-21.0612841.1051414-.2074407.3904754-.4594918.2425359-.6854481.4186916.1702241.0869348.9550262-.0105244,1.2997584-1.0435469,2.6740323-3.3873259,4.590593-5.4580048,6.470102-5.0068749,4.0328387-3.9897318,8.4503654-2.9410359,13.9768718Z" fill="#423b30" stroke-width="0"/>
      <path d="m30.643659,53.9730414c2.535052-5.8692201,2.7093128-9.930584-.8563931-15.3878268-.043663-.1732929.173643-.1127825.2399202-.0189687,6.3116998,4.0849049,5.6478773,10.6013885.6164728,15.4067955Z" fill="#423b30" stroke-width="0"/>
      <path d="m26.0050778,63.7605054c1.1499035-2.7322359,4.5615118-5.3124133,3.6393564-8.5111848-.0224494-.0068996-.0447546-.0139433-.0670599-.0212342-.1811399.0425715-.2070494.3215001-.3193169.4048512-.0131813-.284716-.0421802-.6406111.2794435-.7697878.5615233-.2240821,1.0334138.5720683,1.1518601.9884738,1.0748525,3.5617309-2.2289987,6.0519253-4.6842832,7.9088818Z" fill="#423b30" stroke-width="0"/>
      <path d="m33.2127352,62.635358c-2.4137634-.6176468-3.0309983-4.7002243-1.4128704-6.3164575.3427138-.1449943.4718905.1159954.6327023.3743901-.0913011.0146642-.2372016-.1446853-.3528057-.1517085-.0179801.0097418-.0358367.0196278-.0539197.0297197-.3484188,1.7847684.1689472,4.6926451,2.0886591,5.3496298.7566271.2410736,1.594484.3955625,2.325181.5799977-1.0555336.2391788-2.1603324.3853882-3.2269465.1344286Z" fill="#423b30" stroke-width="0"/>
      <path d="m21.3414316,69.3615273c-.9459641-.7546911-1.9753823-3.2960042-.1608839-3.6089982-1.2350773,1.0354528.8139863,2.5097809,1.7874767,2.7973804,6.3263434,1.6039374,8.400606-4.9552619,17.4097556,2.1144244-9.1270809-3.4613883-13.4881752,3.4241357-19.0363483-1.3028066Z" fill="#423b30" stroke-width="0"/>
      <path d="m40.5472626,71.2361756c-1.289028-.1565073-2.9397178-1.033352-3.2135181-2.3938061.0289783-.1908456.504267.0282368.1548185.014587,2.0554999,1.8075421,5.2378154.9578221,7.4665669-.0250084,1.2253252-.5893276,2.5227769-1.330961,2.7364375.6352768-.2275216-.1974517-.406849-.5721919-.728102-.7213208-1.9490403,1.208447-3.8699467,2.991959-6.4162028,2.4902716Z" fill="#423b30" stroke-width="0"/>
      <path d="m20.1859775,67.5064243c-.1413488-1.4762642,1.1471231-2.7691436,2.2409648-3.6039523,2.9672441-1.955425,6.2600971.6071429,9.2374434,1.3182534-2.0599897.2864255-4.2196836-.0788406-6.2807238-.4005673-1.9744761-.2112715-3.9149279,1.0020258-4.9889978,2.576882.0676468.0028628.1849913-.065268.2316922-.0329326-.1109289.105574-.315898.3142916-.4403789.1423168Z" fill="#423b30" stroke-width="0"/>
      <path d="m41.7589946,64.5856135c-1.223348-.6027766-2.5092661-1.3568911-3.8999342-1.3538429-.8034413-.0679867-1.7532774.8240371-.7431575,1.2850942-.6353386-.0026363-.9147821-.2478084-.9886591-.8699863.0516336-.9945289,1.1955437-1.6506487,2.0958676-1.7082139,3.794525-.3172162,6.0815214,3.1390438,8.9633033,4.9561475-1.9341701-.1969574-3.7254262-1.3869815-5.4274201-2.3091987Z" fill="#423b30" stroke-width="0"/>
      <path d="m27.8121102,96.9261343c-6.5482629-3.4878745-5.2984699-15.1302817-5.1216552-21.4915711-.1861961-.5409275-.0066215-1.3859929.7170626-.9668843,1.5040273,2.7669347,1.3713699,6.5858451,1.600086,9.6091457.2159879,4.5352882-.8131213,9.3998463,2.8045065,12.8493096Z" fill="#423b30" stroke-width="0"/>
      <path d="m35.9979435,105.1877188c5.2743523-6.0798532,4.3731428-14.931033,5.6966687-22.4083509.2829036-1.6239359.5763317-3.260703,1.2574958-4.7716299.1555393-.3559002.2293546-.3743489.5087981-.5219382.0648561.0070438.1153158.0597278.1344698.0948848-.0087532.0262648-.0689135-.0157558-.099457-.0143141-.4671946,2.750525.32115,5.7347503.0308937,8.5715922-.0922691,2.4438127-.3690763,4.8586265-.8722724,7.2525974-1.1116571,4.0411388-2.5935028,9.9153432-6.6565967,11.7971588Z" fill="#423b30" stroke-width="0"/>
      <path d="m38.7642448,19.0092775c-.5812952-4.9847344-2.4068844-11.8531381,2.1015108-15.4879841.922073-.5411747,2.2197924-.957024,3.1371489-.2160909.7317886.5999962,1.0975696,1.7471193.5642213,2.5887452-.8260555.9018891-1.1848133-.2960849-.851862-1.0058978-.280082-.5246775-.953049-.3233125-1.3127749-.0776255-3.0741465,3.0149748-2.5444436,10.1270678-3.6382442,14.1988531Zm5.1674602-13.5089769c-.0146642-.2004793-.0822389-.4014323-.1904492-.571574.0490797.1924058.1095283.383411.1878129.5645303-.0026363-.0052725-.0052725-.0131813-.010545-.0184538.0044899.0084855.0088356.0169915.0131813.0254976Z" fill="#423b30" stroke-width="0"/>
      <path d="m38.834909,23.5544568c-2.3790595-2.2616224-1.7122712-10.579557,1.1572974-12.0398183-.6871781.7772435-.5102192,2.0602163-.6799696,3.0212771-.0569885,1.5733321-.0632496,3.1393115.0586156,4.707021.3169484,4.4722497,2.0690313,3.9046094,5.0266262,1.6119698-.9973506,1.8934317-3.2978166,4.8311105-5.5625696,2.6995504Z" fill="#423b30" stroke-width="0"/>
      <path d="m44.6408589,4.7102671c-.2017974-.1430171-.4381752-.6214776-.1609148-.7644123.0011534.7235709,1.1841131.7297702,1.6978542,1.0122825-.4745061.1041117-1.1114512.0960587-1.5369394-.2478702Z" fill="#423b30" stroke-width="0"/>
      <path d="m52.246921,8.4738572c-.2804115-1.4577074-.2870846-3.4566513-1.9617273-4.0193073-1.6542941-.603827-3.5317435.2013443-4.4223667,1.6179426.0013387.0023891.0026157.0047782.0038926.0071673.11892.0325001.3037877-.0629407.3958921-.020637-.2056283.1581756-.5246157.4402554-.7223351.1028141-.2293546-.3875302.1581756-1.0017787.3266696-1.3208279,2.9974684-4.5333162,8.480909-1.3895766,6.3799748,3.6328481Z" fill="#423b30" stroke-width="0"/>
      <path d="m46.308808,25.0692969c-.8596678-1.2384241-1.7574995-3.3519217-.6615982-4.6740471.4086202-.263626.5087981.284716.5931378.5694733-.1082926-.0430246-.2101593-.2002528-.3220974-.2834185-.1085809,1.1078263.6335467,2.2031922,1.2395157,3.0011138,1.5065812,2.0626672,3.221674,1.0649665,4.2701433-.7669456.442109-.6663558.8444269-1.449778,1.2763616-2.0721207-.2230729,3.6178338-2.8959724,8.1456921-6.3954629,4.2259448Z" fill="#423b30" stroke-width="0"/>
      <path d="m38.1940919,40.0597694c-8.0456584-5.2493078-8.3172549,3.5086556-19.7484062-11.2089228,4.0472352,1.7798048,7.3637528,4.7055793,11.1302881,6.7225444,4.1433557.8238723,6.2436514.1875246,8.6181181,4.4863784Z" fill="#423b30" stroke-width="0"/>
      <path d="m45.0225398,20.6262108c-1.1321293-4.5849704-.6784661-9.572856.7515194-14.0459913.1001779-.2899886.7750603-2.5070829,1.3418767-1.9271058-.005705.0273306-.097727-.0218109-.1354584-.0022243-.4969143,2.0290755-.1829111,4.2400941-.5156771,6.3292474-.3165365,3.2282029-1.2457562,6.4389405-1.4422606,9.6460739Z" fill="#423b30" stroke-width="0"/>
      <path d="m51.1534911,21.9415808c.2157408-5.6623767.6325581-11.349489,1.7058041-16.9247868,1.7640902,5.5031714.2935722,11.7076702-1.7058041,16.9247868Z" fill="#423b30" stroke-width="0"/>
      <path d="m97.4431618,5.0758833c9.0892259-5.6971424,25.4576589-6.997601,35.0148621-1.8450316.2082645.1133592,1.9218333.9833248,1.3366042,1.4236008-.0227583-.0048812.0100713-.0572563.0200603-.0832069-.0040368-.0265068-.0078882-.0542287-.0104833-.0812709-5.0668086-1.3927483-10.7286704-1.6133909-15.9747653-1.7335467-6.8401875.0736093-13.8714214.1605235-20.386278,2.3194554Z" fill="#423b30" stroke-width="0"/>
      <path d="m77.3667628,8.2087484c-1.5501155-.1397218-3.0896911-.3427138-4.6292667-.5615645,2.9634853-.4905502,6.0972102-.8138834,9.0660968-1.5263531,6.1435971-1.4665018,12.3559635-2.7344809,18.6251742-3.5247203,3.0985319-.3316126,6.2865936-.7305117,9.3560648-.0104627-.3346402.1232451-.7647212.1897695-1.1388024.2927072-5.8811245,1.8098746-11.8826519,3.2017991-17.9476967,4.2284369-4.398491.7209552-8.8613748,1.6159242-13.33157,1.1019565Z" fill="#423b30" stroke-width="0"/>
      <path d="m68.2547631,9.3056177c-5.4864476-.3415192-10.9783119-1.3283048-16.191886-3.0820346,5.4839967-.1068097,11.1331715-.0631467,16.6603576.0579153,5.1419626.327061,10.5005104-.612539,15.4756472.7936995-5.2498639,1.0703626-10.5493842,2.4099738-15.9441188,2.2304198Z" fill="#423b30" stroke-width="0"/>
      <path d="m119.4071589,41.7452249c-9.7834066-.2683424-18.4640946-3.725488-26.5024621-9.1448139-.0079088-.0052725-.0026363-.0184538.0079706-.0160441,7.3619198,2.0761574,14.5608651,4.7203876,22.1397408,5.9374128,4.5668461.7058585,9.0646345,1.595349,13.6632187,1.9742289.2779606.105574-.2555112.3342901-.2762924.2657473-2.8801136,1.0491489-5.9992207,1.1079293-9.0321756.983469Z" fill="#423b30" stroke-width="0"/>
      <path d="m97.4283123,35.7453657c-5.3588156-.8695538-10.6851722-3.179638-15.6909967-4.9772788-4.4151582-1.3452133-8.7023805-2.9348778-13.002707-4.5903047-1.5950452-.5077065-3.2917872-.9528225-4.8421962-1.4623414,4.5652602-.0268981,9.1138739.4320582,13.5714182,1.4210057,6.8333343,1.0504671,12.8167786,4.589625,19.1129492,7.2047328,2.1854592.9121458,4.3498284,1.8611993,6.3481132,3.1424627-1.7992678-.1585463-3.6855527-.4231403-5.4965807-.7382763Z" fill="#423b30" stroke-width="0"/>
      <path d="m67.2387115,25.9228889c-4.3046824-.4565672-8.3482722-1.4345783-12.4907834-2.2787787-.5077889-.0768634-1.0938006-.0932783-1.5605215-.1835702,3.1645413-.9085828,6.5555538-.4483495,9.7963613-.2555524,3.5175736.3715066,7.1320915,1.2886573,10.0415129,3.3111627-1.929742-.1476305-3.8673929-.3400775-5.7865693-.5932614Z" fill="#423b30" stroke-width="0"/>
      <path d="m104.7766594,8.9555307c-.8570315-.6142485,1.9036678-1.3150816,2.3147183-1.4314684,5.6451175-1.4825253,11.5460757-.8236664,17.2305929.0790466.1819019.0289989.9305996.0949053,1.0993203.355895.060634.0949053.0342714.1107229.0658653.3005748-.0663184-.0177742-.081168-.145468-.1377652-.2081203-6.6811881-.077955-13.3967917,1.0865303-20.0900078.7639386.7417158.3956037-.1416372.1710273-.4827239.1401337Z" fill="#423b30" stroke-width="0"/>
      <path d="m22.2247021,7.0369516c-1.8395531-.6970435-1.194102-6.1267085.6376247-5.4253605-1.2251193.5137411-.5157801,3.2381712-.0135108,4.1715513.5151828.1775562.9904304-.7732479,1.0193675-1.232369-.0210077-.4694602-.5963714-.6305192-.8685652-.8695538,2.8435973-.2965586,1.4636596,4.4226338-.7749162,3.3557319Z" fill="#423b30" stroke-width="0"/>
      <path d="m12.0241177,18.7523246c-.4455279-.2583534-.7750603-.6959725-.7486977-1.239042.0144685-.2662828.0632496-.5547473.1687309-.8149338-.6556975.4178471-1.1135416,1.1441779-1.6134012,1.6769907.2820798-1.3418561.822513-2.7469825,2.182823-3.3215635,1.2320498-.6927184,3.1514424.0049842,2.9526211,1.6054409-.1933223,1.2642101-1.6056057,2.6672357-2.942076,2.0931078Zm.3021092-.9724091c.181593.0209253.4118538-.1610796.5124436-.2271096.5651482-.4708401.8524696-1.4259075-.1265508-1.3049279-.1956496.0279485-.3888586.0707671-.5772997.1281263-.1199395.0401206-.2369956.0853901-.3518274.1369001-.0135623.4433859.0441985,1.1186597.5432342,1.2670111Z" fill="#423b30" stroke-width="0"/>
      <path d="m9.197687,9.8497582c-1.6475387-.6978879-1.0312306-5.1564208.8514494-4.4840923-.070314.0549495-.2334525.0326443-.3409625.0650003-.7213774.9134846-.6015512,2.6966876.3169896,3.4394126.8972963.4708813,2.4755405-.9055964,1.7060204-1.7357092,1.9508733,1.1158381-1.0402207,3.9505586-2.533497,2.7153886Z" fill="#423b30" stroke-width="0"/>
      <path d="m3.3084581,30.5604403c-.5229062-.6850156-.2161733-2.3287441.8567535-1.4577898-1.0056713-.1976783-.502537,1.0648635-.0374534,1.4467916.3197186.2479114.9357383.1353349.9496713-.3212735.3425181,1.028409-1.3705152,1.1991686-1.7689714.3322717Z" fill="#423b30" stroke-width="0"/>
      <path d="m12.3761717,27.5989734c-1.0997837-.882838-.7828764-3.32144.7803225-3.3427566-.8209683.4861633-.7846271,1.7188207-.2609382,2.3990786.9346673.9958265,1.6809965-.7285551,2.0033102-1.4026137.3068668,1.4728247-.9611432,3.5149373-2.5226945,2.3462917Z" fill="#423b30" stroke-width="0"/>
      <path d="m.6676365,21.5638748c-1.8219334-1.5841243.45044-7.0527771,2.446418-3.7172702-.4384429-.042798-1.0372652-.5894718-1.3396112-.2569941-.2868683.8899436-.5815115,2.0415359-.0560308,2.8781158,1.1950803.1511112,1.7758298-2.0445635.1170046-1.8249919,3.6225605-1.35236,1.4184518,5.1309027-1.1677806,2.9211404Z" fill="#423b30" stroke-width="0"/>
      <path d="m42.5879129,32.5456468c-1.0512909-.5949297-.7725065-2.6345708.4930011-2.6890672-.2455841.2471081-.5224943.5285289-.5168099.893795.048606.3146005.1576195,1.0329607.5319066.9844988.4981913-.4378868.9407122-1.1578329.820577-1.8308823.7429515.8424909.0133667,3.1982566-1.3286748,2.6416557Z" fill="#423b30" stroke-width="0"/>
      <path d="m9.1933825,40.8178588c-.4323466-.9727798-.5140706-2.3383623.4772145-2.9868616-.0229746.1350877-.1678247.3575633-.1725823.5243067-.060737.5060589.1240381.9975359.3437023,1.4181841.8562592-1.32989,3.5088101-.8152221,3.5381076.8543953-.2020858,2.3650956-3.4816957,2.1450091-4.1864421.1899755Zm2.104178.090539c2.0067806-.2758805-.5449643-1.7962608-1.3954155-1.0282236.3393875.5329364.769067.9745922,1.3954155,1.0282236Z" fill="#423b30" stroke-width="0"/>
      <path d="m51.8121853,38.9996841c-1.699543-.0224906-2.0440692-4.1765149-.4430358-4.0201929-.9582392.5766818.1650752,3.7945456,1.4328689,2.6038007.86562-.6114063-.0775843-1.0754498-.691977-1.132809,2.8295922-.9605665,1.942429,2.8897731-.2978561,2.5492013Z" fill="#423b30" stroke-width="0"/>
      <path d="m59.1776681,35.3747241c-1.1675747-.9270984.1738284-5.3761778,1.8480592-3.7249525.34535.6722462.1476305,1.6397535.0737947,2.3673817-.2886704-.5176955-.4540339-1.1697784-.6908236-1.6904397-.393297.6370686-.612539,1.3637495-.7244977,2.0966914.152038-.2156378.2836245-.5117433.4319964-.691009.0000206.4509858-.0896534,2.1094608-.938529,1.642328Z" fill="#423b30" stroke-width="0"/>
    </g>
  </g>
</svg>