<?xml version="1.0" encoding="UTF-8"?>
<svg id="Layer_2" data-name="Layer 2" xmlns="http://www.w3.org/2000/svg" viewBox="0 0 149.0767225 157.6470956">
  <g id="Layer_1-2" data-name="Layer 1">
    <g>
      <path d="m21.4146083,95.7526975c-3.3486695-.1882787-6.7770787-.9753404-9.4691082-3.0681297-2.39868-1.8387432-6.1773019-6.0191343-3.1493899-8.8024708,2.5575929-1.8016758,5.792536-2.4656697,8.8457394-2.8923327.465708-.1065117,5.7656944-.4307971,3.5997243.6028227.0831582-.1147053.4746022-.1642942.4263351-.4155577-2.4863798-.6030761-11.4987834,1.9950078-12.5147192,4.4235057-.316852,3.1937813,4.68421,6.517249,7.4059828,7.2141762,6.2955698,1.5521812,12.8232335.2667464,19.1975592-.0094408,3.6739685-.2278107,7.0246653-1.2139036,10.1237408-3.0541574-3.3026582,3.270341-7.6886791,4.6580938-12.2010671,5.2663773-4.0582375.5795239-8.1631322.9200076-12.2647972.7352071Z" fill="#423b30" stroke-width="0"/>
      <path d="m53.8607621,74.3671961c-5.1441641-2.192126-6.4857665-8.4715273-5.6426763-13.5189185.2987655-1.9234517,1.1089223-3.739875,1.6523726-5.5745438-.0005565-.0007751-.0010733-.0015503-.0015701-.0023055-.0934536.117145-.0647537.0258975-.0099774-.0353383.1150978.0036571.0446399.240034.0407245.3129365-.097548.7457808-.2759685,1.4789805-.3915433,2.2208855-1.3045946,5.8964838.580458,12.0328227,4.3526701,16.597284Z" fill="#423b30" stroke-width="0"/>
      <path d="m56.5140943,72.7707874c5.011576-2.225591,5.1562284-7.4111951,5.7114647-12.2060906.1882389-1.5712018.1959108-3.1786761.5902566-4.7141422.0466274-.1346154.1396438-.3308839.2976922-.2874763.2486996.2090285.2976127.5925025.4553033.8752286-.1605129-.1490647-.3073118-.4748208-.4805449-.670036-.3749872,5.6252059,2.2747675,17.4084595-6.5741718,17.0025165Z" fill="#423b30" stroke-width="0"/>
      <path d="m56.9664362,58.1703596c-1.3595697.1447717-6.8394872-1.3367926-6.3320509-3.1291071.1780827-.2213313.4909993-.0788652.7021545.0000398-.1335222.0461107-.4319896-.1070682-.5573629.0815881-.0667015.4413906.4998836.6879635.8100177.8687095,3.8648906,1.7704914,8.2595374.7961448,12.1215063-.3144073-1.7333048,1.8293223-4.2685778,2.5917188-6.7442646,2.4931771Z" fill="#423b30" stroke-width="0"/>
      <path d="m58.9500306,55.3785362c-2.5804495-.4639093-5.2686828-.970312-7.8545782-.3320566.0884649.0258975.2564708.002544.3038734.0521528-.1679065.0127202-.333269.0305285-.5011755.0407046-.0680133.0064197-.1118184-.0970312-.0509006-.1348738,1.2917154-.7012402,2.8107247-.9345365,4.2663716-.9921152,2.4681541-.0572011,4.9323729.5009569,7.1589229,1.5620592-1.0637855.0537031-2.2351163-.0559291-3.3225136-.1958711Z" fill="#423b30" stroke-width="0"/>
      <path d="m54.843993,87.2583136c-.6659218-2.3592375-.3175874-4.8351678-.3690445-7.2505033.1115402-2.1901434-.2514623-4.5035684-.0227572-6.6322922.5653926,4.5163432,1.8646208,9.3764148.3994537,13.8885196-.00318,0-.0063601-.001908-.007652-.0057241Z" fill="#423b30" stroke-width="0"/>
      <path d="m56.2371519,88.2262605c-.6179627-2.1360777-.6994117-4.3630053-.5598871-6.568726.2027678-2.3923497.1526622-4.9479701,1.0559149-7.1970586.0534248-.0559738.0992175-.1475592.1908028-.1297509.0101762.002544.0050881.0178083-.0026633.0152046-.45902.4321138-.3273263,1.3063834-.4297834,1.8928189-.2546423,3.972242.1563391,8.0740263-.2543839,11.987512Z" fill="#423b30" stroke-width="0"/>
      <path d="m51.4477023,90.1445844c-2.5750633-1.307715-.5326977-4.1940056,1.7197299-4.271559.6533805-.0655686,1.3846523.0072147,1.9487331.3612733.0254404.0203523.3230928.2162432.2213313.2951084-.0405257.0287198-.1216169-.0056247-.0301111-.0190008.0004174-.0036968.0010335-.0075725.0015105-.0113885-1.2070467-.5718322-2.9209333.1803683-3.6400215,1.2516269-.8361339,1.5707447,1.8943742,1.6872338,2.7680326,2.3226471-.2896825.1235647-.6994117.1567565-1.0379675.2085714-.6580313.0759435-1.3162415.0922015-1.9512374-.1372787Z" fill="#423b30" stroke-width="0"/>
      <path d="m52.9697525,90.3421846c1.7736119.4785375,3.6552261.2195028,5.2972635-.6851214.7191479-.444352,1.790327-.8509807,1.8480449-1.7893929-.652983-1.339754-2.5312582-1.4232501-3.4640655-2.4810134-.0490721-.1065912.2026485-.0654692.0763013-.0356364h.002544c-.0007553.0003776-.0015304.0006758-.0022857.0010733,1.7434412.4021568,4.377077.1362849,5.0472919,2.2529444.6058587,4.0740781-6.404238,5.0057525-8.8050944,2.7371464Z" fill="#423b30" stroke-width="0"/>
      <path d="m93.9590145,74.226951c-6.2000989-1.3403453-6.5275642-8.5892834-5.7194347-13.7148641.2695885-1.3692887.2054509-3.0670962,1.0711195-4.207819.0000795.0025838.0026235.0025838.0026235.0025838.0059825.0019875.0056446.010196.001431.0136742.1434201,3.0500432.6843462,6.1267391.6265886,9.2118423-.1018211,3.4788328,1.1236499,6.7047177,4.017672,8.6945828Z" fill="#423b30" stroke-width="0"/>
      <path d="m94.2033216,75.9650507c7.4356666-2.4932169,6.2879079-10.0000767,6.7748726-16.3050973.0671785-1.1573187.1832304-2.3436751.2799833-3.4669872.0459119-.0452561.1248169-.0430499.1527417.0203324,1.3051312,3.2851282,1.4687646,6.956811,1.2843616,10.4507888.074592,5.2200082-2.9623136,9.4621121-8.4919591,9.3009632Z" fill="#423b30" stroke-width="0"/>
      <path d="m101.7582797,57.7728735c-3.8400664-2.265446-8.4945031-1.0005821-12.6387013-1.0888085,3.7893843-2.1837187,9.7696823-2.8154749,12.6387013,1.0888085Z" fill="#423b30" stroke-width="0"/>
      <path d="m93.7673172,59.6494394c-1.1582528.0127599-4.3836756-.9430828-4.2072426-2.1532897,3.2950658,1.76435,7.5093642.2585577,11.1219975.802485-2.1383236.6933895-4.5853304,1.5448472-6.9147549,1.3508047Z" fill="#423b30" stroke-width="0"/>
      <path d="m93.0516475,92.8588145c-.9927313-5.9196584-.3917222-12.2292702.9008478-18.0448615,1.6707572,5.9218994-.2354229,12.1391556-.9008478,18.0448615Z" fill="#423b30" stroke-width="0"/>
      <path d="m95.1879637,91.5164569c-.6408193-3.2126629-1.0210337-13.276579.7360419-15.5740044.007493,2.8021784.6124771,5.5785586.2666867,8.4100331-.2498524,2.3839027-.7070438,4.8244699-1.0027286,7.1639712Z" fill="#423b30" stroke-width="0"/>
      <path d="m88.228867,93.1497293c-.8166163-2.7871129,3.3982385-5.7014277,5.6173353-3.6734716-.4618423-.0214057-1.0257641-.1362452-1.508217.0434871-1.3371106.443875-3.6979182,2.7327341-1.7609116,3.7445457,1.6638008.7737056,3.4147748.591946,5.1694653.6538575-2.233884.8800185-6.2213257,2.1077554-7.517672-.7684187Z" fill="#423b30" stroke-width="0"/>
      <path d="m91.7399376,94.8684654c1.36271-.4616236,9.4275688-2.0464003,6.9653773-4.3046713-.9017223-.6222955-1.984767-1.094632-3.0696203-.9764336-.0032794.0066185-.0065787.0131972-.0098581.0197759.1050807.08447.022002.0686294-.0548558.0357755-.1129712-.3709724.7848953-.5234557,1.0227629-.5701229,7.6214211-.3683091,5.4213251,7.7103034-4.8538059,5.7956763Z" fill="#423b30" stroke-width="0"/>
      <path d="m63.1185163,54.3446432c-2.0550461-1.9939097-2.2145056-5.0182938-2.6485821-7.6855388-.1726567-2.0761139-.8656288-4.7086963-.2490772-6.6755756.0766789-.0513975.2850316.1962487.0581154.0814688-.0017093.0032794-.0033788.0065986-.0051278.0099774.5714545,1.8847545,1.3911515,3.7106185,1.7303433,5.6657515.6173665,2.8287715.05897,5.9196584,1.1143284,8.6039166Z" fill="#423b30" stroke-width="0"/>
      <path d="m63.5752109,82.988449c-.0101762,0-.0076321-.0127301,0-.0152692.0700008-.0116718.1399221-.0254851.2079751-.0394723.2628508-.1742666.2797249-.5445434.3289362-.8153244.1630768-4.5795268-.2210332-9.1832269-.4950738-13.7581177-.1163301-2.1297772-.5047729-4.2436343-.0469256-6.3067497.0838539-.1937444.064714-.2815932.2187873-.2594919.0476411.0629053.0711337.1681848-.0189213.0646742-.0017888.0023055-.0036173.0045316-.0054657.0067576.3979432,2.1211314,1.3472072,4.1084176,1.677957,6.2556304.7459745,3.8166334.3445333,7.7155306-.2872577,11.5195382-.2685997.8921474-.3242108,3.5172369-1.5800116,3.3478248Z" fill="#423b30" stroke-width="0"/>
      <path d="m76.0396853,84.8080672c-3.3933691-1.5006247-3.269223-5.5631552-3.0072119-8.7056136.1806267-2.9790735.5240718-5.9428728.8499273-8.9091863.7480664-8.6261571,1.2607298-17.4332191,4.7113397-25.4964879.5438825-1.8977728.215488,3.2088866.1603141,3.5719287-.4569132,4.5278113-1.4150416,8.9790629-2.1472476,13.4655931-.9071632,5.8064686-1.3022096,11.6782275-1.9308255,17.5182258-.2755114,2.8802088-.8395773,6.3245778,1.3637037,8.5555402Z" fill="#423b30" stroke-width="0"/>
      <path d="m65.6007223,86.0711423c-1.3578207-.7317687-3.3132716-2.0161501-3.1035475-3.7652756.2416836-.6410926.8853252-.4579219,1.3813928-.2747511-.1970636.1120718-.708296.0127003-.7800259.3386303,3.0785493,3.8480761,9.0028337,2.9431538,13.2484157,1.8900215-2.9963401,2.0751002-7.2291225,3.517212-10.7462351,1.8113749Z" fill="#423b30" stroke-width="0"/>
      <path d="m63.2109762,42.7997193c-1.137185-.7021545-2.0301423-1.6383605-2.9129235-2.6229032-.0063005-.0052471-.0126208-.010514-.0189213-.0157412-.0155425.0575191.0600035.1620433.0138332.1861918-.0788652-.1017615-.1729946-.1908028-.2061068-.3206482.1285733-.4197861.9599768.224889,1.24157.2999977,4.9227284,2.652259,10.5840726,2.8824746,15.8366017,1.1399874.8789651-.2449034,1.8131935-.5912503,2.6686909-.7657157-.9616464.7682995-2.0479506,1.3788686-3.1367939,1.9433867-4.1605207,2.3238992-9.39949,3.0293729-13.4859504.1554447Z" fill="#423b30" stroke-width="0"/>
      <path d="m73.5198753,41.5820592c-1.0798646-5.5250543,4.9963316-9.9353429,10.0847455-9.9804002.9939238-.0148866,2.0684023-.0322576,3.0147248.1121364-5.1142518.9967859-10.1215744,3.7786517-12.2671127,8.7221548.0324365-.0214852.075387-.1035702.1040124-.0852451-.1154208.4069268-.2837795,1.7263285-.93637,1.2313541Z" fill="#423b30" stroke-width="0"/>
      <path d="m81.5413662,35.6253731c-.3852826-.8722473-.5442254-1.9867347-.2721077-2.8925712.3400614.9051608.7298557,2.0211587,1.4842424,2.7207691,1.6187237,1.358079,3.4986485-1.2871242-.4971806-1.6497291,1.068491-.3052846,2.5618463-.5800407,3.34541.4604709.7021545.9311179.0483367,2.3379709-.9438381,2.7628054-1.2603721.5621529-2.512158-.1558223-3.116526-1.4017451Z" fill="#423b30" stroke-width="0"/>
      <path d="m86.706936,34.1477044c-.3180047-.6996104-.4604709-2.3608673.5927807-2.5617469-1.0508666,1.099243,1.3260003,4.0782718,2.2412378,2.2489296.5282456-1.456422-.9818198-2.3216931-2.1827449-2.5696175.4415893-.107903,1.05351-.1633352,1.5365393-.073797,4.681328,1.433466.425391,7.6530029-2.1878131,2.9562318Z" fill="#423b30" stroke-width="0"/>
      <path d="m82.5932614,31.0199091c3.1180415-1.8231212,8.4881877-4.5481039,11.8298413-2.2612125-1.9551926-.4842815-3.8560063.3550722-5.622324,1.0022317-1.9830379.7214733-4.1421112,1.1185618-6.2075173,1.2589808Z" fill="#423b30" stroke-width="0"/>
      <path d="m93.7229158,28.0008316c-1.4399851-1.5201422,1.0353241-2.4226993,2.2386541-2.3152137-.5405087.4183352-1.2796114.7317091-1.6005577,1.3271133.0924599.114124.3719066.1546298.4582846.1841247,2.1007394.0238106,3.8744506-.8246062,1.0074788-1.9920215.8853252.002544,2.3277948.0356165,2.518697,1.1652688.128772,1.9900141-3.3742888,2.7863576-4.6225568,1.6307284Z" fill="#423b30" stroke-width="0"/>
      <path d="m84.3415372,28.5259966c-1.3619945-1.2781008,2.2070126-4.3910692,3.1264836-2.8850186-.8873525-.491218-2.2536599,1.4199707-2.4110723,2.2045679.8033595.0411617,1.5009824-.6074487,2.0473543-1.1231331-.2505082,1.028805-1.6035986,2.6609842-2.7627656,1.8035838Z" fill="#423b30" stroke-width="0"/>
      <path d="m67.130663,41.3750778c-1.9097726-3.9345138-4.9066742-7.6093369-8.6852463-9.8507735-.2724903-.0188617-.4875212-.3494673-.2800429-.5824456,4.7091137-.6005718,8.9204506,6.2156016,8.9652893,10.4332191Z" fill="#423b30" stroke-width="0"/>
      <path d="m57.1331701,36.0161413c-1.8280304-.2924451-2.2592051-3.1926286-.2036224-3.4242354.5927609-.1170257,1.1677134.1831707,1.6612568.4681427-.2844155.0470647-.6937671-.0118457-.9871066.0609178-2.1943918.6295103-.091486,2.211405,1.2261866,1.4984781,1.3961204-.5406279.2115527-1.2831094-.3129564-1.9129774,3.42509.8612165,1.1207084,3.8595243-1.3837579,3.3096742Z" fill="#423b30" stroke-width="0"/>
      <path d="m69.2623085,41.4766009c-1.5720962-6.7734018-1.9487729-13.9622967-5.1316029-20.2462494-1.892009-3.7764455-6.4861044-10.7439495-5.6859448-14.7317092h.002703c-.0046906,0-.0087849-.0005764-.0126407-.0014111-.0066781.0116668-.0133363.0233336-.0201933.0350799,8.2478358,15.3690304,12.1158418,15.5200628,10.8476786,34.9442898Z" fill="#423b30" stroke-width="0"/>
      <path d="m71.2336994,39.1003302c-1.7923145-5.7668373.0393332-11.9376797,1.5446286-17.5767188.8622252-3.2578792,2.3461397-6.4741991,2.5035918-9.7844298,3.006079,6.4225034-4.6472022,18.8608021-4.0482203,27.3611485Z" fill="#423b30" stroke-width="0"/>
      <path d="m73.2072965,38.7629868c1.6661859-14.7639469,8.6224007-19.6659305,17.5027032-30.0986527.4630149-.5317039.93875-1.0532317,1.4399653-1.5518433-.3301287,1.1334683-.8151853,2.3042425-1.3076952,3.4140592-2.5802508,5.4845087-7.364513,9.4239714-10.9158658,14.2254655-3.0926012,4.2096872-4.6773778,9.3083568-6.7191074,14.0109713Z" fill="#423b30" stroke-width="0"/>
      <path d="m84.805049,26.4897327c1.7853582-2.2144658,3.9432986-4.2145766,6.6348312-5.2432623,1.3140751-.5677776,2.7492107-.6014265,4.0111132-1.1734177.8125618-.4171626,1.464551-1.0740809,2.2012686-1.6125027-.6067332,1.993214-2.2591852,3.4727112-4.2941374,3.9918937-2.9791281,1.0442481-5.8759725,2.4406865-8.5530756,4.0372889Z" fill="#423b30" stroke-width="0"/>
      <path d="m53.3482577,22.3279051c-2.7754858-1.1750474-4.9515128-3.3155374-7.4133863-4.9887194-1.3952856-1.035662-2.9922061-1.4968285-4.3782298-2.4474838-.0531465-.0447989-.0085464-.127977.0558893-.1117787,5.4655476-.0821844,8.4275234,3.928094,11.7357268,7.5479819Z" fill="#423b30" stroke-width="0"/>
      <path d="m48.4367936,32.7508685c-3.6026758-2.0340975-1.0766448-8.9009331,2.9305926-8.1459302-2.0142222.5722297-3.1272587,3.2458944-2.9127645,5.225295.4748208,3.0120814,3.2150876,2.0192904,5.0421839,1.0101023-1.1909278,1.4662404-3.1314921,3.1232836-5.0600121,1.9105328Z" fill="#423b30" stroke-width="0"/>
      <path d="m53.3140722,30.9251436c-.1526423-.1246579-.8166362-.8598848-.3281809-.9896308.2086111-.0534248.3485332.2391396.4375745.3816256-.0252615.0265733-.0988995-.0452958-.1407767-.056108,1.7212007.8974094,2.9429352-1.6797011,3.6616061-2.8618837.0949244,1.7758975-1.5009029,4.8451601-3.630223,3.5259969Z" fill="#423b30" stroke-width="0"/>
      <path d="m50.4759593,25.0210675c-.8446206-1.0506877.3383571-2.3812196,1.2542107-2.846699,1.1847267-.6610524,2.6575061-.1851185,3.6023578.620785-1.1065969-.2844552-2.3266818-.3365882-3.2716726.3560262-.5301139.3718867-1.2506133.8971113-1.0296596,1.6114493.4365808-.0549949.6815438.4404763.2079751.5891634-.2862838.0736777-.5951658-.119848-.7632114-.3307249Z" fill="#423b30" stroke-width="0"/>
      <path d="m56.9724982,25.8484562c.9672313-1.1754648,1.7254341-3.7917296-.6639343-3.475136-.2772405.0523317-.4885149.1076049-.6724409.3028598.1848999.0177685.4154335-.05579.5605827-.0153835-.2951084.198435-.6614499.5266159-.9668139.2009989-.3278033-.7302979.6871685-1.2702898,1.2796114-1.4044084,3.332809-.4801275,2.7962356,3.3947802.462995,4.3910692Z" fill="#423b30" stroke-width="0"/>
      <path d="m56.3106309,28.5038754c1.6145101-.3556486,2.9884298-1.1304671,3.0377404-2.9839976-.0877693-.4457035.1744654-.8221417.5722893-.9337017-.0621103.1760156-.2560733.3475196-.2073192.5416018,1.0144749,2.3400181-1.1489313,4.0995582-3.4027104,3.3760974Z" fill="#423b30" stroke-width="0"/>
      <path d="m59.4821917,26.4718449c.1134681-.8240099.2929221-2.0616645-.6719639-2.3939398-.0025838.0024248-.0051477.0047502-.0077315.0069564-.0159002.0271894.0158804.1203052-.0198952.1126333-.2264194-.3637974.3739736-.2722121.5571642-.1755187,1.0286857.5333536.6842866,1.7325694.1424264,2.4498688Z" fill="#423b30" stroke-width="0"/>
      <path d="m51.7837936,28.0807899c-.4095901-1.0099831.5876728-2.3074425,1.4093971-2.8060739.3256369-.198435,1.2338584-.6360095,1.3533885.0176691-.8129394-.4707464-1.5155311,1.4337244-1.6765012,2.0124136-.0017093.0802564-.0148071.1649848.009878.243055,1.0158463-.0486349,2.7147469-1.5323655,2.6850532-2.5791576.876282,1.6995565-2.396762,5.3944736-3.7812156,3.1120939Z" fill="#423b30" stroke-width="0"/>
      <path d="m72.9417626,13.6971568c-1.768961.1237635-4.0288022-1.4481936-2.1801809-3.1189906-.967922,1.9357744,1.7109103,2.3164261,3.0476035,1.8012385.7726323-.2792877,1.2865627-1.0194239,1.3401217-1.8130842-.1429183.3243251-.1061291-.3421129.1024422-.2018336,1.0100874,1.437143-.7243949,3.4116146-2.3099865,3.3326699Z" fill="#423b30" stroke-width="0"/>
      <path d="m67.2906194,10.9486418c-.5266159-.666538-.3968699-1.5137026.1500982-2.1039194.5952999-.6461857,1.737578-.4909993,2.5134698-.4045219-.6328493.3335075-1.8772814.4274779-1.984131,1.3492147.3888006,1.4617883,2.5366195.8725454,3.681064,1.0320645-1.1100353.680232-3.2932721,1.4633187-4.360501.1271621Z" fill="#423b30" stroke-width="0"/>
      <path d="m68.6582386,8.0168368c-1.3428546-2.2566015,3.8669179-4.6035759,5.5537989-3.3022011.3714246.198435.7072376.5317039,1.0201344.8115879-.3730196-.0736777-.8123829-.2564311-1.1946047-.3440811-.9816012-.5496116-7.1090757,2.4035594-3.9952129,2.9797045-.3408216.1138457-1.1041324.2601478-1.3841157-.1450102Z" fill="#423b30" stroke-width="0"/>
      <path d="m74.3014962,5.6879091c-.1882638-.203523.1806217-.5698645.3001915-.6512737,1.5160678-1.0349663,4.0467694-1.0336943,5.0626157.6307028-1.5093549-.8405859-3.5858414-.6305637-5.106083-.0558297.082403.0969914.2605453.1454673.3080472.236675-.2111601-.0127202-.4146832.002544-.5647715-.1602744Z" fill="#423b30" stroke-width="0"/>
      <path d="m78.1928557,9.977177c1.1837329-.1669525,3.0646316-2.1281077,1.8536298-3.2928398-.3133539-.2571665-1.0727095-.6929125-1.2915365-.1976797-.1231672-.2836006.1992101-.517036.4985122-.5546003,2.1919869-.3769151,2.8970233,2.3707453,1.1500642,3.4981516-.6053022.385223-1.5085996.9384519-2.2106696.5469682Z" fill="#423b30" stroke-width="0"/>
      <path d="m76.976423,11.8186233c-.5121417-.0328936-1.1182786-.1421084-1.5543625-.3357733,1.5135237-.2537479,3.1000146-.4863286,4.4672512-1.1754648.473847-.2505679.7184721-.7567917.8726895-1.2008058.4419869,2.0878801-2.1098075,2.9294995-3.7855782,2.7120439Z" fill="#423b30" stroke-width="0"/>
      <path d="m73.0006729,7.9789147c.1049763-.2750542.7062687-1.1061,1.0124675-.6742297-.382361-.0592284-.4817374.5812736-.4769624.8630251.22711.8490926,1.5047339.4624187,2.0607254.1935655-.3891186-.3699787-1.0381911-.4088746-1.4590704-.6291326.6512737-.0941294,1.8571527-.335813,2.2031419.4375745.4477507,1.007439-1.2491227,1.4399255-1.9105725,1.4526457-.8145493.0144493-1.8282292-.7407921-1.4297295-1.6434485Z" fill="#423b30" stroke-width="0"/>
      <path d="m88.9888586,8.8235751c-1.8560546.0840328-3.0306846-2.0756369-1.0277317-2.9814933-.5374479.5588138-.7131654,1.6723075.2796852,1.8876762,1.1118042.2275125,2.2793587.217555,3.3950783.0443219.2053118-.0580557.5125442-.0917642.5686521-.2910538-.0996547,1.0548814-2.3319288,1.3504469-3.2156839,1.340549Z" fill="#423b30" stroke-width="0"/>
      <path d="m88.2694325,5.9649509c-.4884553-.2951084-.4859113-1.007439-.2213512-1.4501017,1.1217816-1.8737436,3.9843809-2.6724722,5.6782928-1.121881-.148548.0153636-.3798765-.0881668-.5394156-.1068098-1.101807-.6667765-6.7609599,2.1638037-3.564078,2.5847029-.3483941.1666345-.9562005.3287175-1.3534481.0940897Z" fill="#423b30" stroke-width="0"/>
      <path d="m93.2580525,4.3441601c-.735227-.0890413-.3409011-.9896308-.0942089-1.3355603,1.3317443-1.8227038,4.631123-1.5945354,4.2357636,1.147381-.5938142-2.0641887-2.608752-1.528629-3.847937-.3538002.2983083-.0157015.6672336-.1076844.9300645-.0533254-.3387347.189988-.7965224.6389113-1.2236823.5953049Z" fill="#423b30" stroke-width="0"/>
      <path d="m95.8015141,9.8319482c.9575123-.1040869,1.8694108-.9045446,2.198029-1.813919.1910612-.8086265-.0359147-1.5095685-.3628832-2.2161552-.0777522-.144076-.9644289-1.6170343-.374868-1.3633062.0096196.0331321-.0732603.018325-.1009864.0329334,1.0889476.9398034,2.3224483,2.1597293,1.8360004,3.7424389-.3082857,1.1798771-1.989557,2.1172756-3.1952918,1.6180082Z" fill="#423b30" stroke-width="0"/>
      <path d="m94.101739,13.1623921c-1.9288379-.106472-2.377006-2.536227-2.3329226-4.0271525.6006116.9635345,1.0079558,2.4089854,2.152276,2.7933338,1.440164.3246232,2.7626663-.7893673,3.215664-2.0734705.3411396,1.7282763-1.2601932,3.4739236-3.0350175,3.3072891Z" fill="#423b30" stroke-width="0"/>
      <path d="m94.0043301,7.1502341c-1.2771071-.2747561-.8369885-2.4855251.4223302-1.8850924-.1098905.0618718-.3550722.0110308-.4647043.1447717-.3005145.3020051-.2175947.9187952.2332366,1.0087309.5743961.1393457,1.1953004-.5006587.7167628-.9766323-.0883457-.1275994-.2828255-.2238356-.3403843-.3295125,1.7866699.2826068.9134289,2.3689168-.567241,2.0377347Z" fill="#423b30" stroke-width="0"/>
      <path d="m81.530097,19.8591547c-.8441188-2.1192234.1215722-8.0785927,3.2334325-7.453932,1.2658775.5089666.9965474,2.1952464.5317834,3.1928869-.4803263,1.071199-1.5693733,2.5265875-2.6254075,2.8568752.6751241-1.3049722,1.4794376-2.6924071,1.4451925-4.1932504-1.4642529,1.5142591-2.377165,3.5509802-2.585001,5.5974202Z" fill="#423b30" stroke-width="0"/>
      <path d="m86.8793343,17.5411386c1.4656044-.8344643,2.8768896-1.5480074,4.1320345-2.6212535-1.1288572.1959108-2.3988092.3282803-3.2912697,1.0663494-.0075725.0313433-.0155226.0628457-.0230752.0949244.0122034.118576.1908625.2004622.1999654.28211-.7878965-.0884649-.3819436-.9448915.0305682-1.2873826,1.0112949-1.1213444,5.413693-3.0716675,5.0499949-.1548882-1.0365166,2.0103267-4.1073096,2.3318096-6.0982181,2.6201405Z" fill="#423b30" stroke-width="0"/>
      <path d="m96.7195739,20.7553518c-1.2703296-1.169542-.157949-3.3217782.7456218-4.4037496.1042062-.1721201.9783217-1.0106191,1.0048354-.3510772-.0316216.014032-.0361929-.0948648-.0901941-.0942288-.4580063.3010114-.4842417.9631171-.6548513,1.4381964,4.4948381-1.2585833,1.8858278,4.9471999-1.0054118,3.4108593Zm.8316222-1.1467251c.199548-.0188219.4892901-.1809646.5982266-.2372514,1.5397989-.9677481,1.2008654-1.6370686-.4777028-1.8137202-.1259895.6879635-.3924775,1.3788686-.1478126,2.0456848.0001988.0000994.0003776.0001789.0005565.0002783.0089041.0016695.0177884.0033589.0267323.0050086Z" fill="#423b30" stroke-width="0"/>
      <path d="m90.1783752,21.8875878c-.3292542-.9468989,1.1949426-2.5784421,2.0861509-2.6425598-.1735312-.136265-.4239798-.2546622-.5545407-.3896949,3.7452612.0380811-.1981965,5.147523-1.5316103,3.0322548Zm1.2232848-.8122835c.4871833-.3415172,1.7101302-1.1280423,1.0235778-1.7126742.1312167.3065963-.2862639.5210508-.4617826.7248521-.2106781.3147055-.400209.6451919-.5617951.9878221Z" fill="#423b30" stroke-width="0"/>
      <path d="m69.2882209,18.1295269c-1.3160378-.3769549-.465554-3.6138258.4909447-2.9816324-.5365485.0358153-.4443719.8294756-.4479345,1.2227879.0551987,1.0683767.4569927,1.1637185.9127382.2130831.2714966-.5503271-.206082-.939863-.5895013-1.1838919,2.0038076-.1399817,1.3235358,3.1917143-.3662471,2.7296534Z" fill="#423b30" stroke-width="0"/>
      <path d="m69.2465474,24.6834061c-.5571443-.404502-.6996104-1.2440346-.470647-1.8698679.1271969-.3459892.3638024-.0712331.4452116.1094334-.0498323.0194579-.1261535-.0978063-.1948624-.1050012-.0346029.3686271.1845421.7490403.3551318,1.0411476.2400538.3703563.6726595.2003827.9004901-.0661251.5165192-.4530574.2218481-1.0182711-.1297261-1.4576344,1.7408623.4786965.6219577,3.1658565-.905598,2.3480477Z" fill="#423b30" stroke-width="0"/>
      <path d="m61.0646628,24.0854577c-.2937966-.591787-.369601-2.0932464.2822888-2.3302394-.3020648.6455695.5006389,2.7333104,1.3667645,2.3511085,1.3929403-1.0169196.5331747-1.6420374-.8019086-1.3768016.5902168-.3816057,1.6994174-.93875,2.1929806-.0687685.9474952,2.0180383-2.0966252,3.8127179-3.0401254,1.424701Z" fill="#423b30" stroke-width="0"/>
      <path d="m64.7191535,31.2252408c-1.0635271-.3005542-.6361685-2.9765443.3891782-1.722115-.3217016-.0997541-.5397932-.1823161-.4935632.3056026.0391146.2671637.1028745.5835586.362903.6961521.5952651-.0146282.7232273-.8986417.3485928-1.250017-.1264814-.166396-.3783859-.2762865-.4901646-.4005667.6894343.0712331,1.4297494.5088076,1.3127236,1.3228998-.0843508.6347375-.7511073,1.4003737-1.4296699,1.0480443Z" fill="#423b30" stroke-width="0"/>
      <path d="m52.5084866,8.8046134c-.4212768-.8598246-.1274603-1.6175107.5061841-2.2362684-1.1433861,3.4652978,3.8747487,2.2594834,4.5985077.1403792-.0668207-.1209014.0273087-.9921152.4158906-.7661331.4324865.3612534.2213313,1.3508848.0253211,1.768107-.8026837,2.0886148-4.2273564,3.2721291-5.5459035,1.0939152Z" fill="#423b30" stroke-width="0"/>
      <path d="m52.0665395,7.1726136c-.5215278-.1729946-1.0557758-.465559-1.1805131-1.0633483-.4064101-2.9054504,3.4170207-3.6119178,5.5969432-3.1444707-1.5249123.4633528-3.4448461.9783019-4.2415076,2.5285949-.260744.7614027.8105544.7235204,1.2724364.5485781.5042562-.161129.8541409-.6005917,1.2670502-.8333712-.369919,1.1318187-1.4075089,2.2482936-2.714409,1.9640172Z" fill="#423b30" stroke-width="0"/>
      <path d="m55.0539556,4.1540132c-2.0283337-2.1171365,3.2474248-6.2199543,4.7015015-2.9077559-.7610251-.5977893-1.7019217-.7582426-2.5208833-.108062-.7491397.6259327-1.8611029,1.4396274-1.7619649,2.5097332.0080892.0064197.016099.0128196.0241286.0192194.3510176.0263149.7093096-.2423594,1.0151109-.2790094-.354138.4293462-.8262956,1.0842968-1.4578928.7658747Z" fill="#423b30" stroke-width="0"/>
      <path d="m60.4952157,4.9830714c.4895087-.6302457,2.9893043-2.6795279,1.4015463-3.0986383-.8213665-.0981045-1.772002-.0537826-2.4450391.4308567.1951555.0335694.4597355-.0174306.6209838.034742-.2951084.1628184-.9947189.6232893-1.1525685.0507615.0253609-1.5762104,3.4197635-2.3731502,4.3784285-1.2236227,1.3088082,1.8406115-1.3380646,3.3679883-2.803351,3.8059007Z" fill="#423b30" stroke-width="0"/>
      <path d="m60.2855114,7.6942011c-.9216573-.0591489-1.9250418-.4237612-2.6430965-.9489858.8808135.1811236,5.5454264.4061914,3.9637901-1.3202762-.7279725.076182-.1604334-.5859238.2947705-.3309038,2.0202643,1.095109.0387767,2.9047349-1.6154641,2.6001658Z" fill="#423b30" stroke-width="0"/>
      <path d="m57.0017745,5.265082c-2.0306591-.8382605.7962839-3.4911953,1.8165226-1.1520716.3223574-.1441158.8071159-.2418227.8879885-.5956825.0275074.9871861-1.8043987,1.9544969-2.7045111,1.7477541Zm.5623119-.847264c.3964724-.0255795.7822321-.1403991,1.1533436-.2666867-.2102409-.1265261-.4230457-.2730667-.6501011-.3606571-.3788232-.1141041-.763748.2056298-.8644164.5493532.1170854.0853445.2787709.0663437.4171427.0729026l-.0559688.0050881Z" fill="#423b30" stroke-width="0"/>
      <path d="m36.1849848,21.0194945c-.6207453-.0559688-1.1066565-.2544038-1.3406683-.839612.1833099.1351123.4222109.3232717.7035259.3195948,2.4051295.1291298,6.1050154-3.3086407,5.5843423-5.6852492-.0190207-.0059825-.0377233-.0119252-.0559887-.0178878-.0732206.009878-.0935133.1059155-.0422748.1454872-.2175152.0108917-.0974883-.4203625.198435-.3409408.4146782.0585129.5495122.666538.6182807.9870867.3739338,2.9990034-2.716973,5.8358443-5.6656521,5.4315211Z" fill="#423b30" stroke-width="0"/>
      <path d="m32.0489157,19.8153496c-1.1857205-1.9388551.7754347-4.4244796,2.8366819-4.4139655-1.1260747.6560637-2.0708271,1.8428176-1.8240951,3.1723756.0349606.2831037.1534572.7102437.511292.6079853.6311599-.0624283,1.1754449-.3727016,1.6281446-.7555793.3709724-.2870788.5928404-.7220894.9286136-1.0354036.0310253-.0455741.1667935-.0095799.1526224.0305285-.0269907-.0008149-.053067.0001193-.0770168.0080694-.1920351,1.8065651-2.528575,4.2000279-4.1562426,2.3859896Z" fill="#423b30" stroke-width="0"/>
      <path d="m34.1387833,14.7540059c-.9209418-.7250508-.9056775-2.1878727-.6817823-3.2154851.5596884-2.5648474,3.5749498-3.1094703,5.4595453-1.5518632-1.7106867-.3814864-3.6835683-.0540608-4.1698572,1.8977331-.1847608.7858096-.5692484,2.2148633.3730593,2.5658014.3810691-.0183648.6762769-.1522845,1.0288447.0621501-.0907307.0544186-.3147651.0074135-.4248742.1042857-.5017519.4040648-1.0520193.5623914-1.5849357.1373781Z" fill="#423b30" stroke-width="0"/>
      <path d="m40.9148881,16.3074392c.9583669-1.0285665,2.5718833-2.8187146,1.5112977-4.2148548-2.7280634,2.5910629-4.7653409-2.1439681-1.0981897-2.5484106.3280815-1.1139706-3.2703807-1.0283876-3.6792752-.2886291.06056.2425581.3510574.3999705.4395819.5952651-4.1021221-1.4156578,6.5976445-5.4344627,5.431064.4456439,2.3571108,2.1413844-.2905768,5.2808465-2.6044788,6.0109854Z" fill="#423b30" stroke-width="0"/>
      <path d="m36.260988,14.5256188c.2391396-.6156572.6360095-1.0964804,1.2338584-1.3890447.5078536-.2480636,1.0286062-.0892003,1.506786.1319123,1.4316971-.4098286,1.6062221,1.4510159.9634351,2.3484054-1.1297317,2.2514736-4.4568366,1.6492323-3.7040796-1.091273Zm1.5414684,1.0528143c.6204074-.0438052,1.0832633-.5440465,1.3943912-1.0120501.6366853-1.0703444-.9796733-.6427671-1.5484446-.5877523-.2856676.4458029-.5743166,1.4775296.1540534,1.5998024Zm-.1084992-1.6652716c.2718146-.1722592.6186782-.3870714.7632114-.5031431-.3161961.0603017-.5816307.2429159-.7632114.5031431Z" fill="#423b30" stroke-width="0"/>
      <path d="m55.0229899,18.2147124c-.5749526-.2874763-.7326829-1.1092006-.7911958-1.673977-.0379419-.3567218-.0616532-.8959585.0690865-1.3138565-.8709554.3398676.0625873-.2728878.3283598-.4734693,2.2577145-1.6435479,3.7147129,1.9680121,1.8209548,3.3239248-.4284915.3393111-.9509137.3757425-1.4272053.1373781Zm.4976377-.9756187c.7439324-.404502,1.0401935-1.8968188.0696828-2.1866007-.3308641-.0796801-.6669553.0077514-.9876631.0914462.1683239.7142585.331679,1.6053079.9170263,2.0948762.0003578.0000596.0006559.000159.000954.0002783Z" fill="#423b30" stroke-width="0"/>
      <path d="m51.3832864,15.0072967c-.2849323-.5825847-.404502-1.4933503.0305285-2.0377744.1551863-.1933469.2874763.0381606.3485332.1602943-.0342451.0267521-.1143028-.0776727-.1702915-.0804751-.1787584,1.3458557,1.0114539,2.8971226,1.9459903,1.1184028.0547167-.1126333.041917-.3196345.0966138-.3969097.595921,1.3633062-1.4847443,2.7077111-2.2513743,1.2364621Z" fill="#423b30" stroke-width="0"/>
      <path d="m42.6006114,24.8068515c-1.4542357-3.1725545,4.2183728-7.0456139,6.9656555-6.0089382.4760134.6271054-.5606424.7722745-.9973026.7835836.0207697-.0730417.1837471-.1293683.2551789-.2011778-1.8211735.9261888-4.1329487,2.3261252-4.5287255,4.4655221,1.7434014-.1749622,3.3424883-1.1167929,5.0266017-1.3740588-1.8874774,1.0746374-4.6246437,4.8412248-6.721408,2.3350691Z" fill="#423b30" stroke-width="0"/>
      <path d="m65.9594118,22.2648209c-1.0341713-2.4875524-1.5323854-5.6779152-.2720332-8.1637583.5135777-.8725653,1.8219486-.6499421,2.2006922.2263399.6372616,1.433307.122238,3.0729793-.094189,4.551284-.3041517-1.1661035-.4274381-2.492561-.9726772-3.6175425-.4945769,2.1315858-.4730321,4.3704983-.6530277,6.5355541.1101936.1347148.0569874.705732-.2087651.4681229Z" fill="#423b30" stroke-width="0"/>
      <path d="m61.5341769,20.3718778c-6.3360658-4.7784189-.4982141-7.5345462,1.3770401-1.9680519-.71881-.5227799-1.8066049-1.8889482-3.0207669-1.8600495.1102681,1.3778748,1.1715295,2.5880022,1.6437268,3.8281014Z" fill="#423b30" stroke-width="0"/>
      <path d="m77.975738,37.1166564c.4055753-.3559069.8261167-.7161467,1.1756785-1.0789901.1494523-.1723586.3238133-.3486922.3843882-.5738992-.0204467-.0063601-.0410127-.0126606-.0451318-.0163176-1.139411-.0464486-2.5023148-.1541926-3.4740429.4777226-.2911333-.202569.7837426-.8843116.9084203-.9302434.8446206-.4757351,2.0886552-.7530352,3.0197979-.4122534,1.6282986,1.1213642-.9158189,2.4399908-1.9691103,2.5339811Z" fill="#423b30" stroke-width="0"/>
      <path d="m60.4464218,37.9747524c.3423719-1.0127855,1.2581858-1.9684693,2.4066599-1.7681064-.1257311.1134879-.3672955.1664159-.5152273.2914911,2.2951993.0732007,1.220224,3.2015526-.4387869,3.4939778-1.1447575.2319646-1.852-.9328868-1.4526457-2.0173625Zm1.1494878.7909971c.1118582-.0048297.2706618-.0964349.3515145-.1300242.8362929-.486587,1.3265171-1.5928659.0901941-1.8599303-.3271673.4085367-.8978665,1.6116083-.4417086,1.9899545Z" fill="#423b30" stroke-width="0"/>
      <path d="m65.3192136,34.5775474c-.6195378-.6374405-.1110333-2.101594.7911511-2.0072261-.5030636.2572062-.6084623.9691393-.4163278,1.4515923.2459369.627006,1.2634925.6878244,1.2813355-.060083.4204818,1.0377886-1.1273219,1.3490556-1.6561588.6157168Z" fill="#423b30" stroke-width="0"/>
      <path d="m77.4125913,22.3286604c-1.080441-.1168469-.6850617-2.4560501.3052647-1.8620768-.2300566-.01753-.3547591.0391543-.402758.3049069-.0560831.2805994-.0813893.9780832.3524139.8252621.443716-.2486598,1.2592193-.9414928.6997297-1.4175459-.0496087-.0577179-.1893122-.0910686-.1991107-.1477331,1.5887319.1257113.3969246,2.5586662-.7555395,2.2971868Z" fill="#423b30" stroke-width="0"/>
      <path d="m72.7397153,31.9676228c.3159725-.6093369.6962316.4348317.76583.7225465-.0133363.0303496-.0534596-.0291968-.0764801-.0387767.1298652.276684.418057.248322.58493.0709946.3634546-.2815137.4828107-.7299004.3947035-1.1262536,1.1665259,1.9222791-1.8981902,2.8686612-1.6689833.3714892Z" fill="#423b30" stroke-width="0"/>
      <path d="m80.610626,26.5678426c-.7153467-1.0976331.674016-3.3840277,1.7197101-1.8723325-.7971982-.4029915-.9982368.1046236-1.1168327.7936604-.1169264,1.0172773.8223007,1.2684216,1.4984135.6716459.1886613-.1297658.2565801-.3859186.2875011-.5597082.5210707,1.2998444-1.7656617,2.1901981-2.3887921.9667344Z" fill="#423b30" stroke-width="0"/>
      <path d="m94.3268267,16.426373c.049092-.6117815.5508637-.6226533.6487098-.0152642-.0965542-.0162779-.1926711-.1847011-.2938364-.2319646-.0877892.1476536-.1030534.5861424.1590223.3947234.0968523-.0565055.1542721-.2083527.2289237-.2391594.0123823.5882293-.7690746.7783365-.7428193.0916649Z" fill="#423b30" stroke-width="0"/>
      <path d="m48.16482,13.2317569c-1.0681581-.7009818-.0992572-3.6707288,1.1142688-3.4573079-.558476.1883781-.5270134,1.0041397-.6196919,1.5021551.4047803-.4788158.9056179-.8528092,1.492436-.6677503,1.76276.7456019-.6868306,3.6543913-1.9870129,2.6229032Zm.6242036-.9717231c.3911061-.1183375.7207578-.4544884.906393-.8112897-.4110808.0313831-.7013992.2417234-1.0371526.4232246.0175499.131336.0329334.2755909.10679.3880453.0079899,0,.0159599,0,.0239696.0000199Z" fill="#423b30" stroke-width="0"/>
      <path d="m62.1171393,12.5345514c-.100251-.9202262-.0565055-1.9854229.3384564-2.8289504.3892378-.6105691,1.205874-.470647,1.3610603.2620359.1882588.8980454.1119377,1.8520597.0584731,2.7653892-.294532-.588587-.5016127-1.3390186-.7427001-1.9907495-.1726567.9010068-.8119059,2.0649042-.4046014,2.9066032-.4046213.1598769-.5743166-.8835762-.6106884-1.1143284Z" fill="#423b30" stroke-width="0"/>
      <path d="m50.8511055,37.2571747c-1.9506411-1.0591943-.1951754-4.221195,1.6434883-4.1620462.4401186.0559688.6156572.3866938.7428193.7735267-.2926836-.2772604-.730278-.4716607-1.068496-.081449-.4702893.3361509-1.592369,2.5655828-.3262927,2.1616969,1.1282411-.7370555,1.8575452-1.4526059-.045097-1.4265693.3841497-.1577304.9514702-.4782791,1.378968-.3537008,1.7394462.7744608-.9297863,3.9643267-2.3253899,3.0885416Z" fill="#423b30" stroke-width="0"/>
      <path d="m54.8441719,39.1112617c.1549279-.7155902.7379101-.3706942.9514901.1119377-.1379942-.0087253-.3086435-.1718617-.4750395-.1972822-.0003379.0000398-.0006956.0000795-.0010534.0001193.1089365,1.296247,1.6488348.6258333,1.5460397-.3336069-.2408886-.5379249-1.0346483-.3720656-1.4617287-.5225017.6843462-.2416836,1.6587128-.5520562,2.1243115.2263598.9724585,2.0802281-2.7965338,3.4139996-2.6840197.7149741Z" fill="#423b30" stroke-width="0"/>
      <path d="m79.8717022,39.7849348c-.7558575-.6304047-.0584731-2.3604499.8778124-2.4321003.0163226.033788-.0983827.0770764-.1146159.1043652-.3186259.2470301-.7855363,1.9241871-.21436,1.8891072.3232121-.1801099.1683636-.5842542.097389-.8206709.7814768.5023084.220591,1.7627401-.6462254,1.2592988Z" fill="#423b30" stroke-width="0"/>
      <path d="m84.2318454,22.9975635c-.7861077-.9794546.1933469-2.4880692,1.0125271-3.1113585.0936126-.0725448.228069-.0695635.3183228.0046707.8134164-.6374008,2.2229725-.1196294,2.5412356.888386.459815,1.7084408-2.5992118,3.7101614-3.8720855,2.2183018Zm1.093678-.8915263c.6015457-.0891208,2.1532102-.7918716,1.3853281-1.4980806-.3073118-.2883707-.7337761-.3867534-1.1175879-.2557156-.1918562.3212842-.7825103,1.6539427-.2677401,1.7537962Z" fill="#423b30" stroke-width="0"/>
      <path d="m77.6646151,14.8926957c-.0992225-.2340515-.3459892-1.3890447.1043205-1.4246812.0971505-.0024844.122238.3436638.0127003.1249957.0000199.0021664.0001391.0023652-.0002385.0020869.0020869.126705.0366699.2296193.0684108.337721.6703789-.408497,1.4671099-.7196845,2.1044362-.0628258.5749526.5927609.1857148,1.539143-.4502997,1.8902004-.7355201.4227873-1.5396945-.1471169-1.8393295-.8674971Zm1.1504319.1170059c.4011481.0241087.7630623-.5152472.44467-.8217243-.3744854-.3635391-.9263826-.2334155-1.3893975-.1990511.1112619.3232518.3373633.6523867.5778544.8630649.108221.0794813.2306727.1479716.3668731.1577105Z" fill="#423b30" stroke-width="0"/>
      <path d="m114.0397622,58.9980862c-2.6261627-.1047031-10.9596362-1.6839345-11.5707817-3.9322877-.0007354.0009143-.0015503.0018882-.002385.0029018.001113.0073936.002226.0145686.0033192.0221411,3.7695488,1.3174937,8.0436121,1.1338459,12.0093102,1.6179485,3.3746664.1226703,6.555648-1.2480693,9.668199-2.371421-2.688591,2.5081631-6.259049,4.7995861-10.1076617,4.6607174Z" fill="#423b30" stroke-width="0"/>
      <path d="m109.2555398,77.8551318c-3.6184965-5.6508848-5.7766954-15.3045947-5.3394786-21.9704314,2.8694364,6.8385729,3.9174608,14.6882816,5.3394786,21.9704314Z" fill="#423b30" stroke-width="0"/>
      <path d="m121.2616302,77.7626918c.387767-3.6172245.6795761-7.2569876,1.3100206-10.852886.6093567-4.1845847,1.7655822-8.308212,3.1801071-12.2877035.3146856,1.7440772.1616458,3.6934662-.0432288,5.505338-.8791241,5.9593245-1.3707793,12.3684121-4.4468989,17.6352515Z" fill="#423b30" stroke-width="0"/>
      <path d="m114.2440207,79.1180529c-2.5720224-.4528437-5.2407183-1.6587177-6.5025611-4.0730098-.26458-.5037195-.0050881-.8802371.5113715-.7479273-.0534447.0672381-.2529529.0582147-.3054237.1764529,2.6502913,3.0450346,11.9871095,4.2674647,15.3025476,1.8690729-1.8427381,2.8970233-5.8946752,3.217095-9.0059343,2.7754113Z" fill="#423b30" stroke-width="0"/>
      <path d="m110.6684548,56.1165259c.3439619-2.5291315-1.3510034-3.2444236-3.5567241-2.7608974-.8833377.0158009-2.642063,1.4577139-1.2945178,1.9546559.149184-.009719.3155998-.1403792.432407-.1402202-.3180047.4299424-.7454031.6843462-1.2364025.3027405-.9234858-.7199628-.4095901-2.1980488.4044424-2.7729219,2.5667157-1.9853434,7.3822418-.0971107,5.250795,3.416643Z" fill="#423b30" stroke-width="0"/>
      <path d="m114.3920718,55.0453666c-.0108122-.5945695-.0919829-1.2156129-.4986513-1.6613164-.6602375-.7240372-2.9118304.1638321-3.0976048,1.0049149.0614345.1840055.3171104.2430153.4137043.3512164-1.8937779-.0656084-.2329186-2.0259884.7020949-2.3048785,1.951933-.9862122,3.4628133.7825302,2.4804569,2.6100637Z" fill="#423b30" stroke-width="0"/>
      <path d="m117.7781068,55.5344778c-.2638446-.3831758-.4877597-.8784086-.8624488-1.1474406-.5517382-.3411793-1.3472867-.4938813-1.9310838-.2302951.0337085.0489529.1751212.0709946.1858738.126069-.1272019.0076321-.333269.0407046-.3790617-.1272019-.0839533-.3154607.5088076-.5037195.691879-.567241,1.2843019-.4800878,2.4156436.7285688,2.2948415,1.9461096Z" fill="#423b30" stroke-width="0"/>
      <path d="m105.6798745,51.763975c-.659999-1.3094839-.5406876-3.0216215-.3813274-4.4596191.4727339-4.4034118,2.9360981-8.291795,6.1283689-11.1989546-2.436294,4.9595822-4.4329862,10.132327-5.6640422,15.4981205.0000994.0008745.0001789.0017292.0002783.0026037.0939307-.1582869.0290378.2848329-.0832775.1578496Z" fill="#423b30" stroke-width="0"/>
      <path d="m109.8889059,37.9661266c1.7320725-4.8237345,1.539302-10.0080467,2.5568774-14.9843639,1.5686976,4.8919466.907029,11.0336717-2.5568774,14.9843639Z" fill="#423b30" stroke-width="0"/>
      <path d="m115.0377208,27.0182367c-1.0178935-.2213313-2.4440255-.7471919-2.709321-1.8648395.0048297-.0407245.1039279-.0008149.0457927.0101762v-.002544c-.0010931.0010931-.0026832.0016695-.0043726.0021465,1.4921578,1.01366,4.3818669,1.6653312,5.8225676.3692631-.4938614,1.229784-1.9072335,1.7402611-3.1546667,1.4857977Z" fill="#423b30" stroke-width="0"/>
      <path d="m117.0794901,25.8939706c.9797528-1.1357142,1.6166566-2.1809759.0636805-3.098837-1.2121149-.8652512-3.1822139-1.0493362-4.1232297.2347074.0032198.0076122.0064396.0152444.0096594.0227373.0329532.0454946.1760753.0520932.1780429.0990187-1.0654352.0372861.3126185-1.6115686.7580438-1.7376177,3.1612256-1.9519728,7.7391425,2.8597571,3.1138031,4.4799913Z" fill="#423b30" stroke-width="0"/>
      <path d="m116.8501491,37.4965528c-1.2940011-2.8411936-.2155873-6.1174574.1769696-9.0656396.0825421-.487223.4810418-2.9084714.8892009-2.7056242.0153636.025818-.0424139.0131773-.0547167.020074-.0000199.0000398-.0000596.0000994-.0000795.0001391-.0001789.0000199-.0003379.0000398-.0005168.0000596-.0000596.0000199-.0001193.0000398-.0001789.0000795.0002186-.0000199.0004174-.0000199.0005764-.0000199.0401282,1.6141126.3144669,3.204991.1567167,4.831148-.1555043,2.3656373-1.3558729,4.5776187-1.1679718,6.9197834Z" fill="#423b30" stroke-width="0"/>
      <path d="m119.379221,53.5631863c-.0704182-2.8358471-1.0572863-5.211124-2.2005332-7.7161467-1.1304473-3.4271571-1.4989154-7.4322878-.2464934-10.8655863.0477603.0555912.0137537.2039404.0329334.2925842.327525,2.3296829.8423151,4.7473339,1.2852957,7.0016497,1.0905774,3.7751934,2.9629695,7.4231451,1.1287976,11.2874991Z" fill="#423b30" stroke-width="0"/>
      <path d="m124.4112685,56.5069364c.8863587-1.3901776-.4621007-2.9536679-1.5835842-3.730156-.7871611-.5574623-1.7262888-.7864854-2.4436677-1.3655323-.031721-.0681524.1654022-.073479.0648332-.0222802,1.3308499.1027155,2.9411067.1918761,3.8911459,1.2739668.9299254.9875439,1.5296625,3.0995128.0712728,3.8440017Z" fill="#423b30" stroke-width="0"/>
      <path d="m109.7286911,82.5729907c-2.6295415-.2631887-5.6429744-.5894765-7.54031-2.6407512-2.7658066-2.8617496-.6114834-6.9752205,2.9737419-7.598962,1.2949352-.2338329,2.668199.1586446,3.4726516,1.1728015-.9635345-.3422327-2.1109553-.4523419-3.0273058.0584781-1.647841.7436889-3.0451141,2.8148737-1.58424,4.3296247,3.4096072,2.9906011,8.1555299,3.4971877,12.5031517,3.740039-2.1742978.5719663-4.5078962,1.0934345-6.7976894.9387699Z" fill="#423b30" stroke-width="0"/>
      <path d="m120.9630834,83.5611904c-3.263325-.4409931-6.6447092-.5155851-9.8733717-.7657952,4.377713-1.0460369,9.2225352-1.3026717,13.5443987-1.9972686,1.5747993-.2288789,2.9771605-1.2833827,3.3310998-2.8182326.6598797-2.5147269-1.9763796-3.960933-3.74067-5.1267384-.1956922-.1189735-.7855115-.3351571-.7555793-.5495122.001749.0017242.0033987.0046508.0042732.0080296,5.1751894.3155998,9.3871226,4.4898296,5.6918279,9.3616027-1.9678134,2.4328556-5.3952686,2.2410192-8.2019785,1.8879147Z" fill="#423b30" stroke-width="0"/>
      <path d="m121.3509101,57.2663118c-.1816403-1.0864831.9998864-4.1921374-1.0158463-3.5462697-.6737924.1906637-1.4803717.4603119-1.7796937,1.1084453.0028024.0143897.0056048.0286999.0083874.0429903.1218952.1012448.3610546.0725051.4617031.1510125-.5393361.1755386-.8598848.1704505-.8803166-.4630547.2051131-1.1215431,1.3985451-1.7942623,2.4193006-2.073391,3.1463191-.460451,1.7379357,3.3178429.7864655,4.7802673Z" fill="#423b30" stroke-width="0"/>
      <path d="m44.937032,90.4964765c3.5127997-5.4728419-4.6800958-7.5711763-8.6998348-8.1175085-6.4322324-.7832656-12.7717763.7932032-19.1591402.3757425-.0783981.0158605-.1567763.031716-.2351645.0493106-.0240392.0198355-.0473827.0403667-.0711734.0604805.1545602.122889-.1008174.0429704-.0810614-.0153437.0788652-.1806317.1093936-.2365955.3256269-.340921,1.7692691-.8190212,3.6787982-1.2653806,5.5663551-1.7223336,4.7637509-1.042673,9.7369179-1.8659326,14.577288-.8825576,4.781261.5470626,14.0138134,5.6818853,7.7771043,10.5931307Z" fill="#423b30" stroke-width="0"/>
      <path d="m22.8447651,91.2158231c-2.2944738-.4357659-5.8349996-1.7370811-5.6628497-4.5716164.192214-1.0189071,1.1758226-1.5427404,2.1395061-1.6435479,1.2158017-.2555168,2.5815526.0766988,3.6582869.5596685-1.3430931.159698-2.7662736.2981493-3.8173787,1.1834149,4.3857128,3.785608,14.572826.9418307,20.0026577.7148349-5.1287806,1.9352775-10.6769498,4.5549609-16.3202224,3.757246Z" fill="#423b30" stroke-width="0"/>
      <path d="m22.9124802,78.9925951c-8.2894298-1.2479301-5.0536023-7.4897423.9207828-9.3622387,2.3046798-.7489608,5.217325-.6847835,7.1080024.9821378-.2382651-.0098383-.5317238-.1173835-.7950715-.1506349-2.1672123-.15938-4.4203256.4007655-6.273717,1.4968285-.9660189.6748061-4.4222039,2.6146301-2.9242723,3.8308442,2.7141208,2.0232903,6.2729219,2.2572176,9.5275217,2.3991073-2.40984.5926814-5.0365592,1.1765778-7.5632461.8039558Z" fill="#423b30" stroke-width="0"/>
      <path d="m40.6865806,77.7054708c1.7071489-1.4116827,5.6101802-3.8822219,5.6836989-6.1608104-5.4812889-3.0059995-12.4377223-2.4736546-18.3045323-1.0809478-.0064197.017525-.0128295.0347172-.0192393.0516708.0327545.0750044.1891532.0972697.1969145.1557279-.1443642-.0192492-.3147353.0115426-.3791412-.1298553.3328118-1.5193422,4.8403205-2.7183145,6.3043746-2.9816672,3.7429755-.8465286,12.366847-.398619,14.6741304,2.997155,1.312664,4.2778198-5.119002,6.1970381-8.1562057,7.1487269Z" fill="#423b30" stroke-width="0"/>
      <path d="m34.8360087,79.2146618c-1.1816063-.1219797-2.7229157-.7299799-3.0807505-1.9615527-.0101762-.1119426-.002544-.3739736.1857148-.3180047.0135152.0009341.0043129.0181064-.0050881.0152692-.009083.0059377-.0357358.016894-.0490324.0296092-.0061415.0174505-.0114482.034111-.0164369.0505578,2.7903128,2.6965511,8.801815-1.2628118,12.0937405-1.8328949-2.6602687,1.857744-5.6801213,4.1962913-9.1281475,4.0170161Z" fill="#423b30" stroke-width="0"/>
      <path d="m28.2322922,74.5648162c2.7185133-2.779764,9.7417476-4.4466753,12.9593594-1.8369693-4.129391-1.1039386-8.4752042,1.1439227-12.5776245,1.8471852.1825447.005426-.5197788.2997642-.3817349-.0102159Z" fill="#423b30" stroke-width="0"/>
      <path d="m96.7333873,106.0775763c18.8326984-2.5352134,32.8101003-5.5551653,48.3164293-17.44423-.1635538.095302.1190332-.2199202.1603141-.2695687.3022238-.1001317.1725573.3878863.0486349.5371299-4.2873599,6.7024669-11.4603943,11.3836955-18.7473141,14.3046486-9.4874332,3.6680655-19.7798358,3.5684108-29.7780641,2.8720201Z" fill="#423b30" stroke-width="0"/>
      <path d="m30.2761584,104.4872545c-10.454277-.9369612-22.4720739-4.0042959-27.5140492-14.203066-.6350654-1.4372225-2.4312854-5.0964236-1.1369664-6.3575112.3929048-.1570148.6136697.2571466.7988279.5342679-.1681351-.0252814-.353194-.228069-.5440564-.2329981-.008447.0062011-.016894.0124221-.0253708.018643-.089727.5394752.2813348,1.0395575.5071679,1.49818,2.0881285,3.4324638,4.8001823,6.5564232,7.9337017,8.8970176,5.8129877,4.8369715,12.9572923,7.4702893,19.9807452,9.8454668Z" fill="#423b30" stroke-width="0"/>
      <path d="m51.1825261,108.969909c-5.6922651-.5486973-11.4224921-1.4734949-16.8033113-3.4651586-2.8902855-1.0317465-5.6071492-2.5095146-8.3662876-3.792147,3.6680457.0980846,7.5569257,1.2608292,11.2664313,1.8919494,7.347619,1.2861305,14.7848756,2.1972538,22.1611349,3.0017462,8.9053454.8517161,17.8565232-.2341906,26.7709118.2240343-1.5299407.2751536-3.1937018.4108423-4.7768487.5761054-10.0434049,1.1056628-20.1414867,2.6885513-30.2520303,1.5634704Z" fill="#423b30" stroke-width="0"/>
      <path d="m84.2992028,109.0678942c-2.3783426-.0678344-4.7496991-.4764506-7.039378-.9083806,4.8802052-1.3830424,10.036533-1.4445366,15.0607298-1.9130569,3.1803257-.1998064,6.4204761-.7584413,9.5630587-.86225-5.5936439,2.14526-11.5340323,3.8987382-17.5844105,3.6836875Z" fill="#423b30" stroke-width="0"/>
      <path d="m.18639,86.1469467c-1.8603576-11.4814373,10.6041268-17.2995627,19.6169776-20.423855,7.0789149-2.349757,14.451388-4.5381067,21.9705506-4.4723989,1.0569683.1391271,4.0658299.0333706,3.8972675,1.4909851-.1450102.3180047-.3688855.4070461-.7199628.3970091-2.1983072-.2648185-4.2874792.3778095-6.4044169.8869749C25.4665453,68.2082192,2.3116754,69.1236357.18639,86.1469467Z" fill="#423b30" stroke-width="0"/>
      <path d="m88.31286,61.9077899c-3.9459222-.7087133-8.2140875.6991732-11.9976236-.7127083-.4172222-.2594919-.5113516-.9107656-.1679264-1.2696538.9578502-.8033197,2.435017-.1974611,3.5711933-.1291894,2.9507462.0238901,6.0628599.6070313,8.5943566,2.1115515Z" fill="#423b30" stroke-width="0"/>
      <path d="m145.7936893,80.7499092c-1.2924309-5.7414714-7.3263723-8.465202-12.1974299-10.7221661-3.1387069-1.0777728-6.1368557-2.9243319-9.404275-3.4772031-.0160592.0203921-.0320787.0406251-.0480783.0608631.0106532.1721747.1777647.3495021.1957915.4900006-1.6569439-1.0635669,1.0210536-1.4853008,1.8367954-1.3357591,5.7725613.3305858,11.6323951,2.3785165,15.7449319,6.5509773,2.3404355,2.1700445,4.4586651,5.1066991,3.8722643,8.4332872Z" fill="#423b30" stroke-width="0"/>
      <path d="m142.6156889,92.0497906c4.8026866-4.711777,3.8574374-6.8246999,2.2125777-12.7464651-.3226754-1.1773132,1.8339533,2.1177725,1.9954202,2.4609593,2.8814013,4.6957575.4199849,8.4409193-4.2079978,10.2855059Z" fill="#423b30" stroke-width="0"/>
      <path d="m2.3626854,150.812179c-1.0370234-3.0918807-.3382378-6.4564504-.4933247-9.6622563-.0363022-9.7595856-.2202084-19.5210793-.6081443-29.2718801-.1358377-3.4422822-.4487445-18.6860783,1.9165252-19.6096039-.0468361.049092-.0937717.0980647-.1409357.1470573.6269066,9.9970756,1.6084382,20.076097,1.4116728,30.1451012.2046857,9.4663853-1.5699497,18.9019638-2.0857932,28.2515817Z" fill="#423b30" stroke-width="0"/>
      <path d="m148.8114152,150.7980278c-1.6179287-3.4492186-1.7027962-7.3851634-2.0376552-11.1174858-.3027405-4.1009893-.4884553-8.2121547-.6182609-12.1681536-.67896-11.1267477-.1210604-22.3785706.913091-33.4209675,2.5926331,7.556886,2.0701115,15.5482658,1.6971516,23.3949337-.1684034,4.6255977-.2922464,9.2506985-.3079677,13.8802713.1019603,6.4613596-.5263376,13.046125.3536412,19.431402Z" fill="#423b30" stroke-width="0"/>
      <path d="m5.5297642,151.5164402c-1.3020108-.5832605-3.52231-3.5922214-1.4092977-4.3807738-.9605333,1.0006814.6452316,2.1849709,1.3457464,2.7981834,1.715894,1.5709037,3.0364286-.1860725,3.9863982-1.5441317-.1925916,1.9613142-1.7384525,4.2861276-3.922847,3.1267221Z" fill="#423b30" stroke-width="0"/>
      <path d="m12.7601985,153.6252887c-2.9545722-.9684437-3.005125-4.6991363-3.3784427-7.2861646-.4713327-4.5194438-.4993171-9.0787971-.6106685-13.6182553-.0827508-8.1656067-.7155902-16.6549224,1.9641365-24.5016101.1272019-.3281809.198435-.3587094.4426626-.5520562.0254404-.0203523.066145-.0127202.0839533.0152642.1144817.1577304.0941294.0941294.1297459.2136992,0,.0076321-.0101762.0127202-.0152642.0076321-.0328837-.0491914-.0892898-.0736579-.1401407-.1029143-.371191,1.5744614.0918537,3.3008297.0306378,4.8702427.2679588,6.1404332-.0394624,12.2928711-.1881296,18.4342981-.1011951,5.8022948.310313,11.5755716,1.1747195,17.290435.2265088.9159928.3459295,1.7926325.875636,2.5076265l-.0049688.0174505c.2405408.2801622.7855512.5962192,1.0710301.6691217,2.1566486.6135902,4.3230162.6140274,6.5356734.7455621-2.5087991.6980602-5.2993007,1.8847744-7.9705804,1.2896683Z" fill="#423b30" stroke-width="0"/>
      <path d="m26.6123363,154.1846193c-9.544197-.6520687-8.05352-10.6102682-7.0117165-17.4366377.8677853-6.1381277,1.7154369-12.4301697,3.0353056-18.454392.998197-5.0731496,1.0667469-5.2588445,1.4956857.1296863.2411569,6.7840351-1.1154712,13.4779754-2.1422787,20.1513846-.5529705,4.3045719-1.6034594,10.0813866,2.3530861,13.0847228,1.5280526,1.068655,3.2879405,1.9619701,5.1469267,1.3577213.2203177-.0178083.4803959-.1337607.666528-.1221138-1.0601185.688838-2.2251488,1.4531625-3.5435369,1.2896285Z" fill="#423b30" stroke-width="0"/>
      <path d="m35.4497181,156.5791951c-4.5652364-2.9433327-3.7310305-14.2488388-3.5050682-19.1923419.3006536-6.2385973,1.8053527-12.3488797,2.56922-18.5081348,1.194565-1.4408398,1.2501562,7.546849,1.149607,8.2557611-.1301434,8.2650428-3.4245335,19.9805167,1.23042,27.1898235.4256494.2389806.9114612.3002362,1.2808635.3391521,2.6263814.0659462,5.0994447-.3228543,7.7110388-.1955332-3.3187174.7149939-6.9758516,3.5569626-10.4360811,2.1112733Z" fill="#423b30" stroke-width="0"/>
      <path d="m53.6096774,154.8467847c-10.5460511-4.4141444-5.3024112-23.5467213-3.0704551-31.9940206.1505355-.2269163-.0975678-.9156152.2341509-.872605.3078286.0737771.3180047.6156572.3663415.8446206.200979.9438381.1704505,1.9614533.1752405,2.9258027.5196396,8.2192303-5.9514589,24.7391795,4.8543226,28.1343572,1.1914644.1741871,2.4731826.080654,3.6354303.1246181-1.9663426.7450454-4.1079854,1.5866449-6.1950307.837227Z" fill="#423b30" stroke-width="0"/>
      <path d="m59.067116,156.2159144c-.6699963-.1249759-3.5859408-4.4216573-2.0504747-3.8948427,1.3196005,1.6223012,3.2842338,2.7429897,5.3560745,2.6303365,3.8222183-.2332962,7.0866961-2.5400232,10.4932027-4.0625107,4.8156652-2.224165,10.5139525-3.5155028,15.6102569-1.4909056,2.2130746.9508143,4.1913225,2.2865933,6.3244387,3.3709497-2.168216-.2511443-4.3889823-.8155629-6.5280015-1.3855069-10.4658146-3.1106628-20.2943675,10.594527-29.2054966,4.8324797Z" fill="#423b30" stroke-width="0"/>
      <path d="m100.3222497,156.0240781c-3.6291497-.4688185-5.7546139-4.8234165-9.3576078-4.9269668-.0345433.0310055-.069007.0618519-.1034708.0926984-.0013714.0187623-.002385.0369283-.0026832.0549751.0018285.0345433.0809521.0712728.058334.0935331-.4782791-.1017615.1424661-.6309214.2951283-.6870095,3.5385979-1.0708412,6.5563238,2.4146101,9.8174625,2.981851,3.6754393.3502425,6.0097333-4.5884309,9.8554839-2.9767232-4.3988206.2988847-5.6634658,6.531261-10.562647,5.3676419Z" fill="#423b30" stroke-width="0"/>
      <path d="m113.730761,153.3692552c-8.8932811-1.6906723-5.2411357-16.5937462-4.7571523-23.0287512.7287278-4.7295256,1.3057673-9.5803502,2.7680723-14.1397234.2060671-.3790617.0966734-.267124.3637974-.4731513.0504634.0103948.0930363.0275273.1119575.0559291-.0026235.0223597-.052749-.0015105-.0806738-.0006161.1636532,6.1615209.5197191,12.4620496-.3213836,18.6585312-.0212864,3.8171303-1.4988756,11.5856285,1.1016082,14.4710049,4.838641,3.2195,10.6972425-.8783291,15.5263831-2.2568201-4.2724137,3.0619485-9.0037679,7.5840555-14.712609,6.713597Z" fill="#423b30" stroke-width="0"/>
      <path d="m128.8653822,154.8044503c-3.8603988-5.7088411-1.2025747-16.7175693-1.0181916-23.4735802.4347125-6.5268885,1.3700042-13.0899103,1.9347608-19.5793537-.1053788-.2453208-.1281559-.9927711.2775188-.653778,2.6814757,7.9029944,1.1671967,16.5885786.3631415,24.7204768-.2051329,5.3143364-3.9637305,19.2655625,4.7550853,18.7775445,2.3902231-.1367023,4.1648486-1.9252405,6.0393077-3.1141808-2.5857364,4.4825552-8.1052653,7.8903736-12.3516225,3.3228714Z" fill="#423b30" stroke-width="0"/>
      <path d="m141.6944689,153.0986331c-3.6912004-2.4381822-1.7323507-11.8272923-2.3175391-16.0402589.0117662-8.6838948-1.1344223-17.8419944.8499869-26.2657017,1.1597832,5.9763825,2.0876614,12.0295234,2.0500176,18.1451721.4109615,7.0713524-1.4386336,14.434494-.2440289,21.3444589,1.1688662,3.0823008,4.484821.4427819,6.3018604-.4452066-1.5494583,1.9046099-3.9471743,4.8034617-6.6402969,3.2615362Z" fill="#423b30" stroke-width="0"/>
    </g>
  </g>
</svg>