<?xml version="1.0" encoding="UTF-8"?>
<svg id="Layer_2" data-name="Layer 2" xmlns="http://www.w3.org/2000/svg" viewBox="0 0 47.9609927 154.1592921">
  <g id="Layer_1-2" data-name="Layer 1">
    <g>
      <g>
        <path d="m15.5698228,140.0299214c.0676204-.1729086.1511249-.3812159.2364446-.5940615.2042228-.5091955.4157069-1.0356366.6480671-1.558447l.0658051-.1479481c.2654897-.5976921.5396021-1.2158065.8904115-1.7808229.3694164-.5958768.8046379-1.1595318,1.2262445-1.7045798l.2155685-.2800122c.96847-1.2607355,1.0020533-1.288419,1.7917148-1.4781193l.1615629-.0390292.0594515.156117c.3381022,1.1472784.3027036,2.3226941.2682126,3.4590806-.0172455.5691009-.0349448,1.1577164-.0045383,1.7299941.0349448.6503362.1071035,1.309749.1769931,1.9478318.1279796,1.169516.248698,2.2745883.1615629,3.349708l-.0040845.0467443-.0263221.0385754c-.2396214.3453635-.4742508.6712123-.701165.9861693-.471074.6539668-.9158259,1.2716274-1.2920497,1.9160638-1.1223178,1.9210559-.9652932,3.9020172.4306832,5.4359575.2278219.2500595.4883194.4833273.7397404.7084263.1102803.0989346.2201068.1969616.3272103.2968038.1738163.0735202.3462711.1447713.5182721.2160224.3907463.1620168.7760467.3217644,1.1545396.4960345,1.4640507.6752968,3.0392893.7923845,4.9553531.3689626,1.0710352-.2364446,2.0131831-.7147798,2.8799955-1.4622353,1.4291059-1.2325981,2.0440435-2.8318897,1.8275673-4.7538533-.2105764-1.8720425-1.1776849-3.1205246-2.8740957-3.7105016-.5654703-.1965077-1.2026455-.4737969-1.6029222-1.2829731l-.0195146-.0394831.0013615-.0440214c.0167917-.4529208.031768-.9121952.0467443-1.3760079.060813-1.8783961.1238952-3.8203281.325395-5.7658908.0226914-.2178377.1624706-.4061765.2854581-.5722777.0490135-.066259.098027-.1311564.1366024-.1965077l.0585439-.0989346.1143648.0149763c1.5353017.2055843,2.9330934.7202258,4.2845946,1.2180756.452467.1670089.9035725.3331101,1.3587625.4874118l.0530979.029045,1.3142873,1.0578742c.7079724.9739159,1.1568088,1.9737,1.5911226,2.9408085.2024075.4511055.3939231.8772504.6099455,1.3002186,1.6065528,3.1491158,3.6347123,4.7538533,6.3830975,5.0506571,1.1127874-.1506711,2.0404128-.3875695,2.8155519-1.0519744.3158646-.2713894.4674433-.5368791.4855965-.8536514l-.2550516-.4129839c-.4692586-.2241913-.9507707-.1529402-1.5062567-.0712511-.6108531.0903119-1.3029416.1919694-2.0857957-.111188-1.3401555-.5568475-2.5151174-1.7971608-3.3115864-3.4935716-.4184299-.8922268-.8749813-1.8066912-1.3569471-2.7175249-1.3310789-2.5155712-3.288895-4.1253008-5.8194425-4.7847136-.5037496-.1316103-1.0251985-.2396214-1.529402-.3444558-.3812159-.07942-.7628857-.15884-1.1418324-.2482442l-.1352409-.031768c-.5464095-.1288873-1.1118798-.261859-1.6405899-.4774276-.2042228-.0835044-.328118-.2931732-.4474749-.4955807-.0494673-.0830506-.0993884-.1688242-.1565708-.245975l-.1266181-.1715472.1933309-.089858c.7810388-.362609,1.5480089-.4043612,2.2900185-.4452057.1738163-.0095304.3471788-.0190608.5205413-.0326757,2.7955834-.2191992,5.1795444-1.0546974,7.2875777-2.5536928,1.3056645-.9280792,2.145701-2.193353,2.5695768-3.8684339.5169106-2.0458588.0594515-3.5734454-1.3986994-4.6694412-.793746-.386208-1.6079143-.3812159-2.534632.0349448-.8881423.3993691-1.587492.907657-2.1379859,1.5534549l-.6603204.7719622c-.6916346.806907-1.4068683,1.6410438-2.0839804,2.4810803-.7837618.9725544-1.5670697,1.9088026-2.5341782,2.6739574-.3194952.2523286-.6993497.5141877-1.2239754.4592744l-.1307026-.0149763-.0217838-.1293411c-.4066303-2.4238979-.404815-2.960777.0190608-5.7459223l.0117995-.0748817.0626283-.0426599q2.712079-1.8488972,3.6297201-4.0903561c.2890887-1.0379057-.1175416-1.7191023-.510557-2.3780612-.1570247-.2632205-.3054266-.5123723-.4070841-.7796773l-.0154302-.0403907.0054459-.0426599c.0444752-.3603398.0943963-.7084263.142956-1.0483438.1021114-.7152337.198323-1.3905304.232814-2.0671887.2201068-4.2564573.1665551-8.7502668-.15884-13.3566259-.2768354-3.9160859-.5500401-8.0817775-.5831696-12.1698644-.0063536-.796469-.0099842-1.592938-.013161-2.3894069-.0104381-2.4071062-.0213299-4.8954478-.1161801-7.3388603-.0934887-2.4238979-.2332678-4.8872789-.3680549-7.2694245-.1184492-2.0953261-.2414367-4.262357-.3326563-6.3958047-.1497634-3.5094556-.2228298-6.6962392-.2237374-9.7423359-.0004538-2.1597697.0390292-4.3544842.0776047-6.47704.0353986-1.9637158.0721587-3.9941444.0771508-5.9905359.0054459-2.3394858-.0304065-4.7189085-.0658051-7.0202727-.0213299-1.4109527-.0431137-2.8219055-.0553671-4.233312-.0117995-1.3637546-.2119379-2.7846915-.6308216-4.4706643-.1089188-.4402136-.420699-.873166-.703888-1.2448515-.1311564-.1710933-.4111686-.4256911-.828237-.222376-.3204029.2977115-.4107148.7188643-.5060188,1.16407l-.0181531.0848659c-.1161801.5405097-.2373523,1.0805656-.3585245,1.6201677-.29635,1.3197332-.6026842,2.6839416-.8295985,4.0358966-.0889504.5282563-.1801699,1.0569665-.2718433,1.5852229-.5209951,3.0143287-1.0601433,6.1316765-1.0828347,9.2576471-.0095304,1.246213-.1002961,2.5101253-.1883388,3.7327392-.0272297.3789468-.0544594.7583474-.07942,1.1372942-.0562747.857282-.1225337,1.7141102-.1883388,2.5709383-.1193569,1.5443783-.2423444,3.1414007-.3031574,4.7130087-.1220799,3.1581924-.3653319,6.257387-.6249218,9.4187562-.0857736,1.045167-.1883388,2.0894263-.2909041,3.1332318-.1620168,1.6546586-.3299333,3.365592-.4252373,5.0511109-.0825968,1.465866-.2632205,2.9376317-.4374907,4.3608378l-.0971193.7955613c-.0481058.3998229-.1107341.7987381-.1738163,1.1971995-.0939425.5931538-.190608,1.2067299-.232814,1.8103218-.0785123,1.1318482-.1384177,2.2850264-.1965077,3.4005368-.082143,1.5738772-.1665551,3.2013061-.3049727,4.7987823-.1733625,2.0027451-.1602015,4.0254586-.1338794,5.7636216.0167917,1.1422863.0394831,2.2845725.0621745,3.426405.0553671,2.7656307.1120956,5.6256578.0812353,8.4434788-.0281374,2.5804687-.4447519,5.0656334-.8477516,7.4691091-.0798738.4765199-.15884.949863-.2346293,1.4195755l-.034491.07942-.7401942.9485015.5822619.3086034.0254144.044929c.2600437.4615436.462905,1.0560589-.2809198,1.5589008l-.1307026.0884966-.1007499-.1211722c-.0471982-.0567286-.1039267-.1116418-.1606553-.1670089-.1479481-.1443175-.3158646-.3081495-.3535324-.5182721-.0485596-.2677588-.0245067-.5414174.002723-.806907-.4011844.3539862-.5573014.8059994-.4765199,1.3710158.5618397,1.1844923,1.5207792,1.9555469,2.3862301,2.5536928.1933309.1334256.3199491.3394637.4320447.5214489.0440214.0717049.0866812.1415945.1320641.2028613l.0313142.042206.002723.0526441c.0068074.1384177.0263221.2759277.0458367.4125301.0685281.4851426.1465866,1.0351828-.3594322,1.5493704l-.1016576.1034729-.1202645-.0812353c-.0621745-.042206-.1329717-.0798738-.2046766-.1189031-.1783546-.0962116-.3798544-.2051305-.497396-.3875695-1.3941611-2.1638542-2.7524697-3.9964136-4.1529844-5.6029664-1.8756731-2.1516008-3.630174-3.6215512-5.5217311-4.6263275-.9380635-.497396-1.7445167-.7088801-2.526917-.6680355-3.8457425.2042228-6.2641945,1.8103218-7.3919582,4.9099703.1297949,1.7926225.891773,3.3801145,2.397122,4.9916594,2.0413205,2.1851841,4.3916982,4.1293853,6.9853279,5.7781442,2.5500622,1.6206215,5.5503223,3.4409275,8.887323,4.5287544.1987769.0648975.3530786.2105764.5023881.3517171.0612668.05809.1229875.1161801.1874312.1674627l.1479481.1175416-.1288873.1379639q-3.894756,4.1656916-6.0445415,8.3368291l-.0508288.0599054c-.7456402.5545784-1.5933918.7519938-2.6367434.8777043-1.7889919.2151147-3.6043058.4733431-5.3597143.7234026l-.3689626.0521903c-1.1391095.1624706-2.3077178.484235-3.4736032.9571243-.2092149.0853198-.4111686.2287296-.6063148.3671472l-.1288873.0907657c-.1465866.1016576-.2314525.2332678-.2523286.391654-.031768.2373523.0798738.5268949.314957.8196142.0172455.0058998.034491.0117995.0517364.0181531.0308603.0113457.082143.0335833.1016576.0294989,3.4536347-.6807427,6.963998-.9426017,9.9837726-1.1345712.8050917-.0517364,1.6097296-.2296372,2.3594542-.4143454,1.0374519-.2564131,1.817583-.8064532,2.3853225-1.6818883Zm17.1642468-13.9656637c1.0410825-1.2448515,2.1180175-2.5314552,3.1922295-3.780845.4951269-.5759083,1.1173257-1.2067299,1.9750615-1.5171486.2160224-.0776047.4511055-.0340371.6580513.0058998.0730664.0136149.1425021.0272297.2042228.0322218l.076697.0063536.0471982.0617207c.5759083.7529014.6925423,1.5838614.3562554,2.5405318-.1679165.4783352-.4166145.9330713-.6362675,1.3342557-.0921272.1683704-.1815314.3312948-.2604975.4883194l-.0381216.0499211c-1.9065334,1.7476935-3.9056479,2.6952873-6.1117081,2.897241-.0108919.0013615-.0217838.0018153-.0326757.0018153-.1529402,0-.2886349-.0962116-.4315909-.1978692-.066259-.0471982-.1388715-.0989346-.2201068-.1456789l-.1810776-.1034729,1.40233-1.6732656Zm-10.7661729-12.551988c.0453828-.3639704.1179954-.7497246.2296372-1.2139912,1.1717851-4.8940863,1.217168-9.9097986,1.1064338-14.1703403-.0249606-.9666547-.0530979-1.9337631-.0816891-2.9004178-.0626283-2.1366245-.1275258-4.3463153-.153394-6.5206075-.0172455-1.4468052-.0099842-3.1577385.1769931-4.8786561.1388715-1.277981.2219221-2.5831917.3017959-3.8457425.1093727-1.7209176.2228298-3.5008329.478789-5.2480725.3185876-2.1738384.4824197-4.410759.6412596-6.5741593.0685281-.9353405.1370562-1.8702271.2173838-2.8037523.0226914-.2559593.0363063-.5123723.0499211-.7687854.013161-.2496057.0263221-.4996652.0471982-.7483632.3716855-4.4071283.531887-8.7951959.6866425-13.0384921.0676204-1.8479896.1184492-3.6968868.1697318-5.5453301.073974-2.6648808.1502172-5.4209811.2759277-8.130791.0916734-1.9678003.2591361-4.0885407.5268949-6.6744554.0907657-.8786119.1556632-1.7767385.2187453-2.6449124.0530979-.7342945.1066497-1.4685889.1751778-2.2015219.0399369-.4270526.1302488-.8522899.2096688-1.2280599.034491-.1620168.0676204-.3181338.0948502-.465628l.0108919-.0571824.0431137-.0394831c.2096688-.1919694.3771315-.1933309.4801505-.1615629.0785123.0245067.2187453.1025652.2745662.3489941.3190414,1.4177602.2573207,2.8618424.1978692,4.2587264-.0176993.4143454-.0353986.828237-.0435675,1.2407671-.0553671,2.8105598-.1515787,5.6665023-.2446135,8.4280486-.0748817,2.2155906-.1520325,4.5065168-.2073996,6.7597751-.0830506,3.3642305-.1139109,6.6354261-.0916734,9.7223674.0353986,5.0243351.4279603,10.1199212.8073609,15.0475908l.0558209.7256717c.2350832,3.0578963.3980076,5.6242963.4302294,8.2097571.0372139,2.973938.1592938,6.1511912.373047,9.7132909.0880427,1.4681351.1869773,2.9353626.2854581,4.4030439.1833467,2.7315936.373047,5.556222.4883194,8.3386444.1234413,2.9852837-.0149763,5.9555911-.4116224,8.829233-.0853198.6212912-.2173838,1.2906882-.4157069,2.1053103-.0816891.3362869-.1956001.6585051-.3267565,1.0315521-.0630822.1783546-.1297949.3685087-.1992307.5763622l-.0349448.1061959-1.2834269.1420483c-.8527437.095304-1.61926.1806237-2.3871378.2577746-.3390099.0340371-.6680355.1388715-1.016122.2496057-.4302294.1370562-.870443.2772892-1.3378863.2772892-.203769,0-.4129839-.0267759-.6290063-.092581l-.108465-.0326757-.0136149-.1130033c-.0086227-.0726126-.0213299-.1420483-.0331295-.2092149-.0276835-.1583861-.0540056-.3076957-.034491-.4642665Zm.066259,3.6955253c.0367601-.0426599.0707972-.0921272.1052882-.1415945.0903119-.1297949.1933309-.2768354.3526247-.3408252,1.5906688-.6408058,2.8187287-.8963112,5.4749867-1.1391095l.0830506-.0077151,1.9097102,1.9709771-.3789468.9671085-2.1838226,1.1173257c-.0984808.0054459-.1869773.0149763-.2682126.0235991-.0993884.0108919-.1910618.0208761-.2800122.0208761-.0648975,0-.1284335-.0054459-.1924233-.0195146-1.5071644-.3408252-2.865473-1.0510667-4.1788526-1.7381631-.1488557-.0780585-.248698-.2187453-.3367407-.3430943-.0349448-.0490135-.0698896-.0984808-.1075573-.1425021l-.0975731-.1139109.0984808-.1134571Zm3.9360544,22.2752631c-.0889504.6830119-.1125495,1.3887151-.1356947,2.0712732-.0099842.3081495-.0204223.6158452-.0367601.9221795l-.0031768.0612668-.0408446.0458367c-.5046573.5632011-.7406481.8000996-1.04789.8000996-.2096688,0-.4529208-.1107341-.8382212-.3036113l-.0748817-.0376678-.0308603-.0884966c-.5709162-2.6816725-.9203641-9.6860612-.5840772-11.7101362l.0240529-.1434098.1452251-.0022691c.0204223-.0004538.0431137-.0036306.0658051-.0068074.0848659-.0108919.2001384-.0267759.293627.0435675.6380828.486958,1.2711736.9793619,1.886565,1.4581509l.4942192.3843927.0167917.0490135c.2541439.7397404.1897003,1.436821.1275258,2.1107562-.031768.3480864-.0621745.6766583-.0499211,1.0061377.0435675,1.1645239-.0757894,2.2931953-.2114841,3.3397238Zm.2818275-13.3053433c-1.0587818-.2523286-2.505587-.9276254-3.5180783-1.6428591l-.044929-.0322218-.018607-.0521903q-.5681933-1.6011069-.5155491-4.7897057l.0045383-.2627667,1.0392672.4606359c.5069264.2255528.9303484.4138916,1.3564933.5967844.4560976.1965077.9149182.3866619,1.3419708.5645626l.547771.2364446c.5146415.4275064.7129645.9566704.589977,1.5729695-.0757894.3798544-.1189031.777862-.1602015,1.1627086-.0744279.6907269-.1515787,1.4055068-.4202452,2.0803497l-.0558209.1397792-.1465866-.034491Zm-3.7073248,20.3877904c.1974154.1002961.3848465.1956001.6162991.2087611l1.4640507-.8954036.076697.0258682c.7601627.2518748.8432133.8722583.9162797,1.4195755.0322218.2427982.0658051.4928577.1543017.7102416l.4819658.4002767.462905-.203769c.3217644-.2741124.4029997-.6752968.4887733-1.1000802.092581-.4597282.1887926-.9348867.595423-1.2784348l.0703434-.0358524c.0331295-.0081689.0648975-.0195146.0948502-.0304065.0853198-.0308603.182439-.066259.2868196-.0372139.9530398.2564131,1.6637352.8627279,1.950101,1.6646428.2732047.7656086.1248028,1.6296981-.4066303,2.3708-.7043418.9820848-1.6914187,1.5380247-2.9335473,1.6523895-.2727509.0254144-.545048.0331295-.8223372.0331295-.2173838,0-.4379445-.0049921-.6644049-.0099842-.2323602-.0049921-.4701663-.0099842-.714326-.0099842h-.0095304l-.0553671-.0090766c-1.0088607-.3371946-2.3099869-.891773-3.4245897-2.1969837l-.0367601-.0717049-.4433904-1.8221213.8005534-.9230871c.4329524-.1760854.7615242-.0086227,1.0515206.1384177Zm-4.3839831-19.0757723l-.2341755-.1016576c-.8432133-.3657858-1.7150178-.7438249-2.5123944-1.2266984-3.4050751-2.0621966-6.9263302-4.1942828-9.8231174-7.135999-.685281-.6961729-1.2993109-1.3269945-1.8697733-1.9982068-.6153914-.7256717-.9548551-1.4912804-1.135025-2.5600464l-.013161-.0785123.0508288-.0612668c.1297949-.1579323.2509671-.3181338.370324-.4760661.2654897-.3503556.5155491-.6811965.8323214-.9571243,1.9532778-1.7004953,4.5010708-1.8243905,6.6476795-.3235797.8609126.6022304,1.7159255,1.3397017,2.7715305,2.3916761,2.4774496,2.4679193,4.3608378,5.4677255,5.9315382,8.0854081.3957384.6598666.75154,1.3501397,1.0959958,2.0181752.1570247.3049727.3135955.608584.4728893.9081108l.0181531.0530979c.1089188.6512439.1120956,1.367839-.6948114,1.7422475-.1919694.0571824-.3784929.0807815-.5577552.0807815-.5241719,0-.9879846-.2019537-1.3510474-.3603398Z" fill="#423b30" stroke-width="0"/>
        <path d="m25.471455,154.1592921c-1.0717405,0-2.0511314-.213862-2.9892081-.6452315-.3450956-.1603965-.6974819-.3074267-1.0547287-.455672l-.6999121-.3135023c-.0996403-.0935646-.2017108-.1859142-.3062116-.2782637-.2746183-.2466704-.5395156-.4836198-.7776801-.7436566-1.4921738-1.6428493-1.6622913-3.7571672-.4690383-5.802223.3766888-.6452315.8141339-1.2552244,1.2783117-1.9004559.2503158-.3438804.4763291-.659813.7072029-.9927573.0753378-1.0826766-.0413143-2.1386204-.1628268-3.2541054-.0729075-.6464466-.145815-1.3074747-.1798385-1.9660726-.029163-.591766-.0121513-1.2090496.0048605-1.7546408.0315933-1.076601.0656168-2.1787195-.2187225-3.2358785-.5881206.1433848-.6391559.2090015-1.5067553,1.3366377l-.2114318.2794788c-.3937006.5067072-.8384364,1.0790312-1.2102647,1.6793031-.3402351.5492366-.6099929,1.1567992-.8700297,1.7437047l-.0656168.1482453c-.2308738.5188585-.4423056,1.0413623-.6440164,1.5468544l-.0607563.1482453c-.0631865.1591814-.1239428.3098569-.1725478.4410905l-.0315933.058326c-.6124231.9453674-1.4532898,1.5383485-2.571205,1.8153971-.7655289.1883444-1.5869535.3693981-2.415669.4216485-3.0086501.1919898-6.5033502.4532417-9.9421546,1.1300665-.1093613.0218723-.1895595-.0121513-.2478855-.0340235l-.0801983-.0303781-.1288033-.0923495c-.2916301-.3645376-.4252938-.7302903-.3815493-1.0571589.0340235-.2442402.165257-.4532417.3839796-.6051324l.126373-.0899193c.2187225-.1543209.4325846-.3049964.6707491-.4009913,1.1908227-.4824047,2.3840757-.8117037,3.5457354-.9769607l.5103526-.0729075c1.7108963-.243025,3.4801186-.494556,5.2250385-.7035575.9939724-.1190823,1.7983853-.3037813,2.4885765-.8177793l-.0024303-.0121513c2.1143179-4.1168443,2.1313296-4.1508678,5.9589741-8.2446247l-.0656168-.058326c-.1603965-.1543209-.2819091-.2685427-.4131426-.3110721-3.3780481-1.1009035-6.3964192-2.9320972-8.9603334-4.5627952-2.6173797-1.6659367-4.9893042-3.6259337-7.0477263-5.8277406-1.55293-1.6647216-2.3403312-3.3112162-2.4788555-5.181294l-.0048605-.0668319.0243025-.0631865c1.173811-3.2298029,3.6818294-4.9030303,7.6674402-5.1144621.8432969-.0510353,1.7011753.1810537,2.6902873.7047726,1.9247584,1.0231354,3.7085622,2.5153092,5.609018,4.696459,1.4119755,1.6185468,2.7777763,3.4631069,4.1800308,5.6381811.0753378.1154369.2308738.2004957.3839796.2831242.0437445.0230874.087489.0473899.1312335.0716924.3159326-.3803342.2600368-.7813255.1992805-1.2054042-.0170118-.1348789-.0364538-.2673275-.0461748-.4022065-.0510353-.0716924-.087489-.1312335-.1239428-.1919898-.0996403-.1616117-.204141-.3305141-.3426653-.4277241-.8967624-.6172836-1.8955954-1.4192663-2.4910067-2.6744906l-.0267328-.0887041c-.09721-.6683189.09721-1.2236311.5783996-1.6501401l.3766888-.3463107.7339356-.9575187c.0558958-.3973459.1336638-.8724599.213862-1.348789.4034216-2.4035177.8165642-4.8702219.8432969-7.4219849.0315933-2.872556-.0267328-5.8265255-.0801983-8.4329691-.0243025-1.1422177-.0461748-2.2856506-.0631865-3.4278683-.0267328-1.7376291-.0413143-3.7608126.1336638-5.7949322.1385243-1.5833082.223583-3.1994247.3062116-4.7632909l.0145815-.2891998c.0534655-1.0352867.1093613-2.0985213.1822688-3.1423138.0413143-.5990567.136094-1.2017588.2260133-1.7838038.0704773-.4483812.1336638-.8432969.1822688-1.2394277l.09721-.795907c.165257-1.3439285.3523863-2.8676955.4350148-4.3404273.09721-1.7072509.2648973-3.4145019.4277241-5.0646419.1020705-1.0425774.2017108-2.0851549.2891998-3.1277323.2600368-3.1775525.5030618-6.288273.6245744-9.4050693.0631865-1.6197619.1895595-3.269902.3013511-4.725622.068047-.8554482.1336638-1.7108963.1895595-2.5675596.0243025-.3791191.0510353-.7606684.0801983-1.1410026.087489-1.2114799.1774083-2.4654891.1871293-3.7109924.0218723-3.1568953.5638181-6.2834125,1.0887522-9.3078592l.2721881-1.5845233c.2284435-1.3658008.5346551-2.7303864.8311457-4.0512275.1215125-.5383005.243025-1.0778161.3572468-1.6173317l.019442-.0899193c.0996403-.4666081.204141-.9563036.5978416-1.3220562l.0753378-.0510353c.4374451-.2162923.8967624-.1008554,1.212695.3122872.3183628.4204333.6367256.8700297.7582381,1.35851.4228636,1.7084661.6270046,3.1520348.6391559,4.5433532.0121513,1.4107604.0340235,2.8215208.0558958,4.231066.0364538,2.2662085.0704773,4.6758019.0656168,7.0270692-.0048605,1.9964507-.0413143,4.0281401-.077768,5.9942127-.0340235,1.8895197-.077768,4.2420022-.077768,6.471757.0024303,3.0463189.0753378,6.2287319.223583,9.7282926.0826285,1.9235432.1919898,3.8750343.2989208,5.7754902l.0340235.6172836c.1482453,2.5821411.2770486,4.9127513.3693981,7.2737396.0923495,2.3707093.1045008,4.783948.116652,7.1169885v.233304c.0024303.7971221.0048605,1.5930292.0121513,2.3877211.0340235,4.0961871.3062116,8.2494852.5832601,12.1512523.3256536,4.6211212.3791191,9.1280207.1579663,13.3943254-.0340235.6804701-.1312335,1.3536495-.233304,2.0657129-.0510353.3560317-.09721.6914063-.1385243,1.0389321.1045008.2491007.2284435.4605325.3596771.6816853.4155728.6974819.8773204,1.4690864.5516669,2.6380369-.9575187,2.3476219-1.0134144,2.3962269-3.7037017,4.2298509-.4009913,2.658694-.4034216,3.231018-.029163,5.4802148h.0048605c.3523863,0,.6221441-.1883444.8919019-.3997762.9429372-.747302,1.7133266-1.6683669,2.4812857-2.6246705.6804701-.8432969,1.397394-1.6793031,2.0924456-2.4885765l.6610281-.7716045c.5783996-.6804701,1.3123352-1.2151252,2.2431212-1.6343434,1.0036934-.4508115,1.9150374-.4641778,2.7996485-.0315933,1.6209771,1.2114799,2.1167481,2.8446082,1.5650813,5.0257579-.4423056,1.7497803-1.3220562,3.0730517-2.6902873,4.0451519-2.1580624,1.533488-4.5931734,2.3877211-7.4438571,2.610089-.1701175.0133664-.3402351.0230874-.5079223.0328084-.6877609.0376689-1.3730915.0753378-2.0487011.3523863.0267328.0449596.0534655.0887041.077768.1324486.1045008.1737629.19442.3232233.2989208.3657527.5079223.2065713,1.0595892.3365897,1.5942443.4629627l.1336638.0315933c.3766888.087489.7558079.1676873,1.134927.2454553.5103526.1057159,1.0352867.2150772,1.5456393.3487409,2.6149495.6816853,4.6393481,2.3427614,6.0148699,4.939484.4933408.9332162.9502279,1.8518508,1.3633705,2.7316015.7630986,1.6246224,1.8810139,2.8105846,3.1496046,3.3391641.6999121.2697578,1.3220562.1774083,1.9198979.0899193.5905509-.0862739,1.1397875-.165257,1.6865938.0984251l.0826285.0400991.3548166.5735391-.0048605.09721c-.0218723.4022065-.2114318.7436566-.5954114,1.0717405-.8287154.7120634-1.7886643.9648094-2.9746266,1.125206-2.9381728-.3086418-5.0451999-1.9660726-6.7026308-5.2189628-.2187225-.426509-.4131426-.8566633-.6172836-1.3147655-.4325846-.9611641-.8651692-1.9235432-1.5359183-2.8506838l-1.2783117-1.0316413c-.3912703-.1227276-.8189944-.2794788-1.2491487-.4374451l-.0753378-.029163c-1.309905-.4824047-2.6635545-.9818212-4.133856-1.1908227-.0218723.0328084-.0461748.068047-.0729075.1032856-.1409545.1907747-.243025.3329443-.2576065.4617476-.1992805,1.940555-.262467,3.8738192-.3232233,5.7438969-.0145815.4532417-.029163.9004078-.0461748,1.3427134.3693981.6877609.8991927.9174195,1.4119755,1.096043,1.8202576.6342954,2.8555443,1.969718,3.0791273,3.9710292.2284435,2.028044-.4204333,3.7182832-1.9320491,5.0233277-.9064834.7825406-1.8931651,1.2831722-3.0159408,1.5298427-.7703894.1701175-1.4873133.2563914-2.1653532.2563914Zm-4.3574391-1.9065315l.5540971.2308738c.3645376.1518907.7242146.3013511,1.076601.465393,1.3998243.6452315,2.91144.7558079,4.7560001.3463107,1.0207052-.2247982,1.9198979-.6804701,2.7437528-1.3937486,1.3463588-1.1616597,1.9271886-2.6708452,1.7230476-4.482597-.19442-1.7424896-1.0911825-2.9041493-2.6659847-3.4521708-.6707491-.233304-1.348789-.5686786-1.7813736-1.4387083l-.0364538-.0741226-.0145815-.1202974c.019442-.4909106.0340235-.9502279.048605-1.4131906.0607563-1.8810139.1239428-3.8264293.3280838-5.7876415.029163-.2964906.1968503-.5261492.3329443-.7120634.0704773-.09721.1020705-.136094.1239428-.1761932l.1725478-.2819091.3135023.0400991c1.5748023.2102167,2.9867778.7315054,4.3525786,1.2357824l.077768.0279479c.4228636.1567512.8457272.3110721,1.2734512.455672l.1020705.0510353,1.4144058,1.1470782c.7217844.9903271,1.173811,1.9928054,1.6112561,2.9636904.213862.4799745.4034216.9004078.6172836,1.3184109,1.5553603,3.0487492,3.5044212,4.6004641,6.1412429,4.8835883,1.0012632-.1445999,1.8640021-.3669678,2.5784957-.9781758.2187225-.1883444.3329443-.3560317.3669678-.5455912l-.1482453-.2381645c-.3572468-.1409545-.7509474-.0826285-1.2394277-.0121513-.6294349.0947798-1.3925335.204141-2.2504119-.126373-1.4192663-.5905509-2.6538335-1.8870895-3.4825489-3.6514513-.4082821-.8712448-.8627389-1.7813736-1.348789-2.7048688-1.290463-2.4363261-3.1811978-3.9941166-5.6235995-4.628412-.4982013-.1312335-1.0134144-.2381645-1.514046-.3414502-.3839796-.0801983-.7679591-.1603965-1.1495085-.2503158l-.1336638-.0315933c-.5589576-.1312335-1.134927-.2673275-1.6865938-.4921257-.2964906-.1202974-.4593173-.3888401-.5881206-.6051324-.0558958-.0959949-.1020705-.1737629-.1531058-.2442402l-.3499561-.4726837.5370854-.2515309c.8335759-.3864098,1.6282678-.4301543,2.3962269-.4726837.1919898-.0109361.3572468-.0206571.5225038-.0328084,2.736462-.213862,5.0695024-1.0316413,7.1327851-2.4982975,1.241858-.8821809,2.0438406-2.0900154,2.4472622-3.6903353.4836198-1.9101769.0631865-3.3306582-1.2856025-4.3440727-.6585979-.3171477-1.3803823-.3049964-2.2212489.0704773-.8457272.3803342-1.5067553.8615238-2.0268289,1.4703015l-.6610281.7728196c-.6901911.805628-1.4022545,1.6367737-2.0778641,2.473995-.7922616.9854666-1.5869535,1.9344794-2.5833562,2.7230956-.2648973.2077864-.7582381.6002719-1.4484293.5249341l-.3669678-.0413143-.0607563-.3621073c-.4131426-2.4654891-.4107123-3.0122954.0170118-5.8423221l.0024303-.0024303.0315933-.2090015.1142218-.0753378q2.6951478-1.8384845,3.5773287-3.9929015c.2405948-.8773204-.1142218-1.4715166-.4909106-2.1009515-.1701175-.2879847-.3207931-.5419459-.4301543-.8287154l-.029163-.0789831-.0024303-.1239428c.048605-.3912703.09721-.7400113.145815-1.0826766.1045008-.7266449.1992805-1.3864579.2308738-2.0389801.2211528-4.2420022.1676873-8.723384-.1579663-13.3189876-.2770486-3.9114881-.5492366-8.0757223-.5832601-12.1901363-.0072908-.795907-.009721-1.5930292-.0121513-2.3889362v-.233304c-.0121513-2.3293951-.0243025-4.7365581-.116652-7.0963313-.0923495-2.3561278-.2211528-4.6830926-.3693981-7.2628035l-.0340235-.6172836c-.106931-1.9041012-.2162923-3.8580226-.2989208-5.7839961-.1482453-3.5080665-.2211528-6.6989854-.223583-9.7550253,0-2.2346153.0437445-4.5907431.077768-6.4839082.0364538-1.9612121.0729075-3.9904712.077768-5.9844917.0048605-2.3451917-.029163-4.7511396-.0656168-7.0149179-.0218723-1.4119755-.0437445-2.8227359-.0558958-4.2359265-.0121513-1.3414983-.2090015-2.7388923-.6197139-4.3975382-.0947798-.3754737-.3742586-.7643138-.6513071-1.1312816-.1628268-.2187225-.3110721-.1871293-.4009913-.1506755-.1871293.1932049-.2697578.4629627-.3402351.7752499.2746183-.1689024.4933408-.1445999.6148534-.1032856.1142218.0352386.3912703.1628268.4860501.5759694.3256536,1.4484293.2648973,2.9029342.204141,4.3088341l-.009721.243025c-.0145815.3414502-.029163.6816853-.0340235,1.0231354-.0558958,2.8032939-.1482453,5.5883609-.2454553,8.4329691l-.0218723.6853306c-.068047,2.0000961-.1336638,4.0500124-.184699,6.0707656-.0826285,3.376833-.1142218,6.6443047-.0923495,9.7124959.0364538,5.0597814.4301543,10.1256385.8092734,15.0250234l.0558958.7266449c.233304,3.0681912.3961308,5.6418264.4301543,8.2300432.0364538,2.9709812.1579663,6.1436731.3718283,9.6991296.087489,1.4569351.184699,2.9126552.2843393,4.3695903l.009721.1470302c.1798385,2.6963629.3645376,5.4838601.4787593,8.228828.1239428,3.0025744-.0145815,5.9917825-.4131426,8.8862108-.087489.640371-.2211528,1.319626-.4228636,2.1361901-.0826285.3390199-.1895595.6537374-.3329443,1.0608043-.0801983.2272284-.1385243.3912703-.1968503.5698937l-.1020705.2977057-1.4800225.1628268c-.8530179.0959949-1.6209771.1810537-2.3889362.2588217-.3086418.0303781-.6197139.1300184-.9526582.2357343-.6342954.2017108-1.4338478.4058518-2.1532019.1859142l-.2989208-.0923495-.0729075-.5152131c-.0267328-.1531058-.0631865-.3402351-.0364538-.5480215h0c.048605-.3803342.1239428-.7776801.2381645-1.2479336,1.16409-4.8677917,1.2078345-9.8534505,1.096043-14.089377l-.0801983-2.9005039c-.0631865-2.1677834-.1288033-4.3622996-.155536-6.5252225-.0170118-1.4581503-.009721-3.1811978.1798385-4.9163967.136094-1.2625151.2187225-2.532321.2989208-3.8312898.1093613-1.7206173.223583-3.5007758.4811896-5.2736435.3183628-2.1556322.4811896-4.3805264.6391559-6.5337283.068047-.9550884.1385243-1.8907349.2187225-2.8251662.0218723-.252746.0364538-.504277.048605-.757023l.009721-.155536c.009721-.2017108.0218723-.4034216.038884-.6051324.3766888-4.4424978.5322248-8.8047974.6853306-13.0224971.068047-1.8482055.1190823-3.6951958.1701175-5.5421862l.009721-.3706132c.0729075-2.5469025.145815-5.1800788.2673275-7.7670804.0899193-1.9563516.2576065-4.0828208.5273643-6.6916946.0850588-.8165642.145815-1.6501401.204141-2.4594135l.0121513-.1761932c.0267328-.3450956.0510353-.6901911.077768-1.0352867-.1895595.8712448-.3693981,1.7534257-.5176433,2.6319612l-.2721881,1.5869535c-.5200736,3.0001442-1.0571589,6.0999286-1.0790312,9.2070038-.009721,1.2649454-.0996403,2.5298907-.1871293,3.7523067-.029163.3803342-.0558958.757023-.0801983,1.134927-.0558958.8603087-.1215125,1.7181871-.1895595,2.5760655-.1117915,1.4496444-.2405948,3.0937088-.3013511,4.7013195-.1239428,3.1289475-.3669678,6.2469588-.6245744,9.431802-.087489,1.0474379-.1919898,2.0924456-.2940603,3.1374533-.1603965,1.6440644-.3280838,3.3440246-.4228636,5.0379092-.0850588,1.494604-.2721881,3.0280921-.4398753,4.3817416l-.09721.795907c-.048605.4034216-.1117915.805628-.1774083,1.2078345-.0947798.620929-.1871293,1.2102647-.2260133,1.7825887-.0753378,1.0413623-.1288033,2.1009515-.184699,3.1313777l-.0121513.2636822c-.0850588,1.5954594-.1701175,3.2164365-.3062116,4.8106808-.174978,2.0049566-.1603965,4.0099132-.1336638,5.7317457.0170118,1.1422177.038884,2.2832203.0631865,3.425438.0534655,2.610089.1117915,5.5689189.0801983,8.4524111-.0267328,2.5991529-.4447358,5.0913747-.8505877,7.500968-.0826285.4921257-.1603965.9648094-.2357343,1.4338478l-.0947798.2223679-.5127828.6549525.3378048.1786234.0461748.0826285c.4860501.8651692.3572468,1.5274124-.3572468,2.0098171l-.3596771.2478855-.2843393-.3378048c-.0364538-.0449596-.0826285-.087489-.1239428-.1300184-.1117915-.106931-.2381645-.2308738-.3329443-.3839796.0024303.0340235.0048605.068047.009721.1032856.5346551,1.0984732,1.4435688,1.8226878,2.2625632,2.3865059.2454553.1725478.3961308.4180031.5176433.6148534.038884.0631865.0753378.1251579.116652.1774083l.058326.077768.0364538.1385243c.009721.1798385.0267328.3086418.0461748.43623.0704773.5030618.165257,1.1883925-.4471661,1.8105366l-.2819091.2867696-.3353746-.223583c-.0558958-.0400991-.116652-.0704773-.1774083-.1032856-.2017108-.1093613-.4495963-.243025-.6124231-.4921257-1.3852428-2.1519868-2.7340318-3.9734595-4.1265653-5.5689189-1.8494206-2.1216086-3.5748984-3.5688228-5.4316098-4.5555045-.8870414-.4702535-1.6525703-.6743945-2.3646337-.6318651-3.6818294.19442-6.0051489,1.7145417-7.0939011,4.6429935.1385243,1.6938846.8748902,3.2006398,2.3087379,4.735343,2.0195381,2.164138,4.3501483,4.0913266,6.9262138,5.7281003,2.532321,1.6100409,5.5093778,3.4181473,8.8169486,4.4959633.2648973.0850588.4520266.2636822.6172836.4204333.0729075.0692621.1190823.1105764.1676873.1482453l.4082821.3305141-.3548166.3827644q-3.8640982,4.1350711-5.9954279,8.2664969l-.0899193.1190823c-.8530179.6452315-1.7449198.854233-2.8385325.9854666-1.7376291.2090015-3.5019909.4593173-5.210457.7023424l-.5103526.0716924c-1.1130547.1591814-2.2552724.475114-3.3999204.9380767-.1701175.0704773-.3548166.1992805-.5322248.3244384l-.1409545.0996403c-.09721.068047-.116652.1324486-.1239428.1798385-.0170118.1275881.0534655.3110721.1895595.5030618,3.4436649-.6719643,6.9310743-.932001,9.9348639-1.1227757.7801104-.0498201,1.5675115-.2247982,2.3038774-.407067.9477977-.233304,1.6622913-.7315054,2.1823649-1.5213368.048605-.126373.106931-.2709729.1676873-.4204333l.058326-.1470302c.2065713-.5127828.4180031-1.0425774.6537374-1.5687267l.0656168-.1482453c.2673275-.6051324.5468064-1.232137.9089137-1.8190425.3912703-.6282197.8651692-1.2394277,1.2467185-1.7303383l.2114318-.2782637c.9818212-1.2758815,1.0790312-1.377952,1.9685029-1.591814l.4252938-.1020705.1579663.4082821c.3596771,1.2163404.3232233,2.4132387.2891998,3.5700379-.0170118.5443761-.0340235,1.1482933-.0048605,1.7157568.0340235.6391559.1045008,1.2916781.174978,1.9223281.1239428,1.1337118.252746,2.2990169.1628268,3.4169321l-.0072908.0850588-.0534655.116652c-.2648973.3839796-.5006316.7108483-.7290751,1.0267808-.4836198.6731794-.9137742,1.271021-1.2734512,1.8907349-1.0498682,1.79474-.9064834,3.6429454.3912703,5.0695024.2187225.2405948.4714686.465393.7120634.6829004.1093613.09721.204141.1822688.2964906.2661124Zm-2.1532019-38.1087574l-.0121513.116652c-.0267328.2746183-.0437445.5018467-.0048605.7193541.019442.1142218.1482453.2405948.262467.3523863.0364538.0340235.068047.0644016.09721.0947798.3450956-.2734032.3718283-.5613879.106931-1.0462228l-.4495963-.2369494Zm3.3707574-.087489c.5468064.1373092,1.1422177-.0303781,1.6987451-.2065713.3645376-.1154369.7072029-.2247982,1.0790312-.262467.7679591-.077768,1.5310578-.1628268,2.3840757-.2563914l1.086322-.1202974c.048605-.1506755.0996403-.2928452.1482453-.4289392.1628268-.4605325.2648973-.7606684.3426653-1.0729556.19442-.7946919.3232233-1.4532898.4082821-2.0730036.3937006-2.8567594.5322248-5.8095137.4082821-8.7744193-.1117915-2.7388923-.2989208-5.521529-.4787593-8.2142465l-.0072908-.116652c-.0996403-1.4885284-.1992805-2.9454635-.2867696-4.4048289-.213862-3.5651774-.3353746-6.7475904-.3718283-9.7282926-.0340235-2.571205-.1968503-5.1339041-.4301543-8.189944l-.0558958-.7254298c-.3791191-4.910321-.7728196-9.9871142-.8092734-15.0687679-.0218723-3.0742668.009721-6.3490293.0923495-9.7319379.0510353-2.0231835.1190823-4.07553.184699-6.0756261l.0218723-.6865458c.09721-2.843393.1895595-5.6260298.2454553-8.4244632.0072908-.3450956.0218723-.6901911.0340235-1.0365018l.009721-.2114318c.058326-1.397394.116652-2.8105846-.1895595-4.1776005-.019442-.0850588-.0510353-.1154369-.0631865-.1202974-.0170118,0-.0656168.0036454-.145815.0656168-.0243025.1300184-.0461748.2320889-.068047.3378048l-.019442.087489c-.077768.3657527-.165257.7788953-.204141,1.1920378-.068047.7327205-.1215125,1.4642259-.174978,2.1969464l-.0145815.174978c-.058326.8165642-.1190823,1.6562157-.2065713,2.4788555-.2673275,2.5955075-.4350148,4.7110405-.5225038,6.656456-.1215125,2.580926-.19442,5.2116721-.2673275,7.7549292l-.009721.3706132c-.0510353,1.8494206-.1020705,3.6988412-.1701175,5.5470467-.1531058,4.2262055-.3110721,8.5957959-.6853306,13.0540903-.019442.1956352-.029163.3912703-.0413143.5869055l-.0072908.1531058c-.0121513.2563914-.0267328.5176433-.048605.7776801-.0801983.932001-.1506755,1.8652172-.2187225,2.7996485-.1603965,2.1811498-.3232233,4.4181953-.6440164,6.5956997-.2551763,1.7473501-.3693981,3.5141422-.4763291,5.2226082-.0801983,1.3050445-.165257,2.5833562-.3037813,3.8604528-.184699,1.7011753-.1919898,3.4023506-.174978,4.8410589.0267328,2.1568473.0923495,4.3489332.1531058,6.4693267l.0826285,2.9478938c.1117915,4.2748105.068047,9.3127197-1.115485,14.2509887-.106931.4471661-.1774083.8226398-.223583,1.1798866h0c-.0145815.1117915.009721.2369494.0340235.3693981l.0121513.077768c.0024303.019442.0072908.038884.009721.058326Zm3.7085622,37.7247778c-.213862,0-.4325846-.0048605-.6561676-.009721l-.1239428-.0024303c-.19442-.0036454-.3937006-.0085059-.5978416-.0085059l-.1117915-.0121513c-1.0984732-.3633224-2.4496925-.9405069-3.6137824-2.3026623l-.077768-.1324486-.5054921-2.0462709,1.0231354-1.1276362c.5613879-.2284435.9915422-.0109361,1.3050445.145815l.0121513.0072908c.145815.0741226.2673275.1348789.3961308.1603965l1.4970343-.9149893.213862.0729075c.9429372.3110721,1.0474379,1.0972581,1.125206,1.6720123.0315933.223583.0558958.4094972.1093613.5650332l.2697578.2247982.243025-.106931c.2114318-.2029259.2770486-.5212887.3523863-.8870414.0996403-.4994165.2114318-1.0510833.7023424-1.4642259l.2405948-.1154369c.1215125-.0437445.2891998-.106931.4933408-.0498201,1.0498682.2831242,1.8372693.9611641,2.1604927,1.8603567.3086418.8627389.145815,1.8311937-.4471661,2.6562637-.7582381,1.0583741-1.8202576,1.6574308-3.1568953,1.7813736-.2819091.0255176-.5662484.0340235-.8530179.0340235Zm-1.125206-.6391559c.116652,0,.2381645.0024303.3596771.0048605l.1093613.0024303c.5297946.009721.9793909.0182269,1.4532898-.0218723,1.1470782-.106931,2.0584221-.6197139,2.707299-1.523767.4714686-.6573827.6051324-1.416836.3669678-2.0851549-.252746-.7035575-.8870414-1.2394277-1.7376291-1.4690864h-.0024303c-.0170118,0-.068047.0182269-.09721.029163-.058326.019442-.0947798.0328084-.1312335.0400991l.0024303.009721c-.2673275.2357343-.3475258.6367256-.4325846,1.0608043-.09721.4690383-.19442.9380767-.5929811,1.2783117l-.0753378.0473899-.6415861.2819091-.7169239-.6428012c-.1020705-.243025-.136094-.5006316-.1725478-.7485171-.0826285-.6221441-.1676873-.9988329-.6513071-1.1847471l-1.4216965.8688145-.09721-.0048605c-.2940603-.0157966-.5249341-.1336638-.7315054-.2381645l.1336638-.2806939-.1409545.2782637-.0048605-.0024303c-.2819091-.1433848-.4787593-.2272284-.7242146-.1494604l-.6415861.7400113.4155728,1.6707972c1.0255657,1.1847471,2.2747144,1.7181871,3.2468146,2.0426255.068047-.0024303.1433848-.0036454.2187225-.0036454Zm-.2090015-7.4475025c-.2843393,0-.5711089-.1336638-.9769607-.3365897l-.1919898-.0959949-.0704773-.2114318c-.5832601-2.7352469-.9356464-9.8084908-.5954114-11.8584071l.068047-.4009913.4058518-.0036454c.1385243-.019442.3523863-.0473899.5468064.0984251.6415861.4896955,1.2758815.9830363,1.8931651,1.4617956l.5638181.4398753.0315933.0862739c.2916301.8469423.2260133,1.572372.1628268,2.2747144-.0340235.3803342-.0631865.6853306-.0510353.9842514.0437445,1.1908227-.0753378,2.3330404-.213862,3.3901994-.0850588.659813-.1093613,1.3500041-.1336638,2.0171079-.009721.3341594-.019442.6440164-.0364538.9538733l-.0072908.1093613-.0753378.1421697c-.5297946.5893357-.8530179.9490128-1.319626.9490128Zm-.6513071-.8700297c.2843393.1421697.5127828.2478855.6513071.2478855.1676873,0,.3791191-.2114318.7825406-.6610281.0170118-.3195779.0267328-.5929811.0340235-.8663843.0243025-.708418.0510353-1.4131906.1385243-2.1021666h0c.1336638-1.0304262.252746-2.1422658.2090015-3.2869137-.0121513-.3378048.0170118-.6622432.048605-1.0061237.0631865-.7096331.1190823-1.3281319-.09721-1.9842995l-.4204333-.3268687c-.6124231-.4787593-1.2467185-.9696699-1.8834441-1.4569351.0072908.0072908-.0243025.0121513-.048605.0157966-.3037813,2.1082423.0364538,8.7695588.5856904,11.4270376Zm8.160781-14.3324021c-.3110721,0-.5054921-.1397394-.6634584-.2515309-.0607563-.0437445-.126373-.0899193-.1968503-.1324486l-.5030618-.2843393,1.6428493-1.9587819c1.0425774-1.2467185,2.1216086-2.5335361,3.1957793-3.7851151.5225038-.6063475,1.1811017-1.2722361,2.1070271-1.6063955.3062116-.1081461.6027021-.0498201.8189944-.0060756.0826285.0145815.1288033.0230874.1701175.0267328l.2187225.0170118.0850588.1130066c.6780399.8906868.8141339,1.843345.4471661,2.891998-.1822688.5164282-.4471661.9964027-.6585979,1.3815974-.0899193.165257-.1774083.3256536-.2551763.4799745l-.0704773.0996403c-1.9928054,1.8324088-4.0512275,2.8069393-6.3259419,3.0147257h-.0121513Zm-.4107123-.834791c.038884.0267328.0753378.0522504.1093613.0765529.0850588.0619714.19442.1397394.2503158.1397394,2.1410506-.1968503,4.0803905-1.1179152,5.9322414-2.8178754.0558958-.1215125.1433848-.2867696.2381645-.4581022.2017108-.3657527.4520266-.8202095.6148534-1.2880327.2964906-.8420818.2090015-1.543209-.2746183-2.203022-.0437445-.0048605-.0899193-.0133664-.1385243-.0218723-.2017108-.0400991-.3888401-.0765529-.5297946-.0255176-.7874011.2843393-1.3755218.8809658-1.8445601,1.426557-1.0741707,1.2491487-2.1483414,2.5335361-3.1909188,3.7778243l-1.1665202,1.3937486Zm-12.2922068.504277c-.5881206,0-1.1009035-.223583-1.4727318-.3864098l.1215125-.2855544-.1239428.2855544-.2357343-.1020705c-.8505877-.3693981-1.7303383-.7497323-2.5469025-1.2455034-3.4242229-2.0730036-6.9602373-4.2152694-9.8838286-7.1838203-.7193541-.7315054-1.3171957-1.3439285-1.8858744-2.0146776-.6561676-.7728196-1.0158447-1.5833082-1.2054042-2.7097293l-.0340235-.223583.1409545-.1689024c.1239428-.1506755.243025-.3086418.3596771-.4629627.2746183-.3633224.5346551-.7059878.8773204-1.0049086,2.0657129-1.7983853,4.7584304-1.930834,7.0282843-.3438804.8797507.6160685,1.7473501,1.3645856,2.8117998,2.4266051,2.5055882,2.493437,4.4011836,5.511808,5.9808464,8.1449844.3888401.6513071.7387961,1.3281319,1.076601,1.9818692l.1288033.2466704c.1239428.2393797.2454553.4763291.3718283.7120634l.038884.1032856c.0826285.4690383.2697578,1.5954594-.8603087,2.1203935-.252746.0789831-.4690383.1105764-.6877609.1105764Zm-16.6083316-13.6835252c.1701175.9745304.4884803,1.6805182,1.0547287,2.3476219.5565274.6549525,1.144648,1.2588697,1.8542811,1.9806541,2.8701258,2.9138703,6.3721167,5.0366941,9.7623161,7.0878254.7825406.475114,1.6428493.8469423,2.473995,1.2078345l.2381645.1032856c.4568871.2004957,1.0911825.4410905,1.6938846.2661124.4666081-.2211528.6075626-.6039172.4763291-1.3937486-.1117915-.19442-.2357343-.4350148-.3621073-.6768248l-.0996403-.1919898c-.3596771-.6999121-.7047726-1.368231-1.086322-2.0013112-1.5602208-2.6015831-3.4290834-5.5822853-5.8836363-8.0259021-1.0401472-1.0352867-1.8810139-1.7619316-2.7291713-2.3561278-2.0243986-1.4144058-4.4230558-1.2989689-6.2651857.3025662-.2940603.2563914-.5346551.5747542-.7898314.9113439-.1093613.1445999-.2211528.2928452-.3378048.4386602Zm23.6876512,12.100217l-.4131426-.0984251c-1.0936127-.2600368-2.5857865-.9563036-3.6235034-1.6914543l-.077768-.0558958-.0801983-.1215125c-.6051324-1.7108963-.6051324-1.7716526-.5540971-4.9552807l.0145815-.7315054,1.4678713.650092c.5054921.2260133.9283557.4131426,1.3512193.5954114.3912703.1676873.7801104.3305141,1.1519387.484835l.8165642.3621073c.6002719.5006316.8408667,1.1482933.6926214,1.8737231-.0729075.3766888-.116652.7788953-.155536,1.134927-.0704773.6743945-.1506755,1.4399234-.4398753,2.1629229l-.1506755.3900552Zm-3.6453757-2.2747144c.9842514.679255,2.2747144,1.2856025,3.2613961,1.5419939.2211528-.6136382.2891998-1.2600849.3572468-1.8858744.038884-.3693981.0826285-.7874011.1628268-1.1908227.0996403-.4884803-.048605-.8967624-.4471661-1.2455034l-.6901911-.2940603c-.3742586-.155536-.7655289-.3195779-1.1592295-.4884803-.4252938-.1822688-.8530179-.3718283-1.35851-.5978416l-.6099929-.2709729c-.0461748,2.8992888-.0364538,2.9600451.4836198,4.4315617Zm3.9029822-4.3136946c-.0899193,0-.1725478-.0085059-.2551763-.0267328-1.562651-.3523863-2.9333123-1.0717405-4.260229-1.7667921-.2162923-.1130066-.3499561-.3013511-.4471661-.4386602-.038884-.0558958-.0631865-.0887041-.0899193-.1202974l-.2721881-.3171477.2746183-.3159326c.029163-.0340235.0558958-.0741226.0826285-.1130066.1045008-.1506755.2454553-.3560317.4933408-.455672,1.6258376-.6525222,2.872556-.912559,5.5628433-1.1592295l.2308738-.0206571,2.1532019,2.2212489-.4957711,1.2637302-2.4108084,1.202974c-.0923495.0060756-.1774083.0145815-.252746.0230874-.1239428.0133664-.2211528.0230874-.3135023.0230874Zm-4.5081146-2.668415c.009721.0157966.0218723.0315933.0340235.048605.0923495.1288033.165257.2320889.2454553.2746183,1.2928932.6768248,2.6271007,1.3767369,4.104693,1.7108963.0899193.0206571.213862.009721.3475258-.0060756.0850588-.0085059.1603965-.0157966.2381645-.0218723l2.0243986-1.0340716.262467-.6707491-1.6671518-1.7206173c-2.5760655.2381645-3.7766092.4896955-5.3222485,1.1118396-.0753378.029163-.145815.1312335-.213862.2296587-.0170118.0255176-.0364538.0522504-.0534655.077768Z" fill="#423b30" stroke-width="0"/>
      </g>
      <g>
        <path d="m26.5089044,18.9307848c.0276835.0440214.0553671.0889504.0771508.1356947.0603592.1311564.1334256.2083073.2296372.2427982.1579323.0567286.4070841.0077151.743371-.1452251l.5563937-1.32291.042206-.029045c2.2169521-1.5176024,2.227844-1.5253175,3.1355009-3.3932755.1742701-1.6283366-.3925616-3.1259705-.9072031-4.2505575-1.2616432-2.7561003-1.7431552-5.479525-1.4713119-8.3259372.0090766-.0971193-.0163378-.2096688-.0517364-.3653319-.0181531-.0789662-.0376678-.1661012-.0562747-.2650358l-.7828541-.8173451c-.1706395.1034729-.3303871.1928771-.478789.2754739-.3471788.1942386-.621745.3476326-.8082685.5600243-.3517171.3998229-.6553283.9158259-.8786119,1.4926419-.6671279,1.7272712-1.0651354,3.6356199-1.2167141,5.8339651-.2137532,3.1055483.3426405,6.2691866,1.8039682,10.2583389.0127072.0349448.0372139.0744279.063536.1157263Zm.6103993-9.511791c.0031768-.124349.0916734-.2078534.1629244-.2754739.0199685-.018607.0399369-.0367601.0558209-.0553671l.1611091-.1942386.124349.219653c1.1590779,2.0463126,1.4758502,3.10101,1.5393862,5.1282618l.0013615.0517364-.1366024.2305449c-.2246451.3857542-.4565514.7846694-.9421479.9829925l-.0789662.0322218-.073974-.0426599c-.0431137-.0249606-.0971193-.0481058-.1511249-.0717049-.1724548-.0753355-.3512632-.153394-.3716855-.3235797-.2437059-2.0149984-.338556-3.8738799-.2904502-5.6823863Z" fill="#423b30" stroke-width="0"/>
        <path d="m26.9611985,19.6424993c-.0923495,0-.174978-.0133664-.2503158-.0400991-.1822688-.0668319-.3159326-.204141-.4082821-.4094972-.009721-.0206571-.0243025-.0437445-.038884-.0668319l.2454553-.1956352-.2600368.1689024c-.038884-.0571109-.0729075-.1142218-.09721-.1834839-1.4775923-4.0257099-2.0389801-7.22878-1.8226878-10.3808148.155536-2.2297548.5613879-4.1666644,1.2394277-5.9237355.2357343-.6124231.5589576-1.1616597.9356464-1.5869535.2211528-.252746.5297946-.4252938.8894717-.6257895.1676873-.0947798.3135023-.1761932.4690383-.2697578l.2114318-.1288033,1.0182749,1.0620194.019442.0899193c.0170118.0935646.0364538.1761932.0534655.2515309.0437445.19442.0729075.3292989.058326.4690383-.2648973,2.7899275.2065713,5.4607728,1.4435688,8.1656415.5322248,1.1592295,1.1179152,2.707299.9356464,4.4133348l-.029163.1032856c-.9405069,1.9344794-.9891119,1.9733634-3.2055003,3.4910548l-.5686786,1.3500041-.1117915.0510353c-.2867696.1312335-.5273643.1956352-.7266449.1956352Zm-.0364538-.6245744s.0923495.0328084.3961308-.0899193l.5419459-1.2892479.0729075-.0510353c2.1847952-1.494604,2.2042372-1.5091855,3.0548248-3.2553205.145815-1.5347032-.3961308-2.9612602-.8870414-4.0342158-1.2856025-2.8081544-1.7765131-5.5835004-1.4970343-8.4852195.0024303-.0437445-.0170118-.1385243-.038884-.2381645-.019442-.0753378-.0340235-.1433848-.048605-.2126469l-.5492366-.5747542c-.0850588.048605-.165257.0935646-.243025.136094-.3499561.1968503-.6051324.3390199-.7558079.5103526-.3280838.3730434-.6124231.8578784-.8238549,1.4010394-.6537374,1.6987451-1.0450077,3.5773287-1.1956832,5.7438969-.2114318,3.0596853.3402351,6.1837723,1.7862341,10.1292839l.038884.0631865-.2673275.1591814.2867696-.1288033c.0267328.0437445.0510353.087489.0729075.1348789.0243025.0510353.0437445.077768.0558958.0814134h0Zm1.0547287-3.133808l-.2017108-.1190823c-.0243025-.0121513-.058326-.0279479-.0947798-.0437445-.2308738-.1020705-.5419459-.2369494-.5808299-.5844752-.2478855-2.0231835-.3426653-3.8981217-.2940603-5.7268852.0048605-.2515309.1701175-.4058518.2576065-.4896955l.4787593-.5711089.3499561.6087777c1.1908227,2.105812,1.514046,3.1897037,1.5796628,5.2736435l.0024303.0911344-.0437445.1312335-.1385243.2308738c-.2357343.4058518-.5054921.8712448-1.0887522,1.1106245l-.2260133.0887041Zm-.2600368-.8202095c.0145815,0,.1215125.0461748.184699.0753378.0510353.0218723.0899193.0400991.1215125.0546806.3475258-.165257.5346551-.4860501.7315054-.8262852l.0947798-.155536c-.068047-1.9041012-.3693981-2.9248064-1.4095453-4.7888085-.0048605.0060756-.009721.0109361-.0121513.0145815-.048605,1.79474.0461748,3.6356547.2891998,5.6260298h0Zm-.2940603-5.6211693v.0024303-.0024303Z" fill="#423b30" stroke-width="0"/>
      </g>
    </g>
  </g>
</svg>