<?xml version="1.0" encoding="UTF-8"?>
<svg id="Layer_2" data-name="Layer 2" xmlns="http://www.w3.org/2000/svg" viewBox="0 0 249.8443966 356.5827809">
  <g id="Layer_1-2" data-name="Layer 1">
    <g>
      <path d="m6.5782055,111.9898191c1.1616211-.159668,2.0566406-.6733398,2.7368164-1.5708008l.4829102-.6381836.5019531.6235352c.0563965.0703125.1105957.1303711.1599121.1855469.1381836.1538086.2722168.3032227.364502.5083008.8825684,1.9677734,1.3034668,4.0639648,1.2512207,6.230957-.020752.8432617-.0056152,1.7041016.0090332,2.5371094.0356445,2.0390625.0725098,4.1479492-.3925781,6.2412109-.145752.65625-.2495117,1.3442383-.3498535,2.0102539-.0878906.5834961-.1740723,1.1552734-.2858887,1.7211914-.159668.8071289-.3491211,1.605957-.5327148,2.378418-.1105957.4663086-.2150879.9072266-.314209,1.3496094-.1008301.449707-.1943359.9008789-.2878418,1.3530273-.1760254.8491211-.3581543,1.7270508-.588623,2.5888672-.4755859,1.7788086-.9865723,3.4941406-1.5183105,5.0981445-.3552246,1.0708008-.4887695,2.2241211-.6179199,3.3388672-.0644531.5576172-.1291504,1.1142578-.2189941,1.6679688-.1235352.7617188-.253418,1.5229492-.3830566,2.2841797-.1455078.8535156-.2861328,1.6777344-.4189453,2.5029297-.0883789.550293-.1711426,1.0668945-.1662598,1.5566406l.005127.6450195c.0078125,1.1606445.0158691,2.3603516.1428223,3.5112305.1875,1.7026367.4619141,3.3598633.815918,4.9257812.5407715,2.3945312,1.7609863,4.5234375,3.1818848,6.8603516.6745605,1.1083984,1.2216797,2.1381836,1.0859375,3.5146484-.0036621.0366211-.0029297.0629883-.0012207.0795898.012207-.012207.0671387-.0087891.1479492-.0219727.2280273-.0366211.456543-.0615234.713623-.0888672l.1474609-.0166016c.5869141-.7714844.4401855-1.7983398.2961426-2.3525391-.2226562-.855957-.6450195-1.7099609-1.0537109-2.5356445-.1689453-.3408203-.3352051-.6772461-.4909668-1.015625-.154541-.3359375-.3222656-.6669922-.4897461-.9980469-.2937012-.5795898-.5974121-1.1796875-.8356934-1.8129883l-.1616211-.4262695c-.517334-1.3588867-1.0522461-2.7651367-1.1245117-4.3305664-.0571289-1.2387695-.1340332-2.4765625-.2111816-3.7138672l-.0053711-.0864258c-.0522461-.8408203-.1044922-1.6811523-.1499023-2.5219727-.0144043-.2641602.0410156-.5107422.0856934-.7089844l.0378418-.1757812c.0810547-.4277344.166748-.8603516.2524414-1.2924805.1799316-.9111328.3603516-1.8227539.5073242-2.7226562.0837402-.5097656.1416016-1.0249023.199707-1.5395508.079834-.7036133.1623535-1.4301758.3081055-2.1455078.2617188-1.2880859.6191406-2.5634766.9650879-3.796875l.1225586-.4375c.1789551-.6411133.373291-1.2788086.5681152-1.9165039.2978516-.9755859.5981445-1.9589844.8354492-2.9311523.8007812-3.277832,1.427002-6.5332031,1.861084-9.6748047.0373535-.2705078.0957031-.5395508.1540527-.8085938.0842285-.3852539.1635742-.7485352.1677246-1.0932617.0393066-3.3339844.0405273-6.2680664.0039062-8.9702148-.0307617-2.2768555-.8168945-4.5458984-2.402832-6.9355469-.2988281-.4501953-.5649414-1.0185547-.2741699-1.8173828,1.1325684-3.1113281,1.359375-6.4233398,1.4301758-8.9604492.0153809-.5541992.0354004-1.1083984.0551758-1.6625977.0725098-2.0371094.1474609-4.1381836-.0019531-6.1943359-.1132812-1.5585938-.2109375-2.9013672-.6445312-4.21875-.0610352-.1850586-.0961914-.3710938-.1325684-.578125-.0292969-.1669922-.052002-.3032227-.0986328-.4311523-.0776367-.2138672-.1516113-.4311523-.2255859-.6484375-.2189941-.644043-.4257812-1.2519531-.7370605-1.7832031-1.1657715-1.9931641-2.6569824-3.7431641-3.9621582-5.1923828-.9899902-1.0996094-1.9086914-2.2124023-2.2709961-3.7387695-.1396484-.5883789-.3256836-1.1879883-.5056152-1.7675781-.2011719-.6479492-.4074707-1.3125-.5622559-1.9936523-.192627-.8500977-.3137207-1.7177734-.4306641-2.5566406-.0529785-.3803711-.105957-.7592773-.1652832-1.1367188-.1064453-.6787109.0756836-1.3276367.5268555-1.8779297.3354492-.4082031.6655273-.8227539.9953613-1.2363281l.0561523-.0708008c.895752-1.125,1.8222656-2.2885742,2.8476562-3.3461914.2912598-.2998047.5898438-.5917969.8891602-.8837891.5864258-.5732422,1.1894531-1.1625977,1.706543-1.7963867,1.5441895-1.8930664,3.1315918-3.9726562,4.2814941-6.3500977,1.6733398-3.4604492,2.2658691-7.2988281,1.8115234-11.7338867-.013916-.1362305-.0654297-.2973633-.119873-.4677734l-.0388184-.1220703c-.142334-.4580078-.2749023-.918457-.4077148-1.3789062-.3122559-1.0849609-.6257324-2.1743164-1.0446777-3.1801758-.2094727-.5029297-.4006348-1.0151367-.5910645-1.5258789-.4943848-1.3276367-.9611816-2.5820312-1.7353516-3.6269531l-.1879883-.2539062.0927734-.3017578c.2023926-.6582031.4226074-1.3076172.6416016-1.9536133.4980469-1.4672852.9667969-2.8481445,1.2167969-4.2758789.2558594-1.4589844.2954102-2.9580078.3374023-4.5449219.019043-.7158203.0383301-1.4414062.0776367-2.1772461l.0319824-.5922852,1.2758789.0029297c.4890137.0029297.9575195.0043945,1.427002-.0048828l1.0512695-.019043c1.1655273-.0195312,2.486084-.0415039,3.748291-.1132812.5119629-.0292969,1.0639648-.1987305,1.5974121-.3623047l1.1889648-.3588867c1.2255859-.3657227,2.4919434-.7436523,3.6889648-1.2119141.6503906-.2543945,1.3024902-.5410156,1.9331055-.8183594,1.4575195-.6401367,2.9301758-1.2871094,4.5273438-1.652832,1.2685547-.2905273,2.5375977-.6625977,3.7648926-1.0219727.987793-.2890625,1.970459-.5761719,2.9477539-.8251953,1.4033203-.3574219,2.8293457-.5703125,3.9147949-.7158203,2.2202148-.2988281,4.1430664.5336914,6.001709,1.3374023l.3217773.1391602c.5683594.2446289.8920898.7373047.9111328,1.387207.0227051.7802734.2416992,1.5234375.6506348,2.2084961.4953613.8295898,1.1403809,1.3027344,1.9716797,1.4472656.5456543.0922852,1.3154297-.2910156,1.4030762-.6166992.4311523-1.6030273.1977539-2.6508789-.7810059-3.5029297-.1022949-.0883789-.192627-.1923828-.3120117-.3354492l-.6291504-.7255859.5603027-.4008789c.126709-.0908203.2453613-.1816406.3601074-.2695312.2749023-.2104492.5466309-.4189453.8569336-.5830078,2.4445801-1.2910156,4.8552246-1.8935547,7.375-1.8188477.8466797.0195312,1.7165527-.0073242,2.4848633-.03125,1.1186523-.034668,2.2338867-.0683594,3.340332.0029297,2.0847168.1313477,4.1767578.4697266,6.1408691.8051758,1.1049805.1894531,2.2028809.5200195,3.1750488.956543.7338867.3300781,1.3903809.7900391,2.0253906,1.2353516.2019043.1416016.385498.2700195.5705566.3945312,1.8725586,1.2636719,3.7490234,2.4067383,6.112793,2.5205078,1.6787109.0791016,3.2631836.1557617,4.7646484-.3754883,2.3083496-.8178711,4.322998-1.5922852,6.1591797-2.3676758,3.296875-1.3920898,6.9926758-2.4375,11.2983398-3.1958008.4963379-.0878906,1.0004883-.1479492,1.4880371-.2055664.9995117-.1191406,1.9416504-.2314453,2.8476562-.5683594.7138672-.2646484,1.59375-.3300781,2.3549805-.1762695,1.6960449.34375,2.994873,1.3046875,3.6574707,2.7060547.3083496.6523438.6220703,1.1767578,1.1135254,1.5771484.4941406-.8085938.4541016-1.7553711-.1218262-2.8930664-1.1020508-2.1782227-2.965332-3.0449219-5.8620605-2.7270508-.5083008.0561523-1.0131836.2060547-1.5478516.3647461-.4060059.1201172-.8256836.2436523-1.2543945.3286133-.5563965.1098633-1.1152344.1796875-1.6557617.2470703-.4477539.0561523-.8654785.1083984-1.2797852.1801758-4.1367188.7124023-7.7016602,1.6479492-10.8984375,2.8603516-.3876953.1469727-.7841797.2705078-1.1811523.3935547-.3896484.1206055-.7590332.2348633-1.1196289.3725586-.4729004.1801758-.9396973.3769531-1.4064941.5742188l-.0637207.0268555c-.8322754.3520508-1.6931152.7163086-2.5849609.9897461-1.9133301.5859375-3.8120117.6884766-5.6435547.300293-1.548584-.3271484-3.0515137-1.0512695-4.5944824-2.2138672-1.6040039-1.2080078-3.0092773-1.9487305-4.4226074-2.3305664-1.3972168-.3764648-2.6599121-.7084961-3.9597168-.9526367-1.2824707-.2407227-2.4187012-.3754883-3.473877-.4121094-1.166748-.0405273-2.361084-.0371094-3.5161133-.0327148-.8901367.0019531-1.7521973.0063477-2.6137695-.0078125-2.8820801-.0498047-5.314209.418457-7.4372559,1.4365234-.2207031.1064453-.4362793.2661133-.6645508.4350586-.1264648.0942383-.253418.1879883-.3830566.2749023l-.4528809.3076172c-.5212402.3540039-1.0427246.7084961-1.5766602,1.0424805-.3347168.2089844-.7746582.1665039-1.0495605.065918-.378418-.1367188-.7607422-.3081055-1.1345215-.5092773-2.4106445-1.2983398-4.890625-1.7280273-7.369873-1.2768555-1.6987305.309082-3.411377.7871094-5.0678711,1.25-.4934082.1376953-.963623.2695312-1.4343262.3974609-.8952637.2436523-1.7973633.5307617-2.6699219.8085938l-.1262207.0400391c-.3664551.1162109-.7333984.2324219-1.1010742.3461914-.4301758.1328125-.8615723.2612305-1.2929688.3896484-.9650879.2875977-1.9384766.5776367-2.8703613.9091797-.6838379.2431641-1.3688965.527832-2.0314941.8032227-.7380371.3066406-1.4621582.6079102-2.1962891.8671875-2.5041504.8857422-5.4997559,1.7597656-8.7290039,1.5214844-.324707-.0244141-.6530762-.0195312-.9990234-.0131836l-.0791016.0014648c-.1838379.0039062-.3720703.0073242-.5629883.0073242h-.6254883l.003418-2.0146484c.003418-1.0454102.0065918-2.046875-.0090332-3.0483398l-.0046387-.4672852c-.005127-.6918945-.0102539-1.4072266-.1369629-2.0571289-.3815918-1.9594727-1.4431152-3.5615234-3.154541-4.7626953-.4067383-.2861328-.8383789-.378418-1.2502441-.2661133l-.2646484.0668945c-.6982422.1669922-.7785645.2626953-.7963867.5673828-.0166016.2866211-.1938477.5600586-.5124512.7905273-.3847656.2773438-.6164551.6518555-.498291,1.5791016.0703125.5551758.0864258,1.1044922.1020508,1.6352539.0073242.246582.0136719.4599609.0239258.6704102l.0268555.550293-.5429688.0952148q-2.5476074.4487305-3.6555176,1.3989258l-.1569824.1342773c-.5246582.4487305-.6025391,1.034668-.6928711,1.7138672.0102539.1499023.4296875.6386719.567627.7993164l.1713867.2016602c.2272949.2734375.5393066.5185547.8798828.6928711,2.416748,1.2402344,4.6193848,2.2866211,7.1079102,2.53125.2558594.0258789.4562988.1347656.6174316.222168.0488281.0263672.0981445.0537109.1496582.0766602l.4116211.1835938-.0454102.4501953c-.0429688.4238281-.090332.8427734-.1374512,1.2587891-.1081543.9555664-.2075195,1.8354492-.2575684,2.7275391-.1184082,2.109375-.6279297,4.2495117-1.6035156,6.7353516-.3571777.9091797-.854248,1.4428711-2.1193848,1.0917969-.9614258-.2670898-1.9150391.0112305-2.7336426.2924805-.7741699.2661133-1.2717285.6318359-1.565918,1.1508789-.1994629.3520508-.4504395.6430664-.6933594.9248047-.0925293.1079102-.1765137.2050781-.2570801.3041992-.300293.3710938-.4143066.6699219-.3811035.9990234.0378418.3745117.2121582.6264648.5205078.9609375.2990723.3237305.6645508.5063477,1.0876465.7182617.2463379.1230469.4890137.2451172.7216797.3920898.9851074.6235352,2.0222168.6948242,2.998291.2045898.480957-.2412109.9179688-.6474609,1.3806152-1.0771484.2414551-.2236328.4663086-.4321289.701416-.6279297l.5683594-.4736328.3723145.6391602c.0625.0927734.1584473.2358398.2287598.4101562.2434082.6010742.4836426,1.203125.7241211,1.8056641.3950195.9907227.7905273,1.9814453,1.1994629,2.9667969.7358398,1.7734375,1.1169434,3.6411133,1.1645508,5.7094727.050293,2.1875-.3256836,4.3642578-1.1494141,6.6542969-.8549805,2.3764648-2.1503906,4.5761719-3.8505859,6.5385742-.2424316.2802734-.4714355.5913086-.6931152.8920898-.4133301.5610352-.838623,1.1386719-1.3908691,1.6074219-1.9824219,1.6850586-3.5458984,3.6606445-5.2399902,5.8813477-.7609863.9975586-1.0012207,2.0766602-.7561035,3.3959961.0727539.3916016.138916.7841797.2050781,1.1767578.2128906,1.2626953.4326172,2.5664062.8806152,3.7739258.2087402.5625.3793945,1.1435547.5444336,1.7050781.1662598.565918.3381348,1.1508789.5478516,1.7045898.2104492.5546875.5402832,1.1289062.9541016,1.659668.4282227.5488281.8876953,1.0864258,1.3320312,1.605957.5478516.6411133,1.1142578,1.3037109,1.6350098,1.9995117.7741699,1.0351562,1.6508789,2.2070312,2.215332,3.5053711.5314941,1.2207031.9020996,2.6142578,1.1013184,4.1420898.184082,1.4033203.206543,2.8344727.2282715,4.2182617l.0158691.9047852c.0080566.3920898-.0305176.7739258-.0678711,1.1430664-.0410156.4038086-.0795898.784668-.0544434,1.1469727.1328125,1.925293-.1035156,3.8208008-.3320312,5.6542969-.0744629.5991211-.1445312,1.1621094-.2038574,1.7255859-.0688477.65625-.2333984,1.2734375-.4077148,1.9267578-.0769043.2875977-.1552734.581543-.2263184.8852539l-.189209.8085938-.7246094-.4052734c-.1508789-.0839844-.2858887-.1645508-.4104004-.2387695-.2302246-.1367188-.3972168-.2363281-.5651855-.3046875-.2172852-.0883789-.4335938-.1845703-.6503906-.28125-.5717773-.2548828-1.1113281-.4951172-1.6481934-.578125-1.1384277-.1777344-2.2927246.1396484-3.4333496.9414062-.9431152.6630859-1.7272949,1.6240234-2.3977051,2.9370117-.2390137.4682617-.5585938,1.3505859-.012207,2.0019531.3955078.4716797,1.0598145.8310547,1.5944824,1.0913086h.0002441c.8461914.4125977,1.8398438.6298828,3.1274414.684082.4819336.0219727,1.0388184.0375977,1.5554199-.0336914ZM12.8760571,11.178784c-.0021973.1806641-.0678711.3149414-.1157227.4130859l-.2717285.6259766-.5224609-.1386719c-2.1379395-.5654297-4.4072266-1.2587891-6.5168457-2.4912109l-.4726562-.2758789.2111816-.5048828c.4455566-1.0649414,1.4492188-1.0922852,1.7790527-1.1015625.519043-.0112305,1.0849609.0356445,1.7851562.1542969.3300781.0546875.7802734.0737305,1.050293-.1499023.2036133-.168457.310791-.4765625.3190918-.9160156.0087891-.4438477-.064209-.9013672-.1413574-1.3857422-.0441895-.2768555-.0878906-.5537109-.1179199-.8305664-.0466309-.4277344-.0817871-.8574219-.1210938-1.3388672l-.1584473-1.8691406,1.0158691.5429688c.0942383.050293.1791992.0883789.2529297.121582.2109375.0947266.4318848.1943359.5935059.4082031.4594727.6074219.8820801,1.2324219,1.2346191,1.7641602.1691895.2553711.2651367.5600586.2634277.8359375-.0126953,2.0454102-.0393066,4.0908203-.0668945,6.1362305Zm-4.9377441,19.2177734h-.0002441c-.21875.1044922-.4545898.1572266-.7011719.1572266-.4858398,0-.9970703-.2114258-1.4396973-.5952148l-.369873-.3217773.2233887-.4355469c.5595703-1.0908203,1.4978027-1.2460938,2.2514648-1.3706055.112793-.0185547.222168-.0366211.3303223-.0576172l.7199707-.1411133.0246582.7333984c.0322266.9467773-.3562012,1.7060547-1.0388184,2.03125ZM1.7207837,109.6045652l.2841797-.5600586c.7294922-1.4389648,1.7209473-2.2880859,2.8666992-2.4550781,1.1530762-.1645508,2.3642578.3759766,3.5063477,1.5786133l.298584.3149414-.1904297.3901367c-.3820801.7832031-1.0219727,1.3447266-1.8500977,1.6245117-.3959961.1337891-.8320312.2016602-1.2961426.2016602-.9399414,0-1.9973145-.28125-3.0578613-.8134766l-.5612793-.28125Z" stroke-width="0"/>
      <path d="m246.8594555,342.9361082c-1.7399902-1.5625-3.8408203-2.6513672-6.4228516-3.328125-.5598145-.1474609-1.1474609-.2587891-1.7155762-.3671875-.3129883-.0595703-.5876465-.1113281-.859375-.1669922l-.6069336-.1240234.3630371-1.8671875c.1782227-.9296875.3562012-1.8574219.5578613-2.7783203.4516602-2.0634766,1.2192383-4.0356445,2.2814941-5.8603516.920166-1.5805664,1.6137695-3.1347656,2.1203613-4.7509766.2666016-.8486328.4758301-1.6157227.3383789-2.40625-.0568848-.3256836-.0341797-.6289062-.012207-.921875.0119629-.1586914.0227051-.296875.0192871-.434082l-.0036621-.203125c-.0129395-.7436523-.0229492-1.3305664-.4318848-1.8330078-.3005371-.3701172-.5825195-.7705078-.8310547-1.1235352-.2565918-.3642578-.5148926-.7304688-.7902832-1.0678711-.8818359-1.081543-1.814209-2.378418-1.7126465-4.0883789l.0344238-.5883789h.5893555c.331543,0,.6594238.003418.9853516.0068359l.1274414.0009766c.6967773.0068359,1.3547363.0117188,2.0231934-.0175781.3745117-.0170898.7592773-.065918,1.1313477-.1132812.5024414-.0649414.9892578-.1269531,1.4868164-.1367188.7539062-.0136719,1.3161621-.4345703,1.967041-.9213867l.3562012-.2631836c.1030273-.0742188.2072754-.2597656.2106934-.3261719.0126953-.2294922.0317383-.4633789.0507812-.6977539.0610352-.7416992.1237793-1.5043945-.0556641-2.1196289-.4729004-1.6225586-1.6525879-2.8754883-3.5065918-3.7236328-.809082-.3691406-1.7026367-.1689453-2.6489258.0419922l-.28125.0625c-.3972168.0869141-.7504883.3061523-1.0732422.5302734-.6618652.4584961-1.1828613,1.0727539-1.7861328,1.7836914-.1984863.234375-.4035645.4760742-.623291.7231445l-.9145508,1.0317383-.1728516-1.3681641c-.0710449-.5629883-.145752-1.105957-.2185059-1.6357422-.1650391-1.2011719-.3203125-2.331543-.4077148-3.4760742-.0922852-1.2099609-.1262207-2.7929688.4343262-4.3085938.1450195-.3911133.3383789-.7866211.5910645-1.2094727.1069336-.1796875.2456055-.3041992.3569336-.4038086.0422363-.0385742.1020508-.0927734.1171875-.1132812.6689453-1.3427734,1.760498-2.2504883,2.8161621-3.128418l.0554199-.0458984c.2004395-.1669922.4006348-.3334961.5966797-.5039062,1.4833984-1.2841797,2.5976562-2.7392578,3.4067383-4.4472656.0302734-.0644531.0576172-.1313477.0852051-.1982422.0849609-.206543.1843262-.4482422.3496094-.6616211.4436035-.5732422.6123047-1.2856445.7910156-2.0400391l.1186523-.487793c.0275879-.1074219.0371094-.2163086.0476074-.3256836.0219727-.2241211.0439453-.418457.0983887-.6103516.5446777-1.9213867.697998-4.012207.4829102-6.5800781-.1086426-1.2939453-.3635254-2.612793-.6098633-3.8886719-.1071777-.5537109-.2141113-1.1074219-.3105469-1.6621094-.0310059-.1791992-.0876465-.3535156-.1435547-.5273438-.1091309-.3393555-.1911621-.5825195-.2736816-.8256836-.1560059-.4614258-.3117676-.9233398-.4438477-1.3911133-.1433105-.5063477-.2739258-1.0161133-.404541-1.5263672-.1540527-.6010742-.3081055-1.2021484-.4831543-1.7973633-.2175293-.7382812-.5056152-1.4584961-.7324219-2.003418-.9648438-2.3188477-1.2272949-4.7744141-1.4814453-7.1489258l-.0620117-.5776367c-.4140625-3.8046875-.3647461-7.1586914.1513672-10.2529297.1081543-.6484375.2539062-1.2729492.4082031-1.934082.0715332-.3061523.1428223-.6123047.2119141-.9262695l.1872559-.8515625.7463379.4511719c.9824219.59375,1.9316406.5893555,3.0532227.4018555.5251465-.0869141.8063965-.3110352,1.0041504-.7993164.3942871-.9736328.7924805-2.1386719.7556152-3.3984375-.0161133-.5522461-.1411133-.9682617-.404541-1.3491211-.1696777-.2441406-.2646484-.2661133-.4807129-.2089844l-.3422852.0917969-.2543945-.2485352c-.3591309-.3496094-.6223145-.2841797-1.4089355.1479492-.5969238.3261719-1.1035156.6689453-1.6401367,1.03125-.2475586.1679688-.5012207.3388672-.7661133.5117188l-.5661621.3691406-.3723145-.6821289c-.5529785-1.0126953-1.125-2.0605469-1.2927246-3.2915039-.2084961-1.5292969-.0390625-3.0361328.1247559-4.4936523l.0874023-.7973633c.2307129-2.2158203.9206543-4.3046875,1.5878906-6.324707l.3068848-.934082c.2790527-.859375.6865234-1.6557617,1.0808105-2.4257812.4904785-.9584961.9519043-1.8598633,1.1765137-2.8549805.0922852-.4077148.2312012-.7919922.3652344-1.1630859.0715332-.1977539.1416016-.3911133.2036133-.5869141.3845215-1.2109375.7617188-2.5048828.7841797-3.8442383.0109863-.6699219.1062012-1.3720703.282959-2.0869141.3408203-1.3774414.6772461-3.0043945.5891113-4.6245117-.0888672-1.644043-.5749512-3.3032227-1.0036621-4.7670898-.7695312-2.6289062-1.9487305-5.1630859-3.5046387-7.5322266-1.2988281-1.9780273-2.0800781-3.7763672-2.4584961-5.659668-.0473633-.2338867-.0883789-.4707031-.1293945-.7070312-.0412598-.2373047-.0766602-.4394531-.1164551-.640625-.0134277-.0678711-.0336914-.1005859-.0412598-.1083984.0048828.0058594-.0266113.0058594-.0805664.0229492-.236084.078125-.2329102.1513672-.2294922.2290039.0166016.3935547.0571289.8178711.1245117,1.2973633.0285645.2036133.0410156.4111328.0524902.6191406.0288086.5073242.0515137.9082031.331543,1.2099609.1677246.1811523.1877441.3911133.190918.4985352.1081543.3808594.2143555.7729492.3205566,1.1655273l.019043.0708008c.2524414.9345703.512207,1.8964844.8662109,2.7832031.4782715,1.1977539,1.0351562,2.3955078,1.5734863,3.5541992.3464355.7456055.6765137,1.4555664.9921875,2.1723633.123291.2797852.185791.5571289.2463379.8256836.0498047.2207031.0957031.4243164.1677246.5908203.3735352.8662109.7158203,1.8168945.4519043,3.0727539-.1557617.7407227-.1091309,1.5444336-.0598145,2.3950195.0202637.3530273.0405273.7021484.046875,1.0488281.0009766.0498047.0297852.1635742.0510254.2460938.0708008.277832.1674805.6577148-.043457,1.0102539-.2646484.440918-.2580566.9443359-.2504883,1.5268555.0048828.3964844.0097656.8017578-.0686035,1.222168-.5141602,2.7558594-1.0695801,5.4379883-2.2023926,7.9521484-.8430176,1.8720703-1.8000488,4.1103516-2.5056152,6.5229492-.8908691,3.0449219-1.1464844,6.1445312-1.2697754,8.5048828-.0061035.1152344.0109863.2314453.0263672.3476562l.0227051.1757812c.2668457,2.2709961,1.3505859,4.2822266,2.4821777,6.1176758l.1357422.2197266-.0593262.2519531c-.126709.5371094-.2573242,1.0654297-.3867188,1.5874023-.2941895,1.1875-.5720215,2.3095703-.7805176,3.4560547-.2145996,1.184082-.348877,2.4824219-.4106445,3.9692383-.0742188,1.7895508-.0708008,3.3833008.0107422,4.8730469.0759277,1.3862305.2844238,2.7954102.5095215,4.2373047.3498535,2.2392578,1.020752,4.2978516,1.9938965,6.1176758l.1030273.1831055c.2243652.3901367.5053711.878418.3364258,1.3720703-.1069336.3120117-.0368652.4643555.2854004.9306641l.1320801.1938477c.234375.3530273.378418.6928711.4299316,1.0131836l.1953125,1.1889648c.2519531,1.5263672.5126953,3.1049805.6882324,4.6772461.1467285,1.3173828.1838379,2.6552734.2197266,3.949707l.0202637.7138672c.0251465.8369141.0537109,1.7856445-.0734863,2.7207031-.0805664.5942383-.2629395,1.1547852-.4394531,1.6967773-.0703125.2158203-.1357422.4169922-.1948242.6186523-.7089844,2.4179688-1.6750488,4.2265625-3.0402832,5.6923828-.5795898.621582-1.192627,1.1923828-1.7856445,1.7441406l-.3212891.2973633c-.8764648.8095703-1.7810059,1.6450195-2.2106934,2.7524414-.1135254.2915039-.3117676.512207-.5048828.7128906-.9211426.9545898-1.1289062,2.21875-1.348877,3.5566406l-.0839844.5024414c-.0791016.4570312-.0493164.9550781-.0178223,1.4829102l.0209961.3813477c.0200195.4135742.0544434.824707.0888672,1.2353516.041748.5004883.0817871.9824219.0993652,1.4648438.0930176,2.4829102.6132812,4.3554688,1.6374512,5.8925781.4389648.6586914.5119629,1.2475586.5253906,1.7851562.0698242,2.8095703.8347168,5.0361328,2.338623,6.8066406.3388672.3984375.6965332.824707,1.0200195,1.2719727.1650391.2280273.3671875.5834961.3918457.9833984.0649414,1.0170898.1384277,2.1704102-.1628418,3.3442383-.2578125,1.003418-.6459961,2.3154297-1.3642578,3.5644531-.2741699.4765625-.5197754.9946289-.7570801,1.4951172-.1638184.3452148-.3271484.6899414-.5014648,1.0283203-.4719238.9155273-.8100586,1.9013672-1.0334473,3.012207-.1364746.6806641-.2919922,1.3574219-.4477539,2.0351562-.1628418.7060547-.3205566,1.3916016-.4580078,2.0791016-.125.6298828-.1689453,1.1582031-.1337891,1.6152344.0583496.7617188-.2243652,1.2783203-.3486328,1.4648438l-.1513672.2265625-.2687988.0439453c-.9072266.1464844-1.798584.2792969-2.6777344.4101562-2.0136719.2998047-3.9157715.5839844-5.8046875.9980469-1.6755371.3681641-3.3525391.9375-4.9741211,1.4873047-.4604492.1572266-.8947754.3046875-1.3300781.4482422-.8742676.2880859-1.7536621.6181641-2.6044922.9375-.6174316.2304688-1.2348633.4619141-1.8564453.6806641-.9316406.328125-1.7192383.8330078-2.4077148,1.5419922-.394043.4042969-.8039551.7919922-1.2097168,1.1738281l-.7770996.7392578-.3364258-.0859375c-.1171875-.0302734-.2365723-.0546875-.355957-.0791016-.3273926-.0673828-.6484375-.1347656-.9663086-.2851562-1.6081543-.7548828-3.4460449-.9306641-5.6201172-.5283203-2.1779785.3994141-4.3713379,1.2236328-6.7058105,2.5195312l-.6018066.3359375c-1.550293.8691406-3.1520996,1.7666016-4.9726562,2.2177734-2.515625.6191406-4.9887695,1.1611328-7.5869141,1.0800781-.9807129-.0380859-2.1201172-.1728516-3.1418457-.8945312l-.2636719-.1865234c-1.1247559-.7939453-2.2849121-1.6123047-3.4685059-2.3261719-3.0048828-1.8105469-6.2087402-2.5097656-9.520752-2.0703125-1.3476562.1777344-2.4462891.6171875-3.2653809,1.3056641-.8220215.6904297-1.7175293,1.234375-2.5834961,1.7607422l-.4619141.2822266c-1.0324707.6318359-2.4233398,1.3427734-4.0344238,1.2587891-1.0646973-.0566406-2.1442871-.0839844-3.0969238-.1083984-2.3615723-.0625-4.7995605-.1279297-7.1945801-.5263672l-.2167969-.0361328c-1.7583008-.2919922-3.576416-.59375-5.3330078-1.1035156-1.5578613-.453125-3.1096191-1.2412109-4.8833008-2.4785156-.6977539-.4863281-1.1542969-1.1132812-1.3959961-1.9150391-.0251465-.0839844-.046875-.1708984-.0681152-.2568359-.0356445-.1455078-.0661621-.2695312-.107666-.3535156-.1098633-.2216797-.4147949-.4238281-.7294922-.3857422-.104248.0029297-.3598633.0195312-.4377441.1923828-.3447266.7587891-.642334,1.4150391-.284668,1.9970703.3215332.5253906.7216797,1.1787109,1.2084961,1.5039062,1.9621582,1.3115234,4.0168457,2.2802734,6.1069336,2.8818359,3.048584.8769531,6.1591797,1.1396484,9.8918457,1.2636719.800293.0263672,1.6010742.0478516,2.4013672.0683594.9980469.0263672,1.9960938.0527344,2.9936523.0888672,1.0844727.0400391,2.059082.0458984,3.0092773-.2851562,1.7731934-.6191406,3.5148926-1.515625,5.4807129-2.8193359,1.2436523-.8242188,2.6721191-1.2431641,4.2453613-1.2441406,3.6376953.0263672,7.0083008,1.3681641,10.0205078,3.9863281,1.2456055,1.0830078,2.6582031,1.6904297,4.3181152,1.8564453,2.2661133.2285156,4.4750977-.2138672,6.6115723-.6435547,2.7429199-.5507812,5.2526855-1.6816406,8.1796875-3.2109375,2.1706543-1.1337891,4.7912598-2.3027344,7.769043-2.3730469,1.5224609-.0332031,2.8144531.2822266,3.9533691.9746094l.4099121.2490234-.1350098.4609375c-.0290527.0986328-.052002.1904297-.0737305.2763672-.052002.2041016-.1047363.4111328-.2041016.6132812-.2705078.5556641-.267334,1.1689453.0102539,1.9892578.1967773.5810547.916748,1.1035156,1.435791,1.0527344,1.486084-.1591797,2.1794434-.8095703,2.1218262-1.9892578-.0270996-.5625-.1809082-1.1523438-.3439941-1.7773438-.0849609-.3271484-.1689453-.6503906-.2424316-.9863281l-.0522461-.2363281.1218262-.2099609c.8596191-1.4853516,2.3781738-2.5673828,4.5134277-3.2177734l2.5100098-.765625c1.6923828-.5166016,3.3845215-1.0332031,5.0795898-1.5410156.8598633-.2578125,1.8344727-.5488281,2.8046875-.7509766,1.4382324-.2978516,2.8972168-.5361328,4.1845703-.7460938.4543457-.0742188.8920898-.1201172,1.4609375-.1767578l1.5383301-.1660156-.2062988,1.4824219c-.0637207.4628906-.1176758.8554688-.1777344,1.2470703-.4892578,3.1816406-.2336426,6.03125.7817383,8.7099609.0588379.1552734.138916.3017578.2185059.4492188.107666.1992188.203125.3789062.2800293.5664062.5864258,1.4316406,1.5090332,1.9824219,2.9870605,1.7851562l.137207-.0175781c.3278809-.0410156.6533203-.0820312.9741211-.1474609.7131348-.1416016,1.2233887-.5537109,1.5170898-1.2265625.576416-1.3183594.557373-2.7255859-.0639648-4.7021484-.0527344-.1679688-.1018066-.3369141-.1606445-.5419922l-.3713379-1.2695312,1.8623047.2441406c.6726074.0869141,1.2988281.1679688,1.923584.2597656.8427734.1220703,1.7236328.0273438,2.6159668-.2841797.3449707-.1220703.6733398-.4667969.878418-.9228516.185791-.4140625.2302246-.84375.1162109-1.1220703-.4145508-1.0097656-1.0078125-1.8535156-1.814209-2.578125Zm-7.5917969-34.4604492c.0358887-1.5170898.8564453-2.449707,1.515625-3.1992188.1120605-.1274414.2167969-.2460938.3171387-.3666992.8613281-1.0297852,2.6704102-1.0058594,3.651123-.3012695.4975586.3579102,1.0085449.7607422,1.375,1.2788086.3618164.5112305.503418,1.1708984.5585938,1.6337891.0500488.4174805-.0632324.8203125-.3195801,1.1342773-.2636719.3237305-.6503906.5224609-1.088623.5585938l-.2265625.0195312c-1.1813965.0996094-2.3771973.2001953-3.5651855.2163086-.4782715,0-.8842773-.1162109-1.2768555-.2290039-.1520996-.043457-.3029785-.0869141-.4533691-.1210938l-.4990234-.1118164.0117188-.512207Zm4.8688965-70.2792969c.3300781-.9467773.9765625-1.5043945,2.0344238-1.753418l.984375-.2314453-.7497559,3.1665039-2.505127-.5043945.236084-.6772461Zm1.5378418,107.8442383l-.4291992-.0595703c-.2312012-.0322266-.4638672-.0693359-.6965332-.1074219l-.0864258-.0136719c-.578125-.09375-1.1164551-.1806641-1.6550293-.203125h-.0002441c-.9650879-.0400391-1.9187012-.0107422-2.8334961.0908203-.2250977.0253906-.4221191.1328125-.5554199.3037109-.1391602.1787109-.1977539.4082031-.1650391.6474609.0749512.5537109.2521973,1.1542969.5119629,1.7382812.5349121,1.1982422.9165039,2.2363281,1.0405273,3.4101562.0852051.8085938.0021973,1.6054688-1.1704102,1.9560547-.1652832.0498047-.3317871.0742188-.4956055.0742188-.699707,0-1.2902832-.4501953-1.579834-1.2041016-.140625-.3662109-.2473145-.7363281-.3503418-1.0947266-.0537109-.1865234-.1071777-.3720703-.1655273-.5566406-.5249023-1.6621094-.6262207-3.4794922-.3181152-5.7207031.1113281-.8115234.1975098-1.6230469.2924805-2.5908203.0385742-.3935547.1433105-.9521484.6047363-1.2626953.3354492-.2285156.7602539-.2607422,1.2990723-.1005859l.2949219.0859375c1.4763184.4326172,3.0031738.8798828,4.4616699,1.5009766.6276855.2675781,1.1225586.7255859,1.6013184,1.1689453.1933594.1806641.3847656.3583984.5837402.5195312l.4018555.3261719-.5910645,1.0917969Z" stroke-width="0"/>
      <path d="m21.858479,342.8726316c-.4667969-.1552734-.9494629-.3154297-1.4282227-.4453125-.7397461-.2011719-1.5021973-.3720703-2.1750488-.5234375l-1.3845215-.3183594-.0319824-.4609375c-.0249023-.3583984-.0454102-.7128906-.0656738-1.0634766l-.0036621-.0634766c-.0473633-.8164062-.0917969-1.5869141-.1801758-2.3554688-.1962891-1.6992188-.4499512-3.4169922-.6950684-5.0791016-.0397949-.2695312-.0727539-.5117188-.1052246-.7529297-.1181641-.8754883-.2333984-1.7319336-.4611816-2.5161133-.2214355-.7612305-.4008789-1.5341797-.5744629-2.2817383-.1828613-.7871094-.3718262-1.6005859-.6054688-2.3789062-.0952148-.3168945-.1860352-.6362305-.2766113-.9550781-.5097656-1.7905273-.9907227-3.4794922-2.215332-4.8061523l-.2412109-.262207.1020508-.3408203c.0388184-.1303711.0803223-.2573242.1210938-.3818359.0866699-.2641602.1577148-.4804688.1987305-.6967773.4108887-2.1655273.8359375-4.4052734.7590332-6.6679688-.0471191-1.371582-.1123047-2.8271484-.3391113-4.2094727-.2055664-1.2524414-.5302734-2.5166016-.8442383-3.7397461l-.2392578-.9399414c-.2670898-1.0629883-.6599121-1.9243164-1.2016602-2.6337891-.3908691-.5126953-.8017578-1.0097656-1.2124023-1.5068359-.5014648-.6064453-1.0014648-1.2109375-1.4711914-1.8442383-1.0754395-1.4487305-1.8554688-2.597168-2.5292969-3.7236328-.5866699-.980957-1.0273438-1.9667969-1.3098145-2.9301758-.2653809-.9067383-.4699707-1.8364258-.6677246-2.7358398-.15625-.7104492-.3122559-1.418457-.4938965-2.1049805-.2373047-.8969727-.2824707-1.7958984-.3259277-2.6655273-.015625-.3164062-.03125-.6279297-.0561523-.9365234-.1115723-1.3876953.1040039-2.7871094.3125-4.1411133.0476074-.3085938.0952148-.6166992.1384277-.9238281l.057373-.4082031c.1784668-1.2822266.3630371-2.6079102.8029785-3.8544922l.1279297-.3642578c.4594727-1.3125.9338379-2.6679688,1.8125-3.8544922.267334-.3603516.5571289-.7016602.8374023-1.03125l.7382812-.8828125.8461914.5458984c.2250977.1474609.4030762.2641602.5874023.3701172,1.3220215.7578125,2.4245605.8828125,3.4716797.3964844.6503906-.3027344,1.3134766-.7504883,1.9179688-1.2944336.0754395-.0678711.2089844-.3515625.2460938-.8242188.0449219-.5786133-.1894531-1.1333008-.7839355-1.855957-.989502-1.2026367-2.4973145-1.6245117-3.9353027-1.1064453-.3413086.1240234-.677002.2651367-1.0407715.418457l-1.1713867.484375-.2302246-.5947266c-.0634766-.1635742-.1289062-.3227539-.1933594-.4785156-.142334-.3457031-.2893066-.7026367-.3979492-1.0727539-.6035156-2.0541992-1.1362305-4.1674805-1.6289062-6.4604492-.421875-1.9624023-.5717773-3.9931641-.4453125-6.0366211.0153809-.2485352.027832-.4975586.0400391-.746582.0397949-.8056641.078125-1.5849609.1953125-2.355957.1193848-.7861328.2915039-1.5673828.4580078-2.3227539.107666-.4887695.2111816-.9584961.3027344-1.4316406.4404297-2.2807617,1.527832-3.9638672,3.324707-5.1459961.640625-.4208984,1.2587891-.9428711,1.7883301-1.5092773,1.4196777-1.5214844,2.4169922-3.2724609,2.9638672-5.2036133.0395508-.1401367.0651855-.2866211.0910645-.4326172.0563965-.3154297.1179199-.6601562.2785645-.9863281.6086426-1.2353516.6853027-2.5703125.7666016-3.9838867.0322266-.565918.0656738-1.1484375.1359863-1.7304688.0039062-.034668-.0168457-.1416016-.0290527-.2055664l-.0253906-.1401367c-.0300293-.1860352-.067627-.3676758-.1049805-.5493164-.0859375-.418457-.1740723-.8496094-.1826172-1.3037109-.0197754-1.1103516-.2858887-2.2255859-.7910156-3.3149414-.3459473-.7456055-.6635742-1.5170898-.9707031-2.2631836-.6311035-1.5341797-1.2824707-3.1181641-2.2053223-4.512207-.1274414-.1938477-.1418457-.3999023-.1496582-.5107422l-.0791016-.5981445c-.0742188-.5415039-.1486816-1.0844727-.2160645-1.628418-.0959473-.7695312-.1875-1.5395508-.2668457-2.3110352-.1635742-1.5957031.092041-3.1362305.3391113-4.6264648.1206055-.7285156.2453613-1.4814453.3151855-2.215332.2260742-2.3857422.5373535-4.2026367,1.0097656-5.8925781.0141602-.0507812.0163574-.1040039.0202637-.1572266l.0126953-.1518555c.0290527-.2929688.0651855-.5834961.1015625-.8740234.0825195-.6591797.1589355-1.2729492.154541-1.8833008-.0092773-1.1879883-.0991211-2.3955078-.2670898-3.5893555-.0471191-.3339844-.1237793-.4594727-.1494141-.4790039-.017334-.0063477-.1079102-.0078125-.2871094.0561523-.2629395.8056641-.3798828,1.7041016-.3671875,2.8149414.0053711.5141602-.0698242,1.0639648-.2365723,1.7299805-.142334.5693359-.2526855,1.15625-.359375,1.7241211-.1677246.8911133-.3410645,1.8125-.6398926,2.715332-.4172363,1.2612305-.496582,2.6103516-.5200195,3.8798828-.0175781.9375-.1611328,1.8647461-.2998047,2.7612305-.0944824.6118164-.1921387,1.2441406-.2456055,1.859375-.1169434,1.3491211-.1794434,2.9277344.2424316,4.4038086l.2885742,1.0258789c.5117188,1.8339844,1.0407715,3.7299805,1.8996582,5.456543.7348633,1.4770508,1.3249512,2.8549805,1.8037109,4.2119141.2424316.6865234.3195801,1.402832.3942871,2.0952148.0219727.2045898.0439453.4091797.0703125.6113281.2133789,1.6357422.2749023,2.9077148.199707,4.1245117-.0812988,1.315918-.4489746,2.5415039-.8044434,3.7270508-.2258301.7524414-.4592285,1.5288086-.6064453,2.3032227-.0812988.4267578-.3664551.7519531-.5957031,1.0131836-.1040039.1186523-.1916504.2167969-.2602539.3217773-.8579102,1.3149414-1.8989258,2.3881836-3.09375,3.1904297-1.6901855,1.1347656-2.7414551,2.534668-3.2141113,4.2797852-.8513184,3.1455078-1.3149414,5.9775391-1.416748,8.6582031-.0744629,1.965332.0527344,3.8662109.3779297,5.6508789.1650391.90625.4152832,1.8251953.6572266,2.7143555l.1679688.6196289c.5102539,1.8964844,1.0378418,3.8574219,1.6069336,5.7724609.1992188.6694336.0720215,1.1845703-.4255371,1.7226562l-.2851562.3041992c-.5070801.5400391-1.0285645,1.0952148-1.3735352,1.6943359-1.1975098,2.0805664-2.0183105,4.2519531-2.4396973,6.4541016-.3513184,1.8374023-.5285645,3.7504883-.6999512,5.6005859l-.0646973.6933594c-.0620117.659668.0095215,1.3745117.0786133,2.065918l.0788574.815918c.1015625,1.0698242.2062988,2.1757812.4150391,3.2290039.1191406.6010742.3127441,1.215332.5,1.809082.168457.5336914.3383789,1.0717773.4677734,1.6245117.4226074,1.8037109,1.0393066,3.293457,1.8850098,4.5541992.7734375,1.1533203,1.6000977,2.2993164,2.3996582,3.4077148.4973145.6894531.9946289,1.3789062,1.4829102,2.074707.1506348.2143555.3127441.4257812.4755859.6376953.520752.6791992,1.0405273,1.3569336,1.3046875,2.1625977.6396484,1.9487305,1.107666,3.9174805,1.390625,5.8510742.1359863.9296875.111084,1.8666992.0869141,2.7729492-.0161133.6000977-.0324707,1.2211914.0004883,1.8149414.0646973,1.1606445-.1276855,2.2646484-.3134766,3.3325195-.0751953.4321289-.1489258.8554688-.2060547,1.2817383-.0612793.4594727-.1887207,1.4150391-1.2150879,1.5952148-.2575684.0458984-.515625.0952148-.7736816.1445312-.8654785.1669922-1.7512207.3378906-2.6582031.355957-.4929199.0092773-.8737793.1513672-1.1323242.4223633-.3666992.3842773-.4306641.9462891-.4196777,1.3500977.0283203,1.0429688.6035156,1.7055664,1.8647461,2.1484375,1.2758789.4506836,2.3879395.1928711,3.3056641-.7646484.0930176-.097168.1806641-.2426758.302002-.4433594.0773926-.128418.1640625-.2714844.2697754-.4326172l.5891113-.8984375.4897461.956543c.1022949.1992188.1921387.359375.2683105.4951172.1572266.2797852.2785645.4956055.3461914.7573242.1982422.7685547.4042969,1.5356445.6103516,2.3027344l.0178223.0664062c.5593262,2.0825195,1.1359863,4.2294922,1.5563965,6.3808594.5234375,2.6757812,1.0908203,5.8417969,1.3310547,9.0371094l.0078125.1044922c.0671387.8876953.104248,1.3759766-.2490234,1.7646484-.354248.3896484-.8525391.4003906-1.7573242.4199219l-.1367188.0019531c-2.4152832-.0507812-4.8503418.2548828-7.4555664.9482422-2.0114746.5380859-3.3618164,2.2949219-3.4404297,4.4775391-.0146484.4091797.0563965.9453125.4797363,1.1787109.317627.1748047.5976562.3955078.8686523.609375.7883301.6210938,1.1755371.8486328,1.8359375.5566406.2521973-.1064453.6184082-.0771484.8334961.1865234.0554199.0712891.0681152.0771484.072998.0771484.0410156,0,.2185059-.0732422.2949219-.1044922.1647949-.0673828.3693848-.1513672.5947266-.1826172.1401367-.0185547.2854004-.0683594.4394531-.1201172.130127-.0439453.229248-.0771484.3317871-.1083984l.8049316-.2392578-.0009766,1.296875c-.0007324.2910156-.0012207.5488281.0014648.8066406l.0012207.5673828c-.0007324.4716797-.0014648.9316406.0354004,1.3759766.036377.4365234.2519531.6953125.6987305.8378906.1650391.0527344.3259277.1210938.4870605.1904297l.2338867.0976562c.9404297.3652344,2.3376465.0585938,2.651123-.4316406.2397461-.3730469.4980469-.7373047.7568359-1.1015625.7192383-1.0146484,1.3986816-1.9726562,1.6655273-3.0947266.1174316-.4951172.2998047-.9267578.4763184-1.3457031.1384277-.3291016.2587891-.6162109.3481445-.9179688.1894531-.6425781.3637695-1.2900391.5385742-1.9375l.1594238-.5878906c.0705566-.2597656.1379395-.5205078.2084961-.7929688l.2817383-1.0839844,1.3083496.4130859c3.2561035,1.0244141,6.331543,1.9921875,9.2263184,3.6669922l.4902344.2832031-.2338867.5166016c-.1074219.2353516-.2111816.4560547-.3103027.6660156-.2026367.4306641-.373291.7929688-.5185547,1.1708984-.3461914.8994141-.2355957,1.7226562.3383789,2.5166016.423584.5869141.8693848.9257812,1.4909668,1.1328125,1.2834473.4287109,1.7927246.3212891,2.4729004-.5195312.9277344-1.1474609,1.2045898-2.3242188.8466797-3.5996094-.0891113-.3173828-.1811523-.6337891-.2746582-.9541016l-.3029785-1.0439453.4462891-.2382812c1.9067383-1.0224609,3.7163086-1.5195312,5.5314941-1.5195312.6901855,0,1.3891602.0751953,2.0773926.2226562.8327637.1787109,1.668457.4316406,2.4057617.6542969l.4858398.1464844c2.8879395.8603516,5.1552734,2.4482422,6.9306641,4.8525391,1.5041504,2.0361328,3.5490723,3.6337891,6.0778809,4.7480469.9118652.4013672,1.909668.4951172,3.052002.28125,2.6928711-.4970703,5.0075684-1.2119141,7.076416-2.1845703,1.201416-.5654297,2.0761719-1.2353516,2.7529297-2.1064453l.3522949-.4619141c.5187988-.6855469,1.0515137-1.3896484,1.720459-1.9628906,1.0825195-.9306641,2.2514648-1.890625,3.5917969-2.5009766,1.0556641-.4814453,2.2507324-.5507812,3.4064941-.6171875l.2246094-.0136719c2.1894531-.1328125,4.5454102.0058594,7.2009277.4179688l.4550781.0654297c.5598145.0771484,1.1398926.1572266,1.7062988.3476562l.8920898.2958984c1.3278809.4335938,2.7019043.8828125,4.0085449,1.5888672,1.6298828.8808594,3.3244629,1.5830078,5.2114258,2.3457031.3891602.1572266.7744141.3261719,1.1599121.4960938,1.2814941.5644531,2.4885254,1.0966797,3.8320312,1.1679688.5856934.03125,1.142334.0966797,1.6542969.1943359,1.8044434.3398438,3.432373.609375,5.0788574.4833984.1435547-.0126953.286377-.0087891.4284668-.0039062.1047363.0058594.2053223.0107422.3051758-.0009766.5441895-.0449219,1.0842285-.0869141,1.6242676-.1289062,1.395752-.1083984,2.8391113-.2197266,4.2509766-.3925781,1.505127-.1835938,2.902832-.8955078,4.2546387-1.5839844.4702148-.2402344.9370117-.4775391,1.409668-.6953125,1.8654785-.8652344,3.154541-2.5615234,4.2697754-4.2646484.3498535-.5351562.5839844-1.2080078.8105469-1.8583984l.1530762-.4345703c.0717773-.2001953.0246582-.3378906.0004883-.3740234-.4643555-.0224609-.7109375.0644531-.9228516.3330078-.7873535.9970703-1.6242676,1.9501953-2.4333496,2.8720703-1.7451172,1.9902344-4.1538086,3.3398438-7.3635254,4.125-2.8417969.6962891-5.1955566.9580078-7.4042969.8095703-.3835449-.0234375-.7717285-.0224609-1.1586914-.0224609h-.1184082c-.7050781.0078125-1.510498.0107422-2.286377-.1396484-.498291-.0947266-1-.1796875-1.501709-.2646484-1.9780273-.3339844-4.0187988-.6796875-5.9099121-1.6816406-.4836426-.2548828-1.0056152-.4736328-1.5102539-.6855469-.6835938-.2861328-1.4584961-.6103516-2.1535645-1.0458984-1.416748-.8886719-2.7387695-1.5146484-4.041748-1.9150391-2.0151367-.6201172-4.0566406-1.0556641-6.067627-1.2958984-1.9685059-.234375-4.0637207-.296875-6.2275391-.1865234-3.4467773.1767578-6.2485352,1.53125-8.3271484,4.0273438-.6303711.7578125-1.251709,1.5214844-1.8688965,2.2910156-.5102539.6347656-1.1525879,1.1269531-1.9641113,1.5058594l-.4951172.2333984c-1.2414551.5888672-2.5256348,1.1972656-3.9987793,1.40625-.4594727.0664062-.9267578.1708984-1.378418.2724609-.4987793.1123047-1.0075684.2255859-1.5270996.296875-.5236816.0791016-1.1467285-.0087891-1.6621094-.2333984-1.5144043-.6533203-2.9689941-1.3427734-4.1137695-2.5830078-.1923828-.2080078-.3908691-.4101562-.5891113-.6123047-.4975586-.5058594-.9992676-1.0166016-1.4301758-1.6289062-1.1381836-1.6210938-2.3752441-2.7695312-3.7822266-3.5087891-1.0683594-.5625-2.1748047-1.0400391-3.5075684-1.5830078-3.9338379-1.6044922-7.8149414-1.4384766-11.5351562.4921875-.5568848.2890625-1.1879883.4941406-2.0334473.0566406-1.7277832-.9013672-3.6645508-1.6474609-6.0952148-2.3457031-.4094238-.1171875-.8146973-.2519531-1.2194824-.3857422l-.0620117-.0205078Zm-13.0976562-79.2011719c1.1638184-.8037109,2.1381836-1.0693359,3.1096191.2456055l.3364258.4545898-.4199219.3803711c-.5554199.5014648-1.029541.8354492-1.5380859.8354492-.5429688,0-1.0258789-.387207-1.5839844-.9692383l-.5078125-.5302734.6037598-.4165039Zm6.1064453,80.8544922c-.0292969.1816406-.0622559.359375-.0949707.5341797-.0705566.3789062-.1337891.7167969-.1538086,1.0419922-.0913086,1.4960938-.7407227,2.7333984-1.3686523,3.9306641l-.2705078.5195312c-.0627441.1230469-.1433105.2441406-.2253418.3632812-.0581055.0849609-.1560059.2275391-.1645508.2783203-.1142578.7041016-.5585938,1.0302734-.9506836,1.3183594-.1247559.0917969-.2529297.1855469-.3823242.3007812l-.8737793.7822266-.1616211-1.1621094c-.2160645-1.5488281.1003418-2.7822266.4431152-3.9111328.0332031-.109375.0703125-.21875.1074219-.3261719.0717773-.2089844.1398926-.40625.1635742-.5849609.0795898-.5957031-.0629883-.8173828-.6098633-.9511719.0258789.0097656-.0905762.046875-.3203125.1611328-.4233398.2119141-.833252.4257812-1.2431641.640625-.6118164.3212891-1.2885742.6767578-1.970459.9941406-.6098633.2861328-1.4526367.2841797-2.1469727-.0058594-.5148926-.2119141-.880127-.5507812-1.027832-.9541016-.1533203-.4160156-.0900879-.9257812.1784668-1.4335938.3669434-.6933594,1.0432129-1.2519531,1.7231445-1.4228516,2.1818848-.5507812,4.439209-.8330078,6.7087402-.8388672.3188477.0029297.6352539.0029297.9694824.0019531l1.7868652-.0009766-.1159668.7246094Zm14.048584,5.2021484l.4150391-.7919922.6010742.6621094c.704834.7773438.6621094,1.0751953.1730957,2.0107422l-.3591309.6865234-.5952148-.4960938c-.9194336-.7685547-.4396973-1.6816406-.2348633-2.0712891Z" stroke-width="0"/>
      <polygon points="21.9995922 342.6548582 21.9993481 342.6547361 21.9993481 342.6558348 21.9995922 342.6548582" stroke-width="0"/>
      <path d="m225.1597485,11.4463621c1.4941406.5883789,3.0380859,1.1958008,4.5969238,1.6474609,1.1955566.3466797,2.440918.6196289,3.6452637.8837891.5437012.1186523,1.0878906.2382812,1.6306152.3642578l.4833984.1123047v.496582c0,.2924805.0036621.5917969.0073242.8950195l.0007324.0668945c.0095215.7670898.0195312,1.5527344-.0192871,2.3457031-.0637207,1.296875.0144043,2.7866211,1.0778809,4.0014648.3354492.3828125.6459961.8022461.9199219,1.171875.2575684.347168.5021973.6772461.7670898.9897461.4946289.5839844,1.1564941,1.3432617,1.890625,2.0366211.3935547.371582.8183594.7275391,1.2290039,1.0722656.7346191.6162109,1.4794922,1.2407227,2.1276855,1.9902344,1.3574219,1.5683594,1.8984375,3.46875,2.2182617,4.949707.213623.9873047.3198242,1.9980469.4223633,2.9750977l.0563965.5341797c.1347656,1.2402344.2155762,2.2553711.2546387,3.1943359.0627441,1.5200195-.1164551,3.1025391-.564209,4.9799805-.0893555.3740234-.1582031.7539062-.2272949,1.1337891-.1298828.7158203-.260498,1.4370117-.510498,2.1303711-.3603516,1.0014648-.8171387,1.9643555-1.2590332,2.8955078-.1953125.4121094-.3754883.7924805-.5490723,1.1757812-.7006836,1.5458984-1.4367676,2.7670898-2.7519531,3.7026367l-.4465332.3173828-.373291-.4008789c-.7192383-.7749023-1.7336426-.7407227-2.795166-.6357422-.4448242.0444336-.871582.1972656-1.0878906.3896484l-.2250977.1948242c-.6047363.5151367-.8171387.7543945-.6547852,1.2373047.0651855.1928711.1206055.3901367.1757812.5874023.0866699.309082.1672363.5976562.2839355.8520508.2324219.5078125.371582.659668.4472656.6972656.6618652.3325195,1.4453125.6376953,2.2387695.3710938l2.5893555-.8666992.5898438,1.5693359c.2727051.7348633.5483398,1.4775391.8481445,2.1928711,1.0263672,2.4511719,1.4179688,5.0820312,1.7636719,7.402832.2243652,1.5043945.2800293,3.0200195.3251953,4.703125.0441895,1.6157227.0219727,3.1933594-.0661621,4.6884766-.0505371.8549805-.2492676,1.6723633-.5744629,2.3647461-.451416.9604492-1.0302734,1.8544922-1.590332,2.71875l-.1135254.1757812c-.2805176.4335938-.5817871.8535156-.8828125,1.2729492-.3259277.4541016-.6547852.9121094-.9475098,1.3774414l-.1542969.2451172c-.4685059.7416992-.9528809,1.5087891-1.2355957,2.2963867-.357666.9946289-.5305176,2.1010742-.677002,3.1499023-.0217285.1547852.0761719.4848633.2565918.7294922l.2792969.378418c.8903809,1.2084961,1.8063965,2.4516602,2.8081055,3.5625,1.1279297,1.2509766,2.4064941,2.668457,3.3581543,4.2963867.8278809,1.4169922,1.3964844,2.5976562,1.7895508,3.7163086.3178711.9052734.4956055,1.8505859.6674805,2.7646484.0705566.3745117.1391602.7392578.2165527,1.1005859.0405273.1870117.0041504.3520508-.0153809.4404297l-.0283203.6357422c-.020752.5151367-.041748,1.0371094-.0322266,1.5458984.0070801.4038086.0327148.8071289.0578613,1.2094727.0305176.4838867.0600586.9536133.0639648,1.4238281.0041504.5229492-.012207,1.046875-.0290527,1.5703125-.0263672.8334961-.0534668,1.6928711.0131836,2.5131836.126709,1.5703125-.1794434,3.0874023-.963623,4.7744141-.1008301.2172852-.2287598.4130859-.3735352.6274414-.1252441.1865234-.2404785.3579102-.3027344.5185547-.3950195,1.0209961-1.0644531,1.7949219-1.7121582,2.5429688l-.2851562.331543c-.3422852.4013672-.6894531.8017578-1.0368652,1.2011719-.9799805,1.1269531-1.9931641,2.2924805-2.8759766,3.5092773-1.3969727,1.9257812-1.9091797,4.1904297-1.480957,6.5493164.0495605.2729492.0703125.5488281.0883789.7924805.0383301.5068359.0715332.9433594.310791,1.3393555l.5415039.8994141c1.0979004,1.8295898,2.2316895,3.7192383,3.6113281,5.3676758,1.5239258,1.8208008,1.5751953,5.0200195.1079102,6.7119141l-.230957.2597656c-.2409668.2675781-.4677734.519043-.6157227.7851562-.6923828,1.2421875-1.3081055,2.3652344-1.8327637,3.5341797-.6013184,1.3408203-1.0070801,2.4335938-1.2773438,3.4394531-.3713379,1.3803711-.5820312,2.784668-.7392578,3.9765625-.1333008,1.0043945-.2607422,2.1850586-.1970215,3.3261719.0449219.7963867.213623,1.6230469.3769531,2.421875.0637207.3110352.1264648.6191406.1833496.9277344l.1074219.6079102c.119873.690918.2431641,1.4033203.4516602,2.0517578.0109863.034668.0688477.1533203.3640137.3632812.0554199-.0517578.1040039-.1035156.1279297-.1396484.1435547-.2133789.2351074-.4545898.2392578-.6298828.032959-1.2753906.0332031-2.5732422.0334473-3.828125l.0004883-.9003906c.0004883-.3100586-.0061035-.6186523-.0126953-.9272461-.0222168-1.0615234-.045166-2.1591797.2077637-3.2910156.166748-.7451172.3088379-1.4936523.4509277-2.2436523.2438965-1.2885742.4909668-2.59375.8574219-3.8789062.5710449-2.0014648,1.4309082-3.7548828,2.6281738-5.359375.526123-.7055664.9667969-1.4765625,1.4475098-2.3383789.0742188-.1333008.095459-.309082.0883789-.3554688-.2746582-.6030273-.2094727-1.1757812-.1516113-1.6806641l.03125-.2973633c.0844727-.9799805-.4052734-1.8852539-.8413086-2.5639648-.3327637-.5175781-.6845703-1.0229492-1.0361328-1.527832-.3737793-.5366211-.7473145-1.0732422-1.0986328-1.6240234-.2392578-.375-.4511719-.7709961-.6560059-1.1538086-.2436523-.4575195-.4733887-.8886719-.7519531-1.2895508-.7509766-1.0810547-1.5273438-2.1987305-1.043457-3.7490234-.359375-1.6958008.3220215-3.1635742,1.0390625-4.3779297.5600586-.9467773,1.2666016-1.7924805,1.949707-2.6098633.2854004-.3422852.5480957-.6567383.8012695-.9765625.2370605-.2993164.4814453-.5932617.7260742-.8876953l.0402832-.0483398c.4638672-.5571289.9436035-1.1333008,1.3527832-1.7260742.5737305-.8305664,1.0661621-1.7524414,1.5422363-2.644043l.0603027-.112793c.7055664-1.3203125,1.0476074-2.7529297,1.0158691-4.2573242-.003418-.1674805-.0126953-.3354492-.0219727-.5029297-.0170898-.3066406-.0322266-.59375-.0266113-.8808594.0446777-2.1757812.0532227-4.5117188-.1821289-6.8535156-.0534668-.5322266-.0895996-1.0673828-.1254883-1.6025391-.0554199-.8300781-.1125488-1.6884766-.2419434-2.5141602-.2666016-1.7011719-.5529785-3.222168-1.3591309-4.6025391-.2163086-.3701172-.425293-.7451172-.6337891-1.1196289-.6843262-1.2285156-1.3273926-2.3837891-2.222168-3.3901367-.3857422-.434082-.7385254-.8930664-1.079834-1.3374023l-.5939941-.7680664c-.5244141-.6748047-1.0668945-1.3735352-1.5683594-2.0869141l-.1828613-.2529297c-.359375-.4907227-.7668457-1.0473633-.8161621-1.6962891-.1079102-1.4365234.2873535-2.8129883,1.112793-3.8759766.2724609-.3505859.5249023-.7182617.7770996-1.0859375.6032715-.8793945,1.2133789-1.7680664,2.0778809-2.4858398.1142578-.0947266.2250977-.3154297.2668457-.3989258.189209-.3774414.371582-.7592773.5539551-1.140625.2556152-.534668.5117188-1.0693359.7854004-1.5947266.842041-1.6137695,1.0192871-3.2226562.541748-4.9179688-.060791-.2138672-.0478516-.4633789.0356445-.6831055.2814941-.7441406.2165527-1.5463867.1474609-2.3955078-.015625-.1928711-.03125-.3852539-.0427246-.5766602-.0390625-.6450195-.1306152-1.309082-.2192383-1.9506836-.0668945-.4858398-.1337891-.9711914-.1816406-1.4584961l-.0561523-.5859375c-.2219238-2.3344727-.4313965-4.5385742-1.4550781-6.5839844-.1083984-.2172852-.1520996-.440918-.1872559-.6210938-.0205078-.105957-.0354004-.1889648-.0627441-.2670898l-.097168-.2773438c-.1921387-.550293-.3901367-1.1171875-.6210938-1.6459961-.1901855-.434082-.4072266-.8574219-.6586914-1.347168l-.6262207-1.2368164.3813477-.3178711c.1445312-.1196289.3054199-.234375.46875-.3491211.2854004-.2016602.578125-.4086914.7189941-.6328125.8532715-1.3569336,1.6708984-2.6928711,2.2927246-4.1162109.5778809-1.3222656,1.0761719-2.8212891,1.5227051-4.5820312.4916992-1.934082.8232422-3.6674805,1.0131836-5.2993164.1555176-1.3359375.0678711-2.753418-.0263672-3.9775391-.0908203-1.1748047-.2915039-2.3735352-.4855957-3.5327148l-.0895996-.5390625c-.1123047-.6796875-.2739258-1.4145508-.5090332-2.3125-.4682617-1.7919922-1.0700684-3.0673828-1.8937988-4.0131836-.7739258-.8886719-1.6608887-1.7158203-2.5185547-2.5161133-.4643555-.4335938-.9125977-.8520508-1.348877-1.2817383-.5969238-.5874023-1.0629883-1.0913086-1.4663086-1.5849609-.1503906-.1845703-.3088379-.362793-.4677734-.5410156-.5915527-.6635742-1.170166-1.3120117-1.4865723-2.1982422-.0856934-.0883789-.1311035-.2094727-.1430664-.2446289-.0561523-.1645508-.1186523-.3286133-.1813965-.4936523-.166748-.4384766-.3391113-.8916016-.416748-1.3862305-.0678711-.4335938-.0695801-.8603516-.0710449-1.2724609-.0012207-.3515625-.0024414-.659668-.0390625-.965332-.1838379-1.5361328-.2600098-2.171875,1.1699219-2.3666992.21875-.0302734.4797363-.065918.8063965-.1381836.2036133-.0454102.3859863-.0292969.532959-.015625,1.8479004.1357422,3.7243652-.078125,5.904541-.6660156,3.0700684-.8291016,4.5646973-3.8730469,4.4123535-6.315918-.0239258-.3837891-.1513672-.6098633-.4870605-.8657227-.7905273-.6015625-1.6774902-.815918-2.7163086-.6567383-.3720703.0576172-.7409668.1411133-1.1357422.2299805l-1.3898926.3012695v-.7724609c0-.1704102.0036621-.3320312.0073242-.4873047.0070801-.2983398.0131836-.5537109-.0102539-.7954102-.1494141-1.5424805-.951416-2.5957031-2.2001953-2.8896484-1.6538086-.3930664-2.918457.0786133-3.7575684,1.4013672-.109375.1723633-.2248535.3413086-.340332.5092773-.1904297.277832-.3588867.5234375-.5014648.7861328-.1159668.2138672-.2431641.4272461-.3708496.6416016-.3381348.5668945-.6540527,1.0966797-.7556152,1.6245117-.0595703.309082-.1237793.6181641-.1882324.9277344-.2958984,1.4199219-.5979004,2.8686523-.4111328,4.3066406.0493164.3803711.0693359.9282227-.3254395,1.2919922-.3999023.3666992-.9611816.2973633-1.3476562.2143555l-.4187012-.0883789c-.840332-.1762695-1.7097168-.3583984-2.5400391-.6835938-2.2336426-.8764648-4.486084-1.8076172-6.6643066-2.7080078l-2.3525391-.9707031c-2.3146973-.9506836-4.7089844-1.934082-7.1784668-2.387207-.2460938-.0449219-.4929199-.0942383-.7399902-.144043-.6652832-.1333008-1.3474121-.2700195-2.0014648-.3076172-2.9438477-.168457-5.3356934-.0317383-7.527832.4316406-2.3105469.4897461-4.2033691,1.0375977-5.9304199,2.121582-.8947754.5610352-1.9204102.8554688-2.9121094,1.1396484l-.1809082.0517578c-.838623.2412109-1.7023926.3183594-2.4367676.3623047l-.267334.0161133c-1.1437988.0712891-2.3256836.1435547-3.5952148-.222168l-.480957-.1386719.0527344-.8120117c.0163574-.2114258.0307617-.3930664.0270996-.5737305-.0041504-.2109375-.003418-.4228516-.0026855-.6357422.0019531-.5576172.0036621-1.081543-.0852051-1.5751953-.2084961-1.1601562-.9304199-1.9628906-2.032959-2.2602539-1.5483398-.418457-2.8720703-.3789062-4.0461426.1201172-.4536133.1928711-.9567871.706543-.9536133,1.1347656.0146484,1.9101562.7612305,3.3051758,2.2822266,4.265625.0532227.0332031.112793.0625.1726074.0922852.3217773.159668.8830566.4375.9755859,1.152832l.0563965.4379883-.3933105.199707c-1.0869141.5522461-2.1860352.6181641-3.2490234.6816406-.2084961.012207-.4104004.0244141-.6118164.0400391-2.0244141.1557617-4.3835449.3017578-6.7602539.0454102-1.6904297-.1826172-3.1879883-.8647461-4.5776367-2.0859375-1.1503906-1.0107422-2.1940918-1.9082031-3.3164062-2.6572266-1.5603027-1.0419922-3.3742676-1.5805664-4.7800293-1.9335938-3.0986328-.777832-5.8227539-.6586914-8.3271484.3637695l-.2941895.1206055c-1.0056152.4116211-2.045166.8369141-3.1162109,1.1577148-1.4714355.4394531-3.0244141.6738281-4.7480469.7158203-.4880371.0063477-.9230957-.0693359-1.4018555-.1640625-.348877-.0683594-.6784668-.1333008-.9985352-.1367188-2.2033691-.0258789-4.0529785-.8735352-6.0708008-1.8950195-2.111084-1.0673828-3.8681641-1.2021484-5.5307617-.4233398-1.0620117.4960938-2.2114258,1.1655273-2.6872559,2.3662109-.1589355.4018555-.2097168.878418-.2636719,1.3833008-.0114746.109375-.0229492.2158203-.0351562.3208008.2487793.1445312.4973145.2880859.7473145.4296875l.0588379-.1015625c.2402344-.4174805.467041-.8120117.7895508-1.1704102,1.5817871-1.7563477,4.1765137-2.2314453,6.4560547-1.1826172.2478027.1142578.4934082.2333984.7387695.3535156.876709.4267578,1.703125.8295898,2.6164551.9707031,2.6350098.40625,5.347168.824707,8.0300293.4487305,1.2773438-.1777344,2.5754395-.5566406,3.7956543-.9296875.4282227-.1303711.8457031-.3334961,1.2873535-.5488281.3222656-.1572266.6447754-.3134766.9755859-.4458008,2.0644531-.8271484,3.9414062-1.0537109,5.7390137-.6914062l.4370117.0869141c.8295898.1625977,1.6879883.3310547,2.5185547.6166992l.1455078.0493164c1.1447754.3925781,2.3283691.7988281,3.3671875,1.4667969.9023438.5805664,1.7297363,1.2729492,2.5300293,1.9423828.4624023.3867188.8903809.7451172,1.3305664,1.0854492.8999023.6967773,1.8703613,1.3886719,2.9682617,1.5332031,1.526123.2006836,3.0249023.3046875,4.4545898.3100586,1.5385742-.0117188,3.1503906-.128418,4.5625-.2436523l.1296387-.0102539c1.9384766-.1582031,3.9689941-.4233398,5.6103516-1.7524414.6030273-.4882812,1.2219238-.3481445,1.6303711-.2553711,1.3664551.3066406,2.7854004.3959961,4.3381348.2758789,2.208252-.1708984,4.0253906-.4853516,5.7158203-1.4663086,1.888916-1.0952148,3.8015137-1.7729492,5.6848145-2.0141602.9628906-.1225586,1.9428711-.2128906,2.890625-.2998047l.1479492-.0136719c.4304199-.0395508.861084-.0795898,1.2910156-.1225586,2.4423828-.25,4.980957.078125,7.5498047.9692383,1.8793945.6518555,3.7416992,1.4257812,5.5424805,2.1738281l-.0332031.2564697.0001221.000061.0958252-.2306519c1.0166016.4223633,2.0332031.8447266,3.0568848,1.246582Zm11.8154297.0375977c.0554199-.5224609.0917969-1.0400391.1279297-1.5507812.0866699-1.2353516.1687012-2.4023438.4946289-3.5517578.2797852-.9858398.9223633-1.8183594,1.543457-2.6235352.1818848-.2358398.3444824-.4467773.4978027-.6582031.4274902-.5927734,1.2124023-.7348633,1.9519043-.3530273.5922852.3061523.888916.8105469.8818359,1.4995117-.0124512,1.1826172-.4052734,2.2285156-.7851562,3.2397461l-.1203613.3212891c-.1247559.3359375-.1916504.6040039-.2104492.8422852-.0244141.2900391-.0251465.4580078-.0024414.5009766.0004883-.0048828.0092773.0073242.0585938.0244141.7443848.2729492.838623.1206055.8945312.0297852.6188965-.9921875,1.5595703-1.3969727,2.3894043-1.7539062.2575684-.1113281.4978027-.2143555.7282715-.3334961.7346191-.3774414,1.717041-.7421875,2.8041992-.2163086l.2939453.1425781.0505371.3232422c.2504883,1.590332-.5922852,2.6225586-1.449707,3.421875-1.1335449,1.0576172-2.5310059,1.2841797-3.7519531,1.4140625-.8410645.0893555-1.6831055.1328125-2.5739746.1328125-.9814453,0-2.0471191-.0532227-3.2580566-.1630859l-.6325684-.0576172.067627-.6308594Zm-49.8845215-2.8994141l-.2434082.3540039-.4177246-.1000977c-2.1799316-.5258789-3.3798828-1.7250977-3.668457-3.6665039v.0004883l-.0703125-.472168.4370117-.1923828c1.3637695-.6005859,2.5974121-.1210938,3.40625.2915039.510498.2592773.71875.9013672.8552246,1.4951172.1657715.7231445.2443848,1.5009766-.298584,2.2900391Z" stroke-width="0"/>
      <polygon points="244.8982739 130.3700071 244.898518 130.369885 244.8980297 130.3697019 244.8982739 130.3700071" stroke-width="0"/>
    </g>
  </g>
</svg>