<?xml version="1.0" encoding="UTF-8"?>
<svg id="b" data-name="Layer 2" xmlns="http://www.w3.org/2000/svg" width="142.461" height="194.928" viewBox="0 0 142.461 194.928">
  <g id="c" data-name="Layer 1">
    <g>
      <path d="m132.698,132.083c-.374-2.249-.853-4.437-1.316-6.467-.283-1.245-.563-2.272-1.003-3.234-.532-1.162-1.189-2.706-1.555-4.337-.331-1.48-.89-2.904-1.431-4.281-.119-.302-.237-.604-.354-.907-.051-.133-.113-.264-.174-.395-.221-.47-.471-1.003-.221-1.638-.001-.027-.064-.162-.163-.274-.316-.359-.56-.763-.796-1.153-.355-.587-.69-1.142-1.258-1.584-.822-.64-1.466-1.509-2.089-2.349-.141-.191-.282-.382-.426-.569-.679-.891-1.392-1.782-2.081-2.644-.655-.819-1.333-1.667-1.982-2.515-1.329-1.736-2.872-3.316-4.338-4.785-.446-.447-.883-.902-1.32-1.358-1.463-1.524-2.975-3.1-4.808-4.287-.484-.313-.944-.676-1.388-1.027-.545-.431-1.109-.876-1.713-1.222-1.746-.999-3.708-2.013-5.997-3.098-.64-.303-1.38-.463-2.094-.617-.157-.034-.313-.068-.468-.103-.459-.104-.936-.181-1.397-.255-.93-.15-1.892-.305-2.799-.694-.772-.332-1.572-.566-2.254-.752-1.076-.293-2.176-.569-3.241-.836l-1.292-.326c-.449-.114-.895-.236-1.341-.358-2.006-.549-3.9-1.066-5.859-.87-.387-.016-.734-.041-1.071-.064-.702-.048-1.365-.094-2.015-.064-2.34.109-4.843.242-7.293.478-1.678.161-3.377.439-5.019.708l-.561.092c-1.862.304-3.575.617-5.237.96-1.365.281-2.818.592-4.241,1.019-2.016.605-3.755,1.785-5.436,2.926-.592.402-1.205.817-1.822,1.203-1.712,1.07-3.362,2.217-4.889,3.298-1.635,1.157-3.407,2.458-5.416,3.977-.486.368-.924.824-1.348,1.264l-.13.135c-.288.299-.58.595-.873.89-.829.838-1.686,1.705-2.432,2.627-1.146,1.414-2.169,2.904-3.293,4.565-1.525,2.254-3.262,4.897-4.564,7.74-.484,1.055-1.063,2.078-1.623,3.067-.624,1.103-1.269,2.243-1.782,3.428-.841,1.94-1.715,4.275-1.824,6.888-.009.203-.013.409-.017.613-.011.579-.024,1.177-.135,1.754-.522,2.723-.819,5.69-.932,9.34-.007.206-.02.413-.032.62-.025.395-.05.803-.026,1.196.144,2.267.322,4.569.495,6.796.149,1.921.692,3.791,1.236,5.543.254.817.521,1.63.787,2.442.284.868.569,1.736.838,2.608.813,2.637,1.617,4.712,2.529,6.531l.698,1.396c.577,1.156,1.154,2.313,1.742,3.463.142.278.277.561.413.844.374.784.761,1.594,1.291,2.267.423.538.825,1.096,1.213,1.636.201.278.401.557.605.834.161.219.313.447.466.675.554.83,1.077,1.613,2.037,2.026.194.083.302.278.407.465.043.076.084.153.132.217.192.259.372.53.553.801.384.577.782,1.173,1.284,1.626,2.175,1.965,4.614,4.066,7.456,6.421,1.766,1.463,3.874,2.402,6.059,3.312.613.255,1.232.497,1.85.738.795.311,1.617.632,2.414.978.725.315,1.451.659,2.152.991,1.049.496,2.134,1.009,3.23,1.434,1.159.449,2.388.792,3.577,1.123.428.119.856.238,1.282.362,2.222.649,4.459.909,6.355,1.079.565.051,1.132.091,1.698.13.848.059,1.724.121,2.583.22,3.374.386,6.769.078,10.381-.942,1.036-.293,2.029-.307,3.041-.302l.241.002c1.299.014,2.642.024,3.914-.473,1.542-.603,3.224-1.168,5.143-1.73.303-.089.608-.173.912-.257,1.042-.288,2.121-.587,3.11-1.061.223-.107.444-.218.664-.329.338-.17.676-.34,1.021-.495.363-.164.731-.319,1.099-.474.398-.167.796-.334,1.188-.513.647-.297,1.29-.603,1.932-.909,1.18-.562,2.4-1.143,3.629-1.653,3.073-1.277,5.109-2.678,6.598-4.544.195-.243.387-.488.58-.732.453-.574.922-1.169,1.403-1.739.319-.378.685-.722,1.04-1.055l.132-.124c.104-.098.222-.184.34-.269.158-.113.307-.221.409-.353.412-.534.806-1.098,1.187-1.642l.412-.586c.071-.101.14-.203.208-.306.101-.151.201-.302.31-.447.328-.436.659-.87.99-1.305.592-.778,1.205-1.582,1.788-2.384.732-1.008,1.453-2.05,2.15-3.058l.613-.884c.045-.064.094-.128.143-.193.134-.174.272-.354.297-.521.124-.854.504-1.601.872-2.323.12-.236.24-.471.351-.711l.243-.522c.6-1.286,1.22-2.616,1.767-3.947.343-.836.656-1.7.959-2.537.243-.672.493-1.365.759-2.042,1.003-2.556,1.699-5.11,2.07-7.593.353-2.358.526-5.004.532-8.091.004-1.779-.299-3.597-.592-5.354l-.048-.286Zm-9.868-20.711c.285-.051.575-.103.869-.153l.118-.02.06.103c.039.066.079.13.118.193.086.137.175.28.243.432.218.491.436.982.656,1.473.62,1.39,1.262,2.826,1.85,4.257.423,1.029.805,2.092,1.176,3.121.178.496.357.991.54,1.485.142.382.286.763.429,1.144.265.702.529,1.403.782,2.109.057.161.068.329.081.541.007.109.014.233.03.379l.03.284-.266-.105c-.441-.176-.899-.207-1.342-.238-.558-.039-1.135-.079-1.676-.404-.166-.099-.459-.084-.718-.073l-.557.024c-3.279.142-6.67.288-10.003.459-.38.019-.761.033-1.144.048-1.273.047-2.59.097-3.834.343-1.205.238-2.431.348-3.618.453-.672.06-1.366.122-2.045.206-.853.106-1.723.189-2.564.27-1.035.099-2.106.202-3.15.347-1.357.188-2.732.414-4.062.632-1.14.187-2.318.381-3.481.55-.649.095-1.312.149-1.954.2-.577.047-1.173.095-1.752.172-1.226.164-2.47.359-3.672.547-.632.099-1.264.198-1.896.293-.158.024-.319.032-.496.04-.086.004-.178.008-.274.014l-.183.013-.066-9.811.093-.049c.708-.376,1.453-.472,2.173-.563l.224-.029c.941-.125,1.884-.236,2.826-.347,1.323-.155,2.691-.316,4.028-.516,1.68-.251,3.383-.551,5.028-.84.867-.153,1.733-.305,2.6-.451.572-.097,1.144-.185,1.717-.274.53-.082,1.059-.163,1.588-.252.578-.096,1.154-.203,1.766-.315l1.061-.194.043.151c.042.151.089.301.136.45.104.328.211.668.262,1.016.306,2.098.993,4.167,2.102,6.328.134.261.305.501.486.756.101.143.203.285.297.432.206.318.48.388.885.23.206-.081.409-.171.645-.276l.264-.116c-.004-.045-.008-.09-.012-.136-.018-.208-.036-.423-.095-.621-.091-.308-.253-.609-.408-.901-.526-.984-.745-2.057-.957-3.095-.051-.253-.103-.505-.159-.757-.229-1.03-.453-2.061-.669-3.093-.043-.206-.066-.417-.091-.64-.012-.111-.025-.227-.041-.352l-.018-.14,1.101-.376c.771-.263,1.532-.523,2.292-.789.715-.25,1.43-.502,2.144-.754,1.34-.472,2.68-.944,4.024-1.407l.13-.043c.238-.076.396-.126.499-.351.136-.297.692-.372.755-.379.499-.06,1-.108,1.501-.155.576-.055,1.151-.11,1.724-.184.606-.078,1.201-.184,1.831-.297Zm-6.921,20.359c.01.15.02.299.025.448.01.34.043.694.076,1.036.07.747.143,1.517-.009,2.246-.179.859-.203,1.715-.228,2.622-.022.76-.044,1.546-.162,2.365l-.024.165-.166-.018c-.426-.046-.844-.098-1.257-.149-.916-.114-1.782-.222-2.66-.262-1.178-.055-2.383-.037-3.549-.024-.35.005-.7.009-1.05.012l-.588.005c-2.006.016-4.081.031-6.12.076-.794.018-1.6.061-2.381.103-.528.029-1.057.057-1.586.078-.247.009-.497-.007-.738-.024-.104-.007-.208-.014-.311-.019l-.124-.006-.034-.119c-.455-1.565-.107-6.986.591-9.207l.032-.104.109-.016c.393-.054.792-.113,1.194-.172.935-.138,1.902-.28,2.871-.378,1.484-.15,2.999-.239,4.464-.324l.139-.009c.522-.03,1.045-.045,1.568-.059.578-.016,1.176-.032,1.76-.072.572-.039,1.155-.1,1.719-.159.597-.063,1.213-.127,1.824-.166,1.081-.068,2.163-.11,3.307-.155.51-.02,1.032-.04,1.571-.064l.355-.016-.207.289c-.503.702-.459,1.369-.411,2.077Zm-14.373,22.342c.089,1.267.093,1.315,1.065,2.242l.295.28-.407.018c-.124.005-.234.014-.334.022-.122.01-.233.019-.34.019-.07,0-.137-.003-.205-.014-.905-.13-1.809-.266-2.712-.402-1.27-.191-2.54-.381-3.812-.557-1.095-.153-2.194-.249-3.224-.335l-.27-.022c-1.415-.118-2.879-.241-4.319-.305-.684-.031-1.382-.018-2.058-.004-.382.007-.764.015-1.146.015-.316.006-.596-.016-.918-.034-.143-.008-.291-.016-.447-.024l-.172-.008.007-.172c.072-1.777.139-3.438.382-5.105.03-.205.061-.411.094-.617.15-.958.305-1.949.21-2.888-.045-.449.01-.876.064-1.29.072-.554.138-1.077-.014-1.65l-.051-.191.196-.025c3.427-.441,6.848-.569,10.157-.693,1.719-.064,3.497-.131,5.238-.241,2.009-.127,3.657-.103,5.187.076l.213.025-.07.203c-.157.453-.311.897-.463,1.332-.37,1.059-.719,2.059-1.049,3.073-.131.402-.214.832-.295,1.248-.028.141-.055.282-.084.422l-.139.657c-.343,1.605-.697,3.264-.579,4.949Zm-52.939,8.129c.024-.236.047-.474.066-.71.048-.66.399-1.028,1.104-1.157,1.409-.257,2.816-.532,4.222-.805,1.021-.199,2.042-.398,3.065-.591l.116-.022c1.884-.355,3.833-.721,5.758-1.032,1.46-.235,3.043-.449,4.981-.672.542-.063,1.086-.076,1.663-.09.27-.007.547-.014.834-.026l.178-.007.002.178c.03,2.471.123,5.113.887,7.852l.057.207-.215.012c-5.97.323-11.896,1.156-17.627,1.961-1.526.215-3.053.43-4.585.636l-.157.021-.035-.155c-.263-1.173-.39-2.426-.41-4.062-.006-.516.046-1.036.096-1.54Zm-7.886-2.144l-.061-.117c-1.816-3.444-2.734-7.202-3.706-11.182l-.098-.402.174-.037c.791-.17,1.581-.342,2.371-.514,4.508-.983,9.17-2,13.847-2.354l.15-.011,2.454,11.311-.168.036-14.963,3.271Zm38.667-29.652l.071.166-.168.064c-.066.025-.128.054-.188.081-.139.064-.283.129-.44.143-.915.08-1.831.153-2.747.226-.783.062-1.566.124-2.349.191-.779.066-1.557.14-2.336.213-1.515.143-3.082.291-4.628.382-1.131.066-2.283.072-3.396.077-.711.003-1.423.007-2.133.025-.734.02-1.482.063-2.204.105-.412.024-.825.048-1.238.068-.015,0-.03,0-.045,0-.09,0-.179-.013-.265-.026-.046-.006-.093-.014-.143-.018l-.098-.011-.041-.09c-.319-.7-.226-1.386-.137-2.05.017-.124.033-.247.047-.368.196-1.767.438-3.558.672-5.289l.174-1.295c.04-.295.097-.58.162-.909.031-.155.064-.318.096-.493l.027-.143.146.002c7.977.117,14.447-.128,20.369-.762l.194-.02-.003.195c-.011.799-.059,1.602-.107,2.379-.151,2.481-.295,4.825.707,7.157Zm13.071,3.101c.014.609.028,1.239-.087,1.875-.157.874-.078,1.815-.002,2.725.03.364.061.728.078,1.089.011.259.057.522.105.799.024.137.048.277.069.422l.028.186-.188.011c-.794.051-1.584.096-2.371.141-1.767.101-3.595.206-5.377.364l-.18.016c-2.427.214-4.939.436-7.431.441-1.79.003-3.616.074-5.382.143-.783.031-1.567.061-2.354.086l-.186.006.008-.187c.009-.179.019-.357.03-.535.022-.38.045-.774.044-1.157-.001-.365-.016-.731-.03-1.097-.022-.542-.043-1.103-.022-1.656.036-.964.13-1.74.296-2.439.153-.647.725-1.076,1.569-1.175,2.485-.292,5.075-.581,7.696-.86,1.432-.152,2.866-.295,4.299-.438.928-.093,1.854-.185,2.781-.28.685-.07,1.371-.142,2.056-.214,1.116-.118,2.233-.236,3.35-.343.244-.023.483-.003.74.017.12.01.247.02.38.026l.195.009-.033.193c-.107.622-.093,1.236-.079,1.832Zm-24.256,12.124c.422.355.776.338,1.261-.055.326-.265.353-.549.091-.951-.053-.08-.066-.167-.084-.278-.009-.057-.02-.126-.039-.212l-.039-.18.182-.028c3.404-.522,6.822-.581,10.31-.581h.641l-.004.177-.282,11.306-.175-.007c-7.046-.263-14.366.287-21.756,1.637l-.158.029-.041-.155c-.457-1.751-.728-3.542-.991-5.274-.278-1.831-.565-3.724-1.071-5.56l-.049-.18.183-.035c3.302-.641,6.734-1.018,10.493-1.155l.078-.003.053.057c.163.17.315.338.461.501.313.345.609.672.936.946Zm-16.676,24.163c1.798-.35,3.645-.551,5.432-.745.79-.086,1.577-.171,2.356-.269l.201-.025-.006.202c-.041,1.336.307,2.592.642,3.808l.047.17c.241.873.518,1.732.811,2.642.132.409.268.827.402,1.256l.061.194-1.038.15c-.586.084-1.144.163-1.699.254-.73.119-1.462.23-2.194.34-1.814.274-3.689.558-5.499.967-1.114.251-2.183.676-3.316,1.126-.522.207-1.054.418-1.604.618l-.109.039-.078-.085c-.631-.69-1.048-1.565-1.45-2.41-.238-.499-.484-1.015-.773-1.494l-.126-.207c-.723-1.191-1.471-2.423-1.413-3.995l.004-.113.105-.042c.049-.02.102-.043.157-.068.141-.063.302-.134.476-.178.834-.211,1.665-.433,2.496-.654,1.994-.53,4.056-1.08,6.115-1.48Zm9.867-1.192l-.087-.205.22-.034c.201-.031.398-.064.592-.097.429-.073.834-.143,1.252-.18l2.331-.21c2.826-.256,5.748-.521,8.628-.71.904-.061,1.825.033,2.718.124.354.036.708.072,1.061.099.547.041,1.092.099,1.618.154.237.025.47.049.697.072l.16.016-.245,9.605-.176-.008c-.321-.015-.647-.039-.977-.062-.744-.053-1.514-.109-2.268-.064-.641.037-1.279-.028-1.893-.092-.45-.047-.915-.095-1.373-.1-.572-.005-1.143-.003-1.713-.002-.507.003-1.011.003-1.518,0-.488-.003-.976-.013-1.464-.022-.617-.011-1.234-.024-1.851-.024h-.03c-.769,0-1.538.018-2.33.034l-1.205.024-.034-.133c-.221-.875-.403-1.771-.58-2.639-.372-1.832-.757-3.727-1.533-5.548Zm14.826-3.414c-.809-.048-1.62-.095-2.432-.147l-.103-.006-.043-.093c-.236-.503-.421-5.767-.278-7.933l.01-.154.155-.007c3.173-.143,6.411-.007,9.544.124,2.49.104,5.063.213,7.65.185l.254-.003-.091.237c-1.126,2.944-1.374,5.721-.782,8.74l.045.228-.231-.022c-.859-.084-1.709-.17-2.553-.255-1.913-.194-3.72-.377-5.569-.526-1.854-.149-3.745-.259-5.576-.367Zm6.855,3.289l.006-.106.098-.043c1.024-.447,1.978-.337,2.899-.233l.061.007c4.239.484,7.718,1.105,10.949,1.954.334.089.674.159,1.046.238.186.039.38.08.586.126l.187.041-.06.182c-.146.442-.294.879-.44,1.314-.339,1.004-.659,1.952-.956,2.929-.297.981-.57,1.994-.834,2.973-.12.444-.24.89-.363,1.337l-.039.141-.146-.015c-4.799-.5-8.972-1.133-13.133-1.993l-.136-.028-.002-.138c-.039-2.823.103-5.603.278-8.685Zm10.518-1.419c-1.23-.28-1.53-.493-1.426-1.808.083-1.046.188-2.106.289-3.132.057-.578.115-1.156.168-1.735.011-.122.016-.246.021-.37.02-.509.042-1.086.536-1.572l.064-.063.732.132.476-.876.126.025c1.656.334,3.357.599,5.002.856,3.411.532,6.938,1.083,10.322,2.277l.185.065-.088.176c-1.291,2.568-2.681,5.673-3.21,9.235l-.029.195-.189-.054c-.62-.176-1.222-.351-1.812-.523-1.294-.377-2.517-.733-3.757-1.05-2.229-.571-4.585-1.136-7.411-1.778Zm16.62-71.568l.092-.132.138.082c2.095,1.246,10.085,11.052,11.088,12.747l.12.203-4.377,1.026-.048-.153c-.391-1.244-1.209-2.124-2.237-3.146-1.033-1.026-1.919-2.217-2.776-3.368l-.484-.647c-.397-.528-.754-1.093-1.1-1.64-.236-.372-.471-.745-.72-1.108-.282-.41-.559-.728-.847-.971-.492-.415-.849-.499-1.236-.29-.327.177-.68.922-.541,1.307.087.243.172.488.257.732.345.99.7,2.013,1.203,2.931,1.037,1.893,2.554,3.427,3.76,4.552.293.274.647.507.988.732.172.114.345.228.511.347.297.213.592.428.911.66l.651.473-.154.143c-.08.074-.145.145-.203.207-.12.129-.224.241-.368.297l-1.535.599c-2.264.886-4.605,1.801-6.927,2.654-1.717.632-3.452,1.161-5.07,1.64-.421.125-.862.178-1.29.23-.264.032-.529.064-.79.113-.807.15-1.613.306-2.419.462-1.261.245-2.565.497-3.852.722-.928.161-1.877.28-2.795.394-.347.043-.695.086-1.042.132l-1.155.151c-2.379.312-4.759.624-7.14.924-.688.086-1.41.146-2.207.183l-2.006.094c-2.328.111-4.735.226-7.105.285-1.413.036-2.85.021-4.236.007-.926-.009-1.853-.018-2.777-.014-2.515.012-5.18.041-8.387.091-.152.003-.303.003-.454.003-1.443,0-2.825-.109-4.116-.328l-.159-.026.016-.161c.284-2.869,1.137-5.555,1.961-8.153.486-1.532.989-3.116,1.353-4.684l.032-.141.144.007c.459.022.908.047,1.35.072,1.007.057,1.957.111,2.914.111.708,0,1.43-.051,2.129-.101.507-.036,1.014-.072,1.521-.09.381-.012.765.009,1.137.029.251.014.503.028.755.032.626.009,1.252.014,1.878.019.878.007,1.756.014,2.633.032.33.007.655.047,1,.089.164.02.334.041.511.059l.188.02-.036.186c-.048.249-.099.486-.147.716-.1.469-.194.912-.247,1.353l-.082.67c-.187,1.535-.382,3.123-.479,4.688-.038.595.072,1.221.179,1.826.034.19.068.38.097.569q.117.753.953.813c.124.009.237.014.361.018l.111.005c.334-.406.294-.926.255-1.43l-.008-.105c-.162-2.207.255-4.437.591-6.228.047-.249.099-.497.151-.744.053-.253.106-.505.153-.759.28-1.516.391-1.596,1.936-1.457l.09.008c.894.081,1.818.165,2.726.212,2.658.14,5.508-.192,8.964-1.043.881-.217,1.771-.467,2.631-.709.5-.141.999-.281,1.5-.416.109-.03.216-.026.338-.022.056.003.12.003.187.003l.14-.002.031.136c.057.245.117.489.177.732.132.536.27,1.09.362,1.644.226,1.355.955,2.425,1.638,3.294.619.786,1.251,1.562,1.884,2.338.455.558.91,1.115,1.36,1.677.218.27.431.357.738.297.17-.034.376-.026.563.023.205.053.455.107.55.044.064-.042.11-.166.145-.39.134-.873.007-1.522-.411-2.104-.883-1.228-1.816-2.554-2.656-3.941-.43-.709-.751-1.489-1.061-2.242l-.196-.473c-.147-.351-.253-.713-.365-1.098-.051-.174-.103-.353-.161-.538l-.051-.163.163-.053c.303-.098.606-.199.909-.299.65-.215,1.3-.43,1.956-.628.901-.271,1.804-.536,2.706-.801,1.412-.414,2.872-.842,4.299-1.289.831-.261,1.649-.622,2.441-.971l.251-.11c.321-.143.561-.325.596-.455.18-.664.675-.828,1.153-.987l.103-.034c.49-.166.977-.336,1.465-.508.432-.151.863-.303,1.296-.451l.093-.031c.432-.144.657-.238.635-.655-.009-.184.13-.336.243-.457.034-.037.067-.071.089-.103Zm-55.002,26.095l-.019.19c-.053.541-.111,1.075-.167,1.604-.128,1.205-.25,2.343-.327,3.504-.077,1.157-.107,2.304-.139,3.518-.014.543-.029,1.094-.048,1.656l-.005.162-20.476.623.047-.216c.068-.317.127-.617.184-.907.119-.609.232-1.184.403-1.736.269-.867.574-1.738.867-2.58.217-.62.434-1.24.639-1.864.322-.978.631-1.961.941-2.943.213-.675.425-1.35.642-2.024.051-.159.124-.309.203-.469.039-.078.079-.161.12-.251l.056-.122.132.024c6.138,1.099,11.337,1.831,16.757,1.831h.191Zm37.973-36.728c2.104.253,3.747.747,5.168,1.555.642.365,1.322.697,1.98,1.017.484.236.968.472,1.444.723.488.258.982.574,1.509.965l.805.594c1.082.797,2.2,1.62,3.244,2.498.775.653,1.686,1.464,2.572,2.527l.199.239-.307.043c-2.825.396-5.389,1.09-8.369,2.012l-.422.13.221-.382c.465-.805.128-1.235-.482-1.848-1.35-1.358-2.7-2.759-4.005-4.114-.535-.555-1.07-1.111-1.607-1.665l-.126-.132c-.124-.132-.241-.256-.372-.357-.742-.572-1.038-1.242-.963-2.172.022-.266-.184-.59-.382-.903-.1-.157-.203-.319-.283-.482l-.141-.286.318.039Zm-7.084-1.857c1.487.069,2.8.549,4.189,1.057.528.194,1.075.394,1.636.571l.532.168-3.544,1.078-3.306-2.897.494.022Zm-3.479-1.115l-.041.174c-.186.783-.196,1.419.355,1.967.993.168,1.73.712,2.444,1.239.438.324.853.63,1.323.856l.103.049-.021.459-2.027.678-.075-.102c-.099-.135-.188-.263-.272-.383-.168-.241-.313-.449-.48-.635-.334-.375-.676-.745-1.016-1.115-.536-.58-1.089-1.182-1.608-1.795-.224-.263-.378-.578-.557-.942-.089-.182-.186-.38-.304-.595l-.177-.325,2.353.47Zm.927,5.975l-3.771,1.471-1.692-4.785,1.301-.832,4.162,4.145Zm-14.091-6.486c.487-.339,1.003-.322,1.459-.308.221.008.431.015.63-.016.609-.094,1.278-.144,2.105-.157.514-.009,1.027.019,1.528.045.19.009.38.02.57.028.472.02.944.043,1.469.068l1.267.059-.405.29c-.744.533-2.566.784-4.44.784-1.531,0-3.096-.168-4.135-.485l-.34-.104.291-.203Zm8.331,8.488l-.209.036c-1.288.224-2.531.281-3.772.281-.461,0-.923-.007-1.387-.018l-.193-.004.64-4.849,3.035-.184,1.887,4.737Zm-9.048-5.373l1.715.486-.003.133c-.009.478.001.957.011,1.419.024,1.083.049,2.203-.177,3.355l-.029.15-.153-.011c-.804-.056-1.605-.053-2.381-.049-1.247.006-2.538.011-3.853-.234l-.323-.06,5.191-5.19Zm-4.672-.795l.095.145-.066-.164c.593-.39,1.208-.792,2.024-.545.147.045.265.134.401.238.061.047.127.097.203.147l.182.122-1.045.974c-.609.565-1.2,1.115-1.786,1.671l-.218.206c-.713.675-1.45,1.373-2.144,2.084-.372.381-.729.565-1.126.565-.202,0-.414-.049-.643-.143-.522-.215-1.077-.389-1.614-.558-.241-.075-.482-.151-.724-.231l-.343-.113,2.11-1.357c1.617-1.039,3.146-2.02,4.693-3.04Zm-12.698,2.114c.969-.828,1.988-1.121,2.973-1.405l.038-.011c1.523-.438,3.087-.826,4.599-1.202.551-.137,1.102-.274,1.652-.413.093-.024.184-.012.264-.003.029.003.059.007.088.008l.507.024-6.661,4.666-3.678-1.478.218-.186Zm-27.096,26.842c.084-.182.167-.357.248-.529.168-.356.328-.693.468-1.036.871-2.123,2.07-4.03,3.603-6.24l.49-.709c.817-1.186,1.663-2.412,2.585-3.552.713-.88,1.511-1.711,2.283-2.515.336-.351.673-.701,1.004-1.056.109-.118.216-.239.323-.36.255-.289.52-.588.824-.842.761-.632,1.669-1.367,2.631-2.034,2.606-1.808,4.908-3.371,7.038-4.778.697-.46,1.435-.873,2.149-1.272.323-.181.645-.361.962-.545l.1-.058.091.07c3.077,2.351,6.723,3.323,10.249,4.262.799.213,1.6.426,2.396.655l.131.038-.006.136c-.014.298-.021.601-.028.906-.016.709-.032,1.441-.138,2.161-.09.607-.255,1.209-.415,1.79-.111.405-.227.824-.315,1.238-.058.278-.098.567-.137.848-.095.687-.193,1.396-.569,2.05l.263.218c.476.386.781.65.963.61.162-.028.36-.342.644-.816.394-.656.623-1.453.795-2.146.379-1.531.723-3.048,1.087-4.653.141-.624.284-1.255.431-1.894l.031-.134,13.16-.015.43,2.044c.345,1.64.687,3.274,1.043,4.904.148.678.316,1.244.515,1.734.13.321.252.49.395.547.158.064.399.014.8-.166.178-.08.361-.134.556-.191.046-.014.093-.027.141-.041-.132-3.478-.411-6.405-1.311-9.34l-.049-.158.156-.055c1.13-.403,2.25-.843,3.334-1.269,2.383-.937,4.848-1.907,7.437-2.467l.118-.026.065.103c2.075,3.307,5.008,5.795,8.114,8.428l1.075.913-1.818.645c-1.163.413-2.281.81-3.402,1.2-.733.255-1.514.512-2.388.784l-.895.28c-1.731.541-3.52,1.101-5.288,1.628-.49.147-.978.302-1.466.457-1.048.334-2.132.679-3.238.928-2.331.523-4.549.699-6.79.533-.823-.06-1.646-.128-2.469-.196-1.998-.166-4.065-.336-6.099-.391-1.487-.041-3.006.009-4.474.055-1.241.04-2.524.08-3.789.069-3.501-.034-7.227-.272-10.753-1.767-.359-.152-.723-.292-1.121-.445-.197-.076-.402-.155-.62-.241l-.201-.079.122-.179c.361-.531.714-1.057,1.063-1.576.812-1.21,1.58-2.354,2.402-3.489.73-1.009,1.517-2,2.279-2.959.334-.42.667-.84.997-1.263.4-.512.368-.694.134-.931-.199-.203-.458-.34-.709-.376-.176-.025-.431-.014-.637.188-.318.313-.667.602-1.005.881-.728.603-1.416,1.172-1.865,1.99-.123.225-.311.403-.493.576-.148.141-.288.275-.389.426-.794,1.194-1.834,2.771-2.825,4.389-.163.266-.258.574-.369.932-.054.176-.111.361-.18.551l-.045.123-.13-.009c-1.023-.07-1.806-.401-2.393-1.013-.649-.675-1.263-1.059-1.994-1.246-.286-.074-.564-.183-.832-.288-.313-.123-.609-.239-.919-.304-.347-.074-.672-.018-.909.157-.198.146-.321.368-.345.624-.047.503.198.852.674.955.521.113.809.318,1.062.755.165.287.543.513.877.713l.089.053c1.721,1.035,3.662,1.94,6.111,2.848,1.089.403,2.179.805,3.286,1.213l1.684.622-.009.13c-.047.637-.252,1.234-.451,1.812-.064.184-.126.368-.185.554-.158.503-.323,1.003-.487,1.505-.423,1.288-.861,2.621-1.178,3.953-.268,1.13-.362,2.327-.453,3.485-.019.238-.037.477-.057.715-.014.167.077.365.182.594.036.078.072.157.107.24h.017s.103.198.103.198l-.05.071v.942l-.193-.538-.141.305-.008-.54h-.141c-.236,0-.48,0-.722-.024-3.618-.338-7.199-1.144-10.662-1.924-1.223-.275-2.487-.559-3.733-.819-.172-.036-.327-.106-.492-.18-.076-.034-.155-.07-.238-.103l-.18-.072.093-.171c.411-.761.79-1.545,1.157-2.303.6-1.24,1.22-2.523,1.986-3.714.558-.869,1.034-1.814,1.494-2.727.194-.384.387-.767.586-1.146.103-.196.209-.391.313-.586.324-.602.659-1.224.928-1.857.168-.397.235-.855.299-1.298l.037-.249c.032-.206.023-.573-.393-.711-.401-.134-.667-.032-.834.316-.062.131-.146.246-.226.357-.059.08-.118.161-.166.248-.382.686-.767,1.371-1.151,2.056-1.065,1.899-2.166,3.863-3.209,5.814-.678,1.267-1.222,2.599-1.621,3.618-.236.606-.48,1.233-1.142,1.711l-.07.051-.082-.025c-.086-.027-.172-.051-.258-.075-.501-.139-1.069-.297-1.421-.959-.225-.423-.661-.671-1.196-.679-.465-.007-.926-.096-1.415-.189-.222-.043-.451-.086-.693-.125l-.224-.036.095-.207Zm-4.184,17.665l.259-.071c.363-.101.739-.205,1.119-.275.471-.087.513-.289.493-.476-.051-.449-.461-.515-.635-.523-.354-.016-.709-.005-1.084.005-.163.005-.328.009-.498.012l-.184.003.008-.184c.012-.266.022-.528.032-.788.022-.606.044-1.178.093-1.761.109-1.321.23-2.483.368-3.553.089-.686.228-1.333.414-1.923.098-.311.355-.711.687-.853.365-.155.508-.395.475-.802-.081-1.007.303-1.861.676-2.689.211-.47.43-.957.559-1.465l.057-.224.199.118c3.123,1.854,6.551,2.829,9.576,3.689.484.138.999.224,1.495.308.318.054.635.107.949.174.194.041.377.116.572.196.091.038.188.077.293.116l.157.059-.054.159c-.085.252-.172.499-.256.744-.191.55-.372,1.069-.536,1.601-.184.597-.371,1.193-.558,1.789-.567,1.811-1.154,3.683-1.645,5.543-.186.705-.227,1.459-.27,2.256-.021.386-.043.784-.081,1.194l-.015.159-.16-.003c-4.29-.067-8.873-.266-13.325-1.257l-.132-.03-.003-.136c-.018-.853.546-1.005.957-1.115Zm12.286,44.171l-.091-.12-5.168-6.769.182-.095c.114-.059.216-.115.31-.166.193-.105.36-.196.537-.267.161-.064.327-.105.52-.151.057-.014.117-.028.18-.044l.297-2.181-2.796.976-.07-.13c-.145-.268-.284-.521-.42-.767-.29-.524-.563-1.019-.809-1.524l-.187-.384c-.706-1.446-1.436-2.942-2.095-4.44-.359-.817-.674-1.714-1.021-2.91-.41-1.413-.788-2.859-1.153-4.258l-.202-.772c-.128-.492-.265-.983-.401-1.473-.352-1.268-.715-2.579-.946-3.894-.191-1.089-.24-2.215-.286-3.303-.02-.463-.04-.928-.07-1.389-.014-.195-.018-.39-.024-.585-.005-.213-.011-.426-.027-.638-.133-1.752-.009-3.521.13-5.02.011-.118.039-.234.071-.363.014-.057.029-.116.043-.178l.036-.163,5.481.997.101.933c.057.521.111,1.014.161,1.507.052.514.098,1.029.144,1.544.094,1.051.191,2.138.34,3.198.253,1.807.58,3.57.95,5.522.058.307.187.615.323.941.07.166.141.338.209.52l.063.169-.773.251c-.399.128-.77.249-1.139.373-.95.319-1.634.717-2.154,1.252-.559.575-.813,1.05-.801,1.496.013.448.297.918.892,1.475.463-.035.64-.449.793-.907l.016-.049c.37-1.1,1.217-1.412,2.125-1.658,1.242-.337,2.482-.68,3.721-1.028.122-.034.245-.09.363-.143.014-.005.026-.011.039-.018-.328-1.503-.536-1.632-1.332-1.586l-.158.008-.022-.157c-.049-.346-.101-.692-.152-1.039-.116-.772-.234-1.569-.32-2.361-.072-.674-.127-1.35-.182-2.027-.078-.967-.159-1.966-.294-2.939-.138-1.001-.356-2.013-.566-2.992-.094-.435-.188-.87-.275-1.307-.021-.105-.044-.21-.078-.361l-.109-.5.228.015c4.629.29,9.283.159,13.784.034,1.275-.036,2.55-.072,3.827-.099l.157-.003.018.157c.039.334.078.659.117.978.085.703.166,1.367.22,2.04.059.736.102,1.473.145,2.21.039.657.077,1.313.126,1.968.034.455.076.72.197.82.125.103.419.098.946.041.493-.964.477-2.001.46-3.098l-.005-.39c-.005-.578-.012-1.157-.019-1.734-.008-.613-.016-1.226-.02-1.838-.001-.201.01-.402.024-.64.007-.12.014-.25.021-.395l.007-.161,20.767-.56-.692,8.085-.138.018c-.216.028-.445.068-.682.11-.546.096-1.168.205-1.773.188-1.442-.036-2.873.16-4.262.354-.84.118-1.709.238-2.571.306-.31.025-.622.053-.93.093-.432.055-.889.032-1.32-.513-.313-.397-.717-.596-1.091-.548-.38.049-.715.341-.919.803-.229.518-.544.651-.979.699-.339.036-.679.07-1.019.104-.996.099-2.027.201-3.019.386-2.769.517-5.54,1.102-8.372,1.706-2.154.46-4.34.949-6.454,1.421l-2.216.495c-.102.022-.2.06-.308.101-.005.003-.011.005-.017.007l.707,1.816,3.626-.658.152.936c.104.645.201,1.255.321,1.871.036.182.118.361.205.551.037.081.074.161.107.243.01.026.027.05.043.074.04.061.089.138.098.234.297,3.33,1.183,4.978,2.5,7.111.105.171.209.343.316.52l.253.418-.128.094c-.067.049-.127.099-.184.146-.129.107-.251.209-.405.264-1.798.646-3.262,1.157-4.608,1.607-.166.055-.336.03-.502.006-.084-.012-.176-.029-.249-.024-.133-.002-.275-.008-.418-.018-.308-.022-.627-.044-.777.07-.426.325-.801.841-.978,1.348-.143.41-.173.867-.205,1.35-.011.156-.021.313-.035.472l.634-.032.053.093c.172.305.34.609.507.91.378.68.734,1.323,1.119,1.965.609,1.013,1.367,1.719,2.315,2.159.951.44,1.068.463,1.576-.549-1.744-1.479-2.872-3.22-3.352-5.177l-.028-.115.097-.068c.911-.641,10.409-3.745,12.548-4.101l.113-.018.061.096c.323.505.288,1.037.253,1.552-.018.271-.034.528,0,.776.043.316.074.634.104.953.043.454.089.924.172,1.374.095.519.238,1.03.39,1.572.068.243.137.49.205.747l.043.167-.166.044c-5.094,1.355-9.838,3.278-14.504,5.88l-.131.073Zm10.245,8.888c-2.225-1.347-4.182-2.9-6.254-4.543-1.051-.833-2.137-1.695-3.254-2.521l-.234-.174.264-.122c.512-.238,1.014-.478,1.511-.716,1.684-.806,3.275-1.567,5.023-2.131l.153-.049.06.15c1.178,2.94,2.85,5.611,4.324,7.883l.058.089-.054.092c-.156.268-.442.429-.718.586-.499.282-.892.505-.626,1.251l.163.457-.416-.251Zm21.261,6.02l.377-.084c1.177-.261,1.311-.101,1.834,1.282l.203.536-2.414-1.734Zm2.617-2.415c-1.854.103-3.692.501-5.47.887l-.068.014c-.274.059-.551.105-.827.151-.303.049-.616.101-.916.17-.709.164-.789.457-.771.749.031.484.424.827.954.834.513.021,1.017-.049,1.517-.103l.234-.025c.255-.026.515-.074.766-.121.116-.022.231-.043.347-.062l.116-.02.967,1.588-.345-.034c-.176-.018-.34-.028-.497-.038-.319-.02-.62-.039-.907-.113-.52-.135-1.055-.251-1.573-.362-1.224-.264-2.489-.537-3.669-1.088-1.835-.855-3.763-1.705-5.894-2.597-.878-.368-1.785-.712-2.662-1.045-.701-.266-1.403-.532-2.098-.813-.426-.172-.832-.38-1.301-.623-.233-.12-.482-.248-.756-.383l-.488-.241.538-.085c.357-.057.684-.024.971.004.449.047.777.078,1.046-.225l.082-.091.113.047c.374.155.595.455.809.746.253.343.472.642.915.656.722-.688.711-.705.213-1.503-.107-.172-.207-.348-.326-.553l-.297-.515.201-.068c2.459-.834,4.764-1.615,7.256-1.722l.115-.005.049.103c.958,2.021,2.316,3.656,4.15,4.998.234.172.422.335.572.5.469.515.94.614,1.482.309.433-.959-.135-1.609-.736-2.297-.67-.767-1.313-1.575-1.934-2.358-.202-.254-.404-.508-.607-.761-.078-.097-.132-.204-.199-.339-.034-.067-.072-.143-.12-.229l-.118-.216.244-.038c.205-.032.403-.067.595-.101.418-.074.812-.143,1.214-.168,1.513-.097,3.096-.174,4.706-.23.831-.039,1.119.454,1.294.929.559,1.513,1.153,3.031,1.711,4.445.133.338.291.675.459,1.032.08.171.163.349.249.536l.09.197-.212.045c-.138.028-.269.061-.395.091-.269.066-.523.129-.785.143Zm4.297,3.048c-.126.159-.408.247-.643.247-.055,0-.107-.005-.153-.014-.73-.151-1.37-.528-2.142-1.257l-.263-.249.359-.049c.264-.036.503-.071.726-.104.457-.068.853-.126,1.248-.154.361-.034.67.318.829.62.155.293.246.699.04.96Zm-.352-3.483c-.159.048-.326.098-.506.142l-.13.032-.063-.119c-.625-1.182-1.032-2.411-1.464-3.712-.341-1.028-.694-2.091-1.163-3.124l-.103-.228.25-.016c2.513-.161,4.797-.084,6.892.022l.141.007,1.088,7-.211-.009c-.381-.018-.756-.038-1.126-.057-.957-.05-1.861-.097-2.775-.107-.245,0-.522.078-.829.17Zm10.95,3.895c-1.883.63-3.677.965-5.645,1.056l-.175.008-.006-.175c-.041-1.149-.595-1.766-1.794-2.002-.192-.037-.359-.136-.52-.231-.067-.039-.133-.078-.201-.112l-.105-.053.042-.499.128-.026c.106-.022.213-.052.321-.082.253-.072.513-.145.779-.12,2.568.259,4.615.724,6.442,1.465.157.064.294.153.466.266.088.058.186.123.303.193l.318.194-.353.118Zm19.51-5.379c-.704.612-1.532.924-2.331,1.225-.163.061-.326.123-.488.186l-.265.104c-.451.176-.916.358-1.352.574-1.22.603-2.523.976-3.752,1.307-1.496.403-2.978.913-4.403,1.518-.913.388-1.843.418-2.742.448l-.393.014h-.019c-.208,0-.432-.135-.562-.254-1.569-1.425-3.541-2.408-6.394-3.187-.09-.024-.176-.061-.303-.118-.068-.03-.148-.065-.249-.107l-.093-.039-.126-1.005c-.101-.8-.204-1.622-.303-2.445-.091-.749-.176-1.498-.261-2.249l-.13-1.138.14-.041c1.364-.397,8.186.334,12.586,1.353l.216.05-.101.197c-.03.057-.057.114-.084.171-.06.125-.122.255-.201.375-.889,1.336-1.778,2.671-2.679,3.999-.272.4-.554.793-.836,1.186-.178.247-.355.495-.531.744-.401.572-.351.782.002,1.125.161.155.726.627,1.257.145.913-.829,1.756-1.687,2.504-2.55.405-.468.764-.991,1.112-1.498.188-.274.377-.549.574-.816l.101-.144c.157-.224.318-.457.555-.599.769-.459,1.115-1.005,1.125-1.768l.003-.189.188.019c.272.028.536.051.795.074.576.05,1.119.098,1.661.189.293.049.588.089.883.129.907.123,1.845.25,2.729.646.576.259,1.171.526,1.495,1.213.095.201.249.382.428.592.088.103.178.21.268.325l.1.13-.123.107Zm9.935-10.295c-.345.574-.69,1.15-1.034,1.725-.961,1.606-1.955,3.266-2.964,4.882-.148.237-.372.42-.588.596-.225.183-.437.357-.539.567-.409.844-1.144,1.132-1.857,1.41-.293.115-.597.233-.878.39l-.187.104-.063-.205c-.042-.137-.089-.266-.133-.388-.095-.262-.186-.509-.205-.769-.137-1.79-1.463-2.518-2.741-2.994-.304-.113-.613-.213-.955-.325l-.687-.226.047-.16c.378-1.292.848-2.619,1.437-4.058.196-.48.334-.973.48-1.496.246-.878.499-1.784,1.051-2.644l.068-.106.122.032c3.122.822,6.245,1.94,9.549,3.418l.178.08-.101.168Zm.815,3.708l-.026-.433c-.028-.48.203-.771.387-1.004.103-.131.193-.244.224-.367.076-.299.188-.581.316-.907.058-.147.12-.302.182-.47l.065-.174,1.213.555-2.361,2.799Zm10.831-12.375c-1.569,2.458-3.543,4.565-5.453,6.602-.315.336-.631.673-.944,1.011l-.077.082-6.803-2.341.039-.154c.392-1.581.995-3.081,1.579-4.533.422-1.046.857-2.129,1.206-3.227l.037-.116.122-.005c.083-.003.176.002.27.007.424.026.586.003.626-.296.03-.225-.015-.477-.068-.768-.028-.154-.057-.32-.08-.5l-.036-.286.27.103c.395.151.79.301,1.184.45,2.832,1.071,5.507,2.084,8.077,3.731l.145.093-.093.146Zm7.146-15.853c-1.509,4.399-3.196,9.065-5.763,13.497l-.094.161-.153-.105c-.187-.128-.368-.257-.544-.383-.375-.269-.729-.522-1.107-.735-2.275-1.28-4.658-2.272-7.081-2.949-2.477-.692-5.011-1.342-7.463-1.969-.813-.209-1.627-.417-2.44-.627-.331-.086-.666-.147-1.054-.218-.19-.034-.389-.071-.603-.113l-.268-.053.162-.22c.446-.605.458-1.252.472-1.937.004-.241.009-.482.032-.722.082-.836.303-1.667.517-2.47l.092-.347c.303-1.151.613-2.299.925-3.448.322-1.186.643-2.371.954-3.56.089-.34.136-.703.186-1.086.025-.196.052-.4.085-.614l.02-.128.128-.017c1.315-.169,2.74-.178,4.238-.028.256.026.513.049.77.073.918.084,1.867.171,2.785.356,1.219.245,2.444.551,3.628.846.588.147,1.177.293,1.767.434,2.38.565,4.313,1.922,6.246,3.381.799.602,1.568,1.225,2.382,1.884.367.297.74.599,1.124.906l.095.076-.04.116Zm1.669-12.12l-.034.463c-.162,2.193-.329,4.46-.546,6.686-.055.567-.182,1.113-.328,1.747-.07.304-.144.626-.216.974l-.066.322-.228-.236c-1.838-1.903-3.397-3.452-5.318-4.639-1.93-1.193-4.068-1.695-6.332-2.227l-.428-.101.007-.143c.016-.33.025-.65.035-.964.021-.682.041-1.326.111-1.972.289-2.661.525-5.504-.043-8.438l-.039-.197.2-.009c.572-.026,1.138-.055,1.702-.084,1.332-.069,2.591-.134,3.881-.155,1.074-.014,2.169.02,3.227.056.463.016.926.031,1.389.043l.137.003c.201.004.409.007.615.038,1.327.195,1.569.442,1.724,1.764.068.573.141,1.146.213,1.718.135,1.063.275,2.161.376,3.246.065.7.011,1.415-.041,2.106Z" stroke-width="0"/>
      <polygon points="47.837 118.222 47.82 118.223 47.82 118.223 47.837 118.222" stroke-width="0"/>
      <path d="m73.076,74.705c.975-.292.983-5.505.988-8.62.003-1.814.005-3.253.135-3.82-.709-13.235-.415-26.867-.13-40.052l.092-4.322c-.191-3.642-.374-6.776-.544-9.315-.403-6.013-.682-7.981-.846-8.575-1.002,4.018-.863,55.512-.731,73.83.428.636.795.945,1.035.875Z" stroke-width="0"/>
      <path d="m18.954,175.349c.299-.387.286-.916-.035-1.416-.266-.414-.751-.782-1.301-.782-.092,0-.185.01-.28.032-.08.018-.161.034-.243.051-.245.049-.476.097-.641.197l-.076.047c-.977.594-1.987,1.209-2.909,1.892-1.894,1.403-3.802,2.899-5.486,4.219l-.09.07c-.9.705-1.831,1.435-2.656,2.228-.319.307-.526.788-.726,1.252l-.05.116c-.036.082-.045.104.197.318.115.101.245.216.337.368.163.271.23.334.255.349.005-.009.094-.047.331-.209.311-.213.626-.423.941-.632.425-.282.85-.564,1.266-.858.897-.632,1.792-1.267,2.687-1.904,1.82-1.294,3.702-2.632,5.58-3.915.164-.112.324-.241.484-.371.578-.466,1.284-1.035,2.311-.875.028-.061.058-.119.102-.176Z" stroke-width="0"/>
      <path d="m121.384,93.944c.474.228,1.167.105,1.546-.276.082-.083.153-.171.209-.261.132-.209.268-.417.404-.624.307-.467.624-.949.871-1.444,1.453-2.918,2.883-5.847,4.312-8.777l.738-1.512c.091-.187.158-.387.205-.525l.026-.075c.011-.857-.161-.925-.733-1.021-.049-.008-.098-.012-.145-.012-.319,0-.582.194-.855.624-.542.852-1.059,1.743-1.559,2.605l-.467.803c-.429.732-.851,1.467-1.269,2.204l-.712,1.251c-.759,1.332-1.518,2.662-2.252,4.007-.309.567-.536,1.196-.717,1.736-.143.428.162,1.182.399,1.296Z" stroke-width="0"/>
      <path d="m14.173,167.604c.032-.057.03-.23-.003-.286-.474-.734-1.003-.974-1.804-.832-.78.137-1.583.151-2.359.164-.334.005-.668.011-1.001.026l-.362.017v-.063c-.034-.002-.068-.003-.102-.003-.02,0-.039,0-.059.001l-1.233.047c-1.156.043-2.312.085-3.466.157-.924.057-1.911.135-2.866.318-.308.059-.707.198-.855.524-.138.305-.052.752.244,1.257.382.653.955.659,1.618.667l.285.005c1.984.069,4.008-.078,6.189-.45.533-.091,1.061-.207,1.59-.322,1.017-.224,2.069-.454,3.153-.501.418-.018.763-.262,1.03-.726Z" stroke-width="0"/>
      <path d="m24.136,180.761c-.995.76-1.888,1.448-2.744,2.173-.274.232-.53.558-.741.942-.391.709-.84,1.553-1.203,2.438-.234.57-.419,1.176-.567,1.663-.051.17-.099.328-.145.469l.074,1.099c.048.727.09,1.36.138,1.992.031.407.272.67.804.879.226.089.395.111.507.062.104-.046.197-.174.276-.381.17-.441.279-.832.334-1.196.331-2.204,1.348-4.302,3.203-6.603.2-.248.43-.461.653-.668.208-.193.405-.376.57-.578.536-.654.504-1.523-.079-2.163-.206-.226-.853-.303-1.08-.13Z" stroke-width="0"/>
      <path d="m127.79,101.241c.186.357.544.615.968.703.151-.059.305-.115.459-.171.394-.142.765-.276,1.09-.472.622-.376,1.23-.774,1.84-1.171.828-.541,1.685-1.101,2.567-1.596.354-.199.686-.433,1.038-.68.911-.64,1.853-1.303,3.183-1.336.17-.004.289-.072.355-.201.086-.17.085-.471-.114-.76-.33-.479-.774-.703-1.398-.704h-.004c-.913,0-1.732.381-2.481.792-2.055,1.128-4.233,2.372-6.855,3.913-.248.146-.503.441-.667.771-.144.289-.138.613.018.913Z" stroke-width="0"/>
      <path d="m139.112,109.865c-1.069-.002-2.305-.061-3.448-.746-.089-.053-.295-.068-.418-.028-.435.14-.935.317-1.352.574-.645.397-.874.99-.662,1.716.246.84.602,1.12,1.465,1.153.712.028,1.44.021,2.144.018l.659-.004c.274,0,.548-.014.821-.026.289-.014.582-.026.878-.026.629,0,1.272.059,1.932.308.242.091.591.161.869-.029.274-.186.44-.596.461-1.13-.016-.045-.032-.097-.049-.153-.051-.165-.127-.414-.247-.51-.93-.738-1.957-1.113-3.053-1.116Z" stroke-width="0"/>
      <path d="m120.177,158.378c-.099.259-.197.52-.306.774-.197.459-.11.894.29,1.457.12.17.297.266.488.266.005,0,.011,0,.016,0,.206-.005.393-.12.513-.312.111-.177.193-.372.28-.578.073-.172.148-.349.241-.517,1.368-2.46,2.936-5.382,4.198-8.393.059-.141.102-.293.145-.444.081-.284.165-.578.349-.816.126-.162.181-.294.166-.392-.022-.129-.173-.252-.366-.384-.684.334-1.326.655-1.689,1.294-1.54,2.705-2.703,4.791-3.772,6.761-.22.405-.389.853-.552,1.285Z" stroke-width="0"/>
    </g>
  </g>
</svg>