<?xml version="1.0" encoding="UTF-8"?>
<svg id="Layer_2" data-name="Layer 2" xmlns="http://www.w3.org/2000/svg" viewBox="0 0 182.8959162 330.6073214">
  <g id="Layer_1-2" data-name="Layer 1">
    <g>
      <path d="m148.185248,155.2944221c.1016389.289695.1763672.5924297.3091396.8670569,1.175305,2.4310692,2.128387,4.9479302,2.8076731,7.5587344.3739666,1.4373594.6100671,2.9103147.9209609,4.364523.3248883,1.5195759.6702292,3.0347966.9953644,4.5543205.1087336.5082111.1814738,1.0240925.2729124,1.5360608.207111,1.159586.4645346,2.3129577.6069486,3.4804092.101405.8313569.3058912,1.6373234.4361038,2.4574997.2772135,1.7458144.6778957,3.4640803,1.1701464,5.1537316.8385402,2.8782289,1.7026525,5.7485794,2.3999741,8.6650955.2649601,1.1082202.4763461,2.2292851.7111212,3.3447077.2348271,1.1156306.4676142,2.2317032.7025972,3.3472948.2632969,1.249915.5217341,2.5009221.7938279,3.748926.3016941,1.3837444.6131987,2.7653957.9267822,4.146527.1757565.7740497.4383387,1.5363468.5319473,2.3194581.2072149,1.7335287.8245846,3.3522611,1.3254374,4.9993741.7610831,2.5029112,1.6640993,4.962569,2.4281061,7.4646612.8551854,2.8007186,1.6358634,5.6246306,2.4192442,8.4466964.2032258.7320704.3485374,1.4900903.4181461,2.24564.0395537.4293877-.1281466.8778605-.2050059,1.3324436-.2433901.1585048-.4756834.3097551-.6936444.4516969-.8451671-.3353665-.9613852-1.1687125-1.151578-1.8620148-.6946189-2.5319418-1.6198419-4.9835912-2.4594215-7.4653502-.8048728-2.3791054-1.6055745-4.7573527-2.2973477-7.1761102-.8253773-2.8859774-1.5125246-5.8055486-2.2347297-8.7145372-.565069-2.2761527-1.1269284-4.5518113-1.7210259-6.8211516-.4021245-1.5360348-.595267-3.1256976-.920766-4.6832486-.4166648-1.9937901-.8296003-3.9900763-1.3215912-5.9659904-.7076389-2.8420349-1.5131094-5.6597195-2.2197867-8.5019755-.3087628-1.2418806-.4689525-2.5203452-.7099778-3.7796207-.2666104-1.3928709-.56069-2.7805545-.819491-4.1748295-.1711566-.9221019-.2893628-1.8539284-.4527361-2.7776034-.204967-1.158858-.3879481-2.3242683-.6593143-3.4681105-.4534637-1.9113655-.9426869-3.8153207-1.4676824-5.7082902-.414014-1.4927814-.8847727-2.97082-1.3667322-4.4434764-.4607014-1.4076787-.9728329-2.7984435-1.4528303-4.1999079-.1452726-.4241484-.2588919-.8591524-.4084916-1.3613442.1935453-.2733531.403294-.5695875.6451378-.9111683-.8592915-1.2572084-2.5280037-1.9868347-2.8341028-3.7557904-.1630484.1315153-.3219647.2597023-.5344032.4310518-.2231455-.0810465-.478672-.1738586-.7235305-.2627965-1.3631199-1.9977553-2.0482272-4.1543924-2.3474655-7.443275-.3227054.1294481-.6243345.2504328-.9259506.3714305.0054445.035765.010889.071543.0163334.1073209-1.5106535.0609474-3.0362111.0123767-4.5275555.2153439-1.3418488.1826211-2.6723148.1504703-4.0071339.1565806-4.2930013.0196701-8.5863664.0263785-12.8792118-.0087885-2.0090114-.0164589-4.0290807-.0313187-6.0219925-.2494448-1.6603571-.181724-3.3141262-.0586072-4.9638477-.180619-1.3438628-.0993905-2.679507-.3100931-4.0464276-.4747732-1.5046828,3.7840409-3.6016244,7.3722391-5.3311939,11.1354789-1.0027255,2.1817545-2.0122274,4.364146-2.8266053,6.6299371-.292241.8130909-.7089837,1.5807313-1.0532396,2.3759072-.6474638,1.4955636-1.2714864,3.0013587-1.9277926,4.4929701-.6146735,1.3969531-1.2802703,2.771649-1.8849189,4.1727884-1.2041451,2.7903181-2.7038967,5.4321159-4.0729873,8.1387484-1.1500382,2.2735525-2.469193,4.4610013-3.6423475,6.7235033-.8990466,1.7338797-1.7136389,3.513405-2.5155295,5.2952834-.5532315,1.2293609-.903614,2.5344119-1.3023796,3.8231211-.6660322,2.1524509-1.2219144,4.3294341-1.6609288,6.5346288-.9253334,4.6479907-2.0866179,9.2410273-3.2414184,13.8333358-.6546105,2.6031727-1.5293973,5.1516515-2.3286047,7.7174471-.7256745,2.3296766-1.4966525,4.6452605-2.2199946,6.9756652-.2751669.886493-.4795686,1.7954251-.7007261,2.697935-.0410415.1675012-.0357659.3584818-.0034174.5294412.0702974.3714305.1718843.7369327.2832881,1.1985362,1.3491644.3894495,2.7604659.833502,4.192194,1.1970801.9368526.2378871,1.9037342.3567657,2.856342.5333935,1.4472949.2684388,2.9131841.3423349,4.3740642.4820146,1.0551302.1008336,2.1126124.0391842,3.152845.1742616,1.5293713.198547,3.0764014.0928511,4.6024723.3752527.959696.1776158,1.9641822.1061379,2.9287964.2658907.890711.1475581,1.8002177.1166684,2.6818914.3722106.5622233.162951,1.1689964.1942307,1.7591957.2340389,1.4292138.0963613,2.8066855.4768923,4.2023553.7488153,1.8370426.3579098,3.6599413.7888056,5.4878687,1.1931019,1.8585932.4110567,3.7109882.851963,5.5754741,1.2340021,1.2923807.2647986,2.6013807.4478487,3.9016618.6748413,1.5707636.2742111,3.1353161.5890365,4.711953.8227114.9686358.1435539,1.9683403.0925651,2.9299204.2643826,1.2985918.2320368,2.6092291.0664337,3.8963342.2190361,2.8594281.3390327,5.7227283.0966213,8.5825462.1763417.9572401.0266775,1.9207173.0625075,2.8727729-.0134167,1.4971917-.1193986,3.008326-.0939432,4.4905877-.3904116.1372294-.0274575.2830607-.0142228.424942-.0154449,1.050329-.0091005,2.0695633-.253254,3.1023504-.3866674,1.2773857-.1650051,2.5225982-.4628776,3.7831047-.6920022,1.6998718-.3089751,3.3880749-.6816016,5.0836067-1.0151221,1.5611611-.307129,3.1284683-.5835242,4.6872645-.9019638,1.2168987-.2486257,2.4143195-.6172221,3.6405219-.7872195.8361493-.1159144,1.7105008-.2689849,2.6745368.0407442.219923.2743671.5010866.6251785.7369663.9194628-.0580051.6075235-.3719135.8988436-.8209073,1.0549823-.683639.2376791-1.3662904.4844327-2.0635471.6755693-2.2590155.6192502-4.5206817,1.2297899-6.788715,1.8150042-1.7373464.4482908-3.4680138.9248451-5.2462263,1.2059466-.9881918.1561906-1.9547746.453257-2.9441358.596993-.9689477.1407718-1.979788.0556951-2.9268278.2703369-1.4566375.3301402-2.9381456.0348159-4.3965893.3463911-.8102003.1730916-1.6876444.0310457-2.622288.0310457.2601654.9503525.3270194,1.8321912.0058863,2.7047994-.0346549.0941512-.0032095.2114957-.0085111.3177895-.0735589,1.4729033-.0763786,2.9539711-.2428184,4.4163439-.1655302,1.4545203-.2539412,2.916217-.4404048,4.364523-.0896064.6960844-.0906979,1.4005933-.2131791,2.0806609-.1187909.6594744-.1212468,1.3185068-.2056426,1.9720269-.1414784,1.0954145-.414014,2.173694-.560664,3.2686925-.0924651.6904941-.0621892,1.3874626-.2065522,2.0872913-.1825523.8850889-.1732487,1.8088939-.2634918,2.7143159-.0445953.4475107-.1325385.8905752-.1904527,1.3369678-.0580311.4471987-.0735589.8904972-.1728199,1.3436242-.1542385.7040669-.1052902,1.4507501-.2352039,2.1829765-.1704809.9607791-.0454529,1.9858337-.2940407,2.9173871-.2108922.7902096.0485455,1.6247777-.3534491,2.3671967-.045323.0837246-.0140725.2096756-.0160865.3160735-.0229993,1.2237836-.2294996,2.4248419-.4138451,3.6312565-.1318109.8624676-.0400084,1.774572-.2715351,2.6019117-.220066.7864394-.0580571,1.5910799-.3452759,2.372215-.2217422.6030513-.172443,1.3051681-.2484708,1.9626924-.0955447.8262216-.1850992,1.6520532-.3848815,2.4639741-.1324216.5382037-.0479867,1.0952065-.2164146,1.6557454-.2068511.688388-.1095652,1.4627628-.2657268,2.173122-.2683386,1.2207934-.2632969,2.4800689-.5977878,3.6917619-.1556808.5639451-.1647766,1.1691286-.2324752,1.756527-.1629574,1.4138021-.3825166,2.8178796-.6122371,4.2228932-.2476262,1.5143756-.3347768,3.0550647-.4972144,4.635614.8586678.3020847,1.1869476,1.0354552,1.518203,1.7758981.5510095,1.231532,1.0396479,2.4949938,1.2384687,3.8246812.1603846,1.0724812.0776,2.1668556-.2946254,3.2199398-.8573424,2.4256219-2.3474914,4.3700093-4.4053472,5.8946295-.6374194.4722641-1.3429922.7268701-2.1407313.6991266-.6695015-.0232453-1.3606381.0434484-2.0029432-.1025237-.9070054-.2061914-1.6245197-.7721386-2.1011907-1.5804973-.7493755.162717-1.5038706.2760572-2.2270243.4936633-1.7432586.524553-3.4723798,1.0963245-5.2061918,1.6521572-1.4085858.4515669-2.792717,1.0096357-4.2297336,1.3341337-1.5466208.3491993-3.0662467.8366742-4.6624915.9900827-.5497881.0528349-1.0941511.2117557-1.6582456.1750937-2.0290546-.1318533-2.9731708-1.4062096-3.1757339-3.2116973-.1729433-1.5414431.5196615-2.789512,1.4825995-3.8982653,1.4895968-1.7151587,3.28756-3.0306493,5.306135-4.0766351,2.4038073-1.2455988,4.8949342-2.2888804,7.3883999-3.3298479.3087108-.1288891.659808-.1561126,1.0325012-.2397072.1822665.4558832.3352056.8383643.4825183,1.2068046-.3531502.9919808-1.2305294,1.3981752-2.0582196,1.829435-1.4176036.7387008-2.8870403,1.3808322-4.2852829,2.1530749-2.1495347,1.1872516-4.2005102,2.5314478-5.9071063,4.327835-.6076437.6396353-1.0476197,1.3848365-1.1232641,2.2846162.6169994.5931708,1.3701237.4853428,2.0235517.3664382,1.5921387-.289734,3.1735834-.6611385,4.7362583-1.0848319,2.5282376-.6854498,4.9530302-1.6724643,7.3888157-2.6293692,1.1508114-.452087,2.3594719-.7591639,3.592795-.9386258.3750191-.054577.7862914-.0774843,1.104163-.253592.4171196-.2311788.8218559-.1336214,1.2520214-.1590768.6144981.4762943,1.1655465,1.0089597,1.492319,1.8451139.3225104.1277451.7047282.2791254,1.0809298.4281396.9114883-.2487557,1.543996-.8227634,2.1406144-1.5520517.6948398-.8493629,1.3298423-1.720723,1.7654134-2.7175401.2320984-.5311573.4218884-1.122508.44199-1.6933695.021492-.6100197-.1489499-1.2350422-.2910131-1.8404856-.1648416-.7025588-.3899362-1.3909728-.5881982-2.083105-.1589813-.0750401-.3147011-.1485202-.5296604-.2499518-1.1036042,1.6174713-2.9126254,2.0090789-4.6565207,2.4767668-.711654.1908245-1.4798968.2203102-2.2232561.2270705-.5862621.0053303-1.2010201-.0520289-1.755369-.2302687-1.2590642-.4048684-2.3274677-1.0973646-2.9235793-2.354638-.1482353-.3126673-.323472-.6124898-.4696932-.887039-.295366.2570762-.5889259.5663373-.9344097.7981141-.3435867.2305547-.7393312.3833392-1.1264477.5773879-2.913535.2222083-5.0036807-1.2819488-6.7786447-3.3492189-.7425797-.8648858-1.4078971-1.8184364-1.6027288-3.0007477-.106778-.6479818-.2367892-1.2922454-.3376094-1.9410592-.0855393-.5505024-.169292-1.1033449-.2096968-1.6583456-.0919194-1.2623697-.0890997-2.535478-.2509461-3.7878892-.17256-1.3353557-.0663147-2.6844922-.2434551-4.002011-.1327464-.9873265-.0521968-1.9715329-.1810126-2.9424265-.214524-1.6168213-.0567252-3.2520516-.2445531-4.85426-.1698767-1.449008-.0950574-2.8877975-.1679926-4.329213-.2740039-5.415371-.1947342-10.8354483-.2208131-16.2541475-.3134991-1.8229867-.0605974-3.6736388-.2450274-5.4940254-.1248851-1.2327021-.0440301-2.4712025-.2094304-3.6853915-.1340523-.9840503-.0564718-1.9749131-.2056167-2.9392283-.1575519-1.0187103-.0555427-2.0480031-.2159144-3.0453662-.1697338-1.0556063-.067874-2.1132927-.1984375-3.1548842-.3359462-2.680046-.1310962-5.3677624-.2086442-8.1331711-1.8429484-.3742907-3.7042508-.7676144-5.5720762-1.1269802-1.565735-.3013046-3.1341142-.596733-4.7109265-.8296538-.9678562-.1429819-1.9579256-.1289151-2.9308819-.2451415-3.4574562-.4129288-6.9318631-.0254814-10.3872078-.2471956-1.1357189-.072908-2.3002908-.0397562-3.4311889-.343505-.5622038-.1510683-1.1719396-.1243389-1.7613462-.2080635-1.8940732-.2689849-3.7224359-.7717226-5.5332307-1.3478884-.6884143-.2190361-1.3433756-.5588489-1.9902481-.8893271-.9612877-.4911151-1.321877-1.1539697-1.3216691-2.3469676.1993795-.2370291.4227525-.5025818.6713922-.7981661-.1418227-.325512-.2797343-.6420275-.4612341-1.0586225-.0876444-1.2718862.2667338-2.5853488.5799341-3.9047396.7158965-3.0158545,1.6356685-5.9735698,2.5224228-8.9415037.8882486-2.9729262,1.7642244-5.9508186,2.5664529-8.9477441.6072409-2.2684953,1.1552098-4.5536054,1.5765264-6.8696053.3463284-1.9037731.8675232-3.7754215,1.2253513-5.6774785.3400458-1.8074898.7952962-3.5821658,1.3170888-5.3404219,1.123537-3.7859,2.8163465-7.3291807,4.6856532-10.7917269,1.1604659-2.1495517,2.3843359-4.2651195,3.5276692-6.4235767,1.2079199-2.2803909,2.4010656-4.5710914,3.5118685-6.899702.8493966-1.7805913,1.5584258-3.6280843,2.3337308-5.4441936.652434-1.5282734,1.3150422-3.0522305,1.9644291-4.581804.4881316-1.1497445.9555444-2.3083165,1.4453588-3.4573329.3128689-.7339295.6342489-1.4650379.9787581-2.1844976,1.114961-2.3284286,2.2181819-4.6630195,3.3726771-6.971817.9181348-1.8361044,1.9048127-3.6378869,2.829451-5.3948299-.2370426-.4940533-.4465509-.9307344-.6593533-1.3742799.2044082-.3974579.4645216-.634578.847493-.7912237.5728913-.2343249,1.1223546-.525957,1.6050612-.7565638.6360161-2.0554135,1.1879741-4.0527528,1.8762195-6.0019244.6591259-1.8667211,1.4334628-3.69457,2.205071-5.5192208.9164845-2.1672587,1.923641-4.2965682,2.8189388-6.4722384.9817078-2.3856187,1.101954-4.9155714.8830705-7.4385167-.1059009-1.2207544-.4691475-2.4338774-.9515358-3.5872881-.5457274-1.30483-1.0638362-2.6211917-1.4238927-3.9916819-.1849497-.7039889-.378391-1.4067102-.3605698-2.1505397.0326474-1.3630538-.0426267-2.7127688.3839719-4.0636019.391346-1.2392479.8940829-2.4035467,1.5387984-3.5169607.9343967-1.6136686,2.0989947-3.0476283,3.3263665-4.4511663.772102-.8829178,1.5857587-1.6991938,2.4986504-2.4143243.6632514-.5195607,1.3858074-1.0373078,2.2834312-.3268705.5993081.9948929.5896276,1.3321121-.1369565,2.2201391-1.0013547,1.2238486-2.0240194,2.4302697-3.0220736,3.6567834-1.9845957,2.4388697-3.297234,5.2167851-4.0800171,8.2492545-.1382039.5353696-.1878539,1.1000557-.2214823,1.6546534-.0641383,1.0574979.1771988,2.0715019.528387,3.0617016.3455098.9742088.7063135,1.9431913,1.0387773,2.9218203.4715253,1.3879306.8706873,2.7913191.7800153,4.2842046-.017165.2827396-.0087839.5683784.0071077.851586.1031981,1.8405116-.3067747,3.6006788-.7813667,5.360196-.6416165,2.3787673-1.5389414,4.6612514-2.4825313,6.9296166-1.2658925,3.04313-2.5763478,6.0684751-3.5950624,9.2090325-.2654929.8184732-.602771,1.6136491-.9145939,2.4394027.8212322.2908131,1.5745319.3374076,2.3439506.3595349,1.2992545.0373641,2.6035702.0807865,3.8928843.2316988,1.3170563.1541755,2.6389203.2706879,3.9519614.4373441,2.2387839.2841177,4.4857929.5318334,6.7280591.3513444,4.3512273-.3502523,8.7018179-.1027057,13.0518497-.145205,1.7565645-.0171739,3.5145843.1150044,5.2633393.1789029.1798236.1367936.3468482.2638496.5636526.4287767.0207254-.2039683.0374876-.3689604.0548346-.5396598-1.1793721-.5367606-1.533354-1.5524417-1.7042247-2.7089336-.2385564-1.6145852-.2851398-3.242145-.1669076-4.8557681.1031592-1.4078087.0551334-2.8239379.2144136-4.2173939.1084347-.9485844-.0102263-1.9228842.2072149-2.8279682.2572417-1.0708301.0573424-2.155129.3327107-3.2264142.1944548-.7565248.1231179-1.5914959.2324622-2.3941732.1967158-1.4441197.4477204-2.8813101.627635-4.3239088.2107883-1.6902753.6225413-3.3350612.9202593-5.0036253.2724836-1.5271163.6815729-3.0334705,1.0962497-4.5307372.7007391-2.5302322,1.3261521-5.0856858,2.2871474-7.5363016.5061673-1.2907503,1.0346582-2.5735766,1.5896569-3.8439873.3188721-.7299058.679208-1.4462779,1.0795394-2.1346009.3518898-.6050599.8321471-1.0698941,1.7289523-.7627651.3289685.5006836.366599,1.0639657.1089285,1.7647824-.5943054,1.6163663-1.0830478,3.2720142-1.600065,4.916306-.7788069,2.4767798-1.4666039,4.9793334-2.0502673,7.5092731-.5041792,2.1853232-1.0151543,4.3698598-1.4635633,6.5669291-.2216902,1.08621-.2597625,2.20942-.4707327,3.2984771-.2237562,1.1552698-.2468595,2.3387511-.5772963,3.4815012-.1610733.5570418-.0741176,1.1660604-.2249387,1.7583081-.1872822.7354896-.1085517,1.5358398-.2668573,2.282263-.3036692,1.4318341-.2321374,2.9111597-.6000228,4.3308641-.025936.1000665-.0003508.2124837-.0075235.3185696-.0780288,1.1561148-.0814332,2.3236703-.2540062,3.4655884-.3034613,2.0079479-.1537317,4.019965-.1903098,6.030136-.0075625.4152299-.0662173.8437466.1756006,1.2379544.0460766.0750921-.0650089.2467016-.1241444.4415434.9301867-.0500398,1.5457892.3764358,1.8791236,1.4219405-.1816168,2.3641805.2267059,4.835175.9201293,7.316817.19617-.181685.370926-.343544.543499-.5033618-.0028067-.8216064.3799698-1.5061592.8510274-2.0947017,1.1871945-1.4833039,2.4428672-2.9117578,3.6710447-4.3622219,1.1134537-1.3149706,2.2206183-2.6353105,3.342713-3.9428447.6203194-.7228269,1.2710186-1.4194574,1.8984976-2.136252,1.4152777-1.6167173,2.8221224-3.240819,4.237582-4.8573932.6273751-.7165086,1.2568032-1.4317561,1.9039551-2.1302976,1.0289928-1.1107033,1.8464048-2.372371,2.637465-3.6527857.3663521-.5929757.6821707-1.2175692,1.056683-1.8050067.3297481-.5172076.2421557-.9820612-.0528075-1.4657789-1.5395131-2.5247524-2.9368981-5.1281072-4.2038886-7.7984676-1.1281369-2.3777663-2.197567-4.7833931-3.2970521-7.1748102-.9846314-2.1415498-1.9734469-4.2811754-2.9631719-6.4203655-1.0909091-2.3579012-2.2377573-4.6894759-3.1546512-7.126428-.3654295-.9712511-.8659834-1.8913964-1.2993585-2.8374002-.129355-.2823756-.217779-.5851168-.3629607-.8583139-.299862-.5642442-.2435201-1.0751789.2692611-1.6773266.2536814-.0851482.6367048-.2137123.9913233-.3327469,1.104124.8333785,1.80064,1.8933855,2.3556387,3.0228424,1.1783976,2.3981514,2.3233616,4.8147119,3.4056428,7.2576052.9796027,2.2111686,1.828811,4.4798589,2.7886629,6.7001865.9784723,2.263399,2.0318548,4.4918455,3.2106682,6.6624324.9614762,1.7704508,1.8382576,3.5874441,2.7327498,5.3936208.6169019,1.2456768,1.1921712,2.5119077,1.8025371,3.7608867.1980931.4053364.4480712.7853344.674985,1.176526.4560365.7862054.6026475,1.6327472.4760083,2.60849-1.2109345,1.0176182-1.6912827,2.6286281-2.7057613,3.8800902-1.0789027,1.3309615-2.0636641,2.7378732-3.1076,4.0977483-1.0536294,1.3724598-2.2134066,2.6522114-3.424601,3.8885017-.9892183,1.0097268-1.9358683,2.0611208-2.9066612,3.0890486-1.3851057,1.466585-2.7750062,2.9286197-4.2145567,4.4471556,1.1563078.8652628,1.6962204,2.1299076,2.225491,3.4250131.4297887,1.0516671.9952735,2.0478341,1.5336658,3.1354481.5103513-.3321943.8300811-.7570058,1.192535-1.1282413,1.8055388-1.8491961,3.5696137-3.7403585,5.4139525-5.5497334,1.3840532-1.357808,2.868225-2.6133783,4.306658-3.9157642,1.3861972-1.2551153,2.7696787-2.5132468,4.1565516-3.767621,1.3665633-1.2359912,2.5368137-2.6503523,3.6554909-4.1036636,1.1942372-1.5514667,2.3158901-3.1586934,3.4989915-4.7189876,1.0827099-1.4278948,1.9243816-2.9829497,2.5407378-4.6579882.308451-.8382733.5465656-1.702808.8041841-2.5591783.0493381-.1640301.0616044-.3460791.0559001-.5186506-.0261309-.7914317.0310166-1.5817453.0287037-2.3733721-.0033135-1.1350147-.2621794-2.2291551-.5292706-3.2974111-.6014131-2.4053928-1.3774393-4.7664922-2.0456544-7.1559006-1.1823607-4.2278139-2.9743208-8.1968031-5.0950414-12.0214063-.9774587-1.7627933-2.0571411-3.468897-3.0930987-5.1991366-1.393045-2.326628-2.7313724-4.6779768-3.8165772-7.1731721-.9326685-2.1444879-2.0930434-4.1679716-3.5723815-5.9992788-.5691881-.7045999-1.0705606-1.4665915-1.5722579-2.2227392-1.3454871-2.027891-3.0823397-3.6432237-5.1557492-4.8945948-.8082382-.4877999-1.7418033-.6612165-2.656761-.8293548-1.8019784-.3311283-3.6106487-.6055669-5.3398219-1.2626297-2.1790895-.8280222-3.9348094-2.1362845-4.9248593-4.2899444-.6515309-1.4172733-.9636981-2.9353346-1.2209918-4.481653-.3114916-1.8719604-.2198451-3.7406576-.1424789-5.600277.0614485-1.4771741.3733299-2.955775.8246106-4.3809364.3242257-1.0239463.683704-2.0377358,1.0602044-3.0437931.3144412-.8402266.8050677-1.5441798,1.6196599-1.8367772,1.6823299-.2548011,2.5127358.7679362,3.2749884,1.9184444.9312912,1.4056311,1.4701513,2.9775707,1.8636868,4.591145.1966248.8062525.1968977,1.6636466.2543181,2.5000835.1674534,2.4389087.6531161,4.8131453,1.7471828,7.0004966.6726981,1.3449373,1.5659688,2.5855308,2.902659,3.3996097.2873358.1750027.6033102.3029232.9995615.498701.0415547-.2934132.1261065-.4775424.0768983-.6130619-.2355938-.6489178-.0911137-1.3333731-.2081245-1.9805814-.2216252-1.2258897-.0552634-2.4734126-.2344243-3.6822128-.2670522-1.8017825-.1115793-3.5972466-.142232-5.3943229-.0118635-.6948071.1277568-1.3912556.1794208-2.0883638.0490263-.6617073.116452-1.3279518.1612422-1.9810266.084097-1.2264585.3478747-2.4178703.5159647-3.6236056.1707278-1.2245376.5131061-2.4294962.8385272-3.6271905.7601995-2.7979462,1.7107997-5.5381726,2.784011-8.2266073.8343821-2.0901417,1.8370751-4.1147012,2.8063737-6.1486554.6281287-1.3180453,1.2352332-2.6751431,1.3587539-4.1086672.1523933-1.768603.2834765-3.573899-.3520328-5.3248698-.6463463-1.7808725-1.7659981-3.0404161-3.5719527-3.6814815-1.459938-.5182395-2.9553626-.7990761-4.5020354-.7522126-.6255039.018951-1.2473566.1668455-1.8726786.1823083-1.3588579.0336004-2.4408142-.5490374-3.2441277-1.6291606-.8411519-1.1309983-1.776952-2.1453395-2.9691102-2.9307437-2.0774767-1.3686725-4.8786007-1.3130538-6.6382708.3956833-.7398639.7184497-1.3548817.7241489-2.4640084.1221385-.1255868-.3102036-.3408579-.6795134-.4239544-1.0765163-.2934429-1.4020799-1.3227086-1.980429-2.5480534-2.3179975-1.5568861-.4289059-3.1340297-.2919917-4.6770902.0509539-1.3192003.2931922-2.5892833.7795117-3.668238,1.6326781-.5221499.4128715-.996352.8883525-1.4766872,1.3516534-.4282424.4130702-.7756363.9388127-1.4759726.8823652-.5950851.0024612-1.0038365-.361762-1.3280492-.860897-.0639953-.8602315-.1281986-1.7419605-.5015804-2.5347439-.5478909-1.1632445-1.5745579-1.7230071-2.7805806-2.0201332-2.1356897-.5261736-4.32598.2755778-5.9335556.9728323-1.2951614.5617513-2.4147613,1.3997438-3.4807349,2.2974284-.3853363.324506-.6816249.8124693-.8828106,1.2838412-.2572937.6028262-.0203486,1.1718904.4437312,1.6152027.6148489.5873432,1.2495656,1.153873,1.9104001,1.7611902-.4473825.2338382-.7554047.3948286-1.1207433.5857823-.5911609-.0121735-1.2501503.0987762-1.9451655-.1609497-.0268585.6646016.334335,1.1539348.6932091,1.59518,1.0031868,1.2334683,2.2545845,2.0017717,3.8885249,2.2340962,1.1639093.1654943,2.2718665.1365352,3.4302793-.0024409,1.6269106-.1951814,3.2007408-.5380396,4.7317558-1.0998754,1.3690841-.5024079,2.7460686-.9821522,3.8638233-1.9921.2989134-.2700818.7258564-.3983225,1.1346858-.6130334.3790083.1778571.752598.353171,1.1114916.521588.109942.2049287.2516413.3786597.3006286.5754898.25667,1.0313664,1.1122842,1.3319105,1.9661963,1.4584579.7102117.1052489,1.4515179.0832842,2.1988534-.0873664.8379944-.1913494,1.71015-.223341,2.5535499-.4674181,1.4876282-.430522,2.9952151-.792692,4.4978513-1.1699679.3676125-.0922953.748323-.1322945,1.0120227-.1773664.9218835.3646027,1.2094792,1.0595796,1.4408759,1.9196064.7806.2133093,1.5997142.4700312,2.434811.653993.5749704.1266562,1.1741485.2249043,1.7589424.2085396,1.2842595-.035934,1.8421948,1.1753218,1.6926601,2.1590812-.1086036.7143959-.3349977,1.4104268-.4990076,2.1169361-.2191824.9442454-.1958582,2.4984845.470213,3.6472279.8824078.5998564,1.7825914.3787353,2.6825411.0539416.5512304-.1989354,1.1016422-.4006399,1.6479088-.6126962,1.2989687-.5042475,2.583462-.4099695,3.8724253.0506248,1.2231488.4370793,1.7125409,1.4449583,2.0808941,2.5713681.3984992,1.2186093.206942,2.4305655-.0908149,3.6135008-.2686894,1.0674922-.5762958,2.1502472-1.0573457,3.1328577-.6107428,1.2474871-1.3639255,2.4378296-2.3284423,3.4612006-1.917157,2.0341216-4.175055,3.6327093-6.5498728,5.0786167-1.2187958.7420582-2.4490004,1.466702-3.6462782,2.2421298-.523969.3393512-1.0336837.7431503-1.1197168,1.4295687-.4697322.5169248-1.0557734.5320219-1.7612943.4422877-.2068771-.2843322-.4513197-.6202968-.6648237-.9137457-.1696883-1.1708967.3625189-2.0266657,1.0569299-2.7960319,1.2829471-1.4214627,2.8593371-2.4864035,4.4641319-3.4930654,1.0262121-.6437273,2.1272046-1.1709877,3.208849-1.7226439,1.1239008-.5732147,2.204012-1.2204294,3.146361-2.0538242.4931343-.4361286.8947911-.9922733,1.2727988-1.539181,1.0989394-1.5899878,1.7163091-3.3840024,2.1103904-5.2599718.2314227-1.1017312-.5048809-2.0096217-1.7722742-2.216676-.3055143-.049913-.6137964-.0828227-1.0964706-.1468577-1.1373496.3488206-2.439034.8118152-3.7751784,1.1299948-.6345348.1511025-1.3347671.0259608-2.0971365.0259608-1.7523284-.4514467-2.0927965-2.0357905-2.4899834-3.5588051-.1306284-.5009534-.1694154-1.030107-.2098657-1.5495133-.0852145-1.0945386.1144899-2.1574984.4532168-3.2437149-.1829682-.1123847-.3418845-.2736294-.5264509-.3123-.7802102-.1634645-1.5630712-.3468722-2.3543393-.4169671-1.0698329-.0947704-1.9437687-.4956475-2.6182339-1.3332902-.0631117-.0783797-.1634902-.1267229-.2273426-.1745996-1.7943899.4506585-3.5630128.8985917-5.3337927,1.3377755-.7409294.1837668-1.4779087.38637-2.2555981.3704246-.2737701-.0056131-.5483847.0860501-.8244027.1173234-.2777852.0314715-.565069.0937433-.8356815.0550483-1.5695032-.2244216-3.1455684-.4521243-4.166323-2.0000727-3.5622981,1.8230614-7.211487,3.2589013-11.2231557,3.7970514-.4639629.8435548-.931694,1.7671047-1.4700993,2.6473898-.3636494.5945537-.7859665,1.1651292-1.252957,1.682314-1.6364612,1.8123261-3.511797,3.3583568-5.429084,4.8645842-1.0522521.8266474-2.0035474,1.7848751-2.9727225,2.712681-.294424.2818491-.4965258.660248-.7076584.9489484.1845664.706381.6365943,1.1183868,1.1065409,1.4768653,1.4746017,1.1248514,3.0980689,1.8829687,5.0094306,1.784732.4114477-.0211457.8435493-.072687,1.2210893-.2232711.6179674-.2464774,1.2389365-.1966944,1.8658568-.185972.2348791.1652586.4638199.326344.7379668.5192324.1329803.2600404.2915978.5702017.4589992.8975566.1026004.5943668-.0196859,1.1438032-.3464713,1.6901648-.4569851.7640099-.8387611,1.5730544-1.2646646,2.385609.6996736.5713393,1.5988956.6407241,2.413059.8626659,2.3368364.6370189,4.7441131.479629,7.1331723.4393268.4813748-.0081189.9968458-.0548695,1.432014-.2376954.5932009-.2492238,1.1790733-.1313723,1.7648416-.1771705.3188202.1610561.6301558.3183258.9430897.4764081.5075576,1.0868828.2602173,2.0162976-.7383046,2.7074352-1.0161158.7032998-2.1877045,1.0287533-3.3700003,1.2779381-1.0484188.2209797-2.119772.3330134-3.2590967.5049219.0536781.1703224.1003135.3182998.159683.5066705-.3824906.6705543-.7931522,1.3905243-1.2016958,2.1067566v1.1719465c.884279,2.123066,2.7135967,2.9144327,4.9162053,3.1923003.8936606.1127422,1.7908945.20859,2.6831258.3627233.8533143.1474086,1.7030553.3191416,2.5572532.4604887.9031202.1494368,1.7279777.4747277,2.5624378.8310189,1.1875323.507041,1.6343172,1.4360398,1.7603197,2.7062749-.3159355.2389467-.6438644.4869679-.9978983.7547307-.4757484-.2311788-.9354102-.4545506-1.4796629-.7190177-.2514984.9620141-.4919909,1.8819124-.7324833,2.8018042-.35801,1.3692941-.6863417,2.7472792-1.0832687,4.1051847-.3241607,1.1089482-.8051976,2.1516968-1.7874641,2.988202,2.3674242,1.3715952,4.2185198,3.2181457,6.0089466,5.1175311,1.5110433-1.1672435,3.178794-1.8618263,4.8432182-2.5443445.9209739-.3776644,1.9243946-.5536291,2.8463821-.9292913,1.0112951-.4120383,2.0331022-.4678048,3.0906688-.3851268.7706986.5944318.8550165,1.3951785.7056898,2.2719665-.1222473.7176981-.2537593,1.4343757-.3520198,2.15548-.3418065,2.508495-.8247536,4.9888305-1.5111083,7.425282-.1392954.4944693-.3851934.9729282-.65552,1.4135746-.6476067,1.0555478-2.3415532,1.6050296-3.4937289,1.1548668-.3733429-.1458811-.7228678-.3527615-1.2777105-.6282857.5592477.7989396.1946238,1.4170977-.0507155,1.9893113-1.347852,3.1437621-2.5083569,6.3575981-3.6889114,9.5652782-.4302045,1.1689465-.9471048,2.3097985-1.4910586,3.43113-.2240421.4618375-.5660955.9046225-.9537967,1.2417311-1.2635081,1.0986062-2.973944.6220453-3.4797864-.9827178-.2895317-.9185787-.4439002-1.8806448-.6446311-2.8262131-.3945101-1.8583226-.7672422-3.721332-1.1713029-5.5775355-.3007585-1.3815993-.6775578-2.7478057-.9393864-4.1361849-.1280296-.678904-.0084071-1.3941645-.2257183-2.0793088-.1262105-.397926-.1604106-.8250581-.2360226-1.2390399.0532103-.0303957.1064207-.0607914.0533013-.0304477.0336024-.063398.0024299-.0045958-.0287427.0542065-.3581009.1190736-.7161889.2381406-1.2267352.407904h-.9310183c-.6430068-.4020147-.9740413-.9538887-1.0937678-1.7691182-.1133724-.7719566-.1564475-1.5338962-.1614761-2.3037467-.0132279-2.0230417-.0143843-4.0462004-.0096675-6.0692876.0014683-.6291307-.0546657-1.2652429.2075657-1.8723959.060344-.1397187.0089009-.3277741.0089009-.5470377-1.8225349.4179731-3.4916889,1.0348766-5.1384283,1.7132931-.6144331.253137-1.153683.6126263-1.6304709,1.1113859-.401176.4196697-.9454936.7118283-1.4508682,1.0203938-1.114922.6807111-1.8381406,1.7380205-2.6202934,2.7269526-1.4959963,1.8914874-2.6406485,4.0070683-3.605633,6.2029805-1.139812,2.5937017-2.166193,5.2375992-3.226209,7.8660128-.998405,2.4756812-1.987331,4.9553276-2.9606706,7.4409674-.946624,2.417425-1.84914,4.8522514-2.8060553,7.2655292-.9680771,2.4414048-1.9587897,4.8743722-2.9816884,7.2932077-.3897023.9215299-.8382218,1.829513-1.3634707,2.67963-.7880261,1.2753964-1.896646,2.281626-3.1192946,3.1214854-1.3157374.9038099-2.6324753,1.8060597-4.0894052,2.5040943-1.4954376.7164956-3.0221516,1.104086-4.6703268,1.286096-1.6256307.1795269-3.2474866.2261345-4.8555884.1203216-1.690737-.1112341-3.391161-.0315527-5.0650188-.2199721-1.2343626-.1389517-2.4695244-.0304997-3.6848378-.1894595-1.4417075-.1885494-2.8937646-.0614024-4.3206525-.2286566-1.1969919-.1403297-2.3869866-.1330623-3.5805092-.1877434-.3021619-.0138328-.6014716-.090225-.898202-.1372616-.0331736.0750791-.0874624.1380936-.0829535.1965579.0961489,1.2468859-.2719119,2.407811-.6341125,3.5742224-.31691,1.0205304-.5991067,2.0518643-.9185895,3.1541302.7484854.2296057,1.4638882.4782054,2.1946433.6674569,1.8057402.4676618,3.622941.8913422,5.4266671,1.3664014.9391395.2473387,1.8815145.4481217,2.8432376.5884385.9566749.1395497,1.9007131.3652942,2.8508131.5506064.4751312.0926691.9482353.2064254,1.4278754.2628875.8330047.0980904,1.6704079.1585568,2.505875.235833.731015.0676037,1.4606787.1603509,2.1931945.198495.7434373.0387031,1.5093606-.0802664,2.2303118.0559291,1.2798935.2417874,2.5750094.2367951,3.8593079.3392797.8117726.0647696,1.6495591-.1868463,2.4747219-.3033327.6521871-.0920711,1.3033801-.1915396,1.9542093-.2928932,1.2966102-.2019141,2.5906932-.4061554,3.8471131-.8117778.7124206-.2300217,1.3176995-.6291827,1.8943721-1.0724032,1.0004126-.7689145,2.089769-1.466806,2.9338575-2.3857097,2.153368-2.3442374,4.1946564-4.7769448,5.5355241-7.7320989.672828-1.4828489,1.6245002-2.8374327,2.4221873-4.2656135.8977082-1.6072267,1.7605276-3.2339156,2.6470675-4.8474347.1662059-.3025007.4031381-.5679494.5540436-.8766254.2864327-.5858904.7470561-.6494704,1.300333-.5448211.6710868.9309164.4214726,1.8308911.1154125,2.7900451-.6401936,2.0062578-1.780155,3.7638638-2.6878296,5.6356032-.9166339,1.8901744-2.1046341,3.6168257-3.3583447,5.3001717-.66535.8933703-1.2080238,1.8850261-1.9250638,2.7313858-1.0268229,1.2120179-2.1379636,2.3561591-3.2590383,3.4835554-1.0163237,1.0220514-2.1505743,1.9123796-3.4950153,2.4714625-1.177553.489685-2.3613755.9802671-3.5784496,1.3525817-.6880894.2104946-1.450173.1727145-2.1764777.2658907-.8961749.1149653-1.7865416.3170095-2.6852893.3607699-1.4550783.0708409-2.9062713.5895566-4.3737264.0837376-.0964348-.0332558-.2114315-.0104266-.3174428-.018409-.9418812-.0709449-1.882619-.1686843-2.8257932-.2073875-.9210714-.0378191-1.8522716.0579052-2.7652152-.0374031-1.3085322-.1366245-2.6223595-.1060209-3.9263048-.2157079-1.5935486-.1340374-3.1892931-.3329874-4.7589327-.6348121-1.5584583-.2996925-3.1299106-.5330164-4.6699955-.9589199-1.2971105-.3587288-2.6569624-.489308-3.9879158-.7271302-.4774831-.0853107-.9516852-.1889264-1.4063346-.2799705-.3995485.2641876-.7464486.4935463-1.1044456.7302503-.1691588-.0077744-.3445125-.0158479-.6052918-.0278345-.2667468-.3503953-.5600371-.7356586-.9034678-1.1867705-.732126-.0991565-1.4951972-.3204287-2.0738643-1.0633677-.0205467-.2477677-.0461416-.5564307-.0704826-.8499609-.1075219-.0283416-.1961181-.0813845-.2327253-.0568391-.5047509.3384477-.9282928.2189321-1.2929037-.217554-.256683.1349215-.5014082.2635636-.7323372.3849513-1.6061527.1475711-3.1278511-.1975459-4.6583854-.5905056-1.4056102-.3608869-2.8419154-.6064055-4.2700085-.8744023-2.3132816-.434107-4.4790783-1.2440257-6.422756-2.5751432-.8710673-.5965379-1.6531357-1.3186758-2.1390291-2.3166239v-1.3517756c.4280183-.5636071.9814414-.6615155,1.635243-.5418179,1.7941885,2.0445709,4.2203162,3.005831,6.7349914,3.7808818,1.3208375.4070915,2.6630631.7388178,4.0498061.8939034,1.2024949.1344664,2.3887148.4093146,3.5870679.5891795.3816005.0572682.7790343.0089705,1.1831858.0089705.2724869.1252749.5491741.2524869.8671594.398693.5870678-2.136122,1.0091705-4.3235837,2.1677588-6.3310896-.3496191,0-.6924294-.0841536-.9676645.0165499-.6900905.2525259-1.4009454.091447-2.0883071.1961548-2.2859455.3482372-4.5868925.108699-6.8764601.2320498-.9377849.0505338-1.8667306-.0562801-2.8015659-.0292126-.9568925.0276915-1.931655.0999755-2.869336-.0414463-1.1243556-.1695944-2.2614356-.0448395-3.3613366-.2238594-1.1641789-.1894855-2.3203438-.0852067-3.475128-.1756267-2.4669012-.1931257-4.9375804-.2077905-7.4090685-.217281-1.0394546-.3870314-2.1537188-.0676297-3.2198923-.3661262-.6574935-.1841032-1.3814024-.1060989-2.0806228-.2239374-1.1958582-.2015501-2.3873805-.434445-3.5826784-.6210183-1.3746512-.2145768-2.7154361-.5267501-4.0458859-.905838-1.9266682-.5489943-3.5824867-1.5324986-4.9104744-3.0596669-.4615624-.5307933-.4586491-1.1461173-.4411345-1.8000144-.7979836-.3791009-1.3472067-.9667984-1.6933392-1.7427202v-.852015c1.0449795-1.8156088,2.8145404-2.5862458,4.6777626-3.1774795,1.0280045-.3261945,2.092492-.5620015,3.2242038-.4015402.6811141.27217,1.408987.5465892,1.6484676,1.4192884.3686139-.1200226.6844032-.2228388.968419-.3153129.6957161.1128202,1.3737652.2227803,2.0518152.3327339.132381.3368811.3407467.226479.5532274.0238888h-.5752668c-.2883964-.2661442-.5767936-.5322884-.8631621-.7965605q.7173486-.9396269,3.3697258-.9287193c.1528254-1.0018353-.0448617-2.027956.0883542-3.0276462.1319197-.9899397.390516-1.9629849.6113048-3.0291868-.3004483-.1011781-.642734-.2157599-.9845697-.3316808-2.0210308-.6853263-3.9214102-1.6350678-5.6108737-2.9237769-1.6292016-1.2427516-2.6207698-2.9808111-3.1822881-4.9399673-.2673697-.9328665-.4702617-1.8839405-.4533358-2.8765908.0326725-1.9161563-.0069035-3.8335477.026444-5.7496845.0121116-.6959284.1469277-1.3897182.2511719-2.308466.1216671-.1130672.3791898-.352378.5962768-.5541101h.9139263c.1576591.2174695.2991351.4126168.4659241.6426775.6401392-.9999827,1.6940797-1.086561,2.6690948-1.2881891.7154978-.1479547,1.4775002-.0889834,2.1820595-.2673858,1.0156821-.2571867,2.0313058-.1387502,3.0466842-.1754057,1.4049573-.0507288,2.7805221.1556836,4.167395.3851268,1.5743954.2604629,3.0973932.6804056,4.6285463,1.0978846.6185587.1686583,1.1565872.4499288,1.6725519.8800771.3921906-.1753277.8093086-.3850748,1.3161548-.1326983.4360388.6419754.5104196,1.3833154.3646662,2.1655166-.0444037.2383162-.1270973.4749552-.1337145.7139929-.0464372,1.6775866-.4405834,3.2961435-.8828025,4.8962329-.7119317,2.5760142-1.9795914,4.8681513-3.7592007,6.8657506-.8209967.9215689-1.6441552,1.8445158-2.5214499,2.7109812-.3614664.3570062-.8535514.5959464-1.3170027.8267156-.1433723.0713869-.3882892-.0613829-.6224081-.1077565-.1970536.1492027-.4439651.3361596-.7255689.5493843.4889893,2.0681217.119504,4.192907.2637436,6.3724644.2288921.0155294.461559.0313122.7566343.0513268-.1070476-.3578123-.1994949-.6668263-.2984342-.9975386.4459207-.7013302,1.1678091-.878699,1.9671757-.9342186.6951581-.0482717,1.4143893-.0569171,2.0704745-.2561531.4600013-.1396992.8975539-.1201656,1.3463203-.1658242,3.6693571-.3733741,7.3492864-.1969024,11.025048-.1959468,1.0145598.0002665,2.0325825.1105841,3.0425879.2264855.9212728.1057088,1.4298959.4944173,2.0598991,1.4192299,1.2354184-.525242,2.542583-.6309183,3.9138631-.6123338-.3533224-2.544299-.4375429-5.0573183-.3427356-7.6320389-.4438287-.226375-.8661524-.4539916-1.2987218-.6600724-1.2125815-.5776999-2.3051831-1.3324631-3.2434845-2.2883539-.8390209-.8547647-1.694398-1.7075468-2.4223302-2.6537845-.8996996-1.1694861-1.3173324-2.5752537-1.5717966-4.0186064-.1565806-.8881505-.2858057-1.7814624-.4107688-2.6747742-.1287118-.9201323.1249176-1.8141267.2271152-2.717215.0332483-.2937837.5139702-.7073366,1.0065717-.9841023,1.3407703-.0621564,2.6156611.3218328,3.9158187.5537006,1.2300616.2193741,2.455283.4547781,3.7136617.5487733,1.4071792.1051238,2.8116849.218048,4.218169.1596163,1.1080774-.0460355,2.2197282-.1503988,3.3039974-.4206447.0823363-.0205216.1506684-.0972974.3489012-.2314063-.5700294-.226843-1.0644339-.2743086-1.5354687-.406786-.877233-.2467081-1.8113081-.0718095-2.6732471-.3963269-.0632352-.0238108-.1408612-.0080279-.2115776-.0134752-3.1394157-.2417678-6.2841297-.2509594-9.4297046-.2078165-.203739.0027887-.4090925.0625725-.6093135.1131908-.5511427.1393222-1.0978252.1123457-1.7718584.0248509.1991554-.2428014.2953206-.4722901.4545617-.5312483.3520685-.1303582.7323696-.2067374,1.107431-.2480277.8344373-.0918371,1.6715709-.1741836,2.5097862-.2123342.8144103-.0370585,1.6315527-.0137353,2.4474898-.017694.3901506-.0018981.7803207-.0035817,1.170429-.009055.3528156-.0049403.7168353.0370975,1.0553349-.036441.3819092-.0829576.7352965.0470626,1.100411.0569431.4712492.0127537.8991635-.245044,1.4176589-.0576712.441035.1593888.9818312.0433899,1.4785032.0474006.4611919.0037312.9224033.0054993,1.3836114.0073194.4966882.0019501.9934706.009666,1.4900483.0030227,1.1377037-.0152173,2.1580978.2400388,2.8478472,1.2293739.3376159-.145699.6472494-.2793204.973671-.4201897.5372424.2884014.8803418.7112498,1.1224585,1.3689366,0,.588224-.0016242,1.2977187.0003054,2.0072003.00536,1.9706878-.4214531,3.8762095-1.1364335,5.6814242-.4763071,1.2026119-1.3406793,2.2359935-2.3719526,3.052289-1.6468986,1.3036015-3.3416442,2.5465351-5.0042265,3.83059-.3628113.280211-.6753358.625601-.9946855.9256381.1489824,2.4034687.2961814,4.7782188.4457875,7.1917306.8237173.5676958,1.8843277-.0042967,2.8192669.5025623-.0664739-.2820961-.111524-.4732651-.1665763-.706888.233505-.2519409.4698491-.5069435.7542158-.8137539.6235256-.0620069,1.3112415-.2832726,1.9273638-.1564311.9637014.1984105,1.9391006.1313008,2.9059887.317796.9813115.189284,1.9877857.3121472,2.9807658.4826191,1.9042735.3269226,3.7537059.832722,5.4841524,1.7098349,1.341342.679892,2.2904869,1.7223091,2.6755893,3.1918257.1401075.5346285.1074732,1.1145645.1443761,1.5615292-.4035993,1.1345596-1.1890266,1.5430682-2.2980819,1.666107-.1295304-.1653171-.2815015-.3592618-.4837592-.6173911.3227963-.4001101.6677409-.8276647,1.0543766-1.3068972-.0368379-.8967375-.5065701-1.5959876-1.2434714-2.1434674-1.0112626-.751318-2.1713386-1.1877716-3.3720404-1.5001073-1.5384346-.4001751-3.1019346-.6724881-4.6783441-.9031794-.7354525-.1076264-1.4630208-.11739-2.1926812-.1873923-.6160898-.0591208-1.2286388-.1552481-1.9821334-.253098.1672454.5249365.2874105.9021068.425806,1.3364933-.0696607.2373086-.156912.534544-.2277941.7760193-.5164683.7200383-1.2386376.9760289-1.9961734,1.1378228-1.384482.2957143-2.7733592.5720446-4.16478.833099-.309419.0580612-.6386149.0011961-.9558043.0296026-.4152939.0371951-.8271899.1109091-1.2416068.1599478-.1743012.0206321-.3557653.0475826-.5263339.0215552-.8225641-.1255219-1.6499976-.235131-2.4602272-.4187531-.3986844-.090355-.8072344-.2702654-1.1348093-.5130083-.6224764-.4612265-1.0161386-1.0704531-.8223367-1.9075953.1070119-.1412528.2141634-.2824601.3237579-.4268851-.0477529-.0408093-.0878555-.1032192-.1396268-.1152189-1.2467946-.2889865-2.4965518-.2988345-3.7537189-.0555196-.2737051.0529714-.5626196.0335614-.8446343.0362525-1.5609239.0148793-3.1379312-.1065994-4.6779251.0795319-1.3095685.1582707-2.6155539.2057234-3.8977327.0896139-1.2684685-.1148678-2.5292853-.107854-3.7939385-.1435149-.2095132-.0059088-.4193351-.000832-.6435022.071582,1.1130866.1693994,2.1605033.4873124,3.1500659,1.1338706.1073871.2011146.287979.4326054.359415.6939653.18328.670577-.1561307,1.3663689-.8407037,1.6110425-.6461904.2309448-1.3230903.3994601-2.0002551.5137624-.7561632.127641-1.5492911.0763402-2.2878718.2587793-1.1925626.2945833-2.3909059.2099486-3.5774101.1566326-1.5260237-.0685918-3.0120463-.4396063-4.4615786-.9458672-.939388-.3280861-1.5453149-.9237205-1.6939871-1.8922155-.737564.1767253-1.4187999.4110112-2.1178075.4922852-1.3518241.1571657-2.4803207.8318379-3.6430411,1.4367743-.2758883.1435539-.5180757.3519294-.8112999.5551047,0,.2217922,0,.4585223.0004907.6954084.056849.0357.1156762.1054358.1691911.1015746.7019219-.0507288,1.243028.3601069,1.6659688.7818892,1.2326693,1.2292699,2.767879,1.8615208,4.368662,2.3395702,2.3787371.7103462,4.7763471,1.3639183,7.1855323,1.9626664,1.0403967.2585583,2.1388017.2736391,3.1950575.4801945,2.2622932.4424274,4.5472804.4182981,6.8327337.4180251,3.4413226-.000403,6.8828742.0109466,10.3238768-.0256504,1.8574724-.0197481,3.7174202-.0822945,5.5693799-.2188151.81417-.0600113,1.6138614-.3419839,2.4154954-.5417919,1.7709618-.4414264,3.5262041-.9574379,5.3125735-1.321692,1.2586029-.2566342,2.5584291-.3089361,3.8386735-.4623185.447584-.053615.8901945-.1485332,1.3377069-.2030192.4478828-.054551.8871441-.0452165,1.3456885-.1691783.7320286-.1978839,1.5208018-.1881594,2.2862314-.2591693.8708822-.0808125,1.7702406-.0461785,2.6056687-.2617435.7801972-.2013031,1.5307942-.1143413,2.362532-.1676053.1994445.2231183.4108435.4596014.6530772.7305883v1.032751c-.3180665.6004382-.9063882.8320979-1.5165463,1.0003662-1.5933017.4394113-3.1896504.868695-4.7909629,1.2777626-1.4012247.3579618-2.8086151.6926652-4.2178117,1.0180212-.5981776.1380936-1.2079264.2260045-1.956951.3632011.9956308.9072811.774769,1.8305531.4018484,2.8306463-.6014001,1.6128431-1.1095263,3.260502-1.6463983,4.8616704.6929102.145127,1.4239025.2982105,2.1494958.4501759.2190362-.8409384.5145484-1.6964377.6483831-2.5765603.1094385-.7196677.1151688-1.4834859-.0035961-2.1994224-.0776617-.4681949-.1386717-.8560453.0635958-1.304232.1242549-.2753162.0920396-.6213303.1417253-1.031776.5147433-.3099891,1.1581367-.4944953,1.8781653-.4899841,3.263794.0204371,6.5279779-.0009751,9.7914406.0394442.8194975.0101406,1.6782498.1952708,2.458512.0930851,1.2037683-.1576337,2.3916515-.053472,3.584115-.1046168,1.0980298-.0470886,2.2028555.0333988,3.2980722-.0405102,1.4264071-.0962313,2.8554779-.1596228,4.2768953-.3708845.7894749-.1173445,1.5760587-.2093766,2.3510128-.4146059,1.0519207-.2785404,1.9951923-.7830462,2.9168354-1.3342507.9858204-.5895956,1.9967191-1.1489254,2.9244759-1.8212056,1.4031868-1.0167991,2.5147434-2.2647901,3.0694822-3.9866311.4111878-1.2762675,1.0188965-2.4896765,1.5481216-3.7272148,1.1280914-2.6379367,2.0936996-5.3374187,3.0659803-8.0349377.9750094-2.7050724,1.9726283-5.4019803,2.9598-8.1026584.5694739-1.5579605,1.1310865-3.1188332,1.7092144-4.6735696.3735313-1.0045525.7275586-2.019642,1.1652477-2.9963925,1.2250199-2.7337455,2.4944338-5.4486139,4.1906672-7.932713,1.0117758-1.4817373,2.0582716-2.9536331,3.6849937-3.8322931,1.2124873-.6549242,2.2211705-1.5630113,3.298345-2.3951353.7347963-.5676243,1.5968165-.9933524,2.447597-1.3827174,1.5667485-.7170351,3.1854989-1.3120324,4.865048-1.7144632.8383712-.2008871,1.6978057-.3151569,2.5337341-.5245075,1.14512-.2867958,1.9267076-.9322425,2.3852909-2.1061358.668618-1.711577,1.0375559-3.5072167,1.6550166-5.2282062.256553-.7150525.4988777-1.4352142.756964-2.1798694-1.151526-.1613714-2.357068-.28116-3.5419106-.5087571-1.4903439-.2862823-3.0180585-.4822941-4.4222783-1.078351-2.2754139-.9658558-3.8877322-2.6128713-4.4542045-5.0629671-.2860234-1.2371223.0965972-2.4275233.9292511-3.4270087.1743791-.2093213.3724463-.3988848.6585346-.7025848-.2852827-.0673242-.4343886-.1305695-.5847418-.1336929-1.6933228-.0352059-3.2819921-.5208088-4.8195951-1.1707374-.9211039-.389339-1.6772882-1.0474191-2.2730685-1.8459849-.7509608-1.0065546-.6539608-2.6272306.1911284-3.7976267.3494989-.4840362.7494989-.9315729,1.1944256-1.4793062-.3594783,0-.6831062-.076415-.9490344.0150711-.6605292.227233-1.2884305.0724595-1.9486089.0361062-1.4235094-.0783878-2.5732228-.7889193-3.7891924-1.3637688-.9716439-.4593414-1.7777252-1.1563261-2.4364352-1.9863537-.6838794-.8617591-.8563159-1.8591059-.5833385-2.9569353.3391103-1.3638143,1.3270291-2.2240458,2.3101533-3.0649582,1.3313821-1.1387946,2.708672-2.2281459,4.1131907-3.275734,1.2057044-.8992905,2.1461108-2.0210201,2.9873537-3.2404062.5955658-.8632899,1.0731334-1.7892823,1.2532948-2.9107453-.1092923-.0544178-.2834765-.1562053-.4685627-.2310276-2.547982-1.0300973-4.1658682-2.9129278-4.7232643-5.5669001-.2783374-1.3252777-.1378336-2.7303986.4703494-4.0152571.2829893-.5978526.4311791-1.2272523.5901019-1.8697372.2245749-.9078799.7282603-1.7351595,1.3841961-2.4311225,1.8166941-1.9275443,4.0197965-3.1599938,6.589186-3.8319604,1.4201245-.3714046,2.8436534-.5098606,4.2670653-.3648677,1.4882909.1516013,2.8976953.6224903,4.138399,1.5620385,1.0695081.809921,1.7458574,1.8798746,2.4072247,3.0451366,1.0299154-.8311526,2.0849352-1.6726214,3.3309014-2.2053018,1.112765-.4757304,2.2395895-.9137156,3.4782141-.9576573.3776699-.0133976.7582374-.2005659,1.1268245-.1717106,1.9499278.1526554,3.8708011.3908713,5.518489,1.6327705.6310264.4756215,1.1509153,1.0178201,1.6451931,1.7320552,1.0425975-1.0373777,2.352754-1.5095381,3.748073-1.7757116.4089074-.0780033.8442575-.1573089,1.2478374-.0992444,1.8535645.2666803,3.5553204.8824877,4.9541997,2.2086296,1.0813846,1.0251468,2.0010721,2.1650254,2.7358164,3.4581304.0687511.1209741.1313691.2464286.2107753.3600541.0811214.1161037.1794078.2202021.2368802.2894439,1.0950282-.2703808,2.1127553-.6106925,3.1572759-.7504469.7866942-.1052571,1.6101614.0199195,2.4126432.093103.5494892.0501096,1.1087369.1306694,1.6331477.2949757,2.4294444.7611733,4.3809055,2.1774659,5.598415,4.4420577.653389,1.2153071,1.0060325,2.5531314,1.2562575,3.9272211.2241201,1.230765.178927,2.453827.189673,3.6829977.0147352,1.684503-.3287476,3.3215989-.739773,4.9405442-.6472948,2.5496472-1.6594735,4.9720449-2.6494324,7.4018076-.9895821,2.4288396-1.8785779,4.8973054-2.5075772,7.4443638-.3230952,1.3083565-.4668865,2.6603954-.7102247,3.9892995-.2460279,1.3434844-.3199766,2.7019197-.4428996,4.0590939-.4068543,4.4921055-.0463885,8.9904677-.1994185,13.4825537-.0247145.725219-.1320708,1.4594086-.3026557,2.1649055-.2165966.895795-.6265305,1.711733-1.421125,2.272259.1520295.5856953.7091462.715878,1.0719249.9860914,1.035204.7710596,1.8217292,1.7442998,2.5925968,2.7526095.8516251,1.1139405,1.4993877,2.3432234,2.0999302,3.5986702.2161028.4517424.480855.8397684.8426982,1.1841769,1.1770072,1.1202914,2.104777,2.4305232,2.8471747,3.8713213,1.6880992,3.2761289,3.3064728,6.5900314,5.0691054,9.825364,1.5795735,2.8993291,3.1275067,5.8117889,4.5409653,8.7945566,1.4365748,3.0315594,2.8884176,6.057262,3.8073125,9.3035672.5355986,1.89217,1.0305521,3.7905608,1.4563517,5.7127819.4870142,2.1986554.4648854,4.4111046.3550733,6.6189385-.0536391,1.0783705-.4021115,2.1478356-.774233,3.1949264-1.1452499,3.2225009-2.971631,6.0613507-4.8865011,8.8472875-1.2864814,1.8716874-2.6096449,3.7253427-4.0321602,5.4938694-1.0829048,1.3463153-2.3141229,2.5799145-3.5403773,3.802398-1.503052,1.4984367-3.0556501,2.9482248-4.6130819,4.3906804-1.3452662,1.2459628-2.728007,2.4513894-4.0928811,3.676187-1.391057,1.2483159-2.7744605,2.5052383-4.1725991,3.7455198-1.0538243.9348426-2.1229296,1.8525633-3.1923987,2.7695299-.1558237.1335954-.3516949.2204272-.5040882.3136423-.495928,1.2207024-1.0894798,1.4838629-2.2819109,1.1497705-.7605503-.2130688-1.3627041-.6777534-2.0176264-1.0661889-.1713905-.1016656-.3720825-.1539285-.5593126-.2288646-.0299641-.0606744-.0599412-.1213617-.0226745-.0459185-.0743385-.0397302-.01506-.0080474.0442185.0236353Zm2.7586468-90.5187917c.034499.0589518.069011.1179035.0070427.0120322.1087726.0585227.0482206.0259429-.0123313-.0066369-.1111635-.2121587-.1870483-.4545766-.3388959-.6318479-1.8055517-2.1079299-2.2458916-4.7049273-2.6359577-7.3196057-.0975068-.6535916-.0768724-1.3380794-.2638816-1.9623934-.4358439-1.4549948-.6001657-2.9679891-1.0191304-4.42262-.3416246-1.1861042-.4748128-2.4420093-1.1905209-3.5736471-.107824.2825284-.2268618.5224924-.2906102.7763541-.1343967.5352038-.2692871,1.0732548-.3512011,1.6180791-.1859438,1.236781-.5333117,2.4564661-.500333,3.7178153.0404243,1.5459999-.0824858,3.088119.1636201,4.6416268.1739243,1.0979366.3331265,2.1862787.6865496,3.2390314.2693001.8021638.6888626,1.5289429,1.3040883,2.1105365,1.2413534,1.1735098,2.7764096,1.6561094,4.4415614,1.8012755Zm-14.5383214,181.9134613c-3.0955805-.0383521-6.1686815.0831526-9.2333494-.1970909-.7743759-.0708279-1.5608492.0034062-2.3405267-.0242333-1.7248202-.0611294-3.4543962-.0863248-5.1702635-.2497698-.62106-.0591273-1.2515147-.108842-1.87186-.1953488-1.2707587-.1772518-2.5344358-.4067925-3.7990094-.6263746-.8546137-.1483642-1.7081879-.3046588-2.5579808-.4782184-1.5950494-.32572-3.186207-.670577-4.7813538-.995803-.1903812-.0388201-.3955041-.0052783-.6322738-.0052783,0,.2262645-.0201991.3677383.0031315.5015937.2345867,1.3460423.2039079,2.7153299.3738042,4.0710708.1831046,1.4612287.0458297,2.951865.236055,4.4289806.1521529,1.1814792.0157227,2.3817055.1943964,3.5811257.1748924,1.1739908.0459532,2.3823555.2241915,3.5772515.1493462,1.0011073.0598697,2.0262919.2020238,3.0469782.1639385,1.176981.0768139,2.3813415.2203323,3.5775375.167148,1.3931569.0473176,2.807401.2082609,4.2181089.1952345,1.7112585.0352137,3.4458663.208144,5.1762878.2136989,2.1383581.0243572,4.2986614.2143161,6.4547784.2354248,2.6720635-.0113048,5.3639922.2093199,8.0530087.2454497,2.9914392-.0119285,6.0036535.2111196,9.0114476.1982296,2.6731036-.0469537,5.3725207.3262137,8.077034.8240779,2.083157,2.2702553,3.7152931,4.1503015,4.9850473.8347459.2783974,1.673481.4298557,2.5541996.0807605.2420777-.0959453.5765427.0414983.8037553.0650816.2007959-.796606.4007602-1.5899098.6204103-2.4612959.004275.0085285-.0792892-.0833086-.084188-.1791759-.0627739-1.2288539-.2988744-2.444031-.226394-3.6852095.084097-1.4405055.0666461-2.8831692.1513278-4.327991.1902188-3.2453692-.0229344-6.5037391.2392581-9.7565187.189881-2.3557301-.0586548-4.725891.2003021-7.0955578.2254844-2.0634999.1266393-4.1605417.2819433-6.2344683.0813163-1.086028.1949486-2.1681557.1971706-3.2586299.000065-.035466-.0082252-.0757942.0053145-.1057218.2888301-.6383873.1472607-1.3175188.196209-1.9791253.0488963-.6609305.1561876-1.3177008.2018224-1.9787613.0919843-1.3327296.15954-2.6671233.2370361-4.0008409.0041191-.0708799-.0165413-.1548646.0142544-.2106896.3115046-.5646472.1237806-1.1784111.1842286-1.7669796.0641123-.6241905.1566294-1.2459888.202732-1.8713493.0903991-1.2260197.1571881-2.4537815.2336836-3.6808412.002209-.03544-.0047688-.0739741.0067958-.1059298.3759157-1.0389394.1477025-2.1451184.3726672-3.2131794.2076047-.9855584.1793818-2.0207016.2580863-3.0337695.0080303-.1031737.0404892-.2042153.0561859-.307077.1202592-.7880775.2823461-1.5727488.3479656-2.3654286.0895805-1.0819457.355905-2.1216392.6753878-3.1458097.1951175-.6255685.6369386-1.0644728,1.3791285-1.176981.2605552.2455576.5172122.4874489.7306382.688596.071259.7649362.1684019,1.4244627.181162,2.0855752.0079133.4108747-.1438693.8223994-.168116,1.2368883-.0553024.9455162-.0671788,1.8876002-.1774847,2.8363666-.1536667,1.321549-.0440756,2.6646791-.226342,4.001803-.1653743,1.213045-.0420225,2.4496473-.2010428,3.6848455-.1877759,1.4585505-.0220508,2.9482508-.2234444,4.4284865-.174574,1.2830148-.0379814,2.5922131-.2015365,3.8982133-.1783423,1.4239166-.032355,2.879347-.2300843,4.3216466-.1567723,1.1437252-.0157227,2.3080174-.1971966,3.4730378-.17677,1.1349887-.0488573,2.3094735-.2275375,3.4679155-.1379051.8941634-.0533013,1.811364-.2021603,2.7254965-.1563175.960155-.0566667,1.9530978-.2193123,2.9355101-.1416863.8559673-.0729222,1.73947-.2065262,2.6172525-.1518476.9975971-.0577322,2.0238998-.2186366,3.042272-.1520555.9623911-.0614485,1.9519798-.2055517,2.9375382-.1612552,1.1029549-.0448032,2.2387496-.2246138,3.3614136-.1431676.8938254-.0459857,1.810298-.1981321,2.7267186-.2003151,1.2064406-.1860087,2.4504533-.2361265,3.6794632-.0745984,1.828863.0463885,3.6680485-.3181835,5.5029179-.1110335.1436839-.2380366.308039-.3457047.4473547,0,.3004466-.0034824.5488643.0005457.797152.0349668,2.1562991,1.1313464,2.9859009,2.9528028,3.260476,1.4654085.2208822,2.9351699-.0395222,4.362675-.4395803.2267189-.0634955.437845-.2149799.6307275-.3597299.3290334-.2468836.6379262-.5206527.9231699-.7565638-.0461936-.1712195-.1188949-.3061409-.112203-.4369541.0611756-1.1931799.0167622-2.408981.2433901-3.5712972.1956503-1.0033694.1264833-2.0116791.3093995-3.0154125.2170903-1.1912558.3057742-2.4178735.4367275-3.6288644.142427-1.3169987.2646743-2.6349335.4494746-3.948578.1314211-.9341276.1601507-1.882738.2331379-2.82503.0109409-.1414738-.0287557-.3029427.0262218-.4223153.3783196-.8211773.1173356-1.720229.3554372-2.5791864.2388942-.8618436.1062127-1.8211666.2901944-2.7057094.138022-.6636346.0577582-1.3432342.2304481-1.9710388.1061738-.3859913.1118521-.7539376.1593191-1.1317385.051781-.4119927.1549921-.8176411.2034207-1.2298679.0897104-.7635062.0740916-1.5501016.2576705-2.2884384.1470658-.5913767.0523267-1.2042045.230799-1.7577751.2279273-.706953.1605535-1.4403495.3436127-2.1514108.1806422-.7017788.1028213-1.4697832.2798902-2.17307.1312391-.5212248.0751312-1.0535002.2076047-1.5484635.3154157-1.1783331.3351016-2.3969164.5732812-3.586638.2454432-1.2260977.3144672-2.4872453.4685367-3.7320901.0725973-.5866964.1594491-1.1717027.2471974-1.756371.1181542-.7872715.2629591-1.5710327.3612715-2.3606704.1720662-1.3820803.2914548-2.771077.4818296-4.1504532.1699222-1.231298.4185879-2.4515454.6089496-3.6802952.1642828-1.0604426.2623743-2.1318317.4493966-3.187828.2453522-1.3852785.5481638-2.7604164.8283919-4.1394546.1837868-.9044079.3713548-1.8080878.5783358-2.8147594ZM18.4970008,97.7452689c.3347053-.4110112.6715627-.8163346.999451-1.2287954,1.1134293-1.4006453,2.2139053-2.8117108,3.3376258-4.2040096,1.43376-1.7764311,2.088757-3.8738694,2.4783684-6.0659464.1928712-1.0851634.2463333-2.1951257.3694106-3.3555633-.4423523.0709384-.8736596.1490597-1.3076096.2075695-.6211396.0837441-1.277691.054473-1.8586549.2517264-.8837901.3000761-1.8236572.0253384-2.6834377.3741867-1.7577567-.0790314-3.512346.1149198-5.2806814-.1590183-1.2709106-.1968894-2.5417725-.3853543-3.7838722-.7013757-.9685969-.2464416-1.9876111-.471549-2.7219843-1.6026375.1822673,2.6864553-.1460669,5.1480113.2291585,7.6169321.3114656,2.0494007,1.163085,3.7669255,2.8221126,4.9499323,1.9481517,1.3891787,4.0137746,2.6123772,6.3270383,3.3441682.3539916.1119882.6675005.3520724,1.0730749.5728311Zm26.867599-2.7387702c.9610636-.8534711,1.9076064-1.6966912,2.8571996-2.5364531.7130509-.6305673,1.4169377-1.2724323,2.1481964-1.8812624,1.2060422-1.0041429,2.0818621-2.1880208,2.4652234-3.7564014.1617717-.661821.0901392-1.3246431.2490977-1.9683282.2481687-1.004923.114883-2.0115946.1010282-2.9755458-5.2627838,1.403265-10.5103907,2.1957042-15.9956314,1.2280998.1748567,1.0617361.3408644,2.0153323.4868907,2.9719771.1414784.9268537.4096448,1.802322.8120325,2.6572492.7046697,1.4971497,1.8130428,2.6542591,2.9644064,3.7928164,1.1290562,1.1164952,2.3876233,2.0130507,3.9115567,2.4678483Zm79.6036902-14.0159504c0,.4746562.0235971.9720182-.0057563,1.4662275-.0400994.6749388.0901652,1.3015864.3350756,1.9317182.2859844.7357951.532753,1.4926839.7233486,2.2586407.4936801,1.9840071.9471698,3.9780247,1.4431498,6.0800847.4474605-.8761639.8649179-1.6692337,1.2606104-2.4730161,1.091169-2.2164924,2.1667842-4.4406682,3.2619294-6.655178.4600517-.9302599,1.0618156-1.7335482,2.1908361-2.0791723-1.9708351-1.7533743-3.4832168-3.7627263-4.2109313-6.2780987-.6444362.1058648-.7593679.1627885-1.2148197.5499694-.8559001.7275722-1.7218316,1.4435087-2.57065,2.1792258-.7617718.6602675-1.5061966,1.340569-2.430406,2.1657116.8808096-.1400827,1.0042393.388715,1.2176134.8538871Zm11.8569628-1.3386124c.5782838-.4807925.9204802-1.1001662,1.1907159-1.8007619.8335245-2.1608623,1.4024527-4.3914215,1.8594897-6.655399.0663732-.3288337.1405818-.6561007.2354898-1.0970526-2.8363897.9911292-5.5632793,1.9439973-8.2836978,2.8946033,1.4521546,2.3651816,2.7123493,4.8840772,4.9980024,6.6586102Zm-16.0732477-9.4476672c-.2516413,2.978731-.4654572,6.0100564.0006107,9.1916635.7166957-.4990001,1.3268927-.895704,1.9067228-1.3327296,1.8831648-1.4193664,3.6260336-3.0244285,5.671623-4.2122131-2.4039113-1.5174373-4.7329253-3.0799416-7.5789566-3.6467209Zm27.8741025,75.8901955c-.4929654.3513834-.7806.8357251-1.1530333,1.2407755-.3905469.4247335-.843101.7923938-1.2931993,1.2077537.4826872.4760213.9223643.8863109,1.3355207,1.321796.9449088.995998,1.8601264,2.0207536,2.8224082,2.9993826.379476.3859133.8521968.6800416,1.2860007,1.0187233.3641821-.4657117.6655904-.851157.9667777-1.2363033-1.7688828-1.847844-3.0635634-3.9971097-3.9644746-6.5521278ZM19.9717292,81.1562099c.0012669-.0456715.0025354-.0913365.0038024-.1370081-.8569754-.0943852-1.7388797-.0925326-2.5648352-.3066869-1.1188332-.2900915-2.2129096-.099293-3.3208961-.0959908.9596456.1691133,1.9239691.263284,2.888952.3501223.5868241.0528154,1.1733916-.0435459,1.7653045.1655576.3663667.1294416.8156237.0240058,1.2276723.0240058Zm-6.0612376,26.0722766c-.0110514.0166409-.0351584.0409848-.0307372.0484992.0140432.0238173.0387367.0413488.0593045.0613179.0136031-.0351539.0272045-.0703144.0408092-.1054683-.0231244-.0014496-.0462488-.0028992-.0693765-.0043487Z" stroke-width="0"/>
      <path d="m140.9470845,230.0558173c-.3694187.6823037-.9048744.9121044-1.5264932,1.0412015-1.3468385-.6267386-1.807254-1.9605863-2.2892135-3.2023888-1.1389868-2.934678-1.8882194-5.9902628-2.5905307-9.0562221-.5394449-2.355028-1.1475629-4.6945852-1.6650219-7.0542285-.4149756-1.8923325-.7217243-3.8081573-1.1094255-5.7068211-.3936914-1.9279935-.8438027-3.8444683-1.2381698-5.7723317-.2499131-1.2216645-.4336739-2.4567457-.664278-3.6825703-.2620105-1.3928709-.5580392-2.7794625-.8110189-4.1739065-.1796677-.9904727-.3027076-1.9910859-.4687966-2.9841978-.1884906-1.1269802-.405451-2.2492022-.593097-3.3763254-.1028083-.6175601-.1470008-1.2452738-.2598535-1.8606627-.1629314-.8883911-.1082008-1.8081268-.3949389-2.6777709-.0214531-.0650426-.0089918-.1410058-.0141374-.2117557-.0761447-1.0493399-.0843959-2.1093145-.245885-3.1453677-.2132441-1.3682085-.0558091-2.7545791-.2398948-4.1053797-.2455341-1.8016655-.133812-3.5953225-.1335131-5.3907477.0001949-1.1195568.1688697-2.2390746.2766937-3.5362863.2965355-.7129984.6526614-1.612271,1.8528238-1.5448623.8989881.7798221.8894116,1.8782007,1.0036416,2.8876805.1578898,1.395263.1266783,2.8111322.2604512,4.2101395.1497815,1.5664175.3004337,3.132406.4447578,4.6989535.1214547,1.3182598.2661686,2.6378587.4073741,3.9561444.155356,1.4505161.4137541,2.8896696.5965534,4.3376635.1095262.8675249.0938165,1.7550839.2561112,2.6105441.1621648.8547452.1123069,1.7306296.3667419,2.5781724.1571621.5234999.1017168,1.0974166.2116459,1.6551734.2418698,1.2272938.2968214,2.4900795.4793867,3.730829.166128,1.1291123.4093232,2.2466671.6002047,3.3724252.0989101.5832772.1521724,1.1741468.2364514,1.7600892.172534,1.1997712.3610636,2.3947322.6070655,3.5845319.2948853,1.4262568.4296198,2.8848723.6851983,4.3202816.2360875,1.3259952.5552065,2.6369746.8092777,3.9600447.1766921.9200998.282489,1.8538504.4606494,2.7736122.2431173,1.2551283.5294525,2.5018061.7890461,3.7538143.3091396,1.4910003.575789,2.9917512.9236637,4.473521.3233291,1.37727.7171375,2.7385752,1.1045918,4.0998804.1604236.5636331.3780857,1.1115614.5825719,1.6618558.1544204.4155549.2603733.832722.7689184,1.0393034.3682752.1496123.4229799.6075235.5204477.9759639Z" stroke-width="0"/>
      <path d="m108.2513013,234.5815752c-.1290756.1389257-.3686001.3967299-.516491.5559107-.6451313.1202046-.8455634-.2297487-1.0638817-.5533886,0-1.3169207-.1535823-2.6540706.0473825-3.9356033.1683629-1.0736253-.042094-2.1806884.3493365-3.2199658.0238634-.0633395.0094661-.1408498.0144103-.2116777.0757939-1.0852219.1263794-2.173018.2354248-3.2549117.0975198-.9675654.2798837-1.9263424.3873699-2.8931798.104569-.9406019.1372748-1.8892643.2461319-2.8292422.1160362-1.0019003.1242744-2.0180884.376338-3.0033478.0258775-.1011326.0198808-.2105206.027976-.3161125.07773-1.014303.1452986-2.0295291.2375104-3.042506.0408855-.4491358.1480339-.8920053.1949161-1.340881.0470122-.4500979.0585379-.8923953.1648675-1.3474724.1653353-.7075511.0850326-1.4555994.2291877-2.190933.181045-.923597.1590722-1.8852471.2626992-2.8262911.1066415-.9683715.2750045-1.9298526.3866357-2.897782.1003914-.8705411.0894635-1.7597122.2576055-2.6150944.1824614-.9283033.0545357-1.8896153.3599071-2.7978065.0433479-.1289411.0169311-.2803085.0300031-.4206382.1492618-1.6029105.2475352-3.2128284.4645086-4.8065474.2302013-1.6909384.3944061-3.3910162.6481265-5.0754153.1800835-1.195585.2333848-2.4141683.5674209-3.5918903.159631-.5628011.1653093-1.1696356.237231-1.756969.2064872-1.6861801.4985918-3.3566033.7997012-5.0289637.2203908-1.2240436.4395732-2.4491662.6940212-3.6668655.2960677-1.4168702.5921484-2.8347155.9377881-4.2399371.2880374-1.1709617.6613673-2.3206151.9722352-3.4863115.424929-1.593368,1.0008479-2.9680899,1.7912324-4.1541714.3495639-.1704524.7509998-.3661912,1.1696006-.5703025.6652005.525606,1.0289539.9876775.7264281,1.8992619-.4867673,1.466754-.8073936,2.9905291-1.162311,4.4986774-.2921045,1.2412435-.5365992,2.4938237-.7938279,3.7431147-.2088392,1.014277-.4137411,2.0295161-.603765,3.0474333-.1017428.5450291-.1636461,1.0974036-.2519272,1.6451108-.198327,1.2304919-.3664171,2.4648061-.6093005,3.6895387-.2158689,1.0885761-.2961457,2.2033487-.4651843,3.3021173-.17894,1.1629662-.3953287,2.3201211-.58877,3.4809162-.0912827.5476942-.1749899,1.0969226-.2484318,1.647282-.1518216,1.1375758-.273965,2.2795069-.4456673,3.4139755-.2593987,1.7137676-.5677587,3.4201639-.8226875,5.1345425-.1795637,1.2073507-.2988874,2.4235418-.4560495,3.6343637-.2109832,1.6255968-.4321666,3.2498805-.6496597,4.8746322-.2124905,1.5874917-.424942,3.1749833-.6391736,4.762241-.1395033,1.0337001-.2711713,2.0686092-.4261634,3.1000082-.1958062,1.3029189-.4360518,2.5995325-.6122371,3.9049216-.1772768,1.3133585-.2245099,2.6481422-.4663667,3.947902-.2543441,1.3670255-.2857895,2.7592724-.5872757,4.1203955-.17256.779003-.1432196,1.6006484-.2503419,2.3969424-.0965712.7179516-.278292,1.4242286-.3798788,2.1417123-.0976627.6897401-.0651908,1.3844984-.2160378,2.083209-.1903942.8818907-.161788,1.8094659-.2543506,2.7146019-.0743905.7274422-.1885166,1.4508021-.306216,2.335397Z" stroke-width="0"/>
      <path d="m108.2500214,156.1398848c.2761285.6754523.0842269,1.2726533-.1344487,1.7880667-1.08475,2.5566692-1.9577762,5.1885475-2.8482208,7.8136785-1.6976498,5.0048084-3.3677523,10.0189772-5.0423638,15.031586-.9951046,2.9786595-1.9793786,5.9609722-2.9643284,8.9430118-1.7847939,5.4036704-3.5698801,10.8072237-5.3476572,16.2132083-.6543181,1.9896949-1.2913347,3.98511-1.9307357,5.9796802-.742976,2.317651-1.4931961,4.6331308-2.2154142,6.9572692-.6197541,1.9944401-1.2168662,3.9961347-1.7993211,6.0017814-.2765313.9522506-.6525574,1.8717394-.8461871,2.8542816-.0888138.4506309-.3117254.9459582-.884279,1.0575044-.5350659.0111546-.5461497-.4840687-.7576657-.761504-.155343-1.0796576.278279-2.0500312.5168743-3.0489544.3650202-1.5282344.7636754-3.0489284,1.1748372-4.5655141.3844787-1.4181963.8031706-2.8271101,1.2079589-4.2397811.8589472-2.9976665,1.7585006-5.9843994,2.5660241-8.9958597.7034483-2.6233369,1.5210942-5.2104797,2.2991863-7.8105453.5543489-1.8523813.9836439-3.7477299,1.63459-5.5643983.996417-2.7808276,1.7941041-5.6249556,2.7940424-8.402975,1.2628714-3.5084907,2.4687512-7.0381206,3.7775173-10.5292554,1.0887132-2.9041394,2.2849709-5.7680545,3.4441114-8.6455554.9121185-2.264257,1.8310394-4.5258879,2.7673722-6.7801864.2517258-.6060415.5776147-1.1812972.870213-1.7702948.3554892-.7156115.8862995-1.2361083,1.7178944-1.5252442Z" stroke-width="0"/>
      <path d="m87.0753523,324.7372894v-1.1213639c.7437751-1.9703108,2.1826759-3.3377003,3.7605992-4.5971318.604889-.4827947,1.169854-1.0152781,1.7638021-1.5122175,1.6110319-1.3479404,3.330817-2.5466846,5.1313206-3.622832,1.1905339-.7115553,2.4108371-1.377062,3.6447644-2.010665.7339971-.3768648,1.5358618-.6196922,2.2789157-.9810342.8675492-.4218993,1.6742087-.4068965,2.5482094.2621725.1215586.2557241.29981.6306908.4858707,1.0220904-.1680316.362928-.3281888.7088511-.5166339,1.1158776-5.8169476,2.0065048-10.7904499,5.3862234-15.0798258,10.0063925.2378222.1037717.4287817.2519799.6276415.2634985,1.5098219.0873388,3.0207612.1613649,4.5323178.2090515.4842919.0153148.9640749.0170049,1.4574367-.1395757.3751685-.1190086.8322836-.0010921,1.249767.0420703.3105235.0320598.6159794.1132363,1.0294346.1929567.0995598.089731.3042279.2366651.459246.4245774.152101.1843762.2537268.4104327.3753829.6146219-.0597918.2298527-.1182257.4545051-.1687852.6488658-.5947797.5824322-1.273416,1.0307489-2.0663083,1.1842094-1.0902334.2110537-2.2116654.2627445-3.2999433.4813646-1.0849709.217944-2.1691491.1888484-3.2575115.1838041-.8385597-.0039002-1.648747-.1967269-2.4586679-.4035683-1.1874609-.3033067-2.1097992-.8920573-2.4970326-2.263165Z" stroke-width="0"/>
      <path d="m15.6051836,112.8293063c-.355187-.2761222-.7149399-.5557937-1.1328115-.8806556.1985772-.1166554.3647149-.2993025.5239853-.2934912.8028132.0292906,1.61283-.1464791,2.4119919.1534345.313517.1176695.7028766.054954,1.0562461.0400032.8464908-.035804,1.6523349.1706994,2.4650561.3607569.5039664.1178515,1.0166145.2190491,1.5310248.2673468,1.0457746.0981424,2.0948626.2090385,3.1435186.2192961,3.0489484.0298106,6.0984166.0024181,9.1475534.0196051.9934933.0056033,1.9863207.0995595,2.9800056.1135093.5122322.0071764,1.0268846-.1184105,1.5383664-.1049678,2.0792341.054629,4.0602987-.4844848,6.051229-.9631452,1.0102945-.2429054,2.0149724-.4944563,3.0593696-.5571068.4484351-.0269115.8904901-.1470771,1.3384606-.198521.4482077-.0514698.9208245.0865328,1.3402245-.1904085.0509071-.0336069.1388991-.0116876.209752-.0142488,1.9363361-.0701649,3.8723409-.1752757,5.8091707-.1937757.8340897-.0079824,1.6698947.163536,2.7634546.2813615.3347053.1141333.8090633.4377472.9847873,1.1035269-.307197.7084871-1.0137119.7995051-1.6880732.9031859-.3813797.0586202-.7790862.0015341-1.1683532.0197481-1.5099323.0706589-3.0246205.0971414-4.5275165.2432304-1.3083795.127199-2.6001203.417115-3.9051929.5899596-.9005409.1192686-1.8189745.1111171-2.7159031.2483137-2.1426349.3277481-4.3083764.0283416-6.4428122.2461036-2.7891859.2845857-5.5751233.1104021-8.3613887.1602989-2.7640815.0495067-5.5307505.0413163-8.2943382-.0239603-.7804912-.018448-1.5757501-.2375101-2.3576235-.3285151-1.2784544-.1488322-2.4967078-.5502944-3.7648498-.7233859-.6419641-.0876248-1.2654686-.3106132-1.9953336-.4974985Z" stroke-width="0"/>
      <path d="m128.4840307,22.2378113c.4869752.2338228.5424205.7906679.7367324,1.3013816-.2159339,1.0498616-.7494275,2.0014378-1.3062583,2.910773-.5587799.9125594-1.2947846,1.7158022-2.7239009,1.4115399-.2409213-.2923731-.5704225-.6922525-.8159696-.9902419-.2238212-1.5124645.5851057-2.4570853,1.3457859-3.4206303.0874884-.1108214.2008868-.2008448.2924034-.3088727.6371465-.7521192,1.403817-1.1663805,2.4712071-.9039497Z" stroke-width="0"/>
      <path d="m115.1080203,27.0657189c.3359592-.9956177.6132246-1.9585419.9864506-2.8826768.3576851-.8856625.8333426-1.7127747,2.0187959-1.9196437.3417285.0961793.7969205.2242933,1.0991863.3093683,1.0233535,1.1777383.6433837,2.1808867-.0296782,3.1646429-.4720061.6899075-.9519386,1.3744001-1.4137444,2.0403002-.5208505.2596243-.9564995.6591331-1.720987.5274066-.2616857-.3450228-.5907581-.7788893-.9400231-1.2393974Z" stroke-width="0"/>
      <path d="m126.9192703,115.4658649c.5276463.2604954.6079231.7668083.789293,1.2825338-.3906249,1.1276823-1.1516949,1.9588442-2.36133,2.3609304-.9320578.3098201-1.7310703-.0426684-2.0838567-.9368057-.0631637-.1600648-.1085777-.3271241-.1741582-.5275431.0788734-.3232498.168168-.6892201.2990303-1.2254867.1083697-.0877938.3408579-.25289.545695-.4471857.3757728-.3564277.8102653-.5223038,1.3281401-.5095761.562912.0138328,1.1264217.0031332,1.6571865.0031332Z" stroke-width="0"/>
      <path d="m123.9095279,135.9389924c.1801485.4044393.3584908.8048484.5316875,1.1936609.3210811-.108985.6769471-.2298007,1.0848669-.3682713.1679731.1664222.3433138.3401638.4775156.4731351-.0281969,1.1455453-.536924,1.6934865-1.5968035,2.1147878-.8372408.3327924-1.4550653.1065669-1.9388699-.524462-.4285803-.5589919-.6699823-1.1923738-.3085289-1.9353909.3544107-.7286252.8946741-1.0112998,1.7501324-.9534596Z" stroke-width="0"/>
      <path d="m125.2115892,127.6761911c.2838144.39829.4900028.670525.6774019.9551367.2157909.3277611.187568.6466297-.0270924.9808262-.6097942.9493384-1.2805692,1.7836335-2.7306578,1.5870496-.2086183-.2618475-.4836877-.6071075-.7080417-.8887031v-1.0445947c.3350496-.4594194.7241022-.7832803,1.3086102-.8166791.1561096-.0089315.3141033-.1016656.4581935-.1799429.3008755-.163367.593084-.3427379,1.0215863-.5930927Z" stroke-width="0"/>
      <path d="m123.8545114,106.2375913c.1159582-.2421254.2040704-.4260985.3416116-.7132649.3640782-.1252424.8534442-.2028567,1.2342197-.4487848.4236555-.2736326.8028977-.5409599,1.3311547-.4310453q.5287898.6547617.5321942,1.4896483c-.5121965.8287373-1.2735394,1.2650414-2.2706451,1.4526352-.1642568-.0743316-.3812952-.1725455-.6227492-.2818101-.1630874-.3189401-.3356733-.6564712-.5457859-1.0673784Z" stroke-width="0"/>
    </g>
  </g>
</svg>