<?xml version="1.0" encoding="UTF-8"?>
<svg id="Layer_2" data-name="Layer 2" xmlns="http://www.w3.org/2000/svg" viewBox="0 0 261.0463202 278.9615056">
  <g id="Layer_1-2" data-name="Layer 1">
    <g>
      <path d="m85.5504284,213.1806387c.9227903-.8552093,2.1137707-.9099445,3.2375305-1.1355911.7286487-.1463133,1.4435125.1452544,2.1525665.2874816.9594888.1924554,1.8633834.5809771,2.7308375,1.0265145,1.688151.8671012,3.5058632,1.3368025,5.3378626,1.7356821.8498548.1850162,1.7492631.2656935,2.6173213.2210583,2.7799973-.143001,5.4577995-.6880445,7.8197381-2.2965814.3881475-.2643224.8522982-.4145589,1.2541491-.6617087,1.2114643-.7450874,2.4241027-.5984755,3.6168071-.0001086.8755784.4392657,1.7030218.9742229,2.5767812,1.4175341.7777338.3945898,1.6085437.6117656,2.4901356.7119776.6519259.0740933,1.2966574.2383259,1.9569452.1804142,1.516224-.1330232,3.0260408-.2957082,4.5015279-.7131179,1.684004-.4763939,3.2113047-1.2892758,4.7710483-2.0511286.9005825-.4398902,1.8362413-.866436,2.9144318-.792492.782865.0536627,1.4754464.3411851,2.1849551.6078831.6413107.2410817,1.2719655.5123817,1.9199142.7334807,1.4695958.5014808,2.8648308.159617,4.2208221-.440026,1.0636115-.4703393,2.1062912-.9882054,3.1720067-1.4534812,1.3620998-.5947016,2.7264937-1.1416728,4.2509438-1.2581207,1.0738466-.0820213,2.0675769-.595231,3.0836236-.9621953,2.8477541-1.0284965,5.7800499-1.7729731,8.6995042-2.5604558,1.3557741-.3656747,2.7116975-.7334264,4.0551461-1.1411027.8427961-.2557564,1.6814385-.4684117,2.576279-.3976171.6326231.2716394,1.3096482.4991323,1.5307758,1.310616.309918,1.5704449-.6446636,2.4735475-1.8963625,3.0852859-2.5645642,1.2534101-5.2222762,2.2912192-7.9460007,3.1529175-.639356.2022702-1.2813047.396341-2.0000305.6182274.4308391.4974218.8342035.913827,1.178492,1.3744057.3475192.4649364.647202.9671503.9488668,1.4645585.6981876,1.1512297,1.3941491,2.3039935,2.0743913,3.4658798,1.5621599,2.6682021,3.1244012,5.336472,4.6671903,8.0158871,1.0522497,1.8275046,2.1116667,3.6527693,3.0963292,5.5168047,1.4425691,2.7308922,2.8555866,5.478672,4.217157,8.2506971,1.3589641,2.7667307,2.6412326,5.5712005,3.9529441,8.3610904.8792978,1.8701985,1.7395642,3.7494653,2.6337396,5.6124962.2652852.5527271.6167003,1.0641042.9664185,1.6586429.354605-.1344758.6911018-.1898625.9377357-.3690278.7695213-.5589174,1.5505809-1.1159071,2.2435695-1.7631718,1.1641438-1.0873178,2.2403252-2.2684401,3.3964193-3.3648533,1.6260819-1.5421135,3.4455724-2.8301811,5.4394537-3.8540485.6081755-.3123106,1.256002-.5255496,1.9792616-.5422742,1.1294611-.0261187,1.8818786.4688053,2.3891418,1.4293309.0515014.0975513.1142696.1891294.118722.1964329.1089213.5545733.2788325,1.01784.2713802,1.4782559-.0105066.6492738-.0644243,1.3235803-.2542899,1.9395406-.5912618,1.9180918-1.4438722,3.7033911-2.7341497,5.2789539-2.2773698,2.7809032-4.8553049,5.2703473-7.4092539,7.7838194-1.1843425,1.1656194-2.4065985,2.2931741-3.6280128,3.4202943-.3758626.3468731-.8057922.6351285-1.2320838.9666887h-1.3058202c-.2441498-.3367188-.5160187-.7116382-.7729828-1.0660048.2218878-.77498.4563726-1.4293581.9563463-2.0117605,1.3850813-1.6134375,2.7176296-3.2722705,4.0584582-4.9233113,1.1314158-1.3931666,2.251239-2.7958631,3.3653067-4.2030121,1.1135926-1.4065246,2.2232893-2.816443,3.3146198-4.2402624.3942831-.514418.7303455-1.0734983.9593327-1.7535063-.7592862.5090965-1.5661915.9603898-2.26837,1.5388555-1.6736739,1.3787227-3.2871994,2.8301811-4.9460364,4.2273117-1.0074133.848476-2.070509,1.6308952-3.0765106,2.4809731-.5572714.4708688-1.2421968.633065-1.8912721.7808173-.8901845.202596-1.721293-.1447114-2.4346297-.7221182-.9306227-.7532869-1.5957295-1.7308086-2.2026154-2.7351277-1.7300621-2.8630874-3.3500898-5.7878875-4.7259269-8.8414347-1.2046363-2.6736321-2.3717258-5.3647491-3.6151985-8.0201362-1.0475258-2.2369728-2.2067963-4.4214368-3.2698241-6.651432-1.3100147-2.7481056-2.5426687-5.5332578-3.8654433-8.2750509-.7263003-1.5053791-1.5823858-2.94762-2.3562237-4.4306951-1.0236619-1.9617903-2.1450462-3.8771399-2.9028256-5.9681524-.1085005-.2993735-.187558-.6094171-.3076782-1.0048078-.5887369,0-1.2453732-.0104665-1.9015751.0023621-1.1018914.0215302-2.1647563-.2123837-3.2444807-.3889425-.8902523-.1456074-1.8390377-.0712833-2.7444391.043332-1.7016236.2154246-3.1871965,1.1198304-4.7974506,1.6321306-.9214328.2931561-1.8646934.527423-2.8098136.7520379-1.4852335.353009-2.780072-.1087644-4.135819-.4681402-.7317301-.1939758-1.4767767-.3554933-2.2256648-.4631173-1.3908505-.199881-2.6489972.3192068-3.8943161.829688-1.6409866.672691-3.265426,1.3857274-4.9059104,2.0596945-1.1771209.4835887-2.3909472.8325388-3.6741931.9088992-.3940524.0234579-.7809917.1628207-1.1751662.1888579-1.3686563.0904107-2.6372961-.3307729-3.8938003-.7952885-.3153613,1.6149172-.6577494,3.2404367-.9455818,4.875581-.3328724,1.8911586-.5851261,3.7967884-.9330254,5.6849469-.3148727,1.7088982-.6151664,3.4187467-.8972771,5.1335366-.2880156,1.7507098-.5991417,3.4978629-.8835194,5.2501202-.2831356,1.744601-.8060433,3.4533634-1.0372364,5.2024985-.2762194,2.0897092-.8416219,4.1142848-1.1981749,6.184853-.3850321,2.2359411-1.0016442,4.4311567-1.4815481,6.6518393-.4124661,1.9086435-.730074,3.8384642-1.1714061,5.7399671-.4565559,1.9670167-1.0411594,3.9041952-1.5078418,5.8691214-.1666669.7017826-.5510882,1.1726785-1.0903871,1.5872917-.7127734-.0436035-1.1496395-.4179527-1.4011399-1.1762081.0789761-.6639079.1421244-1.4290594.2662354-2.1841654.1936937-1.1783801.4335811-2.3490767.6450505-3.5246331.2948096-1.638796.596644-3.2765874.8663342-4.9195917.1824812-1.1116988.2911106-2.2356153.4752818-3.3470155.2661065-1.6058354.5825945-3.2032814.8532959-4.8084381.1150026-.6818542.1657032-1.37446.2507402-2.0615272.0759761-.6138969.1422669-1.2296943.2431385-1.8396272.1237989-.7485898.2744616-1.4928899.4217171-2.2374072.3715052-1.8784251.6286865-3.7758555,1.0725842-5.6442349.4675104-1.9678041.7556211-3.9775284,1.1665465-5.9597222.3073592-1.4826271.7021989-2.9469005,1.027008-4.4261474.3406302-1.5513311.5897075-3.1244911.9767419-4.6634688.5791737-2.3030161,1.1124998-4.6225803,2.0037635-6.8901516-.3450147-.2594625-.6891403-.5182597-1.0336934-.776704-1.0203837-.1692146-1.9174436.1634045-2.8468311.5576956-2.2611145.9592359-4.5005777,1.9888049-6.8724799,2.659256-.901363.254779-1.8305672.4110294-2.7466178.6120778.1558888,1.2309296.2601745,2.4422567-.0493227,3.6737701-.1849246.735802-.1545382,1.5230268-.2676675,2.280169-.1818296,1.2170151-.4058689,2.4276498-.6050263,3.6421535-.0999011.6092813-.1941009,1.2198387-.2735589,1.8320523-.159201,1.2266263-.2925631,2.4567822-.4623318,3.6818881-.199137,1.4370688-.4475356,2.8674586-.6325416,4.3061835-.1212062.9425792-.082709,1.9122545-.272758,2.8375389-.1760401.8570284-.1164347,1.7339037-.3712269,2.5859907-.1953701.6533464-.2002162,1.3674824-.2581858,2.0572646-.130939,1.5579965-.3623085,3.0996756-.6478468,4.6366849-.1395859.7514406-.1528142,1.5254432-.2589663,2.2842145-.1051951.7519836-.2618305,1.4966638-.3836679,2.2465026-.0990662.6096886-.1940127,1.2206532-.2663848,1.8339257-.2254578,1.9103539-.5896329,3.8004265-.8527869,5.7026354-.2150666,1.554657-.6734754,3.035465-1.0116553,4.5519215-.2709186,1.2148159-.4968787,2.4557776-.336456,3.6962506.1125864.8704678.5234507,1.6130031,1.3246751,2.1561462,1.2348055.8371,2.6176063,1.2055576,4.0307596,1.5184656,1.2341607.2732413,2.474844.5181647,3.7158734.7589613,1.0645617.20656,2.1336641.3896892,3.2007913.5829998.7822677.1416978,1.5603137.3173878,2.3479976.4158893.9434166.1179955,1.8938037.2102524,2.8435053.240688,1.2960127.0414858,2.5944619-.0009774,3.8914384.0194397,2.4735748.0389065,4.7839984-.6027381,7.0991866-1.6619281-.2450322-.2074016-.4283414-.4290844-.6633828-.5511524-2.3489479-1.2199473-4.6970269-2.442311-7.0657935-3.6229989-1.0337613-.5152596-2.1190104-.9263433-3.172828-1.4025064-.690647-.3120934-1.2040594-.8171717-1.5121516-1.5613089.3665641-.6151458.9713257-.6333908,1.6172314-.5961134,1.3234534.0764283,2.5573766.5415412,3.7584564,1.0063011,2.2575376.8735087,4.459515,1.8923532,6.672637,2.8776671.5621582.2503264,1.0897694.5849817,1.61453.9110033.7567613.4700814,1.4155016,1.0464836,1.8220561,1.9370156.2503805,1.310358-.4012875,2.1085244-1.6097926,2.7036333-1.5667073.7715048-3.2219335,1.2561659-4.8865397,1.7072964-1.3817963.374485-2.8018182.6092542-4.2077499.8917537-.214096.0430062-.4435855.0105343-.6659483.011023-1.6677826.0038011-3.3355923.013901-5.0033477.0083895-1.5380788-.0050771-3.0648501-.1469378-4.5780809-.4267494-.0361419-.006679-.0738925-.0062174-.1109099-.006326-1.3927305-.0034209-2.7566154-.2590959-4.1315634-.4377453-1.4759418-.191763-2.9213004-.4780093-4.3493041-.894876-1.3427834-.3919427-2.5897652-.9883547-3.6633742-1.8566777-1.1432391-.92466-1.7947986-2.1696671-1.9234978-3.6748561-.2235371-2.6143357.6879118-4.9330583,1.8150449-7.2002766.0968333-.1947496.2581451-.3574617.336775-.4637825.3076375-1.4725815.266025-2.9037858.4959624-4.3139485.1880942-1.1535375.1014621-2.3519818.2912056-3.505112.1778591-1.080856.0458748-2.1938037.3887447-3.2500887.0220585-.0679574.0075949-.1474265.0122713-.2214112.0809376-1.2819045.0271828-2.5914208.2822126-3.8377583.2447675-1.1962179-.0474291-2.4270254.3775798-3.5874048.0242236-.0661383.0060067-.1472636.0107374-.2212212.0795937-1.2448442.1489116-2.4904758.245229-3.7340168.0363184-.4689411.1456334-.9317734.2029107-1.3996556.0572773-.4679365-.0930256-.9617474.1999175-1.4023163.0527435-.0793605.0203006-.2176373.0214137-.3287366.012122-1.2076482.2205032-2.389042.4286672-3.5749699.1448189-.8250453.1382285-1.6756933.2596586-2.5060872.1727415-1.1812852.4060997-2.3536379.6032005-3.5315293.1019169-.6091184.1695176-1.2239927.2737693-1.832636.2014243-1.1760316.4296581-2.3475834.6234943-3.5248096.1122742-.6818678.1711194-1.372383.2687399-2.056898.1021476-.7163488.2219624-1.4301862.3435894-2.2058449-.9667782-.1925504-1.9991482-.3257093-2.9869804-.6123629-1.3827533-.4012281-2.7270027-.9333345-4.0986929-1.3753967-.5461607-.1760294-1.1216015-.2611865-1.511215-.3488822-1.0862469.320673-1.6711151,1.0349719-1.9180138,1.7952228-.4253346,1.309625-1.2153601,1.7419131-2.5199586,1.5760243-.1941145-.0938995-.4228166-.2057455-.6525368-.3154465-.8668772-.4139888-1.2523844-1.0683397-1.3960834-2.055269-.2363106-1.6228044-.1315838-3.2368529-.1445813-4.853915-.0055452-.6889948.1296902-1.3786819.1929131-2.0687899.0631754-.6894564-.0343501-1.3766864.1840015-2.0745322.1801735-.5758049.1480428-1.2239113.2231162-1.8367086.1509749-1.2324636.5090482-2.4073278.7986656-3.5964187.597825-2.4545287,1.3425458-4.8697708,1.7238246-7.3796048.2928617-1.9277845.6552653-3.8512113,1.1119161-5.7464153.6327045-2.6258746,1.1817905-5.2759674,2.0471406-7.8426814.7611934-2.2577428,1.609684-4.4769186,2.5596299-6.6659303,1.2721827-2.9316013,2.7552443-5.75828,4.1005661-8.652088.884266-1.9020595,1.5643861-3.8709903,1.9611872-5.9447216.3012236-1.5742324.5040257-3.1519808.6943868-4.741526.1634091-1.364333.0348999-2.7267247.2007727-4.0718352.3362185-2.7265346.0263751-5.4665222.2431861-8.1853326.1113986-1.3970763.0238096-2.8062617.2229805-4.17969.1870829-1.2900631.0344383-2.5810222.2114015-3.8491343.1330091-.9531407.1620516-1.8982177.1794133-2.850924.0026063-.1428381-.0130722-.2859884-.0283774-.58881-.5313171.7201363-.9668054,1.3255758-1.4180401,1.9190421-1.1735373,1.5434846-2.3378643,3.0944085-3.5377292,4.6172453-.726979.9226644-1.4608538,1.8504874-2.2854398,2.6830805-1.185666,1.1971817-2.4926808,2.2575256-3.9315305,3.157886-1.5151787.9481179-3.0758794,1.7860324-4.8006881,2.2721868-.8313121.2343212-1.677115.455108-2.5313747.5619311-1.5933879.1992837-3.1958367.4008208-4.7980615.4350574-1.8194022.0388929-3.6309517-.2455886-5.3998774-.66889-1.5328798-.3668421-3.061857-.7906322-4.5420476-1.3283044-2.7800109-1.0098171-5.3793257-2.3798516-7.7510718-4.1712055-2.0558147-1.5527293-4.0195301-3.2071775-5.8858592-4.9841281-1.7630208-1.6785984-3.6275241-3.2541341-5.3374214-4.9837073-1.1033608-1.1160836-2.2574494-2.2384661-3.0268145-3.6284833-1.3887702-2.5090873-3.2897921-4.7070315-4.4376534-7.3574229-.2723915-.6289518-.5255615-1.2685736-.7389652-1.9192321-.0594017-.1811337.055343-.4193781.1073738-.7359378-1.6383668.0138874-3.3035804-.0188559-4.9688517.0830665-.3610665.0221004-.7194045.124946-1.0791949.1260184-4.2623802.0127607-8.5247978.0150685-12.7872052.0152857-.7312685.0000407-1.4534676-.0065704-2.1820366-.1885186-.6624275-.1654543-1.3653288-.0858359-2.0600329-.2002611-1.0283502-.169364-2.0697268-.2893279-3.0950694-.499621-1.8315862-.3756389-3.6508221-.790863-5.3709032-1.5573313-.3915042-.1744682-.815036-.3817341-1.2259804-.3864719-.9102199-.01048-1.6138598-.4526373-2.2832671-.9519053-1.3751202-1.0256186-2.4729406-2.2964321-2.9712415-3.9693493-.5298251-1.7787493.3765556-3.4665992,2.1809186-4.0188377.4454231-.1363288.9113466-.2056708,1.3988916-.3126025v-1.1913987c.4542779-1.0445831,1.2335927-1.7628596,2.1891538-2.2682908,2.0196481-1.0682786,4.1560152-1.856603,6.3580656-2.4557233,1.4589874-.3969655,2.9276507-.7628574,4.4032549-1.092137.6368702-.1421254,1.309526-.2542971,1.9529272-.2061934.9680984.0723761,1.874786.374485,2.2434948,1.4791247-.2007507.9043447-1.0230341,1.2010439-1.7628511,1.3236889-2.0126785.333644-3.9030581,1.0422142-5.7811469,1.7614138-2.0242244.7751701-3.9797884,1.7294714-5.9665151,2.6028715-.4955467.2178409-.9957325.425134-1.5701446.6697927-.0081205.1716446-.018225.3852297-.0286726.6060776-.5718516.8968308-1.4333894,1.4278173-2.3888728,1.814038.079245,1.0011425.5071202,1.6073084,2.2770025,3.2126822.3381452.0834263.7725501.1501347,1.175842.3003713.5029007.1873375,1.0766837.30629,1.3729551.8207352.1873934.32537.474525.4198125.7929143.4910686,1.0148334.2271264,2.0253053.4791768,3.0475919.6662292,1.3515813.2473127,2.7127241.4424016,4.0698811.6591565.0362828.005783.0739977.002172.1109914.0040454,1.5050624.0760482,3.0098855.2118679,4.5152211.2178274,5.671042.0224805,11.342325.0171455,17.0133484-.0115661,1.3937758-.0070455,2.7979326-.0619979,4.1756905-.2518875.693121-.095515,1.3797737-.1291543,2.0708144-.1839709.5427332-.0430469,1.0803013-.1476844,1.6222912-.2047137.5060075-.053269,1.0059066-.0729395,1.516828-.1748891.9994451-.199433,2.0365966-.2098723,3.1338252-.3051294.2277417-.1132849.5199824-.2586615.8478119-.4217402,1.5965236.1767353,3.1535489-.3212295,4.6874909-.7138374,3.2067098-.8207419,6.4279374-1.6197025,9.5222373-2.8316676,1.7450211-.6834833,3.5212702-1.2935452,5.2381787-2.0407368,1.6916396-.7362025,3.3414089-1.5741849,4.9811942-2.4223419,1.5137534-.7829622,2.9898921-1.6386399,4.4057263-2.4198712-.0435807-.4413563-.1707189-.8133231-.0949803-1.1379464.2060464-.8830588-.1295476-1.6235307-.5311677-2.3367708-.3202549-.5687323-.7395897-1.0816773-1.1504811-1.6702836-.2805225.064007-.551957.125937-.8428708.1923196-.4516487-.2441904-.7741095-.6250082-.9795179-1.1165995-.2025442-.4847765-.0022669-.8536889.3877335-1.2529214-1.4083954-.2423577-2.762242-.4560582-4.1071701-.7159008-.5670993-.1095585-1.133771-.2664333-1.467485-.8366453-.4497279-.7684435-.2614572-1.5724541.5138603-2.0616222.1225364-.0773174.2495321-.1475622.2695544-.1593455,1.1393433-.2309274,2.0443239.3068602,3.0168373.4268377.569373.0702584,1.1300448.2546297,1.6793344.4343923.9321159.3050411,1.7754007.7254102,1.8884351,1.9389229.3740979.0163717.7349879.0321596,1.0691634.0467869,1.9348732.7651584,2.8058431,2.3615523,3.4411675,4.1755496.4595422,1.3120821.3428088,2.546582-.324273,3.8427472v.8725448c-.5414843,1.158506-1.592587,1.7478658-2.5478609,2.3971125-2.3151271,1.5734858-4.7537002,2.9509867-7.2759122,4.1613567-2.2432437,1.0765052-4.5684974,1.95822-6.988521,2.5748048-2.1282954.5422471-4.2440344,1.13403-6.3739315,1.6696931-1.1550421.2904953-2.3268419.5153546-3.4933782.7588391-.8818871.1840659-1.767402.350742-2.6871312.5322286.1185354.6383186.6570774.7685182,1.0392454,1.0075907,1.4242096-.0660161,2.816689-.170898,4.2098947-.1816902,1.019033-.0079008,1.9600198.3725301,2.6560831,1.1135993.9621969,1.0243968,1.4836317,2.221565,1.0359468,3.6787115-.1789315.5824296-.2912463,1.185317-.4643815,1.9058062.6524418.8297287,1.5060703,1.5844817,2.6610649,1.9495591.3438269.1086829.7079137.1713595,1.0315283.3220712.6136596.2857983,1.2482374.4055857,1.916412.3655254.6774187-.0406169,1.3450367.078003,2.0323784.0455176,1.191856-.0563099,2.2963062-.3907888,3.3656597-.8084564,2.2974939-.8973467,4.5031093-2.0127787,6.6072354-3.2955112.929116-.5664245,1.7614598-1.3077244,2.425019-2.2241307.5589818-.7719663,1.2450271-1.4512956,1.8665734-2.1786946,2.1231439-2.4847606,3.813908-5.2232482,5.0235397-8.2730079,1.0132096-2.5545506,1.6990649-5.1990233,2.4331569-7.8368644.7043436-2.5309366,1.4183794-5.0668892,2.6444634-7.4188031.5852347-1.1226201,2.0083109-3.2990883,2.8887897-4.1827716v-1.4354126c1.2773885-1.7406574,3.0535562-2.5489916,4.9783096-3.1003612,1.1838946-.3391352,2.3705176-.6722837,3.6217075-.6890559.355053-.0047581.7083277-.1418674.8989264-.1829935.5359935-.5161216.9734433-.9373528,1.4108931-1.3585771.9903503-1.7190457,1.098586-3.6836936,1.2532464-5.7695678-.8223802-1.0171341-1.7586023-2.1436774-2.6594292-3.2978462-.9450659-1.2108655-1.8862496-2.426876-2.7751037-3.6790033-1.3304782-1.8742168-2.6499271-3.7583231-3.9062684-5.6824966-1.1153912-1.7082941-2.1515416-3.4690496-3.1983819-5.2211712-.9323127-1.5604265-1.8343206-3.1390233-2.7443916-4.7126686-1.5279659-2.6420766-2.8774007-5.3714586-3.9944683-8.2134502-.0385175-.0980094-.0457934-.2083044-.0345198-.1543057-.6941628-.8138559-1.2934539-1.5084098-1.8835686-2.2106709-.5562194-.6619157-.710296-1.5039469-.9364733-2.2949592-.177988-.6224866-.1688932-1.29737-.2552605-1.9473395-.4501216-3.3873643-.1942502-6.79127-.1773704-10.1849331.0098415-1.9775036.3995636-3.9521581,1.0942694-5.8236615.6859638-1.8479607,1.5963064-3.5819628,2.8044177-5.1621734.9279011-1.2136993,1.9855059-2.2591903,3.2983644-3.0370856.8511376-.5043197,1.7606928-.83055,2.7628664-.9017705.6157704-.0437596,1.2256903-.1697899,2.0329078-.2871864.2691336-.355422.6987781-.8136642,1.0020175-1.344167.8385948-1.4670911,1.7792016-2.8469711,2.950533-4.0756871,1.6747734-1.7568195,3.698851-2.9298162,6.0057249-3.5880806,1.3880066-.396061,2.9389947-.1913558,4.5828523.3641241.1009463.0341127.2137159.0332282.3396053.0513023.6975971-.5903104,1.4092913-1.1679875,2.0934566-1.776624,1.3971897-1.2429713,2.8975045-2.3167321,4.589721-3.1401763,1.8240651-.8876072,3.7254501-1.270001,5.7294444-1.0727832,1.0060423.0990071,1.8357119.6669816,2.5835277,1.3098806.5825877.5008525,1.1051357,1.0715417,1.6819679,1.6383141.5414979-.534296,1.0118793-1.0516885,1.5367349-1.5061531,1.4997582-1.298612,3.1812781-2.1113052,5.232077-2.1734422,1.7259219-.0522936,3.2121192.4543845,4.6255847,1.3767827,2.0368715,1.3292175,3.6710438,3.0214432,4.7780256,5.1908643.2420322.4743402.3482251,1.0222676.4849875,1.5446797.1017947.3888764-.1144189.7209923-.310556,1.0247752-.1788975.2771195-.424812.5109724-.5861171.6995223h-.8853927c-.465739-.2628266-.6946718-.6713097-.8678545-1.1262234-.2789411-.7326984-.7597477-1.3151891-1.3010963-1.8786372-1.4108863-1.4684771-3.0037923-2.6496719-4.8448797-3.5453272-2.4620908-1.1977568-5.348057-.2499378-6.5556525,1.7131647-.3215377.5227014-.5687418.6674959-1.3811855,1.048878-.591764-.0462706-.9713189-.4574934-1.3450639-.8610153-.7826749-.8450407-1.6636831-1.5504631-2.8365552-2.0213582-1.1737816-.0030782-2.4317112-.0790899-3.6885005.4024524-2.2034299.8442512-4.109566,2.0383382-5.4914981,3.9877242-.2326387.3281843-.4822862.644615-.7306984.9612705-.4717117.6012567-1.0318473,1.0263966-1.9776598,1.5169918-.8287126.079481-1.6071659.0050186-2.3751329-.3337196-1.2204777-.5383281-2.4259013-.2558022-3.5499055.302506-.8087786.4017338-1.6318442.84959-2.3001817,1.4437546-1.4306846,1.2718894-2.811904,2.6091466-3.8330343,4.2610342-.2677422.4331332-.5493982.8617271-.8654451,1.2600382-.5537488.6978865-1.3239964,1.0088872-2.1890478,1.0802248-.4417394.036429-.8891732.012216-1.3338107.0038503-1.5088598-.0283891-2.7520408.5449519-3.8186997,1.598308-2.183204,2.1559799-3.580543,4.7356819-4.306599,7.7069228-.2511882,1.0279518-.306599,2.0759525-.468067,3.1084775-.3282503,2.0991372-.1997003,4.1971918-.1512464,6.2872676.0469743,2.0261061.3348271,4.0507156,1.1928334,6.084417.1403122-.296448.2601541-.4933289.3303475-.7065543.8544362-2.5956122,2.5048435-4.5223921,4.9354959-5.7429774.700346-.3516956,1.4939755-.6517343,2.2610466-.6962745.6802762-.039497,1.4293408.1036431,2.0863368.4424457.8729721.4501836,1.7493853.8938341,2.628941,1.3309821.1876395.0932615.3951179.1465848.6737944.2473568.0383139-.2766894.090589-.4804427.0910981-.6843317.0061221-2.4463055-.106091-4.8990423.0352053-7.3371993.1503505-2.5941206.9563327-4.9908988,3.0077425-6.7813686.7634603-.6663514,1.6521041-1.0434292,2.6831505-1.0695445,1.3903075-.0352174,2.7550679.0849654,4.1132515.4206338.7336848.1813271,1.5374272.088388,2.2642162.2860274.8470992.2303573,1.747831.0263545,2.5596367.4031914,2.2238458-.0059748,4.4487233.0254806,6.6709945-.0367684.8615017-.0241299,1.7163926-.2645328,2.5754781-.398922,2.3736262-.3713135,4.5301157-1.1920944,6.3842074-2.7950197,1.5340336-1.3262308,3.0693568-2.6453805,4.5133105-4.0711072,1.0240013-1.0110711,2.0912914-1.9781738,3.1327902-2.9716685.4414-.4210402.9077362-.7410107,1.5421919-.5678957.7187529.9484903.7433362,1.2352983.1100344,2.040433-1.5084865,1.9177456-3.1548486,3.7139543-4.945412,5.368467-.9686312.8950219-1.976696,1.7646515-3.0556059,2.5189701-1.6426699,1.1484706-3.4722461,1.9466692-5.4108116,2.4739123-1.0823035.2943592-2.1752358.5237288-3.2874437.7021271-1.4480803.2322697-2.8879073.4359025-4.3572316.4366322-.4670421.0002308-.936324.1814086-1.4006241.1653474-1.2718298-.0439921-2.533153-.2117135-3.7972046-.3712371-.9722148-.1226959-1.9275973-.2953637-2.8829119-.4919629-.8799765-.1810997-1.7581408-.3710148-2.6384431-.5504736-.8866755-.1807569-1.7629054-.4560362-2.4181368-.3508794-1.8903626.4437133-2.4112477,1.8484766-2.9054387,3.1582169-.4677751,1.2397552-.8063284,2.5436718-.7278003,3.9218515.0694943,1.2193941-.1344752,2.4710599.0634333,3.6617391.1966732,1.1831654.1078421,2.3463005.1831599,3.4743575-.2792737.7756723-.7846975,1.2755954-1.5544903,1.5829681h-1.2122041c-.666471-.3803528-1.4384153-.8602016-2.2464201-1.2687467-.575943-.2912114-1.1818856-.5858743-1.807321-.7022645-1.0351798-.1926352-1.9118034.2671087-2.7018018.9222843-1.3126549,1.0886278-2.1045197,2.5194791-2.6596667,4.087002-.1897096.5357004-.2151277,1.1349565-.2765045,1.7093496-.0714083.6682316.0972405,1.2690793.4206447,1.8826572,1.5716212,2.9817786,3.0608864,6.0070792,4.6402247,8.9846563,1.4656863,2.7633166,2.9389065,5.5270336,4.5352264,8.2154966,1.8441009,3.1057777,3.7820555,6.1578859,5.9845352,9.0322746.8432644,1.1005197,1.6145572,2.2559849,2.4280393,3.3796095.3432025.4740589.6812875.9571318,1.0727675,1.3899018,1.0640662,1.176276,2.0858481,2.4041308,3.253752,3.4697351,1.4223024,1.2977263,2.9362459,2.5178773,4.8852637,2.9860785.2790226.0670275.5598098.1742646.8407735.1775498,1.2599657.014763,2.5290128.0910623,3.7785669-.0267703,2.1723987-.2048495,4.2864409-.6836801,6.1753375-1.8703682.5844881-.3672087,1.171121-.7362432,1.7836132-1.0524499.9234554-.4767468,1.6580361-1.1951319,2.4603261-1.8279186.1433189-.1130405.2827827-.2353597.4398389-.3259469,2.0333015-1.1726514,3.8800087-2.6169014,5.6748073-4.1063093.9463419-.7853243,1.7263427-1.8136783,2.4326886-2.8351768.9282201-1.3423751,1.7680026-2.7550832,2.5366416-4.1958037.6438356-1.2067862,1.019929-2.5357762,1.3609188-3.8638091.4111969-1.6014439.8349637-3.1998537,1.2242514-4.806619.1528346-.6308319.2318378-1.2799428.3355872-1.9221643.0809851-.5013111.1582508-1.0036404.2186435-1.5077446.0561303-.4685067-.094736-.9643606.1991913-1.4024826.0354429-.0528041.0119591-.1451662.0157192-.2191985.0761119-1.5047241.1834042-3.0087016.2196208-4.5143861.036556-1.5187507.0583565-3.041937-.01595-4.5581491-.0768177-1.5677503-.2362495-3.1347064-.4372055-4.6919902-.1383642-1.0720355-.4315042-2.1231958-.6118814-3.1910502-.1027313-.6082292-.0838357-1.2253468-.203793-1.8460144-.2003723-1.0367977-.1879109-2.1140869-.2762398-3.1733957-.0605284-.7260245-.1451107-1.4500127-.2097251-2.1757318-.0646143-.7255799.1165637-1.4720554-.2049604-2.1782245-.0564425-.1239957-.0155156-.2930203-.0169409-.4412732-.0115926-1.2058529-.1834178-2.392093-.4273912-3.5703815-.029633-.1431113-.0179183-.2956098-.0184884-.4437812-.0046968-1.2070288-.1847617-2.3927616-.4277848-3.5712249-.0147826-.0716939-.0064207-.1479322-.0116604-.2218575-.0801028-1.1327794-.0223978-2.2978999-.277923-3.3896823-.2881853-1.2313131.003828-2.4838324-.3603063-3.7045136-.1847074-.6191938.0384835-1.2797138.6551567-1.8485673.2320822.347377.513521.6124681.5983476.9300731.1489523.5577194.1101023,1.1673596.2719231,1.719492.2590274.883853.1000979,1.8106748.3849439,2.6947483.1748659.542746.109505,1.1445525.2261637,1.726775.2564619,1.2799259.3113569,2.5987667.4974353,3.8946977.1799563,1.2531777.4354408,2.4953374.6300847,3.7466383.1118941.7193234.148898,1.4501587.2560682,2.1703865.111609.750056.2777058,1.4918412.3999708,2.2405125.0995278.6094612.1732234,1.2232732.2517244,1.8360061.157287,1.2277972.2918504,2.4588117.4695398,3.6836019.1925941,1.3274424.4526261,2.6454806.6282386,3.9748914.1292015.9780036.1186542,1.9752229.2616337,2.9504946.236426,1.6126196.0983875,3.2425476.2661269,4.8461364.1077675,1.030207.2221185,2.0633598.115532,3.0718737-.1553594,1.4703653-.0705871,2.9444638-.2052998,4.40515-.1509749,1.6370346-.2870722,3.2758272-.4454452,4.910985-.2961535,3.0576197-.8290452,6.0807449-1.9644655,8.9634281-.6820476,1.7316231-1.565472,3.3549298-2.6294772,4.8782349-.5020642.7188127-1.0468606,1.4077871-1.5424226,2.0703578.4101381.8040037.8336062,1.5957627,1.221713,2.4044974.4990914,1.0399879,1.1312665,1.9540389,2.1062641,2.6177431.2894342.1970098.4801686.5390162.7356938.8374394.482259-.0703873.9943004-.0895148,1.4732202-.2253955,1.457691-.4136086,2.9430874-.229312,4.3991495-.1435236,1.4372072.0846616,2.8278404.5981565,4.1608095,1.1445372,2.6569111,1.0890554,5.1923989,2.4159616,7.6233499,3.962202,2.2667003,1.4417794,4.60787,2.7692829,6.9441529,4.0980692,2.1146123,1.2027204,4.2610974,2.3500405,6.4046641,3.5010395,1.3475344.7235776,2.8106416,1.194297,4.3001918,1.4267652,1.1049185.172432,2.2558951.1061647,3.4042111-.095162,1.3200733-.2314501,2.6354635-.4859304,3.9481388-.751047,1.8394585-.3714984,3.6763514-.7617578,5.4661817-1.3384519.4237939-.1365528.7880776-.3583916,1.0874482-.7077625,1.3873347-1.6189966,2.7933071-3.2220084,4.1834788-4.838609.8621668-1.0025951,1.7281617-2.0030792,2.5549535-3.0345623.6847897-.8543066,1.3147386-1.7526035,1.9273122-2.5754564-.1559567-1.0645047.494829-1.7616039.9514188-2.4847403.4842002-.7668281,1.1471214-1.4207854,1.7929525-2.1973469-.3035787-.3090865-.6641565-.6623399-1.009273-1.0301052-1.1871524-1.2650644-2.0499166-2.7168623-2.6255134-4.3610884-.2827963-.8078116-.1240432-1.6016543-.1691782-2.3568281.2200009-.4323356.4184456-.8222827.6469441-1.271309-.2925427-.0155029-.5713481-.0423953-.8502485-.0432098-3.2618288-.0095773-6.5264675.0629345-9.7843597-.0536763-1.7254604-.0617467-3.4640743-.0581086-5.175458-.2370634-1.2147493-.1270298-2.4360957-.0137381-3.6258002-.2051957-1.2277807-.1975936-2.4732897-.076598-3.6962515-.360713-.7361961-.1710269-1.5202556-.1342178-2.2848086-.230079-2.5230672-.3163628-4.9922167-.8492023-7.4133534-1.6041657-.9288852-.2896469-1.8219067-.6943434-2.7800991-1.0655296-.2408648.1196177-.5307741.2635961-.8505471.4223986-.3779666-.1966094-.7628155-.396789-1.1398727-.5929232-.143889-.2385567-.2671314-.4630291-.4091879-.674897-.5953341-.8879527-.4687661-1.7435421-.0343433-2.678397.7998466-1.7211838,2.020175-3.0476284,3.5935337-4.0483705,2.2819037-1.4514144,4.8393685-2.2754652,7.3850914-3.113821.166857-.0549489.3607271-.02788.5406156-.0388725,1.0506615-1.2930395,2.5469582-1.4899916,4.0197439-1.7619229.9640837-.178008,1.9580583-.1227773,2.9090156-.4087793.2396295-.072074.5160187-.0172133.7750325-.0303473.9868888-.0500415,1.9716192.0445605,2.9644129-.167701.5364346-.1146933,1.1457911.1115846,1.7975135.1934973.2151548.2710624.4625218.5827147.7095766.8939767-.413586.7746712-1.1695464.7469099-1.8080608.8415188-1.8985887.2813253-3.8155437.4407794-5.686427.8993388-.1394366.0341755-.3250942.0047377-.4175633.0862397-.9059715.7985499-2.0827938.7426745-3.1496361,1.0403035-1.3524484.3773052-2.715702.744782-4.021495,1.2523716-1.3845655.5382085-2.7278511,1.1956477-4.0500421,1.8769522-.9713596.5005238-1.9227377,1.0646812-2.6645671,1.9018151-.4388751.4952837-.8068782,1.0285508-.8749132,1.7443973,1.5463456.5546141,3.1038902.9776032,4.7114566,1.2385114,1.5345087.2490435,3.0582258.5644221,4.5870061.8490733.0724061.0134802.1476763.0115389.2216163.0168943,1.170741.0847838,2.3580156.0757156,3.5080012.278332,1.412556.2488738,2.8450528.0776908,4.256007.3636452.7853084.1591419,1.6341044-.0234511,2.4386885.0752337,1.3921265.1707554,2.8035422.0635658,4.1757007.2488467,1.1065746.149422,2.1986924.1240568,3.2961721.1665471,2.467507.0955286,4.9514798.0097334,7.4006884.2659242,2.5126556.2628223,5.0241573.2552609,7.5141164.1197874,3.2122414-.1747873,6.4196095-.0908655,9.6273442-.1849143.6106868-.0179057,1.2171655-.1789684,2.0411068-.3076408.476327-.324888,1.136737-.7753397,1.7985723-1.2267688h.9287495c.1963542.2356584.4570649.5485595.733902.8807918,1.2112471.037549,2.3860061-.1817921,3.5638329-.3888,1.0326346-.1814866,2.0785179-.2954571,3.1030893-.512402,1.303879-.2760921,2.6118847-.5622637,3.8828865-.957444,2.444892-.7601355,4.8568252-1.6257299,7.2979164-2.3986464,1.9577869-.6198903,3.9378901-1.1694544,5.9092242-1.7462775,1.0031781-.2935294,2.0054331-.5913485,3.0159143-.8576393.2419508-.0637626.5150142-.0094687.8671079-.0094687.2433897.2219135.5383351.4908582.828095.7550856-.3366189.986685-.9882734,1.5431453-1.7765681,1.8402653-1.7541431.6611725-3.5313628,1.2710239-5.3264465,1.8112687-2.5867991.7785231-5.1880415,1.5141351-7.8026411,2.1928331-1.2564228.3261438-2.5613335.461244-3.8373849.7171226-1.3060238.2618721-2.5978487.5965885-3.906696.8416002-1.1022443.206336-2.2366058.2574941-3.3268775.5075828-1.4546096.3336712-2.9600826.2726372-4.5168941.7400035-.7570735.8139272-1.5673996,1.7748125-2.471878,2.6369045-1.4363927,1.3690707-3.0663026,2.4279417-4.9773662,3.0810844-.8953699.306005-1.6694251.0651609-2.4115532-.2070012-.8771666-.3216911-1.6743662-.8726942-2.4862533-1.3577354-.6881425-.4111176-1.3366342-.8884414-2.0233242-1.3021993-.6714867-.4045879-1.3911084-.6652111-2.2675148-.437148-.0460716.0903971-.1265681.248324-.2402811.4714389.4910689,1.4916207,1.2060752,2.865911,2.579116,3.8436567.3979211.2833751.658496.7596265.9144013,1.0663781v1.2340451q-.6058815.7591988-1.3139377.9865696c.7659919.7144007.7603314,1.4930936.2877509,2.3689915-.5856148,1.0854037-1.1012941,2.2083767-1.6601945,3.3085162-.0973559.1916341-.2274397.4547686-.39655.5059403-.6011575.1818939-.8067017.7314783-1.1041448,1.1532253-2.0935312,2.9684579-4.6335257,5.5314998-7.2171213,8.0569724-.2867871.2803343-.6179491.51528-.9839431.8169545-.0280855.1931477-.0641935.4415667-.1064779.7323268-.7918784.8145992-1.8668245,1.2320835-2.9108617,1.6130167-2.2019503.80342-4.483854,1.3385808-6.7759113,1.849381-1.8226805.4062034-3.6408407.4564994-5.4715436.3763516-1.2689384-.0555496-2.4708599-.5159316-3.6543065-.9554485-3.0041317-1.1156831-5.7814345-2.6938659-8.5641942-4.2594917-1.4554784-.8188821-2.9364088-1.5930748-4.3832538-2.4266588-1.8256397-1.0518255-3.6171397-2.1629406-5.443526-3.2134289-2.3896847-1.374494-4.8315089-2.6877707-7.5482969-3.2495049-1.4006919-.2896129-2.85184-.5899163-4.3374537-.1547096-.8256652.2418758-1.732139.2078428-2.6425629.3023532-.1115819.1839437-.2376884.3551403-.3265467.5438829-1.097534,2.3313407-2.2409225,4.6429091-3.2692676,7.0045225-1.109941,2.5490187-2.2652343,5.0811635-3.1590024,7.7225953-.2635341.7787878-.6204875,1.5328145-1.0498742,2.2611163-1.1212486,1.9018491-3.6323159,2.8284571-5.7608013,2.2977896-2.1020831-.5240971-3.8951442-1.5542633-5.6637712-2.6909337-1.7778713-1.1426163-3.5062501-2.3624143-5.2876643-3.4992747-1.8403544-1.1744637-3.7127037-2.2993101-5.5815373-3.4285073-2.0644684-1.2474031-4.0145857-2.6592424-5.9479046-4.0955306-.7352798-.5462382-1.4492409-1.1211879-2.1680074-1.6792297-2.677775-.1350595-5.1869759.571807-7.6680913,1.4298264-.2039356.0705366-.4130091.1282515-.6122071.2101438-1.5243347.6266847-1.837178.8648613-2.8814663,2.6889517-1.1172305,1.9514799-2.1536796,3.9485114-2.7408487,6.1414463-.3442274,1.2856173-.6869819,2.5717029-1.0439353,3.8538109-.3753739,1.3482328-.7474493,2.6979113-1.1564946,4.0360985-.4634381,1.5161306-.9399755,3.0246524-1.518871,4.5076528-.7502863,1.9220557-1.7954162,3.6501357-2.9941884,5.3029549-.7931748,1.0935895-1.5508116,2.2208727-2.4304148,3.241672-.8927093,1.0360036-1.8909124,1.9861578-2.8901403,2.9235512-.6937624.650835-1.4649805,1.2195129-2.2064366,1.8189251-.3706025.2996043-.7179656.6520296-1.1346126.8662595-1.5562957.800257-3.1242179,1.5807078-4.7127869,2.3144328-1.0838103.5005713-2.1719168,1.016944-3.3759762,1.1908286-.2859523.0412686-.5683617.128747-.8547077.1409918-.5550384.0237973-1.1138098-.021313-1.6672939.0166432-1.3704752.0939538-2.691492-.1173439-3.9926901-.5363011-.5818479-.1873511-1.1998242-.2689379-1.7719596-.4787967-1.6002633-.5869366-2.8675864-1.5878891-3.5752761-2.9533759-.6315575-.4738282-1.1205698-.840711-1.489747-1.117699-.2610432-1.2998373.3279448-2.5544828-.6018634-3.5761645-1.1663564,0-2.3148998-.0563777-3.4558041.0129371-1.8027702.1095246-3.1062997-.6349384-4.0285334-2.138322-.1888679-.3078716-.3663062-.6227343-.5516244-.9388324-2.8796778.3075458-5.7716812.6163947-8.7296971.9323028.4832025.9780783.975639,1.9970315,1.4875446,3.0061155.9031515,1.7803173,1.6882868,3.6280489,2.8851246,5.2441472.4340325.5860949.9346306,1.1228848,1.4352117,1.7182787.5516584-1.2968236,1.6436812-1.4877857,2.7437536-1.6013692.660281-.0681746,1.3333186-.029431,2.0000678-.0143354.9567841.0216524,1.8841761-.0826457,2.7870357-.4347316.5014228-.1955233,1.0392997-.297568,1.680081-.4747513.4668928.1982927,1.0220601.4340664,1.5195972.6453642.2421476.9065507-.2623464,1.4366887-.749818,1.8091102-1.1552593.8825905-2.4156934,1.5735537-3.9047175,1.8227533-.7298975.1221359-1.4495226.1572549-2.178178.2081347-.5735539.0400468-1.1410367.1670426-1.7355733.2591774,1.3329249,1.7570494,2.8781303,3.2854656,4.4833212,4.7390146,1.2180207,1.1029428,2.5745652,2.0534364,3.8749013,3.0647874,1.213419.9437331,2.416121,1.9026568,3.6554807,2.8113116,2.0125869,1.4755952,4.3048614,2.3831911,6.6668815,3.1077122,1.0996516.3373297,2.2270358.5698726,3.3800689.7365758,1.0706498.1547978,2.1304062.20394,3.18345.1384533,2.4657423-.1533181,4.8851076-.5057027,7.1220052-1.7198127,1.4367999-.7798263,2.9217416-1.4601194,4.2287156-2.4640042,1.8745484-1.4398381,3.6255694-2.9971966,4.9860471-4.954127,1.167551-1.6794129,2.306392-3.3814014,3.5382586-5.0127446,1.170483-1.5500414,2.4511091-3.0165955,3.6709284-4.5298347.481526-.5973487.9598146-1.2014172,1.3866831-1.8379032.9361882-1.3958817,1.8593654-2.7996505,2.9748448-4.0630656,1.0960612-1.2414097,2.1628559-2.5113544,3.3090339-3.7048573.7574197-.7886909,1.6033515-1.5050126,2.6043916-1.8934121.9972529-.2056233,1.6984676.1746854,2.2480558.9939613.1916778.983617-.1549726,1.8002728-.9261364,2.4953085-1.0692042.9636886-2.1344785,1.9345856-3.1521948,2.9516654-.8864447.8859028-1.7099312,1.8353375-2.5489468,2.7677489-.1942502.2158861-.4015658.454755-.4944217.7208829-.3381189.9690644-1.0348744,1.6704262-1.7184356,2.3929381,0,1.0815755-.1290454,2.1743098.0296398,3.2235356.2504959,1.656308.0261376,3.3222136.2224782,4.9591226.3186939,2.6570161.1539884,5.3124168.1609928,7.96684.0061289,2.3207045-.0620827,4.6477487-.2473873,6.9599823-.0820711,1.0240439-.0957812,2.0514272-.196395,3.0703804-.3205807,3.2469392-.7651843,6.4781041-1.7682198,9.5978574-.8345768,2.5958056-2.0713574,5.012636-3.3591236,7.4098231-.9421338,1.7537914-1.7910113,3.5590191-2.6421761,5.3598892-.602325,1.2743566-1.20991,2.5540755-1.6889926,3.8770992-.796324,2.1991252-1.5607685,4.41488-2.2095044,6.6609211-.6493604,2.2481859-1.245251,4.5140331-1.6942663,6.8184882-.3095108,1.5884999-.829595,3.1347811-1.2003672,4.712896-.3825548,1.6283159-.7686865,3.2550436-1.0133182,4.9165237-.1860309,1.2634422-.3459717,2.5216987-.4582323,3.7951051-.134543,1.526312-.3664352,3.043583-.426536,4.579995-.0251942.6439659-.1702574,1.2832348-.260826,1.9246486.0706889.0548709.1413778.1097553.2120599.1646262Zm57.179061-135.6443536c-1.032336.7601559-1.9782843,1.5134088-2.9815709,2.1803507-1.1225924.7462481-2.3155412,1.3861143-3.4450973,2.1225408-2.0439438,1.3325738-4.1618819,2.5234974-6.4080848,3.4781789-1.4110764.5997515-2.8984818.936355-4.4210315,1.0047467-1.6647826.0747789-3.3355244.0542464-5.0025875.0210551-.6097909-.012143-1.2572101-.0757563-1.8172778-.2951177-2.0485998-.8023136-3.9537043-1.8616869-5.533158-3.433598-.4535966-.4514223-.9170144-.8929619-1.3955879-1.3581495-.4891752,1.2579918-.9464505,2.4339487-1.4039362,3.6104487,1.1880755.689436,2.3878115,1.3643262,3.5666021,2.0740163,2.6503139,1.5956065,5.3162792,3.1675312,7.9262228,4.8271719,2.122119,1.3494342,4.1848906,2.793915,6.249834,4.2309838,1.6487105,1.1474151,3.2304175,2.3930127,4.9004535,3.5072094,1.0785977.7196068,2.1693309,1.5471635,3.844498,1.2201917.1466447-.152266.4499926-.4435894.7260017-.7588595.5399911-.6168563.7793763-1.3854831,1.0209199-2.1448584.856262-2.6918636,1.8765031-5.3185188,3.1655317-7.8328597.9768437-1.9054126,2.0050938-3.7844621,3.0224979-5.6978501-.138052-.2145218-.3070945-.4772152-.4900644-.7615474.4685896-.6481674.9494369-1.1536122,1.8078436-1.4023978-1.8118752-1.1829482-2.7211318-2.8111419-3.3320086-4.591656Zm78.4594762-10.1328893c-.4135724.0837996-.8241991.21816-1.241233.2425138-1.6782485.0979992-3.3584109.1638321-5.0380711.2367648-.2944431.0127946-.5900265.0085252-.8848497.0016494-.4217171-.0098284-.8248507.0258132-1.1300584.3719328.6379714.4924262,1.2451289,1.018831,1.9093261,1.4591895.8350315.5536231,1.6238014,1.2853865,2.7414256,1.0068848,1.7316774-.4687782,2.5701297-1.9750125,3.6434605-3.3189352Z" stroke-width="0"/>
      <path d="m154.1176553,109.2779049c.1749609-.3376148.3087099-.5957129.4727026-.9121708-.2702806-.3129419-.5554796-.643165-.8587054-.9942463-.0454879-.2617838-.0948446-.5458649-.1738614-1.0005384.0904872-.2370295.1755582-.6771504.4069616-1.0178807.4003645-.5895498,1.0527927-.5949391,1.8148209-.5233979.4370019.2526681.9934181.5275044,1.4995003.875511,1.7294784,1.1892742,3.7306356,1.7468069,5.6756624,2.4024203,2.0439574.6889609,4.1314344,1.2653156,6.2273004,1.7790276,1.8934712.4640948,3.8261453.7665159,5.7373311,1.1606238,1.2705131.2619942,2.5323114.5660783,3.8006797.8388241.5672215.1219662,1.1470943.0905736,1.7293969.2164902.9900109.2140942,2.0305051.2017679,3.0510042.2646685.4430153.0273201.8902931-.0150481,1.3334577.0110638.4697298.0276798.9367176.1380596,1.4051986.1399466.4290473.0017308.8603479-.14968,1.2874132-.135521,1.8042464.0598462,3.5410957-.3422846,5.2635018-.7773285,3.1750338-.8019471,6.0254621-2.3283813,8.6350392-4.2578355,1.2295861-.9091299,2.4355256-1.9010006,3.3389452-3.1966024.4810781-.6899111,1.0844075-1.2977738,1.6576017-1.9195715,1.100276-1.1935911,2.1798647-2.4102397,3.3405605-3.5429936,1.0514624-1.026182,2.2290856-1.9221304,3.2967694-2.9328706,1.1209092-1.0611109,2.2739491-2.0873675,3.1439755-3.4020357.6843689-1.0341099,1.5339386-1.9601341,2.3249754-2.9219358.5505385-.6694058,1.2374593-1.0372525,2.2433659-.8091148.1255635.1414398.3522567.3374179.5031908.5804544.2398467.3862614.2973888.7742266.0726368,1.2390748-.3215649.6650414-.695527,1.2751508-1.1875461,1.8253937-.2410006.2695217-.5701128.5847917-.5953477.9004554-.0927541,1.1607799-.8348415,1.9451607-1.5229569,2.7212539-1.3470593,1.5192461-2.7248648,3.0217337-4.200569,4.4139026-2.0533509,1.937131-4.1493662,3.8243528-6.4530026,5.487238-1.8062147,1.3037876-3.6272391,2.582244-5.4779643,3.8183322-2.5460487,1.7004952-5.2266336,3.1397632-8.1995848,3.959772-.9386995.2589194-1.8864803.4625472-2.8588852.593154-3.3502255.449963-6.7109984.099221-10.0649705.1912064-.6099402.0167382-1.2232062-.1472772-1.8372187-.2026096-.5786647-.0521694-1.177596.0924198-1.7308087-.2069401-.0874737-.0473367-.2190643-.0101678-.3298317-.0178921-1.1325153-.079184-2.2709627-.1114658-3.3957135-.2527835-1.1836638-.1487025-2.3526672-.4111719-3.5310778-.6057721-.6100352-.1007346-1.2251337-.1765385-1.840463-.2384141-1.3355482-.1343061-2.6480334-.3952822-3.966953-.6350945-.8181314-.1487568-1.6365885-.2951991-2.4547199-.4448723-1.3706653-.2507472-2.6540062-.6932167-3.8906103-1.3112201-.1244776-.0622015-.2786968-.0648486-.5308555-.1192376.3580394,1.6642834.7217529,3.2569102,1.0357567,4.8592568.1396131.7123848.0820982,1.4730702.2854976,2.1611418.3491617,1.1811223-.0028506,2.4196269.3922605,3.5836445.0454744.1339192.0156378.2944457.0155699.442646-.0019004,3.5205877.1537034,7.050108-.0446192,10.5596183-.2862577,5.0659458-.1519658,10.1272759-.1427081,15.1899772.0019547,1.0714484.205612,2.1638433.3443971,3.2428395.1397081,1.0861639.268163,2.1727622.5310184,3.2306218.6890249,2.7730703,1.5167805,5.5052522,2.5300987,8.1805541.4468569,1.1797376.8429862,2.3795394,1.2342965,3.579314.7263817,2.2271037,1.476573,4.4479763,2.1324627,6.6960672.504494,1.7291524.9757442,3.4712963,1.2335499,5.2652702.1430203.9952916.4456895,1.9666774.6190758,2.9588467.1314141.7519293.1524681,1.5224431.2588781,2.2795989.1053919.7500017.257032,1.4934872.3860706,2.2402309.0187056.1082485.0271217.2185061.0357686.3282072.080605,1.0206093.1343191,2.0441917.2476792,3.0611357.1041567.9344069.2727919,1.8616055.4110883,2.7922656.0108188.0728716.0050633.1480645.0097057.2220085.080415,1.2807506.0766141,2.5742618.2671585,3.8384506.1713366,1.1368129.0990527,2.2768431.2340097,3.4000673.0921569.7670385.1505541,1.5268007.1666398,2.2952511.0195743.9340811-.162839,1.8048883-.7890006,2.5815652h-.6156686c-1.0683761-.7480197-1.3556384-1.8819818-1.4598901-3.0626154-.1472284-1.667236-.3770436-3.3191863-.6647538-4.9668062-.131482-.7529339-.1549658-1.5241129-.2620409-2.2821103-.1059078-.749703-.2623124-1.4921026-.3836-2.2398236-.0986997-.6086161-.1825762-1.2197573-.265516-1.8308034-.229218-1.6891328-.4257487-3.3833291-.6896222-5.0669775-.2515886-1.6051024-.6303562-3.1916204-.8457146-4.8006867-.2257158-1.6864856-.5146477-3.356681-.9245414-5.0051697-.4430968-1.782082-.8605108-3.5738703-1.3950178-5.3291821-1.0622948-3.4885096-2.2239544-6.9467329-3.289317-10.4343466-.4429068-1.4499381-.7498927-2.9417284-1.1080678-4.4170792-.1952004-.8040037-.3923827-1.6089034-.5439141-2.421731-.1323779-.7101178-.2470412-1.4293309-.2886468-2.1492093-.0593067-1.0255371-.1762234-2.050762-.2185349-3.0702582-.1377127-3.3181003-.3144926-6.6351418-.2943481-9.9612515.0196558-3.2464777-.0498318-6.4986569-.2421544-9.7387135-.0761119-1.2824339.0064886-2.5935386-.2280913-3.8405412-.2251049-1.1967473-.1005051-2.3966034-.333619-3.5926448-.2574935-1.3211232-.2089649-2.7027509-.2826741-4.0586265-.0797227-1.4668935-.1517079-2.9342553-.2162544-4.4018886-.0195065-.4436777-.0030135-.8889369-.0030135-1.3580476Z" stroke-width="0"/>
      <path d="m22.4755632,43.0721047c.2244635-.2363779.4527262-.476757.6532019-.6878748.2886791-.0817701.5322299-.1507558.8165499-.2312906.2617712.2433182.5583523.5189928.8675898.8064337.4387547.0993907.7027062-.1828645,1.033293-.4303197-.5145102-.3424-.9572473-.6370324-1.3784519-.9173395v-1.14713c.4907566-.8590409,1.3853783-.7833661,2.1245777-1.032172.1350164-.0454463.2974312-.0018564.4418819-.0283552.4136063-.0758683.7803469-.3427496,1.2540761-.0672718.55644.3235611.983054.7214327,1.3184885,1.2712411.5172539.8478312.8371967,1.7756203,1.0592812,2.7186305.3896712,1.6545975.6823089,3.3310816.9337313,5.0161452.1529805,1.025303.4162839,2.0384154.8431321,3.0106224.9146015,2.0831287,1.699109,4.2223704,2.7430172,6.2505704.2260042.4391028.324351.9439231.4931424,1.4536373-.320652.3200756-.5812201.5801693-.8068748.8054156h-.87792c-1.256735-.6538419-1.9224322-1.8847308-2.5757835-3.0268787-.966259-1.6891565-1.9344388-3.4122476-2.3520123-5.354717-.1518131-.7061844-.2712376-1.4204256-.3769587-2.1352031-.2549822-1.7238343-.2085034-3.4899078-.7452146-5.264252-.9509318.9852222-2.0831468,1.5630567-3.4777421,1.8263066-.0087114.9722647.0504138,1.9693381-.0399547,2.95267-.2199466,2.3932639-.0763579,4.7961526-.2310267,7.1836131-.0867576,1.3392189-.3245105,2.7123282-1.0218379,3.940183-.4844157.8529491-.8913671,1.7499021-1.4273827,2.8148615.2432539,2.6559233.7148621,5.4873669,1.1904324,8.3820166.7466823-.5194476,1.525967-.7775118,2.3939064-.8867037.6152733-.0774057,1.2215976-.1947699,1.8466478-.1833871,1.4034204.0255553,2.4538477.6566316,3.0893622,1.89236.4111663.79949.7857461,1.6318998,1.0524092,2.4882698.3857719,1.2388915.6791393,2.5081371.9746616,3.7731336.3038366,1.3006111.5674353,2.6107247.8403188,3.918422.2804445,1.3439159.5661084,2.6870376.820646,4.035956.1947626,1.0321347.3350782,2.0744236.5168094,3.1091715.2376714,1.3532556.434494,2.7172288.7509345,4.0524091.8125624,3.4285073-1.2600845,6.1401431-4.2148629,6.9902889-.2421951.0696814-.4807489.1520353-.6914683.2191102-.837648-.2688904-1.2852855-.7577938-1.1607264-1.6714579.8535369-1.0986463,2.4242928-1.5894909,2.8448153-3.5366743-.0321884-.7626673.1389242-1.9247504-.1595913-3.1021735-.2130983-.8405346-.0935313-1.7635316-.2907645-2.6105211-.1994594-.8565465-.0951975-1.7377794-.3688005-2.586622-.1867334-.5793345-.1883521-1.2193636-.2637513-1.8333623-.1457453-1.1868646-.4464666-2.3498776-.622595-3.5246331-.4140136-2.7613278-1.2417488-5.4195317-1.8415795-8.132912-.0616381-.2788275-.1950138-.5417991-.2967033-.8164454-.5034284-.355439-.9611398-.548865-1.6176047-.2714358-.7219582.3050954-1.5195514.4435962-2.2945432.6049508-.3304884.0688126-.6872297.011505-1.0552955.011505.0499913.5065783.0847758,1.078365.167288,1.6431876.1202526.8231719.3016308,1.6379068.4067292,2.4626399.0921636.7232382.0608898,1.4496733.2152431,2.1813078.1947508.9231327.0726691,1.9168293.2955393,2.8292037.2010205.8229411.005949,1.6874155.3680573,2.4752784.0574453.1250003.0303779.2914999.0323173.4389467.0154104,1.1706423.233443,2.3138898.4226198,3.4646648.1478799.8995662.1033235,1.832446.2718298,2.7264803.182471.9681209.0783873,1.9677362.3793071,2.9167908.0432668.1364577.0352375.2916628.0371651.4383698.0154053,1.1713278.2330816,2.3154577.4232951,3.4665789.1427352.8637685.1632377,1.7471124.2595161,2.6193857.0759252.6878409.1843935,1.372098.2992196,2.2097546,1.16825.8600014,2.5173964,1.5905769,4.1641047,1.5932241.8895397.0014322,1.7876075.0764826,2.6670071-.0186659,2.4955518-.2700375,4.9571098-.6991083,7.0697165-2.2083428.4435176-.3168515.86047-.6708855,1.3589743-1.0621969-.0174194-.1767421-.0173142-.4286567-.0699932-.6690053-.3396935-1.5498718-.6995994-3.0953316-1.0357126-4.6459636-.2830236-1.3057017-.5514717-2.6147362-.8099663-3.9255286-.1890003-.9583536-.3443767-1.9232843-.5272617-2.8829071-.2705114-1.4194075-.5641435-2.834498-.8250136-4.2556296-.1896994-1.0334107-.3423779-2.0736091-.5114916-3.1107937-.0758302-.4650654-.1527599-.9299611-.2269408-1.3952844-.1483177-.9303955-.2361918-1.8752757-.4568715-2.7880913-.2991874-1.2375747-.3186056-2.5117549-.6111653-3.7530084-.2655058-1.1264958-.3082992-2.3037967-.4894331-3.4523589-.1745435-1.1067914-.402645-2.2050779-.6031666-3.3078375-.1683705-.925936-.3344368-1.8523132-.4946186-2.779695-.0863504-.4999332-.1584374-1.0023371-.2365583-1.5036822-.1062505-.6819086-.212121-1.3638714-.2947757-1.8954416.3096669-.6850919.7628427-.8977336,1.2809043-1.0478276.9854092.1513361,1.3672886.9813771,1.6392762,1.7299194.5027429,1.3836029.9285526,2.8021552,1.1755633,4.2678336.1977117,1.1731401.4930948,2.329508.7267958,3.4969873.2836073,1.4167467.54687,2.8375728.8210057,4.2562269.1919799.9935269.3893963,1.9860084.5805346,2.9796914.1025175.532982.2060498,1.0660455.2931671,1.6016611.2268865,1.3949178.4607504,2.788994.661798,4.1877265.175962,1.2241896.2436544,2.467588.4829717,3.6780191.2462267,1.2453668.2789818,2.5200968.6066993,3.7537619.1476763.5559105.064879,1.1493496.2246739,1.733096.1991472.7275144.200077,1.509282.2907203,2.3037627.36746-.2192935.6958732-.4152784,1.0424422-.6220963,1.1866027-.0987459,2.3927254-.199114,3.5957057-.2992242.395101.2802664.7465398.5295475,1.0837051.7687151v.9394094c-.454669.5835631-1.0695164.8744521-1.7629258,1.030621-.668989.1506709-1.3747648.2138023-1.9961957.4766246-.5271565.2229588-.9697443.1555784-1.5371829-.0938452.0102826,1.3028849.3561084,2.450205.5297832,3.6191028.1695617,1.1412384.622897,2.2377262.560682,3.4663617-.1665244.172432-.345595.3578622-.4748406.4916931q-.8917727.0402979-1.6470883-.392635c-2.1330939,2.414-4.9683426,3.4132148-8.0252822,4.0179281-1.3704922.27111-2.7331486.4471326-4.1285804.4277879-1.1813867-.0163852-2.282898-.3716274-3.3839342-.7324557-.1981834-.0649505-.3571995-.2494304-.4683045-.3305353-.4578217.0824489-.84489.1521506-1.182846.213015-.5282713-.3287434-.7987776-.7417819-.922176-1.2652613-.2154501-.9139831-.4667367-1.8204659-.6523586-2.7403134-.3150865-1.5613971-.6099165-3.127498-.8766287-4.6978411-.1885082-1.1099001-.2970918-2.2332261-.4768717-3.3448095-.1905766-1.1783462-.4493852-2.345968-.6261057-3.5261061-.0860246-.574461-.1206784-1.152947-.2201129-1.7320643-.233913-1.3623238-.2912922-2.7541262-.4986909-4.1220769-.2080775-1.3724238-.3253895-2.749497-.4564082-4.1292718-.1448766-1.5257011-.291528-3.0529363-.4607113-4.5744766-.0933582-.8396047-.1117261-1.6784762-.1977405-2.5139473-.1040243-1.0104008-.2674707-2.0146453-.4020019-3.0219849-.0146434-.10964-.0046153-.2223343-.0119981-.3332164-.0804048-1.2075871-.0560896-2.4340912-.2683446-3.6181458-.3102709-1.730795-.1182401-3.4568319-.200133-5.2134197.466248-.7695839.958771-1.5374097,1.4059605-2.3307977.7518864-1.3339449,1.2590427-2.7490558,1.2787528-4.3030714.0122204-.9636411-.0916376-1.9416787.0380916-2.8883847.3381477-2.467683.1065967-4.9415156.1961608-7.4101897.0240946-.6641251.0036481-1.329869.0036481-2.0161182Z" stroke-width="0"/>
      <path d="m55.9575908,100.8074189c-1.052416.3193222-2.0460886-.0863246-2.789832-1.0474339-1.0600754-1.3699056-1.6973273-2.9481902-2.2266354-4.5664198-.6840465-2.0912907-1.2358541-4.2185625-1.601821-6.3957367-.1562418-.9294791-.3020584-1.8576211-.4402801-2.7899443-.5540576-3.7371119-.4686066-7.4923738-.3927356-11.2457963.0218073-1.0789962.2029345-2.1582911.3754893-3.2345654.1658152-1.0342388.3060934-2.0755232.4923482-3.1082144.1974538-1.0947841.4112681-2.1866089.6107954-3.2810333.096633-.5300294.1795185-1.0708647.2432403-1.5967808.1701963-1.4046716.3733072-2.8103546.5427875-4.2131596.1530789-1.26706-.0543079-2.566809.3515949-3.8051677.04429-.1351172.0147995-.2944118.0195574-.4424932.1078252-3.3556595.2156537-6.7113155.330412-10.2825285.2838483-.425806.6518173-1.0165232,1.5650716-.94805.3204144.0240247.6630841-.2487958,1.0610018-.4130724.9805834-.0953453,2.1173781.2231794,3.0766395-.5791953-.9117169-.4282597-1.7469894.2925791-2.6528829.0722335-.1602055-.2747549-.3221655-.5525201-.4742773-.8133944.7710043-1.579934,1.3804015-1.8374518,4.2032126-1.7976867.3587045-.221625.7249564-.4479097,1.0655934-.6583692.9235097.2212924,1.1933695.9426606,1.3868528,1.6889325.2991535,1.1538532.5042904,2.3272885.686181,3.5071687.2532786,1.6430111.6179763,3.2692195.8571579,4.9139376.3231734,2.2222879.8627438,4.3842985,1.5649901,6.5138136.6116845,1.8548891,1.366335,3.6498947,2.1719372,5.4254539,1.0445869,2.3022694,2.1234221,4.5940317,2.8011124,7.0379514.4042739,1.4578727.7114634,2.943242,1.0422114,4.4207445.2286343,1.0213153.442038,2.0468999.6258427,3.0770798.1212944.6798383.1969108,1.3695119.2591835,2.0578347.0956319,1.0569705.0635623,2.1356409.2636563,3.1706942.3197595,1.6540206.2636767,3.3193832.1343801,4.9554777-.0967247,1.2238909-.0720871,2.4689727-.3563969,3.6928093-.2691132,1.1583974-.2993571,2.3700978-.5033198,3.5464485-.2074106,1.1963197-.4980936,2.3782158-.753456,3.5661868-.1128714.5250473-.2143539,1.0530812-.3460735,1.5734111-.2382246.9410724-.8509815,1.5784407-1.6759137,2.053321-1.3656292.7861252-2.8574938,1.1744026-4.3808579,1.5149021-1.4387275.3215893-2.8800952.4971775-4.3485508.4233896-.3931836-.0197519-.7812971-.1341567-1.1725056-.2005869-.7644784-.1298127-1.2406731-.5612591-1.4162991-1.3241165-.0317201-.1377813-.1110016-.2646142-.1994119-.4680451Zm.8788023-1.1825409c.4505763-.0520337.876834-.1420711,1.3033836-.1434761,1.876985-.0061699,3.7620265.121654,5.6187448-.2452289,1.0543062-.2083315,2.1187118-.4103506,3.2127843-.8981544.0646686-.6657405.1335521-1.3481921.1966461-2.0311798.0805914-.8724227.048868-1.7734618.2676404-2.6092586.1834789-.700941.0817656-1.3918499.2020691-2.0714167.2229805-1.2596615.431511-2.5220516.4066223-3.8012886-.046601-2.3945603-.1274775-4.7887066-.2209443-7.1819773-.0457459-1.1714975-.1515247-2.3406601-.2310234-3.5108204-.0049547-.0729055-.0158889-.1455667-.0271217-.2178681-.1334367-.8590104-.2769389-1.7165818-.3983283-2.5772823-.0966907-.6854856-.1040616-1.3893452-.2605274-2.0594909-.4086381-1.7501532-.8773091-3.4862765-1.3428309-5.3093963-1.26302.2316401-2.4731472.3426987-3.522777.9883615,0,1.1155677-.0123935,2.1531596.0021448,3.1903646.0624763,4.4559382-.2138856,8.9213586.4307576,13.3614138.1514093,1.0428183.3778377,2.0565722.6381886,3.074738.3135152,1.2260629.9927054,2.0557102,2.1378586,2.591672.6166731.2886219,1.1533453.7482097,1.6770675,1.09792v1.0281707c-.2781063.245161-.5520656.4866635-.7551731.6657066-1.6266045.2796284-2.8696429-.4708348-4.0784737-1.2022589-.4730624-.2862395-.8770987-.8171852-1.1158527-1.328542-.3315489-.710111-.5643097-1.4932293-.6852105-2.2691188-.2400639-1.5406746-.5101545-3.0789531-.7498859-4.6186028-.1862073-1.1958989.0320289-2.4231293-.3735414-3.5841264-.0060203-3.9277142-.0136627-7.8554285-.0167441-11.7831427-.0006448-.8224049.3512793-1.5113115.9700904-2.0096292.4738022-.3815509,1.0205059-.7021491,1.5815917-.9389207.8936052-.3770914,1.8261555-.661858,2.7089012-.9738904-.4487913-1.1467975-.8521625-2.3060773-1.3496385-3.4234573-1.2493573-2.8061531-2.3253148-5.6757226-3.1887779-8.6209669-.374892-1.2787177-.6689551-2.5852882-.9226477-3.894153-.2266931-1.1695562-.3473563-2.3596653-.5271837-3.6280217-1.338969.6240647-2.6924965.8050388-4.1427826.7314376-.0276851,2.7087274.0666641,5.358776-.2398909,7.9956364-.1182639,1.0172325-.1629951,2.0430174-.2409463,3.0649266-.0028167.0369143.005328.0764792-.0050599.1107362-.3684679,1.2152775-.3573539,2.4926749-.6194593,3.7308198-.2689571,1.2705013-.2532481,2.6006587-.512452,3.8741058-.1238803.6086297-.1264289,1.219031-.2469258,1.8194206-.1344277.6698131-.2783947,1.3391238-.3741488,2.0148964-.106841.7540063-.1144902,1.5242893-.2538216,2.2709786-.2549449,1.3663149-.4292339,2.7380056-.4083598,4.1263802.0209623,1.3947414-.0942575,2.7896321.1798884,4.1839051.1822877.9270899.1607994,1.892713.2645047,2.8373556.0631143.5748886.1780491,1.1452567.2924782,1.7130726.1852504.9192367.4034866,1.8319369.5818411,2.7524225.2477029,1.2783749.4326411,2.570006.7147281,3.8403512.3982129,1.7933087.8223836,3.5828775,1.3089118,5.353855.3345115,1.2176328.714477,2.4306839,1.5721201,3.4289417.248928.2897351.3561865.7011921.5415658,1.0840801Z" stroke-width="0"/>
      <path d="m185.4844343,18.8443719c.2676608-.3493505.5967459-.7788795.9400027-1.2269012.2752896.2397496.4948426.4309747.6878575.5990796.3500712-.2090951.690138-.4122189.9672873-.5777598,1.660208-.0832854,3.2413042-.1253838,4.8156404-.2517568,1.667864-.1338801,3.3293073-.3478742,4.9960039-.5814658-1.004712-.1080873-2.0158719-.0761924-3.0250634-.0807231-1.0004361-.00449-2.0008993-.0009825-3.0118827-.0009825-.1892141-.1775023-.3773558-.354-.5810131-.5450571v-.7444426c.1942502-.1836502.4357666-.4119881.6542743-.6185668,3.1593418-.7670334,6.3301947-.524691,9.4833058-.4938023.8159187.0079958,1.6449911.2574431,2.4391771.4931915.9682239.287407,1.3566429.6986518,1.847481,1.6683237.3607135-.3747327.7248343-.7530221,1.0870002-1.1292719.8679767.2611797,1.3739231.7685725,1.606046,1.5572041.1422873.4834513.3449265.9588864.411957,1.4526565.1279255.9422551.1947796,1.8939687.2567741,2.8437292.0860484,1.3182724.2438648,2.6426383.1875444,3.9565293-.0617365,1.4402437-.2076889,2.8952266-.7741095,4.2572654-.6241526,1.5008823-1.5087309,2.8321733-2.6419114,3.9946161-.750137.7695228-1.5171199,1.5227418-2.2818358,2.2779257-.7623133.7528253-1.6201634,1.3575318-2.6350563,1.7351255-.2614708.0972764-.4833857.3008532-.7266397.4576465.4855169,4.8279796.9501563,9.5970497,1.8331735,14.3798104.8592891.0889073,1.7589349.1629735,2.6524723.2827303.4255858.0570395.8541851.1621013,1.2556626.3136546.8466513.3196107,1.3142228,1.3288542.4501827,2.2155512-.3226644.3311258-.7545758.5719326-1.1684469.7949118-1.060883.5715627-2.2313253.8469828-3.3938809,1.0930194-1.8295763.3871981-3.688134.5504804-5.5630761.4586783-1.5635445-.0765505-3.0862977-.3732971-4.5936712-.7866411-.729721-.2000948-1.178872-.6704307-1.534373-1.2561286.5768186-1.0290022.8235476-1.1086376,1.9391492-.8917401.7482909.1454886,1.5279387.1344825,2.2728903.2915304,1.8665938.3935174,3.7488796.1332981,5.6222878.2015541.2827827.0103036.5678187-.0412075,1.0160874-.0773785-.4660376-.4036954-.8097288-.7014093-1.1806774-1.0227373h-1.2128489c-.3565055-.1978413-.724237-.4019102-1.0922671-.6061353.4285721-.7410047,1.4077371-.1806314,1.7475052-.8220723-.300796-1.3673195-.5938409-2.6688163-.8723069-3.9734219-.3015018-1.4125656-.5949405-2.8269095-.8814697-4.2425906-.2221321-1.0975569-.4456759-2.1954192-.6322566-3.2992851-.0672478-.3978275-.0332574-.8135098-.0371261-1.2211216-.0048732-.5129892-.001181-1.0260598-.001181-1.5133443-1.6286475-.597213-3.1824862-1.1853578-4.5898568-2.1102621-1.4313702-.9406889-2.6479791-2.0508571-3.4250614-3.6197069-.8219458-1.659376-1.4234834-3.3939007-2.0544911-5.1293962-.5481765-1.5076716-.7987742-3.0703482-1.2380837-4.5927675-.0595782-.2064276-.0202666-.4424339-.0205653-.6647529-.0013982-1.0377599-.0006108-2.0755232-.0006108-3.2445211Zm14.0961984,16.8152218c.5491267-.4767366,1.1487775-.9516678,1.6956509-1.4811033,1.3488783-1.3058545,2.4712807-2.8061531,3.4538664-4.3924572.9273106-1.4970881,1.4193432-3.1647381,1.4160175-4.9484441-.003-1.6165072.0487051-3.2331095-.1897028-4.8439542-.1376176-.9296709-.1757482-1.8740641-.2586609-2.8118292-.2433082.5608705-.6897579.8330801-1.1578724,1.0443574-.6276684.2832988-1.2873725.4619516-1.9865782.5101248-.7612002.052446-1.5208529.1482597-2.2761481.2593725-.7494176.1102458-1.4894823.2849397-2.2393478.3910806-.7564355.1070709-1.5458162.0710287-2.2723337.2724437-.6214106.1722758-1.2463777.0748213-1.8421734.2160151-1.1782069.279211-2.3824903.2622335-3.5724391.3747225-.8507643.0804245-1.7217953-.0536338-2.5881159-.092184-.2407019.5143959.1269753.9769889.1514772,1.4723897.0721889,1.4591335.494924,2.8398331.8895329,4.2317576.4454316,1.5712119,1.1006561,3.0579354,1.7717763,4.5360758.5764521,1.2695884,1.3446974,2.377347,2.5181396,3.2362148,1.2136498.8882954,2.5452614,1.5080772,3.8738187,2.1694057.395817-.4107171.7712588-.8279809,1.4809712-.822259.3074203.1841813.6776767.4060065,1.1321217.6782704Zm2.6746936,18.3020504c-.3219721.3001473-.5892256.5492756-.9139262.8519615.7301554-.1958424,1.4159767-.3797929,2.2684243-.6084397-.6330575-.1138177-1.0834573-.1947937-1.3544981-.2435218Z" stroke-width="0"/>
      <path d="m230.0048298,36.7364959c1.0576387,3.919956,1.2126317,8.0364739,1.7664144,12.1579501.9942733.2795673,2.0906806.3825724,3.0298959.9586963.1236903.0758683.2534076.1429738.3845095.2054298.6572743.3131591,1.0324717.8173278.9952235,1.5596052-.0342347.6824685-.440952,1.0928293-1.012273,1.4482615-.7683132.477972-1.6236656.6533226-2.4699232.7829554-2.1339016.3268802-4.283441.6063796-6.4491339.4534145-1.2591241-.0889276-2.5287006-.20675-3.726889-.6586034-.7126987-.2687716-1.3172363-.6538996-1.1989622-1.7964717.1602327-.1500702.4510107-.4224325.7423181-.6952835.9627263.2056538,1.6301135.8904675,2.5857539.9867834.9479437.0955421,1.8915436.2107649,2.8397588.1693674.8894243-.0388352,1.8218796.2262847,2.7231137-.22808-.1334096-.4195105-.2393445-.7526522-.3407727-1.071557-.9043019-.1267277-1.897272.2498987-2.6138802-.6528577.4811731-.8937221,1.3370414-1.1868544,2.2283118-1.4767321-.3600755-1.6460078-.7123865-3.2972251-1.0847333-4.943915-.2385572-1.0549172-.5283714-2.098489-.755336-3.1557106-.2200688-1.025174-.3916497-2.0608484-.5800086-3.0927319-.1757482-.9627553-.3455509-1.9265932-.5320229-2.9684308-.9695406-.3453832-1.9382668-.8366487-2.7759454-1.5279478-.985287-.8131297-2.0156954-1.5625815-2.8171709-2.6048569-.736006-.9571657-1.5564043-1.8468187-2.1810049-2.8916988-1.1009819-1.8418349-2.127766-3.7104197-2.612672-5.8315538-.23215-1.015539-.5427467-2.013135-.8165839-3.0191901-.0189771-.0697221-.0353614-.1416994-.0402075-.2134884-.0988219-1.4630602-.1957841-2.9262442-.2939273-4.4017783.3916361-.3922413.7479515-.7490955,1.138108-1.1398385.4775759.4289605.9665271.7091709.9659027,1.4994128.8132446-1.4428357,2.1094676-1.9410601,3.4702779-2.2921644,1.1626506-.2999793,2.3474547-.4510168,3.5602899-.4866194.830837-.0243878,1.6603438-.2564691,2.5058819-.1844087.6884548.0586736,1.3742625.1481205,2.0624322.2105816.6517631.0591564,1.2982049-.02596,1.9606918.1797838.6104696.1895944,1.2904403.1089069,1.9467644.234328,1.0110784.1932181,1.9012629.4947085,2.5386642,1.3227819.1840694-.0749172.345931-.1408009.4749696-.1933208,1.323752.5006493,1.6196476,1.6654526,1.8711005,2.7837489.4442642,1.975788.609818,3.9956614.4451873,6.0154093-.1292558,1.5853335-.4403819,3.1409493-1.0260103,4.6451762-.9699207,2.4913191-2.3076544,4.7665706-3.8809317,6.9093961-.4992135.6799368-1.0745253,1.3102834-1.6647147,1.9148405-.3753332.3844967-.8421853.6796992-1.3624663,1.0893167Zm.0913017-3.3176354c1.3462856-1.8990662,2.5148546-3.862662,3.4727213-5.9502263,1.0133318-2.2084615,1.6045528-4.5069282,1.5156946-6.9576677-.0304882-.8412439-.0264702-1.6749705-.1906394-2.5146633-.1789111-.9149961-.2032093-1.8602276-.2948368-2.791614-1.9373709,1.0006759-4.0074726,1.1726938-6.0313127,1.5161035-.7155086.1214062-1.4633923.0876974-2.1625165.2614767-1.1399541.283348-2.3056725.2968757-3.4546401.3822025-1.583879.1176256-3.1830427.0294836-4.7608947.0294836-.291416-.1258131-.57052-.2463098-.8868995-.3828999-.0937586,1.1081438.1761962,2.0808328.4014776,3.0772104.7204904,3.1867214,1.8865482,6.1532585,3.955374,8.7248544,1.4131397,1.7565777,2.9305039,3.3821888,5.0419805,4.3182688.0637727.0282703.1392737.0300826.213173.0450119.1988519-.1503994.3996722-.302282.6591068-.4985214.3534241.1715971.7066038.3430924,1.1254023.5464384.2841673-.0400807.6317272-.0891007,1.0113499-.1426446.0964328.0843528.229598.2008414.3854597.3371872Zm-12.2394325-17.7989134c.1808658,0,.3618809.0049991.5425567-.0008162,1.128986-.0363357,2.2526372-.0646348,3.3843109-.1734043,1.5881956-.1526478,3.1781152-.2761345,4.7670982-.4556035,1.1468092-.1295276,2.2395515-.4764702,3.38651-.6119438-1.1215472-.1543108-2.2421442-.2394832-3.3628769-.3232132-.5039239-.0376491-1.0035718.0484838-1.5110793-.1734569-.3100945-.1356152-.7767565-.1403021-1.0846111-.003964-.5427875.2403673-1.0800366.1662502-1.6208829.1739117-.8038375.0113879-1.5585355.2462284-2.3347218.4027332-.8544837.1722979-1.4891837.7127598-2.1663038,1.1657569Zm14.1705863,35.6365602c-.0595646.1770984-.1265952.3762701-.2149648.6389567.3990885-.1352495.6958257-.2358213,1.0469421-.3548145-.2965472-.1012844-.549629-.1877142-.8319773-.2841421Zm-14.9075832-36.1537849c-.0152034.3105985-.0247598.5058876-.0358637.7329801.1785853-.0207921.2783438-.0324074.4081155-.0475165-.1130886-.2082433-.2110146-.3885624-.3722518-.6854636Z" stroke-width="0"/>
      <path d="m139.6974079,219.2276628c.4064865-.4983178.8822027-.2689108,1.3111957-.3415787.6738351.3753809,1.30806.7923291,1.8634581,1.3365038,1.5287939,1.4979535,2.9588202,3.0833583,4.3211779,4.733476.9122701,1.1049384,1.8776026,2.1660832,2.7892619,3.2714831,1.2115593,1.4690248,2.3943,2.9617518,3.5887691,4.4448404.965414,1.1986886,1.9515969,2.3814399,2.8894277,3.6013601,1.2468257,1.6218542,2.4450956,3.2809586,3.6838445,4.9091117,1.1306692,1.4861295,2.296184,2.9457059,3.4300568,4.429419.932686,1.2204632,1.8635124,2.4434513,2.7568733,3.6926939,2.8662832,4.0080454,5.7069651,8.0344444,8.574918,12.041268.8725649,1.2190785,1.782025,2.4132601,2.7148468,3.5868346.3369447.4239258.7918241.7540742,1.3420096,1.2656685.0264566.0755595.1210568.3458142.2245076.6413459-.4236039,1.6854132-1.6573167,1.6700189-2.7487558,1.1178891-.4485944-.2269227-.8410043-.5906019-1.2111249-.9423891-1.4173885-1.3472011-2.7072451-2.8110401-3.9422746-4.3276595-1.2290567-1.5092888-2.5404967-2.9523306-3.7474679-4.478534-1.5423683-1.9503464-3.0979717-3.8988738-4.5017315-5.9482919-2.5112031-3.6661951-4.8968834-7.418104-7.3658836-11.1135401-1.9649677-2.9410632-3.9304241-5.882588-6.0845652-8.6927321-1.532907-1.9997329-2.9783267-4.0687264-4.5598572-6.0284533-1.5000297-1.8587004-3.111424-3.628877-4.7063526-5.4088277-.4719696-.5266899-.7858513-1.0511671-.6223337-1.7898878Z" stroke-width="0"/>
      <path d="m73.3394004,103.755324c.2285867.2109651.4724583.4360349.6890045.6358887v.8215836c-.4100566.219212-.8285362.5662955-1.3019854.6759355-2.9880663.6919813-5.8795912,1.6936669-8.7916271,2.6349768-1.8478407.5973012-3.7233597,1.1085154-5.5829151,1.6701275-2.0362132.6149625-4.0872089,1.1541145-6.1848023,1.5341992-1.4646445.2653948-2.9212156.5281085-4.4073824.6654962-1.3673497.1263985-2.7176465.4286703-4.0795699.624886-1.2231247.1762262-2.455161.2914592-3.6771828.4742558-1.2519568.1872968-2.4934613.444465-3.7454453.6315853-.79328.1185656-1.5970937.1675992-2.3966315.2431315-1.5006032.1417656-3.0206891.1136378-4.507409.2804497-2.4372038.273472-4.8719556.2237733-7.2934979.115742-2.7410438-.1222988-5.498589-.4001285-8.0738092-1.5047003-.9979698-.4280594-2.0153747-.8384304-2.9441827-1.3909335-.6809006-.4050427-1.2942285-.9800942-1.4787594-1.7863854.1568925-.8285069.6092802-1.2876332,1.5943466-1.3956781.6769029.2887102,1.5388432.6458257,2.3921213,1.022571,1.563894.6904677,3.1908922,1.0911256,4.8871726,1.3512261,3.9234248.6016113,7.863777.4252426,11.7972537.3638217,1.1630578-.0181636,2.3594205-.0225009,3.5097286-.2029218,1.5067151-.2363236,3.0385361-.2186894,4.5348362-.5872895,1.1219714-.2763839,2.3013966-.3116658,3.4485859-.4957589,1.1053902-.1773733,2.2000906-.4203759,3.3034752-.611528,1.0357703-.1794368,2.0782532-.3197974,3.1150755-.4935325,1.4271824-.2391336,2.865971-.4317383,4.2744717-.7546987,2.5955818-.5951496,5.1728144-1.2703723,7.7575366-1.9128518,2.5521029-.6343683,5.0982398-1.2939999,7.6579647-1.8959167,1.7655932-.415163,3.5143473-1.0046653,5.5036268-.7136813Z" stroke-width="0"/>
      <path d="m253.07646,54.0431053v.7821681c-.4983176.8020082-1.3795158.805514-2.118101,1.0221501-1.2755085.3741354-2.5920932.6056126-3.8837824.9278535-1.7067955.4257992-3.4037903.890851-5.1094727,1.3212385-1.4283023.3603939-2.8616815.7010224-4.2956851,1.0381824-.4912589.1155044-.9880562.2183297-1.4879484.2837417-.7581595.0992074-1.5240293.1402656-2.2814286.2439392-.751508.1028659-1.5003283.2342941-2.2432301.3877547-.569692.1176697-1.1451939.0523459-1.7294377.2242824-.7561505.2225244-1.5891594.1722826-2.3839156.2781962-1.0045627.133892-2.0057046.296387-3.0049597.4663143-.7105268.1208327-1.4103705.3239242-2.1245352.3976985-.5797099.0598869-1.1552525.1363423-1.7317317.2044083-1.3095396.1546213-2.642305.1154841-3.9506229.2768387-1.4658085.1807671-2.9455715.0873834-4.3957694.263983-1.1040226.1344486-2.2019095.0597987-3.2928328.1751198-2.427028.2565574-4.8688522.337832-7.287912.1574721-2.7674206-.2063428-5.5310132-.0777586-8.293262-.1955098-.5426789-.0231389-1.0806474-.1425666-1.6233399-.1838826-.5082948-.0386961-1.0052821-.0938724-1.5116222-.1880434-.9651289-.1794911-1.9625786-.1811404-2.9452457-.2714154-.9757985-.0896301-1.9505924-.1786562-2.9126942-.3901236-.600411-.1319643-1.2173963-.1961885-1.8299699-.2631888-.8702165-.0951756-1.7485776-.128238-2.613758-.2543921-1.2118851-.1767149-2.4148246-.4146743-3.5654075-.6165712-.2778687-.4133304-.4950326-.7363722-.727074-1.0815348.6234468-.4707194,1.3375029-.6123493,2.0719886-.4761699,1.2734994.2361064,2.5340489.5418941,3.8006525.8155834.1067494.0230642.2179104.0293971.3274562.0351461,1.4666908.076917,2.9331238.1596781,4.4002897.226339,1.9109143.0868269,3.8327832.0663148,5.7298788.2746327,1.1753291.129066,2.3520971.0642581,3.5128609.2054604,3.3165338.4034476,6.6416737.1852198,9.9583432.140157,1.3853935-.0188288,2.800678-.0318338,4.175755-.2221918,1.0664621-.1476233,2.1222819-.1136922,3.1813867-.1827898.5424753-.0353905,1.0803488-.1381343,1.6212087-.2028336.540154-.0646111,1.0740774.0126589,1.6299913-.1723573.5320637-.1770815,1.1421532-.1444807,1.7205328-.2483987,1.2854178-.2309546,2.6020025-.28402,3.89228-.4934714,1.2595721-.2044762,2.5377954-.2638405,3.7877975-.4662871,2.4210417-.3921327,4.8499973-.7289533,7.2580754-1.240025,3.4143783-.7246263,6.7830379-1.6127181,10.1698058-2.4384116,1.2601694-.3072335,2.5488993-.5000622,3.8276113-.7279827,1.2816713-.22845,2.5614964-.4836193,3.8529141-.635254.8667821-.1017765,1.7990474-.1922585,2.4249104.8021745Z" stroke-width="0"/>
      <path d="m226.4109703,84.1722685c.1542735.1986389.2661133.342624.404111.520296v.832627c-.6437406,1.0289038-1.6505566,1.2923709-2.7720902,1.5238481-2.2563295.4656966-4.5244823.3888747-6.7974133.4286432-2.5932877.0453818-4.8170385-.9292076-6.8656248-2.3987618-.3134609-.2248661-.5734114-.5789476-.7505985-.9278773-.3765821-.741619.0672885-1.4872902.9020485-1.5804499.2559053-.0285622.5176748-.0044323.7116263-.0044323.6477586.3135392,1.2196768.6379928,1.8260334.873882,1.2288124.4780365,2.4886152.7959876,3.8355795.6829674.7357752-.0617331,1.4826001.0200234,2.2214296-.01946,1.4661886-.078356,2.9302731-.1958627,4.5699431-.3092834.1033693-.0967435.3488088-.3146524.5810131-.5458852,1.0237569-1.0194555,2.0205551-2.0672355,3.0698998-3.0594999,2.0660837-1.9536927,3.7395675-4.2139062,5.3094513-6.5688881.9897123-1.4846498,1.8864125-3.0191341,2.7140731-4.5956404.2511271-.4783215.4742909-.9814789.6292566-1.4975937.2007659-.6686931.600696-1.1602029,1.1919985-1.6029575h.6491025c.617284.4363335,1.1349859.9994796.9902552,1.8821719-.0748766.4568795-.2591089.8972245-.4078576,1.3403795-.7262324,2.1635039-2.0031526,4.0286254-3.2957649,5.8660602-1.4840118,2.1095019-3.2038116,4.0308517-5.0968756,5.7902835-1.2083693,1.123068-2.4149739,2.2480298-3.6195967,3.3695706Z" stroke-width="0"/>
      <path d="m257.9095571,60.5744886c-.4636756-.1605808-.7334269-.2539984-1.0219923-.3539457v-.9989162c.43821-.6247978.8758499-1.2487471,1.3019515-1.856284v-1.9560175c-.4156221-1.1174785-1.4256689-1.7281818-2.341672-2.3709293-2.2444518-1.5748908-4.7608539-2.5657094-7.4306201-3.1660549-1.0628242-.2389945-2.1484534-.3389859-3.222653-.4959557-.930039-.1358978-1.9030004.0072831-2.7995649-.3715867-.0959441-.0405423-.2198244-.015883-.3307819-.0197417-2.095676-.0729632-4.1913248-.1465034-6.2870551-.2174914-.2959499-.0100253-.593583.0091022-.8882298-.0136329-.9273513-.0715548-1.3530185-.7460377-1.0071147-1.5986067.0800077-.1971659.211544-.3734295.3417772-.5980003.8082763-.0040013,1.602218-.1570004,2.3912458.1668017.2239511.0919074.5127337.0245575.7717611.0323564,2.5764826.0775754,5.1601053.0645364,7.7269772.2653032,1.7303336.1353378,3.4981326.1519572,5.1820687.6389329,1.6561357.4789358,3.3252214.9629759,4.9067791,1.6368208,1.7853643.7606785,3.3945868,1.8480371,4.745732,3.2861851.6859435.7301072,1.1003982,1.6239346,1.0981449,2.548245-.0039366,1.6137124-.396998,3.1938365-1.5537573,4.4141979-.430011.453669-1.0722991.7060927-1.5829966,1.02832Z" stroke-width="0"/>
      <path d="m117.9697014,49.4392147c.0515964-.153481.1320114-.3926893.2191593-.6519447.6385551-.5960116,1.3345437-.6151831,2.0882779-.1866486.8184707.4653369,1.6887143.7983395,2.5790346,1.1171662,2.3339888.8358206,4.2697172.1836722,6.0167202-1.3905127.1918747-.1728935.3594647-.3727304.5362717-.5579162q-.9405728-1.6096433-.5828999-2.974224c.2640092-.2943269.5596741-.6239561.8110048-.904158h1.3968368c.254765.1697916.5571356.3713016.9856942.6568997.1969108.4797707.4411964,1.0749746.7605757,1.8531549.3168002.1128539.8075297.3390877,1.3228968.4617564,1.6434843.3911892,3.2879189.6300887,4.9201635-.09692,1.0334898-.4603107,2.0423827-.982514,2.8796269-1.7291185.8766779-.7817608,1.6251181-1.7061459,2.4464123-2.551856.294959-.3037413.6388673-.5599321.9434506-.8231312.4064322.2549419.4640557.518667.273715.8851324-.6645637,1.2794168-1.4720256,2.4651479-2.575383,3.388396-.9177813.7679786-1.8614626,1.507507-2.9103323,2.12287-2.0831468,1.2221635-4.2840111,1.8164917-6.6885055,1.5622421-.5319415-.0562488-1.0488425-.2546365-1.5733859-.3877581-.3584738.3437983-.7407842.6886079-1.0984164,1.0573642-1.2841282,1.3240554-2.8765184,2.0568437-4.6444803,2.4746437-2.4587922.5810483-4.6888144.00056-6.7300162-1.375675-.6261074-.4221339-1.257088-.9280707-1.3764208-1.9497627Z" stroke-width="0"/>
      <path d="m202.6328314,49.6274515v-.6900231c.172694-.5516479.7282007-.676604,1.1922429-.7859691.9809839-.2312023,2.0043472-.2854046,2.9822225-.52632,1.349652-.3325139,2.7070008-.1796506,4.0596392-.1922382,3.1430525-.0292579,6.2865529-.0087628,9.4298768-.0084777.50896.0000475,1.0298519-.0445911,1.5012242.4651027-.1127629.1745056-.196395.4542188-.3776816.5510302-.3097144.1653932-.6766043.2806092-1.0266347.3024822-.9109941.0569275-1.8184317.1021159-2.7303081.193392-1.8960096.189781-3.8202269.100005-5.7154356.2947613-1.6879949.1734705-3.390338.031827-5.0515641.2608166-1.0036532.1383447-2.035582-.0179634-3.0291901.3330841-.3451165.1219323-.8192173-.1212332-1.2343915-.1976411Z" stroke-width="0"/>
      <path d="m118.8459992,33.4738366c.4757976-.6619361,1.1474744-1.0960398,2.1917966-.9145227,1.1830258.4209223,1.6667102,1.4283264,1.7166641,2.67164.0502797,1.2511906.0110496,2.5059752.0110496,3.9289767-.2780588.2424086-.6358945.5543527-.9805902.854853-.4827342.1669578-.8876732-.0124111-1.2439207-.2677162-.4219071-.3023838-.7331418-.7185581-.8797729-1.2236024-.1598662-.5506433-.3240083-1.1056103-.4123507-1.6702633-.1718524-1.0984223-.7906703-2.1374396-.4028757-3.3793651Z" stroke-width="0"/>
      <path d="m134.2734834,35.8712918c-.9271612-.7021424-1.2664407-1.6240669-1.2902503-2.7072307-.0086605-.3949563-.0941252-.788226-.1589567-1.294845.063379-.265707.1547486-.6486799.2606564-1.092646.1869064-.1964227.41569-.4368392.6476093-.6805646h.6891878c.8015434.5343463,1.0601772,1.3458877,1.0082414,2.2725636-.037832.6750802.1178125,1.3360796.0315877,2.0217587-.0939215.7469676-.4302418,1.209206-1.1880755,1.4809641Z" stroke-width="0"/>
      <path d="m129.7282458,86.6636063c.5820312.0742223,1.2195546.1555173,1.9668682.2508219.1773636-.2335474.4122285-.5575259.662324-.8692664.6796721-.8472,1.549047-1.4828918,2.5458994-1.8461433.5178376-.1887086,1.161076-.0332388,1.7623285-.0332388,1.1815326.8525079,1.4500486,1.9803476,1.068987,3.3695299-.1890648.6892527-.1701827,1.4327383-.3075153,2.1396252-.235883,1.2141711-.1089756,2.4687826-.4359159,3.6696908-.2647151.9722953-.8092401,1.6959882-1.801993,2.0201432-.393808.1285773-.7722362.1754864-1.1539494-.0661111-.7032237-.4451166-1.4193704-.8697959-2.2231671-1.359697-.0884646.0747042-.284113.2248933-.4620331.3937549-.2684752.2547926-.5135889.5347943-.7879961.7826093-.7773945.702027-1.0398969.7203942-2.0408896.1811608-.7518745-.8310862-.7238705-1.9497423-1.0529556-2.9331964-.250109-.7474427-.3534784-1.5497632-.466662-2.3356508-.1116769-.7753669.1247355-1.5125943.391609-2.2312712.2271682-.6117181.725608-.8878916,1.3297248-1.0032603.2819003-.0538324.5700857-.0747993,1.0053364-.1295005Zm2.8892376,3.7737377c-.8190137-.1168348-1.7639982-.2516432-2.7720224-.3954518.1584816.8447293.3162437,1.6855625.485449,2.5874161q1.2680968-1.1936658,2.0941828-1.3776095c.504141.4933018,1.0258746,1.0127561,1.5585626,1.5207055.2162001.2061663.4542278.4003118.7971453.0950466-.0724603-1.707724.0410762-3.4330414.4492324-5.2454029-.9996487.8821628-1.2759293,2.2166304-2.6125499,2.8152959Z" stroke-width="0"/>
    </g>
  </g>
</svg>