<?xml version="1.0" encoding="UTF-8"?>
<svg id="Layer_2" data-name="Layer 2" xmlns="http://www.w3.org/2000/svg" viewBox="0 0 231.514612 321.6733688">
  <g id="Layer_1-2" data-name="Layer 1">
    <g>
      <path d="m96.1783173,198.8368925c.3355952.6134453.5302518,1.2784698.7415857,1.9411281.5754832,1.8043418,1.3869979,3.5009063,2.3964796,5.104437.3020584.4797987.6660029.8839464,1.1932855,1.1068953.5358602.2266121.7783988.6431142.8817621,1.1920569.1807664.9600525.3201464,1.9229491.3733639,2.8999065.0331727.6093726.1189486,1.2157419.1741227,1.8240907.0551741.6083715-.0954911,1.2356956.1718247,1.8255013.0235713.0520116.0046415.1229302.0070532.1849983.0669598,1.7264609.0786544,3.4573358.2149174,5.1783362.1834284,2.3161529.0538772,4.6408151.2202187,6.9486179.1135563,1.575591.0007508,3.1543218.1714835,4.7145095.1518938,1.3876804.028008,2.7832559.1960558,4.1530758.1555114,1.2677763.1854306,2.5323672.1007923,3.7842169-.0958096,1.4173721-.0302832,2.8436858-.1912551,4.2459731-.1168326,1.0176611-.0286678,2.0361869-.1656134,3.0374437-.223222,1.632335-.0290773,3.2785716-.2055435,4.8987115-.1617,1.4844229-.215509,2.9711209-.0951725,4.4355674.1830871,2.2271235-.0145159,4.4587974.1763524,6.6721102.2669063,3.0954391.023594,6.1922205.1867729,9.2815392.0716012,1.3553723.1935076,2.7119732.1109853,4.0624993-.0732849,1.1996789-.1640207,2.397037-.1283908,3.5976715.0208183.7013598.0708276,1.4089993.1936669,2.0985052.2007656,1.1273041.1551701,2.1112237.0053468,3.2751588-.3361412,2.6107258-1.6898071,4.7234056-3.1578711,6.7943579-.9820653,1.3854052-2.0513626,2.6963197-3.295522,3.8579341-.1361834.1271849-.2613888.2669745-.4037267.3866057-1.0550772.8866311-2.333217.5623893-2.6761271-.5774285v-1.0249191c.4943033-.6679141,1.033747-1.4066785,1.5834519-2.1377073,1.4326161-1.9052706,2.8213545-3.8427356,3.9778041-5.9294324.4246019-.7661581.6079165-1.6430513.7736209-2.507044.2109358-1.0998876.2983043-2.2339264.9493817-3.27707,0-.2501606.0004778-.5590902-.000091-.8680198-.0100792-5.4360506.1061618-10.8761965-.069326-16.3069003-.1482534-4.5873246-.1035453-9.1702581-.1190396-13.7552165-.0034356-1.0119503.1280722-2.0236504.1607217-3.0366473.0330362-1.0242365-.0766295-2.0619196.0481892-3.0724821.2594435-2.1010762.1631334-4.2049054.1003373-6.300157-.0396116-1.3208572-.0663227-2.6490633-.161973-3.9685781-.0927153-1.2790841-.2677026-2.5523664-.3784831-3.8323151-.0998367-1.1537876-.2550296-2.3049815-.3661514-3.4605211-.1109626-1.1539469-.2787374-2.3016597-.3781418-3.45952-.0937619-1.0921746-.2769627-2.1768183-.3694505-3.2740439-.0973226-1.1544475-.2557008-2.3055959-.3802123-3.4590422-.1512681-1.4014228-.3441273-2.794996-.3595419-4.2081817-.004266-.3914746-.1513591-.7835863-.1394825-1.1725355.0233779-.7645882.0807931-1.5316792.1881608-2.2886455.0492585-.3473126.2498876-.6731243.3909855-1.0318358-.4516087-.256918-.8722403-.4868064-1.2833501-.7326214-.4523141-.2704328-.7755889-.6596778-1.1112865-1.0709241-1.1453921-1.4031519-1.92461-2.9489375-2.1500162-4.7569879-.3086224-.4425989-.1263089-.8807611.0156535-1.316921.2159982-.6636366.4091304-.813278,1.0979992-.8635604.1194605-.0087369.2392623-.0128323.5448246-.028736-2.7631543-1.5996856-5.1796445-3.3358845-6.4967817-6.1394353-1.0121437-.6896652-1.9945958-1.3590809-2.9769796-2.0285421-.0756966-.0515793-.1600391-.0942624-.225338-.1567855-1.6310836-1.5616439-3.230519-3.1531842-4.6288588-4.9332948-.0573128-.0729664-.117629-.1439078-.1805047-.2121189-.8377252-.9091786-1.6682949-1.8250918-2.5162359-2.7246462-1.2740672-1.3515727-2.5968242-2.6591881-3.8308248-4.0460494-1.1206035-1.2594489-2.1492995-2.6006011-3.2205194-3.9040983-.6242071-.7595372-1.2595968-1.5100191-1.8769327-2.2750851-.7705834-.9550015-1.5315655-1.9178298-2.2895328-2.8829106-.6049359-.7702535-1.1925119-1.5541812-1.800053-2.3223529-.5715584-.7226559-1.1605451-1.431524-1.7392477-2.1485601-.4423713-.5481464-.8659266-1.1122421-1.3244634-1.6464186-.5827866-.6789034-1.2071075-1.3222792-1.7871183-2.0034578-.8758693-1.0286505-1.7265178-2.0787221-2.5923989-3.1159274-.7097895-.8502048-1.4209214-1.6993858-2.1407674-2.5410472-1.1000469-1.2861373-2.2072835-2.5661201-3.31394-3.8465921-.1216447-.1407452-.2621397-.2649837-.3893018-.4011671-.9923379-1.0626309-2.0029459-2.1090395-2.9701881-3.1940699-1.2085977-1.3558046-2.4040333-2.7247713-3.5630767-4.1229291-1.1935927-1.4398285-2.3195885-2.9355706-3.5073679-4.3803932-.8606595-1.0469205-1.7726479-2.0517039-2.663875-3.0734149-1.2347969-1.4156202-2.4679557-2.8326851-3.7091346-4.2426854-.5913642-.6718161-1.2091893-1.3204021-1.7982328-1.9941749-1.2770592-1.4607492-2.5962668-2.8889627-3.8010194-4.4075935-1.6169431-2.0381891-3.3052372-4.0207034-4.7726414-6.1793427-1.4942177-2.1980461-3.0643595-4.3451614-4.6290294-6.4943699-.8473039-1.1638555-1.7682795-2.2738338-2.6276307-3.4292368-1.0571817-1.4213765-2.0234911-2.9028529-2.7331328-4.5340731-.1557275-.357972-.2428685-.7457949-.3569709-1.1052913.0782904-.3414425.1526901-.6659119.2354172-1.026671.2670883-.3900299.6538873-.6704396,1.2421573-.7530187,1.1262575.3282917,1.1720804.3585067,1.7863675,1.2359459.8063158-.1661708,1.4542648.2586244,2.0214662.7777618,1.4539918,1.3307771,3.0214602,2.5011967,4.6876392,3.5517006,1.7051421,1.0750877,3.3940164,2.175419,5.2408024,3.0002665,1.494741.6675955,3.0085483,1.2859667,4.5525137,1.8354441,1.9382954.6898245,3.8475363,1.4618868,5.7896428,2.1402327,2.4550779.8575083,4.9703923,1.5149336,7.4947166,2.1376049,1.5253313.3762534,3.0380011.8039837,4.5640719,1.1770745,1.5272198.3733866,3.0638931.7081286,4.5966758,1.0586948,1.3254873.3031619,2.6417371.6627834,3.980796.884299.7497424.1240565,1.4962085.2581011,2.2400922.4103704,1.1563814.2367141,2.3103511.4855551,3.4685868.7126677,1.0713336.2100598,2.148287.3912812,3.2202236.5983605.861251.1663756,1.7159835.3673232,2.5788955.5238812.4783654.0867997.9642048.0685866,1.4522967.181392.7095734.1639866,1.4585536.1533613,2.1890363.2327097.3613621.0392362.7177528.1225093,1.0785802.1687418.3613166.046278.7455788-.0661521,1.079934.1705051.0424215.0300329.121622.0064161.1835421.0108756.9494386.0683477,1.9216863.0333889,2.8416267.2359291.8759035.1928705,1.7827613-.0178605,2.6306568.3135483.1086532.0424784.2463041.0121611.3705312.0131622,1.1346758.0091236,2.2549039.1507789,3.367328.3651048.0301239.0058018.0620225.0019453.0930224.0037769,1.1359272.0674148,2.2717292.1373438,3.4078156.2020852,6.7560659.385013,13.5176834.1195629,20.2765933.1713356,3.4305337-.3142195,6.8776083.0057222,10.3030227-.2216521,2.5079996-.166478,5.0126773-.0146411,7.5104384-.1756244,1.1061218-.0712827,2.2179316-.0647528,3.3162493-.1785139,1.9295017-.1998782,3.8242608-.6151972,5.694675-1.138976,1.5443294-.4324628,3.0960079-.8273047,4.6830432-1.0929937,1.1810448-.1977168,2.3559238-.3878115,3.5541465-.3345713.4540432.0201812.9099976.0958892,1.3546215.1937124.2667015.058678.4006893.2752449.3135028.7026453-.282355.2087402-.618337.535974-1.0176384.7381047-1.411775.7147268-2.9274367,1.145813-4.4610271,1.5062195-1.3834713.3251519-2.7684442.6508158-4.164816.9118747-1.0168193.1901061-2.0537061.2717183-3.0806046.4095171-.3603496.0483485-.7205172.106469-1.075702.1834739-1.2812683.2778159-2.5995317.2714226-3.8861468.5280107-.7167176.1429294-1.4628083.1320994-2.192085.2203325-.7230882.0874936-1.4416942.2121872-2.1622114.3209883-.0600203.0090668-.1191761.0266087-.179424.0312388-.8871999.0684273-1.7758332.1212807-2.6615543.2051454-2.933648.2778159-5.8822443.0506578-8.8122747.2260319-3.842053.229968-7.6800562.0854346-11.5192424.1253875-3.8203247.0397595-7.6422989.0497932-11.4616566-.0247203-1.1009115-.0214781-2.2145529-.074286-3.3150548-.1745891-1.2472083-.1136701-2.4920161-.2567133-3.7404075-.369769-1.0611179-.0961167-2.1153646-.2710813-3.1802479-.3686997-1.3928566-.1276854-2.7783642-.3447416-4.1630072-.5504216-1.5620534-.2320271-3.1202845-.4902193-4.6789933-.7442136-1.4979149-.2440972-2.9961029-.487216-4.4908552-.7496742-1.2827017-.2252356-2.5569055-.5005374-3.841871-.7109158-1.351129-.2212084-2.7154998-.3628182-4.0649224-.5928545-1.1617509-.1980467-2.3096344-.4765338-3.4655152-.7102446-.9799948-.1981377-1.9644377-.374456-2.9438183-.5755401-2.962259-.6082236-5.8800487-1.3855304-8.7936634-2.1975001-2.5066572-.6985499-4.9928374-1.4519441-7.4499175-2.298554-1.4320586-.4934273-2.8286352-1.0927662-4.2299101-1.6717532-1.464526-.6051521-2.9117149-1.249347-4.3066533-2.0076215-1.7478935-.9501326-3.410216-2.0298276-5.041402-3.1672678-.3855477-.2688402-.6582102-.7573417-1.2131823-.7668521-.0279511-.0531492-.0558908-.106287-.0158469-.0301353-.0772324-.0400211-.0236396-.0122521.0299533.015517-.0575631.4293798.3139351.6485519.4965899.9470269,1.1775523,1.9240981,2.377982,3.8345562,3.5948502,5.7341387.9047191,1.4123438,1.8281292,2.8134708,2.7748831,4.1979546,1.120194,1.6381141,2.2650059,3.2596987,3.419715,4.8737409.3391445.4740538.7384914.9067441,1.127031,1.3434501,1.2665135,1.4235266,2.4776709,2.8906805,3.6667131,4.3808255,1.0947684,1.3719814,2.2509792,2.6986631,3.4988814,3.946736,2.410586,2.4109727,4.7691376,4.8741163,7.139327,7.3252354.9672081,1.0002557,1.9162599,2.0183946,2.8597943,3.0411181,1.318673,1.429317,2.6264476,2.8687473,3.9351665,4.3072107,1.1834679,1.3008125,2.3781754,2.5919211,3.5374577,3.914041.9106575,1.038559,1.7668575,2.1246816,2.6626009,3.1766076.5598183.6574367,1.1586908,1.2815413,1.7212393,1.9367369.9605303,1.1187151,1.9036552,2.2523215,2.858998,3.3755075.8175895.9612356,1.6275798,1.9295245,2.4668636,2.87158,1.2520431,1.4053589,2.523619,2.793392,3.792931,4.1832794,1.3320399,1.4585536,2.6617477,2.9194507,4.0097824,4.3631698,1.4299085,1.5313834,2.8493056,3.0704116,4.1647363,4.7034975.4633489.5752215.9629193,1.1230494,1.4690082,1.6617309,1.2715076,1.3533701,2.5587484,2.6919057,3.8348747,4.0409529,1.3516864,1.4288847,2.5670871,2.9533287,3.5217473,4.6894138.3928853.7144651.9571175,1.3418802,1.4875513,1.9717071.6158456.7312562,1.2499954,1.4522057,1.9293652,2.1238512,1.6963256,1.6770431,3.6986003,2.8855271,5.9143363,3.7550258,1.159453.4550216,2.3408163.831002,3.5663189,1.0568177.2704783.0498501.5510132.0428424.8259737.0711917.3613052.0372454.721632.0835916,1.1930125.1390388.035539-.0146297.1761932-.1244774.3141626-.1212011,1.1574735.0275074,2.212471-.3810996,3.2605746-.7792634,1.5567522-.5914439,3.0959624-1.2296663,4.6364239-1.8630425.3644678-.1498006.7043404-.3594395,1.1195456-.5747665.1727576.1687987.3601448.351863.5403879.5279424-.2406047,1.1911468-.9173011,2.0170978-1.8032952,2.7120187-.2907506.2280682-.5453934.5021869-.8505234.7869309,1.0332692.3586204,1.3471587,1.118772,1.560711,2.0871063.2303207,1.044395.0078268,1.986405-.2075457,2.9623841-.2368051,1.0732903-.9050604,1.8729397-1.7032309,2.5577132-.9531359.8177147-1.9565541,1.5767741-3.0071832,2.4163991-.1756699-.1034543-.3656509-.2153497-.5956758-.3508392.5656656-.995819,1.0906047-1.9210606,1.6166815-2.8456652.4540205-.7979885.8849247-1.6122448.8508419-2.5619451-.0240946-.6707353-.0363808-1.3635631-.217716-1.9998743-.1363313-.4783426-.1265478-.8837188.1183115-1.4200568-.9707461.3734094-1.8234764.71649-2.6869913,1.0299246-1.1531733.4185725-2.3457763.7325531-3.5742367.6063466-1.173127-.1204957-2.3323525-.3669477-3.4556521-.7685699-1.4542079-.5198881-2.9435339-.9431021-4.3414642-1.6148613-.0489855-.0235713-.1218154.0025027-.1835421.005415-.0272799-.0535815-.0545598-.1071857-.0201016-.0394751-.0686776-.0343331-.0146411-.0073262.0394068.0196807Z" stroke-width="0"/>
      <path d="m115.7442565,289.8478061v-.8535039c.1106895-.1548061.2384205-.4605959.4671713-.6299861.7432239-.5503761,1.6031894-.8195803,2.5128458-.9971386,1.3810823-.2696138,2.7688992-.1806981,4.1532579-.1633154,1.5091773.0189526,3.0254987.04646,4.5235729.2093886,1.5036257.1634974,3.0002438.4457614,4.4789103.7713684,1.9461563.4285607,3.875294.936777,5.8050688,1.4365977,1.344383.3482454,2.6780041.7382639,4.0156069,1.1125606,2.0650594.5779518,4.1410399,1.1260754,6.1518808,1.8749874,1.9083194.710711,3.7600313,1.5431236,5.4980049,2.6283816,1.3315507.831457,2.5929791,1.7452998,3.716438,2.8340161,1.8179931,1.7617496,3.0555544,3.8820969,3.5348071,6.3726911.2751426,1.429863-.0363353,2.8079875-.9607806,3.9864614-1.6312657,2.0795526-3.5944634,3.7938866-5.8163539,5.2150583-1.3842904.8854253-2.7176385,1.860881-4.2623092,2.4696848-.5064416.1996052-1.0117456.4032148-1.5246715.5850505-1.9086607.6767192-3.8171849,1.3541664-5.7318521,2.0136622-1.4311827.4929495-2.897108.851843-4.3908365,1.1079419-1.2224311.2095707-2.4364439.4681041-3.6544155.7037033-.0600659.0116491-.1223159.0129915-.1837014.0170187-1.0424383.0685752-2.0883804.1039776-3.1264958.2134158-1.2895046.1359445-2.5882466.0989721-3.8711759.2192859-.7647247.071715-1.5405981.0373364-2.289237.1685257-1.0127922.1774445-2.0389171.0432747-3.0348271.192916-1.6043953.2410142-3.2070842.0942169-4.8089767.1525536-1.9122555.0696218-3.8250116.1669785-5.7378132.1740545-5.4971403.0203405-10.9944626.0065981-16.4916597-.0098062-.6393487-.0019112-1.2779351-.1107578-1.9177047-.1591745-.6400995-.0484622-1.2951699.0796328-1.9186489-.174191-.0804291-.0327404-.1847252-.0042547-.2777022-.0091919-1.2911314-.0683932-2.5853799-.1021802-3.8724272-.2168286-1.2781399-.1138748-2.5509444-.2781686-3.8320079-.3804853-1.3934822-.1113038-2.7831308-.3151865-4.1623815-.549648-1.9399109-.3298161-3.8963967-.5887591-5.7990622-1.1061445-1.4271783-.3880618-2.8353357-.8455634-4.2566212-1.2560361-1.7116492-.4943374-3.4347087-.9499505-5.1410226-1.4617161-2.1026916-.6306914-4.055594-1.6135189-6.0030699-2.6107486-1.5581173-.7978747-2.9802446-1.7836828-4.3554796-2.8614553-1.4834673-1.16257-2.1879669-2.6992547-2.5054741-4.5062357-.5191146-2.9544208.4778307-5.3876111,2.4370013-7.5261374,1.3440758-1.4671312,2.9925422-2.5488853,4.6458092-3.6098894,1.3839377-.888201,2.8399772-1.6633235,4.2530149-2.5070212,1.543772-.9217833,3.0685459-1.8745551,4.6996068-2.6422377,1.5419518-.725773,3.1487702-1.2218623,4.8094204-1.6152936,1.4456758-.3424891,2.9121244-.5531291,4.3607467-.8659039.6832149-.1475026,1.4092723-.0927153,2.0956156-.2306165.9619865-.1932801,1.9460767-.0943762,2.9081997-.3198962.5857217-.1373324,1.2153779-.1314623,1.8202911-.1811076,1.4345386-.1178565,2.8549709-.3536149,4.2911249-.4676718,1.1393741-.0904856,2.2938216.0188161,3.4049488-.1784911.9384493-.16666,1.8912552-.0167684,2.8206264-.2907506.4587074-.1352392.9870822-.0454134,1.4836265-.0377004.4352385.0067574.729948.2825825,1.0158182.5725595.3752182.3805763.500708.8334364.4223721,1.3563734-.110371.2112998-.2403999.4210753-.3329673.6462312-.1543738.3754343-.4659768.574539-.81098.7003815-.3381889.1233853-.6999492.2191038-1.057432.2458832-1.1653003.087232-2.3333081.1385155-3.5003944.2015619-1.2600519.0680746-2.5331521.0449129-3.7767769.2254062-1.2633054.1833374-2.5445283.2108903-3.7977431.4946104-.6811786.1541918-1.402276.1221567-2.0967078.2298656-1.2874114.199719-2.5684408.4405512-3.8522005.6637959-.4782516.0831821-.9561505.1685257-1.4352098.246816-1.1987233.1959876-2.4106428.3319548-3.5940653.5959716-1.6789998.3746152-3.3522888.7864759-4.9523839,1.4472457-1.2917457.5334712-2.5885538,1.0450548-3.7882327,1.7805202-.9605076.5888274-1.9594778,1.1150179-2.9425328,1.6669639-1.4129695.7932788-2.8113321,1.6228701-4.0744897,2.6324087-1.2321008.9847842-2.2634588,2.1602547-2.7121438,3.7475858-.23511.83173-.3334792,1.6405941-.132452,2.499513.3654006,1.5612798,1.0207668,2.9595856,2.2750851,3.9837993.8015265.6544903,1.6917524,1.2028187,2.5576563,1.7753782,1.5362979,1.0158182,3.2390055,1.6286264,5.019321,2.0641493,1.4966408.3661059,2.9789705.7903892,4.4721302,1.1713296.9655927.2463155,1.9332786.4917209,2.9107593.6824527,1.3984536.2728673,2.8046657.5082163,4.2117083.7337135.6329667.1014294,1.2767406.1339195,1.9141212.2100485.3915088.0467786.7792293.1248642,1.1704878.1743275.3917704.0494633.7773636.0357892,1.177814.151325.5780883.1667737,1.2070961.1594475,1.8150353.2197637.7311994.0725341,1.466733.1118044,2.1938028.2128015,1.1114458.1544648,2.2163617.3555034,3.3261693.5225957.2435966.0366538.4971814.0006143.7443956.0203405,2.8410238.2268168,5.6887481.1556252,8.5339241.1969659,1.133413.3207152,2.311227.1516663,3.4673695.3013531,1.0464313.1354667,2.154305.2189446,3.2183124-.1021119.1429749-.0431155.3088613-.0116491.4641225-.0124682,1.906613-.0100565,3.8024187-.1637705,5.6986566-.3606226,1.2842489-.1332825,2.5837872-.1129193,3.8713806-.2217431,2.5312068-.2138936,5.0702177-.0983578,7.5997408-.2240411,1.1043016-.0548783,2.2115609-.0928973,3.3165451-.1547378.3922255-.0219331.7799232-.1159453,1.1713296-.1635657.3919069-.0476886.7791269-.0549694,1.1771769-.144067.6477556-.1449316,1.3349635-.0648893,2.0042655-.2191038.8878597-.2045879,1.8119865-.1818357,2.712997-.3603951.7467277-.1480032,1.5238069-.1364678,2.283913-.2254972.7534624-.0882558,1.5025336-.2137343,2.2534705-.3232862.4813004-.0701678.9603256-.1691172,1.4441287-.2058621,1.0656911-.0809069,2.0926579-.3584384,3.1291123-.5839129,1.2693462-.2761437,2.5257008-.6133998,3.797709-.8755053,1.8440216-.379962,3.6068634-1.0076502,5.3634482-1.6628912,1.1062583-.4127025,2.2385223-.7665449,3.2419861-1.4122073.4110415-.2645173.8419003-.5132445,1.203797-.836326.9681751-.8642884,1.9076368-1.7609761,2.850921-2.6527719.4860784-.4595265.6862751-1.0890803.8250636-1.7022753.0719653-.317894-.0610214-.7381047-.2269534-1.044031-.6356514-1.1718984-1.4601007-2.2145415-2.4874998-3.0630171-.9175286-.7577398-1.8844523-1.4595092-2.8609775-2.1409381-1.1514897-.80354-2.4369672-1.3745524-3.7206472-1.9210151-1.642073-.6990619-3.310493-1.3425855-4.9930194-1.9381703-1.3356916-.4728366-2.7031681-.8605571-4.0685741-1.2431811-1.1343573-.317894-2.2827981-.5882813-3.4313528-.8519567-1.0321315-.2369643-2.0715211-.4430994-3.1103645-.649553-.7138735-.1418601-1.4339584-.2525496-2.148105-.3932721-.5030743-.0990859-.9956597-.2647448-1.5020331-.3312723-1.1803622-.1550564-2.3872308-.1733946-3.5428386-.4297894-.8460184-.1877058-1.7020023-.0430472-2.5418776-.2950507-.6320566-.1896625-1.3305041-.1862724-2.0015352-.2114819-1.0147944-.03811-1.9804894-.2966434-2.9419526-.5795445-.6640689-.1954188-.9126597-.3737279-1.3824929-.8793732Z" stroke-width="0"/>
      <path d="m228.2353784,8.6058154c-.844221-.1473803-1.4392825.0900419-2.0535013.2598474-1.5967278.4414357-3.0416756,1.2272233-4.5016853,1.9698556-2.3361976,1.1883056-4.6286882,2.4549585-6.8840471,3.7967761-2.3066425,1.3723255-4.5345395,2.8665176-6.8304202,4.2516555-2.6879924,1.6217154-5.4394179,3.1360347-8.3031711,4.4291654-1.765754.797323-3.5664099,1.5182725-5.4270862,2.0690752-1.883747.5576284-3.7786881,1.072841-5.7115344,1.4424052-1.0678753.2041784-2.1231458.4734907-3.1879723.6948015-.4758171.0988868-.9639204.0988754-1.4488156.1871199-1.1687359.2126934-2.3817475.1982059-3.5397898.4476442-.7835408.1687646-1.5758868.0651055-2.3563561.2881284-.6017961.1719669-1.2706658.0714704-1.9115957.2043775-.7150567.1482762-1.4621029.1346988-2.1906517.2276132-.81346.1037444-1.6339732.1965223-2.4297775.3853031-1.6743811.3971968-3.3546778.7897067-4.9959999,1.3013528-2.4837002.7742295-4.9463546,1.6213798-7.3236199,2.6919114-1.2455246.5608876-2.5104568,1.0845072-3.7261987,1.7042832-2.153247,1.0977091-4.1755778,2.398442-6.0469703,3.9453652-1.3915711,1.1503066-2.6082913,2.4685984-3.8667164,3.7473811-.5346998.5433571-.9707233,1.1848672-1.4425588,1.788802-.4734964.6060508-.8047914,1.2832136-.9602118,2.0374098-.1675246.0917483-.3264033.1787755-.472245.2586529-.3952288.0002673-.9157312-.5049684-.9614404-.9747391-.035903-.3686485-.0583594-.7546796.0097607-1.1147107.3725448-1.9688403,1.1567227-3.7664759,2.3494621-5.3784078.3102265-.4192267.6507361-.8183062,1.0007562-1.2054466,2.1431223-2.3703544,4.6969448-4.2187501,7.4266875-5.8475358,2.6735447-1.5952432,5.5279468-2.7639791,8.4771801-3.7392813,2.09623-.6932259,4.2304789-1.239609,6.3611329-1.8020324.7307329-.1928933,1.4887913-.2844027,2.2361333-.4117582,1.106463-.1885419,2.2113107-.3916111,3.3233025-.5402514.512926-.0685638,1.0285822-.087414,1.5449893-.1802601.7808561-.1403982,1.6015285-.0765953,2.3732837-.2456159.7791497-.1706302,1.5775249-.0732792,2.3520104-.3086793.4836666-.1469964,1.0239863-.1157747,1.5395742-.1863065,2.4365576-.3332915,4.8472005-.7727534,7.2489927-1.3086335,2.8926258-.6453894,5.7530572-1.3987494,8.5972435-2.2224905,3.018036-.874089,5.8452719-2.204175,8.6301887-3.6323402,2.1743383-1.1150264,4.208978-2.461386,6.2421843-3.8076943,1.603508-1.061772,3.1950255-2.1418482,4.783426-3.2261591.9835101-.6713866,1.9304801-1.3981095,2.930531-2.0431462,1.9464521-1.2554303,3.9835946-2.3456454,6.2020949-3.0443148,1.2098491-.3810029,2.4573986-.5305277,3.69835-.1359928,1.2393132.3940144,2.1415751,1.1853421,2.4219734,2.4875226.22304,1.0359369.0709187,2.063572-.3532054,3.0546415-.8348016,1.9506926-2.0152548,3.6865388-3.3061018,5.3488868-1.2411562,1.5982863-2.4825171,3.2015383-3.8168891,4.7208574-1.367704,1.5572954-2.8521496,3.0117962-4.2767796,4.5195458-.3796207.401753-.7407212.8229647-1.0856903,1.2548985-.322854.4042443-.6130357.8345684-.9477891,1.2949083.0784269.4526497.210822.8994179.2195134,1.3485808.0105798.5446938.1725073,1.1150748-.1373324,1.636766-.0488718,1.4147783-.6092589,2.6683515-1.3012448,3.8559376-.6281432,1.0780512-1.3222906,2.1214679-2.0439681,3.1400448-.6369711.899014-1.3413569,1.7513746-2.0352768,2.6087179-1.1004565,1.3595814-2.2203888,2.7033899-3.325555,4.0592002-.7164673.8789693-1.4054499,1.7808046-2.1361601,2.6476015-.61365.7279344-.8695897,1.6123131-1.0591384,2.4931196-.3915429,1.8193469-1.2104179,3.4374617-2.2456665,4.9401433-.8502731,1.2342167-1.8105076,2.3967526-2.7721301,3.5492036-1.2226131,1.4652598-2.4924826,2.8912095-3.7483367,4.3285523-.8917276,1.0205507-1.7884152,2.0368808-2.6930433,3.0459928-.908132,1.0130481-1.52995,2.1507898-1.4425588,3.5502559.102931,1.6481364-.6280977,2.9525722-1.6148386,4.161716-1.1845259,1.4515232-2.388687,2.8870287-3.5731446,4.338586-.1708691.2093773-.2913876.4635992-.4144771.7075371-.6863889,1.3603209-1.3489107,2.7329735-2.053524,4.0837271-.679586,1.3028715-1.4775289,2.5394545-2.4585135,3.6331877-.8685886.9684026-1.9358951,1.6715485-3.2464455,1.9145194-.2700233.0500435-.5657794.0541275-.8347106.0020591-1.6364304-.3167791-3.2496536-.7166721-4.7633585-1.4437191-.1036136-.0497591-.2351897-.041227-.3858548-.0648324v-.7764876c.4095399-.1017252.7816296-.2391599,1.1641854-.2810581,1.3607191-.149027,2.7029861-.369678,3.9869619-.8470991.9997324-.8613079,1.6207086-1.9875312,2.2746073-3.0987722.8494085-1.4434916,1.5261504-2.9905513,2.5455862-4.3313508.6670495-.8773141,1.3298443-1.7644344,2.0718396-2.5765406.9418735-1.0308233,1.9563721-1.9958358,2.9508942-2.9777077.4865106-.4803277.8778488-1.0218362,1.1037783-1.4858506.3000335-1.3431316.1703686-2.5885026.6278929-3.7535469.3707246-.9440691.8786451-1.7986253,1.4325251-2.6451215.8407399-1.2850224,1.7576315-2.5040691,2.7666468-3.6588237,1.2151731-1.3907122,2.452962-2.7636093,3.6187855-4.194866,1.0205962-1.2529873,2.0519314-2.508284,2.7348392-3.9999648.3188041-.6963316.5282382-1.4187429.6336265-2.1724271.2185123-1.5619795.726319-3.0156641,1.7078269-4.260199.9318625-1.1816022,1.9034959-2.3332682,2.8902823-3.4697642,1.0916058-1.2572306,2.2546081-2.4535535,3.3230522-3.729549,1.0464427-1.2497622,2.2887592-2.3327734,3.1818292-3.7099992.4966126-.765851.9792554-1.5431748,1.4215812-2.3411746.5035748-.9084789.4911521-1.9070623.2245189-2.8629114-.253619-.9091217-.3072687-1.8166792-.2421291-2.7345889.0269159-.3792794.2107538-.7513237.3459247-1.1182885.4120426-1.1185388,1.1854815-2.0033213,1.9827192-2.8415556,1.4335944-1.5072974,2.9250249-2.960143,4.4095843-4.4181505.7708678-.7571084,1.5852152-1.469742,2.368665-2.2143253,1.7945583-1.7055033,3.2066291-3.7091005,4.4600487-5.8268512.2869737-.4848952.4394818-1.0493635.6892556-1.6643133Z" stroke-width="0"/>
      <path d="m179.1268579,104.4626439c.5509904-.7749632,1.3359191-1.0139867,2.237453-1.0519942.7889786-.0332637,1.5754545-.1256264,2.4362163-.1980353-1.5204396-1.1320138-3.0618795-2.0408056-4.6662066-2.8373607-2.4230428-1.2030234-4.960279-2.1049668-7.5908902-2.7332693-1.1489869-.2744259-2.304936-.5294782-3.4689167-.7277296-.7833588-.133419-1.6010735-.0796669-2.3771288-.2383067-1.241998-.2538692-2.5167592-.0058473-3.7486552-.3192932-.2047472-.0520798-.4330429-.0130029-.6504404-.0138333-2.6090194-.0099882-5.2206098.0449584-7.8258751-.0589624-1.1442317-.0456409-2.3195202-.016757-3.4455274-.3992331-.7789676-.2645969-1.4301361-.6448092-1.8555343-1.4066103v-1.1683149c.1376282-.2225849.3127747-.5058842.5174537-.8369289-.2156455-.3028092-.4633034-.6439105-.7040673-.9898238-.9947497-1.4292146-1.8366499-2.9500865-2.6014884-4.5089888-.7147154-1.4566652-1.5719506-2.8220484-2.478672-4.1593554-.7718007-1.1382479-1.5891286-2.2456893-2.3584948-3.3855298-.782335-1.1590548-1.6918321-2.1876939-2.8460065-2.9885036-.9886521-.6859566-2.106423-1.0467954-3.2543633-1.3669304-1.3544394-.3776982-2.7281955-.4241013-4.1085042-.3501111-1.1559264.0619429-2.2648011.4065139-3.3467145.7973514-.7118031.2571342-1.3883175.6124897-2.0782102.9291436-.1940764.0890749-.3752751.2705352-.569852.2819568-.5453479.032001-.7124174.4261718-.8901805.8209796-.2365775.5254738-.4484462,1.0621758-.6892556,1.5856247-.7076622,1.5383684-1.7870046,2.8407962-2.7472391,4.2129824-.8973474,1.2823149-1.8508246,2.5338233-3.0052493,3.61411-.6861841.6421131-1.3918896,1.1974719-2.397219,1.1886782-.1374689-.0011945-.2758934.1095633-.4720402.1933142-.1108716-.1007468-.2198774-.1998213-.2877473-.2615026.0449811-.1656589.0452769-.2349849.0786999-.2793631.4052397-.5381354.8347788-1.0590247,1.2206564-1.6105043,1.26045-1.8013044,2.5206726-3.6031548,3.7517267-5.4245493,1.0415737-1.541019,1.9566679-3.144527,2.4538493-4.9662969.253983-.9306567.6527838-1.8213491.9769347-2.733383.405763-1.1416038.6311465-2.3277906.860102-3.5136248.167206-.8658868.4195736-1.7164955.3809631-2.6139566-.0249819-.5810461.0258465-1.1644812-.1917329-1.7277692-.4734736-1.2256847-.0550376-2.2812851.7108475-3.221839.8329359-1.0229226,1.5618487-2.1110701,2.2926726-3.2070557.8956865-1.3432624,1.1015486-2.8091308.8708866-4.31419-.1842019-1.2021987-.8786223-2.2024487-1.9510936-2.8561426-.6785621-.4135955-1.3530516-.2168571-1.9928666.1433503-1.0653043.5997484-1.9067267,1.4317003-2.5557792,2.4665166-.5509222.8783778-1.1121511,1.7503906-1.6784993,2.6188996-.1163321.1783944-.2756204.3287752-.4291523.5085007h-.9818491c-.1337375-.3384278-.2765532-.6998354-.4338165-1.0977944.0461187-.0883014.1504149-.1950718.1500964-.3015351-.0039816-1.3578068.7169906-2.4382128,1.3643822-3.5369913.7455446-1.265393,1.7959235-2.2363722,3.0197879-3.0471475.7575578-.5018627,1.5935425-.7644915,2.4552144-.9058511.9047646-.1484298,1.7828182.1628774,2.5127775.6627436,1.5867851,1.0866004,2.3803141,2.6857797,2.8162466,4.5359786.4388903,1.8626273-.2714339,3.4042549-1.1530823,4.9175219-.5413435.9291607-1.2041611,1.7745307-1.9548477,2.5550967-.6216361.6463848-.9361627,1.4970788-1.3544167,2.2761716-.0721928.1344315-.1264113.2785156-.2113226.4681837,0,1.7761973.0239126,3.60791-.0087824,5.4386045-.0203177,1.1366552-.1290733,2.2716325-.1923927,3.4076791-.0194076.3486208-.3738189.6705988-.0735352,1.056101.3879025-.1516208.7859526-.2918768,1.1714434-.4608234,1.0356809-.4539181,2.1274915-.6661394,3.2333857-.8776554.8643112-.1653176,1.7186797-.1806412,2.5722518-.1315761,1.4884272.0855483,2.9580384.3504979,4.3393255.9318284,1.0641212.4478433,2.1222357.9285976,3.1267689,1.4945931,1.2986283.7316999,2.3792448,1.7425923,3.2416675,2.965649,1.1258024,1.5965572,2.2319242,3.2069704,3.3509237,4.8083169.9483579,1.3572038,1.6129501,2.8668475,2.3394967,4.3427497.8225381,1.6708545,1.7620682,3.2726447,2.8011391,4.8168149.2044969.30389.3918387.6288371.6452074.8870862.18245.185988.4479911.3498722.6999719.3964005.5996119.110735,1.2116693.1770805,1.8213149.2058848,1.7569717.0829432,3.5233627.0570284,5.2702097.2320271,1.2644544.1266843,2.5335731.033514,3.7815321.1885135,1.0475803.1301085,2.1094035-.0023435,3.1269281.1910049.7839959.1489588,1.5737026.1034202,2.3590181.2707855.8251546.175886,1.6811613.2611044,2.5219467.4093579,2.2432093.39557,4.4308349.9996186,6.5688152,1.7675173,2.5668596.9219312,4.945308,2.2040186,7.1040156,3.8890819.90547.706809,1.7566531,1.4543444,2.3916675,2.4188336.1641572.249296.2791469.5309571.4180947.8004116.9823269.2147354,1.9593071.4152393,2.9295526.6442518.885357.2089791,1.7389292.5091719,2.5694306.8914432,1.9681577.9058909,3.8667847,1.9444499,5.7207263,3.0560208,1.2689821.7608569,2.3543766,1.7524895,3.2704263,2.947197.8216508,1.0716294,1.5999359,2.1690939,2.2615703,3.3376591.8096149,1.4299541,1.3070238,2.9956933,1.6935612,4.5884509.2781458,1.1461543.5316055,2.3008406.729163,3.4631035.133055.7829834.1618365,1.5849763.2147127,2.3799615.069326,1.0423245.2250649,2.0942391.1477984,3.1273945-.117629,1.572326-.0266656,3.1547313-.1978533,4.7115972-.1358535,1.2357639-.0277122,2.4696621-.1680251,3.6903526-.1912779,1.6644498-.0346971,3.3379208-.1931663,4.9928601-.1034998,1.0806848-.2973715,2.1650554-.4681041,3.2433171-.2853811,1.8026809-.7213363,3.5731218-1.0114725,5.3734023-.2211515,1.372152-.6092816,2.7165123-.8745042,4.0826691-.2959836,1.5245009-.3142309,3.0807752-.1809256,4.6137058.1363995,1.5687312.4653738,3.1211491.7235432,4.67847.0440028.2654274.0987674.5588058.2457922.772324.6890054,1.0006766.8788726,2.1796168,1.2358776,3.2990941.3981865,1.2485961.4723815,2.5604662.7488437,3.8324061.1667055.7671137.382351,1.5234429.559022,2.2885544.2031773.8797827.3506344,1.7438664.2251787,2.6780724-.105593.7864759-.2206282,1.5618487-.4181175,2.3285301-.2624241,1.018685-.7680466,1.922221-1.4058367,2.7363863-.2457922.3137531-.6063921.6070519-1.0827552.6244801-.1453184.0053013-.2879748.0832959-.474543.1412913-.3890857-.1052973-.8252229-.2233358-1.1775865-.3186903-.6788124.1936441-1.2860463.3668795-1.8140115.5174992-.7096644-.1161046-1.3349408-.2183985-2.0150045-.3296569-.1559437.1642483-.341306.3729088-.5407292.5671673-.702816.6846369-1.750419.9235125-2.771584.7636326-.6371986-.0997912-1.3003119-.0209093-1.948204-.069781-.4819374-.0363808-.9748642-.0956276-1.4332759-.2391941-.9163-.2869737-1.463104-.9570947-1.7342194-1.8683665-.3010801-1.0120186-.6322841-2.0156871-.9039228-3.0353732-.0676196-.2537782-.1739407-.4399596-.3274499-.6368118-.8096604-1.0383657-1.5696982-2.1176398-2.4168087-3.1239248-.8354841-.9924972-1.7638656-1.9062262-2.6331368-2.8710112-.5345633-.5933095-1.0694224-1.1920114-1.5428961-1.8335101-.9145708-1.2391085-1.3772372-2.6958191-1.8643849-4.1326671-.1641572-.4841785-.3123879-.9913823-.3506799-1.4969366-.0805201-1.0631314.192734-2.0603611.8350291-2.9211571.1749645-.2344957.4762721-.3746949.6868212-.5334712.5807048-.087596,1.0909915-.0689733,1.5390054.3812589.1776038.5050196.4305629,1.0410618.0918507,1.6221306-.184839,2.3944546-.0802698,4.7421193,1.3350546,6.8111832.5185685.7580811,1.1188857,1.468155,1.7406811,2.1462166,1.6645522,1.8151946,3.0523464,3.8297668,4.3351163,5.9202177.2161461.3522953.3920662.7342823.4267406,1.1929215.0600659.7947349.523301,1.4122528,1.108215,1.934621.5082618.241674.9925882.2649268,1.5731338.1376509.8060655-.176762,1.6394565.0301239,2.4310971.2998515.084206.0287133.1814262.0192256.3339115.032968.3631936-.5563372.5095131-1.3053174,1.2331929-1.6798872h1.1701465c.5411842.3105905,1.0937673.6277337,1.6839598.9664459.3109318-.3923847.6075524-.7667042.8548918-1.0788418.7411762-.2272946,1.2160605.0932158,1.6768156.5195014.9281312-.5986791,1.2405646-1.5526795,1.5027611-2.5199672.1184025-.4368198.1459555-.9000777.195487-1.3534383.1130785-1.0359084-.289795-1.9813995-.5769052-2.9353545-.4528829-1.5047861-.9718837-2.99021-1.488268-4.4749969-.1277537-.3673118-.3446278-.7053642-.5350639-1.0488203-.7548275-1.3613675-1.2800852-2.8151204-1.6614124-4.3151968-.2978493-1.171705-.5096269-2.3656048-.7456584-3.5524173-.0417731-.2099916-.0067347-.4342033-.0212051-.6509068-.0304652-.4554539-.0052785-.9036043-.1379922-1.3659521-.1124415-.3916339.0075992-.8521274.0373136-1.2812911.0103295-.1488336.0754236-.2937994.0863447-.4426671.0742405-1.0112678.0894845-2.0298845.2223347-3.0330752.1710739-1.291996.4244654-2.5735942.6609746-3.8562504.1923017-1.0429616.4074694-2.0817937.6208397-3.1207509.2010613-.9790051.4113146-1.9561559.6206805-2.9334319.2282957-1.0654863.4659426-2.1289704.6889599-3.1955488.2420153-1.1574053.4791389-2.3159367.7034758-3.4768572.0922147-.4771822.1649308-.9599956.2123009-1.443594.0836827-.8545164.0934434-1.7187821.2207648-2.5659495.1892074-1.2587778.2342341-2.5253368.1367863-3.780531-.0799513-1.0294809-.0636379-2.0738304-.3146632-3.0925381-.1231805-.4997979-.1327364-1.0268417-.2065901-1.5396994-.1256832-.8730253-.2126195-1.7555041-.4045799-2.6141728-.2830603-1.2662064-.5905793-2.5314799-1.0912418-3.7357888-.67995-1.6356341-1.478348-3.2020787-2.523107-4.6467534-1.0197771-1.4101141-2.3808829-2.3624309-3.8852822-3.1583944-1.1043926-.5843224-2.1879896-1.2105658-3.3102427-1.7578817-1.7226386-.8400915-3.5474573-1.4100345-5.4311588-1.7345835-.7855203-.1353529-1.611403-.0316483-2.4187199-.0464942-1.4144598-.025983-2.8079875.0780629-4.1636556.5348591-.2495691.0840922-.551764.0120132-.9336145.0120132-.2179662-.1538505-.5134493-.3624314-.8057697-.5687599v-1.3394685Z" stroke-width="0"/>
      <path d="m82.8100478,114.6021465c-.8603637,0-1.6679764.0184065-2.4744969-.0035949-2.0995518-.057256-4.2022889-.0782562-6.2964825-.2206282-1.2369925-.0841036-2.4605043-.3693595-3.6894198-.5682366-.6581192-.1065031-1.3146458-.2226759-1.9721963-.3326943-.9274827-.1551929-1.8569449-.2991575-2.7824027-.4654535-1.1620922-.2087857-2.3216475-.4318598-3.4810664-.6551273-1.070196-.2060896-2.149618-.3770384-3.2058783-.6400995-2.5495224-.6349461-5.1002165-1.2713484-7.6270663-1.9893856-2.2117316-.6284731-4.396024-1.3452817-6.476919-2.3589498-1.250166-.6089972-2.5908745-1.0046582-3.9447679-1.344747-1.3759858-.3456403-2.7400949-.7384573-4.1103472-1.1070773-1.4002965-.3766857-2.8060764-.733759-4.2014698-1.1276681-1.4033681-.3961843-2.736557-.9765593-4.0609749-1.5842141-1.1566431-.5306841-2.3600874-.9605303-3.5100641-1.5042628-1.2652508-.5982468-2.49304-1.275694-3.8105412-1.9565655-1.8482194,1.6323464-3.9629924,2.8342891-6.754314,2.916436-.1813124-.0289863-.5713878-.0913615-1.0209488-.1632585-.2976331.2361453-.6180981.4658061-.9100887.7272974-.5750736.514985-1.1262575,1.0566698-1.7020933,1.5707789-.7870902.7026908-1.7694285,1.0686261-2.6926111,1.5385618-.4902534.2495577-.980484.4638608-1.5231926.584129-1.2775483.2831058-2.3429777-.0967879-3.2675937-.9667189-.3521531-.3313178-.5292564-.7413582-.5125392-1.2361393.0146581-.4339075.0030545-.8687024.0030545-1.3620842-.2999197-.0250616-.5985539-.0500207-.9487219-.0792687-1.4453118-.5114585-1.4375647-1.7138107-1.2550578-2.9722699-.2029782-.2286256-.3865829-.4354319-.5818481-.6553776v-1.5869443c.6499739-1.2871156,1.4724154-2.4570232,2.4833589-3.4993023.4493278-.4632579.8382372-.9849548,1.2853068-1.4506131,1.2617128-1.314168,2.6731693-2.4233955,4.3784479-3.1198863.8702382-.3554351,1.7203633-.7654187,2.6049809-1.079058,1.2803127-.4539408,2.5798397-.8553696,3.8785135-1.2552967.9235352-.2844027,1.8545673-.5476117,2.7908665-.7864872.7898659-.201505,1.5908464-.3605202,2.3892558-.5271234.8883603-.1853964,1.7753099-.3829994,2.6705073-.528261.6931463-.1124756,1.3980213-.1529063,2.097743-.2246895.3623973-.0371885.7327351.0563914,1.0876015-.1456483.1409955-.0802698.3850585-.0668346.5480895-.0054605.5995209.2256565,1.2302578.0591558,1.8264114.1727576.9624529.1833715,1.9550297.0546963,2.9063454.331898.2305027.0671645.4959642.0033787.7423024.0291115.8465303.0884151,1.6951084.1494593,2.5316619.3337978.5336191.1175948,1.0901497.1269232,1.6302418.2204348.7758165.1343405,1.5581173.256736,2.3161984.4630304,1.7761518.4833367,3.5300405,1.0500944,5.3112888,1.5124763,1.2869564.3340822,2.6035134.5540278,3.9066124.8260989.8581453.1791737,1.7134922.3729088,2.5746522.5360536.4780127.0905538.9636929.1555683,1.4488953.1902085,1.1349716.0810548,2.2747439.105138,3.4068714.2124716.9690169.0918621,1.9455534.1157178,2.90473.3334679.5622186.1276399,1.1529231.1236014,1.7251641.2144169,1.7088052.2711609,3.3921848.6276313,4.9453308,1.446347.3709066.1955212.6235017.463565.9206798.8515131-.5073744.1529973-.9064028.3060287-1.3732214.3159828-.7952241.0169504-1.5879796.1394825-2.3833402.161791-1.3506171.0378824-2.6867296-.1347386-4.0214088-.3334792-.5415028-.0806566-1.0934033-.1208825-1.6369651-.1748167-1.4268256-.141587-2.8163717-.4344081-4.2105707-.7439178-.8884399-.197239-1.8056728-.2607859-2.7036118-.4202562-.9533861-.1693106-1.9019033-.3689954-2.8477698-.5771327-1.6230749-.3571757-3.2427255-.7300049-4.8632749-1.0986135-1.208393-.2748809-2.4108476-.5789757-3.6254861-.8223902-.9817013-.196727-1.9865074-.2812515-2.9645228-.4922328-.8079995-.1743047-1.649786-.0540138-2.4393789-.3339343-.0836258-.0296461-.1849869-.0110803-.2781458-.0116605-1.1966414-.0075082-2.3741938-.1866933-3.5552841-.359303-.786783-.1150011-1.5865689-.1639866-2.3822481-.1895146-1.0415396-.0334344-2.0656737.1377533-3.0893187.3277343-.6595413.1224183-1.346078.1012246-2.0043451.2282047-1.0084692.1945542-2.0290654.0959916-3.0350319.1978874-2.4486959.2480105-4.8682007.6957059-7.1361644,1.6848813-.885084.3860369-1.7087825.9487105-2.4912767,1.5248649-.9645006.7101877-1.9044515,1.4548677-2.7613569,2.3083716-1.2427943,1.2378798-2.3655593,2.5553242-3.2390397,4.1181171.1629628.0940804.3301176.1697884.4736044.2771106.5339775.3994493.660639.8473836.4566768,1.5219754-.0760379.251503-.1360071.507875-.2220161.8327311.4912374-.0733759.9265613-.1384017,1.3552813-.2024378.2387049.2264869.4404033.4178786.6215223.5897375.2203666.5433912-.0326722.9989474-.2025061,1.4400902-.2253038.5852211-.3669591,1.1649931-.2683851,1.819472.4359893.4398572.9123639.498922,1.5616211.3512601,1.6439045-.3739213,2.9500638-1.2771729,4.1553169-2.3774474.4812435-.4393225.9355484-.9097588,1.3830049-1.3840515.4488785-.4757944.9271642-.9007944,1.7272118-1.1584291.3225582,0,.8178512-.0036745,1.3130532.0007736,1.0134178.0091009,1.9261458-.3342187,2.7310509-.9030696.5945382-.4201538,1.1909648-.8530716,1.5967961-1.5113274.1959762-.3178826.6059939-.5038023.8294662-.679165.4604707-.0883014.8160196-.1941788,1.1764716-.2149971.3581654-.0206931.7326783-.0033332,1.0800705.0802471,1.105917.2661213,2.0777779.8389197,3.0624938,1.3860195.5825591.3236503,1.2011009.583856,1.8093245.859647.5251439.2381247,1.0701391.4346128,1.5864324.6898131,2.6950342,1.3321423,5.4649914,2.4791384,8.2867668,3.5177771,1.1410805.4200059,2.3128993.6990846,3.4723409,1.0305048.7542701.2156114,1.5508821.2992827,2.3344229.3925895,1.2478453.1485947,2.4182193.5813419,3.5667853,1.0300383,1.6387056.6402246,3.2128974,1.4434006,4.8363249,2.1253983,2.6212942,1.1012073,5.2809032,2.1108938,8.0461393,2.7887278,1.1762668.2883275,2.3971963.3909741,3.593724.6013525.8337777.1466153,1.6581588.3463797,2.491345.4969539.5686461.102749,1.1491917.1399716,1.7175421.2440061,1.9049293.3486777,3.8245907.1298469,5.7371306.1621892,1.1675414.0197375,2.3149356.1509041,3.4616587.3664131.6890964.129517,1.4007061.1346931,2.0994608.2185578.7543611.0905311,1.5052298.2913421,2.2581461.2939586,1.1744239.004084,2.2632881.5628671,3.4134923.4421893,1.2398252.4964306,2.2818084,1.2205199,3.2331355,2.1154783.6185531.5819107,1.3212098,1.0744848,2.1071738,1.4474164,1.742706.8268724,3.3463277,1.8895943,4.8999401,3.0264771.9186321.672237,1.4782456,1.629764,1.5524634,2.5916595-.2235974.4846677-.7135891.523847-1.1734569.6925888-.9601435-.2862684-1.9002651-.6636139-2.7954852-1.2145361-1.0866572-.6687104-2.2573498-1.2011691-3.393459-1.7891547-.9283928-.4804699-1.7717606-1.0601737-2.5772232-1.7454704-.9497685-.8080905-1.7280081-1.7545941-2.5661429-2.6550585-.1024305-.1100411-.1738724-.248932-.2889645-.417287Z" stroke-width="0"/>
      <path d="m75.0927462,24.516702c-.2733338-.0580238-.5392844-.1144835-.8150413-.1730192-.3698259-.2984607-.751574-.6065457-1.1005588-.888184h-1.3411863c-1.0991254.3739298-1.8979785,1.1488447-2.7458512,1.8442605-.3829084.3140602-.7208585.6836586-1.0723233,1.0349471-.1304498.1303759-.329964.2712519-.3456744.4230945-.0696673.6736818-.6056185.8774051-1.0915717,1.1698109h-1.2824628c-.3193729-.3194923-.678437-.6786929-.9975254-.9979008,0-.4633489,0-.8357515.0001024-1.2081654,1.1217412-2.6625781,5.4368128-5.3212173,9.0135295-4.3246304.0659018-.0574124.1682071-.1043616.2004698-.1808574.7058079-1.673343,2.0538653-2.7593433,3.5332031-3.6468475,1.9826623-1.1894489,3.9740045-2.3737046,6.0769464-3.3538075,1.2966602-.6043245,2.6511338-1.0256358,4.0293038-1.3748567,1.3178653-.3339428,2.6405654-.6592995,3.9756996-.9113059,1.0464427-.1975148,2.1280489-.2136831,3.1705555-.4258106,1.2307925-.2504422,2.4610504-.1573259,3.6900227-.1452359,1.1123445.010941,2.1345674.3567661,3.0716857,1.0041691.4581614.3165402.6795177.7621424,1.0024172,1.2186883.0912364,0,.2340293.0430443.3271086-.0067773.7785808-.4168121,1.6591599-.3544312,2.4879776-.5018343.549102-.097661,1.162479.0333263,1.7227068.1653802.6451619.1520758,1.2654555.4123868,1.8929389.6358391,1.090309.3882723,1.8829734,1.1857346,2.5689983,2.0527903.682976.8632276,1.0187532,1.9253267,1.3106869,2.9839646.1925975.6984845.3677441,1.4017897.5609331,2.1001092.4581841,1.656168,1.4095453,2.7993844,3.1899518,3.1182254,1.4976419.2681974,2.9744428.6465327,4.514563.6457136,1.0200729-.0005404,1.9878156-.3028491,2.9870475-.419932.8981437-.1052318,1.7796329-.3491043,2.6705414-.5210514.5061913-.097698,1.0165918-.1737871,1.3877259-.236424.6800182.2140898,1.060367.5407804,1.2085295,1.0258263.1006558.5592609.1916419,1.06469.2727991,1.5154796.8032898.1687646,1.5526795.2847269,2.2777244.4875971,1.3126664.367289,1.9646084,1.2754893,2.2150875,2.6152478.2320954,1.2411448-.0132873,2.4226276-.1837697,3.6187116-.117629.8254789.1096884,1.479059.7989668,1.9135069.6195201.3904735,1.1164285.8945603,1.4468362,1.5179482.5645507,1.0650313.874982,2.19907.5895099,3.4270697-.0823403.3541951-.100269.7229801-.1739407,1.0796609-.1607217.7781031-.4754986,1.5003096-.8211957,2.2122208-.1968977.4054843-.3576876.8284992-.538727,1.2529646.5739019.570108,1.1404776,1.1274918,1.7009102,1.6910073.8308427.8354443,1.1520357,1.9229718,1.4266095,3.015283.3506572,1.3949156.2323684,2.825831.1764434,4.2408482-.0260513.6583468-.192461,1.3214999-.3703833,1.961588-.6046174,2.1753906-1.4254719,4.2589874-2.7702871,6.0999432-.6634091.9081718-1.4267687,1.7021502-2.5830364,1.9466626-.6222504.1315818-1.2554446.2264528-1.8885932.2835722-.2223802.0200675-.45939-.1219405-.6706216-.18431-.3113641-.7936371.1735084-1.4004103.4130437-2.0312496.3227857-.8501878.7739166-1.6506506,1.139795-2.4856683.826497-1.8862725,1.5229879-3.8109451,1.9398767-5.8414382.2046334-.9965926.3679261-1.9771107.351408-2.9936001-.0124455-.7693946-.0936481-1.5194613-.3589162-2.2470544-.0511242-.1401992-.0278032-.307519-.0366083-.4311374-.3183718-.4105012-.6630451-.7738313-.9088373-1.1948952-.2401269-.4113942-.3793477-.881711-.5501031-1.2952666.017451-.0985.0354024-.1574908.0373591-.217005.0326949-1.0005742.6134908-1.7876416,1.1203191-2.5595845.6736931-1.0260851,1.0321771-2.0763331.8388287-3.2814157-.1948045-1.0633476-1.126121-1.4980344-1.8329186-2.1091817-1.1256432-.9733228-1.5064243-2.105456-1.1802485-3.5829849.1948727-.8826665.5524693-1.7594232.4424851-2.699158-.0139471-.1191534-.0298509-.2380735-.0455272-.3624257-.4727683-.3032359-.9705185-.3831018-1.4980742-.378011-.7442705.007184-1.4387364-.1731842-2.1061044-.521094-1.382948-.7209438-1.8534183-1.8010939-1.4146191-3.3438364.0138333-.048593-.0255735-.1123277-.0536497-.221362-1.0130879.2621738-2.021944.5430727-3.0411068.779599-.618974.1436461-1.2517814.2919508-1.8820178.310016-1.5206671.0435932-3.0486832.0894845-4.5639581-.0116833-1.4527518-.0970041-2.8838662-.3623063-4.139652-1.2389264-1.401309-.9782031-2.2563146-2.3007667-2.6863542-3.9194504-.2171016-.8171515-.4083113-1.6445274-.5494888-2.477742-.2320271-1.3693962-1.1174751-2.1119347-2.3262549-2.5941764-1.1233224-.4481476-2.2548357-.4416035-3.4046644-.13041-.3781646.102348-.7632003.1793785-1.1797479.2760356-.7300959-.053809-1.1746059-.498703-1.3284792-1.179711-.8001272-.1403584-1.5452623-.2748354-2.2920697-.3993441-.1804365-.0300813-.3695415-.0554415-.5492726-.0351579-2.2634588.2554249-4.5274294.5372026-6.7311977,1.1211894-1.7806908.4718696-3.5419285,1.0186537-5.2260931,1.7973995-1.0979423.5076816-2.2569402.8815574-3.3702744,1.3581481-1.5133978.6478523-3.0113127,1.3463908-4.3318059,2.3385297-.5311277.3990597-.9779585.944399-1.3652581,1.4923492-.5094335.7207447-1.0214494,1.3856157-2.0355953,1.5085231Z" stroke-width="0"/>
      <path d="m159.1407649,165.2715373c1.1007067-1.2191548,1.4420127-1.3156469,2.4389921-.7774887-.0456182,1.357238.3384165,2.6504967.6543993,3.9463606.4972952,2.0394632,1.2472083,3.9873259,2.2458485,5.843429.4147046.7707768.6390188,1.6438021,1.0515392,2.4160351.487216.9120453,1.0836426,1.7657995,1.6342007,2.6438758.5344268.8524345,1.0603443,1.7104206,1.6083997,2.5540046.9585509,1.4754585,2.0268129,2.8463933,3.6556214,3.6528456.7338045.3633074,1.4705213.7206765,2.2039617,1.0846892.4353637.216055.8448125.0937619,1.2189045-.1285728.3142764-.1867729.5903518-.4379119.8828315-.6612477.5235285-.3997792,1.072494-.7234522,2.0662198-.5173627.480231.1312348,1.0173426.6822252,1.5508138,1.2478681.5152694-.1956236.6424771-.6598825.9152079-1.1531733.2394898-.0478934.5637544-.1802886.8757328-.1558299.3036511.0237988.4668527.3384392.66507.5722637.6976057.8229477,1.4255629,1.6201853,2.0818051,2.3593821.5776105.0603161.7726425-.2403544.9529993-.5827753.4198922-.7971467.7702308-1.6000269.3697008-2.5158263-.0310113-1.3472725-.5970864-2.5305015-1.1761531-3.6986003-.5841404-1.17836-1.2888676-2.2837537-2.1381623-3.2989349-1.2380164-1.4798269-2.409619-3.0155333-3.1354602-4.8236064-.6417945-1.5986617-1.3318465-3.1815334-1.7717151-4.8560738-.3527049-1.3427221-.7732796-2.6689943-1.0832785-4.021022-.1627466-.7098464-.2009021-1.4588266-.2084103-2.1910157-.0091691-.893252-.0904856-1.7607372-.3402139-2.6240017-.1423834-.4920736-.1652721-1.0212787-.2183303-1.5362069-.2125512-2.062898-.2542333-4.1335317-.1731444-6.2026865.0344014-.8780649.2382385-1.7482234.3250382-2.6259357.0601341-.6084853.1037956-1.2169478.1749418-1.8257289.1554659-1.3301856.3173252-2.656526.5789984-3.9701935.0119449-.060009.0033446-.1239655.0057791-.1860335.0651623-1.6643474.1567855-3.3282056.1884794-4.99319.031307-1.6454289.0950133-3.2987642-.0245041-4.9362981-.1432935-1.9637438-.3352312-3.958897-1.3089805-5.7278932-.5715812-1.0383315-1.3027919-1.9906483-1.9853129-2.9654556-.5441648-.7772498-1.1200689-1.53243-1.6881462-2.2927295-.3659694-.4898666-.7107565-1.0010293-1.1220483-1.4504652-.9348431-1.02162-1.8971708-2.0239917-2.9400414-2.932829-1.9504793-1.6997953-4.1308469-2.9706886-6.697934-3.5551135-1.2444097-.2832992-2.4903666-.4555904-3.7368695-.3176778-1.7498957.1936327-3.4761291.5378283-4.9783442,1.5824963-.7739621.5382151-1.6022111.9988564-2.4112799,1.4856856-.1801065.1083688-.382715.1793671-.5894644.2742211-.2018349-.0890522-.3949557-.1742478-.57463-.2535166-.5808868-.7100853-.1504832-1.3177174.2580784-1.8248529.6969686-.8651644,1.5473327-1.5791176,2.5011512-2.1734282.9123639-.5684528,1.8839745-.9785842,2.9177442-1.238642.5572245-.1401537,1.1300798-.2388186,1.7018658-.2944023.523483-.0508853,1.0559986.0004664,1.5828262-.0265632,1.7086232-.0876415,3.3214141.3666975,4.9273565.8550283,1.5562061.4732234,3.0103003,1.1844804,4.2974159,2.1657494,1.6640971,1.2686522,3.243829,2.6277331,4.6055037,4.2508421,1.3633583,1.6251339,2.5954136,3.3323693,3.7376659,5.1096131,1.0352486,1.6107659,2.0649457,3.2284485,2.5390336,5.1225478.2216066.8854025.3923847,1.7745022.4919712,2.6840107.1364678,1.2462299.0904628,2.5083067.3400319,3.7442299.036267.1795264.0109893.3717257.0120132.5580777.0054378.9938851.0375184,1.9885665.0087596,2.9814732-.0445716,1.5402227-.025892,3.0939715-.238921,4.6132394-.1270029.9056065.0214553,1.7553563.0378142,2.6307933.0249592,1.3352366-.0879828,2.6829982.0559932,4.0038213.2460652,2.2573839.0996547,4.5116394.1425881,6.7665547.0240491,1.2632144-.2354399,2.4850653-.6128992,3.679534-.1739179.550251-.2072272,1.0683758-.0021615,1.6116988.4376844,1.1596236.8595787,2.3252083,1.2880712,3.4883016.4601408,1.2490853.9415095,2.4908216,1.3761678,3.7487234.8167591,2.3635458,1.8710968,4.6097583,3.1189648,6.7782948.7841324,1.3626075,1.6463959,2.7060576,1.9625834,4.290977.1656361.8301601.3477904,1.6570212.5139726,2.4870675.1187211.5929455.2545063,1.1849127.3274727,1.784024.1393573,1.1443455.0839102,2.2636863-.6776748,3.3255095-.2430392.1340788-.5627761.3104312-.7737574.4268088-1.4554138.3054713-2.5511378-.2463382-3.5669332-1.1112638-.161518.300352-.2882251.535974-.4389585.8162585-.2396263.1628149-.5172261.3514307-.7628136.5182727-1.2095306.2156228-2.1814825-.2804211-3.1098185-.9296328-.2995557.1354439-.5751988.2600578-.7781031.3517948-.9534089.2150084-1.7893026-.0325584-2.5769615-.3575511-1.3475455-.5558594-2.6517708-1.2158784-3.9897832-1.7961965-.4103817-.1779906-.7334632-.4363648-1.0505608-.7308467-.4965899-.4611192-1.0271033-.8873137-1.5050591-1.3663844-.4336345-.4346811-.8795324-.8795552-1.2089163-1.3914346-.8018336-1.2461161-1.8444539-2.2935599-2.7415966-3.4593608-1.119227-1.4544127-2.1871251-2.9429992-3.0388543-4.5732638-.7200849-1.3783065-1.146962-2.8577239-1.5149108-4.3640571-.2792152-1.1430714-.4293116-2.2883269-.3678806-3.45828.0300784-.5734582.1201545-1.1437653.1684574-1.5827579Z" stroke-width="0"/>
      <path d="m90.6879686,105.3928114c-.2135182-.0478365-.4188797-.0938529-.6281773-.1407452-1.7184067,1.1156891-3.4514089,2.1465124-5.6424018,1.8705052-.8813185-.4354774-1.078785-.6378584-1.6211751-1.7146525-1.2281078.2633569-2.4802077.6089972-3.8594926.3815547-1.1778481-.5727757-.9395187-.4037836-1.411138-1.2400072.0263698-.5301949-.1195629-1.0921633.1665121-1.6797734-1.072312.0426149-2.019828.7516195-3.2676961.4854185.0690985.0332296-.0136741-.0037314-.0938984-.0455613-1.1122535-.5801701-1.0052498-1.2686636-.6134908-2.1216101.0879487-.1914713.2109699-.3812816.3611004-.5274305.9968087-.9703252,1.9875654-1.9481813,3.0168643-2.8833429.6114203-.555484,1.2566732-1.0872147,1.9444158-1.5424524,1.5038419-.9954095,3.1392484-1.7159153,4.8988594-2.1409722.9389498-.2268282,1.8696406-.4917095,2.8147336-.688027.8616606-.1789803,1.7405787-.2730949,2.6066418-.4330657.9222611-.1703458,1.8398921-.367016,2.7567382-.5650968,1.0927321-.236077,2.1782176-.5075451,3.2747493-.7235432,1.0704122-.2108562,2.1507215-.3715096,3.226981-.5524693.0606688-.0102157.1240451-.0035152.1860563-.006655,1.3222109-.0671532,2.6555363-.0520798,3.9630607-.2283526,1.0297881-.1388226,2.0838528-.0082363,3.0932093-.3156756.1142844-.0347995.2470663-.0088165.3712707-.0111372,3.7449011-.0698948,7.4898476-.1363427,11.2346122-.2125853.774622-.0157787,1.5162077.0991542,2.2422992.377482.9648305.3698487,1.9379883.7150567,2.8082151,1.4683712-.1738724.1468656-.3016489.3194525-.4715169.3884941-2.1728139.8830363-4.4481493,1.1256887-6.756703.8974384-.7346008-.0726251-1.4736611-.0569488-2.1992065-.1608013-1.9395354-.2775884-3.8905835-.0927153-5.8307105-.207523-.6373578-.0377346-1.2857733-.1926885-1.9184441-.1134539-1.1976994.1500054-2.4019742.0828181-3.5955555.1853964-1.1459836.0984943-2.2775424.3549915-3.4199767.5084324-.5130056.0689051-1.0279793.0924878-1.5447049.1780361-1.3158744.2178411-2.6262428.4434407-3.9276696.7433377-.8864264.204258-1.8071289.254529-2.7054661.4134419-2.3221481.4107685-4.6815757.6349234-6.917436,1.4727851-1.4713745.5513772-2.8283622,1.2766724-4.0082238,2.3171085-.8294434.7314155-1.6476586,1.4755609-2.3992326,2.3534779.4672509-.0836371.943068-.1357056,1.3994547-.2594435.4946218-.1341243.9681864-.3441159,1.4567107-.5032563.283504-.092374.5783727-.1498233.9075745-.2329372.2453713.3325009.4599133.6232287.6558099.8886902-.195396,1.0696158-1.048479,1.7321262-1.4705554,2.7266142.5543464-.0501686,1.0471025-.0056539,1.5760347-.123317,1.0936535-.2432667,2.2170897-.3526707,3.2546249-.5062368.5969158.5730487.6140027.6018189.836417,1.3916166,1.3628123-.3381434,2.730266-.6774359,4.1748725-1.0358629.7867716-.9183363,1.8747826-1.2544321,3.1445497-1.2344101,1.7993818.0283948,3.4916461.4881488,5.0946649,1.2390288,1.456449.682248,2.8921139,1.3879535,4.4478194,1.8341358,1.5086995.432713,3.0034746.9318056,4.5506936,1.1901912.7835636.1308366,1.5375038.3017058,2.2890777.5530267.9912458.3314543,1.909548.8054285,2.7785917,1.3605484,1.6263057,1.0388435,3.3696715,1.800326,5.2084374,2.3569135.3460157.1047512.7076394.1612791,1.0645762.226157,2.3777886.4321784,4.7835625.5013565,7.1797804.3402366,1.1385437-.0765612,2.2875078-.2654046,3.4259833-.4696057.9576635-.1717337,1.9156684-.3316932,2.8405915-.6187807,1.819745-.5648465,3.426279-1.4546743,4.4985-3.121752.7423821-1.1541858,1.5151611-2.2893508,2.2946065-3.4190211.685456-.99343,1.0409594-2.1248409,1.332074-3.2657735.3769815-1.4774834.5264863-2.9907675.6280294-4.5195458.0755374-1.1377815.0349474-2.2811031.1659547-3.4083048.084752-.729163.0928063-1.5002812.4681496-2.2149283.333957.1292326.3742285.4130324.4200287.6653431.0813392.4479684.1171739.9040138.1910504,1.3535521.1129648.6875379.245906,1.3717653.3612824,2.0589163.0254825.1517687.0171324.3098624.0174737.4650667.0027758,1.211146.0763792,2.4277866-.0149255,3.6318908-.0913501,1.2045365-.3224899,2.3990165-.6165623,3.5793218-.5305134,2.1295506-1.6901712,3.8942352-3.1049722,5.5194488-.6074159.6977764-1.221248,1.3901377-1.8402448,2.0776528-1.031995,1.1462112-2.3014777,1.856797-3.8332934,2.1036927-1.4065193.2267031-2.8050298.5047693-4.2139835.7139077-.8173506.1213034-1.6577265.09573-2.4710955.2341203-1.5987755.2720141-3.2053095.1229416-4.8074296.1784343-1.6926284.0586211-3.3527894-.131815-4.9954766-.5584532-1.6740626-.4347607-3.3129957-.9633061-4.870294-1.7127982-.6005448-.2890214-1.1480768-.6918153-1.7081227-1.0605149-.9008058-.5930479-1.8766483-.9700635-2.9403372-1.1639579-1.5471507-.281991-3.0945517-.574027-4.624115-.9366291-.7596055-.1800952-1.4956625-.4907426-2.2135404-.8076696-.8637424-.3813044-1.703504-.8192959-2.5408538-1.2572306-.5746641-.3005454-1.1519788-.5392617-1.8181865-.5451431-.3284055-.0028895-.6538532-.1282542-.9842381-.1572406-.9921445-.0870614-1.9280456.2217886-2.8755047.4415295-.2935832.0680746-.5844589.1478439-.8536859.2164305Z" stroke-width="0"/>
      <path d="m62.3384566,25.5333507c.1472637.1321449.2849829.2557178.4415295.39619-.0913957.1653574-.1379922.3731477-.2665763.4611931-.6024446.412492-1.2340006.7821416-1.8429182,1.1855839-.9673332.6409015-1.9695911,1.2410652-2.8698053,1.9667414-.5363494.4323604-.9264816,1.0564139-1.3452248,1.6217894-.5095018.687919-1.0022124,1.3906724-1.4597595,2.1138572-.3241053.5122605-.7269219.906636-1.3223247,1.1704593h-.9526808c-.6673453.3588423-.9543758,1.0285822-1.2194164,1.611312-.5880083,1.2928435-1.2156851,2.594003-1.463889,4.0089064-.1757836,1.0020986-.4809477,2.0298788.0322171,3.0131955-.115513.6018132-.503791,1.0264094-.8110938,1.5128916-.4803107.7603279-.8483278,1.6128876-1.1309786,2.4702025-.2348825.7124174-.3368011,1.4840816-.3867536,2.2368614-.0356982.5379932.0539,1.1031014.1892188,1.6300086.3615441,1.4078161.8172482,2.7862876,1.4600894,4.0976514.6291443,1.2834468,1.2471627,2.5725249,1.8544194,3.8664662.6256063,1.333041.527294,2.8600105-.2705239,4.4176443-1.555387,1.3814122-3.3978956,1.0141744-5.2200069.7700658-.3237527.4764485-.0017974.9399509.1337717,1.309373.490242,1.3359078.9944766,2.6780895,1.8430092,3.8513416.914696,1.2647331,2.0239007,2.3043217,3.3941529,3.062181.745374.4122588,1.4811693.841832,2.3136729,1.3162499.0874823.4343512.1884225.9355029.2893513,1.436666-.0387015.0182245-.0774144.0364491-.1161273.0546622.5972116.8459729,1.1968235,1.6902622,1.7904743,2.5387378.2444498.3493944.4970108.6956604.7097213,1.0642235.7747812,1.3424035,1.9633684,2.0720102,3.4559252,2.3309304.868691.1506766,1.7467787.2492619,2.622466.3563111.2397174.0293049.486067.0044481.8001158.0044481-.0649917-.9232394-.1513477-1.7983693-.1814944-2.6754331-.0309089-.8995885-.006837-1.8010882-.006837-2.7055229-.7023609-1.4191354-1.4326502-2.8250858-2.100314-4.2601705-.9835328-2.1140051-1.9985092-4.2196886-2.5958573-6.4877888-.2615026-.9929181-.4983418-1.9938165-.7012233-3.000204-.1557731-.7726994-.2458946-1.5589648-.3535126-2.3408049-.025164-.1828425-.0203746-.3742285.0011149-.5581289.0422054-.3613166.1153765-.7189814.1585374-1.0802127.0866291-.724897.2193996-1.413726,1.162115-1.6271816.7489688.1933426,1.0390027.7544066,1.0911053,1.5959315.1298128,2.0964575.3714072,4.1872155.9360717,6.21586.5178291,1.8603748.9523395,3.7447873,1.6318345,5.5616485.353797.9460485.7759188,1.8435552,1.3157265,2.6905918.360998.5664847.7520176,1.1149382,1.0913101,1.6939025.5170214.8821944.7943481,1.8375259.7853155,2.8710112-.0089757,1.0249646-.0057108,2.0501453.0027303,3.0751441.0227636,2.7664989.814336,5.3156686,2.5125386,7.4797457,1.0277745,1.3096972,2.3162211,2.4223716,3.5398467,3.5677182.6439219.6027062,1.3903083,1.0991823,2.1101088,1.6162264.339884.244154.7260687.423851,1.1432306.6624763.0047666.0490083.0162678.1675815.0293162.3020357-.6782777.6293718-1.4728875.5508539-2.2554045.3646498-1.2173687-.2896812-2.2106736-1.0011999-3.1193289-1.8243182-.6208739-.5624462-1.1896906-1.1819435-1.7913616-1.7660953-.6011704-.5836512-1.0694793-1.2662974-1.4433437-2.005187-.6728172-1.3297192-1.3398211-2.6643414-1.9447457-4.0255952-.2920816-.6572433-.4347038-1.3805249-.651578-2.0718396-.0523642-.1668989-.1308366-.3255956-.1814489-.449288-.4707661.4205178-.88811.854232-1.3662478,1.2051166-.611261.4485941-1.8624509.5896009-2.6073585.4843833-.7616077-.1075611-1.4800999-.2769741-2.1815963-.613741-1.2365488-.5936281-2.0349241-1.5201893-2.412645-2.8279867-.1173218-.4062294-.2291262-.8154849-.3751613-1.2116579-.2551434-.6921452-.5667236-1.3529492-1.1291015-1.8649537-.4799466-.4369336-.8592261-.9523964-1.1850037-1.5168448-.2259181-.3914064-.3431034-.7833702-.2895333-1.1009456.1682868-.4197443.2897836-.7228265.4161494-1.038013-.8826267-.3093391-1.6965531-.6210104-2.5267815-.8805108-2.322387-.7259208-3.9159636-2.3139345-5.1623187-4.3173013-.7246012-1.1646973-1.3502985-2.3717764-1.6954383-3.7167964-.2828442-1.1022482-.5511042-2.1852764-.1953164-3.3256118.1297559-.4158707-.1670013-.7582688-.2953238-1.0378253-.060646-.4727456-.1109171-.864516-.1859539-1.4493788.1991046-1.2062201.4570238-2.5975352,1.9859841-3.2806705h.7767038c-.0405786.2715591-.0125365.5352914-.1195401.721359-.450164.7827331-.5244272,1.6181831-.4338848,2.5510126.635185.0641954,1.3473635.0649178,1.6359299.8004799.0410791.6151915-.721632.9088373-.5024372,1.6259132.9113287.7748836,2.0085088,1.3153682,3.3929925,1.4746223.1704596-.0377232.4655559-.103022.8234482-.1822168.1038866-.1125268.2501151-.270905.4011557-.4345048v-1.8489361c-.576234-1.1735138-1.2095192-2.4871472-1.8649764-3.7896206-.4379005-.8701585-.9139679-1.7210288-1.3610148-2.5866995-.5872233-1.1371046-1.0436783-2.3417264-1.2063453-3.5991561-.2188081-1.6912746.0068825-3.3663497.7494011-4.9291426.3134345-.6596721.7011664-1.2840327,1.0656797-1.9435285,0-.6551842-.0093625-1.3380977.0016495-2.0206812.0440824-2.7343784.8580202-5.2203766,2.4954517-7.409885.5732535-.7665165,1.3130418-1.375946,2.1751574-1.6072848.5694766-1.0529043,1.060367-2.0681651,1.6484777-3.0235876.972134-1.5793622,2.2668375-2.8048136,4.0971964-3.3464074.4337255-.1283396.8820807-.2087516,1.3257148-.3016603.8469285-.177382,1.7056427-.2068802,2.5680085-.2085468.205225-.0003982.4103135-.0817373.7003701-.1441069Z" stroke-width="0"/>
      <path d="m194.9614904,19.7172784c0-.3359479-.0761744-.6378755.0149482-.875693.2303889-.6011534.1272076-1.2163278.1776038-1.8239997.0478934-.5776247.1108716-1.1539839.1619048-1.7313697.0510332-.577346.0109438-1.1499681.1531679-1.7357467.148572-.6119806.0762199-1.2708478.2042694-1.9115929.1539187-.7704441.1871597-1.5625113.3677668-2.3367408.1162638-.4983873.089712-1.0239692.1789462-1.5426458.2563037-1.4896843.2833561-3.0051469.2281137-4.5178877-.0030943-.0850478-.0527851-.1683948-.0833641-.2602598-1.5100646.2762233-2.7979083,1.0124509-4.0606336,1.7929315-2.2030516,1.361686-4.355161,2.8106097-6.5999857,4.0986013-2.7132701,1.5567749-5.532702,2.9089278-8.5499189,3.8039886-1.6816163.4988623-3.3638014.9807002-5.0949266,1.2909209-1.4020371.251247-2.8009799.516117-4.2056562.7555613-1.6404348.279639-3.2988439.4560255-4.9208494.8656849-.9097474.2297718-1.8666601.2675376-2.7981586.4176767-1.0777042.173699-2.1616653.3296512-3.223079.5779632-1.1742419.2746989-2.3422724.5973594-3.4841379.984369-2.1167752.7174456-4.0821799,1.750857-5.8844968,3.0748767-.7163308.526219-1.3949839,1.1058061-2.0711343,1.6840366-.6088266.5206475-1.2215893,1.0428137-1.778336,1.6169574-1.2398365,1.2786234-2.4006774,2.6257707-3.2826898,4.1872155-.1479349.2618439-.3018309.5262645-.402828.8074875-.2420608.6738808-.6561967,1.1672513-1.3485694,1.4114281h-.9330911c-.225338-.1518995-.4520638-.3047375-.690325-.4653454-.1319856-.257612-.2710244-.5289492-.3818732-.7452602-.223131-1.1985071.2660417-2.1655503.8300236-3.0785.6283935-1.0172687,1.3351228-1.9853044,2.2093312-2.8206207.353706-.3379813.6182232-.7699464.974887-1.1041224,2.0847173-1.9532152,4.3036955-3.7345573,6.8012063-5.1409401.954956-.5377657,1.9128016-1.0795927,2.9084841-1.5337241,1.4877447-.6785678,3.0352139-1.1776178,4.639632-1.5484163,1.4464267-.3342869,2.9110323-.5557826,4.360485-.8629688,1.3061365-.2768035,2.6475617-.3825103,3.9661664-.6064575,1.2219988-.2075514,2.4254318-.5489342,3.6533006-.6910986,1.4837403-.1717878,2.938335-.4847701,4.3851029-.8088356,2.5921145-.5806252,5.191851-1.1340615,7.7392574-1.9132367,2.0637398-.6312375,4.0705763-1.3883374,5.9859261-2.3703145,1.6569529-.8494881,3.1863342-1.9160125,4.724748-2.9622618,1.6644611-1.1319597,3.3688297-2.1955064,5.1645029-3.1136152.6981063-.356941,1.4667444-.3609369,2.1870113-.5853235,1.0726987.2244705,2.1361146.4125005,2.7764985,1.4995844.5196606.8821575.9391205,1.7666812.9714514,2.8091564.0111713.3606226.1484582.7195076.1432025,1.0779374-.0070987.484261-.0938074.9675949-.1507562,1.4508065-.0570171.4837406.0155853.9624899-.1416098,1.4600922-.1703913.5394295-.0963784,1.1414673-.2110041,1.7215209-.3471078,1.7562692-.72889,3.4892543-1.5163442,5.1165554-.4382759.9056918-.8570077,1.8223103-1.4697249,2.6201908-.4480139.5833953-.9740679,1.108889-1.4875399,1.6386573-.1425426.1470362-.3539335.2507067-.5529244.3123965-.1641117.0508825-.3565727.0103807-.5839811.0103807Z" stroke-width="0"/>
      <path d="m109.9775935,210.2909954c.0568805.5224819.1646578,1.0636206.1665235,1.6050779.0096014,2.7642578.0384057,5.5299717-.0433202,8.2920908-.0261423.8847427-.1893439,1.780634-.112487,2.6639205.2824915,3.2466503-.0187023,6.5056778.2026767,9.7448653.1777176,2.6001688-.0226157,5.2022488.1833374,7.7883112.1849073,2.3212494.2199229,4.6444555.0931021,6.9507339-.2231992,4.0584949.0035721,8.1166712-.1755334,12.169023-.0543095,1.229052-.0455272,2.468661-.1793785,3.6880433-.2883843,2.6272667-.115968,5.2562398-.1529859,7.8835292-.0354707,2.5152575-.0860261,5.0360666.0404307,7.5458864.0933296,1.8523717.1236583,3.7019904.1513022,5.4656512.7212225,1.4940698,1.3401511,2.9536245,2.109722,4.328905,1.1549253,2.0639673,2.376469,4.098789,4.4132929,5.6820703.4103817.1015886.9723387.2229035,1.5223963.3846717.2608769.0767205.3948192.2890897.3314998.5767687-.7751453,1.0908095-1.7549695,1.7280308-3.2172772,1.3917758-1.0775905-.3139123-2.0219212-1.026944-2.8209108-1.8576275-.865244-.8996226-1.7040955-1.848026-2.3475964-2.9419298-.4638949-.7885236-1.028696-1.5225328-1.4407614-2.3354695-.5929228-1.1697142-1.2100766-2.3981064-.954228-3.7484049.2867917-1.5133864.2320271-3.0296396.1196312-4.5217072-.2004925-2.6616453-.0989494-5.3188994-.1302337-7.9774959-.0314436-2.6708372.0734442-5.3465889-.0553789-8.0117835-.0820445-1.6965645-.0240946-3.3999547-.177581-5.0856437-.2590795-2.845961.0211823-5.6988614-.190345-8.5344929-.1684347-2.2578845-.0022752-4.5193183-.1877968-6.7635059-.2251104-2.7233948.0207955-5.4503162-.1851348-8.1617433-.1596523-2.1023958.0058246-4.2099564-.1891619-6.2968352-.2139618-2.2897603-.1035453-4.5738781-.1425881-6.8596795-.038747-2.2667123-.0925788-4.5405006.0406355-6.8005692.1085736-1.8419284.1915054-3.718372.8912726-5.4747748.1217471-.3055395.2675661-.6299861.49006-.8611941.5121524-.5321516.9839879-.5117429,1.9468162.071533Z" stroke-width="0"/>
      <path d="m148.3989657,153.1292368c-.1556934.1333849-.3179167.2723554-.477569.4091304-.4974545-.1805616-.9278809-.0115923-1.2923031.2224143-2.8784967,1.8484925-5.9429017,3.3510602-9.0080348,4.8485428-2.4232021,1.1838775-4.8793266,2.3068814-7.4942161,3.0113582-1.0788418.2906596-2.1828476.5005374-3.2856248.6865368-1.2886855.2173405-2.5885652.3685859-3.8836441.5479871-.030579.0042547-.0620225.0015472-.0930111.0033673-1.1668019.0681088-2.3331715.145125-3.5005195.2023241-1.3218583.0647756-2.6474252.1947135-3.9663484.1494366-2.8153365-.0966059-5.5288796-.6313058-8.0884357-1.9174544-2.6647168-1.3389566-5.0051691-3.065827-7.0633801-5.2170946-1.3270685-1.3871003-2.4582519-2.9050599-3.2591185-4.6375502-.6251399-1.3523462-1.0187077-2.770162-1.0451913-4.3086669-.0336847-1.9557236.4337938-3.8054447.8655739-5.6745621.2243369-.9711101.4789-1.9377266.645742-2.9189729.1999123-1.175789-.1994459-2.2355077-.8100699-3.2213612-.1767051-.28529-.3810541-.5585328-.6051179-.8082384-.3531485-.3935565-.5060889-.8310475-.3897796-1.4147328.1722343-.1891619.37978-.4171164.5312415-.5834692,1.5227603-.1076407,2.503051.6556051,3.3249065,1.6431537.6242753.7501747,1.087647,1.610436,1.2163335,2.6096906.0270751.210276.0864812.4174349.1012701.6281091.128004,1.8232489-.2364638,3.5856014-.6321931,5.3505477-.3051527,1.3609238-.7202669,2.7092657-.6695977,4.1303691.0350612.9837262.2634934,1.9104695.6710766,2.8146653.9013973,1.9998061,2.2588856,3.6576691,3.8633264,5.1016157,2.0368239,1.8331006,4.372794,3.2019649,6.9913466,4.046038,1.2158557.3919183,2.47353.5689988,3.7459022.7248515,1.5135912.1853964,3.0194466.1177313,4.5284647.1269801.669939.0041182,1.3403103-.1064235,2.0110002-.1581848.6397241-.0493723,1.2756258-.0031171,1.921766-.1535206.7388782-.1719726,1.5308829-.1061618,2.2785435-.2523335,1.0056935-.1966474,2.0163242-.426422,2.9794483-.7693548,1.5385276-.5478165,3.053848-1.167712,4.5534011-1.8162867,2.4232703-1.0480922,4.8215815-2.1537589,7.2387087-3.2163443,1.3567602-.5964721,2.7339973-1.1604768,4.1713459-1.5201211.7435424-.1860449,1.4881087-.4244426,2.3267554-.1623826.7906395.2470436,1.2523275.6900633,1.5980019,1.4935124Z" stroke-width="0"/>
      <path d="m141.0514104,55.7550402c-.1906863-.175539-.4415523-.4064968-.6846597-.6303103v-1.3452589c.2724805-.7316373.9461509-1.2533229,1.586057-1.768854.7587182-.6112781,1.5822119-1.1454603,2.3983339-1.6815424,1.5278568-1.0036287,3.0571926-2.006262,4.6109187-2.9689424,1.6037582-.9936803,3.3221194-1.7616814,5.0676012-2.4745709,1.1535829-.4711529,2.3499399-.7885463,3.5569678-1.0624432.621181-.14095,1.2690049-.2038997,1.9070908-.2223915,1.1478038-.0332467,2.2978829-.0269102,3.4460052.0025824.7330764.0188331,1.4636273.1210247,2.1965672.1647488,1.6411401.0979085,3.2187106-.2452461,4.7517549-.7797298,1.8842703-.6569475,3.7412607-1.3921967,5.6266459-2.0457769.8530944-.2957333,1.7392932-.5075678,2.6228755-.7008877,1.1352446-.2483746,2.2871666-.3930673,3.4549468-.3835967,1.2108957.0098176,2.4221327-.0107106,3.6327781.0095957,1.0820954.0181449,2.1094262-.2224314,3.1320019-.5436585,2.9670483-.9320502,5.9339373-1.8653689,8.9121797-2.7606516,1.6181831-.4864538,3.2529299-.9228071,4.8941838-1.3245999.4698333-.1150238,1.0024172-.1049787,1.4808508-.0159607.4605049.0856848.8881555.3477051,1.2488009.4982508.1961469.3727837.3382572.6428639.4876255.9267774v.8132552c-.17658.2628791-.3467893.5162876-.551673.821338-.5641867.2523619-1.1588841.5634928-1.7842516.7899115-2.1597086.7819482-4.3286774,1.5385447-6.4968954,2.2968306-2.0248108.7081229-4.0742849,1.3665322-6.1745875,1.7747013-1.6158852.3140261-3.2774795.4441176-4.9408941.0991087-.7738029-.1604998-1.5850559-.1993265-2.3785622-.193172-1.4649697.0113647-2.9028643.2625378-4.3245138.6236439-1.6770204.4259841-3.2343641,1.1879672-4.878917,1.6988909-1.5041035.4672907-3.0268411.8301772-4.5998384,1.0471708-1.732604.2390063-3.4537182.1060026-5.1794056.1306432-.4203927.0060066-.8420368-.1119295-1.2639994-.1657158-.3915656-.049907-.7966234-.1092163-1.1736503-.1348922-.941373-.0641214-1.889253-.0467842-2.8496469.0774656-1.6663951.2155943-3.1788942.7959749-4.6303718,1.5589762-1.7003641.8938265-3.307649,1.9504053-4.8700209,3.0694617-.8942304.6404806-1.7798149,1.2940778-2.6495639,1.9672249-.5591585.4327358-1.0743824.921789-1.6242125,1.3671636-.5711034.462581-1.1304894.9499619-1.7494179,1.3402307-.6590407.4155692-1.3899557.6243663-2.2091037.1249836Z" stroke-width="0"/>
      <path d="m115.1497411,193.7182581c.0750823-.3359365.1005648-.7059785.2429709-1.0235767.1855671-.4138173.4245791-.8180332.7107792-1.1691909.5255307-.6449116,1.0788191-1.2711891,1.6622769-1.8642029,1.7857077-1.8149443,3.6144626-3.587979,5.381286-5.4209431,1.3057497-1.354576,2.5661315-2.7553162,3.8002345-4.1758736,1.2483004-1.4368935,2.4527572-2.9126477,3.6519583-4.3912005,1.3008807-1.6039403,2.6588923-3.1531614,4.0678005-4.6648642.7780803-.8348698,1.5929737-1.6171138,2.4160351-2.4024293,1.0274901-.9803248,1.9791015-2.0417953,2.940633-3.0892163.9789369-1.0664078,1.9300705-2.1583663,2.8937407-3.2388121.0412953-.0463121.0865949-.089018.1292326-.1341812,1.23226-1.3048396,2.4651344-2.6091104,3.6962796-3.9149853.8478158-.8992814,1.6773162-1.8165483,2.545973-2.6951707.4751345-.4805609.9861493-.9370614,1.5338179-1.3309592.4619838-.3322392,1.0001647-.5584759,1.4018778-.7759871.757171.0937278,1.1873699.423305,1.3326428,1.1236068-.1775128,1.0757931-.8505461,1.957669-1.5033527,2.8304326-1.2468442,1.6669525-2.5344604,3.3036901-3.821485,4.9401091-.4182767.5317876-.8922282,1.0194927-1.3326656,1.5342161-1.0590929,1.2377092-2.1069235,2.4850881-3.1721595,3.7174278-.6051862.7001312-1.2496655,1.3663616-1.8522807,2.0686088-2.1434636,2.4978748-4.5951742,4.6949654-6.8695312,7.064859-1.285614,1.3396505-2.5481572,2.7017119-3.8455114,4.0298043-2.9464348,3.0162386-5.8595603,6.0676521-8.884604,9.0033478-1.4269508,1.3848364-2.8337658,2.8316499-4.5671662,3.8683091-.361783.2163508-.746796.415592-1.1468027.5406382-.4659881.1457052-.9058567-.0052558-1.4119798-.4297666Z" stroke-width="0"/>
      <path d="m200.5596505,99.8080182c0,.4188456-.0213416.7617101.0037086,1.1011276.102294,1.3851208-.4833026,2.5505917-1.1614551,3.6855747-.2862229.4790479-.7885691.6895514-1.275603.8485439-.5926042.1934507-1.0825732-.1417918-1.5387779-.98756.2273857-1.4202502.8414225-2.8186583,1.152195-4.3730215-.174191-.5579071-.53156-1.0798088-1.0201184-1.5198936-.4805723-.4329064-.936868-.8951405-1.4386454-1.3015178-.8367128-.6776293-1.770896-1.1317749-2.8456425-1.370275-1.0561579-.234382-2.0638308-.6786872-3.1084761-.9757516-1.0738819-.3053689-2.1620294-.5654722-3.2526569-.8057242-1.0354989-.2281251-2.0834432-.3990056-3.1236973-.6062214-.8298643-.1652949-1.6518564-.374183-2.4854749-.5156904-1.2269815-.2082624-2.461221-.373853-3.6924572-.556997-.0304652-.0045391-.0620453-.0011262-.0930338-.0026165-1.3837898-.0660156-2.7673521-.1380604-4.1514604-.1968067-1.6941983-.0719198-3.3922417-.0874254-5.0822536-.2129039-1.3091398-.0971975-2.6156176-.2557235-3.9221863-.3887671-.5442785-.0554244-1.0914238-.1073336-1.6387284-.1530542-.5157245-.0430699-1.0284912-.1205299-1.5434421-.1746233-.5149509-.054082-1.0369778.0595881-1.5505636-.1558186-.2389893-.1002576-.5532429-.0077471-.8308427-.0319669-.6389505-.0557657-1.280381-.10408-1.9128698-.2051909-.4047392-.0646959-.7252269-.3175982-.9711556-.6843639v-.8224812c.3988236-.6383931,1.0595252-.783575,1.7257101-.8829225,1.3755535-.2050999,2.7628016-.235201,4.1498678-.185624.6090996.0217739,1.2156054.1122367,1.8237267.1661594.6080302.0539,1.2354226-.0972543,1.8236357.1762614.0516475.0240036.122862.0041068.1847707.0080657,1.0730855.0686093,2.1572287.0653444,3.216003.227579,1.0140663.1553749,2.037916.0412156,3.0328477.1926089,1.2944874.1969773,2.5963919.0116833,3.8723817.1848504,1.02906.1396759,2.0738873.0389973,3.0941422.3071322.5837991.1534296,1.211419.1341812,1.8165142.2139846,1.352915.1784456,2.6941355.4192665,4.033786.6856608,1.7212734.3422843,3.4312618.7266034,5.1228436,1.1860162,2.0249245.5499324,4.0127174,1.2083133,5.7663672,2.4118715,1.8100526,1.2422483,3.4821585,2.6503147,4.9467186,4.2866768.3585749.400621.5748347.928609.8743222,1.4276788Z" stroke-width="0"/>
      <path d="m166.0878584,169.0485759c-.6333079-.133328-1.0287415-.4771595-1.3388314-.9661501-.848999-1.3389566-1.7307611-2.6573793-2.5675876-4.0037872-.9700407-1.560711-2.0640356-3.0324154-3.2116801-4.4605265-1.9367824-2.410165-3.7871974-4.8830807-5.4138672-7.5106659-1.3765091-2.2235172-2.6214421-4.5295681-3.45117-7.0215957-.4093351-1.2293933-.6786759-2.5059177-.9987085-3.7643428-.1935076-.7608682-.3938409-1.5222712-.5333347-2.2938898-.1138293-.6297927-.1576274-1.2739307-.2045197-1.9137572-.0809069-1.1034597-.0467786-2.2245411-.2327552-3.3087411-.2170789-1.2656034-.127822-2.5232094-.1366043-3.7837391-.0035721-.510992.0667778-1.0477509.2348029-1.5267306.1353302-.3857525.4681496-.7022244.6951712-1.0236791h1.1056667c.613559.2778501.8216963.8732983,1.1923299,1.6544615.0361533,1.2406215.0047552,2.7249761.1488678,4.1920845.0935116.9520893.0406582,1.9130291.1810166,2.8477698.1988544,1.3241904.2716387,2.6605418.4711074,3.9860632.1810621,1.2031486.3885624,2.4037148.6421813,3.5865911.4455339,2.0779258,1.1526728,4.0670725,2.2665986,5.9121293.742109,1.229234,1.4853102,2.4529392,2.3275745,3.6145877.5202067.7174798,1.0663964,1.4161435,1.6003226,2.1237033,1.2171526,1.6130298,2.4531212,3.2123172,3.6453829,4.8435487,1.152377,1.5766035,2.1385718,3.2579923,3.0440645,4.989709.413112.790048.6641827,1.6262147.8484529,2.4815729.0951043.441393.0839329.9242178-.3144811,1.3453841Z" stroke-width="0"/>
      <path d="m140.6634623,65.7589736h-.7541677c-.14839-.136155-.3063586-.2810695-.4695375-.4307905-.1118271-.6783175.0688482-1.1550845.7009958-1.5345574,2.9010669-1.7414319,5.894758-3.2467925,9.2248407-4.0009204,1.4329346-.3244978,2.8627294-.6000499,4.341942-.5698691.4515405.009209.9051287-.1318263,1.3582846-.1350742.390337-.0028099.7809016.1325032,1.1722624.1375485,1.7688483.0228432,3.5386977-.0064332,5.3068635.0366709,1.514433.0369098,2.9694145-.3092368,4.4239865-.6255096,1.1225944-.2440915,2.2326067-.5277604,3.3680561-.7317909,1.4526835-.2610362,2.9061179-.2164305,4.3378921-.1072312,2.7368186.2087345,5.3829469.881984,7.8223485,2.1949916.908496.4890134,1.7724204,1.0623636,2.64358,1.6177964.163816.104444.2656094.3062107.4275141.5009583-.4534062.225611-.8694532.143447-1.2460251.0905197-1.0497645-.1475367-2.091361-.3554863-3.1336173-.55326-.5331982-.1011848-1.0560441-.2656435-1.5920636-.3416928-1.0863273-.1541178-2.1834392-.2356845-3.267059-.4050293-1.7035722-.2662464-3.413333-.3749907-5.1355393-.3562371-1.1351536.0123601-2.234973.2667925-3.346214.444129-.5379307.0858384-1.0687854.2212539-1.6084679.2899998-2.1829842.2781174-4.3825774.2842605-6.5678368.1549653-1.3234282-.0783074-2.643307-.1328161-3.9666897-.136866-1.4712266-.0044936-2.89977.293532-4.3175289.6520216-1.8238632.4611704-3.543908,1.2114133-5.2780137,1.9180289-1.4595774.5947429-2.9016584,1.2323283-4.4458058,1.8911984Z" stroke-width="0"/>
      <path d="m77.6751911,56.1005383c-1.2643293-.4742131-2.1356937-1.0618403-2.512368-2.1923922.0581888-.107965.1305636-.2422428.2028815-.3764127.5061231-.0827896,1.0133268-.1657613,1.5525771-.2539773.3687452-.4520695.7583996-.8881328,1.1018443-1.3579717,1.5533166-2.1249319,2.8011505-4.429083,3.8569102-6.8313644.680405-1.5481746,1.3243269-3.1190103,1.7897121-4.7495593.2318565-.8123736.4110415-1.6431594.5577023-2.4755492.1599026-.9074778.2193769-1.8252511.2177728-2.7527679-.0018771-1.0871293-.2855972-2.1061727-.5921833-3.1247951-.1409159-.4682179-.2958243-.5974618-.8899757-1.0042715q.0788706-.4366947.4807543-.8110198h.8169297c1.160966.6814346,1.7289296,1.7649463,2.2426632,2.9345809.5303655,1.2074829.7075143,2.497653,1.0627902,3.7445029.082454.2893684.0150847.6187579.0401349.9278297.0293731.3624599-.0715785.7333608.1361834,1.088722.0816918.139727.0729664.3841882.0122748.5460191-.2247464.5992877-.0827384,1.2234663-.1687873,1.8266333-.1110422.7784557-.2507636,1.5564222-.4389358,2.3196112-.5247912,2.1284755-1.3222337,4.1626204-2.386935,6.072322-.9830209,1.7632115-2.0182695,3.5125782-3.5422926,4.887142-.6781639.6116649-1.3952342,1.1999633-2.3187808,1.4105066-.4429743.10098-.9025349.129153-1.2208726.1722115Z" stroke-width="0"/>
      <path d="m174.7310841,78.1467478c-.1971025.2371691-.3000562.4320532-.4608689.543266-1.2801307.8852205-2.6144572,1.6869745-4.133782,2.0779599-1.5925186.4098129-3.2009411.4281285-4.8127308.0202495-1.6632098-.4208705-3.0924585-1.2410538-4.4037142-2.3324776-.6426136-.5349046-1.2407694-1.0856789-1.7534678-1.7497933-.3768905-.4882398-.8736851-.8819328-1.2846812-1.3463852-.5308092-.5998053-1.2102587-.9539891-1.9548477-1.1446185-.7907305-.2024378-1.6104019-.2902386-2.4154663-.438731-1.4866526-.274187-3.0061594-.3640127-4.4462154-.9026601-.6135363-.2294789-1.1708746-.5364063-1.6598197-.9357987-.3170066-.2589316-.5001847-.6817247-.7196526-.9970818v-1.1346189c.1638842-.1756528.3230587-.4199092.5460304-.5683902.3548436-.2363102.7246808-.4189252,1.1954697-.1780645.4272866.2185976.9076314.3327398,1.3629488.4975,1.1425481.413459,2.3110791.6926059,3.5119866.9104754,1.3603095.2467876,2.7296062.5127553,4.0286667,1.0536779.8362805.348217,1.5587771.8377139,2.2162707,1.4308414.5755173.5191942,1.110877,1.0841317,1.6494219,1.6429034.9873552,1.0244413,2.0848766,1.9130974,3.3415725,2.5754144.9383014.494508,1.9564858.8116171,2.9837484,1.0783868,1.0579326.2747216,2.1419847.2304344,3.2165036.1764093.6323524-.0318076,1.2583113-.1871142,1.8876376-.2835609.66416-.1017707,1.3272961-.126673,2.1049896.0050965Z" stroke-width="0"/>
      <path d="m64.3279559,57.478094c-.0301012.1605396-.0520116.2774633-.0710097.3787675-.0902353.0266144-.1539301.0693488-.2018008.0558794-.578714-.1628262-1.1512508-.3488085-1.7332297-.4983475-.4928813-.1266502-.899725-.3894326-1.2340006-.7502316-.9135242-.9860469-1.5071523-2.1301421-1.6421298-3.4874427-.0512266-.5150931-.1926658-1.0354249-.1540894-1.5427994.170744-2.2454959.7150794-4.4009214,2.05812-6.2424858.8511604-1.1671148,1.8401424-2.2393585,3.0015634-3.1333101.3906783-.300699.7523134-.6555767,1.0668628-1.0356354.9372321-1.1324006,1.9735386-2.1833254,2.7481606-3.4502712,1.0240545-1.6749158,1.7894618-3.4591503,2.2512294-5.3584371.3147314-1.2945499.2586017-2.6339331.2133589-3.969801.353979-.5390683.8950722-.2597621,1.3412545-.3295943.805565.5447279,1.0525175,1.3315507,1.0835288,2.2312871.0619202,1.7963557-.2219251,3.5290565-.9222156,5.1888591-.5461897,1.2945727-1.2380619,2.5075104-2.0452422,3.6562357-.7966689,1.1337714-1.6735393,2.2003498-2.6324087,3.2016236-1.0269099,1.0723177-2.060964,2.1391236-3.0515273,3.2445002-.9090989,1.0144701-1.4381562,2.2240292-1.8312576,3.5356262-.3938067,1.3139462-.5447563,2.6266751-.527203,3.9812113.0087937.6794551.1442491,1.3175297.3528527,1.9663376.2159868.6717194.600431,1.1727175,1.1190109,1.6112665.2820137.2385001.5442899.5003554.8101723.7467619Z" stroke-width="0"/>
      <path d="m65.1881603,32.466554c.1224866.6088834-.0642181,1.1187265-.2571683,1.6394394-.6303047,1.7011207-1.5707789,3.2248878-2.641191,4.6737376-.7818344,1.0582227-1.6030529,2.0874021-2.3817134,3.1478829-1.4627855,1.9921898-2.9185633,3.9900278-4.1875796,6.1153919-.2498421.4184417-.5119021.8295913-.7618807,1.2479534-.5544488.9279036-.9399737,1.9009192-.934297,3.0122854.002571.5052755-.1162069,1.0111597-.1805843,1.521873h-.6004765c-.5219814-.7470633-.9826796-1.544921-1.2706885-2.4548276-.3109887-.9824407-.3261758-1.954478-.0712258-2.9334262.4894912-1.8795208,1.437906-3.5370994,2.5108777-5.136074,1.0930279-1.6288482,2.2219815-3.2291652,3.555887-4.6725032.9437619-1.0211877,1.8601757-2.0744845,2.8740941-3.0221826,1.0983746-1.0266141,2.2864385-1.958835,3.4582686-2.9038483.2157024-.1739634.4841444-.4029929.8876777-.2357016Z" stroke-width="0"/>
      <path d="m107.177501,23.9159298c.2689312-.1290762.4051715-.1944604.4754531-.2281877.9734763.0559306,1.2847722.8336128,1.7276896,1.4259781.3806901.5091548.6762641,1.0829771.9981852,1.6347923.6617482,1.1343857,1.5316337,2.1099382,2.560762,2.8896964.7165583.5429305,1.5801414.9340524,2.4315976,1.2474585,1.5014643.5526741,3.0329615,1.0329051,4.5735595,1.4665339.8139605.2291091,1.6754277.2857963,2.5121177.4385888,1.1435492.2088255,2.2912847.3524148,3.4560162.3791771.5151557.0118368,1.0338152.0874197,1.5404161.187137.3964801.0780515.7413127.2870761.9698815.7329513-.172439.7139475-.5827298,1.2229771-1.3580343,1.5084833-1.501396.5528732-3.0098225.6873103-4.5797026.3745072-.5331982-.1062415-1.0886253-.1080673-1.634542-.1797823-1.8794696-.2468957-3.6682261-.8063954-5.4462663-1.4142948-2.4701626-.8445338-4.5248243-2.313161-6.1735182-4.3212261-.9922469-1.2085579-1.6746541-2.6019321-2.0448782-4.1303748-.0996547-.4114113-.1680024-.8380495-.1813352-1.2598869-.0081453-.2585619.115604-.5212874.1725983-.7515512Z" stroke-width="0"/>
      <path d="m99.8209813,21.7521712c-.4356139-.549193-.3493603-1.0203886.0461187-1.5182042.618064-.4539636,1.3529606-.4264021,2.073091-.2213933.9003507.2563123,1.6308561.7526632,2.1733372,1.5675424.7901617,1.1869433,1.2390402,2.4955939,1.5501085,3.8593874.3185538,1.3967301.4806406,2.8150407.6152427,4.2458082.1191079,1.2658253.1853396,2.528323.105684,3.7818962-.1192444,1.8770408-.195032,3.7763674-.902899,5.5639578-.3117736.7873348-.6176089,1.5772291-.9455139,2.3578122-.1012246.240946-.289795.4103419-.6945797.2625435-.117902-.4448172-.3111366-.9551665-.379507-1.4817267-.110371-.8498863-.1791282-1.7097779-.1930298-2.5666263-.0291683-1.8004455.0300784-3.6028647-.022684-5.4022578-.0743087-2.5323615-.4344308-5.0248327-1.2927354-7.425129-.1627921-.4551808-.3363688-.9065251-.5070559-1.3588562-.2971895-.7876561-.8308427-1.3462117-1.6255776-1.6647541Z" stroke-width="0"/>
      <path d="m76.581674,27.622482c.1393118-.1327819.2953579-.2815189.4496407-.4285721.1260814.0356129.2111292.0545826.2926504.0835177.3979476.1412458.6386092.4273492.8360871.7990066.5463376,1.0282352.9073811,2.0937727,1.0855651,3.2588739.1273783.8328278.1949865,1.6598424.1154106,2.4749065-.1114972,1.1418541-.3066089,2.2807675-.5985539,3.3971562-.6891533,2.6353324-1.5850787,5.2048141-2.5761083,7.7365101-.6079165,1.5529924-1.364348,3.0489676-2.0810087,4.5577638-.3179622.6694385-.7611299,1.263112-1.3450428,1.7340659-.1126121.0908382-.2605129.1379239-.4373204.2282957-.1937806-.1688726-.3736483-.3256183-.5990772-.5220724.033241-.5053154-.0082591-1.0429161.1187438-1.5372251.2019373-.7859184.472609-1.5615529.7909125-2.3088722,1.1635711-2.7320008,2.2117771-5.5057463,3.1081689-8.3363666.4834505-1.5266794.8620246-3.0818218,1.2105317-4.6439663.0397936-.1783717.0194986-.3710431.0200675-.5571051.0027758-.8995942.0002958-1.7992055.0052671-2.6987769.0042433-.7676143-.1695609-1.5072604-.3229677-2.2524239-.0613514-.2979573-.0478707-.6113236-.0729664-.9847159Z" stroke-width="0"/>
      <path d="m96.744893,39.8836799c.0170187-.2640964-.0043229-.5010834.05266-.7174343.2292286-.8703519.4892523-1.7325415.7254886-2.6011244.2980654-1.0959401.2091953-2.1829273-.1658864-3.2392331-.6550932-1.844835-1.7615562-3.4022413-3.111104-4.8046822-1.0283661-1.0686659-2.159174-2.0151866-3.3982483-2.8192613-1.4111038-.9157369-2.9409856-1.5794987-4.614013-1.8547749-.3324668-.054702-.6828623.0097778-1.0219954-.017687-.2963249-.0239979-.5884406-.1000642-.8563024-.1484156-.1253192-.2502289-.2195816-.4384494-.3216595-.6422865.1672743-.4560341.2080008-.986118.7040218-1.2295838.3498381-.1717138.7286625-.3417781,1.1087838-.3838128,1.2405191-.1371816,2.43914.0384512,3.5742367.6019412.9860583.4895139,1.9370441,1.04022,2.8023905,1.7135747.8965056.6976256,1.7808729,1.4229435,2.5899644,2.2181392,1.3807751,1.357073,2.6205093,2.8500621,3.4687347,4.6010556.4297894.8872056.7085723,1.842611.9217264,2.834602.2788967,1.2979628-.1203023,2.3980552-.5606146,3.514643-.3217163.815849-.7768631,1.5792484-1.1756184,2.3644558-.137503.2707912-.2702281.5523328-.7225649.6098845Z" stroke-width="0"/>
      <path d="m92.6170949,65.1517625c.1077317-.3238494.1933938-.5813305.2889987-.8687365.6879133-.5662572,1.4559826-.5225103,2.2210486-.1649365.7697871.3597751,1.5357746.6982883,2.3573571.9464865.8613875.2602171,1.6367489.1793671,2.3790741-.2331875.903536-.5021528,1.8129194-1.0132927,2.6400762-1.6277846.7884781-.5857672,1.4895876-1.293856,2.198888-1.9794315.3259938-.3150954.579772-.7049092.9025804-1.105934.1674336.1342438.3024907.2425386.3843532.3081731.2475214,1.4063657-.0450721,2.6354575-.8916366,3.6898236-.4820967.6004651-1.0158182,1.1837125-1.6179101,1.658483-1.172672.9246956-2.4505502,1.6657239-3.9046671,2.1164794-2.2582371.7000004-4.1938819.0893593-5.99067-1.2717067-.484042-.3666463-.732701-.8917617-.9674925-1.4677284Z" stroke-width="0"/>
      <path d="m75.235505,78.6190497c-1.2554104,0-2.5268043.0000569-3.7981981-.0000228-.3996996-.0000228-.7878524-.008771-1.0238839-.4278441-.0432292-.0767546-.207978-.096276-.321284-.1204616-.5845044-.1248642-1.0735633-.408152-1.4997351-.8280783-.4214962-.4153417-.658415-.8799533-.5292962-1.5133864.129335-.137776.2768035-.2948573.4262855-.4541001h.8265539c.3602131.2580898.7054325.5054177,1.0490478.7516195.7661013,0,1.5100874-.0018429,2.2540393.0005119.7378089.0023435,1.4387933-.1883542,2.1509263-.3546047.4920281-.1148873.8508533-.3743081,1.1253474-.7438041.5248595-.7065246,1.0264435-1.4193629,1.2946694-2.292081.193883-.6308109.4924831-1.2811716,1.4472799-1.4550782,1.0588199-.016484,1.3812757.2233244,1.8602326,1.5203998-.1776038.6020578-.2075685,1.2386989-.537396,1.8149443-.8680881,1.5166627-1.9888736,2.7715726-3.5367524,3.6090817-.3441159.1861928-.725443.303617-1.1878363.492904Z" stroke-width="0"/>
      <path d="m113.457545,38.7285214c.2120507-.2363671.3354587-.3739327.4586164-.5112082.1043872-.0121497.203018-.0516532.2825825-.027735.2581239.0775964.5668942.1141479.7533486.2812174.9089738.8143871,2.0329105,1.2333522,3.1151197,1.7087028,1.6986577.7461362,3.5090061,1.1698564,5.322699,1.5047121.9537729.1760908,1.9436763.3381093,2.9346719.2172211.5377486-.0655946,1.0736316-.146365,1.5645334-.2139789.2430847.3435016.1271621.5296432-.0586552.7300561-.8376456.9033881-1.8855217,1.4432129-3.0629034,1.7179402-2.263436.5281358-4.4324275.0948711-6.5242663-.7861858-1.1243008-.4735248-2.1998436-1.0648891-3.1445611-1.8509099-.8680426-.7222179-1.5209402-1.5852664-1.6411856-2.7698321Z" stroke-width="0"/>
      <path d="m97.9037317,79.895961c.3868787.3573122.3907238.6629996.2339042.9502122-.2033479.372431-.4175487.7509483-.6931463,1.0697296-1.0163188,1.175516-2.278862,2.0548209-3.611118,2.8241871-.8115033.4686388-1.6476245.9330229-2.5292046,1.2333863-1.524808.5195355-3.1382587.6344683-4.7239517.4386514-.9396665-.1160249-1.8974893-.3734435-2.7165691-.9594723-.8688616-.6216702-.941373-.7142262-.920987-1.8770465.1817106-.1922676.3919069-.4146819.6086445-.6440129h1.0516302c1.1206035.4708685,2.1735875,1.1378383,3.3805585,1.510349.8859144.2734361,1.6432675.1260473,2.3541946-.3049935,1.5887873-.9632833,3.130432-2.0039925,4.7084233-2.9856141.643956-.4005869,1.3217331-.751847,2.0058695-1.0802184.2611044-.1253078.5830711-.1237721.851752-.1751579Z" stroke-width="0"/>
      <path d="m117.5187019,48.9991336c-.7490485.6017961-1.5094275.8790888-2.296768,1.112663-1.7195898.5101331-2.9233185-.2327722-3.9762229-1.5197002-.9896987-1.2096785-1.6187519-2.5783381-1.9214474-4.0817647-.1573771-.7815785-.4128845-1.5571446-.1600163-2.4239244.1758291-.6027517.4122019-1.0677217.9057657-1.4661471h.9127279c.2862456.2483177.394933.5744821.479685.9481759.3550938,1.5659896.7364437,3.1316037,1.5276521,4.5470589.2960746.5296488.6919404,1.0072691,1.0713336,1.4856117.4484234.5654096,1.1050296.7246581,1.7781767.8292785.4202334.0653159.8446988.1117304,1.2584933.2053956.1259335.0285142.2226304.1861814.4206202.3633529Z" stroke-width="0"/>
      <path d="m121.3737464,90.2612337c-.3151637.1064576-.5434367.1835649-.8626048.2913763-.261969-.187046-.5758131-.4111326-.8261102-.5898626-.1099387-.849363.1591745-1.47853.5163388-2.1036927.7300959-1.2779465,1.5905619-2.4679784,2.5286131-3.5895376.6652748-.7954175,1.3452931-1.6190363,2.2635498-2.0916568,1.4575297-.0344014,1.6871451.1280153,1.7258921,1.2274366-1.973823,1.7124228-3.2218049,4.0359929-4.7889093,6.1115184-.2019259.2674409-.4014856.5366679-.5567695.7444184Z" stroke-width="0"/>
      <path d="m86.511458,80.3027706h-.9616907c-1.7374161-.6889257-2.3454691-2.122577-2.5906925-3.9148374.1182319-.3766857.2704215-.8615582.4006097-1.2763425.3350491-.2250535.5880879-.3950126.855051-.5743342h.8460525c.2114363.1584578.5648351.325607.7692183.6026721.2254745.3056533.3304873.7065246.4586847,1.0760775.1856808.5352914.3450942,1.0796951.5224819,1.6416634.2801367.0154943.4955774.0032877.6997558.0455158.2027791.0419437.3942618.1386065.6378356.2287167-.0216715.2160892.0127754.446808-.07217.618428-.3395655.6859907-.8026754,1.1252109-1.5651363,1.5524406Z" stroke-width="0"/>
      <path d="m123.9874756,58.4284996c.054264-.3942732.1060936-.7709134.1628376-1.1831608-1.0159547-.1652152-1.845273.2486419-2.6900401.4929609-.0888474-.074468-.1598343-.1339707-.2769172-.2321124-.2044514-.9464296.4245564-1.6257198.8947537-2.3467319.5327659-.8169468,1.4410571-.9184899,2.2974278-1.1131636q1.6856435.4663806,2.3164942,1.7427458c.0768342,1.3683183-.641931,2.452524-1.9162144,2.8565749-.3006478.0953375-.6166533.1136018-.7883415-.217113Z" stroke-width="0"/>
      <path d="m56.4219134,129.7091745c-.1813807.8265653-.5555181,1.4516255-1.3231551,1.8072086-.7515626.3481317-1.4849803.2333695-2.4414038-.0883127-.1566263-.1772853-.464532-.5258151-.7949056-.8997705-.3547526-.7231564-.2512869-1.4082598.2931737-2.0676759.6415215-.7770109,1.4850485-.8594536,2.3787784-.8011624,1.0828462.3056988,1.7439574.9808822,1.8875125,2.0497131Z" stroke-width="0"/>
      <path d="m107.7102441,206.6684102c.0938984.2214928.1616317.3812589.2358267.5562234-.5440738.7187425-1.3171713,1.1196821-1.9542561,1.6765881-.6571295.5744935-1.3882037.957618-2.2779064,1.1197048-.2268396-.0708276-.4838031-.151052-.8780763-.2741415-.1675246-.1686849-.4276279-.4305857-.6854333-.6901657v-1.6135189c.2209923-.1930753.4995932-.4364785.8132552-.7105062.5563599-.1936214,1.1311264-.3141171,1.8022258-.1025897.5062141.159584,1.1016851.0366311,1.6574307.0381782.3998475.0011149.7996722.0002275,1.2869336.0002275Z" stroke-width="0"/>
      <path d="m85.9491142,160.3726097c-.1351937.2560079-.2610021.4942236-.3479155.6588018-1.0374669.6279384-1.8729511.2715591-2.6931571-.3391332-.2950394-.3584043-.4191641-.7799346-.3026045-1.2622475.279602-.4302444.6608495-.7119169,1.1213202-.7667156,1.0666353.1201317,1.7981873.6407479,2.2223569,1.7092944Z" stroke-width="0"/>
      <path d="m69.3064139,138.2750314c.2850853,0,.5055998-.0254711.7177755.0057222.354161.0520684.6504517.2564971.7249652.6019326.1259335.5836854.1783888,1.1832176.2681804,1.8218496-.259307.0795759-.4471493.1372186-.6294742.1931663-.0942397-.1494934-.1576956-.2501606-.2243824-.3559471-.1144664.2164532-.2276245.4304151-.3549118.6711108-.2000261.0805997-.4212914.1697543-.6720208.2707855-.2461107-.2224143-.4710391-.425694-.7064791-.6384613-.0876757-.446808-.1742478-.8879849-.2400359-1.2232502.179697-.3634098.3013986-.6095319.4263879-.8622976.2177842-.1529518.4424737-.3107725.6899951-.4846108Z" stroke-width="0"/>
      <path d="m101.4178001,174.2609039c.5167938.3560494,1.2603363.4107458,1.6420957,1.074792-.0731711.1606989-.1474116.3237185-.251685.5527423-.5859606.2552571-1.2200876.5314918-1.8007697.7844509q-.8646297-.2774405-1.2768544-.6763324v-1.1700327c.1592428-.1601984.3756618-.3779371.5622073-.5656201h1.1250061Z" stroke-width="0"/>
      <path d="m88.893069,75.0650625v-1.1054619c.0975501-.1881153.195305-.3766402.3122855-.6022398.2169651-.1078683.4590032-.2282047.7092321-.3526252.2404113.1097453.4595606.2097641.6975261.3183831.1093699.2093659.2213677.4237487.3191453.6109198,0,.0979028.0240491.1748849-.0037427.2197523-.2585562.4174918-.1679341.8163154.051238,1.2100084.1913348.3436836.4641907.6634319.3084632,1.1036759-.9234556.1277992-1.8809826-.4286176-2.3941475-1.4024125Z" stroke-width="0"/>
      <path d="m83.3478078,136.6050528c.2494894-.1712218.5660296-.3884713.9463102-.649462.3447757.20229.6739093.3953994.954683.5601368.1023053.404159.1824386.7206878.2610021,1.0310167-.2431757.414443-.4845767.8258372-.736512,1.255217h-.5974732c-.7813794-.4552263-.9890844-1.1979838-.82801-2.1969085Z" stroke-width="0"/>
    </g>
  </g>
</svg>