<?xml version="1.0" encoding="UTF-8"?>
<svg id="Layer_2" data-name="Layer 2" xmlns="http://www.w3.org/2000/svg" viewBox="0 0 97.9411867 159.8229712">
  <g id="Layer_1-2" data-name="Layer 1">
    <path d="m.8839363,109.7936744c.4277344,3.3955078.8701172,6.90625,1.8388672,10.265625.6816406,2.3652344,1.2324219,4.4589844,1.6845703,6.4003906.7607422,3.2587891,2.1992188,6.2792969,4.6640625,9.7929688.3564453.5068359.7695312.9248047,1.1689453,1.3291016l.2265625.2304688c1.8447266,1.8916016,3.5712891,3.3925781,5.2783203,4.5898438.4970703.3486328.9873047.7158203,1.4775391,1.0820312,1.8535156,1.3876953,3.7714844,2.8232422,6.0859375,3.3017578.0458984.0195312.0878906.0517578.1298828.0810547,1.7236328,1.1679688,3.5830078,1.8955078,5.3818359,2.5996094l1.0283203.4052734c2.5498047,1.0078125,5.1875,2.0507812,7.9677734,2.4160156.7568359.0996094,1.5136719.1953125,2.2714844.2910156,1.6582031.2080078,3.3740234.4238281,5.0498047.6845703,1.3671875.2109375,2.8222656.2109375,4.5859375,0,.7666016-.0927734,1.5214844-.3339844,2.1845703-.7001953,1.3652344-.7529297,2.7255859-1.5703125,4.0410156-2.3613281l1.0019531-.6005859c.8388672-.5019531,1.8417969-1.0332031,2.9208984-1.1699219.4111328-.0537109.7792969-.2138672,1.1035156-.3554688.1240234-.0537109.2470703-.1074219.3720703-.1542969.3359375-.1230469.5371094-.4667969.4814453-.8203125l-.0791016-.5c-.0488281-.3066406-.2822266-.5527344-.5859375-.6162109-1.6728516-.3583984-3.2587891-.0986328-4.7109375.7597656-.9541016.5634766-1.9189453,1.1005859-2.8837891,1.6386719-.8486328.4726562-1.6982422.9462891-2.5410156,1.4375-1.40625.8183594-2.9091797,1.1279297-4.5849609.9326172-1.5253906-.1728516-3.0185547-.3496094-4.5195312-.6064453-2.2578125-.3857422-4.4667969-.7724609-6.6699219-1.2666016-3.0400391-.6816406-5.96875-2.1142578-8.8027344-3.5009766-1.4433594-.7060547-2.9365234-1.4365234-4.4394531-2.0673828-.0576172-.0244141-.1601562-.1035156-.2509766-.1738281-.1142578-.0878906-.2285156-.1738281-.3486328-.2470703-2.6884766-1.6298828-5.3515625-3.6611328-8.1425781-6.2089844-1.7509766-1.5986328-2.9853516-3.7246094-3.9619141-5.5927734-1.2978516-2.4804688-2.1083984-5.2167969-2.8916016-8.0361328-.9765625-3.5185547-1.9462891-7.3242188-2.4228516-11.3173828-.0761719-.6347656-.1445312-1.2705078-.2128906-1.90625-.1435547-1.3486328-.2929688-2.7431641-.5166016-4.1064453-.4726562-2.8886719-.4785156-5.7841797-.3408203-9.2441406.0996094-2.4912109.2607422-5.0263672.4179688-7.4775391l.1650391-2.6386719c.1591797-2.5927734.3242188-5.2744141.5615234-7.8974609.2617188-2.90625.5371094-5.7441406,1.0234375-8.5234375.6005859-3.4287109,1.3779297-6.8818359,2.1289062-10.2216797l.1669922-.7451172c.2851562-1.2666016.6445312-2.5419922.9921875-3.7763672.1601562-.5673828.3203125-1.1357422.4746094-1.7060547.0654297-.2431641.125-.4912109.1845703-.7382812.125-.5214844.2431641-1.0136719.4179688-1.4599609,2.3994141-6.1318359,5.1416016-12.0830078,7.7451172-17.6533203l.4492188-.9765625c.5761719-1.2578125,1.1708984-2.5595703,1.8837891-3.6826172,2.9335938-4.6171875,5.6240234-8.7246094,8.8447266-12.2392578l.734375-.8037109c1.8271484-2.0039062,3.7167969-4.0751953,5.7783203-5.7636719.4765625-.3916016.9746094-.7441406,1.4716797-1.0966797.296875-.2109375.5927734-.4208984.8857422-.6386719,2.3027344-1.7148438,4.8808594-2.90625,7.8828125-3.6425781,1.0068359-.2470703,2.0498047-.4414062,3.0585938-.6298828l.4414062-.0820312c.6416016-.1201172,1.2880859-.2138672,1.921875-.2792969l1.4423828-.1484375c2.4990234-.2568359,4.9980469-.5146484,7.4990234-.7333984l.4511719-.0400391c1.1083984-.1015625,2.1572266-.1953125,3.1767578-.0634766,3.0009766.3935547,6.2265625.9091797,9.8642578,1.5771484,1.2988281.2382812,2.5087891.8232422,3.9550781,1.5625,1.1708984.5986328,2.2128906,1.4228516,3.3154297,2.2949219.6113281.484375,1.2441406.984375,1.8984375,1.4404297,1.2177734.8486328,2.2158203,1.9560547,3.1123047,3.0253906,1.5380859,1.8369141,2.6289062,4.1513672,3.6835938,6.390625l.3525391.7451172c.2324219.4892578.4228516,1.0078125.6240234,1.5576172.1542969.4208984.3095703.8408203.4824219,1.2490234.3408203.8017578.3857422,1.6992188.4335938,2.6494141.0234375.4726562.0478516.9443359.1054688,1.3964844,0,.0410156-.0302734.1347656-.0546875.171875-.1357422.1982422-.2646484.4042969-.3925781.6103516-.3642578.5839844-.7089844,1.1357422-1.1806641,1.4599609-.5458984.3759766-1.0556641.8066406-1.5478516,1.2236328l-.1748047.1474609c-2.4453125,2.0673828-4.4628906,4.1572266-6.1669922,6.390625-.2910156.3828125-.5908203.7548828-.890625,1.1269531-.9082031,1.1269531-1.8466797,2.2929688-2.5546875,3.7333984-.1914062.3886719-.3173828.5908203-.4375.6884766l-.1445312-.2294922c-.3193359-.5039062-.6523438-1.0273438-.9599609-1.5722656-.7216797-1.28125-1.7792969-1.9853516-2.9804688-1.9853516h-.0185547c-.5810547.0166016-1.1660156-.1162109-1.7919922-.2441406-1.0576172-.2148438-2.2529297-.4570312-3.4931641-.0585938-.0068359-.0019531-.0175781-.0048828-.0351562-.0097656-.1201172-.03125-.2421875-.0585938-.3623047-.0673828l-.5488281-.0390625c-.8818359-.0625-1.7636719-.125-2.6464844-.1708984-.7294922-.0380859-1.4599609-.0537109-2.1894531-.0693359-1.4208984-.0292969-2.8896484-.0605469-4.3105469-.2734375-1.34375-.2001953-2.7167969-.0361328-4,.1708984-1.4091797.2275391-2.8007812.6230469-4.1464844,1.0058594l-.6113281.171875c-1.6591797.4658203-3.3740234.9472656-4.9394531,2.0390625-1.5634766,1.0898438-3.3359375,2.3242188-4.9912109,3.6689453-.9414062.7636719-1.8701172,1.7138672-2.8398438,2.9052734-.625.765625-1.2216797,1.5771484-1.7988281,2.3613281-.8544922,1.1601562-1.7373047,2.3603516-2.6923828,3.3867188-1.6601562,1.7832031-3.0751953,4.0351562-4.453125,7.0849609-.640625,1.4199219-1.0380859,2.9677734-1.1816406,4.6015625-.3408203,3.8525391-.6943359,7.2167969-1.0810547,10.2841797-.4628906,3.6767578-.7597656,7.6230469-.9609375,12.7949219-.0146484.3505859-.0263672.7050781,0,1.0546875.0576172.7470703.0703125,1.5234375.0830078,2.2724609.0234375,1.390625.046875,2.828125.3447266,4.2578125.1357422.6484375.1982422,1.3212891.2646484,2.0341797l.0722656.7451172c.2685547,2.5273438.546875,5.1396484,1.2470703,7.7226562.09375.3476562.1894531.6962891.2509766,1.0527344.6708984,3.8515625,1.9306641,7.0458984,3.8515625,9.7626953.5888672.8339844,1.2294922,1.5869141,1.8486328,2.3154297.3251953.3818359.6494141.7636719.9677734,1.1572266,2.0478516,2.5351562,4.2998047,3.9404297,6.8828125,4.2949219.5849609.0800781,1.1660156.0996094,1.7285156.1191406l.5263672.0205078c.9902344.0449219,1.9902344-.0449219,2.8779297.1328125,2.2304688.4443359,4.3251953.03125,6.0810547-.4326172.9716797-.2568359,1.9384766-.5380859,2.9052734-.8193359,1.0976562-.3193359,2.1962891-.6386719,3.3017578-.9208984,2.7363281-.6972656,5.0058594-2.0009766,6.9355469-3.984375,1.125-1.1552734,1.7705078-2.3398438,2.0449219-3.7978516.2714844-1.4316406.5517578-2.9111328.2382812-4.5107422-.0703125-.3564453-.0517578-.7763672-.0302734-1.2617188.0107422-.2597656.0224609-.5292969.0224609-.8105469,0-.2705078-.1455078-.5195312-.3808594-.6533203-.0566406-.03125-.1201172-.0849609-.1884766-.1376953-.3251953-.2509766-.8183594-.6328125-1.3955078-.4257812-.5556641.1962891-1.1289062.1318359-1.7939453.0546875-.4345703-.0488281-.8789062-.0966797-1.3603516-.0771484-.8554688.0429688-1.7099609.0957031-2.5644531.1494141-.9970703.0625-1.9941406.1240234-2.9921875.1699219-.0888672.0058594-.2402344-.0244141-.3994141-.0644531-.0029297-.2763672-.0078125-.5488281-.0126953-.8173828-.0175781-.9619141-.0341797-1.8701172.0332031-2.7548828.1074219-1.4248047.2744141-2.875.4355469-4.2773438.0830078-.7265625.1669922-1.4521484.2431641-2.1796875l.0429688-.3623047c.0585938-.4775391.1201172-.9716797.0615234-1.4833984-.234375-2.0517578.03125-4.0488281.3125-6.1640625.0869141-.6552734.1748047-1.3154297.2480469-1.9833984,1.625-.7382812,3.3701172-1.3378906,5.2099609-1.0908203l2.0791016.2734375c2.1757812.2822266,4.4257812.5742188,6.6181641.9638672.6660156.1181641,1.3359375.2177734,2.0058594.3183594,1.859375.2763672,3.6162109.5380859,5.3330078,1.1855469l.1171875.0439453c.8037109.3027344,1.6347656.6171875,2.4980469.8027344,2.8046875.6044922,5.5283203,1.8505859,8.1621094,3.0566406,1.1220703.5136719,2.2822266,1.0449219,3.4423828,1.5244141.4580078.1894531.6787109.3916016.7861328.7197266.0605469.1855469.125.3701172.1894531.5546875.2558594.7265625.4970703,1.4140625.4326172,2.1523438-.1777344,2.0332031.1357422,3.9970703.4384766,5.8964844.0771484.4882812.1552734.9755859.2246094,1.4619141l.0830078.5800781c.2246094,1.5576172.4375,3.0283203.4375,4.5458984l.0039062,2.3525391c.0078125,2.7919922.015625,5.6787109-.0771484,8.5058594-.0771484,2.3837891-.2558594,4.8115234-.4296875,7.1582031-.0654297.8955078-.1318359,1.7910156-.1923828,2.6865234-.1259766,1.8476562-.1894531,3.7246094-.25,5.5410156-.1035156,3.0742188-.2109375,6.2539062-.625,9.3388672-.203125,1.5068359-.3505859,3.0439453-.4941406,4.5292969-.09375.9697266-.1865234,1.9394531-.2949219,2.90625-.1884766,1.671875-.2089844,1.6757812-1.3144531,1.9121094-2.7158203.5800781-5.5244141,1.1806641-8.3730469,1.2675781-2.8154297.0859375-6.1572266.1982422-9.5966797.375-2.484375.1279297-4.375-.0214844-6.1376953-.4794922-1.1152344-.2900391-1.8154297-1.0019531-2.2705078-2.3105469-.4189453-1.203125-.53125-2.5302734-.3544922-4.1777344.1542969-1.4492188-.0419922-2.8076172-.2324219-4.1210938l-.0869141-.6123047c-.0859375-.6210938-.3935547-1.0947266-.84375-1.3017578-.2392578-.1083984-.7285156-.2353516-1.3300781.1533203-.125.0800781-.2294922.2050781-.2880859.3408203-.0517578.0908203-.1582031.2792969-.1513672.5302734l.03125,1.4042969c.0439453,2.0263672.0888672,4.0527344.1494141,6.078125.1054688,3.4794922,1.8300781,6.0214844,4.4990234,6.6347656,1.5214844.3486328,3.2548828.7060547,5.0654297.7060547.3710938,0,.7470703-.015625,1.1240234-.0488281,2.5097656-.2226562,5.1953125-.4277344,7.8398438-.4277344h.1689453c3.5625,0,6.7714844-.3007812,9.8066406-.9199219,1.0527344-.2148438,1.8554688-.4101562,2.6054688-.6328125,1.5419922-.4560547,2.3535156-1.5976562,2.4130859-3.3925781.0576172-1.7568359.2480469-3.5146484.4326172-5.2158203.1738281-1.6142578.3671875-3.2265625.5605469-4.8378906.1308594-1.0878906.2607422-2.1748047.3857422-3.2646484.0332031-.2880859.0292969-.5839844.0234375-.8789062-.0029297-.1337891-.0058594-.2675781-.0029297-.3994141l.0136719-.6835938c.0136719-.734375.0283203-1.4677734.0566406-2.2021484.1552734-3.9404297.3164062-7.8818359.4804688-11.8232422.0107422-.25.0322266-.4990234.0537109-.7490234.0195312-.2246094.0390625-.4482422.0517578-.6728516l.0703125-1.2353516c.0820312-1.4160156.1630859-2.8330078.2207031-4.2509766.0214844-.5273438.0136719-1.0566406.0048828-1.5849609-.0068359-.4335938-.0146484-.8671875-.0029297-1.2988281l.0107422-.4316406c.0878906-3.3066406.1787109-6.7255859-.7109375-10.0498047-.0371094-.1367188-.0429688-.2861328-.0546875-.4335938l-.0117188-.1513672c-.0634766-.7373047-.1191406-1.4755859-.1757812-2.2138672-.125-1.6455078-.2539062-3.3476562-.4677734-5.0146484-.3486328-2.7255859-1.5585938-4.4570312-3.5986328-5.1445312l-.3203125-.1074219c-1.3212891-.4433594-2.6884766-.9013672-3.9072266-1.5849609-1.5136719-.8515625-3.0927734-1.3789062-4.6201172-1.8886719-.4589844-.1533203-.9179688-.3066406-1.3740234-.46875-.5400391-.1914062-1.0878906-.3466797-1.6367188-.5019531l-.5322266-.1513672c-.5566406-.1601562-1.1083984-.3466797-1.6601562-.5322266-1.5585938-.5244141-3.1708984-1.0664062-4.9072266-1.0664062-.0527344.0009766-.1464844-.0097656-.2548828-.0390625-.0947266-.0234375-.1894531-.046875-.2861328-.0625l-2.8525391-.4658203c-2.3515625-.3867188-4.703125-.7724609-7.0585938-1.1171875-1.9257812-.2841797-3.7646484.1445312-5.5419922.5585938-.4169922.0976562-.8349609.1953125-1.2539062.2822266-1.1767578.2480469-1.9238281,1.0527344-2.2207031,2.3925781-.1376953.6259766-.2177734,1.2646484-.2949219,1.8818359l-.0410156.3212891c-.0820312.6474609-.1474609,1.2988281-.2001953,1.9521484l-.0107422.1357422c-.0732422.9189453-.1464844,1.8398438-.1865234,2.7607422-.0146484.3232422-.0078125.6484375,0,.9736328.0097656.40625.0185547.7910156-.0195312,1.1552734-.109375,1.0546875-.2373047,2.1064453-.3652344,3.1582031-.1337891,1.0996094-.2675781,2.1992188-.3808594,3.3027344l-.0263672.2597656c-.2011719,1.9482422-.4091797,3.9638672.15625,5.9707031.0400391.1445312.1230469.2724609.2363281.3691406,1.03125.8730469,2.1669922.9638672,3.0224609.9433594.6591797-.0136719,1.3164062-.0566406,1.9736328-.0996094,1.0166016-.0664062,1.9775391-.1269531,2.9521484-.0888672.8447266.0351562,1.8291016.0927734,2.8642578.2451172.0380859.0927734.0800781.1953125.0849609.2246094l-.0224609.4785156c-.0634766,1.4375-.1240234,2.7939453-.5615234,4.0517578-.0820312.2353516-.3007812.8623047-.5566406,1.1005859-.2539062.2363281-.5048828.4794922-.7558594.7236328-1.1113281,1.0791016-2.1601562,2.0976562-3.4912109,2.4658203-2.8291016.78125-5.6914062,1.6279297-8.4609375,2.4462891l-.6816406.2021484c-1.4716797.4345703-3.0507812.5009766-4.8232422.2021484-.7929688-.1337891-1.6621094-.1767578-2.7304688-.1376953-2.2167969.0869141-3.9199219-.578125-5.3271484-2.0869141-.3173828-.3408203-.6416016-.6708984-.9658203-1.0009766l-.2626953-.2675781c-3.0927734-3.1660156-5.1083984-7.1494141-6.1601562-12.1757812-.7539062-3.6005859-1.2060547-7.3310547-1.6435547-10.9394531l-.2851562-2.3232422c-.2753906-2.2060547-.296875-4.4208984-.0625-6.5839844.0625-.5859375.0527344-1.1689453.0439453-1.7324219l-.0068359-.5205078c-.0009766-.21875-.0185547-.4433594-.0380859-.6669922-.0273438-.3242188-.0537109-.6298828-.0048828-.8613281.3496094-1.6630859.4658203-3.3632812.5791016-5.0068359.0771484-1.1162109.15625-2.2714844.3085938-3.3857422.3232422-2.3681641.7226562-5.4921875.9365234-8.6513672.1845703-2.7089844,1.2236328-4.96875,2.3232422-7.0185547.5537109-1.0332031,1.1269531-2.1005859,1.8486328-2.8066406,1.0058594-.984375,1.875-2.1064453,2.7158203-3.1923828l.5957031-.765625c.2695312-.3427734.5234375-.7099609.7763672-1.0761719.4296875-.6230469.8359375-1.2119141,1.3095703-1.6533203.3974609-.3710938.7519531-.78125,1.0957031-1.1787109.4228516-.4892578.8222656-.9511719,1.2587891-1.2929688l.9091797-.7197266c2.2958984-1.828125,4.4658203-3.5537109,7.1113281-4.1396484,1.1279297-.25,2.2509766-.5771484,3.3359375-.8935547,1.0146484-.2958984,2.0634766-.6015625,3.0927734-.8359375.8398438-.1904297,1.7851562-.1376953,2.7734375-.0839844,1.2675781.0703125,2.5351562.1591797,3.8017578.2480469,2.1484375.1503906,4.3701172.3066406,6.5644531.3662109.7919922.0214844,1.5791016.0810547,2.3662109.140625.53125.0390625,1.0625.0791016,1.5957031.1083984.6347656.0341797,1.0419922.3066406,1.4052734.9414062.0878906.1542969.1826172.3046875.2773438.4560547.1816406.2871094.3525391.5595703.4589844.8359375.5273438,1.3681641,1.5234375,1.9169922,2.4287109,2.2734375,1.2998047.5107422,1.9570312-.21875,2.4296875-1.0029297.2558594-.4238281.5039062-.8544922.7519531-1.2851562.3574219-.6201172.7148438-1.2402344,1.0947266-1.8398438.5039062-.7929688,1.0810547-1.4980469,1.6933594-2.2451172.4316406-.5263672.8613281-1.0517578,1.2626953-1.6054688,1.4404297-1.9873047,3.1748047-3.4453125,5.0107422-4.9892578.4130859-.3476562.8251953-.6943359,1.234375-1.0478516.9521484-.8222656,1.7402344-1.7558594,2.4658203-2.640625.6064453-.7402344.8310547-1.6552734.6855469-2.7988281-.2744141-2.1523438-.6933594-3.9003906-1.3164062-5.5009766-1.3339844-3.4199219-2.7548828-6.2226562-4.3447266-8.5703125-1.3300781-1.9628906-2.5966797-3.3623047-3.9853516-4.4042969-1.9814453-1.4873047-4.0029297-2.8339844-6.1796875-4.1152344-1.5273438-.8994141-3.1816406-1.5644531-4.9150391-1.9765625-1.4375-.3417969-2.9023438-.5654297-4.3183594-.7822266-.9433594-.1435547-1.8867188-.2880859-2.8242188-.4658203-2.2792969-.4345703-4.5742188-.4638672-7.0136719-.0869141-.9257812.1435547-1.8642578.15625-2.8574219.1699219-.484375.0068359-.96875.0136719-1.453125.0361328-.4199219.0195312-.8408203.0634766-1.2578125.1201172-.6904297.0917969-1.3808594.1933594-2.0712891.2949219-1.390625.2050781-2.828125.4160156-4.2363281.5410156-3.6845703.3251953-7.0488281,1.9277344-10.3037109,3.4765625l-.2763672.1318359c-.28125.1347656-.5107422.3261719-.7119141.4951172l-.1201172.0996094c-2.2792969,1.8583984-4.9423828,4.1083984-7.4179688,6.7138672-3.3955078,3.5722656-6.4941406,7.5693359-9.2099609,11.8808594-1.5996094,2.5400391-3.2783203,5.2695312-4.6689453,8.2470703-.7841797,1.6796875-1.5380859,3.4082031-2.2675781,5.0800781-.7978516,1.8300781-1.6240234,3.7236328-2.4873047,5.5449219-1.1621094,2.4511719-2.2646484,4.8701172-2.9755859,7.5234375-.2851562,1.0664062-.5976562,2.1220703-.9111328,3.1787109-.2705078.9140625-.5419922,1.8291016-.7958984,2.7519531l-.1357422.4951172c-.4345703,1.578125-.8847656,3.2099609-1.2255859,4.8574219-1.4453125,6.9882812-2.1630859,14.2011719-2.796875,20.5644531-.3378906,3.3935547-.6728516,7.0097656-.7207031,10.6337891-.0107422.8349609-.0302734,1.6708984-.0498047,2.5068359-.0791016,3.4755859-.1621094,7.0693359.3564453,10.6416016.1708984,1.1796875.3193359,2.3632812.46875,3.5458984Z" stroke-width="0"/>
  </g>
</svg>