<?xml version="1.0" encoding="UTF-8"?>
<svg id="Layer_2" data-name="Layer 2" xmlns="http://www.w3.org/2000/svg" viewBox="0 0 93.4270286 160.6258415">
  <g id="Layer_1-2" data-name="Layer 1">
    <g>
      <path d="m93.2508762,121.3533806c-.5498047-1.3222656-.6806641-1.6357422-1.5029297-1.8808594l-.3935547-.1181641c-1.6308594-.4931641-3.3193359-1.0019531-5.15625-.4550781-.7333984.2167969-1.2861328.3232422-1.7900391.3447266l-.5175781.0234375c-.9423828.046875-1.8310547.0917969-2.6591797-.1005859-1.0917969-.2490234-2.2402344-.3642578-3.546875-.3515625-2.2763672.0224609-4.0244141.1533203-5.6689453.4228516-1.7558594.2890625-3.59375.3339844-5.3720703.3769531-.4365234.0097656-.8720703.0205078-1.3085938.0341797-.8193359.0283203-1.6660156.0039062-2.4824219-.0185547-.6914062-.0195312-1.3837891-.0390625-2.0751953-.0302734-.8554688.0087891-1.7109375.0478516-2.5654297.0859375-.53125.0234375-1.0634766.0478516-1.5839844.0644531.0908203-.1699219.1767578-.3242188.2675781-.4736328.1103516-.1835938.2373047-.3583984.3632812-.5322266.2900391-.4013672.6191406-.8554688.7910156-1.4179688.2558594-.8320312.7558594-1.4023438,1.3330078-2.0615234l.2109375-.2402344c.6689453-.7607422,1.3603516-1.5478516,1.9589844-2.5107422.4355469-.6992188.9599609-1.3125,1.5146484-1.9619141.3271484-.3837891.6542969-.7675781.9648438-1.1699219.8554688-1.1074219,1.8691406-1.9335938,2.9423828-2.8085938.5966797-.4863281,1.2128906-.9892578,1.7998047-1.5449219.4472656-.421875.9013672-.8339844,1.3544922-1.2460938,1.2167969-1.1064453,2.4755859-2.25,3.6064453-3.5917969.2138672-.2519531.4306641-.5.6474609-.7480469.3232422-.3701172.6474609-.7402344.9599609-1.125.3183594-.390625.6435547-.7744141.96875-1.1582031.8408203-.9921875,1.7099609-2.0175781,2.4619141-3.1650391,1.1015625-1.6777344,2.1347656-3.4589844,3.1337891-5.1816406.4033203-.6953125.8056641-1.3896484,1.2148438-2.0810547.1738281-.2958984.3300781-.6113281.4707031-.9355469,1.9257812-4.4638672,3.1689453-8.6845703,3.8007812-12.9023438.1777344-1.1943359.3623047-2.3876953.5458984-3.5810547.4443359-2.890625.9052734-5.8808594,1.2832031-8.8417969.2529297-1.9755859.2753906-3.7314453.0693359-5.2177734-.2998047-2.1591797-.7851562-4.296875-1.2558594-6.3652344l-.3398438-1.5087891c-.1269531-.5693359-.2949219-1.1279297-.4628906-1.6845703-.2373047-.7861328-.4619141-1.5292969-.5605469-2.2910156-.3789062-2.9277344-.9736328-5.8339844-1.7675781-8.6386719-.6220703-2.1943359-1.3642578-4.3642578-2.0830078-6.4619141l-.2783203-.8144531c-.2470703-.7246094-.6083984-1.3994141-1.0175781-1.8994141-1.2324219-1.5097656-1.8847656-3.5273438-2.2685547-4.9140625-.6416016-2.3183594-1.7060547-4.2929688-2.7363281-6.203125-.4902344-.9101562-.9970703-1.8515625-1.4433594-2.8046875-.3164062-.6757812-.8232422-1.2041016-1.2734375-1.6474609-.6865234-.6748047-1.4238281-1.3808594-2.2294922-1.9453125-.8798828-.6162109-1.6699219-1.0205078-2.4160156-1.2333984-1.2558594-.359375-2.5341797-.671875-3.7705078-.9726562-.8955078-.21875-1.7900391-.4375-2.6826172-.6738281-1.3945312-.3701172-2.7861328-.7568359-4.1777344-1.1435547-2.5292969-.7021484-5.1445312-1.4287109-7.7402344-2.0410156-.8896484-.2109375-1.7744141-.4609375-2.6601562-.7109375C45.8993137.6707634,43.5946262.0203728,41.1991184.0027947c-1.6367188-.0117188-3.2734375.015625-4.9101562.0410156l-1.6699219.0253906c-.1914062.0009766-.3496094.0517578-.5273438.1054688l-.7460938.1367188c-.5478516.0976562-1.0957031.1953125-1.6386719.3251953-.6621094.15625-1.3789062.3681641-2.1933594.6474609-.2988281.1025391-.5927734.2333984-.8857422.3652344-.2128906.0957031-.4267578.1923828-.6425781.2734375-.6416016.2402344-1.2841797.4736328-1.9267578.7070312-.6962891.2529297-1.3916016.5058594-2.0849609.7666016l-1,.3710938c-1.0625.3916016-2.1611328.7958984-3.2314453,1.2714844l-.6982422.3046875c-2.1777344.9394531-4.4287109,1.9111328-5.8242188,4.6816406-.0234375.0253906-.0517578.0458984-.0791016.0683594-.1054688.0878906-.2490234.2080078-.3681641.3925781-.359375.5566406-.7285156,1.1035156-1.0976562,1.6503906-1.5742188,2.3310547-3.2021484,4.7421875-4.0283203,7.8564453-.0439453.1640625-.1337891.34375-.2294922.5332031-.0800781.1582031-.1591797.3164062-.2255859.4814453l-.5039062,1.2402344c-.5361328,1.3134766-1.0712891,2.6279297-1.578125,3.9589844-.5488281,1.4355469-1.0595703,2.8955078-1.5703125,4.3535156l-.1679688.4794922c-.9667969,2.7568359-2.0625,5.8818359-2.3457031,9.3007812l-.0507812.6699219c-.0449219.6201172-.0869141,1.2050781-.1787109,1.7792969-.1777344,1.1269531-.2546096,2.2764871-.5654297,3.3740234-1.1053563,3.9031216,2.1181641,3.5107422,2.265625,2.734375.3222656-1.7050781.6269531-3.3154297.8515625-4.9667969.6240234-4.5996094,1.5693359-8.5585938,2.8916016-12.1025391.3955078-1.0595703.7841797-2.1220703,1.1728516-3.1855469.6875-1.8798828,1.3974609-3.8242188,2.1347656-5.7070312.7246094-1.8496094,1.5214844-3.6992188,2.2919922-5.4882812l.7832031-1.8222656c.0195312-.046875.0849609-.1269531.1474609-.2041016.0576172-.0712891.1162109-.1435547.1699219-.2197266l.4150391-.5976562c.2919922-.4238281.5839844-.8476562.890625-1.2529297.2451172-.3232422.4833984-.6591797.7226562-.9951172.6064453-.8515625,1.1787109-1.6572266,1.8457031-2.2568359.8642578-.7783203,1.9570312-1.4394531,3.1601562-1.9111328.9238281-.3632812,1.8857422-.6835938,2.8154297-.9931641,1.3447266-.4482422,2.7363281-.9121094,4.0888672-1.5244141.3818359-.1728516.7910156-.2958984,1.2246094-.4257812.5527344-.1669922,1.125-.3388672,1.6845703-.6289062,2.0576172-1.0693359,4.3847656-1.5693359,7.3115234-1.5693359.0537109,0,.1074219.0009766.1611328.0009766,1.7177734.0107422,3.5371094.0615234,5.5615234.15625.8310547.0380859,1.7734375.0820312,2.6357422.2988281,1.3466797.3388672,2.7158203.7294922,4.0400391,1.1083984.8525391.2431641,1.7050781.4873047,2.5595703.7197266.4433594.1210938.8916016.2109375,1.3408203.3017578.3427734.0683594.6845703.1367188,1.0244141.2207031,2.6025391.6455078,5.2041016,1.2958984,7.8027344,1.9648438.5029297.1289062,1.0078125.2529297,1.5126953.3769531,1.4199219.3476562,2.8886719.7080078,4.2871094,1.1923828,1.8388672.6367188,3.8525391,1.6591797,4.8583984,4.40625.1142578.3115234.2851562.5722656.4375.7861328,1.0029297,1.40625,1.8300781,3.1142578,2.6025391,5.375.9013672,2.6376953,1.9384766,4.8828125,3.1708984,6.8632812.4765625.7685547.8769531,1.6103516,1.15625,2.4335938l.3955078,1.1582031c.9990234,2.9101562,2.0332031,5.9199219,2.3056641,9.1455078.0283203.3369141.0673828.7285156.1669922,1.1152344l.3251953,1.2519531c.8457031,3.2578125,1.7207031,6.6259766,2.2763672,10.0322266.0732422.4492188.1621094.8974609.2509766,1.3447266.1875.9433594.3642578,1.8349609.3935547,2.7294922l.0175781.5009766c.0517578,1.4072266.0996094,2.7363281-.1621094,4.0957031-.4541016,2.3525391-.796875,4.7724609-1.1279297,7.1123047-.1103516.7802734-.2216797,1.5595703-.3359375,2.3378906-.6142578,4.1630859-1.3095703,7.265625-2.2539062,10.0595703l-.0615234.1835938c-.6308594,1.8720703-1.2841797,3.8066406-2.2939453,5.4169922-.5917969.9462891-1.1542969,1.9355469-1.6972656,2.8935547-.2265625.3984375-.4521484.796875-.6806641,1.1933594-.1103516.1894531-.2128906.3896484-.3144531.5898438-.1816406.3554688-.3535156.6904297-.5537109.9306641-.5898438.7070312-1.1259766,1.4814453-1.6445312,2.2314453-.9638672,1.3916016-1.8740234,2.7070312-3.0849609,3.5976562-.1982422.1464844-.3232422.3300781-.4228516.4775391-.0322266.0478516-.0615234.0976562-.0986328.1367188l-.2587891.2705078c-.7773438.8134766-1.5556641,1.6269531-2.3447266,2.4228516-1.0996094,1.1083984-2.2773438,2.1503906-3.4169922,3.1591797-.4667969.4121094-.9326172.8251953-1.3955078,1.2431641-2.0439453,1.8486328-3.8154297,4.1201172-5.5273438,6.3173828-.6123047.7861328-1.2255859,1.5712891-1.8496094,2.3388672-.4189453.5136719-.6953125,1.140625-.9619141,1.7460938-.1328125.3007812-.2646484.6025391-.4150391.8828125-.0419922.0791016-.1289062.1699219-.2304688.2753906-.0908203.0947266-.1816406.1914062-.2636719.2949219-.3037109.3828125-.6123047.7607422-.9208984,1.1376953-.7382812.9042969-1.5009766,1.8398438-2.1992188,2.8388672-.2158203.3095703-.4257812.625-.6347656.9404297-.8378906,1.2587891-1.6289062,2.4482422-2.7431641,3.1523438-.7998047.5048828-1.0292969,1.7216797-.6992188,2.4707031.1728516.3955078.5292969.6835938.9775391.7890625.5039062.1191406,1.0449219-.0087891,1.4472656-.3417969.171875-.1425781.3017578-.3056641.4169922-.4482422l3.0615234-3.5283203c.6640625-.765625,1.1074219-1.2314453,1.6699219-1.2353516,2.2675781-.0146484,4.6103516-.03125,6.9550781.0283203.5429688.0136719,1.0869141.0361328,1.6298828.0595703,2.1914062.0908203,4.4541016.1865234,6.7207031-.3310547.1816406-.0419922.4082031-.0380859.6503906-.0351562.2167969.0039062.4345703.0058594.6494141-.0146484.4990234-.046875,1.0878906-.1123047,1.6699219-.2382812,2.0927734-.4511719,4.1962891-.4648438,6.2519531-.0449219,2.4033203.4921875,4.5791016.4804688,6.6523438-.0361328.7685547-.1914062,1.6054688-.1494141,2.4902344-.1064453l.21875.0039062c.0390625.0146484.1210938.0712891.203125.1328125-.875,1.7324219-1.1210938,3.5722656-1.3603516,5.3564453l-.1572266,1.1523438c-.1074219.7929688-.21875,1.6132812-.3896484,2.3798828-.9882812,4.4150391-1.3320312,8.8417969-1.5439453,14.1308594-.0205078.4970703-.0449219.9941406-.0703125,1.4912109-.0634766,1.2597656-.1298828,2.5625-.1054688,3.8544922.0332031,1.7475586-.0356445,3.2470703-.2016602,4.6635742-.0366211-.0512695-.0639648-.0986328-.1049805-.1508789-.6630859-.8505859-1.4882812-1.1152344-2.2158203-1.3486328l-.1132812-.0371094c-3.3984375-1.0996094-6.7421875-.7832031-9.8496094-.2783203-2.9121094.4736328-5.6542969.3125-8.3964844-.4960938-1.4375-.4238281-2.9238281-.8632812-4.5019531-.8847656-1.1523438-.015625-2.3339844-.0976562-3.4775391-.1777344-.5576172-.0380859-1.1162109-.0771484-1.6748047-.109375-.3378906-.0185547-.6757812-.0429688-1.0146484-.0673828-.8583984-.0625-1.7421875-.1259766-2.6347656-.1035156-2.8095703.0732422-5.34375.1210938-7.9082031-.0322266-1.2099609-.0722656-2.4306641-.0859375-3.6123047-.0986328-1.8710938-.0205078-3.8066406-.0419922-5.6865234-.3027344-1.3574219-.1875-2.7314453-.2421875-4.0595703-.2958984-1.0292969-.0410156-2.0927734-.0839844-3.1230469-.1884766-1.6748047-.1708984-3.3408203-.0498047-4.953125.0654297-1.5859375.1142578-3.0849609.2226562-4.6044922.078125-1.3457031-.1308594-2.6806641.2060547-3.7783203.9365234-.1953125.1308594-.3232422.2958984-.4707031.4882812-.0664062.0869141-.1474609.1923828-.2548828.3203125-.1826172.21875-.2255859.5234375-.109375.7841797.1152344.2617188.3701172.4345703.6552734.4453125.1835938.0078125.3476562.0302734.4941406.0498047.3837891.0498047.7802734.1025391,1.1933594-.0917969.8554688-.4072266,1.7822266-.3808594,2.7626953-.3564453l.2470703.0068359c.7675781.0175781,1.5361328.0146484,2.3037109.0117188.8945312-.0048828,1.7841797-.0078125,2.6748047.0234375,2.1474609.0751953,4.3496094.1943359,6.5439453.3525391.8066406.0585938,1.6142578.15625,2.4208984.2529297,1.5068359.1806641,3.0644531.3769531,4.6181641.3037109,1.9951172-.0859375,4.0517578.0341797,6.0361328.1474609,2.5976562.1474609,5.2841797.3007812,7.9599609.0195312.5302734-.0556641,1.0869141-.0146484,1.6757812.0322266.1992188.015625.3974609.03125.5947266.0429688,1.5244141.0898438,3.0488281.1884766,4.5732422.3056641.5009766.0380859,1.0019531.0595703,1.5029297.0810547,1.4150391.0615234,2.7519531.1191406,4.0693359.5449219,2.2304688.7197266,4.6474609,1.3505859,7.2001953,1.0917969,1.71875-.1738281,3.4384766-.3378906,5.1582031-.4960938l.4179688-.0390625c1.8144531-.1728516,3.5273438-.3349609,5.2216797.2412109l.2822266.0957031q1.4365234.4833984,2.3955078,2.1953125c.1308594.2324219.375.3779297.6416016.3828125h.0126953c.2626953,0,.5058594-.1367188.6416016-.3623047.0429688-.0708008.0756836-.1328125.1152344-.2001953.0561523.6606445.1494141,1.2871094.2470703,1.8300781.0644531.3574219.375.6171875.7382812.6171875.1044922,0,.2041016.0087891.2988281.0166016.1113281.0097656.2314453.0195312.3583984.0195312.2207031,0,.4589844-.0302734.6962891-.1474609.5439453-.2675781.7861328-1.0019531.8369141-1.3505859.0888672-.5888672.0908203-1.1806641.0927734-1.84375.0009766-.2783203-.0185547-.5634766-.0390625-.8466797-.0332031-.4599609-.0634766-.8935547.0136719-1.2392578.28125-1.2666016.2568359-2.5048828.2333984-3.7021484l-.0136719-.7089844c-.0234375-1.2412109-.0488281-2.5234375.0107422-3.765625.1142578-2.3769531.2734375-4.7509766.4316406-7.1230469l.0947266-1.4199219c.0253906-.3847656.0869141-.765625.1464844-1.1464844l1.5078125-9.953125c.2832031-1.8652344.7246094-3.7490234,2.0244141-4.8916016.2421875-.2128906.3212891-.5556641.1972656-.8525391l-.1181641-.28125Z" stroke-width="0"/>
      <path d="m13.1239231,138.3641228c-.015625-.1572266.0205078-.3701172.0585938-.5947266.0283203-.1689453.0566406-.3388672.0712891-.5048828.0917969-1.0068359.1835938-2.0136719.2587891-3.0244141.0302734-.4140625.0498047-.8300781.0693359-1.2470703.0351562-.7695312.0683594-1.4970703.1708984-2.2119141.1923828-1.3417969.4101562-2.6777344.6279297-4.0126953.2539062-1.5517578.5068359-3.1035156.7197266-4.6630859.2470703-1.8105469.7519531-3.5683594,1.6357422-5.7021484,1.0107422-2.4443359,1.9589844-4.1728516,3.0742188-5.6044922l.8154297-1.0517578c.7822266-1.0126953,1.5927734-2.0605469,2.4121094-3.0498047,1.0175781-1.2265625,2.0175781-2.4140625,3.0722656-3.4580078.9052734-.8945312,1.8623047-1.7587891,2.7890625-2.59375.6152344-.5546875,1.2314453-1.109375,1.8378906-1.6787109l.2001953-.1875c1.5830078-1.484375,3.0771484-2.8867188,4.8662109-3.6474609.4199219-.1777344.7421875-.5009766,1.0273438-.7861328l.1923828-.1894531c.3896484-.3701172.78125-.7353516,1.1728516-1.0996094,1.2021484-1.1191406,2.4453125-2.2753906,3.5957031-3.5810547.7773438-.8818359,1.6474609-1.6191406,2.5693359-2.3994141.4765625-.4042969.953125-.8076172,1.4160156-1.2324219,1.8574219-1.7011719,3.6396484-3.4179688,5.0214844-5.6943359.1035156-.171875.2763672-.3261719.4765625-.5039062.1142578-.1025391.2285156-.2041016.3349609-.3115234.4248047-.4267578.8847656-.796875,1.3730469-1.1884766.9482422-.7626953,1.9296875-1.5517578,2.6953125-2.7753906.1015625-.0615234.2412109-.1445312.3720703-.2773438.1503906-.1523438.3046875-.2998047.4589844-.4482422.4414062-.4238281.8984375-.8632812,1.2910156-1.4091797.9550781-1.3300781,1.9609375-2.7763672,2.8496094-4.3398438.5419922-.9521484.8779297-2.0644531,1.1601562-3.125.1464844-.5488281.2099609-1.1103516.2714844-1.6533203.0419922-.3701172.0839844-.7412109.1542969-1.1015625.2851562-1.4638672.5273438-2.9072266.3632812-4.46875-.0244141-.2314453.0068359-.5058594.0390625-.7949219.0224609-.2001953.0439453-.3994141.0527344-.5976562.1533203-3.3652344.1220703-7.3222656-1.2646484-11.1503906-1.7675781-4.8847656-4.6796875-8.6425781-8.9033203-11.4863281-.5-.3369141-1.0146484-.6386719-1.5292969-.9404297l-.6523438-.3867188c-2.0166016-1.2148438-4.4082031-2.4765625-7.1835938-2.0908203-.125.0195312-.2080078.0117188-.2412109-.0009766-2.0048828-.7080078-3.9394531-.3730469-5.5683594.046875-3.0322266.7832031-5.5410156,2.5146484-7.4570312,5.1464844-2.7265625,3.7460938-5.3271484,7.4785156-7.1806641,11.9541016-.5068359,1.2216797-.8583984,2.2939453-.9238281,3.5537109l-.0644531,1.2587891c-.2080078-.0351562-.4150391-.0693359-.6210938-.1015625-.9921875-.1601562-1.9287109-.3105469-2.7958984-.6386719-3.0136719-1.140625-6.2773438-2.4960938-9.9775391-4.1464844-1.1259766-.5009766-2.2607422-.7509766-3.3574219-.9931641l-.65625-.1464844c-.3740234-.0859375-.7353516-.0117188-1.0058594.2109375-.3037109.25-.4511719.6337891-.4365234,1.140625.0087891.2900391.1835938.5498047.4492188.6660156.1337891.0576172.2685547.125.4042969.1933594.3515625.1738281.75.3720703,1.1894531.4707031,1.0146484.2265625,1.9697266.7167969,2.9804688,1.2353516l.9931641.5146484c1.6210938.8466797,3.296875,1.7226562,5.1728516,1.9648438.2070312.0263672.4804688.1650391.7128906.3632812,1.0234375.8671875,2.2695312,1.3671875,3.8105469,1.5263672,1.1210938.1162109,2.2011719.4501953,3.34375.8046875.4042969.125.8085938.25,1.2158203.3662109.1083984.0302734.2158203.0664062.3232422.1025391.2919922.0976562.6240234.2080078.9873047.2373047.3720703.0302734.6455078-.1259766.9414062-.2910156.1210938-.0673828.2685547-.1494141.4550781-.2382812.2197266-.1035156.375-.3066406.4179688-.5449219s-.0322266-.4824219-.2011719-.65625c-1.3378906-1.3740234-1.5556641-2.7929688-.7519531-4.8984375l.1621094-.4306641c.3974609-1.0556641.7724609-2.0517578,1.3457031-2.9072266.7373047-1.1005859,1.3857422-2.2246094,1.9267578-3.3417969.5400391-1.1142578,1.2246094-2.1904297,2.1552734-3.3857422.4394531-.5644531.8515625-1.1640625,1.2626953-1.7636719l.4853516-.703125c.0712891-.1015625.1386719-.2109375.2050781-.3193359.0800781-.1318359.1630859-.2675781.2304688-.3369141,2.4599609-2.5136719,5.3710938-3.1181641,7.8603516-3.4023438,1.0146484.5361328,2.0488281.5175781,2.9619141.4980469.2441406-.0058594.4873047-.0117188.7304688-.0039062,1.2470703.03125,2.2841797.3408203,3.2626953.9746094.5869141.3808594,1.1914062.7060547,1.7763672,1.0205078.5078125.2724609,1.015625.5449219,1.5087891.8535156.7089844.4462891,1.4521484.9462891,2.078125,1.5849609.5537109.5644531,1.0537109,1.2109375,1.5839844,1.8964844.21875.2822266.4375.5654297.6591797.8417969,1.8574219,2.3095703,3.1132812,5.2832031,3.8417969,9.0908203.5234375,2.7382812.3525391,5.4365234.1728516,8.2929688-.0605469.9501953-.1201172,1.9003906-.1533203,2.8505859-.0009766.0429688-.0136719.0849609-.0224609.1279297-.0244141.1162109-.046875.2333984-.0537109.3505859-.1474609,2.5322266-.953125,4.8564453-2.4619141,7.1064453l-.3613281.5439453c-.8867188,1.3349609-1.7226562,2.5966797-2.8759766,3.4882812-1.234375.9541016-2.3837891,2.0908203-3.4951172,3.1894531-.3554688.3505859-.7099609.7011719-1.0664062,1.0458984-.2636719.2548828-.4707031.5429688-.6699219.8222656-.1181641.1630859-.234375.328125-.3613281.4755859-.328125.3798828-.6523438.7666016-.9765625,1.1533203-.8134766.96875-1.6542969,1.9707031-2.5341797,2.8359375-1.09375,1.0751953-2.2636719,2.09375-3.3955078,3.0800781-.5390625.4697266-1.0791016.9394531-1.6123047,1.4169922-.1796875.1601562-.3535156.3544922-.5458984.6103516-.9960938,1.3203125-2.1572266,2.3554688-3.3847656,3.4501953-.3544922.3154297-.7080078.6318359-1.0576172.9541016-.2783203.2558594-.6123047.4609375-.9667969.6767578-.3095703.1884766-.6181641.3789062-.9082031.6054688-1.5117188,1.1787109-3.2949219,2.5820312-5.0615234,4.0527344-.5292969.4394531-1.0078125.9492188-1.4697266,1.4423828l-.4599609.4853516c-.1513672.1572266-.2958984.3291016-.4384766.5-.1904297.2285156-.3710938.4443359-.5517578.59375-2.0234375,1.6640625-3.7333984,3.7841797-5.3867188,5.8339844-.4755859.5878906-.9492188,1.1757812-1.4306641,1.7539062-.4365234.5214844-.8251953,1.0947266-1.2011719,1.6484375l-.3027344.4443359c-.6894531,1.0009766-1.1630859,2.1416016-1.6210938,3.2441406-.2929688.7041016-.5693359,1.3691406-.8955078,1.9960938-1.0546875,2.0263672-1.4716797,4.1298828-1.765625,6.1015625l-.2587891,1.75c-.2910156,1.9755859-.5830078,3.9501953-.9150391,5.9140625-.2041016,1.2021484-.2929688,2.4150391-.3789062,3.5888672-.0292969.4072266-.0595703.8154297-.09375,1.2236328-.0908203,1.0683594-.1435547,2.1425781-.1962891,3.2167969-.1132812,2.3085938-.2304688,4.6953125-.7529297,6.953125-.2470703,1.0664062-.3730469,2.1728516-.4951172,3.2431641l-.0927734.8017578c-.0996094.8095703.3144531,1.5097656,1.0302734,1.7421875.2138672.0693359.4189453.1025391.6132812.1025391.5966797,0,1.0820312-.3232422,1.3496094-.9257812.1611328-.3603516.3398438-.8349609.2949219-1.3115234-.0615234-.6445312.0634766-1.2744141.1953125-1.9404297.0566406-.2832031.1123047-.5673828.1552734-.8535156.0673828-.4404297.1425781-.8789062.2177734-1.3183594.2949219-1.7158203.5986328-3.4892578.4130859-5.3623047Z" stroke-width="0"/>
    </g>
  </g>
</svg>