<?xml version="1.0" encoding="UTF-8"?>
<svg id="Layer_2" data-name="Layer 2" xmlns="http://www.w3.org/2000/svg" viewBox="0 0 87.4374729 153.3654508">
  <g id="Layer_1-2" data-name="Layer 1">
    <g>
      <path d="m85.358223,83.3332242l-.2587891-.7529297c-.7773438-2.2695312-2.0517578-4.1962891-3.8945312-5.8886719-1.6982422-1.5595703-2.9335938-2.84375-4.0039062-4.1640625-1.1923828-1.4697266-2.6191406-2.3837891-4.2431641-2.7167969-1.3486328-.2773438-2.7880859-.5556641-4.2636719-.6386719-1.8964844-.1064453-3.6826172-.7558594-5.5742188-1.4423828l-.6132812-.2226562c-1.8359375-.6601562-3.8398438-1.2695312-5.9208984-1.2421875-1.1660156.0136719-2.3320312.0146484-3.4980469.015625-1.6259766.0019531-3.2529297.0029297-4.8789062.0390625-1.3505859.0302734-2.7783203.1826172-4.0722656,1.0839844-.2695312.1884766-.5429688.3740234-.8154297.5585938-1.3154297.8916016-2.6757812,1.8125-3.8027344,3.1845703-.4619141.5615234-.9121094,1.1357422-1.3623047,1.7109375-.6337891.8095703-1.2900391,1.6464844-1.9619141,2.4208984-1.3789062,1.5927734-2.6298828,3.3535156-3.8056641,5.359375.0234375-.1425781.03125-.2929688.015625-.4501953-.0136719-.1455078-.0703125-.2832031-.1621094-.3974609-.40625-.5048828-.5888672-1.0195312-.5917969-1.6699219-.0097656-2.2695312-.0556641-4.6357422-.1376953-7.03125-.1162109-3.3730469.6005859-6.6914062,2.3232422-10.7578125.7744141-1.8271484,1.6777344-3.6123047,2.4746094-5.1875.4765625-.9414062,1.0380859-1.9140625,1.671875-2.8925781,1.40625-2.1748047,3.2636719-3.8886719,5.0605469-5.546875l.9189453-.8515625c.5078125-.4755859,1.0400391-.9023438,1.6035156-1.3535156,1.0595703-.8496094,2.1552734-1.7285156,3.078125-2.9375.0751953-.0507812.1494141-.1035156.2177734-.1630859,3.6201172-3.2236328,7.9277344-4.9892578,12.0927734-6.6972656l.5175781-.2119141c2.2060547-.9052734,4.5380859-1.3056641,6.9521484-1.203125.4121094.0185547.8251953.0253906,1.2382812.03125.578125.0087891,1.15625.0175781,1.7324219.0634766.5556641.0439453,1.1113281.0771484,1.6679688.1103516,2.4931641.1503906,4.8476562.2919922,7.1083984,1.3369141.4550781.2099609.90625.0527344,1.2001953-.0537109.3613281-.0634766.6240234-.3789062.6201172-.7460938l-.0390625-3.7011719c-.0302734-2.9628906-.0605469-5.8632812-.0878906-8.7636719-.0322266-3.5615234.5166016-7.1748047,1-10.3632812.1191406-.78125.2636719-1.5566406.4228516-2.4082031l.2431641-1.3154297c.0292969-.1650391.0029297-.3359375-.0761719-.484375-.5478516-1.0322266-1.6748047-2.8486328-3.0605469-3.4101562l-.9404297-.3867188c-1.5263672-.6328125-3.1044922-1.2871094-4.7363281-1.6230469-1.6064453-.3310547-3.1640625-.7490234-5.0068359-1.2753906-.515625-.1484375-1.0234375-.28125-1.5654297-.2910156-1.8779297-.0332031-4.34375.0429688-6.7861328.9150391-1.6005859.5712891-3.2792969.9833984-4.9013672,1.3828125-1.2451172.3056641-2.5322266.6220703-3.7958984,1.0107422-.6416016.1982422-1.2675781.4404297-1.8720703.6748047-.578125.2236328-1.1552734.4472656-1.7412109.6289062-2.734375.8457031-5.3505859,2.0087891-7.7744141,3.4580078-.4345703.2597656-.8945312.4716797-1.3808594.6962891-.6484375.2998047-1.3183594.609375-1.9501953,1.0478516-3.0449219,2.1162109-5.9755859,4.4814453-8.7099609,7.0283203-1.1103516,1.0341797-2.1591797,2.1708984-3.0839844,3.1728516l-.9580078,1.0322266c-2.6982422,2.9013672-5.4882812,5.9013672-7.4990234,9.7714844-.484375.9316406-1.0224609,1.8544922-1.5419922,2.7470703-.9960938,1.7109375-2.0263672,3.4804688-2.7822266,5.4648438-.4472656,1.1748047-.9794922,2.3369141-1.4951172,3.4599609-.4345703.9482422-.8837891,1.9287109-1.2890625,2.9296875-1.0517578,2.5996094-2.0976562,5.3769531-3.3916016,9.0087891l-.0615234.1748047c-.2226562.6210938-.4521484,1.2626953-.5996094,1.9443359-.6054688,2.7773438-1.5039062,5.4980469-2.3740234,8.1298828l-.2880859.8730469c-.6835938,2.0800781-1.2226562,4.140625-1.6474609,6.2978516-.0595703.2978516-.1152344.5976562-.1708984.8964844-.1298828.7021484-.265625,1.4287109-.4414062,2.1123047-.9824219,3.8154297-1.4970703,8.0830078-1.5742188,13.046875-.0546875,3.5390625-.0322266,7.1357422-.0097656,10.6123047l.0087891,1.4951172c.0068359,1.5292969.0146484,3.1113281.1708984,4.6630859.3583984,3.5507812,1.2167969,7.0019531,2.046875,10.3398438l.078125.3134766c.6621094,2.6660156,1.9130859,4.9775391,3.1240234,7.2128906l.3251953.6015625c.9482422,1.7607422,1.9658203,3.578125,3.0244141,5.3994141.8613281,1.4863281,1.6025391,2.71875,2.4169922,3.9033203.4355469.6328125.9042969,1.2333984,1.3574219,1.8134766.5097656.6533203.9912109,1.2695312,1.4355469,1.9355469.734375,1.0966797,1.6240234,2.1142578,2.7207031,3.1103516.7480469.6787109,1.4873047,1.3701172,2.2275391,2.0625.5234375.4902344,1.046875.9794922,1.5732422,1.4648438.2695312.2480469.5332031.5107422.7978516.7724609.6757812.6699219,1.375,1.3632812,2.1865234,1.8652344,1.7519531,1.0830078,3.9316406,2.4316406,6.3222656,2.9951172,1.1113281.2607422,2.2412109.6367188,3.3330078,1,.4775391.1582031.9560547.3173828,1.4345703.4677734.7919922.25,1.5820312.5078125,2.3730469.765625,1.7509766.5703125,3.5625,1.1611328,5.3691406,1.6552734,2.0566406.5615234,3.7353516.8642578,5.2851562.9501953.7460938.0410156,1.4960938.0546875,2.2402344.0546875.6777344,0,1.3505859-.0107422,2.0126953-.0214844,1.2265625-.0195312,2.4931641-.0400391,3.7265625.0097656,2.7021484.1142578,5.2529297-.8798828,7.6113281-2.9472656l.3466797-.3027344c2.2236328-1.9492188,4.5234375-3.9638672,6.6220703-6.28125,3.6064453-3.9824219,6.4472656-8.1728516,8.6845703-12.8115234.0703125-.1464844.1484375-.2871094.2255859-.4287109.0673828-.1220703.1337891-.2441406.1972656-.3691406l.3759766-.734375c1.4023438-2.7402344,2.8525391-5.5732422,3.8896484-8.6455078.21875-.6494141.3896484-1.3183594.5546875-1.9658203.1455078-.5722656.2910156-1.1445312.4707031-1.7001953.7431641-2.3007812,1.0537109-4.7080078,1.3310547-7.1777344.0761719-.6699219.1191406-1.3427734.1630859-2.0166016.0800781-1.2578125.1572266-2.4453125.4384766-3.6191406.3466797-1.4443359.5693359-3.0673828.7011719-5.109375.1074219-1.6660156.1367188-3.359375.1650391-4.9960938.0117188-.6738281.0234375-1.3466797.0410156-2.0195312.0361328-1.4892578-.1689453-2.9570312-.6269531-4.4882812-.4472656-1.4951172-.9560547-2.9755859-1.4482422-4.4072266Zm-34.1464844,67.0048828c-.3212891-.0078125-.6376953-.0097656-.953125.0263672-3.0810547.3544922-6.0917969-.4628906-9.1582031-1.4072266-1.671875-.515625-3.3486328-1.0029297-5.0253906-1.4892578-.9072266-.2636719-1.8144531-.5273438-2.7207031-.7958984-2.6904297-.7939453-4.7089844-1.5361328-6.5458984-2.40625-1.6865234-.7988281-3.1308594-2.3144531-4.5283203-3.78125-.1474609-.1542969-.2919922-.3154297-.4365234-.4755859-.3554688-.3955078-.7226562-.8046875-1.1513672-1.1503906-2.8808594-2.3232422-5.4628906-5.3525391-7.6738281-9.0048828l-.5976562-.984375c-1.3886719-2.2841797-2.8242188-4.6474609-4.0576172-7.0849609-1.6328125-3.2324219-3.3212891-6.5751953-3.8701172-10.5087891-.1367188-.9833984-.3535156-1.953125-.5615234-2.890625-.1992188-.8955078-.4052734-1.8203125-.5380859-2.7412109-.2314453-1.6220703-.2568359-3.2880859-.2802734-4.8994141l-.0273438-1.5009766c-.0751953-3.6435547-.1523438-7.4121094.0019531-11.0927734.1943359-4.5732422.4541016-8.6826172,1.6806641-12.6474609l.0341797-.1025391c.0478516-.1337891.1064453-.2998047.1259766-.4980469.4052734-3.8935547,1.6054688-7.5878906,2.7666016-11.1601562.4257812-1.3076172.7802734-2.6533203,1.1240234-3.9541016.3710938-1.4072266.7548828-2.8632812,1.2216797-4.2421875.1708984-.5019531.3544922-.9960938.5380859-1.4902344l.5283203-1.4492188c.2001953-.5556641.4003906-1.1113281.6113281-1.6591797.3632812-.9375.7402344-1.8652344,1.125-2.7890625.0488281-.1142578.1123047-.2226562.1738281-.3300781.1328125-.234375.2841797-.5.3623047-.8310547.4287109-1.8144531,1.2353516-3.3730469,2.0888672-5.0244141.4521484-.875.9208984-1.7792969,1.3242188-2.7207031,1.296875-3.0253906,2.9482422-6.0527344,5.1962891-9.5292969,1.0507812-1.625,2.3291016-3.2050781,3.7988281-4.6943359l.71875-.7255859c1.171875-1.1835938,2.3837891-2.4072266,3.5458984-3.6582031,1.7783203-1.9150391,3.6982422-3.5224609,5.8417969-5.2773438l.2978516-.2431641c1.1865234-.9726562,2.4140625-1.9785156,3.6777344-2.7724609l.9599609-.5986328c1.3222656-.8222656,2.6904297-1.6728516,3.9960938-2.6455078.7734375-.5761719,1.671875-.9423828,2.6689453-1.0878906.8417969-.1230469,1.5488281-.3300781,2.1621094-.6347656,2.1689453-1.0791016,4.4316406-1.515625,6.828125-1.9765625l1.1181641-.21875c1.359375-.2714844,2.7226562-.6142578,4.0410156-.9453125,1.0693359-.2695312,2.1386719-.5380859,3.2128906-.7724609.9863281-.2138672,1.9238281-.3212891,2.8222656-.3212891,1.1582031,0,2.2509766.1787109,3.2988281.5361328.7744141.2646484,1.5615234.4609375,2.3242188.6513672.5957031.1494141,1.1914062.2978516,1.7792969.4794922,1.2675781.390625,2.9277344.9228516,4.5410156,1.5683594.1621094.0644531.3935547.3173828.5976562.5400391.0507812.0546875.1015625.1103516.1533203.1650391-.140625,1.0410156-.2841797,2.0585938-.4257812,3.0595703-.3701172,2.6240234-.7197266,5.1025391-.9619141,7.6210938-.1503906,1.5566406-.1210938,3.1425781-.09375,4.6757812.0117188.6337891.0234375,1.2685547.0224609,1.9003906-.0019531,1.0664062.0029297,2.1318359.0078125,3.1982422l.0078125,2.2832031c.0019531.2412109.0058594.4833984-.0224609.7177734-.0390625.3310547-.1181641.4580078-.1455078.4794922-.0117188.0097656-.0839844.0361328-.2587891.0107422-.3681641-.0488281-.7382812-.09375-1.1074219-.1376953-.9892578-.1181641-2.0107422-.2412109-2.9853516-.4492188-1.3994141-.2998047-2.7773438-.2441406-4.1142578-.1914062-.6894531.0283203-1.3388672.0556641-1.9980469.0341797-.2763672-.0068359-.5507812-.0048828-.8291016-.0019531-.4433594.0058594-.8632812.0097656-1.2792969-.0341797-.8320312-.0839844-1.7158203-.015625-2.6328125.2109375-1.9326172.4785156-4.171875,1.0898438-6.2890625,2.2998047-.9882812.5644531-1.8466797.9423828-2.6240234,1.1572266-1.9755859.5439453-3.640625,1.7441406-5.2509766,2.9042969-.3466797.2490234-.6933594.4990234-1.0419922.7412109-1.1396484.7919922-2.2275391,1.6113281-3.0146484,2.9179688-.1513672.2519531-.3964844.5009766-.6904297.7021484-2.1777344,1.4882812-4.0966797,3.4111328-6.0332031,5.4150391-.2060547.2128906-.4345703.4033203-.6611328.59375-.4521484.3798828-.9199219.7734375-1.28125,1.3320312-.3349609.5195312-.703125,1.0019531-1.0927734,1.5126953-.7519531.9873047-1.5302734,2.0078125-2.0537109,3.3056641-.2587891.6455078-.5322266,1.2822266-.8056641,1.9189453-.0976562.2255859-.1923828.453125-.2861328.6816406-.2363281.5673828-.4589844,1.1044922-.7216797,1.6083984-1.6162109,3.0859375-2.6650391,6.4072266-3.1171875,9.8710938-.0957031.7392578-.0878906,1.4824219-.0791016,2.2021484.0039062.3398438.0078125.6796875,0,1.0166016-.0175781.7705078-.0029297,1.5400391.0107422,2.3105469.0273438,1.4199219.0517578,2.7617188-.1162109,4.1152344-.0947266.7597656.0566406,1.5576172.1992188,2.1679688.2197266.9365234.4658203,1.8632812.7119141,2.7900391.1621094.609375.3232422,1.21875.4775391,1.8310547.0810547.3242188.1259766.6582031.1279297.9667969.0078125,1.0390625.7363281,1.4130859.9755859,1.5351562.7851562.4033203,1.5722656.21875,2.0537109-.4785156l.2929688-.4130859c.3583984-.4970703.7294922-1.0107422.9951172-1.625.7011719-1.6113281,1.6992188-2.9707031,2.6650391-4.2851562,1.8740234-2.5507812,3.6025391-4.6542969,5.2832031-6.4287109,1.2763672-1.3466797,2.8427734-2.421875,4.2080078-3.296875.7158203-.4589844,1.6513672-.5800781,2.3095703-.6005859,1.5576172-.046875,3.1474609-.03125,4.6845703-.0185547,1.0986328.0107422,2.1943359.0205078,3.2949219.0097656,1.2822266-.0068359,2.5820312.3427734,4.0917969.8105469,1.1396484.3525391,2.2744141.7304688,3.4091797,1.1074219.6582031.2197266,1.3173828.4384766,1.9785156.6533203.0859375.0273438.171875.0605469.2587891.09375.3427734.1298828.7734375.2939453,1.2373047.2275391.8916016-.1201172,1.7871094.0400391,2.7363281.2109375.5371094.0976562,1.0927734.1972656,1.6601563.2460938.9921875.0859375,1.8681641.5820312,2.6767578,1.5166016,1.3076172,1.5126953,2.7294922,2.8789062,4.1035156,4.2001953l.8212891.7910156c1.1142578,1.078125,2.1845703,2.3310547,2.4707031,4.1806641.0166016.1044922.0546875.2050781.1132812.2939453.4882812.75.7001953,1.6767578.9238281,2.6582031.1582031.6914062.3212891,1.40625.5917969,2.0888672.4042969,1.0224609.5751953,2.0722656.5234375,3.2080078-.0771484,1.6777344-.0859375,3.4326172-.0263672,5.3632812.0439453,1.3808594-.1552734,2.7119141-.3652344,4.1220703-.1113281.7460938-.2226562,1.4921875-.296875,2.2441406-.2519531,2.546875-.5947266,5.1289062-.9257812,7.6259766l-.09375.7119141c-.4912109,3.7119141-1.4199219,7.1826172-2.7607422,10.3164062-.5654297,1.3222656-1.2167969,2.6308594-1.8466797,3.8974609-.2822266.5654297-.5634766,1.1308594-.8388672,1.7001953l-.6152344,1.2822266c-.5224609,1.0947266-1.0449219,2.1884766-1.6015625,3.2568359-.2998047.5751953-.6455078,1.1123047-1.0126953,1.6806641-.1669922.2597656-.3349609.5195312-.4980469.7832031-1.5185547,2.4619141-3.3125,4.7988281-5.3320313,6.9453125-.3994141.4257812-.7841797.875-1.1679688,1.3251953-.5830078.6835938-1.1347656,1.3300781-1.7421875,1.8916016-2.1914062,2.0283203-4.4580078,4.1240234-7.0380859,5.4316406-.3349609.1699219-.6318359.2421875-.9912109.2421875h-.0048828c-1.4511719,0-2.8984375.0009766-4.3466797.0039062l-1.2421875.0019531-.3261719-.0039062Z" stroke-width="0"/>
      <path d="m56.061348,123.3947476c.1152344-.2265625.3076172-.4423828.5097656-.6708984.1875-.2109375.3740234-.4248047.5351562-.6621094.390625-.5800781.8964844-1.3544922,1.3330078-2.1923828.2441406-.4648438.4541016-.9560547.6630859-1.4482422.1308594-.3076172.2617188-.6142578.4013672-.9140625,1.8886719-4.0292969,2.5498047-8.5107422,2.0224609-13.7001953-.2978516-2.9199219-1.3212891-5.4121094-2.9570312-7.2060547-2.3964844-2.6289062-4.9033203-3.9072266-7.6611328-3.9072266h-.0859375c-1.6542969.015625-3.1640625.4589844-4.7529297,1.3945312-1.7294922,1.0195312-3.078125,2.4560547-4.1699219,3.7275391-1.2519531,1.4589844-2.3466797,3.0859375-3.3417969,4.6269531-.5908203.9140625-.9941406,2.359375.4355469,4.0585938.0742188.0878906.1435547.1806641.2089844.2685547,0,.5205078-.1669922.9814453-.3583984,1.5048828l-.1210938.3378906c-.8320312,2.4013672-1.2539062,5.0957031-1.3261719,8.4794922-.0146484.6474609.0585938,1.1259766.2304688,1.5058594l.3085938.6953125c.4365234.9902344.8867188,2.0126953,1.4853516,2.9150391,2.328125,3.5048828,5.4521484,5.2294922,9.5048828,5.2285156.7568359,0,1.5458984-.0595703,2.3671875-.1796875.3222656-.0458984.6503906-.1757812,1.0341797-.4082031l.1464844-.0888672c1.3261719-.8007812,2.6972656-1.6298828,3.5878906-3.3652344Zm-15.4179688-7.9228516l.0507812-.6074219c.0966797-1.1552734.1933594-2.3105469.3017578-3.4619141.0205078-.2128906.0673828-.3271484.0810547-.3496094.5302734-.8388672.7529297-1.7685547.96875-2.6679688.1044922-.4365234.2089844-.8730469.3515625-1.2910156.3691406-1.0839844.7783203-2.1708984,1.2158203-3.2304688l.1445312-.3476562c.4091797-.9794922.8330078-1.9912109.9970703-3.1777344.0556641-.4052734.2373047-.8574219.4404297-1.0986328,1.8486328-2.1904297,3.5117188-3.2773438,5.390625-3.5244141.3115234-.0400391.6083984-.0615234.8916016-.0615234,1.3359375,0,2.3720703.4619141,3.2851562,1.4414062.2333984.2509766.4804688.4492188.7197266.640625.2519531.2021484.4902344.3925781.6611328.6103516,1.7851562,2.2880859,2.5556641,4.5322266,2.4257812,7.0615234-.0205078.4003906-.015625.8027344-.0097656,1.2050781l.0048828.5253906c0,.0107422,0,.0214844.0009766.0322266.1699219,3.9589844-.921875,7.8173828-3.4345703,12.1396484-.7021484,1.2089844-1.6503906,2.4140625-2.8994141,3.6865234-.9707031.9912109-2.0068359,1.4785156-3.0820312,1.4248047l-.2822266-.0117188c-1.1884766-.0488281-2.3105469-.0947266-3.4140625-.5195312-1.8320312-.7050781-3.1337891-2.0888672-4.0966797-4.3544922-.59375-1.3945312-.8261719-2.7226562-.7128906-4.0634766Zm19.4306641-8.3339844h-.0097656.0097656Z" stroke-width="0"/>
    </g>
  </g>
</svg>