<?xml version="1.0" encoding="UTF-8"?>
<svg id="Layer_2" data-name="Layer 2" xmlns="http://www.w3.org/2000/svg" viewBox="0 0 100.4263036 156.8412236">
  <g id="Layer_1-2" data-name="Layer 1">
    <g>
      <path d="m100.0023242,85.371497l.1386719-1.8095703c.0292969-.3769531.0644531-.7558594.1005859-1.1347656.1142578-1.2275391.2324219-2.4970703.1650391-3.7587891-.1162109-2.1923828-.28125-4.4140625-.4404297-6.5625-.1962891-2.6621094-.4003906-5.4150391-.5136719-8.1220703-.1269531-3.0566406-.6044922-6.2617188-1.5019531-10.0849609-.3603516-1.5371094-.9609375-2.9638672-1.8886719-4.4912109-.1542969-.2529297-.3125-.5039062-.4707031-.7548828-.4511719-.7158203-.8779297-1.3916016-1.2138672-2.1269531-1.3085938-2.8632812-2.6474609-5.9082031-4.2128906-9.5820312-.2099609-.4931641-.3701172-1.0224609-.5390625-1.5830078-.1542969-.5107422-.3085938-1.0224609-.5009766-1.5107422-.9355469-2.3769531-1.9677734-4.9082031-3.1865234-7.3164062-.953125-1.8847656-2.1113281-3.4814453-3.5410156-4.8818359-1.2841797-1.2597656-2.6865234-2.5888672-4.234375-3.7851562-1.1669922-.9013672-2.2314453-2.0029297-3.4716797-3.3798828-1.3232422-1.46875-2.6494141-3.0693359-4.0537109-4.8925781-.5556641-.7216797-1.2177734-1.2675781-2.0185547-1.6630859-.0214844-.1376953-.0605469-.2978516-.1533203-.4580078-1.3574219-2.3193359-2.8681641-3.8925781-4.6171875-4.8085938-2.9658203-1.5537109-5.7470703-2.2841797-8.5117188-2.2119141-1.8652344.0439453-3.7988281.0273438-5.9179688-.0488281-1.1972656-.0439453-2.3935547-.1220703-3.5898438-.2001953-1.0615234-.0693359-2.1230469-.1376953-3.1855469-.1835938-3.7490234-.1611328-7.5449219.6552734-11.2705078,2.4238281-2.0273438.9638672-3.4824219,1.9453125-4.7148438,3.1816406-.7978516.7998047-1.4814453,1.4130859-2.1523438,1.9296875-1.3232422,1.0214844-2.4082031,2.3115234-3.2958984,3.4394531-1.8378906,2.3378906-3.4501953,4.7919922-4.7851562,6.8837891-1.5429688,2.4208984-2.8300781,5.2275391-3.9365234,8.5800781-1.0507812,3.1835938-2.0761719,6.4384766-3.0673828,9.5859375-.6738281,2.1386719-1.3476562,4.2783203-2.0341797,6.4111328-.1992188.6181641-.4345703,1.2207031-.6699219,1.8232422-.3291016.8447266-.6708984,1.71875-.9130859,2.6376953-.5,1.8896484-.9404297,3.9765625-1.3447266,6.3779297-.4648438,2.7578125-.9912109,5.6865234-1.8671875,8.5244141-.796875,2.5800781-1.2998047,5.2421875-1.4970703,7.9121094-.1220703,1.6601562-.2822266,3.3173828-.4414062,4.9746094-.1923828,1.9921875-.3916016,4.0537109-.5185547,6.0927734-.1611328,2.5527344-.1767578,5.1025391-.0488281,7.5791016.1318359,2.5654297.4042969,5.3310547.8310547,8.4570312.3134766,2.2802734.8066406,4.4951172,1.2822266,6.6376953.1591797.7099609.3710938,1.3994141.5751953,2.0654297.2158203.7011719.4199219,1.3632812.5664062,2.0478516.1679688.7832031.3164062,1.5732422.4638672,2.3623047.3642578,1.9414062.7412109,3.9492188,1.4160156,5.8564453.0175781.0488281.0224609.1933594.0253906.2998047.0058594.1865234.0166016.3740234.0527344.5507812.125.5908203.2382812,1.1875.3515625,1.7832031.2734375,1.4384766.5566406,2.9248047.9951172,4.3378906,1.0878906,3.5058594,2.5888672,6.8232422,4.0410156,10.03125l.6787109,1.5048828c.1943359.4306641.4472656.7890625.6914062,1.1367188l.2177734.3144531c.1923828.2880859.3896484.5712891.5859375.8554688.2285156.3300781.4580078.6591797.6787109.9960938.2675781.40625.53125.8164062.7949219,1.2255859,1.2099609,1.8818359,2.4609375,3.8271484,4.0751953,5.3955078.2089844.203125.4238281.4003906.6396484.5976562.5244141.4804688,1.0205078.9345703,1.4199219,1.4716797,1.3359375,1.7910156,3.0595703,3.1455078,5.4248047,4.2617188,2.6142578,1.2353516,5.421875,2.4052734,8.3457031,3.4785156,2.8994141,1.0654297,5.2636719,1.7792969,7.4394531,2.2490234,1.2871094.2773438,2.7119141.546875,4.1982422.546875.8144531,0,1.6464844-.0810547,2.4853516-.2861328.7822266-.1914062,1.6191406-.3769531,2.4384766-.4365234,3.2695312-.2382812,6.1132812-1.859375,8.9804688-3.6425781,3.5361328-2.2011719,6.2890625-4.3554688,8.6660156-6.7802734l.5595703-.5693359c1.4951172-1.515625,3.0400391-3.0820312,4.3037109-5.0205078,1.1357422-1.7412109,2.1865234-3.2099609,3.2148438-4.4892578,1.1699219-1.4560547,2.3984375-2.8994141,3.5859375-4.2958984.7470703-.8769531,1.4941406-1.7548828,2.2324219-2.6416016l.5878906-.7021484c.9365234-1.1162109,1.9042969-2.2705078,2.7822266-3.5039062,2.2724609-3.1914062,4.1142578-6.8222656,5.8046875-10.2675781.4277344-.8710938.7802734-1.7949219,1.1201172-2.6875.1845703-.4833984.3681641-.9667969.5644531-1.4423828.2382812-.5761719.515625-1.1835938.8476562-1.8574219,1.1425781-2.3134766,2.1171875-4.7539062,2.8955078-7.2539062.1455078-.4658203.2949219-.8671875.4570312-1.2285156.9638672-2.1386719,1.5976562-4.6113281,1.9941406-7.7802734.2744141-2.1875.4423828-4.4228516.6054688-6.5839844ZM69.8861133,12.3578251c.2519531.3027344.5048828.6054688.7490234.9179688,2.3867188,3.0507812,4.5810547,5.3261719,6.9082031,7.1591797,2.3291016,1.8359375,4.1230469,3.8515625,5.484375,6.1630859.6816406,1.15625,1.2460938,2.4375,1.8613281,3.8720703l.4384766,1.0146484c.8203125,1.8984375,1.6679688,3.8603516,2.3457031,5.8515625l.2001953.5966797c.3828125,1.1435547.7783203,2.3251953,1.3720703,3.4287109.2763672.5126953.4794922,1.1015625.6943359,1.7255859l.1982422.5673828c.8447266,2.3447266,1.703125,4.1884766,2.7021484,5.8017578.7314453,1.1796875,1.4882812,2.4003906,1.921875,3.7246094l.0527344.1591797c.6181641,1.8847656,1.2578125,3.8339844,1.3544922,5.8925781.0556641,1.1943359.1914062,2.4736328.4121094,3.9140625.4160156,2.7070312.5332031,5.4765625.5976562,8.0664062.0439453,1.7421875.1513672,3.4794922.2607422,5.0976562.1230469,1.8251953.2138672,3.9814453-.0537109,6.1259766-.2626953,2.0957031-.4433594,4.3144531-.5537109,6.7822266-.0966797,2.1748047-.4248047,4.3769531-1.0039062,6.7314453-.7373047,2.9970703-1.8876953,5.8720703-3,8.6513672l-.8798828,2.2119141c-1.1591797,2.9326172-2.3583984,5.9648438-3.8447266,8.7529297-2.2724609,4.2666016-5.0966797,9.1542969-8.8066406,13.0527344-2.3242188,2.4414062-4.6494141,5.2519531-7.5400391,9.1123047l-.5869141.7880859c-1.3613281,1.8339844-2.6484375,3.5664062-4.2587891,5.0097656-.34375.3066406-.6816406.6191406-1.0195312.9316406-1.1376953,1.0498047-2.2128906,2.0419922-3.4365234,2.8291016-.7001953.4492188-1.3681641.9648438-2.0136719,1.4628906-1.2949219.9980469-2.5175781,1.9414062-3.9375,2.3662109-.0869141.0263672-.1679688.0673828-.2392578.1220703-1.8818359,1.4326172-4.0234375,1.8476562-6.2900391,2.2871094l-.4355469.0839844c-1.1611328.2275391-2.6816406.4716797-4.1738281.3662109-2.6259766-.1884766-5.4150391-.8564453-8.7783203-2.1035156-.6484375-.2402344-1.3027344-.4580078-1.9560547-.6757812-1.796875-.5986328-3.4931641-1.1640625-5.0771484-2.1728516-.2441406-.1552734-.4931641-.2255859-.7636719-.3027344-2.3027344-.671875-4.1601562-1.8955078-5.6767578-3.7412109-.3232422-.3935547-.6660156-.7353516-.9560547-1.0166016-1.6230469-1.5810547-3.1035156-3.3867188-4.5263672-5.5234375-.2978516-.4472656-.6152344-.8769531-.9326172-1.3066406-.3466797-.46875-.6943359-.9365234-1.0126953-1.4326172l-.3964844-.6074219c-.6162109-.9404297-1.1982422-1.8291016-1.6201172-2.8154297-.4345703-1.0195312-.8945312-2.0214844-1.3554688-3.0234375-.75-1.6308594-1.5253906-3.3173828-2.1640625-5.0458984-.453125-1.2275391-.9599609-2.6640625-1.2363281-4.1738281-.1044922-.5673828-.2001953-1.1376953-.2958984-1.7070312-.1953125-1.15625-.3974609-2.3525391-.6679688-3.515625-.1552734-.6689453-.3310547-1.3310547-.5068359-1.9931641-.4589844-1.7265625-.8925781-3.3574219-.9755859-5.1142578-.0224609-.4765625-.1708984-.9179688-.3017578-1.3076172l-.0869141-.2626953c-1.3896484-4.3837891-2.2021484-8.1113281-2.5566406-11.7304688-.0566406-.578125-.1171875-1.1552734-.1787109-1.7333984-.1386719-1.3046875-.28125-2.6533203-.3662109-3.9775391-.0732422-1.1582031-.0605469-2.3583984-.0488281-3.5185547l.0107422-1.6376953c.0029297-1.2177734.0068359-2.4765625.0888672-3.6933594.21875-3.2275391.4902344-6.5058594.7539062-9.6767578l.0546875-.6630859c.1201172-1.4492188.3339844-3.3554688.9238281-5.2421875.5205078-1.6621094.9941406-3.3017578,1.0703125-5.0830078.0166016-.3847656.1337891-.796875.2587891-1.2333984.0449219-.1572266.0898438-.3144531.1298828-.4707031.0878906-.3369141.1835938-.6708984.2792969-1.0048828.1220703-.4238281.2441406-.8476562.3496094-1.2773438.1210938-.4951172.25-.9882812.3779297-1.4814453.3496094-1.3398438.7109375-2.7246094.921875-4.1396484.1289062-.8730469.4287109-1.6591797.7460938-2.4912109.2314453-.6064453.4716797-1.234375.6455078-1.9091797.4580078-1.7763672,1.0351562-3.5527344,1.59375-5.2705078.1855469-.5683594.3701172-1.1376953.5517578-1.7070312.2402344-.7548828.4951172-1.5039062.7509766-2.2539062.4746094-1.3945312.9658203-2.8369141,1.3554688-4.3066406.7871094-2.9824219,1.7412109-5.6074219,2.9160156-8.0263672,1.7773438-3.6621094,3.3212891-6.2871094,5.0048828-8.5136719.2558594-.3388672.5097656-.6816406.7646484-1.0253906,1.5029297-2.0283203,3.0576172-4.1259766,5.0791016-5.3916016.0566406-.0361328.1083984-.0791016.1542969-.1289062,1.9794922-2.1591797,4.4023438-3.2216797,6.9658203-4.3476562l.7529297-.3310547c.8886719-.3955078,1.7246094-.6337891,2.4853516-.7089844.6572266-.0644531,1.3144531-.1425781,1.9726562-.2207031,1.6132812-.1914062,3.1708984-.3759766,4.7177734-.3759766.9492188,0,1.8955078.0693359,2.8466797.2509766.5791016.109375,1.1425781.0986328,1.6875.0898438.2724609-.0048828.5419922-.0087891.8125.0019531,1.0498047.0488281,2.1083984.0283203,3.1308594.0097656,2.0371094-.0400391,3.9726562-.0742188,5.9052734.3691406,2.7519531.6269531,4.8945312,1.9511719,6.5498047,4.0478516.4707031.5976562,1.0634766,1.2470703,1.9208984,1.6113281.1279297.1982422.2539062.3994141.3798828.6005859.3066406.4892578.6230469.9951172.9746094,1.4697266.3427734.4638672.7080078.9023438,1.0732422,1.3417969Z" stroke-width="0"/>
      <path d="m66.0199023,53.7689579c-.4511719-.90625-.9189453-1.8427734-1.3066406-2.7900391-1.1367188-2.7841797-2.7158203-5.5390625-4.9697266-8.6699219-2.3984375-3.3330078-5.0458984-5.3046875-8.0917969-6.0292969l-.1816406-.0429688c-4.8271484-1.1503906-4.9980469-1.1445312-9.1005859.2421875l-.3417969.1162109c-1.3691406.4628906-2.5126953,1.1201172-3.4951172,2.0068359-.3662109.3300781-.7675781.6162109-1.1923828.9179688l-.2636719.1884766c-1.4150391,1.0175781-2.6972656,2.3212891-3.8134766,3.8769531-.3144531.4375-.65625.8466797-.9990234,1.2548828-.3173828.3798828-.6347656.7587891-.9326172,1.1591797-.7148438.9599609-1.4404297,1.9960938-2.2197266,3.1669922-.4316406.6474609-.5771484,1.3154297-.7089844,2.3974609-.0351562.2851562.1201172.5527344.3603516.7089844.1738281.1123047.3964844.1396484.5986328.0908203-.4287109.8173828-.8115234,1.6806641-1.0986328,2.6220703-.0263672.0888672-.0673828.171875-.1464844.3417969-.3583984.7939453-.7207031,1.5859375-1.0830078,2.3779297-.8173828,1.7861328-1.6621094,3.6347656-2.4482422,5.4863281-.90625,2.1347656-1.4804688,4.1289062-1.7558594,6.0957031-.3330078,2.3964844-.7431641,4.8232422-1.1396484,7.1708984-.2490234,1.4716797-.4970703,2.9443359-.7304688,4.4199219-.1025391.6542969-.0605469,1.3085938-.0205078,1.9414062l.0087891.1425781c.0664062,1.0576172.1396484,2.1142578.2138672,3.171875.1054688,1.5058594.2109375,3.0126953.2919922,4.5214844.0400391.7460938.0478516,1.4970703.0566406,2.2470703.0126953,1.1748047.0263672,2.390625.1630859,3.5849609.3251953,2.8486328.8251953,5.5849609,1.2705078,7.8867188.3310547,1.7138672.9765625,3.4277344,1.9716797,5.2373047.3710938.6748047.7451172,1.3466797,1.1386719,2,.2841797.4726562.5634766.9501953.8427734,1.4277344.7128906,1.2207031,1.4511719,2.4833984,2.2744141,3.6464844,1.265625,1.7861328,2.6337891,3.5039062,3.9560547,5.1660156l.8212891,1.0332031c.4423828.5585938.9433594,1.0234375,1.4482422,1.34375,1.53125.9746094,3.3447266,2.0429688,5.4794922,2.3837891.7988281.1279297,1.5830078.1572266,2.3496094.1572266.3330078,0,.6621094-.0048828.9873047-.0107422.5097656-.0097656,1.0166016-.0175781,1.5292969-.0039062,2.8798828.0771484,5.4482422-1.2529297,7.9853516-2.7392578,1.0888672-.6386719,2.0800781-1.4853516,3.0390625-2.3046875.3544922-.3017578.7070312-.6035156,1.0644531-.8945312,3.5966797-2.9208984,6.2880859-7.1757812,8.2304688-13.0097656.5849609-1.7558594,1.0136719-3.3642578,1.3105469-4.9179688.3046875-1.5898438.5458984-3.2177734.7792969-4.7910156.1376953-.9306641.2753906-1.8613281.4267578-2.7880859.1474609-.9042969.3076172-1.8046875.4677734-2.7060547.2333984-1.3105469.4667969-2.6210938.6611328-3.9394531.2431641-1.6582031.375-3.1005859.4003906-4.4091797.0625-3.2871094.0771484-6.6279297.0917969-9.8583984l.0107422-2.3847656c.0039062-.6992188.0087891-1.4228516-.1064453-2.1386719-.2705078-1.6855469-.5634766-3.3662109-.8574219-5.046875-.1601562-.9121094-.3193359-1.8251953-.4755859-2.7392578-.4765625-2.7929688-1.2255859-5.2099609-2.2900391-7.3896484l-.4609375-.9287109Zm1.3867188,19.625c-.1113281,2.1337891-.140625,4.3027344-.1679688,6.4003906l-.015625,1.0996094c-.0068359.4433594-.0097656.8867188-.0126953,1.3310547-.0126953,1.9873047-.0263672,4.0429688-.3916016,6.0048828-.1298828.6962891-.2373047,1.3984375-.3457031,2.1005859-.0634766.4121094-.1259766.8242188-.1943359,1.2353516l-.3847656,2.3359375c-.4414062,2.6904297-.8837891,5.3798828-1.3505859,8.0644531-.0859375.5-.2197266.9912109-.3613281,1.5107422-.1113281.4101562-.2226562.8203125-.3115234,1.2363281-.2539062,1.1875-.6884766,2.2753906-1.1484375,3.4277344-.2919922.7333984-.5947266,1.4912109-.8457031,2.2744141-.421875,1.3232422-1.1064453,2.5947266-2.1513672,4.0019531-1.4628906,1.9677734-2.9179688,3.5742188-4.4492188,4.9101562-3.8359375,3.3476562-7.2773438,4.8339844-10.8974609,4.7412109-.1582031-.0136719-.3164062.0058594-.4902344.0214844-1.4082031.1201172-2.7988281-.1865234-4.4550781-.6816406-1.0791016-.3222656-2.0947266-1.0058594-2.9365234-1.9755859-.7705078-.8857422-1.5175781-1.8486328-2.2412109-2.7802734-.3515625-.453125-.703125-.90625-1.0595703-1.3535156-1.2753906-1.6015625-2.3974609-3.4296875-3.4824219-5.1982422l-.578125-.9384766c-1.90625-3.0820312-3.2724609-5.8115234-3.7460938-9.1103516-.0947266-.6630859-.1953125-1.3242188-.2958984-1.9853516-.3935547-2.5976562-.8007812-5.2841797-.8554688-7.9648438-.0126953-.6201172-.0175781-1.2421875-.0234375-1.8652344-.0146484-1.7822266-.0292969-3.625-.2236328-5.4287109-.2255859-2.0800781-.1650391-4.046875.1835938-6.0107422.1318359-.7382812.2324219-1.4853516.3330078-2.2324219.0908203-.6767578.1806641-1.3535156.296875-2.0234375.0927734-.5410156.2148438-1.0751953.3369141-1.6083984.1591797-.7011719.3242188-1.4257812.4277344-2.1669922.3837891-2.7529297,1.2294922-5.4697266,2.6601562-8.5478516.5449219-1.1689453.9316406-2.2197266,1.1826172-3.2128906.6933594-2.7324219,1.7099609-5.3994141,3.109375-8.1523438.203125-.4003906.2978516-.828125.3886719-1.2412109.0195312-.0888672.0390625-.1777344.0595703-.2666016.0458984-.0400391.0878906-.0859375.1240234-.1367188.1533203-.2197266.3183594-.4306641.4833984-.6425781.4003906-.5126953.8134766-1.0429688,1.1035156-1.6923828.9951172-2.2226562,2.6220703-3.5966797,4.34375-5.0507812.5693359-.4804688,1.1982422-.8662109,1.8642578-1.2753906.3486328-.2138672.6972656-.4287109,1.0380859-.6572266,1.3056641-.8740234,2.75-1.4033203,4.4160156-1.6201172,1.1337891-.1523438,2.2480469.0751953,3.4306641.3115234.3652344.0722656.7304688.1455078,1.0986328.2080078,1.3730469.2324219,2.6464844.8916016,3.7832031,1.9589844,1.1357422,1.0673828,2.0800781,2.0927734,2.8867188,3.1376953,2.5410156,3.2851562,4.3554688,7.3085938,6.1103516,11.1982422l.3222656.7148438c.4941406,1.0927734.9130859,2.359375,1.2822266,3.8730469l.1660156.6767578c.5380859,2.1943359,1.0947266,4.4638672,1.3925781,6.7236328.0605469.4619141.1279297.9228516.1962891,1.3857422.2363281,1.6123047.4814453,3.2792969.3955078,4.9355469Z" stroke-width="0"/>
    </g>
  </g>
</svg>