<?xml version="1.0" encoding="UTF-8"?>
<svg id="Layer_2" data-name="Layer 2" xmlns="http://www.w3.org/2000/svg" viewBox="0 0 97.6412519 168.7644807">
  <g id="Layer_1-2" data-name="Layer 1">
    <g>
      <g>
        <path d="m.54589,121.2127229c.2490234.2587891.4833984.5029297.6484375.7773438.4433594.734375.4111328.9873047.1699219,1.2763672-.2529297.3017578-.2236328.7431641.0595703,1.0166016.0214844.0195312.0439453.0390625.0664062.0566406.3242188.3330078.5078125.6972656.5556641,1.1064453l-.4013672.4423828c-.1845703.2021484-.2431641.4882812-.1552734.7460938.0966797.2841797.1953125.5585938.2929688.828125.2021484.5634766.3935547,1.0966797.5410156,1.6357422.2792969,1.0322266.5380859,2.0732422.796875,3.1152344.1601562.6474609.3212891,1.2958984.4873047,1.9423828.1425781.5527344.2783203,1.1083984.4130859,1.6650391.3330078,1.3671875.6767578,2.7802734,1.1259766,4.1328125.8505859,2.5634766,2.1367188,4.8300781,3.3808594,7.0214844.6962891,1.2275391,1.4160156,2.4960938,2.0410156,3.7890625.0976562.2021484.2412109.4580078.4824219.640625.7978516.5996094,1.2197266,1.5673828,1.328125,3.0439453.0195312.2607422.171875.4921875.4042969.6123047.1591797.0820312.3105469.1523438.4541016.21875.2568359.1201172.4599609.2148438.6152344.3359375.1064453.0839844.2246094.2265625.3496094.3769531.1464844.1777344.3134766.3798828.4638672.4921875.0253906.0429688.0419922.0957031.0625.1484375.1162109.2978516.3583984.9189453,1.1132812,1.0205078.0332031.0048828.0673828.0068359.1005859.0068359.2177734,0,.4267578-.0947266.5703125-.2636719.1660156-.1933594.2216797-.4589844.1474609-.703125-.0878906-.2919922-.1630859-.5791016-.2353516-.8574219-.1728516-.6601562-.3359375-1.2832031-.6279297-1.859375-.3212891-.6337891-.7382812-1.1650391-1.1416016-1.6787109-.1611328-.2060547-.3222656-.4111328-.4755859-.6220703-.015625-.0214844-.0800781-.0878906-.0976562-.1074219l-1.2978516-2.2441406c-1.2841797-2.2167969-2.5683594-4.4345703-3.8242188-6.6748047-.2910156-.5175781-.5390625-1.1943359-.7382812-2.0107422-.4775391-1.9677734-.9365234-4.0195312-1.4013672-6.2724609-.1416016-.6835938-.2548828-1.3759766-.3701172-2.0673828-.1328125-.8076172-.2675781-1.6162109-.4414062-2.4111328-.2685547-1.2294922-.5742188-2.4472656-.8789062-3.6650391-.1777344-.7089844-.3554688-1.4179688-.5253906-2.1298828-.2001953-.8320312-.3876953-1.6689453-.5820312-2.5351562l-.1523438-.6767578c1.1679688-.6152344,2.2841797-1.1757812,3.4638672-1.4179688.4736328-.0966797.9492188-.1835938,1.4248047-.2705078,1.2402344-.2255859,2.5224609-.4599609,3.7685547-.875,1.2539062-.4179688,2.5615234-.7324219,3.8261719-1.0371094,1.03125-.2480469,2.0976562-.5048828,3.1435547-.8183594.0644531-.0195312.125-.046875.1816406-.0820312.2617188-.1630859.4160156-.3994141.5234375-.6210938,1.3574219,2.4902344,2.4990234,5.0058594,3.3974609,7.4912109.4707031,1.3037109,1.0966797,2.4150391,1.9150391,3.3974609l.1767578.2070312c.2060547.2402344.4013672.4658203.5029297.6962891.9072266,2.0595703,2.4853516,3.1650391,3.7597656,3.8984375,4.3740234,2.5126953,8.3964844,3.4033203,12.3007812,2.7207031.3232422-.0546875.6972656-.0556641,1.1787109-.0029297,2.8798828.3261719,5.1220703-.2001953,7.0664062-1.6513672.3310547-.2470703.71875-.4316406,1.1298828-.6269531l.3955078-.1904297c1.0927734-.5439453,2.3603516-1.2578125,3.4736328-2.4277344.2353516-.2470703.4453125-.4179688.625-.5078125,1.7207031-.8691406,2.8691406-2.4150391,3.9804688-3.9101562.4746094-.6396484.9238281-1.2441406,1.4150391-1.7998047.1953125-.2216797.3085938-.4746094.3691406-.6494141l.5517578-1.578125c.5693359-1.6240234,1.1386719-3.2480469,1.6679688-4.8916016.3193359-.9912109.6279297-2.0615234.7255859-3.1728516.1757812-1.984375.3144531-3.9726562.453125-5.9619141.1933594-2.7724609.3935547-5.6386719.6962891-8.4404297.0898438-.8330078.1640625-1.9140625-.0566406-2.8867188-.2880859-1.2626953-.1738281-2.5107422-.0527344-3.8330078l.0634766-.6767578c.1132812-1.1660156.2314453-2.3710938-.1103516-3.6181641-.1083984-.3984375-.0751953-.5537109-.0712891-.5712891.3056641-1.2226562.1904297-2.390625.078125-3.5205078-.0478516-.4912109-.0976562-.9824219-.1074219-1.4736328-.0244141-1.1767578-.0712891-2.3525391-.1181641-3.5283203l-.0673828-1.7900391c-.0361328-1.0351562-.0878906-2.0712891-.140625-3.1083984-.1142578-2.2949219-.2333984-4.6689453-.1640625-6.9794922.0810547-2.7734375-.0888672-5.5478516-.2539062-8.2304688-.0849609-1.3779297-.1689453-2.7548828-.2216797-4.1347656-.0517578-1.3691406-.1142578-2.7373047-.2070312-4.1035156-.2871094-4.2509766-.7392578-7.7607422-1.421875-11.0439453-.0332031-.1582031-.0830078-.3173828-.1337891-.4765625-.0478516-.1523438-.1142578-.3613281-.1064453-.4423828.1386719-1.2626953-.2880859-2.2783203-.6640625-3.1748047-.0800781-.1923828-.1611328-.3847656-.2373047-.5810547-.5-1.2939453-1.3056641-1.5722656-1.8925781-1.5771484-.4794922-.0039062-.9785156-.0957031-1.5068359-.1923828-1.1679688-.2148438-2.4853516-.4560547-3.8271484.2705078-.1357422-.0224609-.3271484-.046875-.5439453.0087891-.0761719.0195312-.15625.0341797-.2382812.0498047-.3759766.0722656-.890625.1699219-1.2412109.5966797-.7529297.9101562-1.5810547.9892578-2.8486328.8173828-2.5390625-.3466797-5.1230469-.6494141-7.5527344-.9296875l-.1367188-.015625c-.5361328-.0664062-1.1464844-.1367188-1.7519531.046875-1.2109375.3720703-2.4394531.1757812-3.7402344-.0292969l-.7734375-.1201172c-.7949219-.1240234-1.6953125-.2646484-2.5673828-.0722656-1.0273438.2265625-2.1103516.2451172-3.5097656.0585938-1.125-.1513672-2.2529297-.2636719-3.3808594-.3769531l-3.9013672-.4101562c-.0625-.2841797-.1171875-.5292969-.1064453-.7236328.1083984-2.0292969.2675781-4.0166016.3935547-5.5195312.0507812-.6015625.1376953-1.0839844.265625-1.4726562.5507812-1.6767578.6601562-3.4140625.765625-5.0947266l.0498047-.7773438c.0800781-1.1621094.1455078-2.3251953.2109375-3.4892578.1494141-2.6357422.3037109-5.3613281.625-8.0136719.0244141-.2001953.0869141-.46875.1533203-.7636719.2734375-1.2089844.6845703-3.0351562-.7148438-3.3554688-.3847656-.0888672-.7714844.1376953-.8847656.5146484-.0800781.265625-.1435547.4580078-.1933594.6054688-.0878906.265625-.1455078.4414062-.1669922.6542969l-.1376953,1.3681641c-.2929688,2.8984375-.5859375,5.7958984-.8554688,8.6972656-.1054688,1.1376953-.1943359,2.2783203-.2832031,3.4179688-.0791016,1.0234375-.1591797,2.046875-.2509766,3.0683594-.03125.3496094-.1171875.734375-.2763672,1.2460938-1.0537109,3.3828125-1.1171875,6.8759766-1.1806641,10.3115234-.0029297.1572266.0439453.3115234.1337891.4414062.6445312.9287109,1.4433594,1.1376953,2.2099609,1.2246094,1.1601562.1318359,2.3193359.2695312,3.4794922.4072266,1.8232422.2167969,3.6464844.4335938,5.4716797.6289062.5019531.0537109.984375.0175781,1.4511719-.0185547.2148438-.015625.4287109-.0322266.6435547-.0380859l.6572266-.0224609c.6269531-.0244141,1.2558594-.0478516,1.8828125-.03125.4208984.0097656.8427734.046875,1.2646484.0839844.78125.0673828,1.5898438.1376953,2.4150391.0527344,2.0234375-.2138672,4.0068359-.0029297,6.1035156.2167969l1.6132812.1640625c1.2509766.1230469,2.5439453.2509766,3.7929688.4619141,1.2763672.2177734,2.2841797-.1240234,3.0849609-1.0390625.6552734-.7490234,1.5390625-.8818359,2.4628906-.9599609.8427734-.0712891,1.7431641.0595703,2.5917969.2119141.1025391.0185547.3339844.1816406.4316406.3613281.2636719.4873047.6289062,1.21875.7509766,1.9394531.1044922.6279297.1943359,1.2607422.2832031,1.8925781.2236328,1.5830078.4541016,3.2197266.9384766,4.7939453.0429688.1386719.0517578.2832031.0390625.3466797-.1845703.9111328-.0380859,1.7294922.1035156,2.5214844.0605469.3427734.1230469.6845703.1503906,1.03125.0322266.4042969.0859375.8066406.140625,1.2080078.0625.4667969.125.9316406.1484375,1.4003906.171875,3.5458984.3486328,7.2128906.4599609,10.8271484.0673828,2.1533203.0947266,4.3076172.1230469,6.4628906.0136719,1.0556641.0273438,2.1123047.0458984,3.1679688.0068359.3701172.0273438.7392578.0478516,1.1083984l.0068359.1162109c.0214844.3720703.046875.7441406.0712891,1.1162109.0507812.7412109.1005859,1.4824219.1201172,2.2255859.0234375.8583984.0302734,1.7177734.0371094,2.5771484.0117188,1.4550781.0244141,2.9589844.1162109,4.4414062l.1044922,1.5634766c.1787109,2.6035156.3632812,5.296875.0976562,7.9326172-.046875.4648438-.0214844.9169922.0039062,1.3554688l.0214844.4365234c.0849609,2.3867188-.0195312,4.9550781-.3164062,7.8505859-.2128906,2.0732422-.3896484,3.9433594-.4082031,5.8378906-.0488281,5.0986328-1.6445312,9.6806641-3.3710938,13.8740234l-3.1582031,4.3251953c-.8945312.5566406-1.7275391,1.2255859-2.5341797,1.8740234-1.0947266.8798828-2.1289062,1.7099609-3.2871094,2.2695312-.3779297.1826172-.7197266.4101562-1.0498047.6298828l-.2783203.1835938c-1.4443359.9345703-2.8544922,1.3476562-4.3320312,1.2910156-1.5263672-.0683594-2.8583984-.0654297-4.0722656.0097656-3.3046875.2070312-6.6181641-.7382812-10.1279297-2.8857422-.1894531-.1162109-.3916016-.3105469-.5673828-.5478516-.2851562-.3837891-.5771484-.7617188-.8701172-1.140625-1.4248047-1.8447266-2.7705078-3.5878906-3.3427734-5.9980469-.0498047-.2080078-.1347656-.3789062-.234375-.5810547l-.5224609-1.0839844c-1.1367188-2.3515625-1.391892-5.309348-3.1660156-7.3466797-1.0093493-1.1590959-3.6435547.65625-3.6083984.8427734-.6357422,1.0449219-1.4677734,1.4335938-2.65625,1.7324219-3.1611328.796875-6.2451172,1.6054688-9.1640625,2.4042969-1.4599609.4003906-2.9257812.8642578-4.34375,1.3134766l-.8837891.2792969c-.3623047.1142578-.6337891.3828125-.8310547.6054688-.1708984.1943359-.2294922.4130859-.2773438.5888672-.0136719.0517578-.0283203.1074219-.0488281.1679688-.0849609.2539062-.0292969.5332031.1474609.734375.1142578.1308594.2363281.2587891.359375.3876953Z" stroke-width="0"/>
        <path d="m26.1376868,2.0164338l.4472656.0908203c.2539062.0527344.4257812.0869141.6005859.1035156.3251953.0302734.6503906.0537109.9755859.0771484.5292969.0390625,1.0576172.0771484,1.5839844.1474609,1.1337891.1523438,2.2675781.3164062,3.4013672.4794922,1.7705078.2558594,3.5419922.5117188,5.3173828.7246094,4.8935547.5859375,9.7890625,1.1494141,14.6845703,1.7119141l6.78125.7822266c.5078125.0585938,1.0166016.1074219,1.5263672.15625,1.2353516.1181641,2.4023438.2294922,3.5615234.4794922,2.8261719.609375,5.6328125.3769531,8.3466797.1523438l1.2324219-.0996094c2.2519531-.1835938,4.5800781-.3740234,6.8427734-.1855469,1.8867188.1572266,3.8076172.3720703,5.6660156.5810547l.2734375.0302734c1.7587891.1982422,2.9755859.7412109,3.9765625,1.7910156.3916016.4121094.8349609.8779297,1.4140625,1.0898438,1.109375.4033203,1.3789062,1.5458984,1.640625,3.1162109.03125.1875.046875.3789062.0644531.5703125l.0332031.3486328c.3828125,3.4560547.3398438,6.9179688.2587891,9.5478516-.0195312.6533203-.0361328,1.3066406-.0537109,1.9599609-.0195312.7949219-.0400391,1.5898438-.0673828,2.3837891-.0244141.7421875-.0546875,1.484375-.0839844,2.2265625-.0478516,1.1894531-.0957031,2.3789062-.125,3.5703125l-.0292969,1.3173828c-.078125,3.4775391-.2861328,12.7167969-.3320312,13.6640625-.1347656,2.7373047-.2119141,4.9902344-.2451172,7.0908203-.0244141,1.5605469-.0244141,3.1240234-.0253906,4.6875,0,3.1191406-.0009766,6.3447266-.203125,9.5380859l.0029297.8300781c-.0009766.546875.0068359,1.0947266.015625,1.6435547.0205078,1.3417969.0419922,2.7294922-.0878906,4.0507812l-.1240234,1.2509766c-.3291016,3.2949219-.6689453,6.7021484-.7519531,10.0986328-.0175781.7568359.7578125,2.1054688,1.5820312,2.1523438.015625.0009766.0322266.0009766.0478516.0009766.4091797,0,.8339844-.2939453.8876953-.8798828.1904297-2.0820312.3642578-4.1660156.5244141-6.2519531.0595703-.7910156.1083984-1.5830078.15625-2.375.0820312-1.3457031.1669922-2.7363281.3115234-4.0859375.2851562-2.6669922.3349609-5.0771484.1542969-7.3691406l-.0263672-.3027344c-.0488281-.5439453-.1035156-1.1611328.0341797-1.5019531.4482422-1.109375.4335938-2.1748047.4199219-3.2060547l-.0136719-1.5830078c-.0107422-1.0419922-.0214844-2.0839844.0019531-3.125.0703125-3.2265625.0996094-6.4414062.1289062-9.6601562.0214844-2.3232422.0419922-4.6474609.0791016-6.9814453.0136719-.8349609.2148438-10.2236328.4677734-15.6835938.015625-.3349609.0371094-.6757812.0595703-1.0175781l.0410156-.65625v-.0009766c.2832031-5.0048828.0996094-9.5380859-.5615234-13.8583984-.2167969-1.4228516-.7705078-2.3955078-1.796875-3.1513672l-1.1123047-.8242188c-.9785156-.7285156-1.9912109-1.4824219-3.015625-2.1806641-.4882812-.3320312-1.1025391-.5488281-1.8242188-.6455078-2.5078125-.3378906-5.1103516-.6582031-7.9550781-.9794922-.8613281-.0976562-1.7070312-.1289062-2.5126953-.0917969l-.8574219.0361328c-1.3701172.0566406-2.7861328.1152344-4.1835938.3222656-2.5839844.3837891-5.2402344.1660156-7.8076172-.0429688-1.0693359-.0869141-2.1728516-.1777344-3.2695312-.2246094-.8984375-.3730469-1.8017578-.3554688-2.6025391-.3359375-.4355469.0107422-.8447266.0175781-1.2353516-.0292969-5.6875-.6992188-11.3759766-1.3925781-17.0654297-2.0644531-1.2265625-.1445312-2.4550781-.2578125-3.6845703-.3720703-.6328125-.0585938-1.2666016-.1171875-1.8994141-.1796875l-5.5605469-.5566406c-1.1982422-.1171875-2.3955078-.2324219-3.5947266-.3144531-.3925781-.0380859-.6708984.2226562-.8779297.4257812-.0761719.0751953-.1728516.1699219-.3007812.2773438-.2207031.1875-.3144531.4833984-.2412109.7636719.0732422.2792969.3007812.4921875.5839844.5458984Z" stroke-width="0"/>
      </g>
      <path d="m69.6884681,154.4373323c.125,0,.2509766-.03125.3642578-.0947266.3554688-.1972656.6972656-.3720703,1.0263672-.5410156.734375-.3759766,1.4277344-.7314453,2.0732422-1.2255859,1.28125-.9814453,2.4335938-2.0292969,3.4238281-3.1162109.5175781-.5683594.9208984-1.2431641,1.3105469-1.8964844.203125-.3398438.40625-.6806641.625-1.0019531.1318359-.1933594.2597656-.3974609.3876953-.6015625.3251953-.5175781.6601562-1.0517578,1.0292969-1.3261719,1.0585938-.7861328,1.6464844-1.90625,2.2158203-2.9882812.3017578-.5761719.5878906-1.1191406.9316406-1.59375.0537109-.0722656.0927734-.1542969.1162109-.2412109.71875-2.6113281,1.6152344-4.9082031,2.7402344-7.0214844.6357422-1.1943359,1.0771484-2.4960938,1.5039062-3.7548828.4853516-1.4287109.9433594-2.7783203,1.65625-3.9755859.2333984-.3896484.3925781-.8935547.4492188-1.4189453.1171875-1.0673828.4697266-2.0410156.84375-3.0722656l.1445312-.4013672c.2792969-.7773438.4736328-1.5820312.6621094-2.3623047.1357422-.5664062.2529297-1.140625.3691406-1.7138672l.5410156-2.5322266c.2539062-1.1591797.5078125-2.3183594.734375-3.4853516.3164062-1.6328125.6064453-3.2724609.8955078-4.9121094l.2587891-1.4638672c.0595703-.3349609.1005859-.6787109.1298828-1.0224609l.1855469-2.1806641c.1914062-2.2333984.3818359-4.4667969.5458984-6.703125.0908203-1.2285156-.4658203-2.3769531-1.0566406-2.7783203-.296875-.2011719-.6357422-.2363281-.9277344-.0966797-.1376953.0673828-.4619141.2773438-.4980469.7890625-.0576172.8164062-.1396484,1.6318359-.2207031,2.4462891-.0947266.9423828-.1884766,1.8847656-.2470703,2.8310547-.2138672,3.3818359-.7666016,6.7714844-1.3017578,10.0488281-.1484375.9121094-.296875,1.8242188-.4394531,2.7373047-.1523438.9746094-.3710938,1.9638672-.5820312,2.9199219-.1279297.5761719-.2558594,1.1533203-.3710938,1.7333984-.3847656,1.9326172-.7910156,3.8125-1.53125,5.5761719-.2255859.5380859-.4072266,1.1601562-.5712891,1.9570312-.2548828,1.2402344-.5595703,2.1269531-.9873047,2.8759766-.3095703.5419922-.5068359,1.140625-.6972656,1.71875l-.0527344.1582031c-.9833984,2.9560547-2.1425781,5.5371094-3.5429688,7.8916016-.2539062.4287109-.46875.8798828-.6767578,1.3164062-.1240234.2617188-.2480469.5224609-.3798828.7773438l-.4189453.8115234c-.4453125.8671875-.9052734,1.7636719-1.3964844,2.5996094-.3007812.5136719-.6289062,1.0039062-.9570312,1.4951172-.4150391.6220703-.8457031,1.2666016-1.2226562,1.9570312-.9853516,1.8046875-2.2255859,3.3632812-3.6855469,4.6308594-.8242188.7148438-1.7324219,1.4599609-2.7773438,2.2773438-1.0878906.8525391-1.3037109,2.0849609-1.3710938,3.1777344-.0166016.2734375.1171875.5341797.3486328.6806641.1220703.0761719.2617188.1152344.4003906.1152344Z" stroke-width="0"/>
      <path d="m67.3349525,155.8416291c-.265625-.2216797-.6455078-.2333984-.9228516-.03125-3.3730469,2.4550781-6.8613281,4.9931641-10.6494141,6.6025391-.2695312.1142578-.5410156.2226562-.8115234.3310547-1.1494141.4599609-2.3369141.9345703-3.3789062,1.8339844-.0019531.0009766-.0458984.0214844-.1787109.0332031-.5957031.0556641-1.1933594.1035156-1.7900391.1513672-.7900391.0634766-1.5791016.1269531-2.3681641.2070312-.5683594.0576172-1.1376953.0947266-1.7070312.1318359-1.140625.0742188-2.3193359.1513672-3.4960938.3916016-2.1591797.4404297-3.9570312.7363281-5.7871094.2265625-.3408203-.0947266-.6660156-.0966797-.953125-.0986328-.125-.0009766-.25,0-.3740234-.0117188-1.7617188-.1601562-3.2226562-.3339844-4.6376953-.9912109-1.0419922-.4824219-2.1464844-.9287109-3.2822266-1.3251953-2.3144531-.8076172-4.9609375-1.9570312-7.0400391-4.3554688-.8261719-.953125-1.8339844-1.2382812-3.0878906-.8701172-.2519531.0751953-.4462891.2763672-.5126953.5302734-.0664062.2548828.0048828.5253906.1884766.7128906l.7558594.7822266c.4726562.4921875.8730469.9082031,1.2880859,1.3037109.5439453.5185547,1.1611328,1.1074219,1.8408203,1.5996094,2.4423828,1.7695312,5.1318359,2.7880859,7.7333984,3.7724609.4433594.1679688.8867188.3359375,1.3300781.5078125,1.0839844.4199219,2.2011719.6748047,3.3222656.7587891,1.1025391.0820312,2.2324219.2402344,3.3242188.3935547.8017578.1123047,1.6025391.2246094,2.4042969.3115234.1611328.0166016.3212891.0244141.4804688.0244141.5009766,0,1-.0751953,1.5058594-.1601562.4921875-.0820312.9833984-.171875,1.4746094-.2617188,2.1376953-.3916016,4.1542969-.7646484,6.2216797-.5283203.2011719.0253906.3730469-.0078125.5771484-.0449219.234375-.0302734.46875-.0566406.703125-.0820312.5605469-.0625,1.140625-.1269531,1.7197266-.2548828l.34375-.0722656c.7050781-.1464844,1.5039062-.3125,2.1972656-.7695312,1.4833984-.9765625,3.0371094-1.6552734,4.6826172-2.3730469l.9511719-.4179688c.7900391-.3447266,1.6054688-.7021484,2.3154297-1.3183594,1.4570312-1.2617188,2.9404297-2.4023438,4.5888672-3.6572266l.1220703-.0917969c.3173828-.2382812.6767578-.5087891.9707031-.8867188.8310547-1.0654297.2314453-1.7568359-.0644531-2.0039062Z" stroke-width="0"/>
      <path d="m68.2372962,155.8152619l.1064453.0136719c.0322266.0039062.0644531.0058594.0957031.0058594.2148438,0,.4208984-.0927734.5644531-.2558594.1650391-.1884766.2246094-.4462891.1601562-.6875l-.0410156-.1533203c-.0810547-.3046875-.3447266-.5263672-.6582031-.5537109-.328125-.0263672-.6113281.1445312-.7451172.4287109l-.0654297.1396484c-.1025391.2167969-.09375.4697266.0214844.6796875s.3242188.3515625.5615234.3828125Z" stroke-width="0"/>
    </g>
  </g>
</svg>