<?xml version="1.0" encoding="UTF-8"?>
<svg id="Layer_2" data-name="Layer 2" xmlns="http://www.w3.org/2000/svg" viewBox="0 0 97.6507475 159.5745192">
  <g id="Layer_1-2" data-name="Layer 1">
    <g>
      <g>
        <path d="m.3164319,132.8977614c.0957031,1.6640625.2421875,3.3447266.3837891,4.9707031.1455078,1.6796875.2958984,3.4150391.390625,5.1220703.0986328,1.7744141.1181641,3.59375.1367188,5.3535156.0097656.9443359.0195312,1.8876953.0410156,2.8310547.0185547.8134766.0498047,1.6269531.0810547,2.4404297.0214844.5576172.0429688,1.1152344.0595703,1.6738281.0024414.0805664.0146484.2363281.0537109.409668-.0244141-.0078125-.0449219-.0161133-.0703125-.0239258-.2167969-.0683594-.4521484-.0322266-.6396484.09375s-.3085938.3310547-.3291016.5566406c-.0117188.1259766-.0351562.2568359-.0566406.3818359-.0751953.4287109-.1523438.8730469.1269531,1.25.2597656.3486328.8017578.9638672,1.5146484,1.1660156.6533203.1875,1.3232422.1523438,1.9179688.1240234l.1083984-.0058594c2.8076172-.1357422,5.5957031-.1083984,8.2861328.0810547l.9130859.0683594c1.1875.0908203,2.4072266.1835938,3.6289062.1835938.3095703,0,.6191406-.0058594.9277344-.0195312,2.6298828-.1132812,5.2109375-.7587891,7.7060547-1.3828125l.9033203-.2246094c.2822266-.0683594.6699219-.1630859,1.0126953-.4023438.0908203-.0634766.1855469-.1259766.2802734-.1875.421875-.2753906.8994141-.5878906,1.2265625-1.1064453.4072266-.6474609.7617188-1.3388672,1.1035156-2.0058594.2480469-.4853516.4960938-.9707031.765625-1.4384766.5693359-.9912109.6728516-1.9951172.6982422-2.8457031.0263672-.8632812.0419922-1.7255859.0585938-2.5888672.046875-2.5361328.0966797-5.1582031.4267578-7.7080078.2636719-2.0371094.3505859-4.1220703.4355469-6.1376953.0292969-.7011719.0585938-1.4023438.0947266-2.1015625.0800781-1.5351562.1923828-3.0683594.3037109-4.6015625.1894531-2.6005859.3857422-5.2900391.4208984-7.9619141.0048828-.4199219.0576172-.8486328.1132812-1.3017578.0625-.5146484.1279297-1.046875.1240234-1.59375-.0175781-2.8076172.1308594-5.7783203.4541016-9.0830078.0253906-.2578125.0429688-.5185547.0605469-.78125.0507812-.7773438.0996094-1.5185547.3730469-2.1826172.1884766-.0371094.3779297-.0712891.5683594-.1054688.7519531-.1357422,1.5302734-.2753906,2.2900391-.5976562,1.5078125-.6396484,2.8496094-.7675781,4.2255859-.4033203.4628906.1230469.9658203.1816406,1.5830078.1826172,1.5.0029297,3.0380859.4140625,4.7001953,1.2568359,2.8310547,1.4355469,5.5009766,2.2490234,8.1601562,2.484375.8037109.0712891,1.6318359.203125,2.4316406.3310547,1.7695312.2822266,3.5986328.5732422,5.4892578.2919922.0585938,0,.1982422.0341797.3222656.0732422.0195312.09375.0351562.1748047.0351562.2539062l.0029297,2.4638672c.0039062,2.6416016.0078125,5.2832031-.0214844,7.9228516-.0595703,5.3125-.1210938,10.8056641-.2578125,16.2041016-.0322266,1.3066406-.1289062,2.6416016-.2226562,3.9326172-.1416016,1.9580078-.2880859,3.9833984-.2236328,6.0087891.0136719.4228516-.0146484.8740234-.0830078,1.3037109-.2978516,1.8574219-.1582031,3.609375.0546875,5.7080078.0253906.2490234.1738281.4697266.3964844.5869141.2207031.1162109.4873047.1162109.7080078-.0048828,1.4160156-.7705078,1.5810547-1.0322266,1.609375-2.5429688l.0029297-.1503906c.0439453-2.2197266.1181641-4.4384766.1923828-6.6572266l.0742188-2.2568359c.0029297-.1162109.0214844-.2304688.0371094-.3457031.015625-.1103516.03125-.2207031.0410156-.3339844.0351562-.4082031.0761719-.8173828.1171875-1.2255859.09375-.9453125.1904297-1.9228516.2226562-2.9003906.1298828-3.9931641.2236328-7.8964844.2792969-11.6005859.0244141-1.5732422-.0019531-3.1679688-.0273438-4.7109375l-.0390625-2.7480469c-.0322266-2.5224609-.0654297-5.1298828.0556641-7.6855469.0117188-.2353516.0341797-.4726562.0566406-.7119141.078125-.8164062.1669922-1.7421875-.1777344-2.6748047-.0566406-.1533203-.1611328-.2841797-.2988281-.3720703-.7988281-.5117188-1.5703125-.4130859-2.1894531-.3320312l-.28125.0332031c-2.0556641.2167969-3.7685547.2529297-5.453125-.2763672-.3486328-.109375-.6826172-.1123047-.9765625-.1152344-.1220703-.0009766-.2451172-.0009766-.3652344-.0126953l-.2441406-.0244141c-2.2392578-.2236328-4.3544922-.4355469-6.3076172-1.4677734-2.6074219-1.3789062-5.0830078-2.1806641-7.5664062-2.4511719-.4013672-.0439453-.8017578-.1142578-1.203125-.1835938-1.0908203-.1904297-2.21875-.3857422-3.4101562-.1210938-1.828125.4052734-3.6484375.8730469-5.5087891,1.3574219-.3232422.0849609-.5888672.2548828-.8447266.4199219-.1044922.0664062-.2148438.1386719-.3378906.2080078-.203125.1152344-.3408203.3183594-.3730469.5488281-.34375,2.4765625-.7167969,5.4091797-.8789062,8.3896484-.1542969,2.8183594-.2578125,5.6845703-.3583984,8.4560547-.0732422,2.0146484-.1464844,4.0283203-.2382812,6.0410156-.0712891,1.5576172-.1943359,3.1435547-.3144531,4.6767578-.0527344.6796875-.1054688,1.3603516-.1542969,2.0410156l-.1777344,2.3925781c-.1269531,1.6914062-.2548828,3.3828125-.3564453,5.0761719-.0488281.8144531-.1445312,1.6484375-.2382812,2.4541016-.1826172,1.5742188-.3710938,3.2021484-.2382812,4.8710938.1708984,2.1523438-.3164062,4.1542969-1.4892578,6.1181641-.6845703,1.1464844-1.4921875,1.7539062-2.6181641,1.96875-.2041016.0390625-.4121094.0664062-.6191406.0947266-.4755859.0644531-.9677734.1318359-1.4628906.3134766-1.8291016.6660156-3.8105469.9023438-6.4267578.7724609-.6005859-.03125-1.2011719-.0722656-1.8017578-.1132812-1.1171875-.0761719-2.2724609-.1552734-3.4208984-.1660156-1.6660156-.0175781-3.3505859.0400391-4.9794922.0927734l-1.4423828.0458984c-.1445312.0048828-.2905273.0263672-.4360352.043457.0214844-.0683594.0385742-.1386719.0395508-.2133789.0068359-.5068359.0078125-1.0019531.0097656-1.4882812.0019531-1.0097656.0039062-1.9638672.0615234-2.9111328.2597656-4.3017578-.0585938-8.6162109-.3662109-12.7880859-.1025391-1.3925781-.2050781-2.7841797-.2871094-4.1767578-.0585938-.9892578-.1367188-1.9755859-.2158203-2.9619141-.1289062-1.6181641-.2626953-3.2900391-.2958984-4.9433594-.0712891-3.5820312.2861328-7.1855469.6318359-10.6708984.0976562-.9873047.1953125-1.9746094.2841797-2.9628906.1875-2.0830078.3525391-4.3056641.5185547-6.9941406.0546875-.8984375.0869141-1.7988281.1191406-2.6992188.03125-.8681641.0615234-1.7363281.1142578-2.6025391.0683594-1.1416016.1523438-2.2832031.2363281-3.4238281.1113281-1.5039062.2216797-3.0078125.2978516-4.5146484.1289062-2.5664062.2226562-5.3427734.2871094-8.4882812.0986328-4.8457031.1679688-8.9228516.1826172-13.0722656l.0019531-1.9667969c-.0009766-2.6689453-.0009766-5.4287109.1865234-8.125l.0292969-.4150391c.0830078-1.1533203.1679688-2.3457031.1191406-3.53125-.1582031-3.8085938-.0068359-7.6855469.140625-11.4345703l.0595703-1.5449219c.1396484-3.6748047.1904297-7.4228516.1503906-11.1386719-.0087891-.8496094-.0322266-1.6972656-.0566406-2.5458984-.046875-1.6787109-.0947266-3.4150391-.0214844-5.1230469.1171875-2.6923828.1230469-5.4277344.1289062-8.0732422.0039062-2.0283203.0087891-4.1259766.0634766-6.1816406.0185547-.7060547.0068359-1.4140625-.0058594-2.1230469-.0273438-1.5537109-.0537109-3.0214844.2431641-4.4667969.0849609-.4023438-.1494141-.6796875-.2890625-.8457031-.0439453-.0517578-.0976562-.1152344-.1572266-.1953125-.1777344-.2421875-.4833984-.3496094-.7744141-.2851562-.2919922.0683594-.515625.3046875-.5673828.5996094-.0332031.1845703-.0664062.3554688-.0986328.5166016-.0722656.3681641-.1347656.6923828-.1640625,1.0205078-.0371094.4121094-.0556641.8271484-.0732422,1.2421875-.0136719.3105469-.0263672.6201172-.0488281.9287109-.0517578.71875-.1132812,1.4375-.1748047,2.1552734-.1220703,1.4179688-.2480469,2.8847656-.296875,4.3408203l-.0390625,1.1435547c-.1308594,3.8310547-.2675781,7.7929688-.2207031,11.6953125.0234375,1.9785156-.0039062,3.9951172-.0302734,5.9453125-.0419922,3.1259766-.0859375,6.3574219.0771484,9.5488281.0087891.1679688-.0097656.3369141-.0244141.5068359-.0117188.1279297-.0234375.2558594-.0292969.3828125l-.1777344,3.7958984c-.1230469,2.6699219-.2470703,5.3398438-.3798828,8.0087891-.0546875,1.0849609-.0224609,2.1708984.0087891,3.2207031.0322266,1.0712891.0654297,2.1796875.0029297,3.2626953-.2285156,4.0107422-.4482422,8.7617188-.34375,13.59375.0507812,2.3046875-.0273438,4.6464844-.1035156,6.9121094-.0458984,1.3916016-.0927734,2.7832031-.1113281,4.1767578-.0292969,2.1142578-.1386719,4.2695312-.2441406,6.3535156-.0390625.7714844-.078125,1.5429688-.1132812,2.3144531-.0419922.9296875-.1044922,1.8574219-.1669922,2.7861328l-.1484375,2.1689453c-.0537109.7490234-.1074219,1.4970703-.1523438,2.2470703-.0537109.8974609-.0957031,1.796875-.1376953,2.6972656-.0839844,1.796875-.1708984,3.65625-.3603516,5.4570312l-.0595703.5664062c-.4921875,4.6914062-1.0019531,9.5429688-1.1796875,14.3769531-.0771484,2.0791016.0585938,4.1416016.1894531,6.1367188.0361328.5517578.0732422,1.1035156.1044922,1.65625Z" stroke-width="0"/>
        <path d="m6.5185803,2.8020583c.1240234.0859375.2207031.1601562.3027344.2226562.1855469.1416016.3613281.2753906.5976562.3496094.4033203.1269531.8603516.2705078,1.3457031.2998047,1.0126953.0595703,2.0263672.1015625,3.0390625.1445312l1.7568359.0771484c.4365234.0205078.8740234.0537109,1.3105469.0859375.890625.0673828,1.8154297.1347656,2.7353516.1054688,2.1611328-.0703125,4.3525391-.1953125,6.4716797-.3154297l3.0820312-.1669922c.4912109-.0205078.9824219-.0419922,1.4707031-.09375,3.0185547-.3212891,6.9980469-.6484375,11.015625-.3466797.4570312.0332031.7402344.0703125,1.0400391.3818359l-.0878906,1.1787109c-.0810547,1.0976562-.1669922,2.2412109-.2470703,3.3867188-.0214844.3066406-.0234375.6162109-.0253906.9257812l-.0029297.3203125c-.0078125.5566406-.0058594,1.1142578-.0029297,1.671875.0048828,1.1865234.0097656,2.4140625-.0927734,3.5888672-.1386719,1.5888672-.3310547,3.203125-.5166016,4.7646484-.1865234,1.5722656-.3798828,3.1992188-.5205078,4.8105469-.0576172.6591797-.1376953,1.3164062-.2177734,1.9736328-.2216797,1.8212891-.4511719,3.703125-.2060547,5.6416016.0136719.1025391-.0117188.2714844-.0371094.4345703-.0175781.1162109-.0351562.2333984-.0458984.3486328l-.4267578,4.6015625c-.3330078,3.5888672-.6660156,7.1777344-1.0087891,10.7646484-.0878906.9267578-.1904297,1.8505859-.2939453,2.7753906-.1708984,1.5302734-.3476562,3.1132812-.4511719,4.6845703-.1181641,1.7675781-.1494141,3.5644531-.1796875,5.3027344-.0117188.6542969-.0224609,1.3095703-.0390625,1.9638672-.0068359.2841797.0449219.5419922.0898438.7705078l.0205078.1035156c.121582.640625.3012695,1.355957.8735352,1.7451172-.1572266.0317383-.3056641.0976562-.4135742.2197266-.1425781.1591797-.2099609.3720703-.1855469.5849609.1210938,1.0527344.6572266,1.8291016,1.5507812,2.2470703.2236328.1044922.4472656.2158203.671875.328125.8046875.4013672,1.6367188.8173828,2.5449219.9482422.7177734.1035156,1.4316406.2451172,2.1464844.3847656,1.5869141.3125,3.2265625.6455078,4.9248047.5654297,1.0634766-.0429688,2.1269531-.0537109,3.1914062-.0654297.9990234-.0097656,1.9990234-.0205078,2.9980469-.0576172.9804688-.0351562,1.9599609-.1025391,2.9394531-.1699219.8154297-.0556641,1.6308594-.1123047,2.4472656-.1494141,2.7685547-.1240234,5.0566406-.0097656,7.2148438.3603516l.2128906.0371094c.546875.0957031,1.1289062.1972656,1.7294922.1972656.6162109,0,1.2509766-.1074219,1.8847656-.4384766.2773438-.1445312.4921875-.3515625.6992188-.5517578.0830078-.0800781.1708984-.1660156.2685547-.2519531.1572266-.1367188.25-.3339844.2568359-.5429688.0058594-.2089844-.0751953-.4101562-.2246094-.5566406l-.9082031-.8916016c.0068359-.0244141.0136719-.0488281.0205078-.0722656.1103516-.3886719.2236328-.7910156.2626953-1.2275391.1582031-1.7539062.3046875-3.5087891.4521484-5.2646484.1621094-1.9316406.3242188-3.8632812.5009766-5.7929688.0283203-.3154297.0546875-.6328125.0800781-.9511719.1015625-1.2441406.2060547-2.5302734.5146484-3.6728516.4033203-1.4902344.5585938-3.0068359.7080078-4.4736328.0673828-.6611328.1347656-1.3212891.2246094-1.9785156.1650391-1.203125.2929688-2.4150391.4208984-3.6259766.15625-1.4746094.3173828-2.9990234.5458984-4.4736328.6376953-4.1171875.9707031-8.4746094,1.0166016-13.3203125.0185547-1.9550781-.0136719-4.0224609-.0966797-6.3183594-.0107422-.2832031-.015625-.5664062-.0214844-.8505859-.0209961-1.1611328-.0463867-2.3583984-.387207-3.5380859.2573242-.4892578.4682617-1.1303711.340332-1.9833984-.1533203-1.0244141-.2324219-2.09375-.3095703-3.1269531-.0986328-1.3291016-.2001953-2.703125-.4609375-4.0546875-.0625-.3212891-.0341797-.4824219-.0595703-.4824219h-.0019531c.0019531,0,.0742188-.0263672.2763672.0068359.3339844.0585938.5957031.1289062.8242188.2207031,1.7363281.6953125,3.5019531.9648438,5.4638672,1.2216797l.8720703.1132812c1.3876953.1767578,2.8242188.3603516,4.2001953.6630859.5478516.1201172,1.0927734.2490234,1.6386719.3769531,1.5253906.359375,3.1015625.7294922,4.7050781.9199219.9804688.1162109,1.6796875.4697266,2.2167969,1.1308594l-.0185547.0361328c-.1777344.3496094-.3476562.6855469-.5058594,1.0292969-.0537109.1181641-.1142578.2363281-.1738281.3544922-.1953125.3847656-.4160156.8212891-.4970703,1.3232422-.1953125,1.2109375-.3398438,2.4453125-.4804688,3.6396484l-.1357422,1.1416016c-.2666016,2.1767578-.3193359,4.1777344-.1611328,6.1152344.0136719.1767578.0136719.3544922.0146484.53125.0029297.4941406.0058594,1.046875.2480469,1.5976562-.1835938,1.2998047-.1162109,2.5839844-.0517578,3.8291016.0390625.7412109.0791016,1.5078125.0615234,2.2480469-.0410156,1.7753906-.0498047,3.5527344-.0576172,5.3300781-.0087891,1.7675781-.0166016,3.5351562-.0585938,5.3017578l-.0322266,1.2177734c-.0634766,2.2324219-.1279297,4.5410156.1357422,6.8349609.0585938.5107422.0888672,1.0478516.0908203,1.5996094.0068359,1.7265625.0058594,3.4521484.0048828,5.2753906l-.0009766,2.1591797c0,.2783203.1542969.5341797.4013672.6640625.109375.0576172.2294922.0859375.3486328.0859375.1494141,0,.2978516-.0449219.4257812-.1328125l.0600586-.0415039c.0649414.0180664.1303711.0317383.1948242.0317383.3125,0,.6035156-.1962891.7099609-.5078125l.1376953-.4042969c.0009766-.0029297,0-.0058594.0009766-.0087891.0239258-.0722656.0385742-.1489258.0390625-.2285156l.0117188-1.2910156c.0107422-1.0244141.0214844-2.0488281.0068359-3.0732422-.0107422-.7470703-.0371094-1.4931641-.0644531-2.2402344-.0361328-1.0126953-.0722656-2.0263672-.0673828-3.0390625.0058594-1.2011719.0380859-2.4023438.0703125-3.6035156.0400391-1.5058594.0810547-3.0634766.0683594-4.6015625-.0214844-2.4560547-.0722656-4.9121094-.1230469-7.3671875-.0527344-2.5273438-.1054688-5.0546875-.125-7.5830078-.0253906-3.2607422-.0234375-6.7666016.1552734-10.3037109l.0097656-.2041016c.0771484-1.5839844.1503906-3.0791016,1.2177734-4.1201172.4726562-.4619141.6943359-1.1298828.6064453-1.8330078-.0917969-.7451172-.515625-1.4033203-1.1318359-1.7617188-1.0048828-.5849609-1.9257812-.9765625-2.8144531-1.1972656-.7949219-.1962891-1.5986328-.328125-2.3759766-.4550781-1.3876953-.2275391-2.6982422-.4433594-3.9550781-.9951172-.4121094-.1796875-.8320312-.2275391-1.2021484-.2705078l-.1835938-.0214844c-.890625-.1132812-1.7822266-.2226562-2.6738281-.3320312-1.2255859-.1503906-2.4521484-.3007812-3.6767578-.4628906l-.2978516-.0390625c-.8242188-.1044922-1.6035156-.203125-2.2832031-.6435547-.5126953-.3349609-1.1064453-.4433594-1.671875-.5107422-.8183594-.0957031-1.5214844.1572266-2.015625.7099609-.5644531.6318359-.7519531,1.5830078-.5136719,2.6083984.4199219,1.8017578.5087891,3.6318359.5429688,5.3408203.0185547.9169922.0683594,1.6132812.1601562,2.2578125.0424805.2998047.1494141.5527344.2573242.7866211-.2236328.3085938-.3422852.6967773-.3364258,1.1469727l.0166016,1c.0146484.7851562.0283203,1.5712891.0244141,2.3564453-.0048828.9101562-.0205078,1.8222656-.0361328,2.7333984-.0273438,1.6435547-.0566406,3.3427734-.0224609,5.0195312.078125,3.8759766-.4824219,7.75-1.0244141,11.4960938l-.1572266,1.0888672c-.0957031.6660156-.1992188,1.3291016-.3037109,1.9931641-.1689453,1.0810547-.3378906,2.1621094-.4707031,3.2490234-.1601562,1.3017578-.3017578,2.6074219-.4433594,3.9121094-.1523438,1.4052734-.3046875,2.8105469-.4804688,4.2119141-.0615234.4921875-.1728516.9794922-.2910156,1.4951172-.1337891.5820312-.2714844,1.1845703-.3369141,1.8115234-.2685547,2.5673828-.5039062,5.1386719-.7402344,7.7109375l-.3320312,3.578125c-.0839844.8974609-.1748047,1.7939453-.2695312,2.7255859l-.0732422.7294922c-.6972656-.0205078-1.3320312-.0927734-1.8896484-.1611328-1.4150391-.1767578-2.8457031-.28125-4.2529297-.3134766-.9882812-.0234375-1.9667969.0380859-2.9169922.0976562l-.7333984.0439453c-.8056641.0449219-1.6103516.0976562-2.4150391.1494141-1.3173828.0859375-2.6337891.171875-3.9511719.2255859-1.9111328.0771484-3.4697266.0878906-4.9091797.0371094-1.5097656-.0556641-2.734375-.1855469-3.8515625-.4072266-.2744141-.0546875-.5517578-.1035156-.828125-.1533203-1.6010742-.2836914-3.1132812-.5527344-4.2543945-1.9335938.2563477-.0175781.5288086-.0541992.8354492-.1162109.2910156-.0585938.5205078-.2841797.5839844-.5742188l.2548828-1.1503906c.0761719-.3417969-.0947266-.6914062-.4121094-.8408203l-.5224609-.2460938c-.1181641-1.7929688-.0830078-5.8964844.0449219-7.1318359.2480469-2.3945312.4697266-4.7929688.6875-7.1933594.1269531-1.4003906.2441406-2.8027344.3613281-4.2050781l.1513672-1.8056641c.1005859-1.1953125.2578125-2.4140625.4082031-3.5927734.3447266-2.6865234.7011719-5.4638672.4589844-8.2431641.0048828-.0244141.0224609-.1416016.0244141-.1669922.0751953-.8925781.1425781-1.7871094.2109375-2.6806641.1484375-1.9511719.3017578-3.96875.5234375-5.9345703.4628906-4.1074219.6982422-8.2939453.9267578-12.3427734l.1210938-2.1308594c.0546875-.9355469.0820312-1.8730469.1083984-2.8105469l.0253906-.8291016c.0439453-1.3867188-.3955078-2.0410156-1.6210938-2.4160156-.3515625-.1064453-.7314453-.2109375-1.1318359-.2460938-.5029297-.0449219-1.0058594-.1181641-1.5087891-.1914062-1.40625-.2041016-2.8574219-.4169922-4.3691406-.0546875-2.3310547-.1640625-4.6503906.0644531-6.8964844.2861328-1.4453125.1425781-2.9404297.2900391-4.4013672.3261719-.984375.0244141-1.96875.0634766-2.953125.1015625-1.5947266.0625-3.2890625.1103516-4.8564453.1269531-1.6777344,0-3.390625-.0634766-5.0458984-.1259766-.8847656-.0322266-1.7695312-.0654297-2.6542969-.0898438-.2509766,0-.4345703.0351562-.6679688.0839844-.1074219.0224609-.2324219.0488281-.3828125.0742188-.3007812.0507812-.5410156.2783203-.6074219.5761719-.0654297.2978516.0546875.6054688.3056641.7792969Z" stroke-width="0"/>
        <path d="m90.0595959,148.8743239c-.2216797,1.3808594-.9130859,2.3388672-1.8974609,2.6269531-1.8505859.5400391-3.7744141.9433594-5.6357422,1.3339844-.5742188.1201172-1.1484375.2402344-1.7207031.3642578-.0664062.0175781-.21875-.0068359-.3535156-.0263672-.1533203-.0214844-.3076172-.0419922-.4609375-.0458984-.8808594-.0185547-1.7607422-.0722656-2.6396484-.1259766-1.6875-.1015625-3.4306641-.2070312-5.1884766-.0683594-2.1240234.1708984-4.0292969.2646484-5.859375-.3271484-.7451172-.2402344-1.4980469-.4423828-2.3017578-.6591797-.3671875-.0986328-.7441406-.2001953-1.1376953-.3095703-.21875-.0625-.4560547-.0185547-.640625.1152344-.1855469.1337891-.2988281.3447266-.3095703.5732422-.0742188,1.6015625.9023438,2.0703125,1.3710938,2.2958984.2919922.140625.5830078.2119141.8398438.2744141.1777344.0439453.3554688.0839844.5224609.1582031,1.8398438.8242188,3.6982422,1.21875,5.7783203,1.1943359,1.09375-.0097656,2.1875.0117188,3.2792969.0351562,1.2773438.0253906,2.5986328.0527344,3.9013672.0253906.5830078-.0185547,1.1699219.0234375,1.7890625.0615234.5419922.0341797,1.0898438.0683594,1.6445312.0683594,1.0322266,0,2.0869141-.1181641,3.1640625-.578125.8183594-.3486328,1.7138672-.4980469,2.6621094-.65625.5029297-.0839844,1.0068359-.1689453,1.5029297-.2822266,2.3574219-.5410156,3.8847656-2.2197266,4.4189453-4.8574219.1806641-.890625.3759766-1.9296875.4150391-2.9707031.0205078-.5136719.0527344-1.0273438.0849609-1.5410156.1103516-1.7421875.2246094-3.5439453-.1464844-5.3603516-.0371094-.1796875-.0361328-.4296875.0019531-.7050781.0878906-.6347656.1845703-1.2685547.2822266-1.9023438.15625-1.0234375.3125-2.0458984.4326172-3.0751953.1474609-1.2636719.1552734-2.5390625.1630859-3.7724609.0087891-1.4267578.0166016-2.7744141.2216797-4.1259766.0302734-.2080078-.0097656-.3916016-.0341797-.5058594-.328125-1.4863281-.1503906-2.9765625.0361328-4.5537109.0566406-.4765625.1132812-.9521484.1552734-1.4248047.0654297-.7353516.1416016-1.4716797.2177734-2.2099609.1054688-1.0146484.2109375-2.0322266.2890625-3.0498047.0751953-.9863281.0205078-1.9765625-.0361328-2.9794922-.0195312-.3525391-.1894531-.6103516-.3701172-.8828125-.078125-.1181641-.1728516-.2597656-.2773438-.4433594-.0214844-.0375977-.0522461-.0664062-.0791016-.0991211,1.1142578-1.6850586,1.2045898-2.6000977.9433594-5.121582-.0419922-.4072266-.3447266-.7089844-.7724609-.6728516-.4306641-.0117188-.6533203.1669922-.7675781.3222656-.5986328.796875-.6191406,1.7011719-.6367188,2.4990234-.0107422.4980469-.0214844.96875-.1708984,1.3447266-.1240234.3115234-.1005859.6142578-.0751953.9345703.0087891.1230469.0205078.2617188.0224609.4189453.0029297.1831055.0766602.3491211.1918945.4804688-.0180664.046875-.0390625.0922852-.0473633.1435547-.0439453.2666016-.0839844.4833984-.1181641.6689453-.0703125.3798828-.1171875.6455078-.1308594.9121094-.0195312.3681641-.0244141.7373047-.0283203,1.1064453-.0068359.5273438-.0126953,1.0244141-.0625,1.5136719-.1591797,1.5722656-.3359375,3.1425781-.5126953,4.7119141-.1279297,1.1386719-.2558594,2.2763672-.3779297,3.4150391-.0732422.6875-.0908203,1.3886719-.1005859,1.9931641-.0205078,1.2978516-.0292969,2.5966797-.0380859,3.8955078l-.0048828.6845703c-.0009766.1757812-.0078125.3535156-.0136719.5302734-.0166016.4814453-.0341797.9785156.0351562,1.484375.2431641,1.7734375-.1181641,3.4658203-.4794922,4.8330078-.0341797.0478516-.1689453.1416016-.25.1982422-.1171875.0830078-.2236328.1611328-.3017578.234375-.1425781.1347656-.2275391.3203125-.2353516.515625-.0126953.3115234-.0205078.6142578-.0273438.9101562-.0136719.6152344-.0273438,1.1972656-.09375,1.7529297-.125,1.0576172-.2675781,2.2548828.3603516,3.4599609.0224609.0419922.1298828.2890625.0712891.9921875-.1318359,1.5869141-.2490234,2.9082031-.4638672,4.25Z" stroke-width="0"/>
      </g>
      <path d="m95.9248303,58.7542067c-.0078125-.2285156-.015625-.4599609-.015625-.6943359,0-.2421875-.1533203-.4570312-.3505859-.5976562-.1953125-.1416016-.4863281-.1650391-.7148438-.0869141-.8623047.2949219-1.3369141.4580078-1.3798828,1.4023438l-.0322266.6464844c-.046875.9121094-.0957031,1.8554688-.0673828,2.7958984.0488281,1.6191406.0615234,3.2402344.0732422,4.8603516.0234375,3.1621094.0478516,6.4316406.3554688,9.6523438.1435547,1.4970703.2255859,3.0371094.3046875,4.5332031.0146484.2773438-.0107422.5585938-.0332031.8398438-.0146484.1787109-.0292969.3583984-.0361328.5361328l-.0195312.4414062c-.0332031.7412109-.0664062,1.4824219-.0898438,2.2246094-.0498047,1.6503906-.0703125,3.3017578-.0908203,4.953125-.0390625,3.2773438-.0810547,6.6660156-.3720703,9.9746094-.0673828.7695312-.0234375,1.5390625.0185547,2.2832031l.0126953.2363281c.0195312.3525391.2158203.5966797.3730469.7919922.0537109.0683594.1171875.1464844.1816406.2421875.1416016.2080078.375.3300781.6220703.3300781.0380859,0,.0771484-.0029297.1162109-.0087891.2880859-.0458984.5234375-.2529297.6044922-.5332031.3476562-1.203125.53125-2.3427734.5771484-3.5859375l.0390625-1.0537109c.1152344-3.1113281.2294922-6.2226562.3027344-9.3349609.0556641-2.3613281.0517578-4.7587891.0478516-7.0771484l-.0009766-.4150391c-.0009766-.4042969.0058594-.8105469.0126953-1.2177734.0195312-1.2089844.0390625-2.4589844-.1318359-3.6787109-.2529297-1.7919922-.2578125-3.6484375-.2617188-5.4433594-.0039062-1.4384766-.0078125-2.9257812-.1357422-4.4023438-.2324219-2.6728516-.2148438-4.9707031.0556641-7.0263672.0693359-.5341797.0517578-1.0703125.0351562-1.5878906Z" stroke-width="0"/>
    </g>
  </g>
</svg>