<?xml version="1.0" encoding="UTF-8"?>
<svg id="Layer_2" data-name="Layer 2" xmlns="http://www.w3.org/2000/svg" viewBox="0 0 288.4854288 22.4851648">
  <g id="Layer_1-2" data-name="Layer 1">
    <path d="m287.3473609,11.689184c-.232544-.0074713-.4660218.0093391-.6985658.0235813-1.9752228.1197741-3.9625865.136818-5.9209989.3864059-3.2901702.4190928-6.5934152.8395864-9.8331542,1.5337162-3.1743652.680121-6.2628105,1.7494497-9.4119601,2.5619527-3.7113643.9577262-7.439539,1.8524135-11.175185,2.711612-1.3009387.2993186-2.6513747.3777672-3.9691239.6152142-4.2558347.7674418-8.5322155,1.1540811-12.8506222.727984-2.025654-.1996236-4.0681185-.3490494-6.0601517-.7394244-2.5196932-.4938057-4.4930482-1.889303-5.6651072-4.2563017-.622919-1.2598466-.4314671-1.8526469.7723448-2.5857675.5463382-.332706,1.1085529-.6394959,1.6745033-.9374137,2.9558299-1.5549626,5.7893174-3.2420738,7.7262498-6.1159529.7293849-1.081236,1.1020156-2.1650403.8377186-3.4501026-.1176728-.5694525-.390375-1.0679278-1.0216992-.9768714-1.8211274.263363-3.7179017-.0989946-5.466184.8206747-3.9560491,2.0812218-6.7391054,5.3104543-8.9356652,9.0986328-.4099871.7076714-.8526612,1.1358699-1.5876495,1.4692763-4.1222854,1.8722591-8.4677756,2.9420547-12.9225334,3.5124411-3.3088484.4235289-6.1918332-.6868919-8.5154051-3.1332731-.8209082-.8641016-.9890123-1.5407205-.295116-2.5077859.6658789-.9285415,1.5288131-1.7298376,2.3768048-2.5077859.896555-.8223091,1.9490733-1.4830515,2.7877258-2.3555583.3147282-.3278029.3735646-1.0826369.2736361-1.587883-.1307476-.6637776-.8115691-.5243913-1.3233526-.4917044-.928308.0600038-1.85755.1256111-2.7793206.242817-.3296708.042026-.7041693.1667032-.9488541.380102-1.0058227.8769429-2.0555392,1.7268024-2.9278126,2.7279555-1.2822605,1.4709106-2.658846,2.7793206-4.4939821,3.4923621-2.9240769,1.1356364-5.8434843,2.2901845-8.8030498,3.3261258-4.5602899,1.5960548-9.1990283,2.9327156-13.9638447,3.767399-2.1218469.3716968-4.2511651.680121-6.4225094.2860104-2.9913185-.543303-5.4278936-2.031491-7.3891078-4.3076668-1.287864-1.4947254-1.1972745-2.1680755.2586935-3.5047364.7293849-.670315,1.487721-1.3140135,2.1722781-2.0282223.4389384-.4576166.8591986-.9782723,1.1272312-1.5467909.5743556-1.2192215.5183209-2.5617192-.0186782-3.7181352-.4949731-1.0667604-1.6642303-.4636871-2.5477106-.5269596-.3474151-.0249821-.7181779-.057669-1.045047.0326869-.7639396.2108305-1.6632964.3072569-2.2339163.7814504-2.0639444,1.7167628-3.6758757,3.7821081-3.7403156,6.6389434-.02148.949321-.4305332,1.4615715-1.181398,1.9488398-2.1610712,1.4025016-4.4239388,2.579697-6.8474391,3.4517369-4.1400297,1.4900558-8.3164819,2.6443704-12.800191,1.9324964-1.8687569-.2967504-3.6571974-.7097727-5.1561254-1.9392672-.8106352-.6647115-1.5923191-1.3642112-2.3992186-2.0331253-1.1431077-.9474532-1.3653786-2.2546958-1.4148759-3.6221757-.0224139-.6329585.2558918-1.0819365.8563968-1.387559.9852766-.50081,1.9854958-1.003021,2.8764474-1.6483538.8358508-.6056416,1.5820461-1.3560395,2.2852814-2.1197456.6135799-.6668128.633192-1.509201.1951875-2.2838806-.4193263-.7419927-1.1169582-.9374137-1.9546768-.8241769-.8059656.1085672-1.6306095.0765807-2.4337734.1951875-.5015105.074246-1.0693287.1975223-1.4522324.4973079-1.7828371,1.3961977-3.6469244,2.7197838-4.6611523,4.8824893-.1951875.4151237-.6873589.7966265-1.1300329.9705675-3.3023111,1.2990709-6.58501,2.6684186-9.9545627,3.7666986-3.3144519,1.0805356-6.7064185,1.9425359-10.0965172,2.764378-3.4993664.8484586-7.0734457.6626102-10.605499.2577596-3.8738649-.4438414-7.2275411-2.09453-9.9237436-4.9763474-.179311-.1909849-.2839091-.4520132-.4417401-.7102397.3137943-.2442179.5631486-.3999476.7667413-.6023729,1.2747892-1.2691857,2.5337019-2.554248,3.8103589-3.8220328.6210511-.6173155.7676753-1.4118407.3632916-2.0770192-.2316101-.3817363-.9553915-.6271216-1.467175-.643465-1.6259399-.0525325-3.2724259-.105999-4.8806215.0940916-2.5439749.3163625-4.3604328,2.4540859-4.1493688,4.9803165.1307476,1.5724735-.5687521,2.3413161-1.7669606,3.0342785-4.3025303,2.4879402-8.7787681,4.5107925-13.5865445,5.856559-2.8876544.8078334-5.7118027.9873779-8.6228049.427498-1.8752943-.3604898-3.4834899-1.1262973-4.6135228-2.8556679.7723448-.4828322,1.4270168-.9838758,2.1545338-1.32989,2.2768762-1.0828704,3.9336352-2.8533331,5.52969-4.7382,1.0543861-1.245371,1.1767285-2.553314.4408062-3.8843714-.7144423-1.2918331-1.7977796-2.2469911-3.2705581-2.6978368-2.2535284-.6901606-4.5051891-.3873398-6.7465767-.0112069-2.3730691.3987802-4.7601469,2.7452329-5.1150333,5.1304428-.3885072,2.6189213-.4398723,5.2397105,1.05532,7.6879595-.696698.3983133-1.3177491.8477582-2.0069758,1.1258303-1.2934674.5213561-2.6233574.9537571-3.9439083,1.4053033-3.7758042,1.2915996-7.5889648,2.1111069-11.6477442,1.6588603-2.4150951-.2689665-4.6471436-1.0352409-6.9034738-1.7870397-1.2168867-.4055511-2.3599944-.4648544-3.5311194.0716777-.1017964.8559299.2736361,1.2278601,1.0226331,1.3763521,1.0739982.2126983,2.1685425.3878068,3.197713.7438605,3.0847097,1.0669939,6.2600088,1.2915996,9.4754661,1.1468433,5.2906086-.237914,10.3262594-1.620103,15.2283609-3.5490972.6612093-.2600944,1.1272312-.1692715,1.7445467.2568257,1.1356364.7835517,2.3459857,1.7057894,3.6422548,1.9549102,2.3833421.4578501,4.8610094.7174775,7.281708.6205842,7.3853721-.2953495,14.3028546-2.3877782,20.7692578-5.9859058,1.8510126-1.0301044,1.8594178-1.0151618,3.4760186.3464812.1335493.1125363.2661648.227174.3922428.3488159,1.5073332,1.4615715,3.313518,2.2736075,5.3485112,2.780488,3.0314767.7553009,6.1021777.7931243,9.1878213.9217706,7.6375282.3182303,14.9173684-1.3586078,22.0627253-3.8217993,2.2432554-.7730452,4.4435509-1.6707677,6.7979418-2.5624197.1718397.680588.2736361,1.2463049.4594845,1.7823701.2278744.6572402.3595559,1.472078.8246439,1.9009769,2.0041741,1.8493782,3.956983,3.8388432,6.7811314,4.4309431,5.202821,1.0912756,10.4392627,1.05532,15.6065951-.0431934,4.0867967-.8692381,8.051251-2.2437224,11.7336641-4.2819842.1877162.1510602.3464812.2381474.4520132.3681946,3.0875114,3.8061563,7.1920525,5.4566114,11.9615385,5.4682853,6.4598658.01611,12.7208085-1.3915281,18.8454001-3.2635537,4.0485063-1.2371993,8.1735934-2.3387479,11.9820845-4.2845525.0784486-.0401582.2138657.0319865.3221995.0520656,1.4158098,2.87528,3.6077001,4.7571117,6.8502408,5.3162912,2.2152381.3817363,4.5210656.4847001,6.7699245.3758994,4.8385955-.2344118,9.5651216-1.2066137,14.372898-2.8281175,1.3588412,4.3821462,4.558422,6.279154,8.6900465,6.6111595,4.6938392.3770668,9.4166296.6929623,14.1170062.5876638,3.640387-.0817173,7.2564923-.9465193,10.8996811-1.2967361,6.8231574-.6558394,13.3269171-2.6973699,19.859628-4.5619242,4.0344977-1.1515129,8.0456476-2.316334,12.2164963-2.822514,1.6735694-.2031258,3.3536762-.3462477,5.0328491-.4907705.5584791-.0480964,1.0964121-.0798494,1.0627913-.8269786-.0326869-.733821-.5977034-.7588031-1.1365703-.7765474ZM33.2580593,3.3211035c.3530185-.3011865.6789537-.6432315,1.065593-.892119.2717682-.1755754.6733502-.3845381.9339115-.3049221,1.3158813.4018154,2.3908134,1.1776624,3.0146663,2.4407777.1251441.2537904.0812503.6938962-.0551008.9598275-1.118826,2.1804499-3.6142375,4.3382524-6.1479394,5.3804976-1.371916-2.4533855-.8395864-5.851189,1.1888693-7.5840618Z" stroke-width="0"/>
  </g>
</svg>