<?xml version="1.0" encoding="UTF-8"?>
<svg id="Layer_2" data-name="Layer 2" xmlns="http://www.w3.org/2000/svg" viewBox="0 0 48.6210528 48.6510659">
  <g id="Layer_1-2" data-name="Layer 1">
    <path d="m4.8385202,30.7065326c1.2219304,2.2644326,2.5152545,4.5041521,4.2438054,6.5701069,1.4210089,1.6976595,2.653923,3.4964028,4.1833954,5.1300482,2.1376917,2.2812514,5.1142592,3.9467322,7.865662,5.7689015.771601.5102246,1.7669937.4875708,2.7431651.4673197.4791615-.0099539.708445-.2430989.9391016-.5709779.494264-.7026958-.2430131-1.8304929-1.4937756-2.0100926-.9542041-.1370381-1.5486938-.54206-2.0251093-1.1243647-.1908408-.2325443-.4393458-.4457815-.7070721-.6288136-.5615388-.382883-1.2535084-.6779826-1.7161944-1.1187013-1.7038378-1.6241205-3.4076755-3.2472114-4.6419625-5.1362265-.6905966-1.0570899-1.6791246-1.9935314-2.3559916-3.0550834-1.018733-1.598206-1.8740842-3.2618848-2.8159317-4.8914972-1.5006403-2.597546-2.7102141-5.2700896-3.517512-8.0755526-.7770928-2.6990589-1.3468693-5.3959725-.8072978-8.2136204.1977056-1.0333206.5189772-2.0656973.5889979-3.0979024.0562912-.8349286.6150841-1.3767311,1.2617461-1.9949901.8182815-.7837002,1.7175673-.8012911,2.7678783-.6025558.3583414.0677039.7867035.0234261,1.0887537.1503386.9143884.3823681,2.0292282.6785833,2.6168532,1.2723865,1.2274222,1.237891,2.1404376,2.6587283,3.2346831,3.9782243.7331582.8849556,1.5020133,1.7386765,1.8878138,2.7777464.6905966,1.8600114,1.4319926,3.708267,2.2049665,5.5463111.2375213.5629118.5766413,1.1148399.9995116,1.6030113.5464363.6295001,1.541829.8871009,2.3230407.4925478.9034047-.4559928,1.8740842-.8982561,2.1541672-1.8842098.5684036-2.0053731,1.2315411-4.0044821,2.0100068-5.9772475.6123381-1.5536708,1.4470951-3.0659812,2.1967288-4.593051,1.0887537-2.2138049,2.4520985-4.3274699,4.2451784-6.2931131,1.1395531-1.2502476,2.7390462-1.8063804,4.5911632-1.9645277.9349827-.0797172,1.6393089.2010522,2.2626306.7828421.7880765.7357325,1.0503109,1.608589,1.4210089,2.465399.7496337,1.7280361,1.3853121,3.4796699,1.5075051,5.3353908.0260862.3892329.0041189.7871325.091988,1.1658108.1757383.7611322.4434646,1.4988383.2512509,2.3079382-.3130339,1.3120306-.584879,2.6289523-.8196544,3.9471612-.3871734,2.1756196-.955577,4.2910866-2.3010734,6.3285525-1.4745542,2.2317391-2.8612392,4.4913665-4.5582122,6.6410715-.1977056.2502211-.4297351.5126273-.5025017.7854163-.4489564,1.693369-2.005888,3.0194724-2.869477,4.5846416-.9377286,1.6980027-2.2955816,3.2794758-3.5120201,4.8951012-.8114167,1.0786282-1.6091038,2.2261615-3.1330844,2.8064068-.9761714.3713845-1.0104952.9146458-1.0159871,1.5165151-.0054918.6116517.6068463.7696274,1.264492.9342104.6700023.1679296,1.2768486.1142127,1.9180188-.0913015,2.0525685-.6579889,3.6781478-1.7121613,4.843787-3.1551375.7770928-.9628708,1.4855378-1.9574913,2.188491-2.9515969,1.0695323-1.512053,2.0690439-3.0514794,3.1729001-4.5495454.7564985-1.0265417.9528311-2.1927815,1.9235106-3.1911776.9583229-.98398,1.5528127-2.1731311,2.2379174-3.2943209,1.0818889-1.7717991,2.1569131-3.5480602,3.1358303-5.3501501.524469-.9686201,1.0750241-1.9866666,1.2109467-2.9965612.3748168-2.7974826,1.3331398-5.5741993.8786915-8.4108969-.2498779-1.5637105-.1620087-3.17659-.584879-4.7308614-.5766413-2.1188136-1.4292467-4.1617713-2.6580418-6.085711-.6658834-1.0443901-1.5665422-2.030687-3.054826-2.4489235-1.6475466-.4627718-3.3884541-.6591903-5.2227227-.2436138-2.0031421.4537618-3.9239068,1.0906415-5.1980095,2.3801041-1.3001888,1.3165785-2.8433908,2.570945-3.3568762,4.2428615-.030205.0964501-.1716194.1743653-.2375213.2695283-.6933425.9935049-1.4937756,1.9582636-2.0484496,2.9902112-1.0255978,1.9084939-1.9042893,3.8568894-2.8516286,5.7869216-.0260862.0540601-.1304308.0888989-.2553697.1699032-.1112094-.1579757-.2594886-.2964726-.3130339-.4567651-.3665791-1.1019684-.8210274-2.1653224-1.8754572-2.9975051-.1208201-.0952488-.1908408-.2336599-.2581156-.3610015-1.0585487-2.0050299-2.5056438-3.8090934-4.5994009-5.2637397-.8265192-.5747535-1.6228334-1.2362606-2.6099884-1.6060147-2.345008-.8782625-4.935775-.9583229-7.4743697-.2703006-2.1061137.5708921-3.4927988,1.8717674-4.4868185,3.3864805-.0205943.0325219-.0411887.0672748-.0494264.1021136-.4352269,1.94994-1.0352084,3.8955896-1.2672379,5.8509356-.4132596,3.475551.5272149,6.8168956,1.6914812,10.076292.7578714,2.1231899,1.9495968,4.1458107,3.0479612,6.1789004Z" stroke-width="0"/>
  </g>
</svg>