<?xml version="1.0" encoding="UTF-8"?>
<svg id="Layer_2" data-name="Layer 2" xmlns="http://www.w3.org/2000/svg" viewBox="0 0 306.2297388 21.2688013">
  <g id="Layer_1-2" data-name="Layer 1">
    <g>
      <path d="m137.6510837,12.5682268c-1.0459809-.617082-2.0237862-1.3567399-2.9987898-2.0868252-1.83607-1.3749512-3.577815-2.890923-5.4913996-4.1435318-2.2964884-1.5026636-5.0104352-1.7805023-7.6646117-2.0408301-4.6032498-.4513127-9.1822179-.1410206-13.7247634.7205127-2.2563302.4277315-4.5985802.5862629-6.754048,1.3116787-3.8383763,1.2918331-7.576824,2.8895222-11.3311482,4.4241722-1.8276648.7473627-3.5703437,1.7029876-5.3970746,2.4538525-2.4655264,1.0135275-5.0365847,1.7877401-7.4516799,2.9049317-3.4909612,1.6149665-7.1509603,2.4933102-10.9211611,2.9931864-4.8535381.6436985-9.7089439.5458713-14.541936-.2187688-6.0143901-.9514223-12.0138375-2.0067423-18.0356989-2.901663-5.4194884-.8054987-10.6064329-2.3919808-15.7261357-4.2826847-5.0010961-1.84681-9.7266883-4.2007339-13.8013441-7.6762856-1.1356364-.9684662-2.1797494-1.1664555-3.8112928-.653738.3119264.4774623.4781627.8694716.75927,1.1428742,2.0835566,2.0249536,4.464097,3.6478583,6.9174825,5.1864775,2.9212752,1.8325678,6.1152525,3.0632297,9.3017585,4.2882881,3.4367943,1.3214848,6.9370946,2.4877068,10.5812173,3.1267357,5.9975796,1.0515843,11.9923576,2.1297852,18.0020781,3.1071236,2.8456283.4627531,5.719274.9460523,8.590118,1.012827,4.1092106.0957259,8.2389672-.0228808,12.3379048-.3401773,4.9142423-.380102,9.7210848-1.3922286,14.2589608-3.4536047,1.4578359-.6621433,2.9679707-1.2084815,4.4547579-1.8052509,2.2292467-.8944537,4.5014534-1.693415,6.6784011-2.6992377,4.1773861-1.9299281,8.4481634-3.6226427,12.8599613-4.8871589,2.4991472-.7167771,5.1271741-.9920475,7.703836-1.4284176,4.3660363-.7394244,8.5322155-.0854529,12.3892699,2.0919618,1.9967028,1.1267642,3.9485778,2.3737696,5.7659696,3.7683329,2.3478535,1.8015153,4.8413972,2.3032592,7.6459334,1.5113023.263363-.6803545.031753-1.0555535-.5958355-1.4260829Z" stroke-width="0"/>
      <path d="m304.6176493,4.4709806c-.7611379-.0077048-1.5241436.1942536-2.3347787.3184638.0709773.4153571.0438938.664478.1512937.8185734.7499309,1.0728308.3240673,1.8960738-.4884357,2.6831277-1.6343451,1.5832135-3.3985039,3.0025255-5.6576359,3.5021681-3.0697671.6789537-6.183428,1.1538477-9.2578647,1.8159909-4.5406777.9785058-9.106571,1.2729214-13.7098208.6528041-2.9614334-.3992472-5.9228667-.8370182-8.8581506-1.3957307-3.2976415-.6275885-6.58501-1.3338591-9.8424933-2.1451947-4.2240817-1.0522848-8.1539813-2.9345834-11.9269838-5.0216421-2.8885883-1.5974556-5.8210704-2.912403-9.0113121-3.6485587-3.0660315-.7076714-6.1264594-1.6243056-9.2391865-1.9068138-5.5147474-.50081-10.9986757.379635-16.3892129,1.4639063-3.1734313.6383285-6.2329253,1.8724926-9.3195029,2.9105352-3.0417498,1.0226331-6.3870207,1.4835184-8.4873877,4.3674371-.1195407.1643684-.411855.2173679-.4996427.3871063-.1709058.3320055-.2540239.7100062-.4034498,1.1557155,1.6390147.3051556,2.9399534.0987611,4.2147426-.6182494,4.2502312-2.389646,8.6751039-4.3482919,13.4147048-5.5880595,3.1594226-.8267452,6.3151096-1.6259399,9.5744607-1.9107829,1.6436842-.1438224,3.3219232-.4487445,4.9366562-.2621957,2.5897366.2993186,5.171068.8276791,7.6982325,1.4814171,2.3207701.6000381,4.7330635,1.1895698,6.8007435,2.3347787,2.6252252,1.4531663,5.3064851,2.759942,8.0166963,4.0172203,3.1052557,1.4400915,6.3197791,2.5986087,9.676257,3.292038,3.2883024.6791871,6.5962169,1.2589127,9.888255,1.9208225,5.4801927,1.102249,10.9949401,1.5019632,16.5872021,1.2276267,3.6982895-.1814123,7.3414783-.6745176,10.9753279-1.2983705,2.7363607-.4697575,5.476457-.9558584,8.1791969-1.58835,2.6383-.617549,4.7918999-2.0590414,6.3076383-4.3749084.8050317-1.2313623.8423882-2.748735-.010273-3.910054-.2297422-.3128604-.6490685-.6770858-.9852766-.6808215Z" stroke-width="0"/>
      <path d="m165.5190028,5.6467752c-1.9509411-.0679421-3.9056179-.0191452-6.0872352-.0191452,0,.6514033-.0709773,1.2640492.0158765,1.8538143.137285.9346119.7163101,1.6317769,1.392462,2.2670702.3763663.3527851.6089103.9985849,1.0245009,1.1272312.3539525.1097346.8676038-.3616572,1.3308239-.51692.3492829-.1169724.7293849-.1400867,1.0954782-.2059275.5220565-.0943251,1.0543861-.1531615,1.5652357-.2918473,1.1281651-.306323,1.6801068-1.2715205,1.5316149-2.6025779-.1017964-.9121981-.7583361-1.5731739-1.8687569-1.6116978Z" stroke-width="0"/>
    </g>
  </g>
</svg>