<?xml version="1.0" encoding="UTF-8"?>
<svg id="Layer_2" data-name="Layer 2" xmlns="http://www.w3.org/2000/svg" viewBox="0 0 29.9542491 37.5591552">
  <g id="Layer_1-2" data-name="Layer 1">
    <path d="m24.4769244,21.4080068c-.2548667-.0608213-.5192712-.0876448-.7630056-.1884273-1.0017462-.4141147-1.7208032-.0256602-2.1230903.7533044-.8352432,1.61727-1.8916319,3.1340079-2.1583862,5.0543387-.1166229.8397668-.1489093,1.7548839.0327608,2.6098466.2110488.9930314.3043526,1.9175099.1570282,2.8810894-.1490696.9745982-.147098,1.992642-.2086984,2.9921479-.0746,1.2108428-.8660282,1.830251-2.0179411,2.0169975-1.1072901.1794698-2.040685-.4140501-2.6934296-1.4133932-.5159851-.789973-1.1217989-1.6081659-.8793386-2.605405-.7435032-1.0038081-.2054515-1.955216-.2215633-2.9258019-.0047482-.2866236.0898781-.6300997.2681207-.8122834.2478898-.2533526.1647392-.4120776.0769202-.7522453-.1383272-.535689-.0622994-1.1198557-.0071143-1.6671756.2187366-2.1691645-.5287849-4.0516957-2.2224445-5.5788005-.4419891-.3985305-1.1063935-.5930811-1.6853604-.7371991-1.6499675-.4107135-3.2963047-.8067993-4.8958627-.2203449-.6814479.2498613-1.4776047.2348437-2.2145271.3657028-.9196376.16335-1.6791178-.2125514-2.3445206-.953385-.4162492-.463423-.7780497-.936788-.4476895-1.5461959.0548447-.1011504.1341631-.2432911.0995135-.337983-.4891181-1.3364544.3422581-1.5671773,1.2273207-1.9752908,1.7836484-.8224506,3.6362171-1.2552067,5.6918686-1.095569.2680255.0208069.5364699-.1561987.786474-.2757441,2.0378845-.9745109,3.4543368-2.691432,4.9032841-4.349327.2660172-.304381.2803936-.9600134.2175732-1.451755-.4067264-3.1846886.3463218-5.9495953,1.8524719-8.442316.5585594-.9244079,1.9190971-.9646731,2.909575-.3001676,1.1511981.7723495,1.6791344,1.6983552,1.6141547,3.058143-.0864239,1.808493-.506147,3.47505-1.1307949,5.0793165-.0454763.1167244-.1403652.2093435-.1772008.328683-.1825273.5914145-.5855117,1.2061017-.4766304,1.7788455.1884514.9913475.4987048,2.0393008,1.2955313,2.8432655.4232812.4270379.8446712.8570892,1.2837124,1.2658797.7423971.6912956,1.497857,1.028402,2.4818582.7957617,1.6494687-.3899859,3.3236225.2755859,4.9095606.9656679,1.1206685.4876009,1.9092976,1.5238771,2.2817962,2.7508932.2802206.9230179-.5460851,2.1884001-1.5000171,2.4557388-.9885808.2770606-2.0095492.0788164-3.0332571-.1295974-.2978399-.0606334-.5943097-.140248-.8914143-.211149l.0027627-.0260663Zm-8.1421769-1.1831319c.437442-.3642747.8372761-.6887902,1.2277796-1.0245439.4435877-.3814005.4016992-.6974479-.0845418-1.1881469-.4115067-.415249-.8010672-.8571754-1.1751193-1.3087717-.6667132-.8048941-1.314403-1.6259881-2.0004176-2.478041-.8131205.7179945-1.6562863,1.4625066-2.7050714,2.3885739,2.0447448.6566229,3.3434611,2.2142088,4.7373705,3.6109297Z" stroke-width="0"/>
  </g>
</svg>