<?xml version="1.0" encoding="UTF-8"?>
<svg id="Layer_2" data-name="Layer 2" xmlns="http://www.w3.org/2000/svg" viewBox="0 0 371.9233741 88.9225408">
  <g id="Layer_1-2" data-name="Layer 1">
    <path d="m10.1531427,79.7630219c-1.7781675-.2362796-3.5525993-.4884357-5.3279651-.7415257l-2.733559-.3866394c-.5015105-.0700434-1.0039549-.1363511-1.4970601-.200791l-.3763663-.0504312c-.1344833.369829-.2521561.7228475-.2091962.8012961.0504312.0915233.5855625.2101301.8143708.2614952,2.7307572.6042407,5.382132,1.1281651,8.5658363,1.7501501.7443275.1456902,1.4933245.2727022,2.2423215.400648,2.1059704.3576881,4.2829181.728451,6.3291182,1.5063992l.6602754.2521561c1.656759.6322581,3.3695527,1.2859961,5.1038263,1.7641588,3.5703437.9843427,7.1285465,1.5502931,10.5746799,1.6838424,1.529747.0579025,2.8661744,0,4.0970697-.1802449,3.5572689-.5192548,6.7185593-1.2645162,9.665984-2.2787441,2.5775957-.8881498,5.1346454-2.1153095,7.8149714-3.7515225,2.8857865-1.7613571,5.2906086-4.2091391,7.1490925-7.2751706.9460523-1.5633678,1.8762282-3.1332731,2.807338-4.7041122l1.1982085-2.0200506c.8778768-1.4783819,1.7566875-2.9567638,2.6121505-4.4463526.5295278-.9217706,1.0478487-1.8491448,1.5652357-2.775585.6789537-1.2159528,1.3579073-2.4309716,2.0630105-3.6338496.411855-.7023014.8778768-1.2262258,1.3849908-1.5577644l.7135084-.4697575c1.2308954-.8153047,2.5028828-1.6576929,3.9056179-2.2143042,3.2005147-1.2701196,6.774594-2.0611427,11.2480301-2.4879402,2.416963-.2297422,4.8824893-.3707629,7.2667654-.50618l2.2021633-.1298137c.7517988-.0504312,1.529747-.1036642,2.2647354.0504312,2.0228523.4183924,4.6760949.9936818,7.2676993,1.7240006,7.1285465,2.0097775,13.0019159,4.6611523,17.9563164,8.1063518.8900177.6182494,1.7977796,1.3681803,2.4132273,2.6607139l.2586935.5435365-.5967694-.0812503c-.1540954-.0205461-.2727022-.031753-.3679611-.0410921-.1765093-.0177443-.3044551-.0298852-.4314671-.0831181-4.2306191-1.7352076-8.2865967-2.1582695-12.3986091-1.2962692-2.3235718.4865679-4.5733646,1.0086244-6.553257,2.0377949-2.6140183,1.3607091-5.1626628,2.923143-7.6272552,4.4342118l-.9535236.5836947c-1.171125.717244-2.0695479,1.6558251-2.6719208,2.7895936-1.9939011,3.7533903-1.6754372,7.1192074.9759375,10.288903,1.1141564,1.3317578,2.4309716,2.2871493,4.0260925,2.9212752,4.8675467,1.9341307,10.1394771,2.9044648,15.5617673,2.8250823,5.5128796-.0597703,10.1553536-1.0721304,14.1917191-3.0949827l.1242102-.0625721c1.2673179-.6341259,2.5766618-1.2906657,3.1435461-2.501015.6294564-1.3467004,1.0375757-2.5262306,1.2495736-3.6077001.2269405-1.160852.3343403-2.3693335.4389384-3.5376568.0466956-.5183209.0924572-1.0375757.1484919-1.5549626l.1737075-1.5260114.3950446.1559632c1.1468433.4520132,2.2301807.8797446,3.0324106,1.7006528l.5351313.5463382c1.0721304,1.0926765,2.1816173,2.2227094,3.1463478,3.4246535.2119979.264297.4295993.52766.6472007.7928909,1.0945443,1.32989,2.2255111,2.7055416,2.8568353,4.2446278,1.1421738,2.7867919,3.4022396,4.6060515,7.3274696,5.898585,1.9995045.6574737,4.1596418.9908801,6.0097205,1.2308954,3.4657456.4529471,6.1787585-.0793825,8.2819272-1.6184686,1.9864298-1.455968,4.2399582-3.1939773,5.8434843-5.3877354.474427-.6500024,1.0730643-1.2990709,1.7772336-1.9285272,3.0296089-2.7111451,4.6788966-5.1673323,5.3457094-7.9653312.0961929-.4053176.2194692-.8059656.3418116-1.2066137.1167389-.3810359.2344118-.7620718.326869-1.1477772l.0504312-.2082623c.7956926-3.3041789,1.6184686-6.7204271,1.2262258-10.1665606-.0364225-.3156621-.0336208-.6294564-.0308191-.9339115.0018678-.2166675.0046696-.4333349-.0084052-.6481346-.0392243-.643465-.0504312-1.2925335-.0616382-1.9425359-.0242817-1.4298185-.0504312-2.9091343-.3987802-4.2763808-1.0273026-4.0344977-2.6467052-7.9158339-4.8133799-11.5366087-1.1991424-2.0032402-2.5150237-3.576881-4.0232907-4.8096442-1.6530234-1.3523039-3.3676849-2.6971364-5.0263117-3.9971412l-.1979892-.1550293c-.2521561-.1970553-.5220565-.3773002-.791023-.5575452-.2829752-.189584-.5659504-.3791681-.8311812-.5874303-.4099871-.3203316-.8377186-.622919-1.2654501-.9255063-1.0207653-.7219136-2.0760853-1.4690428-2.8932578-2.4683281-1.6371469-2.0023063-2.9194073-4.0092821-3.9196266-6.1348646-.6836232-1.4531663-1.3364274-3.0156002-1.1655216-4.72746l.0345547-.348349c.1709058-1.7193311.3474151-3.4984325.7209797-5.2243009.3530185-1.6296756,1.2075476-3.1837043,2.5421071-4.6200602.5416687-.5827608,1.0394435-.9217706,1.5222757-1.0366418,1.487721-.3576881,2.6999381-.5463382,3.8159624-.5939677,2.4188308-.105532,5.0253778-.1681041,7.7103733.0747129,3.0632297.27457,6.3160435.7639396,9.3419167,2.4645924,3.3069806,1.8584839,5.5063422,4.5668272,6.9193503,8.5228763,1.2551771,3.5115072,1.6586268,7.1341499,1.9070473,10.5261165.2717682,3.7001574.2176014,7.4404729.1653023,11.0575122-.0177443,1.2112832-.1923858,2.4309716-.3604898,3.6105019-.0803164.5612808-.1606328,1.1234955-.2250727,1.6847763-.1017964.9002907-.1727736,1.529747.8349169,1.8977082.1830467-.1662362.3679611-.3362081.5547434-.5080479.5892982-.5416687,1.1982085-1.1029495,1.8454091-1.6334112.4025159-.3324725.5603469-.6761519.5790251-1.2691857.0401582-1.2710536.1634345-2.3581265.3782342-3.323791.2232048-1.0095583.517387-2.0181827.8012961-2.9941203.1559632-.5332635.3109925-1.0674608.4557488-1.603526.169038-.6210511.326869-1.2439701.485634-1.8659552.2764378-1.0824034.5612808-2.2021633.8956211-3.2948398.2699004-.886282.5836947-1.7744318.8872159-2.6336304.3464812-.9796732.7041693-1.9939011.9955497-2.9997237,1.1104208-3.8318389,2.8680422-7.0043362,5.3737268-9.6968031,1.6119312-1.7333397,3.4311908-2.8026684,5.5595752-3.271492,2.2731406-.5005766,4.7713538-.6210511,7.4245964-.3530185,3.787945.3791681,6.5074953,1.8211274,8.3136802,4.4089962,1.1888693,1.7043885,1.8472769,3.5161768,2.3814743,5.2214992.7517988,2.4029543.9002907,5.0244439.4669557,8.2501742-.3922428,2.9091343-1.4195455,5.6342881-3.0538906,8.0988805-.1559632.2344118-.3091247.4706914-.4622862.706971-.9469863,1.4625054-1.9266594,2.9745081-3.5469959,4.062515-2.7316911,1.83607-5.4549771,3.6814791-8.1754613,5.5315578-.633192.4314671-1.2607805.8704055-1.8874351,1.30841-.9983514.6985658-2.0312575,1.4204794-3.0753706,2.100367-1.1543146.7517988-2.3226379,1.4849193-3.4918951,2.2180398-1.6418164,1.0301044-3.3396675,2.0947635-4.9628057,3.1930434-4.0802593,2.7587746-7.3405444,5.234574-9.9891174,8.347301-1.1524468,1.3532378-1.7576214,2.8446944-2.1573356,3.9924717-.2876447.8283795-.4940392,1.7034546-.6929623,2.5495784l-.1148711.4847001c-.3744985,1.5680374-.7293849,3.6105019-.147558,5.5044744.4352028,1.4167437,1.2262258,2.9539621,2.3487874,4.569629.8134369,1.1692572,1.9808263,2.5682566,3.8066233,3.0230715,1.0917425.2708343,2.2553963.4090532,3.3816935.5435365.3829037.0448278.7648735.0905894,1.1459094.1410206.3203316.0429599.6798876.0298852,1.0058227-.0345547,2.4757994-.4903035,4.875018-1.0216992,7.0136754-2.1255826l1.5101349-.78075c1.4438272-.7480631,2.8876544-1.4961262,4.347358-2.2189737.8274456-.4099871,1.667032-.8003622,2.5066185-1.1907372.9114976-.4230619,1.8229952-.8470577,2.7195503-1.2962692,1.3354934-.6686806,2.6383-1.4382237,3.8990805-2.1825512,1.8061848-1.0665269,3.6740078-2.1694764,5.7033975-3.0202698.6658789-.2783056,1.3214848-.5818269,1.9798924-.886282,1.1244294-.5201887,2.2871493-1.0581217,3.4993664-1.4690428.9684662-.3278029,1.9574785-.6154477,3.0043933-.9199028.4977748-.1438224,1.0114262-.2932482,1.5465574-.453881l.9516558-.2857769-.5986373.7938248c-.4071854.5407348-.8003622,1.05532-1.1795302,1.5530948-.8134369,1.0665269-1.5689713,2.057407-2.2955545,3.0650975-2.0611427,2.8587031-3.1696956,5.8817746-3.2967076,8.9842286-.1344833,3.3069806,1.3653786,5.9583554,4.4594274,7.8812791,1.6240721,1.0086244,3.6385192,1.3877925,5.4166867,1.7230667,2.9717064.5584791,5.7491592.4426741,8.4883216-.3576881,3.7804737-1.1020156,6.5681996-3.2014486,8.2875306-6.2385288,1.2607805-2.2292467,2.068614-4.6985088,2.3347787-7.1425551.2119979-1.931329.0765807-3.4685473-1.2710536-4.6966409-1.7959118-1.6380808-3.5974271-3.2229286-4.9674753-4.4202031-.770477-.6733502-1.4709106-1.1627198-2.38521-1.3569734-.2979178-.063506-.5407348-.2222709-.8218421-.4062515-.1279459-.0831181-.2680326-.1746415-.4277315-.2661648l-.5575452-.316596.5846286-.263363c.1877162-.0849859.3474151-.1653023.4893696-.2362796.2895126-.1456902.5183209-.2605613.7844857-.3184638.4669557-.1008624.9348454-.2045266,1.4018012-.3091247,1.529747-.3399438,3.1108592-.6910945,4.6910375-.9348454,4.1110784-.6294564,8.336094-.284843,12.9197317,1.0581217,3.0529567.8946872,5.6753802,2.5505123,8.2109499,4.1521705l.9404489.5920999c1.5325488.9591271,3.0127985,2.0247201,4.4435509,3.0566923,1.4512985,1.0459809,2.9530282,2.1283843,4.5079908,3.0959166,3.5395246,2.2021633,7.5618814,4.0092821,12.2968127,5.5250204,4.7143852,1.509201,9.9200079,2.2759423,16.8776486,2.4842046.918035.0205461,1.8603517-.0429599,2.7727832-.1102016.6640111-.0485634,1.3280222-.0971268,1.9910993-.1130033,1.2514414-.0289513,2.511288.0130748,3.7337782.0513651,1.646486.053233,3.3499405.1073998,5.0319152-.0074713,3.5105733-.2381474,6.6429125-.8395864,9.5763285-1.8379378,2.0321914-.6920284,4.041969-1.5484253,5.9863727-2.3768048.9114976-.3885072,1.8239292-.7770144,2.7410303-1.1515129,3.4246535-1.3961977,6.5541909-3.3480727,9.5800642-5.2355079.7723448-.4809644,1.5437557-.9628628,2.321704-1.4363559,1.3495021-.8218421,2.2619337-1.5185401,2.9595655-2.2600658,1.8706247-1.9873637,3.281765-4.4407492,4.3146711-7.5011772.1130033-.3362081.1839806-.6873589.2661648-1.0936104.02148-.1092676.0448278-.2222709.0691095-.338076l-3.3611475-.7527327c-.1307476.2521561-.2521561.4977748-.369829.7349883-.3193977.6443989-.6201172,1.2533092-1.0207653,1.8099205-2.585067,3.5955593-5.1215707,5.856559-8.2258925,7.3321392-.2652309.1260781-.5127174.2811074-.7611379.4361367-.1877162.1167389-.3754324.2334779-.5687521.3399438-.8900177.4865679-1.7744318.9834088-2.6579121,1.4802497-2.0723496,1.1645876-4.2147426,2.3683996-6.4038312,3.4255874-2.0331253.9806071-4.1736505,1.8426074-6.2441323,2.6765904-.9647306.3875733-1.9294612.7760805-2.8867204,1.1776624-2.648573,1.1104208-5.6464289,1.7875066-8.9123174,2.0144471-2.9567638.2035927-5.972364.2054605-8.8889696.2063944l-.8844142.0009339c-.8713394.0009339-1.7613571.0625721-2.6224235.1232763-1.5997904.1130033-3.2546816.2288083-4.917978-.0345547-.6873589-.1083337-1.382189-.1839806-2.0760853-.2605613-1.8267309-.2017249-3.7150999-.4099871-5.455911-1.2084815-.5995712-.27457-1.2234241-.517387-1.8622195-.7620718-3.7393816-1.4344881-7.1948542-3.4255874-10.1404111-5.1785393-.5099157-.3035212-.9824749-.6584076-1.4391576-1.0011531-.2670987-.1998571-.5341974-.400648-.8097013-.5920999l-1.2719875-.8853481c-1.392462-.9722019-2.8325536-1.9761567-4.2763808-2.9278126-.7555344-.4977748-1.572707-.9544576-2.3627961-1.3961977-.316596-.1774432-.633192-.3548864-.9479202-.5351313-.1503598-.0859199-.2997856-.1774432-.4492114-.2699004-.3791681-.2334779-.7359223-.453881-1.1244294-.5846286l-.6061086-.2035927c-2.0490018-.6892267-4.168047-1.4018012-6.2908279-1.9780246-1.7977796-.4875018-3.7533903-.9142994-6.3412591-1.3840568-.3614238-.0653738-.7219136-.1344833-1.0824034-.2026588-2.3814743-.453881-4.8423311-.9236385-7.3302714-.4258636-.284843.0569686-.5706199.0448278-.8507934.0326869l-.1811788-.0065374c-3.788879-.1073998-7.5049128.7097727-11.0322965,2.4300377-.5482061.2680326-1.0917425.5192548-1.6175347.4949731-3.0482871-.2073284-5.8574929.0289513-8.590118.7275171-.3193977.0812503-.6387955.1681041-.9572593.2549578-.7424596.2026588-1.5110688.411855-2.2871493.5547434-3.640387.6733502-6.8885312,2.3189023-10.0302095,3.9102874l-.7882213.3987802c-1.6081956.8106352-3.1538191,1.7716301-4.6480775,2.7008721-1.6978511,1.0562539-3.4536047,2.1479964-5.3326347,3.0417498l-1.2719875.6089103c-1.8454091.8872159-3.7543242,1.8052509-5.7444896,2.5561158-1.7240006.6490685-3.4629438.7844857-5.318626.4062515-.7368562-.1494258-1.4830515-.5416687-1.9014438-1.0002192-3.1351409-3.429323-4.1381619-6.6774672-3.155687-10.2216614.0849859-.306323.1130033-.6313242.1419545-.9759375.0373565-.4277315.0756468-.8694716.2288083-1.2944013l.1102016-.3044551c.4847001-1.3457665.9871445-2.7372946,1.7632249-3.9859343.664945-1.0721304,1.698785-2.0125793,3.3518084-3.0473532,1.8967743-1.1870015,3.7702007-2.4253682,5.1906801-3.3714205,3.3471388-2.2283128,6.6896081-4.4622291,10.0152669-6.7157576,2.7176825-1.8416735,5.213094-3.5638063,7.629123-5.2635252,1.2953352-.9124315,2.3329109-1.7071902,3.2640207-2.501015,2.4029543-2.0499357,4.4584935-4.6032498,6.2842905-7.8065662,1.4541002-2.5495784,2.2507267-5.3793302,2.3674657-8.4098731.1279459-3.3256588-.242817-5.9770336-1.1683233-8.3435653-2.2423215-5.7388862-5.972364-8.7199317-11.7373997-9.3820749-.8283795-.095259-1.6997189-.0747129-2.5411732-.052299-.5257922.0140087-1.0515843.0261495-1.5801783.0130748-2.975442-.1092676-5.5913281.791957-8.0129607,2.6513747-4.3548293,3.345271-7.06971,6.3095061-8.8021159,9.6108832-.7377901,1.403669-1.298137,2.923143-1.8398057,4.3912519-.2502883.6808215-.5015105,1.3607091-.7695431,2.0331253-.0551008.1382189-.0849859.2857769-.1167389.432401-.0803164.3754324-.179311.8423882-.633192,1.1533807l-.4155906.2839091-.0887216-.4949731c-.1811788-1.003021-.3539525-2.0023063-.5267261-2.996922-.3791681-2.1862868-.7723448-4.4472866-1.2280936-6.6457142-.7275171-3.5021681-2.1498643-6.363673-4.3510937-8.7470151-2.0480679-2.2180398-4.7199887-3.6048984-7.281708-4.8348598-.4267976-.2045266-.949788-.3081908-1.4550341-.4081193l-.1419545-.0280173c-3.999009-.7984943-8.3407636-1.0571878-13.2708824-.7872874-2.258198.1242102-4.0970697.7041693-5.6212133,1.772564-.1400867.0980607-.2773717.2026588-.4146567.306323-.3642255.2764378-.7424596.5631486-1.1841998.7536666-1.9079812.8274456-3.3013771,2.1974938-4.3847145,4.3118694l-.1783771.3558203c-.2493544.4996427-.50618,1.0170296-.8638681,1.4802497-.4734931.611712-.6845571,1.2280936-.6630772,1.9397342.0186782.5827608-.0205461,1.181398-.1167389,1.7800353-.3548864,2.2451232.1130033,4.4398153.559413,6.1003099.7984943,2.9745081,2.448716,5.866832,5.0449899,8.843208.5902321.675218,1.3868586,1.5446896,2.3161005,2.2694049,1.1113547.8685377,2.279678,1.7155954,3.408777,2.5355697.748997.5426026,1.4970601,1.0852052,2.2357841,1.6380808.4202602.3147282.8255778.6481346,1.2299614.981541.5603469.4632201,1.1403059.9413828,1.752018,1.3523039,1.3382952.8993568,2.2516606,2.0462001,2.8979274,2.943689,1.6660981,2.3161005,2.6943347,4.8778198,3.6889504,7.355487,1.0880069,2.7111451,2.0760853,5.6679089,1.9425359,8.9141853-.0298852.7331205-.02148,1.4447611.0270834,2.1153095.2512222,3.524582-.4800305,7.1808455-2.3020918,11.5048558-.3119264.7415257-.7872874,1.4251489-1.2477058,2.0854244-.1671702.2409492-.3352742.4818983-.4940392.7247153l-.928308,1.4260829c-.9656645,1.487721-1.9640159,3.0258733-3.0090629,4.5079908-1.5185401,2.1545338-3.6226427,3.851451-5.6473628,5.4045458-.949788.728451-2.1190452,1.5428218-3.5834184,2.0490018-3.0772384,1.0627913-7.2592941.4968409-8.9618147-2.648573-.8890837-1.6474199-1.6343451-2.8633727-2.416029-3.9429743-.2913804-.400648-.5780912-.8050317-.864802-1.2103493-1.3915281-1.9612141-2.8297518-3.988736-4.7311957-5.6314863-.7004336-.6051747-1.529747-1.1132225-2.331977-1.6053939-.5967694-.3642255-1.2318293-.7051032-1.846343-1.0347739-.2792395-.1503598-.5584791-.2997856-.8349169-.4529471l-.7517988-.4090532c-.5659504-.3081908-1.1328346-.6163816-1.6922476-.9348454-1.5708391-.8956211-2.5860009-1.8724926-3.2892363-3.1696956-1.129099-2.0798209-2.416963-4.2138087-4.1876592-5.7276792-2.1283843-1.8201935-4.7255922-3.218259-7.6543386-4.7293278-1.2729214-.6565398-2.6821938-1.1655216-4.0447707-1.6576929-.9124315-.3306047-1.8566161-.6714824-2.7615763-1.0562539-3.2154573-1.3700482-6.679335-2.2778101-10.0283417-3.154753l-1.6978511-.4473436c-4.6985088-1.2523753-9.1635396-1.6754372-13.6500505-1.2944013-.9563254.0812503-1.909849.179311-2.8643066.2764378-.8993568.0915233-1.7987135.1830467-2.6999381.2614952-.4137228.0364225-.8311812.0466956-1.2495736.0560347-.6640111.0158765-1.2906657.0308191-1.899576.1466241-2.2955545.4342688-4.7480061.9245724-7.1341499,1.5699052-4.7181209,1.2719875-7.6674134,3.3574118-9.2812125,6.56353-.1400867.2792395-.2988517.5500739-.4585505.8218421-.115805.1979892-.232544.3959785-.3408777.5977034-.2839091.5267261-.5622147,1.0562539-.8405203,1.5857817-.5341974,1.0160957-1.0861391,2.0658122-1.6745033,3.0819079-1.2785248,2.204965-2.6252252,4.4230049-3.9270979,6.5681996l-.9479202,1.5717731c-1.350436,2.2553963-2.7466337,4.5873733-4.8666128,6.4738745-2.8717779,2.5561158-6.3655408,4.5939107-10.3860298,6.05735-4.1465671,1.5082671-8.3164819,2.3441179-12.3911378,2.4823368-2.6000096.0933911-4.8768858-.2605613-6.9837902-1.0637252-4.7872303-1.8285987-9.7089439-3.0847097-14.6287897-3.735646Zm233.2668108-10.2029831c.8367847-.9432506,1.6520894-1.6978511,2.4926098-2.3076953.654672-.4762949,1.371916-.8900177,2.0648783-1.2906657.4688236-.2699004.9376471-.5407348,1.3887264-.8302473.886282-.5715538,1.7968457-.5267261,2.5673227.1176728,1.7501501,1.4625054,3.6450566,3.1015201,5.9648927,5.1561254,1.1963406,1.0599896,1.2775909,2.4010865,1.1982085,3.5731454-.1260781,1.8603517-.8825464,3.5423263-1.6128652,5.1682662-.1830467.4071854-.3660933.8134369-.5388669,1.2224902-.3408777.8050317-1.0571878,1.498928-1.6894459,2.1115739l-.0765807.073779c-1.9789585,1.9173203-4.0718541,3.1220661-6.4000955,3.6814791-.4099871.0989946-.8181065.2045266-1.2262258.3100586-.411855.1064659-.8237099.2129318-1.2383666.3119264-.5603469.1344833-1.0898747.2017249-1.5876495.2017249-1.4018012,0-2.553314-.5323296-3.4349265-1.5923191-1.3448326-1.6166008-2.6999381-3.6105019-2.553314-6.1404681.1036642-2.2544624.886282-4.4659648,2.3917473-6.7615193.7088388-1.0805356,1.4793158-2.0919618,2.289951-3.0053272Zm-110.8300793-3.3088484c.5874303.3091247,1.1627198.7163101,1.3877925,1.5876495.6098442,2.3599944.4492114,4.822719.3193977,6.8016774-.0551008.8367847-.2521561,1.6660981-.443608,2.4683281l-.0289513.1223424c-.3539525,1.4923906-1.3952638,2.6560443-3.0940488,3.4582743-4.3538954,2.0583409-8.6069284,3.1164627-13.0028498,3.2360033h-.0112069l-.0112069-.0009339c-.6369276-.0280173-1.2747892-.0476295-1.9117168-.0672416-1.4130081-.0438938-2.8736457-.0887216-4.3025303-.2297422-3.0688332-.3025873-5.5380952-1.6371469-7.3386766-3.9653882-1.2551771-1.6222043-1.8715586-3.0464193-2.0004384-4.6181924-.2138657-2.6261591.7816839-4.6704914,2.9614334-6.0760282,2.5934722-1.6726355,5.3578503-3.3051128,8.4500312-4.991757,2.0443323-1.1150903,4.1671131-1.720265,6.31044-1.7996475,3.3424693-1.2897318,5.9275363.0849859,8.2912663,1.5997904,1.2654501.8115691,2.6420356,1.5362844,3.9737934,2.236718l.4510793.2381474Z" stroke-width="0"/>
  </g>
</svg>