<?xml version="1.0" encoding="UTF-8"?>
<svg id="Layer_2" data-name="Layer 2" xmlns="http://www.w3.org/2000/svg" viewBox="0 0 230.8656873 129.6497423">
  <g id="Layer_1-2" data-name="Layer 1">
    <path d="m204.6862802,77.6173847c-.2241388-1.1776624-.4473436-2.3543909-.6658789-3.5320533l-.928308-5.0487256.3660933-.0233478c9.9732409-.6387955,19.5757189-1.7464145,27.4075008-8.1474439-.9852766-1.2411684-2.2432554-2.2030972-3.9345691-3.0127985-2.8904561-1.3831229-5.9312719-1.5680374-9.5996763-1.424215-.6994997.0280173-1.3980655.0597703-2.0966313.0924572-1.0273026.0476295-2.0536714.0943251-3.0819079.127012-.3707629.0112069-.7368562-.0205461-1.1589842-.0560347-.2082623-.0186782-.4314671-.0382904-.6789537-.0541669l-.5547434-.0364225.3035212-.4660218c.1017964-.1568971.1858484-.3016534.2624291-.4333349.1615667-.2783056.3007195-.5183209.5136513-.717244,2.2124363-2.0798209,3.2995093-4.8040408,4.3501598-7.4386051.157831-.3941107.3147282-.7882213.475361-1.1804641.1531615-.3726307.27457-.7574022.3959785-1.1412399.1466241-.4660218.2988517-.9479202.50618-1.4083385.7630057-1.6978511.7107067-3.1248679-.1653023-4.4911804-.2680326-.4174584-.580893-.9040263-.4529471-1.3336256.2512222-.8330491-.1811788-1.2187545-.907762-1.7791014-.2857769-.2204031-.5818269-.4492114-.8115691-.7293849-.5267261-.6453328-1.3961977-.9292419-2.3161005-.7639396-1.0385096.1877162-2.0555392.7200458-2.8260162,1.1636537-.9451184.5454043-1.846343,1.2056797-2.7167486,1.8444752l-.5248583.3829037c-.3773002.27457-.8012961.6079764-1.0833373.9946157l-.3670272.5043122c-1.5381522,2.11064-3.1276696,4.2922573-4.6097872,6.4841475-1.5222757,2.2516606-3.4386621,4.2829181-5.2924765,6.2478679l-.2783056.2941821-1.4531663-2.1293182c-.7714109-1.1300329-1.497994-2.1956259-2.2283128-3.2593511-.6266546-.9133654-1.2477058-1.8304665-1.8687569-2.7475676-1.5792443-2.3329109-3.2135895-4.7452043-4.9207797-7.0500979-.7471292-1.0104922-1.7604232-1.9014438-2.7410303-2.7634441-.2717682-.2390813-.5435365-.4772288-.8097013-.7191119-1.593253-1.4438272-3.7179017-1.8183257-5.772507-2.1806834l-.7863535-.1410206c-.5771573-.1083337-1.0459809.1989231-1.1533807.7377901-.1540954.7639396-.2773717,1.5007958-.1092676,2.1199791.9862105,3.6385192,2.0592749,7.3218662,3.0968505,10.8847385l.4772288,1.6380808c.2446848.8405203.5136513,1.6735694.7835517,2.5075524l.4473436,1.3961977-.844256.5052461-.1802449-.1774432c-.4408062-.4342688-.8918855-.8620003-1.3420308-1.2897318-1.0011531-.949788-2.0359271-1.9322629-2.9530282-2.9829133-1.9462716-2.2283128-4.3389528-3.9625865-6.6354412-5.5044744-.5313956-.3558203-1.2234241-.5201887-1.9556107-.6948302-.4305332-.1017964-.876009-.2073284-1.2953352-.3576881-3.207986-1.1449755-6.6466481-1.5979226-10.499967-1.3737838-1.8939725.1092676-3.8243676.1139372-5.6912567.1176728-1.8061848.0046696-3.6749417.0093391-5.4988709.1083337-5.8901798.3203316-11.4712349,1.9285272-16.1548011,3.4582743-.6677467.2194692-1.3747177.3436794-2.0583409.4632201-.3259351.0569686-.6509363.1139372-.9731358.1811788l-3.250012.6808215c-2.7363607.5743556-5.4736553,1.1477772-8.2118838,1.7155954l-.25309.053233c-.6528041.1363511-1.3270882.2773717-2.0097775.3334064-4.3015964.3539525-8.7451473.7191119-13.264345.4258636-3.8365084-.2521561-8.273522-.6397294-12.3649882-2.0620766-3.8785345-1.3467004-8.8291993-3.3415353-12.7189407-6.8324965-2.5561158-2.2936866-4.9207797-5.0169726-7.6674134-8.8273315-3.2864346-4.5640255-7.3171966-9.813542-12.3014823-14.1543627-5.5203509-4.8077764-12.336037-10.0451521-21.0372904-12.4397012-1.2682518-.3492829-2.5019489-.8582647-3.69362-1.3513699-.6154477-.2540239-1.2299614-.5080479-1.8519465-.7415257-.1251441-.0466956-.284843-.0597703-.453881-.0728451-.0364225-.0037356-.0719112-.0065374-.1073998-.0093391-.0663077.0681755-.1307476.1363511-.1951875.2035927-.2185353.2297422-.4445419.4678897-.7088388.6677467-1.2617144.9563254-1.4998619,1.6857103-1.0198314,3.1230001,1.0814695,3.2369373,2.7933293,6.3963599,5.3877354,9.9424218,1.0170296,1.3887264,2.057407,2.7625102,3.0987184,4.1353601.6462668.854529,1.2934674,1.7081241,1.9341307,2.564521.1195407.157831.1923858.3250012.2932482.5556773.0513651.1186068.1120694.2568257.1923858.4239958l.2166675.4501453-1.6380808.0560347c-.78075.0289513-1.5101349.0560347-2.2404537.0644399-.9591271.0112069-1.921056.0046696-2.8820509,0-1.9742889-.0140087-4.0130177-.0233478-5.9975796.1186068-3.3499405.2400153-5.9172633.9451184-8.0792684,2.2180398-1.7529519,1.03384-2.1330539,2.6737886-2.5355697,4.410864-.053233.2288083-.1064659.4566827-.1625006.6826893-.0448278.1839806.1512937.5257922.3250012.8274456.0747129.1298137.1484919.2586935.2119979.3857054,1.7538858.3025873,3.3751562.2689665,5.0944872-.1017964,2.6681852-.5762234,5.3531807-.2157336,8.2090821,1.1066851,3.9943395,1.8500787,7.6365943,4.2754468,11.1593085,6.6204986,1.7800353,1.1851337,3.619841,2.4104256,5.4783249,3.5423263,1.2327632.7517988,2.3758709,1.656759,3.4816221,2.5318341.4277315.3390099.8563968.6780197,1.2897318,1.0086244,1.0431791.7938248,2.1377234,1.5661696,3.1967791,2.3123649,2.3394483,1.6474199,4.7573452,3.3518084,6.8035453,5.4353649,1.7174632,1.7482823,3.5507315,3.4582743,5.3232955,5.1112976l1.3831229,1.2925335c2.0798209,1.9528089,4.759213,3.5404585,7.9615955,4.7199887,6.6615907,2.4524516,12.1557921,4.2801164,17.2895036,5.7519609,3.5105733,1.0058227,7.4208608,1.276657,12.6769147.8694716,3.5703437-.27457,7.2518228-.949788,11.2536336-2.0648783,4.6181924-1.2841283,9.0383955-2.8727118,12.7525615-4.2567686,2.416029-.9002907,4.8357937-1.9005099,7.1771099-2.8680422,2.0284558-.8386525,4.1269549-1.7062563,6.2161149-2.5066185,1.3952638-.5341974,2.8689761-.9413828,4.2941251-1.3345595.7340544-.2035927,1.4681089-.4062515,2.194692-.6266546l.1839806-.0551008c.5089818-.1522276,1.0357079-.3091247,1.4634393-.5575452,2.4533855-1.4270168,5.2625913-1.9285272,7.9298425-2.3207701,5.4885979-.80223,9.9769765-.7508648,14.1244775.1625006.8218421.1802449,1.6231382.4594845,2.4711298.7546005.4109211.1428885.8377186.2913804,1.2915996.4380045l.5883642.189584-.4893696.3782342c-.1494258.1148711-.2568257.2091962-.3418116.2829752-.1615667.1400867-.2783056.2418831-.4501453.2820413-2.9371517.686425-5.5829229,2.0732835-8.1409065,3.4143804-.7256492.380102-1.4503646.760204-2.1825512,1.1253634-1.0786678.5388669-1.6791729,1.2140849-1.6913137,1.9033116-.0121408.706971.5892982,1.4279507,1.6931815,2.0275219.5285939.2857769,1.0842713.5360652,1.7277363.8255778.326869.1466241.6733502.3025873,1.0478487.4772288l1.0413113.485634-1.1412399.1326154c-.6976319.0812503-1.3653786.1419545-2.0088436.1998571-1.3168152.1176728-2.5607853.2297422-3.7281747.5033783-3.8738649.9105637-7.6543386,2.2628676-11.2377571,4.020489-1.0385096.5089818-2.0938296.9890123-3.1491496,1.4681089-1.2038119.5472721-2.447782,1.1122886-3.6413209,1.7127937-1.6801068.8470577-2.9801116,1.6231382-4.0914663,2.4440464-1.4793158,1.0917425-2.9558299,2.237652-4.3828467,3.3471388-2.0312575,1.5783104-4.1325584,3.2098538-6.2852244,4.717187-3.5890219,2.5094202-7.6123126,5.1169011-12.2986805,7.9709346-2.9875829,1.8192596-6.1591463,3.3957022-8.5891841,4.5658933-1.667032.80223-3.4834899,1.2944013-4.8806215,1.6334112-3.6684044.8890837-7.7934915,1.8865012-12.0922861,1.8267309-3.1080575-.053233-6.268414-.1774432-9.3232385-.2988517l-1.4699767-.0579025c-4.2184782-.1643684-8.2184212-1.3588412-11.2321536-2.3805404-.7966265-.2699004-1.5764426-.6023729-2.3179683-.9880784-1.0889408-.5650165-2.1666747-1.150579-3.2453425-1.7352076-2.0816887-1.129099-4.2334208-2.2964884-6.4215755-3.2948398-2.4851385-1.1347025-5.2177635-2.1125078-8.1212944-2.9044648-4.7526756-1.2972031-9.8266168-2.5691905-15.0453143-2.4767333-3.2406729.0476295-6.2702818.2969839-9.0047747.7415257-4.643408.7555344-9.3082959,2.0984991-13.8667179,3.9924717-.8666699.358622-1.7753658.5631486-2.7382285.7798161-.3726307.084052-.748997.1681041-1.1253634.263363-.368895,1.1795302-.1671702,1.7342737.8012961,2.3132988,2.9278126,1.7501501,5.7939869,3.4554725,8.6592274,5.0720734,2.743832,1.5474914,5.5922621,2.7428981,8.4649738,3.5525993.4398723.1251441.8414543.3072569,1.3495021.537933.2568257.1167389.5388669.2456187.864802.3829037l.6873589.2904465-1.5063992.6826893c-.4697575.2147996-.8573308.3922428-1.2523753.5556773-5.3998763,2.2283128-10.4075097,5.0113691-14.8846815,8.2716541-1.6614286,1.2103493-2.3796065,2.5916044-2.3095631,4.4566257,2.1115739.9908801,4.0335638,1.5362844,6.4327824,1.0431791,2.7232859-.5584791,5.7099349-.8816125,9.6827944-1.045047.8386525-.0345547,1.6623625-.052299,2.469262-.052299,3.851451,0,7.3461479.3941107,10.6251111,1.1954067,2.5449088.6210511,4.9506649,1.3952638,7.1500264,2.3020918,4.3529615,1.794044,9.1513988,3.1370087,15.1013489,4.2259495.7723448.1410206,1.5446896.2857769,2.3161005.4314671,3.7767381.7088388,7.682356,1.4419594,11.6122556,1.6969172,7.6916951.4987087,15.8634207.8087674,23.7531051-1.2944013,2.6186878-.6985658,6.0517465-1.6483538,9.3886123-2.8045362l.2586935-.0896555c3.9504456-1.3691143,8.0353745-2.7839902,11.4721689-5.1953497l.3997141-.2755039c.4566827-.3109925.928308-.6322581,1.3046744-1.0048888,3.092181-3.0660315,5.434431-5.7967887,7.3694956-8.5938536.748997-1.0824034,1.5035975-2.1620051,2.258198-3.2416068,2.1517321-3.0772384,4.3763093-6.2600088,6.4318485-9.4605235,3.2229286-5.0207082,7.3470818-8.8553488,12.6087392-11.7224571,1.0226331-.5566113,2.0377949-1.1272312,3.0520228-1.6969172,2.2964884-1.2897318,4.6714253-2.6233574,7.102397-3.777672,5.9116598-2.8045362,10.9286324-4.6097872,15.7905756-5.6819176,1.9107829-.4230619,3.8570545-.8535951,5.972364.127012l.3763663.1746415-.2596274.3240673c-1.7071902,2.1377234-1.9985706,4.5771003-2.3076953,7.1593656-.073779.6191833-.147558,1.2383666-.2418831,1.8519465-.1204746.7826178.1120694,1.1048173,1.0805356,1.4961262,1.7716301.717244,3.1622243.6630772,4.7928338-.1839806,3.1230001-1.6222043,5.9602232-3.69362,8.7040552-5.6968601.8554629-.6238529,1.7109259-1.2486397,2.5757279-1.8622195l4.115748-2.9025969.1027303.4818983c.1783771.8358508.3539525,1.6436842.5257922,2.4337734.3735646,1.7155954.7265831,3.3368658,1.045047,4.9684092.495907,2.5411732,1.5764426,5.0141708,3.3041789,7.5600136.3829037.5640825,1.1870015.9955497,1.7585554,1.2710536.54914.264297,1.1898032.4211941,1.8099205.5734217l.5108496.1279459c1.9229238.4968409,3.050155.0205461,3.7645973-1.5997904.8666699-1.9612141,1.1543146-3.5694098.9030924-5.0608664-.453881-2.6943347-.9722019-5.4278936-1.4737123-8.0708632Zm-37.60955-24.4152483l-2.1956259-.5369991c-.8162387-.1989231-1.6324773-.3978463-2.4468481-.6005051-7.7710776-1.9294612-15.4356893-1.3149474-23.4318395,1.8762282-.4706914.1877162-.9507219.3576881-1.4316863.5285939l-.3025873.1064659c-1.2122171.4342688-2.4337734.8507934-3.6543957,1.2682518-2.7186164.9273741-5.52969,1.8874351-8.188536,3.0230715-3.9140231,1.6698338-7.9625294,3.1855721-12.0315818,4.5070569l-.8750751.2839091c-5.9630249,1.9397342-12.1305765,3.9448422-18.6586178,4.5472151-1.6922476.1568971-3.4321248.2932482-5.1841427.2932482-2.08916,0-4.1951305-.1942536-6.2553392-.7788822-4.3436224-1.2318293-7.8392531-2.4122934-11.0005435-3.714166-2.7923954-1.1487111-5.2784678-2.5393054-7.3881739-4.1344262-1.815524-1.3737838-3.4881594-2.954896-5.1047603-4.484643-.8928194-.844256-1.815524-1.7174632-2.7494355-2.543041-1.5185401-1.3420308-3.050155-2.585067-4.5509507-3.6945539l-.9787393-.7228475c-4.3025303-3.1790347-8.7516847-6.4664032-13.2092442-9.5931389-3.0445515-2.1349217-6.3459286-4.2819842-10.0918477-6.5653978-3.1370087-1.9126508-6.3888886-3.1528852-9.6650501-3.6870826-.537933-.0868538-1.0478487-.2446848-1.6941155-.443608-.3315386-.1017964-.6985658-.2157336-1.1216277-.3343403l-.8591986-.242817.8143708-.3679611c.3782342-.1709058.7079049-.3278029,1.0076905-.4706914.5883642-.2811074,1.0534522-.5033783,1.5586983-.6742841,3.260285-1.1048173,6.7391054-1.6548912,10.6353842-1.6847763,2.4552533-.0186782,5.0692716-.0476295,7.6646117-.1765093.6938962-.0345547,1.2159528-.2969839,1.4326202-.7209797.2082623-.4090532.1251441-.9553915-.2297422-1.497994-.0961929-.1484919-.2166675-.2820413-.3362081-.4174584-.0989946-.1102016-.1970553-.221337-.2857769-.3371421-.8199743-1.0739982-1.6418164-2.1461286-2.4645924-3.2173251-2.2189737-2.8932578-4.5145282-5.8845764-6.7129559-8.8656219-.8293134-1.1253634-1.4578359-2.38521-2.0667461-3.6039645l-.284843-.5687521c-.2250727-.4473436-.2119979-1.2523753.1410206-1.5820461.3744985-.3446133,1.2364988-.2979178,1.6455521-.1176728.6630772.2941821,1.3336256.580893,2.0041741.8666699,2.0303236.8666699,4.1306906,1.7632249,6.0405396,2.8932578,4.6788966,2.7671798,8.5966554,5.772507,11.9783489,9.1868874,2.6383,2.6644495,5.1225046,5.5222187,7.3816365,8.494859.8610664,1.1337686,1.6847763,2.3151666,2.4823368,3.4573404.9946157,1.4270168,2.0237862,2.901663,3.1276696,4.2857199,2.6784582,3.3611475,5.4493736,6.8381,9.6360988,8.8441419,7.3181305,3.5068377,14.2216043,5.7678374,21.1063999,6.9128129,6.4141042,1.0683948,12.9916429,1.3569734,19.5495694.8563968,1.8127222-.1382189,3.6469244-.5089818,5.223367-.8451899,2.8820509-.6135799,5.6828515-1.2841283,8.7825037-2.0340592,1.0487826-.2540239,2.0910278-.5285939,3.134207-.8031639,1.635279-.4295993,3.3256588-.8750751,5.0151048-1.2318293.812503-.1718397,1.6259399-.3530185,2.4393768-.5332635,2.9726403-.6612093,6.0480109-1.3448326,9.1308527-1.5848478,3.4592082-.2689665,7.0024684-.2250727,10.4336593-.1849145,1.4391576.0177443,2.8857865.0392243,4.3118694.0298852.095259,0,.1942536-.0037356.295116-.0065374.4417401-.0140087.9404489-.031753,1.3018726.1979892l.1905179.1214085c1.4765141.939515,3.0034594,1.9117168,4.3538954,3.0417498,1.7931101,1.5007958,3.5404585,3.1005862,5.2308383,4.6480775.5201887.4762949,1.0413113.9535236,1.5633678,1.4279507,1.0104922.9171011,2.0088436,1.8454091,3.007195,2.7746511l1.9444037,1.8033831-.6780197.0961929c-.7116406.0999285-1.2915996.0028017-1.7697623-.3016534-1.9481394-1.2402345-4.1717827-1.8510126-6.6662603-2.4683281Zm-3.3891648,17.9423077c-3.9803308.7340544-8.0008198,2.078887-12.6535669,4.231553-2.3543909,1.0898747-4.6256637,2.4356412-6.8231574,3.7375138-.8806785.5220565-1.762291,1.0441131-2.6504408,1.5521609-.5566113.3175299-1.097346.6574737-1.6390147.9983514-.5351313.3362081-1.0711965.6733502-1.6212704.9880784-5.1617289,2.9633012-9.412894,6.8623817-12.6358226,11.5898417-.9824749,1.4428933-1.9444037,2.8988613-2.9053987,4.3538954-2.6448374,4.0046125-5.3802641,8.14651-8.5462241,11.9409924-4.2623721,5.1103637-8.6695004,8.4033357-13.8713875,10.3636159l-.9675323.3651594c-2.6000096.9824749-5.2018871,1.9640159-7.8131036,2.9240769-6.1600802,2.268471-13.085034,3.377024-21.1213425,3.377024-.5622147,0-1.129099-.0056035-1.7015868-.0158765-5.814533-.1092676-11.7065806-.7546005-18.0123511-1.973355-3.2761615-.6322581-7.122943-1.4905228-10.8212325-3.0548245-7.8495262-3.3209893-15.9306624-5.2560539-24.0183359-5.7528948-1.7062563-.105532-3.4470673-.0849859-5.2915426-.0663077-.9012246.010273-1.8370039.0140087-2.8166771.0177443l-1.0104922-.0037356.8218421-.5874303c.2941821-.2091962.5416687-.3978463.7639396-.5668843.432401-.3278029.7732787-.5874303,1.1645876-.7891552,4.305332-2.2152381,8.621871-4.4099301,12.937476-6.6046221l1.2990709-.6602754c.179311-.0905894.3670272-.169038.5547434-.2474865.2540239-.105532.4949731-.2054605.7051032-.3362081.7079049-.4398723,1.0824034-.8881498,1.05532-1.2645162-.0270834-.3773002-.4650879-.7695431-1.2336971-1.1048173-.8367847-.3660933-1.6875781-.706971-2.5383715-1.0469148-1.4998619-.6005051-3.050155-1.2206223-4.4986517-1.9761567-2.4683281-1.287864-4.9105067-2.7046077-7.2714349-4.073722-1.0226331-.5930338-2.0452662-1.1870015-3.0725688-1.7716301l-.2045266-.115805.1858484-.9413828.179311-.0607042c.3343403-.1120694.6668128-.2297422.9992853-.3474151.7349883-.2596274,1.4951923-.5285939,2.2694049-.7359223l.2811074-.0747129c2.8334875-.7574022,5.7641018-1.5400201,8.6797735-2.2105685,4.0783915-.939515,7.7523994-1.3971316,11.2200128-1.3971316.1027303,0,.2054605,0,.3081908.0009339,1.9145186.0149426,3.7804737.3352742,5.5838569.6453328.6182494.1064659,1.2374327.2129318,1.8584839.3072569,3.3097824.5033783,6.3982277,1.5708391,9.4437131,3.2630868.6556059.3642255,1.30841.7359223,1.9612141,1.1085529,2.1676086,1.234631,4.4089962,2.511288,6.7344358,3.4834899,5.4531092,2.2815458,10.4308575,3.7515225,15.2190218,4.494916,8.5994571,1.3345595,15.1994096,1.5493592,21.3996481.6976319,3.9084196-.537933,7.1350839-1.1048173,10.1852388-2.1246487,4.295059-1.4363559,8.684443-3.6684044,13.0467436-6.6354412,2.7503694-1.8706247,5.4213563-3.9373709,8.0036215-5.9359415,1.8640874-1.4428933,3.7916807-2.9343499,5.7379523-4.3436224.907762-.6574737,1.794044-1.340163,2.6793921-2.0228523,2.5495784-1.9640159,5.1850766-3.9962073,8.3314245-5.3718589,1.3476343-.5902321,2.701806-1.2224902,4.0120838-1.8351361,3.6347836-1.698785,7.3937773-3.4545386,11.4562924-4.4967839,2.8306858-.7237814,5.0739412-.9040263,6.6765333-.5323296l1.5241436.3539525-1.5390862.2839091Zm11.2200128-2.5075524l3.3377997.4604184-.812503.474427c-.4865679.2839091-.7938248.4445419-1.0543861.4445419-.3119264,0-.5584791-.2278744-.9675323-.7452614l-.5033783-.6341259Zm24.3919005-.2652309c.2614952,1.4923906.5463382,2.9829133.8302473,4.4725022.2727022,1.4288846.5444704,2.8568353.7966265,4.2866538.4734931,2.6793921.9694001,5.5362274,1.3691143,8.4164104.1653023,1.1879354.1886501,2.4935437-.7499309,3.9962073l-.2941821.4697575-.2670987-.4847001c-.1568971-.284843-.3035212-.5332635-.4370706-.760204-.2577596-.4398723-.4809644-.8199743-.6415972-1.2215562-1.2234241-3.0660315-2.0639444-6.3748799-2.4991472-9.835022-.0887216-.7107067-.1130033-1.4316863-.137285-2.1293182-.0205461-.6257207-.0429599-1.2719875-.1120694-1.8986421-.0410921-.3744985-.2409492-.8834803-.5435365-1.1309668-1.3943299-1.1412399-4.9403918-1.3252204-6.4299807-.3352742-1.0730643.7135084-2.1246487,1.497994-3.1407444,2.2563302-.4585505.3427455-.9171011.6845571-1.3793873,1.0226331l-1.8836995,1.3747177c-1.9537429,1.4270168-3.9084196,2.8549675-5.8724355,4.2717112-.3203316.2316101-.6686806.4202602-1.0375757.6210511-.1727736.0933911-.3511507.1905179-.5351313.2960499l-.3670272.211064-.1102016-.4081193c-.0354886-.1326154-.0709773-.2390813-.1017964-.3296708-.0644399-.1886501-.1195407-.3520846-.095259-.5341974.2867108-2.057407,1.3877925-3.7786059,2.4524516-5.4437701.157831-.2465526.3147282-.4921714.4688236-.738724.8087674-1.2925335,1.8426074-2.4739316,2.8418927-3.6170392.4604184-.5267261.9199028-1.0525183,1.3597751-1.5904513.1718397-.211064.3642255-.464154.4875018-.7331205.073779-.1625006.1419545-.3969124.0466956-.5920999-.095259-.1961214-.3250012-.2876447-.5005766-.3296708-.3025873-.0728451-.6061086-.1484919-.9096298-.2250727-1.213151-.306323-2.4673942-.622919-3.6889504-.6733502-1.7193311-.0700434-3.4694812-.0663077-5.1720019-.0616382-1.9042455.0056035-3.8804023.0093391-5.8210704-.0915233-1.7660266-.0915233-3.5311194-.5239244-5.2373757-.9413828l-.696698-.1699719c-1.171125-.2820413-1.9005099-.9245724-2.1676086-1.909849l-.0719112-.2670987,1.3149474-.6033068c.7891552-.3642255,1.551227-.7163101,2.3263735-1.0459809.5874303-.2502883,1.1720589-.5080479,1.7566875-.7667413,1.5671035-.6920284,3.1874399-1.4074046,4.854472-1.9490733,3.3929005-1.097346,6.1582124-1.0497165,8.7115265.1512937,1.0198314.4790966,2.1974938.7004336,3.5199124.9199028.7732787.1288798,1.3345595.0382904,1.6810407-.2652309.3100586-.2717682.4566827-.7340544.4352028-1.371916-.0261495-.7686092-.2306761-1.6259399-.643465-2.6980703-.4492114-1.1673894-.9301759-2.3263735-1.4111403-3.4844238-.7321866-1.7650927-1.4895888-3.5899558-2.1190452-5.4232241-.8190404-2.3870778-1.4942584-4.8507363-2.1470625-7.2340785-.2101301-.7686092-.4211941-1.5372183-.6369276-2.3048936-.105532-.380102-.1363511-.7611379-.1746415-1.2439701-.0196121-.2456187-.0410921-.5201887-.0765807-.8358508l-.0980607-.8676038.6415972.5920999c.264297.242817.50618.4473436.7256492.6322581.4370706.369829.7826178.6621433,1.0459809,1.0347739,1.8911708,2.6756564,3.9439083,5.6361559,6.4589319,9.3157672,1.1879354,1.7389432,2.3553248,3.4890934,3.5227142,5.2392435l1.2290275,1.8407396c.0747129.1120694.1531615.2222709.2316101.3324725.2381474.3343403.4837662.6789537.6313242,1.0702626.5612808,1.4942584,1.2224902,1.6259399,2.0518036,1.3672464,2.7690476-.876009,5.1804071-1.772564,6.6494499-3.8813362,1.0889408-1.5633678,2.5094202-2.7195503,3.9915377-3.8635919.7546005-.5827608,1.4662411-1.3074761,2.1134417-2.1517321.7312527-.9544576,1.4288846-1.9593463,2.1041026-2.9315482.4258636-.6135799.8517273-1.2271597,1.2887979-1.8332683.7368562-1.0207653,1.6791729-1.5381522,3.0548245-1.6773051l.3446133-.0345547.0130748.3455473c.0149426.3810359.0597703.7527327.1017964,1.1104208.0943251.7891552.1830467,1.5334827-.0448278,2.2152381-.9665984,2.8895222-2.0882261,5.930338-4.2231478,8.5621006-2.0695479,2.5477106-4.5939107,4.5350742-7.7178446,6.0750943-.7966265.3931767-1.1160242.8358508-1.0842713,1.5353505,2.0910278.3847715,4.3557632.5472721,7.06971.4996427,2.4739316-.0392243,4.9459953-.1008624,7.4189929-.1634345,2.3413161-.0588364,4.6826323-.1176728,7.0248823-.157831,1.2944013-.0261495,2.2983562.4305332,3.0632297,1.4279507l.2708343.3530185-.4193263.1512937c-.1858484.0672416-.3539525.1335493-.5099157.1951875-.3296708.1298137-.6135799.242817-.9245724.3091247-.3455473.0728451-.6976319.1232763-1.0497165.1727736-.4800305.0663077-.9320437.1298137-1.3663125.25309h-.0009339c-3.5946254,1.0095583-7.36576,1.2495736-11.0136183,1.4821175l-.2670987.0168104c-2.7466337.1755754-5.1299759.4968409-7.2845097.9796732-1.9714872.4426741-2.5439749,1.3233526-2.1872207,3.365817Z" stroke-width="0"/>
  </g>
</svg>