<?xml version="1.0" encoding="UTF-8"?>
<svg id="Layer_2" data-name="Layer 2" xmlns="http://www.w3.org/2000/svg" viewBox="0 0 279.8802016 53.1033652">
  <g id="Layer_1-2" data-name="Layer 1">
    <path d="m268.6798009,10.2304845c.2661648-.0980607.5528756-.3100586.8563968-.5351313l.1849145-.1363511c2.1760138-1.5839139,4.5827037-3.0212037,7.3937773-2.7307572.3193977.0252156.7732787-.179311,1.1057512-.5015105.4604184-.4426741.8844142-1.0226331,1.2944013-1.5839139.1223424-.1671702.2437509-.3324725.3651594-.4940392-.1849145-.7461953-.5500739-.9068281-1.118826-1.1571163-.1821127-.0803164-.3642255-.1615667-.5388669-.2596274-2.8194788-1.5717731-5.8892459-2.9604995-9.2457238-2.4701959-.3044551.0466956-.5846286.0028017-.8302473-.0364225-.1064659-.0158765-.2119979-.0336208-.316596-.0392243-.6154477-.0308191-1.2318293-.0784486-1.8482109-.1260781-1.3457665-.1036642-2.7382285-.2082623-4.0821272-.1363511-4.2651738.232544-8.4883216,1.4335542-12.1118982,2.5421071-2.6112166.7975604-5.1962836,1.6688998-7.3807026,2.416029-1.2215562.4174584-2.4403107.8554629-3.6590653,1.2934674-1.2794588.4604184-2.5579836.9199028-3.8421119,1.3560395-1.5026636.5108496-3.0090629,1.0039549-4.5154621,1.4961262-1.8117883.5920999-3.6235766,1.1851337-5.4288275,1.8099205-3.8346406,1.3270882-7.6421978,2.2675371-11.3171395,2.7951971-2.0097775.2895126-4.6564827.6556059-7.3078575.9311098-1.0310383.1064659-2.0611427.2260066-3.092181.3455473-3.5003003.4062515-7.1173395.8246439-10.7250397.7181779-.6500024-.0158765-1.2944013.0326869-1.9798924.0877877-.3464812.0270834-.6920284.0551008-1.0385096.0728451-.8489256.0457617-1.6997189.0989946-2.5495784.1512937-1.9472055.1204746-3.9607187.2446848-5.9480823.2829752-4.4584935.0859199-8.9870304.0812503-13.3661414.0765807l-.622919-.0009339c-2.1862868-.0018678-4.4472866-.0028017-6.6755994-.1568971-3.1314053-.2176014-6.4738745-.5183209-10.8380429-.9750036l-2.311431-.2381474c-3.5105733-.358622-7.1397534-.7293849-10.700758-1.3000048-2.1246487-.3399438-4.2380904-.9778053-6.2833566-1.5941869-.5640825-.1709058-1.129099-.3408777-1.6931815-.5052461-1.8958403-.5510078-3.9112214-1.1552485-5.8808407-1.9434698-1.4681089-.5874303-2.944623-1.2355649-4.3735076-1.8612856-2.1760138-.9544576-4.4267405-1.9406681-6.6625246-2.7214181-3.2761615-1.1421738-6.7615193-2.2862154-10.193644-2.6392339-4.0055464-.4127889-8.1296996-.2839091-12.1184356-.158765l-1.4083385.0429599c-2.0480679.0607042-4.1381619.263363-6.1600802.4594845-1.3438986.1307476-2.6877973.2614952-4.0326299.3539525-3.080974.211064-6.162882.3969124-9.2447899.5818269-2.2255111.1344833-4.4510222.2680326-6.6755994.411855-1.7118598.1102016-3.4237196.2353457-5.1346454.3604898-3.1061896.2260066-6.3179113.4604184-9.4829374.6005051-5.2588557.232544-9.2503934.7928909-12.9412116,1.8183257-3.2518798.9040263-6.4393198,2.1405252-8.853481,3.1164627-2.0667461.8367847-4.0130177,1.8323344-5.78278,2.9614334-1.9275933,1.2290275-3.8467815,2.6298948-5.7033975,3.9840665-.6920284.5052461-1.3849908,1.0104922-2.0798209,1.509201l-1.5428218,1.1048173c-2.8045362,2.0079097-5.7052653,4.083995-8.5359511,6.1796924-.453881.3362081-.8825464.8171726-1.3373613,1.3252204-.1204746.1354172-.242817.2727022-.3670272.4090532.8386525,1.2252919,1.804317,1.3560395,2.8792492,1.3831229l.5341974.0130748c3.080974.0793825,6.2674801.1625006,9.3839427.02148.115805-.0046696.2316101-.0074713.3464812-.0074713,1.7389432,0,3.3480727.5687521,4.9086388,1.1197599.3334064.1176728.6677467.2353457,1.0039549.348349.2661648.0887216.4342688.2792395.5967694.4632201.0597703.0672416.1279459.1447563.2101301.2269405l.5285939.5201887-.5949016.443608c-.4305332.3203316-.8591986.6154477-1.2794588.9049602-.8778768.6042407-1.7071902,1.1757946-2.4347073,1.9014438-2.0611427,2.057407-4.1951305,4.3408206-6.9165486,7.4040504-1.7380093,1.9556107-2.5738601,4.8339259-3.2210608,7.3779008-.1354172.5341974-.0513651,1.0263687.2736361,1.5960548.4949731.8685377,1.3224187,1.551227,2.1592034,1.7800353.3763663.1027303.9348454.1615667,1.4662411-.1428885,2.9296804-1.6717016,5.2709965-3.1603565,7.3685617-4.6835662l.6285224-.4604184c1.9985706-1.4662411,4.0653168-2.9819794,6.521504-3.408777,1.8949064-.3296708,3.9224283-.8433221,6.3814173-1.6184686,2.1293182-.6705485,4.2857199-1.4363559,6.3711442-2.1769477.8993568-.3193977,1.7987135-.6387955,2.6990042-.9525897l1.9621481-.6873589c1.3812551-.4865679,2.7634441-.9740697,4.1503027-1.4335542,1.8986421-.6285224,3.862658-1.2785248,5.866832-1.8248631l.7723448-.2147996c1.5176062-.4230619,3.0856436-.8610664,4.6723592-.970334,1.8304665-.1242102,3.6842809-.1064659,5.4717875-.0887216,1.0674608.0112069,2.1339878.0224139,3.1967791.0028017.7377901-.0130748,1.4802497-.1568971,2.2675371-.3091247l.232544-.0448278c.4604184-.0887216.9208367-.189584,1.3812551-.2895126,2.3768048-.5183209,4.8320581-1.0525183,7.3713635-.0074713.1466241.0588364.3810359.0401582.6322581.0186782.1447563-.0121408.2904465-.0233478.432401-.0242817l.886282-.0028017c.7574022.0018678,1.5372183.0018678,2.2918188-.0541669.6341259-.0466956,1.2673179-.1232763,1.9005099-.200791.8097013-.0980607,1.6455521-.1998571,2.4823368-.2381474,1.1860676-.0541669,2.754105-.0915233,4.337085.0971268.75927.0915233,1.5054653.2727022,2.226445.4492114.7209797.1755754,1.4008672.3408777,2.0872922.422128,1.0525183.1251441,2.1358556.1839806,3.1837043.2418831.8246439.0448278,1.6502216.0905894,2.4739316.1653023,2.6765904.2456187,5.1570593,1.0254348,7.8915522,1.9425359,1.8715586.6285224,3.8533188,1.075866,6.0582839,1.3681803,1.8808978.2493544,3.6142375.6994997,5.297146,1.3765855,1.3093439.5267261,2.7316911,1.0123601,4.6125889,1.5745748.8349169.2493544,1.6745033.464154,2.5140898.6789537.9124315.232544,1.8566161.4734931,2.7849241.75927,1.4531663.4464097,2.8997952.9292419,4.3464241,1.4130081.9675323.3231334,1.9350646.6462668,2.9044648.9581932.1363511.0438938.3035212.0569686.495907.0719112.2054605.0149426.4099871.0326869.611712.0793825.6005051.1382189,1.2038119.2586935,1.8071188.3782342,1.4653071.2923143,2.9801116.5939677,4.4454187,1.1552485l.5640825.2176014c2.3842761.9208367,4.6396723,1.7884405,7.027684,1.5643018.8685377-.0821842,1.7398771-.0653738,2.5822653-.0448278.2839091.0056035.5678182.0121408.8517273.0149426.4987087.0028017,1.0039549-.0158765,1.5073332-.0354886,1.2290275-.0466956,2.4982133-.0961929,3.7505886.1923858,2.142393.4949731,4.2492973.4529471,6.4860154.4099871l.6528041-.0121408c.4837662-.0140087.9722019.0513651,1.4167437.1186068,1.0160957.1540954,2.0275219.3278029,3.0408158.5024444.5724877.0971268,1.1010817.1886501,1.6240721.3128604.3810359.0915233.7611379.2091962,1.1412399.3278029.7088388.221337,1.3775195.4295993,2.0228523.4445419,2.7951971.063506,5.6417594.0756468,8.3949305.0868538,2.1806834.0093391,4.3604328.0186782,6.5401822.052299.4445419.0065374.8872159.0074713,1.3308239.0093391,1.6894459.0037356,3.4358604.0084052,5.1934818.3296708,1.9247916.3520846,3.9756613.1494258,5.9592893-.0466956.7275171-.0719112,1.4550341-.2661648,2.2255111-.4716253.9161672-.2437509,1.8631534-.4968409,2.8353553-.5360652,1.3868586-.0560347,2.7083433-.5183209,4.1073428-1.0086244.5295278-.1858484,1.0571878-.3707629,1.5876495-.5323296,1.6791729-.5117835,3.8860057-1.1029495,6.067623-1.1262973,1.9686854-.0205461,3.8393102-.54914,5.8192026-1.107619,1.1132225-.3137943,2.2638015-.6387955,3.4227856-.8601325,1.32989-.2549578,2.6831277-.6658789,3.9924717-1.0637252.5435365-.1643684,1.0861391-.3296708,1.6296756-.4847001,1.6483538-.4697575,3.2967076-.9413828,4.938524-1.4447611.4809644-.147558.9591271-.3250012,1.4363559-.5015105.9367132-.3464812,1.9042455-.7041693,2.9072665-.8507934,1.994835-.2923143,3.9653882-1.0842713,5.8705677-1.8510126.5510078-.221337,1.1020156-.443608,1.6548912-.654672.1961214-.0747129.3885072-.1596989.5818269-.2437509.8451899-.3716968,1.7996475-.7900891,2.8951256-.3829037.0401582-.0177443.0896555-.042026.1260781-.0616382l.1681041-.0803164c.2979178-.1335493.5920999-.2783056.8872159-.4230619.5734217-.2811074,1.1673894-.5724877,1.7847049-.7826178,1.2402345-.4211941,2.4842046-.8115691,3.7291086-1.202878,1.0375757-.3259351,2.0760853-.6528041,3.1108592-.9964836.3091247-.1027303.6275885-.2801734.9637967-.4678897.1998571-.1120694.400648-.2241388.6033068-.3231334.2362796-.1167389.4716253-.242817.7060371-.3679611.5958355-.3193977,1.2112832-.6500024,1.8734265-.8395864,2.4197647-.6948302,4.4407492-2.1666747,6.1768907-4.4986517.5678182-.7611379.6696145-1.1337686.3109925-2.3048936-.4809644-1.5633678-1.3541717-2.7569067-2.8297518-3.8710632-1.4018012-1.0581217-3.0464193-1.7865727-5.1757375-2.2908849-1.6651642-.3959785-3.3004432-.8535951-5.0319152-1.3382952-.7443275-.2091962-1.5017297-.4211941-2.2778101-.633192l-1.0011531-.2727022.696698-.7686092c.1176728-.1298137.2138657-.2409492.2979178-.338076.1877162-.2185353.326869-.3744985.4790966-.4996427.4529471-.3726307.9012246-.7583361,1.350436-1.1440416,1.7875066-1.5381522,3.6366514-3.1286035,5.8089295-3.9270979Zm-9.0411972,4.6845001c-1.4130081,1.2271597-2.7382285,2.6467052-4.083995,4.1148141-.380102.4155906-.5108496.8106352.0859199,1.3812551.1830467.1737075.4492114.2829752.7312527.3978463.0093391-.0018678.0961929-.0084052.1531615-.0130748l.1699719-.010273c3.3695527-.1195407,6.6615907.7209797,9.8462289,1.5325488.876009.2241388,1.7529519.4473436,2.6308287.6509363,1.8024492.4193263,3.2173251,1.2729214,4.3258781,2.6102826.284843.3446133.5005766.7517988.7499309,1.224358.1214085.2306761.2558918.4837662.4137228.760204l.3978463.6948302-1.593253.4837662c-.5369991.1643684-.9843427.3016534-1.4335542.4239958-.9357793.25309-1.8734265.495907-2.8110736.7377901-1.9014438.4912374-3.8673275.9992853-5.7762426,1.5997904-2.7550389.8666699-5.5427647,1.8818317-8.2380333,2.8633727l-1.3653786.4968409c-.7574022.27457-1.5082671.5827608-2.2591319.8909516-1.0908086.4473436-2.2171059.9096298-3.3564779,1.2645162-1.4008672.4361367-2.8306858.7760805-4.2138087,1.1057512-.7956926.189584-1.5913852.3791681-2.3833421.5864964-.8582647.2250727-1.7137276.475361-2.5691905.7256492-.5612808.1643684-1.1225616.3287368-1.6847763.485634-.7536666.2101301-1.5082671.4109211-2.2628676.611712l-2.8092058.7564683c-1.2224902.3324725-2.4449803.6640111-3.6693383.981541-.2568257.0663077-.5155191.1447563-.7742126.2232048-.7686092.2334779-1.5624339.4884357-2.3936152.4566827-3.96819-.1017964-7.8840809,1.1683233-11.6776294,2.3805404l-.6415972.2045266c-1.0375757.3296708-2.0966313.4445419-3.1201983.5556773l-.3250012.0354886c-.6369276.0700434-1.2738553.1540954-1.9117168.2381474-2.3777387.3128604-4.8385955.6359937-7.2994523.2456187-4.0933341-.6490685-8.2856628-.5538095-12.3416405-.464154-2.1545338.0494973-4.3837806.0989946-6.5831422.0382904l-.8825464-.0186782c-1.9219899-.0326869-3.9084196-.0681755-5.8621625-.9479202-.0691095-.0308191-.1428885-.0494973-.2119979-.0541669l-3.16596-.1923858c-2.1059704-.127012-4.2128748-.25309-6.3179113-.3931767-.3670272-.0242817-.7321866-.0896555-1.097346-.1559632-.3081908-.0560347-.6163816-.1130033-.9264402-.1354172-1.2990709-.0971268-2.7709154-.2063944-4.1923287-.2194692-1.1757946-.0056035-2.3599944.0046696-3.5395246.0158765-1.213151.0140087-2.4291038.0298852-3.6366514.0149426-.5846286-.0056035-1.2168867-.1382189-1.9341307-.4043837-.4594845-.1709058-.9171011-.3455473-1.3756516-.5201887-2.4711298-.9413828-5.0263117-1.9154525-7.5749562-2.2087007-2.1853529-.2521561-4.3081337-.9105637-6.3608712-1.5474914-1.0852052-.3362081-2.2077668-.6845571-3.3125841-.9628628-.9619288-.242817-1.9285272-.4492114-2.8941917-.6556059-1.03384-.221337-2.1031687-.4501453-3.154753-.7209797-1.0926765-.2820413-2.4515177-.6341259-3.6777435-1.3093439-1.5017297-.8274456-3.0688332-1.097346-4.7283939-1.3840568-.8358508-.1438224-1.6997189-.2923143-2.5523801-.5183209-.7340544-.1942536-1.4699767-.3754324-2.205899-.5566113-.9899462-.2437509-1.9798924-.4875018-2.9661029-.7630057-.6005051-.1671702-1.1963406-.3679611-1.7921762-.569686-.8890837-.3007195-1.7277363-.5846286-2.5841331-.7583361-1.519474-.3091247-3.5217803-.6714824-5.5446326-.7256492-2.0536714-.0541669-4.0774576-.4370706-6.0349361-.8068995l-1.0170296-.1905179c-1.4288846-.2614952-3.0174681-.2437509-4.7218565.0541669-3.0520228.5332635-6.0788299.5267261-9.2485256-.0233478-1.9574785-.3390099-3.4872255-.4576166-5.0711394.0009339-3.0557584.8881498-6.1675515.8489256-8.8021159.6910945-2.9082004-.1709058-5.5156813.0326869-7.9700007.6238529-1.0123601.2456187-2.0443323.6191833-3.0426837.9796732-.5762234.2082623-1.1524468.4174584-1.730538.6051747-.8890837.2885787-1.7791014.5668843-2.6681852.8451899-1.455968.4548149-2.9623673.9255063-4.4295422,1.4335542-.8535951.295116-1.7193311.6630772-2.5570497,1.0179635-.6313242.2680326-1.2626483.5360652-1.8977082.7788822l-.443608.1709058c-1.0301044.3978463-2.0966313.8087674-3.1883739,1.0543861-.7405918.1662362-1.4625054.432401-2.2273789.7125745-1.1356364.4174584-2.310497.8489256-3.5787489.9451184-1.4951923.1130033-3.0333445.5211226-4.5210656.9152333-.5211226.137285-1.0431791.2755039-1.5643018.4025159-.2969839.0728451-.6462668.3193977-.9834088.5575452-1.1160242.7882213-2.2115024,1.5699052-3.3069806,2.3525231-1.5474914,1.1038834-3.0949827,2.2087007-4.6490114,3.2948398-.7051032.4921714-1.4344881.9255063-2.1395912,1.3448326-.2755039.1643684-.5510078.3278029-.8246439.4949731-.1765093.1073998-.4165245.2540239-.7051032.2540239-.0560347,0-.1130033-.0056035-.1727736-.0177443-.1596989-.031753-.3324725-.0476295-.50618-.0644399-.5547434-.0541669-1.2458379-.1214085-1.7445467-.6481346-.7760805-.8153047-.3614238-1.8454091-.0877877-2.5271645.0653738-.1634345.1307476-.3212656.1755754-.4697575.9899462-3.2565494,2.8045362-5.8341451,5.7108688-8.1119553.3016534-.2362796.5995712-.4818983.8984229-.7265831.6210511-.5108496,1.2635823-1.0385096,1.9369324-1.487721,1.0142279-.675218,1.9154525-1.1375042,2.7569067-1.4111403,1.1122886-.3632916,1.9985706-1.3009387,2.7186164-2.1704103.8750751-1.0571878.4585505-1.6315434-.0028017-2.0125793-1.1851337-.981541-2.4786011-1.7426789-3.588088-2.3581265-2.4365751-1.3541717-4.9786822-1.2897318-7.6636778-1.2196884-.6238529.0168104-1.2374327.0410921-1.8687569.0289513-.7630057-.0028017-1.5260114-.0018678-2.2890171-.0009339l-1.6810407.0009339-.2409492-1.3737838,1.4755802-.9553915c.8769429-.569686,1.7548197-1.139372,2.6392339-1.6866442.6023729-.3716968,1.2084815-.7293849,1.815524-1.0880069.9348454-.5510078,1.9014438-1.1216277,2.8269501-1.7333397.1839806-.1223424.3726307-.232544.5622147-.3427455.6154477-.3595559,1.1477772-.6696145,1.5176062-1.4148759.2904465-.5846286.8526612-.8377186,1.3056083-1.0413113.0905894-.0410921.1802449-.0812503.2652309-.1242102,4.9245153-2.4786011,10.0806407-4.2222139,15.7606905-5.3317007,5.4792588-1.0683948,11.0565782-1.3037405,16.4499171-1.5316149,1.1169582-.0466956,2.2329824-.0943251,3.3499405-.1484919,1.8211274-.0877877,3.6814791-.3221995,5.4811266-.5482061.9339115-.1176728,1.867823-.2344118,2.8017345-.3343403.52766-.0560347,1.0571878-.0887216,1.5867156-.1223424.3044551-.0196121.6079764-.0382904.9114976-.0616382l4.8806215-.3838376c2.9044648-.2288083,5.8079956-.4576166,8.7124604-.6798876l1.487721-.115805c4.9450614-.3847715,10.0544912-.7854196,15.1200272-.569686.5939677.0252156,1.1907372.0354886,1.7875066.0466956,1.6492877.0289513,3.3536762.0597703,5.0263117.3978463,6.3197791,1.2803927,12.7254781,3.4311908,19.0377859,6.3926242,1.2682518.5939677,2.6373661.9796732,3.9625865,1.3523039l.4847001.137285c.7004336.1989231,1.3989994.4071854,2.0984991.6154477,2.1143756.6294564,4.3015964,1.2803927,6.4570641,1.6446182,3.9513796.6668128,7.9970842,1.1234955,11.9092394,1.5661696l2.0527375.232544c3.6749417.422128,6.764321.738724,9.8975941.9133654,2.416029.1335493,4.8843571.1354172,7.2723688.1382189l4.9898891.0233478c4.4706343.0280173,9.0916284.0569686,13.6351079.0121408,1.81459-.0186782,3.6702722-.1737075,5.4652501-.3231334.5519417-.0457617,1.1048173-.0915233,1.656759-.1335493l2.8344214-.2157336c3.4255874-.2577596,6.9688476-.5248583,10.4448662-.8704055l.6780197-.0672416c3.260285-.3231334,6.6307716-.6574737,9.8947923-1.3177491,2.4982133-.50618,5.0281795-1.2831944,7.4740937-2.0340592.8255778-.2540239,1.6520894-.5080479,2.4786011-.7517988,1.7510841-.5183209,3.4965647-1.075866,5.2420452-1.6343451l2.025654-.6453328c.6210511-.1961214,1.224358-.3857054,1.8220613-.6005051,6.7801975-2.4337734,13.1335974-4.2371565,19.4225574-5.5128796,3.999009-.8097013,8.7451473-1.6651642,13.6304383-1.867823,1.4064707-.0597703,2.8017345-.0037356,3.8635919.053233.4062515.0205461.7816839.1568971,1.1132225.2783056.1298137.0466956.2586935.0943251.3885072.1326154l.3997141.1195407.1550293,1.2803927-.316596.2185353c-.2288083.157831-.4529471.3343403-.6780197.5117835-.5528756.4352028-1.1234955.8853481-1.7856388,1.1085529-1.213151.4099871-2.2768762,1.2654501-3.4041074,2.1722781-.4613523.3707629-.9227046.7424596-1.3961977,1.0833373-1.5166723,1.0926765-3.5049699,2.5626532-5.434431,4.2380904Z" stroke-width="0"/>
  </g>
</svg>