<?xml version="1.0" encoding="UTF-8"?>
<svg id="Layer_2" data-name="Layer 2" xmlns="http://www.w3.org/2000/svg" viewBox="0 0 297.5504541 25.2106357">
  <g id="Layer_1-2" data-name="Layer 1">
    <path d="m295.7389527,15.6168912c-2.152666-.0109735-4.3081337.0625721-6.4570641.1947205-5.23364.321499-10.4644783.6747511-15.6934488,1.0597561-3.134207.2306761-6.258141.648835-9.3951497.7956926-4.189527.1963549-8.3930626.1099681-12.5797879.3324725-4.1241532.2192357-8.2361655.6707819-12.3528474,1.0242674-1.6240721.1396198-3.2472103.2993186-4.8712824.4338019-3.5974271.2979178-7.2088629.475361-10.7885456.9082289-3.8673275.4676562-7.7075716,1.1622529-11.5571548,1.773031-4.2175443.6693811-8.4341547,1.0170296-12.6601043.0705103-2.0994331-.4704579-4.2184782-.8972555-5.8434843-2.7029734.3632916-.2014914.6397294-.395278.9451184-.5176204,1.1347025-.4552819,2.2852814-.8685377,3.4162483-1.3308239,3.5703437-1.4606376,6.5644639-3.7064613,9.0626772-6.6524851,1.1403059-1.345066,1.4167437-2.7471007.6369276-4.3457237-.8778768-1.7987135-2.0984991-3.1255683-4.2894555-2.9831468-1.6259399.1057655-3.2621529.1996236-4.8638111.4730262-3.1117931.5311622-5.6305524,2.3492544-8.1978751,4.0335638-.0943251.0614047-.1540954.174408-.2306761.2619622-.9236385,1.0522848-1.8379378,2.1134417-2.7737172,3.1545196-1.5166723,1.6875781-1.5689713,3.5542337-.7051032,5.5401965.221337.5103826.4613523,1.012827.7228475,1.5841474-.5099157.1830467-.8844142.3261686-1.2635823.4520132-4.7629486,1.5801783-9.6547771,2.6053796-14.5615481,3.6221757-4.0074142.8304808-7.87194.4872683-11.7430032-.5285939-1.7576214-.4611188-3.0445515-1.5762091-4.1092106-3.2280651,2.9633012-1.2257588,5.6996619-2.3564922,8.4360226-3.4897938,2.2703389-.9406824,4.0662507-2.4828037,5.5259543-4.4367801.7097727-.9516558.7396579-2.2124363.0280173-3.0800401-.7200458-.8785772-1.6380808-1.5584648-2.8026684-1.6030591-2.8092058-.1071663-5.5969316.0168104-8.1614526,1.392929-.7181779.3857054-1.4578359.7433936-2.1302521,1.2000763-3.3079145,2.2469911-6.1404681,4.8399963-6.4094346,9.4402109-1.5288131.4709249-3.1276696.9740697-4.7330635,1.4562015-4.7405348,1.4235146-9.539906,2.6537095-14.4653552,3.1426122-4.9506649.4914709-9.771516-.0679421-14.0899228-2.8965265-1.6334112-1.0697956-3.102454-2.3219375-4.6135228-3.7751038.6742841-.1825797,1.1132225-.3523181,1.5680374-.416758,3.5946254-.5117835,6.9931293-1.56687,10.3131847-3.1003527,2.6831277-1.2390671,4.8703485-2.923143,6.6261021-5.2350409.3782342-.4984753.6724163-1.1066851.8414543-1.7106924.3193977-1.1400725.042026-2.0772527-.8489256-3.0013581-1.6997189-1.7629914-3.8495832-2.4377425-6.1040456-2.6884977-3.9523135-.4394054-7.9111643-.3191643-11.786897.7370897-1.0039549.2736361-2.0770192.4620527-2.965169.9630962-4.0634489,2.2932197-6.7026828,5.898585-4.7199887,10.8515847.2755039.6873589.4520132,1.413942.7051032,2.2201411-.5211226.105532-.9030924.2236718-1.2915996.2556583-8.1268979.6658789-16.250994,1.3693477-24.3834953,1.9609807-4.3548293.3168295-8.7227334.5848621-13.0869018.6049412-4.072788.0186782-8.14651-.3324725-12.2211659-.4989422-7.449812-.3044551-14.8958884-.8094678-22.3578413-.3320055-1.6278077.1043646-3.2556155.2509887-4.8852911.2654643-4.6564827.0415591-9.3129655.0256826-13.9694482.0303521-.3502168.000467-.6994997-.0212465-1.0487826-.0186782-1.5129366.01074-3.0268072-.0079382-4.5388099.0485634-2.0863583.0779816-4.1727166.1923858-6.2562731.3390099-.5874303.0410921-1.2785248-.1975223-1.7594893.3789346,1.2112832,2.4017869,1.6922476,2.7053081,3.4227856,2.1711108-.0588364-.3574546-.1176728-.7184114-.1653023-1.003021,2.0144471-.1830467,3.9205605-.4627531,5.8322773-.5057131,3.1416783-.0705103,6.2861583.0025683,9.4297044.0338543,3.9000144.0389908,7.808434.2850765,11.6981754.105065,6.7680566-.3130938,13.5090298-.0039691,20.2593422.3420451,5.3513129.274103,10.711031.6476676,16.0632778.5881308,6.1124508-.0681755,12.2267693-.4723257,18.3289471-.9049602,6.5046936-.4615858,13.0084533-1.013294,19.4851295-1.7690619,2.0938296-.2446848,3.461076.3168295,4.9151762,1.7181637,3.2565494,3.1379426,7.0641066,5.3053177,11.6598851,5.8474534,3.7786059.4457093,7.5777579.6504694,11.33395.0859199,4.1969983-.6310907,8.3557062-1.5278792,12.5144141-2.3912804,2.3273075-.4828322,4.6200602-1.1319007,6.9763189-1.7181637,1.2915996,1.4762806,2.6541765,2.8397914,4.6153906,3.3261258,3.4601421.8580312,6.9492355,1.4491972,10.5373234,1.1687902,6.4607998-.5050126,12.8300762-1.5000953,19.0041651-3.5420928,1.9229238-.6359937,3.7636633-1.1099538,5.3774624.7457283.3847715.4422071,1.1066851.6705485,1.7165293.8204413,2.1414591.5269596,4.2829181,1.2535427,6.4589319,1.4013342,5.3587842.364459,10.7100971-.0135417,16.0305909-.7900891,4.4911804-.6553724,8.9776912-1.3686473,13.485682-1.8832325,4.3389528-.4954401,8.7208656-.633192,13.053281-1.1757946,4.9852196-.6245533,9.9797783-.9743032,14.9911474-.9560919,6.658789.0240482,13.2568737-.7254158,19.8745706-1.2750227,5.2831374-.4389384,10.573746-.7996617,15.8643546-1.1510459.4688236-.0310526,1.1795302.1134702,1.3989994.4361367.8321151,1.2208558,1.8911708.501744,2.849364.4499119.1914519-.0105065.4734931-.4961405.5136513-.7903226.157831-1.1386716-.4333349-1.8061848-1.7865727-1.8131892Zm-187.0886228-6.1049795c-.0672416-.8036308.263363-1.7555201.6976319-2.4662268,1.5185401-2.4860724,3.6543957-4.100105,6.5878117-4.7659839,2.5019489-.5680517,4.9226475-.6145138,7.4171251-.1097346,1.5839139.3205651,2.7092773,1.2897318,3.8393102,2.3009245.6313242.564316.3716968,1.1930719-.0084052,1.7333397-1.3224187,1.8799638-2.8577692,3.6611666-4.9422597,4.5885407-2.8540335,1.2691857-5.6688428,2.748735-8.8413402,3.1680613-.9740697.1288798-1.9425359.2990852-3.0249393.4678897-.8937533-1.5664031-1.5801783-3.1797352-1.7249345-4.9168106Zm45.8765346,6.7493784c.0905894-.2626626.1363511-.5524087.2773717-.7840187,2.0443323-3.3483062,4.8759519-5.725111,8.5733076-7.0781153,1.3214848-.4835327,2.0938296.121642,2.849364,1.1785963-.7191119,1.3452995-1.7585554,2.395016-3.0333445,3.2257303-2.6037453,1.6964502-5.5483682,2.5918379-8.3809218,3.7491877-.095259-.0971268-.1905179-.1942536-.2857769-.2913804Zm36.944605,1.1743937c-.390375-.6359937-.706971-1.118359-.9890123-1.6205699-.5463382-.975704-.4295993-1.9114834.2624291-2.7639111,1.0263687-1.2640492,2.0359271-2.5456093,3.1332731-3.7456855.4566827-.4991757,1.1020156-.8367847,1.6931815-1.1956402.9908801-.6012055,2.0023063-1.1697242,3.0156002-1.7328728.4043837-.2250727.8237099-.4370706,1.2598466-.5909325,2.0237862-.7149093,3.9009483.2465526,4.4706343,2.331977.0924572.3364416-.0224139.8288465-.2222709,1.1267642-.4847001.7209797-1.003021,1.4489637-1.6371469,2.0340592-3.1192644,2.8813505-6.7727262,4.822719-10.9865349,6.1568116Z" stroke-width="0"/>
  </g>
</svg>