<?xml version="1.0" encoding="UTF-8"?>
<svg id="Layer_2" data-name="Layer 2" xmlns="http://www.w3.org/2000/svg" viewBox="0 0 307.2736937 72.9432997">
  <g id="Layer_1-2" data-name="Layer 1">
    <g>
      <path d="m3.2173251,27.7614532c.3044551.4183924.6191833.8507934.9647306,1.2327632,1.4419594,1.5997904,3.0099968,3.1426122,4.5257351,4.6359367l.5183209.5099157c2.764378,2.7260877,5.8416164,5.0010961,9.6108832,7.5786918,1.2747892.8713394,2.6364322,1.6717016,3.9532474,2.4459142.9273741.5454043,1.8538143,1.0898747,2.7615763,1.6642303.5977034.3773002,1.0665269.9114976,1.5745748,1.519474.3025873.3623577.4361367.7396579.3978463,1.118826-.0410921.3941107-.2624291.7536666-.6602754,1.0702626-.2250727.179311-.4445419.3670272-.664945.5538095-.4473436.3819698-.9105637.7770144-1.4186116,1.1038834-5.1122315,3.2864346-9.9284131,5.9238006-14.7240487,8.0615241-.25309.1120694-.50618.232544-.760204.3530185-1.3420308.6378616-2.7195503,1.298137-4.3949875,1.05532-.0700434.0233478-.3492829.2811074-.422128.4716253-.0681755.1765093-.0112069.5341974.1120694.706971.127012.1774432.3530185.3221995.5930338.4762949.1214085.0775147.2437509.1568971.3604898.242817l.1979892.1456902-.411855,1.1907372c.1214085.1774432.2400153.3446133.3558203.5071139.3100586.4361367.6033068.8479916.8293134,1.298137.5248583,1.0441131,1.298137,1.8211274,2.3627961,2.3730691,4.5369421,2.353457,8.7096586,3.7524564,12.7544293,4.2791825,5.3513129.6957641,9.6968031.7714109,13.6743322.2334779l.1316815-.0177443c3.0426837-.4090532,6.1899654-.8330491,9.2457238-1.424215,2.2217755-.4295993,4.4061945-1.0908086,6.4355841-1.7426789,3.0949827-.9927479,6.2245201-2.0630105,9.2513273-3.0968505l2.416029-.8246439c3.5600706-1.2103493,7.0528996-3.102454,10.9902705-5.9536858,2.0013723-1.4484967,4.1316245-3.0146663,6.1498072-4.6480775,1.7155954-1.3887264,3.4274552-2.8428266,5.0832803-4.2492973.9469863-.8050317,1.8949064-1.6100634,2.8474962-2.4076238.3773002-.3147282.8181065-.6219851,1.3896603-.9656645,3.9112214-2.3590604,8.5098016-3.556335,14.4737604-3.7683329,2.6597799-.0905894,5.3737268.2054605,7.9952163.4931053.6257207.0691095,1.2514414.1382189,1.8752943.2017249,1.3121457.1344833,2.585067.3221995,3.7319104,1.1365703.5584791.3969124,1.4148759.5155191,2.1713442.6201172.2054605.0177443.5986373-.1877162.6565398-.3119264.0186782-.1045981-.1653023-.4893696-.3847715-.6696145-.3754324-.3100586-.9002907-.5164531-1.3625769-.6985658-2.849364-1.1197599-5.7613-2.2638015-8.8488115-2.7064755l-.4258636-.0607042c-3.9383048-.5668843-8.0110928-1.150579-12.0661366-.8068995l-.4847001.0410921c-.8171726.0681755-1.6343451.137285-2.447782.232544-3.1454139.3679611-5.8388147,1.1113547-8.2342977,2.2712728-3.3172536,1.6063278-6.004117,4.1661792-8.6031927,6.6429125l-.7181779.6826893c-2.8082719,2.6625817-5.9294041,4.9842857-8.9478061,7.2303428-1.0188974.7583361-2.0377949,1.5166723-3.0473532,2.2880832-.411855.3156621-.8928194.5220565-1.3896603.7228475l-1.9817602.8040978c-2.2413876.9124315-4.558422,1.8556821-6.8623817,2.7242198-2.5551819.9628628-5.0618003,1.8883691-7.629123,2.6252252-2.4580551.7051032-5.0982229,1.3102778-7.8457905,1.7996475-2.184419.3885072-4.5388099.6658789-7.196722.8470577-2.8568353.1942536-5.1607949.2381474-7.2536906.1335493-1.6623625-.0812503-3.3415353-.2736361-4.9665414-.4585505-1.1244294-.1279459-2.2488589-.2568257-3.3760901-.3502168-3.0576262-.2549578-4.8834232-2.2385859-6.4000955-4.3436224l-.3240673-.4501453.54914-.0756468c2.9287465-.4081193,5.476457-1.4447611,7.7897558-3.1715635,1.5110688-1.1272312,3.0763045-2.2301807,4.590175-3.2967076,1.7417449-1.2271597,3.5413924-2.4954115,5.2616574-3.8038215,1.2010102-.9124315,2.2572641-2.0835566,3.2780294-3.2173251l.3922428-.4342688c.3744985-.4137228.548206-.8666699.5145852-1.3476343-.0438938-.6341259-.4557488-1.3205509-1.1281651-1.8827656-1.1104208-.9273741-2.2591319-1.8865012-3.5423263-2.5243628-2.9287465-1.4541002-5.4428362-3.5208464-7.8738078-5.519417-.833983-.685491-1.6679659-1.3709821-2.5196932-2.0340592-1.435422-1.1160242-2.7774528-2.3889456-4.0765237-3.619841-.4333349-.411855-.8676038-.822776-1.3046744-1.2290275-.2549578-.2362796-.4398723-.5145852-.6742841-.8676038-.1148711-.1737075-.242817-.3660933-.3978463-.580893l-.5220565-.7228475.8685377.2017249c.2250727.053233.4155906.0933911.5827608.1298137.3212656.0691095.559413.1214085.791023.1951875.7564683.2409492,1.5110688.4912374,2.2656693.7405918,1.4018012.464154,2.8512318.9441845,4.2903894,1.3569734l1.5502931.4492114c3.8234337,1.1122886,7.7757471,2.2628676,11.8074431,2.5990757,3.472283.2913804,6.2674801.3418116,8.7946446.1568971,2.9025969-.211064,5.6800497-.7844857,8.2539098-1.7034546,1.8052509-.6453328,3.6740078-1.1907372,5.4820605-1.7174632,3.14448-.9171011,6.3954259-1.8650213,9.3802071-3.365817,3.1061896-1.5615,6.2338593-3.2154573,9.2578647-4.8143138l.348349-.1839806c.7405918-.3922428,1.4709106-.8078334,2.2012294-1.2224902,1.1580503-.6584076,2.3553248-1.3392291,3.5843523-1.9163864,4.0064803-1.8808978,7.692629-3.2565494,11.2685761-4.2044696,2.2516606-.5967694,4.1456331-.8012961,5.9546197-.6509363,4.4631631.3773002,8.4360226,2.1237147,12.0642687,3.9541813.4520132.2269405.9002907.5752895,1.2645162.9778053.8890837.9852766,2.08916,1.4382237,3.271492,1.846343.7125745-.9964836.591166-1.2747892-.1242102-1.9005099-.411855-.358622-.8181065-.7004336-1.2551771-.9301759-3.8962788-2.0490018-8.5677041-4.3426885-13.665927-5.8154669-5.9275363-1.7137276-10.4626105-1.6502216-14.7109739.2035927-.1130033.0494973-.2316101.084052-.3502168.1176728-5.2084244,1.4541002-9.6986709,4.1596418-13.4044317,6.6130273-2.6084148,1.7268024-5.2121601,3.3116502-7.7393246,4.7106496-1.7762997.9834088-3.7029591,1.8519465-5.7248775,2.5813314-2.0919618.7536666-4.241826,1.4466289-6.320713,2.1162435-1.3280222.4277315-2.6560443.8563968-3.978463,1.3018726-3.2472103,1.0954782-6.2217184,1.6745033-9.0906945,1.7716301-3.4900273.1148711-6.7082863-.0877877-9.5623198-.6126459-2.933416-.5398008-5.8658981-1.3233526-8.7021873-2.0807548-1.4055368-.3754324-2.8101397-.7508648-4.22128-1.1001477-2.8353553-.7004336-5.1626628-1.8696908-7.1145378-3.5740793-.5584791-.4875018-1.2944013-.7826178-2.0732835-1.0954782-.306323-.1232763-.6135799-.2465526-.9096298-.3819698-.9329776.4921714-1.7445467.137285-2.4645924-.1774432-.2932482-.1288798-.569686-.2502883-.8479916-.316596-.2241388-.053233-.390375-.0410921-.4921714.0373565-.1130033.084052-.189584.2736361-.2204031.5388669l.284843.2232048c.316596.2493544.6369276.5015105.9675323.7396579.8274456.5967694,1.4055368,1.3915281,1.9649498,2.1592034Z" stroke-width="0"/>
      <path d="m116.6632906,22.7790354l.0009339.5005766c.0065374,3.2911041.7975604,6.2992331,2.3497213,8.9422026,1.4288846,2.4328395,2.7158146,4.3128033,4.0503742,5.9172633,1.973355,2.3693335,4.2035357,4.5920428,6.1712872,6.5541909l1.0151618,1.013294c2.2890171,2.2880832,4.6574166,4.6546149,7.1500264,6.7801975,4.4117979,3.7608616,8.0064233,7.7654741,10.9884027,12.2426458.1671702.2502883.422128.4716253.6920284.7051032.0775147.0672416.1559632.1354172.2344118.2054605.1083337-.0681755.2138657-.1344833.3156621-.1979892.3362081-.2101301.6369276-.3987802.9217706-.6089103,1.0936104-.812503,2.3338448-1.7324058,3.7188356-2.4412447,1.4251489-.7275171,2.3198362-1.4466289,2.7363607-2.1984277,2.2638015-4.0783915,5.4391006-7.1901846,7.9531903-9.4455809,1.1057512-.9927479,2.2320485-1.9649498,3.3583458-2.9371517,3.0436176-2.627093,6.1918332-5.3447755,8.8656219-8.4472295.5612808-.6509363,1.0861391-1.361643,1.5941869-2.0480679.4492114-.6079764.9142994-1.2374327,1.4083385-1.8314004,3.0697671-3.6926861,5.0076335-8.0120268,5.7575644-12.8403492.864802-5.5539717-.2054605-10.7147666-3.1799687-15.3394964-.8788107-1.3672464-2.4066899-3.0772384-4.6901035-3.4592082-3.6319818-.6070425-6.85958-.0625721-9.5884694,1.6240721-1.3532378.8358508-2.4319055,1.5558966-3.3938344,2.2656693-.4025159.2969839-.8171726.5864964-1.2318293.876009-1.1860676.8274456-2.4122934,1.6829085-3.3434032,2.7391624-2.2311146,2.5309002-4.7199887,5.5371613-6.0115883,9.191557-.1139372.3231334-.2792395.6247868-.4548149.9432506-.0859199.1568971-.1765093.3221995-.2689665.5024444l-.2409492.4725592-.3221995-.4202602c-.0793825-.1045981-.1522276-.1951875-.2194692-.2783056-.1456902-.1802449-.263363-.3287368-.3595559-.4903035-3.0594941-5.1262402-6.8147522-10.4131132-11.4787062-16.1632063-1.0777339-1.3289561-2.3665317-2.4944776-4.0550437-3.6684044-1.3784534-.9591271-2.7989328-1.4391576-4.2492973-1.4391576-1.2327632,0-2.4870063.3464812-3.756192,1.0394435-1.0786678.5892982-2.11064,1.3280222-3.1080575,2.0424644-.706971.50618-1.4382237,1.0301044-2.1881546,1.5026636-2.36373,1.4886549-4.083995,3.4181161-5.2616574,5.8976511-1.0478487,2.2096346-2.1517321,4.8087103-1.9780246,7.6944968.0933911,1.5344166.095259,3.0940488.0980607,4.6023159Zm5.1776054-7.7570689c.1727736-3.6749417,1.9584124-6.7895366,3.4937629-9.0925624,1.1580503-1.7342737,4.7097157-2.4814029,6.7895366-1.4270168,1.635279.8283795,2.7597085,1.6390147,3.5385907,2.5514462,4.9310527,5.7762426,9.0169155,11.3246108,12.4920002,16.9598328.2063944.3352742.390375.6845571.5743556,1.03384.1961214.3735646.3997141.75927.6266546,1.1113547.5304617.8255778,1.0179635,1.5605661,1.6063278,2.2068329.7107067.78075,1.1907372.8517273,2.0499357.3100586.9880784-.6201172,1.9742889-1.3392291,3.0127985-2.1984277.1961214-.1615667.3091247-.5771573.3997141-.9114976,1.7211989-6.3141756,4.072788-11.0229574,7.4199269-14.8884171,1.9742889-2.2806119,4.3305476-3.5507315,7.0043362-3.7758042,1.2990709-.1083337,2.6383-.1344833,3.9775291-.073779,1.6548912.0728451,2.9576977.9740697,3.8719971,2.6784582,1.4186116,2.6411017,2.0760853,5.2177635,2.0088436,7.8756757-.0149426.5846286.0504312,1.192605.1139372,1.7809692.0691095.6453328.1410206,1.3121457.1148711,1.9761567-.1979892,4.8703485-1.8743604,9.5940728-4.9842857,14.0394916-3.6852148,5.2691287-8.2277603,10.1469484-13.8891318,14.9145666-2.7727832,2.3338448-5.4222902,4.6845001-7.3480157,7.7636063-.4818983.7714109-1.1683233,1.3756516-1.8949064,2.0144471-.3259351.2867108-.6584076.5790251-.9768714.8928194l-.2446848.2409492-.2344118-.2512222c-.4678897-.5024444-.9171011-.9983514-1.3579073-1.4839854-.9806071-1.0805356-1.9061134-2.100367-2.9007291-3.0538906-.9964836-.9535236-2.0854244-1.8510126-3.1388765-2.7195503-.4445419-.3670272-.8890837-.7340544-1.3289561-1.1057512-.1120694-.0943251-.2344118-.179311-.3558203-.2652309-.2484205-.1746415-.5052461-.3548864-.7041693-.6089103-1.9247916-2.4571212-4.2296852-4.6303332-6.4589319-6.7307002-1.1356364-1.0702626-2.3095631-2.1769477-3.4218517-3.3097824-3.2201268-3.2770955-5.7528948-6.574737-7.7430602-10.0806407-1.5316149-2.6962025-2.3076953-5.6585698-2.3067614-8.8058515.0009339-2.3263735.0644399-4.801239.1942536-7.5674849Z" stroke-width="0"/>
      <path d="m176.6250784,50.2677864l.2456187.1223424c1.2402345.6210511,2.4094917,1.2112832,3.8766666.8012961.569686-.157831,1.1636537-.1979892,1.7380093-.2381474l.6677467-.0485634c2.7634441-.2091962,5.5278222-.4183924,8.2950019-.5920999l.4454758-.0280173c1.3093439-.084052,2.6579121-.1699719,3.9980751-.1699719.2232048,0,.4454758.0028017.6668128.0074713,2.3870778.0569686,4.6620862.8414543,6.7624532,2.3338448.3987802.2829752.8591986.4828322,1.3476343.6948302.2755039.1195407.5500739.2400153.8153047.3744985,4.0513081,2.0630105,8.0988805,4.1306906,12.146453,6.1983706.7854196.4015819,1.5661696.812503,2.3478535,1.2224902,1.7062563.897489,3.4694812,1.8248631,5.2485826,2.628027,1.5895174.717244,3.2584172,1.3410969,4.8731502,1.9453377.8713394.3259351,1.7426789.6518702,2.606547.9927479,5.0711394,2.005108,10.1067902,2.8773813,14.9547248,2.5953401,3.4255874-.1989231,7.1472247-.6135799,11.3769099-1.2682518,4.1456331-.6406633,8.2221568-1.920122,12.1641973-3.1566209.7359223-.2316101,1.4718445-.4622862,2.2087007-.6892267,4.5462812-1.4008672,9.0085103-3.2780294,13.3231814-5.0926194l2.2647354-.949788c4.5780342-1.9107829,8.895507-4.2577025,13.200839-7.1771099.6817554-.4613523,1.3831229-.8928194,2.0844905-1.3233526.6948302-.4267976,1.3905942-.8535951,2.0648783-1.3112117.2540239-.1718397.4660218-.4361367.7340544-.7714109.0607042-.0756468.1242102-.1550293.1905179-.2362796-1.9453377-.8423882-3.6394531-1.5643018-5.4755231-1.825797-.9843427-.1400867-1.9724211-.2521561-2.9604995-.3642255-2.511288-.2857769-5.107562-.580893-7.6001718-1.3420308-1.2215562-.3726307-2.4393768-.760204-3.6945539-1.1599181l-2.279678-.7237814.4725592-.7004336c.1148711-.1765093.1951875-.2960499.2885787-.4053176.5818269-.6733502,1.1683233-1.3429647,1.7548197-2.0125793,1.2701196-1.4494306,2.5831992-2.9474247,3.8178302-4.4631631.9731358-1.1944728,1.9257255-2.5505123,2.9997237-4.2661077.8293134-1.3280222,1.2224902-2.7354268,1.1683233-4.1839235-.0373565-1.0048888-.4613523-1.6829085-1.2962692-2.0723496-.664945-.3100586-1.3588412-.569686-2.0928957-.844256-.2316101-.0868538-.4669557-.1746415-.706971-.2661648-.6163816,1.5222757-2.0247201,1.7809692-3.0716349,1.973355-.0868538.0158765-.1681041.0485634-.2502883.0793825-.0588364.0224139-.1176728.0438938-.1774432.063506-7.3825704,2.3525231-14.3234007,5.7650357-20.6310389,10.1422789-1.5699052,1.0889408-3.1752991,1.8902369-4.9077049,2.4496499-3.0837758.9936818-6.4234433,1.3448326-10.5251826,1.0898747-3.69362-.2260066-7.967199-.6173155-11.9475298-2.4188308-3.6553296-1.6548912-7.8569974-3.6609331-11.4534906-6.5308431-3.2238625-2.5729262-6.3730121-4.4248727-9.6276936-5.6632393-1.1132225-.4230619-2.2815458-.7732787-3.4115787-1.1122886-.7854196-.2353457-1.5708391-.4706914-2.3469196-.7312527-2.6747225-.8993568-5.5371613-1.1347025-7.9830755-1.2477058-3.1164627-.137285-6.3814173.5939677-10.0124652,2.2525945-.8750751.3997141-1.3485682.9227046-1.4886549,1.646486-.042026.2166675.0037356.517387.0971268.6303903.2288083.2801734.6714824.4650879,1.1851337.4931053.5883642.0270834,1.1785963-.1466241,1.4942584-.4557488.3716968-.3651594.7275171-.7144423,1.1683233-.8386525l.4109211-.1148711c1.5857817-.4445419,3.2266642-.9049602,4.8768858-1.202878,3.8841379-.7013675,7.6627439-.0821842,11.8494691.7349883,3.745919.7293849,6.6914759,2.8316197,9.5408399,4.8638111l.8255778.5939677c1.0301044.7433936,2.0956974,1.5120027,3.1930434,2.1713442,4.1969983,2.521561,8.7955785,4.421137,13.2428651,6.258141l.3763663.1550293c3.0837758,1.2747892,6.204908,2.0163149,9.275609,2.2030972l1.5680374.0999285c2.2236433.1456902,4.5238673.2969839,6.7736601.2418831,4.1222854-.0989946,7.4675563-1.0889408,10.2272648-3.0258733,5.4531092-3.8281032,11.8485352-7.164969,19.5523711-10.2001814.1596989-.0625721.3175299-.0747129.5164531-.0905894.0980607-.0074713.2119979-.0158765.3492829-.0326869l.5920999-.0728451-.2465526.5426026c-.7256492,1.5923191-1.7137276,2.7849241-2.6691191,3.9392387l-.2502883.3025873c-1.0487826,1.2710536-2.1115739,2.5318341-3.1743652,3.7916807-.8470577,1.0039549-1.6931815,2.0079097-2.532768,3.0174681-.9068281,1.0908086-1.2551771,1.7762997-1.1319007,2.2236433.1195407.4305332.7191119.8134369,1.9444037,1.2421023,3.0165341,1.0562539,6.2562731,2.1601373,9.5137564,3.0763045,1.4727784.4137228,3.0202698.6901606,4.5154621.9581932.7349883.1316815,1.4699767.2624291,2.2002955.4099871.2755039.0560347.5472721.1344833.8797446.2316101l1.1216277.3147282-.4408062.4081193c-.1204746.1111355-.2176014.2073284-.3025873.2913804-.1653023.1643684-.2960499.2932482-.4594845.3978463-6.2852244,4.0485063-11.607586,6.8567782-16.746901,8.8385384-.7676753.2960499-1.5381522.6369276-2.2834136.9665984-1.1337686.5015105-2.3058275,1.0198314-3.5096394,1.3999333-5.4017441,1.7053224-10.8202986,3.2995093-16.3593277,4.917044-4.1101445,1.2019441-8.4061374,1.6539573-12.5611097,2.0919618l-1.0917425.115805c-2.9838472.3175299-5.9873066.2446848-8.9281939-.2129318-2.0835566-.326869-3.9579169-.6472007-5.8117313-1.2729214-3.5610045-1.202878-6.8633156-3.0156002-10.056359-4.769486-1.435422-.7882213-2.9194073-1.6025921-4.4033927-2.3487874-1.7893744-.9002907-3.5684758-1.8239292-5.3466433-2.7475676-2.2124363-1.1477772-4.4986517-2.3357127-6.7699245-3.4554725-1.1692572-.5771573-2.4066899-1.0796017-3.6020967-1.5652357-.897489-.3651594-1.825797-.7415257-2.7251538-1.1496451-2.8960596-1.3140135-6.1965028-1.8547482-10.1086581-1.6651642-1.8668891.0933911-3.7309764.1858484-5.5156813.4987087-2.1181113.3726307-4.2054035.9423167-6.3347217,1.5428218-.6042407.1709058-1.0777339.3604898-1.1375042,1.0301044Z" stroke-width="0"/>
    </g>
  </g>
</svg>