<?xml version="1.0" encoding="UTF-8"?>
<svg id="Layer_2" data-name="Layer 2" xmlns="http://www.w3.org/2000/svg" viewBox="0 0 123.8221975 245.2730301">
  <g id="Layer_1-2" data-name="Layer 1">
    <g>
      <path d="m67.0698571,227.5923936c-.6696167-1.7299805-1.9337158-3.0703125-3.75354-3.876709-.3723145-.0079346-.7573853-.0161133-1.1264038-.0240479-.5513306.1843262-.864624.5814209-1.0864868,1.0977783-.2403564.5593262-.3773193,1.145752-.416687,1.7424316-.0592651.9006348-.1016846,1.8082275.0819702,2.7023926.0240479.1171875.1226196.2182617.1990967.3479004.5362549-1.1529541,1.0501099-2.2578125,1.6020508-3.4445801.2063599.2224121.3329468.3388672.4365234.473877.5805664.7568359.9812012,1.5646973.9647217,2.5808105-.0132446.8161621-.2254028,1.5756836-.4170532,2.3457031-.1740723.699707-.4425659,1.3640137-.8126831,1.9851074-.1386108.232666-.2600708.4626465-.5158081.5595703-.6904907-.3554688-.9216309-.9940186-.9645996-2.7004395-.1733398-.1904297-.3853149-.4232178-.4939575-.5424805-.3365479-.1101074-.5146484-.168457-.6958618-.2277832-.2036133.0615234-.4056396.1225586-.6271362.1893311-.2039795.1826172-.4212036.3770752-.5515137.4936523-.0958252.333374-.1928101.5374756-.2089844.7481689-.1138306,1.4854736.2992554,2.7834473,1.3642578,3.8261719.9741211.9537354,2.3196411,1.1356201,3.4854126.5759277.7276001-.3493652,1.2622681-.9580078,1.7285156-1.6166992.3739624-.5283203.6601562-1.107666.9086914-1.7114258.5025024-1.2209473.8381348-2.4893799,1.0754395-3.7866211.0431519-.2358398.0162964-.4902344-.0089111-.7327881-.0298462-.2869873-.0928345-.5704346-.1670532-1.005249Z" stroke-width="0"/>
      <path d="m123.8091149,136.2587754c-.0115967-.3636475-.0286255-.729126-.079834-1.0960693-.0709839-.5092773-.1745605-1.0114746-.3075562-1.5085449s-.2954102-.9890137-.4841309-1.4780273c-.257019-.6660156-.5290527-1.3291016-.7545166-2.001709-.1833496-.5471191-.2814331-1.1083984-.3903809-1.6689453-.1033325-.5314941-.1469727-1.0632324-.2058716-1.5935059-.0269775-.2429199-.0528564-.4855957-.085083-.7276611-.0322876-.2420654-.0709839-.4835205-.1238403-.723999-.1258545-.5732422-.3215332-1.1413574-.394165-1.7167969-.1101074-.8725586-.2946167-1.7307129-.5395508-2.5869141-.1864624-.6518555-.4054565-1.2976074-.7636719-1.8945312-.5648804-.9414062-1.0944214-1.8935547-1.576355-2.8649902-.0950928-.1916504-.1759644-.3856201-.2442627-.5812988-.1366577-.3913574-.2232666-.7893066-.274353-1.1903076-.0255127-.2005615-.0421753-.4017334-.0516968-.6030273-.0213623-.4512939.097168-.9083252.2056274-1.3514404.0513306-.2097168.1202393-.4154053.1937866-.6202393.0735474-.2047119.1517944-.4085693.2218018-.6141357.2597046-.7625732.5066528-1.5288086.7801514-2.2871094.2335815-.6477051.3508301-1.3162842.4329834-1.9909668.0114746-.0942383-.0056152-.1915283-.0239868-.2893066-.0183716-.0976562-.0380249-.1958008-.0316772-.2912598.0148926-.223877-.0376587-.4377441-.0963135-.6513672-.0195923-.071167-.0370483-.1424561-.0566406-.2138672-.0534668-.1953125-.125061-.3837891-.2098389-.5671387-.2544556-.550293-.628479-1.0551758-.9945679-1.5609131-.1382446-.19104-.288269-.3743896-.4462891-.5524902-.473999-.5343018-1.0199585-1.0213623-1.5375366-1.5262451-.1160278-.1131592-.251709-.2109375-.3776855-.3172607s-.2423096-.2213135-.3777466-.3172607c-.1798096-.1274414-.3629761-.2492676-.5507202-.3637695-.5631714-.3439941-1.1675415-.6237793-1.84552-.8011475-.421875-.1104736-.8550415-.1907959-1.2633057-.3168945-.3644409-.1125488-.7224121-.1035156-1.0793457-.1688232-.3577881-.0655518-.7161865-.1357422-1.0772095-.1746826-.2043457-.0220947-.4142456.0281982-.6219482.0223389-.3365479-.0095215-.671936-.0341797-1.0080566-.0551758-.3361816-.0209961-.6730347-.0385742-1.0126953-.0334473-.3804321.0054932-.7620239-.0041504-1.1435547-.0073242-.3815918-.0032959-.7631226-.0002441-1.1434326.0307617-.2626953.0212402-.5285645.0267334-.7936401.0350342s-.5293579.0196533-.7889404.0527344c-.9175415.1173096-1.8255615.2650146-2.7220459.4481201-.4483032.0914307-.8936157.1918945-1.3359375.3015137s-.8815308.2287598-1.3173828.3579102c-.6824341.2020264-1.3480835.4344482-2.0044556.6834717-.6564331.2490234-1.3035889.5147705-1.9492188.7833252-.9746704.4053955-1.9439087.8198242-2.9153442,1.2304688-.4018555.1699219-.8088379.3325195-1.2125244.4998779-.4037476.1673584-.8041992.3392334-1.1931763.5274658-.4975586.2409668-.986145.494751-1.4718628.7525635-.4857788.2579346-.968689.5196533-1.4550171.7764893-1.4017944.7404785-2.6777954,1.6229248-3.9572754,2.5007324-.4891357.3354492-.9539185.6967773-1.449707,1.0249023-.2980347.1970215-.6056519.3840332-.9121704.5721436s-.6118774.3773193-.9053955.5789795c-.2467651.1696777-.4934082.3393555-.7374878.5117188-.7321777.5168457-1.4407959,1.0561523-2.0581665,1.6809082-.253418.2564697-.522644.5014648-.7871094.7497559-.2644653.2484131-.5241699.5002441-.7871094.7497559-.5889893.5588379-1.1799927,1.1159668-1.7662354,1.677002-.7336426.7017822-1.4591064,1.4099121-2.1967773,2.1086426.0473022-2.3314209.1079102-4.6634521.088623-6.9973145-.0389404-4.7155762.1376343-9.4342041.2595825-14.1503906.0425415-1.6433105-.0291748-3.2912598.2276611-4.9313965.1352539-.8637695.0715942-1.7529297.2045288-2.6311035.1729736-1.1428223.0523682-2.3369141.6345215-3.4017334.0428467-.0782471.0211182-.1921387.0354614-.2884521.1349487-.9072266.3606567-1.7937012.6261597-2.6674805.2438354-.8028564.5310669-1.5916748.7911987-2.3894043.5550537-1.7023926,1.3086548-3.3081055,2.2962646-4.7885742.6015625-.9018555,1.2971191-1.7380371,1.8969727-2.6409912.8356323-1.2580566,1.5280151-2.5946045,1.991333-4.0531006.467041-1.4702148.6652832-2.9949951.9511108-4.5023193.1395264-.7354736.1716309-1.4866943.3196411-2.2242432.0909424-.4527588.0244751-.9364014.0579834-1.4040527.034668-.4840088.1273193-.9641113.1536255-1.4482422.0330811-.6088867-.0422363-1.2182617-.0612793-1.8249512-.0724487-2.310791.1290283-4.6206055.0050049-6.9373779-.1156006-2.1595459.0656738-4.3244629.0084839-6.4929199-.0770874-2.9261475.1113281-5.8582764-.0023804-8.788208-.0095825-.246582.0456543-.5041504-.005127-.7391357-.1914673-.8864746-.0908813-1.7921143-.1973877-2.6854248-.0950928-.796875-.0790405-1.6079102-.1119385-2.4128418-.0010376-.0246582.0049438-.0517578-.0029907-.0737305-.2595825-.7255859-.0671997-1.4931641-.2059937-2.2403564-.1365356-.7351074-.0916138-1.5057373-.1260376-2.2608643-.0022583-.0493164.0161743-.1108398-.0060425-.1463623-.2142944-.3433838-.076416-.7215576-.1104736-1.0821533s-.0877075-.7194824-.117981-1.0803223c-.0466919-.5565186-.0199585-1.1289062-.1431885-1.6658936-.072998-.3179932-.0386353-.6322021-.1090698-.9332275-.1867676-.7984619-.2515869-1.6137695-.3665771-2.4221191-.0914307-.6422119-.1780396-1.2855225-.2860107-1.9248047-.1514282-.8969727-.3222046-1.7902832-.4818115-2.685791-.1218872-.684082-.2381592-1.3691406-.3588257-2.0534668-.137207-.7785645-.2807617-1.5559082-.4138184-2.3352051-.1771851-1.0378418-.3381958-2.0820312-.6716919-3.0800781-.1733398-.5186768-.3429565-1.041748-.6611938-1.5108643-.6638184-.9786377-1.6664429-1.2062988-2.6447754-.5843506-.4054565.2575684-.6303101.6431885-.8744507,1.0239258-.5224609.8149414-.7955933,1.7348633-1.0375366,2.6652832-.1281738.4926758-.241272.989624-.3612061,1.4846191-.1139526-.2805176-.0752563-.5518799-.1085815-.8135986-.1090698-.8580322-.2125244-1.7188721-.3779907-2.5664062-.1842651-.9437256-.4547729-1.8660889-1.0043945-2.6707764-.5940552-.8699951-2.0625-1.1269531-2.9078979-.534668-.7619629.5336914-1.2001343,1.2921143-1.5358276,2.1223145-.4833984,1.1956787-.8582153,2.4289551-1.008667,3.8664551-.0897217-.526123-.1854248-.901001-.2122803-1.2810059-.0681763-.9638672-.2963257-1.8946533-.5336304-2.8210449-.2333984-.9111328-.5682373-1.7836914-1.085083-2.5766602-.513916-.7886963-1.5669556-1.3950195-2.7063599-.7624512-.5961304.3310547-.9736938.8492432-1.2902832,1.4240723-.6148071,1.1162109-1.0480347,2.2958984-1.3354492,3.5551758-.2188721.9588623-.3820801,1.9284668-.583374,2.8892822-.1929321.9210205-.2350464,1.8746338-.3477173,2.8128662-.1487427,1.2385254-.175354,2.4931641-.2312622,3.7419434-.013855.3095703.0837402.6225586.0922852.9350586.0454102,1.6691895-.1241455,3.335083.0266113,5.0109863.1248779,1.3881836-.1074219,2.7924805.0606689,4.1942139.104248.869751-.0575562,1.7530518.081543,2.6392822.1083984.6905518.0158081,1.4071045.0980835,2.1181641.0978394.8447266-.0132446,1.7037354.0930176,2.5634766.1072998.8681641-.0387573,1.7531738.0870972,2.6383057.1091309.767334.0249023,1.5554199.0894165,2.3404541.1121826,1.3653564.0889282,2.7446289.0809326,4.1179199-.0095215,1.630127-.0774536,3.2597656-.0917969,4.8898926-.008728.9936523-.1918945,1.9519043-.4276733,3.005249-.0880737-.1304932-.1470947-.1859131-.1677246-.25354-.2094116-.6872559-.4000854-1.378418-.4486084-2.1031494-.0290527-.4342041-.012085-.8891602-.1391602-1.2940674-.1240234-.3953857-.0693359-.7739258-.0970459-1.1599121-.0293579-.4100342-.0942383-.8179932-.1106567-1.2282715-.0252075-.6325684-.0172729-1.2613525-.0792236-1.8979492-.0965576-.9935303-.0704956-2.0053711-.0837402-3.0061035-.0505371-3.8178711.2739868-7.6342773.086853-11.4558105-.0731812-1.4946289.137085-2.9904785-.0375366-4.4924316-.0931396-.8017578.0274658-1.6279297.0202026-2.442627-.0071411-.8059082-.0583496-1.6113281-.0820312-2.4171143-.03302-1.1259766.0828247-2.2469482-.0463867-3.3814697-.1324463-1.1628418-.0686035-2.348877-.1002808-3.5246582-.0230103-.8544922-.0616455-1.7084961-.0932007-2.5627441-.0009155-.0246582.0059814-.0527344-.0030518-.0736084-.2781982-.6461182-.0753174-1.3427734-.1990356-2.0186768-.1240845-.6779785-.1901855-1.3842773-.2584229-2.078125-.0927124-.9423828-.4827271-1.644043-1.1300049-2.0957031-1.3218994-.3751221-1.9765015.2871094-2.4753418,1.2075195-.2504883.4620361-.4621582.9475098-.6708374,1.4318848-.4841919,1.123291-.8054199,2.2988281-1.0327148,3.5024414-.1251831.6628418-.2515259,1.3278809-.3782959,1.9873047-.0944824.4916992-.0915527,1-.2481079,1.4934082-.1651611.520752-.0811768,1.12146-.2275391,1.6520996-.1202393.4360352-.0593262.8824463-.1763916,1.2958984-.2718506.9599609-.2750244,1.9580078-.4572754,2.9299316-.088623.4727783-.0792236.9613037-.1616211,1.4459229-.1258545.7403564-.0734863,1.5037842-.1998291,2.2591553-.1320801.7894287-.0866089,1.602417-.1865845,2.4089355-.1716309,1.3842773-.2390747,2.7885742-.2532959,4.1853027-.0276489,2.7070312-.2492065,5.411377-.0632324,8.1225586.100647,1.4672852-.1324463,2.9416504.0510864,4.4174805.1049194.8439941-.0092773,1.7026367.0806885,2.5638428.1004639.9613037.1185913,1.9338379.2460327,2.8983154.0857544.6490479.0810547,1.310791.1154175,1.967041.005127.0986328-.0288086.2132568.0091553.2937012.2242432.4750977.1203613.9989014.2201538,1.4960938.1559448.7773438.1269531,1.5938721.2841797,2.3707275.1478271.7304688.2356567,1.4676514.3651123,2.1990967.1084595.612793.2660522,1.21875.3356934,1.8356934.092041.8143311.3814697,1.6035156.296814,2.4404297-.0123291.1220703-.0458374.2766113.0089722.3648682.1876221.3026123.0745239.6248779.105896.9361572.031311.3111572.1182861.6208496.1149902.9304199-.0083008.7817383.2009277,1.5258789.3366699,2.2813721.1182861.6580811.3411865,1.2984619.4312744,1.9592285.1589966,1.1663818.4005127,2.3167725.7025757,3.4447021.7476196,2.791626,1.7953491,5.473877,3.1362305,8.0202637.8516846,1.6171875,1.6323242,3.2636719,2.3347168,4.9516602.1930542.4641113.3887329.928833.5463257,1.4061279.489563,1.4827881.7566528,3.0123291.9434204,4.5655518.0492554.4094238.0075684.8397217.1264648,1.2226562.1690063.5445557.0919189,1.1035156.1990967,1.6523438.1246338.6384277.0377197,1.3188477.1466675,1.9624023.0869141.5133057-.0089722,1.0456543.1206665,1.5227051.1831055.6733398.0516968,1.3505859.1790771,2.0266113.1425781.7563477.0101929,1.5535889.0983276,2.3395996.1002808.8947754-.0001221,1.8035889.0882568,2.7128906.111084,1.1425781.0055542,2.2991943.0615234,3.4541016.0695801,1.4371338.06427,2.8754883.2119751,4.3126221.1098022,1.0683594.1005859,2.1529541.0942993,3.2298584-.0097656,1.6547852-.0407104,3.3101807-.1030884,4.963623-.0339966.9005127-.0351562,1.8013916-.0606079,2.7021484-.3596802.1282959-.7335815.2277832-1.1119995.319458-.116394.0281982-.2346191.0585938-.3536987.0823975-.1191406.0236816-.2391968.0407715-.3594971.0419922-.5748901.0062256-1.1520996-.0219727-1.7283936-.0375977-.0971069-.0026855-.1990967-.0290527-.2907715-.0142822-.7416382.1188965-1.4067993-.0194092-2.0192261-.3187256-.2041626-.0998535-.4024048-.2175293-.5957642-.3493652-.3660889-.25-.6903687-.5319824-.9810181-.8371582-.2906494-.3050537-.5476685-.6334229-.7792358-.9758301-.5911255-.8743896-1.1469727-1.7653809-1.7112427-2.6520996-.1849365-.2905273-.3741455-.579834-.5581055-.8710938-.18396-.2911377-.3626709-.5843506-.5267944-.8828125-.3240967-.5898438-.6367188-1.1838379-.9485474-1.7783203-.3118286-.5943604-.6228638-1.1890869-.9438477-1.7800293-.2072144-.3817139-.4290771-.7580566-.6500854-1.1346436s-.4411011-.75354-.6449585-1.1362305c-.5507812-1.0341797-1.0445557-2.0887451-1.6004639-3.1209717-.0968018-.1798096-.2041016-.3557129-.3066406-.5334473-.3075562-.5332031-.6295776-1.0610352-.9560547-1.5866699-.5081787-.8178711-1.0444336-1.6239014-1.5549316-2.440918-.8575439-1.3723145-1.6621704-2.7652588-2.7200928-4.0488281-.8379517-1.0166016-1.8532715-1.8521729-3.0627441-2.5257568-.5498657-.3062744-1.1574707-.5172119-1.7330933-.7780762-.3022461-.1369629-.6096191-.256958-.9210205-.3638916-.6227417-.2138672-1.2614136-.3759766-1.9066162-.5184326-.3226318-.071167-.6468506-.1375732-.9715576-.2028809-.5870972-.1182861-1.1813965-.0837402-1.7748413-.0864258-.1978149-.0008545-.3955078-.0059814-.5928345-.0220947-.0194092-.0014648-.0397339-.0047607-.0582275-.0019531-.3306885.0501709-.6653442.0854492-.9972534.1306152-.3319702.0454102-.6611938.1008301-.9812012.1914062-.3848267.1091309-.7666016.2244873-1.1340942.3632812-.1837769.0693359-.3640137.1445312-.5393066.2277832-.175293.0831299-.3456421.1741943-.5097656.2753906-.2698364.1665039-.5253906.3444824-.7681885.5324707-.7284546.564209-1.3424072,1.2197266-1.8852539,1.9337158-.385376.5068359-.7307129,1.0319824-1.0489502,1.5693359-.1591187.2686768-.3114624.5404053-.4586792.8145752s-.2892456.5505371-.4277954.8286133c-.2616577.5249023-.5219116,1.0505371-.7982788,1.5690918-.2764282.5185547-.5689697,1.0300293-.8955078,1.5268555-.7695923,1.1708984-1.6772461,2.2553711-2.6778564,3.2894287-.7867432.8131104-1.5776978,1.6225586-2.4398193,2.3746338-.4093018.3569336-.8331299.7019043-1.2630615,1.041748s-.8660889.6743164-1.2999268,1.0102539c-.2373047.1838379-.4576416.3797607-.6697998.5817871-.2121582.2021484-.4161377.4104004-.6209717.6191406-.2971191.3026123-.5812988.6125488-.8544922.928833s-.5351562.6391602-.7874756.9676514c-.5047607.6569824-.9708252,1.3365479-1.4112549,2.0324707-.6794434,1.0739746-1.2991943,2.1721191-1.831543,3.3074951-.3581543.7640381-.6813965,1.5394287-.9155273,2.3463135-.0366211.1262207-.0584717.2541504-.0814209.3811035-.0229492.1271973-.0469971.253418-.0878906.3764648-.0693359.2084961-.1373291.416748-.1912842.6280518-.0541992.2113037-.0942383.425415-.1079102.6453857-.020752.3300781-.0488281.659668-.0778809.9892578-.0959473,1.0905762-.1254883,2.1833496.1491699,3.2734375.0551758.2189941.1143799.4370117.1801758.6535645.1318359.4331055.2901611.8598633.4963379,1.2739258.1030273.2069092.2180176.4106445.3475342.6103516.4199219.6473389.8587646,1.2839355,1.4337158,1.8361816.1916504.184082.3984375.3588867.6247559.5214844.5063477.3638916.9876709.7591553,1.5262451,1.0827637.9832764.5910645,1.9952393,1.1464844,3.0050049,1.7034912.6279297.3465576,1.2197266.7265625,1.7781982,1.1403809s1.0838623.8613281,1.5793457,1.3426514c.2091675.2032471.3893433.4150391.5446167.6342773.3106079.4383545.5215454.90625.6651611,1.3939209.0717773.2437744.12677.4925537.1689453.7449951.0632935.3789062.1018066.7602539.1303711,1.1420898.0285034.381958.0469971.7645264.0701294,1.1461182.0237427.3918457.0031738.7828369.0247803,1.177002.0410156.7489014.1586914,1.4830322.3311157,2.2215576.0498657.213501.1066895.4239502.1709595.6308594.1286011.4140625.2871704.8144531.4800415,1.199707.2893677.5776367.6558228,1.1208496,1.114502,1.623291.3057251.3349609.6524658.6518555,1.0443726.9489746.4355469.3300781.9100952.6126709,1.4157715.8566895.1685791.0812988.3267822.1755371.5065308.2429199.3516235.1318359.6986084.269043,1.0528564.3898926.354187.1208496.7155762.2253418,1.0957642.2922363.1355591.0239258.2697144.0581055.4042358.0888672.4036255.0924072.8059692.1950684,1.2216797.2233887.3264771.0222168.6513062.0533447.977478.0754395.3261108.0219727.6535034.0349121.9848633.0209961.6994019-.0297852,1.3937988-.0617676,2.0869141-.1379395.8015137-.0881348,1.5769653-.236084,2.3284912-.440918.7514648-.2045898,1.4790039-.4658203,2.1845093-.7801514.4252319-.1893311.8446655-.3862305,1.2536011-.5975342s.807373-.4371338,1.1906128-.6845703c.3676758-.2373047.7504272-.458252,1.1312866-.6811523s.7597656-.4477539,1.1195068-.6928711c1.0496216-.7148438,2.0800171-1.4506836,2.977356-2.3125.2993164-.2875977.6116333-.5649414.9276733-.8397217.315979-.2746582.6356812-.5465088.949585-.822876.7978516-.7019043,1.5955811-1.4040527,2.3945312-2.1049805.2493896-.21875.5077515-.4301758.7530518-.6522217.630127-.5701904,1.2531128-1.1461182,1.8845825-1.71521.1026611-.0925293.234314-.161499.3862305-.2640381-.1865234.4630127-.3740845.9090576-.5540771,1.3487549-.1799927.4399414-.352417.8735352-.508728,1.3120117-.1491699.4182129-.2817383.8415527-.4094849,1.2661133-.1277466.4246826-.2506714.850708-.3807373,1.2746582-.1698608.5537109-.4031982,1.081543-.6853638,1.5881348-.2821655.5063477-.6131592.991333-.9783936,1.4591064-1.0439453,1.336792-2.3120728,2.5163574-3.6769409,3.6132812-.9189453.7385254-1.7860718,1.5158691-2.6509399,2.2988281-.7528687.6816406-1.414856,1.4202881-2.0293579,2.1893311-.204834.2564697-.4044189.5162354-.6002808.7785645-.3098755.4147949-.6036377.8371582-.8831787,1.2658691-.5591431.857666-1.0614624,1.7412109-1.5229492,2.6433105-.2307739.4509277-.4512939.9066162-.6635742,1.3659668-.0952759.2060547-.1845093.4138184-.27771.6203613-.2797241.6196289-.5471802,1.2426758-.7355347,1.8959961-.0992432.3442383-.197876.6867676-.2810059,1.0322266-.0831909.345459-.1508789.6938477-.1883545,1.050293-.0202637.1923828-.0180054.3856201-.026001.5783691-.0080566.1928711-.0263672.385498-.026001.5786133.0007324.3861084.0144653.7727051.0258789,1.1591797.008606.2913818.0476074.5837402.0866089.8748779.0667725.4989014.151123.9969482.2156982,1.4959717.0606689.4685059.0689697.9422607.1661377,1.4060059.059082.2821045.0959473.5650635.1235962.8479004s.0460815.5654297.0681763.8469238c.0512085.6508789.0822144,1.3050537.1046143,1.9569092.024292.7059326-.0068359,1.4144287-.0326538,2.1175537-.0562744,1.5307617-.0912476,3.067627-.3922119,4.5762939-.0925293.4639893-.1105957.9429932-.2300415,1.4000244-.0636597.2435303-.1276855.4865723-.1836548.730957-.0560303.2443848-.1040039.4902344-.1358032.7397461-.0081787.0639648-.0278931.1265869-.0441895.1894531-.0894165.3435059-.1889648.6850586-.2664795,1.0310059-.0586548.2617188-.090271.5310059-.152771.7900391-.020874.0861816-.0314331.1760254-.0658569.2578125-.050293.1196289-.0706787.2399902-.0869751.3596191-.0163574.1196289-.0286865.2385254-.0631714.3549805-.0410156.1386719-.0900879.2753906-.1379395.4123535-.0479126.1369629-.0946655.2739258-.1312866.4135742-.0390625.1489258-.0650024.3010254-.0934448.4523926-.0285034.1513672-.0595703.3022461-.0934448.4523926-.0319214.1417236-.071228.2819824-.1071777.4228516s-.0685425.2824707-.1071777.4228516c-.0770264.2792969-.1774902.5537109-.2440796.835083-.1268311.5357666-.2230835,1.0782471-.3577881,1.6121826-.1298828.5148926-.3113403,1.0187988-.4350586,1.5349121-.1245117.5195312-.2023315,1.0479736-.3305054,1.5686035-.1325073.5383301-.190979,1.095459-.2387085,1.6486816-.0852051.9884033-.1381836,1.9799805-.2041016,2.9702148-.0043945.06604-.0185547.1345215-.0263672.201416-.0039062.0335693.0045776.0644531.0058594.0968018s-.0046387.0662842.0058594.0968018c.0465088.1341553.0639648.2685547.0672607.4029541.0098267.4031982-.1082153.8065186.0437622,1.206543-.036499.7266846-.1115112,1.4508057-.1156006,2.1796875-.0014038.243042.005127.4864502.0235596.730835.0053101.0700684-.0010986.1403809-.0022583.2104492-.0022583.1405029-.0083618.2807617-.0227051.4211426-.0072021.0700684-.0136108.1403809-.0204468.2104492-.0149536.1533203-.0177002.3050537-.0085449.4550781.0182495.3000488.0840454.5931396.1947021.8786621.0552979.1428223.1218872.2838135.1994019.4228516.1469727.098999.2842407.1914062.4336548.2922363.12854.0109863.2642822.0227051.4000244.0343018.1530762.0131836.3061523.0262451.4229736.0362549.5931396-.3981934,1.1615601-.8143311,1.7121582-1.2438965,1.6517334-1.2883301,3.1431274-2.6967773,4.6606445-4.1025391.4815063.869751.9248047,1.7270508,1.4262085,2.5604248.5139771.8543701,1.0571899,1.697998,1.7161255,2.4855957.4434814.5300293.8660889,1.0723877,1.3009033,1.6075439.289978.3568115.5841064.7111816.8739624,1.0682373.2897949.3570557.5753784.7165527.8739624,1.0682373.5194092.6120605,1.0562134,1.2143555,1.6097412,1.8046875.9515991,1.0148926,1.960083,1.9925537,3.1012573,2.8538818,1.2414551.9370117,2.6426392,1.6739502,4.12323,2.300293.2418213.1022949.4888306.1907959.7329712.2866211.0053101,1.0714111.0097656,2.1427002.0136108,3.2142334.0014038.3950195-.0932617.8125.0011597,1.1806641.1776123.692627.0586548,1.3986816.2022095,2.0947266.1640625.7954102.2015381,1.6206055.4052734,2.411377.2746582,1.0664062.5241699,2.1424561,1.0753784,3.1114502.8549194,1.5030518,1.6757812,3.0269775,2.5516357,4.5169678.6335449,1.0778809,1.2524414,2.1602783,1.7720947,3.3012695.1494141.3278809.3132935.6501465.4890137.9641113.5741577,1.0258789,1.1409302,2.0541992,1.6057739,3.1398926.1793213.4189453.3890381.8360596.6528931,1.2026367.9712524,1.3493652,2.958252,2.1982422,4.7399902,1.6424561.9829712-.3065186,1.9414062-.6959229,2.911438-1.0462646.5688477-.2055664,1.0913696-.5250244,1.4882812-.9667969.6074829-.6762695,1.1582642-1.4088135,1.5883789-2.2290039.4238892-.8085938.7575684-1.6534424,1.057373-2.5146484.4003906-1.1503906.7599487-2.310791,1.0336304-3.5031738.175354-.7644043.3804932-1.5435791.8250122-2.2070312.4553223-.6795654.918335-1.3574219,1.4273682-1.994751.7399292-.9263916,1.3230591-1.942749,1.7399902-3.0515137.3527832-.9381104.6813965-1.8841553.8638306-2.8857422.0701294-.385376.076416-.7714844.1489258-1.1505127.1610718-.8417969.2753906-1.6890869.30896-2.5454102.2410889-.1469727.4818726-.2944336.7260132-.4377441.9138794-.5368652,1.8273315-1.0744629,2.7531738-1.5964355.4649658-.262207.9298096-.5246582,1.3823853-.8005371.4525757-.276001.8928833-.5654297,1.3085938-.8818359.9737549-.7409668,1.9224854-1.5057373,2.8847656-2.2575684.628418-.4910889,1.2509155-.9880371,1.8953857-1.463501.8011475-.5911865,1.5927734-1.1887207,2.3046875-1.8598633.2581177-.2432861.5283203-.4779053.7940674-.7154541s.5270996-.4782715.7675171-.7336426c.3848267-.4086914.7548218-.8275146,1.1223145-1.248291.3674316-.4206543.7324219-.8432617,1.1069336-1.2590332.460022-.5109863.8972778-1.0354004,1.3198853-1.5686035.4225464-.5332031.8305054-1.0751953,1.2317505-1.6208496.3908081-.53125.7649536-1.0717773,1.144043-1.6097412.3790894-.5378418.7631226-1.072998,1.144043-1.6097412.1516724-.2138672.3077393-.4251709.4749146-.6556396.1439819.0950928.269165.1694336.3828735.2550049.1327515.0998535.2474976.2178955.3839722.3133545,1.2155762.8503418,2.3071289,1.8114014,3.40802,2.7652588.4661255.4038086.9619141.7839355,1.4599609,1.1594238.3179932.2397461.6450806.46875.9786987.6901855.3335571.2214355.673645.4353027,1.0176392.6442871.6879272.4182129,1.3915405.817627,2.0899048,1.2226562.5013428.2907715.9755249.6096191,1.4376831.9406738s.9122925.6740723,1.3655396,1.0134277c.3959351.2965088.7800293.6046143,1.1725464.9057617.3925171.3012695.793457.5955811,1.2232056.864502.4689331.003418.9586182.1898193,1.3967285-.0541992.1522827-.1635742.2595215-.3300781.2511597-.5233154-.0028076-.0643311-.0184326-.1317139-.0495605-.2030029-.026001-.0595703-.0352173-.1295166-.0288696-.1921387.0562134-.5554199-.0569458-1.1062012-.1139526-1.6605225-.0475464-.4627686-.1164551-.9217529-.2054443-1.378418-.0890503-.456665-.1981812-.9112549-.3264771-1.3653564-.1430664-.5065918-.2646484-1.0168457-.3878784-1.5268555s-.2481079-1.0195312-.3977661-1.5247803c-.4212646-1.4222412-.8902588-2.8354492-1.288208-4.2626953-.2385864-.8555908-.5649414-1.6964111-.8546143-2.5432129-.1769409-.517334-.3140869-1.0474854-.5479126-1.5474854-.2957764-.6325684-.5951538-1.2636719-.8861694-1.8974609s-.5736694-1.2700195-.8360596-1.9125977c-.1953125-.4782715-.4024658-.9537354-.6065063-1.4299316-.2040405-.4760742-.4049072-.953125-.5877075-1.4344482-.5761108-1.5170898-1.1361694-3.0385742-1.567688-4.5876465-.3604126-1.2938232-.7921753-2.5726318-1.2602539-3.8460693-.4407959-1.1992188-.8831177-2.3964844-1.4191895-3.5699463-.4547119-.9952393-.9366455-1.9821777-1.4099731-2.9718018-.3566895-.7458496-.722229-1.4890137-1.0827637-2.2336426s-.7160645-1.4907227-1.0528564-2.2424316c-.6212158-1.3864746-1.3570557-2.7258301-2.1779785-4.0378418-.6204834-.9914551-1.2277832-1.9887695-1.8330688-2.9866943-.4091187-.6744385-.7860718-1.3625488-1.2105713-2.0301514-.6102295-.9597168-1.2572632-1.9034424-1.8765259-2.859375-.7503052-1.1582031-1.4711304-2.3295898-2.2365723-3.4807129-.5939941-.8933105-1.230835-1.7670898-1.8596191-2.644043-.741333-1.0340576-1.4971313-2.060791-2.2415161-3.0933838-.3001709-.4163818-.6283569-.81604-.958374-1.215332-.1100464-.1330566-.2194214-.2663574-.3291016-.3997803-.3622437-.4404297-.7324829-.8752441-1.1144409-1.302124s-.7756958-.8458252-1.1851196-1.2546387c-.5390015-.5383301-1.1032104-1.0601807-1.6834717-1.5667725-.4918823-.4291992-.9946899-.8566895-1.5426025-1.2304688-.2964478-.2022705-.5883179-.4082031-.8742065-.6188965-.8577271-.6325684-1.6618652-1.3098145-2.3765869-2.0703125-.4591675-.4885254-.956543-.9515381-1.4389038-1.4244385-.1036377-.1016846-.2162476-.1966553-.3261719-.293457-.2694092-.2374268-.5396118-.4743652-.8838501-.7767334.3464966.0853271.6657104.1616211.97052.2359619.3047485.0743408.5951538.1466064.8837891.2242432.3807983.1021729.7527466.2321777,1.1275635.3525391,1.3239746.4251709,2.5628052,1.0056152,3.7974243,1.5922852.4115601.1955566.8226318.3916016,1.2362061.5830078.2833252.1311035.5704346.2548828.8555298.3825684.5701294.255249,1.145874.4995117,1.7261353.7346191.2901001.1174316.5772095.2412109.8706055.3520508,1.90448.7202148,3.8234863,1.4106445,5.7462158,2.0914307,1.3772583.4876709,2.7870483.8902588,4.2052002,1.2752686.246582.0668945.4952393.1252441.7429199.1875.743103.1870117,1.4888916.3620605,2.2345581.5351562.4093018.0950928.8243408.1699219,1.2414551.2364502.4170532.0665283.8361816.1248779,1.253479.1870117.7639771.1138916,1.5310669.2108154,2.2987671.2950439.6778564.0742188,1.3580322.1333008,2.0379639.1760254.3462524.0216064.6929321.0302734,1.0394897.0428467.3464966.0125732.6929321.0291748,1.0394287.0428467.3756104.0150146.7511597.0301514,1.12677.045166.3755493.0151367.7511597.0300293,1.126709.045166.0388794.0014648.0865479.0170898.1152954.0039062.1928711-.0883789.3952637-.0550537.5966187-.0344238.0670776.0068359.1340942.0123291.2005615.0114746.28479-.0039062.5688477-.0195312.8536377-.0238037.3811035-.0057373.765686.0150146,1.1432495-.0123291.7299194-.0529785,1.4544067-.1417236,2.184021-.1970215.543457-.0412598,1.0799561-.1035156,1.6113281-.1866455s1.0576172-.1872559,1.5805054-.3123779c.868042-.2075195,1.6766968-.4904785,2.4152832-.8657227.7385254-.3752441,1.4069214-.8428955,1.9942017-1.4199219.3536987-.3474121.7169189-.7036133.9712524-1.1065674.2415161-.3825684.4614258-.7734375.6426392-1.1793213.1811523-.4058838.3236084-.8267822.4100952-1.269165.0272217-.1390381.0603638-.277832.0946045-.416626.1026611-.4160156.2149048-.8319092.204834-1.2546387-.0028687-.1206055-.008606-.2424316-.0124512-.3636475Zm-52.1130981-16.3752441c.8406372-.6236572,1.8342896-1.0906982,2.5817261-1.809082.0752563-.0723877.1679688-.1312256.2525024-.1965332.7440796-.574585,1.507019-1.1326904,2.2272949-1.7281494.8231201-.6804199,1.6072388-1.3952637,2.4111938-2.0927734.1196899-.1037598.2539062-.1955566.3840332-.2902832.7955322-.5788574,1.5969238-1.1520996,2.3866577-1.7368164.8445435-.6251221,1.6660767-1.2729492,2.5202026-1.8884277.8687134-.6259766,1.7399292-1.2528076,2.6557617-1.8275146,1.0132446-.6357422,2.0717163-1.2211914,3.1228027-1.8131104,1.1117554-.6262207,2.2245483-1.2523193,3.3613281-1.8457031,1.3539429-.7067871,2.7402344-1.3676758,4.2001343-1.918457,1.0759277-.4058838,2.1679077-.7746582,3.3117676-1.0325928.9546509-.21521,1.9158325-.4001465,2.9161987-.4586182.850769-.0495605,1.7019653-.0673828,2.5543823-.0914307,1.2143555-.0343018,2.4226074-.003418,3.6291504.1395264,1.2942505.1533203,2.4750977.5666504,3.4418335,1.3815918.0825195.0695801.1859741.1206055.2731323.1865234.0733643.0556641.137146.1206055.2032471.1796875.098938.8764648-.3138428,1.567627-.729126,2.2454834-.2667847.4354248-.5779419.854248-.9684448,1.2258301-.164917.1568604-.3248901.2958984-.5353394.4105225-.2000122.1088867-.3498535.28125-.526123.421875-.925354.7373047-1.8933716,1.4396973-2.7662354,2.2199707-.8049927.7194824-1.7505493,1.2849121-2.6690674,1.8743896-1.0165405.6522217-2.1171875,1.213623-3.2004395,1.7894287-1.590271.8450928-3.1757812,1.6989746-4.8040771,2.4910889-1.491333.7254639-3.0269165,1.3895264-4.5611572,2.0518799-1.4830322.6403809-2.9851685,1.2507324-4.4869995,1.8605957-.6738892.2738037-1.3654175.5183105-2.0524902.7694092-.7232056.2642822-1.4378052.548584-2.1791382.7745361-1.3330078.40625-2.678833.7886963-4.0654297,1.0620117-1.2520142.2467041-2.5176392.4505615-3.7697754.6967773-1.0012207.1970215-2.0272217.2807617-3.0410767.4193115-.1271362.017334-.2670288-.019165-.401062-.0306396-.6481323-1.1037598-1.4141846-2.1276855-2.4274292-3.0264893.2650757-.1439209.5338745-.253418.750061-.4138184Zm-1.5884399,1.7542725c.5592041.4602051,1.0637207.9542236,1.5383911,1.4696045.3643188.3956299.5114136.8839111.6574097,1.3621826.2240601.7340088.2138062,1.4755859.0709229,2.1934814-.1499634.7536621-.4044189,1.4903564-.7789917,2.1864014-.4376221.8132324-1.0231934,1.5423584-1.6491089,2.2453613-.1275024.1430664-.2544556.2866211-.3845825.4279785-.6536865.7099609-1.5,1.2138672-2.4416504,1.6057129-.1853027.0771484-.3685913.1567383-.5610962.2252197-.8792114.3128662-1.7576294.6201172-2.7164307.7437744-.578125.0744629-1.1546021.1955566-1.7473145.0991211-.5806274-.0943604-1.1538696-.2109375-1.6851196-.4836426-.0413208-.0211182-.0811157-.0446777-.1221924-.0661621-.3718872-.1933594-.7363281-.3945312-1.0869751-.6601562.4084473-.8681641.7853394-1.7241211,1.005249-2.6357422.1452026-.6022949.2739868-1.2025146.3675537-1.8143311.0513916-.3365479.1557007-.6712646.1447754-1.0131836-.0289307-.9108887.0510864-1.8331299-.1809082-2.7304688-.2915649-1.1278076-.6928711-2.2407227-1.4121094-3.2554932-.0698242-.0983887-.1239014-.2045898-.1843262-.3056641.7641602-.2543945,1.5193481-.519043,2.2856445-.7578125.1304321-.0407715.2588501-.0864258.3901978-.125.8268433-.2429199,1.6835327-.385498,2.579895-.425293.5841675-.0258789,1.1592407-.0043945,1.7262573.0771484.2642822.0379639.5205078.0925293.7780151.1445312,1.0925293.220459,2.1120605.5947266,3.0127563,1.2248535.1303101.0911865.2687988.1647949.3937378.2675781Zm-1.1278687-40.8046875c-.2312012.583252-.2965698,1.2069092-.4589233,1.8057861-.2141724.7900391-.2509155,1.612793-.4602051,2.4056396-.1096191.4152832-.0561523.8607178-.1728516,1.296875-.1425171.5324707-.1286011,1.1070557-.2084961,1.6594238-.0896606.619873-.2086792,1.2352295-.3143921,1.8526611-.0041504.0240479-.0020752.0491943-.0038452.0738525-.0726929,1.0004883-.1096191,2.005249-.2250366,3.0004883-.3413696,2.9442139-.2346802,5.9036865-.3265991,8.855835-.0922852,2.9622803-.1765747,5.927002-.1547241,8.8896484.0095825,1.298584-.0448608,2.6062012.0545654,3.897583.0968628,1.2570801.0671387,2.5112305.0300903,3.7646484-.4213867-.0939941-.8411865-.1950684-1.2639771-.288208-.7993164-.1761475-1.5858154-.2462158-2.395813-.1959229-.5809937.0361328-1.1498413.111084-1.7109375.2116699-.3034058.0543213-.6046753.1153564-.9039307.1837158.2992554-.0683594.6005249-.1295166.9039307-.1838379.010437-.8624268.0119019-1.7242432.1063843-2.5797119.2442017-2.2097168.1578369-4.4248047.2417603-6.6362305.0286255-.7543945-.05896-1.5126953-.0581665-2.269043.0004272-.4597168.0090942-.9156494.1167603-1.3808594.0883789-.3820801.1226807-.8195801-.0362549-1.2341309-.0654907-.1708984-.0161743-.3884277-.0184326-.5847168-.0195312-1.6945801.0202026-3.3930664-.0830688-5.0822754-.0524292-.8583984.0426025-1.7255859-.0866089-2.5626221-.1078491-.6986084.000061-1.4024658-.18396-2.0980225-.1340332-.5065918-.086792-1.0615234-.144165-1.5922852-.0568237-.5257568-.1502075-1.0472412-.2149048-1.5722656-.059082-.4797363-.0944824-.9626465-.1523438-1.4425049-.1102295-.914917-.1598511-1.8370361-.2579956-2.7503662-.1589355-1.4794922-.371582-2.958252-.7401123-4.4050293-.0926514-.3635254-.163269-.7330322-.2495117-1.1247559,3.3217773,1.7978516,6.4632568,1.362793,9.5717163-.7453613-.0786133.3369141-.1074219.5969238-.1999512.8303223Zm-11.5006104-5.4125977c-.4329834-.6693115-1.0196533-1.2331543-1.5299072-1.8510742-.4160767-.5040283-.8953857-.9750977-1.2091064-1.5408936-.4608765-.8311768-.8764038-1.6989746-1.1311646-2.6322021-.6231079-2.2822266-1.2588501-4.560791-1.8740845-6.8452148-.3603516-1.3377686-.7160645-2.6779785-1.0248413-4.0288086-.1546021-.6765137-.1755981-1.3840332-.2998657-2.0693359-.1635132-.9014893-.1376343-1.8242188-.3432007-2.7230225-.1123657-.4915771-.09729-1.0140381-.1373291-1.5228271-.0418701-.532959-.0643921-1.0684814-.1287231-1.5986328-.0283813-.2336426-.1252441-.4626465-.2150879-.6833496-.1827393-.4488525-.300415-.9050293-.3084106-1.3979492-.0058594-.3603516-.0786743-.7192383-.1132812-1.0795898-.0322876-.3358154.1004028-.6896973-.1096191-1.0073242-.0230103-.03479-.007019-.0966797-.0088501-.1459961-.0314941-.8538818-.0087891-1.7144775-.1080322-2.5598145-.12677-1.0793457.026123-2.1650391-.0923462-3.2285156-.131897-1.184082.0012207-2.3549805-.0407104-3.5300293-.1134033-3.1772461-.019104-6.3532715.069397-9.5288086.0396118-1.421875.086731-2.8503418.2597656-4.2592773.1021118-.8312988.0157471-1.6824951.1974487-2.4798584.1916504-.8413086-.0124512-1.7130127.2991333-2.5280762.0498047-.130249.0200195-.2935791.0217896-.4417725.0097656-.8286133.1602173-1.635498.3270264-2.4436035.1025391-.4968262.1241455-1.0107422.1947021-1.5151367.039978-.2851562.1151123-.5651855.1566772-.8503418.041626-.2855225.03479-.5644531.1322632-.857666.133728-.4025879.0774536-.8553467.1848755-1.2915039.1838379-.7462158.2094116-1.5323486.3787231-2.2834473.1674194-.7429199.4304199-1.4633789.6895142-2.3190918.0947266.2497559.1943359.3931885.1969604.5385742.0158081.8745117.0770874,1.743042.2354736,2.6031494.0043945.0239258.0010986.0493164.0018921.0739746.0291138.953125.0596924,1.9061279.0872192,2.859375.0296631,1.0269775-.0231323,2.0648193.1072998,3.0778809.1270752.9862061.0042114,1.9605713.0603638,2.9365234.0847168,1.4724121-.0161743,2.9517822.0819092,4.414917.0875854,1.3061523-.0244141,2.6013184.0296021,3.8991699.1796265,4.3146973-.1431885,8.6245117-.1092529,12.9364014.0076904.9754639-.0112915,1.9630127.0827026,2.9329834.0615845.6362305-.0305786,1.2901611.1066284,1.8918457.1427612.6264648.0716553,1.2523193.1699829,1.8764648.1079102.6849365.1712646,1.385498.2897949,2.0754395.168335.9799805.4517212,1.9173584.9984741,2.7478027.2852783.4331055.6855469.744873,1.2947388.9914551.102478.0021973.3426514-.0037842.5810547.0144043.805603.0615234,1.3873901-.3555908,1.8099976-.9814453.4298706-.6365967.6369629-1.3833008.7948608-2.1420898.3102417-1.4907227.371521-3.0009766.3848877-4.517334.0072021-.8149414.0488281-1.6297607.0460205-2.4445801-.005188-1.4970703.0441284-3.0004883-.0762329-4.4886475-.0795898-.984375.027771-1.9645996-.0703125-2.9346924-.1066895-1.0559082.0134277-2.1136475-.0860596-3.1563721-.0773926-.8106689-.0448608-1.6123047-.0709839-2.4176025-.0133057-.4106445-.0785522-.8189697-.109436-1.229248-.0290527-.3857422.0941772-.7841797-.1030273-1.1572266-.0305786-.0578613-.0071411-.1459961-.0081177-.2199707-.019165-1.4719238-.0315552-2.9440918-.0598145-4.4157715-.017334-.9041748.0114136-1.8183594-.1151733-2.7078857-.0806885-.5665283-.0808716-1.1193848-.0717773-1.6776123.0263672-1.6210938-.1785278-3.2392578-.0405884-4.861084.0703735-.8275146.0667114-1.6680908.21521-2.4801025.1351318-.7393799.1675415-1.4888916.3130493-2.223999.3168335-1.6000977.574585-3.2182617,1.4096069-4.6533203.031189-.0535889.0830688-.0944824.1931763-.2163086.1809692.6062012.3702393,1.1340332.4927979,1.6774902.1577148.699585.2763672,1.4095459.3840332,2.1193848.0689087.4538574.0819702.9163818.1309814,1.3737793.0307007.2866211.0925293.5697021.1206055.8564453.0281982.2875977-.0734863.5915527.1149292.8591309.0233765.0332031.0057373.0965576.0075684.145874.0316772.8540039.0092163,1.7147217.109314,2.5601807.1161499.980957-.017395,1.9675293.0935059,2.9331055.1500244,1.3061523-.0375977,2.6046143.0484009,3.9000244.1537476,2.3143311-.0905762,4.6289062.0161133,6.9355469.069458,1.5018311-.0661621,3.0001221.0375977,4.4914551.1646118,2.3658447-.0479126,4.7242432-.0274048,7.0858154.0100098,1.1513672-.0066528,2.3068848.085022,3.4523926.1055908,1.3197021.2521362,2.6437988.50354,3.9406738.208313,1.074585.4941406,2.1508789.982605,3.1376953.18927.3824463.4777832.7451172.800415,1.0184326.4866333.4122314,1.7402344.4910889,2.2832642-.4150391.2328491-.3885498.385437-.81604.4818726-1.2728271.2889404-1.3693848.359375-2.7550049.3815308-4.1484375.0338745-2.1239014.1394043-4.2487793.0970459-6.3706055-.0205688-1.0268555.019043-2.0632324-.081543-3.0808105-.072876-.7368164.0425415-1.4838867-.0941772-2.19104-.1781006-.9212646.085083-1.8585205-.1904297-2.760376-.0137329-.045166-.0015259-.0983887-.0033569-.1477051-.0322876-.8540039.0317993-1.7277832-.1277466-2.5559082-.1303101-.6760254-.0150757-1.3498535-.1808472-2.0244141-.1538086-.6260986-.0941772-1.3063965-.1382446-1.9622803-.0292358-.4349365-.0835571-.868042-.1123047-1.3029785-.0287476-.4351807.0968628-.8824463-.1044312-1.3043213-.019165-.0401611-.0037231-.0976562-.0047607-.1469727-.0255737-1.1755371-.0029297-2.3548584-.0897827-3.5255127-.0946655-1.2767334-.0890503-2.5501709-.0388184-3.8243408.0366211-.9282227.0732422-1.8632812.2129517-2.7788086.1700439-1.1140137.289917-2.2427979.6296997-3.3250732.1212158-.3861084.2421875-.7720947.4177246-1.3317871.1143799.8577881.2052002,1.5426025.2972412,2.2271729.1217651.90625.2444458,1.8125.366333,2.71875.0032959.0244141.0014648.0493164.0023804.0739746.0325928.8294678-.012146,1.671875.1177368,2.4848633.1586914.9937744-.0110474,1.9926758.1728516,2.9858398.1055908.5703125-.0308228,1.1832275.0004272,1.7736816.2061157,3.8948975-.072876,7.784668-.119751,11.6767578-.0469971,3.9018555-.1723633,7.8028564-.2337036,11.704834-.0128784.8190918.0783691,1.640625.2056885,2.4569092.0627441.4019775.0908813.8182373.1218262,1.2253418.0715332.9415283.2910767,1.8519287.444397,2.7757568.0388184.2338867.1488647.4555664.185791.6894531.0962524.609375.4443359,1.0048828.9998169,1.2785645.2042847.0042725.4445801.0095215.7334595.015625.5289307-.197998.8850098-.5725098,1.0682373-1.1984863.2103882-.7185059.3692627-1.4389648.4541016-2.180542.0551758-.4818115.1220703-.9622803.1729126-1.4447021.0484009-.4584961-.0430298-.9300537.1567993-1.3765869.0557251-.1245117.0203247-.2926025.0235596-.4407959.0620728-2.8890381.1956787-5.7792969.1561279-8.666748-.020874-1.5224609.0755005-3.0517578-.0443726-4.5637207-.1152954-1.4547119.0462646-2.8999023-.0356445-4.3442383-.1942139-3.4265137.0673218-6.8469238.1004639-10.2700195.0092773-.9516602.0753174-1.911377.2185059-2.8509521.1277466-.838623.1717529-1.6873779.3277588-2.5189209.1452026-.7739258.3453369-1.5371094.5394287-2.3840332.1068115.109375.2039185.1608887.2130127.2255859.1107178.7841797.230896,1.5656738.3683472,2.3461914.1121216.6364746.1734619,1.2871094.2755127,1.9299316.1576538.9941406.2800903,1.9924316.500061,2.9772949.1409302.6311035.1728516,1.2871094.2728882,1.9289551.1069946.6862793.2338867,1.3693848.3573608,2.0527344.0686646.380249.0036621.7629395.1247559,1.1546631.1324463.4281006.0366821.9282227.1564331,1.3634033.1502686.5457764-.0128174,1.1217041.2147827,1.6474609.0182495.0422363.012146.0961914.0140991.1450195.0325317.829834.0690308,1.6594238.0957031,2.489502.03302,1.0270996.0064697,2.0598145.1064453,3.0795898.0549927.5612793.0239868,1.1254883.0996094,1.6748047.0942383.684082-.0098877,1.3847656.1164551,2.0406494.149231.7747803-.0144653,1.552124.1759033,2.3223877.1085815.439209-.0280762.9360352.0084229,1.4016113.1367798,1.7441406-.0348511,3.4937744.0633545,5.230957.0836182,1.4785156-.0703125,2.9511719.0301514,4.4180908.0891724,1.302124-.0309448,2.6070557.0767212,3.8963623.1213989,1.4547119-.0023193,2.8977051.0174561,4.345459.0214233,1.5706787-.0099487,3.1439209.0718994,4.7109375.0317383.6081543.0974121,1.2156982.0640259,1.8242188-.046936.8537598-.0614624,1.7180176-.213623,2.5543213-.1065063.5853271-.0834351,1.168335-.1634521,1.7452393-.1914062,1.3800049-.3612061,2.7712402-.8457642,4.0845947-.5174561,1.40271-1.1838379,2.7288818-2.0631714,3.9390869-.6501465.8946533-1.256897,1.8225098-1.90802,2.7165527-.2886963.3962402-.6691284.7230225-.9532471,1.1223145-.2868652.4029541-.6083374.7456055-1.0214233,1.0080566-.0917969.0583496-.1395874.1894531-.2258301.3132324-.7373047-.0776367-1.4053345.2640381-2.086853.5046387-1.2639771.4462891-2.5470581.7827148-3.8637695,1.0257568-1.8533325.342041-3.3193359-.3656006-4.6204834-1.6170654-.1578369-.1518555-.2766113-.364502-.4574585-.4699707-.68573-.3999023-1.0576172-1.0517578-1.4772339-1.7004395Zm-32.2095947,17.479248c.9671631-.1430664,1.9564819-.1087646,2.9208374.0649414.7932739.1429443,1.5812378.3491211,2.3303223.666626.6382446.2706299,1.2755737.5393066,1.8684082.8780518.7664185.4379883,1.4846191.9326172,2.0386963,1.5705566.4659424.536377.9049072,1.0900879,1.3383789,1.6456299.9920044,1.2712402,1.8746338,2.5970459,2.7843018,3.9093018.7609253,1.0976562,1.526001,2.1936035,2.2565308,3.3051758.4255981.647583.7837524,1.3254395,1.1777344,1.9875488.4729004.7946777.9551392,1.5854492,1.4265137,2.3807373.3493652.5893555.6972656,1.1795654,1.0291138,1.7755127.7299805,1.3112793,1.4883423,2.6105957,2.3256836,3.8778076.6861572,1.0384521,1.3675537,2.0792236,2.0570679,3.1160889.5794067.8713379,1.3864136,1.5712891,2.3461914,2.1346436.6082764.3570557,1.2831421.6009521,2.0185547.6810303.1310425.0142822.2577515.0688477.388916.0858154.18573.0239258.3737793.0357666.560791.0418701.1324463.0043945.2648926-.019043.3972778-.0133057.2669678.0114746.5303345.0605469.7960205-.0233154.1119385-.0352783.2648315.0153809.4182129.0284424.0454712.0515137.0929565.1053467.1640625.1859131-.5961304.2508545-1.2076416.4453125-1.8499756.5618896-.6751709.1226807-1.3583374.2034912-2.0554199.2524414-.7246704.0509033-1.4335327-.0281982-2.131958-.1260986-.7810059-.109375-1.5725708-.2728271-2.2869263-.6191406-.7088013-.3435059-1.3903809-.7209473-1.9851074-1.2097168-.9170532-.75354-1.8704834-1.4758301-2.762207-2.2502441-.5237427-.454834-.9572754-.9849854-1.4326172-1.4804688-.1633911-.170166-.3326416-.3364258-.4957275-.5068359-.6000366-.6271973-1.1925659-1.2595215-1.8010254-1.8808594-.213501-.2180176-.4740601-.4025879-.6969604-.614502-1.1240845-1.0693359-2.2402954-2.1444092-3.3643188-3.213623-.6469116-.6154785-1.2973022-1.2285156-1.9572754-1.8337402-.7388916-.6777344-1.4810791-1.3532715-2.2394409-2.0148926-.6173096-.5386963-1.2857056-1.0358887-1.8848267-1.5881348-.5218506-.480957-.9981079-1.0009766-1.4586182-1.526123-.4684448-.5339355-.9151001-1.0838623-1.3318481-1.6470947-.7009277-.9475098-1.0566406-2.0091553-1.3009033-3.0749512-.1445312-.6304932-.2418823-1.2806396-.2747803-1.932373-.036377-.7205811-.2127075-1.4423828-.4527588-2.1468506-.1143188-.3354492-.3301392-.6323242-.6864624-.9135742.5932007-.329834,1.197876-.4443359,1.805542-.5341797Zm-7.9945068,50.3845215c-.1834106.5344238-.2590942,1.0736084-.1184692,1.637207.0269165.1077881-.0101929.2248535-.0249023.4443359-.1170654-.1829834-.1864624-.2700195-.2310791-.364624-.3022461-.6408691-.4945679-1.2965088-.5605469-1.9825439-.0820312-.8532715-.104126-1.7019043-.0601196-2.5517578.0133057-.2578125-.0431519-.5201416-.052063-.7802734-.0089111-.260376.0140991-.5140381-.0465698-.7816162-.0795898-.3509521-.0322876-.7169189-.074707-1.074585-.0438232-.3693848-.1123047-.7390137-.2005615-1.104248-.3016968-1.2485352-.9697876-2.3470459-1.9511719-3.3348389-.9096069-.9156494-1.9799194-1.6585693-3.1190186-2.3433838-1.0635376-.6395264-2.2282104-1.1179199-3.3538208-1.6594238-1.1295166-.543457-2.2458496-1.1143799-3.1912842-1.8916016-.5284424-.4344482-.9328613-.9575195-1.2869873-1.4978027-.5407715-.8254395-.8355713-1.7229004-1.017334-2.6374512-.0765381-.3850098-.0588379-.7832031-.0507812-1.173584.0092773-.4465332.0305176-.8948975.09375-1.3358154.0524902-.3651123.1765137-.7200928.2635498-1.0806885.0905762-.3756104.199585-.7443848.324585-1.1132812.3168945-.9346924.7338867-1.8287354,1.1992188-2.7089844.5228271-.9892578,1.1938477-1.9035645,1.8303223-2.8358154.5551758-.8133545,1.1875-1.5809326,1.8635254-2.3199463.3449707-.3770752.7248535-.7368164,1.1364746-1.060791.9191895-.723877,1.8618774-1.4262695,2.8066406-2.1262207,1.0534668-.7802734,1.9945068-1.6496582,2.9056396-2.5498047,1.2970581-1.2816162,2.3964233-2.6789551,3.3529663-4.1618652.3741455-.5800781.6757812-1.1968994.9920654-1.8044434.4592285-.8823242.8607788-1.7905273,1.4127197-2.6318359.5974731-.9104004,1.3104248-1.7490234,2.3126221-2.4471436.0001831.1425781.0131836.2403564-.0015869.3338623-.090332.5717773.0739746,1.1340332.1654053,1.6992188.0752563.46521.1546021.9302979.2142944,1.3964844.1563721,1.2210693.2381592,2.4537354.7061768,3.6367188.3828735.9677734.8670044,1.9002686,1.5875244,2.748291.6841431.8054199,1.3782349,1.6009521,2.1663818,2.3344727.706604.6577148,1.434021,1.2990723,2.151001,1.9487305.0952148.0863037.1832886.1783447.2741699.2680664,1.2853394,1.2692871,2.5645142,2.5432129,3.8581543,3.8062744.7554932.7376709,1.5182495,1.4709473,2.307373,2.182373.565918.5101318,1.1841431.9781494,1.7727661,1.4703369.3095093.2587891.6138916.5229492.906311.7958984.8016357.7480469,1.5804443,1.5141602,2.3970337,2.25.8342285.7519531,1.7250366,1.4559326,2.7138672,2.059082.5516357.3364258,1.1124268.6640625,1.6887817.9672852.8720703.4584961,1.7848511.8272705,2.7792358,1.052002.6929321.1566162,1.3775635.3171387,2.0889893.3642578.3885498.0256348.7770386.0598145,1.1646118.0998535,1.2111206.125,2.3921509.0012207,3.5439453-.2397461.5961914-.1247559,1.1519775-.369873,1.725769-.5612793.1206055-.0402832.2399902-.0830078.3927612-.1359863.1572876.2392578.3076782.4677734.4872437.7407227-.2667236.0791016-.513855.1704102-.7732544.2260742-1.2107544.2595215-2.4174194.534668-3.640625.7529297-.7830811.1398926-1.5789795.2451172-2.3929443.2700195-.8088989.0246582-1.6113281.1164551-2.4180298.1685791-.321106.020752-.6404419-.0355225-.9724121.008667-.4442749.059082-.9150391-.0019531-1.373291.0048828-.4543457.006958-.9071045.0349121-1.3607788.052124-.0953979.00354-.1914673.0032959-.2872314.0001221-.6923218-.0236816-1.3903198-.0959473-2.0755615-.0615234-.9730225.0488281-1.9330444-.0808105-2.8935547-.1774902-.6419678-.0644531-1.2877808-.1630859-1.9175415-.3361816-.289856-.0795898-.5984497-.1171875-.8965454-.1745605-.6743164-.1296387-1.3184204-.3378906-1.9694214-.5266113-1.0874634-.3154297-2.0932617-.8017578-3.1297607-1.2243652-.9682617-.3948975-1.946228-.7717285-2.927124-1.1413574-.5595703-.2109375-1.1296387-.4014893-1.7025146-.5819092-.3775024-.1190186-.7546997-.2659912-1.1625366-.2633057-.2023315.0012207-.4022827.0410156-.602356.0631104-.0158081.2359619-.0290527.4332275-.0446167.6661377.1624146.3978271.4614868.7070312.9719849.8951416.4210815.1551514.8092651.3817139,1.2107544.5787354.9877319.484375,1.9588013.9975586,2.9659424,1.4481201,1.3239136.5924072,2.6623535,1.1627197,4.0828247,1.5616455.5969238.1676025,1.1802368.3765869,1.7797852.5349121.385437.1018066.8103027.0974121,1.1800537.2263184.6082153.2124023,1.2677002.0996094,1.8641968.3356934.1018677.0402832.2305298.0285645.3469849.0385742.9511719.0820312,1.9036255.2126465,2.8532104.2304688.831665.015625,1.6627197.1264648,2.4854126.1103516.6604614-.0131836,1.309082.0635986,1.9628906.0849609.3045044.0100098.6086426-.0166016.9133911-.0114746.3051147.005127.6037598.0380859.9145508-.005127.3300171-.0460205.6809082-.003418,1.0253296-.017334,1.131897-.0458984,2.2466431-.1616211,3.3565063-.3220215,1.6542358-.2387695,3.2249756-.685791,4.7668457-1.2070312.0529785-.0178223.1063843-.0443115.1582031-.0656738.1137085-.0466309.2251587-.0930176.3469849-.144043-.0524902.7827148-.1026001,1.5535889-.1605225,2.3237305-.0028076.0373535-.074646.0682373-.1202393.1071777-.0657349-.0043945-.1294556.0009766-.1947021-.0012207-.9077148-.0305176-1.7736816.1436768-2.6320801.34375-1.1516113.2683105-2.2999878.5454102-3.4466553.8269043-.5026855.1235352-1.0031738.255127-1.4949951.4040527-1.6343384.4953613-3.284729.9487305-4.9596558,1.3496094-1.0614014.2539062-2.0939331.5860596-3.1345215.8939209-.8132935.2406006-1.6251831.4857178-2.4269409.7506104-1.1879272.3924561-2.3568726.8238525-3.5515137,1.2017822-1.0843506.3430176-2.1967163.6269531-3.2884521.9550781-1.0414429.3128662-2.0888672.6181641-3.1035156.9830322-1.3282471.4775391-2.6787109.9130859-3.9649048,1.4736328-.9141235.3984375-1.8643799.7402344-2.7599487,1.1726074-1.2404175.598877-2.3902588,1.3022461-3.4130859,2.1392822-.510498.4178467-.9810791.8868408-1.3733521,1.3894043-.4084473.5233154-.6550293,1.1317139-.8655396,1.7449951Zm24.2194214-4.3535156c-.762085.5568848-1.5824585,1.0566406-2.3378906,1.6196289-.8536377.6362305-1.6621094,1.3157959-2.4943237,1.9727783-.2091064.1651611-.4329834.3167725-.6514893.4731445-.7949829.5692139-1.6509399,1.067749-2.5193481,1.5532227-.5355225.2994385-1.0482788.6273193-1.5765381.9359131-1.3583984.7937012-2.7473145,1.550293-4.3426514,1.9760742-.7236938.1933594-1.482666.3134766-2.2380981.4128418-.5175171.0681152-1.0531006.0739746-1.5821533.0952148-.6427002.0258789-1.2774658-.0041504-1.9017944-.0996094-1.2436523-.1900635-2.4555054-.4906006-3.5065308-1.2075195.3604126-.4554443.4599609-.9951172.671814-1.4956055.24646-.5825195.3572998-1.2011719.5722656-1.7945557.2645874-.7302246.7335815-1.3216553,1.3605347-1.8314209.5452881-.4433594,1.1181641-.8652344,1.727478-1.2412109.7438965-.4592285,1.5133667-.8950195,2.3110962-1.2851562,1.5386353-.7526855,3.1334229-1.4146729,4.8168945-1.9284668.8123779-.2478027,1.5871582-.5760498,2.3956909-.8330078,1.5411377-.4899902,3.0945435-.9541016,4.642334-1.4301758,1.2488403-.3840332,2.4881592-.789917,3.7479248-1.1489258,1.166748-.3326416,2.354187-.6179199,3.5339355-.9204102,1.2319336-.315918,2.4614868-.6386719,3.699707-.9382324,1.1832886-.286377,2.3776245-.543457,3.5646362-.8203125.5579834-.1298828,1.1096191-.2770996,1.6655273-.4127197.0603638-.0147705.1275635-.0113525.192749-.0136719-.3700562.2844238-.7126465.6014404-1.1190186.8426514-.928833.5516357-1.881897,1.0716553-2.7341309,1.7124023-.9555664.7182617-1.946167,1.4029541-2.9102173,2.1132812-1.6662598,1.2280273-3.3161011,2.4719238-4.9884033,3.6938477Zm4.4451294,75.5656738c-1.385498-.9156494-2.6773071-1.9196777-3.7518921-3.1088867-.6358032-.7034912-1.2445679-1.4245605-1.8602905-2.1407471-.3943481-.4587402-.7897949-.9173584-1.1663818-1.3863525-1.0682983-1.3303223-2.1542358-2.6494141-3.0003052-4.0964355-.5444946-.9312744-1.1752319-1.8283691-1.7642212-2.7419434-.2892456-.4487305-.6483765-.8375244-1.2438354-1.0693359-.6601562-.1300049-1.1731567.085083-1.6126709.5273438-.328125.3300781-.7288208.6071777-1.0993652.9060059-.4395142.3544922-.8925171.6972656-1.3192139,1.0626221-.5163574.4421387-1.008606.9046631-1.5170898,1.3536377-.1448975.1279297-.3114624.237793-.465271.3583984-.1516113.1191406-.2996216.2414551-.4712524.380127-.0026855-.1217041-.0125732-.2431641-.0065308-.3635254.0141602-.2810059.0489502-.5606689.0518799-.842041.0050659-.4909668-.0213013-.9833984-.0088501-1.473877.012146-.4797363.1254883-.9609375.071106-1.435791-.097229-.8493652-.0150757-1.6850586.0935059-2.5111084.0776367-.5904541.088623-1.2020264.3199463-1.7709961.024353-.0599365.0171509-.1307373.0213623-.1966553.0324707-.5046387.1729126-.986084.3204346-1.4697266.1463013-.4796143.2195435-.9776611.3509521-1.4614258.109436-.402832.2633667-.795166.385498-1.1953125.1272583-.416748.2336426-.8387451.3605347-1.2556152.1781616-.5852051.3718872-1.1662598.5491943-1.7515869.1263428-.4169922.2315063-.8393555.3552246-1.256958.1830444-.6176758.3748169-1.2331543.5617676-1.8497314.1638184-.5401611.3319092-1.0793457.4874878-1.621582.1602783-.5584717.3223267-1.1169434.4557495-1.6812744.093689-.3959961.1356812-.8024902.2103882-1.2028809.0444946-.2382812.1109009-.4729004.161499-.7103271.0472412-.2215576-.0280762-.4656982.1442261-.6656494.0296021-.0344238.019043-.0952148.0249023-.144043.0963135-.7979736.1893311-1.5963135.2894287-2.3937988.05896-.4697266.1903076-.9372559.1755371-1.4074707-.0128784-.4099121-.0100708-.817749-.0054321-1.2265625.0068359-.6068115.0244141-1.2142334-.0065308-1.8212891-.0396729-.779541-.1020508-1.5600586-.1938477-2.3381348-.0777588-.6593018-.2609863-1.3151855-.3067627-1.973877-.0519409-.7471924-.2139282-1.4863281-.2522583-2.2363281-.0279541-.5466309-.0315552-1.0887451.0455322-1.6187744.057251-.3936768.1729736-.7886963.2642822-1.1800537.3052368-1.3076172.9056396-2.5153809,1.4211426-3.755127.5588379-1.3438721,1.213562-2.6508789,1.8399048-3.9680176.3782349-.795166.9969482-1.4869385,1.6143799-2.1623535.7632446-.8349609,1.5984497-1.6120605,2.5281982-2.3171387.7904053-.5996094,1.5531006-1.2261963,2.31073-1.855957.7648315-.6358643,1.5222778-1.2814941,2.1495361-2.0231934.7282104-.8613281,1.3999634-1.751709,1.9797974-2.7009277.6889038-1.1279297,1.1296387-2.3361816,1.6353149-3.5270996.3468628-.8167725.7704468-1.6097412,1.2037964-2.3944092.7144165-1.2938232,1.7410889-2.4039307,2.8083496-3.4875488.5203247-.5283203,1.0651855-1.0328369,1.6694946-1.494873.7914429-.6049805,1.7095337-1.0543213,2.5843506-1.5574951.3262329-.1875.6574097-.3691406.9901733-.5484619.1502075-.0809326.3099976-.1495361.5073242-.2435303-.1149902.4508057-.2991333.8356934-.3134766,1.2592773-.0041504.1240234-.1132202.2407227-.1216431.3652344-.0435791.6467285.015625,1.2739258.6155396,1.786377.0632935.0539551.1275635.1033936.1920776.1530762.1210327.0932617.2498169.1762695.4229126.2121582.1240845.0258789.2347412.1083984.3760986.1772461-.2721558.4038086-.5859375.7753906-.9254761,1.1264648-.0846558.0876465-.161438.1811523-.2506104.2651367-.6177979.5820312-1.2935181,1.1185303-1.921875,1.692627-.4846191.442749-.9477539.9040527-1.3969727,1.3736572-.7789307.8143311-1.5562744,1.6304932-2.3040771,2.4660645-1.0526123,1.1761475-1.9643555,2.4360352-2.8272705,3.7218018-.8688354,1.2946777-1.6199951,2.6434326-2.2207642,4.0510254-.3627319.8498535-.7034912,1.7098389-.9359131,2.6019287-.1583862.6080322-.3911743,1.1988525-.5650635,1.803833-.0944214.3283691-.1322632.6706543-.2012329,1.0054932-.0490112.2381592-.1070557.4746094-.161438.711792-.0543823.2369385.0271606.4980469-.1513062.7150879-.038208.0463867-.0165405.1289062-.0262451.1940918-.0745239.5008545-.1015015,1.0133057-.2400513,1.4987793-.1189575.416748-.0827637.8513184-.199707,1.2546387-.1395264.4814453-.085083.9841309-.2139282,1.453125-.1591797.5792236-.0927734,1.1821289-.2359619,1.7504883-.1543579.612793-.0983276,1.2470703-.2434082,1.8497314-.1593628.6618652-.1030884,1.3459473-.2528076,1.9984131-.1335449.581665-.1002197,1.1794434-.2321167,1.751709-.1188354.515625-.0983887,1.0473633-.223877,1.5523682-.1038818.4182129-.1063232.8432617-.1903076,1.2581787-.1290283.6373291-.2443848,1.2768555-.3685303,1.9145508-.1473999.7575684-.4004517,1.4959717-.5910645,2.2463379-.1316528.5183105-.2142944,1.0476074-.3563843,1.5632324-.1797485.6520996-.3798218,1.300293-.6037598,1.9407959-.2603149.7446289-.552002,1.4803467-.8377075,2.2175293-.1925049.4967041-.3843994.9941406-.6008911,1.4825439-.5244751,1.1835938-1.0973511,2.350708-1.5872803,3.5454102-.5836182,1.4233398-1.2930908,2.795166-2.0059814,4.1678467-.3444214.663208-.6686401,1.3359375-.9604492,2.0186768-.1433716.3354492-.1714478.7009277.1190186,1.0356445.0691528.079834.1185303.1716309.2165527.3162842.2390137.0899658.5348511.2015381.7821045.2945557.855835-.0118408,1.3096313-.4533691,1.7064819-.9547119.8961182-1.131958,1.7554932-2.2857666,2.5297241-3.4837646.7247925-1.1213379,1.4509888-2.2453613,1.9598999-3.4628906.3058472-.7315674.6217041-1.4588623.8274536-2.2229004.1501465-.5577393.3803711-1.0966797.5507202-1.6502686.0906372-.2946777.125-.6036377.1940308-.9042969.0396118-.1724854.1063843-.3394775.1452026-.512207.0390015-.1732178.0508423-.3443604.1271362-.5184326.116272-.2652588.0891113-.5692139.1826782-.8555908.1361694-.4168701.15271-.8656006.2294312-1.2991943.045105-.255127.1090698-.5072021.1624146-.7609863.0499268-.237793-.0342407-.5009766.1538086-.7133789.0197754-.0224609.0094604-.0643311.013916-.097168.0800171-.583252.1259766-1.1732178.2487793-1.7485352.1585083-.7424316.1428833-1.5061035.2896729-2.2434082.0968018-.486084.1389771-.9719238.1772461-1.460083.0918579-1.1705322.1746216-2.3421631.2353516-3.5152588.03479-.6710205.0053101-1.3466797.0302124-2.0185547.0251465-.6779785.1586914-1.3554688.1071167-2.0305176-.085144-1.114624.1052856-2.2036133.1251831-3.3066406.0118408-.6560059-.0452271-1.3208008.0401611-1.9667969.098877-.748291.1554565-1.5020752.2702637-2.2463379.0863037-.5595703.2148438-1.1165771.3339233-1.6721191.2941895-1.3723145.682373-2.7268066,1.2145386-4.0368652.4387207-1.079834.9020386-2.15625,1.585083-3.1447754.368042-.5325928.6629639-1.1037598,1.0322266-1.6357422.4089355-.5889893.8828125-1.1435547,1.2965698-1.7302246.6083984-.8625488,1.3165283-1.6610107,2.0580444-2.4372559.991394-1.0379639,2.0153198-2.0529785,3.0065918-3.0909424.3030396-.3172607.6188354-.6263428.9259033-.9412842.3851318-.3950195.7558594-.7998047,1.0622559-1.2475586.1398926-.2045898.2585449-.4200439.3879395-.6320801.0324097.0048828.0992432.0056152.1026001.0172119.1411133.4869385.3728638.975708.3900757,1.4620361.026123.737793-.0959473,1.4741211-.1596069,2.2104492-.0053711.0622559-.055481.1193848-.0664673.1818848-.0703125.4006348-.0886841.8148193-.2143555,1.2001953-.1552124.4758301-.2550659.9641113-.4055176,1.44104-.1351929.428833-.2202759.8771973-.3545532,1.3099365-.1675415.539917-.2730103,1.0931396-.4418945,1.6335449-.1641846.5253906-.1977539,1.0858154-.3745117,1.6068115-.1101074.324585-.0883789.6704102-.2553101.9847412-.1213379.2282715-.0778198.5026855-.1713867.7564697-.1399536.3795166-.1062622.8104248-.2356567,1.194458-.1289673.3829346-.1019897.7900391-.2687378,1.1662598-.0021973.0048828-.0028687.0101318-.005127.0151367-.1139526.2487793-.1069336.536377-.1740723.8051758-.1486206.5952148-.2998047,1.1882324-.4807739,1.7762451-.1002197.3258057-.0906982.6818848-.2096558,1.0002441-.1380005.3691406-.1171875.7635498-.2769165,1.1308594-.114563.2634277-.1013794.5704346-.1730957.8574219-.1383667.5539551-.1425171,1.1363525-.263855,1.6949463-.1436157.6608887-.1315918,1.3419189-.2717896,1.9960938-.0970459.4530029-.1167603.9077148-.1784058,1.3605957-.081665.6000977-.1157227,1.2106934-.2633667,1.7963867-.0933228.3701172-.0835571.7487793-.1783447,1.1101074-.1640625.6252441-.1144409,1.2786865-.2583008,1.8979492-.1315308.5661621-.098938,1.1455078-.2190552,1.704834-.2958984,1.3773193-.2524414,2.7869873-.3720093,4.1807861-.0375366.4375.0188599.883667.0100708,1.3248291-.008606.4301758-.1088867.8625488-.0546265,1.2875977.0743408.5826416-.0765381,1.1535645.0028687,1.7216797.0755615.5407715-.0889893,1.0761719.0889282,1.6113281.0102539.0307617.0002441.065918-.0014038.098999-.0303955.6192627.0387573,1.2374268.1051025,1.8570557.0453491.4238281-.0360718.8598633.0654297,1.2724609.1049194.4266357-.0275269.8417969.1052856,1.2675781.0919189.2944336-.005188.6098633.0517578.9272461.0809937.4517822-.0029297.9179688.0646973,1.3721924.0751343.5050049-.0106201,1.0050049.0982056,1.5118408.0824585.3840332.0108643.7849121.0708618,1.173584.0072021.0467529.0065918.0935059.0117188.1401367.0389404.3571777.0315552.7141113.1055298,1.0732422.0617676.3000488.0252075.6149902.0703125.9266357.067627.4676514.0297241.9407959.1398315,1.4085693.0075073.0319824-.0007935.0661621-.0004272.0992432.0058594.5241699-.0424194,1.0522461.0339355,1.5715332.069458.4725342-.0582886.944458.1073608,1.4118652.0161743.0457764.00177.098999-.0014648.1484375-.0394287.6026611.0254517,1.2034912.1060791,1.8065186.052124.3895264.0176392.7838135.0575562,1.1746826.0477905.4666748.1261597.9327393.2045898,1.3978271.1074219.6363525.2177734,1.2727051.3417358,1.9072266.0133057.0682373.0230103.1368408.0367432.2050781.1411133.7001953.2863159,1.4013672.4733887,2.0950928.348999,1.2938232.763916,2.5775146,1.0870361,3.8746338.2961426,1.1888428.5514526,2.3835449.9619751,3.5528564.3581543,1.0198975.8026123,2.0151367,1.3743286,2.9716797.175415.2935791.3062744.6048584.4698486.9035645.8006592,1.4615479,1.3867798,2.9853516,1.9972534,4.5020752.1118164.27771.2142944.5583496.3036499.8411865.0324097.1027832.013916.2155762.0198975.3518066-.3637085-.0743408-.6843872-.1147461-.9857788-.206665-.5795288-.1767578-1.1731567-.2941895-1.7642822-.4257812-.4610596-.1027832-.9170532-.2260742-1.3733521-.3461914-.6744995-.1777344-1.350708-.3513184-2.0200195-.5440674-.7585449-.2183838-1.5090332-.4597168-2.2653198-.6846924-.321106-.0957031-.6351318-.206543-.9508667-.3137207-.6604614-.2241211-1.3138428-.463623-1.9537964-.7338867-.4955444-.2091064-.9743652-.4418945-1.4398804-.6959229-.1859131-.1014404-.3762207-.1959229-.5546265-.3094482-.6532593-.4156494-1.3335571-.800293-1.9776611-1.2260742Zm26.1264038,5.883667c-.1005249.7171631-.1503906,1.4400635-.2757568,2.1572266-.1121216.6409912-.2017822,1.2867432-.3707886,1.9151611-.3607788,1.3415527-.7662964,2.6743164-1.4077759,3.9029541-.4331055.8294678-.9804077,1.5977783-1.4946899,2.3809814-.6359253.9686279-1.0748291,2.0150146-1.3577271,3.1479492-.1901855.7619629-.4220581,1.5166016-.7515869,2.2380371-.4075928.8922119-.7809448,1.8005371-1.1832886,2.696167-.6752319,1.5028076-1.8413086,2.3590088-3.270813,2.9417725-.1081543.0441895-.2263794.0622559-.3344727.1064453q-.8240356.3374023-1.7337036.2993164c-.6530762-.3491211-1.0790405-.8139648-1.4476929-1.4171143-.5061646-.8282471-.8787842-1.6966553-1.2161865-2.6000977-.2176514-.5828857-.5460815-1.1212158-.8114624-1.6861572-.6020508-1.2818604-1.1807251-2.5755615-1.798645-3.8492432-.3876953-.7991943-.7961426-1.5919189-1.2540283-2.3503418-.8516846-1.4105225-1.4320068-2.9068604-1.6619873-4.5592041-.0966187-.6943359-.1554565-1.3918457-.2526245-2.0808105-.1321411-.9365234-.0987549-1.8642578-.0328369-2.7871094.0356445-.4986572.0888062-1.0012207.1750488-1.5004883-.2613525-.0664062-.5236206-.1291504-.7825317-.204834.2589111.0756836.5211792.1384277.7825317.2047119.168396.0427246.3353882.0906982.5040894.131958.430603.1054688.8614502.2097168,1.2880859.3289795.2822876.0789795.572998.1326904.8638916.1861572.2908325.0535889.5817871.1069336.8644409.1850586.1693115.0466309.3422241.0783691.5137939.1158447.5147705.1126709,1.0335693.2073975,1.5336914.357666.3766479.1131592.7582397.1148682,1.1286011.2055664.3297729.0808105.6520386.1934814.9852295.255127.5284424.0976562,1.0632935.1638184,1.5951538.2452393.0750732.0114746.1559448.0214844.2211914.0528564.2220459.1070557.4391479.1038818.6636353.0810547.0748291-.0075684.1505127-.017334.227417-.0257568.0877686-.0097656.1630859-.0300293.2289429-.0571289.1975708-.081543.3100586-.2255859.4186401-.3376465.1348877-.3901367.1009521-.7504883.0065918-1.1008301-.0314331-.1168213-.0695801-.2325439-.1104126-.3479004-.0939941-.2653809-.1966553-.5286865-.2971191-.7926025-.1004639-.2637939-.1987305-.5283203-.2971191-.7926025-.3641968-.9787598-.7346191-1.9561768-1.0859985-2.9378662-.2560425-.7154541-.4594727-1.4432373-.7322998-2.1542969-.605835-1.5791016-1.1964111-3.1607666-1.6124878-4.7791748-.2235107-.8693848-.4393921-1.7402344-.640686-2.612793-.1612549-.6987305-.3302612-1.3986816-.4313354-2.1025391-.0473633-.3295898-.1159668-.6564941-.1752319-.984375s-.1091919-.6569824-.1752319-.984375c-.0370483-.1838379-.0631104-.3686523-.0879517-.5537109-.0248413-.1849365-.0484009-.3701172-.0804443-.5544434-.0377808-.2177734-.0593872-.4372559-.0824585-.6560059-.0231323-.21875-.0477295-.4365234-.0916748-.6503906-.1195068-.5820312-.1113892-1.1630859-.1925049-1.7431641-.0328979-.2353516-.0401001-.4724121-.0400391-.7099609,0-.2375488.0073242-.4754639.0032349-.7126465-.0004272-.0249023.0053101-.0524902.0079956-.0783691.0026245-.026001.0021362-.050293-.0109863-.0683594-.0754395-.1044922-.0866089-.2099609-.0809937-.3156738.0028076-.0527344.0098267-.1055908.0150757-.1584473.005249-.0527344.0087891-.1054688.0045776-.1582031-.0084229-.1052246-.0239868-.2103271-.0380249-.3154297-.0140381-.1052246-.0265503-.2102051-.0289917-.3151855-.0128174-.557373-.0106201-1.114502-.0140991-1.6716309-.0001831-.0330811.0143433-.0698242.0012207-.0986328-.0631104-.1381836-.076416-.276123-.0742798-.4145508.0020752-.1381836.0195312-.2766113.0177612-.4151611-.0037231-.2926025-.0499878-.586792-.0471802-.8787842.0024414-.2509766.0097046-.5015869.0140381-.7524414.0286865-.1411133.0551758-.2827148.0924683-.4224854.1117554-.4190674.059082-.8597412.1711426-1.2965088.1552734-.6049805.1450195-1.25354.2189941-1.8818359.0394897-.3352051.1107788-.6662598.1608276-1.0004883.0500488-.3339844-.0691528-.6934814.1477661-1.0041504.024353-.0349121.0154419-.0952148.0194092-.1437988.0682983-.8271484.083313-1.6635742.2185669-2.479248.1432495-.8635254.0626221-1.7521973.315918-2.598999.0205078-.0687256.0089722-.1473389.0131836-.2213135.0808105-1.4208984.1091309-2.8476562.2564087-4.2614746.1710815-1.6418457.0888672-3.2973633.2730103-4.9276123.1553955-1.3754883.1113281-2.7469482.1941528-4.1182861.0827637-1.3713379.1721191-2.7425537.2275391-4.1152344.0558472-1.3818359-.0119019-2.7745361.131897-4.1452637.144165-1.3737793.0515747-2.7558594.2236328-4.1154785.1300049-1.02771.0514526-2.0661621.2143555-3.0750732.1740112-1.0777588.0551758-2.1624756.2053833-3.2266846.0061035-.0430908.006958-.0864258.012207-.1296387.0593872-.309082.0751953-.6322021.1240845-.9445801.0076294-.0487061.0043945-.1010742.0236816-.1455078.0510254-.1179199.0870972-.2387695.1148071-.361084.0553589-.2446289.0769653-.4956055.1164551-.7436523.0197754-.1239014.0440063-.2470703.0791626-.3684082.0994873-.3430176.0916138-.715332.2182007-1.0477295.0360718-.0948486.0601196-.1885986.079895-.2824707s.0352783-.1878662.0542603-.2828369c.0189209-.0947266.0470581-.1875.074646-.2806396.0275879-.0930176.0546265-.1861572.074646-.2806396.0354004-.166748.0532227-.3392334.0794067-.508667.0261841-.1693115.0606689-.3356934.1293335-.4901123.0336914-.0756836.0543823-.15271.0682373-.2299805.0414429-.2320557.0211792-.467041.1051025-.6821289.0585938-.1499023.0933228-.3007812.1161499-.4526367.0227661-.1520996.0336914-.3051758.0444946-.4594727.0484619-.6931152.0936279-1.3863525.1392822-2.0795898.0037842-.0577393.0176392-.1192627.0244751-.1785889.0068359-.0592041.0066528-.116333-.0177002-.1654053-.090271-.1816406-.0647583-.3546143-.0673828-.5341797-.0027466-.1853027-.0267944-.3713379-.0439453-.5878906,1.1936035.161499,2.3598633.19104,3.4989624.045166.3796997-.0487061.7564087-.1169434,1.130127-.2061768.2766724.3807373.5394287.7302246.7877808,1.0865479.1663818.2386475.321106.4813232.4663696.7272949.1453247.2458496.2810669.4952393.4096069.7470703.050354.0986328.0951538.1993408.1433716.2988281.0010986.0111084.0007324.0223389.0019531.0334473.1420898,1.3249512-.0270996,2.65625.0825806,3.9709473.0841675,1.0097656.0159302,2.0087891.0516357,3.0114746.0164185.4604492.0848389.9189453.1003418,1.3793945.0150146.4437256-.083374.9055176.0054321,1.3291016.1079712.5151367.0691528,1.0198975.0930786,1.5297852.0169678.3613281.0811768.7199707.1138916,1.0808105.0304565.3364258-.0897827.685791.1053467,1.0102539.043335.0721436.0055542.1938477.0099487.2924805.0336304.755127.0015869,1.5214844.1195068,2.2624512.1517334.9537354.1496582,1.9215088.3334351,2.8718262.1096802.5673828.0186157,1.1781006.1465454,1.7382812.1419678.6220703-.0272827,1.2683105.2086182,1.8696289.0169678.043335.0114136.0966797.0134277.1455078.0328979.8046875.0593872,1.6096191.0997925,2.4138184.0255737.5091553.079895,1.0167236.1063843,1.5258789.0264282.5092773-.0969849,1.0285645.1001587,1.5270996.0167847.0424805.0021362.0979004.0029907.1473389.0231934,1.3233643.0390625,2.6470947.0737915,3.9703369.0120239.4599609.0767822.918335.1064453,1.3781738.0280762.4350586-.0974121.8825684.1061401,1.3037109.0194092.0400391.0041504.0975342.0064087.1468506.0342407.7550049-.0045776,1.5239258.12677,2.2607422.1020508.572876-.0252686,1.1707764.2139893,1.7196045.0181274.0415039.0036621.0976562.0060425.1469727.0345459.7055664.0133057,1.4202881.1199951,2.1142578.1053467.6853027.0355225,1.3684082.0997925,2.0452881.0941162.9910889.1481934,1.9840088.2276611,2.9752197s.1361694,1.9858398.2303467,2.9732666c.1784668,1.8724365-.0762329,3.7388916.0258179,5.6016846.0673218,1.2282715-.0168457,2.4569092.0725098,3.6757812.053772.7341309.0024414,1.4709473.0912476,2.192749.0874634.7105713.0090942,1.4239502.0992432,2.119873.0856934.661499.0308228,1.3199463.0958862,1.9718018.098938.9914551.1044922,1.9929199.2324829,2.9753418.1245117.9560547.1450806,1.9228516.3296509,2.8737793.1101685.5673828.0828857,1.1622314.1312256,1.7435303.0239258.2874756.0865479.5714111.1182861.8583984.0316772.2869873-.0794678.59021.1090088.8612061.034729.0499268.0060425.1447754.0099487.21875.0358887.6810303.0394897,1.3659668.1161499,2.0422363.1431274,1.2609863.1951904,2.5234375.2269287,3.7919922.0133057.5300293.1339722,1.0727539.0600586,1.6002197Zm.7952271-37.244873c-.2214966-.5526123-.1105957-1.1479492-.2192993-1.7193604-.1170654-.6154785-.0289917-1.2722168-.147583-1.8869629-.0849609-.4403076-.0224609-.8833008-.1159058-1.3022461-.1431274-.6418457-.0855713-1.3033447-.2317505-1.9364014-.1226807-.5313721-.0095825-1.0914307-.1375732-1.5919189-.1533813-.6003418-.0481567-1.2028809-.1870728-1.8023682-.1228027-.5299072-.0595703-1.109375-.1092529-1.6695557-.0658569-.7432861-.0136108-1.4931641-.0484009-2.2432861.0410156.0794678.0794067.1600342.1212769.2391357.3018188.5703125.6280518,1.1313477.9985962,1.6760254.5162354.7585449,1.0115356,1.5256348,1.4799805,2.3034668.4683838.777832.9099121,1.5666504,1.3185425,2.3688965.1650391.3240967.3308716.6478271.494812.972168.3278809.6486816.6480713,1.2995605.9385986,1.960083.1452637.3302002.2831421.6628418.4107666.9987793.4178467,1.0996094.8380127,2.1971436,1.1680298,3.3166504.116272.3944092.2103271.7911377.2944946,1.1888428.0841675.3978271.1584473.7966309.2352905,1.1953125.0771484.4001465.1176147.8046875.1561279,1.2080078.0163574.1707764.0142212.3432617.017395.5148926.0031738.1717529.0116577.3425293.0492554.5100098.0344238.1530762.0571899.3063965.0738525.4597168.0166016.1535645.0270996.3071289.0368652.4605713.0194702.3071289.0360718.6141357.0931396.9205322.0525513.2822266.0685425.5662842.0772705.8510742.008728.284668.0102539.5699463.0336914.8547363.0274658.3330078.0441284.6669922.0584106,1.0010986.0142212.3341064.026062.668335.0438232,1.0025635.0287476.5395508-.019104,1.0782471.0048828,1.6220703.0390625.8881836-.1004028,1.7677002-.0722046,2.6624756.020752.6593018-.0269775,1.3153076-.0735474,1.97229-.0465698.6571045-.0919189,1.3150635-.0662842,1.9785156.0178223.4602051-.0234985.9179688-.0800171,1.375s-.1282349.9133301-.1712646,1.3707275c-.0462036.4910889-.1154785.9788818-.1813965,1.4669189-.065979.4881592-.1286011.9765625-.1616211,1.4685059-.0044556.0657959.0094604.1500244-.0314941.192627-.0440063.0458984-.0719604.0944824-.0897217.1447754-.0355835.1008301-.0307617.208374-.0338745.3144531-.0015869.0529785-.005127.1055908-.0167236.1567383-.0231934.1021729-.0497437.2038574-.0770264.3051758-.0273438.1014404-.055481.2026367-.0770264.3051758-.0350342.1669922-.0609131.3360596-.0898438.5043945-.0289917.1682129-.0609741.3356934-.1083374.4995117-.1743164.6025391-.3723145,1.199707-.578125,1.7939453-.2635498.7612305-.5223389,1.5247803-.8225708,2.2745361-.480896,1.2008057-1.1139526,2.3389893-1.7780762,3.463623-.0079956-.1463623-.0164795-.2927246-.0371704-.4389648-.1052856-.744751-.0856934-1.5080566-.1204224-2.2633057-.0022583-.0493164.0166016-.1102295-.005127-.1463623-.1771851-.2947998-.0952148-.6196289-.1181641-.9334717-.0227661-.3120117-.0916138-.6204834-.1148071-.9326172-.046936-.6308594-.0161743-1.2751465-.1337891-1.890625-.0841064-.4400635-.0098877-.8905029-.1218262-1.3005371-.142334-.5213623-.1201782-1.0522461-.2077637-1.5744629-.1039429-.619873-.0090942-1.2803955-.149231-1.8869629-.2009888-.8699951-.0006714-1.746582-.1774292-2.6176758-.133667-.6589355-.0178223-1.3557129-.0970459-2.0437012-.1057129-.9177246-.0089722-1.8537598-.0981445-2.7861328-.0999756-1.0449219-.0734863-2.1027832-.1018677-3.1551514-.0013428-.0494385.0128784-.104248-.0033569-.1473389-.244812-.6513672-.1035156-1.3452148-.208313-2.0180664-.1342163-.8620605-.0880127-1.7539062-.1188354-2.6329346-.003418-.0987549.0172729-.2027588-.0063477-.2955322-.1989746-.782959-.1160278-1.5922852-.2160645-2.3852539-.072876-.5773926-.043457-1.1696777-.131958-1.7436523-.114502-.7424316-.2046509-1.4838867-.2244263-2.2347412-.0025635-.0987549.0269775-.2095947-.007019-.2944336Zm.6865234-45.6783447c.4819946.4196777.8796997.9089355,1.3225098,1.3620605.4700928.480957.9342041.9672852,1.4293823,1.4293213.383606.3579102.8120728.6810303,1.2186279,1.0213623.6590576.5517578,1.3201904,1.1018066,1.9724121,1.6593018.1958618.1673584.3709106.3536377.5454712.5379639.3720093.3930664.7407837.7883301,1.1049805,1.1865234.6276245.6862793,1.2001343,1.4030762,1.7254028,2.1480713.531311.7536621,1.0854492,1.4962158,1.6340942,2.241333.7459106,1.0131836,1.4953003,2.0244141,2.244812,3.0357666.6351929.8570557,1.2874146,1.7054443,1.904541,2.5714111.5142822.7216797.9851074,1.4648438,1.4814453,2.1955566.671814.9890137,1.3707275,1.9660645,2.019165,2.9655762.7414551,1.1428223,1.4490967,2.3010254,2.1557007,3.4589844,1.1801758,1.9342041,2.2145386,3.921875,3.1561279,5.9405518.5393677,1.1564941,1.0139771,2.3328857,1.5313721,3.4962158.4158325.9353027.8325195,1.8708496,1.2841797,2.7947998.6660767,1.3626709,1.2272339,2.7481689,1.5968628,4.182251.3847046,1.4924316.9318237,2.949707,1.5209351,4.3981934.5759888,1.4165039.9783325,2.8688965,1.4168091,4.314209.2525635.8327637.5668335,1.6552734.8893433,2.4733887.427124,1.083374.8821411,2.1599121,1.3389282,3.2354736.4182129.9847412.8643799,1.961792,1.2805786,2.9470215.4545288,1.0760498.8846436,2.1588135,1.3336792,3.2364502.2183228.5239258.4650879,1.0401611.682312,1.5643311.4904785,1.1837158.9262695,2.3797607,1.2988892,3.5914307.265564.8637695.5975952,1.7148438.8907471,2.5736084.1303101.3815918.2387695.7679443.3565674,1.1522217.006958.0025635.0120239.0070801.019104.0095215.005127.0097656.008667.0164795.0125732.0239258-.0079956-.0043945-.0151978-.0083008-.0256348-.013916-.0020142-.0065918-.0040283-.0130615-.0060425-.0195312-.4180908-.1560059-.6541138-.4970703-.9925537-.7353516-.4370117-.3079834-.8422852-.6533203-1.2325439-1.0056152-.5411377-.4885254-1.182312-.8688965-1.7941895-1.2805176-1.2522583-.8422852-2.5245972-1.6628418-3.7669678-2.5157471-.5169067-.3548584-.9846191-.7642822-1.463623-1.1585693-.84729-.6976318-1.7041626-1.3879395-2.5230103-2.1091309-.6903687-.6081543-1.5013428-1.0550537-2.3405151-1.4799805-.3165283-.1602783-.6080322-.3583984-.9277954-.5491943-.3533325-.0303955-.7208252-.0618896-1.0791626-.0926514-.4440308.1499023-.7260742.4272461-1.0090332.7385254-.6878662.7570801-1.1985474,1.6068115-1.7787476,2.4204102-.6776123.9501953-1.3319702,1.9146729-2.0559082,2.8378906-1.2236328,1.5604248-2.5153198,3.0775146-3.9707642,4.4886475-1.1958618,1.1594238-2.3330078,2.3631592-3.5143433,3.5338135-.7208862.7144775-1.472168,1.4064941-2.2169189,2.1029053-.7108765.6647949-1.4719238,1.2867432-2.2233276,1.9178467-.718811.6038818-1.5384521,1.0823975-2.3448486,1.5842285-.5640869.3510742-1.1149902.717041-1.7747192,1.1428223.2288208-.3935547.4033203-.6994629.583374-1.0026855.7203979-1.2128906,1.3800659-2.4472656,1.9154663-3.737793.3095093-.7460938.6080933-1.4963379.9083252-2.2453613.2105713-.5251465.3279419-1.0800781.4996338-1.6184082.1809692-.5672607.394104-1.1262207.5588379-1.6973877.0760498-.2635498.0862427-.5402832.1738892-.8082275.0794067-.2429199.1153564-.5046387.1670532-.7573242.1243896-.6081543.1499023-1.2341309.2640381-1.8446045.2456055-1.314209.2226562-2.6578369.4133301-3.9743652.1015015-.7005615.2149048-1.40271.1968994-2.1043701-.0335083-1.3085938.1601562-2.5991211.1439819-3.901123-.0075684-.6086426.0632935-1.2150879.0098877-1.8192139-.0394287-.4466553.0627441-.8953857-.0350952-1.3218994-.0980225-.4272461.0843506-.8486328-.1120605-1.2648926-.0335083-.0710449.0042725-.1635742.0058594-.2463379.0098267-.503418-.0238037-1.0057373-.121582-1.5070801-.0126343-.0646973.0033569-.1320801.0018311-.1982422-.0101318-.4411621.0065308-.8835449-.0391235-1.3232422-.0625-.6022949-.0531616-1.2071533-.1248779-1.8039551-.1082153-.9002686-.1723022-1.8024902-.3527832-2.7038574-.3236084-1.6168213-.7695312-3.2070312-1.4031372-4.7613525-.3150024-.772583-.7685547-1.5089111-1.1621094-2.2606201-.2519531-.4812012-.5107422-.9599609-.7631836-1.440918-.5450439-1.0385742-1.1298218-2.0625-1.7998657-3.0495605-.5358887-.7895508-1.1229858-1.5549316-1.6746826-2.3371582-.1998291-.2833252-.37854-.5791016-.539856-.8789062-.5708618-1.060791-1.1028442-2.1357422-1.4793701-3.2531738-.2415161-.7166748-.4483643-1.442627-.6219482-2.1711426-.0444946-.1865234-.0809937-.3748779-.1207275-.5627441-.095459-.4511719-.1786499-.9039307-.2119751-1.3566895-.0454712-.6171875-.1324463-1.2333984-.156189-1.8530273-.0189209-.4934082.0412598-.9838867-.0058594-1.47229-.0560913-.5812988-.0533447-1.1590576-.0175171-1.7333984.0358887-.5758057.1050415-1.1480713.1817627-1.7169189.1454468-1.0778809.1265869-2.1730957.324707-3.237793.2119141-1.1391602.2078857-2.2937012.3188477-3.439209.0661621-.6826172.0031128-1.368042-.0802612-2.0539551-.0334473-.2749023-.0213013-.5498047-.0560303-.8288574-.0862427-.692627-.1508789-1.3848877-.3399658-2.0688477-.020874-.0754395.0071411-.1590576.0184937-.3288574.321228.553833.5792236,1.0332031.8724365,1.4973145.652771,1.0332031,1.3001709,2.0698242,1.9924927,3.0849609.7744141,1.135498,1.378418,2.3314209,1.9758301,3.5316162.737793,1.4824219,1.3299561,3.0015869,1.8191528,4.5489502.3375854,1.067627.7290039,2.1248779,1.0631714,3.1931152.4465942,1.4279785.8826904,2.8583984,1.2819214,4.2946777.2761841.9934082.539978,1.9885254.7079468,3.0004883.1749268,1.0534668.4624634,2.097168.6921997,3.1462402.2821655,1.2885742.6030884,2.5712891,1.0508423,3.831665.2935181.8260498.588501,1.6549072.9551392,2.4610596.5911255,1.2998047,1.2567749,2.5771484,1.8623657,3.8728027.4113159.880127.7299805,1.7852783,1.0527954,2.6899414.3885498,1.0888672.7561035,2.1804199,1.0584106,3.2856445.1858521.6794434.34021,1.3618164.4425049,2.0529785.1144409.7733154.2260132,1.5456543.3170776,2.3206787.0739746.6297607.1809082,1.2567139.2261963,1.8895264.034729.4855957.0977173.9714355.1362305,1.458252.0462646.5856934.1062012,1.1694336.1304321,1.7565918.0118408.2873535.0457764.5268555-.1552124.7701416-.0872192.1054688-.0584106.2828369-.0742188.3787842.1151123.5343018.571167.6885986,1.06073.8547363.0621338-.0153809.1489868-.0461426.2401123-.0581055.8399658-.1103516,1.2250366-.4624023,1.4261475-1.1485596.2352295-.8023682.1831055-1.6298828.270813-2.4447021.0353394-.3283691.086792-.661377.0550537-.9898682-.0534668-.5535889.043457-1.1070557-.0963135-1.6593018-.0161133-.0637207.003479-.1320801.0021973-.1983643-.0171509-.8760986-.1396484-1.7454834-.2750244-2.6190186-.1969604-1.2709961-.5600586-2.5117188-.9536133-3.7491455-.1544189-.4857178-.3771973-.9593506-.5926514-1.4312744-.4393311-.9624023-.8646851-1.9304199-1.3520508-2.876709-.5124512-.9952393-1.1160889-1.9589844-1.6326294-2.9528809-.4599609-.8852539-.8630371-1.7905273-1.2764893-2.6914062-.2869873-.6253662-.557373-1.2561035-.8204956-1.8883057-.5888062-1.4146729-1.1124878-2.8421631-1.4439087-4.3121338-.1503296-.666748-.3765869-1.3232422-.5546265-1.9866943-.3731689-1.390625-.7630005-2.7779541-1.2453003-4.1484375-.411377-1.1688232-.8146973-2.3394775-1.2433472-3.5042725-.4350586-1.182373-.8577271-2.3693848-1.3578491-3.5341797-.503418-1.1723633-1.0292358-2.3405762-1.7064209-3.4598389-.5148315-.8509521-.9621582-1.7296143-1.4702148-2.5836182-.3156128-.5303955-.6775513-1.0429688-1.0376587-1.5543213-1.161438-1.649292-2.1940308-3.3479004-3.0488892-5.123291-.4033203-.8375244-.9017334-1.6451416-1.3723755-2.4608154-.0164185-.0283203-.0332642-.0566406-.0496216-.0852051-.1105957-.192627-.2562256-.3745117-.4072266-.5480957-.3406372-.3918457-.7044678-.7695312-1.0405273-1.1638184-.3204346-.3760986-.6696777-.7355957-.8779907-1.1756592-.1209106-.2553711-.3183594-.4866943-.4743652-.7186279.4081421-.2165527.8095093-.390625,1.1551514-.6236572.352478-.2376709.6500854-.5332031.9794312-.8099365.1643677.2318115.3302002.4580078.499939.6795654.4389038.572998.9134521,1.1055908,1.5269165,1.5513916.6547852.4760742,1.3092041.9576416,1.9104614,1.4812012Zm-2.2944336,4.7585449c.0018921-.012207.026062-.0212402.0405273-.0317383.0111084.013916.0222778.027832.0326538.0407715-.0140991.010498-.0280151.0209961-.0419312.0314941-.0113525-.0136719-.03302-.0288086-.03125-.0405273Zm3.5159912-8.847168c-.5375977-.1766357-1.0820312-.3234863-1.6478271-.4056396-.2816162-.0408936-.5571899-.1217041-.8386841-.1647949-.2646484-.0405273-.5240479-.0649414-.7854004-.1536865-.2261963-.0767822-.4943237-.0544434-.786499-.0794678.3291016-.3848877.6289062-.7355957.9365845-1.095459.9291382.7125244,1.9699707,1.2913818,3.1074829,1.7420654.1173706.0465088.2821045.0714111.3290405.2127686-.1057129-.0164795-.2155151-.0231934-.3146973-.0557861Zm.3401489.0683594c.1141357.0212402.2697144-.0424805.3165283.1162109-.1147461-.0187988-.2705078.0507812-.3165283-.1162109Zm.3484497.1323242c.0973511.0083008.1947632.0167236.2921143.0251465-.1185303.0827637-.2307129.1219482-.2921143-.0251465Zm.5164185.2116699c-.0197754-.0126953-.0394897-.0253906-.0592041-.0380859.0150757-.0089111.0310059-.0258789.0449219-.0241699.013855.0015869.0256348.0218506.0383911.0339355-.0080566.0093994-.0161133.0187988-.0241089.0283203Zm.3201904.1397705c-.0120239-.0118408-.0275879-.0223389-.0343628-.0357666-.0028076-.0056152.0129395-.0175781.0193481-.0256348.0144653.0012207.0281372.0024414.0418091.0036621-.0089111.0192871-.0178833.0384521-.0267944.0577393Zm.3625488.1173096c-.0180664-.012207-.0360718-.0246582-.0540771-.0368652.0140991-.0083008.0290527-.0244141.0420532-.0228271.0129395.0015869.0238647.020752.0355835.0321045-.0081787.0095215-.0158691.0185547-.0235596.0275879Zm.3224487.138916c-.0112915-.0112305-.0258179-.0214844-.0321655-.0344238-.0026855-.0053711.0118408-.0166016.0178833-.024292.0136719.0012207.0267334.0023193.0397949.003418-.0084839.0184326-.0170288.0368652-.0255127.0552979Zm.3763428.1118164c-.0263062-.0076904-.0526123-.0153809-.0789795-.0231934.0144043-.0083008.0276489-.020752.0436401-.0234375.0107422-.001709.0252686.0107422.0373535.0163574-.0006714.0102539-.0013428.0202637-.0020142.0302734Zm.1781006.1419678c.1181641-.0831299.229187-.1196289.291626.0250244-.097229-.0083008-.194397-.0166016-.291626-.0250244Zm.3228149.0408936c.1142578.0219727.2748413-.0561523.3189087.1173096-.1151733-.0212402-.2716064.0418701-.3189087-.1173096Zm43.3308716,3.5437012c-.2978516.7279053-.7216187,1.3934326-1.2775879,1.9949951-.4273682.4624023-.9598389.8050537-1.5898438,1.0511475-.7992554.3122559-1.6315918.5615234-2.4915771.7154541-.8743286.1566162-1.7662354.2677002-2.6704102.3106689-.8273926.0391846-1.6489868.1282959-2.4764404.1672363-.4946899.0231934-.9956665-.0100098-1.4936523-.0141602-.381897-.0032959-.7634888.0074463-1.1453857-.0031738-.3826904-.0106201-.7599487-.0534668-1.1484985-.0192871-.3775635.0333252-.7758179-.0715332-1.1625977-.0712891-1.2593994.0012207-2.5134277-.1159668-3.7670288-.2392578-.3997192-.0391846-.7941895-.135376-1.1934204-.1871338-.3862305-.0501709-.7906494-.0284424-1.1596069-.1256104-.4550781-.119873-.930603-.0905762-1.3652954-.2141113-.538208-.1530762-1.1120605-.0905762-1.6317139-.3085938-.1002808-.0422363-.2304688-.0268555-.3463745-.0418701-.6818848-.088623-1.3417358-.262085-2.005249-.4289551-.4399414-.1105957-.8796997-.2155762-1.3131714-.3486328-.6644287-.2038574-1.3458862-.3638916-2.0053711-.5792236-1.4604492-.4769287-2.9161987-.9663086-4.3654175-1.4699707-1.3627319-.4736328-2.7074585-.9882812-4.0194702-1.5644531-.7191162-.315918-1.4076538-.6853027-2.1222534-1.0097656-.7119751-.3232422-1.4397583-.6193848-2.1584473-.9313965-.0366821-.0158691-.0560913-.0627441-.081604-.0987549.480957.0137939.8953857.2476807,1.3515625.34729.534729.1168213,1.0689087.2443848,1.5910034.4007568.6172485.1849365,1.2697144.2357178,1.8775024.4484863.0177002.0062256.0385132.005249.0578003.0080566.5709839.083374,1.1401367.1868896,1.7133789.2454834.9624634.0983887,1.9107666.3577881,2.8797607.340332.8326416-.0150146,1.6607666.1066895,2.4859009.1044922.4417114-.0012207.8927002.0666504,1.317749.0178223.5324707-.0612793,1.0640869.0617676,1.5961304-.026123.362793-.0598145.7549438.0241699,1.1422729-.0056152.7155762-.0550537,1.4470215-.0031738,2.1670532-.0371094.769104-.0361328,1.5313721-.1296387,2.2991943-.1799316.5651245-.0368652,1.1356812-.034668,1.7015381-.067749.7885132-.0460205,1.574707-.1092529,2.3620605-.1639404.2820435-.0196533.5638428-.0424805.8469238-.0528564.8513184-.0308838,1.7038574-.0509033,2.5546875-.0859375.6978149-.0286865,1.3928833-.0844727,2.0911865-.1063232.4765015-.0148926.956665.0115967,1.4348755.0130615.3236694.0010986.6465454-.0137939.9701538-.0131836.3236694.0006104.6535034.1134033.9711914-.0064697.0311279-.0117188.0767212.0029297.1156006.0046387.8286133.0360107,1.6577148.0578613,2.4855957.1115723.8158569.0529785,1.6393433.0878906,2.4434814.2207031,1.157959.1914062,2.296814.4782715,3.3869629.9008789.43396.1682129.8708496.3303223,1.3405151.5083008-.0760498.192627-.1331787.3416748-.1936646.489502Zm-1.0280151-3.3112793c-.4780884-.1636963-.9794312-.2718506-1.4672852-.4138184-.4746094-.1379395-.9815674-.1378174-1.4489136-.3117676-.1209106-.0449219-.269104-.0332031-.4049072-.0449219-1.1063843-.0952148-2.2133179-.2370605-3.3189697-.2685547-.7615967-.0216064-1.5315552-.1169434-2.291687-.0256348-.1120605.0134277-.232605-.0117188-.3491211-.0201416-.6116943-.0435791-1.2160645-.0030518-1.8231201.0272217-.3208618.0159912-.6449585.0058594-.9690552.0246582-.8455811.0488281-1.6920166.0805664-2.5327759.1721191-.5593872.0610352-1.1351318.0366211-1.6997681.076416-.4698486.032959-.9438477.0527344-1.4085083.0952148-.8232422.0753174-1.6477051.1242676-2.4746094.1696777-.7302856.0402832-1.4523315.1434326-2.1820679.1894531-.6229248.0394287-1.2607422-.0054932-1.8743286.0686035-.3950806.0478516-.7926636-.0300293-1.1870728.0620117-.2792969.0651855-.5993042-.0073242-.9087524.0213623-.5070801.0472412-1.0318604-.0084229-1.5487671-.0115967-.284729-.001709-.5683594.0205078-.8530273.0223389-.265625.0015869-.5378418-.0950928-.7966919.0205078-.0437012.0195312-.114624-.0015869-.1728516-.0059814-1.0996704-.0803223-2.2008057-.0383301-3.3009644-.1733398-.734436-.0900879-1.4776611-.1086426-2.2111206-.2043457-.7196045-.0939941-1.4411011-.1877441-2.1489258-.3659668-.4242554-.1068115-.8779907-.1174316-1.2995605-.2302246-.5840454-.1560059-1.1786499-.276123-1.7649536-.4182129-.7546997-.1828613-1.4923096-.4064941-2.2363892-.6147461-.9449463-.2646484-1.859436-.5974121-2.7440796-.9956055-.7158203-.3223877-1.4519043-.6116943-2.1182251-1.0134277-.078125-.0471191-.1539307-.097168-.2090454-.1320801.3186646-.6074219.6278076-1.1966553.935791-1.7836914.2468872-.0421143.4474487.0681152.6672974.1223145.6466675.1593018,1.3062134.2717285,1.9627686.3945312,1.4389038.2689209,2.8911743.321167,4.3382568.4536133.8215942.0753174,1.6438599.0645752,2.4647217.0285645.3214111-.0141602.6467896-.0042725.9698486-.0097656,2.0546875-.0341797,4.0350342-.345459,5.9711304-.8532715,1.3934326-.3653564,2.776001-.75354,4.1482544-1.1694336,1.0626831-.3218994,2.1171265-.6499023,3.0853882-1.137207.5001831-.251709.9871216-.5224609,1.4700928-.796875.4857788-.276123.9663086-.5593262,1.4358521-.8544922.3650513-.2294922.711731-.4804688.7907715-.9543457-.0841064-.286377-.1086426-.6716309-.7184448-.8270264-.4146118-.074707-.8626709.0394287-1.3225098.225708-1.0496216.4248047-2.0772705.880249-3.0743408,1.3835449-.7250977.3659668-1.4351196.753418-2.1685791,1.1071777-1.4813843.7145996-3.0262451,1.3240967-4.6456909,1.7956543-1.0223389.2976074-2.0828857.4973145-3.1603394.6243896-.8563232.1009521-1.7156982.1846924-2.5901489.1960449-.6071777.0078125-1.2155762.0229492-1.8218994.041626-.6188965.019165-1.2367554-.0817871-1.84375-.0543213-.9533691.0432129-1.8918457-.1038818-2.8362427-.1650391-.932251-.0604248-1.8629761-.1602783-2.7943115-.2442627-.0152588-.0013428-.0291748-.0201416-.0765381-.0549316.2111816-.3972168.3065186-.8326416.3198853-1.2880859.0134277-.4597168.0576782-.9174805.0888062-1.3823242,1.4730835-.0693359,2.8988037-.234375,4.3106079-.4718018,2.8676758-.4822998,5.5941772-1.300415,8.2549438-2.2675781,1.7047729-.619751,3.3629761-1.3200684,5.0227661-2.0186768,1.6942139-.7132568,3.3965454-1.4130859,5.0405273-2.2027588,1.1101074-.5332031,2.1887207-1.1119385,3.2772827-1.6756592,1.0567017-.5473633,2.1123047-1.0961914,3.1603394-1.6547852.6370239-.3395996,1.2602539-.6973877,1.887146-1.0500488.7685547-.432373,1.5345459-.868042,2.3012085-1.3027344.0474854-.0269775.0917969-.0578613.1363525-.0883789.7841797-.5354004,1.5858154-1.0537109,2.3463745-1.6123047.5560913-.4084473,1.0604858-.8676758,1.583374-1.3081055.522522-.4401855,1.0450439-.8804932,1.5571289-1.3293457.4956665-.4345703.9561157-.8961182,1.3549805-1.4003906.3858643-.487793.7771606-.9729004,1.1434937-1.4716797.145752-.1984863.2307739-.4309082.3555908-.6713867.2636108.1733398.3458862.4486084.5145264.6760254.5909424.7966309.777771,1.6524658.6065063,2.5446777-.1068115.5566406-.2415771,1.1086426-.3483887,1.6662598-.0932617.4869385-.3118286.9512939-.4187622,1.4367676-.1158447.5256348-.1826172,1.0621338-.2409668,1.5974121-.0518799.4760742-.1046753.9570312-.0819092,1.4359131.0313721.6607666.1845093,1.3138428.4190674,1.9561768.3742676,1.0249023.9312744,1.9816895,1.5678101,2.9101562.6090088.8880615,1.0657349,1.8244629,1.3203735,2.8190918.1785278.6975098.3157959,1.4012451.4713135,2.1021729.1626587.7332764.324707,1.4666748.4882202,2.1998291.0141602.0634766.0522461.1262207.0534058.1885986.0098267.5240479-.0279541,1.0496826.0292969,1.5714111.078125.7121582.0978394,1.425293.1646118,2.137207.1071167,1.1428223.5002441,2.2248535.8356323,3.3251953.2045288.6710205.3392944,1.3549805.5119019,2.0595703-.5272217-.2163086-.9906616-.4321289-1.4752808-.5981445Z" stroke-width="0"/>
    </g>
  </g>
</svg>