<?xml version="1.0" encoding="UTF-8"?>
<svg id="Layer_2" data-name="Layer 2" xmlns="http://www.w3.org/2000/svg" viewBox="0 0 130.9104668 245.5535891">
  <g id="Layer_1-2" data-name="Layer 1">
    <g>
      <path d="m65.45693,98.1487853c.0999062.3752574.2826614.7566067.5117147,1.0733825.2619492.3618554.6128393.4325208.9686028.1876287.2899717-.198594.3484533-.4922208.1900655-.9515457-.0962511-.277788-.1705716-.5665413-.2436737-.8443292-.0499531-.1912838-.0999062-.3825677-.1571695-.5701964l-.0889409-.2960635c-.2668227-.883317-.5433923-1.7958749-.8406741-2.682847-.0268041-.0804123-.1206185-.1583879-.2180879-.2400186-.0121837-.0097469-.0243674-.0207123-.036551-.0304592-.0109653.0109653-.0219306.023149-.0328959.0341143-.0913776.0962511-.1791001.1864104-.2059042.2802247-.1108715.3728207-.1937206.7590435-.2814431,1.1671968-.0328959.1498593-.0645735.300937-.0999062.4568881.046298.2168696.0913776.4361759.1364573.6567005.1194001.5799433.2412369,1.1793805.3984064,1.7593238Z" stroke-width="0"/>
      <path d="m64.7782989,169.6487299h-.0012184c-.0840674,0-.3557635.2461104-.4715085.3508901l-.092596.0840674c-.0377694.0328959-.0645735.1559511-.082849.2461104-.0073102.036551-.0158388.0731021-.0243674.1072164-.7748822,3.0922188-1.1501397,5.9432006-1.1464846,8.7162069,0,.092596-.0012184.185192-.0024367.2790063-.0036551.1949389-.0073102.3910962.0048735.5848168l.0292408.5251167c.0341143.6164944.0682286,1.2549194.1510777,1.8714137.0304592.2388002.1267103.4288656.2631676.5202433.1011246.0706654.2278349.0840674.3752574.046298.1669165-.0426429.2814431-.1218368.3423615-.2327083.0657919-.1230552.0645735-.2936268-.0036551-.4922208-.0353327-.1011246-.0280225-.2059042-.0219306-.2985002.0024367-.0292408.0048735-.0597.0048735-.0877225.0292408-3.1848148.3313962-6.2697234.8991558-9.1694399.1413307-.7200557.2071226-1.5168686.2034675-2.4355183-.0012184-.1998124-.2400186-.5446106-.4264289-.615276Z" stroke-width="0"/>
      <path d="m130.7431962,149.8551182c-.0341143-.0877225-.0207123-.175445-.0109653-.2461104.0048735-.0316776.0097469-.0621368.0085286-.082849-.0109653-.1876287-.0109653-.3801309-.0109653-.5714147,0-.4191187,0-.81387-.1120899-1.1769438-1.0417049-3.3797537-2.4391734-5.6118045-4.5298934-7.2395445-.5714147-.4447044-1.1343009-.916213-1.6776932-1.3718827-.2985002-.2497655-.5957821-.499531-.8967191-.7456414-.2924084-.2388002-.3387064-.5019677-.152296-.8516395,1.1866907-2.2357059,1.9469526-4.7126486,2.3953121-7.7939021.370384-2.5402979.8516395-5.1597898,1.4705706-8.0058982.6030923-2.775443,1.2256785-5.6447004.5251167-8.5748762-.1096531-.453233-.2046859-.9089028-.2997186-1.3657909-.2972819-1.4145256-.6030923-2.8790043-1.323148-4.2045891-.7042169-1.2987806-1.3572623-2.6219286-1.9591363-3.8573541l-.0670103-.1364573c-.7821925-1.6045911-1.591189-3.2652271-1.9104015-5.0720673-.046298-.2558573-.0840674-.5129331-.1218368-.7712271-.0743205-.499531-.1510777-1.0173375-.2850982-1.5071216-.1876287-.6895965-.4032799-1.3865031-.6128393-2.0602608-.254639-.8187435-.5178065-1.6667279-.7334577-2.5110571-.2765696-1.0831294-.8613864-2.0468588-1.4267093-2.9801289l-.092596-.152296c-.4800371-.7943761-1.2524826-1.4145256-2.2966243-1.8446096-.9917518-.406935-2.0492955-.5884719-3.2664455-.5494841-2.4160244.0743205-4.8332671.6067474-7.1834996,1.5826604-.4434861.185192-.8845354.3776942-1.3243664.5714147-.8991558.393533-1.8275525.800468-2.7742247,1.1257723-3.2128372,1.1026233-5.8201454,3.006933-7.9705655,5.8238006-2.6085266,3.4150864-4.8966223,5.7860311-7.4174263,7.6866857-1.0234294.7724455-1.974975,1.7020605-2.7510757,2.6913756-2.4635407,3.13608-4.9295182,6.3537908-7.313865,9.4655034-.9417987,1.2293336-1.8848158,2.4586673-2.8290512,3.6855642-.0389878.0499531-.0877225.0755388-.1340205.0986878-.0182755.0097469-.0389878.0207123-.0609184.0341143l-.0889409.0523898-.082849-.0609184c-.2022491-.1468134-.4154636-.2451966-.6298964-.3420569-.0243674-.2643859-.0505623-.5296856-.0621368-.7971175-.0060918-.1608246-.0085286-.7017801.2436737-.9271783.6420801-.5738515.8967191-1.3182745.7590435-2.2113385-.069447-.4459228-.2205247-.8820987-.3801309-1.3438603-.0755388-.2156512-.1510777-.4361759-.221743-.6640107l-.0304592-.0986878.0779756-.0670103c.1279287-.1072164.2607308-.2144328.3984064-.3253043.3253043-.2619492.661574-.5336453.9661661-.8418925l.1011246-.1023429c.3594187-.3630738.7322394-.7383312.8967191-1.1732887.7943761-2.0992486.6140576-4.1790033-.5373004-6.1832192-.0645735-.1133083-.1328021-.2205247-.1998124-.3265227-.2741329-.4325208-.5567943-.8784436-.5056229-1.5290522.0219306-.2656043-.1413307-.5909086-.2838798-.8772252l-.023149-.0450796c-.3898779-.7846292-.7882843-1.5643849-1.1866907-2.3429223-.7188373-1.4047787-1.4608236-2.8570737-2.1382364-4.3142422-1.1635417-2.5013102-.9649477-4.9624142.5750698-7.1164893.8284905-1.1598866,1.8275525-2.206465,2.7925002-3.2177107l.5433923-.5714147c.7224924-.7626986,1.4328011-1.6228666,1.7313014-2.752294.4093718-1.5412359-.175445-2.8692574-1.4888461-3.3834088-.2741329-.1072164-.5860352-.1340205-.916213-.162043-.162043-.0134021-.3277411-.0280225-.4958759-.0511715l-.2826614-.0402062.1864104-.2156512c.2497655-.29119.5056229-.5775066.7626986-.8650415.5701964-.6372066,1.1598866-1.2975623,1.6728197-1.9993424l.3460166-.4702902c.7261475-.9783498,1.475444-1.9908138,1.9104015-3.1068392,1.5595114-3.9986848,1.8616668-8.2690658,1.951826-11.5428214.0353327-1.299999-.0182755-2.6280205-.069447-3.9121807-.0450796-1.1208989-.0913776-2.2807855-.0791939-3.4211782.0304592-2.8522002.0950327-5.7506985.1583879-8.5541639.0499531-2.2673834.1011246-4.5335485.1352389-6.7997136.036551-2.4257713.0572633-4.852761.0779756-7.2785323.0304592-3.4881885.0621368-7.0945587.1413307-10.6412289.0986878-4.3361728-.509278-8.6199558-1.8068402-12.7295122-.5665413-1.7958749-1.3426419-3.2676638-2.3709447-4.4982158-.2826614-.337488-.5762882-.6055291-.8723517-.7980312-.4130269-.2668227-.8492027-.3582003-1.253701-.2619492-.406935.0974695-.7566067.3764758-1.0124641.8089966-.2497655.4215554-.4568881.9320518-.6335515,1.5595114-.5068412,1.7983116-.4179003,3.6843458-.3326146,5.5082432l.0097469.1949389c.0974695,2.0687894.2168696,4.1716931.3326146,6.2051498.2266165,3.982846.4605432,8.1021493.5409555,12.1568791.0840674,4.1729115-.0328959,8.4164883-.1462042,12.5199528-.036551,1.3060908-.0718837,2.6109633-.1023429,3.9158358-.0487347,2.1248343-.4337391,4.3191157-1.2134948,6.9032749-.0572633.1900655-.129147.3752574-.2193063.6091842-.0450796.115745-.0950327.244892-.1498593.3923146l-.1437675.383786-.3021553-.7748822c-.0816307-.2095594-.1449858-.3679472-.2010308-.5275535-.5299902-1.4669155-.7687904-3.1080576-.7334577-5.0172407.0268041-1.3840664.0731021-2.7900634.1181817-4.1497625.0840674-2.5232408.1705716-5.1329857.1340205-7.6952143-.0889409-6.2295172-.2716961-12.8732796-.592127-21.5419702-.0767572-2.0480771-.4520146-4.1850952-.7529516-5.9029945-.2095594-1.1964377-.7273659-2.2466712-1.4961563-3.0398289-.9612926-.9893151-2.1150874-1.0465784-3.1641025-.1510777-.8894089.75417-1.4303644,1.7434851-1.5656033,2.8619472l-.1169634.9661661c-.3082472,2.5268959-.6262413,5.1415143-.731021,7.7183633-.1328021,3.2323311.1864104,6.5024317.4946575,9.6640975.138894,1.4267093.2826614,2.9021533.383786,4.3556667.4276473,6.2063682.7626986,11.8084257.5178065,17.5140445-.0487347,1.1001866-.129147,2.3989672-.3630738,3.6940927-.1206185.6688842-.3630738,1.0611988-.7200557,1.1671968-.3728207.1096531-.8029047-.1035613-1.2914704-.6298964l-.0475164-.0511715c-.1547328-.1656981-.3301778-.3545452-.4093718-.5835984-.0974695-.2838798-.2095594-.5677596-.3216492-.8516395-.29119-.7395496-.592127-1.5034665-.651827-2.285659-.1547328-2.0505139-.2253981-4.1412339-.2936268-6.1637253-.0353327-1.0392682-.0706654-2.0797547-.1169634-3.1178045-.0548266-1.2500459-.1267103-2.5000918-.1973757-3.7489193-.2010308-3.506464-.4081534-7.1335465-.2400186-10.7228595.0804123-1.7032789.0523898-3.4443272.0255857-5.1268939-.0146204-.9198681-.0292408-1.8714137-.0268041-2.8059022.0024367-1.1793805.0182755-2.3587611.0341143-3.5381416.0158388-1.1781622.0316776-2.3563243.0341143-3.5344865.0048735-1.7678524-.4897841-3.5149926-1.5119951-5.3425451-.5263351-.939362-1.3012174-1.2744133-2.3173365-.9807865-1.5497645.4459228-2.4586673,1.5899707-2.7011226,3.400466-.4910024,3.6648519-.9101211,7.2371078-1.2488275,10.6168615-.3289594,3.3127435-.5957821,6.6510726-.7919394,9.9223916-.1669165,2.7815349-.2826614,5.7446066-.3764758,9.6080525-.0767572,3.1677576-.1559511,6.8521034-.1169634,10.4986798.0182755,1.7142442.1364573,3.4589476.2509839,5.1451694.046298.6798495.092596,1.359699.1328021,2.0383302.0121837.208341.0219306.416682.0316776.6262413.0304592.6530454.0609184,1.3280215.1730083,1.9713199.1888471,1.0843478.4032799,2.183316.6104025,3.2457332.2570757,1.313401.52268,2.6706633.7407679,4.0145236.2619492,1.6070278.7955945,3.1494821,1.3109643,4.6407649.2473288.7151822.5031861,1.4547318.7273659,2.193063.661574,2.1942813,1.5631665,4.1253951,2.7547308,5.9029945.3460166.5165882.6676658,1.0417049,1.0075906,1.5972809.1571695.2570757.3179941.5190249.4836922.7846292l.1279287.2059042-.4142452.0548266c-.0877225.0121837-.1535144.0207123-.2193063.0280225-1.1038417.115745-2.0298016.7334577-2.5415163,1.6959687-.5604494,1.0526702-.5348637,2.3599794.069447,3.4967171.6140576,1.1537948,1.4656971,1.9969057,2.5317694,2.5061836,2.0237098.9686028,3.3358924,2.7559491,4.0120869,5.4643819.0182755.0718837.0353327.1437675.0511715.2144328.1169634.5019677.2168696.9357069.7017802,1.0819111l.1632614.0499531-.2278349.5641045c-.0938144.2327083-.1827552.4544514-.2741329.6761944-.1486409.3618554-.29119.7285843-.4337391,1.0940947-.3204309.8199619-.651827,1.6691646-1.0490151,2.4659775-.3569819.7164006-.7590435,1.4206175-1.147703,2.1016853-.4617616.8102149-.9405803,1.647234-1.3414235,2.5049653-.7261475,1.5497645-.5397372,2.4111509.7371128,3.413868l.0670103.0523898-.0085286.0840674c-.0304592.3484533-.0670103.6883781-.1029521,1.0295212-.3929238-.5805525-.8223986-1.1681106-1.2969531-1.7678524-.8796619-1.1099335-2.0005608-2.0931568-3.3322373-2.9216472-1.9871587-1.2390806-4.2496687-2.1772242-6.9142402-2.8692574-2.03102-.5275535-3.9146174-1.3304582-5.5996208-2.3880019-1.7678524-1.1074968-3.4808783-1.8811607-5.2389838-2.3660713-.1608246-.0438613-.3253043-.1047797-.4910024-.1815369l-1.4900645-.6859414c-1.3280215-.6104025-2.7023409-1.2402989-4.0425461-1.8848158-2.6450776-1.2695398-5.3778777-1.7325197-8.1301718-1.3804113-2.3733815.3045921-4.4214586,1.4717889-6.281907,2.6877205-.7492965.4897841-1.4888461,1.1854724-2.2637283,2.1272711-1.6971871,2.0687894-2.1504201,4.5420771-2.355106,6.467099-.3642921,3.4163048-.777319,6.5779705-1.2622296,9.6665342-.1815369,1.1574499-.4568881,2.3148998-.7237108,3.4345803-.3423615,1.4413297-.698125,2.9326125-.8540762,4.4336423-.1864104,1.7946565-.2302716,3.8963419.8540762,5.874972.3740391.6822863.684723,1.405997.9844416,2.1053405.0999062.23149.1998124.46298.300937.6932516.7566067,1.7191177,1.5071216,3.4406721,2.2576365,5.1622266l.5421739,1.2427357c.0341143.0779756.0536082.162043.0682286.2266165l.0584817.2156512-.1681348.0316776c-.2570757.0475164-.5129331.0901593-.767572.1315838-.5726331.0938144-1.1123703.1827552-1.6411421.3313962-1.0746009.3021553-2.0237098.6298964-2.9033717,1.0002804-1.0417049.4386126-1.9725383.8455476-2.8046839,1.4023419-3.0203351,2.021273-4.5627893,4.4945607-4.713867,7.5624121-.0804123,1.6082462.4946575,2.9557615,1.7081524,4.0047767l.0706654.0584817c.0852858.0706654.1742267.1425491.2388002.2400186.98566,1.4681338,1.892126,2.9277391,2.1492017,4.6371098.2838798,1.8969995.4751636,3.8342051.6250229,5.4777839.1717899,1.8750688.5044045,4.3215524,1.5802237,6.6340155.7736639,1.6594176,2.0139628,2.8643839,3.6855642,3.5807845,1.7897831.767572,3.5576355,1.1038417,5.2475123.9661661,2.2332691-.1644797,4.4957791-.46298,6.6839686-.7517333.7870659-.1035613,1.5729135-.2071226,2.3599794-.3045921,2.9898758-.3728207,5.3924982-1.3657909,7.3431058-3.0337371.1279287-.1108715.2729145-.198594.4118085-.2826614.0645735-.0402062.129147-.0791939.1912838-.1206185l.2253981-.1486409.0170572.2692594c.0146204.2558573-.0536082.4410493-.1254919.6091842-.8223986,1.9006546-1.8604484,4.4251137-2.599998,7.1079608-.4751636,1.7264279-1.031958,3.5478885-1.6996238,5.5691616-1.1440478,3.460166-3.2006536,6.2611948-6.1125538,8.3263291-1.9359873,1.3755378-3.8634459,2.6999042-5.7275495,3.9353297-1.845828,1.2232418-3.5515436,2.6316756-5.0684122,4.1850952-.4544514.4641983-.8102149,1.0392682-1.1550132,1.5948441l-.1608246.2582941c-.0328959.0523898-.3131207.5214616.0304592.7407679.1876287.1206185.5409555.1644797.8589497.1145266.568978-.0962511,1.1428295-.2278349,1.6984054-.3545452.2948451-.0682286.5896903-.1352389.8845354-.198594,2.2320508-.4776004,4.4641015-.9503273,6.698589-1.4218358.2290532-.0487347.4568881-.0999062.6859414-.1510777.6104025-.1376756,1.2415173-.2802247,1.8762872-.3521084,1.2780684-.1474226,2.5805041-.2972819,3.7891255.2729145,2.6999042,1.2719765,4.5713179,2.5256775,6.0686926,4.0656951l.5397372.5567943c.8321456.8613864,1.693532,1.753232,2.6097449,2.5512633,1.5253971,1.3304582,3.1811597,3.0118065,3.899997,5.4071186.105998.3582003.3253043.5409555.6701026.5592311.0182755.0012184.036551.0012184.0548266.0012184.314339,0,.5567943-.1559511.7188373-.4654167.1791001-.3460166.3801309-.7480781.4946575-1.1537948.5775066-2.0468588,1.1757254-4.2228646,1.8299892-6.6547277.1145266-.4215554.2327083-.8406741.3508901-1.2610112.3265227-1.1635417.6652291-2.3672896.8918456-3.5661641.2388002-1.2658847.4276473-2.5646653.6091842-3.820803.1644797-1.1343009.3338329-2.3063712.5409555-3.4552925.6104025-3.3748802.939362-6.3927786,1.0063722-9.2242665.0816307-3.5052456.1961573-6.5791889.3496717-9.3972748.046298-.8540762.1669165-1.7154626.2826614-2.5488265.0852858-.6043107.1717899-1.2293336.2302716-1.8446096.1973757-2.1016853.6774128-4.2667258,1.4267093-6.4366398,1.147703-3.3249271,2.7730063-6.4707541,4.343483-9.5130198.8918456-1.7264279,2.0687894-3.3139618,3.2067454-4.8491059.5178065-.6993434,1.0538886-1.4218358,1.554638-2.1479833,1.4644787-2.1199609,2.9691636-4.4031831,3.8427337-6.9641933.1358481-.3996248.2345359-.5476566.4727269-.5902994-.1449858,1.6786069-.3429707,3.354168-.5421739,4.9922642-.0852858.6993434-.1705716,1.3999052-.2509839,2.100467-.1876287,1.6204299-.3959697,3.2664455-.5970005,4.8576345-.268041,2.1053404-.5433923,4.2825646-.7736639,6.4293296-.2424553,2.2576365-.3399248,4.6639139.5762882,6.9605382.1596062.3984064.314339.7992496.4690718,1.2000928l.268041.6908148-.5494841.4617616c-.3923146.3326146-.7736639.6542638-1.1623234.9673844-1.3414235,1.0806927-2.1638221,2.520804-2.5110571,4.4019647-.8223986,4.445826-.185192,8.8953071,1.8945627,13.2229513.6835046,1.4230542,1.4717889,2.8253961,2.2344875,4.1826584.3521084.6262413.7054353,1.2549194,1.0502335,1.8896893l.0475164.0852858-.0572633.0791939c-.0913776.1303654-.1925022.2643859-.2960635.4044983-.2388002.3216492-.486129.6542638-.7017801,1.0136824-.9503273,1.5838788-.8723517,3.377317.2144328,4.9185529.1681348.2400186.2741329.698125.1644797.999062-.3313962.9174313-.7273659,1.9786301-1.2256785,2.9594166-.9880967,1.9445158-2.6706633,3.1726311-5.0001836,3.6490131-.3204309.0657919-.6493903.0791939-.9661661.092596-.2473288.0097469-.5019677.0207123-.7456414.0560449-.7395496.105998-1.0161192.3813493-1.1355193,1.1367376-.254639,1.6192115-.3789125,3.0593228.6835046,4.2813463l.0889409.1023429-.0901593.1023429c-1.2378622,1.4120889-1.614338,3.1117127-1.8360811,4.737016-.0328959.2412369-.0755388.4812555-.1194001.7200557-.0584817.3277411-.1194001.6676658-.1510777,1.0002804-.3630738,3.7830336-.3228676,8.5931517,3.2481699,12.2421648l.0791939.0804123-.0511715.0999062c-.1267103.2497655-.2656043.4983126-.4044983.7492965-.300937.5397372-.6128393,1.0965315-.8029047,1.6850034-.8516395,2.623147-.8309272,5.2779715.0621368,7.8889348,1.2817235,3.7452642,4.9088059,6.3001826,8.6638171,6.0552905h.023149c.2485471,0,.5592311.2436737.6603556.4556698.5421739,1.1343009,1.3012174,1.8835974,2.3209916,2.2905324,2.6170551,1.0417049,5.6544474.0182755,7.2273609-2.4306448.1583879-.2473288.3131207-.4970943.4690718-.7505149l.2948451-.4776004.4020615.1571695c.2034675.0804123.3923146.1559511.5848168.221743.9880967.3362697,2.0578241.6189311,3.159229.393533,4.3105871-.8735701,7.7086163-4.7662569,7.9047736-9.0549133.0621368-1.3670093-.0889409-2.775443-.2351451-4.1375788l-.0621368-.5933454c-.1535144-1.4730073-1.022211-2.6146184-1.8616668-3.7196785l-.1315838-.1742267c-.2022491-.268041-.3594187-.545829-.0536082-.9880967,2.0748812-3.0032779,2.3343937-6.305056.7724455-9.8151752-.5044045-1.1330825-1.0953131-2.2515446-1.6655095-3.3334557-.2668227-.5044045-.5336453-1.0100273-.7943761-1.5205237l-.0548266-.105998.0889409-.0804123c.0816307-.0731021.1705716-.1486409.2643859-.2266165.2107777-.1778818.430084-.3618554.6189311-.5775066,1.0112457-1.1537948,1.2610112-4.0315808.4690718-5.4034635-.3618554-.6262413-.9052477-.9076844-1.5656033-.8248353-1.3523888.1559511-2.7108695-.1949389-4.2776912-1.1001866-.7602618-.4410493-1.382848-.9283967-1.8494831-1.4486399-1.3743195-1.5339257-1.5570747-3.5089008-1.5534196-5.2389838,0-.1766634.1023429-.3350513.1925022-.4751636.0353327-.0536082.069447-.1072164.0974695-.1608246.0938144-.1827552.198594-.360637.3033737-.5385188.2241798-.3801309.4349575-.7395496.5360821-1.1306458.4922208-1.9164934.0255857-3.4492007-1.3877215-4.5530424l-.1145266-.0901593.7164006-1.0599804c.5007494-.7419863.9941885-1.475444,1.4998114-2.1967181,1.0599804-1.5132134,2.2076834-3.3700068,2.6852838-5.6678494.4264289-2.0538644.5348637-3.9932022.3423615-5.8372026.5842076,1.3834572,1.0892213,2.6609164,1.5046849,3.8500439,1.3767562,3.9389848,2.6609164,7.2042119,4.4543546,10.3354184,1.577787,2.7571675,2.6657899,4.9161162,3.5259579,6.999526.6104025,1.4778808,1.2610112,3.2420781,1.4535134,5.1171469.2570757,2.507402.8760068,5.1573531,1.892126,8.0984942.3886595,1.1269907.674976,2.3014977.9515457,3.4382354.0974695.4020615.1961573.8041231.2985002,1.2049663.0511715.198594.0706654.3996248.0913776.5945637.0182755.185192.036551.360637.0779756.5299902.0621368.2497655.1608246.4081534.2790063.4459228.1108715.0341143.277788-.0328959.46298-.1937206,1.0794743-.9357069,2.3283019-2.0285832,3.4954987-3.1714127.5190249-.5056229.9954069-1.0709457,1.4571685-1.6179931.2144328-.254639.4288656-.509278.6493903-.7590435l.1705716-.1949389.092596.2412369c.0097469.0268041.023149.0572633.036551.0901593.0377694.0877225.0840674.1937206.1133083.3045921.0999062.3874411.1973757.7736639.2936268,1.1598866.162043.6445168.3228676,1.2878153.4983126,1.928677.2461104.8967191.499531,1.822679.823617,2.7169613.1352389.3752574.486129.5835984.9052477.509278.3886595-.0572633.5872535-.2826614.6871597-.7785374.0718837-.3642921.1510777-.7261475.2290532-1.0892213.0657919-.3033737.1328021-.6067474.1949389-.9113395.0986878-.486129.2168696-.9807865.3313962-1.4571685.2595125-1.0867845.5287718-2.2089018.5811617-3.3139618.115745-2.3880019.0048735-4.7796589-.1401124-7.4344835-.0731021-1.3523888-.2180879-2.7267083-.3582003-4.0559481-.0816307-.7736639-.1632614-1.5485461-.23149-2.3234284l-.0536082-.6323332c-.1120899-1.3645725-.2278349-2.7742247-.7005618-4.1022461-1.7239912-4.8405773-3.4431089-9.1012113-5.2536042-13.0243573l-.3033737-.6554822c-1.253701-2.7035593-2.5500449-5.4984962-2.970382-8.5334517-.0146204-.1133083-.0316776-.2253981-.0499531-.3362697l-.046298-.3106839.3508901-.1035613.0645735.0755388c.0743205.0852858.1498593.1681348.2253981.2522022.162043.1815369.324086.3618554.4739453.5519208,1.101405,1.4011236,2.4550122,3.0093697,4.144889,4.3191157,2.3831284,1.845828,5.0647571,3.3748802,7.9693472,4.5432955,2.0273649.8163068,4.482377,1.6289584,7.2163955,1.4011236,1.6301768-.129147,2.7133062-.5519208,3.5113375-1.369446.6067474-.6189311,1.1854724-1.3438603,1.8799423-2.3514508.7761006-1.1282091,1.5278339-2.299061,2.2564181-3.4321435l.6408617-.9966253c.3996248-.6177127.8041231-1.2329887,1.2098397-1.8482647.9576375-1.4547318,1.9481709-2.9581983,2.84489-4.4775036,1.1659785-1.974975,2.0249281-4.1278319,2.854637-6.2088049.393533-.9868783.800468-2.007871,1.2366438-2.9984044.4179003-.9515457.4800371-1.6850034.2046859-2.3794733Zm-6.0163027-30.2399016c-.0621368.2887533-.1230552.568978-.1766634.8516395-.105998.5507025-.2156512,1.101405-.3265227,1.6521074-.2716961,1.3536072-.5519208,2.752294-.7492965,4.1351421-.1194001.8260537-.1559511,1.6813483-.1912838,2.507402-.0255857.5726331-.0511715,1.1647601-.1035613,1.7459218-.2132145,2.3587611-.9917518,4.574973-2.3124631,6.5877175-1.0477968,1.5948441-2.5000918,2.5646653-4.3191157,2.8814411-.7456414.1303654-1.4937196.2534206-2.2417977.3776942-1.2719765.2095594-2.5878143.4276473-3.8731929.6761944-1.1233356.2156512-2.4416101.4958759-3.705058.9259599-2.5744123.8796619-5.4716921,1.4437665-8.8575377,1.7264279-.9076844.0706654-1.8299892-.0268041-2.7254899-.1267103-.416682-.0450796-.8321456-.0913776-1.2463908-.1194001l-.6506087-.0475164c-.6871597-.0511715-1.3986868-.1035613-2.0968119-.1315838-.7432047-.036551-1.3024357.1815369-1.7130259.6481719-.1169634.1352389-.3216492.2095594-.5616678.2095594-.0450796,0-.0913776-.0024367-.1376756-.0073102-.2948451-.0328959-.5299902-.1632614-.6298964-.3496717-.9040293-1.6971871-2.0651343-3.2835026-3.1884699-4.81621-.6640107-.906466-1.3499521-1.8433913-1.9786301-2.7973737-.846766-1.2841602-1.9664465-2.4757244-3.4199599-3.6404845-.7614802-.6116209-1.5656033-1.27685-2.6085266-2.1565119-.1242736-.1072164-.2144328-.3021553-.221743-.4739453-.0097469-.2022491.0036551-.4081534.0194939-.6457352.0073102-.1084348.0146204-.2253981.0207123-.3545452l.0194939-.3947513.4142452.4910024c.0645735.0791939.1120899.1364573.1632614.1912838.1669165.1815369.3265227.370384.486129.5592311.3350513.3959697.6810679.8065598,1.0843478,1.1282091,3.4747864,2.7681328,7.036077,4.2521054,10.8873393,4.5347669,4.5420771.3350513,9.4204238.5933454,14.3109542.2034675,1.5387992-.1218368,3.0922188-.4447044,4.5932486-.7578251.3679472-.0755388.7346761-.152296,1.101405-.2266165,1.4120889-.2838798,3.0885637-.4666351,4.7942793.3326146.4471412.2095594.9478905.3484533,1.4328011.4824739.1632614.046298.3265227.0913776.4885657.138894.5080596.1535144,1.1732887.2059042,1.4900645-.370384.2619492-.4788187.0865042-1.0307396-.4568881-1.4401113-1.5790053-1.1866907-3.3419843-1.5643849-5.246294-1.114807-1.1659785.2729145-2.3283019.5933454-3.3273639.8723517-2.7315818.7639169-5.583782,1.0307396-8.4871537.8029047-2.4647591-.1949389-5.1329857-.3508901-8.1581942-.476382-1.8397362-.0779756-3.4455456-.3460166-4.9100243-.8199619-.2668227-.0865042-.5348637-.1717899-.8016864-.2558573-1.9810669-.6286781-4.029144-1.2780684-5.7665372-2.5098387-.6761944-.4788187-1.3158378-1.022211-1.9335505-1.5473278-.268041-.2290532-.5373004-.4568881-.8089966-.6810679-.4142452-.3399248-.8248353-.6810679-1.2329887-1.0270845-.0755388-.0633552-.1693532-.1644797-.1827552-.2850982-.0609184-.532427-.115745-1.0648539-.1705716-1.5936258l-.0852858-.8175251.2424553.0999062c.2802247.1145266.5580127.2327083.8345823.3508901.6079658.2595125,1.1830356.5044045,1.7849096.7151822,2.7998104.9807865,5.8883741,1.4096521,9.4655034,1.33655,2.6816287-.0609184,5.4059002-.1559511,8.0412309-.2473288l1.4864093-.0523898c3.3809721-.1169634,6.8423565-1.0331763,10.5815288-2.8010288,1.7361749-.8199619,3.4479823-1.7617606,5.1025265-2.6731001.3971881-.2193063.7931578-.4373942,1.1915642-.6542638,1.3657909-.7480781,2.8387982-1.0380498,4.6663507-.9149946,1.0197743.0682286,2.0797547.0024367,3.1007474-.0621368.2607308-.0158388.5214616-.0328959.7821925-.0475164.1669165-.0085286.3435799-.0901593.5470474-.1827552.1108715-.0511715.2278349-.1047797.3557635-.1535144l.2668227-.0999062-.152296.7090904Zm-33.4247164,27.2414972l-1.5595114.3898779-.4410493-.9552008.152296-.0621368c.4751636-.1876287.9929702-.046298,1.5984992.4313024l.2497655.1961573Zm-9.0683154-32.3622992c1.1318642-1.6886585,1.8872525-3.575911,2.6158368-5.4022451.254639-.6372066.509278-1.2756316.7797557-1.905528.6201495-1.4437665,1.3402051-2.507402,2.2661651-3.3492945,1.6984054-1.5400176,3.1677576-3.3176169,4.5883751-5.0367346.4678534-.5665413.9357069-1.1330825,1.4133072-1.6923136.2180879-.2570757.4325208-.5165882.6481719-.7761006.4495779-.5433923.9149946-1.1050601,1.4096521-1.6289584,1.6155564-1.7057156,3.4150864-2.682847,5.5021513-2.9862207.2850982-.0414245.5726331-.0791939.860168-.1181817.8077782-.1084348,1.6423605-.2205247,2.4428285-.4020615.8199619-.185192,1.647234-.4118085,2.4464836-.6311148.731021-.1998124,1.4876277-.406935,2.2405793-.5835984,1.5363624-.3582003,3.1153678-.6530454,4.6432017-.9381436.4020615-.0731021.8114333-.0402062,1.2061846-.0085286,1.0185559.082849,1.8031851.5421739,2.3295202,1.3645725,1.4120889,2.2113385,1.1623234,4.8795651-.6493903,6.9617566-1.7824728,2.0480771-3.9438582,3.6928744-6.4244561,4.8880937-3.5539804,1.7142442-7.8146144,3.6526682-12.4663446,5.0416081-.4264289.1267103-.8540762.2509839-1.2817235.3764758-1.4644787.4276473-2.9801289.8686966-4.4214586,1.4120889-3.2579169,1.2256785-6.1259559,3.1409535-8.5590374,4.8405773-.3460166.2424553-.6944699.4824739-1.0429233.721274l-.3496717.2412369-.2668227-.2863166.069447-.1023429Zm-6.2502295,6.9983076c.1218368-.0402062.2436737-.0791939.3679472-.105998,1.915275-.4081534,3.7562295-1.2268969,5.6312984-2.5037469l.4520146-.3058104c1.0417049-.7054353,2.1175241-1.4340195,3.1044025-2.229614,3.6441396-2.9362676,7.8097409-5.0903428,12.7368224-6.582844,4.2984034-1.3036541,8.312927-3.0130248,11.9302626-5.0805959,3.1811597-1.8190239,5.6861249-3.8025275,7.6611-6.0650375.3387064-.3898779.6506087-.8016864.9807865-1.2378622.1559511-.2071226.3155574-.4179003.4824739-.6323332l.221743-.2838798.1023429.6481719c.0328959.2034675.0633552.3910962.0865042.578725.2388002,1.8701954.823617,3.761103,1.8982178,6.129611.5141514,1.1355193,1.1282091,2.4696326,1.7788177,3.7647581.5726331,1.1416111.9259599,2.4111509,1.1452662,4.1180849.0609184.476382.138894.952764.2156512,1.429146.23149,1.4169624.4690718,2.8826594.268041,4.366632-.0121837.092596-.023149.185192-.0377694.3094656l-.0816307.6944699-.2339267-.3301778c-.4666351-.6567005-1.091658-.8150884-1.7544504-.9844416l-.1206185-.0304592c-1.9591363-.5044045-3.8342051-.1108715-5.8908108,1.2354255-2.8704758,1.8811607-6.0857497,3.5381416-9.8297956,5.0671938-2.3027161.939362-4.8832202,1.4596052-7.6671918,1.5436727-1.3499521.0402062-2.7230532.1096531-4.0498563.1766634-2.100467.105998-4.2484503.2144328-6.397652.2144328-1.101405,0-2.2040283-.0280225-3.3005598-.0999062-3.7196785-.2424553-6.6449808-1.0270845-9.2047726-2.4659775-.4958759-.2790063-.7224924-.6177127-.7566067-1.1294274l-.0073102-.1242736.2692594-.0840674Zm-2.4111509,1.6825666c.555576,2.137018.5653229,4.2862197.5031861,6.1101171-.0438613,1.2951255-.8881905,2.2454528-2.5829408,2.9058084-.2814431.1096531-.5634953.1906746-.8455476.2631676-.7285843.1867149-1.4577777.2555528-2.1820977.1906746-.3179941-.0286317-.6359883-.0788893-.9515457-.1565603-.9308334-.2241798-1.8628852-.1772726-2.831488.115745-.1535144.046298-.3052013.082849-.4605432.1425491-.0328959.0134021-.2327083.0877225-.4276473.0877225-.092596,0-.1839736-.0170572-.2558573-.0657919-.1681348-.1133083-.1669165-.3874411-.1535144-.6359883.0560449-.9661661.115745-1.9323321.1742267-2.8984982.1047797-1.716681.2095594-3.4333619.2985002-5.1500429.0402062-.7748822.0207123-1.5668217.0012184-2.3343937l-.0085286-.3582003c-.0060918-.2601216.0536082-.4690718.1656981-.6323332.1273195-.1858012.324086-.3112931.5970005-.360637.4239922-.0767572.8516395-.1376756,1.2792867-.198594.3484533-.0499531.6956883-.0986878,1.0429233-.1571695,1.0136824-.1730083,2.0626976-.3508901,3.0849086-.5653229.5653229-.1206185.9417987-.0986878,1.2817235.0700562.2339267.115745.4526238.2893625.6944699.5781158l.0913776.1084348-.0999062.1011246c-.0560449.0560449-.1108715.1096531-.1644797.162043-.1023429.0999062-.1998124.1949389-.2875349.2972819-.3106839.3655105-.370384.7127455-.1839736,1.0599804.1656981.3106839.46298.4568881.9344885.4568881.0085286,0,.016448-.0003046.0249766-.0006092.0134021,0,.0274133,0,.0408153-.0006092.9332701-.0268041,1.0002804.0219306,1.2208051.8650415Zm-3.8683194-4.4787219c-.0548266.023149-.1084348.0475164-.162043.0718837-.1462042.0670103-.2972819.1364573-.4617616.175445-.1839736.0438613-.3655105.0889409-.5482657.1340205-.568978.1425491-1.1574499.2887533-1.7495769.3569819-.2010308.023149-.4032799.0438613-.6043107.0645735-1.1879091.122446-2.3075896.2665181-3.2835026.8942823-.1803185-.1675256-.2765696-.406935-.268041-.7419863.0158388-.5896903.0121837-1.1830356.0085286-1.8117137-.0012184-.2765696-.0024367-.5604494-.0024367-.8565129v-.1181817l.1133083-.0316776c.2850982-.0804123.5701964-.175445.8577313-.2692594.6725393-.221743,1.3670093-.4507963,2.077318-.5165882.6652291-.069447,1.3560439.1096531,2.0200547.2765696.1656981.0414245.3301778.082849.4934392.1194001.3521084.0804123.7029985.1912838,1.0417049.2972819.4154636.129147.8431109.2643859,1.2695398.3411431.4605432.082849.6603556.3058104.6908148.7700088.0103561.1608246.0219306.3207355.0335051.4812555-.4824739.0341143-.9838324.1334113-1.5260063.3630738Zm-8.0972758-4.6870629c.2040767-.1498593.4836922-.2442828.8626048-.2948451.4507963-.0597.906466-.2071226,1.346297-.3484533.208341-.0670103.416682-.1352389.6262413-.1937206.0743205-.0207123.1498593-.0487347.2253981-.0767572.198594-.0718837.4008432-.1437675.6201495-.1267103,1.7373932.162043,3.5259579.3289594,5.2779715.5726331.5580127.0779756,1.2476092.4288656,1.3682276,1.6630728l.0207123.2059042-.2046859-.0377694c-.2753512-.0523898-.5507025-.0865042-.8199619-.1206185-.592127-.0755388-1.1525764-.1462042-1.6630728-.3801309-1.9116199-.8723517-3.8086194-.7834108-5.9785333.2765696-.4032799.1961573-.8455476.3045921-1.2744133.4093718-.0146204.0036551-.02985.0079194-.0450796.0115745-.1041705-.5245076-.2235706-1.04536-.3618554-1.5601206Zm11.6463827-34.7722317c.4836922-.486129.9552008-.5470474,1.4023419-.1730083.4983126.4154636.6274597.952764.3740391,1.554638l-.0913776.221743c-.1583879.3910962-.3216492.7955945-.5872535,1.1123703-1.0490151,1.2561377-2.1114323,2.4818163-3.2372046,3.7793785-.4154636.4800371-.837019.9673844-1.267103,1.4656971l-.3167758.3667289.0438613-.4836922c.023149-.2656043.0438613-.5299902.0645735-.7919394.1364573-1.7775994.2656043-3.4577293,1.498593-4.8186467.8358007-.9198681,1.4876277-1.6082462,2.1163058-2.2332691Zm-12.712455,6.5536032l-.0657919-.0877225c-.6944699-.9271783-1.5716951-1.5205237-2.7632593-2.1784425-.6956883-.383786-1.2402989-1.0636355-1.7678524-1.7215544l-.0548266-.0682286c-.3679472-.4605432-.3728207-1.0892213-.0121837-1.8202423.2985002-.6043107.8540762-.6140576,1.3450786-.6225862h.0548266c1.1428295,0,1.9871587.6177127,2.3819101,1.7459218.3557635,1.0185559.6554822,2.0748812.9454538,3.0970923.1279287.4507963.2558573.9028109.3886595,1.3523888l.0426429.1462042-.4946575.1571695Zm-1.3389868,16.741599c.0389878-.0938144.0767572-.1900655.1133083-.2863166.0852858-.221743.1717899-.4495779.2936268-.6591373l.2253981-.3886595c.4946575-.8528578,1.0051539-1.7337381,1.554638-2.5683204,1.3085276-1.9895955,1.9701016-4.2630707,2.021273-6.9483545.0121837-.6445168-.1072164-1.3109643-.2241798-1.9542628-.0292408-.1596062-.0572633-.3192125-.0840674-.4788187l-.0255857-.1535144c-.3094656-1.8385178-.6286781-3.7391724-.9905334-5.597184-.4873473-2.5122755-1.4632603-4.7747854-2.900935-6.7253931-.9515457-1.2890337-1.8092769-2.5646653-2.5512633-3.7903438-2.1772242-3.59906-3.608807-7.776845-4.2533238-12.4151731-.1315838-.9539824-.2741329-1.9067464-.416682-2.8595104-.1681348-1.1330825-.3435799-2.3051529-.4983126-3.4613844-.1023429-.7663537-.1596062-1.5850972-.1742267-2.5013102-.0170572-1.101405-.0523898-2.2210854-.0865042-3.3042149-.0804123-2.5342061-.1632614-5.1549163-.0194939-7.7451674.1437675-2.5890327.1937206-5.2280184.2424553-7.7805001.0292408-1.5534196.0597-3.159229.1108715-4.7382344.0731021-2.206465.1900655-4.2082442.3594187-6.1210824.3898779-4.3909994.8455476-9.182842,1.3962501-14.6484423.1023429-1.022211.3387064-2.0163996.5567943-2.854637.0889409-.337488.2643859-.6432985.4349575-.939362.0755388-.1303654.1510777-.2607308.2180879-.393533l.0645735-.1267103.4239922.1681348.0268041.0487347c.6713209,1.2025295,1.0161192,2.5451714,1.0526702,4.1046829.0243674,1.0197743.0450796,2.0395486.0670103,3.0593228.0438613,2.1321446.0889409,4.3361728.1632614,6.5024317.0426429,1.2561377.1194001,2.5317694.1937206,3.7671948.0584817.9588559.115745,1.9177117.1596062,2.877786.046298,1.0514519.0791939,2.1029037.1133083,3.1543556.0389878,1.2573561.0804123,2.5585735.1449858,3.8366418l.0536082,1.0526702c.2461104,4.87591.5019677,9.9162997.8284905,14.8689669.1242736,1.8726321.7176189,3.3468578,1.762979,4.3836892.4447044.439831,1.078256.8041231,1.786128,1.0258661,1.0258661.3167758,1.8275525-.1133083,2.2076834-1.1866907.3728207-1.0465784.5738515-1.9445158.6164944-2.7486389.2948451-5.4972778.2826614-10.4012103-.0377694-14.9920221-.1035613-1.4876277-.2193063-2.9752554-.3350513-4.4616648-.2059042-2.6304572-.4179003-5.3498553-.5543576-8.0314839-.3045921-5.9602578-.1194001-10.4864961.5994372-14.6728096.0889409-.5190249.3301778-1.0648539.6591373-1.4949379.3131207-.4044983.5641045-.5823801.8041231-.5299902.2412369.0389878.4227738.2704778.5848168.7480781l.0597.1717899c.3496717,1.0234294.7115271,2.0809731.7931578,3.1567923.314339,4.1509809.6627924,9.0744072.8662599,14.1160153.2071226,5.1378592.2850982,10.3658776.360637,15.4221061.0219306,1.4328011-.0097469,2.8850962-.0402062,4.2910932-.0219306.9734763-.0426429,1.9481709-.0475164,2.9216472-.0085286,2.2332691.3033737,4.3325177.9271783,6.2404825.2266165.6908148.5494841,1.323148.9344885,1.8287708.3277411.4325208.75417.6688842,1.2049663.6688842h.0268041c.4836922-.0097469.9357069-.2838798,1.2744133-.7724455.2388002-.3460166.4386126-.7639169.5750698-1.2098397.7931578-2.5805041,1.2013112-4.9185529,1.2500459-7.1469485.0243674-1.1598866.0645735-2.3209916.1035613-3.4808783.0755388-2.2357059.1535144-4.5457322.1206185-6.8155524-.0426429-2.9131186-.1827552-5.8725353-.3179941-8.7357008-.0657919-1.3682276-.1303654-2.7376736-.185192-4.1071196-.0438613-1.1038417-.0767572-2.2076834-.1108715-3.3115251l-.138894-4.3398279c-.0804123-2.4562305-.1644797-4.9965285-.2253981-7.4954019-.0341143-1.3791929.2205247-2.6170551.8016864-3.8963419l.1303654-.2863166.1498593.2765696c.1218368.2278349.2497655.4361759.370384.6359883.2522022.416682.4910024.8089966.6116209,1.2390806l.0718837.2534206c.4507963,1.5936258.9174313,3.2420781,1.1732887,4.9027141.3764758,2.4501387.578725,4.5786281.6164944,6.5048684.0755388,3.8829398.1133083,7.8316715.1510777,11.6500378.0328959,3.4455456.0670103,7.0092729.129147,10.5133002.0304592,1.753232.1206185,3.5369232.208341,5.2621328.0877225,1.7361749.1778818,3.5308314.208341,5.2999022.0755388,4.3032769.0487347,7.836545-.0816307,11.1176109-.0718837,1.8104953-.347235,3.7988724-.8418925,6.0796579-.406935,1.8787239-.9820049,3.8634459-1.8068402,6.2477927-.3131207.9003742-.9673844,1.6971871-1.5022481,2.2917508-1.8982178,2.1053404-3.2701006,4.0084318-4.3178973,5.9882803-1.2451724,2.3538876-1.8044035,4.8685998-1.6618544,7.4771264.0779756,1.438893.2363635,2.8997166.3898779,4.3118055.0584817.5470474.1181817,1.0940947.1730083,1.6411421.0268041.2570757.0645735.5238984.1632614.7322394.2278349.4800371.4495779.9637293.6701026,1.4486399.8552946,1.8726321,1.73983,3.8098377,3.053231,5.4302676l.1425491.1742267c.1998124.2461104.406935.499531.5945637.7651353.1632614.2327083.2071226.4544514.1218368.6250229-.0560449.1108715-.1888471.2461104-.5044045.2558573-.0597.0012184-.1181817.0024367-.1766634.0024367-1.4120889,0-2.4477019-.4776004-3.1616658-1.4583869-.3167758-.4325208-.5190249-.6030923-.8747885-.5153698-.3764758.0986878-.5446106.3764758-.5628862.9271783-.0268041.8077782-.4057166,1.4559501-1.0965315,1.8750688-.1693532.1035613-.3423615.1559511-.5019677.1559511-.1145266,0-.221743-.0268041-.3179941-.0816307-.2327083-.1328021-.3642921-.4154636-.3594187-.7748822.0073102-.5811617.1218368-1.1684152.221743-1.6874401.1181817-.5957821.1072164-.9649477-.2850982-1.2134948-.3874411-.2436737-.7395496-.1583879-1.1757254.2826614-1.0843478,1.0977499-2.437955,1.6070278-3.7464826,2.0992486-.3155574.1181817-.6311148.2375818-.9430171.3642921l-.0974695.0389878-.2936268-.3045921.0389878-.0950327Zm.4361759,3.714805l.0487347-.5299902c.046298-.5104963.3155574-.8358007.8747885-1.055107.7821925-.3082472,1.5339257-.6627924,2.3307386-1.0368314.3179941-.1510777.6396434-.3021553.9661661-.4507963l.1791001-.082849.0389878.1937206c.2205247,1.1135886.8894089,1.9043097,1.7471402,2.0639159.9905334.1791001,2.0407669-.4800371,2.8850962-1.8202423l.0901593-.1449858.1364573.1035613c.9820049.7529516,2.1053405.8260537,3.2956863.9028109.1632614.0109653.3253043.0207123.4885657.0328959.2814431.023149.7651353.3021553.8272721.6055291l.0755388.3569819c.1998124.9491089.406935,1.9298954.4020615,2.9033717-.0073102,1.4011236-1.3194929,2.7462022-2.4927816,3.07638-.1864104.0560449-.3850044.0048735-.5592311-.0377694l-.0706654-.0158388c-2.1163058-.4922208-4.0169603-.6542638-5.8067434-.4970943-.939362.0816307-1.9189301.2327083-2.6609164,1.0880029-.1279287.1462042-.3618554.2071226-.6311148.2071226-.2442828,0-.5165882-.0511715-.767572-.1328021-.0487347-.1717899-.099297-.3429707-.1462042-.5153698-.3253043-1.1833402-.7870659-2.3368304-1.3974685-3.4976308.0432521-.5775066.0950327-1.1522718.1462042-1.7169855Zm-35.5166548-11.3880886c.1742267-.6006556.5519208-1.0758192,1.0611988-1.3377684.5263351-.2692594,1.161105-.2948451,1.7849096-.0755388l.2010308.0718837c1.4193991.5019677,2.8875329,1.0209926,4.4117117,1.2780684.7858476.1303654,1.6131197.3094656,2.6036531.5641045,1.9810669.5080596,3.6782539,1.4973747,5.2182715,2.4891265,2.1881895,1.4120889,4.6809711,2.659698,7.6233306,3.8147112,4.8783467,1.9140566,8.4189251,5.1817204,10.5218288,9.7140506,1.1879091,2.5549184,1.9225852,4.5676628,2.3855652,6.5255807.036551.1583879.0633552.3192125.0913776.4946575.0158388.092596.0316776.1912838.0511715.2948451l.0536082.2924084-.2716961-.1218368c-2.5159306-1.1403927-4.3105871-2.4489203-5.6483555-4.1193033l-.4337391-.5409555c-1.2013112-1.4973747-2.4440468-3.0471392-3.6014967-4.6139608-1.8117137-2.4537938-4.1241767-4.0437644-7.0714097-4.8612896-2.2478895-.6238046-4.515273-1.3073092-6.7095543-1.9688832-.8272721-.2497655-1.6557625-.499531-2.484253-.7456414-.4593249-.1376756-.9223048-.2704778-1.3840664-.4044983-1.2597928-.3630738-2.5634469-.7383312-3.8086194-1.2000928-.9466722-.3508901-1.9201485-.8784436-2.9764738-1.6119013-.9807865-.6798495-1.5716951-1.6813483-1.706934-2.8948431-.0389878-.3399248-.0073102-.7103087.0889409-1.0429233Zm-12.0496626,29.8049441c-1.0014988-1.6106829-1.9737567-3.3590414-1.8909076-5.4704737.0706654-1.7873463.3350513-3.3931558.8053415-4.9075876.1608246-.5202433.3265227-1.0380498.4922208-1.5570747.7371128-2.3173365,1.5010298-4.7126486,1.905528-7.1445118.3179941-1.905528.555576-3.6733805.7285843-5.4046818.2765696-2.7717879,1.6387054-4.7954977,4.1656013-6.1844376,1.2683214-.6969067,2.6426409-1.3816297,4.2776912-1.4413297.1364573-.0048735.2741329-.0073102.416682-.0097469l.4934392-.0097469-.1181817.2327083c-.0889409.1742267-.1815369.3411431-.2729145.5056229-.1900655.3411431-.370384.6640107-.4800371,1.0014988-.3179941.9722579-.1888471,2.0200547.3947513,3.2006536.8358007,1.6886585,2.2539814,2.8814411,4.3361728,3.6477947.8065598.2960635,1.6350503.5799433,2.4367366.8540762,1.022211.3508901,2.0797547.7127455,3.1068392,1.1050601,2.0054342.7687904,4.0340175,1.5729135,5.9968089,2.3490141,1.4279277.5653229,2.8558553,1.1306458,4.2862197,1.6886585,2.1796609.8492027,3.6599784,2.4269897,4.7065568,3.7074948,1.670383,2.0432037,3.4297068,4.1290502,5.3790961,6.3769398.3776942.4373942.8613864.8163068,1.3292398,1.1818173l.3082472.2424553c.9223048.7334577,1.8531382,1.4583869,2.7949369,2.1906262l1.3146194,1.0234294-1.3316766,2.4111509-.115745-.0292408c-.5044045-.1267103-1.0051539-.254639-1.5034665-.3825677-1.1464846-.2936268-2.3307386-.5970005-3.4979354-.8662599-.4983126-.1145266-1.0161192-.2022491-1.5156502-.2875349-.5531392-.0938144-1.1257723-.1900655-1.6801299-.3253043-.7736639-.1888471-1.6496707-.4020615-2.3831284-.823617-2.5476081-1.4693522-5.5581963-2.3697264-9.474032-2.8363614-3.0008412-.3569819-5.7275495-1.207403-8.104586-2.5268959-.8150884-.453233-1.670383-.8723517-2.4964367-1.2792867-.5397372-.2643859-1.078256-.5287718-1.6106829-.8041231-2.4879081-1.2878153-4.5250199-3.0800351-6.0565089-5.3279246-.3898779-.5726331-.8638231-1.114807-1.3207113-1.637487-.1413307-.162043-.2814431-.3228676-.4203371-.4849106-.2899717-.337488-.6079658-.4276473-.9820049-.2814431-.3667289.1474226-.555576.5141514-.4776004.9332701.0621368.337488.1571695.592127.2899717.7797557.0938144.1340205.1864104.2692594.2802247.4044983.4008432.5811617.8150884,1.1830356,1.3146194,1.683785,4.0681318,4.0924992,9.1097399,6.8082421,13.0475063,8.7162069,2.0468588.9929702,4.2752544,1.4279277,6.3818132,1.7873463l.4702902.0791939c.906466.1510777,1.8433913.3082472,2.7340185.5714147,1.2268969.3642921,2.4939999.7395496,3.6027151,1.3560439,3.0386106,1.6923136,6.4707541,2.6938123,10.4938063,3.0629779l.0657919.0060918c.0816307.0073102.162043.0146204.2436737.0280225.0633552.0085286.1011246.046298.1364573.0791939.0134021.0134021.0304592.0304592.0560449.0511715l.2095594.1778818-.2595125.0889409c-.0548266.0194939-.105998.0389878-.1559511.0584817-.1120899.0426429-.2168696.082849-.3313962.1047797-.8492027.1608246-1.6959687.3350513-2.5427347.5104963-1.9347689.3984064-3.9353297.8114333-5.9285802,1.0477968-3.5612906.4227738-7.0872485,1.1635417-10.7764678,2.2649467-.4556698.1352389-.9149946.2619492-1.3743195.3874411-.4568881.1254919-.9137762.2497655-1.3670093.3862228-1.9420791.5799433-3.8597908.6944699-5.86157.3411431-1.1964377-.2095594-2.4671958-.1669165-3.6953111-.1242736-.4568881.0170572-.9941885.2059042-1.4571685.5080596-.3155574.2059042-.4849106.4958759-.4666351.7943761.0182755.3167758.2375818.6006556.6018739.7797557.4105901.2010308.8808803.3179941,1.2865969.4057166,2.3940937.509278,4.793061.3058104,7.0299852.0109653,2.7815349-.3667289,5.236547-.9357069,7.5063672-1.7386116,3.8561357-1.3633541,7.8402001-2.0700078,11.5708439-2.6316756l.4568881-.069447c.7285843-.1145266,1.4827542-.23149,2.2612916-.2692594l.8077782-.0389878-1.0307396.4727269c-.2327083.1084348-.4654167.2168696-.7029985.3179941-2.5037469,1.068509-4.8917488,2.7279267-7.5148958,5.2243633-.7858476.7480781-1.4120889,1.6825666-1.9128383,2.8582921-.1693532.3971881-.4008432.5190249-.8163068.406935-.8735701-.2327083-1.8068402-.2034675-2.9387044.0913776-1.3121827.3435799-2.7462022.684723-4.3849076,1.0429233-1.2451724.2716961-2.4416101.4081534-3.5795661.4081534-1.2744133,0-2.4769428-.1705716-3.5978416-.5117147-3.6514498-1.1099335-6.6340155-2.8716941-8.8648479-5.2328919-1.0770376-1.1391744-1.7337381-2.5025285-2.1857528-3.5637273-.7761006-1.8238974-1.7727259-3.7026213-3.0447024-5.7446066Zm-7.7744082,23.1502164l-.0341143-.0268041c-1.6435789-1.230552-2.0017791-2.9545432-.9820049-4.7297058.9491089-1.6521074,2.4988734-2.6134,3.7440458-3.2652271,1.7617606-.9223048,3.6867825-1.8141504,5.8347659-2.0858466.2826614-.036551.5677596-.0584817.8528578-.0804123l.3508901-.0280225c.1242736-.0109653.254639-.0121837.383786-.0134021.2619492-.0036551.509278-.0060918.7054353-.0901593.7346761-.3204309,1.1940009.0048735,1.683785.3484533l.0523898.036551c2.5622286,1.7836912,5.4046818,3.5137742,8.8234233,4.0973726,3.6965295.6323332,7.2407629.5117147,10.529139-.3569819.5385188-.1425491,1.091658-.254639,1.6277401-.3642921.2095594-.0426429.4179003-.0852858.6262413-.129147.0548266-.0121837.1120899-.0158388.2071226-.0182755.0511715-.0024367.1145266-.0048735.1973757-.0097469l.4958759-.0292408-.3898779.3070288c-.4897841.3874411-.9576375.7797557-1.4193991,1.1659785-1.0161192.8516395-1.9774118,1.6557625-3.0556677,2.3246467-3.0288636,1.8775056-5.8554781,3.2079638-8.6382314,4.0669134-2.9691636.9174313-6.0954967,1.4437665-9.2937135,1.5656033l-.3119023.0121837c-.7090904.0280225-1.4267093.0560449-2.1455466.0560449-1.3182745,0-2.6402041-.0950327-3.9207092-.4593249-1.3146194-.3728207-2.6121817-.869915-3.8658827-1.3499521-.4471412-.1705716-.8942823-.3423615-1.3414235-.5080596-.2668227-.0974695-.4946575-.2704778-.7164006-.4361759Zm27.6581791,16.4162947l-.1583879.0779756c-1.3511705.6627924-2.7486389,1.3475154-4.1521992,1.961573-2.275912.9966253-4.7504181,1.415744-7.1432934,1.8214606l-.7980312.1364573c-1.2098397.2071226-2.4598856.4227738-3.7026213.5409555-.2595125.0255857-.5190249.0377694-.777319.0377694-1.7641973,0-3.4723497-.5811617-5.0891245-1.7337381-1.1964377-.8516395-1.5497645-2.1845344-1.7520136-3.4979354-.1730083-1.1172437-.2619492-2.2612916-.3460166-3.3687884l-.0572633-.7261475c-.2253981-2.868039-.4593249-5.8323291-1.845828-8.6223926l-.152296-.3070288.3313962.0865042c.2034675.0536082.3959697.1011246.5811617.1462042.3740391.092596.7261475.1803185,1.068509.2863166,2.6779736.8272721,5.5764718,1.0733825,8.6163007.7346761,3.6733805-.4093718,6.6876237-.7882843,9.4862157-1.1903458,1.6691646-.2388002,3.3687884-.869915,5.1939041-1.9298954,1.3523888-.7846292,2.7888451-1.6789115,4.5177097-2.8132124,1.1598866-.7590435,2.2551998-1.3109643,3.4479823-1.7386116l.2582941-.0913776-1.0526702,5.3486369-.1791001-.0791939c-1.078256-.4776004-1.4888461-.4105901-2.3112447.3776942-.3582003.3435799-.6737577.7200557-.939362,1.1221172-.7882843,1.1903458-1.7983116,2.09072-3.089782,2.752294-1.5180869.7785374-3.1665393,1.2817235-4.7613834,1.7690708-.5299902.162043-1.0599804.324086-1.5863155.4970943-1.6070278.5251167-3.0581045.9771314-4.5506057,1.2025295-2.3404855.3496717-4.7321425-.0292408-7.0994322-1.1428295-.0548266-.0255857-.1096531-.0536082-.1632614-.0816307-.1498593-.0767572-.2924084-.1498593-.4325208-.1705716-.175445-.0255857-.3874411.0121837-.4252105.0536082-.0584817.0816307-.0536082.300937.0097469.439831.0682286.1510777.2363635.2887533.416682.4276473,2.3051529,1.7751626,4.9928734,2.3660713,7.975439,1.7605422.8260537-.1681348,1.6423605-.4605432,2.4330815-.7432047l.2534206-.0913776c.6932516-.2461104,1.3816297-.5056229,2.0700078-.7651353,1.0940947-.4130269,2.2235222-.8394558,3.3578231-1.2037479,1.6289584-.52268,3.261572-1.2171499,5.1378592-2.183316.2119961-.1084348.4239922-.2119961.6372066-.3167758.4179003-.2046859.8492027-.4154636,1.2512643-.6506087.324086-.1900655.6311148-.4203371.9564191-.6640107.1583879-.1194001.3216492-.2412369.4958759-.3667289l.3350513-.2400186-.0913776.4008432c-.0755388.3313962-.138894.661574-.2010308.9880967-.138894.7224924-.2692594,1.4047787-.5178065,2.067571-.6688842,1.7739443-1.4120889,3.5551987-2.1321446,5.2779715-.2266165.5446106-.4544514,1.0892213-.6798495,1.6338319-.0657919.1608246-.1900655.2960635-.2997186.4142452l-.2266165.2509839c-.4434861.4897841-.9003742.9966253-1.3670093,1.4827542-.2253981.2339267-.4605432.4800371-.7505149.6213678Zm-2.6487327,16.9012053l.4666351-1.3791929c.6932516-2.0505139,1.4120889-4.1716931,2.0614792-6.2721601,1.0831294-3.4988492,2.4738969-6.8015411,4.1089471-9.8703063-.1334113,1.1004912-.2308808,2.2143844-.2759604,3.3337603-.0682286,1.7191177-.3984064,3.5028089-1.008809,5.4521982-1.1001866,3.5247395-3.0727249,6.7010257-5.0403897,9.6092709-.1583879.2339267-.3521084.4447044-.5397372.6481719-.0877225.0950327-.175445.1900655-.2595125.2887533l-1.2256785,1.4221404c.7425955-1.0152054,1.3286306-2.0919384,1.7130259-3.2326357Zm31.3035371-46.1420449c-.0548266.1303654-.1145266.2582941-.1742267.3862228-.1242736.2668227-.2424553.5190249-.3082472.7785374v.0012184c-.6664475,2.6146184-2.3928754,4.713867-4.1034645,6.6401073-2.3599794,2.6572613-4.3654137,5.550886-5.9626945,8.5980252-.3265227.6250229-.6627924,1.2451724-.999062,1.8665403-.7407679,1.369446-1.5071216,2.78519-2.1552936,4.2179911-1.2061846,2.6657899-1.753232,5.5240819-2.2101201,8.2227678-.5933454,3.5149926-.939362,6.4000888-1.0855662,9.0829358l-.0048735.082849c-.1194001,2.1979364-.2424553,4.4701934-.615276,6.6937155-.2729145,1.6326135-.1510777,3.3139618-.0328959,4.9392652.0207123.2850982.0414245.5701964.0609184.8552946.1864104,2.8570737.2704778,6.2197703-.5202433,9.4983994-.1425491.5933454-.3277411,1.1866907-.5068412,1.7605422-.2071226.6652291-.4227738,1.3523888-.5701964,2.0383302-.2046859.9576375-.3484533,1.9469526-.4873473,2.9033717-.0743205.5153698-.1486409,1.031958-.2339267,1.5461094-.0670103.4142452-.198594.7992496-.4264289,1.2463908l-.1900655.3740391-.1169634-.4836922c-.0085286-.0450796-.0170572-.0865042-.0304592-.1181817-.9430171-2.1077772-2.4988734-3.8780663-4.0023399-5.5898738l-.2656043-.3033737c-.2180879-.2461104-.439831-.4910024-.6627924-.7346761-.2144328-.2351451-.4288656-.4702902-.6396434-.7090904-1.5278339-1.7373932-3.377317-2.9910942-5.4960595-3.7269887-.2985002-.1035613-.5994372-.2010308-.9003742-.2985002-.3326146-.1084348-.6640107-.2156512-.9929702-.3313962-1.1891275-.4191187-2.3733815-.3545452-3.8025275-.2266165-2.0760996.1864104-4.1278319.6640107-6.1125538,1.124554-.638425.1474226-1.2756316.2960635-1.915275.4349575-.3228676.0706654-.6481719.1352389-.9722579.1998124l-.5884719.1181817-.1717899-.3630738.6493903-.4702902c.4105901-.2972819.8223986-.5945637,1.2354255-.8894089.8223986-.5884719,1.6484523-1.1732887,2.474506-1.7593238,1.9895955-1.4108705,4.0486379-2.8704758,6.0394517-4.343483.7517333-.5567943,1.4218358-1.2463908,2.0700078-1.9140566l.1139174-.1169634c-.6420801.7456414-1.2853786,1.4900645-1.9244128,2.2381426-.1693532.1998124-.3216492.439831-.4666351.7371128-.1742267.3594187-.1194001.6835046.1632614.9649477.2972819.2960635.6725393.3667289,1.0770376.2059042.2485471-.0962511.4800371-.2412369.651827-.4081534.7480781-.7237108,1.4206175-1.4011236,2.054169-2.0724445,1.4084338-1.485191,2.3965305-3.0227718,3.0227718-4.6992466.3326146-.8918456.7785374-1.7593238,1.2086214-2.5975612.1644797-.3192125.3277411-.638425.486129-.9600742.2339267-.4727269.4739453-.9442354.7139638-1.4145256.3642921-.7127455.7395496-1.4498583,1.0843478-2.183316,1.3219296-2.8193043,2.0602608-5.2109613,2.3258651-7.5282978.2997186-2.6219286.7090904-5.3163501,1.2098397-8.0424493,1.6313952-3.2110097,2.8668206-6.7147324,3.7062764-10.691182.3137298-1.483668.6603556-2.970382,1.0124641-4.4470444,1.1647601-1.6179931,2.3270835-3.2372046,3.4845334-4.8600712.6372066-.893064,1.2744133-1.7849096,1.9128383-2.6767552l.2595125-.3679472c.2997186-.4264289.6104025-.8674782.9588559-1.2731949.2607308-.3045921.6432985-.5080596.9186497-.6250229.2010308-.0840674.3350513-.2193063.3447982-.3435799.0073102-.1072164-.0877225-.1888471-.1693532-.2375818-.2887533-.1742267-.6603556-.2802247-.9673844-.2802247-.046298,0-.0913776.0024367-.1340205.0073102-.0895501.0100515-.1711807.0417291-.2589033.0572633,2.2789579-1.6910952,4.2728177-3.0154616,6.1874835-4.0924992.1254919-.0706654.2582941-.1315838.406935-.2010308.0718837-.0328959.1486409-.0682286.2290532-.1072164l.1827552-.0877225.0389878.1973757c.4654167,2.3880019,2.4367366,3.2993414,4.343483,4.1814401.0816307.0377694.1669165.0670103.2668227.1011246.0584817.0207123.1230552.0426429.1925022.0682286l.1535144.0560449-.0633552.1510777Zm.7054353-11.4343866c-.0791939.4702902-.162043.9576375-.1656981,1.4303644-.0073102,1.2354255.023149,2.4927816.0536082,3.7099315.0121837.499531.0243674.9978437.0341143,1.4973747l.0073102.4897841c.0036551.3411431.0085286.6822863.023149,1.0234294.0048735.1108715-.0012184.2704778-.1108715.3850044-.1120899.1194001-.2826614.1340205-.4191187.1340205-1.3085276,0-2.2454528-.7090904-2.914337-1.3268031-.4215554-.3886595-.2692594-.8979374-.1462042-1.3073092.6177127-2.0529506,1.405997-3.83055,2.4172427-5.4582901.2046859-.3265227.4215554-.6457352.6396434-.9649477.0962511-.1413307.1937206-.2838798.2899717-.4264289l.0706654-.1072164.314339.1376756.0109653.1267103c-.0304592.2193063-.0670103.4373942-.1047797.6567005Zm.9430171,30.0583647c.2010308-1.6728197.4593249-3.3663517.7103087-5.0038387.3253043-2.1309262.6627924-4.3349545.8747885-6.513397.0852858-.8772252.1778818-1.7544504.2716961-2.6304572.0213214-.2004216.0408153-.4044983.0621368-.6055291.1650889.2735237.3228676.5516163.4641983.8358007.3289594.6652291.651827,1.3618312.9728671,2.084019.1133083,5.0406943-.1236644,9.3004145-.737722,13.2077217-.1364573.8747885-.2351451,1.8312076-.2997186,2.9228656-.0341143.5421739.105998.8223986.4520146.906466.406935.0986878.7164006-.0999062.9320518-.5909086.2241798-.509278.4483595-1.0526702.5068412-1.600936.2716961-2.530551.5178065-5.0927796.7346761-7.3540712l.2071226-2.146765c-.0201031-.393533-.0383786-.7727501-.0560449-1.1516627.3892687.9850508.793767,2.0386348,1.1781622,3.1047071.3387064.9369252.651827,1.8982178.9539824,2.8290512.3070288.9442354.6238046,1.9213668.9673844,2.8692574.638425,1.7593238,1.3146194,3.53936,1.9676648,5.2609144.2071226.5452198.4118085,1.091658.6183219,1.637487-.1498593.2369726-.4288656.469681-.6634015.4800371-.8552946.0426429-1.6033727.0012184-2.2820039-.1230552-.2388002-.0438613-.4118085-.2656043-.5799433-.4788187-.0779756-.1011246-.1596062-.2046859-.2400186-.2790063-.0597-.0548266-.1218368-.1181817-.1839736-.1827552-.1583879-.1632614-.337488-.347235-.4715085-.3533268-.2071226-.0012184-.5360821.2253981-.6323332.4325208-.5531392,1.1769438-1.4693522,1.3791929-2.3867835,1.3791929-.2485471,0-.4958759-.0146204-.7371128-.0292408l-.1084348-.0060918c-1.1489213-.0645735-1.6179931-1.0002804-1.9676648-1.8701954-.9271783-2.3100263-.8016864-4.7431079-.5275535-7.0299852Zm.7298026,34.6577051c.6713209-.6688842,1.6106829-1.4145256,2.8534186-1.3146194.2570757.0207123.4666351.3594187.5068412.4276473.2509839.4288656.568978.6725393.8955007.6835046h.0219306c.300937,0,.6018739-.1998124.8516395-.5677596.1181817-.1730083.2997186-.3996248.5336453-.3996248h.0182755c.2363635.0121837.3910962.2424553.499531.4422677.0584817.1047797.1096531.2132145.1608246.3228676.0438613.0913776.0877225.1827552.1352389.2729145.5896903,1.1050601,1.3304582,1.4230542,2.4074958,1.0380498.2668227-.0962511.4605432-.0999062.6116209-.0182755.2022491.1084348.2838798.3435799.3411431.5823801.1827552.7480781,0,1.5339257-.4897841,2.100467-.4617616.5312086-1.1294274.8041231-1.8360811.731021-.7651353-.0731021-1.624085-.3447982-2.6268021-.8309272-.7712271-.3740391-.9905334-.3971881-1.5424543.2034675-.6006556.6542638-1.5168686,1.0356131-2.3234284,1.0356131-.3362697,0-.6530454-.0657919-.9198681-.2071226-.7407679-.3910962-1.0794743-1.0270845-1.0368314-1.9420791.0097469-1.0575437.3423615-1.9664465.9381436-2.5597918Zm-7.7451674,14.8068301l.1242736-.0134021c4.3958729-.4946575,6.9593198-2.924084,8.0655983-7.6428244.0292408-.1218368.0523898-.2436737.0791939-.3776942l.0755388-.3776942h1.2439541l.0134021.1425491c.0024367.0292408.0060918.0560449.0109653.082849.0109653.0718837.023149.1474226.0048735.2278349-.8686966,3.899997-2.1016853,6.8204258-3.8805031,9.1901522-.7614802,1.0149008-1.670383,1.6533258-2.7778798,1.951826-.2461104.0657919-.5141514.1206185-.7968129.1206185-.3289594,0-.6774128-.0743205-1.0331763-.2924084-.2485471-.152296-.6250229-.1559511-.8881905-.1486409-.023149.0012184-.0475164.0012184-.0706654.0012184-.7614802,0-1.1976561-.4203371-1.2634479-1.2208051-.0048735-.0511715-.0048735-.105998-.0048735-.1608246l-.0012184-.0499531c-.0268041-1.2342071.0341143-1.3146194,1.0989682-1.4328011Zm8.4493843,35.7213407c-.3910962.9076844-1.055107,1.3865031-1.8994362,1.3865031-.1596062,0-.3265227-.0170572-.499531-.0523898-3.6441396-.7358945-5.4107737-2.4903448-6.0954967-6.0540722-.3021553-1.5765686-.2570757-3.0800351.1364573-4.4701934.1571695-.5592311.439831-1.147703.8163068-1.7008422.4849106-.707872,1.1355193-.9868783,2.0090894-.8711333,2.3283019.3033737,4.2387034-.2253981,5.8335475-1.614338.0645735-.0560449.1328021-.1047797.23149-.1742267l.4118085-.2997186.0280225.2692594c.0341143.3131207.069447.6140576.1047797.9052477.0718837.6055291.1401124,1.1769438.175445,1.7520136.0194939.3192125.0414245.6372066.0645735.9564191.1596062,2.2978426.324086,4.6736609-.2765696,6.9885607-.2436737.9417987-.5835984,1.915275-1.0404865,2.9789105Zm19.1746806-10.0734692c.1596062,1.3182745.3387064,2.8119941.2570757,4.2399217-.1888471,3.2725373-2.5805041,6.1820008-5.6861249,6.920332-.2497655.0584817-.5141514.0865042-.7858476.0877225-1.5924074,0-3.4589476-.9722579-4.320334-2.3490141-.9344885-1.4973747-1.4315828-3.0410473-1.5193053-4.7187405-.1181817-2.2588549.0962511-4.4604464.347235-6.7046808l.0219306-.1949389.185192.0645735c.3947513.1401124.7846292.2838798,1.1732887.4276473.8528578.314339,1.6594176.6116209,2.4952183.8589497,2.4964367.7371128,4.3520116.3119023,5.8420761-1.3353317l.0999062-.1096531.1145266.0938144c.7931578.6445168,1.6253033,1.4717889,1.7751626,2.7193981Zm-.6262413-13.2192962c.767572,1.8933444.6701026,3.83055-.2753512,5.4534166-.674976,1.1574499-1.5107767,2.2283956-2.3197733,3.2640087l-.416682.5348637c-.4605432.5957821-1.1720703.8967191-2.113869.8967191h-.0134021c-1.9469526-.0085286-3.7416091-.6688842-5.3376716-1.961573-1.1233356-.9089028-1.5461094-2.252763-1.1915642-3.7818153.3984064-1.7215544,1.2792867-2.9996228,2.6182735-3.7964357.7578251-.4483595,1.5119951-.3813493,2.2515446.2059042.5726331.4544514.7456414,1.0733825.5141514,1.8409545-.0523898.1693532-.105998.3387064-.1596062.5068412-.1462042.4556698-.2972819.9271783-.3898779,1.3974685-.0414245.2034675.0609184.5762882.1340205.6298964.2327083.0962511.6164944.0706654.7785374-.0548266,1.0368314-.81387,1.6923136-1.9116199,1.7970933-3.0105881.0913776-.9661661-.2351451-1.8848158-.9722579-2.7340185-1.3950317-1.6070278-3.344421-1.8421729-5.0866877-.6189311-2.484253,1.73983-3.8256765,5.2560409-3.1214596,8.1764698.1047797.4337391.244892.9271783.5007494,1.3097459.3825677.5701964.3850044,1.1111519.2692594,1.7483585-.5823801,3.2250209-.7602618,6.1040253-.5446106,8.8027111.1547328,1.9396424.8199619,3.7440458,1.9786301,5.3656941.3045921.4252105.2716961.7371128.1023429,1.1635417-.707872,1.7885647-2.1747874,2.4927816-3.6587601,2.4927816-.6323332,0-1.2683214-.1279287-1.8482647-.3545452-.3923146-.1535144-.7017802-.4934392-1.0014988-.8223986-.129147-.1425491-.2570757-.2826614-.3898779-.4057166l-.105998-.0986878.0901593-.1133083c1.8324259-2.2844406,2.7133062-4.9965285,2.8558553-8.7941825.1120899-2.9594166-.4130269-5.8993394-.9223048-8.743011l-.0536082-.2997186c-.0609184-.3338329-.0060918-.7395496.1376756-1.031958,1.2329887-2.4964367.9795681-5.0184591-.7139638-7.1030873-.9978437-1.2293336-2.3892203-1.6301768-4.1290502-1.2013112-1.3621358.337488-2.1967181,1.3243664-2.4781612,2.9301758-.1632614.9235232-.2692594,1.7520136.0901593,2.5512633.1644797.3667289.3801309.5848168.6201495.6286781.2180879.0414245.486129-.0706654.7505149-.3326146.0999062-.0986878.1839736-.2826614.1705716-.3716023-.1510777-1.0112457.2205247-1.8896893.6481719-2.7742247.1730083-.3569819.5409555-.592127,1.0112457-.6445168.6481719-.0889409,1.3487337.2071226,1.7373932.6956883,1.1940009,1.5010298,1.2756316,3.4041211.2132145,4.9648509-1.4803175,2.1711323-3.413868,3.122678-5.9297986,2.8838778-2.1857528-.2010308-3.6331743-1.3414235-4.4251137-3.4881885-.9576375-2.5926878-1.2402989-5.1987776-.8418925-7.743949.0402062-.2595125.0755388-.5202433.1108715-.7821925.0950327-.6895965.1925022-1.4023419.3813493-2.0797547.2461104-.8820987.6542638-1.7178993,1.0490151-2.5244592.1242736-.2570757.5896903-.4849106.8492027-.3947513,3.7891255,1.1757254,6.2051498-1.4352379,7.5697223-3.8402969,1.2853786-2.2661651,2.2686018-4.7954977,2.9228656-7.5173325.046298-.1961573.0999062-.3898779.1230552-.4751636l.1194001-.4386126.1839736.3850044c.2339267.5616678.4641983,1.1367376.698125,1.7178993.5275535,1.3158378,1.0733825,2.6767552,1.6947503,3.9889379,1.8884709,3.9865011,4.9392652,6.4646623,9.0695337,7.3662548.9515457.208341,1.5351441.6493903,1.9506077,1.4778808.2461104.4873473.5007494.9722579.7553884,1.4571685.592127,1.1269907,1.2037479,2.2941875,1.693532,3.4967171Zm-7.8097409-14.1428194c1.8701954,1.6496707,4.1059012,2.4221162,6.6693482,2.2564181l.1656981-.0097469v.1656981c0,.2400186.0048735.4739453.0097469.7029985.0109653.5214616.0207123,1.0136824-.0255857,1.50834-.0731021.7992496-.8345823,1.5156502-1.5887523,1.5156502-.023149,0-.046298,0-.0682286-.0012184-.8674782-.0511715-1.7873463-.1364573-2.6414225-.4130269-2.5281143-.8199619-4.5432955-2.4245529-5.990717-4.7711303-1.5229604-2.4696326-2.4440468-4.7041201-2.900935-7.0312036-.036551-.1912838-.0548266-.383786-.069447-.5507025-.0073102-.0816307.0170572-.1559511.0268041-.1876287l.0280225-.1401124.1413307.0207123,3.6745988.4093718-.0036551.1437675c-.0755388,2.5865959.8382374,4.8539794,2.5731939,6.3818132Zm-.2095594-20.0324119c-.6701026,1.0953131-1.3633541,2.146765-2.0980302,3.2579169-.3179941.4824739-.6396434.9698212-.962511,1.4656971l-.1120899.1730083-.1352389-.1559511c-1.1805989-1.3499521-1.9993424-1.5619482-3.506464-.9149946-.0706654.0316776-.324086.1218368-.5360821.0402062-1.04536-.4191187-1.8348627-.1827552-2.4830346.7383312l-.1376756.1937206-.1230552-.2022491c-.0840674-.1376756-.1644797-.2668227-.2424553-.393533-.1693532-.2729145-.3277411-.5275535-.4739453-.790721-1.8336443-3.2688822-3.608807-6.860632-4.1704747-10.9689699-.2899717-2.1357997-.105998-4.3507933.5470474-6.5864991.3484533-1.1903458,1.1757254-1.984722,1.974975-2.752294.2363635-.2266165.4727269-.453233.6956883-.6895965l.0816307-.0865042.1047797.0560449c1.8567933.9832232,3.6867825.8260537,5.759227-.4910024l.1108715-.069447.0877225.0950327c.7809741.8479843,1.8007484,1.1732887,3.3968109,1.0819111.0097469,0,.0194939-.0012184.0304592-.0012184.2461104,0,.5263351.1644797.6822863.3338329,1.2963439,1.4181807,2.0139628,2.6877205,2.3246467,4.1180849.1035613.476382.2278349.9588559.3484533,1.4267093.2485471.9698212.5056229,1.9713199.6018739,2.9801289.2875349,3.0215534-.3058104,5.7604454-1.7654157,8.1423555Zm23.5742085,2.3953121c.5007494.8979374.9332701,1.845828,1.3511705,2.7632593l.1413307.3106839c.9125579,1.9859404,1.452295,4.1205216,1.6533258,6.5255807.1401124,1.6947503.3399248,3.4150864.5336453,5.0793775.1669165,1.429146.3387064,2.9058084.4715085,4.3629769l.0048735.0536082c.1827552,1.9944689.370384,4.0547298.0986878,6.0979334l-.0950327.7249291-.3411431.0511715-.592127-1.7788177c-.370384-1.1184621-.7419863-2.2369242-1.1135886-3.3529496-.1486409-.4483595-.430084-.6774128-.8613864-.7005618-.023149-.0012184-.0450796-.0024367-.0670103-.0024367-.3752574,0-.6579189.1949389-.8431109.5775066-.2972819.6225862-.5909086,1.2463908-.8845354,1.8714137-.3106839.6603556-.6213678,1.3194929-.9369252,1.9774118-.7224924,1.5046849-1.4242726,2.8290512-2.6962491,3.807401l-.4191187.3253043-.0901593-.1486409c-.0097469-.0158388-.0194939-.0280225-.0292408-.0402062-.0316776-.0426429-.0743205-.0999062-.069447-.1803185.1315838-1.9347689-.3886595-3.7830336-.9137762-5.3364532-.6091842-1.8007484-.9588559-3.7684132-1.1367376-6.3830316-.2972819-4.376379-1.5034665-8.4798435-3.5868763-12.1934301-2.0358935-3.6307376-3.7879071-7.6537898-5.3547287-12.2982098-1.2268969-3.6295192-2.4879081-6.5328909-3.9682256-9.136544-.846766-1.4864093-1.3389868-3.1750678-1.8153688-4.8101181l-.1047797-.3569819c-.2771788-.946063-.5470474-1.9015683-.8150884-2.8549416-.3393156-1.2098397-.6737577-2.4169381-1.0002804-3.6024105-.5726331-2.0821915-1.1659785-4.2362666-1.7824728-6.3452622-.9052477-3.0958739-1.8044035-5.3900614-2.9155554-7.4393569-.162043-.2991094-.3259135-.5997418-.4922208-.8994604-.6579189-1.1851678-1.3779746-2.3538876-2.3112447-3.3864547-.4416585-.4882611-.9357069-.9424079-1.4937196-1.3536072-.1504685-.1108715-.2936268-.2266165-.4544514-.3304824l-.3362697-.2180879-.1449858-.0938144.1516869.006701.4221646.0188847c.0438613.0024367.0889409.0060918.1340205.0097469.0651827.0054827.1267103.0054827.1876287.0045689.0213214-.0003046.046298.0033505.0670103.001523l.4057166-.0414245c.2320992-.0237582.4684626-.0584817.7042169-.0852858.2869257-.0325914.5738515-.0587863.8565129-.1035613.4075442-.0657919.8120425-.1510777,1.2189775-.2305762.3094656-.0603092.6231954-.1136128.9265691-.1751404l.1998124-.0402062c.3368788-.069447.674976-.1318884,1.0142916-.1955481.0054827-.0009138.0109653-.0021321.016448-.0030459.883317-.1644797,1.7958749-.3350513,2.6560429-.5994372.499531-.1547328.952764-.439831,1.4328011-.7419863.2193063-.1376756.439831-.2765696.6664475-.4044983l.0852858-.0475164.0791939.0548266c2.2137752,1.5180869,4.7041201,3.3639149,6.2563213,6.0881865.5750698,1.0075906,1.2683214,2.0480771,2.183316,3.2737557.9820049,1.3194929,1.8104953,2.8302696,2.530551,4.6188343l.23149.5738515c1.0599804,2.6268021,2.1565119,5.3437634,2.7242716,8.1703779.1583879.7895027.2582941,1.600936.3533268,2.3855652.0852858.7005618.1730083,1.4242726.3033737,2.1272711.4727269,2.543953.9820049,5.5533228,1.1745071,8.5773129.0877225,1.3938134.4849106,2.8595104,1.2147132,4.4835954.2997186.6664475.5970005,1.3341133.8942823,2.0017791,1.3268031,2.983784,2.6986858,6.0686926,4.320334,8.9854663Zm23.9080415-18.5252902c-.0840674.198594-.1705716.4044983-.2619492.6079658h-.0012184l-.5178065,1.1367376c-.6932516,1.5229604-1.3889399,3.0483575-2.0931568,4.5676628-.2071226.4471412-.4593249.8760068-.6993434,1.2780684-1.0343947,1.7264279-2.6816287,2.599998-4.9014957,2.599998-.0889409,0-.1778818-.0012184-.2692594-.0036551-1.4608236-.0438613-2.8924064-.4154636-4.3751606-1.1367376-2.3806917-1.1574499-4.5445138-2.6207102-6.1625069-3.7671948-.3582003-.2534206-.7188373-.5031861-1.0806927-.75417-.6530454-.453233-1.3280215-.9210864-1.9761934-1.4023419-1.6155564-1.1964377-3.0386106-2.7120879-4.4775036-4.7711303-.3362697-.4800371-.6920332-.9612926-1.0880029-1.4717889-.8016864-1.0356131-1.2220234-2.1662589-1.2865969-3.4589476-.0243674-.4922208-.0791939-.9734763-.1376756-1.4839726-.0255857-.2278349-.0511715-.4556698-.0743205-.6859414l-.0158388-.1535144.152296-.0170572c1.1208989-.138894,2.1516384.1401124,2.9789105.7809741,1.1598866.8967191,2.2344875,1.8470464,3.1933434,2.8241778.8918456.9101211,1.6764748,1.9091832,2.5378612,3.0252085,2.1309262,2.7596042,4.8076814,4.9538856,8.18378,6.7095543,1.8665403.9710395,3.797654,1.974975,5.9894986,2.378255.4032799.0731021.7346761.092596,1.0636355.1035613.4678534-.0060918.800468-.2229614.9893151-.6432985.1023429-.2266165.1315838-.3764758.0938144-.4727269-.0487347-.1254919-.2424553-.2278349-.5373004-.3521084-1.8872525-.7943761-3.9048705-1.3194929-5.8554781-1.8275525-.3923146-.1023429-.7846292-.2046859-1.1769438-.3082472-.5982188-.1608246-1.137956-.5056229-1.660636-.8394558l-.0511715-.0328959c-3.0276453-1.9274587-5.5947473-4.3288626-7.6330775-7.1372016-1.0343947-1.4267093-2.2710385-2.6146184-3.6782539-3.529613-.7736639-.5044045-1.6569809-.893064-2.5110571-1.2683214l-.1096531-.0487347c-.6225862-.2741329-1.2354255-.3021553-1.8190239-.0877225l-.185192.0682286-.023149-.1961573c-.2972819-2.4903448-1.124554-4.7650385-2.0017791-7.1725343l-.1267103-.3508901.198594-.0194939c.0182755-.0024367.0377694-.0060918.0548266-.0085286.0609184-.0109653.1279287-.0219306.1973757-.0012184,1.6387054.5044045,3.3626966,1.1854724,5.4241757,2.1418915,4.4446076,2.0614792,8.3117087,4.8600712,12.5467569,8.0387941,3.9219276,2.9460146,7.2139588,4.7357976,10.6729064,5.8043067.5750698.1778818,1.1184621.4020615,1.6947503.6396434.2631676.1096531.5287718.2193063.800468.3253043l.1486409.0584817-.1328021.314339Zm7.3613814-13.0243573c-.0621368.1230552-.1181817.2339267-.1803185.3411431l-1.5168686,2.6377674c-1.6119013,2.8022471-3.2238026,5.6044943-4.8259569,8.4116149-.1742267.3058104-.3545452.4422677-.6164944.4422677-.0986878,0-.2095594-.0194939-.3362697-.0560449-.2814431-.0816307-.5738515-.1181817-.8845354-.1559511-.221743-.0268041-.453233-.0548266-.6774128-.1023429-2.0614792-.430084-4.1022461-1.2451724-6.2404825-2.4915632-2.2125569-1.2914704-4.3775974-2.9886575-6.6193951-5.190249-1.0075906-.9917518-2.1284894-2.0602608-3.4248333-3.2664455-2.1284894-1.9810669-4.7504181-3.5003722-7.7926837-4.5140546-.1535144-.0511715-.3033737-.105998-.453233-.162043l-.3155574-.115745.0865042-.3423615.1120899-.0060918c.1998124-.0097469.3984064-.023149.5982188-.0377694.439831-.0304592.893064-.0584817,1.3402051-.0536082.1437675.0024367.2875349.0036551.430084.0036551,3.5941865,0,7.1810629-.7529516,10.9519128-2.2978426.5263351-.2168696.8760068-.1717899,1.3341133.1681348,2.368508,1.7495769,4.5457322,3.2956863,6.6547277,4.7260507,2.229614,1.5119951,4.7248323,2.4416101,7.4137712,2.7632593,1.485191.1766634,2.9326125-.1279287,4.4275505-.9344885.0901593-.0475164.1791001-.092596.2692594-.1376756.0402062-.0170572.0682286-.0194939.1096531-.0219306l.370384-.0268041-.2144328.4191187Zm-.5896903-1.7081524c-1.2232418.6908148-2.3514508,1.0331763-3.4406721,1.0331763-.7249291,0-1.4315828-.1510777-2.1382364-.4520146-1.6204299-.6920332-3.1872515-1.5522012-4.7894059-2.6328939-.8089966-.5446106-1.6179931-1.1184621-2.4001856-1.6728197-.5031861-.3557635-1.0063722-.7127455-1.5132134-1.0648539-.4751636-.3301778-.9576375-.6506087-1.4778808-.9954069l-1.0051539-.6688842.3460166-.082849c.314339-.0755388.6213678-.1510777.9223048-.2253981.6932516-.1693532,1.3487337-.3301778,2.0151812-.4739453l.162043-.0353327c1.3060908-.2802247,2.6572613-.5714147,3.8025275-1.2573561.6311148-.3764758,1.2281153-.837019,1.8056218-1.2805051.2388002-.185192.4776004-.3691656.7200557-.5482657.0755388-.0560449.1449858-.1279287.2193063-.2034675.0389878-.0402062.0791939-.0816307.1206185-.1218368l.115745-.1108715.1072164.1181817c.2010308.2180879.3971881.4373942.5909086.6542638.4154636.4617616.8065598.8991558,1.2256785,1.323148.2278349.23149.4581065.4605432.6883781.6908148,1.3523888,1.3499521,2.7510757,2.7462022,3.7805969,4.4007464.3192125.5141514.6018739.9807865.8284905,1.485191.4179003.9308334.1937206,1.6253033-.6859414,2.1211792Z" stroke-width="0"/>
      <path d="m85.2213009,164.9141506c-.75417-3.8878133-1.6082462-7.4844366-2.6109633-10.9933373-.8650415-3.0264269-1.7568871-6.0528538-2.6499511-8.9939949-.2241798-.7346761-.4593249-1.4401113-.8735701-2.0029975-1.101405-1.4937196-2.2771304-2.9435779-3.4954987-4.3093687-.3642921-.4081534-.9247416-.6944699-1.4656971-.9710395l-.2497655-.1279287c-.0962511-.0511715-.1949389-.0755388-.2899717-.0755388-.198594,0-.3850044.105998-.5141514.3033737-.1571695.2424553-.1047797.4568881.1839736.7383312,1.2366438,1.2098397,2.3270835,2.623147,3.2420781,4.200934.314339.5433923.6347699,1.0843478.9552008,1.6265217.7687904,1.3012174,1.5643849,2.6487327,2.2783488,4.0072134.5470474,1.0441416,1.0270845,2.2369242,1.4656971,3.6477947.4495779,1.438893.8321456,2.9204289,1.2025295,4.3520116.1047797.4032799.208341.8065598.314339,1.2098397.2753512,1.0441416.4641983,1.845828.6116209,2.6012164.1705716.8711333.3289594,1.7471402.486129,2.6219286.2814431,1.5595114.5714147,3.1714127.9369252,4.7382344.7809741,3.354168,2.1382364,6.7936217,4.1509809,10.5120818,1.7252095,3.1860331,3.0727249,6.5730971,4.1193033,10.3524756.5275535,1.8994362,1.0258661,4.168038.721274,6.5816256-.1730083,1.3609174-.2497655,2.5756306-.2351451,3.7135866.0134021.9369252.1303654,1.9432975.370384,3.1677576.1242736.638425.6493903.8711333,1.0770376.8223986.5811617-.0682286.7480781-.5823801.7870659-1.0027171.0487347-.5360821.0706654-1.0843478.0913776-1.6155564.0109653-.2497655.0207123-.4983126.0328959-.7480781.0718837-1.5972809-.0706654-3.3273639-.4471412-5.4436696-.9893151-5.5630697-2.6353307-10.4511634-5.0318611-14.9432874-2.5926878-4.8564161-4.2813463-9.4252973-5.1634449-13.9698111Z" stroke-width="0"/>
    </g>
  </g>
</svg>