<?xml version="1.0" encoding="UTF-8"?>
<svg id="Layer_2" data-name="Layer 2" xmlns="http://www.w3.org/2000/svg" viewBox="0 0 72.1967821 54.0024215">
  <g id="Layer_1-2" data-name="Layer 1">
    <path d="m40.0407548,38.0966792c1.5372098.7559813,3.7340142,1.1936029,5.5375092,1.008173.3952881.1278814.8125537-.0710381,1.2248812.0415703.414922.0331579.8299321-.2554057,1.2468011-.294127,1.0626001-.2132042,2.1097944-.5675706,3.1374834-.8963185.5439357-.3711072,1.0635353-.7922654,1.6131629-1.1517565,1.8282011-1.2553365,3.5783182-2.9653678,4.4564999-4.9881953.9312168-1.5717872,1.2564384-3.6391315,2.0327539-5.3093353,1.3584581-2.5935068,4.3172697-5.0657884,7.3470098-3.8997632,1.9391921.7402935,2.8173339,1.7165171,3.7280747,3.5453022.4148162,1.8298222.088673,3.8389503-1.0908229,5.4043892-.4273284.6768595-1.2872346.8637889-2.0297673,1.0651445-1.7539173.5318643-3.2914323.5069655-4.789852,1.5955425-3.4876656,1.5467951-3.2100873,4.116434-3.8678214,7.3395877-.3568007,1.1987238-.2652918,2.5406896.6768084,3.4116982.859752.6256074,1.6160029,1.4750947,2.8190026,1.1710312,1.4084577.0118433,2.6104022-.7362091,3.9146008-1.1708507.8080304-.298165,1.2933708-.8823363,2.0496762-1.2102826.4201756-.2814922.9141519-.3325686,1.3241875-.5928516-.0278125-.322307-.0992523-.5572736-.3528125-.7239447-1.0653784.0135243-2.037428.4572653-3.0998546.4875621.5133345-1.1826042.2760148-2.6375796-.1617091-3.8110347l-.171314-.0680246-.2542638.2105773c-.0013754.0046853-.0037098.0079679-.0032614.0077718.3184216,2.7930415-3.0083423,6.4585879-5.566626,3.8255307-1.0912557-2.2942304.7481329-4.5812055,2.249123-6.4138244,2.1648758-1.9508922,5.1264403-2.4677033,7.4468355-4.1831999,1.9296844-1.3478704,3.1486014-3.7384927,2.613177-6.1266169.0149754-1.1888588-.5158965-2.0250629-.8840961-3.1937663-.1874651-.4816631-.6728144-.8300542-1.0324928-1.1940041-2.3648846-2.4905308-6.6072702-2.5305904-9.0863168-.1971313-1.5192694,1.3436369-2.0158229,3.3763579-2.5405179,5.2466577-1.4281409,4.5048798-6.0779222,8.6604182-10.7437269,9.5199956-1.9094868.4544419-4.0227174.213873-5.9785542.008776-4.8961898-.1108797-6.0633078-3.3414159-6.1666684-7.6452218-.2330565-1.9679825.0891097-3.9849844-.3230967-5.956904-.7557878-3.5202237-2.7747287-6.6121935-5.6546586-8.7009296l.6890838-.4117381c.1846614.0879165.4097962-.0342777.5325819.2731395,2.712698,1.1551577,3.964476,3.5254929,6.1612529,5.2141401,1.434068,1.1003353,3.0528991,2.4118126,4.961098,2.2791141,2.022442.0314351,3.929741-.9000824,5.9726174-.7718419,1.6314367.1043035,3.4475416.3044055,4.9059712-.5669211,1.2594931-.6716541,3.3493976-2.0692591,3.0797294-3.8791139.1620741-5.3393709-3.5200495-4.0682758-3.890825-8.5352706-.437002-1.7145688-1.3852794-3.2723584-2.2148586-4.7700906-.6768115-1.2486933-1.7737547-1.6025169-3.1928606-1.812892-1.656634-.1416321-2.3725048-1.0078656-4.073777-1.2563586-1.7501591-.1153125-3.3458132.2753775-4.8872503.9358957-.1886752.0872144-.3783094.1730261-.5676996.2588569l-.0160721-.0353187.0037729.0408852c-2.5578069,1.1261837-5.1268525,2.7090829-5.6762371,5.6151662-.4331488,1.4201864-.0074958,3.9258933-1.1106161,5.1010683-.6968511-.4569907-1.1464277-.1985174-1.7822786-.1088071-.6495794-.1776856-1.2445835-.0028601-1.8795662.1661374-1.3451044-1.5586181-2.0997908-3.7591041-3.8369782-4.8505722-.8265638-.7042048-2.0126927-.8598536-3.0496499-1.1192763-1.6233248-.292944-3.1676433.6877212-4.752769.9397311-1.2320663.3243758-2.5490884.1127142-3.8065347.2610841-.6638512.0414815-1.3468863.1176139-2.0024049.0059824-1.5507378.2247214-3.1522486,1.0241599-3.7603076,2.5831556-1.1798115,1.9649475-2.2824331,3.709855-2.0990256,5.9177203.1118548,2.5439981,2.4498028,3.4797681,2.0281245,6.2333471-.0379668,3.475196,1.156789,4.7007207,4.3483411,6.0324773,2.965256.935902,8.1601396-1.922712,10.1969973-4.0287928,3.6683347-3.1301041,1.6082852-6.7635878,6.5037824-9.8108039l.3089112.4703079c-.0734186.4747948.2908466.8723315.3353332,1.3311936.2889426.8574883.271697,1.758422.3972381,2.6510774.1073865,3.5933378-3.6093564,5.2382599-6.2946896,6.9108365-1.4619192.8399617-2.8047529,2.2890914-3.7279998,3.6649807-.7415838,1.6720432-.8630255,5.4312855-.0410193,6.9975139.8170491,2.3631476,2.8038981,3.9774712,4.6737439,5.4512352,1.5411354,1.0750995,3.1817876,2.2135547,3.8888171,4.0205244-1.2988833,4.2125631-4.5097702,6.5098591-8.9507048,6.1270909-2.1328527-.1728669-4.2858332-.4079289-6.1056045-1.521622-1.2569116-.5335867-1.9119117-1.8013674-2.7273027-2.8165278-.0608632-.2899486-.2336407-1.0624598-.1379713-1.3555452-.1050402-.9366155.5288214-1.6790316.744546-2.5599143.2147881-1.2913729,1.1664381-2.2444991,1.2305998-3.5726066.5216966-2.5204281-1.4244515-5.3508808-4.0592861-5.6576882-1.9990741-.3464352-4.2404145-.3663113-5.9783616.8518843l.0031977.2043029c1.0469351-.0771471,2.0678631.1721639,3.106535.3419342-.7542124,1.0582629-1.4091342,1.6238836-1.6058697,3.2025632l.1645755.2277287c.8499709-.1238716,1.4165266-1.0603698,2.1333672-1.5122981,1.1149438-.8998149,3.0300675-.8325105,3.9985621.2704178,1.3713512,1.4260703,1.0174157,3.6170514.5563117,5.3557203-.1610829,1.1532267-.950191,2.2478903-.9122734,3.4092853.2496179,1.3602868.6103827,2.761566,1.4839686,3.8868952,1.4845214,1.2124128,3.2849772,2.4191508,5.0990012,2.9163372,1.8164688.5280658,4.2046159.6846737,6.1727341.4278243.7173749.0880706,1.4665573-.1801209,2.1633583-.3814588.4370226-.1275148.7126684-.5671852,1.1404294-.7246092,1.3125287-.7381969,2.7300137-2.4131363,3.3070342-3.8358867,1.0886929-1.9913882.3508027-4.1415733-.3612986-6.2373791-.6868781-2.116071-2.5230045-3.353736-4.2154329-4.6071144-2.1027988-1.017892-4.1098306-2.6833288-4.7877843-5.0053279-.3266535-4.1264995,6.134458-6.4747632,9.0310102-8.2393229,1.6181977-.8759725,2.2157361-2.8943891,2.582651-4.616375.5249495-1.8652277-.4802448-4.2235727-1.5471111-5.8778453.0287464-.000821,1.7915237-.0417521,1.8171189-.0427031,2.3718693,3.890033,3.7330697,6.3303562,3.9940088,11.0984847.1575444,2.3419732-.1922119,4.7587553.7142444,6.9970465.9568912,2.3089098,3.7898319,4.6219151,6.0024166,5.6877089Zm25.5673845,2.4607588c.2641274.6670047.2575307,1.6082044-.0965887,2.2325067-.0917161.1496781-.1314259.272343-.0467709.4173405l.3225524.1361887c1.1103696-.1063303,2.0436811-.5784945,3.2177753-.4214159-2.2201525.9597199-4.244326,2.5306711-6.7305844,2.8102407-1.8555279.4375699-4.0516377-1.627116-3.3760548-3.4149306.2899919.2676962.4207576.6359292.6054869.9801886,2.0536396,3.0080623,5.532851-.1044969,6.1041842-2.7401187Zm-6.061571-1.1581241c-.4847202-1.4796456.8759042-3.4151208,2.1098132-4.1784384,1.5040511-.933308,3.1730588-1.820566,4.9652721-1.8917408l.3633054.0225548c-3.2377957,1.5254943-5.8898323,2.4250118-7.4383907,6.0476244Zm-.2040023-14.3512495c.3853692-2.0589636,2.64154-3.9410201,4.6203846-4.3211175,1.2915092-.1305309,3.0214778-.4898564,4.1574636.2898687,1.115221.9447458,2.4459283,1.8042502,3.0475892,3.1146745.5542911,2.3323444,1.1129016,5.2420807-.8760541,6.9959824-.0597678.0566067-.2012093.0970932-.2733643.1451999.7881223-1.6687067,1.2201982-3.312691.8337433-5.0429541-.5613354-1.6611438-1.751063-3.2204771-3.4593666-3.8178933-2.8405928-1.6432666-6.0482584.5290996-7.8295857,2.6431329l-.002017.0244113c-.021679.0077518-.0460931.0370875-.0543409.0580976-.0292289-.0013241-.0766849.0184218-.0992591.0365549l-.0003328-.0005456-.1528037.0929534.0881396-.2179169-.000196-.0004483Zm-17.633239,13.5810675c.0023662.0026094.0052666.0041056.007885.0060707-.0026185-.001965-.0055188-.0034613-.007885-.0060707Zm-2.3612306-1.8814336l.0019801.0046002c6.8865101,1.5518489,12.553057.5625048,17.1179831-5.177192l-.0005143-.0080371c.03931-.0573053.1330179-.1688063.1946684-.2021414l.0015584.0035281.1826539-.1257343c-.0455106.1196725-.0814792.3101271-.1816766.3924546-1.870682,3.9573573-5.8927815,6.4911926-10.3121666,6.8270918-.2799533-.0014826-.5406113.043604-.7780134.1772568-.8484014-.1192078-1.6352599.1339811-2.5463631-.1327869-1.2941948-.3373738-2.7991979-.7642678-3.8822376-1.6859225l-.1273084-.2030288.329436.1299116Zm-33.4885075-.1096175c-1.6360675-.2522193-2.5472654.9191402-3.7123591,1.8519735l-.1792973-.1630805c.1903015-.8582368.9017086-1.8093193,1.6518043-2.3964831.1543048-.1168564.262136-.2152762.2346757-.4064566-.7768289-.3525616-1.7775995-.3156432-2.6114333-.5032644,2.2149109-.844619,5.6410968-.8256989,7.2069413,1.1215277,1.0039942,1.2433461,1.4028231,2.8358811.9119561,4.2991494l-.2838137.5595379c.5683564-2.0066301-1.0564233-4.4227363-3.218474-4.3629039Zm21.0921848,10.3367587c-.5391744,2.8018781-2.6300019,5.4280935-5.4182343,6.1803021-3.6095811.5779452-7.5106103.4204429-10.5972037-1.800276-.7227757-.4829434-1.7993511-.9257171-2.0937552-1.8105666.0787022.0412943.2422463.0789775.3044402.1422552l.0072032.0205681c4.6162412,3.5635598,14.1391079,4.1208709,16.5692842-2.2884351.3505492-.8714486.6856615-1.8243585,1.0290639-2.7267352.0466841.7306721.2143369,1.5669334.1992017,2.2828875Zm-9.1687985-12.0284004c1.1742529,2.1035994,2.9057083,2.8424348,4.851115,4.0401682,1.9517652,1.5747525,3.3982587,2.6645654,3.3758567,5.4006869-2.8428695-3.4176845-7.0183902-4.5381377-8.4330351-9.2812609l.2060634-.1595942Zm37.5125769-17.5244804c-.5687109,1.0627525-1.6026366,1.8051272-2.6564656,2.3968086-1.851298,1.1028354-4.0239562.4517816-6.0674073.5525517l-.3825568-.0061261c2.1261827-1.4586109,5.1314409-.4682619,7.0477551-2.2154367.9801197-.6803957,1.6061146-1.4294873,2.0048714-2.3811061.0115547.524719.231988,1.1724416.0538032,1.6533086Zm-4.7424766-12.0373251c.3511633.7983011.7418125,1.5674301,1.0539377,2.3804455.3173416,1.1383546.3295089,2.3012082,1.2074209,3.2468405.982327,1.0608161,2.1537708,1.9657413,2.4002258,3.5161801l.0157949.0800168-.2187117.0775417c-.8073653-1.2356802-1.965921-1.7712479-3.1995756-2.5142655-2.0185914-1.0822953-2.2808022-4.6859032-2.7678065-6.7586896-.1740072-1.3979043-1.260603-2.3734189-1.9777025-3.510001,1.7527127.1888992,2.7375332,2.2975187,3.4864171,3.4819316Zm-13.8498532-3.4640054c1.6760928-.9044612,3.5516434-1.3581688,5.4466402-1.5298599-.5755161.7800461-1.4754275.3699725-2.3097457.7997295-3.5858994,1.4532546-6.4578178,4.3197703-7.8698722,7.8405669l-.0355302-.0151241.0308706.0260204c-.1177827.2797283-.2658787.6180111-.393121.9037293-.3593505-3.8503635,1.6692339-6.5494164,5.1307584-8.0250622Zm-5.6239503,9.9486562c1.2345649-.7715522,1.4255716-3.6809831,2.5664044-4.9963585,2.7572387-4.0791007,8.8835386-7.7797081,13.3133392-4.0679305,2.5058601,2.0779879,1.7317291,6.1316171,3.5156081,8.8249996,1.2420411,1.5113266,3.3462154,1.9228228,4.3639053,3.7071354-.6065734,1.6070069-1.8323555,2.6273528-3.2260627,3.2596821-1.614396.4921231-3.15551.3275592-4.7303747.8542301-.8738964.3215002-1.6261043.6730061-2.3115749,1.0819077,0,0-1.0230773.1036895-1.0230674.103748-.784413-.3033803-1.691005-.5633878-2.4392371-.9789682-2.0402263-1.2960025-2.4318978-3.7201893-4.1963289-5.1184746-1.6017256-1.2158551-4.0080569-2.142488-6.1179294-1.5283272l-.1776344-.7813195c.1542485-.1157637.2790933-.283792.4629524-.3603244Zm11.7699137,8.9037668l-.8615974.3857992c-3.3196892-.1537624-5.3782641-3.1055083-7.5496557-5.2126999-.7971052-.9895429-2.3884574-1.8117257-3.5965835-2.3543305l-.1846694-.3902447c8.5209492-.0848557,6.3181796,5.7679959,12.192506,7.5714759ZM6.0934326,9.8369605c.1086165-.1194338.2206876-.256902.2277833-.3717142.5190542-1.409655,2.5860911-1.6558831,3.9665091-1.6411717l.1356406.0171193c-.317932.7531103-1.9493888.3499708-2.9510769,1.7673856-1.4848651,1.9958651-2.0360758,4.154677-1.8153149,6.6850439.1015469,1.0014744.3381103,1.9407999-.0436582,2.9367296-2.7279759-2.6579679-1.7850356-6.7403958.480117-9.3933924Zm2.4218523,16.9738979c-1.7567186-.6304041-2.4268987-2.3139129-2.6419396-4.0169081-.0847041-.2244229-.0198285-.6001082-.0578767-.8490163,1.4218348,2.952063,4.8305952,5.2040266,8.2807717,4.8838308-1.7417096,1.2522291-3.8797672,1.1747188-5.5809554-.0179064Zm16.4100683-12.160985c-4.359504,3.6827678-1.425481,7.0222994-7.7466569,10.942354l-.1972622.123326c.0231248-.0441021.0974413-.2341102.1052039-.2772437l-.0001664-.0002728c.0140645-.0150717.0332445-.0376264.0442635-.0536282l.0107316-.0041586c2.0437499-2.2249507,1.8697484-3.3868415,2.9073707-6.0607417,1.0115453-2.1382549,2.7340876-3.9403356,4.7905049-4.8518939l.0232994-.0352254c.0454921.0113963.210916-.1108877.2483502-.1322514-.0399625.0905128-.1856387.3497358-.1856387.3497358Zm1.2499005-.8831819c-2.7018936-.0096457-5.7751008,3.3078178-6.7679035,5.778817-.6387064,1.3318258-.5862318,3.2267891-1.6479691,4.3890204-.7363797.8765867-1.423236,1.8590291-2.4557908,2.3799615-2.9471403.5944116-6.0573045-.5546667-8.0643063-2.840173-1.136486-1.3081157-1.7988035-2.8516561-.9937192-4.4933184.38425-1.0361256-.078879-1.9544138-.152053-2.9860125-.2160735-1.9215645.1759043-4.0903838,1.2749269-5.6063719,1.0504259-1.7525243,4.5561515-2.4580238,6.4409711-2.5516923.4860303.0629767.8981759-.1306253,1.3552318-.1665627,1.2759957.2552354,2.3372242-.2826332,3.5646267-.0243696,3.1019308.3560106,4.8634209,4.5322648,7.378904,4.662502l-.0460778-.4547422c-1.2949896.0942299-2.0303925-1.3796238-2.9728649-2.0974189-1.9743335-1.8196544-3.9800691-3.0938582-6.8123901-2.6242001,2.2535523-1.282311,5.3336936-.8921122,7.1329417.9826146.4063524.3481271.7957954.7643407.9793338,1.2248826.4458027,1.1229266,1.0953682,1.5878397,1.7233363,2.4680701l.368788.2838809c-.6509163.6057446-.3960672.9176461-.3059855,1.6751123Zm2.5118172,6.1534369c-.4028754,1.603791-.751783,3.3768361-2.1793945,4.2724469-2.2491446,1.6827072-5.1083211,2.3996533-7.2227127,4.3701256-.7383426.6189992-.9253981,1.3267869-1.7505676,1.7558419.2639159-.5070142.3650294-1.102927.8341623-1.4979337.9308543-.9707979,1.6628295-2.1016112,2.8606157-2.7716341,2.1821807-1.503328,4.8126402-2.6682546,6.0655304-5.1492211.9613418-1.7483775.6445528-4.1432021-.0515571-5.9717532l-.0501386-.1201943.0543678-.0779004.1622374.1732419c1.0146126,1.3996387,1.6392949,3.2649206,1.2774569,5.0169805Zm-1.8697625-6.262007l-.2592625-.6823888c.5592667-.5875646,1.367644-.6918977,2.1032009-.8796791l.2264043.1583776c.3473493-.213835.6281917-.0530934.9093691.0625791.3814962.1566876.3911897.4864463.4119368.8260735-.587105,1.1206188-2.3435651.9729717-3.3916485.5150377Zm9.4707813,21.0341893l-.0360935.0000755-.0046334-.013901c-1.5198895-1.3506263-2.4522875-3.2171572-2.3446762-5.3380308-.1362374-2.3783065-.0650566-4.7442091-.5265272-7.0899364-.3229598-.9328041-.2857826-1.7021254-.7193579-2.6970134-.3816682-1.1066137-1.1113598-2.0511512-1.5377177-3.1166418l-.0215192-.0091247c-.0830823-.027316-.1420471-.2304487-.1466751-.2557241,0,0,.3346459.0602497.3282118.1369183,1.943958,2.1936677,3.6668357,5.2307894,3.7591563,8.3463372.121601,3.3980706-.0606914,7.0506615,1.5328324,10.1521053-.0462472-.0272759-.2427514-.0919506-.2830003-.115064Z" stroke-width="0"/>
  </g>
</svg>