<?xml version="1.0" encoding="UTF-8"?>
<svg id="Layer_2" data-name="Layer 2" xmlns="http://www.w3.org/2000/svg" viewBox="0 0 21.2957789 11.8651118">
  <g id="Layer_1-2" data-name="Layer 1">
    <g>
      <path d="m20.6039167,9.031826c.182004-.3978324.247486-.8258865.2839873-1.1542782.0343057-.3050973.0905493-.6265593.2698634-.9094845.0658039-.1040635.110946-.2435813.1272382-.3929146.035402-.3235678-.0165262-.6314303-.1546047-.914918-.0314658-.0649522-.0642385-.1292215-.0967809-.1935661-.0589424-.1161597-.1180378-.232397-.169911-.3515085-.2132417-.4908903-.4830556-.8978304-.8243424-1.2441303-.2108264-.2138845-.3389473-.4104564-.4034489-.6187982-.0898146-.2911239-.2394319-.5673906-.4850601-.8957713-.1810825-.2418603-.4071042-.4386537-.6258005-.6290444-.0551695-.048137-.1102636-.0960436-.1647398-.1447902-.1716674-.1538741-.4047686-.3457991-.6832761-.4629135-.4263673-.179168-.8225829-.3340236-1.2114453-.4734297-.1811939-.0649167-.3891351-.1456942-.5608935-.2827024-.1500778-.1198714-.2977412-.1898971-.4516351-.2134971l-.1926491-.0305557c-.2750694-.0438802-.5593301-.0893433-.8434422-.1055193-.843522-.0480972-1.6660655.0368569-2.2883275.1160683-.4954481.0633359-1.032683.1416262-1.6905037.2466354-.506582.0807556-.972821.2578675-1.3862713.5264963-.1862605.1210467-.3560269.2258526-.544709.2841737l-.1027476.0313385c-.1045134.031789-.2090268.063578-.3123313.0986701-.5646018.1914543-1.0937817.4677386-1.581145.7377319-.0801248.0443404-.1550206.0999788-.21506.1445043-.3873311.2872461-.7252983.6329478-1.0518568.9671345l-.1946504.1982803c-.1069944.1079812-.205404.2020556-.3276926.2601983-.2238244.1064309-.4226437.2674292-.6078539.4922101-.1021736.123877-.2202636.227965-.3417133.3011387-.4959534.2990799-.8058634.7304917-.9472687,1.3193638-.050979.212472-.1514533.4050505-.2578924.60902l-.0466369.0897538c-.0075166.0148326-.0169394.0277382-.0261825.0357382-.054767.0477738-.1073261.0983962-.1598076.1488657-.1418031.1368496-.2758984.2660743-.4546783.3363321-.2382468.0939332-.4152181.2694626-.498311.4944878-.0529066.1434625-.1385819.2218892-.285689.2618816-.0204222.0054097-.0400148.0133539-.059687.0218343l-.018671.0076425c-.3608464.1386578-.6249319.3325002-.807113.5926402-.1468733.2098079-.2810333.4646872-.1680471.7665926-.011706.1945141.0371893.3824553.1415819.5435563.0971675.1503288.2123417.2882583.3236301.4217202l.0166809.0201764c.0840957.1006557.1854728.1812415.3032934.2407564.0674347.0341734.1403484.0617064.2182846.0819833l.3089819.0816293c.2173424.0576752.4346849.1153504.6529675.1692741.2734854.0674847.5345248.1398087.7812325.2680981.1504375.0816172.2920837.1301441.4259046.1512592l.1574088.0257656c.3258459.0536607.6628752.109145,1.0077984.0940629.0944737-.0040135.2003538.0092842.3147288.0395709.2643488.0699653.5413097.1753415.8463372.3220386.1729675.0834254.3402968.1461207.4973212.1862974.4153362.1065061.846208.1186441,1.2502508.1158408.2844397-.0019153.5322002-.0971771.7364407-.2825259.0854407-.0775846.1803909-.1272882.2821591-.1475922.1232587-.0247879.2557128-.0487596.3890792-.0570866.2865186-.0177738.5208485-.1104249.7162045-.2831717.1156268-.1022614.260959-.1827428.4576814-.253517l.0317244-.0114053c.062986-.0222765.1281231-.0453847.1907919-.0799295.1514818-.0835148.3179096-.0952667.5397805-.0385637.1163711.0297608.2517469.0610808.3864833.0546012.3252232-.0156484.6679375-.0476088.95804-.2465241.0004587.0002325.0059677.0022555.0189509.0115254.1974933.1415936.3959143.2817356.5975776.4177551.3022666.2037214.6497103.2898515,1.0633052.2644067.0338972-.0020404.0677985-.0048475.1016245-.0078849.0730978-.0065822.1420525-.0125734.2086556-.0089941.417247.0223376.7906312-.0955528,1.2228677-.2795181.1057337-.0448156.2090455-.0954708.3122799-.145973.078483-.038446.1568131-.0769695.2364316-.1127261.166769-.0749991.3212632-.0632024.4879373.0356755.1839409.1099343.3373861.1882711.4825079.2462466.2418942.0968305.5059618.1904839.8075067.2864096.1327855.0424992.2719976.0590434.3907721.0696508.4356347.0387666.8364998-.0571258,1.1911568-.2848258l.0513501-.0254826c.0421236-.0205491.0817882-.0400381.1207719-.0612175.3649268-.1986649.6046538-.4248383.7540897-.711758.217917-.4182617.4074478-.8044003.5792147-1.180515Zm-11.8548942,1.8645605c-.1899526.0096316-.3755246.0314767-.5159199.0495023-.1954018.0249354-.3786214.1081256-.5598803.2541923-.0951724.0766888-.2042702.1197995-.3435827.1360676-.3864848.0451407-.7606513-.033007-1.0756867-.1152056-.1174395-.0306866-.2311242-.0752293-.3515412-.122415-.0434542-.0170242-.0869084-.0340484-.1304422-.0505364-.0883704-.0330597-.1764267-.0674976-.2644055-.1020885-.1868206-.0735336-.3802982-.1494798-.5768474-.2102628-.1425906-.0440087-.30861-.0652975-.5223458-.0667574-.312554-.0021464-.6287809-.0482419-.934589-.0929013l-.1443254-.0208651c-.0937669-.0133091-.1889811-.0567555-.2895473-.1029142-.0468038-.0214122-.0934547-.042747-.1408092-.0615555l-.3390519-.1353041c-.1225537-.0490372-.2452603-.0981519-.3681994-.1468079-.0797928-.0314034-.1608254-.0603602-.2414747-.089315l-.1912148-.0690341c-.1441537-.0526804-.2883075-.1053608-.4347229-.1509234-.1477162-.0460297-.2591402-.11172-.3500179-.205819-.0474195-.0493985-.1022119-.0963835-.1778841-.1526043-.0731523-.0543673-.1196077-.1261469-.1417983-.219262l-.0042432-.0234826c-.0035644-.0214089-.0078666-.0481884-.0187584-.0756168-.018679-.0477101-.0178874-.0807487.0381866-.1292055.0363564-.0315434.0528257-.0716273.0647903-.1009257.0031058-.0072665.0059058-.0146879.0095458-.0214915l.0769296-.1483928-.0490439-.0040979c.1806492-.118317.3823745-.2069273.599487-.2629484.1090925-.027931.2129767-.0709932.30074-.1243389.1899893-.11589.2993728-.2972272.3082666-.5104629.0084525-.2025049.1033122-.3491144.2988002-.4610647.1961037-.112407.3342225-.2768762.4326777-.4078264.2089575-.2780887.3525519-.5906462.4915682-.8930319l.0581025-.1260314c.1455905-.3130834.3714851-.5616411.6907156-.7596326l.0720751-.0443838c.2067623-.1269926.4207549-.2583929.5885794-.4579679l.0240654-.0270098c.0245241-.0267773.0524413-.0572163.0741934-.0959683.0876284-.1562317.2308643-.2602607.464192-.3376607.2549836-.0841064.48431-.229837.7215965-.4584002.1738592-.1671129.3458101-.3357695.5178385-.5045789l.1062846-.1043051c.2455574-.2410917.4879312-.4178782.7408991-.5404816l.2897127-.1408815c.2735721-.1333021.5469912-.2666816.8232176-.3946028.0824691-.0383478.1735271-.0629262.2698844-.0892392l.0838442-.0232373c.2986899-.0854039.5578623-.2069771.7919673-.3716184.2818183-.1981167.6056628-.3418807.9898232-.4393199.5607322-.1421026,1.1112977-.2755201,1.6837501-.3448038.1609498-.0195247.3215999-.0403542.48225-.0611838.2644526-.0345293.5289806-.0688282.7939364-.0971449.6017106-.0640659,1.1981215-.0410683,1.7725992.0684431.1237627.0238974.2176989.0626604.2948124.1217256.2088119.1609744.4557014.2839748.777374.3864489.1294948.0414081.2535507.0962034.385026.1541819.0614163.0270877.1229856.0542528.1849464.0798868l.0823065.0344069c.0849836.0355714.1698896.0712956.2565087.1021226.2376622.0854611.4541509.2161174.6603838.4003842l.1396177.1261015c.0891089.080903.1782178.161806.2697186.2398852.2278732.1946568.4233079.4336046.5975762.7306273.0556063.0950587.0994786.1908974.1304039.2849796.1034104.3147335.2748757.6055313.5095336.8641638.2983708.3289719.5502465.707219.7486301,1.1242768.0485919.1020741.1014881.2021014.1543844.3021288.073311.1386236.149203.2820144.2098335.4263195.0501075.119562.0642793.2637698.0752801.4130971.0043588.0589027-.0134405.132329-.0423413.1745691-.281904.4129332-.3609429.8954233-.4307044,1.3209243-.0545441.3332777-.151819.6006991-.3061449.8418997-.184169.2875756-.3406898.5945435-.4788452.8652709-.1411797.2770744-.3597642.4922453-.6681635.6578657-.2627276.1411038-.5548661.2200265-.8685081.2348173-.1041382.0048814-.2189296-.0192743-.3299695-.0424898l-.0173836-.0036204c-.1053717-.0222649-.2097991-.049048-.3142265-.075831-.0760237-.0194999-.151817-.0390753-.2281569-.0568136-.238741-.0560273-.4233703-.1236459-.5816528-.214812-.2737071-.1542713-.5657996-.1691104-.8681122-.0374967-.0985932.0428608-.1951438.0907925-.2915415.1388017-.10593.0527877-.2152427.1073205-.3244283.1525007-.3722003.1542363-.6652654.2201975-.9505812.2139815-.117515-.002474-.2351344.000188-.3526783.0030804l-.0408682.0010061c-.2394573.0056846-.4665655-.0607832-.6944937-.2026177-.101776-.0634916-.2022367-.1291994-.302775-.1947542-.0719662-.0468476-.143702-.0937707-.2160557-.1398538-.0514945-.033014-.1123962-.0702188-.1777862-.0997045-.1360669-.0595367-.2777743-.0540913-.409712.0162658-.0637392.0340023-.1250505.0726943-.1862088.1114637-.0995469.0633253-.201312.0972758-.3107475.1035086-.0677923.0036975-.1337538.0090915-.197523.0344304-.1228507.0486331-.2442918.0349448-.4125119-.0047557-.1782494-.0422845-.4118761-.0799612-.6391793.0033746l-.0876474.03188c-.3032692.1099888-.6168311.2236021-.8854164.4414932-.0924035.0750171-.2089981.1150974-.3561597.1225833Z" stroke-width="0"/>
      <path d="m11.5022763,9.3971728c.4077103-.1568047.838261-.1846112,1.2796121-.0827947.3414275.0786611.6947233.1600695,1.0750759.1573684.5982439-.0041321,1.1394081-.0860044,1.6611723-.2524669.3209379-.1023803.6240593-.1991834.9495387-.2054772.090936-.0019627.191083-.0202054.3059666-.0557717.5205915-.1622522.944594-.4683902,1.2599263-.9101226.1822316-.2553099.2790127-.5448903.2879245-.8609344.0071902-.2527277-.0517187-.4887922-.1161707-.7063336-.0542927-.1822204-.0727997-.3470746-.0563928-.5034606l.0076026-.0734046c.0145481-.1386862.0293514-.2820477.0518675-.4197709.0449382-.2722271-.0047688-.5370682-.1473967-.7873076-.238854-.4187329-.5462404-.7818696-.913627-1.079321-.2759406-.2234357-.4899119-.4512137-.6542649-.696127-.2924295-.435505-.6772916-.7337407-1.1753371-.9136788-.5018766-.180342-.9788427-.3738128-1.4174337-.5751264-.4765238-.2186147-1.0103741-.3271402-1.5866956-.3222765-.7598672.0064034-1.4680825.1729332-2.1099919.4975985-.3703087.1872894-.7532245.380874-1.1349747.5573684-.6442929.2975129-1.1522208.7556093-1.5527526,1.4007358-.0406794.0654829-.0822009.1307313-.1237978.1957493-.0553613.0868701-.1107225.1737402-.1643263.261693-.0504329.0828334-.112952.132252-.191252.150996-.1703406.0407104-.342108.0758931-.5142505.1095405-.0601694.0117885-.1208627.0211976-.1816334.0307596-.1099541.0171165-.2235906.0346731-.3350037.0664249-.2982271.0848697-.5400037.2646494-.7619067.4412396-.2889651.2296643-.5780983.3910187-.8841623.4932492-.5695787.1902775-.963848.5556851-1.1724027,1.0859291-.1163654.2959913-.2003824.6070303-.2816604.9077342l-.0064917.023808c-.0560861.2070012-.0202877.4067548.1035063.581147-.0511302.0557667-.0861715.1419797-.0556018.2735495l.00629.0277869c.0128104.0554983.0257737.1110742.0445766.1642282l.0339102.0950183c.0628487.17368.1220688.3378339.1376063.5130986.0276118.310338.1980307.5535207.5064636.7226992.0158988.0088257.0318772.0171151.048086.0253291.2371682.120188.4972768.1803172.7742785.1786685.2699491-.0017635.5412073-.0330361.8063284-.0635752.2892091-.0333224.5400903-.0107324.7668183.0693797.2798322.0989518.5218855.1947098.7397753.2930207.6618535.2985035,1.3818503.3639507,2.1401457.1941645.2832373-.0632542.56309-.152823.833804-.2395278.1086689-.0346799.2171849-.0694372.326076-.1026592.2700755-.0820317.5361682-.2074009.8624575-.4064276.1714526-.1047201.3494081-.1926921.528718-.2617203Zm-7.0488337-3.5580556c.0534196-.0253948.1060034-.052174.1583567-.0788778l.0713405-.0361079c.2795139-.1120336.5362243-.2746363.7848998-.4968514.3156219-.2822664.6988184-.4142104,1.1390665-.392132.249938.012695.5036929-.0284086.7756902-.1256097.148941-.0530923.2706626-.1340078.3621632-.2406159.1487484-.1736883.2814656-.33167.3996241-.5052934.3035456-.4453993.588841-.7338093.925109-.9350821.2961198-.1774165.5421726-.3114037.7740674-.4216243l.0926967-.0441192c.3104511-.1480529.6315091-.3011085.9577546-.4067567.5974265-.1936539,1.1421562-.2685304,1.6652626-.2290618.0562494.0042901.1127333.0077381.1692948.0110333.1203263.0071658.2339079.0139885.3476723.0295521.1586569.0217857.3163343.054606.4684365.0976694.2799397.0790193.5106155.1520996.7258563.2298498.3763845.1359656.7780812.2837975,1.1648378.4440454.219854.089505.4040819.2599299.593967.5469938.1492032.2251285.3429581.4343977.5924716.6394444.3711805.3047551.6303912.5881297.8158181.8915759.0504611.0824578.0941712.1657224.1303762.24749.0449117.1021309.0568519.2052339.0364033.3149853-.0143722.0776614-.0265994.155641-.0388266.2336206-.0104811.0669492-.0210376.133668-.0328195.2001501-.0491712.2752708-.0396092.5491719.0292904.8375763.0425122.1774036.0691948.3473618.0789227.5052688.010168.1615893-.0414493.3218485-.162414.5040433-.2042866.3075535-.4866732.5257534-.8636334.6670076-.0702143.0263008-.1386844.0419545-.1980417.0453142-.3480146.0196653-.6756889.1201693-.9923814.2172059l-.1791539.0543093c-.2177718.0645274-.385735.1050973-.5448033.1311487l-.0915446.0152992c-.3007996.0501263-.5846412.0975075-.8785853.0848051-.223889-.0094879-.4057567-.0347721-.5722637-.0793699-.4320771-.1155663-.7890647-.1521453-1.1232975-.1149258-.4225269.0468629-.8392208.1777828-1.2735033.3999165-.1521399.077608-.316329.1433446-.4752167.2069631-.0775996.0310142-.1550463.0621059-.2316571.0945821-.3348728.1416345-.7012085.2604063-1.152997.3737337-.5356203.1342648-1.0361018.1358578-1.5298877.0047787-.232424-.0616665-.4594711-.1536636-.6790989-.2424774-.1408341-.0569557-.281821-.113989-.425298-.1642124-.3021048-.1058185-.7049176-.217317-1.142798-.1382607-.253166.0456301-.5270391.0357958-.8140325-.0289251-.0964046-.0217565-.1997563-.0631769-.317642-.1248388-.0847014-.0452297-.1375544-.1248638-.1568829-.2368998l-.0086962-.0507229c-.0211098-.1229322-.0431163-.2501625-.0761006-.374692-.0480088-.1817265-.151483-.3283327-.2445809-.4514233-.1443288-.1907561-.1840287-.349438-.1287817-.5145843.0222089-.0665792.043117-.1336255.0640252-.2006717.0393221-.1265161.0802776-.2573933.1293169-.3803303.197085-.4931997.4856807-.8249079.8822181-1.0138958Z" stroke-width="0"/>
      <path d="m10.1776382,7.0544851c.1075802.124472.2338512.2234386.3778953.2964348.1834957.0929888.3961206.1440453.6361172.1520867.3650942.0118597.7230226-.0690846,1.0939729-.2474006l.0010766-.0006075c.2349944-.1163371.4126485-.2621165.5429739-.4457175.2716215-.3827824.2543815-.8250826-.046132-1.183199-.1521222-.1814449-.3340607-.3214979-.5416134-.4174531-.3442167-.158485-.655628-.173505-.9507898-.0457627-.1786509-.1241655-.3683786-.0425437-.4522198-.0056599-.2956308.1294264-.5387176.3246855-.7222521.5799116-.2834135.3942953-.2576532.9483432.0609713,1.3173672Zm1.9234107-.7433985c-.0435671.0465309-.0975303.0874092-.1545723.1305708-.0224784.0170518-.0447263.0340282-.0667459.0513125-.2140131.0783475-.4006142.1204268-.585749.1323077-.1537679.0099035-.3028388-.0266269-.453704-.1142264-.143917-.0823487-.194202-.2542743-.1172869-.3999839.0941872-.178276.2404857-.3099648.3742999-.4155013l.0049852-.0003564c.0155465.0030738.0477121.0093806.0844341-.004681.1212275-.0461886.223109-.0022462.3677915.0945198l.0721884.0483055c.1168772.0780629.2337543.1561257.348625.236631.0387231.0271186.0774865.0609839.1185023.1036779.0627407.0658109.0578908.0837245.0072318.1374238Z" stroke-width="0"/>
      <path d="m13.5976752,3.533364c.0333618.0403528.0858988.0648626.1629734.074325l.2936832.1178863c.2307274.0919403.4613772.1840335.6891558.2825511.4770466.2069644.8300666.5100115,1.0805793.927734.102881.1712894.1456712.3398012.1310021.5151329-.0103976.1225322-.0252401.2447337-.0410021.3668536-.0353697.274962.0108214.5236077.1373831.7391842l.0178173.0368956c.0166757.0353561.0335817.0706369.054103.1037138.0642242.1034617.1409513.1773214.2333883.2239728.0212549.0107712.0433602.0202437.0662403.028187.1128716.0389418.2177176.0307676.2949805-.0230948.0536387-.0375834.118215-.1130573.1211582-.2606993.0017785-.0880792-.0110389-.1849003-.0372848-.2794939-.080521-.2942937-.1510188-.6132962-.1207435-.9529148.0217841-.2436024-.0383552-.4931667-.1738954-.7213648-.1739811-.2934179-.3845562-.539654-.6260108-.7321607-.5279503-.4205227-1.1757856-.6742545-2.0386002-.7984315-.0278085-.0039067-.1236718-.0123204-.1872417.0471357-.050318.0473378-.0862592.1156063-.0938039.178278-.0055413.0465828.007327.0913483.036118.1263098Z" stroke-width="0"/>
      <path d="m5.4209361,7.9043417c.1732682.2834476.4223673.5226849.7617133.7313596.0228471.0140764.0459307.0269274.0691735.038706.1126969.0571106.2304402.0883354.3511622.0932034.1335998.0052441.2528984-.0386549.3549778-.1308695.0442232-.0402408.0653967-.085436.0627458-.1340562-.0042761-.0742354-.0617806-.1158684-.0807191-.1296937-.0417731-.0302016-.0767974-.0608268-.1040799-.0911803-.0542592-.0605519-.1068994-.1227817-.159617-.1848586-.0351193-.0414356-.0703915-.0829486-.1058961-.124003l-.1510994-.1720862c-.1010401-.1146236-.2021578-.2290942-.299654-.3469186-.0520998-.0629169-.093227-.1417977-.1234064-.2035997-.0420074-.0862454-.0370002-.161734.0157357-.2309085.0800703-.1052898.1549745-.1909045.2291089-.2617268.1891134-.1809071.419536-.3166653.6202985-.4257505.0549002-.0298334.126868-.1111706.114996-.1984801-.0097365-.0710449-.0699748-.1459655-.1405112-.173639-.0610475-.0244024-.1370806-.0279559-.2035711-.0097616-.0926729.0254896-.1839923.0558931-.2752343.0861438l-.1046808.0343947-.0211341.0094692c-.2725483.1566906-.5021259.3347727-.7021253.5439874-.2066325.2166154-.3016653.4663392-.2823777.742286.0130102.1889742.0716031.3699145.1741949.5379823Z" stroke-width="0"/>
    </g>
  </g>
</svg>