<?xml version="1.0" encoding="UTF-8"?>
<svg id="Layer_2" data-name="Layer 2" xmlns="http://www.w3.org/2000/svg" viewBox="0 0 11.8816252 36.4814201">
  <g id="Layer_1-2" data-name="Layer 1">
    <g>
      <path d="m11.6946615,19.0078125c-.1953125-.5224609-.4785156-.9892578-.8662109-1.4277344-.4746094-.5341797-1-.8955078-1.6064453-1.1035156-.0146484-.0048828-.0253906-.015625-.0371094-.0253906-.0029297-.0029297-.0068359-.0068359-.0117188-.0097656l-.0253906-.0205078.0283203-.0166016c.2617188-.1503906.3769531-.2617188.3867188-.3701172.0078125-.0927734-.0625-.1972656-.2294922-.3369141l-.0146484-.0126953.0097656-.0166016c.0996094-.1601562.0878906-.3330078-.0361328-.5292969-.1806641-.2900391-.3828125-.5166016-.6162109-.6923828-.2177734-.1630859-.4414062-.3398438-.6855469-.5400391-.1943359-.1582031-.3994141-.3339844-.6455078-.5517578-.0302734-.0253906-.0400391-.0888672-.0292969-.1279297.0175781-.0712891.0390625-.1425781.0595703-.2128906.0263672-.0869141.0527344-.1767578.0742188-.2666016.0712891-.3115234.2167969-.5947266.4453125-.8671875.0839844-.0996094.1679688-.2001953.2519531-.2998047.2060547-.2460938.4189453-.5.6259766-.7529297.140625-.1708984.2841797-.3447266.4042969-.5292969.0576172-.0869141.1005859-.2158203.0732422-.2802734-.0263672-.0615234-.046875-.1259766-.0673828-.1875-.0302734-.0947266-.0585938-.1835938-.1044922-.265625-.0429688-.0761719-.1279297-.1533203-.2275391-.2080078-.1025391-.0556641-.2216797-.0761719-.3037109-.0839844-.3886719-.0371094-.7050781-.0214844-.9960938.0488281-.0332031.0087891-.0673828.0117188-.1054688.015625-.0195312.0009766-.0390625.0029297-.0605469.0058594l-.0273438.0029297.0019531-.0263672c.0019531-.0351562.0048828-.0683594.0068359-.0996094.0048828-.0654297.0097656-.1259766.0107422-.1855469.0009766-.0693359.0019531-.1376953.0039062-.2060547.0039062-.1923828.0087891-.3916016.0019531-.5859375-.0166016-.5039062-.0361328-1.015625-.0546875-1.5107422-.0205078-.5361328-.0410156-1.0908203-.0585938-1.6357422-.0058594-.1875-.0029297-.3769531,0-.5605469.0019531-.1660156.0048828-.3369141.0009766-.5048828-.0039062-.1904297-.0371094-.3027344-.1083984-.3652344-.0673828-.0605469-.1796875-.0771484-.3505859-.0615234-.0820312.0078125-.1660156.0097656-.2470703.0107422l-.0498047.0009766c-.0292969.0029297-.0576172-.0009766-.0908203-.0048828-.0175781-.0019531-.0361328-.0039062-.0576172-.0048828l-.0390625-.0029297.0224609-.0322266c.0253906-.0371094.0419922-.0615234.0576172-.0849609.1201172-.1796875.2568359-.4208984.25-.6914062l-.0009766-.0498047c-.0117188-.4199219-.0224609-.8535156-.1083984-1.2636719-.0625-.3056641-.1748047-.6074219-.2822266-.8994141-.0458984-.1220703-.0927734-.2490234-.1357422-.375-.0478516-.1396484-.1142578-.2011719-.2216797-.2060547h-.0097656c-.1240234,0-.1845703.0888672-.2314453.1845703-.0253906.0546875-.0507812.109375-.0703125.1650391-.0253906.0722656-.0517578.1445312-.078125.2167969-.0693359.1904297-.140625.3867188-.1962891.5839844l-.0166016.0605469c-.0722656.2568359-.1474609.5224609-.1640625.7851562-.0332031.5175781-.0107422,1.0605469.3681641,1.5234375l.0283203.0351562-.1894531.0078125c-.3076172.015625-.4306641.125-.4550781.4023438-.0722656.8037109-.1220703,1.5166016-.1513672,2.1787109-.0175781.3876953-.0126953.7822266-.0078125,1.1650391.0019531.1328125.0029297.2646484.0039062.3974609.0019531.3242188.0068359.6552734.0107422.9746094.0029297.1621094.0048828.3242188.0068359.4873047.0009766.0644531.0009766.1279297,0,.1933594v.1230469l-.046875.0029297c-.078125.0058594-.1376953.0039062-.2050781.0039062-.1455078.0009766-.2910156,0-.4423828-.0009766-.1738281,0-.3505859.0019531-.5244141.0087891-.3222656.0136719-.6005859.0400391-.8525391.0820312-.1201172.0195312-.2060547.0673828-.2558594.1425781-.0507812.0761719-.0605469.1806641-.03125.3017578.0429688.1708984.1035156.3095703.1826172.4111328.5087891.6591797.90625,1.1552734,1.2871094,1.6083984.1582031.1884766.3173828.3974609.4042969.6572266.015625.0449219.0283203.0908203.0419922.1367188.0224609.0800781.0458984.1621094.0820312.2363281.1015625.2119141.0644531.3574219-.1318359.5195312-.1748047.1435547-.3408203.3046875-.5009766.4599609-.1435547.1386719-.2929688.2822266-.4472656.4150391-.1290283.1091919-.2443848.2202759-.3588257.3317261-.0650024.0633545-.1286621.1281128-.1908569.1941528-.1053467.1118774-.2098389.2237549-.303833.340332-.1103516.1396484-.1972656.2666016-.265625.3896484-.0966797.1748047-.0615234.3193359.1103516.4570312.1425781.1152344.3085938.1875.5234375.2265625l.3632812.0654297c.1962891.0341797.3945312.0703125.5986328.1064453l.0654297.0117188-.0585938.0302734c-.0097656.0058594-.0175781.0097656-.0234375.0126953-.0107422.0068359-.0195312.0117188-.0283203.0136719-.0302734.0048828-.0615234.0087891-.0917969.0126953-.3115234.0439453-.6640625.09375-.9833984.2333984-.8476562.3691406-1.5722656.9755859-2.1523438,1.8007812-.3085938.4384766-.4814453.9335938-.5126953,1.4697266-.0800781,1.4091797.5117188,2.546875,1.7597656,3.3837891.671875.4511719,1.4697266.5556641,2.2412109.65625l.0117188.0009766c.1201172.0166016.2441406.0214844.3642578.0273438.0537109.0019531.1074219.0048828.1601562.0078125l.0175781.0009766.0039062.0175781c.0146484.0820312.0224609.1298828,0,.1621094-.0214844.0302734-.0634766.0390625-.1308594.0517578l-.0615234.0107422c-.1220703.0205078-.2490234.0429688-.3720703.0683594-.4541016.0917969-.7832031.2558594-1.0380859.515625-.2744141.28125-.2753906.6582031-.0019531.9404297.0917969.0957031.1835938.1640625.2714844.2041016.2363281.1044922.4794922.1865234.6650391.2451172l.0078125.0019531c.0761719.0244141.1357422.0429688.1347656.1601562,0,.0644531.0410156.1396484.0791016.1894531.1396484.1757812.2392578.3798828.3037109.625.03125.1171875.0585938.2373047.0839844.3525391.0214844.0927734.0419922.1845703.0644531.2753906.1884766.7607422.2685547,1.5605469.2382812,2.3779297-.0029297.0712891-.0048828.1416016-.0078125.2128906-.0205078.5273438-.0419922,1.0712891.0400391,1.6044922.0117188.0830078-.0351562.1035156-.0888672.1132812-.2832031.0439453-.5664062.1552734-.8925781.3515625-.484375.2910156-.90625.6396484-1.2539062.9414062-.3476562.3027344-.5517578.6650391-.6240234,1.1083984-.0517578.3164062.0097656.5976562.1777344.8125.1669922.2138672.421875.3408203.7392578.3671875.1962891.015625.3955078.0380859.5878906.0595703l.0097656.0009766c.0292969.0029297.0634766.0195312.0908203.0429688.2412109.2099609.5400391.3271484.8867188.3486328.3359375.0205078.7128906.0419922,1.0283203-.2021484.0117188-.0087891.0263672-.0117188.0429688-.0117188.03125,0,.0664062.0117188.0810547.0185547.0507812.0224609.1005859.0488281.1484375.0732422.0712891.0361328.1445312.0742188.21875.1025391.4404297.171875.8134766.1123047,1.1386719-.1796875l.0546875-.0498047c.0537109-.0488281.109375-.0986328.1679688-.1455078.0273438-.0234375.0791016-.0458984.1142578-.0341797.1005859.0214844.203125.046875.3007812.0712891.0957031.0244141.1953125.0488281.2929688.0703125.3320312.0742188.6357422-.0019531.9013672-.2246094.0371094-.0302734.0966797-.0410156.1425781-.0410156h.0126953c.0527344.0019531.1054688.0078125.1572266.0136719.0585938.0068359.1191406.0136719.1787109.0136719.0107422,0,.0224609-.0009766.0332031-.0009766.3232422-.0136719.6660156-.3173828.6679688-.5917969.0019531-.1806641-.0019531-.4492188-.0654297-.6982422-.0927734-.3583984-.2753906-.7207031-.5771484-1.140625-.3886719-.5429688-.9091797-.8876953-1.546875-1.0224609-.1640625-.0351562-.3378906-.0478516-.5048828-.0605469-.0742188-.0058594-.1484375-.0107422-.2226562-.0185547-.1523438-.0146484-.1845703-.0488281-.1923828-.2021484l-.0048828-.1201172c-.0078125-.1650391-.0146484-.3349609-.0351562-.4990234-.0078125-.0625-.015625-.1240234-.0234375-.1855469-.0576172-.4541016-.1171875-.921875-.0859375-1.3886719.0742188-1.1123047.15625-2.2001953.3427734-3.2792969.015625-.0947266.0761719-.1142578.1357422-.1269531.3964844-.0761719.7636719-.2353516,1.1005859-.3964844.1123047-.0537109.2255859-.1328125.3261719-.2275391.1875-.1757812.2763672-.4072266.2441406-.6357422-.0302734-.2138672-.1679688-.3984375-.3779297-.5058594-.5732422-.2949219-1.0917969-.3740234-1.5859375-.2373047l-.0244141.0068359-.0039062-.0253906c-.0097656-.0703125-.0205078-.1425781-.03125-.2167969-.0126953-.0839844-.0253906-.1689453-.0371094-.2539062l-.0029297-.0224609.0224609-.0029297.5273438-.0605469c.28125-.0332031.5458984-.1367188.8027344-.2363281.1054688-.0419922.2148438-.0849609.3242188-.1220703.6630859-.2265625,1.2861328-.5751953,1.8515625-1.0361328.5029297-.4111328.8857422-.9726562,1.2050781-1.7685547.2255859-.5615234.2177734-1.1494141-.0234375-1.7958984ZM5.5638021,1.8671875c.0732422-.2587891.1640625-.5175781.2519531-.7685547.0410156-.1171875.0820312-.234375.1220703-.3525391l.0107422-.0322266.0253906.0224609c.3691406.3173828.5283203,1.5429688.2548828,1.9570312l-.0097656.0146484-.0166016-.0058594c-.1572266-.0576172-.2470703-.0273438-.5332031.3271484l-.0283203.0341797-.0107422-.0429688c-.1152344-.4277344-.1708984-.7880859-.0664062-1.1533203Zm-.2910156,2.234375c0-.046875.0107422-.0791016.0332031-.1005859.0214844-.0205078.0517578-.0302734.0957031-.0302734h.0117188c.4433594.0146484.8867188.0244141,1.3007812.0332031.0986328.0009766.1132812.0605469.1152344.1171875.0039062.0800781.0087891.1611328.0146484.2421875.0058594.1015625.0126953.2080078.0166016.3115234.0341797,1.0576172.0458984,2.3056641-.1279297,3.5419922-.0371094.2607422-.0244141.5351562-.0117188.7998047.0039062.0791016.0078125.1582031.0097656.2363281.0019531.0654297-.0068359.1025391-.0283203.1289062-.0234375.0283203-.0605469.0410156-.1240234.0429688-.2949219.0078125-.59375.0205078-.8818359.0322266-.1103516.0039062-.2197266.0087891-.3291016.0126953-.0195312,0-.0380859-.0019531-.0458984-.0039062h-.0234375v-.0234375c.0078125-.1914062.0175781-.3808594.0273438-.5693359.0224609-.4462891.0439453-.8671875.0400391-1.2978516-.0039062-.4238281-.0273438-.8564453-.0507812-1.2744141-.015625-.2939453-.0322266-.5976562-.0419922-.8964844-.0087891-.2900391-.0058594-.5839844-.0029297-.8681641.0009766-.1445312.0029297-.2900391.0029297-.4345703Zm-1.4345703,11.7421875l-.5556641-.0283203c-.0332031-.0009766-.0654297-.0058594-.1025391-.0097656l-.0849609-.0107422.0244141-.03125c.0078125-.0107422.0136719-.0195312.0195312-.0263672.0097656-.0136719.0166016-.0234375.0253906-.0322266.1064453-.1044922.2128906-.2080078.3193359-.3115234.2207031-.2138672.4482422-.4335938.6669922-.6552734.1328125-.1347656.2646484-.2763672.3916016-.4121094.140625-.1523438.2871094-.3085938.4365234-.4570312.2333984-.2324219.1933594-.515625.15625-.7900391l-.0048828-.03125c-.0888672-.6396484-.3554688-1.203125-.8154297-1.7226562-.2333984-.2617188-.4560547-.5390625-.671875-.8076172-.0927734-.1162109-.1855469-.2314453-.2792969-.3457031-.0058594-.0068359-.0097656-.015625-.0136719-.0253906-.0019531-.0048828-.0048828-.0107422-.0087891-.0185547l-.0126953-.0263672.0292969-.0058594c.0087891-.0009766.0175781-.0039062.0263672-.0058594.0166016-.0039062.0341797-.0078125.0517578-.0078125.2089844-.0019531.4189453-.0039062.6279297-.0058594.6181641-.0058594,1.2597656-.0117188,1.8867188-.0097656.5771484.0019531,1.1943359.0205078,1.796875.1464844.1376953.0292969.28125.0322266.4335938.0361328.0722656.0019531.1474609.0039062.2236328.0087891l.0410156.0029297-.0234375.0322266c-.0087891.0126953-.0175781.0244141-.0253906.0361328-.0175781.0263672-.0332031.0507812-.0537109.0732422-.1416016.1650391-.2851562.3300781-.4287109.4951172-.1787109.2050781-.3574219.4111328-.5341797.6181641-.4658203.5449219-.6923828,1.125-.6933594,1.7714844,0,.0664062,0,.1503906.03125.2109375.0371094.0722656.1015625.1347656.1660156.1923828.0302734.0292969.0673828.0537109.1025391.078125.0341797.0224609.0693359.046875.0996094.0742188.2558594.2275391.4628906.4169922.6533203.5947266.1337891.1269531.3085938.2949219.4746094.4697266.1523438.1611328.3027344.328125.4482422.4892578.0595703.0654297.1181641.1308594.1777344.1953125.0097656.0097656.0175781.0205078.03125.0380859l.0380859.0507812-.0390625.0048828c-.0537109.0058594-.1064453.0117188-.1572266.0166016-.1171875.0117188-.2275391.0234375-.3369141.0400391-.1464844.0214844-.2929688.0458984-.4404297.0693359-.2109375.0341797-.4296875.0703125-.6455078.0986328-.2734375.0361328-.5488281.0488281-.8232422.0488281-.2880859,0-.5751953-.0136719-.8574219-.0273438l-.0878906-.0039062c-.5615234-.0253906-1.1318359-.0546875-1.6835938-.0839844Zm3.2910156,17.2714844c.0546875.0039062.1113281.0097656.1669922.0048828.0292969-.0009766.0576172-.0019531.0869141-.0019531.625,0,1.1474609.3076172,1.59375.9394531.1074219.1523438.1806641.3320312.2519531.5058594.0283203.0693359.0576172.1416016.0888672.2109375.0380859.0820312.0722656.1650391.1083984.2529297.0146484.0371094.0302734.0742188.0458984.1123047l.0087891.0195312-.0195312.0097656c-.0224609.0107422-.0449219.0214844-.0673828.0332031-.0625.0302734-.1210938.0595703-.1826172.0839844-.078125.0332031-.1464844.0195312-.2216797-.0341797-.0507812-.0361328-.1259766-.0732422-.1884766-.0732422-.0039062,0-.0087891.0009766-.0136719.0009766-.2050781.0214844-.4277344.0566406-.6982422.1103516-.1298828.0244141-.2705078.0634766-.4423828.1210938-.1601562.0537109-.3222656.0791016-.5068359.0791016h-.0478516c-.1699219,0-.3447266.0429688-.5136719.0849609l-.0224609.0048828c-.2001953.0498047-.3857422.0449219-.5703125-.0146484-.2089844-.0664062-.3847656-.109375-.5615234-.0068359-.015625.0078125-.03125.0078125-.0449219.0087891h-.0107422c-.0703125.0068359-.1425781.0146484-.2138672.0224609-.1767578.0185547-.3583984.0380859-.5390625.046875-.0263672.0009766-.0527344.0019531-.0791016.0019531-.1191406,0-.2353516-.0136719-.3398438-.0400391-.0947266-.0234375-.1884766-.0576172-.2783203-.0898438-.0947266-.0341797-.1914062-.0703125-.2890625-.09375-.0761719-.0185547-.15625-.0166016-.2392578-.0107422-.0390625.0009766-.078125.0019531-.1240234.0019531-.0361328-.0019531-.0742188-.0009766-.1123047-.0009766-.015625.0009766-.0322266.0009766-.0478516.0009766-.078125,0-.1572266-.0029297-.2333984-.0205078-.2226562-.0507812-.3173828-.1845703-.2998047-.421875.0214844-.2871094.1103516-.5351562.2666016-.7373047.3408203-.4433594.7773438-.7636719,1.2978516-.953125.1298828-.046875.2636719-.0888672.3935547-.1289062.1289062-.0410156.2617188-.0830078.390625-.1298828.1259766-.0458984.2568359-.1103516.3896484-.1933594.0517578-.0322266.1015625-.0986328.1230469-.1640625l.0048828-.0136719c.0478516-.1435547.0966797-.2919922.1064453-.4394531.0234375-.3427734.0429688-.7099609.0292969-1.0712891-.0224609-.6064453-.0488281-1.2001953-.1171875-1.7949219-.0927734-.8076172-.2724609-1.5839844-.5341797-2.3076172-.0332031-.09375-.0742188-.1835938-.1171875-.2783203-.0214844-.0458984-.0429688-.0927734-.0634766-.1416016l-.0146484-.0322266.0361328.0009766c.3417969.0087891.6816406.0166016,1.0214844.0253906l.9824219.0244141-.0048828.0263672c-.0146484.0673828-.0283203.1328125-.0429688.1982422-.0273438.1289062-.0537109.2490234-.0761719.3730469-.1123047.6083984-.1708984,1.2744141-.1796875,2.0351562-.0078125.6259766.0009766,1.2617188.0107422,1.8759766.0029297.2011719.0058594.4033203.0078125.6044922.0009766.0927734-.0195312.15625-.0722656.2197266-.0429688.0527344-.0742188.1298828-.0820312.2021484-.0244141.2402344.0439453.4697266.1923828.6464844.1494141.1787109.3652344.2871094.6083984.3046875Zm3.4501953-11.1552734c-.5791016.5576172-1.2939453.9794922-2.1845703,1.2910156-.078125.0273438-.1630859.0380859-.2441406.0488281-.0527344.0068359-.1064453.0136719-.1582031.0253906-.4013672.0859375-.734375.1611328-1.046875.2363281-.0419922.0097656-.0830078.0410156-.1230469.0703125l-.0244141.0175781c-.0810547.0605469-.0966797.140625-.0478516.2402344l.0097656.0205078-.0205078.0097656c-.2226562.1074219-.2822266.2255859-.2392578.4707031.0126953.0800781.0302734.1728516.0595703.2617188.0361328.109375.0986328.1806641.1767578.2001953.0791016.0185547.1728516-.0146484.2607422-.0976562l.015625-.0146484.015625.0146484c.1464844.140625.3330078.1933594.4794922.2236328.1669922.0361328.3457031.0751953.5205078.1191406.0996094.0253906.1748047.0537109.2373047.0878906.0878906.0488281.1337891.1035156.1357422.1630859.0019531.0585938-.0380859.1152344-.1181641.1669922-.1220703.0800781-.2841797.1806641-.4599609.25-.4189453.1679688-.8134766.25-1.1982422.25-.0576172,0-.1152344-.0019531-.171875-.0058594-.2861328-.0175781-.5761719-.03125-.8574219-.0439453-.3720703-.0166016-.7558594-.0341797-1.1337891-.0634766-.1914062-.0146484-.3828125-.0664062-.5673828-.1162109-.0615234-.0166016-.1230469-.0332031-.1855469-.0488281-.0595703-.0146484-.1152344-.0458984-.1679688-.0761719-.0136719-.0078125-.0273438-.0146484-.0410156-.0224609-.0634766-.0332031-.0771484-.0703125-.078125-.0957031-.0009766-.0244141.0107422-.0605469.0673828-.0957031.0292969-.0185547.0595703-.0371094.0888672-.0566406.0976562-.0634766.1992188-.1298828.3085938-.1650391.2802734-.0878906.5712891-.1552734.8535156-.2207031l.0458984-.0097656c.140625-.0322266.2265625-.1132812.2617188-.2480469.0185547-.0732422.0351562-.1494141.0507812-.2226562.0195312-.0859375.0390625-.1757812.0625-.2626953.0126953-.0488281.046875-.1113281.09375-.1425781.1103516-.0722656.1728516-.1923828.1669922-.3212891-.0058594-.125-.0761719-.2363281-.1894531-.2978516-.0195312-.0087891-.0527344.0039062-.078125.0117188-.0087891.0029297-.0175781.0058594-.0253906.0078125-.0136719.0039062-.0292969.0126953-.0439453.0205078-.0244141.0126953-.0488281.0263672-.0751953.0263672h-.0078125l-.0185547-.0019531c-.6279297-.0712891-1.2783203-.1455078-1.9160156-.2294922-.5800781-.0761719-1.0673828-.359375-1.4892578-.8632812-.3984375-.4775391-.6318359-.9189453-.7353516-1.3876953-.1689453-.7744141-.0107422-1.4980469.4707031-2.1513672.3095703-.4189453.7167969-.7861328,1.2119141-1.0927734.03125-.0185547.0664062-.0361328.1162109-.0361328h.0039062l.0400391.0009766-.0214844.0332031-.0878906.1435547c-.0634766.1035156-.1289062.2109375-.2011719.3115234-.5478516.7607422-.7724609,1.6826172-.6865234,2.8183594.0371094.4990234.1484375.9697266.3310547,1.3974609.0488281.1123047.1142578.2197266.1904297.3105469.0791016.0966797.2109375.1269531.3222656.0761719.1142578-.0517578.1660156-.1572266.1474609-.296875-.0039062-.0263672-.0048828-.0537109-.0068359-.0820312-.0068359-.0966797-.0126953-.1884766-.1005859-.2519531-.0185547-.0136719-.0234375-.0410156-.0263672-.0634766-.0253906-.1484375-.0537109-.2949219-.0810547-.4375-.0615234-.3212891-.1259766-.6542969-.1552734-.9853516-.0566406-.6513672.0878906-1.2773438.4296875-1.8613281.2724609-.4638672.5429688-.8105469.8505859-1.0917969.0527344-.0488281.109375-.0927734.1689453-.1396484.0253906-.0205078.0517578-.0410156.0791016-.0625l.0332031-.0273438.0029297.0439453c.0009766.0126953.0019531.0224609.0029297.0302734.0019531.0126953.0029297.0234375-.0019531.0341797-.3847656.7744141-.4140625,1.6054688-.3964844,2.2421875.0039062.1523438.0146484.3066406.0253906.4560547.0058594.0820312.0117188.1630859.0166016.2451172.0283203.4824219.15625.984375.390625,1.5322266.0585938.1386719.1484375.2685547.2431641.4003906.0341797.0478516.0898438.0927734.1757812.140625.0839844.0458984.1660156.0517578.2294922.0195312.0585938-.0302734.0957031-.0947266.1035156-.1787109.0214844-.2158203.0175781-.3974609-.0136719-.5556641-.0683594-.3623047-.15625-.7363281-.2675781-1.1455078-.2617188-.9628906-.2216797-1.9423828.1181641-2.9101562l.0029297-.0068359c.0136719-.0390625.0273438-.0791016.0537109-.1123047.0751953-.0908203.0810547-.1894531.0195312-.3007812-.0537109-.0966797-.140625-.1455078-.2558594-.1455078-.0380859-.0009766-.0742188.0048828-.1142578.0117188-.015625.0019531-.03125.0048828-.046875.0068359l-.0175781.0019531-.0068359-.0166016c-.0205078-.0576172-.0224609-.1005859-.0058594-.1347656.0175781-.0341797.0537109-.0585938.1132812-.0761719.21875-.0634766.4453125-.140625.6738281-.2285156.1328125-.0507812.2119141-.1210938.25-.2207031.0136719-.0361328.0722656-.0595703.1083984-.0605469.4863281-.0117188.9130859-.0205078,1.3037109-.0244141.0410156,0,.1005859.0263672.1181641.0605469.0458984.0908203.125.1494141.2421875.1806641l.2333984.0625c.3535156.0957031.71875.1943359,1.0810547.2753906.4335938.0986328.8896484.2197266,1.2783203.5185547.7792969.5976562,1.2666016,1.2832031,1.4882812,2.0957031.0087891.0322266.0166016.0644531.0244141.0957031.0136719.0585938.0283203.1191406.0478516.1777344.2353516.6845703.0673828,1.2900391-.5126953,1.8496094Z" stroke-width="0"/>
      <path d="m7.7093099,17.8603516c-.0791016-.1416016-.1865234-.2197266-.2988281-.2197266-.0263672,0-.0517578.0039062-.078125.0126953-.1699219.0546875-.1943359.2353516-.1855469.3789062.015625.2509766.0351562.5068359.0527344.7333984.0595703.7822266.0419922,1.4160156-.0566406,1.9951172-.0634766.3740234-.1337891.7529297-.2021484,1.1201172-.0507812.2734375-.1015625.5458984-.1494141.8193359-.0234375.1298828-.0332031.2646484-.0302734.4003906.0029297.1328125.0917969.2480469.2167969.2822266.1328125.0332031.2421875-.0019531.3310547-.1113281.0517578-.0625.0839844-.1162109.1015625-.1660156.0449219-.1269531.0917969-.2539062.1386719-.3808594.1220703-.328125.2470703-.6669922.3330078-1.0097656.1611328-.6503906.1855469-1.3076172.1884766-1.8642578-.0087891-.0986328-.0166016-.1982422-.0244141-.2988281-.0195312-.2558594-.0400391-.5214844-.0712891-.7802734-.0449219-.375-.1289062-.6650391-.265625-.9111328Z" stroke-width="0"/>
      <path d="m6.0901693,17.3203125c-.0253906-.0615234-.0683594-.1064453-.1220703-.125-.0195312-.0078125-.0400391-.0107422-.0605469-.0107422-.03125,0-.0625.0078125-.0927734.0244141-.078125.0439453-.1201172.1210938-.1230469.2285156-.0039062.1240234,0,.2558594.0107422.4042969.0146484.1953125.0302734.390625.0458984.5859375.0263672.3222656.0537109.6552734.0742188.9833984.0371094.5791016-.0332031,1.1601562-.1015625,1.7216797-.0146484.1191406-.0283203.2382812-.0419922.3574219l-.0097656.078125c-.0302734.2617188-.0615234.53125-.0849609.7978516-.0107422.1220703.0292969.1943359.1220703.2216797.1318359.0390625.2070312-.0605469.2333984-.1054688.0683594-.1113281.1425781-.2441406.1796875-.3798828.2255859-.8085938.3183594-1.4238281.2919922-1.9365234-.0185547-.7734375-.0566406-1.6015625-.2021484-2.4169922-.0273438-.15625-.0683594-.3007812-.1191406-.4287109Z" stroke-width="0"/>
      <path d="m9.3333333,18.0625c-.0302734-.046875-.0898438-.1142578-.1816406-.1142578-.0195312,0-.0419922.0029297-.0654297.0107422-.1201172.0380859-.1376953.1464844-.1318359.2304688.0107422.1513672.0302734.3046875.0576172.4570312.1005859.5712891.1826172,1.0869141.1591797,1.6240234-.03125.7001953-.1015625,1.2607422-.2207031,1.765625-.0322266.1386719.015625.2548828.1289062.3105469.1181641.0595703.2480469.0263672.328125-.0800781.0761719-.1035156.1376953-.2138672.1757812-.3183594.1650391-.4404297.2568359-.9199219.2802734-1.4667969-.0332031-.7744141-.15625-1.4658203-.375-2.1132812-.0322266-.09375-.0830078-.1943359-.1552734-.3056641Z" stroke-width="0"/>
    </g>
  </g>
</svg>