<?xml version="1.0" encoding="UTF-8"?>
<svg id="b" data-name="Layer 2" xmlns="http://www.w3.org/2000/svg" width="336.396" height="397.885" viewBox="0 0 336.396 397.885">
  <g id="c" data-name="Layer 1">
    <g>
      <path d="m261.64,204.36c1.05-.667,2.009-1.465,2.935-2.237l.286-.24c.739-.612,1.161-1.437,1.192-2.319.071-2.025-.481-3.612-1.69-4.851-1.11-1.139-2.4-1.646-3.831-1.495-.553.056-1.114.061-1.708.067l-2.948.03c-1.731.016-3.461.03-5.191.065-.433.009-.841.112-1.199.202-.151.039-.302.077-.452.107-1.774.346-3.228.437-4.576.284l-.164-.018c-2.297-.261-4.672-.53-7.085-.175-.556.082-1.204.002-1.828-.074l-.154-.018c-.646-.077-1.289-.191-1.943-.307l-.669-.116c-.057-.042-.134-.1-.154-.126-.882-1.184-2.049-1.893-3.467-2.107-.315-.047-.67-.163-1.027-.333-1.389-.667-2.683-1.386-3.248-2.863-.515-1.344-1.581-2.298-3.083-2.761-2.066-.635-3.681-2.039-5.157-3.423-.346-.325-.686-.653-1.026-.982-.455-.44-.911-.881-1.377-1.309-3.474-3.189-6.094-6.038-8.242-8.968-.128-.174-.26-.349-.394-.523-.44-.579-.855-1.125-1.121-1.709-.295-.647-.596-1.295-.896-1.94-1.102-2.367-2.241-4.814-3.044-7.296l-.436-1.354c-.631-1.968-1.285-4.002-2-5.989-.483-1.34-.937-2.835-1.389-4.568-.504-1.93-1.083-3.989-1.905-5.986-.477-1.158-1.062-2.686-1.359-4.242-.27-1.414-.963-2.498-1.632-3.547l-.055-.086c-1.331-2.086-3.158-2.996-5.428-2.705-.745.096-1.357-.109-1.967-.663-1.102-1.007-2.371-1.656-3.577-2.207-.753-.346-1.476-.907-2.212-1.477-.828-.642-1.645-1.3-2.462-1.956-1.078-.865-2.155-1.73-3.256-2.563l-.226-.172c-.711-.535-1.382-1.04-1.875-1.719-.421-.579-.964-1.079-1.531-1.409-1.597-.928-3.494-2.012-5.446-2.996-1.155-.584-1.89-1.307-2.382-2.342-.801-1.682-1.658-3.368-2.487-4.998-.458-.902-.917-1.803-1.37-2.709-.988-1.981-1.421-3.865-1.32-5.758.125-2.356.179-5.138-.369-7.905-.08-.404-.084-.849-.088-1.321l-.012-.582c-.002-.049-.004-.096-.004-.144l.003.004c1.226.777,2.509.646,3.609-.37.354-.325.724-.679,1.018-1.107.906-1.319,1.521-2.853,1.991-4.974.289-1.309-.175-2.496-1.308-3.344-.418-.311-.824-.637-1.23-.963-.457-.367-.913-.733-1.385-1.079-.964-.711-1.391-1.391-1.428-2.275-.011-.268-.069-.505-.121-.714-.021-.088-.044-.174-.06-.263-.376-2.103-.634-2.389-2.689-2.791l-.041-.03c-.019-.012-.037-.026-.058-.04l-.089-.221c-.186-.451-.392-.956-.605-1.456-.174-.407-.699-1.642,1.054-2.732.773-.479,1.55-.951,2.327-1.423.667-.404,1.335-.809,1.999-1.218.392-.24.607-.305.828-.253,1.701.426,2.963-.396,3.764-1.051.753-.614,1.667-1.005,3.058-1.312,1.211-.265,2.26-.665,3.117-1.184,1.305-.793,2.784-1.433,4.655-2.014,1.02-.319,2.022-.768,2.98-1.337,1.781-1.056,1.703-2.202,1.041-3.6-.046-.096-.105-.189-.214-.356-.186-.423-.196-.547-.194-.574.021-.056.119-.172.436-.419l4.176,1.958c.023.077.043.153.064.225.124.437.252.889.584,1.258.598.66,1.532.802,2.565.389.255-.102.505-.251.765-.456,1.1-.87,1.755-1.926,2.003-3.226.055-.286.13-.388.127-.398.013-.009.161.004.437.156.451.249.858.563,1.178.907.491.532.928,1.111,1.389,1.726l.211.279c.455.605.471.802.293,1.123-.358.639-.351,1.6.742,2.377,1.086.772,2.794.605,3.888-.375,1.092-.977,1.32-2.44.568-3.635-.484-.772-1.049-1.519-1.68-2.221-1.041-1.158-2.243-2.153-3.571-2.953-1.363-.823-1.45-1.368-1.015-2.493.267-.689.401-1.402.531-2.093l.077-.402c.06-.305.242-1.237-.329-1.877-.567-.637-1.493-.565-1.794-.54-.164.012-.33.042-.496.075-.078.016-.142.026-.195.035.207-1.051.662-1.83,1.434-2.477.647-.542,1.047-1.328,1.403-2.089.44-.94.24-2.002-.524-2.768-1.031-1.032-2.223-1.996-3.961-2.067-.354-.014-.707-.067-1.05-.116-.272-1.154-.002-1.965.877-2.721.406-.349.777-.726,1.134-1.091.779-.793,1.513-1.542,2.503-1.896.305-.111.524-.296.699-.447.06-.051.12-.105.185-.146.949-.611,1.432-1.339,1.437-2.165.006-.888-.583-1.768-1.657-2.477-.333-.223-.704-.333-1.056-.428-1.562-.423-3.128-.835-4.693-1.246-1.893-.495-3.482-.54-5-.137-.536.14-.986.072-1.463-.225-1.372-.854-3.023-1.302-5.046-1.365-1.362-.044-2.809-.24-4.422-.602-.503-.112-1.003-.163-1.487-.214-.539-.054-1.048-.107-1.514-.237-.722-.204-1.435-.432-2.15-.66-1.447-.461-2.944-.939-4.51-1.203-.826-.14-1.328-.586-1.494-1.326-.251-1.128-.909-2.028-2.013-2.754-.167-.109-.313-.251-.467-.393-.005-.005-.011-.011-.017-.014-.118-1.828-1.001-2.958-2.757-3.54-.566-.186-.862-.867-.991-2.27-.046-.491.222-.781.842-1.326.248-.218.493-.439.733-.654l.882-.789-.385-.591c-1.01-1.544-1.746-2.154-3.44-1.667-.667.191-1.315.435-1.942.67-.402.151-.805.304-1.211.44-.152.051-.304.105-.457.16-.513.184-.996.356-1.44.381-1.324.074-2.639.446-3.911,1.102-.827.428-1.707.554-2.688.381-1.443-.256-2.803-.156-3.943-.025-.464.054-.952.037-1.464.021-.953-.033-2.02-.068-3.077.375-2.212-.475-4.371-.021-6.595,1.389-.626.398-1.328.935-1.776,1.905-.379.819-.835,1.781-1.35,2.695-.163.289-.3.439-.362.493-1.058.163-2.175.304-3.224.214-.892-.072-1.49-.744-1.836-1.295-.763-1.219-2.051-1.777-3.357-1.465-1.179.284-2.391.307-3.817.074-1.094-.182-2.009.356-2.453,1.428l-.168.411c-.269.661-.522,1.284-.882,1.798-1.048,1.495-1.322,3.156-.838,5.079.118.47.21.947.3,1.423l.469,2.31c-.24.116-.511.125-.919.04-.022-.037-.044-.074-.066-.111-.191-.318-.389-.646-.636-.961-1.207-1.54-2.845-2.309-4.484-2.089-1.626.209-2.998,1.346-3.762,3.114-.07.161-.126.328-.183.495-.055.161-.105.325-.185.472-.748,1.398-.558,2.775.553,3.981.48.521.965,1.039,1.441,1.547l.222.239c-.771,1.549-.78,1.879-.596,3.984.031.353.027.721.018,1.111-.206-.089-.373-.291-.518-.672-.38-1.002-.625-1.828-.77-2.602-.27-1.44-1.2-2.37-2.687-2.686-1.992-.425-3.618-.03-4.698,1.146-.907.984-2.016,1.263-3.403,1.377-1.282.111-1.642-.096-2.165-1.205-.095-.202-.154-.46-.218-.733-.05-.216-.1-.43-.166-.637l-.14-.447c-.238-.76-.485-1.546-.78-2.312-.331-.861-.946-1.542-1.825-2.026-1.746-.961-3.349-.523-4.282,1.174-.763,1.379-1.131,2.798-1.094,4.217.007.305.011.611.016.914.005.512.012,1.023.038,1.535.048.995-.296,1.809-1.053,2.488l-.417.379c-.616.561-1.197,1.091-1.842,1.482-1.426.867-2.257,2.086-2.542,3.728-.191,1.109-.347,2.225-.466,3.323-.068.647-.177.779-.17.779-.017.007-.185.06-.822-.121l-.191-.053c-.07-.018-.142-.037-.211-.058-.538-.174-1.277-.411-1.367-.553-.095-.149-.008-.949.054-1.535.188-1.73-.278-2.551-1.846-3.256-1.528-.684-2.861-1.014-4.149-1.019-.018-.026-.035-.053-.053-.077-.225-.333-.439-.644-.681-.93-.17-.202-.337-.407-.504-.614-.543-.67-1.105-1.363-1.801-1.937-.731-.598-1.204-1.237-1.476-1.993l.128-.474c.144-.525.282-1.026.392-1.535.28-1.289.196-2.442-.257-3.523-.712-1.7-2.074-2.323-3.847-1.746-1.392.451-2.407,1.421-3.105,2.965-.518,1.149-1.187,1.672-2.307,1.809-1.378.168-2.036.807-2.346,1.314-.333.546-.612,1.514-.051,3.025.091.247.203.489.315.73.103.221.207.442.288.672.124.358.047.602-.269.837-.218.163-.494.3-.786.446l-.245.123c-.931.474-1.523,1.212-1.761,2.195-.096.391-.186.677-.292.926-.389.914-.759,1.291-1.363,1.389-.826.137-1.489.582-1.968,1.325l-.111.182c-.039.065-.096.163-.12.188-1.245,1.093-1.813,1.133-2.644.193-.3-.34-.657-.73-1.096-1.04-.365-.26-.918-.651-1.553-.719-2.057-.223-4.222-.307-6.075,1.289-1.072.923-2.371,1.146-3.617,1.251-.824.068-1.646.182-2.441.295-.433.06-.867.121-1.299.174-.194.023-.389.033-.568.04-.023-.025-.044-.047-.063-.07-.519-.654-1.168-1.326-2.042-1.335-.857.016-1.462.618-1.854,1.089-.462.558-.995.807-1.818,1.068l-.656.204c-.496.153-.994.305-1.48.486-1.101.412-1.791,1.193-1.945,2.2-.234,1.544-.325,3.805,1.572,5.612l.345.328c.476.454.953.911,1.442,1.349.417.374.628.851.836,1.502l.254.807c.558,1.791,1.135,3.644,2.359,5.288.369.495.497,1.393.6,2.114.077.528.057,1.089.037,1.682-.004.123-.008.246-.011.37-.136.086-.271.172-.405.256-.58.367-1.18.746-1.723,1.198-.586.484-1.107,1.032-1.612,1.56-.212.221-.425.444-.64.66l-.139.142c-.8.76-1.629.947-2.608.595l-.553-.202c-.583-.218-1.186-.442-1.816-.603-1.609-.411-3.012.133-3.944,1.542-.643.972-.96,2.16-.869,3.258.107,1.307.779,2.428,1.89,3.163.821.542,1.404,1.24,1.781,2.14.405.963,1.065,1.796,2.018,2.546.246.193.481.4.716.607.375.332.762.674,1.198.972,1.339.916,1.968,2.167,2.111,4.253-.111.072-.23.158-.343.258-4.387,3.96-5.753,8.302-4.167,13.309.014.065.03.13.053.198l.126.377c.422,1.279.901,2.728,2.518,3.451.037.032.121.149.176.226.111.154.226.311.354.437l.931.933c.975.982,1.982,1.998,3.025,2.956.744.682,1.575,1.226,2.433,1.77,1.629,1.032,3.3,1.2,4.968.505l.37-.16c.479-.204.932-.398,1.392-.532,1.29-.382,2.245-.605,3.233-.207l.157.532c.218.747.441,1.507.677,2.26.102.328.044.596-.186.846-.538.586-1.1,1.112-1.672,1.563-1.675,1.323-2.586,3.149-2.865,5.751-.179,1.674.807,2.133,1.795,2.365.105.025.22.04.335.056.05.007.1.012.146.021,1.208,1.182,2.743.856,3.576.679,1.041-.221,2.05-.558,3.026-.886l.644-.214c.639-.211,1.273-.437,1.907-.663,1.07-.382,2.178-.777,3.274-1.077,2.53-.689,4.848-2.058,7.294-4.305.712-.653,1.225-1.332,1.524-2.018.502-1.151,1.381-1.925,2.478-2.816.938-.761,1.762-1.647,2.561-2.503l.181-.193c.312-.335.579-.691.839-1.035.221-.296.443-.593.69-.863.177-.195.352-.393.527-.589.874-.989,1.699-1.925,2.808-2.391,1.607-.677,3.384-1.298,5.281-1.84,1.579-.446,3.152.042,4.621.642,1.362.556,2.222,1.344,2.705,2.475.1.233.243.409.363.556.854,1.06,2.049,1.3,3.195.646.4-.23.783-.488,1.153-.737l.897.66c1.382,1.018,2.721,2.003,4.054,2.995.233.174.499.381.687.605,1.226,1.447,2.685,2.623,4.094,3.758.696.56,1.415,1.139,2.085,1.737,1.033.921,2.121,1.253,3.332,1.011,1.096-.219,2.038.186,3.151,1.354,1.167,1.221,2.257,2.603,3.218,3.821,1.75,2.219,3.023,4.76,3.785,7.549.296,1.088.703,2.579,1.736,3.719.916,1.011,1.296,2.175,1.197,3.667-.101,1.525.29,3.005,1.232,4.661.311.547.602,1.105.893,1.663.218.418.435.833.661,1.246,1.123,2.06,1.686,4.291,1.721,6.823.015,1.118-.14,1.858-.535,2.553-.52.919-.872,1.933-1.147,2.803-.19.596-.139,1.182.143,1.647.28.461.77.775,1.379.881,1.46.256,2.584,1.112,3.824,2.321.109.105.222.211.337.318.533.496.995.925,1.096,1.512.204,1.175.897,2.074,2.121,2.751,1.091.602,2.089,1.482,3.05,2.689,1.764,2.216,3.365,3.944,5.038,5.442l.086.077c.476.426.8.735.925,1.175l-.117.161c-.268.367-.551.753-.803,1.16-.517.832-.688,1.691-.496,2.482.185.763.694,1.414,1.473,1.882,1.395.839,3.446,1.753,5.46.307.121.019.238.039.353.056.504.081.969.154,1.436.193.827.067,1.577.407,2.296,1.037.425.374.75.693,1.022,1.005,1.437,1.653,2.856,2.97,4.342,4.028.825.588,1.331,1.153,1.588,1.777.19.461.331,1.023.431,1.718.225,1.572,1.142,2.747,2.803,3.596.352.181.888.432,1.465.535.372.068.648.237,1.015.628.876.928,1.782,1.832,2.686,2.735.455.453.91.905,1.36,1.361l.134.137c.558.565,1.136,1.149,1.656,1.747.739.847,1.118,1.467,1.01,2.316-.098.779.102,1.889,1.607,2.761.428.247.814.421,1.182.53,1.907.561,3.272,1.933,4.355,3.198.949,1.109,1.927,2.193,2.905,3.275l.923,1.026c.874.974,1.91,1.746,3.079,2.291.218.102.442.189.667.279.318.125.619.242.87.393.456.275.919.54,1.383.807,1.339.768,2.604,1.495,3.713,2.417.258.216.507.444.754.67.962.881,2.046,1.874,3.668,2.067,1.133.77,2.36.53,3.188.368,3.793-.744,7.008-.432,9.824.958.161.081.331.14.501.202.109.037.216.072.321.125,1.013.496,2.013.384,2.677.256.382-.074.743-.186,1.125-.305.06-.019.121-.039.183-.058.189.128.381.253.572.379.639.421,1.3.854,1.896,1.33,2.202,1.753,4.197,3.844,5.93,6.217l.066.089c1.28,1.753,2.603,3.565,4.242,5.124.383.363.696.847.924,1.23.817,1.361,1.741,2.223,2.912,2.714.462.195.813.539,1.175,1.151.105.181.216.356.327.532.123.193.246.388.359.588.789,1.398,2.04,2.296,3.825,2.747,1.946.489,3.679.316,5.296-.54.218-.116.446-.212.674-.312.167-.072.332-.144.497-.223.907-.428,1.753-.382,2.589.139,1.184.74,2.334,1.519,3.419,2.316.272.2.543.53.745.903.652,1.211,1.276,2.435,1.901,3.665l.499.977-.057.086c-.22.328-.42.625-.597.935-.592,1.033-.761,2.051-.491,2.946.262.867.907,1.563,1.913,2.063.509.256,1.238.654,1.697,1.193,1.246,1.453,2.747,2.802,4.724,4.247.402.295.769.663,1.159,1.053.178.179.355.358.539.532.153.146.303.293.454.44.277.272.555.544.846.8,1.392,1.221,3.024,1.618,4.849,1.172.211-.051.418-.119.625-.188l.268-.089c.641-.2,1.188-.1,1.775.326,3.03,2.191,4.458,4.302,4.774,7.056.436,3.809,1.876,7.302,4.402,10.677,1.475,1.972,2.417,4.209,3.415,6.581.3.711.6,1.423.914,2.125.161.363.232.816.307,1.295l.034.216c.559,3.474,1.918,6.979,4.192,10.777.418.698.849,1.421,1.131,2.149.158.409.212.896.134,1.211-.429,1.721-1.139,2.593-2.377,2.914-.546.144-1.089.358-1.613.637l-.539.282c-.756.393-1.539.798-2.233,1.354-1.38,1.105-2.06,2.403-2.021,3.858.038,1.472-.176,2.91-.401,4.433-.111.747-.222,1.496-.303,2.247-.161,1.509-.821,3.049-2.076,4.849-.118.17-.371.337-.639.512-.336.221-.716.472-1.012.842-.304.379-.485.816-.645,1.2-.136.326-.265.635-.434.833-.009.011-.016.021-.025.032.366-.956.132-1.832-.67-2.467-.091-.072-.193-.193-.3-.323-.177-.211-.377-.451-.66-.642-.447-.305-.992-.514-1.532-.586-.853-.112-1.7.181-2.468.853-.543.474-1.09,1.028-1.625,1.644-.398.46-.761.625-1.256.609-.453-.023-.906-.011-1.389.002-1.758.047-3.736.353-5.085,2.246-.262.367-.724.798-1.706.275-1.437-.761-2.933-1.125-4.439-1.068-.755.026-1.502.119-2.224.209l-.693.084c-1.542.179-2.832.772-3.834,1.76-.875.865-1.964,1.354-2.915,1.721-.648.249-1.297.495-1.947.74-.588.221-1.177.444-1.763.67-1.429.547-2.887.825-4.459.844-.784.011-1.556.112-2.302.211l-.638.082c-.574.07-1.147.154-1.72.235-1.911.277-3.719.539-5.566.374-1.188-.105-2.33.07-3.409.519-.911.381-1.936.491-3.046.342-1.999-.274-3.4-.774-4.543-1.625-1.79-1.335-3.721-2.316-5.736-2.914-.435-.13-.86-.307-1.264-.526-1.874-1.021-3.91-1.293-5.835-1.481-2.226-.223-3.932.619-5.066,2.489-.331.546-.728,1.182-1.171,1.768-.275.365-.562.268-.657.235l-.497-.165c-1.568-.514-2.924-.958-3.454-2.512-.128-.37-.342-.684-.55-.974-.667-.926-1.86-1.175-2.839-.588-.334.2-.625.426-.861.668-2.36,2.419-4.263,4.747-5.821,7.121-.822,1.253-1.2,2.616-1.122,4.049.038.712.117,1.423.196,2.133l.036.326c.218,1.974.439,3.949.676,5.923l.043.393c.058.575.119,1.17.349,1.751.932,2.353,2.442,3.723,4.489,4.074,1.43.244,2.887.407,4.295.563.909.1,1.817.202,2.722.325,2.431.33,4.174,1.182,5.483,2.682,1.372,1.57,3.134,2.658,5.388,3.324,2.535.749,4.515,1.616,6.227,2.73.789.514,1.602,1.086,2.197,1.781,1.309,1.528,2.789,2.44,4.658,2.87,2.189.505,3.891,1.391,5.203,2.71,1.418,1.428,3.185,1.91,5.406,1.461.925-.186,1.987-.274,3.342-.279.852.014,1.548.4,2.109,1.2.25.353.473.726.698,1.096l.097.161c.964,1.593,2.182,3.005,3.624,4.2.81.672,1.624,1.339,2.438,2.003,1.55,1.268,3.152,2.577,4.691,3.902,1.702,1.461,3.553,1.907,5.653,1.361.507-.133,1.055-.184,1.635-.239l.2-.019c1.018-.1,1.902.077,2.695.54,1.191.695,2.415.932,3.584.932,1.421,0,2.763-.347,3.879-.635.969-.247,1.5-1.139,1.292-2.165-.248-1.209-.257-2.437-.267-3.735-.005-.689-.01-1.381-.052-2.068-.074-1.202.411-2.158,1.439-2.844.384-.254.764-.535,1.131-.839,2.473-2.037,3.053-5.403,1.41-8.186-.356-.6-.699-1.211-1.05-1.835l-.277-.491c.043-.088.086-.168.125-.246.197-.389.369-.725.499-1.093.498-1.41.057-2.514-1.278-3.191-.419-.212-.847-.379-1.261-.542-.271-.105-.542-.211-.806-.328-1.129-.505-1.3-.775-1.225-1.923.082-1.23.224-2.498.433-3.879.05-.339.243-.73.43-1.107l.041-.088c.174-.353.371-.695.568-1.037.128-.221.255-.446.378-.67.762-1.403,1.617-3.298,1.447-5.498-.04-.507.095-1.018.436-1.656.616-1.151,1.183-2.305,1.608-3.182,1.635-3.389,3.164-6.01,4.807-8.247.627-.851,1.209-1.814,1.783-2.944.034-.068.061-.137.094-.205-.052.981.192,2.003.758,3.067.532.996,1.034,1.939,1.206,2.989.168,1.03.845,1.819,1.907,2.219.106.04.213.084.32.128.312.128.667.274,1.052.349,2.088.421,4.183.816,6.279,1.202.286.053.562.06.807.065.125.004.25.005.375.016s.247.016.367.016c1.37,0,2.446-.674,3.283-2.051.756-1.246,1.141-2.64,1.21-4.389.014-.332.034-.833.182-1.096.553-.979,1.141-1.94,1.73-2.902.368-.6.736-1.202,1.096-1.809,1.316-2.218,2.755-3.73,4.53-4.761,1.454-.846,2.727-2.067,3.888-3.733.854-1.226,1.149-2.423.957-3.875-.246-1.853-.33-3.674-.413-5.863-.1-2.642,1.027-4.707,3.445-6.31,2.088-1.384,4.364-2.33,6.771-3.317l.009.007c.263.196.512.381.771.549,1.95,1.261,3.45.975,4.86-.932.903-1.225,1.515-2.728,1.871-4.6.112-.593-.038-1.165-.17-1.67-.032-.121-.063-.24-.09-.358-.062-.277-.148-.551-.235-.825-.111-.347-.216-.675-.246-.975-.365-3.732-.418-6.603-.168-9.309.119-1.277-.488-2.244-1.623-2.589-1.721-.523-3.19-1.639-4.486-2.621-.596-.453-1.288-.854-2.242-1.303-1.534-.725-2.601-1.6-3.361-2.756-.879-1.339-2.225-2.182-4-2.509-.231-.042-.465-.067-.7-.089-.275-.026-.535-.053-.756-.114-.498-.139-.714-.295-.797-.375-1.126-1.084-1.545-3.602-.832-4.989.397-.772.876-1.5,1.333-2.168.966-1.418,1.178-2.865.631-4.303-.025-.065-.041-.133-.059-.202-.039-.16-.084-.318-.148-.465-.168-.393-.257-.882.37-1.532,1.976-2.044,3.15-4.514,3.951-6.438.942-2.263,2.369-4.165,3.88-6.181.262-.349.525-.698.785-1.051.921-1.249,2.042-1.786,3.484-1.66-.018.093-.034.182-.049.275-.231,1.468.25,2.142,1.714,2.402l.113.021c.323.056.657.114.876.232,2.775,1.488,5.809,2.614,9.276,3.442,2.524.6,5.373,1.279,8.267.814,1.066.598,1.631,1,1.736,1.937.076.677.589,1.186,1.001,1.595l.121.119c1.057,1.065,1.644,2.235,1.793,3.574.161,1.46.845,2.721,2.031,3.751,1.194,1.039,2.367,2.049,3.601,2.996.636.488,1.353.825,2.094,1.153l.506.219c.674.288,1.309.558,1.86.982,1.181.911,2.474.732,3.46-.472.923-1.125,2.187-2.667,1.743-4.854-.038-.188-.033-.423-.028-.674.004-.174.007-.351,0-.525-.059-1.332.227-2.302.928-3.144.565-.681.889-1.481,1.06-2.033.714-2.295.425-4.179-.88-5.758-.528-.64-.996-1.319-1.492-2.039-.264-.382-.528-.765-.801-1.142-3.13-4.31-6.494-6.988-10.549-8.402-.015-.009-.03-.019-.044-.032-.004-.042-.008-.086-.011-.13-.061-.791-.134-1.775-.968-2.546-.371-.344-.738-.689-1.104-1.035-.803-.756-1.632-1.539-2.487-2.275-.894-.77-2.037-1.277-3.396-1.505-1.58-.267-3.18-.781-5.037-1.616-.73-.328-1.482-.612-2.207-.886-.637-.239-1.274-.479-1.896-.749-.697-.305-1.494-.672-2.106-1.167-2.942-2.377-6.296-4.068-9.539-5.703-1.369-.689-2.784-1.403-4.144-2.158-.12-.065-.23-.096-.331-.126-.986-.342-1.966-.703-2.945-1.063-2.445-.9-4.972-1.828-7.575-2.468-1.565-.386-3.127-1.044-5.063-2.135-1.133-.64-2.391-1.251-3.845-1.867-3.042-1.286-5.89-2.781-8.463-4.439-.665-.428-1.331-.993-2.032-1.723-.714-.742-.855-1.57-.445-2.603.615-1.553,1.591-2.735,2.984-3.619Zm-22.984,151.613c-.143,1.289-.526,2.61-.898,3.888l-.136.468c-.411,1.419-.659,2.64-.54,3.984.052.584.019,1.189-.016,1.83l-.025.482c-.012.265-.04.532-.069.798-.034.321-.068.644-.08.968-.084,2.386.898,3.809,3.186,4.609.335.118.672.225,1.021.333-.732,1.095-.8,2.328-.199,3.665.371.828.756,1.682,1.287,2.467.497.737.38,1.46.146,2.581l-.07.367c-.009.019-.058.095-.264.272-.288.246-.63.468-.987.695-2.292,1.456-3.521,3.588-3.653,6.333-.034.721-.016,1.442.002,2.139.008.332.017.661.018.993l.002.919c-.043.005-.087.012-.13.019-1.526.226-2.845.423-4.154-.395-1.211-.758-2.514-1.14-3.845-1.14-.705,0-1.418.107-2.129.323-.974.295-1.898.142-2.91-.479-2.833-1.739-5.311-3.914-7.153-5.614-.882-.814-1.634-1.914-2.296-3.36-1.239-2.705-3.432-3.982-6.491-3.747-.748.051-1.487.17-2.202.284l-.7.111c-1.194.179-2.027-.037-2.778-.732-1.84-1.698-4.161-2.935-6.899-3.677-1.023-.277-1.755-.67-2.305-1.235-2.26-2.328-5.127-3.672-7.655-4.858-.603-.282-1.275-.556-2.113-.858-1.329-.481-2.436-1.182-3.386-2.147-.453-.461-.935-.889-1.4-1.303l-.096-.086c-1.15-1.019-2.365-1.626-3.713-1.856l-1.376-.232c-1.276-.214-2.551-.43-3.825-.658-1.001-.181-1.997-.393-2.992-.607-.104-.025-.205-.065-.307-.105-.248-.095-.556-.212-.914-.218-1.712-.016-2.684-1.003-3.249-3.302-.419-1.703-.601-3.524-.777-5.286-.06-.607-.121-1.214-.19-1.818-.149-1.293.224-2.407,1.143-3.407l2.175-2.381c.91-.998,1.821-1.996,2.735-2.989.009-.009.018-.019.026-.028,1.24,1.433,2.891,2.135,4.492,2.816l.191.081c1.661.707,3.228.402,4.533-.884.44-.433.856-.942,1.351-1.647.601-.858,1.346-1.175,2.491-1.051,1.467.153,2.892.346,4.188.996.653.33,1.353.554,1.971.753,1.474.474,2.877,1.246,4.547,2.502,2.869,2.158,6.005,2.988,9.323,2.453.406-.065.811-.139,1.216-.212,1.248-.23,2.426-.446,3.634-.389.451.021.858-.082,1.222-.175l.291-.07c3.371-.751,6.165-1.149,8.795-1.254,1.479-.058,2.833-.36,4.139-.919,1.128-.481,2.465-1.03,3.836-1.451,1.994-.614,3.465-1.342,4.77-2.36,1.39-1.082,4.713-1.382,6.591-.595.103.042.204.095.303.147.171.088.342.174.518.24,1.904.726,3.606.368,4.923-1.042.272-.291.538-.588.841-.925l.29-.323c.216-.042.437-.088.661-.132.755-.153,1.535-.312,2.323-.423,1.132-.16,2.774-.554,3.939-2.133.165-.223.4-.444.689-.66-.119.272-.242.54-.364.811-.297.656-.605,1.333-.866,2.032-1.307,3.491-3.132,6.83-4.895,10.056l-.5.918c-.495.907-1.163,1.721-2.044,2.486-1.294,1.123-2.018,2.544-2.217,4.346Zm61.82-121.671c1.296,1.184,2.804,1.989,4.746,2.533,3.082.865,6.087,1.87,8.36,2.649.7.24,1.406.651,1.987,1.158.941.821,1.834,1.756,2.698,2.661l.535.558c.044.046.086.114.106.158-.18,1.453.561,2.484,2.203,3.063,1.092.388,2.041,1.044,3.046,1.739l.565.388c2.587,1.754,4.538,3.788,5.967,6.217l.101.172c.322.553.657,1.123,1.126,1.618.812.853.96,1.677.495,2.756-.139.325-.23.646-.317.956-.09.321-.175.623-.3.87-.978,1.951-1.448,4.172-1.435,6.791.004.786-.05,1.258-.496,1.628l-.271-.119c-.489-.218-.958-.428-1.438-.611-1.132-.43-2.089-1.089-2.924-2.016-.532-.588-1.098-1.172-1.731-1.784-.675-.649-1.112-1.428-1.377-2.446-.453-1.746-1.255-3.363-2.383-4.81-.282-.361-.523-.807-.699-1.289-.748-2.063-2.808-3.572-4.899-3.589-.593-.032-1.195.084-1.685.172-2.225.402-4.446.232-6.794-.514-2.6-.826-5.087-1.967-7.399-3.389-.307-2.861-1.625-3.939-4.574-3.768-2.646.137-4.689,1.233-6.073,3.254l-.173.253c-1.692,2.47-3.442,5.024-4.416,8.035-.811,2.512-1.919,4.246-3.486,5.453-.899.693-1.856,1.988-1.315,4.223.046.191.104.377.164.565.051.161.103.321.14.484.107.474.039.881-.214,1.279-.479.749-.941,1.533-1.375,2.332-1.457,2.688-1.251,5.553.629,8.758.752,1.281,1.974,2.014,3.479,1.947l.3-.005c.189-.005.378-.012.568-.009,1.168.004,1.989.389,2.579,1.212,1.115,1.553,2.672,2.793,4.761,3.789.607.291,1.179.674,1.785,1.081l.182.121c.429.286.851.586,1.272.882.651.461,1.325.937,2.025,1.368.745.463.852.874.854,1.253l.01.572c.018.826.034,1.605-.117,2.323-.446,2.112-.193,4.165.03,5.977.093.744.3,1.354.617,1.816.432.628.344,1.214-.003,2.212-.265.765-.583,1.263-1.055,1.628-.046-.019-.085-.037-.101-.047-1.307-1.196-2.735-1.314-4.359-.365-.986.575-2.029,1.033-3.134,1.518-.53.233-1.06.467-1.583.714l-.62.288c-.731.337-1.487.686-2.21,1.102-3.113,1.789-4.849,4.533-5.163,8.151-.195,2.246-.288,4.898.491,7.537.366,1.24.002,2.214-1.3,3.468-.345.333-.821.591-1.325.863l-.159.086c-1.792.975-3.291,2.235-4.456,3.746-1.269,1.646-2.487,3.363-3.528,4.846-.749,1.065-1.051,2.246-1.342,3.384-.139.544-.271,1.058-.446,1.551-.204.572-.402,1.147-.598,1.721l-.087.254c-.674.019-1.326-.184-2.003-.395-.546-.168-1.111-.344-1.718-.414-.956-.109-1.913-.211-2.848-.311l-.732-.079c-.129-.347-.257-.689-.383-1.03-.458-1.221-.89-2.374-1.254-3.547-.138-.44-.087-1.032-.012-1.603.039-.3.16-.628.3-1.009.04-.107.081-.218.12-.332.152-.086.321-.179.5-.247,1.271-.488,2.188-1.409,2.724-2.74.192-.479.401-.951.61-1.423.238-.54.476-1.079.692-1.626.233-.593.525-1.33.614-2.109l.113-.977c.218-1.854.443-3.774.482-5.684.025-1.286.522-2.093,1.611-2.619,1.109-.535,2.31-.977,3.567-1.312,1.792-.475,3.326-1.823,4.106-3.607.769-1.758.725-3.684-.122-5.286-.356-.674-.815-1.263-1.261-1.832l-.207-.267c-2.38-3.086-3.799-6.217-4.337-9.575-.159-.996-.431-1.984-.808-2.935l-.462-1.172c-1.188-3.019-2.416-6.138-4.229-8.97-1.375-2.153-2.209-4.049-2.627-5.967-.218-1.012-.414-2.091-.581-3.205-.29-1.939-1.053-3.684-2.268-5.189l-.533-.651c-.484-.586-.939-1.139-1.349-1.728-1.368-1.968-3.346-2.051-5.278-1.846-.565.06-1.072.249-1.561.43-.168.061-.336.125-.504.181-.964.316-1.763.165-2.513-.47-.934-.793-1.875-1.577-2.817-2.361-.753-.628-1.507-1.258-2.258-1.889-.245-.207-.458-.433-.615-.653-1.232-1.723-2.428-2.925-3.735-3.742.039-.137.147-.279.353-.521.098-.116.196-.232.282-.351.787-1.081.868-2.244.234-3.361l-.493-.87c-.781-1.379-1.561-2.76-2.371-4.123-.364-.612-.779-1.086-1.235-1.41l-.288-.205c-1.45-1.035-2.95-2.105-4.516-3.037-1.301-.774-2.839-.903-4.329-.363-.203.074-.411.137-.618.198-.293.086-.586.175-.868.288-1.121.44-2.258.47-3.581.093-.98-.281-1.569-.688-1.964-1.358-.882-1.493-1.979-2.526-3.354-3.163-.276-.128-.568-.496-.851-.854l-.239-.298c-.482-.584-.942-1.186-1.402-1.789l-.612-.798c-.309-.398-.622-.798-.935-1.195-.684-.87-1.367-1.739-2.021-2.63-2.332-3.172-4.791-5.709-7.581-7.802-.828-.625-1.857-1.393-3.264-1.128-.857-.796-1.883-.823-2.721-.846-.28-.007-.561-.012-.834-.053-1.022-.153-1.997-.365-2.898-.633-2.924-.872-6.031-.958-9.775-.267-.272.049-.546.093-.848.14l-.151.023-.571-.493c-.589-.509-1.182-1.021-1.768-1.54-2.233-1.975-4.964-4.174-8.282-5.498-1.007-.402-1.903-.989-2.661-1.742-.31-.309-.625-.612-.939-.919-.672-.651-1.367-1.326-2.001-2.019-2.207-2.41-4.203-3.877-6.474-4.751-.037-.014-.104-.058-.18-.107-.256-2.737-2.085-4.779-3.44-6.289-1.04-1.16-1.919-2.089-2.765-2.923-.961-.951-2.044-1.91-3.445-2.498-.422-.179-.832-.446-1.266-.73-.173-.112-.346-.225-.52-.332-.677-.419-1.024-.874-1.163-1.521-.411-1.912-1.485-3.539-3.286-4.968-.79-.626-1.551-1.346-2.286-2.04-.313-.295-.624-.589-.94-.879-.204-.188-.401-.384-.598-.582-.441-.44-.897-.895-1.439-1.27l-.115-.081c-.806-.563-1.719-1.2-2.755-1.347-.574-.081-1.141-.226-1.742-.379-1.053-.268-2.141-.549-3.268-.482-.02-.005-.05-.019-.087-.037.074-.168.147-.328.225-.488.724-1.482.489-2.925-.68-4.168-.639-.679-1.195-1.182-1.749-1.582-1.489-1.077-2.87-2.44-4.22-4.168-1.096-1.402-2.47-2.989-4.36-4.135-.34-.205-.537-.474-.661-.896-.625-2.135-2.147-3.6-3.697-4.863-.547-.446-1.125-.818-1.683-1.175-.109-.07-.217-.14-.323-.209.75-1.618.677-3.293.533-4.879-.368-4.028-1.453-7.417-3.32-10.363-1.01-1.596-1.437-3.098-1.344-4.728.079-1.414-.314-2.775-1.169-4.051-.616-.918-1.032-1.953-1.269-3.161-.771-3.919-2.724-7.121-5.802-9.516-.539-.419-1.022-.926-1.535-1.461-.404-.423-.822-.86-1.28-1.263l-.275-.244c-1.355-1.198-2.892-2.558-5.159-2.642-.072-.005-.271-.082-.784-.532-.915-.803-1.82-1.619-2.725-2.435-.953-.86-1.907-1.719-2.873-2.567-.549-.481-1.149-.882-1.729-1.272l-.315-.211c-.497-.337-1.001-.665-1.503-.993-.832-.542-1.693-1.103-2.502-1.689-1.054-.763-2.318-1.426-3.818-.774-1.778-1.733-4.001-2.935-6.938-3.754-2.729-.763-5.358-.225-7.607.337l-.209.053-.157.149c-.521.496-1.234.758-1.989,1.033-.825.302-1.677.614-2.412,1.26-1.065.939-2.185,2.025-3.527,3.419-.952.989-1.968,1.781-3.107,2.421l-.428.235c-.322.175-.644.349-.954.546-1.254.793-1.931,1.947-1.907,3.249.059,3.149-1.805,4.474-5.045,5.695-.096.035-.195.06-.296.079l-2.175.435c-2.444.489-4.888.977-7.337,1.44l-.111.021c-.29.054-.563.107-.829.123.152-.253.298-.512.445-.772.388-.689.753-1.34,1.228-1.849,2.883-3.084,1.89-6.365.704-8.877-.471-.998-1.261-1.6-2.419-1.84-1.964-.405-3.51-.284-4.859.389-2.047,1.019-3.725.705-5.446-1.03l-1.063-1.068c-1.332-1.337-2.709-2.719-4.017-4.114-.299-.319-.564-.816-.747-1.396-.414-1.316-.787-2.726-1.108-4.191-.029-.13.028-.423.157-.653.149-.265.376-.525.617-.798.137-.158.274-.316.402-.475l.478-.602c.848-1.07,1.697-2.14,2.536-3.217.914-1.175,1.197-2.532.845-4.032-.661-2.796-1.928-4.651-3.986-5.833-1.823-1.047-2.979-2.281-3.635-3.881-.263-.64-.691-1.153-1.104-1.647-.181-.216-.363-.433-.525-.66-.439-.616-.465-1.267-.083-2.118.108-.242.21-.381.649-.242.446.137.884.316,1.348.507l.234.095c2.058.835,4.044.435,5.743-1.156.35-.328.65-.682.957-1.046.845-.998,1.803-2.018,3.067-2.702.299-.163,1.026-.618,1.292-1.33,1.177-3.168.872-5.681-.932-7.677-.889-.984-1.426-2.096-1.689-3.495-.404-2.16-1.561-3.951-2.682-5.682l-.526-.818c-.611-.949-.695-1.079-.863-1.953.59-.377,1.365-.482,2.238-.602.829-.112,1.427-.451,1.881-.818,1.058.584,1.615.693,2.853.196,1.584-.639,3.352-1.075,5.562-1.374.805-.111,1.565-.363,2.299-.609.332-.111.662-.221.996-.316.315-.091.633-.175.951-.26.604-.16,1.228-.326,1.841-.535.586-.198.978-.119,1.401.282.172.161.35.319.533.472,2.666,2.24,5.455,1.988,7.849-.707.159-.181.456-.512.613-.56,1.546-.456,2.256-1.649,2.747-2.754.428-.967.891-1.647,1.865-2.051,1.623-.668,2.372-2.172,2.003-4.019-.086-.437-.207-.867-.328-1.296-.1-.351-.199-.703-.276-1.061-.122-.567-.057-.703-.057-.703,0,0,.073-.075.401-.137,1.709-.321,2.709-1.421,3.462-2.456.125-.174.245-.351.364-.526.16-.24.32-.481.501-.703.341-.419.41-.505,1.036-.64.115.382.069.835-.046,1.416-.104.521-.224,1.039-.344,1.556-.078.337-.155.675-.229,1.014-.257,1.181.05,2.216.889,2.993.156.146.307.295.46.444.383.377.78.768,1.251,1.098,1.043.728,1.696,1.423,2.116,2.254.108.214.238.419.382.642.706,1.098,1.72,1.616,2.95,1.54.853-.054,1.679.139,2.703.621-.115.302-.221.595-.302.911-.505,1.974.42,3.644,2.356,4.254,1.105.347,2.175.575,3.177.677.91.095,1.773-.177,2.435-.756.716-.628,1.128-1.544,1.16-2.579l.01-.319c.022-.746.046-1.516.118-2.254.083-.84.461-1.51,1.155-2.046,2.1-1.623,3.384-3.788,3.815-6.435.211-1.288.594-2.596.966-3.861l.154-.526c.032-.112.062-.23.093-.351.205-.807.288-.842.501-.842.087.053.226.396.3.581.082.202.165.402.261.577.311.57.445,1.225.548,2.03.346,2.686,2.408,4.396,5.137,4.224,2.039-.121,3.833-.814,5.331-2.061.901-.749,1.717-.935,2.667-.584.017.06.034.121.049.181.114.418.226.825.373,1.218.758,2.01,2.179,3.447,4.226,4.27.243.096.514.165.828.209.517.075,1.056-.104,1.439-.474.365-.354.543-.837.489-1.325-.041-.367-.104-.732-.168-1.096-.063-.356-.126-.712-.162-1.07-.122-1.247-.062-1.954.604-2.603.915-.889.941-1.919.073-3.06-.157-.207-.336-.396-.517-.584-.088-.093-.177-.184-.261-.281-.891-1.009-.987-2.154-.334-3.951.072-.198.201-.335.372-.391.186-.067.406-.028.613.104.829.528,1.617,1.163,2.21,1.658,1.696,1.412,3.628,1.163,5.123.788.706-.177,1.228-.591,1.471-1.165.248-.586.174-1.272-.208-1.928-.505-.874-.797-1.875-.945-3.249-.065-.593-.059-1.203.016-1.76.108-.812.887-2.609,1.633-3.819l3.956.249c1.279,2.174,3.433,2.491,4.97,2.535.496.014.989-.012,1.485-.039.325-.018.65-.035.975-.04.702-.009,2.839-.035,3.414-2.458.025-.105.223-.332.354-.481.08-.091.159-.182.231-.272.271-.339.547-.646.82-.912.297-.291.468-.635.603-.911.183-.372.264-.507.448-.574.387-.14.766-.304,1.146-.467.918-.396,1.784-.768,2.717-.768h.029l.29.004c.976.021,2.083.028,3.138-.572.023-.014.076-.035.107-.021.889.14,1.764.119,2.609.095.986-.025,1.916-.051,2.814.177,1.552.391,3.05.193,4.442-.602,1.168-.663,2.271-.991,3.367-.996.685-.005,1.32-.193,1.932-.375.209-.061.416-.123.623-.175.317-.079.632-.163.967-.254-.06.132-.119.254-.185.37-.595,1.054-.568,2.174.076,3.154.589.895,1.247,1.821,2.095,2.563.62.54.947.849,1.02,1.391.148,1.103.79,1.996,1.907,2.658.439.26.668.565.745.991.347,1.928,1.859,2.607,2.964,2.947.807.251,1.616.489,2.425.73.672.198,1.345.398,2.015.603.345.105.687.219,1.028.335.501.167,1.003.335,1.51.477.703.196,1.393.377,2.109.425,3.732.244,7.097.949,10.288,2.158.846.321,1.698.393,2.607.216,1.279-.249,2.667-.181,4.24.211.751.184,1.505.353,2.26.521.822.182,1.644.365,2.46.572.066.016.146.058.229.107-1.8.595-3.019,1.828-4.199,3.023-.519.525-1.008,1.019-1.541,1.458-1.276,1.049-1.589,2.73-.858,4.614.524,1.347,1.675,2.168,3.241,2.312.98.089,1.841.518,2.561,1.274-.068.184-.228.354-.545.607-1.538,1.225-1.884,2.97-2.161,4.374-.279,1.414.214,2.309,1.551,2.819.302.116.607.2.925.282-.043.193-.09.361-.159.495-.761,1.482-.846,2.786-.248,3.953-.356.161-.709.347-1.016.623-.456.409-.732.947-.976,1.423l-.139.27c-.081.151-.151.309-.221.463-.078.175-.143.316-.204.421-.05-.03-.1-.06-.15-.088-.486-.288-.987-.582-1.581-.691-1.396-.253-2.56-.923-3.516-1.544l-.164-.109c-.145-.098-.29-.196-.441-.279-1.028-.565-2.156-.6-3.099-.095-.936.503-1.525,1.458-1.62,2.619-.051.635-.039,1.26-.026,1.919.003.179.006.361.009.549-.005.004-.008.007-.013.011-.224.186-.455.377-.685.5-.903.486-1.815.956-2.727,1.426-.786.405-1.573.811-2.354,1.226-1.499.795-2.792,1.223-4.067,1.347-1.325.126-2.56.57-3.67,1.318-.622.423-1.123.563-1.696.482-.965-.14-1.9.116-2.86.788-1.479,1.033-2.769,1.735-4.059,2.203-2.137.775-3.04,2.419-2.543,4.626.284,1.256.729,2.472,1.161,3.647.127.347.254.696.377,1.044.139.393.491.93,1.028,1.146.501.202.695.554.795,1.456.166,1.5.888,2.723,2.271,3.854.707.577,1.438,1.282,2.297,2.216.162.177.274.428.277.498-.164,1.219-.347,2.256-.949,3.154-.231-.151-.458-.295-.691-.43l-.157-.093c-.35-.205-.746-.439-1.202-.568-.596-.165-1.227-.072-1.728.263-.504.335-.837.882-.913,1.503-.062.505-.075,1.056-.041,1.686.081,1.477.175,2.954.296,4.428.102,1.237.169,2.698-.096,4.188-.188,1.061-.188,2.137-.187,3.177v.484c-.008,2.207.669,4.172,2.01,5.837,1.418,1.763,2.435,3.767,3.019,5.954.087.325.208.639.329.954.071.181.141.363.202.547.716,2.16,2.062,3.763,4.001,4.767,1.705.882,3.317,2.005,4.875,3.089.382.267.763.532,1.145.795.404.275.787.589,1.193.921l.321.261c.308.249.613.503.916.758.596.498,1.212,1.016,1.86,1.488,1.202.877,2.46,1.856,3.527,3.061,1.211,1.372,2.639,2.189,4.24,2.43.721.109,1.314.525,1.958,1.016.754.575,1.921,1.325,3.385,1.239,1.654-.093,2.75.695,3.766,2.751.462.937.782,1.946,1.118,3.012.131.414.261.828.4,1.237.068.202.116.411.165.619.09.377.182.767.365,1.154,1.158,2.454,2.021,5.089,2.856,7.638.405,1.235.81,2.472,1.248,3.695.67,1.87,1.348,3.893,1.777,6.019.161.8.44,1.558.71,2.289l.128.347c.421,1.16.851,2.316,1.281,3.472.367.982.732,1.963,1.091,2.947.761,2.082,1.833,3.891,3.186,5.372l1.268,1.389c1.882,2.07,3.828,4.209,5.856,6.212,2.615,2.584,5.626,4.754,8.949,6.447.848.433,1.226.844,1.393,1.519.311,1.253,1.227,2.042,1.889,2.53,1.652,1.212,3.454,2.417,5.714,2.677.417.046.687.198.878.488.718,1.098,1.819,1.481,2.7,1.691,1,.239,1.903.451,2.844.621.675.125,1.321.191,1.914.168,1.486-.03,3.082-.072,4.662-.182,1.728-.121,3.455-.272,5.183-.425l1.866-.161c.356-.032.711-.068,1.067-.107.675-.07,1.312-.137,1.956-.16,1.739-.058,3.31-.126,4.924-.37,1.381-.209,2.876-.058,4.156.116.97.133,2.021,1.446,2.045,2.554.005.233-.087.556-.239.844-.458.86-1.158,1.582-2.139,2.214-.919.589-1.891,1.23-2.775,2.01-.754.665-1.452,1.461-2.019,2.305-1.264,1.884-1.12,4.007.385,5.679.714.795,1.581,1.533,2.508,2.133,1.868,1.211,3.794,2.391,5.656,3.535l1.855,1.14c.327.2.697.43,1.118.588,1.139.423,2.287.9,3.396,1.36,2.315.96,4.709,1.954,7.231,2.572,2.253.554,4.368,1.298,6.286,2.21.675.321,1.361.563,1.943.756,1.617.537,3.201,1.365,4.842,2.535,1.39.989,2.771,1.712,4.103,2.149,1.943.635,3.689,1.679,5.339,3.186Z" stroke-width="0"/>
      <path d="m33.385,246.296c.553,1.054,1.489,1.554,2.643,1.402.411-.054.819-.13,1.239-.205l.056-.011c.01.011.018.023.028.035.202.263.395.511.558.777,1.02,1.67,1.685,2.979.938,4.6-.426.925-.294,2.047.344,2.93,1.177,1.63,1.48,3.567.954,6.098-.113.546-.289,1-.509,1.316-1.635,2.344-1.368,4.937-.989,7.186.279,1.647,1.433,1.914,2.277,1.972.343.023.689.019,1.027.014.169.537.171,1.107.011,1.854-.008.004-.015.007-.022.011-1.559.533-1.868.775-1.91,2.353-.016.602-.017,1.203-.003,1.805.038,1.667-.313,3.214-1.076,4.728-.347.689-.648,1.405-.921,2.075-.575,1.414-1.086,3.281.082,5.191.137.223.173.435-.053.856-.139.261-.263.532-.386.803-.093.202-.185.405-.286.605-.803,1.582-.87,3.246-.2,4.94l.707,1.793c-.292.272-.584.542-.872.819-1.311,1.256-1.523,2.23-.842,3.856.477,1.139,1.134,1.989,2.008,2.603.512.361,1.093.5,1.642.381.514-.109.959-.435,1.251-.918.059-.096.114-.195.167-.291.122.189.246.374.369.558.57.851,1.063,1.586,1.153,2.477.027.249.125.449.221.653.618,1.418,1.634,1.881,3.099,1.426.429-.133.855-.279,1.256-.414l.096-.032c.068.054.134.109.2.165.413.34.803.665,1.267.916.333.181.792.316,1.247.316.235,0,.468-.035.684-.119,1.798-.693,3.54-1.416,5.093-2.649,2.067-1.642,2.903-3.51,2.558-5.71-.059-.379-.063-.746-.011-1.061.093-.57.231-1.075.408-1.505.149-.358.359-.491.768-.468.827.046,1.655.061,2.484.075l.408.007c.879.018,1.648.221,2.351.618.987.561,2.065,1.114,3.39,1.74.685.326,1.429.649,2.227.828,2.424.544,3.56-.147,4.178-2.544.036-.139.061-.282.085-.428.013-.081.025-.163.043-.242.242-1.033.489-2.065.735-3.096.548-2.296,1.115-4.67,1.639-7.096.446-2.061.907-4.193,1.068-6.34.263-3.544.363-7.147.461-10.633l.024-.874c.01-.36.011-.718.012-1.075.002-1.089.005-2.119.275-3.119.185-.677.126-1.4.034-2.081-.054-.396-.103-.793-.151-1.191-.168-1.367-.34-2.777-.722-4.14-.324-1.151-.154-2.01.586-2.97.613-.795,1.18-1.607,1.702-2.368.454-.663.984-1.451,1.469-2.263,1.066-1.786,1.184-3.6.353-5.4-.298-.644-.519-1.326-.755-2.051-.083-.258-.167-.518-.254-.774l-.989-2.928c-.656-1.946-1.311-3.891-1.988-5.83-.24-.686-.634-1.289-.95-1.739-.28-.396-.371-.696-.311-1.037.396-2.282-.33-4.347-1.173-6.237-.963-2.161-2.511-3.475-4.602-3.907-.287-.06-.583-.168-.871-.274-.038-.014-.075-.028-.112-.042-.06-.096-.106-.172-.153-.244-1.115-1.723-2.66-2.749-4.349-2.891-1.658-.147-3.336.596-4.694,2.074-.239.261-.46.539-.679.816-.108.139-.218.275-.33.412-.283.342-.564.688-.843,1.033-.677.835-1.375,1.7-2.103,2.496-.514.563-1.114,1.188-1.739,1.465-1.333.588-2.615,1.379-3.919,2.416-.881.7-1.613,1.084-2.375,1.24-.653.133-1.304.284-1.953.435-.778.181-1.557.361-2.34.512-1.072.207-1.933.314-2.709.339-1.885.054-3.094-.893-3.634-2.823-.076-.274-.226-.47-.359-.644-.046-.06-.096-.126-.148-.204l-.428-.639-.666.386c-.067.039-.139.07-.208.102-.261.118-.619.281-.828.654-.695,1.254-1.387,2.579-2.058,3.933-.675,1.361-.824,2.672-.455,4.007.251.909.146,1.753-.32,2.581-1.231,2.186-.449,4.26.371,5.823Zm22.318-14.465c1.292-.056,2.485-.616,3.646-1.714,1.825-1.726,3.007-3.235,3.833-4.898.177-.358.372-.74.593-1.095.503-.812,1.172-1.084,2.176-.882.615.125.632.316.651.539.035.386.108.742.217,1.056.4,1.163,1.29,1.854,2.506,1.949.242.019.489.012.732.005.267-.005.517-.014.722.025.532.102,1.012.265,1.386.472.628.347.537.823.507.979-.285,1.495.06,2.663,1.053,3.575.231.209.304.544.261,1.195-.081,1.263.23,2.382.951,3.421.26.375.361.998.421,1.5.17,1.437.561,2.763,1.192,4.054.19.388.336.812.488,1.263l.177.509c.201.56.396,1.125.591,1.688.426,1.23.867,2.502,1.371,3.735.389.951.375,1.688-.044,2.465-.155.286-.306.574-.457.861-.768,1.46-1.492,2.839-2.609,3.939-1.371,1.349-1.664,2.958-.894,4.919.394,1.002.704,2.135,1.007,3.672.21,1.067.115,2.04-.291,2.977-.371.856-.458,1.816-.495,2.644-.046,1.026-.062,2.053-.08,3.081-.02,1.232-.041,2.505-.115,3.746-.035.6-.068,1.203-.099,1.805-.127,2.428-.26,4.94-.663,7.338-.503,2.979-1.225,5.988-1.923,8.898-.232.965-.464,1.93-.689,2.896-.109.475-.297.946-.496,1.446-.043.109-.087.219-.129.328-.509.086-.889-.091-1.42-.339-1.109-.514-2.413-1.139-3.673-1.86-1.463-.839-2.908-1.226-4.42-1.175-.651.018-1.285.004-1.889-.047-1.613-.147-2.916.547-3.887,2.037-.602.923-.916,1.907-.935,2.923-.014.67-.016,1.342-.007,2.012.013,1.209-.46,2.149-1.486,2.956-.892.703-1.917,1.24-3.126,1.639-.808-.984-1.815-1.477-3.012-1.477-.519,0-1.073.093-1.661.279-.26-.477-.56-.903-.855-1.323-.577-.818-1.076-1.526-1.145-2.437-.05-.647-.535-1.158-.985-1.586-.78-.74-1.494-.816-1.957-.753-.108.016-.228.042-.355.088.383-.353.706-.833.666-1.544-.039-.726-.393-1.375-.705-1.949-.071-.128-.14-.254-.204-.381-.507-.993-.51-1.749-.007-2.53.265-.411.445-.842.619-1.26l.107-.256c.456-1.068.932-2.682-.188-4.344-.41-.607-.433-1.305-.072-2.2.067-.167.127-.333.188-.5.086-.235.17-.47.274-.696.961-2.091,1.934-4.579,1.955-7.302.096-.082.193-.161.288-.239.473-.386.962-.784,1.229-1.368.414-.909.513-1.961.557-2.87.045-.979-.084-1.956-.21-2.796-.216-1.453-.941-1.853-2.122-2.054-.175-.03-.353-.039-.53-.047-.114-.005-.228-.007-.341-.028-.034-.005-.099-.032-.171-.061-.204-.67-.218-1.449-.049-2.472.046-.277.307-.679.635-.979,1.058-.963,1.522-2.196,1.379-3.668-.254-2.651-.542-5.031-1.499-7.331-.201-.484-.243-.947-.133-1.453.35-1.603-.152-2.949-.628-3.94-.55-1.147-1.04-2.309-1.488-3.395-.746-1.802-1.435-2.2-3.354-1.937l-.344.044c-.378-.596-.377-1.181-.009-1.849.9-1.633,1.103-3.224.616-4.865-.211-.709-.102-1.423.334-2.17.349.24.689.472,1.042.682,1.282.768,2.565,1.047,3.912.854l.585-.082c1.281-.177,2.604-.36,3.898-.835.623-.23,1.197-.367,1.706-.405,1.544-.118,2.958-.703,4.45-1.846,1.091-.839,1.967-1.214,2.928-1.254Zm-16.792,70.695c-.011-.095.074-.286.344-.537.043-.04.09-.079.141-.118-.108.13-.214.281-.315.453-.052.089-.102.181-.148.272-.012-.026-.018-.049-.021-.07Z" stroke-width="0"/>
      <path d="m168.257,187.996c-1.346-.842-3.065-.946-4.717-.289-.201.079-.399.168-.602.263-.197-.377-.404-.761-.655-1.125-1.408-2.042-3.382-2.93-5.726-2.568-2.333.36-3.869,1.891-4.443,4.424-.928,4.095.974,7.737,4.92,9.307.892.356,1.815.723,2.644,1.175,1.518.828,2.177,2.056,2.014,3.749l-.012.119c-.043.433-.092.926.007,1.425.115.574.671.968,1.111,1.133.112.042.23.06.35.06.466,0,.953-.289,1.178-.637.147-.23.269-.481.388-.732.124-.267.243-.518.384-.682,2.097-2.437,3.557-5.202,4.822-7.83.55-1.14.779-2.361.685-3.632-.133-1.796-.989-3.312-2.346-4.161Zm-12.59,1.025c.268-.574.734-.982,1.311-1.151.187-.054.379-.081.57-.081.413,0,.826.125,1.203.367.576.368.953.835,1.154,1.426.081.237.135.482.192.728.038.163.076.328.119.489.148.561.432,1.335,1.179,1.584.77.26,1.499-.226,1.985-.612.125-.098.243-.207.361-.316.139-.128.271-.249.386-.316.382-.223.788-.446,1.178-.54.38-.093.744-.037,1.028.158.28.193.461.512.507.895.05.412.005.919-.129,1.425-.208.802-1.85,4.014-2.928,5.821-.785-1.137-1.913-2.014-3.519-2.74l-.315-.144c-.6-.277-1.22-.565-1.907-.703-1.153-.233-1.813-1.109-2.164-1.802-.694-1.374-.782-3.261-.209-4.488Z" stroke-width="0"/>
    </g>
  </g>
</svg>