<?xml version="1.0" encoding="UTF-8"?>
<svg id="b" data-name="Layer 2" xmlns="http://www.w3.org/2000/svg" width="141.029" height="264.533" viewBox="0 0 141.029 264.533">
  <g id="c" data-name="Layer 1">
    <g>
      <path d="m70.516,105.735c.108.404.305.815.551,1.156.282.39.66.466,1.043.202.312-.214.375-.53.205-1.025-.104-.299-.184-.61-.263-.91-.054-.206-.108-.412-.169-.614l-.096-.319c-.287-.952-.585-1.935-.906-2.89-.029-.087-.13-.171-.235-.259-.013-.011-.026-.022-.039-.033-.012.012-.024.025-.035.037-.098.104-.193.201-.222.302-.119.402-.209.818-.303,1.257-.035.161-.07.324-.108.492.05.234.098.47.147.707.129.625.26,1.271.429,1.895Z" stroke-width="0"/>
      <path d="m69.785,182.761h-.001c-.091,0-.383.265-.508.378l-.1.091c-.041.035-.07.168-.089.265-.008.039-.017.079-.026.116-.835,3.331-1.239,6.403-1.235,9.39,0,.1-.001.2-.003.301-.004.21-.008.421.005.63l.032.566c.037.664.074,1.352.163,2.016.033.257.137.462.284.56.109.076.245.091.404.05.18-.046.303-.131.369-.251.071-.133.07-.316-.004-.53-.038-.109-.03-.222-.024-.322.003-.032.005-.064.005-.095.032-3.431.357-6.754.969-9.878.152-.776.223-1.634.219-2.624-.001-.215-.259-.587-.459-.663Z" stroke-width="0"/>
      <path d="m140.849,161.438c-.037-.095-.022-.189-.012-.265.005-.034.011-.067.009-.089-.012-.202-.012-.41-.012-.616,0-.452,0-.877-.121-1.268-1.122-3.641-2.628-6.046-4.88-7.799-.616-.479-1.222-.987-1.807-1.478-.322-.269-.642-.538-.966-.803-.315-.257-.365-.541-.164-.917,1.278-2.409,2.097-5.077,2.58-8.396.399-2.737.917-5.559,1.584-8.625.65-2.99,1.32-6.081.566-9.238-.118-.488-.221-.979-.323-1.471-.32-1.524-.65-3.102-1.425-4.53-.759-1.399-1.462-2.825-2.111-4.156l-.072-.147c-.843-1.729-1.714-3.518-2.058-5.464-.05-.276-.091-.553-.131-.831-.08-.538-.163-1.096-.307-1.624-.202-.743-.434-1.494-.66-2.22-.274-.882-.558-1.796-.79-2.705-.298-1.167-.928-2.205-1.537-3.21l-.1-.164c-.517-.856-1.349-1.524-2.474-1.987-1.068-.438-2.208-.634-3.519-.592-2.603.08-5.207.654-7.739,1.705-.478.2-.953.407-1.427.616-.969.424-1.969.862-2.989,1.213-3.461,1.188-6.27,3.239-8.587,6.274-2.81,3.679-5.275,6.233-7.991,8.281-1.103.832-2.128,1.834-2.964,2.899-2.654,3.378-5.311,6.845-7.879,10.197-1.015,1.324-2.03,2.649-3.048,3.97-.042.054-.095.081-.144.106-.02.011-.042.022-.066.037l-.096.056-.089-.066c-.218-.158-.448-.264-.679-.368-.026-.285-.054-.571-.067-.859-.007-.173-.009-.756.263-.999.692-.618.966-1.42.818-2.382-.075-.48-.238-.95-.41-1.448-.081-.232-.163-.47-.239-.715l-.033-.106.084-.072c.138-.116.281-.231.429-.35.35-.282.713-.575,1.041-.907l.109-.11c.387-.391.789-.795.966-1.264.856-2.262.662-4.502-.579-6.661-.07-.122-.143-.238-.215-.352-.295-.466-.6-.946-.545-1.647.024-.286-.152-.637-.306-.945l-.025-.049c-.42-.845-.849-1.685-1.278-2.524-.774-1.513-1.574-3.078-2.304-4.648-1.253-2.695-1.04-5.346.62-7.667.893-1.25,1.969-2.377,3.008-3.466l.585-.616c.778-.822,1.544-1.748,1.865-2.965.441-1.66-.189-3.091-1.604-3.645-.295-.116-.631-.144-.987-.175-.175-.014-.353-.03-.534-.055l-.305-.043.201-.232c.269-.314.545-.622.822-.932.614-.686,1.25-1.398,1.802-2.154l.373-.507c.782-1.054,1.589-2.145,2.058-3.347,1.68-4.308,2.006-8.908,2.103-12.435.038-1.4-.02-2.831-.075-4.215-.049-1.208-.098-2.457-.085-3.686.033-3.073.102-6.195.171-9.215.054-2.443.109-4.884.146-7.325.039-2.613.062-5.228.084-7.841.033-3.758.067-7.643.152-11.464.106-4.671-.549-9.286-1.946-13.713-.61-1.935-1.446-3.52-2.554-4.846-.305-.364-.621-.652-.94-.86-.445-.287-.915-.386-1.351-.282-.438.105-.815.406-1.091.872-.269.454-.492,1.004-.683,1.68-.546,1.937-.45,3.969-.358,5.934l.011.21c.105,2.229.234,4.494.358,6.685.244,4.291.496,8.728.583,13.097.091,4.495-.035,9.067-.158,13.488-.039,1.407-.077,2.813-.11,4.219-.053,2.289-.467,4.653-1.307,7.437-.062.205-.139.404-.236.656-.049.125-.102.264-.161.423l-.155.413-.326-.835c-.088-.226-.156-.396-.217-.568-.571-1.58-.828-3.348-.79-5.405.029-1.491.079-3.006.127-4.471.091-2.718.184-5.53.144-8.29-.096-6.711-.293-13.868-.638-23.207-.083-2.206-.487-4.509-.811-6.359-.226-1.289-.784-2.42-1.612-3.275-1.036-1.066-2.279-1.127-3.409-.163-.958.812-1.541,1.878-1.687,3.083l-.126,1.041c-.332,2.722-.675,5.539-.788,8.315-.143,3.482.201,7.005.533,10.411.15,1.537.305,3.126.413,4.692.461,6.686.822,12.721.558,18.868-.053,1.185-.139,2.584-.391,3.98-.13.721-.391,1.143-.776,1.257-.402.118-.865-.112-1.391-.679l-.051-.055c-.167-.179-.356-.382-.441-.629-.105-.306-.226-.612-.347-.917-.314-.797-.638-1.62-.702-2.462-.167-2.209-.243-4.461-.316-6.64-.038-1.12-.076-2.241-.126-3.359-.059-1.347-.137-2.693-.213-4.039-.217-3.777-.44-7.685-.259-11.552.087-1.835.056-3.711.028-5.523-.016-.991-.032-2.016-.029-3.023.003-1.271.02-2.541.037-3.812.017-1.269.034-2.538.037-3.808.005-1.904-.528-3.787-1.629-5.755-.567-1.012-1.402-1.373-2.496-1.057-1.67.48-2.649,1.713-2.91,3.663-.529,3.948-.98,7.796-1.345,11.437-.354,3.569-.642,7.165-.853,10.689-.18,2.997-.305,6.189-.406,10.351-.083,3.413-.168,7.382-.126,11.31.02,1.847.147,3.726.27,5.543.05.732.1,1.465.143,2.196.013.224.024.449.034.675.033.704.066,1.431.186,2.124.203,1.168.434,2.352.658,3.497.277,1.415.563,2.877.798,4.325.282,1.731.857,3.393,1.412,4.999.266.77.542,1.567.784,2.363.713,2.364,1.684,4.444,2.968,6.359.373.557.719,1.122,1.085,1.721.169.277.343.559.521.845l.138.222-.446.059c-.095.013-.165.022-.236.03-1.189.125-2.187.79-2.738,1.827-.604,1.134-.576,2.542.075,3.767.662,1.243,1.579,2.151,2.727,2.7,2.18,1.043,3.594,2.969,4.322,5.887.02.077.038.155.055.231.126.541.234,1.008.756,1.166l.176.054-.245.608c-.101.251-.197.49-.295.728-.16.39-.314.785-.467,1.179-.345.883-.702,1.798-1.13,2.657-.385.772-.818,1.53-1.236,2.264-.497.873-1.013,1.775-1.445,2.699-.782,1.67-.581,2.598.794,3.678l.072.056-.009.091c-.033.375-.072.742-.111,1.109-.423-.625-.886-1.258-1.397-1.904-.948-1.196-2.155-2.255-3.59-3.147-2.141-1.335-4.578-2.346-7.449-3.091-2.188-.568-4.217-1.433-6.032-2.573-1.904-1.193-3.75-2.027-5.644-2.549-.173-.047-.35-.113-.529-.196l-1.605-.739c-1.431-.658-2.911-1.336-4.355-2.03-2.85-1.368-5.794-1.866-8.759-1.487-2.557.328-4.763,1.586-6.767,2.895-.807.528-1.604,1.277-2.439,2.292-1.828,2.229-2.317,4.893-2.537,6.967-.392,3.68-.837,7.086-1.36,10.414-.196,1.247-.492,2.494-.78,3.7-.369,1.553-.752,3.159-.92,4.776-.201,1.933-.248,4.198.92,6.329.403.735.738,1.515,1.061,2.268.108.249.215.499.324.747.815,1.852,1.624,3.707,2.432,5.561l.584,1.339c.037.084.058.175.074.244l.063.232-.181.034c-.277.051-.553.097-.827.142-.617.101-1.198.197-1.768.357-1.158.326-2.18.679-3.128,1.078-1.122.473-2.125.911-3.021,1.511-3.254,2.178-4.915,4.842-5.078,8.147-.087,1.733.533,3.184,1.84,4.314l.076.063c.092.076.188.154.257.259,1.062,1.582,2.038,3.154,2.315,4.996.306,2.044.512,4.131.673,5.901.185,2.02.543,4.656,1.702,7.147.833,1.788,2.17,3.086,3.97,3.858,1.928.827,3.833,1.189,5.653,1.041,2.406-.177,4.843-.499,7.201-.81.848-.112,1.694-.223,2.542-.328,3.221-.402,5.809-1.471,7.911-3.268.138-.119.294-.214.444-.305.07-.043.139-.085.206-.13l.243-.16.018.29c.016.276-.058.475-.135.656-.886,2.048-2.004,4.767-2.801,7.657-.512,1.86-1.112,3.822-1.831,6-1.232,3.728-3.448,6.745-6.585,8.97-2.086,1.482-4.162,2.909-6.17,4.24-1.988,1.318-3.826,2.835-5.46,4.509-.49.5-.873,1.12-1.244,1.718l-.173.278c-.035.056-.337.562.033.798.202.13.583.177.925.123.613-.104,1.231-.245,1.83-.382.318-.074.635-.146.953-.214,2.405-.515,4.809-1.024,7.216-1.532.247-.053.492-.108.739-.163.658-.148,1.337-.302,2.021-.379,1.377-.159,2.78-.32,4.082.294,2.909,1.37,4.925,2.721,6.538,4.38l.581.6c.896.928,1.824,1.889,2.811,2.748,1.643,1.433,3.427,3.245,4.201,5.825.114.386.35.583.722.602.02.001.039.001.059.001.339,0,.6-.168.774-.501.193-.373.41-.806.533-1.243.622-2.205,1.267-4.549,1.971-7.169.123-.454.251-.906.378-1.358.352-1.253.717-2.55.961-3.842.257-1.364.461-2.763.656-4.116.177-1.222.36-2.485.583-3.722.658-3.636,1.012-6.887,1.084-9.937.088-3.776.211-7.088.377-10.124.05-.92.18-1.848.305-2.746.092-.651.185-1.324.248-1.987.213-2.264.73-4.597,1.537-6.934,1.236-3.582,2.987-6.971,4.679-10.248.961-1.86,2.229-3.57,3.455-5.224.558-.753,1.135-1.532,1.675-2.314,1.578-2.284,3.199-4.744,4.14-7.502.146-.431.253-.59.509-.636-.156,1.808-.369,3.613-.584,5.378-.092.753-.184,1.508-.27,2.263-.202,1.746-.427,3.519-.643,5.233-.289,2.268-.585,4.614-.833,6.926-.261,2.432-.366,5.024.621,7.499.172.429.339.861.505,1.293l.289.744-.592.497c-.423.358-.833.705-1.252,1.042-1.445,1.164-2.331,2.716-2.705,4.742-.886,4.789-.2,9.583,2.041,14.245.736,1.533,1.586,3.044,2.407,4.506.379.675.76,1.352,1.131,2.036l.051.092-.062.085c-.098.14-.207.285-.319.436-.257.347-.524.705-.756,1.092-1.024,1.706-.94,3.638.231,5.299.181.259.295.752.177,1.076-.357.988-.784,2.132-1.32,3.188-1.064,2.095-2.877,3.418-5.387,3.931-.345.071-.7.085-1.041.1-.266.011-.541.022-.803.06-.797.114-1.095.411-1.223,1.225-.274,1.744-.408,3.296.736,4.612l.096.11-.097.11c-1.334,1.521-1.739,3.352-1.978,5.103-.035.26-.081.518-.129.776-.063.353-.129.719-.163,1.078-.391,4.075-.348,9.257,3.499,13.188l.085.087-.055.108c-.137.269-.286.537-.436.807-.324.581-.66,1.181-.865,1.815-.917,2.826-.895,5.686.067,8.499,1.381,4.035,5.288,6.787,9.333,6.523h.025c.268,0,.602.263.711.491.584,1.222,1.402,2.029,2.5,2.468,2.819,1.122,6.091.02,7.786-2.619.171-.266.337-.536.505-.809l.318-.515.433.169c.219.087.423.168.63.239,1.064.362,2.217.667,3.403.424,4.644-.941,8.304-5.135,8.516-9.755.067-1.473-.096-2.99-.253-4.457l-.067-.639c-.165-1.587-1.101-2.817-2.006-4.007l-.142-.188c-.218-.289-.387-.588-.058-1.064,2.235-3.235,2.515-6.792.832-10.574-.543-1.221-1.18-2.426-1.794-3.591-.287-.543-.575-1.088-.856-1.638l-.059-.114.096-.087c.088-.079.184-.16.285-.244.227-.192.463-.39.667-.622,1.089-1.243,1.358-4.343.505-5.821-.39-.675-.975-.978-1.687-.889-1.457.168-2.92-.21-4.608-1.185-.819-.475-1.49-1-1.992-1.561-1.481-1.652-1.677-3.78-1.673-5.644,0-.19.11-.361.207-.512.038-.058.075-.116.105-.173.101-.197.214-.389.327-.58.242-.41.469-.797.578-1.218.53-2.065.028-3.716-1.495-4.905l-.123-.097.772-1.142c.539-.799,1.071-1.589,1.616-2.367,1.142-1.63,2.378-3.63,2.893-6.106.459-2.213.576-4.302.369-6.288.629,1.49,1.173,2.867,1.621,4.148,1.483,4.243,2.867,7.761,4.799,11.134,1.7,2.97,2.872,5.296,3.798,7.541.658,1.592,1.358,3.493,1.566,5.513.277,2.701.944,5.556,2.038,8.724.419,1.214.727,2.479,1.025,3.704.105.433.211.866.322,1.298.055.214.076.431.098.641.02.2.039.389.084.571.067.269.173.44.301.48.119.037.299-.035.499-.209,1.163-1.008,2.508-2.185,3.766-3.417.559-.545,1.072-1.154,1.57-1.743.231-.274.462-.549.7-.818l.184-.21.1.26c.011.029.025.062.039.097.041.095.091.209.122.328.108.417.213.833.316,1.25.175.694.348,1.387.537,2.078.265.966.538,1.964.887,2.927.146.404.524.629.975.549.419-.062.633-.305.74-.839.077-.392.163-.782.247-1.173.071-.327.143-.654.21-.982.106-.524.234-1.057.357-1.57.28-1.171.57-2.38.626-3.57.125-2.573.005-5.149-.151-8.009-.079-1.457-.235-2.937-.386-4.369-.088-.833-.176-1.668-.249-2.503l-.058-.681c-.121-1.47-.245-2.989-.755-4.419-1.857-5.215-3.709-9.805-5.66-14.031l-.327-.706c-1.351-2.913-2.747-5.923-3.2-9.193-.016-.122-.034-.243-.054-.362l-.05-.335.378-.112.07.081c.08.092.161.181.243.272.175.196.349.39.511.595,1.187,1.509,2.645,3.242,4.465,4.653,2.567,1.988,5.456,3.636,8.585,4.894,2.184.879,4.829,1.755,7.774,1.509,1.756-.139,2.923-.595,3.783-1.475.654-.667,1.277-1.448,2.025-2.533.836-1.215,1.646-2.477,2.431-3.697l.69-1.074c.431-.665.866-1.328,1.303-1.991,1.032-1.567,2.099-3.187,3.065-4.824,1.256-2.128,2.181-4.447,3.075-6.689.424-1.063.862-2.163,1.332-3.23.45-1.025.517-1.815.221-2.563Zm-6.481-32.577c-.067.311-.133.613-.19.917-.114.593-.232,1.187-.352,1.78-.293,1.458-.595,2.965-.807,4.455-.129.89-.168,1.811-.206,2.701-.028.617-.055,1.255-.112,1.881-.23,2.541-1.068,4.929-2.491,7.097-1.129,1.718-2.693,2.763-4.653,3.104-.803.14-1.609.273-2.415.407-1.37.226-2.788.461-4.173.728-1.21.232-2.63.534-3.991.998-2.773.948-5.895,1.555-9.542,1.86-.978.076-1.971-.029-2.936-.137-.449-.049-.896-.098-1.343-.129l-.701-.051c-.74-.055-1.507-.112-2.259-.142-.801-.039-1.403.196-1.845.698-.126.146-.347.226-.605.226-.049,0-.098-.003-.148-.008-.318-.035-.571-.176-.679-.377-.974-1.828-2.225-3.537-3.435-5.188-.715-.977-1.454-1.986-2.132-3.014-.912-1.383-2.118-2.667-3.684-3.922-.82-.659-1.687-1.376-2.81-2.323-.134-.116-.231-.326-.239-.511-.011-.218.004-.44.021-.696.008-.117.016-.243.022-.382l.021-.425.446.529c.07.085.121.147.176.206.18.196.352.399.524.602.361.427.734.869,1.168,1.215,3.743,2.982,7.58,4.581,11.729,4.885,4.893.361,10.149.639,15.417.219,1.658-.131,3.331-.479,4.948-.816.396-.081.791-.164,1.187-.244,1.521-.306,3.327-.503,5.165.358.482.226,1.021.375,1.544.52.176.05.352.098.526.15.547.165,1.264.222,1.605-.399.282-.516.093-1.11-.492-1.551-1.701-1.278-3.6-1.685-5.652-1.201-1.256.294-2.508.639-3.585.94-2.943.823-6.015,1.11-9.143.865-2.655-.21-5.53-.378-8.789-.513-1.982-.084-3.712-.373-5.29-.883-.287-.093-.576-.185-.864-.276-2.134-.677-4.341-1.377-6.212-2.704-.728-.516-1.418-1.101-2.083-1.667-.289-.247-.579-.492-.872-.734-.446-.366-.889-.734-1.328-1.106-.081-.068-.182-.177-.197-.307-.066-.574-.125-1.147-.184-1.717l-.092-.881.261.108c.302.123.601.251.899.378.655.28,1.274.543,1.923.77,3.016,1.057,6.344,1.519,10.197,1.44,2.889-.066,5.824-.168,8.663-.266l1.601-.056c3.642-.126,7.371-1.113,11.399-3.018,1.87-.883,3.714-1.898,5.497-2.88.428-.236.854-.471,1.284-.705,1.471-.806,3.058-1.118,5.027-.986,1.099.074,2.241.003,3.34-.067.281-.017.562-.035.843-.051.18-.009.37-.097.589-.197.119-.055.245-.113.383-.165l.287-.108-.164.764Zm-36.008,29.347l-1.68.42-.475-1.029.164-.067c.512-.202,1.07-.05,1.722.465l.269.211Zm-9.769-34.864c1.219-1.819,2.033-3.852,2.818-5.82.274-.686.549-1.374.84-2.053.668-1.555,1.444-2.701,2.441-3.608,1.83-1.659,3.413-3.574,4.943-5.426.504-.61,1.008-1.221,1.523-1.823.235-.277.466-.557.698-.836.484-.585.986-1.19,1.519-1.755,1.74-1.838,3.679-2.89,5.927-3.217.307-.045.617-.085.927-.127.87-.117,1.769-.238,2.632-.433.883-.2,1.775-.444,2.636-.68.788-.215,1.603-.438,2.414-.629,1.655-.386,3.356-.704,5.002-1.011.433-.079.874-.043,1.299-.009,1.097.089,1.943.584,2.51,1.47,1.521,2.382,1.252,5.257-.7,7.5-1.92,2.206-4.249,3.978-6.921,5.266-3.829,1.847-8.419,3.935-13.43,5.431-.459.137-.92.27-1.381.406-1.578.461-3.21.936-4.763,1.521-3.51,1.32-6.599,3.384-9.221,5.215-.373.261-.748.52-1.124.777l-.377.26-.287-.308.075-.11Zm-6.733,7.539c.131-.043.263-.085.396-.114,2.063-.44,4.047-1.322,6.067-2.697l.487-.329c1.122-.76,2.281-1.545,3.344-2.402,3.926-3.163,8.413-5.484,13.721-7.092,4.631-1.404,8.955-3.246,12.852-5.473,3.427-1.96,6.126-4.096,8.253-6.534.365-.42.701-.864,1.057-1.334.168-.223.34-.45.52-.681l.239-.306.11.698c.035.219.068.421.093.623.257,2.015.887,4.052,2.045,6.603.554,1.223,1.215,2.661,1.916,4.056.617,1.23.998,2.598,1.234,4.436.066.513.15,1.026.232,1.54.249,1.526.505,3.105.289,4.704-.013.1-.025.2-.041.333l-.088.748-.252-.356c-.503-.707-1.176-.878-1.89-1.061l-.13-.033c-2.111-.543-4.131-.119-6.346,1.331-3.092,2.027-6.556,3.812-10.59,5.459-2.481,1.012-5.261,1.572-8.26,1.663-1.454.043-2.934.118-4.363.19-2.263.114-4.577.231-6.892.231-1.187,0-2.374-.03-3.556-.108-4.007-.261-7.159-1.106-9.916-2.657-.534-.301-.778-.665-.815-1.217l-.008-.134.29-.091Zm-2.598,1.813c.599,2.302.609,4.618.542,6.582-.047,1.395-.957,2.419-2.783,3.13-.303.118-.607.205-.911.284-.785.201-1.57.275-2.351.205-.343-.031-.685-.085-1.025-.169-1.003-.242-2.007-.191-3.05.125-.165.05-.329.089-.496.154-.035.014-.251.095-.461.095-.1,0-.198-.018-.276-.071-.181-.122-.18-.417-.165-.685.06-1.041.125-2.082.188-3.123.113-1.849.226-3.699.322-5.548.043-.835.022-1.688.001-2.515l-.009-.386c-.007-.28.058-.505.179-.681.137-.2.349-.335.643-.389.457-.083.917-.148,1.378-.214.375-.054.749-.106,1.124-.169,1.092-.186,2.222-.378,3.323-.609.609-.13,1.015-.106,1.381.075.252.125.488.312.748.623l.098.117-.108.109c-.06.06-.119.118-.177.175-.11.108-.215.21-.31.32-.335.394-.399.768-.198,1.142.179.335.499.492,1.007.492.009,0,.018,0,.027,0,.014,0,.03,0,.044,0,1.005-.029,1.078.024,1.315.932Zm-4.167-4.825c-.059.025-.117.051-.175.077-.158.072-.32.147-.497.189-.198.047-.394.096-.591.144-.613.154-1.247.311-1.885.385-.217.025-.434.047-.651.07-1.28.132-2.486.287-3.537.963-.194-.18-.298-.438-.289-.799.017-.635.013-1.274.009-1.952-.001-.298-.003-.604-.003-.923v-.127l.122-.034c.307-.087.614-.189.924-.29.725-.239,1.473-.486,2.238-.557.717-.075,1.461.118,2.176.298.179.045.356.089.532.129.379.087.757.206,1.122.32.448.139.908.285,1.368.368.496.089.711.329.744.83.011.173.024.346.036.518-.52.037-1.06.144-1.644.391Zm-8.723-5.049c.22-.161.521-.263.929-.318.486-.064.977-.223,1.45-.375.224-.072.449-.146.675-.209.08-.022.161-.053.243-.083.214-.077.432-.155.668-.137,1.872.175,3.798.354,5.686.617.601.084,1.344.462,1.474,1.792l.022.222-.221-.041c-.297-.056-.593-.093-.883-.13-.638-.081-1.242-.158-1.792-.41-2.059-.94-4.103-.844-6.441.298-.434.211-.911.328-1.373.441-.016.004-.032.009-.049.012-.112-.565-.241-1.126-.39-1.681Zm12.547-37.46c.521-.524,1.029-.589,1.511-.186.537.448.676,1.026.403,1.675l-.098.239c-.171.421-.347.857-.633,1.198-1.13,1.353-2.275,2.674-3.487,4.071-.448.517-.902,1.042-1.365,1.579l-.341.395.047-.521c.025-.286.047-.571.07-.853.147-1.915.286-3.725,1.614-5.191.9-.991,1.603-1.733,2.28-2.406Zm-13.695,7.06l-.071-.095c-.748-.999-1.693-1.638-2.977-2.347-.749-.413-1.336-1.146-1.904-1.855l-.059-.074c-.396-.496-.402-1.173-.013-1.961.322-.651.92-.662,1.449-.671h.059c1.231,0,2.141.665,2.566,1.881.383,1.097.706,2.235,1.019,3.336.138.486.276.973.419,1.457l.046.158-.533.169Zm-1.442,18.036c.042-.101.083-.205.122-.308.092-.239.185-.484.316-.71l.243-.419c.533-.919,1.083-1.868,1.675-2.767,1.41-2.143,2.122-4.593,2.178-7.485.013-.694-.116-1.412-.242-2.105-.032-.172-.062-.344-.091-.516l-.028-.165c-.333-1.981-.677-4.028-1.067-6.03-.525-2.706-1.576-5.144-3.125-7.245-1.025-1.389-1.949-2.763-2.748-4.083-2.346-3.877-3.888-8.378-4.582-13.375-.142-1.028-.295-2.054-.449-3.081-.181-1.221-.37-2.483-.537-3.729-.11-.826-.172-1.708-.188-2.695-.018-1.187-.056-2.393-.093-3.56-.087-2.73-.176-5.553-.021-8.344.155-2.789.209-5.632.261-8.382.032-1.673.064-3.403.119-5.104.079-2.377.205-4.534.387-6.594.42-4.73.911-9.893,1.504-15.781.11-1.101.365-2.172.6-3.075.096-.364.285-.693.469-1.012.081-.14.163-.281.235-.424l.07-.137.457.181.029.053c.723,1.295,1.095,2.742,1.134,4.422.026,1.099.049,2.197.072,3.296.047,2.297.096,4.671.176,7.005.046,1.353.129,2.727.209,4.058.063,1.033.125,2.066.172,3.1.05,1.133.085,2.265.122,3.398.042,1.355.087,2.756.156,4.133l.058,1.134c.265,5.253.541,10.683.893,16.018.134,2.017.773,3.606,1.899,4.723.479.474,1.162.866,1.924,1.105,1.105.341,1.969-.122,2.378-1.278.402-1.127.618-2.095.664-2.961.318-5.922.305-11.205-.041-16.151-.112-1.603-.236-3.205-.361-4.807-.222-2.834-.45-5.763-.597-8.652-.328-6.421-.129-11.297.646-15.807.096-.559.356-1.147.71-1.61.337-.436.608-.627.866-.571.26.042.455.291.63.806l.064.185c.377,1.103.767,2.242.854,3.401.339,4.472.714,9.776.933,15.207.223,5.535.307,11.167.389,16.614.024,1.544-.011,3.108-.043,4.623-.024,1.049-.046,2.099-.051,3.147-.009,2.406.327,4.667.999,6.723.244.744.592,1.425,1.007,1.97.353.466.812.721,1.298.721h.029c.521-.011,1.008-.306,1.373-.832.257-.373.473-.823.62-1.303.854-2.78,1.294-5.299,1.347-7.699.026-1.25.07-2.5.112-3.75.081-2.409.165-4.897.13-7.342-.046-3.138-.197-6.326-.343-9.411-.071-1.474-.14-2.949-.2-4.425-.047-1.189-.083-2.378-.119-3.567l-.15-4.675c-.087-2.646-.177-5.383-.243-8.075-.037-1.486.238-2.819.864-4.198l.14-.308.161.298c.131.245.269.47.399.685.272.449.529.872.659,1.335l.077.273c.486,1.717.988,3.493,1.264,5.282.406,2.64.623,4.933.664,7.008.081,4.183.122,8.437.163,12.551.035,3.712.072,7.551.139,11.326.033,1.889.13,3.81.224,5.669.095,1.87.192,3.804.224,5.71.081,4.636.053,8.442-.088,11.977-.077,1.95-.374,4.092-.907,6.55-.438,2.024-1.058,4.162-1.946,6.731-.337.97-1.042,1.828-1.618,2.469-2.045,2.268-3.523,4.318-4.652,6.451-1.341,2.536-1.944,5.245-1.79,8.055.084,1.55.255,3.124.42,4.645.063.589.127,1.179.186,1.768.029.277.07.564.176.789.245.517.484,1.038.722,1.561.921,2.017,1.874,4.104,3.289,5.85l.154.188c.215.265.438.538.641.824.176.251.223.49.131.673-.06.119-.203.265-.543.276-.064.001-.127.003-.19.003-1.521,0-2.637-.515-3.406-1.571-.341-.466-.559-.65-.942-.555-.406.106-.587.406-.606.999-.029.87-.437,1.568-1.181,2.02-.182.112-.369.168-.541.168-.123,0-.239-.029-.343-.088-.251-.143-.392-.448-.387-.835.008-.626.131-1.259.239-1.818.127-.642.116-1.04-.307-1.307-.417-.263-.797-.171-1.267.305-1.168,1.183-2.626,1.731-4.036,2.262-.34.127-.68.256-1.016.392l-.105.042-.316-.328.042-.102Zm.47,4.002l.053-.571c.05-.55.34-.9.942-1.137.843-.332,1.652-.714,2.511-1.117.343-.163.689-.326,1.041-.486l.193-.089.042.209c.238,1.2.958,2.051,1.882,2.223,1.067.193,2.199-.517,3.108-1.961l.097-.156.147.112c1.058.811,2.268.89,3.55.973.176.012.35.022.526.035.303.025.824.326.891.652l.081.385c.215,1.022.438,2.079.433,3.128-.008,1.509-1.421,2.958-2.685,3.314-.201.06-.415.005-.602-.041l-.076-.017c-2.28-.53-4.327-.705-6.256-.536-1.012.088-2.067.251-2.867,1.172-.138.158-.39.223-.68.223-.263,0-.557-.055-.827-.143-.053-.185-.107-.369-.158-.555-.35-1.275-.848-2.517-1.505-3.768.047-.622.102-1.241.158-1.85Zm-38.262-12.268c.188-.647.595-1.159,1.143-1.441.567-.29,1.251-.318,1.923-.081l.217.077c1.529.541,3.111,1.1,4.753,1.377.847.14,1.738.333,2.805.608,2.134.547,3.963,1.613,5.622,2.682,2.357,1.521,5.043,2.865,8.213,4.11,5.255,2.062,9.07,5.582,11.335,10.465,1.28,2.752,2.071,4.921,2.57,7.03.039.171.068.344.098.533.017.1.034.206.055.318l.058.315-.293-.131c-2.71-1.229-4.644-2.638-6.085-4.438l-.467-.583c-1.294-1.613-2.633-3.283-3.88-4.971-1.952-2.643-4.443-4.356-7.618-5.237-2.422-.672-4.864-1.408-7.228-2.121-.891-.269-1.784-.538-2.676-.803-.495-.148-.994-.291-1.491-.436-1.357-.391-2.762-.795-4.103-1.293-1.02-.378-2.069-.946-3.207-1.736-1.057-.732-1.693-1.811-1.839-3.119-.042-.366-.008-.765.096-1.124Zm-12.981,32.109c-1.079-1.735-2.126-3.619-2.037-5.893.076-1.925.361-3.655.868-5.287.173-.56.352-1.118.53-1.677.794-2.496,1.617-5.077,2.053-7.697.343-2.053.599-3.957.785-5.822.298-2.986,1.765-5.166,4.488-6.662,1.366-.751,2.847-1.488,4.608-1.553.147-.005.295-.008.449-.011l.532-.011-.127.251c-.096.188-.196.368-.294.545-.205.368-.399.715-.517,1.079-.343,1.047-.203,2.176.425,3.448.9,1.819,2.428,3.104,4.671,3.93.869.319,1.761.625,2.625.92,1.101.378,2.241.768,3.347,1.19,2.16.828,4.346,1.694,6.46,2.531,1.538.609,3.077,1.218,4.618,1.819,2.348.915,3.943,2.615,5.07,3.994,1.799,2.201,3.695,4.448,5.795,6.87.407.471.928.879,1.432,1.273l.332.261c.994.79,1.996,1.571,3.011,2.36l1.416,1.103-1.435,2.598-.125-.032c-.543-.137-1.083-.274-1.62-.412-1.235-.316-2.511-.643-3.768-.933-.537-.123-1.095-.218-1.633-.31-.596-.101-1.213-.205-1.81-.35-.833-.203-1.777-.433-2.567-.887-2.745-1.583-5.988-2.553-10.206-3.056-3.233-.385-6.17-1.301-8.731-2.722-.878-.488-1.799-.94-2.689-1.378-.581-.285-1.162-.57-1.735-.866-2.68-1.387-4.875-3.318-6.525-5.74-.42-.617-.931-1.201-1.423-1.764-.152-.175-.303-.348-.453-.522-.312-.364-.655-.461-1.058-.303-.395.159-.599.554-.515,1.005.067.364.169.638.312.84.101.144.201.29.302.436.432.626.878,1.274,1.416,1.814,4.383,4.409,9.814,7.334,14.056,9.39,2.205,1.07,4.606,1.538,6.875,1.925l.507.085c.977.163,1.986.332,2.945.616,1.322.392,2.687.797,3.881,1.461,3.273,1.823,6.971,2.902,11.305,3.3l.071.007c.088.008.175.016.263.03.068.009.109.05.147.085.014.014.033.033.06.055l.226.192-.28.096c-.059.021-.114.042-.168.063-.121.046-.234.089-.357.113-.915.173-1.827.361-2.739.55-2.084.429-4.24.874-6.387,1.129-3.837.455-7.635,1.253-11.609,2.44-.491.146-.986.282-1.481.417-.492.135-.984.269-1.473.416-2.092.625-4.158.748-6.315.368-1.289-.226-2.658-.18-3.981-.134-.492.018-1.071.222-1.57.547-.34.222-.522.534-.503.856.02.341.256.647.648.84.442.217.949.343,1.386.437,2.579.549,5.164.329,7.573.012,2.997-.395,5.641-1.008,8.087-1.873,4.154-1.469,8.446-2.23,12.465-2.835l.492-.075c.785-.123,1.597-.249,2.436-.29l.87-.042-1.11.509c-.251.117-.501.234-.757.343-2.697,1.151-5.27,2.939-8.096,5.628-.847.806-1.521,1.813-2.061,3.079-.182.428-.432.559-.879.438-.941-.251-1.946-.219-3.166.098-1.414.37-2.958.738-4.724,1.124-1.341.293-2.63.44-3.856.44-1.373,0-2.668-.184-3.876-.551-3.934-1.196-7.147-3.094-9.55-5.637-1.16-1.227-1.868-2.696-2.355-3.839-.836-1.965-1.91-3.989-3.28-6.189Zm-8.375,24.94l-.037-.029c-1.771-1.326-2.157-3.183-1.058-5.095,1.022-1.78,2.692-2.815,4.033-3.518,1.898-.994,3.972-1.954,6.286-2.247.305-.039.612-.063.919-.087l.378-.03c.134-.012.274-.013.413-.014.282-.004.549-.007.76-.097.791-.345,1.286.005,1.814.375l.056.039c2.76,1.922,5.822,3.785,9.505,4.414,3.982.681,7.8.551,11.343-.385.58-.154,1.176-.274,1.754-.392.226-.046.45-.092.675-.139.059-.013.121-.017.223-.02.055-.003.123-.005.213-.011l.534-.032-.42.331c-.528.417-1.032.84-1.529,1.256-1.095.917-2.13,1.784-3.292,2.504-3.263,2.023-6.308,3.456-9.306,4.381-3.199.988-6.567,1.555-10.012,1.687l-.336.013c-.764.03-1.537.06-2.311.06-1.42,0-2.844-.102-4.224-.495-1.416-.402-2.814-.937-4.165-1.454-.482-.184-.963-.369-1.445-.547-.287-.105-.533-.291-.772-.47Zm29.796,17.685l-.171.084c-1.456.714-2.961,1.452-4.473,2.113-2.452,1.074-5.118,1.525-7.695,1.962l-.86.147c-1.303.223-2.65.455-3.989.583-.28.028-.559.041-.837.041-1.901,0-3.741-.626-5.482-1.868-1.289-.917-1.67-2.353-1.887-3.768-.186-1.204-.282-2.436-.373-3.629l-.062-.782c-.243-3.09-.495-6.283-1.988-9.289l-.164-.331.357.093c.219.058.427.109.626.158.403.1.782.194,1.151.308,2.885.891,6.007,1.156,9.282.791,3.957-.441,7.205-.849,10.219-1.282,1.798-.257,3.629-.937,5.595-2.079,1.457-.845,3.004-1.809,4.867-3.031,1.25-.818,2.43-1.412,3.714-1.873l.278-.098-1.134,5.762-.193-.085c-1.162-.515-1.604-.442-2.49.407-.386.37-.726.776-1.012,1.209-.849,1.282-1.937,2.252-3.329,2.965-1.635.839-3.411,1.381-5.129,1.906-.571.175-1.142.349-1.709.536-1.731.566-3.294,1.053-4.902,1.295-2.521.377-5.098-.032-7.648-1.231-.059-.028-.118-.058-.176-.088-.161-.083-.315-.161-.466-.184-.189-.028-.417.013-.458.058-.063.088-.058.324.011.474.074.163.255.311.449.461,2.483,1.912,5.379,2.549,8.592,1.897.89-.181,1.769-.496,2.621-.801l.273-.098c.747-.265,1.488-.545,2.23-.824,1.179-.445,2.395-.904,3.617-1.297,1.755-.563,3.514-1.311,5.535-2.352.228-.117.457-.228.686-.341.45-.221.915-.448,1.348-.701.349-.205.68-.453,1.03-.715.171-.129.347-.26.534-.395l.361-.259-.098.432c-.081.357-.15.713-.217,1.064-.15.778-.29,1.513-.558,2.227-.721,1.911-1.521,3.83-2.297,5.686-.244.587-.49,1.173-.732,1.76-.071.173-.205.319-.323.446l-.244.27c-.478.528-.97,1.074-1.473,1.597-.243.252-.496.517-.809.669Zm-2.853,18.208l.503-1.486c.747-2.209,1.521-4.494,2.221-6.757,1.167-3.769,2.665-7.327,4.427-10.633-.144,1.186-.249,2.386-.297,3.591-.074,1.852-.429,3.774-1.087,5.874-1.185,3.797-3.31,7.219-5.43,10.352-.171.252-.379.479-.581.698-.095.102-.189.205-.28.311l-1.32,1.532c.8-1.094,1.431-2.254,1.845-3.482Zm33.723-49.709c-.059.14-.123.278-.188.416-.134.287-.261.559-.332.839h0c-.718,2.818-2.578,5.08-4.421,7.155-2.542,2.863-4.703,5.98-6.424,9.263-.352.673-.714,1.341-1.076,2.011-.798,1.475-1.624,3-2.322,4.544-1.299,2.872-1.889,5.951-2.381,8.858-.639,3.787-1.012,6.895-1.169,9.785l-.005.089c-.129,2.368-.261,4.816-.663,7.211-.294,1.759-.163,3.57-.035,5.321.022.307.045.614.066.921.201,3.078.291,6.701-.56,10.233-.154.639-.353,1.278-.546,1.897-.223.717-.455,1.457-.614,2.196-.221,1.032-.375,2.097-.525,3.128-.08.555-.16,1.112-.252,1.666-.072.446-.214.861-.459,1.343l-.205.403-.126-.521c-.009-.049-.018-.093-.033-.127-1.016-2.271-2.692-4.178-4.312-6.022l-.286-.327c-.235-.265-.474-.529-.714-.791-.231-.253-.462-.507-.689-.764-1.646-1.872-3.638-3.222-5.921-4.015-.322-.112-.646-.217-.97-.322-.358-.117-.715-.232-1.07-.357-1.281-.452-2.557-.382-4.096-.244-2.237.201-4.447.715-6.585,1.211-.688.159-1.374.319-2.063.469-.348.076-.698.146-1.047.215l-.634.127-.185-.391.7-.507c.442-.32.886-.641,1.331-.958.886-.634,1.776-1.264,2.666-1.895,2.143-1.52,4.362-3.092,6.506-4.679.81-.6,1.532-1.343,2.23-2.062l.123-.126c-.692.803-1.385,1.605-2.073,2.411-.182.215-.347.474-.503.794-.188.387-.129.736.176,1.04.32.319.725.395,1.16.222.268-.104.517-.26.702-.44.806-.78,1.53-1.509,2.213-2.233,1.517-1.6,2.582-3.256,3.256-5.062.358-.961.839-1.895,1.302-2.798.177-.344.353-.688.524-1.034.252-.509.511-1.017.769-1.524.392-.768.797-1.562,1.168-2.352,1.424-3.037,2.22-5.614,2.506-8.11.323-2.825.764-5.727,1.303-8.664,1.757-3.459,3.088-7.234,3.993-11.518.338-1.598.711-3.2,1.091-4.791,1.255-1.743,2.507-3.487,3.754-5.236.686-.962,1.373-1.923,2.061-2.884l.28-.396c.323-.459.658-.935,1.033-1.372.281-.328.693-.547.99-.673.217-.091.361-.236.371-.37.008-.116-.095-.203-.182-.256-.311-.188-.711-.302-1.042-.302-.05,0-.098.003-.144.008-.096.011-.184.045-.279.062,2.455-1.822,4.603-3.249,6.666-4.409.135-.076.278-.142.438-.217.077-.035.16-.074.247-.116l.197-.095.042.213c.501,2.573,2.625,3.554,4.679,4.505.088.041.18.072.287.109.063.022.133.046.207.074l.165.06-.068.163Zm.76-12.318c-.085.507-.175,1.032-.179,1.541-.008,1.331.025,2.685.058,3.997.013.538.026,1.075.037,1.613l.008.528c.004.368.009.735.025,1.103.005.119-.001.291-.119.415-.121.129-.305.144-.452.144-1.41,0-2.419-.764-3.14-1.429-.454-.419-.29-.967-.158-1.408.665-2.212,1.515-4.127,2.604-5.88.221-.352.454-.696.689-1.04.104-.152.209-.306.312-.459l.076-.116.339.148.012.137c-.033.236-.072.471-.113.707Zm1.016,32.382c.217-1.802.495-3.627.765-5.391.35-2.296.714-4.67.942-7.017.092-.945.192-1.89.293-2.834.023-.216.044-.436.067-.652.178.295.348.594.5.9.354.717.702,1.467,1.048,2.245.122,5.43-.133,10.019-.795,14.229-.147.942-.253,1.973-.323,3.149-.037.584.114.886.487.977.438.106.772-.108,1.004-.637.242-.549.483-1.134.546-1.725.293-2.726.558-5.486.791-7.922l.223-2.313c-.022-.424-.041-.832-.06-1.241.419,1.061.855,2.196,1.269,3.345.365,1.009.702,2.045,1.028,3.048.331,1.017.672,2.07,1.042,3.091.688,1.895,1.416,3.813,2.12,5.668.223.587.444,1.176.666,1.764-.161.255-.462.506-.715.517-.921.046-1.727.001-2.458-.133-.257-.047-.444-.286-.625-.516-.084-.109-.172-.221-.259-.301-.064-.059-.131-.127-.198-.197-.171-.176-.364-.374-.508-.381-.223-.001-.578.243-.681.466-.596,1.268-1.583,1.486-2.571,1.486-.268,0-.534-.016-.794-.032l-.117-.007c-1.238-.07-1.743-1.078-2.12-2.015-.999-2.489-.864-5.11-.568-7.573Zm.786,37.337c.723-.721,1.735-1.524,3.074-1.416.277.022.503.387.546.461.27.462.613.725.965.736h.024c.324,0,.648-.215.917-.612.127-.186.323-.431.575-.431h.02c.255.013.421.261.538.476.063.113.118.23.173.348.047.098.095.197.146.294.635,1.19,1.433,1.533,2.594,1.118.287-.104.496-.108.659-.02.218.117.306.37.368.627.197.806,0,1.652-.528,2.263-.497.572-1.217.866-1.978.788-.824-.079-1.75-.371-2.83-.895-.831-.403-1.067-.428-1.662.219-.647.705-1.634,1.116-2.503,1.116-.362,0-.704-.071-.991-.223-.798-.421-1.163-1.106-1.117-2.092.011-1.139.369-2.118,1.011-2.758Zm-8.344,15.951l.134-.014c4.736-.533,7.497-3.15,8.689-8.234.032-.131.056-.263.085-.407l.081-.407h1.34l.014.154c.003.032.007.06.012.089.012.077.025.159.005.245-.936,4.201-2.264,7.348-4.18,9.9-.82,1.093-1.799,1.781-2.993,2.103-.265.071-.554.13-.858.13-.354,0-.73-.08-1.113-.315-.268-.164-.673-.168-.957-.16-.025.001-.051.001-.076.001-.82,0-1.29-.453-1.361-1.315-.005-.055-.005-.114-.005-.173v-.054c-.03-1.33.035-1.416,1.183-1.544Zm9.102,38.482c-.421.978-1.137,1.494-2.046,1.494-.172,0-.352-.018-.538-.056-3.926-.793-5.829-2.683-6.567-6.522-.326-1.698-.277-3.318.147-4.816.169-.602.474-1.236.879-1.832.522-.763,1.223-1.063,2.164-.938,2.508.327,4.566-.243,6.284-1.739.07-.06.143-.113.249-.188l.444-.323.03.29c.037.337.075.662.113.975.077.652.151,1.268.189,1.887.021.344.045.686.07,1.03.172,2.475.349,5.035-.298,7.529-.263,1.015-.629,2.063-1.121,3.209Zm20.657-10.852c.172,1.42.365,3.029.277,4.568-.203,3.525-2.78,6.66-6.126,7.455-.269.063-.554.093-.847.095-1.715,0-3.726-1.047-4.654-2.531-1.007-1.613-1.542-3.276-1.637-5.083-.127-2.433.104-4.805.374-7.223l.024-.21.2.07c.425.151.845.306,1.264.461.919.339,1.788.659,2.688.925,2.689.794,4.688.336,6.294-1.439l.108-.118.123.101c.854.694,1.751,1.586,1.912,2.93Zm-.675-14.241c.827,2.04.722,4.127-.297,5.875-.727,1.247-1.628,2.401-2.499,3.516l-.449.576c-.496.642-1.263.966-2.277.966h-.014c-2.097-.009-4.031-.721-5.75-2.113-1.21-.979-1.666-2.427-1.284-4.074.429-1.855,1.378-3.231,2.821-4.09.816-.483,1.629-.411,2.426.222.617.49.803,1.156.554,1.983-.056.182-.114.365-.172.546-.158.491-.32.999-.42,1.505-.045.219.066.621.144.679.251.104.664.076.839-.059,1.117-.877,1.823-2.059,1.936-3.243.098-1.041-.253-2.03-1.047-2.945-1.503-1.731-3.603-1.985-5.48-.667-2.676,1.874-4.121,5.662-3.363,8.808.113.467.264.999.539,1.411.412.614.415,1.197.29,1.883-.627,3.474-.819,6.576-.587,9.483.167,2.09.883,4.033,2.132,5.78.328.458.293.794.11,1.253-.763,1.927-2.343,2.685-3.942,2.685-.681,0-1.366-.138-1.991-.382-.423-.165-.756-.532-1.079-.886-.139-.154-.277-.305-.42-.437l-.114-.106.097-.122c1.974-2.461,2.923-5.383,3.077-9.474.121-3.188-.445-6.355-.994-9.419l-.058-.323c-.066-.36-.007-.797.148-1.112,1.328-2.689,1.055-5.406-.769-7.652-1.075-1.324-2.574-1.756-4.448-1.294-1.467.364-2.367,1.427-2.67,3.157-.176.995-.29,1.887.097,2.748.177.395.41.63.668.677.235.045.524-.076.809-.358.108-.106.198-.305.184-.4-.163-1.089.238-2.036.698-2.989.186-.385.583-.638,1.089-.694.698-.096,1.453.223,1.872.749,1.286,1.617,1.374,3.667.23,5.349-1.595,2.339-3.678,3.364-6.388,3.107-2.355-.217-3.914-1.445-4.767-3.758-1.032-2.793-1.336-5.601-.907-8.343.043-.28.081-.56.119-.843.102-.743.207-1.511.411-2.241.265-.95.705-1.851,1.13-2.72.134-.277.635-.522.915-.425,4.082,1.267,6.685-1.546,8.155-4.137,1.385-2.441,2.444-5.166,3.149-8.098.05-.211.108-.42.133-.512l.129-.473.198.415c.252.605.5,1.225.752,1.851.568,1.418,1.156,2.884,1.826,4.297,2.034,4.295,5.321,6.964,9.771,7.936,1.025.224,1.654.7,2.101,1.592.265.525.539,1.047.814,1.57.638,1.214,1.297,2.472,1.824,3.767Zm-8.413-15.236c2.015,1.777,4.423,2.609,7.185,2.431l.179-.011v.179c0,.259.005.511.011.757.012.562.022,1.092-.028,1.625-.079.861-.899,1.633-1.712,1.633-.025,0-.05,0-.074-.001-.935-.055-1.925-.147-2.846-.445-2.724-.883-4.894-2.612-6.454-5.14-1.641-2.661-2.633-5.068-3.125-7.575-.039-.206-.059-.413-.075-.593-.008-.088.018-.168.029-.202l.03-.151.152.022,3.959.441-.004.155c-.081,2.787.903,5.229,2.772,6.875Zm-.226-21.581c-.722,1.18-1.469,2.313-2.26,3.51-.343.52-.689,1.045-1.037,1.579l-.121.186-.146-.168c-1.272-1.454-2.154-1.683-3.777-.986-.076.034-.349.131-.578.043-1.126-.452-1.977-.197-2.675.795l-.148.209-.133-.218c-.091-.148-.177-.287-.261-.424-.182-.294-.353-.568-.511-.852-1.975-3.522-3.888-7.391-4.493-11.817-.312-2.301-.114-4.687.589-7.096.375-1.282,1.267-2.138,2.128-2.965.255-.244.509-.488.749-.743l.088-.093.113.06c2,1.059,3.972.89,6.204-.529l.119-.075.095.102c.841.914,1.94,1.264,3.659,1.166.011,0,.021-.001.033-.001.265,0,.567.177.735.36,1.397,1.528,2.17,2.895,2.504,4.436.112.513.245,1.033.375,1.537.268,1.045.545,2.124.648,3.21.31,3.255-.329,6.206-1.902,8.772Zm25.396,2.58c.539.967,1.005,1.988,1.456,2.977l.152.335c.983,2.139,1.565,4.439,1.781,7.03.151,1.826.366,3.679.575,5.472.18,1.54.365,3.13.508,4.7l.005.058c.197,2.149.399,4.368.106,6.569l-.102.781-.368.055-.638-1.916c-.399-1.205-.799-2.41-1.2-3.612-.16-.483-.463-.73-.928-.755-.025-.001-.049-.003-.072-.003-.404,0-.709.21-.908.622-.32.671-.637,1.343-.953,2.016-.335.711-.669,1.421-1.009,2.13-.778,1.621-1.534,3.048-2.905,4.102l-.452.35-.097-.16c-.011-.017-.021-.03-.032-.043-.034-.046-.08-.108-.075-.194.142-2.084-.419-4.075-.984-5.749-.656-1.94-1.033-4.06-1.225-6.876-.32-4.715-1.62-9.135-3.864-13.136-2.193-3.911-4.081-8.245-5.769-13.249-1.322-3.91-2.68-7.038-4.275-9.843-.912-1.601-1.442-3.42-1.956-5.182l-.113-.385c-.299-1.019-.589-2.049-.878-3.076-.366-1.303-.726-2.604-1.078-3.881-.617-2.243-1.256-4.564-1.92-6.836-.975-3.335-1.944-5.807-3.141-8.014-.175-.322-.351-.646-.53-.969-.709-1.277-1.484-2.536-2.49-3.648-.476-.526-1.008-1.015-1.609-1.458-.162-.119-.316-.244-.49-.356l-.362-.235-.156-.101.163.007.455.02c.047.003.096.007.144.011.07.006.137.006.202.005.023,0,.05.004.072.002l.437-.045c.25-.026.505-.063.759-.092.309-.035.618-.063.923-.112.439-.071.875-.163,1.313-.248.333-.065.671-.122.998-.189l.215-.043c.363-.075.727-.142,1.093-.211.006,0,.012-.002.018-.003.952-.177,1.935-.361,2.861-.646.538-.167,1.026-.474,1.544-.799.236-.148.474-.298.718-.436l.092-.051.085.059c2.385,1.635,5.068,3.624,6.74,6.559.62,1.085,1.366,2.206,2.352,3.527,1.058,1.421,1.95,3.049,2.726,4.976l.249.618c1.142,2.83,2.323,5.757,2.935,8.802.171.851.278,1.725.381,2.57.092.755.186,1.534.327,2.292.509,2.741,1.058,5.983,1.265,9.24.095,1.502.522,3.081,1.309,4.83.323.718.643,1.437.963,2.157,1.429,3.214,2.907,6.538,4.654,9.68Zm25.756-19.957c-.091.214-.184.436-.282.655h-.001l-.558,1.225c-.747,1.641-1.496,3.284-2.255,4.921-.223.482-.495.944-.753,1.377-1.114,1.86-2.889,2.801-5.28,2.801-.096,0-.192-.001-.29-.004-1.574-.047-3.116-.448-4.713-1.225-2.565-1.247-4.896-2.823-6.639-4.058-.386-.273-.774-.542-1.164-.812-.704-.488-1.431-.992-2.129-1.511-1.74-1.289-3.273-2.922-4.824-5.14-.362-.517-.746-1.036-1.172-1.586-.864-1.116-1.316-2.334-1.386-3.726-.026-.53-.085-1.049-.148-1.599-.028-.245-.055-.491-.08-.739l-.017-.165.164-.018c1.208-.15,2.318.151,3.209.841,1.25.966,2.407,1.99,3.44,3.042.961.98,1.806,2.057,2.734,3.259,2.296,2.973,5.179,5.337,8.816,7.228,2.011,1.046,4.091,2.128,6.452,2.562.434.079.791.1,1.146.112.504-.007.862-.24,1.066-.693.11-.244.142-.406.101-.509-.053-.135-.261-.245-.579-.379-2.033-.856-4.207-1.421-6.308-1.969-.423-.11-.845-.221-1.268-.332-.644-.173-1.226-.545-1.789-.904l-.055-.035c-3.262-2.076-6.027-4.663-8.223-7.689-1.114-1.537-2.447-2.817-3.963-3.802-.833-.543-1.785-.962-2.705-1.366l-.118-.053c-.671-.295-1.331-.326-1.96-.095l-.2.074-.025-.211c-.32-2.683-1.211-5.133-2.157-7.727l-.137-.378.214-.021c.02-.003.041-.007.059-.009.066-.012.138-.024.213-.001,1.765.543,3.623,1.277,5.843,2.307,4.788,2.221,8.954,5.236,13.517,8.66,4.225,3.174,7.772,5.102,11.498,6.253.62.192,1.205.433,1.826.689.284.118.57.236.862.35l.16.063-.143.339Zm7.93-14.031c-.067.133-.127.252-.194.368l-1.634,2.842c-1.736,3.019-3.473,6.038-5.199,9.062-.188.329-.382.476-.664.476-.106,0-.226-.021-.362-.06-.303-.088-.618-.127-.953-.168-.239-.029-.488-.059-.73-.11-2.221-.463-4.419-1.341-6.723-2.684-2.384-1.391-4.716-3.22-7.131-5.591-1.085-1.068-2.293-2.22-3.69-3.519-2.293-2.134-5.118-3.771-8.395-4.863-.165-.055-.327-.114-.488-.175l-.34-.125.093-.369.121-.007c.215-.011.429-.025.644-.041.474-.033.962-.063,1.444-.058.155.003.31.004.463.004,3.872,0,7.736-.811,11.798-2.475.567-.234.944-.185,1.437.181,2.552,1.885,4.897,3.55,7.169,5.091,2.402,1.629,5.09,2.63,7.987,2.977,1.6.19,3.159-.138,4.77-1.007.097-.051.193-.1.29-.148.043-.018.074-.021.118-.024l.399-.029-.231.452Zm-.635-1.84c-1.318.744-2.533,1.113-3.707,1.113-.781,0-1.542-.163-2.304-.487-1.746-.746-3.434-1.672-5.16-2.836-.872-.587-1.743-1.205-2.586-1.802-.542-.383-1.084-.768-1.63-1.147-.512-.356-1.032-.701-1.592-1.072l-1.083-.721.373-.089c.339-.081.669-.163.994-.243.747-.182,1.453-.356,2.171-.511l.175-.038c1.407-.302,2.863-.616,4.096-1.355.68-.406,1.323-.902,1.945-1.379.257-.2.515-.398.776-.591.081-.06.156-.138.236-.219.042-.043.085-.088.13-.131l.125-.119.116.127c.217.235.428.471.637.705.448.497.869.969,1.32,1.425.245.249.494.496.742.744,1.457,1.454,2.964,2.958,4.073,4.741.344.554.648,1.057.893,1.6.45,1.003.209,1.751-.739,2.285Z" stroke-width="0"/>
      <path d="m91.808,177.661c-.812-4.188-1.733-8.063-2.813-11.843-.932-3.26-1.893-6.521-2.855-9.689-.242-.791-.495-1.551-.941-2.158-1.187-1.609-2.453-3.171-3.766-4.642-.392-.44-.996-.748-1.579-1.046l-.269-.138c-.104-.055-.21-.081-.312-.081-.214,0-.415.114-.554.327-.169.261-.113.492.198.795,1.332,1.303,2.507,2.826,3.493,4.526.339.585.684,1.168,1.029,1.752.828,1.402,1.685,2.853,2.454,4.317.589,1.125,1.106,2.41,1.579,3.93.484,1.55.896,3.146,1.295,4.688.113.434.224.869.339,1.303.297,1.125.5,1.988.659,2.802.184.938.354,1.882.524,2.825.303,1.68.616,3.417,1.009,5.104.841,3.613,2.304,7.319,4.472,11.325,1.859,3.432,3.31,7.081,4.438,11.153.568,2.046,1.105,4.49.777,7.09-.186,1.466-.269,2.775-.253,4.001.014,1.009.14,2.094.399,3.413.134.688.7.938,1.16.886.626-.074.806-.627.848-1.08.053-.578.076-1.168.098-1.74.012-.269.022-.537.035-.806.077-1.721-.076-3.585-.482-5.864-1.066-5.993-2.839-11.259-5.421-16.098-2.793-5.232-4.612-10.154-5.563-15.05Z" stroke-width="0"/>
    </g>
  </g>
</svg>