<?xml version="1.0" encoding="UTF-8"?>
<svg id="b" data-name="Layer 2" xmlns="http://www.w3.org/2000/svg" width="99.862" height="320.586" viewBox="0 0 99.862 320.586">
  <g id="c" data-name="Layer 1">
    <g>
      <path d="m99.797,307.672l.065-.119-.018-.274c-.651-9.888-1.325-20.112-3.478-29.798-.46-2.709-1.012-5.438-1.547-8.077-1.488-7.349-3.026-14.947-2.66-22.764,1.415-21.196,3.113-43.127,5.191-67.051.227-3.289.568-6.665.896-9.93,1.22-12.1,2.482-24.614-1.565-36.396-.04-.482-.212-.903-.378-1.311-.15-.367-.291-.712-.315-1.063l-.034-.146c-2.613-6.305-5.625-10.796-9.485-14.138-4.953-4.184-11.17-9.868-15.393-16.78-.386-11.807-1.508-23.663-2.594-35.129-.579-6.116-1.177-12.438-1.659-18.696-.473-3.609-.14-7.388.182-11.038.367-4.168.746-8.475-.05-12.614.311-1.307.024-2.64-.254-3.932-.275-1.274-.534-2.475-.204-3.574,1.293-5.351.925-9.126-1.12-11.542-2.067-2.44-5.799-3.435-11.35-3.03-7.033-.426-18.804-1.135-24.565,4.886l-.108.114-.018.154c-.05.432-.004.777.137,1.032l-.698.037-.13.153c-.531.623-.579,1.314-.621,1.926-.011.167-.022.332-.044.498l-.05.24c-.936,4.467-.218,8.917.478,13.223.202,1.251.411,2.546.573,3.814.47,3.421.3,6.96.134,10.382-.124,2.574-.253,5.235-.113,7.858l.008.161.107.123c.149.168.179.372.215.689.033.286.073.633.274.958-.692,19.18-.511,39.133-.346,56.781-3.416.74-7.008,2.328-9.956,4.424-.804.749-1.631,1.503-2.466,2.265-6.324,5.768-12.864,11.733-14.455,20.086-.254.503-.341,1.037-.426,1.553-.082.503-.161.979-.387,1.368l-.054.139c-2.95,14.226-1.016,28.742.855,42.778.258,1.94.516,3.875.761,5.803,3.73,29.975,4.807,53.029,3.494,74.723-.708,6.072-1.199,12.289-1.672,18.301-.354,4.486-.719,9.124-1.168,13.621-2.843,16.256.503,26.199,9.679,28.763.363.214.718.339,1.079.381.57.344,1.184.537,1.78.723.445.139.865.27,1.269.46l.116.039c8.33,1.514,16.919,1.86,25.444,1.86,3.595,0,7.18-.061,10.727-.123,3.601-.061,7.324-.126,11.041-.128,1.812-.244,3.689-.404,5.505-.556,4.309-.367,8.765-.742,12.798-2.27,6.231-1.495,13.165-3.61,16.57-9.837ZM33.704,5.445c.968-.586,2.063-1.247,2.593-1.267,9.04-1.325,17.137-2.242,24.753-.074,2.401.318,3.599,2.568,3.562,6.688-1.746,4.137-1.994,9.156-.699,14.154-.261,17.017.816,35.592,3.286,56.753.145,2.87.393,5.756.634,8.547.319,3.719.65,7.565.737,11.389l.018.118c.678,2.353,2.458,3.926,4.181,5.449l.468.414c1.454,1.479,2.894,2.886,4.298,4.258,7.746,7.577,14.436,14.119,16.879,25.936.133.944.275,1.8.665,2.714,1.7,8.149.895,16.731.116,25.033l-.061.661-.005.253c-.223,10.331-.453,21.012-2.268,31.191-.295,6.816-.995,13.8-1.672,20.552-1.307,13.038-2.658,26.521-1.206,39.743.739,3.451,1.378,6.986,1.996,10.405.733,4.058,1.492,8.254,2.416,12.298.844,4.889,1.156,9.947,1.458,14.84.221,3.579.45,7.281.882,10.809-.212,3.653-5.941,6.156-9.746,6.698l-.126.018-.099.081c-.168.133-.403.177-.674.228l-.282.068c-.829.391-1.717.579-2.656.777-.841.179-1.709.361-2.534.705-1.238.107-2.132.309-2.963.667-12.955,2.614-26.704,2.31-40.001,2.023-1.562-.033-3.123-.068-4.626-.093-1.749-.235-3.55-.396-5.292-.553-6.231-.558-12.675-1.135-17.882-5.137-5.267-5.817-5.317-14.919-3.591-21.584.278-4.493.666-9.031,1.041-13.421.221-2.589.442-5.179.643-7.774,3.941-27.098,1.683-54.973-.724-76.228-.434-3.958-.951-8.009-1.45-11.926-2.078-16.3-4.227-33.152-1.418-49.438.32-.9.564-1.835.801-2.737.155-.593.311-1.186.487-1.77,5.04-9.205,13.338-16.598,22.78-20.296.535-.096.973-.328,1.398-.554.109-.058.219-.116.334-.174.439.035,1.339.016,1.688-.926l.035-.095-.007-.102c-.08-1.116-.033-2.312.013-3.468.073-1.863.149-3.788-.283-5.554.222-7.486.188-15.161.154-22.584-.038-8.326-.077-16.928.25-25.243l.089-.014c.892-.126,1.784-.254,2.678-.386,7.775-1.13,15.815-2.298,23.787-.907.378.181.758.279,1.095.365.566.146,1.014.26,1.364.696l.235.291.335-.167c.333-.165.544-.4.628-.696.151-.54-.191-1.084-.417-1.444l-.083-.133-.146-.054c-8.15-3.077-17.611-1.807-25.957-.684l-2.093.277-.101.026c-.081.03-.207.088-.355.158-.189.089-.636.302-.896.363-.536-4.175-.636-8.659-.318-14.168-.883-7.04-1.729-15.398-1.309-24.008l.009-.191-.263-.295c.843.06,2.054-.679,3.418-1.502Z" stroke-width="0"/>
      <path d="m89.745,172.801c.175.007.35.014.525.021l1.355.054.132-.1c.585-.444.799-.9.636-1.358-.622-1.751-7.892-2.125-27.777-1.432-2.436.084-4.195.146-4.844.128l-3.477.488c-5.69.795-11.573,1.618-17.289,2.763l-.155.03-.104.119c-.066.077-.175.098-.408.133-.233.033-.515.074-.771.256l-.864.142-.107.03c-.827.354-1.68.616-2.583.893-.885.27-1.8.551-2.688.926-.466.051-.88.219-1.28.382-.37.151-.72.293-1.075.325l-.114.025c-.536.191-1.065.395-1.594.596-.927.356-1.885.723-2.909,1.026-.703.321-1.633.723-2.644.988-.781.307-1.574.589-2.371.874-1.374.489-2.795.996-4.193,1.651-.563.33-1.355.595-2.193.874-2.125.707-4.533,1.509-4.653,3.853l-.016.304.272.137c.371.184.737.263,1.096.263.97,0,1.889-.565,2.726-1.079.52-.319,1.011-.621,1.515-.789,1.015-.451,2.032-.888,3.046-1.323,2.155-.926,4.382-1.884,6.496-2.942,2.503-.933,4.817-1.774,7.071-2.568l.903-.081.12-.121c.084-.086.222-.112.439-.151.229-.04.507-.086.759-.265l1.083-.149.116-.165c.03-.042.143-.058.311-.079.222-.028.514-.065.775-.253l.961-.139.106-.096c.085-.079.22-.107.434-.147.237-.042.524-.096.784-.284,1.926-.418,3.84-.926,6.153-1.639,11.28-2.507,23.077-2.789,34.787-2.514-17.654.779-45.779,5.403-48.471,6.719-.719.096-1.607.261-2.305.651-6.21,2.07-12.483,5.158-17.667,8.695l-.158.109-.037.186c-.125.637.131,1.207.701,1.563l.179.067c.404.051.682-.123.867-.242.049-.032.125-.081.147-.084l.143-.004.118-.082c2.878-2.039,6.312-3.651,9.432-5.075-.318,7.16.598,14.13,1.485,20.879.441,3.349.896,6.814,1.197,10.286.57,3.421.661,7.052.75,10.566.117,4.661.238,9.481,1.463,13.94.578,2.433,1.698,4.279,3.327,5.486l.089.067.11.019c.161.026.468.068.832.068.621,0,1.41-.121,1.94-.647.287-.286.6-.807.46-1.661l-.034-.114c-.331-.74-1.065-.823-1.644-.833-.609-.689-.911-1.686-1.203-2.651l-.134-.437-.048-.105c-.189-.307-.285-.684-.385-1.084-.101-.4-.205-.814-.414-1.212-2.223-11.996-3.51-24.493-3.944-38.287-.363-1.635-.387-3.449-.41-5.203-.025-1.889-.051-3.844-.479-5.589-.033-.346-.041-.725-.051-1.114-.029-1.261-.062-2.663-.874-3.568,2.141-1.149,4.431-1.8,6.653-2.43.978-.277,1.957-.556,2.868-.86,1.635-.304,3.273-.618,4.914-.93,11.577-2.212,23.538-4.498,35.581-3.817-2.023,10.891-2.2,22.426-2.371,33.589-.146,9.519-.296,19.363-1.602,28.757-.017.528-.342,1.123-.657,1.696-.553,1.009-1.295,2.374.193,3.342-.313.079-.607.196-.882.312-.153.065-.306.13-.461.186-.725.03-1.379.254-1.946.67l-.163.119-.039.326c-.054.433-.115.926.111,1.419l.047.105.09.07c.583.451,1.224.56,1.818.56.152,0,.3-.009.444-.018l.192-.056c.357-.196.66-.318.953-.433.594-.233,1.154-.456,1.678-1.205l.083-.121v-1.272l-.622-.647-.078-.019c3.612-1.318,3.282-8.256,3.011-13.901-.118-2.463-.23-4.789.026-6.172.561-5.447.734-11.059.902-16.484.138-4.449.28-9.047.635-13.514.477-5.403.437-9.184.409-11.944-.031-2.914-.048-4.519.619-5.144.718-.672,2.614-.525,6.056-.26,2.407.186,5.702.44,10.06.532l.245.005.143-.2c.769-1.072.339-1.809.015-2.153-.421-.446-1.25-.781-2.403-1.023Z" stroke-width="0"/>
      <path d="m32.379,142.184c-.457,0-.86.13-1.218.246-.311.1-.605.195-.905.2l-.164.033c-.727.291-1.456.465-2.365.561l-.163.018-.116.116c-.125.125-.307.14-.618.161-.166.009-.332.021-.492.053l-.155.061c-.352.219-.778.314-1.23.414-.455.1-.925.204-1.372.444-.789.123-1.649.433-2.557.926-4.521,1.361-9.537,3.696-13.419,6.249l-.378.228c-.647.388-1.316.788-1.762,1.475l-.075.116v.814l.075.114c.314.482.711.772,1.182.863.107.021.213.032.321.032.87,0,1.757-.63,2.55-1.191.349-.246.678-.479.986-.64,4.85-2.965,9.34-4.993,13.766-6.209,3.039-1.125,5.4-1.809,7.656-2.214l.16-.03.107-.121c.065-.075.174-.096.406-.13.238-.035.525-.077.785-.267.205-.046.418-.086.635-.128.683-.132,1.39-.268,2.017-.57,1.57-.286,3.16-.514,4.699-.737,2.719-.391,5.531-.796,8.219-1.514l.097-.016c10.498-1.658,21.352-3.377,32.121-2.325l.046.002c1.595-.014,3.215.089,4.763.182,1.995.118,4.058.24,6.188.153l.175-.007,1.278-1.218-1.244-1.246-.161-.019c-15.363-1.781-32.25-.602-50.111,3.498-3.493.188-6.675.718-9.725,1.621Z" stroke-width="0"/>
      <path d="m64.198,245.477l.091-.077c.884-.749,1.046-1.835,1.188-2.793.079-.535.155-1.04.339-1.463l.036-.14c.429-4.379-.181-5.293-3.916-5.758-3.162.139-6.403.007-9.544-.125.099-.049.2-.096.295-.146.347-.175.696-.353.987-.47,2.266-.539,2.81-2.246,3.044-3.844l.025-.165-.088-.144c-.145-.239-.145-.514-.146-.895,0-.242,0-.496-.036-.772l-.014-.109-.061-.091c-.386-.575-.855-.954-1.309-1.321-.197-.158-.394-.318-.583-.493-.101-.209-.204-.442-.313-.684-.706-1.586-1.677-3.763-3.824-3.389l-.484.261-1.213-1.216-.165-.019c-1.075-.135-1.932.367-2.693.805-.263.151-.514.295-.765.411-1.375-.396-2.681-.007-3.61,1.081l-.132.153.022.2c.142,1.275-.171,2.077-1.08,2.767l-.177.135-.007.221c-.007.235-.079.433-.164.663-.056.154-.111.307-.152.472l-.052.207.125.174c.178.251.211.512.253.835l.02.154.107.111c.589.607.831,1.172.811,1.889l-.004.167.102.132c.322.414.745.86,1.132,1.195l.096.082.124.023c.531.098,1.034.081,1.519.065.219-.009.438-.019.664-.011,1.102,1.311,2.684,1.416,3.879,1.332.034.039.069.06.104.095-4.528-.139-9.118-.084-13.544.93l-.12.028-.09.084c-.09.082-.227.116-.441.165-.358.079-.848.188-1.141.756l-.06.116.009.13c.055.805-.071,1.788-.205,2.826-.289,2.249-.598,4.781.97,6.209-.139.126-.267.268-.364.446l-.099.181.066.195c.605,1.77,2.388,2.216,3.96,2.609.725.182,1.409.353,1.93.632l.133.047c.153.03.31.04.466.051.318.021.503.04.632.168l.121.121.635.051c2.701.216,5.531.44,8.341.44,5.097,0,10.132-.742,14.228-3.63l.139-.098.043-.163c.184-.696.004-1.291-.473-1.725.116-.011.226-.03.315-.049l.116-.023Zm-18.509-13.507l-1.942-.023-.504-.518c-.003-.97-.448-1.605-.811-2.121-.525-.747-.765-1.089.62-2.27l.164-.14v-1.875c.2-.23.521-.302,1.057-.242l.761.679.289-.16c2.391-1.325,2.859-1.102,3.309-.889.598.284,1.177.451,2.604-.153.422.332.792.761,1.105,1.13.286.489.394,1.061.51,1.667.184.972.39,2.065,1.431,2.846.041.453.037.925-.013,1.489l-.568.558-.913.067-.409.477c-.524.621-.982,1.165-1.745,1.365-.773-.516-1.632-.57-2.396-.618-1.014-.063-1.814-.114-2.412-1.054l-.136-.214Zm14.387,14.154c-5.581,2.179-12.569,2.561-19.551,1.018-.262-.191-.552-.235-.791-.272-.208-.03-.339-.054-.414-.13l-.096-.098c3.564.051,7.13-.104,10.607-.258,3.35-.149,6.795-.291,10.244-.26Zm2.1-2.414l-.161-.049c-2.171-.265-4.372-.353-6.569-.353-2.153,0-4.304.084-6.419.167-4.472.175-9.091.353-13.48-.288.189-1.582.278-3.256.268-5.096,9.827-.549,18.556-.542,26.677.014.921.607.675,2.31.436,3.958-.108.746-.212,1.465-.205,2.091-.131-.172-.313-.319-.547-.444Z" stroke-width="0"/>
      <path d="m20.15,298.428c-1.853-.179-2.584-2.565-3.118-4.307l-.127-.395c-.525-1.091-.802-2.293-1.069-3.454-.211-.923-.43-1.875-.773-2.786-1.198-12.514-.333-25.233.504-37.533.768-11.27,1.56-22.921.785-34.477l-.011-.167-.519-.518h-.223c-.5,0-.625.047-.992.37l-.132.118-.021.177c-.032.261-.03.53-.025.8.008.482.014.902-.213,1.267l-.07.114v.132c-.01,2.584-.005,5.161-.001,7.731.017,10.842.036,22.054-1.037,32.887l-.175,1.381c-1.346,10.568-2.871,22.547.493,32.945.123.344.248.723.38,1.123.946,2.868,2.234,6.775,5.596,6.775.062,0,.126-.002.19-.004l.169-.007,1.039-.953.021-.17c.088-.719-.28-.963-.668-1.051Z" stroke-width="0"/>
      <path d="m53.734,158.261c-.2.188-.403.377-.603.572l-.218.214.108.284c1.852,4.884,7.424,7.37,10.625,8.43,1.429.33,2.96-.207,3.348-1.163.182-.449.264-1.339-1.303-2.282-3.373-1.342-6.625-3.193-9.22-5.24,2.147-2.191,3.039-5.135,2.122-7.167-.443-.984-1.72-2.575-5.308-2.195l-.141.014-.108.091c-.195.163-.407.191-.707.216l-.175.014-.123.126c-.296.305-.691.465-1.109.635-.714.288-1.525.616-1.786,1.719l-.018.075.007.079c.096.919-.05,2.589-.219,4.524-.46,5.261-1.031,11.81,2.299,12.184l.221.025.158-.158c1-.989.931-4.114.851-7.73-.069-3.149-.174-7.903.992-8.003h1.918l.534.521c.301,1.919-.835,2.984-2.146,4.214Z" stroke-width="0"/>
      <path d="m14.712,156.151c.918-.349,1.83-.696,2.732-1.07,1.846-.789,3.764-1.475,5.618-2.139.739-.265,1.476-.528,2.288-.835.316-.191.687-.298,1.081-.411.388-.112.789-.226,1.17-.432.441-.028.807-.221,1.134-.393.302-.158.596-.27.834-.291l.121.002.106-.058c.583-.312,1.218-.475,1.89-.647.561-.146,1.139-.293,1.695-.537.482-.016.787-.112,1.097-.216.298-.1.553-.191.874-.165l.078.005.075-.021c6.874-1.919,14.261-3.189,22.657-3.895,10.852-2.682,22.606-2.433,31.633-1.919l.201.012.469-.444.032-.137c.085-.356.041-.656-.131-.891-.293-.402-.823-.44-1.291-.475-.199-.016-.533-.04-.609-.1l-.133-.135-.189-.004c-7.177-.123-15.66-.142-24.165.646l-.145.037c-.598.263-1.219.332-1.877.404-.696.077-1.416.156-2.135.475l-.211.019c-1.23.109-2.392.211-3.589.625-6.237.256-12.269,1.518-18.103,2.737-1.484.311-2.97.621-4.483.921-3.868.932-7.587,2.279-11.07,3.579-1.109.432-2.207.889-3.304,1.346-1.552.647-3.155,1.316-4.767,1.895l-.151.089c-.191.167-1.388.658-2.35,1.053-4.086,1.681-5.513,2.435-5.381,3.328.097.647.925.814,1.722.889l.148.012.128-.074c2-1.149,4.187-1.981,6.301-2.786Z" stroke-width="0"/>
      <path d="m22.776,155.256c-.498-.505-1.118-.744-1.849-.705l-.141.007-.114.084c-2.463,1.819-3.628,4.558-4.755,7.207-.147.346-.294.691-.443,1.033l-.032.105c-.128.728-.284,1.496-.446,2.289-.86,4.224-1.834,9.014.294,12.559l.22.365.384-.188c.061-.03.124-.056.184-.082.254-.111.571-.247.803-.584l.062-.089.19-1.265c.247-1.614.503-3.281.528-4.981.345-.221.678-.446.994-.661.773-.525,1.832-1.249,2.108-1.081.065.037.379.328.201,2.344l-.012.14.067.123c.189.347.238.749.29,1.175.086.7.183,1.495.963,2.072l.114.082.141.007c.791.042.939-.035,1.455-.718l.141-.188-.066-.225c-.342-1.177-.186-3.817-.02-6.616.286-4.837.61-10.319-1.264-12.212Zm-3.224,7.896c-.002-.274.138-.533.299-.835.175-.326.37-.689.402-1.132.129-.239.25-.463.363-.681.055.912.022,1.861-.01,2.789-.03.874-.061,1.774-.019,2.635-.364.335-.864.479-1.432.642-.248.07-.5.144-.75.235.099-.946.527-2.012.913-2.974l.235-.591v-.089Z" stroke-width="0"/>
      <path d="m68.56,163.84c2.04,0,3.938-.872,5.367-2.474,1.837-2.058,2.717-5.067,2.292-7.879-.607-2.956-3.467-4.851-7.651-5.07l-.072-.004-.07.018c-4.191,1.1-7.938,4.805-6.968,9.838,1.063,2.76,3.717,4.94,6.839,5.565.088.004.175.005.263.005Zm-.507-12.231c3.136.096,4.778,2.04,4.979,3.837.178,1.591-.735,3.709-3.877,4.495-1.776-.511-2.926-1.589-3.246-3.049-.384-1.754.455-3.812,2.143-5.282Z" stroke-width="0"/>
      <path d="m43.196,155.024c.499-.168.972-.328,1.364-.537h1.2l.187-.039c.913-.4.88-1.212.853-1.877l-.005-.13-.07-.107c-.445-.679-1.045-.903-1.575-1.102-.159-.06-.319-.119-.476-.193l-1.075-.044-.169.032c-.385.151-.796.277-1.213.407-1.513.472-3.228,1.005-4.105,2.73l-.05.202c-.024,1.068-.057,2.126-.091,3.181-.126,3.942-.245,7.667.153,11.602l.013.125.073.1c.451.623,1.119,1.079,1.882,1.284l.154.04.147-.061c.396-.167.79-.312,1.181-.458.582-.216,1.185-.439,1.77-.725.222-.053.404-.154.567-.247.189-.107.309-.181.429-.16l.093.007.089-.028c.972-.311,1.642-.989,1.888-1.912l.045-.168-.076-.156c-1.037-2.112-2.903-1.495-4.139-1.084-.471.156-1.118.372-1.271.235-.054-.049-.302-.374.027-2.118.984-.651,1.841-1.061,2.751-1.316.123-.06.26-.118.401-.177.863-.372,2.168-.932,1.975-2.328l-.015-.109-.063-.091c-.28-.407-.599-.668-.907-.919l-.107-.089-.138-.014c-1.265-.137-2.49.004-3.647.416-.046-.296-.022-.644.004-1.003.044-.611.094-1.295-.226-1.886.226-.623,1.213-.956,2.171-1.281Z" stroke-width="0"/>
      <path d="m34.231,157.772c-.304-1.088-1.239-2.472-3.978-2.884l-.111-.018-.106.035c-.259.086-.532.16-.807.235-.766.207-1.558.421-2.183.902l-.141.109-.033.174c-.808,4.302-1.224,13.91,1.411,17.7l.139.2h.999l.117-.077c.364-.242.764-.544.929-1.086l.059-.191-.237-.416c-.051-1.407-.034-2.87-.018-4.288.007-.586.014-1.174.017-1.763,2.492-2.158,4.676-6.003,3.944-8.631Zm-3.391,1.263c-.166.544-.337,1.026-.553,1.467-.013-.344-.018-.888-.025-1.816.304-.005.456.077.577.349Z" stroke-width="0"/>
      <path d="m81.108,149.384l-.014-.179-.132-.123c-.986-.926-1.794-1.24-2.476-.953-1.372.575-1.435,3.428-1.496,6.188-.031,1.382-.062,2.812-.291,3.328l-.039.179c-.032,1.379-.062,2.682.371,4.016l.071.137c.655.868,1.447,1.181,2.213,1.482l.24.074c.603.044,1.2.098,1.796.154,1.311.121,2.653.246,4.031.246.544,0,1.094-.019,1.649-.067l.165-.012.663-.642.023-.158c.117-.818-.048-1.507-.491-2.053-1.03-1.268-3.295-1.412-5.114-1.528-.367-.025-.711-.046-1.017-.075-.271-1.744-.205-3.665-.141-5.528.051-1.486.104-3.025-.011-4.486Z" stroke-width="0"/>
      <path d="m86.154,184.882l-.561.174c-2.785.858-3.149,10.351-3.297,20.849-.032,2.23-.059,4.154-.146,5.172l-.013.154.081.132c.255.411.678,1.093,1.484,1.093h.044l.154-.005.121-.096c.282-.225.635-.53.862-.898l.1-.318-.318-.544c-.024-3.742.403-7.621.816-11.373.503-4.575,1.024-9.305.713-13.752l-.04-.586Z" stroke-width="0"/>
      <path d="m38.445,112.93c5.656-1.528,12.499-1.614,18.795-.237l1.051.903.103.028c.133.033.257.053.374.053.224,0,.418-.065.578-.195.432-.346.407-.975.388-1.481l-.01-.318-.086-.118c-1.048-1.442-2.417-1.707-3.739-1.963-.521-.102-1.06-.205-1.578-.382l-.114-.025c-4.521-.365-9.317-.64-13.881.326l-.121.044c-.3.158-.629.281-.977.409-.503.188-1.024.381-1.5.702l-.104.07-.563,1.175,1.132,1.075.252-.068Z" stroke-width="0"/>
      <path d="m39.055,219.398c-.515.661-.957,1.367-.873,2.075.043.367.231.689.543.933l.126.1h.921l.121-.086c.597-.423.865-1.058,1.1-1.619.081-.193.161-.384.255-.567.504-.198.686.023,1.049.461.341.414.806.977,1.654.802l.185-.037.106-.158c.574-.853.596-.886,1.534-1.675l.189-.012c.1.077.198.186.301.298.306.335.725.793,1.554.654.283-.091.551-.288.836-.495.388-.286.724-.518.885-.433.438.512,1.17.725,2.017.575.804-.14,1.732-.63,1.992-1.412l.089-.268-.928-.958-.321.207c-.649.419-1.533.779-2.051.119l-.111-.14-.177-.03c-.598-.105-1.057.165-1.427.377-.213.125-.403.233-.593.268l-.999-.963-.168-.012c-.484-.035-.942-.028-1.36.026l-.189.067c-.464.291-.801.661-1.128,1.019-.201.219-.394.432-.604.607l-.868-.777-.221.037c-1.011.172-1.361-.188-1.842-.682-.514-.528-1.152-1.189-2.607-.944l-.139.046c-.721.372-1.532.846-2.02,1.723l-.054.158c-.03.198-.089.405-.148.616-.205.726-.485,1.723.432,2.47l.139.114.886-.046.101-.302c.088-.261.16-.549.233-.839.341-1.365.586-1.933,1.548-1.76.061.072.062.165.035.423l-.003.039Z" stroke-width="0"/>
      <path d="m33.855,42.726l.145-.028c3.93-.756,7.494-1.388,11.331-1.465l.482-.011-.055-.982-.1-.119c-.443-.528-1.003-.705-1.497-.86-.279-.089-.544-.172-.788-.312l-.196-.061c-2.524-.189-4.931.019-7.802.688l-.168.077c-.156.112-.38.17-.617.23-.378.098-.849.218-1.243.696-.182.321-.486.858-.316,1.382.099.304.33.54.689.702l.135.063Z" stroke-width="0"/>
      <path d="m53.89,190.638l-.009-.081-.665-.607-.144-.019c-.713-.102-1.215.112-1.658.296-.304.126-.572.237-.893.244l-.445-.282-.161.016c-1.154.116-1.553.93-1.684,1.86-.276-.384-.656-.479-.912-.542-.087-.023-.156-.039-.211-.06-.061-.207-.186-.379-.364-.496-.286-.193-.685-.221-1.068-.079l-.185.068-.079.181c-.8,1.823-.812,4.558-.259,5.519.214.372.486.475.675.498l.165.018.139-.089c.247-.16.411-.367.53-.591.277.16.551.398.836.646.561.484,1.185,1.026,1.969,1.026.133,0,.271-.016.413-.049l.192-.046.101-.17c.565-.954.534-2.018.504-3.046-.012-.426-.025-.832.007-1.212.014-.019.026-.039.038-.06.035.326.051.663.068,1.009.043.891.088,1.81.465,2.674l.09.207.218.056c.299.079.859.223,1.284-.375l.086-.119v-1.237c-.002-1.226-.004-2.51.022-3.71.035-.021.07-.04.105-.06.087-.047.185-.104.282-.168-.394,1.453-.4,3.523.223,4.193l.112.119.535.075.289-.033.716-.681-.018-.221c-.04-.482.029-.926.115-1.388.173.472.442.93.931,1.302l.156.118.193-.028c1.858-.27,2.678-2.188,3.337-3.728.055-.13.109-.242.163-.367-.09,1.275.421,2.696,1.279,3.133.16.081.365.149.606.149.59,0,1.391-.411,2.233-2.047l.051-.184c.059-.958.12-1.951-.535-2.782l-.161-.13c-2.111-1.04-2.961.249-3.171.668-.041.081-.063.175-.096.261l-.004-.007c-.284-.481-.62-.725-.999-.725h0c-.667,0-1.092.719-1.541,1.481-.168.286-.463.786-.638.935-.024-.135-.043-.293-.063-.449-.082-.667-.177-1.421-.682-1.798-.166-.125-.452-.254-.868-.189l-.13.023-.664.577c-.24.021-.543.146-.826.505Zm-5.805,3.954c.034-.051.064-.102.092-.153-.004.137-.011.268-.024.393-.024-.028-.046-.058-.068-.089v-.151Z" stroke-width="0"/>
      <path d="m57.473,219.437l.785.839.185.012c.638.037,1.072-.344,1.458-.682.242-.211.473-.414.748-.53.037.074.053.177.073.356.031.279.073.661.383.986l.143.149.207-.007c.848-.025,1.42-.637,1.457-1.561.044-1.121-.707-2.417-1.997-2.558l-.174-.019-.144.1c-.239.168-.534.221-.919.237l-1.014-.94-.133-.025c-.887-.165-1.777.089-2.511.709-.892.751-1.441,1.935-1.432,3.089l.041.246.525.447.937-.063.122-.223c.352-.637.882-1.146,1.447-1.677h.182c.057.165.018.402-.208.821l-.16.295Z" stroke-width="0"/>
      <path d="m39.437,208.257c-.419-.263-.535-.275-1.1-.226l-.129.011-.105.075c-.594.432-.915,1.058-.903,1.767.013.837.495,1.679,1.257,2.196l.114.077,1.907.04.745.711.098.072c.711.389,1.323.514,2.18.453l.158-.04c1.201-.544,1.762-.679,2.5.184l.107.111.134.04c.611.179,1.304.381,1.997.381.599,0,1.198-.151,1.746-.6l.579-.474-.681-.309c-.458-.211-.938-.212-1.401-.216-.532-.004-.993-.009-1.276-.268-1.018-1.328-1.944-1.514-3.399-.674-.716.186-.98-.118-1.496-.814-.237-.319-.506-.681-.868-.961l-.2-.156-.239.082c-.146.051-.3.118-.458.186-.639.277-.884.326-1.049.168v-1.681l-.218-.135Z" stroke-width="0"/>
      <path d="m52.021,180.789c-.345-.023-.671-.007-.99.007-.38.016-.742.033-1.104-.021-.318-.328-.815-.754-1.566-.616l-.135.025-.914.854c-1.447-.461-2.203-.098-2.432.419-.235.535.029,1.372,1.475,2.119l.108.054.121-.004c.114-.007.231,0,.348.004.352.009.767.021,1.152-.153.5.305,1.042.458,1.634.458s1.236-.154,1.933-.46c.204.107.464.172.814.104l.128-.026.631-.586v-1.146l-1.028-1.023-.175-.011Z" stroke-width="0"/>
      <path d="m32.179,201.564l-.204.091c-.354.249-.756.532-.907,1.075l-.057.205.117.175c.396.598,1.064.811,1.854.811,1.084,0,2.396-.398,3.546-.747.507-.154.987-.298,1.33-.368.642.032,1.175-.089,1.689-.209.433-.1.842-.189,1.295-.186l.149.002.124-.084c.088-.061.214-.109.348-.158.322-.119.763-.282.992-.788l.1-.219-.121-.207c-.18-.311-.469-.416-.661-.488-.08-.028-.163-.06-.193-.089l-.141-.137-.197.005c-.673.018-1.336.068-1.993.135l.073-.093v-2.453c.828-.847,1.81-2.13,1.607-3.84l-.017-.137-.087-.105c-.777-.942-1.57-1.367-2.413-1.293l-1.131.614-.048.184c-.124.47-.35,1.442-.467,2.617l-.011-.009-.174-.1c-.128-.042-.257-.058-.381-.074-.022-.002-.047-.005-.071-.009-.046-.73-.361-1.347-.644-1.9l-.037-.074.317-.837-.24-.214c-.513-.454-.982-.456-1.285-.379-1.074.277-1.734,1.918-2.371,3.719-.088.251-.165.472-.233.644-.047.023-.094.044-.141.067-.339.16-.723.344-1.042.679l-.118.125-.041.767.068.118c.217.382.503.619.903.746l.152.049.285-.105c.139.265.333.535.685.707l.13.061.737-.111.622-1.365.196-.139c.011-.002.024-.004.036-.004.028-.004.063-.007.096-.009v2.484l.151.139c.129.118.252.191.366.235-.196.037-.396.074-.592.111-.648.123-1.298.247-1.952.363Zm3.585-1.153c.196-.484.23-1.019.261-1.495.06-.933.139-1.33.67-1.468.011,1.067.162,2.186.564,3.196-.592.093-1.178.193-1.758.298.138-.13.234-.314.264-.532Z" stroke-width="0"/>
      <path d="m53.961,213.17l.169-.151c.16-.14.343-.168.651-.207.296-.039.654-.082.994-.309,1.959.218,3.461-.691,4.915-1.579.333-.202.667-.405,1.009-.596l.18-.102.046-.202c.091-.395-.032-.64-.152-.777-.294-.337-.778-.293-1.131-.258-.083.007-.161.016-.229.016h-.003l-.145.023c-.432.139-.85.358-1.254.568-.642.335-1.232.677-1.855.644-.246-.428-.639-.732-1.111-.849-.621-.154-1.304.021-1.831.47l-.116.151c-.311.642-.837,1.103-1.444,1.589-.185.04-.587-.061-.861-.132-.521-.135-1.014-.263-1.387.005-.136.098-.304.288-.329.635l-.011.151.08.128c.408.658,1.082.798,1.753.798.272,0,.543-.023.796-.046.393-.033.764-.063,1.043-.012l.222.04Z" stroke-width="0"/>
      <path d="m57.362,185.668c.693.718,1.544,1.139,2.367,1.486l.123.051.132-.021c.919-.147,1.623-.842,1.57-1.547-.017-.219-.161-.916-1.304-.989-.157-.142-.311-.312-.471-.489-.479-.532-1.082-1.189-1.962-1.153.011-.525-.078-1.242-.89-1.565l-.099-.04-.746.053-.094.056c-.913.532-1.251,1.546-.859,2.577.329.872,1.182,1.647,2.234,1.582Z" stroke-width="0"/>
      <path d="m34.383,186.587l-.762-.616-.211.04c-.859.161-.893.73-.882.9.044.737,1.2,1.53,1.845,1.574l.093.005.088-.03c1.105-.375,1.599-1.118,1.928-1.847,1.061.047,1.821-.54,2.507-1.072.04-.033.081-.065.121-.096.378.161.751.147,1.088.132.144-.005.29-.012.441-.004l.202.014.968-.903-.312-.34c-.399-.435-.811-.718-1.21-.991-.349-.239-.678-.465-.987-.786l-.103-.107-.145-.028c-.83-.158-1.496.086-1.832.674l-.052.137c-.083.404-.049.751.103,1.058-.106.149-.215.247-.344.314l-1.258-.633-.853.807.01.214c.036.751-.004,1.265-.296,1.586h-.146Z" stroke-width="0"/>
      <path d="m48.664,201.494l-.569-.572-.117-.033c-.786-.221-1.577-.049-2.175.475-.682.598-1.021,1.551-.884,2.486l.023.158.974.932.138.025c.171.032.315.023.441-.005,0,.172-.015.439-.043.895-.202.249-.244.544-.277.77-.028.193-.049.316-.114.382l-.09.091-.03.125c-.107.449-.137.928-.088,1.423l.064.195c.192.319.511.361.734.391l.174.032.151-.089c.614-.368.85-.958,1.059-1.479.084-.211.17-.428.288-.64l.056-.177c.027-.274.088-.568.148-.867.131-.646.267-1.312.161-1.947l-.486-.893.54-.57-.075-1.105Z" stroke-width="0"/>
      <path d="m64.03,196.173c-.401-1.246-9.407.832-9.497.86l-.089.035c-.073.04-.156.081-.242.123-.484.24-1.087.54-1.215,1.123-.073.328.026.663.293.996l.135.168.216.005c.043.002.085.002.128.002.907,0,1.749-.254,2.564-.502.731-.223,1.421-.432,2.147-.467l.111-.005.097-.054c.711-.407,1.743-.503,2.653-.589l.118-.025c2.255-.779,2.762-1.105,2.58-1.67Z" stroke-width="0"/>
      <path d="m44.735,191.181l-.139-.088c-.861-.539-2.203-.279-3.004.284l-.1.07-.437.919.141.398c-.424,1.144-.124,2.354.119,3.335l.116.475.386.418c.345.381.702.772,1.148,1.096l.122.089h.976l.802-.747-.016-.223c-.049-.665-.557-.958-.894-1.151-.045-.025-.091-.053-.135-.077l-.211-.482.561-.668-.003-.174c-.013-.795-.489-1.025-.803-1.177-.012-.005-.024-.011-.036-.018.069-.295.211-.579.444-.709.378-.014.699-.167.894-.428.202-.272.245-.621.121-.988l-.054-.156Z" stroke-width="0"/>
      <path d="m41.948,205.209l.062,2.284.617.684.132.035c.093.026.253.07.44.07.263,0,.582-.086.858-.423l.1-.123.005-.158c.037-1.189.037-2.6,0-3.774l-.033-.161c-.344-.851-.827-1.737-2.219-1.477l-.143.026-.103.104c-.212.218-.43.433-.649.649-.389.388-.785.781-1.179,1.198l-.093.098-.026.133c-.179.93.142,1.295.441,1.437.549.26,1.282-.151,1.79-.603Z" stroke-width="0"/>
      <path d="m53.445,206.883l.146.584,1.435-.779.064-.14c.118-.256.237-.509.355-.756,1.05-2.214,2.136-4.503-.296-5.761l-.196-.102-.387.165c-.409.165-.918.372-1.195.942l-.045.161c-.029.316-.071.514-.224.719l-.419.447.569.221c.01.018.03.072.043.109.064.186.185.532.653.677.103.021.203.026.298.026.073.002.136-.002.211-.005-.082.382-.276.768-.48,1.175-.364.723-.74,1.472-.531,2.316Z" stroke-width="0"/>
      <path d="m50.967,201.26l-.169-.018c-1.203-.125-1.473,1.223-1.616,1.944-.026.13-.05.253-.076.358l-.004.261.291.477c.003.293.004.589.004.888,0,.714.002,1.442.037,2.174l.007.165.667.742h.725l.132-.119c.324-.291.371-.628.406-.874.025-.181.041-.27.118-.358l.119-.132v-.177c.002-.484.01-.975.019-1.47.017-.979.034-1.989-.004-3.017l-.007-.181-.65-.663Z" stroke-width="0"/>
      <path d="m49.539,198.546c-.233.095-.507.205-.68.263l-.661-.507-.124-.016c-1.252-.161-2.175.214-3.178.825l-.203.125-.019.237c-.036.467.147.725.308.856.189.156.419.214.675.214.356,0,.763-.112,1.183-.226.316-.088.844-.214.934-.209l.486.305.18.067c.796.111,1.466-.232,2.053-.54.565-.298,1.053-.56,1.621-.44l.38.075.144-.36c.239-.598.079-.933-.097-1.109-.511-.511-1.52-.156-3.003.44Z" stroke-width="0"/>
    </g>
  </g>
</svg>