<?xml version="1.0" encoding="UTF-8"?>
<svg id="b" data-name="Layer 2" xmlns="http://www.w3.org/2000/svg" width="128.846" height="89.315" viewBox="0 0 128.846 89.315">
  <g id="c" data-name="Layer 1">
    <path d="m124.754.545c-4.228,1.656-7.677,2.796-10.863,3.593-6.082,1.505-12.255,2.951-18.572,4.421-4.206.974-8.413,1.956-12.61,2.965-4.926,1.177-9.845,2.391-14.761,3.605l-3.068.756c-3.195.788-6.39,1.577-9.588,2.349-1.081.267-2.44.496-3.351-.082-1.537-.954-2.76-.674-4.078.953-1.445,1.819-3.264,2.353-5.023,2.868-9.053,2.691-17.791,5.447-28.956,9.024-1.276.405-2.526.968-4.153,1.718l-.145.067c-.401.184-.818.377-1.257.575.147.118.287.233.424.344.69.567,1.19.974,1.608,1.035,1.579.258,3.174.309,4.864.361l1.702.054c1.463-2.365,3.928-2.509,5.92-2.625.874-.053,1.778-.105,2.569-.33,2.065-.579,4.129-1.005,6.612-1.5l.236-.046c1.003-.198,2.054-.407,3.169-.647l1.812-.389-17.167,30.101-.755-1.039c-.51-.682-1.107-1.358-1.724-2.047-1.824-2.051-3.703-4.167-3.867-7.514-.032-.642-.548-1.439-1.003-2.14-.188-.291-.375-.581-.544-.863-.461-.821-.929-1.142-2.137-.582,0,.188-.003.375-.007.56l-.004.244c-.018.846-.035,1.628.133,2.31,2.318,9.393,7.595,16.533,15.68,21.221,7.267,4.188,15.402,5.77,25.603,4.967,8.07-.616,16.143-2.967,24.683-7.182,5.46-2.707,12.304-6.642,16.792-13.091,1.768-2.546,3.229-5.363,4.642-8.088l.323-.616c.584-1.116,1.17-2.237,1.785-3.342l1.256-2.26c3.476-6.238,6.951-12.475,10.454-18.703.525-.939,1.084-1.844,1.658-2.767.82-1.318,1.55-2.51,2.177-3.737.555-1.093.708-1.842.497-2.432-.179-.511-.674-.979-1.474-1.398-.267.212-.554.458-.802.728-5.705,6.27-9.723,13.638-13.215,20.67l-.278.554-.615-.112c-7.062-1.228-12.681-4.639-18.631-8.249l-.377-.226c-2.196-1.325-4.467-2.695-6.833-3.951l-1.828-.96L126.526,3.999l-.464,1.467c-.281.888-.552,1.795-.827,2.716l-.139.467c-.739,2.479-1.505,5.04-2.464,7.577-1.281,3.381-2.651,6.782-3.977,10.072l-.071.175c-1.6,3.967-3.414,8.465-5.037,12.907-.287.784-.571,1.568-.853,2.353l-.425,1.177c-2.396,6.653-4.864,13.505-8.183,19.938-1.799,3.477-4.393,6.458-7.928,9.11-6.836,5.126-14.787,8.298-23.633,9.43-9.009,1.156-18.325,2.349-27.649,3.142-9.371.839-18.035-2.182-26.104-5.351-7.81-3.07-12.27-8.956-14.037-18.522-.554-3.019-.818-6.126-1.075-9.13-.12-1.421-.24-2.837-.394-4.242-.096-.928-.457-1.665-.989-2.023-.216-.144-.455-.218-.71-.218-.141,0-.271.016-.396.051-.418.119-.797.488-1.011.986-.232.54-.212,1.142.053,1.649,1.539,2.963,1.656,6.067,1.769,9.066.028.803.06,1.605.115,2.398.426,5.854,2.47,11.528,6.074,16.868,1.578,2.323,4.003,3.712,6.574,5.181l.702.407c.368.214.736.426,1.101.644,8.582,5.172,18.359,7.445,29.907,6.956,4.927-.216,9.937-.788,14.781-1.339l.355-.04c2.799-.321,5.972-.688,9.109-.965,7.416-.651,14.412-2.835,20.794-6.488,5.063-2.902,12.191-7.698,15.612-15.833,2.257-5.374,4.446-11.01,6.509-16.756.881-2.465,1.681-5.014,2.455-7.479l.028-.088c.864-2.758,1.734-5.537,2.72-8.237,1.219-3.33,2.551-6.681,3.839-9.919l.075-.191c1.225-3.079,2.612-6.57,3.857-9.961,1.127-3.084,1.866-6.017,2.196-8.716.104-.835.165-2.323-.6-2.909-.633-.507-1.85-.428-3.43.214Zm-48.35,23.97c2.275,1.833,4.951,3.419,7.312,4.817l1.753,1.049c3.189,1.937,7.15,3.935,12.369,4.082l1.275.032-.552,1.154c-.419.884-.84,1.735-1.25,2.565-.875,1.768-1.695,3.426-2.382,5.124-2.132,5.258-5.696,9.856-11.218,14.477-.143.121-.29.258-.439.396l-.108.1c-.749.723-1.868,1.8-3.496,1.539-1.186,2.033-3.248,2.76-5.075,3.402l-.203.074c-.454.165-.9.326-1.321.509-9.022,3.961-17.569,5.888-26.131,5.888-2.268,0-4.541-.135-6.757-.402-6.99-.833-13.22-3.805-18.514-8.833l-.572-.556.523-.588c6.776-7.847,12.607-17.533,18.345-30.48l.318-.7.721.26c.292.102.582.205.878.318l.577.228-.048.614c-.014.205-.023.416-.032.628-.025.509-.049,1.012-.14,1.512-.487,2.579-.988,5.146-1.493,7.723-1.03,5.281-2.199,11.266-3.153,17.051-.333,2.033-.425,4.184.963,6.275-.161-7.909,1.646-15.244,3.396-22.349,1.044-4.249,2.103-8.563,2.699-12.826l.072-.547.534-.146c4.314-1.114,8.09-2.096,12.042-3.125l.789-.195.218.777c.5,1.74.978,3.447,1.446,5.126.966,3.449,1.965,7.017,3.037,10.528,1.883,6.163,5.011,11.324,9.296,15.338l.07.067c1.814,1.702,3.68,3.456,6.356,2.919.007-.102.014-.207.021-.312l.361-.074-.355-.023c.016-.247.041-.618.045-.884-4.819-1.9-7.074-6.135-8.809-9.97-2.402-5.291-4.653-10.552-7.037-16.122l-.205-.479c-.963-2.247-1.947-4.544-2.964-6.896l-.437-1.005,1.088-.147c.382-.047.712-.075,1.002-.093.39-.033.703-.06.864-.14,4.839-2.395,9.388-1.656,14.32,2.321Z" stroke-width="0"/>
  </g>
</svg>