<?xml version="1.0" encoding="UTF-8"?>
<svg id="b" data-name="Layer 2" xmlns="http://www.w3.org/2000/svg" width="125.005" height="132.878" viewBox="0 0 125.005 132.878">
  <g id="c" data-name="Layer 1">
    <g>
      <path d="m.294,69.3c-.155-1.509-.255-2.984-.294-4.421" stroke-width="0"/>
      <path d="m1.856,52.462c.104-.279.213-.558.327-.833-.113.274-.223.553-.327.833Z" stroke-width="0"/>
      <path d="m5.067,46.539c.14-.189.283-.377.43-.561-.146.184-.289.372-.43.561Z" stroke-width="0"/>
      <path d="m120.416,89.354c-.103-.118-.21-.237-.313-.347-1.039-1.144-2.019-2.214-1.519-4.142.19-.723-.321-1.881-.917-2.705-.757-1.047-1.511-2.126-2.237-3.174-2.11-3.039-4.296-6.172-6.855-8.87-7.846-8.267-17.026-14.844-24.146-19.643-13.162-8.877-24.848-14.763-36.776-18.515-4.003-1.261-7.779-1.889-11.373-1.889-3.567,0-6.958.619-10.227,1.856-7.338,2.793-13.578,6.744-18.545,11.751-.733.74-1.391,1.514-2.013,2.303-.146.184-.289.372-.43.561-1.175,1.579-2.131,3.268-2.884,5.089-.114.275-.223.554-.327.833-.718,1.935-1.23,4.012-1.512,6.286.09-.768.132-1.579.277-2.3-.304,1.5-.468,3.063-.562,4.66.044-.73.175-1.384.252-2.086-.429,3.702-.307,7.889.346,12.721l.004.009c.262,5.323,1.658,12.979,6.803,19.279,3.872,4.744,7.981,9.003,12.214,12.654,8.017,6.933,17.525,12.749,30.829,18.858,4.201,1.93,8.524,3.84,12.998,5.486.054.021.107.04.161.06,2.567.94,5.192,1.767,7.865,2.481.938.251,1.884.477,2.833.691,1.944.44,3.92.791,5.925,1.058,1.534.204,3.09.346,4.665.428.848.046,1.684.126,2.543.133h.341c7.422,0,13.451-1.872,18.949-5.895l1.015-.753c1.805-1.326,3.665-2.691,5.605-3.881,6.918-4.235,10.393-9.052,11.273-15.637,1.007-7.568-.306-12.931-4.264-17.359Zm-2.035,10.077c-.103.619-.198,1.205-.19,1.721.091,7.426-2.852,12.368-9,15.098-1.503.658-2.797,1.912-4.046,3.125-.448.437-.912.881-1.377,1.302-4.332,3.856-9.242,5.974-15.455,6.665-1.872.205-3.753.309-5.649.309-7.64,0-15.562-1.705-24.49-5.244-9.949-3.935-21.488-8.974-31.679-16.51-8.766-6.489-16.938-13.184-20.568-23.714-2.943-8.528-3.523-16.898-1.725-24.871,1.507-6.688,6.287-10.893,11.226-14.447,1.111-.8,2.396-1.388,3.638-1.951.579-.27,1.178-.539,1.745-.825,8.338-4.244,17.307-4.57,27.442-1.007,10.821,3.8,20.675,9.337,28.886,14.256,9.513,5.703,18.786,12.145,27.756,18.382l2.007,1.388c1.983,1.381,3.701,3.205,5.363,4.967.73.777,1.488,1.579,2.257,2.333,3.38,3.307,3.768,6.647,1.194,10.21l-.043.054-.075-.023c-9.394-3.333-16.752,1.165-23.309,6.505-4.994,4.07-7.457,9.377-7.117,15.344.163,2.847.675,6.037,3.237,8.116,1.301,1.056,2.88,1.84,4.331,2.174.952.207,1.88-.079,2.4-.77.46-.602.492-1.372.091-2.11-5.165-9.424.639-15.215,6.252-20.817.325-.325.65-.651.972-.975,1.821-1.833,4.272-3.07,6.835-4.275,2.566-1.191,4.324-.826,5.355,1.181.032.072.067.167.095.254.016.047.036.104.052.135,1.269-.144,2.114.009,2.735.34.018.011.04.019.058.028.142.082.356.107.464.219.083.084.054.232.115.33.129.207.199.447.245.702.14.726.112,1.542-.028,2.403Z" stroke-width="0"/>
      <path d="m1.856,52.462c.104-.279.213-.558.327-.833" stroke-width="0"/>
      <path d="m1.856,52.462c-.165.446-.379.872-.52,1.326" stroke-width="0"/>
      <path d="m2.183,51.629c.177-.428.305-.874.508-1.293" stroke-width="0"/>
      <path d="m5.067,46.539c.14-.189.283-.377.43-.561" stroke-width="0"/>
      <path d="m5.497,45.978c.265-.337.494-.691.778-1.018" stroke-width="0"/>
      <path d="m5.067,46.539c-.253.339-.541.661-.774,1.011" stroke-width="0"/>
      <path d="m76.512,3.412c-.488,0-1.035.133-1.297.372-5.173,4.595-10.309,9.282-15.272,13.931-.734.691-1.114,1.428-1.135,2.191-.02.919.484,1.919,1.503,2.989.456-.237.94-.46,1.452-.689,1.186-.54,2.412-1.095,3.324-1.975,3.673-3.539,7.195-7.347,10.603-11.037l.52-.561c.758-.818,1.372-1.912,1.69-2.991.186-.619-.135-1.723-.587-2.047-.175-.119-.476-.182-.801-.182Z" stroke-width="0"/>
      <path d="m37.547,5.419c-1.789-2.214-3.986-4.944-7.438-3.793.753,1.063,1.5,2.079,2.225,3.07,1.69,2.317,3.285,4.498,4.701,6.8.696,1.139,1.182,2.393,1.727,3.621.051.116.111.225.162.34.303.695.689,1.356.975,2.044.242.579.48,1.151.726,1.721.75,1.746,1.643,3.309,4.189,3.309h.258c1.047-6.703-2.733-11.289-6.391-15.724-.381-.467-.761-.928-1.135-1.388Z" stroke-width="0"/>
      <path d="m52.962,3.619c-.167,1.791-.309,3.616-.448,5.386-.095,1.221-.191,2.451-.293,3.681-.036.405-.099.818-.159,1.214-.111.754-.226,1.532-.159,2.268.068.739.678,1.795,1.071,1.842.087.016.179.016.27.016.714,0,1.607-.326,2.225-.842.532-.435.956-1.372.964-2.126.04-3.593.004-7.228-.036-11.066-.012-1.293-.024-2.617-.036-3.991-3.205,1.579-3.209,1.588-3.399,3.619Z" stroke-width="0"/>
    </g>
  </g>
</svg>