<?xml version="1.0" encoding="UTF-8"?>
<svg id="b" data-name="Layer 2" xmlns="http://www.w3.org/2000/svg" width="328.401" height="384.649" viewBox="0 0 328.401 384.649">
  <g id="c" data-name="Layer 1">
    <g>
      <path d="m244.369,60.809c1.62-1.037,3.37-1.809,5.371-1.658.565.042,1.123.179,1.627.263,1.159,1.016,1.348,1.268,1.737,2.205.276.665.527,1.344.862,1.979,1.071,2.023,2.596,3.56,4.722,4.521,1.47.665,3.005.795,4.51.549,1.366-.223,2.691-.784,3.86-1.596.974-.679,1.914-1.409,2.901-2.067,1.87-1.249,3.855-2.281,5.96-3.084,2.538-.968,5.115-1.71,7.868-1.61,1.165.042,2.071.444,2.82,1.446,1.064,1.423,2.322,2.705,4.089,3.295.939.312,1.84.484,2.892.237,1.347-.316,2.468-.984,3.577-1.7,1.25-.807,2.494-1.618,3.863-2.207.9-.386,1.815-.751,2.751-1.032.574-.172,1.223-.304,1.802-.214,1.826.279,3.513,1.005,5.072,1.977,1.917,1.196,3.852,2.342,5.966,3.165,1.081.419,2.185.816,3.339.607,1.222-.221,2.466-.474,3.607-1.377.397-.739.926-1.584,1.323-2.488.671-1.53,1.225-3.102,1.54-4.756.219-1.149.504-2.289.822-3.416.26-.921.393-1.856.521-2.796.123-.905.317-1.805.371-2.714.035-.598-.123-1.209-.201-1.863.2-.432.609-.856.405-1.498-.657-.851-1.649-1.26-2.631-1.698-2.175-.97-4.417-1.765-6.647-2.593-1.945-.723-3.886-1.454-5.829-2.181-2.401-.898-4.843-1.682-7.345-2.225-2.143-.465-4.269-.972-6.356-1.639-2.439-.781-4.874-1.574-7.306-2.37-3.009-.988-6.005-2.005-8.916-3.263-1.94-.839-3.921-1.551-5.948-2.172-3.318-1.018-6.657-1.935-10.019-2.795-3.183-.814-6.379-1.56-9.581-2.289-2.096-.479-4.178-1.018-6.266-1.535-1.355-.335-2.695-.753-4.065-1.005-2.086-.384-4.12-.967-6.154-1.537-2.429-.684-4.822-1.495-7.238-2.226-2.632-.795-5.269-1.574-7.912-2.335-1.448-.416-2.911-.781-4.366-1.174-1.965-.53-3.927-1.067-5.893-1.593-1.529-.411-3.06-.812-4.591-1.218-1.457-.384-2.91-.784-4.373-1.147-.77-.191-1.553-.337-2.335-.477-1.457-.26-2.921-.479-4.376-.753-1.448-.274-2.889-.584-4.331-.891-.961-.204-1.916-.43-2.875-.64-1.514-.333-3.029-.663-4.544-.991-1.661-.361-3.321-.728-4.985-1.077-.964-.202-1.934-.374-2.901-.561-1.076-.209-2.155-.405-3.228-.632-1.923-.405-3.841-.833-5.762-1.242-.817-.174-1.656-.267-2.447-.516-.341-.109-.66-.156-1.002-.184-1.203-.095-2.347.212-3.51.446-1.491.3-3.012.453-4.503.754-2.078.418-4.143.905-6.21,1.381-1.73.4-3.456.814-5.15,1.361-3.702,1.198-7.397,2.419-11.13,3.512-2.464.721-4.924,1.468-7.461,1.942-1.626.305-3.202.875-4.801,1.325-3.201.9-6.41,1.772-9.601,2.703-2.428.709-4.828,1.512-7.251,2.237-2.93.877-5.877,1.696-8.806,2.577-2.06.619-4.122,1.242-6.146,1.968-3.239,1.163-6.43,2.461-9.674,3.609-3.704,1.311-7.45,2.505-11.167,3.781-1.786.612-3.553,1.279-5.322,1.942-2.617.981-5.241,1.937-7.904,2.795-4.277,1.377-8.519,2.861-12.716,4.474-2.471.947-4.96,1.858-7.475,2.682-2.367.777-4.783,1.402-7.167,2.125-4.215,1.281-8.241,3.03-12.179,4.986-.575.288-1.175.646-1.578,1.128-1.287,1.537-2.195,3.309-2.883,5.189-.129.353-.232.725-.286,1.098-.218,1.514-.711,2.933-1.374,4.305-.43.889-.81,1.802-1.214,2.703-.689,1.532-.728,3.017.244,4.467.274.409.489.865.674,1.321.269.667.453,1.367.734,2.026.383.9.907,1.693,1.958,1.988.62-.112,1.249-.002,1.919-.186,2.124-.579,3.993-1.665,5.86-2.744,2.345-1.356,4.792-2.461,7.367-3.272.897-.281,1.844-.461,2.78-.549.586-.054,1.197.149,1.664.219,1.028.693,1.425,1.656,1.813,2.616.49,1.218,1.15,2.31,2.041,3.289.884.972,2,1.521,3.044,1.97,1.583.237,2.846-.226,3.977-1.114.664-.521,1.36-1.014,1.966-1.596.724-.696,1.342-1.502,2.05-2.214,1.116-1.123,2.355-2.095,3.764-2.832.299-.158.623-.33.948-.358,2.024-.182,3.948.123,5.442,1.621,1.318,1.323,2.821,2.382,4.371,3.377,2.194,1.409,4.435,1.516,6.617-.056,1.243-.896,2.448-1.846,3.674-2.767,1.5-1.125,3.092-2.088,4.932-2.54.421-.104.909-.074,1.338.023,1,.221,1.81.842,2.491,1.553,1.141,1.191,2.227,2.439,2.923,3.972.377.83.953,1.488,1.759,1.768,1.766.244,3.275-.251,4.665-1.128.678-.428,1.351-.902,1.911-1.468,1.828-1.853,3.592-3.767,5.404-5.635.426-.439.915-.832,1.425-1.17,1.431-.953,3.046-1.309,4.714-1.033,1.85.304,3.32,1.389,4.501,2.8,1.243,1.484,2.467,2.982,3.899,4.295.649.595,1.333,1.137,2.139,1.535,1.163.572,2.35.961,3.641,1.207,1.729.33,3.359.158,4.942-.432,1.346-.502,2.666-1.125,3.911-1.842,2.241-1.293,4.368-2.793,6.808-3.714,1.268-.477,2.548-.93,3.849-1.305,1.051-.302,2.132-.519,3.215-.681,1.153-.172,2.312-.009,3.426.298.973.27,1.635,1.026,2.251,1.772,1.205,1.458,2.339,2.977,3.9,4.095,1.322.946,2.791,1.565,4.399,1.728,2.184.221,4.258-.265,6.176-1.328,1.498-.83,2.969-1.71,4.441-2.588.274-.163.511-.372.819-.389.103,2.13.204,4.214.304,6.298.006.116-.012.237.011.349.299,1.432.424,2.888.427,4.337.005,2.398.139,4.798-.167,7.2-.167,1.305-.071,2.646-.051,3.97.04,2.712.009,5.419.18,8.135.264,4.181-.118,8.381.247,12.573.253,2.893-.025,5.809.216,8.719.139,1.679.132,3.391-.109,5.098-.165,1.167-.166,2.391.153,3.57-.134,3.456.166,6.9.272,10.347.055,1.775-.128,3.547.185,5.328.187,1.058.011,2.177.05,3.267.039,1.072.188,2.142.208,3.216.036,1.868.032,3.74.005,5.609-.059,4.151-.206,8.303-.194,12.454.011,3.41-.109,6.821.145,10.238.175,2.346.168,4.717.284,7.077.072,1.463-.01,2.923.191,4.396.186,1.365.123,2.768.262,4.154.142,1.419-.058,2.853.214,4.281.157.828.019,1.71.06,2.565.043.881.159,1.758.212,2.637.095,1.54.166,3.082.247,4.623.004.077-.014.16.008.232.353,1.147.297,2.349.425,3.523.167,1.532.182,3.079.263,4.619.002.04-.01.082.004.118.484,1.209.083,2.509.416,3.758.221.828.138,1.746.231,2.626.206,1.954.201,3.932.28,5.902.013.311-.058.642.026.932.366,1.267.215,2.582.416,3.867.189,1.211.182,2.453.261,3.679.005.077.004.158.031.226.346.909.239,1.882.409,2.819.184,1.016.151,2.067.278,3.093.188,1.51.493,3.009.639,4.523.146,1.496.123,3.007.211,4.51.204,3.444.263,6.9.264,10.351,0,2.667.249,5.34-.176,8.007-.133.837.002,1.712-.035,2.568-.038.881-.195,1.758-.191,2.637.004.958.131,1.916.205,2.874.053.686.051,1.365.174,2.06.144.807.226,1.695-.136,2.475.066.289.171.546.173.805.004.333.141.57.316.84.613.953,1.485,1.428,2.585,1.41,1.032-.019,2.061-.144,3.174-.228.314-.539.76-1.03.899-1.595.382-1.549.386-3.154.219-4.728-.056-.523-.126-1.058-.183-1.589-.057-.53-.172-1.054-.204-1.586-.12-1.968-.021-3.939-.2-5.914-.248-2.735-.195-5.496-.297-8.245-.047-1.27-.07-2.551-.273-3.798-.112-.689-.049-1.403-.239-2.046-.149-.503-.137-.984-.192-1.475-.059-.528-.184-1.051-.221-1.579-.099-1.46-.168-2.921-.248-4.382-.002-.039.011-.081-.003-.116-.48-1.207-.194-2.5-.403-3.751-.27-1.623-.096-3.302-.243-4.965-.259-2.926.159-5.888-.276-8.821-.073-8.63.189-17.263-.239-25.891-.013-.27.079-.582-.022-.811-.449-1.021.043-2.161-.439-3.167-.028-1.658-.087-3.312-.195-4.97-.236-3.637.165-7.295-.257-10.937-.159-1.375-.1-2.772-.177-4.161-.158-2.86-.076-5.733-.311-8.596-.082-.995.036-1.991-.187-2.996-.173-.781-.025-1.63-.066-2.446-.04-.802-.163-1.6-.207-2.402-.122-2.24.102-4.481-.2-6.73-.23-1.712-.007-3.467-.246-5.205-.21-1.521-.075-3.072-.206-4.619-.218-2.575-.06-5.177-.253-7.77-.167-2.247,0-4.517-.046-6.777-.047-2.281.032-4.556-.175-6.845-.253-2.807.099-5.653-.281-8.47-.005-6.817-.006-13.635-.023-20.452-.002-.842.113-1.693-.168-2.53-.093-.277-.101-.665.023-.916.211-.421.152-.837.141-1.253-.095-3.763.228-7.53-.163-11.291-.111-1.067.087-2.153.143-3.226.19-3.679-.096-7.372.263-11.052.105-1.081.015-2.179.023-3.27.002-.298.034-.595.054-.918,1.046,0,2.02-.037,2.989.011.902.044,1.767.312,2.33,1.063.452.603.831,1.277,1.158,1.96.757,1.581,1.705,2.977,3.17,4.012,2.012,1.423,4.153,2.332,6.675,2.332,2.094.002,3.866-.784,5.506-1.942,2.025-1.43,3.838-3.116,5.596-4.861.27-.268.597-.479.893-.725,2.066-1.71,4.594-2.239,7.116-2.782.37-.081.738-.181,1.112-.226.382-.049.801.044,1.153-.077,1.099-.377,2.118-.044,3.114.309,1.017.358,1.89.981,2.649,1.765,1.002,1.035,2.028,2.049,3.046,3.067,1.067,1.068,2.41,1.667,3.846,1.907,1.525.254,3.048-.063,4.517-.56,2.399-.812,4.573-2.068,6.673-3.449,1.662-1.093,3.225-2.337,4.899-3.407ZM173.889,3.747h-.554c.329-.281.475-.289.554,0Zm-12.163,1.037c1.139-.619,2.249-1.293,3.412-1.967.762,1.058,2.003,1.039,3.061,1.37,1.732.542,3.425,1.163,5.118,1.818,1.887.73,3.607,1.767,5.366,2.712,2.997,1.609,5.952,3.303,8.907,4.991,3.064,1.751,5.988,3.716,9.023,5.505,1.085.64,2.01,1.546,3.069,2.235,2.108,1.377,4.239,2.719,6.395,4.019,2.616,1.575,5.264,3.098,7.908,4.628.557.323,1.164.558,1.738.853,2.727,1.402,5.42,2.874,8.186,4.195,3.103,1.481,6.234,2.903,9.316,4.428,2.103,1.04,4.227,2.035,6.333,3.068,1.726.846,3.46,1.681,5.151,2.595,1.235.665,2.407,1.449,3.605,2.184.374.23.74.472,1.258.805-.298.084-.423.146-.551.151-.389.018-.779.007-1.168.018-2.709.081-5.418.198-8.128.237-2.687.04-5.379.1-8.062-.025-3.578-.167-7.153-.211-10.732-.174-.684.007-1.367-.114-2.068.135-.383.135-.89-.13-1.343-.133-3.817-.026-7.641.107-11.45-.077-7.463-.363-14.931.063-22.386-.232-8.876-.351-17.751-.037-26.624-.202-1.816-.033-3.639-.281-5.442-.172-2.284.139-4.579.018-6.842.246-1.901.193-3.796.023-5.679.2-4.032.381-8.076.025-12.102.26-1.856.109-3.72.028-5.558.228-1.313.144-2.636.028-3.922.226-1.78.275-3.565.04-5.328.23-3.489.374-6.981.095-10.47.211-.225.007-.451,0-.735-.158.427-.268.868-.519,1.279-.811,1.312-.928,2.606-1.881,3.922-2.802,1.315-.921,2.633-1.84,3.98-2.714,2.283-1.482,4.472-3.091,6.604-4.779,1.567-1.24,3.117-2.502,4.681-3.747,2.224-1.768,4.443-3.544,6.682-5.293,3.174-2.482,6.312-5.016,9.566-7.389,2.868-2.093,5.878-3.991,8.821-5.982,1.874-1.268,3.683-2.617,5.423-4.07,1.499-1.253,3.093-2.395,4.682-3.533,1.646-1.177,3.32-2.316,5.103-3.288Zm-1.988-.798c.025.049.051.1.076.151-.115.019-.23.039-.345.06.089-.07.179-.14.269-.211ZM32.294,47.127c2.462-1.167,5.022-2.126,7.541-3.174,1.154-.479,2.326-.919,3.469-1.425,2.847-1.256,5.708-2.486,8.515-3.828,3.287-1.572,6.727-2.709,10.153-3.916,3.775-1.332,7.546-2.674,11.337-3.956,3.289-1.112,6.62-2.098,9.928-3.153,4.14-1.321,8.263-2.686,12.323-4.247,2.005-.77,4.104-1.303,6.17-1.91,2.717-.796,5.45-1.54,8.164-2.347,2.642-.784,5.273-1.607,7.902-2.433,2.809-.882,5.596-1.833,8.417-2.675,3.075-.916,6.188-1.702,9.263-2.616,2.711-.807,5.425-1.626,8.079-2.598,2.696-.989,5.415-1.902,8.15-2.767,2.13-.674,4.282-1.261,6.485-1.661.394-.072.768-.239,1.18-.189-.386.461-.962.633-1.451.933-2.051,1.254-4.131,2.461-6.168,3.735-3.46,2.163-6.888,4.374-10.343,6.545-2.886,1.814-5.646,3.798-8.352,5.87-2.126,1.626-4.346,3.132-6.505,4.716-2.472,1.814-4.96,3.609-7.371,5.5-1.901,1.493-3.856,2.898-5.84,4.275-1.983,1.375-3.923,2.819-5.817,4.316-2.982,2.354-5.936,4.742-9.032,6.947-.407.291-.867.57-1.143.965-.266.382-.325.907-.507,1.465-.614.084-1.362.277-2.111.279-3.608.009-7.206.416-10.817.253-.95-.042-1.914.025-2.846-.119-.514-.077-.939.144-1.422.119-.893-.047-1.791-.004-2.687.004-5.632.04-11.26.372-16.895.26-2.546.374-5.117.04-7.661.256-1.428.121-2.87.032-4.27.242-1.395.211-2.775.168-4.161.175-4.791.025-9.582.002-14.373.012-1.807.005-3.599.225-5.395.419-1.106.121-2.236.023-3.362-.04,3.97-1.03,7.758-2.482,11.453-4.231Zm145.169,138.55c.261,1.119.114,2.233.204,3.346.043.53.144,1.054.215,1.584.067.488-.143,1.014.204,1.468.04.053.02.153.025.23.08,1.305.208,2.609.229,3.916.033,2.126.411,4.239.251,6.372.317,1.014.068,2.091.269,3.089.304,1.509.028,3.017.22,4.503.209,1.619.199,3.233.21,4.853.478.884.004,1.914.438,2.814.093.191.024.46.026.695.004.623-.002,1.246.011,1.868.077,4.072.015,8.152.289,12.209.18,2.675-.046,5.353.217,8.005.25,2.517-.021,5.042.229,7.537.366,3.647.067,7.288.182,10.928.011.337-.072.675-.133,1.191.28.83.23,1.912.065,2.912-.186,1.128-.244,2.261-.097,3.342.18,1.318.058,2.625.18,3.93.191,2.044.181,4.095.281,6.14.033.675.123,1.37.18,2.056.054.647.159,1.289.233,1.935.018.153.003.311.003.502-.674.398-1.2-.34-1.888-.082,0-.596.016-1.021-.003-1.444-.075-1.696-.128-3.395-.257-5.088-.06-.789-.289-1.565-.416-2.351-.091-.563-.071-1.128-.215-1.703-.22-.881-.194-1.823-.29-2.737-.06-.567-.154-1.13-.226-1.695-.068-.526.133-1.089-.209-1.582-.038-.056-.015-.153-.019-.232-.079-1.502-.171-3.003-.231-4.507-.094-2.36-.061-4.73-.274-7.077-.328-3.607-.108-7.214-.21-10.819-.071-2.512-.007-5.04-.276-7.531-.18-1.667,0-3.332-.21-4.97-.258-2.009-.063-4.024-.254-6.017-.103-1.077-.032-2.168-.222-3.216-.239-1.312-.042-2.633-.236-3.919-.186-1.233-.028-2.482-.241-3.681-.234-1.318-.04-2.63-.217-3.924-.189-1.384-.077-2.784-.264-4.149-.116-.849-.14-1.684-.172-2.526-.092-2.439-.055-4.888-.294-7.31-.149-1.509.036-3.037-.235-4.505-.247-1.335.028-2.689-.354-4.007-.136-.467-.024-1.005-.036-1.512-.087-3.528-.037-7.067-.309-10.58-.222-2.872-.113-5.733-.163-8.598-.05-2.844.009-5.688-.029-8.53-.024-1.775-.168-3.547-.207-5.321-.039-1.753.155-3.524-.054-5.253-.301-2.482-.128-4.954-.179-7.43-.051-2.491-.015-4.984-.016-7.477-.001-4.44.126-8.886-.034-13.319-.209-5.789.012-11.584-.249-17.361-.234-5.17-.15-10.331-.113-15.494.016-2.277.045-4.574.238-6.842.122-1.432.279-2.877.101-4.272-.193-1.516-.278-3.035-.104-4.509.219-1.861.066-3.712.204-5.684.313-.179.605-.346.958-.547.342.379.411.8.411,1.263,0,1.596-.08,3.202.039,4.789.386,5.123.157,10.251.198,15.377.041,5.102-.09,10.207.05,15.305.083,3.021.207,6.044.208,9.066.394,1.486.08,3.01.243,4.502.443,4.068-.005,8.152.261,12.214.151,2.284-.006,4.577.239,6.838.189,1.744-.018,3.488.211,5.202.353,2.633.145,5.263.193,7.893.048,2.609-.088,5.224.056,7.826.088,1.581.027,3.179.245,4.733.174,1.24.144,2.461.166,3.689.039,2.26-.009,4.519.032,6.777.036,1.932.031,3.875.254,5.788.253,2.17.084,4.337.212,6.5.046.763.165,1.523.203,2.286.039.777-.116,1.589.056,2.33Zm53.48-120.805c-1.256.407-2.535.605-3.818.118-.386-.147-.766-.344-1.105-.581-1.011-.709-1.95-1.502-2.856-2.346-1.107-1.03-2.503-1.725-3.951-1.896-1.506-.179-3.061-.161-4.619.091-1.387.225-2.753.547-4.129.807-1.099.207-2.163.653-3.209,1.075-1.853.747-3.503,1.849-5.124,3.009-1.394.996-2.753,2.063-4.344,2.749-1.442.623-2.877,1.002-4.523.67-1.408-.284-2.762-.589-3.896-1.472-.694-.54-1.334-1.177-1.889-1.86-.771-.949-1.284-2.081-2.103-3.01-.76-.863-1.67-1.421-2.779-1.661-2.069-.451-4.168-.207-6.254-.221-.515-.004-1.046.177-1.546.349-1.176.404-2.344.837-3.503,1.289-.49.191-.961.44-1.421.698-.831.467-1.641.968-2.47,1.439-1.718.975-3.432,1.953-5.327,2.57-1.925.626-3.839.637-5.724-.077-.907-.344-1.591-1.068-2.278-1.73-.836-.805-1.575-1.709-2.383-2.542-.728-.751-1.565-1.381-2.54-1.767-.593-.233-1.236-.388-1.87-.465-1.548-.186-3.1.03-4.617.254-2.388.353-4.744.916-7.047,1.663-1.834.596-3.653,1.237-5.368,2.13-.879.456-1.751.93-2.61,1.423-1.702.977-3.501,1.426-5.483,1.321-1.522-.079-2.948-.365-4.237-1.177-.671-.423-1.292-.882-1.831-1.521-1.593-1.888-3.32-3.674-5.439-4.984-1.001-.619-2.151-.96-3.355-.998-.622-.021-1.246-.012-1.869-.011-2.28.011-4.177.988-5.95,2.319-1.688,1.27-2.927,2.951-4.314,4.505-1.255,1.407-2.51,2.861-4.305,3.639-.441.191-.933.265-1.454.407-.366-.5-.714-.911-.993-1.365-.87-1.416-1.845-2.763-3.047-3.902-.905-.856-1.896-1.612-3.193-1.926-.86-.207-1.729-.274-2.522-.102-2.009.437-3.866,1.295-5.599,2.428-1.561,1.021-3.172,1.967-4.545,2.812-1.306.258-2.146-.268-2.927-.805-1.514-1.042-2.953-2.189-4.454-3.253-.999-.707-2.12-1.149-3.307-1.498-1.694-.498-3.164.061-4.606.749-1.94.926-3.696,2.139-5.345,3.54-1.366,1.16-2.682,2.423-4.428,3.198h-.964c-1.391-.726-2.273-1.907-2.957-3.274-.555-1.109-1.249-2.116-2.193-2.944-.901-.789-1.917-1.203-3.128-1.258-2.116-.095-4.05.598-5.966,1.318-2.711,1.021-5.209,2.481-7.699,3.947-.754.446-1.514.888-2.296,1.277-.742.372-1.518.672-2.279,1.003-.282-.133-.518-.247-.743-.354-.915-1.516-.918-3.382-1.994-4.891.223-.328.457-.67.689-1.014,1.219-1.8,2.216-3.721,2.944-5.761.287-.807.643-1.626.63-2.532-.004-.288.161-.577.268-.932,1.085,0,2.168,0,3.249-.002,1.325-.004,2.664.112,3.971-.042,3.139-.37,6.28-.132,9.419-.172,1.502-.021,3.007.189,4.51.181,1.815-.009,3.64-.046,5.439-.253,1.001-.116,2.014-.047,2.986-.228,1.158-.214,2.319-.068,3.459-.218,3.019-.395,6.045-.156,9.067-.209,3.038-.053,6.085.121,9.113-.054,3.22-.186,6.438-.095,9.652-.226.858-.035,1.755-.247,2.578-.114,1.436.233,2.867.198,4.282.116,4.053-.235,8.117-.007,12.159-.254,2.717-.165,5.436.039,8.132-.219,2.132-.204,4.265-.025,6.379-.23,1.233-.118,2.481-.035,3.687-.233,1.199-.196,2.403-.037,3.572-.225,1.428-.23,2.867-.046,4.273-.235,2.479-.333,4.959-.109,7.435-.2,3.177-.116,6.353-.312,9.534-.239,1.996-.4,4.032-.042,6.023-.279,1.706-.202,3.416-.277,5.093-.118,2.756.265,5.515.265,8.251.112,4.856-.274,9.709-.116,14.563-.172,4.907-.06,9.816-.007,14.725-.004,4.87.002,9.739-.028,14.608.016,3.11.026,6.216.246,9.331.232,9.194-.04,18.387-.005,27.58-.026,1.541-.004,3.082-.17,4.624-.212,1.518-.04,3.046.075,4.556-.042,5.045-.395,10.096-.053,15.142-.209,1.541-.047,3.099-.039,4.615-.274,1.084-.168,2.151-.172,3.227-.177,3.661-.016,7.333-.163,10.982.053,3.417.202,6.825.126,10.238.184,1.48.026,2.961.018,4.44-.023,1.23-.033,2.458-.163,3.689-.205,1.207-.039,2.428.093,3.62-.049,3.37-.402,6.747-.077,10.116-.214.875-.035,1.757-.14,2.615-.312.656-.132,1.281-.419,1.898-.632.103-.779-.416-1.102-.86-1.323-.46-.23-.996-.368-1.564-.274-1.539.254-3.102.389-4.623.719-2.211.479-4.454.296-6.67.5-2.793.256-5.578.121-8.366.168-2.765.044-5.542.153-8.295-.039-4.856-.339-9.708-.126-14.561-.17-1.228-.011-2.457.17-3.688.211-1.246.042-2.5-.068-3.739.037-4.966.421-9.94.095-14.908.202-.582.014-1.164.002-1.802.002.317-.891.081-1.503-.724-1.986-.918-.549-1.822-1.046-2.879-1.333-1.232-.335-2.416-.868-3.592-1.384-2.312-1.011-4.57-2.158-6.913-3.089-3.881-1.544-7.553-3.512-11.221-5.468-3.205-1.709-6.378-3.503-9.402-5.547-2.945-1.991-5.996-3.824-9.002-5.726-2.899-1.833-5.787-3.688-8.704-5.493-3.254-2.016-6.545-3.972-9.801-5.982-2.348-1.451-4.81-2.684-7.238-3.986-2.545-1.367-5.248-2.358-7.864-3.553-.459-.211-.933-.43-1.249-.861.263.007.542-.039.78.04,2.232.735,4.527,1.179,6.832,1.609,2.381.444,4.757.919,7.132,1.4,2.481.5,4.948,1.068,7.415,1.633,1.324.304,2.63.688,3.953.996,1.325.309,2.664.556,3.99.856,1.51.342,3.018.689,4.517,1.074,3.102.798,6.149,1.81,9.246,2.603,4.206,1.077,8.337,2.379,12.474,3.674,2.803.879,5.639,1.653,8.465,2.46,2.209.632,4.403,1.344,6.645,1.826,1.885.405,3.772.814,5.656,1.226,1.731.379,3.442.847,5.164,1.263.881.212,1.763.43,2.655.588,1.973.347,3.911.835,5.848,1.344,2.589.679,5.202,1.27,7.791,1.949,3.609.949,7.199,1.944,10.654,3.398,2.184.918,4.433,1.703,6.698,2.405,2.343.725,4.646,1.563,6.977,2.309,2.148.688,4.337,1.277,6.562,1.744,2.8.584,5.603,1.23,8.28,2.288,1.862.737,3.716,1.495,5.57,2.251,2.692,1.096,5.381,2.202,8.065,3.3-.897,4.072-1.765,8.231-2.078,12.461-.578.947-1.127,1.907-1.739,2.828-.38.57-.853,1.081-1.224,1.542-1.709.309-3.079-.354-4.41-.979-1.936-.907-3.796-1.975-5.709-2.935-1.096-.549-2.258-.902-3.504-.944-.492-.018-.978-.191-1.469-.202-2.174-.044-4.216.521-6.146,1.479-1.498.744-2.961,1.556-4.441,2.335-.269.142-.56.244-.822.396-1.088.632-2.181.521-3.284.054-.71-.3-1.333-.723-1.926-1.219-.842-.705-1.654-1.482-2.796-1.709-.259-.051-.514-.165-.772-.17-1.052-.019-2.108-.07-3.154.009-1.097.084-2.214.193-3.268.484-1.456.404-2.943.656-4.396,1.081-1.822.533-3.578,1.191-5.292,1.989-1.753.816-3.513,1.619-5.262,2.446-2.492,1.175-5.505-.146-6.535-1.935-.494-.858-1.088-1.661-1.53-2.544-.49-.977-1.102-1.839-1.891-2.588-.872-.826-1.9-1.272-3.107-1.291-.429-.007-.858.009-1.285-.016-2.266-.13-4.27.688-6.154,1.798-2.429,1.432-4.827,2.912-7.314,4.246-1.575.846-3.135,1.709-4.842,2.26Z" stroke-width="0"/>
      <path d="m222.428,352.049c-.076-.558-.155-1.132-.417-1.702-.223-.488-.419-.984-.617-1.482-.277-.698-.564-1.421-.922-2.116-2.271-4.402-4.363-7.951-6.584-11.172-.762-1.103-1.472-2.281-2.158-3.417l-.343-.567c-1.092-1.805-2.221-3.672-3.478-5.433-.629-.881-1.221-1.818-1.793-2.725-.461-.733-.924-1.465-1.41-2.179-.482-.709-.991-1.4-1.5-2.091-.699-.949-1.421-1.932-2.053-2.935-.771-1.228-1.562-2.44-2.354-3.654-1.352-2.072-2.75-4.214-4.01-6.388-.951-1.64-2.125-3.312-3.589-5.109-.967-1.188-1.868-2.4-2.822-3.684-.27-.363-.541-.728-.816-1.096l2.444-.542c.742-.16,1.489-.3,2.235-.44,1.3-.246,2.646-.496,3.958-.867,1.975-.556,3.924-1.151,5.403-1.607.993-.307,2.023-.574,3.018-.832.833-.216,1.666-.433,2.491-.674.551-.161,1.092-.36,1.632-.558.575-.211,1.169-.428,1.758-.589,1.255-.342,2.56-.814,3.988-1.442l.583-.254v-.311c0-.451-.032-.895-.085-1.339l1.734.854.149.046c.236.032.47.046.703.046,1.092,0,2.172-.333,3.282-1.014l.138-.128c.604-.842.475-1.718.295-2.388-.284-1.056-.811-1.96-1.32-2.833-.114-.196-.228-.391-.339-.589-.146-.258-.304-.509-.468-.772l-.361-.581h-.949l-.401.042-.078.381c-.038.114-.109.328.008.547.206.393.421.781.635,1.168l1.493,2.751v.637c-.312.361-.754.586-1.3.865-.125.063-.251.128-.381.196h-2.959c-.286-1.521-.884-3.039-1.84-4.647l.594-.74-1.828-.807-.59.147c-.273.072-.532.14-.795.181-.782.119-1.42.195-2.006.239-.439.032-.881.049-1.322.065-.773.03-1.572.06-2.359.174-.481.07-.964.109-1.446.149-.648.053-1.318.105-1.98.233l-.687.13c-1.127.212-2.292.432-3.428.719-1.498.377-3.241.809-4.978,1.153-.818.163-1.63.368-2.44.572l-.129.033c-1.46.37-3.017.751-4.603.995-1.934.3-3.792.889-5.512,1.482-.245.086-.492.161-.738.237l-.037.012c-1.227-1.516-2.418-3.224-3.732-5.351-.628-1.016-1.309-2.018-1.968-2.986-.471-.691-.941-1.382-1.396-2.084-.672-1.037-1.329-2.082-1.986-3.128-.539-.86-1.08-1.718-1.628-2.572-.454-.709-.918-1.407-1.382-2.109-.492-.742-.983-1.482-1.462-2.233-.593-.928-1.175-1.865-1.755-2.803-.397-.64-.796-1.282-1.197-1.921-.291-.463-.587-.923-.883-1.382-.428-.663-.856-1.328-1.268-2.003-.257-.419-.496-.851-.735-1.281-.285-.512-.569-1.025-.882-1.519-.583-.925-1.183-1.839-1.783-2.753-.476-.725-.952-1.451-1.42-2.181-.629-.981-1.243-1.972-1.857-2.963l-1.593-2.565c-.574-.928-1.149-1.856-1.734-2.777-1.192-1.874-2.384-3.749-3.61-5.602-.458-.689-.945-1.361-1.432-2.033-.283-.388-.565-.777-.842-1.17-.978-1.393-1.947-2.789-2.917-4.186-.195-.281-.384-.567-.555-.825l-.102-.154c.122-.786.323-1.56.518-2.31.284-1.096.579-2.232.626-3.396l.004-.098-.035-.091c-.163-.428-.383-1.003-.99-1.311v-.896l-.907-.66-1.119-.17c-.793-.125-1.547-.242-2.305-.326-.318-.035-.623.016-.921.065l-.092.016-.761-1.372c-.69-1.244-1.388-2.503-2.101-3.756-.442-.777-.896-1.546-1.35-2.314-.408-.691-.817-1.382-1.216-2.079-.411-.718-.889-1.572-1.319-2.467-1.169-2.439-2.659-4.714-4.099-6.916l-.77-1.179c-.58-.893-1.124-1.809-1.668-2.726-.338-.567-.675-1.133-1.019-1.695-.398-.647-.806-1.289-1.214-1.93-.26-.407-.519-.814-.775-1.223-.275-.44-.548-.882-.819-1.325-.551-.898-1.102-1.795-1.688-2.668-.596-.889-1.216-1.763-1.836-2.637-.479-.674-.958-1.349-1.426-2.032-.297-.432-.575-.877-.853-1.323-.311-.495-.621-.991-.955-1.47-.464-.665-.947-1.316-1.43-1.968-.414-.56-.829-1.119-1.232-1.688-.924-1.303-1.827-2.625-2.728-3.944l-.222-.325c-.438-.64-.865-1.288-1.277-1.947-.438-.7-.829-1.332-1.182-1.988-1.037-1.932-2.289-3.724-3.262-5.07-.521-.719-1.068-1.421-1.613-2.121-.363-.467-.726-.933-1.082-1.405-.219-.291-.495-.675-.685-1.075-.249-.528-.646-.87-1.287-1.114l-.277-.105-.935.875-.63-.293-.193.081c-1.382.581-1.632.76-2.006,1.94l-.082.26.668.733c-.154.133-.296.321-.526.639l-.163.223.115.253c.143.314.284.632.426.947-.048-.037-.098-.074-.148-.111-.037-.028-.076-.056-.116-.088-.112-.756-.927-.893-1.339-.963l-.178-.032c-.775-.149-1.498-.237-2.213-.27-.257-.012-.515-.047-.774-.081-.504-.067-1.024-.137-1.568-.06-.937.132-1.91.132-2.852.135-.844,0-1.718.002-2.581.095-.84.089-1.703.096-2.537.104-.667.005-1.332.011-1.998.054l-.442.028c-.964.06-1.962.123-2.96.354-.346.021-.692.039-1.038.056-.765.039-1.555.077-2.335.163-1.409.154-2.857.168-4.257.181-.652.005-1.303.011-1.954.03-.409.012-.818.049-1.227.088-.493.046-.97.072-1.432.086l-.574-.004c-.749-.007-1.494-.007-2.24.019-.392.014-.782.061-1.174.109-.234.028-.469.056-.705.077-.169.012-.34.009-.509.004-.41-.009-.87-.023-1.331.186h-.004l-.996.07c-.714.053-1.429.105-2.144.135-.663.032-1.328.046-1.992.061-1.271.032-2.586.063-3.879.189-.407.039-.818.044-1.225.051-.648.011-1.318.019-1.975.158-.45.093-.913.096-1.404.098-.675.004-1.374.007-2.082.246-.053-.002-.105-.004-.157-.002-.371.019-.744.028-1.117.037-.886.019-1.802.04-2.692.221-.391.079-.796.082-1.225.086-.643.005-1.307.011-2.02.26-.07-.004-.139-.009-.206-.002-.338.019-.678.035-1.016.049-.775.035-1.576.07-2.366.172-2.631.346-4.74.788-6.639,1.393-.379.123-.766.223-1.153.323-.58.151-1.179.307-1.755.532-.842.328-1.668.728-2.466,1.112-.344.167-.689.332-1.037.496l-.275.126v.674l-.398-.546-1.672,1.156.045.293c.163,1.067.751,1.795,1.271,2.437,1.733,2.14,3.194,4.495,4.394,6.514,2.011,3.386,3.614,5.947,5.198,8.307.835,1.244,1.625,2.558,2.389,3.826.329.546.659,1.095.993,1.639l.182.296c.705,1.149,1.411,2.296,2.103,3.453.462.77.914,1.549,1.367,2.325l1.382,2.363c.646,1.103,1.293,2.209,1.947,3.309.36.603.725,1.205,1.09,1.807.429.707.858,1.412,1.277,2.123.349.593.688,1.193,1.027,1.791.582,1.028,1.185,2.091,1.831,3.11.792,1.247,1.472,2.593,2.128,3.893.206.409.412.816.622,1.223,1.168,2.261,2.463,4.454,3.575,6.302l.169.281c.404.667.821,1.356,1.153,2.06,1.432,3.033,3.205,5.814,5.049,8.631.545.833,1.069,1.677,1.595,2.523.383.618.768,1.237,1.159,1.851.612.958,1.232,1.912,1.85,2.867.461.711.923,1.421,1.381,2.133.405.63.807,1.26,1.209,1.893.614.963,1.227,1.926,1.852,2.882.849,1.298,1.569,2.358,2.269,3.332,1.339,1.868,2.596,3.849,3.737,5.891.479.858,1.025,1.688,1.551,2.491l.441.675c.871,1.344,1.608,2.805,2.321,4.217.205.407.41.814.618,1.218.502.974.995,1.953,1.488,2.932.85,1.686,1.73,3.432,2.642,5.126.659,1.223,1.411,2.41,2.139,3.561.239.375.477.753.713,1.132.955,1.533,2.072,3.36,3.114,5.268.591,1.084,1.278,2.126,1.942,3.137l.468.712c1.657,2.542,3.372,5.172,4.926,7.835.406.696.83,1.379,1.256,2.063.367.588.734,1.177,1.087,1.774.49.828.976,1.71,1.445,2.625,1.132,2.207,2.488,4.309,3.799,6.344l.518.803c.536.833,1.045,1.712,1.538,2.561.248.428.497.856.75,1.282.734,1.233,1.607,2.323,2.364,3.224.935,1.116,1.993,2.381,2.701,3.824,1.202,2.453,2.682,4.695,4.101,6.749,1.15,1.667,2.219,3.432,3.252,5.138l.491.811c1.1,1.81,2.387,3.735,4.053,6.056.32.446.611.909.903,1.374.318.505.635,1.009.986,1.491,1.708,2.346,3.225,4.895,4.634,7.303,1.922,3.291,3.399,6.028,4.648,8.616.975,2.018,1.832,3.677,2.701,5.224.623,1.109,1.295,2.21,1.945,3.277.458.753.918,1.505,1.364,2.267.475.811.924,1.661,1.356,2.486l.257.486c.682,1.293,1.36,2.588,2.038,3.884l.855,1.633c-.186.516-.453.932-.829,1.295-.278.27-.548.547-.818.825-.608.623-1.196,1.203-1.859,1.705-.119-.582-.457-1.035-.81-1.451l-.442-.514c-.202-.235-.404-.468-.603-.703l-.006-.012c.278-.068.56-.196.841-.432l.568-1.068-.612-1.275-.116-.153c-.288-.253-1.165-1.014-2.287-.118l-.097.079-.069.172c-.738-1.035-1.357-2.142-2.005-3.3-.118-.211-.235-.421-.354-.632l.685.068,1.057-1.374-.096-.249c-.202-.523-.479-1.053-1.127-1.381-.092-.047-.206-.193-.317-.333-.076-.096-.154-.196-.238-.288l-.141-.153h-1.242l-.458.73-.839-1.305c-.988-1.537-1.969-3.063-2.939-4.595-.532-.844-1.054-1.695-1.575-2.546-.447-.732-.895-1.463-1.35-2.188-.676-1.079-1.371-2.144-2.074-3.203-.325-.489-.658-.975-.991-1.461-.421-.616-.842-1.232-1.249-1.856-1.036-1.591-1.992-3.277-2.917-4.907-.339-.598-.679-1.198-1.023-1.793-1.047-1.812-1.993-3.726-2.908-5.575-.277-.56-.554-1.119-.834-1.677-.577-1.149-1.378-2.64-2.469-3.995-.274-.339-.5-.737-.686-1.081-.411-.767-.848-1.516-1.285-2.267-.629-1.082-1.28-2.202-1.836-3.342-.586-1.202-1.322-2.435-2.387-4.003-.705-1.037-1.464-2.056-2.198-3.042-.429-.575-.859-1.153-1.279-1.735-.303-.418-.673-.689-1.363-.998l-1.256-.561,1.057,2.005c.255.488.479.916.712,1.34l.301.547c.527.963,1.054,1.926,1.607,2.874.712,1.221,1.449,2.428,2.185,3.635l.191.312c.345.565.698,1.126,1.051,1.688.776,1.233,1.577,2.507,2.277,3.807.343.635.73,1.253,1.105,1.849.262.418.525.835.772,1.261.293.503.566,1.019.839,1.535.152.286.304.574.459.858l.608,1.126c.541,1.002,1.082,2.005,1.653,2.991.693,1.195,1.432,2.344,2.13,3.419.871,1.34,1.747,2.679,2.624,4.016,1.496,2.282,2.991,4.565,4.459,6.865.933,1.465,1.846,2.979,2.729,4.444.595.988,1.189,1.975,1.795,2.954.535.865,1.085,1.721,1.635,2.577.436.679.872,1.356,1.299,2.039,1.098,1.749,2.162,3.47,3.109,5.268.408.775.874,1.526,1.325,2.254.265.426.529.853.783,1.284.295.503.582,1.011.868,1.519.321.567.641,1.133.973,1.695.221.372.467.73.72,1.095l.545.803.842-.311v.416l.894.525.175-.033c.775-.151,1.406-.532,2.018-.9.264-.158.529-.319.803-.456.404-.202.793-.449,1.154-.732,1.431-1.116,1.732-3.305.688-4.982l-.123-.189c-.073-.109-.139-.207-.189-.307.802-.198,1.59-.442,2.356-.681.859-.267,1.747-.54,2.634-.744.606-.137,1.215-.263,1.825-.388,1.334-.274,2.714-.556,4.053-.984,1.122-.36,2.25-.698,3.378-1.035,2.018-.607,4.106-1.233,6.127-1.977.409-.149.815-.309,1.221-.468.642-.253,1.284-.505,1.939-.721.552-.182,1.114-.339,1.675-.495.796-.221,1.619-.451,2.41-.754,2.294-.881,4.344-1.603,6.266-2.21,1.471-.465,2.937-.94,4.403-1.418l3.093-1c2.326-.749,4.653-1.498,6.981-2.239.822-.261,1.646-.514,2.469-.77.799-.246,1.598-.493,2.395-.746.969-.307,1.935-.619,2.901-.932l2.156-.695c.581-.186,1.161-.379,1.739-.57,1.35-.447,2.745-.909,4.133-1.275,1.285-.34,2.563-.751,3.799-1.147,1.232-.396,2.507-.807,3.775-1.14.466-.123.929-.256,1.392-.389.699-.202,1.422-.411,2.135-.572,2.022-.458,3.699-1.479,4.981-3.037l.092-.179c.214-.796-.005-1.537-.673-2.263-.564-.612-1.169-1.203-1.754-1.775-.247-.242-.496-.486-.744-.733l-.139-.137h-1.633l-.113.784-1.186.098c-.091-.125-.182-.249-.272-.375-.335-.467-.682-.947-1.086-1.384-.461-.498-.885-1.086-1.371-1.903-.458-.772-.9-1.554-1.341-2.337-.552-.979-1.104-1.956-1.689-2.916-.528-.863-1.111-1.705-1.675-2.521-.302-.437-.604-.872-.898-1.312l-.387-.574c-.409-.602-.832-1.223-1.185-1.856-.84-1.509-1.795-2.967-2.719-4.379-.417-.637-.835-1.275-1.243-1.918l-.95-1.5c-.905-1.428-1.81-2.86-2.728-4.281-.852-1.319-1.73-2.623-2.613-3.919l-.124-.182c-.955-1.403-1.942-2.854-2.953-4.256-.539-.746-1.146-1.449-1.733-2.13l-.101-.116c-.621-.721-1.168-1.53-1.696-2.312-.282-.419-.564-.837-.86-1.246-.838-1.161-1.73-2.31-2.568-3.381-.759-.967-1.61-2.133-2.284-3.554.961-.293,1.933-.516,2.955-.749.769-.175,1.562-.358,2.355-.574.15.17.302.342.453.511.47.528.956,1.072,1.397,1.63,1.428,1.807,2.656,3.41,3.755,4.9.804,1.091,1.544,2.225,2.233,3.291.443.686.873,1.379,1.304,2.074.515.828,1.03,1.658,1.566,2.474.456.695.933,1.375,1.41,2.058.513.733,1.026,1.467,1.514,2.218,1.333,2.056,2.643,4.124,3.953,6.195l2.137,3.361c.811,1.263,1.649,2.572,2.421,3.882.639,1.084,1.19,2.256,1.725,3.389l.109.232c1.35,2.863,3.022,5.517,4.328,7.51,1.503,2.291,2.996,4.591,4.489,6.891l.455.691c.447.675.909,1.375,1.302,2.088.436.789.808,1.646,1.168,2.472l.171.391c.034.077.044.218.053.363.002.021.003.044.004.065-.121.128-.238.261-.354.395-.401.46-.747.858-1.316,1l-.792.198,1.131,1.188.321-.181c.889-.498,1.769-1.116,2.21-2.335.07-.17.167-.405.091-.665-.092-.323-.139-.661-.188-1.018Zm-9.006-4.144l.675-.189c.928.633,1.759,1.242,2.427,2.01-.472.488-1.049.819-1.567,1.095-1.207.646-2.544,1.068-3.837,1.475-.482.153-.963.304-1.44.467-1.13.388-2.299.733-3.429,1.068-.821.242-1.643.486-2.459.746-1.513.482-3.015,1.003-4.516,1.525l-.346.121c-1.643.57-3.281,1.153-4.916,1.746-.525.189-1.049.389-1.571.588-.677.258-1.353.514-2.036.754-.567.196-1.14.374-1.714.551-.499.154-.997.309-1.492.475-.488.165-.971.344-1.455.521-.661.244-1.321.488-1.993.696l-.695.216c-1.658.518-3.372,1.051-5.099,1.4-1.18.24-2.355.568-3.49.886l-2.018.551c-1.352.365-2.751.742-4.114,1.165-.632.196-1.253.432-1.873.667-.636.24-1.294.491-1.948.688-1.137.342-2.284.651-3.431.96-.903.242-1.805.484-2.703.744-2.105.607-3.705,1.098-5.187,1.596-2.191.733-4.237,1.365-6.253,1.93-1.967.553-4.063,1.296-6.408,2.279l-.647.1c-.456.068-.833.125-1.205.204-.378.077-.751.181-1.141.288l-.172.046-.098-.158c-.196-.314-.39-.621-.556-.944-.507-.981-.999-1.97-1.489-2.961l.057.03-.269-.579c.932-.121,1.747-.553,2.615-1.058l.161-.093c.653-.382,1.269-.744,1.983-.872.51-.091.998-.251,1.471-.404.175-.058.351-.114.527-.167l1.442-.444c.842-.26,1.683-.521,2.528-.768,1.852-.544,3.708-1.074,5.565-1.596.754-.212,1.511-.412,2.27-.612l2.278-.603c.845-.221,1.69-.444,2.534-.674.532-.144,1.062-.295,1.591-.447l.921-.263c.644-.181,1.291-.349,1.939-.518,1.236-.319,2.514-.651,3.754-1.077.976-.335,2.082-.716,3.185-.968,1.52-.353,3.029-.803,4.488-1.242,1.017-.305,2.034-.611,3.06-.884.953-.254,1.897-.546,2.84-.839,1.16-.36,2.359-.733,3.551-1.019,2.547-.614,5.078-1.398,7.527-2.156l.304-.093c1.421-.44,2.9-.795,4.176-1.096.837-.196,1.667-.423,2.497-.649.786-.218,1.574-.432,2.367-.621,1.516-.36,3.403-.811,5.17-1.426.189-.067.382-.121.575-.179.243-.07.486-.142.723-.23.404-.149.829-.233,1.279-.325.536-.107,1.09-.219,1.632-.447.363-.151.781-.235,1.185-.316.114-.023.227-.046.338-.07l.908.765,1.149-.93-.125-.432Zm-6.485-6.156c.726,1.268,1.711,2.925,2.898,4.484.2.261.388.535.579.814-.237.049-.453.088-.665.104-.214.016-.429.026-.643.037-.504.025-1.025.049-1.557.144-.616.109-1.222.249-1.827.391-.311.072-.622.144-.934.212-.539.116-1.08.223-1.621.33-.506.098-1.011.198-1.515.307-.678.146-1.354.309-2.029.47l-1.474.36c-.497.125-.996.247-1.496.363-2.299.526-4.18,1.032-5.92,1.591-1.075.344-2.293.735-3.488.979-1.4.284-2.672.619-3.888,1.025l-7.16,2.382c-.414.139-.827.281-1.241.421-.804.275-1.608.553-2.421.8-2.08.635-4.167,1.249-6.253,1.861l-2.464.728c-2.06.607-4.122,1.216-6.188,1.798-.904.256-1.816.484-2.727.714-.521.13-1.042.26-1.562.395-.726.189-1.451.384-2.176.577-1.418.379-2.835.758-4.262,1.1-2.989.712-5.227,1.437-7.255,2.346-1.075.482-2.032.821-2.923,1.033-.996.239-1.876.642-2.684,1.23-.205-.382-.41-.765-.613-1.146-.753-1.412-1.533-2.874-2.335-4.286-.761-1.337-1.548-2.658-2.336-3.981-.578-.97-1.157-1.94-1.725-2.916-.824-1.421-1.698-2.947-2.503-4.493-.71-1.361-1.505-2.695-2.274-3.984-.27-.451-.539-.902-.805-1.354-1.211-2.063-2.175-3.789-3.033-5.431-.223-.426-.442-.853-.661-1.281-.448-.87-.896-1.744-1.37-2.603-.972-1.761-2.078-3.465-3.148-5.112-.691-1.067-1.383-2.13-2.043-3.216l-.426-.695c-.593-.967-1.207-1.967-1.722-2.991-.27-.54-.615-1.033-.949-1.51l-.194-.277c-.182-.263-.376-.519-.57-.775-.287-.377-.557-.735-.79-1.116l-.077-.126c-1.068-1.749-2.17-3.554-3.572-5.188.318-.116.641-.211.966-.307.372-.111.745-.219,1.111-.358.299-.114.595-.235.89-.356.75-.311,1.458-.602,2.226-.753.356-.07.709-.158,1.061-.247.56-.14,1.089-.274,1.641-.333.811-.089,1.614-.263,2.392-.432l.7-.149c.733-.151,1.464-.319,2.19-.505.909-.232,1.815-.475,2.72-.719l.652-.175c.418-.112.838-.223,1.257-.332,1.006-.26,2.046-.532,3.059-.847,1.399-.437,2.787-.909,4.174-1.381l4.088-1.374,1.464.939h.139c.268,0,.525.007.773.014.552.014,1.074.028,1.6-.035,1.156-.137,2.301-.337,3.405-.596.291-.068.588-.093.903-.118.24-.019.479-.039.717-.075.96-.154,1.932-.354,2.892-.6.11-.028.221-.053.333-.079.572-.128,1.269-.286,1.749-.875.123-.004.258-.011.397-.047.869-.232,1.651-.356,2.393-.379.701-.023,1.386-.058,2.053-.235.662-.177,1.334-.268,2.044-.367.708-.095,1.442-.195,2.162-.388.467-.126.94-.228,1.413-.332.593-.13,1.206-.265,1.805-.442.974-.288,1.942-.632,2.879-.965l.814-.288c1.488-.523,3.034-.967,4.529-1.398l1.705-.496c1.099-.325,2.236-.66,3.373-.914,1.539-.342,3.085-.758,4.58-1.16.552-.151,1.105-.298,1.659-.444.544,1.461,1.451,2.681,2.335,3.805,1.16,1.472,2.285,2.923,3.305,4.468,1.222,1.851,2.599,3.658,4.092,5.367.777.889,1.469,1.695,2.074,2.565.796,1.146,1.561,2.312,2.326,3.481.431.656.861,1.314,1.298,1.967.719,1.077,1.443,2.153,2.167,3.226.825,1.226,1.651,2.453,2.471,3.682l.247.37c.932,1.398,1.895,2.844,2.799,4.289.663,1.058,1.305,2.13,1.947,3.202.461.77.923,1.542,1.393,2.309.342.558.694,1.107,1.046,1.66.551.86,1.12,1.749,1.632,2.644Zm-69.507-120.689c.441.13.89.233,1.332.333l.728.17c-.029.077-.061.151-.086.181l-.104.119-.241,3.412c-.739-1.361-1.475-2.73-2.24-4.151l-.171-.319c.265.093.522.179.782.254Zm62.133,68.75c-.011.261.035.514.082.779,0,.005.002.011.003.014-3.1,1.035-6.199,1.882-9.473,2.775-.574.156-1.15.314-1.727.472.479-2.288-.082-4.431-1.704-6.512.067-.007.133-.016.2-.023.848-.102,1.725-.205,2.576-.368.299-.058.597-.086.895-.114.246-.025.493-.049.737-.086.755-.114,1.504-.265,2.254-.414l.813-.161c.232-.044.465-.086.697-.128.595-.105,1.209-.214,1.809-.381.502-.137.849-.102,1.203.132l.333.672c.307.616.621,1.246.93,1.881.274.561.389,1.012.372,1.463Zm-.056-4.746c.107-.033.214-.061.323-.084.373-.072.749-.132,1.125-.191.743-.118,1.511-.239,2.252-.465,1.068-.328,2.185-.551,3.266-.768.6-.119,1.2-.24,1.796-.377.768-.177,1.539-.335,2.31-.491l.599-.123c.325,1.34.914,2.558,1.532,3.837l.068.142-1.395.432c-3.396,1.054-6.769,2.102-10.143,3.146.035-.481-.012-.958-.139-1.463-.304-1.203-.876-2.263-1.43-3.289-.055-.1-.109-.202-.164-.304Zm-105.655,16.277c.077.051.155.102.232.151.848.551,1.697,1.103,2.563,1.626,1.353.814,2.845,1.43,4.434,1.826.58.144,1.158.295,1.759.454-2.144.651-3.89,1.374-5.478,2.26l-.172-.279c-.285-.463-.57-.926-.842-1.396-.914-1.584-1.82-3.172-2.724-4.763l.229.126-.003-.005Zm-58.267-134.603c.111.004.22.004.332.004.076-.005.165.004.25.009.235.011.506.025.777-.056.626-.189,1.279-.205,1.97-.223.481-.012.978-.023,1.477-.098.993-.147,2.036-.172,3.045-.196.451-.011.903-.021,1.435-.044.086,0,.18,0,.268-.014.321-.053.642-.107,1.015-.17.011.635.208,1.132.388,1.584l.56,1.403c.762,1.903,1.55,3.872,2.229,5.835.453,1.309,1.003,3.046,1.235,4.884.073.584.221,1.151.364,1.7.061.237.123.474.179.711l.233.988c.139.582.276,1.163.409,1.747.116.509.224,1.018.332,1.526.218,1.03.443,2.093.729,3.13.582,2.119,1.214,4.181,1.875,6.133.973,2.872,2.012,5.77,3.015,8.575l.37,1.033c1.05,2.933,2.367,5.796,3.639,8.568l.398.867c.66,1.44,1.341,2.87,2.022,4.302.549,1.154,1.099,2.309,1.637,3.468.413.888.837,1.772,1.261,2.654.867,1.807,1.762,3.675,2.542,5.554.399.956.844,1.907,1.275,2.828.226.481.452.965.672,1.449.226.498.45,1,.673,1.502.904,2.032,1.841,4.135,3.008,6.093,1.23,2.063,2.578,4.202,4.123,6.538.5.756,1.045,1.495,1.572,2.209.539.728,1.096,1.482,1.597,2.247,1.333,2.033,2.868,3.944,4.353,5.793.394.489.788.979,1.177,1.472.746.94,1.542,1.863,2.311,2.754.355.412.709.823,1.061,1.237l.204.239c.311.368.624.735.929,1.105.294.358.584.716.875,1.074.595.735,1.189,1.468,1.807,2.182.327.377.671.739,1.018,1.1.359.375.719.751,1.057,1.147,1.235,1.447,2.544,2.779,3.774,4.002,1.665,1.654,3.39,3.3,5.058,4.893l.678.647c.544.519,1.123,1.007,1.669,1.456.552.453,1.11.9,1.668,1.347.442.354.884.711,1.324,1.067.29.237.576.479.861.723.512.433,1.043.882,1.597,1.293.681.505,1.374.993,2.068,1.479.866.607,1.761,1.235,2.61,1.886,2.136,1.64,4.543,3.117,7.574,4.653,1.2.607,2.472,1.093,3.703,1.563l.819.316c.461.179.941.277,1.406.37l.352.074c.067.014.134.028.201.044-1.132.3-2.26.574-3.364.842l-2.483.611c-1.384.344-2.813.7-4.185.991-1.507-.988-2.9-1.589-4.37-1.888-.595-.121-1.226-.256-1.828-.451-2.107-.681-4.156-1.637-6.137-2.563l-.157-.074c-2.626-1.225-5.227-2.651-7.732-4.237-3.029-1.918-5.764-4.328-8.427-6.674-.989-.872-1.954-1.81-2.889-2.719l-.703-.681c-.721-.696-1.428-1.407-2.136-2.116l-.629-.63c-.272-.272-.544-.542-.795-.833-.305-.353-.605-.712-.905-1.07-.331-.396-.661-.791-.999-1.181-.286-.328-.579-.651-.872-.974-.327-.358-.653-.718-.969-1.086-1.043-1.218-2.079-2.44-3.093-3.682-.68-.832-1.277-1.614-1.828-2.389-.927-1.309-1.831-2.593-2.692-3.935-.752-1.172-1.475-2.365-2.196-3.556l-1.367-2.24c-.391-.635-.782-1.27-1.163-1.91-.393-.665-.781-1.33-1.168-1.996-.346-.596-.694-1.193-1.044-1.786-.398-.674-.8-1.346-1.202-2.016-.4-.67-.801-1.339-1.199-2.01l-.916-1.542c-.86-1.442-1.749-2.935-2.575-4.426-.461-.832-.866-1.723-1.259-2.584-.178-.393-.357-.786-.542-1.175l-1.109-2.354c-.809-1.719-1.618-3.442-2.453-5.149-1.563-3.198-3.163-6.379-4.763-9.559-.289-.574-.591-1.139-.895-1.705-.444-.826-.903-1.682-1.3-2.542-.457-.989-.882-1.993-1.307-2.996-.449-1.061-.897-2.121-1.384-3.165-.891-1.912-1.907-4.182-2.676-6.516-.323-.981-.675-1.949-1.027-2.917-.639-1.76-1.3-3.577-1.757-5.417-.153-.614-.315-1.226-.476-1.837-.343-1.3-.697-2.644-.957-3.974-.418-2.147-.939-4.128-1.59-6.058-.304-.902-.641-1.953-.807-3.009-.132-.844-.162-1.732-.192-2.591l-.03-.802c-.053-1.186-.231-2.198-.546-3.1l-.254-.73c-.548-1.586-1.115-3.226-1.954-4.749-.227-.412-.425-.84-.624-1.27-.021-.046-.041-.089-.061-.133.108-.037.211-.067.317-.081.199-.028.403-.023.605-.019Zm24.576-1.47c.07.068.146.133.22.193.054.044.136.112.144.118.25.737.469,1.482.689,2.228l.13.44c.127.428.239.858.351,1.288.228.875.464,1.782.823,2.66.386.942.656,1.935.781,2.868.067.5.115,1.002.163,1.505.069.723.141,1.474.269,2.212.066.377.126.756.186,1.135.131.832.267,1.691.467,2.533.21.884.452,1.763.694,2.642.292,1.06.595,2.158.83,3.244.69,3.184,1.714,6.279,2.717,9.147.777,2.219,1.79,4.386,2.769,6.481l.498,1.07c.65,1.398,1.38,2.782,2.086,4.121l.636,1.209c.647,1.239,1.3,2.475,1.952,3.71.609,1.153,1.217,2.303,1.821,3.46.374.716.736,1.439,1.097,2.161.736,1.47,1.496,2.991,2.356,4.428,1.03,1.721,1.999,3.514,2.936,5.249.314.582.628,1.165.946,1.746.101.184.188.375.276.567.118.258.237.514.38.758,1.832,3.117,3.783,6.179,5.797,9.098l3.434,4.989c.475.695.949,1.386,1.432,2.074.507.721,1.022,1.437,1.563,2.135.506.653,1.022,1.298,1.539,1.942l1.769,2.239c.355.454.71.909,1.069,1.36.653.819,1.308,1.64,1.982,2.444.236.281.484.553.733.825.304.332.608.663.887,1.016,1.064,1.339,2.108,2.51,3.191,3.582.037.037.077.072.117.105.028.025.059.047.072.061.276.533.679.918,1.068,1.288.173.163.346.326.505.505.168.188.333.381.498.572.333.388.666.774,1.068,1.182,2.237,2.268,4.55,4.616,6.971,6.786.548.491,1.085.993,1.623,1.495.404.379.809.756,1.217,1.13.53.484,1.078.986,1.664,1.453,1.465,1.167,3.025,2.405,4.581,3.589,1.321,1.005,2.78,2.082,4.591,3.389.395.286.804.551,1.213.818.386.251.772.502,1.146.768,2.083,1.496,4.354,3.037,6.841,4.172,1.144.521,2.317.891,3.62,1.284.933.282,1.874.546,2.814.807,1.17.328,2.341.653,3.499,1.019,1.128.356,1.927.872,2.441,1.575.658.9,1.091,1.842,1.286,2.798.161.793.326,1.584.488,2.356l.145.698c-.304.086-.592.163-.883.23-.943.212-1.889.409-2.838.596-.348.068-.698.13-1.048.189-.418.074-.836.146-1.251.232-.858.177-1.712.379-2.564.584-.273.067-.544.147-.815.228-.506.151-.984.293-1.461.333-.696.061-1.381.181-2.041.3-.358.063-.717.126-1.078.181l-.203.03-.345.496c-.368.049-.732.086-1.094.121-.924.091-1.879.184-2.823.488-.083-.032-.136.002-.204.012-.261.044-.525.079-.788.112-.649.086-1.319.175-1.961.389-.115.037-.214.06-.308.06l.532-.205c1.267-.488,2.504-.967,3.738-1.451.625-.247,1.264-.525,1.9-.828.402-.191.679-.518.847-.998.28-.8.313-1.677.101-2.682-.249-1.181-.622-2.207-1.139-3.135l-.477-.872-.172-.061c-.261-.091-.497-.118-.707-.118-.151,0-.289.014-.415.026-.161.016-.3.032-.42.009-.388-.061-.765-.014-1.129.032-.119.016-.238.03-.356.04-.323.026-.645.061-.967.095l-.042.004-.172-.051c-.173-.053-.345-.114-.517-.175-.424-.149-.861-.305-1.333-.351-.711-.065-1.382-.258-2.093-.461l-.368-.105c-1.102-.309-2.166-.811-3.194-1.296l-.675-.318c-3.251-1.505-6.349-3.409-9.472-5.821-.673-.519-1.359-1.021-2.045-1.525-.582-.426-1.164-.853-1.737-1.289-.56-.426-1.102-.875-1.644-1.326l-.561-.463c-.812-.667-1.621-1.337-2.429-2.009-.234-.195-.475-.386-.714-.575-.541-.43-1.052-.833-1.509-1.298-.481-.488-.97-.97-1.458-1.451-1.118-1.098-2.273-2.233-3.302-3.447-.902-1.063-1.891-2.07-2.847-3.044-.473-.482-.945-.963-1.408-1.451-.659-.696-1.311-1.398-1.964-2.098l-.929-.993-.946-1.118c-.762-.898-1.525-1.796-2.274-2.705-.456-.554-.893-1.123-1.33-1.693l-1.319-1.703c-.515-.663-1.03-1.328-1.55-1.989-.232-.295-.47-.588-.707-.881-.399-.491-.797-.982-1.174-1.489-.461-.623-.904-1.256-1.347-1.891-.281-.404-.562-.805-.848-1.205-.389-.546-.784-1.088-1.178-1.628-.741-1.018-1.506-2.067-2.22-3.123-.994-1.467-1.951-3.002-2.877-4.484l-.32-.511c-.493-.791-1.012-1.633-1.444-2.5-.338-.677-.642-1.37-.945-2.063-.189-.433-.378-.865-.575-1.293l-.496-1.077c-1.018-2.212-2.036-4.423-3.075-6.624-.981-2.079-1.971-4.153-2.963-6.228l-2.379-4.981c-.428-.882-.87-1.795-1.238-2.71-.61-1.519-1.181-3.053-1.753-4.588l-1.218-3.233c-.423-1.109-.846-2.218-1.244-3.335-.827-2.323-1.632-4.653-2.436-6.982l-.699-2.018c-.86-2.461-1.748-5.005-2.298-7.6-.325-1.532-.752-3.06-1.163-4.535-.441-1.582-.897-3.217-1.225-4.847-.23-1.142-.645-2.225-1.046-3.272-.211-.549-.421-1.096-.605-1.654-.13-.393-.297-.772-.465-1.151-.149-.335-.297-.668-.415-1.012-.433-1.268-.963-2.76-1.614-4.214-.113-.251-.198-.514-.288-.796l.826-.061c.61-.042,1.219-.086,1.824-.167.542-.072,1.081-.165,1.62-.258.675-.114,1.35-.23,2.029-.305.803-.088,1.634-.126,2.437-.163.363-.016.725-.033,1.086-.054.04.004.077.002.116.005.156.009.368.023.575-.089.234-.126.492-.121.818-.109l-.155.519.201.202Zm16.16-.721c.239.67.623,1.228.995,1.768.417.602.811,1.175.958,1.847-.268.7-.521,1.598-.317,2.532.104.474.121.946.139,1.444l.011.425c-.007.123-.017.289.054.465.157.388.171.821.188,1.281.014.412.029.84.146,1.275.076.288.096.609.116.949.013.212.026.426.053.637.178,1.43.563,2.809.936,4.142.104.37.207.74.307,1.112.214.802.391,1.635.563,2.44.08.379.161.758.246,1.137l.174.796c.135.626.27,1.253.433,1.872.597,2.265,1.431,4.593,2.478,6.923.194.433.392.865.59,1.296.369.807.739,1.614,1.089,2.432.356.83.7,1.665,1.044,2.5.448,1.084.895,2.168,1.367,3.244.852,1.939,1.768,3.884,2.656,5.77.584,1.242,1.36,2.874,2.185,4.489.493.97,1.019,1.921,1.546,2.874l1.346,2.458c.781,1.435,1.589,2.919,2.423,4.361.681,1.177,1.409,2.349,2.113,3.484.349.561.697,1.121,1.041,1.686l.889,1.453c.825,1.342,1.649,2.686,2.447,4.044.558.949,1.082,1.916,1.605,2.882.81,1.498,1.648,3.046,2.607,4.503l1.123,1.714c.942,1.442,1.884,2.884,2.854,4.307,1.03,1.512,2.113,3.021,3.16,4.481l.671.937c.591.826,1.203,1.639,1.818,2.446l.242.318c.774,1.016,1.548,2.033,2.346,3.03.768.96,1.554,1.905,2.341,2.851l.656.789c.191.23.386.456.58.682.232.27.464.54.689.816.298.365.592.733.885,1.102.504.633,1.007,1.265,1.533,1.877.525.612,1.077,1.202,1.629,1.791l.807.87c.058.06.114.121.17.186.22.258.437.519.653.782.469.565.954,1.149,1.471,1.698,1.058,1.123,2.164,2.202,3.118,3.126.739.714,1.575,1.523,2.453,2.232,1.484,1.2,2.996,2.328,4.148,3.181,1.698,1.254,3.409,2.495,5.119,3.735l1.543,1.119c2.596,1.886,5.677,3.039,9.696,3.63.36.053.721.1,1.082.149.636.084,1.271.17,1.902.281.364.063.725.149,1.085.235.517.123,1.05.251,1.596.314,1.001.118,2.018.16,3.003.196l.58.025c.461.019.923.012,1.404.009l.467-.002c1.334,1.465,2.021,3.302,2.2,5.889-.603.179-1.2.358-1.792.533-1.619.486-3.149.944-4.715,1.365-.803.218-1.603.446-2.404.677-1.223.351-2.481.711-3.744,1.023.005-1.549-.122-2.83-.397-4.026-.532-2.312-2.022-4.021-4.309-4.944-1.383-.558-2.839-.935-4.246-1.3-.459-.118-.919-.237-1.376-.363-1.687-.461-3.083-.895-4.414-1.519-1.732-.809-3.303-1.832-4.895-2.898-1.319-.882-2.633-1.81-3.906-2.761l-1.275-.946c-.864-.639-1.727-1.277-2.579-1.932-.602-.461-1.195-.933-1.789-1.407-.691-.549-1.382-1.098-2.085-1.632-.915-.693-1.742-1.391-2.527-2.133-.578-.546-1.175-1.074-1.771-1.603-.824-.728-1.675-1.482-2.455-2.268-1.073-1.084-2.158-2.156-3.243-3.226-2.277-2.249-4.631-4.572-6.825-6.974-.865-.946-1.708-1.91-2.55-2.875l-1.037-1.186c-.728-.826-1.414-1.728-2.078-2.598-.271-.356-.542-.712-.817-1.065-.282-.361-.56-.725-.838-1.089-.335-.439-.67-.877-1.011-1.312-.483-.614-.971-1.225-1.459-1.835l-1.559-1.953c-.453-.565-.922-1.147-1.344-1.74-.471-.663-.927-1.337-1.382-2.012-.453-.672-.905-1.342-1.374-2.002-1.598-2.247-3.083-4.646-4.54-7.33-.473-.872-1.103-2.018-1.786-3.165-.935-1.572-1.882-3.135-2.828-4.698l-1.058-1.749c-1.021-1.689-1.941-3.479-2.831-5.21-.446-.87-.893-1.739-1.354-2.602-1.042-1.947-2.15-4.068-3.388-6.488-.276-.539-.556-1.075-.835-1.614-.859-1.651-1.747-3.36-2.503-5.082-1.458-3.323-2.414-5.945-3.098-8.505-.227-.851-.464-1.698-.701-2.546-.509-1.821-1.035-3.703-1.45-5.577-.449-2.023-1.028-4.044-1.587-6l-.268-.939c-.338-1.188-.677-2.46-.87-3.716-.272-1.772-.655-3.403-1.171-4.988-.323-.988-.629-1.956-.83-2.932-.334-1.621-.772-3.06-1.334-4.379.845-.018,1.689-.007,2.535.002,1.782.021,3.626.039,5.45-.189.279-.035.572-.03.883-.018.142.004.285.007.426.007.167-.012.332-.005.499-.009.342-.011.665-.016.978.014.29.03.555-.002.811-.032.179-.021.357-.044.543-.037.174.009.354.004.537-.002.156-.004.316-.009.473-.002.033.002.068,0,.099.002l-.121.296.061.17Zm35.312,141.785l.164-.009.64-.561c.074.007.169,0,.267-.026.535-.144,1.071-.281,1.608-.419,1.292-.332,2.627-.674,3.923-1.088,2.473-.786,5.41-1.681,8.452-2.344,1.882-.411,3.754-.968,5.566-1.51.581-.174,1.161-.347,1.743-.516.697-.204,1.385-.442,2.071-.681.246-.086.493-.172.718-.251l.092.196h1.301l.365-.789.537-.118c.066.175.127.328.202.475.43.833.731,1.723,1.026,2.635.071.221.101.418.094.661-.191.091-.363.202-.531.311-.246.158-.478.307-.75.377-.714.184-1.388.493-2.039.791l-.463.211c-2.374,1.06-4.516,1.886-6.55,2.525-1.004.314-1.999.66-2.994,1.003l-1.242.428c-.597.204-1.194.412-1.791.619-1.3.453-2.646.921-3.978,1.339l-1.358.432c-1.358.435-2.762.882-4.164,1.239-.64.163-1.288.286-1.934.412-.62.119-1.239.239-1.85.389-.673.165-1.341.351-2.007.539-1.165.326-2.369.663-3.578.872-.933.16-1.855.433-2.747.698-.304.089-.61.181-.918.268-.814-1.075-1.477-2.249-2.175-3.488-.249-.44-.498-.882-.757-1.323,4.096-1.554,8.465-3.044,13.057-3.298Zm69.396-10.507c-1.158.284-2.355.579-3.538.777-.589.1-1.17.244-1.731.382-.703.174-1.374.34-2.046.423,0-.035.002-.07.004-.105.082-1.153-.138-2.256-.655-3.281-.399-.793-.81-1.579-1.227-2.375l-.599-1.151-.115-.068c-.893-.535-1.765-.798-2.654-.798-.133,0-.267.005-.402.018-1.123.1-2.194-.142-3.329-.395-.456-.102-.913-.205-1.372-.284-.893-.156-1.785-.321-2.676-.488l-.872-.16c-.689-.125-1.38-.249-2.064-.398-.968-.214-1.837-.412-2.678-.679-.236-.075-.475-.144-.713-.214-.957-.277-1.86-.54-2.596-1.158-.156-.132-.326-.207-.475-.274-.067-.03-.133-.06-.195-.095-.307-.179-.617-.354-.925-.53-.723-.409-1.47-.832-2.165-1.295-2.1-1.396-4.324-3.017-6.798-4.954-1.334-1.046-2.609-2.184-3.788-3.258-.934-.853-1.839-1.777-2.714-2.67-.388-.396-.775-.791-1.168-1.184l-.118-.116c-.093-.089-.187-.179-.27-.281l-1.142-1.382c-.554-.674-1.109-1.347-1.669-2.014-.803-.956-1.618-1.9-2.439-2.84-.433-.496-.871-.988-1.307-1.482-.567-.639-1.132-1.277-1.69-1.923l-.268-.309c-.624-.719-1.27-1.465-1.839-2.233-.999-1.347-1.978-2.749-2.925-4.105l-.4-.574c-.639-.914-1.274-1.832-1.908-2.751-.694-1.003-1.388-2.009-2.088-3.009-.587-.837-1.193-1.661-1.797-2.486l-.382-.521c-1.071-1.465-2.197-3.053-3.177-4.742l-1.229-2.128c-.841-1.463-1.682-2.925-2.546-4.372-1.482-2.481-2.995-4.942-4.507-7.403l-.315-.514c-.899-1.463-1.825-3.049-2.497-4.739-.77-1.933-1.776-3.949-3.165-6.342-.673-1.16-1.339-2.361-1.98-3.572-.227-.433-.428-.877-.628-1.323-.131-.291-.262-.581-.4-.867-.88-1.826-1.709-3.74-2.465-5.684-.968-2.489-2.021-5.151-3.157-7.763l-.092-.212c-.881-2.025-1.793-4.116-2.431-6.254-.346-1.158-.619-2.337-.869-3.446-.107-.475-.191-.956-.274-1.435-.072-.412-.143-.823-.229-1.232-.263-1.251-.653-2.474-1.029-3.658-.158-.498-.317-.996-.467-1.498-.31-1.035-.561-2.116-.804-3.16l-.309-1.309c-.179-.74-.363-1.507-.468-2.258-.099-.719-.144-1.442-.188-2.14-.018-.291-.035-.574-.056-.846l-.178-.521c-.084-.214-.157-.398-.207-.588-.143-.547-.276-1.096-.408-1.646l-.191-.786c-.082-.337-.211-.76-.45-1.147.09-.005.18-.011.269-.014.246-.014.491-.028.738-.03l3.496-.016.187.005c.187.009.4.016.622-.039.71-.177,1.436-.205,2.204-.235.483-.019.967-.037,1.447-.093.335-.039.704.016,1.096.074.221.035.442.067.663.086.123.009.247.007.374.011.032.061.062.123.091.179.149.296.289.577.52.803.726.718,1.279,1.402,1.686,2.088l-.002.009c-.04.165-.075.323-.08.481-.037.998.081,2.026.372,3.235.142.588.215,1.188.292,1.821.046.381.093.76.154,1.137.076.468.164.937.252,1.403.115.614.231,1.225.318,1.84.113.786.284,1.816.615,2.826.39,1.193.749,2.396,1.105,3.602l.102.337c.154.505.3.984.365,1.465.231,1.716.611,3.417.976,5.063l.049.221c.533,2.395,1.287,4.84,2.307,7.474.934,2.412,1.99,4.97,3.422,8.291,1.238,2.867,2.406,5.46,3.571,7.923,1.748,3.693,3.772,7.302,5.531,10.396.803,1.412,1.492,2.532,2.168,3.523,1.182,1.735,2.395,3.449,3.607,5.161l1.057,1.495c.463.656.931,1.311,1.398,1.961.387.54.774,1.082,1.159,1.625l1.799,2.546c.808,1.146,1.616,2.289,2.429,3.432.695.977,1.397,1.949,2.11,2.935l.773,1.07-.446,2.579.226.175c.089.068.16.149.231.225.23.249.561.565,1.142.568l.154-.007.121-.093c.214-.168.471-.37.673-.661l.965,1.303c.613.83,1.226,1.661,1.854,2.482.853,1.114,1.716,2.203,2.567,3.237.361.439.733.865,1.105,1.293.468.537.936,1.075,1.435,1.703.691.874,1.406,1.775,2.288,2.646.09.089.182.177.265.27.314.356.625.714.935,1.072.65.749,1.323,1.525,2.02,2.26,1.182,1.247,2.398,2.44,3.751,3.76.605.589,1.288,1.203,2.086,1.877,1.058.891,2.134,1.76,3.214,2.625.822.656,1.654,1.302,2.497,1.932.835.625,1.674,1.244,2.513,1.861.744.549,1.489,1.098,2.23,1.651.342.256.677.519,1.013.781.467.367.933.732,1.415,1.075,2.651,1.902,5.617,3.628,9.337,5.433,1.563.76,2.972,1.318,4.311,1.707.096.028.194.063.292.098.408.146.916.33,1.531.147l.324-.095.061-1.293-.054-.032c.606-.1,1.207-.2,1.807-.312.267-.051.531-.121.794-.191.265-.07.53-.144.8-.189.626-.104,1.256-.184,1.897-.267l.594-.079.103.191c.58,1.072,1.161,2.146,1.718,3.23.096.186.156.423.161.635.018.814.014,1.63.012,2.428v.512s-1.007.26-1.007.26c-1.005.26-1.977.512-2.953.747l-.772.188Zm-29.172-23.915c-.478-.449-.942-.916-1.398-1.389-.261-.27-.517-.544-.772-.818-.341-.365-.681-.73-1.031-1.084-.188-.189-.39-.365-.593-.54-.196-.17-.392-.339-.57-.523-.564-.586-1.117-1.181-1.668-1.777l-.746-.803c-.051-.054-.104-.107-.159-.158-.058-.058-.118-.112-.168-.174l-1.189-1.472c-.711-.882-1.423-1.765-2.144-2.64-.471-.572-.956-1.133-1.44-1.695-.309-.358-.618-.716-.923-1.077l-.286-.337c-.983-1.161-1.966-2.321-2.933-3.495-.256-.309-.304-.54-.182-.884.2-.561.422-1.232.552-1.937.055-.3.076-.602.096-.902.019-.281.036-.561.093-.839.081-.396.169-.793.256-1.191.176-.796.357-1.621.485-2.447.125-.807.316-1.621.501-2.409.166-.711.332-1.421.457-2.137.073-.421.177-.833.281-1.246.142-.567.288-1.146.36-1.751.299.495.589.975.874,1.46.276.47.549.94.821,1.41.382.66.764,1.319,1.155,1.972.292.489.592.974.892,1.458.471.76.941,1.519,1.38,2.298.944,1.675,1.975,3.33,2.974,4.93.352.561.703,1.125,1.051,1.689.489.793.971,1.591,1.453,2.389,1.253,2.075,2.55,4.221,3.961,6.256,1.246,1.796,2.477,3.605,3.707,5.414.768,1.132,1.535,2.261,2.278,3.41.502.775.995,1.556,1.488,2.337.569.902,1.139,1.803,1.72,2.696.958,1.47,1.926,2.933,2.893,4.398.718,1.088,1.435,2.174,2.15,3.261-.336-.172-.66-.342-.978-.523-1.256-.709-2.383-1.368-3.444-2.018-1.825-1.114-3.531-2.481-5.18-3.803l-.154-.123c-2.052-1.644-3.573-2.986-4.931-4.349-.174-.175-.368-.33-.563-.484-.145-.114-.29-.228-.424-.356Zm-18.766-36.041c.334-1.049.661-2.102.955-3.163.115-.416.214-.837.309-1.258l3.017,4.696c-.046.107-.094.232-.123.368-.207.974-.41,1.951-.613,2.928l-.647,3.072c-.115.53-.231,1.06-.339,1.591-.149.739-.298,1.479-.407,2.223-.159,1.082-.344,2.233-.705,3.332-.103.316-.16.635-.215.944-.025.144-.051.288-.082.432l-.126.574-3.524-4.677s.002-.005.003-.009c.066-.174.135-.354.162-.554.186-1.374.437-2.8.768-4.358.36-1.695.862-3.924,1.568-6.14Zm6.431-5.747l.697,1.026c.813,1.198,1.622,2.393,2.437,3.584.27.393.546.786.822,1.177.456.647.912,1.295,1.342,1.96.842,1.305,1.662,2.625,2.482,3.942l.846,1.36c.43.689.86,1.377,1.275,2.074.357.6.711,1.2,1.065,1.8.425.721.849,1.44,1.279,2.158.395.658.796,1.312,1.197,1.967.434.707.867,1.416,1.294,2.13.446.744.885,1.491,1.324,2.239.502.854,1.005,1.709,1.517,2.558.529.881,1.073,1.751,1.618,2.623l1.572,2.53c.689,1.116,1.38,2.23,2.079,3.34.426.675.867,1.342,1.307,2.009l1.374,2.096c.607.93,1.213,1.86,1.83,2.782.638.956,1.282,1.909,1.925,2.861.62.916,1.24,1.833,1.854,2.753,1.086,1.626,2.16,3.258,3.234,4.893l.167.253c.417.635.829,1.272,1.247,1.918l.582.895c-.036-.002-.071-.005-.107-.009l-.422.032-.111.411c-1.124-.384-2.095-.833-2.971-1.375-.225-.139-.432-.333-.567-.535-.979-1.454-1.776-2.674-2.51-3.842-.582-.925-1.151-1.858-1.721-2.791-.485-.793-.969-1.584-1.46-2.374-.261-.418-.535-.828-.81-1.237-.271-.405-.543-.811-.801-1.225-.232-.374-.451-.754-.669-1.137-.286-.498-.571-.998-.886-1.479-1.879-2.874-3.429-5.209-4.88-7.349-.99-1.461-2.107-3.047-3.515-4.991-1.172-1.621-2.194-3.384-3.182-5.089-.331-.57-.661-1.14-.997-1.707-.573-.965-1.166-1.918-1.758-2.872-.338-.544-.676-1.088-1.011-1.633l-1.008-1.642c-.926-1.503-1.852-3.009-2.75-4.531-1.49-2.53-3.346-5.679-5.282-8.609-.265-.4-.527-.803-.788-1.209l1.839-1.732Zm-42.426-66.553c.382.57.75,1.149,1.119,1.728.368.577.735,1.154,1.115,1.723.729,1.089,1.486,2.177,2.25,3.23.925,1.275,1.868,2.539,2.825,3.788.479.626.968,1.246,1.458,1.863.55.695,1.1,1.389,1.635,2.095.975,1.284,1.903,2.665,2.76,4.103.697,1.168,1.453,2.325,2.185,3.44.35.535.7,1.07,1.09,1.677.671,1.046,1.342,2.091,1.998,3.146.744,1.193,1.48,2.393,2.217,3.589l2.759,4.489c.223.363.45.725.676,1.086.507.811,1.031,1.649,1.507,2.489.971,1.714,1.915,3.482,2.79,5.14,1.111,2.103,2.317,4.223,3.689,6.479.64,1.053,1.196,2.016,1.701,2.94.6,1.105,1.292,2.163,1.961,3.188.339.519.679,1.039,1.007,1.565.454.726.884,1.467,1.315,2.207.404.696.809,1.391,1.232,2.075.487.789,1.004,1.56,1.543,2.363l.606.909-1.025,2.7c-.56-.874-1.113-1.751-1.664-2.628l-.737-1.17c-.111-.175-.128-.24-.13-.247.043-.544-.144-.993-.309-1.389-.041-.098-.077-.2-.114-.3.446-.307.578-.535.799-1.226l.053-.161-.104-.26c-.282-.707-.633-1.589-1.87-1.884l-.195-.047-1.053.67c-1.196-2.03-2.319-3.812-3.437-5.458-.703-1.033-1.381-2.116-2.037-3.16-.529-.844-1.059-1.688-1.607-2.519-.429-.649-.885-1.281-1.34-1.91-.425-.589-.85-1.177-1.252-1.779-.73-1.096-1.446-2.202-2.163-3.305-.739-1.144-1.48-2.284-2.235-3.416-.436-.654-.902-1.288-1.369-1.921-.331-.449-.662-.9-.982-1.358-1.752-2.5-3.422-5.058-4.965-7.6-.346-.57-.664-1.16-.982-1.747-.286-.53-.573-1.058-.879-1.575-.564-.954-1.144-1.898-1.725-2.842-.393-.64-.787-1.281-1.175-1.925-.702-1.163-1.393-2.332-2.084-3.5l-.719-1.218c-.811-1.37-1.622-2.74-2.423-4.119-.25-.428-.488-.865-.726-1.298-.246-.451-.493-.902-.751-1.344-.32-.551-.65-1.096-.979-1.644-.57-.944-1.159-1.921-1.685-2.902-.51-.953-.961-1.965-1.397-2.946-.162-.365-.325-.732-.492-1.096l-.123-.272c-.278-.623-.563-1.265-1.105-1.76.405-.165.756-.402,1.05-.711.655,1.219,1.425,2.365,2.175,3.477l.32.477Zm-1.033,7.137c.271.47.542.94.808,1.414.445.791.896,1.579,1.347,2.368l1.154,2.021c.765,1.342,1.531,2.684,2.307,4.019.739,1.272,1.493,2.537,2.266,3.788.316.514.646,1.018.977,1.521.331.505.662,1.012.979,1.526.327.53.639,1.07.951,1.609.292.505.584,1.011.888,1.509.935,1.532,1.888,3.053,2.844,4.572.818,1.3,1.64,2.596,2.481,3.884.62.949,1.245,1.896,1.871,2.842.653.988,1.306,1.975,1.953,2.967.292.447.573.902.855,1.356.39.63.781,1.261,1.198,1.874.524.768,1.068,1.525,1.612,2.281.451.626.902,1.251,1.341,1.886.501.723.979,1.461,1.457,2.2l1.93,2.958c1.392,2.126,2.784,4.254,4.164,6.388.642.995,1.268,1.998,1.894,3l.971,1.554c.084.132.174.261.272.404l.028.04c-.083.298-.171.6-.258.9-.25.853-.507,1.735-.668,2.639-.188,1.049-.454,2.105-.711,3.125-.171.681-.343,1.361-.494,2.046-.167.758-.304,1.521-.442,2.284-.126.703-.253,1.409-.404,2.107-.181.837-.408,1.684-.628,2.503l-.127.475c-.201-.242-.383-.511-.571-.786l-.202-.295c-.727-1.042-1.437-2.096-2.146-3.151-.616-.912-1.231-1.826-1.857-2.733-.633-.914-1.283-1.819-1.933-2.723-.492-.684-.984-1.37-1.468-2.06l-.913-1.295c-1.048-1.481-2.132-3.014-3.14-4.551-1.374-2.095-2.952-4.588-4.236-7.2-.604-1.228-1.23-2.446-1.855-3.661-.748-1.454-1.521-2.958-2.239-4.453-.779-1.619-1.498-3.307-2.193-4.939l-.929-2.167c-.808-1.875-1.644-3.817-2.413-5.742-.338-.847-.696-1.686-1.054-2.525-.708-1.66-1.44-3.375-1.992-5.117-.385-1.218-.64-2.496-.888-3.733l-.054-.275c-.121-.602-.231-1.205-.34-1.809-.31-1.702-.63-3.461-1.194-5.161-.426-1.282-.652-2.677-.883-4.103l-.146-.921c-.251-1.6-.51-3.253-1.003-4.853-.212-.689-.358-1.423-.487-2.147.431.795.88,1.575,1.32,2.34Zm-28.844,86.233c-1.042-1.953-2.332-3.779-3.469-5.389-1.329-1.881-2.639-3.828-3.917-5.723-.962-1.428-1.906-2.868-2.837-4.316-.699-1.088-1.392-2.179-2.084-3.27-.702-1.107-1.404-2.214-2.113-3.316-.372-.579-.755-1.151-1.138-1.723-.585-.875-1.189-1.779-1.741-2.689-.696-1.149-1.341-2.363-1.964-3.539l-.327-.616c-1.143-2.146-2.05-3.782-2.94-5.305-.638-1.093-1.225-2.335-1.796-3.798-.646-1.661-1.428-3.286-2.389-4.967-.673-1.179-1.306-2.414-1.918-3.607l-.534-1.037c-.852-1.649-1.833-3.353-3.178-5.53-.882-1.425-1.745-2.861-2.608-4.298-.461-.767-.923-1.533-1.386-2.3-.878-1.449-1.759-2.896-2.646-4.339l-.594-.968c-.858-1.4-1.717-2.8-2.596-4.189-.53-.837-1.071-1.667-1.611-2.498-.757-1.161-1.513-2.323-2.24-3.502-.149-.242-.296-.484-.443-.728l.23.335.254-1.018c.263-1.049-.1-1.888-.49-2.568-.612-1.07-1.242-2.13-1.872-3.188l-1.077-1.819c-.258-.44-.515-.881-.782-1.312-.054-.089-.112-.167-.174-.235.101-.021.203-.042.304-.061.149-.028.298-.058.445-.093.319-.077.637-.158.956-.24.585-.149,1.17-.3,1.76-.419.466-.095.927-.211,1.388-.325.683-.17,1.389-.346,2.092-.444l.316-.044c.955-.135,1.908-.27,2.869-.374.261-.028.523-.039.785-.053.428-.019.869-.04,1.309-.126.664-.13,1.328-.144,2.032-.158.285-.005.57-.011.855-.025.084-.004.164-.016.242-.033.13.674.466,1.209.748,1.656,1.081,1.718,2.198,3.493,2.677,5.595.147.647.3,1.316.33,1.96.057,1.174.031,2.377.006,3.561-.025,1.175.271,2.274.573,3.396l.121.447c.323,1.195.657,2.432.893,3.656.152.789.307,1.63.396,2.46.07.665.222,1.305.368,1.925.113.477.226.954.301,1.44.091.6.235,1.193.374,1.767.081.335.162.672.233,1.009.203.967.533,1.909.852,2.821l.196.565c.804,2.335,1.534,4.446,2.325,6.595.38,1.033.82,2.056,1.246,3.046l.247.574c.643,1.502,1.295,3.002,1.947,4.498l.572,1.316c.132.304.271.605.415.905l.829,1.719c.714,1.486,1.428,2.968,2.154,4.447l1.144,2.33c1.759,3.584,3.518,7.168,5.313,10.733,1.158,2.303,2.403,4.633,3.7,6.931.934,1.654,1.954,3.289,2.942,4.87l.461.739c1.736,2.788,3.484,5.567,5.252,8.335.557.872,1.146,1.723,1.736,2.574l.632.914c1.196,1.744,2.396,3.484,3.596,5.224l.284.412c.93,1.349,1.892,2.742,2.965,4.04.625.754,1.23,1.554,1.814,2.328.486.644.971,1.288,1.475,1.914.418.521.86,1.021,1.302,1.523.43.484.86.972,1.266,1.477,1.888,2.349,4.056,4.481,6.153,6.54l.928.914c.748.739,1.56,1.426,2.344,2.093l.795.677c.339.291.686.577,1.032.861.464.384.927.765,1.375,1.167,1.271,1.14,2.71,2.042,3.981,2.835,2.469,1.544,5.276,3.028,8.583,4.539,1.585.725,3.17,1.53,4.703,2.307.992.503,1.985,1.007,2.985,1.495.618.302,1.263.565,1.891.819-2.24.696-5.054,1.53-7.969,2.202-.259.06-.513.139-.768.216-.268.082-.535.167-.868.235-.391.079-.795.16-1.116.104-1.015-.188-2.043-.425-3.038-.653l-1.864-.416c-.595-.128-1.189-.253-1.774-.418-1.782-.503-3.378-1.5-4.733-2.393-.392-.258-.779-.525-1.165-.793-1.141-.788-2.321-1.602-3.639-2.189-.228-.102-.466-.182-.736-.272l-.245-.084c-.252-.4-.506-.811-.764-1.226-.658-1.065-1.34-2.165-2.058-3.244-.777-1.167-1.573-2.323-2.368-3.479-.796-1.156-1.593-2.312-2.371-3.482-.689-1.035-1.353-2.119-1.996-3.167l-1.177-1.905c-.8-1.286-1.6-2.572-2.389-3.863-.343-.563-.667-1.139-.99-1.712l-.896-1.575c-.61-1.068-1.22-2.137-1.8-3.221l-.362-.675c-.664-1.232-1.35-2.507-1.885-3.803-.432-1.046-.971-2.033-1.494-2.988-.236-.43-.472-.863-.699-1.3-.381-.737-.805-1.46-1.215-2.16-.357-.609-.714-1.219-1.046-1.84ZM14.736,169.925c.34.767.725,1.505,1.139,2.223-.25-.321-.5-.642-.746-.965-.208-.274-.402-.558-.596-.84-.096-.14-.191-.279-.289-.418h.492Z" stroke-width="0"/>
      <path d="m92.407,319.157c-.405-.161-.743-.098-1.013-.047-.076.014-.154.03-.233.039-.692.068-1.371.196-2.029.319-.266.051-.532.102-.8.147-.577.1-1.152.226-1.725.354-.593.13-1.186.26-1.784.361-1.798.3-3.537.853-5.22,1.386-.855.272-1.711.542-2.576.782-.617.17-1.243.309-1.87.447-.669.147-1.339.295-1.997.481-.798.226-1.627.407-2.429.584-.731.161-1.461.321-2.184.514-.751.204-1.511.381-2.272.561-.433.102-.868.205-1.3.311l-6.557,1.625c-1.049.256-2.097.512-3.142.782-1.753.454-3.692.888-5.929,1.326-2.111.412-4.197.996-6.214,1.561l-1.437.4c-2.01.554-4.131,1.054-6.481,1.53-2.407.484-5.247,1.089-8.059,1.907-3.261.947-6.068,1.921-8.581,2.975-1.382.581-2.825,1.072-4.22,1.551l-.219.075c-1.606.549-3.28,1.065-4.975,1.535l-1.018.279c-1.007.274-2.014.549-3.008.863-.526.167-1.039.372-1.538.579l-.224-.467c-.076-.16-.16-.314-.242-.465-.16-.293-.311-.57-.368-.833-.029-.137-.073-.274-.119-.411-.107-.326-.164-.519-.071-.719.152-.326.284-.663.428-1.039l.149-.381,4.029-2.261c.355-.196.71-.391,1.051-.607,1.225-.782,2.642-1.237,4.08-1.702,2.239-.719,4.887-1.561,7.558-2.326.667-.191,1.342-.353,2.017-.516.912-.221,1.854-.449,2.773-.746.029-.009.117-.005.189.002l.176.305.198.049c.771.184,1.435-.082,1.78-.718.049-.089.108-.135.218-.163.713-.188,1.492-.347,2.525-.523l.094-.026c.424-.167.867-.563.568-1.507l-.169-.319-.331-.016c-.616-.026-1.247-.058-1.925.047.288-.935.352-1.795.37-2.54.004-.198,0-.398-.004-.598-.009-.372-.018-.721.039-1.025.067-.363.075-.705.082-1.035.006-.221.01-.442.035-.661.162-1.403.371-2.53.659-3.546.515-1.819.766-3.386.79-4.928l.003-.151c.014-.977.029-1.989.31-2.923.046-.153.101-.446-.053-.688-.121-.191-.087-.381-.011-.726.04-.188.087-.4.09-.625.009-.693.154-1.367.307-2.079l.068-.318c.06-.288.086-.581.112-.877.02-.226.039-.454.079-.682l.034-.193c.104-.591.208-1.181.35-1.768.162-.667.295-1.351.396-2.033.124-.839.285-1.667.456-2.547.089-.461.186-.921.283-1.382l.185-.888c.032-.163.071-.326.108-.489.11-.475.223-.968.239-1.495.006-.209.051-.416.093-.623.032-.156.064-.314.086-.47.02-.147.02-.295.018-.442-.003-.24,0-.384.083-.505.167-.24.139-.516.118-.718-.005-.049-.011-.098-.011-.144-.002-.823.115-1.668.369-2.663.094-.372.127-.744.157-1.103.019-.225.038-.451.075-.672.153-.933.319-1.928.534-2.919.06-.274.093-.549.126-.826.025-.207.049-.416.088-.621.07-.375.135-.753.2-1.13.125-.73.251-1.458.415-2.182.104-.461.136-.928.167-1.381.018-.267.036-.535.07-.8.103-.803.21-1.46.336-2.067.045-.218.065-.435.085-.654.023-.261.045-.507.118-.74.12-.386.139-.774.159-1.151.017-.319.032-.619.107-.884.099-.347.125-.684.151-1.011.028-.34.053-.663.162-.956.128-.342.147-.686.167-1.016.011-.196.021-.393.061-.588.137-.658.168-1.33.198-1.979.014-.305.028-.611.053-.912.03-.361.071-.719.111-1.079.029-.253.057-.507.082-.761.022-.228.025-.456.026-.684.002-.375.004-.73.116-1.072.117-.356.146-.726.175-1.084.014-.177.028-.353.054-.526.157-1.056.388-2.121.611-3.149l.171-.795c.104-.491.165-.988.224-1.47.064-.518.124-1.007.233-1.489.07-.309.104-.618.137-.928.042-.395.082-.765.201-1.116.143-.421.173-.853.202-1.268.013-.188.025-.374.05-.556l.033-.265c.045-.358.087-.696.167-1.021.18-.726.318-1.468.452-2.186.149-.8.303-1.626.514-2.419.151-.567.23-1.147.306-1.71.025-.188.051-.377.084-.558l.836.658.201-.028c1.7-.244,2.028-1.76,2.152-2.33.131-.602.435-2.01-.933-2.861l-.115-.072h-1.164c.067-.221.142-.439.226-.654h.483c.911.411,1.782.935,2.66,1.602.346.263.726.458,1.093.644.052.028.103.053.155.081-.038.163-.072.34-.08.53-.041,1.011-.255,1.981-.482,3.007-.069.312-.138.625-.201.937-.035.17-.076.339-.116.509-.075.309-.147.618-.191.932-.207,1.507-.453,2.832-.756,4.049-.109.442-.193.889-.277,1.337-.054.288-.107.574-.168.86-.075.349-.157.7-.238,1.049-.08.342-.161.686-.234,1.03-.054.249-.1.502-.146.754-.058.314-.115.63-.189.94-.113.475-.182.954-.247,1.419-.079.558-.154,1.086-.301,1.602-.083.293-.1.577-.116.853-.014.246-.028.477-.088.691-.108.379-.131.763-.152,1.133-.019.323-.037.628-.11.903-.099.372-.134.737-.168,1.089s-.067.686-.16,1.005c-.097.333-.125.677-.153,1.009-.019.225-.036.449-.079.668-.08.411-.114.821-.147,1.219-.024.282-.047.565-.088.844l-.05.353c-.091.66-.186,1.34-.373,1.963-.087.286-.113.558-.136.798-.011.107-.02.214-.037.323-.022.151-.053.302-.083.451-.041.202-.082.402-.107.603l-.439,3.574c-.171,1.382-.336,2.537-.586,3.675-.124.567-.196,1.139-.267,1.691-.072.57-.14,1.107-.26,1.644-.075.339-.106.686-.136,1.021-.026.307-.053.618-.118.914-.072.328-.11.661-.148.993-.046.409-.09.795-.201,1.167-.103.347-.126.696-.148,1.037-.014.218-.027.437-.067.653-.133.735-.207,1.482-.278,2.205-.049.498-.098.995-.166,1.488-.081.586-.212,1.182-.339,1.76l-.2.902c-.113.491-.23.998-.268,1.537-.035.514-.138,1.074-.314,1.707-.066.24-.081.474-.094.679-.015.228-.027.426-.1.612-.159.398-.183.812-.207,1.212-.013.233-.025.468-.072.693-.054.263-.093.53-.131.796-.053.374-.104.728-.2,1.072-.095.34-.138.688-.179,1.026-.018.153-.037.305-.061.456l-.082.523c-.142.921-.276,1.789-.508,2.658-.1.372-.13.746-.161,1.109-.018.225-.036.449-.073.67-.101.607-.222,1.212-.342,1.816l-.125.633c-.034.172-.073.346-.111.518-.084.374-.167.747-.209,1.126-.103.928-.316,1.821-.542,2.765l-.025.102c-.121.507-.196,1.023-.268,1.523-.052.358-.104.716-.173,1.072l-.072.374c-.221,1.137-.449,2.314-.764,3.444-.087.309-.187.614-.288.919-.192.582-.39,1.186-.498,1.828-.039.232-.084.461-.129.689-.118.6-.239,1.219-.254,1.867-.015.66.179,1.147.629,1.575l.126.121.778.044.107-.047c.382-.175.626-.433.799-.732.088.072.194.133.324.182.496.184.891.125,1.286.044.911-.188,1.769-.512,2.601-.826.632-.239,1.286-.486,1.939-.66.746-.2,1.486-.423,2.226-.647,1.336-.402,2.716-.816,4.089-1.075,2.125-.4,4.214-1,6.233-1.582.685-.196,1.369-.395,2.057-.584.904-.249,1.807-.503,2.711-.758,2.285-.644,4.648-1.309,6.986-1.889.686-.17,1.383-.314,2.079-.458.602-.125,1.205-.249,1.802-.389,1.834-.433,3.735-.911,5.651-1.419,1.783-.475,3.559-.974,5.334-1.47l1.113-.312c.482-.137.963-.277,1.444-.419.694-.204,1.388-.409,2.086-.593.827-.219,1.658-.419,2.489-.621.484-.116.968-.233,1.452-.353.164-.042.324-.098.493-.158l.41-.14.775-1.684.043-.168c.045-.756-.286-1.61-.628-2.419-.557-1.312-1.277-2.544-1.973-3.737-.185-.316-.369-.632-.55-.947-.168-.295-.343-.584-.518-.872-.353-.584-.686-1.135-.966-1.721-.784-1.644-1.788-3.165-2.758-4.635-.277-.421-.554-.84-.827-1.265-.837-1.3-1.932-3.021-2.981-4.803-.639-1.086-1.353-2.137-2.045-3.151-.326-.481-.652-.96-.971-1.444-1.234-1.872-2.45-3.802-3.626-5.67l-.94-1.493c-.868-1.372-1.726-2.751-2.567-4.14-.688-1.137-1.358-2.286-2.01-3.444-.31-.553-.609-1.109-.907-1.667-.494-.923-1.004-1.875-1.563-2.786-1.572-2.561-3.059-4.881-4.545-7.089-.532-.789-1.12-1.551-1.688-2.286-.485-.626-.97-1.253-1.423-1.902-.589-.842-1.149-1.735-1.689-2.598-.278-.446-.556-.889-.84-1.33-.771-1.198-1.698-2.435-2.917-3.898-.652-.782-1.25-1.723-1.882-2.958-.158-.307-.354-.581-.545-.844-.08-.112-.16-.223-.236-.337l-.196-.289-.25.075c.109-.393.222-.784.334-1.177.116-.404.233-.811.345-1.218l.151-.532c.308-1.077.625-2.188.674-3.365,0-.002.002-.004.004-.005.03-.044.061-.089.088-.137l.139-.246-.603-.972c.02-.828-.383-1.5-1.202-2-.214-.13-.425-.268-.634-.405-.698-.458-1.421-.933-2.324-1.163-.975-.246-1.936-.281-2.923-.098l-.686-1.284c-.634-1.191-1.267-2.381-1.918-3.56-.374-.677-.733-1.363-1.093-2.047-.993-1.895-2.02-3.853-3.349-5.605-1.06-1.4-1.986-2.926-2.882-4.402l-.343-.567c-.439-.719-.853-1.453-1.267-2.188-.352-.623-.704-1.247-1.071-1.861-.204-.342-.439-.665-.676-.988-.173-.235-.347-.472-.506-.718l-.764-1.172c-.781-1.193-1.588-2.428-2.314-3.674-1.097-1.886-2.328-3.717-3.517-5.488l-.197-.293c-.828-1.233-1.627-2.486-2.427-3.739-.656-1.026-1.312-2.054-1.983-3.072-.494-.747-1.012-1.479-1.53-2.212-.463-.654-.927-1.311-1.373-1.975-.616-.923-1.168-1.837-1.641-2.721-.883-1.646-1.904-3.289-3.124-5.024-1.01-1.435-1.7-2.674-2.168-3.896-.143-.374-.324-.726-.5-1.067-.093-.182-.187-.365-.274-.549l-.812-1.725c-.323-.688-.646-1.375-.971-2.061-.544-1.14-.373-2.175.521-3.161.272-.3.565-.582.827-.837l.264-.258,1.89-.749c.184.021.486.193.942.816.344.467.778.775,1.27.947l-.443.056-.152-.263-.078.082c-.178-.111-.394-.154-.644-.118l-.532.079.144.516c.044.158.116.286.204.393l-.387.405.849-.056.133.402.196-.214c.033.021.063.04.103.065l.587.391.141-.691c.048-.235.008-.423-.081-.581l.334-.363c.15.028.301.054.461.056l1.677.012-1.528-.954c-.065-.039-.13-.079-.189-.119l-.087-.06c-.089-.06-.181-.121-.261-.193-.065-.06-.137-.118-.21-.175-.092-.074-.246-.196-.268-.253-.346-.914-1.075-1.307-1.734-1.603-.248-.112-.503-.207-.778-.307l-.59-.223-.188.095c-.168.084-.342.167-.52.251-.426.202-.866.409-1.287.677-.884.561-1.887,1.244-2.599,2.228-.835,1.156-1.071,2.525-.662,3.856.525,1.714,1.204,3.488,2.137,5.581.693,1.554,1.565,3.37,2.778,5.026.317.433.636.865.955,1.296.556.751,1.112,1.5,1.654,2.261.431.605.835,1.23,1.24,1.853l1.028,1.577c.993,1.521,1.986,3.044,2.967,4.572.525.819,1.039,1.646,1.553,2.474.38.611.761,1.221,1.146,1.832,1.131,1.788,2.436,3.482,3.701,5.124.884,1.149,1.737,2.44,2.609,3.947.528.912,1.117,1.802,1.687,2.661.325.488.648.977.963,1.472,1.267,1.995,2.704,4.254,3.815,6.623.779,1.661,1.744,3.237,2.677,4.76l.691,1.133c1.011,1.674,2.031,3.344,3.061,5.007.414.668.838,1.332,1.261,1.995.314.491.627.981.937,1.474.137.218.282.43.427.642.451.66.877,1.284,1.042,2.051l-.62,3.109c-.103.514-.205,1.03-.317,1.544-.046.209-.097.418-.15.626-.089.36-.179.719-.239,1.082-.056.349-.088.7-.119,1.051-.027.298-.054.596-.097.891-.123.83-.248,1.64-.433,2.43-.082.353-.146.711-.208,1.065-.054.311-.109.619-.178.925-.072.319-.098.632-.125.935-.033.389-.064.76-.191,1.102-.111.296-.125.593-.14.879-.011.216-.022.419-.074.602-.121.425-.151.854-.18,1.272-.017.24-.033.481-.069.718-.131.851-.29,1.702-.461,2.547l-.076.367c-.121.577-.247,1.174-.279,1.803-.019.388-.091.777-.168,1.189-.061.33-.121.661-.156.993-.095.895-.283,1.761-.436,2.416-.145.621-.272,1.247-.398,1.874-.09.449-.18.896-.278,1.342-.1.463-.183.928-.267,1.391l-.094.523c-.05.272-.081.547-.111.825-.047.426-.091.828-.213,1.214-.114.358-.136.723-.157,1.074-.013.211-.025.421-.06.628l-.128.775c-.086.532-.172,1.063-.278,1.595-.06.3-.082.609-.104.918-.019.274-.037.549-.091.825-.133.675-.204,1.365-.271,2.032-.05.489-.099.981-.175,1.467-.093.603-.161,1.211-.227,1.816-.058.528-.117,1.054-.193,1.579-.034.232-.061.465-.088.698-.075.656-.147,1.275-.373,1.861-.15.389-.203.791-.254,1.181l-.047.34c-.068.439-.127.881-.186,1.323-.117.881-.238,1.791-.436,2.66-.141.618-.259,1.239-.376,1.861-.115.607-.229,1.216-.368,1.821-.145.628-.175,1.27-.204,1.893-.01.207-.019.412-.034.618-.027.398-.042.796-.057,1.196-.029.767-.055,1.493-.166,2.212-.247,1.603-.37,2.851-.4,4.044-.01.411-.1.83-.195,1.272-.047.221-.094.44-.132.663-.025.147-.039.298-.045.447-.068,1.688-.474,3.349-.863,4.749l-.082.286c-.104.351-.212.716-.246,1.105-.043.477-.18.942-.327,1.435-.159.535-.324,1.089-.367,1.688-.002.021-.019.077-.032.119-.032.098-.069.219-.075.363-.077,1.918-.146,3.835-.214,5.751-.036.982-.189,1.984-.47,3.06-.184.709-.382,1.414-.581,2.119-.175.625-.35,1.247-.515,1.874-.046.174-.048.339-.042.5l-.946.23c-1.065.26-2.125.518-3.187.768-1.639.389-3.051.851-4.315,1.41-.898.4-1.703.579-2.538.577-1.057.009-2.063.318-3.016.637l-.166.056c-1.4.467-3.047,1.06-4.641,1.91-.333.177-.694.314-1.076.458-.164.061-.328.123-.489.188-1.047.423-1.941,1.07-2.767,1.698-.182.137-.375.261-.585.396l-.449.296-.057.112c-.611,1.214-.564,2.574-.513,4.033l.004.119,1.142,1.947-.178.835.392.879,1.414.556.191-.1c.035-.018.07-.039.129-.077,1.296-.049,2.515-.407,3.695-.754.329-.096.657-.193.987-.282,1.716-.467,3.394-.928,5.051-1.432.632-.193,1.252-.425,1.872-.656.357-.133.714-.268,1.074-.395.545-.189,1.091-.372,1.638-.554,1.125-.377,2.289-.765,3.415-1.214.32-.128.637-.263.954-.4.701-.304,1.363-.588,2.068-.782.623-.17,1.245-.349,1.866-.528,1.22-.349,2.482-.712,3.732-1.011,1.181-.281,2.398-.516,3.576-.744.803-.156,1.607-.312,2.408-.482,3.178-.677,5.922-1.403,8.39-2.219,1.297-.43,2.65-.767,3.959-1.093l1.056-.267c1.844-.472,3.696-.912,5.549-1.351.769-.181,1.54-.351,2.311-.525.775-.172,1.549-.346,2.322-.526,1.733-.409,3.463-.828,5.19-1.263l1.09-.277c1.543-.396,3.138-.805,4.731-1.079.745-.126,1.481-.318,2.192-.502.614-.16,1.25-.323,1.874-.442,1.475-.281,2.787-.591,4.012-.947.669-.196,1.334-.404,1.999-.614.874-.274,1.748-.547,2.631-.789.817-.226,1.628-.468,2.439-.712,1.719-.516,3.496-1.049,5.286-1.379.61-.112,1.201-.291,1.773-.467.254-.077.508-.154.761-.225l.584-.163-.367-.654c-.142-.272-.336-.644-.832-.84Zm-49.56-43.482c.139-.842.168-1.698.196-2.526.011-.356.024-.711.044-1.065.02-.332.025-.663.03-.995.01-.625.019-1.212.122-1.809.092-.528.1-1.06.108-1.574.009-.542.017-1.054.115-1.556.069-.351.089-.702.11-1.04.021-.381.042-.739.128-1.067.15-.579.22-1.163.288-1.728.068-.565.131-1.096.268-1.618.1-.381.142-.767.181-1.139l.041-.365c.026-.211.043-.425.059-.639.031-.402.059-.781.157-1.128.204-.725.302-1.458.396-2.168.046-.342.092-.684.149-1.023.045-.267.096-.532.146-.8.149-.786.303-1.6.328-2.442.018-.63.184-1.27.382-1.981l.135-.472c.189-.656.386-1.333.469-2.053.027-.228.066-.46.112-.693.359.825.786,1.579,1.226,2.332.396.677.797,1.351,1.199,2.026.847,1.425,1.723,2.896,2.535,4.368.576,1.042,1.257,2.251,2.046,3.377.376.537.77,1.06,1.164,1.584.482.642.98,1.303,1.431,1.975.777,1.158,1.532,2.332,2.286,3.507.602.935,1.203,1.87,1.816,2.796.385.584.8,1.146,1.215,1.709.229.311.459.621.682.935.575.807,1.059,1.702,1.527,2.568.214.398.429.795.653,1.186l.159.279c.554.97,1.127,1.972,1.74,2.933.281.442.566.881.85,1.319,1.053,1.628,2.143,3.31,3.049,5.056.343.661.77,1.275,1.236,1.947.525.761,1.066,1.51,1.606,2.261.929,1.291,1.891,2.626,2.757,3.988.527.83,1.081,1.642,1.635,2.454.513.753,1.025,1.503,1.517,2.27.261.407.53.807.799,1.209.69,1.028,1.403,2.089,1.941,3.221.637,1.337,1.362,2.647,2.063,3.912.491.888,1.051,1.83,1.711,2.874.273.435.566.856.86,1.277.19.274.381.547.566.825-.105.009-.21.018-.314.026-.698.054-1.358.107-2.016.275-1.563.4-3.136.849-4.659,1.284-.874.251-1.748.5-2.624.742-1.863.516-3.731,1.014-5.603,1.496-1.372.353-2.752.677-4.133.989-1.404.319-2.584.577-3.778.8-1.519.284-2.762.584-3.914.944-.745.233-1.488.472-2.231.711-1.224.393-2.446.786-3.678,1.153-2.06.612-4.503,1.311-6.989,1.84-1.36.288-2.707.695-4.01,1.088-.691.209-1.383.416-2.077.609-.417.116-.829.244-1.242.372-.989.305-1.922.595-2.912.718-.443.054-.838.24-1.22.419-.117.054-.234.111-.352.16-.215.091-.427.188-.645.289.014-.047.027-.095.04-.144.132-.479.269-.974.357-1.481.075-.437.121-.881.166-1.323.065-.637.126-1.239.275-1.816.193-.747.334-1.507.471-2.242.09-.484.181-.968.286-1.451.131-.603.243-1.212.354-1.819.136-.747.273-1.495.448-2.233.07-.3.111-.609.151-.916.02-.153.04-.305.064-.458l.027-.172c.077-.479.153-.96.241-1.437.067-.363.139-.726.211-1.088.109-.551.218-1.103.313-1.658.039-.233.057-.474.073-.712.023-.342.044-.665.143-.93.222-.598.294-1.2.363-1.781.05-.419.097-.816.197-1.2.1-.382.122-.767.143-1.137.019-.321.036-.625.102-.902.07-.3.09-.591.109-.872.018-.268.034-.523.096-.742.145-.511.229-1.023.311-1.519.068-.412.135-.825.239-1.23.153-.603.252-1.219.348-1.814.092-.565.186-1.149.324-1.702.402-1.603.724-3.293.986-5.167.029-.204.043-.412.057-.618.024-.34.046-.661.135-.932.106-.325.129-.628.149-.896.009-.114.017-.226.032-.34.023-.17.055-.34.087-.509.039-.214.079-.428.105-.642.029-.239.042-.482.054-.726.023-.439.044-.851.164-1.207.154-.46.181-.902.207-1.33.021-.351.041-.682.13-.995.12-.421.134-.849.148-1.263.009-.275.017-.553.062-.826ZM3.233,342.536c-.146.061-.294.121-.441.181-.003-.011-.004-.028-.006-.051l.447-.13Z" stroke-width="0"/>
      <path d="m92.424,315.938h.172c1.355,0,2.372-.521,3.022-1.549.585-.925.618-1.954.093-2.825-.512-.847-1.42-1.258-2.477-1.13l-1.218.6-1.26,2.112-.063.179-.009.112c-.035.449-.093,1.203.559,1.868l1.181.632Z" stroke-width="0"/>
      <path d="m7.265,341.025l.423-.184c.087-.037.17-.072.252-.111.971-.463,1.463-1.27,1.421-2.332-.01-.265-.007-.53-.005-.803l.003-.586-.952-1.019h-1.538l-.853.937v1.247l.392.788v1.167l.857.896Z" stroke-width="0"/>
      <path d="m217.431,354.179c-.182-.212-.362-.425-.537-.642l-.148-.184-.236.009c-.073.005-.148-.004-.219-.009-.339-.026-.847-.058-1.25.5l-.075.156c-.118.446-.1,1.118.655,1.789.453.402.908.802,1.368,1.207l.616.542.182.105.143.019c.077.011.179.025.293.025.28,0,.639-.082.91-.496l.136-.205-.092-.23c-.404-1.011-1.086-1.81-1.745-2.586Z" stroke-width="0"/>
      <path d="m4.528,337.572l-.132-.018-.122.056c-.792.363-.956,1.056-1.087,1.614-.045.191-.089.386-.164.567l-.084.204.633,1.228.386-.13c1.31-.439,1.759-1.509,1.983-2.275l.068-.235-.152-.193c-.511-.644-.618-.733-1.329-.818Z" stroke-width="0"/>
      <path d="m214.864,283.21c.287-.398.713-.567,1.208-.76.33-.13.672-.263,1.002-.479l.418-.27-.705-.977-.186-.033c-.979-.184-1.719.233-2.314.667-.743.542-.532,1.211-.228,1.795l.357.682.45-.625Z" stroke-width="0"/>
      <path d="m133.466,303.796c.339.235.825.521,1.358.521.107,0,.217-.012.328-.039.558-.13,1.026-.584,1.518-1.474l.054-.161c.183-1.253-.273-2.105-1.356-2.533l-.204-.081-.404.214c-.631.326-.696.433-1.09,1.296l-.07.154.226.875-.792.928.432.298Z" stroke-width="0"/>
      <polygon points="131.755 304.713 131.755 303.52 130.442 302.506 129.032 303.485 129.032 304.626 130.383 305.675 131.755 304.713" stroke-width="0"/>
    </g>
  </g>
</svg>