<?xml version="1.0" encoding="UTF-8"?>
<svg id="b" data-name="Layer 2" xmlns="http://www.w3.org/2000/svg" width="2373.604" height="1465.212" viewBox="0 0 2373.604 1465.212">
  <g id="c" data-name="Layer 1">
    <g id="d" data-name="1">
      <g>
        <path d="m36.716,962.789c-.616.284-1.223.626-1.821.977-1.697.977-3.622,2.067-5.888,2.152-8.373.303-12.26,6.126-16.783,12.848l-.863,1.28c-.664,2.911-1.991,5.405-3.262,7.832-1.527,2.864-2.949,5.576-2.949,8.534v1.233l-.834.901c-.901.977-1.015,2.352-1.147,4.504-.114,1.982-.247,4.22-1.46,6.268-2.636,4.419-1.707,8.676-.616,13.626.484,2.276,1.005,4.618,1.166,7.064,6.391,16.859,14.261,30.39,24.037,41.371,4.428,4.959,9.255,9.757,13.929,14.422,2.551,2.551,5.12,5.111,7.643,7.7,4.713,4.826,9.255,9.805,13.816,14.792,6.865,7.538,13.986,15.314,21.534,22.406,4.504,4.22,8.923,8.525,13.351,12.839,6.818,6.647,13.882,13.531,21.117,19.941,2.513,2.238,5.007,4.504,7.5,6.77,5.585,5.101,11.36,10.364,17.362,15.039,3.954,3.091,7.823,6.277,11.682,9.473,5.443,4.495,11.085,9.141,16.84,13.37,2.617,1.896,5.139,3.954,7.662,6.012,2.674,2.171,5.357,4.352,8.155,6.353,2.864,2.058,5.557,4.286,8.268,6.533,2.465,2.039,4.931,4.087,7.519,5.955,4.286,3.129,8.477,6.429,12.659,9.729,3.565,2.816,7.15,5.632,10.8,8.344,9.586,7.14,19.875,14.678,30.789,21.42,8.098,5.007,16.072,10.44,23.791,15.693,3.233,2.2,6.467,4.4,9.729,6.59,2.759,1.849,5.509,3.727,8.259,5.613,6.552,4.457,13.313,9.074,20.14,13.275,7.358,4.504,14.546,9.283,21.724,14.072,4.959,3.29,9.899,6.571,14.906,9.786,9.454,6.05,18.86,12.156,28.276,18.272l10.411,6.751c9.397,6.088,19.391,11.72,29.044,17.163l6.467,3.651c5.376,3.053,11.18,5.67,16.783,8.202,6.884,3.11,13.996,6.315,20.633,10.44,4.314.645,7.861,2.617,11.303,4.532,1.64.91,3.29,1.84,5.007,2.57,6.6,2.788,12.251,5.433,17.286,8.079,4.902,2.551,10.042,4.722,15.778,7.083l2.115.872c10.165,4.22,20.7,8.591,31.623,10.658l1.337.588c2.494,1.896,5.67,2.608,9.037,3.347,1.46.322,2.902.645,4.305,1.052,1.498.436,2.977.977,4.485,1.527,3.565,1.28,6.969,2.551,10.411,2.257l1.233-.085.977.768c1.479,1.195,3.489,1.422,5.813,1.678,2.276.256,4.855.55,7.225,1.877,2.096,1.166,4.324,1.318,6.903,1.489l2.295.18c2.257.218,4.239,1.015,5.983,1.707,1.821.749,3.603,1.517,5.045,1.346h.398c4.893,0,9.899.91,15.702,2.864,2.826.948,6.116,1.043,9.587,1.128,1.735.038,3.47.085,5.158.228.863.076,2.143.294,3.414.939,5.291,2.721,11.682,1.593,17.883,2.095,1.783-.834,3.66-1.128,5.329-1.384,2.399-.389,3.632-.654,4.324-1.498l.332-6.315-.512-.465c-1.489-1.28-3.091-2.684-4.485-4.277-2.209-2.541-5.082-4.428-9.577-6.306-1.204-.512-2.456-.948-3.689-1.403-1.337-.474-2.674-.967-3.983-1.498-4.068-1.707-8.24-2.911-12.659-4.182-4.001-1.157-8.136-2.352-12.147-3.945-2.968.218-5.234-.977-7.15-1.925-1.1-.55-2.143-1.081-3.11-1.242-1.64-.303-3.271-.863-4.893-1.422-1.745-.607-3.385-1.166-4.902-1.28-4.608-.351-8.743-1.802-12.735-3.196-1.299-.465-2.579-.91-3.869-1.318-7.396-2.352-14.802-4.608-22.207-6.884l-11.322-3.47c-7.519-2.314-14.953-4.836-22.378-7.368l-8.837-2.977c-8.439-2.826-16.509-6.647-24.322-10.364l-8.06-3.774c-5.557-2.57-11.284-5.215-16.67-8.572-3.888-.541-7.026-2.494-9.795-4.239-1.384-.872-2.769-1.745-4.248-2.418-5.282-2.371-9.833-4.637-13.929-6.903-19.913-11.018-37.578-21.477-54.03-31.983-6.988-4.466-13.882-9.037-20.747-13.664-3.262-2.181-6.457-4.466-9.653-6.742-4.163-2.968-8.306-5.917-12.611-8.676-7.254-4.665-14.394-9.691-21.297-14.555-5.215-3.67-10.421-7.349-15.731-10.886-6.846-4.57-13.465-9.653-19.875-14.574-2.902-2.219-5.803-4.457-8.733-6.638l-9.397-6.988c-6.05-4.485-12.09-8.97-18.102-13.522l-4.087-3.091c-7.937-6.021-16.148-12.232-24.037-18.642-7.956-6.486-15.74-13.161-23.525-19.846l-7.32-6.268c-3.433-2.93-6.846-5.907-10.25-8.885-6.884-6.012-14.005-12.223-21.278-17.921-7.32-5.718-14.29-11.957-21.041-17.988-2.579-2.314-5.177-4.637-7.794-6.922-1.062-.939-2.171-1.821-3.271-2.721-1.697-1.375-3.385-2.75-4.959-4.239-1.195-1.128-2.295-2.399-3.404-3.66-1.527-1.773-2.968-3.442-4.608-4.57-3.233-2.238-5.869-4.893-8.411-7.463l-2.513-2.494c-1.584-1.527-3.233-2.987-4.883-4.457-2.219-1.982-4.438-3.954-6.524-6.069-2.02-2.039-4.001-4.106-5.993-6.173-4.504-4.703-9.179-9.549-14.1-13.939-4.248-3.783-8.24-7.918-12.109-11.919-2.987-3.091-5.993-6.201-9.131-9.179-6.287-5.974-12.09-12.554-17.703-18.936-2.285-2.598-4.561-5.177-6.865-7.728-3.916-4.314-7.5-8.714-8.335-14.915.294-13.588.408-14.384,3.006-21.714.863-2.427,2.02-5.699,3.584-10.696l.73-2.314c1.422-4.362,2.655-8.155,1.896-12.175l-1.422-6.495-.702.322.047-.028Z" stroke-width="0"/>
        <path d="m492.108,305.464c-2.949-.247-5.613-1.166-8.193-2.058-2.769-.967-5.187-2.001-8.088-1.783-6.012.152-11.284-.133-16.148-.901-2.427-.389-4.855.247-7.462.872-2.276.578-4.618,1.166-7.225,1.195-1.346.009-2.987.749-4.751,1.536l-1.849.797c-2.209.91-4.381,1.915-6.533,2.902l-3.034,1.384c-6.429,4.789-11.388,11.777-14.603,21.022l-.645,11.957-7.956,10.402c-5.983,7.785-11.929,15.532-17.817,23.345-1.811,2.399-3.651,4.789-5.481,7.169-5.253,6.846-10.696,13.901-15.371,21.212-5.234,8.164-11.085,16.034-16.727,23.649-4.352,5.869-8.705,11.72-12.81,17.76-4.144,6.088-8.439,12.08-12.725,18.092-2.361,3.309-4.741,6.628-7.074,9.947-9.729,13.825-19.258,28.172-28.475,42.035l-9.757,14.622c-4.599,6.856-9.207,13.711-13.683,20.633-6.666,10.336-13.531,20.567-20.406,30.789l-8.932,13.379c-6.59,9.871-13.171,19.761-19.884,29.546-5.395,7.842-10.63,15.788-15.854,23.743-5.376,8.183-10.762,16.347-16.309,24.398-2.171,3.158-4.163,6.448-6.154,9.719-2.096,3.452-4.201,6.903-6.486,10.222-7.045,10.184-12.45,18.642-17.04,26.607l-10.819,18.794c-14.868,25.811-29.736,51.631-44.434,77.526-3.47,6.097-7.462,11.853-11.341,17.409l-2.437,3.518c-2.257,3.271-4.561,6.524-6.846,9.786-7.728,10.952-15.731,22.293-22.122,34.269l-3.556,6.6c-3.651,6.77-7.292,13.531-10.724,20.406-1.147,2.285-2.029,4.713-2.911,7.14-.863,2.333-1.707,4.665-2.769,6.903-.531,1.147-.626,2.646-.73,4.22-.18,2.617-.408,5.841-2.731,8.657-.009.209,0,.408,0,.607-.009.834-.076,1.64-.152,2.465-.18,2.323-.256,3.821.578,5.263.977,1.678,1.166,3.556,1.318,5.054.028.247.047.484.085.721l4.532,6.239-.389,1.925,7.225-2.247c.531-.702.986-1.309,1.413-1.925,3.082-4.495,5.338-9.397,7.737-14.584,1.422-3.091,2.854-6.173,4.438-9.179,4.532-8.477,9.691-16.689,14.688-24.635,4.893-7.794,9.947-15.845,14.337-24.047.408-.759.787-1.527,1.157-2.314,1.062-2.238,2.171-4.542,3.954-6.505,2.977-3.29,5.12-7.102,7.406-11.142,1.204-2.152,2.418-4.314,3.745-6.381,3.783-5.841,7.567-12.052,11.568-19.012,12.365-21.496,24.711-42.983,36.914-64.593,13.379-23.724,29.414-51.744,46.795-79.527.209-.322.332-.664.474-1.005.294-.692.664-1.565,1.299-2.39,6.088-8.06,11.815-16.641,17.514-26.228,2.171-3.66,4.599-7.169,7.026-10.667l22.075-32.562c3.565-5.319,7.083-10.667,10.601-16.025,3.622-5.5,7.225-10.999,10.905-16.461,4.352-6.457,8.534-13.029,12.706-19.59,4.276-6.713,8.534-13.427,12.991-20.026,3.442-5.101,6.789-10.25,10.155-15.39,3.736-5.737,7.472-11.473,11.322-17.125l35.188-51.801c10.99-16.205,23.819-35.027,36.876-53.518,2.494-3.508,4.883-7.083,7.282-10.667,2.209-3.271,4.4-6.562,6.675-9.795,1.195-1.735,3.167-4.902,8.382-4.286l1.309.171.797,1.043c.218.284.503.578.787.901.91,1.024,2.058,2.295,2.797,3.945,3.869,8.837,10.004,16.499,15.949,23.905,8.42,10.544,17.77,21.553,29.044,30.836l3.594,2.977c8.344,6.922,16.973,14.062,25.905,20.444l5.756,4.087c8.297,5.869,16.869,11.929,24.777,18.689,14.062,12.014,28.57,23.781,43.116,34.961,8.136,6.268,16.689,12.289,24.758,17.902,9.33,6.505,18.756,12.905,28.257,19.182l6.78,4.485c12.905,8.553,26.247,17.381,39.825,25.289,3.708,2.152,7.425,4.286,11.132,6.419,6.894,3.954,13.778,7.908,20.586,12.014,8.354,5.016,16.527,10.554,24.436,15.921,5.974,4.049,11.938,8.088,18.035,11.967l8.126,5.215c6.751,4.362,13.749,8.875,20.747,12.905,7.178,4.134,14.318,8.335,21.458,12.535,19.941,11.739,40.546,23.867,61.682,34.136,5.5,2.674,10.914,5.5,16.319,8.316,7.652,3.992,15.56,8.126,23.525,11.701,2.399,1.062,4.684,2.295,6.998,3.546,2.494,1.337,4.997,2.683,7.652,3.812,5.623,2.361,11.066,4.921,16.186,7.624,4.978,2.636,9.899,4.997,14.584,7.007l3.148,1.403c4.324,1.953,8.42,3.783,12.659,4.722,7.5,1.678,14.64,4.39,21.544,7.007,5.689,2.171,11.568,4.4,17.485,5.983,2.977.797,5.87,1.896,8.752,3.015,1.896.73,3.812,1.479,5.756,2.105,1.678.55,3.385,1.053,5.101,1.555,3.158.92,6.419,1.877,9.615,3.186,1.859.759,4.049,1.043,6.353,1.346,2.788.37,5.67.759,8.6,1.982,2.911,1.242,7.083,1.024,10.487.844,3.376-.171,5.756.806,8.06,1.678,1.697.626,3.29,1.223,4.855,1.299,12.877.569,25.754,1.299,38.621,2.029l15.38.872c5.519.142,10.961-1.802,15.75-3.67,1.934-.759,3.632-2.029,5.253-3.983-.73-1.479-2.039-2.181-4.248-3.29-.787-.389-1.565-.787-2.314-1.223l-3.442-.18c-5.215-.266-10.563-.55-15.911-.872-1.147-.066-2.257-.076-3.47-.047-3.053.038-6.306.009-9.349-1.09-6.23-2.238-12.649-2.541-19.448-2.864-3.518-.171-7.036-.332-10.516-.768-.436-.066-.872-.038-1.28-.009-1.451.009-3.262.066-4.855-1.024-2.333-1.631-5.073-1.764-8.221-1.915-1.441-.076-2.864-.142-4.276-.351-.512-.066-1.081-.076-1.64-.076-1.697-.038-3.812-.085-5.576-1.318-2.105-1.479-4.58-1.593-7.444-1.716l-1.233-.066c-3.452-.18-6.59-1.166-9.605-2.133-2.987-.939-5.813-1.84-8.676-1.849h-1.233l-.901-.863c-.825-.768-1.925-.948-3.802-1.204-.872-.114-1.764-.247-2.617-.446-1.413-.351-2.731-.901-4.058-1.479-1.555-.683-2.902-1.261-4.352-1.365-2.209-.152-4.163-.948-5.87-1.659-1.489-.616-2.902-1.185-4.286-1.299-3.091-.247-5.945-1.28-8.705-2.285l-2.171-.768c-.986-.351-1.925-.825-2.864-1.309-.825-.427-1.593-.834-2.257-1.005-9.89-2.494-18.936-6.552-28.911-11.198-2.939-1.375-5.917-2.655-8.894-3.945-6.533-2.797-13.275-5.699-19.571-9.539-4.087-.797-7.519-2.674-10.867-4.485-2.143-1.166-4.172-2.276-6.277-3.053-4.713-1.745-9.15-4.125-13.446-6.419l-6.097-3.195c-4.788-2.475-9.757-5.035-14.479-7.937-4.561-2.797-9.188-5.481-13.816-8.164-6.827-3.983-13.901-8.088-20.7-12.516-10.165-6.647-21.098-12.63-31.661-18.424-3.385-1.849-6.77-3.698-10.146-5.576-23.317-12.981-43.362-25.573-61.255-38.526-10.886-7.87-22.122-15.171-33.368-21.724-12.915-7.5-26.332-15.854-42.253-26.266-12.877-8.458-25.64-17.457-37.976-26.171l-4.826-3.404c-13.825-9.767-25.792-19.182-36.554-28.807l-.863-.768c-6.666-5.955-13.541-12.118-20.538-17.722-5.338-4.267-10.516-8.714-15.693-13.171-5.291-4.561-10.582-9.112-16.053-13.465l-5.471-4.314c-10.772-8.458-21.894-17.201-31.263-27.811-4.969-3.158-8.676-7.434-12.289-11.578-1.365-1.584-2.75-3.158-4.201-4.703l-1.204-1.271.436-1.697c.332-1.271.882-2.503,1.46-3.745,1.053-2.276,1.84-3.945,1.053-6.382-.749-1.043-1.451-2.02-2.285-2.864-5.443-5.557-9.861-11.815-13.522-19.126-1.602-3.214-3.11-6.467-4.608-9.729-1.631-3.546-3.262-7.102-5.045-10.601l-.351-1.422-.028-2.456c-.066-3.233-.114-6.59.654-10.042l.284-1.204,2.323-1.64c1.015-.768,2.077-1.555,3.347-2.115,6.05-2.721,22.482-6.069,29.689-6.069,1.261.009,2.285.104,3.433.19,1.925.171,3.916.322,5.082-.152,3.129-1.309,6.012-1.309,8.733-1.309,1.043.009,2.152,0,3.196-.104l6.391-3.091.578-1.024c.806-1.422,1.621-2.864,2.399-4.314-1.707-5.879-5.433-10.07-12.232-13.768l.038-.085Z" stroke-width="0"/>
        <path d="m2373.272,883.555l.332-6.41c-.284-.569-.55-1.147-.825-1.735-.759-1.621-1.46-3.148-2.371-4.352-3.186-4.21-6.419-8.411-9.643-12.592l-2.655-3.442c-4.561-5.936-9.511-11.748-14.318-17.381-4.172-4.883-8.335-9.767-12.336-14.802-7.187-9.074-15.352-17.798-24.986-26.645-5.082-4.665-9.795-9.786-14.356-14.735-5.253-5.699-10.686-11.606-16.603-16.708-6.95-7.984-13.778-15.475-20.595-22.956-12.118-13.275-24.635-27.005-35.805-41.627-4.466-5.841-9.397-11.53-14.157-17.039-4.722-5.452-9.615-11.094-14.119-16.964-4.864-6.334-10.288-12.431-15.532-18.339-5.955-6.713-12.118-13.664-17.627-21.079-4.163-5.585-8.875-10.98-13.427-16.205-4.722-5.405-9.615-10.999-14.024-16.945-4.248-5.756-9.074-11.284-13.749-16.641-4.352-4.978-8.837-10.127-12.943-15.522-5.007-6.59-10.592-12.943-15.996-19.088-5.471-6.23-11.123-12.659-16.281-19.429-5.301-6.988-11.312-13.683-17.115-20.169-6.495-7.263-13.228-14.792-19.173-22.871-3.689-5.035-7.946-9.824-12.071-14.47-4.741-5.329-9.643-10.848-13.882-16.907-3.167-4.532-6.932-8.572-10.914-12.848-2.39-2.57-4.76-5.12-7.007-7.794-2.864-3.385-5.623-6.865-8.382-10.345-3.167-3.983-6.334-7.975-9.653-11.834-6.533-7.576-13.237-15.01-19.941-22.444l-8.041-8.923c-3.916-4.4-7.624-8.553-12.355-11.635-1.669-1.062-2.797-2.646-3.546-3.689l-.607-.692-.55-1.498c-1.716-12.27-4.39-25.024-12.185-35.065l-2.058-1.593c-1.479-1.223-2.835-2.352-4.248-3.414l-1.271-.977c-1.991-1.517-3.992-3.044-6.125-4.324-2.636-1.565-5.651-2.427-8.847-3.338-2.797-.797-5.699-1.621-8.496-2.977-1.195-.578-3.167-.55-5.073-.569l-6.021-.142c-6.856-.218-13.427-.436-20.131.749l-4.201.73c-10.118,1.773-14.726,2.57-26.18,6.287-4.001,1.299-7.937,2.797-11.872,4.286-4.76,1.821-9.691,3.698-14.735,5.196-6.382,1.915-10.288,4.94-12.289,9.549l-.872,2.001-7.614-.389-.863-.882c-3.594-3.651-7.112-7.406-10.63-11.18-5.832-6.23-11.853-12.668-18.206-18.576-5.519-5.12-10.98-10.307-16.433-15.494-4.608-4.381-9.236-8.752-13.882-13.095-5.5-5.149-11.028-10.231-16.565-15.333l-11.388-10.506c-4.058-3.745-8.164-7.444-12.27-11.142-4.134-3.726-8.268-7.434-12.355-11.217-10.364-9.577-21.61-19.59-35.397-31.519-1.043-.901-2.105-1.783-3.158-2.655-2.352-1.953-4.684-3.888-6.846-6.031-3.091-3.072-6.457-5.756-10.013-8.572-2.371-1.896-4.76-3.783-7.036-5.794-6.732-5.917-13.825-11.644-20.7-17.182l-6.638-5.357c-13.711-11.17-26.209-20.017-37.132-26.323-2.371-1.375-4.789-2.693-7.206-4.02-5.5-3.015-11.198-6.154-16.471-9.833-11.255-7.861-22.852-14.878-34.743-21.97-7.292-4.352-15.228-8.05-22.89-11.635-3.3-1.536-6.59-3.082-9.852-4.675-2.314-.047-4.106-1.062-5.585-1.896-.787-.436-1.527-.863-2.153-1.015-10.146-2.437-20.064-5.879-29.66-9.207-5.414-1.887-10.819-3.764-16.29-5.481-10.288-3.224-19.979-6.268-27.773-6.372-5.082-.085-10.193-.436-15.276-.787l-6.429-.427c-.512-.028-1.052,0-1.622.009-1.773.009-3.736.104-5.594-.872-4.125-2.181-8.676-2.314-13.493-2.456-2.608-.076-5.196-.152-7.756-.531-1.005-.142-2.095-.085-3.148-.104-2.371.085-5.082.076-7.406-1.242-3.148-1.802-6.59-1.859-10.222-1.934l-2.285-.047c-3.196-.133-6.382-.389-9.577-.645-8.752-.692-17.002-1.365-25.166.664l-.55.133-.569-.066c-5.945-.664-11.597.844-17.58,2.456l-3.271.863c-2.617.683-4.893,2.02-7.292,3.442-1.555.92-3.11,1.84-4.76,2.608-2.077.967-3.404,3.442-4.798,6.05l-.408.768c-.171.322-.284.692-.427,1.062l-.104.284-.294,5.756,2.238,4.76,4.57,2.57,8.098.427.228-.142c.844-.503,1.802-1.081,2.977-1.403,1.887-.474,3.622-1.261,5.367-2.02,2.93-1.28,5.945-2.608,9.615-2.968,1.584-.171,3.158-.408,4.741-.654,3.527-.55,7.244-1.119,11.066-.797,1.157.114,2.494.266,2.873.085,3.309-1.925,6.713-1.697,9.501-1.479l1.527.104c8.297.37,16.575.844,24.853,1.318l2.759.171c.446.009.977.009,1.517,0,1.811-.009,4.087-.076,5.955,1.195,2.295,1.593,4.931,1.659,7.984,1.735,1.081.028,2.171.047,3.252.142,6.201.512,12.431.901,18.642,1.271l7.662.474c.474.028,1.062,0,1.631-.009,1.773-.085,3.945-.152,5.775,1.024,2.465,1.584,5.253,1.735,8.487,1.925,1.384.076,2.769.171,4.134.36,3.385.465,6.125.834,8.999,2.323,2.029,1.053,4.428,1.631,6.969,2.238,1.223.294,2.437.588,3.632.939,3.072.882,6.125,1.877,9.169,2.864,3.632,1.185,7.254,2.361,10.923,3.347,4.561,1.204,8.752,3.12,12.801,4.978,2.333,1.062,4.665,2.133,7.045,3.053,8.316,3.195,16.983,7.074,28.105,12.573l5.443,2.655c7.69,3.708,15.627,7.567,23.004,12.365l1.735,1.166c2.285,1.536,4.428,3.006,6.524,3.452,3.442.73,6.173,2.323,8.809,3.869,1.46.863,2.911,1.707,4.495,2.361,3.736,1.527,8.6,3.651,13.095,6.334,16.575,9.928,30.675,19.628,43.125,29.708,3.034,2.465,5.983,5.045,8.923,7.643,3.812,3.347,7.766,6.818,11.824,9.89,4.419,3.338,8.572,7.026,12.592,10.592,4.106,3.632,8.354,7.396,12.801,10.705,7.737,5.775,14.688,12.289,21.714,19.002,9.729,9.321,19.524,18.566,29.385,27.745,10.468,9.757,20.349,20.226,28.617,29.167,7.358,7.946,14.603,15.996,21.837,24.047,7.225,8.041,14.441,16.063,21.771,23.98,5.045,5.452,10.487,10.762,15.74,15.892,2.323,2.276,4.646,4.532,6.95,6.827.474.465,1.024.91,1.564,1.346l7.036,5.67c5.357,4.305,10.705,8.6,15.949,13.057,7.908,6.704,16.433,13.711,26.247,19.031.332.18.73.332,1.015.446l9.349.465,1.309-1.09.531-9.833-1.716-1.982c-1.896-2.181-3.727-4.267-5.576-6.334-1.28-1.422-2.579-2.835-3.878-4.248-1.697-1.84-3.404-3.67-5.045-5.547-.683-.768-1.403-1.517-2.134-2.257-2.001-2.058-4.277-4.39-5.936-7.652l-1.982-3.888,4.314-.654c6.969-1.053,13.493-3.309,19.799-5.5,2.418-.844,4.817-1.669,7.244-2.437,1.716-.55,3.433-1.128,5.149-1.697,6.647-2.247,13.531-4.561,20.927-5.139,2.977-1.593,6.05-1.631,8.771-1.659,1.821-.028,3.556-.038,4.931-.55,3.926-1.422,9.549-2.608,14.214.114,1.318.759,2.854,1.043,4.608,1.365,2.058.36,4.39.787,6.685,2.133,4.675,2.769,8.553,6.505,11.502,11.142l.436,1.119c.465,2.427,1.024,4.817,1.584,7.169,1.707,7.292,3.48,14.84,1.934,23.146l-.294,1.536-1.384.692c-2.171,1.1-4.352,1.963-6.486,2.788-3.651,1.441-6.808,2.674-9.321,4.931l-6.998,6.239c-7.216,6.419-14.432,12.839-21.43,19.505-4.883,4.665-10.004,10.108-16.11,17.125-1.859,2.152-3.888,4.172-5.917,6.173-2.541,2.513-4.94,4.893-7.007,7.548-1.934,2.475-3.926,4.921-5.917,7.368-5.775,7.102-11.758,14.441-16.053,22.625l-.787.967c-2.475,2.058-4.134,4.893-5.888,7.908-1.204,2.077-2.437,4.163-3.916,6.059-6.78,8.667-14.878,18.822-23.601,28.466-11.142,12.298-22.16,24.474-34.43,35.169-6.524,5.699-12.991,11.464-19.476,17.22-5.187,4.618-10.383,9.245-15.608,13.844-1.195,1.043-2.503,1.953-3.812,2.854-.986.683-1.982,1.365-2.902,2.115-.967.806-1.953,1.602-2.949,2.39-3.053,2.456-5.945,4.76-8.164,7.519-2.503,3.072-4.58,5.32-6.77,7.292l-6.998,6.381c-10.705,9.748-21.42,19.505-32.306,29.044-4.134,3.622-8.439,7.064-12.725,10.506-4.096,3.271-8.202,6.552-12.147,10.004-6.903,6.021-13.721,12.156-20.538,18.282-7.472,6.732-14.953,13.446-22.549,20.045-5.282,4.58-10.876,8.923-16.281,13.123-2.39,1.849-4.779,3.698-7.14,5.576-.588.446-.948.721-1.337.939-6.088,3.565-11.891,7.87-17.504,12.042-4.428,3.29-8.875,6.59-13.503,9.587-2.551,1.659-4.978,3.508-7.406,5.357-2.902,2.209-5.888,4.504-9.112,6.467-9.511,5.803-19.154,11.388-28.807,16.983l-9.937,5.765c-6.353,3.698-12.754,7.33-19.145,10.961-11.891,6.742-24.18,13.721-35.966,21.06-12.27,7.614-24.625,14.384-35.075,19.988-7.178,3.85-13.531,6.894-19.448,9.293-5.073,2.067-10.222,4.134-15.39,6.059-5.196,1.934-10.468,3.698-15.769,5.339-7.861,2.418-15.769,4.741-23.687,6.96-1.185.332-2.333.37-3.366.398-.749.028-1.593.047-1.934.218-4.058,1.915-8.136,1.963-11.748,2.001-.759.009-1.498.009-2.238.038l-7.301,4.542-2.314,4.096-.351,6.742,3.015,5.945,5.955,3.385c6.486.284,12.479.503,18.576-.901,3.888-.882,7.652-2.096,11.398-3.29,2.892-.92,5.775-1.84,8.705-2.617,6.505-1.764,12.469-4.466,18.775-7.33,1.963-.901,3.926-1.783,5.907-2.646,6.069-2.646,12.08-5.85,17.912-8.951l6.125-3.233c11.786-6.135,22.956-13.863,33.766-21.335,3.546-2.465,7.102-4.921,10.686-7.33,2.001-1.346,3.983-2.731,5.955-4.125,4.798-3.376,9.767-6.856,15.048-9.748,4.001-2.181,7.823-4.637,11.635-7.083,3.11-2.001,6.211-3.992,9.406-5.85,11.132-6.486,22.131-13.19,33.15-19.884l15.446-9.368c4.058-2.456,8.126-4.864,12.213-7.282,7.766-4.608,15.522-9.207,23.137-14.034,6.23-3.954,12.611-7.662,18.993-11.379,12.791-7.425,26.01-15.096,37.559-24.711l.872-.512c3.262-1.261,5.907-3.603,8.705-6.097,1.28-1.128,2.551-2.257,3.907-3.309,2.095-1.631,4.248-3.224,6.391-4.798,2.314-1.697,4.618-3.404,6.865-5.187,2.465-1.953,4.902-3.926,7.349-5.917,3.736-3.044,7.472-6.088,11.303-9.027,10.155-7.794,20.017-16.063,29.546-24.047,7.69-6.448,15.276-13.313,22.606-19.97,6.495-5.879,12.991-11.748,19.647-17.447,6.533-5.585,12.687-11.853,18.642-17.902,5.301-5.405,10.781-10.99,16.584-16.148,8.553-7.614,17.039-15.342,25.507-23.061l12.735-11.578c5.557-7.434,12.052-13.095,18.339-18.566,2.143-1.877,4.305-3.736,6.382-5.67,5.651-5.196,11.388-10.307,17.144-15.418,6.524-5.803,13.048-11.606,19.429-17.561,7.216-6.704,14.792-13.901,21.458-21.856,4.163-4.978,8.496-9.805,12.829-14.64,4.381-4.883,8.743-9.757,12.943-14.773,7.206-8.619,14.185-17.058,20.453-25.792,3.12-4.324,6.334-8.799,6.808-14.337.256-2.902,1.631-5.452,2.835-7.718.465-.844.91-1.678,1.271-2.503l.645-1.46,1.584-.351c3.3-.702,6.116.626,7.7,3.736,4.343,8.524,10.468,16.167,16.385,23.563,2.826,3.518,5.651,7.036,8.306,10.667,4.39,5.983,9.425,11.72,14.29,17.258,4.438,5.054,9.027,10.288,13.209,15.778,8.297,10.905,17.988,21.136,27.356,31.035,5.945,6.268,11.094,12.81,16.063,19.154,3.565,4.532,7.14,9.074,10.923,13.446,7.804,9.037,15.854,17.855,23.905,26.683,14.622,16.025,29.746,32.6,43.201,50.256,8.657,11.322,18.177,22.34,27.394,32.979l3.907,4.523c7.444,8.638,15.058,17.144,22.672,25.64l12.374,13.882c.91.948,1.527,1.584,1.991,2.475,2.257,4.343,5.538,7.946,8.999,11.777,2.684,2.949,5.471,6.021,7.785,9.492,5.139,7.737,11.36,14.726,17.817,21.79,5.471,5.974,10.838,12.042,16.205,18.101,12.374,13.996,25.175,28.475,39.057,41.428,7.036,6.59,13.484,13.939,19.704,21.041,2.181,2.475,4.352,4.959,6.552,7.406,11.654,13.01,23.288,26.038,34.914,39.086l26.721,29.916c2.427,2.712,5.177,5.765,8.088,8.316.901.787,2.181,1.375,3.328,1.887.322.152.645.294.939.436l6.894.37,1.745-1.669v.019Z" stroke-width="0"/>
        <path d="m1176.514,386.849c.692-1.859,1.403-3.689,2.323-5.329.569-.986.749-2.2.967-3.584.266-1.764.578-3.736,1.745-5.576,1.053-1.631,1.337-3.433,1.659-5.519.133-.825.256-1.659.427-2.494.303-1.498.797-2.977,1.299-4.457.474-1.441.977-2.873,1.195-4.352.436-3.034.588-6.116.749-9.179l.209-3.736c.076-1.299.19-2.598.303-3.888.266-3.11.531-6.031.37-8.923-.19-3.12.768-5.765,1.621-8.088.616-1.697,1.195-3.29,1.271-4.855.531-12.175,1.233-24.341,1.953-36.516l.872-15.096c.028-.578.085-1.185.152-1.802.114-1.157.247-2.352.028-3.015-1.536-4.76-2.418-9.634-3.262-14.328-.901-4.94-1.745-9.634-3.29-14.176-1.859-5.5-3.907-12.014-4.921-18.642-.986-6.562-2.75-12.535-5.367-18.253l-4.504-9.975c-4.39-9.757-8.923-19.846-13.806-29.528-3.129-6.192-6.021-10.506-9.397-13.986-3.518-3.622-6.856-7.434-10.184-11.236l-2.769-3.158c-13.569-15.371-27.422-23.203-45.363-30.836-6.353-2.712-11.967-4.495-17.163-5.452-1.991-.37-3.869-1.005-5.737-1.64s-3.651-1.242-5.433-1.489c-4.684-.645-8.989-1.233-13.379-2.93-3.546-1.384-7.7-2.152-11.711-2.892-2.276-.427-4.286-1.062-6.277-1.707-2.494-.825-4.855-1.593-7.14-1.659-2.93-.104-5.414-1.1-7.614-1.982-1.745-.692-3.404-1.365-5.054-1.489-1.982-.152-3.812-.844-5.433-1.46-1.299-.484-2.513-.948-3.594-1.062-3.48-.351-6.675-1.261-9.757-2.133-1.09-.322-2.2-.626-3.3-.91-2.532-.654-5.282-.787-8.193-.92-1.489-.066-2.968-.142-4.438-.266-1.043-.114-1.859-.446-2.532-.73-6.287-2.314-12.393-2.361-18.851-2.427-3.148-.038-6.306-.066-9.454-.332-2.712,1.375-5.576,1.318-7.899,1.242-1.64-.047-3.167-.076-4.182.389-2.465,1.1-4.969,1.309-7.178,1.479-2.333.19-4.352.351-5.888,1.517l-.901.683-1.128-.047c-4.608-.047-8.496,1.1-12.886,2.475-2.295.702-4.599,1.422-6.932,1.934-7.15,1.593-14.214,4.741-20.273,7.567-3.622,1.669-7.292,3.195-10.961,4.722-3.594,1.489-7.206,2.977-10.734,4.618-12.516,5.803-24.995,13.19-38.128,22.53-2.456,1.745-4.798,3.622-7.14,5.5-3.195,2.57-6.505,5.215-10.051,7.51-3.888,2.532-7.434,5.282-11.18,8.193-1.735,1.346-3.442,2.551-5.158,3.745-2.551,1.773-4.969,3.452-7.102,5.405-4.22,3.869-8.534,7.624-12.848,11.388-9.899,8.6-20.121,17.504-28.835,27.593-6.201,7.169-12.27,14.432-18.282,21.733l-1.299,1.593c-2.115,2.608-4.22,5.187-6.59,7.614-1.147,1.166-2.181,2.465-3.214,3.745-1.441,1.802-2.911,3.651-4.713,5.291-6.23,5.67-11.616,12.403-16.831,18.907l-3.186,3.954c-2.058,2.532-4.144,5.045-6.23,7.548-5.357,6.467-10.905,13.161-15.873,20.045-4.532,6.277-9.169,12.469-13.816,18.651-7.254,9.691-14.764,19.704-21.686,29.888-3.082,4.532-5.832,9.435-8.487,14.176-3.888,6.931-7.899,14.081-13.104,20.482-.901,3.821-2.835,6.95-4.713,9.975-.948,1.536-1.915,3.082-2.683,4.713-.787,1.631-1.498,3.3-2.219,4.978-1.451,3.385-2.968,6.894-4.959,10.165-2.105,3.452-3.252,7.32-4.466,11.398-.797,2.674-1.593,5.329-2.646,7.908-.759,1.859-.73,4.343-.692,6.969.009,1.309.028,2.636-.047,3.916-.038.768-.009,1.536,0,2.295v.038c2.75,3.888,3.196,4.286,7.396,6.201.209-.066.408-.114.616-.171.834-.218,1.64-.427,2.02-.683,3.309-2.276,5.32-3.85,5.376-6.732l.028-1.005.588-.797c2.646-3.622,4.789-8.164,6.552-13.901.844-2.769,2.171-5.187,3.452-7.51,1.517-2.769,2.939-5.376,3.347-8.231.266-2.001,1.953-2.788,2.968-3.252.228-.104.503-.228.759-.37l.863-.503,1.005.076c3.546.303,4.466,3.376,4.826,4.532l-.152.218c1.024.436,2.02.939,3.006,1.451,1.517.787,2.939,1.527,4.495,1.877,4.713,1.062,9.349,2.655,13.825,4.182l1.024.351c12.175,4.163,23.791,9.767,35.027,15.19,4.836,2.333,9.672,4.675,14.555,6.894,10.203,4.665,20.406,9.729,30.248,14.64,4.381,2.181,8.752,4.362,13.152,6.505l9.672,4.722c10.383,5.045,21.107,10.26,31.519,15.75,2.181,1.157,4.457,2.181,6.704,3.214,4.419,2.001,8.961,4.068,13.104,7.102,7.301,2.39,13.749,6.287,19.988,10.07,3.954,2.39,8.05,4.864,12.232,6.856l.759.512c3.385,3.091,7.387,5.301,11.597,7.652,3.006,1.678,6.116,3.404,9.018,5.481,3.508,2.513,7.074,4.902,10.639,7.301,3.632,2.427,7.263,4.864,10.81,7.406,2.93,2.105,6.031,3.964,9.112,5.832,3.328,2.001,6.647,4.001,9.757,6.268,6.59,4.779,13.635,9.169,20.453,13.408l4.134,2.598c11.635,7.301,23.838,14.176,35.653,20.823l11.246,6.344c11.255,6.41,20.88,11.417,31.234,15.058,1.223.436,2.437.948,3.651,1.451,3.082,1.309,5.803,2.579,9.112,2.295l3.983-1.991.085-1.593c-5.85-8.306-13.123-14.859-22.16-20.007-4.239-2.418-8.259-5.225-12.137-7.946-1.584-1.1-3.158-2.209-4.751-3.29l-6.856-4.665c-9.103-6.192-18.206-12.374-27.271-18.633-7.87-5.405-15.712-10.848-23.544-16.29l-14.337-9.937c-2.456-1.707-4.921-3.376-7.396-5.054l-4.305-2.93c-3.708-2.541-7.406-5.12-11.104-7.7-8.088-5.651-16.461-11.492-24.891-16.831-9.397-5.936-19.353-11.417-28.978-16.708l-4.684-2.579c-3.385-1.877-6.894-3.546-10.411-5.196-2.115-1.015-4.248-2.02-6.344-3.072-2.152-1.09-4.286-2.209-6.419-3.328-3.726-1.963-7.434-3.916-11.303-5.661-6.751-3.053-13.313-6.685-19.657-10.193l-6.59-3.622c-19.448-10.525-39.029-19.979-55.604-27.84-9.435-4.466-20.131-9.539-30.912-13.597-9.634-3.622-19.543-7.064-30.969-6.827-2.475.085-4.798-.114-6.932-.284l-1.565-.114c-.37.171-.721.37-1.062.569-1.773.977-5.414,2.968-8.97-.91l-1.28-1.384.863-2.541c.247-.844.55-1.896,1.166-2.93,2.096-3.404,4.087-6.856,6.069-10.307,3.47-6.021,7.045-12.251,11.142-18.13,1.849-2.655,3.603-5.357,5.367-8.06,2.551-3.916,5.101-7.842,7.899-11.597l1.157-1.555c4.532-6.088,9.056-12.175,13.351-18.424,3.945-5.775,8.373-11.255,12.649-16.565,3.584-4.428,7.15-8.856,10.478-13.465,2.655-3.698,5.594-7.14,8.449-10.468,1.489-1.735,2.977-3.47,4.428-5.234,2.2-2.693,4.646-5.187,7.112-7.662,2.939-2.968,5.718-5.765,8.022-8.913,2.721-3.698,5.945-6.732,9.065-9.653,2.067-1.934,4.125-3.878,6.012-5.993,4.713-5.301,9.577-10.8,15.2-15.693,2.475-2.171,4.902-4.381,7.33-6.6,3.508-3.195,7.007-6.391,10.658-9.435,5.775-4.817,12.004-9.615,19.05-14.678,3.916-2.835,8.088-5.367,12.118-7.804l8.496-5.149c11.673-7.083,23.326-14.176,35.094-21.136,7.301-4.324,14.517-8.6,22.037-12.071,4.751-2.2,9.748-3.945,14.555-5.623,2.209-.768,4.4-1.527,6.571-2.333,1.195-.446,2.39-.92,3.584-1.413,3.698-1.517,7.519-3.072,11.673-3.48,4.172-.408,8.117-1.621,12.289-2.902,2.977-.91,5.955-1.821,9.018-2.456,1.498-.303,2.987-.749,4.466-1.185,3.214-.948,6.6-1.716,10.184-1.821,3.29-2.171,6.884-2.077,9.861-2.077,1.877.066,3.622.047,5.149-.408,4.144-1.337,8.591-.977,12.877-.654,1.223.085,2.418.19,3.594.247,5.547.228,11.066.607,16.603.977l6.249.427c.351.028.797,0,1.195,0,1.584-.104,3.527-.104,5.177,1.119,2.096,1.517,4.58,1.669,7.481,1.849,1.261.076,2.532.171,3.783.351.721.104,1.46.152,2.2.218,2.541.19,5.414.427,8.278,2.314.303.19,1.555.256,2.295.294s1.498.076,2.209.18c2.295.322,4.637.446,6.96.578,5.263.284,10.705.578,16.139,3.006,2.333,1.024,6.495.284,9.928.872,1.707.284,3.404.787,5.101,1.28,2.077.616,4.058,1.195,5.888,1.261,5.082.19,9.349,1.953,13.484,3.651,1.593.654,3.129,1.261,4.665,1.859,6.135,2.418,12.479,4.902,18.244,9.065,4.201,3.015,8.534,6.135,12.327,10.193l1.384,1.555c1.517,1.735,2.816,3.233,4.637,4.02,2.2.977,4.201,3.214,4.902,5.443.654,2.001,2.096,3.556,3.774,5.357.986,1.062,1.963,2.133,2.826,3.3l.692.92c1.697,2.285,3.452,4.646,4.779,7.576l.768,1.716c5.661,12.583,11.502,25.573,15.039,39.417,1.005,3.945,1.735,7.946,2.456,11.938,1.024,5.727,2.001,11.132,3.802,16.404l.218.664-.076.721c-.465,3.907.066,7.842.616,12.004.54,4.096,1.1,8.316.73,12.735-.787,8.913-1.223,17.836-1.659,26.768-.228,4.646-.465,9.283-.749,13.929-.294,4.921-.721,9.767-2.617,14.83-.92,2.456-.986,5.414-1.081,8.553-.038,1.659-.076,3.3-.228,4.921-.152,1.413-.787,2.873-1.707,3.916-.512.578-.616,1.517-.73,2.987-.133,1.707-.303,3.821-1.669,5.737-1.043,1.46-1.185,3.158-1.365,5.32-.104,1.309-.228,2.617-.512,3.907-.322,1.384-.768,2.75-1.233,4.106-.503,1.527-1.024,3.044-1.261,4.618-.247,1.697-.266,3.452-.303,5.196-.047,3.233-.114,6.571-1.318,9.748-1.09,2.826-1.451,5.765-1.84,8.875-.133,1.081-.256,2.143-.427,3.224.55.427.986.967,1.299,1.584,1.195,2.39-.066,4.883-.54,5.813l-.834,1.64,8.316,7.007,8.799.474,5.613-2.683c4.324-4.779,7.007-10.08,9.805-15.996.54-1.147.977-2.323,1.413-3.508l-.048.029Z" stroke-width="0"/>
        <path d="m1140.529,408.431c0-.474-.009-1.015-.047-1.64l-.36-5.045-.863-.398c-2.285-1.081-2.968-2.826-3.12-4.248l-.436-.076.104-1.062c-.209-.266-.398-.578-.531-.967-2.532-7.652-5.339-16.679-7.178-26.228-.247-1.204-.512-2.427-.797-3.651-.91-3.964-1.849-8.05-1.498-12.45-1.716-2.864-1.602-5.945-1.498-8.487.104-2.494.114-4.087-.825-5.32l-.664-.863.038-6.125c.009-3.546.009-7.083.19-10.63.503-9.71,1.119-19.391,1.745-29.072l.322-5.879c.009-1.887.028-4.239,1.365-6.135,1.859-2.646,1.783-5.879,1.716-9.293-.066-3.158.92-5.405,1.802-7.387.692-1.584,1.28-2.939,1.223-4.248-.218-4.001.939-7.519,2.058-10.923.986-3.034,1.925-5.879,1.745-8.752l-.076-1.233.787-.948c1.982-2.437,2.02-5.291,2.039-8.894.009-1.043.028-2.096.085-3.129l-2.949-3.546-10.336-.569c-3.698,3.556-6.429,7.899-8.743,13.863-.607,1.555-1.242,3.11-1.887,4.665-1.896,4.618-3.708,8.999-4.599,13.522-.436,2.219-1.157,4.362-1.887,6.505-1.157,3.376-2.238,6.571-1.915,9.852l.133,1.337-.872,1.015c-2.029,2.39-2.105,5.585-1.991,9.236.076,2.892-.872,5.291-1.716,7.406-.616,1.555-1.157,2.902-1.233,4.239l-.427,6.23c-.19,2.712-.389,5.433-.54,8.155-.133,2.427-.218,4.855-.294,7.263-.171,4.428-.322,8.856-.749,13.266-.266,2.731.256,5.519.825,8.477.702,3.736,1.451,7.614.683,11.824-.009.085-.038.133-.066.133,2.001,2.636,1.963,5.443,1.934,7.737-.009,1.517-.028,2.816.512,3.736,1.631,2.721,1.584,5.538,1.536,8.022-.028,1.915-.047,3.556.626,4.978,1.565,3.29,1.982,7.14,2.333,10.544l.209,1.859c1.043,8.695,3.708,17.229,6.287,25.469l.749,2.361c3.907,12.611,9.141,24.663,15.077,37.976,8.932,19.988,20.757,38.697,36.146,57.187,5.775,6.931,12.004,13.749,18.026,20.339,2.503,2.731,5.007,5.481,7.5,8.24,3.888,4.314,7.832,8.619,11.758,12.915,8.373,9.15,17.04,18.614,25.251,28.21,6.59,7.662,13.891,14.953,20.956,21.989,5.699,5.689,11.597,11.559,17.125,17.656,8.667,9.539,17.4,18.282,25.934,25.991l1.441,1.28c4.267,3.821,8.667,7.785,12.488,12.289,2.077,2.494,4.542,4.58,7.14,6.818,2.551,2.181,5.196,4.428,7.5,7.112,5.594,6.505,12.213,12.317,18.604,17.912,4.921,4.305,10.004,8.752,14.678,13.569,2.134,1.204,3.954,2.721,5.727,4.182,2.503,2.067,4.864,4.02,7.652,4.675l5.832.256,4.22-3.812.247-4.665-2.977-3.47c-2.892-3.385-5.775-6.751-8.743-10.07l-2.873-3.214c-12.63-14.081-25.687-28.655-39.863-41.627-2.816-2.57-5.519-5.253-8.221-7.937-3.727-3.689-7.567-7.481-11.559-10.867-3.404-2.854-6.666-5.803-9.852-8.875-1.346-1.28-2.769-2.494-4.201-3.698-1.925-1.631-3.85-3.271-5.594-5.073l-5.756-5.945c-5.813-6.012-11.606-12.014-17.627-17.836-10.478-10.146-19.704-21.591-28.627-32.647-5.414-6.713-11.018-13.645-16.802-20.188-.427-.484-.721-.825-.967-1.166l-1.707-2.465c-6.069-8.752-12.355-17.798-19.429-25.924l-.531-.588c-.73-.797-1.555-1.707-2.143-2.911-2.323-4.751-5.538-8.894-8.951-13.275-1.223-1.565-2.427-3.12-3.603-4.713-7.102-9.653-13.778-20.747-21.003-34.913-4.068-7.984-7.519-16.385-10.848-24.521-1.271-3.082-2.541-6.173-3.84-9.245-.503-1.185-.512-2.333-.531-3.47v.028Z" stroke-width="0"/>
        <path d="m2354.63,899.685c-.133,2.987-.266,6.381-2.532,9.492-4.523,14.024-11.018,27.091-17.296,39.721-1.195,2.418-2.513,4.788-3.84,7.15-2.352,4.21-4.58,8.202-6.116,12.441-1.28,3.527-3.015,6.666-4.703,9.691-.977,1.764-1.953,3.508-2.816,5.329l-.948,1.991c-2.2,4.618-4.466,9.397-7.045,13.967-2.684,4.76-5.661,9.359-8.638,13.967l-1.441,2.209c-2.001,3.11-3.983,6.239-5.945,9.368-4.902,7.766-9.975,15.816-15.532,23.364-14.185,19.258-27.223,35.719-39.825,50.313-2.219,2.579-4.618,5.007-7.007,7.425-2.617,2.655-5.225,5.291-7.576,8.155-5.101,6.201-10.819,11.853-16.366,17.305-3.727,3.651-7.434,7.301-10.961,11.142-2.475,2.683-5.196,5.101-7.832,7.434-4.201,3.736-8.164,7.254-11.142,11.711-9.131,8.335-17.523,16.651-25.63,24.701l-6.6,6.524c-3.85,3.802-8.221,7.064-12.431,10.203-1.849,1.375-3.698,2.731-5.5,4.163-2.475,1.953-4.921,3.954-7.358,5.955-5.519,4.523-11.236,9.207-17.324,13.266-7.652,5.082-15.257,10.563-22.596,15.883l-8.278,5.974c-9.463,6.77-19.372,13.067-28.949,19.154l-8.799,5.623c-10.364,6.647-21.212,12.754-31.708,18.651l-6.211,3.508c-8.771,4.959-17.457,10.023-26.171,15.086-15.551,9.056-31.614,18.395-47.828,26.986-15.75,8.344-34.458,18.139-53.698,27.489-24.919,12.109-50.398,22.16-74.208,31.225-3.006,1.147-6.031,2.219-9.065,3.309-2.513.901-5.016,1.802-7.51,2.721-2.769,1.024-5.632,1.84-8.458,2.636l-5.433,1.593-1.28-1.043c-11.701-9.349-22.672-19.126-33.292-28.579l-2.257-2.001c-2.352-2.095-4.58-4.286-6.808-6.486-2.93-2.892-5.699-5.623-8.733-8.098-3.376-2.759-6.495-5.718-9.643-8.705-1.783-1.707-3.414-3.129-5.054-4.561-1.953-1.707-3.907-3.404-5.756-5.225-6.448-6.344-12.801-12.735-19.173-19.145l-7.036-7.074c-.247-.247-.484-.512-.721-.797-3.964-2.285-6.59-5.177-9.131-7.956-1.024-1.147-2.058-2.276-3.158-3.328-1.745-1.659-3.546-3.262-5.329-4.864-2.058-1.84-4.096-3.67-6.069-5.576-5.187-5.007-10.326-10.051-15.475-15.115l-7.358-7.263c-3.869-1.953-6.306-4.741-8.458-7.187-.986-1.147-1.982-2.276-3.091-3.271l-3.783-3.347c-2.314-2.039-4.637-4.087-6.865-6.192-2.257-2.134-4.457-4.305-6.647-6.486-3.916-3.888-7.975-7.918-12.223-11.454-3.821-3.186-7.444-6.6-11.066-10.023-3.802-3.594-7.737-7.32-11.834-10.63-3.129-2.541-5.974-5.367-8.714-8.088-2.551-2.541-5.101-5.054-7.861-7.33-2.797-2.285-5.367-4.76-7.918-7.254l-2.693-2.598c-1.318-1.242-2.693-2.437-4.087-3.632-2.532-2.181-5.149-4.457-7.434-7.083-8.799-10.165-18.377-19.979-27.641-29.461-7.178-7.358-14.612-14.953-21.676-22.729-4.201-4.618-8.126-9.53-11.929-14.261-3.11-3.878-6.211-7.756-9.473-11.492-14.934-17.106-30.106-33.975-45.296-50.853-26.114-29.044-53.129-59.074-78.38-89.806-4.855-5.907-9.605-11.919-14.356-17.921l-5.775-7.301c-.474-.588-.882-1.242-1.299-1.887l-18.064-29.158-5.253-3.12-5.917-.303-4.789,2.247-2.57,4.438-.607,11.388,2.541,5.139c2.095,4.267,4.106,8.373,6.315,12.374,6.467,11.682,14.953,23.468,25.934,36.023l1.195,1.375c11.426,13.066,23.241,26.579,36.118,38.687,8.098,7.624,15.807,15.883,23.25,23.876,3.878,4.163,7.756,8.335,11.711,12.412,10.904,11.284,21.496,23.203,31.727,34.705,7.169,8.05,14.328,16.101,21.648,24.009,5.187,5.594,9.937,11.606,14.536,17.419,4.163,5.253,8.458,10.686,12.991,15.702,2.532,2.797,5.035,5.613,7.538,8.42,4.684,5.253,9.359,10.506,14.157,15.627,4.352,4.618,8.818,9.15,13.285,13.683,3.347,3.404,6.704,6.808,10.004,10.25,1.925,2.001,3.774,4.087,5.623,6.163,3.271,3.689,6.353,7.15,9.852,10.222,3.3,2.892,6.552,5.832,9.748,8.837,1.887,1.773,3.821,3.47,5.765,5.149,1.631,1.422,3.262,2.835,4.836,4.305,1.925,1.773,3.802,3.594,5.689,5.433,3.584,3.508,6.988,6.818,10.743,9.719,5.452,4.21,10.544,8.885,15.456,13.417,4.02,3.698,8.041,7.396,12.26,10.848,4.76,3.878,9.141,8.268,13.379,12.517,2.209,2.2,4.4,4.4,6.666,6.552l2.541,2.418c3.926,3.746,8.003,7.643,12.223,11.056,5.158,4.201,10.193,8.534,15.228,12.877l2.902,2.503c2.788,2.39,5.376,4.959,7.975,7.51,2.494,2.465,4.978,4.921,7.624,7.178l3.954,3.376c6.78,5.765,13.806,11.739,20.045,18.462.967,1.052,1.517,1.659,2.02,1.991,6.562,4.277,12.26,9.577,17.77,14.716,2.57,2.39,5.12,4.76,7.766,7.045l3.764,3.252c5.594,4.836,11.18,9.681,16.973,14.29,13.01,10.345,25.867,20.301,40.1,28.191,1.489.825,3.347,1.991,4.675,3.708,2.077,2.712,4.978,4.789,8.875,6.353,6.732,1.299,14.204-.408,24.587-2.75,2.39-.541,4.902-1.1,7.586-1.669,20.377-4.286,40.043-12.336,59.074-20.121l3.622-1.479c7.908-3.233,16.357-7.121,26.607-12.26l9.861-4.893c8.183-4.03,16.641-8.202,24.767-12.659l4.561-2.437c4.599-2.437,9.359-4.969,13.721-7.87,3.338-2.2,6.865-3.983,10.298-5.689,3.3-1.669,6.419-3.233,9.368-5.149,5.329-3.452,10.914-6.6,16.309-9.634,2.788-1.564,5.557-3.12,8.306-4.722l24.293-14.242c10.601-6.211,21.212-12.441,31.832-18.632,3.736-2.171,7.301-4.608,10.867-7.045,2.939-2.001,5.879-4.02,8.894-5.879,7.538-4.665,14.84-9.975,21.904-15.124,2.987-2.181,5.983-4.362,9.018-6.495,1.242-.882,2.541-1.735,3.821-2.551,1.669-1.091,3.328-2.153,4.893-3.366,1.195-.901,2.285-1.925,3.385-2.939,1.887-1.745,3.85-3.556,6.239-4.921,5.775-3.271,10.819-7.406,16.167-11.786,2.712-2.219,5.414-4.438,8.221-6.533,9.511-7.112,18.433-15.532,27.062-23.658l2.418-2.276c6.732-6.344,13.247-12.905,19.789-19.467,3.006-3.034,6.012-6.059,9.037-9.056,3.926-5.576,8.344-9.824,12.611-13.929,3.233-3.11,6.277-6.031,8.97-9.359,3.129-3.85,6.713-7.358,10.165-10.734,1.925-1.887,3.85-3.774,5.699-5.718,6.249-6.571,12.194-13.635,17.95-20.453,3.044-3.622,6.088-7.225,9.188-10.781,11.815-13.569,22.662-28.285,33.14-42.509l2.257-3.072c1.953-2.636,3.783-5.357,5.613-8.079,2.371-3.508,4.741-7.007,7.33-10.345,3.736-4.798,7.178-9.767,10.63-14.754l4.286-6.173c5.291-7.605,10.762-15.456,15.228-23.639,3.404-6.211,6.96-12.915,9.928-19.723,1.603-3.698,3.3-7.368,4.997-11.037,4.883-10.601,9.928-21.553,12.791-33.027l.209-.844.626-.626c1.052-1.024,1.261-2.371,1.536-4.665.104-.882.218-1.783.398-2.655.303-1.489.797-2.968,1.299-4.428.484-1.451,1.005-2.873,1.204-4.362.398-3.006.502-6.05.578-8.657l.085-2.399c-1.669-5.538-4.352-9.454-8.591-12.545l-4.134-.218-4.239,2.181c-.247,1.185-.294,2.494-.36,3.85h-.02Z" stroke-width="0"/>
        <path d="m1193.781,80.508c-2.152-4.855-4.381-9.871-7.481-13.853-6.647-8.562-14.081-17.438-23.364-24.331-13.123-9.719-17.902-12.393-34.117-18.993-2.987-1.223-6.059-2.181-9.112-3.129-1.716-.54-3.433-1.081-5.12-1.64-1.953-.664-4.087-1.005-6.344-1.375-2.835-.446-5.775-.92-8.714-2.067-1.309-.512-2.977-.55-4.751-.588-2.617-.066-5.576-.142-8.42-1.659-2.238-1.204-4.751-1.28-7.662-1.375-1.821-.066-3.66-.133-5.452-.446-.284-.047-.578-.028-.863-.028-1.128-.009-2.57,0-3.916-.91-2.219-1.555-4.931-1.802-8.06-2.077-3.309-.294-7.045-.626-10.44-2.731-.901-.066-1.821-.085-2.75-.104-3.158-.076-6.419-.142-9.387-1.602-2.987-1.479-6.135-1.669-9.473-1.877l-2.115-.142c-4.902-.389-9.824-.607-14.735-.825l-5.576-.256c-.806-.038-1.659-.142-2.503-.266-1.128-.171-2.674-.36-3.148-.114-4.561,2.105-9.112,1.811-13.066,1.536-1.555-.104-3.11-.228-4.665-.171-1.242.009-2.683-.114-4.068-.256-1.745-.209-3.414-.398-4.457,0-5.007,1.859-9.757,1.621-14.366,1.375-1.84-.104-3.632-.18-5.538-.133-.882-.038-1.811-.076-2.721-.19-.645-.066-1.602-.209-1.934-.104-4.001,2.096-8.088,1.896-11.654,1.707-1.242-.066-2.503-.104-3.698-.076-.73.028-1.489-.047-2.257-.142-.465-.066-1.157-.142-1.403-.085-4.134,2.02-8.458,1.877-12.327,1.735-.967-.038-2.105.076-2.939-.066-.484,0-.986-.047-1.489-.104-.303-.038-.825-.152-.948-.047-3.651,1.991-7.937,1.982-11.473,1.963-2.902-.038-5.737-.028-8.193,1.015-2.835,1.185-5.974.768-8.705.465-.768-.104-1.527-.19-2.276-.247-.91.028-2.181.332-3.508.806-1.527.55-3.271,1.166-5.367,1.233-3.366.085-6.704.901-10.25,1.764-3.745.91-7.614,1.849-11.711,1.982-.683.645-1.517,1.195-2.608,1.451-4.675,1.081-9.359,2.769-13.891,4.419-3.47,1.271-6.932,2.532-10.468,3.556-6.59,1.915-12.972,4.751-19.126,7.481-2.238,1.005-4.466,1.991-6.732,2.949-8.885,3.774-17.447,8.629-24.796,12.886-8.041,4.665-16.215,9.719-25.014,15.475-8.155,5.329-17.4,11.379-25.393,18.708-3.271,3.006-6.571,5.955-9.928,8.856-7.32,6.344-13.408,14.147-19.287,21.714-2.93,3.764-5.623,7.662-8.306,11.568-1.764,2.541-3.518,5.101-5.339,7.605-6.192,8.553-12.156,17.258-18.121,25.943-4.713,6.884-9.425,13.749-14.252,20.538-8.126,11.436-15.959,21.212-23.943,29.878-6.932,7.519-13.522,15.674-19.685,23.393-4.305,5.405-8.449,10.923-12.592,16.452l-5.983,7.956c-9.112,11.976-19.619,26.266-28.57,41.485l-4.182,7.083c-11.17,18.936-22.729,38.526-32.467,58.638-3.347,6.931-6.533,14.403-5.576,22.805.759,1.346,2.276,2.067,4.57,3.072.18.076.37.152.55.247l4.485-2.247c.427-.645.825-1.223,1.166-1.84,1.621-2.873,3.186-5.813,4.751-8.743,3.622-6.751,7.349-13.74,11.796-20.169,2.314-3.338,4.419-6.789,6.524-10.25,1.783-2.93,3.565-5.841,5.471-8.695,4.703-7.074,9.018-14.366,12.26-19.941,6.306-10.848,13.237-21.506,19.951-31.803l4.068-6.268c2.314-3.565,4.789-7.045,7.263-10.516,3.385-4.751,6.894-9.653,9.861-14.754,3.916-6.732,8.781-12.934,13.465-18.936l6.021-7.785c5.557-7.244,11.312-14.735,17.599-21.676,2.133-2.352,4.02-4.921,5.917-7.481,1.346-1.84,2.693-3.66,4.125-5.414,3.148-3.878,6.315-7.737,9.501-11.606,4.343-5.291,8.676-10.563,12.943-15.921,6.77-8.496,14.185-16.499,21.373-24.236,9.909-10.696,20.339-21.316,30.997-31.557,5.955-5.727,11.834-10.516,17.978-14.65,2.911-1.953,5.632-4.163,8.382-6.372,2.816-2.276,5.632-4.542,8.657-6.59,13.161-8.894,27.679-17.258,44.415-25.555,8.591-4.267,17.561-8.003,26.247-11.606l6.391-2.674c4.239-1.802,9.89-4.068,15.854-5.737l2.503-.721c3.907-1.157,7.918-2.333,12.327-2.333h.152c2.93-1.593,5.955-1.593,8.733-1.498,2.541-.009,4.675.047,6.277-1.128l.797-.578,2.693-.047c4.001-.085,7.794-.152,11.606-1.223,2.797-.768,5.613-.872,8.335-.967,2.437-.076,4.751-.152,6.96-.702,2.816-.683,5.651-.834,8.411-.977,2.418-.133,4.703-.247,6.922-.702,2.731-.54,5.443-.607,8.05-.654,2.873-.066,5.594-.133,8.231-.797,4.798-1.204,9.937-.531,14.432.218,1.84.266,3.67-.152,5.765-.664,2.02-.484,4.267-.986,6.77-.91,12.232.664,24.474,1.299,36.725,1.915l22.046,1.147c2.418.076,4.57.142,6.315,1.422,1.735,1.261,3.783,1.735,7.074,1.498,2.75-.171,5.101.901,6.903,1.773,1.242.607,2.333,1.024,3.309,1.09,4.504-.351,8.885.948,12.991,2.115,3.594,1.015,6.894,2.219,10.44,1.896,1.024-.028,3.044-.047,4.504,1.299,1.043.939,2.418,1.128,4.57,1.375,1.005.104,2.02.218,2.987.436,1.299.284,2.57.797,3.821,1.318,1.242.531,2.427,1.015,3.338,1.024,2.816.047,4.997,1.081,6.922,1.991.91.427,1.811.863,2.769,1.128,8.771,2.437,19.363,7.766,25.308,11.777,5.699,3.869,11.492,7.586,17.808,11.673l10.231,6.78c.616.702,1.375,1.517,2.2,2.418,2.295,2.475,5.177,5.585,7.538,9.141,5.5,8.268,10.383,16.935,14.034,23.563,5.661,10.269,11.436,21.212,17.694,33.463,1.1,2.171,2.257,4.314,3.404,6.448,2.2,4.058,4.457,8.259,6.372,12.649,1.915,4.381,3.48,8.885,5.007,13.247.91,2.617,1.821,5.234,2.816,7.832,2.209,5.803,3.034,11.748,3.527,16.793.398,3.84.91,7.624,1.422,11.426l.171,1.28c.484,3.565.256,7.14.029,10.582-.085,1.441-.18,2.892-.218,4.324l-.114,1.128c-.01.047-.01.085-.01.114,2.181,4.049,1.84,8.126,1.527,11.758-.104,1.119-.209,2.247-.209,3.366-.038,3.452-.19,6.903-.332,10.364-.104,2.171-.19,4.343-.256,6.505-.029.54-.066,1.09-.114,1.659-.066.834-.18,2.247.01,2.646,1.849,3.489,1.64,6.856,1.451,9.805-.047.759-.104,1.517-.104,2.276-.038,3.726-.247,7.444-.465,11.17l-.19,3.556c-.18,3.584-.36,7.169-.692,10.724-.085.834-.142,1.678-.19,2.532-.18,3.006-.37,6.097-1.678,8.97-.863,1.887-1.015,3.964-1.185,6.173-.114,1.631-.247,3.271-.607,4.893-.218,1.271-.427,2.57-1.413,3.66-.721.806-.872,1.877-1.081,3.698-.104.939-.218,1.887-.436,2.816-.294,1.271-.797,2.513-1.309,3.745-.531,1.28-1.024,2.494-1.1,3.508-.351,5.111-1.982,9.748-3.556,14.223-1.451,4.106-2.826,7.984-3.167,12.042l-.36,1.204c-3.603,6.846-5.879,14.1-8.297,21.771-1.365,4.381-2.75,8.752-4.362,13.047-.512,1.365-.797,2.75-1.09,4.144-.503,2.323-1.053,4.969-2.513,7.548-.683,1.204-.768,2.911-.872,4.893-.133,2.323-.266,4.94-1.441,7.567-.863,1.925-1.043,4.343-1.223,6.903-.076.872-.142,1.745-.228,2.598l3.783,7.187,6.827.37c3.812-2.759,6.211-6.211,7.69-11.085,1.489-4.921,3.518-9.71,5.5-14.318l.541-1.28c.749-1.783,1.204-3.66,1.669-5.519.692-2.797,1.413-5.67,2.939-8.411-.114-3.546,1.043-6.675,2.077-9.463.787-2.115,1.527-4.125,1.697-6.135.389-4.457,1.821-9.33,4.267-14.508,1.147-2.427,1.915-5.035,2.721-7.794,1.024-3.48,2.095-7.064,3.983-10.449.247-2.939,1.1-5.632,1.953-8.24,1.005-3.129,1.934-6.088,1.669-9.074-.18-1.84-.209-3.802.806-5.471,1.953-3.186,2.134-6.903,2.314-10.838.076-1.802.171-3.584.398-5.357.047-.398.038-.834.029-1.271-.029-1.403-.047-3.309,1.128-4.902,1.716-2.333,1.783-5.149,1.877-8.382.038-1.337.076-2.655.218-3.954.446-4.352.683-8.733.901-13.104l.256-4.713c.332-5.993.645-11.995.939-17.978.085-2.096.152-4.182.218-6.277.142-4.381.266-8.752.73-13.104.303-2.968-.133-5.955-.578-9.112-.37-2.646-.768-5.395-.73-8.231.066-4.684-.465-9.425-1.622-14.47-.484-2.181-.901-4.381-1.299-6.571-.578-3.129-1.157-6.249-1.991-9.321-3.66-13.408-9.899-26.142-15.921-38.441l-1.631-3.328c-1.365-2.797-2.854-5.538-4.343-8.268-2.636-4.836-5.357-9.852-7.387-15.2-.626-1.697-1.204-3.385-1.773-5.101-.787-2.333-1.565-4.675-2.513-6.931-4.921-11.568-9.899-23.127-15.115-34.553l-1.441-3.252h-.01Z" stroke-width="0"/>
        <path d="m1116.16,861.49c2.371-3.414,4.58-6.95,6.808-10.487,1.934-3.12,3.888-6.239,5.955-9.283l3.414-4.978c3.888-5.661,7.908-11.502,11.322-17.514l8.923-15.57.389-7.33-3.129-3.527-7.823-.408-1.593,1.365c-6.638,5.689-12.905,11.056-18.395,17.296-2.939,3.328-5.718,6.789-8.487,10.26l-7.387,9.103c-4.163,5.111-8.335,10.231-12.441,15.39-1.015,1.28-1.953,2.655-2.892,4.03-1.527,2.219-3.091,4.504-5.045,6.562-3.802,4.001-6.969,8.42-10.336,13.104-3.034,4.21-6.163,8.572-9.767,12.573-2.39,5.12-5.765,9.463-9.056,13.664-1.953,2.503-3.916,5.007-5.651,7.681-2.902,4.523-6.163,8.847-9.312,13.029-2.029,2.693-4.058,5.376-5.993,8.136-2.532,3.565-4.978,7.206-7.434,10.819-3.072,4.532-6.135,9.065-9.349,13.522-2.276,3.158-4.305,6.486-6.344,9.805-2.655,4.324-5.395,8.809-8.676,12.953-3.129,3.954-5.803,8.525-8.401,12.934l-.92,1.584c-2.02,3.414-4.267,6.685-6.505,9.966-3.385,4.931-6.59,9.605-9.027,14.773-5.471,6.856-9.577,13.967-13.56,20.842-2.769,4.798-5.651,9.767-8.875,14.479-4.713,6.903-8.999,14.356-13.133,21.544-2.058,3.565-4.106,7.14-6.211,10.658-4.665,7.785-9.387,15.513-14.109,23.241-5.945,9.729-11.891,19.467-17.703,29.29-1.479,2.513-2.93,5.045-4.381,7.576-3.802,6.638-7.728,13.493-12.27,19.846-2.001,2.797-3.802,5.727-5.585,8.638-1.925,3.129-3.85,6.249-5.993,9.236-4.305,5.955-8.382,12.071-12.469,18.177-2.902,4.352-5.813,8.695-8.799,12.991-2.655,3.821-5.215,7.719-7.756,11.606-3.508,5.357-6.998,10.696-10.772,15.845-14.716,20.064-34.278,46.453-55.092,72.634-1.925,2.456-3.85,4.931-5.737,7.425-2.475,3.252-4.997,6.467-7.5,9.71-5.841,7.51-11.872,15.276-17.343,23.203-8.496,12.27-17.011,24.587-25.45,36.914-11.824,17.239-20.671,31.879-27.878,46.093l-.465.91c-3.85,7.586-7.842,15.437-6.751,23.43,1.669,5.689,4.618,8.913,9.473,9.985,5.936-.266,9.985-2.02,11.957-5.576,2.513-4.542,5.576-8.638,8.525-12.592,2.181-2.93,4.352-5.841,6.306-8.932,4.22-6.704,8.913-13.209,13.455-19.505l4.201-5.851c3.594-5.035,7.244-10.042,10.905-15.048,7.576-10.383,15.418-21.117,22.53-32.021,6.249-9.577,12.943-19.04,19.401-28.191,3.878-5.481,7.756-10.961,11.568-16.499,6.818-9.928,14.252-19.628,21.439-29.015,5.395-7.045,10.8-14.1,15.996-21.297,2.987-4.144,6.069-8.231,9.15-12.317,5.803-7.681,11.796-15.627,17.011-23.876,4.314-6.846,9.018-13.598,13.541-20.131l3.082-4.438c10.81-15.636,21.591-31.215,31.481-46.956l2.939-4.675c3.224-5.139,6.448-10.269,9.805-15.295l2.096-3.11c6.647-9.89,13.531-20.102,19.951-30.315,3.888-6.173,7.842-12.298,11.796-18.433,6.6-10.222,13.417-20.804,19.761-31.377l2.759-4.608c3.67-6.173,7.472-12.573,11.568-18.604,2.058-3.044,3.907-6.211,5.737-9.368,2.494-4.276,5.073-8.705,8.155-12.773,3.546-4.684,6.685-9.805,9.719-14.764,1.621-2.617,3.224-5.253,4.902-7.832,2.399-3.689,4.826-7.358,7.263-11.028,6.353-9.568,12.934-19.467,18.614-29.622l.512-.683c3.015-3.044,5.149-6.77,7.396-10.705,1.64-2.892,3.347-5.87,5.471-8.638,2.333-3.053,4.362-6.315,6.505-9.757,2.077-3.347,4.172-6.713,6.552-9.861,2.2-2.93,4.144-6.163,6.031-9.293,1.745-2.873,3.48-5.756,5.433-8.487,4.22-5.888,8.259-11.919,12.289-17.94,3.186-4.779,6.381-9.539,9.681-14.261l.028-.047Z" stroke-width="0"/>
        <path d="m1207.644,673.013c1.659,1.887,3.328,3.783,5.187,5.471,5.576,5.054,10.819,9.824,15.665,15.001,7.823,8.344,15.807,16.537,23.791,24.711l9.966,10.25c.284.322.569.645.882.91,2.731,2.295,5.481,4.561,8.231,6.818,5.803,4.788,11.606,9.577,17.239,14.555,10.44,9.188,19.353,15.665,27.953,20.311l6.865.36c4.049-2.636,6.277-5.765,7.121-10.004l-4.599-10.762c-1.403-1.413-2.759-2.873-4.134-4.362-3.12-3.376-6.344-6.856-10.127-9.681-4.163-3.082-8.041-6.562-11.786-9.928-3.508-3.148-7.14-6.41-10.904-9.245-2.57-1.953-4.798-4.144-6.969-6.277-2.095-2.067-4.068-4.02-6.277-5.67-8.373-6.287-16.167-13.389-23.715-20.263-4.637-4.21-9.274-8.42-14.043-12.479-2.494-2.105-4.826-4.4-7.169-6.704-3.11-3.082-6.059-5.983-9.359-8.411-3.167-2.333-5.775-5.082-8.278-7.737-2.152-2.276-4.201-4.428-6.495-6.239-5.471-4.314-9.947-9.15-14.83-14.574l-6.457-7.169c-10.468-11.597-20.927-23.174-31.272-34.876-6.249-7.045-12.905-14.726-19.258-23.089-8.202-10.772-15.854-22.131-22.729-33.757l-2.892-4.855c-4.087-6.789-8.306-13.816-11.464-21.439-3.821-9.236-7.823-18.386-11.815-27.555-6.277-14.394-12.763-29.291-18.49-44.253-6.571-17.153-12.014-34.496-16.49-49.213-1.09-3.603-1.621-7.254-2.133-10.781-.484-3.47-.967-6.742-1.925-9.928-.92-3.015-.616-6.125-.322-9.131.085-.91.18-1.811.228-2.693.503-9.274,1.062-18.528,1.631-27.783l.284-4.637c.028-.503.009-1.015.009-1.536-.038-1.821-.076-4.087,1.204-5.945,1.005-1.451,1.204-3.224,1.451-5.291.218-1.783.436-3.632,1.204-5.5.616-1.527.948-3.224,1.28-5.007.408-2.143.834-4.352,1.811-6.448.901-1.925,1.233-4.058,1.584-6.315.36-2.399.749-4.883,1.821-7.32,1.043-2.333,1.565-4.741,2.115-7.282.322-1.555,1.005-2.892,1.593-4.087.806-1.602,1.299-2.646,1.128-3.726l-.133-.882.351-.825c1.565-3.651,2.674-7.434,3.84-11.436,1.261-4.286,2.551-8.733,4.466-12.991.825-1.859,1.375-3.907,1.963-6.069.332-1.233.664-2.456,1.053-3.66l.702-2.361c.683-2.314,1.375-4.684,2.503-6.95,1.764-3.546,2.57-6.201,2.712-8.885l.038-.92.531-.749c2.683-3.783,2.532-7.387-.578-11.919l-3.404-1.802c-5.139,1.593-9.131,4.618-12.213,9.236-9.293,14.005-15.56,29.916-21.638,45.306l-2.171,5.509c.085,3.148-1.053,5.775-2.067,8.126-.654,1.498-1.271,2.939-1.489,4.343-.683,4.267-2.02,8.781-3.85,13.066-1.015,2.39-1.309,4.902-1.621,7.576-.18,1.527-.36,3.044-.654,4.561-.085.664-.247,1.773-1.119,2.683-1.157,1.195-1.309,2.797-1.479,5.329s-.36,5.613-2.361,8.278l-.398,4.201c-.389,3.812-.759,7.614-1.015,11.426-.18,2.75-.266,5.5-.36,8.24-.152,4.826-.322,9.824-.977,14.754-.569,4.172.009,8.297.645,12.659.512,3.603,1.043,7.33.901,11.198,1.536,3.745,2.285,7.624,2.987,11.36.645,3.385,1.261,6.59,2.418,9.634,1.157,3.082,2.171,6.211,3.186,9.359,1.346,4.22,2.75,8.572,4.523,12.649,4.58,10.449,9.093,20.956,13.597,31.452,10.848,25.289,22.056,51.45,34.411,76.929l.73,1.517-.844,1.451c-.512.882-1.024,1.707-1.517,2.494-.844,1.346-1.621,2.541-2.152,3.821-5.329,12.773-10.592,25.412-17.523,37.142-1.015,4.144-2.911,7.766-4.751,11.284-1.015,1.934-2.039,3.878-2.873,5.888-1.811,4.305-3.964,8.458-6.05,12.488-.977,1.859-1.934,3.736-2.873,5.623-.882,1.802-1.735,3.603-2.598,5.414-1.849,3.916-3.698,7.842-5.841,11.597-4.248,7.5-8.278,15.314-12.175,22.881-2.143,4.172-4.286,8.335-6.486,12.469-4.997,9.406-9.33,17.959-11.919,27.28-.076.228-.114.474-.152.692.228.55.446,1.1.654,1.669.844,2.257,1.28,3.158,2.532,3.67,1.195.256,2.636-.446,4.864-1.659.474-.247.939-.503,1.413-.73,1.053-1.46,2.133-2.902,3.195-4.324,2.57-3.452,5.101-6.846,7.396-10.383,5.576-8.562,10.336-17.874,14.934-26.873,3.433-6.675,6.96-13.588,10.819-20.226,1.451-5.253,4.03-9.871,6.524-14.356,1.451-2.608,2.902-5.215,4.106-7.946,1.963-4.419,4.239-8.695,6.505-12.991,1.783-3.366,3.565-6.742,5.196-10.184,1.678-3.546,3.48-7.026,5.282-10.516,3.158-6.116,6.419-12.431,8.885-18.926.645-1.64,1.877-2.731,2.864-3.603.294-.256.588-.512.834-.768l2.323-2.475,2.295,2.503c.721.768,1.441,1.498,2.152,2.238,1.669,1.678,3.385,3.433,4.76,5.481,7.481,11.341,15.665,22.037,24.293,31.803.939,1.062,1.821,2.171,2.75,3.338l3.812,4.722-4.163,1.498c-10.848,3.926-19.116,11.085-26.029,22.473-3.167,5.263-5.974,10.905-8.667,16.357-2.854,5.765-5.803,11.711-9.255,17.362-.37,3.29-1.991,5.917-3.414,8.268-1.337,2.171-2.475,4.049-2.579,6.126l-.038.986-.607.787c-2.039,2.683-3.347,5.841-4.741,9.179-.863,2.096-1.735,4.182-2.769,6.192-3.508,6.704-7.254,18.282-8.714,26.91-.228,1.441-.834,2.712-1.299,3.651l1.565,6.704,2.864,3.66,7.614.398,5.291-2.788c.834-1.024,1.659-1.982,2.456-2.873,1.669-1.925,3.12-3.584,4.02-5.319,3.745-7.32,8.193-14.28,12.488-21.022,2.854-4.457,5.699-8.913,8.354-13.493,6.856-11.796,12.706-22.207,17.902-31.832,5.319-9.89,9.463-18.31,12.45-27.242.408-1.204,1.015-2.257,1.555-3.186.266-.446.54-.91.768-1.375.19-2.058.474-5.016,3.954-6.685l2.333-1.119,19.951,26.797c.92,1.242,1.915,2.456,2.902,3.66,2.067,2.532,4.21,5.149,5.888,8.126,3.186,5.632,7.567,10.222,12.185,15.058,2.152,2.257,4.305,4.504,6.334,6.865,4.239,2.57,7.349,6.069,10.364,9.473l.066.038Z" stroke-width="0"/>
        <path d="m1666.516,367.506c12.886,14.878,26.209,30.258,41.162,43.552,4.172,3.727,8.458,7.292,12.735,10.848l6.192,5.177c5.149,4.362,11.161,6.998,17.514,9.786l1.223.531c2.437,1.062,4.457,1.081,6.353.028,1.28-.692,2.646-1.242,4.02-1.783l.73-.294,3.082-5.5c-2.399-7.387-7.576-12.118-13.104-16.708-5.111-4.22-9.928-8.809-14.584-13.237-2.153-2.067-4.314-4.125-6.505-6.154-3.167-2.93-6.457-5.699-9.748-8.487-2.427-2.058-4.855-4.106-7.244-6.211-3.129-2.788-6.372-5.414-9.615-8.05-5.917-4.817-12.042-9.786-17.409-15.608-.389-.408-.759-.863-1.128-1.309-.721-.863-1.527-1.821-2.134-2.105-3.366-1.555-5.594-4.068-7.567-6.306-.92-1.043-1.84-2.077-2.873-3.006l-2.437-2.133c-2.816-2.456-5.632-4.902-8.259-7.548-2.247-2.257-4.39-4.608-6.552-6.969-4.608-5.045-8.961-9.824-14.252-13.711-7.387-8.743-15.608-15.93-23.573-22.881-3.812-3.328-7.614-6.638-11.303-10.089-1.64-1.527-3.252-3.12-4.855-4.713-3.233-3.214-6.287-6.239-9.681-8.875-3.12-2.418-5.841-5.101-8.477-7.7-1.015-1.015-2.039-2.029-3.082-3.015-2.968-2.835-6.021-5.576-9.093-8.297l-2.257-2.029c-3.518-3.148-7.083-6.277-10.63-9.387l-3.252-2.873c-2.731-2.427-5.481-4.864-8.316-7.187-1.953-1.602-3.983-3.148-5.993-4.684-3.034-2.314-6.05-4.618-8.885-7.14-10.999-9.757-22.625-19.296-35.501-29.148-.702-.54-1.441-1.024-2.171-1.498-1.318-.882-2.617-1.764-3.774-2.816-8.847-8.05-18.926-14.934-28.674-21.581-3.992-2.721-8.003-5.452-11.929-8.268-5.225-3.764-10.838-7.244-16.253-10.62l-4.381-2.731c-11.824-7.406-20.301-12.175-33.813-17.589-.882-.36-1.622-.844-2.257-1.28-.322-.218-.806-.55-.986-.616-2.674,0-5.035-1.015-7.121-1.963-1.185-.54-2.285-1.053-3.366-1.28-1.64-.36-3.196-.986-4.741-1.621-2.058-.863-3.916-1.621-5.689-1.479l-1.46.104-1.024-1.062c-.721-.759-1.859-.92-3.689-1.147-1.877-.228-3.992-.474-5.832-1.877-1.337-1.005-3.006-1.28-4.94-1.602-2.247-.389-4.789-.806-7.244-2.465-1.166-.787-2.892-1.015-4.893-1.271-2.209-.294-4.722-.626-7.178-1.849-1.147-.569-2.75-.768-4.438-.986-2.352-.294-4.997-.616-7.481-2.02-3.489-.104-6.969-.36-10.449-.616-8.515-.654-16.546-1.242-24.796.436-16.281,3.29-27.821,8.676-36.336,16.935-5.139,5.007-9.985,9.748-11.502,16.727l-.133.588,1.299,6.448,3.85,3.916,4.248.218,5.756-2.797c8.373-12.763,20.406-20.273,37.758-23.62,2.674.038,4.684.18,6.78.332,4.959.351,10.051.759,15.304.645h.389c5.936,0,11.398,1.527,16.689,3.006,2.257.626,4.523,1.261,6.808,1.764,4.864,1.053,9.729,2.759,14.441,4.4l3.66,1.28c4.684,1.659,9.53,3.366,14.223,4.457,4.561,1.043,8.809,2.693,12.915,4.305,2.067.797,4.134,1.602,6.239,2.333,6.742,2.314,13.019,5.357,18.651,9.018l4.4,2.826c3.518,2.257,7.036,4.504,10.487,6.865,6.192,4.267,12.327,8.572,18.462,12.886l8.638,6.069c12.592,8.818,24.597,18.291,36.8,28.058,2.674,2.133,5.376,4.201,8.098,6.268,4.751,3.632,9.653,7.387,14.252,11.426,6.249,5.519,12.934,10.81,19.391,15.921,4.239,3.366,8.477,6.732,12.649,10.184,1.877,1.555,3.774,3.091,5.689,4.637,5.433,4.4,11.037,8.961,16.148,13.939,7.121,6.998,15.02,13.427,22.643,19.647l2.314,1.896c11.217,9.15,23.108,18.974,34.269,29.423,14.261,13.341,25.535,24.767,35.473,35.938,4.419,4.959,8.771,9.975,13.104,15.001l.02-.019Z" stroke-width="0"/>
        <path d="m1626.52,445.165l-4.049-2.465-11.236-.607c-7.216,3.006-13.863,6.344-20.311,9.577l-.702.36c-3.224,1.602-6.201,3.508-9.349,5.509-2.209,1.413-4.4,2.816-6.675,4.106-11.303,6.419-22.302,13.996-32.723,22.52-3.632,2.968-7.282,5.907-10.923,8.837-11.018,8.875-22.416,18.054-32.922,27.859-9.368,8.743-18.964,17.267-28.551,25.782-7.169,6.372-14.328,12.735-21.401,19.192-2.608,2.39-5.253,4.741-7.88,7.083-7.861,6.998-15.996,14.242-23.023,22.302-3.489,4.02-7.368,7.718-11.123,11.303-3.594,3.442-7.33,6.998-10.63,10.772-9.577,10.942-19.476,22.236-25.848,35.966l-.322,5.85,4.049,4.352,6.818.36,2.437-2.115c2.721-2.352,5.481-4.741,8.183-7.188,4.087-3.708,7.937-7.662,11.777-11.616,2.788-2.864,5.576-5.718,8.439-8.487,12.403-11.995,25.431-23.677,38.043-34.989,14.84-13.313,30.21-27.091,44.566-41.409,7.064-7.045,14.982-13.37,22.643-19.476,3.489-2.788,6.988-5.557,10.383-8.42l39.427-32.941c.91-.882,1.622-1.584,2.655-2.02,3.347-1.413,6.097-3.888,8.999-6.495,1.46-1.318,2.939-2.646,4.485-3.84,2.911-2.247,5.841-4.457,8.771-6.647l6.419-4.836c1.384-1.053,2.721-2.143,4.068-3.224,2.646-2.133,5.376-4.343,8.411-6.287,6.249-4.02,11.9-9.833,17.258-17.798h-.01c-.076,0-.114-.465-.142-.863l-.01-.01Z" stroke-width="0"/>
        <path d="m1255.529,865.236l-.104-.446.029-.446c.114-2.323.209-4.665.294-6.998.209-5.613.427-11.398,1.157-17.106.541-4.201,1.697-8.856,3.508-14.242.607-1.773,1.119-3.594,1.622-5.405.977-3.442,1.982-6.998,3.584-10.449,2.209-4.703,4.163-9.511,6.097-14.318.967-2.39,1.925-4.76,2.911-7.121.484-1.147,1.015-2.276,1.555-3.404,1.622-3.414,3.148-6.647,3.053-10.364l-3.689-6.609-9.549-.503-1.584,1.403c-2.115,1.849-4.21,3.698-6.23,5.651-.266.266-.569.787-.882,1.337-.436.749-.92,1.593-1.64,2.371-4.902,5.329-7.605,11.872-10.449,18.822-.702,1.697-1.403,3.385-2.134,5.054l-1.015,2.314c-2.456,5.557-4.779,10.8-4.883,16.584l-.029,1.015-.616.825c-1.64,2.171-1.887,4.931-2.171,8.117-.294,3.252-.616,6.922-2.674,10.26-1.062,6.96-.038,14.005,1.309,21.809.834,4.864,3.053,9.899,7.007,15.845,1.697,2.532,4.314,4.523,8.221,6.23l9.786.512,3.764-3.224c-.436-3.385-1.783-6.353-3.224-9.492-1.157-2.532-2.352-5.149-3.034-8.022h.01Z" stroke-width="0"/>
        <path d="m1175.149,760.818c4.314-1.309,7.102-3.12,9.037-5.907l.616-11.464c-.664-1.764-1.299-3.546-1.925-5.339-1.489-4.305-2.902-8.373-4.978-12.033-7.368-12.915-16.584-27.859-29.072-40.764-4.722-4.893-10.118-8.695-16.025-11.303-2.257.322-3.508,1.631-5.414,3.802l-.142.171-.465,8.525c.91,1.849,1.802,3.67,2.683,5.481,2.133,4.39,4.21,8.695,6.571,12.829,7.519,13.085,16.471,28.475,25.744,43.447,3.214,5.187,7.292,10.696,13.37,12.554Z" stroke-width="0"/>
      </g>
    </g>
  </g>
</svg>