<?xml version="1.0" encoding="UTF-8"?>
<svg id="b" data-name="Layer 2" xmlns="http://www.w3.org/2000/svg" width="238.913" height="281.663" viewBox="0 0 238.913 281.663">
  <g id="c" data-name="Layer 1">
    <g>
      <g>
        <path d="m8.488,137.235c.679.66,1.342,1.372,1.982,2.062.314.337.628.675.944,1.007.094.099.198.189.311.284l.132.114c.11.097.251.148.393.148.077,0,.154-.015.227-.045l.639-.264c.248-.102.397-.36.36-.625l-.03-.252c-.024-.219-.049-.426-.096-.63l-.028-.111c1.572.496,3.265.879,5.05.621,1.815-.264,3.034-1.143,3.726-2.684.447-.996.582-2.023.654-2.896.135-1.629-.013-3.232-.194-4.721-.01-.092-.024-.181-.045-.272l-.169-.724c-.138-.603-.276-1.206-.441-1.801-.248-.896-.524-1.855-.868-2.796-.253-.693-.561-1.369-.857-2.021l-.497-1.108c-.308-.7-.626-1.423-1.004-2.115-.41-.75-.729-1.57-1.039-2.363l-.156-.399c-.773-1.963-1.447-3.606-2.226-5.242-.213-.448-.399-.907-.587-1.367-.134-.332-.27-.663-.413-.991-.421-.955-.664-1.957-.922-3.017-.083-.345-.168-.689-.258-1.032-.126-.48-.246-.986-.214-1.442.049-.735.171-1.526.398-2.568.266-1.235.769-2.404,1.537-3.572.409-.623.872-1.187,1.362-1.786.287-.351.575-.702.85-1.063,1.363-1.791,3.23-3.191,5.879-4.404,1.231-.564,2.633-.997,4.288-1.321,1.15-.227,2.243-.113,3.659.38.227.076.477.014.636-.165l.244-.269c.156-.174.194-.424.098-.638-.5-1.116-.611-1.233-1.685-1.792-.067-.035-.14-.057-.216-.064-1.75-.171-3.427.025-5.122.599-1.146.388-2.494.872-3.799,1.515-1.59.785-2.821,1.579-3.874,2.502-1.558,1.366-3.049,2.734-4.174,4.464-.926,1.421-1.861,2.965-2.245,4.851-.322,1.578-.371,3.071-.152,4.564.109.75.313,1.464.511,2.155.121.425.244.851.342,1.282.207.91.519,1.782.821,2.625l.135.378c.369,1.042.789,2.079,1.196,3.082.233.574.465,1.148.689,1.725.148.38.282.765.416,1.151.135.39.272.781.421,1.167.17.437.35.87.531,1.304.177.423.354.846.519,1.274.579,1.497,1.143,3,1.7,4.503.054.146.116.288.178.429.121.276.227.514.261.788.087.669.298,1.304.502,1.917.082.246.163.492.234.729.024.088.024.231.023.369,0,.254,0,.57.143.865.217.446.235.951.255,1.484.006.193.014.384.029.573.131,1.601.08,2.911-.159,4.124-.16.815-.496,1.162-1.381,1.428-.835.248-1.694.234-2.625-.043-1.484-.442-3.01-1.021-4.121-2.262-1.417-1.581-1.481-3.267-.185-4.876.328-.409.698-.784,1.089-1.181l.25-.255c.17-.174.344-.354.508-.439.576-.303,1.161-.589,1.746-.876.34-.167.68-.334,1.017-.503.266-.133.333-.386.365-.509.009-.035.021-.081.04-.136.073-.213.019-.449-.139-.61l-.261-.265c-.152-.153-.373-.213-.587-.153l-.315.09c-.2.057-.36.102-.515.15-2.178.661-3.837,1.693-5.075,3.155-1.033,1.221-1.517,2.46-1.48,3.786.002.066.005.132.008.197-.376-.363-.714-.715-1.031-1.068-1.849-2.062-2.813-3.891-3.128-5.931-.021-.141-.033-.285-.046-.43-.028-.324-.057-.66-.172-.999-.272-.803-.252-1.676.062-2.832.289-1.059.569-1.91,1.307-2.423.987-.688,1.768-1.554,2.523-2.392l.103-.113c.391-.435.782-.869,1.142-1.325.185-.232.186-.503.187-.683,0-.044,0-.092.005-.139.017-.168-.037-.335-.149-.459-.113-.125-.273-.196-.441-.196h-.669c-.162,0-.318.067-.43.184l-.126.133-.174-.084c-.262-.681-.5-1.36-.738-2.036-.181-.517-.361-1.032-.551-1.544-.531-1.435-.669-2.914-.739-4.3-.006-.127-.002-.254.003-.382.013-.396.029-.885-.229-1.374.25-.413.236-.833.225-1.143-.003-.1-.008-.2,0-.297.026-.233.309-1.613.418-1.976.185-.224.277-.464.353-.663.027-.071.054-.144.087-.212.453-.945.963-1.927,1.777-2.648.693-.615,1.363-1.257,2.032-1.9l.486-.465c1.028-.98,1.681-1.96,1.997-2.992.099-.323.23-.635.36-.947.261-.623.53-1.268.592-2.014.009-.047.087-.173.138-.257.057-.093.114-.187.162-.283.047-.094.069-.198.062-.302-.031-.494.093-.994.224-1.524.115-.467.234-.95.261-1.473.025-.493.157-.998.296-1.533.12-.462.245-.94.311-1.449.021-.17-.031-.34-.143-.468-.113-.129-.275-.202-.446-.202h-.496c-.112-1.379-.398-2.585-.87-3.682-.095-.221-.196-.44-.297-.66-.286-.627-.557-1.219-.709-1.831-.286-1.152-.714-2.247-1.126-3.306l-.287-.74c-.841-2.204-1.295-4.35-1.39-6.561-.048-1.147.424-2.061,1.202-3.164.627-.888,1.496-1.606,2.183-2.133.095-.073.188-.149.283-.226.278-.226.54-.44.852-.566.879-.357,1.801-.541,2.819-.562.108-.003.215-.034.307-.094l.557-.35c.469-.294.937-.587,1.387-.906.335-.237.638-.555.878-.917.789-1.195,1.356-2.569,1.84-4.452.216-.841.486-1.833.844-2.796.17-.455.449-.947.828-1.465.458-.625,1.009-.92,1.776-.949l1.921.728c.054.02.11.032.168.036l3.46.245c.109.006.221-.015.319-.067.222-.118.443-.214.654-.307.524-.229,1.064-.466,1.502-.94l.254-.277c.238-.259.476-.519.718-.774,1.131-1.191,1.841-2.621,2.528-4.003l.325-.65c.351-.693.161-1.358-.496-1.738-.261-.15-.6-.081-.778.168l-.526.728c-.408.56-.816,1.123-1.206,1.699-.278.411-.618.777-.987,1.142.027-.219.052-.436.067-.652.091-1.392.223-2.553.417-3.655.233-1.321.643-2.653,1.293-4.191.749-1.774,1.549-3.391,2.446-4.945,1.062-1.84,2.595-2.85,4.826-3.178.327-.043.587.048.811.289.089.096.16.208.233.32.07.106.141.212.218.311.618.804,1.299,1.319,2.081,1.572.668.218,1.32.135,1.893.064.157-.019.313-.039.471-.052.347-.031.719-.196.996-.443,1.171-1.045,1.924-2.167,2.301-3.43.315-1.057.695-1.8,1.231-2.41.73-.827,1.438-1.645,2.065-2.541.447-.638.861-1.299,1.274-1.96.357-.572.714-1.144,1.094-1.699,1.66-2.424,3.356-3.678,5.501-4.065l.187-.034c.368-.07.748-.141,1.03-.083,1.092.219,2.072.438,2.987.908,1.221.628,2.285.868,3.365.764.075-.008.198-.022.236-.013,1.59.549,2.949.012,4.316-.638.217-.103.527-.283.775-.556l.206-.227c.769-.845,1.564-1.72,2.31-2.618.558-.671,1.123-1.301,1.914-1.645.301-.131.6-.267.9-.404.479-.218.957-.436,1.445-.63.999-.396,2.106-.534,3.176-.667.65-.078,1.236.241,1.892.627l.013.019c.354.513.659.957.695,1.475.015.226.042.451.069.676.031.251.061.502.072.753.006.145.008.29.011.436.011.576.022,1.173.221,1.79.217.673.582,1.524,1.488,2.153,1.86,1.288,3.882,1.878,6.13,1.813,1.865-.057,3.227-1.022,4.086-1.743.737-.615,1.213-1.387,1.673-2.133.19-.307.378-.613.586-.906.843-1.192,1.662-2.398,2.481-3.605l.701-1.029c.335-.493.711-.821,1.146-1.002.288-.12.582-.223.875-.328.357-.126.714-.254,1.06-.404,1.723-.746,3.583-.955,5.663-1.135.414-.036.835-.031,1.278-.026.265.003.53.005.798,0,.19-.004.381-.019.571-.035.277-.023.535-.044.774-.023,1.226.117,2.19.38,3.031.829.953.51,1.569,1.145,1.882,1.944.438,1.117.718,2.408.883,4.066l.018.176c.055.566.112,1.153.225,1.731.05.262.152.495.242.7.058.132.119.262.154.399.422,1.639,1.356,2.987,2.775,4.004,1.863,1.335,4.011,1.687,6.108,1.875.183.021.464.05.723-.107.14-.084.319-.09.595-.085.125-.002.246,0,.367-.006.064-.006.127-.006.192-.003.204-.002.454.003.705-.091.483-.178.974-.323,1.467-.47.614-.183,1.25-.373,1.874-.623,1.695-.679,2.997-1.815,4.086-2.826.159-.149.273-.311.395-.484.021-.032.044-.063.068-.096l.977-.322c.935-.309,1.898-.626,2.863-.937,1.89-.606,3.66-.907,5.411-.92.257-.002.515-.013.774-.023.622-.027,1.208-.051,1.75.051,1.788.337,3.277.979,4.424,1.907,1.496,1.21,2.468,2.535,2.97,4.051.053.16.116.319.179.476.089.22.172.428.215.627.049.227.072.461.096.695.037.354.075.72.186,1.089.315,1.047.102,2.045-.712,3.338-.388.618-.808,1.217-1.227,1.815-.193.274-.385.549-.575.826-.48.701-.965,1.547-.627,2.713.03.101.084.192.16.264,1.63,1.555,3.749,2.516,6.669,3.024.221.033.435-.047.569-.22.135-.172.164-.405.075-.605-.269-.609-.771-.987-1.415-1.064-.36-.044-.672-.202-1.042-.404-1.038-.566-2.062-1.159-3.016-1.708.013-.017.026-.032.04-.048,1.183-1.313,2.069-2.475,2.786-3.656.698-1.149,1.068-2.402,1.101-3.722.044-1.79-.296-3.504-1.009-5.094-.764-1.706-1.626-2.957-2.713-3.936-.463-.419-.981-.702-1.483-.977-.209-.115-.42-.23-.623-.354-1.216-.747-2.568-1.256-4.132-1.555-1.557-.297-3.104-.223-4.553-.121-1.425.099-2.822.456-4.174.801l-.269.069c-1.501.383-2.969.925-4.363,1.611-1.851.911-3.614,2.03-5.241,3.328-.238.054-.47.113-.695.17-.523.134-1.016.261-1.48.278l-.598.024c-1.868.077-3.632.15-5.336-.398-1.163-.374-1.885-.941-2.341-1.835-.824-1.618-1.021-3.416-1.143-4.974-.2-2.595-1.194-4.59-3.038-6.096-.896-.731-1.984-1.237-3.147-1.462-.586-.114-1.176-.151-1.747-.186-.298-.019-.598-.037-.893-.068-.125-.013-.247-.052-.365-.087l-.223-.062c-.129-.036-.263-.022-.383.032-.061.026-.12.057-.201.119l-.78.064c-.764.065-1.555.133-2.319.133h-.005c-.856,0-1.642.203-2.403.399-.317.082-.634.164-.954.23-1.051.216-1.989.681-2.897,1.131-.307.152-.613.304-.922.446-1.279.582-2.144,1.299-2.724,2.255-.232.382-.519.738-.823,1.114-.202.25-.404.501-.591.761l-.524.714c-.602.818-1.225,1.664-1.761,2.559-.357.598-.811,1.141-1.429,1.71-.586.538-1.354.865-2.282.972-1.353.155-2.704-.156-4.141-.947-.727-.399-1.024-.901-1.024-1.729l.006-.537c.009-.499.019-1.015-.034-1.534-.131-1.281-.435-2.724-1.702-3.72-1.036-.815-2.08-1.186-3.135-1.128-1.166.073-2.241.302-3.195.681-.264.105-.537.187-.809.27l-.402.125c-.054.018-.104.042-.148.072h-.539c-.106,0-.209.029-.3.082l-.15.093c-.035.022-.064.044-.095.057-2.209.897-4.105,2.348-5.635,4.313-.589.756-1.297,1.282-2.105,1.56-.163.057-.329.104-.496.151l-.041.012c-.489-.203-.977-.17-1.383-.143-.11.007-.221.015-.33.017-.583-.009-1.156-.151-1.739-.332-.263-.082-.521-.183-.778-.282-.287-.111-.575-.222-.868-.312-1.557-.482-3.221-.903-4.942-.311-.183.062-.366.119-.549.174-.59.18-1.201.365-1.786.756-1.693,1.131-3.209,2.653-4.636,4.651-.524.732-1.025,1.481-1.526,2.229-.253.378-.506.756-.763,1.131l-.252.379c-.221.335-.429.65-.667.932-.71.84-1.501,1.842-1.899,3.101-.036.114-.085.223-.139.347l-.097.228c-.03.071-.044.148-.044.226v1.041l-.164.104c-.965.611-1.895,1.172-2.912,1.156-.404-.14-.648-.371-.829-.783-.451-1.024-1.458-1.63-2.536-1.625-.739.014-1.576.031-2.406.304-2.21.731-3.812,1.927-4.897,3.657-.502.8-.986,1.611-1.47,2.423l-.461.771c-.072.12-.106.234-.147.374l-.073.183c-.395.983-.802,2.001-1.101,3.067-.091.323-.188.643-.285.964-.19.625-.386,1.269-.532,1.937-.08.361-.111.711-.142,1.048-.019.211-.037.421-.069.629-.12.788-.15,1.644-.09,2.618.041.664.139,1.303.243,1.979.027.172.054.347.08.523l-1.143.772c-.326-.047-.636-.054-.938-.06-.323-.006-.628-.013-.925-.069-.47-.091-.914-.29-1.383-.5-.598-.269-1.216-.546-1.918-.6-.073-.006-.146.002-.215.023l-.172.051c-.97.288-1.886.561-2.717,1.217-.406.321-.865.726-1.19,1.305-.051.089-.107.176-.161.263-.075.118-.15.236-.217.359-.568,1.029-.993,2.146-1.266,3.322-.096.417-.179.839-.262,1.259-.196.999-.383,1.942-.746,2.84-.143.351-.299.697-.437,1.001l-.082.183-.821.464c-.176.1-.289.284-.299.486-.853-.247-1.681-.174-2.455-.052-.788.123-1.581.41-2.233.808-1.391.848-2.611,2.063-3.843,3.824-.676.968-1.048,2.011-1.075,3.015-.025.935-.031,2.17.144,3.442.251,1.815.866,3.465,1.461,5.058.127.341.279.672.432,1.002.184.398.358.774.48,1.158.348,1.093.803,2.144,1.243,3.161l.329.764c.502,1.173,1.022,2.386,1.304,3.63.122.537.221,1.08.323,1.643l.127.688c-.297,1.019-.668,2.02-1.061,3.076-.423,1.139-.861,2.318-1.198,3.528-.108.388-.252.688-.416.867l-.332.369c-.57.638-1.159,1.296-1.825,1.752-1.121.766-2.047,1.579-2.828,2.482-.577.667-1.732,2.704-2.004,3.65-.38,1.322-.609,2.464-.491,3.738.057.613.052,1.282.047,2.006-.006.772.072,1.463.239,2.114l.08.309c.273,1.072.556,2.179,1.077,3.227.264.533.511,1.075.758,1.616.179.392.358.784.542,1.172.223.47.52.86.898,1.178-.095.06-.19.119-.287.174-.195.11-.391.215-.587.321-.507.272-1.031.553-1.531.926-.359.267-.591.603-.778.874-.132.191-.257.372-.361.432-.107.062-.193.156-.244.268l-.748,1.64c-.025.054-.041.111-.049.17l-.082.593c-.066.459-.133.919-.167,1.383-.086,1.141-.012,2.349.221,3.593l.02.109c.163.873.333,1.775.713,2.607.474,1.039,1.054,2.231,1.928,3.246.317.367.626.741.936,1.116.597.723,1.214,1.471,1.883,2.162.481.497,1.01.938,1.522,1.364.435.361.845.703,1.23,1.077Z" stroke-width="0"/>
        <path d="m198.57,147.776l-.069.722c-.031.063-.063.123-.094.183-.121.23-.259.489-.298.797-.067.527-.289,1.026-.524,1.553-.21.47-.426.955-.549,1.495-.386.592-.706,1.217-1.016,1.822-.401.782-.779,1.521-1.285,2.185-.138.181-.257.378-.374.575-.067.111-.133.223-.206.332l-.163.249c-.167.258-.325.501-.505.71-1.083,1.251-2.126,2.489-2.974,3.876l-.267.432c-.618.995-1.257,2.024-1.578,3.225-.28,1.044-.474,2.031-.597,3.018-.162,1.311-.23,2.867.501,4.469.613,1.343,1.711,2.221,3.356,2.685,1.177.332,2.369.287,3.521.241l.427-.016c.183-.006.354-.098.461-.247l.281-.392,2.452-.224.714.482.398.791.057,1.146c.016.316.276.563.592.563h.675c.173,0,.338-.076.451-.208.547-.641.503-1.375.472-1.911-.01-.169-.022-.335-.011-.494.006-.086-.006-.172-.037-.253-.302-.792-.854-1.906-2.157-2.439-.046-.019-.095-.032-.144-.038-2.099-.289-3.944.417-5.726,1.097l-.139.054c-1.325-.362-2.359-.903-3.314-1.731-.043-.114-.092-.236-.144-.362-.154-.375-.327-.802-.329-1.173-.005-1.015.224-2.05.424-2.838.342-1.347.997-2.688,2.123-4.349.945-1.394,2.068-2.712,3.155-3.988l.676-.79c.53-.614,1.078-1.251,1.497-1.997,1.07-1.905,2.178-3.875,2.884-6.055.439-1.356.692-2.788.797-4.508.045-.759-.031-1.613-.225-2.539-.062-.297-.118-.595-.173-.893-.113-.608-.23-1.235-.403-1.86-.502-1.81-1.286-3.628-2.543-5.894-.719-1.296-1.658-2.318-2.792-3.038-1.422-.901-2.767-1.385-4.111-1.481-1.212-.089-2.461-.025-3.708.183-1.169.195-2.607.434-3.931,1.186-.099-.033-.199-.068-.299-.102-.43-.147-.866-.296-1.312-.404-1.34-.325-2.501-1.121-3.765-2.583-.424-.49-.662-.991-.726-1.534-.028-.233,0-.478.03-.739.019-.163.037-.325.044-.489.041-.831.334-1.636.644-2.382.327-.786.78-1.627,1.425-2.646,1.005-1.585,2.125-2.819,3.422-3.772.773-.568,1.573-1.053,2.422-1.565l.416-.252c1.544-.94,3.392-2.013,5.386-2.848.171-.072.348-.132.524-.191.281-.095.57-.194.855-.337.793-.399,1.712-.871,2.583-1.408,1.328-.82,2.694-1.751,3.513-3.323.208-.397.429-.785.639-1.153l.272-.481c.035-.063.059-.133.069-.204l.102-.676c.064-.426.126-.835.181-1.244.2-1.482-.181-2.833-.549-4.138-.127-.451-.255-.902-.356-1.357-.016-.069-.043-.133-.08-.192-.369-.574-.646-1.196-.938-1.856-.268-.601-.544-1.224-.901-1.817-.907-1.508-1.912-3.085-3.34-4.351-1.082-.96-2.57-2.042-4.638-1.871-.203.018-.405.059-.607.102-.164.035-.328.073-.494.082-1.685.095-3.304.655-4.817,1.665-.419.28-.895.46-1.399.65-.493.186-1.002.378-1.484.677-.871.184-1.705.474-2.512.755-.601.209-1.222.425-1.838.589-.389.103-.778.211-1.168.319l-.525.152c-1.559.186-3.227-.044-5.252-.73-.769-.26-1.484-.634-2.24-1.029l-.571-.295c-1.007-.512-1.931-1.169-2.824-2.008-.242-.228-.5-.439-.758-.65-.204-.167-.408-.333-.602-.509l-.121-.107c-.332-.296-.537-.49-.57-.77-.026-.219-.17-.405-.375-.485-.229-.089-.368-.268-.576-.612-.141-.234-.25-.494-.367-.769-.098-.234-.197-.467-.315-.692-.153-.29-.376-.862-.155-1.43.095-.244.128-.472.101-.677-.089-.67.149-1.322.401-2.014.057-.156.113-.31.166-.464.249-.733.669-1.42,1.113-2.148.132-.215.263-.431.39-.648.26-.443.554-.863.865-1.307.575-.819,1.17-1.667,1.534-2.679.027-.074.063-.143.099-.186.498-.6.65-1.302.772-1.865.027-.12.048-.243.069-.366.046-.263.091-.511.18-.701.437-.922.424-1.84.411-2.728-.007-.53-.015-1.03.076-1.506.018-.095.012-.193-.016-.284-.145-.472-.237-.954-.335-1.465-.17-.881-.345-1.793-.803-2.684-.712-1.382-1.702-2.267-3.029-2.708-.539-.18-1.543-.511-2.564-.081-.226.096-.508.133-.805.171-.025.003-.05.006-.074.009-.116-.155-.23-.308-.343-.459-.404-.543-.793-1.066-1.211-1.564-.994-1.187-1.94-2.004-2.977-2.573-.174-.095-.347-.202-.52-.308-.482-.297-.981-.602-1.559-.743-1.251-.309-2.81-.694-4.375-.226-.953.283-1.806.55-2.612.958-1.545.782-2.89,1.863-4.191,2.91l-.297.24c-.587.47-1.167.948-1.747,1.426-.576.474-1.152.949-1.734,1.416l-.565.457c-.995.81-1.935,1.574-3.03,2.146-1.168.61-2.226.969-3.328,1.13-.727.107-1.444.083-2.204.059-.257-.008-.514-.017-.772-.019-.457-.005-.98-.104-1.646-.311-1.571-.489-2.871-1.333-3.863-2.507-1.001-1.183-1.462-2.385-1.411-3.676.021-.566.264-1.089.521-1.641l.086-.186c.228-.495.461-.739.804-.832.024.01.048.021.073.032.305.133.873.381,1.489-.08.576-.471.427-1.103.346-1.448-.039-.17-.151-.313-.305-.393l-.525-.272c-.133-.069-.284-.086-.43-.045l-.243.062c-.195.047-.373.093-.544.158-.783.299-1.764.777-2.401,1.833-.985,1.634-1.343,3.278-1.062,4.89.244,1.398.918,2.688,2.006,3.835,1.206,1.272,2.685,2.216,4.397,2.807.898.31,1.816.481,2.705.646l.29.054c1.311.245,2.639.283,3.946.111,1.233-.162,2.539-.603,3.883-1.31,1.248-.659,2.365-1.508,3.514-2.382.217-.164.441-.319.665-.474.293-.203.585-.405.862-.625.253-.201.493-.422.733-.642.37-.34.718-.663,1.103-.89.697-.414,1.34-.9,1.962-1.37.758-.573,1.474-1.114,2.279-1.535.893-.468,1.562-.731,2.238-.879.099-.021.199-.048.299-.075.204-.054.398-.103.539-.095.316.02.641.092.986.168.138.031.276.06.414.088l2.1.832c.307.262.631.511.959.762.952.727,1.851,1.415,2.4,2.511.084.169.244.286.43.319l2.237.382c.257.044.506-.082.625-.31l.041-.076c.044-.003.088-.006.133-.008.27-.019.503-.031.669.015.969.277,1.659.905,1.942,1.77.529,1.615.689,2.975.503,4.28-.182,1.283-.554,2.588-1.17,4.108-.426,1.054-1.053,1.977-1.715,2.957-.363.537-.739,1.091-1.077,1.667-.811,1.382-1.63,2.895-2.128,4.6-.418,1.431-.492,2.894-.216,4.23.377,1.812,1.269,3.473,2.583,4.806,1.059,1.076,2.177,2.024,3.324,2.98.663.553,1.469,1.179,2.427,1.623.269.125.53.265.792.405.531.284,1.08.576,1.704.767.338.104.671.248,1.023.4.31.135.623.271.947.383.894.309,1.794.414,2.665.515.431.051.862.1,1.291.176.451.079.897-.013,1.289-.095.144-.03.288-.06.43-.08,1.562-.218,2.782-.587,3.839-1.161l.297-.163c.688-.378,1.338-.736,2.061-.865.272-.047.475-.199.625-.31.04-.03.08-.06.122-.087l.454-.292c.304-.197.608-.395.925-.57,1.024-.569,2.058-1.116,3.097-1.66.09-.047.189-.072.288-.102.115-.034.23-.069.341-.115.271-.11.596-.122.941-.136.34-.013.692-.027,1.052-.129.954-.274,1.796-.051,2.745.713,2.119,1.704,3.417,4.139,4.467,6.289.642,1.314,1.306,2.672,1.267,4.146-.002.083.013.166.045.243.232.558.133,1.142.018,1.817l-.033.198c-.171,1.029-.655,1.932-1.524,2.84-1.271,1.328-2.927,2.129-4.515,2.835l-.114.051c-1.496.666-3.042,1.355-4.51,2.155-.661.36-1.277.789-1.874,1.204-.523.363-1.016.706-1.538,1.009-1.98,1.149-3.568,2.545-4.856,4.269-1.579,2.114-2.59,4.17-3.092,6.287-.331,1.396-.339,2.57-.027,3.695.17.612.504,1.092.799,1.514.099.142.198.284.291.431.739,1.172,1.788,2.038,3.21,2.644.149.064.307.111.465.156.107.032.217.061.321.105,1.118.47,2.294.684,3.479.646.244-.009.469-.063.667-.11.161-.039.314-.075.44-.078.862-.019,1.68-.197,2.471-.37l.484-.104c.095-.019.188-.043.283-.066.189-.046.367-.09.524-.095.585-.021,1.169-.014,1.754-.009l.375.004c.166.002.322.003.437.032,2.283.59,3.944,2.063,4.935,4.375.609,1.421,1.284,3.118,1.676,4.942l.101.456c.226,1.016.439,1.976.353,2.96-.046.541-.099,1.081-.15,1.608Z" stroke-width="0"/>
        <path d="m164.205,34.371l-.829-.242c-.217-.063-.452.004-.605.174l-.078.089c-.108.126-.159.293-.139.458.019.165.107.315.243.411l.221.164c.19.143.381.284.585.403,1.664.966,3.144,1.377,4.666,1.292.446-.024.893-.036,1.341-.047,1.023-.026,2.081-.053,3.118-.237.459-.082.931-.087,1.432-.093.704-.008,1.431-.016,2.165-.244.711.021,1.426.009,2.12-.005,1.345-.024,2.613-.051,3.889.168,1.153.196,2.034.51,2.771.984,1.051.677,2.055,1.505,2.942,2.235,1.343,1.106,2.421,2.409,3.297,3.984.211.38.324.806.444,1.257.082.309.166.625.285.933l-.05.136c-.081.221-.154.425-.244.623-.389.86-.674,4.46-.668,5.008-.002.071-.006.179.025.309.64,2.596,1.525,4.592,2.785,6.28,1.345,1.8,3.176,3.001,5.597,3.671,1.42.392,2.836.795,4.25,1.203,1.239.358,2.099,1.084,2.709,2.286.631,1.246,1.048,2.271,1.314,3.227.182.655.372,1.308.561,1.962l.402,1.396c.187.659.205,1.913-.051,2.604-.196.531-.414,1.054-.631,1.576l-.328.797c-.262.65-.603,1.067-1.106,1.35-.609.341-1.286.79-1.696,1.537-.056.101-.081.216-.071.331.093,1.211.259,1.415,1.49,1.823.164.053.342.035.489-.054l.486-.284c.386-.224.789-.457,1.177-.709.951-.615,1.828-.901,2.71-.847.887.373,1.55.897,2.026,1.598.235.348.447.714.657,1.08l.287.492c.057.095.123.19.19.284.07.1.178.251.187.311.054.331.137.656.221.98.146.565.284,1.099.236,1.633-.033.361-.014.743.055,1.104.068.353.149.704.23,1.055.13.561.253,1.091.319,1.626.104.86.156,1.744.207,2.599.017.287.033.574.052.858-.258.359-.37.74-.462,1.057-.066.226-.123.421-.218.585-.303.524-.682.986-1.082,1.475-.214.262-.428.524-.631.794-.207.276-.417.549-.627.823-.526.685-1.07,1.394-1.559,2.134-1.147,1.745-1.023,3.661-.903,5.523.029.442.147.852.262,1.248l.102.363c.099.377.208.751.316,1.123l.095.325-.224,1.056c-.051.241.051.488.259.623.115.074.221.154.322.231.265.199.538.405.892.492,1.177.286,2.367.499,3.377.67.639.108,1.283.195,1.927.282.422.057.842.113,1.264.176.089.013.176.043.264.069.173.054.369.114.596.124.795.036,1.587.091,2.381.145l.415.029c1.658.111,2.902.822,3.916,2.234.419.583.703,1.235,1.005,1.926l.158.36c.401.903.461,1.945.517,2.953l.016.285c.06,1.004-.771,1.473-1.272,1.664-1.666.635-3.092,1.722-4.266,2.7-.253.21-.526.397-.798.584-.137.095-.274.189-.409.285-.063.045-.117.102-.158.168l-.148.235c-.579.918-1.236,1.959-1.26,3.346-.002.095.019.188.061.273l.234.467c.095.188.282.312.492.326l.459.03c.272.016.517-.148.602-.403.297-.886.545-1.519,1.116-1.923.363.13.644.426.974.817.304.629.277,1.274.199,1.709-.256,1.425-.58,2.817-.963,4.136-.4,1.378-.815,2.803-1.429,4.081-.236.489-.452.987-.669,1.485-.348.803-.708,1.634-1.151,2.402-.642,1.117-1.485,2.061-2.818,3.159-.432.356-.872.701-1.313,1.047-1.206.947-2.454,1.926-3.523,3.111-1.658,1.836-2.234,4.129-1.713,6.819.176.913.48,1.776.774,2.611.094.268.188.536.305.885.396,1.187.805,2.416,1.446,3.559.242.43.56.927,1.264,1.372.097.061.208.092.317.092.137,0,.274-.047.385-.141.091-.078.151-.18.182-.29.193.178.372.378.552.594.161.195.323.387.501.568.74.75,1.295,1.578,1.646,2.461.32.801.486,1.589.48,2.279-.004.494.035.98.074,1.451.061.755.12,1.468.006,2.179-.055.342-.074.69-.094,1.04-.024.451-.046.878-.155,1.277-.104.386-.193.776-.282,1.166-.178.785-.347,1.527-.64,2.238-.224.547-.472,1.08-.719,1.613l-.326.711c-.438.966-.944,1.772-1.547,2.461-.525.6-1.074,1.178-1.623,1.756-.579.611-1.158,1.22-1.71,1.854-.689.789-1.386,1.655-1.683,2.787-.151.575-.31,1.148-.47,1.721-.247.885-.494,1.771-.708,2.663-.25,1.042-.426,2.107-.597,3.138l-.041.249c-.072.428-.054.856.051,1.206.335,1.121.814,1.993,1.465,2.665,1.527,1.576,2.868,2.569,4.347,3.22.17.075.571.278.595.539.067.757.405,1.35.652,1.784l.019.035c.06.383.117.754.17,1.118.131.869.255,1.692.425,2.554.213,1.069.433,2.175.476,3.25.049,1.209-.003,2.491-.71,3.677-.276.463-.479.956-.675,1.433-.211.512-.41.997-.686,1.417-.709,1.08-1.56,2.155-2.53,3.195-1.631,1.749-3.795,2.66-5.498,3.26-1.369.481-2.809,1.031-4.043,1.996l-.145.106c-.17.122-.364.261-.523.467-1.148,1.497-2.156,3.01-1.888,5.071.01.078.024.157.053.312.03.178.139.333.297.421l.567.314c.09.05.189.074.287.074.17,0,.337-.073.453-.21.047-.057.107-.111.165-.168.208-.202.468-.452.552-.824.062-.273.206-.515.373-.795.088-.149.177-.298.256-.454.71-1.399,2.054-2.199,3.402-2.856.831-.405,1.716-.762,2.572-1.105.996-.401,2.027-.815,3.011-1.32.63-.322,1.25-.716,2.008-1.275,1.672-1.23,2.823-2.813,3.728-4.2.192-.294.351-.609.509-.924.158-.315.308-.613.488-.877.511-.748.896-1.598,1.176-2.597.044-.158.093-.315.14-.473.146-.482.298-.979.36-1.507.023-.2.065-.401.106-.603.14-.683.298-1.457-.063-2.269.186-.391.123-.713.077-.949-.162-.816-.252-1.525-.276-2.167-.028-.723-.174-1.45-.461-2.291-.764-2.244-2.216-4.198-4.436-5.973-.817-.653-1.653-1.221-2.485-1.689-.838-.473-1.211-1.208-1.573-2.318-.12-.367-.084-.741-.044-1.174.013-.138.026-.276.035-.416.057-.934.211-1.905.469-2.969l.046-.194c.261-1.084.508-2.109,1.13-2.932.395-.524.87-.991,1.374-1.486l.45-.447c.575-.579,1.155-1.153,1.735-1.726.511-.506,1.023-1.012,1.531-1.522,1.067-1.069,1.724-2.381,2.358-3.649l.139-.275c.871-1.733,1.4-3.318,1.617-4.848.013-.096.044-.19.072-.284.063-.211.135-.45.123-.726-.022-.565-.004-1.133.014-1.7.036-1.154.074-2.347-.217-3.548-.12-.501-.181-.926-.183-1.295-.009-1.166-.477-2.128-.929-3.058l-.057-.118c-.694-1.432-1.767-2.643-3.189-3.598-.425-.286-.767-.648-1.123-1.193v-.77l.38-.667c.104-.183.103-.409-.004-.591s-.301-.295-.512-.295h-.56c-.13,0-.256.043-.359.121-.617.469-.704,1.098-.767,1.558-.016.12-.035.228-.058.324-.035-.129-.072-.257-.098-.388-.102-.512-.257-1.005-.407-1.482-.107-.338-.213-.676-.298-1.017-.232-.925-.457-1.936-.71-3.182-.04-.198-.009-.46.017-.638.044-.293.108-.582.176-.89l.084-.386c.024-.057.048-.117.073-.18.066-.163.133-.332.22-.461l.236-.363c.271-.422.526-.82.843-1.107.539-.487,1.12-.919,1.735-1.376.287-.213.575-.427.856-.646.244-.189.481-.391.717-.592.472-.402.918-.782,1.408-1.051,1.219-.668,2.103-1.684,2.813-2.5,1.081-1.243,1.824-2.695,2.542-4.098.213-.416.425-.832.649-1.245.052-.096.069-.186.063-.186,0,0,0,0-.002.003l.369-1.043c.279-.783.558-1.566.806-2.359.092-.294.191-.585.29-.876.323-.951.658-1.934.753-3.017.015-.164.022-.334.03-.504.015-.368.03-.715.127-.98.366-1.009.123-1.906-.092-2.696l-.099-.376c-.267-1.055-.931-1.859-1.974-2.389-.032-.016-.064-.032-.095-.048l.055-.037c.64-.445,1.241-.862,1.863-1.249.481-.301.993-.605,1.49-.719.841-.192,1.452-.631,1.982-1.423.422-.63.639-1.335.665-2.155.043-1.349-.247-2.659-.505-3.651-.253-.97-.581-1.741-1.004-2.358-.608-.89-1.228-1.751-2.115-2.487-.878-.727-1.825-1.248-2.893-1.59-.982-.315-2.027-.464-3.372-.442-.156.002-.312.013-.471.024-.42.03-.78.054-1.069-.119-.16-.096-.356-.111-.53-.041-.094.04-.257.015-.447-.012-.329-.046-.775-.11-1.229.134-.042-.008-.086-.02-.131-.032-.096-.022-.193-.044-.284-.056-.057-.007-.116-.02-.174-.032-.15-.032-.339-.071-.546-.06-.873.052-1.763-.174-2.617-.392l-.193-.048c-.491-.456-.818-1.017-1.082-1.85-.183-.576-.172-1.181-.159-1.822.006-.277.011-.555.002-.833-.032-.908.249-1.8.911-2.894.176-.29.438-.527.715-.777.168-.152.335-.304.489-.468.77-.818,1.458-1.648,2.276-2.646.926-1.13,1.989-2.693,1.997-4.766.003-.688-.002-1.375-.039-2.061-.043-.789-.107-1.578-.172-2.368l-.055-.667c-.017-.199-.087-.373-.137-.486-.212-.476-.298-1.011-.289-1.787.003-.236-.044-.449-.085-.638-.019-.086-.038-.172-.05-.259-.199-1.481-.72-2.906-1.594-4.357-.898-1.491-1.793-2.469-2.903-3.171-.876-.554-1.785-.803-2.733-.739,1.182-1.819,1.154-3.831.983-5.417-.119-1.106-.398-2.192-.667-3.243l-.284-1.13c-.218-.894-.444-1.818-.845-2.676l-.17-.368c-.41-.902-.876-1.921-1.806-2.635,0,0,0,0,0-.002-.037-.082-.093-.207-.201-.324l-.088-.099c-.159-.18-.357-.403-.644-.532l-.622-.279c-.948-.427-1.929-.869-2.938-1.219-.996-.344-2.098-.625-3.37-.86-.723-.134-1.401-.431-2.016-.882-1.039-.759-1.837-1.846-2.479-2.81-.437-.655-.824-1.368-1.198-2.058-.109-.202-.219-.404-.328-.603.008-.012.018-.024.027-.036.196-.268.398-.545.474-.904.219-1.04.372-2.062.455-3.037.03-.353-.03-.693-.082-.993-.035-.199-.072-.398-.073-.596-.003-1.052-.34-1.977-.666-2.873-.096-.264-.192-.527-.278-.793-.131-.401-.347-.739-.558-1.065-.082-.129-.166-.257-.272-.437-.423-.593-.882-1.219-1.446-1.777-.987-.975-1.881-1.802-2.734-2.529-1.936-1.65-3.644-2.536-5.54-2.873-.188-.033-.377-.071-.566-.108-.93-.184-1.891-.377-2.868-.146-.447.103-.9.09-1.382.08-.348-.007-.7-.017-1.055.014-.555.049-1.113.071-1.672.095-.833.035-1.695.07-2.549.19-.932.131-1.905.315-2.891.549-1.588.376-2.981.402-4.26.081-.637-.158-1.266-.344-1.895-.529Z" stroke-width="0"/>
        <path d="m145.654,180.474l-.55.182c-.169.055-.304.183-.369.349l-.578,1.497c-.026.069-.04.141-.04.214l.006,1.024c.008.899.016,1.828-.019,2.77-.029.755-.131,1.511-.302,2.246-.174.744-.383,1.48-.592,2.216-.145.514-.291,1.029-.425,1.545-.114.436-.214.876-.313,1.315-.141.617-.285,1.256-.468,1.861-.129.431-.299.851-.48,1.295-.183.453-.373.92-.519,1.408-.64,2.147-1.28,3.731-2.074,5.133-.127.225-.239.461-.35.696-.156.329-.302.64-.489.901-.332.461-.671.917-1.011,1.373-.851,1.142-1.731,2.323-2.476,3.597-.496.846-1.065,1.681-1.614,2.487-.486.712-.987,1.447-1.446,2.2-.96,1.577-1.907,3.263-2.893,5.151-.536,1.025-1.266,1.999-2.368,3.159-.9.949-1.925,1.812-2.916,2.646-.373.315-.747.629-1.116.949-.667.579-1.417,1.108-2.141,1.62l-.14.099c-.383.271-.776.529-1.168.788-.557.366-1.133.745-1.68,1.16-1.172.89-2.329,1.831-3.435,2.797-1.002.874-2.039,1.656-3.169,2.391-1.337.869-2.786,1.552-4.43,2.088-.137.044-.277.084-.417.124-.297.084-.605.171-.908.308-.576.258-1.143.535-1.711.811-.334.163-.667.326-1.003.485-.194.092-.393.172-.592.253-.145.058-.289.117-.432.179l-.682.3c-.306.135-.611.271-.917.401-.107.046-.213.095-.32.145-.252.117-.49.228-.713.271-.587.115-1.112.334-1.618.545-.233.096-.465.194-.701.279-.114.041-.225.088-.337.135-.162.069-.315.135-.447.161l-.553.111c-.695.143-1.352.278-2.01.307-.61.027-1.176.161-1.724.291-.435.104-.845.201-1.265.244-.556.058-1.114.096-1.673.135-.615.042-1.231.084-1.846.152-.082.009-.171.022-.262.036-.164.023-.473.072-.561.031-.506-.27-.941-.146-1.225-.062-.096.027-.224.059-.305.052-1.345-.012-2.728-.026-4.11.19-.473.075-.975,0-1.506-.081-.282-.043-.563-.084-.846-.107-.739-.058-1.451-.221-2.24-.411-.575-.139-1.156-.259-1.815-.395l-.924-.192-.175-.07c-1.248-.496-2.662-1.058-3.732-2.153-.635-.65-1.269-1.3-1.909-1.946-.276-.279-.556-.555-.848-.82-.295-.266-.602-.521-.91-.777-.638-.529-1.241-1.029-1.722-1.619-.708-.871-1.351-1.838-1.973-2.774-.342-.516-.685-1.031-1.041-1.537-.642-.912-1.332-1.878-2.069-2.788-1.282-1.576-2.402-3.018-3.137-4.695-.284-.649-.588-1.288-.892-1.927-.328-.688-.655-1.378-.958-2.079-.165-.384-.326-.769-.487-1.155-.67-1.608-1.364-3.271-2.389-4.786-.517-.764-.931-1.587-1.37-2.459-.238-.473-.476-.946-.732-1.409-.17-.31-.361-.612-.551-.913-.241-.38-.468-.739-.653-1.115-.201-.406-.368-.828-.536-1.251-.175-.44-.349-.879-.557-1.304-.513-1.048-.902-2.183-1.277-3.282-.299-.878-.61-1.785-.987-2.663-.43-1.003-.753-2.088-1.067-3.138-.199-.67-.399-1.339-.626-1.998-.349-1.012-.735-2.013-1.12-3.012-.171-.447-.344-.892-.513-1.341-.056-.146-.119-.292-.182-.437-.122-.284-.239-.551-.28-.802-.222-1.349-.428-2.798-.435-4.252-.002-.422,0-.842,0-1.264l.002-.637-.005-.561c-.005-.404-.009-.807.009-1.211.016-.329.01-.658.006-.986-.005-.282-.009-.562.002-.844.006-.153.04-.309.072-.466.07-.347.151-.739.041-1.141-.149-.548-.135-1.116-.12-1.717.008-.325.016-.65,0-.975-.012-.249,0-.503.008-.756.019-.512.04-1.042-.091-1.571-.131-.528-.171-1.069-.214-1.642-.027-.358-.055-.715-.103-1.071-.209-1.546-.448-3.086-.696-4.623-.028-.179-.072-.355-.118-.531-.026-.1-.052-.199-.073-.3-.053-.251-.096-.505-.14-.759-.098-.57-.2-1.159-.4-1.73-.204-.58-.389-1.167-.575-1.752-.255-.808-.519-1.644-.832-2.458-.259-.677-.483-1.39-.699-2.079-.259-.827-.528-1.683-.869-2.515-.561-1.37-.983-2.844-1.368-4.237-.163-.592-.26-1.205-.373-1.915-.055-.345-.111-.705-.18-1.088-.028-.157-.12-.292-.242-.382.008-.038.028-.073.028-.114,0-.121-.051-.241-.126-.343,0,0,0,0,0,0-.011-.06-.022-.12-.033-.182-.053-.302-.108-.615-.232-.927-.84-2.135-1.522-4.359-2.087-6.798-.321-1.386-.486-2.822-.647-4.21l-.072-.623c-.116-.974-.086-1.995-.058-2.983.011-.385.021-.766.024-1.144l.125-.176c.187-.259.366-.509.521-.77.136-.228.26-.463.383-.7.129-.246.258-.493.404-.729.532-.853,1.028-1.61,1.517-2.309.297-.426.609-.802.926-1.118.158-.157.335-.293.512-.43.265-.205.538-.418.777-.693.729-.841,1.725-1.298,2.832-1.804,1.319-.604,2.415-.938,3.451-1.049.189-.019.375-.067.562-.115.118-.031.236-.063.356-.08.239-.033.482-.053.725-.073.535-.045,1.087-.092,1.624-.262.025,0,.102.027.153.045.2.07.575.201.967-.043.16-.101.347-.096.657-.083.171.008.345.013.515,0,.694-.056,1.382-.032,2.111-.006.584.021,1.19.042,1.795.018.647-.027,1.259.158,1.782.527.191.135.403.242.617.346.088.044.177.086.262.133.86.468,1.492,1.227,1.997,1.908.265.358.479.764.706,1.194.095.179.19.359.288.535.134.241.263.486.391.73.276.525.561,1.068.908,1.578.563.825,1.088,1.641,1.326,2.551.101.388.224.775.347,1.161.392,1.232.763,2.396.415,3.618-.044.147-.054.375.156.641.066.078.163.148.259.183.054.028.111.045.17.056l.109.714c.135.862.274,1.753.31,2.618.057,1.367.037,2.769.018,4.124l-.013,1.026c-.002.182.002.365.006.549.009.42.018.815-.047,1.161-.093.493-.141.998-.147,1.547-.009.964-.009,1.928-.008,2.892v1.553c0,.114.006.232.013.348.011.182.024.388-.013.481-.209.519-.202,1.016-.195,1.455.003.193.007.385-.012.576-.025.249-.056.499-.086.748-.045.374-.091.749-.12,1.124-.057.745-.105,1.49-.152,2.235l-.102,1.38c-.016.06-.032.12-.041.181-.033.202-.07.403-.107.605-.089.489-.177.979-.224,1.473-.044.457-.068.916-.091,1.374-.034.669-.067,1.301-.159,1.928-.134.906-.204,1.864-.212,2.928,0,.05.003.101.019.153-.239.807-.27,1.613-.299,2.393-.016.438-.032.876-.089,1.31-.107.818-.081,1.64-.057,2.434.011.337.021.673.021,1.005,0,.116.033.229.097.325.056.084.119.166.181.245.046.058.116.147.124.158.137.795.706,1.203,1.123,1.441l.319.183c.892.513,1.814,1.044,2.894,1.333,1.363.365,2.757.556,3.99.556.471,0,.917-.028,1.332-.084.453-.062.883-.213,1.208-.425.836-.544,1.658-1.108,2.48-1.673l.886-.608c.021-.016.043-.032.062-.049h0c.051-.014.102-.028.152-.045,1.447-.518,3.009-.906,4.642-.252.249.098.5.107.669.092.322-.02.676.063,1.048.155.515.126,1.091.268,1.724.145,2.087.43,4.004.045,5.702-1.139.091-.063.162-.151.206-.252l.991-2.304c.055-.128.063-.272.023-.405l-.208-.691c-.051-.17-.176-.308-.339-.376l-.6-.249c-.222-.095-.479-.043-.649.128l-.307.305c-.232.23-.468.465-.7.706-.087.092-.167.196-.244.302-.054.074-.135.185-.172.208-.683.397-1.733.818-2.869.564-.363-.081-.707-.09-1.041-.099-.412-.011-.768-.02-1.078-.162-.148-.068-.316-.07-.464-.012-.142-.067-.365-.166-.644-.118-.061.007-.238-.046-.356-.082-.105-.033-.21-.065-.315-.09l-.812-.189c-.176-.039-.359,0-.5.11-.108.085-.211.074-.503-.051-.109-.046-.227-.06-.343-.038-.146.027-.272.057-.385.083-.143.032-.277.059-.334.059-1.608-.069-2.899.605-4.103,1.311-.568.332-1.118.694-1.667,1.056-.408.268-.815.537-1.231.793-.198.122-.416.201-.57.204l-.524.017c-.883.032-1.721.061-2.525-.172-.322-.095-.653-.157-1.054-.231-.17-.032-.354-.066-.556-.106l-1.466-.746-.18-.365s0-.003.002-.004c.065-.19.139-.405.147-.65l.015-.531c.026-.907.049-1.764.184-2.631.133-.849.172-1.709.209-2.541.016-.351.032-.701.055-1.051,0-.011,0-.057,0-.099.247-.598.253-1.205.258-1.744.003-.398.006-.775.099-1.121.225-.837.298-1.702.37-2.538.032-.381.065-.761.111-1.136.014-.113.044-.225.074-.337.052-.201.1-.402.114-.607.07-1.098.129-2.198.188-3.298l.058-1.097c.003-.054,0-.109-.005-.193.219-.569.207-1.132.196-1.633-.005-.219-.01-.437.006-.653.023-.294.052-.587.081-.881.046-.47.092-.94.117-1.41.051-.949.035-1.906.02-2.832-.025-1.504-.048-2.924.186-4.354.012-.078.009-.158-.009-.235-.108-.446-.071-.923-.032-1.427.03-.376.06-.764.034-1.168-.015-.219-.05-.438-.086-.656-.037-.223-.077-.446-.078-.68-.012-1.673-.025-3.404-.452-5.115-.171-.687-.294-1.408-.412-2.107-.074-.438-.148-.876-.234-1.31l-.094-.494c-.115-.627-.235-1.276-.469-1.9-.384-1.022-.874-1.978-1.345-2.86-.35-.655-.72-1.298-1.091-1.942-.386-.672-.772-1.343-1.135-2.027-.68-1.283-1.644-2.222-2.496-2.971-.911-.801-1.967-1.318-2.886-1.739-1.142-.524-2.206-.753-3.336-.72-.287.012-.585.022-.809-.04-.786-.213-1.557-.216-2.4.002-.077.02-.206.054-.19.069-.738-.313-1.423-.31-2.089.005-.02.008-.06.015-.091.017-.508-.317-.985-.172-1.276-.087-.091.028-.176.053-.234.057l-.313.026c-.35.029-.702.057-1.052.102-.678.089-1.32.268-1.941.44-.443.123-.886.246-1.338.335-1.017.196-1.98.65-2.831,1.05-.74.348-1.459.787-2.133,1.302-1.133.866-2.037,1.631-2.843,2.406-.088.085-.172.173-.252.263.285-1.109.587-2.25.961-3.399.917-2.818,1.867-5.732,3.313-8.367.379-.69.843-1.356,1.419-2.034l2.631-3.109c.331-.382.661-.764.976-1.156.174-.216.33-.446.486-.676.119-.176.236-.352.365-.52.372-.481.315-.974.274-1.334l-.019-.186c-.011-.147-.076-.285-.183-.386l-.476-.454c-.11-.106-.257-.164-.41-.164h-.71c-.186,0-.361.087-.473.235l-.273.371c-.172.239-.342.474-.532.688-.312.354-.634.701-.955,1.046-.544.586-1.107,1.193-1.623,1.833-1.345,1.672-2.385,3.508-3.094,5.457-.353.972-.704,1.946-1.029,2.927-.379,1.143-.74,2.292-1.085,3.446-.129.431-.246.866-.361,1.302-.188.706-.383,1.435-.629,2.118-.328.907-.503,1.833-.684,2.785-.153.805-.183,1.623-.211,2.414-.012.331-.024.662-.045.991-.005.082-.006.165-.006.247,0,.109,0,.212-.017.277-.217.894-.3,1.773-.382,2.621l-.033.348c-.012.121.014.243.073.349.118.209.217.385.274.488.034.29.069.562.103.822.076.588.144,1.109.176,1.633.046.736.123,1.469.2,2.201.076.716.151,1.431.196,2.146.033.533.148,1.033.259,1.516.135.587.262,1.142.23,1.696-.004.062.003.124.019.185.549,2.088,1.291,4.245,2.269,6.598.109.261.296.45.446.602.011.011.022.022.032.033.006.014.019.022.027.036.021.038.048.069.077.102.028.032.053.062.087.087.012.009.019.023.031.031.014.012.032.016.047.027-.004.021-.015.039-.017.061-.172,1.914-.009,3.618.513,5.362.211.703.47,1.391.72,2.056.354.941.689,1.831.908,2.781.247,1.07.562,2.136.866,3.166.297,1.005.604,2.045.844,3.075.383,1.648.697,3.389.962,5.324.042.305.062.613.082.919.031.455.062.925.158,1.395.2.974.276,1.98.32,2.875-.031-.071-.058-.144-.089-.215-.138-.312-.277-.623-.378-.946-.285-.91-.604-1.666-1.004-2.381-.26-.465-.581-.844-.89-1.21-.164-.194-.327-.385-.477-.589-1.092-1.478-2.471-2.7-4.218-3.739-1.54-.917-3.237-1.424-4.878-1.915l-.636-.191c-.643-.196-1.294-.37-1.943-.544-.918-.246-1.867-.501-2.769-.813-1.117-.385-2.233-.86-3.314-1.319-.448-.191-.897-.381-1.346-.566-.282-.116-.533-.222-.76-.355-1.624-.952-2.828-2.367-3.696-3.492-.941-1.219-1.598-2.677-1.951-4.332-.259-1.211-.119-1.46-.131-1.462.868-.824,1.75-1.528,2.604-2.209,1.104-.88,2.146-1.712,3.071-2.724.127-.139.18-.33.144-.515l-.111-.562c-.039-.196-.174-.359-.359-.434-.186-.078-.397-.053-.56.061l-.606.424c-.429.304-.834.59-1.257.848-.355.215-.723.41-1.092.603-.332.176-.664.351-.988.54-.459.268-.906.556-1.355.846l-.602.385c-.078.049-.143.115-.19.194l-.824,1.355c-.068.109-.096.238-.084.366l.281,2.902c.006.071.027.141.059.206.057.118.117.221.171.318.063.11.128.224.139.28.246,1.275.919,2.339,1.513,3.277.775,1.223,1.711,2.321,2.861,3.357,1.015.914,2.143,1.652,3.449,2.257l.396.183c.657.307,1.316.613,1.987.888.956.389,1.977.799,3.025,1.138.534.173,1.08.309,1.624.446.423.106.847.211,1.264.335,1.355.405,2.531.785,3.595,1.161.742.261,1.359.535,1.888.834,1.72.979,3.126,2.518,4.297,4.705.539,1.008.882,2.091,1.244,3.239.203.641.406,1.283.644,1.911.095.25.128.557.163.881l.02.19c.099.861-.241,1.667-.662,2.557-.288.612-.663,1.183-1.059,1.787-.234.359-.47.716-.687,1.083-.262.444-.499.943-.702,1.484-.373.981.483,1.416.848,1.602.086.044.178.064.269.064.198,0,.39-.099.502-.278.363-.579.783-1.114,1.227-1.68.517-.659,1.052-1.34,1.497-2.104l.103-.177c.273-.468.545-.954.804-1.46-.014,2.376-.02,4.821.157,7.24.135,1.839.403,3.231.867,4.514l.478,1.302c.398,1.076.795,2.153,1.153,3.242l.231.697c.366,1.098.744,2.233.996,3.374.194.876.525,1.7.847,2.498.155.384.309.767.448,1.156l.181.509c.615,1.734,1.252,3.527,2.2,5.186.502.878.968,1.777,1.434,2.676.307.592.614,1.184.931,1.771.196.362.407.715.618,1.069.292.487.568.949.802,1.433.825,1.699,1.623,3.432,2.369,5.15.924,2.122,1.747,3.886,2.764,5.599.509.859,1.11,1.631,1.692,2.378.265.341.53.681.787,1.029.658.896,1.348,1.768,2.039,2.64.52.658,1.04,1.315,1.547,1.983,1.146,1.51,2.498,3.082,4.288,4.981.17.182.425.455.802.455.081-.009.095-.006.278.258l.218.298c.134.183.271.362.433.512.25.235.509.463.766.691.448.396.871.77,1.26,1.181.657.69,1.444,1.088,2.259,1.468.537.25,1.078.49,1.624.732l.761.339c.087.038.182.058.277.051.622-.035,1.191.066,1.73.313.296.134.607.201.882.259l.219.048c.324.076.654.125.984.174.544.08,1.057.155,1.516.361.268.122.537.116.758.114h.105s1.621.012,1.621.012c.753.006,1.521.014,2.291.014.676,0,1.355-.006,2.028-.021.622-.015,1.245-.009,1.867-.006,1.364.014,2.772.021,4.185-.175,2.117-.294,3.894-.579,5.676-1.016,1.631-.399,3.164-1.055,4.648-1.69l.644-.275c.71-.306,1.445-.621,2.176-.873,1.791-.618,3.67-1.339,5.222-2.738.063-.057.183-.113.31-.172l.195-.095c.219-.112.439-.221.659-.329.468-.231.936-.462,1.385-.722.743-.427,1.528-.89,2.245-1.429.599-.45,1.172-.94,1.727-1.413.289-.246.577-.492.87-.733.202-.167.41-.325.617-.485l.442-.343c.242-.192.477-.395.712-.598.477-.413.928-.803,1.426-1.083,1.71-.964,3.214-2.202,4.667-3.4l.756-.621c1.411-1.148,2.711-2.464,3.922-3.713.89-.919,1.998-2.184,2.658-3.833.527-1.316,1.261-2.502,2.04-3.757.448-.724.911-1.471,1.326-2.241.259-.48.568-.959.865-1.422.428-.665.87-1.353,1.208-2.098.508-1.114,1.049-1.978,1.654-2.642,1.211-1.33,1.95-2.886,2.665-4.389l.357-.747c.156-.321.259-.649.359-.966l.544-1.604c.406-1.177.812-2.355,1.192-3.54.224-.702.395-1.442.506-2.2.157-1.06.426-2.092.784-3.316.095-.326.216-.646.336-.966.156-.416.317-.847.432-1.3.196-.78.287-1.583.358-2.333.026-.279.017-.564.006-.849-.013-.319-.025-.62.029-.878.146-.697.183-1.391.218-2.062.032-.614.062-1.195.172-1.774.05-.283-.097-.481-.209-.634-.145-.234-.433-.335-.691-.249Z" stroke-width="0"/>
        <path d="m238.669,280.131c-.125-.092-.244-.184-.359-.275-.264-.208-.538-.423-.852-.587-3.549-1.869-7.105-3.721-10.663-5.574-1.777-.925-3.557-1.844-5.337-2.763l-2.606-1.347c-.992-.514-1.984-1.029-2.98-1.534l-1.13-.575c-1.749-.89-3.5-1.781-5.262-2.646-1.418-.695-3.058-1.52-4.586-2.502-.29-.187-.581-.371-.873-.554-1.051-.662-2.137-1.346-3.093-2.151-.623-.524-1.329-1.116-2.069-1.654-.674-.489-1.358-.966-2.041-1.441-.597-.415-1.193-.83-1.784-1.255-1.143-.824-1.82-1.614-2.196-2.565-.381-.966-.807-1.926-1.219-2.855-.266-.6-.532-1.2-.788-1.804-.368-.871-.786-1.858-1.114-2.834-.219-.649-.448-1.294-.677-1.938-.241-.678-.483-1.357-.711-2.04-.456-1.37-.751-2.834-.928-4.609-.046-.469-.079-.941-.085-1.408-.004-.326,0-.668.069-.956.081-.335.032-.629-.006-.866-.024-.149-.045-.278-.032-.386.071-.534.106-1.073.139-1.613.025-.403.05-.806.092-1.208.101-.956.261-1.861.492-2.767l.044-.162c.055-.195.117-.414.126-.659.017-.39.12-.787.23-1.206.153-.586.31-1.19.261-1.866.023-.039.06-.096.088-.137.063-.095.127-.193.18-.295.116-.221.071-.492-.091-.676.006-.014.013-.029.019-.044.061-.138.145-.327.158-.552.01-.182-.011-.364-.035-.546-.02-.149-.031-.257-.023-.342.136-.177.186-.417.086-.622-.018-.035-.039-.068-.063-.096-.114-.163-.316-.265-.506-.254-.027.001-.055.011-.083.018-.057-.02-.115-.041-.133-.056-.469-.364-1.024-.435-1.649-.21-.158.056-.309.132-.457.21-1.788-.744-2.968-2.137-3.902-4.595v-.436c.003-.461.004-.963-.002-1.464-.01-.879.103-1.694.344-2.489.054-.177.12-.35.183-.524.108-.292.215-.582.283-.879.25-1.105.765-2.092,1.31-3.138l.265-.511c.145-.285.301-.566.456-.847.197-.358.395-.715.575-1.081.271-.547.41-1.139.412-1.759.006-1.346-.527-2.482-1.105-3.51-.457-.81-1.067-1.578-1.924-2.416-.346-.338-.706-.662-1.068-.987-.823-.738-1.603-1.437-2.232-2.327.06-.228.129-.486.157-.766.092-.915.431-1.845,1.038-2.845.254-.418.495-.842.737-1.267.253-.446.507-.891.774-1.328.989-1.615,2.22-3.626,2.981-5.82.339-.977.689-1.987.649-3.121l-.016-.476c-.022-.75-.045-1.524-.19-2.314l-.032-.174c-.221-1.211-.448-2.463-1.027-3.643-.335-.682-.562-1.404-.805-2.168l-.109-.347c-.401-1.254-1.192-2.953-3.421-3.224-.098-.011-.206.002-.3.042-.02.008-.122.06-.141.07-.026.015-.057.035-.038.04-.743.005-1.482.145-2.322.444-.189.068-.557.025-.933-.103-1.181-.406-2.249-.894-3.265-1.493-1.972-1.163-2.971-2.954-3.053-5.476-.004-.111.008-.242.035-.39.038-.203.083-.406.128-.608.09-.406.183-.827.223-1.262.125-1.335.569-2.618,1.03-3.806.132-.34.267-.677.403-1.016.397-.986.801-1.999,1.102-3.062.033.033.05.07.088.102.11.093.246.139.382.139.126,0,.253-.04.36-.121.961-.731,1.538-1.774,1.717-3.097.026-.194.022-.398.016-.6-.006-.183-.014-.391.028-.486.209-.473.092-.873.014-1.138-.031-.105-.059-.203-.056-.261.093-1.247-.272-2.393-.622-3.367-.562-1.57-1.588-2.898-3.139-4.063-1.219-.915-2.73-1.491-4.755-1.815-.676-.108-1.834-.499-1.979-1.894-.012-.115.019-.274.05-.442.037-.198.071-.397.073-.595.009-1.312.318-2.52.979-3.761.101-.187.214-.398.272-.653.26-1.17.903-2.188,1.435-2.943l.093-.133c.463-.662.901-1.287,1.545-1.737,1.006-.7,2.193-1.721,2.444-3.416.012-.081.007-.163-.014-.242-.022-.082-.048-.163-.074-.244-.038-.12-.08-.24-.094-.361-.105-.941-.432-1.874-1.028-2.936-.268-.477-.574-.928-.869-1.364-.263-.386-.525-.774-.759-1.176-.637-1.102-1.271-1.956-1.937-2.602l-.017-.207c-.02-.234-.037-.435-.044-.636-.035-1.127-.335-2.167-.625-3.174-.519-1.802-1.893-2.794-3.871-2.794h-.03c-1.348.007-2.612.304-3.759.881-.75.378-1.489.778-2.263,1.196l-.876.472-1.364-.249c-.118-.159-.236-.318-.355-.476-.401-.537-.781-1.042-1.123-1.582-.171-.27-.293-.636-.334-1.005-.047-.435-.034-.881-.019-1.354.021-.692.044-1.406-.131-2.135.257-.512.088-1.01-.02-1.328-.041-.121-.081-.237-.088-.319-.082-.867-.553-1.724-1.291-2.349-.806-.683-1.797-1.247-2.946-1.679-.381-.142-.764-.183-1.136-.224l-.317-.037c-.303-.041-.608-.071-.929-.104l-.475-.048c-.069-.01-.144-.004-.213.016l-.189.056c-.106.033-.229.075-.355.088-1.463.154-2.924.726-4.463,1.749-1.009.671-1.992,1.315-2.933,1.82-1.114.117-2.137-.078-3.219-.283l-.628-.117c-.446-.079-.904-.21-1.363-.389-.995-.39-1.535-1.244-2.134-2.315-.015-.032-.025-.123-.01-.185l.067-.283c.283-1.198.549-2.33,1.064-3.231.034-.06.057-.126.069-.195.197-1.164-.064-2.256-.778-3.247-.874-1.212-1.774-2.136-2.753-2.825-.584-.41-1.226-.555-1.86-.416-.14.031-.284.057-.427.082-.68.122-1.451.26-2.236.981-.594.701-1.312,1.548-1.527,2.749l-3.526-.245-.586-.585v-1.136c.156-.276.311-.559.469-.846.421-.763.855-1.552,1.336-2.302.977-1.52,1.007-3.127.926-4.359-.027-.389-.108-.758-.195-1.15-.039-.177-.08-.363-.118-.562-.01-.05-.026-.098-.047-.145-.54-1.13-1.314-2.148-2.3-3.028-1.398-1.249-3.065-1.849-5.406-1.944-.323-.02-.637.057-.909.121-.11.026-.221.053-.331.071l-1.933.323c-.087.015-.18.022-.272.03-.287.025-.645.055-.954.256-1.182.77-2.471,1.274-3.835,1.807l-.462.181c-1.143.449-2.114.789-3.117,1.085-1.225.362-2.492.737-3.742.897-1.355.175-2.402.237-3.382-.551-.022-.08-.047-.161-.072-.246-.091-.293-.183-.597-.156-.833.214-1.824.207-3.517-.023-5.179-.392-2.828-1.5-4.987-3.387-6.599-1.098-.939-2.633-1.986-4.702-1.752-.178.02-.354.057-.53.096-.192.043-.373.082-.53.084-1.278.019-2.446.402-3.577.772-.232.076-.463.152-.695.224-1.148.359-2.298.941-3.729,1.891-1.593,1.057-3.003,2.345-4.368,3.591l-.654.596c-.78.707-1.563,1.372-2.533,1.752-.115-.06-.261-.105-.444-.075-.879.147-1.756.308-2.631.476-.177.033-.354.071-.531.109-.582.124-1.131.235-1.685.22-.765-.032-1.533-.028-2.354-.025h-.012c-.591,0-1.172-.159-1.85-.347-.863-.237-1.673-.587-2.532-.958-.475-.205-.951-.41-1.433-.595-.767-.293-1.587-.564-2.464-.363-.934.212-2.15.543-3.256,1.229-.979.607-1.731,1.353-2.301,2.28-.281.456-.611.896-.903,1.284-.126.168-.245.326-.35.474-.021.03-.04.062-.056.095l-.162.346c-.136.292-.242.518-.343.745l-.054.12c-.102.225-.204.452-.285.685-.572,1.633-.852,3.448-.884,5.714-.015,1.032-.11,1.91-.3,2.76-.059.263-.152.516-.242.767-.145.402-.293.815-.341,1.275-.129.141-.254.283-.379.423-.427.484-.831.94-1.307,1.329-.536.436-1.11.788-1.717,1.16l-.406.251h-1.244c-.327,0-.593.266-.593.593v.537c0,.186.088.362.237.474.619.464,1.48.968,2.614.768.076-.013.163-.053.234-.099,1.032-.385,1.894-1.014,2.728-1.622l.53-.383c1.438-1.019,2.274-2.16,2.556-3.488.096-.456.241-.896.395-1.362.082-.251.165-.501.24-.754.221-.751.439-1.555.448-2.381.002-.215.021-.429.041-.643.032-.359.064-.729.032-1.123-.043-.505.111-.991.315-1.572.042-.118.095-.237.146-.358.139-.322.297-.686.311-1.072.022-.585.292-1.092.577-1.63l.132-.249c.725-1.394,1.484-2.298,2.461-2.932.795-.515,1.529-.71,2.24-.609.657.097,1.378.29,2.269.608.358.127.702.284,1.049.441.429.195.872.396,1.416.572,1.192.389,2.417.788,3.789.707.466-.029,1.023-.073,1.622-.192,1.509-.302,2.626-.771,3.585-1.513h1.446c.051,0,.102-.006.152-.019,1.436-.38,2.355-1.004,3.134-1.621,1.308-1.038,3.025-2.414,4.704-3.858.982-.845,2.146-1.344,3.378-1.872l.561-.242c.678-.297,1.411-.477,2.187-.669.367-.091.733-.181,1.093-.284.25-.069,1.597-.165,1.841-.131,1.217.214,2.276.903,3.239,2.107.818,1.021,1.221,2.304,1.61,3.544.28.89.407,1.749.377,2.556-.004.116-.035.232-.062.348-.049.212-.106.452-.091.719.023.427.007.855-.01,1.308-.021.548-.043,1.115.012,1.686.007.075.029.148.063.215l.806,1.563c.059.114.153.206.269.262l1.902.924c.034.017.07.03.107.04,1.853.49,3.398.543,5.009.173,1.346-.311,2.555-.885,3.833-1.494l.364-.172h.701c.1,0,.198-.025.285-.073,4.398-2.415,7.164-2.81,9.285-2.861.939.28,1.702.813,2.388,1.35.88.689,1.417,1.431,1.639,2.267.386,1.455.322,2.61-.202,3.637l-.164.319c-.65,1.26-1.321,2.563-1.4,4.115-.002.003-.004.006-.006.01-.016.023-.057.093-.069.118-.066.138-.076.296-.03.44l.514,1.573c.041.127.123.236.234.309l.268.179c.264.175.56.371.85.572.698.481,1.479.572,2.167.652.157.018.311.036.464.058,1.67.248,3.154-.367,4.527-1.018l.127-.054c.311-.129,1.042-.429,1.052-1.305.002-.184-.082-.359-.226-.473.263-.113.54-.181.839-.209.141.129.3.27.477.388.756.503,1.37,1.126,1.876,1.904.284.437.33.753.178,1.251l-.121.39c-.353,1.131-.753,2.413-.508,3.996.015.097.054.189.113.267l.279.361c.259.332.575.736.861,1.16.744,1.106,1.895,1.534,2.814,1.784.479.13.964.2,1.433.269.426.062.828.12,1.216.22,1.347.344,2.626.3,3.916-.134.179-.061.397-.081.627-.102.122-.011.241-.022.355-.038.056-.008.11-.024.162-.048.317-.145.632-.285.945-.425.716-.319,1.422-.634,2.113-.983.564-.286,1.206-.335,1.884-.387.387-.029.787-.059,1.191-.134l.222.058c.755.197,1.535.402,2.265.726.897.398,1.292,1.024,1.321,2.093.011.393.01.786.009,1.183-.003,1.249-.006,2.542.339,3.972.015.061.039.12.072.174l.342.545c.309.49.664,1.054,1.002,1.627.629,1.069,1.64,1.794,3.007,2.154,1.136.298,2.247.121,3.298-.524.664-.409,1.357-.77,2.027-1.119.244-.127.482-.251.711-.373.097-.006.188-.008.274-.01.298-.007.58-.014.865-.134.299-.128.633-.107,1.017-.087.156.008.31.016.465.016.025,0,.05,0,.075,0,.108,0,.245.041.238.011.112.17.236.33.361.49.244.313.455.584.584,1.014.362,1.204.736,2.448,1.418,3.573.008.022.02.089.029.133.012.068.024.134.041.196.057.221.235.388.458.433l.165.032c.127.234.251.467.376.701.382.716.777,1.457,1.214,2.166.449.729.896,1.532,1.118,2.452.082.335.169.671.254.997l.086.335c-.121.46-.416.792-1.014,1.158-.925.565-1.783,1.268-2.622,2.149-.316.331-.543.687-.763,1.031-.084.133-.169.265-.259.396-1.041,1.51-2.003,3.485-2.512,5.154-.078.254-.138.514-.181.776l-.049.3c-.087.525-.173,1.05-.23,1.579l-.044.392c-.068.558-.137,1.135-.057,1.721.093.691.377,1.378.777,1.884.734.928,1.598,1.821,2.939,2.066.046.008.161.079.245.13.082.05.163.1.247.144.068.035.142.057.218.064,1.088.103,2.042.331,2.918.697.353.147.645.384.954.633.149.12.297.24.453.352.629.454,1.158,1.05,1.613,1.778-.046.01-.092.019-.135.041l-.639.317c-.202.1-.33.306-.33.531l-.006,1.154c-.006.837-.013,1.644.013,2.448.044,1.339-.273,2.723-.968,4.234-.876,1.908-1.697,3.789-2.121,5.82-.199.949-.356,1.973-.495,3.223-.113,1.011.015,2.065.401,3.32.56,1.82,1.382,3.113,2.587,4.068,1.444,1.143,3.06,2.015,4.802,2.593.857.286,1.899.529,3.096.169.403-.12.848-.154,1.318-.172l.003.019c.033.21.177.386.376.461.575.217.93.486,1.228.928.488.726.922,1.568,1.364,2.647.531,1.3.735,2.671.877,3.96.152,1.39-.167,2.809-1.004,4.465-.71,1.403-1.577,2.702-2.408,3.896-.057.082-.12.163-.183.243-.115.149-.229.298-.327.459l-.135.222c-.561.92-1.142,1.873-1.669,2.848-.788,1.457-1.182,3.051-1.241,5.019-.004.14.042.277.129.386.111.14.221.287.332.436.278.372.564.756.917,1.106.76.756,1.585,1.549,2.478,2.231,1.191.908,2.043,1.822,2.684,2.876.726,1.198.793,2.16.225,3.217-.731,1.362-1.333,2.637-1.842,3.896-1.164,2.881-1.654,5.19-1.588,7.489.031,1.079.339,2.07.943,3.032,1.149,1.832,2.572,2.946,4.338,3.39l-.248,1.553c-.073.466-.147.933-.232,1.396-.062.339-.132.677-.201,1.016-.111.542-.222,1.084-.305,1.631-.049.332-.069.671-.088,1.009-.026.463-.051.901-.16,1.295-.253.912-.295,1.818-.335,2.695l-.032.651c-.091,1.624-.184,3.303.182,4.982.078.361.15.723.222,1.085.203,1.017.413,2.067.763,3.09.45,1.317,1.048,2.574,1.626,3.79.184.387.369.775.549,1.164.642,1.395,1.327,2.772,2.036,4.092,1.029,1.918,2.117,3.84,3.14,5.63.247.434.557.813.857,1.179l.127.157c.146.178.325.259.499.338.065.03.14.064.227.11.197.106.436.092.621-.037.183-.129.278-.349.246-.571l-.01-.085c.1.07.201.14.301.208.764.528,1.555,1.075,2.242,1.686,1.329,1.181,2.941,2.542,4.826,3.667.397.236.783.486,1.169.738.592.384,1.205.781,1.854,1.128.539.287,1.088.553,1.636.819.381.185.762.37,1.139.562.651.333,1.299.674,1.947,1.016.881.463,1.762.928,2.653,1.37.856.425,1.72.836,2.583,1.245,1.2.571,2.442,1.16,3.636,1.78,1.034.537,2.063,1.14,3.058,1.724.616.361,1.232.723,1.856,1.073,2.05,1.151,4.495,2.493,7.089,3.712,1.543.726,3.095,1.433,4.659,2.144l2.109.962c.08.036.164.054.247.054.196,0,.388-.098.499-.274l.294-.463c.166-.263.099-.611-.153-.794Z" stroke-width="0"/>
        <path d="m127.155,111.146c.381.201.763.402,1.152.584.271.127.548.241.824.355.259.107.518.212.771.331.444.209.877.445,1.307.68l.123.067c.095.051.185.111.276.17.17.111.364.237.588.329.777.315,1.411.827,2.16,1.465.537.457,1.062.928,1.591,1.406l.689.62c.108.096.249.15.395.15h.837c.176,0,.343-.078.455-.213l.537-.648c.129-.156.17-.366.108-.558-.46-1.446-1.34-2.551-2.191-3.619-.156-.195-.31-.389-.462-.586-.458-.59-1.065-1.099-1.966-1.65-.364-.221-.696-.527-1.047-.852-.213-.196-.427-.393-.65-.574-.65-.533-1.355-1.085-2.18-1.475-.198-.094-.394-.192-.59-.291-.337-.17-.675-.339-1.021-.486-1.038-.439-2.153-.903-3.278-1.321-.472-.175-.949-.309-1.5-.464-.268-.074-.554-.155-.868-.248-.064-.019-.128-.031-.196-.023-.62.024-1.323-.053-2.073-.138-.715-.081-1.522-.171-2.359-.18-.925-.386-1.842-.457-2.617-.207-.094-.014-.183-.032-.267-.048-.332-.064-.675-.131-1.024,0-.397.151-.84.191-1.353.123-.33-.046-.645-.017-.924.008-.282.025-.522.047-.729-.004-.878-.217-1.657-.051-2.257.14-.101-.014-.196-.029-.285-.044-.288-.045-.563-.093-.847-.072-.333.019-.663.061-.993.104-.32.041-.638.082-.959.098-.145.006-.289.009-.433.011-.532.009-1.133.019-1.724.26-.451.184-.955.185-1.388.163-.477-.019-.863.091-1.224.211-.629.208-1.267.388-1.903.57-.344.097-.688.196-1.031.297-.16.047-.32.107-.478.167-.245.092-.474.178-.678.199-.499.052-.949.207-1.412.486-.452.272-.901.526-1.413.636-.394.085-.734.286-1.034.464l-.162.095c-.753.436-1.504.878-2.24,1.344l-.423.266c-.68.425-1.383.865-2.037,1.371-1.29.996-2.569,2.043-3.807,3.057l-1.513,1.232c-.931.752-1.893,1.531-2.796,2.357-1.067.98-1.969,2.06-2.68,3.209-.653,1.055-1.105,2.19-1.542,3.287-.123.309-.246.616-.373.923-.334.803-.64,1.618-.948,2.433-.335.886-.669,1.773-1.038,2.646-.804,1.904-1.444,3.738-1.954,5.606-.248.904-.144,1.763.318,2.625.111.208.286.303.484.412.1.067.214.099.328.099.145,0,.288-.053.4-.156l.573-.524c.122-.113.192-.272.192-.437,0-.114.009-.223.018-.328.021-.283.046-.604-.08-.917-.113-.28-.039-.551.09-.973l.068-.224c.278-.984.676-1.923,1.029-2.711.322-.717.67-1.42,1.018-2.124.531-1.074,1.081-2.184,1.531-3.34.309-.792.687-1.55,1.087-2.353.268-.537.536-1.073.781-1.62.177-.395.432-.903.822-1.328.142-.154.299-.288.455-.423.211-.182.42-.363.604-.575.739-.849,1.651-1.487,2.617-2.163.232-.162.463-.324.692-.488.144-.104.291-.204.437-.304.473-.322.961-.654,1.384-1.116.096-.106.139-.141.13-.141.515-.141.9-.435,1.239-.694.134-.103.269-.207.412-.297.245-.155.486-.315.728-.474.935-.617,1.817-1.2,2.878-1.542.158-.049.373-.117.556-.294.369-.36.848-.585,1.356-.824.183-.086.366-.172.547-.265,1.402-.721,2.888-1.135,4.461-1.572l.682-.191c.945-.267,1.916-.339,2.944-.415.662-.048,1.345-.099,2.024-.207.308-.048.628-.058.968-.069.392-.013.797-.025,1.219-.098.464-.081.948-.086,1.459-.093.614-.006,1.25-.014,1.901-.155.286-.062.62-.045.976-.029.237.012.474.022.711.015.123-.005.246-.003.369-.005.426.007.935.002,1.461-.182.141-.05.353-.026.599.005.305.035.651.076,1.029-.004.411-.088.868-.006,1.355.082.204.037.408.074.612.1.747.095,1.501.136,2.231.176.309.017.619.033.926.054.05.004.102.005.235.006.307.065.613.133.919.202.641.145,1.282.288,1.93.391.913.145,1.813.465,2.922,1.039l.428.224Z" stroke-width="0"/>
        <path d="m78.247,39.409c1.28-2.02,2.579-3.462,4.088-4.54,1.737-1.24,3.196-1.595,4.735-1.144.815.238,1.657.485,2.287.926.994.694,1.798,1.509,2.39,2.424.753,1.164,1.512,2.325,2.28,3.479l.158.241c.262.402.533.818.886,1.183,1.135,1.18,2.52,2.523,4.179,3.542,1.611.988,3.087,1.744,4.509,2.31.347.138.69.287,1.033.436.533.232,1.084.472,1.651.67l.679.241c1.191.423,2.421.86,3.717,1.136,1.225.261,2.433.393,3.87.511.283.023.565.032.848.032.702,0,1.401-.059,2.084-.118.41-.035.818-.07,1.22-.092.043-.003.185-.013.241-.028,1.654-.468,3.281-1.004,4.837-1.596.84-.32,1.636-.745,2.406-1.156l.155-.082c1.914-1.021,3.388-2.062,4.636-3.273,1.908-1.85,3.027-3.849,3.423-6.112.032-.188.079-.376.125-.563.16-.646.34-1.373.041-2.165-.027-1.556-.749-2.81-1.447-4.025l-.099-.173c-.757-1.319-1.642-2.354-2.705-3.165-.687-.524-1.363-1.098-2.018-1.654-.613-.519-1.225-1.039-1.857-1.532-.695-.541-1.357-1.093-1.822-1.873,0-.031.005-.064.006-.097.017-.299.055-1-.769-1.33-.292-.115-.627.015-.759.302l-.069.133c-.078.145-.174.323-.215.541-.233,1.231.151,2.368,1.14,3.376,1.262,1.285,2.548,2.547,3.834,3.808.167.164.348.311.53.459.168.134.335.268.485.422.486.5.853,1.101,1.243,1.737.185.303.371.605.568.897.113.167.192.398.275.642.068.198.136.397.223.584.188.406.293.859.404,1.338.044.191.089.384.139.577-.069.152-.154.361-.147.603.019.691-.174,1.325-.385,1.906-.303.836-.707,1.797-1.405,2.585-1.121,1.27-2.575,2.347-4.574,3.389-.269.14-.549.26-.827.382-.383.166-.778.336-1.158.558-.825.481-1.704.795-2.532,1.064-1.946.631-3.908.917-5.824.85-.957-.033-1.944-.182-2.899-.325l-.534-.08c-.591-.087-1.176-.246-1.725-.402-.223-.063-.437-.159-.651-.253-.112-.05-.224-.099-.337-.145-.503-.206-1.008-.408-1.513-.609-1.132-.451-2.303-.917-3.425-1.423-1.354-.612-2.581-1.446-3.705-2.254-1.689-1.217-2.768-2.348-3.499-3.669l-.048-.088c-.371-.673-.754-1.368-1.219-2.012-.204-.283-.382-.583-.562-.883-.419-.703-.853-1.43-1.585-1.992-.217-.166-.418-.376-.631-.598-.154-.16-.308-.32-.47-.469-.486-.446-1.16-.993-2.061-1.272-.316-.098-.645-.268-.927-.476-.846-.63-1.916-.877-3.189-.739-.213.023-.431.036-.651.049-.889.053-1.891.113-2.747.806-3.008,1.124-4.917,3.402-6.246,5.268-.419.587-.717,1.229-.98,1.795-.101.217-.196.423-.291.604-.032.063-.053.132-.061.202l-.233,1.937c-.009.07-.005.142.012.21.234.965.7,2.124,2.253,2.523.069.017.142.022.214.015l2.845-.321c.201-.022.377-.146.466-.329.089-.182.079-.397-.027-.57-.034-.056-.06-.111-.083-.158-.086-.176-.216-.441-.539-.524-.496-.127-.996-.236-1.581-.364l-.415-.091-.327-.491c.044-.107.088-.214.132-.321.165-.406.322-.789.529-1.116Z" stroke-width="0"/>
        <path d="m59.335,62.39c-.211.521-.53,1.309-.085,2.152.12.227.376.355.627.307.966-.17,1.495-.824,1.92-1.349.178-.221.347-.429.528-.584.107-.092.179-.219.201-.359l.402-2.536c.02-.129-.002-.26-.064-.374l-.051-.055c-.013-.064-.015-.131-.019-.196-.006-.101-.013-.201-.038-.354-.039-.246-.081-.496-.155-.734-.605-1.937-2.086-3.079-3.308-3.859-1.002-.638-2.146-1.221-3.497-1.781-2.487-1.03-4.62-1.513-6.694-1.513-.053,0-.107,0-.16,0-.364.004-.765-.035-1.175-.079-.222-.024-.445-.047-.668-.063l-.126-.015c-.238-.033-.568-.074-.862.124-.071.05-.156.054-.371.051-.13,0-.257,0-.385.014-.184.022-.371.036-.557.05-.454.034-.923.069-1.389.204l-.834.236c-1.639.46-3.335.934-4.876,1.903l-.129.082c-1.679,1.055-3.416,2.146-4.78,3.728-.69.802-1.451,1.785-1.857,3.001-.057.173-.135.34-.233.553l-.196.435c-.038.087-.055.183-.048.278.013.182.022.373.032.568.023.476.047.969.118,1.474.133.962.651,1.745,1.109,2.435l.193.293c.764,1.177,1.475,2.194,2.176,3.113.726.954,1.238,2.117,1.699,3.227.701,1.687.818,3.541.36,5.666-.347,1.614-.948,2.888-1.833,3.892-.136.152-.167.32-.186.431l-.029.136c-.051.203.01.418.158.564l.359.354c.115.113.265.17.416.17.121,0,.243-.037.347-.112.118-.085.232-.163.34-.237.256-.174.485-.334.689-.519.966-.875,1.508-1.996,1.979-3.069.395-.899.519-1.825.638-2.722.065-.492.127-.956.231-1.411.051-.225.014-.429-.024-.641-.05-.309-.107-.618-.166-.927-.136-.711-.272-1.422-.412-2.133-.388-1.955-1.446-3.541-2.47-5.073-.234-.349-.466-.698-.69-1.05l-.164-.256c-.414-.647-.806-1.258-1.108-1.913-.54-1.173-.491-1.407.052-2.884.124-.335.349-.589.611-.884.162-.183.323-.366.465-.567.739-1.047,1.751-1.803,2.823-2.605l.248-.186c.94-.705,2.022-1.222,3.051-1.674.99-.435,2.147-.627,3.266-.815l.183-.031c1.349-.225,2.777-.3,4.372-.222.908.044,1.787.252,2.716.473l.419.099c.513.12.994.347,1.504.586.297.14.594.279.9.399,1.673.661,2.958,1.62,3.925,2.93.955,1.296,1.148,2.401.645,3.695l-.064.158Z" stroke-width="0"/>
        <path d="m60.747,200.071c.174-.234.357-.462.555-.678l.181-.195c.417-.446.848-.907,1.112-1.567.185-.464.485-.921.75-1.312.178-.261.372-.512.565-.763.272-.353.553-.717.797-1.115.252-.41.575-.774,1.032-1.161h1.113c.117.072.234.142.351.211.338.2.658.389.921.616,1.231,1.064,2.7,1.621,4.622,1.752,1.127.089,2.084-.229,2.953-.934.272-.221.539-.446.807-.671.507-.427,1.031-.868,1.565-1.258l.198-.145c.793-.583,1.545-1.14,2.494-1.07.238.008.422-.064.568-.137.176.059.353.117.531.174.562.183,1.093.355,1.596.588.355.164.721.282,1.074.396.752.242,1.402.45,1.778,1.03.105.161.281.261.472.27.95.042,1.027.085,1.758.506l.19.109c1.626.928,3.557,1.913,5.804,1.732.527-.041,1.055-.099,1.598-.16l.748-.082c.142-.015.272-.08.37-.183l.847-.901c.149-.158.199-.385.132-.592-.069-.207-.245-.359-.459-.398-.095-.017-.177-.039-.246-.058-.214-.057-.48-.13-.757.021-.375.203-.757.147-1.35.042l-.189-.034c-.11-.019-.218-.048-.326-.077-.307-.082-.688-.182-1.139-.119-.339.057-.878-.175-1.163-.294-.894-.379-1.773-.859-2.623-1.324-.644-.352-1.289-.704-1.952-1.023-1.143-.549-2.362-1.179-3.834-1.982-.26-.143-.536-.212-.777-.272l-2.468-.695c-.151-.043-.315-.024-.453.055-.052.03-.099.06-.129.101-.065.013-.133.014-.199.018-.099.006-.199.012-.294.027l-.103.016c-.217.032-.462.068-.706.152-1.392.482-2.505,1.341-3.502,2.197-.327.282-.629.592-.932.903-.518.532-1.008,1.036-1.621,1.376-1.054.04-1.885-.279-2.606-1.005-.277-.28-.592-.485-.896-.683-.195-.126-.389-.251-.566-.398-.882-.735-1.951-1.028-3.197-.859-1.325.175-2.254.663-2.838,1.494-.929,1.32-1.838,2.702-2.699,4.11l-.223.369c-.644,1.065-1.252,2.07-2.232,2.764-.146.106-.221.239-.246.288-.069.099-.106.218-.106.338v.625c0,.227.129.434.333.533.486.237.916.358,1.308.358.653,0,1.198-.335,1.71-1.024Z" stroke-width="0"/>
        <path d="m66.863,45.468c.302.761.604,1.522.939,2.268.461,1.033,1.017,2.027,1.552,2.987.67,1.199,1.623,2.139,2.545,3.047l.268.265c.854.846,1.719,1.453,2.643,1.856.967.421,1.964.8,2.928,1.166l.836.319c.086.033.17.046.249.046.155,0,.294-.049.41-.089.252-.059.436-.276.455-.534l.04-.546c.019-.254-.127-.49-.36-.589l-1.005-.423c-.221-.093-.447-.18-.672-.266-.477-.183-.928-.357-1.329-.593-1.629-.958-2.982-2.308-4.136-4.128-.475-.749-.903-1.56-1.317-2.345l-.067-.126c-.436-.825-.792-1.709-1.138-2.564-.211-.524-.423-1.047-.652-1.563l-.323-.733c-.687-1.566-1.396-3.185-2.478-4.613-.219-.288-.454-.565-.688-.841-.312-.367-.607-.714-.861-1.086-.66-.963-1.542-1.688-2.317-2.293-.709-.552-1.504-1.1-2.366-1.63-.445-.272-.965-.501-1.636-.722-1.038-.337-2.111-.688-3.297-.69-.032,0-.118-.024-.18-.042-.115-.033-.231-.063-.344-.078l-.147-.024c-.244-.044-.576-.103-.896.041-.399.183-.941.08-1.471.138l-.379.038c-.552.054-1.123.108-1.679.29l-.319.104c-.9.294-1.829.597-2.734,1.046-2.034,1.011-3.659,2.54-4.968,4.673-.065.107-.095.233-.085.358l.089,1.118c.013.158.088.304.209.407.121.101.28.153.436.136l.735-.068c.192-.018.363-.127.459-.294.099-.171.187-.341.273-.506.163-.314.304-.586.482-.789.283-.322.622-.608.981-.91.147-.123.295-.247.438-.374l.095-.085c.102-.093.199-.181.28-.223.258-.135.511-.276.764-.418.866-.484,1.684-.94,2.637-1.138,1.382-.287,2.522-.446,3.59-.498.286-.013.573-.009.859-.004.199.002.399.007.6.004.835-.012,1.665.253,2.527.533l.195.063c.937.302,1.743.862,2.597,1.454l.212.147c1.924,1.329,3.51,3.153,4.848,5.575.658,1.192,1.173,2.491,1.673,3.746Z" stroke-width="0"/>
        <path d="m104.73,135.475c.255.063.542.06.803-.004.287-.069.583.024.897.126l.166.052c.092.029.189.032.281.016.113-.02.218-.045.316-.069.128-.032.248-.056.318-.057.217.012.434.044.65.073.263.037.527.073.791.085.303.015.61.011.915.007.358-.006.714-.009,1.069.021.108.009.214.013.317.013.26,0,.508-.025.75-.048.3-.031.582-.058.86-.035.759.061,1.487-.149,2.193-.355l.331-.094c.664-.185,1.325-.388,1.985-.591.864-.266,1.757-.541,2.64-.765.332-.084.654-.2.973-.316.335-.122.65-.237.96-.303,1.021-.217,1.768-.744,2.562-1.306.168-.119.262-.315.25-.519-.005-.071.003-.142.007-.211.022-.315.059-.842-.457-1.301-.07-.063-.155-.107-.246-.132-.865-.222-1.645.006-2.33.209l-.315.091c-.651.182-1.297.38-1.944.579-.758.234-1.515.467-2.281.67-1.969.524-4.082,1.023-6.266.926-.9-.04-1.807-.031-2.686-.02-.417.004-.83.006-1.25.008-.103-.005-.204.007-.309.016-.091.007-.229.019-.243.021-.466-.257-.922-.246-1.289-.246-.126.002-.252.005-.377-.007-.188-.019-.376-.051-.564-.082-.328-.055-.668-.112-1.028-.112-.599,0-1.106-.073-1.55-.225-.424-.145-.835-.168-1.197-.189-.124-.006-.248-.014-.373-.026l-.386-.035c-.515-.044-1.003-.086-1.446-.219-1.015-.301-2.184-.711-3.173-1.471-.219-.163-.454-.145-.599-.132-.187.015-.488.069-.625.278-.109.169-.126.381-.044.564l.074.175c.057.14.109.26.175.37.815,1.381,2.119,2.368,3.771,2.854,1.668.49,3.384.889,5.044,1.274.626.145,1.253.291,1.878.441Z" stroke-width="0"/>
        <path d="m173.547,59.963c-.021,1.621-.019,3.287.006,5.092.005.305.073.583.153.905.038.153.08.323.12.52.057.276.3.474.581.474h.006c.284-.003.526-.207.577-.486.068-.364.138-.703.206-1.026.144-.689.279-1.341.331-1.999.044-.545.168-1.077.299-1.639.12-.511.243-1.039.304-1.587.029-.254.074-.505.12-.756.1-.549.203-1.115.153-1.732-.03-.363-.046-.726-.063-1.09-.024-.508-.048-1.016-.103-1.526-.136-1.266-.353-2.425-.662-3.542-.528-1.907-1.19-3.288-2.145-4.475-1.031-1.281-2.153-2.268-3.425-3.021-.745-.44-1.523-.85-2.193-1.198l-.112-.059c-1.249-.651-2.54-1.325-3.929-1.779-1.549-.507-3.055-.249-4.052-.013-2.222.531-3.74,1.676-4.64,3.505-.082.17-.076.329-.071.409-.008.17.057.335.179.453.41.398.51.441,1.106.597.221.058.454-.016.601-.189.782-.917,1.921-1.41,3.028-1.832l.567-.088c.46-.072.862-.136,1.269-.191.186-.026.251-.02.274-.012l.328.096c.619.182,1.205.353,1.774.576.694.274,1.374.583,2.054.891l.646.292c.119.054.234.116.349.178.158.085.318.17.482.241,1.164.5,2.116,1.118,2.913,1.888,1.015.979,1.71,2.19,2.125,3.703.101.371.169.752.236,1.132.071.401.144.8.246,1.183.255.948.319,1.908.387,2.924.037.541.073,1.081.139,1.618.026.216-.021.478-.07.756-.045.257-.093.522-.096.806Z" stroke-width="0"/>
        <path d="m55.764,135.694c-1.034.355-1.186.437-1.699,1.395-.475.89-1.02,1.488-1.714,1.885-1.743.996-3.672,1.693-5.538,2.367l-.644.234c-1.398.508-2.853.609-4.394.714-.33.023-.659.045-.988.072-.877.071-1.76.053-2.614.034-.315-.006-.622-.014-.917-.016-.164-.085-.319-.164-.466-.239-.366-.186-.682-.347-.965-.532-.145-.095-.294-.184-.443-.273-.697-.417-1.13-.705-1.244-1.333-.055-.303-.24-.554-.508-.689-.309-.158-.698-.145-1.063.034-.221.107-.352.328-.331.572-.008.043-.088.158-.141.234-.19.274-.544.785-.249,1.457.05.114.134.209.242.272.107.064.226.12.346.176.11.052.295.138.334.185.36.523.843.83,1.269,1.102.107.068.213.135.318.207,1.231.842,2.691,1.269,4.342,1.269.413-.006.745.003,1.118.006.36.003.723.006,1.089.006,1.093,0,2.209-.029,3.324-.171.235-.031.47-.057.705-.083.8-.09,1.628-.183,2.442-.418.258-.073.51-.178.761-.283.316-.133.614-.259.89-.29.689-.081,1.255-.341,1.762-.61l.245-.13c.859-.453,1.747-.921,2.588-1.48l.287-.189c.719-.469,1.463-.954,1.994-1.778.262-.408.554-.794.842-1.177l.387-.518c.138-.189.152-.443.035-.646l-.642-1.118c-.142-.246-.49-.341-.759-.247Z" stroke-width="0"/>
      </g>
      <path d="m99.518,197.034c-.057-.276-.299-.474-.581-.474-.038,0-.073-.005-.106-.007-.15-.016-.403-.04-.632.14-.619.483-1.371.675-2.027.799-.177.033-.357.076-.537.12-.437.106-.849.207-1.177.145-.7-.12-1.362-.137-1.863-.138-2.257,0-4.079-.127-5.732-.398-.758-.124-1.396-.313-1.896-.561-.057-.029-.119-.048-.182-.057-.211-.029-.411-.065-.605-.098-.456-.081-.877-.152-1.34-.143-.564.018-1.117.106-1.651.191-.222.036-.446.071-.668.102-.246.033-.491.07-.737.107-.547.083-1.062.162-1.585.198-.521.035-1.042.028-1.594.018-.229-.004-.459-.007-.687-.008-.15.008-.305.004-.457.008-.331.009-.642.019-.924-.028-1.431-.243-2.966-.237-4.439.012-.55.094-1.271.202-1.972.209-1.74.018-3.26.654-4.517,1.889-.931.915-2.028,1.628-2.983,2.225-1.279.799-2.147,1.644-2.733,2.659-.109.188-.106.421.007.606l.461.756c.091.15.244.251.416.278.179.025.349-.025.481-.141.066-.057.13-.108.19-.158.151-.12.307-.246.44-.417.397-.506.904-.949,1.516-1.32-.475,1.179-.232,2.242.045,3.162.02.068.054.132.096.189.555.726,1.237,1.108,1.839,1.446l.332.189c.944.55,1.875.783,2.852.809.401-.005.811.003,1.217.008,1.168.016,2.368.034,3.583-.155.787-.121,1.604-.096,2.466-.069.358.011.715.022,1.133.022.069,0,.168,0,.17-.011.928.43,1.878.427,2.767.426h.351c.278,0,.558-.003.838-.008.572-.01,1.115-.019,1.649.028.134.012.266.018.395.018,1.01,0,1.889-.34,2.742-.67.293-.114.587-.227.884-.325.058-.019.113-.047.163-.083l.32-.232c1.525-1.101,3.103-2.241,4.158-3.985.304-.504.647-.979,1.009-1.483.17-.235.339-.471.504-.708l.586-.858c.147-.215.137-.5-.026-.704l-.032-.04c.038-.004.068-.008.112-.006,1.094,0,2.156-.18,3.183-.353l.715-.119c1.488-.237,2.827-.893,3.98-1.952.153-.14.221-.35.18-.554l-.101-.499Zm-34.232,4.052c.949-.81,1.969-1.214,3.119-1.236.112-.003.234.002.353.006.322.012.69.025,1.055-.076.879-.24,1.775-.159,2.727-.073.208.019.416.037.624.053.322.025.644.077.966.128.425.068.865.137,1.32.153,1.095.036,2.191.03,3.283.024l1.071-.005c.179.032.306.006.46.013.448.02.909.04,1.374-.082.424-.109.877-.046,1.354.019.392.054.796.112,1.226.082,1.284.42,2.603.618,3.89.726-.524.421-.965.865-1.325,1.248l-.087.091c-.16.164-.36.369-.48.638-.531,1.182-1.39,2.15-2.626,2.958-1.126.736-2.061,1.029-3.025.945-.861-.071-1.724-.122-2.604-.174l-1.097-.067-.682-.331c-.081-.04-.17-.06-.259-.06l-.672-.003c-2.311-.025-4.705-.052-7.068.241-.196.024-.389.082-.577.142l-.009.003c-.549-.187-1.086-.17-1.572-.16-.259.008-.509.015-.741-.01-.233-.145-.474-.242-.691-.331-.314-.127-.587-.238-.772-.453-.339-.393-.461-.811-.42-1.441.011-.175-.056-.347-.183-.468l-.663-.632h0c.962-.506,1.861-1.12,2.734-1.866Z" stroke-width="0"/>
    </g>
  </g>
</svg>