<?xml version="1.0" encoding="UTF-8"?>
<svg id="Layer_2" data-name="Layer 2" xmlns="http://www.w3.org/2000/svg" viewBox="0 0 191.3426928 216.4818233">
  <g id="Layer_1-2" data-name="Layer 1">
    <g>
      <path d="m57.9962603,80.4460882c-.3923497.4190418-.7930865.8306077-1.175432,1.2585758-1.0069513,1.127115-1.9976861,2.2687946-3.0107244,3.3903677-.8085381.8951591-1.6190784,1.7903736-2.4673682,2.6473326-1.0172791,1.0276623-2.0823703,2.0058311-3.214256,2.9107163-1.439755,1.1510227-2.9510978,2.2033968-4.5041411,3.1881809-2.1485099,1.3623716-4.3647939,2.6116793-6.6881344,3.6600624-1.3483933.6084542-2.6976965,1.2072992-4.1206528,1.6358086-.6666531.2007691-1.3392537.3786907-2.0030539.5795185-1.3969543.422628-2.8391394.5435787-4.2669834.6498352-1.6492419.1227281-3.3045622-.087834-4.923352-.4729045-1.730409-.4116037-3.3541511-1.097246-4.8771843-2.0059378-.5424621-.3236712-1.0218451-.7540528-1.5255778-1.14149-2.3253265-1.7884459-4.2470834-3.9385344-5.7843839-6.4369844-.8285541-1.3465806-1.5745924-2.7354721-2.1730646-4.1985773-.1773751-.4336157-.2380064-.9140585-.4041495-1.3533695-.3726552-.9853369-.4097959-2.0267083-.5274774-3.0508268-.0675211-.5875289.0048729-1.1906614.007501-1.786806.0123866-2.8069332.7633-5.507411,1.1747392-8.2571079.2367917-1.582532.4863012-3.166437.5656417-4.7701435.0316213-.6391238.1651664-1.2746068.1751646-1.9129577.0078906-.504114-.1192368-1.0088062-.1568991-1.515439-.1275358-1.7156215-.9463204-3.1281604-1.9673256-4.4387035-.8109296-1.0408779-1.7029878-2.0188318-2.5072671-3.0645378-.7098527-.9229317-1.2304431-1.9701039-1.6772855-3.0411945-.3700936-.8871076-.6828093-1.8013862-.9650112-2.7207939-.1906319-.6210801-.3117287-1.2675603-.414721-1.9105593-.1607871-1.0038435-.2858851-2.0135964-.4149412-3.0222727-.1336413-1.0445433-.1803099-2.0841327-.1304175-3.146461.0524628-1.116959.181389-2.2183912.3941623-3.3020842.3538114-1.8020299.9185499-3.5441804,1.6633585-5.2340998.5487025-1.244957,1.2116642-2.4207424,1.9726789-3.5318324.6219247-.9080152,1.4227913-1.6886379,2.284744-2.3840932,1.0648604-.859155,2.1385645-1.7085651,3.2324599-2.530221,1.3726548-1.0310528,2.7595597-2.0439457,4.1601983-3.0366342.76867-.5447904,1.5686699-1.047424,2.371469-1.541583,1.3825716-.8510298,2.5972821-1.919081,3.8517646-2.9357884,1.1219387-.9092835,2.2336855-1.831152,3.3503618-2.7469234.596602-.4892568,1.1903169-.9821337,1.7921464-1.4648816.9341464-.7493013,1.9403046-1.3402361,3.1014654-1.7116618,1.3970119-.4468741,2.7978468-.4906469,4.2231675-.3264797.9535349.109828,1.9070319.2383122,2.8506052.4123793,1.9392337.3577468,3.7810895,1.0175344,5.5313292,1.9217089,1.1761117.6075777,2.3706856,1.1921281,3.488142,1.8962688.8026779.5057943,1.6063307,1.0223396,2.3107119,1.6968503,1.4849303,1.4219613,3.1573403,2.6255764,4.8014099,3.8571737,1.2780898.9574245,2.587089,1.874206,3.8517318,2.8487806,1.3049633,1.0056388,2.6065289,2.0206195,3.8493713,3.1007852,2.0033088,1.7410932,3.8058198,3.6771892,5.4641797,5.7557933.9324312,1.1687344,1.7829005,2.3928393,2.6620042,3.5975956.8105329,1.1107931,1.6993754,2.1518663,2.662251,3.1285729.8447051.8568326,1.6934243,1.7136987,2.5922801,2.5120952,1.0008563.8889902,2.0986756,1.6535395,3.3525895,2.1602506.962844.3890843,1.929994.7675153,2.9947499,1.1901827-.5044428-1.2399913-1.062439-2.3198861-2.0394324-3.1500843l-1.6807236.2199235c-.5170957-.0878682-.8476257-.3329639-1.1476639-.9160507-.3782664-.8800284.8350051-2.115521,1.714377-2.3950712.2113892-.0671979.4225702-.1350541.7189047-.2298001.3024002.0387312.7016675.0536176,1.0824255.145353,1.1890569.2864799,2.0085495,1.096956,2.7270494,2.0211695.7511187.9661734,1.2239973,2.0867946,1.6592751,3.2153642.1959228.5079773.2540539,1.0682027.3863618,1.601829.1876923.7570315.3799303,1.5105524.4534531,2.2922466.0985625,1.0478328.1102383,2.0958886.1278482,3.1468113.010448.6233085-.0268018,1.2408388-.0295358,1.8597122-.0030167.6835246-.2358036,1.3089874-.34109,1.9638727-.0779218.484675-.2651829.952059-.4075353,1.4260088-.13464.4482818-.2742742.8950668-.4220525,1.3762057.4676693.1300936.8923646.2482413,1.3170691.3663877.0009688-.0172827.0019468-.0345666.0029156-.0518494.6940303.0436915,1.3932023.0488863,2.0807389.1409795.8260199.1106509,1.6040241-.1508885,2.405901-.2152017.2668523-.2499446.613762-.1998769.9337534-.2457293.6794693-.0973695,1.3683519-.1486346,2.0377466-.2918529.7760212-.1660349,1.5420355-.3890267,2.2996416-.6277643.5856007-.1845199,1.139723-.4726831,1.7288707-.6412905.976543-.2794709,1.8871262-.7261711,2.8434781-1.0550313.4881315-.1678597.9668643-.3797034,1.4213728-.6245392.6182444-.333044.9949131-.8993386,1.2582006-1.5308207.1127382-.2704102.1489471-.5738232.2103286-.8642662.0779033-.3687033.2078158-.7472638-.1202169-.9627972.0214165-.3221641.050901-.5436313.0479887-.7646719-.0081813-.6195485-.0121147-1.2360565.0409691-1.8567291.0356511-.4167552-.0434892-.8391484-.0037876-1.270303.0499448-.5426141-.1148741-1.1134301-.0182289-1.6411679.1156429-.6317132-.1779063-1.2446507.0213792-1.8640631.0426555-.1325797-.0218739-.3007897-.0413624-.4520234-.1072237-.832067-.2527039-1.6612691-.3135999-2.4966655-.0613673-.8414384-.4996408-1.5649065-.6576514-2.3743318-.0438061-.2244084-.2438742-.4418495-.4204212-.6127269-.7586145-.734254-1.6053276-1.2753168-2.7261252-1.2562168-.5416412.0092318-1.0874768-.0503343-1.6265619-.117587-.5438576-.0678442-1.0909479-.0391142-1.6291866-.0798047-.9249408-.0699214-1.8303061.0473629-2.7019787.2559344-.9869328.2361658-2.0063633.2773655-2.9721603.5444484-.9838862.2720791-2.0035475.2802977-2.9753584.5347911-1.0078536.2639423-2.0348586.3648033-3.0530352.5403821-.2913497.0502413-.5681264.1798482-.8577712.2459895-.7657664.1748673-1.452048.0546175-2.0056309-.6261315l-.1172794-.8962856c.0830342-.7479418.6472153-1.0263313,1.2005181-1.2385893.6690303-.256661,1.3805363-.4009856,2.0693871-.6081478.4967108-.1493708.9859998-.3233118,1.4797205-.4828318.0718217-.0232109.1502249-.0254038.2249853-.0402945.7881406-.1570191,1.5917491-.2607725,2.3609251-.4834268,1.5441526-.4469785,3.1384087-.5379609,4.715759-.7450106.8396022-.1102051,1.689842-.1243315,2.538352-.0493437.1491328.0131827.3027382-.0314533.4547907-.0420297.6451883-.0448903,1.2885339-.0124364,1.93429.0143263.6477574.0268435,1.2990853-.0328416,2.0010082-.0563559.1100152-.2009419.2154364-.4259413.3491742-.6326025,1.1001583-1.7002178,2.1906311-3.4128827,3.5270684-4.938414,1.2207654-1.3935106,2.5112911-2.7246569,3.9345189-3.9227594,1.5679024-1.3198891,3.2910726-2.3804962,5.196169-3.1198926.9218067-.3577691,1.8980644-.5745464,2.8477245-.8615425.8536744-.2579941,1.6946215-.567326,2.5604094-.7730756.6084415-.1445906,1.1853173-.3610553,1.7765731-.5471367,1.2206601-.3841786,2.2992275-1.027133,3.3412011-1.7391954.5538702-.3785018,1.0573719-.8299105,1.6025918-1.2219902,2.059937-1.4813153,4.1165424-2.9677115,6.1967141-4.4202596,1.2021775-.8394634,2.4522053-1.6100522,3.6712812-2.4257206,1.3024312-.871442,2.5800602-1.78058,3.893465-2.634898,1.6372957-1.0649911,3.3605961-1.9807897,5.1123902-2.8441726.9292926-.4580081,1.8509996-.9315034,2.812514-1.3192256.5707459-.2301564,1.1462567-.4500202,1.7268661-.6538834.8966268-.3148194,1.8341953-.4754888,2.750279-.7090698,1.5577026-.3971757,3.1435154-.5492401,4.7229143-.6999441,1.1948629-.1140078,2.4124491.0110911,3.6121836.2506453,1.5801175.3155067,3.1531247.6310704,4.6580853,1.2306343,2.0733427.8259833,3.6771263,2.1644214,4.7555766,4.1415021.6529136,1.1969474,1.0747624,2.4535352,1.2620064,3.7979654.0446223.3203496.0804503.6359246.2338683.9442215.11789.2368566.142635.5514076.1170484.8227575-.0966102,1.0244622.1211593,2.0213284.3016125,3.0074334.1312741.7174767.3112716,1.4450532.6627112,2.120063.2734383.5251224.6222329.9519988,1.0645047,1.3274019,1.1409523.9685282,2.4538942,1.6745325,3.7262045,2.4398848,1.1798039.709711,2.3821555,1.3823335,3.5812337,2.0595066,1.0751113.6071544,2.13242,1.2446023,3.0972226,2.0148615.6077666.4852113,1.1485921,1.0533224,1.7373451,1.563591.726355.6295203,1.4468369,1.2699881,2.2131191,1.8484127,1.7538743,1.323921,3.2971012,2.8540451,4.7056501,4.537429.8367491.9999807,1.551101,2.072835,2.0334544,3.2708173.4112078,1.0212619.544688,2.1029317.5385836,3.2313281-.005865,1.0827191-.1841483,2.113807-.3944267,3.1571477-.2513249,1.2470615-.690979,2.4246664-1.1927672,3.590438-.9193727,2.1358569-2.2807121,3.9790174-3.7617865,5.7359894-.7738662.9180042-1.6738537,1.7285697-2.4952493,2.6078515-1.3806737,1.4779596-2.714366,3.0023664-3.497047,4.8983051-.5483555,1.3283062-.9077301,2.7131096-.9429411,4.170348-.0262962,1.0873269-.1356038,2.1727734-.1574354,3.2600608-.0140644.7005673.0666338,1.4028297.098534,2.104613.0238525.5247413.0313896,1.0502371.0577392,1.57483.0251187.4995412.1392307.9848178.0741707,1.5017649-.052389.4161471.0907254.8548186.1303235,1.2850339.1133575,1.2311567.2860054,2.4620299.3051393,3.6950363.0156413,1.0076753-.0866635,2.023638-.1386624,3.033807-.066115,1.2846426-.3726061,2.4868631-.7973457,3.6795598-.6397397,1.7963567-1.5663034,3.4333313-2.8458657,4.8412308-1.0571959,1.1632312-2.2753904,2.1249995-3.7103006,2.8372589-1.2432322.6171365-2.4962861,1.1074003-3.8801956,1.2447834-.4299158.0426764-.8566469.1165812-1.2863267.1623537-.8197202.0873347-1.6398163.0770696-2.4638509.0418724-.4199886-.01795-.8442343.0122279-1.2693568.0018327-.6935645-.0169527-1.3753725-.0963394-2.0628772-.1720415-1.803308-.1985598-3.5499666-.6429219-5.2613033-1.2097439-1.0352947-.3429071-2.0454696-.7847687-3.0242429-1.268535-.9628113-.4758825-1.8785109-1.0494279-2.8014851-1.6024992-.4970857-.2978509-.9726963-.6332369-1.4463169-.9681978-.9509069-.6725316-1.8953345-1.3542495-2.8395797-2.0361509-1.1709813-.8456622-2.3313668-1.7062235-3.5107264-2.5399906-1.0097008-.7138084-2.0215813-1.4274818-3.0653598-2.0894105-1.2907896-.8185949-2.619001-1.5779988-3.924206-2.3741429-.7296557-.445054-1.4441347-.9149215-2.1680131-1.369502-.6597279-.4142768-1.315041-.8364369-1.9863555-1.2311872-1.1208347-.6590575-2.2538794-1.2973237-3.3799422-1.947537-.9535682-.5506362-1.9126933-1.092357-2.8535736-1.6640067-.5599452-.3402015-1.0879898-.7327021-1.6328202-1.0980471-1.3186689-.8842562-2.6274928-1.783839-3.961528-2.6442991-1.2443946-.8026081-2.5079464-1.57652-3.7783865-2.337483-1.1374128-.6812653-2.3087346-1.3062032-3.4415285-1.9947963-1.4330312-.8711135-2.8964858-1.6846655-4.4015361-2.4214088-1.4753703-.722194-2.9745852-1.3959695-4.4446437-2.1285211-.8045213-.4008989-1.5699868-.880077-2.3546683-1.3211048-.0392048-.022036-.0937685-.0167743-.1411699-.0242346-.0285633-.0400303-.0571439-.080049-.0204681-.0286851-.0595278-.0209073-.013307-.0046723.0329336.0115695.028652.0929515.0364416.2002767.0890757.2767184.8032788,1.1667315,1.5761052,2.3570732,2.4333069,3.4830755.542153.7121666,1.1787309,1.3627353,1.8340264,1.9756509.700197.6549491,1.4478481,1.2660903,2.2192913,1.8361631.8712992.6438474,1.7922038,1.2205711,2.6912194,1.8269306.0421021.0283897.081292.0610761.1219466.0916083,2.5981592,1.9510579,5.2172434,3.8751603,7.7846821,5.8658645,1.0917864.8465408,2.0745147,1.8335941,3.1086579,2.7547238.4520744.4026667.9145248.793778,1.3617453,1.2016905.4630669.4223752.9103257.8620122,1.3701819,1.2879814.3882247.3596382.7839261.7112553,1.1774821,1.0651346.730452.6568122,1.4705438,1.3031887,2.1906923,1.9711055,1.1734814,1.0883824,2.3135559,2.2143963,3.2794821,3.4934307,1.1375714,1.5063171,2.2347497,3.0433766,3.3364724,4.5764139.622908.8667364,1.2537349,1.7308402,1.8211966,2.6336973,1.117103,1.7773118,2.112163,3.6250376,2.9973345,5.5289945.7883438,1.6955903,1.5834223,3.3892571,2.3166004,5.1089025.6084366,1.4269824,1.1348357,2.8890953,1.6905942,4.3383331.3987697,1.0397355.7082838,2.108954,1.0459611,3.1693603.4494077,1.4112259.9849938,2.794855,1.4455733,4.2027598.3239237.9901735.5804944,2.0022595.8747079,3.0023397.2588952.8800088.5490049,1.7514164.7861804,2.6370937.1749632.6532213.2791557,1.3250557.4288959,1.9854462.1761683.7771086.3307402,1.557813.5882763,2.3174948.1837611.5420542.2527845,1.1219401.397947,1.6784539.1438614.5515946.3174055,1.0955115.4808886,1.6419093.106619.3562493.2379283.7062817.3238536,1.0672858.1567514.6585716.2734258,1.3267632.4325019,1.9847302.6697189,2.7696824.8422507,5.6118967,1.2330035,8.4220446.0720466.5180219.0498653,1.0491999.0702368,1.5743215.0203634.5249161.2306009,1.0423966.0617391,1.5751142-.0070575.0222769.0042386.0501902.00611.0755431.0723292.9796086.1786293,1.9581901.2091913,2.9390947.0505532,1.6225336.2685771,3.2254448.5036532,4.8261999.1426441.9712905.3081347,1.9430848.5380257,2.8966675.2284281.9474264.438199,1.9006746.6830331,2.8420104.4226373,1.6248728.9306279,3.2309145,1.6764099,4.7446169.6251163,1.2688375,1.3844161,2.4612967,2.2059355,3.6094057.7951961,1.1114196,1.6431466,2.1849484,2.4577032,3.2827166.2510175.3382749.4791399.694908.6996164,1.0542507,1.0550724,1.719481,2.214663,3.3616387,3.5049952,4.9153231.5546946.6679315,1.0597332,1.3843723,1.5230551,2.1192867.7729288,1.2260018,1.7411695,2.2993972,2.602468,3.4555601.1481971.1989312.2994057.3957593.4422406.5984909,1.5337805,2.1768539,3.1109492,4.3210242,4.8083179,6.3743819.2858855.3458258.5897534.6769411.8720104,1.025608.6017469.7433382.8419382,1.3588395.9539176,2.4003437-.0348127.1336709-.0753963.2767735-.1092242.4214148-.2111994.9023918-.8201808,1.5140526-1.606441,1.8727438-.6907337.3151286-1.4398119.5797849-2.244245.4614452-.1465479-.021559-.3006043-.0225662-.4476843-.0045602-.646564.0791569-1.2872479.0542706-1.9321781-.0373692-.3411631-.0484909-.693162.0016249-1.0405234-.0085505-1.138508-.03329-2.271775-.1215414-3.4076922-.1802424-1.3846019-.0715716-2.7507407-.2171878-4.0975038-.53996-.7679453-.1840943-1.5472779-.3365183-2.2964226-.5801653-2.2205995-.7222073-4.4330895-1.4701345-6.6394759-2.2347111-.7978366-.2764704-1.5612587-.6510458-2.3548458-.9412561-1.3970352-.5109099-2.8531285-.8106433-4.3237687-.967939-1.2603972-.1347938-2.5312847-.1703499-3.8067823-.0004456-1.6322328.2174097-2.7335812,1.1410985-3.5615958,2.4731418-.5821727.9365292-1.1495368,1.8831778-1.6932153,2.8424839-.6167042,1.0881362-1.4108056,2.0464055-2.2037552,2.9976879-.7380969.8855099-1.5754552,1.6885847-2.3735544,2.5237264-.5890097.6163155-1.2058986,1.2073008-1.7725035,1.8432776-.6389211.7171244-1.2400596,1.4682368-1.8493421,2.2113626-.8190803.9990235-1.5902586,2.0404768-2.4526167,3.0002591-2.1726685,2.4181681-4.0763175,5.0489618-6.104058,7.5816575-.8637537,1.0788641-1.8208976,2.0872955-2.7847958,3.07999-.5717454.5887968-1.29161,1.0102597-2.0798899,1.2596499-.4079261.1290626-.8451791.0254603-1.2416235-.1207799-.5332821-.1967145-.9827312-.5483884-1.2298273-1.0564822-.2472712-.5084278-.4824522-1.0291612-.5521372-1.6148201-.0647691-.5442151-.2552737-1.0728603-.3304667-1.6166504-.0611999-.4425915-.0062632-.9002669-.0514439-1.3463068-.0857896-.8470226-.0995153-1.6906478-.0328453-2.5396093.033008-.4203063-.0054593-.8456834.0061745-1.2683012.0190671-.6921885.0428175-1.3845392.0829162-2.0757424.0385409-.6645002.1003698-1.3276342.1519515-1.9913617.0725831-.934022.154894-1.8674013.2144106-2.8022489.0424718-.6669677.044127-1.3364259.0822612-2.0037463.0563167-.9851361.1335046-1.9690782.1922219-2.9540965.0236146-.3961462.0215935-.7938021.0318252-1.1907513.0236106-.9156695.0179263-1.8313183.0827643-2.7469549.0386377-.5453508-.0301216-1.0978142-.0393452-1.6472504-.0058269-.3473709.0166847-.6951822.0125574-1.0426252-.0038089-.3226194-.1591024-.6436716.0073054-.9695206.0294206-.0576182-.0067158-.1494964-.0147792-.2253285-.2139476-2.0126708-.3505347-4.0379433-.6748187-6.0326834-.1652874-1.0167437-.2688559-2.0572638-.5385201-3.0495697-.2405351-.8850874-.2576214-1.8029064-.5012213-2.6710847-.2546381-.9074688-.2755705-1.850232-.5160475-2.7460695-.1775091-.6613394-.2372532-1.3369428-.3992123-1.9929737-.2640221-1.0694619-.4999043-2.1437515-.7366611-3.2191287-.192554-.8746324-.4425018-1.7385057-.6468525-2.6136604-.2154864-.9229399-.455771-1.8403437-.670997-2.7645947-.2091229-.8980621-.4001539-1.8098537-.6766298-2.6822002-.2123539-.6700765-.1387909-1.4065812-.5209612-2.0231488-.0124357-.0200454-.0093834-.0495358-.0143174-.0744691-.156127-.7888583-.315828-1.5770423-.4677144-2.3667184-.2286963-1.1890207-.4257152-2.3866937-.6701765-3.5690316-.1738634-.8409445-.2682787-1.6909513-.441654-2.528166-.4834152-2.3344274-.7777119-4.6972069-1.061067-7.0607607-.1471096-1.2270219-.2895034-2.46099-.3121786-3.6940776-.0130185-.7083294-.1155665-1.4030469-.136338-2.1043896-.0310714-1.0497434-.0423165-2.0988134-.097643-3.1489889-.0457631-.8682235-.040981-1.7464413-.0234022-2.6149151.017488-.8637856-.0277001-1.7308448.0606724-2.5990978.0827035-.812616-.0305017-1.64375.0274276-2.4606928.0716291-1.0102773.0592195-2.0231082.1711374-3.0334927.1249892-1.1285055.1325324-2.2695885.2113451-3.4037991.0512245-.7372157.1443496-1.4714065.2079703-2.2078967.0785327-.9090055.1419302-1.8192891.2192277-2.7284053.0772152-.9081664.1813098-1.8144319.2400348-2.7236815.0447483-.6924126.0242397-1.3888035.0559751-2.0823492.0350003-.7647565.1175303-1.5276754.1408307-2.2925724.0249645-.8204983-.0143852-1.6429385.0105018-2.4634549.0231405-.7643972.109159-1.5267772.1380105-2.2911611.0187997-.4978885-.0866412-1.0096157-.0062528-1.4935242.0871734-.5246297-.0436223-1.0352178.0411934-1.5613606.0860065-.533548.0087104-1.0969984-.0255843-1.6455672-.061293-.9798038-.2128811-1.9590231-.2023442-2.9371454.0178907-1.6593597-.2726413-3.2820526-.5529219-4.8960111-.1562744-.8999254-.2147534-1.8443018-.6039347-2.7019665-.0404891-.0892616-.0311677-.2001592-.0514974-.2996929-.1453929-.7127089-.2279725-1.4462856-.4536004-2.1327671-.3714635-1.1300179-.6236757-2.2913591-1.0099756-3.4200836-.5117874-1.495407-1.0019074-2.998748-1.530067-4.4898154-.3960082-1.1179512-.6965007-2.2695006-1.0835322-3.3908989-.4420204-1.2807105-.948952-2.5436686-1.5998852-3.7299308-.7617434-1.388245-1.5165549-2.7870971-2.4788456-4.0557146-.4527559-.596899-.8933857-1.204465-1.5941109-1.7090168.0242035.279554.0063717.4977875.0664749.6918786.2190299.7073179.4641126,1.4065598.6993317,2.1088577.1342275.4007522.1989703.8206159.3144133,1.2271503.2668923.9399049.3952439,1.9203055.5596907,2.8877102.1021911.6012094.1521089,1.211334.2550048,1.8124042.0713959.4170306.2373564.8206075.2832506,1.2387307.1043535.9507876.237586,1.908567.2161289,2.8602856-.0238773,1.0595252.0077488,2.1237697-.1436207,3.1840046-.1182877.8285123-.0961631,1.6760434-.1695774,2.5122153-.1466404,1.6701218-.4158613,3.3182811-.8197025,4.9500629-.6865402,2.7740595-1.3606499,5.553413-1.8161864,8.3773067-.281894,1.7475793-.5343856,3.5009831-.7477108,5.258117-.1070375.8815505-.0893885,1.777764-.142233,2.6665058-.0483242.8129158-.0965698,1.6266477-.1790107,2.4365343-.1220637,1.1991598-.2691449,2.3958652-.41497,3.5924813-.2144877,1.7600186-.4970883,3.5084415-.901653,5.2362392-.1685189.7196979-.2974498,1.4489302-.4762237,2.1658946-.274888,1.1024364-.572719,2.1992547-.8688486,3.2963011-.7151117,2.6491425-1.4696734,5.2882256-2.1421484,7.9480999-.579883,2.2937-1.1744288,4.5881543-1.5354978,6.9303161-.2138305,1.3870653-.4216069,2.7749724-.5029444,4.1816046-.0752708,1.3017195-.2573188,2.5969025-.3677626,3.8970644-.0732626.8625198-.0976917,1.7290916-.1541647,2.5931894-.056305.861578-.1206089,1.7227377-.1901082,2.5833753-.0674428.83509-.150692,1.6688678-.2184006,2.5039363-.0936208,1.1546657-.1743978,2.3103927-.2696131,3.464929-.0830336,1.0068679-.1689385,2.0136795-.2707191,3.0187936-.1363406,1.3463887-.2825746,2.6918747-.4368133,4.0363235-.1571163,1.3693901-.3341862,2.7364895-.4927978,4.1057185-.107845.9310675-.2119067,1.862917-.2943504,2.7965015-.1148669,1.3005904-.3222868,2.5903229-.3869862,3.8979835-.0693519,1.4018524-.2437311,2.7981977-.3348242,4.199383-.0498883.7673056-.0103779,1.5400222-.0336467,2.3096102-.0186347.6168411-.058052,1.2338099-.111548,1.848677-.0917926,1.0549651-.195162,2.1090788-.3057735,3.1622432-.1285117,1.2237984-.2872177,2.4446177-.4007916,3.6696918-.1002493,1.0813314-.1300275,2.1694614-.2401767,3.2495529-.0947151.9288612-.2527995,1.8515908-.3937165,2.775342-.2745659,1.7999944-.5228204,3.6049409-.8447295,5.3965566-.3637259,2.0242559-.9283557,3.9980631-1.6664367,5.9211726-.4616015,1.2027034-1.0415157,2.3309486-1.8773477,3.3237316-1.0462576,1.2427343-2.342566,1.0523731-3.2708781.159041-.8337341-.80234-1.323379-1.8415466-1.7048696-2.9282781-.3755824-1.0699261-.763239-2.1356055-1.1472741-3.2025287-.2588057-.7190062-.48932-1.4502219-.7876976-2.1525189-.5512271-1.2974179-1.4170607-2.3815277-2.3834371-3.3958959-1.1001587-1.1548064-2.1966671-2.3158748-3.1143481-3.6270734-.8264614-1.180854-1.4167307-2.4847132-1.9137746-3.8301999-.5141439-1.3917779-1.1989803-2.698062-1.8926468-4.0055194-.874486-1.6482695-2.0359768-3.0603809-3.3751344-4.3390407-.5631703-.5377255-1.1189135-1.0880856-1.7242122-1.5753194-.4833828-.3891141-1.0340471-.6209272-1.6937352-.7090959-.589812-.0788133-1.0077081.17327-1.4761324.3596226-1.3625063.5420058-2.4859517,1.4429319-3.5056255,2.4670764-.8507314.8545177-1.6378563,1.7720219-2.4655122,2.6499631-.8769044.9302097-1.7709387,1.844256-2.6528616,2.7697699-1.0206943,1.0711728-2.1808433,1.9754931-3.4095861,2.7866795-1.1344073.7489054-2.3466978,1.3834874-3.6239491,1.8317786-.6647808.2333055-1.4130497.3685148-2.1588492.1988007-.9350541-.2127662-1.4833739-.7844369-1.6346028-1.6978308-.1091678-.659408-.0210399-1.2712194.1903057-1.9086568.4095292-1.23531,1.0363589-2.368492,1.5438551-3.5564484.3600473-.8428029.7831651-1.6651808.9492926-2.5846434.0522751-.2892795.2136012-.557371.3084589-.8407101.6210445-1.8549094,1.0049226-3.7689316,1.4260469-5.6747375.2608277-1.1803948.5769273-2.348941.8848865-3.5184127.2707877-1.0282805.5639099-2.050713.8487809-3.0752772.3048211-1.0962868.603238-2.1944401.9191252-3.2875362.6529197-2.2593294,1.3266177-4.5127199,1.9705101-6.7745866.4602504-1.6167673.9167993-3.2357733,1.3184142-4.8677052.4181043-1.6989572.8369833-3.4029738,1.1287529-5.1262475.2874111-1.6975939.4076206-3.4230964.616785-5.1344532.1670801-1.3670881.345133-2.7331329.540569-4.0964379.30732-2.1440188.6738842-4.2786996,1.1620326-6.3893437.3446672-1.4903126.7340627-2.9702703,1.1049752-4.454486.3368795-1.3481021.7448954-2.6757829,1.2366839-3.9740943.5280449-1.3940376,1.1292787-2.7605793,1.6470811-4.1581878.4140403-1.1175176.7982151-2.2507153,1.1116985-3.399857.570663-2.0919652,1.0828684-4.200677,1.3920104-6.3507938.1646239-1.1449506.2973081-2.2945206.4410265-3.4424356.1560278-1.2463108.2596238-2.5014238.4715219-3.7380584.5205761-3.0380126,1.2237122-6.0369517,1.9619901-9.0301224.4209901-1.7068282.879937-3.3995796,1.3988202-5.0766982.3883939-1.2553157.7794346-2.5130811,1.2492006-3.7391453.5963319-1.5564281,1.2102867-3.109359,1.9890871-4.5890187.0530413-.1007864.0454625-.2334834.0660894-.3513443.0424673-.0582361.0849333-.1164813.1273994-.1747266.0402599-.027814.0805105-.0556267.0288832-.0199587.020422-.0593611.0045118-.0130982-.0114076.0331659-.0457961.0557607-.0915921.1115213-.1373986.1672739Zm113.9965821,109.3848283c.5466985-.3804931.5638843-.3935406.340819-.9819291-.1217911-.3212104-.2748921-.6381361-.4621554-.9255009-.5204781-.7988388-1.1919244-1.4718888-1.8636254-2.1414311-1.008582-1.0053712-1.9314487-2.0830699-2.7733627-3.2314588-.5289558-.7215371-1.0292094-1.4690097-1.6101463-2.1467476-2.254486-2.6301499-4.52617-5.245767-6.8110399-7.84963-1.6598671-1.8916258-3.3614042-3.7466236-5.0241741-5.6357474-1.4317524-1.6266215-2.613538-3.4233304-3.4856198-5.4111084-.4052952-.9238325-.7807726-1.8623467-1.1291968-2.8091147-.3667268-.9965077-.6742675-2.0146198-1.0284431-3.0159625-.2240849-.6334971-.384191-1.2854135-.5867643-1.9220071-.2278767-.7160106-.4337197-1.4403131-.538188-2.1720962-.2068343-1.4486478-.4771793-2.8906567-.4637978-4.3703359.0090656-1.0040064-.134156-2.0094206-.2097735-3.0141592-.0057384-.0760049-.0420022-.1611055-.019045-.2260661.1519543-.4299922-.0092676-.8495985-.0257426-1.2736089-.0174414-.4490498-.0018925-.9001627-.0361262-1.3476538-.0962367-1.2579055-.2104933-2.5144484-.3181099-3.7714846-.0065027-.0759612-.0394251-.1571983-.0220454-.2264623.1738309-.6930956.0133526-1.3912007-.1777273-2.0181803-.2948946-.9675385-.2517411-1.9907668-.6223949-2.940786-.1876572-.4809774-.1829434-1.0243682-.3464581-1.5361307-.2432231-.7613856-.3425516-1.5697143-.4895343-2.3605954-.2120063-1.1405537-.4118714-2.2833346-.6167249-3.4251999-.0089705-.0500405.000069-.1119969-.026463-.1488468-.26852-.373001-.2034071-.824383-.2998524-1.2373659-.0963649-.4126553-.2118772-.8207957-.3102699-1.2330167-.1336021-.5597355-.2497529-1.1237453-.3911249-1.6814312-.0850277-.3354862-.1978391-.664426-.3087113-.9927556-.2211199-.6549004-.4611121-1.3036129-.6716411-1.9618242-.2115869-.6614158-.3777632-1.3376191-.5977806-1.9960068-.3832043-1.1466893-.8133478-2.2779308-1.1844219-3.4283671-.3197638-.9913939-.5591801-2.0087295-.8803961-2.9995953-.3726408-1.1493486-.8276927-2.2723071-1.1886744-3.4249842-.4285923-1.3685478-.9904791-2.679614-1.5802097-3.9815812-.3652807-.806479-.7616816-1.5996177-1.1037983-2.415654-.8310098-1.9820436-1.8024191-3.8910083-2.913104-5.7296425-.7545753-1.2490713-1.5226575-2.4899899-2.2740078-3.7409668-1.6411228-2.7323913-3.6580626-5.1531968-5.9802145-7.3331048-1.3518301-1.2690106-2.6909224-2.5557828-3.9685962-3.8984817-1.4176235-1.4897954-2.8282433-2.9813242-4.4013558-4.3106997-.4232365-.3576673-.8320642-.7325262-1.243635-1.1038052-.5975496-.5390302-1.1838318-1.0908405-1.7892299-1.620815-.6273929-.5492293-1.2798829-1.0698022-1.9071278-1.6191917-1.0987357-.9623708-2.1546916-1.9764266-3.2875723-2.8961864-1.2366404-1.0039914-2.4872722-1.98832-3.6369168-3.0931744-.8104434-.7788508-1.6269521-1.5552553-2.2225277-2.5209728-.7921735-1.2845202-1.6073748-2.5568623-2.19714-3.9551123-.061754-.1464263-.1994897-.2608151-.3215095-.4146993-2.7910897,1.3012523-5.7053202,2.0955913-8.7583189,2.5837214.5770396.7572478,1.0187,1.5195896,1.1018695,2.4362926.2477154-.1922448.4603943-.3573027.6856654-.5321215.3124228.1273829.6466848.1978391.9015285.3796322.8413965.600255,1.6574008,1.2288481,2.346907,2.0178143,1.263031,1.4452219,2.4298917,2.9517631,3.3772157,4.628579.7167198,1.2686359,1.349679,2.5725808,1.8823176,3.9270822.4412813,1.1222062.8982099,2.2385526,1.3200787,3.3679847.3708825.992959.7121408,1.9973441,1.0484388,3.0027163.2042266.6106199.3804815,1.2372575.5966754,1.8367147.295901.8203652.494758,1.6652321.7141044,2.4977555.2410057.9146614.4552141,1.8401067.6830541,2.7607915.2172398.8778533.3838749,1.7719908.510349,2.667787.3056004,2.1646971.5907029,4.3326305.8515803,6.5031609.1200976.9990591.2240035,2.0077116.2171604,3.0111925-.0034601.5041729.102987,1.0075144.0459627,1.496169-.1010901.8666493.0419022,1.734536-.0850777,2.5986666-.0536454.3652098-.0191234.7440018-.0170977,1.1165758.0025828.4735682.0788136.9576884.0048725,1.4182449-.1226599.7639537-.0431561,1.5305734-.1229826,2.2940588-.0719903.6883148-.0198871,1.3887692-.0712768,2.0802291-.1022943,1.3767245-.236084,2.7511474-.3608011,4.1261578-.0778849.8588427-.1680825,1.7165921-.2433283,2.5756529-.0688544.7864831-.1366404,1.5733804-.1837963,2.3613532-.0546942.9135017-.0757325,1.8290225-.1309951,2.742486-.0581267.9606109-.1658306,1.9188071-.2026084,2.8799581-.032311.8447286.0563719,1.6964246-.0128372,2.5364596-.0352712.4279832.0156433.8445011-.0054179,1.2661175-.0284286.5694061-.0409203,1.1403327-.0367124,1.7104264.0042676.5748561.1226843,1.1629276.0347203,1.7205547-.0953598.6045882.0196405,1.1918109-.0073539,1.7876789-.0406771.8984837.0994838,1.8051563.1633696,2.7083253.0053667.0760347.0402161.1597992.0188733.2263328-.1546218.4817997.0207442.949793.0446626,1.4237996.0252101.499379.0005644,1.0036854.0592864,1.4985291.2066763,1.7418127.4124041,3.484557.6705796,5.2192178.2567433,1.7250072.3631007,3.4703123.8038736,5.1724975.2705905,1.0448827.3263613,2.136918.5656593,3.2007132.291267,1.2947556.5324846,2.602145.8260182,3.8994398.2261573.9995388.4378824,2.0001586.7096281,2.9897131.1922932.7001209.3036227,1.4224798.4503166,2.1350843.0153808.0746305.0184336.1523577.0391839.2252527.1765659.6202585.3794542,1.2341429.52834,1.8608779.1798049.7568193.3146239,1.5243516.4684884,2.2873072.0100269.0497896.0015101.1098559.0266445.149086.2422442.3778665.2226524.8176016.3067273,1.233931.0838392.4151019.2218334.8193803.3026124,1.2349201.1534739.7893932.2445882,1.5851809.4383338,2.3739058.2817161,1.1467007.2881604,2.3544927.6388964,3.496613.3406449,3.1235961.9782288,6.2120373,1.0933191,9.3628937.0339443.9296797.2225697,1.8428941.2320428,2.7847716.0105329,1.0461395.1121168,2.0925909.0756228,3.1451844-.0301517.8695555.015684,1.7415632.0179603,2.6125096.0009083.3463806-.0229919.6929087-.0386751,1.0392254-.0369459.8151924-.0758715,1.6303247-.1137808,2.4454741-.0321513.6915155-.0575441,1.3834425-.097699,2.0745028-.0386163.6646415-.1002457,1.3279372-.1371984,1.9926615-.0370954.667222-.0490109,1.3358443-.0848747,2.0031493-.0543813,1.0111943-.1354751,2.0211889-.1757086,3.0328607-.0305863.7687801.027333,1.5426751-.031529,2.3083565-.0684443.890229-.0633869,1.7808503-.1121472,2.6690859-.0221613.4034495.0592338.8100631-.0028121,1.1919506-.1428732.8792345.1654024,1.6899705.2044207,2.6119248.3329241-.2624871.5927009-.4537654.8374807-.6626317,1.0354685-.8836299,1.9504825-1.8863608,2.7976054-2.9456393,2.3943098-2.9940382,4.6198801-6.1186631,7.0798805-9.0640728,1.4248796-1.7060483,2.7688913-3.4775383,4.3270352-5.070932.8425921-.8616786,1.6406467-1.7667717,2.467096-2.6444611.6879883-.7306626,1.3430643-1.4790482,1.9277833-2.3042607.8755363-1.2356827,1.5112276-2.6069961,2.3352898-3.8664804.4278869-.653959.8611902-1.3324029,1.418707-1.8678982,1.2716759-1.2214481,2.8685701-1.8395348,4.5825164-2.1519609.5649793-.103,1.140753-.1151816,1.7226014-.1185424.7467448-.0043355,1.4927587-.0112421,2.2331997.061402,1.1507694.1129299,2.2985099.2618451,3.4443909.4183656,1.5356692.2097668,2.9973858.7083443,4.3799538,1.3723488,2.3596169,1.1333006,4.7984427,2.0562811,7.2550592,2.9412696.6051048.2180037,1.2175645.4264812,1.8412744.5798496,2.0620326.5070357,4.1868335.5815138,6.2804878.8732255,1.3408068.1868299,2.6849955.3492721,4.1009649.5321076Zm-99.7630163,16.089393c.1656215-.2285196.3174922-.3688686.3830801-.5419113.1755831-.4633393.3455741-.9331023.4614898-1.4138939.3235745-1.3422106.5862771-2.6996688.9326018-4.0356538.5206553-2.0084687.7792338-4.0631189,1.1165462-6.1024361.276887-1.6740371.4343986-3.3680053.6379394-5.0539487.2154239-1.7843679.4239784-3.5695647.6330945-5.3547035.1432094-1.2224914.296213-2.4440482.4182755-3.668693.0807716-.8103724.1106002-1.6257041.1705389-2.438271.0453073-.6141524.104077-1.2273245.1534328-1.8411804.0672451-.836529.1330896-1.6732128.1961313-2.5100745.0648714-.8612716.1056985-1.7248808.1924266-2.5838853.1631968-1.61636.356108-3.2296782.5286186-4.845116.149053-1.3958484.2830325-2.7932928.43087-4.1892451.1503508-1.4195877.3139241-2.8377317.4633066-4.2573993.1108194-1.0531541.2147392-2.107152.309543-3.1618538.0729236-.8110733.1370452-1.6232486.1864914-2.4360576.0540661-.8885918.0361041-1.7843982.1395652-2.6665136.1984803-1.6923239.3142219-3.3878879.4030429-5.088681.0732391-1.4022859.2030369-2.8039157.3699685-4.1984038.2017735-1.6855994.4618017-3.3643981.7107521-5.0440385.155122-1.046556.3690732-2.0852221.4983394-3.1346111.1961271-1.5923293.5390115-3.1564036.8759616-4.7197577.3327636-1.5438944.7775181-3.063295,1.1352489-4.6022494.546922-2.3527711,1.025496-4.7218773,1.5997098-7.0677307.5567378-2.2744545,1.1722534-4.533519,1.4424721-6.8672111.1784974-1.5416252.4240799-3.0786474.52405-4.6252.0780659-1.2075913.1464013-2.4200788.1995739-3.6306104.0559495-1.2736311.1481231-2.5543215.3627987-3.8252745.2711099-1.6050893.5914336-3.1968331.9866554-4.7731364.2286512-.9119716.5540562-1.7993524.7957857-2.7084716.4379757-1.6471316.8592925-3.2990039,1.2611761-4.9552916.226135-.931991.4193599-1.87085.5352758-2.8277168.1251155-1.0327417.2042015-2.0610944.2136244-3.103347.0088341-.9762092.0348182-1.9477983-.0928235-2.9180376-.1094282-.8318349-.1915013-1.667822-.3227203-2.4961106-.2329121-1.4701854-.2474249-2.9755966-.728966-4.4066287-.2131655-.633508-.346467-1.2947161-.5736626-1.9224914-.3525262-.9740263-.7735284-1.9210164-1.3333149-2.7990171-.5198771-.815416-.9736826-1.6604554-1.2255146-2.6038897-.0430057-.1610962-.1686334-.3001412-.2534383-.4448283-.2048585-.0442876-.3975895-.0859553-.5620147-.1214952-.4851813.3363006-.8981243.7376132-1.3924314.9443208-1.7293888.7232317-3.2117245,1.8541907-4.787079,2.826776-1.265954.7815653-2.4564638,1.6824963-3.6389846,2.5921667-1.4794651,1.1381144-2.9864158,2.2428559-4.346682,3.522697-.930174.8751764-1.8022699,1.8129264-2.6849715,2.7373684-.417624.4373733-.8131666.8978212-1.1944903,1.3674702-.9742372,1.1998718-2.0001415,2.3652812-2.8819845,3.6304856-.8287294,1.1890109-1.5127862,2.4804789-2.2369237,3.7404193-1.194942,2.0790646-2.1691308,4.2615989-2.9623406,6.5231529-.4105644,1.170634-.8072714,2.3472769-1.1672177,3.5342373-.5314919,1.752632-1.0364208,3.5135729-1.5314152,5.2769512-.7605787,2.7094989-1.3487525,5.4574656-1.8569511,8.22573-.4402534,2.3982348-.9713526,4.7796416-1.4377018,7.1732812-.3411562,1.7509485-.8635263,3.4522994-1.3796759,5.1538974-.2953123.9736175-.6876616,1.9189723-1.0595138,2.8679739-.7521322,1.9195674-1.4947148,3.84351-2.287944,5.746172-.9664546,2.3181407-1.7290405,4.7052258-2.3686593,7.1254817-.5031372,1.9038793-.8531977,3.8492157-1.2419915,5.7820043-.2668935,1.3267934-.5300695,2.6573823-.7117061,3.9975471-.2646863,1.9530019-.5254396,3.9054892-.9560071,5.829621-.2641017,1.1802034-.5615166,2.3533286-.8635248,3.5245758-.2655064,1.0296741-.5568814,2.0526855-.8393533,3.0779312-.2168071.7869121-.4388934,1.572374-.6562489,2.3591137-.4411979,1.5969587-.8793122,3.1947345-1.3215467,4.7913781-.2906345,1.0493386-.5987973,2.0939657-.8767921,3.1466085-.4160983,1.57557-.8280678,3.1525529-1.2127955,4.736-.3494545,1.4382974-.6752026,2.8828079-.9842219,4.3303691-.3907207,1.830368-.7264802,3.6727942-1.1373694,5.4984393-.3497087,1.5538305-.8922482,3.0496579-1.5706378,4.4924403-.5198406,1.1055291-1.0574639,2.2026802-1.5774944,3.3081215-.1418901.301663-.2881371.609643-.3106715,1.0184937.2337489-.0562778.415737-.0629821.559061-.1408382.7377868-.4008959,1.4769943-.8013391,2.1948547-1.2363247,2.1467038-1.3007513,3.8893552-3.0538265,5.4541024-4.9883675.9700037-1.1992146,1.909847-2.4251887,3.0031361-3.5138798.7233829-.7203072,1.4777574-1.4259456,2.3003753-2.0254834.814931-.5939119,1.7560611-.9803989,2.7159107-1.3326194.9104161-.3340895,1.7957607-.3441657,2.7161134-.2011608,1.3350074.2073833,2.4509631.8747229,3.4370362,1.7444584.8822503.7781314,1.7017444,1.6285909,2.5331999,2.4628178.8270019.8297577,1.588198,1.7148519,2.2761216,2.6682603,1.0062442,1.3945453,1.7702191,2.9124403,2.3826121,4.5085207.3004198.7829924.5002935,1.6042695.7936584,2.3903259.3008672.8061465.5807944,1.6244231,1.0716664,2.3491406.7580953,1.1192415,1.6883461,2.0937707,2.5805356,3.0990659.9106047,1.0260418,1.7315502,2.1117808,2.3663515,3.3292636.6655512,1.2764488,1.0300595,2.6679932,1.4869859,4.0225043.3166433.9386254.5518811,1.9045797.8615106,2.8457943.1190761.3619624.3434843.689277.5661638,1.1223639Zm30.7065877-165.8756916c-.031691.4711323-.0973912.8195663-.0691203,1.1602021.0559009.6733596-.0059747,1.3372134-.0382778,2.0074752-.0549946,1.1399864-.0166072,2.2841773-.0401325,3.4261215-.0090794.4418527-.0851672.8819847-.1212545,1.3236811-.0422489.516892-.0796974,1.0343015-.1094004,1.5520591-.0707754,1.2338127-.2624722,2.4495868-.5221013,3.6564367-.0278486.1294825-.0050664.2698621-.0058898.4297727.1856033-.0242863.3294652-.0048831.429058-.0622931.6783056-.3910187,1.4556625-.4879285,2.1856247-.7044844.764167-.2267034,1.5764874-.3319817,2.3660683-.4554596,1.5948796-.2494068,3.1884734-.5462444,4.8205946-.5434762.9520641.001636,1.8956663-.2087977,2.8601968-.2231224.9970899-.0148008,1.994297-.0686053,2.9944746-.0754528.8461654-.0057947,1.6915825-.0312298,2.5390461-.0083007.8452241.0228935,1.6931177-.0365765,2.5374879-.0021246.9603206.0391871,1.9168248.173358,2.8771613.2100828,1.2352859.0472291,2.4474852.2442578,3.6644708.434951,2.513616.3938487,4.9592907,1.0809707,7.4256099,1.6791421,1.7494603.4242948,3.4891854.8900161,5.2436571,1.2918981,1.5874462.363621,3.1857585.6938841,4.7327446,1.1983943,1.9601345.6392589,3.8963827,1.3536006,5.8314563,2.0667157.5587102.205895,1.0838146.5077515,1.6140187.7852867,1.127263.5900621,2.2441826,1.199967,3.3719105,1.7891325,1.8273329.9546913,3.5950528,2.0020707,5.2713592,3.2082654,1.953959,1.4059998,3.7240558,3.0223978,5.4039204,4.7315747,1.4102253,1.4348352,2.7911519,2.9101355,3.7247467,4.7316203.4267182.8325076.8938396,1.6392296,1.237509,2.5183716.1992137.5095891.3663051,1.0215596.5183943,1.5433153.242636.8325371.5951867,1.6485133.7146089,2.4977364.1633395,1.1614579.5333227,2.2965242.4932886,3.4866876-.0019161.0565452.0553627.1150917.1084073.2179225.2177632-.6073739.4397883-1.1605041.613898-1.7283236.2402955-.7836565.3497207-1.5804346.3328265-2.4135412-.0161319-.7945562.0469826-1.5908898-.0370207-2.3870164-.2869949-2.7201881-.7894533-5.4127836-.9454499-8.1521693-.0899345-1.579322-.294368-3.1509954-.2956375-4.739628-.0007644-.9686149-.0008357-1.9307848.0865616-2.8986345.1956051-2.1663327.6957487-4.2425723,1.6673735-6.1943912.6069535-1.2193471,1.3171303-2.3782248,2.1836079-3.4301009.5110981-.6204127,1.0706248-1.2019765,1.6239353-1.7862671.741477-.7830352,1.4831997-1.5669196,2.2523204-2.3224059.7585384-.7450776,1.438244-1.550952,1.9576363-2.4755479.8295303-1.4766164,1.5138958-3.01259,1.9172953-4.6723626.2357427-.96987.3023831-1.9483753.3552081-2.9329982.0120356-.2242078-.0269082-.4621218-.0946313-.6772735-.1255653-.3988526-.292687-.7844643-.4371629-1.1775653-.326929-.8897086-.7338184-1.7442016-1.4114493-2.4155738-1.0698471-1.0599358-2.1642469-2.0966718-3.280382-3.1077642-.7681245-.6958431-1.5906516-1.3316583-2.3887768-1.9944097-.0586362-.0486829-.1237444-.0918567-.1737268-.1483202-.7834543-.8849048-1.8059282-1.4477419-2.7994059-2.0390037-.8141691-.4845336-1.6876817-.8688646-2.5054625-1.3478455-1.6189242-.9482179-3.3336622-1.7182877-4.9136464-2.7439479-1.2845626-.8338707-2.4439774-1.7926493-3.2939251-3.051233-.8797557-1.3026721-1.4061075-2.785952-1.6864255-4.3328829-.2127822-1.1743274-.313637-2.3684934-.4977115-3.5486196-.1113656-.7138795-.2865035-1.4178087-.4405953-2.1629823-.333039.372842-.6031508.7388914-.9356642,1.0348009-.7994678.7114403-1.6322793,1.3852129-2.4442245,2.0828201-1.6281275,1.3988583-3.3861287,2.6125154-5.2340908,3.7001377-1.4711028.8658116-3.0334006,1.5361634-4.6257591,2.1356649-.8084124.304361-1.6553814.5081084-2.4580993.8252744-.7636093.3017241-1.5638024.4662408-2.3389142.7212511-.5435631.1788314-1.1498719.1887312-1.6703537.4100475-.5542656.2356859-1.160269.1595077-1.6833914.3777233-.5794324.2417068-1.1802128.2437654-1.7706544.3528249-.6660284.1230161-1.3329019.2071358-1.9957404.3852449-.9182323.2467267-1.8799231.3265288-2.819039.5227362-1.1023821.2303087-2.2077247.4171805-3.2880048.7569794-1.0136119.3188258-2.0131522.6661079-2.9805134,1.1014336-1.6807252.7563406-3.2182568,1.7540348-4.6538272,2.8987161-1.7195088,1.3710479-3.263745,2.9372495-4.8337745,4.4732513-.8391512.8209489-1.6864593,1.6336688-2.5378648,2.4419152-1.0664884,1.0124146-2.1978651,1.9447278-3.3808949,2.821444-2.038922,1.5110229-4.1473346,2.8579734-6.620946,3.5835015-.8141025.238773-1.6329527.2988843-2.4507017.4251089-.3584905.0553317-.7376619-.023418-1.1264335-.0421991ZM25.5456132,19.9020141c-1.0932775.7324759-2.1081251,1.4447356-3.1548922,2.1065302-1.7960558,1.1355378-3.7223736,2.032171-5.6625613,2.8789962-1.634385.7133499-3.2187334,1.500298-4.7015982,2.4846932-.9091595.6035468-1.7879423,1.2528729-2.680128,1.8819749-1.3945432.9833318-2.5111981,2.2111494-3.3723237,3.6913038-.9857551,1.6943848-1.6588062,3.4927903-1.9497402,5.4282302-.1466649.9756988-.2394918,1.9549074-.2621288,2.9484167-.0217176.9531002-.0417573,1.8953416.088312,2.8419004.1470589,1.0701554.42043,2.1059319.6977562,3.1484684.2558783.961906.5749632,1.9027567.9064732,2.8319245.535817,1.5017938,1.4034241,2.8244698,2.4771273,4.0207307,1.1274302,1.2561174,2.2275461,2.5353922,3.0289451,4.0479723.5468544,1.0321339,1.059847,2.0820609,1.2859242,3.217947.2891766,1.4528413.4298186,2.924987.3198709,4.4265044-.0884197,1.207547-.1808459,2.4152614-.3897697,3.6018231-.2774424,1.5757471-.6843335,3.1283176-1.0138211,4.6954186-.2326597,1.1066015-.4298594,2.2206859-.641491,3.3316912-.1441085.7565156-.1828886,1.5164987-.1934287,2.2892101-.0105357.7722789-.0847908,1.5430358.0305799,2.3117795.0778806.5189393.1713391,1.029192.3204232,1.5419038.2255228.7755616.5497873,1.495712.8851496,2.3335065.0631757-.3041809.0990882-.4979805.1439747-.6896866.2492389-1.0645429.5812232-2.0985962,1.0562695-3.0885015.4893842-1.0198019,1.1003349-1.9630641,1.6914367-2.9237489.8414368-1.3675387,1.8829451-2.5483615,3.0760147-3.6000591,1.0439633-.9202553,2.1664072-1.7365478,3.3586937-2.4654476.9718675-.5941455,1.9508265-1.1735653,2.9771644-1.6601554,1.6011891-.7591453,3.2143842-1.4852398,4.8926461-2.0788447,1.4683759-.5193684,2.9358802-1.0302561,4.4320464-1.4611052.3569561-.1027957.7092934-.2217298,1.0632841-.3347015.7305804-.2331449,1.456741-.4813368,2.1926787-.6960735.5029582-.1467655,1.0481922-.1817882,1.5207124-.3892977.3825116-.1679931.7980234-.1396914,1.1540151-.3079142.549732-.2597842,1.155554-.2825178,1.7203506-.4830771.5621733-.1996526,1.1902277-.2170319,1.7479618-.4252779.9850254-.3677879,2.0209878-.5254205,3.0263654-.8024011.8626553-.2376562,1.7362089-.4629255,2.6115286-.6542454,1.026464-.2243374,2.0510122-.4462363,3.0658122-.7214637.6764689-.1834515,1.3723177-.2955096,2.0594789-.4395878.0740475-.0155299.1578075-.0142451.2204999-.0498866.5318389-.3023752,1.1537662-.2793165,1.7183121-.4863129.582304-.2135175,1.2166624-.284767,1.827727-.4205782.0721322-.0160305.1402901-.049157.2115203-.0702153.5229517-.1545745,1.0430721-.3200937,1.5702798-.4585761.5314848-.1395962,1.0957429-.1883295,1.5996126-.3912082.7622191-.3068946,1.5627782-.4759337,2.3400187-.718264,1.0636655-.3316433,2.0978816-.7300383,3.1326941-1.1315537,1.2382077-.4804334,2.4710389-.9754036,3.698284-1.4832117,1.1586002-.4794069,2.3272799-.941634,3.4544879-1.4878577,1.3302002-.644583,2.6257258-1.3618352,3.9266521-2.0653708,1.0411885-.5630541,2.0680038-1.1527081,3.0705735-1.7134415l-.5413567-4.1372163c-.4291247.2517403-.8244276.5118632-1.2439468.7241284-1.0252438.5187775-2.1174194.8402913-3.246482,1.0426621-.1468105.0263092-.2985846.0524322-.4338856.1112281-1.4452446.6281136-2.8937206,1.2494007-4.3284786,1.9008197-.8301865.376928-1.6351577.8091327-2.4549596,1.2093042-.6192024.3022567-1.2375645.6076338-1.8678363.8854313-.748565.3299357-1.5250125.5755992-2.3131087.8057248-.7184165.2097773-1.4487778.3581936-2.1716043.5365648-.5555774.1371052-1.1338155.1697794-1.7225899.1123152-.5162101-.0503856-1.0383979.0689789-1.570255.0626338-1.0731389-.012809-2.1129938-.1921425-3.1589007-.3669187-2.5724178-.4298754-5.0616311-1.1507675-7.4834443-2.119695-1.9028512-.7613058-3.7039108-1.7236794-5.4953791-2.7070509-1.4022217-.7697114-2.7943202-1.5578612-4.1933226-2.3334684-1.3551719-.7513031-2.709365-1.5045278-4.0714343-2.2431671-1.3588347-.736884-2.7423833-1.4266819-4.1852355-1.9846842-1.665107-.6439552-3.3853591-1.1061773-5.1255491-1.4993828-1.1120518-.2512763-2.2442216-.3194447-3.3751832-.3766578-.5821129-.0294469-1.1200685.1938178-1.6214564.5553859-.3614232-.2004547-.7072936-.3922773-1.0172204-.5641677l-.1456688-1.1132459c.63935-.6303866,1.3936729-.9863589,2.2496874-1.1150929,1.0664045-.1603671,2.1276941-.2490935,3.2195993-.1405887,1.3563447.1347796,2.6963572.2822416,3.9949852.7224832,1.0638133.3606367,2.0948522.796031,3.0950381,1.300917,1.5387888.776782,3.0852236,1.5397318,4.5408323,2.4722282.8447758.5411849,1.7079304,1.0547568,2.5750264,1.5597703,1.3404552.7807093,2.7026342,1.5245646,4.0347848,2.3189529,1.4396639.8585078,2.8856764,1.7000854,4.4008349,2.4223645,1.2148017.5791053,2.4559099,1.1087281,3.7527554,1.4380367,2.0061556.5094362,4.0381179.9222975,6.0684002,1.3299981,1.589328.3191562,3.1962527.4649293,4.8154476.1958891.3508719-.0582975.7099238-.0728833,1.0572586-.1455827.5613261-.1174994,1.1200753-.2521086,1.6723034-.4067014.451588-.1264278.8931456-.2893952,1.3371453-.4420242.4439098-.1525985.8902495-.2999747,1.3268448-.4717299.924194-.3635654,1.7610309-.8906776,2.5946979-1.4213471.2059128-.1310814.40453-.2736409.6607697-.4478169-.2373704-.0809091-.3891165-.1512368-.5485947-.1840623-1.3046558-.2685789-2.4903248-.8465757-3.6778529-1.4156011-1.3922363-.6671339-2.7460207-1.4244828-4.1701777-2.012703-2.2446498-.9271056-4.5789436-1.5876491-6.9717062-2.0316517-1.2350357-.2291741-2.4626328-.4981642-3.6966459-.7331579-2.1869409-.4164664-4.244409-1.20983-6.2370035-2.1722224-1.4588326-.7046009-2.8775462-1.4917706-4.3273634-2.2156696-1.2795053-.6388494-2.3995564-1.4962278-3.378548-2.5170867-1.3098967-1.3659162-2.4503564-2.879452-3.5311385-4.430714-.9797591-1.406279-1.9132903-2.845355-2.8449371-4.2843817-.6596406-1.0188594-1.2957559-2.0536289-1.918175-3.0957495-.9755276-1.6332921-1.9306222-3.2787844-2.9067445-4.94016Zm145.9570759,68.0292288c.1658001-1.219494-.0015831-2.3657833.1985463-3.4951533.0212539-.1198866.0385142-.2768961-.0190964-.3684059-.3603677-.5727323-.2685062-1.2565859-.4966241-1.8752633-.4258915-1.1551514-.7427688-2.3450851-1.2300542-3.488616-.6196119-1.4539725-1.4137207-2.7709362-2.4455998-3.9577958-.7839341-.9016318-1.5746057-1.7986353-2.3260035-2.7270423-1.3759333-1.7000797-2.8344692-3.314952-4.5974839-4.6263429-.6891825-.5126447-1.3967431-1.001259-2.1069139-1.4847051-.4568475-.3109757-.9227145-.6120853-1.4038779-.8832668-.9134815-.5148275-1.8554002-.980166-2.7594237-1.5105511-1.8959827-1.1123381-3.8547961-2.0766342-5.9351338-2.8043678-1.567046-.5481604-3.1413878-1.0636647-4.759951-1.4278434-1.07999-.2429967-2.180135-.3958862-3.261452-.6336667-1.7565599-.386265-3.5047344-.8104934-5.2570881-1.2159954-1.7760397-.4109853-3.5622996-.781955-5.3269204-1.2370004-2.3030636-.5938887-4.653815-.8172248-7.0108479-.9888157-1.0872108-.0791596-2.1833217-.0309968-3.2751231-.0539561-.9163225-.0192714-1.832515-.0887881-2.748227-.0798559-1.0236188.0099806-2.0483911.057936-3.0704047.1050139-1.4105689.0649703-2.8166509.2357072-4.2231321.37641-.7078489.0707995-1.4119843.1780166-2.1185511.2624896-.1733912.0207351-.3546729.0466157-.5237796.0185714-.4717478-.0782329-.9085343.0442674-1.4957773.1635616.7206419.4813717,1.3179083.9039907,1.9386699,1.2887257.7013277.434666,1.4164851.848432,2.1387564,1.2475293.9832538.543268,1.9867287,1.0500384,2.9674072,1.5977376,1.4411534.8048731,2.868532,1.634367,4.3042124,2.4490835,1.2601378.715097,2.5430484,1.3923857,3.7802443,2.1450031,1.2463956.7581934,2.44833,1.5893822,3.6708095,2.3869795.3791721.2473981.7553491.5003246,1.1441163.7319217.9677537.5765188,1.9378186,1.1494579,2.9147327,1.7102983,1.0398615.5969725,2.094498,1.1683577,3.1320264,1.7693165,1.1057257.6404699,2.2064684,1.2902215,3.2955025,1.9585672,1.0712274.6574167,2.1148528,1.3599406,3.1891213,2.0121798,1.2277677.7454375,2.4317704,1.5238267,3.5916239,2.3714239,1.0016541.7319703,2.0085652,1.4568956,3.0203739,2.1747571.4312726.3059837.880992.5860217,1.3222715.8779159.7979309.5277876,1.6211826,1.0214526,2.3883296,1.5906977,1.4692521,1.0902277,2.9118728,2.2166181,4.3546745,3.3419519.6185605.4824467,1.2786089.8884088,1.9762047,1.2437461,2.1086223,1.0740721,4.2722802,1.9989438,6.6340465,2.3401883.8037679.1161261,1.6135319.2031561,2.4365205.2040939.4501984.0005221.9125678-.1011365,1.3405104-.0215381.5221855.0971276,1.0010104-.0485646,1.4992412-.0702065.5245603-.0227959,1.0514819-.0203687,1.5728574-.0733881.2657207-.0270134.5173178-.2005724.7825145-.2231226,1.0554537-.0897657,1.9247069-.6109124,2.798152-1.1212643Zm-91.0009582-32.4286949c-.0691207.0181624-.1308657.0155463-.1615493.0451402-1.4816388,1.4287917-3.2047845,2.5000629-5.0426497,3.3982495-.8836063.4318363-1.767521.8660511-2.6705533,1.2544172-1.1298142.4859038-2.2742779.9391496-3.4219476,1.3817439-1.173914.4527236-2.3575485.8768019-3.554431,1.2707526-.9837681.3237898-1.9595748.6751968-2.9539135.9695134-.4047607.1198122-.8133846.2269648-1.2162168.3527597-.4479107.1398912-.8918746.2925061-1.3363617.443133-.5392916.1827704-1.0983709.2905292-1.6359134.4922644-.6717843.2521196-1.3772602.4167644-2.0723511.6037231-.5062345.1361513-1.0517481.1765724-1.5189849.3916634-.3802443.1750584-.7792783.1720013-1.1536986.310117-.440242.1624008-.8868098.3114783-1.3387176.4373283-.5048486.1405712-1.0521771.1766661-1.5182665.3932784-.380738.1769541-.7774745.1783948-1.1549544.3058304-.5398939.1822577-1.0895398.3384282-1.6411022.4824639-.556529.1453334-1.1350429.219173-1.6774569.4026243-.6621208.223924-1.3471171.353258-2.0088361.5615228-.4574175.1439522-.920772.2287528-1.3821369.3395951-.478609.1149768-.933642.3248744-1.4090068.4573244-.5292902.1474691-1.0706971.2510656-1.6053234.3800017-.4609172.1111781-.9396732.1817583-1.3751476.357846-.8328487.3367762-1.7202769.4710104-2.5650333.7614922-.7036471.2419876-1.4413929.3837735-2.1485886.6167976-1.1478221.3782066-2.2732334.8260673-3.4262773,1.186327-1.1577519.3617396-2.2683672.8313933-3.3600498,1.346704-1.156659.5459832-2.3104443,1.1028774-3.4341259,1.7127937-1.8171921.9863508-3.3894629,2.2887869-4.6806682,3.906241-.5666818.7098785-1.0591144,1.4791818-1.5826312,2.2233488-.6076378.8637347-1.0781744,1.8008403-1.4468792,2.787207-.3123944.8357505-.4530683,1.7152512-.6195972,2.5884444-.2296383,1.2041463-.4069562,2.4063763-.1189812,3.6297931.8681284.9103626,1.8112699,1.741422,2.8136666,2.5139079,1.3462264,1.0374483,2.8047646,1.8016594,4.4632793,2.224079,1.6308307.4153748,3.2695295.5454121,4.9345074.3872896.367308-.0348785.7201532-.2260712,1.0872661-.2581353.9105258-.0794972,1.7622332-.3955097,2.5987845-.6969561,1.3636557-.4913832,2.6939704-1.0857904,4.0084797-1.7005908,1.9607199-.9170417,3.9135757-1.8546426,5.8351355-2.8503586,1.3804672-.7153333,2.7286857-1.5010146,4.0464087-2.3269242,1.2398929-.777141,2.4557965-1.5935868,3.5764845-2.5506062,1.5992902-1.3657029,3.1014152-2.8274587,4.5414683-4.3560451.9990694-1.0604741,2.0025984-2.1172217,2.9800931-3.1974.8294409-.9165432,1.6379031-1.8529719,2.4315286-2.800812,1.1625203-1.3883964,2.5073207-2.5915239,3.8383052-3.8068725,1.3809884-1.2609832,2.9189898-2.3253438,4.4455914-3.3981006.9339457-.6563235,1.9146889-1.2457896,2.8701526-1.8717907,1.4316728-.9380088,2.8174048-1.9553447,4.2995839-2.8047547,1.9452495-1.1147852,3.9131801-2.196029,5.9374799-3.1702757.6527975-.314193,1.2157953-.7965338,1.7226523-1.3622381-.5848384-.2171249-.9812021-.5391419-1.2758657-1.1341157.0239503-.8141117.0505588-1.7187832.0773493-2.6297418ZM161.0680684,5.3360614c-.5885864-.5790363-1.3418506-.8795702-2.0836409-1.1700648-.966698-.3785653-1.9853754-.6023719-2.9855402-.8819046-1.5241108-.4259962-3.0819012-.5634089-4.6279117-.4206233-1.8481069.1706759-3.6996521.3628687-5.4945895.964712-1.1966245.4012319-2.3850373.8169959-3.5302387,1.3314875-2.4119062,1.0835696-4.7265637,2.3676711-6.9504638,3.7902109-2.2578328,1.4442392-4.4959443,2.9246608-6.5608999,4.653239-2.3518071,1.9687071-4.7003377,3.9383424-6.8397125,6.1403292-1.3848672,1.4253878-3.0007992,2.518158-4.7624525,3.4072362-1.0099153.5096915-2.0406508.9779591-3.0576596,1.4737704-1.284719.6263165-2.5893428,1.20615-3.7842604,2.0132579-1.3438642.9077292-2.5997373,1.9153879-3.8273975,2.9713065-1.7566987,1.5109505-3.2849677,3.2362084-4.8141006,4.9637626-.128848.1455717-.2360964.310248-.3263337.4301136.3284573.5246324.6165704.9847933.9172221,1.4649955,1.1309562-.0542764,2.2237802-.3137118,3.2761896-.8429691,1.3754017-.6916832,2.7102297-1.4359574,3.9245453-2.3850296,1.6258175-1.2706892,3.247242-2.5469637,4.8725137-3.8183796,1.7023628-1.3317177,3.3838151-2.6916259,5.1166693-3.9824997,2.0287952-1.5113411,4.1913968-2.8181916,6.4496076-3.9617253.9670793-.489724,1.9494945-.9386024,2.9930253-1.2575588.6160749-.1883009,1.2366627-.369957,1.8444441-.5708308.6415889-.212049,1.3004426-.3779834,1.9458049-.4954595,2.6646741-.4850529,5.3872453-.5983962,8.0338045-1.2267682.8795451-.2088316,1.7766529-.3435811,2.665748-.5121528.0249593-.0047355.0507928-.0063786.0749127-.0137979.8512266-.2619182,1.7023022-.524272,2.5533591-.786769.8984255-.2771041,1.8173796-.5016658,2.6910388-.8423125,2.0046472-.7816263,3.9086875-1.7778247,5.7115141-2.95003.9570254-.6222474,1.8864285-1.2982876,2.7662031-2.0252175,1.1309981-.9344891,2.0646112-2.0208463,2.49118-3.4939352.221131-.7636267.6801992-1.4397889,1.3174193-1.966393ZM28.7640463,17.3049625c.1035696.222645.1898919.3995252.2689332.5796071.4970982,1.1323355,1.0829088,2.2182628,1.775739,3.2408878,1.5594614,2.3017829,3.1269226,4.5983216,4.7120929,6.8824391.8640627,1.2450318,1.7653644,2.4644244,2.6599821,3.6879923,1.0033453,1.3722472,2.2061032,2.5361791,3.70217,3.3598495,1.4422854.7940765,2.9075853,1.5463082,4.3621494,2.3181102,1.6140611.8564403,3.3515701,1.3906951,5.1211001,1.7570271,2.6539019.5493993,5.311181,1.0675568,7.9406668,1.7366461,2.4034017.6115688,4.6793292,1.51197,6.8567497,2.6750692,1.761215.9407594,3.5778481,1.7417007,5.5010126,2.2822088.5325638.1496742,1.0906751.2083994,1.6370724.308857-.2998767-.3003258-.6515721-.485212-.9581592-.7272385-.9532804-.7525309-1.8943651-1.5207947-2.8304535-2.2947219-.5836388-.482523-1.1746833-.9604288-1.71863-1.4857252-1.2749428-1.2311905-2.3688427-2.6235671-3.4669668-4.0095454-1.0384528-1.3106547-2.1451723-2.5602374-3.3086525-3.7602073-.7832039-.8077828-1.5847877-1.5982958-2.3516453-2.4212371-1.1319751-1.2147456-2.2956296-2.3942314-3.6267238-3.3928217-.8701386-.6527744-1.7634461-1.2745718-2.6422079-1.915959-1.3505169-.9857008-2.6964487-1.9776967-4.0462321-2.9643949-1.1037993-.8068774-2.2253833-1.5902856-3.311685-2.4199562-1.1841311-.9043912-2.487417-1.5994658-3.8092533-2.2648672-1.9128055-.9628933-3.8948374-1.7496198-5.987969-2.2252841-.9907668-.2251487-2.0050115-.2785862-3.0186034-.2762983-.6853686.0015488-1.3587378.1676407-1.9780346.4259024-.5097022.2125579-1.0885131.3705305-1.4824518.9036602Z" stroke-width="0"/>
      <path d="m116.6085924,87.5764742c.2170624.2395287.5084516.4887695.7088861.7971352.4312823.6635812.7965959,1.3698433,1.2232865,2.0366546.90861,1.4198473,1.589347,2.9527188,2.2560581,4.4916418.3623272.8362944.6824023,1.6915644,1.0017973,2.5456557.3883218,1.0383982.7549784,2.0848899,1.1327385,3.1272524.2183938.6026343.4483709,1.2012176.6575426,1.8070024.1294007.3747719.2541541.7543587.3376107,1.1411334.1786732.828258.484339,1.6197664.6731916,2.4484578.1163599.5106365.1898086,1.0334893.3262839,1.5388269.5844444,2.164203.6645653,4.4035243.9975315,6.6048402.0742296.4907863.0366309.9981491.0562232,1.4976529.0195716.4989149.2221879.989297.0569996,1.4987063-.0287247.0886275.0126818.2008315.0248359.3017543.0989381.8205589.0662565,1.6406397.0295546,2.4642983-.0365196.8190242.0133904,1.6416508-.0129593,2.4614664-.022151.6897187-.1135544,1.3769303-.1483751,2.0665602-.0362366.7177042.0008645,1.4414374-.0738864,2.1541524-.0571834.5452797.0220656,1.085046-.0491229,1.633379-.0730629.5625697.0245586,1.1465826.038421,1.7214227.0095784.3980005.0000758.7964318.0058994,1.1945855.0058187.3981168.1854651.7847189.0293963,1.1989105-.0560729.1487353.022217.3497711.0449469.5262067.107092.8320654.188475,1.6687344.3326989,2.4943636.1325321.7586667.3170191,1.5074926.5668707,2.2418873.126924.3730677.2077069.7688312.305953,1.1523748.4124971,1.6103864,1.0372738,3.13842,1.6682923,4.6677965.7140445,1.7305815,1.4058525,3.4703454,2.1214823,5.2002687.2070304.5004343.4780467.9704478.6778904,1.4795412.1325149.3375735.188309.6712508.2610464,1.0115567.1030971.4823326-.0183691.8973113-.3997729,1.2633684l-.4407432.0576715c-.5424703-.3275013-.819076-.9154383-1.1225448-1.4428616-.6763178-1.1754472-1.3390518-2.3593201-1.9573204-3.570515-1.0530066-2.0627952-2.1242651-4.1143752-3.0773352-6.2266436-.426441-.945067-.7958389-1.9120403-1.1218686-2.8919001-.2122681-.6379168-.2958571-1.3189264-.4329799-1.9814938-.1373271-.6635548-.2988522-1.3240184-.3942599-1.9937344-.0701326-.4924868-.0355879-.9989335-.0756235-1.496936-.0386631-.4810543-.1665632-.9598973-.1604903-1.4385044.0120911-.9498827-.0538332-1.8966184-.0586415-2.8434634-.0037886-.7444312.0042881-1.4904713.0067436-2.2359825.0025226-.7639436.1070334-1.5270907.1267742-2.2916346.0102313-.3970243-.0206171-.7920913.0020472-1.1944234.0474861-.843146-.0205177-1.6921015.0011791-2.5375728.0237302-.9243712-.012116-1.8451911-.0331947-2.7678307-.012638-.5521351-.0989236-1.1033381-.0739277-1.6477396.0468226-1.020018-.2225309-2.0100922-.225727-3.0129355-.0027671-.865511-.1058991-1.7112316-.229991-2.5565289-.1720917-1.1723697-.3464035-2.3492191-.6194773-3.5004874-.2305645-.9720779-.3811076-1.9685712-.686947-2.914836-.2823725-.8737065-.4085078-1.7872945-.7621518-2.6429141-.1976389-.4781782-.1983835-1.0368746-.390117-1.5185769-.2224801-.5589421-.2237607-1.168238-.4940342-1.7172548-.159533-.3240282-.1839596-.7173813-.2880089-1.0772441-.2479695-.857653-.5693303-1.690312-.8127667-2.5463327-.2717329-.9554415-.6388302-1.8732575-1.0192808-2.7843307-.2749485-.658374-.6494496-1.2748184-.9698815-1.9147988-.0771592-.1540731-.1800036-.33551-.1602877-.4902586.0576047-.4522119-.3336503-.8090309-.2180321-1.2732943q.2534615-.2673861.8375676-.3154957Z" stroke-width="0"/>
      <path d="m70.7845781,129.6098667c.1353978-.3344869.0428512-.715809-.0824785-1.0626987-.1659379-.4592357-.2267671-.8974154-.1701573-1.3894526.0452482-.3932865-.0644814-.8068223-.1218987-1.2090238-.149122-1.0445506-.1723138-2.0909117-.1147372-3.1442825.0285072-.5216577-.0363376-1.0477209-.0320623-1.5715697.005461-.6685759.0240013-1.3377364.062895-2.0051373.0401247-.6884928.1147406-1.3748976.1682638-2.0626834.065058-.8360926.1030531-1.6748416.1903752-2.508495.1204137-1.1495513.2494256-2.2994859.4243001-3.4416649.1638044-1.0698343.3344486-2.1445919.6029161-3.1913211.8064378-3.1443326,2.0490437-6.1257531,3.5333222-9.0053708,1.0859433-2.106814,2.2022461-4.1984069,3.3336314-6.2812309.668793-1.2312231,1.4014464-2.4275885,2.0898807-3.6483574.4660059-.8263747.9295599-1.6557715,1.3512288-2.505154.9621462-1.9380708,1.8503769-3.9086882,2.6334086-5.9286801.6021172-1.5533351,1.1221038-3.1256435,1.3984159-4.7685519.19663-1.1691023.3056745-2.3436088.306023-3.5388147.0001931-.6403732-.1911487-1.2911697.0049828-1.9329641.0206551-.0676268-.0090193-.1508101-.0160772-.226708-.1286743-1.3819409-.263859-2.7633305-.3811747-4.1462318-.0249811-.2944672.0063152-.5950213.0267418-.8917398.0326654-.4745933.2871445-.7792697.7775967-.9412354.5233449.2231055.8149673.5969147.9692749,1.1997089.4796695,1.8737164.6017285,3.7961419.8692088,5.69829.1111977.7907464.0665266,1.588451.0323763,2.3861123-.017992.4203134.0096948.8449695.0064745,1.2690218-.0103221,1.362333-.1125865,2.7117281-.3593124,4.0501275-.3297364,1.7887054-.9149058,3.4968932-1.6267227,5.1667483-.4674461,1.0966074-.8717796,2.221353-1.3697303,3.3034251-.5623418,1.2220641-1.1698313,2.4255462-1.8080187,3.6100014-1.018746,1.8907413-2.0920558,3.7520097-3.1176896,5.6391261-.8224491,1.5132226-1.6377268,3.0318076-2.4001021,4.575707-.5050937,1.0228904-.8933506,2.1027881-1.3663066,3.1424323-.5376758,1.181933-.908985,2.4202705-1.2615237,3.6618329-.3230768,1.1377577-.5892486,2.2936015-.8326084,3.4515498-.248063,1.180349-.4488854,2.3710904-.650463,3.5606534-.3166024,1.8682686-.6036585,3.7408781-.775291,5.6296257-.1204609,1.3257276-.2789969,2.6483148-.3789354,3.9754418-.0558507.7414738-.0098006,1.4900376-.0393424,2.2342195-.0726365,1.83058-.1838486,3.6573526-.8272552,5.4009277-.04192.1135856-.1109796.2171817-.188707.3662714-.5223599-.8970397-.5440231-1.8973445-.860722-2.9198549Z" stroke-width="0"/>
      <path d="m120.5301389,47.9958409l-.0468668-.3581708c.096383-.2629271.4988257-.4509753.833592-.3282251.4746102.1740237.9638243.2231246,1.4566281.2696616.369338.0348882.740585.0822127,1.1100842.0752745.6762934-.0127048,1.3518262-.0869099,2.0278786-.0901178,1.7018775-.0080966,3.3771019-.2747118,5.0507635-.5257131.9431262-.1414472,1.8819519-.347049,2.8126859-.5503338.5624929-.1228636,1.1367364-.1958251,1.6925444-.3402097,1.2014844-.3121348,2.449564-.3766802,3.645158-.665226.940171-.2268965,1.8842809-.4013007,2.8323995-.44948.8311615-.0422375,1.6567827-.1882445,2.481248-.1833402,1.4836663.0088314,2.9671522.0260436,4.4534371.1296648,2.3207245.161787,4.5404961.6912273,6.7083836,1.4793496,1.0588214.3849205,2.0450928.9325921,2.9789457,1.5676533,1.0013049.6809332,2.031734,1.3233679,2.9961162,2.0530975,1.061539.8032564,2.0323644,1.7215908,2.8803043,2.7525551.6673076.8113556,1.0643876,1.7553629,1.0562731,2.8174455-.0033468.4365765-.0851963.8883645-.3747789,1.2653565-.1698735.2211413-.3076354.4669463-.3979268.6062052-.5059364.1466106-.7017592-.0838845-.8582587-.35502-.2711241-.4696895-.5509075-.93695-.7816032-1.4266347-.2192088-.4653364-.5127672-.848846-.9237969-1.1564267-.6716039-.5025967-1.3088873-1.0546447-2.0037927-1.5216084-.8320371-.5590828-1.6899015-1.0867656-2.5719266-1.562561-1.1384295-.6141142-2.3065387-1.1743136-3.4713759-1.7380682-1.9104988-.9245966-3.9243922-1.4990524-6.0350191-1.7310187-1.0516929-.1155836-2.1026814-.3120436-3.1553674-.3216882-.9189048-.0084352-1.8396529-.0638245-2.7662819-.0107289-.8287636.0475015-1.653328.1618285-2.4792912.1751869-.4507355.0072857-.914852-.0505173-1.3435794.0714262-1.1739755.3339171-2.4054938.3403108-3.5760367.6321425-2.0024938.499262-4.0559476.5975905-6.081195.9084664-.4146798.0636701-.8464126.0077802-1.2689326.0311967-.3986894.0221106-.7855848.0753653-1.1966387.025803-.4366814-.05266-.8953842.0078404-1.3429586.0167502-1.4183992.0282367-3.4218945-.5900423-4.3408152-1.5626642Z" stroke-width="0"/>
      <path d="m161.1867102,33.1480183l.1124938.8597124c-.259299.6187623-.783025.9095823-1.284261,1.1713406-.8274176.4321042-1.6887648.8044095-2.5536486,1.1582985-1.0011815.4096602-2.0143259.7933441-3.0367888,1.1462877-.5161908.1781842-1.062632.2717252-1.5985974.3889203-.6613809.1446112-1.3206841.3187363-1.9906138.3995937-1.0240007.1236054-2.0552892.2266795-3.0853883.2485651-1.0230021.0217269-2.0441202.0475174-3.0667137.0898775-.8940052.0370373-1.7943319.0561917-2.6891223.0456059-1.0415602-.0123117-2.0850083-.0096291-3.1253814-.0497551-.9668503-.0372763-1.9302971-.0908814-2.9001318-.0826471-.9232718.0078508-1.8450901.0299676-2.7671732.0458981-.7327902.012665-1.4543959.1474045-2.1776142.1386374-1.6819781-.020382-3.3160399.3519804-4.9744621.5162126-.7315462.3558701-1.5720751.2623627-2.3233249.5816116-.402969.1712522-.8679233.2076583-1.3031904.3338755-2.4021449.6965887-4.6477447,1.7084363-6.65526,3.2077341-.3955674.2954179-.7142691.699752-1.0422571,1.0766048-.1259714.1447352-.2627235.3595048-.2494142.5311163.0394278.5085709-.2189863.9068945-.3956716,1.3320284-.4863013-.0496604-.6919407-.4272271-.9014014-.8091674.0537443-1.0375914.5868494-1.8141886,1.3088233-2.5629893,1.3547543-1.4050663,2.9545467-2.4167997,4.6938555-3.2431243,1.1214722-.5327916,2.2831457-.9483809,3.493603-1.241745.9654609-.2339853,1.9123333-.5440078,2.8703295-.8099244.1942711-.0539198.4022938-.0564246.6024564-.0912972.8170131-.1423265,1.6344861-.295634,2.4490263-.4351861,1.4139087-.2422488,2.8563594-.3494729,4.2915071-.425101.9700649-.051112,1.94798-.0850014,2.9175909-.0701158.9914403.0152218,1.98332-.0623611,2.9772647.0251054.5927947.0521632,1.1976758-.0418458,1.7974331-.055743.2963206-.0068704.5933529.0271498.890073.0274951.2972283.000354.5949134-.1433462.8929924.022249.0554115.0307845.1485121-.0070613.2243086-.0120963.8263667-.0549114,1.6555522-.1807122,2.4784852-.1481925,1.3290166.0525195,2.6110923-.2535542,3.915291-.3823757.74803-.0738834,1.4489392-.3413875,2.1638269-.5589007.425526-.1294734.8711668-.190908,1.2995099-.3414789.8390896-.2949659,1.7156927-.4655699,2.5540056-.7803931.7171072-.2692997,1.4816753-.40998,2.2196089-.6267574.5922378-.1739839,1.2025846-.3202323,1.7570521-.5806409.7429871-.3489535,1.4488572-.2543199,2.210879-.0391389Z" stroke-width="0"/>
      <path d="m56.6436108,58.3123102c-.6167559.8233667-1.5401816.928572-2.3694274,1.2243486-.5598378.1997039-1.1698515.2351838-1.7027258.5226137-.0212071.0114515-.0496804.0091394-.0745953.0140709-.7877882.1558368-1.5759119.3099709-2.3631687.4684331-.3906194.0786167-.7972376.0498931-1.166391.2800013-.1766704.1101367-.4537037.1278409-.6700639.0929649-.6665735-.1074192-1.3043912.0753224-1.9526541.1414238-.7582939.0773251-1.5122442.1981784-2.2708986.2704518-.4963152.0472613-.9977608.0388807-1.4966844.060754-.473967.0207769-.9435972.1874364-1.4232208.0376757-.0442634-.0138337-.0999549.0113701-.1505844.0151216-.9536884.0707029-1.9094248.1208743-2.8605531.2168118-.9605271.0968762-1.9166375.2377687-2.8743584.3619038-.5292626.068597-1.0573877.1460315-1.5868372.2130566-.9974044.1262852-1.9577803.4004949-2.9249497.6664193-.6719491.1847663-1.3381772.3805312-2.004998.5824585-1.0186633.3084955-2.0047672.6973929-2.9879753,1.0957899-1.4845011.6015207-2.9362988,1.2769359-4.3488906,2.0319489-1.1100076.5932811-2.2339589,1.1687705-3.2967862,1.8392257-.7525947.4747439-1.4170357,1.0904877-2.1116883,1.6545382-.1084304.0880423-.1695896.2351519-.250035.356652-.1387774.2096259-.2755203.4205913-.4472581.683209-.2591518-.0267695-.5212169-.0538433-.7601276-.0785287-.1829632-.2660201-.3377352-.4910503-.4827441-.7018923-.0072544-.8375138.4117035-1.4660964.9372108-2.0121271,1.1453876-1.1901524,2.4937238-2.1170969,3.9120152-2.9579407,1.1272408-.6683291,2.263893-1.3137474,3.4502679-1.8694503.915548-.4288511,1.8482418-.8129289,2.8227988-1.0937269.8554915-.2464753,1.7027374-.5215917,2.5540438-.7826846.0481362-.0147686.1002326-.01628.1502133-.0254211,1.0652821-.1948514,2.1312171-.3862199,3.195627-.5857274,2.364739-.4432286,4.7434481-.7942609,7.1305921-1.0905907.9583235-.1189554,1.9150851-.2528622,2.8754233-.3522585.495831-.0513202.9978589-.0445182,1.4972289-.0592477.4739529-.0139953.9422006-.2207862,1.4230504-.0409869.042573.0159141.0998849-.0096801.1505567-.0131085.8780141-.0594956,1.7566968-.1755985,2.6339641-.1658092,1.8358799.020494,3.6222593-.3690292,5.4294629-.580318.5675104-.0663618,1.1262042-.232468,1.6798595-.3856982.4745869-.1313623.9362812-.309369,1.4035583-.4671004.2561647-.0864802.5023481-.0099827.7316646.0809949.2006039.0795882.3777456.2182685.6000783.3517492Z" stroke-width="0"/>
    </g>
  </g>
</svg>