<?xml version="1.0" encoding="UTF-8"?>
<svg id="Layer_2" data-name="Layer 2" xmlns="http://www.w3.org/2000/svg" viewBox="0 0 182.5648221 279.5970955">
  <g id="Layer_1-2" data-name="Layer 1">
    <g>
      <path d="m4.0798692,72.9370255c-1.19714-.4011979-1.6814145-1.5164647-2.1377873-2.6345962-.4196747-1.028218-.5594491-2.1250399-.7167846-3.218816-.1835651-1.2760101-.2570359-2.5592511-.3777903-3.8391269-.0673686-.7140689-.0717881-1.4323231-.1604131-2.1397894-.1419682-1.1333283-.2335431-2.2713211-.3661398-3.402626-.1045992-.8924158-.0237377-1.7929997-.1688475-2.6632326-.2359818-1.4150337-.1263987-2.8270962-.1285286-4.2386794-.0019169-1.2661486.0363147-2.5413227.193959-3.795283.090233-.7177696.0389664-1.4421473.1634163-2.1401355.1536188-.8616228.0308302-1.7368077.1843638-2.5745864.1533419-.8368148.0250689-1.6765157.1667815-2.4900401.220817-1.2675544.0156441-2.5468232.1797845-3.7983607.162788-1.2413247.0219486-2.4870104.1735972-3.7114237.2830206-2.2850163.0632473-4.5713.1502748-6.8546071.0538118-1.4118761.137325-2.8229961.1670051-4.2353036.0299463-1.4242721-.0038658-2.8498168.0192543-4.2743339.0078167-.4814949.1222028-.9603328.1549606-1.4426212.0309687-.4558137.1205415-.9159032.1372186-1.3556628.0393711-1.0377279.3049266-2.0337525.4224968-3.0541857.1258236-1.0921361.3197719-2.1846929.6523978-3.2454397.1888792-.6023532.5641988-1.0358669,1.0530525-1.3928189.2595598-.1895208.5535919-.2666417.8843541-.276764,1.2151589-.037196,2.3676137.1572449,3.5126991.6102259,1.860347.7359376,3.7659969,1.3666132,5.7175994,1.814714.72868.1673087,1.5050697.391632,2.2671678.0333355.4598658-.2161978.966632-.3565446,1.3833249-.6344428.4988323-.3326791.948645-.750972,1.376211-1.1759342.963139-.9572977,1.9707182-1.8634966,3.0501815-2.6845236,1.2191951-.9273088,2.6268647-1.2957276,4.1261198-1.073598,1.1385892.1686931,2.2519497.5150089,3.3295173.9372102,1.2119641.4748523,2.4050892.9981944,3.620163,1.464623,2.2168384.850976,4.3782143,1.8491917,6.6590347,2.5301195.4037537.1205361.8196159.2393737,1.2364259.2699244,1.1709316.0858348,2.0943906-.5018754,2.905306-1.243183.7863257-.7188372,1.5917778-1.4087292,2.4187845-2.0800218,1.4588829-1.1842035,3.4468107-1.2048848,4.903223.2022682.271828.2626348.5389702.5301737.805761.7979549.9235655.9269574,1.8330098,1.868422,2.7720064,2.7794371,1.3309188,1.2912521,2.6465129,2.6023203,4.0396992,3.8239115.8966756.7862298,1.8034043,1.5943017,2.9188202,2.088576.3857455.1709242.782002.3181053,1.1504207.4668359,1.0288143-.4477574,1.8569818-1.0934194,2.6529985-1.7981594.5782774-.5119471,1.1699199-1.0205077,1.8112529-1.4468597,1.0550653-.7013961,3.3275046-.6541816,4.3137636.4434231.9736181,1.083542,1.7022129,2.2769068,2.3020449,3.5855096.4726026,1.031088.896207,2.0887092,1.168461,3.1747059.2621902,1.0458908.6126752,2.0579588.9153867,3.0873908.0555477.1889324.1430971.3684507.2378774.6079149.2770249,0,.5622287-.0001917.8474324.0000319,1.628412.0012673,3.2591775-.0507235,4.8845118.0206706,1.3241351.0581781,2.6511029.1042158,3.9711911.191648,1.1630936.077017,2.3485511.1276447,3.4863203.3589673.7330676.1490341,1.4715878.0624006,2.201993.2697407.676242.1919622,1.4190219.1704396,2.1342836.1994062,1.296063.052486,2.5445229-.2677333,3.7920456-.5582085.7674867-.1787036,1.5234081-.4070178,2.3276143-.6247251.16692.0437055.3832322.1003447.6172226.1616165.0383594-.1004193.0993384-.1796674.0913938-.2512851-.118124-1.0664389.316034-2.0066389.6641442-2.9674829.6474671-1.7870733,1.7280059-3.3275099,2.8066492-4.8625153.5098545-.7255917,1.116811-1.3835592,1.6883047-2.0650194.3510495-.4185831.6807148-.8655152,1.0848412-1.2272621,1.5149098-1.3560489,3.0159328-2.7342088,4.9177169-3.564341,1.0515723-.4590112,2.1223988-.8010299,3.2831495-.8033728.196419-.0003967.3929871-.0506835.5890653-.0805633.1118408-.0170392.2269191-.0694.3336269-.0548901,1.5688175.213365,3.167773.2923256,4.6170182,1.0416576,1.2129971.6271772,2.4273147,1.2521259,3.6490869,1.8619711.6092355.3041145,1.2272461.598554,1.9347123.6048905.0749297.0006709.1491779.079091.2153325.1166597.9557269-.1883014,1.6404246-.7987749,2.2903198-1.441282.8820325-.8719954,1.8813585-1.5938837,2.8728463-2.3266318,1.1019443-.8143684,2.3148136-1.4464124,3.5041262-2.119606,1.434698-.8121001,2.8320588-1.6899207,4.2611126-2.5122816,1.3052216-.7510892,2.6470561-1.4701022,4.1182817-1.7988915.9807532-.2191849,2.014477-.5217074,3.0384671-.0891681,1.6911161.0986142,2.9925039,1.02239,4.2364058,2.038188.9140875.7464753,1.7731384,1.5600849,2.680964,2.3145979.5658282.4702731,1.1525293.9301868,1.8711988,1.0548842,1.5615546-.2861888,2.9016638-1.0499136,4.3168093-1.6207737,1.7006368-.6860129,3.4414434-1.2612845,5.2278298-1.6853761,1.018708-.241839,2.0209518-.5462784,3.0555275-.7316539.5836128-.1045672,1.1502929-.2888938,1.7526062-.3135021.3366088-.0137511.6697458-.1538664,1.0048636-.1555916,1.9468102-.0100265,3.6977764.5517788,5.2073828,1.8172805,1.1396222.9553462,2.2667844,1.9296033,3.554264,2.6908441.1715844.1014496.328643.2554145.5133901.30195.9548537.2405105,1.272549,1.0019776,1.4729935,1.8225227.087134.356683.0962713.7743982.0008094,1.1264168-.4065759,1.4990341-.3341807,3.0249955-.3334778,4.5483503.0014696,3.1695675-.0186579,6.339545.0293074,9.5084628.0151649,1.0030905.0905206,2.0160584.2009557,3.0112417.0732045.6593839.0804249,1.3148807.1291995,1.9711868.1759933,2.3688491.0793173,4.7484541.22677,7.1130167.0901159,1.4448682-.0134609,2.8929685.1484538,4.3236996.1172934,1.0363861.0277951,2.0827401.185301,3.0983917.1297959.837113.0298398,1.6734487.1584643,2.4909453.1717974,1.0922054.0387854,2.1965192.1825534,3.2750186.2929459,2.1973232.2004232,4.4011213.1089229,6.5901698-.0937154,2.2420723-.9202855,4.3094985-2.1835268,6.1857984-.8644396,1.2839652-1.8237235,2.4912329-2.7939976,3.6961896-.7861659.976355-1.6749076,1.803777-2.7001118,2.5080804-.785889.5398967-1.642235.9149181-2.5783882,1.0450761-.3786103.052651-.8055267-.0357184-1.1739348-.164396-.5616749-.1961634-1.1108473-.4358087-1.5597655-.8665056-.7538128-.7231955-1.4227279-1.4981156-1.8168013-2.4834375-.0834919-.2087937-.2295176-.3925718-.3547342-.6011632-.6446343-.1655462-1.197321.094365-1.6995292.4017729-1.1933807.7304478-2.4052916,1.4293626-3.6864027,1.9849779-1.191336.5166808-2.4414998.8510319-3.728809,1.0917527-1.5397231.2879193-3.0800213.3796859-4.6331841.3245429-.9141727-.032449-1.8021689-.2379839-2.6060556-.7034727-.8579008-.4967556-1.5732477-1.155852-2.1294274-1.9769908-.639906-.9447047-1.2601956-1.9026894-1.8982272-2.8486614-.1890709-.2803263-.409366-.5395666-.6128989-.8052924-.7564539.1730008-1.2878203.6076487-1.8400811,1.0056837-.9475055.6829086-1.8774607,1.3940382-2.9405131,1.8974285-1.1081423.5247212-2.2780942.8344294-3.4902606.9994218-.308558.0420122-.6221213.0825867-.9183047.1731818-.8225871.2516153-1.6626607.1266756-2.4942999.1337575-.3937752.0033546-.7963468-.0737051-1.181219-.1694545-.9585171-.2384951-1.9560539-.3062577-2.88586-.669618-.5252111-.2052474-1.0683558-.3681632-1.5832369-.5957426-1.6251533-.71835-3.0682217-1.7378354-4.520044-2.7470121-1.0226909-.710906-2.0441251-1.4425786-3.2827448-1.7601887-.1356105-.0347706-.2645544-.1277086-.3984609-.1318086-1.2383428-.0378483-2.4651204-.2563223-3.7121532-.1915309-.6513861.0338121-1.3091406-.0553453-2.0349878-.0925866-.1100091.4407394.0432795.968911-.0564635,1.4649531-.0989337.4920273-.3010821.9632987-.480398,1.512322.6285323.2520732,1.2914199.5427508,1.9716234.7848347.9855668.3507619,1.8729241.8979003,2.5981963,1.6097541,1.0046507.986046,1.6783794,2.2102676,2.027235,3.600536.3106879,1.2382044.4580341,2.4994649.317887,3.7555604-.1535442,1.3759448-.2741389,2.7674058-.7292551,4.097068-.2290277.6690642-.41927,1.3529738-.5915573,2.0390985-.0687743.2739472-.0418099.571941-.0628106.9349392.6904484.1823297,1.3651356.3792599,2.0488961.5367018,1.0464605.2409764,2.0895771.4892691,3.092609.8799878,1.5147181.5900238,2.6612199,1.5409798,3.091395,3.1830338.0716923.2736703.1446838.5519093.1691776.8322036.1294764,1.4822479-.2599112,2.8800667-.6619717,4.2876724-.2700921.9455993-.6621421,1.8834351-.5537091,2.924294.5048706.3476842,1.0570461.6082025,1.6264951.8695087,1.3703964.6287666,2.6975346,1.3279476,3.8615867,2.345761,1.6156752,1.4126642,2.5565994,3.1717879,3.0430676,5.2046565.252414,1.0548736.3807189,2.1339961.3768851,3.2298595-.0029819.8599029.1870688,1.7277503.1211698,2.5788887-.2871952,3.7086814-.0290305,7.4221764-.1616378,11.1306875-.0224704.6282767-.2059396,1.272304-.1115853,1.8773223.0985503.6319401.0983373,1.2578101.1490501,1.8885468.1030444.2001357.2260672.3967357.3095591.6088947.2898575.7365393.8247596,1.2577568,1.5139727,1.5832476,1.0764281.5083636,2.1731542.9777714,3.2795713,1.4176694,2.0292584.8068579,3.4696645,2.1644216,4.1458426,4.2748184.2870248.8957917.5120909,1.8008697.4974372,2.7520067-.0094141.6104921-.0041107,1.221293.0012353,1.8319023.0100531,1.1481204-.2000398,2.273664-.3142023,3.4091542-.0944822.9397101-.3104962,1.8547135-.4113681,2.791463-.1091359,1.0131489-.3453413,2.0131884-.5390767,3.0164439-.1231293.6375631-.2698791,1.2705682-.4249143,1.9938383.1271761.0508193.2956083.1748645.4654888.1769092,1.1831785.0141851,2.3105112.2865988,3.4095375.6969446,1.7202744.642334,3.0277111,1.7460036,3.6488314,3.5058727.251349.712152.4007612,1.4863692.4419321,2.2407784.0695837,1.2755734.0742269,2.5614555-.004771,3.8361131-.0579119.9339381-.0630449,1.8844681-.3179722,2.8013244-.030138.1083691-.0011714.2319457-.0096697.3477481-.0606807.8296584-.0454946,1.6751632-.2109662,2.4836078-.1355253.6619717-.0200423,1.3362755-.1768666,1.9641475-.1731818.6933663-.0847273,1.3742941-.147048,2.0205898.1401898.3380997.3956708.339335.6670195.3358633,1.0075047-.0128646,1.9875764.1723299,2.9192994.5368403,1.2885232.5041251,2.1829517,1.4363806,2.692934,2.7205588.3824654.9631816.5796299,1.9652977.524636,3.0077114-.0590833,1.1201975-.0736518,2.2452938-.1931603,3.3590803-.1249184,1.1641799-.2037033,2.3384554-.3732217,3.4901328-.2004445,1.3622176-.0600631,2.7124439-.1435976,4.0643528-.0246216.3988656.1225329.7231849.3540313,1.1065023.7903618.1868558,1.6119479.3798244,2.432895.5755192,1.7116057.4080029,3.4106451.8820325,4.9448731,1.7562484,1.5745256.8971974,2.8479692,2.0952,3.4914107,3.8788601.3213587.8907864.5123465,1.7881542.6821631,2.7146164.2173772,1.1862882.0911595,2.362502.1262815,3.5416976.0125025.4209739-.1207438.8444399-.1573354,1.2693328-.0342061.3973108-.08592.7905961-.1384006,1.1838601-.1322239.9904442-.3256824,1.9666608-.5580541,2.9324621-.4886833,2.0311753-1.0536809,4.039646-1.8500277,5.9799813-.5900451,1.4376798-1.0986004,2.9086073-1.6586565,4.3588748-.1841508.4768624-.422827.9324259-.6211416,1.4042404-.0501591.1193168-.0411709.2634681-.0659842.4446371.3165025,0,.5816107.0467512.8239077-.0078167,1.2903762-.2905178,2.6014763-.2188681,3.8879548-.1073042,1.1316138.0981243,2.2229086.4746473,3.0728862,1.3359986.3755007.3805485.6124303.8233113.7766027,1.3167017.3976303,1.1947226.4261496,2.3896155.0811064,3.6111535-.5712168,2.0221659-1.446455,3.8855906-2.759259,5.5322345-.7512782.9422873-1.4930784,1.8941378-2.2855062,2.8011327-1.1393453,1.3040714-2.3154952,2.5762157-3.4863629,3.8524281-.8409468.9166008-1.7653004,1.7652791-2.5323186,2.7389185-.9405195,1.1938493-2.1324732,2.1133893-3.2213825,3.1363145-1.7751192,1.6675169-3.6627396,3.2109034-5.6213068,4.6746532-1.9672146,1.4701607-3.9466973,2.9205986-5.9608335,4.3236889-1.799826,1.2538272-3.6244441,2.472149-5.4406277,3.7024621-1.4400227.975535-2.8795555,1.9518793-4.3269264,2.9163814-1.733352,1.1550639-3.4757986,2.2964113-5.2122815,3.4467468-.9984314.6614179-1.9896424,1.3336983-2.989735,1.9925177-1.9992269,1.3169147-4.0267388,2.5868226-6.1050061,3.7778605-1.7297525.9913601-3.3963109,2.0956473-5.145701,3.049223-1.5430032.8411172-3.1004683,1.6680707-4.7991882,2.1950495-1.1251602.3490261-2.2496388.4712821-3.3616362.1274104-.9455673-.2923708-1.7348003-.8778792-2.2672743-1.7538203-.4713247-.775346-.6743251-1.5997862-.7113001-2.5189428-.0545466-1.3565947.3457673-2.5961729.7774546-3.8311718.7077005-2.0245727,1.6897956-3.9136626,2.9732922-5.6395387.048945-.0657925.0766763-.1473888.1345881-.2616151-.1489862-.0939284-.2780153-.2356943-.4258514-.259187-1.5920547-.2530103-3.0587863-.8588167-4.4424945-1.6468995-1.8447242-1.0506138-3.0674123-2.6371946-3.6911737-4.6630026-.21644-.7029083-.387918-1.423729-.3722419-2.1766046.0205535-.9882718-.0420867-1.9809098.0299037-2.9644532.0470068-.6422488.1132253-1.2937414.2939469-1.9283653.131159-.4605048.0686252-.9521061.19086-1.4378715.3446172-1.3693953.6055933-2.7608777.8669529-4.1497829.1108398-.5890653.1479-1.1927631.2047043-1.7911148.0622569-.6557737.1858121-1.3177667.1463878-1.9687694-.09297-1.5355272-.5728781-2.926115-1.5915435-4.1400706-1.1787271-1.4046451-2.528719-2.6347453-3.8113424-3.9325335-1.8607411-1.8827642-2.9840908-4.1532333-3.6228892-6.6824423-.1522663-.6028458-.0945674-1.2562127-.2157798-1.87007-.1637038-.8289981-.2122015-1.6654083-.1349502-2.4911051.1008932-1.0783664.1151422-2.1627177.297866-3.2388903.1279216-.7533868.2393151-1.5124605.356715-2.2693403.179678-1.1582162.5254666-2.2645906.8946415-3.3660451.5581393-1.6651953,1.1424975-3.3299433,1.978077-4.8740753.7714057-1.4255607,1.6858553-2.7738062,2.5402205-4.1543196.1909878-.3086219.394116-.6097253.6191182-.9566002-.6111098-.4252763-1.1393027-.8537901-1.7223191-1.1861604-1.313656-.7488714-2.4786026-1.6832994-3.4498139-2.8262016-.9827979-1.1565122-1.709987-2.4704238-2.0743483-3.9715745-.1889218-.7783279-.3775028-1.5473482-.3512199-2.3555372.0054099-.1665792-.064621-.3343511-.0731619-.502911-.0170605-.3375033-.0282424-.6763698-.0169327-1.0138305.0065388-.195993.0888806-.3901757.090478-.5855297.0172735-2.1212699.5209087-4.1581108,1.0672057-6.1868793.5395666-2.0039127,1.3818552-3.8868259,2.2189683-5.781624.7156451-1.6198498,1.6575277-3.1055375,2.461819-4.7021288-.147474-.1267501-.2794211-.3084941-.4561598-.380868-1.0481005-.4293231-2.1180964-.8065916-3.1581672-1.2537846-.9157701-.3937113-1.7758647-.8763031-2.5589423-1.5270076-1.4077761-1.1698028-2.1274466-2.6998349-2.5000932-4.4234532-.1083904-.5012497-.0209369-1.0435426-.0357184-1.566645-.0467512-1.6540772.3157358-3.2208714.9832452-4.726431.0533113-.1202113.0524167-.2644479.1052169-.5537943-.2102633.1896459-.3214226.2617216-.3958199.361273-1.0511037,1.406775-2.5413067,2.2981791-3.9056755,3.3371637-.2043209.1555889-.432944.2880684-.6077019.471772-.3627852.3813579-.4723044.8151964-.2643201,1.3379581.5112815,1.285158.9707001,2.5911889,1.4927589,3.8717889.5059994,1.2412395.8942581,2.4942147,1.0655657,3.83967.1215106.9545342.1637677,1.8986532.1101369,2.8432621-.1185287,2.088363-.7384988,4.0432455-2.0547107,5.6760025-.975535,1.2101643-2.1254445,2.2862304-3.4750851,3.1033011-1.2183644.7376043-2.4439705,1.4638136-3.6794167,2.1723022-.3582485.2054498-.6545277.4526455-.9449497.8259737.2914869.6368389.5474365,1.2979373.8847482,1.9145422,1.1735727,2.14521,2.1727602,4.365584,2.8062764,6.7281924.2335644.8710423.2209874,1.8051508.4000264,2.6945527.1959078.9732773.0598394,1.9606971.189827,2.9222386.1595292,1.1799624-.0042278,2.3441423-.0710746,3.4992275-.0892639,1.5423855-.476724,3.0650482-.9350882,4.5515452-.4396425,1.4257311-1.1651596,2.7193873-2.0363297,3.9132367-.8318841,1.1400481-1.7524039,2.2166041-2.7901425,3.1859198-1.1851167,1.1069922-2.3629066,2.2223548-3.5208672,3.3575255-.2581966.2531168-.4419534.5919407-.6225686.9123836-.3615498.6414608-.076229,1.2649239.0863353,1.8926043.3664486,1.4150603,1.0804217,2.6784081,1.7136824,3.977666.7962723,1.6336941,1.5898928,3.2694969,2.076212,5.0304736.195418.7076367.3551389,1.4231539.5059994,2.1432718.2479518,1.1835619.1298917,2.3623955.1236724,3.5398659-.0033865.6409922-.1768666,1.2912708-.3429133,1.9190576-.3267154,1.2351906-.7897441,2.4217344-1.3597789,3.5691094-.4610905.9280809-1.0863641,1.7386128-1.7150562,2.5492086-.263777.3401018-.5412066.6717053-.83526.9858011-.8888908.9494437-1.9629867,1.6747372-2.9991918,2.4450993-.1824043.1356318-.3725295.2608484-.5297264.3704102-.1655036.6576693.1259088,1.1726568.3626361,1.6765902.4601853.9796031.9707427,1.9356069,1.4632173,2.8999599.8948439,1.7522229,1.4750275,3.6196731,1.9448932,5.5174743.2925625,1.1816663.2839258,2.415153.1714886,3.6155624-.1559723,1.6650675-.5402481,3.2920738-1.3001205,4.8070049-.6077658,1.2116126-1.3404607,2.2920663-2.4365158,3.1584867-1.4875407,1.1759156-3.165707,1.8782488-4.9574608,2.3702974-.431698.11855-.8905841.1381451-1.3484478.2049386-.1388586.4956055.1724896.8247383.3593987,1.1357032.9681229,1.6107765,2.0039553,3.1808293,2.9747938,4.7900296.7820552,1.2962973,1.4221316,2.6876306,1.6290403,4.1834992.1919888,1.3880106-.2777171,2.6052249-1.4402357,3.5504302-1.0749479.8740454-2.3468792,1.2464364-3.6034113,1.6735658-.8274433.2812315-1.677964.5209513-2.5368127.675816-.8253986.1488584-1.6587417-.0136526-2.4704557-.2181439-1.3852205-.3490261-2.6915815-.8953444-3.8788708-1.6868563-.8085724-.5390341-1.5819377-1.1343613-2.344515-1.7380377-.9663871-.7649948-1.9069279-1.5627047-2.8557859-2.3497226-.1338959-.1110741-.2477069-.2459604-.37795-.3618267-.9901993-.8809676-1.9791313-1.7634261-2.9744637-2.6385791-.9738204-.8562182-1.9460221-1.7146728-2.9351139-2.5530638-.9182195-.7783492-1.8582278-1.5310119-2.7872245-2.2966882-.0895302-.0737796-.1694758-.1592523-.2530529-.2401458-1.9591529-1.8960121-3.9139502-3.7965609-5.879152-5.6863112-.9383257-.9023091-1.8888237-1.7923288-2.8475112-2.6729769-1.2332204-1.1328491-2.4773034-2.2539199-3.7221956-3.3739257-.9636289-.8669742-1.9532957-1.7058337-2.8969994-2.5937448-.5232303-.4923042-.9792197-1.0566414-1.4597136-1.593716-.9420104-1.0529567-1.8793244-2.110088-2.8203338-3.1639605-.1160687-.1300302-.2475898-.2462586-.3637649-.3762248-.9223728-1.031679-1.84154-2.0662547-2.765031-3.096954-.1550458-.1730328-.3257143-.3321147-.4900039-.4968195-1.5076149-1.5112251-2.8665632-3.1483271-4.1632545-4.8426168-.8018952-1.0477597-1.6903387-2.0291306-2.4959825-3.0741641-.9326069-1.209717-1.9721985-2.3243981-2.9626534-3.4827421-.55602-.6502573-1.0734037-1.3429633-1.5307137-2.0655732-.4469693-.7062948-.7537276-1.4851552-.5961792-2.361863.0157825-.0540994.0287323-.1091998.0477416-.1621064.455819-1.2681827,1.462344-1.904979,2.6605809-2.3253566.5324208-.1867919,1.0618703-.3821885,1.5907767-.578714.1091891-.0405958.2099439-.1037898.2868863-.1426178-.6320679-1.0075473-1.2193868-1.8805917-1.7402741-2.7916121-.5363504-.9380914-.7016623-1.9243611-.4763299-3.0316727.2405292-1.1819858.9090716-2.0571388,1.6160906-2.9564022,1.1169707-1.4206619,2.487005-2.591764,3.7414073-3.8762617.5636344-.5771592,1.2235081-1.0616041,1.7754281-1.6485608.7080839-.7530034,1.3565308-1.5625982,2.0207708-2.356091.4156492-.4965214.5447103-1.1238822.6638992-1.7278994.1114681-.5648484-.1456849-1.1173435-.2579624-1.6707969-.3206239-1.5803402-.9580166-3.0643879-1.419203-4.601257-.4081839-1.3601942-.7600108-2.742092-.7412784-4.1901657.0097762-.7563687.2418497-1.4572749.4259047-2.1681915.434552-1.6785072,1.2772667-3.1466019,2.3692324-4.4896504.988325-1.2155956,2.0753387-2.32197,3.2954923-3.3046189.5837619-.4701106,1.1208045-.9977072,1.6916806-1.4844097,1.0708904-.9129799,2.1519511-1.8140537,3.2269309-2.722284.790021-.6674668,1.5639507-1.3547417,2.3693815-2.0029542.7128655-.5737088,1.4456882-1.1250537,2.1940378-1.6516705,1.2132207-.8537049,2.4682726-1.6492637,3.6635063-2.5268021.8201058-.6021003,1.4505018-1.393591,1.842786-2.3999881.2247786-1.1132966-.4099411-2.0058509-1.0133832-2.8576389-.8190728-1.1561289-1.824224-2.1550714-2.9602253-3.0185951-.5030601-.3824015-.9583148-.8275924-1.4358694-1.243625-.4121349-.3590366-.8471874-.6951342-1.2318147-1.081476-.4259686-.4278748-.8127577-.8956852-1.2049674-1.3560196-.8570595-1.0059925-1.5791049-2.0938582-1.9812825-3.367749-.4680234-1.4824502-.3281957-2.9233249.3122747-4.3256697.6695541-1.4660287,1.5919482-2.7710586,2.6118702-4.0063131.7698616-.9324259,1.5857502-1.8267479,2.3766232-2.7419216,1.0341178-1.1967034,2.0581718-2.4021393,3.0975504-3.5942208.5880323-.6744103,1.1891316-1.33799,1.8002307-1.9915806.9110204-.9743529,1.5956542-2.0851576,1.9708673-3.3626266.264384-.900126.3562145-1.7925418.1963338-2.7715485-.2742348-1.6793698-.7742704-3.2991237-1.0918273-4.9611774-.2774083-1.452014-.3433179-2.949086-.1600084-4.3995026.2812741-2.225752.9386132-4.359599,2.158426-6.2936404.5322291-.8438648.9821164-1.7379526,1.6291042-2.508485.4417298-.526063.8467295-1.0836911,1.3002376-1.5989662.6105986-.6937604,1.2206647-1.3932608,1.8878653-2.0307281.9365898-.8948332,1.9354685-1.724055,2.8894595-2.6011888,1.1077696-1.0185376,2.1957843-2.0585658,3.2922122-3.0894355.0211605-.0198932.0440995-.0394244.0598501-.0633005.7862085-1.1910805,1.0565243-1.2466707.1699444-2.577302-.6325578-.9493799-1.2979693-1.8776844-1.9064912-2.8420374-.7025569-1.1133925-1.1567785-2.3274332-1.4291176-3.6236347-.1326606-.6314396-.1473888-1.2529113-.1547156-1.8842658-.0167303-1.441503.4774907-2.7474807,1.1553301-3.9757491.6331116-1.1471833,1.3172661-2.2706076,2.1575953-3.2881122.3082386-.3732217.5634427-.7905961.8754512-1.1603248.4646581-.5506314.940019-1.0946601,1.4431643-1.6099352,1.187662-1.2162558,2.5233198-2.257743,3.8998503-3.2505515.7414913-.5348062,1.4749956-1.0826261,2.1869346-1.6558238.5882027-.4735504,1.0317962-1.0761726,1.3672654-1.7680693v-.8281888c-.6558589-1.0494424-1.3331978-2.1375956-2.0150094-3.2229587-.6277869-.9993579-1.0442028-2.0678521-1.1234882-3.2582936-.0244086-.3664806-.1847046-.7389568-.142948-1.0921681.1828942-1.5472523.4274701-3.0609801,1.3015369-4.4367864.7683919-1.2094615,1.5426624-2.4030765,2.57399-3.626542-.4513356.1588796-.7705325.2850866-1.0979614.3840628-1.2965529.3919754-2.5926905.7860168-3.895665,1.1556922-.4071296.1155149-.8336732.1679317-1.2541786.2299862-1.4753364.2177393-2.9514182.4109315-4.4507053.3613156-1.544771-.0511069-3.0524179-.3099851-4.5214391-.7734291-1.5593288-.4919314-3.1260271-.9713604-4.6525662-1.5532054-1.4169666-.5400777-2.7025612-.3072907-3.8837376.5033796-.9655777.6626958-1.8566197,1.4384466-2.7523155,2.1975522-1.5762508,1.3358921-3.0057625,2.8477881-4.7959508,3.9250043-1.2085775.7272423-2.4605517,1.2912921-3.9082633,1.3030704-.3358633.0027263-.6885208.1902317-1.0032236.1312974-1.031104-.1930964-2.0998538-.1530756-3.0981361-.5696513-.9502212-.3965227-1.8302835-.897634-2.6860012-1.4636858-.9945975-.6579036-2.0259464-1.2489923-3.1750999-1.6202651-.9814667-.3170883-1.9153409-.2027129-2.835669.1846194-1.5360704.646498-2.8982134,1.5846959-4.2436368,2.551232-.4625495.3322851-.9413608.6428133-1.4214713.9496354-.8731615.5579902-1.8144691.8495516-3.0333447.6419933ZM60.7349542,18.5426228c.0488598.2256838.1562172.2186764.3868211.0386363-.1915628-.010724-.2966413-.0166025-.4017197-.0224864-.0598714-.0906377-.0988272-.224523-.1828835-.2651827-.7879337-.3811768-1.391738-1.0104546-2.0311647-1.5708196-1.218439-1.0678021-2.3743122-2.2084306-3.5339128-3.3415992-1.3513445-1.3205781-2.6731473-2.6713582-4.0194333-3.9971892-.5717493-.5630673-1.2600145-.9614484-1.9602179-1.3191804-.3693666.2952329-.7202243.5484322-1.0397407.8364075-.8103189.7303254-1.6402436,1.4345356-2.5581968,2.027456-1.9423054,1.2545673-4.0522443,1.4860923-6.2492427.9218669-1.2285986-.3155281-2.4069848-.8072519-3.5603022-1.3401758-1.3673293-.631815-2.7191211-1.2971865-4.0847785-1.9326969-1.0810926-.5030841-2.1543685-1.0313649-3.2655459-1.4589575-1.0041608-.3864137-2.0218251-.8322808-3.2097107-.549609-.9799226.6481726-1.8819868,1.4927616-2.7597489,2.3720412-.5905882.5916106-1.2161706,1.1535304-1.8660338,1.6793724-.7539619.6100661-1.5815117,1.10294-2.4995608,1.4531535-1.2541999.4784598-2.5721476.5305358-3.8279556.2962845-1.4898197-.2779035-2.9227711-.8550734-4.30977-1.5017737-1.4672321-.6841253-2.9379999-1.3607187-4.4097261-2.0351236-.0996365-.0456543-.2203484-.0453002-.3560228-.0710427-.0927144.1848537-.2312428.3511586-.2590912.5342924-.1923509,1.2649399-.362881,2.5332238-.534114,3.801284-.0076357.0565328.045846.1213189.0743653.1907961.1891135-.2886009.359601-.5487624.5297158-.8092859,1.2241151-.6172332,1.8191335-.3814165,2.357124.945988-.0618948.1740338-.1275808.358749-.1890815.5317019.0958134.2066851.1756419.3881895.2635214.5657164.0760905.1537146.1652906.3009224.2419029.4543973.8702755,1.7435063,2.4112872,2.6077222,4.2203251,2.8426178,1.8465985.239773,3.7016315.0059158,5.4903714-.6272171,1.5828322-.5602585,3.071555-1.3228411,4.5936213-2.0150414.308771-.1404187.6178189-.2849588.9379636-.394888,1.5538337-.5335283,2.9116105-.2192142,4.0624146.9631816.3852236.3957933.7791799.7830776,1.1649147,1.1783809,1.2709835,1.3025379,2.8390236,1.5217149,4.5217905,1.1745631,1.7976535-.3708468,3.418941-1.1738869,4.9863102-2.1183413.4527094-.2727811.8481885-.5779792,1.227065-.930099.2814551-.2615779.4341687-.592601.6149116-.9212865.2139481-.3890681.5773616-.6602252,1.0585583-.6277709.4272465.0288228.8440778.2471691.9593691.632643.2863645.9574735.8501373,1.7330538,1.4415562,2.4987727.6616522.8566442,1.2382576,1.7872437,2.1548903,2.4237418.8522992.5918395,1.7083683,1.0704964,2.8114627,1.0903896,1.1581949.020889,2.1921529-.3363638,3.1916279-.8032903,1.3391508-.625625,2.6420508-1.3314086,3.9430978-2.0349825.7017475-.3794836,1.4155928-.6115943,2.2794999-.4739551.1419469.0841096.3362573.2028087.533901.3157145.7155066.4087057,1.4303317.8187001,2.1492248,1.2213782.2816894.1577827.5852741.234017.9116274.171217Zm-5.9376922,90.0042726c-.4303242.5916212-.7955268,1.1686526-1.2348072,1.6823516-.9801781,1.1462248-2.2193623,2.0127411-3.348729,2.9974027-1.0166739.8863882-2.0923672,1.7064833-3.0891799,2.6138723-.9451946.8604141-1.8333612,1.78497-2.7237217,2.703509-.4399513.4538702-.8912124.9176231-1.2284708,1.4463698-1.0855122,1.7017656-2.0439547,3.4485785-2.3811173,5.5019474-.1907854,1.1618796-.2023188,2.3151011-.0899242,3.4473432.1157705,1.1662778.5530914,2.2971142.7870924,3.4560971.2810611,1.3920255.6659546,2.7744664.5726012,4.2195583-.0130989.2027342-.0040468.4070018-.0026837.6105453.0077635,1.1586847-.3006348,2.2457091-.7861979,3.2820846-.5999704,1.2805148-1.4756772,2.3787318-2.3974003,3.4351602-.7602131.8712659-1.5789345,1.6912546-2.3473477,2.5556303-1.1666399,1.3123141-2.2937383,2.660091-3.4729232,3.9608611-.8312984.9170267-1.5423642,1.9156711-2.2519817,2.9247519-.5309937.7550694-.9355888,1.5455164-1.1961816,2.4268461-.1515421.5125169-.1625111.9968978-.0032374,1.5087544.2515194.8082742.6649322,1.5072635,1.2637419,2.103464,1.6897956,1.6823623,3.3837339,3.3606564,5.0592592,5.0570973.546297.5531127,1.1052563,1.1124447,1.5467731,1.7466638,1.1631895,1.6709034,1.9514533,3.4399312,1.4730361,5.5851624-.2698046,1.2097383-.7858464,2.2427592-1.5905211,3.1527573-.8260802.9341511-1.8067695,1.6836402-2.8415795,2.3731727-1.3372339.8910633-2.6940629,1.7596136-3.9733104,2.7290997-1.7564613,1.3311424-3.5110484,2.6653093-5.2025266,4.0847572-1.3754975,1.1542758-2.7122735,2.3410113-3.9451105,3.6409507-.6106305.6438676-1.163051,1.3472231-1.7009989,2.0547107-.7265288.9554714-1.2754989,2.0134972-1.6104463,3.1698177-.1411163.4871498-.2737555.9733199-.2888778,1.4974873-.0395735,1.3721855.402561,2.6183238.8706269,3.8736419.7110338,1.9069172,1.6813719,3.7384148,1.7730639,5.8345307.3831044.7731736.009936,1.5287755-.1386349,2.2514066-.312509,1.5200429-1.1752553,2.7770862-2.2672317,3.8610542-.7998399.7939613-1.6588482,1.5281578-2.462852,2.3181362-1.6385184,1.6099884-3.2634373,3.2339702-4.8821583,4.8639157-.6892131.693984-.7377321,1.015577-.2615619,1.9017629.6462424,1.202731,1.3283416,2.3862077,1.9160864,3.4367576.1779315,1.2661806-.2222759,2.1523238-1.0939039,2.8049879-.3807509.2851292-.7726837.5615684-1.2536568.7157729-.5051687.1619573-.966845.4595251-1.4937174.7207355,1.1931039,1.1932103,2.3342169,2.3133227,3.449931,3.4581844.6650281.6823548,1.3159989,1.3819617,1.9272471,2.1123457.9374737,1.1201762,1.8164712,2.2892974,2.7548395,3.4086856,1.0907623,1.3011961,2.1736441,2.614064,3.3424991,3.8433548,1.3549121,1.4250069,2.6949574,2.8601309,3.9845882,4.3447323.8152496.9384961,1.6854719,1.8292612,2.5311684,2.741304.0395309.0426405.0823844.0823631.1201794.1264519.6361999.7420558,1.2288648,1.5273271,1.9163846,2.2182654,1.5127586,1.5203411,3.07836,2.9879459,4.6106924,4.4890327.3481635.3410815.6289476.7508096.9762059,1.0929561.4716016.4646794.9860567.8855256,1.4667422,1.3413872,1.3032514,1.2359361,2.6022963,2.4763662,3.8958141,3.7225045,1.87958,1.810795,3.749405,3.631707,5.6301884,5.4412241,1.0013919.9634159,2.0144663,1.9146913,3.0271147,2.8663076.9063772.8517667,1.8377488,1.677783,2.7244139,2.5494216.8852913.8702968,1.8340109,1.6609568,2.786117,2.4550246,1.1904095.9928084,2.4450887,1.8936692,3.7044216,2.7903129.3926357.2795489.8111177.5445505,1.2547004.7258047.7052299.2882175,1.432632.5847843,2.2223442.4352443,1.1697282-.2214879,2.3185622-.5424419,3.4059593-1.0227974.6844847-.3024239,1.455113-.5583735,1.7618393-1.4405126-.0203831-.4422729.0450792-.9577929-.0829062-1.4197248-.3271094-1.1805162-.8747589-2.2776256-1.5258043-3.3137561-.9240767-1.4706932-1.9568633-2.8749123-2.6955432-4.4575529-.3888232-.8330662-.7327375-1.6765264-.5886926-2.6111886.3349687-.8984114.8474856-1.6220436,1.7984416-1.9259798.3744038-.1196789.746848-.2766948,1.1318374-.3264066,1.4778177-.1907748,2.7659149-.8463781,3.9680708-1.6569739.5434962-.3664912,1.0487395-.868955,1.4049646-1.4177014.784036-1.2078214,1.1681947-2.5873551,1.2692583-4.0163236.0891042-1.2598335.00246-2.5138524-.3232543-3.7558586-.3534775-1.3479473-.8091688-2.6517205-1.4449002-3.8854628-.5608229-1.0883556-1.1866822-2.1432292-1.7847677-3.2123518-.5882986-1.0515723-.8817876-2.2086596-1.125469-3.3692612-.1225436-.5836767.0265279-1.1630723.3608257-1.7181445.3771513-.626232.96873-.9703593,1.5022689-1.3921639.8075075-.6383724,1.683768-1.1931677,2.4652801-1.8602299,1.3679044-1.1675877,2.4145353-2.5808802,3.1579649-4.2381736.7074237-1.5770389,1.027185-3.2309671,1.2043497-4.9253845.0535775-.5123252-.0781246-1.0227335-.1316915-1.5327158-.0870382-.8283166-.3061726-1.6079863-.5316114-2.398838-.4286416-1.5036853-1.0794207-2.9128032-1.7385276-4.3225175-.5898215-1.2614948-1.2035936-2.5171111-1.6936614-3.8179238-.2906137-.7714057-.5014095-1.5674544-.3056294-2.4766644.2093368-.972191.6102472-1.7809552,1.2806213-2.4524475,1.1661607-1.1680989,2.392214-2.2761773,3.5715055-3.4315181.4930283-.4830178.9071653-1.0463966,1.3987879-1.5310332.8273262-.8155798,1.4400014-1.7777177,1.9919533-2.7837528.6584148-1.200026,1.1302719-2.4683152,1.4694472-3.8000966.3602293-1.4144639.5461586-2.8445613.6119511-4.2938917.0599992-1.3218987-.131159-2.6241171-.3202618-3.9306166-.1104777-.7632695-.3220083-1.4883713-.5164678-2.2260821-.416384-1.5796587-1.2403023-2.9830898-1.8933924-4.4592781-.4241475-.9587514-.9264622-1.883467-1.4079784-2.8161059-.4292912-.8314688-.715464-1.6857701-.5247531-2.6060769.4526136-1.2655203,1.4696815-1.8883019,2.5918385-2.386868.6206091-.2757363,1.274008-.4838272,1.8764384-.7929177,1.0918699-.5602691,2.1052318-1.244051,3.1013629-1.9695361,1.1357883-.8271877,1.8733074-1.9497707,2.4707859-3.1399992.5746672-1.1448617.7681683-2.4358556.7399898-3.7372859-.013035-.6016104-.03263-1.194254-.1440236-1.7958857-.1917971-1.036024-.3797605-2.0598224-.8849931-3.0007679-.5921963-1.1028815-1.2043923-2.1969664-1.7458332-3.3246612-.8466656-1.7633835-.30236-3.3488568,1.0364926-4.4734632.7866771-.6607789,1.630052-1.257661,2.440733-1.8926469.7885514-.6176698,1.3552954-1.3880106,1.955138-2.1527072,1.136832-1.4492238,1.9458304-3.0891799,2.7298238-4.7378046.4785663-1.0063652.7571993-2.0978091.6979882-3.214865-.0414478-.7824599-.2165891-1.5611925-.4467883-2.3263896-.4402708-1.4635154-1.1823053-2.7703664-1.9981193-4.0390922-.7544731-1.1733384-1.6723518-2.2427592-2.2907458-3.6944431.0447491-.5076927.0419377-1.1772148.1746302-1.8187289.204683-.9895603.8997107-1.7158655,1.5589774-2.420957,1.2831133-1.3722601,2.6911875-2.6119341,4.1165352-3.8399363.9516162-.8198928,1.9392703-1.6181246,2.7354255-2.6343619,1.0978123-1.4012692,2.1450822-2.8200888,2.8536986-4.4592035.6321744-1.4622375.6438889-2.9066904-.0916494-4.3680759-.751193-1.4924501-1.8127971-2.767523-2.7615806-4.1191124-.7556445-1.0764068-1.4825567-2.1602364-1.9543074-3.3879297-.4005269-1.0423392-.4394614-2.0901096.0320549-3.1548339.4953286-1.1184616,1.2041154-2.077245,2.0186089-2.9652412.5695768-.6209712,1.1827952-1.2020175,1.7791021-1.7982925,1.4837495-1.4836856,2.5790059-3.1993701,2.9653477-5.283058.1734374-.9352693-.0410218-1.850656-.8607123-2.4540236-.4500896-.3313053-.9865039-.5540605-1.5020453-.7856121-.7666987-.344319-1.4636858-.7741427-2.0445085-1.3915889-.6496609-.6906188-.7013748-2.0134333-.0513092-2.714414.4479597-.4830604.9749173-.8937257,1.4733769-1.3289273.4115385-.3592922.8318735-.7085632,1.2503981-1.059783.8399245-.7048252,1.2900141-1.6739492,1.7386554-2.6310605.5704713-1.2170439.8430554-2.5203699.9211374-3.8581575.0349942-.5996403-.0717136-1.1962029-.1305626-1.7938197-.1041093-1.056897-.3707936-2.064849-.6952407-3.053781-.7572206-2.307934-1.9413789-4.4205992-3.1513515-6.5590041.0742695.7687966-.2875786,1.2188969-.8831614,1.6500624-.7169443.5190237-1.31159,1.1878856-1.7337567,2.0154248-.4949239.9701889-.5222292,2.0217825-.7151126,3.0462838-.030777.163608.0077528.3434564.0314586.5133901.0351859.2524033.1046631.50109.1254935.7541642.0349942.4252018.0631727.8418946.146047,1.269663.2304973,1.1900262.5994379,2.3028542,1.3303756,3.2769622.5087896.6780737.5090451,1.4540587.4232316,2.2318861-.0258356.2341395-.1896672.4852862-.3588875.6635159-.2314771.2438198-.5284911.4254148-.7441431.5924412h-1.7529257c-.2333727.1786663-.5441032.382082-.8145787.6295121-1.2079492,1.1049901-1.7129902,2.6062047-2.2239309,4.0878881-.2103059.6098318-.3138402,1.2590667-.4114746,1.9084188-.0685401.4559149-.1504559.9092313-.1063244,1.3575105.0663463.6738565.2178032,1.3391295.3276419,2.0089392.1331185.8118951.3458738,1.6004891.6905123,2.3490197.5694277,1.23682,1.1455433,2.4705622,1.7340335,3.7383189v1.0053855c-.350517,1.0332339-1.2067139,1.1288449-2.0907698,1.3013345-.219784.2745542-.4634015.592782-.7215023.8988161-.7897654.936462-1.1348086,2.087543-1.5341641,3.2071229-.4570331,1.2812389-.7460813,2.6111673-1.0322115,3.9387315-.143342.6651346-.2939257,1.3378303-.3353947,2.013593-.0586786.9560251-.0056442,1.9183441-.0253671,2.8774576-.0269219,1.3083419.3659587,2.5334048.8007131,3.7303638.2598899.7155279.4856589,1.4011095.3852556,2.1831434-.2885583.3835197-.4784172.9104347-1.1645632.9878245h-1.2788109c-1.3153386.6284365-2.4279537,1.4779561-3.4119337,2.497974-.2377709.2464822-.4221986.5442204-.658287.7925876-.9150033.9626385-1.6328102,2.0618778-2.1973392,3.2538208-.9448858,1.9950204-1.7186344,4.0586766-2.2361672,6.2067619-.2314239.9604979-.4456701,1.940282-.509748,2.9216316-.0631514.9673242-.0634816,1.9403885.1072403,2.9269457.2150982,1.2430073.5474578,2.4278365,1.0960871,3.5479914.6012909,1.2276721,1.2650304,2.4247375,1.9114752,3.6539964,0,.3035315-.005346.623346.0014057.9428837.0077741.3673006-.122256.6901396-.385032.9249393-.2519241.2251194-.5559881.3920819-.8381247.5831549-.423434.2867479-.9207114.5054456-1.256415.8722137-.6975942.762162-1.1734662,1.6912439-1.5184135,2.6574074-.5677025,1.5900952-.9022133,3.2349713-.8839068,4.9368221.007199.6687448-.0829488,1.3531229.0296482,2.0029329.2028726,1.1709529.6109607,2.2945583,1.0316258,3.4078549.3406236.9014572.7427267,1.7810403.6904484,2.7897165-.0255694.4933904-.1636186.8947267-.525062,1.223966-.1500512.1366967-.2943303.2797192-.4688647.4462132-.3675349-.1275595-.7312253.2891547-1.1315392.0047071-.2250342.1114575-.4677784.2038097-.6809917.3417844-1.5304794.9903378-3.1623418,1.8135-4.5647399,3.017658-.8167619.7013535-1.6327889,1.4096717-2.2972739,2.2326848-1.3295024,1.6466439-2.271385,3.5322835-2.9066371,5.5541724-.3810277,1.2126989-.7634825,2.4328737-1.0148848,3.6760727-.2371426,1.1727846-.4783107,2.3622464-.3748617,3.5796736.0220764.2598686-.0180935.5255305.0094567.7843555.060127.565104.095036,1.139899.2297306,1.6887733.4169378,1.6990181,1.263465,3.1672193,2.4753119,4.4314404.2509124.2617429.4381622.58455.5852848.7847176v1.1871614c-.3914323.4292379-.7384988.8994764-1.376637.9799439-.1011381.0127581-.1865682.1234275-.286897.1735652-.6755391.3373755-1.0307951.9909341-1.4473602,1.5547815-.8132901,1.1007942-1.4035376,2.3516608-1.8854904,3.6184377-.4080242,1.0724026-.8146533,2.164017-.9626172,3.3370785-.1029698.8164104-.235279,1.6342479-.3640951,2.4473357-.0911276.5751571-.0272733,1.1585143-.1599445,1.7059402-.146015.6024198-.1399874,1.1970655-.1516273,1.7989102-.0322679,1.668667.1862914,3.306834.5069259,4.9445749.2719877,1.3892673.5935062,2.7521451,1.0483668,4.0966633.5452321,1.6116284,1.1109218,3.2405516.8657495,5.0326035q-.3863738.6682336-1.0895057.9481871c-.1290504.0517991-.261104.1097322-.3716136.1919249-.7787006.5792039-1.5491373,1.1421141-2.1631437,1.9358625-.8138013,1.0520195-1.4211731,2.1936012-1.9329126,3.4040637-.5103657,1.2071825-.7886685,2.474854-1.0786219,3.7476159-.1115533.4896844-.0297546.976962-.169348,1.4433879-.2726586.9112121-.1994115,1.8581-.0849616,2.7539768.120009.939348.3932853,1.8790369.7442602,2.7835611.4804087,1.238066.9156103,2.4941934,1.3457535,3.7509386.1358874.3970552.2996231.8302974.2642775,1.2305048-.0687637.7786261-.4193233,1.4701181-1.0008807,2.0204407-1.3127827,1.2422193-2.2608207,2.7183224-2.8487253,4.427138-.3130415.9098916-.5050409,1.8500277-.6494585,2.7964257-.1651841,1.0824984-.218112,2.1762852-.187942,3.2729899.0038232.1387627-.0357397.2807842-.0684442.4181625-.1248332.5244869-.2325314,1.0474616-.306737,1.5861123-.1369204.9938947-.4382048,1.9530933-1.2979693,2.6072483-.3925824.0756539-.7798188.1502642-1.0797721.2080482-1.1298672-.5721753-1.2813774-.7360495-1.5938225-1.5868151-.4797271-1.3063078-.485414-2.6787276-.3086752-4.004737.1695078-1.2717822.6066476-2.5131708.9825317-3.7508108.4300047-1.4158271,1.0448844-2.7580449,1.7483038-4.0617543.3814963-.7070829.8042594-1.3779788,1.3313554-1.985553.4497275-.5183741.881319-1.0524668,1.3344863-1.5958885-.4069166-.8849718-.8237479-1.7528192-1.2077362-2.6350009-.7068912-1.6239605-1.0975035-3.340252-1.2372992-5.0918572-.1185926-1.485922-.105973-2.9849215.3073227-4.4511419.3135207-1.112253.5835383-2.2358583,1.0568651-3.2965679,1.0086975-2.2604799,2.5671956-4.0507214,4.6038235-5.4449727.7313104-.5006321,1.4324296-1.0455234,2.1430907-1.5758888.0834067-.0622356.1398064-.1606581.1658018-.1914351-.3390155-.5909609-.7173277-1.1076737-.9483681-1.6834485-.4518361-1.1260121-.8822349-2.2679133-1.2098022-3.4346064-.4138388-1.4739519-.7787219-2.9678823-.7460919-4.5230472.0176888-.8429276-.0169859-1.6873675.0152927-2.5294645.0251434-.6556885.0666018-1.3185547.1902317-1.9610166.2504225-1.3012813.5943581-2.5846714.8401375-3.8866981.4070018-2.156328,1.0707094-4.2229235,2.018183-6.2004468.3674923-.7670182.6885208-1.5600636,1.1074927-2.2976466.5280864-.9296783,1.134766-1.8147566,1.7179954-2.7355958-.1434804-.1370162-.2829673-.2864071-.4386947-.4163734-1.4129198-1.179153-1.9295154-2.8144872-2.0964247-4.5302462-.1128738-1.1603248-.0855473-2.3467194.1067717-3.5352227.2358753-1.4577647.5740815-2.8820688,1.0213171-4.2768099.6491178-2.0242745,1.4752405-3.9833102,2.3938327-5.9027512.9450242-1.9746692,2.1873819-3.7454647,3.6423032-5.3707032.8108408-.9057809,1.7706465-1.649711,2.7714207-2.325314,1.0137666-.6843782,2.0832832-1.2859886,3.124664-1.9298349.1354081-.0837262.248708-.2031921.388099-.319314-1.2070547-1.6047276-1.6145038-3.4306448-1.7700181-5.3060183-.0774324-.9338955-.0149199-1.8841912.1023841-2.839407.1469202-1.1964265.4310271-2.3571559.8174647-3.459867.6781376-1.935117,1.6550676-3.7477863,2.980896-5.3432701.4375765-.5265742.8786673-1.0502304,1.3347313-1.5950259-.3981202-.4788006-.8128748-.9190501-1.16123-1.4067431-1.4953574-2.0933683-2.202632-4.4583942-2.3386152-7.007081-.0567298-1.0632334.1267608-2.1013341.3255972-3.1443655.1598061-.8382525.3604636-1.660829.6852727-2.4415424.6213759-1.4934937,1.2660528-2.9787022,1.9515811-4.4437192.7366778-1.5743126,1.521012-3.1176992,2.5798791-4.5221207.9668024-1.2823039,1.9170875-2.5501245,3.1299887-3.6291831.7778274-.6920032,1.6197433-1.2728578,2.4488266-1.8843723.2913911-.2149172.7369653-.2022762.855281-.4956588-.2277072-1.181219-.5566909-2.2534087-.6177124-3.3406461-.1157385-2.0618778-.028072-4.116056.4751798-6.1534826.5435282-2.2006086,1.2021772-4.3578524,2.0031459-6.4733397.3322638-.8775598.7308312-1.7289857,1.3226867-2.4744812.3707936-.4670968.7230571-.9489006,1.0974076-1.4422591-.291881-.6548365-.5932186-1.2938799-.8638432-1.9456707-.5824414-1.4027282-.9413075-2.855477-.9314461-4.3860203.0050479-.7850903.017955-1.5707451-.0037699-2.3552816-.0272627-.9840226.2184847-1.9157243.4825066-2.8474686.405447-1.4308002,1.0363009-2.7662876,1.8264497-4.014428.6913216-1.0919977,1.4880519-2.1148696,2.5699964-2.8634109.0838327-.4223797-.0589555-.7778274-.2631274-1.1443931-.6287027-1.1287597-.9705297-2.3762078-1.0791331-3.6369891-.1004033-1.1658838-.1045779-2.3487322.1041093-3.5375017.3067476-1.7473347.9314887-3.3345759,2.0027625-4.7241094.6684892-.8670913,1.5131633-1.5284453,2.6102302-1.8827322.6510666-.2102633,1.1060337-.1018303,1.5616185.3227538.0778264.072523.156164.1444815.3076848.2845754,0-.2039588.0296269-.3247878-.0045793-.4234979-.3657031-1.0554274-.0975279-2.005574.4348183-2.9320681.4139666-.720448,1.095086-1.1876726,1.6204036-1.8001242.5601627-.6530581,1.1339779-1.2984272,1.6413618-1.9914368.3671302-.5014414.619033-1.0792822.4860849-1.75316-.1209994-.0173001-.206536-.0496106-.2853848-.0376246-.6147945.0934811-1.2337636.1703864-1.840358.3031587-.4467244.0977942-.9270798-.0640886-1.3469888.1932188-.7021628-.2797139-1.3966367-.036533-2.1007164-.0113257-1.2676715.0454041-2.5322547.1056961-3.7964971.2059183-.4336894.0343765-.9013081-.0806432-1.2990236.0448929-.3463424.1093222-.6758586.0998442-1.013724.14249-.3370134.0425447-.6691494.1241889-1.0062055.1663183-.9913388.1238961-1.9905156.1986128-2.9745702.3641217-1.0631589.1788101-2.1251463.360815-3.1937578.5044978-.4219218.0567351-.8477838.1046791-1.2607068.2032986-.7214916.1723086-1.4508106.2797192-2.1890006.3122641-.5805245.0255907-1.1644887-.0177261-1.7441292.0166718-.9828086.0583325-1.8644684-.2861515-2.680325-.740059-.9524043-.5298755-1.6784433-1.2893006-1.7254288-2.4883788-.0051437-.1313507-.1004033-.2591604-.1412867-.3581686.1422132-.5065638.2367699-.981733.4085673-1.4271049.3818265-.9897787.999688-1.8442131,1.6198072-2.6959904.4199409-.5768078.8606271-1.1466881,1.2022092-1.7689692.1745237-.3179243.4192274-.7023811.2077075-1.1150219-1.3485011-.8079335-2.8460416-.9683838-4.3510794-1.0942075-.2602839-.0217622-.552069.0581195-.7793503-.0332424-.767114-.3083557-1.61231.0355906-2.3634711-.3217474-1.2415164.0231839-2.4148016-.3109914-3.5674374-.715906-.8379011-.294341-1.464229-.8519904-1.7994214-1.6936986-.379622-.9532616-.2394003-1.8814223.3293565-2.6881684.6589153-.9346303,1.3638789-1.8505389,2.1494911-2.6791483,1.4799582-1.5609795,3.0306503-3.0549738,4.5551447-4.5735949.4055003-.4039614.7938229-.8157768.9565682-1.4404008-.2215411-.1519095-.4486626-.3235791-.6916092-.4687315-.1663981-.0994129-.367439-.1417765-.5313345-.2442724-.8368361-.5233474-1.9264483-.648777-2.5369085-1.6925645-.0603187-.3263799-.3573646-.7340261-.1501151-1.2104252.2390382-.5494812.6292458-1.0110297,1.1551172-1.2410531,1.1864373-.5189545,2.3574967-1.0970668,3.6896615-1.3074633-1.0160349-2.6523329-2.4997525-4.9693349-4.0731066-7.2556399-.2874508.197484-.540312.3729661-.7949517.5458551-1.1987055.8138652-2.2994357,1.7830637-3.682718,2.3398931.1977076.0482847.3975451.0878476.5750613.0416448.9178893-.2389477,1.8421151-.3870554,2.8428574-.292866.2478347.234198.5202697.4916492.7439407.7030095v1.2206008c-.6572966.7569384-.6443894.7858518-1.8022541,1.3025539-1.1963306.5338638-2.5652148,1.0444531-4.0921373.7865812-1.6587843-.2801452-3.1336202-.9418507-4.6019279-1.6925591-.7721406-.3947656-1.3573188-1.031301-2.1034321-1.5298511-.5301205.4128963-1.040763.8228481-1.5641104,1.2158991-1.4414497,1.0826048-2.9808214,1.9758247-4.7376342,2.4549181-1.1032329.3008531-2.2370937.3272266-3.338825.1640659-1.4175416-.2099279-2.5746609-1.015183-3.6078948-1.9883272-1.0331806-.9731175-1.7927974-2.1589957-2.5719027-3.327052-.1621277-.2430744-.2835211-.4884704-.5852422-.5750453-.2532233.2349329-.4610479.4915907-.724793.6613806-1.1239461.7235576-2.2382438,1.4676528-3.4836047,1.9788172-1.2432949.5103071-2.5057801.9297795-3.8783277.8673789-.3482167-.0158305-.6978178.0013365-1.0467267-.0019595-.8188705-.0077368-1.5458785-.3047828-2.2473172-.6993354-.9200938-.5175541-1.6263034-1.2794179-2.3616074-2.0118039-.2812208-.2800973-.5184912-.6178083-.8440565-.7836686-.5400138.4286842-1.0022439.8709251-1.5337062,1.2020654-1.1603993.7230252-2.3883163,1.3227133-3.6688843,1.8103743-1.7851723.6798468-3.6157967,1.1469543-5.5369735,1.1835992-.7267099.0138603-1.4541333-.0092171-2.1808218.0052608-.923278.0183863-1.8038835-.1993636-2.6680462-.4797112-1.5544301-.5042742-2.8925479-1.3461209-3.988635-2.5776587-.8151006-.9158233-1.3987666-1.9317837-1.6055582-3.1502972-.0052395-.0308356-.0890723-.0483327-.1364198-.0717242-.0275715.0027582-.076836-.0004153-.0794558.0091639-.0368046.1344923-.0988485.2717801-.0944076.4063895.0524487,1.5870334-.0247281,3.1704727.1275488,4.7643591.1725322,1.8057738.133193,3.6373139.1761531,5.4554038.0717668,3.0373755.0617883,6.0786061-.0912021,9.1228292-.2328722,4.6338444.1089761,9.2806012-.1848643,13.9203135-.1667389,2.632855.0402763,5.2693947.1839804,7.8989696.0420974.770213.1146949,1.5444195.1463345,2.3187965.0023642.0581142-.0133012.1242581.0090521.1731286.2391554.5230918.1116066,1.0793781.1561427,1.6198818.0468897.5690976.1293592,1.135586.1654077,1.7051841.0744825,1.1769699.1285179,2.355239.1908067,3.5329863.0030671.058061-.0161872.129061.0103513.1722979.2287189.3725188.1219791.7857186.1597316,1.1819645.0403722.4235192.1012127.8460586.1752372,1.2651156.0525019.2972163.1417126.5879365.2302098.9447473.4002607-.2133091.7266673-.3811342,1.0473764-.5592255,1.4902669-.8275604,2.9116105-1.778804,4.5066896-2.4170805,1.1737111-.469674,2.3499675-.8130665,3.6401733-.7787219.9362277.0249198,1.7929891.2095285,2.6307837.6229839.8512449.4201113,1.595175.9909022,2.3724273,1.5189034,1.714971,1.1650105,3.5546687,1.9044572,5.6913803,1.7522868.7915972-.056357,1.4940688-.3180254,2.1959547-.6207369,1.4178185-.6114931,2.5602309-1.6212023,3.6721963-2.6518696,1.015577-.9413182,2.0032205-1.9092068,3.1166129-2.7397598,1.4680415-1.0950967,3.0165398-2.0401422,4.8483675-2.3506704.6743251-.1143009,1.4143149-.134684,2.0738159.0189774,1.3130063.3059276,2.5949588.749734,3.8824384,1.1595154,1.4515667.4619957,2.9183303.7955694,4.4567648.6923121.2895168-.0194353.5830164.0161872.8718623-.0076676.6540911-.0540142,1.3118136-.096857,1.9580241-.2045233.724335-.1206693,1.4343891-.3278442,2.1476487-.5002487,2.0895664-.5051155,4.1237662-1.1782904,6.0144856-2.241428,1.6357495-.9197636,3.16346-1.9747863,4.4363711-3.3619344.6600867-.7193404,1.2499508-1.5031102,1.9099417-2.2225412.6623018-.7219549,1.3184589-1.4573601,2.3014165-2.0843003-.7860488.034073-1.3213342-.1566166-1.758932-.6323715-.1364731-.1483632-.4046909-.2164667-.6218764-.2418337-.6023239-.0703505-1.1469384-.3092716-1.7049605-.5143007-1.3345928-.4903553-2.7239134-.3579876-4.1016153-.3561932-1.5068588.4793384-3.0691589.7948399-4.4832607,1.5470766-1.0360773.5511479-2.007821,1.1925714-2.931738,1.9177317-.4546263.3568268-.9334589.6661729-1.1262997,1.2566333-.0416927.7224181.1636506,1.4705441-.4433379,2.1231016-.5913976.6358059-1.2732412.7212999-2.042304.619001-.6430156-.266844-1.1010923-.7685836-1.4838134-1.3038797-.6416951-.8974849-1.4640586-1.5021731-2.5057694-1.821961-.4021457-.1234541-.8137694-.2160886-1.0730949-.2840057-.5049557.0673367-.8694555.1159356-1.2949342.1726707-.3207517.1602747-.7004376.3484297-1.0787391.539311-.8143125.4108889-1.4194373,1.0725943-2.0620908,1.6952268-.6546661.6342724-1.1217523,1.4005238-1.4040168,2.2345378-.2341608.6918967-.6205665,1.1315605-1.2395782,1.3991393h-1.0557362c-.7254852-.2713488-1.1948078-.6895112-1.575974-1.2676502-.6411839-.9724999-1.4498628-1.8397296-2.3807232-2.5117012-1.5879333-1.1462994-3.3953098-1.3968923-5.289256-.8357392-1.3955611.4134874-2.7318259.9734796-3.8941315,1.8586964-.6078617.4629542-1.3462434.8690082-1.6217348,1.6168786-.186089.5051794-.5257861.7996269-.8686355,1.1429448h-1.0650865c-.7188293-.4578211-1.5137703-.9562488-2.3006391-1.4671043-1.158919-.7524071-2.3528109-1.1661287-3.7871575-.8359416-1.1106449.2556727-2.0909615.7216301-3.0189892,1.3318027-1.0504647.6906827-1.8670988,1.6470592-2.7206759,2.5505185-.4223158.4470013-.8322036.9418933-.8149302,1.6502967.0056229.2306677-.1793585.4659893-.2550231.6463702-1.0484413.5202591-1.553003.2896765-2.1395018-.8735449-.156377-.9741825.0818519-1.8221899.561792-2.5926905.5926649-.9514352,1.3198007-1.803383,2.076851-2.6296974.7456233-.8138546,1.6259413-1.4726314,2.5663863-2.0158827,1.5377423-.8882838,3.1672406-1.5693074,5.0023803-1.4933553.3668213.0151755.7375191.0767189,1.0944471.1652267,1.1968099.2967478,2.3413734.7023226,3.2705192,1.5721827.41271.3863738.8738324.7210337,1.2860206,1.0571952.4297278-.3505383.8235775-.6425364,1.1839453-.9712539,1.0862257-.990817,2.3016508-1.7731917,3.6202056-2.425057,1.3546139-.6697032,2.7404307-1.107072,4.2699623-1.0053216.5213453.0346854,1.067046-.0759201,1.5654842.0379494,1.1600372.265023,2.2727694.6890533,3.244641,1.4044055.8495303.6252949,1.6850353,1.2696523,2.597291,1.9588973.1650563-.1360897.3638821-.249528.4950837-.4162136,1.0222755-1.298736,2.1760402-2.4507649,3.557544-3.3745806,1.1734556-.7847016,2.4633632-1.1492653,3.8572949-1.150442.4506221-.0003781.9109139.0695677,1.3500559.1762329.9375483.2277072,1.8622746.4980815,2.6624233,1.0808903.3411348.2484683.7161349.450457,1.0943193.6850864.3844888-.3656073.710299-.7432379,1.100709-1.0341763,1.2789706-.9531498,2.6565767-1.7586658,4.0523295-2.5224731,2.0200679-1.1054746,4.1052894-2.0514093,6.404576-2.4632833.4000584-.071671.7978803-.0555583,1.1890038-.1366967,1.0628607-.2204815,2.8512385-.2627759,3.7511196.0420282.974683.3301552,1.9073645.7892223,2.610965,1.5819803.4815375.5425324.8331195,1.7274575.2156413,2.5110569-.0425979.0540621-.0562399.1309407-.1209355.2891494.8434814-.4043767,1.3981489-1.1231474,2.274484-1.1072105q.4025503.4070391.6201831,1.0889093c-.1161965.3800959-.1832456.7514326-.3387174,1.081066-.6101407,1.2936083-1.3532614,2.5136554-2.1079581,3.7274724-1.2957435,2.0839755-2.8135181,3.9896573-4.5189258,5.7517522-.4204202.434371-.8074436.9043113-1.179579,1.3814932-.704101.902831-1.3934845,1.817419-2.0756902,2.7369909-.7837804,1.0564817-1.4425253,2.1829091-1.871529,3.4350217-.4974905,1.4519927-.3065666,2.809024.5581605,4.0685593.7746219,1.1282911,1.5918736,2.228244,2.3399677,3.3735955.9114145,1.3954014,1.2682572,2.893272.6821524,4.5334411-.4569053,1.2786192-1.2981929,2.3011397-2.2445803,3.2100941-.7564219.7264862-1.6795828,1.2776394-2.5166212,1.9223164-1.1335307.8730124-2.2918533,1.718858-3.3742239,2.6521252-1.8019772,1.5537698-3.1959196,3.4593132-4.391803,5.4988377-.3341274.569843-.5613447,1.2321342-.5614619,1.9434982-.0001917,1.0628607.3475138,2.0174695.8883477,2.8940495.8187214,1.3270211,1.6959617,2.617951,2.5327658,3.9003614.8384549-.5404292,1.6223205-1.1084405,2.4628414-1.5741635,1.6719577-.9264409,3.3250659-1.8628284,4.8435433-3.0454957.9733838-.7581365,1.6224376-1.6751526,2.0057763-2.8072988.4254041-1.256447.543443-2.5597836.5235923-3.8816822-.0161872-1.0778019-.3170137-2.0653602-.8644609-2.9857734-.2912739-.4897163-.5797257-.981126-.8438329-1.4283828-.0121085-.7332274.1176342-1.2366176.4637742-1.7519886.6365407-.9477611,1.3362222-1.8578231,1.9115391-2.8409725,1.0767476-1.8400278,2.087181-3.7200338,2.6541806-5.7966611.3797179-1.390673.6678076-2.4751948.3593774-3.7577649-.2025531-.8422993-.5374367-1.604866-1.2387156-2.0893428-.5910461-.4083117-1.0062694-.9219681-1.3782131-1.4956023v-1.2475227c.2570252-.6193205.6475523-1.0154599,1.2075765-1.2054785.281338,0,.5457752-.0248559.8039506.0048349.6742079.0774963,1.3093003.2908054,1.709806.8700838.64899.9386984,1.2562979,1.906406,1.8730519,2.8671169.3468216.5402268.4922722,1.1476306.5060526,1.7811575.0164321.7556978.0312775,1.5132698-.003919,2.2676683-.0291902.6254227-.0513731,1.2697269-.2169086,1.86679-.5367977,1.9361607-1.1533067,3.8462514-2.2348786,5.5695609-.9172717,1.461492-1.9100801,2.8607592-3.1538329,4.0676861-.2461414.2388572-.4857867.4844129-.7401495.7385947.0773365.1699444.112746.3127859.1952156.4191209,1.0399324,1.3410251,1.4178292,2.8965521,1.4273924,4.5507039.0044621.7708413-.1089974,1.5423536-.1689008,2.3135782-.0022577.0289772.0005005.0589236-.0057188.086953-.1706579.7703834-.3359804,1.5420128-.5148278,2.3105005-.4088974,1.7570471-1.2275656,3.2955881-2.4761745,4.6016723-1.4407256,1.5070612-3.0960594,2.7170551-4.982732,3.6095454-.3055016.1445241-.5979257.3167262-.8872721.4712714.4013044.7415446.8403505,1.4138569,1.1380993,2.1438042.2745649.6731217.524029,1.4015674.5610253,2.1172125.0798818,1.5453248.1051849,3.0946857-.306279,4.6270713-.3107412,1.1572471-.7174022,2.2712359-1.2730601,3.3172704-.3986952.7505115-.8839601,1.4586167-1.4486275,2.1202689-1.0919657,1.2794924-2.2449317,2.4853437-3.5600253,3.534605-.3541165.282552-.7048252.5693745-1.0260135.829094.9905294,1.3557321,1.570777,2.8118355,1.7057485,4.4431441.0279442.3377802.0784441.6736861.1337681,1.1383762-.0130243.0366662-.0911276.1919143-.119977.3558311-.0298824.1697208-.011576.347844-.0150584.5222825-.0057933.2907095.036123.5922176-.0260593.8704033-.4183009,1.8711988-1.1865757,3.6119096-2.1186608,5.2722488-.473838.8440458-1.0528076,1.6289977-1.7336502,2.3440784-.8636728.9071014-1.8721466,1.6048128-2.9028033,2.2873166-.1505623.0997111-.2753636.238346-.3791108.3298676.5191515.608916,1.0247675,1.1282485,1.4454113,1.7091138,1.2811325,1.7691342,1.6921811,3.8732372,2.2141228,5.9316326-.0459845,1.0909966.0996152,2.1766046-.1378788,3.2768663-.2781964,1.2888427-.6796498,2.4926599-1.3398111,3.6432084-.4169804.7266992-.907389,1.389672-1.4225256,2.0279379-.6094058.7550694-1.1655643,1.5824914-2.0419207,2.0897901-.1317021.0762503-.2109875.2430424-.3076315.3596329.3133716.2555236.5602585.4967556.844131.6809704.9053443.5874892,1.4414604,1.4331644,1.8081752,2.4241412.5615045,1.5173805.3968742,3.0420453.0704996,4.5643672-.2074732.9677396-.5736662,1.8859164-.9328412,2.8098653-.5357008,1.3780427-1.3304289,2.5939791-2.2811825,3.6871056-1.0737551,1.2345729-2.2340479,2.4046739-3.6439752,3.1896684-.1102328.3485362.100776.4946258.2696235.6432925.845835.7448033.9234697,1.7845973,1.0802833,2.7924002.0160488.103087-.0502229.2176328-.0714793.3281744-.0321188.1670477-.0808189.3349474-.0830659.5029962-.0104897.7838656-.2490807,1.5159109-.5765416,2.2051452-.7422794,1.5623213-1.7302317,2.9664766-2.9508005,4.192892-.7124822.7158793-1.4550811,1.4056462-2.2239629,2.0603762-.7173809.6108755-1.4787442,1.1716345-2.2366784,1.732926-.8017781.5937937-1.6223524,1.1621991-2.4348119,1.7417225.9694009,1.2888853,1.5767194,2.6988551,1.5188608,4.3397057-.0303404.8605845.0255268,1.715972-.1467818,2.5817748-.1548434.7780936-.2756192,1.5632372-.5023573,2.3247815-.4716868,1.5842167-1.1296649,3.0964002-1.9868628,4.5028984-.6378932,1.0466735-1.3107167,2.0821863-2.1699061,2.9786596-.4125928.4304946-.771427.9124901-1.186384,1.4092031.1657698.1197854.2944368.2218713.4317938.3104749.750373.4842532,1.4946332.978027,2.0770533,1.6682411.6459442.7654846,1.3369464,1.5031528,1.8381961,2.3738969.8214796,1.4270516,1.4688615,2.9146136,1.3031769,4.6276464-.03886.4018901.0163789.8199248-.0697434,1.2088438-.2592935,1.1707612-.7037389,2.2737492-1.3117391,3.3130107-.5991823,1.0241818-1.3041779,1.9088341-2.3523317,2.547952-1.0312744.6288305-2.1241666,1.0863748-3.2357806,1.5190844-.523571.2038097-1.0691546.3510921-1.5845681.5175008-.4503452-.1500512-.8746311-.2914337-1.2157872-.4051062-.2166637-.3317313-.3717946-.5692573-.5304613-.8121932,0-.2914976.0140041-.5829951-.0036528-.8725758-.0206067-.3379932.1055363-.6302788.301966-.872874.4883213-.6030801,1.006312-1.1821349,1.5061773-1.7635965.2518815.0589342.4325286.1012127.5794169.1356105,1.2184922-.8444612,2.3961117-1.6991245,3.6149554-2.4902957.6890533-.4472569,1.107301-1.0457363,1.3436769-1.8038515.1172082-.3759479.228655-.753685.3442657-1.1358096-.1241516-.403381-.1996565-.8312771-.3818052-1.2075232-.6396823-1.321281-1.5872624-2.3590302-2.8607059-3.1235564-1.0364393-.6222917-2.0955621-.8156011-3.2691774-.5344548-.5759771.1379534-1.1723267.1909026-1.6730759.2688781-.171446-.1031722-.2429146-.1537572-.3205387-.1917545-1.3196623-.6461253-1.6290616-1.8002733-.8181144-3.0159115.6518653-.977175,1.5475718-1.7034695,2.4753226-2.3864207,1.6255899-1.1965543,3.2068353-2.4403071,4.5658368-3.9430765.1330866-.1471758.2408699-.3171202.3619013-.4753502.7325884-.9577077,1.2441681-2.0329431,1.6962066-3.1435135.5802369-1.4254968.8707973-2.8955723.7437916-4.4366799-.0114375-.1389544-.0620226-.2749909-.0971765-.4116876-.2038417-.7927473-.7657083-1.3269252-1.2536994-1.778165-.4368523-.1913286-.7920551-.3071097-1.1057675-.4929005-.5847523-.3462998-.9471328-.8515963-.8506911-1.5677526.0648021-.4810796.198091-.9568132.5469892-1.3185547.6590218-.6833132,1.3320476-1.3435597,2.1471375-1.8597826,1.2036575-.7623324,2.3576777-1.6025125,3.5498125-2.3836518,1.5752072-1.032105,2.9898309-2.2518539,4.2464695-3.6460838.5497581-.6099596,1.0890478-1.270483,1.2536355-2.1073404.1155575-.5875318.1192209-1.1970655.1614568-1.6694338-.2931908-.6127924-.7759957-.716497-1.2076404-.7680192-.9419678-.112352-1.6017776-.5458072-1.9700899-1.391312v-.9523617c.1629903-.3055336.2823816-.6019512.4627093-.8549829.8466869-1.1879069,1.9433917-2.1370312,3.0732483-3.0312041,1.2201748-.9656523,2.4208718-1.9417836,3.5413036-3.0271999,1.0415511-1.0090169,1.6921385-2.2120461,2.107202-3.5675119.2200396-.718563.3018808-1.465262.2124465-2.210896-.0571771-.4767772-.1918291-.9654819-.5392471-1.3185334-.4227737-.4296-.8961005-.8098717-1.3521751-1.2061814-.4561918-.3964162-.9482617-.7568373-1.3685327-1.1877578-.3776945-.3872577-.4879379-.8476347-.2791868-1.417744.2846606-.7773694.827028-1.3559983,1.3244758-1.9711975.4344136-.5372663.9155039-1.0372594,1.3832929-1.5469861.9901993-1.0789414,1.8839782-2.2295539,2.6142344-3.5016981.5022401-.8749187.8460266-1.7842991.8680285-2.8250728.021693-1.0258857-.191254-1.9893442-.5561158-2.9221321-.6686383-1.7093693-1.5382003-3.2388051-3.3976527-3.9682093-.7077751-.2776319-1.3246888-.7814801-1.6469527-1.5438658,0-.1148227.0119807-.2325527-.0019808-.3471198-.0804781-.6606937.1857163-1.1558094.6630899-1.6022675.779936-.7294255,1.6280286-1.3575105,2.579581-1.8327116.9996134-.499205,1.9246379-1.1120294,2.7950093-1.8005502,1.0643836-.8419692,1.7002747-2.0029116,2.2071793-3.2324154.5144657-1.2477783,1.0052364-3.0944407.6822589-4.3899606-.3248091-1.3028893-.7209379-2.5158758-1.7641077-3.4372581-.2932334-.2589847-.5063189-.6087243-.7087122-.8583374v-1.353272c.5156798-.8419479,1.1246383-1.621394,1.9474811-2.2363269,1.4643142-1.0943193,2.9893091-2.1075854,4.1735632-3.5502704.7574869-.9227774,1.343581-1.9191215,1.7149603-3.031694.3314864-.9930108.5868928-2.3037488.404233-3.4896962-.235492-1.5289139-.9760461-2.6312416-2.1345072-3.5611861Zm39.7313359,37.0162296c.6911513.2626588,1.0671418.6715775,1.2801953,1.2788961-.0689021.5643585.0377418,1.155639-.1152913,1.7694111-.2743732,1.1005173-.702248,2.1451674-1.0262904,3.2257062-.3434457,1.1452877-.7495104,2.2839727-.6083622,3.5026779.1067078.9215847.4131359,1.7282615,1.2590667,2.305293,1.0520195.7176046,2.2431,1.0770032,3.3943727,1.5490521.9717438.398397,1.9457665.7838017,2.8323144,1.3736338.9558121.6359231,1.488776,1.5261557,1.5473269,2.6231373.0400846.7514273-.1872179,1.5145265-.5326231,2.2079993-.4824853.9687406-.9845018,1.9277263-1.4740158,2.8929952-.6811407,1.3431337-1.3007701,2.7118049-1.8051934,4.13383-.709085,1.9989713-1.2892687,4.0222234-1.6081141,6.1295213-.1146523.7577531-.1522024,1.5226627-.2776319,2.2798833-.1651947.9972812.1107972,1.9963515.348451,2.9576162.2102633.8505527.6392031,1.6194025,1.2774477,2.287061,1.1082488,1.1592811,2.4843107,1.9237647,3.8077642,2.7675656,1.1059485.7050808,2.1419086,1.4521418,2.5200504,2.7544667.2142675,1.3109723-.1595718,2.4644175-.7695314,3.5665109-.3309432.5979683-.601078,1.2359361-.9841611,1.7975257-1.1103787,1.6278582-2.0147538,3.364405-2.8312495,5.1506423-.2713062.5935381-.5511958,1.1874596-.762162,1.8034682-.4747112,1.3862428-.9345558,2.778854-1.3481816,4.1842233-.1984637.6742825-.384787,1.3827498-.3897497,2.0770533-.0107134,1.496614-.1763341,2.9989575.1364411,4.4942297.186089.8896789.4050636,1.7603804.7902553,2.5819025.3048733.6502786.6882546,1.2479913,1.2021985,1.76513.5278734.5311322.9481445,1.1916981,1.5361875,1.6358453,1.1828165.8933636,2.2597984,1.893222,3.2522021,2.979405.5348595.5854019,1.0055026,1.2522937,1.3928455,1.9451701.9757267,1.7454285,1.2613031,3.6830162,1.4222807,5.6433938.009478.1154617.0397439.2526483-.0073481.34532-.2089428.4111125-.1148227.8482311-.1441514,1.2745298-.0097975.1425539-.0235141.2858746-.050372.4259792-.0956323.4988216-.2155029.9936391-.2934145,1.4950805-.1352271.8699773-.173693,1.7616796-.3842119,2.6117211-.3070458,1.2397912-.4696421,2.5036715-.6371371,3.757882-.1512439,1.1323805-.3289411,2.2846756-.2134795,3.4434242.1155469,1.1594302.4349461,2.2417369,1.3101203,3.0639832,1.4075844,1.3224098,3.1467723,1.8901975,5.0230403,2.1068931.3710066.0428535.7553463-.0098188,1.1213477.052864,1.1158951.1910517,1.9801004.7171786,2.3138977,1.9493873.0377844,1.3318879-.0012992,1.5814904-.5334751,2.5782178-.2010835.3766934-.4582684.7233766-.6889362,1.0843514-.7050595,1.10335-1.421876,2.1994371-2.1112807,3.3124995-.8138759,1.3139967-1.2362342,2.790824-1.7025324,4.2465015-.0483486.1508818-.0064962.3306451-.0064962.5203975.8080187.1234275,1.4603419-.210881,2.0761374-.5160525,1.3491826-.6685531,2.6728278-1.3933993,3.9766011-2.1476168,1.7232137-.9968339,3.4233393-2.0340933,5.1223147-3.0720981,1.6024699-.9790919,3.2025542-1.9631039,4.7815953-2.9793198,1.4845801-.9554501,2.9245602-1.9803773,4.4126121-2.9302044,1.8953306-1.2098022,3.843014-2.3384341,5.7250114-3.5680444,2.579581-1.6853867,5.1230815-3.4262359,7.673419-5.156031,1.5118428-1.0254597,2.9918436-2.0983097,4.5134626-3.1087962,2.0211222-1.3422179,4.0225003-2.7056495,5.9507591-4.1839251,1.3007914-.9972812,2.5659709-2.0354564,3.7457629-3.159147,1.4880944-1.4174032,2.9759972-2.8405784,4.3171927-4.4114832,1.032744-1.2096105,2.1874671-2.3146006,3.2768876-3.4765015.5521542-.5888949,1.0935951-1.1890783,1.6153983-1.8049165.854493-1.0085697,1.496039-2.1414188,1.8489414-3.4204852.1272187-.4610586.2522862-.939561.2599538-1.4120359.0076676-.471133-.1329481-.9446941-.1966107-1.34258-.5507485-.511175-1.1404954-.4467457-1.7078358-.3765017-.5310896.0657286-1.0488247.2345229-1.5791049.3129243-1.0661833.1576336-2.120418.3956921-3.174823.598373-.8147491.1566113-1.4342294-.0831724-2.1083628-.3598885-.3037871-.1247267-.4883213-.3455543-.6639525-.6322809-.6185431-1.0096985-.5377987-2.0419313-.2248105-3.1109474.5844222-1.9960959,1.5540573-3.8269759,2.4164096-5.7044366.6272544-1.3655828,1.2288648-2.7391102,1.7495818-4.1534463.7066143-1.9191002,1.1429022-3.8986256,1.469181-5.9008343.174758-1.0723174.1498382-2.1780317.2013391-3.2693052.0476245-1.0098476-.1778889-1.9662348-.5004404-2.9242833-.3826145-1.1363421-1.1214754-1.9011452-2.1463388-2.4484859-1.2498656-.6675094-2.6420508-.7988601-3.9990502-1.0354915-.8931719-.1557806-1.7958431-.2470466-2.6632646-.5303441-1.595356-.5210791-2.7158517-1.5200429-3.1897536-3.1674536-.2362481-.8212027-.3740736-1.6732037-.3909637-2.5145339-.0254097-1.2640294.0950147-2.530998.1535442-3.7967313.0026837-.0578906-.0033652-.1184009.011331-.1732031.2302844-.8584759.2405505-1.7452794.333563-2.6208796.0602974-.5676173-.0662398-1.1430726.1443857-1.7115205.0947165-.255694.0966334-.6075741-.0033226-.8584759-.1362069-.3419548-.1390609-.6748363-.1317554-1.0152788.0134396-.6241021-.197058-1.1669274-.556627-1.7367598-.269517-.0614688-.5666801-.1449181-.869381-.195205-.7547074-.1253231-1.5202133-.1972923-2.2665075-.3591857-2.0351369-.4414848-2.9178297-1.8727537-3.0887113-3.6940278-.1368032-1.4579777-.0335246-2.9282023.2973335-4.3718672.1014682-.4427202.1288374-.9031185.1795928-1.3565734.0701375-.6263385.0516287-1.2759781.2203377-1.8734991.1288587-.4565432.0865377-.9088905.177612-1.3559131.1185074-.5818024.2613808-1.1674173.2911355-1.7565891.0498609-.9860993.0296695-1.976437.0182106-2.9647514-.0118635-1.0239901-.4769263-1.6873675-1.4527382-1.9788651-.8185403-.2445121-1.667879-.3534775-2.5279097-.3487705-.5814403.0031735-1.1637113.0091586-1.7442783-.0161872-1.0849264-.0473476-2.526078-.868103-2.6981949-1.9999724-.0875174-.5753701-.269155-1.1056716-.1675163-1.7279633.1005737-.6160298.1522024-1.247331.3186111-1.8495591.3902395-1.4123766.8619902-2.8032839,1.2188756-4.2234454.2331171-.9276549.5718558-1.8359065.616754-2.8107279.0194247-.4212402.0982521-.8463781.2048108-1.2554885.1876225-.7204267.24251-1.4597775.2940108-2.1913435.0582314-.8271238.0218953-1.6555682-.1397425-2.4888261-.2673658-1.378096-1.0053748-2.349073-2.2713637-2.8876598-.9588792-.4079283-1.9647226-.7039413-2.9374461-1.0812098-.9637141-.3737648-1.8535846-.8901368-2.6104858-1.5998288-1.5149737-1.420449-2.2124082-3.2371012-2.3060597-5.2587026-.0624699-1.3484372-.1333528-2.7088444.1239386-4.0635647.1173999-.6180852.0069222-1.2765638.0364638-1.9150215.0290305-.627872.1411056-1.252922.1523515-1.880368.0281785-1.5696908.0463891-3.1404997.018807-4.7099882-.0288601-1.6434065.1197215-3.2896244-.1719891-4.9305282-.2303696-1.2958394-.7057197-2.4591673-1.5693074-3.4440951-.8731509-.9958648-2.0613773-1.5141218-3.2482192-2.0175972-1.0712312-.4544453-2.1437403-.899945-3.101086-1.5809899-1.4226427-1.012052-2.0554987-3.027562-1.5626834-4.7659831.3019554-1.0652142.7015877-2.0923566,1.0433935-3.1410003.2555236-.7839615.5192686-1.5791475.373243-2.5412109-.171414-.096644-.4043182-.2452149-.6514926-.3642122-.8791359-.423221-1.8470032-.5275113-2.7875014-.672536-.9094017-.1402537-1.7722226-.3610067-2.5887821-.7720341-1.8456188-.9289967-2.4320431-2.650432-2.274303-4.4215896.0991467-1.1133073.3857881-2.2181483.7822682-3.2873774.4133276-1.1146065.585764-2.3023111.7207355-3.4738817.0936941-.8130239.0627893-1.6483798-.1196576-2.4870157-.3278336-1.5069121-1.1390471-2.5253751-2.5864818-3.0299155-.4245096-.1479639-.8668677-.2456303-1.3029639-.3590259-.7423327-.1930005-1.4787442-.3983438-2.1066163-.8680498-.3963949-.2965561-.8128535-.6172865-.9332352-1.100677-.1243433-.499237-.3484084-.9837564-.1162071-1.5717568.1426391-.3611984.2900918-.7367949.4447223-1.0978123.1097535-.2562265.1786131-.4768198.0131841-.8076459-.5276817-.3152992-1.1181741-.6557737-1.6950351-1.0179945-.2899001-.1820316-.5784159-.3786103-.8269321-.6118978-.7696592-.7225033-.691918-1.5707983.1767175-2.1595974.1657272-.1123201.3325833-.2229149.463508-.3105921.2802517-.0386363.5224422-.0720224.8509787-.117304-.2783987-.4586305-.641333-.7065078-.9335547-1.0142671-.3202086-.3372637-.6547513-.6609973-.9857372-.9878937-.3014229-.2976902-.5724735-.6434043-.9970895-.6990958-.2141397.4331836-.3523274.8851582-.62374,1.2332577-1.5593395,1.9999298-1.3951884,1.8831369-3.4824226,3.5454036-.5099184.4060966-1.0421155.8320971-1.2647962,1.4865929.1220643.3026902.2153751.602079.3582272.8755896.4345414.8320226.9117446,1.6423628,1.3285865,2.4828517.5426975,1.0943086,1.0987282,2.1876588,1.5452396,3.3222544.3809106.967846.6951981,1.9779812.8917875,2.997786.1983146,1.0288782.4765003,2.0583528.4166716,3.1290089-.0275396.4927621-.0179337.9886871-.0028541,1.4824928.0282211.9250884-.1851945,1.8117109-.4735824,2.6721995-.4854672,1.4485742-1.244626,2.742912-2.2849311,3.8786365-.5226339.5705565-.9663338,1.21075-1.6355472,1.6357708-.1360578.0863886-.2312002.2371639-.3723271.387098.1146949.0841841.1701361.1442472.2386761.1722766.8324273.3404,1.5498827.8838429,2.1886385,1.4779774.7068486.6574776,1.1561928,1.5285731,1.4656453,2.4646944.3003579.9086562.1384858,1.8317319.1727559,2.7485776.0338014.9032676-.2325846,1.7415947-.6062962,2.5474195-.2741815.5912591-.5748376,1.1704205-.870808,1.7513496-.4980975.9776329-1.1401972,1.8510394-1.919867,2.6232438-.7230145.7160923-1.4343572,1.4444635-2.1723022,2.1448266-.5436347.5159567-1.085821,1.0471314-1.6969947,1.4735473-.4220176.2944262-.7274234.6299167-.981946,1.1792595.0466021.331284.0853449.7584986.1699231,1.1764268.1815736.8973252.754899,1.5960482,1.2844764,2.2919705,1.0551505,1.3866475,2.1156044,2.7598021,3.0500324,4.2399308.766933,1.2148607.9528942,2.53513,1.0985791,3.8802552.0632153.58373-.0239826,1.2096318-.1688156,1.7846612-.3098999,1.2302173-.6516417,2.4589862-1.2554885,3.5882784-.5655087,1.0575679-1.1469277,2.0953065-1.9208041,3.0351977-.6856987.8328-1.4397671,1.5886468-2.2236327,2.3109798-.8198183.7554315-1.728581,1.4146769-2.6019662,2.1115683-.8069111.6438356-1.6273045,1.2710261-2.4250357,1.9259372-.6193099.5084381-1.2128054,1.0482816-1.7568234,1.5211611,0,.1778676-.0165067.2420627.0024281.2931376.5166276,1.3942938,1.2845616,2.660304,2.0671706,3.9107979,1.0338728,1.6520112,1.7999751,3.3808372,2.147638,5.3221735.2343738,1.3087998.1318193,2.5686865-.1223199,3.8286904-.1604877.7957505-.4834651,1.5582319-.721481,2.339318-.044174.1450885-.0307983.3077061-.0457289.4828261h.8048664ZM179.1997386,8.1382139c-.868316-.2310698-1.628199-.5283819-2.2981152-1.0349458-.8663778-.6551534-1.7545657-1.2816436-2.6174079-1.941315-1.1270984-.8616947-2.3782419-1.3341642-3.8070187-1.2594954-.3364597.017585-.6670834.1268726-1.0037135.1638902-.9292523.1021844-1.8423601.2766575-2.7534018.4902914-1.9887904.4663647-3.9412235,1.0274219-5.7823908,1.932428-.354436.1742255-.7405222.284831-1.0922959.4635905-.7619277.3871885-1.495187.834038-2.2702988,1.1910512-.6709811.3090373-1.3788734.5403972-2.145998.4688327-.2595278-.0242089-.5230599-.0061261-.7847602-.0066213-.8210323-.0015522-1.5801486-.2235273-2.2340266-.7170721-.6397569-.4829007-1.2671603-.9867941-1.8612948-1.5242681-.5814616-.5259965-1.1222848-1.0980945-1.6658769-1.6644099-.5864243-.6109154-1.2787257-1.0566494-2.0608661-1.3632746-.8394133-.3290902-1.6779108-.417244-2.5896767-.2087431-1.3889478.3176207-2.7038391.7977659-3.991276,1.3951431-1.9313897.8961617-3.9085083,1.6899234-5.8108249,2.6540075-1.5755906.7985113-3.020512,1.7547707-4.235213,3.0469121-.8093179.8609173-1.629264,1.7130408-2.7278217,2.2221072-.0283702.0131468-.0287749.0867134-.0496905.157394.1912008.1189174.3830618.2382448.5746033.3573806.1159941.2375313.2517963.4595623.3329453.7000223.0618309.1832669.1087312.4025557.0665805.5835436-.089413.383951-.2468124.7516297-.3653198,1.1294359-.0654091.2085168-.108433.424057-.1497743.5893635.7907452.833194,1.947939,1.3345183,3.0328228,1.3635328,1.220899.032662,2.3532582-.3018755,3.4623803-.7785515,1.607539-.6908797,2.7606221-1.9002187,3.8346222-3.2257062.5080654-.6270254,1.0999848-1.1861284,1.6115432-1.7308653h.8233965c.1624685.2587291.4356702.5080228.4727517.7885354.1013405.7666987.690278,1.038516,1.2464577,1.2625704,1.4903308.6003591,3.0751226.7759477,4.6678801.8870218.46928.0327312.90593-.1409778,1.3558705-.1564941.6106838-.0210487,1.1759156-.1972763,1.7517969-.3502348,1.5175509-.4030562,2.9803422-.9297262,4.2337647-1.9160704.4246161-.3341434.871447-.6467536,1.2574054-1.0214289.4106865-.3986686.7612887-.859248,1.0941063-1.2421793.5291088-.0377657.9656736-.0912607,1.3143375.2295016.1363133.2666151.2660027.5202457.4057452.793554v.9228094c.3278549.4597487.5808226.9710888.9741931,1.3275056.5237414.4745515,1.1265872.8839175,1.7490919,1.222736,1.2986828.7068805,2.6924442,1.1546379,4.1509117,1.4382815,1.468329.2855711,2.8918237.2535907,4.293274-.2838672,1.3203651-.5063562,2.6396866-1.0154492,3.9586247-1.5255167.8281249-.3202671,1.6543115-.6468334,2.617557-.4246693.1794863.1647049.3923481.3600589.5705139.523571v1.2007289c-.2988244.5133475-.326939.4815375-.785889.8872614-.6766041.5981866-1.4674984.9803166-2.2632488,1.3767967-1.3485863.6719396-2.7808987.9778938-4.2680773,1.0097837-1.0037135.0215226-2.0159679.110089-3.0124184-.155312-.5172878-.1377883-1.053617-.2031655-1.5800421-.3078711-1.3488205-.2682764-2.5967479-.8132688-3.7970934-1.4577488-1.3928029-.7477958-2.6841163-1.638955-3.6638258-3.0102726-.2300927.2208223-.4256171.4271666-.6406301.6107104-.3933918.335826-.7623537.7206343-1.2046905.9751516-1.7402102,1.0012854-3.6193749,1.6254568-5.6231811,1.7786868-1.8427647.1409246-3.6678726-.0259688-5.4083598-.7036644-.8940665-.3481155-1.8511778-.577303-2.6129138-1.207864-.5265529-.4358619-1.0309336-.898486-1.5743978-1.3747201-.8135138,1.0404116-1.6152279,2.0739862-2.6684615,2.9097308-1.640382,1.30167-3.4456819,2.0684112-5.5413292,2.1235809-.5425271.0142863-1.0737658-.0497118-1.6159734-.1488265-.9360254-.1710999-1.8197832-.4130774-2.5980685-.9752474-.2964815-.2141344-.5973293-.4221614-.8996681-.6354385-.5081293.4813831-.9505726.9960033-1.4841115,1.3859393-1.0848412.7928005-2.2831633,1.3492412-3.6186081,1.6326718-1.4116738.2996178-2.7213468.1719572-3.9342587-.6349699-.5176073-.3443403-1.0193256-.7125674-1.5471139-1.0831746-.1761211.1804395-.4277044.3591484-.5726225.6016158-.4138175.6924185-1.0797508,1.1288289-1.6923941,1.5697547-1.527604,1.0994683-3.2729473,1.6194771-5.1666805,1.4215245-.8903817-.0930765-1.715972-.4568094-2.3425235-1.1262837-.6957944-.7434562-.7026314-1.1741425-.1055363-1.9873421.8448872-.1459192,1.2991727.7385148,2.2477219.861282.2417858-.0138496.6930682.0340091,1.101071-.0771395,1.1433708-.311492,2.1795652-.8430395,2.9942504-1.7356523.4665324-.5111697.9177722-1.0364873,1.3906091-1.5416347.1745876-.1865256.37631-.3574338.5920685-.4936513.502123-.3169924,1.0202628-.6085805,1.4941221-.8881773.3276632.1660733.5811847.2945806.8838855.4480077.2087298.6272437.4295787,1.2910152.6203109,1.8641755.158805.0922351.2076223.1215478.2573127.1492897,1.533163.8562235,2.9981694.6675999,4.4166802-.283159.7884449-.5284645,1.4951657-1.1337064,2.075179-1.9000004.5944114-.7853033,1.2567877-1.5191643,1.9091323-2.2991269-.792939-.166872-1.5369756-.2471105-2.2263803-.4854193-1.2020707-.4155214-2.3686787-.9329956-3.553838-1.3984418-.5517283-.216685-1.1073329-.4256171-1.6694551-.6133328-1.0191978-.3403574-2.070834-.4121695-3.1398288-.3712169-.6101939.0233729-1.1825183.1729129-1.7356736.4033704-1.2304409.5126393-2.2697237,1.3240073-3.2468561,2.2029355-1.6138648,1.4516626-2.98916,3.1212721-4.2155541,4.9068491-.9187093,1.3376492-1.7493688,2.7296002-2.3441849,4.2521297-.3011673.7708839-.5772444,1.5755799-1.4295223,2.0362764-.5058716-.0094621-1.0860979.1242102-1.6383586-.1765311-.0743121.1279162-.1148866.2846659-.2159928.3581101-.8272303.6010034-1.6320115,1.228556-2.6209009,1.5782742-1.4282657.5050995-2.8735066.8799932-4.3995558.8755736-.111926-.0003248-.2233835.0379814-.3359911.048109-.3982267.0358195-.8246318.1720743-1.1888654.0756752-.5468508-.1447264-1.0843514-.0882043-1.6248977-.1309726-.5397157-.0427044-1.0762365-.1260739-1.6159095-.1698273-.8863988-.0718627-1.7742247-.1261378-2.6614542-.1877876-.0290092-.0020181-.0643016.0065015-.086133-.0069754-.3694944-.2281917-.7820339-.1317287-1.1784502-.1671223-.4235724-.0378216-.8422461-.1350567-1.2660102-.1656101-.684719-.0493603-1.365455-.0506489-2.05552-.1453494-1.2523363-.1718453-2.530391-.2050078-3.7978176-.2066478-1.832669-.0023748-3.6869246-.1976277-5.519519.453178.1928301.1457967.3636052.2970087.5547847.4151913.5168938.3195483.9712752.7073917,1.4058272,1.1333123.9574735.9384535,1.0291551,2.0699554.7274234,3.2626173-.3091757,1.222113-1.0574508,2.2116787-1.8993348,3.108514-1.0143843,1.0806081-2.0887358,2.1053223-3.1480076,3.1431248-.2858427.2800547-.6256144.5046789-.9152589.7813311-.5970738.5703063-1.1770444,1.1585303-1.7914023,1.7664239.1672288.1112232.2542989.2121323.3558417.2297838.7537489.1310632,1.509255.2536174,2.2668057.3604317.2281758.0321774.4952221-.0650417.6917796.0194992.7636955.3284619,1.5812455.1270802,2.3715434.2892718.8575387.175988,1.7198697.3210925,2.5749271.5362652.9477824.2385058,1.8416785.5685438,2.6825934,1.058521.7554315.4401537,1.3582879.9980906,1.650925,1.861609.3916879,1.1558733.1002755,2.2322961-.4711969,3.1981347-.711364,1.2022518-1.5465175,2.3312617-2.4609138,3.4007624-.3712089.4341846-.8592852.8788217-.7486372,1.5002136.3274396.6870991,1.0153747.70433,1.3996292.9499017.4827409.1020646.8428105.1838313,1.2055105.2515194.1124266.0209848.2479518.0405213.3457673-.0018637.7335575-.3178284,1.5254209-.1201048,2.2879982-.2829833,1.0844259-.2316155,2.2179033-.2249596,3.3133727-.4173478.5138587-.0902597,1.0323393-.0659096,1.5314804-.167953.9543851-.1951198,1.9072154-.3514808,2.8839644-.3288613.116058.002689.2372917.0127421.3478546-.0143236.8605419-.2106148,1.7324148-.3102833,2.6181321-.3432807.7428651-.027678,1.4937387-.0612611,2.2223122-.1946352.9566854-.1751413,1.9157563-.2981482,2.8835597-.3170297.4710052-.0091958.8991995-.1162018,1.3248805-.2852303.2900705-.1151795.5785437-.2346613.8711488-.3430357.9003283-.3334778,1.8061518-.6526161,2.7009424-1.0001885.227196-.0882522.4213786-.2615086.6027819-.3777903.0067944-.52216-.3657457-.7035419-.6336867-.9490124-.2521371-.2309872-.5270428-.4381569-.8000528-.6450869-.9648216-.7312732-.9991342-2.5039643-.3060661-3.4971402.6613114-.9476866,1.3865197-1.8179514,2.3280828-2.5155563,1.1491428-.851394,2.2489785-1.7694963,3.367323-2.6622795.996195-.7952925,1.6473681-1.8286595,1.9403353-3.0549152.0946526-.3962672-.0043024-.8571767-.087347-1.2740346-.2432341-1.2210747-.9366857-2.1881966-1.812009-3.0381848-1.0148529-.9854656-1.8902614-2.0759511-2.6369391-3.2821485-.3892598-.6288518-.8275498-1.2518038-1.5004265-1.5882848-.1391248-.2832123-.2646183-.538688-.3665764-.7462463v-.801826c.0591046-.1049293.1140985-.1758495.1420854-.2561839.5246786-1.5065021,2.0824845-1.5823583,3.1433857-.9508388,2.0482358,1.2192057,3.782674,2.7974959,4.7615316,5.051714.4395253,1.0122384.8825224,2.0239763,1.281814,3.0523007.2349275.6050183.4874267,1.2324537.5485973,1.8674715.0609363.632888.1749923,1.2637951.0881564,1.9350638-.1120325.8656856-.3730513,1.6667448-.6849533,2.452964-.2282397.5753595-.5298755,1.1594568-.9355355,1.618934-.9377506,1.0621578-1.9494938,2.0623996-3.106858,2.8945979-.6951555.4998493-1.3735699,1.0134098-1.9596747,1.7123512.3537544.080936.6540485.198698.9578568.2085967.5741561.0187058,1.135192.0863513,1.7038103.1730221,1.0294426.1569201,1.8985893.5326178,2.6104858,1.3212384.4793757.5310363.6747724,1.1687378.640694,1.8038089-.0532474.9921695-.440143,1.892386-1.3377664,2.4611641-.4700468.2978447-.9600506.5642254-1.4399588.8441736,1.0818168,1.7197632,2.4025014,3.1658987,3.8639296,4.4745122.9061217.8113732,2.0025921,1.2589389,3.2465579,1.3430805.6182236.0418312,1.2204517.0812875,1.8440001.0103939.6892131-.0783695,1.393804-.0197441,2.0916644-.0243021.6322596-.0041426,1.2265006.1718507,1.8353527.3207623,1.1062041.2705607,2.0391198.858806,2.964943,1.4660394,1.2629431.8283485,2.4947685,1.7042895,3.7596073,2.5296562,1.5601914,1.0181009,3.2994432,1.5042923,5.1479374,1.598274,1.4408321.0732471,2.8789378.0108092,4.2838173-.3450645.6551773-.1659934,1.3091832-.3295162,1.9340521-.6298954,1.2555098-.6035167,2.3122577-1.4648573,3.3617853-2.3536629.756816-.6409177,1.4810658-1.3057754,2.504992-1.5807662,1.0699533-.2873549,1.9988222-.0521825,2.822027.5516111.643825.4722086,1.1823479,1.090166,1.5591904,1.8277703.4661703.9124581.9721484,1.8044799,1.449948,2.7111127.4396531.8341951,1.0069722,1.5231738,1.9156072,1.8873435.8293815.3324129,1.7169944.362668,2.5756407.5409616.1339279.0278058.2843624-.0125557.425468-.0329921.2527335-.036581.5032518-.1107439.7563048-.1187737,1.2328051-.0391581,2.4138325-.3218699,3.5930494-.6649322,1.3885644-.4039987,2.5624992-1.209749,3.7810553-1.9275026.9814561-.5780857,1.957055-1.0835526,3.2187841-.8552278,1.0217324.4495572,1.7870893,1.2988319,2.4432676,2.2592872.4195895.6141768.7471036,1.3003441,1.4225788,1.6986027h.8902965c1.2313994-.5006321,2.1698955-1.304327,3.0147187-2.2133986.5845713-.6290861,1.0944471-1.327053,1.6489229-1.9847756,1.2466068-1.478691,2.059077-3.2020963,2.8112923-4.9141493-.5794808-1.569563-.7520876-3.1831456-.9849065-4.7802481-.1197641-.8215914-.1360578-1.6582518-.1995287-2.4880647-.0066027-.086117.0044941-.1807483-.0276035-.2566152-.2617855-.6184366-.1621064-1.2906052-.2844902-1.9338444-.1650456-.8676557-.147261-1.770114-.2075797-2.6576576-.0039616-.0579917.0031948-.1177566-.0079871-.1740871-.2000398-1.009166-.3401018-2.0248655-.3419548-3.0561825-.0001704-.0872033.0219166-.1859665-.0106282-.259826-.3585254-.8135138-.0676242-1.6970372-.3027008-2.5437508-.1785492-.6430263-.1238322-1.3647948-.1675376-2.0465319-.0717349-1.1188184-.1484538-2.2397135-.2150982-3.3602092-.0649192-1.0914439-.0102448-2.1808165-.1327351-3.2796245-.1622768-1.4561939-.0122469-2.9390062-.1915415-4.4079902-.0718627-.5887352.0259208-1.1920229.1074533-1.7948847.1302218-.9629899.044813-1.9472521.1887088-2.9248424.1331185-.9044018.0538651-1.8292292.1569946-2.7518895.1265371-1.1321356.2366314-2.2671838.3653837-3.4013587.1449607-1.2771815.4782256-2.496121.8046321-3.7259496.2329467-.8777967.5012497-1.7542223.4413145-2.7319218Z" stroke-width="0"/>
      <path d="m128.384573,121.2616398c-.1175703,1.0296982-.8598177,1.3163077-1.5648133,1.6415322-.5698111.5847417-.8617559,1.3172448-1.0900169,2.0793216-.1050252.3506554-.250774.7117048-.2498794,1.0677169.0044728,1.7728296-.2519241,3.5562022.4307502,5.2945381.3381423.8610744.6438889,1.7037251,1.3438153,2.3350795.6347729.5725799,1.3693314.9150033,2.2442714.9064944.5523459-.005378,1.1052669.0150477,1.6570804-.0028115.8760049-.0283383,1.6999552.1374741,2.4980059.6097147.1554824.224097.3343298.4818677.5245508.7560279v1.3060735c-.3624444.4021457-.7030148.8193497-1.2063092,1.088675-.5566483.2978979-.6520677.936281-.8403079,1.4522802-.1805087.4948494-.1624685,1.0666732-.201978,1.6068468-.027497.3759266-.0022151.755538-.0048775,1.1334774-.0093502,1.331004.3367366,2.5897193.8344933,3.8036322.5810782,1.4170198,1.3945707,2.6811557,2.5166851,3.753388,1.2606855,1.2046266,2.4649713,2.46823,3.7335373,3.7462102.0496692.2174624.112139.4910262.1970154.8626292-.0814898.5340714-.4578637,1.0349165-.7938974,1.5611499-.1640446.2568655-.3277058.5488103-.3692388.8422035-.1041732.7359856-.1524154,1.4810658-.1960782,2.22408-.0272414.4635719.0071139.9304664-.0078593,1.3951458-.0431304,1.3385119.3560121,2.5750443.8592001,3.7873811.5001422,1.2049248,1.2304835,2.2559859,2.1538147,3.1751851.2472383.2461521.4831669.5044233.7397981.7402454.6425683.5904072,1.1985138,1.2394078,1.4902882,2.1963275v.9010738c-.174758.6943674-.7904896,1.0063333-1.1533813,1.4757411-.1416594.5791826-.3472795,1.1203679-.3950105,1.6751632-.1109889,1.2903975-.3646808,2.5867587-.17889,3.8802659.1561427,1.0871415.2612317,2.1920464.673963,3.2329053.5487251,1.3837934,1.320855,2.5714022,2.6071418,3.4015078,1.5585514,1.0058221,3.1629595,1.9115604,4.87989,2.6217103.6188413.2559922,1.1495901.649384,1.2176403,1.5598932-.0755048.648319-.4767985,1.1608572-1.3471805,1.2551264-.6760503.6917902-1.1916129,1.5153358-1.5740145,2.4094023-.5108769,1.1944244-.8983901,2.4362177-1.1783011,3.7054866-.1218301.5524524-.1674098,1.1222422-.2376112,1.6853654-.0420654.337482.0688169.6926422-.1545666,1.0111681-.0554412.0790617-.0296482.2295389-.0125451.3428281.1487732.9854177.1629157,1.983274.2953527,2.9732709.1023628.7653568.2300501,1.5316082.4719424,2.2396283.327791.9594117.867464,1.8460661,1.31159,2.7662025.2087724.4325819.4238919.8633534.6050396,1.3076284.2277285.5585013.0578693,1.0867581-.2861515,1.5210865-1.1513579,1.4536327-1.8778654,3.0880297-2.2439945,4.9003796-.140424.6949851-.3619119,1.3784261-.3339038,2.0940073.0599779,1.5318212.554561,2.9168287,1.6350147,4.0155569.764015.7769648,1.6367186,1.4466893,2.4556849,2.1702149.2392512.2113922.4779487.4279387.6869128.6682123.6410348.7370079,1.2780654,1.4781265,1.8944999,2.2356454.2507953.3081321.4445732.6626745.6448686.9666533v1.1343826c-.3026156.787955-.9012868,1.1133818-1.7277503,1.2214102-1.5208735-.2966306-2.7504199-1.2938692-3.949807-2.2836958-2.4442261-2.0171606-3.7604592-4.7393807-4.5573172-7.7389772-.1157385-.4356489-.0160807-.9249499-.0463891-1.3874569-.113204-1.7269836.3181213-3.3373128,1.0260987-4.8896023.5771592-1.2653925,1.1616027-2.5274411,1.7748211-3.8606069-.1333102-.2691124-.2644053-.6192886-.4650841-.9235442-.7302774-1.1072477-1.1274392-2.3443126-1.4718859-3.6070002-.4734972-1.735844-.5851037-3.5082156-.4905577-5.2915137.0525871-.9917648.3155654-1.9582051.5530914-2.9219404.4570118-1.8544153,1.2007715-3.5953284,2.1155831-5.2663809.0956536-.1747367.2209341-.3332222.317461-.5075116.1343325-.2426165.2545013-.4930496.4094512-.7963468-1.0765559-.2635533-2.0530068-.5393962-2.9564235-1.0009659-.9203281-.4701958-1.7978026-1.0579407-2.4918292-1.7992297-1.4005344-1.4958686-2.3598609-3.238869-2.7004526-5.3213748-.2616364-1.5997862-.4109634-3.1985713-.2971631-4.8025321.0534604-.7530034.1539702-1.5198725.286045-2.2770292.1418511-.8132582.3169285-1.6092855.5570956-2.3947699.0744399-.2434897.1718613-.4799508.286471-.7960699-.1218088-.1661958-.2376964-.4759466-.4570757-.5950078-.6424192-.3486427-.9918074-.9641187-1.4164873-1.4898623-1.0250551-1.2689707-1.7865142-2.6872259-2.280863-4.2626035-.4557126-1.4522909-.5989268-2.9308008-.4664898-4.4152105.1382728-1.5498188.3813579-3.0982958.8466976-4.5946117.1503707-.4834651.3614434-.9480806.55848-1.456785-.4559468-.2737768-.8743649-.5625055-1.3249657-.7864641-.6228242-.3095378-1.1485464-.7412464-1.6768458-1.1803884-1.5290523-1.2710367-2.5635641-2.8895021-3.3287506-4.6984867-.3963311-.9370052-.6573285-1.9113474-.8840772-2.9057745-.4019753-1.7631066-.3578012-3.5428477-.3224237-5.3228018.0115866-.5829525.1893052-1.1626144.2993569-1.7913597-.0825548-.05165-.1924787-.1699764-.3194205-.1925-2.6069927-.4625069-3.9065275-2.1546241-4.5546122-4.6041749-.5321119-2.0111117-.4997375-4.03758-.5083636-6.0761887-.007625-1.796727.3851491-3.4967035,1.192188-5.1018997.023727-.0471665.0179124-.1091678.0311391-.2007427-1.1968312-.3829021-2.2636109-1.0332019-3.2073891-1.8528178-1.2476718-1.0835526-1.9245527-2.5224039-2.3586255-4.0952363-.2192302-.7943554-.1588263-1.5995732-.1861103-2.4028422-.094823-2.7912713.5523459-5.4205428,1.7336076-7.9332663.0108199-.0230029-.0022577-.0572623-.0072416-.1319577-.632217-.2523288-1.2833475-.5122187-1.9344994-.772098-1.6791887-.6701931-3.3032131-1.4819603-4.6184026-2.7183543-1.2980438-1.22026-2.2082762-2.7281625-2.6971938-4.492579-.3726892-1.3449441-.5181611-2.6895262-.4943063-4.0720417.0153566-.8906586.1475592-1.7595923.324085-2.6296548.107581-.5303015.1206373-1.0790586.1958652-1.6167828.2553319-1.8253209.6468707-3.6211747,1.2898011-5.3506502.2155668-.5798429.5440819-1.1176949.8225019-1.6778256-.1832563-.1065587-.3235099-.2511573-.4772032-.26727-1.005886-.1053553-1.6806796-.7471569-2.2475089-1.4689254-.9389434-1.1956065-1.5594247-2.5520414-1.8534142-4.0647149-.0827252-.4257023-.1390183-.8400842-.1558445-1.2679803-.0111607-.2832016.0354628-.5638048-.1276021-.8438542-.089413-.1535975-.0596371-.4022096-.0256865-.5979151.2310937-1.3321435.2656406-2.6893132.8151325-3.9780174.3301765-.7743876.750405-1.4017059,1.37849-1.9340734h1.0751502c.1948642.2151621.4459789.4924746.6846551.7560066.1225755.6067328.0073694,1.1589723-.2322013,1.6923515-.5461479,1.215947-.7810542,2.4823193-.7797336,3.821928.0012779,1.2905253.3442764,2.4584964.8476134,3.6287145.4230186.9834901,1.2009845,1.5984444,1.9907286,2.2014712.2868331.2190385.4684493.4835396.6856774.7378173.3786742.4432633.3974812.8970377.105366,1.4173606-.8266765,1.4725995-1.2607068,3.0744623-1.5526516,4.7317557-.1587837.9013826-.2437666,1.8055874-.3611665,2.7083971-.1236618.9510625-.1234701,1.8945425-.131372,2.8426338-.0149306,1.7936387.4409098,3.4820712,1.2147862,5.0870223.6297464,1.305999,1.651351,2.2362098,2.8558072,3.021545,1.3701834.8934168,2.9111206,1.4253797,4.3498866,2.171003.5809504.3010608,1.0517427.6981586,1.4822798,1.1622736.4042969.4358087.5209939.9614457.2996764,1.5139194-.2528826.6312799-.5229534,1.2597163-.8412237,1.8598571-.5669783,1.0690694-.8325125,2.2096287-1.0243096,3.3956613-.1067504.6601932-.138358,1.3090021-.1457062,1.9676086-.0116505,1.0439259.2236391,2.0342104.714218,2.951972.4439342.8304571,1.1032861,1.4748891,1.9075349,1.9550529.6315781.3770555,1.2984272.6947082,1.9338604,1.0656935.4910688.286716.965993.603325,1.4329514.9284004.477118.332136.6145602.874695.7787326,1.3573614Z" stroke-width="0"/>
      <path d="m111.4664043,161.9743146c-.0499887-.3954791-.0961009-.7034195-.1267927-1.0128721-.1306691-1.3178519-.512453-2.5718707-1.1778751-3.7018658-.8498285-1.4431323-2.1809709-2.3193716-3.7748999-2.7822406-1.0856719-.3153098-2.1747516-.6193099-3.3112641-.7229932-1.0007103-.0913086-1.5245157-.4275553-2.2198841-1.3371061,0-.6471263-.0395735-1.3457109.0137165-2.0371603.0363786-.4718998.206323-.9329371.3096443-1.4003427.1886875-.8532789.3397184-1.7163767.565317-2.5596451.3768212-1.4084363.374883-2.8400992.3422104-4.2764052-.0234928-1.0314873-.4110912-1.9426569-1.0477597-2.7294724-.263745-.3259273-.6473819-.5646674-1.0029893-.8035459-.3285578-.2206892-.6826317-.410399-1.0432231-.5747631-.616967-.2812421-1.1274179-.686359-1.5275827-1.2007289-.4378427-.7535253-.2709441-1.4351985.2234261-2.1339215.2556514-.1368884.5564779-.2979618.8792637-.4707922.2975891,0,.6173291-.0003834.9370478.0000639,1.4517584.002066,2.6970873.558086,3.873791,1.3676275.8766439.603112,1.5329501,1.3868392,2.0628043,2.2784776.5695555.9583893.8994977,2.0092694,1.0042886,3.1268897.0370602.3953513.1447477.7865174.1557806,1.1813894.0288175,1.0311359-.1843851,2.0397482-.3097295,3.0581579-.1678358,1.3634529-.5850611,2.6421999-1.0397513,3.9235453-.2497942.7039093-.5637835,1.3633677-.9694222,1.9863623-.0723313.1110741-.0848977.2610827-.118124.3703037,1.2022624.4073213,2.3811386.7809264,3.5411864,1.2058193,1.7188261.6295547,3.050288,1.7050457,3.9983686,3.3150128.7032917,1.1942753,1.152295,2.4679744,1.5005543,3.7780096.3204855,1.2055637.2726054,2.4697848.1860464,3.7030585-.0955258,1.3610675-.2453214,2.7315703-.5354985,4.0622016-.3182704,1.4593622-.7922574,2.8882455-1.2583213,4.310803-.3334565,1.0178773-.745208,2.0120489-1.1635196,2.9992557-.1753117.4137536-.4578424.7820765-.7251444,1.2268414.4120923.2382928.8106171.4373528,1.1757878.685507,1.3076923.8885926,2.3306174,2.06421,3.1743544,3.3781855.8758771,1.364028,1.5347605,2.8456902,2.0152224,4.3972768.2934358.9476972.5032518,1.9140311.6849533,2.8937619.2251726,1.2141898.1628518,2.425057.1071764,3.6265952-.045452.9808597-.2458965,1.9715808-.5391832,2.9234101-.3157358,1.024693-.5998426,2.0671706-1.0222223,3.0483072-.3117103.724122-.823503,1.3620046-1.2452224,2.0389069-.0437481.0702227-.0809786.1445134-.1389118.2486441.5022934.4819955.9700611.9732347,1.5135467,1.4102468.9931279.7986045,1.7699223,1.7888145,2.1808857,3.0311615.2681965.8107023.5726225,1.6090299.5221227,2.4846728.3681099.7010979-.0247068,1.3998742-.0044728,2.0993746.0200423.6926209-.1927769,1.3431976-.3066837,2.0133481-.4692587,2.7610907-1.73414,5.2032295-2.9884784,7.7337802.1598487.0640034.33007.1428734.507043.2013817,1.826258.6037829,3.2685171,1.700296,4.4285437,3.2426815,1.1607933,1.543344,2.0308133,3.2123944,2.5828823,5.0548822.1710732.5709612.3477481,1.1466508.3090053,1.7501356-.0532048.8286786.0274757,1.649498-.1212976,2.4927451-.1917545,1.0869498-.5976062,2.0615903-1.0482922,3.0730566.5850185.2175476,1.2123581.3003153,1.8026162.5515792.9145135.3893024,1.7267493.8911911,2.3940031,1.6086892,1.1089517,1.1925075,1.8907087,2.6208157,2.1594164,4.1950219.3087497,1.8089207.129306,3.63192-1.1587699,5.1247428-.7359004.852853-1.5112251,1.6737362-2.3032696,2.4749179-.2533298.2562265-.6172226.4031893-.9904442.6377974-.4121349-.0611706-.8599668-.1276447-1.3908008-.2064295-.1600404-.1732883-.3562677-.3857242-.516585-.5592894-.213373-1.148014.2801026-2.0697691.734878-2.9637077.206749-.2234687.4679808-.4169271.6106199-.6757308.5487677-.9957051,1.0509972-2.0148816,1.4075205-3.1010221.332562-1.0131702.2537345-1.963402-.3582059-2.8518882-.335203-.4867025-.7989027-.8033968-1.3426226-1.0172383-.90921-.3575456-1.8369288-.6058915-2.8281185-.5259565-.202191.016315-.4072574-.006198-.6103004.0035995-.9173036.0442166-1.6278156-.2656619-1.9746692-1.1129985-.2651508-1.2230076.2974613-2.2157734.7443135-3.2275379.2972696-.673111.6518973-1.3162757.8350044-2.040483.2680261-1.0601557.3776945-2.0869147.1679423-3.201468-.4052766-2.1538573-1.4930358-3.8743022-3.0460282-5.3279562-.4454891-.416991-1.0702302-.6424618-1.4880732-.8837578-.7375404-.0975705-1.3378942-.1422558-1.9213792-.2663222-.3915814-.0832576-.7409482-.2993995-.9244175-.7007997-.095036-.2078992-.2066212-.4082159-.3695583-.7270826.0559311-.3145004.0863886-.7458044.2128405-1.1467999.3414436-1.0826261.7436106-2.1418873,1.2739547-3.1524591,1.0151723-1.934329,1.816567-3.9561115,2.4278472-6.0552092.3937965-1.3522923.4639552-2.7124013.1046844-4.0701461-.1528839-.5778834-.4901317-1.1045215-.9066967-1.5354207-.5198011-.537671-1.1121252-1.0044377-1.6539282-1.5218959-.5369681-.5128364-1.0999422-1.0027337-1.3129744-1.7721374-.1586134-.5728355-.1876225-1.1329982.0048988-1.6873462.5008237-1.4419609,1.0144482-2.8796407,1.5365709-4.3140405.3957134-1.0872054.7364967-2.1957737.9275271-3.3308379.1563557-.9291458.2517111-1.8969706.1708177-2.8299928-.0893278-1.0303585-.3383553-2.0583102-.7188825-3.0378281-.5614193-1.4450706-1.3594274-2.7382156-2.3230563-3.9594554-.763163-.9671858-1.7595071-1.5370182-2.8278842-1.9987583-1.3304395-.575008-1.3617277-.7008636-1.9327954-1.7525423-.1240451-1.3433254.4097281-2.5207319.9565576-3.674028.5970525-1.2592158,1.3307164-2.4541514,1.9170129-3.7178613.6185005-1.3331658,1.1655004-2.7023482,1.6824901-4.0787935.3688554-.9820099.6544531-1.9968627.683228-3.0640471.0051969-.1926491.0905419-.383147.1162923-.4851051Z" stroke-width="0"/>
      <path d="m140.684829,58.3166844h-1.1145107c-.6687873-.2618494-1.1284615-.7575295-1.4939304-1.4021638-.4625069-.8157715-.9855242-1.5999033-1.5248352-2.3678959-.1728198-.2461042-.4654675-.4210006-.7288717-.5881814-.8414154-.5340288-1.7054716-.9803113-2.7419642-1.0648149-.4481514-.0365384-.8971761-.1471918-1.3571697-.1424687-1.5723531.0161553-3.025922.4683748-4.3807488,1.2357177-.3181639.1802052-.5613128.4928473-.8282101.7347875v1.2673201c-.3104962.2520093-.657435.5336135-.990785.8041529-.3118168-.0905845-.5551787-.1612864-.9295292-.2700282-.1339492-.1736398-.3514754-.4352549-.5464887-.7126739-.3938391-.5602904-.7263371-1.1719487-1.173168-1.6848489-.7406713-.8502119-1.7247472-1.2790079-2.8486081-1.3702367-1.4141658-.1147854-2.6844996.4156705-3.9460158.9321969-.7852927.3215344-1.531523.7384669-2.3785614,1.153376h-.9403917c-.1657272-.1682884-.3685146-.3742334-.5171388-.5251631-.2186125-1.0819606.4826131-1.6096796,1.1287597-2.0483476.7428012-.5043221,1.5865382-.8754512,2.418859-1.2278318.7269122-.307754,1.4972317-.5141622,2.2513853-.7559906.5967117-.1913499,1.2031783-.3522475,1.8373548-.3146176.713217.042321,1.4189793-.0481782,2.1429949.1409405,1.4220038.3714592,2.5257159,1.1562726,3.4314755,2.2729931.1983998.2446292.3961181.4898228.6411626.7928911.2866201-.2539582.5166702-.5147373.7976461-.6969552,1.2470541-.8087109,2.5841602-1.3768127,4.0573028-1.6814411,1.1000487-.2274729,2.1995223-.2268765,3.2728195-.100824,1.3574679.159428,2.6153206.7081265,3.7307685,1.5460116.6727916.5053604,1.1952763,1.130043,1.679636,1.8071582.229262.3204908.5492789.5760677.8701477.9039492.5872123-.4228696,1.1205596-.7930668,1.6388059-1.1833383.8440139-.6356036,1.7028306-1.2503182,2.6573435-1.7083257.765655-.3674177,1.5450905-.662206,2.4197323-.7507138.4796739-.0485457.9768981-.2041079,1.4401079-.1013724.984587.2183623,1.9996529.3035315,2.922196.8142433.9493586.5255412,1.7742034,1.1492759,2.3702761,2.0615636.1093276.1673087.2430424.318691.3465128.4528212.7686156-.466165,1.4388087-.8899398,2.1252741-1.2854774,1.5896266-.9159458,3.3163759-1.4167802,5.1147962-1.745961,1.4409173-.2637503,2.8583205-.6542402,4.2900153-.9710089,1.3360625-.2956136,2.7088869-.3282596,4.0458653-.1819783,1.5439829.1689487,3.0873056.5058769,4.4437299,1.3499334.6515139.4054151,1.2780228.8532843,1.8978438,1.3065741.5324527.3894195.7352401,1.0114397,1.0411571,1.6266442v1.0823067q-.438929.8817237-1.9663626,1.3784368c-.3275993-.0836304-.6610345-.1493803-.9815626-.2545758-.6940479-.2277711-1.169249-.7347502-1.4908846-1.3537939-.2028726-.3904738-.490728-.6265302-.8605632-.7922947-1.2697162-.5690816-2.5822433-1.0709437-3.9614149-1.2048928-1.0773014-.1046258-2.1837824-.1614621-3.2769089.0954992-.6071269.1427243-1.2515695.1193115-1.8754586.1997683-1.7447043.2250182-3.4624016.5884636-5.0693442,1.316952-.889402.4032106-1.6748863.9994324-2.3106816,1.7605401-.0856431.1025225-.1106055.2537239-.1745237.3767467-.2783987.5357753-.5525376,1.0775037-1.2535503,1.2599506h-.7968367c-.8072732-.2517963-1.3445608-.7795206-1.7468129-1.4744312-.1852797-.3200701-.4138388-.6148158-.6050822-.9317443-.6323235-1.047829-1.6677725-1.4370249-2.780707-1.5904519-1.1831998-.1631128-2.3008628.1135661-3.3938828.6507844-1.3320583.6547087-2.5343207,1.4485103-3.5279598,2.5503055-.1949281.2161418-.3699629.4502494-.5005043.6102791Z" stroke-width="0"/>
      <path d="m79.3983704,31.5878046v-.8983795c.2192728-.2292034.4580874-.4788272.7662301-.8009154.4071083-.0522517.8814468-.1158876,1.3565308-.1733789.5083955-.061522,1.0164929-.1293007,1.5265817-.1720104.4820594-.0403669.9673136.0445361,1.4461781-.1488531.2262589-.0913779.5165637-.0270231.7778806-.0281785.696902-.003083,1.3940169-.0143981,2.0906846-.0020128.8330662.0148081,1.6368251-.134274,2.4487202-.3097934.6439102-.13921,1.3149339-.0825974,2.0680651.2745383.2773764.3338931.640694.7712194.9494437,1.1428596v1.5068801c-.5911313,1.3274896-1.8788665,1.8852189-3.0654102,2.7256546,1.3481816.2213015,2.4883575.6924026,3.61995,1.1596112.5097693.210471.9182834.6661197,1.2922718.9495449.0766124.3781524.1266649.6252363.200551.9898638-.0578267.1985436-.1160367.5373887-.2536919.8401162-.2348849.5165477-.6934089.8054734-1.1891848,1.0480686-.5011432.2452149-.989997.5156106-1.5006395.7835994.3868743.3628597.733877.6883132,1.0593464.9935752-.0938432.6292725-.4846791.9355888-1.0596659,1.1580671-.3902608,0-.8566442.0261338-1.3187677-.0070074-.5088322-.0364904-1.0389633-.0525712-1.51442-.2124838-.6929191-.2330639-1.2788961-.6531273-1.4802138-1.4393465v-.7928325c.2379946-.6090012.54651-1.1810699,1.1846056-1.4794258-.0038977-.0700044.0117144-.1372771-.0142064-.1783096-.0452816-.0716657-.1161219-.1271867-.1883893-.2020526-1.0011576-.1327298-2.0252116-.2081121-3.0188507-.4237694-.5605886-.121665-1.1357458-.23505-1.6674956-.5623671-1.160165-.7141328-1.6027787-2.3449143-.6930895-3.3756882.184843-.209438.3322638-.4519.5275965-.7214544-.1572076-.0659576-.3041492-.1742361-.4567243-.1828942-.463263-.0262776-.9326495.0223959-1.3921852-.0272147-.4446477-.0480025-.8895617-.1513557-1.3170744-.2854859-.5357221-.1680861-.9852473-.4689126-1.1846269-1.1485251Z" stroke-width="0"/>
    </g>
  </g>
</svg>